{
  "jsonPath": "Classical/Classical/Gabriel Faure/sicilienne.json",
  "path": "Classical\\Classical\\Gabriel Faure\\Sicilienne.mid",
  "name": "Sicilienne",
  "difficulty": "Advanced",
  "bpm": 80,
  "notes": [
    {
      "midi": 43,
      "hit": false,
      "t": 0,
      "d": 187.5,
      "v": 62
    },
    {
      "midi": 50,
      "hit": false,
      "t": 187.5,
      "d": 187.5,
      "v": 62
    },
    {
      "midi": 55,
      "hit": false,
      "t": 375,
      "d": 187.5,
      "v": 62
    },
    {
      "midi": 58,
      "hit": false,
      "t": 562.5,
      "d": 187.5,
      "v": 55
    },
    {
      "midi": 62,
      "hit": false,
      "t": 750,
      "d": 375,
      "v": 64
    },
    {
      "midi": 43,
      "hit": false,
      "t": 1125,
      "d": 187.5,
      "v": 56
    },
    {
      "midi": 50,
      "hit": false,
      "t": 1312.5,
      "d": 187.5,
      "v": 58
    },
    {
      "midi": 55,
      "hit": false,
      "t": 1500,
      "d": 187.5,
      "v": 61
    },
    {
      "midi": 58,
      "hit": false,
      "t": 1687.5,
      "d": 187.5,
      "v": 45
    },
    {
      "midi": 62,
      "hit": false,
      "t": 1875,
      "d": 375,
      "v": 62
    },
    {
      "midi": 43,
      "hit": false,
      "t": 2250,
      "d": 187.5,
      "v": 56
    },
    {
      "midi": 50,
      "hit": false,
      "t": 2437.5,
      "d": 187.5,
      "v": 60
    },
    {
      "midi": 55,
      "hit": false,
      "t": 2625,
      "d": 187.5,
      "v": 53
    },
    {
      "midi": 58,
      "hit": false,
      "t": 2812.5,
      "d": 187.5,
      "v": 51
    },
    {
      "midi": 62,
      "hit": false,
      "t": 3000,
      "d": 375,
      "v": 63
    },
    {
      "midi": 53,
      "hit": false,
      "t": 3375,
      "d": 187.5,
      "v": 55
    },
    {
      "midi": 55,
      "hit": false,
      "t": 3562.5,
      "d": 187.5,
      "v": 47
    },
    {
      "midi": 58,
      "hit": false,
      "t": 3750,
      "d": 187.5,
      "v": 48
    },
    {
      "midi": 62,
      "hit": false,
      "t": 3937.5,
      "d": 187.5,
      "v": 63
    },
    {
      "midi": 67,
      "hit": false,
      "t": 4125,
      "d": 375,
      "v": 64
    },
    {
      "midi": 52,
      "hit": false,
      "t": 4500,
      "d": 187.5,
      "v": 66
    },
    {
      "midi": 58,
      "hit": false,
      "t": 4687.5,
      "d": 187.5,
      "v": 41
    },
    {
      "midi": 62,
      "hit": false,
      "t": 4875,
      "d": 187.5,
      "v": 56
    },
    {
      "midi": 67,
      "hit": false,
      "t": 5062.5,
      "d": 187.5,
      "v": 57
    },
    {
      "midi": 70,
      "hit": false,
      "t": 5250,
      "d": 375,
      "v": 60
    },
    {
      "midi": 53,
      "hit": false,
      "t": 5625,
      "d": 187.5,
      "v": 62
    },
    {
      "midi": 57,
      "hit": false,
      "t": 5812.5,
      "d": 187.5,
      "v": 42
    },
    {
      "midi": 62,
      "hit": false,
      "t": 6000,
      "d": 187.5,
      "v": 57
    },
    {
      "midi": 65,
      "hit": false,
      "t": 6187.5,
      "d": 187.5,
      "v": 55
    },
    {
      "midi": 69,
      "hit": false,
      "t": 6375,
      "d": 375,
      "v": 64
    },
    {
      "midi": 46,
      "hit": false,
      "t": 6750,
      "d": 187.5,
      "v": 58
    },
    {
      "midi": 53,
      "hit": false,
      "t": 6937.5,
      "d": 187.5,
      "v": 63
    },
    {
      "midi": 58,
      "hit": false,
      "t": 7125,
      "d": 187.5,
      "v": 62
    },
    {
      "midi": 65,
      "hit": false,
      "t": 7125,
      "d": 187.5,
      "v": 64
    },
    {
      "midi": 53,
      "hit": false,
      "t": 7125,
      "d": 187.5,
      "v": 55
    },
    {
      "midi": 60,
      "hit": false,
      "t": 7500,
      "d": 187.5,
      "v": 62
    },
    {
      "midi": 64,
      "hit": false,
      "t": 7500,
      "d": 187.5,
      "v": 63
    },
    {
      "midi": 55,
      "hit": false,
      "t": 7500,
      "d": 187.5,
      "v": 55
    },
    {
      "midi": 46,
      "hit": false,
      "t": 7875,
      "d": 187.5,
      "v": 58
    },
    {
      "midi": 53,
      "hit": false,
      "t": 8062.5,
      "d": 187.5,
      "v": 53
    },
    {
      "midi": 58,
      "hit": false,
      "t": 8250,
      "d": 187.5,
      "v": 56
    },
    {
      "midi": 65,
      "hit": false,
      "t": 8250,
      "d": 187.5,
      "v": 55
    },
    {
      "midi": 53,
      "hit": false,
      "t": 8250,
      "d": 187.5,
      "v": 60
    },
    {
      "midi": 60,
      "hit": false,
      "t": 8625,
      "d": 187.5,
      "v": 66
    },
    {
      "midi": 64,
      "hit": false,
      "t": 8625,
      "d": 187.5,
      "v": 62
    },
    {
      "midi": 55,
      "hit": false,
      "t": 8625,
      "d": 187.5,
      "v": 56
    },
    {
      "midi": 57,
      "hit": false,
      "t": 9000,
      "d": 750,
      "v": 56
    },
    {
      "midi": 62,
      "hit": false,
      "t": 9000,
      "d": 750,
      "v": 66
    },
    {
      "midi": 66,
      "hit": false,
      "t": 9000,
      "d": 750,
      "v": 55
    },
    {
      "midi": 38,
      "hit": false,
      "t": 9000,
      "d": 187.5,
      "v": 58
    },
    {
      "midi": 45,
      "hit": false,
      "t": 9187.5,
      "d": 187.5,
      "v": 58
    },
    {
      "midi": 50,
      "hit": false,
      "t": 9375,
      "d": 187.5,
      "v": 55
    },
    {
      "midi": 54,
      "hit": false,
      "t": 9562.5,
      "d": 187.5,
      "v": 55
    },
    {
      "midi": 57,
      "hit": false,
      "t": 9750,
      "d": 187.5,
      "v": 61
    },
    {
      "midi": 62,
      "hit": false,
      "t": 9937.5,
      "d": 187.5,
      "v": 67
    },
    {
      "midi": 66,
      "hit": false,
      "t": 10125,
      "d": 375,
      "v": 66
    },
    {
      "midi": 43,
      "hit": false,
      "t": 11250,
      "d": 375,
      "v": 58
    },
    {
      "midi": 50,
      "hit": false,
      "t": 11437.5,
      "d": 187.5,
      "v": 58
    },
    {
      "midi": 55,
      "hit": false,
      "t": 11625,
      "d": 187.5,
      "v": 52
    },
    {
      "midi": 58,
      "hit": false,
      "t": 11812.5,
      "d": 187.5,
      "v": 56
    },
    {
      "midi": 62,
      "hit": false,
      "t": 12000,
      "d": 375,
      "v": 63
    },
    {
      "midi": 53,
      "hit": false,
      "t": 12375,
      "d": 375,
      "v": 46
    },
    {
      "midi": 62,
      "hit": false,
      "t": 12562.5,
      "d": 187.5,
      "v": 64
    },
    {
      "midi": 55,
      "hit": false,
      "t": 12750,
      "d": 187.5,
      "v": 45
    },
    {
      "midi": 58,
      "hit": false,
      "t": 12937.5,
      "d": 187.5,
      "v": 61
    },
    {
      "midi": 62,
      "hit": false,
      "t": 13125,
      "d": 375,
      "v": 58
    },
    {
      "midi": 51,
      "hit": false,
      "t": 13500,
      "d": 375,
      "v": 56
    },
    {
      "midi": 53,
      "hit": false,
      "t": 13687.5,
      "d": 187.5,
      "v": 62
    },
    {
      "midi": 56,
      "hit": false,
      "t": 13875,
      "d": 187.5,
      "v": 51
    },
    {
      "midi": 60,
      "hit": false,
      "t": 14062.5,
      "d": 187.5,
      "v": 57
    },
    {
      "midi": 65,
      "hit": false,
      "t": 14250,
      "d": 375,
      "v": 64
    },
    {
      "midi": 50,
      "hit": false,
      "t": 14625,
      "d": 375,
      "v": 46
    },
    {
      "midi": 53,
      "hit": false,
      "t": 14812.5,
      "d": 187.5,
      "v": 48
    },
    {
      "midi": 55,
      "hit": false,
      "t": 15000,
      "d": 187.5,
      "v": 43
    },
    {
      "midi": 59,
      "hit": false,
      "t": 15187.5,
      "d": 187.5,
      "v": 53
    },
    {
      "midi": 65,
      "hit": false,
      "t": 15375,
      "d": 375,
      "v": 66
    },
    {
      "midi": 64,
      "hit": false,
      "t": 15750,
      "d": 750,
      "v": 66
    },
    {
      "midi": 48,
      "hit": false,
      "t": 15750,
      "d": 187.5,
      "v": 52
    },
    {
      "midi": 55,
      "hit": false,
      "t": 15937.5,
      "d": 187.5,
      "v": 55
    },
    {
      "midi": 58,
      "hit": false,
      "t": 16125,
      "d": 187.5,
      "v": 60
    },
    {
      "midi": 63,
      "hit": false,
      "t": 16500,
      "d": 375,
      "v": 61
    },
    {
      "midi": 62,
      "hit": false,
      "t": 16875,
      "d": 750,
      "v": 66
    },
    {
      "midi": 50,
      "hit": false,
      "t": 16875,
      "d": 187.5,
      "v": 63
    },
    {
      "midi": 57,
      "hit": false,
      "t": 17062.5,
      "d": 187.5,
      "v": 53
    },
    {
      "midi": 60,
      "hit": false,
      "t": 17250,
      "d": 187.5,
      "v": 55
    },
    {
      "midi": 66,
      "hit": false,
      "t": 17625,
      "d": 375,
      "v": 62
    },
    {
      "midi": 67,
      "hit": false,
      "t": 18000,
      "d": 1125,
      "v": 60
    },
    {
      "midi": 43,
      "hit": false,
      "t": 18000,
      "d": 187.5,
      "v": 24
    },
    {
      "midi": 50,
      "hit": false,
      "t": 18187.5,
      "d": 187.5,
      "v": 55
    },
    {
      "midi": 58,
      "hit": false,
      "t": 18375,
      "d": 187.5,
      "v": 46
    },
    {
      "midi": 55,
      "hit": false,
      "t": 18562.5,
      "d": 187.5,
      "v": 35
    },
    {
      "midi": 58,
      "hit": false,
      "t": 18750,
      "d": 187.5,
      "v": 19
    },
    {
      "midi": 62,
      "hit": false,
      "t": 18937.5,
      "d": 187.5,
      "v": 55
    },
    {
      "midi": 43,
      "hit": false,
      "t": 19125,
      "d": 187.5,
      "v": 67
    },
    {
      "midi": 50,
      "hit": false,
      "t": 19312.5,
      "d": 187.5,
      "v": 61
    },
    {
      "midi": 58,
      "hit": false,
      "t": 19500,
      "d": 187.5,
      "v": 55
    },
    {
      "midi": 55,
      "hit": false,
      "t": 19687.5,
      "d": 187.5,
      "v": 36
    },
    {
      "midi": 62,
      "hit": false,
      "t": 19875,
      "d": 375,
      "v": 63
    },
    {
      "midi": 67,
      "hit": false,
      "t": 20250,
      "d": 750,
      "v": 63
    },
    {
      "midi": 43,
      "hit": false,
      "t": 20250,
      "d": 187.5,
      "v": 58
    },
    {
      "midi": 50,
      "hit": false,
      "t": 20437.5,
      "d": 187.5,
      "v": 47
    },
    {
      "midi": 55,
      "hit": false,
      "t": 20625,
      "d": 187.5,
      "v": 34
    },
    {
      "midi": 58,
      "hit": false,
      "t": 20812.5,
      "d": 187.5,
      "v": 37
    },
    {
      "midi": 70,
      "hit": false,
      "t": 21000,
      "d": 375,
      "v": 55
    },
    {
      "midi": 62,
      "hit": false,
      "t": 21000,
      "d": 375,
      "v": 37
    },
    {
      "midi": 62,
      "hit": false,
      "t": 21375,
      "d": 750,
      "v": 63
    },
    {
      "midi": 74,
      "hit": false,
      "t": 21375,
      "d": 750,
      "v": 63
    },
    {
      "midi": 53,
      "hit": false,
      "t": 21375,
      "d": 187.5,
      "v": 52
    },
    {
      "midi": 55,
      "hit": false,
      "t": 21562.5,
      "d": 187.5,
      "v": 52
    },
    {
      "midi": 58,
      "hit": false,
      "t": 21750,
      "d": 187.5,
      "v": 41
    },
    {
      "midi": 62,
      "hit": false,
      "t": 21937.5,
      "d": 187.5,
      "v": 41
    },
    {
      "midi": 67,
      "hit": false,
      "t": 22125,
      "d": 375,
      "v": 55
    },
    {
      "midi": 79,
      "hit": false,
      "t": 22125,
      "d": 375,
      "v": 55
    },
    {
      "midi": 70,
      "hit": false,
      "t": 22500,
      "d": 562.5,
      "v": 55
    },
    {
      "midi": 82,
      "hit": false,
      "t": 22500,
      "d": 562.5,
      "v": 55
    },
    {
      "midi": 52,
      "hit": false,
      "t": 22500,
      "d": 187.5,
      "v": 55
    },
    {
      "midi": 55,
      "hit": false,
      "t": 22687.5,
      "d": 187.5,
      "v": 52
    },
    {
      "midi": 58,
      "hit": false,
      "t": 22875,
      "d": 187.5,
      "v": 48
    },
    {
      "midi": 69,
      "hit": false,
      "t": 23062.5,
      "d": 187.5,
      "v": 55
    },
    {
      "midi": 81,
      "hit": false,
      "t": 23062.5,
      "d": 187.5,
      "v": 55
    },
    {
      "midi": 62,
      "hit": false,
      "t": 23062.5,
      "d": 187.5,
      "v": 48
    },
    {
      "midi": 67,
      "hit": false,
      "t": 23250,
      "d": 375,
      "v": 55
    },
    {
      "midi": 79,
      "hit": false,
      "t": 23250,
      "d": 375,
      "v": 55
    },
    {
      "midi": 69,
      "hit": false,
      "t": 23625,
      "d": 750,
      "v": 55
    },
    {
      "midi": 81,
      "hit": false,
      "t": 23625,
      "d": 750,
      "v": 55
    },
    {
      "midi": 53,
      "hit": false,
      "t": 23625,
      "d": 187.5,
      "v": 60
    },
    {
      "midi": 57,
      "hit": false,
      "t": 23812.5,
      "d": 187.5,
      "v": 53
    },
    {
      "midi": 62,
      "hit": false,
      "t": 24000,
      "d": 187.5,
      "v": 42
    },
    {
      "midi": 65,
      "hit": false,
      "t": 24187.5,
      "d": 187.5,
      "v": 46
    },
    {
      "midi": 74,
      "hit": false,
      "t": 24375,
      "d": 375,
      "v": 55
    },
    {
      "midi": 74,
      "hit": false,
      "t": 24750,
      "d": 562.5,
      "v": 67
    },
    {
      "midi": 46,
      "hit": false,
      "t": 24750,
      "d": 187.5,
      "v": 48
    },
    {
      "midi": 53,
      "hit": false,
      "t": 24937.5,
      "d": 187.5,
      "v": 55
    },
    {
      "midi": 58,
      "hit": false,
      "t": 25125,
      "d": 375,
      "v": 26
    },
    {
      "midi": 62,
      "hit": false,
      "t": 25125,
      "d": 375,
      "v": 55
    },
    {
      "midi": 72,
      "hit": false,
      "t": 25312.5,
      "d": 187.5,
      "v": 56
    },
    {
      "midi": 76,
      "hit": false,
      "t": 25500,
      "d": 375,
      "v": 61
    },
    {
      "midi": 55,
      "hit": false,
      "t": 25500,
      "d": 375,
      "v": 60
    },
    {
      "midi": 60,
      "hit": false,
      "t": 25500,
      "d": 375,
      "v": 64
    },
    {
      "midi": 74,
      "hit": false,
      "t": 25875,
      "d": 562.5,
      "v": 55
    },
    {
      "midi": 46,
      "hit": false,
      "t": 25875,
      "d": 187.5,
      "v": 47
    },
    {
      "midi": 53,
      "hit": false,
      "t": 26062.5,
      "d": 187.5,
      "v": 33
    },
    {
      "midi": 58,
      "hit": false,
      "t": 26250,
      "d": 375,
      "v": 37
    },
    {
      "midi": 62,
      "hit": false,
      "t": 26250,
      "d": 375,
      "v": 55
    },
    {
      "midi": 72,
      "hit": false,
      "t": 26437.5,
      "d": 187.5,
      "v": 60
    },
    {
      "midi": 76,
      "hit": false,
      "t": 26625,
      "d": 375,
      "v": 61
    },
    {
      "midi": 55,
      "hit": false,
      "t": 26625,
      "d": 375,
      "v": 55
    },
    {
      "midi": 60,
      "hit": false,
      "t": 26625,
      "d": 375,
      "v": 64
    },
    {
      "midi": 74,
      "hit": false,
      "t": 27000,
      "d": 1125,
      "v": 63
    },
    {
      "midi": 38,
      "hit": false,
      "t": 27000,
      "d": 187.5,
      "v": 52
    },
    {
      "midi": 45,
      "hit": false,
      "t": 27187.5,
      "d": 187.5,
      "v": 56
    },
    {
      "midi": 50,
      "hit": false,
      "t": 27375,
      "d": 187.5,
      "v": 55
    },
    {
      "midi": 54,
      "hit": false,
      "t": 27562.5,
      "d": 187.5,
      "v": 55
    },
    {
      "midi": 57,
      "hit": false,
      "t": 27750,
      "d": 187.5,
      "v": 30
    },
    {
      "midi": 62,
      "hit": false,
      "t": 27937.5,
      "d": 187.5,
      "v": 62
    },
    {
      "midi": 66,
      "hit": false,
      "t": 28125,
      "d": 375,
      "v": 56
    },
    {
      "midi": 62,
      "hit": false,
      "t": 28500,
      "d": 375,
      "v": 56
    },
    {
      "midi": 60,
      "hit": false,
      "t": 28875,
      "d": 375,
      "v": 56
    },
    {
      "midi": 58,
      "hit": false,
      "t": 29250,
      "d": 187.5,
      "v": 60
    },
    {
      "midi": 43,
      "hit": false,
      "t": 29250,
      "d": 375,
      "v": 60
    },
    {
      "midi": 50,
      "hit": false,
      "t": 29437.5,
      "d": 187.5,
      "v": 55
    },
    {
      "midi": 55,
      "hit": false,
      "t": 29625,
      "d": 187.5,
      "v": 48
    },
    {
      "midi": 58,
      "hit": false,
      "t": 29812.5,
      "d": 187.5,
      "v": 58
    },
    {
      "midi": 62,
      "hit": false,
      "t": 30000,
      "d": 187.5,
      "v": 64
    },
    {
      "midi": 41,
      "hit": false,
      "t": 30375,
      "d": 750,
      "v": 58
    },
    {
      "midi": 53,
      "hit": false,
      "t": 30375,
      "d": 750,
      "v": 55
    },
    {
      "midi": 62,
      "hit": false,
      "t": 30562.5,
      "d": 187.5,
      "v": 52
    },
    {
      "midi": 67,
      "hit": false,
      "t": 30750,
      "d": 187.5,
      "v": 61
    },
    {
      "midi": 70,
      "hit": false,
      "t": 30937.5,
      "d": 187.5,
      "v": 61
    },
    {
      "midi": 74,
      "hit": false,
      "t": 31125,
      "d": 375,
      "v": 61
    },
    {
      "midi": 68,
      "hit": false,
      "t": 31500,
      "d": 562.5,
      "v": 62
    },
    {
      "midi": 51,
      "hit": false,
      "t": 31500,
      "d": 187.5,
      "v": 57
    },
    {
      "midi": 53,
      "hit": false,
      "t": 31687.5,
      "d": 187.5,
      "v": 53
    },
    {
      "midi": 56,
      "hit": false,
      "t": 31875,
      "d": 187.5,
      "v": 45
    },
    {
      "midi": 67,
      "hit": false,
      "t": 32062.5,
      "d": 187.5,
      "v": 63
    },
    {
      "midi": 60,
      "hit": false,
      "t": 32062.5,
      "d": 187.5,
      "v": 45
    },
    {
      "midi": 65,
      "hit": false,
      "t": 32250,
      "d": 187.5,
      "v": 60
    },
    {
      "midi": 67,
      "hit": false,
      "t": 32625,
      "d": 750,
      "v": 64
    },
    {
      "midi": 50,
      "hit": false,
      "t": 32625,
      "d": 187.5,
      "v": 60
    },
    {
      "midi": 53,
      "hit": false,
      "t": 32812.5,
      "d": 187.5,
      "v": 52
    },
    {
      "midi": 55,
      "hit": false,
      "t": 33000,
      "d": 187.5,
      "v": 52
    },
    {
      "midi": 59,
      "hit": false,
      "t": 33187.5,
      "d": 187.5,
      "v": 42
    },
    {
      "midi": 65,
      "hit": false,
      "t": 33375,
      "d": 187.5,
      "v": 63
    },
    {
      "midi": 64,
      "hit": false,
      "t": 33750,
      "d": 750,
      "v": 58
    },
    {
      "midi": 48,
      "hit": false,
      "t": 33750,
      "d": 187.5,
      "v": 57
    },
    {
      "midi": 55,
      "hit": false,
      "t": 33937.5,
      "d": 187.5,
      "v": 57
    },
    {
      "midi": 58,
      "hit": false,
      "t": 34125,
      "d": 375,
      "v": 55
    },
    {
      "midi": 63,
      "hit": false,
      "t": 34500,
      "d": 375,
      "v": 51
    },
    {
      "midi": 62,
      "hit": false,
      "t": 34875,
      "d": 750,
      "v": 58
    },
    {
      "midi": 50,
      "hit": false,
      "t": 34875,
      "d": 187.5,
      "v": 56
    },
    {
      "midi": 57,
      "hit": false,
      "t": 35062.5,
      "d": 187.5,
      "v": 56
    },
    {
      "midi": 60,
      "hit": false,
      "t": 35250,
      "d": 375,
      "v": 52
    },
    {
      "midi": 66,
      "hit": false,
      "t": 35625,
      "d": 375,
      "v": 51
    },
    {
      "midi": 67,
      "hit": false,
      "t": 36000,
      "d": 1125,
      "v": 53
    },
    {
      "midi": 43,
      "hit": false,
      "t": 36000,
      "d": 187.5,
      "v": 57
    },
    {
      "midi": 50,
      "hit": false,
      "t": 36187.5,
      "d": 187.5,
      "v": 64
    },
    {
      "midi": 58,
      "hit": false,
      "t": 36375,
      "d": 187.5,
      "v": 53
    },
    {
      "midi": 55,
      "hit": false,
      "t": 36562.5,
      "d": 187.5,
      "v": 48
    },
    {
      "midi": 58,
      "hit": false,
      "t": 36750,
      "d": 187.5,
      "v": 55
    },
    {
      "midi": 62,
      "hit": false,
      "t": 36937.5,
      "d": 187.5,
      "v": 64
    },
    {
      "midi": 43,
      "hit": false,
      "t": 37125,
      "d": 187.5,
      "v": 64
    },
    {
      "midi": 50,
      "hit": false,
      "t": 37312.5,
      "d": 187.5,
      "v": 62
    },
    {
      "midi": 59,
      "hit": false,
      "t": 37500,
      "d": 187.5,
      "v": 50
    },
    {
      "midi": 55,
      "hit": false,
      "t": 37687.5,
      "d": 187.5,
      "v": 46
    },
    {
      "midi": 59,
      "hit": false,
      "t": 37875,
      "d": 187.5,
      "v": 57
    },
    {
      "midi": 62,
      "hit": false,
      "t": 38062.5,
      "d": 187.5,
      "v": 56
    },
    {
      "midi": 67,
      "hit": false,
      "t": 38250,
      "d": 562.5,
      "v": 51
    },
    {
      "midi": 71,
      "hit": false,
      "t": 38250,
      "d": 562.5,
      "v": 48
    },
    {
      "midi": 52,
      "hit": false,
      "t": 38250,
      "d": 750,
      "v": 30
    },
    {
      "midi": 60,
      "hit": false,
      "t": 38250,
      "d": 750,
      "v": 46
    },
    {
      "midi": 67,
      "hit": false,
      "t": 38812.5,
      "d": 187.5,
      "v": 52
    },
    {
      "midi": 69,
      "hit": false,
      "t": 39000,
      "d": 375,
      "v": 64
    },
    {
      "midi": 61,
      "hit": false,
      "t": 39000,
      "d": 375,
      "v": 42
    },
    {
      "midi": 67,
      "hit": false,
      "t": 39375,
      "d": 562.5,
      "v": 60
    },
    {
      "midi": 70,
      "hit": false,
      "t": 39375,
      "d": 562.5,
      "v": 60
    },
    {
      "midi": 51,
      "hit": false,
      "t": 39375,
      "d": 750,
      "v": 30
    },
    {
      "midi": 60,
      "hit": false,
      "t": 39375,
      "d": 750,
      "v": 46
    },
    {
      "midi": 72,
      "hit": false,
      "t": 39937.5,
      "d": 187.5,
      "v": 52
    },
    {
      "midi": 73,
      "hit": false,
      "t": 40125,
      "d": 375,
      "v": 64
    },
    {
      "midi": 58,
      "hit": false,
      "t": 40125,
      "d": 375,
      "v": 42
    },
    {
      "midi": 74,
      "hit": false,
      "t": 40500,
      "d": 562.5,
      "v": 67
    },
    {
      "midi": 57,
      "hit": false,
      "t": 40500,
      "d": 750,
      "v": 53
    },
    {
      "midi": 65,
      "hit": false,
      "t": 40500,
      "d": 750,
      "v": 50
    },
    {
      "midi": 75,
      "hit": false,
      "t": 41062.5,
      "d": 187.5,
      "v": 42
    },
    {
      "midi": 77,
      "hit": false,
      "t": 41250,
      "d": 375,
      "v": 67
    },
    {
      "midi": 63,
      "hit": false,
      "t": 41250,
      "d": 375,
      "v": 61
    },
    {
      "midi": 79,
      "hit": false,
      "t": 41625,
      "d": 750,
      "v": 66
    },
    {
      "midi": 58,
      "hit": false,
      "t": 41625,
      "d": 562.5,
      "v": 53
    },
    {
      "midi": 62,
      "hit": false,
      "t": 41625,
      "d": 562.5,
      "v": 63
    },
    {
      "midi": 57,
      "hit": false,
      "t": 42187.5,
      "d": 187.5,
      "v": 48
    },
    {
      "midi": 74,
      "hit": false,
      "t": 42375,
      "d": 375,
      "v": 67
    },
    {
      "midi": 56,
      "hit": false,
      "t": 42375,
      "d": 375,
      "v": 55
    },
    {
      "midi": 62,
      "hit": false,
      "t": 42750,
      "d": 562.5,
      "v": 63
    },
    {
      "midi": 70,
      "hit": false,
      "t": 42750,
      "d": 562.5,
      "v": 63
    },
    {
      "midi": 52,
      "hit": false,
      "t": 42750,
      "d": 750,
      "v": 64
    },
    {
      "midi": 55,
      "hit": false,
      "t": 42750,
      "d": 750,
      "v": 43
    },
    {
      "midi": 67,
      "hit": false,
      "t": 43312.5,
      "d": 187.5,
      "v": 57
    },
    {
      "midi": 69,
      "hit": false,
      "t": 43500,
      "d": 375,
      "v": 67
    },
    {
      "midi": 62,
      "hit": false,
      "t": 43500,
      "d": 375,
      "v": 46
    },
    {
      "midi": 67,
      "hit": false,
      "t": 43875,
      "d": 562.5,
      "v": 63
    },
    {
      "midi": 70,
      "hit": false,
      "t": 43875,
      "d": 562.5,
      "v": 63
    },
    {
      "midi": 51,
      "hit": false,
      "t": 43875,
      "d": 750,
      "v": 38
    },
    {
      "midi": 60,
      "hit": false,
      "t": 43875,
      "d": 750,
      "v": 37
    },
    {
      "midi": 72,
      "hit": false,
      "t": 44437.5,
      "d": 187.5,
      "v": 57
    },
    {
      "midi": 73,
      "hit": false,
      "t": 44625,
      "d": 375,
      "v": 67
    },
    {
      "midi": 58,
      "hit": false,
      "t": 44625,
      "d": 375,
      "v": 30
    },
    {
      "midi": 66,
      "hit": false,
      "t": 45000,
      "d": 562.5,
      "v": 53
    },
    {
      "midi": 74,
      "hit": false,
      "t": 45000,
      "d": 562.5,
      "v": 58
    },
    {
      "midi": 50,
      "hit": false,
      "t": 45000,
      "d": 562.5,
      "v": 62
    },
    {
      "midi": 57,
      "hit": false,
      "t": 45000,
      "d": 562.5,
      "v": 57
    },
    {
      "midi": 67,
      "hit": false,
      "t": 45562.5,
      "d": 187.5,
      "v": 57
    },
    {
      "midi": 76,
      "hit": false,
      "t": 45562.5,
      "d": 187.5,
      "v": 62
    },
    {
      "midi": 58,
      "hit": false,
      "t": 45562.5,
      "d": 187.5,
      "v": 53
    },
    {
      "midi": 69,
      "hit": false,
      "t": 45750,
      "d": 375,
      "v": 60
    },
    {
      "midi": 78,
      "hit": false,
      "t": 45750,
      "d": 375,
      "v": 56
    },
    {
      "midi": 60,
      "hit": false,
      "t": 45750,
      "d": 375,
      "v": 47
    },
    {
      "midi": 67,
      "hit": false,
      "t": 46125,
      "d": 1125,
      "v": 66
    },
    {
      "midi": 70,
      "hit": false,
      "t": 46125,
      "d": 1125,
      "v": 35
    },
    {
      "midi": 79,
      "hit": false,
      "t": 46125,
      "d": 1125,
      "v": 52
    },
    {
      "midi": 43,
      "hit": false,
      "t": 46125,
      "d": 1125,
      "v": 58
    },
    {
      "midi": 50,
      "hit": false,
      "t": 46125,
      "d": 1125,
      "v": 52
    },
    {
      "midi": 62,
      "hit": false,
      "t": 47250,
      "d": 750,
      "v": 56
    },
    {
      "midi": 67,
      "hit": false,
      "t": 47250,
      "d": 750,
      "v": 62
    },
    {
      "midi": 52,
      "hit": false,
      "t": 47250,
      "d": 1125,
      "v": 57
    },
    {
      "midi": 61,
      "hit": false,
      "t": 48000,
      "d": 375,
      "v": 58
    },
    {
      "midi": 60,
      "hit": false,
      "t": 48375,
      "d": 750,
      "v": 64
    },
    {
      "midi": 51,
      "hit": false,
      "t": 48375,
      "d": 1125,
      "v": 57
    },
    {
      "midi": 58,
      "hit": false,
      "t": 49125,
      "d": 375,
      "v": 57
    },
    {
      "midi": 65,
      "hit": false,
      "t": 49500,
      "d": 750,
      "v": 57
    },
    {
      "midi": 74,
      "hit": false,
      "t": 49500,
      "d": 750,
      "v": 57
    },
    {
      "midi": 53,
      "hit": false,
      "t": 49500,
      "d": 1125,
      "v": 50
    },
    {
      "midi": 57,
      "hit": false,
      "t": 49500,
      "d": 1125,
      "v": 33
    },
    {
      "midi": 63,
      "hit": false,
      "t": 50250,
      "d": 375,
      "v": 57
    },
    {
      "midi": 72,
      "hit": false,
      "t": 50250,
      "d": 375,
      "v": 57
    },
    {
      "midi": 62,
      "hit": false,
      "t": 50625,
      "d": 750,
      "v": 57
    },
    {
      "midi": 70,
      "hit": false,
      "t": 50625,
      "d": 750,
      "v": 57
    },
    {
      "midi": 46,
      "hit": false,
      "t": 50625,
      "d": 562.5,
      "v": 50
    },
    {
      "midi": 56,
      "hit": false,
      "t": 50625,
      "d": 562.5,
      "v": 57
    },
    {
      "midi": 55,
      "hit": false,
      "t": 51187.5,
      "d": 187.5,
      "v": 51
    },
    {
      "midi": 56,
      "hit": false,
      "t": 51375,
      "d": 375,
      "v": 63
    },
    {
      "midi": 62,
      "hit": false,
      "t": 51750,
      "d": 750,
      "v": 57
    },
    {
      "midi": 67,
      "hit": false,
      "t": 51750,
      "d": 750,
      "v": 62
    },
    {
      "midi": 40,
      "hit": false,
      "t": 51750,
      "d": 1125,
      "v": 35
    },
    {
      "midi": 52,
      "hit": false,
      "t": 51750,
      "d": 1125,
      "v": 32
    },
    {
      "midi": 61,
      "hit": false,
      "t": 52500,
      "d": 375,
      "v": 57
    },
    {
      "midi": 60,
      "hit": false,
      "t": 52875,
      "d": 750,
      "v": 57
    },
    {
      "midi": 39,
      "hit": false,
      "t": 52875,
      "d": 750,
      "v": 45
    },
    {
      "midi": 51,
      "hit": false,
      "t": 52875,
      "d": 750,
      "v": 32
    },
    {
      "midi": 58,
      "hit": false,
      "t": 53625,
      "d": 375,
      "v": 57
    },
    {
      "midi": 66,
      "hit": false,
      "t": 54000,
      "d": 562.5,
      "v": 56
    },
    {
      "midi": 50,
      "hit": false,
      "t": 54000,
      "d": 562.5,
      "v": 63
    },
    {
      "midi": 57,
      "hit": false,
      "t": 54000,
      "d": 562.5,
      "v": 53
    },
    {
      "midi": 67,
      "hit": false,
      "t": 54562.5,
      "d": 187.5,
      "v": 56
    },
    {
      "midi": 58,
      "hit": false,
      "t": 54562.5,
      "d": 187.5,
      "v": 57
    },
    {
      "midi": 69,
      "hit": false,
      "t": 54750,
      "d": 375,
      "v": 64
    },
    {
      "midi": 60,
      "hit": false,
      "t": 54750,
      "d": 375,
      "v": 40
    },
    {
      "midi": 62,
      "hit": false,
      "t": 55125,
      "d": 750,
      "v": 61
    },
    {
      "midi": 67,
      "hit": false,
      "t": 55125,
      "d": 750,
      "v": 63
    },
    {
      "midi": 43,
      "hit": false,
      "t": 55125,
      "d": 750,
      "v": 46
    },
    {
      "midi": 50,
      "hit": false,
      "t": 55125,
      "d": 750,
      "v": 50
    },
    {
      "midi": 63,
      "hit": false,
      "t": 56250,
      "d": 1125,
      "v": 57
    },
    {
      "midi": 67,
      "hit": false,
      "t": 56250,
      "d": 1125,
      "v": 62
    },
    {
      "midi": 75,
      "hit": false,
      "t": 56250,
      "d": 1125,
      "v": 61
    },
    {
      "midi": 41,
      "hit": false,
      "t": 56250,
      "d": 1125,
      "v": 61
    },
    {
      "midi": 48,
      "hit": false,
      "t": 56250,
      "d": 1125,
      "v": 53
    },
    {
      "midi": 57,
      "hit": false,
      "t": 56250,
      "d": 1125,
      "v": 53
    },
    {
      "midi": 58,
      "hit": false,
      "t": 57375,
      "d": 750,
      "v": 50
    },
    {
      "midi": 62,
      "hit": false,
      "t": 57375,
      "d": 750,
      "v": 55
    },
    {
      "midi": 70,
      "hit": false,
      "t": 57375,
      "d": 750,
      "v": 57
    },
    {
      "midi": 43,
      "hit": false,
      "t": 57375,
      "d": 750,
      "v": 61
    },
    {
      "midi": 52,
      "hit": false,
      "t": 57375,
      "d": 750,
      "v": 36
    },
    {
      "midi": 69,
      "hit": false,
      "t": 58500,
      "d": 562.5,
      "v": 66
    },
    {
      "midi": 45,
      "hit": false,
      "t": 58500,
      "d": 187.5,
      "v": 55
    },
    {
      "midi": 52,
      "hit": false,
      "t": 58687.5,
      "d": 187.5,
      "v": 45
    },
    {
      "midi": 55,
      "hit": false,
      "t": 58875,
      "d": 187.5,
      "v": 42
    },
    {
      "midi": 66,
      "hit": false,
      "t": 59062.5,
      "d": 187.5,
      "v": 46
    },
    {
      "midi": 61,
      "hit": false,
      "t": 59062.5,
      "d": 187.5,
      "v": 50
    },
    {
      "midi": 67,
      "hit": false,
      "t": 59250,
      "d": 375,
      "v": 58
    },
    {
      "midi": 64,
      "hit": false,
      "t": 59250,
      "d": 375,
      "v": 48
    },
    {
      "midi": 66,
      "hit": false,
      "t": 59625,
      "d": 562.5,
      "v": 71
    },
    {
      "midi": 38,
      "hit": false,
      "t": 59812.5,
      "d": 187.5,
      "v": 45
    },
    {
      "midi": 45,
      "hit": false,
      "t": 60000,
      "d": 187.5,
      "v": 36
    },
    {
      "midi": 64,
      "hit": false,
      "t": 60187.5,
      "d": 187.5,
      "v": 62
    },
    {
      "midi": 50,
      "hit": false,
      "t": 60187.5,
      "d": 187.5,
      "v": 36
    },
    {
      "midi": 62,
      "hit": false,
      "t": 60375,
      "d": 375,
      "v": 58
    },
    {
      "midi": 54,
      "hit": false,
      "t": 60375,
      "d": 375,
      "v": 33
    },
    {
      "midi": 63,
      "hit": false,
      "t": 60750,
      "d": 1125,
      "v": 53
    },
    {
      "midi": 67,
      "hit": false,
      "t": 60750,
      "d": 1125,
      "v": 53
    },
    {
      "midi": 75,
      "hit": false,
      "t": 60750,
      "d": 1125,
      "v": 53
    },
    {
      "midi": 41,
      "hit": false,
      "t": 60750,
      "d": 1125,
      "v": 53
    },
    {
      "midi": 48,
      "hit": false,
      "t": 60750,
      "d": 1125,
      "v": 53
    },
    {
      "midi": 57,
      "hit": false,
      "t": 60750,
      "d": 1125,
      "v": 53
    },
    {
      "midi": 58,
      "hit": false,
      "t": 61875,
      "d": 750,
      "v": 51
    },
    {
      "midi": 62,
      "hit": false,
      "t": 61875,
      "d": 750,
      "v": 51
    },
    {
      "midi": 70,
      "hit": false,
      "t": 61875,
      "d": 750,
      "v": 51
    },
    {
      "midi": 43,
      "hit": false,
      "t": 61875,
      "d": 750,
      "v": 51
    },
    {
      "midi": 52,
      "hit": false,
      "t": 61875,
      "d": 750,
      "v": 51
    },
    {
      "midi": 69,
      "hit": false,
      "t": 63000,
      "d": 562.5,
      "v": 64
    },
    {
      "midi": 45,
      "hit": false,
      "t": 63000,
      "d": 187.5,
      "v": 55
    },
    {
      "midi": 52,
      "hit": false,
      "t": 63187.5,
      "d": 187.5,
      "v": 42
    },
    {
      "midi": 55,
      "hit": false,
      "t": 63375,
      "d": 187.5,
      "v": 46
    },
    {
      "midi": 66,
      "hit": false,
      "t": 63562.5,
      "d": 187.5,
      "v": 56
    },
    {
      "midi": 61,
      "hit": false,
      "t": 63562.5,
      "d": 187.5,
      "v": 63
    },
    {
      "midi": 67,
      "hit": false,
      "t": 63750,
      "d": 375,
      "v": 60
    },
    {
      "midi": 64,
      "hit": false,
      "t": 63750,
      "d": 375,
      "v": 63
    },
    {
      "midi": 66,
      "hit": false,
      "t": 64125,
      "d": 1125,
      "v": 67
    },
    {
      "midi": 38,
      "hit": false,
      "t": 64312.5,
      "d": 187.5,
      "v": 48
    },
    {
      "midi": 50,
      "hit": false,
      "t": 64500,
      "d": 187.5,
      "v": 46
    },
    {
      "midi": 63,
      "hit": false,
      "t": 65250,
      "d": 1125,
      "v": 58
    },
    {
      "midi": 67,
      "hit": false,
      "t": 65250,
      "d": 1125,
      "v": 64
    },
    {
      "midi": 75,
      "hit": false,
      "t": 65250,
      "d": 1125,
      "v": 62
    },
    {
      "midi": 41,
      "hit": false,
      "t": 65250,
      "d": 1125,
      "v": 61
    },
    {
      "midi": 48,
      "hit": false,
      "t": 65250,
      "d": 1125,
      "v": 61
    },
    {
      "midi": 57,
      "hit": false,
      "t": 65250,
      "d": 1125,
      "v": 46
    },
    {
      "midi": 58,
      "hit": false,
      "t": 66375,
      "d": 750,
      "v": 51
    },
    {
      "midi": 62,
      "hit": false,
      "t": 66375,
      "d": 750,
      "v": 51
    },
    {
      "midi": 70,
      "hit": false,
      "t": 66375,
      "d": 750,
      "v": 51
    },
    {
      "midi": 43,
      "hit": false,
      "t": 66375,
      "d": 750,
      "v": 51
    },
    {
      "midi": 52,
      "hit": false,
      "t": 66375,
      "d": 750,
      "v": 51
    },
    {
      "midi": 67,
      "hit": false,
      "t": 67500,
      "d": 562.5,
      "v": 64
    },
    {
      "midi": 45,
      "hit": false,
      "t": 67500,
      "d": 187.5,
      "v": 52
    },
    {
      "midi": 52,
      "hit": false,
      "t": 67687.5,
      "d": 187.5,
      "v": 28
    },
    {
      "midi": 55,
      "hit": false,
      "t": 67875,
      "d": 187.5,
      "v": 38
    },
    {
      "midi": 66,
      "hit": false,
      "t": 68062.5,
      "d": 187.5,
      "v": 56
    },
    {
      "midi": 61,
      "hit": false,
      "t": 68062.5,
      "d": 187.5,
      "v": 38
    },
    {
      "midi": 67,
      "hit": false,
      "t": 68250,
      "d": 375,
      "v": 60
    },
    {
      "midi": 64,
      "hit": false,
      "t": 68250,
      "d": 375,
      "v": 38
    },
    {
      "midi": 66,
      "hit": false,
      "t": 68625,
      "d": 562.5,
      "v": 64
    },
    {
      "midi": 38,
      "hit": false,
      "t": 68812.5,
      "d": 187.5,
      "v": 52
    },
    {
      "midi": 45,
      "hit": false,
      "t": 69000,
      "d": 187.5,
      "v": 52
    },
    {
      "midi": 64,
      "hit": false,
      "t": 69187.5,
      "d": 187.5,
      "v": 56
    },
    {
      "midi": 50,
      "hit": false,
      "t": 69187.5,
      "d": 187.5,
      "v": 52
    },
    {
      "midi": 62,
      "hit": false,
      "t": 69375,
      "d": 375,
      "v": 60
    },
    {
      "midi": 54,
      "hit": false,
      "t": 69375,
      "d": 375,
      "v": 38
    },
    {
      "midi": 63,
      "hit": false,
      "t": 69750,
      "d": 1125,
      "v": 46
    },
    {
      "midi": 67,
      "hit": false,
      "t": 69750,
      "d": 1125,
      "v": 46
    },
    {
      "midi": 75,
      "hit": false,
      "t": 69750,
      "d": 1125,
      "v": 46
    },
    {
      "midi": 41,
      "hit": false,
      "t": 69750,
      "d": 1125,
      "v": 46
    },
    {
      "midi": 48,
      "hit": false,
      "t": 69750,
      "d": 1125,
      "v": 46
    },
    {
      "midi": 57,
      "hit": false,
      "t": 69750,
      "d": 1125,
      "v": 46
    },
    {
      "midi": 58,
      "hit": false,
      "t": 70875,
      "d": 750,
      "v": 51
    },
    {
      "midi": 62,
      "hit": false,
      "t": 70875,
      "d": 750,
      "v": 51
    },
    {
      "midi": 70,
      "hit": false,
      "t": 70875,
      "d": 750,
      "v": 51
    },
    {
      "midi": 43,
      "hit": false,
      "t": 70875,
      "d": 750,
      "v": 51
    },
    {
      "midi": 52,
      "hit": false,
      "t": 70875,
      "d": 750,
      "v": 51
    },
    {
      "midi": 69,
      "hit": false,
      "t": 72000,
      "d": 562.5,
      "v": 62
    },
    {
      "midi": 72,
      "hit": false,
      "t": 72000,
      "d": 562.5,
      "v": 66
    },
    {
      "midi": 53,
      "hit": false,
      "t": 72000,
      "d": 750,
      "v": 62
    },
    {
      "midi": 62,
      "hit": false,
      "t": 72000,
      "d": 750,
      "v": 66
    },
    {
      "midi": 69,
      "hit": false,
      "t": 72562.5,
      "d": 187.5,
      "v": 56
    },
    {
      "midi": 67,
      "hit": false,
      "t": 72750,
      "d": 375,
      "v": 60
    },
    {
      "midi": 70,
      "hit": false,
      "t": 72750,
      "d": 375,
      "v": 60
    },
    {
      "midi": 51,
      "hit": false,
      "t": 72750,
      "d": 375,
      "v": 46
    },
    {
      "midi": 60,
      "hit": false,
      "t": 72750,
      "d": 375,
      "v": 30
    },
    {
      "midi": 66,
      "hit": false,
      "t": 73125,
      "d": 562.5,
      "v": 66
    },
    {
      "midi": 72,
      "hit": false,
      "t": 73125,
      "d": 562.5,
      "v": 62
    },
    {
      "midi": 50,
      "hit": false,
      "t": 73125,
      "d": 750,
      "v": 62
    },
    {
      "midi": 58,
      "hit": false,
      "t": 73125,
      "d": 750,
      "v": 46
    },
    {
      "midi": 64,
      "hit": false,
      "t": 73687.5,
      "d": 187.5,
      "v": 56
    },
    {
      "midi": 66,
      "hit": false,
      "t": 73875,
      "d": 375,
      "v": 60
    },
    {
      "midi": 74,
      "hit": false,
      "t": 73875,
      "d": 375,
      "v": 60
    },
    {
      "midi": 57,
      "hit": false,
      "t": 73875,
      "d": 375,
      "v": 55
    },
    {
      "midi": 60,
      "hit": false,
      "t": 73875,
      "d": 375,
      "v": 50
    },
    {
      "midi": 67,
      "hit": false,
      "t": 74250,
      "d": 750,
      "v": 62
    },
    {
      "midi": 43,
      "hit": false,
      "t": 74250,
      "d": 187.5,
      "v": 27
    },
    {
      "midi": 50,
      "hit": false,
      "t": 74437.5,
      "d": 187.5,
      "v": 55
    },
    {
      "midi": 55,
      "hit": false,
      "t": 74625,
      "d": 187.5,
      "v": 45
    },
    {
      "midi": 58,
      "hit": false,
      "t": 74812.5,
      "d": 187.5,
      "v": 45
    },
    {
      "midi": 70,
      "hit": false,
      "t": 75000,
      "d": 375,
      "v": 56
    },
    {
      "midi": 62,
      "hit": false,
      "t": 75000,
      "d": 375,
      "v": 57
    },
    {
      "midi": 74,
      "hit": false,
      "t": 75375,
      "d": 750,
      "v": 64
    },
    {
      "midi": 53,
      "hit": false,
      "t": 75375,
      "d": 187.5,
      "v": 58
    },
    {
      "midi": 55,
      "hit": false,
      "t": 75562.5,
      "d": 187.5,
      "v": 48
    },
    {
      "midi": 58,
      "hit": false,
      "t": 75750,
      "d": 187.5,
      "v": 55
    },
    {
      "midi": 62,
      "hit": false,
      "t": 75937.5,
      "d": 187.5,
      "v": 52
    },
    {
      "midi": 67,
      "hit": false,
      "t": 76125,
      "d": 375,
      "v": 56
    },
    {
      "midi": 52,
      "hit": false,
      "t": 76500,
      "d": 187.5,
      "v": 66
    },
    {
      "midi": 58,
      "hit": false,
      "t": 76687.5,
      "d": 187.5,
      "v": 57
    },
    {
      "midi": 62,
      "hit": false,
      "t": 76875,
      "d": 187.5,
      "v": 63
    },
    {
      "midi": 67,
      "hit": false,
      "t": 77062.5,
      "d": 187.5,
      "v": 63
    },
    {
      "midi": 70,
      "hit": false,
      "t": 77250,
      "d": 375,
      "v": 64
    },
    {
      "midi": 53,
      "hit": false,
      "t": 77625,
      "d": 187.5,
      "v": 61
    },
    {
      "midi": 57,
      "hit": false,
      "t": 77812.5,
      "d": 187.5,
      "v": 56
    },
    {
      "midi": 62,
      "hit": false,
      "t": 78000,
      "d": 187.5,
      "v": 58
    },
    {
      "midi": 65,
      "hit": false,
      "t": 78187.5,
      "d": 187.5,
      "v": 58
    },
    {
      "midi": 69,
      "hit": false,
      "t": 78375,
      "d": 375,
      "v": 66
    },
    {
      "midi": 46,
      "hit": false,
      "t": 78750,
      "d": 187.5,
      "v": 58
    },
    {
      "midi": 53,
      "hit": false,
      "t": 78937.5,
      "d": 187.5,
      "v": 63
    },
    {
      "midi": 58,
      "hit": false,
      "t": 79125,
      "d": 187.5,
      "v": 62
    },
    {
      "midi": 65,
      "hit": false,
      "t": 79125,
      "d": 187.5,
      "v": 64
    },
    {
      "midi": 53,
      "hit": false,
      "t": 79125,
      "d": 187.5,
      "v": 55
    },
    {
      "midi": 60,
      "hit": false,
      "t": 79500,
      "d": 187.5,
      "v": 62
    },
    {
      "midi": 64,
      "hit": false,
      "t": 79500,
      "d": 187.5,
      "v": 63
    },
    {
      "midi": 55,
      "hit": false,
      "t": 79500,
      "d": 187.5,
      "v": 55
    },
    {
      "midi": 46,
      "hit": false,
      "t": 79875,
      "d": 187.5,
      "v": 58
    },
    {
      "midi": 53,
      "hit": false,
      "t": 80062.5,
      "d": 187.5,
      "v": 53
    },
    {
      "midi": 58,
      "hit": false,
      "t": 80250,
      "d": 187.5,
      "v": 56
    },
    {
      "midi": 65,
      "hit": false,
      "t": 80250,
      "d": 187.5,
      "v": 55
    },
    {
      "midi": 53,
      "hit": false,
      "t": 80250,
      "d": 187.5,
      "v": 60
    },
    {
      "midi": 60,
      "hit": false,
      "t": 80625,
      "d": 187.5,
      "v": 66
    },
    {
      "midi": 64,
      "hit": false,
      "t": 80625,
      "d": 187.5,
      "v": 62
    },
    {
      "midi": 55,
      "hit": false,
      "t": 80625,
      "d": 187.5,
      "v": 56
    },
    {
      "midi": 38,
      "hit": false,
      "t": 81000,
      "d": 187.5,
      "v": 58
    },
    {
      "midi": 45,
      "hit": false,
      "t": 81187.5,
      "d": 187.5,
      "v": 58
    },
    {
      "midi": 50,
      "hit": false,
      "t": 81375,
      "d": 187.5,
      "v": 55
    },
    {
      "midi": 54,
      "hit": false,
      "t": 81562.5,
      "d": 187.5,
      "v": 55
    },
    {
      "midi": 57,
      "hit": false,
      "t": 81750,
      "d": 375,
      "v": 61
    },
    {
      "midi": 62,
      "hit": false,
      "t": 81937.5,
      "d": 187.5,
      "v": 67
    },
    {
      "midi": 66,
      "hit": false,
      "t": 82125,
      "d": 1125,
      "v": 66
    },
    {
      "midi": 58,
      "hit": false,
      "t": 82125,
      "d": 750,
      "v": 56
    },
    {
      "midi": 60,
      "hit": false,
      "t": 82875,
      "d": 375,
      "v": 61
    },
    {
      "midi": 58,
      "hit": false,
      "t": 83250,
      "d": 750,
      "v": 56
    },
    {
      "midi": 67,
      "hit": false,
      "t": 83250,
      "d": 750,
      "v": 56
    },
    {
      "midi": 43,
      "hit": false,
      "t": 83250,
      "d": 187.5,
      "v": 61
    },
    {
      "midi": 50,
      "hit": false,
      "t": 83437.5,
      "d": 187.5,
      "v": 61
    },
    {
      "midi": 55,
      "hit": false,
      "t": 83625,
      "d": 187.5,
      "v": 61
    },
    {
      "midi": 58,
      "hit": false,
      "t": 83812.5,
      "d": 187.5,
      "v": 61
    },
    {
      "midi": 62,
      "hit": false,
      "t": 84000,
      "d": 375,
      "v": 61
    },
    {
      "midi": 67,
      "hit": false,
      "t": 84375,
      "d": 750,
      "v": 56
    },
    {
      "midi": 41,
      "hit": false,
      "t": 84375,
      "d": 187.5,
      "v": 61
    },
    {
      "midi": 53,
      "hit": false,
      "t": 84562.5,
      "d": 187.5,
      "v": 61
    },
    {
      "midi": 55,
      "hit": false,
      "t": 84750,
      "d": 187.5,
      "v": 61
    },
    {
      "midi": 58,
      "hit": false,
      "t": 84937.5,
      "d": 187.5,
      "v": 61
    },
    {
      "midi": 70,
      "hit": false,
      "t": 85125,
      "d": 375,
      "v": 61
    },
    {
      "midi": 62,
      "hit": false,
      "t": 85125,
      "d": 375,
      "v": 61
    },
    {
      "midi": 72,
      "hit": false,
      "t": 85500,
      "d": 750,
      "v": 56
    },
    {
      "midi": 39,
      "hit": false,
      "t": 85500,
      "d": 187.5,
      "v": 61
    },
    {
      "midi": 51,
      "hit": false,
      "t": 85687.5,
      "d": 187.5,
      "v": 61
    },
    {
      "midi": 53,
      "hit": false,
      "t": 85875,
      "d": 187.5,
      "v": 61
    },
    {
      "midi": 56,
      "hit": false,
      "t": 86062.5,
      "d": 187.5,
      "v": 61
    },
    {
      "midi": 60,
      "hit": false,
      "t": 86250,
      "d": 375,
      "v": 61
    },
    {
      "midi": 68,
      "hit": false,
      "t": 86250,
      "d": 375,
      "v": 61
    },
    {
      "midi": 55,
      "hit": false,
      "t": 86625,
      "d": 750,
      "v": 56
    },
    {
      "midi": 67,
      "hit": false,
      "t": 86625,
      "d": 750,
      "v": 56
    },
    {
      "midi": 38,
      "hit": false,
      "t": 86625,
      "d": 187.5,
      "v": 61
    },
    {
      "midi": 50,
      "hit": false,
      "t": 86812.5,
      "d": 187.5,
      "v": 61
    },
    {
      "midi": 53,
      "hit": false,
      "t": 87000,
      "d": 187.5,
      "v": 61
    },
    {
      "midi": 55,
      "hit": false,
      "t": 87187.5,
      "d": 187.5,
      "v": 61
    },
    {
      "midi": 65,
      "hit": false,
      "t": 87375,
      "d": 375,
      "v": 61
    },
    {
      "midi": 64,
      "hit": false,
      "t": 87750,
      "d": 750,
      "v": 56
    },
    {
      "midi": 48,
      "hit": false,
      "t": 87750,
      "d": 187.5,
      "v": 61
    },
    {
      "midi": 55,
      "hit": false,
      "t": 87937.5,
      "d": 187.5,
      "v": 61
    },
    {
      "midi": 58,
      "hit": false,
      "t": 88125,
      "d": 375,
      "v": 61
    },
    {
      "midi": 63,
      "hit": false,
      "t": 88500,
      "d": 375,
      "v": 61
    },
    {
      "midi": 62,
      "hit": false,
      "t": 88875,
      "d": 750,
      "v": 56
    },
    {
      "midi": 50,
      "hit": false,
      "t": 88875,
      "d": 187.5,
      "v": 61
    },
    {
      "midi": 57,
      "hit": false,
      "t": 89062.5,
      "d": 187.5,
      "v": 61
    },
    {
      "midi": 60,
      "hit": false,
      "t": 89250,
      "d": 375,
      "v": 61
    },
    {
      "midi": 66,
      "hit": false,
      "t": 89625,
      "d": 375,
      "v": 61
    },
    {
      "midi": 67,
      "hit": false,
      "t": 90000,
      "d": 1125,
      "v": 56
    },
    {
      "midi": 43,
      "hit": false,
      "t": 90000,
      "d": 187.5,
      "v": 61
    },
    {
      "midi": 50,
      "hit": false,
      "t": 90187.5,
      "d": 187.5,
      "v": 61
    },
    {
      "midi": 58,
      "hit": false,
      "t": 90375,
      "d": 187.5,
      "v": 61
    },
    {
      "midi": 55,
      "hit": false,
      "t": 90562.5,
      "d": 187.5,
      "v": 61
    },
    {
      "midi": 58,
      "hit": false,
      "t": 90750,
      "d": 187.5,
      "v": 61
    },
    {
      "midi": 60,
      "hit": false,
      "t": 90937.5,
      "d": 187.5,
      "v": 61
    },
    {
      "midi": 34,
      "hit": false,
      "t": 91125,
      "d": 187.5,
      "v": 61
    },
    {
      "midi": 46,
      "hit": false,
      "t": 91312.5,
      "d": 187.5,
      "v": 61
    },
    {
      "midi": 50,
      "hit": false,
      "t": 91500,
      "d": 187.5,
      "v": 61
    },
    {
      "midi": 55,
      "hit": false,
      "t": 91687.5,
      "d": 187.5,
      "v": 61
    },
    {
      "midi": 58,
      "hit": false,
      "t": 91875,
      "d": 187.5,
      "v": 61
    },
    {
      "midi": 62,
      "hit": false,
      "t": 92062.5,
      "d": 187.5,
      "v": 61
    },
    {
      "midi": 55,
      "hit": false,
      "t": 92250,
      "d": 2250,
      "v": 61
    },
    {
      "midi": 58,
      "hit": false,
      "t": 92250,
      "d": 2250,
      "v": 61
    },
    {
      "midi": 63,
      "hit": false,
      "t": 92250,
      "d": 2250,
      "v": 61
    },
    {
      "midi": 67,
      "hit": false,
      "t": 92250,
      "d": 2250,
      "v": 61
    },
    {
      "midi": 39,
      "hit": false,
      "t": 92250,
      "d": 2250,
      "v": 61
    },
    {
      "midi": 46,
      "hit": false,
      "t": 92250,
      "d": 2250,
      "v": 61
    },
    {
      "midi": 51,
      "hit": false,
      "t": 92250,
      "d": 2250,
      "v": 61
    },
    {
      "midi": 55,
      "hit": false,
      "t": 94500,
      "d": 2250,
      "v": 61
    },
    {
      "midi": 58,
      "hit": false,
      "t": 94500,
      "d": 2250,
      "v": 61
    },
    {
      "midi": 63,
      "hit": false,
      "t": 94500,
      "d": 2250,
      "v": 61
    },
    {
      "midi": 67,
      "hit": false,
      "t": 94500,
      "d": 2250,
      "v": 61
    },
    {
      "midi": 39,
      "hit": false,
      "t": 94500,
      "d": 1500,
      "v": 61
    },
    {
      "midi": 46,
      "hit": false,
      "t": 94500,
      "d": 1500,
      "v": 61
    },
    {
      "midi": 51,
      "hit": false,
      "t": 94500,
      "d": 1500,
      "v": 61
    },
    {
      "midi": 46,
      "hit": false,
      "t": 96375,
      "d": 375,
      "v": 61
    },
    {
      "midi": 63,
      "hit": false,
      "t": 96750,
      "d": 750,
      "v": 36
    },
    {
      "midi": 67,
      "hit": false,
      "t": 96750,
      "d": 750,
      "v": 22
    },
    {
      "midi": 39,
      "hit": false,
      "t": 96750,
      "d": 2250,
      "v": 25
    },
    {
      "midi": 51,
      "hit": false,
      "t": 96750,
      "d": 2250,
      "v": 16
    },
    {
      "midi": 56,
      "hit": false,
      "t": 97500,
      "d": 375,
      "v": 41
    },
    {
      "midi": 58,
      "hit": false,
      "t": 97875,
      "d": 750,
      "v": 45
    },
    {
      "midi": 60,
      "hit": false,
      "t": 98625,
      "d": 375,
      "v": 41
    },
    {
      "midi": 61,
      "hit": false,
      "t": 99000,
      "d": 750,
      "v": 42
    },
    {
      "midi": 67,
      "hit": false,
      "t": 99000,
      "d": 750,
      "v": 56
    },
    {
      "midi": 51,
      "hit": false,
      "t": 99000,
      "d": 2250,
      "v": 35
    },
    {
      "midi": 55,
      "hit": false,
      "t": 99000,
      "d": 2250,
      "v": 41
    },
    {
      "midi": 60,
      "hit": false,
      "t": 99750,
      "d": 375,
      "v": 51
    },
    {
      "midi": 61,
      "hit": false,
      "t": 100125,
      "d": 750,
      "v": 51
    },
    {
      "midi": 58,
      "hit": false,
      "t": 100875,
      "d": 375,
      "v": 31
    },
    {
      "midi": 60,
      "hit": false,
      "t": 101250,
      "d": 1125,
      "v": 56
    },
    {
      "midi": 39,
      "hit": false,
      "t": 101250,
      "d": 750,
      "v": 43
    },
    {
      "midi": 51,
      "hit": false,
      "t": 102000,
      "d": 375,
      "v": 42
    },
    {
      "midi": 63,
      "hit": false,
      "t": 102375,
      "d": 1125,
      "v": 56
    },
    {
      "midi": 65,
      "hit": false,
      "t": 102375,
      "d": 1125,
      "v": 56
    },
    {
      "midi": 59,
      "hit": false,
      "t": 102375,
      "d": 750,
      "v": 32
    },
    {
      "midi": 56,
      "hit": false,
      "t": 103125,
      "d": 375,
      "v": 51
    },
    {
      "midi": 63,
      "hit": false,
      "t": 103500,
      "d": 1125,
      "v": 56
    },
    {
      "midi": 67,
      "hit": false,
      "t": 103500,
      "d": 1125,
      "v": 56
    },
    {
      "midi": 51,
      "hit": false,
      "t": 103500,
      "d": 750,
      "v": 28
    },
    {
      "midi": 58,
      "hit": false,
      "t": 103500,
      "d": 750,
      "v": 23
    },
    {
      "midi": 55,
      "hit": false,
      "t": 104250,
      "d": 375,
      "v": 46
    },
    {
      "midi": 67,
      "hit": false,
      "t": 104625,
      "d": 750,
      "v": 56
    },
    {
      "midi": 51,
      "hit": false,
      "t": 104625,
      "d": 750,
      "v": 43
    },
    {
      "midi": 68,
      "hit": false,
      "t": 105375,
      "d": 375,
      "v": 58
    },
    {
      "midi": 39,
      "hit": false,
      "t": 105375,
      "d": 375,
      "v": 46
    },
    {
      "midi": 58,
      "hit": false,
      "t": 105750,
      "d": 2250,
      "v": 61
    },
    {
      "midi": 62,
      "hit": false,
      "t": 105750,
      "d": 2250,
      "v": 61
    },
    {
      "midi": 65,
      "hit": false,
      "t": 105750,
      "d": 2250,
      "v": 61
    },
    {
      "midi": 70,
      "hit": false,
      "t": 105750,
      "d": 2250,
      "v": 61
    },
    {
      "midi": 46,
      "hit": false,
      "t": 105750,
      "d": 1125,
      "v": 34
    },
    {
      "midi": 53,
      "hit": false,
      "t": 106875,
      "d": 750,
      "v": 57
    },
    {
      "midi": 55,
      "hit": false,
      "t": 107625,
      "d": 375,
      "v": 45
    },
    {
      "midi": 56,
      "hit": false,
      "t": 108000,
      "d": 1125,
      "v": 56
    },
    {
      "midi": 62,
      "hit": false,
      "t": 108000,
      "d": 1125,
      "v": 61
    },
    {
      "midi": 65,
      "hit": false,
      "t": 108000,
      "d": 1125,
      "v": 61
    },
    {
      "midi": 34,
      "hit": false,
      "t": 108000,
      "d": 2250,
      "v": 61
    },
    {
      "midi": 46,
      "hit": false,
      "t": 108000,
      "d": 2250,
      "v": 61
    },
    {
      "midi": 58,
      "hit": false,
      "t": 109125,
      "d": 750,
      "v": 56
    },
    {
      "midi": 60,
      "hit": false,
      "t": 109875,
      "d": 375,
      "v": 58
    },
    {
      "midi": 62,
      "hit": false,
      "t": 110250,
      "d": 1125,
      "v": 57
    },
    {
      "midi": 67,
      "hit": false,
      "t": 110250,
      "d": 1125,
      "v": 57
    },
    {
      "midi": 46,
      "hit": false,
      "t": 110250,
      "d": 1125,
      "v": 57
    },
    {
      "midi": 58,
      "hit": false,
      "t": 110250,
      "d": 1125,
      "v": 57
    },
    {
      "midi": 58,
      "hit": false,
      "t": 111375,
      "d": 750,
      "v": 57
    },
    {
      "midi": 62,
      "hit": false,
      "t": 111375,
      "d": 750,
      "v": 56
    },
    {
      "midi": 46,
      "hit": false,
      "t": 111375,
      "d": 750,
      "v": 56
    },
    {
      "midi": 55,
      "hit": false,
      "t": 111375,
      "d": 750,
      "v": 56
    },
    {
      "midi": 67,
      "hit": false,
      "t": 112125,
      "d": 375,
      "v": 58
    },
    {
      "midi": 56,
      "hit": false,
      "t": 112500,
      "d": 1125,
      "v": 42
    },
    {
      "midi": 62,
      "hit": false,
      "t": 112500,
      "d": 1125,
      "v": 42
    },
    {
      "midi": 65,
      "hit": false,
      "t": 112500,
      "d": 1125,
      "v": 42
    },
    {
      "midi": 70,
      "hit": false,
      "t": 112500,
      "d": 1125,
      "v": 42
    },
    {
      "midi": 34,
      "hit": false,
      "t": 112500,
      "d": 750,
      "v": 56
    },
    {
      "midi": 46,
      "hit": false,
      "t": 113250,
      "d": 375,
      "v": 58
    },
    {
      "midi": 70,
      "hit": false,
      "t": 113625,
      "d": 1125,
      "v": 42
    },
    {
      "midi": 53,
      "hit": false,
      "t": 113625,
      "d": 750,
      "v": 52
    },
    {
      "midi": 55,
      "hit": false,
      "t": 114375,
      "d": 375,
      "v": 42
    },
    {
      "midi": 65,
      "hit": false,
      "t": 114750,
      "d": 562.5,
      "v": 38
    },
    {
      "midi": 70,
      "hit": false,
      "t": 114750,
      "d": 562.5,
      "v": 37
    },
    {
      "midi": 77,
      "hit": false,
      "t": 114750,
      "d": 562.5,
      "v": 55
    },
    {
      "midi": 46,
      "hit": false,
      "t": 114750,
      "d": 1125,
      "v": 28
    },
    {
      "midi": 56,
      "hit": false,
      "t": 114750,
      "d": 1125,
      "v": 35
    },
    {
      "midi": 75,
      "hit": false,
      "t": 115312.5,
      "d": 187.5,
      "v": 53
    },
    {
      "midi": 74,
      "hit": false,
      "t": 115500,
      "d": 375,
      "v": 55
    },
    {
      "midi": 72,
      "hit": false,
      "t": 115875,
      "d": 562.5,
      "v": 66
    },
    {
      "midi": 58,
      "hit": false,
      "t": 115875,
      "d": 750,
      "v": 52
    },
    {
      "midi": 70,
      "hit": false,
      "t": 116437.5,
      "d": 187.5,
      "v": 46
    },
    {
      "midi": 68,
      "hit": false,
      "t": 116625,
      "d": 375,
      "v": 56
    },
    {
      "midi": 60,
      "hit": false,
      "t": 116625,
      "d": 375,
      "v": 42
    },
    {
      "midi": 62,
      "hit": false,
      "t": 117000,
      "d": 750,
      "v": 52
    },
    {
      "midi": 67,
      "hit": false,
      "t": 117000,
      "d": 750,
      "v": 35
    },
    {
      "midi": 46,
      "hit": false,
      "t": 117000,
      "d": 750,
      "v": 52
    },
    {
      "midi": 58,
      "hit": false,
      "t": 117000,
      "d": 750,
      "v": 52
    },
    {
      "midi": 60,
      "hit": false,
      "t": 117750,
      "d": 375,
      "v": 42
    },
    {
      "midi": 57,
      "hit": false,
      "t": 117750,
      "d": 375,
      "v": 43
    },
    {
      "midi": 58,
      "hit": false,
      "t": 118125,
      "d": 750,
      "v": 35
    },
    {
      "midi": 62,
      "hit": false,
      "t": 118125,
      "d": 750,
      "v": 35
    },
    {
      "midi": 70,
      "hit": false,
      "t": 118125,
      "d": 750,
      "v": 52
    },
    {
      "midi": 55,
      "hit": false,
      "t": 118125,
      "d": 750,
      "v": 52
    },
    {
      "midi": 68,
      "hit": false,
      "t": 118875,
      "d": 375,
      "v": 42
    },
    {
      "midi": 53,
      "hit": false,
      "t": 118875,
      "d": 375,
      "v": 43
    },
    {
      "midi": 58,
      "hit": false,
      "t": 119250,
      "d": 2250,
      "v": 37
    },
    {
      "midi": 63,
      "hit": false,
      "t": 119250,
      "d": 2250,
      "v": 37
    },
    {
      "midi": 67,
      "hit": false,
      "t": 119250,
      "d": 2250,
      "v": 37
    },
    {
      "midi": 39,
      "hit": false,
      "t": 119250,
      "d": 750,
      "v": 52
    },
    {
      "midi": 51,
      "hit": false,
      "t": 119250,
      "d": 750,
      "v": 52
    },
    {
      "midi": 46,
      "hit": false,
      "t": 120000,
      "d": 375,
      "v": 43
    },
    {
      "midi": 51,
      "hit": false,
      "t": 120375,
      "d": 750,
      "v": 43
    },
    {
      "midi": 53,
      "hit": false,
      "t": 121125,
      "d": 375,
      "v": 43
    },
    {
      "midi": 75,
      "hit": false,
      "t": 121500,
      "d": 2250,
      "v": 37
    },
    {
      "midi": 79,
      "hit": false,
      "t": 121500,
      "d": 2250,
      "v": 37
    },
    {
      "midi": 87,
      "hit": false,
      "t": 121500,
      "d": 2250,
      "v": 37
    },
    {
      "midi": 39,
      "hit": false,
      "t": 121500,
      "d": 750,
      "v": 51
    },
    {
      "midi": 46,
      "hit": false,
      "t": 121500,
      "d": 750,
      "v": 51
    },
    {
      "midi": 55,
      "hit": false,
      "t": 121500,
      "d": 750,
      "v": 51
    },
    {
      "midi": 56,
      "hit": false,
      "t": 122250,
      "d": 375,
      "v": 43
    },
    {
      "midi": 58,
      "hit": false,
      "t": 122625,
      "d": 750,
      "v": 51
    },
    {
      "midi": 60,
      "hit": false,
      "t": 123375,
      "d": 375,
      "v": 40
    },
    {
      "midi": 61,
      "hit": false,
      "t": 123750,
      "d": 750,
      "v": 52
    },
    {
      "midi": 67,
      "hit": false,
      "t": 123750,
      "d": 750,
      "v": 37
    },
    {
      "midi": 51,
      "hit": false,
      "t": 123750,
      "d": 2250,
      "v": 37
    },
    {
      "midi": 55,
      "hit": false,
      "t": 123750,
      "d": 2250,
      "v": 37
    },
    {
      "midi": 60,
      "hit": false,
      "t": 124500,
      "d": 375,
      "v": 48
    },
    {
      "midi": 61,
      "hit": false,
      "t": 124875,
      "d": 750,
      "v": 43
    },
    {
      "midi": 58,
      "hit": false,
      "t": 125625,
      "d": 375,
      "v": 42
    },
    {
      "midi": 60,
      "hit": false,
      "t": 126000,
      "d": 750,
      "v": 43
    },
    {
      "midi": 67,
      "hit": false,
      "t": 126000,
      "d": 750,
      "v": 56
    },
    {
      "midi": 51,
      "hit": false,
      "t": 126000,
      "d": 1125,
      "v": 51
    },
    {
      "midi": 55,
      "hit": false,
      "t": 126000,
      "d": 1125,
      "v": 42
    },
    {
      "midi": 58,
      "hit": false,
      "t": 126750,
      "d": 375,
      "v": 48
    },
    {
      "midi": 59,
      "hit": false,
      "t": 127125,
      "d": 750,
      "v": 43
    },
    {
      "midi": 65,
      "hit": false,
      "t": 127125,
      "d": 750,
      "v": 56
    },
    {
      "midi": 56,
      "hit": false,
      "t": 127125,
      "d": 1125,
      "v": 42
    },
    {
      "midi": 58,
      "hit": false,
      "t": 127875,
      "d": 375,
      "v": 48
    },
    {
      "midi": 60,
      "hit": false,
      "t": 128250,
      "d": 1125,
      "v": 56
    },
    {
      "midi": 67,
      "hit": false,
      "t": 128250,
      "d": 1125,
      "v": 56
    },
    {
      "midi": 57,
      "hit": false,
      "t": 128250,
      "d": 562.5,
      "v": 56
    },
    {
      "midi": 55,
      "hit": false,
      "t": 128812.5,
      "d": 187.5,
      "v": 56
    },
    {
      "midi": 57,
      "hit": false,
      "t": 129000,
      "d": 375,
      "v": 56
    },
    {
      "midi": 66,
      "hit": false,
      "t": 129375,
      "d": 562.5,
      "v": 56
    },
    {
      "midi": 69,
      "hit": false,
      "t": 129375,
      "d": 562.5,
      "v": 56
    },
    {
      "midi": 59,
      "hit": false,
      "t": 129375,
      "d": 2250,
      "v": 56
    },
    {
      "midi": 63,
      "hit": false,
      "t": 129375,
      "d": 2250,
      "v": 56
    },
    {
      "midi": 71,
      "hit": false,
      "t": 129937.5,
      "d": 187.5,
      "v": 56
    },
    {
      "midi": 73,
      "hit": false,
      "t": 130125,
      "d": 375,
      "v": 56
    },
    {
      "midi": 75,
      "hit": false,
      "t": 130500,
      "d": 562.5,
      "v": 56
    },
    {
      "midi": 74,
      "hit": false,
      "t": 131062.5,
      "d": 187.5,
      "v": 56
    },
    {
      "midi": 75,
      "hit": false,
      "t": 131250,
      "d": 375,
      "v": 56
    },
    {
      "midi": 67,
      "hit": false,
      "t": 131625,
      "d": 562.5,
      "v": 56
    },
    {
      "midi": 70,
      "hit": false,
      "t": 131625,
      "d": 562.5,
      "v": 56
    },
    {
      "midi": 77,
      "hit": false,
      "t": 131625,
      "d": 562.5,
      "v": 56
    },
    {
      "midi": 58,
      "hit": false,
      "t": 131625,
      "d": 1125,
      "v": 56
    },
    {
      "midi": 63,
      "hit": false,
      "t": 131625,
      "d": 1125,
      "v": 56
    },
    {
      "midi": 75,
      "hit": false,
      "t": 132187.5,
      "d": 187.5,
      "v": 56
    },
    {
      "midi": 77,
      "hit": false,
      "t": 132375,
      "d": 375,
      "v": 56
    },
    {
      "midi": 67,
      "hit": false,
      "t": 132750,
      "d": 1125,
      "v": 56
    },
    {
      "midi": 72,
      "hit": false,
      "t": 132750,
      "d": 1125,
      "v": 56
    },
    {
      "midi": 79,
      "hit": false,
      "t": 132750,
      "d": 1125,
      "v": 56
    },
    {
      "midi": 57,
      "hit": false,
      "t": 132750,
      "d": 562.5,
      "v": 56
    },
    {
      "midi": 55,
      "hit": false,
      "t": 133312.5,
      "d": 187.5,
      "v": 56
    },
    {
      "midi": 57,
      "hit": false,
      "t": 133500,
      "d": 375,
      "v": 56
    },
    {
      "midi": 66,
      "hit": false,
      "t": 133875,
      "d": 2250,
      "v": 56
    },
    {
      "midi": 69,
      "hit": false,
      "t": 133875,
      "d": 2250,
      "v": 56
    },
    {
      "midi": 59,
      "hit": false,
      "t": 133875,
      "d": 2250,
      "v": 56
    },
    {
      "midi": 63,
      "hit": false,
      "t": 133875,
      "d": 2250,
      "v": 56
    },
    {
      "midi": 67,
      "hit": false,
      "t": 136125,
      "d": 1125,
      "v": 56
    },
    {
      "midi": 70,
      "hit": false,
      "t": 136125,
      "d": 1125,
      "v": 56
    },
    {
      "midi": 58,
      "hit": false,
      "t": 136125,
      "d": 1125,
      "v": 56
    },
    {
      "midi": 63,
      "hit": false,
      "t": 136125,
      "d": 1125,
      "v": 56
    },
    {
      "midi": 63,
      "hit": false,
      "t": 137250,
      "d": 1125,
      "v": 57
    },
    {
      "midi": 67,
      "hit": false,
      "t": 137250,
      "d": 1125,
      "v": 62
    },
    {
      "midi": 75,
      "hit": false,
      "t": 137250,
      "d": 1125,
      "v": 61
    },
    {
      "midi": 41,
      "hit": false,
      "t": 137250,
      "d": 1125,
      "v": 61
    },
    {
      "midi": 48,
      "hit": false,
      "t": 137250,
      "d": 1125,
      "v": 53
    },
    {
      "midi": 57,
      "hit": false,
      "t": 137250,
      "d": 1125,
      "v": 53
    },
    {
      "midi": 58,
      "hit": false,
      "t": 138375,
      "d": 750,
      "v": 50
    },
    {
      "midi": 62,
      "hit": false,
      "t": 138375,
      "d": 750,
      "v": 55
    },
    {
      "midi": 70,
      "hit": false,
      "t": 138375,
      "d": 750,
      "v": 57
    },
    {
      "midi": 43,
      "hit": false,
      "t": 138375,
      "d": 750,
      "v": 61
    },
    {
      "midi": 52,
      "hit": false,
      "t": 138375,
      "d": 750,
      "v": 36
    },
    {
      "midi": 69,
      "hit": false,
      "t": 139500,
      "d": 562.5,
      "v": 66
    },
    {
      "midi": 45,
      "hit": false,
      "t": 139500,
      "d": 187.5,
      "v": 55
    },
    {
      "midi": 52,
      "hit": false,
      "t": 139687.5,
      "d": 187.5,
      "v": 45
    },
    {
      "midi": 55,
      "hit": false,
      "t": 139875,
      "d": 187.5,
      "v": 42
    },
    {
      "midi": 66,
      "hit": false,
      "t": 140062.5,
      "d": 187.5,
      "v": 46
    },
    {
      "midi": 61,
      "hit": false,
      "t": 140062.5,
      "d": 187.5,
      "v": 50
    },
    {
      "midi": 67,
      "hit": false,
      "t": 140250,
      "d": 375,
      "v": 58
    },
    {
      "midi": 64,
      "hit": false,
      "t": 140250,
      "d": 375,
      "v": 48
    },
    {
      "midi": 66,
      "hit": false,
      "t": 140625,
      "d": 562.5,
      "v": 71
    },
    {
      "midi": 38,
      "hit": false,
      "t": 140812.5,
      "d": 187.5,
      "v": 45
    },
    {
      "midi": 45,
      "hit": false,
      "t": 141000,
      "d": 187.5,
      "v": 36
    },
    {
      "midi": 64,
      "hit": false,
      "t": 141187.5,
      "d": 187.5,
      "v": 62
    },
    {
      "midi": 50,
      "hit": false,
      "t": 141187.5,
      "d": 187.5,
      "v": 36
    },
    {
      "midi": 62,
      "hit": false,
      "t": 141375,
      "d": 375,
      "v": 58
    },
    {
      "midi": 54,
      "hit": false,
      "t": 141375,
      "d": 375,
      "v": 33
    },
    {
      "midi": 63,
      "hit": false,
      "t": 141750,
      "d": 1125,
      "v": 53
    },
    {
      "midi": 67,
      "hit": false,
      "t": 141750,
      "d": 1125,
      "v": 53
    },
    {
      "midi": 75,
      "hit": false,
      "t": 141750,
      "d": 1125,
      "v": 53
    },
    {
      "midi": 41,
      "hit": false,
      "t": 141750,
      "d": 1125,
      "v": 53
    },
    {
      "midi": 48,
      "hit": false,
      "t": 141750,
      "d": 1125,
      "v": 53
    },
    {
      "midi": 57,
      "hit": false,
      "t": 141750,
      "d": 1125,
      "v": 53
    },
    {
      "midi": 58,
      "hit": false,
      "t": 142875,
      "d": 750,
      "v": 51
    },
    {
      "midi": 62,
      "hit": false,
      "t": 142875,
      "d": 750,
      "v": 51
    },
    {
      "midi": 70,
      "hit": false,
      "t": 142875,
      "d": 750,
      "v": 51
    },
    {
      "midi": 43,
      "hit": false,
      "t": 142875,
      "d": 750,
      "v": 51
    },
    {
      "midi": 52,
      "hit": false,
      "t": 142875,
      "d": 750,
      "v": 51
    },
    {
      "midi": 69,
      "hit": false,
      "t": 144000,
      "d": 562.5,
      "v": 64
    },
    {
      "midi": 45,
      "hit": false,
      "t": 144000,
      "d": 187.5,
      "v": 55
    },
    {
      "midi": 52,
      "hit": false,
      "t": 144187.5,
      "d": 187.5,
      "v": 42
    },
    {
      "midi": 55,
      "hit": false,
      "t": 144375,
      "d": 187.5,
      "v": 46
    },
    {
      "midi": 66,
      "hit": false,
      "t": 144562.5,
      "d": 187.5,
      "v": 56
    },
    {
      "midi": 61,
      "hit": false,
      "t": 144562.5,
      "d": 187.5,
      "v": 63
    },
    {
      "midi": 67,
      "hit": false,
      "t": 144750,
      "d": 375,
      "v": 60
    },
    {
      "midi": 64,
      "hit": false,
      "t": 144750,
      "d": 375,
      "v": 63
    },
    {
      "midi": 66,
      "hit": false,
      "t": 145125,
      "d": 1125,
      "v": 67
    },
    {
      "midi": 38,
      "hit": false,
      "t": 145312.5,
      "d": 187.5,
      "v": 48
    },
    {
      "midi": 50,
      "hit": false,
      "t": 145500,
      "d": 187.5,
      "v": 46
    },
    {
      "midi": 63,
      "hit": false,
      "t": 146250,
      "d": 1125,
      "v": 58
    },
    {
      "midi": 67,
      "hit": false,
      "t": 146250,
      "d": 1125,
      "v": 64
    },
    {
      "midi": 75,
      "hit": false,
      "t": 146250,
      "d": 1125,
      "v": 62
    },
    {
      "midi": 41,
      "hit": false,
      "t": 146250,
      "d": 1125,
      "v": 61
    },
    {
      "midi": 48,
      "hit": false,
      "t": 146250,
      "d": 1125,
      "v": 61
    },
    {
      "midi": 57,
      "hit": false,
      "t": 146250,
      "d": 1125,
      "v": 46
    },
    {
      "midi": 58,
      "hit": false,
      "t": 147375,
      "d": 750,
      "v": 51
    },
    {
      "midi": 62,
      "hit": false,
      "t": 147375,
      "d": 750,
      "v": 51
    },
    {
      "midi": 70,
      "hit": false,
      "t": 147375,
      "d": 750,
      "v": 51
    },
    {
      "midi": 43,
      "hit": false,
      "t": 147375,
      "d": 750,
      "v": 51
    },
    {
      "midi": 52,
      "hit": false,
      "t": 147375,
      "d": 750,
      "v": 51
    },
    {
      "midi": 73,
      "hit": false,
      "t": 148500,
      "d": 562.5,
      "v": 64
    },
    {
      "midi": 79,
      "hit": false,
      "t": 148500,
      "d": 562.5,
      "v": 64
    },
    {
      "midi": 82,
      "hit": false,
      "t": 148500,
      "d": 562.5,
      "v": 64
    },
    {
      "midi": 45,
      "hit": false,
      "t": 148500,
      "d": 187.5,
      "v": 52
    },
    {
      "midi": 52,
      "hit": false,
      "t": 148687.5,
      "d": 187.5,
      "v": 28
    },
    {
      "midi": 55,
      "hit": false,
      "t": 148875,
      "d": 187.5,
      "v": 38
    },
    {
      "midi": 78,
      "hit": false,
      "t": 149062.5,
      "d": 187.5,
      "v": 56
    },
    {
      "midi": 81,
      "hit": false,
      "t": 149062.5,
      "d": 187.5,
      "v": 56
    },
    {
      "midi": 61,
      "hit": false,
      "t": 149062.5,
      "d": 187.5,
      "v": 38
    },
    {
      "midi": 79,
      "hit": false,
      "t": 149250,
      "d": 375,
      "v": 60
    },
    {
      "midi": 82,
      "hit": false,
      "t": 149250,
      "d": 375,
      "v": 60
    },
    {
      "midi": 64,
      "hit": false,
      "t": 149250,
      "d": 375,
      "v": 38
    },
    {
      "midi": 74,
      "hit": false,
      "t": 149625,
      "d": 562.5,
      "v": 64
    },
    {
      "midi": 78,
      "hit": false,
      "t": 149625,
      "d": 562.5,
      "v": 64
    },
    {
      "midi": 81,
      "hit": false,
      "t": 149625,
      "d": 562.5,
      "v": 64
    },
    {
      "midi": 50,
      "hit": false,
      "t": 149625,
      "d": 187.5,
      "v": 52
    },
    {
      "midi": 57,
      "hit": false,
      "t": 149812.5,
      "d": 187.5,
      "v": 52
    },
    {
      "midi": 62,
      "hit": false,
      "t": 150000,
      "d": 187.5,
      "v": 52
    },
    {
      "midi": 76,
      "hit": false,
      "t": 150187.5,
      "d": 187.5,
      "v": 56
    },
    {
      "midi": 79,
      "hit": false,
      "t": 150187.5,
      "d": 187.5,
      "v": 56
    },
    {
      "midi": 66,
      "hit": false,
      "t": 150187.5,
      "d": 187.5,
      "v": 52
    },
    {
      "midi": 74,
      "hit": false,
      "t": 150375,
      "d": 375,
      "v": 60
    },
    {
      "midi": 78,
      "hit": false,
      "t": 150375,
      "d": 375,
      "v": 60
    },
    {
      "midi": 69,
      "hit": false,
      "t": 150375,
      "d": 375,
      "v": 38
    },
    {
      "midi": 69,
      "hit": false,
      "t": 150750,
      "d": 1125,
      "v": 46
    },
    {
      "midi": 75,
      "hit": false,
      "t": 150750,
      "d": 1125,
      "v": 46
    },
    {
      "midi": 79,
      "hit": false,
      "t": 150750,
      "d": 1125,
      "v": 46
    },
    {
      "midi": 41,
      "hit": false,
      "t": 150750,
      "d": 1125,
      "v": 46
    },
    {
      "midi": 48,
      "hit": false,
      "t": 150750,
      "d": 1125,
      "v": 46
    },
    {
      "midi": 57,
      "hit": false,
      "t": 150750,
      "d": 1125,
      "v": 46
    },
    {
      "midi": 67,
      "hit": false,
      "t": 151875,
      "d": 750,
      "v": 51
    },
    {
      "midi": 70,
      "hit": false,
      "t": 151875,
      "d": 750,
      "v": 51
    },
    {
      "midi": 74,
      "hit": false,
      "t": 151875,
      "d": 750,
      "v": 51
    },
    {
      "midi": 43,
      "hit": false,
      "t": 151875,
      "d": 750,
      "v": 51
    },
    {
      "midi": 52,
      "hit": false,
      "t": 151875,
      "d": 750,
      "v": 51
    },
    {
      "midi": 58,
      "hit": false,
      "t": 151875,
      "d": 750,
      "v": 51
    },
    {
      "midi": 72,
      "hit": false,
      "t": 153000,
      "d": 562.5,
      "v": 66
    },
    {
      "midi": 53,
      "hit": false,
      "t": 153000,
      "d": 750,
      "v": 62
    },
    {
      "midi": 62,
      "hit": false,
      "t": 153000,
      "d": 750,
      "v": 66
    },
    {
      "midi": 68,
      "hit": false,
      "t": 153562.5,
      "d": 187.5,
      "v": 56
    },
    {
      "midi": 70,
      "hit": false,
      "t": 153750,
      "d": 375,
      "v": 60
    },
    {
      "midi": 51,
      "hit": false,
      "t": 153750,
      "d": 375,
      "v": 46
    },
    {
      "midi": 60,
      "hit": false,
      "t": 153750,
      "d": 375,
      "v": 30
    },
    {
      "midi": 66,
      "hit": false,
      "t": 154125,
      "d": 562.5,
      "v": 66
    },
    {
      "midi": 72,
      "hit": false,
      "t": 154125,
      "d": 562.5,
      "v": 62
    },
    {
      "midi": 50,
      "hit": false,
      "t": 154125,
      "d": 750,
      "v": 62
    },
    {
      "midi": 58,
      "hit": false,
      "t": 154125,
      "d": 750,
      "v": 46
    },
    {
      "midi": 64,
      "hit": false,
      "t": 154687.5,
      "d": 187.5,
      "v": 56
    },
    {
      "midi": 66,
      "hit": false,
      "t": 154875,
      "d": 375,
      "v": 60
    },
    {
      "midi": 74,
      "hit": false,
      "t": 154875,
      "d": 375,
      "v": 60
    },
    {
      "midi": 57,
      "hit": false,
      "t": 154875,
      "d": 375,
      "v": 55
    },
    {
      "midi": 60,
      "hit": false,
      "t": 154875,
      "d": 375,
      "v": 50
    },
    {
      "midi": 67,
      "hit": false,
      "t": 155250,
      "d": 750,
      "v": 46
    },
    {
      "midi": 43,
      "hit": false,
      "t": 155250,
      "d": 187.5,
      "v": 60
    },
    {
      "midi": 50,
      "hit": false,
      "t": 155437.5,
      "d": 187.5,
      "v": 60
    },
    {
      "midi": 55,
      "hit": false,
      "t": 155625,
      "d": 187.5,
      "v": 60
    },
    {
      "midi": 58,
      "hit": false,
      "t": 155812.5,
      "d": 187.5,
      "v": 60
    },
    {
      "midi": 70,
      "hit": false,
      "t": 156000,
      "d": 375,
      "v": 55
    },
    {
      "midi": 62,
      "hit": false,
      "t": 156000,
      "d": 375,
      "v": 60
    },
    {
      "midi": 74,
      "hit": false,
      "t": 156375,
      "d": 750,
      "v": 46
    },
    {
      "midi": 53,
      "hit": false,
      "t": 156375,
      "d": 187.5,
      "v": 60
    },
    {
      "midi": 55,
      "hit": false,
      "t": 156562.5,
      "d": 187.5,
      "v": 60
    },
    {
      "midi": 58,
      "hit": false,
      "t": 156750,
      "d": 187.5,
      "v": 60
    },
    {
      "midi": 62,
      "hit": false,
      "t": 156937.5,
      "d": 187.5,
      "v": 60
    },
    {
      "midi": 67,
      "hit": false,
      "t": 157125,
      "d": 375,
      "v": 60
    },
    {
      "midi": 52,
      "hit": false,
      "t": 157500,
      "d": 187.5,
      "v": 60
    },
    {
      "midi": 58,
      "hit": false,
      "t": 157687.5,
      "d": 187.5,
      "v": 60
    },
    {
      "midi": 62,
      "hit": false,
      "t": 157875,
      "d": 187.5,
      "v": 60
    },
    {
      "midi": 67,
      "hit": false,
      "t": 158062.5,
      "d": 187.5,
      "v": 60
    },
    {
      "midi": 70,
      "hit": false,
      "t": 158250,
      "d": 375,
      "v": 60
    },
    {
      "midi": 53,
      "hit": false,
      "t": 158625,
      "d": 187.5,
      "v": 60
    },
    {
      "midi": 57,
      "hit": false,
      "t": 158812.5,
      "d": 187.5,
      "v": 60
    },
    {
      "midi": 62,
      "hit": false,
      "t": 159000,
      "d": 187.5,
      "v": 60
    },
    {
      "midi": 65,
      "hit": false,
      "t": 159187.5,
      "d": 187.5,
      "v": 60
    },
    {
      "midi": 69,
      "hit": false,
      "t": 159375,
      "d": 375,
      "v": 60
    },
    {
      "midi": 46,
      "hit": false,
      "t": 159750,
      "d": 187.5,
      "v": 60
    },
    {
      "midi": 53,
      "hit": false,
      "t": 159937.5,
      "d": 187.5,
      "v": 60
    },
    {
      "midi": 58,
      "hit": false,
      "t": 160125,
      "d": 187.5,
      "v": 60
    },
    {
      "midi": 65,
      "hit": false,
      "t": 160125,
      "d": 187.5,
      "v": 60
    },
    {
      "midi": 53,
      "hit": false,
      "t": 160125,
      "d": 187.5,
      "v": 60
    },
    {
      "midi": 60,
      "hit": false,
      "t": 160500,
      "d": 187.5,
      "v": 60
    },
    {
      "midi": 64,
      "hit": false,
      "t": 160500,
      "d": 187.5,
      "v": 60
    },
    {
      "midi": 55,
      "hit": false,
      "t": 160500,
      "d": 187.5,
      "v": 60
    },
    {
      "midi": 46,
      "hit": false,
      "t": 160875,
      "d": 187.5,
      "v": 60
    },
    {
      "midi": 53,
      "hit": false,
      "t": 161062.5,
      "d": 187.5,
      "v": 60
    },
    {
      "midi": 58,
      "hit": false,
      "t": 161250,
      "d": 187.5,
      "v": 60
    },
    {
      "midi": 65,
      "hit": false,
      "t": 161250,
      "d": 187.5,
      "v": 60
    },
    {
      "midi": 53,
      "hit": false,
      "t": 161250,
      "d": 187.5,
      "v": 60
    },
    {
      "midi": 60,
      "hit": false,
      "t": 161625,
      "d": 187.5,
      "v": 60
    },
    {
      "midi": 64,
      "hit": false,
      "t": 161625,
      "d": 187.5,
      "v": 60
    },
    {
      "midi": 55,
      "hit": false,
      "t": 161625,
      "d": 187.5,
      "v": 60
    },
    {
      "midi": 38,
      "hit": false,
      "t": 162000,
      "d": 187.5,
      "v": 60
    },
    {
      "midi": 45,
      "hit": false,
      "t": 162187.5,
      "d": 187.5,
      "v": 60
    },
    {
      "midi": 50,
      "hit": false,
      "t": 162375,
      "d": 187.5,
      "v": 60
    },
    {
      "midi": 54,
      "hit": false,
      "t": 162562.5,
      "d": 187.5,
      "v": 60
    },
    {
      "midi": 57,
      "hit": false,
      "t": 162750,
      "d": 187.5,
      "v": 60
    },
    {
      "midi": 62,
      "hit": false,
      "t": 162937.5,
      "d": 187.5,
      "v": 60
    },
    {
      "midi": 66,
      "hit": false,
      "t": 163125,
      "d": 187.5,
      "v": 60
    },
    {
      "midi": 62,
      "hit": false,
      "t": 163500,
      "d": 187.5,
      "v": 60
    },
    {
      "midi": 60,
      "hit": false,
      "t": 163875,
      "d": 187.5,
      "v": 60
    },
    {
      "midi": 58,
      "hit": false,
      "t": 164250,
      "d": 375,
      "v": 60
    },
    {
      "midi": 43,
      "hit": false,
      "t": 164250,
      "d": 187.5,
      "v": 60
    },
    {
      "midi": 50,
      "hit": false,
      "t": 164437.5,
      "d": 187.5,
      "v": 60
    },
    {
      "midi": 58,
      "hit": false,
      "t": 164625,
      "d": 375,
      "v": 60
    },
    {
      "midi": 55,
      "hit": false,
      "t": 164625,
      "d": 375,
      "v": 60
    },
    {
      "midi": 62,
      "hit": false,
      "t": 165000,
      "d": 750,
      "v": 60
    },
    {
      "midi": 41,
      "hit": false,
      "t": 165375,
      "d": 187.5,
      "v": 60
    },
    {
      "midi": 53,
      "hit": false,
      "t": 165375,
      "d": 187.5,
      "v": 60
    },
    {
      "midi": 55,
      "hit": false,
      "t": 165562.5,
      "d": 187.5,
      "v": 60
    },
    {
      "midi": 67,
      "hit": false,
      "t": 165750,
      "d": 375,
      "v": 60
    },
    {
      "midi": 58,
      "hit": false,
      "t": 165750,
      "d": 187.5,
      "v": 60
    },
    {
      "midi": 62,
      "hit": false,
      "t": 165937.5,
      "d": 187.5,
      "v": 60
    },
    {
      "midi": 70,
      "hit": false,
      "t": 166125,
      "d": 375,
      "v": 60
    },
    {
      "midi": 72,
      "hit": false,
      "t": 166500,
      "d": 375,
      "v": 60
    },
    {
      "midi": 39,
      "hit": false,
      "t": 166500,
      "d": 187.5,
      "v": 60
    },
    {
      "midi": 51,
      "hit": false,
      "t": 166500,
      "d": 187.5,
      "v": 60
    },
    {
      "midi": 53,
      "hit": false,
      "t": 166687.5,
      "d": 187.5,
      "v": 60
    },
    {
      "midi": 56,
      "hit": false,
      "t": 166875,
      "d": 375,
      "v": 60
    },
    {
      "midi": 60,
      "hit": false,
      "t": 167250,
      "d": 375,
      "v": 60
    },
    {
      "midi": 68,
      "hit": false,
      "t": 167250,
      "d": 375,
      "v": 60
    },
    {
      "midi": 59,
      "hit": false,
      "t": 167625,
      "d": 750,
      "v": 60
    },
    {
      "midi": 67,
      "hit": false,
      "t": 167625,
      "d": 750,
      "v": 60
    },
    {
      "midi": 38,
      "hit": false,
      "t": 167625,
      "d": 187.5,
      "v": 60
    },
    {
      "midi": 50,
      "hit": false,
      "t": 167812.5,
      "d": 187.5,
      "v": 60
    },
    {
      "midi": 55,
      "hit": false,
      "t": 168000,
      "d": 375,
      "v": 60
    },
    {
      "midi": 65,
      "hit": false,
      "t": 168375,
      "d": 375,
      "v": 60
    },
    {
      "midi": 64,
      "hit": false,
      "t": 168750,
      "d": 750,
      "v": 60
    },
    {
      "midi": 36,
      "hit": false,
      "t": 168750,
      "d": 187.5,
      "v": 60
    },
    {
      "midi": 48,
      "hit": false,
      "t": 168750,
      "d": 187.5,
      "v": 60
    },
    {
      "midi": 55,
      "hit": false,
      "t": 168937.5,
      "d": 187.5,
      "v": 60
    },
    {
      "midi": 58,
      "hit": false,
      "t": 169125,
      "d": 375,
      "v": 60
    },
    {
      "midi": 63,
      "hit": false,
      "t": 169500,
      "d": 375,
      "v": 60
    },
    {
      "midi": 62,
      "hit": false,
      "t": 169875,
      "d": 750,
      "v": 60
    },
    {
      "midi": 38,
      "hit": false,
      "t": 169875,
      "d": 187.5,
      "v": 60
    },
    {
      "midi": 50,
      "hit": false,
      "t": 169875,
      "d": 187.5,
      "v": 60
    },
    {
      "midi": 57,
      "hit": false,
      "t": 170062.5,
      "d": 187.5,
      "v": 60
    },
    {
      "midi": 60,
      "hit": false,
      "t": 170250,
      "d": 375,
      "v": 60
    },
    {
      "midi": 66,
      "hit": false,
      "t": 170625,
      "d": 375,
      "v": 60
    },
    {
      "midi": 63,
      "hit": false,
      "t": 171000,
      "d": 1500,
      "v": 60
    },
    {
      "midi": 67,
      "hit": false,
      "t": 171000,
      "d": 1500,
      "v": 60
    },
    {
      "midi": 39,
      "hit": false,
      "t": 171000,
      "d": 187.5,
      "v": 60
    },
    {
      "midi": 46,
      "hit": false,
      "t": 171187.5,
      "d": 187.5,
      "v": 60
    },
    {
      "midi": 51,
      "hit": false,
      "t": 171375,
      "d": 187.5,
      "v": 60
    },
    {
      "midi": 55,
      "hit": false,
      "t": 171562.5,
      "d": 187.5,
      "v": 60
    },
    {
      "midi": 58,
      "hit": false,
      "t": 171750,
      "d": 375,
      "v": 60
    },
    {
      "midi": 37,
      "hit": false,
      "t": 172125,
      "d": 187.5,
      "v": 60
    },
    {
      "midi": 46,
      "hit": false,
      "t": 172312.5,
      "d": 187.5,
      "v": 60
    },
    {
      "midi": 49,
      "hit": false,
      "t": 172500,
      "d": 187.5,
      "v": 60
    },
    {
      "midi": 51,
      "hit": false,
      "t": 172687.5,
      "d": 187.5,
      "v": 60
    },
    {
      "midi": 55,
      "hit": false,
      "t": 172875,
      "d": 375,
      "v": 60
    },
    {
      "midi": 58,
      "hit": false,
      "t": 173250,
      "d": 750,
      "v": 60
    },
    {
      "midi": 34,
      "hit": false,
      "t": 173250,
      "d": 187.5,
      "v": 60
    },
    {
      "midi": 46,
      "hit": false,
      "t": 173437.5,
      "d": 187.5,
      "v": 60
    },
    {
      "midi": 51,
      "hit": false,
      "t": 173625,
      "d": 187.5,
      "v": 60
    },
    {
      "midi": 55,
      "hit": false,
      "t": 173812.5,
      "d": 187.5,
      "v": 60
    },
    {
      "midi": 63,
      "hit": false,
      "t": 174000,
      "d": 375,
      "v": 60
    },
    {
      "midi": 58,
      "hit": false,
      "t": 174000,
      "d": 375,
      "v": 60
    },
    {
      "midi": 67,
      "hit": false,
      "t": 174375,
      "d": 1500,
      "v": 60
    },
    {
      "midi": 45,
      "hit": false,
      "t": 174375,
      "d": 187.5,
      "v": 60
    },
    {
      "midi": 46,
      "hit": false,
      "t": 174562.5,
      "d": 187.5,
      "v": 60
    },
    {
      "midi": 51,
      "hit": false,
      "t": 174750,
      "d": 187.5,
      "v": 60
    },
    {
      "midi": 58,
      "hit": false,
      "t": 174937.5,
      "d": 187.5,
      "v": 60
    },
    {
      "midi": 63,
      "hit": false,
      "t": 175125,
      "d": 375,
      "v": 60
    },
    {
      "midi": 43,
      "hit": false,
      "t": 175500,
      "d": 187.5,
      "v": 60
    },
    {
      "midi": 51,
      "hit": false,
      "t": 175687.5,
      "d": 187.5,
      "v": 60
    },
    {
      "midi": 55,
      "hit": false,
      "t": 175875,
      "d": 187.5,
      "v": 60
    },
    {
      "midi": 58,
      "hit": false,
      "t": 176062.5,
      "d": 187.5,
      "v": 60
    },
    {
      "midi": 68,
      "hit": false,
      "t": 176250,
      "d": 375,
      "v": 60
    },
    {
      "midi": 63,
      "hit": false,
      "t": 176250,
      "d": 375,
      "v": 60
    },
    {
      "midi": 70,
      "hit": false,
      "t": 176625,
      "d": 1500,
      "v": 60
    },
    {
      "midi": 41,
      "hit": false,
      "t": 176625,
      "d": 187.5,
      "v": 60
    },
    {
      "midi": 46,
      "hit": false,
      "t": 176812.5,
      "d": 187.5,
      "v": 60
    },
    {
      "midi": 51,
      "hit": false,
      "t": 177000,
      "d": 187.5,
      "v": 60
    },
    {
      "midi": 55,
      "hit": false,
      "t": 177187.5,
      "d": 187.5,
      "v": 60
    },
    {
      "midi": 58,
      "hit": false,
      "t": 177375,
      "d": 375,
      "v": 60
    },
    {
      "midi": 39,
      "hit": false,
      "t": 177750,
      "d": 187.5,
      "v": 60
    },
    {
      "midi": 46,
      "hit": false,
      "t": 177937.5,
      "d": 187.5,
      "v": 60
    },
    {
      "midi": 51,
      "hit": false,
      "t": 178125,
      "d": 187.5,
      "v": 60
    },
    {
      "midi": 55,
      "hit": false,
      "t": 178312.5,
      "d": 187.5,
      "v": 60
    },
    {
      "midi": 72,
      "hit": false,
      "t": 178500,
      "d": 375,
      "v": 60
    },
    {
      "midi": 58,
      "hit": false,
      "t": 178500,
      "d": 187.5,
      "v": 60
    },
    {
      "midi": 60,
      "hit": false,
      "t": 178687.5,
      "d": 187.5,
      "v": 60
    },
    {
      "midi": 66,
      "hit": false,
      "t": 178875,
      "d": 375,
      "v": 60
    },
    {
      "midi": 74,
      "hit": false,
      "t": 178875,
      "d": 562.5,
      "v": 60
    },
    {
      "midi": 50,
      "hit": false,
      "t": 178875,
      "d": 750,
      "v": 60
    },
    {
      "midi": 60,
      "hit": false,
      "t": 178875,
      "d": 750,
      "v": 60
    },
    {
      "midi": 62,
      "hit": false,
      "t": 178875,
      "d": 750,
      "v": 60
    },
    {
      "midi": 69,
      "hit": false,
      "t": 179437.5,
      "d": 187.5,
      "v": 60
    },
    {
      "midi": 72,
      "hit": false,
      "t": 179625,
      "d": 375,
      "v": 60
    },
    {
      "midi": 70,
      "hit": false,
      "t": 180000,
      "d": 750,
      "v": 60
    },
    {
      "midi": 43,
      "hit": false,
      "t": 180000,
      "d": 187.5,
      "v": 60
    },
    {
      "midi": 46,
      "hit": false,
      "t": 180187.5,
      "d": 187.5,
      "v": 60
    },
    {
      "midi": 58,
      "hit": false,
      "t": 180375,
      "d": 187.5,
      "v": 60
    },
    {
      "midi": 46,
      "hit": false,
      "t": 180562.5,
      "d": 187.5,
      "v": 60
    },
    {
      "midi": 58,
      "hit": false,
      "t": 180750,
      "d": 375,
      "v": 60
    },
    {
      "midi": 44,
      "hit": false,
      "t": 180750,
      "d": 375,
      "v": 60
    },
    {
      "midi": 63,
      "hit": false,
      "t": 181125,
      "d": 750,
      "v": 60
    },
    {
      "midi": 43,
      "hit": false,
      "t": 181125,
      "d": 187.5,
      "v": 60
    },
    {
      "midi": 46,
      "hit": false,
      "t": 181312.5,
      "d": 187.5,
      "v": 60
    },
    {
      "midi": 58,
      "hit": false,
      "t": 181500,
      "d": 187.5,
      "v": 60
    },
    {
      "midi": 46,
      "hit": false,
      "t": 181687.5,
      "d": 187.5,
      "v": 60
    },
    {
      "midi": 65,
      "hit": false,
      "t": 181875,
      "d": 375,
      "v": 60
    },
    {
      "midi": 41,
      "hit": false,
      "t": 181875,
      "d": 375,
      "v": 60
    },
    {
      "midi": 67,
      "hit": false,
      "t": 182250,
      "d": 750,
      "v": 60
    },
    {
      "midi": 39,
      "hit": false,
      "t": 182250,
      "d": 187.5,
      "v": 60
    },
    {
      "midi": 46,
      "hit": false,
      "t": 182437.5,
      "d": 187.5,
      "v": 60
    },
    {
      "midi": 58,
      "hit": false,
      "t": 182625,
      "d": 187.5,
      "v": 60
    },
    {
      "midi": 46,
      "hit": false,
      "t": 182812.5,
      "d": 187.5,
      "v": 60
    },
    {
      "midi": 69,
      "hit": false,
      "t": 183000,
      "d": 375,
      "v": 60
    },
    {
      "midi": 39,
      "hit": false,
      "t": 183000,
      "d": 375,
      "v": 60
    },
    {
      "midi": 70,
      "hit": false,
      "t": 183375,
      "d": 562.5,
      "v": 60
    },
    {
      "midi": 38,
      "hit": false,
      "t": 183375,
      "d": 187.5,
      "v": 60
    },
    {
      "midi": 50,
      "hit": false,
      "t": 183562.5,
      "d": 187.5,
      "v": 60
    },
    {
      "midi": 54,
      "hit": false,
      "t": 183750,
      "d": 375,
      "v": 60
    },
    {
      "midi": 57,
      "hit": false,
      "t": 183937.5,
      "d": 187.5,
      "v": 60
    },
    {
      "midi": 60,
      "hit": false,
      "t": 184125,
      "d": 375,
      "v": 60
    },
    {
      "midi": 58,
      "hit": false,
      "t": 184500,
      "d": 562.5,
      "v": 60
    },
    {
      "midi": 43,
      "hit": false,
      "t": 184500,
      "d": 187.5,
      "v": 60
    },
    {
      "midi": 50,
      "hit": false,
      "t": 184687.5,
      "d": 187.5,
      "v": 60
    },
    {
      "midi": 55,
      "hit": false,
      "t": 184875,
      "d": 375,
      "v": 60
    },
    {
      "midi": 60,
      "hit": false,
      "t": 185062.5,
      "d": 187.5,
      "v": 60
    },
    {
      "midi": 57,
      "hit": false,
      "t": 185250,
      "d": 375,
      "v": 60
    },
    {
      "midi": 63,
      "hit": false,
      "t": 185250,
      "d": 375,
      "v": 60
    },
    {
      "midi": 48,
      "hit": false,
      "t": 185250,
      "d": 375,
      "v": 60
    },
    {
      "midi": 62,
      "hit": false,
      "t": 185625,
      "d": 562.5,
      "v": 60
    },
    {
      "midi": 43,
      "hit": false,
      "t": 185625,
      "d": 187.5,
      "v": 60
    },
    {
      "midi": 50,
      "hit": false,
      "t": 185812.5,
      "d": 187.5,
      "v": 60
    },
    {
      "midi": 55,
      "hit": false,
      "t": 186000,
      "d": 375,
      "v": 60
    },
    {
      "midi": 65,
      "hit": false,
      "t": 186187.5,
      "d": 187.5,
      "v": 60
    },
    {
      "midi": 64,
      "hit": false,
      "t": 186375,
      "d": 375,
      "v": 60
    },
    {
      "midi": 48,
      "hit": false,
      "t": 186375,
      "d": 375,
      "v": 60
    },
    {
      "midi": 58,
      "hit": false,
      "t": 186750,
      "d": 375,
      "v": 60
    },
    {
      "midi": 62,
      "hit": false,
      "t": 186750,
      "d": 375,
      "v": 60
    },
    {
      "midi": 43,
      "hit": false,
      "t": 186750,
      "d": 187.5,
      "v": 60
    },
    {
      "midi": 50,
      "hit": false,
      "t": 186937.5,
      "d": 187.5,
      "v": 60
    },
    {
      "midi": 55,
      "hit": false,
      "t": 187125,
      "d": 375,
      "v": 60
    },
    {
      "midi": 57,
      "hit": false,
      "t": 187500,
      "d": 375,
      "v": 60
    },
    {
      "midi": 48,
      "hit": false,
      "t": 187500,
      "d": 375,
      "v": 60
    },
    {
      "midi": 58,
      "hit": false,
      "t": 187875,
      "d": 1125,
      "v": 60
    },
    {
      "midi": 43,
      "hit": false,
      "t": 187875,
      "d": 187.5,
      "v": 60
    },
    {
      "midi": 50,
      "hit": false,
      "t": 188062.5,
      "d": 187.5,
      "v": 60
    },
    {
      "midi": 55,
      "hit": false,
      "t": 188250,
      "d": 375,
      "v": 60
    },
    {
      "midi": 48,
      "hit": false,
      "t": 188625,
      "d": 375,
      "v": 60
    },
    {
      "midi": 58,
      "hit": false,
      "t": 189000,
      "d": 750,
      "v": 60
    },
    {
      "midi": 43,
      "hit": false,
      "t": 189000,
      "d": 750,
      "v": 60
    },
    {
      "midi": 50,
      "hit": false,
      "t": 189000,
      "d": 750,
      "v": 60
    },
    {
      "midi": 55,
      "hit": false,
      "t": 190125,
      "d": 750,
      "v": 60
    },
    {
      "midi": 58,
      "hit": false,
      "t": 190125,
      "d": 750,
      "v": 60
    },
    {
      "midi": 43,
      "hit": false,
      "t": 190125,
      "d": 750,
      "v": 60
    },
    {
      "midi": 50,
      "hit": false,
      "t": 190125,
      "d": 750,
      "v": 60
    },
    {
      "midi": 55,
      "hit": false,
      "t": 191250,
      "d": 750,
      "v": 60
    },
    {
      "midi": 58,
      "hit": false,
      "t": 191250,
      "d": 750,
      "v": 60
    },
    {
      "midi": 43,
      "hit": false,
      "t": 191250,
      "d": 750,
      "v": 60
    },
    {
      "midi": 50,
      "hit": false,
      "t": 191250,
      "d": 750,
      "v": 60
    }
  ]
}