{
  "jsonPath": "Unknown/Unknown/Kellys/alla-stunder.json",
  "path": "Unknown\\Unknown\\Kellys\\Alla stunder.mid",
  "name": "Alla stunder",
  "difficulty": "Advanced",
  "bpm": 120,
  "notes": [
    {
      "midi": 57,
      "hit": false,
      "t": 3677.3953125000003,
      "d": 1123.7362499999995,
      "v": 103
    },
    {
      "midi": 62,
      "hit": false,
      "t": 3677.3953125000003,
      "d": 1133.2059374999994,
      "v": 114
    },
    {
      "midi": 64,
      "hit": false,
      "t": 4270.8290625,
      "d": 1079.5443749999995,
      "v": 89
    },
    {
      "midi": 66,
      "hit": false,
      "t": 4848.48,
      "d": 138.88875000000007,
      "v": 94
    },
    {
      "midi": 62,
      "hit": false,
      "t": 4848.48,
      "d": 157.828125,
      "v": 102
    },
    {
      "midi": 62,
      "hit": false,
      "t": 5151.509999999999,
      "d": 69.44437500000004,
      "v": 86
    },
    {
      "midi": 66,
      "hit": false,
      "t": 5151.509999999999,
      "d": 69.44437500000004,
      "v": 62
    },
    {
      "midi": 62,
      "hit": false,
      "t": 5454.539999999999,
      "d": 44.19187500000044,
      "v": 87
    },
    {
      "midi": 66,
      "hit": false,
      "t": 5454.539999999999,
      "d": 82.07062500000029,
      "v": 93
    },
    {
      "midi": 62,
      "hit": false,
      "t": 5757.57,
      "d": 50.50500000000011,
      "v": 97
    },
    {
      "midi": 66,
      "hit": false,
      "t": 5757.57,
      "d": 56.81812499999978,
      "v": 88
    },
    {
      "midi": 62,
      "hit": false,
      "t": 6060.599999999999,
      "d": 94.69687499999964,
      "v": 107
    },
    {
      "midi": 66,
      "hit": false,
      "t": 6060.599999999999,
      "d": 151.51499999999942,
      "v": 104
    },
    {
      "midi": 64,
      "hit": false,
      "t": 6363.629999999999,
      "d": 157.828125,
      "v": 70
    },
    {
      "midi": 62,
      "hit": false,
      "t": 6666.659999999999,
      "d": 82.07062500000029,
      "v": 78
    },
    {
      "midi": 38,
      "hit": false,
      "t": 7272.719999999999,
      "d": 1767.6749999999993,
      "v": 70
    },
    {
      "midi": 50,
      "hit": false,
      "t": 7878.78,
      "d": 1092.1706249999997,
      "v": 57
    },
    {
      "midi": 57,
      "hit": false,
      "t": 8181.8099999999995,
      "d": 258.8381250000002,
      "v": 112
    },
    {
      "midi": 62,
      "hit": false,
      "t": 8484.84,
      "d": 372.4743749999998,
      "v": 112
    },
    {
      "midi": 64,
      "hit": false,
      "t": 9090.899999999998,
      "d": 113.63624999999956,
      "v": 107
    },
    {
      "midi": 66,
      "hit": false,
      "t": 9696.959999999997,
      "d": 82.07062500000029,
      "v": 93
    },
    {
      "midi": 62,
      "hit": false,
      "t": 9696.959999999997,
      "d": 88.38375000000087,
      "v": 94
    },
    {
      "midi": 38,
      "hit": false,
      "t": 9696.959999999997,
      "d": 1635.0993750000016,
      "v": 87
    },
    {
      "midi": 62,
      "hit": false,
      "t": 9999.989999999998,
      "d": 50.5049999999992,
      "v": 80
    },
    {
      "midi": 66,
      "hit": false,
      "t": 9999.989999999998,
      "d": 63.131249999998545,
      "v": 84
    },
    {
      "midi": 66,
      "hit": false,
      "t": 10303.019999999997,
      "d": 44.19187500000044,
      "v": 91
    },
    {
      "midi": 62,
      "hit": false,
      "t": 10303.019999999997,
      "d": 56.81812499999978,
      "v": 87
    },
    {
      "midi": 62,
      "hit": false,
      "t": 10606.049999999997,
      "d": 44.19187500000044,
      "v": 94
    },
    {
      "midi": 66,
      "hit": false,
      "t": 10606.049999999997,
      "d": 69.44437500000095,
      "v": 96
    },
    {
      "midi": 62,
      "hit": false,
      "t": 10909.079999999998,
      "d": 107.3231250000008,
      "v": 102
    },
    {
      "midi": 66,
      "hit": false,
      "t": 10909.079999999998,
      "d": 138.88875000000007,
      "v": 104
    },
    {
      "midi": 64,
      "hit": false,
      "t": 11212.109999999999,
      "d": 157.828125,
      "v": 61
    },
    {
      "midi": 62,
      "hit": false,
      "t": 11515.14,
      "d": 107.3231250000008,
      "v": 90
    },
    {
      "midi": 38,
      "hit": false,
      "t": 12121.2,
      "d": 1773.988124999998,
      "v": 76
    },
    {
      "midi": 57,
      "hit": false,
      "t": 13030.29,
      "d": 189.39374999999927,
      "v": 88
    },
    {
      "midi": 62,
      "hit": false,
      "t": 13333.32,
      "d": 309.3431249999994,
      "v": 107
    },
    {
      "midi": 64,
      "hit": false,
      "t": 13939.38,
      "d": 82.07062500000029,
      "v": 104
    },
    {
      "midi": 66,
      "hit": false,
      "t": 14545.439999999999,
      "d": 82.07062500000029,
      "v": 86
    },
    {
      "midi": 62,
      "hit": false,
      "t": 14545.439999999999,
      "d": 88.38375000000087,
      "v": 88
    },
    {
      "midi": 38,
      "hit": false,
      "t": 14545.439999999999,
      "d": 1622.4731250000023,
      "v": 85
    },
    {
      "midi": 62,
      "hit": false,
      "t": 14848.47,
      "d": 56.81812499999978,
      "v": 87
    },
    {
      "midi": 66,
      "hit": false,
      "t": 14848.47,
      "d": 56.81812499999978,
      "v": 84
    },
    {
      "midi": 66,
      "hit": false,
      "t": 15151.5,
      "d": 50.5049999999992,
      "v": 88
    },
    {
      "midi": 62,
      "hit": false,
      "t": 15151.5,
      "d": 56.81812499999978,
      "v": 84
    },
    {
      "midi": 66,
      "hit": false,
      "t": 15454.53,
      "d": 44.19187500000044,
      "v": 93
    },
    {
      "midi": 62,
      "hit": false,
      "t": 15454.53,
      "d": 63.131250000000364,
      "v": 94
    },
    {
      "midi": 62,
      "hit": false,
      "t": 15757.560000000001,
      "d": 138.88875000000007,
      "v": 104
    },
    {
      "midi": 66,
      "hit": false,
      "t": 15757.560000000001,
      "d": 151.51499999999942,
      "v": 104
    },
    {
      "midi": 64,
      "hit": false,
      "t": 16060.59,
      "d": 170.45437500000116,
      "v": 70
    },
    {
      "midi": 62,
      "hit": false,
      "t": 16363.62,
      "d": 126.26249999999891,
      "v": 78
    },
    {
      "midi": 38,
      "hit": false,
      "t": 16969.68,
      "d": 1805.5537499999991,
      "v": 83
    },
    {
      "midi": 57,
      "hit": false,
      "t": 17878.77,
      "d": 195.70687499999985,
      "v": 75
    },
    {
      "midi": 62,
      "hit": false,
      "t": 18181.8,
      "d": 372.4743750000016,
      "v": 94
    },
    {
      "midi": 64,
      "hit": false,
      "t": 18787.86,
      "d": 107.32312499999898,
      "v": 90
    },
    {
      "midi": 62,
      "hit": false,
      "t": 19393.92,
      "d": 82.07062500000029,
      "v": 88
    },
    {
      "midi": 66,
      "hit": false,
      "t": 19393.92,
      "d": 82.07062500000029,
      "v": 78
    },
    {
      "midi": 38,
      "hit": false,
      "t": 19393.92,
      "d": 1685.6043750000026,
      "v": 80
    },
    {
      "midi": 62,
      "hit": false,
      "t": 19696.949999999997,
      "d": 56.8181250000016,
      "v": 88
    },
    {
      "midi": 66,
      "hit": false,
      "t": 19696.949999999997,
      "d": 56.8181250000016,
      "v": 69
    },
    {
      "midi": 62,
      "hit": false,
      "t": 19999.98,
      "d": 50.50500000000102,
      "v": 92
    },
    {
      "midi": 66,
      "hit": false,
      "t": 19999.98,
      "d": 69.44437500000276,
      "v": 93
    },
    {
      "midi": 62,
      "hit": false,
      "t": 20303.010000000002,
      "d": 63.131249999998545,
      "v": 96
    },
    {
      "midi": 66,
      "hit": false,
      "t": 20303.010000000002,
      "d": 82.07062500000029,
      "v": 93
    },
    {
      "midi": 62,
      "hit": false,
      "t": 20606.04,
      "d": 107.32312499999898,
      "v": 102
    },
    {
      "midi": 66,
      "hit": false,
      "t": 20606.04,
      "d": 145.20187499999884,
      "v": 104
    },
    {
      "midi": 64,
      "hit": false,
      "t": 20909.07,
      "d": 183.08062500000233,
      "v": 75
    },
    {
      "midi": 62,
      "hit": false,
      "t": 21212.100000000002,
      "d": 170.45437500000116,
      "v": 102
    },
    {
      "midi": 38,
      "hit": false,
      "t": 21818.160000000003,
      "d": 637.6256250000006,
      "v": 79
    },
    {
      "midi": 50,
      "hit": false,
      "t": 58181.76,
      "d": 429.2925000000032,
      "v": 52
    },
    {
      "midi": 57,
      "hit": false,
      "t": 58181.76,
      "d": 517.6762500000041,
      "v": 49
    },
    {
      "midi": 62,
      "hit": false,
      "t": 58181.76,
      "d": 593.4337500000038,
      "v": 63
    },
    {
      "midi": 66,
      "hit": false,
      "t": 58181.76,
      "d": 593.4337500000038,
      "v": 43
    },
    {
      "midi": 50,
      "hit": false,
      "t": 58787.82000000001,
      "d": 208.33312499999738,
      "v": 58
    },
    {
      "midi": 57,
      "hit": false,
      "t": 59090.850000000006,
      "d": 258.83812500000204,
      "v": 124
    },
    {
      "midi": 62,
      "hit": false,
      "t": 59393.880000000005,
      "d": 404.0400000000009,
      "v": 127
    },
    {
      "midi": 64,
      "hit": false,
      "t": 59999.94,
      "d": 88.38375000000087,
      "v": 120
    },
    {
      "midi": 57,
      "hit": false,
      "t": 60606.00000000001,
      "d": 82.07062500000029,
      "v": 85
    },
    {
      "midi": 62,
      "hit": false,
      "t": 60606.00000000001,
      "d": 88.38375000000087,
      "v": 104
    },
    {
      "midi": 66,
      "hit": false,
      "t": 60606.00000000001,
      "d": 88.38375000000087,
      "v": 108
    },
    {
      "midi": 50,
      "hit": false,
      "t": 60606.00000000001,
      "d": 1553.028750000005,
      "v": 83
    },
    {
      "midi": 66,
      "hit": false,
      "t": 60909.030000000006,
      "d": 31.56562500000291,
      "v": 78
    },
    {
      "midi": 62,
      "hit": false,
      "t": 61212.06000000001,
      "d": 18.939375000001746,
      "v": 84
    },
    {
      "midi": 66,
      "hit": false,
      "t": 61212.06000000001,
      "d": 31.56562500000291,
      "v": 81
    },
    {
      "midi": 57,
      "hit": false,
      "t": 61515.09000000002,
      "d": 75.75749999999971,
      "v": 84
    },
    {
      "midi": 62,
      "hit": false,
      "t": 61515.09000000002,
      "d": 88.38375000000087,
      "v": 109
    },
    {
      "midi": 66,
      "hit": false,
      "t": 61515.09000000002,
      "d": 94.69687500000146,
      "v": 104
    },
    {
      "midi": 66,
      "hit": false,
      "t": 61818.12000000002,
      "d": 44.1918749999968,
      "v": 91
    },
    {
      "midi": 62,
      "hit": false,
      "t": 61818.12000000002,
      "d": 88.3837499999936,
      "v": 109
    },
    {
      "midi": 57,
      "hit": false,
      "t": 61818.12000000002,
      "d": 101.00999999999476,
      "v": 100
    },
    {
      "midi": 64,
      "hit": false,
      "t": 62121.15000000001,
      "d": 31.56562500000291,
      "v": 90
    },
    {
      "midi": 57,
      "hit": false,
      "t": 62121.15000000001,
      "d": 63.13125000000582,
      "v": 73
    },
    {
      "midi": 61,
      "hit": false,
      "t": 62121.15000000001,
      "d": 63.13125000000582,
      "v": 91
    },
    {
      "midi": 62,
      "hit": false,
      "t": 62424.180000000015,
      "d": 69.44437499999913,
      "v": 107
    },
    {
      "midi": 50,
      "hit": false,
      "t": 63030.24000000001,
      "d": 1767.675000000003,
      "v": 85
    },
    {
      "midi": 57,
      "hit": false,
      "t": 63939.33000000001,
      "d": 107.32312500000262,
      "v": 82
    },
    {
      "midi": 62,
      "hit": false,
      "t": 64242.360000000015,
      "d": 385.1006249999991,
      "v": 116
    },
    {
      "midi": 64,
      "hit": false,
      "t": 64848.42000000001,
      "d": 82.07062500000029,
      "v": 109
    },
    {
      "midi": 57,
      "hit": false,
      "t": 64848.42000000001,
      "d": 94.69687500000146,
      "v": 82
    },
    {
      "midi": 62,
      "hit": false,
      "t": 65454.48000000002,
      "d": 63.131249999998545,
      "v": 97
    },
    {
      "midi": 66,
      "hit": false,
      "t": 65454.48000000002,
      "d": 63.131249999998545,
      "v": 93
    },
    {
      "midi": 57,
      "hit": false,
      "t": 65454.48000000002,
      "d": 88.38375000000087,
      "v": 82
    },
    {
      "midi": 50,
      "hit": false,
      "t": 65454.48000000002,
      "d": 1761.3618750000387,
      "v": 72
    },
    {
      "midi": 66,
      "hit": false,
      "t": 65757.51000000002,
      "d": 31.56562500000291,
      "v": 91
    },
    {
      "midi": 62,
      "hit": false,
      "t": 65757.51000000002,
      "d": 37.87875000000349,
      "v": 88
    },
    {
      "midi": 57,
      "hit": false,
      "t": 66060.54000000002,
      "d": 69.4443750000064,
      "v": 85
    },
    {
      "midi": 62,
      "hit": false,
      "t": 66060.54000000002,
      "d": 69.4443750000064,
      "v": 104
    },
    {
      "midi": 66,
      "hit": false,
      "t": 66060.54000000002,
      "d": 75.75750000000698,
      "v": 108
    },
    {
      "midi": 57,
      "hit": false,
      "t": 66363.57000000004,
      "d": 50.50500000000466,
      "v": 85
    },
    {
      "midi": 62,
      "hit": false,
      "t": 66363.57000000004,
      "d": 63.13125000000582,
      "v": 102
    },
    {
      "midi": 66,
      "hit": false,
      "t": 66363.57000000004,
      "d": 82.07062500000757,
      "v": 104
    },
    {
      "midi": 66,
      "hit": false,
      "t": 66666.60000000005,
      "d": 75.75750000000698,
      "v": 93
    },
    {
      "midi": 57,
      "hit": false,
      "t": 66666.60000000005,
      "d": 82.07062500000757,
      "v": 85
    },
    {
      "midi": 62,
      "hit": false,
      "t": 66666.60000000005,
      "d": 88.38375000000815,
      "v": 100
    },
    {
      "midi": 64,
      "hit": false,
      "t": 66969.63000000006,
      "d": 101.00999999999476,
      "v": 102
    },
    {
      "midi": 57,
      "hit": false,
      "t": 66969.63000000006,
      "d": 107.32312499999534,
      "v": 75
    },
    {
      "midi": 62,
      "hit": false,
      "t": 67272.66000000006,
      "d": 138.88874999999825,
      "v": 112
    },
    {
      "midi": 50,
      "hit": false,
      "t": 67878.72000000006,
      "d": 2272.725000000006,
      "v": 112
    },
    {
      "midi": 36,
      "hit": false,
      "t": 208484.64000000007,
      "d": 1148.9887499999895,
      "v": 96
    },
    {
      "midi": 55,
      "hit": false,
      "t": 208484.64000000007,
      "d": 1180.5543749999779,
      "v": 97
    },
    {
      "midi": 60,
      "hit": false,
      "t": 208484.64000000007,
      "d": 1193.180624999979,
      "v": 124
    },
    {
      "midi": 64,
      "hit": false,
      "t": 208484.64000000007,
      "d": 1193.180624999979,
      "v": 127
    },
    {
      "midi": 48,
      "hit": false,
      "t": 208484.64000000007,
      "d": 1249.9987499999697,
      "v": 97
    },
    {
      "midi": 36,
      "hit": false,
      "t": 209999.79000000004,
      "d": 429.2925000000105,
      "v": 79
    },
    {
      "midi": 55,
      "hit": false,
      "t": 210605.85000000003,
      "d": 435.6056249999965,
      "v": 109
    },
    {
      "midi": 48,
      "hit": false,
      "t": 210605.85000000003,
      "d": 486.11062500000116,
      "v": 70
    },
    {
      "midi": 60,
      "hit": false,
      "t": 210605.85000000003,
      "d": 492.4237499999872,
      "v": 127
    },
    {
      "midi": 64,
      "hit": false,
      "t": 210605.85000000003,
      "d": 511.3631249999744,
      "v": 127
    },
    {
      "midi": 36,
      "hit": false,
      "t": 211211.91,
      "d": 1047.9787500000093,
      "v": 75
    },
    {
      "midi": 48,
      "hit": false,
      "t": 211514.94,
      "d": 126.26250000001164,
      "v": 55
    },
    {
      "midi": 60,
      "hit": false,
      "t": 211817.97,
      "d": 44.19187499998952,
      "v": 49
    },
    {
      "midi": 48,
      "hit": false,
      "t": 211817.97,
      "d": 460.85812499999884,
      "v": 49
    },
    {
      "midi": 60,
      "hit": false,
      "t": 212121,
      "d": 359.8481249999895,
      "v": 100
    },
    {
      "midi": 64,
      "hit": false,
      "t": 212121,
      "d": 385.10062499999185,
      "v": 116
    },
    {
      "midi": 67,
      "hit": false,
      "t": 212121,
      "d": 404.03999999997905,
      "v": 120
    },
    {
      "midi": 36,
      "hit": false,
      "t": 212424.03,
      "d": 183.08062499997322,
      "v": 73
    },
    {
      "midi": 62,
      "hit": false,
      "t": 213333.11999999997,
      "d": 656.5650000000023,
      "v": 102
    },
    {
      "midi": 69,
      "hit": false,
      "t": 213333.11999999997,
      "d": 675.5043749999895,
      "v": 120
    },
    {
      "midi": 66,
      "hit": false,
      "t": 213333.11999999997,
      "d": 681.8174999999756,
      "v": 124
    },
    {
      "midi": 36,
      "hit": false,
      "t": 213333.11999999997,
      "d": 839.6456249999756,
      "v": 88
    },
    {
      "midi": 48,
      "hit": false,
      "t": 213333.11999999997,
      "d": 965.9081249999872,
      "v": 94
    },
    {
      "midi": 36,
      "hit": false,
      "t": 214848.26999999996,
      "d": 138.8887500000128,
      "v": 64
    },
    {
      "midi": 48,
      "hit": false,
      "t": 215151.29999999996,
      "d": 940.6556249999849,
      "v": 78
    },
    {
      "midi": 57,
      "hit": false,
      "t": 215454.32999999996,
      "d": 606.0599999999977,
      "v": 104
    },
    {
      "midi": 62,
      "hit": false,
      "t": 215454.32999999996,
      "d": 643.9387499999721,
      "v": 124
    },
    {
      "midi": 66,
      "hit": false,
      "t": 215454.32999999996,
      "d": 662.8781249999593,
      "v": 124
    },
    {
      "midi": 36,
      "hit": false,
      "t": 216666.44999999992,
      "d": 675.5043750000186,
      "v": 51
    },
    {
      "midi": 62,
      "hit": false,
      "t": 216969.47999999992,
      "d": 271.4643750000105,
      "v": 92
    },
    {
      "midi": 69,
      "hit": false,
      "t": 216969.47999999992,
      "d": 284.09062500001164,
      "v": 120
    },
    {
      "midi": 66,
      "hit": false,
      "t": 216969.47999999992,
      "d": 321.96937500001513,
      "v": 117
    },
    {
      "midi": 48,
      "hit": false,
      "t": 217575.53999999995,
      "d": 75.75750000000698,
      "v": 35
    },
    {
      "midi": 59,
      "hit": false,
      "t": 218181.59999999998,
      "d": 934.3424999999988,
      "v": 100
    },
    {
      "midi": 62,
      "hit": false,
      "t": 218181.59999999998,
      "d": 953.281874999986,
      "v": 120
    },
    {
      "midi": 66,
      "hit": false,
      "t": 218181.59999999998,
      "d": 1003.7868749999907,
      "v": 124
    },
    {
      "midi": 35,
      "hit": false,
      "t": 218181.59999999998,
      "d": 1010.0999999999767,
      "v": 102
    },
    {
      "midi": 47,
      "hit": false,
      "t": 218181.59999999998,
      "d": 1275.251249999972,
      "v": 92
    },
    {
      "midi": 35,
      "hit": false,
      "t": 219696.74999999994,
      "d": 1167.9281250000058,
      "v": 97
    },
    {
      "midi": 47,
      "hit": false,
      "t": 219999.77999999994,
      "d": 946.9687499999709,
      "v": 83
    },
    {
      "midi": 62,
      "hit": false,
      "t": 220302.80999999994,
      "d": 82.07062499999302,
      "v": 90
    },
    {
      "midi": 62,
      "hit": false,
      "t": 220605.83999999994,
      "d": 328.28250000000116,
      "v": 97
    },
    {
      "midi": 71,
      "hit": false,
      "t": 220605.83999999994,
      "d": 334.5956249999872,
      "v": 104
    },
    {
      "midi": 66,
      "hit": false,
      "t": 220605.83999999994,
      "d": 366.16124999997555,
      "v": 117
    },
    {
      "midi": 35,
      "hit": false,
      "t": 221211.8999999999,
      "d": 896.4637499999953,
      "v": 85
    },
    {
      "midi": 47,
      "hit": false,
      "t": 221514.9299999999,
      "d": 467.17124999998487,
      "v": 70
    },
    {
      "midi": 59,
      "hit": false,
      "t": 221817.9599999999,
      "d": 359.8481249999895,
      "v": 92
    },
    {
      "midi": 62,
      "hit": false,
      "t": 221817.9599999999,
      "d": 397.726874999993,
      "v": 116
    },
    {
      "midi": 66,
      "hit": false,
      "t": 221817.9599999999,
      "d": 410.3531249999942,
      "v": 124
    },
    {
      "midi": 47,
      "hit": false,
      "t": 222424.0199999999,
      "d": 113.63625000001048,
      "v": 60
    },
    {
      "midi": 66,
      "hit": false,
      "t": 223030.0799999999,
      "d": 965.9081249999872,
      "v": 124
    },
    {
      "midi": 47,
      "hit": false,
      "t": 223030.0799999999,
      "d": 991.1606249999895,
      "v": 84
    },
    {
      "midi": 63,
      "hit": false,
      "t": 223030.0799999999,
      "d": 991.1606249999895,
      "v": 124
    },
    {
      "midi": 59,
      "hit": false,
      "t": 223030.0799999999,
      "d": 997.4737499999756,
      "v": 97
    },
    {
      "midi": 69,
      "hit": false,
      "t": 223030.0799999999,
      "d": 1016.4131249999627,
      "v": 97
    },
    {
      "midi": 35,
      "hit": false,
      "t": 223030.0799999999,
      "d": 1035.35249999995,
      "v": 83
    },
    {
      "midi": 35,
      "hit": false,
      "t": 224848.25999999986,
      "d": 63.13125000000582,
      "v": 84
    },
    {
      "midi": 59,
      "hit": false,
      "t": 225151.28999999986,
      "d": 37.87875000000349,
      "v": 63
    },
    {
      "midi": 47,
      "hit": false,
      "t": 225151.28999999986,
      "d": 984.8475000000035,
      "v": 90
    },
    {
      "midi": 66,
      "hit": false,
      "t": 225454.31999999986,
      "d": 315.65625,
      "v": 124
    },
    {
      "midi": 63,
      "hit": false,
      "t": 225454.31999999986,
      "d": 328.28250000000116,
      "v": 112
    },
    {
      "midi": 59,
      "hit": false,
      "t": 225454.31999999986,
      "d": 340.9087500000023,
      "v": 100
    },
    {
      "midi": 69,
      "hit": false,
      "t": 225454.31999999986,
      "d": 340.9087500000023,
      "v": 100
    },
    {
      "midi": 35,
      "hit": false,
      "t": 225757.34999999986,
      "d": 303.02999999999884,
      "v": 49
    },
    {
      "midi": 59,
      "hit": false,
      "t": 226060.37999999986,
      "d": 94.69687499999418,
      "v": 100
    },
    {
      "midi": 66,
      "hit": false,
      "t": 226060.37999999986,
      "d": 94.69687499999418,
      "v": 124
    },
    {
      "midi": 63,
      "hit": false,
      "t": 226060.37999999986,
      "d": 107.32312499999534,
      "v": 124
    },
    {
      "midi": 69,
      "hit": false,
      "t": 226060.37999999986,
      "d": 138.8887499999837,
      "v": 107
    },
    {
      "midi": 35,
      "hit": false,
      "t": 226666.43999999986,
      "d": 460.85812499996973,
      "v": 92
    },
    {
      "midi": 59,
      "hit": false,
      "t": 226969.46999999986,
      "d": 63.13125000000582,
      "v": 104
    },
    {
      "midi": 63,
      "hit": false,
      "t": 226969.46999999986,
      "d": 82.07062499999302,
      "v": 124
    },
    {
      "midi": 66,
      "hit": false,
      "t": 226969.46999999986,
      "d": 88.38374999997905,
      "v": 127
    },
    {
      "midi": 69,
      "hit": false,
      "t": 226969.46999999986,
      "d": 88.38374999997905,
      "v": 107
    },
    {
      "midi": 47,
      "hit": false,
      "t": 227272.49999999983,
      "d": 88.38375000000815,
      "v": 79
    },
    {
      "midi": 36,
      "hit": false,
      "t": 227878.55999999985,
      "d": 1142.6756250000035,
      "v": 96
    },
    {
      "midi": 55,
      "hit": false,
      "t": 227878.55999999985,
      "d": 1180.554375000007,
      "v": 97
    },
    {
      "midi": 60,
      "hit": false,
      "t": 227878.55999999985,
      "d": 1193.1806250000081,
      "v": 124
    },
    {
      "midi": 64,
      "hit": false,
      "t": 227878.55999999985,
      "d": 1193.1806250000081,
      "v": 127
    },
    {
      "midi": 48,
      "hit": false,
      "t": 227878.55999999985,
      "d": 1243.6856250000128,
      "v": 97
    },
    {
      "midi": 36,
      "hit": false,
      "t": 229393.70999999988,
      "d": 429.2925000000105,
      "v": 79
    },
    {
      "midi": 55,
      "hit": false,
      "t": 229999.76999999987,
      "d": 435.6056249999965,
      "v": 109
    },
    {
      "midi": 48,
      "hit": false,
      "t": 229999.76999999987,
      "d": 486.11062500000116,
      "v": 70
    },
    {
      "midi": 60,
      "hit": false,
      "t": 229999.76999999987,
      "d": 492.4237499999872,
      "v": 127
    },
    {
      "midi": 64,
      "hit": false,
      "t": 229999.76999999987,
      "d": 511.3631249999744,
      "v": 127
    },
    {
      "midi": 36,
      "hit": false,
      "t": 230605.82999999984,
      "d": 1047.9787500000093,
      "v": 75
    },
    {
      "midi": 48,
      "hit": false,
      "t": 230908.85999999984,
      "d": 126.26250000001164,
      "v": 55
    },
    {
      "midi": 60,
      "hit": false,
      "t": 231211.88999999984,
      "d": 44.19187499998952,
      "v": 49
    },
    {
      "midi": 48,
      "hit": false,
      "t": 231211.88999999984,
      "d": 460.85812499999884,
      "v": 49
    },
    {
      "midi": 60,
      "hit": false,
      "t": 231514.91999999984,
      "d": 359.8481249999895,
      "v": 100
    },
    {
      "midi": 64,
      "hit": false,
      "t": 231514.91999999984,
      "d": 385.10062499999185,
      "v": 116
    },
    {
      "midi": 67,
      "hit": false,
      "t": 231514.91999999984,
      "d": 404.03999999997905,
      "v": 120
    },
    {
      "midi": 36,
      "hit": false,
      "t": 231817.94999999984,
      "d": 183.08062499997322,
      "v": 73
    },
    {
      "midi": 62,
      "hit": false,
      "t": 232727.0399999998,
      "d": 656.5650000000023,
      "v": 102
    },
    {
      "midi": 69,
      "hit": false,
      "t": 232727.0399999998,
      "d": 675.5043749999895,
      "v": 120
    },
    {
      "midi": 66,
      "hit": false,
      "t": 232727.0399999998,
      "d": 681.8174999999756,
      "v": 124
    },
    {
      "midi": 36,
      "hit": false,
      "t": 232727.0399999998,
      "d": 839.6456249999756,
      "v": 88
    },
    {
      "midi": 48,
      "hit": false,
      "t": 232727.0399999998,
      "d": 965.9081249999872,
      "v": 94
    },
    {
      "midi": 36,
      "hit": false,
      "t": 234242.1899999998,
      "d": 138.8887500000128,
      "v": 64
    },
    {
      "midi": 48,
      "hit": false,
      "t": 234545.2199999998,
      "d": 940.6556249999849,
      "v": 78
    },
    {
      "midi": 57,
      "hit": false,
      "t": 234848.2499999998,
      "d": 606.0599999999977,
      "v": 104
    },
    {
      "midi": 62,
      "hit": false,
      "t": 234848.2499999998,
      "d": 643.9387499999721,
      "v": 124
    },
    {
      "midi": 66,
      "hit": false,
      "t": 234848.2499999998,
      "d": 662.8781249999593,
      "v": 124
    },
    {
      "midi": 36,
      "hit": false,
      "t": 236060.36999999976,
      "d": 675.5043750000186,
      "v": 51
    },
    {
      "midi": 62,
      "hit": false,
      "t": 236363.39999999976,
      "d": 271.4643750000105,
      "v": 92
    },
    {
      "midi": 69,
      "hit": false,
      "t": 236363.39999999976,
      "d": 284.09062500001164,
      "v": 120
    },
    {
      "midi": 66,
      "hit": false,
      "t": 236363.39999999976,
      "d": 321.96937500001513,
      "v": 117
    },
    {
      "midi": 48,
      "hit": false,
      "t": 236969.4599999998,
      "d": 75.75750000000698,
      "v": 35
    },
    {
      "midi": 59,
      "hit": false,
      "t": 237575.51999999981,
      "d": 934.3424999999988,
      "v": 100
    },
    {
      "midi": 62,
      "hit": false,
      "t": 237575.51999999981,
      "d": 953.281874999986,
      "v": 120
    },
    {
      "midi": 66,
      "hit": false,
      "t": 237575.51999999981,
      "d": 1003.7868749999907,
      "v": 124
    },
    {
      "midi": 35,
      "hit": false,
      "t": 237575.51999999981,
      "d": 1010.0999999999767,
      "v": 102
    },
    {
      "midi": 47,
      "hit": false,
      "t": 237575.51999999981,
      "d": 1275.251249999972,
      "v": 92
    },
    {
      "midi": 35,
      "hit": false,
      "t": 239090.66999999978,
      "d": 1167.9281250000058,
      "v": 97
    },
    {
      "midi": 47,
      "hit": false,
      "t": 239393.69999999978,
      "d": 946.9687499999709,
      "v": 83
    },
    {
      "midi": 62,
      "hit": false,
      "t": 239696.72999999978,
      "d": 82.07062499999302,
      "v": 90
    },
    {
      "midi": 62,
      "hit": false,
      "t": 239999.75999999978,
      "d": 328.28250000000116,
      "v": 97
    },
    {
      "midi": 71,
      "hit": false,
      "t": 239999.75999999978,
      "d": 334.5956249999872,
      "v": 104
    },
    {
      "midi": 66,
      "hit": false,
      "t": 239999.75999999978,
      "d": 359.8481249999604,
      "v": 117
    },
    {
      "midi": 35,
      "hit": false,
      "t": 240605.81999999975,
      "d": 896.4637499999953,
      "v": 85
    },
    {
      "midi": 47,
      "hit": false,
      "t": 240908.84999999974,
      "d": 467.17124999998487,
      "v": 70
    },
    {
      "midi": 59,
      "hit": false,
      "t": 241211.87999999974,
      "d": 359.8481249999895,
      "v": 92
    },
    {
      "midi": 62,
      "hit": false,
      "t": 241211.87999999974,
      "d": 397.726874999993,
      "v": 116
    },
    {
      "midi": 66,
      "hit": false,
      "t": 241211.87999999974,
      "d": 410.3531249999942,
      "v": 124
    },
    {
      "midi": 47,
      "hit": false,
      "t": 241817.93999999974,
      "d": 113.63625000001048,
      "v": 60
    },
    {
      "midi": 66,
      "hit": false,
      "t": 242423.99999999974,
      "d": 965.9081249999872,
      "v": 124
    },
    {
      "midi": 47,
      "hit": false,
      "t": 242423.99999999974,
      "d": 991.1606249999895,
      "v": 84
    },
    {
      "midi": 63,
      "hit": false,
      "t": 242423.99999999974,
      "d": 991.1606249999895,
      "v": 124
    },
    {
      "midi": 59,
      "hit": false,
      "t": 242423.99999999974,
      "d": 997.4737499999756,
      "v": 97
    },
    {
      "midi": 69,
      "hit": false,
      "t": 242423.99999999974,
      "d": 1016.4131249999627,
      "v": 97
    },
    {
      "midi": 35,
      "hit": false,
      "t": 242423.99999999974,
      "d": 1035.35249999995,
      "v": 83
    },
    {
      "midi": 35,
      "hit": false,
      "t": 244242.1799999997,
      "d": 63.13125000000582,
      "v": 84
    },
    {
      "midi": 59,
      "hit": false,
      "t": 244545.2099999997,
      "d": 37.87875000000349,
      "v": 63
    },
    {
      "midi": 47,
      "hit": false,
      "t": 244545.2099999997,
      "d": 984.8475000000035,
      "v": 90
    },
    {
      "midi": 66,
      "hit": false,
      "t": 244848.2399999997,
      "d": 315.65625,
      "v": 124
    },
    {
      "midi": 63,
      "hit": false,
      "t": 244848.2399999997,
      "d": 328.28250000000116,
      "v": 112
    },
    {
      "midi": 59,
      "hit": false,
      "t": 244848.2399999997,
      "d": 340.9087500000023,
      "v": 100
    },
    {
      "midi": 69,
      "hit": false,
      "t": 244848.2399999997,
      "d": 340.9087500000023,
      "v": 100
    },
    {
      "midi": 35,
      "hit": false,
      "t": 245151.2699999997,
      "d": 303.02999999999884,
      "v": 49
    },
    {
      "midi": 59,
      "hit": false,
      "t": 245454.2999999997,
      "d": 94.69687499999418,
      "v": 100
    },
    {
      "midi": 66,
      "hit": false,
      "t": 245454.2999999997,
      "d": 94.69687499999418,
      "v": 124
    },
    {
      "midi": 63,
      "hit": false,
      "t": 245454.2999999997,
      "d": 107.32312499999534,
      "v": 124
    },
    {
      "midi": 69,
      "hit": false,
      "t": 245454.2999999997,
      "d": 138.8887499999837,
      "v": 107
    },
    {
      "midi": 35,
      "hit": false,
      "t": 246060.3599999997,
      "d": 460.85812499999884,
      "v": 92
    },
    {
      "midi": 59,
      "hit": false,
      "t": 246363.3899999997,
      "d": 63.13125000000582,
      "v": 104
    },
    {
      "midi": 63,
      "hit": false,
      "t": 246363.3899999997,
      "d": 88.38375000000815,
      "v": 124
    },
    {
      "midi": 66,
      "hit": false,
      "t": 246363.3899999997,
      "d": 88.38375000000815,
      "v": 127
    },
    {
      "midi": 69,
      "hit": false,
      "t": 246363.3899999997,
      "d": 88.38375000000815,
      "v": 107
    },
    {
      "midi": 47,
      "hit": false,
      "t": 246666.4199999997,
      "d": 88.38375000000815,
      "v": 79
    },
    {
      "midi": 36,
      "hit": false,
      "t": 247272.47999999972,
      "d": 1142.6756250000035,
      "v": 96
    },
    {
      "midi": 55,
      "hit": false,
      "t": 247272.47999999972,
      "d": 1180.554375000007,
      "v": 97
    },
    {
      "midi": 60,
      "hit": false,
      "t": 247272.47999999972,
      "d": 1193.1806250000081,
      "v": 124
    },
    {
      "midi": 64,
      "hit": false,
      "t": 247272.47999999972,
      "d": 1193.1806250000081,
      "v": 127
    },
    {
      "midi": 48,
      "hit": false,
      "t": 247272.47999999972,
      "d": 1243.6856250000128,
      "v": 97
    },
    {
      "midi": 36,
      "hit": false,
      "t": 248787.62999999974,
      "d": 429.2925000000105,
      "v": 79
    },
    {
      "midi": 55,
      "hit": false,
      "t": 249393.68999999974,
      "d": 435.6056249999965,
      "v": 109
    },
    {
      "midi": 48,
      "hit": false,
      "t": 249393.68999999974,
      "d": 486.11062500000116,
      "v": 70
    },
    {
      "midi": 60,
      "hit": false,
      "t": 249393.68999999974,
      "d": 492.4237499999872,
      "v": 127
    },
    {
      "midi": 64,
      "hit": false,
      "t": 249393.68999999974,
      "d": 511.3631249999744,
      "v": 127
    },
    {
      "midi": 36,
      "hit": false,
      "t": 249999.7499999997,
      "d": 1047.9787500000093,
      "v": 75
    },
    {
      "midi": 48,
      "hit": false,
      "t": 250302.7799999997,
      "d": 126.26250000001164,
      "v": 55
    },
    {
      "midi": 60,
      "hit": false,
      "t": 250605.8099999997,
      "d": 44.19187499998952,
      "v": 49
    },
    {
      "midi": 48,
      "hit": false,
      "t": 250605.8099999997,
      "d": 460.85812499999884,
      "v": 49
    },
    {
      "midi": 60,
      "hit": false,
      "t": 250908.8399999997,
      "d": 359.8481249999895,
      "v": 100
    },
    {
      "midi": 64,
      "hit": false,
      "t": 250908.8399999997,
      "d": 385.10062499999185,
      "v": 116
    },
    {
      "midi": 67,
      "hit": false,
      "t": 250908.8399999997,
      "d": 404.03999999997905,
      "v": 120
    },
    {
      "midi": 36,
      "hit": false,
      "t": 251211.8699999997,
      "d": 183.08062499997322,
      "v": 73
    },
    {
      "midi": 62,
      "hit": false,
      "t": 252120.95999999967,
      "d": 656.5650000000023,
      "v": 102
    },
    {
      "midi": 69,
      "hit": false,
      "t": 252120.95999999967,
      "d": 675.5043749999895,
      "v": 120
    },
    {
      "midi": 66,
      "hit": false,
      "t": 252120.95999999967,
      "d": 681.8174999999756,
      "v": 124
    },
    {
      "midi": 36,
      "hit": false,
      "t": 252120.95999999967,
      "d": 839.6456249999756,
      "v": 88
    },
    {
      "midi": 48,
      "hit": false,
      "t": 252120.95999999967,
      "d": 965.9081249999872,
      "v": 94
    },
    {
      "midi": 36,
      "hit": false,
      "t": 253636.10999999967,
      "d": 138.8887500000128,
      "v": 64
    },
    {
      "midi": 48,
      "hit": false,
      "t": 253939.13999999966,
      "d": 940.6556249999849,
      "v": 78
    },
    {
      "midi": 57,
      "hit": false,
      "t": 254242.16999999966,
      "d": 606.0599999999977,
      "v": 104
    },
    {
      "midi": 62,
      "hit": false,
      "t": 254242.16999999966,
      "d": 643.9387499999721,
      "v": 124
    },
    {
      "midi": 66,
      "hit": false,
      "t": 254242.16999999966,
      "d": 662.8781249999593,
      "v": 124
    },
    {
      "midi": 36,
      "hit": false,
      "t": 255454.28999999963,
      "d": 675.5043750000186,
      "v": 51
    },
    {
      "midi": 62,
      "hit": false,
      "t": 255757.31999999963,
      "d": 271.4643750000105,
      "v": 92
    },
    {
      "midi": 69,
      "hit": false,
      "t": 255757.31999999963,
      "d": 284.09062500001164,
      "v": 120
    },
    {
      "midi": 66,
      "hit": false,
      "t": 255757.31999999963,
      "d": 321.96937500001513,
      "v": 117
    },
    {
      "midi": 48,
      "hit": false,
      "t": 256363.37999999966,
      "d": 75.75750000000698,
      "v": 35
    },
    {
      "midi": 59,
      "hit": false,
      "t": 256969.43999999968,
      "d": 934.3424999999988,
      "v": 100
    },
    {
      "midi": 62,
      "hit": false,
      "t": 256969.43999999968,
      "d": 953.281874999986,
      "v": 120
    },
    {
      "midi": 66,
      "hit": false,
      "t": 256969.43999999968,
      "d": 1003.7868749999907,
      "v": 124
    },
    {
      "midi": 35,
      "hit": false,
      "t": 256969.43999999968,
      "d": 1010.0999999999767,
      "v": 102
    },
    {
      "midi": 47,
      "hit": false,
      "t": 256969.43999999968,
      "d": 1275.251249999972,
      "v": 92
    },
    {
      "midi": 35,
      "hit": false,
      "t": 258484.58999999965,
      "d": 1167.9281250000058,
      "v": 97
    },
    {
      "midi": 47,
      "hit": false,
      "t": 258787.61999999965,
      "d": 946.9687499999709,
      "v": 83
    },
    {
      "midi": 62,
      "hit": false,
      "t": 259090.64999999964,
      "d": 82.07062499999302,
      "v": 90
    },
    {
      "midi": 62,
      "hit": false,
      "t": 259393.67999999964,
      "d": 328.28250000000116,
      "v": 97
    },
    {
      "midi": 71,
      "hit": false,
      "t": 259393.67999999964,
      "d": 334.5956249999872,
      "v": 104
    },
    {
      "midi": 66,
      "hit": false,
      "t": 259393.67999999964,
      "d": 366.16124999997555,
      "v": 117
    },
    {
      "midi": 35,
      "hit": false,
      "t": 259999.7399999996,
      "d": 896.4637499999953,
      "v": 85
    },
    {
      "midi": 47,
      "hit": false,
      "t": 260302.7699999996,
      "d": 467.17124999998487,
      "v": 70
    },
    {
      "midi": 59,
      "hit": false,
      "t": 260605.7999999996,
      "d": 359.8481249999895,
      "v": 92
    },
    {
      "midi": 62,
      "hit": false,
      "t": 260605.7999999996,
      "d": 397.726874999993,
      "v": 116
    },
    {
      "midi": 66,
      "hit": false,
      "t": 260605.7999999996,
      "d": 410.3531249999942,
      "v": 124
    },
    {
      "midi": 47,
      "hit": false,
      "t": 261211.8599999996,
      "d": 113.63625000001048,
      "v": 60
    },
    {
      "midi": 66,
      "hit": false,
      "t": 261817.9199999996,
      "d": 965.9081249999872,
      "v": 124
    },
    {
      "midi": 47,
      "hit": false,
      "t": 261817.9199999996,
      "d": 991.1606249999895,
      "v": 84
    },
    {
      "midi": 63,
      "hit": false,
      "t": 261817.9199999996,
      "d": 991.1606249999895,
      "v": 124
    },
    {
      "midi": 59,
      "hit": false,
      "t": 261817.9199999996,
      "d": 997.4737499999756,
      "v": 97
    },
    {
      "midi": 69,
      "hit": false,
      "t": 261817.9199999996,
      "d": 1016.4131249999919,
      "v": 97
    },
    {
      "midi": 35,
      "hit": false,
      "t": 261817.9199999996,
      "d": 1035.3525000000081,
      "v": 83
    },
    {
      "midi": 35,
      "hit": false,
      "t": 263636.0999999996,
      "d": 63.13124999997672,
      "v": 84
    },
    {
      "midi": 59,
      "hit": false,
      "t": 263939.1299999996,
      "d": 37.87874999997439,
      "v": 63
    },
    {
      "midi": 47,
      "hit": false,
      "t": 263939.1299999996,
      "d": 984.8474999999744,
      "v": 90
    },
    {
      "midi": 66,
      "hit": false,
      "t": 264242.15999999957,
      "d": 309.34312500001397,
      "v": 124
    },
    {
      "midi": 63,
      "hit": false,
      "t": 264242.15999999957,
      "d": 328.28250000003027,
      "v": 112
    },
    {
      "midi": 69,
      "hit": false,
      "t": 264242.15999999957,
      "d": 334.5956250000163,
      "v": 100
    },
    {
      "midi": 59,
      "hit": false,
      "t": 264242.15999999957,
      "d": 340.9087500000023,
      "v": 100
    },
    {
      "midi": 35,
      "hit": false,
      "t": 264545.1899999996,
      "d": 303.02999999996973,
      "v": 49
    },
    {
      "midi": 66,
      "hit": false,
      "t": 264848.21999999956,
      "d": 94.69687500002328,
      "v": 124
    },
    {
      "midi": 59,
      "hit": false,
      "t": 264848.21999999956,
      "d": 101.01000000000931,
      "v": 100
    },
    {
      "midi": 63,
      "hit": false,
      "t": 264848.21999999956,
      "d": 113.63624999998137,
      "v": 124
    },
    {
      "midi": 69,
      "hit": false,
      "t": 264848.21999999956,
      "d": 138.8887499999837,
      "v": 107
    },
    {
      "midi": 35,
      "hit": false,
      "t": 265454.27999999956,
      "d": 460.85812500002794,
      "v": 92
    },
    {
      "midi": 59,
      "hit": false,
      "t": 265757.3099999996,
      "d": 63.13124999997672,
      "v": 104
    },
    {
      "midi": 63,
      "hit": false,
      "t": 265757.3099999996,
      "d": 88.38374999997905,
      "v": 124
    },
    {
      "midi": 66,
      "hit": false,
      "t": 265757.3099999996,
      "d": 88.38374999997905,
      "v": 127
    },
    {
      "midi": 69,
      "hit": false,
      "t": 265757.3099999996,
      "d": 88.38374999997905,
      "v": 107
    },
    {
      "midi": 47,
      "hit": false,
      "t": 266060.3399999996,
      "d": 88.38374999997905,
      "v": 79
    },
    {
      "midi": 59,
      "hit": false,
      "t": 266666.3999999996,
      "d": 1066.9181249999674,
      "v": 104
    },
    {
      "midi": 43,
      "hit": false,
      "t": 266666.3999999996,
      "d": 1073.2312499999534,
      "v": 96
    },
    {
      "midi": 31,
      "hit": false,
      "t": 266666.3999999996,
      "d": 1085.8574999999255,
      "v": 92
    },
    {
      "midi": 62,
      "hit": false,
      "t": 266666.3999999996,
      "d": 1098.4837499998976,
      "v": 120
    },
    {
      "midi": 67,
      "hit": false,
      "t": 266666.3999999996,
      "d": 1117.4231249999139,
      "v": 94
    },
    {
      "midi": 60,
      "hit": false,
      "t": 269090.63999999955,
      "d": 624.999375000014,
      "v": 102
    },
    {
      "midi": 64,
      "hit": false,
      "t": 269090.63999999955,
      "d": 631.3125,
      "v": 90
    },
    {
      "midi": 55,
      "hit": false,
      "t": 269090.63999999955,
      "d": 643.9387499999721,
      "v": 94
    },
    {
      "midi": 36,
      "hit": false,
      "t": 269090.63999999955,
      "d": 1546.7156250000116,
      "v": 83
    },
    {
      "midi": 48,
      "hit": false,
      "t": 269090.63999999955,
      "d": 1622.4731250000186,
      "v": 79
    },
    {
      "midi": 55,
      "hit": false,
      "t": 269999.7299999995,
      "d": 732.3225000000675,
      "v": 87
    },
    {
      "midi": 60,
      "hit": false,
      "t": 270302.75999999954,
      "d": 208.33312500000466,
      "v": 76
    },
    {
      "midi": 60,
      "hit": false,
      "t": 270605.7899999996,
      "d": 183.08062500000233,
      "v": 58
    },
    {
      "midi": 64,
      "hit": false,
      "t": 270605.7899999996,
      "d": 195.7068749999744,
      "v": 116
    },
    {
      "midi": 36,
      "hit": false,
      "t": 270908.81999999954,
      "d": 107.32312499999534,
      "v": 83
    },
    {
      "midi": 50,
      "hit": false,
      "t": 271514.87999999954,
      "d": 883.8375000000233,
      "v": 73
    },
    {
      "midi": 57,
      "hit": false,
      "t": 271514.87999999954,
      "d": 1098.483750000014,
      "v": 79
    },
    {
      "midi": 60,
      "hit": false,
      "t": 271514.87999999954,
      "d": 1117.4231250000303,
      "v": 94
    },
    {
      "midi": 66,
      "hit": false,
      "t": 271514.87999999954,
      "d": 1256.311875000014,
      "v": 84
    },
    {
      "midi": 38,
      "hit": false,
      "t": 271514.87999999954,
      "d": 1382.5743750000256,
      "v": 83
    },
    {
      "midi": 50,
      "hit": false,
      "t": 273030.02999999956,
      "d": 101.01000000000931,
      "v": 49
    },
    {
      "midi": 31,
      "hit": false,
      "t": 273939.1199999996,
      "d": 460.85812500002794,
      "v": 70
    },
    {
      "midi": 55,
      "hit": false,
      "t": 273939.1199999996,
      "d": 473.484375,
      "v": 68
    },
    {
      "midi": 62,
      "hit": false,
      "t": 273939.1199999996,
      "d": 530.3024999999907,
      "v": 88
    },
    {
      "midi": 59,
      "hit": false,
      "t": 273939.1199999996,
      "d": 542.9287499999627,
      "v": 85
    },
    {
      "midi": 43,
      "hit": false,
      "t": 273939.1199999996,
      "d": 580.8074999999371,
      "v": 72
    },
    {
      "midi": 31,
      "hit": false,
      "t": 274848.2099999995,
      "d": 486.11062500003027,
      "v": 88
    },
    {
      "midi": 55,
      "hit": false,
      "t": 275151.2399999995,
      "d": 151.51500000001397,
      "v": 102
    },
    {
      "midi": 59,
      "hit": false,
      "t": 275151.2399999995,
      "d": 214.6462499999907,
      "v": 107
    },
    {
      "midi": 67,
      "hit": false,
      "t": 275151.2399999995,
      "d": 214.6462499999907,
      "v": 94
    },
    {
      "midi": 66,
      "hit": false,
      "t": 275757.2999999995,
      "d": 94.69687500002328,
      "v": 86
    },
    {
      "midi": 55,
      "hit": false,
      "t": 276363.3599999995,
      "d": 1079.5443749999977,
      "v": 66
    },
    {
      "midi": 40,
      "hit": false,
      "t": 276363.3599999995,
      "d": 1098.483750000014,
      "v": 57
    },
    {
      "midi": 64,
      "hit": false,
      "t": 276363.3599999995,
      "d": 1155.3018750000047,
      "v": 76
    },
    {
      "midi": 59,
      "hit": false,
      "t": 276363.3599999995,
      "d": 1180.554375000007,
      "v": 80
    },
    {
      "midi": 52,
      "hit": false,
      "t": 276363.3599999995,
      "d": 1306.8168750000186,
      "v": 66
    },
    {
      "midi": 64,
      "hit": false,
      "t": 278787.5999999995,
      "d": 801.7668749999721,
      "v": 79
    },
    {
      "midi": 33,
      "hit": false,
      "t": 278787.5999999995,
      "d": 814.3931249999441,
      "v": 50
    },
    {
      "midi": 57,
      "hit": false,
      "t": 278787.5999999995,
      "d": 814.3931249999441,
      "v": 76
    },
    {
      "midi": 67,
      "hit": false,
      "t": 278787.5999999995,
      "d": 852.2718749999185,
      "v": 73
    },
    {
      "midi": 60,
      "hit": false,
      "t": 278787.5999999995,
      "d": 864.8981249998906,
      "v": 85
    },
    {
      "midi": 45,
      "hit": false,
      "t": 278787.5999999995,
      "d": 877.5243749998626,
      "v": 69
    },
    {
      "midi": 33,
      "hit": false,
      "t": 280605.7799999994,
      "d": 63.13124999997672,
      "v": 85
    },
    {
      "midi": 38,
      "hit": false,
      "t": 281211.8399999993,
      "d": 593.4337500000256,
      "v": 68
    },
    {
      "midi": 60,
      "hit": false,
      "t": 281211.8399999993,
      "d": 612.3731250000419,
      "v": 85
    },
    {
      "midi": 62,
      "hit": false,
      "t": 281211.8399999993,
      "d": 650.2518750000163,
      "v": 87
    },
    {
      "midi": 66,
      "hit": false,
      "t": 281211.8399999993,
      "d": 675.5043750000186,
      "v": 66
    },
    {
      "midi": 57,
      "hit": false,
      "t": 281211.8399999993,
      "d": 827.0193750000326,
      "v": 84
    },
    {
      "midi": 50,
      "hit": false,
      "t": 281211.8399999993,
      "d": 1275.2512500000303,
      "v": 56
    },
    {
      "midi": 55,
      "hit": false,
      "t": 283636.0799999994,
      "d": 138.8887499999837,
      "v": 43
    },
    {
      "midi": 59,
      "hit": false,
      "t": 283636.0799999994,
      "d": 157.828125,
      "v": 75
    },
    {
      "midi": 62,
      "hit": false,
      "t": 283636.0799999994,
      "d": 195.7068749999744,
      "v": 73
    },
    {
      "midi": 43,
      "hit": false,
      "t": 283636.0799999994,
      "d": 233.58562499994878,
      "v": 55
    },
    {
      "midi": 62,
      "hit": false,
      "t": 284545.16999999934,
      "d": 126.26250000001164,
      "v": 94
    },
    {
      "midi": 67,
      "hit": false,
      "t": 284848.1999999994,
      "d": 132.57562499999767,
      "v": 92
    },
    {
      "midi": 69,
      "hit": false,
      "t": 285454.25999999937,
      "d": 132.57562499999767,
      "v": 65
    },
    {
      "midi": 71,
      "hit": false,
      "t": 286060.31999999937,
      "d": 88.38374999997905,
      "v": 76
    },
    {
      "midi": 62,
      "hit": false,
      "t": 286060.31999999937,
      "d": 107.32312499999534,
      "v": 67
    },
    {
      "midi": 67,
      "hit": false,
      "t": 286060.31999999937,
      "d": 107.32312499999534,
      "v": 70
    },
    {
      "midi": 50,
      "hit": false,
      "t": 286060.31999999937,
      "d": 1464.6449999997858,
      "v": 39
    },
    {
      "midi": 38,
      "hit": false,
      "t": 286060.31999999937,
      "d": 1559.341874999809,
      "v": 29
    },
    {
      "midi": 62,
      "hit": false,
      "t": 286363.34999999934,
      "d": 56.81812499999069,
      "v": 47
    },
    {
      "midi": 71,
      "hit": false,
      "t": 286363.34999999934,
      "d": 88.38374999997905,
      "v": 70
    },
    {
      "midi": 67,
      "hit": false,
      "t": 286363.34999999934,
      "d": 94.69687499996508,
      "v": 67
    },
    {
      "midi": 71,
      "hit": false,
      "t": 286666.3799999993,
      "d": 94.69687500002328,
      "v": 107
    },
    {
      "midi": 62,
      "hit": false,
      "t": 286666.3799999993,
      "d": 101.01000000000931,
      "v": 79
    },
    {
      "midi": 67,
      "hit": false,
      "t": 286666.3799999993,
      "d": 107.32312499999534,
      "v": 96
    },
    {
      "midi": 62,
      "hit": false,
      "t": 286969.4099999993,
      "d": 113.63624999998137,
      "v": 87
    },
    {
      "midi": 67,
      "hit": false,
      "t": 286969.4099999993,
      "d": 119.9493749999674,
      "v": 97
    },
    {
      "midi": 71,
      "hit": false,
      "t": 286969.4099999993,
      "d": 132.57562499993946,
      "v": 116
    },
    {
      "midi": 62,
      "hit": false,
      "t": 287272.4399999992,
      "d": 157.828125,
      "v": 92
    },
    {
      "midi": 67,
      "hit": false,
      "t": 287272.4399999992,
      "d": 157.828125,
      "v": 102
    },
    {
      "midi": 71,
      "hit": false,
      "t": 287272.4399999992,
      "d": 170.45437499997206,
      "v": 109
    },
    {
      "midi": 69,
      "hit": false,
      "t": 287575.46999999916,
      "d": 138.8887500000419,
      "v": 107
    },
    {
      "midi": 67,
      "hit": false,
      "t": 287878.4999999992,
      "d": 391.413750000007,
      "v": 116
    },
    {
      "midi": 62,
      "hit": false,
      "t": 289393.6499999992,
      "d": 126.26250000001164,
      "v": 94
    },
    {
      "midi": 67,
      "hit": false,
      "t": 289696.67999999924,
      "d": 132.57562499999767,
      "v": 92
    },
    {
      "midi": 69,
      "hit": false,
      "t": 290302.73999999923,
      "d": 132.57562499999767,
      "v": 65
    },
    {
      "midi": 71,
      "hit": false,
      "t": 290908.79999999923,
      "d": 88.38374999997905,
      "v": 76
    },
    {
      "midi": 62,
      "hit": false,
      "t": 290908.79999999923,
      "d": 107.32312499999534,
      "v": 67
    },
    {
      "midi": 67,
      "hit": false,
      "t": 290908.79999999923,
      "d": 107.32312499999534,
      "v": 70
    },
    {
      "midi": 50,
      "hit": false,
      "t": 290908.79999999923,
      "d": 1464.6449999997858,
      "v": 39
    },
    {
      "midi": 38,
      "hit": false,
      "t": 290908.79999999923,
      "d": 1559.341874999809,
      "v": 29
    },
    {
      "midi": 62,
      "hit": false,
      "t": 291211.8299999992,
      "d": 56.81812499999069,
      "v": 47
    },
    {
      "midi": 71,
      "hit": false,
      "t": 291211.8299999992,
      "d": 88.38374999997905,
      "v": 70
    },
    {
      "midi": 67,
      "hit": false,
      "t": 291211.8299999992,
      "d": 94.69687499996508,
      "v": 67
    },
    {
      "midi": 71,
      "hit": false,
      "t": 291514.8599999992,
      "d": 94.69687500002328,
      "v": 107
    },
    {
      "midi": 62,
      "hit": false,
      "t": 291514.8599999992,
      "d": 101.01000000000931,
      "v": 79
    },
    {
      "midi": 67,
      "hit": false,
      "t": 291514.8599999992,
      "d": 107.32312499999534,
      "v": 96
    },
    {
      "midi": 62,
      "hit": false,
      "t": 291817.88999999914,
      "d": 113.63624999998137,
      "v": 87
    },
    {
      "midi": 67,
      "hit": false,
      "t": 291817.88999999914,
      "d": 119.9493749999674,
      "v": 97
    },
    {
      "midi": 71,
      "hit": false,
      "t": 291817.88999999914,
      "d": 132.57562499993946,
      "v": 116
    },
    {
      "midi": 62,
      "hit": false,
      "t": 292120.91999999905,
      "d": 157.828125,
      "v": 92
    },
    {
      "midi": 67,
      "hit": false,
      "t": 292120.91999999905,
      "d": 157.828125,
      "v": 102
    },
    {
      "midi": 71,
      "hit": false,
      "t": 292120.91999999905,
      "d": 170.45437499997206,
      "v": 109
    },
    {
      "midi": 69,
      "hit": false,
      "t": 292423.949999999,
      "d": 138.8887500000419,
      "v": 107
    },
    {
      "midi": 67,
      "hit": false,
      "t": 292726.97999999905,
      "d": 391.413750000007,
      "v": 116
    },
    {
      "midi": 62,
      "hit": false,
      "t": 294242.1299999991,
      "d": 126.26250000001164,
      "v": 94
    },
    {
      "midi": 67,
      "hit": false,
      "t": 294545.1599999991,
      "d": 132.57562499999767,
      "v": 92
    },
    {
      "midi": 69,
      "hit": false,
      "t": 295151.2199999991,
      "d": 132.57562499999767,
      "v": 65
    },
    {
      "midi": 71,
      "hit": false,
      "t": 295757.2799999991,
      "d": 88.38374999997905,
      "v": 76
    },
    {
      "midi": 62,
      "hit": false,
      "t": 295757.2799999991,
      "d": 107.32312499999534,
      "v": 67
    },
    {
      "midi": 67,
      "hit": false,
      "t": 295757.2799999991,
      "d": 107.32312499999534,
      "v": 70
    },
    {
      "midi": 50,
      "hit": false,
      "t": 295757.2799999991,
      "d": 1464.6449999997858,
      "v": 39
    },
    {
      "midi": 38,
      "hit": false,
      "t": 295757.2799999991,
      "d": 1559.341874999809,
      "v": 29
    },
    {
      "midi": 62,
      "hit": false,
      "t": 296060.30999999907,
      "d": 56.81812499999069,
      "v": 47
    },
    {
      "midi": 71,
      "hit": false,
      "t": 296060.30999999907,
      "d": 88.38374999997905,
      "v": 70
    },
    {
      "midi": 67,
      "hit": false,
      "t": 296060.30999999907,
      "d": 94.69687499996508,
      "v": 67
    },
    {
      "midi": 71,
      "hit": false,
      "t": 296363.33999999904,
      "d": 94.69687500002328,
      "v": 107
    },
    {
      "midi": 62,
      "hit": false,
      "t": 296363.33999999904,
      "d": 101.01000000000931,
      "v": 79
    },
    {
      "midi": 67,
      "hit": false,
      "t": 296363.33999999904,
      "d": 107.32312499999534,
      "v": 96
    },
    {
      "midi": 62,
      "hit": false,
      "t": 296666.369999999,
      "d": 113.63624999998137,
      "v": 87
    },
    {
      "midi": 67,
      "hit": false,
      "t": 296666.369999999,
      "d": 119.9493749999674,
      "v": 97
    },
    {
      "midi": 71,
      "hit": false,
      "t": 296666.369999999,
      "d": 132.57562499993946,
      "v": 116
    },
    {
      "midi": 62,
      "hit": false,
      "t": 296969.3999999989,
      "d": 157.828125,
      "v": 92
    },
    {
      "midi": 67,
      "hit": false,
      "t": 296969.3999999989,
      "d": 157.828125,
      "v": 102
    },
    {
      "midi": 71,
      "hit": false,
      "t": 296969.3999999989,
      "d": 170.45437499997206,
      "v": 109
    },
    {
      "midi": 71,
      "hit": false,
      "t": 297272.4299999989,
      "d": 138.8887500000419,
      "v": 107
    },
    {
      "midi": 69,
      "hit": false,
      "t": 297575.4599999989,
      "d": 391.413750000007,
      "v": 116
    },
    {
      "midi": 67,
      "hit": false,
      "t": 298181.5199999989,
      "d": 754.4184375000186,
      "v": 95
    },
    {
      "midi": 43,
      "hit": false,
      "t": 298181.5199999989,
      "d": 2421.0834374999977,
      "v": 101
    },
    {
      "midi": 55,
      "hit": false,
      "t": 298181.5199999989,
      "d": 2421.0834374999977,
      "v": 71
    },
    {
      "midi": 59,
      "hit": false,
      "t": 298181.5199999989,
      "d": 2421.0834374999977,
      "v": 73
    }
  ]
}