{
  "jsonPath": "Unknown/Unknown/Kellys/sa-lite-vi-vet.json",
  "path": "Unknown\\Unknown\\Kellys\\Så lite vi vet.mid",
  "name": "Så lite vi vet",
  "difficulty": "Advanced",
  "bpm": 116.00008506672904,
  "notes": [
    {
      "midi": 59,
      "hit": false,
      "t": 4140.621963541667,
      "d": 862.0683333333336,
      "v": 84
    },
    {
      "midi": 55,
      "hit": false,
      "t": 4140.621963541667,
      "d": 915.9476041666667,
      "v": 99
    },
    {
      "midi": 62,
      "hit": false,
      "t": 4143.315927083334,
      "d": 880.9260781250005,
      "v": 94
    },
    {
      "midi": 67,
      "hit": false,
      "t": 4143.315927083334,
      "d": 1031.7880364583334,
      "v": 99
    },
    {
      "midi": 59,
      "hit": false,
      "t": 5175.103963541667,
      "d": 759.6977187499997,
      "v": 91
    },
    {
      "midi": 62,
      "hit": false,
      "t": 5175.103963541667,
      "d": 867.4562604166667,
      "v": 91
    },
    {
      "midi": 55,
      "hit": false,
      "t": 5177.797927083334,
      "d": 864.7622968750002,
      "v": 89
    },
    {
      "midi": 65,
      "hit": false,
      "t": 5177.797927083334,
      "d": 880.9260781250005,
      "v": 94
    },
    {
      "midi": 60,
      "hit": false,
      "t": 6209.585963541667,
      "d": 883.620041666667,
      "v": 90
    },
    {
      "midi": 64,
      "hit": false,
      "t": 6209.585963541667,
      "d": 910.5596770833336,
      "v": 94
    },
    {
      "midi": 57,
      "hit": false,
      "t": 6209.585963541667,
      "d": 969.8268750000007,
      "v": 86
    },
    {
      "midi": 67,
      "hit": false,
      "t": 7244.067963541668,
      "d": 382.5428229166664,
      "v": 100
    },
    {
      "midi": 64,
      "hit": false,
      "t": 7244.067963541668,
      "d": 393.31867708333266,
      "v": 94
    },
    {
      "midi": 60,
      "hit": false,
      "t": 7244.067963541668,
      "d": 396.0126406249992,
      "v": 97
    },
    {
      "midi": 60,
      "hit": false,
      "t": 7761.308963541667,
      "d": 360.991114583333,
      "v": 86
    },
    {
      "midi": 62,
      "hit": false,
      "t": 7761.308963541667,
      "d": 360.991114583333,
      "v": 90
    },
    {
      "midi": 66,
      "hit": false,
      "t": 7761.308963541667,
      "d": 425.6462395833332,
      "v": 96
    },
    {
      "midi": 59,
      "hit": false,
      "t": 8278.549963541667,
      "d": 829.740770833334,
      "v": 90
    },
    {
      "midi": 62,
      "hit": false,
      "t": 8278.549963541667,
      "d": 1912.7141145833339,
      "v": 91
    },
    {
      "midi": 67,
      "hit": false,
      "t": 8278.549963541667,
      "d": 2704.7393958333323,
      "v": 97
    },
    {
      "midi": 55,
      "hit": false,
      "t": 8281.243927083335,
      "d": 1554.4169635416656,
      "v": 85
    },
    {
      "midi": 60,
      "hit": false,
      "t": 9313.031963541667,
      "d": 845.9045520833333,
      "v": 100
    },
    {
      "midi": 57,
      "hit": false,
      "t": 9830.272963541667,
      "d": 533.4047812499994,
      "v": 94
    },
    {
      "midi": 55,
      "hit": false,
      "t": 10347.513963541667,
      "d": 495.68929166666567,
      "v": 85
    },
    {
      "midi": 59,
      "hit": false,
      "t": 10347.513963541667,
      "d": 560.344416666665,
      "v": 87
    },
    {
      "midi": 62,
      "hit": false,
      "t": 10347.513963541667,
      "d": 584.590088541665,
      "v": 90
    },
    {
      "midi": 50,
      "hit": false,
      "t": 10864.754963541665,
      "d": 538.7927083333343,
      "v": 101
    },
    {
      "midi": 52,
      "hit": false,
      "t": 11381.995963541667,
      "d": 557.6504531249993,
      "v": 91
    },
    {
      "midi": 54,
      "hit": false,
      "t": 11899.236963541667,
      "d": 511.85307291666686,
      "v": 100
    },
    {
      "midi": 55,
      "hit": false,
      "t": 12419.171927083335,
      "d": 579.2021614583336,
      "v": 94
    },
    {
      "midi": 59,
      "hit": false,
      "t": 12419.171927083335,
      "d": 1500.5376927083344,
      "v": 83
    },
    {
      "midi": 67,
      "hit": false,
      "t": 12419.171927083335,
      "d": 1982.7571666666663,
      "v": 89
    },
    {
      "midi": 62,
      "hit": false,
      "t": 12419.171927083335,
      "d": 2050.106255208333,
      "v": 91
    },
    {
      "midi": 55,
      "hit": false,
      "t": 13195.033427083335,
      "d": 840.5166250000002,
      "v": 65
    },
    {
      "midi": 43,
      "hit": false,
      "t": 13453.653927083336,
      "d": 546.8745989583331,
      "v": 71
    },
    {
      "midi": 55,
      "hit": false,
      "t": 14356.131713541668,
      "d": 1756.464229166666,
      "v": 92
    },
    {
      "midi": 59,
      "hit": false,
      "t": 14488.135927083335,
      "d": 1371.227442708334,
      "v": 81
    },
    {
      "midi": 67,
      "hit": false,
      "t": 14744.062463541668,
      "d": 490.30136458333254,
      "v": 100
    },
    {
      "midi": 62,
      "hit": false,
      "t": 14744.062463541668,
      "d": 711.2063749999998,
      "v": 104
    },
    {
      "midi": 69,
      "hit": false,
      "t": 15263.997427083334,
      "d": 1193.4258489583335,
      "v": 96
    },
    {
      "midi": 65,
      "hit": false,
      "t": 15263.997427083334,
      "d": 1241.9171927083335,
      "v": 99
    },
    {
      "midi": 62,
      "hit": false,
      "t": 15778.544463541668,
      "d": 732.7580833333341,
      "v": 96
    },
    {
      "midi": 59,
      "hit": false,
      "t": 16039.858927083334,
      "d": 428.3402031249989,
      "v": 97
    },
    {
      "midi": 55,
      "hit": false,
      "t": 16295.785463541668,
      "d": 317.8876979166653,
      "v": 85
    },
    {
      "midi": 69,
      "hit": false,
      "t": 16557.099927083334,
      "d": 67.34908854166497,
      "v": 95
    },
    {
      "midi": 62,
      "hit": false,
      "t": 16557.099927083334,
      "d": 264.0084270833322,
      "v": 96
    },
    {
      "midi": 48,
      "hit": false,
      "t": 16557.099927083334,
      "d": 1969.2873489583326,
      "v": 89
    },
    {
      "midi": 67,
      "hit": false,
      "t": 16557.099927083334,
      "d": 2432.649078125003,
      "v": 90
    },
    {
      "midi": 60,
      "hit": false,
      "t": 16813.026463541668,
      "d": 1201.5077395833323,
      "v": 90
    },
    {
      "midi": 64,
      "hit": false,
      "t": 16813.026463541668,
      "d": 2149.7829062500023,
      "v": 91
    },
    {
      "midi": 52,
      "hit": false,
      "t": 17330.267463541666,
      "d": 1557.1109270833367,
      "v": 86
    },
    {
      "midi": 55,
      "hit": false,
      "t": 17591.581927083334,
      "d": 1204.2017031249998,
      "v": 83
    },
    {
      "midi": 60,
      "hit": false,
      "t": 18364.749463541666,
      "d": 533.404781250003,
      "v": 75
    },
    {
      "midi": 48,
      "hit": false,
      "t": 18881.990463541668,
      "d": 716.5943020833365,
      "v": 81
    },
    {
      "midi": 59,
      "hit": false,
      "t": 19401.925427083337,
      "d": 1505.9256197916657,
      "v": 100
    },
    {
      "midi": 62,
      "hit": false,
      "t": 19660.545927083338,
      "d": 1441.2704947916645,
      "v": 109
    },
    {
      "midi": 67,
      "hit": false,
      "t": 19787.162213541673,
      "d": 312.49977083333215,
      "v": 114
    },
    {
      "midi": 55,
      "hit": false,
      "t": 19916.47246354167,
      "d": 851.2924791666665,
      "v": 107
    },
    {
      "midi": 69,
      "hit": false,
      "t": 20175.092963541672,
      "d": 592.6719791666656,
      "v": 127
    },
    {
      "midi": 50,
      "hit": false,
      "t": 20695.027927083338,
      "d": 1241.9171927083335,
      "v": 91
    },
    {
      "midi": 67,
      "hit": false,
      "t": 20695.027927083338,
      "d": 1856.1408802083315,
      "v": 95
    },
    {
      "midi": 59,
      "hit": false,
      "t": 20950.954463541668,
      "d": 1314.654208333337,
      "v": 93
    },
    {
      "midi": 55,
      "hit": false,
      "t": 21209.57496354167,
      "d": 899.78382291667,
      "v": 91
    },
    {
      "midi": 62,
      "hit": false,
      "t": 21470.889427083337,
      "d": 934.8053489583326,
      "v": 90
    },
    {
      "midi": 55,
      "hit": false,
      "t": 22502.67746354167,
      "d": 2144.3949791666637,
      "v": 81
    },
    {
      "midi": 69,
      "hit": false,
      "t": 22763.991927083338,
      "d": 115.84043229166491,
      "v": 119
    },
    {
      "midi": 74,
      "hit": false,
      "t": 22763.991927083338,
      "d": 783.9433906249942,
      "v": 106
    },
    {
      "midi": 59,
      "hit": false,
      "t": 22763.991927083338,
      "d": 1726.8306302083292,
      "v": 70
    },
    {
      "midi": 71,
      "hit": false,
      "t": 22890.60821354167,
      "d": 396.0126406249983,
      "v": 100
    },
    {
      "midi": 69,
      "hit": false,
      "t": 23019.918463541668,
      "d": 258.6205000000009,
      "v": 127
    },
    {
      "midi": 67,
      "hit": false,
      "t": 23278.53896354167,
      "d": 1594.8264166666668,
      "v": 116
    },
    {
      "midi": 62,
      "hit": false,
      "t": 23537.159463541666,
      "d": 899.7838229166664,
      "v": 102
    },
    {
      "midi": 66,
      "hit": false,
      "t": 24832.955927083334,
      "d": 1322.7360989583321,
      "v": 99
    },
    {
      "midi": 50,
      "hit": false,
      "t": 24832.955927083334,
      "d": 2680.4937239583305,
      "v": 86
    },
    {
      "midi": 62,
      "hit": false,
      "t": 25088.882463541668,
      "d": 1018.3182187499988,
      "v": 99
    },
    {
      "midi": 54,
      "hit": false,
      "t": 25608.817427083333,
      "d": 1915.4080781249977,
      "v": 83
    },
    {
      "midi": 57,
      "hit": false,
      "t": 26123.364463541668,
      "d": 1530.171291666662,
      "v": 83
    },
    {
      "midi": 62,
      "hit": false,
      "t": 26640.605463541666,
      "d": 673.4908854166642,
      "v": 93
    },
    {
      "midi": 64,
      "hit": false,
      "t": 26769.915713541664,
      "d": 172.41366666666727,
      "v": 106
    },
    {
      "midi": 66,
      "hit": false,
      "t": 26901.91992708333,
      "d": 1080.2793802083288,
      "v": 123
    },
    {
      "midi": 74,
      "hit": false,
      "t": 27157.846463541664,
      "d": 684.2667395833305,
      "v": 111
    },
    {
      "midi": 50,
      "hit": false,
      "t": 27675.087463541662,
      "d": 910.5596770833326,
      "v": 95
    },
    {
      "midi": 54,
      "hit": false,
      "t": 27936.401927083327,
      "d": 519.9349635416656,
      "v": 84
    },
    {
      "midi": 57,
      "hit": false,
      "t": 28063.018213541658,
      "d": 398.7066041666694,
      "v": 84
    },
    {
      "midi": 64,
      "hit": false,
      "t": 28192.328463541657,
      "d": 285.560135416672,
      "v": 102
    },
    {
      "midi": 69,
      "hit": false,
      "t": 28192.328463541657,
      "d": 851.2924791666701,
      "v": 107
    },
    {
      "midi": 62,
      "hit": false,
      "t": 28453.642927083325,
      "d": 175.10763020833474,
      "v": 100
    },
    {
      "midi": 66,
      "hit": false,
      "t": 28453.642927083325,
      "d": 266.7023906249997,
      "v": 98
    },
    {
      "midi": 64,
      "hit": false,
      "t": 28709.56946354166,
      "d": 199.3533020833347,
      "v": 93
    },
    {
      "midi": 60,
      "hit": false,
      "t": 28709.56946354166,
      "d": 231.68086458333346,
      "v": 93
    },
    {
      "midi": 59,
      "hit": false,
      "t": 28970.883927083327,
      "d": 627.6935052083318,
      "v": 88
    },
    {
      "midi": 62,
      "hit": false,
      "t": 28970.883927083327,
      "d": 1346.9817708333321,
      "v": 96
    },
    {
      "midi": 55,
      "hit": false,
      "t": 28970.883927083327,
      "d": 1419.718786458332,
      "v": 93
    },
    {
      "midi": 59,
      "hit": false,
      "t": 29746.745427083326,
      "d": 406.7884947916682,
      "v": 96
    },
    {
      "midi": 50,
      "hit": false,
      "t": 30005.365927083327,
      "d": 595.3659427083294,
      "v": 85
    },
    {
      "midi": 59,
      "hit": false,
      "t": 30261.29246354166,
      "d": 743.533937499993,
      "v": 97
    },
    {
      "midi": 62,
      "hit": false,
      "t": 30519.912963541658,
      "d": 565.7323437499945,
      "v": 106
    },
    {
      "midi": 67,
      "hit": false,
      "t": 30778.533463541655,
      "d": 350.2152604166622,
      "v": 94
    },
    {
      "midi": 55,
      "hit": false,
      "t": 31039.84792708332,
      "d": 2147.088942708331,
      "v": 86
    },
    {
      "midi": 59,
      "hit": false,
      "t": 31166.46421354165,
      "d": 1147.628468750001,
      "v": 91
    },
    {
      "midi": 62,
      "hit": false,
      "t": 31295.77446354165,
      "d": 878.2321145833375,
      "v": 99
    },
    {
      "midi": 69,
      "hit": false,
      "t": 31557.088927083318,
      "d": 280.1722083333334,
      "v": 114
    },
    {
      "midi": 74,
      "hit": false,
      "t": 31557.088927083318,
      "d": 1635.235869791668,
      "v": 96
    },
    {
      "midi": 67,
      "hit": false,
      "t": 31813.01546354165,
      "d": 183.18952083333352,
      "v": 100
    },
    {
      "midi": 71,
      "hit": false,
      "t": 31813.01546354165,
      "d": 285.56013541666834,
      "v": 97
    },
    {
      "midi": 65,
      "hit": false,
      "t": 32074.32992708332,
      "d": 875.5381510416664,
      "v": 102
    },
    {
      "midi": 69,
      "hit": false,
      "t": 32074.32992708332,
      "d": 1047.9518177083337,
      "v": 104
    },
    {
      "midi": 59,
      "hit": false,
      "t": 32591.570927083318,
      "d": 487.6074010416705,
      "v": 83
    },
    {
      "midi": 64,
      "hit": false,
      "t": 33108.81192708332,
      "d": 638.469359374998,
      "v": 90
    },
    {
      "midi": 67,
      "hit": false,
      "t": 33108.81192708332,
      "d": 681.572776041663,
      "v": 90
    },
    {
      "midi": 60,
      "hit": false,
      "t": 33108.81192708332,
      "d": 929.4174218749904,
      "v": 81
    },
    {
      "midi": 67,
      "hit": false,
      "t": 33881.97946354165,
      "d": 1317.34817187499,
      "v": 107
    },
    {
      "midi": 62,
      "hit": false,
      "t": 33884.67342708331,
      "d": 503.7711822916608,
      "v": 97
    },
    {
      "midi": 48,
      "hit": false,
      "t": 34143.29392708331,
      "d": 1678.3392864583366,
      "v": 85
    },
    {
      "midi": 64,
      "hit": false,
      "t": 34399.22046354164,
      "d": 818.9649166666641,
      "v": 93
    },
    {
      "midi": 52,
      "hit": false,
      "t": 34657.84096354164,
      "d": 1182.6499947916745,
      "v": 83
    },
    {
      "midi": 55,
      "hit": false,
      "t": 34916.46146354164,
      "d": 1077.5854166666759,
      "v": 92
    },
    {
      "midi": 60,
      "hit": false,
      "t": 35177.775927083305,
      "d": 611.5297239583379,
      "v": 81
    },
    {
      "midi": 62,
      "hit": false,
      "t": 35433.70246354164,
      "d": 153.55592187500588,
      "v": 97
    },
    {
      "midi": 64,
      "hit": false,
      "t": 35563.01271354164,
      "d": 700.430520833339,
      "v": 94
    },
    {
      "midi": 72,
      "hit": false,
      "t": 35692.32296354164,
      "d": 474.1375833333368,
      "v": 93
    },
    {
      "midi": 48,
      "hit": false,
      "t": 35950.94346354165,
      "d": 1023.7061458333264,
      "v": 86
    },
    {
      "midi": 52,
      "hit": false,
      "t": 36212.257927083316,
      "d": 549.5685624999969,
      "v": 90
    },
    {
      "midi": 55,
      "hit": false,
      "t": 36468.18446354165,
      "d": 328.6635520833297,
      "v": 97
    },
    {
      "midi": 62,
      "hit": false,
      "t": 36726.80496354165,
      "d": 285.5601354166647,
      "v": 93
    },
    {
      "midi": 59,
      "hit": false,
      "t": 36729.49892708331,
      "d": 207.4351927083335,
      "v": 99
    },
    {
      "midi": 60,
      "hit": false,
      "t": 36985.425463541644,
      "d": 199.3533020833347,
      "v": 90
    },
    {
      "midi": 57,
      "hit": false,
      "t": 36985.425463541644,
      "d": 204.74122916666965,
      "v": 88
    },
    {
      "midi": 55,
      "hit": false,
      "t": 37246.73992708331,
      "d": 385.2367864583357,
      "v": 97
    },
    {
      "midi": 59,
      "hit": false,
      "t": 37246.73992708331,
      "d": 530.7108177083355,
      "v": 96
    },
    {
      "midi": 43,
      "hit": false,
      "t": 37502.666463541645,
      "d": 1147.6284687499938,
      "v": 93
    },
    {
      "midi": 50,
      "hit": false,
      "t": 37761.28696354165,
      "d": 1142.2405416666588,
      "v": 93
    },
    {
      "midi": 55,
      "hit": false,
      "t": 38022.60142708331,
      "d": 412.17642187499587,
      "v": 97
    },
    {
      "midi": 59,
      "hit": false,
      "t": 38281.22192708331,
      "d": 654.6331406250029,
      "v": 100
    },
    {
      "midi": 62,
      "hit": false,
      "t": 38407.83821354164,
      "d": 765.0856458333365,
      "v": 98
    },
    {
      "midi": 67,
      "hit": false,
      "t": 38537.14846354164,
      "d": 748.9218645833389,
      "v": 104
    },
    {
      "midi": 59,
      "hit": false,
      "t": 39054.38946354164,
      "d": 123.92232291666733,
      "v": 83
    },
    {
      "midi": 60,
      "hit": false,
      "t": 39315.70392708331,
      "d": 649.2452135416679,
      "v": 104
    },
    {
      "midi": 64,
      "hit": false,
      "t": 39315.70392708331,
      "d": 945.5812031250025,
      "v": 91
    },
    {
      "midi": 69,
      "hit": false,
      "t": 39315.70392708331,
      "d": 967.132911458335,
      "v": 96
    },
    {
      "midi": 45,
      "hit": false,
      "t": 39315.70392708331,
      "d": 1091.055234374995,
      "v": 90
    },
    {
      "midi": 60,
      "hit": false,
      "t": 40088.87146354165,
      "d": 210.12915624999732,
      "v": 97
    },
    {
      "midi": 60,
      "hit": false,
      "t": 40350.18592708331,
      "d": 417.5643489583308,
      "v": 94
    },
    {
      "midi": 50,
      "hit": false,
      "t": 40350.18592708331,
      "d": 573.8142343750005,
      "v": 90
    },
    {
      "midi": 62,
      "hit": false,
      "t": 40350.18592708331,
      "d": 907.8657135416724,
      "v": 97
    },
    {
      "midi": 69,
      "hit": false,
      "t": 40350.18592708331,
      "d": 918.6415677083423,
      "v": 90
    },
    {
      "midi": 66,
      "hit": false,
      "t": 40350.18592708331,
      "d": 924.0294947916773,
      "v": 86
    },
    {
      "midi": 60,
      "hit": false,
      "t": 40864.73296354164,
      "d": 339.43940625000687,
      "v": 79
    },
    {
      "midi": 54,
      "hit": false,
      "t": 41123.35346354164,
      "d": 242.45671875000698,
      "v": 78
    },
    {
      "midi": 55,
      "hit": false,
      "t": 41384.66792708332,
      "d": 638.469359374998,
      "v": 95
    },
    {
      "midi": 59,
      "hit": false,
      "t": 41384.66792708332,
      "d": 660.0210677083305,
      "v": 95
    },
    {
      "midi": 62,
      "hit": false,
      "t": 41384.66792708332,
      "d": 886.3140052083327,
      "v": 100
    },
    {
      "midi": 67,
      "hit": false,
      "t": 41384.66792708332,
      "d": 961.7449843750001,
      "v": 93
    },
    {
      "midi": 55,
      "hit": false,
      "t": 42160.52942708332,
      "d": 277.4782447916732,
      "v": 85
    },
    {
      "midi": 50,
      "hit": false,
      "t": 42419.14992708332,
      "d": 670.7969218750004,
      "v": 82
    },
    {
      "midi": 67,
      "hit": false,
      "t": 42675.076463541656,
      "d": 70.04305208333244,
      "v": 107
    },
    {
      "midi": 69,
      "hit": false,
      "t": 42675.076463541656,
      "d": 781.249427083334,
      "v": 127
    },
    {
      "midi": 74,
      "hit": false,
      "t": 42675.076463541656,
      "d": 889.0079687500038,
      "v": 111
    },
    {
      "midi": 50,
      "hit": false,
      "t": 43192.31746354166,
      "d": 290.94806249999965,
      "v": 86
    },
    {
      "midi": 55,
      "hit": false,
      "t": 43453.63192708333,
      "d": 573.8142343750005,
      "v": 101
    },
    {
      "midi": 67,
      "hit": false,
      "t": 43453.63192708333,
      "d": 794.7192447916677,
      "v": 107
    },
    {
      "midi": 71,
      "hit": false,
      "t": 43453.63192708333,
      "d": 794.7192447916677,
      "v": 97
    },
    {
      "midi": 55,
      "hit": false,
      "t": 44226.79946354166,
      "d": 237.06879166666477,
      "v": 95
    },
    {
      "midi": 50,
      "hit": false,
      "t": 44488.11392708333,
      "d": 1074.8914531250048,
      "v": 92
    },
    {
      "midi": 62,
      "hit": false,
      "t": 44488.11392708333,
      "d": 1355.0636614583345,
      "v": 102
    },
    {
      "midi": 55,
      "hit": false,
      "t": 45522.595927083334,
      "d": 541.4866718749981,
      "v": 97
    },
    {
      "midi": 71,
      "hit": false,
      "t": 45522.595927083334,
      "d": 643.857286458333,
      "v": 97
    },
    {
      "midi": 67,
      "hit": false,
      "t": 45522.595927083334,
      "d": 676.1848489583354,
      "v": 98
    },
    {
      "midi": 71,
      "hit": false,
      "t": 46298.45742708333,
      "d": 121.22835937500349,
      "v": 95
    },
    {
      "midi": 67,
      "hit": false,
      "t": 46298.45742708333,
      "d": 153.55592187500588,
      "v": 96
    },
    {
      "midi": 74,
      "hit": false,
      "t": 46298.45742708333,
      "d": 153.55592187500588,
      "v": 100
    },
    {
      "midi": 55,
      "hit": false,
      "t": 46298.45742708333,
      "d": 264.0084270833395,
      "v": 81
    },
    {
      "midi": 50,
      "hit": false,
      "t": 46557.07792708334,
      "d": 579.2021614583355,
      "v": 89
    },
    {
      "midi": 74,
      "hit": false,
      "t": 46557.07792708334,
      "d": 713.9003385416654,
      "v": 98
    },
    {
      "midi": 71,
      "hit": false,
      "t": 46557.07792708334,
      "d": 778.5554635416702,
      "v": 101
    },
    {
      "midi": 66,
      "hit": false,
      "t": 46557.07792708334,
      "d": 832.4347343750051,
      "v": 110
    },
    {
      "midi": 50,
      "hit": false,
      "t": 47330.24546354167,
      "d": 210.1291562500046,
      "v": 85
    },
    {
      "midi": 55,
      "hit": false,
      "t": 47591.55992708334,
      "d": 657.3271041666667,
      "v": 97
    },
    {
      "midi": 55,
      "hit": false,
      "t": 48364.727463541676,
      "d": 1371.227442708332,
      "v": 85
    },
    {
      "midi": 62,
      "hit": false,
      "t": 48626.041927083344,
      "d": 977.9087656249976,
      "v": 109
    },
    {
      "midi": 65,
      "hit": false,
      "t": 48752.658213541676,
      "d": 738.146010416669,
      "v": 106
    },
    {
      "midi": 71,
      "hit": false,
      "t": 48881.96846354168,
      "d": 835.1286979166616,
      "v": 102
    },
    {
      "midi": 69,
      "hit": false,
      "t": 49143.282927083346,
      "d": 568.4263072916583,
      "v": 95
    },
    {
      "midi": 67,
      "hit": false,
      "t": 49399.20946354168,
      "d": 581.896124999992,
      "v": 92
    },
    {
      "midi": 60,
      "hit": false,
      "t": 49660.52392708334,
      "d": 530.7108177083282,
      "v": 91
    },
    {
      "midi": 64,
      "hit": false,
      "t": 49660.52392708334,
      "d": 546.8745989583258,
      "v": 86
    },
    {
      "midi": 48,
      "hit": false,
      "t": 49660.52392708334,
      "d": 1586.7445260416644,
      "v": 89
    },
    {
      "midi": 52,
      "hit": false,
      "t": 49916.450463541674,
      "d": 1320.042135416661,
      "v": 87
    },
    {
      "midi": 55,
      "hit": false,
      "t": 50175.07096354167,
      "d": 1115.3009062499987,
      "v": 87
    },
    {
      "midi": 60,
      "hit": false,
      "t": 50436.38542708333,
      "d": 212.82311979166843,
      "v": 84
    },
    {
      "midi": 62,
      "hit": false,
      "t": 50436.38542708333,
      "d": 299.0299531250057,
      "v": 99
    },
    {
      "midi": 67,
      "hit": false,
      "t": 50436.38542708333,
      "d": 1109.912979166671,
      "v": 93
    },
    {
      "midi": 60,
      "hit": false,
      "t": 50695.00592708334,
      "d": 444.50398437499825,
      "v": 92
    },
    {
      "midi": 64,
      "hit": false,
      "t": 50695.00592708334,
      "d": 843.2105885416677,
      "v": 90
    },
    {
      "midi": 60,
      "hit": false,
      "t": 51209.55296354167,
      "d": 1330.817989583331,
      "v": 83
    },
    {
      "midi": 48,
      "hit": false,
      "t": 51470.867427083336,
      "d": 2023.1666197916638,
      "v": 86
    },
    {
      "midi": 69,
      "hit": false,
      "t": 51729.48792708333,
      "d": 503.7711822916681,
      "v": 101
    },
    {
      "midi": 64,
      "hit": false,
      "t": 51729.48792708333,
      "d": 994.0725468749952,
      "v": 91
    },
    {
      "midi": 52,
      "hit": false,
      "t": 51729.48792708333,
      "d": 1759.1581927083316,
      "v": 77
    },
    {
      "midi": 67,
      "hit": false,
      "t": 51985.41446354167,
      "d": 2917.5625156250026,
      "v": 96
    },
    {
      "midi": 55,
      "hit": false,
      "t": 52505.34942708333,
      "d": 1285.020609375002,
      "v": 102
    },
    {
      "midi": 62,
      "hit": false,
      "t": 52763.96992708333,
      "d": 455.27983854166814,
      "v": 107
    },
    {
      "midi": 66,
      "hit": false,
      "t": 52763.96992708333,
      "d": 568.4263072916656,
      "v": 100
    },
    {
      "midi": 64,
      "hit": false,
      "t": 53281.21092708333,
      "d": 390.62471354167064,
      "v": 96
    },
    {
      "midi": 60,
      "hit": false,
      "t": 53281.21092708333,
      "d": 398.7066041666694,
      "v": 101
    },
    {
      "midi": 59,
      "hit": false,
      "t": 53798.45192708333,
      "d": 622.3055781250005,
      "v": 90
    },
    {
      "midi": 62,
      "hit": false,
      "t": 53798.45192708333,
      "d": 967.132911458335,
      "v": 89
    },
    {
      "midi": 50,
      "hit": false,
      "t": 53798.45192708333,
      "d": 1602.9083072916692,
      "v": 88
    },
    {
      "midi": 55,
      "hit": false,
      "t": 54312.998963541664,
      "d": 1142.2405416666734,
      "v": 86
    },
    {
      "midi": 59,
      "hit": false,
      "t": 54574.31342708333,
      "d": 1279.6326822916744,
      "v": 100
    },
    {
      "midi": 62,
      "hit": false,
      "t": 54832.93392708334,
      "d": 1047.9518177083373,
      "v": 96
    },
    {
      "midi": 67,
      "hit": false,
      "t": 55088.86046354167,
      "d": 624.9995416666716,
      "v": 107
    },
    {
      "midi": 50,
      "hit": false,
      "t": 55606.10146354167,
      "d": 96.98268749999988,
      "v": 77
    },
    {
      "midi": 55,
      "hit": false,
      "t": 55606.10146354167,
      "d": 253.2325729166696,
      "v": 63
    },
    {
      "midi": 57,
      "hit": false,
      "t": 55867.41592708334,
      "d": 1080.2793802083397,
      "v": 97
    },
    {
      "midi": 59,
      "hit": false,
      "t": 56381.96296354167,
      "d": 153.55592187500588,
      "v": 119
    },
    {
      "midi": 60,
      "hit": false,
      "t": 56511.27321354167,
      "d": 285.560135416672,
      "v": 111
    },
    {
      "midi": 67,
      "hit": false,
      "t": 56640.583463541676,
      "d": 312.4997708333394,
      "v": 123
    },
    {
      "midi": 66,
      "hit": false,
      "t": 56901.897927083344,
      "d": 487.6074010416705,
      "v": 110
    },
    {
      "midi": 50,
      "hit": false,
      "t": 56901.897927083344,
      "d": 1010.2363281250073,
      "v": 96
    },
    {
      "midi": 54,
      "hit": false,
      "t": 57157.824463541685,
      "d": 767.7796093750003,
      "v": 83
    },
    {
      "midi": 57,
      "hit": false,
      "t": 57416.44496354168,
      "d": 290.94806249999965,
      "v": 93
    },
    {
      "midi": 64,
      "hit": false,
      "t": 57419.138927083346,
      "d": 299.0299531250057,
      "v": 101
    },
    {
      "midi": 69,
      "hit": false,
      "t": 57419.138927083346,
      "d": 439.1160572916706,
      "v": 100
    },
    {
      "midi": 66,
      "hit": false,
      "t": 57675.06546354168,
      "d": 258.62050000000454,
      "v": 100
    },
    {
      "midi": 62,
      "hit": false,
      "t": 57675.06546354168,
      "d": 490.30136458333436,
      "v": 98
    },
    {
      "midi": 67,
      "hit": false,
      "t": 57936.37992708335,
      "d": 627.6935052083281,
      "v": 101
    },
    {
      "midi": 71,
      "hit": false,
      "t": 57936.37992708335,
      "d": 641.1633229166619,
      "v": 100
    },
    {
      "midi": 55,
      "hit": false,
      "t": 57939.07389062501,
      "d": 2.693963541663834,
      "v": 100
    },
    {
      "midi": 59,
      "hit": false,
      "t": 58062.99621354168,
      "d": 754.3097916666593,
      "v": 88
    },
    {
      "midi": 62,
      "hit": false,
      "t": 58192.30646354168,
      "d": 587.284052083327,
      "v": 92
    },
    {
      "midi": 74,
      "hit": false,
      "t": 58450.92696354168,
      "d": 581.896124999992,
      "v": 99
    },
    {
      "midi": 69,
      "hit": false,
      "t": 58453.62092708334,
      "d": 137.39214062499377,
      "v": 99
    },
    {
      "midi": 71,
      "hit": false,
      "t": 58580.23721354167,
      "d": 8.081890624998778,
      "v": 86
    },
    {
      "midi": 69,
      "hit": false,
      "t": 58712.24142708334,
      "d": 161.63781249999738,
      "v": 100
    },
    {
      "midi": 67,
      "hit": false,
      "t": 58838.85771354167,
      "d": 129.31025000000227,
      "v": 81
    },
    {
      "midi": 60,
      "hit": false,
      "t": 58970.86192708334,
      "d": 1061.4216354166638,
      "v": 101
    },
    {
      "midi": 72,
      "hit": false,
      "t": 58970.86192708334,
      "d": 1069.5035260416626,
      "v": 95
    },
    {
      "midi": 64,
      "hit": false,
      "t": 59226.78846354167,
      "d": 810.8830260416653,
      "v": 87
    },
    {
      "midi": 67,
      "hit": false,
      "t": 59485.40896354167,
      "d": 528.0168541666644,
      "v": 101
    },
    {
      "midi": 71,
      "hit": false,
      "t": 60005.34392708333,
      "d": 1554.4169635416692,
      "v": 91
    },
    {
      "midi": 55,
      "hit": false,
      "t": 60005.34392708333,
      "d": 1694.5030677083341,
      "v": 95
    },
    {
      "midi": 59,
      "hit": false,
      "t": 60261.27046354167,
      "d": 1360.4515885416695,
      "v": 83
    },
    {
      "midi": 62,
      "hit": false,
      "t": 60522.584927083335,
      "d": 1096.4431614583373,
      "v": 86
    },
    {
      "midi": 69,
      "hit": false,
      "t": 61554.37296354167,
      "d": 549.5685624999969,
      "v": 127
    },
    {
      "midi": 74,
      "hit": false,
      "t": 61554.37296354167,
      "d": 915.947604166664,
      "v": 107
    },
    {
      "midi": 71,
      "hit": false,
      "t": 62074.30792708333,
      "d": 1457.434276041662,
      "v": 90
    },
    {
      "midi": 67,
      "hit": false,
      "t": 62074.30792708333,
      "d": 1530.1712916666656,
      "v": 94
    },
    {
      "midi": 55,
      "hit": false,
      "t": 62074.30792708333,
      "d": 2233.2957760416684,
      "v": 89
    },
    {
      "midi": 62,
      "hit": false,
      "t": 62588.854963541664,
      "d": 711.2063750000016,
      "v": 80
    },
    {
      "midi": 59,
      "hit": false,
      "t": 63364.71646354166,
      "d": 1069.5035260416698,
      "v": 82
    },
    {
      "midi": 62,
      "hit": false,
      "t": 63623.33696354167,
      "d": 581.8961249999993,
      "v": 91
    },
    {
      "midi": 55,
      "hit": false,
      "t": 64399.19846354167,
      "d": 1476.2920208333308,
      "v": 100
    },
    {
      "midi": 59,
      "hit": false,
      "t": 64657.818963541664,
      "d": 1196.1198124999937,
      "v": 78
    },
    {
      "midi": 65,
      "hit": false,
      "t": 64919.13342708333,
      "d": 611.5297239583306,
      "v": 106
    },
    {
      "midi": 62,
      "hit": false,
      "t": 64919.13342708333,
      "d": 670.7969218749931,
      "v": 101
    },
    {
      "midi": 69,
      "hit": false,
      "t": 64919.13342708333,
      "d": 2028.5545468750206,
      "v": 107
    },
    {
      "midi": 64,
      "hit": false,
      "t": 65562.99071354166,
      "d": 339.43940625000687,
      "v": 93
    },
    {
      "midi": 67,
      "hit": false,
      "t": 65562.99071354166,
      "d": 409.48245833335386,
      "v": 98
    },
    {
      "midi": 62,
      "hit": false,
      "t": 65950.92146354167,
      "d": 215.51708333333954,
      "v": 98
    },
    {
      "midi": 65,
      "hit": false,
      "t": 65950.92146354167,
      "d": 226.29293750000943,
      "v": 97
    },
    {
      "midi": 60,
      "hit": false,
      "t": 66212.23592708335,
      "d": 665.4089947916655,
      "v": 96
    },
    {
      "midi": 64,
      "hit": false,
      "t": 66212.23592708335,
      "d": 740.8399739583256,
      "v": 96
    },
    {
      "midi": 48,
      "hit": false,
      "t": 66212.23592708335,
      "d": 1818.4253906249942,
      "v": 92
    },
    {
      "midi": 52,
      "hit": false,
      "t": 66726.78296354169,
      "d": 1244.611156250001,
      "v": 81
    },
    {
      "midi": 55,
      "hit": false,
      "t": 66988.09742708335,
      "d": 929.4174218749977,
      "v": 89
    },
    {
      "midi": 60,
      "hit": false,
      "t": 67246.71792708336,
      "d": 299.02995312499115,
      "v": 78
    },
    {
      "midi": 62,
      "hit": false,
      "t": 67502.64446354168,
      "d": 142.78006770832872,
      "v": 104
    },
    {
      "midi": 67,
      "hit": false,
      "t": 67502.64446354168,
      "d": 1651.3996510416619,
      "v": 107
    },
    {
      "midi": 64,
      "hit": false,
      "t": 67631.95471354168,
      "d": 878.2321145833266,
      "v": 91
    },
    {
      "midi": 62,
      "hit": false,
      "t": 67763.95892708335,
      "d": 239.7627552083286,
      "v": 93
    },
    {
      "midi": 60,
      "hit": false,
      "t": 68019.88546354168,
      "d": 474.13758333332953,
      "v": 92
    },
    {
      "midi": 59,
      "hit": false,
      "t": 68537.12646354167,
      "d": 447.1979479166621,
      "v": 90
    },
    {
      "midi": 62,
      "hit": false,
      "t": 68537.12646354167,
      "d": 552.262526041668,
      "v": 81
    },
    {
      "midi": 55,
      "hit": false,
      "t": 69054.36746354167,
      "d": 1056.033708333358,
      "v": 85
    },
    {
      "midi": 59,
      "hit": false,
      "t": 69183.67771354168,
      "d": 1018.318218750006,
      "v": 97
    },
    {
      "midi": 62,
      "hit": false,
      "t": 69315.68192708335,
      "d": 853.9864427083376,
      "v": 99
    },
    {
      "midi": 69,
      "hit": false,
      "t": 69442.29821354168,
      "d": 140.08610416666488,
      "v": 116
    },
    {
      "midi": 71,
      "hit": false,
      "t": 69571.60846354168,
      "d": 867.4562604166713,
      "v": 106
    },
    {
      "midi": 79,
      "hit": false,
      "t": 69700.91871354169,
      "d": 676.1848489583354,
      "v": 102
    },
    {
      "midi": 55,
      "hit": false,
      "t": 70350.16392708335,
      "d": 1338.8998802083224,
      "v": 86
    },
    {
      "midi": 59,
      "hit": false,
      "t": 70606.09046354168,
      "d": 1128.770723958325,
      "v": 86
    },
    {
      "midi": 62,
      "hit": false,
      "t": 70864.71096354169,
      "d": 802.801135416652,
      "v": 81
    },
    {
      "midi": 69,
      "hit": false,
      "t": 71123.33146354169,
      "d": 258.62049999999,
      "v": 97
    },
    {
      "midi": 74,
      "hit": false,
      "t": 71126.02542708335,
      "d": 1034.481999999989,
      "v": 94
    },
    {
      "midi": 71,
      "hit": false,
      "t": 71384.64592708334,
      "d": 740.8399739583256,
      "v": 86
    },
    {
      "midi": 67,
      "hit": false,
      "t": 71384.64592708334,
      "d": 751.6158281249955,
      "v": 90
    },
    {
      "midi": 55,
      "hit": false,
      "t": 72157.81346354168,
      "d": 1368.5334791666537,
      "v": 87
    },
    {
      "midi": 59,
      "hit": false,
      "t": 72287.12371354167,
      "d": 487.60740104166325,
      "v": 77
    },
    {
      "midi": 64,
      "hit": false,
      "t": 72419.12792708335,
      "d": 255.92653645832615,
      "v": 92
    },
    {
      "midi": 62,
      "hit": false,
      "t": 72419.12792708335,
      "d": 315.1937343749887,
      "v": 96
    },
    {
      "midi": 72,
      "hit": false,
      "t": 72419.12792708335,
      "d": 352.90922395832604,
      "v": 97
    },
    {
      "midi": 62,
      "hit": false,
      "t": 72804.36471354167,
      "d": 538.7927083333343,
      "v": 91
    },
    {
      "midi": 71,
      "hit": false,
      "t": 72804.36471354167,
      "d": 635.7753958333342,
      "v": 86
    },
    {
      "midi": 59,
      "hit": false,
      "t": 73453.60992708334,
      "d": 1010.236328125,
      "v": 96
    },
    {
      "midi": 67,
      "hit": false,
      "t": 73453.60992708334,
      "d": 1117.9948697916843,
      "v": 92
    },
    {
      "midi": 62,
      "hit": false,
      "t": 73838.84671354167,
      "d": 684.2667395833414,
      "v": 90
    },
    {
      "midi": 50,
      "hit": false,
      "t": 74488.09192708334,
      "d": 3871.225609375004,
      "v": 77
    },
    {
      "midi": 54,
      "hit": false,
      "t": 74614.70821354169,
      "d": 2397.6275520833296,
      "v": 86
    },
    {
      "midi": 57,
      "hit": false,
      "t": 74744.01846354168,
      "d": 2311.4207187499997,
      "v": 90
    },
    {
      "midi": 62,
      "hit": false,
      "t": 74873.32871354168,
      "d": 150.86195833333477,
      "v": 91
    },
    {
      "midi": 64,
      "hit": false,
      "t": 75002.63896354167,
      "d": 183.18952083334443,
      "v": 97
    },
    {
      "midi": 66,
      "hit": false,
      "t": 75131.94921354168,
      "d": 210.12915624999732,
      "v": 104
    },
    {
      "midi": 69,
      "hit": false,
      "t": 75390.56971354168,
      "d": 767.779609374993,
      "v": 109
    },
    {
      "midi": 66,
      "hit": false,
      "t": 76166.43121354168,
      "d": 668.1029583333293,
      "v": 119
    },
    {
      "midi": 76,
      "hit": false,
      "t": 76295.74146354168,
      "d": 808.1890624999942,
      "v": 97
    },
    {
      "midi": 74,
      "hit": false,
      "t": 76557.05592708335,
      "d": 643.8572864583257,
      "v": 98
    },
    {
      "midi": 69,
      "hit": false,
      "t": 76812.98246354167,
      "d": 414.870385416667,
      "v": 102
    },
    {
      "midi": 66,
      "hit": false,
      "t": 77074.29692708334,
      "d": 307.1118437499972,
      "v": 104
    },
    {
      "midi": 54,
      "hit": false,
      "t": 77330.22346354167,
      "d": 786.6373541666835,
      "v": 90
    },
    {
      "midi": 57,
      "hit": false,
      "t": 77459.53371354168,
      "d": 684.2667395833414,
      "v": 95
    },
    {
      "midi": 62,
      "hit": false,
      "t": 77591.53792708335,
      "d": 309.80580729166104,
      "v": 93
    },
    {
      "midi": 64,
      "hit": false,
      "t": 77847.46446354168,
      "d": 301.72391666666954,
      "v": 95
    },
    {
      "midi": 69,
      "hit": false,
      "t": 77847.46446354168,
      "d": 1341.5938437499863,
      "v": 107
    },
    {
      "midi": 62,
      "hit": false,
      "t": 78108.77892708335,
      "d": 164.3317760416685,
      "v": 97
    },
    {
      "midi": 66,
      "hit": false,
      "t": 78108.77892708335,
      "d": 299.02995312499115,
      "v": 98
    },
    {
      "midi": 64,
      "hit": false,
      "t": 78364.70546354167,
      "d": 183.18952083332988,
      "v": 93
    },
    {
      "midi": 60,
      "hit": false,
      "t": 78364.70546354167,
      "d": 196.6593385416636,
      "v": 96
    },
    {
      "midi": 59,
      "hit": false,
      "t": 78626.01992708334,
      "d": 514.5470364583307,
      "v": 98
    },
    {
      "midi": 62,
      "hit": false,
      "t": 78626.01992708334,
      "d": 514.5470364583307,
      "v": 97
    },
    {
      "midi": 67,
      "hit": false,
      "t": 79143.26092708333,
      "d": 762.3916822916653,
      "v": 95
    },
    {
      "midi": 55,
      "hit": false,
      "t": 79143.26092708333,
      "d": 1678.3392864583293,
      "v": 90
    },
    {
      "midi": 59,
      "hit": false,
      "t": 79401.88142708332,
      "d": 1511.3135468750115,
      "v": 89
    },
    {
      "midi": 62,
      "hit": false,
      "t": 79660.50192708333,
      "d": 1252.693046875007,
      "v": 88
    },
    {
      "midi": 69,
      "hit": false,
      "t": 79916.42846354167,
      "d": 554.9564895833319,
      "v": 123
    },
    {
      "midi": 74,
      "hit": false,
      "t": 79916.42846354167,
      "d": 1379.3093333333236,
      "v": 106
    },
    {
      "midi": 71,
      "hit": false,
      "t": 80433.66946354166,
      "d": 845.9045520833315,
      "v": 101
    },
    {
      "midi": 67,
      "hit": false,
      "t": 80436.36342708333,
      "d": 818.9649166666641,
      "v": 109
    },
    {
      "midi": 55,
      "hit": false,
      "t": 81209.53096354166,
      "d": 1201.507739583336,
      "v": 91
    },
    {
      "midi": 59,
      "hit": false,
      "t": 81338.84121354166,
      "d": 1047.9518177083373,
      "v": 90
    },
    {
      "midi": 62,
      "hit": false,
      "t": 81468.15146354165,
      "d": 894.3958958333387,
      "v": 101
    },
    {
      "midi": 71,
      "hit": false,
      "t": 81597.46171354165,
      "d": 1465.5161666666681,
      "v": 95
    },
    {
      "midi": 81,
      "hit": false,
      "t": 81729.46592708332,
      "d": 277.47824479166593,
      "v": 104
    },
    {
      "midi": 79,
      "hit": false,
      "t": 81985.39246354165,
      "d": 1066.8095625000133,
      "v": 97
    },
    {
      "midi": 77,
      "hit": false,
      "t": 82244.01296354165,
      "d": 802.8011354166811,
      "v": 106
    },
    {
      "midi": 74,
      "hit": false,
      "t": 82502.63346354167,
      "d": 554.9564895833173,
      "v": 93
    },
    {
      "midi": 48,
      "hit": false,
      "t": 82763.94792708334,
      "d": 972.5208385416481,
      "v": 86
    },
    {
      "midi": 52,
      "hit": false,
      "t": 83019.87446354167,
      "d": 678.8788124999846,
      "v": 82
    },
    {
      "midi": 55,
      "hit": false,
      "t": 83278.49496354166,
      "d": 538.7927083333198,
      "v": 77
    },
    {
      "midi": 60,
      "hit": false,
      "t": 83407.80521354165,
      "d": 234.37482812500093,
      "v": 87
    },
    {
      "midi": 62,
      "hit": false,
      "t": 83537.11546354165,
      "d": 156.249885416677,
      "v": 109
    },
    {
      "midi": 64,
      "hit": false,
      "t": 83666.42571354166,
      "d": 1519.3954374999885,
      "v": 100
    },
    {
      "midi": 72,
      "hit": false,
      "t": 83798.42992708331,
      "d": 1400.8610416666634,
      "v": 101
    },
    {
      "midi": 60,
      "hit": false,
      "t": 84571.59746354165,
      "d": 344.82733333333454,
      "v": 90
    },
    {
      "midi": 60,
      "hit": false,
      "t": 85088.83846354164,
      "d": 339.43940625000687,
      "v": 90
    },
    {
      "midi": 64,
      "hit": false,
      "t": 85347.45896354165,
      "d": 352.9092239583406,
      "v": 111
    },
    {
      "midi": 72,
      "hit": false,
      "t": 85347.45896354165,
      "d": 554.9564895833464,
      "v": 116
    },
    {
      "midi": 60,
      "hit": false,
      "t": 85608.77342708332,
      "d": 309.8058072916756,
      "v": 79
    },
    {
      "midi": 62,
      "hit": false,
      "t": 85867.39392708332,
      "d": 401.40056770833326,
      "v": 104
    },
    {
      "midi": 59,
      "hit": false,
      "t": 85867.39392708332,
      "d": 514.5470364583307,
      "v": 89
    },
    {
      "midi": 71,
      "hit": false,
      "t": 85867.39392708332,
      "d": 514.5470364583307,
      "v": 98
    },
    {
      "midi": 60,
      "hit": false,
      "t": 86384.63492708332,
      "d": 406.7884947916609,
      "v": 96
    },
    {
      "midi": 69,
      "hit": false,
      "t": 86384.63492708332,
      "d": 503.7711822916608,
      "v": 100
    },
    {
      "midi": 57,
      "hit": false,
      "t": 86384.63492708332,
      "d": 514.5470364583307,
      "v": 85
    },
    {
      "midi": 55,
      "hit": false,
      "t": 86901.87592708331,
      "d": 185.8834843749937,
      "v": 82
    },
    {
      "midi": 59,
      "hit": false,
      "t": 86901.87592708331,
      "d": 401.40056770833326,
      "v": 90
    },
    {
      "midi": 67,
      "hit": false,
      "t": 86901.87592708331,
      "d": 584.5900885416631,
      "v": 90
    },
    {
      "midi": 55,
      "hit": false,
      "t": 87416.42296354164,
      "d": 1341.59384375003,
      "v": 84
    },
    {
      "midi": 59,
      "hit": false,
      "t": 87545.73321354164,
      "d": 1018.3182187500206,
      "v": 92
    },
    {
      "midi": 62,
      "hit": false,
      "t": 87677.73742708331,
      "d": 864.7622968750075,
      "v": 98
    },
    {
      "midi": 69,
      "hit": false,
      "t": 87804.35371354164,
      "d": 169.7197031250107,
      "v": 127
    },
    {
      "midi": 74,
      "hit": false,
      "t": 87804.35371354164,
      "d": 926.7234583333629,
      "v": 106
    },
    {
      "midi": 67,
      "hit": false,
      "t": 87936.35792708331,
      "d": 121.22835937500349,
      "v": 104
    },
    {
      "midi": 71,
      "hit": false,
      "t": 87936.35792708331,
      "d": 759.6977187500161,
      "v": 97
    },
    {
      "midi": 67,
      "hit": false,
      "t": 88450.90496354164,
      "d": 280.17220833335887,
      "v": 94
    },
    {
      "midi": 62,
      "hit": false,
      "t": 88709.52546354166,
      "d": 253.23257291667687,
      "v": 87
    },
    {
      "midi": 64,
      "hit": false,
      "t": 88970.83992708335,
      "d": 422.95227604167303,
      "v": 106
    },
    {
      "midi": 72,
      "hit": false,
      "t": 88970.83992708335,
      "d": 487.6074010416778,
      "v": 109
    },
    {
      "midi": 57,
      "hit": false,
      "t": 88970.83992708335,
      "d": 751.61582812501,
      "v": 89
    },
    {
      "midi": 71,
      "hit": false,
      "t": 89614.69721354169,
      "d": 140.08610416667943,
      "v": 114
    },
    {
      "midi": 72,
      "hit": false,
      "t": 89744.0074635417,
      "d": 210.12915625001187,
      "v": 107
    },
    {
      "midi": 79,
      "hit": false,
      "t": 89873.3177135417,
      "d": 228.98690104167326,
      "v": 87
    },
    {
      "midi": 78,
      "hit": false,
      "t": 90005.32192708338,
      "d": 746.2279010416532,
      "v": 99
    },
    {
      "midi": 62,
      "hit": false,
      "t": 90261.2484635417,
      "d": 592.6719791666692,
      "v": 84
    },
    {
      "midi": 66,
      "hit": false,
      "t": 90522.56292708337,
      "d": 307.1118437499972,
      "v": 82
    },
    {
      "midi": 69,
      "hit": false,
      "t": 90649.1792135417,
      "d": 172.41366666666,
      "v": 104
    },
    {
      "midi": 76,
      "hit": false,
      "t": 90778.4894635417,
      "d": 156.249885416677,
      "v": 101
    },
    {
      "midi": 81,
      "hit": false,
      "t": 90778.4894635417,
      "d": 315.1937343750178,
      "v": 102
    },
    {
      "midi": 78,
      "hit": false,
      "t": 90907.79971354171,
      "d": 113.14646874999744,
      "v": 87
    },
    {
      "midi": 74,
      "hit": false,
      "t": 90907.79971354171,
      "d": 123.92232291666733,
      "v": 95
    },
    {
      "midi": 79,
      "hit": false,
      "t": 91039.80392708338,
      "d": 977.9087656250194,
      "v": 95
    },
    {
      "midi": 55,
      "hit": false,
      "t": 91039.80392708338,
      "d": 1575.9686718750163,
      "v": 92
    },
    {
      "midi": 71,
      "hit": false,
      "t": 91295.73046354172,
      "d": 797.4132083333388,
      "v": 86
    },
    {
      "midi": 74,
      "hit": false,
      "t": 91554.35096354173,
      "d": 495.6892916666693,
      "v": 101
    },
    {
      "midi": 59,
      "hit": false,
      "t": 91554.35096354173,
      "d": 1088.3612708333385,
      "v": 85
    },
    {
      "midi": 62,
      "hit": false,
      "t": 91812.97146354173,
      "d": 835.1286979166616,
      "v": 92
    },
    {
      "midi": 67,
      "hit": false,
      "t": 92074.2859270834,
      "d": 282.8661718749936,
      "v": 87
    },
    {
      "midi": 69,
      "hit": false,
      "t": 92330.21246354173,
      "d": 786.637354166669,
      "v": 127
    },
    {
      "midi": 74,
      "hit": false,
      "t": 92330.21246354173,
      "d": 1654.0936145833402,
      "v": 114
    },
    {
      "midi": 62,
      "hit": false,
      "t": 92847.45346354172,
      "d": 269.3963541666744,
      "v": 89
    },
    {
      "midi": 55,
      "hit": false,
      "t": 93108.76792708339,
      "d": 627.6935052083427,
      "v": 97
    },
    {
      "midi": 67,
      "hit": false,
      "t": 93108.76792708339,
      "d": 945.5812031250098,
      "v": 102
    },
    {
      "midi": 71,
      "hit": false,
      "t": 93108.76792708339,
      "d": 945.5812031250098,
      "v": 97
    },
    {
      "midi": 55,
      "hit": false,
      "t": 93881.93546354174,
      "d": 1039.8699270833313,
      "v": 82
    },
    {
      "midi": 59,
      "hit": false,
      "t": 94011.24571354174,
      "d": 96.98268749999988,
      "v": 81
    },
    {
      "midi": 67,
      "hit": false,
      "t": 94143.24992708341,
      "d": 816.2709531250002,
      "v": 102
    },
    {
      "midi": 59,
      "hit": false,
      "t": 94657.79696354174,
      "d": 549.5685625000042,
      "v": 87
    },
    {
      "midi": 71,
      "hit": false,
      "t": 94660.4909270834,
      "d": 449.8919114583405,
      "v": 97
    },
    {
      "midi": 67,
      "hit": false,
      "t": 95177.73192708341,
      "d": 595.365942708333,
      "v": 100
    },
    {
      "midi": 71,
      "hit": false,
      "t": 95177.73192708341,
      "d": 805.4950989583303,
      "v": 96
    },
    {
      "midi": 74,
      "hit": false,
      "t": 95177.73192708341,
      "d": 808.1890624999942,
      "v": 98
    },
    {
      "midi": 55,
      "hit": false,
      "t": 95177.73192708341,
      "d": 983.2966927083326,
      "v": 88
    },
    {
      "midi": 66,
      "hit": false,
      "t": 96212.21392708342,
      "d": 406.7884947916609,
      "v": 115
    },
    {
      "midi": 71,
      "hit": false,
      "t": 96212.21392708342,
      "d": 422.9522760416585,
      "v": 95
    },
    {
      "midi": 74,
      "hit": false,
      "t": 96212.21392708342,
      "d": 546.8745989583258,
      "v": 101
    },
    {
      "midi": 62,
      "hit": false,
      "t": 96212.21392708342,
      "d": 563.0383802083234,
      "v": 90
    },
    {
      "midi": 71,
      "hit": false,
      "t": 96726.76096354175,
      "d": 129.310249999995,
      "v": 96
    },
    {
      "midi": 66,
      "hit": false,
      "t": 96729.45492708341,
      "d": 164.3317760416685,
      "v": 115
    },
    {
      "midi": 55,
      "hit": false,
      "t": 97114.69171354175,
      "d": 2112.067416666672,
      "v": 90
    },
    {
      "midi": 72,
      "hit": false,
      "t": 97246.69592708342,
      "d": 223.59897395833104,
      "v": 93
    },
    {
      "midi": 62,
      "hit": false,
      "t": 97246.69592708342,
      "d": 676.1848489583208,
      "v": 79
    },
    {
      "midi": 67,
      "hit": false,
      "t": 97246.69592708342,
      "d": 1021.0121822916553,
      "v": 98
    },
    {
      "midi": 71,
      "hit": false,
      "t": 97502.62246354175,
      "d": 1045.257854166659,
      "v": 90
    },
    {
      "midi": 62,
      "hit": false,
      "t": 98019.86346354174,
      "d": 274.7842812500021,
      "v": 104
    },
    {
      "midi": 65,
      "hit": false,
      "t": 98281.17792708341,
      "d": 347.52129687499837,
      "v": 111
    },
    {
      "midi": 69,
      "hit": false,
      "t": 98281.17792708341,
      "d": 414.870385416667,
      "v": 99
    },
    {
      "midi": 64,
      "hit": false,
      "t": 98666.41471354174,
      "d": 301.72391666666954,
      "v": 109
    },
    {
      "midi": 67,
      "hit": false,
      "t": 98666.41471354174,
      "d": 651.9391770833317,
      "v": 104
    },
    {
      "midi": 60,
      "hit": false,
      "t": 99315.65992708341,
      "d": 358.2971510416537,
      "v": 99
    },
    {
      "midi": 64,
      "hit": false,
      "t": 99315.65992708341,
      "d": 482.21947395832103,
      "v": 95
    },
    {
      "midi": 48,
      "hit": false,
      "t": 99315.65992708341,
      "d": 1683.727213541657,
      "v": 81
    },
    {
      "midi": 52,
      "hit": false,
      "t": 99571.58646354174,
      "d": 455.2798385416536,
      "v": 86
    },
    {
      "midi": 55,
      "hit": false,
      "t": 99830.20696354173,
      "d": 1287.7145729166805,
      "v": 88
    },
    {
      "midi": 53,
      "hit": false,
      "t": 99959.51721354172,
      "d": 161.63781250000466,
      "v": 63
    },
    {
      "midi": 60,
      "hit": false,
      "t": 99959.51721354172,
      "d": 425.6462395833514,
      "v": 91
    },
    {
      "midi": 62,
      "hit": false,
      "t": 100091.5214270834,
      "d": 137.39214062500105,
      "v": 111
    },
    {
      "midi": 64,
      "hit": false,
      "t": 100218.13771354173,
      "d": 1751.0763020833401,
      "v": 99
    },
    {
      "midi": 72,
      "hit": false,
      "t": 100350.1419270834,
      "d": 894.3958958333387,
      "v": 107
    },
    {
      "midi": 62,
      "hit": false,
      "t": 100606.06846354174,
      "d": 457.973802083332,
      "v": 90
    },
    {
      "midi": 62,
      "hit": false,
      "t": 101123.30946354174,
      "d": 619.6116145833366,
      "v": 80
    },
    {
      "midi": 72,
      "hit": false,
      "t": 102160.4854270834,
      "d": 164.3317760416685,
      "v": 109
    },
    {
      "midi": 64,
      "hit": false,
      "t": 102160.4854270834,
      "d": 175.10763020833838,
      "v": 101
    },
    {
      "midi": 60,
      "hit": false,
      "t": 102160.4854270834,
      "d": 239.76275520834315,
      "v": 102
    },
    {
      "midi": 62,
      "hit": false,
      "t": 102419.10592708341,
      "d": 420.25831249999464,
      "v": 97
    },
    {
      "midi": 71,
      "hit": false,
      "t": 102419.10592708341,
      "d": 509.1591093749885,
      "v": 106
    },
    {
      "midi": 59,
      "hit": false,
      "t": 102419.10592708341,
      "d": 538.7927083333343,
      "v": 89
    },
    {
      "midi": 57,
      "hit": false,
      "t": 102936.3469270834,
      "d": 385.2367864583357,
      "v": 85
    },
    {
      "midi": 60,
      "hit": false,
      "t": 102936.3469270834,
      "d": 390.62471354166337,
      "v": 100
    },
    {
      "midi": 69,
      "hit": false,
      "t": 102936.3469270834,
      "d": 466.0556927083235,
      "v": 90
    },
    {
      "midi": 55,
      "hit": false,
      "t": 103453.5879270834,
      "d": 175.10763020833838,
      "v": 92
    },
    {
      "midi": 59,
      "hit": false,
      "t": 103453.5879270834,
      "d": 320.5816614583455,
      "v": 96
    },
    {
      "midi": 67,
      "hit": false,
      "t": 103453.5879270834,
      "d": 579.20216145835,
      "v": 96
    },
    {
      "midi": 55,
      "hit": false,
      "t": 103968.13496354174,
      "d": 1077.5854166666686,
      "v": 91
    },
    {
      "midi": 59,
      "hit": false,
      "t": 104097.44521354175,
      "d": 1034.481999999989,
      "v": 95
    },
    {
      "midi": 62,
      "hit": false,
      "t": 104226.75546354175,
      "d": 940.1932760416676,
      "v": 106
    },
    {
      "midi": 69,
      "hit": false,
      "t": 104356.06571354174,
      "d": 164.3317760416685,
      "v": 127
    },
    {
      "midi": 74,
      "hit": false,
      "t": 104356.06571354174,
      "d": 985.9906562500109,
      "v": 109
    },
    {
      "midi": 71,
      "hit": false,
      "t": 104488.06992708342,
      "d": 827.0468072916701,
      "v": 101
    },
    {
      "midi": 67,
      "hit": false,
      "t": 104743.99646354174,
      "d": 581.8961250000139,
      "v": 114
    },
    {
      "midi": 55,
      "hit": false,
      "t": 105261.23746354175,
      "d": 250.5386093749985,
      "v": 92
    },
    {
      "midi": 57,
      "hit": false,
      "t": 105522.55192708342,
      "d": 309.80580729166104,
      "v": 91
    },
    {
      "midi": 59,
      "hit": false,
      "t": 105778.47846354175,
      "d": 274.7842812500021,
      "v": 99
    },
    {
      "midi": 60,
      "hit": false,
      "t": 106037.09896354175,
      "d": 334.0514791666501,
      "v": 111
    },
    {
      "midi": 71,
      "hit": false,
      "t": 106166.40921354174,
      "d": 145.47403124999255,
      "v": 123
    },
    {
      "midi": 72,
      "hit": false,
      "t": 106295.71946354174,
      "d": 164.3317760416685,
      "v": 116
    },
    {
      "midi": 79,
      "hit": false,
      "t": 106425.02971354173,
      "d": 193.96537499999977,
      "v": 116
    },
    {
      "midi": 78,
      "hit": false,
      "t": 106557.03392708341,
      "d": 649.2452135416534,
      "v": 112
    },
    {
      "midi": 62,
      "hit": false,
      "t": 106557.03392708341,
      "d": 692.3486302083184,
      "v": 65
    },
    {
      "midi": 66,
      "hit": false,
      "t": 106812.96046354173,
      "d": 474.13758333332953,
      "v": 94
    },
    {
      "midi": 69,
      "hit": false,
      "t": 107074.2749270834,
      "d": 177.80159374998766,
      "v": 104
    },
    {
      "midi": 74,
      "hit": false,
      "t": 107200.89121354173,
      "d": 452.58587499998976,
      "v": 114
    },
    {
      "midi": 76,
      "hit": false,
      "t": 107330.20146354173,
      "d": 123.92232291666733,
      "v": 99
    },
    {
      "midi": 81,
      "hit": false,
      "t": 107459.51171354172,
      "d": 272.09031770833826,
      "v": 100
    },
    {
      "midi": 55,
      "hit": false,
      "t": 107718.13221354173,
      "d": 926.7234583333047,
      "v": 100
    },
    {
      "midi": 62,
      "hit": false,
      "t": 107847.44246354172,
      "d": 576.5081979166571,
      "v": 98
    },
    {
      "midi": 69,
      "hit": false,
      "t": 107976.75271354172,
      "d": 129.310249999995,
      "v": 106
    },
    {
      "midi": 74,
      "hit": false,
      "t": 107976.75271354172,
      "d": 668.1029583333147,
      "v": 100
    },
    {
      "midi": 71,
      "hit": false,
      "t": 108106.06296354171,
      "d": 323.27562499999476,
      "v": 99
    },
    {
      "midi": 67,
      "hit": false,
      "t": 108364.68346354172,
      "d": 274.78428124998754,
      "v": 97
    },
    {
      "midi": 60,
      "hit": false,
      "t": 108625.99792708337,
      "d": 643.8572864583257,
      "v": 97
    },
    {
      "midi": 72,
      "hit": false,
      "t": 108625.99792708337,
      "d": 899.7838229166664,
      "v": 98
    },
    {
      "midi": 62,
      "hit": false,
      "t": 109140.5449635417,
      "d": 167.02573958333232,
      "v": 101
    },
    {
      "midi": 64,
      "hit": false,
      "t": 109269.8552135417,
      "d": 344.82733333333454,
      "v": 101
    },
    {
      "midi": 67,
      "hit": false,
      "t": 109399.1654635417,
      "d": 188.57744791665755,
      "v": 111
    },
    {
      "midi": 72,
      "hit": false,
      "t": 109528.4757135417,
      "d": 2.693963541663834,
      "v": 99
    },
    {
      "midi": 72,
      "hit": false,
      "t": 109916.4064635417,
      "d": 290.94806249999965,
      "v": 102
    },
    {
      "midi": 71,
      "hit": false,
      "t": 110177.72092708337,
      "d": 773.1675364583207,
      "v": 92
    },
    {
      "midi": 55,
      "hit": false,
      "t": 110177.72092708337,
      "d": 1333.5119531249802,
      "v": 76
    },
    {
      "midi": 59,
      "hit": false,
      "t": 110433.6474635417,
      "d": 1045.257854166659,
      "v": 88
    },
    {
      "midi": 62,
      "hit": false,
      "t": 110694.96192708336,
      "d": 837.8226614583255,
      "v": 94
    },
    {
      "midi": 69,
      "hit": false,
      "t": 110950.88846354169,
      "d": 528.0168541666644,
      "v": 99
    },
    {
      "midi": 74,
      "hit": false,
      "t": 110950.88846354169,
      "d": 1702.584958333333,
      "v": 96
    },
    {
      "midi": 67,
      "hit": false,
      "t": 111468.12946354169,
      "d": 1565.1928177083464,
      "v": 89
    },
    {
      "midi": 71,
      "hit": false,
      "t": 111468.12946354169,
      "d": 1799.5676458333473,
      "v": 83
    },
    {
      "midi": 62,
      "hit": false,
      "t": 112505.30542708335,
      "d": 460.66776562501036,
      "v": 67
    },
    {
      "midi": 55,
      "hit": false,
      "t": 112763.92592708336,
      "d": 2739.760921875015,
      "v": 77
    },
    {
      "midi": 59,
      "hit": false,
      "t": 113019.8524635417,
      "d": 1147.6284687500156,
      "v": 89
    },
    {
      "midi": 62,
      "hit": false,
      "t": 113278.4729635417,
      "d": 1053.3397447916795,
      "v": 94
    },
    {
      "midi": 67,
      "hit": false,
      "t": 113537.0934635417,
      "d": 781.2494270833413,
      "v": 85
    },
    {
      "midi": 59,
      "hit": false,
      "t": 114315.64892708338,
      "d": 1258.08097395832,
      "v": 85
    },
    {
      "midi": 62,
      "hit": false,
      "t": 114442.26521354172,
      "d": 1196.1198124999792,
      "v": 85
    },
    {
      "midi": 69,
      "hit": false,
      "t": 114571.57546354171,
      "d": 134.69817708332266,
      "v": 111
    },
    {
      "midi": 71,
      "hit": false,
      "t": 114700.8857135417,
      "d": 210.12915624999732,
      "v": 102
    },
    {
      "midi": 79,
      "hit": false,
      "t": 114832.88992708336,
      "d": 1231.1413385416527,
      "v": 102
    },
    {
      "midi": 77,
      "hit": false,
      "t": 115088.8164635417,
      "d": 827.046807291641,
      "v": 99
    },
    {
      "midi": 74,
      "hit": false,
      "t": 115347.43696354171,
      "d": 565.7323437499726,
      "v": 88
    },
    {
      "midi": 71,
      "hit": false,
      "t": 115606.0574635417,
      "d": 242.45671874999243,
      "v": 81
    },
    {
      "midi": 76,
      "hit": false,
      "t": 115867.37192708335,
      "d": 282.8661718749936,
      "v": 90
    },
    {
      "midi": 60,
      "hit": false,
      "t": 115867.37192708335,
      "d": 1872.3046614583145,
      "v": 81
    },
    {
      "midi": 64,
      "hit": false,
      "t": 116123.29846354168,
      "d": 1589.438489583321,
      "v": 79
    },
    {
      "midi": 67,
      "hit": false,
      "t": 116252.60871354167,
      "d": 1454.7403124999983,
      "v": 99
    },
    {
      "midi": 74,
      "hit": false,
      "t": 116381.91896354167,
      "d": 150.86195833333477,
      "v": 102
    },
    {
      "midi": 76,
      "hit": false,
      "t": 116511.22921354166,
      "d": 1314.6542083333334,
      "v": 95
    },
    {
      "midi": 84,
      "hit": false,
      "t": 116643.23342708334,
      "d": 1338.8998802083224,
      "v": 99
    },
    {
      "midi": 83,
      "hit": false,
      "t": 117936.33592708333,
      "d": 471.4436197916657,
      "v": 86
    },
    {
      "midi": 74,
      "hit": false,
      "t": 117936.33592708333,
      "d": 536.0987447916705,
      "v": 95
    },
    {
      "midi": 55,
      "hit": false,
      "t": 117936.33592708333,
      "d": 1705.2789218749967,
      "v": 85
    },
    {
      "midi": 59,
      "hit": false,
      "t": 118192.26246354166,
      "d": 1460.1282395833405,
      "v": 82
    },
    {
      "midi": 62,
      "hit": false,
      "t": 118450.88296354166,
      "d": 770.4735729166714,
      "v": 84
    },
    {
      "midi": 74,
      "hit": false,
      "t": 118709.50346354167,
      "d": 1042.5638906250097,
      "v": 94
    },
    {
      "midi": 69,
      "hit": false,
      "t": 118712.19742708333,
      "d": 261.3144635416684,
      "v": 106
    },
    {
      "midi": 71,
      "hit": false,
      "t": 118970.81792708334,
      "d": 818.9649166666786,
      "v": 95
    },
    {
      "midi": 67,
      "hit": false,
      "t": 118970.81792708334,
      "d": 853.9864427083521,
      "v": 98
    },
    {
      "midi": 55,
      "hit": false,
      "t": 119743.98546354167,
      "d": 1848.0589895833546,
      "v": 90
    },
    {
      "midi": 59,
      "hit": false,
      "t": 120005.29992708335,
      "d": 1616.378125000003,
      "v": 87
    },
    {
      "midi": 62,
      "hit": false,
      "t": 120261.22646354168,
      "d": 1045.2578541666735,
      "v": 90
    },
    {
      "midi": 69,
      "hit": false,
      "t": 120519.84696354168,
      "d": 269.3963541666744,
      "v": 97
    },
    {
      "midi": 74,
      "hit": false,
      "t": 120519.84696354168,
      "d": 1336.2059166666731,
      "v": 90
    },
    {
      "midi": 67,
      "hit": false,
      "t": 120781.16142708335,
      "d": 1037.1759635416674,
      "v": 89
    },
    {
      "midi": 71,
      "hit": false,
      "t": 120781.16142708335,
      "d": 1080.2793802083324,
      "v": 91
    },
    {
      "midi": 55,
      "hit": false,
      "t": 121942.25971354169,
      "d": 738.1460104166617,
      "v": 71
    },
    {
      "midi": 59,
      "hit": false,
      "t": 121942.25971354169,
      "d": 977.9087656249903,
      "v": 86
    },
    {
      "midi": 67,
      "hit": false,
      "t": 122074.26392708336,
      "d": 115.84043229166127,
      "v": 73
    },
    {
      "midi": 72,
      "hit": false,
      "t": 122074.26392708336,
      "d": 250.5386093749985,
      "v": 98
    },
    {
      "midi": 76,
      "hit": false,
      "t": 122074.26392708336,
      "d": 250.5386093749985,
      "v": 100
    },
    {
      "midi": 62,
      "hit": false,
      "t": 122076.95789062502,
      "d": 889.007968749982,
      "v": 95
    },
    {
      "midi": 71,
      "hit": false,
      "t": 122330.19046354169,
      "d": 557.6504531249957,
      "v": 107
    },
    {
      "midi": 74,
      "hit": false,
      "t": 122330.19046354169,
      "d": 587.284052083327,
      "v": 92
    },
    {
      "midi": 67,
      "hit": false,
      "t": 122847.43146354168,
      "d": 237.06879166666477,
      "v": 90
    },
    {
      "midi": 55,
      "hit": false,
      "t": 122976.74171354168,
      "d": 498.38325520833314,
      "v": 85
    },
    {
      "midi": 71,
      "hit": false,
      "t": 123108.74592708335,
      "d": 363.6850781249959,
      "v": 107
    },
    {
      "midi": 59,
      "hit": false,
      "t": 123108.74592708335,
      "d": 379.8488593749935,
      "v": 86
    },
    {
      "midi": 74,
      "hit": false,
      "t": 123108.74592708335,
      "d": 393.3186770833272,
      "v": 100
    },
    {
      "midi": 69,
      "hit": false,
      "t": 123493.98271354167,
      "d": 398.7066041666694,
      "v": 92
    },
    {
      "midi": 72,
      "hit": false,
      "t": 123493.98271354167,
      "d": 433.7281302083429,
      "v": 80
    },
    {
      "midi": 71,
      "hit": false,
      "t": 123881.91346354167,
      "d": 156.249885416677,
      "v": 94
    },
    {
      "midi": 67,
      "hit": false,
      "t": 123881.91346354167,
      "d": 158.94384895834082,
      "v": 90
    },
    {
      "midi": 69,
      "hit": false,
      "t": 124143.22792708334,
      "d": 514.5470364583307,
      "v": 85
    },
    {
      "midi": 66,
      "hit": false,
      "t": 124143.22792708334,
      "d": 568.4263072916656,
      "v": 91
    },
    {
      "midi": 50,
      "hit": false,
      "t": 124145.921890625,
      "d": 1567.8867812499957,
      "v": 80
    },
    {
      "midi": 54,
      "hit": false,
      "t": 124399.15446354166,
      "d": 1524.7833645833307,
      "v": 80
    },
    {
      "midi": 57,
      "hit": false,
      "t": 124657.77496354167,
      "d": 1314.6542083333188,
      "v": 79
    },
    {
      "midi": 62,
      "hit": false,
      "t": 124919.08942708334,
      "d": 309.8058072916756,
      "v": 84
    },
    {
      "midi": 64,
      "hit": false,
      "t": 125177.70992708334,
      "d": 153.5559218749986,
      "v": 100
    },
    {
      "midi": 66,
      "hit": false,
      "t": 125304.32621354167,
      "d": 851.2924791666446,
      "v": 108
    },
    {
      "midi": 74,
      "hit": false,
      "t": 125433.63646354167,
      "d": 641.1633229166473,
      "v": 111
    },
    {
      "midi": 50,
      "hit": false,
      "t": 125953.57142708333,
      "d": 1850.7529531249893,
      "v": 91
    },
    {
      "midi": 54,
      "hit": false,
      "t": 126212.19192708332,
      "d": 1462.8222031250043,
      "v": 91
    },
    {
      "midi": 62,
      "hit": false,
      "t": 126468.11846354164,
      "d": 129.310249999995,
      "v": 114
    },
    {
      "midi": 57,
      "hit": false,
      "t": 126468.11846354164,
      "d": 1379.3093333333381,
      "v": 90
    },
    {
      "midi": 63,
      "hit": false,
      "t": 126597.42871354164,
      "d": 26.939635416667443,
      "v": 94
    },
    {
      "midi": 64,
      "hit": false,
      "t": 126597.42871354164,
      "d": 1594.8264166666777,
      "v": 101
    },
    {
      "midi": 72,
      "hit": false,
      "t": 126729.43292708331,
      "d": 396.0126406250056,
      "v": 102
    },
    {
      "midi": 71,
      "hit": false,
      "t": 127246.67392708332,
      "d": 552.262526041668,
      "v": 102
    },
    {
      "midi": 69,
      "hit": false,
      "t": 127761.22096354165,
      "d": 560.3444166666595,
      "v": 102
    },
    {
      "midi": 71,
      "hit": false,
      "t": 128281.15592708331,
      "d": 288.2540989583358,
      "v": 101
    },
    {
      "midi": 55,
      "hit": false,
      "t": 128281.15592708331,
      "d": 1610.9901979166607,
      "v": 91
    },
    {
      "midi": 59,
      "hit": false,
      "t": 128537.08246354165,
      "d": 1349.6757343749923,
      "v": 91
    },
    {
      "midi": 62,
      "hit": false,
      "t": 128795.70296354164,
      "d": 563.0383802083379,
      "v": 91
    },
    {
      "midi": 69,
      "hit": false,
      "t": 129057.01742708331,
      "d": 245.15068229167082,
      "v": 109
    },
    {
      "midi": 74,
      "hit": false,
      "t": 129057.01742708331,
      "d": 1279.6326822916599,
      "v": 99
    },
    {
      "midi": 71,
      "hit": false,
      "t": 129315.63792708331,
      "d": 1042.563890624995,
      "v": 91
    },
    {
      "midi": 67,
      "hit": false,
      "t": 129315.63792708331,
      "d": 1058.7276718749927,
      "v": 95
    },
    {
      "midi": 55,
      "hit": false,
      "t": 130088.80546354163,
      "d": 921.3355312500207,
      "v": 82
    },
    {
      "midi": 59,
      "hit": false,
      "t": 130350.1199270833,
      "d": 821.6588802083716,
      "v": 80
    },
    {
      "midi": 62,
      "hit": false,
      "t": 130606.04646354164,
      "d": 474.1375833333441,
      "v": 97
    },
    {
      "midi": 65,
      "hit": false,
      "t": 130864.66696354165,
      "d": 554.956489583361,
      "v": 104
    },
    {
      "midi": 69,
      "hit": false,
      "t": 130864.66696354165,
      "d": 1578.6626354166656,
      "v": 102
    },
    {
      "midi": 55,
      "hit": false,
      "t": 131123.28746354167,
      "d": 775.8614999999991,
      "v": 96
    },
    {
      "midi": 59,
      "hit": false,
      "t": 131384.60192708333,
      "d": 482.2194739583356,
      "v": 90
    },
    {
      "midi": 67,
      "hit": false,
      "t": 131384.60192708333,
      "d": 482.2194739583356,
      "v": 97
    },
    {
      "midi": 64,
      "hit": false,
      "t": 131384.60192708333,
      "d": 514.5470364583307,
      "v": 99
    },
    {
      "midi": 62,
      "hit": false,
      "t": 131901.84292708334,
      "d": 398.70660416665487,
      "v": 98
    },
    {
      "midi": 65,
      "hit": false,
      "t": 131901.84292708334,
      "d": 530.7108177083137,
      "v": 93
    },
    {
      "midi": 60,
      "hit": false,
      "t": 132419.08392708332,
      "d": 401.40056770830415,
      "v": 92
    },
    {
      "midi": 64,
      "hit": false,
      "t": 132419.08392708332,
      "d": 557.6504531249811,
      "v": 89
    },
    {
      "midi": 48,
      "hit": false,
      "t": 132419.08392708332,
      "d": 1764.5461197916302,
      "v": 84
    },
    {
      "midi": 52,
      "hit": false,
      "t": 132675.01046354164,
      "d": 1551.7229999999981,
      "v": 86
    },
    {
      "midi": 55,
      "hit": false,
      "t": 132933.63096354163,
      "d": 1341.5938437500154,
      "v": 91
    },
    {
      "midi": 60,
      "hit": false,
      "t": 133194.9454270833,
      "d": 902.4777864583302,
      "v": 90
    },
    {
      "midi": 62,
      "hit": false,
      "t": 133321.56171354163,
      "d": 161.63781250000466,
      "v": 106
    },
    {
      "midi": 64,
      "hit": false,
      "t": 133453.56592708328,
      "d": 1672.9513593750016,
      "v": 97
    },
    {
      "midi": 72,
      "hit": false,
      "t": 133709.49246354162,
      "d": 1452.0463489583344,
      "v": 114
    },
    {
      "midi": 55,
      "hit": false,
      "t": 135002.59496354163,
      "d": 587.2840520833561,
      "v": 93
    },
    {
      "midi": 60,
      "hit": false,
      "t": 135131.9052135416,
      "d": 382.54282291670097,
      "v": 104
    },
    {
      "midi": 64,
      "hit": false,
      "t": 135263.9094270833,
      "d": 207.4351927083335,
      "v": 109
    },
    {
      "midi": 72,
      "hit": false,
      "t": 135263.9094270833,
      "d": 288.2540989583649,
      "v": 123
    },
    {
      "midi": 62,
      "hit": false,
      "t": 135522.52992708332,
      "d": 455.27983854166814,
      "v": 100
    },
    {
      "midi": 71,
      "hit": false,
      "t": 135522.52992708332,
      "d": 519.9349635416875,
      "v": 81
    },
    {
      "midi": 59,
      "hit": false,
      "t": 135522.52992708332,
      "d": 568.4263072916947,
      "v": 96
    },
    {
      "midi": 69,
      "hit": false,
      "t": 136039.77092708333,
      "d": 352.90922395835514,
      "v": 104
    },
    {
      "midi": 57,
      "hit": false,
      "t": 136039.77092708333,
      "d": 363.6850781250105,
      "v": 94
    },
    {
      "midi": 60,
      "hit": false,
      "t": 136039.77092708333,
      "d": 449.8919114583405,
      "v": 104
    },
    {
      "midi": 62,
      "hit": false,
      "t": 136557.01192708334,
      "d": 379.8488593749935,
      "v": 97
    },
    {
      "midi": 67,
      "hit": false,
      "t": 136557.01192708334,
      "d": 487.60740104166325,
      "v": 102
    },
    {
      "midi": 55,
      "hit": false,
      "t": 136557.01192708334,
      "d": 1802.2616093750112,
      "v": 89
    },
    {
      "midi": 59,
      "hit": false,
      "t": 136812.93846354168,
      "d": 1551.7229999999981,
      "v": 79
    },
    {
      "midi": 62,
      "hit": false,
      "t": 136942.24871354166,
      "d": 21.551708333339775,
      "v": 84
    },
    {
      "midi": 62,
      "hit": false,
      "t": 137071.55896354167,
      "d": 1244.611156250001,
      "v": 101
    },
    {
      "midi": 69,
      "hit": false,
      "t": 137330.17946354166,
      "d": 129.31025000000955,
      "v": 107
    },
    {
      "midi": 71,
      "hit": false,
      "t": 137459.48971354167,
      "d": 393.3186770833272,
      "v": 100
    },
    {
      "midi": 79,
      "hit": false,
      "t": 137591.49392708333,
      "d": 207.4351927083335,
      "v": 107
    },
    {
      "midi": 69,
      "hit": false,
      "t": 137847.42046354167,
      "d": 290.9480625000142,
      "v": 127
    },
    {
      "midi": 72,
      "hit": false,
      "t": 138108.73492708334,
      "d": 40.409453125001164,
      "v": 97
    },
    {
      "midi": 71,
      "hit": false,
      "t": 138108.73492708334,
      "d": 301.72391666666954,
      "v": 106
    },
    {
      "midi": 67,
      "hit": false,
      "t": 138364.66146354168,
      "d": 285.56013541665743,
      "v": 99
    },
    {
      "midi": 72,
      "hit": false,
      "t": 138625.97592708335,
      "d": 347.52129687499837,
      "v": 100
    },
    {
      "midi": 57,
      "hit": false,
      "t": 138625.97592708335,
      "d": 528.0168541666644,
      "v": 102
    },
    {
      "midi": 59,
      "hit": false,
      "t": 139140.52296354168,
      "d": 156.249885416677,
      "v": 116
    },
    {
      "midi": 60,
      "hit": false,
      "t": 139269.8332135417,
      "d": 328.663552083337,
      "v": 111
    },
    {
      "midi": 67,
      "hit": false,
      "t": 139399.1434635417,
      "d": 296.33598958334187,
      "v": 123
    },
    {
      "midi": 66,
      "hit": false,
      "t": 139660.45792708336,
      "d": 654.6331406249956,
      "v": 106
    },
    {
      "midi": 50,
      "hit": false,
      "t": 139660.45792708336,
      "d": 821.6588802083279,
      "v": 89
    },
    {
      "midi": 54,
      "hit": false,
      "t": 139916.3844635417,
      "d": 519.9349635416584,
      "v": 94
    },
    {
      "midi": 62,
      "hit": false,
      "t": 140177.69892708337,
      "d": 142.78006770831416,
      "v": 104
    },
    {
      "midi": 64,
      "hit": false,
      "t": 140304.3152135417,
      "d": 118.5343958333251,
      "v": 109
    },
    {
      "midi": 69,
      "hit": false,
      "t": 140304.3152135417,
      "d": 301.72391666664043,
      "v": 106
    },
    {
      "midi": 66,
      "hit": false,
      "t": 140433.62546354168,
      "d": 231.68086458332255,
      "v": 110
    },
    {
      "midi": 55,
      "hit": false,
      "t": 140694.93992708335,
      "d": 563.0383802083379,
      "v": 99
    },
    {
      "midi": 67,
      "hit": false,
      "t": 140694.93992708335,
      "d": 897.0898593750026,
      "v": 94
    },
    {
      "midi": 71,
      "hit": false,
      "t": 140694.93992708335,
      "d": 937.4993125000037,
      "v": 90
    },
    {
      "midi": 62,
      "hit": false,
      "t": 141209.48696354168,
      "d": 285.56013541665743,
      "v": 93
    },
    {
      "midi": 55,
      "hit": false,
      "t": 141470.80142708335,
      "d": 1408.9429322917422,
      "v": 90
    },
    {
      "midi": 59,
      "hit": false,
      "t": 141729.42192708337,
      "d": 1263.4689010417205,
      "v": 86
    },
    {
      "midi": 62,
      "hit": false,
      "t": 141985.3484635417,
      "d": 1039.869927083375,
      "v": 90
    },
    {
      "midi": 83,
      "hit": false,
      "t": 142243.9689635417,
      "d": 129.31025000000955,
      "v": 98
    },
    {
      "midi": 79,
      "hit": false,
      "t": 142373.2792135417,
      "d": 226.29293750002398,
      "v": 92
    },
    {
      "midi": 74,
      "hit": false,
      "t": 142502.58946354172,
      "d": 145.47403125002165,
      "v": 96
    },
    {
      "midi": 71,
      "hit": false,
      "t": 142631.89971354173,
      "d": 140.08610416669399,
      "v": 80
    },
    {
      "midi": 67,
      "hit": false,
      "t": 142763.90392708342,
      "d": 546.8745989583549,
      "v": 102
    },
    {
      "midi": 55,
      "hit": false,
      "t": 143019.83046354176,
      "d": 1514.0075104166754,
      "v": 97
    },
    {
      "midi": 69,
      "hit": false,
      "t": 143281.14492708343,
      "d": 492.99532812502,
      "v": 127
    },
    {
      "midi": 59,
      "hit": false,
      "t": 143281.14492708343,
      "d": 1139.5465781250095,
      "v": 89
    },
    {
      "midi": 74,
      "hit": false,
      "t": 143281.14492708343,
      "d": 1419.7187864583102,
      "v": 97
    },
    {
      "midi": 62,
      "hit": false,
      "t": 143537.07146354177,
      "d": 786.6373541666544,
      "v": 101
    },
    {
      "midi": 67,
      "hit": false,
      "t": 143798.38592708344,
      "d": 460.6677656249958,
      "v": 116
    },
    {
      "midi": 71,
      "hit": false,
      "t": 143798.38592708344,
      "d": 783.943390624976,
      "v": 98
    },
    {
      "midi": 67,
      "hit": false,
      "t": 144571.55346354176,
      "d": 207.43519270830438,
      "v": 63
    },
    {
      "midi": 71,
      "hit": false,
      "t": 144832.8679270834,
      "d": 789.3313177083328,
      "v": 92
    },
    {
      "midi": 74,
      "hit": false,
      "t": 144832.8679270834,
      "d": 789.3313177083328,
      "v": 97
    },
    {
      "midi": 55,
      "hit": false,
      "t": 144832.8679270834,
      "d": 1015.6242552083568,
      "v": 83
    },
    {
      "midi": 59,
      "hit": false,
      "t": 145347.41496354173,
      "d": 549.5685625000333,
      "v": 77
    },
    {
      "midi": 67,
      "hit": false,
      "t": 145608.7294270834,
      "d": 169.7197031250107,
      "v": 90
    },
    {
      "midi": 71,
      "hit": false,
      "t": 145867.3499270834,
      "d": 816.2709531250002,
      "v": 102
    },
    {
      "midi": 74,
      "hit": false,
      "t": 145867.3499270834,
      "d": 950.9691302083374,
      "v": 104
    },
    {
      "midi": 62,
      "hit": false,
      "t": 145867.3499270834,
      "d": 1085.6673072916747,
      "v": 101
    },
    {
      "midi": 66,
      "hit": false,
      "t": 146123.27646354176,
      "d": 641.1633229166619,
      "v": 105
    },
    {
      "midi": 74,
      "hit": false,
      "t": 146901.83192708343,
      "d": 794.7192447916314,
      "v": 71
    },
    {
      "midi": 55,
      "hit": false,
      "t": 146901.83192708343,
      "d": 1333.5119531249802,
      "v": 88
    },
    {
      "midi": 67,
      "hit": false,
      "t": 147157.75846354174,
      "d": 482.2194739583356,
      "v": 90
    },
    {
      "midi": 59,
      "hit": false,
      "t": 147677.6934270834,
      "d": 487.60740104166325,
      "v": 85
    },
    {
      "midi": 65,
      "hit": false,
      "t": 147936.3139270834,
      "d": 396.0126406250056,
      "v": 101
    },
    {
      "midi": 69,
      "hit": false,
      "t": 147936.3139270834,
      "d": 1091.0552343750314,
      "v": 97
    },
    {
      "midi": 67,
      "hit": false,
      "t": 148321.55071354174,
      "d": 404.09453125001164,
      "v": 85
    },
    {
      "midi": 64,
      "hit": false,
      "t": 148321.55071354174,
      "d": 417.56434895834536,
      "v": 86
    },
    {
      "midi": 62,
      "hit": false,
      "t": 148709.48146354174,
      "d": 183.18952083334443,
      "v": 92
    },
    {
      "midi": 65,
      "hit": false,
      "t": 148709.48146354174,
      "d": 307.1118437500263,
      "v": 89
    },
    {
      "midi": 60,
      "hit": false,
      "t": 148970.7959270834,
      "d": 482.2194739583356,
      "v": 93
    },
    {
      "midi": 64,
      "hit": false,
      "t": 148973.4898906251,
      "d": 563.0383802083088,
      "v": 93
    },
    {
      "midi": 48,
      "hit": false,
      "t": 148973.4898906251,
      "d": 1691.809104166663,
      "v": 93
    },
    {
      "midi": 52,
      "hit": false,
      "t": 149226.72246354175,
      "d": 1573.274708333338,
      "v": 85
    },
    {
      "midi": 55,
      "hit": false,
      "t": 149485.34296354174,
      "d": 1387.3912239583442,
      "v": 89
    },
    {
      "midi": 60,
      "hit": false,
      "t": 149743.96346354173,
      "d": 331.35751562501537,
      "v": 81
    },
    {
      "midi": 62,
      "hit": false,
      "t": 149873.27371354174,
      "d": 140.08610416666488,
      "v": 102
    },
    {
      "midi": 64,
      "hit": false,
      "t": 150005.2779270834,
      "d": 950.9691302083666,
      "v": 96
    },
    {
      "midi": 72,
      "hit": false,
      "t": 150261.20446354174,
      "d": 711.206375000038,
      "v": 116
    },
    {
      "midi": 72,
      "hit": false,
      "t": 151039.75992708345,
      "d": 638.4693593750126,
      "v": 107
    },
    {
      "midi": 64,
      "hit": false,
      "t": 151039.75992708345,
      "d": 643.8572864583402,
      "v": 99
    },
    {
      "midi": 60,
      "hit": false,
      "t": 151039.75992708345,
      "d": 676.1848489583354,
      "v": 99
    },
    {
      "midi": 64,
      "hit": false,
      "t": 151812.9274635418,
      "d": 210.12915625001187,
      "v": 116
    },
    {
      "midi": 60,
      "hit": false,
      "t": 151812.9274635418,
      "d": 301.72391666666954,
      "v": 100
    },
    {
      "midi": 72,
      "hit": false,
      "t": 151815.62142708348,
      "d": 245.15068229165627,
      "v": 116
    },
    {
      "midi": 62,
      "hit": false,
      "t": 152074.24192708347,
      "d": 428.3402031250007,
      "v": 100
    },
    {
      "midi": 71,
      "hit": false,
      "t": 152074.24192708347,
      "d": 492.9953281249909,
      "v": 87
    },
    {
      "midi": 59,
      "hit": false,
      "t": 152074.24192708347,
      "d": 503.77118229164626,
      "v": 88
    },
    {
      "midi": 69,
      "hit": false,
      "t": 152591.48292708345,
      "d": 299.02995312499115,
      "v": 107
    },
    {
      "midi": 60,
      "hit": false,
      "t": 152591.48292708345,
      "d": 422.9522760416439,
      "v": 99
    },
    {
      "midi": 57,
      "hit": false,
      "t": 152591.48292708345,
      "d": 519.9349635416584,
      "v": 97
    },
    {
      "midi": 55,
      "hit": false,
      "t": 153108.72392708343,
      "d": 299.02995312502026,
      "v": 90
    },
    {
      "midi": 59,
      "hit": false,
      "t": 153108.72392708343,
      "d": 498.3832552083477,
      "v": 101
    },
    {
      "midi": 62,
      "hit": false,
      "t": 153108.72392708343,
      "d": 557.6504531250393,
      "v": 102
    },
    {
      "midi": 67,
      "hit": false,
      "t": 153108.72392708343,
      "d": 606.1417968750466,
      "v": 101
    },
    {
      "midi": 55,
      "hit": false,
      "t": 153623.27096354179,
      "d": 1320.0421354166756,
      "v": 97
    },
    {
      "midi": 59,
      "hit": false,
      "t": 153884.58542708348,
      "d": 1096.443161458301,
      "v": 82
    },
    {
      "midi": 69,
      "hit": false,
      "t": 154143.20592708347,
      "d": 121.22835937500349,
      "v": 116
    },
    {
      "midi": 62,
      "hit": false,
      "t": 154143.20592708347,
      "d": 783.943390624976,
      "v": 107
    },
    {
      "midi": 74,
      "hit": false,
      "t": 154143.20592708347,
      "d": 1053.3397447916795,
      "v": 99
    },
    {
      "midi": 71,
      "hit": false,
      "t": 154269.8222135418,
      "d": 167.02573958333232,
      "v": 104
    },
    {
      "midi": 69,
      "hit": false,
      "t": 154399.1324635418,
      "d": 242.45671874997788,
      "v": 127
    },
    {
      "midi": 67,
      "hit": false,
      "t": 154660.44692708345,
      "d": 514.5470364583307,
      "v": 127
    },
    {
      "midi": 59,
      "hit": false,
      "t": 155177.68792708346,
      "d": 2.693963541678386,
      "v": 116
    },
    {
      "midi": 60,
      "hit": false,
      "t": 155177.68792708346,
      "d": 2.693963541678386,
      "v": 72
    },
    {
      "midi": 67,
      "hit": false,
      "t": 155177.68792708346,
      "d": 2.693963541678386,
      "v": 81
    },
    {
      "midi": 60,
      "hit": false,
      "t": 155304.30421354182,
      "d": 366.37904166668886,
      "v": 104
    },
    {
      "midi": 67,
      "hit": false,
      "t": 155433.61446354183,
      "d": 261.3144635416684,
      "v": 109
    },
    {
      "midi": 50,
      "hit": false,
      "t": 155950.85546354184,
      "d": 1314.654208333348,
      "v": 93
    },
    {
      "midi": 66,
      "hit": false,
      "t": 156212.1699270835,
      "d": 514.5470364583307,
      "v": 102
    },
    {
      "midi": 54,
      "hit": false,
      "t": 156212.1699270835,
      "d": 945.5812031250098,
      "v": 93
    },
    {
      "midi": 57,
      "hit": false,
      "t": 156468.09646354185,
      "d": 560.3444166666595,
      "v": 83
    },
    {
      "midi": 64,
      "hit": false,
      "t": 156726.71696354184,
      "d": 274.7842812500021,
      "v": 100
    },
    {
      "midi": 69,
      "hit": false,
      "t": 156726.71696354184,
      "d": 466.0556927083526,
      "v": 101
    },
    {
      "midi": 62,
      "hit": false,
      "t": 156985.33746354183,
      "d": 220.9050104166963,
      "v": 94
    },
    {
      "midi": 66,
      "hit": false,
      "t": 156985.33746354183,
      "d": 231.68086458335165,
      "v": 97
    },
    {
      "midi": 64,
      "hit": false,
      "t": 157246.65192708353,
      "d": 1053.3397447916795,
      "v": 104
    },
    {
      "midi": 67,
      "hit": false,
      "t": 157246.65192708353,
      "d": 5175.103963541682,
      "v": 106
    },
    {
      "midi": 60,
      "hit": false,
      "t": 157502.57846354187,
      "d": 695.0425937499967,
      "v": 93
    },
    {
      "midi": 59,
      "hit": false,
      "t": 158278.43996354187,
      "d": 447.1979479166621,
      "v": 109
    },
    {
      "midi": 62,
      "hit": false,
      "t": 158278.43996354187,
      "d": 563.0383802083379,
      "v": 127
    },
    {
      "midi": 57,
      "hit": false,
      "t": 158798.37492708353,
      "d": 379.8488593750226,
      "v": 102
    },
    {
      "midi": 60,
      "hit": false,
      "t": 158798.37492708353,
      "d": 379.8488593750226,
      "v": 119
    },
    {
      "midi": 59,
      "hit": false,
      "t": 159315.61592708353,
      "d": 2675.1057968749956,
      "v": 114
    },
    {
      "midi": 55,
      "hit": false,
      "t": 159315.61592708353,
      "d": 4038.2513489583507,
      "v": 107
    },
    {
      "midi": 43,
      "hit": false,
      "t": 159830.16296354186,
      "d": 3526.3982760416984,
      "v": 96
    }
  ]
}