{
  "jsonPath": "Soundtracks/Video Game Music/World of Warcraft/world-of-warcraft-stormwind-by-gori-fater.json",
  "path": "Soundtracks\\Video Game Music\\World of Warcraft\\World_of_Warcraft_-_Stormwind_by_Gori_Fater.mid",
  "name": "World_of_Warcraft_-_Stormwind_by_Gori_Fater",
  "difficulty": "Advanced",
  "bpm": 89.99968500110249,
  "notes": [
    {
      "midi": 28,
      "hit": false,
      "t": 2409.37801171875,
      "d": 96.87512109374984,
      "v": 61
    },
    {
      "midi": 40,
      "hit": false,
      "t": 2512.5031406249996,
      "d": 91.40636425781258,
      "v": 63
    },
    {
      "midi": 28,
      "hit": false,
      "t": 2610.159512695312,
      "d": 90.62511328124992,
      "v": 61
    },
    {
      "midi": 40,
      "hit": false,
      "t": 2707.034633789062,
      "d": 90.62511328124992,
      "v": 68
    },
    {
      "midi": 28,
      "hit": false,
      "t": 2803.9097548828117,
      "d": 89.84386230468726,
      "v": 69
    },
    {
      "midi": 40,
      "hit": false,
      "t": 2900.003624999999,
      "d": 91.40636425781258,
      "v": 75
    },
    {
      "midi": 28,
      "hit": false,
      "t": 2997.6599970703114,
      "d": 92.18761523437479,
      "v": 76
    },
    {
      "midi": 40,
      "hit": false,
      "t": 3096.097620117186,
      "d": 97.6563720703125,
      "v": 82
    },
    {
      "midi": 33,
      "hit": false,
      "t": 3203.1290039062487,
      "d": 6396.101745117187,
      "v": 76
    },
    {
      "midi": 57,
      "hit": false,
      "t": 4023.4425292968745,
      "d": 1585.1582314453126,
      "v": 42
    },
    {
      "midi": 60,
      "hit": false,
      "t": 4023.4425292968745,
      "d": 1585.1582314453126,
      "v": 42
    },
    {
      "midi": 64,
      "hit": false,
      "t": 4023.4425292968745,
      "d": 1585.1582314453126,
      "v": 42
    },
    {
      "midi": 69,
      "hit": false,
      "t": 4023.4425292968745,
      "d": 1585.1582314453126,
      "v": 56
    },
    {
      "midi": 57,
      "hit": false,
      "t": 5609.382011718749,
      "d": 789.8447373046874,
      "v": 108
    },
    {
      "midi": 45,
      "hit": false,
      "t": 5609.382011718749,
      "d": 790.6259882812501,
      "v": 94
    },
    {
      "midi": 62,
      "hit": false,
      "t": 5609.38201171875,
      "d": 789.8447373046874,
      "v": 42
    },
    {
      "midi": 65,
      "hit": false,
      "t": 5609.38201171875,
      "d": 789.8447373046874,
      "v": 42
    },
    {
      "midi": 71,
      "hit": false,
      "t": 5609.38201171875,
      "d": 789.8447373046874,
      "v": 56
    },
    {
      "midi": 45,
      "hit": false,
      "t": 6403.133003906249,
      "d": 819.5322744140622,
      "v": 98
    },
    {
      "midi": 57,
      "hit": false,
      "t": 6403.133003906249,
      "d": 819.5322744140622,
      "v": 108
    },
    {
      "midi": 62,
      "hit": false,
      "t": 6403.1330039062495,
      "d": 819.5322744140622,
      "v": 46
    },
    {
      "midi": 65,
      "hit": false,
      "t": 6403.1330039062495,
      "d": 819.5322744140622,
      "v": 46
    },
    {
      "midi": 69,
      "hit": false,
      "t": 6403.1330039062495,
      "d": 819.5322744140622,
      "v": 46
    },
    {
      "midi": 74,
      "hit": false,
      "t": 6403.1330039062495,
      "d": 819.5322744140622,
      "v": 60
    },
    {
      "midi": 45,
      "hit": false,
      "t": 7223.446529296873,
      "d": 393.75049218749973,
      "v": 82
    },
    {
      "midi": 57,
      "hit": false,
      "t": 7223.446529296873,
      "d": 393.75049218749973,
      "v": 92
    },
    {
      "midi": 60,
      "hit": false,
      "t": 7223.446529296874,
      "d": 370.3129628906254,
      "v": 42
    },
    {
      "midi": 64,
      "hit": false,
      "t": 7223.446529296874,
      "d": 393.75049218750064,
      "v": 42
    },
    {
      "midi": 69,
      "hit": false,
      "t": 7223.446529296874,
      "d": 393.75049218750064,
      "v": 42
    },
    {
      "midi": 72,
      "hit": false,
      "t": 7223.446529296874,
      "d": 393.75049218750064,
      "v": 56
    },
    {
      "midi": 45,
      "hit": false,
      "t": 7617.978272460936,
      "d": 397.6567470703121,
      "v": 81
    },
    {
      "midi": 57,
      "hit": false,
      "t": 7617.978272460936,
      "d": 397.6567470703121,
      "v": 91
    },
    {
      "midi": 59,
      "hit": false,
      "t": 7617.978272460938,
      "d": 374.2192177734378,
      "v": 41
    },
    {
      "midi": 64,
      "hit": false,
      "t": 7617.978272460938,
      "d": 397.65674707031303,
      "v": 41
    },
    {
      "midi": 68,
      "hit": false,
      "t": 7617.978272460938,
      "d": 397.65674707031303,
      "v": 41
    },
    {
      "midi": 71,
      "hit": false,
      "t": 7617.978272460938,
      "d": 397.65674707031303,
      "v": 55
    },
    {
      "midi": 45,
      "hit": false,
      "t": 8016.416270507811,
      "d": 1582.8144785156255,
      "v": 96
    },
    {
      "midi": 57,
      "hit": false,
      "t": 8016.416270507811,
      "d": 1582.8144785156255,
      "v": 106
    },
    {
      "midi": 60,
      "hit": false,
      "t": 8016.416270507813,
      "d": 792.1884902343745,
      "v": 44
    },
    {
      "midi": 64,
      "hit": false,
      "t": 8016.416270507813,
      "d": 792.1884902343745,
      "v": 44
    },
    {
      "midi": 69,
      "hit": false,
      "t": 8016.416270507813,
      "d": 792.1884902343745,
      "v": 44
    },
    {
      "midi": 72,
      "hit": false,
      "t": 8016.416270507813,
      "d": 792.1884902343745,
      "v": 58
    },
    {
      "midi": 60,
      "hit": false,
      "t": 8809.38601171875,
      "d": 789.8447373046874,
      "v": 42
    },
    {
      "midi": 64,
      "hit": false,
      "t": 8809.38601171875,
      "d": 789.8447373046874,
      "v": 42
    },
    {
      "midi": 69,
      "hit": false,
      "t": 8809.38601171875,
      "d": 789.8447373046874,
      "v": 56
    },
    {
      "midi": 33,
      "hit": false,
      "t": 9603.13700390625,
      "d": 3196.0977451171893,
      "v": 90
    },
    {
      "midi": 62,
      "hit": false,
      "t": 9603.137003906251,
      "d": 819.5322744140631,
      "v": 46
    },
    {
      "midi": 65,
      "hit": false,
      "t": 9603.137003906251,
      "d": 819.5322744140631,
      "v": 46
    },
    {
      "midi": 69,
      "hit": false,
      "t": 9603.137003906251,
      "d": 819.5322744140631,
      "v": 46
    },
    {
      "midi": 74,
      "hit": false,
      "t": 9603.137003906251,
      "d": 819.5322744140631,
      "v": 60
    },
    {
      "midi": 45,
      "hit": false,
      "t": 10423.450529296875,
      "d": 393.75049218750064,
      "v": 82
    },
    {
      "midi": 57,
      "hit": false,
      "t": 10423.450529296875,
      "d": 393.75049218750064,
      "v": 92
    },
    {
      "midi": 60,
      "hit": false,
      "t": 10423.450529296877,
      "d": 370.3129628906245,
      "v": 42
    },
    {
      "midi": 64,
      "hit": false,
      "t": 10423.450529296877,
      "d": 393.7504921874988,
      "v": 42
    },
    {
      "midi": 69,
      "hit": false,
      "t": 10423.450529296877,
      "d": 393.7504921874988,
      "v": 42
    },
    {
      "midi": 72,
      "hit": false,
      "t": 10423.450529296877,
      "d": 393.7504921874988,
      "v": 56
    },
    {
      "midi": 59,
      "hit": false,
      "t": 10817.982272460938,
      "d": 374.2192177734378,
      "v": 41
    },
    {
      "midi": 64,
      "hit": false,
      "t": 10817.982272460938,
      "d": 397.6567470703121,
      "v": 41
    },
    {
      "midi": 68,
      "hit": false,
      "t": 10817.982272460938,
      "d": 397.6567470703121,
      "v": 41
    },
    {
      "midi": 71,
      "hit": false,
      "t": 10817.982272460938,
      "d": 397.6567470703121,
      "v": 55
    },
    {
      "midi": 45,
      "hit": false,
      "t": 10817.982272460938,
      "d": 397.6567470703121,
      "v": 81
    },
    {
      "midi": 57,
      "hit": false,
      "t": 10817.982272460938,
      "d": 397.6567470703121,
      "v": 91
    },
    {
      "midi": 60,
      "hit": false,
      "t": 11216.420270507813,
      "d": 792.1884902343754,
      "v": 44
    },
    {
      "midi": 64,
      "hit": false,
      "t": 11216.420270507813,
      "d": 792.1884902343754,
      "v": 44
    },
    {
      "midi": 69,
      "hit": false,
      "t": 11216.420270507813,
      "d": 792.1884902343754,
      "v": 44
    },
    {
      "midi": 72,
      "hit": false,
      "t": 11216.420270507813,
      "d": 792.1884902343754,
      "v": 58
    },
    {
      "midi": 45,
      "hit": false,
      "t": 11216.420270507813,
      "d": 1582.8144785156255,
      "v": 96
    },
    {
      "midi": 57,
      "hit": false,
      "t": 11216.420270507813,
      "d": 1582.8144785156255,
      "v": 106
    },
    {
      "midi": 60,
      "hit": false,
      "t": 12009.390011718751,
      "d": 789.8447373046874,
      "v": 42
    },
    {
      "midi": 64,
      "hit": false,
      "t": 12009.390011718751,
      "d": 789.8447373046874,
      "v": 42
    },
    {
      "midi": 69,
      "hit": false,
      "t": 12009.390011718751,
      "d": 789.8447373046874,
      "v": 56
    },
    {
      "midi": 57,
      "hit": false,
      "t": 12803.141003906252,
      "d": 1612.5020156249993,
      "v": 46
    },
    {
      "midi": 60,
      "hit": false,
      "t": 12803.141003906252,
      "d": 1612.5020156249993,
      "v": 46
    },
    {
      "midi": 64,
      "hit": false,
      "t": 12803.141003906252,
      "d": 1612.5020156249993,
      "v": 46
    },
    {
      "midi": 69,
      "hit": false,
      "t": 12803.141003906252,
      "d": 1612.5020156249993,
      "v": 60
    },
    {
      "midi": 28,
      "hit": false,
      "t": 12803.141003906252,
      "d": 3196.0977451171875,
      "v": 89
    },
    {
      "midi": 40,
      "hit": false,
      "t": 12803.141003906252,
      "d": 3196.0977451171875,
      "v": 106
    },
    {
      "midi": 64,
      "hit": false,
      "t": 14416.424270507814,
      "d": 1432.814291015624,
      "v": 44
    },
    {
      "midi": 68,
      "hit": false,
      "t": 14416.424270507814,
      "d": 1432.814291015624,
      "v": 58
    },
    {
      "midi": 56,
      "hit": false,
      "t": 14416.424270507814,
      "d": 1582.8144785156237,
      "v": 44
    },
    {
      "midi": 59,
      "hit": false,
      "t": 14416.424270507814,
      "d": 1582.8144785156237,
      "v": 44
    },
    {
      "midi": 57,
      "hit": false,
      "t": 15700.019625,
      "d": 100.00012500000048,
      "v": 62
    },
    {
      "midi": 60,
      "hit": false,
      "t": 15800.019750000001,
      "d": 100.00012499999866,
      "v": 62
    },
    {
      "midi": 65,
      "hit": false,
      "t": 15900.019875,
      "d": 100.00012500000048,
      "v": 62
    },
    {
      "midi": 69,
      "hit": false,
      "t": 16003.145003906251,
      "d": 1987.5024843749998,
      "v": 67
    },
    {
      "midi": 41,
      "hit": false,
      "t": 16003.145003906253,
      "d": 3196.0977451171802,
      "v": 93
    },
    {
      "midi": 53,
      "hit": false,
      "t": 16003.145003906253,
      "d": 3196.0977451171802,
      "v": 107
    },
    {
      "midi": 57,
      "hit": false,
      "t": 16823.458529296877,
      "d": 279.6878496093741,
      "v": 63
    },
    {
      "midi": 45,
      "hit": false,
      "t": 16823.458529296877,
      "d": 279.6878496093741,
      "v": 102
    },
    {
      "midi": 59,
      "hit": false,
      "t": 17121.89640234375,
      "d": 271.09408886718666,
      "v": 62
    },
    {
      "midi": 47,
      "hit": false,
      "t": 17121.89640234375,
      "d": 271.09408886718666,
      "v": 101
    },
    {
      "midi": 60,
      "hit": false,
      "t": 17411.740514648438,
      "d": 292.9691162109375,
      "v": 62
    },
    {
      "midi": 48,
      "hit": false,
      "t": 17411.740514648438,
      "d": 292.9691162109375,
      "v": 101
    },
    {
      "midi": 62,
      "hit": false,
      "t": 17723.459654296876,
      "d": 272.656590820312,
      "v": 62
    },
    {
      "midi": 50,
      "hit": false,
      "t": 17723.459654296876,
      "d": 272.656590820312,
      "v": 101
    },
    {
      "midi": 60,
      "hit": false,
      "t": 18014.866268554688,
      "d": 272.656590820312,
      "v": 62
    },
    {
      "midi": 67,
      "hit": false,
      "t": 18014.866268554688,
      "d": 370.3129628906245,
      "v": 62
    },
    {
      "midi": 48,
      "hit": false,
      "t": 18014.866268554688,
      "d": 272.656590820312,
      "v": 101
    },
    {
      "midi": 59,
      "hit": false,
      "t": 18306.2728828125,
      "d": 285.1566064453109,
      "v": 62
    },
    {
      "midi": 47,
      "hit": false,
      "t": 18306.2728828125,
      "d": 285.1566064453109,
      "v": 101
    },
    {
      "midi": 65,
      "hit": false,
      "t": 18409.39801171875,
      "d": 789.8447373046874,
      "v": 63
    },
    {
      "midi": 60,
      "hit": false,
      "t": 18610.17951269531,
      "d": 271.09408886718666,
      "v": 62
    },
    {
      "midi": 48,
      "hit": false,
      "t": 18610.17951269531,
      "d": 271.09408886718666,
      "v": 101
    },
    {
      "midi": 57,
      "hit": false,
      "t": 18900.023624999998,
      "d": 299.2191240234388,
      "v": 62
    },
    {
      "midi": 45,
      "hit": false,
      "t": 18900.023624999998,
      "d": 281.2503515624994,
      "v": 101
    },
    {
      "midi": 40,
      "hit": false,
      "t": 19203.149003906245,
      "d": 3196.097745117182,
      "v": 92
    },
    {
      "midi": 69,
      "hit": false,
      "t": 19203.14900390625,
      "d": 239.84404980468753,
      "v": 55
    },
    {
      "midi": 64,
      "hit": false,
      "t": 19203.14900390625,
      "d": 819.5322744140576,
      "v": 67
    },
    {
      "midi": 72,
      "hit": false,
      "t": 19432.055540039062,
      "d": 205.46900683593412,
      "v": 50
    },
    {
      "midi": 69,
      "hit": false,
      "t": 19626.587033203123,
      "d": 205.46900683593412,
      "v": 50
    },
    {
      "midi": 65,
      "hit": false,
      "t": 19821.118526367183,
      "d": 213.2815166015571,
      "v": 50
    },
    {
      "midi": 69,
      "hit": false,
      "t": 20023.462529296867,
      "d": 212.50026562499625,
      "v": 51
    },
    {
      "midi": 60,
      "hit": false,
      "t": 20023.462529296867,
      "d": 370.31296289062084,
      "v": 63
    },
    {
      "midi": 48,
      "hit": false,
      "t": 20023.46252929687,
      "d": 370.3129628906245,
      "v": 102
    },
    {
      "midi": 72,
      "hit": false,
      "t": 20225.02528124999,
      "d": 203.9065048828088,
      "v": 50
    },
    {
      "midi": 69,
      "hit": false,
      "t": 20417.994272460925,
      "d": 204.68775585937328,
      "v": 50
    },
    {
      "midi": 65,
      "hit": false,
      "t": 20417.994272460925,
      "d": 374.21921777343596,
      "v": 62
    },
    {
      "midi": 53,
      "hit": false,
      "t": 20417.994272460932,
      "d": 374.21921777343596,
      "v": 101
    },
    {
      "midi": 72,
      "hit": false,
      "t": 20611.744514648424,
      "d": 215.6252695312469,
      "v": 50
    },
    {
      "midi": 69,
      "hit": false,
      "t": 20816.432270507798,
      "d": 216.40652050781136,
      "v": 53
    },
    {
      "midi": 64,
      "hit": false,
      "t": 20816.432270507798,
      "d": 374.21921777343596,
      "v": 65
    },
    {
      "midi": 52,
      "hit": false,
      "t": 20816.432270507805,
      "d": 374.21921777343596,
      "v": 104
    },
    {
      "midi": 72,
      "hit": false,
      "t": 21021.901277343735,
      "d": 203.9065048828088,
      "v": 50
    },
    {
      "midi": 69,
      "hit": false,
      "t": 21214.87026855467,
      "d": 204.68775585937328,
      "v": 50
    },
    {
      "midi": 60,
      "hit": false,
      "t": 21214.87026855467,
      "d": 370.3129628906245,
      "v": 62
    },
    {
      "midi": 48,
      "hit": false,
      "t": 21214.870268554678,
      "d": 370.3129628906245,
      "v": 101
    },
    {
      "midi": 65,
      "hit": false,
      "t": 21408.62051074217,
      "d": 211.7190146484354,
      "v": 50
    },
    {
      "midi": 64,
      "hit": false,
      "t": 21609.402011718732,
      "d": 211.7190146484354,
      "v": 51
    },
    {
      "midi": 57,
      "hit": false,
      "t": 21609.402011718732,
      "d": 789.8447373046838,
      "v": 63
    },
    {
      "midi": 45,
      "hit": false,
      "t": 21609.40201171874,
      "d": 789.8447373046874,
      "v": 102
    },
    {
      "midi": 69,
      "hit": false,
      "t": 21810.183512695294,
      "d": 204.68775585937328,
      "v": 50
    },
    {
      "midi": 64,
      "hit": false,
      "t": 22003.933754882793,
      "d": 204.68775585937328,
      "v": 50
    },
    {
      "midi": 65,
      "hit": false,
      "t": 22197.683997070293,
      "d": 213.28151660156072,
      "v": 50
    },
    {
      "midi": 67,
      "hit": false,
      "t": 22403.153003906227,
      "d": 2405.471756835934,
      "v": 62
    },
    {
      "midi": 36,
      "hit": false,
      "t": 22403.153003906238,
      "d": 3196.0977451171784,
      "v": 91
    },
    {
      "midi": 60,
      "hit": false,
      "t": 22826.591033203105,
      "d": 372.65671582031064,
      "v": 62
    },
    {
      "midi": 48,
      "hit": false,
      "t": 22826.591033203113,
      "d": 372.65671582031064,
      "v": 101
    },
    {
      "midi": 62,
      "hit": false,
      "t": 23223.466529296853,
      "d": 370.3129628906245,
      "v": 63
    },
    {
      "midi": 50,
      "hit": false,
      "t": 23223.46652929686,
      "d": 370.3129628906245,
      "v": 102
    },
    {
      "midi": 63,
      "hit": false,
      "t": 23617.998272460914,
      "d": 374.21921777343596,
      "v": 62
    },
    {
      "midi": 51,
      "hit": false,
      "t": 23617.99827246092,
      "d": 374.21921777343596,
      "v": 101
    },
    {
      "midi": 65,
      "hit": false,
      "t": 24016.436270507787,
      "d": 374.21921777343596,
      "v": 65
    },
    {
      "midi": 53,
      "hit": false,
      "t": 24016.436270507795,
      "d": 374.21921777343596,
      "v": 104
    },
    {
      "midi": 63,
      "hit": false,
      "t": 24414.87426855466,
      "d": 181.25022656250076,
      "v": 62
    },
    {
      "midi": 51,
      "hit": false,
      "t": 24414.874268554668,
      "d": 181.25022656250076,
      "v": 101
    },
    {
      "midi": 62,
      "hit": false,
      "t": 24608.62451074216,
      "d": 188.28148535156288,
      "v": 62
    },
    {
      "midi": 50,
      "hit": false,
      "t": 24608.624510742167,
      "d": 188.28148535156288,
      "v": 101
    },
    {
      "midi": 67,
      "hit": false,
      "t": 24809.406011718722,
      "d": 370.3129628906245,
      "v": 63
    },
    {
      "midi": 63,
      "hit": false,
      "t": 24809.406011718722,
      "d": 370.3129628906245,
      "v": 63
    },
    {
      "midi": 51,
      "hit": false,
      "t": 24809.40601171873,
      "d": 370.3129628906245,
      "v": 102
    },
    {
      "midi": 69,
      "hit": false,
      "t": 25203.937754882783,
      "d": 371.8754648437498,
      "v": 62
    },
    {
      "midi": 60,
      "hit": false,
      "t": 25203.937754882783,
      "d": 371.8754648437498,
      "v": 62
    },
    {
      "midi": 48,
      "hit": false,
      "t": 25203.93775488279,
      "d": 371.8754648437498,
      "v": 101
    },
    {
      "midi": 74,
      "hit": false,
      "t": 25603.15700390622,
      "d": 239.84404980468753,
      "v": 55
    },
    {
      "midi": 62,
      "hit": false,
      "t": 25603.15700390622,
      "d": 1214.064017578119,
      "v": 67
    },
    {
      "midi": 50,
      "hit": false,
      "t": 25603.157003906228,
      "d": 1214.0640175781264,
      "v": 106
    },
    {
      "midi": 55,
      "hit": false,
      "t": 25603.157003906228,
      "d": 3196.097745117182,
      "v": 107
    },
    {
      "midi": 79,
      "hit": false,
      "t": 25832.063540039035,
      "d": 205.46900683593412,
      "v": 50
    },
    {
      "midi": 71,
      "hit": false,
      "t": 26026.595033203095,
      "d": 205.46900683593412,
      "v": 50
    },
    {
      "midi": 74,
      "hit": false,
      "t": 26221.126526367156,
      "d": 213.28151660156072,
      "v": 50
    },
    {
      "midi": 79,
      "hit": false,
      "t": 26423.470529296843,
      "d": 212.50026562499625,
      "v": 51
    },
    {
      "midi": 71,
      "hit": false,
      "t": 26625.033281249966,
      "d": 203.9065048828088,
      "v": 50
    },
    {
      "midi": 74,
      "hit": false,
      "t": 26818.0022724609,
      "d": 204.68775585937328,
      "v": 50
    },
    {
      "midi": 63,
      "hit": false,
      "t": 26818.0022724609,
      "d": 374.21921777343596,
      "v": 62
    },
    {
      "midi": 51,
      "hit": false,
      "t": 26818.002272460915,
      "d": 374.21921777343596,
      "v": 101
    },
    {
      "midi": 71,
      "hit": false,
      "t": 27011.7525146484,
      "d": 215.6252695312469,
      "v": 50
    },
    {
      "midi": 74,
      "hit": false,
      "t": 27216.440270507774,
      "d": 216.40652050781136,
      "v": 53
    },
    {
      "midi": 62,
      "hit": false,
      "t": 27216.440270507774,
      "d": 374.21921777343596,
      "v": 65
    },
    {
      "midi": 50,
      "hit": false,
      "t": 27216.44027050779,
      "d": 374.21921777343596,
      "v": 104
    },
    {
      "midi": 67,
      "hit": false,
      "t": 27421.90927734371,
      "d": 203.9065048828088,
      "v": 50
    },
    {
      "midi": 71,
      "hit": false,
      "t": 27614.878268554647,
      "d": 204.68775585937328,
      "v": 50
    },
    {
      "midi": 59,
      "hit": false,
      "t": 27614.878268554647,
      "d": 370.3129628906245,
      "v": 62
    },
    {
      "midi": 47,
      "hit": false,
      "t": 27614.87826855466,
      "d": 370.3129628906245,
      "v": 101
    },
    {
      "midi": 74,
      "hit": false,
      "t": 27808.628510742146,
      "d": 211.7190146484354,
      "v": 50
    },
    {
      "midi": 71,
      "hit": false,
      "t": 28009.410011718708,
      "d": 211.7190146484354,
      "v": 51
    },
    {
      "midi": 57,
      "hit": false,
      "t": 28009.410011718708,
      "d": 370.3129628906245,
      "v": 63
    },
    {
      "midi": 45,
      "hit": false,
      "t": 28009.410011718723,
      "d": 370.3129628906245,
      "v": 102
    },
    {
      "midi": 74,
      "hit": false,
      "t": 28210.19151269527,
      "d": 204.68775585937328,
      "v": 50
    },
    {
      "midi": 67,
      "hit": false,
      "t": 28403.94175488277,
      "d": 204.68775585937328,
      "v": 50
    },
    {
      "midi": 55,
      "hit": false,
      "t": 28403.94175488277,
      "d": 371.8754648437498,
      "v": 62
    },
    {
      "midi": 43,
      "hit": false,
      "t": 28403.941754882784,
      "d": 371.8754648437498,
      "v": 101
    },
    {
      "midi": 71,
      "hit": false,
      "t": 28597.69199707027,
      "d": 213.28151660156436,
      "v": 50
    },
    {
      "midi": 65,
      "hit": false,
      "t": 28803.161003906207,
      "d": 1214.0640175781264,
      "v": 67
    },
    {
      "midi": 46,
      "hit": false,
      "t": 28803.16100390622,
      "d": 3196.097745117182,
      "v": 93
    },
    {
      "midi": 70,
      "hit": false,
      "t": 29226.599033203085,
      "d": 372.65671582031064,
      "v": 62
    },
    {
      "midi": 58,
      "hit": false,
      "t": 29226.599033203096,
      "d": 372.6567158203143,
      "v": 101
    },
    {
      "midi": 68,
      "hit": false,
      "t": 29623.474529296833,
      "d": 370.3129628906245,
      "v": 63
    },
    {
      "midi": 56,
      "hit": false,
      "t": 29623.474529296847,
      "d": 370.3129628906245,
      "v": 102
    },
    {
      "midi": 67,
      "hit": false,
      "t": 30018.006272460894,
      "d": 374.21921777343596,
      "v": 62
    },
    {
      "midi": 55,
      "hit": false,
      "t": 30018.00627246091,
      "d": 374.21921777343596,
      "v": 101
    },
    {
      "midi": 68,
      "hit": false,
      "t": 30416.444270507767,
      "d": 374.21921777343596,
      "v": 65
    },
    {
      "midi": 65,
      "hit": false,
      "t": 30416.444270507767,
      "d": 792.1884902343736,
      "v": 65
    },
    {
      "midi": 53,
      "hit": false,
      "t": 30416.44427050778,
      "d": 792.1884902343736,
      "v": 104
    },
    {
      "midi": 70,
      "hit": false,
      "t": 30814.88226855464,
      "d": 370.3129628906245,
      "v": 62
    },
    {
      "midi": 65,
      "hit": false,
      "t": 31209.4140117187,
      "d": 370.3129628906245,
      "v": 63
    },
    {
      "midi": 73,
      "hit": false,
      "t": 31209.4140117187,
      "d": 370.3129628906245,
      "v": 63
    },
    {
      "midi": 53,
      "hit": false,
      "t": 31209.414011718716,
      "d": 370.3129628906245,
      "v": 102
    },
    {
      "midi": 67,
      "hit": false,
      "t": 31603.945754882763,
      "d": 371.8754648437498,
      "v": 62
    },
    {
      "midi": 75,
      "hit": false,
      "t": 31603.945754882763,
      "d": 371.8754648437498,
      "v": 62
    },
    {
      "midi": 55,
      "hit": false,
      "t": 31603.945754882778,
      "d": 371.8754648437498,
      "v": 101
    },
    {
      "midi": 69,
      "hit": false,
      "t": 32003.1650039062,
      "d": 819.5322744140649,
      "v": 67
    },
    {
      "midi": 72,
      "hit": false,
      "t": 32003.1650039062,
      "d": 819.5322744140649,
      "v": 67
    },
    {
      "midi": 57,
      "hit": false,
      "t": 32003.165003906215,
      "d": 819.5322744140649,
      "v": 106
    },
    {
      "midi": 41,
      "hit": false,
      "t": 32003.165003906215,
      "d": 3196.0977451172002,
      "v": 93
    },
    {
      "midi": 53,
      "hit": false,
      "t": 32003.165003906215,
      "d": 3196.0977451172002,
      "v": 107
    },
    {
      "midi": 69,
      "hit": false,
      "t": 32823.47852929683,
      "d": 792.1884902343736,
      "v": 63
    },
    {
      "midi": 60,
      "hit": false,
      "t": 32823.47852929683,
      "d": 1956.2524453125006,
      "v": 63
    },
    {
      "midi": 48,
      "hit": false,
      "t": 32823.478529296844,
      "d": 1956.2524453125006,
      "v": 102
    },
    {
      "midi": 77,
      "hit": false,
      "t": 33616.44827050777,
      "d": 1186.7202333984387,
      "v": 65
    },
    {
      "midi": 69,
      "hit": false,
      "t": 34803.94975488277,
      "d": 371.87546484375343,
      "v": 62
    },
    {
      "midi": 72,
      "hit": false,
      "t": 34803.94975488277,
      "d": 371.87546484375343,
      "v": 62
    },
    {
      "midi": 57,
      "hit": false,
      "t": 34803.949754882786,
      "d": 371.87546484375343,
      "v": 101
    },
    {
      "midi": 68,
      "hit": false,
      "t": 35203.16900390621,
      "d": 819.5322744140649,
      "v": 67
    },
    {
      "midi": 71,
      "hit": false,
      "t": 35203.16900390621,
      "d": 1214.06401757813,
      "v": 67
    },
    {
      "midi": 44,
      "hit": false,
      "t": 35203.16900390623,
      "d": 4796.099745117186,
      "v": 93
    },
    {
      "midi": 56,
      "hit": false,
      "t": 35203.16900390623,
      "d": 4796.099745117186,
      "v": 107
    },
    {
      "midi": 63,
      "hit": false,
      "t": 36023.48252929684,
      "d": 3975.7862197265713,
      "v": 62
    },
    {
      "midi": 68,
      "hit": false,
      "t": 36418.0142724609,
      "d": 374.2192177734396,
      "v": 62
    },
    {
      "midi": 75,
      "hit": false,
      "t": 36816.45227050778,
      "d": 3182.816478515626,
      "v": 65
    },
    {
      "midi": 58,
      "hit": false,
      "t": 40003.175003906224,
      "d": 399.21924902343744,
      "v": 83
    },
    {
      "midi": 51,
      "hit": false,
      "t": 40003.17500390623,
      "d": 422.6567783203136,
      "v": 127
    },
    {
      "midi": 63,
      "hit": false,
      "t": 40426.6130332031,
      "d": 372.65671582031064,
      "v": 62
    },
    {
      "midi": 51,
      "hit": false,
      "t": 40426.61303320311,
      "d": 396.0942451171868,
      "v": 101
    },
    {
      "midi": 65,
      "hit": false,
      "t": 40823.488529296854,
      "d": 370.3129628906245,
      "v": 79
    },
    {
      "midi": 51,
      "hit": false,
      "t": 40823.48852929686,
      "d": 393.75049218750064,
      "v": 127
    },
    {
      "midi": 58,
      "hit": false,
      "t": 41218.02027246092,
      "d": 374.2192177734396,
      "v": 62
    },
    {
      "midi": 51,
      "hit": false,
      "t": 41218.020272460926,
      "d": 374.2192177734396,
      "v": 101
    },
    {
      "midi": 68,
      "hit": false,
      "t": 41616.4582705078,
      "d": 374.2192177734396,
      "v": 81
    },
    {
      "midi": 47,
      "hit": false,
      "t": 41616.45827050781,
      "d": 374.2192177734396,
      "v": 127
    },
    {
      "midi": 66,
      "hit": false,
      "t": 42014.89626855468,
      "d": 181.25022656250076,
      "v": 62
    },
    {
      "midi": 51,
      "hit": false,
      "t": 42014.89626855469,
      "d": 370.3129628906245,
      "v": 101
    },
    {
      "midi": 65,
      "hit": false,
      "t": 42208.64651074218,
      "d": 188.28148535155924,
      "v": 62
    },
    {
      "midi": 66,
      "hit": false,
      "t": 42409.428011718745,
      "d": 370.3129628906245,
      "v": 79
    },
    {
      "midi": 46,
      "hit": false,
      "t": 42409.42801171875,
      "d": 370.3129628906245,
      "v": 127
    },
    {
      "midi": 63,
      "hit": false,
      "t": 42803.95975488281,
      "d": 371.87546484375343,
      "v": 62
    },
    {
      "midi": 51,
      "hit": false,
      "t": 42803.95975488282,
      "d": 371.87546484375343,
      "v": 101
    },
    {
      "midi": 68,
      "hit": false,
      "t": 43203.17900390625,
      "d": 399.21924902343744,
      "v": 83
    },
    {
      "midi": 47,
      "hit": false,
      "t": 43203.179003906254,
      "d": 399.21924902343744,
      "v": 127
    },
    {
      "midi": 66,
      "hit": false,
      "t": 43626.617033203125,
      "d": 182.03147753906524,
      "v": 62
    },
    {
      "midi": 51,
      "hit": false,
      "t": 43626.61703320313,
      "d": 372.65671582031064,
      "v": 101
    },
    {
      "midi": 65,
      "hit": false,
      "t": 43821.14852636719,
      "d": 189.8439873046882,
      "v": 62
    },
    {
      "midi": 66,
      "hit": false,
      "t": 44023.492529296884,
      "d": 370.3129628906245,
      "v": 79
    },
    {
      "midi": 46,
      "hit": false,
      "t": 44023.492529296884,
      "d": 370.3129628906245,
      "v": 127
    },
    {
      "midi": 63,
      "hit": false,
      "t": 44418.02427246095,
      "d": 397.65674707031576,
      "v": 62
    },
    {
      "midi": 51,
      "hit": false,
      "t": 44418.02427246095,
      "d": 397.65674707031576,
      "v": 101
    },
    {
      "midi": 63,
      "hit": false,
      "t": 44816.46227050783,
      "d": 397.65674707031576,
      "v": 57
    },
    {
      "midi": 65,
      "hit": false,
      "t": 44816.46227050783,
      "d": 397.65674707031576,
      "v": 67
    },
    {
      "midi": 51,
      "hit": false,
      "t": 44816.46227050783,
      "d": 397.65674707031576,
      "v": 104
    },
    {
      "midi": 63,
      "hit": false,
      "t": 45214.90026855471,
      "d": 393.75049218750064,
      "v": 54
    },
    {
      "midi": 65,
      "hit": false,
      "t": 45214.90026855471,
      "d": 393.75049218750064,
      "v": 68
    },
    {
      "midi": 51,
      "hit": false,
      "t": 45214.90026855471,
      "d": 393.75049218750064,
      "v": 101
    },
    {
      "midi": 63,
      "hit": false,
      "t": 45609.432011718774,
      "d": 393.75049218750064,
      "v": 55
    },
    {
      "midi": 66,
      "hit": false,
      "t": 45609.432011718774,
      "d": 393.75049218750064,
      "v": 69
    },
    {
      "midi": 51,
      "hit": false,
      "t": 45609.432011718774,
      "d": 393.75049218750064,
      "v": 102
    },
    {
      "midi": 63,
      "hit": false,
      "t": 46003.96375488284,
      "d": 371.87546484375343,
      "v": 54
    },
    {
      "midi": 66,
      "hit": false,
      "t": 46003.96375488284,
      "d": 395.3129941406296,
      "v": 68
    },
    {
      "midi": 51,
      "hit": false,
      "t": 46003.96375488284,
      "d": 371.87546484375343,
      "v": 101
    },
    {
      "midi": 39,
      "hit": false,
      "t": 46403.18300390628,
      "d": 399.21924902343744,
      "v": 127
    },
    {
      "midi": 34,
      "hit": false,
      "t": 46403.18300390628,
      "d": 1612.5020156250102,
      "v": 104
    },
    {
      "midi": 58,
      "hit": false,
      "t": 46403.183003906284,
      "d": 399.21924902343744,
      "v": 75
    },
    {
      "midi": 70,
      "hit": false,
      "t": 46403.183003906284,
      "d": 422.6567783203136,
      "v": 89
    },
    {
      "midi": 51,
      "hit": false,
      "t": 46826.621033203155,
      "d": 396.0942451171868,
      "v": 101
    },
    {
      "midi": 63,
      "hit": false,
      "t": 46826.62103320316,
      "d": 372.65671582031064,
      "v": 54
    },
    {
      "midi": 75,
      "hit": false,
      "t": 46826.62103320316,
      "d": 396.0942451171868,
      "v": 68
    },
    {
      "midi": 51,
      "hit": false,
      "t": 47223.49652929691,
      "d": 393.75049218750064,
      "v": 127
    },
    {
      "midi": 65,
      "hit": false,
      "t": 47223.496529296914,
      "d": 370.3129628906245,
      "v": 71
    },
    {
      "midi": 77,
      "hit": false,
      "t": 47223.496529296914,
      "d": 393.75049218750064,
      "v": 85
    },
    {
      "midi": 51,
      "hit": false,
      "t": 47618.02827246097,
      "d": 374.2192177734396,
      "v": 101
    },
    {
      "midi": 58,
      "hit": false,
      "t": 47618.02827246098,
      "d": 374.2192177734396,
      "v": 54
    },
    {
      "midi": 70,
      "hit": false,
      "t": 47618.02827246098,
      "d": 397.65674707031576,
      "v": 68
    },
    {
      "midi": 47,
      "hit": false,
      "t": 48016.46627050785,
      "d": 374.2192177734396,
      "v": 127
    },
    {
      "midi": 35,
      "hit": false,
      "t": 48016.46627050785,
      "d": 792.1884902343809,
      "v": 102
    },
    {
      "midi": 68,
      "hit": false,
      "t": 48016.46627050786,
      "d": 374.2192177734396,
      "v": 73
    },
    {
      "midi": 80,
      "hit": false,
      "t": 48016.46627050786,
      "d": 397.65674707031576,
      "v": 87
    },
    {
      "midi": 51,
      "hit": false,
      "t": 48414.90426855473,
      "d": 370.3129628906245,
      "v": 101
    },
    {
      "midi": 66,
      "hit": false,
      "t": 48414.90426855474,
      "d": 181.25022656250076,
      "v": 54
    },
    {
      "midi": 78,
      "hit": false,
      "t": 48414.90426855474,
      "d": 192.96899121093884,
      "v": 68
    },
    {
      "midi": 65,
      "hit": false,
      "t": 48608.65451074224,
      "d": 188.28148535155924,
      "v": 54
    },
    {
      "midi": 77,
      "hit": false,
      "t": 48608.65451074224,
      "d": 200.00024999999732,
      "v": 68
    },
    {
      "midi": 46,
      "hit": false,
      "t": 48809.4360117188,
      "d": 370.3129628906245,
      "v": 127
    },
    {
      "midi": 34,
      "hit": false,
      "t": 48809.4360117188,
      "d": 789.8447373046947,
      "v": 100
    },
    {
      "midi": 66,
      "hit": false,
      "t": 48809.436011718804,
      "d": 370.3129628906245,
      "v": 71
    },
    {
      "midi": 78,
      "hit": false,
      "t": 48809.436011718804,
      "d": 393.75049218750064,
      "v": 85
    },
    {
      "midi": 51,
      "hit": false,
      "t": 49203.96775488286,
      "d": 371.87546484375343,
      "v": 101
    },
    {
      "midi": 63,
      "hit": false,
      "t": 49203.96775488287,
      "d": 371.87546484375343,
      "v": 54
    },
    {
      "midi": 75,
      "hit": false,
      "t": 49203.96775488287,
      "d": 395.3129941406296,
      "v": 68
    },
    {
      "midi": 47,
      "hit": false,
      "t": 49603.18700390631,
      "d": 399.21924902343744,
      "v": 127
    },
    {
      "midi": 35,
      "hit": false,
      "t": 49603.18700390631,
      "d": 819.5322744140649,
      "v": 104
    },
    {
      "midi": 68,
      "hit": false,
      "t": 49603.187003906314,
      "d": 399.21924902343744,
      "v": 75
    },
    {
      "midi": 80,
      "hit": false,
      "t": 49603.187003906314,
      "d": 422.6567783203136,
      "v": 89
    },
    {
      "midi": 51,
      "hit": false,
      "t": 50026.625033203185,
      "d": 372.65671582031064,
      "v": 101
    },
    {
      "midi": 66,
      "hit": false,
      "t": 50026.62503320319,
      "d": 182.03147753906524,
      "v": 54
    },
    {
      "midi": 78,
      "hit": false,
      "t": 50026.62503320319,
      "d": 193.75024218750332,
      "v": 68
    },
    {
      "midi": 65,
      "hit": false,
      "t": 50221.15652636726,
      "d": 189.8439873046882,
      "v": 54
    },
    {
      "midi": 77,
      "hit": false,
      "t": 50221.15652636726,
      "d": 201.56275195312628,
      "v": 68
    },
    {
      "midi": 46,
      "hit": false,
      "t": 50423.500529296936,
      "d": 370.3129628906245,
      "v": 127
    },
    {
      "midi": 34,
      "hit": false,
      "t": 50423.500529296936,
      "d": 792.1884902343809,
      "v": 100
    },
    {
      "midi": 66,
      "hit": false,
      "t": 50423.50052929695,
      "d": 393.75049218750064,
      "v": 71
    },
    {
      "midi": 78,
      "hit": false,
      "t": 50423.50052929695,
      "d": 393.75049218750064,
      "v": 85
    },
    {
      "midi": 51,
      "hit": false,
      "t": 50818.032272461,
      "d": 397.65674707031576,
      "v": 101
    },
    {
      "midi": 63,
      "hit": false,
      "t": 50818.032272461016,
      "d": 397.65674707031576,
      "v": 54
    },
    {
      "midi": 66,
      "hit": false,
      "t": 50818.032272461016,
      "d": 397.65674707031576,
      "v": 68
    },
    {
      "midi": 51,
      "hit": false,
      "t": 51216.47027050788,
      "d": 397.65674707031576,
      "v": 104
    },
    {
      "midi": 39,
      "hit": false,
      "t": 51216.47027050788,
      "d": 792.1884902343809,
      "v": 103
    },
    {
      "midi": 63,
      "hit": false,
      "t": 51216.470270507896,
      "d": 397.65674707031576,
      "v": 57
    },
    {
      "midi": 66,
      "hit": false,
      "t": 51216.470270507896,
      "d": 397.65674707031576,
      "v": 67
    },
    {
      "midi": 51,
      "hit": false,
      "t": 51614.90826855476,
      "d": 393.75049218750064,
      "v": 101
    },
    {
      "midi": 63,
      "hit": false,
      "t": 51614.90826855478,
      "d": 393.75049218750064,
      "v": 54
    },
    {
      "midi": 66,
      "hit": false,
      "t": 51614.90826855478,
      "d": 393.75049218750064,
      "v": 68
    },
    {
      "midi": 51,
      "hit": false,
      "t": 52009.44001171883,
      "d": 393.75049218750064,
      "v": 102
    },
    {
      "midi": 41,
      "hit": false,
      "t": 52009.44001171883,
      "d": 789.8447373046874,
      "v": 102
    },
    {
      "midi": 63,
      "hit": false,
      "t": 52009.44001171884,
      "d": 393.75049218750064,
      "v": 55
    },
    {
      "midi": 65,
      "hit": false,
      "t": 52009.44001171884,
      "d": 393.75049218750064,
      "v": 69
    },
    {
      "midi": 51,
      "hit": false,
      "t": 52403.97175488289,
      "d": 395.3129941406223,
      "v": 101
    },
    {
      "midi": 63,
      "hit": false,
      "t": 52403.97175488291,
      "d": 371.87546484375343,
      "v": 54
    },
    {
      "midi": 65,
      "hit": false,
      "t": 52403.97175488291,
      "d": 395.3129941406296,
      "v": 68
    },
    {
      "midi": 51,
      "hit": false,
      "t": 52803.19100390633,
      "d": 422.6567783203136,
      "v": 127
    },
    {
      "midi": 42,
      "hit": false,
      "t": 52803.19100390633,
      "d": 1612.5020156250102,
      "v": 106
    },
    {
      "midi": 58,
      "hit": false,
      "t": 52803.19100390635,
      "d": 399.21924902343744,
      "v": 75
    },
    {
      "midi": 70,
      "hit": false,
      "t": 52803.19100390635,
      "d": 422.6567783203136,
      "v": 89
    },
    {
      "midi": 51,
      "hit": false,
      "t": 53226.62903320321,
      "d": 396.0942451171868,
      "v": 101
    },
    {
      "midi": 63,
      "hit": false,
      "t": 53226.62903320323,
      "d": 372.65671582031064,
      "v": 54
    },
    {
      "midi": 75,
      "hit": false,
      "t": 53226.62903320323,
      "d": 396.0942451171868,
      "v": 68
    },
    {
      "midi": 51,
      "hit": false,
      "t": 53623.50452929696,
      "d": 393.75049218750064,
      "v": 127
    },
    {
      "midi": 65,
      "hit": false,
      "t": 53623.50452929698,
      "d": 370.3129628906245,
      "v": 71
    },
    {
      "midi": 77,
      "hit": false,
      "t": 53623.50452929698,
      "d": 393.75049218750064,
      "v": 85
    },
    {
      "midi": 51,
      "hit": false,
      "t": 54018.036272461024,
      "d": 374.2192177734396,
      "v": 101
    },
    {
      "midi": 47,
      "hit": false,
      "t": 54416.474270507904,
      "d": 374.2192177734396,
      "v": 127
    },
    {
      "midi": 44,
      "hit": false,
      "t": 54416.474270507904,
      "d": 792.1884902343809,
      "v": 104
    },
    {
      "midi": 68,
      "hit": false,
      "t": 54416.47427050792,
      "d": 374.2192177734396,
      "v": 73
    },
    {
      "midi": 80,
      "hit": false,
      "t": 54416.47427050792,
      "d": 397.65674707031576,
      "v": 87
    },
    {
      "midi": 51,
      "hit": false,
      "t": 54814.912268554785,
      "d": 370.3129628906245,
      "v": 101
    },
    {
      "midi": 66,
      "hit": false,
      "t": 54814.9122685548,
      "d": 181.25022656250076,
      "v": 54
    },
    {
      "midi": 78,
      "hit": false,
      "t": 54814.9122685548,
      "d": 192.96899121093884,
      "v": 68
    },
    {
      "midi": 65,
      "hit": false,
      "t": 55008.6625107423,
      "d": 188.28148535155924,
      "v": 54
    },
    {
      "midi": 77,
      "hit": false,
      "t": 55008.6625107423,
      "d": 200.00024999999732,
      "v": 68
    },
    {
      "midi": 46,
      "hit": false,
      "t": 55209.44401171885,
      "d": 370.3129628906245,
      "v": 127
    },
    {
      "midi": 42,
      "hit": false,
      "t": 55209.44401171885,
      "d": 789.8447373046874,
      "v": 102
    },
    {
      "midi": 66,
      "hit": false,
      "t": 55209.444011718864,
      "d": 370.3129628906245,
      "v": 71
    },
    {
      "midi": 78,
      "hit": false,
      "t": 55209.444011718864,
      "d": 393.75049218750064,
      "v": 85
    },
    {
      "midi": 51,
      "hit": false,
      "t": 55603.975754882915,
      "d": 395.3129941406223,
      "v": 101
    },
    {
      "midi": 63,
      "hit": false,
      "t": 55603.97575488293,
      "d": 371.87546484375343,
      "v": 54
    },
    {
      "midi": 75,
      "hit": false,
      "t": 55603.97575488293,
      "d": 395.3129941406296,
      "v": 68
    },
    {
      "midi": 51,
      "hit": false,
      "t": 56003.19500390635,
      "d": 422.6567783203136,
      "v": 127
    },
    {
      "midi": 47,
      "hit": false,
      "t": 56003.19500390635,
      "d": 819.5322744140649,
      "v": 106
    },
    {
      "midi": 71,
      "hit": false,
      "t": 56003.195003906374,
      "d": 399.21924902343744,
      "v": 75
    },
    {
      "midi": 83,
      "hit": false,
      "t": 56003.195003906374,
      "d": 422.6567783203136,
      "v": 89
    },
    {
      "midi": 51,
      "hit": false,
      "t": 56426.63303320323,
      "d": 396.0942451171868,
      "v": 101
    },
    {
      "midi": 70,
      "hit": false,
      "t": 56426.63303320325,
      "d": 182.03147753906524,
      "v": 54
    },
    {
      "midi": 82,
      "hit": false,
      "t": 56426.63303320325,
      "d": 193.75024218750332,
      "v": 68
    },
    {
      "midi": 68,
      "hit": false,
      "t": 56621.16452636732,
      "d": 189.8439873046882,
      "v": 54
    },
    {
      "midi": 80,
      "hit": false,
      "t": 56621.16452636732,
      "d": 201.56275195312628,
      "v": 68
    },
    {
      "midi": 51,
      "hit": false,
      "t": 56823.50852929698,
      "d": 393.75049218750064,
      "v": 127
    },
    {
      "midi": 70,
      "hit": false,
      "t": 56823.50852929701,
      "d": 370.3129628906245,
      "v": 71
    },
    {
      "midi": 82,
      "hit": false,
      "t": 56823.50852929701,
      "d": 393.75049218750064,
      "v": 85
    },
    {
      "midi": 51,
      "hit": false,
      "t": 57218.04027246105,
      "d": 374.2192177734396,
      "v": 101
    },
    {
      "midi": 63,
      "hit": false,
      "t": 57218.040272461076,
      "d": 397.65674707031576,
      "v": 54
    },
    {
      "midi": 66,
      "hit": false,
      "t": 57218.040272461076,
      "d": 397.65674707031576,
      "v": 68
    },
    {
      "midi": 46,
      "hit": false,
      "t": 57616.47827050793,
      "d": 374.2192177734396,
      "v": 104
    },
    {
      "midi": 63,
      "hit": false,
      "t": 57616.478270507956,
      "d": 397.65674707031576,
      "v": 57
    },
    {
      "midi": 66,
      "hit": false,
      "t": 57616.478270507956,
      "d": 397.65674707031576,
      "v": 67
    },
    {
      "midi": 47,
      "hit": false,
      "t": 58014.91626855481,
      "d": 181.25022656250076,
      "v": 101
    },
    {
      "midi": 58,
      "hit": false,
      "t": 58014.91626855481,
      "d": 370.31296289063175,
      "v": 101
    },
    {
      "midi": 71,
      "hit": false,
      "t": 58014.916268554836,
      "d": 181.25022656250076,
      "v": 62
    },
    {
      "midi": 63,
      "hit": false,
      "t": 58014.916268554836,
      "d": 393.75049218750064,
      "v": 54
    },
    {
      "midi": 66,
      "hit": false,
      "t": 58014.916268554836,
      "d": 393.75049218750064,
      "v": 64
    },
    {
      "midi": 46,
      "hit": false,
      "t": 58208.66651074231,
      "d": 188.28148535156652,
      "v": 101
    },
    {
      "midi": 70,
      "hit": false,
      "t": 58208.66651074234,
      "d": 188.28148535155924,
      "v": 62
    },
    {
      "midi": 46,
      "hit": false,
      "t": 58409.44801171888,
      "d": 370.3129628906245,
      "v": 102
    },
    {
      "midi": 42,
      "hit": false,
      "t": 58409.44801171888,
      "d": 370.3129628906245,
      "v": 102
    },
    {
      "midi": 63,
      "hit": false,
      "t": 58409.4480117189,
      "d": 370.3129628906245,
      "v": 63
    },
    {
      "midi": 66,
      "hit": false,
      "t": 58409.4480117189,
      "d": 370.3129628906245,
      "v": 63
    },
    {
      "midi": 39,
      "hit": false,
      "t": 58803.979754882945,
      "d": 371.87546484375343,
      "v": 100
    },
    {
      "midi": 58,
      "hit": false,
      "t": 58803.97975488297,
      "d": 371.87546484375343,
      "v": 62
    },
    {
      "midi": 63,
      "hit": false,
      "t": 58803.97975488297,
      "d": 371.87546484375343,
      "v": 62
    },
    {
      "midi": 35,
      "hit": false,
      "t": 59203.19900390638,
      "d": 3196.097745117215,
      "v": 91
    },
    {
      "midi": 47,
      "hit": false,
      "t": 59203.19900390638,
      "d": 3196.097745117215,
      "v": 107
    },
    {
      "midi": 63,
      "hit": false,
      "t": 59203.199003906404,
      "d": 1214.0640175781227,
      "v": 59
    },
    {
      "midi": 75,
      "hit": false,
      "t": 59203.199003906404,
      "d": 1214.0640175781227,
      "v": 73
    },
    {
      "midi": 49,
      "hit": false,
      "t": 59626.63703320326,
      "d": 372.65671582031064,
      "v": 101
    },
    {
      "midi": 51,
      "hit": false,
      "t": 60023.51252929701,
      "d": 370.3129628906245,
      "v": 102
    },
    {
      "midi": 49,
      "hit": false,
      "t": 60418.04427246108,
      "d": 374.2192177734396,
      "v": 101
    },
    {
      "midi": 61,
      "hit": false,
      "t": 60418.04427246109,
      "d": 374.2192177734396,
      "v": 54
    },
    {
      "midi": 73,
      "hit": false,
      "t": 60418.04427246109,
      "d": 397.65674707031576,
      "v": 68
    },
    {
      "midi": 51,
      "hit": false,
      "t": 60816.48227050796,
      "d": 374.2192177734396,
      "v": 104
    },
    {
      "midi": 63,
      "hit": false,
      "t": 60816.48227050797,
      "d": 374.2192177734396,
      "v": 57
    },
    {
      "midi": 75,
      "hit": false,
      "t": 60816.48227050797,
      "d": 397.65674707031576,
      "v": 71
    },
    {
      "midi": 53,
      "hit": false,
      "t": 61214.92026855484,
      "d": 192.96899121093884,
      "v": 89
    },
    {
      "midi": 65,
      "hit": false,
      "t": 61214.92026855485,
      "d": 370.3129628906245,
      "v": 54
    },
    {
      "midi": 77,
      "hit": false,
      "t": 61214.92026855485,
      "d": 393.75049218750064,
      "v": 68
    },
    {
      "midi": 53,
      "hit": false,
      "t": 61408.67051074234,
      "d": 211.7190146484354,
      "v": 89
    },
    {
      "midi": 54,
      "hit": false,
      "t": 61609.4520117189,
      "d": 370.3129628906245,
      "v": 102
    },
    {
      "midi": 66,
      "hit": false,
      "t": 61609.45201171892,
      "d": 370.3129628906245,
      "v": 55
    },
    {
      "midi": 78,
      "hit": false,
      "t": 61609.45201171892,
      "d": 393.75049218750064,
      "v": 69
    },
    {
      "midi": 51,
      "hit": false,
      "t": 62003.98375488297,
      "d": 371.87546484375343,
      "v": 101
    },
    {
      "midi": 71,
      "hit": false,
      "t": 62003.98375488298,
      "d": 371.87546484375343,
      "v": 54
    },
    {
      "midi": 83,
      "hit": false,
      "t": 62003.98375488298,
      "d": 395.3129941406296,
      "v": 68
    },
    {
      "midi": 34,
      "hit": false,
      "t": 62403.20300390641,
      "d": 3196.0977451172075,
      "v": 91
    },
    {
      "midi": 46,
      "hit": false,
      "t": 62403.20300390641,
      "d": 3196.0977451172075,
      "v": 107
    },
    {
      "midi": 70,
      "hit": false,
      "t": 62403.20300390643,
      "d": 1612.502015625003,
      "v": 59
    },
    {
      "midi": 82,
      "hit": false,
      "t": 62403.20300390643,
      "d": 1612.502015625003,
      "v": 73
    },
    {
      "midi": 51,
      "hit": false,
      "t": 62826.64103320329,
      "d": 372.65671582031064,
      "v": 101
    },
    {
      "midi": 58,
      "hit": false,
      "t": 63223.51652929704,
      "d": 370.3129628906245,
      "v": 102
    },
    {
      "midi": 51,
      "hit": false,
      "t": 63618.04827246111,
      "d": 374.2192177734396,
      "v": 101
    },
    {
      "midi": 58,
      "hit": false,
      "t": 64016.48627050799,
      "d": 374.2192177734396,
      "v": 104
    },
    {
      "midi": 63,
      "hit": false,
      "t": 64016.486270507994,
      "d": 2406.2530078125055,
      "v": 57
    },
    {
      "midi": 75,
      "hit": false,
      "t": 64016.486270507994,
      "d": 2406.2530078125055,
      "v": 71
    },
    {
      "midi": 51,
      "hit": false,
      "t": 64414.92426855487,
      "d": 370.3129628906245,
      "v": 101
    },
    {
      "midi": 58,
      "hit": false,
      "t": 64809.45601171893,
      "d": 370.3129628906245,
      "v": 102
    },
    {
      "midi": 51,
      "hit": false,
      "t": 65203.987754883,
      "d": 371.87546484374616,
      "v": 101
    },
    {
      "midi": 58,
      "hit": false,
      "t": 65603.20700390643,
      "d": 399.2192490234447,
      "v": 106
    },
    {
      "midi": 46,
      "hit": false,
      "t": 66026.64503320331,
      "d": 372.65671582031064,
      "v": 101
    },
    {
      "midi": 58,
      "hit": false,
      "t": 66423.52052929706,
      "d": 370.31296289063175,
      "v": 102
    },
    {
      "midi": 65,
      "hit": false,
      "t": 66818.05227246112,
      "d": 374.2192177734396,
      "v": 54
    },
    {
      "midi": 77,
      "hit": false,
      "t": 66818.05227246112,
      "d": 397.65674707031576,
      "v": 68
    },
    {
      "midi": 34,
      "hit": false,
      "t": 66818.05227246114,
      "d": 1981.2524765624985,
      "v": 91
    },
    {
      "midi": 46,
      "hit": false,
      "t": 66818.05227246114,
      "d": 1981.2524765624985,
      "v": 103
    },
    {
      "midi": 66,
      "hit": false,
      "t": 67216.490270508,
      "d": 374.2192177734396,
      "v": 57
    },
    {
      "midi": 78,
      "hit": false,
      "t": 67216.490270508,
      "d": 397.65674707031576,
      "v": 71
    },
    {
      "midi": 58,
      "hit": false,
      "t": 67216.49027050802,
      "d": 374.2192177734396,
      "v": 104
    },
    {
      "midi": 65,
      "hit": false,
      "t": 67614.92826855488,
      "d": 370.31296289063175,
      "v": 54
    },
    {
      "midi": 77,
      "hit": false,
      "t": 67614.92826855488,
      "d": 393.7504921875079,
      "v": 68
    },
    {
      "midi": 56,
      "hit": false,
      "t": 67614.9282685549,
      "d": 192.96899121093156,
      "v": 89
    },
    {
      "midi": 56,
      "hit": false,
      "t": 67808.6785107424,
      "d": 211.7190146484354,
      "v": 89
    },
    {
      "midi": 63,
      "hit": false,
      "t": 68009.46001171895,
      "d": 370.31296289063175,
      "v": 55
    },
    {
      "midi": 75,
      "hit": false,
      "t": 68009.46001171895,
      "d": 393.7504921875079,
      "v": 69
    },
    {
      "midi": 58,
      "hit": false,
      "t": 68009.46001171895,
      "d": 370.3129628906172,
      "v": 102
    },
    {
      "midi": 56,
      "hit": false,
      "t": 68403.99175488301,
      "d": 371.87546484374616,
      "v": 101
    },
    {
      "midi": 61,
      "hit": false,
      "t": 68403.99175488303,
      "d": 371.87546484374616,
      "v": 54
    },
    {
      "midi": 73,
      "hit": false,
      "t": 68403.99175488303,
      "d": 395.3129941406223,
      "v": 68
    },
    {
      "midi": 35,
      "hit": false,
      "t": 68803.21100390644,
      "d": 1612.5020156250102,
      "v": 96
    },
    {
      "midi": 59,
      "hit": false,
      "t": 68803.21100390646,
      "d": 1612.5020156249957,
      "v": 59
    },
    {
      "midi": 71,
      "hit": false,
      "t": 68803.21100390646,
      "d": 1612.5020156249957,
      "v": 73
    },
    {
      "midi": 47,
      "hit": false,
      "t": 69226.64903320331,
      "d": 372.65671582031064,
      "v": 101
    },
    {
      "midi": 59,
      "hit": false,
      "t": 69623.52452929706,
      "d": 370.31296289063175,
      "v": 102
    },
    {
      "midi": 47,
      "hit": false,
      "t": 70018.05627246114,
      "d": 374.2192177734396,
      "v": 101
    },
    {
      "midi": 58,
      "hit": false,
      "t": 70416.49427050802,
      "d": 1582.8144785156182,
      "v": 57
    },
    {
      "midi": 70,
      "hit": false,
      "t": 70416.49427050802,
      "d": 1582.8144785156182,
      "v": 71
    },
    {
      "midi": 34,
      "hit": false,
      "t": 70416.49427050802,
      "d": 1582.8144785156474,
      "v": 94
    },
    {
      "midi": 46,
      "hit": false,
      "t": 70814.9322685549,
      "d": 370.31296289063175,
      "v": 101
    },
    {
      "midi": 58,
      "hit": false,
      "t": 71209.46401171897,
      "d": 370.31296289063175,
      "v": 102
    },
    {
      "midi": 46,
      "hit": false,
      "t": 71603.99575488304,
      "d": 371.87546484374616,
      "v": 101
    },
    {
      "midi": 56,
      "hit": false,
      "t": 72003.21500390644,
      "d": 399.2192490234447,
      "v": 59
    },
    {
      "midi": 68,
      "hit": false,
      "t": 72003.21500390644,
      "d": 422.6567783203209,
      "v": 73
    },
    {
      "midi": 32,
      "hit": false,
      "t": 72003.21500390647,
      "d": 3196.097745117193,
      "v": 90
    },
    {
      "midi": 58,
      "hit": false,
      "t": 72426.65303320333,
      "d": 372.65671582031064,
      "v": 54
    },
    {
      "midi": 70,
      "hit": false,
      "t": 72426.65303320333,
      "d": 396.0942451171868,
      "v": 68
    },
    {
      "midi": 44,
      "hit": false,
      "t": 72426.65303320334,
      "d": 372.65671582031064,
      "v": 101
    },
    {
      "midi": 59,
      "hit": false,
      "t": 72823.52852929708,
      "d": 370.31296289063175,
      "v": 55
    },
    {
      "midi": 71,
      "hit": false,
      "t": 72823.52852929708,
      "d": 393.7504921875079,
      "v": 69
    },
    {
      "midi": 56,
      "hit": false,
      "t": 72823.5285292971,
      "d": 370.31296289063175,
      "v": 102
    },
    {
      "midi": 61,
      "hit": false,
      "t": 73218.06027246115,
      "d": 374.2192177734396,
      "v": 54
    },
    {
      "midi": 73,
      "hit": false,
      "t": 73218.06027246115,
      "d": 397.65674707031576,
      "v": 68
    },
    {
      "midi": 44,
      "hit": false,
      "t": 73218.06027246117,
      "d": 374.2192177734396,
      "v": 101
    },
    {
      "midi": 59,
      "hit": false,
      "t": 73616.49827050803,
      "d": 792.1884902343882,
      "v": 57
    },
    {
      "midi": 71,
      "hit": false,
      "t": 73616.49827050803,
      "d": 792.1884902343882,
      "v": 71
    },
    {
      "midi": 56,
      "hit": false,
      "t": 73616.49827050805,
      "d": 374.2192177734396,
      "v": 104
    },
    {
      "midi": 65,
      "hit": false,
      "t": 74014.93626855491,
      "d": 370.31296289063175,
      "v": 62
    },
    {
      "midi": 44,
      "hit": false,
      "t": 74014.93626855493,
      "d": 192.96899121093156,
      "v": 89
    },
    {
      "midi": 44,
      "hit": false,
      "t": 74208.68651074242,
      "d": 211.7190146484354,
      "v": 89
    },
    {
      "midi": 66,
      "hit": false,
      "t": 74409.46801171899,
      "d": 370.31296289063175,
      "v": 63
    },
    {
      "midi": 63,
      "hit": false,
      "t": 74409.46801171899,
      "d": 789.8447373046947,
      "v": 55
    },
    {
      "midi": 75,
      "hit": false,
      "t": 74409.46801171899,
      "d": 789.8447373046947,
      "v": 69
    },
    {
      "midi": 56,
      "hit": false,
      "t": 74409.46801171899,
      "d": 370.3129628906172,
      "v": 102
    },
    {
      "midi": 44,
      "hit": false,
      "t": 74803.99975488304,
      "d": 371.87546484374616,
      "v": 101
    },
    {
      "midi": 71,
      "hit": false,
      "t": 74803.99975488306,
      "d": 371.87546484374616,
      "v": 62
    },
    {
      "midi": 30,
      "hit": false,
      "t": 75203.21900390647,
      "d": 3196.097745117222,
      "v": 89
    },
    {
      "midi": 42,
      "hit": false,
      "t": 75203.21900390647,
      "d": 3196.097745117222,
      "v": 107
    },
    {
      "midi": 65,
      "hit": false,
      "t": 75203.21900390649,
      "d": 399.2192490234447,
      "v": 59
    },
    {
      "midi": 77,
      "hit": false,
      "t": 75203.21900390649,
      "d": 422.6567783203209,
      "v": 73
    },
    {
      "midi": 70,
      "hit": false,
      "t": 75203.21900390649,
      "d": 1612.5020156250248,
      "v": 67
    },
    {
      "midi": 46,
      "hit": false,
      "t": 75626.65703320334,
      "d": 372.65671582031064,
      "v": 101
    },
    {
      "midi": 66,
      "hit": false,
      "t": 75626.65703320337,
      "d": 372.65671582031064,
      "v": 54
    },
    {
      "midi": 78,
      "hit": false,
      "t": 75626.65703320337,
      "d": 396.0942451171868,
      "v": 68
    },
    {
      "midi": 58,
      "hit": false,
      "t": 76023.5325292971,
      "d": 370.31296289063175,
      "v": 102
    },
    {
      "midi": 65,
      "hit": false,
      "t": 76023.53252929712,
      "d": 370.31296289063175,
      "v": 55
    },
    {
      "midi": 77,
      "hit": false,
      "t": 76023.53252929712,
      "d": 393.7504921875079,
      "v": 69
    },
    {
      "midi": 46,
      "hit": false,
      "t": 76418.06427246117,
      "d": 374.2192177734396,
      "v": 101
    },
    {
      "midi": 63,
      "hit": false,
      "t": 76418.0642724612,
      "d": 374.2192177734396,
      "v": 54
    },
    {
      "midi": 75,
      "hit": false,
      "t": 76418.0642724612,
      "d": 397.65674707031576,
      "v": 68
    },
    {
      "midi": 58,
      "hit": false,
      "t": 76816.50227050805,
      "d": 374.2192177734396,
      "v": 104
    },
    {
      "midi": 66,
      "hit": false,
      "t": 76816.50227050808,
      "d": 792.1884902343736,
      "v": 57
    },
    {
      "midi": 78,
      "hit": false,
      "t": 76816.50227050808,
      "d": 792.1884902343736,
      "v": 71
    },
    {
      "midi": 63,
      "hit": false,
      "t": 76816.50227050808,
      "d": 3199.222749023451,
      "v": 65
    },
    {
      "midi": 46,
      "hit": false,
      "t": 77214.94026855493,
      "d": 370.31296289063175,
      "v": 101
    },
    {
      "midi": 58,
      "hit": false,
      "t": 77609.472011719,
      "d": 370.31296289063175,
      "v": 102
    },
    {
      "midi": 70,
      "hit": false,
      "t": 77609.47201171902,
      "d": 789.8447373046947,
      "v": 63
    },
    {
      "midi": 46,
      "hit": false,
      "t": 78004.00375488307,
      "d": 371.87546484374616,
      "v": 101
    },
    {
      "midi": 29,
      "hit": false,
      "t": 78403.2230039065,
      "d": 1612.5020156250102,
      "v": 94
    },
    {
      "midi": 41,
      "hit": false,
      "t": 78403.2230039065,
      "d": 1612.5020156250102,
      "v": 112
    },
    {
      "midi": 68,
      "hit": false,
      "t": 78403.22300390652,
      "d": 819.5322744140576,
      "v": 59
    },
    {
      "midi": 80,
      "hit": false,
      "t": 78403.22300390652,
      "d": 819.5322744140576,
      "v": 73
    },
    {
      "midi": 46,
      "hit": false,
      "t": 78826.66103320337,
      "d": 372.65671582031064,
      "v": 101
    },
    {
      "midi": 58,
      "hit": false,
      "t": 79223.53652929713,
      "d": 370.31296289063175,
      "v": 102
    },
    {
      "midi": 66,
      "hit": false,
      "t": 79223.53652929714,
      "d": 370.31296289063175,
      "v": 55
    },
    {
      "midi": 78,
      "hit": false,
      "t": 79223.53652929714,
      "d": 393.7504921875079,
      "v": 69
    },
    {
      "midi": 46,
      "hit": false,
      "t": 79618.0682724612,
      "d": 374.2192177734396,
      "v": 101
    },
    {
      "midi": 65,
      "hit": false,
      "t": 79618.06827246121,
      "d": 374.2192177734396,
      "v": 54
    },
    {
      "midi": 77,
      "hit": false,
      "t": 79618.06827246121,
      "d": 397.65674707031576,
      "v": 68
    },
    {
      "midi": 34,
      "hit": false,
      "t": 80016.50627050808,
      "d": 1985.9399824219,
      "v": 94
    },
    {
      "midi": 70,
      "hit": false,
      "t": 80016.50627050809,
      "d": 1985.9399824219,
      "v": 57
    },
    {
      "midi": 82,
      "hit": false,
      "t": 80016.50627050809,
      "d": 2009.377511718776,
      "v": 71
    },
    {
      "midi": 46,
      "hit": false,
      "t": 80414.94426855496,
      "d": 370.31296289063175,
      "v": 101
    },
    {
      "midi": 65,
      "hit": false,
      "t": 80414.94426855497,
      "d": 370.31296289063175,
      "v": 62
    },
    {
      "midi": 58,
      "hit": false,
      "t": 80809.47601171903,
      "d": 370.31296289063175,
      "v": 102
    },
    {
      "midi": 63,
      "hit": false,
      "t": 80809.47601171905,
      "d": 370.31296289063175,
      "v": 63
    },
    {
      "midi": 46,
      "hit": false,
      "t": 81204.0077548831,
      "d": 371.87546484374616,
      "v": 101
    },
    {
      "midi": 62,
      "hit": false,
      "t": 81204.00775488312,
      "d": 371.87546484374616,
      "v": 62
    },
    {
      "midi": 51,
      "hit": false,
      "t": 81603.22700390653,
      "d": 399.2192490234447,
      "v": 98
    },
    {
      "midi": 58,
      "hit": false,
      "t": 81603.22700390653,
      "d": 399.2192490234447,
      "v": 112
    },
    {
      "midi": 63,
      "hit": false,
      "t": 81603.22700390655,
      "d": 399.2192490234447,
      "v": 59
    },
    {
      "midi": 75,
      "hit": false,
      "t": 81603.22700390655,
      "d": 399.2192490234447,
      "v": 73
    },
    {
      "midi": 39,
      "hit": false,
      "t": 82423.54052929717,
      "d": 792.1884902343736,
      "v": 93
    },
    {
      "midi": 51,
      "hit": false,
      "t": 82423.54052929717,
      "d": 792.1884902343736,
      "v": 108
    },
    {
      "midi": 63,
      "hit": false,
      "t": 82423.54052929718,
      "d": 792.1884902343736,
      "v": 71
    },
    {
      "midi": 75,
      "hit": false,
      "t": 82423.54052929718,
      "d": 792.1884902343736,
      "v": 85
    },
    {
      "midi": 37,
      "hit": false,
      "t": 83216.51027050811,
      "d": 1186.7202333984314,
      "v": 99
    },
    {
      "midi": 49,
      "hit": false,
      "t": 83216.51027050811,
      "d": 1186.7202333984314,
      "v": 114
    },
    {
      "midi": 61,
      "hit": false,
      "t": 83216.51027050812,
      "d": 1186.7202333984314,
      "v": 77
    },
    {
      "midi": 73,
      "hit": false,
      "t": 83216.51027050812,
      "d": 1186.7202333984314,
      "v": 91
    },
    {
      "midi": 35,
      "hit": false,
      "t": 84404.0117548831,
      "d": 371.87546484374616,
      "v": 112
    },
    {
      "midi": 47,
      "hit": false,
      "t": 84404.0117548831,
      "d": 395.3129941406223,
      "v": 127
    },
    {
      "midi": 59,
      "hit": false,
      "t": 84404.01175488312,
      "d": 371.87546484374616,
      "v": 91
    },
    {
      "midi": 71,
      "hit": false,
      "t": 84404.01175488312,
      "d": 395.3129941406223,
      "v": 105
    },
    {
      "midi": 30,
      "hit": false,
      "t": 84803.23100390653,
      "d": 422.65677832030633,
      "v": 94
    },
    {
      "midi": 42,
      "hit": false,
      "t": 84803.23100390653,
      "d": 422.65677832030633,
      "v": 112
    },
    {
      "midi": 54,
      "hit": false,
      "t": 84803.23100390655,
      "d": 819.5322744140576,
      "v": 93
    },
    {
      "midi": 70,
      "hit": false,
      "t": 84803.23100390655,
      "d": 2405.4717568359483,
      "v": 94
    },
    {
      "midi": 30,
      "hit": false,
      "t": 85226.6690332034,
      "d": 396.0942451171868,
      "v": 89
    },
    {
      "midi": 42,
      "hit": false,
      "t": 85226.6690332034,
      "d": 396.0942451171868,
      "v": 103
    },
    {
      "midi": 30,
      "hit": false,
      "t": 85623.54452929716,
      "d": 393.75049218749336,
      "v": 90
    },
    {
      "midi": 42,
      "hit": false,
      "t": 85623.54452929716,
      "d": 393.75049218749336,
      "v": 104
    },
    {
      "midi": 56,
      "hit": false,
      "t": 85623.54452929717,
      "d": 370.31296289063175,
      "v": 89
    },
    {
      "midi": 30,
      "hit": false,
      "t": 86018.07627246121,
      "d": 397.65674707031576,
      "v": 89
    },
    {
      "midi": 42,
      "hit": false,
      "t": 86018.07627246121,
      "d": 397.65674707031576,
      "v": 103
    },
    {
      "midi": 58,
      "hit": false,
      "t": 86018.07627246124,
      "d": 374.2192177734396,
      "v": 88
    },
    {
      "midi": 30,
      "hit": false,
      "t": 86416.5142705081,
      "d": 1582.8144785156182,
      "v": 92
    },
    {
      "midi": 42,
      "hit": false,
      "t": 86416.5142705081,
      "d": 1582.8144785156182,
      "v": 110
    },
    {
      "midi": 61,
      "hit": false,
      "t": 86416.51427050812,
      "d": 792.1884902343736,
      "v": 91
    },
    {
      "midi": 58,
      "hit": false,
      "t": 87209.48401171906,
      "d": 789.8447373046947,
      "v": 81
    },
    {
      "midi": 70,
      "hit": false,
      "t": 87209.48401171906,
      "d": 789.8447373046947,
      "v": 95
    },
    {
      "midi": 66,
      "hit": false,
      "t": 87209.48401171906,
      "d": 789.8447373046947,
      "v": 89
    },
    {
      "midi": 32,
      "hit": false,
      "t": 88003.23500390652,
      "d": 422.65677832030633,
      "v": 83
    },
    {
      "midi": 44,
      "hit": false,
      "t": 88003.23500390652,
      "d": 422.65677832030633,
      "v": 100
    },
    {
      "midi": 63,
      "hit": false,
      "t": 88003.23500390656,
      "d": 819.5322744140576,
      "v": 93
    },
    {
      "midi": 59,
      "hit": false,
      "t": 88003.23500390656,
      "d": 2405.4717568359483,
      "v": 80
    },
    {
      "midi": 71,
      "hit": false,
      "t": 88003.23500390656,
      "d": 2405.4717568359483,
      "v": 94
    },
    {
      "midi": 32,
      "hit": false,
      "t": 88426.67303320339,
      "d": 396.0942451171868,
      "v": 78
    },
    {
      "midi": 44,
      "hit": false,
      "t": 88426.67303320339,
      "d": 396.0942451171868,
      "v": 91
    },
    {
      "midi": 32,
      "hit": false,
      "t": 88823.54852929714,
      "d": 393.75049218749336,
      "v": 79
    },
    {
      "midi": 44,
      "hit": false,
      "t": 88823.54852929714,
      "d": 393.75049218749336,
      "v": 92
    },
    {
      "midi": 65,
      "hit": false,
      "t": 88823.54852929719,
      "d": 370.31296289063175,
      "v": 89
    },
    {
      "midi": 44,
      "hit": false,
      "t": 89218.0802724612,
      "d": 397.65674707031576,
      "v": 95
    },
    {
      "midi": 32,
      "hit": false,
      "t": 89218.0802724612,
      "d": 421.8755273437564,
      "v": 78
    },
    {
      "midi": 63,
      "hit": false,
      "t": 89218.08027246126,
      "d": 374.2192177734396,
      "v": 88
    },
    {
      "midi": 35,
      "hit": false,
      "t": 89616.51827050808,
      "d": 1582.8144785156328,
      "v": 94
    },
    {
      "midi": 47,
      "hit": false,
      "t": 89616.51827050808,
      "d": 1582.8144785156328,
      "v": 110
    },
    {
      "midi": 62,
      "hit": false,
      "t": 89616.51827050814,
      "d": 792.1884902343736,
      "v": 91
    },
    {
      "midi": 70,
      "hit": false,
      "t": 90409.48801171908,
      "d": 393.75049218749336,
      "v": 95
    },
    {
      "midi": 58,
      "hit": false,
      "t": 90409.48801171908,
      "d": 789.8447373046802,
      "v": 89
    },
    {
      "midi": 56,
      "hit": false,
      "t": 90804.01975488313,
      "d": 371.87546484374616,
      "v": 80
    },
    {
      "midi": 68,
      "hit": false,
      "t": 90804.01975488313,
      "d": 395.3129941406223,
      "v": 94
    },
    {
      "midi": 39,
      "hit": false,
      "t": 91203.23900390652,
      "d": 422.65677832030633,
      "v": 85
    },
    {
      "midi": 51,
      "hit": false,
      "t": 91203.23900390652,
      "d": 422.65677832030633,
      "v": 100
    },
    {
      "midi": 58,
      "hit": false,
      "t": 91203.23900390656,
      "d": 819.5322744140576,
      "v": 85
    },
    {
      "midi": 70,
      "hit": false,
      "t": 91203.23900390656,
      "d": 819.5322744140576,
      "v": 99
    },
    {
      "midi": 65,
      "hit": false,
      "t": 91203.23900390656,
      "d": 819.5322744140576,
      "v": 93
    },
    {
      "midi": 39,
      "hit": false,
      "t": 91626.67703320339,
      "d": 396.0942451171868,
      "v": 80
    },
    {
      "midi": 51,
      "hit": false,
      "t": 91626.67703320339,
      "d": 396.0942451171868,
      "v": 91
    },
    {
      "midi": 39,
      "hit": false,
      "t": 92023.55252929714,
      "d": 393.75049218749336,
      "v": 81
    },
    {
      "midi": 51,
      "hit": false,
      "t": 92023.55252929714,
      "d": 393.75049218749336,
      "v": 92
    },
    {
      "midi": 63,
      "hit": false,
      "t": 92023.55252929719,
      "d": 792.1884902343736,
      "v": 89
    },
    {
      "midi": 75,
      "hit": false,
      "t": 92023.55252929719,
      "d": 792.1884902343736,
      "v": 95
    },
    {
      "midi": 51,
      "hit": false,
      "t": 92418.0842724612,
      "d": 397.65674707031576,
      "v": 95
    },
    {
      "midi": 39,
      "hit": false,
      "t": 92418.0842724612,
      "d": 421.8755273437564,
      "v": 80
    },
    {
      "midi": 37,
      "hit": false,
      "t": 92816.52227050808,
      "d": 1582.8144785156328,
      "v": 95
    },
    {
      "midi": 49,
      "hit": false,
      "t": 92816.52227050808,
      "d": 1582.8144785156328,
      "v": 110
    },
    {
      "midi": 51,
      "hit": false,
      "t": 92816.52227050813,
      "d": 792.1884902343736,
      "v": 83
    },
    {
      "midi": 63,
      "hit": false,
      "t": 92816.52227050813,
      "d": 792.1884902343736,
      "v": 97
    },
    {
      "midi": 56,
      "hit": false,
      "t": 92816.52227050813,
      "d": 792.1884902343736,
      "v": 91
    },
    {
      "midi": 66,
      "hit": false,
      "t": 93609.49201171906,
      "d": 370.31296289063175,
      "v": 89
    },
    {
      "midi": 53,
      "hit": false,
      "t": 93609.49201171906,
      "d": 789.8447373046947,
      "v": 81
    },
    {
      "midi": 65,
      "hit": false,
      "t": 94004.02375488314,
      "d": 371.87546484374616,
      "v": 88
    },
    {
      "midi": 35,
      "hit": false,
      "t": 94403.24300390652,
      "d": 422.65677832030633,
      "v": 84
    },
    {
      "midi": 47,
      "hit": false,
      "t": 94403.24300390652,
      "d": 422.65677832030633,
      "v": 100
    },
    {
      "midi": 63,
      "hit": false,
      "t": 94403.24300390657,
      "d": 819.5322744140576,
      "v": 93
    },
    {
      "midi": 66,
      "hit": false,
      "t": 94403.24300390657,
      "d": 2405.4717568359483,
      "v": 94
    },
    {
      "midi": 35,
      "hit": false,
      "t": 94826.6810332034,
      "d": 396.0942451171868,
      "v": 79
    },
    {
      "midi": 47,
      "hit": false,
      "t": 94826.6810332034,
      "d": 396.0942451171868,
      "v": 91
    },
    {
      "midi": 35,
      "hit": false,
      "t": 95223.55652929714,
      "d": 393.75049218749336,
      "v": 80
    },
    {
      "midi": 47,
      "hit": false,
      "t": 95223.55652929714,
      "d": 393.75049218749336,
      "v": 92
    },
    {
      "midi": 61,
      "hit": false,
      "t": 95223.55652929719,
      "d": 370.31296289063175,
      "v": 89
    },
    {
      "midi": 35,
      "hit": false,
      "t": 95618.0882724612,
      "d": 397.65674707031576,
      "v": 79
    },
    {
      "midi": 47,
      "hit": false,
      "t": 95618.0882724612,
      "d": 397.65674707031576,
      "v": 91
    },
    {
      "midi": 63,
      "hit": false,
      "t": 95618.08827246126,
      "d": 374.2192177734396,
      "v": 88
    },
    {
      "midi": 35,
      "hit": false,
      "t": 96016.52627050808,
      "d": 1582.8144785156182,
      "v": 94
    },
    {
      "midi": 47,
      "hit": false,
      "t": 96016.52627050808,
      "d": 1582.8144785156182,
      "v": 110
    },
    {
      "midi": 54,
      "hit": false,
      "t": 96016.52627050814,
      "d": 792.1884902343736,
      "v": 91
    },
    {
      "midi": 53,
      "hit": false,
      "t": 96809.49601171908,
      "d": 370.31296289063175,
      "v": 81
    },
    {
      "midi": 65,
      "hit": false,
      "t": 96809.49601171908,
      "d": 393.7504921875079,
      "v": 95
    },
    {
      "midi": 51,
      "hit": false,
      "t": 97204.02775488315,
      "d": 371.87546484374616,
      "v": 80
    },
    {
      "midi": 63,
      "hit": false,
      "t": 97204.02775488315,
      "d": 395.3129941406223,
      "v": 94
    },
    {
      "midi": 32,
      "hit": false,
      "t": 97603.24700390651,
      "d": 422.65677832030633,
      "v": 83
    },
    {
      "midi": 44,
      "hit": false,
      "t": 97603.24700390651,
      "d": 422.65677832030633,
      "v": 100
    },
    {
      "midi": 63,
      "hit": false,
      "t": 97603.24700390658,
      "d": 819.5322744140576,
      "v": 93
    },
    {
      "midi": 56,
      "hit": false,
      "t": 97603.24700390658,
      "d": 1612.5020156249957,
      "v": 85
    },
    {
      "midi": 68,
      "hit": false,
      "t": 97603.24700390658,
      "d": 1612.5020156249957,
      "v": 99
    },
    {
      "midi": 32,
      "hit": false,
      "t": 98026.68503320338,
      "d": 396.0942451171868,
      "v": 75
    },
    {
      "midi": 44,
      "hit": false,
      "t": 98026.68503320338,
      "d": 396.0942451171868,
      "v": 88
    },
    {
      "midi": 32,
      "hit": false,
      "t": 98423.56052929713,
      "d": 393.75049218749336,
      "v": 70
    },
    {
      "midi": 44,
      "hit": false,
      "t": 98423.56052929713,
      "d": 393.75049218749336,
      "v": 83
    },
    {
      "midi": 65,
      "hit": false,
      "t": 98423.5605292972,
      "d": 792.1884902343736,
      "v": 80
    },
    {
      "midi": 32,
      "hit": false,
      "t": 98818.09227246119,
      "d": 397.65674707031576,
      "v": 65
    },
    {
      "midi": 44,
      "hit": false,
      "t": 98818.09227246119,
      "d": 397.65674707031576,
      "v": 78
    },
    {
      "midi": 32,
      "hit": false,
      "t": 99216.53027050807,
      "d": 1582.8144785156182,
      "v": 72
    },
    {
      "midi": 44,
      "hit": false,
      "t": 99216.53027050807,
      "d": 1582.8144785156182,
      "v": 89
    },
    {
      "midi": 51,
      "hit": false,
      "t": 99216.53027050814,
      "d": 1582.8144785156182,
      "v": 62
    },
    {
      "midi": 63,
      "hit": false,
      "t": 99216.53027050814,
      "d": 1582.8144785156182,
      "v": 76
    },
    {
      "midi": 66,
      "hit": false,
      "t": 99216.53027050814,
      "d": 1582.8144785156182,
      "v": 70
    },
    {
      "midi": 27,
      "hit": false,
      "t": 100803.2510039065,
      "d": 422.65677832030633,
      "v": 81
    },
    {
      "midi": 39,
      "hit": false,
      "t": 100803.2510039065,
      "d": 422.65677832030633,
      "v": 99
    },
    {
      "midi": 58,
      "hit": false,
      "t": 100803.25100390657,
      "d": 3196.0977451172075,
      "v": 41
    },
    {
      "midi": 27,
      "hit": false,
      "t": 101226.68903320337,
      "d": 396.0942451171868,
      "v": 76
    },
    {
      "midi": 39,
      "hit": false,
      "t": 101226.68903320337,
      "d": 396.0942451171868,
      "v": 90
    },
    {
      "midi": 27,
      "hit": false,
      "t": 101623.56452929712,
      "d": 393.75049218749336,
      "v": 77
    },
    {
      "midi": 39,
      "hit": false,
      "t": 101623.56452929712,
      "d": 393.75049218749336,
      "v": 91
    },
    {
      "midi": 70,
      "hit": false,
      "t": 101623.56452929719,
      "d": 370.31296289063175,
      "v": 42
    },
    {
      "midi": 75,
      "hit": false,
      "t": 101623.56452929719,
      "d": 393.7504921875079,
      "v": 52
    },
    {
      "midi": 27,
      "hit": false,
      "t": 102018.09627246117,
      "d": 397.65674707031576,
      "v": 76
    },
    {
      "midi": 39,
      "hit": false,
      "t": 102018.09627246117,
      "d": 397.65674707031576,
      "v": 90
    },
    {
      "midi": 27,
      "hit": false,
      "t": 102416.53427050805,
      "d": 1582.8144785156182,
      "v": 91
    },
    {
      "midi": 39,
      "hit": false,
      "t": 102416.53427050805,
      "d": 1582.8144785156182,
      "v": 105
    },
    {
      "midi": 70,
      "hit": false,
      "t": 102416.53427050814,
      "d": 792.1884902343736,
      "v": 44
    },
    {
      "midi": 75,
      "hit": false,
      "t": 102416.53427050814,
      "d": 792.1884902343736,
      "v": 54
    },
    {
      "midi": 70,
      "hit": false,
      "t": 103209.50401171908,
      "d": 370.31296289063175,
      "v": 36
    },
    {
      "midi": 75,
      "hit": false,
      "t": 103209.50401171908,
      "d": 393.7504921875079,
      "v": 46
    },
    {
      "midi": 27,
      "hit": false,
      "t": 104003.25500390648,
      "d": 819.5322744140576,
      "v": 93
    },
    {
      "midi": 39,
      "hit": false,
      "t": 104003.25500390648,
      "d": 819.5322744140576,
      "v": 107
    },
    {
      "midi": 66,
      "hit": false,
      "t": 104003.25500390658,
      "d": 399.2192490234447,
      "v": 41
    },
    {
      "midi": 65,
      "hit": false,
      "t": 104426.69303320347,
      "d": 372.65671582031064,
      "v": 36
    },
    {
      "midi": 27,
      "hit": false,
      "t": 104823.5685292971,
      "d": 792.1884902343736,
      "v": 89
    },
    {
      "midi": 39,
      "hit": false,
      "t": 104823.5685292971,
      "d": 792.1884902343736,
      "v": 103
    },
    {
      "midi": 70,
      "hit": false,
      "t": 104823.56852929722,
      "d": 370.31296289063175,
      "v": 29
    },
    {
      "midi": 66,
      "hit": false,
      "t": 104823.56852929722,
      "d": 370.31296289063175,
      "v": 37
    },
    {
      "midi": 75,
      "hit": false,
      "t": 104823.56852929722,
      "d": 393.7504921875079,
      "v": 43
    },
    {
      "midi": 68,
      "hit": false,
      "t": 105218.10027246129,
      "d": 374.2192177734396,
      "v": 36
    },
    {
      "midi": 27,
      "hit": false,
      "t": 105616.53827050804,
      "d": 1582.8144785156182,
      "v": 91
    },
    {
      "midi": 39,
      "hit": false,
      "t": 105616.53827050804,
      "d": 1582.8144785156182,
      "v": 105
    },
    {
      "midi": 66,
      "hit": false,
      "t": 105616.53827050817,
      "d": 397.65674707031576,
      "v": 39
    },
    {
      "midi": 70,
      "hit": false,
      "t": 105616.53827050817,
      "d": 792.1884902343736,
      "v": 31
    },
    {
      "midi": 75,
      "hit": false,
      "t": 105616.53827050817,
      "d": 792.1884902343736,
      "v": 41
    },
    {
      "midi": 66,
      "hit": false,
      "t": 106014.97626855505,
      "d": 393.75049218749336,
      "v": 34
    },
    {
      "midi": 70,
      "hit": false,
      "t": 106409.50801171911,
      "d": 370.31296289063175,
      "v": 23
    },
    {
      "midi": 75,
      "hit": false,
      "t": 106409.50801171911,
      "d": 370.31296289063175,
      "v": 33
    },
    {
      "midi": 66,
      "hit": false,
      "t": 106409.50801171911,
      "d": 393.7504921875079,
      "v": 31
    },
    {
      "midi": 66,
      "hit": false,
      "t": 106804.03975488318,
      "d": 395.3129941406223,
      "v": 27
    },
    {
      "midi": 27,
      "hit": false,
      "t": 107203.25900390647,
      "d": 819.5322744140576,
      "v": 93
    },
    {
      "midi": 39,
      "hit": false,
      "t": 107203.25900390647,
      "d": 819.5322744140576,
      "v": 107
    },
    {
      "midi": 66,
      "hit": false,
      "t": 107203.25900390661,
      "d": 399.2192490234447,
      "v": 41
    },
    {
      "midi": 65,
      "hit": false,
      "t": 107626.6970332035,
      "d": 372.65671582031064,
      "v": 23
    },
    {
      "midi": 27,
      "hit": false,
      "t": 108023.57252929709,
      "d": 792.1884902343736,
      "v": 89
    },
    {
      "midi": 39,
      "hit": false,
      "t": 108023.57252929709,
      "d": 792.1884902343736,
      "v": 103
    },
    {
      "midi": 70,
      "hit": false,
      "t": 108023.57252929725,
      "d": 370.31296289063175,
      "v": 16
    },
    {
      "midi": 66,
      "hit": false,
      "t": 108023.57252929725,
      "d": 370.31296289063175,
      "v": 24
    },
    {
      "midi": 75,
      "hit": false,
      "t": 108023.57252929725,
      "d": 393.7504921875079,
      "v": 26
    },
    {
      "midi": 68,
      "hit": false,
      "t": 108418.10427246132,
      "d": 374.2192177734396,
      "v": 23
    },
    {
      "midi": 27,
      "hit": false,
      "t": 108816.54227050803,
      "d": 1582.8144785156182,
      "v": 91
    },
    {
      "midi": 39,
      "hit": false,
      "t": 108816.54227050803,
      "d": 1582.8144785156182,
      "v": 105
    },
    {
      "midi": 66,
      "hit": false,
      "t": 108816.5422705082,
      "d": 397.65674707031576,
      "v": 26
    },
    {
      "midi": 70,
      "hit": false,
      "t": 108816.5422705082,
      "d": 792.1884902343736,
      "v": 18
    },
    {
      "midi": 75,
      "hit": false,
      "t": 108816.5422705082,
      "d": 792.1884902343736,
      "v": 28
    },
    {
      "midi": 66,
      "hit": false,
      "t": 109214.98026855508,
      "d": 393.75049218749336,
      "v": 21
    },
    {
      "midi": 70,
      "hit": false,
      "t": 109609.51201171914,
      "d": 370.31296289063175,
      "v": 10
    },
    {
      "midi": 75,
      "hit": false,
      "t": 109609.51201171914,
      "d": 370.31296289063175,
      "v": 20
    },
    {
      "midi": 66,
      "hit": false,
      "t": 109609.51201171914,
      "d": 393.7504921875079,
      "v": 18
    },
    {
      "midi": 66,
      "hit": false,
      "t": 110004.04375488321,
      "d": 395.3129941406223,
      "v": 14
    },
    {
      "midi": 27,
      "hit": false,
      "t": 110403.26300390645,
      "d": 819.5322744140576,
      "v": 93
    },
    {
      "midi": 39,
      "hit": false,
      "t": 110403.26300390645,
      "d": 819.5322744140576,
      "v": 107
    },
    {
      "midi": 66,
      "hit": false,
      "t": 110403.26300390664,
      "d": 422.65677832030633,
      "v": 28
    },
    {
      "midi": 66,
      "hit": false,
      "t": 110826.70103320351,
      "d": 396.0942451171868,
      "v": 10
    },
    {
      "midi": 27,
      "hit": false,
      "t": 111223.57652929708,
      "d": 792.1884902343736,
      "v": 89
    },
    {
      "midi": 39,
      "hit": false,
      "t": 111223.57652929708,
      "d": 792.1884902343736,
      "v": 103
    },
    {
      "midi": 70,
      "hit": false,
      "t": 111223.57652929726,
      "d": 370.31296289063175,
      "v": 3
    },
    {
      "midi": 75,
      "hit": false,
      "t": 111223.57652929726,
      "d": 393.7504921875079,
      "v": 13
    },
    {
      "midi": 66,
      "hit": false,
      "t": 111223.57652929726,
      "d": 393.7504921875079,
      "v": 11
    },
    {
      "midi": 66,
      "hit": false,
      "t": 111618.10827246134,
      "d": 374.2192177734396,
      "v": 10
    },
    {
      "midi": 27,
      "hit": false,
      "t": 112016.54627050801,
      "d": 1582.8144785156182,
      "v": 91
    },
    {
      "midi": 39,
      "hit": false,
      "t": 112016.54627050801,
      "d": 1582.8144785156182,
      "v": 105
    },
    {
      "midi": 65,
      "hit": false,
      "t": 112016.54627050822,
      "d": 397.65674707031576,
      "v": 13
    },
    {
      "midi": 70,
      "hit": false,
      "t": 112016.54627050822,
      "d": 792.1884902343736,
      "v": 5
    },
    {
      "midi": 75,
      "hit": false,
      "t": 112016.54627050822,
      "d": 792.1884902343736,
      "v": 15
    },
    {
      "midi": 65,
      "hit": false,
      "t": 112414.9842685551,
      "d": 393.75049218749336,
      "v": 10
    },
    {
      "midi": 70,
      "hit": false,
      "t": 112809.51601171916,
      "d": 370.31296289063175,
      "v": 1
    },
    {
      "midi": 75,
      "hit": false,
      "t": 112809.51601171916,
      "d": 370.31296289063175,
      "v": 11
    },
    {
      "midi": 65,
      "hit": false,
      "t": 112809.51601171916,
      "d": 393.7504921875079,
      "v": 9
    },
    {
      "midi": 65,
      "hit": false,
      "t": 113204.04775488323,
      "d": 371.87546484374616,
      "v": 8
    },
    {
      "midi": 27,
      "hit": false,
      "t": 113603.26700390644,
      "d": 819.5322744140576,
      "v": 86
    },
    {
      "midi": 39,
      "hit": false,
      "t": 113603.26700390644,
      "d": 819.5322744140576,
      "v": 100
    },
    {
      "midi": 66,
      "hit": false,
      "t": 113603.26700390666,
      "d": 399.2192490234447,
      "v": 7
    },
    {
      "midi": 65,
      "hit": false,
      "t": 114026.70503320354,
      "d": 372.65671582031064,
      "v": 6
    },
    {
      "midi": 27,
      "hit": false,
      "t": 114423.58052929706,
      "d": 792.1884902343736,
      "v": 89
    },
    {
      "midi": 39,
      "hit": false,
      "t": 114423.58052929706,
      "d": 792.1884902343736,
      "v": 103
    },
    {
      "midi": 70,
      "hit": false,
      "t": 114423.5805292973,
      "d": 370.31296289063175,
      "v": 1
    },
    {
      "midi": 66,
      "hit": false,
      "t": 114423.5805292973,
      "d": 370.31296289063175,
      "v": 7
    },
    {
      "midi": 75,
      "hit": false,
      "t": 114423.5805292973,
      "d": 393.7504921875079,
      "v": 9
    },
    {
      "midi": 68,
      "hit": false,
      "t": 114818.11227246137,
      "d": 374.2192177734396,
      "v": 6
    },
    {
      "midi": 27,
      "hit": false,
      "t": 115216.550270508,
      "d": 1582.8144785156182,
      "v": 91
    },
    {
      "midi": 39,
      "hit": false,
      "t": 115216.550270508,
      "d": 1582.8144785156182,
      "v": 109
    },
    {
      "midi": 66,
      "hit": false,
      "t": 115216.55027050825,
      "d": 397.65674707031576,
      "v": 9
    },
    {
      "midi": 70,
      "hit": false,
      "t": 115216.55027050825,
      "d": 792.1884902343736,
      "v": 1
    },
    {
      "midi": 75,
      "hit": false,
      "t": 115216.55027050825,
      "d": 792.1884902343736,
      "v": 11
    },
    {
      "midi": 66,
      "hit": false,
      "t": 115614.98826855513,
      "d": 393.75049218749336,
      "v": 6
    },
    {
      "midi": 70,
      "hit": false,
      "t": 116009.52001171919,
      "d": 370.31296289063175,
      "v": 1
    },
    {
      "midi": 75,
      "hit": false,
      "t": 116009.52001171919,
      "d": 370.31296289063175,
      "v": 6
    },
    {
      "midi": 66,
      "hit": false,
      "t": 116009.52001171919,
      "d": 393.7504921875079,
      "v": 4
    },
    {
      "midi": 66,
      "hit": false,
      "t": 116404.05175488326,
      "d": 371.87546484374616,
      "v": 3
    }
  ]
}