{
  "jsonPath": "Soundtracks/Video Game Music/World of Warcraft/world-of-warcraft-song-of-elune-by-gori-fater.json",
  "path": "Soundtracks\\Video Game Music\\World of Warcraft\\World_of_Warcraft_-_Song_of_Elune_by_Gori_Fater.mid",
  "name": "World_of_Warcraft_-_Song_of_Elune_by_Gori_Fater",
  "difficulty": "Advanced",
  "bpm": 74.99990625011719,
  "notes": [
    {
      "midi": 66,
      "hit": false,
      "t": 7.812509765625,
      "d": 1607.814509765625,
      "v": 85
    },
    {
      "midi": 38,
      "hit": false,
      "t": 7.812509765625,
      "d": 3191.4102392578125,
      "v": 55
    },
    {
      "midi": 47,
      "hit": false,
      "t": 7.812509765625,
      "d": 3191.4102392578125,
      "v": 56
    },
    {
      "midi": 50,
      "hit": false,
      "t": 7.812509765625,
      "d": 3191.4102392578125,
      "v": 70
    },
    {
      "midi": 59,
      "hit": false,
      "t": 426.563033203125,
      "d": 372.65671582031246,
      "v": 64
    },
    {
      "midi": 62,
      "hit": false,
      "t": 823.4385292968749,
      "d": 2375.7842197265622,
      "v": 64
    },
    {
      "midi": 64,
      "hit": false,
      "t": 1616.4082705078124,
      "d": 1582.8144785156248,
      "v": 83
    },
    {
      "midi": 59,
      "hit": false,
      "t": 3203.1290039062496,
      "d": 1612.5020156250002,
      "v": 77
    },
    {
      "midi": 71,
      "hit": false,
      "t": 3203.1290039062496,
      "d": 1612.5020156250002,
      "v": 91
    },
    {
      "midi": 61,
      "hit": false,
      "t": 3203.1290039062496,
      "d": 3196.0977451171875,
      "v": 67
    },
    {
      "midi": 64,
      "hit": false,
      "t": 3203.1290039062496,
      "d": 3196.0977451171875,
      "v": 62
    },
    {
      "midi": 37,
      "hit": false,
      "t": 3203.1290039062496,
      "d": 3196.0977451171875,
      "v": 55
    },
    {
      "midi": 45,
      "hit": false,
      "t": 3203.1290039062496,
      "d": 3196.0977451171875,
      "v": 56
    },
    {
      "midi": 49,
      "hit": false,
      "t": 3203.1290039062496,
      "d": 3196.0977451171875,
      "v": 70
    },
    {
      "midi": 57,
      "hit": false,
      "t": 4816.4122705078125,
      "d": 1582.8144785156246,
      "v": 75
    },
    {
      "midi": 69,
      "hit": false,
      "t": 4816.4122705078125,
      "d": 1582.8144785156246,
      "v": 89
    },
    {
      "midi": 52,
      "hit": false,
      "t": 6403.1330039062495,
      "d": 1612.5020156250002,
      "v": 77
    },
    {
      "midi": 55,
      "hit": false,
      "t": 6403.1330039062495,
      "d": 1612.5020156250002,
      "v": 77
    },
    {
      "midi": 60,
      "hit": false,
      "t": 6403.1330039062495,
      "d": 1612.5020156250002,
      "v": 77
    },
    {
      "midi": 64,
      "hit": false,
      "t": 6403.1330039062495,
      "d": 1612.5020156250002,
      "v": 91
    },
    {
      "midi": 36,
      "hit": false,
      "t": 6403.1330039062495,
      "d": 6396.101745117187,
      "v": 54
    },
    {
      "midi": 48,
      "hit": false,
      "t": 6403.1330039062495,
      "d": 6396.101745117187,
      "v": 70
    },
    {
      "midi": 54,
      "hit": false,
      "t": 8016.416270507812,
      "d": 1582.8144785156255,
      "v": 75
    },
    {
      "midi": 57,
      "hit": false,
      "t": 8016.416270507812,
      "d": 1582.8144785156255,
      "v": 75
    },
    {
      "midi": 62,
      "hit": false,
      "t": 8016.416270507812,
      "d": 1582.8144785156255,
      "v": 75
    },
    {
      "midi": 66,
      "hit": false,
      "t": 8016.416270507812,
      "d": 1582.8144785156255,
      "v": 89
    },
    {
      "midi": 55,
      "hit": false,
      "t": 9603.137003906251,
      "d": 1612.5020156249993,
      "v": 77
    },
    {
      "midi": 60,
      "hit": false,
      "t": 9603.137003906251,
      "d": 1612.5020156249993,
      "v": 77
    },
    {
      "midi": 64,
      "hit": false,
      "t": 9603.137003906251,
      "d": 1612.5020156249993,
      "v": 77
    },
    {
      "midi": 67,
      "hit": false,
      "t": 9603.137003906251,
      "d": 1612.5020156249993,
      "v": 91
    },
    {
      "midi": 57,
      "hit": false,
      "t": 11216.420270507813,
      "d": 1582.8144785156255,
      "v": 75
    },
    {
      "midi": 69,
      "hit": false,
      "t": 11216.420270507813,
      "d": 1582.8144785156255,
      "v": 75
    },
    {
      "midi": 72,
      "hit": false,
      "t": 11216.420270507813,
      "d": 1582.8144785156255,
      "v": 89
    },
    {
      "midi": 35,
      "hit": false,
      "t": 12803.14100390625,
      "d": 4019.536274414062,
      "v": 54
    },
    {
      "midi": 39,
      "hit": false,
      "t": 12803.14100390625,
      "d": 4019.536274414062,
      "v": 55
    },
    {
      "midi": 42,
      "hit": false,
      "t": 12803.14100390625,
      "d": 4019.536274414062,
      "v": 56
    },
    {
      "midi": 47,
      "hit": false,
      "t": 12803.14100390625,
      "d": 4019.536274414062,
      "v": 70
    },
    {
      "midi": 59,
      "hit": false,
      "t": 12803.141003906252,
      "d": 4019.5362744140602,
      "v": 72
    },
    {
      "midi": 63,
      "hit": false,
      "t": 12803.141003906252,
      "d": 4019.5362744140602,
      "v": 72
    },
    {
      "midi": 66,
      "hit": false,
      "t": 12803.141003906252,
      "d": 4019.5362744140602,
      "v": 72
    },
    {
      "midi": 71,
      "hit": false,
      "t": 12803.141003906252,
      "d": 4019.5362744140602,
      "v": 86
    },
    {
      "midi": 70,
      "hit": false,
      "t": 16823.458529296873,
      "d": 2375.7842197265636,
      "v": 72
    },
    {
      "midi": 75,
      "hit": false,
      "t": 16823.458529296873,
      "d": 2375.7842197265636,
      "v": 72
    },
    {
      "midi": 79,
      "hit": false,
      "t": 16823.458529296873,
      "d": 2375.7842197265636,
      "v": 72
    },
    {
      "midi": 82,
      "hit": false,
      "t": 16823.458529296873,
      "d": 2375.7842197265636,
      "v": 86
    },
    {
      "midi": 51,
      "hit": false,
      "t": 16823.458529296873,
      "d": 5309.38163671875,
      "v": 56
    },
    {
      "midi": 58,
      "hit": false,
      "t": 16823.458529296873,
      "d": 5309.38163671875,
      "v": 56
    },
    {
      "midi": 63,
      "hit": false,
      "t": 16823.458529296873,
      "d": 5309.38163671875,
      "v": 70
    },
    {
      "midi": 70,
      "hit": false,
      "t": 19203.14900390625,
      "d": 2929.691162109375,
      "v": 72
    },
    {
      "midi": 75,
      "hit": false,
      "t": 19203.14900390625,
      "d": 2929.691162109375,
      "v": 72
    },
    {
      "midi": 79,
      "hit": false,
      "t": 19203.14900390625,
      "d": 2929.691162109375,
      "v": 86
    },
    {
      "midi": 80,
      "hit": false,
      "t": 22403.15300390625,
      "d": 1612.5020156249993,
      "v": 85
    },
    {
      "midi": 59,
      "hit": false,
      "t": 22403.15300390625,
      "d": 216.40652050781136,
      "v": 69
    },
    {
      "midi": 44,
      "hit": false,
      "t": 22403.15300390625,
      "d": 3196.097745117171,
      "v": 63
    },
    {
      "midi": 68,
      "hit": false,
      "t": 22632.05954003906,
      "d": 182.0314775390616,
      "v": 64
    },
    {
      "midi": 63,
      "hit": false,
      "t": 22826.59103320312,
      "d": 182.0314775390616,
      "v": 64
    },
    {
      "midi": 68,
      "hit": false,
      "t": 23021.12252636718,
      "d": 189.8439873046882,
      "v": 64
    },
    {
      "midi": 59,
      "hit": false,
      "t": 23223.466529296868,
      "d": 189.06273632812372,
      "v": 65
    },
    {
      "midi": 68,
      "hit": false,
      "t": 23425.02928124999,
      "d": 180.46897558593628,
      "v": 64
    },
    {
      "midi": 63,
      "hit": false,
      "t": 23617.998272460925,
      "d": 181.25022656250076,
      "v": 64
    },
    {
      "midi": 68,
      "hit": false,
      "t": 23811.748514648425,
      "d": 192.18774023437436,
      "v": 64
    },
    {
      "midi": 59,
      "hit": false,
      "t": 24016.4362705078,
      "d": 192.96899121093884,
      "v": 67
    },
    {
      "midi": 82,
      "hit": false,
      "t": 24016.43627050781,
      "d": 792.1884902343736,
      "v": 83
    },
    {
      "midi": 68,
      "hit": false,
      "t": 24221.905277343736,
      "d": 180.46897558593628,
      "v": 64
    },
    {
      "midi": 63,
      "hit": false,
      "t": 24414.87426855467,
      "d": 181.25022656250076,
      "v": 64
    },
    {
      "midi": 68,
      "hit": false,
      "t": 24608.62451074217,
      "d": 188.28148535156288,
      "v": 64
    },
    {
      "midi": 59,
      "hit": false,
      "t": 24809.406011718733,
      "d": 188.28148535156288,
      "v": 65
    },
    {
      "midi": 83,
      "hit": false,
      "t": 24809.406011718744,
      "d": 789.8447373046874,
      "v": 81
    },
    {
      "midi": 68,
      "hit": false,
      "t": 25010.187512695295,
      "d": 181.25022656250076,
      "v": 64
    },
    {
      "midi": 63,
      "hit": false,
      "t": 25203.937754882794,
      "d": 181.25022656250076,
      "v": 64
    },
    {
      "midi": 68,
      "hit": false,
      "t": 25397.687997070294,
      "d": 189.8439873046882,
      "v": 64
    },
    {
      "midi": 58,
      "hit": false,
      "t": 25603.15700390623,
      "d": 216.40652050781136,
      "v": 69
    },
    {
      "midi": 51,
      "hit": false,
      "t": 25603.15700390623,
      "d": 3196.097745117171,
      "v": 64
    },
    {
      "midi": 79,
      "hit": false,
      "t": 25603.157003906243,
      "d": 3196.097745117182,
      "v": 80
    },
    {
      "midi": 67,
      "hit": false,
      "t": 25832.063540039042,
      "d": 182.0314775390616,
      "v": 64
    },
    {
      "midi": 62,
      "hit": false,
      "t": 26026.595033203103,
      "d": 182.0314775390616,
      "v": 64
    },
    {
      "midi": 50,
      "hit": false,
      "t": 26026.595033203117,
      "d": 372.6567158203143,
      "v": 80
    },
    {
      "midi": 67,
      "hit": false,
      "t": 26221.126526367163,
      "d": 189.8439873046882,
      "v": 64
    },
    {
      "midi": 58,
      "hit": false,
      "t": 26423.47052929685,
      "d": 189.06273632812372,
      "v": 65
    },
    {
      "midi": 46,
      "hit": false,
      "t": 26423.47052929687,
      "d": 370.3129628906245,
      "v": 81
    },
    {
      "midi": 67,
      "hit": false,
      "t": 26625.033281249973,
      "d": 180.46897558593628,
      "v": 64
    },
    {
      "midi": 62,
      "hit": false,
      "t": 26818.002272460908,
      "d": 181.25022656250076,
      "v": 64
    },
    {
      "midi": 45,
      "hit": false,
      "t": 26818.00227246093,
      "d": 374.21921777343596,
      "v": 80
    },
    {
      "midi": 67,
      "hit": false,
      "t": 27011.752514648408,
      "d": 192.18774023437436,
      "v": 64
    },
    {
      "midi": 58,
      "hit": false,
      "t": 27216.44027050778,
      "d": 192.96899121093884,
      "v": 67
    },
    {
      "midi": 43,
      "hit": false,
      "t": 27216.440270507803,
      "d": 374.21921777343596,
      "v": 82
    },
    {
      "midi": 67,
      "hit": false,
      "t": 27421.90927734372,
      "d": 180.46897558593628,
      "v": 64
    },
    {
      "midi": 62,
      "hit": false,
      "t": 27614.878268554654,
      "d": 181.25022656250076,
      "v": 64
    },
    {
      "midi": 38,
      "hit": false,
      "t": 27614.878268554676,
      "d": 370.3129628906245,
      "v": 78
    },
    {
      "midi": 67,
      "hit": false,
      "t": 27808.628510742154,
      "d": 188.28148535156288,
      "v": 64
    },
    {
      "midi": 58,
      "hit": false,
      "t": 28009.410011718715,
      "d": 188.28148535156288,
      "v": 65
    },
    {
      "midi": 34,
      "hit": false,
      "t": 28009.410011718737,
      "d": 370.3129628906245,
      "v": 77
    },
    {
      "midi": 67,
      "hit": false,
      "t": 28210.191512695277,
      "d": 181.25022656250076,
      "v": 64
    },
    {
      "midi": 62,
      "hit": false,
      "t": 28403.941754882777,
      "d": 181.25022656250076,
      "v": 64
    },
    {
      "midi": 33,
      "hit": false,
      "t": 28403.9417548828,
      "d": 371.8754648437498,
      "v": 76
    },
    {
      "midi": 67,
      "hit": false,
      "t": 28597.691997070277,
      "d": 189.8439873046882,
      "v": 64
    },
    {
      "midi": 59,
      "hit": false,
      "t": 28803.161003906214,
      "d": 216.40652050781136,
      "v": 69
    },
    {
      "midi": 44,
      "hit": false,
      "t": 28803.161003906214,
      "d": 3196.097745117171,
      "v": 63
    },
    {
      "midi": 80,
      "hit": false,
      "t": 28803.161003906236,
      "d": 1612.5020156249993,
      "v": 85
    },
    {
      "midi": 68,
      "hit": false,
      "t": 29032.067540039025,
      "d": 182.0314775390616,
      "v": 64
    },
    {
      "midi": 63,
      "hit": false,
      "t": 29226.599033203085,
      "d": 182.0314775390616,
      "v": 64
    },
    {
      "midi": 68,
      "hit": false,
      "t": 29421.130526367146,
      "d": 189.8439873046882,
      "v": 64
    },
    {
      "midi": 59,
      "hit": false,
      "t": 29623.474529296833,
      "d": 189.06273632812372,
      "v": 65
    },
    {
      "midi": 68,
      "hit": false,
      "t": 29825.037281249955,
      "d": 180.46897558593628,
      "v": 64
    },
    {
      "midi": 63,
      "hit": false,
      "t": 30018.00627246089,
      "d": 181.25022656250076,
      "v": 64
    },
    {
      "midi": 68,
      "hit": false,
      "t": 30211.75651464839,
      "d": 192.18774023437436,
      "v": 64
    },
    {
      "midi": 59,
      "hit": false,
      "t": 30416.444270507764,
      "d": 192.96899121093884,
      "v": 67
    },
    {
      "midi": 82,
      "hit": false,
      "t": 30416.444270507796,
      "d": 1186.7202333984387,
      "v": 83
    },
    {
      "midi": 68,
      "hit": false,
      "t": 30621.9132773437,
      "d": 180.46897558593628,
      "v": 64
    },
    {
      "midi": 63,
      "hit": false,
      "t": 30814.882268554637,
      "d": 181.25022656250076,
      "v": 64
    },
    {
      "midi": 68,
      "hit": false,
      "t": 31008.632510742136,
      "d": 188.28148535156288,
      "v": 64
    },
    {
      "midi": 59,
      "hit": false,
      "t": 31209.414011718698,
      "d": 188.28148535156288,
      "v": 65
    },
    {
      "midi": 68,
      "hit": false,
      "t": 31410.19551269526,
      "d": 181.25022656250076,
      "v": 64
    },
    {
      "midi": 63,
      "hit": false,
      "t": 31603.94575488276,
      "d": 181.25022656250076,
      "v": 64
    },
    {
      "midi": 83,
      "hit": false,
      "t": 31603.945754882796,
      "d": 371.8754648437498,
      "v": 80
    },
    {
      "midi": 68,
      "hit": false,
      "t": 31797.69599707026,
      "d": 189.8439873046882,
      "v": 64
    },
    {
      "midi": 56,
      "hit": false,
      "t": 32003.165003906197,
      "d": 216.40652050781136,
      "v": 69
    },
    {
      "midi": 49,
      "hit": false,
      "t": 32003.165003906197,
      "d": 3196.097745117204,
      "v": 64
    },
    {
      "midi": 85,
      "hit": false,
      "t": 32003.165003906233,
      "d": 3196.0977451171893,
      "v": 80
    },
    {
      "midi": 64,
      "hit": false,
      "t": 32232.071540039007,
      "d": 182.0314775390616,
      "v": 64
    },
    {
      "midi": 61,
      "hit": false,
      "t": 32426.603033203068,
      "d": 182.0314775390616,
      "v": 64
    },
    {
      "midi": 64,
      "hit": false,
      "t": 32621.13452636713,
      "d": 189.84398730468456,
      "v": 64
    },
    {
      "midi": 56,
      "hit": false,
      "t": 32823.478529296815,
      "d": 189.06273632812372,
      "v": 65
    },
    {
      "midi": 64,
      "hit": false,
      "t": 33025.04128124994,
      "d": 180.46897558593628,
      "v": 64
    },
    {
      "midi": 61,
      "hit": false,
      "t": 33218.01027246088,
      "d": 181.25022656250076,
      "v": 64
    },
    {
      "midi": 64,
      "hit": false,
      "t": 33411.760514648384,
      "d": 192.18774023437436,
      "v": 64
    },
    {
      "midi": 56,
      "hit": false,
      "t": 33616.44827050776,
      "d": 192.96899121093884,
      "v": 67
    },
    {
      "midi": 64,
      "hit": false,
      "t": 33821.9172773437,
      "d": 180.46897558593628,
      "v": 64
    },
    {
      "midi": 61,
      "hit": false,
      "t": 34014.88626855464,
      "d": 181.25022656250076,
      "v": 64
    },
    {
      "midi": 64,
      "hit": false,
      "t": 34208.636510742144,
      "d": 188.28148535155924,
      "v": 64
    },
    {
      "midi": 56,
      "hit": false,
      "t": 34409.418011718706,
      "d": 188.28148535155924,
      "v": 65
    },
    {
      "midi": 64,
      "hit": false,
      "t": 34610.19951269527,
      "d": 181.25022656250076,
      "v": 64
    },
    {
      "midi": 61,
      "hit": false,
      "t": 34803.94975488277,
      "d": 181.25022656250076,
      "v": 64
    },
    {
      "midi": 64,
      "hit": false,
      "t": 34997.699997070275,
      "d": 189.8439873046882,
      "v": 64
    },
    {
      "midi": 57,
      "hit": false,
      "t": 35203.169003906216,
      "d": 216.406520507815,
      "v": 69
    },
    {
      "midi": 45,
      "hit": false,
      "t": 35203.169003906216,
      "d": 3196.0977451172294,
      "v": 64
    },
    {
      "midi": 85,
      "hit": false,
      "t": 35203.16900390624,
      "d": 1612.502015625003,
      "v": 85
    },
    {
      "midi": 64,
      "hit": false,
      "t": 35432.07554003903,
      "d": 182.03147753906524,
      "v": 64
    },
    {
      "midi": 61,
      "hit": false,
      "t": 35626.6070332031,
      "d": 182.03147753906524,
      "v": 64
    },
    {
      "midi": 64,
      "hit": false,
      "t": 35821.13852636717,
      "d": 189.8439873046882,
      "v": 64
    },
    {
      "midi": 57,
      "hit": false,
      "t": 36023.48252929686,
      "d": 189.06273632812372,
      "v": 65
    },
    {
      "midi": 64,
      "hit": false,
      "t": 36225.045281249986,
      "d": 180.46897558593628,
      "v": 64
    },
    {
      "midi": 61,
      "hit": false,
      "t": 36418.014272460925,
      "d": 181.25022656250076,
      "v": 64
    },
    {
      "midi": 64,
      "hit": false,
      "t": 36611.76451464843,
      "d": 192.18774023437436,
      "v": 64
    },
    {
      "midi": 87,
      "hit": false,
      "t": 36816.452270507805,
      "d": 792.1884902343736,
      "v": 83
    },
    {
      "midi": 57,
      "hit": false,
      "t": 36816.452270507805,
      "d": 192.96899121093884,
      "v": 67
    },
    {
      "midi": 64,
      "hit": false,
      "t": 37021.92127734375,
      "d": 180.46897558593628,
      "v": 64
    },
    {
      "midi": 61,
      "hit": false,
      "t": 37214.890268554685,
      "d": 181.25022656250076,
      "v": 64
    },
    {
      "midi": 64,
      "hit": false,
      "t": 37408.64051074219,
      "d": 188.28148535155924,
      "v": 64
    },
    {
      "midi": 88,
      "hit": false,
      "t": 37609.42201171874,
      "d": 789.8447373046874,
      "v": 81
    },
    {
      "midi": 57,
      "hit": false,
      "t": 37609.42201171875,
      "d": 188.28148535155924,
      "v": 65
    },
    {
      "midi": 64,
      "hit": false,
      "t": 37810.20351269531,
      "d": 181.25022656250076,
      "v": 64
    },
    {
      "midi": 61,
      "hit": false,
      "t": 38003.953754882816,
      "d": 181.25022656250076,
      "v": 64
    },
    {
      "midi": 64,
      "hit": false,
      "t": 38197.70399707032,
      "d": 189.8439873046882,
      "v": 64
    },
    {
      "midi": 80,
      "hit": false,
      "t": 38403.173003906246,
      "d": 1070.3138378906224,
      "v": 85
    },
    {
      "midi": 59,
      "hit": false,
      "t": 38403.17300390626,
      "d": 216.406520507815,
      "v": 69
    },
    {
      "midi": 52,
      "hit": false,
      "t": 38403.17300390626,
      "d": 1612.5020156250248,
      "v": 69
    },
    {
      "midi": 68,
      "hit": false,
      "t": 38632.07954003908,
      "d": 182.03147753906524,
      "v": 64
    },
    {
      "midi": 64,
      "hit": false,
      "t": 38826.611033203146,
      "d": 182.03147753906524,
      "v": 64
    },
    {
      "midi": 68,
      "hit": false,
      "t": 39021.14252636721,
      "d": 189.8439873046882,
      "v": 64
    },
    {
      "midi": 59,
      "hit": false,
      "t": 39223.486529296904,
      "d": 189.06273632812372,
      "v": 65
    },
    {
      "midi": 68,
      "hit": false,
      "t": 39425.04928125003,
      "d": 180.46897558593628,
      "v": 64
    },
    {
      "midi": 78,
      "hit": false,
      "t": 39489.89311230468,
      "d": 240.62530078124837,
      "v": 80
    },
    {
      "midi": 64,
      "hit": false,
      "t": 39618.01827246097,
      "d": 181.25022656250076,
      "v": 64
    },
    {
      "midi": 76,
      "hit": false,
      "t": 39746.92468359374,
      "d": 253.12531640625093,
      "v": 80
    },
    {
      "midi": 68,
      "hit": false,
      "t": 39811.76851464847,
      "d": 192.18774023437436,
      "v": 64
    },
    {
      "midi": 80,
      "hit": false,
      "t": 40016.4562705078,
      "d": 1186.7202333984387,
      "v": 83
    },
    {
      "midi": 60,
      "hit": false,
      "t": 40016.45627050785,
      "d": 192.96899121093884,
      "v": 67
    },
    {
      "midi": 56,
      "hit": false,
      "t": 40016.45627050785,
      "d": 1582.81447851564,
      "v": 67
    },
    {
      "midi": 68,
      "hit": false,
      "t": 40221.92527734379,
      "d": 180.46897558593628,
      "v": 64
    },
    {
      "midi": 63,
      "hit": false,
      "t": 40414.89426855473,
      "d": 181.25022656250076,
      "v": 64
    },
    {
      "midi": 68,
      "hit": false,
      "t": 40608.64451074223,
      "d": 188.28148535155924,
      "v": 64
    },
    {
      "midi": 60,
      "hit": false,
      "t": 40809.426011718795,
      "d": 188.28148535155924,
      "v": 65
    },
    {
      "midi": 68,
      "hit": false,
      "t": 41010.20751269536,
      "d": 181.25022656250076,
      "v": 64
    },
    {
      "midi": 78,
      "hit": false,
      "t": 41203.9577548828,
      "d": 371.87546484375343,
      "v": 80
    },
    {
      "midi": 63,
      "hit": false,
      "t": 41203.95775488286,
      "d": 181.25022656250076,
      "v": 64
    },
    {
      "midi": 68,
      "hit": false,
      "t": 41397.70799707036,
      "d": 189.8439873046882,
      "v": 64
    },
    {
      "midi": 76,
      "hit": false,
      "t": 41603.17700390624,
      "d": 3196.0977451171857,
      "v": 80
    },
    {
      "midi": 61,
      "hit": false,
      "t": 41603.177003906305,
      "d": 216.406520507815,
      "v": 69
    },
    {
      "midi": 57,
      "hit": false,
      "t": 41603.177003906305,
      "d": 3196.0977451172294,
      "v": 64
    },
    {
      "midi": 69,
      "hit": false,
      "t": 41832.08354003912,
      "d": 182.03147753906524,
      "v": 64
    },
    {
      "midi": 64,
      "hit": false,
      "t": 42026.61503320319,
      "d": 182.03147753906524,
      "v": 64
    },
    {
      "midi": 69,
      "hit": false,
      "t": 42221.14652636726,
      "d": 189.8439873046882,
      "v": 64
    },
    {
      "midi": 61,
      "hit": false,
      "t": 42423.49052929695,
      "d": 189.06273632812372,
      "v": 65
    },
    {
      "midi": 69,
      "hit": false,
      "t": 42625.053281250075,
      "d": 180.46897558593628,
      "v": 64
    },
    {
      "midi": 64,
      "hit": false,
      "t": 42818.022272461014,
      "d": 181.25022656250076,
      "v": 64
    },
    {
      "midi": 69,
      "hit": false,
      "t": 43011.77251464852,
      "d": 192.18774023437436,
      "v": 64
    },
    {
      "midi": 61,
      "hit": false,
      "t": 43216.460270507894,
      "d": 192.96899121093884,
      "v": 67
    },
    {
      "midi": 69,
      "hit": false,
      "t": 43421.929277343836,
      "d": 180.46897558593628,
      "v": 64
    },
    {
      "midi": 64,
      "hit": false,
      "t": 43614.898268554774,
      "d": 181.25022656250076,
      "v": 64
    },
    {
      "midi": 69,
      "hit": false,
      "t": 43808.64851074228,
      "d": 188.28148535155924,
      "v": 64
    },
    {
      "midi": 61,
      "hit": false,
      "t": 44009.43001171884,
      "d": 188.28148535155924,
      "v": 65
    },
    {
      "midi": 69,
      "hit": false,
      "t": 44210.2115126954,
      "d": 181.25022656250076,
      "v": 64
    },
    {
      "midi": 64,
      "hit": false,
      "t": 44403.961754882905,
      "d": 181.25022656250076,
      "v": 64
    },
    {
      "midi": 69,
      "hit": false,
      "t": 44597.71199707041,
      "d": 189.8439873046882,
      "v": 64
    },
    {
      "midi": 64,
      "hit": false,
      "t": 44803.18100390624,
      "d": 216.406520507815,
      "v": 69
    },
    {
      "midi": 73,
      "hit": false,
      "t": 44803.18100390624,
      "d": 4812.50601562504,
      "v": 80
    },
    {
      "midi": 49,
      "hit": false,
      "t": 44803.18100390635,
      "d": 216.406520507815,
      "v": 69
    },
    {
      "midi": 37,
      "hit": false,
      "t": 44803.18100390635,
      "d": 3196.0977451172294,
      "v": 63
    },
    {
      "midi": 63,
      "hit": false,
      "t": 45032.08754003906,
      "d": 182.03147753906524,
      "v": 64
    },
    {
      "midi": 51,
      "hit": false,
      "t": 45032.08754003917,
      "d": 182.03147753906524,
      "v": 64
    },
    {
      "midi": 64,
      "hit": false,
      "t": 45226.619033203126,
      "d": 182.03147753906524,
      "v": 64
    },
    {
      "midi": 52,
      "hit": false,
      "t": 45226.619033203235,
      "d": 182.03147753906524,
      "v": 64
    },
    {
      "midi": 56,
      "hit": false,
      "t": 45421.1505263673,
      "d": 189.8439873046882,
      "v": 64
    },
    {
      "midi": 64,
      "hit": false,
      "t": 45623.49452929688,
      "d": 189.06273632812372,
      "v": 65
    },
    {
      "midi": 61,
      "hit": false,
      "t": 45623.49452929699,
      "d": 189.06273632812372,
      "v": 65
    },
    {
      "midi": 63,
      "hit": false,
      "t": 45825.05728125,
      "d": 180.46897558593628,
      "v": 64
    },
    {
      "midi": 56,
      "hit": false,
      "t": 45825.05728125012,
      "d": 180.46897558593628,
      "v": 64
    },
    {
      "midi": 64,
      "hit": false,
      "t": 46018.02627246094,
      "d": 181.25022656250076,
      "v": 64
    },
    {
      "midi": 52,
      "hit": false,
      "t": 46018.02627246106,
      "d": 181.25022656250076,
      "v": 64
    },
    {
      "midi": 51,
      "hit": false,
      "t": 46211.77651464856,
      "d": 192.18774023437436,
      "v": 64
    },
    {
      "midi": 64,
      "hit": false,
      "t": 46416.464270507815,
      "d": 192.96899121093884,
      "v": 67
    },
    {
      "midi": 49,
      "hit": false,
      "t": 46416.46427050794,
      "d": 192.96899121093884,
      "v": 67
    },
    {
      "midi": 63,
      "hit": false,
      "t": 46621.933277343756,
      "d": 180.46897558593628,
      "v": 64
    },
    {
      "midi": 51,
      "hit": false,
      "t": 46621.93327734388,
      "d": 180.46897558593628,
      "v": 64
    },
    {
      "midi": 64,
      "hit": false,
      "t": 46814.902268554695,
      "d": 181.25022656250076,
      "v": 64
    },
    {
      "midi": 52,
      "hit": false,
      "t": 46814.90226855482,
      "d": 181.25022656250076,
      "v": 64
    },
    {
      "midi": 56,
      "hit": false,
      "t": 47008.65251074232,
      "d": 188.28148535155924,
      "v": 64
    },
    {
      "midi": 64,
      "hit": false,
      "t": 47209.43401171876,
      "d": 188.28148535155924,
      "v": 65
    },
    {
      "midi": 61,
      "hit": false,
      "t": 47209.434011718884,
      "d": 188.28148535155924,
      "v": 65
    },
    {
      "midi": 63,
      "hit": false,
      "t": 47410.21551269532,
      "d": 181.25022656250076,
      "v": 64
    },
    {
      "midi": 56,
      "hit": false,
      "t": 47410.215512695446,
      "d": 181.25022656250076,
      "v": 64
    },
    {
      "midi": 64,
      "hit": false,
      "t": 47603.965754882825,
      "d": 181.25022656250076,
      "v": 64
    },
    {
      "midi": 52,
      "hit": false,
      "t": 47603.96575488295,
      "d": 181.25022656250076,
      "v": 64
    },
    {
      "midi": 51,
      "hit": false,
      "t": 47797.71599707045,
      "d": 189.8439873046882,
      "v": 64
    },
    {
      "midi": 64,
      "hit": false,
      "t": 48003.18500390626,
      "d": 216.406520507815,
      "v": 69
    },
    {
      "midi": 49,
      "hit": false,
      "t": 48003.185003906394,
      "d": 216.406520507815,
      "v": 69
    },
    {
      "midi": 63,
      "hit": false,
      "t": 48232.09154003908,
      "d": 182.03147753906524,
      "v": 64
    },
    {
      "midi": 51,
      "hit": false,
      "t": 48232.09154003921,
      "d": 182.03147753906524,
      "v": 64
    },
    {
      "midi": 64,
      "hit": false,
      "t": 48426.62303320315,
      "d": 182.03147753906524,
      "v": 64
    },
    {
      "midi": 52,
      "hit": false,
      "t": 48426.62303320328,
      "d": 182.03147753906524,
      "v": 64
    },
    {
      "midi": 56,
      "hit": false,
      "t": 48621.15452636735,
      "d": 189.8439873046882,
      "v": 64
    },
    {
      "midi": 64,
      "hit": false,
      "t": 48823.4985292969,
      "d": 189.06273632812372,
      "v": 65
    },
    {
      "midi": 61,
      "hit": false,
      "t": 48823.49852929704,
      "d": 189.06273632812372,
      "v": 65
    },
    {
      "midi": 63,
      "hit": false,
      "t": 49025.061281250026,
      "d": 180.46897558593628,
      "v": 64
    },
    {
      "midi": 56,
      "hit": false,
      "t": 49025.061281250164,
      "d": 180.46897558593628,
      "v": 64
    },
    {
      "midi": 64,
      "hit": false,
      "t": 49218.030272460965,
      "d": 181.25022656250076,
      "v": 64
    },
    {
      "midi": 52,
      "hit": false,
      "t": 49218.0302724611,
      "d": 181.25022656250076,
      "v": 64
    },
    {
      "midi": 51,
      "hit": false,
      "t": 49411.780514648606,
      "d": 192.18774023437436,
      "v": 64
    },
    {
      "midi": 64,
      "hit": false,
      "t": 49616.468270507845,
      "d": 192.96899121093884,
      "v": 67
    },
    {
      "midi": 49,
      "hit": false,
      "t": 49616.46827050798,
      "d": 192.96899121093884,
      "v": 67
    },
    {
      "midi": 63,
      "hit": false,
      "t": 49821.937277343786,
      "d": 180.46897558593628,
      "v": 64
    },
    {
      "midi": 51,
      "hit": false,
      "t": 49821.937277343925,
      "d": 180.46897558593628,
      "v": 64
    },
    {
      "midi": 64,
      "hit": false,
      "t": 50014.906268554725,
      "d": 181.25022656250076,
      "v": 64
    },
    {
      "midi": 52,
      "hit": false,
      "t": 50014.90626855486,
      "d": 181.25022656250076,
      "v": 64
    },
    {
      "midi": 56,
      "hit": false,
      "t": 50208.65651074237,
      "d": 188.28148535155924,
      "v": 64
    },
    {
      "midi": 64,
      "hit": false,
      "t": 50409.43801171879,
      "d": 188.28148535155924,
      "v": 65
    },
    {
      "midi": 61,
      "hit": false,
      "t": 50409.43801171893,
      "d": 188.28148535155924,
      "v": 65
    },
    {
      "midi": 63,
      "hit": false,
      "t": 50610.21951269535,
      "d": 181.25022656250076,
      "v": 64
    },
    {
      "midi": 56,
      "hit": false,
      "t": 50610.21951269549,
      "d": 181.25022656250076,
      "v": 64
    },
    {
      "midi": 64,
      "hit": false,
      "t": 50803.969754882855,
      "d": 181.25022656250076,
      "v": 64
    },
    {
      "midi": 68,
      "hit": false,
      "t": 50803.969754882855,
      "d": 371.87546484375343,
      "v": 80
    },
    {
      "midi": 52,
      "hit": false,
      "t": 50803.96975488299,
      "d": 181.25022656250076,
      "v": 64
    },
    {
      "midi": 51,
      "hit": false,
      "t": 50997.7199970705,
      "d": 189.8439873046882,
      "v": 64
    },
    {
      "midi": 61,
      "hit": false,
      "t": 51203.18900390629,
      "d": 819.5322744140649,
      "v": 77
    },
    {
      "midi": 73,
      "hit": false,
      "t": 51203.18900390629,
      "d": 819.5322744140649,
      "v": 87
    },
    {
      "midi": 49,
      "hit": false,
      "t": 51203.18900390644,
      "d": 216.406520507815,
      "v": 69
    },
    {
      "midi": 51,
      "hit": false,
      "t": 51432.095540039256,
      "d": 182.03147753906524,
      "v": 64
    },
    {
      "midi": 52,
      "hit": false,
      "t": 51626.627033203324,
      "d": 182.03147753906524,
      "v": 64
    },
    {
      "midi": 56,
      "hit": false,
      "t": 51821.15852636739,
      "d": 189.8439873046882,
      "v": 64
    },
    {
      "midi": 61,
      "hit": false,
      "t": 52023.50252929692,
      "d": 1190.6264882812466,
      "v": 73
    },
    {
      "midi": 73,
      "hit": false,
      "t": 52023.50252929692,
      "d": 1190.6264882812466,
      "v": 83
    },
    {
      "midi": 64,
      "hit": false,
      "t": 52023.50252929708,
      "d": 189.06273632812372,
      "v": 65
    },
    {
      "midi": 56,
      "hit": false,
      "t": 52225.06528125021,
      "d": 180.46897558593628,
      "v": 64
    },
    {
      "midi": 52,
      "hit": false,
      "t": 52418.03427246115,
      "d": 181.25022656250076,
      "v": 64
    },
    {
      "midi": 51,
      "hit": false,
      "t": 52611.78451464865,
      "d": 192.18774023437436,
      "v": 64
    },
    {
      "midi": 49,
      "hit": false,
      "t": 52816.47227050803,
      "d": 192.96899121093884,
      "v": 67
    },
    {
      "midi": 51,
      "hit": false,
      "t": 53021.94127734397,
      "d": 180.46897558593628,
      "v": 64
    },
    {
      "midi": 68,
      "hit": false,
      "t": 53214.91026855473,
      "d": 370.3129628906245,
      "v": 80
    },
    {
      "midi": 52,
      "hit": false,
      "t": 53214.91026855491,
      "d": 181.25022656250076,
      "v": 64
    },
    {
      "midi": 56,
      "hit": false,
      "t": 53408.66051074241,
      "d": 188.28148535155924,
      "v": 56
    },
    {
      "midi": 61,
      "hit": false,
      "t": 53408.66051074241,
      "d": 200.00024999999732,
      "v": 70
    },
    {
      "midi": 61,
      "hit": false,
      "t": 53609.4420117188,
      "d": 370.3129628906245,
      "v": 73
    },
    {
      "midi": 73,
      "hit": false,
      "t": 53609.4420117188,
      "d": 393.75049218750064,
      "v": 87
    },
    {
      "midi": 64,
      "hit": false,
      "t": 53609.44201171897,
      "d": 188.28148535155924,
      "v": 65
    },
    {
      "midi": 56,
      "hit": false,
      "t": 53810.223512695535,
      "d": 181.25022656250076,
      "v": 64
    },
    {
      "midi": 63,
      "hit": false,
      "t": 54003.97375488286,
      "d": 371.87546484375343,
      "v": 72
    },
    {
      "midi": 75,
      "hit": false,
      "t": 54003.97375488286,
      "d": 395.3129941406296,
      "v": 86
    },
    {
      "midi": 52,
      "hit": false,
      "t": 54003.97375488304,
      "d": 181.25022656250076,
      "v": 64
    },
    {
      "midi": 51,
      "hit": false,
      "t": 54197.72399707054,
      "d": 189.8439873046882,
      "v": 64
    },
    {
      "midi": 64,
      "hit": false,
      "t": 54403.19300390631,
      "d": 399.21924902343744,
      "v": 77
    },
    {
      "midi": 76,
      "hit": false,
      "t": 54403.19300390631,
      "d": 422.6567783203136,
      "v": 91
    },
    {
      "midi": 49,
      "hit": false,
      "t": 54403.19300390648,
      "d": 216.406520507815,
      "v": 69
    },
    {
      "midi": 51,
      "hit": false,
      "t": 54632.0995400393,
      "d": 182.03147753906524,
      "v": 64
    },
    {
      "midi": 63,
      "hit": false,
      "t": 54826.631033203186,
      "d": 372.65671582031064,
      "v": 72
    },
    {
      "midi": 75,
      "hit": false,
      "t": 54826.631033203186,
      "d": 396.0942451171868,
      "v": 86
    },
    {
      "midi": 52,
      "hit": false,
      "t": 54826.63103320337,
      "d": 182.03147753906524,
      "v": 64
    },
    {
      "midi": 56,
      "hit": false,
      "t": 55021.162526367436,
      "d": 189.8439873046882,
      "v": 56
    },
    {
      "midi": 61,
      "hit": false,
      "t": 55021.162526367436,
      "d": 201.56275195312628,
      "v": 70
    },
    {
      "midi": 61,
      "hit": false,
      "t": 55223.50652929694,
      "d": 370.3129628906245,
      "v": 73
    },
    {
      "midi": 73,
      "hit": false,
      "t": 55223.50652929694,
      "d": 393.75049218750064,
      "v": 87
    },
    {
      "midi": 64,
      "hit": false,
      "t": 55223.50652929713,
      "d": 189.06273632812372,
      "v": 65
    },
    {
      "midi": 56,
      "hit": false,
      "t": 55425.06928125025,
      "d": 180.46897558593628,
      "v": 64
    },
    {
      "midi": 59,
      "hit": false,
      "t": 55618.038272461,
      "d": 374.2192177734396,
      "v": 72
    },
    {
      "midi": 71,
      "hit": false,
      "t": 55618.038272461,
      "d": 397.65674707031576,
      "v": 86
    },
    {
      "midi": 52,
      "hit": false,
      "t": 55618.03827246119,
      "d": 181.25022656250076,
      "v": 64
    },
    {
      "midi": 51,
      "hit": false,
      "t": 55811.788514648695,
      "d": 192.18774023437436,
      "v": 64
    },
    {
      "midi": 57,
      "hit": false,
      "t": 56016.47627050788,
      "d": 1186.7202333984387,
      "v": 75
    },
    {
      "midi": 69,
      "hit": false,
      "t": 56016.47627050788,
      "d": 1186.7202333984387,
      "v": 89
    },
    {
      "midi": 45,
      "hit": false,
      "t": 56016.47627050807,
      "d": 192.96899121093884,
      "v": 67
    },
    {
      "midi": 49,
      "hit": false,
      "t": 56221.94527734401,
      "d": 180.46897558593628,
      "v": 64
    },
    {
      "midi": 52,
      "hit": false,
      "t": 56414.91426855495,
      "d": 181.25022656250076,
      "v": 64
    },
    {
      "midi": 57,
      "hit": false,
      "t": 56608.664510742456,
      "d": 188.28148535155924,
      "v": 56
    },
    {
      "midi": 61,
      "hit": false,
      "t": 56608.664510742456,
      "d": 200.00024999999732,
      "v": 70
    },
    {
      "midi": 61,
      "hit": false,
      "t": 56809.44601171902,
      "d": 188.28148535155924,
      "v": 57
    },
    {
      "midi": 64,
      "hit": false,
      "t": 56809.44601171902,
      "d": 200.00024999999732,
      "v": 71
    },
    {
      "midi": 57,
      "hit": false,
      "t": 57010.22751269558,
      "d": 181.25022656250076,
      "v": 64
    },
    {
      "midi": 59,
      "hit": false,
      "t": 57203.977754882886,
      "d": 371.87546484375343,
      "v": 72
    },
    {
      "midi": 71,
      "hit": false,
      "t": 57203.977754882886,
      "d": 395.3129941406296,
      "v": 86
    },
    {
      "midi": 56,
      "hit": false,
      "t": 57203.97775488308,
      "d": 181.25022656250076,
      "v": 64
    },
    {
      "midi": 52,
      "hit": false,
      "t": 57397.727997070586,
      "d": 189.8439873046882,
      "v": 64
    },
    {
      "midi": 56,
      "hit": false,
      "t": 57603.19700390633,
      "d": 5605.475756835956,
      "v": 72
    },
    {
      "midi": 68,
      "hit": false,
      "t": 57603.19700390633,
      "d": 5976.569970703145,
      "v": 86
    },
    {
      "midi": 49,
      "hit": false,
      "t": 57603.19700390653,
      "d": 216.406520507815,
      "v": 69
    },
    {
      "midi": 51,
      "hit": false,
      "t": 57832.103540039345,
      "d": 182.03147753906524,
      "v": 64
    },
    {
      "midi": 52,
      "hit": false,
      "t": 58026.63503320341,
      "d": 182.03147753906524,
      "v": 64
    },
    {
      "midi": 56,
      "hit": false,
      "t": 58221.16652636748,
      "d": 189.8439873046882,
      "v": 56
    },
    {
      "midi": 61,
      "hit": false,
      "t": 58221.16652636748,
      "d": 201.56275195312628,
      "v": 70
    },
    {
      "midi": 61,
      "hit": false,
      "t": 58423.51052929717,
      "d": 189.06273632812372,
      "v": 57
    },
    {
      "midi": 64,
      "hit": false,
      "t": 58423.51052929717,
      "d": 200.7815009765618,
      "v": 71
    },
    {
      "midi": 56,
      "hit": false,
      "t": 58625.0732812503,
      "d": 180.46897558593628,
      "v": 64
    },
    {
      "midi": 52,
      "hit": false,
      "t": 58818.042272461236,
      "d": 181.25022656250076,
      "v": 64
    },
    {
      "midi": 51,
      "hit": false,
      "t": 59011.79251464874,
      "d": 192.18774023437436,
      "v": 64
    },
    {
      "midi": 49,
      "hit": false,
      "t": 59216.48027050812,
      "d": 192.96899121093884,
      "v": 67
    },
    {
      "midi": 51,
      "hit": false,
      "t": 59421.94927734406,
      "d": 180.46897558593628,
      "v": 64
    },
    {
      "midi": 87,
      "hit": false,
      "t": 59614.91826855477,
      "d": 370.3129628906245,
      "v": 72
    },
    {
      "midi": 90,
      "hit": false,
      "t": 59614.91826855477,
      "d": 393.75049218750064,
      "v": 86
    },
    {
      "midi": 52,
      "hit": false,
      "t": 59614.918268555,
      "d": 181.25022656250076,
      "v": 64
    },
    {
      "midi": 56,
      "hit": false,
      "t": 59808.6685107425,
      "d": 188.28148535155924,
      "v": 56
    },
    {
      "midi": 61,
      "hit": false,
      "t": 59808.6685107425,
      "d": 200.00024999999732,
      "v": 70
    },
    {
      "midi": 85,
      "hit": false,
      "t": 60009.450011718836,
      "d": 370.3129628906245,
      "v": 73
    },
    {
      "midi": 88,
      "hit": false,
      "t": 60009.450011718836,
      "d": 393.75049218750064,
      "v": 87
    },
    {
      "midi": 61,
      "hit": false,
      "t": 60009.45001171906,
      "d": 188.28148535155924,
      "v": 57
    },
    {
      "midi": 64,
      "hit": false,
      "t": 60009.45001171906,
      "d": 200.00024999999732,
      "v": 71
    },
    {
      "midi": 56,
      "hit": false,
      "t": 60210.231512695624,
      "d": 181.25022656250076,
      "v": 64
    },
    {
      "midi": 84,
      "hit": false,
      "t": 60403.9817548829,
      "d": 371.87546484375343,
      "v": 72
    },
    {
      "midi": 87,
      "hit": false,
      "t": 60403.9817548829,
      "d": 395.3129941406296,
      "v": 86
    },
    {
      "midi": 52,
      "hit": false,
      "t": 60403.98175488313,
      "d": 181.25022656250076,
      "v": 64
    },
    {
      "midi": 51,
      "hit": false,
      "t": 60597.73199707063,
      "d": 189.8439873046882,
      "v": 64
    },
    {
      "midi": 85,
      "hit": false,
      "t": 60803.201003906346,
      "d": 819.5322744140649,
      "v": 77
    },
    {
      "midi": 88,
      "hit": false,
      "t": 60803.201003906346,
      "d": 819.5322744140649,
      "v": 91
    },
    {
      "midi": 49,
      "hit": false,
      "t": 60803.20100390657,
      "d": 216.406520507815,
      "v": 69
    },
    {
      "midi": 51,
      "hit": false,
      "t": 61032.10754003939,
      "d": 182.03147753906524,
      "v": 64
    },
    {
      "midi": 52,
      "hit": false,
      "t": 61226.63903320346,
      "d": 182.03147753906524,
      "v": 64
    },
    {
      "midi": 56,
      "hit": false,
      "t": 61421.170526367525,
      "d": 189.8439873046882,
      "v": 56
    },
    {
      "midi": 61,
      "hit": false,
      "t": 61421.170526367525,
      "d": 201.56275195312628,
      "v": 70
    },
    {
      "midi": 61,
      "hit": false,
      "t": 61623.514529297216,
      "d": 189.06273632812372,
      "v": 57
    },
    {
      "midi": 64,
      "hit": false,
      "t": 61623.514529297216,
      "d": 200.7815009765618,
      "v": 71
    },
    {
      "midi": 56,
      "hit": false,
      "t": 61825.07728125034,
      "d": 180.46897558593628,
      "v": 64
    },
    {
      "midi": 52,
      "hit": false,
      "t": 62018.04627246128,
      "d": 181.25022656250076,
      "v": 64
    },
    {
      "midi": 51,
      "hit": false,
      "t": 62211.796514648784,
      "d": 192.18774023437436,
      "v": 64
    },
    {
      "midi": 49,
      "hit": false,
      "t": 62416.48427050816,
      "d": 192.96899121093884,
      "v": 67
    },
    {
      "midi": 51,
      "hit": false,
      "t": 62621.9532773441,
      "d": 180.46897558593628,
      "v": 64
    },
    {
      "midi": 52,
      "hit": false,
      "t": 62814.92226855504,
      "d": 181.25022656250076,
      "v": 64
    },
    {
      "midi": 56,
      "hit": false,
      "t": 63008.672510742545,
      "d": 188.28148535155924,
      "v": 56
    },
    {
      "midi": 61,
      "hit": false,
      "t": 63008.672510742545,
      "d": 200.00024999999732,
      "v": 70
    },
    {
      "midi": 61,
      "hit": false,
      "t": 63209.454011719106,
      "d": 188.28148535155924,
      "v": 57
    },
    {
      "midi": 64,
      "hit": false,
      "t": 63209.454011719106,
      "d": 200.00024999999732,
      "v": 71
    },
    {
      "midi": 56,
      "hit": false,
      "t": 63410.23551269567,
      "d": 181.25022656250076,
      "v": 64
    },
    {
      "midi": 61,
      "hit": false,
      "t": 63603.98575488292,
      "d": 371.87546484375343,
      "v": 72
    },
    {
      "midi": 73,
      "hit": false,
      "t": 63603.98575488292,
      "d": 395.3129941406296,
      "v": 86
    },
    {
      "midi": 52,
      "hit": false,
      "t": 63603.98575488317,
      "d": 181.25022656250076,
      "v": 64
    },
    {
      "midi": 51,
      "hit": false,
      "t": 63797.735997070675,
      "d": 189.8439873046882,
      "v": 64
    },
    {
      "midi": 66,
      "hit": false,
      "t": 64003.20500390636,
      "d": 1987.5024843749998,
      "v": 77
    },
    {
      "midi": 78,
      "hit": false,
      "t": 64003.20500390636,
      "d": 2010.940013671876,
      "v": 91
    },
    {
      "midi": 42,
      "hit": false,
      "t": 64003.205003906616,
      "d": 216.406520507815,
      "v": 69
    },
    {
      "midi": 49,
      "hit": false,
      "t": 64232.111540039434,
      "d": 182.03147753906524,
      "v": 64
    },
    {
      "midi": 54,
      "hit": false,
      "t": 64426.6430332035,
      "d": 182.03147753906524,
      "v": 64
    },
    {
      "midi": 57,
      "hit": false,
      "t": 64621.17452636757,
      "d": 189.8439873046882,
      "v": 64
    },
    {
      "midi": 61,
      "hit": false,
      "t": 64823.51852929726,
      "d": 189.06273632812372,
      "v": 65
    },
    {
      "midi": 57,
      "hit": false,
      "t": 65025.08128125039,
      "d": 180.46897558593628,
      "v": 64
    },
    {
      "midi": 54,
      "hit": false,
      "t": 65218.050272461325,
      "d": 181.25022656250076,
      "v": 64
    },
    {
      "midi": 49,
      "hit": false,
      "t": 65411.80051464883,
      "d": 192.18774023438164,
      "v": 64
    },
    {
      "midi": 42,
      "hit": false,
      "t": 65616.48827050821,
      "d": 192.96899121093156,
      "v": 67
    },
    {
      "midi": 49,
      "hit": false,
      "t": 65821.95727734415,
      "d": 180.46897558594355,
      "v": 64
    },
    {
      "midi": 61,
      "hit": false,
      "t": 66014.9262685548,
      "d": 370.31296289063175,
      "v": 72
    },
    {
      "midi": 73,
      "hit": false,
      "t": 66014.9262685548,
      "d": 393.7504921875079,
      "v": 86
    },
    {
      "midi": 54,
      "hit": false,
      "t": 66014.9262685551,
      "d": 181.25022656249348,
      "v": 64
    },
    {
      "midi": 57,
      "hit": false,
      "t": 66208.67651074259,
      "d": 188.28148535155924,
      "v": 64
    },
    {
      "midi": 66,
      "hit": false,
      "t": 66409.45801171887,
      "d": 370.31296289063175,
      "v": 73
    },
    {
      "midi": 78,
      "hit": false,
      "t": 66409.45801171887,
      "d": 393.7504921875079,
      "v": 87
    },
    {
      "midi": 61,
      "hit": false,
      "t": 66409.45801171915,
      "d": 188.28148535155924,
      "v": 65
    },
    {
      "midi": 57,
      "hit": false,
      "t": 66610.23951269571,
      "d": 181.25022656249348,
      "v": 64
    },
    {
      "midi": 68,
      "hit": false,
      "t": 66803.98975488295,
      "d": 371.87546484374616,
      "v": 72
    },
    {
      "midi": 80,
      "hit": false,
      "t": 66803.98975488295,
      "d": 395.3129941406223,
      "v": 86
    },
    {
      "midi": 54,
      "hit": false,
      "t": 66803.98975488321,
      "d": 181.25022656249348,
      "v": 64
    },
    {
      "midi": 49,
      "hit": false,
      "t": 66997.7399970707,
      "d": 189.8439873046882,
      "v": 64
    },
    {
      "midi": 69,
      "hit": false,
      "t": 67203.20900390638,
      "d": 399.2192490234447,
      "v": 77
    },
    {
      "midi": 81,
      "hit": false,
      "t": 67203.20900390638,
      "d": 422.6567783203209,
      "v": 91
    },
    {
      "midi": 42,
      "hit": false,
      "t": 67203.20900390664,
      "d": 216.40652050780773,
      "v": 69
    },
    {
      "midi": 49,
      "hit": false,
      "t": 67432.11554003945,
      "d": 182.03147753905796,
      "v": 64
    },
    {
      "midi": 68,
      "hit": false,
      "t": 67626.64703320326,
      "d": 372.65671582031064,
      "v": 72
    },
    {
      "midi": 80,
      "hit": false,
      "t": 67626.64703320326,
      "d": 396.0942451171868,
      "v": 86
    },
    {
      "midi": 54,
      "hit": false,
      "t": 67626.64703320351,
      "d": 182.03147753905796,
      "v": 64
    },
    {
      "midi": 57,
      "hit": false,
      "t": 67821.17852636757,
      "d": 201.56275195312628,
      "v": 56
    },
    {
      "midi": 61,
      "hit": false,
      "t": 67821.17852636757,
      "d": 201.56275195312628,
      "v": 66
    },
    {
      "midi": 66,
      "hit": false,
      "t": 68023.52252929701,
      "d": 370.31296289063175,
      "v": 73
    },
    {
      "midi": 78,
      "hit": false,
      "t": 68023.52252929701,
      "d": 393.7504921875079,
      "v": 87
    },
    {
      "midi": 57,
      "hit": false,
      "t": 68023.52252929726,
      "d": 200.7815009765618,
      "v": 57
    },
    {
      "midi": 61,
      "hit": false,
      "t": 68023.52252929726,
      "d": 200.7815009765618,
      "v": 67
    },
    {
      "midi": 57,
      "hit": false,
      "t": 68225.08528125039,
      "d": 180.46897558594355,
      "v": 64
    },
    {
      "midi": 64,
      "hit": false,
      "t": 68418.05427246109,
      "d": 374.2192177734396,
      "v": 72
    },
    {
      "midi": 76,
      "hit": false,
      "t": 68418.05427246109,
      "d": 397.65674707031576,
      "v": 86
    },
    {
      "midi": 54,
      "hit": false,
      "t": 68418.05427246133,
      "d": 181.25022656249348,
      "v": 64
    },
    {
      "midi": 49,
      "hit": false,
      "t": 68611.80451464883,
      "d": 192.18774023438164,
      "v": 64
    },
    {
      "midi": 63,
      "hit": false,
      "t": 68816.49227050797,
      "d": 374.2192177734396,
      "v": 75
    },
    {
      "midi": 75,
      "hit": false,
      "t": 68816.49227050797,
      "d": 397.65674707031576,
      "v": 89
    },
    {
      "midi": 45,
      "hit": false,
      "t": 68816.49227050821,
      "d": 192.96899121093156,
      "v": 67
    },
    {
      "midi": 49,
      "hit": false,
      "t": 69021.96127734415,
      "d": 180.46897558594355,
      "v": 64
    },
    {
      "midi": 73,
      "hit": false,
      "t": 69214.93026855485,
      "d": 370.31296289063175,
      "v": 72
    },
    {
      "midi": 85,
      "hit": false,
      "t": 69214.93026855485,
      "d": 393.7504921875079,
      "v": 86
    },
    {
      "midi": 54,
      "hit": false,
      "t": 69214.9302685551,
      "d": 181.25022656249348,
      "v": 64
    },
    {
      "midi": 57,
      "hit": false,
      "t": 69408.68051074259,
      "d": 188.28148535155924,
      "v": 56
    },
    {
      "midi": 61,
      "hit": false,
      "t": 69408.68051074259,
      "d": 200.00024999999732,
      "v": 70
    },
    {
      "midi": 72,
      "hit": false,
      "t": 69609.46201171892,
      "d": 370.31296289063175,
      "v": 73
    },
    {
      "midi": 84,
      "hit": false,
      "t": 69609.46201171892,
      "d": 393.7504921875079,
      "v": 87
    },
    {
      "midi": 61,
      "hit": false,
      "t": 69609.46201171915,
      "d": 188.28148535155924,
      "v": 57
    },
    {
      "midi": 66,
      "hit": false,
      "t": 69609.46201171915,
      "d": 200.00024999999732,
      "v": 71
    },
    {
      "midi": 64,
      "hit": false,
      "t": 69810.24351269571,
      "d": 181.25022656249348,
      "v": 64
    },
    {
      "midi": 73,
      "hit": false,
      "t": 70003.99375488299,
      "d": 371.87546484374616,
      "v": 72
    },
    {
      "midi": 85,
      "hit": false,
      "t": 70003.99375488299,
      "d": 395.3129941406223,
      "v": 86
    },
    {
      "midi": 61,
      "hit": false,
      "t": 70003.99375488321,
      "d": 181.25022656249348,
      "v": 64
    },
    {
      "midi": 57,
      "hit": false,
      "t": 70197.7439970707,
      "d": 189.8439873046882,
      "v": 64
    },
    {
      "midi": 80,
      "hit": false,
      "t": 70403.21300390642,
      "d": 3196.0977451172075,
      "v": 86
    },
    {
      "midi": 68,
      "hit": false,
      "t": 70403.21300390642,
      "d": 5187.50648437503,
      "v": 72
    },
    {
      "midi": 49,
      "hit": false,
      "t": 70403.21300390664,
      "d": 216.40652050780773,
      "v": 69
    },
    {
      "midi": 51,
      "hit": false,
      "t": 70632.11954003945,
      "d": 182.03147753905796,
      "v": 64
    },
    {
      "midi": 52,
      "hit": false,
      "t": 70826.65103320351,
      "d": 182.03147753905796,
      "v": 64
    },
    {
      "midi": 56,
      "hit": false,
      "t": 71021.18252636757,
      "d": 189.8439873046882,
      "v": 56
    },
    {
      "midi": 61,
      "hit": false,
      "t": 71021.18252636757,
      "d": 201.56275195312628,
      "v": 70
    },
    {
      "midi": 61,
      "hit": false,
      "t": 71223.52652929726,
      "d": 189.06273632812372,
      "v": 57
    },
    {
      "midi": 64,
      "hit": false,
      "t": 71223.52652929726,
      "d": 200.7815009765618,
      "v": 71
    },
    {
      "midi": 56,
      "hit": false,
      "t": 71425.08928125039,
      "d": 180.46897558594355,
      "v": 64
    },
    {
      "midi": 52,
      "hit": false,
      "t": 71618.05827246133,
      "d": 181.25022656249348,
      "v": 64
    },
    {
      "midi": 51,
      "hit": false,
      "t": 71811.80851464883,
      "d": 192.18774023438164,
      "v": 64
    },
    {
      "midi": 49,
      "hit": false,
      "t": 72016.49627050821,
      "d": 192.96899121093156,
      "v": 67
    },
    {
      "midi": 51,
      "hit": false,
      "t": 72221.96527734415,
      "d": 180.46897558594355,
      "v": 64
    },
    {
      "midi": 87,
      "hit": false,
      "t": 72414.93426855486,
      "d": 370.31296289063175,
      "v": 72
    },
    {
      "midi": 90,
      "hit": false,
      "t": 72414.93426855486,
      "d": 393.7504921875079,
      "v": 86
    },
    {
      "midi": 52,
      "hit": false,
      "t": 72414.9342685551,
      "d": 181.25022656249348,
      "v": 64
    },
    {
      "midi": 56,
      "hit": false,
      "t": 72608.68451074259,
      "d": 188.28148535155924,
      "v": 64
    },
    {
      "midi": 85,
      "hit": false,
      "t": 72809.46601171893,
      "d": 370.31296289063175,
      "v": 73
    },
    {
      "midi": 88,
      "hit": false,
      "t": 72809.46601171893,
      "d": 393.7504921875079,
      "v": 87
    },
    {
      "midi": 61,
      "hit": false,
      "t": 72809.46601171915,
      "d": 188.28148535155924,
      "v": 57
    },
    {
      "midi": 64,
      "hit": false,
      "t": 72809.46601171915,
      "d": 200.00024999999732,
      "v": 71
    },
    {
      "midi": 56,
      "hit": false,
      "t": 73010.24751269571,
      "d": 181.25022656249348,
      "v": 64
    },
    {
      "midi": 84,
      "hit": false,
      "t": 73203.997754883,
      "d": 371.87546484374616,
      "v": 72
    },
    {
      "midi": 87,
      "hit": false,
      "t": 73203.997754883,
      "d": 395.3129941406223,
      "v": 86
    },
    {
      "midi": 52,
      "hit": false,
      "t": 73203.99775488321,
      "d": 181.25022656249348,
      "v": 64
    },
    {
      "midi": 51,
      "hit": false,
      "t": 73397.7479970707,
      "d": 189.8439873046882,
      "v": 64
    },
    {
      "midi": 85,
      "hit": false,
      "t": 73603.21700390644,
      "d": 399.2192490234447,
      "v": 77
    },
    {
      "midi": 88,
      "hit": false,
      "t": 73603.21700390644,
      "d": 422.6567783203209,
      "v": 91
    },
    {
      "midi": 49,
      "hit": false,
      "t": 73603.21700390664,
      "d": 216.40652050780773,
      "v": 69
    },
    {
      "midi": 51,
      "hit": false,
      "t": 73832.12354003945,
      "d": 182.03147753905796,
      "v": 64
    },
    {
      "midi": 87,
      "hit": false,
      "t": 74026.65503320332,
      "d": 372.65671582031064,
      "v": 72
    },
    {
      "midi": 90,
      "hit": false,
      "t": 74026.65503320332,
      "d": 396.0942451171868,
      "v": 86
    },
    {
      "midi": 52,
      "hit": false,
      "t": 74026.65503320351,
      "d": 182.03147753905796,
      "v": 64
    },
    {
      "midi": 56,
      "hit": false,
      "t": 74221.18652636757,
      "d": 189.8439873046882,
      "v": 56
    },
    {
      "midi": 61,
      "hit": false,
      "t": 74221.18652636757,
      "d": 201.56275195312628,
      "v": 70
    },
    {
      "midi": 85,
      "hit": false,
      "t": 74423.53052929707,
      "d": 2375.7842197265854,
      "v": 72
    },
    {
      "midi": 88,
      "hit": false,
      "t": 74423.53052929707,
      "d": 2375.7842197265854,
      "v": 86
    },
    {
      "midi": 61,
      "hit": false,
      "t": 74423.53052929726,
      "d": 189.06273632812372,
      "v": 57
    },
    {
      "midi": 64,
      "hit": false,
      "t": 74423.53052929726,
      "d": 200.7815009765618,
      "v": 71
    },
    {
      "midi": 56,
      "hit": false,
      "t": 74625.09328125039,
      "d": 180.46897558594355,
      "v": 64
    },
    {
      "midi": 52,
      "hit": false,
      "t": 74818.06227246133,
      "d": 181.25022656249348,
      "v": 64
    },
    {
      "midi": 51,
      "hit": false,
      "t": 75011.81251464883,
      "d": 192.18774023438164,
      "v": 64
    },
    {
      "midi": 49,
      "hit": false,
      "t": 75216.50027050822,
      "d": 192.96899121093156,
      "v": 67
    },
    {
      "midi": 51,
      "hit": false,
      "t": 75421.96927734415,
      "d": 180.46897558594355,
      "v": 64
    },
    {
      "midi": 69,
      "hit": false,
      "t": 75614.93826855489,
      "d": 370.31296289063175,
      "v": 72
    },
    {
      "midi": 81,
      "hit": false,
      "t": 75614.93826855489,
      "d": 393.7504921875079,
      "v": 86
    },
    {
      "midi": 52,
      "hit": false,
      "t": 75614.9382685551,
      "d": 181.25022656249348,
      "v": 64
    },
    {
      "midi": 56,
      "hit": false,
      "t": 75808.68851074259,
      "d": 188.28148535155924,
      "v": 64
    },
    {
      "midi": 68,
      "hit": false,
      "t": 76009.47001171896,
      "d": 370.31296289063175,
      "v": 73
    },
    {
      "midi": 80,
      "hit": false,
      "t": 76009.47001171896,
      "d": 393.7504921875079,
      "v": 87
    },
    {
      "midi": 61,
      "hit": false,
      "t": 76009.47001171915,
      "d": 188.28148535155924,
      "v": 57
    },
    {
      "midi": 64,
      "hit": false,
      "t": 76009.47001171915,
      "d": 200.00024999999732,
      "v": 71
    },
    {
      "midi": 56,
      "hit": false,
      "t": 76210.25151269572,
      "d": 181.25022656249348,
      "v": 64
    },
    {
      "midi": 64,
      "hit": false,
      "t": 76404.00175488304,
      "d": 371.87546484374616,
      "v": 72
    },
    {
      "midi": 76,
      "hit": false,
      "t": 76404.00175488304,
      "d": 395.3129941406223,
      "v": 86
    },
    {
      "midi": 52,
      "hit": false,
      "t": 76404.00175488321,
      "d": 181.25022656249348,
      "v": 64
    },
    {
      "midi": 51,
      "hit": false,
      "t": 76597.7519970707,
      "d": 189.8439873046882,
      "v": 64
    },
    {
      "midi": 63,
      "hit": false,
      "t": 76803.22100390647,
      "d": 2776.56597070313,
      "v": 72
    },
    {
      "midi": 75,
      "hit": false,
      "t": 76803.22100390647,
      "d": 2800.003500000006,
      "v": 86
    },
    {
      "midi": 44,
      "hit": false,
      "t": 76803.22100390664,
      "d": 216.40652050780773,
      "v": 69
    },
    {
      "midi": 48,
      "hit": false,
      "t": 77032.12754003945,
      "d": 182.03147753905796,
      "v": 64
    },
    {
      "midi": 51,
      "hit": false,
      "t": 77226.65903320351,
      "d": 182.03147753905796,
      "v": 64
    },
    {
      "midi": 56,
      "hit": false,
      "t": 77421.19052636757,
      "d": 189.8439873046882,
      "v": 64
    },
    {
      "midi": 60,
      "hit": false,
      "t": 77623.53452929726,
      "d": 189.06273632812372,
      "v": 65
    },
    {
      "midi": 56,
      "hit": false,
      "t": 77825.09728125039,
      "d": 180.46897558594355,
      "v": 64
    },
    {
      "midi": 51,
      "hit": false,
      "t": 78018.06627246134,
      "d": 181.25022656249348,
      "v": 64
    },
    {
      "midi": 48,
      "hit": false,
      "t": 78211.81651464883,
      "d": 192.18774023438164,
      "v": 64
    },
    {
      "midi": 44,
      "hit": false,
      "t": 78416.50427050822,
      "d": 192.96899121093156,
      "v": 67
    },
    {
      "midi": 48,
      "hit": false,
      "t": 78621.97327734415,
      "d": 180.46897558594355,
      "v": 64
    },
    {
      "midi": 51,
      "hit": false,
      "t": 78814.9422685551,
      "d": 181.25022656249348,
      "v": 64
    },
    {
      "midi": 56,
      "hit": false,
      "t": 79008.69251074259,
      "d": 188.28148535155924,
      "v": 56
    },
    {
      "midi": 60,
      "hit": false,
      "t": 79008.69251074259,
      "d": 200.00024999999732,
      "v": 70
    },
    {
      "midi": 60,
      "hit": false,
      "t": 79209.47401171915,
      "d": 188.28148535155924,
      "v": 57
    },
    {
      "midi": 63,
      "hit": false,
      "t": 79209.47401171915,
      "d": 200.00024999999732,
      "v": 71
    },
    {
      "midi": 56,
      "hit": false,
      "t": 79410.25551269572,
      "d": 181.25022656249348,
      "v": 64
    },
    {
      "midi": 64,
      "hit": false,
      "t": 79604.00575488304,
      "d": 371.87546484374616,
      "v": 72
    },
    {
      "midi": 76,
      "hit": false,
      "t": 79604.00575488304,
      "d": 395.3129941406223,
      "v": 86
    },
    {
      "midi": 51,
      "hit": false,
      "t": 79604.00575488321,
      "d": 181.25022656249348,
      "v": 64
    },
    {
      "midi": 48,
      "hit": false,
      "t": 79797.75599707071,
      "d": 189.8439873046882,
      "v": 64
    },
    {
      "midi": 66,
      "hit": false,
      "t": 80003.22500390647,
      "d": 819.5322744140576,
      "v": 77
    },
    {
      "midi": 78,
      "hit": false,
      "t": 80003.22500390647,
      "d": 819.5322744140576,
      "v": 91
    },
    {
      "midi": 42,
      "hit": false,
      "t": 80003.22500390664,
      "d": 216.40652050780773,
      "v": 69
    },
    {
      "midi": 45,
      "hit": false,
      "t": 80232.13154003945,
      "d": 182.03147753905796,
      "v": 64
    },
    {
      "midi": 49,
      "hit": false,
      "t": 80426.66303320351,
      "d": 182.03147753905796,
      "v": 56
    },
    {
      "midi": 54,
      "hit": false,
      "t": 80426.66303320351,
      "d": 193.75024218749604,
      "v": 70
    },
    {
      "midi": 54,
      "hit": false,
      "t": 80621.19452636757,
      "d": 189.8439873046882,
      "v": 56
    },
    {
      "midi": 57,
      "hit": false,
      "t": 80621.19452636757,
      "d": 201.56275195312628,
      "v": 70
    },
    {
      "midi": 66,
      "hit": false,
      "t": 80823.53852929709,
      "d": 792.1884902343736,
      "v": 73
    },
    {
      "midi": 78,
      "hit": false,
      "t": 80823.53852929709,
      "d": 792.1884902343736,
      "v": 87
    },
    {
      "midi": 57,
      "hit": false,
      "t": 80823.53852929726,
      "d": 200.7815009765618,
      "v": 57
    },
    {
      "midi": 61,
      "hit": false,
      "t": 80823.53852929726,
      "d": 200.7815009765618,
      "v": 71
    },
    {
      "midi": 54,
      "hit": false,
      "t": 81025.10128125039,
      "d": 180.46897558594355,
      "v": 56
    },
    {
      "midi": 57,
      "hit": false,
      "t": 81025.10128125039,
      "d": 192.18774023438164,
      "v": 70
    },
    {
      "midi": 49,
      "hit": false,
      "t": 81218.07027246134,
      "d": 181.25022656249348,
      "v": 64
    },
    {
      "midi": 45,
      "hit": false,
      "t": 81411.82051464883,
      "d": 192.18774023438164,
      "v": 64
    },
    {
      "midi": 64,
      "hit": false,
      "t": 81616.50827050803,
      "d": 1186.7202333984314,
      "v": 75
    },
    {
      "midi": 76,
      "hit": false,
      "t": 81616.50827050803,
      "d": 1186.7202333984314,
      "v": 89
    },
    {
      "midi": 44,
      "hit": false,
      "t": 81616.50827050822,
      "d": 192.96899121093156,
      "v": 67
    },
    {
      "midi": 48,
      "hit": false,
      "t": 81821.97727734415,
      "d": 180.46897558594355,
      "v": 64
    },
    {
      "midi": 51,
      "hit": false,
      "t": 82014.9462685551,
      "d": 181.25022656249348,
      "v": 56
    },
    {
      "midi": 56,
      "hit": false,
      "t": 82014.9462685551,
      "d": 192.96899121093156,
      "v": 70
    },
    {
      "midi": 56,
      "hit": false,
      "t": 82208.6965107426,
      "d": 188.28148535155924,
      "v": 56
    },
    {
      "midi": 60,
      "hit": false,
      "t": 82208.6965107426,
      "d": 200.00024999999732,
      "v": 70
    },
    {
      "midi": 60,
      "hit": false,
      "t": 82409.47801171915,
      "d": 200.00024999999732,
      "v": 57
    },
    {
      "midi": 63,
      "hit": false,
      "t": 82409.47801171915,
      "d": 200.00024999999732,
      "v": 71
    },
    {
      "midi": 56,
      "hit": false,
      "t": 82610.25951269572,
      "d": 181.25022656249348,
      "v": 56
    },
    {
      "midi": 60,
      "hit": false,
      "t": 82610.25951269572,
      "d": 192.96899121093156,
      "v": 70
    },
    {
      "midi": 63,
      "hit": false,
      "t": 82804.00975488302,
      "d": 371.87546484374616,
      "v": 72
    },
    {
      "midi": 75,
      "hit": false,
      "t": 82804.00975488302,
      "d": 395.3129941406223,
      "v": 86
    },
    {
      "midi": 51,
      "hit": false,
      "t": 82804.00975488321,
      "d": 181.25022656249348,
      "v": 64
    },
    {
      "midi": 48,
      "hit": false,
      "t": 82997.75999707071,
      "d": 189.8439873046882,
      "v": 64
    },
    {
      "midi": 64,
      "hit": false,
      "t": 83203.22900390645,
      "d": 216.40652050780773,
      "v": 69
    },
    {
      "midi": 73,
      "hit": false,
      "t": 83203.22900390645,
      "d": 6396.101745117179,
      "v": 86
    },
    {
      "midi": 37,
      "hit": false,
      "t": 83203.22900390664,
      "d": 216.40652050780773,
      "v": 68
    },
    {
      "midi": 63,
      "hit": false,
      "t": 83432.13554003926,
      "d": 182.03147753905796,
      "v": 64
    },
    {
      "midi": 39,
      "hit": false,
      "t": 83432.13554003945,
      "d": 182.03147753905796,
      "v": 63
    },
    {
      "midi": 64,
      "hit": false,
      "t": 83626.66703320332,
      "d": 182.03147753905796,
      "v": 64
    },
    {
      "midi": 40,
      "hit": false,
      "t": 83626.66703320351,
      "d": 182.03147753905796,
      "v": 63
    },
    {
      "midi": 44,
      "hit": false,
      "t": 83821.19852636757,
      "d": 189.8439873046882,
      "v": 64
    },
    {
      "midi": 63,
      "hit": false,
      "t": 84023.54252929708,
      "d": 189.06273632812372,
      "v": 65
    },
    {
      "midi": 49,
      "hit": false,
      "t": 84023.54252929726,
      "d": 189.06273632812372,
      "v": 57
    },
    {
      "midi": 52,
      "hit": false,
      "t": 84023.54252929726,
      "d": 200.7815009765618,
      "v": 71
    },
    {
      "midi": 61,
      "hit": false,
      "t": 84225.1052812502,
      "d": 180.46897558594355,
      "v": 64
    },
    {
      "midi": 44,
      "hit": false,
      "t": 84225.10528125039,
      "d": 180.46897558594355,
      "v": 64
    },
    {
      "midi": 63,
      "hit": false,
      "t": 84418.07427246115,
      "d": 181.25022656249348,
      "v": 64
    },
    {
      "midi": 40,
      "hit": false,
      "t": 84418.07427246134,
      "d": 181.25022656249348,
      "v": 63
    },
    {
      "midi": 39,
      "hit": false,
      "t": 84611.82451464883,
      "d": 192.18774023438164,
      "v": 63
    },
    {
      "midi": 64,
      "hit": false,
      "t": 84816.51227050801,
      "d": 192.96899121093156,
      "v": 67
    },
    {
      "midi": 37,
      "hit": false,
      "t": 84816.51227050822,
      "d": 192.96899121093156,
      "v": 66
    },
    {
      "midi": 63,
      "hit": false,
      "t": 85021.98127734395,
      "d": 180.46897558594355,
      "v": 64
    },
    {
      "midi": 39,
      "hit": false,
      "t": 85021.98127734415,
      "d": 180.46897558594355,
      "v": 63
    },
    {
      "midi": 64,
      "hit": false,
      "t": 85214.9502685549,
      "d": 181.25022656249348,
      "v": 64
    },
    {
      "midi": 40,
      "hit": false,
      "t": 85214.9502685551,
      "d": 181.25022656249348,
      "v": 63
    },
    {
      "midi": 66,
      "hit": false,
      "t": 85408.70051074239,
      "d": 188.28148535155924,
      "v": 64
    },
    {
      "midi": 44,
      "hit": false,
      "t": 85408.7005107426,
      "d": 188.28148535155924,
      "v": 64
    },
    {
      "midi": 68,
      "hit": false,
      "t": 85609.48201171895,
      "d": 188.28148535155924,
      "v": 65
    },
    {
      "midi": 49,
      "hit": false,
      "t": 85609.48201171916,
      "d": 188.28148535155924,
      "v": 57
    },
    {
      "midi": 52,
      "hit": false,
      "t": 85609.48201171916,
      "d": 200.00024999999732,
      "v": 71
    },
    {
      "midi": 66,
      "hit": false,
      "t": 85810.26351269551,
      "d": 181.25022656249348,
      "v": 64
    },
    {
      "midi": 44,
      "hit": false,
      "t": 85810.26351269572,
      "d": 181.25022656249348,
      "v": 64
    },
    {
      "midi": 64,
      "hit": false,
      "t": 86004.01375488301,
      "d": 181.25022656249348,
      "v": 64
    },
    {
      "midi": 40,
      "hit": false,
      "t": 86004.01375488321,
      "d": 181.25022656249348,
      "v": 63
    },
    {
      "midi": 63,
      "hit": false,
      "t": 86197.7639970705,
      "d": 189.8439873046882,
      "v": 64
    },
    {
      "midi": 39,
      "hit": false,
      "t": 86197.76399707071,
      "d": 189.8439873046882,
      "v": 63
    },
    {
      "midi": 64,
      "hit": false,
      "t": 86403.23300390644,
      "d": 216.40652050780773,
      "v": 69
    },
    {
      "midi": 49,
      "hit": false,
      "t": 86403.23300390664,
      "d": 216.40652050780773,
      "v": 69
    },
    {
      "midi": 63,
      "hit": false,
      "t": 86632.13954003925,
      "d": 182.03147753905796,
      "v": 64
    },
    {
      "midi": 51,
      "hit": false,
      "t": 86632.13954003945,
      "d": 182.03147753905796,
      "v": 64
    },
    {
      "midi": 64,
      "hit": false,
      "t": 86826.67103320331,
      "d": 182.03147753905796,
      "v": 64
    },
    {
      "midi": 52,
      "hit": false,
      "t": 86826.67103320351,
      "d": 182.03147753905796,
      "v": 64
    },
    {
      "midi": 56,
      "hit": false,
      "t": 87021.20252636758,
      "d": 189.8439873046882,
      "v": 64
    },
    {
      "midi": 63,
      "hit": false,
      "t": 87223.54652929706,
      "d": 189.06273632812372,
      "v": 65
    },
    {
      "midi": 61,
      "hit": false,
      "t": 87223.54652929727,
      "d": 189.06273632812372,
      "v": 57
    },
    {
      "midi": 64,
      "hit": false,
      "t": 87223.54652929727,
      "d": 200.7815009765618,
      "v": 71
    },
    {
      "midi": 61,
      "hit": false,
      "t": 87425.10928125019,
      "d": 180.46897558594355,
      "v": 64
    },
    {
      "midi": 56,
      "hit": false,
      "t": 87425.10928125039,
      "d": 180.46897558594355,
      "v": 64
    },
    {
      "midi": 63,
      "hit": false,
      "t": 87618.07827246113,
      "d": 181.25022656249348,
      "v": 64
    },
    {
      "midi": 52,
      "hit": false,
      "t": 87618.07827246134,
      "d": 181.25022656249348,
      "v": 64
    },
    {
      "midi": 64,
      "hit": false,
      "t": 87811.82851464863,
      "d": 192.18774023438164,
      "v": 64
    },
    {
      "midi": 51,
      "hit": false,
      "t": 87811.82851464883,
      "d": 192.18774023438164,
      "v": 64
    },
    {
      "midi": 61,
      "hit": false,
      "t": 88016.51627050801,
      "d": 192.96899121093156,
      "v": 67
    },
    {
      "midi": 49,
      "hit": false,
      "t": 88016.51627050822,
      "d": 192.96899121093156,
      "v": 67
    },
    {
      "midi": 51,
      "hit": false,
      "t": 88221.98527734415,
      "d": 180.46897558594355,
      "v": 64
    },
    {
      "midi": 52,
      "hit": false,
      "t": 88414.9542685551,
      "d": 181.25022656249348,
      "v": 64
    },
    {
      "midi": 56,
      "hit": false,
      "t": 88608.7045107426,
      "d": 188.28148535155924,
      "v": 56
    },
    {
      "midi": 61,
      "hit": false,
      "t": 88608.7045107426,
      "d": 200.00024999999732,
      "v": 70
    },
    {
      "midi": 61,
      "hit": false,
      "t": 88809.48601171916,
      "d": 188.28148535155924,
      "v": 57
    },
    {
      "midi": 64,
      "hit": false,
      "t": 88809.48601171916,
      "d": 200.00024999999732,
      "v": 71
    },
    {
      "midi": 56,
      "hit": false,
      "t": 89010.26751269572,
      "d": 181.25022656249348,
      "v": 64
    },
    {
      "midi": 52,
      "hit": false,
      "t": 89204.01775488321,
      "d": 181.25022656249348,
      "v": 64
    },
    {
      "midi": 51,
      "hit": false,
      "t": 89397.76799707071,
      "d": 189.8439873046882,
      "v": 64
    },
    {
      "midi": 49,
      "hit": false,
      "t": 89600.1120000004,
      "d": 213.28151660156436,
      "v": 69
    },
    {
      "midi": 51,
      "hit": false,
      "t": 89825.89353222697,
      "d": 182.81272851562244,
      "v": 64
    },
    {
      "midi": 52,
      "hit": false,
      "t": 90021.2062763676,
      "d": 182.03147753905796,
      "v": 64
    },
    {
      "midi": 56,
      "hit": false,
      "t": 90215.73776953165,
      "d": 189.8439873046882,
      "v": 56
    },
    {
      "midi": 61,
      "hit": false,
      "t": 90215.73776953165,
      "d": 201.56275195312628,
      "v": 70
    },
    {
      "midi": 61,
      "hit": false,
      "t": 90418.08177246134,
      "d": 200.00024999999732,
      "v": 59
    },
    {
      "midi": 64,
      "hit": false,
      "t": 90418.08177246134,
      "d": 200.00024999999732,
      "v": 73
    },
    {
      "midi": 61,
      "hit": false,
      "t": 90618.8632734379,
      "d": 177.34397167968564,
      "v": 64
    },
    {
      "midi": 56,
      "hit": false,
      "t": 90808.7072607426,
      "d": 177.34397167968564,
      "v": 64
    },
    {
      "midi": 52,
      "hit": false,
      "t": 90998.55124804728,
      "d": 189.06273632812372,
      "v": 64
    },
    {
      "midi": 64,
      "hit": false,
      "t": 91203.23900390645,
      "d": 216.40652050780773,
      "v": 69
    },
    {
      "midi": 49,
      "hit": false,
      "t": 91203.23900390665,
      "d": 216.40652050780773,
      "v": 69
    },
    {
      "midi": 63,
      "hit": false,
      "t": 91432.14554003926,
      "d": 182.03147753905796,
      "v": 64
    },
    {
      "midi": 51,
      "hit": false,
      "t": 91432.14554003946,
      "d": 182.03147753905796,
      "v": 64
    },
    {
      "midi": 64,
      "hit": false,
      "t": 91626.67703320332,
      "d": 182.03147753905796,
      "v": 64
    },
    {
      "midi": 52,
      "hit": false,
      "t": 91626.67703320352,
      "d": 182.03147753905796,
      "v": 64
    },
    {
      "midi": 56,
      "hit": false,
      "t": 91821.20852636758,
      "d": 189.8439873046882,
      "v": 56
    },
    {
      "midi": 61,
      "hit": false,
      "t": 91821.20852636758,
      "d": 201.56275195312628,
      "v": 70
    },
    {
      "midi": 63,
      "hit": false,
      "t": 92023.55252929707,
      "d": 189.06273632812372,
      "v": 65
    },
    {
      "midi": 61,
      "hit": false,
      "t": 92023.55252929727,
      "d": 189.06273632812372,
      "v": 57
    },
    {
      "midi": 64,
      "hit": false,
      "t": 92023.55252929727,
      "d": 200.7815009765618,
      "v": 71
    },
    {
      "midi": 61,
      "hit": false,
      "t": 92225.1152812502,
      "d": 180.46897558594355,
      "v": 64
    },
    {
      "midi": 56,
      "hit": false,
      "t": 92225.1152812504,
      "d": 180.46897558594355,
      "v": 64
    },
    {
      "midi": 63,
      "hit": false,
      "t": 92418.08427246114,
      "d": 181.25022656249348,
      "v": 64
    },
    {
      "midi": 52,
      "hit": false,
      "t": 92418.08427246135,
      "d": 181.25022656249348,
      "v": 64
    },
    {
      "midi": 51,
      "hit": false,
      "t": 92611.83451464884,
      "d": 192.18774023438164,
      "v": 64
    },
    {
      "midi": 64,
      "hit": false,
      "t": 92816.52227050801,
      "d": 192.96899121093156,
      "v": 67
    },
    {
      "midi": 49,
      "hit": false,
      "t": 92816.52227050823,
      "d": 192.96899121093156,
      "v": 67
    },
    {
      "midi": 63,
      "hit": false,
      "t": 93021.99127734394,
      "d": 180.46897558594355,
      "v": 64
    },
    {
      "midi": 52,
      "hit": false,
      "t": 93021.99127734416,
      "d": 180.46897558594355,
      "v": 64
    },
    {
      "midi": 64,
      "hit": false,
      "t": 93214.96026855489,
      "d": 181.25022656249348,
      "v": 64
    },
    {
      "midi": 56,
      "hit": false,
      "t": 93214.9602685551,
      "d": 181.25022656249348,
      "v": 64
    },
    {
      "midi": 66,
      "hit": false,
      "t": 93408.71051074238,
      "d": 188.28148535155924,
      "v": 64
    },
    {
      "midi": 61,
      "hit": false,
      "t": 93408.7105107426,
      "d": 200.00024999999732,
      "v": 64
    },
    {
      "midi": 68,
      "hit": false,
      "t": 93609.49201171895,
      "d": 789.8447373046802,
      "v": 73
    },
    {
      "midi": 75,
      "hit": false,
      "t": 93609.49201171895,
      "d": 789.8447373046802,
      "v": 73
    },
    {
      "midi": 80,
      "hit": false,
      "t": 93609.49201171895,
      "d": 789.8447373046802,
      "v": 87
    },
    {
      "midi": 61,
      "hit": false,
      "t": 93609.49201171917,
      "d": 200.00024999999732,
      "v": 57
    },
    {
      "midi": 64,
      "hit": false,
      "t": 93609.49201171917,
      "d": 200.00024999999732,
      "v": 71
    },
    {
      "midi": 66,
      "hit": false,
      "t": 93810.27351269551,
      "d": 181.25022656249348,
      "v": 64
    },
    {
      "midi": 61,
      "hit": false,
      "t": 93810.27351269573,
      "d": 181.25022656249348,
      "v": 64
    },
    {
      "midi": 64,
      "hit": false,
      "t": 94004.023754883,
      "d": 181.25022656249348,
      "v": 64
    },
    {
      "midi": 56,
      "hit": false,
      "t": 94004.02375488322,
      "d": 181.25022656249348,
      "v": 64
    },
    {
      "midi": 63,
      "hit": false,
      "t": 94197.7739970705,
      "d": 189.8439873046882,
      "v": 64
    },
    {
      "midi": 52,
      "hit": false,
      "t": 94197.77399707072,
      "d": 189.8439873046882,
      "v": 64
    },
    {
      "midi": 73,
      "hit": false,
      "t": 94403.24300390643,
      "d": 1214.06401757813,
      "v": 77
    },
    {
      "midi": 76,
      "hit": false,
      "t": 94403.24300390643,
      "d": 1214.06401757813,
      "v": 77
    },
    {
      "midi": 85,
      "hit": false,
      "t": 94403.24300390643,
      "d": 1214.06401757813,
      "v": 91
    },
    {
      "midi": 49,
      "hit": false,
      "t": 94403.24300390665,
      "d": 216.40652050780773,
      "v": 69
    },
    {
      "midi": 51,
      "hit": false,
      "t": 94632.14954003946,
      "d": 182.03147753905796,
      "v": 64
    },
    {
      "midi": 52,
      "hit": false,
      "t": 94826.68103320352,
      "d": 182.03147753905796,
      "v": 64
    },
    {
      "midi": 56,
      "hit": false,
      "t": 95021.21252636758,
      "d": 189.8439873046882,
      "v": 56
    },
    {
      "midi": 61,
      "hit": false,
      "t": 95021.21252636758,
      "d": 201.56275195312628,
      "v": 70
    },
    {
      "midi": 61,
      "hit": false,
      "t": 95223.55652929728,
      "d": 189.06273632812372,
      "v": 57
    },
    {
      "midi": 64,
      "hit": false,
      "t": 95223.55652929728,
      "d": 200.7815009765618,
      "v": 71
    },
    {
      "midi": 56,
      "hit": false,
      "t": 95425.1192812504,
      "d": 180.46897558594355,
      "v": 64
    },
    {
      "midi": 75,
      "hit": false,
      "t": 95618.08827246113,
      "d": 374.2192177734396,
      "v": 72
    },
    {
      "midi": 87,
      "hit": false,
      "t": 95618.08827246113,
      "d": 397.65674707031576,
      "v": 86
    },
    {
      "midi": 52,
      "hit": false,
      "t": 95618.08827246135,
      "d": 181.25022656249348,
      "v": 64
    },
    {
      "midi": 51,
      "hit": false,
      "t": 95811.83851464884,
      "d": 192.18774023438164,
      "v": 64
    },
    {
      "midi": 76,
      "hit": false,
      "t": 96016.52627050801,
      "d": 792.1884902343736,
      "v": 75
    },
    {
      "midi": 88,
      "hit": false,
      "t": 96016.52627050801,
      "d": 792.1884902343736,
      "v": 89
    },
    {
      "midi": 45,
      "hit": false,
      "t": 96016.52627050823,
      "d": 192.96899121093156,
      "v": 67
    },
    {
      "midi": 49,
      "hit": false,
      "t": 96221.99527734416,
      "d": 180.46897558594355,
      "v": 64
    },
    {
      "midi": 52,
      "hit": false,
      "t": 96414.96426855511,
      "d": 181.25022656249348,
      "v": 64
    },
    {
      "midi": 57,
      "hit": false,
      "t": 96608.7145107426,
      "d": 188.28148535155924,
      "v": 56
    },
    {
      "midi": 61,
      "hit": false,
      "t": 96608.7145107426,
      "d": 200.00024999999732,
      "v": 70
    },
    {
      "midi": 78,
      "hit": false,
      "t": 96809.49601171895,
      "d": 789.8447373046802,
      "v": 73
    },
    {
      "midi": 81,
      "hit": false,
      "t": 96809.49601171895,
      "d": 789.8447373046802,
      "v": 73
    },
    {
      "midi": 90,
      "hit": false,
      "t": 96809.49601171895,
      "d": 789.8447373046802,
      "v": 87
    },
    {
      "midi": 61,
      "hit": false,
      "t": 96809.49601171917,
      "d": 188.28148535155924,
      "v": 57
    },
    {
      "midi": 64,
      "hit": false,
      "t": 96809.49601171917,
      "d": 200.00024999999732,
      "v": 71
    },
    {
      "midi": 57,
      "hit": false,
      "t": 97010.27751269573,
      "d": 181.25022656249348,
      "v": 64
    },
    {
      "midi": 56,
      "hit": false,
      "t": 97204.02775488322,
      "d": 181.25022656249348,
      "v": 64
    },
    {
      "midi": 52,
      "hit": false,
      "t": 97397.77799707072,
      "d": 189.8439873046882,
      "v": 64
    },
    {
      "midi": 73,
      "hit": false,
      "t": 97603.24700390644,
      "d": 6396.101745117165,
      "v": 72
    },
    {
      "midi": 76,
      "hit": false,
      "t": 97603.24700390644,
      "d": 6396.101745117165,
      "v": 72
    },
    {
      "midi": 85,
      "hit": false,
      "t": 97603.24700390644,
      "d": 6396.101745117165,
      "v": 86
    },
    {
      "midi": 49,
      "hit": false,
      "t": 97603.24700390665,
      "d": 216.40652050780773,
      "v": 69
    },
    {
      "midi": 51,
      "hit": false,
      "t": 97832.15354003946,
      "d": 182.03147753905796,
      "v": 64
    },
    {
      "midi": 52,
      "hit": false,
      "t": 98026.68503320352,
      "d": 182.03147753905796,
      "v": 64
    },
    {
      "midi": 56,
      "hit": false,
      "t": 98221.21652636759,
      "d": 189.8439873046882,
      "v": 56
    },
    {
      "midi": 61,
      "hit": false,
      "t": 98221.21652636759,
      "d": 201.56275195312628,
      "v": 70
    },
    {
      "midi": 63,
      "hit": false,
      "t": 98423.56052929706,
      "d": 189.06273632812372,
      "v": 65
    },
    {
      "midi": 61,
      "hit": false,
      "t": 98423.56052929728,
      "d": 189.06273632812372,
      "v": 57
    },
    {
      "midi": 64,
      "hit": false,
      "t": 98423.56052929728,
      "d": 200.7815009765618,
      "v": 71
    },
    {
      "midi": 61,
      "hit": false,
      "t": 98625.12328125018,
      "d": 180.46897558594355,
      "v": 64
    },
    {
      "midi": 56,
      "hit": false,
      "t": 98625.1232812504,
      "d": 180.46897558594355,
      "v": 64
    },
    {
      "midi": 63,
      "hit": false,
      "t": 98818.09227246113,
      "d": 181.25022656249348,
      "v": 64
    },
    {
      "midi": 52,
      "hit": false,
      "t": 98818.09227246135,
      "d": 181.25022656249348,
      "v": 64
    },
    {
      "midi": 51,
      "hit": false,
      "t": 99011.84251464884,
      "d": 192.18774023438164,
      "v": 64
    },
    {
      "midi": 64,
      "hit": false,
      "t": 99216.530270508,
      "d": 192.96899121093156,
      "v": 67
    },
    {
      "midi": 49,
      "hit": false,
      "t": 99216.53027050823,
      "d": 192.96899121093156,
      "v": 67
    },
    {
      "midi": 63,
      "hit": false,
      "t": 99421.99927734393,
      "d": 180.46897558594355,
      "v": 64
    },
    {
      "midi": 51,
      "hit": false,
      "t": 99421.99927734416,
      "d": 180.46897558594355,
      "v": 64
    },
    {
      "midi": 64,
      "hit": false,
      "t": 99614.96826855488,
      "d": 181.25022656249348,
      "v": 64
    },
    {
      "midi": 52,
      "hit": false,
      "t": 99614.96826855511,
      "d": 181.25022656249348,
      "v": 64
    },
    {
      "midi": 66,
      "hit": false,
      "t": 99808.71851074237,
      "d": 188.28148535155924,
      "v": 64
    },
    {
      "midi": 56,
      "hit": false,
      "t": 99808.7185107426,
      "d": 188.28148535155924,
      "v": 56
    },
    {
      "midi": 61,
      "hit": false,
      "t": 99808.7185107426,
      "d": 200.00024999999732,
      "v": 70
    },
    {
      "midi": 68,
      "hit": false,
      "t": 100009.50001171893,
      "d": 188.28148535155924,
      "v": 65
    },
    {
      "midi": 61,
      "hit": false,
      "t": 100009.50001171917,
      "d": 188.28148535155924,
      "v": 57
    },
    {
      "midi": 64,
      "hit": false,
      "t": 100009.50001171917,
      "d": 200.00024999999732,
      "v": 71
    },
    {
      "midi": 66,
      "hit": false,
      "t": 100210.2815126955,
      "d": 181.25022656249348,
      "v": 64
    },
    {
      "midi": 56,
      "hit": false,
      "t": 100210.28151269573,
      "d": 181.25022656249348,
      "v": 64
    },
    {
      "midi": 64,
      "hit": false,
      "t": 100404.03175488299,
      "d": 181.25022656249348,
      "v": 64
    },
    {
      "midi": 52,
      "hit": false,
      "t": 100404.03175488322,
      "d": 181.25022656249348,
      "v": 64
    },
    {
      "midi": 63,
      "hit": false,
      "t": 100597.78199707049,
      "d": 189.8439873046882,
      "v": 64
    },
    {
      "midi": 51,
      "hit": false,
      "t": 100597.78199707072,
      "d": 189.8439873046882,
      "v": 64
    },
    {
      "midi": 64,
      "hit": false,
      "t": 100803.25100390642,
      "d": 216.40652050780773,
      "v": 69
    },
    {
      "midi": 49,
      "hit": false,
      "t": 100803.25100390665,
      "d": 216.40652050780773,
      "v": 69
    },
    {
      "midi": 63,
      "hit": false,
      "t": 101032.15754003923,
      "d": 182.03147753905796,
      "v": 64
    },
    {
      "midi": 51,
      "hit": false,
      "t": 101032.15754003946,
      "d": 182.03147753905796,
      "v": 64
    },
    {
      "midi": 64,
      "hit": false,
      "t": 101226.68903320329,
      "d": 182.03147753905796,
      "v": 64
    },
    {
      "midi": 52,
      "hit": false,
      "t": 101226.68903320353,
      "d": 182.03147753905796,
      "v": 64
    },
    {
      "midi": 56,
      "hit": false,
      "t": 101421.22052636759,
      "d": 189.8439873046882,
      "v": 56
    },
    {
      "midi": 61,
      "hit": false,
      "t": 101421.22052636759,
      "d": 201.56275195312628,
      "v": 70
    },
    {
      "midi": 63,
      "hit": false,
      "t": 101623.56452929704,
      "d": 189.06273632812372,
      "v": 65
    },
    {
      "midi": 61,
      "hit": false,
      "t": 101623.56452929728,
      "d": 189.06273632812372,
      "v": 57
    },
    {
      "midi": 64,
      "hit": false,
      "t": 101623.56452929728,
      "d": 200.7815009765618,
      "v": 71
    },
    {
      "midi": 61,
      "hit": false,
      "t": 101825.12728125017,
      "d": 180.46897558594355,
      "v": 64
    },
    {
      "midi": 56,
      "hit": false,
      "t": 101825.1272812504,
      "d": 180.46897558594355,
      "v": 64
    },
    {
      "midi": 63,
      "hit": false,
      "t": 102018.09627246112,
      "d": 181.25022656249348,
      "v": 64
    },
    {
      "midi": 52,
      "hit": false,
      "t": 102018.09627246135,
      "d": 181.25022656249348,
      "v": 64
    },
    {
      "midi": 51,
      "hit": false,
      "t": 102211.84651464885,
      "d": 192.18774023438164,
      "v": 64
    },
    {
      "midi": 64,
      "hit": false,
      "t": 102416.53427050798,
      "d": 192.96899121093156,
      "v": 67
    },
    {
      "midi": 49,
      "hit": false,
      "t": 102416.53427050823,
      "d": 192.96899121093156,
      "v": 67
    },
    {
      "midi": 63,
      "hit": false,
      "t": 102622.00327734392,
      "d": 180.46897558594355,
      "v": 64
    },
    {
      "midi": 51,
      "hit": false,
      "t": 102622.00327734416,
      "d": 180.46897558594355,
      "v": 64
    },
    {
      "midi": 64,
      "hit": false,
      "t": 102814.97226855486,
      "d": 181.25022656249348,
      "v": 64
    },
    {
      "midi": 52,
      "hit": false,
      "t": 102814.97226855511,
      "d": 181.25022656249348,
      "v": 64
    },
    {
      "midi": 66,
      "hit": false,
      "t": 103008.72251074236,
      "d": 188.28148535155924,
      "v": 64
    },
    {
      "midi": 56,
      "hit": false,
      "t": 103008.7225107426,
      "d": 188.28148535155924,
      "v": 56
    },
    {
      "midi": 61,
      "hit": false,
      "t": 103008.7225107426,
      "d": 200.00024999999732,
      "v": 70
    },
    {
      "midi": 68,
      "hit": false,
      "t": 103209.50401171892,
      "d": 188.28148535155924,
      "v": 65
    },
    {
      "midi": 61,
      "hit": false,
      "t": 103209.50401171917,
      "d": 188.28148535155924,
      "v": 57
    },
    {
      "midi": 64,
      "hit": false,
      "t": 103209.50401171917,
      "d": 200.00024999999732,
      "v": 71
    },
    {
      "midi": 66,
      "hit": false,
      "t": 103410.28551269548,
      "d": 181.25022656249348,
      "v": 64
    },
    {
      "midi": 56,
      "hit": false,
      "t": 103410.28551269573,
      "d": 181.25022656249348,
      "v": 64
    },
    {
      "midi": 64,
      "hit": false,
      "t": 103604.03575488298,
      "d": 181.25022656249348,
      "v": 64
    },
    {
      "midi": 52,
      "hit": false,
      "t": 103604.03575488323,
      "d": 181.25022656249348,
      "v": 64
    },
    {
      "midi": 63,
      "hit": false,
      "t": 103797.78599707047,
      "d": 189.8439873046882,
      "v": 64
    },
    {
      "midi": 51,
      "hit": false,
      "t": 103797.78599707072,
      "d": 189.8439873046882,
      "v": 64
    },
    {
      "midi": 42,
      "hit": false,
      "t": 104003.25500390666,
      "d": 216.40652050780773,
      "v": 69
    },
    {
      "midi": 61,
      "hit": false,
      "t": 104232.16154003922,
      "d": 182.03147753905796,
      "v": 64
    },
    {
      "midi": 44,
      "hit": false,
      "t": 104232.16154003947,
      "d": 182.03147753905796,
      "v": 64
    },
    {
      "midi": 63,
      "hit": false,
      "t": 104426.69303320328,
      "d": 182.03147753905796,
      "v": 64
    },
    {
      "midi": 45,
      "hit": false,
      "t": 104426.69303320353,
      "d": 182.03147753905796,
      "v": 64
    },
    {
      "midi": 61,
      "hit": false,
      "t": 104621.22452636734,
      "d": 189.8439873046882,
      "v": 64
    },
    {
      "midi": 49,
      "hit": false,
      "t": 104621.22452636759,
      "d": 201.56275195312628,
      "v": 64
    },
    {
      "midi": 49,
      "hit": false,
      "t": 104823.56852929728,
      "d": 200.7815009765618,
      "v": 57
    },
    {
      "midi": 54,
      "hit": false,
      "t": 104823.56852929728,
      "d": 200.7815009765618,
      "v": 71
    },
    {
      "midi": 59,
      "hit": false,
      "t": 105025.13128125016,
      "d": 180.46897558594355,
      "v": 64
    },
    {
      "midi": 49,
      "hit": false,
      "t": 105025.1312812504,
      "d": 180.46897558594355,
      "v": 64
    },
    {
      "midi": 61,
      "hit": false,
      "t": 105218.1002724611,
      "d": 181.25022656249348,
      "v": 64
    },
    {
      "midi": 45,
      "hit": false,
      "t": 105218.10027246135,
      "d": 181.25022656249348,
      "v": 64
    },
    {
      "midi": 59,
      "hit": false,
      "t": 105411.8505146486,
      "d": 192.18774023438164,
      "v": 64
    },
    {
      "midi": 44,
      "hit": false,
      "t": 105411.85051464885,
      "d": 192.18774023438164,
      "v": 64
    },
    {
      "midi": 42,
      "hit": false,
      "t": 105616.53827050823,
      "d": 192.96899121093156,
      "v": 67
    },
    {
      "midi": 56,
      "hit": false,
      "t": 105822.00727734392,
      "d": 180.46897558594355,
      "v": 64
    },
    {
      "midi": 44,
      "hit": false,
      "t": 105822.00727734416,
      "d": 180.46897558594355,
      "v": 64
    },
    {
      "midi": 57,
      "hit": false,
      "t": 106014.97626855486,
      "d": 181.25022656249348,
      "v": 64
    },
    {
      "midi": 45,
      "hit": false,
      "t": 106014.97626855511,
      "d": 181.25022656249348,
      "v": 64
    },
    {
      "midi": 59,
      "hit": false,
      "t": 106208.72651074236,
      "d": 188.28148535155924,
      "v": 64
    },
    {
      "midi": 49,
      "hit": false,
      "t": 106208.7265107426,
      "d": 200.00024999999732,
      "v": 64
    },
    {
      "midi": 69,
      "hit": false,
      "t": 106409.50801171892,
      "d": 789.8447373046947,
      "v": 73
    },
    {
      "midi": 73,
      "hit": false,
      "t": 106409.50801171892,
      "d": 789.8447373046947,
      "v": 73
    },
    {
      "midi": 78,
      "hit": false,
      "t": 106409.50801171892,
      "d": 789.8447373046947,
      "v": 73
    },
    {
      "midi": 81,
      "hit": false,
      "t": 106409.50801171892,
      "d": 789.8447373046947,
      "v": 87
    },
    {
      "midi": 49,
      "hit": false,
      "t": 106409.50801171917,
      "d": 200.00024999999732,
      "v": 57
    },
    {
      "midi": 54,
      "hit": false,
      "t": 106409.50801171917,
      "d": 200.00024999999732,
      "v": 71
    },
    {
      "midi": 49,
      "hit": false,
      "t": 106610.28951269573,
      "d": 181.25022656249348,
      "v": 64
    },
    {
      "midi": 45,
      "hit": false,
      "t": 106804.03975488323,
      "d": 181.25022656249348,
      "v": 64
    },
    {
      "midi": 44,
      "hit": false,
      "t": 106997.78999707072,
      "d": 189.8439873046882,
      "v": 64
    },
    {
      "midi": 73,
      "hit": false,
      "t": 107203.25900390642,
      "d": 1612.5020156250102,
      "v": 77
    },
    {
      "midi": 76,
      "hit": false,
      "t": 107203.25900390642,
      "d": 1612.5020156250102,
      "v": 77
    },
    {
      "midi": 80,
      "hit": false,
      "t": 107203.25900390642,
      "d": 1612.5020156250102,
      "v": 91
    },
    {
      "midi": 42,
      "hit": false,
      "t": 107203.25900390666,
      "d": 216.40652050780773,
      "v": 69
    },
    {
      "midi": 71,
      "hit": false,
      "t": 107432.16554003923,
      "d": 182.03147753905796,
      "v": 64
    },
    {
      "midi": 44,
      "hit": false,
      "t": 107432.16554003947,
      "d": 182.03147753905796,
      "v": 64
    },
    {
      "midi": 69,
      "hit": false,
      "t": 107626.6970332033,
      "d": 182.03147753905796,
      "v": 64
    },
    {
      "midi": 45,
      "hit": false,
      "t": 107626.69703320353,
      "d": 182.03147753905796,
      "v": 64
    },
    {
      "midi": 71,
      "hit": false,
      "t": 107821.22852636735,
      "d": 189.8439873046882,
      "v": 64
    },
    {
      "midi": 49,
      "hit": false,
      "t": 107821.22852636759,
      "d": 201.56275195312628,
      "v": 64
    },
    {
      "midi": 49,
      "hit": false,
      "t": 108023.57252929728,
      "d": 200.7815009765618,
      "v": 57
    },
    {
      "midi": 54,
      "hit": false,
      "t": 108023.57252929728,
      "d": 200.7815009765618,
      "v": 71
    },
    {
      "midi": 69,
      "hit": false,
      "t": 108225.13528125017,
      "d": 180.46897558594355,
      "v": 64
    },
    {
      "midi": 49,
      "hit": false,
      "t": 108225.1352812504,
      "d": 180.46897558594355,
      "v": 64
    },
    {
      "midi": 66,
      "hit": false,
      "t": 108418.10427246112,
      "d": 181.25022656249348,
      "v": 64
    },
    {
      "midi": 45,
      "hit": false,
      "t": 108418.10427246135,
      "d": 181.25022656249348,
      "v": 64
    },
    {
      "midi": 68,
      "hit": false,
      "t": 108611.85451464861,
      "d": 192.18774023438164,
      "v": 64
    },
    {
      "midi": 44,
      "hit": false,
      "t": 108611.85451464885,
      "d": 192.18774023438164,
      "v": 64
    },
    {
      "midi": 75,
      "hit": false,
      "t": 108816.542270508,
      "d": 1582.8144785156182,
      "v": 89
    },
    {
      "midi": 42,
      "hit": false,
      "t": 108816.54227050823,
      "d": 192.96899121093156,
      "v": 67
    },
    {
      "midi": 45,
      "hit": false,
      "t": 109022.01127734417,
      "d": 180.46897558594355,
      "v": 64
    },
    {
      "midi": 49,
      "hit": false,
      "t": 109214.98026855511,
      "d": 181.25022656249348,
      "v": 64
    },
    {
      "midi": 59,
      "hit": false,
      "t": 109408.73051074237,
      "d": 188.28148535155924,
      "v": 64
    },
    {
      "midi": 54,
      "hit": false,
      "t": 109408.73051074261,
      "d": 200.00024999999732,
      "v": 64
    },
    {
      "midi": 61,
      "hit": false,
      "t": 109609.51201171894,
      "d": 188.28148535155924,
      "v": 65
    },
    {
      "midi": 54,
      "hit": false,
      "t": 109609.51201171917,
      "d": 188.28148535155924,
      "v": 57
    },
    {
      "midi": 57,
      "hit": false,
      "t": 109609.51201171917,
      "d": 200.00024999999732,
      "v": 71
    },
    {
      "midi": 63,
      "hit": false,
      "t": 109810.2935126955,
      "d": 181.25022656249348,
      "v": 64
    },
    {
      "midi": 57,
      "hit": false,
      "t": 109810.29351269573,
      "d": 192.96899121093156,
      "v": 56
    },
    {
      "midi": 61,
      "hit": false,
      "t": 109810.29351269573,
      "d": 192.96899121093156,
      "v": 70
    },
    {
      "midi": 64,
      "hit": false,
      "t": 110004.043754883,
      "d": 181.25022656249348,
      "v": 64
    },
    {
      "midi": 54,
      "hit": false,
      "t": 110004.04375488323,
      "d": 181.25022656249348,
      "v": 56
    },
    {
      "midi": 57,
      "hit": false,
      "t": 110004.04375488323,
      "d": 192.96899121093156,
      "v": 70
    },
    {
      "midi": 66,
      "hit": false,
      "t": 110197.79399707049,
      "d": 189.8439873046882,
      "v": 64
    },
    {
      "midi": 51,
      "hit": false,
      "t": 110197.79399707072,
      "d": 189.8439873046882,
      "v": 64
    },
    {
      "midi": 73,
      "hit": false,
      "t": 110403.26300390642,
      "d": 2800.0034999999916,
      "v": 72
    },
    {
      "midi": 76,
      "hit": false,
      "t": 110403.26300390642,
      "d": 2800.0034999999916,
      "v": 86
    },
    {
      "midi": 49,
      "hit": false,
      "t": 110403.26300390666,
      "d": 216.40652050780773,
      "v": 69
    },
    {
      "midi": 63,
      "hit": false,
      "t": 110632.16954003923,
      "d": 182.03147753905796,
      "v": 64
    },
    {
      "midi": 51,
      "hit": false,
      "t": 110632.16954003947,
      "d": 182.03147753905796,
      "v": 64
    },
    {
      "midi": 64,
      "hit": false,
      "t": 110826.7010332033,
      "d": 182.03147753905796,
      "v": 64
    },
    {
      "midi": 52,
      "hit": false,
      "t": 110826.70103320353,
      "d": 182.03147753905796,
      "v": 64
    },
    {
      "midi": 56,
      "hit": false,
      "t": 111021.23252636759,
      "d": 189.8439873046882,
      "v": 56
    },
    {
      "midi": 61,
      "hit": false,
      "t": 111021.23252636759,
      "d": 201.56275195312628,
      "v": 70
    },
    {
      "midi": 63,
      "hit": false,
      "t": 111223.57652929705,
      "d": 189.06273632812372,
      "v": 65
    },
    {
      "midi": 61,
      "hit": false,
      "t": 111223.57652929728,
      "d": 189.06273632812372,
      "v": 57
    },
    {
      "midi": 64,
      "hit": false,
      "t": 111223.57652929728,
      "d": 200.7815009765618,
      "v": 71
    },
    {
      "midi": 61,
      "hit": false,
      "t": 111425.13928125017,
      "d": 180.46897558594355,
      "v": 64
    },
    {
      "midi": 56,
      "hit": false,
      "t": 111425.1392812504,
      "d": 180.46897558594355,
      "v": 64
    },
    {
      "midi": 63,
      "hit": false,
      "t": 111618.10827246112,
      "d": 181.25022656249348,
      "v": 64
    },
    {
      "midi": 52,
      "hit": false,
      "t": 111618.10827246135,
      "d": 181.25022656249348,
      "v": 64
    },
    {
      "midi": 51,
      "hit": false,
      "t": 111811.85851464885,
      "d": 192.18774023438164,
      "v": 64
    },
    {
      "midi": 64,
      "hit": false,
      "t": 112016.54627050798,
      "d": 192.96899121093156,
      "v": 67
    },
    {
      "midi": 49,
      "hit": false,
      "t": 112016.54627050823,
      "d": 192.96899121093156,
      "v": 67
    },
    {
      "midi": 63,
      "hit": false,
      "t": 112222.01527734392,
      "d": 180.46897558594355,
      "v": 64
    },
    {
      "midi": 51,
      "hit": false,
      "t": 112222.01527734417,
      "d": 180.46897558594355,
      "v": 64
    },
    {
      "midi": 64,
      "hit": false,
      "t": 112414.98426855486,
      "d": 181.25022656249348,
      "v": 64
    },
    {
      "midi": 52,
      "hit": false,
      "t": 112414.98426855511,
      "d": 181.25022656249348,
      "v": 64
    },
    {
      "midi": 66,
      "hit": false,
      "t": 112608.73451074236,
      "d": 188.28148535155924,
      "v": 64
    },
    {
      "midi": 56,
      "hit": false,
      "t": 112608.73451074261,
      "d": 188.28148535155924,
      "v": 56
    },
    {
      "midi": 61,
      "hit": false,
      "t": 112608.73451074261,
      "d": 200.00024999999732,
      "v": 70
    },
    {
      "midi": 68,
      "hit": false,
      "t": 112809.51601171892,
      "d": 188.28148535155924,
      "v": 65
    },
    {
      "midi": 61,
      "hit": false,
      "t": 112809.51601171917,
      "d": 188.28148535155924,
      "v": 57
    },
    {
      "midi": 64,
      "hit": false,
      "t": 112809.51601171917,
      "d": 200.00024999999732,
      "v": 71
    },
    {
      "midi": 66,
      "hit": false,
      "t": 113010.29751269548,
      "d": 181.25022656249348,
      "v": 64
    },
    {
      "midi": 56,
      "hit": false,
      "t": 113010.29751269573,
      "d": 181.25022656249348,
      "v": 64
    },
    {
      "midi": 64,
      "hit": false,
      "t": 113204.04775488298,
      "d": 181.25022656249348,
      "v": 64
    },
    {
      "midi": 76,
      "hit": false,
      "t": 113204.04775488298,
      "d": 3595.3169941406086,
      "v": 80
    },
    {
      "midi": 52,
      "hit": false,
      "t": 113204.04775488323,
      "d": 181.25022656249348,
      "v": 64
    },
    {
      "midi": 63,
      "hit": false,
      "t": 113397.79799707048,
      "d": 189.8439873046882,
      "v": 64
    },
    {
      "midi": 51,
      "hit": false,
      "t": 113397.79799707072,
      "d": 189.8439873046882,
      "v": 64
    },
    {
      "midi": 64,
      "hit": false,
      "t": 113603.26700390641,
      "d": 216.40652050780773,
      "v": 69
    },
    {
      "midi": 49,
      "hit": false,
      "t": 113603.26700390666,
      "d": 216.40652050780773,
      "v": 69
    },
    {
      "midi": 63,
      "hit": false,
      "t": 113832.17354003922,
      "d": 182.03147753905796,
      "v": 64
    },
    {
      "midi": 51,
      "hit": false,
      "t": 113832.17354003947,
      "d": 182.03147753905796,
      "v": 64
    },
    {
      "midi": 64,
      "hit": false,
      "t": 114026.70503320328,
      "d": 182.03147753905796,
      "v": 64
    },
    {
      "midi": 52,
      "hit": false,
      "t": 114026.70503320353,
      "d": 182.03147753905796,
      "v": 64
    },
    {
      "midi": 56,
      "hit": false,
      "t": 114221.23652636759,
      "d": 189.8439873046882,
      "v": 56
    },
    {
      "midi": 61,
      "hit": false,
      "t": 114221.23652636759,
      "d": 201.56275195312628,
      "v": 70
    },
    {
      "midi": 63,
      "hit": false,
      "t": 114423.58052929703,
      "d": 189.06273632812372,
      "v": 65
    },
    {
      "midi": 61,
      "hit": false,
      "t": 114423.58052929728,
      "d": 189.06273632812372,
      "v": 57
    },
    {
      "midi": 64,
      "hit": false,
      "t": 114423.58052929728,
      "d": 200.7815009765618,
      "v": 71
    },
    {
      "midi": 61,
      "hit": false,
      "t": 114625.14328125016,
      "d": 180.46897558594355,
      "v": 64
    },
    {
      "midi": 56,
      "hit": false,
      "t": 114625.1432812504,
      "d": 180.46897558594355,
      "v": 64
    },
    {
      "midi": 63,
      "hit": false,
      "t": 114818.1122724611,
      "d": 181.25022656249348,
      "v": 64
    },
    {
      "midi": 52,
      "hit": false,
      "t": 114818.11227246135,
      "d": 181.25022656249348,
      "v": 64
    },
    {
      "midi": 51,
      "hit": false,
      "t": 115011.86251464885,
      "d": 192.18774023438164,
      "v": 64
    },
    {
      "midi": 64,
      "hit": false,
      "t": 115216.55027050797,
      "d": 192.96899121093156,
      "v": 67
    },
    {
      "midi": 49,
      "hit": false,
      "t": 115216.55027050823,
      "d": 192.96899121093156,
      "v": 67
    },
    {
      "midi": 63,
      "hit": false,
      "t": 115422.0192773439,
      "d": 180.46897558594355,
      "v": 64
    },
    {
      "midi": 51,
      "hit": false,
      "t": 115422.01927734417,
      "d": 180.46897558594355,
      "v": 64
    },
    {
      "midi": 64,
      "hit": false,
      "t": 115614.98826855485,
      "d": 181.25022656249348,
      "v": 64
    },
    {
      "midi": 52,
      "hit": false,
      "t": 115614.98826855511,
      "d": 181.25022656249348,
      "v": 64
    },
    {
      "midi": 66,
      "hit": false,
      "t": 115808.73851074235,
      "d": 188.28148535155924,
      "v": 64
    },
    {
      "midi": 56,
      "hit": false,
      "t": 115808.73851074261,
      "d": 188.28148535155924,
      "v": 56
    },
    {
      "midi": 61,
      "hit": false,
      "t": 115808.73851074261,
      "d": 200.00024999999732,
      "v": 70
    },
    {
      "midi": 68,
      "hit": false,
      "t": 116009.52001171891,
      "d": 188.28148535155924,
      "v": 65
    },
    {
      "midi": 61,
      "hit": false,
      "t": 116009.52001171917,
      "d": 188.28148535155924,
      "v": 57
    },
    {
      "midi": 64,
      "hit": false,
      "t": 116009.52001171917,
      "d": 200.00024999999732,
      "v": 71
    },
    {
      "midi": 66,
      "hit": false,
      "t": 116210.30151269547,
      "d": 181.25022656249348,
      "v": 64
    },
    {
      "midi": 56,
      "hit": false,
      "t": 116210.30151269573,
      "d": 181.25022656249348,
      "v": 64
    },
    {
      "midi": 64,
      "hit": false,
      "t": 116404.05175488297,
      "d": 181.25022656249348,
      "v": 64
    },
    {
      "midi": 52,
      "hit": false,
      "t": 116404.05175488323,
      "d": 181.25022656249348,
      "v": 64
    },
    {
      "midi": 63,
      "hit": false,
      "t": 116597.80199707046,
      "d": 189.8439873046882,
      "v": 64
    },
    {
      "midi": 51,
      "hit": false,
      "t": 116597.80199707072,
      "d": 189.8439873046882,
      "v": 64
    },
    {
      "midi": 44,
      "hit": false,
      "t": 116803.27100390666,
      "d": 216.40652050780773,
      "v": 69
    },
    {
      "midi": 48,
      "hit": false,
      "t": 117032.17754003947,
      "d": 182.03147753905796,
      "v": 64
    },
    {
      "midi": 72,
      "hit": false,
      "t": 117226.70903320328,
      "d": 182.03147753905796,
      "v": 64
    },
    {
      "midi": 51,
      "hit": false,
      "t": 117226.70903320353,
      "d": 182.03147753905796,
      "v": 64
    },
    {
      "midi": 73,
      "hit": false,
      "t": 117421.24052636734,
      "d": 189.8439873046882,
      "v": 64
    },
    {
      "midi": 56,
      "hit": false,
      "t": 117421.24052636759,
      "d": 189.8439873046882,
      "v": 64
    },
    {
      "midi": 75,
      "hit": false,
      "t": 117623.58452929703,
      "d": 189.06273632812372,
      "v": 65
    },
    {
      "midi": 80,
      "hit": false,
      "t": 117623.58452929703,
      "d": 792.1884902343882,
      "v": 73
    },
    {
      "midi": 84,
      "hit": false,
      "t": 117623.58452929703,
      "d": 792.1884902343882,
      "v": 87
    },
    {
      "midi": 60,
      "hit": false,
      "t": 117623.58452929728,
      "d": 189.06273632812372,
      "v": 65
    },
    {
      "midi": 73,
      "hit": false,
      "t": 117825.14728125016,
      "d": 180.46897558594355,
      "v": 64
    },
    {
      "midi": 56,
      "hit": false,
      "t": 117825.1472812504,
      "d": 180.46897558594355,
      "v": 64
    },
    {
      "midi": 72,
      "hit": false,
      "t": 118018.1162724611,
      "d": 181.25022656249348,
      "v": 64
    },
    {
      "midi": 51,
      "hit": false,
      "t": 118018.11627246135,
      "d": 181.25022656249348,
      "v": 64
    },
    {
      "midi": 73,
      "hit": false,
      "t": 118211.8665146486,
      "d": 192.18774023438164,
      "v": 64
    },
    {
      "midi": 48,
      "hit": false,
      "t": 118211.86651464885,
      "d": 192.18774023438164,
      "v": 64
    },
    {
      "midi": 75,
      "hit": false,
      "t": 118416.55427050799,
      "d": 3199.2227490234363,
      "v": 75
    },
    {
      "midi": 84,
      "hit": false,
      "t": 118416.55427050799,
      "d": 3199.2227490234363,
      "v": 75
    },
    {
      "midi": 87,
      "hit": false,
      "t": 118416.55427050799,
      "d": 3199.2227490234363,
      "v": 89
    },
    {
      "midi": 44,
      "hit": false,
      "t": 118416.55427050823,
      "d": 192.96899121093156,
      "v": 67
    },
    {
      "midi": 72,
      "hit": false,
      "t": 118622.02327734392,
      "d": 180.46897558594355,
      "v": 64
    },
    {
      "midi": 48,
      "hit": false,
      "t": 118622.02327734417,
      "d": 180.46897558594355,
      "v": 64
    },
    {
      "midi": 64,
      "hit": false,
      "t": 118814.99226855487,
      "d": 181.25022656249348,
      "v": 64
    },
    {
      "midi": 51,
      "hit": false,
      "t": 118814.99226855511,
      "d": 181.25022656249348,
      "v": 64
    },
    {
      "midi": 63,
      "hit": false,
      "t": 119008.74251074236,
      "d": 188.28148535155924,
      "v": 64
    },
    {
      "midi": 56,
      "hit": false,
      "t": 119008.74251074261,
      "d": 188.28148535155924,
      "v": 56
    },
    {
      "midi": 60,
      "hit": false,
      "t": 119008.74251074261,
      "d": 200.00024999999732,
      "v": 70
    },
    {
      "midi": 61,
      "hit": false,
      "t": 119209.52401171892,
      "d": 188.28148535155924,
      "v": 65
    },
    {
      "midi": 60,
      "hit": false,
      "t": 119209.52401171917,
      "d": 188.28148535155924,
      "v": 57
    },
    {
      "midi": 63,
      "hit": false,
      "t": 119209.52401171917,
      "d": 200.00024999999732,
      "v": 71
    },
    {
      "midi": 60,
      "hit": false,
      "t": 119410.30551269549,
      "d": 181.25022656249348,
      "v": 64
    },
    {
      "midi": 56,
      "hit": false,
      "t": 119410.30551269573,
      "d": 181.25022656249348,
      "v": 64
    },
    {
      "midi": 66,
      "hit": false,
      "t": 119604.05575488298,
      "d": 181.25022656249348,
      "v": 64
    },
    {
      "midi": 51,
      "hit": false,
      "t": 119604.05575488323,
      "d": 181.25022656249348,
      "v": 64
    },
    {
      "midi": 68,
      "hit": false,
      "t": 119797.80599707048,
      "d": 189.8439873046882,
      "v": 64
    },
    {
      "midi": 48,
      "hit": false,
      "t": 119797.80599707073,
      "d": 189.8439873046882,
      "v": 64
    },
    {
      "midi": 69,
      "hit": false,
      "t": 120003.27500390641,
      "d": 216.40652050780773,
      "v": 69
    },
    {
      "midi": 42,
      "hit": false,
      "t": 120003.27500390666,
      "d": 216.40652050780773,
      "v": 69
    },
    {
      "midi": 68,
      "hit": false,
      "t": 120232.18154003922,
      "d": 182.03147753905796,
      "v": 64
    },
    {
      "midi": 45,
      "hit": false,
      "t": 120232.18154003947,
      "d": 182.03147753905796,
      "v": 64
    },
    {
      "midi": 66,
      "hit": false,
      "t": 120426.71303320328,
      "d": 182.03147753905796,
      "v": 64
    },
    {
      "midi": 49,
      "hit": false,
      "t": 120426.71303320353,
      "d": 182.03147753905796,
      "v": 56
    },
    {
      "midi": 54,
      "hit": false,
      "t": 120426.71303320353,
      "d": 193.75024218749604,
      "v": 70
    },
    {
      "midi": 68,
      "hit": false,
      "t": 120621.24452636734,
      "d": 189.8439873046882,
      "v": 64
    },
    {
      "midi": 54,
      "hit": false,
      "t": 120621.24452636759,
      "d": 189.8439873046882,
      "v": 56
    },
    {
      "midi": 57,
      "hit": false,
      "t": 120621.24452636759,
      "d": 201.56275195312628,
      "v": 70
    },
    {
      "midi": 66,
      "hit": false,
      "t": 120823.58852929703,
      "d": 189.06273632812372,
      "v": 65
    },
    {
      "midi": 57,
      "hit": false,
      "t": 120823.58852929728,
      "d": 200.7815009765618,
      "v": 57
    },
    {
      "midi": 61,
      "hit": false,
      "t": 120823.58852929728,
      "d": 200.7815009765618,
      "v": 71
    },
    {
      "midi": 64,
      "hit": false,
      "t": 121025.15128125016,
      "d": 180.46897558594355,
      "v": 64
    },
    {
      "midi": 54,
      "hit": false,
      "t": 121025.15128125041,
      "d": 180.46897558594355,
      "v": 56
    },
    {
      "midi": 57,
      "hit": false,
      "t": 121025.15128125041,
      "d": 192.18774023438164,
      "v": 70
    },
    {
      "midi": 66,
      "hit": false,
      "t": 121218.1202724611,
      "d": 181.25022656249348,
      "v": 64
    },
    {
      "midi": 49,
      "hit": false,
      "t": 121218.12027246135,
      "d": 181.25022656249348,
      "v": 64
    },
    {
      "midi": 68,
      "hit": false,
      "t": 121411.8705146486,
      "d": 192.18774023438164,
      "v": 64
    },
    {
      "midi": 45,
      "hit": false,
      "t": 121411.87051464885,
      "d": 192.18774023438164,
      "v": 64
    },
    {
      "midi": 76,
      "hit": false,
      "t": 121616.55827050799,
      "d": 1582.8144785156182,
      "v": 75
    },
    {
      "midi": 84,
      "hit": false,
      "t": 121616.55827050799,
      "d": 1582.8144785156182,
      "v": 75
    },
    {
      "midi": 88,
      "hit": false,
      "t": 121616.55827050799,
      "d": 1582.8144785156182,
      "v": 89
    },
    {
      "midi": 44,
      "hit": false,
      "t": 121616.55827050823,
      "d": 192.96899121093156,
      "v": 67
    },
    {
      "midi": 80,
      "hit": false,
      "t": 121822.02727734392,
      "d": 180.46897558594355,
      "v": 64
    },
    {
      "midi": 48,
      "hit": false,
      "t": 121822.02727734417,
      "d": 180.46897558594355,
      "v": 64
    },
    {
      "midi": 78,
      "hit": false,
      "t": 122014.99626855487,
      "d": 181.25022656249348,
      "v": 64
    },
    {
      "midi": 51,
      "hit": false,
      "t": 122014.99626855511,
      "d": 181.25022656249348,
      "v": 56
    },
    {
      "midi": 56,
      "hit": false,
      "t": 122014.99626855511,
      "d": 192.96899121093156,
      "v": 70
    },
    {
      "midi": 68,
      "hit": false,
      "t": 122208.74651074236,
      "d": 188.28148535155924,
      "v": 64
    },
    {
      "midi": 56,
      "hit": false,
      "t": 122208.74651074261,
      "d": 188.28148535155924,
      "v": 56
    },
    {
      "midi": 60,
      "hit": false,
      "t": 122208.74651074261,
      "d": 200.00024999999732,
      "v": 70
    },
    {
      "midi": 66,
      "hit": false,
      "t": 122409.52801171892,
      "d": 188.28148535155924,
      "v": 65
    },
    {
      "midi": 60,
      "hit": false,
      "t": 122409.52801171917,
      "d": 200.00024999999732,
      "v": 57
    },
    {
      "midi": 63,
      "hit": false,
      "t": 122409.52801171917,
      "d": 200.00024999999732,
      "v": 71
    },
    {
      "midi": 64,
      "hit": false,
      "t": 122610.30951269549,
      "d": 181.25022656249348,
      "v": 64
    },
    {
      "midi": 56,
      "hit": false,
      "t": 122610.30951269573,
      "d": 181.25022656249348,
      "v": 56
    },
    {
      "midi": 60,
      "hit": false,
      "t": 122610.30951269573,
      "d": 192.96899121093156,
      "v": 70
    },
    {
      "midi": 63,
      "hit": false,
      "t": 122804.05975488298,
      "d": 181.25022656249348,
      "v": 64
    },
    {
      "midi": 51,
      "hit": false,
      "t": 122804.05975488323,
      "d": 181.25022656249348,
      "v": 64
    },
    {
      "midi": 64,
      "hit": false,
      "t": 122997.80999707048,
      "d": 189.8439873046882,
      "v": 64
    },
    {
      "midi": 48,
      "hit": false,
      "t": 122997.80999707073,
      "d": 189.8439873046882,
      "v": 64
    },
    {
      "midi": 76,
      "hit": false,
      "t": 123203.27900390641,
      "d": 216.40652050780773,
      "v": 69
    },
    {
      "midi": 80,
      "hit": false,
      "t": 123203.27900390641,
      "d": 6396.101745117179,
      "v": 72
    },
    {
      "midi": 85,
      "hit": false,
      "t": 123203.27900390641,
      "d": 6396.101745117179,
      "v": 86
    },
    {
      "midi": 49,
      "hit": false,
      "t": 123203.27900390666,
      "d": 216.40652050780773,
      "v": 69
    },
    {
      "midi": 63,
      "hit": false,
      "t": 123432.18554003922,
      "d": 182.03147753905796,
      "v": 64
    },
    {
      "midi": 51,
      "hit": false,
      "t": 123432.18554003947,
      "d": 182.03147753905796,
      "v": 64
    },
    {
      "midi": 64,
      "hit": false,
      "t": 123626.71703320328,
      "d": 182.03147753905796,
      "v": 64
    },
    {
      "midi": 52,
      "hit": false,
      "t": 123626.71703320353,
      "d": 182.03147753905796,
      "v": 64
    },
    {
      "midi": 56,
      "hit": false,
      "t": 123821.24852636759,
      "d": 189.8439873046882,
      "v": 56
    },
    {
      "midi": 61,
      "hit": false,
      "t": 123821.24852636759,
      "d": 201.56275195312628,
      "v": 70
    },
    {
      "midi": 63,
      "hit": false,
      "t": 124023.59252929704,
      "d": 189.06273632812372,
      "v": 65
    },
    {
      "midi": 61,
      "hit": false,
      "t": 124023.59252929728,
      "d": 189.06273632812372,
      "v": 57
    },
    {
      "midi": 64,
      "hit": false,
      "t": 124023.59252929728,
      "d": 200.7815009765618,
      "v": 71
    },
    {
      "midi": 61,
      "hit": false,
      "t": 124225.15528125016,
      "d": 180.46897558594355,
      "v": 64
    },
    {
      "midi": 56,
      "hit": false,
      "t": 124225.15528125041,
      "d": 180.46897558594355,
      "v": 64
    },
    {
      "midi": 63,
      "hit": false,
      "t": 124418.12427246111,
      "d": 181.25022656249348,
      "v": 64
    },
    {
      "midi": 52,
      "hit": false,
      "t": 124418.12427246135,
      "d": 181.25022656249348,
      "v": 64
    },
    {
      "midi": 51,
      "hit": false,
      "t": 124611.87451464885,
      "d": 192.18774023438164,
      "v": 64
    },
    {
      "midi": 64,
      "hit": false,
      "t": 124816.56227050797,
      "d": 192.96899121093156,
      "v": 67
    },
    {
      "midi": 49,
      "hit": false,
      "t": 124816.56227050824,
      "d": 192.96899121093156,
      "v": 67
    },
    {
      "midi": 63,
      "hit": false,
      "t": 125022.03127734391,
      "d": 180.46897558594355,
      "v": 64
    },
    {
      "midi": 51,
      "hit": false,
      "t": 125022.03127734417,
      "d": 180.46897558594355,
      "v": 64
    },
    {
      "midi": 64,
      "hit": false,
      "t": 125215.00026855485,
      "d": 181.25022656249348,
      "v": 64
    },
    {
      "midi": 52,
      "hit": false,
      "t": 125215.00026855512,
      "d": 181.25022656249348,
      "v": 64
    },
    {
      "midi": 66,
      "hit": false,
      "t": 125408.75051074235,
      "d": 188.28148535155924,
      "v": 64
    },
    {
      "midi": 56,
      "hit": false,
      "t": 125408.75051074261,
      "d": 188.28148535155924,
      "v": 56
    },
    {
      "midi": 61,
      "hit": false,
      "t": 125408.75051074261,
      "d": 200.00024999999732,
      "v": 70
    },
    {
      "midi": 68,
      "hit": false,
      "t": 125609.53201171891,
      "d": 188.28148535155924,
      "v": 65
    },
    {
      "midi": 61,
      "hit": false,
      "t": 125609.53201171917,
      "d": 188.28148535155924,
      "v": 57
    },
    {
      "midi": 64,
      "hit": false,
      "t": 125609.53201171917,
      "d": 200.00024999999732,
      "v": 71
    },
    {
      "midi": 66,
      "hit": false,
      "t": 125810.31351269547,
      "d": 181.25022656249348,
      "v": 64
    },
    {
      "midi": 56,
      "hit": false,
      "t": 125810.31351269573,
      "d": 181.25022656249348,
      "v": 64
    },
    {
      "midi": 64,
      "hit": false,
      "t": 126004.06375488297,
      "d": 181.25022656249348,
      "v": 64
    },
    {
      "midi": 52,
      "hit": false,
      "t": 126004.06375488323,
      "d": 181.25022656249348,
      "v": 64
    },
    {
      "midi": 63,
      "hit": false,
      "t": 126197.81399707047,
      "d": 189.8439873046882,
      "v": 64
    },
    {
      "midi": 51,
      "hit": false,
      "t": 126197.81399707073,
      "d": 189.8439873046882,
      "v": 64
    },
    {
      "midi": 64,
      "hit": false,
      "t": 126403.2830039064,
      "d": 216.40652050780773,
      "v": 69
    },
    {
      "midi": 49,
      "hit": false,
      "t": 126403.28300390666,
      "d": 216.40652050780773,
      "v": 69
    },
    {
      "midi": 63,
      "hit": false,
      "t": 126632.18954003921,
      "d": 182.03147753905796,
      "v": 64
    },
    {
      "midi": 51,
      "hit": false,
      "t": 126632.18954003947,
      "d": 182.03147753905796,
      "v": 64
    },
    {
      "midi": 64,
      "hit": false,
      "t": 126826.72103320327,
      "d": 182.03147753905796,
      "v": 64
    },
    {
      "midi": 52,
      "hit": false,
      "t": 126826.72103320353,
      "d": 182.03147753905796,
      "v": 64
    },
    {
      "midi": 56,
      "hit": false,
      "t": 127021.25252636759,
      "d": 189.8439873046882,
      "v": 56
    },
    {
      "midi": 61,
      "hit": false,
      "t": 127021.25252636759,
      "d": 201.56275195312628,
      "v": 70
    },
    {
      "midi": 61,
      "hit": false,
      "t": 127223.59652929728,
      "d": 189.06273632812372,
      "v": 57
    },
    {
      "midi": 64,
      "hit": false,
      "t": 127223.59652929728,
      "d": 200.7815009765618,
      "v": 71
    },
    {
      "midi": 63,
      "hit": false,
      "t": 127425.15928125015,
      "d": 180.46897558594355,
      "v": 64
    },
    {
      "midi": 56,
      "hit": false,
      "t": 127425.15928125041,
      "d": 180.46897558594355,
      "v": 64
    },
    {
      "midi": 66,
      "hit": false,
      "t": 127618.1282724611,
      "d": 181.25022656249348,
      "v": 64
    },
    {
      "midi": 52,
      "hit": false,
      "t": 127618.12827246136,
      "d": 181.25022656249348,
      "v": 64
    },
    {
      "midi": 68,
      "hit": false,
      "t": 127811.87851464859,
      "d": 192.18774023438164,
      "v": 64
    },
    {
      "midi": 51,
      "hit": false,
      "t": 127811.87851464885,
      "d": 192.18774023438164,
      "v": 64
    },
    {
      "midi": 73,
      "hit": false,
      "t": 128016.56627050797,
      "d": 1382.814228515621,
      "v": 67
    },
    {
      "midi": 49,
      "hit": false,
      "t": 128016.56627050824,
      "d": 1382.814228515621,
      "v": 67
    }
  ]
}