{
  "jsonPath": "Pop/Classic Italian Pop/Gianni Morandi/io-per-lei.json",
  "path": "Pop\\Classic Italian Pop\\Gianni Morandi\\Io Per Lei.mid",
  "name": "Io Per Lei",
  "difficulty": "Advanced",
  "bpm": 85.00004250002125,
  "notes": [
    {
      "midi": 60,
      "hit": false,
      "t": 352.941,
      "d": 1058.8229999999999,
      "v": 65
    },
    {
      "midi": 62,
      "hit": false,
      "t": 352.941,
      "d": 1058.8229999999999,
      "v": 65
    },
    {
      "midi": 65,
      "hit": false,
      "t": 352.941,
      "d": 1058.8229999999999,
      "v": 65
    },
    {
      "midi": 69,
      "hit": false,
      "t": 352.941,
      "d": 1058.8229999999999,
      "v": 65
    },
    {
      "midi": 62,
      "hit": false,
      "t": 1411.764,
      "d": 1394.1169499999999,
      "v": 65
    },
    {
      "midi": 65,
      "hit": false,
      "t": 1411.764,
      "d": 1394.1169499999999,
      "v": 65
    },
    {
      "midi": 68,
      "hit": false,
      "t": 1411.764,
      "d": 1394.1169499999999,
      "v": 65
    },
    {
      "midi": 71,
      "hit": false,
      "t": 1411.764,
      "d": 1394.1169499999999,
      "v": 65
    },
    {
      "midi": 63,
      "hit": false,
      "t": 3176.4689999999996,
      "d": 1058.8229999999999,
      "v": 65
    },
    {
      "midi": 67,
      "hit": false,
      "t": 3176.4689999999996,
      "d": 1058.8229999999999,
      "v": 65
    },
    {
      "midi": 70,
      "hit": false,
      "t": 3176.4689999999996,
      "d": 1058.8229999999999,
      "v": 65
    },
    {
      "midi": 72,
      "hit": false,
      "t": 3176.4689999999996,
      "d": 1058.8229999999999,
      "v": 65
    },
    {
      "midi": 63,
      "hit": false,
      "t": 4235.2919999999995,
      "d": 1394.1169499999996,
      "v": 65
    },
    {
      "midi": 65,
      "hit": false,
      "t": 4235.2919999999995,
      "d": 1394.1169499999996,
      "v": 65
    },
    {
      "midi": 69,
      "hit": false,
      "t": 4235.2919999999995,
      "d": 1394.1169499999996,
      "v": 65
    },
    {
      "midi": 72,
      "hit": false,
      "t": 4235.2919999999995,
      "d": 1394.1169499999996,
      "v": 65
    },
    {
      "midi": 65,
      "hit": false,
      "t": 5647.055999999999,
      "d": 805.88195,
      "v": 39
    },
    {
      "midi": 70,
      "hit": false,
      "t": 5647.055999999999,
      "d": 2399.9988000000003,
      "v": 71
    },
    {
      "midi": 74,
      "hit": false,
      "t": 5647.055999999999,
      "d": 2399.9988000000003,
      "v": 63
    },
    {
      "midi": 46,
      "hit": false,
      "t": 5999.9969999999985,
      "d": 2123.5283500000005,
      "v": 71
    },
    {
      "midi": 58,
      "hit": false,
      "t": 6352.937999999998,
      "d": 423.52920000000086,
      "v": 60
    },
    {
      "midi": 62,
      "hit": false,
      "t": 6705.878999999999,
      "d": 1358.8228499999996,
      "v": 74
    },
    {
      "midi": 58,
      "hit": false,
      "t": 8470.583999999999,
      "d": 705.8819999999996,
      "v": 65
    },
    {
      "midi": 63,
      "hit": false,
      "t": 8470.583999999999,
      "d": 705.8819999999996,
      "v": 65
    },
    {
      "midi": 67,
      "hit": false,
      "t": 8470.583999999999,
      "d": 705.8819999999996,
      "v": 65
    },
    {
      "midi": 60,
      "hit": false,
      "t": 9176.465999999999,
      "d": 705.8819999999996,
      "v": 65
    },
    {
      "midi": 65,
      "hit": false,
      "t": 9176.465999999999,
      "d": 705.8819999999996,
      "v": 65
    },
    {
      "midi": 69,
      "hit": false,
      "t": 9176.465999999999,
      "d": 705.8819999999996,
      "v": 65
    },
    {
      "midi": 58,
      "hit": false,
      "t": 9882.347999999998,
      "d": 705.8819999999996,
      "v": 65
    },
    {
      "midi": 63,
      "hit": false,
      "t": 9882.347999999998,
      "d": 705.8819999999996,
      "v": 65
    },
    {
      "midi": 67,
      "hit": false,
      "t": 9882.347999999998,
      "d": 705.8819999999996,
      "v": 65
    },
    {
      "midi": 63,
      "hit": false,
      "t": 10588.229999999998,
      "d": 705.8819999999996,
      "v": 65
    },
    {
      "midi": 65,
      "hit": false,
      "t": 10588.229999999998,
      "d": 705.8819999999996,
      "v": 65
    },
    {
      "midi": 69,
      "hit": false,
      "t": 10588.229999999998,
      "d": 705.8819999999996,
      "v": 65
    },
    {
      "midi": 72,
      "hit": false,
      "t": 10588.229999999998,
      "d": 705.8819999999996,
      "v": 65
    },
    {
      "midi": 46,
      "hit": false,
      "t": 11647.052999999998,
      "d": 2417.645850000001,
      "v": 84
    },
    {
      "midi": 62,
      "hit": false,
      "t": 11999.993999999999,
      "d": 2047.0578000000005,
      "v": 74
    },
    {
      "midi": 65,
      "hit": false,
      "t": 12352.935,
      "d": 1623.5285999999996,
      "v": 63
    },
    {
      "midi": 70,
      "hit": false,
      "t": 12352.935,
      "d": 1623.5285999999996,
      "v": 81
    },
    {
      "midi": 60,
      "hit": false,
      "t": 14117.64,
      "d": 805.8819500000009,
      "v": 39
    },
    {
      "midi": 65,
      "hit": false,
      "t": 14117.64,
      "d": 2399.998800000001,
      "v": 71
    },
    {
      "midi": 69,
      "hit": false,
      "t": 14117.64,
      "d": 2399.998800000001,
      "v": 63
    },
    {
      "midi": 50,
      "hit": false,
      "t": 14470.581,
      "d": 2123.5283499999987,
      "v": 71
    },
    {
      "midi": 53,
      "hit": false,
      "t": 14823.522,
      "d": 423.52919999999904,
      "v": 60
    },
    {
      "midi": 57,
      "hit": false,
      "t": 15176.463,
      "d": 1358.8228500000005,
      "v": 74
    },
    {
      "midi": 58,
      "hit": false,
      "t": 17294.109,
      "d": 1058.8230000000003,
      "v": 65
    },
    {
      "midi": 63,
      "hit": false,
      "t": 17294.109,
      "d": 1058.8230000000003,
      "v": 65
    },
    {
      "midi": 67,
      "hit": false,
      "t": 17294.109,
      "d": 1058.8230000000003,
      "v": 65
    },
    {
      "midi": 63,
      "hit": false,
      "t": 18352.932,
      "d": 1394.1169499999996,
      "v": 65
    },
    {
      "midi": 67,
      "hit": false,
      "t": 18352.932,
      "d": 1394.1169499999996,
      "v": 65
    },
    {
      "midi": 70,
      "hit": false,
      "t": 18352.932,
      "d": 1394.1169499999996,
      "v": 65
    },
    {
      "midi": 72,
      "hit": false,
      "t": 18352.932,
      "d": 1394.1169499999996,
      "v": 65
    },
    {
      "midi": 58,
      "hit": false,
      "t": 20117.637,
      "d": 1058.8230000000003,
      "v": 65
    },
    {
      "midi": 62,
      "hit": false,
      "t": 20117.637,
      "d": 1058.8230000000003,
      "v": 65
    },
    {
      "midi": 67,
      "hit": false,
      "t": 20117.637,
      "d": 1058.8230000000003,
      "v": 65
    },
    {
      "midi": 63,
      "hit": false,
      "t": 21176.46,
      "d": 1394.1169499999996,
      "v": 65
    },
    {
      "midi": 65,
      "hit": false,
      "t": 21176.46,
      "d": 1394.1169499999996,
      "v": 65
    },
    {
      "midi": 69,
      "hit": false,
      "t": 21176.46,
      "d": 1394.1169499999996,
      "v": 65
    },
    {
      "midi": 72,
      "hit": false,
      "t": 21176.46,
      "d": 1394.1169499999996,
      "v": 65
    },
    {
      "midi": 60,
      "hit": false,
      "t": 22588.224,
      "d": 329.41159999999945,
      "v": 74
    },
    {
      "midi": 46,
      "hit": false,
      "t": 22588.224,
      "d": 2823.527999999995,
      "v": 58
    },
    {
      "midi": 65,
      "hit": false,
      "t": 22588.224,
      "d": 2823.527999999995,
      "v": 81
    },
    {
      "midi": 62,
      "hit": false,
      "t": 22941.164999999997,
      "d": 423.5291999999972,
      "v": 65
    },
    {
      "midi": 60,
      "hit": false,
      "t": 23294.105999999996,
      "d": 376.47039999999834,
      "v": 63
    },
    {
      "midi": 58,
      "hit": false,
      "t": 23670.576399999994,
      "d": 1741.1755999999987,
      "v": 84
    },
    {
      "midi": 50,
      "hit": false,
      "t": 25764.692999999992,
      "d": 2417.645849999997,
      "v": 84
    },
    {
      "midi": 57,
      "hit": false,
      "t": 26117.63399999999,
      "d": 2047.0577999999987,
      "v": 74
    },
    {
      "midi": 60,
      "hit": false,
      "t": 26470.57499999999,
      "d": 1623.5286000000015,
      "v": 63
    },
    {
      "midi": 65,
      "hit": false,
      "t": 26470.57499999999,
      "d": 1623.5286000000015,
      "v": 81
    },
    {
      "midi": 58,
      "hit": false,
      "t": 28235.279999999988,
      "d": 1394.1169499999996,
      "v": 65
    },
    {
      "midi": 63,
      "hit": false,
      "t": 28235.279999999988,
      "d": 1394.1169499999996,
      "v": 65
    },
    {
      "midi": 67,
      "hit": false,
      "t": 28235.279999999988,
      "d": 1394.1169499999996,
      "v": 65
    },
    {
      "midi": 63,
      "hit": false,
      "t": 29999.984999999986,
      "d": 1058.8230000000003,
      "v": 65
    },
    {
      "midi": 67,
      "hit": false,
      "t": 29999.984999999986,
      "d": 1058.8230000000003,
      "v": 65
    },
    {
      "midi": 70,
      "hit": false,
      "t": 29999.984999999986,
      "d": 1058.8230000000003,
      "v": 65
    },
    {
      "midi": 72,
      "hit": false,
      "t": 29999.984999999986,
      "d": 1058.8230000000003,
      "v": 65
    },
    {
      "midi": 58,
      "hit": false,
      "t": 31058.807999999986,
      "d": 1394.1169499999996,
      "v": 65
    },
    {
      "midi": 63,
      "hit": false,
      "t": 31058.807999999986,
      "d": 1394.1169499999996,
      "v": 65
    },
    {
      "midi": 67,
      "hit": false,
      "t": 31058.807999999986,
      "d": 1394.1169499999996,
      "v": 65
    },
    {
      "midi": 63,
      "hit": false,
      "t": 32823.512999999984,
      "d": 1058.8229999999967,
      "v": 65
    },
    {
      "midi": 67,
      "hit": false,
      "t": 32823.512999999984,
      "d": 1058.8229999999967,
      "v": 65
    },
    {
      "midi": 70,
      "hit": false,
      "t": 32823.512999999984,
      "d": 1058.8229999999967,
      "v": 65
    },
    {
      "midi": 72,
      "hit": false,
      "t": 32823.512999999984,
      "d": 1058.8229999999967,
      "v": 65
    },
    {
      "midi": 63,
      "hit": false,
      "t": 33882.33599999998,
      "d": 264.705750000001,
      "v": 71
    },
    {
      "midi": 65,
      "hit": false,
      "t": 33882.33599999998,
      "d": 264.705750000001,
      "v": 71
    },
    {
      "midi": 69,
      "hit": false,
      "t": 33882.33599999998,
      "d": 264.705750000001,
      "v": 71
    },
    {
      "midi": 72,
      "hit": false,
      "t": 33882.33599999998,
      "d": 264.705750000001,
      "v": 71
    },
    {
      "midi": 63,
      "hit": false,
      "t": 34588.21799999998,
      "d": 2676.469250000002,
      "v": 84
    },
    {
      "midi": 65,
      "hit": false,
      "t": 34588.21799999998,
      "d": 2676.469250000002,
      "v": 84
    },
    {
      "midi": 69,
      "hit": false,
      "t": 34588.21799999998,
      "d": 2676.469250000002,
      "v": 84
    },
    {
      "midi": 72,
      "hit": false,
      "t": 34588.21799999998,
      "d": 2676.469250000002,
      "v": 84
    },
    {
      "midi": 53,
      "hit": false,
      "t": 37058.80499999998,
      "d": 2423.5281999999934,
      "v": 77
    },
    {
      "midi": 60,
      "hit": false,
      "t": 37411.74599999998,
      "d": 2070.5871999999945,
      "v": 81
    },
    {
      "midi": 69,
      "hit": false,
      "t": 37764.686999999976,
      "d": 1717.6461999999956,
      "v": 65
    },
    {
      "midi": 63,
      "hit": false,
      "t": 38470.568999999974,
      "d": 1011.7641999999978,
      "v": 48
    },
    {
      "midi": 46,
      "hit": false,
      "t": 39882.33299999997,
      "d": 2417.6458499999935,
      "v": 84
    },
    {
      "midi": 62,
      "hit": false,
      "t": 40235.27399999997,
      "d": 2047.057799999995,
      "v": 74
    },
    {
      "midi": 65,
      "hit": false,
      "t": 40588.21499999997,
      "d": 1623.5285999999978,
      "v": 63
    },
    {
      "midi": 70,
      "hit": false,
      "t": 40588.21499999997,
      "d": 1623.5285999999978,
      "v": 81
    },
    {
      "midi": 60,
      "hit": false,
      "t": 42352.91999999996,
      "d": 1394.1169500000033,
      "v": 65
    },
    {
      "midi": 62,
      "hit": false,
      "t": 42352.91999999996,
      "d": 1394.1169500000033,
      "v": 65
    },
    {
      "midi": 65,
      "hit": false,
      "t": 42352.91999999996,
      "d": 1394.1169500000033,
      "v": 65
    },
    {
      "midi": 69,
      "hit": false,
      "t": 42352.91999999996,
      "d": 1394.1169500000033,
      "v": 65
    },
    {
      "midi": 58,
      "hit": false,
      "t": 43764.683999999965,
      "d": 1394.1169500000033,
      "v": 65
    },
    {
      "midi": 62,
      "hit": false,
      "t": 43764.683999999965,
      "d": 1394.1169500000033,
      "v": 65
    },
    {
      "midi": 67,
      "hit": false,
      "t": 43764.683999999965,
      "d": 1394.1169500000033,
      "v": 65
    },
    {
      "midi": 48,
      "hit": false,
      "t": 45529.38899999997,
      "d": 2417.6458499999935,
      "v": 84
    },
    {
      "midi": 55,
      "hit": false,
      "t": 45882.329999999965,
      "d": 2047.057799999995,
      "v": 74
    },
    {
      "midi": 58,
      "hit": false,
      "t": 46235.270999999964,
      "d": 1623.5285999999978,
      "v": 63
    },
    {
      "midi": 63,
      "hit": false,
      "t": 46235.270999999964,
      "d": 1623.5285999999978,
      "v": 81
    },
    {
      "midi": 58,
      "hit": false,
      "t": 47999.97599999996,
      "d": 1394.1169500000033,
      "v": 65
    },
    {
      "midi": 63,
      "hit": false,
      "t": 47999.97599999996,
      "d": 1394.1169500000033,
      "v": 65
    },
    {
      "midi": 67,
      "hit": false,
      "t": 47999.97599999996,
      "d": 1394.1169500000033,
      "v": 65
    },
    {
      "midi": 60,
      "hit": false,
      "t": 49764.68099999996,
      "d": 1058.8229999999967,
      "v": 65
    },
    {
      "midi": 65,
      "hit": false,
      "t": 49764.68099999996,
      "d": 1058.8229999999967,
      "v": 65
    },
    {
      "midi": 69,
      "hit": false,
      "t": 49764.68099999996,
      "d": 1058.8229999999967,
      "v": 65
    },
    {
      "midi": 60,
      "hit": false,
      "t": 50823.50399999996,
      "d": 805.8819499999954,
      "v": 39
    },
    {
      "midi": 65,
      "hit": false,
      "t": 50823.50399999996,
      "d": 2399.998799999994,
      "v": 71
    },
    {
      "midi": 69,
      "hit": false,
      "t": 50823.50399999996,
      "d": 2399.998799999994,
      "v": 63
    },
    {
      "midi": 50,
      "hit": false,
      "t": 51176.444999999956,
      "d": 2123.528349999993,
      "v": 71
    },
    {
      "midi": 53,
      "hit": false,
      "t": 51529.385999999955,
      "d": 423.5291999999972,
      "v": 60
    },
    {
      "midi": 57,
      "hit": false,
      "t": 51882.326999999954,
      "d": 1358.8228499999968,
      "v": 74
    },
    {
      "midi": 60,
      "hit": false,
      "t": 53647.03199999995,
      "d": 999.9994999999981,
      "v": 65
    },
    {
      "midi": 62,
      "hit": false,
      "t": 53647.03199999995,
      "d": 999.9994999999981,
      "v": 65
    },
    {
      "midi": 67,
      "hit": false,
      "t": 53647.03199999995,
      "d": 999.9994999999981,
      "v": 65
    },
    {
      "midi": 62,
      "hit": false,
      "t": 54705.854999999945,
      "d": 1735.2932500000024,
      "v": 65
    },
    {
      "midi": 65,
      "hit": false,
      "t": 54705.854999999945,
      "d": 1735.2932500000024,
      "v": 65
    },
    {
      "midi": 67,
      "hit": false,
      "t": 54705.854999999945,
      "d": 1735.2932500000024,
      "v": 65
    },
    {
      "midi": 71,
      "hit": false,
      "t": 54705.854999999945,
      "d": 1735.2932500000024,
      "v": 65
    },
    {
      "midi": 63,
      "hit": false,
      "t": 56470.55999999995,
      "d": 2599.9986999999965,
      "v": 52
    },
    {
      "midi": 67,
      "hit": false,
      "t": 56470.55999999995,
      "d": 2599.9986999999965,
      "v": 52
    },
    {
      "midi": 70,
      "hit": false,
      "t": 56470.55999999995,
      "d": 2599.9986999999965,
      "v": 52
    },
    {
      "midi": 72,
      "hit": false,
      "t": 56470.55999999995,
      "d": 2599.9986999999965,
      "v": 52
    },
    {
      "midi": 53,
      "hit": false,
      "t": 59647.028999999944,
      "d": 2417.6458499999935,
      "v": 84
    },
    {
      "midi": 60,
      "hit": false,
      "t": 59999.96999999994,
      "d": 2047.057799999995,
      "v": 74
    },
    {
      "midi": 63,
      "hit": false,
      "t": 60352.91099999994,
      "d": 1623.5285999999978,
      "v": 63
    },
    {
      "midi": 69,
      "hit": false,
      "t": 60352.91099999994,
      "d": 1623.5285999999978,
      "v": 81
    },
    {
      "midi": 65,
      "hit": false,
      "t": 62117.615999999936,
      "d": 805.8819499999954,
      "v": 39
    },
    {
      "midi": 70,
      "hit": false,
      "t": 62117.615999999936,
      "d": 2399.998799999994,
      "v": 71
    },
    {
      "midi": 74,
      "hit": false,
      "t": 62117.615999999936,
      "d": 2399.998799999994,
      "v": 63
    },
    {
      "midi": 46,
      "hit": false,
      "t": 62470.556999999935,
      "d": 2123.528349999993,
      "v": 71
    },
    {
      "midi": 58,
      "hit": false,
      "t": 62823.497999999934,
      "d": 423.5291999999972,
      "v": 60
    },
    {
      "midi": 62,
      "hit": false,
      "t": 63176.43899999993,
      "d": 1358.8228499999968,
      "v": 74
    },
    {
      "midi": 60,
      "hit": false,
      "t": 64941.14399999993,
      "d": 1394.116949999996,
      "v": 65
    },
    {
      "midi": 62,
      "hit": false,
      "t": 64941.14399999993,
      "d": 1394.116949999996,
      "v": 65
    },
    {
      "midi": 65,
      "hit": false,
      "t": 64941.14399999993,
      "d": 1394.116949999996,
      "v": 65
    },
    {
      "midi": 69,
      "hit": false,
      "t": 64941.14399999993,
      "d": 1394.116949999996,
      "v": 65
    },
    {
      "midi": 58,
      "hit": false,
      "t": 66352.90799999992,
      "d": 1394.116949999996,
      "v": 65
    },
    {
      "midi": 62,
      "hit": false,
      "t": 66352.90799999992,
      "d": 1394.116949999996,
      "v": 65
    },
    {
      "midi": 67,
      "hit": false,
      "t": 66352.90799999992,
      "d": 1394.116949999996,
      "v": 65
    },
    {
      "midi": 58,
      "hit": false,
      "t": 67764.67199999992,
      "d": 805.88195000001,
      "v": 39
    },
    {
      "midi": 63,
      "hit": false,
      "t": 67764.67199999992,
      "d": 2399.998800000001,
      "v": 71
    },
    {
      "midi": 67,
      "hit": false,
      "t": 67764.67199999992,
      "d": 2399.998800000001,
      "v": 63
    },
    {
      "midi": 48,
      "hit": false,
      "t": 68117.61299999992,
      "d": 2123.528349999993,
      "v": 71
    },
    {
      "midi": 51,
      "hit": false,
      "t": 68470.55399999993,
      "d": 423.52919999998994,
      "v": 60
    },
    {
      "midi": 55,
      "hit": false,
      "t": 68823.49499999992,
      "d": 1358.8228499999968,
      "v": 74
    },
    {
      "midi": 58,
      "hit": false,
      "t": 70588.19999999992,
      "d": 1394.116949999996,
      "v": 65
    },
    {
      "midi": 63,
      "hit": false,
      "t": 70588.19999999992,
      "d": 1394.116949999996,
      "v": 65
    },
    {
      "midi": 67,
      "hit": false,
      "t": 70588.19999999992,
      "d": 1394.116949999996,
      "v": 65
    },
    {
      "midi": 60,
      "hit": false,
      "t": 72352.90499999993,
      "d": 1058.823000000004,
      "v": 65
    },
    {
      "midi": 65,
      "hit": false,
      "t": 72352.90499999993,
      "d": 1058.823000000004,
      "v": 65
    },
    {
      "midi": 69,
      "hit": false,
      "t": 72352.90499999993,
      "d": 1058.823000000004,
      "v": 65
    },
    {
      "midi": 60,
      "hit": false,
      "t": 73411.72799999993,
      "d": 2599.9986999999965,
      "v": 52
    },
    {
      "midi": 62,
      "hit": false,
      "t": 73411.72799999993,
      "d": 2599.9986999999965,
      "v": 52
    },
    {
      "midi": 65,
      "hit": false,
      "t": 73411.72799999993,
      "d": 2599.9986999999965,
      "v": 52
    },
    {
      "midi": 69,
      "hit": false,
      "t": 73411.72799999993,
      "d": 2599.9986999999965,
      "v": 52
    },
    {
      "midi": 60,
      "hit": false,
      "t": 76235.25599999992,
      "d": 705.8819999999978,
      "v": 65
    },
    {
      "midi": 62,
      "hit": false,
      "t": 76235.25599999992,
      "d": 705.8819999999978,
      "v": 65
    },
    {
      "midi": 67,
      "hit": false,
      "t": 76235.25599999992,
      "d": 705.8819999999978,
      "v": 65
    },
    {
      "midi": 62,
      "hit": false,
      "t": 76941.13799999992,
      "d": 705.8819999999978,
      "v": 65
    },
    {
      "midi": 65,
      "hit": false,
      "t": 76941.13799999992,
      "d": 705.8819999999978,
      "v": 65
    },
    {
      "midi": 67,
      "hit": false,
      "t": 76941.13799999992,
      "d": 705.8819999999978,
      "v": 65
    },
    {
      "midi": 71,
      "hit": false,
      "t": 76941.13799999992,
      "d": 705.8819999999978,
      "v": 65
    },
    {
      "midi": 62,
      "hit": false,
      "t": 77999.96099999992,
      "d": 1058.823000000004,
      "v": 65
    },
    {
      "midi": 65,
      "hit": false,
      "t": 77999.96099999992,
      "d": 1058.823000000004,
      "v": 65
    },
    {
      "midi": 67,
      "hit": false,
      "t": 77999.96099999992,
      "d": 1058.823000000004,
      "v": 65
    },
    {
      "midi": 71,
      "hit": false,
      "t": 77999.96099999992,
      "d": 1058.823000000004,
      "v": 65
    },
    {
      "midi": 63,
      "hit": false,
      "t": 79058.78399999993,
      "d": 1394.116949999996,
      "v": 65
    },
    {
      "midi": 67,
      "hit": false,
      "t": 79058.78399999993,
      "d": 1394.116949999996,
      "v": 65
    },
    {
      "midi": 70,
      "hit": false,
      "t": 79058.78399999993,
      "d": 1394.116949999996,
      "v": 65
    },
    {
      "midi": 72,
      "hit": false,
      "t": 79058.78399999993,
      "d": 1394.116949999996,
      "v": 65
    },
    {
      "midi": 63,
      "hit": false,
      "t": 80823.48899999993,
      "d": 1058.823000000004,
      "v": 65
    },
    {
      "midi": 65,
      "hit": false,
      "t": 80823.48899999993,
      "d": 1058.823000000004,
      "v": 65
    },
    {
      "midi": 69,
      "hit": false,
      "t": 80823.48899999993,
      "d": 1058.823000000004,
      "v": 65
    },
    {
      "midi": 72,
      "hit": false,
      "t": 80823.48899999993,
      "d": 1058.823000000004,
      "v": 65
    },
    {
      "midi": 60,
      "hit": false,
      "t": 82235.25299999994,
      "d": 1058.823000000004,
      "v": 65
    },
    {
      "midi": 62,
      "hit": false,
      "t": 82235.25299999994,
      "d": 1058.823000000004,
      "v": 65
    },
    {
      "midi": 65,
      "hit": false,
      "t": 82235.25299999994,
      "d": 1058.823000000004,
      "v": 65
    },
    {
      "midi": 69,
      "hit": false,
      "t": 82235.25299999994,
      "d": 1058.823000000004,
      "v": 65
    },
    {
      "midi": 62,
      "hit": false,
      "t": 83647.01699999995,
      "d": 1058.823000000004,
      "v": 65
    },
    {
      "midi": 65,
      "hit": false,
      "t": 83647.01699999995,
      "d": 1058.823000000004,
      "v": 65
    },
    {
      "midi": 68,
      "hit": false,
      "t": 83647.01699999995,
      "d": 1058.823000000004,
      "v": 65
    },
    {
      "midi": 71,
      "hit": false,
      "t": 83647.01699999995,
      "d": 1058.823000000004,
      "v": 65
    },
    {
      "midi": 63,
      "hit": false,
      "t": 85058.78099999996,
      "d": 1058.823000000004,
      "v": 65
    },
    {
      "midi": 67,
      "hit": false,
      "t": 85058.78099999996,
      "d": 1058.823000000004,
      "v": 65
    },
    {
      "midi": 70,
      "hit": false,
      "t": 85058.78099999996,
      "d": 1058.823000000004,
      "v": 65
    },
    {
      "midi": 72,
      "hit": false,
      "t": 85058.78099999996,
      "d": 1058.823000000004,
      "v": 65
    },
    {
      "midi": 63,
      "hit": false,
      "t": 86117.60399999996,
      "d": 1394.116949999996,
      "v": 65
    },
    {
      "midi": 65,
      "hit": false,
      "t": 86117.60399999996,
      "d": 1394.116949999996,
      "v": 65
    },
    {
      "midi": 69,
      "hit": false,
      "t": 86117.60399999996,
      "d": 1394.116949999996,
      "v": 65
    },
    {
      "midi": 72,
      "hit": false,
      "t": 86117.60399999996,
      "d": 1394.116949999996,
      "v": 65
    },
    {
      "midi": 60,
      "hit": false,
      "t": 87529.36799999996,
      "d": 329.41160000000673,
      "v": 74
    },
    {
      "midi": 46,
      "hit": false,
      "t": 87529.36799999996,
      "d": 2823.5280000000057,
      "v": 58
    },
    {
      "midi": 65,
      "hit": false,
      "t": 87529.36799999996,
      "d": 2823.5280000000057,
      "v": 81
    },
    {
      "midi": 62,
      "hit": false,
      "t": 87882.30899999996,
      "d": 423.5292000000045,
      "v": 65
    },
    {
      "midi": 60,
      "hit": false,
      "t": 88235.24999999997,
      "d": 376.47039999999106,
      "v": 63
    },
    {
      "midi": 58,
      "hit": false,
      "t": 88611.72039999996,
      "d": 1741.1756000000023,
      "v": 84
    },
    {
      "midi": 58,
      "hit": false,
      "t": 90352.89599999996,
      "d": 705.8819999999978,
      "v": 65
    },
    {
      "midi": 63,
      "hit": false,
      "t": 90352.89599999996,
      "d": 705.8819999999978,
      "v": 65
    },
    {
      "midi": 67,
      "hit": false,
      "t": 90352.89599999996,
      "d": 705.8819999999978,
      "v": 65
    },
    {
      "midi": 60,
      "hit": false,
      "t": 91058.77799999996,
      "d": 705.8819999999978,
      "v": 65
    },
    {
      "midi": 65,
      "hit": false,
      "t": 91058.77799999996,
      "d": 705.8819999999978,
      "v": 65
    },
    {
      "midi": 69,
      "hit": false,
      "t": 91058.77799999996,
      "d": 705.8819999999978,
      "v": 65
    },
    {
      "midi": 58,
      "hit": false,
      "t": 91764.65999999996,
      "d": 705.8819999999978,
      "v": 65
    },
    {
      "midi": 63,
      "hit": false,
      "t": 91764.65999999996,
      "d": 705.8819999999978,
      "v": 65
    },
    {
      "midi": 67,
      "hit": false,
      "t": 91764.65999999996,
      "d": 705.8819999999978,
      "v": 65
    },
    {
      "midi": 63,
      "hit": false,
      "t": 92470.54199999996,
      "d": 705.8819999999978,
      "v": 65
    },
    {
      "midi": 65,
      "hit": false,
      "t": 92470.54199999996,
      "d": 705.8819999999978,
      "v": 65
    },
    {
      "midi": 69,
      "hit": false,
      "t": 92470.54199999996,
      "d": 705.8819999999978,
      "v": 65
    },
    {
      "midi": 72,
      "hit": false,
      "t": 92470.54199999996,
      "d": 705.8819999999978,
      "v": 65
    },
    {
      "midi": 60,
      "hit": false,
      "t": 93176.42399999996,
      "d": 329.41160000000673,
      "v": 74
    },
    {
      "midi": 46,
      "hit": false,
      "t": 93176.42399999996,
      "d": 2823.5280000000203,
      "v": 58
    },
    {
      "midi": 65,
      "hit": false,
      "t": 93176.42399999996,
      "d": 2823.5280000000203,
      "v": 81
    },
    {
      "midi": 62,
      "hit": false,
      "t": 93529.36499999996,
      "d": 423.5292000000045,
      "v": 65
    },
    {
      "midi": 60,
      "hit": false,
      "t": 93882.30599999997,
      "d": 376.4704000000056,
      "v": 63
    },
    {
      "midi": 58,
      "hit": false,
      "t": 94258.77639999997,
      "d": 1741.1756000000023,
      "v": 84
    },
    {
      "midi": 60,
      "hit": false,
      "t": 95999.95199999998,
      "d": 1588.234500000006,
      "v": 84
    },
    {
      "midi": 62,
      "hit": false,
      "t": 95999.95199999998,
      "d": 1588.234500000006,
      "v": 84
    },
    {
      "midi": 65,
      "hit": false,
      "t": 95999.95199999998,
      "d": 1588.234500000006,
      "v": 84
    },
    {
      "midi": 69,
      "hit": false,
      "t": 95999.95199999998,
      "d": 1588.234500000006,
      "v": 84
    },
    {
      "midi": 60,
      "hit": false,
      "t": 97764.65699999998,
      "d": 235.2939999999944,
      "v": 81
    },
    {
      "midi": 62,
      "hit": false,
      "t": 97764.65699999998,
      "d": 235.2939999999944,
      "v": 81
    },
    {
      "midi": 65,
      "hit": false,
      "t": 97764.65699999998,
      "d": 235.2939999999944,
      "v": 81
    },
    {
      "midi": 69,
      "hit": false,
      "t": 97764.65699999998,
      "d": 235.2939999999944,
      "v": 81
    },
    {
      "midi": 58,
      "hit": false,
      "t": 98823.47999999997,
      "d": 1394.116949999996,
      "v": 65
    },
    {
      "midi": 63,
      "hit": false,
      "t": 98823.47999999997,
      "d": 1394.116949999996,
      "v": 65
    },
    {
      "midi": 67,
      "hit": false,
      "t": 98823.47999999997,
      "d": 1394.116949999996,
      "v": 65
    },
    {
      "midi": 63,
      "hit": false,
      "t": 100588.18499999997,
      "d": 1058.823000000004,
      "v": 65
    },
    {
      "midi": 67,
      "hit": false,
      "t": 100588.18499999997,
      "d": 1058.823000000004,
      "v": 65
    },
    {
      "midi": 70,
      "hit": false,
      "t": 100588.18499999997,
      "d": 1058.823000000004,
      "v": 65
    },
    {
      "midi": 72,
      "hit": false,
      "t": 100588.18499999997,
      "d": 1058.823000000004,
      "v": 65
    },
    {
      "midi": 58,
      "hit": false,
      "t": 101647.00799999997,
      "d": 1394.116949999996,
      "v": 65
    },
    {
      "midi": 62,
      "hit": false,
      "t": 101647.00799999997,
      "d": 1394.116949999996,
      "v": 65
    },
    {
      "midi": 67,
      "hit": false,
      "t": 101647.00799999997,
      "d": 1394.116949999996,
      "v": 65
    },
    {
      "midi": 63,
      "hit": false,
      "t": 103058.77199999997,
      "d": 1394.116949999996,
      "v": 65
    },
    {
      "midi": 65,
      "hit": false,
      "t": 103058.77199999997,
      "d": 1394.116949999996,
      "v": 65
    },
    {
      "midi": 69,
      "hit": false,
      "t": 103058.77199999997,
      "d": 1394.116949999996,
      "v": 65
    },
    {
      "midi": 72,
      "hit": false,
      "t": 103058.77199999997,
      "d": 1394.116949999996,
      "v": 65
    },
    {
      "midi": 58,
      "hit": false,
      "t": 104470.53599999996,
      "d": 1588.234500000006,
      "v": 84
    },
    {
      "midi": 62,
      "hit": false,
      "t": 104470.53599999996,
      "d": 1588.234500000006,
      "v": 84
    },
    {
      "midi": 65,
      "hit": false,
      "t": 104470.53599999996,
      "d": 1588.234500000006,
      "v": 84
    },
    {
      "midi": 58,
      "hit": false,
      "t": 106235.24099999997,
      "d": 235.2939999999944,
      "v": 81
    },
    {
      "midi": 62,
      "hit": false,
      "t": 106235.24099999997,
      "d": 235.2939999999944,
      "v": 81
    },
    {
      "midi": 65,
      "hit": false,
      "t": 106235.24099999997,
      "d": 235.2939999999944,
      "v": 81
    },
    {
      "midi": 60,
      "hit": false,
      "t": 107294.06399999995,
      "d": 805.88195000001,
      "v": 39
    },
    {
      "midi": 65,
      "hit": false,
      "t": 107294.06399999995,
      "d": 2399.998800000001,
      "v": 71
    },
    {
      "midi": 69,
      "hit": false,
      "t": 107294.06399999995,
      "d": 2399.998800000001,
      "v": 63
    },
    {
      "midi": 50,
      "hit": false,
      "t": 107647.00499999996,
      "d": 2123.528349999993,
      "v": 71
    },
    {
      "midi": 53,
      "hit": false,
      "t": 107999.94599999997,
      "d": 423.52919999998994,
      "v": 60
    },
    {
      "midi": 57,
      "hit": false,
      "t": 108352.88699999996,
      "d": 1358.8228499999968,
      "v": 74
    },
    {
      "midi": 58,
      "hit": false,
      "t": 110470.53299999995,
      "d": 1058.823000000004,
      "v": 65
    },
    {
      "midi": 63,
      "hit": false,
      "t": 110470.53299999995,
      "d": 1058.823000000004,
      "v": 65
    },
    {
      "midi": 67,
      "hit": false,
      "t": 110470.53299999995,
      "d": 1058.823000000004,
      "v": 65
    },
    {
      "midi": 63,
      "hit": false,
      "t": 111529.35599999996,
      "d": 1394.116949999996,
      "v": 65
    },
    {
      "midi": 67,
      "hit": false,
      "t": 111529.35599999996,
      "d": 1394.116949999996,
      "v": 65
    },
    {
      "midi": 70,
      "hit": false,
      "t": 111529.35599999996,
      "d": 1394.116949999996,
      "v": 65
    },
    {
      "midi": 72,
      "hit": false,
      "t": 111529.35599999996,
      "d": 1394.116949999996,
      "v": 65
    },
    {
      "midi": 58,
      "hit": false,
      "t": 112941.11999999995,
      "d": 1394.116949999996,
      "v": 65
    },
    {
      "midi": 63,
      "hit": false,
      "t": 112941.11999999995,
      "d": 1394.116949999996,
      "v": 65
    },
    {
      "midi": 67,
      "hit": false,
      "t": 112941.11999999995,
      "d": 1394.116949999996,
      "v": 65
    },
    {
      "midi": 63,
      "hit": false,
      "t": 114352.88399999995,
      "d": 1394.116949999996,
      "v": 65
    },
    {
      "midi": 67,
      "hit": false,
      "t": 114352.88399999995,
      "d": 1394.116949999996,
      "v": 65
    },
    {
      "midi": 70,
      "hit": false,
      "t": 114352.88399999995,
      "d": 1394.116949999996,
      "v": 65
    },
    {
      "midi": 72,
      "hit": false,
      "t": 114352.88399999995,
      "d": 1394.116949999996,
      "v": 65
    },
    {
      "midi": 63,
      "hit": false,
      "t": 115764.64799999994,
      "d": 264.7057499999937,
      "v": 71
    },
    {
      "midi": 65,
      "hit": false,
      "t": 115764.64799999994,
      "d": 264.7057499999937,
      "v": 71
    },
    {
      "midi": 69,
      "hit": false,
      "t": 115764.64799999994,
      "d": 264.7057499999937,
      "v": 71
    },
    {
      "midi": 72,
      "hit": false,
      "t": 115764.64799999994,
      "d": 264.7057499999937,
      "v": 71
    },
    {
      "midi": 63,
      "hit": false,
      "t": 116470.52999999994,
      "d": 2676.4692499999946,
      "v": 84
    },
    {
      "midi": 65,
      "hit": false,
      "t": 116470.52999999994,
      "d": 2676.4692499999946,
      "v": 84
    },
    {
      "midi": 69,
      "hit": false,
      "t": 116470.52999999994,
      "d": 2676.4692499999946,
      "v": 84
    },
    {
      "midi": 72,
      "hit": false,
      "t": 116470.52999999994,
      "d": 2676.4692499999946,
      "v": 84
    },
    {
      "midi": 53,
      "hit": false,
      "t": 118941.11699999994,
      "d": 2423.5282000000007,
      "v": 77
    },
    {
      "midi": 60,
      "hit": false,
      "t": 119294.05799999993,
      "d": 2070.587200000009,
      "v": 81
    },
    {
      "midi": 69,
      "hit": false,
      "t": 119646.99899999994,
      "d": 1717.6462000000029,
      "v": 65
    },
    {
      "midi": 63,
      "hit": false,
      "t": 120352.88099999994,
      "d": 1011.7642000000051,
      "v": 48
    },
    {
      "midi": 58,
      "hit": false,
      "t": 121411.70399999994,
      "d": 2599.9986999999965,
      "v": 52
    },
    {
      "midi": 62,
      "hit": false,
      "t": 121411.70399999994,
      "d": 2599.9986999999965,
      "v": 52
    },
    {
      "midi": 65,
      "hit": false,
      "t": 121411.70399999994,
      "d": 2599.9986999999965,
      "v": 52
    },
    {
      "midi": 60,
      "hit": false,
      "t": 124235.23199999993,
      "d": 1394.116949999996,
      "v": 65
    },
    {
      "midi": 62,
      "hit": false,
      "t": 124235.23199999993,
      "d": 1394.116949999996,
      "v": 65
    },
    {
      "midi": 65,
      "hit": false,
      "t": 124235.23199999993,
      "d": 1394.116949999996,
      "v": 65
    },
    {
      "midi": 69,
      "hit": false,
      "t": 124235.23199999993,
      "d": 1394.116949999996,
      "v": 65
    },
    {
      "midi": 58,
      "hit": false,
      "t": 125999.93699999993,
      "d": 1058.823000000004,
      "v": 65
    },
    {
      "midi": 62,
      "hit": false,
      "t": 125999.93699999993,
      "d": 1058.823000000004,
      "v": 65
    },
    {
      "midi": 67,
      "hit": false,
      "t": 125999.93699999993,
      "d": 1058.823000000004,
      "v": 65
    },
    {
      "midi": 58,
      "hit": false,
      "t": 127058.75999999994,
      "d": 805.88195000001,
      "v": 39
    },
    {
      "midi": 63,
      "hit": false,
      "t": 127058.75999999994,
      "d": 2399.998800000001,
      "v": 71
    },
    {
      "midi": 67,
      "hit": false,
      "t": 127058.75999999994,
      "d": 2399.998800000001,
      "v": 63
    },
    {
      "midi": 48,
      "hit": false,
      "t": 127411.70099999994,
      "d": 2123.528349999993,
      "v": 71
    },
    {
      "midi": 51,
      "hit": false,
      "t": 127764.64199999995,
      "d": 423.52919999998994,
      "v": 60
    },
    {
      "midi": 55,
      "hit": false,
      "t": 128117.58299999994,
      "d": 1358.8228499999968,
      "v": 74
    },
    {
      "midi": 58,
      "hit": false,
      "t": 129882.28799999994,
      "d": 1394.116949999996,
      "v": 65
    },
    {
      "midi": 63,
      "hit": false,
      "t": 129882.28799999994,
      "d": 1394.116949999996,
      "v": 65
    },
    {
      "midi": 67,
      "hit": false,
      "t": 129882.28799999994,
      "d": 1394.116949999996,
      "v": 65
    },
    {
      "midi": 60,
      "hit": false,
      "t": 131294.05199999994,
      "d": 1394.116949999996,
      "v": 65
    },
    {
      "midi": 65,
      "hit": false,
      "t": 131294.05199999994,
      "d": 1394.116949999996,
      "v": 65
    },
    {
      "midi": 69,
      "hit": false,
      "t": 131294.05199999994,
      "d": 1394.116949999996,
      "v": 65
    },
    {
      "midi": 60,
      "hit": false,
      "t": 132705.81599999993,
      "d": 2599.9986999999965,
      "v": 52
    },
    {
      "midi": 62,
      "hit": false,
      "t": 132705.81599999993,
      "d": 2599.9986999999965,
      "v": 52
    },
    {
      "midi": 65,
      "hit": false,
      "t": 132705.81599999993,
      "d": 2599.9986999999965,
      "v": 52
    },
    {
      "midi": 69,
      "hit": false,
      "t": 132705.81599999993,
      "d": 2599.9986999999965,
      "v": 52
    },
    {
      "midi": 60,
      "hit": false,
      "t": 135882.28499999992,
      "d": 647.0585000000137,
      "v": 65
    },
    {
      "midi": 62,
      "hit": false,
      "t": 135882.28499999992,
      "d": 647.0585000000137,
      "v": 65
    },
    {
      "midi": 67,
      "hit": false,
      "t": 135882.28499999992,
      "d": 647.0585000000137,
      "v": 65
    },
    {
      "midi": 62,
      "hit": false,
      "t": 137294.04899999994,
      "d": 1058.823000000004,
      "v": 65
    },
    {
      "midi": 65,
      "hit": false,
      "t": 137294.04899999994,
      "d": 1058.823000000004,
      "v": 65
    },
    {
      "midi": 67,
      "hit": false,
      "t": 137294.04899999994,
      "d": 1058.823000000004,
      "v": 65
    },
    {
      "midi": 71,
      "hit": false,
      "t": 137294.04899999994,
      "d": 1058.823000000004,
      "v": 65
    },
    {
      "midi": 63,
      "hit": false,
      "t": 138352.87199999994,
      "d": 1588.2344999999914,
      "v": 84
    },
    {
      "midi": 67,
      "hit": false,
      "t": 138352.87199999994,
      "d": 1588.2344999999914,
      "v": 84
    },
    {
      "midi": 70,
      "hit": false,
      "t": 138352.87199999994,
      "d": 1588.2344999999914,
      "v": 84
    },
    {
      "midi": 72,
      "hit": false,
      "t": 138352.87199999994,
      "d": 1588.2344999999914,
      "v": 84
    },
    {
      "midi": 63,
      "hit": false,
      "t": 140117.57699999993,
      "d": 235.2939999999944,
      "v": 81
    },
    {
      "midi": 67,
      "hit": false,
      "t": 140117.57699999993,
      "d": 235.2939999999944,
      "v": 81
    },
    {
      "midi": 70,
      "hit": false,
      "t": 140117.57699999993,
      "d": 235.2939999999944,
      "v": 81
    },
    {
      "midi": 72,
      "hit": false,
      "t": 140117.57699999993,
      "d": 235.2939999999944,
      "v": 81
    },
    {
      "midi": 63,
      "hit": false,
      "t": 141176.39999999994,
      "d": 2599.9986999999965,
      "v": 52
    },
    {
      "midi": 65,
      "hit": false,
      "t": 141176.39999999994,
      "d": 2599.9986999999965,
      "v": 52
    },
    {
      "midi": 69,
      "hit": false,
      "t": 141176.39999999994,
      "d": 2599.9986999999965,
      "v": 52
    },
    {
      "midi": 72,
      "hit": false,
      "t": 141176.39999999994,
      "d": 2599.9986999999965,
      "v": 52
    },
    {
      "midi": 58,
      "hit": false,
      "t": 143999.92799999993,
      "d": 1588.2344999999914,
      "v": 84
    },
    {
      "midi": 62,
      "hit": false,
      "t": 143999.92799999993,
      "d": 1588.2344999999914,
      "v": 84
    },
    {
      "midi": 65,
      "hit": false,
      "t": 143999.92799999993,
      "d": 1588.2344999999914,
      "v": 84
    },
    {
      "midi": 58,
      "hit": false,
      "t": 145764.6329999999,
      "d": 235.2939999999944,
      "v": 81
    },
    {
      "midi": 62,
      "hit": false,
      "t": 145764.6329999999,
      "d": 235.2939999999944,
      "v": 81
    },
    {
      "midi": 65,
      "hit": false,
      "t": 145764.6329999999,
      "d": 235.2939999999944,
      "v": 81
    },
    {
      "midi": 60,
      "hit": false,
      "t": 147176.3969999999,
      "d": 1058.823000000004,
      "v": 65
    },
    {
      "midi": 62,
      "hit": false,
      "t": 147176.3969999999,
      "d": 1058.823000000004,
      "v": 65
    },
    {
      "midi": 65,
      "hit": false,
      "t": 147176.3969999999,
      "d": 1058.823000000004,
      "v": 65
    },
    {
      "midi": 69,
      "hit": false,
      "t": 147176.3969999999,
      "d": 1058.823000000004,
      "v": 65
    },
    {
      "midi": 58,
      "hit": false,
      "t": 148588.1609999999,
      "d": 1058.823000000004,
      "v": 65
    },
    {
      "midi": 62,
      "hit": false,
      "t": 148588.1609999999,
      "d": 1058.823000000004,
      "v": 65
    },
    {
      "midi": 67,
      "hit": false,
      "t": 148588.1609999999,
      "d": 1058.823000000004,
      "v": 65
    },
    {
      "midi": 63,
      "hit": false,
      "t": 149646.9839999999,
      "d": 2599.9986999999965,
      "v": 52
    },
    {
      "midi": 67,
      "hit": false,
      "t": 149646.9839999999,
      "d": 2599.9986999999965,
      "v": 52
    },
    {
      "midi": 70,
      "hit": false,
      "t": 149646.9839999999,
      "d": 2599.9986999999965,
      "v": 52
    },
    {
      "midi": 72,
      "hit": false,
      "t": 149646.9839999999,
      "d": 2599.9986999999965,
      "v": 52
    },
    {
      "midi": 58,
      "hit": false,
      "t": 152470.5119999999,
      "d": 1394.116949999996,
      "v": 65
    },
    {
      "midi": 63,
      "hit": false,
      "t": 152470.5119999999,
      "d": 1394.116949999996,
      "v": 65
    },
    {
      "midi": 67,
      "hit": false,
      "t": 152470.5119999999,
      "d": 1394.116949999996,
      "v": 65
    },
    {
      "midi": 60,
      "hit": false,
      "t": 153882.2759999999,
      "d": 1394.116949999996,
      "v": 65
    },
    {
      "midi": 65,
      "hit": false,
      "t": 153882.2759999999,
      "d": 1394.116949999996,
      "v": 65
    },
    {
      "midi": 69,
      "hit": false,
      "t": 153882.2759999999,
      "d": 1394.116949999996,
      "v": 65
    },
    {
      "midi": 60,
      "hit": false,
      "t": 155294.0399999999,
      "d": 805.8819499999809,
      "v": 39
    },
    {
      "midi": 65,
      "hit": false,
      "t": 155294.0399999999,
      "d": 2399.998799999972,
      "v": 71
    },
    {
      "midi": 69,
      "hit": false,
      "t": 155294.0399999999,
      "d": 2399.998799999972,
      "v": 63
    },
    {
      "midi": 50,
      "hit": false,
      "t": 155646.98099999988,
      "d": 2123.5283499999787,
      "v": 71
    },
    {
      "midi": 53,
      "hit": false,
      "t": 155999.92199999987,
      "d": 423.52919999998994,
      "v": 60
    },
    {
      "midi": 57,
      "hit": false,
      "t": 156352.86299999987,
      "d": 1358.8228499999968,
      "v": 74
    },
    {
      "midi": 60,
      "hit": false,
      "t": 158117.56799999985,
      "d": 705.8820000000123,
      "v": 65
    },
    {
      "midi": 62,
      "hit": false,
      "t": 158117.56799999985,
      "d": 705.8820000000123,
      "v": 65
    },
    {
      "midi": 67,
      "hit": false,
      "t": 158117.56799999985,
      "d": 705.8820000000123,
      "v": 65
    },
    {
      "midi": 62,
      "hit": false,
      "t": 158823.44999999987,
      "d": 705.8820000000123,
      "v": 65
    },
    {
      "midi": 65,
      "hit": false,
      "t": 158823.44999999987,
      "d": 705.8820000000123,
      "v": 65
    },
    {
      "midi": 67,
      "hit": false,
      "t": 158823.44999999987,
      "d": 705.8820000000123,
      "v": 65
    },
    {
      "midi": 71,
      "hit": false,
      "t": 158823.44999999987,
      "d": 705.8820000000123,
      "v": 65
    },
    {
      "midi": 62,
      "hit": false,
      "t": 159529.33199999988,
      "d": 1394.116949999996,
      "v": 65
    },
    {
      "midi": 65,
      "hit": false,
      "t": 159529.33199999988,
      "d": 1394.116949999996,
      "v": 65
    },
    {
      "midi": 67,
      "hit": false,
      "t": 159529.33199999988,
      "d": 1394.116949999996,
      "v": 65
    },
    {
      "midi": 71,
      "hit": false,
      "t": 159529.33199999988,
      "d": 1394.116949999996,
      "v": 65
    },
    {
      "midi": 63,
      "hit": false,
      "t": 160941.09599999987,
      "d": 1394.116949999996,
      "v": 65
    },
    {
      "midi": 67,
      "hit": false,
      "t": 160941.09599999987,
      "d": 1394.116949999996,
      "v": 65
    },
    {
      "midi": 70,
      "hit": false,
      "t": 160941.09599999987,
      "d": 1394.116949999996,
      "v": 65
    },
    {
      "midi": 72,
      "hit": false,
      "t": 160941.09599999987,
      "d": 1394.116949999996,
      "v": 65
    },
    {
      "midi": 63,
      "hit": false,
      "t": 162352.85999999987,
      "d": 1394.116949999996,
      "v": 65
    },
    {
      "midi": 65,
      "hit": false,
      "t": 162352.85999999987,
      "d": 1394.116949999996,
      "v": 65
    },
    {
      "midi": 69,
      "hit": false,
      "t": 162352.85999999987,
      "d": 1394.116949999996,
      "v": 65
    },
    {
      "midi": 72,
      "hit": false,
      "t": 162352.85999999987,
      "d": 1394.116949999996,
      "v": 65
    },
    {
      "midi": 65,
      "hit": false,
      "t": 163764.62399999987,
      "d": 1394.116949999996,
      "v": 65
    },
    {
      "midi": 69,
      "hit": false,
      "t": 163764.62399999987,
      "d": 1394.116949999996,
      "v": 65
    },
    {
      "midi": 72,
      "hit": false,
      "t": 163764.62399999987,
      "d": 1394.116949999996,
      "v": 65
    },
    {
      "midi": 74,
      "hit": false,
      "t": 163764.62399999987,
      "d": 1394.116949999996,
      "v": 65
    },
    {
      "midi": 62,
      "hit": false,
      "t": 165176.38799999986,
      "d": 1394.116949999996,
      "v": 65
    },
    {
      "midi": 65,
      "hit": false,
      "t": 165176.38799999986,
      "d": 1394.116949999996,
      "v": 65
    },
    {
      "midi": 68,
      "hit": false,
      "t": 165176.38799999986,
      "d": 1394.116949999996,
      "v": 65
    },
    {
      "midi": 71,
      "hit": false,
      "t": 165176.38799999986,
      "d": 1394.116949999996,
      "v": 65
    },
    {
      "midi": 63,
      "hit": false,
      "t": 166588.15199999986,
      "d": 1394.116949999996,
      "v": 65
    },
    {
      "midi": 67,
      "hit": false,
      "t": 166588.15199999986,
      "d": 1394.116949999996,
      "v": 65
    },
    {
      "midi": 70,
      "hit": false,
      "t": 166588.15199999986,
      "d": 1394.116949999996,
      "v": 65
    },
    {
      "midi": 72,
      "hit": false,
      "t": 166588.15199999986,
      "d": 1394.116949999996,
      "v": 65
    },
    {
      "midi": 63,
      "hit": false,
      "t": 167999.91599999985,
      "d": 1394.116949999996,
      "v": 65
    },
    {
      "midi": 65,
      "hit": false,
      "t": 167999.91599999985,
      "d": 1394.116949999996,
      "v": 65
    },
    {
      "midi": 69,
      "hit": false,
      "t": 167999.91599999985,
      "d": 1394.116949999996,
      "v": 65
    },
    {
      "midi": 72,
      "hit": false,
      "t": 167999.91599999985,
      "d": 1394.116949999996,
      "v": 65
    },
    {
      "midi": 58,
      "hit": false,
      "t": 169411.67999999985,
      "d": 2599.9986999999965,
      "v": 52
    },
    {
      "midi": 62,
      "hit": false,
      "t": 169411.67999999985,
      "d": 2599.9986999999965,
      "v": 52
    },
    {
      "midi": 65,
      "hit": false,
      "t": 169411.67999999985,
      "d": 2599.9986999999965,
      "v": 52
    },
    {
      "midi": 60,
      "hit": false,
      "t": 172235.20799999984,
      "d": 329.4115999999922,
      "v": 74
    },
    {
      "midi": 46,
      "hit": false,
      "t": 172235.20799999984,
      "d": 2823.527999999962,
      "v": 58
    },
    {
      "midi": 65,
      "hit": false,
      "t": 172235.20799999984,
      "d": 2823.527999999962,
      "v": 81
    },
    {
      "midi": 62,
      "hit": false,
      "t": 172588.14899999983,
      "d": 423.52919999998994,
      "v": 65
    },
    {
      "midi": 60,
      "hit": false,
      "t": 172941.08999999982,
      "d": 376.47039999999106,
      "v": 63
    },
    {
      "midi": 58,
      "hit": false,
      "t": 173317.5603999998,
      "d": 1741.1755999999878,
      "v": 84
    },
    {
      "midi": 65,
      "hit": false,
      "t": 175058.7359999998,
      "d": 805.8819499999809,
      "v": 39
    },
    {
      "midi": 70,
      "hit": false,
      "t": 175058.7359999998,
      "d": 2399.998799999972,
      "v": 71
    },
    {
      "midi": 74,
      "hit": false,
      "t": 175058.7359999998,
      "d": 2399.998799999972,
      "v": 63
    },
    {
      "midi": 46,
      "hit": false,
      "t": 175411.6769999998,
      "d": 2123.5283499999787,
      "v": 71
    },
    {
      "midi": 58,
      "hit": false,
      "t": 175764.61799999978,
      "d": 423.52919999998994,
      "v": 60
    },
    {
      "midi": 62,
      "hit": false,
      "t": 176117.55899999978,
      "d": 1358.8228499999968,
      "v": 74
    }
  ]
}