{
  "jsonPath": "World/Australian Dance/Jason Donovan/happy-together.json",
  "path": "World\\Australian Dance\\Jason Donovan\\Happy Together.mid",
  "name": "Happy Together",
  "difficulty": "Advanced",
  "bpm": 120,
  "notes": [
    {
      "midi": 47,
      "hit": false,
      "t": 5882.345,
      "d": 152.31071874999998,
      "v": 100
    },
    {
      "midi": 52,
      "hit": false,
      "t": 6050.412,
      "d": 152.31071874999998,
      "v": 100
    },
    {
      "midi": 52,
      "hit": false,
      "t": 6386.546,
      "d": 467.43634374999965,
      "v": 100
    },
    {
      "midi": 64,
      "hit": false,
      "t": 6554.613,
      "d": 299.36934374999964,
      "v": 85
    },
    {
      "midi": 67,
      "hit": false,
      "t": 6554.613,
      "d": 299.36934374999964,
      "v": 85
    },
    {
      "midi": 71,
      "hit": false,
      "t": 6554.613,
      "d": 299.36934374999964,
      "v": 85
    },
    {
      "midi": 59,
      "hit": false,
      "t": 6554.613,
      "d": 299.36934374999964,
      "v": 60
    },
    {
      "midi": 64,
      "hit": false,
      "t": 6554.613,
      "d": 299.36934374999964,
      "v": 60
    },
    {
      "midi": 67,
      "hit": false,
      "t": 6554.613,
      "d": 299.36934374999964,
      "v": 60
    },
    {
      "midi": 52,
      "hit": false,
      "t": 6890.747,
      "d": 467.43634374999965,
      "v": 100
    },
    {
      "midi": 64,
      "hit": false,
      "t": 7058.814,
      "d": 299.36934374999964,
      "v": 85
    },
    {
      "midi": 66,
      "hit": false,
      "t": 7058.814,
      "d": 299.36934374999964,
      "v": 85
    },
    {
      "midi": 71,
      "hit": false,
      "t": 7058.814,
      "d": 299.36934374999964,
      "v": 85
    },
    {
      "midi": 59,
      "hit": false,
      "t": 7058.814,
      "d": 299.36934374999964,
      "v": 60
    },
    {
      "midi": 64,
      "hit": false,
      "t": 7058.814,
      "d": 299.36934374999964,
      "v": 60
    },
    {
      "midi": 66,
      "hit": false,
      "t": 7058.814,
      "d": 299.36934374999964,
      "v": 60
    },
    {
      "midi": 52,
      "hit": false,
      "t": 7394.948,
      "d": 309.87353125000027,
      "v": 100
    },
    {
      "midi": 64,
      "hit": false,
      "t": 7394.948,
      "d": 598.7386875000002,
      "v": 85
    },
    {
      "midi": 67,
      "hit": false,
      "t": 7394.948,
      "d": 609.2428749999999,
      "v": 85
    },
    {
      "midi": 71,
      "hit": false,
      "t": 7394.948,
      "d": 609.2428749999999,
      "v": 85
    },
    {
      "midi": 59,
      "hit": false,
      "t": 7394.948,
      "d": 577.7303124999999,
      "v": 60
    },
    {
      "midi": 64,
      "hit": false,
      "t": 7394.948,
      "d": 588.2344999999996,
      "v": 60
    },
    {
      "midi": 67,
      "hit": false,
      "t": 7394.948,
      "d": 588.2344999999996,
      "v": 60
    },
    {
      "midi": 47,
      "hit": false,
      "t": 7899.149,
      "d": 152.31071874999998,
      "v": 100
    },
    {
      "midi": 52,
      "hit": false,
      "t": 8067.216,
      "d": 152.3107187500009,
      "v": 100
    },
    {
      "midi": 52,
      "hit": false,
      "t": 8403.35,
      "d": 467.43634375000147,
      "v": 100
    },
    {
      "midi": 55,
      "hit": false,
      "t": 8571.417,
      "d": 299.36934375000055,
      "v": 60
    },
    {
      "midi": 59,
      "hit": false,
      "t": 8571.417,
      "d": 299.36934375000055,
      "v": 60
    },
    {
      "midi": 62,
      "hit": false,
      "t": 8571.417,
      "d": 299.36934375000055,
      "v": 60
    },
    {
      "midi": 62,
      "hit": false,
      "t": 8571.417000000001,
      "d": 299.36934375000055,
      "v": 85
    },
    {
      "midi": 67,
      "hit": false,
      "t": 8571.417000000001,
      "d": 299.36934375000055,
      "v": 85
    },
    {
      "midi": 71,
      "hit": false,
      "t": 8571.417000000001,
      "d": 299.36934375000055,
      "v": 85
    },
    {
      "midi": 52,
      "hit": false,
      "t": 8907.551000000001,
      "d": 467.43634375000147,
      "v": 100
    },
    {
      "midi": 55,
      "hit": false,
      "t": 9075.618,
      "d": 299.36934375000055,
      "v": 60
    },
    {
      "midi": 57,
      "hit": false,
      "t": 9075.618,
      "d": 299.36934375000055,
      "v": 60
    },
    {
      "midi": 62,
      "hit": false,
      "t": 9075.618,
      "d": 299.36934375000055,
      "v": 60
    },
    {
      "midi": 62,
      "hit": false,
      "t": 9075.618000000002,
      "d": 299.36934375000055,
      "v": 85
    },
    {
      "midi": 67,
      "hit": false,
      "t": 9075.618000000002,
      "d": 299.36934375000055,
      "v": 85
    },
    {
      "midi": 69,
      "hit": false,
      "t": 9075.618000000002,
      "d": 299.36934375000055,
      "v": 85
    },
    {
      "midi": 55,
      "hit": false,
      "t": 9411.752,
      "d": 635.5033437500006,
      "v": 60
    },
    {
      "midi": 59,
      "hit": false,
      "t": 9411.752,
      "d": 635.5033437500006,
      "v": 60
    },
    {
      "midi": 64,
      "hit": false,
      "t": 9411.752,
      "d": 635.5033437500006,
      "v": 60
    },
    {
      "midi": 52,
      "hit": false,
      "t": 9411.752000000002,
      "d": 309.87353124999936,
      "v": 100
    },
    {
      "midi": 64,
      "hit": false,
      "t": 9411.752000000002,
      "d": 635.5033437499987,
      "v": 85
    },
    {
      "midi": 67,
      "hit": false,
      "t": 9411.752000000002,
      "d": 635.5033437499987,
      "v": 85
    },
    {
      "midi": 71,
      "hit": false,
      "t": 9411.752000000002,
      "d": 635.5033437499987,
      "v": 85
    },
    {
      "midi": 47,
      "hit": false,
      "t": 9915.953000000001,
      "d": 152.31071874999907,
      "v": 100
    },
    {
      "midi": 52,
      "hit": false,
      "t": 10084.02,
      "d": 309.87353124999936,
      "v": 100
    },
    {
      "midi": 52,
      "hit": false,
      "t": 10420.154,
      "d": 467.43634375000147,
      "v": 100
    },
    {
      "midi": 64,
      "hit": false,
      "t": 10588.221000000001,
      "d": 299.36934375000055,
      "v": 85
    },
    {
      "midi": 67,
      "hit": false,
      "t": 10588.221000000001,
      "d": 299.36934375000055,
      "v": 85
    },
    {
      "midi": 71,
      "hit": false,
      "t": 10588.221000000001,
      "d": 299.36934375000055,
      "v": 85
    },
    {
      "midi": 59,
      "hit": false,
      "t": 10588.221000000001,
      "d": 299.36934375000055,
      "v": 60
    },
    {
      "midi": 64,
      "hit": false,
      "t": 10588.221000000001,
      "d": 299.36934375000055,
      "v": 60
    },
    {
      "midi": 67,
      "hit": false,
      "t": 10588.221000000001,
      "d": 299.36934375000055,
      "v": 60
    },
    {
      "midi": 52,
      "hit": false,
      "t": 10924.355000000001,
      "d": 309.8735312500012,
      "v": 100
    },
    {
      "midi": 64,
      "hit": false,
      "t": 11092.422000000002,
      "d": 299.36934375000055,
      "v": 85
    },
    {
      "midi": 66,
      "hit": false,
      "t": 11092.422000000002,
      "d": 299.36934375000055,
      "v": 85
    },
    {
      "midi": 71,
      "hit": false,
      "t": 11092.422000000002,
      "d": 299.36934375000055,
      "v": 85
    },
    {
      "midi": 59,
      "hit": false,
      "t": 11092.422000000002,
      "d": 299.36934375000055,
      "v": 60
    },
    {
      "midi": 64,
      "hit": false,
      "t": 11092.422000000002,
      "d": 299.36934375000055,
      "v": 60
    },
    {
      "midi": 66,
      "hit": false,
      "t": 11092.422000000002,
      "d": 299.36934375000055,
      "v": 60
    },
    {
      "midi": 52,
      "hit": false,
      "t": 11428.556000000002,
      "d": 309.87353124999936,
      "v": 100
    },
    {
      "midi": 71,
      "hit": false,
      "t": 11428.556000000002,
      "d": 598.7386874999993,
      "v": 85
    },
    {
      "midi": 67,
      "hit": false,
      "t": 11428.556000000002,
      "d": 609.2428749999999,
      "v": 85
    },
    {
      "midi": 64,
      "hit": false,
      "t": 11428.556000000002,
      "d": 619.7470625000005,
      "v": 85
    },
    {
      "midi": 59,
      "hit": false,
      "t": 11428.556000000002,
      "d": 803.5703437499997,
      "v": 60
    },
    {
      "midi": 64,
      "hit": false,
      "t": 11428.556000000002,
      "d": 803.5703437499997,
      "v": 60
    },
    {
      "midi": 67,
      "hit": false,
      "t": 11428.556000000002,
      "d": 803.5703437499997,
      "v": 60
    },
    {
      "midi": 47,
      "hit": false,
      "t": 11932.757000000001,
      "d": 152.3107187500009,
      "v": 100
    },
    {
      "midi": 52,
      "hit": false,
      "t": 12100.824000000002,
      "d": 152.3107187500009,
      "v": 100
    },
    {
      "midi": 52,
      "hit": false,
      "t": 12436.958000000002,
      "d": 467.43634374999965,
      "v": 100
    },
    {
      "midi": 62,
      "hit": false,
      "t": 12605.025000000001,
      "d": 299.36934375000055,
      "v": 85
    },
    {
      "midi": 67,
      "hit": false,
      "t": 12605.025000000001,
      "d": 299.36934375000055,
      "v": 85
    },
    {
      "midi": 71,
      "hit": false,
      "t": 12605.025000000001,
      "d": 299.36934375000055,
      "v": 85
    },
    {
      "midi": 55,
      "hit": false,
      "t": 12605.025000000001,
      "d": 299.36934375000055,
      "v": 60
    },
    {
      "midi": 59,
      "hit": false,
      "t": 12605.025000000001,
      "d": 299.36934375000055,
      "v": 60
    },
    {
      "midi": 62,
      "hit": false,
      "t": 12605.025000000001,
      "d": 299.36934375000055,
      "v": 60
    },
    {
      "midi": 52,
      "hit": false,
      "t": 12941.159000000001,
      "d": 309.8735312500012,
      "v": 100
    },
    {
      "midi": 62,
      "hit": false,
      "t": 13109.226000000002,
      "d": 299.36934375000055,
      "v": 85
    },
    {
      "midi": 67,
      "hit": false,
      "t": 13109.226000000002,
      "d": 299.36934375000055,
      "v": 85
    },
    {
      "midi": 69,
      "hit": false,
      "t": 13109.226000000002,
      "d": 299.36934375000055,
      "v": 85
    },
    {
      "midi": 55,
      "hit": false,
      "t": 13109.226000000002,
      "d": 299.36934375000055,
      "v": 60
    },
    {
      "midi": 57,
      "hit": false,
      "t": 13109.226000000002,
      "d": 299.36934375000055,
      "v": 60
    },
    {
      "midi": 62,
      "hit": false,
      "t": 13109.226000000002,
      "d": 299.36934375000055,
      "v": 60
    },
    {
      "midi": 52,
      "hit": false,
      "t": 13445.360000000002,
      "d": 467.43634374999965,
      "v": 100
    },
    {
      "midi": 64,
      "hit": false,
      "t": 13445.360000000002,
      "d": 635.5033437499987,
      "v": 85
    },
    {
      "midi": 67,
      "hit": false,
      "t": 13445.360000000002,
      "d": 635.5033437499987,
      "v": 85
    },
    {
      "midi": 71,
      "hit": false,
      "t": 13445.360000000002,
      "d": 635.5033437499987,
      "v": 85
    },
    {
      "midi": 55,
      "hit": false,
      "t": 13445.360000000002,
      "d": 635.5033437500006,
      "v": 60
    },
    {
      "midi": 59,
      "hit": false,
      "t": 13445.360000000002,
      "d": 635.5033437500006,
      "v": 60
    },
    {
      "midi": 64,
      "hit": false,
      "t": 13445.360000000002,
      "d": 635.5033437500006,
      "v": 60
    },
    {
      "midi": 47,
      "hit": false,
      "t": 13949.561000000002,
      "d": 152.31071874999907,
      "v": 100
    },
    {
      "midi": 52,
      "hit": false,
      "t": 14117.628,
      "d": 152.3107187500009,
      "v": 100
    },
    {
      "midi": 52,
      "hit": false,
      "t": 14453.762,
      "d": 467.43634375000147,
      "v": 100
    },
    {
      "midi": 64,
      "hit": false,
      "t": 14621.829000000002,
      "d": 252.10050000000047,
      "v": 85
    },
    {
      "midi": 67,
      "hit": false,
      "t": 14621.829000000002,
      "d": 252.10050000000047,
      "v": 85
    },
    {
      "midi": 71,
      "hit": false,
      "t": 14621.829000000002,
      "d": 252.10050000000047,
      "v": 85
    },
    {
      "midi": 59,
      "hit": false,
      "t": 14621.829000000003,
      "d": 299.36934375000055,
      "v": 60
    },
    {
      "midi": 64,
      "hit": false,
      "t": 14621.829000000003,
      "d": 299.36934375000055,
      "v": 60
    },
    {
      "midi": 67,
      "hit": false,
      "t": 14621.829000000003,
      "d": 299.36934375000055,
      "v": 60
    },
    {
      "midi": 52,
      "hit": false,
      "t": 14957.963000000002,
      "d": 309.8735312500012,
      "v": 100
    },
    {
      "midi": 64,
      "hit": false,
      "t": 15126.030000000002,
      "d": 252.10050000000047,
      "v": 85
    },
    {
      "midi": 66,
      "hit": false,
      "t": 15126.030000000002,
      "d": 252.10050000000047,
      "v": 85
    },
    {
      "midi": 71,
      "hit": false,
      "t": 15126.030000000002,
      "d": 252.10050000000047,
      "v": 85
    },
    {
      "midi": 59,
      "hit": false,
      "t": 15126.030000000004,
      "d": 299.36934375000055,
      "v": 60
    },
    {
      "midi": 64,
      "hit": false,
      "t": 15126.030000000004,
      "d": 299.36934375000055,
      "v": 60
    },
    {
      "midi": 66,
      "hit": false,
      "t": 15126.030000000004,
      "d": 299.36934375000055,
      "v": 60
    },
    {
      "midi": 52,
      "hit": false,
      "t": 15462.164000000002,
      "d": 467.43634374999965,
      "v": 100
    },
    {
      "midi": 64,
      "hit": false,
      "t": 15462.164000000002,
      "d": 561.9740312499998,
      "v": 85
    },
    {
      "midi": 67,
      "hit": false,
      "t": 15462.164000000002,
      "d": 561.9740312499998,
      "v": 85
    },
    {
      "midi": 71,
      "hit": false,
      "t": 15462.164000000002,
      "d": 561.9740312499998,
      "v": 85
    },
    {
      "midi": 59,
      "hit": false,
      "t": 15462.164000000004,
      "d": 803.5703437499997,
      "v": 60
    },
    {
      "midi": 64,
      "hit": false,
      "t": 15462.164000000004,
      "d": 803.5703437499997,
      "v": 60
    },
    {
      "midi": 67,
      "hit": false,
      "t": 15462.164000000004,
      "d": 803.5703437499997,
      "v": 60
    },
    {
      "midi": 47,
      "hit": false,
      "t": 15966.365000000002,
      "d": 152.3107187500009,
      "v": 100
    },
    {
      "midi": 52,
      "hit": false,
      "t": 16134.432000000003,
      "d": 152.3107187500009,
      "v": 100
    },
    {
      "midi": 52,
      "hit": false,
      "t": 16470.566000000003,
      "d": 309.87353124999936,
      "v": 100
    },
    {
      "midi": 64,
      "hit": false,
      "t": 16638.633,
      "d": 252.10050000000047,
      "v": 85
    },
    {
      "midi": 67,
      "hit": false,
      "t": 16638.633,
      "d": 252.10050000000047,
      "v": 85
    },
    {
      "midi": 71,
      "hit": false,
      "t": 16638.633,
      "d": 252.10050000000047,
      "v": 85
    },
    {
      "midi": 59,
      "hit": false,
      "t": 16638.633000000005,
      "d": 299.36934375000055,
      "v": 60
    },
    {
      "midi": 64,
      "hit": false,
      "t": 16638.633000000005,
      "d": 299.36934375000055,
      "v": 60
    },
    {
      "midi": 67,
      "hit": false,
      "t": 16638.633000000005,
      "d": 299.36934375000055,
      "v": 60
    },
    {
      "midi": 52,
      "hit": false,
      "t": 16974.767000000003,
      "d": 309.87353124999936,
      "v": 100
    },
    {
      "midi": 64,
      "hit": false,
      "t": 17142.834000000003,
      "d": 252.10050000000047,
      "v": 85
    },
    {
      "midi": 66,
      "hit": false,
      "t": 17142.834000000003,
      "d": 252.10050000000047,
      "v": 85
    },
    {
      "midi": 71,
      "hit": false,
      "t": 17142.834000000003,
      "d": 252.10050000000047,
      "v": 85
    },
    {
      "midi": 59,
      "hit": false,
      "t": 17142.834000000006,
      "d": 299.36934375000055,
      "v": 60
    },
    {
      "midi": 64,
      "hit": false,
      "t": 17142.834000000006,
      "d": 299.36934375000055,
      "v": 60
    },
    {
      "midi": 66,
      "hit": false,
      "t": 17142.834000000006,
      "d": 299.36934375000055,
      "v": 60
    },
    {
      "midi": 52,
      "hit": false,
      "t": 17478.968000000004,
      "d": 309.87353124999936,
      "v": 100
    },
    {
      "midi": 64,
      "hit": false,
      "t": 17478.968000000004,
      "d": 561.9740312499998,
      "v": 85
    },
    {
      "midi": 67,
      "hit": false,
      "t": 17478.968000000004,
      "d": 561.9740312499998,
      "v": 85
    },
    {
      "midi": 71,
      "hit": false,
      "t": 17478.968000000004,
      "d": 561.9740312499998,
      "v": 85
    },
    {
      "midi": 55,
      "hit": false,
      "t": 17478.968000000008,
      "d": 635.5033437499987,
      "v": 60
    },
    {
      "midi": 59,
      "hit": false,
      "t": 17478.968000000008,
      "d": 635.5033437499987,
      "v": 60
    },
    {
      "midi": 64,
      "hit": false,
      "t": 17478.968000000008,
      "d": 635.5033437499987,
      "v": 60
    },
    {
      "midi": 47,
      "hit": false,
      "t": 17983.169000000005,
      "d": 152.31071874999907,
      "v": 100
    },
    {
      "midi": 50,
      "hit": false,
      "t": 18151.236000000004,
      "d": 152.31071874999907,
      "v": 100
    },
    {
      "midi": 50,
      "hit": false,
      "t": 18487.370000000003,
      "d": 309.87353124999936,
      "v": 100
    },
    {
      "midi": 62,
      "hit": false,
      "t": 18655.437,
      "d": 252.10050000000047,
      "v": 85
    },
    {
      "midi": 66,
      "hit": false,
      "t": 18655.437,
      "d": 252.10050000000047,
      "v": 85
    },
    {
      "midi": 69,
      "hit": false,
      "t": 18655.437,
      "d": 252.10050000000047,
      "v": 85
    },
    {
      "midi": 57,
      "hit": false,
      "t": 18655.437000000005,
      "d": 299.36934375000055,
      "v": 60
    },
    {
      "midi": 62,
      "hit": false,
      "t": 18655.437000000005,
      "d": 299.36934375000055,
      "v": 60
    },
    {
      "midi": 66,
      "hit": false,
      "t": 18655.437000000005,
      "d": 299.36934375000055,
      "v": 60
    },
    {
      "midi": 50,
      "hit": false,
      "t": 18991.571000000004,
      "d": 309.87353124999936,
      "v": 100
    },
    {
      "midi": 62,
      "hit": false,
      "t": 19159.638000000003,
      "d": 252.10050000000047,
      "v": 85
    },
    {
      "midi": 64,
      "hit": false,
      "t": 19159.638000000003,
      "d": 252.10050000000047,
      "v": 85
    },
    {
      "midi": 69,
      "hit": false,
      "t": 19159.638000000003,
      "d": 252.10050000000047,
      "v": 85
    },
    {
      "midi": 57,
      "hit": false,
      "t": 19159.638000000006,
      "d": 299.36934375000055,
      "v": 60
    },
    {
      "midi": 62,
      "hit": false,
      "t": 19159.638000000006,
      "d": 299.36934375000055,
      "v": 60
    },
    {
      "midi": 64,
      "hit": false,
      "t": 19159.638000000006,
      "d": 299.36934375000055,
      "v": 60
    },
    {
      "midi": 50,
      "hit": false,
      "t": 19495.772000000004,
      "d": 467.43634374999965,
      "v": 100
    },
    {
      "midi": 62,
      "hit": false,
      "t": 19495.772000000004,
      "d": 561.9740312499998,
      "v": 85
    },
    {
      "midi": 66,
      "hit": false,
      "t": 19495.772000000004,
      "d": 561.9740312499998,
      "v": 85
    },
    {
      "midi": 69,
      "hit": false,
      "t": 19495.772000000004,
      "d": 561.9740312499998,
      "v": 85
    },
    {
      "midi": 57,
      "hit": false,
      "t": 19495.772000000008,
      "d": 803.5703437500015,
      "v": 60
    },
    {
      "midi": 62,
      "hit": false,
      "t": 19495.772000000008,
      "d": 803.5703437500015,
      "v": 60
    },
    {
      "midi": 66,
      "hit": false,
      "t": 19495.772000000008,
      "d": 803.5703437500015,
      "v": 60
    },
    {
      "midi": 45,
      "hit": false,
      "t": 19999.973000000005,
      "d": 152.31071874999907,
      "v": 100
    },
    {
      "midi": 50,
      "hit": false,
      "t": 20168.040000000005,
      "d": 309.87353124999936,
      "v": 100
    },
    {
      "midi": 50,
      "hit": false,
      "t": 20504.174000000003,
      "d": 309.87353124999936,
      "v": 100
    },
    {
      "midi": 62,
      "hit": false,
      "t": 20672.241,
      "d": 252.10050000000047,
      "v": 85
    },
    {
      "midi": 66,
      "hit": false,
      "t": 20672.241,
      "d": 252.10050000000047,
      "v": 85
    },
    {
      "midi": 69,
      "hit": false,
      "t": 20672.241,
      "d": 252.10050000000047,
      "v": 85
    },
    {
      "midi": 57,
      "hit": false,
      "t": 20672.24100000001,
      "d": 299.36934375000055,
      "v": 60
    },
    {
      "midi": 62,
      "hit": false,
      "t": 20672.24100000001,
      "d": 299.36934375000055,
      "v": 60
    },
    {
      "midi": 66,
      "hit": false,
      "t": 20672.24100000001,
      "d": 299.36934375000055,
      "v": 60
    },
    {
      "midi": 50,
      "hit": false,
      "t": 21008.375000000004,
      "d": 309.87353124999936,
      "v": 100
    },
    {
      "midi": 62,
      "hit": false,
      "t": 21176.442000000003,
      "d": 252.10050000000047,
      "v": 85
    },
    {
      "midi": 64,
      "hit": false,
      "t": 21176.442000000003,
      "d": 252.10050000000047,
      "v": 85
    },
    {
      "midi": 69,
      "hit": false,
      "t": 21176.442000000003,
      "d": 252.10050000000047,
      "v": 85
    },
    {
      "midi": 57,
      "hit": false,
      "t": 21176.44200000001,
      "d": 299.36934375000055,
      "v": 60
    },
    {
      "midi": 62,
      "hit": false,
      "t": 21176.44200000001,
      "d": 299.36934375000055,
      "v": 60
    },
    {
      "midi": 64,
      "hit": false,
      "t": 21176.44200000001,
      "d": 299.36934375000055,
      "v": 60
    },
    {
      "midi": 50,
      "hit": false,
      "t": 21512.576000000005,
      "d": 309.87353124999936,
      "v": 100
    },
    {
      "midi": 62,
      "hit": false,
      "t": 21512.576000000005,
      "d": 561.9740312499998,
      "v": 85
    },
    {
      "midi": 66,
      "hit": false,
      "t": 21512.576000000005,
      "d": 561.9740312499998,
      "v": 85
    },
    {
      "midi": 69,
      "hit": false,
      "t": 21512.576000000005,
      "d": 561.9740312499998,
      "v": 85
    },
    {
      "midi": 54,
      "hit": false,
      "t": 21512.576000000012,
      "d": 635.5033437499987,
      "v": 60
    },
    {
      "midi": 57,
      "hit": false,
      "t": 21512.576000000012,
      "d": 635.5033437499987,
      "v": 60
    },
    {
      "midi": 62,
      "hit": false,
      "t": 21512.576000000012,
      "d": 635.5033437499987,
      "v": 60
    },
    {
      "midi": 45,
      "hit": false,
      "t": 22016.777000000006,
      "d": 152.31071874999907,
      "v": 100
    },
    {
      "midi": 48,
      "hit": false,
      "t": 22184.844000000005,
      "d": 152.31071874999907,
      "v": 100
    },
    {
      "midi": 48,
      "hit": false,
      "t": 22520.978000000003,
      "d": 309.87353124999936,
      "v": 100
    },
    {
      "midi": 60,
      "hit": false,
      "t": 22689.045000000002,
      "d": 252.10050000000047,
      "v": 85
    },
    {
      "midi": 64,
      "hit": false,
      "t": 22689.045000000002,
      "d": 252.10050000000047,
      "v": 85
    },
    {
      "midi": 67,
      "hit": false,
      "t": 22689.045000000002,
      "d": 252.10050000000047,
      "v": 85
    },
    {
      "midi": 55,
      "hit": false,
      "t": 22689.04500000001,
      "d": 299.36934375000055,
      "v": 60
    },
    {
      "midi": 60,
      "hit": false,
      "t": 22689.04500000001,
      "d": 299.36934375000055,
      "v": 60
    },
    {
      "midi": 64,
      "hit": false,
      "t": 22689.04500000001,
      "d": 299.36934375000055,
      "v": 60
    },
    {
      "midi": 48,
      "hit": false,
      "t": 23025.179000000004,
      "d": 309.87353124999936,
      "v": 100
    },
    {
      "midi": 60,
      "hit": false,
      "t": 23193.246000000003,
      "d": 252.10050000000047,
      "v": 85
    },
    {
      "midi": 62,
      "hit": false,
      "t": 23193.246000000003,
      "d": 252.10050000000047,
      "v": 85
    },
    {
      "midi": 67,
      "hit": false,
      "t": 23193.246000000003,
      "d": 252.10050000000047,
      "v": 85
    },
    {
      "midi": 55,
      "hit": false,
      "t": 23193.24600000001,
      "d": 299.36934375000055,
      "v": 60
    },
    {
      "midi": 60,
      "hit": false,
      "t": 23193.24600000001,
      "d": 299.36934375000055,
      "v": 60
    },
    {
      "midi": 62,
      "hit": false,
      "t": 23193.24600000001,
      "d": 299.36934375000055,
      "v": 60
    },
    {
      "midi": 48,
      "hit": false,
      "t": 23529.380000000005,
      "d": 309.87353124999936,
      "v": 100
    },
    {
      "midi": 60,
      "hit": false,
      "t": 23529.380000000005,
      "d": 561.9740312499998,
      "v": 85
    },
    {
      "midi": 64,
      "hit": false,
      "t": 23529.380000000005,
      "d": 561.9740312499998,
      "v": 85
    },
    {
      "midi": 67,
      "hit": false,
      "t": 23529.380000000005,
      "d": 561.9740312499998,
      "v": 85
    },
    {
      "midi": 55,
      "hit": false,
      "t": 23529.380000000012,
      "d": 803.5703437500015,
      "v": 60
    },
    {
      "midi": 60,
      "hit": false,
      "t": 23529.380000000012,
      "d": 803.5703437500015,
      "v": 60
    },
    {
      "midi": 64,
      "hit": false,
      "t": 23529.380000000012,
      "d": 803.5703437500015,
      "v": 60
    },
    {
      "midi": 43,
      "hit": false,
      "t": 24033.581000000006,
      "d": 152.31071874999907,
      "v": 100
    },
    {
      "midi": 48,
      "hit": false,
      "t": 24201.648000000005,
      "d": 309.87353124999936,
      "v": 100
    },
    {
      "midi": 48,
      "hit": false,
      "t": 24537.782000000003,
      "d": 309.87353124999936,
      "v": 100
    },
    {
      "midi": 60,
      "hit": false,
      "t": 24705.849000000002,
      "d": 252.10050000000047,
      "v": 85
    },
    {
      "midi": 64,
      "hit": false,
      "t": 24705.849000000002,
      "d": 252.10050000000047,
      "v": 85
    },
    {
      "midi": 67,
      "hit": false,
      "t": 24705.849000000002,
      "d": 252.10050000000047,
      "v": 85
    },
    {
      "midi": 55,
      "hit": false,
      "t": 24705.849000000013,
      "d": 299.36934375000055,
      "v": 60
    },
    {
      "midi": 60,
      "hit": false,
      "t": 24705.849000000013,
      "d": 299.36934375000055,
      "v": 60
    },
    {
      "midi": 64,
      "hit": false,
      "t": 24705.849000000013,
      "d": 299.36934375000055,
      "v": 60
    },
    {
      "midi": 48,
      "hit": false,
      "t": 25041.983000000004,
      "d": 309.87353124999936,
      "v": 100
    },
    {
      "midi": 60,
      "hit": false,
      "t": 25210.050000000003,
      "d": 252.10050000000047,
      "v": 85
    },
    {
      "midi": 62,
      "hit": false,
      "t": 25210.050000000003,
      "d": 252.10050000000047,
      "v": 85
    },
    {
      "midi": 67,
      "hit": false,
      "t": 25210.050000000003,
      "d": 252.10050000000047,
      "v": 85
    },
    {
      "midi": 55,
      "hit": false,
      "t": 25210.050000000014,
      "d": 299.36934375000055,
      "v": 60
    },
    {
      "midi": 60,
      "hit": false,
      "t": 25210.050000000014,
      "d": 299.36934375000055,
      "v": 60
    },
    {
      "midi": 62,
      "hit": false,
      "t": 25210.050000000014,
      "d": 299.36934375000055,
      "v": 60
    },
    {
      "midi": 48,
      "hit": false,
      "t": 25546.184000000005,
      "d": 309.87353124999936,
      "v": 100
    },
    {
      "midi": 60,
      "hit": false,
      "t": 25546.184000000005,
      "d": 561.9740312499998,
      "v": 85
    },
    {
      "midi": 64,
      "hit": false,
      "t": 25546.184000000005,
      "d": 561.9740312499998,
      "v": 85
    },
    {
      "midi": 67,
      "hit": false,
      "t": 25546.184000000005,
      "d": 561.9740312499998,
      "v": 85
    },
    {
      "midi": 52,
      "hit": false,
      "t": 25546.184000000016,
      "d": 635.5033437499987,
      "v": 60
    },
    {
      "midi": 55,
      "hit": false,
      "t": 25546.184000000016,
      "d": 635.5033437499987,
      "v": 60
    },
    {
      "midi": 60,
      "hit": false,
      "t": 25546.184000000016,
      "d": 635.5033437499987,
      "v": 60
    },
    {
      "midi": 43,
      "hit": false,
      "t": 26050.385000000006,
      "d": 152.31071874999907,
      "v": 100
    },
    {
      "midi": 47,
      "hit": false,
      "t": 26218.452000000005,
      "d": 309.87353124999936,
      "v": 100
    },
    {
      "midi": 47,
      "hit": false,
      "t": 26554.586000000003,
      "d": 309.87353124999936,
      "v": 100
    },
    {
      "midi": 63,
      "hit": false,
      "t": 26722.653000000002,
      "d": 467.4363437500033,
      "v": 85
    },
    {
      "midi": 66,
      "hit": false,
      "t": 26722.653000000002,
      "d": 467.4363437500033,
      "v": 85
    },
    {
      "midi": 71,
      "hit": false,
      "t": 26722.653000000002,
      "d": 467.4363437500033,
      "v": 85
    },
    {
      "midi": 54,
      "hit": false,
      "t": 26722.653000000013,
      "d": 467.43634374999965,
      "v": 60
    },
    {
      "midi": 59,
      "hit": false,
      "t": 26722.653000000013,
      "d": 467.43634374999965,
      "v": 60
    },
    {
      "midi": 63,
      "hit": false,
      "t": 26722.653000000013,
      "d": 467.43634374999965,
      "v": 60
    },
    {
      "midi": 47,
      "hit": false,
      "t": 27058.787000000004,
      "d": 309.873531250003,
      "v": 100
    },
    {
      "midi": 61,
      "hit": false,
      "t": 27226.854000000007,
      "d": 252.10050000000047,
      "v": 85
    },
    {
      "midi": 66,
      "hit": false,
      "t": 27226.854000000007,
      "d": 252.10050000000047,
      "v": 85
    },
    {
      "midi": 71,
      "hit": false,
      "t": 27226.854000000007,
      "d": 252.10050000000047,
      "v": 85
    },
    {
      "midi": 54,
      "hit": false,
      "t": 27226.854000000014,
      "d": 299.36934375000055,
      "v": 60
    },
    {
      "midi": 59,
      "hit": false,
      "t": 27226.854000000014,
      "d": 299.36934375000055,
      "v": 60
    },
    {
      "midi": 61,
      "hit": false,
      "t": 27226.854000000014,
      "d": 299.36934375000055,
      "v": 60
    },
    {
      "midi": 47,
      "hit": false,
      "t": 27562.98800000001,
      "d": 309.87353124999936,
      "v": 100
    },
    {
      "midi": 63,
      "hit": false,
      "t": 27562.98800000001,
      "d": 561.9740312499998,
      "v": 85
    },
    {
      "midi": 66,
      "hit": false,
      "t": 27562.98800000001,
      "d": 561.9740312499998,
      "v": 85
    },
    {
      "midi": 71,
      "hit": false,
      "t": 27562.98800000001,
      "d": 561.9740312499998,
      "v": 85
    },
    {
      "midi": 54,
      "hit": false,
      "t": 27562.988000000016,
      "d": 803.5703437500015,
      "v": 60
    },
    {
      "midi": 59,
      "hit": false,
      "t": 27562.988000000016,
      "d": 803.5703437500015,
      "v": 60
    },
    {
      "midi": 63,
      "hit": false,
      "t": 27562.988000000016,
      "d": 803.5703437500015,
      "v": 60
    },
    {
      "midi": 47,
      "hit": false,
      "t": 28067.18900000001,
      "d": 152.31071874999907,
      "v": 100
    },
    {
      "midi": 47,
      "hit": false,
      "t": 28235.25600000001,
      "d": 309.87353124999936,
      "v": 100
    },
    {
      "midi": 47,
      "hit": false,
      "t": 28571.390000000007,
      "d": 152.31071874999907,
      "v": 100
    },
    {
      "midi": 47,
      "hit": false,
      "t": 28739.457000000006,
      "d": 309.87353124999936,
      "v": 100
    },
    {
      "midi": 63,
      "hit": false,
      "t": 28739.457000000006,
      "d": 467.43634374999965,
      "v": 85
    },
    {
      "midi": 66,
      "hit": false,
      "t": 28739.457000000006,
      "d": 467.43634374999965,
      "v": 85
    },
    {
      "midi": 71,
      "hit": false,
      "t": 28739.457000000006,
      "d": 467.43634374999965,
      "v": 85
    },
    {
      "midi": 54,
      "hit": false,
      "t": 28739.457000000017,
      "d": 467.43634374999965,
      "v": 60
    },
    {
      "midi": 59,
      "hit": false,
      "t": 28739.457000000017,
      "d": 467.43634374999965,
      "v": 60
    },
    {
      "midi": 63,
      "hit": false,
      "t": 28739.457000000017,
      "d": 467.43634374999965,
      "v": 60
    },
    {
      "midi": 47,
      "hit": false,
      "t": 29075.591000000004,
      "d": 152.3107187500027,
      "v": 100
    },
    {
      "midi": 49,
      "hit": false,
      "t": 29243.658000000007,
      "d": 309.87353124999936,
      "v": 100
    },
    {
      "midi": 61,
      "hit": false,
      "t": 29243.658000000007,
      "d": 467.43634374999965,
      "v": 85
    },
    {
      "midi": 64,
      "hit": false,
      "t": 29243.658000000007,
      "d": 467.43634374999965,
      "v": 85
    },
    {
      "midi": 71,
      "hit": false,
      "t": 29243.658000000007,
      "d": 467.43634374999965,
      "v": 85
    },
    {
      "midi": 59,
      "hit": false,
      "t": 29243.658000000018,
      "d": 467.43634374999965,
      "v": 60
    },
    {
      "midi": 61,
      "hit": false,
      "t": 29243.658000000018,
      "d": 467.43634374999965,
      "v": 60
    },
    {
      "midi": 64,
      "hit": false,
      "t": 29243.658000000018,
      "d": 467.43634374999965,
      "v": 60
    },
    {
      "midi": 49,
      "hit": false,
      "t": 29579.792000000005,
      "d": 152.3107187500027,
      "v": 100
    },
    {
      "midi": 51,
      "hit": false,
      "t": 29747.859000000008,
      "d": 309.87353124999936,
      "v": 100
    },
    {
      "midi": 63,
      "hit": false,
      "t": 29747.859000000008,
      "d": 467.43634374999965,
      "v": 85
    },
    {
      "midi": 66,
      "hit": false,
      "t": 29747.859000000008,
      "d": 467.43634374999965,
      "v": 85
    },
    {
      "midi": 71,
      "hit": false,
      "t": 29747.859000000008,
      "d": 467.43634374999965,
      "v": 85
    },
    {
      "midi": 59,
      "hit": false,
      "t": 29747.85900000002,
      "d": 467.43634374999965,
      "v": 60
    },
    {
      "midi": 63,
      "hit": false,
      "t": 29747.85900000002,
      "d": 467.43634374999965,
      "v": 60
    },
    {
      "midi": 66,
      "hit": false,
      "t": 29747.85900000002,
      "d": 467.43634374999965,
      "v": 60
    },
    {
      "midi": 51,
      "hit": false,
      "t": 30083.993000000006,
      "d": 152.3107187500027,
      "v": 100
    },
    {
      "midi": 52,
      "hit": false,
      "t": 30252.06000000001,
      "d": 152.31071874999907,
      "v": 100
    },
    {
      "midi": 52,
      "hit": false,
      "t": 30588.194000000007,
      "d": 467.43634374999965,
      "v": 100
    },
    {
      "midi": 64,
      "hit": false,
      "t": 30756.261000000006,
      "d": 252.10050000000047,
      "v": 85
    },
    {
      "midi": 67,
      "hit": false,
      "t": 30756.261000000006,
      "d": 252.10050000000047,
      "v": 85
    },
    {
      "midi": 71,
      "hit": false,
      "t": 30756.261000000006,
      "d": 252.10050000000047,
      "v": 85
    },
    {
      "midi": 59,
      "hit": false,
      "t": 30756.261000000017,
      "d": 299.36934375000055,
      "v": 60
    },
    {
      "midi": 64,
      "hit": false,
      "t": 30756.261000000017,
      "d": 299.36934375000055,
      "v": 60
    },
    {
      "midi": 67,
      "hit": false,
      "t": 30756.261000000017,
      "d": 299.36934375000055,
      "v": 60
    },
    {
      "midi": 52,
      "hit": false,
      "t": 31092.395000000008,
      "d": 309.87353124999936,
      "v": 100
    },
    {
      "midi": 64,
      "hit": false,
      "t": 31260.462000000007,
      "d": 252.10050000000047,
      "v": 85
    },
    {
      "midi": 66,
      "hit": false,
      "t": 31260.462000000007,
      "d": 252.10050000000047,
      "v": 85
    },
    {
      "midi": 71,
      "hit": false,
      "t": 31260.462000000007,
      "d": 252.10050000000047,
      "v": 85
    },
    {
      "midi": 59,
      "hit": false,
      "t": 31260.462000000018,
      "d": 299.36934375000055,
      "v": 60
    },
    {
      "midi": 64,
      "hit": false,
      "t": 31260.462000000018,
      "d": 299.36934375000055,
      "v": 60
    },
    {
      "midi": 66,
      "hit": false,
      "t": 31260.462000000018,
      "d": 299.36934375000055,
      "v": 60
    },
    {
      "midi": 52,
      "hit": false,
      "t": 31596.59600000001,
      "d": 467.43634374999965,
      "v": 100
    },
    {
      "midi": 64,
      "hit": false,
      "t": 31596.59600000001,
      "d": 561.9740312499998,
      "v": 85
    },
    {
      "midi": 67,
      "hit": false,
      "t": 31596.59600000001,
      "d": 561.9740312499998,
      "v": 85
    },
    {
      "midi": 71,
      "hit": false,
      "t": 31596.59600000001,
      "d": 561.9740312499998,
      "v": 85
    },
    {
      "midi": 59,
      "hit": false,
      "t": 31596.59600000002,
      "d": 803.5703437500015,
      "v": 60
    },
    {
      "midi": 64,
      "hit": false,
      "t": 31596.59600000002,
      "d": 803.5703437500015,
      "v": 60
    },
    {
      "midi": 67,
      "hit": false,
      "t": 31596.59600000002,
      "d": 803.5703437500015,
      "v": 60
    },
    {
      "midi": 47,
      "hit": false,
      "t": 32100.79700000001,
      "d": 152.31071874999907,
      "v": 100
    },
    {
      "midi": 52,
      "hit": false,
      "t": 32268.86400000001,
      "d": 152.31071874999907,
      "v": 100
    },
    {
      "midi": 52,
      "hit": false,
      "t": 32604.998000000007,
      "d": 309.87353124999936,
      "v": 100
    },
    {
      "midi": 64,
      "hit": false,
      "t": 32773.06500000001,
      "d": 252.1004999999932,
      "v": 85
    },
    {
      "midi": 67,
      "hit": false,
      "t": 32773.06500000001,
      "d": 252.1004999999932,
      "v": 85
    },
    {
      "midi": 71,
      "hit": false,
      "t": 32773.06500000001,
      "d": 252.1004999999932,
      "v": 85
    },
    {
      "midi": 59,
      "hit": false,
      "t": 32773.065000000024,
      "d": 299.3693437499969,
      "v": 60
    },
    {
      "midi": 64,
      "hit": false,
      "t": 32773.065000000024,
      "d": 299.3693437499969,
      "v": 60
    },
    {
      "midi": 67,
      "hit": false,
      "t": 32773.065000000024,
      "d": 299.3693437499969,
      "v": 60
    },
    {
      "midi": 52,
      "hit": false,
      "t": 33109.199,
      "d": 309.87353124999936,
      "v": 100
    },
    {
      "midi": 64,
      "hit": false,
      "t": 33277.266,
      "d": 252.1004999999932,
      "v": 85
    },
    {
      "midi": 66,
      "hit": false,
      "t": 33277.266,
      "d": 252.1004999999932,
      "v": 85
    },
    {
      "midi": 71,
      "hit": false,
      "t": 33277.266,
      "d": 252.1004999999932,
      "v": 85
    },
    {
      "midi": 59,
      "hit": false,
      "t": 33277.26600000002,
      "d": 299.3693437499969,
      "v": 60
    },
    {
      "midi": 64,
      "hit": false,
      "t": 33277.26600000002,
      "d": 299.3693437499969,
      "v": 60
    },
    {
      "midi": 66,
      "hit": false,
      "t": 33277.26600000002,
      "d": 299.3693437499969,
      "v": 60
    },
    {
      "midi": 52,
      "hit": false,
      "t": 33613.399999999994,
      "d": 309.87353124999936,
      "v": 100
    },
    {
      "midi": 64,
      "hit": false,
      "t": 33613.399999999994,
      "d": 561.9740312499998,
      "v": 85
    },
    {
      "midi": 67,
      "hit": false,
      "t": 33613.399999999994,
      "d": 561.9740312499998,
      "v": 85
    },
    {
      "midi": 71,
      "hit": false,
      "t": 33613.399999999994,
      "d": 561.9740312499998,
      "v": 85
    },
    {
      "midi": 55,
      "hit": false,
      "t": 33613.400000000016,
      "d": 635.5033437500024,
      "v": 60
    },
    {
      "midi": 59,
      "hit": false,
      "t": 33613.400000000016,
      "d": 635.5033437500024,
      "v": 60
    },
    {
      "midi": 64,
      "hit": false,
      "t": 33613.400000000016,
      "d": 635.5033437500024,
      "v": 60
    },
    {
      "midi": 47,
      "hit": false,
      "t": 34117.600999999995,
      "d": 152.31071874999907,
      "v": 100
    },
    {
      "midi": 50,
      "hit": false,
      "t": 34285.66799999999,
      "d": 152.31071874999907,
      "v": 100
    },
    {
      "midi": 50,
      "hit": false,
      "t": 34621.80199999999,
      "d": 309.87353124999936,
      "v": 100
    },
    {
      "midi": 62,
      "hit": false,
      "t": 34789.86899999999,
      "d": 252.1004999999932,
      "v": 85
    },
    {
      "midi": 66,
      "hit": false,
      "t": 34789.86899999999,
      "d": 252.1004999999932,
      "v": 85
    },
    {
      "midi": 69,
      "hit": false,
      "t": 34789.86899999999,
      "d": 252.1004999999932,
      "v": 85
    },
    {
      "midi": 57,
      "hit": false,
      "t": 34789.86900000002,
      "d": 299.3693437499969,
      "v": 60
    },
    {
      "midi": 62,
      "hit": false,
      "t": 34789.86900000002,
      "d": 299.3693437499969,
      "v": 60
    },
    {
      "midi": 66,
      "hit": false,
      "t": 34789.86900000002,
      "d": 299.3693437499969,
      "v": 60
    },
    {
      "midi": 50,
      "hit": false,
      "t": 35126.00299999998,
      "d": 309.87353124999936,
      "v": 100
    },
    {
      "midi": 62,
      "hit": false,
      "t": 35294.069999999985,
      "d": 252.1004999999932,
      "v": 85
    },
    {
      "midi": 64,
      "hit": false,
      "t": 35294.069999999985,
      "d": 252.1004999999932,
      "v": 85
    },
    {
      "midi": 69,
      "hit": false,
      "t": 35294.069999999985,
      "d": 252.1004999999932,
      "v": 85
    },
    {
      "midi": 57,
      "hit": false,
      "t": 35294.070000000014,
      "d": 299.3693437499969,
      "v": 60
    },
    {
      "midi": 62,
      "hit": false,
      "t": 35294.070000000014,
      "d": 299.3693437499969,
      "v": 60
    },
    {
      "midi": 64,
      "hit": false,
      "t": 35294.070000000014,
      "d": 299.3693437499969,
      "v": 60
    },
    {
      "midi": 50,
      "hit": false,
      "t": 35630.203999999976,
      "d": 467.43634374999965,
      "v": 100
    },
    {
      "midi": 62,
      "hit": false,
      "t": 35630.203999999976,
      "d": 561.9740312499998,
      "v": 85
    },
    {
      "midi": 66,
      "hit": false,
      "t": 35630.203999999976,
      "d": 561.9740312499998,
      "v": 85
    },
    {
      "midi": 69,
      "hit": false,
      "t": 35630.203999999976,
      "d": 561.9740312499998,
      "v": 85
    },
    {
      "midi": 57,
      "hit": false,
      "t": 35630.20400000001,
      "d": 803.5703437499978,
      "v": 60
    },
    {
      "midi": 62,
      "hit": false,
      "t": 35630.20400000001,
      "d": 803.5703437499978,
      "v": 60
    },
    {
      "midi": 66,
      "hit": false,
      "t": 35630.20400000001,
      "d": 803.5703437499978,
      "v": 60
    },
    {
      "midi": 45,
      "hit": false,
      "t": 36134.40499999998,
      "d": 152.31071874999907,
      "v": 100
    },
    {
      "midi": 50,
      "hit": false,
      "t": 36302.47199999997,
      "d": 309.87353124999936,
      "v": 100
    },
    {
      "midi": 50,
      "hit": false,
      "t": 36638.60599999997,
      "d": 309.87353124999936,
      "v": 100
    },
    {
      "midi": 62,
      "hit": false,
      "t": 36806.67299999997,
      "d": 252.1004999999932,
      "v": 85
    },
    {
      "midi": 66,
      "hit": false,
      "t": 36806.67299999997,
      "d": 252.1004999999932,
      "v": 85
    },
    {
      "midi": 69,
      "hit": false,
      "t": 36806.67299999997,
      "d": 252.1004999999932,
      "v": 85
    },
    {
      "midi": 57,
      "hit": false,
      "t": 36806.67300000001,
      "d": 299.3693437499969,
      "v": 60
    },
    {
      "midi": 62,
      "hit": false,
      "t": 36806.67300000001,
      "d": 299.3693437499969,
      "v": 60
    },
    {
      "midi": 66,
      "hit": false,
      "t": 36806.67300000001,
      "d": 299.3693437499969,
      "v": 60
    },
    {
      "midi": 50,
      "hit": false,
      "t": 37142.806999999964,
      "d": 309.87353124999936,
      "v": 100
    },
    {
      "midi": 62,
      "hit": false,
      "t": 37310.87399999997,
      "d": 252.1004999999932,
      "v": 85
    },
    {
      "midi": 64,
      "hit": false,
      "t": 37310.87399999997,
      "d": 252.1004999999932,
      "v": 85
    },
    {
      "midi": 69,
      "hit": false,
      "t": 37310.87399999997,
      "d": 252.1004999999932,
      "v": 85
    },
    {
      "midi": 57,
      "hit": false,
      "t": 37310.874,
      "d": 299.3693437499969,
      "v": 60
    },
    {
      "midi": 62,
      "hit": false,
      "t": 37310.874,
      "d": 299.3693437499969,
      "v": 60
    },
    {
      "midi": 64,
      "hit": false,
      "t": 37310.874,
      "d": 299.3693437499969,
      "v": 60
    },
    {
      "midi": 50,
      "hit": false,
      "t": 37647.00799999996,
      "d": 309.87353124999936,
      "v": 100
    },
    {
      "midi": 62,
      "hit": false,
      "t": 37647.00799999996,
      "d": 561.9740312499998,
      "v": 85
    },
    {
      "midi": 66,
      "hit": false,
      "t": 37647.00799999996,
      "d": 561.9740312499998,
      "v": 85
    },
    {
      "midi": 69,
      "hit": false,
      "t": 37647.00799999996,
      "d": 561.9740312499998,
      "v": 85
    },
    {
      "midi": 54,
      "hit": false,
      "t": 37647.008,
      "d": 635.5033437500024,
      "v": 60
    },
    {
      "midi": 57,
      "hit": false,
      "t": 37647.008,
      "d": 635.5033437500024,
      "v": 60
    },
    {
      "midi": 62,
      "hit": false,
      "t": 37647.008,
      "d": 635.5033437500024,
      "v": 60
    },
    {
      "midi": 45,
      "hit": false,
      "t": 38151.20899999996,
      "d": 152.31071874999907,
      "v": 100
    },
    {
      "midi": 48,
      "hit": false,
      "t": 38319.275999999954,
      "d": 152.31071874999907,
      "v": 100
    },
    {
      "midi": 48,
      "hit": false,
      "t": 38655.40999999995,
      "d": 309.87353124999936,
      "v": 100
    },
    {
      "midi": 60,
      "hit": false,
      "t": 38823.476999999955,
      "d": 252.1004999999932,
      "v": 85
    },
    {
      "midi": 64,
      "hit": false,
      "t": 38823.476999999955,
      "d": 252.1004999999932,
      "v": 85
    },
    {
      "midi": 67,
      "hit": false,
      "t": 38823.476999999955,
      "d": 252.1004999999932,
      "v": 85
    },
    {
      "midi": 55,
      "hit": false,
      "t": 38823.477000000006,
      "d": 299.3693437499969,
      "v": 60
    },
    {
      "midi": 60,
      "hit": false,
      "t": 38823.477000000006,
      "d": 299.3693437499969,
      "v": 60
    },
    {
      "midi": 64,
      "hit": false,
      "t": 38823.477000000006,
      "d": 299.3693437499969,
      "v": 60
    },
    {
      "midi": 48,
      "hit": false,
      "t": 39159.610999999946,
      "d": 309.87353124999936,
      "v": 100
    },
    {
      "midi": 60,
      "hit": false,
      "t": 39327.67799999995,
      "d": 252.1004999999932,
      "v": 85
    },
    {
      "midi": 62,
      "hit": false,
      "t": 39327.67799999995,
      "d": 252.1004999999932,
      "v": 85
    },
    {
      "midi": 67,
      "hit": false,
      "t": 39327.67799999995,
      "d": 252.1004999999932,
      "v": 85
    },
    {
      "midi": 55,
      "hit": false,
      "t": 39327.678,
      "d": 299.3693437499969,
      "v": 60
    },
    {
      "midi": 60,
      "hit": false,
      "t": 39327.678,
      "d": 299.3693437499969,
      "v": 60
    },
    {
      "midi": 62,
      "hit": false,
      "t": 39327.678,
      "d": 299.3693437499969,
      "v": 60
    },
    {
      "midi": 48,
      "hit": false,
      "t": 39663.81199999994,
      "d": 309.87353124999936,
      "v": 100
    },
    {
      "midi": 60,
      "hit": false,
      "t": 39663.81199999994,
      "d": 561.9740312499998,
      "v": 85
    },
    {
      "midi": 64,
      "hit": false,
      "t": 39663.81199999994,
      "d": 561.9740312499998,
      "v": 85
    },
    {
      "midi": 67,
      "hit": false,
      "t": 39663.81199999994,
      "d": 561.9740312499998,
      "v": 85
    },
    {
      "midi": 55,
      "hit": false,
      "t": 39663.812,
      "d": 803.5703437499978,
      "v": 60
    },
    {
      "midi": 60,
      "hit": false,
      "t": 39663.812,
      "d": 803.5703437499978,
      "v": 60
    },
    {
      "midi": 64,
      "hit": false,
      "t": 39663.812,
      "d": 803.5703437499978,
      "v": 60
    },
    {
      "midi": 43,
      "hit": false,
      "t": 40168.01299999994,
      "d": 152.31071874999907,
      "v": 100
    },
    {
      "midi": 48,
      "hit": false,
      "t": 40336.079999999936,
      "d": 309.87353124999936,
      "v": 100
    },
    {
      "midi": 48,
      "hit": false,
      "t": 40672.213999999934,
      "d": 309.87353124999936,
      "v": 100
    },
    {
      "midi": 60,
      "hit": false,
      "t": 40840.28099999994,
      "d": 252.1004999999932,
      "v": 85
    },
    {
      "midi": 64,
      "hit": false,
      "t": 40840.28099999994,
      "d": 252.1004999999932,
      "v": 85
    },
    {
      "midi": 67,
      "hit": false,
      "t": 40840.28099999994,
      "d": 252.1004999999932,
      "v": 85
    },
    {
      "midi": 55,
      "hit": false,
      "t": 40840.280999999995,
      "d": 299.3693437499969,
      "v": 60
    },
    {
      "midi": 60,
      "hit": false,
      "t": 40840.280999999995,
      "d": 299.3693437499969,
      "v": 60
    },
    {
      "midi": 64,
      "hit": false,
      "t": 40840.280999999995,
      "d": 299.3693437499969,
      "v": 60
    },
    {
      "midi": 48,
      "hit": false,
      "t": 41176.41499999993,
      "d": 309.87353124999936,
      "v": 100
    },
    {
      "midi": 60,
      "hit": false,
      "t": 41344.48199999993,
      "d": 252.1004999999932,
      "v": 85
    },
    {
      "midi": 62,
      "hit": false,
      "t": 41344.48199999993,
      "d": 252.1004999999932,
      "v": 85
    },
    {
      "midi": 67,
      "hit": false,
      "t": 41344.48199999993,
      "d": 252.1004999999932,
      "v": 85
    },
    {
      "midi": 55,
      "hit": false,
      "t": 41344.48199999999,
      "d": 299.3693437499969,
      "v": 60
    },
    {
      "midi": 60,
      "hit": false,
      "t": 41344.48199999999,
      "d": 299.3693437499969,
      "v": 60
    },
    {
      "midi": 62,
      "hit": false,
      "t": 41344.48199999999,
      "d": 299.3693437499969,
      "v": 60
    },
    {
      "midi": 48,
      "hit": false,
      "t": 41680.61599999992,
      "d": 309.87353124999936,
      "v": 100
    },
    {
      "midi": 60,
      "hit": false,
      "t": 41680.61599999992,
      "d": 561.9740312499998,
      "v": 85
    },
    {
      "midi": 64,
      "hit": false,
      "t": 41680.61599999992,
      "d": 561.9740312499998,
      "v": 85
    },
    {
      "midi": 67,
      "hit": false,
      "t": 41680.61599999992,
      "d": 561.9740312499998,
      "v": 85
    },
    {
      "midi": 52,
      "hit": false,
      "t": 41680.61599999999,
      "d": 635.5033437500024,
      "v": 60
    },
    {
      "midi": 55,
      "hit": false,
      "t": 41680.61599999999,
      "d": 635.5033437500024,
      "v": 60
    },
    {
      "midi": 60,
      "hit": false,
      "t": 41680.61599999999,
      "d": 635.5033437500024,
      "v": 60
    },
    {
      "midi": 43,
      "hit": false,
      "t": 42184.81699999992,
      "d": 152.31071874999907,
      "v": 100
    },
    {
      "midi": 47,
      "hit": false,
      "t": 42352.88399999992,
      "d": 309.87353124999936,
      "v": 100
    },
    {
      "midi": 47,
      "hit": false,
      "t": 42689.017999999916,
      "d": 309.87353124999936,
      "v": 100
    },
    {
      "midi": 63,
      "hit": false,
      "t": 42857.08499999992,
      "d": 467.43634374999965,
      "v": 85
    },
    {
      "midi": 66,
      "hit": false,
      "t": 42857.08499999992,
      "d": 467.43634374999965,
      "v": 85
    },
    {
      "midi": 71,
      "hit": false,
      "t": 42857.08499999992,
      "d": 467.43634374999965,
      "v": 85
    },
    {
      "midi": 54,
      "hit": false,
      "t": 42857.08499999999,
      "d": 467.43634374999965,
      "v": 60
    },
    {
      "midi": 59,
      "hit": false,
      "t": 42857.08499999999,
      "d": 467.43634374999965,
      "v": 60
    },
    {
      "midi": 63,
      "hit": false,
      "t": 42857.08499999999,
      "d": 467.43634374999965,
      "v": 60
    },
    {
      "midi": 47,
      "hit": false,
      "t": 43193.21899999992,
      "d": 309.87353124999936,
      "v": 100
    },
    {
      "midi": 61,
      "hit": false,
      "t": 43361.28599999992,
      "d": 252.1004999999932,
      "v": 85
    },
    {
      "midi": 66,
      "hit": false,
      "t": 43361.28599999992,
      "d": 252.1004999999932,
      "v": 85
    },
    {
      "midi": 71,
      "hit": false,
      "t": 43361.28599999992,
      "d": 252.1004999999932,
      "v": 85
    },
    {
      "midi": 54,
      "hit": false,
      "t": 43361.28599999999,
      "d": 299.3693437499969,
      "v": 60
    },
    {
      "midi": 59,
      "hit": false,
      "t": 43361.28599999999,
      "d": 299.3693437499969,
      "v": 60
    },
    {
      "midi": 61,
      "hit": false,
      "t": 43361.28599999999,
      "d": 299.3693437499969,
      "v": 60
    },
    {
      "midi": 47,
      "hit": false,
      "t": 43697.41999999991,
      "d": 309.87353124999936,
      "v": 100
    },
    {
      "midi": 63,
      "hit": false,
      "t": 43697.41999999991,
      "d": 561.9740312499998,
      "v": 85
    },
    {
      "midi": 66,
      "hit": false,
      "t": 43697.41999999991,
      "d": 561.9740312499998,
      "v": 85
    },
    {
      "midi": 71,
      "hit": false,
      "t": 43697.41999999991,
      "d": 561.9740312499998,
      "v": 85
    },
    {
      "midi": 54,
      "hit": false,
      "t": 43697.41999999999,
      "d": 803.5703437499978,
      "v": 60
    },
    {
      "midi": 59,
      "hit": false,
      "t": 43697.41999999999,
      "d": 803.5703437499978,
      "v": 60
    },
    {
      "midi": 63,
      "hit": false,
      "t": 43697.41999999999,
      "d": 803.5703437499978,
      "v": 60
    },
    {
      "midi": 47,
      "hit": false,
      "t": 44201.62099999991,
      "d": 152.31071874999907,
      "v": 100
    },
    {
      "midi": 47,
      "hit": false,
      "t": 44369.68799999991,
      "d": 309.87353124999936,
      "v": 100
    },
    {
      "midi": 47,
      "hit": false,
      "t": 44705.821999999906,
      "d": 152.31071874999907,
      "v": 100
    },
    {
      "midi": 47,
      "hit": false,
      "t": 44873.8889999999,
      "d": 309.87353124999936,
      "v": 100
    },
    {
      "midi": 63,
      "hit": false,
      "t": 44873.8889999999,
      "d": 467.43634374999965,
      "v": 85
    },
    {
      "midi": 66,
      "hit": false,
      "t": 44873.8889999999,
      "d": 467.43634374999965,
      "v": 85
    },
    {
      "midi": 71,
      "hit": false,
      "t": 44873.8889999999,
      "d": 467.43634374999965,
      "v": 85
    },
    {
      "midi": 54,
      "hit": false,
      "t": 44873.88899999999,
      "d": 467.43634374999965,
      "v": 60
    },
    {
      "midi": 59,
      "hit": false,
      "t": 44873.88899999999,
      "d": 467.43634374999965,
      "v": 60
    },
    {
      "midi": 63,
      "hit": false,
      "t": 44873.88899999999,
      "d": 467.43634374999965,
      "v": 60
    },
    {
      "midi": 47,
      "hit": false,
      "t": 45210.0229999999,
      "d": 152.31071874999907,
      "v": 100
    },
    {
      "midi": 49,
      "hit": false,
      "t": 45378.089999999895,
      "d": 309.87353124999936,
      "v": 100
    },
    {
      "midi": 61,
      "hit": false,
      "t": 45378.089999999895,
      "d": 467.43634374999965,
      "v": 85
    },
    {
      "midi": 64,
      "hit": false,
      "t": 45378.089999999895,
      "d": 467.43634374999965,
      "v": 85
    },
    {
      "midi": 71,
      "hit": false,
      "t": 45378.089999999895,
      "d": 467.43634374999965,
      "v": 85
    },
    {
      "midi": 59,
      "hit": false,
      "t": 45378.08999999999,
      "d": 467.43634374999965,
      "v": 60
    },
    {
      "midi": 61,
      "hit": false,
      "t": 45378.08999999999,
      "d": 467.43634374999965,
      "v": 60
    },
    {
      "midi": 64,
      "hit": false,
      "t": 45378.08999999999,
      "d": 467.43634374999965,
      "v": 60
    },
    {
      "midi": 49,
      "hit": false,
      "t": 45714.22399999989,
      "d": 152.31071874999907,
      "v": 100
    },
    {
      "midi": 51,
      "hit": false,
      "t": 45882.29099999989,
      "d": 309.87353124999936,
      "v": 100
    },
    {
      "midi": 63,
      "hit": false,
      "t": 45882.29099999989,
      "d": 467.43634374999965,
      "v": 85
    },
    {
      "midi": 66,
      "hit": false,
      "t": 45882.29099999989,
      "d": 467.43634374999965,
      "v": 85
    },
    {
      "midi": 71,
      "hit": false,
      "t": 45882.29099999989,
      "d": 467.43634374999965,
      "v": 85
    },
    {
      "midi": 59,
      "hit": false,
      "t": 45882.29099999999,
      "d": 467.43634374999965,
      "v": 60
    },
    {
      "midi": 63,
      "hit": false,
      "t": 45882.29099999999,
      "d": 467.43634374999965,
      "v": 60
    },
    {
      "midi": 66,
      "hit": false,
      "t": 45882.29099999999,
      "d": 467.43634374999965,
      "v": 60
    },
    {
      "midi": 51,
      "hit": false,
      "t": 46218.42499999989,
      "d": 152.31071874999907,
      "v": 100
    },
    {
      "midi": 56,
      "hit": false,
      "t": 46386.49199999988,
      "d": 152.31071874999907,
      "v": 85
    },
    {
      "midi": 59,
      "hit": false,
      "t": 46386.49199999988,
      "d": 152.31071874999907,
      "v": 85
    },
    {
      "midi": 64,
      "hit": false,
      "t": 46386.49199999988,
      "d": 152.31071874999907,
      "v": 85
    },
    {
      "midi": 59,
      "hit": false,
      "t": 46386.49199999999,
      "d": 152.31071874999907,
      "v": 60
    },
    {
      "midi": 64,
      "hit": false,
      "t": 46386.49199999999,
      "d": 152.31071874999907,
      "v": 60
    },
    {
      "midi": 68,
      "hit": false,
      "t": 46386.49199999999,
      "d": 152.31071874999907,
      "v": 60
    },
    {
      "midi": 56,
      "hit": false,
      "t": 46890.69299999988,
      "d": 152.31071874999907,
      "v": 85
    },
    {
      "midi": 59,
      "hit": false,
      "t": 46890.69299999988,
      "d": 152.31071874999907,
      "v": 85
    },
    {
      "midi": 64,
      "hit": false,
      "t": 46890.69299999988,
      "d": 152.31071874999907,
      "v": 85
    },
    {
      "midi": 59,
      "hit": false,
      "t": 46890.69299999999,
      "d": 152.31071874999907,
      "v": 60
    },
    {
      "midi": 64,
      "hit": false,
      "t": 46890.69299999999,
      "d": 152.31071874999907,
      "v": 60
    },
    {
      "midi": 68,
      "hit": false,
      "t": 46890.69299999999,
      "d": 152.31071874999907,
      "v": 60
    },
    {
      "midi": 56,
      "hit": false,
      "t": 47394.893999999884,
      "d": 152.31071874999907,
      "v": 85
    },
    {
      "midi": 59,
      "hit": false,
      "t": 47394.893999999884,
      "d": 152.31071874999907,
      "v": 85
    },
    {
      "midi": 64,
      "hit": false,
      "t": 47394.893999999884,
      "d": 152.31071874999907,
      "v": 85
    },
    {
      "midi": 59,
      "hit": false,
      "t": 47394.89399999999,
      "d": 152.31071874999907,
      "v": 60
    },
    {
      "midi": 64,
      "hit": false,
      "t": 47394.89399999999,
      "d": 152.31071874999907,
      "v": 60
    },
    {
      "midi": 68,
      "hit": false,
      "t": 47394.89399999999,
      "d": 152.31071874999907,
      "v": 60
    },
    {
      "midi": 56,
      "hit": false,
      "t": 47731.02799999988,
      "d": 635.5033437500024,
      "v": 85
    },
    {
      "midi": 59,
      "hit": false,
      "t": 47731.02799999988,
      "d": 635.5033437500024,
      "v": 85
    },
    {
      "midi": 64,
      "hit": false,
      "t": 47731.02799999988,
      "d": 635.5033437500024,
      "v": 85
    },
    {
      "midi": 59,
      "hit": false,
      "t": 47899.094999999994,
      "d": 152.31071874999907,
      "v": 60
    },
    {
      "midi": 64,
      "hit": false,
      "t": 47899.094999999994,
      "d": 152.31071874999907,
      "v": 60
    },
    {
      "midi": 68,
      "hit": false,
      "t": 47899.094999999994,
      "d": 152.31071874999907,
      "v": 60
    },
    {
      "midi": 57,
      "hit": false,
      "t": 48403.295999999886,
      "d": 152.31071874999907,
      "v": 85
    },
    {
      "midi": 62,
      "hit": false,
      "t": 48403.295999999886,
      "d": 152.31071874999907,
      "v": 85
    },
    {
      "midi": 66,
      "hit": false,
      "t": 48403.295999999886,
      "d": 152.31071874999907,
      "v": 85
    },
    {
      "midi": 59,
      "hit": false,
      "t": 48403.295999999995,
      "d": 152.31071874999907,
      "v": 60
    },
    {
      "midi": 62,
      "hit": false,
      "t": 48403.295999999995,
      "d": 152.31071874999907,
      "v": 60
    },
    {
      "midi": 66,
      "hit": false,
      "t": 48403.295999999995,
      "d": 152.31071874999907,
      "v": 60
    },
    {
      "midi": 57,
      "hit": false,
      "t": 48907.49699999989,
      "d": 152.31071874999907,
      "v": 85
    },
    {
      "midi": 62,
      "hit": false,
      "t": 48907.49699999989,
      "d": 152.31071874999907,
      "v": 85
    },
    {
      "midi": 66,
      "hit": false,
      "t": 48907.49699999989,
      "d": 152.31071874999907,
      "v": 85
    },
    {
      "midi": 59,
      "hit": false,
      "t": 48907.496999999996,
      "d": 152.31071874999907,
      "v": 60
    },
    {
      "midi": 62,
      "hit": false,
      "t": 48907.496999999996,
      "d": 152.31071874999907,
      "v": 60
    },
    {
      "midi": 66,
      "hit": false,
      "t": 48907.496999999996,
      "d": 152.31071874999907,
      "v": 60
    },
    {
      "midi": 57,
      "hit": false,
      "t": 49411.69799999989,
      "d": 152.31071874999907,
      "v": 85
    },
    {
      "midi": 62,
      "hit": false,
      "t": 49411.69799999989,
      "d": 152.31071874999907,
      "v": 85
    },
    {
      "midi": 66,
      "hit": false,
      "t": 49411.69799999989,
      "d": 152.31071874999907,
      "v": 85
    },
    {
      "midi": 59,
      "hit": false,
      "t": 49411.698,
      "d": 152.31071874999907,
      "v": 60
    },
    {
      "midi": 62,
      "hit": false,
      "t": 49411.698,
      "d": 152.31071874999907,
      "v": 60
    },
    {
      "midi": 66,
      "hit": false,
      "t": 49411.698,
      "d": 152.31071874999907,
      "v": 60
    },
    {
      "midi": 57,
      "hit": false,
      "t": 49747.831999999886,
      "d": 635.5033437500024,
      "v": 85
    },
    {
      "midi": 62,
      "hit": false,
      "t": 49747.831999999886,
      "d": 635.5033437500024,
      "v": 85
    },
    {
      "midi": 66,
      "hit": false,
      "t": 49747.831999999886,
      "d": 635.5033437500024,
      "v": 85
    },
    {
      "midi": 59,
      "hit": false,
      "t": 49915.899,
      "d": 152.31071874999907,
      "v": 60
    },
    {
      "midi": 62,
      "hit": false,
      "t": 49915.899,
      "d": 152.31071874999907,
      "v": 60
    },
    {
      "midi": 66,
      "hit": false,
      "t": 49915.899,
      "d": 152.31071874999907,
      "v": 60
    },
    {
      "midi": 56,
      "hit": false,
      "t": 50420.09999999989,
      "d": 152.31071874999907,
      "v": 85
    },
    {
      "midi": 59,
      "hit": false,
      "t": 50420.09999999989,
      "d": 152.31071874999907,
      "v": 85
    },
    {
      "midi": 64,
      "hit": false,
      "t": 50420.09999999989,
      "d": 152.31071874999907,
      "v": 85
    },
    {
      "midi": 59,
      "hit": false,
      "t": 50420.1,
      "d": 152.31071874999907,
      "v": 60
    },
    {
      "midi": 64,
      "hit": false,
      "t": 50420.1,
      "d": 152.31071874999907,
      "v": 60
    },
    {
      "midi": 68,
      "hit": false,
      "t": 50420.1,
      "d": 152.31071874999907,
      "v": 60
    },
    {
      "midi": 56,
      "hit": false,
      "t": 50924.30099999989,
      "d": 152.31071874999907,
      "v": 85
    },
    {
      "midi": 59,
      "hit": false,
      "t": 50924.30099999989,
      "d": 152.31071874999907,
      "v": 85
    },
    {
      "midi": 64,
      "hit": false,
      "t": 50924.30099999989,
      "d": 152.31071874999907,
      "v": 85
    },
    {
      "midi": 59,
      "hit": false,
      "t": 50924.301,
      "d": 152.31071874999907,
      "v": 60
    },
    {
      "midi": 64,
      "hit": false,
      "t": 50924.301,
      "d": 152.31071874999907,
      "v": 60
    },
    {
      "midi": 68,
      "hit": false,
      "t": 50924.301,
      "d": 152.31071874999907,
      "v": 60
    },
    {
      "midi": 56,
      "hit": false,
      "t": 51428.50199999989,
      "d": 152.31071874999907,
      "v": 85
    },
    {
      "midi": 59,
      "hit": false,
      "t": 51428.50199999989,
      "d": 152.31071874999907,
      "v": 85
    },
    {
      "midi": 64,
      "hit": false,
      "t": 51428.50199999989,
      "d": 152.31071874999907,
      "v": 85
    },
    {
      "midi": 59,
      "hit": false,
      "t": 51428.502,
      "d": 152.31071874999907,
      "v": 60
    },
    {
      "midi": 64,
      "hit": false,
      "t": 51428.502,
      "d": 152.31071874999907,
      "v": 60
    },
    {
      "midi": 68,
      "hit": false,
      "t": 51428.502,
      "d": 152.31071874999907,
      "v": 60
    },
    {
      "midi": 56,
      "hit": false,
      "t": 51764.63599999989,
      "d": 635.5033437500024,
      "v": 85
    },
    {
      "midi": 59,
      "hit": false,
      "t": 51764.63599999989,
      "d": 635.5033437500024,
      "v": 85
    },
    {
      "midi": 64,
      "hit": false,
      "t": 51764.63599999989,
      "d": 635.5033437500024,
      "v": 85
    },
    {
      "midi": 59,
      "hit": false,
      "t": 51932.703,
      "d": 152.31071874999907,
      "v": 60
    },
    {
      "midi": 64,
      "hit": false,
      "t": 51932.703,
      "d": 152.31071874999907,
      "v": 60
    },
    {
      "midi": 68,
      "hit": false,
      "t": 51932.703,
      "d": 152.31071874999907,
      "v": 60
    },
    {
      "midi": 55,
      "hit": false,
      "t": 52436.90399999989,
      "d": 152.31071874999907,
      "v": 80
    },
    {
      "midi": 59,
      "hit": false,
      "t": 52436.90399999989,
      "d": 152.31071874999907,
      "v": 80
    },
    {
      "midi": 62,
      "hit": false,
      "t": 52436.90399999989,
      "d": 152.31071874999907,
      "v": 80
    },
    {
      "midi": 59,
      "hit": false,
      "t": 52436.904,
      "d": 152.31071874999907,
      "v": 55
    },
    {
      "midi": 62,
      "hit": false,
      "t": 52436.904,
      "d": 152.31071874999907,
      "v": 55
    },
    {
      "midi": 67,
      "hit": false,
      "t": 52436.904,
      "d": 152.31071874999907,
      "v": 55
    },
    {
      "midi": 55,
      "hit": false,
      "t": 52941.104999999894,
      "d": 152.31071874999907,
      "v": 80
    },
    {
      "midi": 59,
      "hit": false,
      "t": 52941.104999999894,
      "d": 152.31071874999907,
      "v": 80
    },
    {
      "midi": 62,
      "hit": false,
      "t": 52941.104999999894,
      "d": 152.31071874999907,
      "v": 80
    },
    {
      "midi": 59,
      "hit": false,
      "t": 52941.105,
      "d": 152.31071874999907,
      "v": 55
    },
    {
      "midi": 62,
      "hit": false,
      "t": 52941.105,
      "d": 152.31071874999907,
      "v": 55
    },
    {
      "midi": 67,
      "hit": false,
      "t": 52941.105,
      "d": 152.31071874999907,
      "v": 55
    },
    {
      "midi": 55,
      "hit": false,
      "t": 53445.305999999895,
      "d": 152.31071874999907,
      "v": 80
    },
    {
      "midi": 59,
      "hit": false,
      "t": 53445.305999999895,
      "d": 152.31071874999907,
      "v": 80
    },
    {
      "midi": 64,
      "hit": false,
      "t": 53445.305999999895,
      "d": 152.31071874999907,
      "v": 80
    },
    {
      "midi": 59,
      "hit": false,
      "t": 53445.306000000004,
      "d": 152.31071874999907,
      "v": 55
    },
    {
      "midi": 62,
      "hit": false,
      "t": 53445.306000000004,
      "d": 152.31071874999907,
      "v": 55
    },
    {
      "midi": 67,
      "hit": false,
      "t": 53445.306000000004,
      "d": 152.31071874999907,
      "v": 55
    },
    {
      "midi": 55,
      "hit": false,
      "t": 53781.43999999989,
      "d": 635.5033437500024,
      "v": 80
    },
    {
      "midi": 59,
      "hit": false,
      "t": 53781.43999999989,
      "d": 635.5033437500024,
      "v": 80
    },
    {
      "midi": 62,
      "hit": false,
      "t": 53781.43999999989,
      "d": 635.5033437500024,
      "v": 80
    },
    {
      "midi": 59,
      "hit": false,
      "t": 53949.507000000005,
      "d": 152.31071874999907,
      "v": 55
    },
    {
      "midi": 62,
      "hit": false,
      "t": 53949.507000000005,
      "d": 152.31071874999907,
      "v": 55
    },
    {
      "midi": 67,
      "hit": false,
      "t": 53949.507000000005,
      "d": 152.31071874999907,
      "v": 55
    },
    {
      "midi": 56,
      "hit": false,
      "t": 54453.7079999999,
      "d": 152.31071874999907,
      "v": 80
    },
    {
      "midi": 59,
      "hit": false,
      "t": 54453.7079999999,
      "d": 152.31071874999907,
      "v": 80
    },
    {
      "midi": 64,
      "hit": false,
      "t": 54453.7079999999,
      "d": 152.31071874999907,
      "v": 80
    },
    {
      "midi": 59,
      "hit": false,
      "t": 54453.708000000006,
      "d": 152.31071874999907,
      "v": 55
    },
    {
      "midi": 64,
      "hit": false,
      "t": 54453.708000000006,
      "d": 152.31071874999907,
      "v": 55
    },
    {
      "midi": 68,
      "hit": false,
      "t": 54453.708000000006,
      "d": 152.31071874999907,
      "v": 55
    },
    {
      "midi": 56,
      "hit": false,
      "t": 54957.9089999999,
      "d": 152.31071874999907,
      "v": 80
    },
    {
      "midi": 59,
      "hit": false,
      "t": 54957.9089999999,
      "d": 152.31071874999907,
      "v": 80
    },
    {
      "midi": 64,
      "hit": false,
      "t": 54957.9089999999,
      "d": 152.31071874999907,
      "v": 80
    },
    {
      "midi": 59,
      "hit": false,
      "t": 54957.90900000001,
      "d": 152.31071874999907,
      "v": 55
    },
    {
      "midi": 64,
      "hit": false,
      "t": 54957.90900000001,
      "d": 152.31071874999907,
      "v": 55
    },
    {
      "midi": 68,
      "hit": false,
      "t": 54957.90900000001,
      "d": 152.31071874999907,
      "v": 55
    },
    {
      "midi": 56,
      "hit": false,
      "t": 55462.1099999999,
      "d": 152.31071874999907,
      "v": 80
    },
    {
      "midi": 59,
      "hit": false,
      "t": 55462.1099999999,
      "d": 152.31071874999907,
      "v": 80
    },
    {
      "midi": 64,
      "hit": false,
      "t": 55462.1099999999,
      "d": 152.31071874999907,
      "v": 80
    },
    {
      "midi": 59,
      "hit": false,
      "t": 55462.11000000001,
      "d": 152.31071874999907,
      "v": 55
    },
    {
      "midi": 64,
      "hit": false,
      "t": 55462.11000000001,
      "d": 152.31071874999907,
      "v": 55
    },
    {
      "midi": 68,
      "hit": false,
      "t": 55462.11000000001,
      "d": 152.31071874999907,
      "v": 55
    },
    {
      "midi": 56,
      "hit": false,
      "t": 55798.2439999999,
      "d": 635.5033437500024,
      "v": 80
    },
    {
      "midi": 59,
      "hit": false,
      "t": 55798.2439999999,
      "d": 635.5033437500024,
      "v": 80
    },
    {
      "midi": 64,
      "hit": false,
      "t": 55798.2439999999,
      "d": 635.5033437500024,
      "v": 80
    },
    {
      "midi": 59,
      "hit": false,
      "t": 55966.31100000001,
      "d": 152.31071874999907,
      "v": 55
    },
    {
      "midi": 64,
      "hit": false,
      "t": 55966.31100000001,
      "d": 152.31071874999907,
      "v": 55
    },
    {
      "midi": 68,
      "hit": false,
      "t": 55966.31100000001,
      "d": 152.31071874999907,
      "v": 55
    },
    {
      "midi": 57,
      "hit": false,
      "t": 56470.5119999999,
      "d": 152.31071874999907,
      "v": 80
    },
    {
      "midi": 62,
      "hit": false,
      "t": 56470.5119999999,
      "d": 152.31071874999907,
      "v": 80
    },
    {
      "midi": 66,
      "hit": false,
      "t": 56470.5119999999,
      "d": 152.31071874999907,
      "v": 80
    },
    {
      "midi": 59,
      "hit": false,
      "t": 56470.51200000001,
      "d": 152.31071874999907,
      "v": 55
    },
    {
      "midi": 62,
      "hit": false,
      "t": 56470.51200000001,
      "d": 152.31071874999907,
      "v": 55
    },
    {
      "midi": 66,
      "hit": false,
      "t": 56470.51200000001,
      "d": 152.31071874999907,
      "v": 55
    },
    {
      "midi": 57,
      "hit": false,
      "t": 56974.7129999999,
      "d": 152.31071874999907,
      "v": 80
    },
    {
      "midi": 62,
      "hit": false,
      "t": 56974.7129999999,
      "d": 152.31071874999907,
      "v": 80
    },
    {
      "midi": 66,
      "hit": false,
      "t": 56974.7129999999,
      "d": 152.31071874999907,
      "v": 80
    },
    {
      "midi": 59,
      "hit": false,
      "t": 56974.71300000001,
      "d": 152.31071874999907,
      "v": 55
    },
    {
      "midi": 62,
      "hit": false,
      "t": 56974.71300000001,
      "d": 152.31071874999907,
      "v": 55
    },
    {
      "midi": 66,
      "hit": false,
      "t": 56974.71300000001,
      "d": 152.31071874999907,
      "v": 55
    },
    {
      "midi": 57,
      "hit": false,
      "t": 57478.9139999999,
      "d": 152.31071874999907,
      "v": 80
    },
    {
      "midi": 62,
      "hit": false,
      "t": 57478.9139999999,
      "d": 152.31071874999907,
      "v": 80
    },
    {
      "midi": 66,
      "hit": false,
      "t": 57478.9139999999,
      "d": 152.31071874999907,
      "v": 80
    },
    {
      "midi": 59,
      "hit": false,
      "t": 57478.91400000001,
      "d": 152.31071874999907,
      "v": 55
    },
    {
      "midi": 62,
      "hit": false,
      "t": 57478.91400000001,
      "d": 152.31071874999907,
      "v": 55
    },
    {
      "midi": 66,
      "hit": false,
      "t": 57478.91400000001,
      "d": 152.31071874999907,
      "v": 55
    },
    {
      "midi": 57,
      "hit": false,
      "t": 57815.0479999999,
      "d": 635.5033437500024,
      "v": 80
    },
    {
      "midi": 62,
      "hit": false,
      "t": 57815.0479999999,
      "d": 635.5033437500024,
      "v": 80
    },
    {
      "midi": 66,
      "hit": false,
      "t": 57815.0479999999,
      "d": 635.5033437500024,
      "v": 80
    },
    {
      "midi": 59,
      "hit": false,
      "t": 57983.11500000001,
      "d": 152.31071874999907,
      "v": 55
    },
    {
      "midi": 62,
      "hit": false,
      "t": 57983.11500000001,
      "d": 152.31071874999907,
      "v": 55
    },
    {
      "midi": 66,
      "hit": false,
      "t": 57983.11500000001,
      "d": 152.31071874999907,
      "v": 55
    },
    {
      "midi": 56,
      "hit": false,
      "t": 58487.315999999904,
      "d": 152.31071874999907,
      "v": 80
    },
    {
      "midi": 59,
      "hit": false,
      "t": 58487.315999999904,
      "d": 152.31071874999907,
      "v": 80
    },
    {
      "midi": 64,
      "hit": false,
      "t": 58487.315999999904,
      "d": 152.31071874999907,
      "v": 80
    },
    {
      "midi": 59,
      "hit": false,
      "t": 58487.31600000001,
      "d": 152.31071874999907,
      "v": 55
    },
    {
      "midi": 64,
      "hit": false,
      "t": 58487.31600000001,
      "d": 152.31071874999907,
      "v": 55
    },
    {
      "midi": 68,
      "hit": false,
      "t": 58487.31600000001,
      "d": 152.31071874999907,
      "v": 55
    },
    {
      "midi": 56,
      "hit": false,
      "t": 58991.516999999905,
      "d": 152.31071874999907,
      "v": 80
    },
    {
      "midi": 59,
      "hit": false,
      "t": 58991.516999999905,
      "d": 152.31071874999907,
      "v": 80
    },
    {
      "midi": 64,
      "hit": false,
      "t": 58991.516999999905,
      "d": 152.31071874999907,
      "v": 80
    },
    {
      "midi": 59,
      "hit": false,
      "t": 58991.517000000014,
      "d": 152.31071874999907,
      "v": 55
    },
    {
      "midi": 64,
      "hit": false,
      "t": 58991.517000000014,
      "d": 152.31071874999907,
      "v": 55
    },
    {
      "midi": 68,
      "hit": false,
      "t": 58991.517000000014,
      "d": 152.31071874999907,
      "v": 55
    },
    {
      "midi": 56,
      "hit": false,
      "t": 59495.717999999906,
      "d": 152.31071874999907,
      "v": 80
    },
    {
      "midi": 59,
      "hit": false,
      "t": 59495.717999999906,
      "d": 152.31071874999907,
      "v": 80
    },
    {
      "midi": 64,
      "hit": false,
      "t": 59495.717999999906,
      "d": 152.31071874999907,
      "v": 80
    },
    {
      "midi": 59,
      "hit": false,
      "t": 59495.718000000015,
      "d": 152.31071874999907,
      "v": 55
    },
    {
      "midi": 64,
      "hit": false,
      "t": 59495.718000000015,
      "d": 152.31071874999907,
      "v": 55
    },
    {
      "midi": 68,
      "hit": false,
      "t": 59495.718000000015,
      "d": 152.31071874999907,
      "v": 55
    },
    {
      "midi": 56,
      "hit": false,
      "t": 59831.851999999904,
      "d": 635.5033437500024,
      "v": 80
    },
    {
      "midi": 59,
      "hit": false,
      "t": 59831.851999999904,
      "d": 635.5033437500024,
      "v": 80
    },
    {
      "midi": 64,
      "hit": false,
      "t": 59831.851999999904,
      "d": 635.5033437500024,
      "v": 80
    },
    {
      "midi": 59,
      "hit": false,
      "t": 59999.919000000016,
      "d": 152.31071874999907,
      "v": 55
    },
    {
      "midi": 64,
      "hit": false,
      "t": 59999.919000000016,
      "d": 152.31071874999907,
      "v": 55
    },
    {
      "midi": 68,
      "hit": false,
      "t": 59999.919000000016,
      "d": 152.31071874999907,
      "v": 55
    },
    {
      "midi": 55,
      "hit": false,
      "t": 60504.11999999991,
      "d": 152.31071874999907,
      "v": 80
    },
    {
      "midi": 59,
      "hit": false,
      "t": 60504.11999999991,
      "d": 152.31071874999907,
      "v": 80
    },
    {
      "midi": 62,
      "hit": false,
      "t": 60504.11999999991,
      "d": 152.31071874999907,
      "v": 80
    },
    {
      "midi": 59,
      "hit": false,
      "t": 60504.12000000002,
      "d": 152.31071874999907,
      "v": 55
    },
    {
      "midi": 62,
      "hit": false,
      "t": 60504.12000000002,
      "d": 152.31071874999907,
      "v": 55
    },
    {
      "midi": 67,
      "hit": false,
      "t": 60504.12000000002,
      "d": 152.31071874999907,
      "v": 55
    },
    {
      "midi": 55,
      "hit": false,
      "t": 61008.32099999991,
      "d": 152.31071874999907,
      "v": 80
    },
    {
      "midi": 59,
      "hit": false,
      "t": 61008.32099999991,
      "d": 152.31071874999907,
      "v": 80
    },
    {
      "midi": 62,
      "hit": false,
      "t": 61008.32099999991,
      "d": 152.31071874999907,
      "v": 80
    },
    {
      "midi": 59,
      "hit": false,
      "t": 61008.32100000002,
      "d": 152.31071874999907,
      "v": 55
    },
    {
      "midi": 62,
      "hit": false,
      "t": 61008.32100000002,
      "d": 152.31071874999907,
      "v": 55
    },
    {
      "midi": 67,
      "hit": false,
      "t": 61008.32100000002,
      "d": 152.31071874999907,
      "v": 55
    },
    {
      "midi": 55,
      "hit": false,
      "t": 61512.52199999991,
      "d": 152.31071874999907,
      "v": 80
    },
    {
      "midi": 59,
      "hit": false,
      "t": 61512.52199999991,
      "d": 152.31071874999907,
      "v": 80
    },
    {
      "midi": 64,
      "hit": false,
      "t": 61512.52199999991,
      "d": 152.31071874999907,
      "v": 80
    },
    {
      "midi": 59,
      "hit": false,
      "t": 61512.52200000002,
      "d": 152.31071874999907,
      "v": 55
    },
    {
      "midi": 62,
      "hit": false,
      "t": 61512.52200000002,
      "d": 152.31071874999907,
      "v": 55
    },
    {
      "midi": 67,
      "hit": false,
      "t": 61512.52200000002,
      "d": 152.31071874999907,
      "v": 55
    },
    {
      "midi": 59,
      "hit": false,
      "t": 61848.65599999991,
      "d": 456.9321562499972,
      "v": 80
    },
    {
      "midi": 62,
      "hit": false,
      "t": 61848.65599999991,
      "d": 456.9321562499972,
      "v": 80
    },
    {
      "midi": 55,
      "hit": false,
      "t": 61848.65599999991,
      "d": 462.1842499999984,
      "v": 80
    },
    {
      "midi": 59,
      "hit": false,
      "t": 62016.72300000002,
      "d": 152.31071874999907,
      "v": 55
    },
    {
      "midi": 62,
      "hit": false,
      "t": 62016.72300000002,
      "d": 152.31071874999907,
      "v": 55
    },
    {
      "midi": 67,
      "hit": false,
      "t": 62016.72300000002,
      "d": 152.31071874999907,
      "v": 55
    },
    {
      "midi": 52,
      "hit": false,
      "t": 62520.923999999904,
      "d": 152.31071874999907,
      "v": 75
    },
    {
      "midi": 52,
      "hit": false,
      "t": 62857.0579999999,
      "d": 467.43634374999965,
      "v": 75
    },
    {
      "midi": 64,
      "hit": false,
      "t": 63025.124999999905,
      "d": 252.10050000000047,
      "v": 60
    },
    {
      "midi": 67,
      "hit": false,
      "t": 63025.124999999905,
      "d": 252.10050000000047,
      "v": 60
    },
    {
      "midi": 71,
      "hit": false,
      "t": 63025.124999999905,
      "d": 252.10050000000047,
      "v": 60
    },
    {
      "midi": 59,
      "hit": false,
      "t": 63025.12500000002,
      "d": 299.3693437499969,
      "v": 35
    },
    {
      "midi": 64,
      "hit": false,
      "t": 63025.12500000002,
      "d": 299.3693437499969,
      "v": 35
    },
    {
      "midi": 67,
      "hit": false,
      "t": 63025.12500000002,
      "d": 299.3693437499969,
      "v": 35
    },
    {
      "midi": 52,
      "hit": false,
      "t": 63361.2589999999,
      "d": 309.87353124999936,
      "v": 75
    },
    {
      "midi": 64,
      "hit": false,
      "t": 63529.325999999906,
      "d": 252.1004999999932,
      "v": 60
    },
    {
      "midi": 66,
      "hit": false,
      "t": 63529.325999999906,
      "d": 252.1004999999932,
      "v": 60
    },
    {
      "midi": 71,
      "hit": false,
      "t": 63529.325999999906,
      "d": 252.1004999999932,
      "v": 60
    },
    {
      "midi": 59,
      "hit": false,
      "t": 63529.326000000015,
      "d": 299.3693437499969,
      "v": 35
    },
    {
      "midi": 64,
      "hit": false,
      "t": 63529.326000000015,
      "d": 299.3693437499969,
      "v": 35
    },
    {
      "midi": 66,
      "hit": false,
      "t": 63529.326000000015,
      "d": 299.3693437499969,
      "v": 35
    },
    {
      "midi": 52,
      "hit": false,
      "t": 63865.4599999999,
      "d": 467.43634374999965,
      "v": 75
    },
    {
      "midi": 64,
      "hit": false,
      "t": 63865.4599999999,
      "d": 561.9740312499998,
      "v": 60
    },
    {
      "midi": 67,
      "hit": false,
      "t": 63865.4599999999,
      "d": 561.9740312499998,
      "v": 60
    },
    {
      "midi": 71,
      "hit": false,
      "t": 63865.4599999999,
      "d": 561.9740312499998,
      "v": 60
    },
    {
      "midi": 59,
      "hit": false,
      "t": 63865.460000000014,
      "d": 803.5703437499978,
      "v": 35
    },
    {
      "midi": 64,
      "hit": false,
      "t": 63865.460000000014,
      "d": 803.5703437499978,
      "v": 35
    },
    {
      "midi": 67,
      "hit": false,
      "t": 63865.460000000014,
      "d": 803.5703437499978,
      "v": 35
    },
    {
      "midi": 47,
      "hit": false,
      "t": 64369.6609999999,
      "d": 152.31071874999907,
      "v": 75
    },
    {
      "midi": 52,
      "hit": false,
      "t": 64537.727999999894,
      "d": 152.31071874999907,
      "v": 75
    },
    {
      "midi": 52,
      "hit": false,
      "t": 64873.86199999989,
      "d": 309.87353124999936,
      "v": 75
    },
    {
      "midi": 64,
      "hit": false,
      "t": 65041.928999999895,
      "d": 252.1004999999932,
      "v": 60
    },
    {
      "midi": 67,
      "hit": false,
      "t": 65041.928999999895,
      "d": 252.1004999999932,
      "v": 60
    },
    {
      "midi": 71,
      "hit": false,
      "t": 65041.928999999895,
      "d": 252.1004999999932,
      "v": 60
    },
    {
      "midi": 59,
      "hit": false,
      "t": 65041.92900000001,
      "d": 299.3693437499969,
      "v": 35
    },
    {
      "midi": 64,
      "hit": false,
      "t": 65041.92900000001,
      "d": 299.3693437499969,
      "v": 35
    },
    {
      "midi": 67,
      "hit": false,
      "t": 65041.92900000001,
      "d": 299.3693437499969,
      "v": 35
    },
    {
      "midi": 52,
      "hit": false,
      "t": 65378.062999999886,
      "d": 309.87353124999936,
      "v": 75
    },
    {
      "midi": 64,
      "hit": false,
      "t": 65546.12999999989,
      "d": 252.10050000000047,
      "v": 60
    },
    {
      "midi": 66,
      "hit": false,
      "t": 65546.12999999989,
      "d": 252.10050000000047,
      "v": 60
    },
    {
      "midi": 71,
      "hit": false,
      "t": 65546.12999999989,
      "d": 252.10050000000047,
      "v": 60
    },
    {
      "midi": 59,
      "hit": false,
      "t": 65546.13,
      "d": 299.3693437500042,
      "v": 35
    },
    {
      "midi": 64,
      "hit": false,
      "t": 65546.13,
      "d": 299.3693437500042,
      "v": 35
    },
    {
      "midi": 66,
      "hit": false,
      "t": 65546.13,
      "d": 299.3693437500042,
      "v": 35
    },
    {
      "midi": 52,
      "hit": false,
      "t": 65882.2639999999,
      "d": 309.87353125000664,
      "v": 75
    },
    {
      "midi": 64,
      "hit": false,
      "t": 65882.2639999999,
      "d": 561.9740312500071,
      "v": 60
    },
    {
      "midi": 67,
      "hit": false,
      "t": 65882.2639999999,
      "d": 561.9740312500071,
      "v": 60
    },
    {
      "midi": 71,
      "hit": false,
      "t": 65882.2639999999,
      "d": 561.9740312500071,
      "v": 60
    },
    {
      "midi": 55,
      "hit": false,
      "t": 65882.26400000001,
      "d": 635.5033437499951,
      "v": 35
    },
    {
      "midi": 59,
      "hit": false,
      "t": 65882.26400000001,
      "d": 635.5033437499951,
      "v": 35
    },
    {
      "midi": 64,
      "hit": false,
      "t": 65882.26400000001,
      "d": 635.5033437499951,
      "v": 35
    },
    {
      "midi": 47,
      "hit": false,
      "t": 66386.4649999999,
      "d": 152.31071874999907,
      "v": 75
    },
    {
      "midi": 50,
      "hit": false,
      "t": 66554.53199999989,
      "d": 152.31071874999907,
      "v": 75
    },
    {
      "midi": 50,
      "hit": false,
      "t": 66890.6659999999,
      "d": 309.8735312499921,
      "v": 75
    },
    {
      "midi": 62,
      "hit": false,
      "t": 67058.73299999989,
      "d": 252.10050000000047,
      "v": 60
    },
    {
      "midi": 66,
      "hit": false,
      "t": 67058.73299999989,
      "d": 252.10050000000047,
      "v": 60
    },
    {
      "midi": 69,
      "hit": false,
      "t": 67058.73299999989,
      "d": 252.10050000000047,
      "v": 60
    },
    {
      "midi": 57,
      "hit": false,
      "t": 67058.73300000001,
      "d": 299.3693437500042,
      "v": 35
    },
    {
      "midi": 62,
      "hit": false,
      "t": 67058.73300000001,
      "d": 299.3693437500042,
      "v": 35
    },
    {
      "midi": 66,
      "hit": false,
      "t": 67058.73300000001,
      "d": 299.3693437500042,
      "v": 35
    },
    {
      "midi": 50,
      "hit": false,
      "t": 67394.8669999999,
      "d": 309.8735312499921,
      "v": 75
    },
    {
      "midi": 62,
      "hit": false,
      "t": 67562.93399999989,
      "d": 252.10050000000047,
      "v": 60
    },
    {
      "midi": 64,
      "hit": false,
      "t": 67562.93399999989,
      "d": 252.10050000000047,
      "v": 60
    },
    {
      "midi": 69,
      "hit": false,
      "t": 67562.93399999989,
      "d": 252.10050000000047,
      "v": 60
    },
    {
      "midi": 57,
      "hit": false,
      "t": 67562.93400000001,
      "d": 299.3693437500042,
      "v": 35
    },
    {
      "midi": 62,
      "hit": false,
      "t": 67562.93400000001,
      "d": 299.3693437500042,
      "v": 35
    },
    {
      "midi": 64,
      "hit": false,
      "t": 67562.93400000001,
      "d": 299.3693437500042,
      "v": 35
    },
    {
      "midi": 50,
      "hit": false,
      "t": 67899.0679999999,
      "d": 467.43634374999965,
      "v": 75
    },
    {
      "midi": 62,
      "hit": false,
      "t": 67899.0679999999,
      "d": 561.9740312500071,
      "v": 60
    },
    {
      "midi": 66,
      "hit": false,
      "t": 67899.0679999999,
      "d": 561.9740312500071,
      "v": 60
    },
    {
      "midi": 69,
      "hit": false,
      "t": 67899.0679999999,
      "d": 561.9740312500071,
      "v": 60
    },
    {
      "midi": 57,
      "hit": false,
      "t": 67899.06800000001,
      "d": 803.5703437500051,
      "v": 35
    },
    {
      "midi": 62,
      "hit": false,
      "t": 67899.06800000001,
      "d": 803.5703437500051,
      "v": 35
    },
    {
      "midi": 66,
      "hit": false,
      "t": 67899.06800000001,
      "d": 803.5703437500051,
      "v": 35
    },
    {
      "midi": 45,
      "hit": false,
      "t": 68403.2689999999,
      "d": 152.31071874999907,
      "v": 75
    },
    {
      "midi": 50,
      "hit": false,
      "t": 68571.3359999999,
      "d": 309.87353125000664,
      "v": 75
    },
    {
      "midi": 50,
      "hit": false,
      "t": 68907.4699999999,
      "d": 309.8735312499921,
      "v": 75
    },
    {
      "midi": 62,
      "hit": false,
      "t": 69075.5369999999,
      "d": 252.10050000000047,
      "v": 60
    },
    {
      "midi": 66,
      "hit": false,
      "t": 69075.5369999999,
      "d": 252.10050000000047,
      "v": 60
    },
    {
      "midi": 69,
      "hit": false,
      "t": 69075.5369999999,
      "d": 252.10050000000047,
      "v": 60
    },
    {
      "midi": 57,
      "hit": false,
      "t": 69075.53700000003,
      "d": 299.3693437500042,
      "v": 35
    },
    {
      "midi": 62,
      "hit": false,
      "t": 69075.53700000003,
      "d": 299.3693437500042,
      "v": 35
    },
    {
      "midi": 66,
      "hit": false,
      "t": 69075.53700000003,
      "d": 299.3693437500042,
      "v": 35
    },
    {
      "midi": 50,
      "hit": false,
      "t": 69411.6709999999,
      "d": 309.8735312499921,
      "v": 75
    },
    {
      "midi": 62,
      "hit": false,
      "t": 69579.7379999999,
      "d": 252.10050000000047,
      "v": 60
    },
    {
      "midi": 64,
      "hit": false,
      "t": 69579.7379999999,
      "d": 252.10050000000047,
      "v": 60
    },
    {
      "midi": 69,
      "hit": false,
      "t": 69579.7379999999,
      "d": 252.10050000000047,
      "v": 60
    },
    {
      "midi": 57,
      "hit": false,
      "t": 69579.73800000003,
      "d": 299.3693437500042,
      "v": 35
    },
    {
      "midi": 62,
      "hit": false,
      "t": 69579.73800000003,
      "d": 299.3693437500042,
      "v": 35
    },
    {
      "midi": 64,
      "hit": false,
      "t": 69579.73800000003,
      "d": 299.3693437500042,
      "v": 35
    },
    {
      "midi": 50,
      "hit": false,
      "t": 69915.8719999999,
      "d": 309.87353125000664,
      "v": 75
    },
    {
      "midi": 62,
      "hit": false,
      "t": 69915.8719999999,
      "d": 561.9740312500071,
      "v": 60
    },
    {
      "midi": 66,
      "hit": false,
      "t": 69915.8719999999,
      "d": 561.9740312500071,
      "v": 60
    },
    {
      "midi": 69,
      "hit": false,
      "t": 69915.8719999999,
      "d": 561.9740312500071,
      "v": 60
    },
    {
      "midi": 54,
      "hit": false,
      "t": 69915.87200000003,
      "d": 635.5033437499951,
      "v": 35
    },
    {
      "midi": 57,
      "hit": false,
      "t": 69915.87200000003,
      "d": 635.5033437499951,
      "v": 35
    },
    {
      "midi": 62,
      "hit": false,
      "t": 69915.87200000003,
      "d": 635.5033437499951,
      "v": 35
    },
    {
      "midi": 45,
      "hit": false,
      "t": 70420.0729999999,
      "d": 152.31071874999907,
      "v": 75
    },
    {
      "midi": 48,
      "hit": false,
      "t": 70588.1399999999,
      "d": 152.31071874999907,
      "v": 75
    },
    {
      "midi": 48,
      "hit": false,
      "t": 70924.2739999999,
      "d": 309.8735312499921,
      "v": 75
    },
    {
      "midi": 60,
      "hit": false,
      "t": 71092.3409999999,
      "d": 252.10050000000047,
      "v": 60
    },
    {
      "midi": 64,
      "hit": false,
      "t": 71092.3409999999,
      "d": 252.10050000000047,
      "v": 60
    },
    {
      "midi": 67,
      "hit": false,
      "t": 71092.3409999999,
      "d": 252.10050000000047,
      "v": 60
    },
    {
      "midi": 55,
      "hit": false,
      "t": 71092.34100000003,
      "d": 299.3693437500042,
      "v": 35
    },
    {
      "midi": 60,
      "hit": false,
      "t": 71092.34100000003,
      "d": 299.3693437500042,
      "v": 35
    },
    {
      "midi": 64,
      "hit": false,
      "t": 71092.34100000003,
      "d": 299.3693437500042,
      "v": 35
    },
    {
      "midi": 48,
      "hit": false,
      "t": 71428.4749999999,
      "d": 309.8735312499921,
      "v": 75
    },
    {
      "midi": 60,
      "hit": false,
      "t": 71596.5419999999,
      "d": 252.10050000000047,
      "v": 60
    },
    {
      "midi": 62,
      "hit": false,
      "t": 71596.5419999999,
      "d": 252.10050000000047,
      "v": 60
    },
    {
      "midi": 67,
      "hit": false,
      "t": 71596.5419999999,
      "d": 252.10050000000047,
      "v": 60
    },
    {
      "midi": 55,
      "hit": false,
      "t": 71596.54200000003,
      "d": 299.3693437500042,
      "v": 35
    },
    {
      "midi": 60,
      "hit": false,
      "t": 71596.54200000003,
      "d": 299.3693437500042,
      "v": 35
    },
    {
      "midi": 62,
      "hit": false,
      "t": 71596.54200000003,
      "d": 299.3693437500042,
      "v": 35
    },
    {
      "midi": 48,
      "hit": false,
      "t": 71932.6759999999,
      "d": 309.87353125000664,
      "v": 75
    },
    {
      "midi": 60,
      "hit": false,
      "t": 71932.6759999999,
      "d": 561.9740312500071,
      "v": 60
    },
    {
      "midi": 64,
      "hit": false,
      "t": 71932.6759999999,
      "d": 561.9740312500071,
      "v": 60
    },
    {
      "midi": 67,
      "hit": false,
      "t": 71932.6759999999,
      "d": 561.9740312500071,
      "v": 60
    },
    {
      "midi": 55,
      "hit": false,
      "t": 71932.67600000004,
      "d": 803.5703437500051,
      "v": 35
    },
    {
      "midi": 60,
      "hit": false,
      "t": 71932.67600000004,
      "d": 803.5703437500051,
      "v": 35
    },
    {
      "midi": 64,
      "hit": false,
      "t": 71932.67600000004,
      "d": 803.5703437500051,
      "v": 35
    },
    {
      "midi": 43,
      "hit": false,
      "t": 72436.8769999999,
      "d": 152.31071874999907,
      "v": 75
    },
    {
      "midi": 48,
      "hit": false,
      "t": 72604.9439999999,
      "d": 309.87353125000664,
      "v": 79
    },
    {
      "midi": 48,
      "hit": false,
      "t": 72941.0779999999,
      "d": 309.8735312499921,
      "v": 79
    },
    {
      "midi": 60,
      "hit": false,
      "t": 73109.1449999999,
      "d": 252.10050000000047,
      "v": 64
    },
    {
      "midi": 64,
      "hit": false,
      "t": 73109.1449999999,
      "d": 252.10050000000047,
      "v": 64
    },
    {
      "midi": 67,
      "hit": false,
      "t": 73109.1449999999,
      "d": 252.10050000000047,
      "v": 64
    },
    {
      "midi": 55,
      "hit": false,
      "t": 73109.14500000005,
      "d": 299.3693437500042,
      "v": 39
    },
    {
      "midi": 60,
      "hit": false,
      "t": 73109.14500000005,
      "d": 299.3693437500042,
      "v": 39
    },
    {
      "midi": 64,
      "hit": false,
      "t": 73109.14500000005,
      "d": 299.3693437500042,
      "v": 39
    },
    {
      "midi": 48,
      "hit": false,
      "t": 73445.27899999991,
      "d": 309.8735312499921,
      "v": 79
    },
    {
      "midi": 60,
      "hit": false,
      "t": 73613.3459999999,
      "d": 252.10050000000047,
      "v": 64
    },
    {
      "midi": 62,
      "hit": false,
      "t": 73613.3459999999,
      "d": 252.10050000000047,
      "v": 64
    },
    {
      "midi": 67,
      "hit": false,
      "t": 73613.3459999999,
      "d": 252.10050000000047,
      "v": 64
    },
    {
      "midi": 55,
      "hit": false,
      "t": 73613.34600000005,
      "d": 299.3693437500042,
      "v": 39
    },
    {
      "midi": 60,
      "hit": false,
      "t": 73613.34600000005,
      "d": 299.3693437500042,
      "v": 39
    },
    {
      "midi": 62,
      "hit": false,
      "t": 73613.34600000005,
      "d": 299.3693437500042,
      "v": 39
    },
    {
      "midi": 48,
      "hit": false,
      "t": 73949.47999999991,
      "d": 309.87353125000664,
      "v": 79
    },
    {
      "midi": 60,
      "hit": false,
      "t": 73949.47999999991,
      "d": 561.9740312500071,
      "v": 64
    },
    {
      "midi": 64,
      "hit": false,
      "t": 73949.47999999991,
      "d": 561.9740312500071,
      "v": 64
    },
    {
      "midi": 67,
      "hit": false,
      "t": 73949.47999999991,
      "d": 561.9740312500071,
      "v": 64
    },
    {
      "midi": 52,
      "hit": false,
      "t": 73949.48000000005,
      "d": 635.5033437499951,
      "v": 39
    },
    {
      "midi": 55,
      "hit": false,
      "t": 73949.48000000005,
      "d": 635.5033437499951,
      "v": 39
    },
    {
      "midi": 60,
      "hit": false,
      "t": 73949.48000000005,
      "d": 635.5033437499951,
      "v": 39
    },
    {
      "midi": 43,
      "hit": false,
      "t": 74453.68099999991,
      "d": 152.31071874999907,
      "v": 79
    },
    {
      "midi": 47,
      "hit": false,
      "t": 74621.7479999999,
      "d": 309.87353125000664,
      "v": 84
    },
    {
      "midi": 47,
      "hit": false,
      "t": 74957.88199999991,
      "d": 309.8735312499921,
      "v": 84
    },
    {
      "midi": 63,
      "hit": false,
      "t": 75125.9489999999,
      "d": 467.4363437499851,
      "v": 69
    },
    {
      "midi": 66,
      "hit": false,
      "t": 75125.9489999999,
      "d": 467.4363437499851,
      "v": 69
    },
    {
      "midi": 71,
      "hit": false,
      "t": 75125.9489999999,
      "d": 467.4363437499851,
      "v": 69
    },
    {
      "midi": 54,
      "hit": false,
      "t": 75125.94900000005,
      "d": 467.43634374999965,
      "v": 44
    },
    {
      "midi": 59,
      "hit": false,
      "t": 75125.94900000005,
      "d": 467.43634374999965,
      "v": 44
    },
    {
      "midi": 63,
      "hit": false,
      "t": 75125.94900000005,
      "d": 467.43634374999965,
      "v": 44
    },
    {
      "midi": 47,
      "hit": false,
      "t": 75462.0829999999,
      "d": 309.8735312499921,
      "v": 84
    },
    {
      "midi": 61,
      "hit": false,
      "t": 75630.14999999989,
      "d": 252.10050000000047,
      "v": 69
    },
    {
      "midi": 66,
      "hit": false,
      "t": 75630.14999999989,
      "d": 252.10050000000047,
      "v": 69
    },
    {
      "midi": 71,
      "hit": false,
      "t": 75630.14999999989,
      "d": 252.10050000000047,
      "v": 69
    },
    {
      "midi": 54,
      "hit": false,
      "t": 75630.15000000005,
      "d": 299.3693437500042,
      "v": 44
    },
    {
      "midi": 59,
      "hit": false,
      "t": 75630.15000000005,
      "d": 299.3693437500042,
      "v": 44
    },
    {
      "midi": 61,
      "hit": false,
      "t": 75630.15000000005,
      "d": 299.3693437500042,
      "v": 44
    },
    {
      "midi": 47,
      "hit": false,
      "t": 75966.2839999999,
      "d": 309.87353125000664,
      "v": 84
    },
    {
      "midi": 63,
      "hit": false,
      "t": 75966.2839999999,
      "d": 561.9740312500071,
      "v": 69
    },
    {
      "midi": 66,
      "hit": false,
      "t": 75966.2839999999,
      "d": 561.9740312500071,
      "v": 69
    },
    {
      "midi": 71,
      "hit": false,
      "t": 75966.2839999999,
      "d": 561.9740312500071,
      "v": 69
    },
    {
      "midi": 54,
      "hit": false,
      "t": 75966.28400000006,
      "d": 803.5703437500051,
      "v": 44
    },
    {
      "midi": 59,
      "hit": false,
      "t": 75966.28400000006,
      "d": 803.5703437500051,
      "v": 44
    },
    {
      "midi": 63,
      "hit": false,
      "t": 75966.28400000006,
      "d": 803.5703437500051,
      "v": 44
    },
    {
      "midi": 47,
      "hit": false,
      "t": 76470.4849999999,
      "d": 152.31071874999907,
      "v": 84
    },
    {
      "midi": 47,
      "hit": false,
      "t": 76638.5519999999,
      "d": 309.87353125000664,
      "v": 88
    },
    {
      "midi": 47,
      "hit": false,
      "t": 76974.6859999999,
      "d": 152.31071874999907,
      "v": 88
    },
    {
      "midi": 47,
      "hit": false,
      "t": 77142.7529999999,
      "d": 309.87353125000664,
      "v": 88
    },
    {
      "midi": 63,
      "hit": false,
      "t": 77142.7529999999,
      "d": 467.43634374999965,
      "v": 73
    },
    {
      "midi": 66,
      "hit": false,
      "t": 77142.7529999999,
      "d": 467.43634374999965,
      "v": 73
    },
    {
      "midi": 71,
      "hit": false,
      "t": 77142.7529999999,
      "d": 467.43634374999965,
      "v": 73
    },
    {
      "midi": 54,
      "hit": false,
      "t": 77142.75300000007,
      "d": 467.43634374999965,
      "v": 48
    },
    {
      "midi": 59,
      "hit": false,
      "t": 77142.75300000007,
      "d": 467.43634374999965,
      "v": 48
    },
    {
      "midi": 63,
      "hit": false,
      "t": 77142.75300000007,
      "d": 467.43634374999965,
      "v": 48
    },
    {
      "midi": 47,
      "hit": false,
      "t": 77478.8869999999,
      "d": 152.31071874999907,
      "v": 88
    },
    {
      "midi": 49,
      "hit": false,
      "t": 77646.9539999999,
      "d": 309.87353125000664,
      "v": 88
    },
    {
      "midi": 61,
      "hit": false,
      "t": 77646.9539999999,
      "d": 467.43634374999965,
      "v": 73
    },
    {
      "midi": 64,
      "hit": false,
      "t": 77646.9539999999,
      "d": 467.43634374999965,
      "v": 73
    },
    {
      "midi": 71,
      "hit": false,
      "t": 77646.9539999999,
      "d": 467.43634374999965,
      "v": 73
    },
    {
      "midi": 59,
      "hit": false,
      "t": 77646.95400000007,
      "d": 467.43634374999965,
      "v": 48
    },
    {
      "midi": 61,
      "hit": false,
      "t": 77646.95400000007,
      "d": 467.43634374999965,
      "v": 48
    },
    {
      "midi": 64,
      "hit": false,
      "t": 77646.95400000007,
      "d": 467.43634374999965,
      "v": 48
    },
    {
      "midi": 49,
      "hit": false,
      "t": 77983.0879999999,
      "d": 152.31071874999907,
      "v": 88
    },
    {
      "midi": 51,
      "hit": false,
      "t": 78151.1549999999,
      "d": 309.87353125000664,
      "v": 88
    },
    {
      "midi": 63,
      "hit": false,
      "t": 78151.1549999999,
      "d": 467.43634374999965,
      "v": 73
    },
    {
      "midi": 66,
      "hit": false,
      "t": 78151.1549999999,
      "d": 467.43634374999965,
      "v": 73
    },
    {
      "midi": 71,
      "hit": false,
      "t": 78151.1549999999,
      "d": 467.43634374999965,
      "v": 73
    },
    {
      "midi": 59,
      "hit": false,
      "t": 78151.15500000007,
      "d": 467.43634374999965,
      "v": 48
    },
    {
      "midi": 63,
      "hit": false,
      "t": 78151.15500000007,
      "d": 467.43634374999965,
      "v": 48
    },
    {
      "midi": 66,
      "hit": false,
      "t": 78151.15500000007,
      "d": 467.43634374999965,
      "v": 48
    },
    {
      "midi": 51,
      "hit": false,
      "t": 78487.2889999999,
      "d": 152.31071874999907,
      "v": 88
    },
    {
      "midi": 56,
      "hit": false,
      "t": 78655.3559999999,
      "d": 152.31071874999907,
      "v": 85
    },
    {
      "midi": 59,
      "hit": false,
      "t": 78655.3559999999,
      "d": 152.31071874999907,
      "v": 85
    },
    {
      "midi": 64,
      "hit": false,
      "t": 78655.3559999999,
      "d": 152.31071874999907,
      "v": 85
    },
    {
      "midi": 59,
      "hit": false,
      "t": 78655.35600000007,
      "d": 152.31071874999907,
      "v": 60
    },
    {
      "midi": 64,
      "hit": false,
      "t": 78655.35600000007,
      "d": 152.31071874999907,
      "v": 60
    },
    {
      "midi": 68,
      "hit": false,
      "t": 78655.35600000007,
      "d": 152.31071874999907,
      "v": 60
    },
    {
      "midi": 56,
      "hit": false,
      "t": 79159.5569999999,
      "d": 152.31071874999907,
      "v": 85
    },
    {
      "midi": 59,
      "hit": false,
      "t": 79159.5569999999,
      "d": 152.31071874999907,
      "v": 85
    },
    {
      "midi": 64,
      "hit": false,
      "t": 79159.5569999999,
      "d": 152.31071874999907,
      "v": 85
    },
    {
      "midi": 59,
      "hit": false,
      "t": 79159.55700000007,
      "d": 152.31071874999907,
      "v": 60
    },
    {
      "midi": 64,
      "hit": false,
      "t": 79159.55700000007,
      "d": 152.31071874999907,
      "v": 60
    },
    {
      "midi": 68,
      "hit": false,
      "t": 79159.55700000007,
      "d": 152.31071874999907,
      "v": 60
    },
    {
      "midi": 56,
      "hit": false,
      "t": 79663.7579999999,
      "d": 152.31071874999907,
      "v": 85
    },
    {
      "midi": 59,
      "hit": false,
      "t": 79663.7579999999,
      "d": 152.31071874999907,
      "v": 85
    },
    {
      "midi": 64,
      "hit": false,
      "t": 79663.7579999999,
      "d": 152.31071874999907,
      "v": 85
    },
    {
      "midi": 59,
      "hit": false,
      "t": 79663.75800000007,
      "d": 152.31071874999907,
      "v": 60
    },
    {
      "midi": 64,
      "hit": false,
      "t": 79663.75800000007,
      "d": 152.31071874999907,
      "v": 60
    },
    {
      "midi": 68,
      "hit": false,
      "t": 79663.75800000007,
      "d": 152.31071874999907,
      "v": 60
    },
    {
      "midi": 56,
      "hit": false,
      "t": 79999.8919999999,
      "d": 635.5033437499951,
      "v": 85
    },
    {
      "midi": 59,
      "hit": false,
      "t": 79999.8919999999,
      "d": 635.5033437499951,
      "v": 85
    },
    {
      "midi": 64,
      "hit": false,
      "t": 79999.8919999999,
      "d": 635.5033437499951,
      "v": 85
    },
    {
      "midi": 59,
      "hit": false,
      "t": 80167.95900000008,
      "d": 152.31071874999907,
      "v": 60
    },
    {
      "midi": 64,
      "hit": false,
      "t": 80167.95900000008,
      "d": 152.31071874999907,
      "v": 60
    },
    {
      "midi": 68,
      "hit": false,
      "t": 80167.95900000008,
      "d": 152.31071874999907,
      "v": 60
    },
    {
      "midi": 57,
      "hit": false,
      "t": 80672.1599999999,
      "d": 152.31071874999907,
      "v": 85
    },
    {
      "midi": 62,
      "hit": false,
      "t": 80672.1599999999,
      "d": 152.31071874999907,
      "v": 85
    },
    {
      "midi": 66,
      "hit": false,
      "t": 80672.1599999999,
      "d": 152.31071874999907,
      "v": 85
    },
    {
      "midi": 59,
      "hit": false,
      "t": 80672.16000000008,
      "d": 152.31071874999907,
      "v": 60
    },
    {
      "midi": 62,
      "hit": false,
      "t": 80672.16000000008,
      "d": 152.31071874999907,
      "v": 60
    },
    {
      "midi": 66,
      "hit": false,
      "t": 80672.16000000008,
      "d": 152.31071874999907,
      "v": 60
    },
    {
      "midi": 57,
      "hit": false,
      "t": 81176.3609999999,
      "d": 152.31071874999907,
      "v": 85
    },
    {
      "midi": 62,
      "hit": false,
      "t": 81176.3609999999,
      "d": 152.31071874999907,
      "v": 85
    },
    {
      "midi": 66,
      "hit": false,
      "t": 81176.3609999999,
      "d": 152.31071874999907,
      "v": 85
    },
    {
      "midi": 59,
      "hit": false,
      "t": 81176.36100000008,
      "d": 152.31071874999907,
      "v": 60
    },
    {
      "midi": 62,
      "hit": false,
      "t": 81176.36100000008,
      "d": 152.31071874999907,
      "v": 60
    },
    {
      "midi": 66,
      "hit": false,
      "t": 81176.36100000008,
      "d": 152.31071874999907,
      "v": 60
    },
    {
      "midi": 57,
      "hit": false,
      "t": 81680.5619999999,
      "d": 152.31071874999907,
      "v": 85
    },
    {
      "midi": 62,
      "hit": false,
      "t": 81680.5619999999,
      "d": 152.31071874999907,
      "v": 85
    },
    {
      "midi": 66,
      "hit": false,
      "t": 81680.5619999999,
      "d": 152.31071874999907,
      "v": 85
    },
    {
      "midi": 59,
      "hit": false,
      "t": 81680.56200000008,
      "d": 152.31071874999907,
      "v": 60
    },
    {
      "midi": 62,
      "hit": false,
      "t": 81680.56200000008,
      "d": 152.31071874999907,
      "v": 60
    },
    {
      "midi": 66,
      "hit": false,
      "t": 81680.56200000008,
      "d": 152.31071874999907,
      "v": 60
    },
    {
      "midi": 57,
      "hit": false,
      "t": 82016.69599999991,
      "d": 635.5033437499951,
      "v": 85
    },
    {
      "midi": 62,
      "hit": false,
      "t": 82016.69599999991,
      "d": 635.5033437499951,
      "v": 85
    },
    {
      "midi": 66,
      "hit": false,
      "t": 82016.69599999991,
      "d": 635.5033437499951,
      "v": 85
    },
    {
      "midi": 59,
      "hit": false,
      "t": 82184.76300000008,
      "d": 152.31071874999907,
      "v": 60
    },
    {
      "midi": 62,
      "hit": false,
      "t": 82184.76300000008,
      "d": 152.31071874999907,
      "v": 60
    },
    {
      "midi": 66,
      "hit": false,
      "t": 82184.76300000008,
      "d": 152.31071874999907,
      "v": 60
    },
    {
      "midi": 56,
      "hit": false,
      "t": 82688.9639999999,
      "d": 152.31071874999907,
      "v": 85
    },
    {
      "midi": 59,
      "hit": false,
      "t": 82688.9639999999,
      "d": 152.31071874999907,
      "v": 85
    },
    {
      "midi": 64,
      "hit": false,
      "t": 82688.9639999999,
      "d": 152.31071874999907,
      "v": 85
    },
    {
      "midi": 59,
      "hit": false,
      "t": 82688.96400000008,
      "d": 152.31071874999907,
      "v": 60
    },
    {
      "midi": 64,
      "hit": false,
      "t": 82688.96400000008,
      "d": 152.31071874999907,
      "v": 60
    },
    {
      "midi": 68,
      "hit": false,
      "t": 82688.96400000008,
      "d": 152.31071874999907,
      "v": 60
    },
    {
      "midi": 56,
      "hit": false,
      "t": 83193.1649999999,
      "d": 152.31071874999907,
      "v": 85
    },
    {
      "midi": 59,
      "hit": false,
      "t": 83193.1649999999,
      "d": 152.31071874999907,
      "v": 85
    },
    {
      "midi": 64,
      "hit": false,
      "t": 83193.1649999999,
      "d": 152.31071874999907,
      "v": 85
    },
    {
      "midi": 59,
      "hit": false,
      "t": 83193.16500000008,
      "d": 152.31071874999907,
      "v": 60
    },
    {
      "midi": 64,
      "hit": false,
      "t": 83193.16500000008,
      "d": 152.31071874999907,
      "v": 60
    },
    {
      "midi": 68,
      "hit": false,
      "t": 83193.16500000008,
      "d": 152.31071874999907,
      "v": 60
    },
    {
      "midi": 56,
      "hit": false,
      "t": 83697.3659999999,
      "d": 152.31071874999907,
      "v": 85
    },
    {
      "midi": 59,
      "hit": false,
      "t": 83697.3659999999,
      "d": 152.31071874999907,
      "v": 85
    },
    {
      "midi": 64,
      "hit": false,
      "t": 83697.3659999999,
      "d": 152.31071874999907,
      "v": 85
    },
    {
      "midi": 59,
      "hit": false,
      "t": 83697.36600000008,
      "d": 152.31071874999907,
      "v": 60
    },
    {
      "midi": 64,
      "hit": false,
      "t": 83697.36600000008,
      "d": 152.31071874999907,
      "v": 60
    },
    {
      "midi": 68,
      "hit": false,
      "t": 83697.36600000008,
      "d": 152.31071874999907,
      "v": 60
    },
    {
      "midi": 56,
      "hit": false,
      "t": 84033.49999999991,
      "d": 635.5033437499951,
      "v": 85
    },
    {
      "midi": 59,
      "hit": false,
      "t": 84033.49999999991,
      "d": 635.5033437499951,
      "v": 85
    },
    {
      "midi": 64,
      "hit": false,
      "t": 84033.49999999991,
      "d": 635.5033437499951,
      "v": 85
    },
    {
      "midi": 59,
      "hit": false,
      "t": 84201.56700000008,
      "d": 152.31071874999907,
      "v": 60
    },
    {
      "midi": 64,
      "hit": false,
      "t": 84201.56700000008,
      "d": 152.31071874999907,
      "v": 60
    },
    {
      "midi": 68,
      "hit": false,
      "t": 84201.56700000008,
      "d": 152.31071874999907,
      "v": 60
    },
    {
      "midi": 55,
      "hit": false,
      "t": 84705.76799999991,
      "d": 152.31071874999907,
      "v": 85
    },
    {
      "midi": 59,
      "hit": false,
      "t": 84705.76799999991,
      "d": 152.31071874999907,
      "v": 85
    },
    {
      "midi": 62,
      "hit": false,
      "t": 84705.76799999991,
      "d": 152.31071874999907,
      "v": 85
    },
    {
      "midi": 59,
      "hit": false,
      "t": 84705.76800000008,
      "d": 152.31071874999907,
      "v": 60
    },
    {
      "midi": 62,
      "hit": false,
      "t": 84705.76800000008,
      "d": 152.31071874999907,
      "v": 60
    },
    {
      "midi": 67,
      "hit": false,
      "t": 84705.76800000008,
      "d": 152.31071874999907,
      "v": 60
    },
    {
      "midi": 55,
      "hit": false,
      "t": 85209.96899999991,
      "d": 152.31071874999907,
      "v": 85
    },
    {
      "midi": 59,
      "hit": false,
      "t": 85209.96899999991,
      "d": 152.31071874999907,
      "v": 85
    },
    {
      "midi": 62,
      "hit": false,
      "t": 85209.96899999991,
      "d": 152.31071874999907,
      "v": 85
    },
    {
      "midi": 59,
      "hit": false,
      "t": 85209.96900000008,
      "d": 152.31071874999907,
      "v": 60
    },
    {
      "midi": 62,
      "hit": false,
      "t": 85209.96900000008,
      "d": 152.31071874999907,
      "v": 60
    },
    {
      "midi": 67,
      "hit": false,
      "t": 85209.96900000008,
      "d": 152.31071874999907,
      "v": 60
    },
    {
      "midi": 55,
      "hit": false,
      "t": 85714.16999999991,
      "d": 152.31071874999907,
      "v": 85
    },
    {
      "midi": 59,
      "hit": false,
      "t": 85714.16999999991,
      "d": 152.31071874999907,
      "v": 85
    },
    {
      "midi": 64,
      "hit": false,
      "t": 85714.16999999991,
      "d": 152.31071874999907,
      "v": 85
    },
    {
      "midi": 59,
      "hit": false,
      "t": 85714.17000000009,
      "d": 152.31071874999907,
      "v": 60
    },
    {
      "midi": 62,
      "hit": false,
      "t": 85714.17000000009,
      "d": 152.31071874999907,
      "v": 60
    },
    {
      "midi": 67,
      "hit": false,
      "t": 85714.17000000009,
      "d": 152.31071874999907,
      "v": 60
    },
    {
      "midi": 55,
      "hit": false,
      "t": 86050.30399999992,
      "d": 635.5033437499951,
      "v": 85
    },
    {
      "midi": 59,
      "hit": false,
      "t": 86050.30399999992,
      "d": 635.5033437499951,
      "v": 85
    },
    {
      "midi": 62,
      "hit": false,
      "t": 86050.30399999992,
      "d": 635.5033437499951,
      "v": 85
    },
    {
      "midi": 59,
      "hit": false,
      "t": 86218.37100000009,
      "d": 152.31071874999907,
      "v": 60
    },
    {
      "midi": 62,
      "hit": false,
      "t": 86218.37100000009,
      "d": 152.31071874999907,
      "v": 60
    },
    {
      "midi": 67,
      "hit": false,
      "t": 86218.37100000009,
      "d": 152.31071874999907,
      "v": 60
    },
    {
      "midi": 56,
      "hit": false,
      "t": 86722.57199999991,
      "d": 152.31071874999907,
      "v": 85
    },
    {
      "midi": 59,
      "hit": false,
      "t": 86722.57199999991,
      "d": 152.31071874999907,
      "v": 85
    },
    {
      "midi": 64,
      "hit": false,
      "t": 86722.57199999991,
      "d": 152.31071874999907,
      "v": 85
    },
    {
      "midi": 59,
      "hit": false,
      "t": 86722.57200000009,
      "d": 152.31071874999907,
      "v": 60
    },
    {
      "midi": 64,
      "hit": false,
      "t": 86722.57200000009,
      "d": 152.31071874999907,
      "v": 60
    },
    {
      "midi": 68,
      "hit": false,
      "t": 86722.57200000009,
      "d": 152.31071874999907,
      "v": 60
    },
    {
      "midi": 56,
      "hit": false,
      "t": 87226.77299999991,
      "d": 152.31071874999907,
      "v": 85
    },
    {
      "midi": 59,
      "hit": false,
      "t": 87226.77299999991,
      "d": 152.31071874999907,
      "v": 85
    },
    {
      "midi": 64,
      "hit": false,
      "t": 87226.77299999991,
      "d": 152.31071874999907,
      "v": 85
    },
    {
      "midi": 59,
      "hit": false,
      "t": 87226.77300000009,
      "d": 152.31071874999907,
      "v": 60
    },
    {
      "midi": 64,
      "hit": false,
      "t": 87226.77300000009,
      "d": 152.31071874999907,
      "v": 60
    },
    {
      "midi": 68,
      "hit": false,
      "t": 87226.77300000009,
      "d": 152.31071874999907,
      "v": 60
    },
    {
      "midi": 56,
      "hit": false,
      "t": 87730.97399999991,
      "d": 152.31071874999907,
      "v": 85
    },
    {
      "midi": 59,
      "hit": false,
      "t": 87730.97399999991,
      "d": 152.31071874999907,
      "v": 85
    },
    {
      "midi": 64,
      "hit": false,
      "t": 87730.97399999991,
      "d": 152.31071874999907,
      "v": 85
    },
    {
      "midi": 59,
      "hit": false,
      "t": 87730.97400000009,
      "d": 152.31071874999907,
      "v": 60
    },
    {
      "midi": 64,
      "hit": false,
      "t": 87730.97400000009,
      "d": 152.31071874999907,
      "v": 60
    },
    {
      "midi": 68,
      "hit": false,
      "t": 87730.97400000009,
      "d": 152.31071874999907,
      "v": 60
    },
    {
      "midi": 56,
      "hit": false,
      "t": 88067.10799999992,
      "d": 635.5033437499951,
      "v": 85
    },
    {
      "midi": 59,
      "hit": false,
      "t": 88067.10799999992,
      "d": 635.5033437499951,
      "v": 85
    },
    {
      "midi": 64,
      "hit": false,
      "t": 88067.10799999992,
      "d": 635.5033437499951,
      "v": 85
    },
    {
      "midi": 59,
      "hit": false,
      "t": 88235.17500000009,
      "d": 152.31071874999907,
      "v": 60
    },
    {
      "midi": 64,
      "hit": false,
      "t": 88235.17500000009,
      "d": 152.31071874999907,
      "v": 60
    },
    {
      "midi": 68,
      "hit": false,
      "t": 88235.17500000009,
      "d": 152.31071874999907,
      "v": 60
    },
    {
      "midi": 57,
      "hit": false,
      "t": 88739.37599999992,
      "d": 152.31071874999907,
      "v": 85
    },
    {
      "midi": 62,
      "hit": false,
      "t": 88739.37599999992,
      "d": 152.31071874999907,
      "v": 85
    },
    {
      "midi": 66,
      "hit": false,
      "t": 88739.37599999992,
      "d": 152.31071874999907,
      "v": 85
    },
    {
      "midi": 59,
      "hit": false,
      "t": 88739.37600000009,
      "d": 152.31071874999907,
      "v": 60
    },
    {
      "midi": 62,
      "hit": false,
      "t": 88739.37600000009,
      "d": 152.31071874999907,
      "v": 60
    },
    {
      "midi": 66,
      "hit": false,
      "t": 88739.37600000009,
      "d": 152.31071874999907,
      "v": 60
    },
    {
      "midi": 57,
      "hit": false,
      "t": 89243.57699999992,
      "d": 152.31071874999907,
      "v": 85
    },
    {
      "midi": 62,
      "hit": false,
      "t": 89243.57699999992,
      "d": 152.31071874999907,
      "v": 85
    },
    {
      "midi": 66,
      "hit": false,
      "t": 89243.57699999992,
      "d": 152.31071874999907,
      "v": 85
    },
    {
      "midi": 59,
      "hit": false,
      "t": 89243.57700000009,
      "d": 152.31071874999907,
      "v": 60
    },
    {
      "midi": 62,
      "hit": false,
      "t": 89243.57700000009,
      "d": 152.31071874999907,
      "v": 60
    },
    {
      "midi": 66,
      "hit": false,
      "t": 89243.57700000009,
      "d": 152.31071874999907,
      "v": 60
    },
    {
      "midi": 57,
      "hit": false,
      "t": 89747.77799999992,
      "d": 152.31071874999907,
      "v": 85
    },
    {
      "midi": 62,
      "hit": false,
      "t": 89747.77799999992,
      "d": 152.31071874999907,
      "v": 85
    },
    {
      "midi": 66,
      "hit": false,
      "t": 89747.77799999992,
      "d": 152.31071874999907,
      "v": 85
    },
    {
      "midi": 59,
      "hit": false,
      "t": 89747.7780000001,
      "d": 152.31071874999907,
      "v": 60
    },
    {
      "midi": 62,
      "hit": false,
      "t": 89747.7780000001,
      "d": 152.31071874999907,
      "v": 60
    },
    {
      "midi": 66,
      "hit": false,
      "t": 89747.7780000001,
      "d": 152.31071874999907,
      "v": 60
    },
    {
      "midi": 57,
      "hit": false,
      "t": 90083.91199999992,
      "d": 635.5033437499951,
      "v": 85
    },
    {
      "midi": 62,
      "hit": false,
      "t": 90083.91199999992,
      "d": 635.5033437499951,
      "v": 85
    },
    {
      "midi": 66,
      "hit": false,
      "t": 90083.91199999992,
      "d": 635.5033437499951,
      "v": 85
    },
    {
      "midi": 59,
      "hit": false,
      "t": 90251.9790000001,
      "d": 152.31071874999907,
      "v": 60
    },
    {
      "midi": 62,
      "hit": false,
      "t": 90251.9790000001,
      "d": 152.31071874999907,
      "v": 60
    },
    {
      "midi": 66,
      "hit": false,
      "t": 90251.9790000001,
      "d": 152.31071874999907,
      "v": 60
    },
    {
      "midi": 56,
      "hit": false,
      "t": 90756.17999999992,
      "d": 152.31071874999907,
      "v": 85
    },
    {
      "midi": 59,
      "hit": false,
      "t": 90756.17999999992,
      "d": 152.31071874999907,
      "v": 85
    },
    {
      "midi": 64,
      "hit": false,
      "t": 90756.17999999992,
      "d": 152.31071874999907,
      "v": 85
    },
    {
      "midi": 59,
      "hit": false,
      "t": 90756.1800000001,
      "d": 152.31071874999907,
      "v": 60
    },
    {
      "midi": 64,
      "hit": false,
      "t": 90756.1800000001,
      "d": 152.31071874999907,
      "v": 60
    },
    {
      "midi": 68,
      "hit": false,
      "t": 90756.1800000001,
      "d": 152.31071874999907,
      "v": 60
    },
    {
      "midi": 56,
      "hit": false,
      "t": 91260.38099999992,
      "d": 152.31071874999907,
      "v": 85
    },
    {
      "midi": 59,
      "hit": false,
      "t": 91260.38099999992,
      "d": 152.31071874999907,
      "v": 85
    },
    {
      "midi": 64,
      "hit": false,
      "t": 91260.38099999992,
      "d": 152.31071874999907,
      "v": 85
    },
    {
      "midi": 59,
      "hit": false,
      "t": 91260.3810000001,
      "d": 152.31071874999907,
      "v": 60
    },
    {
      "midi": 64,
      "hit": false,
      "t": 91260.3810000001,
      "d": 152.31071874999907,
      "v": 60
    },
    {
      "midi": 68,
      "hit": false,
      "t": 91260.3810000001,
      "d": 152.31071874999907,
      "v": 60
    },
    {
      "midi": 56,
      "hit": false,
      "t": 91764.58199999992,
      "d": 152.31071874999907,
      "v": 85
    },
    {
      "midi": 59,
      "hit": false,
      "t": 91764.58199999992,
      "d": 152.31071874999907,
      "v": 85
    },
    {
      "midi": 64,
      "hit": false,
      "t": 91764.58199999992,
      "d": 152.31071874999907,
      "v": 85
    },
    {
      "midi": 59,
      "hit": false,
      "t": 91764.5820000001,
      "d": 152.31071874999907,
      "v": 60
    },
    {
      "midi": 64,
      "hit": false,
      "t": 91764.5820000001,
      "d": 152.31071874999907,
      "v": 60
    },
    {
      "midi": 68,
      "hit": false,
      "t": 91764.5820000001,
      "d": 152.31071874999907,
      "v": 60
    },
    {
      "midi": 56,
      "hit": false,
      "t": 92100.71599999993,
      "d": 635.5033437499951,
      "v": 85
    },
    {
      "midi": 59,
      "hit": false,
      "t": 92100.71599999993,
      "d": 635.5033437499951,
      "v": 85
    },
    {
      "midi": 64,
      "hit": false,
      "t": 92100.71599999993,
      "d": 635.5033437499951,
      "v": 85
    },
    {
      "midi": 59,
      "hit": false,
      "t": 92268.7830000001,
      "d": 152.31071874999907,
      "v": 60
    },
    {
      "midi": 64,
      "hit": false,
      "t": 92268.7830000001,
      "d": 152.31071874999907,
      "v": 60
    },
    {
      "midi": 68,
      "hit": false,
      "t": 92268.7830000001,
      "d": 152.31071874999907,
      "v": 60
    },
    {
      "midi": 55,
      "hit": false,
      "t": 92772.98399999992,
      "d": 152.31071874999907,
      "v": 85
    },
    {
      "midi": 59,
      "hit": false,
      "t": 92772.98399999992,
      "d": 152.31071874999907,
      "v": 85
    },
    {
      "midi": 62,
      "hit": false,
      "t": 92772.98399999992,
      "d": 152.31071874999907,
      "v": 85
    },
    {
      "midi": 59,
      "hit": false,
      "t": 92772.9840000001,
      "d": 152.31071874999907,
      "v": 60
    },
    {
      "midi": 62,
      "hit": false,
      "t": 92772.9840000001,
      "d": 152.31071874999907,
      "v": 60
    },
    {
      "midi": 67,
      "hit": false,
      "t": 92772.9840000001,
      "d": 152.31071874999907,
      "v": 60
    },
    {
      "midi": 55,
      "hit": false,
      "t": 93277.18499999992,
      "d": 152.31071874999907,
      "v": 85
    },
    {
      "midi": 59,
      "hit": false,
      "t": 93277.18499999992,
      "d": 152.31071874999907,
      "v": 85
    },
    {
      "midi": 62,
      "hit": false,
      "t": 93277.18499999992,
      "d": 152.31071874999907,
      "v": 85
    },
    {
      "midi": 59,
      "hit": false,
      "t": 93277.1850000001,
      "d": 152.31071874999907,
      "v": 60
    },
    {
      "midi": 62,
      "hit": false,
      "t": 93277.1850000001,
      "d": 152.31071874999907,
      "v": 60
    },
    {
      "midi": 67,
      "hit": false,
      "t": 93277.1850000001,
      "d": 152.31071874999907,
      "v": 60
    },
    {
      "midi": 55,
      "hit": false,
      "t": 93781.38599999993,
      "d": 152.31071874999907,
      "v": 85
    },
    {
      "midi": 59,
      "hit": false,
      "t": 93781.38599999993,
      "d": 152.31071874999907,
      "v": 85
    },
    {
      "midi": 64,
      "hit": false,
      "t": 93781.38599999993,
      "d": 152.31071874999907,
      "v": 85
    },
    {
      "midi": 59,
      "hit": false,
      "t": 93781.3860000001,
      "d": 152.31071874999907,
      "v": 60
    },
    {
      "midi": 62,
      "hit": false,
      "t": 93781.3860000001,
      "d": 152.31071874999907,
      "v": 60
    },
    {
      "midi": 67,
      "hit": false,
      "t": 93781.3860000001,
      "d": 152.31071874999907,
      "v": 60
    },
    {
      "midi": 59,
      "hit": false,
      "t": 94117.51999999993,
      "d": 456.9321562499972,
      "v": 85
    },
    {
      "midi": 62,
      "hit": false,
      "t": 94117.51999999993,
      "d": 456.9321562499972,
      "v": 85
    },
    {
      "midi": 55,
      "hit": false,
      "t": 94117.51999999993,
      "d": 462.18424999999115,
      "v": 85
    },
    {
      "midi": 59,
      "hit": false,
      "t": 94285.5870000001,
      "d": 152.31071874999907,
      "v": 60
    },
    {
      "midi": 62,
      "hit": false,
      "t": 94285.5870000001,
      "d": 152.31071874999907,
      "v": 60
    },
    {
      "midi": 67,
      "hit": false,
      "t": 94285.5870000001,
      "d": 152.31071874999907,
      "v": 60
    },
    {
      "midi": 64,
      "hit": false,
      "t": 111428.42099999991,
      "d": 252.10050000000047,
      "v": 70
    },
    {
      "midi": 67,
      "hit": false,
      "t": 111428.42099999991,
      "d": 252.10050000000047,
      "v": 70
    },
    {
      "midi": 71,
      "hit": false,
      "t": 111428.42099999991,
      "d": 252.10050000000047,
      "v": 70
    },
    {
      "midi": 59,
      "hit": false,
      "t": 111428.4210000001,
      "d": 225.84003125000163,
      "v": 45
    },
    {
      "midi": 64,
      "hit": false,
      "t": 111428.4210000001,
      "d": 225.84003125000163,
      "v": 45
    },
    {
      "midi": 67,
      "hit": false,
      "t": 111428.4210000001,
      "d": 225.84003125000163,
      "v": 45
    },
    {
      "midi": 64,
      "hit": false,
      "t": 111932.62199999992,
      "d": 252.10050000000047,
      "v": 70
    },
    {
      "midi": 66,
      "hit": false,
      "t": 111932.62199999992,
      "d": 252.10050000000047,
      "v": 70
    },
    {
      "midi": 71,
      "hit": false,
      "t": 111932.62199999992,
      "d": 252.10050000000047,
      "v": 70
    },
    {
      "midi": 59,
      "hit": false,
      "t": 111932.6220000001,
      "d": 225.84003125000163,
      "v": 45
    },
    {
      "midi": 64,
      "hit": false,
      "t": 111932.6220000001,
      "d": 225.84003125000163,
      "v": 45
    },
    {
      "midi": 66,
      "hit": false,
      "t": 111932.6220000001,
      "d": 225.84003125000163,
      "v": 45
    },
    {
      "midi": 64,
      "hit": false,
      "t": 112268.75599999992,
      "d": 446.42796874999476,
      "v": 70
    },
    {
      "midi": 67,
      "hit": false,
      "t": 112268.75599999992,
      "d": 446.42796874999476,
      "v": 70
    },
    {
      "midi": 71,
      "hit": false,
      "t": 112268.75599999992,
      "d": 446.42796874999476,
      "v": 70
    },
    {
      "midi": 59,
      "hit": false,
      "t": 112268.75600000011,
      "d": 624.9991562500072,
      "v": 45
    },
    {
      "midi": 64,
      "hit": false,
      "t": 112268.75600000011,
      "d": 624.9991562500072,
      "v": 45
    },
    {
      "midi": 67,
      "hit": false,
      "t": 112268.75600000011,
      "d": 624.9991562500072,
      "v": 45
    },
    {
      "midi": 64,
      "hit": false,
      "t": 113445.22499999992,
      "d": 252.10050000000047,
      "v": 70
    },
    {
      "midi": 67,
      "hit": false,
      "t": 113445.22499999992,
      "d": 252.10050000000047,
      "v": 70
    },
    {
      "midi": 71,
      "hit": false,
      "t": 113445.22499999992,
      "d": 252.10050000000047,
      "v": 70
    },
    {
      "midi": 59,
      "hit": false,
      "t": 113445.22500000012,
      "d": 225.84003125000163,
      "v": 45
    },
    {
      "midi": 64,
      "hit": false,
      "t": 113445.22500000012,
      "d": 225.84003125000163,
      "v": 45
    },
    {
      "midi": 67,
      "hit": false,
      "t": 113445.22500000012,
      "d": 225.84003125000163,
      "v": 45
    },
    {
      "midi": 64,
      "hit": false,
      "t": 113949.42599999992,
      "d": 252.10050000000047,
      "v": 70
    },
    {
      "midi": 66,
      "hit": false,
      "t": 113949.42599999992,
      "d": 252.10050000000047,
      "v": 70
    },
    {
      "midi": 71,
      "hit": false,
      "t": 113949.42599999992,
      "d": 252.10050000000047,
      "v": 70
    },
    {
      "midi": 59,
      "hit": false,
      "t": 113949.42600000012,
      "d": 225.84003125000163,
      "v": 45
    },
    {
      "midi": 64,
      "hit": false,
      "t": 113949.42600000012,
      "d": 225.84003125000163,
      "v": 45
    },
    {
      "midi": 66,
      "hit": false,
      "t": 113949.42600000012,
      "d": 225.84003125000163,
      "v": 45
    },
    {
      "midi": 64,
      "hit": false,
      "t": 114285.55999999992,
      "d": 446.42796874999476,
      "v": 70
    },
    {
      "midi": 67,
      "hit": false,
      "t": 114285.55999999992,
      "d": 446.42796874999476,
      "v": 70
    },
    {
      "midi": 71,
      "hit": false,
      "t": 114285.55999999992,
      "d": 446.42796874999476,
      "v": 70
    },
    {
      "midi": 59,
      "hit": false,
      "t": 114285.56000000013,
      "d": 624.9991562500072,
      "v": 45
    },
    {
      "midi": 64,
      "hit": false,
      "t": 114285.56000000013,
      "d": 624.9991562500072,
      "v": 45
    },
    {
      "midi": 67,
      "hit": false,
      "t": 114285.56000000013,
      "d": 624.9991562500072,
      "v": 45
    },
    {
      "midi": 62,
      "hit": false,
      "t": 115462.02899999992,
      "d": 252.10050000000047,
      "v": 70
    },
    {
      "midi": 66,
      "hit": false,
      "t": 115462.02899999992,
      "d": 252.10050000000047,
      "v": 70
    },
    {
      "midi": 69,
      "hit": false,
      "t": 115462.02899999992,
      "d": 252.10050000000047,
      "v": 70
    },
    {
      "midi": 62,
      "hit": false,
      "t": 115462.02900000014,
      "d": 225.84003125000163,
      "v": 45
    },
    {
      "midi": 66,
      "hit": false,
      "t": 115462.02900000014,
      "d": 225.84003125000163,
      "v": 45
    },
    {
      "midi": 69,
      "hit": false,
      "t": 115462.02900000014,
      "d": 225.84003125000163,
      "v": 45
    },
    {
      "midi": 62,
      "hit": false,
      "t": 115966.22999999992,
      "d": 252.10050000000047,
      "v": 70
    },
    {
      "midi": 64,
      "hit": false,
      "t": 115966.22999999992,
      "d": 252.10050000000047,
      "v": 70
    },
    {
      "midi": 69,
      "hit": false,
      "t": 115966.22999999992,
      "d": 252.10050000000047,
      "v": 70
    },
    {
      "midi": 62,
      "hit": false,
      "t": 115966.23000000014,
      "d": 225.84003125000163,
      "v": 45
    },
    {
      "midi": 64,
      "hit": false,
      "t": 115966.23000000014,
      "d": 225.84003125000163,
      "v": 45
    },
    {
      "midi": 69,
      "hit": false,
      "t": 115966.23000000014,
      "d": 225.84003125000163,
      "v": 45
    },
    {
      "midi": 62,
      "hit": false,
      "t": 116302.36399999993,
      "d": 446.42796874999476,
      "v": 70
    },
    {
      "midi": 66,
      "hit": false,
      "t": 116302.36399999993,
      "d": 446.42796874999476,
      "v": 70
    },
    {
      "midi": 69,
      "hit": false,
      "t": 116302.36399999993,
      "d": 446.42796874999476,
      "v": 70
    },
    {
      "midi": 62,
      "hit": false,
      "t": 116302.36400000015,
      "d": 624.9991562500072,
      "v": 45
    },
    {
      "midi": 66,
      "hit": false,
      "t": 116302.36400000015,
      "d": 624.9991562500072,
      "v": 45
    },
    {
      "midi": 69,
      "hit": false,
      "t": 116302.36400000015,
      "d": 624.9991562500072,
      "v": 45
    },
    {
      "midi": 62,
      "hit": false,
      "t": 117478.83299999993,
      "d": 252.10050000000047,
      "v": 70
    },
    {
      "midi": 66,
      "hit": false,
      "t": 117478.83299999993,
      "d": 252.10050000000047,
      "v": 70
    },
    {
      "midi": 69,
      "hit": false,
      "t": 117478.83299999993,
      "d": 252.10050000000047,
      "v": 70
    },
    {
      "midi": 62,
      "hit": false,
      "t": 117478.83300000016,
      "d": 225.84003125000163,
      "v": 45
    },
    {
      "midi": 66,
      "hit": false,
      "t": 117478.83300000016,
      "d": 225.84003125000163,
      "v": 45
    },
    {
      "midi": 69,
      "hit": false,
      "t": 117478.83300000016,
      "d": 225.84003125000163,
      "v": 45
    },
    {
      "midi": 62,
      "hit": false,
      "t": 117983.03399999993,
      "d": 252.10050000000047,
      "v": 70
    },
    {
      "midi": 64,
      "hit": false,
      "t": 117983.03399999993,
      "d": 252.10050000000047,
      "v": 70
    },
    {
      "midi": 69,
      "hit": false,
      "t": 117983.03399999993,
      "d": 252.10050000000047,
      "v": 70
    },
    {
      "midi": 62,
      "hit": false,
      "t": 117983.03400000016,
      "d": 225.84003125000163,
      "v": 45
    },
    {
      "midi": 64,
      "hit": false,
      "t": 117983.03400000016,
      "d": 225.84003125000163,
      "v": 45
    },
    {
      "midi": 69,
      "hit": false,
      "t": 117983.03400000016,
      "d": 225.84003125000163,
      "v": 45
    },
    {
      "midi": 62,
      "hit": false,
      "t": 118319.16799999993,
      "d": 446.42796874999476,
      "v": 70
    },
    {
      "midi": 66,
      "hit": false,
      "t": 118319.16799999993,
      "d": 446.42796874999476,
      "v": 70
    },
    {
      "midi": 69,
      "hit": false,
      "t": 118319.16799999993,
      "d": 446.42796874999476,
      "v": 70
    },
    {
      "midi": 62,
      "hit": false,
      "t": 118319.16800000017,
      "d": 624.9991562500072,
      "v": 45
    },
    {
      "midi": 66,
      "hit": false,
      "t": 118319.16800000017,
      "d": 624.9991562500072,
      "v": 45
    },
    {
      "midi": 69,
      "hit": false,
      "t": 118319.16800000017,
      "d": 624.9991562500072,
      "v": 45
    },
    {
      "midi": 60,
      "hit": false,
      "t": 119495.63699999993,
      "d": 252.10050000000047,
      "v": 70
    },
    {
      "midi": 64,
      "hit": false,
      "t": 119495.63699999993,
      "d": 252.10050000000047,
      "v": 70
    },
    {
      "midi": 67,
      "hit": false,
      "t": 119495.63699999993,
      "d": 252.10050000000047,
      "v": 70
    },
    {
      "midi": 60,
      "hit": false,
      "t": 119495.63700000018,
      "d": 225.84003125000163,
      "v": 45
    },
    {
      "midi": 64,
      "hit": false,
      "t": 119495.63700000018,
      "d": 225.84003125000163,
      "v": 45
    },
    {
      "midi": 67,
      "hit": false,
      "t": 119495.63700000018,
      "d": 225.84003125000163,
      "v": 45
    },
    {
      "midi": 60,
      "hit": false,
      "t": 119999.83799999993,
      "d": 252.10050000000047,
      "v": 70
    },
    {
      "midi": 62,
      "hit": false,
      "t": 119999.83799999993,
      "d": 252.10050000000047,
      "v": 70
    },
    {
      "midi": 67,
      "hit": false,
      "t": 119999.83799999993,
      "d": 252.10050000000047,
      "v": 70
    },
    {
      "midi": 60,
      "hit": false,
      "t": 119999.83800000018,
      "d": 225.84003125000163,
      "v": 45
    },
    {
      "midi": 62,
      "hit": false,
      "t": 119999.83800000018,
      "d": 225.84003125000163,
      "v": 45
    },
    {
      "midi": 67,
      "hit": false,
      "t": 119999.83800000018,
      "d": 225.84003125000163,
      "v": 45
    },
    {
      "midi": 60,
      "hit": false,
      "t": 120335.97199999994,
      "d": 446.42796874999476,
      "v": 70
    },
    {
      "midi": 64,
      "hit": false,
      "t": 120335.97199999994,
      "d": 446.42796874999476,
      "v": 70
    },
    {
      "midi": 67,
      "hit": false,
      "t": 120335.97199999994,
      "d": 446.42796874999476,
      "v": 70
    },
    {
      "midi": 60,
      "hit": false,
      "t": 120335.97200000018,
      "d": 624.9991562500072,
      "v": 45
    },
    {
      "midi": 64,
      "hit": false,
      "t": 120335.97200000018,
      "d": 624.9991562500072,
      "v": 45
    },
    {
      "midi": 67,
      "hit": false,
      "t": 120335.97200000018,
      "d": 624.9991562500072,
      "v": 45
    },
    {
      "midi": 60,
      "hit": false,
      "t": 121512.44099999993,
      "d": 252.10050000000047,
      "v": 70
    },
    {
      "midi": 64,
      "hit": false,
      "t": 121512.44099999993,
      "d": 252.10050000000047,
      "v": 70
    },
    {
      "midi": 67,
      "hit": false,
      "t": 121512.44099999993,
      "d": 252.10050000000047,
      "v": 70
    },
    {
      "midi": 60,
      "hit": false,
      "t": 121512.4410000002,
      "d": 225.84003125000163,
      "v": 45
    },
    {
      "midi": 64,
      "hit": false,
      "t": 121512.4410000002,
      "d": 225.84003125000163,
      "v": 45
    },
    {
      "midi": 67,
      "hit": false,
      "t": 121512.4410000002,
      "d": 225.84003125000163,
      "v": 45
    },
    {
      "midi": 60,
      "hit": false,
      "t": 122016.64199999993,
      "d": 252.10050000000047,
      "v": 70
    },
    {
      "midi": 62,
      "hit": false,
      "t": 122016.64199999993,
      "d": 252.10050000000047,
      "v": 70
    },
    {
      "midi": 67,
      "hit": false,
      "t": 122016.64199999993,
      "d": 252.10050000000047,
      "v": 70
    },
    {
      "midi": 60,
      "hit": false,
      "t": 122016.6420000002,
      "d": 225.84003125000163,
      "v": 45
    },
    {
      "midi": 62,
      "hit": false,
      "t": 122016.6420000002,
      "d": 225.84003125000163,
      "v": 45
    },
    {
      "midi": 67,
      "hit": false,
      "t": 122016.6420000002,
      "d": 225.84003125000163,
      "v": 45
    },
    {
      "midi": 60,
      "hit": false,
      "t": 122352.77599999994,
      "d": 446.42796874999476,
      "v": 70
    },
    {
      "midi": 64,
      "hit": false,
      "t": 122352.77599999994,
      "d": 446.42796874999476,
      "v": 70
    },
    {
      "midi": 67,
      "hit": false,
      "t": 122352.77599999994,
      "d": 446.42796874999476,
      "v": 70
    },
    {
      "midi": 60,
      "hit": false,
      "t": 122352.7760000002,
      "d": 624.9991562500072,
      "v": 45
    },
    {
      "midi": 64,
      "hit": false,
      "t": 122352.7760000002,
      "d": 624.9991562500072,
      "v": 45
    },
    {
      "midi": 67,
      "hit": false,
      "t": 122352.7760000002,
      "d": 624.9991562500072,
      "v": 45
    },
    {
      "midi": 63,
      "hit": false,
      "t": 123529.24499999994,
      "d": 446.42796874999476,
      "v": 70
    },
    {
      "midi": 66,
      "hit": false,
      "t": 123529.24499999994,
      "d": 446.42796874999476,
      "v": 70
    },
    {
      "midi": 71,
      "hit": false,
      "t": 123529.24499999994,
      "d": 446.42796874999476,
      "v": 70
    },
    {
      "midi": 66,
      "hit": false,
      "t": 123529.24500000021,
      "d": 404.41121874999953,
      "v": 45
    },
    {
      "midi": 59,
      "hit": false,
      "t": 123529.24500000021,
      "d": 414.915406250002,
      "v": 45
    },
    {
      "midi": 63,
      "hit": false,
      "t": 123529.24500000021,
      "d": 414.915406250002,
      "v": 45
    },
    {
      "midi": 61,
      "hit": false,
      "t": 124033.44599999994,
      "d": 252.10050000000047,
      "v": 70
    },
    {
      "midi": 66,
      "hit": false,
      "t": 124033.44599999994,
      "d": 252.10050000000047,
      "v": 70
    },
    {
      "midi": 71,
      "hit": false,
      "t": 124033.44599999994,
      "d": 252.10050000000047,
      "v": 70
    },
    {
      "midi": 59,
      "hit": false,
      "t": 124033.44600000021,
      "d": 225.84003125000163,
      "v": 45
    },
    {
      "midi": 61,
      "hit": false,
      "t": 124033.44600000021,
      "d": 225.84003125000163,
      "v": 45
    },
    {
      "midi": 66,
      "hit": false,
      "t": 124033.44600000021,
      "d": 225.84003125000163,
      "v": 45
    },
    {
      "midi": 63,
      "hit": false,
      "t": 124369.57999999994,
      "d": 803.5703437500051,
      "v": 70
    },
    {
      "midi": 66,
      "hit": false,
      "t": 124369.57999999994,
      "d": 803.5703437500051,
      "v": 70
    },
    {
      "midi": 71,
      "hit": false,
      "t": 124369.57999999994,
      "d": 803.5703437500051,
      "v": 70
    },
    {
      "midi": 59,
      "hit": false,
      "t": 124369.58000000022,
      "d": 803.5703437500051,
      "v": 45
    },
    {
      "midi": 63,
      "hit": false,
      "t": 124369.58000000022,
      "d": 803.5703437500051,
      "v": 45
    },
    {
      "midi": 66,
      "hit": false,
      "t": 124369.58000000022,
      "d": 803.5703437500051,
      "v": 45
    },
    {
      "midi": 64,
      "hit": false,
      "t": 125546.04899999996,
      "d": 446.42796874999476,
      "v": 73
    },
    {
      "midi": 67,
      "hit": false,
      "t": 125546.04899999996,
      "d": 446.42796874999476,
      "v": 73
    },
    {
      "midi": 71,
      "hit": false,
      "t": 125546.04899999996,
      "d": 446.42796874999476,
      "v": 73
    },
    {
      "midi": 59,
      "hit": false,
      "t": 125546.04900000023,
      "d": 362.3944687500043,
      "v": 48
    },
    {
      "midi": 64,
      "hit": false,
      "t": 125546.04900000023,
      "d": 362.3944687500043,
      "v": 48
    },
    {
      "midi": 67,
      "hit": false,
      "t": 125546.04900000023,
      "d": 372.89865625000675,
      "v": 48
    },
    {
      "midi": 66,
      "hit": false,
      "t": 126050.24999999996,
      "d": 252.10050000000047,
      "v": 73
    },
    {
      "midi": 67,
      "hit": false,
      "t": 126050.24999999996,
      "d": 252.10050000000047,
      "v": 73
    },
    {
      "midi": 71,
      "hit": false,
      "t": 126050.24999999996,
      "d": 252.10050000000047,
      "v": 73
    },
    {
      "midi": 59,
      "hit": false,
      "t": 126050.25000000023,
      "d": 225.84003125000163,
      "v": 48
    },
    {
      "midi": 66,
      "hit": false,
      "t": 126050.25000000023,
      "d": 225.84003125000163,
      "v": 48
    },
    {
      "midi": 67,
      "hit": false,
      "t": 126050.25000000023,
      "d": 225.84003125000163,
      "v": 48
    },
    {
      "midi": 64,
      "hit": false,
      "t": 126386.38399999996,
      "d": 446.42796874999476,
      "v": 73
    },
    {
      "midi": 67,
      "hit": false,
      "t": 126386.38399999996,
      "d": 446.42796874999476,
      "v": 73
    },
    {
      "midi": 71,
      "hit": false,
      "t": 126386.38399999996,
      "d": 446.42796874999476,
      "v": 73
    },
    {
      "midi": 59,
      "hit": false,
      "t": 126386.38400000024,
      "d": 624.9991562500072,
      "v": 48
    },
    {
      "midi": 64,
      "hit": false,
      "t": 126386.38400000024,
      "d": 624.9991562500072,
      "v": 48
    },
    {
      "midi": 67,
      "hit": false,
      "t": 126386.38400000024,
      "d": 624.9991562500072,
      "v": 48
    },
    {
      "midi": 63,
      "hit": false,
      "t": 127562.85299999996,
      "d": 446.42796874999476,
      "v": 76
    },
    {
      "midi": 66,
      "hit": false,
      "t": 127562.85299999996,
      "d": 446.42796874999476,
      "v": 76
    },
    {
      "midi": 71,
      "hit": false,
      "t": 127562.85299999996,
      "d": 446.42796874999476,
      "v": 76
    },
    {
      "midi": 66,
      "hit": false,
      "t": 127562.85300000025,
      "d": 351.89028125000186,
      "v": 51
    },
    {
      "midi": 59,
      "hit": false,
      "t": 127562.85300000025,
      "d": 362.3944687500043,
      "v": 51
    },
    {
      "midi": 63,
      "hit": false,
      "t": 127562.85300000025,
      "d": 372.89865625000675,
      "v": 51
    },
    {
      "midi": 61,
      "hit": false,
      "t": 128067.05399999996,
      "d": 252.10050000000047,
      "v": 76
    },
    {
      "midi": 66,
      "hit": false,
      "t": 128067.05399999996,
      "d": 252.10050000000047,
      "v": 76
    },
    {
      "midi": 71,
      "hit": false,
      "t": 128067.05399999996,
      "d": 252.10050000000047,
      "v": 76
    },
    {
      "midi": 59,
      "hit": false,
      "t": 128067.05400000025,
      "d": 225.84003125000163,
      "v": 51
    },
    {
      "midi": 61,
      "hit": false,
      "t": 128067.05400000025,
      "d": 225.84003125000163,
      "v": 51
    },
    {
      "midi": 66,
      "hit": false,
      "t": 128067.05400000025,
      "d": 225.84003125000163,
      "v": 51
    },
    {
      "midi": 63,
      "hit": false,
      "t": 128403.18799999997,
      "d": 803.5703437500051,
      "v": 76
    },
    {
      "midi": 66,
      "hit": false,
      "t": 128403.18799999997,
      "d": 803.5703437500051,
      "v": 76
    },
    {
      "midi": 71,
      "hit": false,
      "t": 128403.18799999997,
      "d": 803.5703437500051,
      "v": 76
    },
    {
      "midi": 59,
      "hit": false,
      "t": 128403.18800000026,
      "d": 803.5703437500051,
      "v": 51
    },
    {
      "midi": 63,
      "hit": false,
      "t": 128403.18800000026,
      "d": 803.5703437500051,
      "v": 51
    },
    {
      "midi": 66,
      "hit": false,
      "t": 128403.18800000026,
      "d": 803.5703437500051,
      "v": 51
    },
    {
      "midi": 64,
      "hit": false,
      "t": 129579.65699999998,
      "d": 446.42796874999476,
      "v": 79
    },
    {
      "midi": 67,
      "hit": false,
      "t": 129579.65699999998,
      "d": 446.42796874999476,
      "v": 79
    },
    {
      "midi": 71,
      "hit": false,
      "t": 129579.65699999998,
      "d": 446.42796874999476,
      "v": 79
    },
    {
      "midi": 64,
      "hit": false,
      "t": 129579.65700000027,
      "d": 404.41121874999953,
      "v": 54
    },
    {
      "midi": 67,
      "hit": false,
      "t": 129579.65700000027,
      "d": 404.41121874999953,
      "v": 54
    },
    {
      "midi": 59,
      "hit": false,
      "t": 129579.65700000027,
      "d": 414.915406250002,
      "v": 54
    },
    {
      "midi": 66,
      "hit": false,
      "t": 130083.85799999998,
      "d": 252.10050000000047,
      "v": 79
    },
    {
      "midi": 67,
      "hit": false,
      "t": 130083.85799999998,
      "d": 252.10050000000047,
      "v": 79
    },
    {
      "midi": 71,
      "hit": false,
      "t": 130083.85799999998,
      "d": 252.10050000000047,
      "v": 79
    },
    {
      "midi": 59,
      "hit": false,
      "t": 130083.85800000027,
      "d": 225.84003125000163,
      "v": 54
    },
    {
      "midi": 66,
      "hit": false,
      "t": 130083.85800000027,
      "d": 225.84003125000163,
      "v": 54
    },
    {
      "midi": 67,
      "hit": false,
      "t": 130083.85800000027,
      "d": 225.84003125000163,
      "v": 54
    },
    {
      "midi": 64,
      "hit": false,
      "t": 130419.99199999998,
      "d": 446.42796874999476,
      "v": 79
    },
    {
      "midi": 67,
      "hit": false,
      "t": 130419.99199999998,
      "d": 446.42796874999476,
      "v": 79
    },
    {
      "midi": 71,
      "hit": false,
      "t": 130419.99199999998,
      "d": 446.42796874999476,
      "v": 79
    },
    {
      "midi": 59,
      "hit": false,
      "t": 130419.99200000027,
      "d": 624.9991562500072,
      "v": 54
    },
    {
      "midi": 64,
      "hit": false,
      "t": 130419.99200000027,
      "d": 624.9991562500072,
      "v": 54
    },
    {
      "midi": 67,
      "hit": false,
      "t": 130419.99200000027,
      "d": 624.9991562500072,
      "v": 54
    },
    {
      "midi": 63,
      "hit": false,
      "t": 131596.46099999998,
      "d": 446.4279687500093,
      "v": 81
    },
    {
      "midi": 66,
      "hit": false,
      "t": 131596.46099999998,
      "d": 446.4279687500093,
      "v": 81
    },
    {
      "midi": 71,
      "hit": false,
      "t": 131596.46099999998,
      "d": 446.4279687500093,
      "v": 81
    },
    {
      "midi": 59,
      "hit": false,
      "t": 131596.46100000027,
      "d": 404.41121874999953,
      "v": 56
    },
    {
      "midi": 63,
      "hit": false,
      "t": 131596.46100000027,
      "d": 425.4195937500044,
      "v": 56
    },
    {
      "midi": 66,
      "hit": false,
      "t": 131596.46100000027,
      "d": 425.4195937500044,
      "v": 56
    },
    {
      "midi": 61,
      "hit": false,
      "t": 132100.66199999998,
      "d": 252.10050000000047,
      "v": 81
    },
    {
      "midi": 66,
      "hit": false,
      "t": 132100.66199999998,
      "d": 252.10050000000047,
      "v": 81
    },
    {
      "midi": 71,
      "hit": false,
      "t": 132100.66199999998,
      "d": 252.10050000000047,
      "v": 81
    },
    {
      "midi": 59,
      "hit": false,
      "t": 132100.66200000027,
      "d": 225.84003125000163,
      "v": 56
    },
    {
      "midi": 61,
      "hit": false,
      "t": 132100.66200000027,
      "d": 225.84003125000163,
      "v": 56
    },
    {
      "midi": 66,
      "hit": false,
      "t": 132100.66200000027,
      "d": 225.84003125000163,
      "v": 56
    },
    {
      "midi": 63,
      "hit": false,
      "t": 132436.79599999997,
      "d": 803.5703437500051,
      "v": 81
    },
    {
      "midi": 66,
      "hit": false,
      "t": 132436.79599999997,
      "d": 803.5703437500051,
      "v": 81
    },
    {
      "midi": 71,
      "hit": false,
      "t": 132436.79599999997,
      "d": 803.5703437500051,
      "v": 81
    },
    {
      "midi": 59,
      "hit": false,
      "t": 132436.79600000026,
      "d": 803.5703437500051,
      "v": 56
    },
    {
      "midi": 63,
      "hit": false,
      "t": 132436.79600000026,
      "d": 803.5703437500051,
      "v": 56
    },
    {
      "midi": 66,
      "hit": false,
      "t": 132436.79600000026,
      "d": 803.5703437500051,
      "v": 56
    },
    {
      "midi": 64,
      "hit": false,
      "t": 133613.26499999998,
      "d": 446.4279687500093,
      "v": 83
    },
    {
      "midi": 67,
      "hit": false,
      "t": 133613.26499999998,
      "d": 446.4279687500093,
      "v": 83
    },
    {
      "midi": 71,
      "hit": false,
      "t": 133613.26499999998,
      "d": 446.4279687500093,
      "v": 83
    },
    {
      "midi": 67,
      "hit": false,
      "t": 133613.26500000028,
      "d": 393.90703125001164,
      "v": 58
    },
    {
      "midi": 59,
      "hit": false,
      "t": 133613.26500000028,
      "d": 404.41121874999953,
      "v": 58
    },
    {
      "midi": 64,
      "hit": false,
      "t": 133613.26500000028,
      "d": 404.41121874999953,
      "v": 58
    },
    {
      "midi": 66,
      "hit": false,
      "t": 134117.466,
      "d": 252.10050000000047,
      "v": 83
    },
    {
      "midi": 67,
      "hit": false,
      "t": 134117.466,
      "d": 252.10050000000047,
      "v": 83
    },
    {
      "midi": 71,
      "hit": false,
      "t": 134117.466,
      "d": 252.10050000000047,
      "v": 83
    },
    {
      "midi": 59,
      "hit": false,
      "t": 134117.46600000028,
      "d": 225.84003125000163,
      "v": 58
    },
    {
      "midi": 66,
      "hit": false,
      "t": 134117.46600000028,
      "d": 225.84003125000163,
      "v": 58
    },
    {
      "midi": 67,
      "hit": false,
      "t": 134117.46600000028,
      "d": 225.84003125000163,
      "v": 58
    },
    {
      "midi": 64,
      "hit": false,
      "t": 134453.59999999998,
      "d": 446.4279687500093,
      "v": 83
    },
    {
      "midi": 67,
      "hit": false,
      "t": 134453.59999999998,
      "d": 446.4279687500093,
      "v": 83
    },
    {
      "midi": 71,
      "hit": false,
      "t": 134453.59999999998,
      "d": 446.4279687500093,
      "v": 83
    },
    {
      "midi": 59,
      "hit": false,
      "t": 134453.60000000027,
      "d": 624.9991562500072,
      "v": 58
    },
    {
      "midi": 64,
      "hit": false,
      "t": 134453.60000000027,
      "d": 624.9991562500072,
      "v": 58
    },
    {
      "midi": 67,
      "hit": false,
      "t": 134453.60000000027,
      "d": 624.9991562500072,
      "v": 58
    },
    {
      "midi": 63,
      "hit": false,
      "t": 135630.069,
      "d": 446.4279687500093,
      "v": 85
    },
    {
      "midi": 66,
      "hit": false,
      "t": 135630.069,
      "d": 446.4279687500093,
      "v": 85
    },
    {
      "midi": 71,
      "hit": false,
      "t": 135630.069,
      "d": 446.4279687500093,
      "v": 85
    },
    {
      "midi": 66,
      "hit": false,
      "t": 135630.06900000028,
      "d": 362.39446874998976,
      "v": 60
    },
    {
      "midi": 59,
      "hit": false,
      "t": 135630.06900000028,
      "d": 372.89865624997765,
      "v": 60
    },
    {
      "midi": 63,
      "hit": false,
      "t": 135630.06900000028,
      "d": 372.89865624997765,
      "v": 60
    },
    {
      "midi": 61,
      "hit": false,
      "t": 136134.27,
      "d": 252.10050000000047,
      "v": 85
    },
    {
      "midi": 66,
      "hit": false,
      "t": 136134.27,
      "d": 252.10050000000047,
      "v": 85
    },
    {
      "midi": 71,
      "hit": false,
      "t": 136134.27,
      "d": 252.10050000000047,
      "v": 85
    },
    {
      "midi": 59,
      "hit": false,
      "t": 136134.27000000025,
      "d": 225.84003125000163,
      "v": 60
    },
    {
      "midi": 61,
      "hit": false,
      "t": 136134.27000000025,
      "d": 225.84003125000163,
      "v": 60
    },
    {
      "midi": 66,
      "hit": false,
      "t": 136134.27000000025,
      "d": 225.84003125000163,
      "v": 60
    },
    {
      "midi": 63,
      "hit": false,
      "t": 136470.40399999998,
      "d": 446.4279687500093,
      "v": 85
    },
    {
      "midi": 66,
      "hit": false,
      "t": 136470.40399999998,
      "d": 446.4279687500093,
      "v": 85
    },
    {
      "midi": 71,
      "hit": false,
      "t": 136470.40399999998,
      "d": 446.4279687500093,
      "v": 85
    },
    {
      "midi": 59,
      "hit": false,
      "t": 136470.40400000024,
      "d": 624.9991562500072,
      "v": 60
    },
    {
      "midi": 63,
      "hit": false,
      "t": 136470.40400000024,
      "d": 624.9991562500072,
      "v": 60
    },
    {
      "midi": 66,
      "hit": false,
      "t": 136470.40400000024,
      "d": 624.9991562500072,
      "v": 60
    },
    {
      "midi": 63,
      "hit": false,
      "t": 137142.672,
      "d": 446.4279687500093,
      "v": 87
    },
    {
      "midi": 66,
      "hit": false,
      "t": 137142.672,
      "d": 446.4279687500093,
      "v": 87
    },
    {
      "midi": 71,
      "hit": false,
      "t": 137142.672,
      "d": 446.4279687500093,
      "v": 87
    },
    {
      "midi": 63,
      "hit": false,
      "t": 137142.67200000025,
      "d": 393.90703125001164,
      "v": 62
    },
    {
      "midi": 59,
      "hit": false,
      "t": 137142.67200000025,
      "d": 404.41121874999953,
      "v": 62
    },
    {
      "midi": 66,
      "hit": false,
      "t": 137142.67200000025,
      "d": 404.41121874999953,
      "v": 62
    },
    {
      "midi": 63,
      "hit": false,
      "t": 137646.873,
      "d": 446.4279687500093,
      "v": 87
    },
    {
      "midi": 66,
      "hit": false,
      "t": 137646.873,
      "d": 446.4279687500093,
      "v": 87
    },
    {
      "midi": 71,
      "hit": false,
      "t": 137646.873,
      "d": 446.4279687500093,
      "v": 87
    },
    {
      "midi": 59,
      "hit": false,
      "t": 137646.87300000025,
      "d": 404.41121874999953,
      "v": 62
    },
    {
      "midi": 63,
      "hit": false,
      "t": 137646.87300000025,
      "d": 404.41121874999953,
      "v": 62
    },
    {
      "midi": 66,
      "hit": false,
      "t": 137646.87300000025,
      "d": 404.41121874999953,
      "v": 62
    },
    {
      "midi": 61,
      "hit": false,
      "t": 138151.074,
      "d": 252.10050000000047,
      "v": 87
    },
    {
      "midi": 64,
      "hit": false,
      "t": 138151.074,
      "d": 252.10050000000047,
      "v": 87
    },
    {
      "midi": 71,
      "hit": false,
      "t": 138151.074,
      "d": 252.10050000000047,
      "v": 87
    },
    {
      "midi": 59,
      "hit": false,
      "t": 138151.07400000026,
      "d": 225.84003125000163,
      "v": 62
    },
    {
      "midi": 61,
      "hit": false,
      "t": 138151.07400000026,
      "d": 225.84003125000163,
      "v": 62
    },
    {
      "midi": 64,
      "hit": false,
      "t": 138151.07400000026,
      "d": 225.84003125000163,
      "v": 62
    },
    {
      "midi": 63,
      "hit": false,
      "t": 138655.275,
      "d": 446.4279687500093,
      "v": 87
    },
    {
      "midi": 66,
      "hit": false,
      "t": 138655.275,
      "d": 446.4279687500093,
      "v": 87
    },
    {
      "midi": 71,
      "hit": false,
      "t": 138655.275,
      "d": 446.4279687500093,
      "v": 87
    },
    {
      "midi": 63,
      "hit": false,
      "t": 138655.27500000026,
      "d": 404.41121874999953,
      "v": 62
    },
    {
      "midi": 59,
      "hit": false,
      "t": 138655.27500000026,
      "d": 425.4195937500044,
      "v": 62
    },
    {
      "midi": 66,
      "hit": false,
      "t": 138655.27500000026,
      "d": 425.4195937500044,
      "v": 62
    },
    {
      "midi": 56,
      "hit": false,
      "t": 139159.476,
      "d": 152.31071874999907,
      "v": 85
    },
    {
      "midi": 59,
      "hit": false,
      "t": 139159.476,
      "d": 152.31071874999907,
      "v": 85
    },
    {
      "midi": 64,
      "hit": false,
      "t": 139159.476,
      "d": 152.31071874999907,
      "v": 85
    },
    {
      "midi": 59,
      "hit": false,
      "t": 139159.47600000026,
      "d": 152.31071874999907,
      "v": 60
    },
    {
      "midi": 64,
      "hit": false,
      "t": 139159.47600000026,
      "d": 152.31071874999907,
      "v": 60
    },
    {
      "midi": 68,
      "hit": false,
      "t": 139159.47600000026,
      "d": 152.31071874999907,
      "v": 60
    },
    {
      "midi": 56,
      "hit": false,
      "t": 139663.677,
      "d": 152.31071874999907,
      "v": 85
    },
    {
      "midi": 59,
      "hit": false,
      "t": 139663.677,
      "d": 152.31071874999907,
      "v": 85
    },
    {
      "midi": 64,
      "hit": false,
      "t": 139663.677,
      "d": 152.31071874999907,
      "v": 85
    },
    {
      "midi": 59,
      "hit": false,
      "t": 139663.67700000026,
      "d": 152.31071874999907,
      "v": 60
    },
    {
      "midi": 64,
      "hit": false,
      "t": 139663.67700000026,
      "d": 152.31071874999907,
      "v": 60
    },
    {
      "midi": 68,
      "hit": false,
      "t": 139663.67700000026,
      "d": 152.31071874999907,
      "v": 60
    },
    {
      "midi": 56,
      "hit": false,
      "t": 140167.878,
      "d": 152.31071874999907,
      "v": 85
    },
    {
      "midi": 59,
      "hit": false,
      "t": 140167.878,
      "d": 152.31071874999907,
      "v": 85
    },
    {
      "midi": 64,
      "hit": false,
      "t": 140167.878,
      "d": 152.31071874999907,
      "v": 85
    },
    {
      "midi": 59,
      "hit": false,
      "t": 140167.87800000026,
      "d": 152.31071874999907,
      "v": 60
    },
    {
      "midi": 64,
      "hit": false,
      "t": 140167.87800000026,
      "d": 152.31071874999907,
      "v": 60
    },
    {
      "midi": 68,
      "hit": false,
      "t": 140167.87800000026,
      "d": 152.31071874999907,
      "v": 60
    },
    {
      "midi": 56,
      "hit": false,
      "t": 140504.012,
      "d": 635.5033437499951,
      "v": 85
    },
    {
      "midi": 59,
      "hit": false,
      "t": 140504.012,
      "d": 635.5033437499951,
      "v": 85
    },
    {
      "midi": 64,
      "hit": false,
      "t": 140504.012,
      "d": 635.5033437499951,
      "v": 85
    },
    {
      "midi": 59,
      "hit": false,
      "t": 140672.07900000026,
      "d": 152.31071874999907,
      "v": 60
    },
    {
      "midi": 64,
      "hit": false,
      "t": 140672.07900000026,
      "d": 152.31071874999907,
      "v": 60
    },
    {
      "midi": 68,
      "hit": false,
      "t": 140672.07900000026,
      "d": 152.31071874999907,
      "v": 60
    },
    {
      "midi": 57,
      "hit": false,
      "t": 141176.27999999997,
      "d": 152.31071874999907,
      "v": 85
    },
    {
      "midi": 62,
      "hit": false,
      "t": 141176.27999999997,
      "d": 152.31071874999907,
      "v": 85
    },
    {
      "midi": 66,
      "hit": false,
      "t": 141176.27999999997,
      "d": 152.31071874999907,
      "v": 85
    },
    {
      "midi": 59,
      "hit": false,
      "t": 141176.28000000026,
      "d": 152.31071874999907,
      "v": 60
    },
    {
      "midi": 62,
      "hit": false,
      "t": 141176.28000000026,
      "d": 152.31071874999907,
      "v": 60
    },
    {
      "midi": 66,
      "hit": false,
      "t": 141176.28000000026,
      "d": 152.31071874999907,
      "v": 60
    },
    {
      "midi": 57,
      "hit": false,
      "t": 141680.48099999997,
      "d": 152.31071874999907,
      "v": 85
    },
    {
      "midi": 62,
      "hit": false,
      "t": 141680.48099999997,
      "d": 152.31071874999907,
      "v": 85
    },
    {
      "midi": 66,
      "hit": false,
      "t": 141680.48099999997,
      "d": 152.31071874999907,
      "v": 85
    },
    {
      "midi": 59,
      "hit": false,
      "t": 141680.48100000026,
      "d": 152.31071874999907,
      "v": 60
    },
    {
      "midi": 62,
      "hit": false,
      "t": 141680.48100000026,
      "d": 152.31071874999907,
      "v": 60
    },
    {
      "midi": 66,
      "hit": false,
      "t": 141680.48100000026,
      "d": 152.31071874999907,
      "v": 60
    },
    {
      "midi": 57,
      "hit": false,
      "t": 142184.68199999997,
      "d": 152.31071874999907,
      "v": 85
    },
    {
      "midi": 62,
      "hit": false,
      "t": 142184.68199999997,
      "d": 152.31071874999907,
      "v": 85
    },
    {
      "midi": 66,
      "hit": false,
      "t": 142184.68199999997,
      "d": 152.31071874999907,
      "v": 85
    },
    {
      "midi": 59,
      "hit": false,
      "t": 142184.68200000026,
      "d": 152.31071874999907,
      "v": 60
    },
    {
      "midi": 62,
      "hit": false,
      "t": 142184.68200000026,
      "d": 152.31071874999907,
      "v": 60
    },
    {
      "midi": 66,
      "hit": false,
      "t": 142184.68200000026,
      "d": 152.31071874999907,
      "v": 60
    },
    {
      "midi": 57,
      "hit": false,
      "t": 142520.81599999996,
      "d": 635.5033437499951,
      "v": 85
    },
    {
      "midi": 62,
      "hit": false,
      "t": 142520.81599999996,
      "d": 635.5033437499951,
      "v": 85
    },
    {
      "midi": 66,
      "hit": false,
      "t": 142520.81599999996,
      "d": 635.5033437499951,
      "v": 85
    },
    {
      "midi": 59,
      "hit": false,
      "t": 142688.88300000026,
      "d": 152.31071874999907,
      "v": 60
    },
    {
      "midi": 62,
      "hit": false,
      "t": 142688.88300000026,
      "d": 152.31071874999907,
      "v": 60
    },
    {
      "midi": 66,
      "hit": false,
      "t": 142688.88300000026,
      "d": 152.31071874999907,
      "v": 60
    },
    {
      "midi": 56,
      "hit": false,
      "t": 143193.08399999994,
      "d": 152.31071874999907,
      "v": 85
    },
    {
      "midi": 59,
      "hit": false,
      "t": 143193.08399999994,
      "d": 152.31071874999907,
      "v": 85
    },
    {
      "midi": 64,
      "hit": false,
      "t": 143193.08399999994,
      "d": 152.31071874999907,
      "v": 85
    },
    {
      "midi": 59,
      "hit": false,
      "t": 143193.08400000026,
      "d": 152.31071874999907,
      "v": 60
    },
    {
      "midi": 64,
      "hit": false,
      "t": 143193.08400000026,
      "d": 152.31071874999907,
      "v": 60
    },
    {
      "midi": 68,
      "hit": false,
      "t": 143193.08400000026,
      "d": 152.31071874999907,
      "v": 60
    },
    {
      "midi": 56,
      "hit": false,
      "t": 143697.28499999995,
      "d": 152.31071874999907,
      "v": 85
    },
    {
      "midi": 59,
      "hit": false,
      "t": 143697.28499999995,
      "d": 152.31071874999907,
      "v": 85
    },
    {
      "midi": 64,
      "hit": false,
      "t": 143697.28499999995,
      "d": 152.31071874999907,
      "v": 85
    },
    {
      "midi": 59,
      "hit": false,
      "t": 143697.28500000027,
      "d": 152.31071874999907,
      "v": 60
    },
    {
      "midi": 64,
      "hit": false,
      "t": 143697.28500000027,
      "d": 152.31071874999907,
      "v": 60
    },
    {
      "midi": 68,
      "hit": false,
      "t": 143697.28500000027,
      "d": 152.31071874999907,
      "v": 60
    },
    {
      "midi": 56,
      "hit": false,
      "t": 144201.48599999995,
      "d": 152.31071874999907,
      "v": 85
    },
    {
      "midi": 59,
      "hit": false,
      "t": 144201.48599999995,
      "d": 152.31071874999907,
      "v": 85
    },
    {
      "midi": 64,
      "hit": false,
      "t": 144201.48599999995,
      "d": 152.31071874999907,
      "v": 85
    },
    {
      "midi": 59,
      "hit": false,
      "t": 144201.48600000027,
      "d": 152.31071874999907,
      "v": 60
    },
    {
      "midi": 64,
      "hit": false,
      "t": 144201.48600000027,
      "d": 152.31071874999907,
      "v": 60
    },
    {
      "midi": 68,
      "hit": false,
      "t": 144201.48600000027,
      "d": 152.31071874999907,
      "v": 60
    },
    {
      "midi": 56,
      "hit": false,
      "t": 144537.61999999994,
      "d": 635.5033437499951,
      "v": 85
    },
    {
      "midi": 59,
      "hit": false,
      "t": 144537.61999999994,
      "d": 635.5033437499951,
      "v": 85
    },
    {
      "midi": 64,
      "hit": false,
      "t": 144537.61999999994,
      "d": 635.5033437499951,
      "v": 85
    },
    {
      "midi": 59,
      "hit": false,
      "t": 144705.68700000027,
      "d": 152.31071874999907,
      "v": 60
    },
    {
      "midi": 64,
      "hit": false,
      "t": 144705.68700000027,
      "d": 152.31071874999907,
      "v": 60
    },
    {
      "midi": 68,
      "hit": false,
      "t": 144705.68700000027,
      "d": 152.31071874999907,
      "v": 60
    },
    {
      "midi": 55,
      "hit": false,
      "t": 145209.88799999992,
      "d": 152.31071874999907,
      "v": 85
    },
    {
      "midi": 59,
      "hit": false,
      "t": 145209.88799999992,
      "d": 152.31071874999907,
      "v": 85
    },
    {
      "midi": 62,
      "hit": false,
      "t": 145209.88799999992,
      "d": 152.31071874999907,
      "v": 85
    },
    {
      "midi": 59,
      "hit": false,
      "t": 145209.88800000027,
      "d": 152.31071874999907,
      "v": 60
    },
    {
      "midi": 62,
      "hit": false,
      "t": 145209.88800000027,
      "d": 152.31071874999907,
      "v": 60
    },
    {
      "midi": 67,
      "hit": false,
      "t": 145209.88800000027,
      "d": 152.31071874999907,
      "v": 60
    },
    {
      "midi": 55,
      "hit": false,
      "t": 145714.08899999992,
      "d": 152.31071874999907,
      "v": 85
    },
    {
      "midi": 59,
      "hit": false,
      "t": 145714.08899999992,
      "d": 152.31071874999907,
      "v": 85
    },
    {
      "midi": 62,
      "hit": false,
      "t": 145714.08899999992,
      "d": 152.31071874999907,
      "v": 85
    },
    {
      "midi": 59,
      "hit": false,
      "t": 145714.08900000027,
      "d": 152.31071874999907,
      "v": 60
    },
    {
      "midi": 62,
      "hit": false,
      "t": 145714.08900000027,
      "d": 152.31071874999907,
      "v": 60
    },
    {
      "midi": 67,
      "hit": false,
      "t": 145714.08900000027,
      "d": 152.31071874999907,
      "v": 60
    },
    {
      "midi": 55,
      "hit": false,
      "t": 146218.28999999992,
      "d": 152.31071874999907,
      "v": 85
    },
    {
      "midi": 59,
      "hit": false,
      "t": 146218.28999999992,
      "d": 152.31071874999907,
      "v": 85
    },
    {
      "midi": 64,
      "hit": false,
      "t": 146218.28999999992,
      "d": 152.31071874999907,
      "v": 85
    },
    {
      "midi": 59,
      "hit": false,
      "t": 146218.29000000027,
      "d": 152.31071874999907,
      "v": 60
    },
    {
      "midi": 62,
      "hit": false,
      "t": 146218.29000000027,
      "d": 152.31071874999907,
      "v": 60
    },
    {
      "midi": 67,
      "hit": false,
      "t": 146218.29000000027,
      "d": 152.31071874999907,
      "v": 60
    },
    {
      "midi": 55,
      "hit": false,
      "t": 146554.4239999999,
      "d": 635.5033437499951,
      "v": 85
    },
    {
      "midi": 59,
      "hit": false,
      "t": 146554.4239999999,
      "d": 635.5033437499951,
      "v": 85
    },
    {
      "midi": 62,
      "hit": false,
      "t": 146554.4239999999,
      "d": 635.5033437499951,
      "v": 85
    },
    {
      "midi": 59,
      "hit": false,
      "t": 146722.49100000027,
      "d": 152.31071874999907,
      "v": 60
    },
    {
      "midi": 62,
      "hit": false,
      "t": 146722.49100000027,
      "d": 152.31071874999907,
      "v": 60
    },
    {
      "midi": 67,
      "hit": false,
      "t": 146722.49100000027,
      "d": 152.31071874999907,
      "v": 60
    },
    {
      "midi": 56,
      "hit": false,
      "t": 147226.6919999999,
      "d": 152.31071874999907,
      "v": 85
    },
    {
      "midi": 59,
      "hit": false,
      "t": 147226.6919999999,
      "d": 152.31071874999907,
      "v": 85
    },
    {
      "midi": 64,
      "hit": false,
      "t": 147226.6919999999,
      "d": 152.31071874999907,
      "v": 85
    },
    {
      "midi": 59,
      "hit": false,
      "t": 147226.69200000027,
      "d": 152.31071874999907,
      "v": 60
    },
    {
      "midi": 64,
      "hit": false,
      "t": 147226.69200000027,
      "d": 152.31071874999907,
      "v": 60
    },
    {
      "midi": 68,
      "hit": false,
      "t": 147226.69200000027,
      "d": 152.31071874999907,
      "v": 60
    },
    {
      "midi": 56,
      "hit": false,
      "t": 147730.8929999999,
      "d": 152.31071874999907,
      "v": 85
    },
    {
      "midi": 59,
      "hit": false,
      "t": 147730.8929999999,
      "d": 152.31071874999907,
      "v": 85
    },
    {
      "midi": 64,
      "hit": false,
      "t": 147730.8929999999,
      "d": 152.31071874999907,
      "v": 85
    },
    {
      "midi": 59,
      "hit": false,
      "t": 147730.89300000027,
      "d": 152.31071874999907,
      "v": 60
    },
    {
      "midi": 64,
      "hit": false,
      "t": 147730.89300000027,
      "d": 152.31071874999907,
      "v": 60
    },
    {
      "midi": 68,
      "hit": false,
      "t": 147730.89300000027,
      "d": 152.31071874999907,
      "v": 60
    },
    {
      "midi": 56,
      "hit": false,
      "t": 148235.0939999999,
      "d": 152.31071874999907,
      "v": 85
    },
    {
      "midi": 59,
      "hit": false,
      "t": 148235.0939999999,
      "d": 152.31071874999907,
      "v": 85
    },
    {
      "midi": 64,
      "hit": false,
      "t": 148235.0939999999,
      "d": 152.31071874999907,
      "v": 85
    },
    {
      "midi": 59,
      "hit": false,
      "t": 148235.09400000027,
      "d": 152.31071874999907,
      "v": 60
    },
    {
      "midi": 64,
      "hit": false,
      "t": 148235.09400000027,
      "d": 152.31071874999907,
      "v": 60
    },
    {
      "midi": 68,
      "hit": false,
      "t": 148235.09400000027,
      "d": 152.31071874999907,
      "v": 60
    },
    {
      "midi": 56,
      "hit": false,
      "t": 148571.2279999999,
      "d": 635.5033437499951,
      "v": 85
    },
    {
      "midi": 59,
      "hit": false,
      "t": 148571.2279999999,
      "d": 635.5033437499951,
      "v": 85
    },
    {
      "midi": 64,
      "hit": false,
      "t": 148571.2279999999,
      "d": 635.5033437499951,
      "v": 85
    },
    {
      "midi": 59,
      "hit": false,
      "t": 148739.29500000027,
      "d": 152.31071874999907,
      "v": 60
    },
    {
      "midi": 64,
      "hit": false,
      "t": 148739.29500000027,
      "d": 152.31071874999907,
      "v": 60
    },
    {
      "midi": 68,
      "hit": false,
      "t": 148739.29500000027,
      "d": 152.31071874999907,
      "v": 60
    },
    {
      "midi": 57,
      "hit": false,
      "t": 149243.49599999987,
      "d": 152.31071874999907,
      "v": 85
    },
    {
      "midi": 62,
      "hit": false,
      "t": 149243.49599999987,
      "d": 152.31071874999907,
      "v": 85
    },
    {
      "midi": 66,
      "hit": false,
      "t": 149243.49599999987,
      "d": 152.31071874999907,
      "v": 85
    },
    {
      "midi": 59,
      "hit": false,
      "t": 149243.49600000028,
      "d": 152.31071874999907,
      "v": 60
    },
    {
      "midi": 62,
      "hit": false,
      "t": 149243.49600000028,
      "d": 152.31071874999907,
      "v": 60
    },
    {
      "midi": 66,
      "hit": false,
      "t": 149243.49600000028,
      "d": 152.31071874999907,
      "v": 60
    },
    {
      "midi": 57,
      "hit": false,
      "t": 149747.69699999987,
      "d": 152.31071874999907,
      "v": 85
    },
    {
      "midi": 62,
      "hit": false,
      "t": 149747.69699999987,
      "d": 152.31071874999907,
      "v": 85
    },
    {
      "midi": 66,
      "hit": false,
      "t": 149747.69699999987,
      "d": 152.31071874999907,
      "v": 85
    },
    {
      "midi": 59,
      "hit": false,
      "t": 149747.69700000028,
      "d": 152.31071874999907,
      "v": 60
    },
    {
      "midi": 62,
      "hit": false,
      "t": 149747.69700000028,
      "d": 152.31071874999907,
      "v": 60
    },
    {
      "midi": 66,
      "hit": false,
      "t": 149747.69700000028,
      "d": 152.31071874999907,
      "v": 60
    },
    {
      "midi": 57,
      "hit": false,
      "t": 150251.89799999987,
      "d": 152.31071874999907,
      "v": 85
    },
    {
      "midi": 62,
      "hit": false,
      "t": 150251.89799999987,
      "d": 152.31071874999907,
      "v": 85
    },
    {
      "midi": 66,
      "hit": false,
      "t": 150251.89799999987,
      "d": 152.31071874999907,
      "v": 85
    },
    {
      "midi": 59,
      "hit": false,
      "t": 150251.89800000028,
      "d": 152.31071874999907,
      "v": 60
    },
    {
      "midi": 62,
      "hit": false,
      "t": 150251.89800000028,
      "d": 152.31071874999907,
      "v": 60
    },
    {
      "midi": 66,
      "hit": false,
      "t": 150251.89800000028,
      "d": 152.31071874999907,
      "v": 60
    },
    {
      "midi": 57,
      "hit": false,
      "t": 150588.03199999986,
      "d": 635.5033437499951,
      "v": 85
    },
    {
      "midi": 62,
      "hit": false,
      "t": 150588.03199999986,
      "d": 635.5033437499951,
      "v": 85
    },
    {
      "midi": 66,
      "hit": false,
      "t": 150588.03199999986,
      "d": 635.5033437499951,
      "v": 85
    },
    {
      "midi": 59,
      "hit": false,
      "t": 150756.09900000028,
      "d": 152.31071874999907,
      "v": 60
    },
    {
      "midi": 62,
      "hit": false,
      "t": 150756.09900000028,
      "d": 152.31071874999907,
      "v": 60
    },
    {
      "midi": 66,
      "hit": false,
      "t": 150756.09900000028,
      "d": 152.31071874999907,
      "v": 60
    },
    {
      "midi": 56,
      "hit": false,
      "t": 151260.29999999984,
      "d": 152.31071874999907,
      "v": 85
    },
    {
      "midi": 59,
      "hit": false,
      "t": 151260.29999999984,
      "d": 152.31071874999907,
      "v": 85
    },
    {
      "midi": 64,
      "hit": false,
      "t": 151260.29999999984,
      "d": 152.31071874999907,
      "v": 85
    },
    {
      "midi": 59,
      "hit": false,
      "t": 151260.30000000028,
      "d": 152.31071874999907,
      "v": 60
    },
    {
      "midi": 64,
      "hit": false,
      "t": 151260.30000000028,
      "d": 152.31071874999907,
      "v": 60
    },
    {
      "midi": 68,
      "hit": false,
      "t": 151260.30000000028,
      "d": 152.31071874999907,
      "v": 60
    },
    {
      "midi": 56,
      "hit": false,
      "t": 151764.50099999984,
      "d": 152.31071874999907,
      "v": 85
    },
    {
      "midi": 59,
      "hit": false,
      "t": 151764.50099999984,
      "d": 152.31071874999907,
      "v": 85
    },
    {
      "midi": 64,
      "hit": false,
      "t": 151764.50099999984,
      "d": 152.31071874999907,
      "v": 85
    },
    {
      "midi": 59,
      "hit": false,
      "t": 151764.50100000028,
      "d": 152.31071874999907,
      "v": 60
    },
    {
      "midi": 64,
      "hit": false,
      "t": 151764.50100000028,
      "d": 152.31071874999907,
      "v": 60
    },
    {
      "midi": 68,
      "hit": false,
      "t": 151764.50100000028,
      "d": 152.31071874999907,
      "v": 60
    },
    {
      "midi": 56,
      "hit": false,
      "t": 152268.70199999984,
      "d": 152.31071874999907,
      "v": 85
    },
    {
      "midi": 59,
      "hit": false,
      "t": 152268.70199999984,
      "d": 152.31071874999907,
      "v": 85
    },
    {
      "midi": 64,
      "hit": false,
      "t": 152268.70199999984,
      "d": 152.31071874999907,
      "v": 85
    },
    {
      "midi": 59,
      "hit": false,
      "t": 152268.70200000028,
      "d": 152.31071874999907,
      "v": 60
    },
    {
      "midi": 64,
      "hit": false,
      "t": 152268.70200000028,
      "d": 152.31071874999907,
      "v": 60
    },
    {
      "midi": 68,
      "hit": false,
      "t": 152268.70200000028,
      "d": 152.31071874999907,
      "v": 60
    },
    {
      "midi": 56,
      "hit": false,
      "t": 152604.83599999984,
      "d": 635.5033437499951,
      "v": 85
    },
    {
      "midi": 59,
      "hit": false,
      "t": 152604.83599999984,
      "d": 635.5033437499951,
      "v": 85
    },
    {
      "midi": 64,
      "hit": false,
      "t": 152604.83599999984,
      "d": 635.5033437499951,
      "v": 85
    },
    {
      "midi": 59,
      "hit": false,
      "t": 152772.90300000028,
      "d": 152.31071874999907,
      "v": 60
    },
    {
      "midi": 64,
      "hit": false,
      "t": 152772.90300000028,
      "d": 152.31071874999907,
      "v": 60
    },
    {
      "midi": 68,
      "hit": false,
      "t": 152772.90300000028,
      "d": 152.31071874999907,
      "v": 60
    },
    {
      "midi": 55,
      "hit": false,
      "t": 153277.10399999982,
      "d": 152.31071874999907,
      "v": 85
    },
    {
      "midi": 59,
      "hit": false,
      "t": 153277.10399999982,
      "d": 152.31071874999907,
      "v": 85
    },
    {
      "midi": 62,
      "hit": false,
      "t": 153277.10399999982,
      "d": 152.31071874999907,
      "v": 85
    },
    {
      "midi": 59,
      "hit": false,
      "t": 153277.10400000028,
      "d": 152.31071874999907,
      "v": 60
    },
    {
      "midi": 62,
      "hit": false,
      "t": 153277.10400000028,
      "d": 152.31071874999907,
      "v": 60
    },
    {
      "midi": 67,
      "hit": false,
      "t": 153277.10400000028,
      "d": 152.31071874999907,
      "v": 60
    },
    {
      "midi": 55,
      "hit": false,
      "t": 153781.30499999982,
      "d": 152.31071874999907,
      "v": 85
    },
    {
      "midi": 59,
      "hit": false,
      "t": 153781.30499999982,
      "d": 152.31071874999907,
      "v": 85
    },
    {
      "midi": 62,
      "hit": false,
      "t": 153781.30499999982,
      "d": 152.31071874999907,
      "v": 85
    },
    {
      "midi": 59,
      "hit": false,
      "t": 153781.30500000028,
      "d": 152.31071874999907,
      "v": 60
    },
    {
      "midi": 62,
      "hit": false,
      "t": 153781.30500000028,
      "d": 152.31071874999907,
      "v": 60
    },
    {
      "midi": 67,
      "hit": false,
      "t": 153781.30500000028,
      "d": 152.31071874999907,
      "v": 60
    },
    {
      "midi": 55,
      "hit": false,
      "t": 154285.50599999982,
      "d": 152.31071874999907,
      "v": 85
    },
    {
      "midi": 59,
      "hit": false,
      "t": 154285.50599999982,
      "d": 152.31071874999907,
      "v": 85
    },
    {
      "midi": 64,
      "hit": false,
      "t": 154285.50599999982,
      "d": 152.31071874999907,
      "v": 85
    },
    {
      "midi": 59,
      "hit": false,
      "t": 154285.50600000028,
      "d": 152.31071874999907,
      "v": 60
    },
    {
      "midi": 62,
      "hit": false,
      "t": 154285.50600000028,
      "d": 152.31071874999907,
      "v": 60
    },
    {
      "midi": 67,
      "hit": false,
      "t": 154285.50600000028,
      "d": 152.31071874999907,
      "v": 60
    },
    {
      "midi": 59,
      "hit": false,
      "t": 154621.6399999998,
      "d": 456.9321562499972,
      "v": 85
    },
    {
      "midi": 62,
      "hit": false,
      "t": 154621.6399999998,
      "d": 456.9321562499972,
      "v": 85
    },
    {
      "midi": 55,
      "hit": false,
      "t": 154621.6399999998,
      "d": 462.18424999999115,
      "v": 85
    },
    {
      "midi": 59,
      "hit": false,
      "t": 154789.7070000003,
      "d": 152.31071874999907,
      "v": 60
    },
    {
      "midi": 62,
      "hit": false,
      "t": 154789.7070000003,
      "d": 152.31071874999907,
      "v": 60
    },
    {
      "midi": 67,
      "hit": false,
      "t": 154789.7070000003,
      "d": 152.31071874999907,
      "v": 60
    },
    {
      "midi": 56,
      "hit": false,
      "t": 155293.9079999998,
      "d": 152.31071874999907,
      "v": 85
    },
    {
      "midi": 59,
      "hit": false,
      "t": 155293.9079999998,
      "d": 152.31071874999907,
      "v": 85
    },
    {
      "midi": 64,
      "hit": false,
      "t": 155293.9079999998,
      "d": 152.31071874999907,
      "v": 85
    },
    {
      "midi": 59,
      "hit": false,
      "t": 155293.9080000003,
      "d": 152.31071874999907,
      "v": 60
    },
    {
      "midi": 64,
      "hit": false,
      "t": 155293.9080000003,
      "d": 152.31071874999907,
      "v": 60
    },
    {
      "midi": 68,
      "hit": false,
      "t": 155293.9080000003,
      "d": 152.31071874999907,
      "v": 60
    },
    {
      "midi": 56,
      "hit": false,
      "t": 155798.1089999998,
      "d": 152.31071874999907,
      "v": 85
    },
    {
      "midi": 59,
      "hit": false,
      "t": 155798.1089999998,
      "d": 152.31071874999907,
      "v": 85
    },
    {
      "midi": 64,
      "hit": false,
      "t": 155798.1089999998,
      "d": 152.31071874999907,
      "v": 85
    },
    {
      "midi": 59,
      "hit": false,
      "t": 155798.1090000003,
      "d": 152.31071874999907,
      "v": 60
    },
    {
      "midi": 64,
      "hit": false,
      "t": 155798.1090000003,
      "d": 152.31071874999907,
      "v": 60
    },
    {
      "midi": 68,
      "hit": false,
      "t": 155798.1090000003,
      "d": 152.31071874999907,
      "v": 60
    },
    {
      "midi": 56,
      "hit": false,
      "t": 156302.3099999998,
      "d": 152.31071874999907,
      "v": 85
    },
    {
      "midi": 59,
      "hit": false,
      "t": 156302.3099999998,
      "d": 152.31071874999907,
      "v": 85
    },
    {
      "midi": 64,
      "hit": false,
      "t": 156302.3099999998,
      "d": 152.31071874999907,
      "v": 85
    },
    {
      "midi": 59,
      "hit": false,
      "t": 156302.3100000003,
      "d": 152.31071874999907,
      "v": 60
    },
    {
      "midi": 64,
      "hit": false,
      "t": 156302.3100000003,
      "d": 152.31071874999907,
      "v": 60
    },
    {
      "midi": 68,
      "hit": false,
      "t": 156302.3100000003,
      "d": 152.31071874999907,
      "v": 60
    },
    {
      "midi": 56,
      "hit": false,
      "t": 156638.44399999978,
      "d": 635.5033437499951,
      "v": 85
    },
    {
      "midi": 59,
      "hit": false,
      "t": 156638.44399999978,
      "d": 635.5033437499951,
      "v": 85
    },
    {
      "midi": 64,
      "hit": false,
      "t": 156638.44399999978,
      "d": 635.5033437499951,
      "v": 85
    },
    {
      "midi": 59,
      "hit": false,
      "t": 156806.5110000003,
      "d": 152.31071874999907,
      "v": 60
    },
    {
      "midi": 64,
      "hit": false,
      "t": 156806.5110000003,
      "d": 152.31071874999907,
      "v": 60
    },
    {
      "midi": 68,
      "hit": false,
      "t": 156806.5110000003,
      "d": 152.31071874999907,
      "v": 60
    },
    {
      "midi": 57,
      "hit": false,
      "t": 157310.71199999977,
      "d": 152.31071874999907,
      "v": 85
    },
    {
      "midi": 62,
      "hit": false,
      "t": 157310.71199999977,
      "d": 152.31071874999907,
      "v": 85
    },
    {
      "midi": 66,
      "hit": false,
      "t": 157310.71199999977,
      "d": 152.31071874999907,
      "v": 85
    },
    {
      "midi": 59,
      "hit": false,
      "t": 157310.7120000003,
      "d": 152.31071874999907,
      "v": 60
    },
    {
      "midi": 62,
      "hit": false,
      "t": 157310.7120000003,
      "d": 152.31071874999907,
      "v": 60
    },
    {
      "midi": 66,
      "hit": false,
      "t": 157310.7120000003,
      "d": 152.31071874999907,
      "v": 60
    },
    {
      "midi": 57,
      "hit": false,
      "t": 157814.91299999977,
      "d": 152.31071874999907,
      "v": 85
    },
    {
      "midi": 62,
      "hit": false,
      "t": 157814.91299999977,
      "d": 152.31071874999907,
      "v": 85
    },
    {
      "midi": 66,
      "hit": false,
      "t": 157814.91299999977,
      "d": 152.31071874999907,
      "v": 85
    },
    {
      "midi": 59,
      "hit": false,
      "t": 157814.9130000003,
      "d": 152.31071874999907,
      "v": 60
    },
    {
      "midi": 62,
      "hit": false,
      "t": 157814.9130000003,
      "d": 152.31071874999907,
      "v": 60
    },
    {
      "midi": 66,
      "hit": false,
      "t": 157814.9130000003,
      "d": 152.31071874999907,
      "v": 60
    },
    {
      "midi": 57,
      "hit": false,
      "t": 158319.11399999977,
      "d": 152.31071874999907,
      "v": 85
    },
    {
      "midi": 62,
      "hit": false,
      "t": 158319.11399999977,
      "d": 152.31071874999907,
      "v": 85
    },
    {
      "midi": 66,
      "hit": false,
      "t": 158319.11399999977,
      "d": 152.31071874999907,
      "v": 85
    },
    {
      "midi": 59,
      "hit": false,
      "t": 158319.1140000003,
      "d": 152.31071874999907,
      "v": 60
    },
    {
      "midi": 62,
      "hit": false,
      "t": 158319.1140000003,
      "d": 152.31071874999907,
      "v": 60
    },
    {
      "midi": 66,
      "hit": false,
      "t": 158319.1140000003,
      "d": 152.31071874999907,
      "v": 60
    },
    {
      "midi": 57,
      "hit": false,
      "t": 158655.24799999976,
      "d": 635.5033437499951,
      "v": 85
    },
    {
      "midi": 62,
      "hit": false,
      "t": 158655.24799999976,
      "d": 635.5033437499951,
      "v": 85
    },
    {
      "midi": 66,
      "hit": false,
      "t": 158655.24799999976,
      "d": 635.5033437499951,
      "v": 85
    },
    {
      "midi": 59,
      "hit": false,
      "t": 158823.3150000003,
      "d": 152.31071874999907,
      "v": 60
    },
    {
      "midi": 62,
      "hit": false,
      "t": 158823.3150000003,
      "d": 152.31071874999907,
      "v": 60
    },
    {
      "midi": 66,
      "hit": false,
      "t": 158823.3150000003,
      "d": 152.31071874999907,
      "v": 60
    },
    {
      "midi": 56,
      "hit": false,
      "t": 159327.51599999974,
      "d": 152.31071874999907,
      "v": 85
    },
    {
      "midi": 59,
      "hit": false,
      "t": 159327.51599999974,
      "d": 152.31071874999907,
      "v": 85
    },
    {
      "midi": 64,
      "hit": false,
      "t": 159327.51599999974,
      "d": 152.31071874999907,
      "v": 85
    },
    {
      "midi": 59,
      "hit": false,
      "t": 159327.5160000003,
      "d": 152.31071874999907,
      "v": 60
    },
    {
      "midi": 64,
      "hit": false,
      "t": 159327.5160000003,
      "d": 152.31071874999907,
      "v": 60
    },
    {
      "midi": 68,
      "hit": false,
      "t": 159327.5160000003,
      "d": 152.31071874999907,
      "v": 60
    },
    {
      "midi": 56,
      "hit": false,
      "t": 159831.71699999974,
      "d": 152.31071874999907,
      "v": 85
    },
    {
      "midi": 59,
      "hit": false,
      "t": 159831.71699999974,
      "d": 152.31071874999907,
      "v": 85
    },
    {
      "midi": 64,
      "hit": false,
      "t": 159831.71699999974,
      "d": 152.31071874999907,
      "v": 85
    },
    {
      "midi": 59,
      "hit": false,
      "t": 159831.7170000003,
      "d": 152.31071874999907,
      "v": 60
    },
    {
      "midi": 64,
      "hit": false,
      "t": 159831.7170000003,
      "d": 152.31071874999907,
      "v": 60
    },
    {
      "midi": 68,
      "hit": false,
      "t": 159831.7170000003,
      "d": 152.31071874999907,
      "v": 60
    },
    {
      "midi": 56,
      "hit": false,
      "t": 160335.91799999974,
      "d": 152.31071874999907,
      "v": 85
    },
    {
      "midi": 59,
      "hit": false,
      "t": 160335.91799999974,
      "d": 152.31071874999907,
      "v": 85
    },
    {
      "midi": 64,
      "hit": false,
      "t": 160335.91799999974,
      "d": 152.31071874999907,
      "v": 85
    },
    {
      "midi": 59,
      "hit": false,
      "t": 160335.9180000003,
      "d": 152.31071874999907,
      "v": 60
    },
    {
      "midi": 64,
      "hit": false,
      "t": 160335.9180000003,
      "d": 152.31071874999907,
      "v": 60
    },
    {
      "midi": 68,
      "hit": false,
      "t": 160335.9180000003,
      "d": 152.31071874999907,
      "v": 60
    },
    {
      "midi": 56,
      "hit": false,
      "t": 160672.05199999973,
      "d": 635.5033437499951,
      "v": 85
    },
    {
      "midi": 59,
      "hit": false,
      "t": 160672.05199999973,
      "d": 635.5033437499951,
      "v": 85
    },
    {
      "midi": 64,
      "hit": false,
      "t": 160672.05199999973,
      "d": 635.5033437499951,
      "v": 85
    },
    {
      "midi": 59,
      "hit": false,
      "t": 160840.1190000003,
      "d": 152.31071874999907,
      "v": 60
    },
    {
      "midi": 64,
      "hit": false,
      "t": 160840.1190000003,
      "d": 152.31071874999907,
      "v": 60
    },
    {
      "midi": 68,
      "hit": false,
      "t": 160840.1190000003,
      "d": 152.31071874999907,
      "v": 60
    },
    {
      "midi": 55,
      "hit": false,
      "t": 161344.31999999972,
      "d": 152.31071874999907,
      "v": 85
    },
    {
      "midi": 59,
      "hit": false,
      "t": 161344.31999999972,
      "d": 152.31071874999907,
      "v": 85
    },
    {
      "midi": 62,
      "hit": false,
      "t": 161344.31999999972,
      "d": 152.31071874999907,
      "v": 85
    },
    {
      "midi": 59,
      "hit": false,
      "t": 161344.3200000003,
      "d": 152.31071874999907,
      "v": 60
    },
    {
      "midi": 62,
      "hit": false,
      "t": 161344.3200000003,
      "d": 152.31071874999907,
      "v": 60
    },
    {
      "midi": 67,
      "hit": false,
      "t": 161344.3200000003,
      "d": 152.31071874999907,
      "v": 60
    },
    {
      "midi": 55,
      "hit": false,
      "t": 161848.52099999972,
      "d": 152.31071874999907,
      "v": 85
    },
    {
      "midi": 59,
      "hit": false,
      "t": 161848.52099999972,
      "d": 152.31071874999907,
      "v": 85
    },
    {
      "midi": 62,
      "hit": false,
      "t": 161848.52099999972,
      "d": 152.31071874999907,
      "v": 85
    },
    {
      "midi": 59,
      "hit": false,
      "t": 161848.5210000003,
      "d": 152.31071874999907,
      "v": 60
    },
    {
      "midi": 62,
      "hit": false,
      "t": 161848.5210000003,
      "d": 152.31071874999907,
      "v": 60
    },
    {
      "midi": 67,
      "hit": false,
      "t": 161848.5210000003,
      "d": 152.31071874999907,
      "v": 60
    },
    {
      "midi": 55,
      "hit": false,
      "t": 162352.72199999972,
      "d": 152.31071874999907,
      "v": 85
    },
    {
      "midi": 59,
      "hit": false,
      "t": 162352.72199999972,
      "d": 152.31071874999907,
      "v": 85
    },
    {
      "midi": 64,
      "hit": false,
      "t": 162352.72199999972,
      "d": 152.31071874999907,
      "v": 85
    },
    {
      "midi": 59,
      "hit": false,
      "t": 162352.7220000003,
      "d": 152.31071874999907,
      "v": 60
    },
    {
      "midi": 62,
      "hit": false,
      "t": 162352.7220000003,
      "d": 152.31071874999907,
      "v": 60
    },
    {
      "midi": 67,
      "hit": false,
      "t": 162352.7220000003,
      "d": 152.31071874999907,
      "v": 60
    },
    {
      "midi": 55,
      "hit": false,
      "t": 162688.8559999997,
      "d": 635.5033437499951,
      "v": 85
    },
    {
      "midi": 59,
      "hit": false,
      "t": 162688.8559999997,
      "d": 635.5033437499951,
      "v": 85
    },
    {
      "midi": 62,
      "hit": false,
      "t": 162688.8559999997,
      "d": 635.5033437499951,
      "v": 85
    },
    {
      "midi": 59,
      "hit": false,
      "t": 162856.9230000003,
      "d": 152.31071874999907,
      "v": 60
    },
    {
      "midi": 62,
      "hit": false,
      "t": 162856.9230000003,
      "d": 152.31071874999907,
      "v": 60
    },
    {
      "midi": 67,
      "hit": false,
      "t": 162856.9230000003,
      "d": 152.31071874999907,
      "v": 60
    },
    {
      "midi": 56,
      "hit": false,
      "t": 163361.1239999997,
      "d": 152.31071874999907,
      "v": 85
    },
    {
      "midi": 59,
      "hit": false,
      "t": 163361.1239999997,
      "d": 152.31071874999907,
      "v": 85
    },
    {
      "midi": 64,
      "hit": false,
      "t": 163361.1239999997,
      "d": 152.31071874999907,
      "v": 85
    },
    {
      "midi": 59,
      "hit": false,
      "t": 163361.1240000003,
      "d": 152.31071874999907,
      "v": 60
    },
    {
      "midi": 64,
      "hit": false,
      "t": 163361.1240000003,
      "d": 152.31071874999907,
      "v": 60
    },
    {
      "midi": 68,
      "hit": false,
      "t": 163361.1240000003,
      "d": 152.31071874999907,
      "v": 60
    },
    {
      "midi": 56,
      "hit": false,
      "t": 163865.3249999997,
      "d": 152.31071874999907,
      "v": 85
    },
    {
      "midi": 59,
      "hit": false,
      "t": 163865.3249999997,
      "d": 152.31071874999907,
      "v": 85
    },
    {
      "midi": 64,
      "hit": false,
      "t": 163865.3249999997,
      "d": 152.31071874999907,
      "v": 85
    },
    {
      "midi": 59,
      "hit": false,
      "t": 163865.3250000003,
      "d": 152.31071874999907,
      "v": 60
    },
    {
      "midi": 64,
      "hit": false,
      "t": 163865.3250000003,
      "d": 152.31071874999907,
      "v": 60
    },
    {
      "midi": 68,
      "hit": false,
      "t": 163865.3250000003,
      "d": 152.31071874999907,
      "v": 60
    },
    {
      "midi": 56,
      "hit": false,
      "t": 164369.5259999997,
      "d": 152.31071874999907,
      "v": 85
    },
    {
      "midi": 59,
      "hit": false,
      "t": 164369.5259999997,
      "d": 152.31071874999907,
      "v": 85
    },
    {
      "midi": 64,
      "hit": false,
      "t": 164369.5259999997,
      "d": 152.31071874999907,
      "v": 85
    },
    {
      "midi": 59,
      "hit": false,
      "t": 164369.5260000003,
      "d": 152.31071874999907,
      "v": 60
    },
    {
      "midi": 64,
      "hit": false,
      "t": 164369.5260000003,
      "d": 152.31071874999907,
      "v": 60
    },
    {
      "midi": 68,
      "hit": false,
      "t": 164369.5260000003,
      "d": 152.31071874999907,
      "v": 60
    },
    {
      "midi": 56,
      "hit": false,
      "t": 164705.65999999968,
      "d": 635.5033437499951,
      "v": 85
    },
    {
      "midi": 59,
      "hit": false,
      "t": 164705.65999999968,
      "d": 635.5033437499951,
      "v": 85
    },
    {
      "midi": 64,
      "hit": false,
      "t": 164705.65999999968,
      "d": 635.5033437499951,
      "v": 85
    },
    {
      "midi": 59,
      "hit": false,
      "t": 164873.7270000003,
      "d": 152.31071874999907,
      "v": 60
    },
    {
      "midi": 64,
      "hit": false,
      "t": 164873.7270000003,
      "d": 152.31071874999907,
      "v": 60
    },
    {
      "midi": 68,
      "hit": false,
      "t": 164873.7270000003,
      "d": 152.31071874999907,
      "v": 60
    },
    {
      "midi": 57,
      "hit": false,
      "t": 165377.92799999967,
      "d": 152.31071874999907,
      "v": 85
    },
    {
      "midi": 62,
      "hit": false,
      "t": 165377.92799999967,
      "d": 152.31071874999907,
      "v": 85
    },
    {
      "midi": 66,
      "hit": false,
      "t": 165377.92799999967,
      "d": 152.31071874999907,
      "v": 85
    },
    {
      "midi": 59,
      "hit": false,
      "t": 165377.9280000003,
      "d": 152.31071874999907,
      "v": 60
    },
    {
      "midi": 62,
      "hit": false,
      "t": 165377.9280000003,
      "d": 152.31071874999907,
      "v": 60
    },
    {
      "midi": 66,
      "hit": false,
      "t": 165377.9280000003,
      "d": 152.31071874999907,
      "v": 60
    },
    {
      "midi": 57,
      "hit": false,
      "t": 165882.12899999967,
      "d": 152.31071874999907,
      "v": 85
    },
    {
      "midi": 62,
      "hit": false,
      "t": 165882.12899999967,
      "d": 152.31071874999907,
      "v": 85
    },
    {
      "midi": 66,
      "hit": false,
      "t": 165882.12899999967,
      "d": 152.31071874999907,
      "v": 85
    },
    {
      "midi": 59,
      "hit": false,
      "t": 165882.1290000003,
      "d": 152.31071874999907,
      "v": 60
    },
    {
      "midi": 62,
      "hit": false,
      "t": 165882.1290000003,
      "d": 152.31071874999907,
      "v": 60
    },
    {
      "midi": 66,
      "hit": false,
      "t": 165882.1290000003,
      "d": 152.31071874999907,
      "v": 60
    },
    {
      "midi": 57,
      "hit": false,
      "t": 166386.32999999967,
      "d": 152.31071874999907,
      "v": 85
    },
    {
      "midi": 62,
      "hit": false,
      "t": 166386.32999999967,
      "d": 152.31071874999907,
      "v": 85
    },
    {
      "midi": 66,
      "hit": false,
      "t": 166386.32999999967,
      "d": 152.31071874999907,
      "v": 85
    },
    {
      "midi": 59,
      "hit": false,
      "t": 166386.3300000003,
      "d": 152.31071874999907,
      "v": 60
    },
    {
      "midi": 62,
      "hit": false,
      "t": 166386.3300000003,
      "d": 152.31071874999907,
      "v": 60
    },
    {
      "midi": 66,
      "hit": false,
      "t": 166386.3300000003,
      "d": 152.31071874999907,
      "v": 60
    },
    {
      "midi": 57,
      "hit": false,
      "t": 166722.46399999966,
      "d": 635.5033437499951,
      "v": 85
    },
    {
      "midi": 62,
      "hit": false,
      "t": 166722.46399999966,
      "d": 635.5033437499951,
      "v": 85
    },
    {
      "midi": 66,
      "hit": false,
      "t": 166722.46399999966,
      "d": 635.5033437499951,
      "v": 85
    },
    {
      "midi": 59,
      "hit": false,
      "t": 166890.5310000003,
      "d": 152.31071874999907,
      "v": 60
    },
    {
      "midi": 62,
      "hit": false,
      "t": 166890.5310000003,
      "d": 152.31071874999907,
      "v": 60
    },
    {
      "midi": 66,
      "hit": false,
      "t": 166890.5310000003,
      "d": 152.31071874999907,
      "v": 60
    },
    {
      "midi": 56,
      "hit": false,
      "t": 167394.73199999964,
      "d": 152.31071874999907,
      "v": 85
    },
    {
      "midi": 59,
      "hit": false,
      "t": 167394.73199999964,
      "d": 152.31071874999907,
      "v": 85
    },
    {
      "midi": 64,
      "hit": false,
      "t": 167394.73199999964,
      "d": 152.31071874999907,
      "v": 85
    },
    {
      "midi": 59,
      "hit": false,
      "t": 167394.7320000003,
      "d": 152.31071874999907,
      "v": 60
    },
    {
      "midi": 64,
      "hit": false,
      "t": 167394.7320000003,
      "d": 152.31071874999907,
      "v": 60
    },
    {
      "midi": 68,
      "hit": false,
      "t": 167394.7320000003,
      "d": 152.31071874999907,
      "v": 60
    },
    {
      "midi": 56,
      "hit": false,
      "t": 167898.93299999964,
      "d": 152.31071874999907,
      "v": 85
    },
    {
      "midi": 59,
      "hit": false,
      "t": 167898.93299999964,
      "d": 152.31071874999907,
      "v": 85
    },
    {
      "midi": 64,
      "hit": false,
      "t": 167898.93299999964,
      "d": 152.31071874999907,
      "v": 85
    },
    {
      "midi": 59,
      "hit": false,
      "t": 167898.9330000003,
      "d": 152.31071874999907,
      "v": 60
    },
    {
      "midi": 64,
      "hit": false,
      "t": 167898.9330000003,
      "d": 152.31071874999907,
      "v": 60
    },
    {
      "midi": 68,
      "hit": false,
      "t": 167898.9330000003,
      "d": 152.31071874999907,
      "v": 60
    },
    {
      "midi": 56,
      "hit": false,
      "t": 168403.13399999964,
      "d": 152.31071874999907,
      "v": 85
    },
    {
      "midi": 59,
      "hit": false,
      "t": 168403.13399999964,
      "d": 152.31071874999907,
      "v": 85
    },
    {
      "midi": 64,
      "hit": false,
      "t": 168403.13399999964,
      "d": 152.31071874999907,
      "v": 85
    },
    {
      "midi": 59,
      "hit": false,
      "t": 168403.1340000003,
      "d": 152.31071874999907,
      "v": 60
    },
    {
      "midi": 64,
      "hit": false,
      "t": 168403.1340000003,
      "d": 152.31071874999907,
      "v": 60
    },
    {
      "midi": 68,
      "hit": false,
      "t": 168403.1340000003,
      "d": 152.31071874999907,
      "v": 60
    },
    {
      "midi": 56,
      "hit": false,
      "t": 168739.26799999963,
      "d": 635.5033437499951,
      "v": 85
    },
    {
      "midi": 59,
      "hit": false,
      "t": 168739.26799999963,
      "d": 635.5033437499951,
      "v": 85
    },
    {
      "midi": 64,
      "hit": false,
      "t": 168739.26799999963,
      "d": 635.5033437499951,
      "v": 85
    },
    {
      "midi": 59,
      "hit": false,
      "t": 168907.3350000003,
      "d": 152.31071874999907,
      "v": 60
    },
    {
      "midi": 64,
      "hit": false,
      "t": 168907.3350000003,
      "d": 152.31071874999907,
      "v": 60
    },
    {
      "midi": 68,
      "hit": false,
      "t": 168907.3350000003,
      "d": 152.31071874999907,
      "v": 60
    },
    {
      "midi": 55,
      "hit": false,
      "t": 169411.5359999996,
      "d": 152.31071874999907,
      "v": 85
    },
    {
      "midi": 59,
      "hit": false,
      "t": 169411.5359999996,
      "d": 152.31071874999907,
      "v": 85
    },
    {
      "midi": 62,
      "hit": false,
      "t": 169411.5359999996,
      "d": 152.31071874999907,
      "v": 85
    },
    {
      "midi": 59,
      "hit": false,
      "t": 169411.5360000003,
      "d": 152.31071874999907,
      "v": 60
    },
    {
      "midi": 62,
      "hit": false,
      "t": 169411.5360000003,
      "d": 152.31071874999907,
      "v": 60
    },
    {
      "midi": 67,
      "hit": false,
      "t": 169411.5360000003,
      "d": 152.31071874999907,
      "v": 60
    },
    {
      "midi": 55,
      "hit": false,
      "t": 169915.73699999962,
      "d": 152.31071874999907,
      "v": 85
    },
    {
      "midi": 59,
      "hit": false,
      "t": 169915.73699999962,
      "d": 152.31071874999907,
      "v": 85
    },
    {
      "midi": 62,
      "hit": false,
      "t": 169915.73699999962,
      "d": 152.31071874999907,
      "v": 85
    },
    {
      "midi": 59,
      "hit": false,
      "t": 169915.7370000003,
      "d": 152.31071874999907,
      "v": 60
    },
    {
      "midi": 62,
      "hit": false,
      "t": 169915.7370000003,
      "d": 152.31071874999907,
      "v": 60
    },
    {
      "midi": 67,
      "hit": false,
      "t": 169915.7370000003,
      "d": 152.31071874999907,
      "v": 60
    },
    {
      "midi": 55,
      "hit": false,
      "t": 170419.93799999962,
      "d": 152.31071874999907,
      "v": 85
    },
    {
      "midi": 59,
      "hit": false,
      "t": 170419.93799999962,
      "d": 152.31071874999907,
      "v": 85
    },
    {
      "midi": 64,
      "hit": false,
      "t": 170419.93799999962,
      "d": 152.31071874999907,
      "v": 85
    },
    {
      "midi": 59,
      "hit": false,
      "t": 170419.93800000031,
      "d": 152.31071874999907,
      "v": 60
    },
    {
      "midi": 62,
      "hit": false,
      "t": 170419.93800000031,
      "d": 152.31071874999907,
      "v": 60
    },
    {
      "midi": 67,
      "hit": false,
      "t": 170419.93800000031,
      "d": 152.31071874999907,
      "v": 60
    },
    {
      "midi": 59,
      "hit": false,
      "t": 170756.0719999996,
      "d": 456.9321562499972,
      "v": 85
    },
    {
      "midi": 62,
      "hit": false,
      "t": 170756.0719999996,
      "d": 456.9321562499972,
      "v": 85
    },
    {
      "midi": 55,
      "hit": false,
      "t": 170756.0719999996,
      "d": 462.18424999999115,
      "v": 85
    },
    {
      "midi": 59,
      "hit": false,
      "t": 170924.13900000032,
      "d": 152.31071874999907,
      "v": 60
    },
    {
      "midi": 62,
      "hit": false,
      "t": 170924.13900000032,
      "d": 152.31071874999907,
      "v": 60
    },
    {
      "midi": 67,
      "hit": false,
      "t": 170924.13900000032,
      "d": 152.31071874999907,
      "v": 60
    },
    {
      "midi": 58,
      "hit": false,
      "t": 171428.3399999996,
      "d": 152.31071874999907,
      "v": 85
    },
    {
      "midi": 61,
      "hit": false,
      "t": 171428.3399999996,
      "d": 152.31071874999907,
      "v": 85
    },
    {
      "midi": 66,
      "hit": false,
      "t": 171428.3399999996,
      "d": 152.31071874999907,
      "v": 85
    },
    {
      "midi": 61,
      "hit": false,
      "t": 171428.34000000032,
      "d": 152.31071874999907,
      "v": 60
    },
    {
      "midi": 66,
      "hit": false,
      "t": 171428.34000000032,
      "d": 152.31071874999907,
      "v": 60
    },
    {
      "midi": 70,
      "hit": false,
      "t": 171428.34000000032,
      "d": 152.31071874999907,
      "v": 60
    },
    {
      "midi": 58,
      "hit": false,
      "t": 171932.5409999996,
      "d": 152.31071874999907,
      "v": 85
    },
    {
      "midi": 61,
      "hit": false,
      "t": 171932.5409999996,
      "d": 152.31071874999907,
      "v": 85
    },
    {
      "midi": 66,
      "hit": false,
      "t": 171932.5409999996,
      "d": 152.31071874999907,
      "v": 85
    },
    {
      "midi": 61,
      "hit": false,
      "t": 171932.54100000032,
      "d": 152.31071874999907,
      "v": 60
    },
    {
      "midi": 66,
      "hit": false,
      "t": 171932.54100000032,
      "d": 152.31071874999907,
      "v": 60
    },
    {
      "midi": 70,
      "hit": false,
      "t": 171932.54100000032,
      "d": 152.31071874999907,
      "v": 60
    },
    {
      "midi": 58,
      "hit": false,
      "t": 172436.7419999996,
      "d": 152.31071874999907,
      "v": 85
    },
    {
      "midi": 61,
      "hit": false,
      "t": 172436.7419999996,
      "d": 152.31071874999907,
      "v": 85
    },
    {
      "midi": 66,
      "hit": false,
      "t": 172436.7419999996,
      "d": 152.31071874999907,
      "v": 85
    },
    {
      "midi": 61,
      "hit": false,
      "t": 172436.74200000032,
      "d": 152.31071874999907,
      "v": 60
    },
    {
      "midi": 66,
      "hit": false,
      "t": 172436.74200000032,
      "d": 152.31071874999907,
      "v": 60
    },
    {
      "midi": 70,
      "hit": false,
      "t": 172436.74200000032,
      "d": 152.31071874999907,
      "v": 60
    },
    {
      "midi": 58,
      "hit": false,
      "t": 172772.87599999958,
      "d": 635.5033437499951,
      "v": 85
    },
    {
      "midi": 61,
      "hit": false,
      "t": 172772.87599999958,
      "d": 635.5033437499951,
      "v": 85
    },
    {
      "midi": 66,
      "hit": false,
      "t": 172772.87599999958,
      "d": 635.5033437499951,
      "v": 85
    },
    {
      "midi": 61,
      "hit": false,
      "t": 172940.94300000032,
      "d": 152.31071874999907,
      "v": 60
    },
    {
      "midi": 66,
      "hit": false,
      "t": 172940.94300000032,
      "d": 152.31071874999907,
      "v": 60
    },
    {
      "midi": 70,
      "hit": false,
      "t": 172940.94300000032,
      "d": 152.31071874999907,
      "v": 60
    },
    {
      "midi": 59,
      "hit": false,
      "t": 173445.14399999956,
      "d": 152.31071874999907,
      "v": 85
    },
    {
      "midi": 64,
      "hit": false,
      "t": 173445.14399999956,
      "d": 152.31071874999907,
      "v": 85
    },
    {
      "midi": 68,
      "hit": false,
      "t": 173445.14399999956,
      "d": 152.31071874999907,
      "v": 85
    },
    {
      "midi": 61,
      "hit": false,
      "t": 173445.14400000032,
      "d": 152.31071874999907,
      "v": 60
    },
    {
      "midi": 64,
      "hit": false,
      "t": 173445.14400000032,
      "d": 152.31071874999907,
      "v": 60
    },
    {
      "midi": 68,
      "hit": false,
      "t": 173445.14400000032,
      "d": 152.31071874999907,
      "v": 60
    },
    {
      "midi": 59,
      "hit": false,
      "t": 173949.34499999956,
      "d": 152.31071874999907,
      "v": 85
    },
    {
      "midi": 64,
      "hit": false,
      "t": 173949.34499999956,
      "d": 152.31071874999907,
      "v": 85
    },
    {
      "midi": 68,
      "hit": false,
      "t": 173949.34499999956,
      "d": 152.31071874999907,
      "v": 85
    },
    {
      "midi": 61,
      "hit": false,
      "t": 173949.34500000032,
      "d": 152.31071874999907,
      "v": 60
    },
    {
      "midi": 64,
      "hit": false,
      "t": 173949.34500000032,
      "d": 152.31071874999907,
      "v": 60
    },
    {
      "midi": 68,
      "hit": false,
      "t": 173949.34500000032,
      "d": 152.31071874999907,
      "v": 60
    },
    {
      "midi": 59,
      "hit": false,
      "t": 174453.54599999957,
      "d": 152.31071874999907,
      "v": 85
    },
    {
      "midi": 64,
      "hit": false,
      "t": 174453.54599999957,
      "d": 152.31071874999907,
      "v": 85
    },
    {
      "midi": 68,
      "hit": false,
      "t": 174453.54599999957,
      "d": 152.31071874999907,
      "v": 85
    },
    {
      "midi": 61,
      "hit": false,
      "t": 174453.54600000032,
      "d": 152.31071874999907,
      "v": 60
    },
    {
      "midi": 64,
      "hit": false,
      "t": 174453.54600000032,
      "d": 152.31071874999907,
      "v": 60
    },
    {
      "midi": 68,
      "hit": false,
      "t": 174453.54600000032,
      "d": 152.31071874999907,
      "v": 60
    },
    {
      "midi": 59,
      "hit": false,
      "t": 174789.67999999956,
      "d": 635.5033437499951,
      "v": 85
    },
    {
      "midi": 64,
      "hit": false,
      "t": 174789.67999999956,
      "d": 635.5033437499951,
      "v": 85
    },
    {
      "midi": 68,
      "hit": false,
      "t": 174789.67999999956,
      "d": 635.5033437499951,
      "v": 85
    },
    {
      "midi": 61,
      "hit": false,
      "t": 174957.74700000032,
      "d": 152.31071874999907,
      "v": 60
    },
    {
      "midi": 64,
      "hit": false,
      "t": 174957.74700000032,
      "d": 152.31071874999907,
      "v": 60
    },
    {
      "midi": 68,
      "hit": false,
      "t": 174957.74700000032,
      "d": 152.31071874999907,
      "v": 60
    },
    {
      "midi": 58,
      "hit": false,
      "t": 175461.94799999954,
      "d": 152.31071874999907,
      "v": 85
    },
    {
      "midi": 61,
      "hit": false,
      "t": 175461.94799999954,
      "d": 152.31071874999907,
      "v": 85
    },
    {
      "midi": 66,
      "hit": false,
      "t": 175461.94799999954,
      "d": 152.31071874999907,
      "v": 85
    },
    {
      "midi": 61,
      "hit": false,
      "t": 175461.94800000032,
      "d": 152.31071874999907,
      "v": 60
    },
    {
      "midi": 66,
      "hit": false,
      "t": 175461.94800000032,
      "d": 152.31071874999907,
      "v": 60
    },
    {
      "midi": 70,
      "hit": false,
      "t": 175461.94800000032,
      "d": 152.31071874999907,
      "v": 60
    },
    {
      "midi": 58,
      "hit": false,
      "t": 175966.14899999954,
      "d": 152.31071874999907,
      "v": 85
    },
    {
      "midi": 61,
      "hit": false,
      "t": 175966.14899999954,
      "d": 152.31071874999907,
      "v": 85
    },
    {
      "midi": 66,
      "hit": false,
      "t": 175966.14899999954,
      "d": 152.31071874999907,
      "v": 85
    },
    {
      "midi": 61,
      "hit": false,
      "t": 175966.14900000033,
      "d": 152.31071874999907,
      "v": 60
    },
    {
      "midi": 66,
      "hit": false,
      "t": 175966.14900000033,
      "d": 152.31071874999907,
      "v": 60
    },
    {
      "midi": 70,
      "hit": false,
      "t": 175966.14900000033,
      "d": 152.31071874999907,
      "v": 60
    },
    {
      "midi": 58,
      "hit": false,
      "t": 176470.34999999954,
      "d": 152.31071874999907,
      "v": 85
    },
    {
      "midi": 61,
      "hit": false,
      "t": 176470.34999999954,
      "d": 152.31071874999907,
      "v": 85
    },
    {
      "midi": 66,
      "hit": false,
      "t": 176470.34999999954,
      "d": 152.31071874999907,
      "v": 85
    },
    {
      "midi": 61,
      "hit": false,
      "t": 176470.35000000033,
      "d": 152.31071874999907,
      "v": 60
    },
    {
      "midi": 66,
      "hit": false,
      "t": 176470.35000000033,
      "d": 152.31071874999907,
      "v": 60
    },
    {
      "midi": 70,
      "hit": false,
      "t": 176470.35000000033,
      "d": 152.31071874999907,
      "v": 60
    },
    {
      "midi": 58,
      "hit": false,
      "t": 176806.48399999953,
      "d": 635.5033437499951,
      "v": 85
    },
    {
      "midi": 61,
      "hit": false,
      "t": 176806.48399999953,
      "d": 635.5033437499951,
      "v": 85
    },
    {
      "midi": 66,
      "hit": false,
      "t": 176806.48399999953,
      "d": 635.5033437499951,
      "v": 85
    },
    {
      "midi": 61,
      "hit": false,
      "t": 176974.55100000033,
      "d": 152.31071874999907,
      "v": 60
    },
    {
      "midi": 66,
      "hit": false,
      "t": 176974.55100000033,
      "d": 152.31071874999907,
      "v": 60
    },
    {
      "midi": 70,
      "hit": false,
      "t": 176974.55100000033,
      "d": 152.31071874999907,
      "v": 60
    },
    {
      "midi": 57,
      "hit": false,
      "t": 177478.7519999995,
      "d": 152.31071874999907,
      "v": 85
    },
    {
      "midi": 61,
      "hit": false,
      "t": 177478.7519999995,
      "d": 152.31071874999907,
      "v": 85
    },
    {
      "midi": 64,
      "hit": false,
      "t": 177478.7519999995,
      "d": 152.31071874999907,
      "v": 85
    },
    {
      "midi": 61,
      "hit": false,
      "t": 177478.75200000033,
      "d": 152.31071874999907,
      "v": 60
    },
    {
      "midi": 64,
      "hit": false,
      "t": 177478.75200000033,
      "d": 152.31071874999907,
      "v": 60
    },
    {
      "midi": 69,
      "hit": false,
      "t": 177478.75200000033,
      "d": 152.31071874999907,
      "v": 60
    },
    {
      "midi": 57,
      "hit": false,
      "t": 177982.9529999995,
      "d": 152.31071874999907,
      "v": 85
    },
    {
      "midi": 61,
      "hit": false,
      "t": 177982.9529999995,
      "d": 152.31071874999907,
      "v": 85
    },
    {
      "midi": 64,
      "hit": false,
      "t": 177982.9529999995,
      "d": 152.31071874999907,
      "v": 85
    },
    {
      "midi": 61,
      "hit": false,
      "t": 177982.95300000033,
      "d": 152.31071874999907,
      "v": 60
    },
    {
      "midi": 64,
      "hit": false,
      "t": 177982.95300000033,
      "d": 152.31071874999907,
      "v": 60
    },
    {
      "midi": 69,
      "hit": false,
      "t": 177982.95300000033,
      "d": 152.31071874999907,
      "v": 60
    },
    {
      "midi": 57,
      "hit": false,
      "t": 178487.15399999951,
      "d": 152.31071874999907,
      "v": 85
    },
    {
      "midi": 61,
      "hit": false,
      "t": 178487.15399999951,
      "d": 152.31071874999907,
      "v": 85
    },
    {
      "midi": 66,
      "hit": false,
      "t": 178487.15399999951,
      "d": 152.31071874999907,
      "v": 85
    },
    {
      "midi": 61,
      "hit": false,
      "t": 178487.15400000033,
      "d": 152.31071874999907,
      "v": 60
    },
    {
      "midi": 64,
      "hit": false,
      "t": 178487.15400000033,
      "d": 152.31071874999907,
      "v": 60
    },
    {
      "midi": 69,
      "hit": false,
      "t": 178487.15400000033,
      "d": 152.31071874999907,
      "v": 60
    },
    {
      "midi": 57,
      "hit": false,
      "t": 178823.2879999995,
      "d": 635.5033437499951,
      "v": 85
    },
    {
      "midi": 61,
      "hit": false,
      "t": 178823.2879999995,
      "d": 635.5033437499951,
      "v": 85
    },
    {
      "midi": 64,
      "hit": false,
      "t": 178823.2879999995,
      "d": 635.5033437499951,
      "v": 85
    },
    {
      "midi": 61,
      "hit": false,
      "t": 178991.35500000033,
      "d": 152.31071874999907,
      "v": 60
    },
    {
      "midi": 64,
      "hit": false,
      "t": 178991.35500000033,
      "d": 152.31071874999907,
      "v": 60
    },
    {
      "midi": 69,
      "hit": false,
      "t": 178991.35500000033,
      "d": 152.31071874999907,
      "v": 60
    },
    {
      "midi": 58,
      "hit": false,
      "t": 179495.5559999995,
      "d": 152.31071874999907,
      "v": 85
    },
    {
      "midi": 61,
      "hit": false,
      "t": 179495.5559999995,
      "d": 152.31071874999907,
      "v": 85
    },
    {
      "midi": 66,
      "hit": false,
      "t": 179495.5559999995,
      "d": 152.31071874999907,
      "v": 85
    },
    {
      "midi": 61,
      "hit": false,
      "t": 179495.55600000033,
      "d": 152.31071874999907,
      "v": 60
    },
    {
      "midi": 66,
      "hit": false,
      "t": 179495.55600000033,
      "d": 152.31071874999907,
      "v": 60
    },
    {
      "midi": 70,
      "hit": false,
      "t": 179495.55600000033,
      "d": 152.31071874999907,
      "v": 60
    },
    {
      "midi": 58,
      "hit": false,
      "t": 179999.7569999995,
      "d": 152.31071874999907,
      "v": 85
    },
    {
      "midi": 61,
      "hit": false,
      "t": 179999.7569999995,
      "d": 152.31071874999907,
      "v": 85
    },
    {
      "midi": 66,
      "hit": false,
      "t": 179999.7569999995,
      "d": 152.31071874999907,
      "v": 85
    },
    {
      "midi": 61,
      "hit": false,
      "t": 179999.75700000033,
      "d": 152.31071874999907,
      "v": 60
    },
    {
      "midi": 66,
      "hit": false,
      "t": 179999.75700000033,
      "d": 152.31071874999907,
      "v": 60
    },
    {
      "midi": 70,
      "hit": false,
      "t": 179999.75700000033,
      "d": 152.31071874999907,
      "v": 60
    },
    {
      "midi": 58,
      "hit": false,
      "t": 180503.9579999995,
      "d": 152.31071874999907,
      "v": 85
    },
    {
      "midi": 61,
      "hit": false,
      "t": 180503.9579999995,
      "d": 152.31071874999907,
      "v": 85
    },
    {
      "midi": 66,
      "hit": false,
      "t": 180503.9579999995,
      "d": 152.31071874999907,
      "v": 85
    },
    {
      "midi": 61,
      "hit": false,
      "t": 180503.95800000033,
      "d": 152.31071874999907,
      "v": 60
    },
    {
      "midi": 66,
      "hit": false,
      "t": 180503.95800000033,
      "d": 152.31071874999907,
      "v": 60
    },
    {
      "midi": 70,
      "hit": false,
      "t": 180503.95800000033,
      "d": 152.31071874999907,
      "v": 60
    },
    {
      "midi": 58,
      "hit": false,
      "t": 180840.09199999948,
      "d": 635.5033437499951,
      "v": 85
    },
    {
      "midi": 61,
      "hit": false,
      "t": 180840.09199999948,
      "d": 635.5033437499951,
      "v": 85
    },
    {
      "midi": 66,
      "hit": false,
      "t": 180840.09199999948,
      "d": 635.5033437499951,
      "v": 85
    },
    {
      "midi": 61,
      "hit": false,
      "t": 181008.15900000033,
      "d": 152.31071874999907,
      "v": 60
    },
    {
      "midi": 66,
      "hit": false,
      "t": 181008.15900000033,
      "d": 152.31071874999907,
      "v": 60
    },
    {
      "midi": 70,
      "hit": false,
      "t": 181008.15900000033,
      "d": 152.31071874999907,
      "v": 60
    },
    {
      "midi": 59,
      "hit": false,
      "t": 181512.35999999946,
      "d": 152.31071874999907,
      "v": 85
    },
    {
      "midi": 64,
      "hit": false,
      "t": 181512.35999999946,
      "d": 152.31071874999907,
      "v": 85
    },
    {
      "midi": 68,
      "hit": false,
      "t": 181512.35999999946,
      "d": 152.31071874999907,
      "v": 85
    },
    {
      "midi": 61,
      "hit": false,
      "t": 181512.36000000034,
      "d": 152.31071874999907,
      "v": 60
    },
    {
      "midi": 64,
      "hit": false,
      "t": 181512.36000000034,
      "d": 152.31071874999907,
      "v": 60
    },
    {
      "midi": 68,
      "hit": false,
      "t": 181512.36000000034,
      "d": 152.31071874999907,
      "v": 60
    },
    {
      "midi": 59,
      "hit": false,
      "t": 182016.56099999946,
      "d": 152.31071874999907,
      "v": 85
    },
    {
      "midi": 64,
      "hit": false,
      "t": 182016.56099999946,
      "d": 152.31071874999907,
      "v": 85
    },
    {
      "midi": 68,
      "hit": false,
      "t": 182016.56099999946,
      "d": 152.31071874999907,
      "v": 85
    },
    {
      "midi": 61,
      "hit": false,
      "t": 182016.56100000034,
      "d": 152.31071874999907,
      "v": 60
    },
    {
      "midi": 64,
      "hit": false,
      "t": 182016.56100000034,
      "d": 152.31071874999907,
      "v": 60
    },
    {
      "midi": 68,
      "hit": false,
      "t": 182016.56100000034,
      "d": 152.31071874999907,
      "v": 60
    },
    {
      "midi": 59,
      "hit": false,
      "t": 182520.76199999946,
      "d": 152.31071874999907,
      "v": 85
    },
    {
      "midi": 64,
      "hit": false,
      "t": 182520.76199999946,
      "d": 152.31071874999907,
      "v": 85
    },
    {
      "midi": 68,
      "hit": false,
      "t": 182520.76199999946,
      "d": 152.31071874999907,
      "v": 85
    },
    {
      "midi": 61,
      "hit": false,
      "t": 182520.76200000034,
      "d": 152.31071874999907,
      "v": 60
    },
    {
      "midi": 64,
      "hit": false,
      "t": 182520.76200000034,
      "d": 152.31071874999907,
      "v": 60
    },
    {
      "midi": 68,
      "hit": false,
      "t": 182520.76200000034,
      "d": 152.31071874999907,
      "v": 60
    },
    {
      "midi": 59,
      "hit": false,
      "t": 182856.89599999945,
      "d": 635.5033437499951,
      "v": 85
    },
    {
      "midi": 64,
      "hit": false,
      "t": 182856.89599999945,
      "d": 635.5033437499951,
      "v": 85
    },
    {
      "midi": 68,
      "hit": false,
      "t": 182856.89599999945,
      "d": 635.5033437499951,
      "v": 85
    },
    {
      "midi": 61,
      "hit": false,
      "t": 183024.96300000034,
      "d": 152.31071874999907,
      "v": 60
    },
    {
      "midi": 64,
      "hit": false,
      "t": 183024.96300000034,
      "d": 152.31071874999907,
      "v": 60
    },
    {
      "midi": 68,
      "hit": false,
      "t": 183024.96300000034,
      "d": 152.31071874999907,
      "v": 60
    },
    {
      "midi": 58,
      "hit": false,
      "t": 183529.16399999944,
      "d": 152.31071874999907,
      "v": 85
    },
    {
      "midi": 61,
      "hit": false,
      "t": 183529.16399999944,
      "d": 152.31071874999907,
      "v": 85
    },
    {
      "midi": 66,
      "hit": false,
      "t": 183529.16399999944,
      "d": 152.31071874999907,
      "v": 85
    },
    {
      "midi": 61,
      "hit": false,
      "t": 183529.16400000034,
      "d": 152.31071874999907,
      "v": 60
    },
    {
      "midi": 66,
      "hit": false,
      "t": 183529.16400000034,
      "d": 152.31071874999907,
      "v": 60
    },
    {
      "midi": 70,
      "hit": false,
      "t": 183529.16400000034,
      "d": 152.31071874999907,
      "v": 60
    },
    {
      "midi": 58,
      "hit": false,
      "t": 184033.36499999944,
      "d": 152.31071874999907,
      "v": 85
    },
    {
      "midi": 61,
      "hit": false,
      "t": 184033.36499999944,
      "d": 152.31071874999907,
      "v": 85
    },
    {
      "midi": 66,
      "hit": false,
      "t": 184033.36499999944,
      "d": 152.31071874999907,
      "v": 85
    },
    {
      "midi": 61,
      "hit": false,
      "t": 184033.36500000034,
      "d": 152.31071874999907,
      "v": 60
    },
    {
      "midi": 66,
      "hit": false,
      "t": 184033.36500000034,
      "d": 152.31071874999907,
      "v": 60
    },
    {
      "midi": 70,
      "hit": false,
      "t": 184033.36500000034,
      "d": 152.31071874999907,
      "v": 60
    },
    {
      "midi": 58,
      "hit": false,
      "t": 184537.56599999944,
      "d": 152.31071874999907,
      "v": 85
    },
    {
      "midi": 61,
      "hit": false,
      "t": 184537.56599999944,
      "d": 152.31071874999907,
      "v": 85
    },
    {
      "midi": 66,
      "hit": false,
      "t": 184537.56599999944,
      "d": 152.31071874999907,
      "v": 85
    },
    {
      "midi": 61,
      "hit": false,
      "t": 184537.56600000034,
      "d": 152.31071874999907,
      "v": 60
    },
    {
      "midi": 66,
      "hit": false,
      "t": 184537.56600000034,
      "d": 152.31071874999907,
      "v": 60
    },
    {
      "midi": 70,
      "hit": false,
      "t": 184537.56600000034,
      "d": 152.31071874999907,
      "v": 60
    },
    {
      "midi": 58,
      "hit": false,
      "t": 184873.69999999943,
      "d": 635.5033437499951,
      "v": 85
    },
    {
      "midi": 61,
      "hit": false,
      "t": 184873.69999999943,
      "d": 635.5033437499951,
      "v": 85
    },
    {
      "midi": 66,
      "hit": false,
      "t": 184873.69999999943,
      "d": 635.5033437499951,
      "v": 85
    },
    {
      "midi": 61,
      "hit": false,
      "t": 185041.76700000034,
      "d": 152.31071874999907,
      "v": 60
    },
    {
      "midi": 66,
      "hit": false,
      "t": 185041.76700000034,
      "d": 152.31071874999907,
      "v": 60
    },
    {
      "midi": 70,
      "hit": false,
      "t": 185041.76700000034,
      "d": 152.31071874999907,
      "v": 60
    },
    {
      "midi": 57,
      "hit": false,
      "t": 185545.9679999994,
      "d": 152.31071874999907,
      "v": 85
    },
    {
      "midi": 61,
      "hit": false,
      "t": 185545.9679999994,
      "d": 152.31071874999907,
      "v": 85
    },
    {
      "midi": 64,
      "hit": false,
      "t": 185545.9679999994,
      "d": 152.31071874999907,
      "v": 85
    },
    {
      "midi": 61,
      "hit": false,
      "t": 185545.96800000034,
      "d": 152.31071874999907,
      "v": 60
    },
    {
      "midi": 64,
      "hit": false,
      "t": 185545.96800000034,
      "d": 152.31071874999907,
      "v": 60
    },
    {
      "midi": 69,
      "hit": false,
      "t": 185545.96800000034,
      "d": 152.31071874999907,
      "v": 60
    },
    {
      "midi": 57,
      "hit": false,
      "t": 186050.1689999994,
      "d": 152.31071874999907,
      "v": 85
    },
    {
      "midi": 61,
      "hit": false,
      "t": 186050.1689999994,
      "d": 152.31071874999907,
      "v": 85
    },
    {
      "midi": 64,
      "hit": false,
      "t": 186050.1689999994,
      "d": 152.31071874999907,
      "v": 85
    },
    {
      "midi": 61,
      "hit": false,
      "t": 186050.16900000034,
      "d": 152.31071874999907,
      "v": 60
    },
    {
      "midi": 64,
      "hit": false,
      "t": 186050.16900000034,
      "d": 152.31071874999907,
      "v": 60
    },
    {
      "midi": 69,
      "hit": false,
      "t": 186050.16900000034,
      "d": 152.31071874999907,
      "v": 60
    },
    {
      "midi": 57,
      "hit": false,
      "t": 186554.3699999994,
      "d": 152.31071874999907,
      "v": 85
    },
    {
      "midi": 61,
      "hit": false,
      "t": 186554.3699999994,
      "d": 152.31071874999907,
      "v": 85
    },
    {
      "midi": 66,
      "hit": false,
      "t": 186554.3699999994,
      "d": 152.31071874999907,
      "v": 85
    },
    {
      "midi": 61,
      "hit": false,
      "t": 186554.37000000034,
      "d": 152.31071874999907,
      "v": 60
    },
    {
      "midi": 64,
      "hit": false,
      "t": 186554.37000000034,
      "d": 152.31071874999907,
      "v": 60
    },
    {
      "midi": 69,
      "hit": false,
      "t": 186554.37000000034,
      "d": 152.31071874999907,
      "v": 60
    },
    {
      "midi": 61,
      "hit": false,
      "t": 186890.5039999994,
      "d": 456.9321562499972,
      "v": 85
    },
    {
      "midi": 64,
      "hit": false,
      "t": 186890.5039999994,
      "d": 456.9321562499972,
      "v": 85
    },
    {
      "midi": 57,
      "hit": false,
      "t": 186890.5039999994,
      "d": 462.18424999999115,
      "v": 85
    },
    {
      "midi": 61,
      "hit": false,
      "t": 187058.57100000035,
      "d": 152.31071874999907,
      "v": 60
    },
    {
      "midi": 64,
      "hit": false,
      "t": 187058.57100000035,
      "d": 152.31071874999907,
      "v": 60
    },
    {
      "midi": 69,
      "hit": false,
      "t": 187058.57100000035,
      "d": 152.31071874999907,
      "v": 60
    },
    {
      "midi": 58,
      "hit": false,
      "t": 187562.7719999994,
      "d": 152.31071874999907,
      "v": 85
    },
    {
      "midi": 61,
      "hit": false,
      "t": 187562.7719999994,
      "d": 152.31071874999907,
      "v": 85
    },
    {
      "midi": 66,
      "hit": false,
      "t": 187562.7719999994,
      "d": 152.31071874999907,
      "v": 85
    },
    {
      "midi": 61,
      "hit": false,
      "t": 187562.77200000035,
      "d": 152.31071874999907,
      "v": 60
    },
    {
      "midi": 66,
      "hit": false,
      "t": 187562.77200000035,
      "d": 152.31071874999907,
      "v": 60
    },
    {
      "midi": 70,
      "hit": false,
      "t": 187562.77200000035,
      "d": 152.31071874999907,
      "v": 60
    },
    {
      "midi": 58,
      "hit": false,
      "t": 188066.9729999994,
      "d": 152.31071874999907,
      "v": 85
    },
    {
      "midi": 61,
      "hit": false,
      "t": 188066.9729999994,
      "d": 152.31071874999907,
      "v": 85
    },
    {
      "midi": 66,
      "hit": false,
      "t": 188066.9729999994,
      "d": 152.31071874999907,
      "v": 85
    },
    {
      "midi": 61,
      "hit": false,
      "t": 188066.97300000035,
      "d": 152.31071874999907,
      "v": 60
    },
    {
      "midi": 66,
      "hit": false,
      "t": 188066.97300000035,
      "d": 152.31071874999907,
      "v": 60
    },
    {
      "midi": 70,
      "hit": false,
      "t": 188066.97300000035,
      "d": 152.31071874999907,
      "v": 60
    },
    {
      "midi": 58,
      "hit": false,
      "t": 188571.1739999994,
      "d": 152.31071874999907,
      "v": 85
    },
    {
      "midi": 61,
      "hit": false,
      "t": 188571.1739999994,
      "d": 152.31071874999907,
      "v": 85
    },
    {
      "midi": 66,
      "hit": false,
      "t": 188571.1739999994,
      "d": 152.31071874999907,
      "v": 85
    },
    {
      "midi": 61,
      "hit": false,
      "t": 188571.17400000035,
      "d": 152.31071874999907,
      "v": 60
    },
    {
      "midi": 66,
      "hit": false,
      "t": 188571.17400000035,
      "d": 152.31071874999907,
      "v": 60
    },
    {
      "midi": 70,
      "hit": false,
      "t": 188571.17400000035,
      "d": 152.31071874999907,
      "v": 60
    },
    {
      "midi": 58,
      "hit": false,
      "t": 188907.30799999938,
      "d": 635.5033437499951,
      "v": 85
    },
    {
      "midi": 61,
      "hit": false,
      "t": 188907.30799999938,
      "d": 635.5033437499951,
      "v": 85
    },
    {
      "midi": 66,
      "hit": false,
      "t": 188907.30799999938,
      "d": 635.5033437499951,
      "v": 85
    },
    {
      "midi": 61,
      "hit": false,
      "t": 189075.37500000035,
      "d": 152.31071874999907,
      "v": 60
    },
    {
      "midi": 66,
      "hit": false,
      "t": 189075.37500000035,
      "d": 152.31071874999907,
      "v": 60
    },
    {
      "midi": 70,
      "hit": false,
      "t": 189075.37500000035,
      "d": 152.31071874999907,
      "v": 60
    },
    {
      "midi": 59,
      "hit": false,
      "t": 189579.57599999936,
      "d": 152.31071874999907,
      "v": 85
    },
    {
      "midi": 64,
      "hit": false,
      "t": 189579.57599999936,
      "d": 152.31071874999907,
      "v": 85
    },
    {
      "midi": 68,
      "hit": false,
      "t": 189579.57599999936,
      "d": 152.31071874999907,
      "v": 85
    },
    {
      "midi": 61,
      "hit": false,
      "t": 189579.57600000035,
      "d": 152.31071874999907,
      "v": 60
    },
    {
      "midi": 64,
      "hit": false,
      "t": 189579.57600000035,
      "d": 152.31071874999907,
      "v": 60
    },
    {
      "midi": 68,
      "hit": false,
      "t": 189579.57600000035,
      "d": 152.31071874999907,
      "v": 60
    },
    {
      "midi": 59,
      "hit": false,
      "t": 190083.77699999936,
      "d": 152.31071874999907,
      "v": 85
    },
    {
      "midi": 64,
      "hit": false,
      "t": 190083.77699999936,
      "d": 152.31071874999907,
      "v": 85
    },
    {
      "midi": 68,
      "hit": false,
      "t": 190083.77699999936,
      "d": 152.31071874999907,
      "v": 85
    },
    {
      "midi": 61,
      "hit": false,
      "t": 190083.77700000035,
      "d": 152.31071874999907,
      "v": 60
    },
    {
      "midi": 64,
      "hit": false,
      "t": 190083.77700000035,
      "d": 152.31071874999907,
      "v": 60
    },
    {
      "midi": 68,
      "hit": false,
      "t": 190083.77700000035,
      "d": 152.31071874999907,
      "v": 60
    },
    {
      "midi": 59,
      "hit": false,
      "t": 190587.97799999936,
      "d": 152.31071874999907,
      "v": 85
    },
    {
      "midi": 64,
      "hit": false,
      "t": 190587.97799999936,
      "d": 152.31071874999907,
      "v": 85
    },
    {
      "midi": 68,
      "hit": false,
      "t": 190587.97799999936,
      "d": 152.31071874999907,
      "v": 85
    },
    {
      "midi": 61,
      "hit": false,
      "t": 190587.97800000035,
      "d": 152.31071874999907,
      "v": 60
    },
    {
      "midi": 64,
      "hit": false,
      "t": 190587.97800000035,
      "d": 152.31071874999907,
      "v": 60
    },
    {
      "midi": 68,
      "hit": false,
      "t": 190587.97800000035,
      "d": 152.31071874999907,
      "v": 60
    },
    {
      "midi": 59,
      "hit": false,
      "t": 190924.11199999935,
      "d": 635.5033437499951,
      "v": 85
    },
    {
      "midi": 64,
      "hit": false,
      "t": 190924.11199999935,
      "d": 635.5033437499951,
      "v": 85
    },
    {
      "midi": 68,
      "hit": false,
      "t": 190924.11199999935,
      "d": 635.5033437499951,
      "v": 85
    },
    {
      "midi": 61,
      "hit": false,
      "t": 191092.17900000035,
      "d": 152.31071874999907,
      "v": 60
    },
    {
      "midi": 64,
      "hit": false,
      "t": 191092.17900000035,
      "d": 152.31071874999907,
      "v": 60
    },
    {
      "midi": 68,
      "hit": false,
      "t": 191092.17900000035,
      "d": 152.31071874999907,
      "v": 60
    },
    {
      "midi": 58,
      "hit": false,
      "t": 191596.37999999934,
      "d": 152.31071874999907,
      "v": 85
    },
    {
      "midi": 61,
      "hit": false,
      "t": 191596.37999999934,
      "d": 152.31071874999907,
      "v": 85
    },
    {
      "midi": 66,
      "hit": false,
      "t": 191596.37999999934,
      "d": 152.31071874999907,
      "v": 85
    },
    {
      "midi": 61,
      "hit": false,
      "t": 191596.38000000035,
      "d": 152.31071874999907,
      "v": 60
    },
    {
      "midi": 66,
      "hit": false,
      "t": 191596.38000000035,
      "d": 152.31071874999907,
      "v": 60
    },
    {
      "midi": 70,
      "hit": false,
      "t": 191596.38000000035,
      "d": 152.31071874999907,
      "v": 60
    },
    {
      "midi": 58,
      "hit": false,
      "t": 192100.58099999934,
      "d": 152.31071874999907,
      "v": 85
    },
    {
      "midi": 61,
      "hit": false,
      "t": 192100.58099999934,
      "d": 152.31071874999907,
      "v": 85
    },
    {
      "midi": 66,
      "hit": false,
      "t": 192100.58099999934,
      "d": 152.31071874999907,
      "v": 85
    },
    {
      "midi": 61,
      "hit": false,
      "t": 192100.58100000035,
      "d": 152.31071874999907,
      "v": 60
    },
    {
      "midi": 66,
      "hit": false,
      "t": 192100.58100000035,
      "d": 152.31071874999907,
      "v": 60
    },
    {
      "midi": 70,
      "hit": false,
      "t": 192100.58100000035,
      "d": 152.31071874999907,
      "v": 60
    },
    {
      "midi": 58,
      "hit": false,
      "t": 192604.78199999934,
      "d": 152.31071874999907,
      "v": 85
    },
    {
      "midi": 61,
      "hit": false,
      "t": 192604.78199999934,
      "d": 152.31071874999907,
      "v": 85
    },
    {
      "midi": 66,
      "hit": false,
      "t": 192604.78199999934,
      "d": 152.31071874999907,
      "v": 85
    },
    {
      "midi": 61,
      "hit": false,
      "t": 192604.78200000036,
      "d": 152.31071874999907,
      "v": 60
    },
    {
      "midi": 66,
      "hit": false,
      "t": 192604.78200000036,
      "d": 152.31071874999907,
      "v": 60
    },
    {
      "midi": 70,
      "hit": false,
      "t": 192604.78200000036,
      "d": 152.31071874999907,
      "v": 60
    },
    {
      "midi": 58,
      "hit": false,
      "t": 192940.91599999933,
      "d": 635.5033437499951,
      "v": 85
    },
    {
      "midi": 61,
      "hit": false,
      "t": 192940.91599999933,
      "d": 635.5033437499951,
      "v": 85
    },
    {
      "midi": 66,
      "hit": false,
      "t": 192940.91599999933,
      "d": 635.5033437499951,
      "v": 85
    },
    {
      "midi": 61,
      "hit": false,
      "t": 193108.98300000036,
      "d": 152.31071874999907,
      "v": 60
    },
    {
      "midi": 66,
      "hit": false,
      "t": 193108.98300000036,
      "d": 152.31071874999907,
      "v": 60
    },
    {
      "midi": 70,
      "hit": false,
      "t": 193108.98300000036,
      "d": 152.31071874999907,
      "v": 60
    },
    {
      "midi": 57,
      "hit": false,
      "t": 193613.1839999993,
      "d": 152.31071874999907,
      "v": 85
    },
    {
      "midi": 61,
      "hit": false,
      "t": 193613.1839999993,
      "d": 152.31071874999907,
      "v": 85
    },
    {
      "midi": 64,
      "hit": false,
      "t": 193613.1839999993,
      "d": 152.31071874999907,
      "v": 85
    },
    {
      "midi": 61,
      "hit": false,
      "t": 193613.18400000036,
      "d": 152.31071874999907,
      "v": 60
    },
    {
      "midi": 64,
      "hit": false,
      "t": 193613.18400000036,
      "d": 152.31071874999907,
      "v": 60
    },
    {
      "midi": 69,
      "hit": false,
      "t": 193613.18400000036,
      "d": 152.31071874999907,
      "v": 60
    },
    {
      "midi": 57,
      "hit": false,
      "t": 194117.3849999993,
      "d": 152.31071874999907,
      "v": 85
    },
    {
      "midi": 61,
      "hit": false,
      "t": 194117.3849999993,
      "d": 152.31071874999907,
      "v": 85
    },
    {
      "midi": 64,
      "hit": false,
      "t": 194117.3849999993,
      "d": 152.31071874999907,
      "v": 85
    },
    {
      "midi": 61,
      "hit": false,
      "t": 194117.38500000036,
      "d": 152.31071874999907,
      "v": 60
    },
    {
      "midi": 64,
      "hit": false,
      "t": 194117.38500000036,
      "d": 152.31071874999907,
      "v": 60
    },
    {
      "midi": 69,
      "hit": false,
      "t": 194117.38500000036,
      "d": 152.31071874999907,
      "v": 60
    },
    {
      "midi": 57,
      "hit": false,
      "t": 194621.5859999993,
      "d": 152.31071874999907,
      "v": 85
    },
    {
      "midi": 61,
      "hit": false,
      "t": 194621.5859999993,
      "d": 152.31071874999907,
      "v": 85
    },
    {
      "midi": 66,
      "hit": false,
      "t": 194621.5859999993,
      "d": 152.31071874999907,
      "v": 85
    },
    {
      "midi": 61,
      "hit": false,
      "t": 194621.58600000036,
      "d": 152.31071874999907,
      "v": 60
    },
    {
      "midi": 64,
      "hit": false,
      "t": 194621.58600000036,
      "d": 152.31071874999907,
      "v": 60
    },
    {
      "midi": 69,
      "hit": false,
      "t": 194621.58600000036,
      "d": 152.31071874999907,
      "v": 60
    },
    {
      "midi": 57,
      "hit": false,
      "t": 194957.7199999993,
      "d": 635.5033437499951,
      "v": 85
    },
    {
      "midi": 61,
      "hit": false,
      "t": 194957.7199999993,
      "d": 635.5033437499951,
      "v": 85
    },
    {
      "midi": 64,
      "hit": false,
      "t": 194957.7199999993,
      "d": 635.5033437499951,
      "v": 85
    },
    {
      "midi": 61,
      "hit": false,
      "t": 195125.78700000036,
      "d": 152.31071874999907,
      "v": 60
    },
    {
      "midi": 64,
      "hit": false,
      "t": 195125.78700000036,
      "d": 152.31071874999907,
      "v": 60
    },
    {
      "midi": 69,
      "hit": false,
      "t": 195125.78700000036,
      "d": 152.31071874999907,
      "v": 60
    },
    {
      "midi": 58,
      "hit": false,
      "t": 195629.98799999928,
      "d": 152.31071874999907,
      "v": 85
    },
    {
      "midi": 61,
      "hit": false,
      "t": 195629.98799999928,
      "d": 152.31071874999907,
      "v": 85
    },
    {
      "midi": 66,
      "hit": false,
      "t": 195629.98799999928,
      "d": 152.31071874999907,
      "v": 85
    },
    {
      "midi": 61,
      "hit": false,
      "t": 195629.98800000036,
      "d": 152.31071874999907,
      "v": 60
    },
    {
      "midi": 66,
      "hit": false,
      "t": 195629.98800000036,
      "d": 152.31071874999907,
      "v": 60
    },
    {
      "midi": 70,
      "hit": false,
      "t": 195629.98800000036,
      "d": 152.31071874999907,
      "v": 60
    },
    {
      "midi": 58,
      "hit": false,
      "t": 196134.18899999929,
      "d": 152.31071874999907,
      "v": 85
    },
    {
      "midi": 61,
      "hit": false,
      "t": 196134.18899999929,
      "d": 152.31071874999907,
      "v": 85
    },
    {
      "midi": 66,
      "hit": false,
      "t": 196134.18899999929,
      "d": 152.31071874999907,
      "v": 85
    },
    {
      "midi": 61,
      "hit": false,
      "t": 196134.18900000036,
      "d": 152.31071874999907,
      "v": 60
    },
    {
      "midi": 66,
      "hit": false,
      "t": 196134.18900000036,
      "d": 152.31071874999907,
      "v": 60
    },
    {
      "midi": 70,
      "hit": false,
      "t": 196134.18900000036,
      "d": 152.31071874999907,
      "v": 60
    },
    {
      "midi": 58,
      "hit": false,
      "t": 196638.3899999993,
      "d": 152.31071874999907,
      "v": 85
    },
    {
      "midi": 61,
      "hit": false,
      "t": 196638.3899999993,
      "d": 152.31071874999907,
      "v": 85
    },
    {
      "midi": 66,
      "hit": false,
      "t": 196638.3899999993,
      "d": 152.31071874999907,
      "v": 85
    },
    {
      "midi": 61,
      "hit": false,
      "t": 196638.39000000036,
      "d": 152.31071874999907,
      "v": 60
    },
    {
      "midi": 66,
      "hit": false,
      "t": 196638.39000000036,
      "d": 152.31071874999907,
      "v": 60
    },
    {
      "midi": 70,
      "hit": false,
      "t": 196638.39000000036,
      "d": 152.31071874999907,
      "v": 60
    },
    {
      "midi": 58,
      "hit": false,
      "t": 196974.52399999928,
      "d": 635.5033437499951,
      "v": 85
    },
    {
      "midi": 61,
      "hit": false,
      "t": 196974.52399999928,
      "d": 635.5033437499951,
      "v": 85
    },
    {
      "midi": 66,
      "hit": false,
      "t": 196974.52399999928,
      "d": 635.5033437499951,
      "v": 85
    },
    {
      "midi": 61,
      "hit": false,
      "t": 197142.59100000036,
      "d": 152.31071874999907,
      "v": 60
    },
    {
      "midi": 66,
      "hit": false,
      "t": 197142.59100000036,
      "d": 152.31071874999907,
      "v": 60
    },
    {
      "midi": 70,
      "hit": false,
      "t": 197142.59100000036,
      "d": 152.31071874999907,
      "v": 60
    },
    {
      "midi": 59,
      "hit": false,
      "t": 197646.79199999926,
      "d": 152.31071874999907,
      "v": 85
    },
    {
      "midi": 64,
      "hit": false,
      "t": 197646.79199999926,
      "d": 152.31071874999907,
      "v": 85
    },
    {
      "midi": 68,
      "hit": false,
      "t": 197646.79199999926,
      "d": 152.31071874999907,
      "v": 85
    },
    {
      "midi": 61,
      "hit": false,
      "t": 197646.79200000037,
      "d": 152.31071874999907,
      "v": 60
    },
    {
      "midi": 64,
      "hit": false,
      "t": 197646.79200000037,
      "d": 152.31071874999907,
      "v": 60
    },
    {
      "midi": 68,
      "hit": false,
      "t": 197646.79200000037,
      "d": 152.31071874999907,
      "v": 60
    },
    {
      "midi": 59,
      "hit": false,
      "t": 198150.99299999926,
      "d": 152.31071874999907,
      "v": 85
    },
    {
      "midi": 64,
      "hit": false,
      "t": 198150.99299999926,
      "d": 152.31071874999907,
      "v": 85
    },
    {
      "midi": 68,
      "hit": false,
      "t": 198150.99299999926,
      "d": 152.31071874999907,
      "v": 85
    },
    {
      "midi": 61,
      "hit": false,
      "t": 198150.99300000037,
      "d": 152.31071874999907,
      "v": 60
    },
    {
      "midi": 64,
      "hit": false,
      "t": 198150.99300000037,
      "d": 152.31071874999907,
      "v": 60
    },
    {
      "midi": 68,
      "hit": false,
      "t": 198150.99300000037,
      "d": 152.31071874999907,
      "v": 60
    },
    {
      "midi": 59,
      "hit": false,
      "t": 198655.19399999926,
      "d": 152.31071874999907,
      "v": 85
    },
    {
      "midi": 64,
      "hit": false,
      "t": 198655.19399999926,
      "d": 152.31071874999907,
      "v": 85
    },
    {
      "midi": 68,
      "hit": false,
      "t": 198655.19399999926,
      "d": 152.31071874999907,
      "v": 85
    },
    {
      "midi": 61,
      "hit": false,
      "t": 198655.19400000037,
      "d": 152.31071874999907,
      "v": 60
    },
    {
      "midi": 64,
      "hit": false,
      "t": 198655.19400000037,
      "d": 152.31071874999907,
      "v": 60
    },
    {
      "midi": 68,
      "hit": false,
      "t": 198655.19400000037,
      "d": 152.31071874999907,
      "v": 60
    },
    {
      "midi": 59,
      "hit": false,
      "t": 198991.32799999925,
      "d": 635.5033437499951,
      "v": 85
    },
    {
      "midi": 64,
      "hit": false,
      "t": 198991.32799999925,
      "d": 635.5033437499951,
      "v": 85
    },
    {
      "midi": 68,
      "hit": false,
      "t": 198991.32799999925,
      "d": 635.5033437499951,
      "v": 85
    },
    {
      "midi": 61,
      "hit": false,
      "t": 199159.39500000037,
      "d": 152.31071874999907,
      "v": 60
    },
    {
      "midi": 64,
      "hit": false,
      "t": 199159.39500000037,
      "d": 152.31071874999907,
      "v": 60
    },
    {
      "midi": 68,
      "hit": false,
      "t": 199159.39500000037,
      "d": 152.31071874999907,
      "v": 60
    },
    {
      "midi": 58,
      "hit": false,
      "t": 199663.59599999923,
      "d": 152.31071874999907,
      "v": 85
    },
    {
      "midi": 61,
      "hit": false,
      "t": 199663.59599999923,
      "d": 152.31071874999907,
      "v": 85
    },
    {
      "midi": 66,
      "hit": false,
      "t": 199663.59599999923,
      "d": 152.31071874999907,
      "v": 85
    },
    {
      "midi": 61,
      "hit": false,
      "t": 199663.59600000037,
      "d": 152.31071874999907,
      "v": 60
    },
    {
      "midi": 66,
      "hit": false,
      "t": 199663.59600000037,
      "d": 152.31071874999907,
      "v": 60
    },
    {
      "midi": 70,
      "hit": false,
      "t": 199663.59600000037,
      "d": 152.31071874999907,
      "v": 60
    },
    {
      "midi": 58,
      "hit": false,
      "t": 200167.79699999923,
      "d": 152.31071874999907,
      "v": 85
    },
    {
      "midi": 61,
      "hit": false,
      "t": 200167.79699999923,
      "d": 152.31071874999907,
      "v": 85
    },
    {
      "midi": 66,
      "hit": false,
      "t": 200167.79699999923,
      "d": 152.31071874999907,
      "v": 85
    },
    {
      "midi": 61,
      "hit": false,
      "t": 200167.79700000037,
      "d": 152.31071874999907,
      "v": 60
    },
    {
      "midi": 66,
      "hit": false,
      "t": 200167.79700000037,
      "d": 152.31071874999907,
      "v": 60
    },
    {
      "midi": 70,
      "hit": false,
      "t": 200167.79700000037,
      "d": 152.31071874999907,
      "v": 60
    },
    {
      "midi": 58,
      "hit": false,
      "t": 200671.99799999924,
      "d": 152.31071874999907,
      "v": 85
    },
    {
      "midi": 61,
      "hit": false,
      "t": 200671.99799999924,
      "d": 152.31071874999907,
      "v": 85
    },
    {
      "midi": 66,
      "hit": false,
      "t": 200671.99799999924,
      "d": 152.31071874999907,
      "v": 85
    },
    {
      "midi": 61,
      "hit": false,
      "t": 200671.99800000037,
      "d": 152.31071874999907,
      "v": 60
    },
    {
      "midi": 66,
      "hit": false,
      "t": 200671.99800000037,
      "d": 152.31071874999907,
      "v": 60
    },
    {
      "midi": 70,
      "hit": false,
      "t": 200671.99800000037,
      "d": 152.31071874999907,
      "v": 60
    },
    {
      "midi": 58,
      "hit": false,
      "t": 201008.13199999923,
      "d": 635.5033437499951,
      "v": 85
    },
    {
      "midi": 61,
      "hit": false,
      "t": 201008.13199999923,
      "d": 635.5033437499951,
      "v": 85
    },
    {
      "midi": 66,
      "hit": false,
      "t": 201008.13199999923,
      "d": 635.5033437499951,
      "v": 85
    },
    {
      "midi": 61,
      "hit": false,
      "t": 201176.19900000037,
      "d": 152.31071874999907,
      "v": 60
    },
    {
      "midi": 66,
      "hit": false,
      "t": 201176.19900000037,
      "d": 152.31071874999907,
      "v": 60
    },
    {
      "midi": 70,
      "hit": false,
      "t": 201176.19900000037,
      "d": 152.31071874999907,
      "v": 60
    },
    {
      "midi": 57,
      "hit": false,
      "t": 201680.3999999992,
      "d": 152.31071874999907,
      "v": 85
    },
    {
      "midi": 61,
      "hit": false,
      "t": 201680.3999999992,
      "d": 152.31071874999907,
      "v": 85
    },
    {
      "midi": 64,
      "hit": false,
      "t": 201680.3999999992,
      "d": 152.31071874999907,
      "v": 85
    },
    {
      "midi": 61,
      "hit": false,
      "t": 201680.40000000037,
      "d": 152.31071874999907,
      "v": 60
    },
    {
      "midi": 64,
      "hit": false,
      "t": 201680.40000000037,
      "d": 152.31071874999907,
      "v": 60
    },
    {
      "midi": 69,
      "hit": false,
      "t": 201680.40000000037,
      "d": 152.31071874999907,
      "v": 60
    },
    {
      "midi": 57,
      "hit": false,
      "t": 202184.6009999992,
      "d": 152.31071874999907,
      "v": 85
    },
    {
      "midi": 61,
      "hit": false,
      "t": 202184.6009999992,
      "d": 152.31071874999907,
      "v": 85
    },
    {
      "midi": 64,
      "hit": false,
      "t": 202184.6009999992,
      "d": 152.31071874999907,
      "v": 85
    },
    {
      "midi": 61,
      "hit": false,
      "t": 202184.60100000037,
      "d": 152.31071874999907,
      "v": 60
    },
    {
      "midi": 64,
      "hit": false,
      "t": 202184.60100000037,
      "d": 152.31071874999907,
      "v": 60
    },
    {
      "midi": 69,
      "hit": false,
      "t": 202184.60100000037,
      "d": 152.31071874999907,
      "v": 60
    },
    {
      "midi": 57,
      "hit": false,
      "t": 202688.8019999992,
      "d": 152.31071874999907,
      "v": 85
    },
    {
      "midi": 61,
      "hit": false,
      "t": 202688.8019999992,
      "d": 152.31071874999907,
      "v": 85
    },
    {
      "midi": 66,
      "hit": false,
      "t": 202688.8019999992,
      "d": 152.31071874999907,
      "v": 85
    },
    {
      "midi": 61,
      "hit": false,
      "t": 202688.80200000037,
      "d": 152.31071874999907,
      "v": 60
    },
    {
      "midi": 64,
      "hit": false,
      "t": 202688.80200000037,
      "d": 152.31071874999907,
      "v": 60
    },
    {
      "midi": 69,
      "hit": false,
      "t": 202688.80200000037,
      "d": 152.31071874999907,
      "v": 60
    },
    {
      "midi": 61,
      "hit": false,
      "t": 203024.9359999992,
      "d": 456.9321562499972,
      "v": 85
    },
    {
      "midi": 64,
      "hit": false,
      "t": 203024.9359999992,
      "d": 456.9321562499972,
      "v": 85
    },
    {
      "midi": 57,
      "hit": false,
      "t": 203024.9359999992,
      "d": 462.18424999999115,
      "v": 85
    },
    {
      "midi": 61,
      "hit": false,
      "t": 203193.00300000038,
      "d": 152.31071874999907,
      "v": 60
    },
    {
      "midi": 64,
      "hit": false,
      "t": 203193.00300000038,
      "d": 152.31071874999907,
      "v": 60
    },
    {
      "midi": 69,
      "hit": false,
      "t": 203193.00300000038,
      "d": 152.31071874999907,
      "v": 60
    },
    {
      "midi": 61,
      "hit": false,
      "t": 203697.20399999918,
      "d": 3981.08706250001,
      "v": 73
    },
    {
      "midi": 63,
      "hit": false,
      "t": 203697.20399999918,
      "d": 3981.08706250001,
      "v": 60
    },
    {
      "midi": 58,
      "hit": false,
      "t": 203697.20399999918,
      "d": 3986.3391562500037,
      "v": 64
    },
    {
      "midi": 66,
      "hit": false,
      "t": 203697.20399999918,
      "d": 3986.3391562500037,
      "v": 60
    },
    {
      "midi": 54,
      "hit": false,
      "t": 203697.20400000038,
      "d": 3981.08706250001,
      "v": 78
    },
    {
      "midi": 63,
      "hit": false,
      "t": 203697.20400000038,
      "d": 3986.3391562500037,
      "v": 78
    }
  ]
}