{
  "jsonPath": "Unknown/Unknown/Meryl Streep  Julie Walters  Christine Baranski/dancing-queen.json",
  "path": "Unknown\\Unknown\\Meryl Streep  Julie Walters  Christine Baranski\\Dancing Queen.mid",
  "name": "Dancing Queen",
  "difficulty": "Advanced",
  "bpm": 116.00008506672904,
  "notes": [
    {
      "midi": 85,
      "hit": false,
      "t": 44412.5,
      "d": 87.5,
      "v": 127
    },
    {
      "midi": 82,
      "hit": false,
      "t": 44456.25,
      "d": 43.75,
      "v": 127
    },
    {
      "midi": 84,
      "hit": false,
      "t": 44506.25,
      "d": 56.25,
      "v": 123
    },
    {
      "midi": 83,
      "hit": false,
      "t": 44518.75,
      "d": 31.25,
      "v": 127
    },
    {
      "midi": 80,
      "hit": false,
      "t": 44568.75,
      "d": 31.25,
      "v": 127
    },
    {
      "midi": 78,
      "hit": false,
      "t": 44593.75,
      "d": 31.25,
      "v": 126
    },
    {
      "midi": 75,
      "hit": false,
      "t": 44631.25,
      "d": 43.75,
      "v": 127
    },
    {
      "midi": 73,
      "hit": false,
      "t": 44681.25,
      "d": 31.25,
      "v": 127
    },
    {
      "midi": 70,
      "hit": false,
      "t": 44718.75,
      "d": 43.75,
      "v": 127
    },
    {
      "midi": 68,
      "hit": false,
      "t": 44756.25,
      "d": 31.25,
      "v": 127
    },
    {
      "midi": 66,
      "hit": false,
      "t": 44781.25,
      "d": 43.75,
      "v": 127
    },
    {
      "midi": 63,
      "hit": false,
      "t": 44837.5,
      "d": 37.5,
      "v": 125
    },
    {
      "midi": 61,
      "hit": false,
      "t": 44881.25,
      "d": 43.75,
      "v": 125
    },
    {
      "midi": 58,
      "hit": false,
      "t": 44943.75,
      "d": 50,
      "v": 127
    },
    {
      "midi": 57,
      "hit": false,
      "t": 45006.25,
      "d": 137.5,
      "v": 127
    },
    {
      "midi": 61,
      "hit": false,
      "t": 45156.25,
      "d": 131.25,
      "v": 127
    },
    {
      "midi": 64,
      "hit": false,
      "t": 45156.25,
      "d": 131.25,
      "v": 127
    },
    {
      "midi": 69,
      "hit": false,
      "t": 45156.25,
      "d": 131.25,
      "v": 127
    },
    {
      "midi": 57,
      "hit": false,
      "t": 45456.25,
      "d": 131.25,
      "v": 123
    },
    {
      "midi": 61,
      "hit": false,
      "t": 45612.5,
      "d": 125,
      "v": 120
    },
    {
      "midi": 64,
      "hit": false,
      "t": 45612.5,
      "d": 125,
      "v": 127
    },
    {
      "midi": 69,
      "hit": false,
      "t": 45612.5,
      "d": 131.25,
      "v": 121
    },
    {
      "midi": 57,
      "hit": false,
      "t": 45906.25,
      "d": 131.25,
      "v": 124
    },
    {
      "midi": 61,
      "hit": false,
      "t": 46056.25,
      "d": 131.25,
      "v": 127
    },
    {
      "midi": 64,
      "hit": false,
      "t": 46056.25,
      "d": 131.25,
      "v": 127
    },
    {
      "midi": 69,
      "hit": false,
      "t": 46056.25,
      "d": 131.25,
      "v": 127
    },
    {
      "midi": 57,
      "hit": false,
      "t": 46356.25,
      "d": 131.25,
      "v": 127
    },
    {
      "midi": 61,
      "hit": false,
      "t": 46506.25,
      "d": 287.5,
      "v": 127
    },
    {
      "midi": 64,
      "hit": false,
      "t": 46512.5,
      "d": 281.25,
      "v": 126
    },
    {
      "midi": 69,
      "hit": false,
      "t": 46512.5,
      "d": 281.25,
      "v": 127
    },
    {
      "midi": 57,
      "hit": false,
      "t": 47412.5,
      "d": 131.25,
      "v": 124
    },
    {
      "midi": 62,
      "hit": false,
      "t": 47556.25,
      "d": 131.25,
      "v": 127
    },
    {
      "midi": 66,
      "hit": false,
      "t": 47556.25,
      "d": 131.25,
      "v": 121
    },
    {
      "midi": 69,
      "hit": false,
      "t": 47556.25,
      "d": 137.5,
      "v": 122
    },
    {
      "midi": 57,
      "hit": false,
      "t": 47856.25,
      "d": 131.25,
      "v": 123
    },
    {
      "midi": 62,
      "hit": false,
      "t": 48012.5,
      "d": 112.5,
      "v": 127
    },
    {
      "midi": 66,
      "hit": false,
      "t": 48012.5,
      "d": 112.5,
      "v": 127
    },
    {
      "midi": 69,
      "hit": false,
      "t": 48012.5,
      "d": 112.5,
      "v": 127
    },
    {
      "midi": 57,
      "hit": false,
      "t": 48306.25,
      "d": 137.5,
      "v": 124
    },
    {
      "midi": 69,
      "hit": false,
      "t": 48456.25,
      "d": 131.25,
      "v": 127
    },
    {
      "midi": 62,
      "hit": false,
      "t": 48456.25,
      "d": 137.5,
      "v": 127
    },
    {
      "midi": 66,
      "hit": false,
      "t": 48456.25,
      "d": 137.5,
      "v": 127
    },
    {
      "midi": 57,
      "hit": false,
      "t": 48756.25,
      "d": 137.5,
      "v": 127
    },
    {
      "midi": 62,
      "hit": false,
      "t": 48906.25,
      "d": 281.25,
      "v": 127
    },
    {
      "midi": 66,
      "hit": false,
      "t": 48912.5,
      "d": 275,
      "v": 125
    },
    {
      "midi": 69,
      "hit": false,
      "t": 48912.5,
      "d": 275,
      "v": 127
    },
    {
      "midi": 57,
      "hit": false,
      "t": 49806.25,
      "d": 137.5,
      "v": 127
    },
    {
      "midi": 61,
      "hit": false,
      "t": 49956.25,
      "d": 118.75,
      "v": 123
    },
    {
      "midi": 64,
      "hit": false,
      "t": 49956.25,
      "d": 118.75,
      "v": 127
    },
    {
      "midi": 69,
      "hit": false,
      "t": 49956.25,
      "d": 118.75,
      "v": 127
    },
    {
      "midi": 57,
      "hit": false,
      "t": 50256.25,
      "d": 131.25,
      "v": 121
    },
    {
      "midi": 61,
      "hit": false,
      "t": 50412.5,
      "d": 125,
      "v": 127
    },
    {
      "midi": 64,
      "hit": false,
      "t": 50412.5,
      "d": 125,
      "v": 127
    },
    {
      "midi": 69,
      "hit": false,
      "t": 50412.5,
      "d": 131.25,
      "v": 126
    },
    {
      "midi": 57,
      "hit": false,
      "t": 50706.25,
      "d": 137.5,
      "v": 127
    },
    {
      "midi": 61,
      "hit": false,
      "t": 50856.25,
      "d": 137.5,
      "v": 127
    },
    {
      "midi": 64,
      "hit": false,
      "t": 50856.25,
      "d": 137.5,
      "v": 127
    },
    {
      "midi": 69,
      "hit": false,
      "t": 50856.25,
      "d": 137.5,
      "v": 123
    },
    {
      "midi": 57,
      "hit": false,
      "t": 51156.25,
      "d": 131.25,
      "v": 120
    },
    {
      "midi": 61,
      "hit": false,
      "t": 51306.25,
      "d": 287.5,
      "v": 127
    },
    {
      "midi": 64,
      "hit": false,
      "t": 51312.5,
      "d": 281.25,
      "v": 125
    },
    {
      "midi": 69,
      "hit": false,
      "t": 51312.5,
      "d": 281.25,
      "v": 122
    },
    {
      "midi": 57,
      "hit": false,
      "t": 52212.5,
      "d": 131.25,
      "v": 127
    },
    {
      "midi": 62,
      "hit": false,
      "t": 52356.25,
      "d": 131.25,
      "v": 127
    },
    {
      "midi": 66,
      "hit": false,
      "t": 52356.25,
      "d": 131.25,
      "v": 127
    },
    {
      "midi": 69,
      "hit": false,
      "t": 52356.25,
      "d": 131.25,
      "v": 121
    },
    {
      "midi": 57,
      "hit": false,
      "t": 52656.25,
      "d": 131.25,
      "v": 127
    },
    {
      "midi": 62,
      "hit": false,
      "t": 52812.5,
      "d": 125,
      "v": 124
    },
    {
      "midi": 66,
      "hit": false,
      "t": 52812.5,
      "d": 125,
      "v": 127
    },
    {
      "midi": 69,
      "hit": false,
      "t": 52818.75,
      "d": 118.75,
      "v": 127
    },
    {
      "midi": 57,
      "hit": false,
      "t": 53106.25,
      "d": 131.25,
      "v": 126
    },
    {
      "midi": 62,
      "hit": false,
      "t": 53256.25,
      "d": 137.5,
      "v": 125
    },
    {
      "midi": 66,
      "hit": false,
      "t": 53256.25,
      "d": 137.5,
      "v": 127
    },
    {
      "midi": 69,
      "hit": false,
      "t": 53256.25,
      "d": 137.5,
      "v": 120
    },
    {
      "midi": 57,
      "hit": false,
      "t": 53556.25,
      "d": 137.5,
      "v": 127
    },
    {
      "midi": 62,
      "hit": false,
      "t": 53706.25,
      "d": 293.75,
      "v": 127
    },
    {
      "midi": 66,
      "hit": false,
      "t": 53712.5,
      "d": 287.5,
      "v": 127
    },
    {
      "midi": 69,
      "hit": false,
      "t": 53712.5,
      "d": 287.5,
      "v": 127
    },
    {
      "midi": 57,
      "hit": false,
      "t": 54612.5,
      "d": 137.5,
      "v": 127
    },
    {
      "midi": 64,
      "hit": false,
      "t": 54762.5,
      "d": 131.25,
      "v": 127
    },
    {
      "midi": 61,
      "hit": false,
      "t": 54762.5,
      "d": 137.5,
      "v": 120
    },
    {
      "midi": 69,
      "hit": false,
      "t": 54762.5,
      "d": 137.5,
      "v": 127
    },
    {
      "midi": 57,
      "hit": false,
      "t": 55062.5,
      "d": 137.5,
      "v": 127
    },
    {
      "midi": 61,
      "hit": false,
      "t": 55212.5,
      "d": 137.5,
      "v": 127
    },
    {
      "midi": 64,
      "hit": false,
      "t": 55218.75,
      "d": 131.25,
      "v": 127
    },
    {
      "midi": 69,
      "hit": false,
      "t": 55218.75,
      "d": 131.25,
      "v": 124
    },
    {
      "midi": 57,
      "hit": false,
      "t": 55512.5,
      "d": 131.25,
      "v": 127
    },
    {
      "midi": 69,
      "hit": false,
      "t": 55662.5,
      "d": 131.25,
      "v": 127
    },
    {
      "midi": 61,
      "hit": false,
      "t": 55662.5,
      "d": 137.5,
      "v": 127
    },
    {
      "midi": 64,
      "hit": false,
      "t": 55662.5,
      "d": 137.5,
      "v": 127
    },
    {
      "midi": 57,
      "hit": false,
      "t": 55962.5,
      "d": 125,
      "v": 127
    },
    {
      "midi": 64,
      "hit": false,
      "t": 56112.5,
      "d": 281.25,
      "v": 127
    },
    {
      "midi": 61,
      "hit": false,
      "t": 56112.5,
      "d": 287.5,
      "v": 126
    },
    {
      "midi": 69,
      "hit": false,
      "t": 56118.75,
      "d": 275,
      "v": 120
    },
    {
      "midi": 57,
      "hit": false,
      "t": 57012.5,
      "d": 131.25,
      "v": 127
    },
    {
      "midi": 62,
      "hit": false,
      "t": 57156.25,
      "d": 131.25,
      "v": 127
    },
    {
      "midi": 66,
      "hit": false,
      "t": 57162.5,
      "d": 125,
      "v": 127
    },
    {
      "midi": 69,
      "hit": false,
      "t": 57162.5,
      "d": 125,
      "v": 127
    },
    {
      "midi": 57,
      "hit": false,
      "t": 57462.5,
      "d": 125,
      "v": 125
    },
    {
      "midi": 62,
      "hit": false,
      "t": 57612.5,
      "d": 125,
      "v": 122
    },
    {
      "midi": 66,
      "hit": false,
      "t": 57612.5,
      "d": 125,
      "v": 127
    },
    {
      "midi": 69,
      "hit": false,
      "t": 57612.5,
      "d": 125,
      "v": 127
    },
    {
      "midi": 57,
      "hit": false,
      "t": 57912.5,
      "d": 131.25,
      "v": 127
    },
    {
      "midi": 62,
      "hit": false,
      "t": 58056.25,
      "d": 137.5,
      "v": 127
    },
    {
      "midi": 66,
      "hit": false,
      "t": 58056.25,
      "d": 137.5,
      "v": 127
    },
    {
      "midi": 69,
      "hit": false,
      "t": 58062.5,
      "d": 131.25,
      "v": 127
    },
    {
      "midi": 57,
      "hit": false,
      "t": 58356.25,
      "d": 137.5,
      "v": 127
    },
    {
      "midi": 62,
      "hit": false,
      "t": 58512.5,
      "d": 275,
      "v": 127
    },
    {
      "midi": 66,
      "hit": false,
      "t": 58512.5,
      "d": 275,
      "v": 127
    },
    {
      "midi": 69,
      "hit": false,
      "t": 58512.5,
      "d": 275,
      "v": 127
    },
    {
      "midi": 57,
      "hit": false,
      "t": 59412.5,
      "d": 125,
      "v": 127
    },
    {
      "midi": 61,
      "hit": false,
      "t": 59556.25,
      "d": 137.5,
      "v": 127
    },
    {
      "midi": 64,
      "hit": false,
      "t": 59556.25,
      "d": 137.5,
      "v": 122
    },
    {
      "midi": 69,
      "hit": false,
      "t": 59556.25,
      "d": 137.5,
      "v": 127
    },
    {
      "midi": 57,
      "hit": false,
      "t": 59856.25,
      "d": 131.25,
      "v": 127
    },
    {
      "midi": 61,
      "hit": false,
      "t": 60012.5,
      "d": 125,
      "v": 127
    },
    {
      "midi": 64,
      "hit": false,
      "t": 60012.5,
      "d": 125,
      "v": 127
    },
    {
      "midi": 69,
      "hit": false,
      "t": 60012.5,
      "d": 125,
      "v": 121
    },
    {
      "midi": 57,
      "hit": false,
      "t": 60306.25,
      "d": 137.5,
      "v": 126
    },
    {
      "midi": 61,
      "hit": false,
      "t": 60456.25,
      "d": 581.25,
      "v": 125
    },
    {
      "midi": 64,
      "hit": false,
      "t": 60456.25,
      "d": 581.25,
      "v": 127
    },
    {
      "midi": 69,
      "hit": false,
      "t": 60456.25,
      "d": 581.25,
      "v": 127
    },
    {
      "midi": 59,
      "hit": false,
      "t": 61212.5,
      "d": 575,
      "v": 126
    },
    {
      "midi": 64,
      "hit": false,
      "t": 61212.5,
      "d": 575,
      "v": 127
    },
    {
      "midi": 68,
      "hit": false,
      "t": 61212.5,
      "d": 575,
      "v": 126
    },
    {
      "midi": 57,
      "hit": false,
      "t": 61812.5,
      "d": 125,
      "v": 125
    },
    {
      "midi": 61,
      "hit": false,
      "t": 61956.25,
      "d": 131.25,
      "v": 127
    },
    {
      "midi": 66,
      "hit": false,
      "t": 61956.25,
      "d": 131.25,
      "v": 127
    },
    {
      "midi": 69,
      "hit": false,
      "t": 61956.25,
      "d": 131.25,
      "v": 125
    },
    {
      "midi": 57,
      "hit": false,
      "t": 62256.25,
      "d": 131.25,
      "v": 121
    },
    {
      "midi": 61,
      "hit": false,
      "t": 62412.5,
      "d": 125,
      "v": 127
    },
    {
      "midi": 66,
      "hit": false,
      "t": 62412.5,
      "d": 125,
      "v": 127
    },
    {
      "midi": 69,
      "hit": false,
      "t": 62412.5,
      "d": 125,
      "v": 127
    },
    {
      "midi": 61,
      "hit": false,
      "t": 62706.25,
      "d": 737.5,
      "v": 124
    },
    {
      "midi": 64,
      "hit": false,
      "t": 62712.5,
      "d": 725,
      "v": 127
    },
    {
      "midi": 69,
      "hit": false,
      "t": 62712.5,
      "d": 725,
      "v": 127
    },
    {
      "midi": 61,
      "hit": false,
      "t": 63612.5,
      "d": 431.25,
      "v": 127
    },
    {
      "midi": 64,
      "hit": false,
      "t": 63612.5,
      "d": 431.25,
      "v": 121
    },
    {
      "midi": 69,
      "hit": false,
      "t": 63612.5,
      "d": 431.25,
      "v": 127
    },
    {
      "midi": 59,
      "hit": false,
      "t": 64206.25,
      "d": 437.5,
      "v": 125
    },
    {
      "midi": 64,
      "hit": false,
      "t": 64212.5,
      "d": 431.25,
      "v": 122
    },
    {
      "midi": 68,
      "hit": false,
      "t": 64212.5,
      "d": 431.25,
      "v": 127
    },
    {
      "midi": 59,
      "hit": false,
      "t": 64656.25,
      "d": 131.25,
      "v": 127
    },
    {
      "midi": 64,
      "hit": false,
      "t": 64656.25,
      "d": 131.25,
      "v": 127
    },
    {
      "midi": 68,
      "hit": false,
      "t": 64656.25,
      "d": 137.5,
      "v": 121
    },
    {
      "midi": 59,
      "hit": false,
      "t": 64812.5,
      "d": 125,
      "v": 127
    },
    {
      "midi": 64,
      "hit": false,
      "t": 64812.5,
      "d": 125,
      "v": 127
    },
    {
      "midi": 68,
      "hit": false,
      "t": 64812.5,
      "d": 125,
      "v": 127
    },
    {
      "midi": 59,
      "hit": false,
      "t": 65106.25,
      "d": 418.75,
      "v": 126
    },
    {
      "midi": 64,
      "hit": false,
      "t": 65112.5,
      "d": 412.5,
      "v": 121
    },
    {
      "midi": 68,
      "hit": false,
      "t": 65112.5,
      "d": 412.5,
      "v": 127
    },
    {
      "midi": 59,
      "hit": false,
      "t": 65556.25,
      "d": 131.25,
      "v": 125
    },
    {
      "midi": 64,
      "hit": false,
      "t": 65556.25,
      "d": 131.25,
      "v": 127
    },
    {
      "midi": 68,
      "hit": false,
      "t": 65556.25,
      "d": 131.25,
      "v": 127
    },
    {
      "midi": 59,
      "hit": false,
      "t": 65706.25,
      "d": 287.5,
      "v": 127
    },
    {
      "midi": 64,
      "hit": false,
      "t": 65712.5,
      "d": 281.25,
      "v": 125
    },
    {
      "midi": 68,
      "hit": false,
      "t": 65712.5,
      "d": 281.25,
      "v": 127
    },
    {
      "midi": 59,
      "hit": false,
      "t": 66012.5,
      "d": 125,
      "v": 125
    },
    {
      "midi": 64,
      "hit": false,
      "t": 66012.5,
      "d": 281.25,
      "v": 127
    },
    {
      "midi": 68,
      "hit": false,
      "t": 66012.5,
      "d": 281.25,
      "v": 125
    },
    {
      "midi": 59,
      "hit": false,
      "t": 66606.25,
      "d": 437.5,
      "v": 127
    },
    {
      "midi": 61,
      "hit": false,
      "t": 66612.5,
      "d": 431.25,
      "v": 127
    },
    {
      "midi": 65,
      "hit": false,
      "t": 66612.5,
      "d": 431.25,
      "v": 126
    },
    {
      "midi": 59,
      "hit": false,
      "t": 67056.25,
      "d": 131.25,
      "v": 127
    },
    {
      "midi": 61,
      "hit": false,
      "t": 67056.25,
      "d": 131.25,
      "v": 123
    },
    {
      "midi": 65,
      "hit": false,
      "t": 67056.25,
      "d": 131.25,
      "v": 127
    },
    {
      "midi": 59,
      "hit": false,
      "t": 67212.5,
      "d": 125,
      "v": 120
    },
    {
      "midi": 61,
      "hit": false,
      "t": 67212.5,
      "d": 125,
      "v": 121
    },
    {
      "midi": 65,
      "hit": false,
      "t": 67212.5,
      "d": 125,
      "v": 124
    },
    {
      "midi": 59,
      "hit": false,
      "t": 67506.25,
      "d": 431.25,
      "v": 127
    },
    {
      "midi": 61,
      "hit": false,
      "t": 67512.5,
      "d": 425,
      "v": 127
    },
    {
      "midi": 65,
      "hit": false,
      "t": 67512.5,
      "d": 425,
      "v": 127
    },
    {
      "midi": 59,
      "hit": false,
      "t": 67956.25,
      "d": 131.25,
      "v": 127
    },
    {
      "midi": 61,
      "hit": false,
      "t": 67956.25,
      "d": 131.25,
      "v": 127
    },
    {
      "midi": 65,
      "hit": false,
      "t": 67956.25,
      "d": 131.25,
      "v": 127
    },
    {
      "midi": 59,
      "hit": false,
      "t": 68106.25,
      "d": 281.25,
      "v": 127
    },
    {
      "midi": 61,
      "hit": false,
      "t": 68112.5,
      "d": 275,
      "v": 122
    },
    {
      "midi": 65,
      "hit": false,
      "t": 68112.5,
      "d": 275,
      "v": 120
    },
    {
      "midi": 59,
      "hit": false,
      "t": 68412.5,
      "d": 275,
      "v": 127
    },
    {
      "midi": 61,
      "hit": false,
      "t": 68412.5,
      "d": 275,
      "v": 124
    },
    {
      "midi": 65,
      "hit": false,
      "t": 68412.5,
      "d": 275,
      "v": 127
    },
    {
      "midi": 57,
      "hit": false,
      "t": 69012.5,
      "d": 431.25,
      "v": 127
    },
    {
      "midi": 61,
      "hit": false,
      "t": 69012.5,
      "d": 431.25,
      "v": 127
    },
    {
      "midi": 66,
      "hit": false,
      "t": 69012.5,
      "d": 431.25,
      "v": 127
    },
    {
      "midi": 57,
      "hit": false,
      "t": 69456.25,
      "d": 131.25,
      "v": 127
    },
    {
      "midi": 61,
      "hit": false,
      "t": 69456.25,
      "d": 131.25,
      "v": 127
    },
    {
      "midi": 66,
      "hit": false,
      "t": 69462.5,
      "d": 125,
      "v": 127
    },
    {
      "midi": 57,
      "hit": false,
      "t": 69612.5,
      "d": 125,
      "v": 124
    },
    {
      "midi": 61,
      "hit": false,
      "t": 69612.5,
      "d": 125,
      "v": 121
    },
    {
      "midi": 66,
      "hit": false,
      "t": 69612.5,
      "d": 125,
      "v": 126
    },
    {
      "midi": 57,
      "hit": false,
      "t": 69906.25,
      "d": 443.75,
      "v": 123
    },
    {
      "midi": 61,
      "hit": false,
      "t": 69912.5,
      "d": 437.5,
      "v": 127
    },
    {
      "midi": 66,
      "hit": false,
      "t": 69912.5,
      "d": 437.5,
      "v": 127
    },
    {
      "midi": 57,
      "hit": false,
      "t": 70362.5,
      "d": 137.5,
      "v": 127
    },
    {
      "midi": 61,
      "hit": false,
      "t": 70362.5,
      "d": 137.5,
      "v": 127
    },
    {
      "midi": 64,
      "hit": false,
      "t": 70362.5,
      "d": 137.5,
      "v": 123
    },
    {
      "midi": 57,
      "hit": false,
      "t": 70512.5,
      "d": 287.5,
      "v": 127
    },
    {
      "midi": 61,
      "hit": false,
      "t": 70518.75,
      "d": 281.25,
      "v": 127
    },
    {
      "midi": 64,
      "hit": false,
      "t": 70518.75,
      "d": 281.25,
      "v": 120
    },
    {
      "midi": 57,
      "hit": false,
      "t": 70812.5,
      "d": 287.5,
      "v": 127
    },
    {
      "midi": 61,
      "hit": false,
      "t": 70818.75,
      "d": 281.25,
      "v": 120
    },
    {
      "midi": 64,
      "hit": false,
      "t": 70818.75,
      "d": 281.25,
      "v": 126
    },
    {
      "midi": 66,
      "hit": false,
      "t": 71412.5,
      "d": 431.25,
      "v": 127
    },
    {
      "midi": 59,
      "hit": false,
      "t": 71412.5,
      "d": 437.5,
      "v": 127
    },
    {
      "midi": 63,
      "hit": false,
      "t": 71412.5,
      "d": 437.5,
      "v": 127
    },
    {
      "midi": 59,
      "hit": false,
      "t": 71862.5,
      "d": 131.25,
      "v": 127
    },
    {
      "midi": 63,
      "hit": false,
      "t": 71862.5,
      "d": 131.25,
      "v": 127
    },
    {
      "midi": 66,
      "hit": false,
      "t": 71868.75,
      "d": 118.75,
      "v": 127
    },
    {
      "midi": 59,
      "hit": false,
      "t": 72012.5,
      "d": 131.25,
      "v": 127
    },
    {
      "midi": 63,
      "hit": false,
      "t": 72018.75,
      "d": 118.75,
      "v": 127
    },
    {
      "midi": 66,
      "hit": false,
      "t": 72018.75,
      "d": 118.75,
      "v": 123
    },
    {
      "midi": 63,
      "hit": false,
      "t": 72312.5,
      "d": 431.25,
      "v": 124
    },
    {
      "midi": 66,
      "hit": false,
      "t": 72312.5,
      "d": 431.25,
      "v": 127
    },
    {
      "midi": 59,
      "hit": false,
      "t": 72312.5,
      "d": 437.5,
      "v": 123
    },
    {
      "midi": 59,
      "hit": false,
      "t": 72762.5,
      "d": 131.25,
      "v": 125
    },
    {
      "midi": 63,
      "hit": false,
      "t": 72762.5,
      "d": 131.25,
      "v": 127
    },
    {
      "midi": 66,
      "hit": false,
      "t": 72762.5,
      "d": 131.25,
      "v": 127
    },
    {
      "midi": 59,
      "hit": false,
      "t": 72912.5,
      "d": 275,
      "v": 127
    },
    {
      "midi": 63,
      "hit": false,
      "t": 72912.5,
      "d": 275,
      "v": 121
    },
    {
      "midi": 66,
      "hit": false,
      "t": 72912.5,
      "d": 275,
      "v": 120
    },
    {
      "midi": 59,
      "hit": false,
      "t": 73212.5,
      "d": 431.25,
      "v": 127
    },
    {
      "midi": 63,
      "hit": false,
      "t": 73212.5,
      "d": 431.25,
      "v": 127
    },
    {
      "midi": 66,
      "hit": false,
      "t": 73218.75,
      "d": 425,
      "v": 127
    },
    {
      "midi": 64,
      "hit": false,
      "t": 73812.5,
      "d": 425,
      "v": 122
    },
    {
      "midi": 68,
      "hit": false,
      "t": 73812.5,
      "d": 425,
      "v": 125
    },
    {
      "midi": 59,
      "hit": false,
      "t": 73812.5,
      "d": 431.25,
      "v": 127
    },
    {
      "midi": 59,
      "hit": false,
      "t": 74262.5,
      "d": 125,
      "v": 127
    },
    {
      "midi": 64,
      "hit": false,
      "t": 74262.5,
      "d": 125,
      "v": 126
    },
    {
      "midi": 68,
      "hit": false,
      "t": 74262.5,
      "d": 125,
      "v": 127
    },
    {
      "midi": 59,
      "hit": false,
      "t": 74412.5,
      "d": 431.25,
      "v": 123
    },
    {
      "midi": 64,
      "hit": false,
      "t": 74412.5,
      "d": 431.25,
      "v": 127
    },
    {
      "midi": 68,
      "hit": false,
      "t": 74412.5,
      "d": 431.25,
      "v": 123
    },
    {
      "midi": 59,
      "hit": false,
      "t": 74856.25,
      "d": 137.5,
      "v": 124
    },
    {
      "midi": 64,
      "hit": false,
      "t": 74856.25,
      "d": 137.5,
      "v": 122
    },
    {
      "midi": 68,
      "hit": false,
      "t": 74856.25,
      "d": 137.5,
      "v": 127
    },
    {
      "midi": 59,
      "hit": false,
      "t": 75006.25,
      "d": 137.5,
      "v": 127
    },
    {
      "midi": 68,
      "hit": false,
      "t": 75012.5,
      "d": 125,
      "v": 127
    },
    {
      "midi": 64,
      "hit": false,
      "t": 75012.5,
      "d": 131.25,
      "v": 127
    },
    {
      "midi": 59,
      "hit": false,
      "t": 75156.25,
      "d": 131.25,
      "v": 127
    },
    {
      "midi": 64,
      "hit": false,
      "t": 75156.25,
      "d": 131.25,
      "v": 127
    },
    {
      "midi": 68,
      "hit": false,
      "t": 75156.25,
      "d": 131.25,
      "v": 121
    },
    {
      "midi": 59,
      "hit": false,
      "t": 75306.25,
      "d": 281.25,
      "v": 122
    },
    {
      "midi": 64,
      "hit": false,
      "t": 75312.5,
      "d": 275,
      "v": 123
    },
    {
      "midi": 68,
      "hit": false,
      "t": 75312.5,
      "d": 275,
      "v": 125
    },
    {
      "midi": 64,
      "hit": false,
      "t": 75612.5,
      "d": 275,
      "v": 127
    },
    {
      "midi": 59,
      "hit": false,
      "t": 75612.5,
      "d": 281.25,
      "v": 126
    },
    {
      "midi": 68,
      "hit": false,
      "t": 75612.5,
      "d": 281.25,
      "v": 127
    },
    {
      "midi": 59,
      "hit": false,
      "t": 76206.25,
      "d": 431.25,
      "v": 123
    },
    {
      "midi": 62,
      "hit": false,
      "t": 76212.5,
      "d": 425,
      "v": 123
    },
    {
      "midi": 66,
      "hit": false,
      "t": 76212.5,
      "d": 425,
      "v": 127
    },
    {
      "midi": 59,
      "hit": false,
      "t": 76656.25,
      "d": 131.25,
      "v": 127
    },
    {
      "midi": 62,
      "hit": false,
      "t": 76656.25,
      "d": 131.25,
      "v": 125
    },
    {
      "midi": 66,
      "hit": false,
      "t": 76662.5,
      "d": 131.25,
      "v": 127
    },
    {
      "midi": 59,
      "hit": false,
      "t": 76812.5,
      "d": 431.25,
      "v": 127
    },
    {
      "midi": 62,
      "hit": false,
      "t": 76812.5,
      "d": 431.25,
      "v": 127
    },
    {
      "midi": 66,
      "hit": false,
      "t": 76812.5,
      "d": 431.25,
      "v": 127
    },
    {
      "midi": 59,
      "hit": false,
      "t": 77256.25,
      "d": 137.5,
      "v": 127
    },
    {
      "midi": 62,
      "hit": false,
      "t": 77256.25,
      "d": 137.5,
      "v": 127
    },
    {
      "midi": 66,
      "hit": false,
      "t": 77256.25,
      "d": 137.5,
      "v": 127
    },
    {
      "midi": 59,
      "hit": false,
      "t": 77406.25,
      "d": 131.25,
      "v": 127
    },
    {
      "midi": 62,
      "hit": false,
      "t": 77412.5,
      "d": 125,
      "v": 123
    },
    {
      "midi": 66,
      "hit": false,
      "t": 77412.5,
      "d": 125,
      "v": 126
    },
    {
      "midi": 59,
      "hit": false,
      "t": 77556.25,
      "d": 131.25,
      "v": 127
    },
    {
      "midi": 62,
      "hit": false,
      "t": 77556.25,
      "d": 131.25,
      "v": 127
    },
    {
      "midi": 66,
      "hit": false,
      "t": 77562.5,
      "d": 125,
      "v": 124
    },
    {
      "midi": 59,
      "hit": false,
      "t": 77706.25,
      "d": 281.25,
      "v": 127
    },
    {
      "midi": 62,
      "hit": false,
      "t": 77712.5,
      "d": 275,
      "v": 127
    },
    {
      "midi": 66,
      "hit": false,
      "t": 77712.5,
      "d": 281.25,
      "v": 123
    },
    {
      "midi": 59,
      "hit": false,
      "t": 78012.5,
      "d": 275,
      "v": 127
    },
    {
      "midi": 62,
      "hit": false,
      "t": 78012.5,
      "d": 275,
      "v": 127
    },
    {
      "midi": 68,
      "hit": false,
      "t": 78012.5,
      "d": 275,
      "v": 127
    },
    {
      "midi": 61,
      "hit": false,
      "t": 78612.5,
      "d": 431.25,
      "v": 124
    },
    {
      "midi": 64,
      "hit": false,
      "t": 78612.5,
      "d": 431.25,
      "v": 125
    },
    {
      "midi": 69,
      "hit": false,
      "t": 78612.5,
      "d": 431.25,
      "v": 126
    },
    {
      "midi": 61,
      "hit": false,
      "t": 79056.25,
      "d": 131.25,
      "v": 122
    },
    {
      "midi": 64,
      "hit": false,
      "t": 79056.25,
      "d": 131.25,
      "v": 127
    },
    {
      "midi": 69,
      "hit": false,
      "t": 79062.5,
      "d": 131.25,
      "v": 127
    },
    {
      "midi": 61,
      "hit": false,
      "t": 79212.5,
      "d": 125,
      "v": 127
    },
    {
      "midi": 64,
      "hit": false,
      "t": 79212.5,
      "d": 125,
      "v": 127
    },
    {
      "midi": 69,
      "hit": false,
      "t": 79212.5,
      "d": 125,
      "v": 125
    },
    {
      "midi": 61,
      "hit": false,
      "t": 79506.25,
      "d": 437.5,
      "v": 127
    },
    {
      "midi": 64,
      "hit": false,
      "t": 79512.5,
      "d": 431.25,
      "v": 126
    },
    {
      "midi": 69,
      "hit": false,
      "t": 79512.5,
      "d": 431.25,
      "v": 127
    },
    {
      "midi": 61,
      "hit": false,
      "t": 79956.25,
      "d": 131.25,
      "v": 122
    },
    {
      "midi": 64,
      "hit": false,
      "t": 79956.25,
      "d": 131.25,
      "v": 127
    },
    {
      "midi": 69,
      "hit": false,
      "t": 79956.25,
      "d": 131.25,
      "v": 127
    },
    {
      "midi": 61,
      "hit": false,
      "t": 80106.25,
      "d": 281.25,
      "v": 120
    },
    {
      "midi": 64,
      "hit": false,
      "t": 80112.5,
      "d": 275,
      "v": 127
    },
    {
      "midi": 69,
      "hit": false,
      "t": 80112.5,
      "d": 275,
      "v": 122
    },
    {
      "midi": 61,
      "hit": false,
      "t": 80412.5,
      "d": 587.5,
      "v": 127
    },
    {
      "midi": 64,
      "hit": false,
      "t": 80412.5,
      "d": 587.5,
      "v": 127
    },
    {
      "midi": 69,
      "hit": false,
      "t": 80412.5,
      "d": 587.5,
      "v": 122
    },
    {
      "midi": 57,
      "hit": false,
      "t": 81018.75,
      "d": 431.25,
      "v": 122
    },
    {
      "midi": 62,
      "hit": false,
      "t": 81018.75,
      "d": 431.25,
      "v": 127
    },
    {
      "midi": 66,
      "hit": false,
      "t": 81018.75,
      "d": 431.25,
      "v": 122
    },
    {
      "midi": 57,
      "hit": false,
      "t": 81462.5,
      "d": 137.5,
      "v": 127
    },
    {
      "midi": 62,
      "hit": false,
      "t": 81462.5,
      "d": 137.5,
      "v": 127
    },
    {
      "midi": 66,
      "hit": false,
      "t": 81462.5,
      "d": 137.5,
      "v": 127
    },
    {
      "midi": 57,
      "hit": false,
      "t": 81618.75,
      "d": 131.25,
      "v": 127
    },
    {
      "midi": 66,
      "hit": false,
      "t": 81625,
      "d": 112.5,
      "v": 127
    },
    {
      "midi": 62,
      "hit": false,
      "t": 81625,
      "d": 125,
      "v": 126
    },
    {
      "midi": 57,
      "hit": false,
      "t": 81912.5,
      "d": 437.5,
      "v": 127
    },
    {
      "midi": 66,
      "hit": false,
      "t": 81918.75,
      "d": 425,
      "v": 127
    },
    {
      "midi": 62,
      "hit": false,
      "t": 81918.75,
      "d": 431.25,
      "v": 120
    },
    {
      "midi": 62,
      "hit": false,
      "t": 82362.5,
      "d": 125,
      "v": 126
    },
    {
      "midi": 66,
      "hit": false,
      "t": 82362.5,
      "d": 125,
      "v": 122
    },
    {
      "midi": 57,
      "hit": false,
      "t": 82362.5,
      "d": 131.25,
      "v": 127
    },
    {
      "midi": 62,
      "hit": false,
      "t": 82512.5,
      "d": 275,
      "v": 124
    },
    {
      "midi": 57,
      "hit": false,
      "t": 82512.5,
      "d": 281.25,
      "v": 127
    },
    {
      "midi": 66,
      "hit": false,
      "t": 82518.75,
      "d": 268.75,
      "v": 127
    },
    {
      "midi": 57,
      "hit": false,
      "t": 82812.5,
      "d": 581.25,
      "v": 127
    },
    {
      "midi": 62,
      "hit": false,
      "t": 82818.75,
      "d": 575,
      "v": 127
    },
    {
      "midi": 66,
      "hit": false,
      "t": 82818.75,
      "d": 581.25,
      "v": 127
    },
    {
      "midi": 66,
      "hit": false,
      "t": 84762.5,
      "d": 131.25,
      "v": 127
    },
    {
      "midi": 69,
      "hit": false,
      "t": 84762.5,
      "d": 131.25,
      "v": 127
    },
    {
      "midi": 62,
      "hit": false,
      "t": 84762.5,
      "d": 137.5,
      "v": 127
    },
    {
      "midi": 62,
      "hit": false,
      "t": 84912.5,
      "d": 275,
      "v": 122
    },
    {
      "midi": 66,
      "hit": false,
      "t": 84918.75,
      "d": 268.75,
      "v": 122
    },
    {
      "midi": 69,
      "hit": false,
      "t": 84918.75,
      "d": 275,
      "v": 125
    },
    {
      "midi": 62,
      "hit": false,
      "t": 85212.5,
      "d": 275,
      "v": 127
    },
    {
      "midi": 66,
      "hit": false,
      "t": 85218.75,
      "d": 268.75,
      "v": 127
    },
    {
      "midi": 69,
      "hit": false,
      "t": 85218.75,
      "d": 275,
      "v": 127
    },
    {
      "midi": 62,
      "hit": false,
      "t": 87156.25,
      "d": 137.5,
      "v": 123
    },
    {
      "midi": 66,
      "hit": false,
      "t": 87156.25,
      "d": 137.5,
      "v": 127
    },
    {
      "midi": 69,
      "hit": false,
      "t": 87162.5,
      "d": 131.25,
      "v": 127
    },
    {
      "midi": 62,
      "hit": false,
      "t": 87312.5,
      "d": 275,
      "v": 127
    },
    {
      "midi": 66,
      "hit": false,
      "t": 87312.5,
      "d": 275,
      "v": 121
    },
    {
      "midi": 69,
      "hit": false,
      "t": 87318.75,
      "d": 275,
      "v": 122
    },
    {
      "midi": 62,
      "hit": false,
      "t": 87612.5,
      "d": 275,
      "v": 121
    },
    {
      "midi": 66,
      "hit": false,
      "t": 87618.75,
      "d": 268.75,
      "v": 127
    },
    {
      "midi": 69,
      "hit": false,
      "t": 87618.75,
      "d": 275,
      "v": 120
    },
    {
      "midi": 57,
      "hit": false,
      "t": 88206.25,
      "d": 806.25,
      "v": 124
    },
    {
      "midi": 64,
      "hit": false,
      "t": 88212.5,
      "d": 781.25,
      "v": 123
    },
    {
      "midi": 61,
      "hit": false,
      "t": 88218.75,
      "d": 775,
      "v": 123
    },
    {
      "midi": 61,
      "hit": false,
      "t": 89112.5,
      "d": 468.75,
      "v": 127
    },
    {
      "midi": 64,
      "hit": false,
      "t": 89112.5,
      "d": 475,
      "v": 127
    },
    {
      "midi": 57,
      "hit": false,
      "t": 89112.5,
      "d": 481.25,
      "v": 127
    },
    {
      "midi": 57,
      "hit": false,
      "t": 89706.25,
      "d": 768.75,
      "v": 121
    },
    {
      "midi": 64,
      "hit": false,
      "t": 89712.5,
      "d": 750,
      "v": 127
    },
    {
      "midi": 61,
      "hit": false,
      "t": 89718.75,
      "d": 756.25,
      "v": 127
    },
    {
      "midi": 66,
      "hit": false,
      "t": 90612.5,
      "d": 787.5,
      "v": 121
    },
    {
      "midi": 62,
      "hit": false,
      "t": 90618.75,
      "d": 762.5,
      "v": 127
    },
    {
      "midi": 57,
      "hit": false,
      "t": 90618.75,
      "d": 787.5,
      "v": 127
    },
    {
      "midi": 66,
      "hit": false,
      "t": 91518.75,
      "d": 475,
      "v": 127
    },
    {
      "midi": 57,
      "hit": false,
      "t": 91518.75,
      "d": 481.25,
      "v": 120
    },
    {
      "midi": 62,
      "hit": false,
      "t": 91518.75,
      "d": 481.25,
      "v": 124
    },
    {
      "midi": 57,
      "hit": false,
      "t": 92118.75,
      "d": 806.25,
      "v": 127
    },
    {
      "midi": 62,
      "hit": false,
      "t": 92118.75,
      "d": 806.25,
      "v": 120
    },
    {
      "midi": 66,
      "hit": false,
      "t": 92118.75,
      "d": 806.25,
      "v": 126
    },
    {
      "midi": 64,
      "hit": false,
      "t": 93018.75,
      "d": 768.75,
      "v": 120
    },
    {
      "midi": 61,
      "hit": false,
      "t": 93031.25,
      "d": 756.25,
      "v": 127
    },
    {
      "midi": 57,
      "hit": false,
      "t": 93031.25,
      "d": 762.5,
      "v": 126
    },
    {
      "midi": 64,
      "hit": false,
      "t": 93912.5,
      "d": 475,
      "v": 123
    },
    {
      "midi": 61,
      "hit": false,
      "t": 93912.5,
      "d": 487.5,
      "v": 127
    },
    {
      "midi": 57,
      "hit": false,
      "t": 93912.5,
      "d": 493.75,
      "v": 127
    },
    {
      "midi": 61,
      "hit": false,
      "t": 94512.5,
      "d": 806.25,
      "v": 127
    },
    {
      "midi": 57,
      "hit": false,
      "t": 94512.5,
      "d": 812.5,
      "v": 127
    },
    {
      "midi": 64,
      "hit": false,
      "t": 94518.75,
      "d": 806.25,
      "v": 126
    },
    {
      "midi": 57,
      "hit": false,
      "t": 95431.25,
      "d": 793.75,
      "v": 127
    },
    {
      "midi": 66,
      "hit": false,
      "t": 95431.25,
      "d": 793.75,
      "v": 127
    },
    {
      "midi": 61,
      "hit": false,
      "t": 95437.5,
      "d": 775,
      "v": 127
    },
    {
      "midi": 66,
      "hit": false,
      "t": 96318.75,
      "d": 506.25,
      "v": 127
    },
    {
      "midi": 61,
      "hit": false,
      "t": 96325,
      "d": 487.5,
      "v": 124
    },
    {
      "midi": 57,
      "hit": false,
      "t": 96325,
      "d": 500,
      "v": 127
    },
    {
      "midi": 66,
      "hit": false,
      "t": 96912.5,
      "d": 881.25,
      "v": 127
    },
    {
      "midi": 57,
      "hit": false,
      "t": 96925,
      "d": 868.75,
      "v": 122
    },
    {
      "midi": 61,
      "hit": false,
      "t": 96931.25,
      "d": 862.5,
      "v": 122
    },
    {
      "midi": 64,
      "hit": false,
      "t": 97812.5,
      "d": 275,
      "v": 127
    },
    {
      "midi": 56,
      "hit": false,
      "t": 97812.5,
      "d": 281.25,
      "v": 127
    },
    {
      "midi": 59,
      "hit": false,
      "t": 97812.5,
      "d": 281.25,
      "v": 127
    },
    {
      "midi": 56,
      "hit": false,
      "t": 98262.5,
      "d": 275,
      "v": 127
    },
    {
      "midi": 59,
      "hit": false,
      "t": 98262.5,
      "d": 275,
      "v": 127
    },
    {
      "midi": 64,
      "hit": false,
      "t": 98262.5,
      "d": 281.25,
      "v": 127
    },
    {
      "midi": 56,
      "hit": false,
      "t": 98712.5,
      "d": 281.25,
      "v": 127
    },
    {
      "midi": 59,
      "hit": false,
      "t": 98712.5,
      "d": 281.25,
      "v": 124
    },
    {
      "midi": 64,
      "hit": false,
      "t": 98712.5,
      "d": 281.25,
      "v": 127
    },
    {
      "midi": 64,
      "hit": false,
      "t": 99156.25,
      "d": 281.25,
      "v": 127
    },
    {
      "midi": 56,
      "hit": false,
      "t": 99156.25,
      "d": 287.5,
      "v": 123
    },
    {
      "midi": 59,
      "hit": false,
      "t": 99156.25,
      "d": 287.5,
      "v": 127
    },
    {
      "midi": 56,
      "hit": false,
      "t": 99612.5,
      "d": 131.25,
      "v": 127
    },
    {
      "midi": 59,
      "hit": false,
      "t": 99612.5,
      "d": 131.25,
      "v": 127
    },
    {
      "midi": 64,
      "hit": false,
      "t": 99612.5,
      "d": 131.25,
      "v": 127
    },
    {
      "midi": 56,
      "hit": false,
      "t": 99906.25,
      "d": 131.25,
      "v": 127
    },
    {
      "midi": 59,
      "hit": false,
      "t": 99906.25,
      "d": 131.25,
      "v": 122
    },
    {
      "midi": 64,
      "hit": false,
      "t": 99912.5,
      "d": 131.25,
      "v": 125
    },
    {
      "midi": 56,
      "hit": false,
      "t": 100212.5,
      "d": 281.25,
      "v": 125
    },
    {
      "midi": 59,
      "hit": false,
      "t": 100212.5,
      "d": 281.25,
      "v": 127
    },
    {
      "midi": 64,
      "hit": false,
      "t": 100212.5,
      "d": 281.25,
      "v": 127
    },
    {
      "midi": 56,
      "hit": false,
      "t": 100662.5,
      "d": 275,
      "v": 127
    },
    {
      "midi": 59,
      "hit": false,
      "t": 100662.5,
      "d": 275,
      "v": 127
    },
    {
      "midi": 64,
      "hit": false,
      "t": 100662.5,
      "d": 281.25,
      "v": 127
    },
    {
      "midi": 56,
      "hit": false,
      "t": 101112.5,
      "d": 281.25,
      "v": 127
    },
    {
      "midi": 59,
      "hit": false,
      "t": 101112.5,
      "d": 281.25,
      "v": 127
    },
    {
      "midi": 64,
      "hit": false,
      "t": 101112.5,
      "d": 281.25,
      "v": 127
    },
    {
      "midi": 64,
      "hit": false,
      "t": 101556.25,
      "d": 281.25,
      "v": 120
    },
    {
      "midi": 56,
      "hit": false,
      "t": 101556.25,
      "d": 287.5,
      "v": 127
    },
    {
      "midi": 59,
      "hit": false,
      "t": 101556.25,
      "d": 287.5,
      "v": 127
    },
    {
      "midi": 56,
      "hit": false,
      "t": 102012.5,
      "d": 112.5,
      "v": 124
    },
    {
      "midi": 59,
      "hit": false,
      "t": 102012.5,
      "d": 112.5,
      "v": 127
    },
    {
      "midi": 64,
      "hit": false,
      "t": 102012.5,
      "d": 112.5,
      "v": 127
    },
    {
      "midi": 59,
      "hit": false,
      "t": 102306.25,
      "d": 131.25,
      "v": 122
    },
    {
      "midi": 56,
      "hit": false,
      "t": 102306.25,
      "d": 137.5,
      "v": 126
    },
    {
      "midi": 64,
      "hit": false,
      "t": 102312.5,
      "d": 125,
      "v": 127
    },
    {
      "midi": 56,
      "hit": false,
      "t": 102612.5,
      "d": 281.25,
      "v": 127
    },
    {
      "midi": 59,
      "hit": false,
      "t": 102612.5,
      "d": 281.25,
      "v": 127
    },
    {
      "midi": 64,
      "hit": false,
      "t": 102612.5,
      "d": 281.25,
      "v": 125
    },
    {
      "midi": 57,
      "hit": false,
      "t": 103062.5,
      "d": 281.25,
      "v": 127
    },
    {
      "midi": 61,
      "hit": false,
      "t": 103062.5,
      "d": 281.25,
      "v": 127
    },
    {
      "midi": 66,
      "hit": false,
      "t": 103062.5,
      "d": 281.25,
      "v": 127
    },
    {
      "midi": 61,
      "hit": false,
      "t": 103512.5,
      "d": 1481.25,
      "v": 127
    },
    {
      "midi": 57,
      "hit": false,
      "t": 103512.5,
      "d": 1487.5,
      "v": 127
    },
    {
      "midi": 66,
      "hit": false,
      "t": 103512.5,
      "d": 1487.5,
      "v": 127
    },
    {
      "midi": 56,
      "hit": false,
      "t": 105012.5,
      "d": 287.5,
      "v": 127
    },
    {
      "midi": 59,
      "hit": false,
      "t": 105018.75,
      "d": 281.25,
      "v": 127
    },
    {
      "midi": 64,
      "hit": false,
      "t": 105018.75,
      "d": 281.25,
      "v": 121
    },
    {
      "midi": 57,
      "hit": false,
      "t": 105462.5,
      "d": 287.5,
      "v": 127
    },
    {
      "midi": 61,
      "hit": false,
      "t": 105468.75,
      "d": 281.25,
      "v": 127
    },
    {
      "midi": 66,
      "hit": false,
      "t": 105468.75,
      "d": 281.25,
      "v": 127
    },
    {
      "midi": 57,
      "hit": false,
      "t": 105918.75,
      "d": 1468.75,
      "v": 127
    },
    {
      "midi": 61,
      "hit": false,
      "t": 105918.75,
      "d": 1468.75,
      "v": 127
    },
    {
      "midi": 66,
      "hit": false,
      "t": 105918.75,
      "d": 1468.75,
      "v": 127
    },
    {
      "midi": 57,
      "hit": false,
      "t": 107412.5,
      "d": 800,
      "v": 127
    },
    {
      "midi": 64,
      "hit": false,
      "t": 107418.75,
      "d": 775,
      "v": 127
    },
    {
      "midi": 61,
      "hit": false,
      "t": 107425,
      "d": 768.75,
      "v": 121
    },
    {
      "midi": 61,
      "hit": false,
      "t": 108312.5,
      "d": 468.75,
      "v": 127
    },
    {
      "midi": 64,
      "hit": false,
      "t": 108312.5,
      "d": 475,
      "v": 122
    },
    {
      "midi": 57,
      "hit": false,
      "t": 108312.5,
      "d": 481.25,
      "v": 121
    },
    {
      "midi": 57,
      "hit": false,
      "t": 108906.25,
      "d": 768.75,
      "v": 127
    },
    {
      "midi": 64,
      "hit": false,
      "t": 108912.5,
      "d": 750,
      "v": 127
    },
    {
      "midi": 61,
      "hit": false,
      "t": 108918.75,
      "d": 756.25,
      "v": 127
    },
    {
      "midi": 66,
      "hit": false,
      "t": 109818.75,
      "d": 781.25,
      "v": 127
    },
    {
      "midi": 57,
      "hit": false,
      "t": 109818.75,
      "d": 787.5,
      "v": 127
    },
    {
      "midi": 62,
      "hit": false,
      "t": 109825,
      "d": 768.75,
      "v": 127
    },
    {
      "midi": 66,
      "hit": false,
      "t": 110718.75,
      "d": 475,
      "v": 127
    },
    {
      "midi": 57,
      "hit": false,
      "t": 110718.75,
      "d": 481.25,
      "v": 124
    },
    {
      "midi": 62,
      "hit": false,
      "t": 110718.75,
      "d": 481.25,
      "v": 124
    },
    {
      "midi": 57,
      "hit": false,
      "t": 111318.75,
      "d": 806.25,
      "v": 127
    },
    {
      "midi": 62,
      "hit": false,
      "t": 111318.75,
      "d": 806.25,
      "v": 127
    },
    {
      "midi": 66,
      "hit": false,
      "t": 111318.75,
      "d": 806.25,
      "v": 127
    },
    {
      "midi": 64,
      "hit": false,
      "t": 112225,
      "d": 762.5,
      "v": 127
    },
    {
      "midi": 61,
      "hit": false,
      "t": 112231.25,
      "d": 756.25,
      "v": 124
    },
    {
      "midi": 57,
      "hit": false,
      "t": 112231.25,
      "d": 762.5,
      "v": 126
    },
    {
      "midi": 64,
      "hit": false,
      "t": 113112.5,
      "d": 475,
      "v": 127
    },
    {
      "midi": 61,
      "hit": false,
      "t": 113112.5,
      "d": 487.5,
      "v": 127
    },
    {
      "midi": 57,
      "hit": false,
      "t": 113112.5,
      "d": 493.75,
      "v": 127
    },
    {
      "midi": 61,
      "hit": false,
      "t": 113718.75,
      "d": 800,
      "v": 125
    },
    {
      "midi": 57,
      "hit": false,
      "t": 113718.75,
      "d": 806.25,
      "v": 122
    },
    {
      "midi": 64,
      "hit": false,
      "t": 113718.75,
      "d": 806.25,
      "v": 127
    },
    {
      "midi": 57,
      "hit": false,
      "t": 114631.25,
      "d": 793.75,
      "v": 125
    },
    {
      "midi": 66,
      "hit": false,
      "t": 114631.25,
      "d": 793.75,
      "v": 127
    },
    {
      "midi": 61,
      "hit": false,
      "t": 114637.5,
      "d": 775,
      "v": 121
    },
    {
      "midi": 66,
      "hit": false,
      "t": 115518.75,
      "d": 506.25,
      "v": 120
    },
    {
      "midi": 61,
      "hit": false,
      "t": 115525,
      "d": 487.5,
      "v": 126
    },
    {
      "midi": 57,
      "hit": false,
      "t": 115525,
      "d": 500,
      "v": 126
    },
    {
      "midi": 66,
      "hit": false,
      "t": 116112.5,
      "d": 887.5,
      "v": 127
    },
    {
      "midi": 57,
      "hit": false,
      "t": 116125,
      "d": 875,
      "v": 127
    },
    {
      "midi": 61,
      "hit": false,
      "t": 116131.25,
      "d": 868.75,
      "v": 123
    },
    {
      "midi": 56,
      "hit": false,
      "t": 117012.5,
      "d": 287.5,
      "v": 127
    },
    {
      "midi": 59,
      "hit": false,
      "t": 117012.5,
      "d": 287.5,
      "v": 127
    },
    {
      "midi": 64,
      "hit": false,
      "t": 117012.5,
      "d": 287.5,
      "v": 127
    },
    {
      "midi": 56,
      "hit": false,
      "t": 117468.75,
      "d": 281.25,
      "v": 127
    },
    {
      "midi": 59,
      "hit": false,
      "t": 117468.75,
      "d": 281.25,
      "v": 122
    },
    {
      "midi": 64,
      "hit": false,
      "t": 117468.75,
      "d": 281.25,
      "v": 123
    },
    {
      "midi": 64,
      "hit": false,
      "t": 117918.75,
      "d": 275,
      "v": 125
    },
    {
      "midi": 56,
      "hit": false,
      "t": 117918.75,
      "d": 281.25,
      "v": 121
    },
    {
      "midi": 59,
      "hit": false,
      "t": 117918.75,
      "d": 281.25,
      "v": 127
    },
    {
      "midi": 59,
      "hit": false,
      "t": 118362.5,
      "d": 281.25,
      "v": 127
    },
    {
      "midi": 64,
      "hit": false,
      "t": 118362.5,
      "d": 281.25,
      "v": 127
    },
    {
      "midi": 56,
      "hit": false,
      "t": 118362.5,
      "d": 287.5,
      "v": 127
    },
    {
      "midi": 56,
      "hit": false,
      "t": 118812.5,
      "d": 137.5,
      "v": 120
    },
    {
      "midi": 59,
      "hit": false,
      "t": 118818.75,
      "d": 131.25,
      "v": 127
    },
    {
      "midi": 64,
      "hit": false,
      "t": 118818.75,
      "d": 131.25,
      "v": 127
    },
    {
      "midi": 56,
      "hit": false,
      "t": 119112.5,
      "d": 137.5,
      "v": 127
    },
    {
      "midi": 59,
      "hit": false,
      "t": 119112.5,
      "d": 137.5,
      "v": 127
    },
    {
      "midi": 64,
      "hit": false,
      "t": 119112.5,
      "d": 137.5,
      "v": 127
    },
    {
      "midi": 56,
      "hit": false,
      "t": 119412.5,
      "d": 275,
      "v": 127
    },
    {
      "midi": 59,
      "hit": false,
      "t": 119412.5,
      "d": 275,
      "v": 127
    },
    {
      "midi": 64,
      "hit": false,
      "t": 119418.75,
      "d": 268.75,
      "v": 125
    },
    {
      "midi": 56,
      "hit": false,
      "t": 119862.5,
      "d": 287.5,
      "v": 127
    },
    {
      "midi": 59,
      "hit": false,
      "t": 119868.75,
      "d": 281.25,
      "v": 122
    },
    {
      "midi": 64,
      "hit": false,
      "t": 119868.75,
      "d": 281.25,
      "v": 127
    },
    {
      "midi": 56,
      "hit": false,
      "t": 120312.5,
      "d": 281.25,
      "v": 122
    },
    {
      "midi": 59,
      "hit": false,
      "t": 120312.5,
      "d": 281.25,
      "v": 124
    },
    {
      "midi": 64,
      "hit": false,
      "t": 120318.75,
      "d": 275,
      "v": 127
    },
    {
      "midi": 56,
      "hit": false,
      "t": 120756.25,
      "d": 287.5,
      "v": 127
    },
    {
      "midi": 59,
      "hit": false,
      "t": 120756.25,
      "d": 287.5,
      "v": 125
    },
    {
      "midi": 64,
      "hit": false,
      "t": 120756.25,
      "d": 287.5,
      "v": 127
    },
    {
      "midi": 56,
      "hit": false,
      "t": 121212.5,
      "d": 131.25,
      "v": 127
    },
    {
      "midi": 59,
      "hit": false,
      "t": 121212.5,
      "d": 131.25,
      "v": 127
    },
    {
      "midi": 64,
      "hit": false,
      "t": 121212.5,
      "d": 131.25,
      "v": 120
    },
    {
      "midi": 56,
      "hit": false,
      "t": 121512.5,
      "d": 125,
      "v": 127
    },
    {
      "midi": 59,
      "hit": false,
      "t": 121512.5,
      "d": 125,
      "v": 127
    },
    {
      "midi": 64,
      "hit": false,
      "t": 121512.5,
      "d": 125,
      "v": 120
    },
    {
      "midi": 56,
      "hit": false,
      "t": 121812.5,
      "d": 281.25,
      "v": 127
    },
    {
      "midi": 59,
      "hit": false,
      "t": 121812.5,
      "d": 281.25,
      "v": 127
    },
    {
      "midi": 64,
      "hit": false,
      "t": 121818.75,
      "d": 275,
      "v": 127
    },
    {
      "midi": 57,
      "hit": false,
      "t": 122262.5,
      "d": 281.25,
      "v": 127
    },
    {
      "midi": 61,
      "hit": false,
      "t": 122262.5,
      "d": 281.25,
      "v": 127
    },
    {
      "midi": 66,
      "hit": false,
      "t": 122262.5,
      "d": 281.25,
      "v": 123
    },
    {
      "midi": 57,
      "hit": false,
      "t": 122712.5,
      "d": 1475,
      "v": 127
    },
    {
      "midi": 61,
      "hit": false,
      "t": 122712.5,
      "d": 1481.25,
      "v": 121
    },
    {
      "midi": 66,
      "hit": false,
      "t": 122718.75,
      "d": 1475,
      "v": 127
    },
    {
      "midi": 56,
      "hit": false,
      "t": 124212.5,
      "d": 281.25,
      "v": 127
    },
    {
      "midi": 59,
      "hit": false,
      "t": 124212.5,
      "d": 281.25,
      "v": 127
    },
    {
      "midi": 64,
      "hit": false,
      "t": 124218.75,
      "d": 275,
      "v": 127
    },
    {
      "midi": 57,
      "hit": false,
      "t": 124662.5,
      "d": 281.25,
      "v": 127
    },
    {
      "midi": 61,
      "hit": false,
      "t": 124662.5,
      "d": 281.25,
      "v": 127
    },
    {
      "midi": 66,
      "hit": false,
      "t": 124662.5,
      "d": 281.25,
      "v": 123
    },
    {
      "midi": 57,
      "hit": false,
      "t": 125112.5,
      "d": 1481.25,
      "v": 127
    },
    {
      "midi": 61,
      "hit": false,
      "t": 125112.5,
      "d": 1481.25,
      "v": 120
    },
    {
      "midi": 66,
      "hit": false,
      "t": 125118.75,
      "d": 1475,
      "v": 127
    },
    {
      "midi": 62,
      "hit": false,
      "t": 126612.5,
      "d": 275,
      "v": 127
    },
    {
      "midi": 66,
      "hit": false,
      "t": 126612.5,
      "d": 275,
      "v": 127
    },
    {
      "midi": 73,
      "hit": false,
      "t": 126612.5,
      "d": 275,
      "v": 123
    },
    {
      "midi": 62,
      "hit": false,
      "t": 127062.5,
      "d": 287.5,
      "v": 127
    },
    {
      "midi": 66,
      "hit": false,
      "t": 127062.5,
      "d": 287.5,
      "v": 127
    },
    {
      "midi": 74,
      "hit": false,
      "t": 127068.75,
      "d": 281.25,
      "v": 127
    },
    {
      "midi": 62,
      "hit": false,
      "t": 127512.5,
      "d": 1337.5,
      "v": 126
    },
    {
      "midi": 66,
      "hit": false,
      "t": 127512.5,
      "d": 1337.5,
      "v": 127
    },
    {
      "midi": 74,
      "hit": false,
      "t": 127518.75,
      "d": 1325,
      "v": 122
    },
    {
      "midi": 62,
      "hit": false,
      "t": 129012.5,
      "d": 2381.25,
      "v": 120
    },
    {
      "midi": 68,
      "hit": false,
      "t": 129012.5,
      "d": 2381.25,
      "v": 123
    },
    {
      "midi": 71,
      "hit": false,
      "t": 129012.5,
      "d": 2381.25,
      "v": 127
    },
    {
      "midi": 57,
      "hit": false,
      "t": 131412.5,
      "d": 131.25,
      "v": 125
    },
    {
      "midi": 61,
      "hit": false,
      "t": 131556.25,
      "d": 131.25,
      "v": 124
    },
    {
      "midi": 64,
      "hit": false,
      "t": 131556.25,
      "d": 131.25,
      "v": 120
    },
    {
      "midi": 69,
      "hit": false,
      "t": 131556.25,
      "d": 131.25,
      "v": 127
    },
    {
      "midi": 57,
      "hit": false,
      "t": 131856.25,
      "d": 131.25,
      "v": 127
    },
    {
      "midi": 61,
      "hit": false,
      "t": 132012.5,
      "d": 125,
      "v": 120
    },
    {
      "midi": 64,
      "hit": false,
      "t": 132012.5,
      "d": 125,
      "v": 127
    },
    {
      "midi": 69,
      "hit": false,
      "t": 132012.5,
      "d": 125,
      "v": 124
    },
    {
      "midi": 57,
      "hit": false,
      "t": 132306.25,
      "d": 137.5,
      "v": 123
    },
    {
      "midi": 61,
      "hit": false,
      "t": 132456.25,
      "d": 137.5,
      "v": 127
    },
    {
      "midi": 64,
      "hit": false,
      "t": 132456.25,
      "d": 137.5,
      "v": 127
    },
    {
      "midi": 69,
      "hit": false,
      "t": 132456.25,
      "d": 137.5,
      "v": 127
    },
    {
      "midi": 57,
      "hit": false,
      "t": 132756.25,
      "d": 131.25,
      "v": 127
    },
    {
      "midi": 61,
      "hit": false,
      "t": 132906.25,
      "d": 287.5,
      "v": 126
    },
    {
      "midi": 64,
      "hit": false,
      "t": 132912.5,
      "d": 281.25,
      "v": 122
    },
    {
      "midi": 69,
      "hit": false,
      "t": 132912.5,
      "d": 281.25,
      "v": 127
    },
    {
      "midi": 57,
      "hit": false,
      "t": 133806.25,
      "d": 137.5,
      "v": 123
    },
    {
      "midi": 62,
      "hit": false,
      "t": 133956.25,
      "d": 131.25,
      "v": 125
    },
    {
      "midi": 66,
      "hit": false,
      "t": 133956.25,
      "d": 131.25,
      "v": 126
    },
    {
      "midi": 69,
      "hit": false,
      "t": 133956.25,
      "d": 131.25,
      "v": 127
    },
    {
      "midi": 57,
      "hit": false,
      "t": 134256.25,
      "d": 131.25,
      "v": 124
    },
    {
      "midi": 62,
      "hit": false,
      "t": 134412.5,
      "d": 125,
      "v": 127
    },
    {
      "midi": 66,
      "hit": false,
      "t": 134412.5,
      "d": 125,
      "v": 127
    },
    {
      "midi": 69,
      "hit": false,
      "t": 134412.5,
      "d": 125,
      "v": 120
    },
    {
      "midi": 57,
      "hit": false,
      "t": 134706.25,
      "d": 137.5,
      "v": 123
    },
    {
      "midi": 62,
      "hit": false,
      "t": 134856.25,
      "d": 137.5,
      "v": 127
    },
    {
      "midi": 66,
      "hit": false,
      "t": 134856.25,
      "d": 137.5,
      "v": 122
    },
    {
      "midi": 69,
      "hit": false,
      "t": 134856.25,
      "d": 137.5,
      "v": 127
    },
    {
      "midi": 57,
      "hit": false,
      "t": 135156.25,
      "d": 131.25,
      "v": 127
    },
    {
      "midi": 62,
      "hit": false,
      "t": 135306.25,
      "d": 281.25,
      "v": 127
    },
    {
      "midi": 66,
      "hit": false,
      "t": 135312.5,
      "d": 275,
      "v": 126
    },
    {
      "midi": 69,
      "hit": false,
      "t": 135312.5,
      "d": 275,
      "v": 127
    },
    {
      "midi": 57,
      "hit": false,
      "t": 136206.25,
      "d": 137.5,
      "v": 125
    },
    {
      "midi": 61,
      "hit": false,
      "t": 136356.25,
      "d": 131.25,
      "v": 127
    },
    {
      "midi": 64,
      "hit": false,
      "t": 136356.25,
      "d": 131.25,
      "v": 127
    },
    {
      "midi": 69,
      "hit": false,
      "t": 136356.25,
      "d": 131.25,
      "v": 127
    },
    {
      "midi": 57,
      "hit": false,
      "t": 136656.25,
      "d": 131.25,
      "v": 127
    },
    {
      "midi": 61,
      "hit": false,
      "t": 136812.5,
      "d": 125,
      "v": 122
    },
    {
      "midi": 64,
      "hit": false,
      "t": 136812.5,
      "d": 125,
      "v": 127
    },
    {
      "midi": 69,
      "hit": false,
      "t": 136812.5,
      "d": 125,
      "v": 120
    },
    {
      "midi": 57,
      "hit": false,
      "t": 137106.25,
      "d": 137.5,
      "v": 126
    },
    {
      "midi": 61,
      "hit": false,
      "t": 137256.25,
      "d": 137.5,
      "v": 127
    },
    {
      "midi": 64,
      "hit": false,
      "t": 137256.25,
      "d": 137.5,
      "v": 127
    },
    {
      "midi": 69,
      "hit": false,
      "t": 137256.25,
      "d": 137.5,
      "v": 127
    },
    {
      "midi": 57,
      "hit": false,
      "t": 137556.25,
      "d": 131.25,
      "v": 127
    },
    {
      "midi": 61,
      "hit": false,
      "t": 137706.25,
      "d": 293.75,
      "v": 122
    },
    {
      "midi": 64,
      "hit": false,
      "t": 137712.5,
      "d": 287.5,
      "v": 127
    },
    {
      "midi": 69,
      "hit": false,
      "t": 137712.5,
      "d": 287.5,
      "v": 127
    },
    {
      "midi": 57,
      "hit": false,
      "t": 138618.75,
      "d": 131.25,
      "v": 127
    },
    {
      "midi": 62,
      "hit": false,
      "t": 138762.5,
      "d": 137.5,
      "v": 127
    },
    {
      "midi": 66,
      "hit": false,
      "t": 138762.5,
      "d": 137.5,
      "v": 127
    },
    {
      "midi": 69,
      "hit": false,
      "t": 138762.5,
      "d": 137.5,
      "v": 127
    },
    {
      "midi": 57,
      "hit": false,
      "t": 139062.5,
      "d": 137.5,
      "v": 127
    },
    {
      "midi": 62,
      "hit": false,
      "t": 139218.75,
      "d": 131.25,
      "v": 124
    },
    {
      "midi": 66,
      "hit": false,
      "t": 139218.75,
      "d": 131.25,
      "v": 127
    },
    {
      "midi": 69,
      "hit": false,
      "t": 139225,
      "d": 125,
      "v": 127
    },
    {
      "midi": 57,
      "hit": false,
      "t": 139512.5,
      "d": 131.25,
      "v": 125
    },
    {
      "midi": 69,
      "hit": false,
      "t": 139662.5,
      "d": 131.25,
      "v": 127
    },
    {
      "midi": 62,
      "hit": false,
      "t": 139662.5,
      "d": 137.5,
      "v": 127
    },
    {
      "midi": 66,
      "hit": false,
      "t": 139662.5,
      "d": 137.5,
      "v": 127
    },
    {
      "midi": 57,
      "hit": false,
      "t": 139962.5,
      "d": 131.25,
      "v": 121
    },
    {
      "midi": 66,
      "hit": false,
      "t": 140112.5,
      "d": 281.25,
      "v": 127
    },
    {
      "midi": 62,
      "hit": false,
      "t": 140112.5,
      "d": 287.5,
      "v": 127
    },
    {
      "midi": 69,
      "hit": false,
      "t": 140118.75,
      "d": 275,
      "v": 127
    },
    {
      "midi": 57,
      "hit": false,
      "t": 141012.5,
      "d": 131.25,
      "v": 120
    },
    {
      "midi": 61,
      "hit": false,
      "t": 141156.25,
      "d": 131.25,
      "v": 126
    },
    {
      "midi": 69,
      "hit": false,
      "t": 141162.5,
      "d": 125,
      "v": 127
    },
    {
      "midi": 64,
      "hit": false,
      "t": 141162.5,
      "d": 131.25,
      "v": 127
    },
    {
      "midi": 57,
      "hit": false,
      "t": 141462.5,
      "d": 125,
      "v": 125
    },
    {
      "midi": 61,
      "hit": false,
      "t": 141612.5,
      "d": 125,
      "v": 127
    },
    {
      "midi": 64,
      "hit": false,
      "t": 141612.5,
      "d": 125,
      "v": 127
    },
    {
      "midi": 69,
      "hit": false,
      "t": 141612.5,
      "d": 125,
      "v": 127
    },
    {
      "midi": 57,
      "hit": false,
      "t": 141912.5,
      "d": 131.25,
      "v": 127
    },
    {
      "midi": 61,
      "hit": false,
      "t": 142056.25,
      "d": 137.5,
      "v": 127
    },
    {
      "midi": 64,
      "hit": false,
      "t": 142056.25,
      "d": 137.5,
      "v": 127
    },
    {
      "midi": 69,
      "hit": false,
      "t": 142062.5,
      "d": 131.25,
      "v": 127
    },
    {
      "midi": 57,
      "hit": false,
      "t": 142356.25,
      "d": 131.25,
      "v": 127
    },
    {
      "midi": 61,
      "hit": false,
      "t": 142512.5,
      "d": 281.25,
      "v": 127
    },
    {
      "midi": 64,
      "hit": false,
      "t": 142512.5,
      "d": 281.25,
      "v": 127
    },
    {
      "midi": 69,
      "hit": false,
      "t": 142512.5,
      "d": 281.25,
      "v": 127
    },
    {
      "midi": 57,
      "hit": false,
      "t": 143412.5,
      "d": 131.25,
      "v": 127
    },
    {
      "midi": 62,
      "hit": false,
      "t": 143556.25,
      "d": 131.25,
      "v": 127
    },
    {
      "midi": 66,
      "hit": false,
      "t": 143556.25,
      "d": 131.25,
      "v": 121
    },
    {
      "midi": 69,
      "hit": false,
      "t": 143556.25,
      "d": 131.25,
      "v": 127
    },
    {
      "midi": 57,
      "hit": false,
      "t": 143856.25,
      "d": 131.25,
      "v": 127
    },
    {
      "midi": 66,
      "hit": false,
      "t": 144012.5,
      "d": 125,
      "v": 127
    },
    {
      "midi": 69,
      "hit": false,
      "t": 144012.5,
      "d": 125,
      "v": 127
    },
    {
      "midi": 62,
      "hit": false,
      "t": 144012.5,
      "d": 131.25,
      "v": 122
    },
    {
      "midi": 57,
      "hit": false,
      "t": 144306.25,
      "d": 137.5,
      "v": 127
    },
    {
      "midi": 62,
      "hit": false,
      "t": 144456.25,
      "d": 137.5,
      "v": 127
    },
    {
      "midi": 66,
      "hit": false,
      "t": 144456.25,
      "d": 137.5,
      "v": 125
    },
    {
      "midi": 69,
      "hit": false,
      "t": 144456.25,
      "d": 137.5,
      "v": 127
    },
    {
      "midi": 57,
      "hit": false,
      "t": 144756.25,
      "d": 137.5,
      "v": 127
    },
    {
      "midi": 62,
      "hit": false,
      "t": 144906.25,
      "d": 281.25,
      "v": 127
    },
    {
      "midi": 66,
      "hit": false,
      "t": 144912.5,
      "d": 275,
      "v": 127
    },
    {
      "midi": 69,
      "hit": false,
      "t": 144912.5,
      "d": 275,
      "v": 120
    },
    {
      "midi": 57,
      "hit": false,
      "t": 145806.25,
      "d": 137.5,
      "v": 127
    },
    {
      "midi": 61,
      "hit": false,
      "t": 145956.25,
      "d": 137.5,
      "v": 127
    },
    {
      "midi": 64,
      "hit": false,
      "t": 145956.25,
      "d": 137.5,
      "v": 121
    },
    {
      "midi": 69,
      "hit": false,
      "t": 145956.25,
      "d": 137.5,
      "v": 121
    },
    {
      "midi": 57,
      "hit": false,
      "t": 146256.25,
      "d": 131.25,
      "v": 125
    },
    {
      "midi": 61,
      "hit": false,
      "t": 146412.5,
      "d": 125,
      "v": 127
    },
    {
      "midi": 64,
      "hit": false,
      "t": 146412.5,
      "d": 125,
      "v": 127
    },
    {
      "midi": 69,
      "hit": false,
      "t": 146412.5,
      "d": 125,
      "v": 127
    },
    {
      "midi": 57,
      "hit": false,
      "t": 146706.25,
      "d": 137.5,
      "v": 127
    },
    {
      "midi": 61,
      "hit": false,
      "t": 146856.25,
      "d": 581.25,
      "v": 127
    },
    {
      "midi": 64,
      "hit": false,
      "t": 146856.25,
      "d": 581.25,
      "v": 127
    },
    {
      "midi": 69,
      "hit": false,
      "t": 146856.25,
      "d": 581.25,
      "v": 127
    },
    {
      "midi": 64,
      "hit": false,
      "t": 147612.5,
      "d": 575,
      "v": 123
    },
    {
      "midi": 68,
      "hit": false,
      "t": 147612.5,
      "d": 575,
      "v": 127
    },
    {
      "midi": 59,
      "hit": false,
      "t": 147612.5,
      "d": 581.25,
      "v": 124
    },
    {
      "midi": 57,
      "hit": false,
      "t": 148212.5,
      "d": 131.25,
      "v": 123
    },
    {
      "midi": 61,
      "hit": false,
      "t": 148356.25,
      "d": 131.25,
      "v": 127
    },
    {
      "midi": 66,
      "hit": false,
      "t": 148356.25,
      "d": 131.25,
      "v": 125
    },
    {
      "midi": 69,
      "hit": false,
      "t": 148356.25,
      "d": 131.25,
      "v": 127
    },
    {
      "midi": 57,
      "hit": false,
      "t": 148656.25,
      "d": 131.25,
      "v": 127
    },
    {
      "midi": 61,
      "hit": false,
      "t": 148812.5,
      "d": 125,
      "v": 127
    },
    {
      "midi": 66,
      "hit": false,
      "t": 148812.5,
      "d": 125,
      "v": 121
    },
    {
      "midi": 69,
      "hit": false,
      "t": 148812.5,
      "d": 125,
      "v": 127
    },
    {
      "midi": 61,
      "hit": false,
      "t": 149112.5,
      "d": 725,
      "v": 126
    },
    {
      "midi": 64,
      "hit": false,
      "t": 149112.5,
      "d": 725,
      "v": 124
    },
    {
      "midi": 69,
      "hit": false,
      "t": 149112.5,
      "d": 725,
      "v": 127
    },
    {
      "midi": 61,
      "hit": false,
      "t": 150012.5,
      "d": 431.25,
      "v": 125
    },
    {
      "midi": 64,
      "hit": false,
      "t": 150012.5,
      "d": 431.25,
      "v": 124
    },
    {
      "midi": 69,
      "hit": false,
      "t": 150012.5,
      "d": 431.25,
      "v": 127
    },
    {
      "midi": 59,
      "hit": false,
      "t": 150606.25,
      "d": 437.5,
      "v": 121
    },
    {
      "midi": 64,
      "hit": false,
      "t": 150612.5,
      "d": 431.25,
      "v": 127
    },
    {
      "midi": 68,
      "hit": false,
      "t": 150612.5,
      "d": 431.25,
      "v": 127
    },
    {
      "midi": 59,
      "hit": false,
      "t": 151056.25,
      "d": 131.25,
      "v": 127
    },
    {
      "midi": 64,
      "hit": false,
      "t": 151056.25,
      "d": 131.25,
      "v": 127
    },
    {
      "midi": 68,
      "hit": false,
      "t": 151056.25,
      "d": 131.25,
      "v": 123
    },
    {
      "midi": 59,
      "hit": false,
      "t": 151212.5,
      "d": 125,
      "v": 127
    },
    {
      "midi": 64,
      "hit": false,
      "t": 151212.5,
      "d": 125,
      "v": 122
    },
    {
      "midi": 68,
      "hit": false,
      "t": 151212.5,
      "d": 125,
      "v": 127
    },
    {
      "midi": 59,
      "hit": false,
      "t": 151506.25,
      "d": 437.5,
      "v": 127
    },
    {
      "midi": 64,
      "hit": false,
      "t": 151512.5,
      "d": 431.25,
      "v": 123
    },
    {
      "midi": 68,
      "hit": false,
      "t": 151512.5,
      "d": 431.25,
      "v": 125
    },
    {
      "midi": 59,
      "hit": false,
      "t": 151956.25,
      "d": 118.75,
      "v": 126
    },
    {
      "midi": 64,
      "hit": false,
      "t": 151956.25,
      "d": 118.75,
      "v": 127
    },
    {
      "midi": 68,
      "hit": false,
      "t": 151956.25,
      "d": 118.75,
      "v": 127
    },
    {
      "midi": 59,
      "hit": false,
      "t": 152112.5,
      "d": 281.25,
      "v": 127
    },
    {
      "midi": 64,
      "hit": false,
      "t": 152112.5,
      "d": 281.25,
      "v": 120
    },
    {
      "midi": 68,
      "hit": false,
      "t": 152112.5,
      "d": 281.25,
      "v": 127
    },
    {
      "midi": 59,
      "hit": false,
      "t": 152412.5,
      "d": 125,
      "v": 127
    },
    {
      "midi": 64,
      "hit": false,
      "t": 152412.5,
      "d": 281.25,
      "v": 122
    },
    {
      "midi": 68,
      "hit": false,
      "t": 152412.5,
      "d": 281.25,
      "v": 125
    },
    {
      "midi": 59,
      "hit": false,
      "t": 153006.25,
      "d": 437.5,
      "v": 122
    },
    {
      "midi": 61,
      "hit": false,
      "t": 153012.5,
      "d": 431.25,
      "v": 124
    },
    {
      "midi": 65,
      "hit": false,
      "t": 153012.5,
      "d": 431.25,
      "v": 122
    },
    {
      "midi": 59,
      "hit": false,
      "t": 153456.25,
      "d": 131.25,
      "v": 122
    },
    {
      "midi": 61,
      "hit": false,
      "t": 153456.25,
      "d": 131.25,
      "v": 127
    },
    {
      "midi": 65,
      "hit": false,
      "t": 153456.25,
      "d": 131.25,
      "v": 127
    },
    {
      "midi": 59,
      "hit": false,
      "t": 153612.5,
      "d": 125,
      "v": 121
    },
    {
      "midi": 61,
      "hit": false,
      "t": 153612.5,
      "d": 125,
      "v": 127
    },
    {
      "midi": 65,
      "hit": false,
      "t": 153612.5,
      "d": 125,
      "v": 127
    },
    {
      "midi": 59,
      "hit": false,
      "t": 153906.25,
      "d": 431.25,
      "v": 127
    },
    {
      "midi": 61,
      "hit": false,
      "t": 153912.5,
      "d": 425,
      "v": 127
    },
    {
      "midi": 65,
      "hit": false,
      "t": 153912.5,
      "d": 431.25,
      "v": 127
    },
    {
      "midi": 59,
      "hit": false,
      "t": 154356.25,
      "d": 131.25,
      "v": 127
    },
    {
      "midi": 61,
      "hit": false,
      "t": 154356.25,
      "d": 131.25,
      "v": 120
    },
    {
      "midi": 65,
      "hit": false,
      "t": 154356.25,
      "d": 131.25,
      "v": 122
    },
    {
      "midi": 59,
      "hit": false,
      "t": 154506.25,
      "d": 281.25,
      "v": 125
    },
    {
      "midi": 61,
      "hit": false,
      "t": 154512.5,
      "d": 275,
      "v": 127
    },
    {
      "midi": 65,
      "hit": false,
      "t": 154512.5,
      "d": 275,
      "v": 127
    },
    {
      "midi": 61,
      "hit": false,
      "t": 154812.5,
      "d": 275,
      "v": 127
    },
    {
      "midi": 65,
      "hit": false,
      "t": 154812.5,
      "d": 275,
      "v": 127
    },
    {
      "midi": 59,
      "hit": false,
      "t": 154812.5,
      "d": 281.25,
      "v": 127
    },
    {
      "midi": 57,
      "hit": false,
      "t": 155412.5,
      "d": 431.25,
      "v": 127
    },
    {
      "midi": 61,
      "hit": false,
      "t": 155412.5,
      "d": 431.25,
      "v": 127
    },
    {
      "midi": 66,
      "hit": false,
      "t": 155412.5,
      "d": 431.25,
      "v": 126
    },
    {
      "midi": 61,
      "hit": false,
      "t": 155856.25,
      "d": 131.25,
      "v": 127
    },
    {
      "midi": 57,
      "hit": false,
      "t": 155856.25,
      "d": 137.5,
      "v": 126
    },
    {
      "midi": 66,
      "hit": false,
      "t": 155862.5,
      "d": 125,
      "v": 123
    },
    {
      "midi": 57,
      "hit": false,
      "t": 156012.5,
      "d": 125,
      "v": 127
    },
    {
      "midi": 61,
      "hit": false,
      "t": 156012.5,
      "d": 125,
      "v": 127
    },
    {
      "midi": 66,
      "hit": false,
      "t": 156012.5,
      "d": 131.25,
      "v": 120
    },
    {
      "midi": 57,
      "hit": false,
      "t": 156306.25,
      "d": 418.75,
      "v": 127
    },
    {
      "midi": 61,
      "hit": false,
      "t": 156312.5,
      "d": 412.5,
      "v": 122
    },
    {
      "midi": 66,
      "hit": false,
      "t": 156312.5,
      "d": 412.5,
      "v": 127
    },
    {
      "midi": 57,
      "hit": false,
      "t": 156756.25,
      "d": 131.25,
      "v": 126
    },
    {
      "midi": 61,
      "hit": false,
      "t": 156756.25,
      "d": 131.25,
      "v": 127
    },
    {
      "midi": 64,
      "hit": false,
      "t": 156762.5,
      "d": 125,
      "v": 127
    },
    {
      "midi": 57,
      "hit": false,
      "t": 156906.25,
      "d": 287.5,
      "v": 123
    },
    {
      "midi": 61,
      "hit": false,
      "t": 156912.5,
      "d": 281.25,
      "v": 122
    },
    {
      "midi": 64,
      "hit": false,
      "t": 156912.5,
      "d": 281.25,
      "v": 127
    },
    {
      "midi": 57,
      "hit": false,
      "t": 157212.5,
      "d": 281.25,
      "v": 127
    },
    {
      "midi": 61,
      "hit": false,
      "t": 157212.5,
      "d": 281.25,
      "v": 127
    },
    {
      "midi": 64,
      "hit": false,
      "t": 157212.5,
      "d": 281.25,
      "v": 127
    },
    {
      "midi": 59,
      "hit": false,
      "t": 157806.25,
      "d": 437.5,
      "v": 127
    },
    {
      "midi": 63,
      "hit": false,
      "t": 157812.5,
      "d": 425,
      "v": 127
    },
    {
      "midi": 66,
      "hit": false,
      "t": 157812.5,
      "d": 425,
      "v": 127
    },
    {
      "midi": 59,
      "hit": false,
      "t": 158256.25,
      "d": 131.25,
      "v": 120
    },
    {
      "midi": 63,
      "hit": false,
      "t": 158256.25,
      "d": 131.25,
      "v": 127
    },
    {
      "midi": 66,
      "hit": false,
      "t": 158262.5,
      "d": 125,
      "v": 125
    },
    {
      "midi": 59,
      "hit": false,
      "t": 158412.5,
      "d": 125,
      "v": 127
    },
    {
      "midi": 63,
      "hit": false,
      "t": 158412.5,
      "d": 125,
      "v": 123
    },
    {
      "midi": 66,
      "hit": false,
      "t": 158412.5,
      "d": 125,
      "v": 127
    },
    {
      "midi": 59,
      "hit": false,
      "t": 158712.5,
      "d": 437.5,
      "v": 127
    },
    {
      "midi": 63,
      "hit": false,
      "t": 158712.5,
      "d": 437.5,
      "v": 126
    },
    {
      "midi": 66,
      "hit": false,
      "t": 158718.75,
      "d": 431.25,
      "v": 127
    },
    {
      "midi": 59,
      "hit": false,
      "t": 159162.5,
      "d": 137.5,
      "v": 127
    },
    {
      "midi": 63,
      "hit": false,
      "t": 159162.5,
      "d": 137.5,
      "v": 127
    },
    {
      "midi": 66,
      "hit": false,
      "t": 159162.5,
      "d": 137.5,
      "v": 127
    },
    {
      "midi": 59,
      "hit": false,
      "t": 159312.5,
      "d": 287.5,
      "v": 127
    },
    {
      "midi": 63,
      "hit": false,
      "t": 159312.5,
      "d": 287.5,
      "v": 127
    },
    {
      "midi": 66,
      "hit": false,
      "t": 159318.75,
      "d": 281.25,
      "v": 127
    },
    {
      "midi": 59,
      "hit": false,
      "t": 159612.5,
      "d": 437.5,
      "v": 127
    },
    {
      "midi": 63,
      "hit": false,
      "t": 159618.75,
      "d": 431.25,
      "v": 127
    },
    {
      "midi": 66,
      "hit": false,
      "t": 159618.75,
      "d": 431.25,
      "v": 127
    },
    {
      "midi": 68,
      "hit": false,
      "t": 160212.5,
      "d": 425,
      "v": 127
    },
    {
      "midi": 59,
      "hit": false,
      "t": 160212.5,
      "d": 431.25,
      "v": 127
    },
    {
      "midi": 64,
      "hit": false,
      "t": 160212.5,
      "d": 431.25,
      "v": 127
    },
    {
      "midi": 68,
      "hit": false,
      "t": 160662.5,
      "d": 125,
      "v": 122
    },
    {
      "midi": 59,
      "hit": false,
      "t": 160662.5,
      "d": 131.25,
      "v": 122
    },
    {
      "midi": 64,
      "hit": false,
      "t": 160662.5,
      "d": 131.25,
      "v": 121
    },
    {
      "midi": 59,
      "hit": false,
      "t": 160812.5,
      "d": 437.5,
      "v": 127
    },
    {
      "midi": 64,
      "hit": false,
      "t": 160818.75,
      "d": 425,
      "v": 127
    },
    {
      "midi": 68,
      "hit": false,
      "t": 160818.75,
      "d": 425,
      "v": 126
    },
    {
      "midi": 68,
      "hit": false,
      "t": 161262.5,
      "d": 125,
      "v": 122
    },
    {
      "midi": 59,
      "hit": false,
      "t": 161262.5,
      "d": 131.25,
      "v": 123
    },
    {
      "midi": 64,
      "hit": false,
      "t": 161262.5,
      "d": 131.25,
      "v": 127
    },
    {
      "midi": 59,
      "hit": false,
      "t": 161412.5,
      "d": 131.25,
      "v": 127
    },
    {
      "midi": 64,
      "hit": false,
      "t": 161412.5,
      "d": 131.25,
      "v": 127
    },
    {
      "midi": 68,
      "hit": false,
      "t": 161412.5,
      "d": 131.25,
      "v": 122
    },
    {
      "midi": 59,
      "hit": false,
      "t": 161562.5,
      "d": 125,
      "v": 126
    },
    {
      "midi": 64,
      "hit": false,
      "t": 161562.5,
      "d": 125,
      "v": 127
    },
    {
      "midi": 68,
      "hit": false,
      "t": 161562.5,
      "d": 125,
      "v": 127
    },
    {
      "midi": 59,
      "hit": false,
      "t": 161712.5,
      "d": 275,
      "v": 127
    },
    {
      "midi": 64,
      "hit": false,
      "t": 161712.5,
      "d": 275,
      "v": 120
    },
    {
      "midi": 68,
      "hit": false,
      "t": 161712.5,
      "d": 275,
      "v": 120
    },
    {
      "midi": 59,
      "hit": false,
      "t": 162012.5,
      "d": 281.25,
      "v": 121
    },
    {
      "midi": 64,
      "hit": false,
      "t": 162012.5,
      "d": 281.25,
      "v": 127
    },
    {
      "midi": 68,
      "hit": false,
      "t": 162012.5,
      "d": 281.25,
      "v": 127
    },
    {
      "midi": 59,
      "hit": false,
      "t": 162612.5,
      "d": 425,
      "v": 127
    },
    {
      "midi": 62,
      "hit": false,
      "t": 162612.5,
      "d": 425,
      "v": 127
    },
    {
      "midi": 66,
      "hit": false,
      "t": 162612.5,
      "d": 425,
      "v": 127
    },
    {
      "midi": 59,
      "hit": false,
      "t": 163056.25,
      "d": 131.25,
      "v": 127
    },
    {
      "midi": 62,
      "hit": false,
      "t": 163062.5,
      "d": 125,
      "v": 127
    },
    {
      "midi": 66,
      "hit": false,
      "t": 163062.5,
      "d": 125,
      "v": 122
    },
    {
      "midi": 59,
      "hit": false,
      "t": 163212.5,
      "d": 431.25,
      "v": 127
    },
    {
      "midi": 62,
      "hit": false,
      "t": 163212.5,
      "d": 431.25,
      "v": 127
    },
    {
      "midi": 66,
      "hit": false,
      "t": 163212.5,
      "d": 431.25,
      "v": 127
    },
    {
      "midi": 59,
      "hit": false,
      "t": 163656.25,
      "d": 137.5,
      "v": 127
    },
    {
      "midi": 62,
      "hit": false,
      "t": 163656.25,
      "d": 137.5,
      "v": 127
    },
    {
      "midi": 66,
      "hit": false,
      "t": 163656.25,
      "d": 137.5,
      "v": 127
    },
    {
      "midi": 59,
      "hit": false,
      "t": 163806.25,
      "d": 131.25,
      "v": 124
    },
    {
      "midi": 62,
      "hit": false,
      "t": 163812.5,
      "d": 125,
      "v": 124
    },
    {
      "midi": 66,
      "hit": false,
      "t": 163812.5,
      "d": 131.25,
      "v": 127
    },
    {
      "midi": 59,
      "hit": false,
      "t": 163956.25,
      "d": 131.25,
      "v": 122
    },
    {
      "midi": 62,
      "hit": false,
      "t": 163956.25,
      "d": 131.25,
      "v": 122
    },
    {
      "midi": 66,
      "hit": false,
      "t": 163956.25,
      "d": 137.5,
      "v": 127
    },
    {
      "midi": 59,
      "hit": false,
      "t": 164106.25,
      "d": 281.25,
      "v": 127
    },
    {
      "midi": 62,
      "hit": false,
      "t": 164112.5,
      "d": 275,
      "v": 120
    },
    {
      "midi": 66,
      "hit": false,
      "t": 164112.5,
      "d": 281.25,
      "v": 124
    },
    {
      "midi": 62,
      "hit": false,
      "t": 164412.5,
      "d": 275,
      "v": 125
    },
    {
      "midi": 68,
      "hit": false,
      "t": 164412.5,
      "d": 275,
      "v": 127
    },
    {
      "midi": 59,
      "hit": false,
      "t": 164412.5,
      "d": 281.25,
      "v": 124
    },
    {
      "midi": 61,
      "hit": false,
      "t": 165006.25,
      "d": 431.25,
      "v": 127
    },
    {
      "midi": 64,
      "hit": false,
      "t": 165012.5,
      "d": 425,
      "v": 127
    },
    {
      "midi": 69,
      "hit": false,
      "t": 165012.5,
      "d": 425,
      "v": 125
    },
    {
      "midi": 61,
      "hit": false,
      "t": 165456.25,
      "d": 131.25,
      "v": 122
    },
    {
      "midi": 64,
      "hit": false,
      "t": 165456.25,
      "d": 131.25,
      "v": 124
    },
    {
      "midi": 69,
      "hit": false,
      "t": 165462.5,
      "d": 125,
      "v": 123
    },
    {
      "midi": 61,
      "hit": false,
      "t": 165612.5,
      "d": 125,
      "v": 120
    },
    {
      "midi": 64,
      "hit": false,
      "t": 165612.5,
      "d": 125,
      "v": 127
    },
    {
      "midi": 69,
      "hit": false,
      "t": 165612.5,
      "d": 125,
      "v": 127
    },
    {
      "midi": 61,
      "hit": false,
      "t": 165906.25,
      "d": 431.25,
      "v": 127
    },
    {
      "midi": 64,
      "hit": false,
      "t": 165912.5,
      "d": 425,
      "v": 127
    },
    {
      "midi": 69,
      "hit": false,
      "t": 165912.5,
      "d": 425,
      "v": 120
    },
    {
      "midi": 61,
      "hit": false,
      "t": 166356.25,
      "d": 137.5,
      "v": 127
    },
    {
      "midi": 64,
      "hit": false,
      "t": 166356.25,
      "d": 137.5,
      "v": 121
    },
    {
      "midi": 69,
      "hit": false,
      "t": 166356.25,
      "d": 137.5,
      "v": 127
    },
    {
      "midi": 61,
      "hit": false,
      "t": 166506.25,
      "d": 287.5,
      "v": 127
    },
    {
      "midi": 64,
      "hit": false,
      "t": 166512.5,
      "d": 281.25,
      "v": 127
    },
    {
      "midi": 69,
      "hit": false,
      "t": 166512.5,
      "d": 281.25,
      "v": 127
    },
    {
      "midi": 61,
      "hit": false,
      "t": 166806.25,
      "d": 587.5,
      "v": 127
    },
    {
      "midi": 64,
      "hit": false,
      "t": 166812.5,
      "d": 581.25,
      "v": 127
    },
    {
      "midi": 69,
      "hit": false,
      "t": 166812.5,
      "d": 581.25,
      "v": 121
    },
    {
      "midi": 57,
      "hit": false,
      "t": 167406.25,
      "d": 437.5,
      "v": 127
    },
    {
      "midi": 62,
      "hit": false,
      "t": 167412.5,
      "d": 425,
      "v": 127
    },
    {
      "midi": 66,
      "hit": false,
      "t": 167412.5,
      "d": 425,
      "v": 127
    },
    {
      "midi": 57,
      "hit": false,
      "t": 167856.25,
      "d": 131.25,
      "v": 127
    },
    {
      "midi": 62,
      "hit": false,
      "t": 167856.25,
      "d": 131.25,
      "v": 127
    },
    {
      "midi": 66,
      "hit": false,
      "t": 167862.5,
      "d": 131.25,
      "v": 127
    },
    {
      "midi": 57,
      "hit": false,
      "t": 168012.5,
      "d": 131.25,
      "v": 127
    },
    {
      "midi": 62,
      "hit": false,
      "t": 168012.5,
      "d": 131.25,
      "v": 127
    },
    {
      "midi": 66,
      "hit": false,
      "t": 168012.5,
      "d": 131.25,
      "v": 127
    },
    {
      "midi": 57,
      "hit": false,
      "t": 168306.25,
      "d": 437.5,
      "v": 125
    },
    {
      "midi": 62,
      "hit": false,
      "t": 168312.5,
      "d": 431.25,
      "v": 120
    },
    {
      "midi": 66,
      "hit": false,
      "t": 168312.5,
      "d": 431.25,
      "v": 127
    },
    {
      "midi": 57,
      "hit": false,
      "t": 168756.25,
      "d": 131.25,
      "v": 127
    },
    {
      "midi": 62,
      "hit": false,
      "t": 168756.25,
      "d": 131.25,
      "v": 122
    },
    {
      "midi": 66,
      "hit": false,
      "t": 168756.25,
      "d": 131.25,
      "v": 127
    },
    {
      "midi": 57,
      "hit": false,
      "t": 168906.25,
      "d": 281.25,
      "v": 120
    },
    {
      "midi": 66,
      "hit": false,
      "t": 168912.5,
      "d": 275,
      "v": 127
    },
    {
      "midi": 62,
      "hit": false,
      "t": 168912.5,
      "d": 281.25,
      "v": 127
    },
    {
      "midi": 57,
      "hit": false,
      "t": 169212.5,
      "d": 575,
      "v": 123
    },
    {
      "midi": 66,
      "hit": false,
      "t": 169212.5,
      "d": 575,
      "v": 127
    },
    {
      "midi": 62,
      "hit": false,
      "t": 169212.5,
      "d": 581.25,
      "v": 127
    },
    {
      "midi": 61,
      "hit": false,
      "t": 169806.25,
      "d": 431.25,
      "v": 121
    },
    {
      "midi": 64,
      "hit": false,
      "t": 169812.5,
      "d": 425,
      "v": 127
    },
    {
      "midi": 69,
      "hit": false,
      "t": 169812.5,
      "d": 425,
      "v": 127
    },
    {
      "midi": 61,
      "hit": false,
      "t": 170256.25,
      "d": 143.75,
      "v": 122
    },
    {
      "midi": 64,
      "hit": false,
      "t": 170256.25,
      "d": 143.75,
      "v": 126
    },
    {
      "midi": 69,
      "hit": false,
      "t": 170262.5,
      "d": 137.5,
      "v": 127
    },
    {
      "midi": 61,
      "hit": false,
      "t": 170412.5,
      "d": 137.5,
      "v": 127
    },
    {
      "midi": 64,
      "hit": false,
      "t": 170418.75,
      "d": 131.25,
      "v": 120
    },
    {
      "midi": 69,
      "hit": false,
      "t": 170418.75,
      "d": 131.25,
      "v": 127
    },
    {
      "midi": 61,
      "hit": false,
      "t": 170712.5,
      "d": 437.5,
      "v": 127
    },
    {
      "midi": 64,
      "hit": false,
      "t": 170712.5,
      "d": 437.5,
      "v": 127
    },
    {
      "midi": 69,
      "hit": false,
      "t": 170718.75,
      "d": 431.25,
      "v": 120
    },
    {
      "midi": 61,
      "hit": false,
      "t": 171162.5,
      "d": 137.5,
      "v": 126
    },
    {
      "midi": 64,
      "hit": false,
      "t": 171162.5,
      "d": 137.5,
      "v": 125
    },
    {
      "midi": 69,
      "hit": false,
      "t": 171162.5,
      "d": 137.5,
      "v": 124
    },
    {
      "midi": 61,
      "hit": false,
      "t": 171312.5,
      "d": 287.5,
      "v": 127
    },
    {
      "midi": 64,
      "hit": false,
      "t": 171318.75,
      "d": 281.25,
      "v": 127
    },
    {
      "midi": 69,
      "hit": false,
      "t": 171318.75,
      "d": 281.25,
      "v": 127
    },
    {
      "midi": 61,
      "hit": false,
      "t": 171618.75,
      "d": 581.25,
      "v": 127
    },
    {
      "midi": 69,
      "hit": false,
      "t": 171625,
      "d": 568.75,
      "v": 127
    },
    {
      "midi": 64,
      "hit": false,
      "t": 171625,
      "d": 575,
      "v": 127
    },
    {
      "midi": 62,
      "hit": false,
      "t": 172218.75,
      "d": 418.75,
      "v": 127
    },
    {
      "midi": 66,
      "hit": false,
      "t": 172218.75,
      "d": 418.75,
      "v": 127
    },
    {
      "midi": 57,
      "hit": false,
      "t": 172218.75,
      "d": 425,
      "v": 127
    },
    {
      "midi": 62,
      "hit": false,
      "t": 172662.5,
      "d": 125,
      "v": 127
    },
    {
      "midi": 66,
      "hit": false,
      "t": 172662.5,
      "d": 125,
      "v": 123
    },
    {
      "midi": 57,
      "hit": false,
      "t": 172662.5,
      "d": 131.25,
      "v": 127
    },
    {
      "midi": 62,
      "hit": false,
      "t": 172818.75,
      "d": 125,
      "v": 127
    },
    {
      "midi": 57,
      "hit": false,
      "t": 172818.75,
      "d": 131.25,
      "v": 127
    },
    {
      "midi": 66,
      "hit": false,
      "t": 172825,
      "d": 118.75,
      "v": 127
    },
    {
      "midi": 57,
      "hit": false,
      "t": 173112.5,
      "d": 431.25,
      "v": 122
    },
    {
      "midi": 62,
      "hit": false,
      "t": 173112.5,
      "d": 431.25,
      "v": 122
    },
    {
      "midi": 66,
      "hit": false,
      "t": 173112.5,
      "d": 431.25,
      "v": 127
    },
    {
      "midi": 57,
      "hit": false,
      "t": 173562.5,
      "d": 125,
      "v": 127
    },
    {
      "midi": 62,
      "hit": false,
      "t": 173562.5,
      "d": 125,
      "v": 127
    },
    {
      "midi": 66,
      "hit": false,
      "t": 173562.5,
      "d": 131.25,
      "v": 120
    },
    {
      "midi": 57,
      "hit": false,
      "t": 173712.5,
      "d": 275,
      "v": 127
    },
    {
      "midi": 62,
      "hit": false,
      "t": 173712.5,
      "d": 275,
      "v": 127
    },
    {
      "midi": 66,
      "hit": false,
      "t": 173712.5,
      "d": 275,
      "v": 127
    },
    {
      "midi": 62,
      "hit": false,
      "t": 174012.5,
      "d": 575,
      "v": 127
    },
    {
      "midi": 66,
      "hit": false,
      "t": 174012.5,
      "d": 575,
      "v": 127
    },
    {
      "midi": 57,
      "hit": false,
      "t": 174012.5,
      "d": 587.5,
      "v": 127
    },
    {
      "midi": 35,
      "hit": false,
      "t": 261000,
      "d": 356.25,
      "v": 66
    },
    {
      "midi": 47,
      "hit": false,
      "t": 261000,
      "d": 425,
      "v": 58
    },
    {
      "midi": 59,
      "hit": false,
      "t": 261000,
      "d": 537.5,
      "v": 72
    },
    {
      "midi": 63,
      "hit": false,
      "t": 261000,
      "d": 537.5,
      "v": 84
    },
    {
      "midi": 71,
      "hit": false,
      "t": 261000,
      "d": 556.25,
      "v": 72
    },
    {
      "midi": 66,
      "hit": false,
      "t": 261000,
      "d": 568.75,
      "v": 84
    },
    {
      "midi": 37,
      "hit": false,
      "t": 261600,
      "d": 425,
      "v": 66
    },
    {
      "midi": 49,
      "hit": false,
      "t": 261600,
      "d": 468.75,
      "v": 62
    },
    {
      "midi": 59,
      "hit": false,
      "t": 261600,
      "d": 475,
      "v": 76
    },
    {
      "midi": 71,
      "hit": false,
      "t": 261600,
      "d": 512.5,
      "v": 68
    },
    {
      "midi": 64,
      "hit": false,
      "t": 261600,
      "d": 537.5,
      "v": 84
    },
    {
      "midi": 51,
      "hit": false,
      "t": 262200,
      "d": 418.75,
      "v": 54
    },
    {
      "midi": 59,
      "hit": false,
      "t": 262200,
      "d": 481.25,
      "v": 64
    },
    {
      "midi": 71,
      "hit": false,
      "t": 262200,
      "d": 518.75,
      "v": 72
    },
    {
      "midi": 39,
      "hit": false,
      "t": 262200,
      "d": 525,
      "v": 58
    },
    {
      "midi": 66,
      "hit": false,
      "t": 262200,
      "d": 587.5,
      "v": 72
    },
    {
      "midi": 59,
      "hit": false,
      "t": 262800,
      "d": 450,
      "v": 60
    },
    {
      "midi": 64,
      "hit": false,
      "t": 262800,
      "d": 450,
      "v": 66
    },
    {
      "midi": 68,
      "hit": false,
      "t": 262800,
      "d": 481.25,
      "v": 64
    },
    {
      "midi": 52,
      "hit": false,
      "t": 262800,
      "d": 775,
      "v": 64
    },
    {
      "midi": 59,
      "hit": false,
      "t": 263400,
      "d": 475,
      "v": 60
    },
    {
      "midi": 64,
      "hit": false,
      "t": 263400,
      "d": 537.5,
      "v": 66
    },
    {
      "midi": 68,
      "hit": false,
      "t": 263400,
      "d": 612.5,
      "v": 72
    },
    {
      "midi": 52,
      "hit": false,
      "t": 263700,
      "d": 362.5,
      "v": 52
    },
    {
      "midi": 61,
      "hit": false,
      "t": 264000,
      "d": 406.25,
      "v": 66
    },
    {
      "midi": 57,
      "hit": false,
      "t": 264000,
      "d": 418.75,
      "v": 58
    },
    {
      "midi": 64,
      "hit": false,
      "t": 264000,
      "d": 443.75,
      "v": 60
    },
    {
      "midi": 54,
      "hit": false,
      "t": 264000,
      "d": 1175,
      "v": 44
    },
    {
      "midi": 57,
      "hit": false,
      "t": 264600,
      "d": 481.25,
      "v": 56
    },
    {
      "midi": 61,
      "hit": false,
      "t": 264600,
      "d": 481.25,
      "v": 64
    },
    {
      "midi": 64,
      "hit": false,
      "t": 264600,
      "d": 518.75,
      "v": 68
    },
    {
      "midi": 57,
      "hit": false,
      "t": 265200,
      "d": 475,
      "v": 54
    },
    {
      "midi": 61,
      "hit": false,
      "t": 265200,
      "d": 506.25,
      "v": 54
    },
    {
      "midi": 64,
      "hit": false,
      "t": 265200,
      "d": 506.25,
      "v": 54
    },
    {
      "midi": 47,
      "hit": false,
      "t": 265200,
      "d": 781.25,
      "v": 44
    },
    {
      "midi": 59,
      "hit": false,
      "t": 265800,
      "d": 487.5,
      "v": 56
    },
    {
      "midi": 63,
      "hit": false,
      "t": 265800,
      "d": 512.5,
      "v": 66
    },
    {
      "midi": 64,
      "hit": false,
      "t": 266400,
      "d": 218.75,
      "v": 68
    },
    {
      "midi": 52,
      "hit": false,
      "t": 266400,
      "d": 925,
      "v": 56
    },
    {
      "midi": 56,
      "hit": false,
      "t": 266400,
      "d": 968.75,
      "v": 62
    },
    {
      "midi": 59,
      "hit": false,
      "t": 266400,
      "d": 993.75,
      "v": 52
    },
    {
      "midi": 64,
      "hit": false,
      "t": 266700,
      "d": 825,
      "v": 52
    },
    {
      "midi": 83,
      "hit": false,
      "t": 267000,
      "d": 187.5,
      "v": 92
    },
    {
      "midi": 80,
      "hit": false,
      "t": 267150,
      "d": 193.75,
      "v": 66
    },
    {
      "midi": 78,
      "hit": false,
      "t": 267300,
      "d": 175,
      "v": 64
    },
    {
      "midi": 76,
      "hit": false,
      "t": 267450,
      "d": 131.25,
      "v": 68
    },
    {
      "midi": 56,
      "hit": false,
      "t": 267600,
      "d": 481.25,
      "v": 40
    },
    {
      "midi": 64,
      "hit": false,
      "t": 267600,
      "d": 518.75,
      "v": 52
    },
    {
      "midi": 61,
      "hit": false,
      "t": 267600,
      "d": 1681.25,
      "v": 52
    },
    {
      "midi": 75,
      "hit": false,
      "t": 267600,
      "d": 1831.25,
      "v": 52
    },
    {
      "midi": 56,
      "hit": false,
      "t": 268200,
      "d": 456.25,
      "v": 56
    },
    {
      "midi": 64,
      "hit": false,
      "t": 268200,
      "d": 525,
      "v": 66
    },
    {
      "midi": 56,
      "hit": false,
      "t": 268800,
      "d": 456.25,
      "v": 62
    },
    {
      "midi": 64,
      "hit": false,
      "t": 268800,
      "d": 462.5,
      "v": 68
    },
    {
      "midi": 64,
      "hit": false,
      "t": 269400,
      "d": 462.5,
      "v": 66
    },
    {
      "midi": 61,
      "hit": false,
      "t": 269400,
      "d": 550,
      "v": 52
    },
    {
      "midi": 56,
      "hit": false,
      "t": 269400,
      "d": 575,
      "v": 64
    },
    {
      "midi": 58,
      "hit": false,
      "t": 270000,
      "d": 481.25,
      "v": 54
    },
    {
      "midi": 61,
      "hit": false,
      "t": 270000,
      "d": 487.5,
      "v": 62
    },
    {
      "midi": 66,
      "hit": false,
      "t": 270000,
      "d": 493.75,
      "v": 68
    },
    {
      "midi": 46,
      "hit": false,
      "t": 270600,
      "d": 475,
      "v": 38
    },
    {
      "midi": 54,
      "hit": false,
      "t": 270600,
      "d": 475,
      "v": 64
    },
    {
      "midi": 58,
      "hit": false,
      "t": 270600,
      "d": 506.25,
      "v": 60
    },
    {
      "midi": 61,
      "hit": false,
      "t": 270600,
      "d": 525,
      "v": 66
    },
    {
      "midi": 66,
      "hit": false,
      "t": 270600,
      "d": 593.75,
      "v": 64
    },
    {
      "midi": 64,
      "hit": false,
      "t": 271200,
      "d": 325,
      "v": 64
    },
    {
      "midi": 47,
      "hit": false,
      "t": 271200,
      "d": 462.5,
      "v": 54
    },
    {
      "midi": 54,
      "hit": false,
      "t": 271200,
      "d": 493.75,
      "v": 46
    },
    {
      "midi": 59,
      "hit": false,
      "t": 271200,
      "d": 518.75,
      "v": 58
    },
    {
      "midi": 63,
      "hit": false,
      "t": 271500,
      "d": 818.75,
      "v": 56
    },
    {
      "midi": 54,
      "hit": false,
      "t": 271800,
      "d": 181.25,
      "v": 60
    },
    {
      "midi": 47,
      "hit": false,
      "t": 271800,
      "d": 475,
      "v": 56
    },
    {
      "midi": 59,
      "hit": false,
      "t": 271800,
      "d": 512.5,
      "v": 64
    },
    {
      "midi": 54,
      "hit": false,
      "t": 272100,
      "d": 231.25,
      "v": 19
    },
    {
      "midi": 64,
      "hit": false,
      "t": 272400,
      "d": 456.25,
      "v": 60
    },
    {
      "midi": 59,
      "hit": false,
      "t": 272400,
      "d": 468.75,
      "v": 56
    },
    {
      "midi": 56,
      "hit": false,
      "t": 272400,
      "d": 481.25,
      "v": 40
    },
    {
      "midi": 52,
      "hit": false,
      "t": 272400,
      "d": 675,
      "v": 52
    },
    {
      "midi": 56,
      "hit": false,
      "t": 273000,
      "d": 481.25,
      "v": 52
    },
    {
      "midi": 64,
      "hit": false,
      "t": 273000,
      "d": 493.75,
      "v": 66
    },
    {
      "midi": 59,
      "hit": false,
      "t": 273000,
      "d": 531.25,
      "v": 66
    },
    {
      "midi": 52,
      "hit": false,
      "t": 273300,
      "d": 325,
      "v": 36
    },
    {
      "midi": 64,
      "hit": false,
      "t": 273600,
      "d": 468.75,
      "v": 58
    },
    {
      "midi": 61,
      "hit": false,
      "t": 273600,
      "d": 475,
      "v": 54
    },
    {
      "midi": 57,
      "hit": false,
      "t": 273600,
      "d": 512.5,
      "v": 56
    },
    {
      "midi": 52,
      "hit": false,
      "t": 273900,
      "d": 287.5,
      "v": 30
    },
    {
      "midi": 57,
      "hit": false,
      "t": 274200,
      "d": 412.5,
      "v": 60
    },
    {
      "midi": 64,
      "hit": false,
      "t": 274200,
      "d": 468.75,
      "v": 68
    },
    {
      "midi": 61,
      "hit": false,
      "t": 274200,
      "d": 600,
      "v": 62
    },
    {
      "midi": 60,
      "hit": false,
      "t": 274800,
      "d": 468.75,
      "v": 68
    },
    {
      "midi": 56,
      "hit": false,
      "t": 274800,
      "d": 481.25,
      "v": 50
    },
    {
      "midi": 63,
      "hit": false,
      "t": 274800,
      "d": 487.5,
      "v": 58
    },
    {
      "midi": 44,
      "hit": false,
      "t": 274800,
      "d": 731.25,
      "v": 29
    },
    {
      "midi": 60,
      "hit": false,
      "t": 275400,
      "d": 475,
      "v": 54
    },
    {
      "midi": 63,
      "hit": false,
      "t": 275400,
      "d": 500,
      "v": 54
    },
    {
      "midi": 56,
      "hit": false,
      "t": 275400,
      "d": 506.25,
      "v": 56
    },
    {
      "midi": 66,
      "hit": false,
      "t": 275400,
      "d": 581.25,
      "v": 46
    },
    {
      "midi": 61,
      "hit": false,
      "t": 276000,
      "d": 381.25,
      "v": 60
    },
    {
      "midi": 64,
      "hit": false,
      "t": 276000,
      "d": 437.5,
      "v": 64
    },
    {
      "midi": 64,
      "hit": false,
      "t": 276600,
      "d": 493.75,
      "v": 58
    },
    {
      "midi": 56,
      "hit": false,
      "t": 276600,
      "d": 500,
      "v": 39
    },
    {
      "midi": 59,
      "hit": false,
      "t": 276600,
      "d": 512.5,
      "v": 64
    },
    {
      "midi": 80,
      "hit": false,
      "t": 277200,
      "d": 237.5,
      "v": 84
    },
    {
      "midi": 57,
      "hit": false,
      "t": 277200,
      "d": 581.25,
      "v": 56
    },
    {
      "midi": 61,
      "hit": false,
      "t": 277200,
      "d": 581.25,
      "v": 56
    },
    {
      "midi": 64,
      "hit": false,
      "t": 277200,
      "d": 581.25,
      "v": 50
    },
    {
      "midi": 78,
      "hit": false,
      "t": 277500,
      "d": 181.25,
      "v": 68
    },
    {
      "midi": 80,
      "hit": false,
      "t": 277800,
      "d": 306.25,
      "v": 102
    },
    {
      "midi": 57,
      "hit": false,
      "t": 277800,
      "d": 581.25,
      "v": 32
    },
    {
      "midi": 61,
      "hit": false,
      "t": 277800,
      "d": 581.25,
      "v": 37
    },
    {
      "midi": 64,
      "hit": false,
      "t": 277800,
      "d": 581.25,
      "v": 36
    },
    {
      "midi": 73,
      "hit": false,
      "t": 278100,
      "d": 1231.25,
      "v": 72
    },
    {
      "midi": 57,
      "hit": false,
      "t": 278400,
      "d": 581.25,
      "v": 34
    },
    {
      "midi": 61,
      "hit": false,
      "t": 278400,
      "d": 581.25,
      "v": 40
    },
    {
      "midi": 64,
      "hit": false,
      "t": 278400,
      "d": 581.25,
      "v": 44
    },
    {
      "midi": 57,
      "hit": false,
      "t": 279000,
      "d": 581.25,
      "v": 48
    },
    {
      "midi": 61,
      "hit": false,
      "t": 279000,
      "d": 581.25,
      "v": 44
    },
    {
      "midi": 64,
      "hit": false,
      "t": 279000,
      "d": 581.25,
      "v": 54
    },
    {
      "midi": 80,
      "hit": false,
      "t": 279600,
      "d": 237.5,
      "v": 97
    },
    {
      "midi": 57,
      "hit": false,
      "t": 279600,
      "d": 581.25,
      "v": 40
    },
    {
      "midi": 60,
      "hit": false,
      "t": 279600,
      "d": 581.25,
      "v": 56
    },
    {
      "midi": 64,
      "hit": false,
      "t": 279600,
      "d": 581.25,
      "v": 56
    },
    {
      "midi": 78,
      "hit": false,
      "t": 279900,
      "d": 187.5,
      "v": 72
    },
    {
      "midi": 80,
      "hit": false,
      "t": 280200,
      "d": 287.5,
      "v": 84
    },
    {
      "midi": 57,
      "hit": false,
      "t": 280200,
      "d": 581.25,
      "v": 42
    },
    {
      "midi": 60,
      "hit": false,
      "t": 280200,
      "d": 581.25,
      "v": 48
    },
    {
      "midi": 64,
      "hit": false,
      "t": 280200,
      "d": 581.25,
      "v": 46
    },
    {
      "midi": 72,
      "hit": false,
      "t": 280500,
      "d": 1487.5,
      "v": 80
    },
    {
      "midi": 57,
      "hit": false,
      "t": 280800,
      "d": 581.25,
      "v": 39
    },
    {
      "midi": 60,
      "hit": false,
      "t": 280800,
      "d": 581.25,
      "v": 44
    },
    {
      "midi": 64,
      "hit": false,
      "t": 280800,
      "d": 581.25,
      "v": 50
    },
    {
      "midi": 57,
      "hit": false,
      "t": 281400,
      "d": 581.25,
      "v": 54
    },
    {
      "midi": 60,
      "hit": false,
      "t": 281400,
      "d": 581.25,
      "v": 37
    },
    {
      "midi": 64,
      "hit": false,
      "t": 281400,
      "d": 581.25,
      "v": 46
    },
    {
      "midi": 64,
      "hit": false,
      "t": 282000,
      "d": 493.75,
      "v": 50
    },
    {
      "midi": 68,
      "hit": false,
      "t": 282000,
      "d": 493.75,
      "v": 56
    },
    {
      "midi": 71,
      "hit": false,
      "t": 282000,
      "d": 543.75,
      "v": 66
    },
    {
      "midi": 59,
      "hit": false,
      "t": 282000,
      "d": 681.25,
      "v": 60
    },
    {
      "midi": 52,
      "hit": false,
      "t": 282000,
      "d": 881.25,
      "v": 52
    },
    {
      "midi": 64,
      "hit": false,
      "t": 282600,
      "d": 462.5,
      "v": 64
    },
    {
      "midi": 68,
      "hit": false,
      "t": 282600,
      "d": 462.5,
      "v": 54
    },
    {
      "midi": 71,
      "hit": false,
      "t": 282600,
      "d": 531.25,
      "v": 52
    },
    {
      "midi": 59,
      "hit": false,
      "t": 282900,
      "d": 212.5,
      "v": 36
    },
    {
      "midi": 59,
      "hit": false,
      "t": 283200,
      "d": 200,
      "v": 40
    },
    {
      "midi": 62,
      "hit": false,
      "t": 283200,
      "d": 506.25,
      "v": 58
    },
    {
      "midi": 74,
      "hit": false,
      "t": 283200,
      "d": 506.25,
      "v": 62
    },
    {
      "midi": 66,
      "hit": false,
      "t": 283200,
      "d": 543.75,
      "v": 64
    },
    {
      "midi": 71,
      "hit": false,
      "t": 283200,
      "d": 550,
      "v": 66
    },
    {
      "midi": 50,
      "hit": false,
      "t": 283200,
      "d": 900,
      "v": 54
    },
    {
      "midi": 59,
      "hit": false,
      "t": 283500,
      "d": 256.25,
      "v": 21
    },
    {
      "midi": 66,
      "hit": false,
      "t": 283800,
      "d": 318.75,
      "v": 66
    },
    {
      "midi": 74,
      "hit": false,
      "t": 283800,
      "d": 337.5,
      "v": 60
    },
    {
      "midi": 62,
      "hit": false,
      "t": 283800,
      "d": 393.75,
      "v": 56
    },
    {
      "midi": 71,
      "hit": false,
      "t": 283800,
      "d": 425,
      "v": 66
    },
    {
      "midi": 59,
      "hit": false,
      "t": 284100,
      "d": 600,
      "v": 50
    },
    {
      "midi": 68,
      "hit": false,
      "t": 284400,
      "d": 281.25,
      "v": 64
    },
    {
      "midi": 65,
      "hit": false,
      "t": 284400,
      "d": 293.75,
      "v": 66
    },
    {
      "midi": 49,
      "hit": false,
      "t": 284400,
      "d": 300,
      "v": 29
    },
    {
      "midi": 73,
      "hit": false,
      "t": 284400,
      "d": 300,
      "v": 58
    },
    {
      "midi": 61,
      "hit": false,
      "t": 284400,
      "d": 318.75,
      "v": 56
    },
    {
      "midi": 65,
      "hit": false,
      "t": 285000,
      "d": 437.5,
      "v": 72
    },
    {
      "midi": 59,
      "hit": false,
      "t": 285000,
      "d": 475,
      "v": 60
    },
    {
      "midi": 49,
      "hit": false,
      "t": 285000,
      "d": 512.5,
      "v": 50
    },
    {
      "midi": 61,
      "hit": false,
      "t": 285000,
      "d": 531.25,
      "v": 64
    },
    {
      "midi": 63,
      "hit": false,
      "t": 285600,
      "d": 406.25,
      "v": 62
    },
    {
      "midi": 66,
      "hit": false,
      "t": 285600,
      "d": 425,
      "v": 68
    },
    {
      "midi": 59,
      "hit": false,
      "t": 285600,
      "d": 468.75,
      "v": 56
    },
    {
      "midi": 51,
      "hit": false,
      "t": 285600,
      "d": 556.25,
      "v": 44
    },
    {
      "midi": 65,
      "hit": false,
      "t": 286200,
      "d": 443.75,
      "v": 76
    },
    {
      "midi": 59,
      "hit": false,
      "t": 286200,
      "d": 481.25,
      "v": 50
    },
    {
      "midi": 61,
      "hit": false,
      "t": 286200,
      "d": 493.75,
      "v": 40
    },
    {
      "midi": 68,
      "hit": false,
      "t": 286200,
      "d": 506.25,
      "v": 62
    },
    {
      "midi": 53,
      "hit": false,
      "t": 286200,
      "d": 531.25,
      "v": 52
    },
    {
      "midi": 59,
      "hit": false,
      "t": 286800,
      "d": 362.5,
      "v": 46
    },
    {
      "midi": 57,
      "hit": false,
      "t": 286800,
      "d": 375,
      "v": 50
    },
    {
      "midi": 61,
      "hit": false,
      "t": 286800,
      "d": 406.25,
      "v": 68
    },
    {
      "midi": 69,
      "hit": false,
      "t": 286800,
      "d": 443.75,
      "v": 66
    },
    {
      "midi": 66,
      "hit": false,
      "t": 286800,
      "d": 525,
      "v": 62
    },
    {
      "midi": 54,
      "hit": false,
      "t": 286800,
      "d": 600,
      "v": 54
    },
    {
      "midi": 71,
      "hit": false,
      "t": 287400,
      "d": 412.5,
      "v": 68
    },
    {
      "midi": 59,
      "hit": false,
      "t": 287400,
      "d": 425,
      "v": 58
    },
    {
      "midi": 65,
      "hit": false,
      "t": 287400,
      "d": 518.75,
      "v": 76
    },
    {
      "midi": 56,
      "hit": false,
      "t": 287400,
      "d": 581.25,
      "v": 58
    },
    {
      "midi": 68,
      "hit": false,
      "t": 287400,
      "d": 606.25,
      "v": 68
    },
    {
      "midi": 69,
      "hit": false,
      "t": 288000,
      "d": 312.5,
      "v": 60
    },
    {
      "midi": 61,
      "hit": false,
      "t": 288000,
      "d": 318.75,
      "v": 62
    },
    {
      "midi": 73,
      "hit": false,
      "t": 288000,
      "d": 325,
      "v": 56
    },
    {
      "midi": 64,
      "hit": false,
      "t": 288000,
      "d": 331.25,
      "v": 64
    },
    {
      "midi": 57,
      "hit": false,
      "t": 288000,
      "d": 337.5,
      "v": 56
    },
    {
      "midi": 57,
      "hit": false,
      "t": 289200,
      "d": 431.25,
      "v": 66
    },
    {
      "midi": 61,
      "hit": false,
      "t": 289200,
      "d": 525,
      "v": 58
    },
    {
      "midi": 64,
      "hit": false,
      "t": 289200,
      "d": 543.75,
      "v": 66
    },
    {
      "midi": 47,
      "hit": false,
      "t": 289200,
      "d": 987.5,
      "v": 58
    },
    {
      "midi": 63,
      "hit": false,
      "t": 289800,
      "d": 431.25,
      "v": 64
    },
    {
      "midi": 59,
      "hit": false,
      "t": 289800,
      "d": 443.75,
      "v": 52
    },
    {
      "midi": 57,
      "hit": false,
      "t": 289800,
      "d": 468.75,
      "v": 64
    },
    {
      "midi": 57,
      "hit": false,
      "t": 290400,
      "d": 156.25,
      "v": 58
    },
    {
      "midi": 59,
      "hit": false,
      "t": 290400,
      "d": 168.75,
      "v": 39
    },
    {
      "midi": 68,
      "hit": false,
      "t": 290400,
      "d": 225,
      "v": 58
    },
    {
      "midi": 63,
      "hit": false,
      "t": 290400,
      "d": 243.75,
      "v": 56
    },
    {
      "midi": 47,
      "hit": false,
      "t": 290400,
      "d": 631.25,
      "v": 54
    },
    {
      "midi": 66,
      "hit": false,
      "t": 290700,
      "d": 568.75,
      "v": 62
    },
    {
      "midi": 59,
      "hit": false,
      "t": 290700,
      "d": 681.25,
      "v": 56
    },
    {
      "midi": 57,
      "hit": false,
      "t": 291000,
      "d": 250,
      "v": 62
    },
    {
      "midi": 64,
      "hit": false,
      "t": 291300,
      "d": 725,
      "v": 64
    },
    {
      "midi": 59,
      "hit": false,
      "t": 291600,
      "d": 981.25,
      "v": 54
    },
    {
      "midi": 52,
      "hit": false,
      "t": 291600,
      "d": 1162.5,
      "v": 54
    },
    {
      "midi": 68,
      "hit": false,
      "t": 292200,
      "d": 268.75,
      "v": 97
    },
    {
      "midi": 69,
      "hit": false,
      "t": 292500,
      "d": 268.75,
      "v": 72
    },
    {
      "midi": 68,
      "hit": false,
      "t": 292800,
      "d": 187.5,
      "v": 46
    },
    {
      "midi": 71,
      "hit": false,
      "t": 292800,
      "d": 343.75,
      "v": 62
    },
    {
      "midi": 64,
      "hit": false,
      "t": 292800,
      "d": 556.25,
      "v": 66
    },
    {
      "midi": 50,
      "hit": false,
      "t": 292800,
      "d": 850,
      "v": 50
    },
    {
      "midi": 59,
      "hit": false,
      "t": 292800,
      "d": 868.75,
      "v": 48
    },
    {
      "midi": 68,
      "hit": false,
      "t": 293100,
      "d": 350,
      "v": 84
    },
    {
      "midi": 69,
      "hit": false,
      "t": 293400,
      "d": 250,
      "v": 76
    },
    {
      "midi": 71,
      "hit": false,
      "t": 293700,
      "d": 775,
      "v": 76
    },
    {
      "midi": 49,
      "hit": false,
      "t": 294000,
      "d": 362.5,
      "v": 31
    },
    {
      "midi": 59,
      "hit": false,
      "t": 294000,
      "d": 381.25,
      "v": 31
    },
    {
      "midi": 61,
      "hit": false,
      "t": 294000,
      "d": 468.75,
      "v": 40
    },
    {
      "midi": 65,
      "hit": false,
      "t": 294000,
      "d": 500,
      "v": 68
    },
    {
      "midi": 56,
      "hit": false,
      "t": 294300,
      "d": 181.25,
      "v": 35
    },
    {
      "midi": 65,
      "hit": false,
      "t": 294600,
      "d": 456.25,
      "v": 80
    },
    {
      "midi": 49,
      "hit": false,
      "t": 294600,
      "d": 525,
      "v": 48
    },
    {
      "midi": 61,
      "hit": false,
      "t": 294600,
      "d": 543.75,
      "v": 76
    },
    {
      "midi": 68,
      "hit": false,
      "t": 294600,
      "d": 581.25,
      "v": 64
    },
    {
      "midi": 61,
      "hit": false,
      "t": 295200,
      "d": 481.25,
      "v": 58
    },
    {
      "midi": 51,
      "hit": false,
      "t": 295200,
      "d": 512.5,
      "v": 50
    },
    {
      "midi": 69,
      "hit": false,
      "t": 295200,
      "d": 525,
      "v": 66
    },
    {
      "midi": 53,
      "hit": false,
      "t": 295800,
      "d": 418.75,
      "v": 58
    },
    {
      "midi": 65,
      "hit": false,
      "t": 295800,
      "d": 456.25,
      "v": 80
    },
    {
      "midi": 68,
      "hit": false,
      "t": 295800,
      "d": 462.5,
      "v": 66
    },
    {
      "midi": 71,
      "hit": false,
      "t": 295800,
      "d": 475,
      "v": 68
    },
    {
      "midi": 61,
      "hit": false,
      "t": 295800,
      "d": 506.25,
      "v": 72
    },
    {
      "midi": 69,
      "hit": false,
      "t": 296400,
      "d": 525,
      "v": 64
    },
    {
      "midi": 61,
      "hit": false,
      "t": 296400,
      "d": 531.25,
      "v": 56
    },
    {
      "midi": 73,
      "hit": false,
      "t": 296400,
      "d": 537.5,
      "v": 72
    },
    {
      "midi": 54,
      "hit": false,
      "t": 296400,
      "d": 568.75,
      "v": 42
    },
    {
      "midi": 68,
      "hit": false,
      "t": 297000,
      "d": 343.75,
      "v": 31
    },
    {
      "midi": 73,
      "hit": false,
      "t": 297000,
      "d": 393.75,
      "v": 56
    },
    {
      "midi": 61,
      "hit": false,
      "t": 297000,
      "d": 468.75,
      "v": 35
    },
    {
      "midi": 56,
      "hit": false,
      "t": 297000,
      "d": 518.75,
      "v": 52
    },
    {
      "midi": 57,
      "hit": false,
      "t": 297600,
      "d": 175,
      "v": 58
    },
    {
      "midi": 61,
      "hit": false,
      "t": 297600,
      "d": 181.25,
      "v": 42
    },
    {
      "midi": 71,
      "hit": false,
      "t": 297600,
      "d": 218.75,
      "v": 62
    },
    {
      "midi": 68,
      "hit": false,
      "t": 297600,
      "d": 250,
      "v": 60
    },
    {
      "midi": 57,
      "hit": false,
      "t": 297900,
      "d": 137.5,
      "v": 64
    },
    {
      "midi": 69,
      "hit": false,
      "t": 297900,
      "d": 168.75,
      "v": 66
    },
    {
      "midi": 66,
      "hit": false,
      "t": 297900,
      "d": 175,
      "v": 76
    },
    {
      "midi": 61,
      "hit": false,
      "t": 297900,
      "d": 193.75,
      "v": 54
    },
    {
      "midi": 64,
      "hit": false,
      "t": 298800,
      "d": 618.75,
      "v": 66
    },
    {
      "midi": 61,
      "hit": false,
      "t": 298800,
      "d": 643.75,
      "v": 66
    },
    {
      "midi": 57,
      "hit": false,
      "t": 298800,
      "d": 1087.5,
      "v": 60
    },
    {
      "midi": 47,
      "hit": false,
      "t": 298800,
      "d": 1706.25,
      "v": 50
    },
    {
      "midi": 63,
      "hit": false,
      "t": 299400,
      "d": 325,
      "v": 58
    },
    {
      "midi": 59,
      "hit": false,
      "t": 300000,
      "d": 218.75,
      "v": 29
    },
    {
      "midi": 63,
      "hit": false,
      "t": 300000,
      "d": 256.25,
      "v": 48
    },
    {
      "midi": 68,
      "hit": false,
      "t": 300000,
      "d": 300,
      "v": 58
    },
    {
      "midi": 57,
      "hit": false,
      "t": 300000,
      "d": 431.25,
      "v": 36
    },
    {
      "midi": 56,
      "hit": false,
      "t": 301200,
      "d": 281.25,
      "v": 54
    },
    {
      "midi": 40,
      "hit": false,
      "t": 301200,
      "d": 625,
      "v": 31
    },
    {
      "midi": 52,
      "hit": false,
      "t": 301200,
      "d": 837.5,
      "v": 34
    },
    {
      "midi": 59,
      "hit": false,
      "t": 301500,
      "d": 281.25,
      "v": 68
    },
    {
      "midi": 64,
      "hit": false,
      "t": 301800,
      "d": 631.25,
      "v": 68
    },
    {
      "midi": 56,
      "hit": false,
      "t": 302100,
      "d": 156.25,
      "v": 54
    },
    {
      "midi": 42,
      "hit": false,
      "t": 302400,
      "d": 625,
      "v": 31
    },
    {
      "midi": 57,
      "hit": false,
      "t": 302400,
      "d": 793.75,
      "v": 56
    },
    {
      "midi": 52,
      "hit": false,
      "t": 302400,
      "d": 831.25,
      "v": 28
    },
    {
      "midi": 61,
      "hit": false,
      "t": 302700,
      "d": 656.25,
      "v": 60
    },
    {
      "midi": 68,
      "hit": false,
      "t": 303000,
      "d": 231.25,
      "v": 64
    },
    {
      "midi": 66,
      "hit": false,
      "t": 303300,
      "d": 137.5,
      "v": 56
    },
    {
      "midi": 64,
      "hit": false,
      "t": 303500,
      "d": 31.25,
      "v": 54
    },
    {
      "midi": 54,
      "hit": false,
      "t": 303500,
      "d": 812.5,
      "v": 32
    },
    {
      "midi": 44,
      "hit": false,
      "t": 303500,
      "d": 881.25,
      "v": 56
    },
    {
      "midi": 66,
      "hit": false,
      "t": 303550,
      "d": 50,
      "v": 68
    },
    {
      "midi": 64,
      "hit": false,
      "t": 303600,
      "d": 275,
      "v": 64
    },
    {
      "midi": 59,
      "hit": false,
      "t": 303900,
      "d": 356.25,
      "v": 56
    },
    {
      "midi": 71,
      "hit": false,
      "t": 304200,
      "d": 681.25,
      "v": 80
    },
    {
      "midi": 59,
      "hit": false,
      "t": 304500,
      "d": 125,
      "v": 68
    },
    {
      "midi": 45,
      "hit": false,
      "t": 304800,
      "d": 450,
      "v": 54
    },
    {
      "midi": 57,
      "hit": false,
      "t": 304800,
      "d": 537.5,
      "v": 42
    },
    {
      "midi": 60,
      "hit": false,
      "t": 304800,
      "d": 681.25,
      "v": 56
    },
    {
      "midi": 64,
      "hit": false,
      "t": 305100,
      "d": 606.25,
      "v": 64
    },
    {
      "midi": 71,
      "hit": false,
      "t": 305400,
      "d": 325,
      "v": 58
    },
    {
      "midi": 69,
      "hit": false,
      "t": 305700,
      "d": 387.5,
      "v": 56
    },
    {
      "midi": 52,
      "hit": false,
      "t": 306000,
      "d": 2106.25,
      "v": 44
    },
    {
      "midi": 59,
      "hit": false,
      "t": 306050,
      "d": 2006.25,
      "v": 42
    },
    {
      "midi": 64,
      "hit": false,
      "t": 306100,
      "d": 1800,
      "v": 56
    },
    {
      "midi": 68,
      "hit": false,
      "t": 306150,
      "d": 562.5,
      "v": 56
    },
    {
      "midi": 71,
      "hit": false,
      "t": 306200,
      "d": 668.75,
      "v": 56
    },
    {
      "midi": 76,
      "hit": false,
      "t": 306250,
      "d": 662.5,
      "v": 54
    },
    {
      "midi": 80,
      "hit": false,
      "t": 306300,
      "d": 593.75,
      "v": 62
    },
    {
      "midi": 80,
      "hit": false,
      "t": 307650,
      "d": 681.25,
      "v": 40
    },
    {
      "midi": 83,
      "hit": false,
      "t": 307700,
      "d": 593.75,
      "v": 52
    },
    {
      "midi": 88,
      "hit": false,
      "t": 307750,
      "d": 462.5,
      "v": 42
    },
    {
      "midi": 92,
      "hit": false,
      "t": 307800,
      "d": 568.75,
      "v": 66
    }
  ]
}