{
  "jsonPath": "Soundtracks/Movie Tunes/Terry Gilkyson/the-bare-necessities.json",
  "path": "Soundtracks\\Movie Tunes\\Terry Gilkyson\\The Bare Necessities.mid",
  "name": "The Bare Necessities",
  "difficulty": "Advanced",
  "bpm": 100,
  "notes": [
    {
      "midi": 60,
      "hit": false,
      "t": 600,
      "d": 600,
      "v": 69
    },
    {
      "midi": 62,
      "hit": false,
      "t": 1200,
      "d": 600,
      "v": 80
    },
    {
      "midi": 65,
      "hit": false,
      "t": 1800,
      "d": 600,
      "v": 88
    },
    {
      "midi": 53,
      "hit": false,
      "t": 2400,
      "d": 1200,
      "v": 71
    },
    {
      "midi": 69,
      "hit": false,
      "t": 3000,
      "d": 1200,
      "v": 68
    },
    {
      "midi": 48,
      "hit": false,
      "t": 3600,
      "d": 1200,
      "v": 72
    },
    {
      "midi": 68,
      "hit": false,
      "t": 4200,
      "d": 600,
      "v": 71
    },
    {
      "midi": 69,
      "hit": false,
      "t": 4800,
      "d": 600,
      "v": 78
    },
    {
      "midi": 53,
      "hit": false,
      "t": 4800,
      "d": 1200,
      "v": 81
    },
    {
      "midi": 67,
      "hit": false,
      "t": 5400,
      "d": 600,
      "v": 70
    },
    {
      "midi": 65,
      "hit": false,
      "t": 6000,
      "d": 600,
      "v": 72
    },
    {
      "midi": 57,
      "hit": false,
      "t": 6000,
      "d": 1200,
      "v": 81
    },
    {
      "midi": 65,
      "hit": false,
      "t": 6600,
      "d": 600,
      "v": 76
    },
    {
      "midi": 67,
      "hit": false,
      "t": 7200,
      "d": 600,
      "v": 83
    },
    {
      "midi": 58,
      "hit": false,
      "t": 7200,
      "d": 1200,
      "v": 80
    },
    {
      "midi": 65,
      "hit": false,
      "t": 7800,
      "d": 600,
      "v": 73
    },
    {
      "midi": 67,
      "hit": false,
      "t": 8400,
      "d": 600,
      "v": 80
    },
    {
      "midi": 53,
      "hit": false,
      "t": 8400,
      "d": 1200,
      "v": 72
    },
    {
      "midi": 65,
      "hit": false,
      "t": 9000,
      "d": 600,
      "v": 70
    },
    {
      "midi": 67,
      "hit": false,
      "t": 9600,
      "d": 600,
      "v": 79
    },
    {
      "midi": 58,
      "hit": false,
      "t": 9600,
      "d": 1800,
      "v": 81
    },
    {
      "midi": 65,
      "hit": false,
      "t": 10200,
      "d": 300,
      "v": 70
    },
    {
      "midi": 62,
      "hit": false,
      "t": 10500,
      "d": 900,
      "v": 66
    },
    {
      "midi": 60,
      "hit": false,
      "t": 11400,
      "d": 600,
      "v": 69
    },
    {
      "midi": 55,
      "hit": false,
      "t": 11400,
      "d": 600,
      "v": 70
    },
    {
      "midi": 65,
      "hit": false,
      "t": 12000,
      "d": 900,
      "v": 80
    },
    {
      "midi": 57,
      "hit": false,
      "t": 12000,
      "d": 600,
      "v": 77
    },
    {
      "midi": 55,
      "hit": false,
      "t": 12600,
      "d": 600,
      "v": 73
    },
    {
      "midi": 60,
      "hit": false,
      "t": 12900,
      "d": 300,
      "v": 67
    },
    {
      "midi": 65,
      "hit": false,
      "t": 13200,
      "d": 600,
      "v": 86
    },
    {
      "midi": 53,
      "hit": false,
      "t": 13200,
      "d": 600,
      "v": 80
    },
    {
      "midi": 69,
      "hit": false,
      "t": 13800,
      "d": 600,
      "v": 83
    },
    {
      "midi": 74,
      "hit": false,
      "t": 14400,
      "d": 600,
      "v": 89
    },
    {
      "midi": 54,
      "hit": false,
      "t": 14400,
      "d": 1200,
      "v": 71
    },
    {
      "midi": 72,
      "hit": false,
      "t": 15000,
      "d": 600,
      "v": 74
    },
    {
      "midi": 70,
      "hit": false,
      "t": 15600,
      "d": 600,
      "v": 74
    },
    {
      "midi": 50,
      "hit": false,
      "t": 15600,
      "d": 1200,
      "v": 73
    },
    {
      "midi": 69,
      "hit": false,
      "t": 16200,
      "d": 600,
      "v": 71
    },
    {
      "midi": 67,
      "hit": false,
      "t": 16800,
      "d": 1800,
      "v": 71
    },
    {
      "midi": 55,
      "hit": false,
      "t": 16800,
      "d": 600,
      "v": 78
    },
    {
      "midi": 53,
      "hit": false,
      "t": 17400,
      "d": 600,
      "v": 75
    },
    {
      "midi": 52,
      "hit": false,
      "t": 18000,
      "d": 600,
      "v": 73
    },
    {
      "midi": 50,
      "hit": false,
      "t": 18600,
      "d": 600,
      "v": 73
    },
    {
      "midi": 48,
      "hit": false,
      "t": 19200,
      "d": 600,
      "v": 72
    },
    {
      "midi": 72,
      "hit": false,
      "t": 19800,
      "d": 600,
      "v": 68
    },
    {
      "midi": 74,
      "hit": false,
      "t": 20400,
      "d": 600,
      "v": 80
    },
    {
      "midi": 48,
      "hit": false,
      "t": 20400,
      "d": 1200,
      "v": 71
    },
    {
      "midi": 72,
      "hit": false,
      "t": 21000,
      "d": 600,
      "v": 71
    },
    {
      "midi": 53,
      "hit": false,
      "t": 21600,
      "d": 1200,
      "v": 80
    },
    {
      "midi": 74,
      "hit": false,
      "t": 22200,
      "d": 1200,
      "v": 68
    },
    {
      "midi": 48,
      "hit": false,
      "t": 22800,
      "d": 1200,
      "v": 76
    },
    {
      "midi": 72,
      "hit": false,
      "t": 23400,
      "d": 600,
      "v": 68
    },
    {
      "midi": 74,
      "hit": false,
      "t": 24000,
      "d": 600,
      "v": 76
    },
    {
      "midi": 53,
      "hit": false,
      "t": 24000,
      "d": 1800,
      "v": 81
    },
    {
      "midi": 72,
      "hit": false,
      "t": 24600,
      "d": 300,
      "v": 68
    },
    {
      "midi": 69,
      "hit": false,
      "t": 24900,
      "d": 900,
      "v": 71
    },
    {
      "midi": 67,
      "hit": false,
      "t": 25800,
      "d": 600,
      "v": 69
    },
    {
      "midi": 57,
      "hit": false,
      "t": 25800,
      "d": 600,
      "v": 82
    },
    {
      "midi": 67,
      "hit": false,
      "t": 26400,
      "d": 600,
      "v": 74
    },
    {
      "midi": 58,
      "hit": false,
      "t": 26400,
      "d": 1200,
      "v": 78
    },
    {
      "midi": 65,
      "hit": false,
      "t": 27000,
      "d": 600,
      "v": 70
    },
    {
      "midi": 67,
      "hit": false,
      "t": 27600,
      "d": 600,
      "v": 83
    },
    {
      "midi": 53,
      "hit": false,
      "t": 27600,
      "d": 1200,
      "v": 71
    },
    {
      "midi": 65,
      "hit": false,
      "t": 28200,
      "d": 600,
      "v": 72
    },
    {
      "midi": 74,
      "hit": false,
      "t": 28800,
      "d": 600,
      "v": 95
    },
    {
      "midi": 58,
      "hit": false,
      "t": 28800,
      "d": 1800,
      "v": 82
    },
    {
      "midi": 65,
      "hit": false,
      "t": 29400,
      "d": 300,
      "v": 65
    },
    {
      "midi": 65,
      "hit": false,
      "t": 29700,
      "d": 900,
      "v": 71
    },
    {
      "midi": 67,
      "hit": false,
      "t": 30600,
      "d": 600,
      "v": 80
    },
    {
      "midi": 58,
      "hit": false,
      "t": 30600,
      "d": 600,
      "v": 77
    },
    {
      "midi": 69,
      "hit": false,
      "t": 31200,
      "d": 600,
      "v": 78
    },
    {
      "midi": 60,
      "hit": false,
      "t": 31200,
      "d": 1200,
      "v": 89
    },
    {
      "midi": 72,
      "hit": false,
      "t": 31800,
      "d": 600,
      "v": 85
    },
    {
      "midi": 69,
      "hit": false,
      "t": 32400,
      "d": 600,
      "v": 68
    },
    {
      "midi": 50,
      "hit": false,
      "t": 32400,
      "d": 600,
      "v": 67
    },
    {
      "midi": 72,
      "hit": false,
      "t": 33000,
      "d": 600,
      "v": 82
    },
    {
      "midi": 54,
      "hit": false,
      "t": 33000,
      "d": 600,
      "v": 81
    },
    {
      "midi": 69,
      "hit": false,
      "t": 33600,
      "d": 600,
      "v": 68
    },
    {
      "midi": 55,
      "hit": false,
      "t": 33600,
      "d": 1800,
      "v": 79
    },
    {
      "midi": 65,
      "hit": false,
      "t": 34200,
      "d": 300,
      "v": 71
    },
    {
      "midi": 62,
      "hit": false,
      "t": 34500,
      "d": 900,
      "v": 72
    },
    {
      "midi": 60,
      "hit": false,
      "t": 35400,
      "d": 600,
      "v": 72
    },
    {
      "midi": 52,
      "hit": false,
      "t": 35400,
      "d": 600,
      "v": 73
    },
    {
      "midi": 65,
      "hit": false,
      "t": 36000,
      "d": 2400,
      "v": 87
    },
    {
      "midi": 53,
      "hit": false,
      "t": 36000,
      "d": 600,
      "v": 77
    },
    {
      "midi": 57,
      "hit": false,
      "t": 36600,
      "d": 600,
      "v": 86
    },
    {
      "midi": 55,
      "hit": false,
      "t": 37200,
      "d": 300,
      "v": 72
    },
    {
      "midi": 55,
      "hit": false,
      "t": 37500,
      "d": 300,
      "v": 75
    },
    {
      "midi": 57,
      "hit": false,
      "t": 37800,
      "d": 600,
      "v": 78
    },
    {
      "midi": 53,
      "hit": false,
      "t": 38400,
      "d": 600,
      "v": 72
    },
    {
      "midi": 65,
      "hit": false,
      "t": 39000,
      "d": 300,
      "v": 71
    },
    {
      "midi": 64,
      "hit": false,
      "t": 39300,
      "d": 600,
      "v": 72
    },
    {
      "midi": 64,
      "hit": false,
      "t": 39900,
      "d": 300,
      "v": 75
    },
    {
      "midi": 62,
      "hit": false,
      "t": 40200,
      "d": 600,
      "v": 74
    },
    {
      "midi": 60,
      "hit": false,
      "t": 40800,
      "d": 1200,
      "v": 72
    },
    {
      "midi": 52,
      "hit": false,
      "t": 40800,
      "d": 600,
      "v": 68
    },
    {
      "midi": 55,
      "hit": false,
      "t": 41400,
      "d": 600,
      "v": 77
    },
    {
      "midi": 60,
      "hit": false,
      "t": 42000,
      "d": 1800,
      "v": 73
    },
    {
      "midi": 52,
      "hit": false,
      "t": 42000,
      "d": 600,
      "v": 69
    },
    {
      "midi": 50,
      "hit": false,
      "t": 42600,
      "d": 600,
      "v": 68
    },
    {
      "midi": 48,
      "hit": false,
      "t": 43200,
      "d": 600,
      "v": 73
    },
    {
      "midi": 67,
      "hit": false,
      "t": 43800,
      "d": 600,
      "v": 90
    },
    {
      "midi": 58,
      "hit": false,
      "t": 43800,
      "d": 1200,
      "v": 85
    },
    {
      "midi": 67,
      "hit": false,
      "t": 44400,
      "d": 300,
      "v": 76
    },
    {
      "midi": 65,
      "hit": false,
      "t": 44700,
      "d": 300,
      "v": 73
    },
    {
      "midi": 64,
      "hit": false,
      "t": 45000,
      "d": 600,
      "v": 71
    },
    {
      "midi": 58,
      "hit": false,
      "t": 45000,
      "d": 600,
      "v": 80
    },
    {
      "midi": 65,
      "hit": false,
      "t": 45600,
      "d": 1800,
      "v": 81
    },
    {
      "midi": 57,
      "hit": false,
      "t": 45600,
      "d": 600,
      "v": 74
    },
    {
      "midi": 60,
      "hit": false,
      "t": 46200,
      "d": 600,
      "v": 82
    },
    {
      "midi": 57,
      "hit": false,
      "t": 46800,
      "d": 600,
      "v": 74
    },
    {
      "midi": 55,
      "hit": false,
      "t": 47400,
      "d": 600,
      "v": 75
    },
    {
      "midi": 53,
      "hit": false,
      "t": 48000,
      "d": 600,
      "v": 75
    },
    {
      "midi": 65,
      "hit": false,
      "t": 48600,
      "d": 300,
      "v": 73
    },
    {
      "midi": 64,
      "hit": false,
      "t": 48900,
      "d": 600,
      "v": 74
    },
    {
      "midi": 64,
      "hit": false,
      "t": 49500,
      "d": 300,
      "v": 76
    },
    {
      "midi": 62,
      "hit": false,
      "t": 49800,
      "d": 600,
      "v": 68
    },
    {
      "midi": 60,
      "hit": false,
      "t": 50400,
      "d": 1200,
      "v": 70
    },
    {
      "midi": 52,
      "hit": false,
      "t": 50400,
      "d": 600,
      "v": 69
    },
    {
      "midi": 55,
      "hit": false,
      "t": 51000,
      "d": 600,
      "v": 79
    },
    {
      "midi": 67,
      "hit": false,
      "t": 51600,
      "d": 1800,
      "v": 82
    },
    {
      "midi": 52,
      "hit": false,
      "t": 51600,
      "d": 600,
      "v": 68
    },
    {
      "midi": 50,
      "hit": false,
      "t": 52200,
      "d": 600,
      "v": 76
    },
    {
      "midi": 48,
      "hit": false,
      "t": 52800,
      "d": 600,
      "v": 76
    },
    {
      "midi": 67,
      "hit": false,
      "t": 53400,
      "d": 600,
      "v": 74
    },
    {
      "midi": 58,
      "hit": false,
      "t": 53400,
      "d": 1200,
      "v": 82
    },
    {
      "midi": 65,
      "hit": false,
      "t": 54000,
      "d": 300,
      "v": 74
    },
    {
      "midi": 65,
      "hit": false,
      "t": 54300,
      "d": 300,
      "v": 78
    },
    {
      "midi": 67,
      "hit": false,
      "t": 54600,
      "d": 600,
      "v": 82
    },
    {
      "midi": 58,
      "hit": false,
      "t": 54600,
      "d": 600,
      "v": 74
    },
    {
      "midi": 69,
      "hit": false,
      "t": 55200,
      "d": 1800,
      "v": 77
    },
    {
      "midi": 53,
      "hit": false,
      "t": 55200,
      "d": 600,
      "v": 72
    },
    {
      "midi": 60,
      "hit": false,
      "t": 55800,
      "d": 600,
      "v": 84
    },
    {
      "midi": 57,
      "hit": false,
      "t": 56400,
      "d": 600,
      "v": 73
    },
    {
      "midi": 55,
      "hit": false,
      "t": 57000,
      "d": 600,
      "v": 79
    },
    {
      "midi": 53,
      "hit": false,
      "t": 57600,
      "d": 600,
      "v": 73
    },
    {
      "midi": 69,
      "hit": false,
      "t": 58200,
      "d": 600,
      "v": 65
    },
    {
      "midi": 70,
      "hit": false,
      "t": 58800,
      "d": 600,
      "v": 85
    },
    {
      "midi": 72,
      "hit": false,
      "t": 59400,
      "d": 600,
      "v": 80
    },
    {
      "midi": 74,
      "hit": false,
      "t": 60000,
      "d": 600,
      "v": 81
    },
    {
      "midi": 46,
      "hit": false,
      "t": 60000,
      "d": 1200,
      "v": 64
    },
    {
      "midi": 74,
      "hit": false,
      "t": 60600,
      "d": 600,
      "v": 76
    },
    {
      "midi": 74,
      "hit": false,
      "t": 61200,
      "d": 600,
      "v": 81
    },
    {
      "midi": 53,
      "hit": false,
      "t": 61200,
      "d": 1200,
      "v": 83
    },
    {
      "midi": 70,
      "hit": false,
      "t": 61800,
      "d": 600,
      "v": 69
    },
    {
      "midi": 69,
      "hit": false,
      "t": 62400,
      "d": 600,
      "v": 68
    },
    {
      "midi": 46,
      "hit": false,
      "t": 62400,
      "d": 1200,
      "v": 71
    },
    {
      "midi": 67,
      "hit": false,
      "t": 63000,
      "d": 300,
      "v": 70
    },
    {
      "midi": 67,
      "hit": false,
      "t": 63300,
      "d": 300,
      "v": 78
    },
    {
      "midi": 69,
      "hit": false,
      "t": 63600,
      "d": 600,
      "v": 83
    },
    {
      "midi": 53,
      "hit": false,
      "t": 63600,
      "d": 1200,
      "v": 81
    },
    {
      "midi": 70,
      "hit": false,
      "t": 64200,
      "d": 600,
      "v": 79
    },
    {
      "midi": 72,
      "hit": false,
      "t": 64800,
      "d": 600,
      "v": 83
    },
    {
      "midi": 57,
      "hit": false,
      "t": 64800,
      "d": 600,
      "v": 82
    },
    {
      "midi": 74,
      "hit": false,
      "t": 65400,
      "d": 300,
      "v": 85
    },
    {
      "midi": 58,
      "hit": false,
      "t": 65400,
      "d": 600,
      "v": 80
    },
    {
      "midi": 74,
      "hit": false,
      "t": 65700,
      "d": 300,
      "v": 75
    },
    {
      "midi": 72,
      "hit": false,
      "t": 66000,
      "d": 600,
      "v": 72
    },
    {
      "midi": 57,
      "hit": false,
      "t": 66000,
      "d": 600,
      "v": 72
    },
    {
      "midi": 69,
      "hit": false,
      "t": 66600,
      "d": 600,
      "v": 67
    },
    {
      "midi": 53,
      "hit": false,
      "t": 66600,
      "d": 600,
      "v": 72
    },
    {
      "midi": 67,
      "hit": false,
      "t": 67200,
      "d": 1800,
      "v": 67
    },
    {
      "midi": 55,
      "hit": false,
      "t": 67200,
      "d": 600,
      "v": 77
    },
    {
      "midi": 53,
      "hit": false,
      "t": 67800,
      "d": 600,
      "v": 72
    },
    {
      "midi": 55,
      "hit": false,
      "t": 68400,
      "d": 600,
      "v": 84
    },
    {
      "midi": 65,
      "hit": false,
      "t": 69000,
      "d": 600,
      "v": 73
    },
    {
      "midi": 69,
      "hit": false,
      "t": 69600,
      "d": 600,
      "v": 83
    },
    {
      "midi": 50,
      "hit": false,
      "t": 69600,
      "d": 2400,
      "v": 67
    },
    {
      "midi": 60,
      "hit": false,
      "t": 69600,
      "d": 2400,
      "v": 67
    },
    {
      "midi": 62,
      "hit": false,
      "t": 70200,
      "d": 600,
      "v": 64
    },
    {
      "midi": 62,
      "hit": false,
      "t": 70800,
      "d": 300,
      "v": 76
    },
    {
      "midi": 62,
      "hit": false,
      "t": 71100,
      "d": 300,
      "v": 75
    },
    {
      "midi": 62,
      "hit": false,
      "t": 71400,
      "d": 600,
      "v": 73
    },
    {
      "midi": 69,
      "hit": false,
      "t": 72000,
      "d": 600,
      "v": 87
    },
    {
      "midi": 54,
      "hit": false,
      "t": 72000,
      "d": 2400,
      "v": 76
    },
    {
      "midi": 60,
      "hit": false,
      "t": 72000,
      "d": 2400,
      "v": 76
    },
    {
      "midi": 62,
      "hit": false,
      "t": 72600,
      "d": 600,
      "v": 65
    },
    {
      "midi": 62,
      "hit": false,
      "t": 73200,
      "d": 600,
      "v": 79
    },
    {
      "midi": 62,
      "hit": false,
      "t": 73800,
      "d": 300,
      "v": 75
    },
    {
      "midi": 62,
      "hit": false,
      "t": 74100,
      "d": 300,
      "v": 75
    },
    {
      "midi": 70,
      "hit": false,
      "t": 74400,
      "d": 300,
      "v": 92
    },
    {
      "midi": 55,
      "hit": false,
      "t": 74400,
      "d": 1200,
      "v": 72
    },
    {
      "midi": 70,
      "hit": false,
      "t": 74700,
      "d": 300,
      "v": 81
    },
    {
      "midi": 70,
      "hit": false,
      "t": 75000,
      "d": 600,
      "v": 75
    },
    {
      "midi": 50,
      "hit": false,
      "t": 75600,
      "d": 1200,
      "v": 67
    },
    {
      "midi": 69,
      "hit": false,
      "t": 76200,
      "d": 300,
      "v": 71
    },
    {
      "midi": 69,
      "hit": false,
      "t": 76500,
      "d": 300,
      "v": 78
    },
    {
      "midi": 67,
      "hit": false,
      "t": 76800,
      "d": 300,
      "v": 75
    },
    {
      "midi": 55,
      "hit": false,
      "t": 76800,
      "d": 900,
      "v": 82
    },
    {
      "midi": 65,
      "hit": false,
      "t": 77100,
      "d": 600,
      "v": 69
    },
    {
      "midi": 64,
      "hit": false,
      "t": 77700,
      "d": 900,
      "v": 72
    },
    {
      "midi": 48,
      "hit": false,
      "t": 77700,
      "d": 900,
      "v": 70
    },
    {
      "midi": 60,
      "hit": false,
      "t": 78600,
      "d": 300,
      "v": 66
    },
    {
      "midi": 60,
      "hit": false,
      "t": 78900,
      "d": 300,
      "v": 79
    },
    {
      "midi": 65,
      "hit": false,
      "t": 79200,
      "d": 900,
      "v": 91
    },
    {
      "midi": 53,
      "hit": false,
      "t": 79200,
      "d": 1200,
      "v": 73
    },
    {
      "midi": 65,
      "hit": false,
      "t": 80100,
      "d": 300,
      "v": 78
    },
    {
      "midi": 69,
      "hit": false,
      "t": 80400,
      "d": 600,
      "v": 83
    },
    {
      "midi": 48,
      "hit": false,
      "t": 80400,
      "d": 1200,
      "v": 72
    },
    {
      "midi": 72,
      "hit": false,
      "t": 81000,
      "d": 600,
      "v": 83
    },
    {
      "midi": 74,
      "hit": false,
      "t": 81600,
      "d": 2400,
      "v": 79
    },
    {
      "midi": 50,
      "hit": false,
      "t": 81600,
      "d": 600,
      "v": 77
    },
    {
      "midi": 57,
      "hit": false,
      "t": 82200,
      "d": 600,
      "v": 81
    },
    {
      "midi": 54,
      "hit": false,
      "t": 82800,
      "d": 600,
      "v": 78
    },
    {
      "midi": 52,
      "hit": false,
      "t": 83400,
      "d": 600,
      "v": 73
    },
    {
      "midi": 50,
      "hit": false,
      "t": 84000,
      "d": 600,
      "v": 75
    },
    {
      "midi": 69,
      "hit": false,
      "t": 84600,
      "d": 600,
      "v": 72
    },
    {
      "midi": 60,
      "hit": false,
      "t": 84600,
      "d": 600,
      "v": 99
    },
    {
      "midi": 70,
      "hit": false,
      "t": 85200,
      "d": 600,
      "v": 77
    },
    {
      "midi": 58,
      "hit": false,
      "t": 85200,
      "d": 600,
      "v": 73
    },
    {
      "midi": 72,
      "hit": false,
      "t": 85800,
      "d": 600,
      "v": 83
    },
    {
      "midi": 57,
      "hit": false,
      "t": 85800,
      "d": 600,
      "v": 73
    },
    {
      "midi": 74,
      "hit": false,
      "t": 86400,
      "d": 300,
      "v": 84
    },
    {
      "midi": 55,
      "hit": false,
      "t": 86400,
      "d": 1200,
      "v": 79
    },
    {
      "midi": 58,
      "hit": false,
      "t": 86400,
      "d": 1200,
      "v": 79
    },
    {
      "midi": 74,
      "hit": false,
      "t": 86700,
      "d": 300,
      "v": 82
    },
    {
      "midi": 74,
      "hit": false,
      "t": 87000,
      "d": 1200,
      "v": 75
    },
    {
      "midi": 55,
      "hit": false,
      "t": 87600,
      "d": 1200,
      "v": 73
    },
    {
      "midi": 70,
      "hit": false,
      "t": 88200,
      "d": 600,
      "v": 68
    },
    {
      "midi": 69,
      "hit": false,
      "t": 88800,
      "d": 600,
      "v": 67
    },
    {
      "midi": 48,
      "hit": false,
      "t": 88800,
      "d": 1200,
      "v": 71
    },
    {
      "midi": 67,
      "hit": false,
      "t": 89400,
      "d": 600,
      "v": 70
    },
    {
      "midi": 65,
      "hit": false,
      "t": 90000,
      "d": 600,
      "v": 74
    },
    {
      "midi": 55,
      "hit": false,
      "t": 90000,
      "d": 1200,
      "v": 80
    },
    {
      "midi": 64,
      "hit": false,
      "t": 90600,
      "d": 600,
      "v": 70
    },
    {
      "midi": 65,
      "hit": false,
      "t": 91200,
      "d": 2400,
      "v": 80
    },
    {
      "midi": 53,
      "hit": false,
      "t": 91200,
      "d": 1200,
      "v": 81
    },
    {
      "midi": 57,
      "hit": false,
      "t": 91200,
      "d": 1200,
      "v": 81
    },
    {
      "midi": 50,
      "hit": false,
      "t": 92400,
      "d": 1200,
      "v": 70
    },
    {
      "midi": 55,
      "hit": false,
      "t": 93600,
      "d": 600,
      "v": 81
    },
    {
      "midi": 64,
      "hit": false,
      "t": 94200,
      "d": 600,
      "v": 70
    },
    {
      "midi": 62,
      "hit": false,
      "t": 94800,
      "d": 600,
      "v": 74
    },
    {
      "midi": 48,
      "hit": false,
      "t": 94800,
      "d": 1200,
      "v": 66
    },
    {
      "midi": 64,
      "hit": false,
      "t": 95400,
      "d": 600,
      "v": 84
    },
    {
      "midi": 65,
      "hit": false,
      "t": 96000,
      "d": 2400,
      "v": 77
    },
    {
      "midi": 53,
      "hit": false,
      "t": 96000,
      "d": 600,
      "v": 83
    },
    {
      "midi": 57,
      "hit": false,
      "t": 96000,
      "d": 600,
      "v": 83
    },
    {
      "midi": 48,
      "hit": false,
      "t": 96600,
      "d": 600,
      "v": 74
    },
    {
      "midi": 50,
      "hit": false,
      "t": 97200,
      "d": 600,
      "v": 75
    },
    {
      "midi": 52,
      "hit": false,
      "t": 97800,
      "d": 600,
      "v": 78
    },
    {
      "midi": 53,
      "hit": false,
      "t": 98400,
      "d": 600,
      "v": 82
    },
    {
      "midi": 60,
      "hit": false,
      "t": 99000,
      "d": 600,
      "v": 67
    },
    {
      "midi": 62,
      "hit": false,
      "t": 99600,
      "d": 600,
      "v": 81
    },
    {
      "midi": 65,
      "hit": false,
      "t": 100200,
      "d": 600,
      "v": 81
    },
    {
      "midi": 65,
      "hit": false,
      "t": 100800,
      "d": 2400,
      "v": 76
    },
    {
      "midi": 53,
      "hit": false,
      "t": 100800,
      "d": 600,
      "v": 67
    },
    {
      "midi": 57,
      "hit": false,
      "t": 100800,
      "d": 600,
      "v": 67
    },
    {
      "midi": 48,
      "hit": false,
      "t": 101400,
      "d": 600,
      "v": 64
    },
    {
      "midi": 50,
      "hit": false,
      "t": 102000,
      "d": 600,
      "v": 79
    },
    {
      "midi": 52,
      "hit": false,
      "t": 102600,
      "d": 600,
      "v": 75
    },
    {
      "midi": 53,
      "hit": false,
      "t": 103200,
      "d": 600,
      "v": 76
    },
    {
      "midi": 48,
      "hit": false,
      "t": 103800,
      "d": 600,
      "v": 73
    },
    {
      "midi": 72,
      "hit": false,
      "t": 104400,
      "d": 600,
      "v": 71
    },
    {
      "midi": 74,
      "hit": false,
      "t": 104400,
      "d": 600,
      "v": 71
    },
    {
      "midi": 77,
      "hit": false,
      "t": 104400,
      "d": 600,
      "v": 71
    },
    {
      "midi": 41,
      "hit": false,
      "t": 104400,
      "d": 600,
      "v": 71
    }
  ]
}