{
  "jsonPath": "Rock/Australian Hardcore/Worlds Apart/someone-like-you.json",
  "path": "Rock\\Australian Hardcore\\Worlds Apart\\Someone Like You.mid",
  "name": "Someone Like You",
  "difficulty": "Advanced",
  "bpm": 94.00204297773405,
  "notes": [
    {
      "midi": 55,
      "hit": false,
      "t": 4867.338,
      "d": 401.3863802083333,
      "v": 1
    },
    {
      "midi": 59,
      "hit": false,
      "t": 4867.338,
      "d": 401.3863802083333,
      "v": 1
    },
    {
      "midi": 62,
      "hit": false,
      "t": 4867.338,
      "d": 401.3863802083333,
      "v": 1
    },
    {
      "midi": 67,
      "hit": false,
      "t": 4867.338,
      "d": 401.3863802083333,
      "v": 1
    },
    {
      "midi": 47,
      "hit": false,
      "t": 4867.338,
      "d": 1227.3972994791666,
      "v": 106
    },
    {
      "midi": 59,
      "hit": false,
      "t": 4909.589197916666,
      "d": 1172.4707421875,
      "v": 96
    },
    {
      "midi": 62,
      "hit": false,
      "t": 4909.589197916666,
      "d": 1223.1721796875,
      "v": 91
    },
    {
      "midi": 55,
      "hit": false,
      "t": 5272.9495,
      "d": 401.3863802083333,
      "v": 1
    },
    {
      "midi": 59,
      "hit": false,
      "t": 5272.9495,
      "d": 401.3863802083333,
      "v": 1
    },
    {
      "midi": 64,
      "hit": false,
      "t": 5272.9495,
      "d": 401.3863802083333,
      "v": 1
    },
    {
      "midi": 67,
      "hit": false,
      "t": 5272.9495,
      "d": 401.3863802083333,
      "v": 1
    },
    {
      "midi": 55,
      "hit": false,
      "t": 5678.561,
      "d": 401.3863802083333,
      "v": 1
    },
    {
      "midi": 59,
      "hit": false,
      "t": 5678.561,
      "d": 401.3863802083333,
      "v": 1
    },
    {
      "midi": 67,
      "hit": false,
      "t": 5678.561,
      "d": 401.3863802083333,
      "v": 1
    },
    {
      "midi": 65,
      "hit": false,
      "t": 5678.561,
      "d": 405.6115,
      "v": 1
    },
    {
      "midi": 55,
      "hit": false,
      "t": 6084.1725,
      "d": 2023.8323802083332,
      "v": 1
    },
    {
      "midi": 60,
      "hit": false,
      "t": 6084.1725,
      "d": 2023.8323802083332,
      "v": 1
    },
    {
      "midi": 64,
      "hit": false,
      "t": 6084.1725,
      "d": 2023.8323802083332,
      "v": 1
    },
    {
      "midi": 67,
      "hit": false,
      "t": 6084.1725,
      "d": 2023.8323802083332,
      "v": 1
    },
    {
      "midi": 67,
      "hit": false,
      "t": 6084.1725,
      "d": 42.25119791666657,
      "v": 96
    },
    {
      "midi": 64,
      "hit": false,
      "t": 6084.1725,
      "d": 1755.5372734374996,
      "v": 91
    },
    {
      "midi": 60,
      "hit": false,
      "t": 6084.1725,
      "d": 1797.7884713541662,
      "v": 86
    },
    {
      "midi": 48,
      "hit": false,
      "t": 6084.1725,
      "d": 1907.6415859374993,
      "v": 101
    },
    {
      "midi": 67,
      "hit": false,
      "t": 8112.229999999999,
      "d": 1153.4577031249983,
      "v": 96
    },
    {
      "midi": 53,
      "hit": false,
      "t": 8112.23,
      "d": 1212.6093802083342,
      "v": 1
    },
    {
      "midi": 57,
      "hit": false,
      "t": 8112.23,
      "d": 1212.6093802083342,
      "v": 1
    },
    {
      "midi": 60,
      "hit": false,
      "t": 8112.23,
      "d": 1212.6093802083342,
      "v": 1
    },
    {
      "midi": 67,
      "hit": false,
      "t": 8112.23,
      "d": 1212.6093802083342,
      "v": 1
    },
    {
      "midi": 60,
      "hit": false,
      "t": 8114.342559895832,
      "d": 804.8853203124991,
      "v": 91
    },
    {
      "midi": 57,
      "hit": false,
      "t": 8118.567679687499,
      "d": 680.2442864583327,
      "v": 96
    },
    {
      "midi": 41,
      "hit": false,
      "t": 8137.580718749999,
      "d": 1195.7089010416648,
      "v": 106
    },
    {
      "midi": 59,
      "hit": false,
      "t": 8923.452999999998,
      "d": 314.77142447916594,
      "v": 82
    },
    {
      "midi": 62,
      "hit": false,
      "t": 8923.452999999998,
      "d": 331.6719036458326,
      "v": 91
    },
    {
      "midi": 59,
      "hit": false,
      "t": 9329.064499999997,
      "d": 1920.3169453124992,
      "v": 74
    },
    {
      "midi": 67,
      "hit": false,
      "t": 9329.064499999997,
      "d": 1930.8797447916659,
      "v": 96
    },
    {
      "midi": 62,
      "hit": false,
      "t": 9329.064499999997,
      "d": 1939.3299843749992,
      "v": 96
    },
    {
      "midi": 55,
      "hit": false,
      "t": 9329.0645,
      "d": 2429.443880208333,
      "v": 1
    },
    {
      "midi": 59,
      "hit": false,
      "t": 9329.0645,
      "d": 2429.443880208333,
      "v": 1
    },
    {
      "midi": 62,
      "hit": false,
      "t": 9329.0645,
      "d": 2429.443880208333,
      "v": 1
    },
    {
      "midi": 67,
      "hit": false,
      "t": 9329.0645,
      "d": 2429.443880208333,
      "v": 1
    },
    {
      "midi": 43,
      "hit": false,
      "t": 9350.19009895833,
      "d": 1966.7932630208325,
      "v": 91
    },
    {
      "midi": 47,
      "hit": false,
      "t": 11357.121999999996,
      "d": 1227.3972994791657,
      "v": 106
    },
    {
      "midi": 59,
      "hit": false,
      "t": 11399.373197916662,
      "d": 1172.4707421874991,
      "v": 96
    },
    {
      "midi": 62,
      "hit": false,
      "t": 11399.373197916662,
      "d": 1223.172179687499,
      "v": 91
    },
    {
      "midi": 55,
      "hit": false,
      "t": 11762.7335,
      "d": 401.38638020833423,
      "v": 1
    },
    {
      "midi": 59,
      "hit": false,
      "t": 11762.7335,
      "d": 401.38638020833423,
      "v": 1
    },
    {
      "midi": 64,
      "hit": false,
      "t": 11762.7335,
      "d": 401.38638020833423,
      "v": 1
    },
    {
      "midi": 67,
      "hit": false,
      "t": 11762.7335,
      "d": 401.38638020833423,
      "v": 1
    },
    {
      "midi": 55,
      "hit": false,
      "t": 12168.345000000001,
      "d": 401.3863802083324,
      "v": 1
    },
    {
      "midi": 59,
      "hit": false,
      "t": 12168.345000000001,
      "d": 401.3863802083324,
      "v": 1
    },
    {
      "midi": 65,
      "hit": false,
      "t": 12168.345000000001,
      "d": 401.3863802083324,
      "v": 1
    },
    {
      "midi": 67,
      "hit": false,
      "t": 12168.345000000001,
      "d": 401.3863802083324,
      "v": 1
    },
    {
      "midi": 67,
      "hit": false,
      "t": 12573.956499999995,
      "d": 42.25119791666657,
      "v": 96
    },
    {
      "midi": 64,
      "hit": false,
      "t": 12573.956499999995,
      "d": 1755.5372734374996,
      "v": 91
    },
    {
      "midi": 60,
      "hit": false,
      "t": 12573.956499999995,
      "d": 1797.7884713541662,
      "v": 86
    },
    {
      "midi": 48,
      "hit": false,
      "t": 12573.956499999995,
      "d": 1907.6415859374993,
      "v": 101
    },
    {
      "midi": 55,
      "hit": false,
      "t": 12573.9565,
      "d": 2023.8323802083341,
      "v": 1
    },
    {
      "midi": 60,
      "hit": false,
      "t": 12573.9565,
      "d": 2023.8323802083341,
      "v": 1
    },
    {
      "midi": 64,
      "hit": false,
      "t": 12573.9565,
      "d": 2023.8323802083341,
      "v": 1
    },
    {
      "midi": 67,
      "hit": false,
      "t": 12573.9565,
      "d": 2023.8323802083341,
      "v": 1
    },
    {
      "midi": 67,
      "hit": false,
      "t": 14602.013999999994,
      "d": 1153.4577031249992,
      "v": 96
    },
    {
      "midi": 60,
      "hit": false,
      "t": 14602.014000000001,
      "d": 401.38638020833423,
      "v": 1
    },
    {
      "midi": 64,
      "hit": false,
      "t": 14602.014000000001,
      "d": 401.38638020833423,
      "v": 1
    },
    {
      "midi": 57,
      "hit": false,
      "t": 14602.014000000001,
      "d": 409.83661979166754,
      "v": 1
    },
    {
      "midi": 69,
      "hit": false,
      "t": 14602.014000000001,
      "d": 409.83661979166754,
      "v": 1
    },
    {
      "midi": 60,
      "hit": false,
      "t": 14604.126559895827,
      "d": 1111.2065052083326,
      "v": 91
    },
    {
      "midi": 57,
      "hit": false,
      "t": 14608.351679687494,
      "d": 1111.2065052083326,
      "v": 96
    },
    {
      "midi": 41,
      "hit": false,
      "t": 14627.364718749994,
      "d": 1195.7089010416657,
      "v": 106
    },
    {
      "midi": 55,
      "hit": false,
      "t": 15007.625500000002,
      "d": 532.3650937500006,
      "v": 1
    },
    {
      "midi": 67,
      "hit": false,
      "t": 15007.625500000002,
      "d": 532.3650937500006,
      "v": 1
    },
    {
      "midi": 60,
      "hit": false,
      "t": 15007.625500000002,
      "d": 813.3355598958333,
      "v": 1
    },
    {
      "midi": 64,
      "hit": false,
      "t": 15007.625500000002,
      "d": 826.0109192708333,
      "v": 1
    },
    {
      "midi": 59,
      "hit": false,
      "t": 15818.848499999993,
      "d": 1920.316945312501,
      "v": 74
    },
    {
      "midi": 67,
      "hit": false,
      "t": 15818.848499999993,
      "d": 1930.8797447916695,
      "v": 96
    },
    {
      "midi": 62,
      "hit": false,
      "t": 15818.848499999993,
      "d": 1939.3299843750028,
      "v": 96
    },
    {
      "midi": 55,
      "hit": false,
      "t": 15818.848500000002,
      "d": 1618.2208802083314,
      "v": 1
    },
    {
      "midi": 59,
      "hit": false,
      "t": 15818.848500000002,
      "d": 1618.2208802083314,
      "v": 1
    },
    {
      "midi": 62,
      "hit": false,
      "t": 15818.848500000002,
      "d": 1618.2208802083314,
      "v": 1
    },
    {
      "midi": 67,
      "hit": false,
      "t": 15818.848500000002,
      "d": 1618.2208802083314,
      "v": 1
    },
    {
      "midi": 43,
      "hit": false,
      "t": 15839.974098958326,
      "d": 1966.793263020838,
      "v": 91
    },
    {
      "midi": 55,
      "hit": false,
      "t": 17441.2945,
      "d": 401.3863802083324,
      "v": 1
    },
    {
      "midi": 59,
      "hit": false,
      "t": 17441.2945,
      "d": 401.3863802083324,
      "v": 1
    },
    {
      "midi": 65,
      "hit": false,
      "t": 17441.2945,
      "d": 401.3863802083324,
      "v": 1
    },
    {
      "midi": 67,
      "hit": false,
      "t": 17441.2945,
      "d": 401.3863802083324,
      "v": 1
    },
    {
      "midi": 52,
      "hit": false,
      "t": 17846.906,
      "d": 1212.6093802083342,
      "v": 1
    },
    {
      "midi": 59,
      "hit": false,
      "t": 17846.906,
      "d": 1212.6093802083342,
      "v": 1
    },
    {
      "midi": 64,
      "hit": false,
      "t": 17846.906,
      "d": 1212.6093802083342,
      "v": 1
    },
    {
      "midi": 68,
      "hit": false,
      "t": 17846.906,
      "d": 1212.6093802083342,
      "v": 1
    },
    {
      "midi": 40,
      "hit": false,
      "t": 17846.906,
      "d": 1204.1591406250045,
      "v": 106
    },
    {
      "midi": 52,
      "hit": false,
      "t": 17846.906,
      "d": 1204.1591406250045,
      "v": 106
    },
    {
      "midi": 59,
      "hit": false,
      "t": 17868.031598958332,
      "d": 1157.6828229166713,
      "v": 96
    },
    {
      "midi": 64,
      "hit": false,
      "t": 17870.144158854167,
      "d": 1176.6958619791694,
      "v": 106
    },
    {
      "midi": 68,
      "hit": false,
      "t": 17872.256718750003,
      "d": 1195.7089010416676,
      "v": 106
    },
    {
      "midi": 57,
      "hit": false,
      "t": 19063.7405,
      "d": 2023.8323802083323,
      "v": 1
    },
    {
      "midi": 60,
      "hit": false,
      "t": 19063.7405,
      "d": 2023.8323802083323,
      "v": 1
    },
    {
      "midi": 64,
      "hit": false,
      "t": 19063.7405,
      "d": 2023.8323802083323,
      "v": 1
    },
    {
      "midi": 69,
      "hit": false,
      "t": 19063.7405,
      "d": 2023.8323802083323,
      "v": 1
    },
    {
      "midi": 45,
      "hit": false,
      "t": 19063.740500000004,
      "d": 1818.914070312505,
      "v": 91
    },
    {
      "midi": 57,
      "hit": false,
      "t": 19063.740500000004,
      "d": 1818.914070312505,
      "v": 91
    },
    {
      "midi": 60,
      "hit": false,
      "t": 19116.55449739584,
      "d": 1930.8797447916695,
      "v": 106
    },
    {
      "midi": 64,
      "hit": false,
      "t": 19120.779617187505,
      "d": 1945.6676640625046,
      "v": 91
    },
    {
      "midi": 69,
      "hit": false,
      "t": 19127.117296875007,
      "d": 1937.2174244791677,
      "v": 106
    },
    {
      "midi": 50,
      "hit": false,
      "t": 21091.798,
      "d": 1212.6093802083342,
      "v": 1
    },
    {
      "midi": 57,
      "hit": false,
      "t": 21091.798,
      "d": 1212.6093802083342,
      "v": 1
    },
    {
      "midi": 62,
      "hit": false,
      "t": 21091.798,
      "d": 1212.6093802083342,
      "v": 1
    },
    {
      "midi": 66,
      "hit": false,
      "t": 21091.798,
      "d": 1212.6093802083342,
      "v": 1
    },
    {
      "midi": 57,
      "hit": false,
      "t": 21091.79800000001,
      "d": 1109.093945312503,
      "v": 106
    },
    {
      "midi": 38,
      "hit": false,
      "t": 21091.79800000001,
      "d": 1248.5228984375062,
      "v": 86
    },
    {
      "midi": 50,
      "hit": false,
      "t": 21091.79800000001,
      "d": 1248.5228984375062,
      "v": 86
    },
    {
      "midi": 62,
      "hit": false,
      "t": 21093.910559895845,
      "d": 1130.2195442708362,
      "v": 112
    },
    {
      "midi": 66,
      "hit": false,
      "t": 21096.02311979168,
      "d": 1166.133062500001,
      "v": 112
    },
    {
      "midi": 55,
      "hit": false,
      "t": 22308.6325,
      "d": 2023.8323802083323,
      "v": 1
    },
    {
      "midi": 59,
      "hit": false,
      "t": 22308.6325,
      "d": 2023.8323802083323,
      "v": 1
    },
    {
      "midi": 62,
      "hit": false,
      "t": 22308.6325,
      "d": 2023.8323802083323,
      "v": 1
    },
    {
      "midi": 67,
      "hit": false,
      "t": 22308.6325,
      "d": 2023.8323802083323,
      "v": 1
    },
    {
      "midi": 43,
      "hit": false,
      "t": 22308.632500000014,
      "d": 1945.667664062501,
      "v": 96
    },
    {
      "midi": 55,
      "hit": false,
      "t": 22308.632500000014,
      "d": 1945.667664062501,
      "v": 96
    },
    {
      "midi": 62,
      "hit": false,
      "t": 22308.632500000014,
      "d": 2036.5077395833396,
      "v": 101
    },
    {
      "midi": 59,
      "hit": false,
      "t": 22314.970179687516,
      "d": 2013.2695807291675,
      "v": 101
    },
    {
      "midi": 67,
      "hit": false,
      "t": 22319.195299479183,
      "d": 2028.0575000000063,
      "v": 96
    },
    {
      "midi": 55,
      "hit": false,
      "t": 24328.239760416684,
      "d": 1100.6437057291732,
      "v": 101
    },
    {
      "midi": 60,
      "hit": false,
      "t": 24330.35232031252,
      "d": 1113.3190651041732,
      "v": 112
    },
    {
      "midi": 64,
      "hit": false,
      "t": 24330.35232031252,
      "d": 1191.4837812500082,
      "v": 112
    },
    {
      "midi": 48,
      "hit": false,
      "t": 24336.69,
      "d": 401.3863802083324,
      "v": 1
    },
    {
      "midi": 60,
      "hit": false,
      "t": 24336.69,
      "d": 401.3863802083324,
      "v": 1
    },
    {
      "midi": 64,
      "hit": false,
      "t": 24336.69,
      "d": 401.3863802083324,
      "v": 1
    },
    {
      "midi": 48,
      "hit": false,
      "t": 24336.69000000002,
      "d": 1193.5963411458433,
      "v": 118
    },
    {
      "midi": 60,
      "hit": false,
      "t": 24742.301499999998,
      "d": 614.7549296875004,
      "v": 1
    },
    {
      "midi": 64,
      "hit": false,
      "t": 24742.301499999998,
      "d": 669.681486979167,
      "v": 1
    },
    {
      "midi": 52,
      "hit": false,
      "t": 24742.301499999998,
      "d": 811.2230000000018,
      "v": 1
    },
    {
      "midi": 60,
      "hit": false,
      "t": 25526.061221354194,
      "d": 1987.9188619791748,
      "v": 106
    },
    {
      "midi": 57,
      "hit": false,
      "t": 25528.17378125003,
      "d": 1964.6807031250064,
      "v": 106
    },
    {
      "midi": 65,
      "hit": false,
      "t": 25530.286341145864,
      "d": 1987.9188619791712,
      "v": 112
    },
    {
      "midi": 53,
      "hit": false,
      "t": 25553.5245,
      "d": 1618.2208802083333,
      "v": 1
    },
    {
      "midi": 60,
      "hit": false,
      "t": 25553.5245,
      "d": 1618.2208802083333,
      "v": 1
    },
    {
      "midi": 65,
      "hit": false,
      "t": 25553.5245,
      "d": 1618.2208802083333,
      "v": 1
    },
    {
      "midi": 53,
      "hit": false,
      "t": 25553.524500000032,
      "d": 1818.9140703125013,
      "v": 91
    },
    {
      "midi": 53,
      "hit": false,
      "t": 27175.9705,
      "d": 401.3863802083324,
      "v": 1
    },
    {
      "midi": 57,
      "hit": false,
      "t": 27175.9705,
      "d": 401.3863802083324,
      "v": 1
    },
    {
      "midi": 65,
      "hit": false,
      "t": 27175.9705,
      "d": 401.3863802083324,
      "v": 1
    },
    {
      "midi": 72,
      "hit": false,
      "t": 27577.35688020837,
      "d": 1172.4707421875028,
      "v": 112
    },
    {
      "midi": 62,
      "hit": false,
      "t": 27581.582,
      "d": 401.3863802083324,
      "v": 1
    },
    {
      "midi": 65,
      "hit": false,
      "t": 27581.582,
      "d": 401.3863802083324,
      "v": 1
    },
    {
      "midi": 69,
      "hit": false,
      "t": 27581.582,
      "d": 420.3994192708342,
      "v": 1
    },
    {
      "midi": 50,
      "hit": false,
      "t": 27581.582,
      "d": 424.62453906250084,
      "v": 1
    },
    {
      "midi": 50,
      "hit": false,
      "t": 27581.582000000035,
      "d": 1193.5963411458397,
      "v": 118
    },
    {
      "midi": 69,
      "hit": false,
      "t": 27585.8071197917,
      "d": 1174.583302083338,
      "v": 101
    },
    {
      "midi": 65,
      "hit": false,
      "t": 27587.919679687537,
      "d": 1100.643705729166,
      "v": 101
    },
    {
      "midi": 62,
      "hit": false,
      "t": 27587.919679687537,
      "d": 1104.8688255208326,
      "v": 101
    },
    {
      "midi": 67,
      "hit": false,
      "t": 27987.193499999998,
      "d": 671.7940468750021,
      "v": 1
    },
    {
      "midi": 65,
      "hit": false,
      "t": 27987.193499999998,
      "d": 800.660200520837,
      "v": 1
    },
    {
      "midi": 53,
      "hit": false,
      "t": 27987.193499999998,
      "d": 813.3355598958406,
      "v": 1
    },
    {
      "midi": 60,
      "hit": false,
      "t": 27987.193499999998,
      "d": 817.5606796875072,
      "v": 1
    },
    {
      "midi": 62,
      "hit": false,
      "t": 28789.96626041671,
      "d": 1992.1439817708342,
      "v": 96
    },
    {
      "midi": 55,
      "hit": false,
      "t": 28798.416500000003,
      "d": 2023.832380208336,
      "v": 1
    },
    {
      "midi": 59,
      "hit": false,
      "t": 28798.416500000003,
      "d": 2023.832380208336,
      "v": 1
    },
    {
      "midi": 67,
      "hit": false,
      "t": 28798.416500000003,
      "d": 2023.832380208336,
      "v": 1
    },
    {
      "midi": 55,
      "hit": false,
      "t": 28798.416500000043,
      "d": 1818.9140703125013,
      "v": 91
    },
    {
      "midi": 67,
      "hit": false,
      "t": 28802.64161979171,
      "d": 2015.3821406250026,
      "v": 101
    },
    {
      "midi": 71,
      "hit": false,
      "t": 28802.64161979171,
      "d": 2015.3821406250026,
      "v": 106
    },
    {
      "midi": 59,
      "hit": false,
      "t": 30826.474000000006,
      "d": 1214.7219401041657,
      "v": 1
    },
    {
      "midi": 62,
      "hit": false,
      "t": 30826.474000000006,
      "d": 1214.7219401041657,
      "v": 1
    },
    {
      "midi": 67,
      "hit": false,
      "t": 30826.474000000006,
      "d": 1214.7219401041657,
      "v": 1
    },
    {
      "midi": 60,
      "hit": false,
      "t": 32045.421059895838,
      "d": 1998.4816614583324,
      "v": 1
    },
    {
      "midi": 64,
      "hit": false,
      "t": 32045.421059895838,
      "d": 1998.4816614583324,
      "v": 1
    },
    {
      "midi": 67,
      "hit": false,
      "t": 32045.421059895838,
      "d": 1998.4816614583324,
      "v": 1
    },
    {
      "midi": 60,
      "hit": false,
      "t": 34048.12784114584,
      "d": 1242.1852187499971,
      "v": 1
    },
    {
      "midi": 65,
      "hit": false,
      "t": 34048.12784114584,
      "d": 1242.1852187499971,
      "v": 1
    },
    {
      "midi": 69,
      "hit": false,
      "t": 34048.12784114584,
      "d": 1242.1852187499971,
      "v": 1
    },
    {
      "midi": 67,
      "hit": false,
      "t": 35294.53817968751,
      "d": 1618.2208802083333,
      "v": 1
    },
    {
      "midi": 62,
      "hit": false,
      "t": 35311.438658854175,
      "d": 1618.2208802083333,
      "v": 1
    },
    {
      "midi": 55,
      "hit": false,
      "t": 37316.25800000001,
      "d": 1223.172179687499,
      "v": 1
    },
    {
      "midi": 62,
      "hit": false,
      "t": 37316.25800000001,
      "d": 1223.172179687499,
      "v": 1
    },
    {
      "midi": 57,
      "hit": false,
      "t": 38533.092500000006,
      "d": 2429.443880208346,
      "v": 1
    },
    {
      "midi": 64,
      "hit": false,
      "t": 38543.65529947918,
      "d": 1202.0465807291694,
      "v": 1
    },
    {
      "midi": 69,
      "hit": false,
      "t": 38543.65529947918,
      "d": 1202.0465807291694,
      "v": 1
    },
    {
      "midi": 64,
      "hit": false,
      "t": 39749.92700000002,
      "d": 1212.6093802083342,
      "v": 1
    },
    {
      "midi": 55,
      "hit": false,
      "t": 40966.76150000002,
      "d": 790.0974010416685,
      "v": 1
    },
    {
      "midi": 62,
      "hit": false,
      "t": 40966.76150000002,
      "d": 790.0974010416685,
      "v": 1
    },
    {
      "midi": 64,
      "hit": false,
      "t": 41737.84586197919,
      "d": 3686.417018229171,
      "v": 1
    },
    {
      "midi": 60,
      "hit": false,
      "t": 41777.98450000003,
      "d": 3686.417018229171,
      "v": 1
    },
    {
      "midi": 41,
      "hit": false,
      "t": 48673.38000000005,
      "d": 3173.064963541663,
      "v": 102
    },
    {
      "midi": 53,
      "hit": false,
      "t": 48673.38000000005,
      "d": 3173.064963541663,
      "v": 102
    },
    {
      "midi": 57,
      "hit": false,
      "t": 48673.38000000005,
      "d": 3173.064963541663,
      "v": 102
    },
    {
      "midi": 40,
      "hit": false,
      "t": 51918.27200000005,
      "d": 3173.0649635416703,
      "v": 96
    },
    {
      "midi": 52,
      "hit": false,
      "t": 51918.27200000005,
      "d": 3173.0649635416703,
      "v": 96
    },
    {
      "midi": 56,
      "hit": false,
      "t": 51918.27200000005,
      "d": 3173.0649635416703,
      "v": 96
    },
    {
      "midi": 59,
      "hit": false,
      "t": 51918.27200000005,
      "d": 3173.0649635416703,
      "v": 96
    },
    {
      "midi": 55,
      "hit": false,
      "t": 55163.164000000055,
      "d": 4497.640018229169,
      "v": 82
    },
    {
      "midi": 45,
      "hit": false,
      "t": 55163.164000000055,
      "d": 4512.427937500004,
      "v": 91
    },
    {
      "midi": 64,
      "hit": false,
      "t": 55163.164000000055,
      "d": 4520.8781770833375,
      "v": 82
    },
    {
      "midi": 60,
      "hit": false,
      "t": 55163.164000000055,
      "d": 4550.454015625008,
      "v": 91
    },
    {
      "midi": 57,
      "hit": false,
      "t": 55163.164000000055,
      "d": 4552.566575520839,
      "v": 91
    },
    {
      "midi": 57,
      "hit": false,
      "t": 57596.83300000003,
      "d": 198.58063020833652,
      "v": 1
    },
    {
      "midi": 64,
      "hit": false,
      "t": 57596.83300000003,
      "d": 198.58063020833652,
      "v": 1
    },
    {
      "midi": 57,
      "hit": false,
      "t": 57799.638750000035,
      "d": 401.38638020833605,
      "v": 1
    },
    {
      "midi": 60,
      "hit": false,
      "t": 57799.638750000035,
      "d": 401.38638020833605,
      "v": 1
    },
    {
      "midi": 64,
      "hit": false,
      "t": 57799.638750000035,
      "d": 401.38638020833605,
      "v": 1
    },
    {
      "midi": 60,
      "hit": false,
      "t": 58205.25025000004,
      "d": 604.1921302083356,
      "v": 1
    },
    {
      "midi": 64,
      "hit": false,
      "t": 58205.25025000004,
      "d": 604.1921302083356,
      "v": 1
    },
    {
      "midi": 67,
      "hit": false,
      "t": 58205.25025000004,
      "d": 604.1921302083356,
      "v": 1
    },
    {
      "midi": 59,
      "hit": false,
      "t": 58813.66750000005,
      "d": 359.1351822916695,
      "v": 1
    },
    {
      "midi": 67,
      "hit": false,
      "t": 58813.66750000005,
      "d": 359.1351822916695,
      "v": 1
    },
    {
      "midi": 62,
      "hit": false,
      "t": 58813.66750000005,
      "d": 424.6245390625045,
      "v": 1
    },
    {
      "midi": 57,
      "hit": false,
      "t": 59219.27900000005,
      "d": 378.1482213541676,
      "v": 1
    },
    {
      "midi": 67,
      "hit": false,
      "t": 59219.27900000005,
      "d": 378.1482213541676,
      "v": 1
    },
    {
      "midi": 60,
      "hit": false,
      "t": 59219.27900000005,
      "d": 418.2868593750027,
      "v": 1
    },
    {
      "midi": 59,
      "hit": false,
      "t": 59624.89050000005,
      "d": 401.38638020833605,
      "v": 1
    },
    {
      "midi": 62,
      "hit": false,
      "t": 59624.89050000005,
      "d": 401.38638020833605,
      "v": 1
    },
    {
      "midi": 67,
      "hit": false,
      "t": 59624.89050000005,
      "d": 401.38638020833605,
      "v": 1
    },
    {
      "midi": 57,
      "hit": false,
      "t": 60030.50200000006,
      "d": 1314.012255208334,
      "v": 1
    },
    {
      "midi": 60,
      "hit": false,
      "t": 60030.50200000006,
      "d": 1314.012255208334,
      "v": 1
    },
    {
      "midi": 64,
      "hit": false,
      "t": 60030.50200000006,
      "d": 1314.012255208334,
      "v": 1
    },
    {
      "midi": 60,
      "hit": false,
      "t": 61652.94800000006,
      "d": 1172.4707421874991,
      "v": 106
    },
    {
      "midi": 50,
      "hit": false,
      "t": 61652.94800000006,
      "d": 3230.1040807291647,
      "v": 112
    },
    {
      "midi": 65,
      "hit": false,
      "t": 61652.94800000006,
      "d": 3238.554320312498,
      "v": 101
    },
    {
      "midi": 57,
      "hit": false,
      "t": 62869.78250000006,
      "d": 1998.4816614583324,
      "v": 101
    },
    {
      "midi": 62,
      "hit": false,
      "t": 64897.84000000006,
      "d": 2.1125598958315095,
      "v": 106
    },
    {
      "midi": 47,
      "hit": false,
      "t": 64897.84000000006,
      "d": 3280.8055182291646,
      "v": 91
    },
    {
      "midi": 40,
      "hit": false,
      "t": 64897.84000000006,
      "d": 3289.2557578124906,
      "v": 96
    },
    {
      "midi": 60,
      "hit": false,
      "t": 66114.67450000007,
      "d": 1237.9600989583269,
      "v": 96
    },
    {
      "midi": 59,
      "hit": false,
      "t": 68142.73200000006,
      "d": 40.138638020827784,
      "v": 101
    },
    {
      "midi": 45,
      "hit": false,
      "t": 68142.73200000006,
      "d": 3838.5213307291706,
      "v": 96
    },
    {
      "midi": 52,
      "hit": false,
      "t": 68142.73200000006,
      "d": 3901.898127604174,
      "v": 96
    },
    {
      "midi": 57,
      "hit": false,
      "t": 69359.56650000006,
      "d": 2701.9641067708435,
      "v": 96
    },
    {
      "midi": 55,
      "hit": false,
      "t": 70576.40100000006,
      "d": 198.58063020833652,
      "v": 1
    },
    {
      "midi": 57,
      "hit": false,
      "t": 70576.40100000006,
      "d": 198.58063020833652,
      "v": 1
    },
    {
      "midi": 64,
      "hit": false,
      "t": 70576.40100000006,
      "d": 198.58063020833652,
      "v": 1
    },
    {
      "midi": 55,
      "hit": false,
      "t": 70779.20675000006,
      "d": 401.38638020833605,
      "v": 1
    },
    {
      "midi": 60,
      "hit": false,
      "t": 70779.20675000006,
      "d": 401.38638020833605,
      "v": 1
    },
    {
      "midi": 64,
      "hit": false,
      "t": 70779.20675000006,
      "d": 401.38638020833605,
      "v": 1
    },
    {
      "midi": 60,
      "hit": false,
      "t": 71184.81825000005,
      "d": 604.1921302083356,
      "v": 1
    },
    {
      "midi": 64,
      "hit": false,
      "t": 71184.81825000005,
      "d": 604.1921302083356,
      "v": 1
    },
    {
      "midi": 67,
      "hit": false,
      "t": 71184.81825000005,
      "d": 604.1921302083356,
      "v": 1
    },
    {
      "midi": 60,
      "hit": false,
      "t": 71793.23550000005,
      "d": 401.38638020833605,
      "v": 1
    },
    {
      "midi": 62,
      "hit": false,
      "t": 71793.23550000005,
      "d": 401.38638020833605,
      "v": 1
    },
    {
      "midi": 67,
      "hit": false,
      "t": 71793.23550000005,
      "d": 401.38638020833605,
      "v": 1
    },
    {
      "midi": 57,
      "hit": false,
      "t": 72198.84700000005,
      "d": 198.58063020833652,
      "v": 1
    },
    {
      "midi": 60,
      "hit": false,
      "t": 72198.84700000005,
      "d": 198.58063020833652,
      "v": 1
    },
    {
      "midi": 64,
      "hit": false,
      "t": 72198.84700000005,
      "d": 198.58063020833652,
      "v": 1
    },
    {
      "midi": 57,
      "hit": false,
      "t": 72401.65275000005,
      "d": 401.38638020833605,
      "v": 1
    },
    {
      "midi": 62,
      "hit": false,
      "t": 72401.65275000005,
      "d": 401.38638020833605,
      "v": 1
    },
    {
      "midi": 64,
      "hit": false,
      "t": 72401.65275000005,
      "d": 401.38638020833605,
      "v": 1
    },
    {
      "midi": 60,
      "hit": false,
      "t": 72807.26425000005,
      "d": 604.1921302083356,
      "v": 1
    },
    {
      "midi": 64,
      "hit": false,
      "t": 72807.26425000005,
      "d": 604.1921302083356,
      "v": 1
    },
    {
      "midi": 67,
      "hit": false,
      "t": 72807.26425000005,
      "d": 604.1921302083356,
      "v": 1
    },
    {
      "midi": 59,
      "hit": false,
      "t": 73415.68150000005,
      "d": 401.38638020833605,
      "v": 1
    },
    {
      "midi": 62,
      "hit": false,
      "t": 73415.68150000005,
      "d": 401.38638020833605,
      "v": 1
    },
    {
      "midi": 67,
      "hit": false,
      "t": 73415.68150000005,
      "d": 401.38638020833605,
      "v": 1
    },
    {
      "midi": 57,
      "hit": false,
      "t": 73821.29300000005,
      "d": 378.14822135416034,
      "v": 1
    },
    {
      "midi": 67,
      "hit": false,
      "t": 73821.29300000005,
      "d": 378.14822135416034,
      "v": 1
    },
    {
      "midi": 60,
      "hit": false,
      "t": 73821.29300000005,
      "d": 418.2868593750027,
      "v": 1
    },
    {
      "midi": 59,
      "hit": false,
      "t": 74226.90450000005,
      "d": 401.38638020833605,
      "v": 1
    },
    {
      "midi": 62,
      "hit": false,
      "t": 74226.90450000005,
      "d": 401.38638020833605,
      "v": 1
    },
    {
      "midi": 67,
      "hit": false,
      "t": 74226.90450000005,
      "d": 401.38638020833605,
      "v": 1
    },
    {
      "midi": 50,
      "hit": false,
      "t": 74632.51600000008,
      "d": 3173.064963541663,
      "v": 102
    },
    {
      "midi": 60,
      "hit": false,
      "t": 74632.51600000008,
      "d": 3173.064963541663,
      "v": 102
    },
    {
      "midi": 62,
      "hit": false,
      "t": 74632.51600000008,
      "d": 3173.064963541663,
      "v": 102
    },
    {
      "midi": 65,
      "hit": false,
      "t": 74632.51600000008,
      "d": 3173.064963541663,
      "v": 102
    },
    {
      "midi": 69,
      "hit": false,
      "t": 74632.51600000008,
      "d": 3173.064963541663,
      "v": 102
    },
    {
      "midi": 52,
      "hit": false,
      "t": 77877.40800000007,
      "d": 3173.064963541663,
      "v": 100
    },
    {
      "midi": 62,
      "hit": false,
      "t": 77877.40800000007,
      "d": 3173.064963541663,
      "v": 100
    },
    {
      "midi": 64,
      "hit": false,
      "t": 77877.40800000007,
      "d": 3173.064963541663,
      "v": 100
    },
    {
      "midi": 67,
      "hit": false,
      "t": 77877.40800000007,
      "d": 3173.064963541663,
      "v": 100
    },
    {
      "midi": 71,
      "hit": false,
      "t": 77877.40800000007,
      "d": 3173.064963541663,
      "v": 100
    },
    {
      "midi": 53,
      "hit": false,
      "t": 81122.30000000006,
      "d": 1601.3204010416666,
      "v": 102
    },
    {
      "midi": 62,
      "hit": false,
      "t": 81122.30000000006,
      "d": 3179.4026432291575,
      "v": 102
    },
    {
      "midi": 65,
      "hit": false,
      "t": 81122.30000000006,
      "d": 3196.303122395824,
      "v": 102
    },
    {
      "midi": 72,
      "hit": false,
      "t": 81122.30000000006,
      "d": 3202.6408020833187,
      "v": 102
    },
    {
      "midi": 69,
      "hit": false,
      "t": 81122.30000000006,
      "d": 3204.75336197915,
      "v": 102
    },
    {
      "midi": 50,
      "hit": false,
      "t": 82744.74600000006,
      "d": 1601.320401041652,
      "v": 98
    },
    {
      "midi": 72,
      "hit": false,
      "t": 84367.19200000004,
      "d": 1618.2208802083333,
      "v": 91
    },
    {
      "midi": 55,
      "hit": false,
      "t": 84367.19200000004,
      "d": 3223.766401041663,
      "v": 91
    },
    {
      "midi": 74,
      "hit": false,
      "t": 84367.19200000004,
      "d": 3223.766401041663,
      "v": 101
    },
    {
      "midi": 47,
      "hit": false,
      "t": 85989.63800000004,
      "d": 1227.3972994791693,
      "v": 106
    },
    {
      "midi": 71,
      "hit": false,
      "t": 85989.63800000004,
      "d": 1618.2208802083333,
      "v": 91
    },
    {
      "midi": 55,
      "hit": false,
      "t": 85989.63800000005,
      "d": 401.38638020833605,
      "v": 1
    },
    {
      "midi": 59,
      "hit": false,
      "t": 85989.63800000005,
      "d": 401.38638020833605,
      "v": 1
    },
    {
      "midi": 62,
      "hit": false,
      "t": 85989.63800000005,
      "d": 401.38638020833605,
      "v": 1
    },
    {
      "midi": 67,
      "hit": false,
      "t": 85989.63800000005,
      "d": 401.38638020833605,
      "v": 1
    },
    {
      "midi": 59,
      "hit": false,
      "t": 86031.88919791671,
      "d": 1172.4707421874919,
      "v": 96
    },
    {
      "midi": 62,
      "hit": false,
      "t": 86031.88919791671,
      "d": 1223.1721796874917,
      "v": 91
    },
    {
      "midi": 55,
      "hit": false,
      "t": 86395.24950000005,
      "d": 401.38638020833605,
      "v": 1
    },
    {
      "midi": 59,
      "hit": false,
      "t": 86395.24950000005,
      "d": 401.38638020833605,
      "v": 1
    },
    {
      "midi": 64,
      "hit": false,
      "t": 86395.24950000005,
      "d": 401.38638020833605,
      "v": 1
    },
    {
      "midi": 67,
      "hit": false,
      "t": 86395.24950000005,
      "d": 401.38638020833605,
      "v": 1
    },
    {
      "midi": 55,
      "hit": false,
      "t": 86800.86100000005,
      "d": 401.38638020833605,
      "v": 1
    },
    {
      "midi": 59,
      "hit": false,
      "t": 86800.86100000005,
      "d": 401.38638020833605,
      "v": 1
    },
    {
      "midi": 67,
      "hit": false,
      "t": 86800.86100000005,
      "d": 401.38638020833605,
      "v": 1
    },
    {
      "midi": 65,
      "hit": false,
      "t": 86800.86100000005,
      "d": 405.61149999999907,
      "v": 1
    },
    {
      "midi": 67,
      "hit": false,
      "t": 87206.47250000003,
      "d": 42.251197916673846,
      "v": 96
    },
    {
      "midi": 64,
      "hit": false,
      "t": 87206.47250000003,
      "d": 1755.5372734374978,
      "v": 91
    },
    {
      "midi": 60,
      "hit": false,
      "t": 87206.47250000003,
      "d": 1797.7884713541716,
      "v": 86
    },
    {
      "midi": 48,
      "hit": false,
      "t": 87206.47250000003,
      "d": 1907.641585937512,
      "v": 101
    },
    {
      "midi": 55,
      "hit": false,
      "t": 87206.47250000005,
      "d": 2023.8323802083323,
      "v": 1
    },
    {
      "midi": 60,
      "hit": false,
      "t": 87206.47250000005,
      "d": 2023.8323802083323,
      "v": 1
    },
    {
      "midi": 64,
      "hit": false,
      "t": 87206.47250000005,
      "d": 2023.8323802083323,
      "v": 1
    },
    {
      "midi": 67,
      "hit": false,
      "t": 87206.47250000005,
      "d": 2023.8323802083323,
      "v": 1
    },
    {
      "midi": 55,
      "hit": false,
      "t": 89234.53000000004,
      "d": 1212.6093802083342,
      "v": 1
    },
    {
      "midi": 57,
      "hit": false,
      "t": 89234.53000000004,
      "d": 1212.6093802083342,
      "v": 1
    },
    {
      "midi": 60,
      "hit": false,
      "t": 89234.53000000004,
      "d": 1212.6093802083342,
      "v": 1
    },
    {
      "midi": 67,
      "hit": false,
      "t": 89234.53000000004,
      "d": 1212.6093802083342,
      "v": 1
    },
    {
      "midi": 67,
      "hit": false,
      "t": 89234.53000000004,
      "d": 1153.4577031249937,
      "v": 96
    },
    {
      "midi": 60,
      "hit": false,
      "t": 89236.64255989587,
      "d": 804.8853203124891,
      "v": 91
    },
    {
      "midi": 57,
      "hit": false,
      "t": 89240.86767968754,
      "d": 680.2442864583281,
      "v": 96
    },
    {
      "midi": 41,
      "hit": false,
      "t": 89259.88071875004,
      "d": 1195.7089010416676,
      "v": 106
    },
    {
      "midi": 59,
      "hit": false,
      "t": 90045.75300000003,
      "d": 314.7714244791714,
      "v": 82
    },
    {
      "midi": 62,
      "hit": false,
      "t": 90045.75300000003,
      "d": 331.67190364583803,
      "v": 91
    },
    {
      "midi": 55,
      "hit": false,
      "t": 90451.36450000004,
      "d": 2429.4438802083314,
      "v": 1
    },
    {
      "midi": 59,
      "hit": false,
      "t": 90451.36450000004,
      "d": 2429.4438802083314,
      "v": 1
    },
    {
      "midi": 62,
      "hit": false,
      "t": 90451.36450000004,
      "d": 2429.4438802083314,
      "v": 1
    },
    {
      "midi": 67,
      "hit": false,
      "t": 90451.36450000004,
      "d": 2429.4438802083314,
      "v": 1
    },
    {
      "midi": 59,
      "hit": false,
      "t": 90451.36450000004,
      "d": 1920.316945312501,
      "v": 74
    },
    {
      "midi": 67,
      "hit": false,
      "t": 90451.36450000004,
      "d": 1930.8797447916731,
      "v": 96
    },
    {
      "midi": 62,
      "hit": false,
      "t": 90451.36450000004,
      "d": 1939.3299843750137,
      "v": 96
    },
    {
      "midi": 43,
      "hit": false,
      "t": 90472.49009895837,
      "d": 1966.7932630208525,
      "v": 91
    },
    {
      "midi": 47,
      "hit": false,
      "t": 92479.42200000005,
      "d": 1227.3972994791693,
      "v": 106
    },
    {
      "midi": 59,
      "hit": false,
      "t": 92521.67319791672,
      "d": 1172.4707421874919,
      "v": 96
    },
    {
      "midi": 62,
      "hit": false,
      "t": 92521.67319791672,
      "d": 1223.1721796874917,
      "v": 91
    },
    {
      "midi": 55,
      "hit": false,
      "t": 92885.03350000003,
      "d": 401.38638020833605,
      "v": 1
    },
    {
      "midi": 59,
      "hit": false,
      "t": 92885.03350000003,
      "d": 401.38638020833605,
      "v": 1
    },
    {
      "midi": 64,
      "hit": false,
      "t": 92885.03350000003,
      "d": 401.38638020833605,
      "v": 1
    },
    {
      "midi": 67,
      "hit": false,
      "t": 92885.03350000003,
      "d": 401.38638020833605,
      "v": 1
    },
    {
      "midi": 55,
      "hit": false,
      "t": 93290.64500000003,
      "d": 401.38638020833605,
      "v": 1
    },
    {
      "midi": 59,
      "hit": false,
      "t": 93290.64500000003,
      "d": 401.38638020833605,
      "v": 1
    },
    {
      "midi": 65,
      "hit": false,
      "t": 93290.64500000003,
      "d": 401.38638020833605,
      "v": 1
    },
    {
      "midi": 67,
      "hit": false,
      "t": 93290.64500000003,
      "d": 401.38638020833605,
      "v": 1
    },
    {
      "midi": 55,
      "hit": false,
      "t": 93696.25650000003,
      "d": 2023.8323802083323,
      "v": 1
    },
    {
      "midi": 60,
      "hit": false,
      "t": 93696.25650000003,
      "d": 2023.8323802083323,
      "v": 1
    },
    {
      "midi": 64,
      "hit": false,
      "t": 93696.25650000003,
      "d": 2023.8323802083323,
      "v": 1
    },
    {
      "midi": 67,
      "hit": false,
      "t": 93696.25650000003,
      "d": 2023.8323802083323,
      "v": 1
    },
    {
      "midi": 67,
      "hit": false,
      "t": 93696.25650000005,
      "d": 42.251197916673846,
      "v": 96
    },
    {
      "midi": 64,
      "hit": false,
      "t": 93696.25650000005,
      "d": 1755.5372734374978,
      "v": 91
    },
    {
      "midi": 60,
      "hit": false,
      "t": 93696.25650000005,
      "d": 1797.7884713541716,
      "v": 86
    },
    {
      "midi": 48,
      "hit": false,
      "t": 93696.25650000005,
      "d": 1907.641585937512,
      "v": 101
    },
    {
      "midi": 60,
      "hit": false,
      "t": 95724.31400000003,
      "d": 401.38638020833605,
      "v": 1
    },
    {
      "midi": 64,
      "hit": false,
      "t": 95724.31400000003,
      "d": 401.38638020833605,
      "v": 1
    },
    {
      "midi": 57,
      "hit": false,
      "t": 95724.31400000003,
      "d": 409.8366197916621,
      "v": 1
    },
    {
      "midi": 69,
      "hit": false,
      "t": 95724.31400000003,
      "d": 409.8366197916621,
      "v": 1
    },
    {
      "midi": 67,
      "hit": false,
      "t": 95724.31400000006,
      "d": 1153.4577031249937,
      "v": 96
    },
    {
      "midi": 60,
      "hit": false,
      "t": 95726.42655989589,
      "d": 1111.2065052083344,
      "v": 91
    },
    {
      "midi": 57,
      "hit": false,
      "t": 95730.65167968755,
      "d": 1111.2065052083344,
      "v": 96
    },
    {
      "midi": 41,
      "hit": false,
      "t": 95749.66471875005,
      "d": 1195.7089010416676,
      "v": 106
    },
    {
      "midi": 55,
      "hit": false,
      "t": 96129.92550000003,
      "d": 806.9978802083351,
      "v": 1
    },
    {
      "midi": 67,
      "hit": false,
      "t": 96129.92550000003,
      "d": 806.9978802083351,
      "v": 1
    },
    {
      "midi": 60,
      "hit": false,
      "t": 96129.92550000003,
      "d": 813.3355598958296,
      "v": 1
    },
    {
      "midi": 64,
      "hit": false,
      "t": 96129.92550000003,
      "d": 826.0109192708333,
      "v": 1
    },
    {
      "midi": 55,
      "hit": false,
      "t": 96941.14850000002,
      "d": 1618.2208802083333,
      "v": 1
    },
    {
      "midi": 59,
      "hit": false,
      "t": 96941.14850000002,
      "d": 1618.2208802083333,
      "v": 1
    },
    {
      "midi": 62,
      "hit": false,
      "t": 96941.14850000002,
      "d": 1618.2208802083333,
      "v": 1
    },
    {
      "midi": 67,
      "hit": false,
      "t": 96941.14850000002,
      "d": 1618.2208802083333,
      "v": 1
    },
    {
      "midi": 59,
      "hit": false,
      "t": 96941.14850000005,
      "d": 1920.316945312501,
      "v": 74
    },
    {
      "midi": 67,
      "hit": false,
      "t": 96941.14850000005,
      "d": 1930.8797447916731,
      "v": 96
    },
    {
      "midi": 62,
      "hit": false,
      "t": 96941.14850000005,
      "d": 1939.3299843750137,
      "v": 96
    },
    {
      "midi": 43,
      "hit": false,
      "t": 96962.27409895838,
      "d": 1966.7932630208525,
      "v": 91
    },
    {
      "midi": 55,
      "hit": false,
      "t": 98563.59450000002,
      "d": 401.38638020833605,
      "v": 1
    },
    {
      "midi": 59,
      "hit": false,
      "t": 98563.59450000002,
      "d": 401.38638020833605,
      "v": 1
    },
    {
      "midi": 65,
      "hit": false,
      "t": 98563.59450000002,
      "d": 401.38638020833605,
      "v": 1
    },
    {
      "midi": 67,
      "hit": false,
      "t": 98563.59450000002,
      "d": 401.38638020833605,
      "v": 1
    },
    {
      "midi": 52,
      "hit": false,
      "t": 98969.20600000002,
      "d": 1212.6093802083342,
      "v": 1
    },
    {
      "midi": 59,
      "hit": false,
      "t": 98969.20600000002,
      "d": 1212.6093802083342,
      "v": 1
    },
    {
      "midi": 64,
      "hit": false,
      "t": 98969.20600000002,
      "d": 1212.6093802083342,
      "v": 1
    },
    {
      "midi": 68,
      "hit": false,
      "t": 98969.20600000002,
      "d": 1212.6093802083342,
      "v": 1
    },
    {
      "midi": 40,
      "hit": false,
      "t": 98969.20600000006,
      "d": 1204.159140624979,
      "v": 106
    },
    {
      "midi": 52,
      "hit": false,
      "t": 98969.20600000006,
      "d": 1204.159140624979,
      "v": 106
    },
    {
      "midi": 59,
      "hit": false,
      "t": 98990.3315989584,
      "d": 1157.6828229166567,
      "v": 96
    },
    {
      "midi": 64,
      "hit": false,
      "t": 98992.44415885422,
      "d": 1176.6958619791549,
      "v": 106
    },
    {
      "midi": 68,
      "hit": false,
      "t": 98994.55671875006,
      "d": 1195.708901041653,
      "v": 106
    },
    {
      "midi": 57,
      "hit": false,
      "t": 100186.04050000002,
      "d": 2023.8323802083323,
      "v": 1
    },
    {
      "midi": 60,
      "hit": false,
      "t": 100186.04050000002,
      "d": 2023.8323802083323,
      "v": 1
    },
    {
      "midi": 64,
      "hit": false,
      "t": 100186.04050000002,
      "d": 2023.8323802083323,
      "v": 1
    },
    {
      "midi": 69,
      "hit": false,
      "t": 100186.04050000002,
      "d": 2023.8323802083323,
      "v": 1
    },
    {
      "midi": 45,
      "hit": false,
      "t": 100186.04050000005,
      "d": 1818.9140703124867,
      "v": 91
    },
    {
      "midi": 57,
      "hit": false,
      "t": 100186.04050000005,
      "d": 1818.9140703124867,
      "v": 91
    },
    {
      "midi": 60,
      "hit": false,
      "t": 100238.85449739588,
      "d": 1930.8797447916586,
      "v": 106
    },
    {
      "midi": 64,
      "hit": false,
      "t": 100243.07961718754,
      "d": 1945.6676640624937,
      "v": 91
    },
    {
      "midi": 69,
      "hit": false,
      "t": 100249.41729687504,
      "d": 1937.2174244791677,
      "v": 106
    },
    {
      "midi": 50,
      "hit": false,
      "t": 102214.09800000001,
      "d": 1212.6093802083342,
      "v": 1
    },
    {
      "midi": 57,
      "hit": false,
      "t": 102214.09800000001,
      "d": 1212.6093802083342,
      "v": 1
    },
    {
      "midi": 62,
      "hit": false,
      "t": 102214.09800000001,
      "d": 1212.6093802083342,
      "v": 1
    },
    {
      "midi": 66,
      "hit": false,
      "t": 102214.09800000001,
      "d": 1212.6093802083342,
      "v": 1
    },
    {
      "midi": 57,
      "hit": false,
      "t": 102214.09800000004,
      "d": 1109.093945312503,
      "v": 106
    },
    {
      "midi": 38,
      "hit": false,
      "t": 102214.09800000004,
      "d": 1248.5228984374844,
      "v": 86
    },
    {
      "midi": 50,
      "hit": false,
      "t": 102214.09800000004,
      "d": 1248.5228984374844,
      "v": 86
    },
    {
      "midi": 62,
      "hit": false,
      "t": 102216.21055989587,
      "d": 1130.2195442708326,
      "v": 112
    },
    {
      "midi": 66,
      "hit": false,
      "t": 102218.3231197917,
      "d": 1166.1330624999973,
      "v": 112
    },
    {
      "midi": 55,
      "hit": false,
      "t": 103430.93250000001,
      "d": 2023.8323802083323,
      "v": 1
    },
    {
      "midi": 59,
      "hit": false,
      "t": 103430.93250000001,
      "d": 2023.8323802083323,
      "v": 1
    },
    {
      "midi": 62,
      "hit": false,
      "t": 103430.93250000001,
      "d": 2023.8323802083323,
      "v": 1
    },
    {
      "midi": 67,
      "hit": false,
      "t": 103430.93250000001,
      "d": 2023.8323802083323,
      "v": 1
    },
    {
      "midi": 43,
      "hit": false,
      "t": 103430.93250000004,
      "d": 1945.6676640624937,
      "v": 96
    },
    {
      "midi": 55,
      "hit": false,
      "t": 103430.93250000004,
      "d": 1945.6676640624937,
      "v": 96
    },
    {
      "midi": 62,
      "hit": false,
      "t": 103430.93250000004,
      "d": 2036.5077395833214,
      "v": 101
    },
    {
      "midi": 59,
      "hit": false,
      "t": 103437.27017968753,
      "d": 2013.2695807291602,
      "v": 101
    },
    {
      "midi": 67,
      "hit": false,
      "t": 103441.4952994792,
      "d": 2028.0574999999953,
      "v": 96
    },
    {
      "midi": 55,
      "hit": false,
      "t": 105450.5397604167,
      "d": 1100.6437057291623,
      "v": 101
    },
    {
      "midi": 60,
      "hit": false,
      "t": 105452.65232031253,
      "d": 1113.319065104166,
      "v": 112
    },
    {
      "midi": 64,
      "hit": false,
      "t": 105452.65232031253,
      "d": 1191.4837812500045,
      "v": 112
    },
    {
      "midi": 48,
      "hit": false,
      "t": 105458.99,
      "d": 401.38638020833605,
      "v": 1
    },
    {
      "midi": 60,
      "hit": false,
      "t": 105458.99,
      "d": 401.38638020833605,
      "v": 1
    },
    {
      "midi": 64,
      "hit": false,
      "t": 105458.99,
      "d": 401.38638020833605,
      "v": 1
    },
    {
      "midi": 67,
      "hit": false,
      "t": 105458.99,
      "d": 401.38638020833605,
      "v": 1
    },
    {
      "midi": 48,
      "hit": false,
      "t": 105458.99000000002,
      "d": 1193.596341145836,
      "v": 118
    },
    {
      "midi": 64,
      "hit": false,
      "t": 105864.6015,
      "d": 775.3094817708334,
      "v": 1
    },
    {
      "midi": 60,
      "hit": false,
      "t": 105864.6015,
      "d": 806.9978802083351,
      "v": 1
    },
    {
      "midi": 52,
      "hit": false,
      "t": 105864.6015,
      "d": 811.2229999999981,
      "v": 1
    },
    {
      "midi": 60,
      "hit": false,
      "t": 106648.3612213542,
      "d": 1987.918861979153,
      "v": 106
    },
    {
      "midi": 57,
      "hit": false,
      "t": 106650.47378125002,
      "d": 1964.6807031249919,
      "v": 106
    },
    {
      "midi": 65,
      "hit": false,
      "t": 106652.58634114586,
      "d": 1987.918861979153,
      "v": 112
    },
    {
      "midi": 53,
      "hit": false,
      "t": 106675.8245,
      "d": 1618.2208802083333,
      "v": 1
    },
    {
      "midi": 60,
      "hit": false,
      "t": 106675.8245,
      "d": 1618.2208802083333,
      "v": 1
    },
    {
      "midi": 65,
      "hit": false,
      "t": 106675.8245,
      "d": 1618.2208802083333,
      "v": 1
    },
    {
      "midi": 53,
      "hit": false,
      "t": 106675.82450000002,
      "d": 1818.9140703125013,
      "v": 91
    },
    {
      "midi": 53,
      "hit": false,
      "t": 108298.2705,
      "d": 401.38638020833605,
      "v": 1
    },
    {
      "midi": 57,
      "hit": false,
      "t": 108298.2705,
      "d": 401.38638020833605,
      "v": 1
    },
    {
      "midi": 65,
      "hit": false,
      "t": 108298.2705,
      "d": 401.38638020833605,
      "v": 1
    },
    {
      "midi": 72,
      "hit": false,
      "t": 108699.65688020835,
      "d": 1172.4707421874773,
      "v": 112
    },
    {
      "midi": 62,
      "hit": false,
      "t": 108703.882,
      "d": 401.38638020833605,
      "v": 1
    },
    {
      "midi": 65,
      "hit": false,
      "t": 108703.882,
      "d": 401.38638020833605,
      "v": 1
    },
    {
      "midi": 69,
      "hit": false,
      "t": 108703.882,
      "d": 420.3994192708342,
      "v": 1
    },
    {
      "midi": 50,
      "hit": false,
      "t": 108703.882,
      "d": 424.6245390624972,
      "v": 1
    },
    {
      "midi": 50,
      "hit": false,
      "t": 108703.88200000001,
      "d": 1193.5963411458215,
      "v": 118
    },
    {
      "midi": 69,
      "hit": false,
      "t": 108708.10711979168,
      "d": 1174.5833020833234,
      "v": 101
    },
    {
      "midi": 65,
      "hit": false,
      "t": 108710.2196796875,
      "d": 1100.6437057291623,
      "v": 101
    },
    {
      "midi": 62,
      "hit": false,
      "t": 108710.2196796875,
      "d": 1104.8688255208253,
      "v": 101
    },
    {
      "midi": 65,
      "hit": false,
      "t": 109109.4935,
      "d": 800.660200520826,
      "v": 1
    },
    {
      "midi": 67,
      "hit": false,
      "t": 109109.4935,
      "d": 806.9978802083206,
      "v": 1
    },
    {
      "midi": 53,
      "hit": false,
      "t": 109109.4935,
      "d": 813.3355598958151,
      "v": 1
    },
    {
      "midi": 60,
      "hit": false,
      "t": 109109.4935,
      "d": 817.5606796874781,
      "v": 1
    },
    {
      "midi": 62,
      "hit": false,
      "t": 109912.26626041667,
      "d": 1992.1439817708451,
      "v": 96
    },
    {
      "midi": 55,
      "hit": false,
      "t": 109920.71649999998,
      "d": 2023.8323802083323,
      "v": 1
    },
    {
      "midi": 59,
      "hit": false,
      "t": 109920.71649999998,
      "d": 2023.8323802083323,
      "v": 1
    },
    {
      "midi": 67,
      "hit": false,
      "t": 109920.71649999998,
      "d": 2023.8323802083323,
      "v": 1
    },
    {
      "midi": 55,
      "hit": false,
      "t": 109920.71650000001,
      "d": 1818.9140703125013,
      "v": 91
    },
    {
      "midi": 67,
      "hit": false,
      "t": 109924.94161979167,
      "d": 2015.3821406250063,
      "v": 101
    },
    {
      "midi": 71,
      "hit": false,
      "t": 109924.94161979167,
      "d": 2015.3821406250063,
      "v": 106
    },
    {
      "midi": 59,
      "hit": false,
      "t": 111948.77399999998,
      "d": 1212.6093802083342,
      "v": 1
    },
    {
      "midi": 62,
      "hit": false,
      "t": 111948.77399999998,
      "d": 1212.6093802083342,
      "v": 1
    },
    {
      "midi": 67,
      "hit": false,
      "t": 111948.77399999998,
      "d": 1212.6093802083342,
      "v": 1
    },
    {
      "midi": 60,
      "hit": false,
      "t": 113165.60849999997,
      "d": 2023.8323802083323,
      "v": 1
    },
    {
      "midi": 64,
      "hit": false,
      "t": 113165.60849999997,
      "d": 2023.8323802083323,
      "v": 1
    },
    {
      "midi": 67,
      "hit": false,
      "t": 113165.60849999997,
      "d": 2023.8323802083323,
      "v": 1
    },
    {
      "midi": 60,
      "hit": false,
      "t": 115193.66599999997,
      "d": 1212.6093802083342,
      "v": 1
    },
    {
      "midi": 65,
      "hit": false,
      "t": 115193.66599999997,
      "d": 1212.6093802083342,
      "v": 1
    },
    {
      "midi": 69,
      "hit": false,
      "t": 115193.66599999997,
      "d": 1212.6093802083342,
      "v": 1
    },
    {
      "midi": 62,
      "hit": false,
      "t": 116410.50049999997,
      "d": 2023.8323802083323,
      "v": 1
    },
    {
      "midi": 67,
      "hit": false,
      "t": 116410.50049999997,
      "d": 2023.8323802083323,
      "v": 1
    },
    {
      "midi": 55,
      "hit": false,
      "t": 118438.55799999996,
      "d": 1212.6093802083342,
      "v": 1
    },
    {
      "midi": 62,
      "hit": false,
      "t": 118438.55799999996,
      "d": 1212.6093802083342,
      "v": 1
    },
    {
      "midi": 67,
      "hit": false,
      "t": 118438.55799999996,
      "d": 1212.6093802083342,
      "v": 1
    },
    {
      "midi": 57,
      "hit": false,
      "t": 119655.39249999996,
      "d": 1212.6093802083342,
      "v": 1
    },
    {
      "midi": 64,
      "hit": false,
      "t": 119655.39249999996,
      "d": 1212.6093802083342,
      "v": 1
    },
    {
      "midi": 69,
      "hit": false,
      "t": 119655.39249999996,
      "d": 1212.6093802083342,
      "v": 1
    },
    {
      "midi": 57,
      "hit": false,
      "t": 120872.22699999996,
      "d": 1212.6093802083342,
      "v": 1
    },
    {
      "midi": 64,
      "hit": false,
      "t": 120872.22699999996,
      "d": 1212.6093802083342,
      "v": 1
    },
    {
      "midi": 55,
      "hit": false,
      "t": 122089.06149999995,
      "d": 806.9978802083351,
      "v": 1
    },
    {
      "midi": 62,
      "hit": false,
      "t": 122089.06149999995,
      "d": 806.9978802083351,
      "v": 1
    },
    {
      "midi": 57,
      "hit": false,
      "t": 122900.28449999995,
      "d": 2023.8323802083323,
      "v": 1
    },
    {
      "midi": 64,
      "hit": false,
      "t": 122900.28449999995,
      "d": 2023.8323802083323,
      "v": 1
    },
    {
      "midi": 57,
      "hit": false,
      "t": 124928.34199999995,
      "d": 1212.6093802083342,
      "v": 1
    },
    {
      "midi": 62,
      "hit": false,
      "t": 124928.34199999995,
      "d": 1212.6093802083342,
      "v": 1
    },
    {
      "midi": 65,
      "hit": false,
      "t": 124928.34199999995,
      "d": 1212.6093802083342,
      "v": 1
    },
    {
      "midi": 55,
      "hit": false,
      "t": 126145.17649999994,
      "d": 1212.6093802083342,
      "v": 1
    },
    {
      "midi": 60,
      "hit": false,
      "t": 126145.17649999994,
      "d": 1212.6093802083342,
      "v": 1
    },
    {
      "midi": 64,
      "hit": false,
      "t": 126145.17649999994,
      "d": 1212.6093802083342,
      "v": 1
    },
    {
      "midi": 67,
      "hit": false,
      "t": 126145.17649999994,
      "d": 1212.6093802083342,
      "v": 1
    },
    {
      "midi": 55,
      "hit": false,
      "t": 127362.01099999994,
      "d": 1212.6093802083342,
      "v": 1
    },
    {
      "midi": 64,
      "hit": false,
      "t": 127362.01099999994,
      "d": 1212.6093802083342,
      "v": 1
    },
    {
      "midi": 55,
      "hit": false,
      "t": 128578.84549999994,
      "d": 806.9978802083351,
      "v": 1
    },
    {
      "midi": 62,
      "hit": false,
      "t": 128578.84549999994,
      "d": 806.9978802083351,
      "v": 1
    },
    {
      "midi": 64,
      "hit": false,
      "t": 129390.06849999994,
      "d": 3240.6668802083295,
      "v": 1
    },
    {
      "midi": 60,
      "hit": false,
      "t": 129390.06849999994,
      "d": 3646.2783802083286,
      "v": 1
    },
    {
      "midi": 41,
      "hit": false,
      "t": 133040.57200000001,
      "d": 3173.064963541663,
      "v": 102
    },
    {
      "midi": 53,
      "hit": false,
      "t": 133040.57200000001,
      "d": 3173.064963541663,
      "v": 102
    },
    {
      "midi": 57,
      "hit": false,
      "t": 133040.57200000001,
      "d": 3173.064963541663,
      "v": 102
    },
    {
      "midi": 40,
      "hit": false,
      "t": 136285.464,
      "d": 3173.064963541663,
      "v": 96
    },
    {
      "midi": 52,
      "hit": false,
      "t": 136285.464,
      "d": 3173.064963541663,
      "v": 96
    },
    {
      "midi": 56,
      "hit": false,
      "t": 136285.464,
      "d": 3173.064963541663,
      "v": 96
    },
    {
      "midi": 59,
      "hit": false,
      "t": 136285.464,
      "d": 3173.064963541663,
      "v": 96
    },
    {
      "midi": 55,
      "hit": false,
      "t": 139530.356,
      "d": 4497.640018229169,
      "v": 82
    },
    {
      "midi": 45,
      "hit": false,
      "t": 139530.356,
      "d": 4512.427937500004,
      "v": 91
    },
    {
      "midi": 64,
      "hit": false,
      "t": 139530.356,
      "d": 4520.87817708333,
      "v": 82
    },
    {
      "midi": 60,
      "hit": false,
      "t": 139530.356,
      "d": 4550.4540156250005,
      "v": 91
    },
    {
      "midi": 57,
      "hit": false,
      "t": 139530.356,
      "d": 4552.5665755208465,
      "v": 91
    },
    {
      "midi": 57,
      "hit": false,
      "t": 141964.02499999994,
      "d": 198.58063020833652,
      "v": 1
    },
    {
      "midi": 64,
      "hit": false,
      "t": 141964.02499999994,
      "d": 198.58063020833652,
      "v": 1
    },
    {
      "midi": 57,
      "hit": false,
      "t": 142166.83074999994,
      "d": 401.38638020833605,
      "v": 1
    },
    {
      "midi": 60,
      "hit": false,
      "t": 142166.83074999994,
      "d": 401.38638020833605,
      "v": 1
    },
    {
      "midi": 64,
      "hit": false,
      "t": 142166.83074999994,
      "d": 401.38638020833605,
      "v": 1
    },
    {
      "midi": 60,
      "hit": false,
      "t": 142572.44224999993,
      "d": 604.1921302083356,
      "v": 1
    },
    {
      "midi": 64,
      "hit": false,
      "t": 142572.44224999993,
      "d": 604.1921302083356,
      "v": 1
    },
    {
      "midi": 67,
      "hit": false,
      "t": 142572.44224999993,
      "d": 604.1921302083356,
      "v": 1
    },
    {
      "midi": 59,
      "hit": false,
      "t": 143180.85949999993,
      "d": 359.13518229167676,
      "v": 1
    },
    {
      "midi": 67,
      "hit": false,
      "t": 143180.85949999993,
      "d": 359.13518229167676,
      "v": 1
    },
    {
      "midi": 62,
      "hit": false,
      "t": 143180.85949999993,
      "d": 424.6245390624972,
      "v": 1
    },
    {
      "midi": 57,
      "hit": false,
      "t": 143586.47099999993,
      "d": 378.1482213541749,
      "v": 1
    },
    {
      "midi": 67,
      "hit": false,
      "t": 143586.47099999993,
      "d": 378.1482213541749,
      "v": 1
    },
    {
      "midi": 60,
      "hit": false,
      "t": 143586.47099999993,
      "d": 418.2868593749881,
      "v": 1
    },
    {
      "midi": 59,
      "hit": false,
      "t": 143992.08249999993,
      "d": 401.38638020833605,
      "v": 1
    },
    {
      "midi": 62,
      "hit": false,
      "t": 143992.08249999993,
      "d": 401.38638020833605,
      "v": 1
    },
    {
      "midi": 67,
      "hit": false,
      "t": 143992.08249999993,
      "d": 401.38638020833605,
      "v": 1
    },
    {
      "midi": 57,
      "hit": false,
      "t": 144397.69399999993,
      "d": 1314.012255208334,
      "v": 1
    },
    {
      "midi": 60,
      "hit": false,
      "t": 144397.69399999993,
      "d": 1314.012255208334,
      "v": 1
    },
    {
      "midi": 64,
      "hit": false,
      "t": 144397.69399999993,
      "d": 1314.012255208334,
      "v": 1
    },
    {
      "midi": 60,
      "hit": false,
      "t": 146020.14,
      "d": 1172.4707421874919,
      "v": 106
    },
    {
      "midi": 50,
      "hit": false,
      "t": 146020.14,
      "d": 3230.1040807291574,
      "v": 112
    },
    {
      "midi": 65,
      "hit": false,
      "t": 146020.14,
      "d": 3238.5543203124835,
      "v": 101
    },
    {
      "midi": 57,
      "hit": false,
      "t": 147236.9745,
      "d": 1998.481661458325,
      "v": 101
    },
    {
      "midi": 62,
      "hit": false,
      "t": 149265.032,
      "d": 2.1125598958460614,
      "v": 106
    },
    {
      "midi": 47,
      "hit": false,
      "t": 149265.032,
      "d": 3280.805518229201,
      "v": 91
    },
    {
      "midi": 40,
      "hit": false,
      "t": 149265.032,
      "d": 3289.255757812527,
      "v": 96
    },
    {
      "midi": 60,
      "hit": false,
      "t": 150481.86650000003,
      "d": 1237.9600989583414,
      "v": 96
    },
    {
      "midi": 59,
      "hit": false,
      "t": 152509.92400000003,
      "d": 40.138638020842336,
      "v": 101
    },
    {
      "midi": 45,
      "hit": false,
      "t": 152509.92400000003,
      "d": 3838.521330729156,
      "v": 96
    },
    {
      "midi": 52,
      "hit": false,
      "t": 152509.92400000003,
      "d": 3901.8981276041595,
      "v": 96
    },
    {
      "midi": 57,
      "hit": false,
      "t": 153726.75850000003,
      "d": 2701.9641067708435,
      "v": 96
    },
    {
      "midi": 55,
      "hit": false,
      "t": 154943.59299999994,
      "d": 198.58063020833652,
      "v": 1
    },
    {
      "midi": 57,
      "hit": false,
      "t": 154943.59299999994,
      "d": 198.58063020833652,
      "v": 1
    },
    {
      "midi": 64,
      "hit": false,
      "t": 154943.59299999994,
      "d": 198.58063020833652,
      "v": 1
    },
    {
      "midi": 55,
      "hit": false,
      "t": 155146.39874999993,
      "d": 401.38638020833605,
      "v": 1
    },
    {
      "midi": 60,
      "hit": false,
      "t": 155146.39874999993,
      "d": 401.38638020833605,
      "v": 1
    },
    {
      "midi": 64,
      "hit": false,
      "t": 155146.39874999993,
      "d": 401.38638020833605,
      "v": 1
    },
    {
      "midi": 60,
      "hit": false,
      "t": 155552.01024999993,
      "d": 604.1921302083356,
      "v": 1
    },
    {
      "midi": 64,
      "hit": false,
      "t": 155552.01024999993,
      "d": 604.1921302083356,
      "v": 1
    },
    {
      "midi": 67,
      "hit": false,
      "t": 155552.01024999993,
      "d": 604.1921302083356,
      "v": 1
    },
    {
      "midi": 60,
      "hit": false,
      "t": 156160.42749999993,
      "d": 401.38638020833605,
      "v": 1
    },
    {
      "midi": 62,
      "hit": false,
      "t": 156160.42749999993,
      "d": 401.38638020833605,
      "v": 1
    },
    {
      "midi": 67,
      "hit": false,
      "t": 156160.42749999993,
      "d": 401.38638020833605,
      "v": 1
    },
    {
      "midi": 57,
      "hit": false,
      "t": 156566.03899999993,
      "d": 198.58063020833652,
      "v": 1
    },
    {
      "midi": 60,
      "hit": false,
      "t": 156566.03899999993,
      "d": 198.58063020833652,
      "v": 1
    },
    {
      "midi": 64,
      "hit": false,
      "t": 156566.03899999993,
      "d": 198.58063020833652,
      "v": 1
    },
    {
      "midi": 57,
      "hit": false,
      "t": 156768.84474999993,
      "d": 401.38638020833605,
      "v": 1
    },
    {
      "midi": 62,
      "hit": false,
      "t": 156768.84474999993,
      "d": 401.38638020833605,
      "v": 1
    },
    {
      "midi": 64,
      "hit": false,
      "t": 156768.84474999993,
      "d": 401.38638020833605,
      "v": 1
    },
    {
      "midi": 60,
      "hit": false,
      "t": 157174.45624999993,
      "d": 604.1921302083356,
      "v": 1
    },
    {
      "midi": 64,
      "hit": false,
      "t": 157174.45624999993,
      "d": 604.1921302083356,
      "v": 1
    },
    {
      "midi": 67,
      "hit": false,
      "t": 157174.45624999993,
      "d": 604.1921302083356,
      "v": 1
    },
    {
      "midi": 59,
      "hit": false,
      "t": 157782.87349999993,
      "d": 401.38638020833605,
      "v": 1
    },
    {
      "midi": 62,
      "hit": false,
      "t": 157782.87349999993,
      "d": 401.38638020833605,
      "v": 1
    },
    {
      "midi": 67,
      "hit": false,
      "t": 157782.87349999993,
      "d": 401.38638020833605,
      "v": 1
    },
    {
      "midi": 57,
      "hit": false,
      "t": 158188.48499999993,
      "d": 378.1482213541749,
      "v": 1
    },
    {
      "midi": 67,
      "hit": false,
      "t": 158188.48499999993,
      "d": 378.1482213541749,
      "v": 1
    },
    {
      "midi": 60,
      "hit": false,
      "t": 158188.48499999993,
      "d": 418.2868593749881,
      "v": 1
    },
    {
      "midi": 59,
      "hit": false,
      "t": 158594.09649999993,
      "d": 401.38638020833605,
      "v": 1
    },
    {
      "midi": 62,
      "hit": false,
      "t": 158594.09649999993,
      "d": 401.38638020833605,
      "v": 1
    },
    {
      "midi": 67,
      "hit": false,
      "t": 158594.09649999993,
      "d": 401.38638020833605,
      "v": 1
    },
    {
      "midi": 50,
      "hit": false,
      "t": 158999.70800000004,
      "d": 3173.064963541663,
      "v": 102
    },
    {
      "midi": 60,
      "hit": false,
      "t": 158999.70800000004,
      "d": 3173.064963541663,
      "v": 102
    },
    {
      "midi": 62,
      "hit": false,
      "t": 158999.70800000004,
      "d": 3173.064963541663,
      "v": 102
    },
    {
      "midi": 65,
      "hit": false,
      "t": 158999.70800000004,
      "d": 3173.064963541663,
      "v": 102
    },
    {
      "midi": 69,
      "hit": false,
      "t": 158999.70800000004,
      "d": 3173.064963541663,
      "v": 102
    },
    {
      "midi": 52,
      "hit": false,
      "t": 162244.60000000003,
      "d": 3173.064963541663,
      "v": 100
    },
    {
      "midi": 62,
      "hit": false,
      "t": 162244.60000000003,
      "d": 3173.064963541663,
      "v": 100
    },
    {
      "midi": 64,
      "hit": false,
      "t": 162244.60000000003,
      "d": 3173.064963541663,
      "v": 100
    },
    {
      "midi": 67,
      "hit": false,
      "t": 162244.60000000003,
      "d": 3173.064963541663,
      "v": 100
    },
    {
      "midi": 71,
      "hit": false,
      "t": 162244.60000000003,
      "d": 3173.064963541663,
      "v": 100
    },
    {
      "midi": 53,
      "hit": false,
      "t": 165489.49200000003,
      "d": 1601.320401041652,
      "v": 102
    },
    {
      "midi": 62,
      "hit": false,
      "t": 165489.49200000003,
      "d": 3179.402643229172,
      "v": 102
    },
    {
      "midi": 65,
      "hit": false,
      "t": 165489.49200000003,
      "d": 3196.3031223958533,
      "v": 102
    },
    {
      "midi": 72,
      "hit": false,
      "t": 165489.49200000003,
      "d": 3202.6408020833624,
      "v": 102
    },
    {
      "midi": 69,
      "hit": false,
      "t": 165489.49200000003,
      "d": 3204.7533619792084,
      "v": 102
    },
    {
      "midi": 50,
      "hit": false,
      "t": 167111.93800000002,
      "d": 1601.3204010417103,
      "v": 98
    },
    {
      "midi": 72,
      "hit": false,
      "t": 168734.38400000008,
      "d": 1618.2208802083333,
      "v": 91
    },
    {
      "midi": 55,
      "hit": false,
      "t": 168734.38400000008,
      "d": 3223.7664010416775,
      "v": 91
    },
    {
      "midi": 74,
      "hit": false,
      "t": 168734.38400000008,
      "d": 3223.7664010416775,
      "v": 101
    },
    {
      "midi": 55,
      "hit": false,
      "t": 170356.82999999993,
      "d": 401.38638020833605,
      "v": 1
    },
    {
      "midi": 59,
      "hit": false,
      "t": 170356.82999999993,
      "d": 401.38638020833605,
      "v": 1
    },
    {
      "midi": 62,
      "hit": false,
      "t": 170356.82999999993,
      "d": 401.38638020833605,
      "v": 1
    },
    {
      "midi": 67,
      "hit": false,
      "t": 170356.82999999993,
      "d": 401.38638020833605,
      "v": 1
    },
    {
      "midi": 47,
      "hit": false,
      "t": 170356.83000000007,
      "d": 1227.3972994791984,
      "v": 106
    },
    {
      "midi": 71,
      "hit": false,
      "t": 170356.83000000007,
      "d": 1618.2208802083624,
      "v": 91
    },
    {
      "midi": 59,
      "hit": false,
      "t": 170399.08119791673,
      "d": 1172.470742187521,
      "v": 96
    },
    {
      "midi": 62,
      "hit": false,
      "t": 170399.08119791673,
      "d": 1223.1721796875354,
      "v": 91
    },
    {
      "midi": 55,
      "hit": false,
      "t": 170762.44149999993,
      "d": 401.38638020833605,
      "v": 1
    },
    {
      "midi": 59,
      "hit": false,
      "t": 170762.44149999993,
      "d": 401.38638020833605,
      "v": 1
    },
    {
      "midi": 64,
      "hit": false,
      "t": 170762.44149999993,
      "d": 401.38638020833605,
      "v": 1
    },
    {
      "midi": 67,
      "hit": false,
      "t": 170762.44149999993,
      "d": 401.38638020833605,
      "v": 1
    },
    {
      "midi": 55,
      "hit": false,
      "t": 171168.05299999993,
      "d": 401.38638020833605,
      "v": 1
    },
    {
      "midi": 59,
      "hit": false,
      "t": 171168.05299999993,
      "d": 401.38638020833605,
      "v": 1
    },
    {
      "midi": 67,
      "hit": false,
      "t": 171168.05299999993,
      "d": 401.38638020833605,
      "v": 1
    },
    {
      "midi": 65,
      "hit": false,
      "t": 171168.05299999993,
      "d": 405.61149999999907,
      "v": 1
    },
    {
      "midi": 55,
      "hit": false,
      "t": 171573.66449999993,
      "d": 2023.8323802083323,
      "v": 1
    },
    {
      "midi": 60,
      "hit": false,
      "t": 171573.66449999993,
      "d": 2023.8323802083323,
      "v": 1
    },
    {
      "midi": 64,
      "hit": false,
      "t": 171573.66449999993,
      "d": 2023.8323802083323,
      "v": 1
    },
    {
      "midi": 67,
      "hit": false,
      "t": 171573.66449999993,
      "d": 2023.8323802083323,
      "v": 1
    },
    {
      "midi": 67,
      "hit": false,
      "t": 171573.6645000001,
      "d": 42.251197916659294,
      "v": 96
    },
    {
      "midi": 64,
      "hit": false,
      "t": 171573.6645000001,
      "d": 1755.5372734375123,
      "v": 91
    },
    {
      "midi": 60,
      "hit": false,
      "t": 171573.6645000001,
      "d": 1797.7884713541716,
      "v": 86
    },
    {
      "midi": 48,
      "hit": false,
      "t": 171573.6645000001,
      "d": 1907.6415859374974,
      "v": 101
    },
    {
      "midi": 55,
      "hit": false,
      "t": 173601.72199999992,
      "d": 1212.6093802083342,
      "v": 1
    },
    {
      "midi": 57,
      "hit": false,
      "t": 173601.72199999992,
      "d": 1212.6093802083342,
      "v": 1
    },
    {
      "midi": 60,
      "hit": false,
      "t": 173601.72199999992,
      "d": 1212.6093802083342,
      "v": 1
    },
    {
      "midi": 67,
      "hit": false,
      "t": 173601.72199999992,
      "d": 1212.6093802083342,
      "v": 1
    },
    {
      "midi": 67,
      "hit": false,
      "t": 173601.7220000001,
      "d": 1153.4577031250228,
      "v": 96
    },
    {
      "midi": 60,
      "hit": false,
      "t": 173603.83455989594,
      "d": 804.8853203124891,
      "v": 91
    },
    {
      "midi": 57,
      "hit": false,
      "t": 173608.0596796876,
      "d": 680.2442864583281,
      "v": 96
    },
    {
      "midi": 41,
      "hit": false,
      "t": 173627.0727187501,
      "d": 1195.708901041682,
      "v": 106
    },
    {
      "midi": 59,
      "hit": false,
      "t": 174412.9450000001,
      "d": 314.7714244791714,
      "v": 82
    },
    {
      "midi": 62,
      "hit": false,
      "t": 174412.9450000001,
      "d": 331.6719036458526,
      "v": 91
    },
    {
      "midi": 55,
      "hit": false,
      "t": 174818.55649999992,
      "d": 2429.4438802083314,
      "v": 1
    },
    {
      "midi": 59,
      "hit": false,
      "t": 174818.55649999992,
      "d": 2429.4438802083314,
      "v": 1
    },
    {
      "midi": 62,
      "hit": false,
      "t": 174818.55649999992,
      "d": 2429.4438802083314,
      "v": 1
    },
    {
      "midi": 67,
      "hit": false,
      "t": 174818.55649999992,
      "d": 2429.4438802083314,
      "v": 1
    },
    {
      "midi": 59,
      "hit": false,
      "t": 174818.55650000012,
      "d": 1920.3169453125156,
      "v": 74
    },
    {
      "midi": 67,
      "hit": false,
      "t": 174818.55650000012,
      "d": 1930.8797447916877,
      "v": 96
    },
    {
      "midi": 62,
      "hit": false,
      "t": 174818.55650000012,
      "d": 1939.3299843750137,
      "v": 96
    },
    {
      "midi": 43,
      "hit": false,
      "t": 174839.68209895847,
      "d": 1966.793263020838,
      "v": 91
    },
    {
      "midi": 47,
      "hit": false,
      "t": 176846.61400000015,
      "d": 1227.3972994791984,
      "v": 106
    },
    {
      "midi": 59,
      "hit": false,
      "t": 176888.8651979168,
      "d": 1172.470742187521,
      "v": 96
    },
    {
      "midi": 62,
      "hit": false,
      "t": 176888.8651979168,
      "d": 1223.1721796875354,
      "v": 91
    },
    {
      "midi": 55,
      "hit": false,
      "t": 177252.2254999999,
      "d": 401.38638020833605,
      "v": 1
    },
    {
      "midi": 59,
      "hit": false,
      "t": 177252.2254999999,
      "d": 401.38638020833605,
      "v": 1
    },
    {
      "midi": 64,
      "hit": false,
      "t": 177252.2254999999,
      "d": 401.38638020833605,
      "v": 1
    },
    {
      "midi": 67,
      "hit": false,
      "t": 177252.2254999999,
      "d": 401.38638020833605,
      "v": 1
    },
    {
      "midi": 55,
      "hit": false,
      "t": 177657.8369999999,
      "d": 401.38638020833605,
      "v": 1
    },
    {
      "midi": 59,
      "hit": false,
      "t": 177657.8369999999,
      "d": 401.38638020833605,
      "v": 1
    },
    {
      "midi": 65,
      "hit": false,
      "t": 177657.8369999999,
      "d": 401.38638020833605,
      "v": 1
    },
    {
      "midi": 67,
      "hit": false,
      "t": 177657.8369999999,
      "d": 401.38638020833605,
      "v": 1
    },
    {
      "midi": 55,
      "hit": false,
      "t": 178063.4484999999,
      "d": 2023.8323802083323,
      "v": 1
    },
    {
      "midi": 60,
      "hit": false,
      "t": 178063.4484999999,
      "d": 2023.8323802083323,
      "v": 1
    },
    {
      "midi": 64,
      "hit": false,
      "t": 178063.4484999999,
      "d": 2023.8323802083323,
      "v": 1
    },
    {
      "midi": 67,
      "hit": false,
      "t": 178063.4484999999,
      "d": 2023.8323802083323,
      "v": 1
    },
    {
      "midi": 67,
      "hit": false,
      "t": 178063.44850000017,
      "d": 42.251197916659294,
      "v": 96
    },
    {
      "midi": 64,
      "hit": false,
      "t": 178063.44850000017,
      "d": 1755.5372734375123,
      "v": 91
    },
    {
      "midi": 60,
      "hit": false,
      "t": 178063.44850000017,
      "d": 1797.7884713541716,
      "v": 86
    },
    {
      "midi": 48,
      "hit": false,
      "t": 178063.44850000017,
      "d": 1907.6415859374974,
      "v": 101
    },
    {
      "midi": 60,
      "hit": false,
      "t": 180091.5059999999,
      "d": 401.38638020833605,
      "v": 1
    },
    {
      "midi": 64,
      "hit": false,
      "t": 180091.5059999999,
      "d": 401.38638020833605,
      "v": 1
    },
    {
      "midi": 57,
      "hit": false,
      "t": 180091.5059999999,
      "d": 409.8366197916621,
      "v": 1
    },
    {
      "midi": 69,
      "hit": false,
      "t": 180091.5059999999,
      "d": 409.8366197916621,
      "v": 1
    },
    {
      "midi": 67,
      "hit": false,
      "t": 180091.50600000017,
      "d": 1153.4577031250228,
      "v": 96
    },
    {
      "midi": 60,
      "hit": false,
      "t": 180093.61855989601,
      "d": 1111.2065052083344,
      "v": 91
    },
    {
      "midi": 57,
      "hit": false,
      "t": 180097.84367968768,
      "d": 1111.2065052083344,
      "v": 96
    },
    {
      "midi": 41,
      "hit": false,
      "t": 180116.85671875018,
      "d": 1195.708901041682,
      "v": 106
    },
    {
      "midi": 55,
      "hit": false,
      "t": 180497.1174999999,
      "d": 806.9978802083351,
      "v": 1
    },
    {
      "midi": 67,
      "hit": false,
      "t": 180497.1174999999,
      "d": 806.9978802083351,
      "v": 1
    },
    {
      "midi": 60,
      "hit": false,
      "t": 180497.1174999999,
      "d": 813.3355598958442,
      "v": 1
    },
    {
      "midi": 64,
      "hit": false,
      "t": 180497.1174999999,
      "d": 826.0109192708333,
      "v": 1
    },
    {
      "midi": 55,
      "hit": false,
      "t": 181308.3404999999,
      "d": 1618.2208802083333,
      "v": 1
    },
    {
      "midi": 59,
      "hit": false,
      "t": 181308.3404999999,
      "d": 1618.2208802083333,
      "v": 1
    },
    {
      "midi": 62,
      "hit": false,
      "t": 181308.3404999999,
      "d": 1618.2208802083333,
      "v": 1
    },
    {
      "midi": 67,
      "hit": false,
      "t": 181308.3404999999,
      "d": 1618.2208802083333,
      "v": 1
    },
    {
      "midi": 59,
      "hit": false,
      "t": 181308.3405000002,
      "d": 1920.3169453125156,
      "v": 74
    },
    {
      "midi": 67,
      "hit": false,
      "t": 181308.3405000002,
      "d": 1930.8797447916877,
      "v": 96
    },
    {
      "midi": 62,
      "hit": false,
      "t": 181308.3405000002,
      "d": 1939.3299843750137,
      "v": 96
    },
    {
      "midi": 43,
      "hit": false,
      "t": 181329.46609895854,
      "d": 1966.793263020838,
      "v": 91
    },
    {
      "midi": 55,
      "hit": false,
      "t": 182930.7864999999,
      "d": 401.38638020833605,
      "v": 1
    },
    {
      "midi": 59,
      "hit": false,
      "t": 182930.7864999999,
      "d": 401.38638020833605,
      "v": 1
    },
    {
      "midi": 65,
      "hit": false,
      "t": 182930.7864999999,
      "d": 401.38638020833605,
      "v": 1
    },
    {
      "midi": 67,
      "hit": false,
      "t": 182930.7864999999,
      "d": 401.38638020833605,
      "v": 1
    },
    {
      "midi": 52,
      "hit": false,
      "t": 183336.3979999999,
      "d": 1212.6093802083342,
      "v": 1
    },
    {
      "midi": 59,
      "hit": false,
      "t": 183336.3979999999,
      "d": 1212.6093802083342,
      "v": 1
    },
    {
      "midi": 64,
      "hit": false,
      "t": 183336.3979999999,
      "d": 1212.6093802083342,
      "v": 1
    },
    {
      "midi": 68,
      "hit": false,
      "t": 183336.3979999999,
      "d": 1212.6093802083342,
      "v": 1
    },
    {
      "midi": 40,
      "hit": false,
      "t": 183336.39800000022,
      "d": 1204.1591406250373,
      "v": 106
    },
    {
      "midi": 52,
      "hit": false,
      "t": 183336.39800000022,
      "d": 1204.1591406250373,
      "v": 106
    },
    {
      "midi": 59,
      "hit": false,
      "t": 183357.52359895856,
      "d": 1157.6828229166858,
      "v": 96
    },
    {
      "midi": 64,
      "hit": false,
      "t": 183359.6361588544,
      "d": 1176.695861979184,
      "v": 106
    },
    {
      "midi": 68,
      "hit": false,
      "t": 183361.74871875026,
      "d": 1195.708901041653,
      "v": 106
    },
    {
      "midi": 57,
      "hit": false,
      "t": 184553.2324999999,
      "d": 2023.8323802083323,
      "v": 1
    },
    {
      "midi": 60,
      "hit": false,
      "t": 184553.2324999999,
      "d": 2023.8323802083323,
      "v": 1
    },
    {
      "midi": 64,
      "hit": false,
      "t": 184553.2324999999,
      "d": 2023.8323802083323,
      "v": 1
    },
    {
      "midi": 69,
      "hit": false,
      "t": 184553.2324999999,
      "d": 2023.8323802083323,
      "v": 1
    },
    {
      "midi": 45,
      "hit": false,
      "t": 184553.23250000025,
      "d": 1818.9140703125158,
      "v": 91
    },
    {
      "midi": 57,
      "hit": false,
      "t": 184553.23250000025,
      "d": 1818.9140703125158,
      "v": 91
    },
    {
      "midi": 60,
      "hit": false,
      "t": 184606.04649739608,
      "d": 1930.8797447916877,
      "v": 106
    },
    {
      "midi": 64,
      "hit": false,
      "t": 184610.27161718774,
      "d": 1945.667664062552,
      "v": 91
    },
    {
      "midi": 69,
      "hit": false,
      "t": 184616.60929687525,
      "d": 1937.2174244791968,
      "v": 106
    },
    {
      "midi": 50,
      "hit": false,
      "t": 186581.2899999999,
      "d": 1212.6093802083342,
      "v": 1
    },
    {
      "midi": 57,
      "hit": false,
      "t": 186581.2899999999,
      "d": 1212.6093802083342,
      "v": 1
    },
    {
      "midi": 62,
      "hit": false,
      "t": 186581.2899999999,
      "d": 1212.6093802083342,
      "v": 1
    },
    {
      "midi": 66,
      "hit": false,
      "t": 186581.2899999999,
      "d": 1212.6093802083342,
      "v": 1
    },
    {
      "midi": 57,
      "hit": false,
      "t": 186581.2900000003,
      "d": 1109.0939453125175,
      "v": 106
    },
    {
      "midi": 38,
      "hit": false,
      "t": 186581.2900000003,
      "d": 1248.5228984375135,
      "v": 86
    },
    {
      "midi": 50,
      "hit": false,
      "t": 186581.2900000003,
      "d": 1248.5228984375135,
      "v": 86
    },
    {
      "midi": 62,
      "hit": false,
      "t": 186583.40255989615,
      "d": 1130.2195442708326,
      "v": 112
    },
    {
      "midi": 66,
      "hit": false,
      "t": 186585.515119792,
      "d": 1166.1330624999828,
      "v": 112
    },
    {
      "midi": 55,
      "hit": false,
      "t": 187798.1244999999,
      "d": 2023.8323802083323,
      "v": 1
    },
    {
      "midi": 59,
      "hit": false,
      "t": 187798.1244999999,
      "d": 2023.8323802083323,
      "v": 1
    },
    {
      "midi": 62,
      "hit": false,
      "t": 187798.1244999999,
      "d": 2023.8323802083323,
      "v": 1
    },
    {
      "midi": 67,
      "hit": false,
      "t": 187798.1244999999,
      "d": 2023.8323802083323,
      "v": 1
    },
    {
      "midi": 43,
      "hit": false,
      "t": 187798.1245000003,
      "d": 1945.6676640625228,
      "v": 96
    },
    {
      "midi": 55,
      "hit": false,
      "t": 187798.1245000003,
      "d": 1945.6676640625228,
      "v": 96
    },
    {
      "midi": 62,
      "hit": false,
      "t": 187798.1245000003,
      "d": 2036.5077395833796,
      "v": 101
    },
    {
      "midi": 59,
      "hit": false,
      "t": 187804.4621796878,
      "d": 2013.2695807291893,
      "v": 101
    },
    {
      "midi": 67,
      "hit": false,
      "t": 187808.68729947947,
      "d": 2028.0575000000536,
      "v": 96
    },
    {
      "midi": 55,
      "hit": false,
      "t": 189817.731760417,
      "d": 1100.6437057291914,
      "v": 101
    },
    {
      "midi": 60,
      "hit": false,
      "t": 189819.84432031284,
      "d": 1113.3190651041805,
      "v": 112
    },
    {
      "midi": 64,
      "hit": false,
      "t": 189819.84432031284,
      "d": 1191.483781250019,
      "v": 112
    },
    {
      "midi": 48,
      "hit": false,
      "t": 189826.18199999988,
      "d": 401.38638020833605,
      "v": 1
    },
    {
      "midi": 60,
      "hit": false,
      "t": 189826.18199999988,
      "d": 401.38638020833605,
      "v": 1
    },
    {
      "midi": 64,
      "hit": false,
      "t": 189826.18199999988,
      "d": 401.38638020833605,
      "v": 1
    },
    {
      "midi": 67,
      "hit": false,
      "t": 189826.18199999988,
      "d": 401.38638020833605,
      "v": 1
    },
    {
      "midi": 48,
      "hit": false,
      "t": 189826.18200000035,
      "d": 1193.5963411458652,
      "v": 118
    },
    {
      "midi": 64,
      "hit": false,
      "t": 190231.79349999988,
      "d": 775.3094817708188,
      "v": 1
    },
    {
      "midi": 60,
      "hit": false,
      "t": 190231.79349999988,
      "d": 806.997880208306,
      "v": 1
    },
    {
      "midi": 52,
      "hit": false,
      "t": 190231.79349999988,
      "d": 811.222999999969,
      "v": 1
    },
    {
      "midi": 60,
      "hit": false,
      "t": 191015.55322135452,
      "d": 1987.918861979182,
      "v": 106
    },
    {
      "midi": 57,
      "hit": false,
      "t": 191017.66578125037,
      "d": 1964.6807031249919,
      "v": 106
    },
    {
      "midi": 65,
      "hit": false,
      "t": 191019.77834114622,
      "d": 1987.918861979153,
      "v": 112
    },
    {
      "midi": 53,
      "hit": false,
      "t": 191043.01649999985,
      "d": 1618.2208802083333,
      "v": 1
    },
    {
      "midi": 60,
      "hit": false,
      "t": 191043.01649999985,
      "d": 1618.2208802083333,
      "v": 1
    },
    {
      "midi": 65,
      "hit": false,
      "t": 191043.01649999985,
      "d": 1618.2208802083333,
      "v": 1
    },
    {
      "midi": 53,
      "hit": false,
      "t": 191043.01650000038,
      "d": 1818.9140703124867,
      "v": 91
    },
    {
      "midi": 53,
      "hit": false,
      "t": 192665.46249999985,
      "d": 401.38638020833605,
      "v": 1
    },
    {
      "midi": 57,
      "hit": false,
      "t": 192665.46249999985,
      "d": 401.38638020833605,
      "v": 1
    },
    {
      "midi": 65,
      "hit": false,
      "t": 192665.46249999985,
      "d": 401.38638020833605,
      "v": 1
    },
    {
      "midi": 72,
      "hit": false,
      "t": 193066.8488802087,
      "d": 1172.4707421874919,
      "v": 112
    },
    {
      "midi": 62,
      "hit": false,
      "t": 193071.07399999985,
      "d": 401.38638020833605,
      "v": 1
    },
    {
      "midi": 65,
      "hit": false,
      "t": 193071.07399999985,
      "d": 401.38638020833605,
      "v": 1
    },
    {
      "midi": 69,
      "hit": false,
      "t": 193071.07399999985,
      "d": 420.3994192708342,
      "v": 1
    },
    {
      "midi": 50,
      "hit": false,
      "t": 193071.07399999985,
      "d": 424.6245390624972,
      "v": 1
    },
    {
      "midi": 50,
      "hit": false,
      "t": 193071.07400000037,
      "d": 1193.596341145836,
      "v": 118
    },
    {
      "midi": 69,
      "hit": false,
      "t": 193075.29911979203,
      "d": 1174.583302083338,
      "v": 101
    },
    {
      "midi": 65,
      "hit": false,
      "t": 193077.41167968788,
      "d": 1100.6437057291623,
      "v": 101
    },
    {
      "midi": 62,
      "hit": false,
      "t": 193077.41167968788,
      "d": 1104.8688255208253,
      "v": 101
    },
    {
      "midi": 65,
      "hit": false,
      "t": 193476.68549999985,
      "d": 800.660200520826,
      "v": 1
    },
    {
      "midi": 67,
      "hit": false,
      "t": 193476.68549999985,
      "d": 806.9978802083351,
      "v": 1
    },
    {
      "midi": 53,
      "hit": false,
      "t": 193476.68549999985,
      "d": 813.3355598958442,
      "v": 1
    },
    {
      "midi": 60,
      "hit": false,
      "t": 193476.68549999985,
      "d": 817.5606796875072,
      "v": 1
    },
    {
      "midi": 62,
      "hit": false,
      "t": 194279.45826041704,
      "d": 1992.143981770816,
      "v": 96
    },
    {
      "midi": 55,
      "hit": false,
      "t": 194287.90849999984,
      "d": 2023.8323802083323,
      "v": 1
    },
    {
      "midi": 59,
      "hit": false,
      "t": 194287.90849999984,
      "d": 2023.8323802083323,
      "v": 1
    },
    {
      "midi": 67,
      "hit": false,
      "t": 194287.90849999984,
      "d": 2023.8323802083323,
      "v": 1
    },
    {
      "midi": 55,
      "hit": false,
      "t": 194287.90850000037,
      "d": 1818.9140703124867,
      "v": 91
    },
    {
      "midi": 67,
      "hit": false,
      "t": 194292.13361979203,
      "d": 2015.3821406250063,
      "v": 101
    },
    {
      "midi": 71,
      "hit": false,
      "t": 194292.13361979203,
      "d": 2015.3821406250063,
      "v": 106
    },
    {
      "midi": 59,
      "hit": false,
      "t": 196315.96599999984,
      "d": 1212.6093802083342,
      "v": 1
    },
    {
      "midi": 62,
      "hit": false,
      "t": 196315.96599999984,
      "d": 1212.6093802083342,
      "v": 1
    },
    {
      "midi": 67,
      "hit": false,
      "t": 196315.96599999984,
      "d": 1212.6093802083342,
      "v": 1
    },
    {
      "midi": 60,
      "hit": false,
      "t": 197532.80049999984,
      "d": 2023.8323802083323,
      "v": 1
    },
    {
      "midi": 64,
      "hit": false,
      "t": 197532.80049999984,
      "d": 2023.8323802083323,
      "v": 1
    },
    {
      "midi": 67,
      "hit": false,
      "t": 197532.80049999984,
      "d": 2023.8323802083323,
      "v": 1
    },
    {
      "midi": 60,
      "hit": false,
      "t": 199560.85799999983,
      "d": 1212.6093802083342,
      "v": 1
    },
    {
      "midi": 65,
      "hit": false,
      "t": 199560.85799999983,
      "d": 1212.6093802083342,
      "v": 1
    },
    {
      "midi": 69,
      "hit": false,
      "t": 199560.85799999983,
      "d": 1212.6093802083342,
      "v": 1
    },
    {
      "midi": 62,
      "hit": false,
      "t": 200777.69249999983,
      "d": 2023.8323802083323,
      "v": 1
    },
    {
      "midi": 67,
      "hit": false,
      "t": 200777.69249999983,
      "d": 2023.8323802083323,
      "v": 1
    },
    {
      "midi": 55,
      "hit": false,
      "t": 202805.74999999983,
      "d": 1212.6093802083342,
      "v": 1
    },
    {
      "midi": 62,
      "hit": false,
      "t": 202805.74999999983,
      "d": 1212.6093802083342,
      "v": 1
    },
    {
      "midi": 67,
      "hit": false,
      "t": 202805.74999999983,
      "d": 1212.6093802083342,
      "v": 1
    },
    {
      "midi": 57,
      "hit": false,
      "t": 204022.58449999982,
      "d": 1212.6093802083342,
      "v": 1
    },
    {
      "midi": 64,
      "hit": false,
      "t": 204022.58449999982,
      "d": 1212.6093802083342,
      "v": 1
    },
    {
      "midi": 69,
      "hit": false,
      "t": 204022.58449999982,
      "d": 1212.6093802083342,
      "v": 1
    },
    {
      "midi": 57,
      "hit": false,
      "t": 205239.41899999982,
      "d": 1212.6093802083342,
      "v": 1
    },
    {
      "midi": 64,
      "hit": false,
      "t": 205239.41899999982,
      "d": 1212.6093802083342,
      "v": 1
    },
    {
      "midi": 55,
      "hit": false,
      "t": 206456.25349999982,
      "d": 806.9978802083351,
      "v": 1
    },
    {
      "midi": 62,
      "hit": false,
      "t": 206456.25349999982,
      "d": 806.9978802083351,
      "v": 1
    },
    {
      "midi": 57,
      "hit": false,
      "t": 207267.47649999982,
      "d": 2023.8323802083323,
      "v": 1
    },
    {
      "midi": 64,
      "hit": false,
      "t": 207267.47649999982,
      "d": 2023.8323802083323,
      "v": 1
    },
    {
      "midi": 57,
      "hit": false,
      "t": 209295.5339999998,
      "d": 1212.6093802083342,
      "v": 1
    },
    {
      "midi": 62,
      "hit": false,
      "t": 209295.5339999998,
      "d": 1212.6093802083342,
      "v": 1
    },
    {
      "midi": 65,
      "hit": false,
      "t": 209295.5339999998,
      "d": 1212.6093802083342,
      "v": 1
    },
    {
      "midi": 55,
      "hit": false,
      "t": 210512.3684999998,
      "d": 1212.6093802083342,
      "v": 1
    },
    {
      "midi": 60,
      "hit": false,
      "t": 210512.3684999998,
      "d": 1212.6093802083342,
      "v": 1
    },
    {
      "midi": 64,
      "hit": false,
      "t": 210512.3684999998,
      "d": 1212.6093802083342,
      "v": 1
    },
    {
      "midi": 67,
      "hit": false,
      "t": 210512.3684999998,
      "d": 1212.6093802083342,
      "v": 1
    },
    {
      "midi": 55,
      "hit": false,
      "t": 211729.2029999998,
      "d": 1212.6093802083342,
      "v": 1
    },
    {
      "midi": 64,
      "hit": false,
      "t": 211729.2029999998,
      "d": 1212.6093802083342,
      "v": 1
    },
    {
      "midi": 55,
      "hit": false,
      "t": 212946.0374999998,
      "d": 806.9978802083351,
      "v": 1
    },
    {
      "midi": 62,
      "hit": false,
      "t": 212946.0374999998,
      "d": 806.9978802083351,
      "v": 1
    },
    {
      "midi": 64,
      "hit": false,
      "t": 213757.2604999998,
      "d": 3240.6668802083586,
      "v": 1
    },
    {
      "midi": 60,
      "hit": false,
      "t": 213757.2604999998,
      "d": 3646.2783802083577,
      "v": 1
    },
    {
      "midi": 50,
      "hit": false,
      "t": 217407.76400000037,
      "d": 3173.064963541663,
      "v": 102
    },
    {
      "midi": 60,
      "hit": false,
      "t": 217407.76400000037,
      "d": 3173.064963541663,
      "v": 102
    },
    {
      "midi": 62,
      "hit": false,
      "t": 217407.76400000037,
      "d": 3173.064963541663,
      "v": 102
    },
    {
      "midi": 65,
      "hit": false,
      "t": 217407.76400000037,
      "d": 3173.064963541663,
      "v": 102
    },
    {
      "midi": 69,
      "hit": false,
      "t": 217407.76400000037,
      "d": 3173.064963541663,
      "v": 102
    },
    {
      "midi": 52,
      "hit": false,
      "t": 220652.65600000037,
      "d": 3173.064963541663,
      "v": 100
    },
    {
      "midi": 62,
      "hit": false,
      "t": 220652.65600000037,
      "d": 3173.064963541663,
      "v": 100
    },
    {
      "midi": 64,
      "hit": false,
      "t": 220652.65600000037,
      "d": 3173.064963541663,
      "v": 100
    },
    {
      "midi": 67,
      "hit": false,
      "t": 220652.65600000037,
      "d": 3173.064963541663,
      "v": 100
    },
    {
      "midi": 71,
      "hit": false,
      "t": 220652.65600000037,
      "d": 3173.064963541663,
      "v": 100
    },
    {
      "midi": 53,
      "hit": false,
      "t": 223897.54800000036,
      "d": 1601.320401041652,
      "v": 102
    },
    {
      "midi": 62,
      "hit": false,
      "t": 223897.54800000036,
      "d": 3179.402643229172,
      "v": 102
    },
    {
      "midi": 65,
      "hit": false,
      "t": 223897.54800000036,
      "d": 3196.3031223958533,
      "v": 102
    },
    {
      "midi": 72,
      "hit": false,
      "t": 223897.54800000036,
      "d": 3202.6408020833624,
      "v": 102
    },
    {
      "midi": 69,
      "hit": false,
      "t": 223897.54800000036,
      "d": 3204.7533619792084,
      "v": 102
    },
    {
      "midi": 50,
      "hit": false,
      "t": 225519.99400000036,
      "d": 1601.3204010417103,
      "v": 98
    },
    {
      "midi": 72,
      "hit": false,
      "t": 227142.4400000004,
      "d": 1618.2208802083333,
      "v": 91
    },
    {
      "midi": 55,
      "hit": false,
      "t": 227142.4400000004,
      "d": 3223.7664010416775,
      "v": 91
    },
    {
      "midi": 74,
      "hit": false,
      "t": 227142.4400000004,
      "d": 3223.7664010416775,
      "v": 101
    },
    {
      "midi": 55,
      "hit": false,
      "t": 228764.88599999982,
      "d": 401.38638020833605,
      "v": 1
    },
    {
      "midi": 59,
      "hit": false,
      "t": 228764.88599999982,
      "d": 401.38638020833605,
      "v": 1
    },
    {
      "midi": 62,
      "hit": false,
      "t": 228764.88599999982,
      "d": 401.38638020833605,
      "v": 1
    },
    {
      "midi": 67,
      "hit": false,
      "t": 228764.88599999982,
      "d": 401.38638020833605,
      "v": 1
    },
    {
      "midi": 47,
      "hit": false,
      "t": 228764.8860000004,
      "d": 1227.3972994791984,
      "v": 106
    },
    {
      "midi": 71,
      "hit": false,
      "t": 228764.8860000004,
      "d": 1618.2208802083624,
      "v": 91
    },
    {
      "midi": 59,
      "hit": false,
      "t": 228807.13719791707,
      "d": 1172.470742187521,
      "v": 96
    },
    {
      "midi": 62,
      "hit": false,
      "t": 228807.13719791707,
      "d": 1223.1721796875354,
      "v": 91
    },
    {
      "midi": 55,
      "hit": false,
      "t": 229170.49749999982,
      "d": 401.38638020833605,
      "v": 1
    },
    {
      "midi": 59,
      "hit": false,
      "t": 229170.49749999982,
      "d": 401.38638020833605,
      "v": 1
    },
    {
      "midi": 64,
      "hit": false,
      "t": 229170.49749999982,
      "d": 401.38638020833605,
      "v": 1
    },
    {
      "midi": 67,
      "hit": false,
      "t": 229170.49749999982,
      "d": 401.38638020833605,
      "v": 1
    },
    {
      "midi": 55,
      "hit": false,
      "t": 229576.10899999982,
      "d": 401.38638020833605,
      "v": 1
    },
    {
      "midi": 59,
      "hit": false,
      "t": 229576.10899999982,
      "d": 401.38638020833605,
      "v": 1
    },
    {
      "midi": 67,
      "hit": false,
      "t": 229576.10899999982,
      "d": 401.38638020833605,
      "v": 1
    },
    {
      "midi": 65,
      "hit": false,
      "t": 229576.10899999982,
      "d": 405.61149999999907,
      "v": 1
    },
    {
      "midi": 55,
      "hit": false,
      "t": 229981.72049999982,
      "d": 2023.8323802083323,
      "v": 1
    },
    {
      "midi": 60,
      "hit": false,
      "t": 229981.72049999982,
      "d": 2023.8323802083323,
      "v": 1
    },
    {
      "midi": 64,
      "hit": false,
      "t": 229981.72049999982,
      "d": 2023.8323802083323,
      "v": 1
    },
    {
      "midi": 67,
      "hit": false,
      "t": 229981.72049999982,
      "d": 2023.8323802083323,
      "v": 1
    },
    {
      "midi": 67,
      "hit": false,
      "t": 229981.72050000043,
      "d": 42.251197916659294,
      "v": 96
    },
    {
      "midi": 64,
      "hit": false,
      "t": 229981.72050000043,
      "d": 1755.5372734375123,
      "v": 91
    },
    {
      "midi": 60,
      "hit": false,
      "t": 229981.72050000043,
      "d": 1797.7884713541716,
      "v": 86
    },
    {
      "midi": 48,
      "hit": false,
      "t": 229981.72050000043,
      "d": 1907.6415859374974,
      "v": 101
    },
    {
      "midi": 55,
      "hit": false,
      "t": 232009.77799999982,
      "d": 1212.6093802083342,
      "v": 1
    },
    {
      "midi": 57,
      "hit": false,
      "t": 232009.77799999982,
      "d": 1212.6093802083342,
      "v": 1
    },
    {
      "midi": 60,
      "hit": false,
      "t": 232009.77799999982,
      "d": 1212.6093802083342,
      "v": 1
    },
    {
      "midi": 67,
      "hit": false,
      "t": 232009.77799999982,
      "d": 1212.6093802083342,
      "v": 1
    },
    {
      "midi": 67,
      "hit": false,
      "t": 232009.77800000043,
      "d": 1153.4577031250228,
      "v": 96
    },
    {
      "midi": 60,
      "hit": false,
      "t": 232011.89055989627,
      "d": 804.8853203124891,
      "v": 91
    },
    {
      "midi": 57,
      "hit": false,
      "t": 232016.11567968794,
      "d": 680.2442864583281,
      "v": 96
    },
    {
      "midi": 41,
      "hit": false,
      "t": 232035.12871875043,
      "d": 1195.708901041682,
      "v": 106
    },
    {
      "midi": 59,
      "hit": false,
      "t": 232821.00100000043,
      "d": 314.7714244791714,
      "v": 82
    },
    {
      "midi": 62,
      "hit": false,
      "t": 232821.00100000043,
      "d": 331.6719036458526,
      "v": 91
    },
    {
      "midi": 55,
      "hit": false,
      "t": 233226.6124999998,
      "d": 2429.4438802083314,
      "v": 1
    },
    {
      "midi": 59,
      "hit": false,
      "t": 233226.6124999998,
      "d": 2429.4438802083314,
      "v": 1
    },
    {
      "midi": 62,
      "hit": false,
      "t": 233226.6124999998,
      "d": 2429.4438802083314,
      "v": 1
    },
    {
      "midi": 67,
      "hit": false,
      "t": 233226.6124999998,
      "d": 2429.4438802083314,
      "v": 1
    },
    {
      "midi": 59,
      "hit": false,
      "t": 233226.61250000045,
      "d": 1920.3169453125156,
      "v": 74
    },
    {
      "midi": 67,
      "hit": false,
      "t": 233226.61250000045,
      "d": 1930.8797447916877,
      "v": 96
    },
    {
      "midi": 62,
      "hit": false,
      "t": 233226.61250000045,
      "d": 1939.3299843750137,
      "v": 96
    },
    {
      "midi": 43,
      "hit": false,
      "t": 233247.7380989588,
      "d": 1966.793263020838,
      "v": 91
    },
    {
      "midi": 47,
      "hit": false,
      "t": 235254.67000000048,
      "d": 1227.3972994791984,
      "v": 106
    },
    {
      "midi": 59,
      "hit": false,
      "t": 235296.92119791714,
      "d": 1172.470742187521,
      "v": 96
    },
    {
      "midi": 62,
      "hit": false,
      "t": 235296.92119791714,
      "d": 1223.1721796875354,
      "v": 91
    },
    {
      "midi": 55,
      "hit": false,
      "t": 235660.2814999998,
      "d": 401.38638020833605,
      "v": 1
    },
    {
      "midi": 59,
      "hit": false,
      "t": 235660.2814999998,
      "d": 401.38638020833605,
      "v": 1
    },
    {
      "midi": 64,
      "hit": false,
      "t": 235660.2814999998,
      "d": 401.38638020833605,
      "v": 1
    },
    {
      "midi": 67,
      "hit": false,
      "t": 235660.2814999998,
      "d": 401.38638020833605,
      "v": 1
    },
    {
      "midi": 55,
      "hit": false,
      "t": 236065.8929999998,
      "d": 401.38638020833605,
      "v": 1
    },
    {
      "midi": 59,
      "hit": false,
      "t": 236065.8929999998,
      "d": 401.38638020833605,
      "v": 1
    },
    {
      "midi": 65,
      "hit": false,
      "t": 236065.8929999998,
      "d": 401.38638020833605,
      "v": 1
    },
    {
      "midi": 67,
      "hit": false,
      "t": 236065.8929999998,
      "d": 401.38638020833605,
      "v": 1
    },
    {
      "midi": 55,
      "hit": false,
      "t": 236471.5044999998,
      "d": 2023.8323802083323,
      "v": 1
    },
    {
      "midi": 60,
      "hit": false,
      "t": 236471.5044999998,
      "d": 2023.8323802083323,
      "v": 1
    },
    {
      "midi": 64,
      "hit": false,
      "t": 236471.5044999998,
      "d": 2023.8323802083323,
      "v": 1
    },
    {
      "midi": 67,
      "hit": false,
      "t": 236471.5044999998,
      "d": 2023.8323802083323,
      "v": 1
    },
    {
      "midi": 67,
      "hit": false,
      "t": 236471.5045000005,
      "d": 42.251197916659294,
      "v": 96
    },
    {
      "midi": 64,
      "hit": false,
      "t": 236471.5045000005,
      "d": 1755.5372734375123,
      "v": 91
    },
    {
      "midi": 60,
      "hit": false,
      "t": 236471.5045000005,
      "d": 1797.7884713541716,
      "v": 86
    },
    {
      "midi": 48,
      "hit": false,
      "t": 236471.5045000005,
      "d": 1907.6415859374974,
      "v": 101
    },
    {
      "midi": 60,
      "hit": false,
      "t": 238499.5619999998,
      "d": 401.38638020833605,
      "v": 1
    },
    {
      "midi": 64,
      "hit": false,
      "t": 238499.5619999998,
      "d": 401.38638020833605,
      "v": 1
    },
    {
      "midi": 57,
      "hit": false,
      "t": 238499.5619999998,
      "d": 409.8366197916621,
      "v": 1
    },
    {
      "midi": 69,
      "hit": false,
      "t": 238499.5619999998,
      "d": 409.8366197916621,
      "v": 1
    },
    {
      "midi": 67,
      "hit": false,
      "t": 238499.5620000005,
      "d": 1153.4577031250228,
      "v": 96
    },
    {
      "midi": 60,
      "hit": false,
      "t": 238501.67455989635,
      "d": 1111.2065052083344,
      "v": 91
    },
    {
      "midi": 57,
      "hit": false,
      "t": 238505.899679688,
      "d": 1111.2065052083344,
      "v": 96
    },
    {
      "midi": 41,
      "hit": false,
      "t": 238524.9127187505,
      "d": 1195.708901041682,
      "v": 106
    },
    {
      "midi": 55,
      "hit": false,
      "t": 238905.1734999998,
      "d": 806.9978802083351,
      "v": 1
    },
    {
      "midi": 67,
      "hit": false,
      "t": 238905.1734999998,
      "d": 806.9978802083351,
      "v": 1
    },
    {
      "midi": 60,
      "hit": false,
      "t": 238905.1734999998,
      "d": 813.3355598958442,
      "v": 1
    },
    {
      "midi": 64,
      "hit": false,
      "t": 238905.1734999998,
      "d": 826.0109192708333,
      "v": 1
    },
    {
      "midi": 55,
      "hit": false,
      "t": 239716.3964999998,
      "d": 1618.2208802083333,
      "v": 1
    },
    {
      "midi": 59,
      "hit": false,
      "t": 239716.3964999998,
      "d": 1618.2208802083333,
      "v": 1
    },
    {
      "midi": 62,
      "hit": false,
      "t": 239716.3964999998,
      "d": 1618.2208802083333,
      "v": 1
    },
    {
      "midi": 67,
      "hit": false,
      "t": 239716.3964999998,
      "d": 1618.2208802083333,
      "v": 1
    },
    {
      "midi": 59,
      "hit": false,
      "t": 239716.39650000053,
      "d": 1920.3169453125156,
      "v": 74
    },
    {
      "midi": 67,
      "hit": false,
      "t": 239716.39650000053,
      "d": 1930.8797447916877,
      "v": 96
    },
    {
      "midi": 62,
      "hit": false,
      "t": 239716.39650000053,
      "d": 1939.3299843750137,
      "v": 96
    },
    {
      "midi": 43,
      "hit": false,
      "t": 239737.52209895887,
      "d": 1966.793263020838,
      "v": 91
    },
    {
      "midi": 55,
      "hit": false,
      "t": 241338.8424999998,
      "d": 401.38638020833605,
      "v": 1
    },
    {
      "midi": 59,
      "hit": false,
      "t": 241338.8424999998,
      "d": 401.38638020833605,
      "v": 1
    },
    {
      "midi": 65,
      "hit": false,
      "t": 241338.8424999998,
      "d": 401.38638020833605,
      "v": 1
    },
    {
      "midi": 67,
      "hit": false,
      "t": 241338.8424999998,
      "d": 401.38638020833605,
      "v": 1
    },
    {
      "midi": 52,
      "hit": false,
      "t": 241744.4539999998,
      "d": 1212.6093802083342,
      "v": 1
    },
    {
      "midi": 59,
      "hit": false,
      "t": 241744.4539999998,
      "d": 1212.6093802083342,
      "v": 1
    },
    {
      "midi": 64,
      "hit": false,
      "t": 241744.4539999998,
      "d": 1212.6093802083342,
      "v": 1
    },
    {
      "midi": 68,
      "hit": false,
      "t": 241744.4539999998,
      "d": 1212.6093802083342,
      "v": 1
    },
    {
      "midi": 40,
      "hit": false,
      "t": 241744.45400000055,
      "d": 1204.1591406250373,
      "v": 106
    },
    {
      "midi": 52,
      "hit": false,
      "t": 241744.45400000055,
      "d": 1204.1591406250373,
      "v": 106
    },
    {
      "midi": 59,
      "hit": false,
      "t": 241765.5795989589,
      "d": 1157.6828229166858,
      "v": 96
    },
    {
      "midi": 64,
      "hit": false,
      "t": 241767.69215885474,
      "d": 1176.695861979184,
      "v": 106
    },
    {
      "midi": 68,
      "hit": false,
      "t": 241769.8047187506,
      "d": 1195.708901041653,
      "v": 106
    },
    {
      "midi": 57,
      "hit": false,
      "t": 242961.2884999998,
      "d": 2023.8323802083323,
      "v": 1
    },
    {
      "midi": 60,
      "hit": false,
      "t": 242961.2884999998,
      "d": 2023.8323802083323,
      "v": 1
    },
    {
      "midi": 64,
      "hit": false,
      "t": 242961.2884999998,
      "d": 2023.8323802083323,
      "v": 1
    },
    {
      "midi": 69,
      "hit": false,
      "t": 242961.2884999998,
      "d": 2023.8323802083323,
      "v": 1
    },
    {
      "midi": 45,
      "hit": false,
      "t": 242961.28850000058,
      "d": 1818.9140703125158,
      "v": 91
    },
    {
      "midi": 57,
      "hit": false,
      "t": 242961.28850000058,
      "d": 1818.9140703125158,
      "v": 91
    },
    {
      "midi": 60,
      "hit": false,
      "t": 243014.1024973964,
      "d": 1930.8797447916877,
      "v": 106
    },
    {
      "midi": 64,
      "hit": false,
      "t": 243018.32761718807,
      "d": 1945.667664062552,
      "v": 91
    },
    {
      "midi": 69,
      "hit": false,
      "t": 243024.66529687558,
      "d": 1937.2174244791968,
      "v": 106
    },
    {
      "midi": 50,
      "hit": false,
      "t": 244989.3459999998,
      "d": 1212.6093802083342,
      "v": 1
    },
    {
      "midi": 57,
      "hit": false,
      "t": 244989.3459999998,
      "d": 1212.6093802083342,
      "v": 1
    },
    {
      "midi": 62,
      "hit": false,
      "t": 244989.3459999998,
      "d": 1212.6093802083342,
      "v": 1
    },
    {
      "midi": 66,
      "hit": false,
      "t": 244989.3459999998,
      "d": 1212.6093802083342,
      "v": 1
    },
    {
      "midi": 57,
      "hit": false,
      "t": 244989.34600000063,
      "d": 1109.0939453125175,
      "v": 106
    },
    {
      "midi": 38,
      "hit": false,
      "t": 244989.34600000063,
      "d": 1248.5228984375135,
      "v": 86
    },
    {
      "midi": 50,
      "hit": false,
      "t": 244989.34600000063,
      "d": 1248.5228984375135,
      "v": 86
    },
    {
      "midi": 62,
      "hit": false,
      "t": 244991.45855989648,
      "d": 1130.2195442708326,
      "v": 112
    },
    {
      "midi": 66,
      "hit": false,
      "t": 244993.57111979232,
      "d": 1166.1330624999828,
      "v": 112
    },
    {
      "midi": 55,
      "hit": false,
      "t": 246206.18049999978,
      "d": 2023.8323802083323,
      "v": 1
    },
    {
      "midi": 59,
      "hit": false,
      "t": 246206.18049999978,
      "d": 2023.8323802083323,
      "v": 1
    },
    {
      "midi": 62,
      "hit": false,
      "t": 246206.18049999978,
      "d": 2023.8323802083323,
      "v": 1
    },
    {
      "midi": 67,
      "hit": false,
      "t": 246206.18049999978,
      "d": 2023.8323802083323,
      "v": 1
    },
    {
      "midi": 43,
      "hit": false,
      "t": 246206.18050000063,
      "d": 1945.6676640625228,
      "v": 96
    },
    {
      "midi": 55,
      "hit": false,
      "t": 246206.18050000063,
      "d": 1945.6676640625228,
      "v": 96
    },
    {
      "midi": 62,
      "hit": false,
      "t": 246206.18050000063,
      "d": 2036.5077395833796,
      "v": 101
    },
    {
      "midi": 59,
      "hit": false,
      "t": 246212.51817968814,
      "d": 2013.2695807291893,
      "v": 101
    },
    {
      "midi": 67,
      "hit": false,
      "t": 246216.7432994798,
      "d": 2028.0575000000536,
      "v": 96
    },
    {
      "midi": 55,
      "hit": false,
      "t": 248225.78776041733,
      "d": 1100.6437057291914,
      "v": 101
    },
    {
      "midi": 60,
      "hit": false,
      "t": 248227.90032031317,
      "d": 1113.3190651041805,
      "v": 112
    },
    {
      "midi": 64,
      "hit": false,
      "t": 248227.90032031317,
      "d": 1191.483781250019,
      "v": 112
    },
    {
      "midi": 48,
      "hit": false,
      "t": 248234.23799999978,
      "d": 401.38638020833605,
      "v": 1
    },
    {
      "midi": 60,
      "hit": false,
      "t": 248234.23799999978,
      "d": 401.38638020833605,
      "v": 1
    },
    {
      "midi": 64,
      "hit": false,
      "t": 248234.23799999978,
      "d": 401.38638020833605,
      "v": 1
    },
    {
      "midi": 67,
      "hit": false,
      "t": 248234.23799999978,
      "d": 401.38638020833605,
      "v": 1
    },
    {
      "midi": 48,
      "hit": false,
      "t": 248234.23800000068,
      "d": 1193.5963411458652,
      "v": 118
    },
    {
      "midi": 64,
      "hit": false,
      "t": 248639.84949999978,
      "d": 775.3094817708479,
      "v": 1
    },
    {
      "midi": 60,
      "hit": false,
      "t": 248639.84949999978,
      "d": 806.9978802083351,
      "v": 1
    },
    {
      "midi": 52,
      "hit": false,
      "t": 248639.84949999978,
      "d": 811.2229999999981,
      "v": 1
    },
    {
      "midi": 60,
      "hit": false,
      "t": 249423.60922135485,
      "d": 1987.918861979182,
      "v": 106
    },
    {
      "midi": 57,
      "hit": false,
      "t": 249425.7217812507,
      "d": 1964.6807031249919,
      "v": 106
    },
    {
      "midi": 65,
      "hit": false,
      "t": 249427.83434114655,
      "d": 1987.918861979153,
      "v": 112
    },
    {
      "midi": 53,
      "hit": false,
      "t": 249451.07249999978,
      "d": 1618.2208802083333,
      "v": 1
    },
    {
      "midi": 60,
      "hit": false,
      "t": 249451.07249999978,
      "d": 1618.2208802083333,
      "v": 1
    },
    {
      "midi": 65,
      "hit": false,
      "t": 249451.07249999978,
      "d": 1618.2208802083333,
      "v": 1
    },
    {
      "midi": 53,
      "hit": false,
      "t": 249451.0725000007,
      "d": 1818.9140703124867,
      "v": 91
    },
    {
      "midi": 53,
      "hit": false,
      "t": 251073.51849999977,
      "d": 401.38638020833605,
      "v": 1
    },
    {
      "midi": 57,
      "hit": false,
      "t": 251073.51849999977,
      "d": 401.38638020833605,
      "v": 1
    },
    {
      "midi": 65,
      "hit": false,
      "t": 251073.51849999977,
      "d": 401.38638020833605,
      "v": 1
    },
    {
      "midi": 72,
      "hit": false,
      "t": 251474.90488020904,
      "d": 1172.4707421874919,
      "v": 112
    },
    {
      "midi": 62,
      "hit": false,
      "t": 251479.12999999977,
      "d": 401.38638020833605,
      "v": 1
    },
    {
      "midi": 65,
      "hit": false,
      "t": 251479.12999999977,
      "d": 401.38638020833605,
      "v": 1
    },
    {
      "midi": 69,
      "hit": false,
      "t": 251479.12999999977,
      "d": 420.3994192708342,
      "v": 1
    },
    {
      "midi": 50,
      "hit": false,
      "t": 251479.12999999977,
      "d": 424.6245390624972,
      "v": 1
    },
    {
      "midi": 50,
      "hit": false,
      "t": 251479.1300000007,
      "d": 1193.596341145836,
      "v": 118
    },
    {
      "midi": 69,
      "hit": false,
      "t": 251483.35511979237,
      "d": 1174.583302083338,
      "v": 101
    },
    {
      "midi": 65,
      "hit": false,
      "t": 251485.4676796882,
      "d": 1100.6437057291623,
      "v": 101
    },
    {
      "midi": 62,
      "hit": false,
      "t": 251485.4676796882,
      "d": 1104.8688255208253,
      "v": 101
    },
    {
      "midi": 65,
      "hit": false,
      "t": 251884.74149999977,
      "d": 800.660200520826,
      "v": 1
    },
    {
      "midi": 67,
      "hit": false,
      "t": 251884.74149999977,
      "d": 806.9978802083351,
      "v": 1
    },
    {
      "midi": 53,
      "hit": false,
      "t": 251884.74149999977,
      "d": 813.3355598958442,
      "v": 1
    },
    {
      "midi": 60,
      "hit": false,
      "t": 251884.74149999977,
      "d": 817.5606796875072,
      "v": 1
    },
    {
      "midi": 62,
      "hit": false,
      "t": 252687.51426041737,
      "d": 1992.143981770816,
      "v": 96
    },
    {
      "midi": 55,
      "hit": false,
      "t": 252695.96449999977,
      "d": 2023.8323802083323,
      "v": 1
    },
    {
      "midi": 59,
      "hit": false,
      "t": 252695.96449999977,
      "d": 2023.8323802083323,
      "v": 1
    },
    {
      "midi": 67,
      "hit": false,
      "t": 252695.96449999977,
      "d": 2023.8323802083323,
      "v": 1
    },
    {
      "midi": 55,
      "hit": false,
      "t": 252695.9645000007,
      "d": 1818.9140703124867,
      "v": 91
    },
    {
      "midi": 67,
      "hit": false,
      "t": 252700.18961979236,
      "d": 2015.3821406250063,
      "v": 101
    },
    {
      "midi": 71,
      "hit": false,
      "t": 252700.18961979236,
      "d": 2015.3821406250063,
      "v": 106
    },
    {
      "midi": 59,
      "hit": false,
      "t": 254724.02199999976,
      "d": 1212.6093802083342,
      "v": 1
    },
    {
      "midi": 62,
      "hit": false,
      "t": 254724.02199999976,
      "d": 1212.6093802083342,
      "v": 1
    },
    {
      "midi": 67,
      "hit": false,
      "t": 254724.02199999976,
      "d": 1212.6093802083342,
      "v": 1
    },
    {
      "midi": 60,
      "hit": false,
      "t": 255940.85649999976,
      "d": 2023.8323802083323,
      "v": 1
    },
    {
      "midi": 64,
      "hit": false,
      "t": 255940.85649999976,
      "d": 2023.8323802083323,
      "v": 1
    },
    {
      "midi": 67,
      "hit": false,
      "t": 255940.85649999976,
      "d": 2023.8323802083323,
      "v": 1
    },
    {
      "midi": 60,
      "hit": false,
      "t": 257968.91399999976,
      "d": 1212.6093802083342,
      "v": 1
    },
    {
      "midi": 65,
      "hit": false,
      "t": 257968.91399999976,
      "d": 1212.6093802083342,
      "v": 1
    },
    {
      "midi": 69,
      "hit": false,
      "t": 257968.91399999976,
      "d": 1212.6093802083342,
      "v": 1
    },
    {
      "midi": 62,
      "hit": false,
      "t": 259185.74849999975,
      "d": 2023.8323802083323,
      "v": 1
    },
    {
      "midi": 67,
      "hit": false,
      "t": 259185.74849999975,
      "d": 2023.8323802083323,
      "v": 1
    },
    {
      "midi": 55,
      "hit": false,
      "t": 261213.80599999975,
      "d": 1212.609380208305,
      "v": 1
    },
    {
      "midi": 62,
      "hit": false,
      "t": 261213.80599999975,
      "d": 1212.609380208305,
      "v": 1
    },
    {
      "midi": 67,
      "hit": false,
      "t": 261213.80599999975,
      "d": 1212.609380208305,
      "v": 1
    },
    {
      "midi": 57,
      "hit": false,
      "t": 262430.64049999975,
      "d": 1212.609380208305,
      "v": 1
    },
    {
      "midi": 64,
      "hit": false,
      "t": 262430.64049999975,
      "d": 1212.609380208305,
      "v": 1
    },
    {
      "midi": 69,
      "hit": false,
      "t": 262430.64049999975,
      "d": 1212.609380208305,
      "v": 1
    },
    {
      "midi": 57,
      "hit": false,
      "t": 263647.47499999974,
      "d": 1212.609380208305,
      "v": 1
    },
    {
      "midi": 64,
      "hit": false,
      "t": 263647.47499999974,
      "d": 1212.609380208305,
      "v": 1
    },
    {
      "midi": 55,
      "hit": false,
      "t": 264864.30949999974,
      "d": 806.997880208306,
      "v": 1
    },
    {
      "midi": 62,
      "hit": false,
      "t": 264864.30949999974,
      "d": 806.997880208306,
      "v": 1
    },
    {
      "midi": 57,
      "hit": false,
      "t": 265675.53249999974,
      "d": 2023.8323802083614,
      "v": 1
    },
    {
      "midi": 64,
      "hit": false,
      "t": 265675.53249999974,
      "d": 2023.8323802083614,
      "v": 1
    },
    {
      "midi": 57,
      "hit": false,
      "t": 267703.5899999998,
      "d": 1212.609380208305,
      "v": 1
    },
    {
      "midi": 62,
      "hit": false,
      "t": 267703.5899999998,
      "d": 1212.609380208305,
      "v": 1
    },
    {
      "midi": 65,
      "hit": false,
      "t": 267703.5899999998,
      "d": 1212.609380208305,
      "v": 1
    },
    {
      "midi": 55,
      "hit": false,
      "t": 268920.4244999998,
      "d": 1212.609380208305,
      "v": 1
    },
    {
      "midi": 60,
      "hit": false,
      "t": 268920.4244999998,
      "d": 1212.609380208305,
      "v": 1
    },
    {
      "midi": 64,
      "hit": false,
      "t": 268920.4244999998,
      "d": 1212.609380208305,
      "v": 1
    },
    {
      "midi": 67,
      "hit": false,
      "t": 268920.4244999998,
      "d": 1212.609380208305,
      "v": 1
    },
    {
      "midi": 55,
      "hit": false,
      "t": 270137.2589999998,
      "d": 1212.609380208305,
      "v": 1
    },
    {
      "midi": 64,
      "hit": false,
      "t": 270137.2589999998,
      "d": 1212.609380208305,
      "v": 1
    },
    {
      "midi": 55,
      "hit": false,
      "t": 271354.0934999998,
      "d": 806.997880208306,
      "v": 1
    },
    {
      "midi": 62,
      "hit": false,
      "t": 271354.0934999998,
      "d": 806.997880208306,
      "v": 1
    },
    {
      "midi": 60,
      "hit": false,
      "t": 272165.3164999998,
      "d": 2023.8323802083032,
      "v": 1
    },
    {
      "midi": 64,
      "hit": false,
      "t": 272165.3164999998,
      "d": 2023.8323802083032,
      "v": 1
    },
    {
      "midi": 55,
      "hit": false,
      "t": 274193.3739999998,
      "d": 401.38638020830695,
      "v": 1
    },
    {
      "midi": 59,
      "hit": false,
      "t": 274193.3739999998,
      "d": 401.38638020830695,
      "v": 1
    },
    {
      "midi": 62,
      "hit": false,
      "t": 274193.3739999998,
      "d": 401.38638020830695,
      "v": 1
    },
    {
      "midi": 67,
      "hit": false,
      "t": 274193.3739999998,
      "d": 401.38638020830695,
      "v": 1
    },
    {
      "midi": 47,
      "hit": false,
      "t": 274193.3740000007,
      "d": 1227.3972994791693,
      "v": 106
    },
    {
      "midi": 59,
      "hit": false,
      "t": 274235.6251979174,
      "d": 1172.4707421874627,
      "v": 96
    },
    {
      "midi": 62,
      "hit": false,
      "t": 274235.6251979174,
      "d": 1223.1721796874772,
      "v": 91
    },
    {
      "midi": 55,
      "hit": false,
      "t": 274598.9854999998,
      "d": 401.38638020830695,
      "v": 1
    },
    {
      "midi": 59,
      "hit": false,
      "t": 274598.9854999998,
      "d": 401.38638020830695,
      "v": 1
    },
    {
      "midi": 64,
      "hit": false,
      "t": 274598.9854999998,
      "d": 401.38638020830695,
      "v": 1
    },
    {
      "midi": 67,
      "hit": false,
      "t": 274598.9854999998,
      "d": 401.38638020830695,
      "v": 1
    },
    {
      "midi": 55,
      "hit": false,
      "t": 275004.5969999998,
      "d": 401.38638020830695,
      "v": 1
    },
    {
      "midi": 59,
      "hit": false,
      "t": 275004.5969999998,
      "d": 401.38638020830695,
      "v": 1
    },
    {
      "midi": 67,
      "hit": false,
      "t": 275004.5969999998,
      "d": 401.38638020830695,
      "v": 1
    },
    {
      "midi": 65,
      "hit": false,
      "t": 275004.5969999998,
      "d": 405.61149999999907,
      "v": 1
    },
    {
      "midi": 55,
      "hit": false,
      "t": 275410.2084999998,
      "d": 2023.8323802083614,
      "v": 1
    },
    {
      "midi": 60,
      "hit": false,
      "t": 275410.2084999998,
      "d": 2023.8323802083614,
      "v": 1
    },
    {
      "midi": 64,
      "hit": false,
      "t": 275410.2084999998,
      "d": 2023.8323802083614,
      "v": 1
    },
    {
      "midi": 67,
      "hit": false,
      "t": 275410.2084999998,
      "d": 2023.8323802083614,
      "v": 1
    },
    {
      "midi": 67,
      "hit": false,
      "t": 275410.2085000007,
      "d": 42.2511979166884,
      "v": 96
    },
    {
      "midi": 64,
      "hit": false,
      "t": 275410.2085000007,
      "d": 1755.5372734374832,
      "v": 91
    },
    {
      "midi": 60,
      "hit": false,
      "t": 275410.2085000007,
      "d": 1797.7884713541716,
      "v": 86
    },
    {
      "midi": 48,
      "hit": false,
      "t": 275410.2085000007,
      "d": 1907.6415859375265,
      "v": 101
    },
    {
      "midi": 55,
      "hit": false,
      "t": 277438.2659999998,
      "d": 1212.609380208305,
      "v": 1
    },
    {
      "midi": 57,
      "hit": false,
      "t": 277438.2659999998,
      "d": 1212.609380208305,
      "v": 1
    },
    {
      "midi": 60,
      "hit": false,
      "t": 277438.2659999998,
      "d": 1212.609380208305,
      "v": 1
    },
    {
      "midi": 67,
      "hit": false,
      "t": 277438.2659999998,
      "d": 1212.609380208305,
      "v": 1
    },
    {
      "midi": 67,
      "hit": false,
      "t": 277438.26600000076,
      "d": 1153.457703125081,
      "v": 96
    },
    {
      "midi": 60,
      "hit": false,
      "t": 277440.3785598966,
      "d": 804.8853203125764,
      "v": 91
    },
    {
      "midi": 57,
      "hit": false,
      "t": 277444.6036796883,
      "d": 680.2442864583572,
      "v": 96
    },
    {
      "midi": 41,
      "hit": false,
      "t": 277463.6167187508,
      "d": 1195.7089010417112,
      "v": 106
    },
    {
      "midi": 59,
      "hit": false,
      "t": 278249.4890000009,
      "d": 314.7714244791423,
      "v": 82
    },
    {
      "midi": 62,
      "hit": false,
      "t": 278249.4890000009,
      "d": 331.6719036457944,
      "v": 91
    },
    {
      "midi": 55,
      "hit": false,
      "t": 278655.1004999998,
      "d": 2429.4438802083605,
      "v": 1
    },
    {
      "midi": 59,
      "hit": false,
      "t": 278655.1004999998,
      "d": 2429.4438802083605,
      "v": 1
    },
    {
      "midi": 62,
      "hit": false,
      "t": 278655.1004999998,
      "d": 2429.4438802083605,
      "v": 1
    },
    {
      "midi": 67,
      "hit": false,
      "t": 278655.1004999998,
      "d": 2429.4438802083605,
      "v": 1
    },
    {
      "midi": 59,
      "hit": false,
      "t": 278655.1005000008,
      "d": 1920.3169453124865,
      "v": 74
    },
    {
      "midi": 67,
      "hit": false,
      "t": 278655.1005000008,
      "d": 1930.8797447916586,
      "v": 96
    },
    {
      "midi": 62,
      "hit": false,
      "t": 278655.1005000008,
      "d": 1939.3299843749846,
      "v": 96
    },
    {
      "midi": 43,
      "hit": false,
      "t": 278676.22609895916,
      "d": 1966.7932630208088,
      "v": 91
    },
    {
      "midi": 47,
      "hit": false,
      "t": 280683.1580000008,
      "d": 1227.3972994791693,
      "v": 106
    },
    {
      "midi": 59,
      "hit": false,
      "t": 280725.4091979175,
      "d": 1172.4707421874627,
      "v": 96
    },
    {
      "midi": 62,
      "hit": false,
      "t": 280725.4091979175,
      "d": 1223.1721796874772,
      "v": 91
    },
    {
      "midi": 55,
      "hit": false,
      "t": 281088.7694999999,
      "d": 401.38638020830695,
      "v": 1
    },
    {
      "midi": 59,
      "hit": false,
      "t": 281088.7694999999,
      "d": 401.38638020830695,
      "v": 1
    },
    {
      "midi": 64,
      "hit": false,
      "t": 281088.7694999999,
      "d": 401.38638020830695,
      "v": 1
    },
    {
      "midi": 67,
      "hit": false,
      "t": 281088.7694999999,
      "d": 401.38638020830695,
      "v": 1
    },
    {
      "midi": 55,
      "hit": false,
      "t": 281494.3809999999,
      "d": 401.38638020830695,
      "v": 1
    },
    {
      "midi": 59,
      "hit": false,
      "t": 281494.3809999999,
      "d": 401.38638020830695,
      "v": 1
    },
    {
      "midi": 65,
      "hit": false,
      "t": 281494.3809999999,
      "d": 401.38638020830695,
      "v": 1
    },
    {
      "midi": 67,
      "hit": false,
      "t": 281494.3809999999,
      "d": 401.38638020830695,
      "v": 1
    },
    {
      "midi": 55,
      "hit": false,
      "t": 281899.9924999999,
      "d": 2023.8323802083614,
      "v": 1
    },
    {
      "midi": 60,
      "hit": false,
      "t": 281899.9924999999,
      "d": 2023.8323802083614,
      "v": 1
    },
    {
      "midi": 64,
      "hit": false,
      "t": 281899.9924999999,
      "d": 2023.8323802083614,
      "v": 1
    },
    {
      "midi": 67,
      "hit": false,
      "t": 281899.9924999999,
      "d": 2023.8323802083614,
      "v": 1
    },
    {
      "midi": 67,
      "hit": false,
      "t": 281899.9925000008,
      "d": 42.2511979166884,
      "v": 96
    },
    {
      "midi": 64,
      "hit": false,
      "t": 281899.9925000008,
      "d": 1755.5372734374832,
      "v": 91
    },
    {
      "midi": 60,
      "hit": false,
      "t": 281899.9925000008,
      "d": 1797.7884713541716,
      "v": 86
    },
    {
      "midi": 48,
      "hit": false,
      "t": 281899.9925000008,
      "d": 1907.6415859375265,
      "v": 101
    },
    {
      "midi": 60,
      "hit": false,
      "t": 283928.04999999993,
      "d": 401.38638020830695,
      "v": 1
    },
    {
      "midi": 64,
      "hit": false,
      "t": 283928.04999999993,
      "d": 401.38638020830695,
      "v": 1
    },
    {
      "midi": 57,
      "hit": false,
      "t": 283928.04999999993,
      "d": 409.8366197916912,
      "v": 1
    },
    {
      "midi": 69,
      "hit": false,
      "t": 283928.04999999993,
      "d": 409.8366197916912,
      "v": 1
    },
    {
      "midi": 67,
      "hit": false,
      "t": 283928.05000000086,
      "d": 1153.4577031250228,
      "v": 96
    },
    {
      "midi": 60,
      "hit": false,
      "t": 283930.1625598967,
      "d": 1111.2065052083344,
      "v": 91
    },
    {
      "midi": 57,
      "hit": false,
      "t": 283934.3876796884,
      "d": 1111.2065052083344,
      "v": 96
    },
    {
      "midi": 41,
      "hit": false,
      "t": 283953.4007187509,
      "d": 1195.708901041653,
      "v": 106
    },
    {
      "midi": 55,
      "hit": false,
      "t": 284333.66149999993,
      "d": 806.9978802083642,
      "v": 1
    },
    {
      "midi": 67,
      "hit": false,
      "t": 284333.66149999993,
      "d": 806.9978802083642,
      "v": 1
    },
    {
      "midi": 60,
      "hit": false,
      "t": 284333.66149999993,
      "d": 813.3355598959024,
      "v": 1
    },
    {
      "midi": 64,
      "hit": false,
      "t": 284333.66149999993,
      "d": 826.0109192709206,
      "v": 1
    },
    {
      "midi": 55,
      "hit": false,
      "t": 285144.8845,
      "d": 1618.2208802083624,
      "v": 1
    },
    {
      "midi": 59,
      "hit": false,
      "t": 285144.8845,
      "d": 1618.2208802083624,
      "v": 1
    },
    {
      "midi": 62,
      "hit": false,
      "t": 285144.8845,
      "d": 1618.2208802083624,
      "v": 1
    },
    {
      "midi": 67,
      "hit": false,
      "t": 285144.8845,
      "d": 1618.2208802083624,
      "v": 1
    },
    {
      "midi": 59,
      "hit": false,
      "t": 285144.88450000086,
      "d": 1920.3169453124865,
      "v": 74
    },
    {
      "midi": 67,
      "hit": false,
      "t": 285144.88450000086,
      "d": 1930.8797447916586,
      "v": 96
    },
    {
      "midi": 62,
      "hit": false,
      "t": 285144.88450000086,
      "d": 1939.3299843749846,
      "v": 96
    },
    {
      "midi": 43,
      "hit": false,
      "t": 285166.0100989592,
      "d": 1966.7932630208088,
      "v": 91
    },
    {
      "midi": 55,
      "hit": false,
      "t": 286767.33050000004,
      "d": 401.38638020830695,
      "v": 1
    },
    {
      "midi": 59,
      "hit": false,
      "t": 286767.33050000004,
      "d": 401.38638020830695,
      "v": 1
    },
    {
      "midi": 65,
      "hit": false,
      "t": 286767.33050000004,
      "d": 401.38638020830695,
      "v": 1
    },
    {
      "midi": 67,
      "hit": false,
      "t": 286767.33050000004,
      "d": 401.38638020830695,
      "v": 1
    },
    {
      "midi": 52,
      "hit": false,
      "t": 287172.94200000004,
      "d": 1212.609380208305,
      "v": 1
    },
    {
      "midi": 59,
      "hit": false,
      "t": 287172.94200000004,
      "d": 1212.609380208305,
      "v": 1
    },
    {
      "midi": 64,
      "hit": false,
      "t": 287172.94200000004,
      "d": 1212.609380208305,
      "v": 1
    },
    {
      "midi": 68,
      "hit": false,
      "t": 287172.94200000004,
      "d": 1212.609380208305,
      "v": 1
    },
    {
      "midi": 40,
      "hit": false,
      "t": 287172.94200000085,
      "d": 1204.1591406250955,
      "v": 106
    },
    {
      "midi": 52,
      "hit": false,
      "t": 287172.94200000085,
      "d": 1204.1591406250955,
      "v": 106
    },
    {
      "midi": 59,
      "hit": false,
      "t": 287194.0675989592,
      "d": 1157.682822916715,
      "v": 96
    },
    {
      "midi": 64,
      "hit": false,
      "t": 287196.18015885504,
      "d": 1176.695861979213,
      "v": 106
    },
    {
      "midi": 68,
      "hit": false,
      "t": 287198.2927187509,
      "d": 1195.7089010417694,
      "v": 106
    },
    {
      "midi": 57,
      "hit": false,
      "t": 288389.77650000004,
      "d": 2023.8323802083614,
      "v": 1
    },
    {
      "midi": 60,
      "hit": false,
      "t": 288389.77650000004,
      "d": 2023.8323802083614,
      "v": 1
    },
    {
      "midi": 64,
      "hit": false,
      "t": 288389.77650000004,
      "d": 2023.8323802083614,
      "v": 1
    },
    {
      "midi": 69,
      "hit": false,
      "t": 288389.77650000004,
      "d": 2023.8323802083614,
      "v": 1
    },
    {
      "midi": 45,
      "hit": false,
      "t": 288389.77650000097,
      "d": 1818.9140703125158,
      "v": 91
    },
    {
      "midi": 57,
      "hit": false,
      "t": 288389.77650000097,
      "d": 1818.9140703125158,
      "v": 91
    },
    {
      "midi": 60,
      "hit": false,
      "t": 288442.5904973968,
      "d": 1930.8797447916586,
      "v": 106
    },
    {
      "midi": 64,
      "hit": false,
      "t": 288446.8156171885,
      "d": 1945.6676640624646,
      "v": 91
    },
    {
      "midi": 69,
      "hit": false,
      "t": 288453.153296876,
      "d": 1937.2174244791386,
      "v": 106
    },
    {
      "midi": 50,
      "hit": false,
      "t": 290417.8340000001,
      "d": 1212.609380208305,
      "v": 1
    },
    {
      "midi": 57,
      "hit": false,
      "t": 290417.8340000001,
      "d": 1212.609380208305,
      "v": 1
    },
    {
      "midi": 62,
      "hit": false,
      "t": 290417.8340000001,
      "d": 1212.609380208305,
      "v": 1
    },
    {
      "midi": 66,
      "hit": false,
      "t": 290417.8340000001,
      "d": 1212.609380208305,
      "v": 1
    },
    {
      "midi": 57,
      "hit": false,
      "t": 290417.83400000096,
      "d": 1109.0939453125466,
      "v": 106
    },
    {
      "midi": 38,
      "hit": false,
      "t": 290417.83400000096,
      "d": 1248.5228984375717,
      "v": 86
    },
    {
      "midi": 50,
      "hit": false,
      "t": 290417.83400000096,
      "d": 1248.5228984375717,
      "v": 86
    },
    {
      "midi": 62,
      "hit": false,
      "t": 290419.9465598968,
      "d": 1130.2195442708908,
      "v": 112
    },
    {
      "midi": 66,
      "hit": false,
      "t": 290422.05911979266,
      "d": 1166.133062500041,
      "v": 112
    },
    {
      "midi": 55,
      "hit": false,
      "t": 291634.6685000001,
      "d": 2023.8323802083614,
      "v": 1
    },
    {
      "midi": 59,
      "hit": false,
      "t": 291634.6685000001,
      "d": 2023.8323802083614,
      "v": 1
    },
    {
      "midi": 62,
      "hit": false,
      "t": 291634.6685000001,
      "d": 2023.8323802083614,
      "v": 1
    },
    {
      "midi": 67,
      "hit": false,
      "t": 291634.6685000001,
      "d": 2023.8323802083614,
      "v": 1
    },
    {
      "midi": 43,
      "hit": false,
      "t": 291634.668500001,
      "d": 1945.6676640625228,
      "v": 96
    },
    {
      "midi": 55,
      "hit": false,
      "t": 291634.668500001,
      "d": 1945.6676640625228,
      "v": 96
    },
    {
      "midi": 62,
      "hit": false,
      "t": 291634.668500001,
      "d": 2036.5077395833214,
      "v": 101
    },
    {
      "midi": 59,
      "hit": false,
      "t": 291641.0061796885,
      "d": 2013.2695807291893,
      "v": 101
    },
    {
      "midi": 67,
      "hit": false,
      "t": 291645.2312994802,
      "d": 2028.0574999999953,
      "v": 96
    },
    {
      "midi": 55,
      "hit": false,
      "t": 293654.2757604177,
      "d": 1100.6437057291623,
      "v": 101
    },
    {
      "midi": 60,
      "hit": false,
      "t": 293656.38832031353,
      "d": 1113.3190651041223,
      "v": 112
    },
    {
      "midi": 64,
      "hit": false,
      "t": 293656.38832031353,
      "d": 1191.4837812499609,
      "v": 112
    },
    {
      "midi": 48,
      "hit": false,
      "t": 293662.72600000014,
      "d": 401.38638020830695,
      "v": 1
    },
    {
      "midi": 60,
      "hit": false,
      "t": 293662.72600000014,
      "d": 401.38638020830695,
      "v": 1
    },
    {
      "midi": 64,
      "hit": false,
      "t": 293662.72600000014,
      "d": 401.38638020830695,
      "v": 1
    },
    {
      "midi": 67,
      "hit": false,
      "t": 293662.72600000014,
      "d": 401.38638020830695,
      "v": 1
    },
    {
      "midi": 48,
      "hit": false,
      "t": 293662.726000001,
      "d": 1193.5963411458652,
      "v": 118
    },
    {
      "midi": 64,
      "hit": false,
      "t": 294068.33750000014,
      "d": 775.3094817708479,
      "v": 1
    },
    {
      "midi": 60,
      "hit": false,
      "t": 294068.33750000014,
      "d": 806.9978802083642,
      "v": 1
    },
    {
      "midi": 52,
      "hit": false,
      "t": 294068.33750000014,
      "d": 811.2230000000563,
      "v": 1
    },
    {
      "midi": 60,
      "hit": false,
      "t": 294852.0972213552,
      "d": 1987.9188619792694,
      "v": 106
    },
    {
      "midi": 57,
      "hit": false,
      "t": 294854.20978125103,
      "d": 1964.6807031250792,
      "v": 106
    },
    {
      "midi": 65,
      "hit": false,
      "t": 294856.3223411469,
      "d": 1987.9188619792694,
      "v": 112
    },
    {
      "midi": 53,
      "hit": false,
      "t": 294879.5605000002,
      "d": 1618.2208802083624,
      "v": 1
    },
    {
      "midi": 60,
      "hit": false,
      "t": 294879.5605000002,
      "d": 1618.2208802083624,
      "v": 1
    },
    {
      "midi": 65,
      "hit": false,
      "t": 294879.5605000002,
      "d": 1618.2208802083624,
      "v": 1
    },
    {
      "midi": 53,
      "hit": false,
      "t": 294879.56050000107,
      "d": 1818.9140703125158,
      "v": 91
    },
    {
      "midi": 53,
      "hit": false,
      "t": 296502.00650000025,
      "d": 401.38638020830695,
      "v": 1
    },
    {
      "midi": 57,
      "hit": false,
      "t": 296502.00650000025,
      "d": 401.38638020830695,
      "v": 1
    },
    {
      "midi": 65,
      "hit": false,
      "t": 296502.00650000025,
      "d": 401.38638020830695,
      "v": 1
    },
    {
      "midi": 72,
      "hit": false,
      "t": 296903.3928802095,
      "d": 1172.4707421875792,
      "v": 112
    },
    {
      "midi": 62,
      "hit": false,
      "t": 296907.61800000025,
      "d": 401.38638020830695,
      "v": 1
    },
    {
      "midi": 65,
      "hit": false,
      "t": 296907.61800000025,
      "d": 401.38638020830695,
      "v": 1
    },
    {
      "midi": 69,
      "hit": false,
      "t": 296907.61800000025,
      "d": 420.3994192708051,
      "v": 1
    },
    {
      "midi": 50,
      "hit": false,
      "t": 296907.61800000025,
      "d": 424.6245390624972,
      "v": 1
    },
    {
      "midi": 50,
      "hit": false,
      "t": 296907.6180000012,
      "d": 1193.5963411458652,
      "v": 118
    },
    {
      "midi": 69,
      "hit": false,
      "t": 296911.8431197929,
      "d": 1174.583302083367,
      "v": 101
    },
    {
      "midi": 65,
      "hit": false,
      "t": 296913.9556796887,
      "d": 1100.6437057291623,
      "v": 101
    },
    {
      "midi": 62,
      "hit": false,
      "t": 296913.9556796887,
      "d": 1104.8688255208544,
      "v": 101
    },
    {
      "midi": 65,
      "hit": false,
      "t": 297313.22950000025,
      "d": 800.660200520826,
      "v": 1
    },
    {
      "midi": 67,
      "hit": false,
      "t": 297313.22950000025,
      "d": 806.997880208306,
      "v": 1
    },
    {
      "midi": 53,
      "hit": false,
      "t": 297313.22950000025,
      "d": 813.3355598958442,
      "v": 1
    },
    {
      "midi": 60,
      "hit": false,
      "t": 297313.22950000025,
      "d": 817.5606796875363,
      "v": 1
    },
    {
      "midi": 62,
      "hit": false,
      "t": 298116.0022604179,
      "d": 1992.1439817708451,
      "v": 96
    },
    {
      "midi": 55,
      "hit": false,
      "t": 298124.45250000025,
      "d": 2023.8323802083614,
      "v": 1
    },
    {
      "midi": 59,
      "hit": false,
      "t": 298124.45250000025,
      "d": 2023.8323802083614,
      "v": 1
    },
    {
      "midi": 67,
      "hit": false,
      "t": 298124.45250000025,
      "d": 2023.8323802083614,
      "v": 1
    },
    {
      "midi": 55,
      "hit": false,
      "t": 298124.45250000124,
      "d": 1818.9140703125158,
      "v": 91
    },
    {
      "midi": 67,
      "hit": false,
      "t": 298128.6776197929,
      "d": 2015.3821406249772,
      "v": 101
    },
    {
      "midi": 71,
      "hit": false,
      "t": 298128.6776197929,
      "d": 2015.3821406249772,
      "v": 106
    },
    {
      "midi": 59,
      "hit": false,
      "t": 300152.5100000003,
      "d": 1212.609380208305,
      "v": 1
    },
    {
      "midi": 62,
      "hit": false,
      "t": 300152.5100000003,
      "d": 1212.609380208305,
      "v": 1
    },
    {
      "midi": 67,
      "hit": false,
      "t": 300152.5100000003,
      "d": 1212.609380208305,
      "v": 1
    },
    {
      "midi": 60,
      "hit": false,
      "t": 301369.3445000003,
      "d": 2023.8323802083614,
      "v": 1
    },
    {
      "midi": 64,
      "hit": false,
      "t": 301369.3445000003,
      "d": 2023.8323802083614,
      "v": 1
    },
    {
      "midi": 67,
      "hit": false,
      "t": 301369.3445000003,
      "d": 2023.8323802083614,
      "v": 1
    },
    {
      "midi": 60,
      "hit": false,
      "t": 303397.40200000035,
      "d": 1212.609380208305,
      "v": 1
    },
    {
      "midi": 65,
      "hit": false,
      "t": 303397.40200000035,
      "d": 1212.609380208305,
      "v": 1
    },
    {
      "midi": 69,
      "hit": false,
      "t": 303397.40200000035,
      "d": 1212.609380208305,
      "v": 1
    },
    {
      "midi": 62,
      "hit": false,
      "t": 304614.23650000035,
      "d": 2023.8323802083614,
      "v": 1
    },
    {
      "midi": 67,
      "hit": false,
      "t": 304614.23650000035,
      "d": 2023.8323802083614,
      "v": 1
    },
    {
      "midi": 55,
      "hit": false,
      "t": 306642.2940000004,
      "d": 1212.609380208305,
      "v": 1
    },
    {
      "midi": 62,
      "hit": false,
      "t": 306642.2940000004,
      "d": 1212.609380208305,
      "v": 1
    },
    {
      "midi": 67,
      "hit": false,
      "t": 306642.2940000004,
      "d": 1212.609380208305,
      "v": 1
    },
    {
      "midi": 57,
      "hit": false,
      "t": 307859.1285000004,
      "d": 1212.609380208305,
      "v": 1
    },
    {
      "midi": 64,
      "hit": false,
      "t": 307859.1285000004,
      "d": 1212.609380208305,
      "v": 1
    },
    {
      "midi": 69,
      "hit": false,
      "t": 307859.1285000004,
      "d": 1212.609380208305,
      "v": 1
    },
    {
      "midi": 57,
      "hit": false,
      "t": 309075.9630000004,
      "d": 1212.609380208305,
      "v": 1
    },
    {
      "midi": 64,
      "hit": false,
      "t": 309075.9630000004,
      "d": 1212.609380208305,
      "v": 1
    },
    {
      "midi": 55,
      "hit": false,
      "t": 310292.7975000004,
      "d": 806.997880208306,
      "v": 1
    },
    {
      "midi": 62,
      "hit": false,
      "t": 310292.7975000004,
      "d": 806.997880208306,
      "v": 1
    },
    {
      "midi": 57,
      "hit": false,
      "t": 311104.0205000004,
      "d": 2023.8323802083614,
      "v": 1
    },
    {
      "midi": 64,
      "hit": false,
      "t": 311104.0205000004,
      "d": 2023.8323802083614,
      "v": 1
    },
    {
      "midi": 57,
      "hit": false,
      "t": 313132.07800000045,
      "d": 1212.609380208305,
      "v": 1
    },
    {
      "midi": 62,
      "hit": false,
      "t": 313132.07800000045,
      "d": 1212.609380208305,
      "v": 1
    },
    {
      "midi": 65,
      "hit": false,
      "t": 313132.07800000045,
      "d": 1212.609380208305,
      "v": 1
    },
    {
      "midi": 55,
      "hit": false,
      "t": 314348.91250000044,
      "d": 1212.609380208305,
      "v": 1
    },
    {
      "midi": 60,
      "hit": false,
      "t": 314348.91250000044,
      "d": 1212.609380208305,
      "v": 1
    },
    {
      "midi": 64,
      "hit": false,
      "t": 314348.91250000044,
      "d": 1212.609380208305,
      "v": 1
    },
    {
      "midi": 67,
      "hit": false,
      "t": 314348.91250000044,
      "d": 1212.609380208305,
      "v": 1
    },
    {
      "midi": 55,
      "hit": false,
      "t": 315565.74700000044,
      "d": 1212.609380208305,
      "v": 1
    },
    {
      "midi": 64,
      "hit": false,
      "t": 315565.74700000044,
      "d": 1212.609380208305,
      "v": 1
    },
    {
      "midi": 55,
      "hit": false,
      "t": 316782.58150000044,
      "d": 806.997880208306,
      "v": 1
    },
    {
      "midi": 62,
      "hit": false,
      "t": 316782.58150000044,
      "d": 806.997880208306,
      "v": 1
    },
    {
      "midi": 64,
      "hit": false,
      "t": 317593.80450000043,
      "d": 3240.6668802083004,
      "v": 1
    },
    {
      "midi": 60,
      "hit": false,
      "t": 317593.80450000043,
      "d": 3646.2783802082995,
      "v": 1
    }
  ]
}