{
  "jsonPath": "Rock/Danspunk/Vikingarna/corrine-corrina.json",
  "path": "Rock\\Danspunk\\Vikingarna\\Corrine Corrina.mid",
  "name": "Corrine Corrina",
  "difficulty": "Advanced",
  "bpm": 120,
  "notes": [
    {
      "midi": 57,
      "hit": false,
      "t": 0,
      "d": 3729.1666666666665,
      "v": 65
    },
    {
      "midi": 61,
      "hit": false,
      "t": 0,
      "d": 3729.1666666666665,
      "v": 65
    },
    {
      "midi": 64,
      "hit": false,
      "t": 0,
      "d": 3729.1666666666665,
      "v": 65
    },
    {
      "midi": 57,
      "hit": false,
      "t": 0,
      "d": 3729.1666666666665,
      "v": 65
    },
    {
      "midi": 61,
      "hit": false,
      "t": 0,
      "d": 3729.1666666666665,
      "v": 65
    },
    {
      "midi": 64,
      "hit": false,
      "t": 0,
      "d": 3729.1666666666665,
      "v": 65
    },
    {
      "midi": 64,
      "hit": false,
      "t": 3247.3958333333335,
      "d": 130.20833333333348,
      "v": 101
    },
    {
      "midi": 64,
      "hit": false,
      "t": 3518.229166666667,
      "d": 291.66666666666697,
      "v": 99
    },
    {
      "midi": 69,
      "hit": false,
      "t": 3750.0000000000005,
      "d": 276.0416666666665,
      "v": 80
    },
    {
      "midi": 73,
      "hit": false,
      "t": 3984.3750000000005,
      "d": 419.2708333333335,
      "v": 78
    },
    {
      "midi": 45,
      "hit": false,
      "t": 4250,
      "d": 3690.104166666667,
      "v": 76
    },
    {
      "midi": 45,
      "hit": false,
      "t": 4250,
      "d": 3690.104166666667,
      "v": 76
    },
    {
      "midi": 64,
      "hit": false,
      "t": 4500,
      "d": 2072.916666666667,
      "v": 89
    },
    {
      "midi": 64,
      "hit": false,
      "t": 4500,
      "d": 2072.916666666667,
      "v": 89
    },
    {
      "midi": 73,
      "hit": false,
      "t": 4520.833333333334,
      "d": 247.39583333333394,
      "v": 108
    },
    {
      "midi": 69,
      "hit": false,
      "t": 4750,
      "d": 1916.666666666667,
      "v": 50
    },
    {
      "midi": 73,
      "hit": false,
      "t": 4750,
      "d": 1940.104166666667,
      "v": 73
    },
    {
      "midi": 69,
      "hit": false,
      "t": 4750,
      "d": 1916.666666666667,
      "v": 50
    },
    {
      "midi": 73,
      "hit": false,
      "t": 4750,
      "d": 1940.104166666667,
      "v": 73
    },
    {
      "midi": 71,
      "hit": false,
      "t": 4757.812500000001,
      "d": 289.0625,
      "v": 84
    },
    {
      "midi": 73,
      "hit": false,
      "t": 5000.000000000001,
      "d": 286.45833333333303,
      "v": 90
    },
    {
      "midi": 74,
      "hit": false,
      "t": 5265.625000000001,
      "d": 468.75,
      "v": 90
    },
    {
      "midi": 73,
      "hit": false,
      "t": 5750.000000000001,
      "d": 1510.416666666666,
      "v": 103
    },
    {
      "midi": 64,
      "hit": false,
      "t": 6750,
      "d": 1190.104166666667,
      "v": 79
    },
    {
      "midi": 64,
      "hit": false,
      "t": 6750,
      "d": 1190.104166666667,
      "v": 79
    },
    {
      "midi": 71,
      "hit": false,
      "t": 7000,
      "d": 218.75,
      "v": 85
    },
    {
      "midi": 76,
      "hit": false,
      "t": 7000,
      "d": 940.104166666667,
      "v": 92
    },
    {
      "midi": 71,
      "hit": false,
      "t": 7000,
      "d": 218.75,
      "v": 85
    },
    {
      "midi": 76,
      "hit": false,
      "t": 7000,
      "d": 940.104166666667,
      "v": 92
    },
    {
      "midi": 73,
      "hit": false,
      "t": 7250,
      "d": 229.16666666666697,
      "v": 79
    },
    {
      "midi": 73,
      "hit": false,
      "t": 7250,
      "d": 229.16666666666697,
      "v": 79
    },
    {
      "midi": 69,
      "hit": false,
      "t": 7255.208333333334,
      "d": 156.25,
      "v": 99
    },
    {
      "midi": 69,
      "hit": false,
      "t": 7497.395833333334,
      "d": 236.97916666666697,
      "v": 88
    },
    {
      "midi": 71,
      "hit": false,
      "t": 7500,
      "d": 216.14583333333303,
      "v": 49
    },
    {
      "midi": 71,
      "hit": false,
      "t": 7500,
      "d": 216.14583333333303,
      "v": 49
    },
    {
      "midi": 71,
      "hit": false,
      "t": 7708.333333333334,
      "d": 273.4375,
      "v": 88
    },
    {
      "midi": 69,
      "hit": false,
      "t": 7750,
      "d": 190.10416666666697,
      "v": 82
    },
    {
      "midi": 69,
      "hit": false,
      "t": 7750,
      "d": 190.10416666666697,
      "v": 82
    },
    {
      "midi": 69,
      "hit": false,
      "t": 7973.958333333334,
      "d": 377.60416666666606,
      "v": 99
    },
    {
      "midi": 50,
      "hit": false,
      "t": 8250,
      "d": 1710.9375,
      "v": 84
    },
    {
      "midi": 50,
      "hit": false,
      "t": 8250,
      "d": 1710.9375,
      "v": 84
    },
    {
      "midi": 69,
      "hit": false,
      "t": 8481.770833333334,
      "d": 234.375,
      "v": 97
    },
    {
      "midi": 57,
      "hit": false,
      "t": 8500,
      "d": 1447.916666666666,
      "v": 74
    },
    {
      "midi": 57,
      "hit": false,
      "t": 8500,
      "d": 1447.916666666666,
      "v": 74
    },
    {
      "midi": 71,
      "hit": false,
      "t": 8700.520833333334,
      "d": 273.4375,
      "v": 85
    },
    {
      "midi": 62,
      "hit": false,
      "t": 8750,
      "d": 1148.4375,
      "v": 63
    },
    {
      "midi": 66,
      "hit": false,
      "t": 8750,
      "d": 1148.4375,
      "v": 81
    },
    {
      "midi": 62,
      "hit": false,
      "t": 8750,
      "d": 1148.4375,
      "v": 63
    },
    {
      "midi": 66,
      "hit": false,
      "t": 8750,
      "d": 1148.4375,
      "v": 81
    },
    {
      "midi": 69,
      "hit": false,
      "t": 8966.145833333334,
      "d": 296.875,
      "v": 94
    },
    {
      "midi": 66,
      "hit": false,
      "t": 9229.166666666668,
      "d": 523.4375,
      "v": 101
    },
    {
      "midi": 64,
      "hit": false,
      "t": 9757.812500000002,
      "d": 1356.770833333334,
      "v": 104
    },
    {
      "midi": 57,
      "hit": false,
      "t": 10000,
      "d": 570.3125,
      "v": 39
    },
    {
      "midi": 61,
      "hit": false,
      "t": 10000,
      "d": 1697.916666666666,
      "v": 71
    },
    {
      "midi": 64,
      "hit": false,
      "t": 10000,
      "d": 1697.916666666666,
      "v": 63
    },
    {
      "midi": 57,
      "hit": false,
      "t": 10000,
      "d": 570.3125,
      "v": 39
    },
    {
      "midi": 61,
      "hit": false,
      "t": 10000,
      "d": 1697.916666666666,
      "v": 71
    },
    {
      "midi": 64,
      "hit": false,
      "t": 10000,
      "d": 1697.916666666666,
      "v": 63
    },
    {
      "midi": 45,
      "hit": false,
      "t": 10250,
      "d": 1502.604166666666,
      "v": 71
    },
    {
      "midi": 45,
      "hit": false,
      "t": 10250,
      "d": 1502.604166666666,
      "v": 71
    },
    {
      "midi": 49,
      "hit": false,
      "t": 10500,
      "d": 299.47916666666606,
      "v": 60
    },
    {
      "midi": 49,
      "hit": false,
      "t": 10500,
      "d": 299.47916666666606,
      "v": 60
    },
    {
      "midi": 52,
      "hit": false,
      "t": 10750,
      "d": 960.9375,
      "v": 74
    },
    {
      "midi": 52,
      "hit": false,
      "t": 10750,
      "d": 960.9375,
      "v": 74
    },
    {
      "midi": 64,
      "hit": false,
      "t": 11247.395833333336,
      "d": 135.41666666666606,
      "v": 99
    },
    {
      "midi": 64,
      "hit": false,
      "t": 11476.562500000002,
      "d": 315.10416666666606,
      "v": 94
    },
    {
      "midi": 69,
      "hit": false,
      "t": 11726.562500000002,
      "d": 302.0833333333321,
      "v": 89
    },
    {
      "midi": 73,
      "hit": false,
      "t": 11989.583333333334,
      "d": 424.47916666666606,
      "v": 93
    },
    {
      "midi": 45,
      "hit": false,
      "t": 12250,
      "d": 3690.104166666666,
      "v": 76
    },
    {
      "midi": 45,
      "hit": false,
      "t": 12250,
      "d": 3690.104166666666,
      "v": 76
    },
    {
      "midi": 64,
      "hit": false,
      "t": 12500,
      "d": 2072.916666666666,
      "v": 89
    },
    {
      "midi": 64,
      "hit": false,
      "t": 12500,
      "d": 2072.916666666666,
      "v": 89
    },
    {
      "midi": 73,
      "hit": false,
      "t": 12526.041666666666,
      "d": 208.33333333333394,
      "v": 103
    },
    {
      "midi": 71,
      "hit": false,
      "t": 12742.1875,
      "d": 270.83333333333394,
      "v": 81
    },
    {
      "midi": 69,
      "hit": false,
      "t": 12750,
      "d": 1916.666666666666,
      "v": 50
    },
    {
      "midi": 73,
      "hit": false,
      "t": 12750,
      "d": 1940.104166666666,
      "v": 73
    },
    {
      "midi": 69,
      "hit": false,
      "t": 12750,
      "d": 1916.666666666666,
      "v": 50
    },
    {
      "midi": 73,
      "hit": false,
      "t": 12750,
      "d": 1940.104166666666,
      "v": 73
    },
    {
      "midi": 73,
      "hit": false,
      "t": 12989.583333333334,
      "d": 268.2291666666679,
      "v": 99
    },
    {
      "midi": 74,
      "hit": false,
      "t": 13244.791666666668,
      "d": 450.52083333333394,
      "v": 90
    },
    {
      "midi": 73,
      "hit": false,
      "t": 13729.166666666668,
      "d": 1565.1041666666679,
      "v": 101
    },
    {
      "midi": 64,
      "hit": false,
      "t": 14750,
      "d": 1190.104166666666,
      "v": 79
    },
    {
      "midi": 64,
      "hit": false,
      "t": 14750,
      "d": 1190.104166666666,
      "v": 79
    },
    {
      "midi": 71,
      "hit": false,
      "t": 15000,
      "d": 218.75,
      "v": 85
    },
    {
      "midi": 76,
      "hit": false,
      "t": 15000,
      "d": 940.1041666666661,
      "v": 92
    },
    {
      "midi": 71,
      "hit": false,
      "t": 15000,
      "d": 218.75,
      "v": 85
    },
    {
      "midi": 76,
      "hit": false,
      "t": 15000,
      "d": 940.1041666666661,
      "v": 92
    },
    {
      "midi": 73,
      "hit": false,
      "t": 15250,
      "d": 229.16666666666606,
      "v": 79
    },
    {
      "midi": 73,
      "hit": false,
      "t": 15250,
      "d": 229.16666666666606,
      "v": 79
    },
    {
      "midi": 69,
      "hit": false,
      "t": 15265.625000000002,
      "d": 161.45833333333394,
      "v": 96
    },
    {
      "midi": 71,
      "hit": false,
      "t": 15500,
      "d": 216.14583333333394,
      "v": 49
    },
    {
      "midi": 71,
      "hit": false,
      "t": 15500,
      "d": 216.14583333333394,
      "v": 49
    },
    {
      "midi": 69,
      "hit": false,
      "t": 15502.60416666667,
      "d": 135.41666666666606,
      "v": 86
    },
    {
      "midi": 69,
      "hit": false,
      "t": 15734.375000000002,
      "d": 260.41666666666606,
      "v": 96
    },
    {
      "midi": 69,
      "hit": false,
      "t": 15750,
      "d": 190.10416666666606,
      "v": 82
    },
    {
      "midi": 69,
      "hit": false,
      "t": 15750,
      "d": 190.10416666666606,
      "v": 82
    },
    {
      "midi": 71,
      "hit": false,
      "t": 15976.562500000002,
      "d": 421.8749999999982,
      "v": 96
    },
    {
      "midi": 66,
      "hit": false,
      "t": 16000,
      "d": 231.77083333333394,
      "v": 74
    },
    {
      "midi": 52,
      "hit": false,
      "t": 16000,
      "d": 2000,
      "v": 58
    },
    {
      "midi": 71,
      "hit": false,
      "t": 16000,
      "d": 2000,
      "v": 81
    },
    {
      "midi": 66,
      "hit": false,
      "t": 16000,
      "d": 231.77083333333394,
      "v": 74
    },
    {
      "midi": 52,
      "hit": false,
      "t": 16000,
      "d": 2000,
      "v": 58
    },
    {
      "midi": 71,
      "hit": false,
      "t": 16000,
      "d": 2000,
      "v": 81
    },
    {
      "midi": 68,
      "hit": false,
      "t": 16250,
      "d": 299.4791666666679,
      "v": 65
    },
    {
      "midi": 68,
      "hit": false,
      "t": 16250,
      "d": 299.4791666666679,
      "v": 65
    },
    {
      "midi": 71,
      "hit": false,
      "t": 16486.979166666668,
      "d": 265.625,
      "v": 85
    },
    {
      "midi": 66,
      "hit": false,
      "t": 16500,
      "d": 265.625,
      "v": 63
    },
    {
      "midi": 66,
      "hit": false,
      "t": 16500,
      "d": 265.625,
      "v": 63
    },
    {
      "midi": 74,
      "hit": false,
      "t": 16755.208333333336,
      "d": 255.20833333333212,
      "v": 91
    },
    {
      "midi": 64,
      "hit": false,
      "t": 16765.625,
      "d": 1234.375,
      "v": 84
    },
    {
      "midi": 64,
      "hit": false,
      "t": 16765.625,
      "d": 1234.375,
      "v": 84
    },
    {
      "midi": 73,
      "hit": false,
      "t": 16989.583333333336,
      "d": 247.39583333333212,
      "v": 93
    },
    {
      "midi": 71,
      "hit": false,
      "t": 17244.791666666668,
      "d": 494.7916666666679,
      "v": 101
    },
    {
      "midi": 69,
      "hit": false,
      "t": 17757.812500000004,
      "d": 3466.145833333332,
      "v": 102
    },
    {
      "midi": 45,
      "hit": false,
      "t": 18250,
      "d": 1710.9375,
      "v": 84
    },
    {
      "midi": 45,
      "hit": false,
      "t": 18250,
      "d": 1710.9375,
      "v": 84
    },
    {
      "midi": 52,
      "hit": false,
      "t": 18500,
      "d": 1447.9166666666679,
      "v": 74
    },
    {
      "midi": 52,
      "hit": false,
      "t": 18500,
      "d": 1447.9166666666679,
      "v": 74
    },
    {
      "midi": 57,
      "hit": false,
      "t": 18750,
      "d": 1148.4375,
      "v": 63
    },
    {
      "midi": 61,
      "hit": false,
      "t": 18750,
      "d": 1148.4375,
      "v": 81
    },
    {
      "midi": 57,
      "hit": false,
      "t": 18750,
      "d": 1148.4375,
      "v": 63
    },
    {
      "midi": 61,
      "hit": false,
      "t": 18750,
      "d": 1148.4375,
      "v": 81
    },
    {
      "midi": 57,
      "hit": false,
      "t": 20000,
      "d": 570.3125,
      "v": 39
    },
    {
      "midi": 61,
      "hit": false,
      "t": 20000,
      "d": 1697.9166666666679,
      "v": 71
    },
    {
      "midi": 64,
      "hit": false,
      "t": 20000,
      "d": 1697.9166666666679,
      "v": 63
    },
    {
      "midi": 57,
      "hit": false,
      "t": 20000,
      "d": 570.3125,
      "v": 39
    },
    {
      "midi": 61,
      "hit": false,
      "t": 20000,
      "d": 1697.9166666666679,
      "v": 71
    },
    {
      "midi": 64,
      "hit": false,
      "t": 20000,
      "d": 1697.9166666666679,
      "v": 63
    },
    {
      "midi": 45,
      "hit": false,
      "t": 20250,
      "d": 1502.6041666666679,
      "v": 71
    },
    {
      "midi": 45,
      "hit": false,
      "t": 20250,
      "d": 1502.6041666666679,
      "v": 71
    },
    {
      "midi": 49,
      "hit": false,
      "t": 20500,
      "d": 299.4791666666679,
      "v": 60
    },
    {
      "midi": 49,
      "hit": false,
      "t": 20500,
      "d": 299.4791666666679,
      "v": 60
    },
    {
      "midi": 52,
      "hit": false,
      "t": 20750,
      "d": 960.9375,
      "v": 74
    },
    {
      "midi": 52,
      "hit": false,
      "t": 20750,
      "d": 960.9375,
      "v": 74
    },
    {
      "midi": 57,
      "hit": false,
      "t": 22000,
      "d": 187.5,
      "v": 71
    },
    {
      "midi": 61,
      "hit": false,
      "t": 22000,
      "d": 187.5,
      "v": 71
    },
    {
      "midi": 64,
      "hit": false,
      "t": 22000,
      "d": 187.5,
      "v": 71
    },
    {
      "midi": 57,
      "hit": false,
      "t": 22000,
      "d": 187.5,
      "v": 71
    },
    {
      "midi": 61,
      "hit": false,
      "t": 22000,
      "d": 187.5,
      "v": 71
    },
    {
      "midi": 64,
      "hit": false,
      "t": 22000,
      "d": 187.5,
      "v": 71
    },
    {
      "midi": 57,
      "hit": false,
      "t": 22500,
      "d": 1895.8333333333321,
      "v": 84
    },
    {
      "midi": 61,
      "hit": false,
      "t": 22500,
      "d": 1895.8333333333321,
      "v": 84
    },
    {
      "midi": 64,
      "hit": false,
      "t": 22500,
      "d": 1895.8333333333321,
      "v": 84
    },
    {
      "midi": 57,
      "hit": false,
      "t": 22500,
      "d": 1895.8333333333321,
      "v": 84
    },
    {
      "midi": 61,
      "hit": false,
      "t": 22500,
      "d": 1895.8333333333321,
      "v": 84
    },
    {
      "midi": 64,
      "hit": false,
      "t": 22500,
      "d": 1895.8333333333321,
      "v": 84
    },
    {
      "midi": 45,
      "hit": false,
      "t": 24250,
      "d": 1716.1458333333321,
      "v": 77
    },
    {
      "midi": 45,
      "hit": false,
      "t": 24250,
      "d": 1716.1458333333321,
      "v": 77
    },
    {
      "midi": 52,
      "hit": false,
      "t": 24500,
      "d": 1466.1458333333321,
      "v": 81
    },
    {
      "midi": 52,
      "hit": false,
      "t": 24500,
      "d": 1466.1458333333321,
      "v": 81
    },
    {
      "midi": 61,
      "hit": false,
      "t": 24750,
      "d": 1216.1458333333321,
      "v": 65
    },
    {
      "midi": 61,
      "hit": false,
      "t": 24750,
      "d": 1216.1458333333321,
      "v": 65
    },
    {
      "midi": 57,
      "hit": false,
      "t": 25250,
      "d": 716.1458333333321,
      "v": 48
    },
    {
      "midi": 57,
      "hit": false,
      "t": 25250,
      "d": 716.1458333333321,
      "v": 48
    },
    {
      "midi": 64,
      "hit": false,
      "t": 26000,
      "d": 231.77083333333212,
      "v": 74
    },
    {
      "midi": 50,
      "hit": false,
      "t": 26000,
      "d": 2000,
      "v": 58
    },
    {
      "midi": 69,
      "hit": false,
      "t": 26000,
      "d": 2000,
      "v": 81
    },
    {
      "midi": 64,
      "hit": false,
      "t": 26000,
      "d": 231.77083333333212,
      "v": 74
    },
    {
      "midi": 50,
      "hit": false,
      "t": 26000,
      "d": 2000,
      "v": 58
    },
    {
      "midi": 69,
      "hit": false,
      "t": 26000,
      "d": 2000,
      "v": 81
    },
    {
      "midi": 66,
      "hit": false,
      "t": 26250,
      "d": 299.4791666666679,
      "v": 65
    },
    {
      "midi": 66,
      "hit": false,
      "t": 26250,
      "d": 299.4791666666679,
      "v": 65
    },
    {
      "midi": 64,
      "hit": false,
      "t": 26500,
      "d": 265.625,
      "v": 63
    },
    {
      "midi": 64,
      "hit": false,
      "t": 26500,
      "d": 265.625,
      "v": 63
    },
    {
      "midi": 62,
      "hit": false,
      "t": 26765.625,
      "d": 1234.375,
      "v": 84
    },
    {
      "midi": 62,
      "hit": false,
      "t": 26765.625,
      "d": 1234.375,
      "v": 84
    },
    {
      "midi": 57,
      "hit": false,
      "t": 28000,
      "d": 1841.1458333333321,
      "v": 52
    },
    {
      "midi": 61,
      "hit": false,
      "t": 28000,
      "d": 1841.1458333333321,
      "v": 52
    },
    {
      "midi": 64,
      "hit": false,
      "t": 28000,
      "d": 1841.1458333333321,
      "v": 52
    },
    {
      "midi": 57,
      "hit": false,
      "t": 28000,
      "d": 1841.1458333333321,
      "v": 52
    },
    {
      "midi": 61,
      "hit": false,
      "t": 28000,
      "d": 1841.1458333333321,
      "v": 52
    },
    {
      "midi": 64,
      "hit": false,
      "t": 28000,
      "d": 1841.1458333333321,
      "v": 52
    },
    {
      "midi": 64,
      "hit": false,
      "t": 30000,
      "d": 2500,
      "v": 81
    },
    {
      "midi": 57,
      "hit": false,
      "t": 30000,
      "d": 2520.833333333332,
      "v": 81
    },
    {
      "midi": 61,
      "hit": false,
      "t": 30000,
      "d": 2520.833333333332,
      "v": 81
    },
    {
      "midi": 64,
      "hit": false,
      "t": 30000,
      "d": 2500,
      "v": 81
    },
    {
      "midi": 57,
      "hit": false,
      "t": 30000,
      "d": 2520.833333333332,
      "v": 81
    },
    {
      "midi": 61,
      "hit": false,
      "t": 30000,
      "d": 2520.833333333332,
      "v": 81
    },
    {
      "midi": 59,
      "hit": false,
      "t": 32500,
      "d": 307.29166666666424,
      "v": 65
    },
    {
      "midi": 64,
      "hit": false,
      "t": 32500,
      "d": 1320.3124999999927,
      "v": 74
    },
    {
      "midi": 59,
      "hit": false,
      "t": 32500,
      "d": 307.29166666666424,
      "v": 65
    },
    {
      "midi": 64,
      "hit": false,
      "t": 32500,
      "d": 1320.3124999999927,
      "v": 74
    },
    {
      "midi": 61,
      "hit": false,
      "t": 32750,
      "d": 757.8125,
      "v": 84
    },
    {
      "midi": 61,
      "hit": false,
      "t": 32750,
      "d": 757.8125,
      "v": 84
    },
    {
      "midi": 59,
      "hit": false,
      "t": 33250,
      "d": 322.91666666666424,
      "v": 74
    },
    {
      "midi": 59,
      "hit": false,
      "t": 33250,
      "d": 322.91666666666424,
      "v": 74
    },
    {
      "midi": 57,
      "hit": false,
      "t": 33507.8125,
      "d": 278.6458333333285,
      "v": 81
    },
    {
      "midi": 57,
      "hit": false,
      "t": 33507.8125,
      "d": 278.6458333333285,
      "v": 81
    },
    {
      "midi": 54,
      "hit": false,
      "t": 33999.99999999999,
      "d": 1841.1458333333358,
      "v": 52
    },
    {
      "midi": 59,
      "hit": false,
      "t": 33999.99999999999,
      "d": 1841.1458333333358,
      "v": 52
    },
    {
      "midi": 63,
      "hit": false,
      "t": 33999.99999999999,
      "d": 1841.1458333333358,
      "v": 52
    },
    {
      "midi": 54,
      "hit": false,
      "t": 33999.99999999999,
      "d": 1841.1458333333358,
      "v": 52
    },
    {
      "midi": 59,
      "hit": false,
      "t": 33999.99999999999,
      "d": 1841.1458333333358,
      "v": 52
    },
    {
      "midi": 63,
      "hit": false,
      "t": 33999.99999999999,
      "d": 1841.1458333333358,
      "v": 52
    },
    {
      "midi": 56,
      "hit": false,
      "t": 35999.99999999999,
      "d": 1125,
      "v": 84
    },
    {
      "midi": 59,
      "hit": false,
      "t": 35999.99999999999,
      "d": 1125,
      "v": 84
    },
    {
      "midi": 64,
      "hit": false,
      "t": 35999.99999999999,
      "d": 1125,
      "v": 84
    },
    {
      "midi": 56,
      "hit": false,
      "t": 35999.99999999999,
      "d": 1125,
      "v": 84
    },
    {
      "midi": 59,
      "hit": false,
      "t": 35999.99999999999,
      "d": 1125,
      "v": 84
    },
    {
      "midi": 64,
      "hit": false,
      "t": 35999.99999999999,
      "d": 1125,
      "v": 84
    },
    {
      "midi": 56,
      "hit": false,
      "t": 37249.99999999999,
      "d": 166.66666666666424,
      "v": 81
    },
    {
      "midi": 59,
      "hit": false,
      "t": 37249.99999999999,
      "d": 166.66666666666424,
      "v": 81
    },
    {
      "midi": 64,
      "hit": false,
      "t": 37249.99999999999,
      "d": 166.66666666666424,
      "v": 81
    },
    {
      "midi": 56,
      "hit": false,
      "t": 37249.99999999999,
      "d": 166.66666666666424,
      "v": 81
    },
    {
      "midi": 59,
      "hit": false,
      "t": 37249.99999999999,
      "d": 166.66666666666424,
      "v": 81
    },
    {
      "midi": 64,
      "hit": false,
      "t": 37249.99999999999,
      "d": 166.66666666666424,
      "v": 81
    },
    {
      "midi": 57,
      "hit": false,
      "t": 37999.99999999999,
      "d": 187.5,
      "v": 71
    },
    {
      "midi": 61,
      "hit": false,
      "t": 37999.99999999999,
      "d": 187.5,
      "v": 71
    },
    {
      "midi": 64,
      "hit": false,
      "t": 37999.99999999999,
      "d": 187.5,
      "v": 71
    },
    {
      "midi": 57,
      "hit": false,
      "t": 37999.99999999999,
      "d": 187.5,
      "v": 71
    },
    {
      "midi": 61,
      "hit": false,
      "t": 37999.99999999999,
      "d": 187.5,
      "v": 71
    },
    {
      "midi": 64,
      "hit": false,
      "t": 37999.99999999999,
      "d": 187.5,
      "v": 71
    },
    {
      "midi": 57,
      "hit": false,
      "t": 38499.99999999999,
      "d": 1895.8333333333358,
      "v": 84
    },
    {
      "midi": 61,
      "hit": false,
      "t": 38499.99999999999,
      "d": 1895.8333333333358,
      "v": 84
    },
    {
      "midi": 64,
      "hit": false,
      "t": 38499.99999999999,
      "d": 1895.8333333333358,
      "v": 84
    },
    {
      "midi": 57,
      "hit": false,
      "t": 38499.99999999999,
      "d": 1895.8333333333358,
      "v": 84
    },
    {
      "midi": 61,
      "hit": false,
      "t": 38499.99999999999,
      "d": 1895.8333333333358,
      "v": 84
    },
    {
      "midi": 64,
      "hit": false,
      "t": 38499.99999999999,
      "d": 1895.8333333333358,
      "v": 84
    },
    {
      "midi": 45,
      "hit": false,
      "t": 40249.99999999999,
      "d": 1716.1458333333358,
      "v": 77
    },
    {
      "midi": 45,
      "hit": false,
      "t": 40249.99999999999,
      "d": 1716.1458333333358,
      "v": 77
    },
    {
      "midi": 52,
      "hit": false,
      "t": 40499.99999999999,
      "d": 1466.1458333333358,
      "v": 81
    },
    {
      "midi": 52,
      "hit": false,
      "t": 40499.99999999999,
      "d": 1466.1458333333358,
      "v": 81
    },
    {
      "midi": 61,
      "hit": false,
      "t": 40749.99999999999,
      "d": 1216.1458333333358,
      "v": 65
    },
    {
      "midi": 61,
      "hit": false,
      "t": 40749.99999999999,
      "d": 1216.1458333333358,
      "v": 65
    },
    {
      "midi": 57,
      "hit": false,
      "t": 41249.99999999999,
      "d": 716.1458333333358,
      "v": 48
    },
    {
      "midi": 57,
      "hit": false,
      "t": 41249.99999999999,
      "d": 716.1458333333358,
      "v": 48
    },
    {
      "midi": 50,
      "hit": false,
      "t": 42249.99999999999,
      "d": 1710.9375,
      "v": 84
    },
    {
      "midi": 50,
      "hit": false,
      "t": 42249.99999999999,
      "d": 1710.9375,
      "v": 84
    },
    {
      "midi": 57,
      "hit": false,
      "t": 42499.99999999999,
      "d": 1447.9166666666642,
      "v": 74
    },
    {
      "midi": 57,
      "hit": false,
      "t": 42499.99999999999,
      "d": 1447.9166666666642,
      "v": 74
    },
    {
      "midi": 62,
      "hit": false,
      "t": 42749.99999999999,
      "d": 1148.4375,
      "v": 63
    },
    {
      "midi": 66,
      "hit": false,
      "t": 42749.99999999999,
      "d": 1148.4375,
      "v": 81
    },
    {
      "midi": 62,
      "hit": false,
      "t": 42749.99999999999,
      "d": 1148.4375,
      "v": 63
    },
    {
      "midi": 66,
      "hit": false,
      "t": 42749.99999999999,
      "d": 1148.4375,
      "v": 81
    },
    {
      "midi": 45,
      "hit": false,
      "t": 44249.99999999999,
      "d": 1710.9375,
      "v": 84
    },
    {
      "midi": 45,
      "hit": false,
      "t": 44249.99999999999,
      "d": 1710.9375,
      "v": 84
    },
    {
      "midi": 52,
      "hit": false,
      "t": 44499.99999999999,
      "d": 1447.9166666666642,
      "v": 74
    },
    {
      "midi": 52,
      "hit": false,
      "t": 44499.99999999999,
      "d": 1447.9166666666642,
      "v": 74
    },
    {
      "midi": 57,
      "hit": false,
      "t": 44749.99999999999,
      "d": 1148.4375,
      "v": 63
    },
    {
      "midi": 61,
      "hit": false,
      "t": 44749.99999999999,
      "d": 1148.4375,
      "v": 81
    },
    {
      "midi": 57,
      "hit": false,
      "t": 44749.99999999999,
      "d": 1148.4375,
      "v": 63
    },
    {
      "midi": 61,
      "hit": false,
      "t": 44749.99999999999,
      "d": 1148.4375,
      "v": 81
    },
    {
      "midi": 64,
      "hit": false,
      "t": 45999.99999999999,
      "d": 2500,
      "v": 81
    },
    {
      "midi": 57,
      "hit": false,
      "t": 45999.99999999999,
      "d": 2520.8333333333358,
      "v": 81
    },
    {
      "midi": 61,
      "hit": false,
      "t": 45999.99999999999,
      "d": 2520.8333333333358,
      "v": 81
    },
    {
      "midi": 64,
      "hit": false,
      "t": 45999.99999999999,
      "d": 2500,
      "v": 81
    },
    {
      "midi": 57,
      "hit": false,
      "t": 45999.99999999999,
      "d": 2520.8333333333358,
      "v": 81
    },
    {
      "midi": 61,
      "hit": false,
      "t": 45999.99999999999,
      "d": 2520.8333333333358,
      "v": 81
    },
    {
      "midi": 59,
      "hit": false,
      "t": 48499.99999999999,
      "d": 307.29166666666424,
      "v": 65
    },
    {
      "midi": 64,
      "hit": false,
      "t": 48499.99999999999,
      "d": 1320.3124999999927,
      "v": 74
    },
    {
      "midi": 59,
      "hit": false,
      "t": 48499.99999999999,
      "d": 307.29166666666424,
      "v": 65
    },
    {
      "midi": 64,
      "hit": false,
      "t": 48499.99999999999,
      "d": 1320.3124999999927,
      "v": 74
    },
    {
      "midi": 61,
      "hit": false,
      "t": 48749.99999999999,
      "d": 757.8125,
      "v": 84
    },
    {
      "midi": 61,
      "hit": false,
      "t": 48749.99999999999,
      "d": 757.8125,
      "v": 84
    },
    {
      "midi": 59,
      "hit": false,
      "t": 49249.99999999999,
      "d": 322.91666666666424,
      "v": 74
    },
    {
      "midi": 59,
      "hit": false,
      "t": 49249.99999999999,
      "d": 322.91666666666424,
      "v": 74
    },
    {
      "midi": 57,
      "hit": false,
      "t": 49507.81249999999,
      "d": 278.6458333333285,
      "v": 81
    },
    {
      "midi": 57,
      "hit": false,
      "t": 49507.81249999999,
      "d": 278.6458333333285,
      "v": 81
    },
    {
      "midi": 59,
      "hit": false,
      "t": 49999.999999999985,
      "d": 570.3125,
      "v": 39
    },
    {
      "midi": 64,
      "hit": false,
      "t": 49999.999999999985,
      "d": 1697.9166666666642,
      "v": 71
    },
    {
      "midi": 68,
      "hit": false,
      "t": 49999.999999999985,
      "d": 1697.9166666666642,
      "v": 63
    },
    {
      "midi": 59,
      "hit": false,
      "t": 49999.999999999985,
      "d": 570.3125,
      "v": 39
    },
    {
      "midi": 64,
      "hit": false,
      "t": 49999.999999999985,
      "d": 1697.9166666666642,
      "v": 71
    },
    {
      "midi": 68,
      "hit": false,
      "t": 49999.999999999985,
      "d": 1697.9166666666642,
      "v": 63
    },
    {
      "midi": 40,
      "hit": false,
      "t": 50249.999999999985,
      "d": 1502.6041666666642,
      "v": 71
    },
    {
      "midi": 40,
      "hit": false,
      "t": 50249.999999999985,
      "d": 1502.6041666666642,
      "v": 71
    },
    {
      "midi": 52,
      "hit": false,
      "t": 50499.999999999985,
      "d": 299.47916666666424,
      "v": 60
    },
    {
      "midi": 52,
      "hit": false,
      "t": 50499.999999999985,
      "d": 299.47916666666424,
      "v": 60
    },
    {
      "midi": 56,
      "hit": false,
      "t": 50749.999999999985,
      "d": 960.9375,
      "v": 74
    },
    {
      "midi": 56,
      "hit": false,
      "t": 50749.999999999985,
      "d": 960.9375,
      "v": 74
    },
    {
      "midi": 57,
      "hit": false,
      "t": 51999.999999999985,
      "d": 1125,
      "v": 84
    },
    {
      "midi": 61,
      "hit": false,
      "t": 51999.999999999985,
      "d": 1125,
      "v": 84
    },
    {
      "midi": 64,
      "hit": false,
      "t": 51999.999999999985,
      "d": 1125,
      "v": 84
    },
    {
      "midi": 57,
      "hit": false,
      "t": 51999.999999999985,
      "d": 1125,
      "v": 84
    },
    {
      "midi": 61,
      "hit": false,
      "t": 51999.999999999985,
      "d": 1125,
      "v": 84
    },
    {
      "midi": 64,
      "hit": false,
      "t": 51999.999999999985,
      "d": 1125,
      "v": 84
    },
    {
      "midi": 57,
      "hit": false,
      "t": 53249.999999999985,
      "d": 166.66666666666424,
      "v": 81
    },
    {
      "midi": 61,
      "hit": false,
      "t": 53249.999999999985,
      "d": 166.66666666666424,
      "v": 81
    },
    {
      "midi": 64,
      "hit": false,
      "t": 53249.999999999985,
      "d": 166.66666666666424,
      "v": 81
    },
    {
      "midi": 57,
      "hit": false,
      "t": 53249.999999999985,
      "d": 166.66666666666424,
      "v": 81
    },
    {
      "midi": 61,
      "hit": false,
      "t": 53249.999999999985,
      "d": 166.66666666666424,
      "v": 81
    },
    {
      "midi": 64,
      "hit": false,
      "t": 53249.999999999985,
      "d": 166.66666666666424,
      "v": 81
    },
    {
      "midi": 57,
      "hit": false,
      "t": 53999.999999999985,
      "d": 1841.1458333333358,
      "v": 52
    },
    {
      "midi": 61,
      "hit": false,
      "t": 53999.999999999985,
      "d": 1841.1458333333358,
      "v": 52
    },
    {
      "midi": 64,
      "hit": false,
      "t": 53999.999999999985,
      "d": 1841.1458333333358,
      "v": 52
    },
    {
      "midi": 67,
      "hit": false,
      "t": 53999.999999999985,
      "d": 1875,
      "v": 59
    },
    {
      "midi": 57,
      "hit": false,
      "t": 53999.999999999985,
      "d": 1841.1458333333358,
      "v": 52
    },
    {
      "midi": 61,
      "hit": false,
      "t": 53999.999999999985,
      "d": 1841.1458333333358,
      "v": 52
    },
    {
      "midi": 64,
      "hit": false,
      "t": 53999.999999999985,
      "d": 1841.1458333333358,
      "v": 52
    },
    {
      "midi": 67,
      "hit": false,
      "t": 53999.999999999985,
      "d": 1875,
      "v": 59
    },
    {
      "midi": 57,
      "hit": false,
      "t": 55999.999999999985,
      "d": 1125,
      "v": 84
    },
    {
      "midi": 62,
      "hit": false,
      "t": 55999.999999999985,
      "d": 1125,
      "v": 84
    },
    {
      "midi": 66,
      "hit": false,
      "t": 55999.999999999985,
      "d": 1125,
      "v": 84
    },
    {
      "midi": 57,
      "hit": false,
      "t": 55999.999999999985,
      "d": 1125,
      "v": 84
    },
    {
      "midi": 62,
      "hit": false,
      "t": 55999.999999999985,
      "d": 1125,
      "v": 84
    },
    {
      "midi": 66,
      "hit": false,
      "t": 55999.999999999985,
      "d": 1125,
      "v": 84
    },
    {
      "midi": 57,
      "hit": false,
      "t": 57249.999999999985,
      "d": 166.66666666666424,
      "v": 81
    },
    {
      "midi": 62,
      "hit": false,
      "t": 57249.999999999985,
      "d": 166.66666666666424,
      "v": 81
    },
    {
      "midi": 66,
      "hit": false,
      "t": 57249.999999999985,
      "d": 166.66666666666424,
      "v": 81
    },
    {
      "midi": 57,
      "hit": false,
      "t": 57249.999999999985,
      "d": 166.66666666666424,
      "v": 81
    },
    {
      "midi": 62,
      "hit": false,
      "t": 57249.999999999985,
      "d": 166.66666666666424,
      "v": 81
    },
    {
      "midi": 66,
      "hit": false,
      "t": 57249.999999999985,
      "d": 166.66666666666424,
      "v": 81
    },
    {
      "midi": 57,
      "hit": false,
      "t": 57999.999999999985,
      "d": 1856.7708333333358,
      "v": 71
    },
    {
      "midi": 62,
      "hit": false,
      "t": 57999.999999999985,
      "d": 1856.7708333333358,
      "v": 71
    },
    {
      "midi": 66,
      "hit": false,
      "t": 57999.999999999985,
      "d": 1856.7708333333358,
      "v": 71
    },
    {
      "midi": 57,
      "hit": false,
      "t": 57999.999999999985,
      "d": 1856.7708333333358,
      "v": 71
    },
    {
      "midi": 62,
      "hit": false,
      "t": 57999.999999999985,
      "d": 1856.7708333333358,
      "v": 71
    },
    {
      "midi": 66,
      "hit": false,
      "t": 57999.999999999985,
      "d": 1856.7708333333358,
      "v": 71
    },
    {
      "midi": 57,
      "hit": false,
      "t": 59999.999999999985,
      "d": 1125,
      "v": 84
    },
    {
      "midi": 61,
      "hit": false,
      "t": 59999.999999999985,
      "d": 1125,
      "v": 84
    },
    {
      "midi": 64,
      "hit": false,
      "t": 59999.999999999985,
      "d": 1125,
      "v": 84
    },
    {
      "midi": 57,
      "hit": false,
      "t": 59999.999999999985,
      "d": 1125,
      "v": 84
    },
    {
      "midi": 61,
      "hit": false,
      "t": 59999.999999999985,
      "d": 1125,
      "v": 84
    },
    {
      "midi": 64,
      "hit": false,
      "t": 59999.999999999985,
      "d": 1125,
      "v": 84
    },
    {
      "midi": 57,
      "hit": false,
      "t": 61249.999999999985,
      "d": 166.66666666666424,
      "v": 81
    },
    {
      "midi": 61,
      "hit": false,
      "t": 61249.999999999985,
      "d": 166.66666666666424,
      "v": 81
    },
    {
      "midi": 64,
      "hit": false,
      "t": 61249.999999999985,
      "d": 166.66666666666424,
      "v": 81
    },
    {
      "midi": 57,
      "hit": false,
      "t": 61249.999999999985,
      "d": 166.66666666666424,
      "v": 81
    },
    {
      "midi": 61,
      "hit": false,
      "t": 61249.999999999985,
      "d": 166.66666666666424,
      "v": 81
    },
    {
      "midi": 64,
      "hit": false,
      "t": 61249.999999999985,
      "d": 166.66666666666424,
      "v": 81
    },
    {
      "midi": 57,
      "hit": false,
      "t": 61999.999999999985,
      "d": 1856.7708333333358,
      "v": 71
    },
    {
      "midi": 61,
      "hit": false,
      "t": 61999.999999999985,
      "d": 1856.7708333333358,
      "v": 71
    },
    {
      "midi": 64,
      "hit": false,
      "t": 61999.999999999985,
      "d": 1856.7708333333358,
      "v": 71
    },
    {
      "midi": 57,
      "hit": false,
      "t": 61999.999999999985,
      "d": 1856.7708333333358,
      "v": 71
    },
    {
      "midi": 61,
      "hit": false,
      "t": 61999.999999999985,
      "d": 1856.7708333333358,
      "v": 71
    },
    {
      "midi": 64,
      "hit": false,
      "t": 61999.999999999985,
      "d": 1856.7708333333358,
      "v": 71
    },
    {
      "midi": 56,
      "hit": false,
      "t": 63999.999999999985,
      "d": 1125,
      "v": 84
    },
    {
      "midi": 59,
      "hit": false,
      "t": 63999.999999999985,
      "d": 1125,
      "v": 84
    },
    {
      "midi": 64,
      "hit": false,
      "t": 63999.999999999985,
      "d": 1125,
      "v": 84
    },
    {
      "midi": 56,
      "hit": false,
      "t": 63999.999999999985,
      "d": 1125,
      "v": 84
    },
    {
      "midi": 59,
      "hit": false,
      "t": 63999.999999999985,
      "d": 1125,
      "v": 84
    },
    {
      "midi": 64,
      "hit": false,
      "t": 63999.999999999985,
      "d": 1125,
      "v": 84
    },
    {
      "midi": 56,
      "hit": false,
      "t": 65249.999999999985,
      "d": 166.66666666666424,
      "v": 81
    },
    {
      "midi": 59,
      "hit": false,
      "t": 65249.999999999985,
      "d": 166.66666666666424,
      "v": 81
    },
    {
      "midi": 64,
      "hit": false,
      "t": 65249.999999999985,
      "d": 166.66666666666424,
      "v": 81
    },
    {
      "midi": 56,
      "hit": false,
      "t": 65249.999999999985,
      "d": 166.66666666666424,
      "v": 81
    },
    {
      "midi": 59,
      "hit": false,
      "t": 65249.999999999985,
      "d": 166.66666666666424,
      "v": 81
    },
    {
      "midi": 64,
      "hit": false,
      "t": 65249.999999999985,
      "d": 166.66666666666424,
      "v": 81
    },
    {
      "midi": 56,
      "hit": false,
      "t": 65999.99999999999,
      "d": 1856.7708333333285,
      "v": 71
    },
    {
      "midi": 59,
      "hit": false,
      "t": 65999.99999999999,
      "d": 1856.7708333333285,
      "v": 71
    },
    {
      "midi": 64,
      "hit": false,
      "t": 65999.99999999999,
      "d": 1856.7708333333285,
      "v": 71
    },
    {
      "midi": 56,
      "hit": false,
      "t": 65999.99999999999,
      "d": 1856.7708333333285,
      "v": 71
    },
    {
      "midi": 59,
      "hit": false,
      "t": 65999.99999999999,
      "d": 1856.7708333333285,
      "v": 71
    },
    {
      "midi": 64,
      "hit": false,
      "t": 65999.99999999999,
      "d": 1856.7708333333285,
      "v": 71
    },
    {
      "midi": 69,
      "hit": false,
      "t": 67999.99999999999,
      "d": 437.5,
      "v": 70
    },
    {
      "midi": 45,
      "hit": false,
      "t": 67999.99999999999,
      "d": 2000,
      "v": 74
    },
    {
      "midi": 69,
      "hit": false,
      "t": 67999.99999999999,
      "d": 437.5,
      "v": 70
    },
    {
      "midi": 45,
      "hit": false,
      "t": 67999.99999999999,
      "d": 2000,
      "v": 74
    },
    {
      "midi": 64,
      "hit": false,
      "t": 68249.99999999999,
      "d": 1750,
      "v": 60
    },
    {
      "midi": 64,
      "hit": false,
      "t": 68249.99999999999,
      "d": 1750,
      "v": 60
    },
    {
      "midi": 61,
      "hit": false,
      "t": 68624.99999999999,
      "d": 1375,
      "v": 54
    },
    {
      "midi": 61,
      "hit": false,
      "t": 68624.99999999999,
      "d": 1375,
      "v": 54
    },
    {
      "midi": 57,
      "hit": false,
      "t": 68749.99999999999,
      "d": 1250,
      "v": 23
    },
    {
      "midi": 57,
      "hit": false,
      "t": 68749.99999999999,
      "d": 1250,
      "v": 23
    },
    {
      "midi": 57,
      "hit": false,
      "t": 69999.99999999999,
      "d": 1841.1458333333285,
      "v": 52
    },
    {
      "midi": 61,
      "hit": false,
      "t": 69999.99999999999,
      "d": 1841.1458333333285,
      "v": 52
    },
    {
      "midi": 64,
      "hit": false,
      "t": 69999.99999999999,
      "d": 1841.1458333333285,
      "v": 52
    },
    {
      "midi": 67,
      "hit": false,
      "t": 69999.99999999999,
      "d": 1875,
      "v": 59
    },
    {
      "midi": 57,
      "hit": false,
      "t": 69999.99999999999,
      "d": 1841.1458333333285,
      "v": 52
    },
    {
      "midi": 61,
      "hit": false,
      "t": 69999.99999999999,
      "d": 1841.1458333333285,
      "v": 52
    },
    {
      "midi": 64,
      "hit": false,
      "t": 69999.99999999999,
      "d": 1841.1458333333285,
      "v": 52
    },
    {
      "midi": 67,
      "hit": false,
      "t": 69999.99999999999,
      "d": 1875,
      "v": 59
    },
    {
      "midi": 74,
      "hit": false,
      "t": 71999.99999999999,
      "d": 437.5,
      "v": 70
    },
    {
      "midi": 50,
      "hit": false,
      "t": 71999.99999999999,
      "d": 3843.7499999999854,
      "v": 74
    },
    {
      "midi": 74,
      "hit": false,
      "t": 71999.99999999999,
      "d": 437.5,
      "v": 70
    },
    {
      "midi": 50,
      "hit": false,
      "t": 71999.99999999999,
      "d": 3843.7499999999854,
      "v": 74
    },
    {
      "midi": 69,
      "hit": false,
      "t": 72249.99999999999,
      "d": 2265.6249999999854,
      "v": 60
    },
    {
      "midi": 69,
      "hit": false,
      "t": 72249.99999999999,
      "d": 2265.6249999999854,
      "v": 60
    },
    {
      "midi": 66,
      "hit": false,
      "t": 72624.99999999999,
      "d": 1861.979166666657,
      "v": 54
    },
    {
      "midi": 66,
      "hit": false,
      "t": 72624.99999999999,
      "d": 1861.979166666657,
      "v": 54
    },
    {
      "midi": 62,
      "hit": false,
      "t": 72749.99999999999,
      "d": 1583.3333333333285,
      "v": 23
    },
    {
      "midi": 62,
      "hit": false,
      "t": 72749.99999999999,
      "d": 1583.3333333333285,
      "v": 23
    },
    {
      "midi": 57,
      "hit": false,
      "t": 74249.99999999999,
      "d": 1593.7499999999854,
      "v": 63
    },
    {
      "midi": 57,
      "hit": false,
      "t": 74249.99999999999,
      "d": 1593.7499999999854,
      "v": 63
    },
    {
      "midi": 62,
      "hit": false,
      "t": 74499.99999999997,
      "d": 1302.0833333333285,
      "v": 90
    },
    {
      "midi": 62,
      "hit": false,
      "t": 74499.99999999997,
      "d": 1302.0833333333285,
      "v": 90
    },
    {
      "midi": 66,
      "hit": false,
      "t": 74749.99999999997,
      "d": 1002.6041666666715,
      "v": 81
    },
    {
      "midi": 66,
      "hit": false,
      "t": 74749.99999999997,
      "d": 1002.6041666666715,
      "v": 81
    },
    {
      "midi": 69,
      "hit": false,
      "t": 75249.99999999997,
      "d": 486.9791666666715,
      "v": 77
    },
    {
      "midi": 69,
      "hit": false,
      "t": 75249.99999999997,
      "d": 486.9791666666715,
      "v": 77
    },
    {
      "midi": 74,
      "hit": false,
      "t": 75499.99999999997,
      "d": 265.625,
      "v": 90
    },
    {
      "midi": 74,
      "hit": false,
      "t": 75499.99999999997,
      "d": 265.625,
      "v": 90
    },
    {
      "midi": 45,
      "hit": false,
      "t": 76249.99999999997,
      "d": 3690.1041666666715,
      "v": 76
    },
    {
      "midi": 45,
      "hit": false,
      "t": 76249.99999999997,
      "d": 3690.1041666666715,
      "v": 76
    },
    {
      "midi": 64,
      "hit": false,
      "t": 76499.99999999997,
      "d": 2072.9166666666715,
      "v": 89
    },
    {
      "midi": 64,
      "hit": false,
      "t": 76499.99999999997,
      "d": 2072.9166666666715,
      "v": 89
    },
    {
      "midi": 69,
      "hit": false,
      "t": 76749.99999999997,
      "d": 1916.6666666666715,
      "v": 50
    },
    {
      "midi": 73,
      "hit": false,
      "t": 76749.99999999997,
      "d": 1940.1041666666715,
      "v": 73
    },
    {
      "midi": 69,
      "hit": false,
      "t": 76749.99999999997,
      "d": 1916.6666666666715,
      "v": 50
    },
    {
      "midi": 73,
      "hit": false,
      "t": 76749.99999999997,
      "d": 1940.1041666666715,
      "v": 73
    },
    {
      "midi": 64,
      "hit": false,
      "t": 78749.99999999997,
      "d": 1190.1041666666715,
      "v": 79
    },
    {
      "midi": 64,
      "hit": false,
      "t": 78749.99999999997,
      "d": 1190.1041666666715,
      "v": 79
    },
    {
      "midi": 71,
      "hit": false,
      "t": 78999.99999999997,
      "d": 218.75,
      "v": 85
    },
    {
      "midi": 76,
      "hit": false,
      "t": 78999.99999999997,
      "d": 940.1041666666715,
      "v": 92
    },
    {
      "midi": 71,
      "hit": false,
      "t": 78999.99999999997,
      "d": 218.75,
      "v": 85
    },
    {
      "midi": 76,
      "hit": false,
      "t": 78999.99999999997,
      "d": 940.1041666666715,
      "v": 92
    },
    {
      "midi": 73,
      "hit": false,
      "t": 79249.99999999997,
      "d": 229.16666666667152,
      "v": 79
    },
    {
      "midi": 73,
      "hit": false,
      "t": 79249.99999999997,
      "d": 229.16666666667152,
      "v": 79
    },
    {
      "midi": 71,
      "hit": false,
      "t": 79499.99999999997,
      "d": 216.14583333332848,
      "v": 49
    },
    {
      "midi": 71,
      "hit": false,
      "t": 79499.99999999997,
      "d": 216.14583333332848,
      "v": 49
    },
    {
      "midi": 69,
      "hit": false,
      "t": 79749.99999999997,
      "d": 190.10416666667152,
      "v": 82
    },
    {
      "midi": 69,
      "hit": false,
      "t": 79749.99999999997,
      "d": 190.10416666667152,
      "v": 82
    },
    {
      "midi": 56,
      "hit": false,
      "t": 79999.99999999997,
      "d": 1125,
      "v": 84
    },
    {
      "midi": 59,
      "hit": false,
      "t": 79999.99999999997,
      "d": 1125,
      "v": 84
    },
    {
      "midi": 64,
      "hit": false,
      "t": 79999.99999999997,
      "d": 1125,
      "v": 84
    },
    {
      "midi": 56,
      "hit": false,
      "t": 79999.99999999997,
      "d": 1125,
      "v": 84
    },
    {
      "midi": 59,
      "hit": false,
      "t": 79999.99999999997,
      "d": 1125,
      "v": 84
    },
    {
      "midi": 64,
      "hit": false,
      "t": 79999.99999999997,
      "d": 1125,
      "v": 84
    },
    {
      "midi": 56,
      "hit": false,
      "t": 81249.99999999997,
      "d": 166.66666666667152,
      "v": 81
    },
    {
      "midi": 59,
      "hit": false,
      "t": 81249.99999999997,
      "d": 166.66666666667152,
      "v": 81
    },
    {
      "midi": 64,
      "hit": false,
      "t": 81249.99999999997,
      "d": 166.66666666667152,
      "v": 81
    },
    {
      "midi": 56,
      "hit": false,
      "t": 81249.99999999997,
      "d": 166.66666666667152,
      "v": 81
    },
    {
      "midi": 59,
      "hit": false,
      "t": 81249.99999999997,
      "d": 166.66666666667152,
      "v": 81
    },
    {
      "midi": 64,
      "hit": false,
      "t": 81249.99999999997,
      "d": 166.66666666667152,
      "v": 81
    },
    {
      "midi": 56,
      "hit": false,
      "t": 81999.99999999997,
      "d": 1856.7708333333285,
      "v": 71
    },
    {
      "midi": 59,
      "hit": false,
      "t": 81999.99999999997,
      "d": 1856.7708333333285,
      "v": 71
    },
    {
      "midi": 64,
      "hit": false,
      "t": 81999.99999999997,
      "d": 1856.7708333333285,
      "v": 71
    },
    {
      "midi": 56,
      "hit": false,
      "t": 81999.99999999997,
      "d": 1856.7708333333285,
      "v": 71
    },
    {
      "midi": 59,
      "hit": false,
      "t": 81999.99999999997,
      "d": 1856.7708333333285,
      "v": 71
    },
    {
      "midi": 64,
      "hit": false,
      "t": 81999.99999999997,
      "d": 1856.7708333333285,
      "v": 71
    },
    {
      "midi": 52,
      "hit": false,
      "t": 84249.99999999997,
      "d": 1750,
      "v": 76
    },
    {
      "midi": 52,
      "hit": false,
      "t": 84249.99999999997,
      "d": 1750,
      "v": 76
    },
    {
      "midi": 71,
      "hit": false,
      "t": 84499.99999999997,
      "d": 1500,
      "v": 89
    },
    {
      "midi": 71,
      "hit": false,
      "t": 84499.99999999997,
      "d": 1500,
      "v": 89
    },
    {
      "midi": 76,
      "hit": false,
      "t": 84749.99999999997,
      "d": 1250,
      "v": 50
    },
    {
      "midi": 80,
      "hit": false,
      "t": 84749.99999999997,
      "d": 1250,
      "v": 73
    },
    {
      "midi": 76,
      "hit": false,
      "t": 84749.99999999997,
      "d": 1250,
      "v": 50
    },
    {
      "midi": 80,
      "hit": false,
      "t": 84749.99999999997,
      "d": 1250,
      "v": 73
    },
    {
      "midi": 45,
      "hit": false,
      "t": 86249.99999999997,
      "d": 1750,
      "v": 76
    },
    {
      "midi": 45,
      "hit": false,
      "t": 86249.99999999997,
      "d": 1750,
      "v": 76
    },
    {
      "midi": 64,
      "hit": false,
      "t": 86499.99999999997,
      "d": 1500,
      "v": 89
    },
    {
      "midi": 64,
      "hit": false,
      "t": 86499.99999999997,
      "d": 1500,
      "v": 89
    },
    {
      "midi": 69,
      "hit": false,
      "t": 86749.99999999997,
      "d": 1250,
      "v": 50
    },
    {
      "midi": 73,
      "hit": false,
      "t": 86749.99999999997,
      "d": 1250,
      "v": 73
    },
    {
      "midi": 69,
      "hit": false,
      "t": 86749.99999999997,
      "d": 1250,
      "v": 50
    },
    {
      "midi": 73,
      "hit": false,
      "t": 86749.99999999997,
      "d": 1250,
      "v": 73
    },
    {
      "midi": 52,
      "hit": false,
      "t": 87999.99999999997,
      "d": 1940.1041666666715,
      "v": 76
    },
    {
      "midi": 52,
      "hit": false,
      "t": 87999.99999999997,
      "d": 1940.1041666666715,
      "v": 76
    },
    {
      "midi": 64,
      "hit": false,
      "t": 88749.99999999997,
      "d": 1190.1041666666715,
      "v": 79
    },
    {
      "midi": 64,
      "hit": false,
      "t": 88749.99999999997,
      "d": 1190.1041666666715,
      "v": 79
    },
    {
      "midi": 71,
      "hit": false,
      "t": 88999.99999999997,
      "d": 218.75,
      "v": 85
    },
    {
      "midi": 76,
      "hit": false,
      "t": 88999.99999999997,
      "d": 940.1041666666715,
      "v": 92
    },
    {
      "midi": 71,
      "hit": false,
      "t": 88999.99999999997,
      "d": 218.75,
      "v": 85
    },
    {
      "midi": 76,
      "hit": false,
      "t": 88999.99999999997,
      "d": 940.1041666666715,
      "v": 92
    },
    {
      "midi": 73,
      "hit": false,
      "t": 89249.99999999997,
      "d": 229.16666666667152,
      "v": 79
    },
    {
      "midi": 73,
      "hit": false,
      "t": 89249.99999999997,
      "d": 229.16666666667152,
      "v": 79
    },
    {
      "midi": 71,
      "hit": false,
      "t": 89499.99999999997,
      "d": 216.14583333332848,
      "v": 49
    },
    {
      "midi": 71,
      "hit": false,
      "t": 89499.99999999997,
      "d": 216.14583333332848,
      "v": 49
    },
    {
      "midi": 69,
      "hit": false,
      "t": 89749.99999999997,
      "d": 190.10416666667152,
      "v": 82
    },
    {
      "midi": 69,
      "hit": false,
      "t": 89749.99999999997,
      "d": 190.10416666667152,
      "v": 82
    },
    {
      "midi": 57,
      "hit": false,
      "t": 89999.99999999997,
      "d": 1125,
      "v": 84
    },
    {
      "midi": 61,
      "hit": false,
      "t": 89999.99999999997,
      "d": 1125,
      "v": 84
    },
    {
      "midi": 64,
      "hit": false,
      "t": 89999.99999999997,
      "d": 1125,
      "v": 84
    },
    {
      "midi": 57,
      "hit": false,
      "t": 89999.99999999997,
      "d": 1125,
      "v": 84
    },
    {
      "midi": 61,
      "hit": false,
      "t": 89999.99999999997,
      "d": 1125,
      "v": 84
    },
    {
      "midi": 64,
      "hit": false,
      "t": 89999.99999999997,
      "d": 1125,
      "v": 84
    },
    {
      "midi": 57,
      "hit": false,
      "t": 91249.99999999997,
      "d": 166.66666666667152,
      "v": 81
    },
    {
      "midi": 61,
      "hit": false,
      "t": 91249.99999999997,
      "d": 166.66666666667152,
      "v": 81
    },
    {
      "midi": 64,
      "hit": false,
      "t": 91249.99999999997,
      "d": 166.66666666667152,
      "v": 81
    },
    {
      "midi": 57,
      "hit": false,
      "t": 91249.99999999997,
      "d": 166.66666666667152,
      "v": 81
    },
    {
      "midi": 61,
      "hit": false,
      "t": 91249.99999999997,
      "d": 166.66666666667152,
      "v": 81
    },
    {
      "midi": 64,
      "hit": false,
      "t": 91249.99999999997,
      "d": 166.66666666667152,
      "v": 81
    },
    {
      "midi": 57,
      "hit": false,
      "t": 91999.99999999997,
      "d": 1856.7708333333285,
      "v": 71
    },
    {
      "midi": 61,
      "hit": false,
      "t": 91999.99999999997,
      "d": 1856.7708333333285,
      "v": 71
    },
    {
      "midi": 64,
      "hit": false,
      "t": 91999.99999999997,
      "d": 1856.7708333333285,
      "v": 71
    },
    {
      "midi": 57,
      "hit": false,
      "t": 91999.99999999997,
      "d": 1856.7708333333285,
      "v": 71
    },
    {
      "midi": 61,
      "hit": false,
      "t": 91999.99999999997,
      "d": 1856.7708333333285,
      "v": 71
    },
    {
      "midi": 64,
      "hit": false,
      "t": 91999.99999999997,
      "d": 1856.7708333333285,
      "v": 71
    },
    {
      "midi": 62,
      "hit": false,
      "t": 93999.99999999997,
      "d": 570.3125,
      "v": 39
    },
    {
      "midi": 66,
      "hit": false,
      "t": 93999.99999999997,
      "d": 1697.9166666666715,
      "v": 71
    },
    {
      "midi": 69,
      "hit": false,
      "t": 93999.99999999997,
      "d": 1697.9166666666715,
      "v": 63
    },
    {
      "midi": 62,
      "hit": false,
      "t": 93999.99999999997,
      "d": 570.3125,
      "v": 39
    },
    {
      "midi": 66,
      "hit": false,
      "t": 93999.99999999997,
      "d": 1697.9166666666715,
      "v": 71
    },
    {
      "midi": 69,
      "hit": false,
      "t": 93999.99999999997,
      "d": 1697.9166666666715,
      "v": 63
    },
    {
      "midi": 50,
      "hit": false,
      "t": 94249.99999999997,
      "d": 1502.6041666666715,
      "v": 71
    },
    {
      "midi": 50,
      "hit": false,
      "t": 94249.99999999997,
      "d": 1502.6041666666715,
      "v": 71
    },
    {
      "midi": 54,
      "hit": false,
      "t": 94499.99999999997,
      "d": 299.4791666666715,
      "v": 60
    },
    {
      "midi": 54,
      "hit": false,
      "t": 94499.99999999997,
      "d": 299.4791666666715,
      "v": 60
    },
    {
      "midi": 57,
      "hit": false,
      "t": 94749.99999999997,
      "d": 960.9375,
      "v": 74
    },
    {
      "midi": 57,
      "hit": false,
      "t": 94749.99999999997,
      "d": 960.9375,
      "v": 74
    },
    {
      "midi": 45,
      "hit": false,
      "t": 96249.99999999997,
      "d": 1710.9375,
      "v": 84
    },
    {
      "midi": 45,
      "hit": false,
      "t": 96249.99999999997,
      "d": 1710.9375,
      "v": 84
    },
    {
      "midi": 52,
      "hit": false,
      "t": 96499.99999999997,
      "d": 1447.9166666666715,
      "v": 74
    },
    {
      "midi": 52,
      "hit": false,
      "t": 96499.99999999997,
      "d": 1447.9166666666715,
      "v": 74
    },
    {
      "midi": 57,
      "hit": false,
      "t": 96749.99999999997,
      "d": 1148.4375,
      "v": 63
    },
    {
      "midi": 61,
      "hit": false,
      "t": 96749.99999999997,
      "d": 1148.4375,
      "v": 81
    },
    {
      "midi": 57,
      "hit": false,
      "t": 96749.99999999997,
      "d": 1148.4375,
      "v": 63
    },
    {
      "midi": 61,
      "hit": false,
      "t": 96749.99999999997,
      "d": 1148.4375,
      "v": 81
    },
    {
      "midi": 69,
      "hit": false,
      "t": 97999.99999999997,
      "d": 437.5,
      "v": 70
    },
    {
      "midi": 45,
      "hit": false,
      "t": 97999.99999999997,
      "d": 3843.7499999999854,
      "v": 74
    },
    {
      "midi": 69,
      "hit": false,
      "t": 97999.99999999997,
      "d": 437.5,
      "v": 70
    },
    {
      "midi": 45,
      "hit": false,
      "t": 97999.99999999997,
      "d": 3843.7499999999854,
      "v": 74
    },
    {
      "midi": 64,
      "hit": false,
      "t": 98249.99999999997,
      "d": 2265.6249999999854,
      "v": 60
    },
    {
      "midi": 64,
      "hit": false,
      "t": 98249.99999999997,
      "d": 2265.6249999999854,
      "v": 60
    },
    {
      "midi": 61,
      "hit": false,
      "t": 98624.99999999997,
      "d": 1861.979166666657,
      "v": 54
    },
    {
      "midi": 61,
      "hit": false,
      "t": 98624.99999999997,
      "d": 1861.979166666657,
      "v": 54
    },
    {
      "midi": 57,
      "hit": false,
      "t": 98749.99999999997,
      "d": 1583.3333333333285,
      "v": 23
    },
    {
      "midi": 57,
      "hit": false,
      "t": 98749.99999999997,
      "d": 1583.3333333333285,
      "v": 23
    },
    {
      "midi": 52,
      "hit": false,
      "t": 100249.99999999997,
      "d": 1593.7499999999854,
      "v": 63
    },
    {
      "midi": 52,
      "hit": false,
      "t": 100249.99999999997,
      "d": 1593.7499999999854,
      "v": 63
    },
    {
      "midi": 57,
      "hit": false,
      "t": 100499.99999999996,
      "d": 1302.0833333333285,
      "v": 90
    },
    {
      "midi": 57,
      "hit": false,
      "t": 100499.99999999996,
      "d": 1302.0833333333285,
      "v": 90
    },
    {
      "midi": 61,
      "hit": false,
      "t": 100749.99999999996,
      "d": 1002.6041666666715,
      "v": 81
    },
    {
      "midi": 61,
      "hit": false,
      "t": 100749.99999999996,
      "d": 1002.6041666666715,
      "v": 81
    },
    {
      "midi": 64,
      "hit": false,
      "t": 101249.99999999996,
      "d": 486.9791666666715,
      "v": 77
    },
    {
      "midi": 64,
      "hit": false,
      "t": 101249.99999999996,
      "d": 486.9791666666715,
      "v": 77
    },
    {
      "midi": 69,
      "hit": false,
      "t": 101499.99999999996,
      "d": 265.625,
      "v": 90
    },
    {
      "midi": 69,
      "hit": false,
      "t": 101499.99999999996,
      "d": 265.625,
      "v": 90
    },
    {
      "midi": 61,
      "hit": false,
      "t": 101999.99999999996,
      "d": 231.77083333332848,
      "v": 74
    },
    {
      "midi": 47,
      "hit": false,
      "t": 101999.99999999996,
      "d": 2000,
      "v": 58
    },
    {
      "midi": 66,
      "hit": false,
      "t": 101999.99999999996,
      "d": 2000,
      "v": 81
    },
    {
      "midi": 61,
      "hit": false,
      "t": 101999.99999999996,
      "d": 231.77083333332848,
      "v": 74
    },
    {
      "midi": 47,
      "hit": false,
      "t": 101999.99999999996,
      "d": 2000,
      "v": 58
    },
    {
      "midi": 66,
      "hit": false,
      "t": 101999.99999999996,
      "d": 2000,
      "v": 81
    },
    {
      "midi": 63,
      "hit": false,
      "t": 102249.99999999996,
      "d": 299.4791666666715,
      "v": 65
    },
    {
      "midi": 63,
      "hit": false,
      "t": 102249.99999999996,
      "d": 299.4791666666715,
      "v": 65
    },
    {
      "midi": 61,
      "hit": false,
      "t": 102499.99999999996,
      "d": 265.625,
      "v": 63
    },
    {
      "midi": 61,
      "hit": false,
      "t": 102499.99999999996,
      "d": 265.625,
      "v": 63
    },
    {
      "midi": 59,
      "hit": false,
      "t": 102765.62499999996,
      "d": 1234.375,
      "v": 84
    },
    {
      "midi": 59,
      "hit": false,
      "t": 102765.62499999996,
      "d": 1234.375,
      "v": 84
    },
    {
      "midi": 56,
      "hit": false,
      "t": 103999.99999999996,
      "d": 1841.1458333333285,
      "v": 52
    },
    {
      "midi": 59,
      "hit": false,
      "t": 103999.99999999996,
      "d": 1841.1458333333285,
      "v": 52
    },
    {
      "midi": 64,
      "hit": false,
      "t": 103999.99999999996,
      "d": 1841.1458333333285,
      "v": 52
    },
    {
      "midi": 56,
      "hit": false,
      "t": 103999.99999999996,
      "d": 1841.1458333333285,
      "v": 52
    },
    {
      "midi": 59,
      "hit": false,
      "t": 103999.99999999996,
      "d": 1841.1458333333285,
      "v": 52
    },
    {
      "midi": 64,
      "hit": false,
      "t": 103999.99999999996,
      "d": 1841.1458333333285,
      "v": 52
    },
    {
      "midi": 64,
      "hit": false,
      "t": 105999.99999999996,
      "d": 2500,
      "v": 81
    },
    {
      "midi": 57,
      "hit": false,
      "t": 105999.99999999996,
      "d": 2520.8333333333285,
      "v": 81
    },
    {
      "midi": 61,
      "hit": false,
      "t": 105999.99999999996,
      "d": 2520.8333333333285,
      "v": 81
    },
    {
      "midi": 64,
      "hit": false,
      "t": 105999.99999999996,
      "d": 2500,
      "v": 81
    },
    {
      "midi": 57,
      "hit": false,
      "t": 105999.99999999996,
      "d": 2520.8333333333285,
      "v": 81
    },
    {
      "midi": 61,
      "hit": false,
      "t": 105999.99999999996,
      "d": 2520.8333333333285,
      "v": 81
    },
    {
      "midi": 59,
      "hit": false,
      "t": 108499.99999999996,
      "d": 307.2916666666715,
      "v": 65
    },
    {
      "midi": 64,
      "hit": false,
      "t": 108499.99999999996,
      "d": 1320.3125000000146,
      "v": 74
    },
    {
      "midi": 59,
      "hit": false,
      "t": 108499.99999999996,
      "d": 307.2916666666715,
      "v": 65
    },
    {
      "midi": 64,
      "hit": false,
      "t": 108499.99999999996,
      "d": 1320.3125000000146,
      "v": 74
    },
    {
      "midi": 61,
      "hit": false,
      "t": 108749.99999999996,
      "d": 757.8125,
      "v": 84
    },
    {
      "midi": 61,
      "hit": false,
      "t": 108749.99999999996,
      "d": 757.8125,
      "v": 84
    },
    {
      "midi": 59,
      "hit": false,
      "t": 109249.99999999996,
      "d": 322.9166666666715,
      "v": 74
    },
    {
      "midi": 59,
      "hit": false,
      "t": 109249.99999999996,
      "d": 322.9166666666715,
      "v": 74
    },
    {
      "midi": 57,
      "hit": false,
      "t": 109507.81249999996,
      "d": 278.64583333334303,
      "v": 81
    },
    {
      "midi": 57,
      "hit": false,
      "t": 109507.81249999996,
      "d": 278.64583333334303,
      "v": 81
    },
    {
      "midi": 62,
      "hit": false,
      "t": 109999.99999999997,
      "d": 570.3125,
      "v": 39
    },
    {
      "midi": 66,
      "hit": false,
      "t": 109999.99999999997,
      "d": 1697.9166666666715,
      "v": 71
    },
    {
      "midi": 69,
      "hit": false,
      "t": 109999.99999999997,
      "d": 1697.9166666666715,
      "v": 63
    },
    {
      "midi": 62,
      "hit": false,
      "t": 109999.99999999997,
      "d": 570.3125,
      "v": 39
    },
    {
      "midi": 66,
      "hit": false,
      "t": 109999.99999999997,
      "d": 1697.9166666666715,
      "v": 71
    },
    {
      "midi": 69,
      "hit": false,
      "t": 109999.99999999997,
      "d": 1697.9166666666715,
      "v": 63
    },
    {
      "midi": 50,
      "hit": false,
      "t": 110249.99999999997,
      "d": 1502.6041666666715,
      "v": 71
    },
    {
      "midi": 50,
      "hit": false,
      "t": 110249.99999999997,
      "d": 1502.6041666666715,
      "v": 71
    },
    {
      "midi": 54,
      "hit": false,
      "t": 110499.99999999997,
      "d": 299.4791666666715,
      "v": 60
    },
    {
      "midi": 54,
      "hit": false,
      "t": 110499.99999999997,
      "d": 299.4791666666715,
      "v": 60
    },
    {
      "midi": 57,
      "hit": false,
      "t": 110749.99999999997,
      "d": 960.9375,
      "v": 74
    },
    {
      "midi": 57,
      "hit": false,
      "t": 110749.99999999997,
      "d": 960.9375,
      "v": 74
    },
    {
      "midi": 45,
      "hit": false,
      "t": 112249.99999999997,
      "d": 1710.9375,
      "v": 84
    },
    {
      "midi": 45,
      "hit": false,
      "t": 112249.99999999997,
      "d": 1710.9375,
      "v": 84
    },
    {
      "midi": 52,
      "hit": false,
      "t": 112499.99999999997,
      "d": 1447.9166666666715,
      "v": 74
    },
    {
      "midi": 52,
      "hit": false,
      "t": 112499.99999999997,
      "d": 1447.9166666666715,
      "v": 74
    },
    {
      "midi": 57,
      "hit": false,
      "t": 112749.99999999997,
      "d": 1148.4375,
      "v": 63
    },
    {
      "midi": 61,
      "hit": false,
      "t": 112749.99999999997,
      "d": 1148.4375,
      "v": 81
    },
    {
      "midi": 57,
      "hit": false,
      "t": 112749.99999999997,
      "d": 1148.4375,
      "v": 63
    },
    {
      "midi": 61,
      "hit": false,
      "t": 112749.99999999997,
      "d": 1148.4375,
      "v": 81
    },
    {
      "midi": 64,
      "hit": false,
      "t": 113999.99999999997,
      "d": 2500,
      "v": 81
    },
    {
      "midi": 57,
      "hit": false,
      "t": 113999.99999999997,
      "d": 2520.8333333333285,
      "v": 81
    },
    {
      "midi": 61,
      "hit": false,
      "t": 113999.99999999997,
      "d": 2520.8333333333285,
      "v": 81
    },
    {
      "midi": 64,
      "hit": false,
      "t": 113999.99999999997,
      "d": 2500,
      "v": 81
    },
    {
      "midi": 57,
      "hit": false,
      "t": 113999.99999999997,
      "d": 2520.8333333333285,
      "v": 81
    },
    {
      "midi": 61,
      "hit": false,
      "t": 113999.99999999997,
      "d": 2520.8333333333285,
      "v": 81
    },
    {
      "midi": 59,
      "hit": false,
      "t": 116499.99999999997,
      "d": 307.2916666666715,
      "v": 65
    },
    {
      "midi": 64,
      "hit": false,
      "t": 116499.99999999997,
      "d": 1320.3125000000146,
      "v": 74
    },
    {
      "midi": 59,
      "hit": false,
      "t": 116499.99999999997,
      "d": 307.2916666666715,
      "v": 65
    },
    {
      "midi": 64,
      "hit": false,
      "t": 116499.99999999997,
      "d": 1320.3125000000146,
      "v": 74
    },
    {
      "midi": 61,
      "hit": false,
      "t": 116749.99999999997,
      "d": 757.8125,
      "v": 84
    },
    {
      "midi": 61,
      "hit": false,
      "t": 116749.99999999997,
      "d": 757.8125,
      "v": 84
    },
    {
      "midi": 59,
      "hit": false,
      "t": 117249.99999999997,
      "d": 322.9166666666715,
      "v": 74
    },
    {
      "midi": 59,
      "hit": false,
      "t": 117249.99999999997,
      "d": 322.9166666666715,
      "v": 74
    },
    {
      "midi": 57,
      "hit": false,
      "t": 117507.81249999997,
      "d": 278.64583333334303,
      "v": 81
    },
    {
      "midi": 57,
      "hit": false,
      "t": 117507.81249999997,
      "d": 278.64583333334303,
      "v": 81
    },
    {
      "midi": 40,
      "hit": false,
      "t": 118249.99999999999,
      "d": 1710.9375,
      "v": 84
    },
    {
      "midi": 40,
      "hit": false,
      "t": 118249.99999999999,
      "d": 1710.9375,
      "v": 84
    },
    {
      "midi": 56,
      "hit": false,
      "t": 118499.99999999999,
      "d": 1447.9166666666715,
      "v": 74
    },
    {
      "midi": 56,
      "hit": false,
      "t": 118499.99999999999,
      "d": 1447.9166666666715,
      "v": 74
    },
    {
      "midi": 59,
      "hit": false,
      "t": 118749.99999999999,
      "d": 1148.4375,
      "v": 63
    },
    {
      "midi": 64,
      "hit": false,
      "t": 118749.99999999999,
      "d": 1148.4375,
      "v": 81
    },
    {
      "midi": 59,
      "hit": false,
      "t": 118749.99999999999,
      "d": 1148.4375,
      "v": 63
    },
    {
      "midi": 64,
      "hit": false,
      "t": 118749.99999999999,
      "d": 1148.4375,
      "v": 81
    },
    {
      "midi": 59,
      "hit": false,
      "t": 119999.99999999999,
      "d": 231.77083333332848,
      "v": 74
    },
    {
      "midi": 45,
      "hit": false,
      "t": 119999.99999999999,
      "d": 2000,
      "v": 58
    },
    {
      "midi": 64,
      "hit": false,
      "t": 119999.99999999999,
      "d": 2000,
      "v": 81
    },
    {
      "midi": 59,
      "hit": false,
      "t": 119999.99999999999,
      "d": 231.77083333332848,
      "v": 74
    },
    {
      "midi": 45,
      "hit": false,
      "t": 119999.99999999999,
      "d": 2000,
      "v": 58
    },
    {
      "midi": 64,
      "hit": false,
      "t": 119999.99999999999,
      "d": 2000,
      "v": 81
    },
    {
      "midi": 61,
      "hit": false,
      "t": 120249.99999999999,
      "d": 299.4791666666715,
      "v": 65
    },
    {
      "midi": 61,
      "hit": false,
      "t": 120249.99999999999,
      "d": 299.4791666666715,
      "v": 65
    },
    {
      "midi": 59,
      "hit": false,
      "t": 120499.99999999999,
      "d": 265.625,
      "v": 63
    },
    {
      "midi": 59,
      "hit": false,
      "t": 120499.99999999999,
      "d": 265.625,
      "v": 63
    },
    {
      "midi": 57,
      "hit": false,
      "t": 120765.62499999999,
      "d": 1234.375,
      "v": 84
    },
    {
      "midi": 57,
      "hit": false,
      "t": 120765.62499999999,
      "d": 1234.375,
      "v": 84
    },
    {
      "midi": 57,
      "hit": false,
      "t": 121999.99999999999,
      "d": 1841.1458333333285,
      "v": 52
    },
    {
      "midi": 61,
      "hit": false,
      "t": 121999.99999999999,
      "d": 1841.1458333333285,
      "v": 52
    },
    {
      "midi": 64,
      "hit": false,
      "t": 121999.99999999999,
      "d": 1841.1458333333285,
      "v": 52
    },
    {
      "midi": 67,
      "hit": false,
      "t": 121999.99999999999,
      "d": 1875,
      "v": 59
    },
    {
      "midi": 57,
      "hit": false,
      "t": 121999.99999999999,
      "d": 1841.1458333333285,
      "v": 52
    },
    {
      "midi": 61,
      "hit": false,
      "t": 121999.99999999999,
      "d": 1841.1458333333285,
      "v": 52
    },
    {
      "midi": 64,
      "hit": false,
      "t": 121999.99999999999,
      "d": 1841.1458333333285,
      "v": 52
    },
    {
      "midi": 67,
      "hit": false,
      "t": 121999.99999999999,
      "d": 1875,
      "v": 59
    },
    {
      "midi": 57,
      "hit": false,
      "t": 123999.99999999999,
      "d": 2520.8333333333285,
      "v": 81
    },
    {
      "midi": 62,
      "hit": false,
      "t": 123999.99999999999,
      "d": 2520.8333333333285,
      "v": 81
    },
    {
      "midi": 66,
      "hit": false,
      "t": 123999.99999999999,
      "d": 2520.8333333333285,
      "v": 81
    },
    {
      "midi": 57,
      "hit": false,
      "t": 123999.99999999999,
      "d": 2520.8333333333285,
      "v": 81
    },
    {
      "midi": 62,
      "hit": false,
      "t": 123999.99999999999,
      "d": 2520.8333333333285,
      "v": 81
    },
    {
      "midi": 66,
      "hit": false,
      "t": 123999.99999999999,
      "d": 2520.8333333333285,
      "v": 81
    },
    {
      "midi": 64,
      "hit": false,
      "t": 126499.99999999999,
      "d": 307.2916666666715,
      "v": 65
    },
    {
      "midi": 69,
      "hit": false,
      "t": 126499.99999999999,
      "d": 1320.3125000000146,
      "v": 74
    },
    {
      "midi": 64,
      "hit": false,
      "t": 126499.99999999999,
      "d": 307.2916666666715,
      "v": 65
    },
    {
      "midi": 69,
      "hit": false,
      "t": 126499.99999999999,
      "d": 1320.3125000000146,
      "v": 74
    },
    {
      "midi": 66,
      "hit": false,
      "t": 126749.99999999999,
      "d": 757.8125,
      "v": 84
    },
    {
      "midi": 66,
      "hit": false,
      "t": 126749.99999999999,
      "d": 757.8125,
      "v": 84
    },
    {
      "midi": 64,
      "hit": false,
      "t": 127249.99999999999,
      "d": 322.9166666666715,
      "v": 74
    },
    {
      "midi": 64,
      "hit": false,
      "t": 127249.99999999999,
      "d": 322.9166666666715,
      "v": 74
    },
    {
      "midi": 62,
      "hit": false,
      "t": 127507.81249999999,
      "d": 278.64583333334303,
      "v": 81
    },
    {
      "midi": 62,
      "hit": false,
      "t": 127507.81249999999,
      "d": 278.64583333334303,
      "v": 81
    },
    {
      "midi": 57,
      "hit": false,
      "t": 128000,
      "d": 187.5,
      "v": 71
    },
    {
      "midi": 61,
      "hit": false,
      "t": 128000,
      "d": 187.5,
      "v": 71
    },
    {
      "midi": 64,
      "hit": false,
      "t": 128000,
      "d": 187.5,
      "v": 71
    },
    {
      "midi": 57,
      "hit": false,
      "t": 128000,
      "d": 187.5,
      "v": 71
    },
    {
      "midi": 61,
      "hit": false,
      "t": 128000,
      "d": 187.5,
      "v": 71
    },
    {
      "midi": 64,
      "hit": false,
      "t": 128000,
      "d": 187.5,
      "v": 71
    },
    {
      "midi": 57,
      "hit": false,
      "t": 128500,
      "d": 1895.8333333333285,
      "v": 84
    },
    {
      "midi": 61,
      "hit": false,
      "t": 128500,
      "d": 1895.8333333333285,
      "v": 84
    },
    {
      "midi": 64,
      "hit": false,
      "t": 128500,
      "d": 1895.8333333333285,
      "v": 84
    },
    {
      "midi": 57,
      "hit": false,
      "t": 128500,
      "d": 1895.8333333333285,
      "v": 84
    },
    {
      "midi": 61,
      "hit": false,
      "t": 128500,
      "d": 1895.8333333333285,
      "v": 84
    },
    {
      "midi": 64,
      "hit": false,
      "t": 128500,
      "d": 1895.8333333333285,
      "v": 84
    },
    {
      "midi": 45,
      "hit": false,
      "t": 130250,
      "d": 1716.145833333343,
      "v": 77
    },
    {
      "midi": 45,
      "hit": false,
      "t": 130250,
      "d": 1716.145833333343,
      "v": 77
    },
    {
      "midi": 52,
      "hit": false,
      "t": 130500,
      "d": 1466.145833333343,
      "v": 81
    },
    {
      "midi": 52,
      "hit": false,
      "t": 130500,
      "d": 1466.145833333343,
      "v": 81
    },
    {
      "midi": 61,
      "hit": false,
      "t": 130750,
      "d": 1216.145833333343,
      "v": 65
    },
    {
      "midi": 61,
      "hit": false,
      "t": 130750,
      "d": 1216.145833333343,
      "v": 65
    },
    {
      "midi": 57,
      "hit": false,
      "t": 131250,
      "d": 716.145833333343,
      "v": 48
    },
    {
      "midi": 57,
      "hit": false,
      "t": 131250,
      "d": 716.145833333343,
      "v": 48
    },
    {
      "midi": 56,
      "hit": false,
      "t": 132000,
      "d": 187.5,
      "v": 71
    },
    {
      "midi": 59,
      "hit": false,
      "t": 132000,
      "d": 187.5,
      "v": 71
    },
    {
      "midi": 64,
      "hit": false,
      "t": 132000,
      "d": 187.5,
      "v": 71
    },
    {
      "midi": 56,
      "hit": false,
      "t": 132000,
      "d": 187.5,
      "v": 71
    },
    {
      "midi": 59,
      "hit": false,
      "t": 132000,
      "d": 187.5,
      "v": 71
    },
    {
      "midi": 64,
      "hit": false,
      "t": 132000,
      "d": 187.5,
      "v": 71
    },
    {
      "midi": 56,
      "hit": false,
      "t": 132500,
      "d": 1895.833333333343,
      "v": 84
    },
    {
      "midi": 59,
      "hit": false,
      "t": 132500,
      "d": 1895.833333333343,
      "v": 84
    },
    {
      "midi": 64,
      "hit": false,
      "t": 132500,
      "d": 1895.833333333343,
      "v": 84
    },
    {
      "midi": 56,
      "hit": false,
      "t": 132500,
      "d": 1895.833333333343,
      "v": 84
    },
    {
      "midi": 59,
      "hit": false,
      "t": 132500,
      "d": 1895.833333333343,
      "v": 84
    },
    {
      "midi": 64,
      "hit": false,
      "t": 132500,
      "d": 1895.833333333343,
      "v": 84
    },
    {
      "midi": 40,
      "hit": false,
      "t": 134250,
      "d": 1716.145833333343,
      "v": 77
    },
    {
      "midi": 40,
      "hit": false,
      "t": 134250,
      "d": 1716.145833333343,
      "v": 77
    },
    {
      "midi": 56,
      "hit": false,
      "t": 134500,
      "d": 1466.145833333343,
      "v": 81
    },
    {
      "midi": 56,
      "hit": false,
      "t": 134500,
      "d": 1466.145833333343,
      "v": 81
    },
    {
      "midi": 64,
      "hit": false,
      "t": 134750,
      "d": 1216.145833333343,
      "v": 65
    },
    {
      "midi": 64,
      "hit": false,
      "t": 134750,
      "d": 1216.145833333343,
      "v": 65
    },
    {
      "midi": 59,
      "hit": false,
      "t": 135250,
      "d": 716.145833333343,
      "v": 48
    },
    {
      "midi": 59,
      "hit": false,
      "t": 135250,
      "d": 716.145833333343,
      "v": 48
    },
    {
      "midi": 57,
      "hit": false,
      "t": 136000,
      "d": 2000,
      "v": 81
    },
    {
      "midi": 61,
      "hit": false,
      "t": 136000,
      "d": 2000,
      "v": 81
    },
    {
      "midi": 64,
      "hit": false,
      "t": 136000,
      "d": 2000,
      "v": 81
    },
    {
      "midi": 57,
      "hit": false,
      "t": 136000,
      "d": 2000,
      "v": 81
    },
    {
      "midi": 61,
      "hit": false,
      "t": 136000,
      "d": 2000,
      "v": 81
    },
    {
      "midi": 64,
      "hit": false,
      "t": 136000,
      "d": 2000,
      "v": 81
    },
    {
      "midi": 57,
      "hit": false,
      "t": 138000,
      "d": 1841.145833333343,
      "v": 52
    },
    {
      "midi": 61,
      "hit": false,
      "t": 138000,
      "d": 1841.145833333343,
      "v": 52
    },
    {
      "midi": 64,
      "hit": false,
      "t": 138000,
      "d": 1841.145833333343,
      "v": 52
    },
    {
      "midi": 67,
      "hit": false,
      "t": 138000,
      "d": 1875,
      "v": 59
    },
    {
      "midi": 57,
      "hit": false,
      "t": 138000,
      "d": 1841.145833333343,
      "v": 52
    },
    {
      "midi": 61,
      "hit": false,
      "t": 138000,
      "d": 1841.145833333343,
      "v": 52
    },
    {
      "midi": 64,
      "hit": false,
      "t": 138000,
      "d": 1841.145833333343,
      "v": 52
    },
    {
      "midi": 67,
      "hit": false,
      "t": 138000,
      "d": 1875,
      "v": 59
    },
    {
      "midi": 57,
      "hit": false,
      "t": 140000,
      "d": 3729.166666666657,
      "v": 65
    },
    {
      "midi": 62,
      "hit": false,
      "t": 140000,
      "d": 3729.166666666657,
      "v": 65
    },
    {
      "midi": 66,
      "hit": false,
      "t": 140000,
      "d": 3729.166666666657,
      "v": 65
    },
    {
      "midi": 57,
      "hit": false,
      "t": 140000,
      "d": 3729.166666666657,
      "v": 65
    },
    {
      "midi": 62,
      "hit": false,
      "t": 140000,
      "d": 3729.166666666657,
      "v": 65
    },
    {
      "midi": 66,
      "hit": false,
      "t": 140000,
      "d": 3729.166666666657,
      "v": 65
    },
    {
      "midi": 45,
      "hit": false,
      "t": 144250,
      "d": 3690.104166666657,
      "v": 76
    },
    {
      "midi": 45,
      "hit": false,
      "t": 144250,
      "d": 3690.104166666657,
      "v": 76
    },
    {
      "midi": 64,
      "hit": false,
      "t": 144500,
      "d": 2072.916666666657,
      "v": 89
    },
    {
      "midi": 64,
      "hit": false,
      "t": 144500,
      "d": 2072.916666666657,
      "v": 89
    },
    {
      "midi": 69,
      "hit": false,
      "t": 144750,
      "d": 1916.666666666657,
      "v": 50
    },
    {
      "midi": 73,
      "hit": false,
      "t": 144750,
      "d": 1940.104166666657,
      "v": 73
    },
    {
      "midi": 69,
      "hit": false,
      "t": 144750,
      "d": 1916.666666666657,
      "v": 50
    },
    {
      "midi": 73,
      "hit": false,
      "t": 144750,
      "d": 1940.104166666657,
      "v": 73
    },
    {
      "midi": 64,
      "hit": false,
      "t": 146750,
      "d": 1190.104166666657,
      "v": 79
    },
    {
      "midi": 64,
      "hit": false,
      "t": 146750,
      "d": 1190.104166666657,
      "v": 79
    },
    {
      "midi": 71,
      "hit": false,
      "t": 147000,
      "d": 218.75,
      "v": 85
    },
    {
      "midi": 76,
      "hit": false,
      "t": 147000,
      "d": 940.104166666657,
      "v": 92
    },
    {
      "midi": 71,
      "hit": false,
      "t": 147000,
      "d": 218.75,
      "v": 85
    },
    {
      "midi": 76,
      "hit": false,
      "t": 147000,
      "d": 940.104166666657,
      "v": 92
    },
    {
      "midi": 73,
      "hit": false,
      "t": 147250,
      "d": 229.16666666665697,
      "v": 79
    },
    {
      "midi": 73,
      "hit": false,
      "t": 147250,
      "d": 229.16666666665697,
      "v": 79
    },
    {
      "midi": 71,
      "hit": false,
      "t": 147500,
      "d": 216.14583333334303,
      "v": 49
    },
    {
      "midi": 71,
      "hit": false,
      "t": 147500,
      "d": 216.14583333334303,
      "v": 49
    },
    {
      "midi": 69,
      "hit": false,
      "t": 147750,
      "d": 190.10416666665697,
      "v": 82
    },
    {
      "midi": 69,
      "hit": false,
      "t": 147750,
      "d": 190.10416666665697,
      "v": 82
    },
    {
      "midi": 56,
      "hit": false,
      "t": 148000,
      "d": 2520.833333333343,
      "v": 81
    },
    {
      "midi": 59,
      "hit": false,
      "t": 148000,
      "d": 2520.833333333343,
      "v": 81
    },
    {
      "midi": 64,
      "hit": false,
      "t": 148000,
      "d": 2520.833333333343,
      "v": 81
    },
    {
      "midi": 56,
      "hit": false,
      "t": 148000,
      "d": 2520.833333333343,
      "v": 81
    },
    {
      "midi": 59,
      "hit": false,
      "t": 148000,
      "d": 2520.833333333343,
      "v": 81
    },
    {
      "midi": 64,
      "hit": false,
      "t": 148000,
      "d": 2520.833333333343,
      "v": 81
    },
    {
      "midi": 66,
      "hit": false,
      "t": 150500,
      "d": 307.29166666665697,
      "v": 65
    },
    {
      "midi": 71,
      "hit": false,
      "t": 150500,
      "d": 1320.312499999971,
      "v": 74
    },
    {
      "midi": 66,
      "hit": false,
      "t": 150500,
      "d": 307.29166666665697,
      "v": 65
    },
    {
      "midi": 71,
      "hit": false,
      "t": 150500,
      "d": 1320.312499999971,
      "v": 74
    },
    {
      "midi": 68,
      "hit": false,
      "t": 150750,
      "d": 757.8125,
      "v": 84
    },
    {
      "midi": 68,
      "hit": false,
      "t": 150750,
      "d": 757.8125,
      "v": 84
    },
    {
      "midi": 66,
      "hit": false,
      "t": 151250,
      "d": 322.91666666665697,
      "v": 74
    },
    {
      "midi": 66,
      "hit": false,
      "t": 151250,
      "d": 322.91666666665697,
      "v": 74
    },
    {
      "midi": 64,
      "hit": false,
      "t": 151507.8125,
      "d": 278.64583333331393,
      "v": 81
    },
    {
      "midi": 64,
      "hit": false,
      "t": 151507.8125,
      "d": 278.64583333331393,
      "v": 81
    },
    {
      "midi": 64,
      "hit": false,
      "t": 151999.99999999997,
      "d": 2500,
      "v": 81
    },
    {
      "midi": 71,
      "hit": false,
      "t": 151999.99999999997,
      "d": 2500,
      "v": 81
    },
    {
      "midi": 68,
      "hit": false,
      "t": 151999.99999999997,
      "d": 2520.833333333343,
      "v": 81
    },
    {
      "midi": 64,
      "hit": false,
      "t": 151999.99999999997,
      "d": 2500,
      "v": 81
    },
    {
      "midi": 71,
      "hit": false,
      "t": 151999.99999999997,
      "d": 2500,
      "v": 81
    },
    {
      "midi": 68,
      "hit": false,
      "t": 151999.99999999997,
      "d": 2520.833333333343,
      "v": 81
    },
    {
      "midi": 59,
      "hit": false,
      "t": 154499.99999999997,
      "d": 307.29166666665697,
      "v": 65
    },
    {
      "midi": 64,
      "hit": false,
      "t": 154499.99999999997,
      "d": 1320.312499999971,
      "v": 74
    },
    {
      "midi": 59,
      "hit": false,
      "t": 154499.99999999997,
      "d": 307.29166666665697,
      "v": 65
    },
    {
      "midi": 64,
      "hit": false,
      "t": 154499.99999999997,
      "d": 1320.312499999971,
      "v": 74
    },
    {
      "midi": 61,
      "hit": false,
      "t": 154749.99999999997,
      "d": 757.8125,
      "v": 84
    },
    {
      "midi": 61,
      "hit": false,
      "t": 154749.99999999997,
      "d": 757.8125,
      "v": 84
    },
    {
      "midi": 59,
      "hit": false,
      "t": 155249.99999999997,
      "d": 322.91666666665697,
      "v": 74
    },
    {
      "midi": 59,
      "hit": false,
      "t": 155249.99999999997,
      "d": 322.91666666665697,
      "v": 74
    },
    {
      "midi": 57,
      "hit": false,
      "t": 155507.81249999997,
      "d": 278.64583333331393,
      "v": 81
    },
    {
      "midi": 57,
      "hit": false,
      "t": 155507.81249999997,
      "d": 278.64583333331393,
      "v": 81
    },
    {
      "midi": 56,
      "hit": false,
      "t": 155999.99999999994,
      "d": 187.5,
      "v": 71
    },
    {
      "midi": 59,
      "hit": false,
      "t": 155999.99999999994,
      "d": 187.5,
      "v": 71
    },
    {
      "midi": 64,
      "hit": false,
      "t": 155999.99999999994,
      "d": 187.5,
      "v": 71
    },
    {
      "midi": 56,
      "hit": false,
      "t": 155999.99999999994,
      "d": 187.5,
      "v": 71
    },
    {
      "midi": 59,
      "hit": false,
      "t": 155999.99999999994,
      "d": 187.5,
      "v": 71
    },
    {
      "midi": 64,
      "hit": false,
      "t": 155999.99999999994,
      "d": 187.5,
      "v": 71
    },
    {
      "midi": 56,
      "hit": false,
      "t": 156499.99999999994,
      "d": 1895.833333333343,
      "v": 84
    },
    {
      "midi": 59,
      "hit": false,
      "t": 156499.99999999994,
      "d": 1895.833333333343,
      "v": 84
    },
    {
      "midi": 64,
      "hit": false,
      "t": 156499.99999999994,
      "d": 1895.833333333343,
      "v": 84
    },
    {
      "midi": 56,
      "hit": false,
      "t": 156499.99999999994,
      "d": 1895.833333333343,
      "v": 84
    },
    {
      "midi": 59,
      "hit": false,
      "t": 156499.99999999994,
      "d": 1895.833333333343,
      "v": 84
    },
    {
      "midi": 64,
      "hit": false,
      "t": 156499.99999999994,
      "d": 1895.833333333343,
      "v": 84
    },
    {
      "midi": 40,
      "hit": false,
      "t": 158249.99999999994,
      "d": 1716.145833333343,
      "v": 77
    },
    {
      "midi": 40,
      "hit": false,
      "t": 158249.99999999994,
      "d": 1716.145833333343,
      "v": 77
    },
    {
      "midi": 56,
      "hit": false,
      "t": 158499.99999999994,
      "d": 1466.145833333343,
      "v": 81
    },
    {
      "midi": 56,
      "hit": false,
      "t": 158499.99999999994,
      "d": 1466.145833333343,
      "v": 81
    },
    {
      "midi": 64,
      "hit": false,
      "t": 158749.99999999994,
      "d": 1216.145833333343,
      "v": 65
    },
    {
      "midi": 64,
      "hit": false,
      "t": 158749.99999999994,
      "d": 1216.145833333343,
      "v": 65
    },
    {
      "midi": 59,
      "hit": false,
      "t": 159249.99999999994,
      "d": 716.145833333343,
      "v": 48
    },
    {
      "midi": 59,
      "hit": false,
      "t": 159249.99999999994,
      "d": 716.145833333343,
      "v": 48
    },
    {
      "midi": 56,
      "hit": false,
      "t": 159999.99999999994,
      "d": 395.83333333334303,
      "v": 84
    },
    {
      "midi": 59,
      "hit": false,
      "t": 159999.99999999994,
      "d": 395.83333333334303,
      "v": 84
    },
    {
      "midi": 64,
      "hit": false,
      "t": 159999.99999999994,
      "d": 395.83333333334303,
      "v": 84
    },
    {
      "midi": 56,
      "hit": false,
      "t": 159999.99999999994,
      "d": 395.83333333334303,
      "v": 84
    },
    {
      "midi": 59,
      "hit": false,
      "t": 159999.99999999994,
      "d": 395.83333333334303,
      "v": 84
    },
    {
      "midi": 64,
      "hit": false,
      "t": 159999.99999999994,
      "d": 395.83333333334303,
      "v": 84
    },
    {
      "midi": 40,
      "hit": false,
      "t": 160249.99999999994,
      "d": 1716.145833333343,
      "v": 77
    },
    {
      "midi": 40,
      "hit": false,
      "t": 160249.99999999994,
      "d": 1716.145833333343,
      "v": 77
    },
    {
      "midi": 56,
      "hit": false,
      "t": 160499.99999999994,
      "d": 1466.145833333343,
      "v": 81
    },
    {
      "midi": 56,
      "hit": false,
      "t": 160499.99999999994,
      "d": 1466.145833333343,
      "v": 81
    },
    {
      "midi": 64,
      "hit": false,
      "t": 160749.99999999994,
      "d": 1216.145833333343,
      "v": 65
    },
    {
      "midi": 64,
      "hit": false,
      "t": 160749.99999999994,
      "d": 1216.145833333343,
      "v": 65
    },
    {
      "midi": 59,
      "hit": false,
      "t": 161249.99999999994,
      "d": 716.145833333343,
      "v": 48
    },
    {
      "midi": 59,
      "hit": false,
      "t": 161249.99999999994,
      "d": 716.145833333343,
      "v": 48
    },
    {
      "midi": 59,
      "hit": false,
      "t": 161999.99999999994,
      "d": 231.77083333334303,
      "v": 74
    },
    {
      "midi": 45,
      "hit": false,
      "t": 161999.99999999994,
      "d": 2000,
      "v": 58
    },
    {
      "midi": 64,
      "hit": false,
      "t": 161999.99999999994,
      "d": 2000,
      "v": 81
    },
    {
      "midi": 59,
      "hit": false,
      "t": 161999.99999999994,
      "d": 231.77083333334303,
      "v": 74
    },
    {
      "midi": 45,
      "hit": false,
      "t": 161999.99999999994,
      "d": 2000,
      "v": 58
    },
    {
      "midi": 64,
      "hit": false,
      "t": 161999.99999999994,
      "d": 2000,
      "v": 81
    },
    {
      "midi": 61,
      "hit": false,
      "t": 162249.99999999994,
      "d": 299.47916666665697,
      "v": 65
    },
    {
      "midi": 61,
      "hit": false,
      "t": 162249.99999999994,
      "d": 299.47916666665697,
      "v": 65
    },
    {
      "midi": 59,
      "hit": false,
      "t": 162499.99999999994,
      "d": 265.625,
      "v": 63
    },
    {
      "midi": 59,
      "hit": false,
      "t": 162499.99999999994,
      "d": 265.625,
      "v": 63
    },
    {
      "midi": 57,
      "hit": false,
      "t": 162765.62499999994,
      "d": 1234.375,
      "v": 84
    },
    {
      "midi": 57,
      "hit": false,
      "t": 162765.62499999994,
      "d": 1234.375,
      "v": 84
    },
    {
      "midi": 59,
      "hit": false,
      "t": 163999.99999999994,
      "d": 231.77083333334303,
      "v": 74
    },
    {
      "midi": 45,
      "hit": false,
      "t": 163999.99999999994,
      "d": 2000,
      "v": 58
    },
    {
      "midi": 64,
      "hit": false,
      "t": 163999.99999999994,
      "d": 2000,
      "v": 81
    },
    {
      "midi": 59,
      "hit": false,
      "t": 163999.99999999994,
      "d": 231.77083333334303,
      "v": 74
    },
    {
      "midi": 45,
      "hit": false,
      "t": 163999.99999999994,
      "d": 2000,
      "v": 58
    },
    {
      "midi": 64,
      "hit": false,
      "t": 163999.99999999994,
      "d": 2000,
      "v": 81
    },
    {
      "midi": 61,
      "hit": false,
      "t": 164249.99999999994,
      "d": 299.47916666665697,
      "v": 65
    },
    {
      "midi": 61,
      "hit": false,
      "t": 164249.99999999994,
      "d": 299.47916666665697,
      "v": 65
    },
    {
      "midi": 59,
      "hit": false,
      "t": 164499.99999999994,
      "d": 265.625,
      "v": 63
    },
    {
      "midi": 59,
      "hit": false,
      "t": 164499.99999999994,
      "d": 265.625,
      "v": 63
    },
    {
      "midi": 57,
      "hit": false,
      "t": 164765.62499999994,
      "d": 1234.375,
      "v": 84
    },
    {
      "midi": 57,
      "hit": false,
      "t": 164765.62499999994,
      "d": 1234.375,
      "v": 84
    },
    {
      "midi": 59,
      "hit": false,
      "t": 165999.99999999994,
      "d": 231.77083333334303,
      "v": 74
    },
    {
      "midi": 45,
      "hit": false,
      "t": 165999.99999999994,
      "d": 2000,
      "v": 58
    },
    {
      "midi": 64,
      "hit": false,
      "t": 165999.99999999994,
      "d": 2000,
      "v": 81
    },
    {
      "midi": 59,
      "hit": false,
      "t": 165999.99999999994,
      "d": 231.77083333334303,
      "v": 74
    },
    {
      "midi": 45,
      "hit": false,
      "t": 165999.99999999994,
      "d": 2000,
      "v": 58
    },
    {
      "midi": 64,
      "hit": false,
      "t": 165999.99999999994,
      "d": 2000,
      "v": 81
    }
  ]
}