{
  "jsonPath": "Rock/Danspunk/Vikingarna/natt-och-dag-dont-be-cruel.json",
  "path": "Rock\\Danspunk\\Vikingarna\\Natt och dag (Dont Be Cruel).mid",
  "name": "Natt och dag (Dont Be Cruel)",
  "difficulty": "Advanced",
  "bpm": 165.000165000165,
  "notes": [
    {
      "midi": 36,
      "hit": false,
      "t": 1458.331875,
      "d": 397.72687500000006,
      "v": 127
    },
    {
      "midi": 36,
      "hit": false,
      "t": 1462.11975,
      "d": 261.36337500000013,
      "v": 127
    },
    {
      "midi": 40,
      "hit": false,
      "t": 1821.967875,
      "d": 386.3632500000001,
      "v": 127
    },
    {
      "midi": 40,
      "hit": false,
      "t": 1821.9678750000003,
      "d": 268.9391249999999,
      "v": 111
    },
    {
      "midi": 43,
      "hit": false,
      "t": 2185.6038750000002,
      "d": 325.7572500000001,
      "v": 127
    },
    {
      "midi": 43,
      "hit": false,
      "t": 2185.6038750000002,
      "d": 280.30274999999983,
      "v": 127
    },
    {
      "midi": 45,
      "hit": false,
      "t": 2549.239875,
      "d": 242.42399999999998,
      "v": 127
    },
    {
      "midi": 45,
      "hit": false,
      "t": 2549.239875,
      "d": 181.8180000000002,
      "v": 125
    },
    {
      "midi": 43,
      "hit": false,
      "t": 2791.663875,
      "d": 102.27262500000006,
      "v": 127
    },
    {
      "midi": 43,
      "hit": false,
      "t": 2791.6638750000006,
      "d": 113.63625000000002,
      "v": 124
    },
    {
      "midi": 36,
      "hit": false,
      "t": 2912.875875,
      "d": 367.42387499999995,
      "v": 127
    },
    {
      "midi": 36,
      "hit": false,
      "t": 2916.6637500000006,
      "d": 265.1512499999999,
      "v": 127
    },
    {
      "midi": 40,
      "hit": false,
      "t": 3276.511875,
      "d": 405.3026249999998,
      "v": 127
    },
    {
      "midi": 40,
      "hit": false,
      "t": 3276.5118750000006,
      "d": 295.45425000000023,
      "v": 118
    },
    {
      "midi": 43,
      "hit": false,
      "t": 3640.147875,
      "d": 344.69662500000004,
      "v": 127
    },
    {
      "midi": 43,
      "hit": false,
      "t": 3643.935750000001,
      "d": 337.12087500000007,
      "v": 127
    },
    {
      "midi": 45,
      "hit": false,
      "t": 4003.783875,
      "d": 276.51487499999985,
      "v": 127
    },
    {
      "midi": 45,
      "hit": false,
      "t": 4003.783875000001,
      "d": 178.03012500000023,
      "v": 116
    },
    {
      "midi": 43,
      "hit": false,
      "t": 4246.207875,
      "d": 90.90899999999965,
      "v": 127
    },
    {
      "midi": 43,
      "hit": false,
      "t": 4246.207875000001,
      "d": 87.12112499999967,
      "v": 124
    },
    {
      "midi": 36,
      "hit": false,
      "t": 4367.419875,
      "d": 367.4238750000004,
      "v": 127
    },
    {
      "midi": 36,
      "hit": false,
      "t": 4371.2077500000005,
      "d": 231.06037500000002,
      "v": 127
    },
    {
      "midi": 40,
      "hit": false,
      "t": 4731.055875,
      "d": 367.4238750000004,
      "v": 127
    },
    {
      "midi": 40,
      "hit": false,
      "t": 4731.055875000001,
      "d": 367.4238750000004,
      "v": 127
    },
    {
      "midi": 43,
      "hit": false,
      "t": 5094.691875,
      "d": 333.33299999999963,
      "v": 127
    },
    {
      "midi": 43,
      "hit": false,
      "t": 5098.479750000001,
      "d": 344.6966249999996,
      "v": 119
    },
    {
      "midi": 45,
      "hit": false,
      "t": 5458.327875,
      "d": 242.42399999999998,
      "v": 127
    },
    {
      "midi": 45,
      "hit": false,
      "t": 5458.327875000001,
      "d": 196.96950000000015,
      "v": 120
    },
    {
      "midi": 43,
      "hit": false,
      "t": 5700.751875,
      "d": 113.63624999999956,
      "v": 127
    },
    {
      "midi": 43,
      "hit": false,
      "t": 5700.751875000001,
      "d": 117.42412500000046,
      "v": 112
    },
    {
      "midi": 36,
      "hit": false,
      "t": 5821.9638749999995,
      "d": 378.78750000000036,
      "v": 127
    },
    {
      "midi": 36,
      "hit": false,
      "t": 5825.751750000001,
      "d": 268.9391249999999,
      "v": 127
    },
    {
      "midi": 40,
      "hit": false,
      "t": 6185.599875,
      "d": 371.2117500000004,
      "v": 127
    },
    {
      "midi": 40,
      "hit": false,
      "t": 6185.599875000001,
      "d": 333.33299999999963,
      "v": 120
    },
    {
      "midi": 43,
      "hit": false,
      "t": 6549.235875,
      "d": 371.2117500000004,
      "v": 127
    },
    {
      "midi": 43,
      "hit": false,
      "t": 6553.02375,
      "d": 337.1208749999996,
      "v": 127
    },
    {
      "midi": 45,
      "hit": false,
      "t": 6912.871875,
      "d": 261.3633749999999,
      "v": 109
    },
    {
      "midi": 45,
      "hit": false,
      "t": 6912.871875000001,
      "d": 246.21187499999996,
      "v": 127
    },
    {
      "midi": 43,
      "hit": false,
      "t": 7155.295875,
      "d": 87.12112499999967,
      "v": 127
    },
    {
      "midi": 43,
      "hit": false,
      "t": 7155.295875000001,
      "d": 102.2726249999996,
      "v": 127
    },
    {
      "midi": 36,
      "hit": false,
      "t": 7276.507875,
      "d": 340.9087499999996,
      "v": 127
    },
    {
      "midi": 36,
      "hit": false,
      "t": 7280.295749999999,
      "d": 386.36325000000033,
      "v": 119
    },
    {
      "midi": 55,
      "hit": false,
      "t": 7515.144,
      "d": 68.18174999999974,
      "v": 127
    },
    {
      "midi": 60,
      "hit": false,
      "t": 7518.931875,
      "d": 64.39387499999975,
      "v": 127
    },
    {
      "midi": 64,
      "hit": false,
      "t": 7518.931875,
      "d": 83.33324999999968,
      "v": 127
    },
    {
      "midi": 40,
      "hit": false,
      "t": 7640.143875,
      "d": 409.09049999999934,
      "v": 127
    },
    {
      "midi": 40,
      "hit": false,
      "t": 7640.143875,
      "d": 318.1814999999997,
      "v": 127
    },
    {
      "midi": 60,
      "hit": false,
      "t": 7882.567875,
      "d": 64.39387499999975,
      "v": 127
    },
    {
      "midi": 55,
      "hit": false,
      "t": 7882.567875,
      "d": 68.18174999999974,
      "v": 127
    },
    {
      "midi": 64,
      "hit": false,
      "t": 7882.567875,
      "d": 68.18174999999974,
      "v": 127
    },
    {
      "midi": 43,
      "hit": false,
      "t": 8003.779874999999,
      "d": 344.6966249999996,
      "v": 127
    },
    {
      "midi": 43,
      "hit": false,
      "t": 8007.567749999999,
      "d": 337.1208749999996,
      "v": 127
    },
    {
      "midi": 55,
      "hit": false,
      "t": 8242.416,
      "d": 75.75749999999971,
      "v": 127
    },
    {
      "midi": 60,
      "hit": false,
      "t": 8246.203875,
      "d": 68.18174999999974,
      "v": 127
    },
    {
      "midi": 64,
      "hit": false,
      "t": 8246.203875,
      "d": 71.96962499999972,
      "v": 127
    },
    {
      "midi": 45,
      "hit": false,
      "t": 8367.415874999999,
      "d": 253.78762500000084,
      "v": 127
    },
    {
      "midi": 45,
      "hit": false,
      "t": 8367.415874999999,
      "d": 234.8482499999991,
      "v": 110
    },
    {
      "midi": 60,
      "hit": false,
      "t": 8609.839875,
      "d": 75.75749999999971,
      "v": 127
    },
    {
      "midi": 55,
      "hit": false,
      "t": 8609.839875,
      "d": 79.5453749999997,
      "v": 127
    },
    {
      "midi": 64,
      "hit": false,
      "t": 8609.839875,
      "d": 83.33324999999968,
      "v": 127
    },
    {
      "midi": 43,
      "hit": false,
      "t": 8609.839875,
      "d": 136.36349999999948,
      "v": 127
    },
    {
      "midi": 43,
      "hit": false,
      "t": 8613.627749999998,
      "d": 68.18174999999974,
      "v": 119
    },
    {
      "midi": 36,
      "hit": false,
      "t": 8731.051875,
      "d": 344.6966249999987,
      "v": 127
    },
    {
      "midi": 36,
      "hit": false,
      "t": 8734.839749999997,
      "d": 325.75725000000057,
      "v": 124
    },
    {
      "midi": 64,
      "hit": false,
      "t": 8969.687999999998,
      "d": 87.12112499999967,
      "v": 127
    },
    {
      "midi": 55,
      "hit": false,
      "t": 8969.687999999998,
      "d": 90.90899999999965,
      "v": 127
    },
    {
      "midi": 60,
      "hit": false,
      "t": 8973.475874999998,
      "d": 30.302999999999884,
      "v": 127
    },
    {
      "midi": 40,
      "hit": false,
      "t": 9094.687874999998,
      "d": 397.7268749999985,
      "v": 127
    },
    {
      "midi": 40,
      "hit": false,
      "t": 9094.687874999998,
      "d": 356.06025000000045,
      "v": 127
    },
    {
      "midi": 60,
      "hit": false,
      "t": 9333.323999999997,
      "d": 68.18174999999974,
      "v": 127
    },
    {
      "midi": 55,
      "hit": false,
      "t": 9337.111874999997,
      "d": 68.18174999999974,
      "v": 127
    },
    {
      "midi": 64,
      "hit": false,
      "t": 9337.111874999997,
      "d": 71.96962499999972,
      "v": 127
    },
    {
      "midi": 43,
      "hit": false,
      "t": 9458.323874999996,
      "d": 333.3329999999987,
      "v": 127
    },
    {
      "midi": 43,
      "hit": false,
      "t": 9458.323874999998,
      "d": 340.9087500000005,
      "v": 124
    },
    {
      "midi": 64,
      "hit": false,
      "t": 9696.959999999995,
      "d": 75.75749999999971,
      "v": 127
    },
    {
      "midi": 55,
      "hit": false,
      "t": 9700.747874999995,
      "d": 68.18174999999974,
      "v": 127
    },
    {
      "midi": 60,
      "hit": false,
      "t": 9700.747874999995,
      "d": 68.18174999999974,
      "v": 127
    },
    {
      "midi": 45,
      "hit": false,
      "t": 9821.959874999995,
      "d": 246.21187500000087,
      "v": 127
    },
    {
      "midi": 45,
      "hit": false,
      "t": 9821.959874999999,
      "d": 231.0603749999991,
      "v": 111
    },
    {
      "midi": 64,
      "hit": false,
      "t": 10064.383874999996,
      "d": 79.5453749999997,
      "v": 127
    },
    {
      "midi": 55,
      "hit": false,
      "t": 10064.383874999996,
      "d": 83.33324999999968,
      "v": 127
    },
    {
      "midi": 43,
      "hit": false,
      "t": 10064.383874999996,
      "d": 102.2726249999996,
      "v": 127
    },
    {
      "midi": 60,
      "hit": false,
      "t": 10068.171749999996,
      "d": 75.75749999999971,
      "v": 127
    },
    {
      "midi": 43,
      "hit": false,
      "t": 10068.171749999998,
      "d": 87.12112499999967,
      "v": 121
    },
    {
      "midi": 36,
      "hit": false,
      "t": 10185.595874999995,
      "d": 337.1208750000005,
      "v": 127
    },
    {
      "midi": 36,
      "hit": false,
      "t": 10185.595874999997,
      "d": 371.2117500000004,
      "v": 124
    },
    {
      "midi": 55,
      "hit": false,
      "t": 10424.231999999996,
      "d": 71.96962499999972,
      "v": 127
    },
    {
      "midi": 64,
      "hit": false,
      "t": 10424.231999999996,
      "d": 75.75749999999971,
      "v": 127
    },
    {
      "midi": 60,
      "hit": false,
      "t": 10428.019874999996,
      "d": 64.39387499999975,
      "v": 127
    },
    {
      "midi": 40,
      "hit": false,
      "t": 10549.231874999996,
      "d": 337.1208750000005,
      "v": 127
    },
    {
      "midi": 40,
      "hit": false,
      "t": 10553.019749999998,
      "d": 382.57537500000035,
      "v": 127
    },
    {
      "midi": 55,
      "hit": false,
      "t": 10791.655874999997,
      "d": 71.96962499999972,
      "v": 127
    },
    {
      "midi": 60,
      "hit": false,
      "t": 10791.655874999997,
      "d": 71.96962499999972,
      "v": 127
    },
    {
      "midi": 64,
      "hit": false,
      "t": 10791.655874999997,
      "d": 71.96962499999972,
      "v": 127
    },
    {
      "midi": 43,
      "hit": false,
      "t": 10912.867874999996,
      "d": 344.6966250000005,
      "v": 127
    },
    {
      "midi": 43,
      "hit": false,
      "t": 10912.867874999998,
      "d": 333.33300000000054,
      "v": 121
    },
    {
      "midi": 64,
      "hit": false,
      "t": 11151.503999999997,
      "d": 90.90899999999965,
      "v": 127
    },
    {
      "midi": 60,
      "hit": false,
      "t": 11155.291874999997,
      "d": 64.39387499999975,
      "v": 127
    },
    {
      "midi": 55,
      "hit": false,
      "t": 11155.291874999997,
      "d": 83.33324999999968,
      "v": 127
    },
    {
      "midi": 45,
      "hit": false,
      "t": 11276.503874999997,
      "d": 246.21187500000087,
      "v": 127
    },
    {
      "midi": 45,
      "hit": false,
      "t": 11280.291749999999,
      "d": 246.21187500000087,
      "v": 110
    },
    {
      "midi": 60,
      "hit": false,
      "t": 11518.927874999998,
      "d": 75.75749999999971,
      "v": 127
    },
    {
      "midi": 55,
      "hit": false,
      "t": 11518.927874999998,
      "d": 79.5453749999997,
      "v": 127
    },
    {
      "midi": 64,
      "hit": false,
      "t": 11518.927874999998,
      "d": 79.5453749999997,
      "v": 127
    },
    {
      "midi": 43,
      "hit": false,
      "t": 11518.927874999998,
      "d": 117.42412499999955,
      "v": 127
    },
    {
      "midi": 43,
      "hit": false,
      "t": 11522.71575,
      "d": 79.5453749999997,
      "v": 119
    },
    {
      "midi": 36,
      "hit": false,
      "t": 11640.139874999997,
      "d": 374.9996250000004,
      "v": 127
    },
    {
      "midi": 36,
      "hit": false,
      "t": 11643.927749999999,
      "d": 348.4845000000005,
      "v": 121
    },
    {
      "midi": 55,
      "hit": false,
      "t": 11878.775999999998,
      "d": 71.96962499999972,
      "v": 127
    },
    {
      "midi": 60,
      "hit": false,
      "t": 11882.563874999998,
      "d": 68.18174999999974,
      "v": 127
    },
    {
      "midi": 64,
      "hit": false,
      "t": 11882.563874999998,
      "d": 71.96962499999972,
      "v": 127
    },
    {
      "midi": 40,
      "hit": false,
      "t": 12003.775874999998,
      "d": 401.51474999999846,
      "v": 127
    },
    {
      "midi": 40,
      "hit": false,
      "t": 12007.56375,
      "d": 287.8785000000007,
      "v": 127
    },
    {
      "midi": 60,
      "hit": false,
      "t": 12246.199874999997,
      "d": 68.18174999999974,
      "v": 127
    },
    {
      "midi": 55,
      "hit": false,
      "t": 12246.199874999997,
      "d": 71.96962499999972,
      "v": 127
    },
    {
      "midi": 64,
      "hit": false,
      "t": 12246.199874999997,
      "d": 90.90899999999965,
      "v": 127
    },
    {
      "midi": 43,
      "hit": false,
      "t": 12367.411874999996,
      "d": 356.06024999999863,
      "v": 127
    },
    {
      "midi": 55,
      "hit": false,
      "t": 12606.047999999995,
      "d": 71.96962499999972,
      "v": 127
    },
    {
      "midi": 60,
      "hit": false,
      "t": 12606.047999999995,
      "d": 71.96962499999972,
      "v": 127
    },
    {
      "midi": 64,
      "hit": false,
      "t": 12609.835874999995,
      "d": 87.12112499999967,
      "v": 127
    },
    {
      "midi": 45,
      "hit": false,
      "t": 12731.047874999995,
      "d": 249.99975000000086,
      "v": 127
    },
    {
      "midi": 45,
      "hit": false,
      "t": 12731.047875,
      "d": 249.99975000000086,
      "v": 113
    },
    {
      "midi": 60,
      "hit": false,
      "t": 12973.471874999996,
      "d": 79.5453749999997,
      "v": 127
    },
    {
      "midi": 55,
      "hit": false,
      "t": 12973.471874999996,
      "d": 83.33324999999968,
      "v": 127
    },
    {
      "midi": 43,
      "hit": false,
      "t": 12973.471874999996,
      "d": 94.69687499999964,
      "v": 127
    },
    {
      "midi": 64,
      "hit": false,
      "t": 12973.471874999996,
      "d": 98.48474999999962,
      "v": 127
    },
    {
      "midi": 43,
      "hit": false,
      "t": 12977.259750000001,
      "d": 98.48474999999962,
      "v": 121
    },
    {
      "midi": 41,
      "hit": false,
      "t": 13094.683874999995,
      "d": 378.78750000000036,
      "v": 127
    },
    {
      "midi": 41,
      "hit": false,
      "t": 13098.47175,
      "d": 325.75725000000057,
      "v": 124
    },
    {
      "midi": 65,
      "hit": false,
      "t": 13333.319999999996,
      "d": 75.75749999999971,
      "v": 127
    },
    {
      "midi": 60,
      "hit": false,
      "t": 13333.319999999996,
      "d": 94.69687499999964,
      "v": 127
    },
    {
      "midi": 57,
      "hit": false,
      "t": 13337.107874999996,
      "d": 71.96962499999972,
      "v": 127
    },
    {
      "midi": 45,
      "hit": false,
      "t": 13458.319874999996,
      "d": 397.7268749999985,
      "v": 127
    },
    {
      "midi": 45,
      "hit": false,
      "t": 13458.319875000001,
      "d": 356.06025000000045,
      "v": 116
    },
    {
      "midi": 60,
      "hit": false,
      "t": 13696.955999999995,
      "d": 71.96962499999972,
      "v": 127
    },
    {
      "midi": 57,
      "hit": false,
      "t": 13700.743874999995,
      "d": 68.18174999999974,
      "v": 127
    },
    {
      "midi": 65,
      "hit": false,
      "t": 13700.743874999995,
      "d": 68.18174999999974,
      "v": 127
    },
    {
      "midi": 48,
      "hit": false,
      "t": 13821.955874999994,
      "d": 371.2117499999986,
      "v": 127
    },
    {
      "midi": 48,
      "hit": false,
      "t": 13821.955875000001,
      "d": 378.78750000000036,
      "v": 121
    },
    {
      "midi": 65,
      "hit": false,
      "t": 14060.591999999993,
      "d": 71.96962499999972,
      "v": 127
    },
    {
      "midi": 60,
      "hit": false,
      "t": 14064.379874999993,
      "d": 68.18174999999974,
      "v": 127
    },
    {
      "midi": 57,
      "hit": false,
      "t": 14064.379874999993,
      "d": 71.96962499999972,
      "v": 127
    },
    {
      "midi": 50,
      "hit": false,
      "t": 14185.591874999993,
      "d": 246.21187500000087,
      "v": 127
    },
    {
      "midi": 50,
      "hit": false,
      "t": 14189.379750000002,
      "d": 284.0906249999989,
      "v": 123
    },
    {
      "midi": 57,
      "hit": false,
      "t": 14428.015874999994,
      "d": 79.5453749999997,
      "v": 127
    },
    {
      "midi": 60,
      "hit": false,
      "t": 14428.015874999994,
      "d": 79.5453749999997,
      "v": 127
    },
    {
      "midi": 65,
      "hit": false,
      "t": 14428.015874999994,
      "d": 79.5453749999997,
      "v": 127
    },
    {
      "midi": 48,
      "hit": false,
      "t": 14428.015874999994,
      "d": 102.2726249999996,
      "v": 127
    },
    {
      "midi": 48,
      "hit": false,
      "t": 14431.803750000001,
      "d": 121.21199999999953,
      "v": 121
    },
    {
      "midi": 41,
      "hit": false,
      "t": 14549.227874999993,
      "d": 371.2117500000004,
      "v": 127
    },
    {
      "midi": 41,
      "hit": false,
      "t": 14549.227875,
      "d": 367.4238750000004,
      "v": 127
    },
    {
      "midi": 60,
      "hit": false,
      "t": 14787.863999999994,
      "d": 87.12112499999967,
      "v": 127
    },
    {
      "midi": 57,
      "hit": false,
      "t": 14791.651874999994,
      "d": 68.18174999999974,
      "v": 127
    },
    {
      "midi": 65,
      "hit": false,
      "t": 14791.651874999994,
      "d": 83.33324999999968,
      "v": 127
    },
    {
      "midi": 45,
      "hit": false,
      "t": 14912.863874999994,
      "d": 390.1511249999985,
      "v": 127
    },
    {
      "midi": 45,
      "hit": false,
      "t": 14916.65175,
      "d": 390.1511250000003,
      "v": 127
    },
    {
      "midi": 60,
      "hit": false,
      "t": 15151.499999999993,
      "d": 90.90899999999965,
      "v": 127
    },
    {
      "midi": 57,
      "hit": false,
      "t": 15155.287874999993,
      "d": 71.96962499999972,
      "v": 127
    },
    {
      "midi": 65,
      "hit": false,
      "t": 15155.287874999993,
      "d": 71.96962499999972,
      "v": 127
    },
    {
      "midi": 48,
      "hit": false,
      "t": 15276.499874999992,
      "d": 696.9689999999973,
      "v": 127
    },
    {
      "midi": 48,
      "hit": false,
      "t": 15276.499875000001,
      "d": 348.4845000000005,
      "v": 121
    },
    {
      "midi": 60,
      "hit": false,
      "t": 15515.135999999991,
      "d": 90.90899999999965,
      "v": 127
    },
    {
      "midi": 57,
      "hit": false,
      "t": 15518.923874999991,
      "d": 83.33324999999968,
      "v": 127
    },
    {
      "midi": 65,
      "hit": false,
      "t": 15518.923874999991,
      "d": 83.33324999999968,
      "v": 127
    },
    {
      "midi": 45,
      "hit": false,
      "t": 15640.13587499999,
      "d": 3.7878749999999854,
      "v": 127
    },
    {
      "midi": 50,
      "hit": false,
      "t": 15640.135875000002,
      "d": 272.72700000000077,
      "v": 116
    },
    {
      "midi": 60,
      "hit": false,
      "t": 15878.77199999999,
      "d": 90.90899999999965,
      "v": 127
    },
    {
      "midi": 57,
      "hit": false,
      "t": 15882.55987499999,
      "d": 68.18174999999974,
      "v": 127
    },
    {
      "midi": 65,
      "hit": false,
      "t": 15882.55987499999,
      "d": 90.90899999999965,
      "v": 127
    },
    {
      "midi": 48,
      "hit": false,
      "t": 15882.559875000003,
      "d": 71.96962499999972,
      "v": 124
    },
    {
      "midi": 36,
      "hit": false,
      "t": 16003.77187499999,
      "d": 371.2117499999986,
      "v": 127
    },
    {
      "midi": 36,
      "hit": false,
      "t": 16003.771875000002,
      "d": 374.9996250000004,
      "v": 127
    },
    {
      "midi": 55,
      "hit": false,
      "t": 16242.407999999989,
      "d": 75.75749999999971,
      "v": 127
    },
    {
      "midi": 60,
      "hit": false,
      "t": 16246.195874999989,
      "d": 68.18174999999974,
      "v": 127
    },
    {
      "midi": 64,
      "hit": false,
      "t": 16246.195874999989,
      "d": 90.90899999999965,
      "v": 127
    },
    {
      "midi": 40,
      "hit": false,
      "t": 16367.407874999988,
      "d": 397.72687500000575,
      "v": 127
    },
    {
      "midi": 40,
      "hit": false,
      "t": 16367.407875000003,
      "d": 352.27237499999865,
      "v": 127
    },
    {
      "midi": 55,
      "hit": false,
      "t": 16606.043999999987,
      "d": 75.75750000000335,
      "v": 127
    },
    {
      "midi": 60,
      "hit": false,
      "t": 16609.83187499999,
      "d": 68.18174999999974,
      "v": 127
    },
    {
      "midi": 64,
      "hit": false,
      "t": 16609.83187499999,
      "d": 90.90900000000329,
      "v": 127
    },
    {
      "midi": 43,
      "hit": false,
      "t": 16731.043874999992,
      "d": 340.90875000000597,
      "v": 127
    },
    {
      "midi": 43,
      "hit": false,
      "t": 16731.043875000003,
      "d": 367.4238750000004,
      "v": 124
    },
    {
      "midi": 55,
      "hit": false,
      "t": 16969.679999999993,
      "d": 87.12112500000148,
      "v": 127
    },
    {
      "midi": 60,
      "hit": false,
      "t": 16973.467874999995,
      "d": 30.302999999999884,
      "v": 127
    },
    {
      "midi": 64,
      "hit": false,
      "t": 16973.467874999995,
      "d": 87.12112500000148,
      "v": 127
    },
    {
      "midi": 45,
      "hit": false,
      "t": 17094.679874999998,
      "d": 227.27249999999913,
      "v": 127
    },
    {
      "midi": 45,
      "hit": false,
      "t": 17098.467750000003,
      "d": 219.69674999999916,
      "v": 110
    },
    {
      "midi": 60,
      "hit": false,
      "t": 17337.103874999997,
      "d": 75.75749999999971,
      "v": 127
    },
    {
      "midi": 55,
      "hit": false,
      "t": 17337.103874999997,
      "d": 79.54537500000151,
      "v": 127
    },
    {
      "midi": 64,
      "hit": false,
      "t": 17337.103874999997,
      "d": 98.48475000000326,
      "v": 127
    },
    {
      "midi": 43,
      "hit": false,
      "t": 17337.103874999997,
      "d": 106.06050000000323,
      "v": 127
    },
    {
      "midi": 43,
      "hit": false,
      "t": 17340.891750000003,
      "d": 68.18174999999974,
      "v": 127
    },
    {
      "midi": 36,
      "hit": false,
      "t": 17458.315875,
      "d": 367.4238750000077,
      "v": 127
    },
    {
      "midi": 36,
      "hit": false,
      "t": 17462.103750000002,
      "d": 397.7268750000003,
      "v": 127
    },
    {
      "midi": 55,
      "hit": false,
      "t": 17696.952,
      "d": 75.75750000000335,
      "v": 127
    },
    {
      "midi": 60,
      "hit": false,
      "t": 17700.739875000003,
      "d": 68.18174999999974,
      "v": 127
    },
    {
      "midi": 64,
      "hit": false,
      "t": 17700.739875000003,
      "d": 90.90900000000329,
      "v": 127
    },
    {
      "midi": 40,
      "hit": false,
      "t": 17821.951875000006,
      "d": 386.3632500000058,
      "v": 127
    },
    {
      "midi": 40,
      "hit": false,
      "t": 17825.73975,
      "d": 386.36325000000215,
      "v": 127
    },
    {
      "midi": 55,
      "hit": false,
      "t": 18060.588000000007,
      "d": 71.96962500000154,
      "v": 127
    },
    {
      "midi": 60,
      "hit": false,
      "t": 18064.37587500001,
      "d": 68.18174999999974,
      "v": 127
    },
    {
      "midi": 64,
      "hit": false,
      "t": 18064.37587500001,
      "d": 87.12112500000148,
      "v": 127
    },
    {
      "midi": 43,
      "hit": false,
      "t": 18185.587875,
      "d": 367.42387500000405,
      "v": 119
    },
    {
      "midi": 43,
      "hit": false,
      "t": 18185.587875000012,
      "d": 348.4845000000023,
      "v": 127
    },
    {
      "midi": 55,
      "hit": false,
      "t": 18428.01187500001,
      "d": 71.96962500000154,
      "v": 127
    },
    {
      "midi": 60,
      "hit": false,
      "t": 18428.01187500001,
      "d": 71.96962500000154,
      "v": 127
    },
    {
      "midi": 64,
      "hit": false,
      "t": 18428.01187500001,
      "d": 90.90900000000329,
      "v": 127
    },
    {
      "midi": 45,
      "hit": false,
      "t": 18549.223875000003,
      "d": 249.99975000000268,
      "v": 106
    },
    {
      "midi": 45,
      "hit": false,
      "t": 18549.223875000014,
      "d": 246.21187500000087,
      "v": 127
    },
    {
      "midi": 60,
      "hit": false,
      "t": 18791.647875000013,
      "d": 37.87875000000349,
      "v": 127
    },
    {
      "midi": 64,
      "hit": false,
      "t": 18791.647875000013,
      "d": 75.75750000000335,
      "v": 127
    },
    {
      "midi": 55,
      "hit": false,
      "t": 18791.647875000013,
      "d": 94.6968750000051,
      "v": 127
    },
    {
      "midi": 43,
      "hit": false,
      "t": 18791.647875000013,
      "d": 109.84837500000503,
      "v": 127
    },
    {
      "midi": 43,
      "hit": false,
      "t": 18795.435750000004,
      "d": 87.12112500000148,
      "v": 124
    },
    {
      "midi": 38,
      "hit": false,
      "t": 18912.85987500002,
      "d": 374.99962500000765,
      "v": 127
    },
    {
      "midi": 38,
      "hit": false,
      "t": 18916.647750000007,
      "d": 352.27237500000047,
      "v": 118
    },
    {
      "midi": 57,
      "hit": false,
      "t": 19151.49600000002,
      "d": 87.12112500000512,
      "v": 127
    },
    {
      "midi": 65,
      "hit": false,
      "t": 19155.283875000023,
      "d": 79.54537500000151,
      "v": 127
    },
    {
      "midi": 62,
      "hit": false,
      "t": 19155.283875000023,
      "d": 83.33325000000332,
      "v": 127
    },
    {
      "midi": 40,
      "hit": false,
      "t": 19276.495875000008,
      "d": 374.9996250000004,
      "v": 127
    },
    {
      "midi": 40,
      "hit": false,
      "t": 19276.495875000026,
      "d": 412.87837500000387,
      "v": 127
    },
    {
      "midi": 65,
      "hit": false,
      "t": 19515.132000000027,
      "d": 71.96962500000154,
      "v": 127
    },
    {
      "midi": 57,
      "hit": false,
      "t": 19518.91987500003,
      "d": 68.18174999999974,
      "v": 127
    },
    {
      "midi": 62,
      "hit": false,
      "t": 19518.91987500003,
      "d": 68.18174999999974,
      "v": 127
    },
    {
      "midi": 41,
      "hit": false,
      "t": 19640.131875000006,
      "d": 378.7875000000022,
      "v": 127
    },
    {
      "midi": 41,
      "hit": false,
      "t": 19640.13187500003,
      "d": 356.06025000000227,
      "v": 127
    },
    {
      "midi": 65,
      "hit": false,
      "t": 19878.76800000003,
      "d": 87.12112500000148,
      "v": 127
    },
    {
      "midi": 57,
      "hit": false,
      "t": 19882.55587500003,
      "d": 83.33324999999968,
      "v": 127
    },
    {
      "midi": 62,
      "hit": false,
      "t": 19882.55587500003,
      "d": 83.33324999999968,
      "v": 127
    },
    {
      "midi": 42,
      "hit": false,
      "t": 20003.76787500003,
      "d": 386.36325000000215,
      "v": 127
    },
    {
      "midi": 42,
      "hit": false,
      "t": 20007.555750000007,
      "d": 386.36325000000215,
      "v": 127
    },
    {
      "midi": 62,
      "hit": false,
      "t": 20246.19187500003,
      "d": 68.18174999999974,
      "v": 127
    },
    {
      "midi": 65,
      "hit": false,
      "t": 20246.19187500003,
      "d": 71.96962500000154,
      "v": 127
    },
    {
      "midi": 57,
      "hit": false,
      "t": 20246.19187500003,
      "d": 87.12112500000148,
      "v": 127
    },
    {
      "midi": 43,
      "hit": false,
      "t": 20367.403875000033,
      "d": 359.8481250000041,
      "v": 127
    },
    {
      "midi": 43,
      "hit": false,
      "t": 20371.19175000001,
      "d": 340.9087499999987,
      "v": 127
    },
    {
      "midi": 55,
      "hit": false,
      "t": 20606.040000000034,
      "d": 71.96962500000154,
      "v": 127
    },
    {
      "midi": 59,
      "hit": false,
      "t": 20609.827875000035,
      "d": 68.18174999999974,
      "v": 127
    },
    {
      "midi": 62,
      "hit": false,
      "t": 20609.827875000035,
      "d": 87.12112500000148,
      "v": 127
    },
    {
      "midi": 45,
      "hit": false,
      "t": 20731.03987500004,
      "d": 356.06024999999863,
      "v": 127
    },
    {
      "midi": 45,
      "hit": false,
      "t": 20734.827750000008,
      "d": 371.2117500000022,
      "v": 118
    },
    {
      "midi": 55,
      "hit": false,
      "t": 20973.463875000038,
      "d": 68.18174999999974,
      "v": 127
    },
    {
      "midi": 59,
      "hit": false,
      "t": 20973.463875000038,
      "d": 68.18174999999974,
      "v": 127
    },
    {
      "midi": 62,
      "hit": false,
      "t": 20973.463875000038,
      "d": 68.18174999999974,
      "v": 127
    },
    {
      "midi": 46,
      "hit": false,
      "t": 21094.675875000008,
      "d": 295.4542500000025,
      "v": 119
    },
    {
      "midi": 46,
      "hit": false,
      "t": 21094.675875000037,
      "d": 340.9087500000023,
      "v": 127
    },
    {
      "midi": 59,
      "hit": false,
      "t": 21337.099875000036,
      "d": 68.18174999999974,
      "v": 127
    },
    {
      "midi": 62,
      "hit": false,
      "t": 21337.099875000036,
      "d": 68.18174999999974,
      "v": 127
    },
    {
      "midi": 55,
      "hit": false,
      "t": 21337.099875000036,
      "d": 87.12112500000148,
      "v": 127
    },
    {
      "midi": 47,
      "hit": false,
      "t": 21458.31187500001,
      "d": 299.24212500000067,
      "v": 110
    },
    {
      "midi": 47,
      "hit": false,
      "t": 21458.31187500004,
      "d": 409.09050000000207,
      "v": 127
    },
    {
      "midi": 55,
      "hit": false,
      "t": 21700.73587500004,
      "d": 68.18174999999974,
      "v": 127
    },
    {
      "midi": 62,
      "hit": false,
      "t": 21700.73587500004,
      "d": 68.18174999999974,
      "v": 127
    },
    {
      "midi": 59,
      "hit": false,
      "t": 21700.73587500004,
      "d": 71.96962500000154,
      "v": 127
    },
    {
      "midi": 48,
      "hit": false,
      "t": 21821.94787500004,
      "d": 352.2723750000041,
      "v": 127
    },
    {
      "midi": 48,
      "hit": false,
      "t": 21825.73575000001,
      "d": 340.9087499999987,
      "v": 115
    },
    {
      "midi": 60,
      "hit": false,
      "t": 22064.37187500004,
      "d": 68.18174999999974,
      "v": 127
    },
    {
      "midi": 64,
      "hit": false,
      "t": 22064.37187500004,
      "d": 71.96962500000154,
      "v": 127
    },
    {
      "midi": 55,
      "hit": false,
      "t": 22064.37187500004,
      "d": 90.90900000000329,
      "v": 127
    },
    {
      "midi": 45,
      "hit": false,
      "t": 22185.58387500001,
      "d": 337.1208750000005,
      "v": 120
    },
    {
      "midi": 45,
      "hit": false,
      "t": 22185.583875000048,
      "d": 367.4238750000077,
      "v": 127
    },
    {
      "midi": 55,
      "hit": false,
      "t": 22424.22000000005,
      "d": 71.96962500000154,
      "v": 127
    },
    {
      "midi": 60,
      "hit": false,
      "t": 22428.00787500005,
      "d": 68.18174999999974,
      "v": 127
    },
    {
      "midi": 64,
      "hit": false,
      "t": 22428.00787500005,
      "d": 71.96962500000154,
      "v": 127
    },
    {
      "midi": 43,
      "hit": false,
      "t": 22549.219875000013,
      "d": 712.1205000000009,
      "v": 121
    },
    {
      "midi": 43,
      "hit": false,
      "t": 22549.219875000053,
      "d": 337.1208750000078,
      "v": 127
    },
    {
      "midi": 55,
      "hit": false,
      "t": 22787.856000000054,
      "d": 68.18175000000338,
      "v": 127
    },
    {
      "midi": 60,
      "hit": false,
      "t": 22787.856000000054,
      "d": 87.12112500000512,
      "v": 127
    },
    {
      "midi": 64,
      "hit": false,
      "t": 22791.643875000056,
      "d": 64.39387500000157,
      "v": 127
    },
    {
      "midi": 40,
      "hit": false,
      "t": 22912.855875000012,
      "d": 11.363625000001775,
      "v": 127
    },
    {
      "midi": 40,
      "hit": false,
      "t": 22912.855875000063,
      "d": 359.8481250000041,
      "v": 127
    },
    {
      "midi": 60,
      "hit": false,
      "t": 23155.279875000062,
      "d": 71.96962500000154,
      "v": 127
    },
    {
      "midi": 55,
      "hit": false,
      "t": 23155.279875000062,
      "d": 75.75750000000335,
      "v": 127
    },
    {
      "midi": 64,
      "hit": false,
      "t": 23155.279875000062,
      "d": 87.12112500000512,
      "v": 127
    },
    {
      "midi": 36,
      "hit": false,
      "t": 23276.49187500007,
      "d": 386.3632500000058,
      "v": 127
    },
    {
      "midi": 36,
      "hit": false,
      "t": 23280.279750000016,
      "d": 352.27237500000047,
      "v": 124
    },
    {
      "midi": 60,
      "hit": false,
      "t": 23515.12800000007,
      "d": 68.18175000000338,
      "v": 127
    },
    {
      "midi": 55,
      "hit": false,
      "t": 23515.12800000007,
      "d": 83.33325000000332,
      "v": 127
    },
    {
      "midi": 64,
      "hit": false,
      "t": 23518.91587500007,
      "d": 98.48475000000326,
      "v": 127
    },
    {
      "midi": 40,
      "hit": false,
      "t": 23640.127875000017,
      "d": 333.3329999999987,
      "v": 125
    },
    {
      "midi": 40,
      "hit": false,
      "t": 23640.127875000075,
      "d": 386.3632500000058,
      "v": 127
    },
    {
      "midi": 60,
      "hit": false,
      "t": 23878.764000000076,
      "d": 71.96962500000518,
      "v": 127
    },
    {
      "midi": 55,
      "hit": false,
      "t": 23882.551875000077,
      "d": 64.39387500000157,
      "v": 127
    },
    {
      "midi": 64,
      "hit": false,
      "t": 23882.551875000077,
      "d": 83.33325000000332,
      "v": 127
    },
    {
      "midi": 43,
      "hit": false,
      "t": 24003.763875000015,
      "d": 348.48449999999866,
      "v": 121
    },
    {
      "midi": 43,
      "hit": false,
      "t": 24003.76387500008,
      "d": 348.4845000000023,
      "v": 127
    },
    {
      "midi": 60,
      "hit": false,
      "t": 24246.18787500008,
      "d": 71.96962500000154,
      "v": 127
    },
    {
      "midi": 64,
      "hit": false,
      "t": 24246.18787500008,
      "d": 71.96962500000154,
      "v": 127
    },
    {
      "midi": 55,
      "hit": false,
      "t": 24246.18787500008,
      "d": 75.75750000000335,
      "v": 127
    },
    {
      "midi": 45,
      "hit": false,
      "t": 24367.399875000083,
      "d": 253.78762500000084,
      "v": 127
    },
    {
      "midi": 45,
      "hit": false,
      "t": 24371.187750000016,
      "d": 231.06037500000093,
      "v": 111
    },
    {
      "midi": 60,
      "hit": false,
      "t": 24609.823875000082,
      "d": 79.54537500000151,
      "v": 127
    },
    {
      "midi": 64,
      "hit": false,
      "t": 24609.823875000082,
      "d": 83.33325000000332,
      "v": 127
    },
    {
      "midi": 43,
      "hit": false,
      "t": 24609.823875000082,
      "d": 109.84837500000503,
      "v": 127
    },
    {
      "midi": 43,
      "hit": false,
      "t": 24613.61175000002,
      "d": 87.12112500000148,
      "v": 121
    },
    {
      "midi": 55,
      "hit": false,
      "t": 24613.611750000084,
      "d": 75.75749999999971,
      "v": 127
    },
    {
      "midi": 36,
      "hit": false,
      "t": 24731.03587500002,
      "d": 374.9996250000004,
      "v": 121
    },
    {
      "midi": 36,
      "hit": false,
      "t": 24731.03587500009,
      "d": 348.48450000000594,
      "v": 127
    },
    {
      "midi": 60,
      "hit": false,
      "t": 24969.67200000009,
      "d": 71.96962500000518,
      "v": 127
    },
    {
      "midi": 55,
      "hit": false,
      "t": 24973.45987500009,
      "d": 64.39387500000157,
      "v": 127
    },
    {
      "midi": 64,
      "hit": false,
      "t": 24973.45987500009,
      "d": 68.18175000000338,
      "v": 127
    },
    {
      "midi": 40,
      "hit": false,
      "t": 25094.671875000095,
      "d": 378.7875000000022,
      "v": 127
    },
    {
      "midi": 40,
      "hit": false,
      "t": 25098.45975000002,
      "d": 329.54512500000055,
      "v": 125
    },
    {
      "midi": 60,
      "hit": false,
      "t": 25333.308000000095,
      "d": 71.96962500000154,
      "v": 127
    },
    {
      "midi": 55,
      "hit": false,
      "t": 25337.095875000097,
      "d": 68.18174999999974,
      "v": 127
    },
    {
      "midi": 64,
      "hit": false,
      "t": 25337.095875000097,
      "d": 90.90899999999965,
      "v": 127
    },
    {
      "midi": 43,
      "hit": false,
      "t": 25458.30787500002,
      "d": 344.6966250000005,
      "v": 119
    },
    {
      "midi": 43,
      "hit": false,
      "t": 25458.307875000097,
      "d": 359.8481250000041,
      "v": 127
    },
    {
      "midi": 60,
      "hit": false,
      "t": 25696.944000000098,
      "d": 68.18175000000338,
      "v": 127
    },
    {
      "midi": 64,
      "hit": false,
      "t": 25696.944000000098,
      "d": 75.75750000000335,
      "v": 127
    },
    {
      "midi": 55,
      "hit": false,
      "t": 25700.7318750001,
      "d": 64.39387500000157,
      "v": 127
    },
    {
      "midi": 45,
      "hit": false,
      "t": 25825.73175000002,
      "d": 234.8482499999991,
      "v": 108
    },
    {
      "midi": 45,
      "hit": false,
      "t": 25825.7317500001,
      "d": 242.4240000000027,
      "v": 127
    },
    {
      "midi": 60,
      "hit": false,
      "t": 26064.3678750001,
      "d": 94.6968750000051,
      "v": 127
    },
    {
      "midi": 43,
      "hit": false,
      "t": 26064.3678750001,
      "d": 124.99987500000861,
      "v": 127
    },
    {
      "midi": 43,
      "hit": false,
      "t": 26068.15575000002,
      "d": 68.18174999999974,
      "v": 121
    },
    {
      "midi": 55,
      "hit": false,
      "t": 26068.155750000104,
      "d": 71.96962500000154,
      "v": 127
    },
    {
      "midi": 64,
      "hit": false,
      "t": 26068.155750000104,
      "d": 71.96962500000154,
      "v": 127
    },
    {
      "midi": 36,
      "hit": false,
      "t": 26185.57987500002,
      "d": 333.3329999999987,
      "v": 127
    },
    {
      "midi": 36,
      "hit": false,
      "t": 26185.57987500011,
      "d": 371.2117500000095,
      "v": 127
    },
    {
      "midi": 55,
      "hit": false,
      "t": 26424.21600000011,
      "d": 68.18175000000338,
      "v": 127
    },
    {
      "midi": 60,
      "hit": false,
      "t": 26428.00387500011,
      "d": 68.18175000000338,
      "v": 127
    },
    {
      "midi": 64,
      "hit": false,
      "t": 26428.00387500011,
      "d": 87.12112500000512,
      "v": 127
    },
    {
      "midi": 40,
      "hit": false,
      "t": 26549.215875000118,
      "d": 401.5147500000021,
      "v": 127
    },
    {
      "midi": 40,
      "hit": false,
      "t": 26553.00375000002,
      "d": 318.1814999999988,
      "v": 127
    },
    {
      "midi": 55,
      "hit": false,
      "t": 26791.639875000117,
      "d": 53.030249999999796,
      "v": 127
    },
    {
      "midi": 60,
      "hit": false,
      "t": 26791.639875000117,
      "d": 83.33324999999968,
      "v": 127
    },
    {
      "midi": 64,
      "hit": false,
      "t": 26791.639875000117,
      "d": 87.12112500000148,
      "v": 127
    },
    {
      "midi": 43,
      "hit": false,
      "t": 26912.851875000022,
      "d": 333.3329999999987,
      "v": 127
    },
    {
      "midi": 43,
      "hit": false,
      "t": 26912.85187500012,
      "d": 348.48450000000594,
      "v": 127
    },
    {
      "midi": 55,
      "hit": false,
      "t": 27151.48800000012,
      "d": 71.96962500000154,
      "v": 127
    },
    {
      "midi": 60,
      "hit": false,
      "t": 27155.275875000123,
      "d": 68.18174999999974,
      "v": 127
    },
    {
      "midi": 64,
      "hit": false,
      "t": 27155.275875000123,
      "d": 87.12112500000148,
      "v": 127
    },
    {
      "midi": 45,
      "hit": false,
      "t": 27276.487875000126,
      "d": 246.21187500000087,
      "v": 127
    },
    {
      "midi": 45,
      "hit": false,
      "t": 27280.275750000023,
      "d": 246.21187500000087,
      "v": 118
    },
    {
      "midi": 60,
      "hit": false,
      "t": 27518.911875000125,
      "d": 79.54537500000151,
      "v": 127
    },
    {
      "midi": 64,
      "hit": false,
      "t": 27518.911875000125,
      "d": 79.54537500000151,
      "v": 127
    },
    {
      "midi": 55,
      "hit": false,
      "t": 27518.911875000125,
      "d": 83.33325000000332,
      "v": 127
    },
    {
      "midi": 43,
      "hit": false,
      "t": 27518.911875000125,
      "d": 90.90900000000329,
      "v": 127
    },
    {
      "midi": 43,
      "hit": false,
      "t": 27522.69975000002,
      "d": 71.96962500000154,
      "v": 119
    },
    {
      "midi": 36,
      "hit": false,
      "t": 27640.12387500013,
      "d": 371.21175000000585,
      "v": 127
    },
    {
      "midi": 36,
      "hit": false,
      "t": 27643.911750000025,
      "d": 367.4238750000004,
      "v": 127
    },
    {
      "midi": 60,
      "hit": false,
      "t": 27878.76000000013,
      "d": 87.12112500000512,
      "v": 127
    },
    {
      "midi": 64,
      "hit": false,
      "t": 27878.76000000013,
      "d": 87.12112500000512,
      "v": 127
    },
    {
      "midi": 55,
      "hit": false,
      "t": 27882.54787500013,
      "d": 64.39387500000157,
      "v": 127
    },
    {
      "midi": 40,
      "hit": false,
      "t": 28003.759875000134,
      "d": 397.7268750000003,
      "v": 127
    },
    {
      "midi": 40,
      "hit": false,
      "t": 28007.547750000023,
      "d": 299.24212500000067,
      "v": 125
    },
    {
      "midi": 55,
      "hit": false,
      "t": 28246.183875000133,
      "d": 68.18174999999974,
      "v": 127
    },
    {
      "midi": 60,
      "hit": false,
      "t": 28246.183875000133,
      "d": 68.18174999999974,
      "v": 127
    },
    {
      "midi": 64,
      "hit": false,
      "t": 28246.183875000133,
      "d": 68.18174999999974,
      "v": 127
    },
    {
      "midi": 43,
      "hit": false,
      "t": 28367.395875000133,
      "d": 371.21175000000585,
      "v": 127
    },
    {
      "midi": 43,
      "hit": false,
      "t": 28371.183750000026,
      "d": 340.9087499999987,
      "v": 124
    },
    {
      "midi": 55,
      "hit": false,
      "t": 28606.032000000134,
      "d": 71.96962500000154,
      "v": 127
    },
    {
      "midi": 60,
      "hit": false,
      "t": 28606.032000000134,
      "d": 71.96962500000154,
      "v": 127
    },
    {
      "midi": 64,
      "hit": false,
      "t": 28609.819875000136,
      "d": 71.96962500000154,
      "v": 127
    },
    {
      "midi": 45,
      "hit": false,
      "t": 28731.03187500014,
      "d": 227.27249999999913,
      "v": 127
    },
    {
      "midi": 45,
      "hit": false,
      "t": 28734.819750000024,
      "d": 257.57550000000265,
      "v": 115
    },
    {
      "midi": 43,
      "hit": false,
      "t": 28973.455875000025,
      "d": 102.27262500000143,
      "v": 117
    },
    {
      "midi": 60,
      "hit": false,
      "t": 28973.455875000138,
      "d": 79.54537500000151,
      "v": 127
    },
    {
      "midi": 64,
      "hit": false,
      "t": 28973.455875000138,
      "d": 79.54537500000151,
      "v": 127
    },
    {
      "midi": 55,
      "hit": false,
      "t": 28973.455875000138,
      "d": 83.33325000000332,
      "v": 127
    },
    {
      "midi": 43,
      "hit": false,
      "t": 28973.455875000138,
      "d": 136.3635000000031,
      "v": 127
    },
    {
      "midi": 36,
      "hit": false,
      "t": 29094.66787500014,
      "d": 280.30275000000256,
      "v": 127
    },
    {
      "midi": 36,
      "hit": false,
      "t": 29098.455750000026,
      "d": 367.4238750000004,
      "v": 117
    },
    {
      "midi": 60,
      "hit": false,
      "t": 29333.304000000142,
      "d": 64.39387500000157,
      "v": 127
    },
    {
      "midi": 64,
      "hit": false,
      "t": 29333.304000000142,
      "d": 90.90900000000329,
      "v": 127
    },
    {
      "midi": 55,
      "hit": false,
      "t": 29337.091875000144,
      "d": 60.60599999999977,
      "v": 127
    },
    {
      "midi": 36,
      "hit": false,
      "t": 29458.303875000147,
      "d": 371.2117500000022,
      "v": 127
    },
    {
      "midi": 40,
      "hit": false,
      "t": 29462.091750000025,
      "d": 299.24212500000067,
      "v": 127
    },
    {
      "midi": 64,
      "hit": false,
      "t": 29696.940000000148,
      "d": 71.96962500000154,
      "v": 127
    },
    {
      "midi": 55,
      "hit": false,
      "t": 29700.72787500015,
      "d": 68.18174999999974,
      "v": 127
    },
    {
      "midi": 60,
      "hit": false,
      "t": 29700.72787500015,
      "d": 68.18174999999974,
      "v": 127
    },
    {
      "midi": 43,
      "hit": false,
      "t": 29821.939875000025,
      "d": 348.48449999999866,
      "v": 121
    },
    {
      "midi": 38,
      "hit": false,
      "t": 29821.93987500015,
      "d": 333.3329999999987,
      "v": 127
    },
    {
      "midi": 55,
      "hit": false,
      "t": 30064.36387500015,
      "d": 68.18174999999974,
      "v": 127
    },
    {
      "midi": 60,
      "hit": false,
      "t": 30064.36387500015,
      "d": 68.18174999999974,
      "v": 127
    },
    {
      "midi": 64,
      "hit": false,
      "t": 30064.36387500015,
      "d": 68.18174999999974,
      "v": 127
    },
    {
      "midi": 40,
      "hit": false,
      "t": 30185.575875000148,
      "d": 318.18150000000605,
      "v": 127
    },
    {
      "midi": 45,
      "hit": false,
      "t": 30189.363750000026,
      "d": 242.4240000000027,
      "v": 111
    },
    {
      "midi": 55,
      "hit": false,
      "t": 30424.21200000015,
      "d": 75.75750000000335,
      "v": 127
    },
    {
      "midi": 43,
      "hit": false,
      "t": 30427.999875000027,
      "d": 75.75750000000335,
      "v": 112
    },
    {
      "midi": 60,
      "hit": false,
      "t": 30427.99987500015,
      "d": 75.75750000000335,
      "v": 127
    },
    {
      "midi": 64,
      "hit": false,
      "t": 30427.99987500015,
      "d": 75.75750000000335,
      "v": 127
    },
    {
      "midi": 41,
      "hit": false,
      "t": 30549.21187500003,
      "d": 356.06024999999863,
      "v": 127
    },
    {
      "midi": 41,
      "hit": false,
      "t": 30549.211875000154,
      "d": 412.87837500001115,
      "v": 127
    },
    {
      "midi": 57,
      "hit": false,
      "t": 30787.848000000155,
      "d": 68.18175000000338,
      "v": 127
    },
    {
      "midi": 60,
      "hit": false,
      "t": 30787.848000000155,
      "d": 90.90900000000693,
      "v": 127
    },
    {
      "midi": 65,
      "hit": false,
      "t": 30791.635875000156,
      "d": 83.33325000000332,
      "v": 127
    },
    {
      "midi": 45,
      "hit": false,
      "t": 30912.847875000163,
      "d": 374.99962500000765,
      "v": 127
    },
    {
      "midi": 45,
      "hit": false,
      "t": 30916.63575000003,
      "d": 337.1208750000005,
      "v": 120
    },
    {
      "midi": 60,
      "hit": false,
      "t": 31151.484000000164,
      "d": 87.12112500000148,
      "v": 127
    },
    {
      "midi": 57,
      "hit": false,
      "t": 31155.271875000166,
      "d": 83.33324999999968,
      "v": 127
    },
    {
      "midi": 65,
      "hit": false,
      "t": 31155.271875000166,
      "d": 102.27262500000143,
      "v": 127
    },
    {
      "midi": 48,
      "hit": false,
      "t": 31276.48387500003,
      "d": 359.84812500000044,
      "v": 127
    },
    {
      "midi": 48,
      "hit": false,
      "t": 31276.48387500017,
      "d": 371.21175000000585,
      "v": 127
    },
    {
      "midi": 60,
      "hit": false,
      "t": 31515.12000000017,
      "d": 71.96962500000154,
      "v": 127
    },
    {
      "midi": 65,
      "hit": false,
      "t": 31515.12000000017,
      "d": 90.90900000000329,
      "v": 127
    },
    {
      "midi": 57,
      "hit": false,
      "t": 31518.90787500017,
      "d": 68.18174999999974,
      "v": 127
    },
    {
      "midi": 50,
      "hit": false,
      "t": 31640.119875000033,
      "d": 272.7270000000026,
      "v": 118
    },
    {
      "midi": 50,
      "hit": false,
      "t": 31640.119875000175,
      "d": 265.151249999999,
      "v": 127
    },
    {
      "midi": 57,
      "hit": false,
      "t": 31882.543875000174,
      "d": 79.54537500000151,
      "v": 127
    },
    {
      "midi": 60,
      "hit": false,
      "t": 31882.543875000174,
      "d": 79.54537500000151,
      "v": 127
    },
    {
      "midi": 48,
      "hit": false,
      "t": 31882.543875000174,
      "d": 90.90900000000329,
      "v": 127
    },
    {
      "midi": 65,
      "hit": false,
      "t": 31882.543875000174,
      "d": 98.48475000000326,
      "v": 127
    },
    {
      "midi": 48,
      "hit": false,
      "t": 31886.331750000034,
      "d": 83.33325000000332,
      "v": 127
    },
    {
      "midi": 41,
      "hit": false,
      "t": 32003.755875000177,
      "d": 344.69662500000413,
      "v": 127
    },
    {
      "midi": 41,
      "hit": false,
      "t": 32007.543750000037,
      "d": 397.7268750000003,
      "v": 109
    },
    {
      "midi": 65,
      "hit": false,
      "t": 32242.392000000178,
      "d": 75.75750000000335,
      "v": 127
    },
    {
      "midi": 60,
      "hit": false,
      "t": 32246.17987500018,
      "d": 68.18174999999974,
      "v": 127
    },
    {
      "midi": 57,
      "hit": false,
      "t": 32246.17987500018,
      "d": 71.96962500000154,
      "v": 127
    },
    {
      "midi": 45,
      "hit": false,
      "t": 32367.391875000038,
      "d": 359.84812500000044,
      "v": 118
    },
    {
      "midi": 45,
      "hit": false,
      "t": 32367.391875000183,
      "d": 397.72687500000757,
      "v": 127
    },
    {
      "midi": 60,
      "hit": false,
      "t": 32606.028000000184,
      "d": 90.90900000000329,
      "v": 127
    },
    {
      "midi": 57,
      "hit": false,
      "t": 32609.815875000186,
      "d": 64.39387500000157,
      "v": 127
    },
    {
      "midi": 65,
      "hit": false,
      "t": 32609.815875000186,
      "d": 64.39387500000157,
      "v": 127
    },
    {
      "midi": 48,
      "hit": false,
      "t": 32731.02787500019,
      "d": 689.3932500000228,
      "v": 127
    },
    {
      "midi": 48,
      "hit": false,
      "t": 32734.815750000038,
      "d": 363.6359999999986,
      "v": 127
    },
    {
      "midi": 60,
      "hit": false,
      "t": 32969.66400000019,
      "d": 87.12112500000512,
      "v": 127
    },
    {
      "midi": 57,
      "hit": false,
      "t": 32973.451875000195,
      "d": 53.030250000003434,
      "v": 127
    },
    {
      "midi": 65,
      "hit": false,
      "t": 32973.451875000195,
      "d": 102.27262500000506,
      "v": 127
    },
    {
      "midi": 45,
      "hit": false,
      "t": 33094.6638750002,
      "d": 7.575750000003609,
      "v": 127
    },
    {
      "midi": 50,
      "hit": false,
      "t": 33098.45175000004,
      "d": 246.21187500000087,
      "v": 115
    },
    {
      "midi": 65,
      "hit": false,
      "t": 33333.30000000021,
      "d": 87.12112500000512,
      "v": 127
    },
    {
      "midi": 48,
      "hit": false,
      "t": 33337.087875000034,
      "d": 71.96962500000518,
      "v": 119
    },
    {
      "midi": 57,
      "hit": false,
      "t": 33337.08787500021,
      "d": 79.54537500000151,
      "v": 127
    },
    {
      "midi": 60,
      "hit": false,
      "t": 33337.08787500021,
      "d": 79.54537500000151,
      "v": 127
    },
    {
      "midi": 36,
      "hit": false,
      "t": 33458.299875000215,
      "d": 378.7875000000058,
      "v": 127
    },
    {
      "midi": 36,
      "hit": false,
      "t": 33462.08775000004,
      "d": 382.57537500000035,
      "v": 121
    },
    {
      "midi": 64,
      "hit": false,
      "t": 33696.93600000021,
      "d": 90.90900000000693,
      "v": 127
    },
    {
      "midi": 55,
      "hit": false,
      "t": 33700.723875000214,
      "d": 83.33325000000332,
      "v": 127
    },
    {
      "midi": 60,
      "hit": false,
      "t": 33700.723875000214,
      "d": 87.12112500000512,
      "v": 127
    },
    {
      "midi": 40,
      "hit": false,
      "t": 33821.93587500022,
      "d": 397.7268750000003,
      "v": 127
    },
    {
      "midi": 40,
      "hit": false,
      "t": 33825.72375000004,
      "d": 371.2117500000022,
      "v": 127
    },
    {
      "midi": 60,
      "hit": false,
      "t": 34060.57200000022,
      "d": 75.75749999999971,
      "v": 127
    },
    {
      "midi": 55,
      "hit": false,
      "t": 34064.35987500022,
      "d": 71.9696249999979,
      "v": 127
    },
    {
      "midi": 64,
      "hit": false,
      "t": 34064.35987500022,
      "d": 71.9696249999979,
      "v": 127
    },
    {
      "midi": 43,
      "hit": false,
      "t": 34185.571875000045,
      "d": 344.69662499999686,
      "v": 124
    },
    {
      "midi": 43,
      "hit": false,
      "t": 34185.57187500022,
      "d": 356.06025000000955,
      "v": 127
    },
    {
      "midi": 64,
      "hit": false,
      "t": 34424.208000000224,
      "d": 83.33325000000332,
      "v": 127
    },
    {
      "midi": 55,
      "hit": false,
      "t": 34427.995875000226,
      "d": 60.60599999999977,
      "v": 127
    },
    {
      "midi": 60,
      "hit": false,
      "t": 34427.995875000226,
      "d": 60.60599999999977,
      "v": 127
    },
    {
      "midi": 45,
      "hit": false,
      "t": 34549.207875000044,
      "d": 253.78762500000448,
      "v": 107
    },
    {
      "midi": 45,
      "hit": false,
      "t": 34549.20787500023,
      "d": 234.84825000000274,
      "v": 127
    },
    {
      "midi": 60,
      "hit": false,
      "t": 34791.63187500024,
      "d": 79.54537500000151,
      "v": 127
    },
    {
      "midi": 64,
      "hit": false,
      "t": 34791.63187500024,
      "d": 79.54537500000151,
      "v": 127
    },
    {
      "midi": 55,
      "hit": false,
      "t": 34791.63187500024,
      "d": 83.33325000000332,
      "v": 127
    },
    {
      "midi": 43,
      "hit": false,
      "t": 34791.63187500024,
      "d": 155.3028750000085,
      "v": 127
    },
    {
      "midi": 43,
      "hit": false,
      "t": 34795.419750000045,
      "d": 79.54537500000151,
      "v": 121
    },
    {
      "midi": 36,
      "hit": false,
      "t": 34912.843875000246,
      "d": 390.15112500001123,
      "v": 127
    },
    {
      "midi": 36,
      "hit": false,
      "t": 34916.631750000044,
      "d": 371.2117500000022,
      "v": 124
    },
    {
      "midi": 55,
      "hit": false,
      "t": 35155.267875000245,
      "d": 68.18175000000338,
      "v": 127
    },
    {
      "midi": 60,
      "hit": false,
      "t": 35155.267875000245,
      "d": 68.18175000000338,
      "v": 127
    },
    {
      "midi": 64,
      "hit": false,
      "t": 35155.267875000245,
      "d": 71.96962500000518,
      "v": 127
    },
    {
      "midi": 40,
      "hit": false,
      "t": 35280.26775000004,
      "d": 352.27237500000047,
      "v": 127
    },
    {
      "midi": 48,
      "hit": false,
      "t": 35280.267750000254,
      "d": 337.1208750000078,
      "v": 127
    },
    {
      "midi": 60,
      "hit": false,
      "t": 35518.90387500026,
      "d": 56.81812499999796,
      "v": 127
    },
    {
      "midi": 55,
      "hit": false,
      "t": 35518.90387500026,
      "d": 60.60599999999977,
      "v": 127
    },
    {
      "midi": 64,
      "hit": false,
      "t": 35518.90387500026,
      "d": 83.33325000000332,
      "v": 127
    },
    {
      "midi": 43,
      "hit": false,
      "t": 35640.11587500005,
      "d": 352.27237500000047,
      "v": 119
    },
    {
      "midi": 45,
      "hit": false,
      "t": 35640.115875000265,
      "d": 386.36325000000943,
      "v": 127
    },
    {
      "midi": 60,
      "hit": false,
      "t": 35882.539875000264,
      "d": 68.18175000000338,
      "v": 127
    },
    {
      "midi": 55,
      "hit": false,
      "t": 35882.539875000264,
      "d": 83.33325000000332,
      "v": 127
    },
    {
      "midi": 64,
      "hit": false,
      "t": 35882.539875000264,
      "d": 87.12112500000512,
      "v": 127
    },
    {
      "midi": 43,
      "hit": false,
      "t": 36003.75187500027,
      "d": 333.333000000006,
      "v": 127
    },
    {
      "midi": 45,
      "hit": false,
      "t": 36007.53975000005,
      "d": 242.42399999999907,
      "v": 107
    },
    {
      "midi": 64,
      "hit": false,
      "t": 36242.388000000275,
      "d": 90.90899999999965,
      "v": 127
    },
    {
      "midi": 43,
      "hit": false,
      "t": 36246.175875000044,
      "d": 75.75749999999971,
      "v": 119
    },
    {
      "midi": 60,
      "hit": false,
      "t": 36246.17587500028,
      "d": 71.9696249999979,
      "v": 127
    },
    {
      "midi": 55,
      "hit": false,
      "t": 36246.17587500028,
      "d": 102.27262499999779,
      "v": 127
    },
    {
      "midi": 38,
      "hit": false,
      "t": 36367.38787500028,
      "d": 378.7875000000058,
      "v": 127
    },
    {
      "midi": 38,
      "hit": false,
      "t": 36371.175750000046,
      "d": 352.27237500000047,
      "v": 123
    },
    {
      "midi": 62,
      "hit": false,
      "t": 36606.024000000274,
      "d": 106.06050000000687,
      "v": 127
    },
    {
      "midi": 53,
      "hit": false,
      "t": 36609.811875000276,
      "d": 68.18175000000338,
      "v": 127
    },
    {
      "midi": 57,
      "hit": false,
      "t": 36609.811875000276,
      "d": 68.18175000000338,
      "v": 127
    },
    {
      "midi": 40,
      "hit": false,
      "t": 36731.02387500005,
      "d": 378.78749999999854,
      "v": 127
    },
    {
      "midi": 40,
      "hit": false,
      "t": 36731.02387500028,
      "d": 378.78749999999854,
      "v": 127
    },
    {
      "midi": 57,
      "hit": false,
      "t": 36973.44787500028,
      "d": 87.12112499999785,
      "v": 127
    },
    {
      "midi": 62,
      "hit": false,
      "t": 36973.44787500028,
      "d": 98.48474999999598,
      "v": 127
    },
    {
      "midi": 53,
      "hit": false,
      "t": 36973.44787500028,
      "d": 102.27262499999779,
      "v": 127
    },
    {
      "midi": 41,
      "hit": false,
      "t": 37094.65987500028,
      "d": 371.2117500000095,
      "v": 127
    },
    {
      "midi": 41,
      "hit": false,
      "t": 37098.44775000005,
      "d": 344.69662499999686,
      "v": 127
    },
    {
      "midi": 53,
      "hit": false,
      "t": 37333.29600000028,
      "d": 102.27262500000506,
      "v": 127
    },
    {
      "midi": 57,
      "hit": false,
      "t": 37337.08387500028,
      "d": 98.48475000000326,
      "v": 127
    },
    {
      "midi": 62,
      "hit": false,
      "t": 37337.08387500028,
      "d": 117.424125000005,
      "v": 127
    },
    {
      "midi": 42,
      "hit": false,
      "t": 37458.29587500029,
      "d": 378.7875000000131,
      "v": 127
    },
    {
      "midi": 42,
      "hit": false,
      "t": 37462.08375000005,
      "d": 382.57537500000035,
      "v": 127
    },
    {
      "midi": 53,
      "hit": false,
      "t": 37696.93200000029,
      "d": 90.90900000000693,
      "v": 127
    },
    {
      "midi": 57,
      "hit": false,
      "t": 37700.71987500029,
      "d": 68.18175000000338,
      "v": 127
    },
    {
      "midi": 62,
      "hit": false,
      "t": 37700.71987500029,
      "d": 87.12112500000512,
      "v": 127
    },
    {
      "midi": 43,
      "hit": false,
      "t": 37821.9318750003,
      "d": 405.3026249999966,
      "v": 127
    },
    {
      "midi": 43,
      "hit": false,
      "t": 37825.71975000005,
      "d": 405.3026250000039,
      "v": 127
    },
    {
      "midi": 55,
      "hit": false,
      "t": 38064.3558750003,
      "d": 71.9696249999979,
      "v": 127
    },
    {
      "midi": 59,
      "hit": false,
      "t": 38064.3558750003,
      "d": 71.9696249999979,
      "v": 127
    },
    {
      "midi": 62,
      "hit": false,
      "t": 38064.3558750003,
      "d": 83.33324999999604,
      "v": 127
    },
    {
      "midi": 45,
      "hit": false,
      "t": 38185.56787500005,
      "d": 393.9389999999985,
      "v": 118
    },
    {
      "midi": 45,
      "hit": false,
      "t": 38185.5678750003,
      "d": 390.15112500000396,
      "v": 127
    },
    {
      "midi": 59,
      "hit": false,
      "t": 38427.9918750003,
      "d": 68.18175000000338,
      "v": 127
    },
    {
      "midi": 55,
      "hit": false,
      "t": 38427.9918750003,
      "d": 71.96962500000518,
      "v": 127
    },
    {
      "midi": 62,
      "hit": false,
      "t": 38427.9918750003,
      "d": 71.96962500000518,
      "v": 127
    },
    {
      "midi": 46,
      "hit": false,
      "t": 38549.20387500005,
      "d": 344.69662499999686,
      "v": 127
    },
    {
      "midi": 46,
      "hit": false,
      "t": 38549.203875000305,
      "d": 303.02999999999884,
      "v": 127
    },
    {
      "midi": 59,
      "hit": false,
      "t": 38787.8400000003,
      "d": 71.96962500000518,
      "v": 127
    },
    {
      "midi": 55,
      "hit": false,
      "t": 38787.8400000003,
      "d": 75.75750000000698,
      "v": 127
    },
    {
      "midi": 62,
      "hit": false,
      "t": 38791.627875000304,
      "d": 68.18175000000338,
      "v": 127
    },
    {
      "midi": 47,
      "hit": false,
      "t": 38912.83987500005,
      "d": 378.78749999999854,
      "v": 127
    },
    {
      "midi": 47,
      "hit": false,
      "t": 38912.83987500031,
      "d": 374.999625000004,
      "v": 127
    },
    {
      "midi": 55,
      "hit": false,
      "t": 39155.26387500031,
      "d": 68.18175000000338,
      "v": 127
    },
    {
      "midi": 59,
      "hit": false,
      "t": 39155.26387500031,
      "d": 71.96962500000518,
      "v": 127
    },
    {
      "midi": 62,
      "hit": false,
      "t": 39155.26387500031,
      "d": 87.12112500000512,
      "v": 127
    },
    {
      "midi": 48,
      "hit": false,
      "t": 39276.47587500005,
      "d": 344.69662499999686,
      "v": 127
    },
    {
      "midi": 48,
      "hit": false,
      "t": 39276.47587500032,
      "d": 700.7568750000137,
      "v": 127
    },
    {
      "midi": 60,
      "hit": false,
      "t": 39515.112000000314,
      "d": 87.12112500000512,
      "v": 127
    },
    {
      "midi": 64,
      "hit": false,
      "t": 39515.112000000314,
      "d": 87.12112500000512,
      "v": 127
    },
    {
      "midi": 55,
      "hit": false,
      "t": 39518.899875000316,
      "d": 53.030250000003434,
      "v": 127
    },
    {
      "midi": 45,
      "hit": false,
      "t": 39640.111875000046,
      "d": 344.69662499999686,
      "v": 120
    },
    {
      "midi": 45,
      "hit": false,
      "t": 39640.11187500032,
      "d": 26.51512499999808,
      "v": 127
    },
    {
      "midi": 60,
      "hit": false,
      "t": 39882.53587500032,
      "d": 68.18175000000338,
      "v": 127
    },
    {
      "midi": 64,
      "hit": false,
      "t": 39882.53587500032,
      "d": 68.18175000000338,
      "v": 127
    },
    {
      "midi": 55,
      "hit": false,
      "t": 39882.53587500032,
      "d": 71.96962500000518,
      "v": 127
    },
    {
      "midi": 43,
      "hit": false,
      "t": 40003.747875000045,
      "d": 356.06025000000227,
      "v": 127
    },
    {
      "midi": 43,
      "hit": false,
      "t": 40003.74787500033,
      "d": 348.48450000000594,
      "v": 127
    },
    {
      "midi": 55,
      "hit": false,
      "t": 40242.384000000326,
      "d": 87.12112500000512,
      "v": 127
    },
    {
      "midi": 64,
      "hit": false,
      "t": 40242.384000000326,
      "d": 87.12112500000512,
      "v": 127
    },
    {
      "midi": 60,
      "hit": false,
      "t": 40246.17187500033,
      "d": 37.87875000000349,
      "v": 127
    },
    {
      "midi": 40,
      "hit": false,
      "t": 40367.38387500005,
      "d": 337.1208750000005,
      "v": 127
    },
    {
      "midi": 40,
      "hit": false,
      "t": 40367.383875000334,
      "d": 390.15112500000396,
      "v": 127
    },
    {
      "midi": 64,
      "hit": false,
      "t": 40606.02000000033,
      "d": 71.96962500000518,
      "v": 127
    },
    {
      "midi": 55,
      "hit": false,
      "t": 40609.80787500033,
      "d": 68.18175000000338,
      "v": 127
    },
    {
      "midi": 60,
      "hit": false,
      "t": 40609.80787500033,
      "d": 68.18175000000338,
      "v": 127
    },
    {
      "midi": 36,
      "hit": false,
      "t": 40731.01987500005,
      "d": 367.4238750000004,
      "v": 127
    },
    {
      "midi": 36,
      "hit": false,
      "t": 40731.01987500034,
      "d": 424.24200000000565,
      "v": 127
    },
    {
      "midi": 64,
      "hit": false,
      "t": 40969.65600000034,
      "d": 75.75750000000698,
      "v": 127
    },
    {
      "midi": 55,
      "hit": false,
      "t": 40973.44387500034,
      "d": 68.18175000000338,
      "v": 127
    },
    {
      "midi": 60,
      "hit": false,
      "t": 40973.44387500034,
      "d": 68.18175000000338,
      "v": 127
    },
    {
      "midi": 46,
      "hit": false,
      "t": 41094.655875000346,
      "d": 333.333000000006,
      "v": 127
    },
    {
      "midi": 46,
      "hit": false,
      "t": 41098.44375000005,
      "d": 363.6359999999986,
      "v": 127
    },
    {
      "midi": 64,
      "hit": false,
      "t": 41333.29200000034,
      "d": 90.90900000000693,
      "v": 127
    },
    {
      "midi": 60,
      "hit": false,
      "t": 41337.079875000345,
      "d": 53.030250000003434,
      "v": 127
    },
    {
      "midi": 55,
      "hit": false,
      "t": 41337.079875000345,
      "d": 83.33325000000332,
      "v": 127
    },
    {
      "midi": 45,
      "hit": false,
      "t": 41458.291875000046,
      "d": 337.1208750000005,
      "v": 113
    },
    {
      "midi": 45,
      "hit": false,
      "t": 41458.29187500035,
      "d": 367.4238750000004,
      "v": 127
    },
    {
      "midi": 60,
      "hit": false,
      "t": 41700.71587500035,
      "d": 30.302999999999884,
      "v": 127
    },
    {
      "midi": 55,
      "hit": false,
      "t": 41700.71587500035,
      "d": 87.12112499999785,
      "v": 127
    },
    {
      "midi": 64,
      "hit": false,
      "t": 41700.71587500035,
      "d": 90.90899999999965,
      "v": 127
    },
    {
      "midi": 43,
      "hit": false,
      "t": 41821.927875000045,
      "d": 314.393624999997,
      "v": 124
    },
    {
      "midi": 43,
      "hit": false,
      "t": 41821.92787500035,
      "d": 333.3329999999987,
      "v": 127
    },
    {
      "midi": 55,
      "hit": false,
      "t": 42064.35187500035,
      "d": 60.60599999999977,
      "v": 127
    },
    {
      "midi": 60,
      "hit": false,
      "t": 42064.35187500035,
      "d": 60.60599999999977,
      "v": 127
    },
    {
      "midi": 64,
      "hit": false,
      "t": 42064.35187500035,
      "d": 87.12112499999785,
      "v": 127
    },
    {
      "midi": 41,
      "hit": false,
      "t": 42185.56387500035,
      "d": 352.27237500000774,
      "v": 127
    },
    {
      "midi": 41,
      "hit": false,
      "t": 42189.351750000045,
      "d": 390.1511249999967,
      "v": 124
    },
    {
      "midi": 57,
      "hit": false,
      "t": 42424.200000000346,
      "d": 87.12112500000512,
      "v": 127
    },
    {
      "midi": 65,
      "hit": false,
      "t": 42424.200000000346,
      "d": 90.90900000000693,
      "v": 127
    },
    {
      "midi": 60,
      "hit": false,
      "t": 42427.98787500035,
      "d": 68.18175000000338,
      "v": 127
    },
    {
      "midi": 45,
      "hit": false,
      "t": 42549.199875000355,
      "d": 359.8481250000041,
      "v": 127
    },
    {
      "midi": 45,
      "hit": false,
      "t": 42552.987750000044,
      "d": 386.36325000000215,
      "v": 113
    },
    {
      "midi": 57,
      "hit": false,
      "t": 42791.623875000354,
      "d": 64.39387500000157,
      "v": 127
    },
    {
      "midi": 60,
      "hit": false,
      "t": 42791.623875000354,
      "d": 68.18175000000338,
      "v": 127
    },
    {
      "midi": 65,
      "hit": false,
      "t": 42791.623875000354,
      "d": 87.12112500000512,
      "v": 127
    },
    {
      "midi": 48,
      "hit": false,
      "t": 42912.83587500036,
      "d": 333.333000000006,
      "v": 127
    },
    {
      "midi": 48,
      "hit": false,
      "t": 42916.62375000004,
      "d": 344.69662500000413,
      "v": 114
    },
    {
      "midi": 57,
      "hit": false,
      "t": 43151.47200000036,
      "d": 83.33325000000332,
      "v": 127
    },
    {
      "midi": 65,
      "hit": false,
      "t": 43151.47200000036,
      "d": 87.12112500000512,
      "v": 127
    },
    {
      "midi": 60,
      "hit": false,
      "t": 43155.25987500036,
      "d": 79.54537500000151,
      "v": 127
    },
    {
      "midi": 45,
      "hit": false,
      "t": 43276.47187500037,
      "d": 306.81787500000064,
      "v": 127
    },
    {
      "midi": 45,
      "hit": false,
      "t": 43280.25975000005,
      "d": 325.7572500000024,
      "v": 115
    },
    {
      "midi": 57,
      "hit": false,
      "t": 43518.895875000366,
      "d": 68.18175000000338,
      "v": 127
    },
    {
      "midi": 60,
      "hit": false,
      "t": 43518.895875000366,
      "d": 68.18175000000338,
      "v": 127
    },
    {
      "midi": 65,
      "hit": false,
      "t": 43518.895875000366,
      "d": 87.12112500000512,
      "v": 127
    },
    {
      "midi": 43,
      "hit": false,
      "t": 43640.10787500005,
      "d": 397.7268750000003,
      "v": 124
    },
    {
      "midi": 43,
      "hit": false,
      "t": 43640.10787500037,
      "d": 374.999625000004,
      "v": 127
    },
    {
      "midi": 59,
      "hit": false,
      "t": 43878.74400000037,
      "d": 71.96962500000518,
      "v": 127
    },
    {
      "midi": 62,
      "hit": false,
      "t": 43878.74400000037,
      "d": 71.96962500000518,
      "v": 127
    },
    {
      "midi": 67,
      "hit": false,
      "t": 43882.53187500037,
      "d": 83.33325000000332,
      "v": 127
    },
    {
      "midi": 47,
      "hit": false,
      "t": 44003.74387500038,
      "d": 371.2117500000095,
      "v": 127
    },
    {
      "midi": 47,
      "hit": false,
      "t": 44007.53175000005,
      "d": 340.9087500000023,
      "v": 107
    },
    {
      "midi": 59,
      "hit": false,
      "t": 44246.16787500038,
      "d": 83.33325000000332,
      "v": 127
    },
    {
      "midi": 62,
      "hit": false,
      "t": 44246.16787500038,
      "d": 83.33325000000332,
      "v": 127
    },
    {
      "midi": 67,
      "hit": false,
      "t": 44246.16787500038,
      "d": 87.12112500000512,
      "v": 127
    },
    {
      "midi": 50,
      "hit": false,
      "t": 44367.37987500006,
      "d": 685.6053750000065,
      "v": 113
    },
    {
      "midi": 50,
      "hit": false,
      "t": 44367.379875000384,
      "d": 674.2417500000156,
      "v": 127
    },
    {
      "midi": 59,
      "hit": false,
      "t": 44606.01600000039,
      "d": 75.75749999999971,
      "v": 127
    },
    {
      "midi": 67,
      "hit": false,
      "t": 44606.01600000039,
      "d": 75.75749999999971,
      "v": 127
    },
    {
      "midi": 62,
      "hit": false,
      "t": 44609.80387500039,
      "d": 71.9696249999979,
      "v": 127
    },
    {
      "midi": 47,
      "hit": false,
      "t": 44731.01587500039,
      "d": 3.7878750000018044,
      "v": 127
    },
    {
      "midi": 47,
      "hit": false,
      "t": 44734.80375000006,
      "d": 7.575750000003609,
      "v": 106
    },
    {
      "midi": 67,
      "hit": false,
      "t": 44969.652000000395,
      "d": 71.96962500000518,
      "v": 127
    },
    {
      "midi": 62,
      "hit": false,
      "t": 44973.4398750004,
      "d": 64.39387500000157,
      "v": 127
    },
    {
      "midi": 59,
      "hit": false,
      "t": 44973.4398750004,
      "d": 90.90900000000693,
      "v": 127
    },
    {
      "midi": 41,
      "hit": false,
      "t": 45094.6518750004,
      "d": 397.72687500000757,
      "v": 127
    },
    {
      "midi": 41,
      "hit": false,
      "t": 45098.43975000006,
      "d": 386.36325000000215,
      "v": 127
    },
    {
      "midi": 60,
      "hit": false,
      "t": 45333.2880000004,
      "d": 87.12112500000512,
      "v": 127
    },
    {
      "midi": 65,
      "hit": false,
      "t": 45333.2880000004,
      "d": 90.90900000000693,
      "v": 127
    },
    {
      "midi": 57,
      "hit": false,
      "t": 45337.0758750004,
      "d": 53.030250000003434,
      "v": 127
    },
    {
      "midi": 45,
      "hit": false,
      "t": 45458.28787500041,
      "d": 386.3632500000167,
      "v": 127
    },
    {
      "midi": 45,
      "hit": false,
      "t": 45462.07575000006,
      "d": 367.4238750000077,
      "v": 113
    },
    {
      "midi": 57,
      "hit": false,
      "t": 45696.924000000414,
      "d": 71.96962500000518,
      "v": 127
    },
    {
      "midi": 60,
      "hit": false,
      "t": 45700.711875000416,
      "d": 68.18175000000338,
      "v": 127
    },
    {
      "midi": 65,
      "hit": false,
      "t": 45700.711875000416,
      "d": 68.18175000000338,
      "v": 127
    },
    {
      "midi": 48,
      "hit": false,
      "t": 45821.923875000066,
      "d": 348.48450000000594,
      "v": 115
    },
    {
      "midi": 48,
      "hit": false,
      "t": 45821.92387500042,
      "d": 356.0602500000168,
      "v": 127
    },
    {
      "midi": 57,
      "hit": false,
      "t": 46064.34787500043,
      "d": 68.18175000000338,
      "v": 127
    },
    {
      "midi": 60,
      "hit": false,
      "t": 46064.34787500043,
      "d": 68.18175000000338,
      "v": 127
    },
    {
      "midi": 65,
      "hit": false,
      "t": 46064.34787500043,
      "d": 75.75750000000698,
      "v": 127
    },
    {
      "midi": 45,
      "hit": false,
      "t": 46185.55987500044,
      "d": 344.69662500000413,
      "v": 127
    },
    {
      "midi": 45,
      "hit": false,
      "t": 46189.34775000007,
      "d": 337.1208750000005,
      "v": 106
    },
    {
      "midi": 60,
      "hit": false,
      "t": 46424.19600000044,
      "d": 87.12112500000512,
      "v": 127
    },
    {
      "midi": 57,
      "hit": false,
      "t": 46427.98387500044,
      "d": 83.33325000000332,
      "v": 127
    },
    {
      "midi": 65,
      "hit": false,
      "t": 46427.98387500044,
      "d": 83.33325000000332,
      "v": 127
    },
    {
      "midi": 43,
      "hit": false,
      "t": 46549.19587500008,
      "d": 356.06025000000227,
      "v": 121
    },
    {
      "midi": 43,
      "hit": false,
      "t": 46549.19587500045,
      "d": 287.8784999999989,
      "v": 127
    },
    {
      "midi": 59,
      "hit": false,
      "t": 46787.832000000446,
      "d": 75.75749999999971,
      "v": 127
    },
    {
      "midi": 62,
      "hit": false,
      "t": 46787.832000000446,
      "d": 75.75749999999971,
      "v": 127
    },
    {
      "midi": 67,
      "hit": false,
      "t": 46791.61987500045,
      "d": 90.90899999999965,
      "v": 127
    },
    {
      "midi": 41,
      "hit": false,
      "t": 46912.83187500045,
      "d": 314.39362500000425,
      "v": 127
    },
    {
      "midi": 41,
      "hit": false,
      "t": 46916.61975000008,
      "d": 340.9087500000023,
      "v": 124
    },
    {
      "midi": 67,
      "hit": false,
      "t": 47151.468000000445,
      "d": 71.96962500000518,
      "v": 127
    },
    {
      "midi": 62,
      "hit": false,
      "t": 47155.25587500045,
      "d": 68.18175000000338,
      "v": 127
    },
    {
      "midi": 59,
      "hit": false,
      "t": 47155.25587500045,
      "d": 71.96962500000518,
      "v": 127
    },
    {
      "midi": 40,
      "hit": false,
      "t": 47276.46787500008,
      "d": 242.42399999999907,
      "v": 125
    },
    {
      "midi": 40,
      "hit": false,
      "t": 47276.46787500045,
      "d": 268.93912499999715,
      "v": 127
    },
    {
      "midi": 59,
      "hit": false,
      "t": 47515.10400000045,
      "d": 83.33325000000332,
      "v": 127
    },
    {
      "midi": 62,
      "hit": false,
      "t": 47518.89187500045,
      "d": 79.54537500000151,
      "v": 127
    },
    {
      "midi": 67,
      "hit": false,
      "t": 47518.89187500045,
      "d": 98.48475000000326,
      "v": 127
    },
    {
      "midi": 38,
      "hit": false,
      "t": 47640.10387500008,
      "d": 306.81787500000064,
      "v": 123
    },
    {
      "midi": 38,
      "hit": false,
      "t": 47640.10387500046,
      "d": 249.99975000000268,
      "v": 127
    },
    {
      "midi": 62,
      "hit": false,
      "t": 47882.52787500046,
      "d": 64.39387500000157,
      "v": 127
    },
    {
      "midi": 59,
      "hit": false,
      "t": 47882.52787500046,
      "d": 68.18175000000338,
      "v": 127
    },
    {
      "midi": 67,
      "hit": false,
      "t": 47882.52787500046,
      "d": 87.12112500000512,
      "v": 127
    },
    {
      "midi": 36,
      "hit": false,
      "t": 48003.739875000465,
      "d": 382.57537500000035,
      "v": 127
    },
    {
      "midi": 36,
      "hit": false,
      "t": 48007.52775000008,
      "d": 321.9693750000006,
      "v": 127
    },
    {
      "midi": 60,
      "hit": false,
      "t": 48242.37600000046,
      "d": 79.54537500000151,
      "v": 127
    },
    {
      "midi": 64,
      "hit": false,
      "t": 48246.163875000464,
      "d": 30.302999999999884,
      "v": 120
    },
    {
      "midi": 55,
      "hit": false,
      "t": 48246.163875000464,
      "d": 56.81812499999796,
      "v": 127
    },
    {
      "midi": 40,
      "hit": false,
      "t": 48367.375875000085,
      "d": 397.7268750000003,
      "v": 127
    },
    {
      "midi": 40,
      "hit": false,
      "t": 48367.37587500046,
      "d": 405.3026250000112,
      "v": 127
    },
    {
      "midi": 60,
      "hit": false,
      "t": 48606.01200000047,
      "d": 71.96962500000518,
      "v": 127
    },
    {
      "midi": 55,
      "hit": false,
      "t": 48609.79987500047,
      "d": 68.18175000000338,
      "v": 127
    },
    {
      "midi": 64,
      "hit": false,
      "t": 48609.79987500047,
      "d": 68.18175000000338,
      "v": 127
    },
    {
      "midi": 43,
      "hit": false,
      "t": 48731.011875000084,
      "d": 337.1208750000005,
      "v": 121
    },
    {
      "midi": 43,
      "hit": false,
      "t": 48731.01187500048,
      "d": 382.5753750000076,
      "v": 127
    },
    {
      "midi": 55,
      "hit": false,
      "t": 48969.648000000474,
      "d": 71.96962500000518,
      "v": 127
    },
    {
      "midi": 60,
      "hit": false,
      "t": 48973.435875000476,
      "d": 64.39387500000157,
      "v": 127
    },
    {
      "midi": 64,
      "hit": false,
      "t": 48973.435875000476,
      "d": 71.96962500000518,
      "v": 127
    },
    {
      "midi": 45,
      "hit": false,
      "t": 49094.64787500048,
      "d": 246.21187500000087,
      "v": 127
    },
    {
      "midi": 45,
      "hit": false,
      "t": 49098.435750000084,
      "d": 265.15124999999534,
      "v": 113
    },
    {
      "midi": 43,
      "hit": false,
      "t": 49337.07187500008,
      "d": 71.9696249999979,
      "v": 119
    },
    {
      "midi": 55,
      "hit": false,
      "t": 49337.07187500048,
      "d": 75.75749999999971,
      "v": 127
    },
    {
      "midi": 60,
      "hit": false,
      "t": 49337.07187500048,
      "d": 79.54537500000151,
      "v": 127
    },
    {
      "midi": 64,
      "hit": false,
      "t": 49337.07187500048,
      "d": 83.33325000000332,
      "v": 127
    },
    {
      "midi": 43,
      "hit": false,
      "t": 49337.07187500048,
      "d": 117.424125000005,
      "v": 127
    },
    {
      "midi": 36,
      "hit": false,
      "t": 49458.28387500049,
      "d": 374.99962499999674,
      "v": 127
    },
    {
      "midi": 36,
      "hit": false,
      "t": 49462.07175000008,
      "d": 367.4238750000004,
      "v": 127
    },
    {
      "midi": 64,
      "hit": false,
      "t": 49696.920000000486,
      "d": 75.75749999999971,
      "v": 127
    },
    {
      "midi": 55,
      "hit": false,
      "t": 49700.70787500049,
      "d": 71.9696249999979,
      "v": 127
    },
    {
      "midi": 60,
      "hit": false,
      "t": 49700.70787500049,
      "d": 71.9696249999979,
      "v": 127
    },
    {
      "midi": 40,
      "hit": false,
      "t": 49821.91987500049,
      "d": 374.999625000004,
      "v": 127
    },
    {
      "midi": 40,
      "hit": false,
      "t": 49825.70775000008,
      "d": 405.3026250000039,
      "v": 127
    },
    {
      "midi": 64,
      "hit": false,
      "t": 50060.556000000484,
      "d": 71.96962500000518,
      "v": 127
    },
    {
      "midi": 60,
      "hit": false,
      "t": 50064.343875000486,
      "d": 64.39387500000157,
      "v": 127
    },
    {
      "midi": 55,
      "hit": false,
      "t": 50064.343875000486,
      "d": 68.18175000000338,
      "v": 127
    },
    {
      "midi": 43,
      "hit": false,
      "t": 50185.555875000086,
      "d": 348.48449999999866,
      "v": 119
    },
    {
      "midi": 48,
      "hit": false,
      "t": 50185.55587500049,
      "d": 348.48450000000594,
      "v": 127
    },
    {
      "midi": 60,
      "hit": false,
      "t": 50427.97987500049,
      "d": 68.18175000000338,
      "v": 127
    },
    {
      "midi": 55,
      "hit": false,
      "t": 50427.97987500049,
      "d": 71.96962500000518,
      "v": 127
    },
    {
      "midi": 64,
      "hit": false,
      "t": 50427.97987500049,
      "d": 71.96962500000518,
      "v": 127
    },
    {
      "midi": 45,
      "hit": false,
      "t": 50549.191875000084,
      "d": 234.84825000000274,
      "v": 109
    },
    {
      "midi": 45,
      "hit": false,
      "t": 50549.1918750005,
      "d": 329.5451249999969,
      "v": 127
    },
    {
      "midi": 43,
      "hit": false,
      "t": 50791.61587500009,
      "d": 90.90899999999965,
      "v": 115
    },
    {
      "midi": 55,
      "hit": false,
      "t": 50791.6158750005,
      "d": 71.9696249999979,
      "v": 127
    },
    {
      "midi": 60,
      "hit": false,
      "t": 50791.6158750005,
      "d": 71.9696249999979,
      "v": 127
    },
    {
      "midi": 64,
      "hit": false,
      "t": 50791.6158750005,
      "d": 71.9696249999979,
      "v": 127
    },
    {
      "midi": 36,
      "hit": false,
      "t": 50912.8278750005,
      "d": 382.5753750000076,
      "v": 127
    },
    {
      "midi": 36,
      "hit": false,
      "t": 50916.61575000009,
      "d": 348.48449999999866,
      "v": 127
    },
    {
      "midi": 55,
      "hit": false,
      "t": 51155.2518750005,
      "d": 68.18175000000338,
      "v": 127
    },
    {
      "midi": 60,
      "hit": false,
      "t": 51155.2518750005,
      "d": 68.18175000000338,
      "v": 127
    },
    {
      "midi": 64,
      "hit": false,
      "t": 51155.2518750005,
      "d": 68.18175000000338,
      "v": 127
    },
    {
      "midi": 40,
      "hit": false,
      "t": 51276.46387500009,
      "d": 382.57537500000035,
      "v": 127
    },
    {
      "midi": 40,
      "hit": false,
      "t": 51276.4638750005,
      "d": 378.7875000000131,
      "v": 127
    },
    {
      "midi": 55,
      "hit": false,
      "t": 51515.10000000051,
      "d": 71.96962500000518,
      "v": 127
    },
    {
      "midi": 60,
      "hit": false,
      "t": 51518.88787500051,
      "d": 68.18175000000338,
      "v": 127
    },
    {
      "midi": 64,
      "hit": false,
      "t": 51518.88787500051,
      "d": 71.96962500000518,
      "v": 127
    },
    {
      "midi": 43,
      "hit": false,
      "t": 51640.09987500009,
      "d": 371.2117500000022,
      "v": 124
    },
    {
      "midi": 43,
      "hit": false,
      "t": 51640.09987500052,
      "d": 363.6360000000059,
      "v": 127
    },
    {
      "midi": 64,
      "hit": false,
      "t": 51878.736000000514,
      "d": 71.96962500000518,
      "v": 127
    },
    {
      "midi": 55,
      "hit": false,
      "t": 51882.523875000516,
      "d": 68.18175000000338,
      "v": 127
    },
    {
      "midi": 60,
      "hit": false,
      "t": 51882.523875000516,
      "d": 68.18175000000338,
      "v": 127
    },
    {
      "midi": 45,
      "hit": false,
      "t": 52007.52375000009,
      "d": 268.93912499999715,
      "v": 113
    },
    {
      "midi": 45,
      "hit": false,
      "t": 52007.523750000524,
      "d": 242.42399999999907,
      "v": 127
    },
    {
      "midi": 55,
      "hit": false,
      "t": 52246.15987500052,
      "d": 79.54537500000151,
      "v": 127
    },
    {
      "midi": 60,
      "hit": false,
      "t": 52246.15987500052,
      "d": 79.54537500000151,
      "v": 127
    },
    {
      "midi": 64,
      "hit": false,
      "t": 52246.15987500052,
      "d": 83.33325000000332,
      "v": 127
    },
    {
      "midi": 43,
      "hit": false,
      "t": 52246.15987500052,
      "d": 102.27262500000506,
      "v": 127
    },
    {
      "midi": 43,
      "hit": false,
      "t": 52249.94775000009,
      "d": 83.33324999999604,
      "v": 121
    },
    {
      "midi": 36,
      "hit": false,
      "t": 52367.37187500053,
      "d": 393.93900000000576,
      "v": 127
    },
    {
      "midi": 36,
      "hit": false,
      "t": 52371.159750000086,
      "d": 340.9087500000023,
      "v": 121
    },
    {
      "midi": 64,
      "hit": false,
      "t": 52606.008000000525,
      "d": 90.90900000000693,
      "v": 127
    },
    {
      "midi": 55,
      "hit": false,
      "t": 52609.79587500053,
      "d": 68.18175000000338,
      "v": 127
    },
    {
      "midi": 60,
      "hit": false,
      "t": 52609.79587500053,
      "d": 68.18175000000338,
      "v": 127
    },
    {
      "midi": 40,
      "hit": false,
      "t": 52731.00787500009,
      "d": 333.3329999999987,
      "v": 125
    },
    {
      "midi": 40,
      "hit": false,
      "t": 52731.007875000534,
      "d": 416.6662500000093,
      "v": 127
    },
    {
      "midi": 60,
      "hit": false,
      "t": 52973.43187500053,
      "d": 64.39387500000157,
      "v": 127
    },
    {
      "midi": 55,
      "hit": false,
      "t": 52973.43187500053,
      "d": 68.18175000000338,
      "v": 127
    },
    {
      "midi": 64,
      "hit": false,
      "t": 52973.43187500053,
      "d": 87.12112500000512,
      "v": 127
    },
    {
      "midi": 43,
      "hit": false,
      "t": 53094.64387500054,
      "d": 348.48450000000594,
      "v": 127
    },
    {
      "midi": 43,
      "hit": false,
      "t": 53098.43175000009,
      "d": 363.6359999999986,
      "v": 127
    },
    {
      "midi": 64,
      "hit": false,
      "t": 53333.280000000545,
      "d": 83.33325000000332,
      "v": 127
    },
    {
      "midi": 55,
      "hit": false,
      "t": 53337.067875000546,
      "d": 60.60599999999977,
      "v": 127
    },
    {
      "midi": 60,
      "hit": false,
      "t": 53337.067875000546,
      "d": 60.60599999999977,
      "v": 127
    },
    {
      "midi": 45,
      "hit": false,
      "t": 53458.27987500009,
      "d": 268.9391250000044,
      "v": 115
    },
    {
      "midi": 45,
      "hit": false,
      "t": 53458.279875000546,
      "d": 253.7876249999972,
      "v": 127
    },
    {
      "midi": 55,
      "hit": false,
      "t": 53700.703875000545,
      "d": 79.54537500000151,
      "v": 127
    },
    {
      "midi": 60,
      "hit": false,
      "t": 53700.703875000545,
      "d": 79.54537500000151,
      "v": 127
    },
    {
      "midi": 64,
      "hit": false,
      "t": 53700.703875000545,
      "d": 83.33325000000332,
      "v": 127
    },
    {
      "midi": 43,
      "hit": false,
      "t": 53700.703875000545,
      "d": 102.27262500000506,
      "v": 127
    },
    {
      "midi": 43,
      "hit": false,
      "t": 53704.49175000009,
      "d": 87.12112500000512,
      "v": 127
    },
    {
      "midi": 36,
      "hit": false,
      "t": 53821.91587500055,
      "d": 371.2117500000095,
      "v": 127
    },
    {
      "midi": 36,
      "hit": false,
      "t": 53825.703750000095,
      "d": 356.06025000000227,
      "v": 127
    },
    {
      "midi": 55,
      "hit": false,
      "t": 54060.55200000055,
      "d": 71.96962500000518,
      "v": 127
    },
    {
      "midi": 64,
      "hit": false,
      "t": 54060.55200000055,
      "d": 90.90900000000693,
      "v": 127
    },
    {
      "midi": 60,
      "hit": false,
      "t": 54064.33987500055,
      "d": 68.18175000000338,
      "v": 127
    },
    {
      "midi": 40,
      "hit": false,
      "t": 54185.55187500056,
      "d": 412.8783750000075,
      "v": 127
    },
    {
      "midi": 40,
      "hit": false,
      "t": 54189.3397500001,
      "d": 382.57537500000035,
      "v": 127
    },
    {
      "midi": 55,
      "hit": false,
      "t": 54427.975875000564,
      "d": 71.9696249999979,
      "v": 127
    },
    {
      "midi": 60,
      "hit": false,
      "t": 54427.975875000564,
      "d": 71.9696249999979,
      "v": 127
    },
    {
      "midi": 64,
      "hit": false,
      "t": 54427.975875000564,
      "d": 75.75749999999971,
      "v": 127
    },
    {
      "midi": 43,
      "hit": false,
      "t": 54549.1878750001,
      "d": 359.8481250000041,
      "v": 124
    },
    {
      "midi": 43,
      "hit": false,
      "t": 54549.18787500056,
      "d": 374.9996250000113,
      "v": 127
    },
    {
      "midi": 55,
      "hit": false,
      "t": 54787.82400000057,
      "d": 71.96962500000518,
      "v": 127
    },
    {
      "midi": 64,
      "hit": false,
      "t": 54787.82400000057,
      "d": 90.90900000000693,
      "v": 127
    },
    {
      "midi": 60,
      "hit": false,
      "t": 54791.61187500057,
      "d": 68.18175000000338,
      "v": 127
    },
    {
      "midi": 45,
      "hit": false,
      "t": 54912.82387500058,
      "d": 268.9391250000044,
      "v": 127
    },
    {
      "midi": 45,
      "hit": false,
      "t": 54916.611750000106,
      "d": 257.575499999999,
      "v": 115
    },
    {
      "midi": 55,
      "hit": false,
      "t": 55155.247875000576,
      "d": 79.54537500000879,
      "v": 127
    },
    {
      "midi": 64,
      "hit": false,
      "t": 55155.247875000576,
      "d": 83.3332500000106,
      "v": 127
    },
    {
      "midi": 43,
      "hit": false,
      "t": 55155.247875000576,
      "d": 106.06050000001414,
      "v": 127
    },
    {
      "midi": 43,
      "hit": false,
      "t": 55159.035750000105,
      "d": 83.33325000000332,
      "v": 119
    },
    {
      "midi": 60,
      "hit": false,
      "t": 55159.03575000058,
      "d": 79.54537500000879,
      "v": 127
    },
    {
      "midi": 36,
      "hit": false,
      "t": 55276.45987500059,
      "d": 401.51475000000937,
      "v": 127
    },
    {
      "midi": 36,
      "hit": false,
      "t": 55280.24775000011,
      "d": 356.06025000000227,
      "v": 127
    },
    {
      "midi": 55,
      "hit": false,
      "t": 55515.09600000059,
      "d": 71.96962500000518,
      "v": 127
    },
    {
      "midi": 64,
      "hit": false,
      "t": 55515.09600000059,
      "d": 90.90900000000693,
      "v": 127
    },
    {
      "midi": 60,
      "hit": false,
      "t": 55518.88387500059,
      "d": 68.18175000000338,
      "v": 127
    },
    {
      "midi": 40,
      "hit": false,
      "t": 55640.095875000596,
      "d": 401.51475000001665,
      "v": 127
    },
    {
      "midi": 40,
      "hit": false,
      "t": 55643.88375000012,
      "d": 371.21174999999494,
      "v": 125
    },
    {
      "midi": 60,
      "hit": false,
      "t": 55882.5198750006,
      "d": 68.18175000000338,
      "v": 127
    },
    {
      "midi": 55,
      "hit": false,
      "t": 55882.5198750006,
      "d": 71.96962500000518,
      "v": 127
    },
    {
      "midi": 64,
      "hit": false,
      "t": 55882.5198750006,
      "d": 71.96962500000518,
      "v": 127
    },
    {
      "midi": 43,
      "hit": false,
      "t": 56003.731875000114,
      "d": 371.2117500000022,
      "v": 124
    },
    {
      "midi": 43,
      "hit": false,
      "t": 56003.73187500061,
      "d": 356.06025000000955,
      "v": 127
    },
    {
      "midi": 55,
      "hit": false,
      "t": 56242.36800000061,
      "d": 83.33325000000332,
      "v": 127
    },
    {
      "midi": 64,
      "hit": false,
      "t": 56242.36800000061,
      "d": 87.12112500000512,
      "v": 127
    },
    {
      "midi": 60,
      "hit": false,
      "t": 56246.155875000615,
      "d": 53.030250000003434,
      "v": 127
    },
    {
      "midi": 45,
      "hit": false,
      "t": 56367.36787500011,
      "d": 253.78762500000448,
      "v": 110
    },
    {
      "midi": 45,
      "hit": false,
      "t": 56367.36787500062,
      "d": 249.99975000000268,
      "v": 127
    },
    {
      "midi": 55,
      "hit": false,
      "t": 56609.79187500062,
      "d": 45.4545000000071,
      "v": 127
    },
    {
      "midi": 43,
      "hit": false,
      "t": 56609.79187500062,
      "d": 75.75750000000698,
      "v": 127
    },
    {
      "midi": 60,
      "hit": false,
      "t": 56609.79187500062,
      "d": 75.75750000000698,
      "v": 127
    },
    {
      "midi": 64,
      "hit": false,
      "t": 56609.79187500062,
      "d": 98.48475000001054,
      "v": 127
    },
    {
      "midi": 43,
      "hit": false,
      "t": 56613.57975000011,
      "d": 75.75750000000698,
      "v": 124
    },
    {
      "midi": 41,
      "hit": false,
      "t": 56731.00387500012,
      "d": 390.15112500000396,
      "v": 127
    },
    {
      "midi": 41,
      "hit": false,
      "t": 56731.003875000635,
      "d": 401.51475000000937,
      "v": 127
    },
    {
      "midi": 65,
      "hit": false,
      "t": 56969.64000000063,
      "d": 102.27262500000506,
      "v": 127
    },
    {
      "midi": 57,
      "hit": false,
      "t": 56973.427875000634,
      "d": 49.24237500000163,
      "v": 127
    },
    {
      "midi": 60,
      "hit": false,
      "t": 56973.427875000634,
      "d": 79.54537500000151,
      "v": 127
    },
    {
      "midi": 45,
      "hit": false,
      "t": 57094.63987500064,
      "d": 386.3632500000167,
      "v": 127
    },
    {
      "midi": 45,
      "hit": false,
      "t": 57098.42775000012,
      "d": 397.72687500000757,
      "v": 125
    },
    {
      "midi": 60,
      "hit": false,
      "t": 57337.06387500065,
      "d": 68.18175000000338,
      "v": 127
    },
    {
      "midi": 57,
      "hit": false,
      "t": 57337.06387500065,
      "d": 83.33325000000332,
      "v": 127
    },
    {
      "midi": 65,
      "hit": false,
      "t": 57337.06387500065,
      "d": 87.12112500000512,
      "v": 127
    },
    {
      "midi": 48,
      "hit": false,
      "t": 57458.27587500012,
      "d": 344.69662500000413,
      "v": 124
    },
    {
      "midi": 48,
      "hit": false,
      "t": 57458.275875000654,
      "d": 371.2117500000095,
      "v": 127
    },
    {
      "midi": 60,
      "hit": false,
      "t": 57696.91200000066,
      "d": 90.90899999999965,
      "v": 127
    },
    {
      "midi": 65,
      "hit": false,
      "t": 57696.91200000066,
      "d": 90.90899999999965,
      "v": 127
    },
    {
      "midi": 57,
      "hit": false,
      "t": 57700.69987500066,
      "d": 71.9696249999979,
      "v": 127
    },
    {
      "midi": 50,
      "hit": false,
      "t": 57821.91187500013,
      "d": 261.3633750000008,
      "v": 118
    },
    {
      "midi": 50,
      "hit": false,
      "t": 57821.91187500066,
      "d": 249.99975000000995,
      "v": 127
    },
    {
      "midi": 60,
      "hit": false,
      "t": 58064.33587500067,
      "d": 79.54537500000151,
      "v": 127
    },
    {
      "midi": 57,
      "hit": false,
      "t": 58064.33587500067,
      "d": 83.33325000000332,
      "v": 127
    },
    {
      "midi": 65,
      "hit": false,
      "t": 58064.33587500067,
      "d": 83.33325000000332,
      "v": 127
    },
    {
      "midi": 48,
      "hit": false,
      "t": 58064.33587500067,
      "d": 102.27262500000506,
      "v": 127
    },
    {
      "midi": 48,
      "hit": false,
      "t": 58068.12375000013,
      "d": 102.27262499999779,
      "v": 124
    },
    {
      "midi": 41,
      "hit": false,
      "t": 58185.54787500067,
      "d": 390.15112500000396,
      "v": 127
    },
    {
      "midi": 41,
      "hit": false,
      "t": 58189.33575000013,
      "d": 371.2117500000022,
      "v": 127
    },
    {
      "midi": 60,
      "hit": false,
      "t": 58424.18400000067,
      "d": 75.75750000000698,
      "v": 127
    },
    {
      "midi": 65,
      "hit": false,
      "t": 58424.18400000067,
      "d": 75.75750000000698,
      "v": 127
    },
    {
      "midi": 57,
      "hit": false,
      "t": 58427.97187500067,
      "d": 68.18175000000338,
      "v": 127
    },
    {
      "midi": 45,
      "hit": false,
      "t": 58549.18387500068,
      "d": 412.8783750000075,
      "v": 127
    },
    {
      "midi": 45,
      "hit": false,
      "t": 58552.97175000013,
      "d": 386.36325000000943,
      "v": 127
    },
    {
      "midi": 65,
      "hit": false,
      "t": 58791.60787500068,
      "d": 68.18175000000338,
      "v": 127
    },
    {
      "midi": 57,
      "hit": false,
      "t": 58791.60787500068,
      "d": 71.96962500000518,
      "v": 127
    },
    {
      "midi": 60,
      "hit": false,
      "t": 58791.60787500068,
      "d": 71.96962500000518,
      "v": 127
    },
    {
      "midi": 48,
      "hit": false,
      "t": 58912.819875000685,
      "d": 340.9087500000096,
      "v": 127
    },
    {
      "midi": 48,
      "hit": false,
      "t": 58916.607750000134,
      "d": 363.6360000000059,
      "v": 121
    },
    {
      "midi": 60,
      "hit": false,
      "t": 59151.45600000069,
      "d": 87.12112500000512,
      "v": 127
    },
    {
      "midi": 65,
      "hit": false,
      "t": 59151.45600000069,
      "d": 87.12112500000512,
      "v": 127
    },
    {
      "midi": 57,
      "hit": false,
      "t": 59155.24387500069,
      "d": 83.33325000000332,
      "v": 127
    },
    {
      "midi": 50,
      "hit": false,
      "t": 59276.45587500014,
      "d": 272.72699999999895,
      "v": 116
    },
    {
      "midi": 45,
      "hit": false,
      "t": 59276.4558750007,
      "d": 352.27237500000774,
      "v": 127
    },
    {
      "midi": 48,
      "hit": false,
      "t": 59518.87987500014,
      "d": 102.27262499999779,
      "v": 124
    },
    {
      "midi": 57,
      "hit": false,
      "t": 59518.8798750007,
      "d": 64.39387500000157,
      "v": 127
    },
    {
      "midi": 65,
      "hit": false,
      "t": 59518.8798750007,
      "d": 68.18175000000338,
      "v": 127
    },
    {
      "midi": 60,
      "hit": false,
      "t": 59518.8798750007,
      "d": 87.12112500000512,
      "v": 127
    },
    {
      "midi": 36,
      "hit": false,
      "t": 59640.09187500014,
      "d": 378.78749999999854,
      "v": 124
    },
    {
      "midi": 36,
      "hit": false,
      "t": 59640.091875000704,
      "d": 409.0905000000057,
      "v": 127
    },
    {
      "midi": 64,
      "hit": false,
      "t": 59878.7280000007,
      "d": 94.69687500000873,
      "v": 127
    },
    {
      "midi": 55,
      "hit": false,
      "t": 59882.5158750007,
      "d": 68.18175000000338,
      "v": 127
    },
    {
      "midi": 60,
      "hit": false,
      "t": 59882.5158750007,
      "d": 68.18175000000338,
      "v": 127
    },
    {
      "midi": 40,
      "hit": false,
      "t": 60003.72787500071,
      "d": 382.5753750000076,
      "v": 127
    },
    {
      "midi": 40,
      "hit": false,
      "t": 60007.51575000014,
      "d": 371.21174999999494,
      "v": 127
    },
    {
      "midi": 55,
      "hit": false,
      "t": 60246.15187500071,
      "d": 68.18175000000338,
      "v": 127
    },
    {
      "midi": 60,
      "hit": false,
      "t": 60246.15187500071,
      "d": 68.18175000000338,
      "v": 127
    },
    {
      "midi": 64,
      "hit": false,
      "t": 60246.15187500071,
      "d": 68.18175000000338,
      "v": 127
    },
    {
      "midi": 43,
      "hit": false,
      "t": 60367.363875000134,
      "d": 359.8481249999968,
      "v": 121
    },
    {
      "midi": 43,
      "hit": false,
      "t": 60367.363875000716,
      "d": 356.06025000000955,
      "v": 127
    },
    {
      "midi": 55,
      "hit": false,
      "t": 60606.00000000072,
      "d": 71.96962500000518,
      "v": 127
    },
    {
      "midi": 64,
      "hit": false,
      "t": 60606.00000000072,
      "d": 90.90900000000693,
      "v": 127
    },
    {
      "midi": 60,
      "hit": false,
      "t": 60609.78787500072,
      "d": 68.18175000000338,
      "v": 127
    },
    {
      "midi": 45,
      "hit": false,
      "t": 60730.99987500073,
      "d": 246.21187500000087,
      "v": 127
    },
    {
      "midi": 45,
      "hit": false,
      "t": 60734.787750000134,
      "d": 253.7876249999972,
      "v": 111
    },
    {
      "midi": 60,
      "hit": false,
      "t": 60973.42387500073,
      "d": 79.54537500000151,
      "v": 127
    },
    {
      "midi": 64,
      "hit": false,
      "t": 60973.42387500073,
      "d": 79.54537500000151,
      "v": 127
    },
    {
      "midi": 55,
      "hit": false,
      "t": 60973.42387500073,
      "d": 83.33325000000332,
      "v": 127
    },
    {
      "midi": 43,
      "hit": false,
      "t": 60973.42387500073,
      "d": 121.21200000000681,
      "v": 127
    },
    {
      "midi": 43,
      "hit": false,
      "t": 60977.21175000013,
      "d": 94.69687500000146,
      "v": 117
    },
    {
      "midi": 36,
      "hit": false,
      "t": 61098.42375000013,
      "d": 401.5147500000021,
      "v": 127
    },
    {
      "midi": 36,
      "hit": false,
      "t": 61098.42375000074,
      "d": 371.2117500000095,
      "v": 127
    },
    {
      "midi": 55,
      "hit": false,
      "t": 61333.27200000074,
      "d": 71.96962500000518,
      "v": 127
    },
    {
      "midi": 64,
      "hit": false,
      "t": 61333.27200000074,
      "d": 90.90900000000693,
      "v": 127
    },
    {
      "midi": 60,
      "hit": false,
      "t": 61337.05987500074,
      "d": 68.18175000000338,
      "v": 127
    },
    {
      "midi": 48,
      "hit": false,
      "t": 61458.27187500075,
      "d": 734.8477500000154,
      "v": 127
    },
    {
      "midi": 40,
      "hit": false,
      "t": 61462.05975000013,
      "d": 393.93900000000576,
      "v": 123
    },
    {
      "midi": 64,
      "hit": false,
      "t": 61696.908000000745,
      "d": 75.75750000000698,
      "v": 127
    },
    {
      "midi": 60,
      "hit": false,
      "t": 61700.69587500075,
      "d": 68.18175000000338,
      "v": 127
    },
    {
      "midi": 55,
      "hit": false,
      "t": 61700.69587500075,
      "d": 71.96962500000518,
      "v": 127
    },
    {
      "midi": 43,
      "hit": false,
      "t": 61821.907875000135,
      "d": 367.4238750000004,
      "v": 119
    },
    {
      "midi": 45,
      "hit": false,
      "t": 61821.907875000754,
      "d": 11.363624999998137,
      "v": 127
    },
    {
      "midi": 60,
      "hit": false,
      "t": 62064.33187500075,
      "d": 68.18175000000338,
      "v": 127
    },
    {
      "midi": 55,
      "hit": false,
      "t": 62064.33187500075,
      "d": 71.96962500000518,
      "v": 127
    },
    {
      "midi": 64,
      "hit": false,
      "t": 62064.33187500075,
      "d": 87.12112500000512,
      "v": 127
    },
    {
      "midi": 45,
      "hit": false,
      "t": 62185.543875000134,
      "d": 246.21187500000087,
      "v": 107
    },
    {
      "midi": 43,
      "hit": false,
      "t": 62185.54387500076,
      "d": 287.87850000001345,
      "v": 127
    },
    {
      "midi": 64,
      "hit": false,
      "t": 62424.180000000764,
      "d": 98.48475000001054,
      "v": 127
    },
    {
      "midi": 43,
      "hit": false,
      "t": 62427.96787500013,
      "d": 87.12112500000512,
      "v": 117
    },
    {
      "midi": 60,
      "hit": false,
      "t": 62427.967875000766,
      "d": 37.87875000000349,
      "v": 127
    },
    {
      "midi": 55,
      "hit": false,
      "t": 62427.967875000766,
      "d": 68.18175000001065,
      "v": 127
    },
    {
      "midi": 38,
      "hit": false,
      "t": 62549.17987500014,
      "d": 356.06025000000227,
      "v": 123
    },
    {
      "midi": 38,
      "hit": false,
      "t": 62549.17987500077,
      "d": 397.72687500000757,
      "v": 127
    },
    {
      "midi": 65,
      "hit": false,
      "t": 62787.81600000077,
      "d": 94.69687500000873,
      "v": 127
    },
    {
      "midi": 62,
      "hit": false,
      "t": 62791.60387500077,
      "d": 68.18175000000338,
      "v": 127
    },
    {
      "midi": 57,
      "hit": false,
      "t": 62791.60387500077,
      "d": 71.96962500000518,
      "v": 127
    },
    {
      "midi": 40,
      "hit": false,
      "t": 62912.81587500078,
      "d": 378.7875000000131,
      "v": 127
    },
    {
      "midi": 40,
      "hit": false,
      "t": 62916.60375000014,
      "d": 356.06025000000227,
      "v": 125
    },
    {
      "midi": 65,
      "hit": false,
      "t": 63151.45200000078,
      "d": 94.69687500000873,
      "v": 127
    },
    {
      "midi": 57,
      "hit": false,
      "t": 63155.239875000785,
      "d": 68.18175000000338,
      "v": 127
    },
    {
      "midi": 62,
      "hit": false,
      "t": 63155.239875000785,
      "d": 71.96962500000518,
      "v": 127
    },
    {
      "midi": 41,
      "hit": false,
      "t": 63276.45187500079,
      "d": 363.6360000000059,
      "v": 127
    },
    {
      "midi": 41,
      "hit": false,
      "t": 63280.239750000146,
      "d": 344.69662499999686,
      "v": 127
    },
    {
      "midi": 62,
      "hit": false,
      "t": 63518.87587500079,
      "d": 53.030250000003434,
      "v": 127
    },
    {
      "midi": 57,
      "hit": false,
      "t": 63518.87587500079,
      "d": 79.54537500000151,
      "v": 127
    },
    {
      "midi": 65,
      "hit": false,
      "t": 63518.87587500079,
      "d": 117.424125000005,
      "v": 127
    },
    {
      "midi": 42,
      "hit": false,
      "t": 63643.875750000145,
      "d": 390.1511249999967,
      "v": 127
    },
    {
      "midi": 42,
      "hit": false,
      "t": 63643.8757500008,
      "d": 371.2117500000022,
      "v": 127
    },
    {
      "midi": 65,
      "hit": false,
      "t": 63878.7240000008,
      "d": 106.06049999999959,
      "v": 127
    },
    {
      "midi": 57,
      "hit": false,
      "t": 63882.511875000804,
      "d": 71.9696249999979,
      "v": 127
    },
    {
      "midi": 62,
      "hit": false,
      "t": 63882.511875000804,
      "d": 87.12112499999785,
      "v": 127
    },
    {
      "midi": 43,
      "hit": false,
      "t": 64003.72387500014,
      "d": 367.4238750000004,
      "v": 127
    },
    {
      "midi": 43,
      "hit": false,
      "t": 64003.723875000804,
      "d": 344.69662500000413,
      "v": 127
    },
    {
      "midi": 59,
      "hit": false,
      "t": 64246.1478750008,
      "d": 83.33325000000332,
      "v": 127
    },
    {
      "midi": 67,
      "hit": false,
      "t": 64246.1478750008,
      "d": 83.33325000000332,
      "v": 127
    },
    {
      "midi": 62,
      "hit": false,
      "t": 64246.1478750008,
      "d": 87.12112500000512,
      "v": 127
    },
    {
      "midi": 45,
      "hit": false,
      "t": 64367.35987500014,
      "d": 424.24199999999837,
      "v": 118
    },
    {
      "midi": 45,
      "hit": false,
      "t": 64367.35987500081,
      "d": 371.2117500000095,
      "v": 127
    },
    {
      "midi": 59,
      "hit": false,
      "t": 64609.78387500081,
      "d": 79.54537500000151,
      "v": 127
    },
    {
      "midi": 62,
      "hit": false,
      "t": 64609.78387500081,
      "d": 79.54537500000151,
      "v": 127
    },
    {
      "midi": 67,
      "hit": false,
      "t": 64609.78387500081,
      "d": 98.48475000000326,
      "v": 127
    },
    {
      "midi": 46,
      "hit": false,
      "t": 64730.99587500014,
      "d": 333.3329999999987,
      "v": 124
    },
    {
      "midi": 46,
      "hit": false,
      "t": 64730.995875000815,
      "d": 329.54512500001147,
      "v": 127
    },
    {
      "midi": 59,
      "hit": false,
      "t": 64969.63200000082,
      "d": 71.96962500000518,
      "v": 127
    },
    {
      "midi": 62,
      "hit": false,
      "t": 64973.41987500082,
      "d": 68.18175000000338,
      "v": 127
    },
    {
      "midi": 67,
      "hit": false,
      "t": 64973.41987500082,
      "d": 87.12112500000512,
      "v": 127
    },
    {
      "midi": 47,
      "hit": false,
      "t": 65094.63187500014,
      "d": 409.0904999999984,
      "v": 127
    },
    {
      "midi": 47,
      "hit": false,
      "t": 65094.63187500083,
      "d": 397.72687500000757,
      "v": 127
    },
    {
      "midi": 59,
      "hit": false,
      "t": 65337.05587500083,
      "d": 79.54537500000151,
      "v": 127
    },
    {
      "midi": 62,
      "hit": false,
      "t": 65337.05587500083,
      "d": 83.33325000000332,
      "v": 127
    },
    {
      "midi": 67,
      "hit": false,
      "t": 65337.05587500083,
      "d": 83.33325000000332,
      "v": 127
    },
    {
      "midi": 48,
      "hit": false,
      "t": 65458.267875000834,
      "d": 685.6053749999846,
      "v": 127
    },
    {
      "midi": 48,
      "hit": false,
      "t": 65462.05575000014,
      "d": 356.06025000000227,
      "v": 127
    },
    {
      "midi": 64,
      "hit": false,
      "t": 65696.90400000084,
      "d": 102.27262499999779,
      "v": 127
    },
    {
      "midi": 55,
      "hit": false,
      "t": 65700.69187500083,
      "d": 60.60599999999977,
      "v": 127
    },
    {
      "midi": 60,
      "hit": false,
      "t": 65700.69187500083,
      "d": 60.60599999999977,
      "v": 127
    },
    {
      "midi": 45,
      "hit": false,
      "t": 65821.90387500013,
      "d": 352.27237500000047,
      "v": 120
    },
    {
      "midi": 45,
      "hit": false,
      "t": 65821.90387500083,
      "d": 71.9696249999979,
      "v": 127
    },
    {
      "midi": 55,
      "hit": false,
      "t": 66064.32787500083,
      "d": 71.9696249999979,
      "v": 127
    },
    {
      "midi": 64,
      "hit": false,
      "t": 66064.32787500083,
      "d": 71.9696249999979,
      "v": 127
    },
    {
      "midi": 60,
      "hit": false,
      "t": 66064.32787500083,
      "d": 75.75749999999243,
      "v": 127
    },
    {
      "midi": 43,
      "hit": false,
      "t": 66185.53987500082,
      "d": 340.9087500000023,
      "v": 127
    },
    {
      "midi": 43,
      "hit": false,
      "t": 66189.32775000014,
      "d": 761.3628749999916,
      "v": 119
    },
    {
      "midi": 64,
      "hit": false,
      "t": 66424.17600000082,
      "d": 71.9696249999979,
      "v": 127
    },
    {
      "midi": 55,
      "hit": false,
      "t": 66427.96387500082,
      "d": 68.18175000000338,
      "v": 127
    },
    {
      "midi": 60,
      "hit": false,
      "t": 66427.96387500082,
      "d": 68.18175000000338,
      "v": 127
    },
    {
      "midi": 40,
      "hit": false,
      "t": 66549.17587500015,
      "d": 11.363624999998137,
      "v": 127
    },
    {
      "midi": 40,
      "hit": false,
      "t": 66549.17587500082,
      "d": 367.4238749999786,
      "v": 127
    },
    {
      "midi": 60,
      "hit": false,
      "t": 66791.59987500081,
      "d": 64.3938749999943,
      "v": 127
    },
    {
      "midi": 55,
      "hit": false,
      "t": 66791.59987500081,
      "d": 68.18174999998882,
      "v": 127
    },
    {
      "midi": 64,
      "hit": false,
      "t": 66791.59987500081,
      "d": 87.12112499999057,
      "v": 127
    },
    {
      "midi": 36,
      "hit": false,
      "t": 66912.8118750008,
      "d": 367.4238749999786,
      "v": 127
    },
    {
      "midi": 36,
      "hit": false,
      "t": 66916.59975000014,
      "d": 727.2719999999827,
      "v": 127
    },
    {
      "midi": 64,
      "hit": false,
      "t": 67151.44800000079,
      "d": 90.90899999999965,
      "v": 127
    },
    {
      "midi": 55,
      "hit": false,
      "t": 67155.23587500078,
      "d": 68.18175000000338,
      "v": 127
    },
    {
      "midi": 60,
      "hit": false,
      "t": 67155.23587500078,
      "d": 83.3332500000106,
      "v": 127
    },
    {
      "midi": 46,
      "hit": false,
      "t": 67276.44787500078,
      "d": 344.6966249999823,
      "v": 127
    },
    {
      "midi": 64,
      "hit": false,
      "t": 67515.08400000077,
      "d": 75.75749999999243,
      "v": 127
    },
    {
      "midi": 55,
      "hit": false,
      "t": 67518.87187500077,
      "d": 68.18175000000338,
      "v": 127
    },
    {
      "midi": 60,
      "hit": false,
      "t": 67518.87187500077,
      "d": 68.18175000000338,
      "v": 127
    },
    {
      "midi": 45,
      "hit": false,
      "t": 67640.08387500013,
      "d": 359.8481249999895,
      "v": 109
    },
    {
      "midi": 45,
      "hit": false,
      "t": 67640.08387500077,
      "d": 356.06025000000955,
      "v": 127
    },
    {
      "midi": 55,
      "hit": false,
      "t": 67878.72000000077,
      "d": 71.9696249999979,
      "v": 127
    },
    {
      "midi": 60,
      "hit": false,
      "t": 67882.50787500077,
      "d": 68.18175000000338,
      "v": 127
    },
    {
      "midi": 64,
      "hit": false,
      "t": 67882.50787500077,
      "d": 87.12112500000512,
      "v": 127
    },
    {
      "midi": 43,
      "hit": false,
      "t": 68003.71987500078,
      "d": 333.3329999999987,
      "v": 127
    },
    {
      "midi": 43,
      "hit": false,
      "t": 68007.50775000012,
      "d": 314.393624999997,
      "v": 121
    },
    {
      "midi": 64,
      "hit": false,
      "t": 68242.35600000079,
      "d": 79.54537499998696,
      "v": 127
    },
    {
      "midi": 55,
      "hit": false,
      "t": 68246.14387500078,
      "d": 68.18175000000338,
      "v": 127
    },
    {
      "midi": 60,
      "hit": false,
      "t": 68246.14387500078,
      "d": 71.9696249999979,
      "v": 127
    },
    {
      "midi": 41,
      "hit": false,
      "t": 68367.35587500078,
      "d": 386.36325000000943,
      "v": 127
    },
    {
      "midi": 41,
      "hit": false,
      "t": 68371.14375000012,
      "d": 405.3026250000112,
      "v": 127
    },
    {
      "midi": 57,
      "hit": false,
      "t": 68609.77987500078,
      "d": 56.81812500000524,
      "v": 127
    },
    {
      "midi": 60,
      "hit": false,
      "t": 68609.77987500078,
      "d": 83.3332500000106,
      "v": 127
    },
    {
      "midi": 65,
      "hit": false,
      "t": 68609.77987500078,
      "d": 83.3332500000106,
      "v": 127
    },
    {
      "midi": 45,
      "hit": false,
      "t": 68730.99187500012,
      "d": 401.5147500000021,
      "v": 116
    },
    {
      "midi": 45,
      "hit": false,
      "t": 68730.9918750008,
      "d": 386.3632499999949,
      "v": 127
    },
    {
      "midi": 57,
      "hit": false,
      "t": 68973.41587500079,
      "d": 68.18175000000338,
      "v": 127
    },
    {
      "midi": 60,
      "hit": false,
      "t": 68973.41587500079,
      "d": 71.9696249999979,
      "v": 127
    },
    {
      "midi": 65,
      "hit": false,
      "t": 68973.41587500079,
      "d": 71.9696249999979,
      "v": 127
    },
    {
      "midi": 48,
      "hit": false,
      "t": 69094.62787500079,
      "d": 356.060249999995,
      "v": 127
    },
    {
      "midi": 48,
      "hit": false,
      "t": 69098.41575000013,
      "d": 685.6053749999992,
      "v": 121
    },
    {
      "midi": 60,
      "hit": false,
      "t": 69333.26400000078,
      "d": 71.9696249999979,
      "v": 127
    },
    {
      "midi": 57,
      "hit": false,
      "t": 69333.26400000078,
      "d": 90.90899999999965,
      "v": 127
    },
    {
      "midi": 65,
      "hit": false,
      "t": 69337.05187500078,
      "d": 68.18175000000338,
      "v": 127
    },
    {
      "midi": 45,
      "hit": false,
      "t": 69458.26387500079,
      "d": 321.9693750000006,
      "v": 127
    },
    {
      "midi": 45,
      "hit": false,
      "t": 69462.05175000013,
      "d": 11.363624999998137,
      "v": 118
    },
    {
      "midi": 60,
      "hit": false,
      "t": 69700.68787500079,
      "d": 68.18175000000338,
      "v": 127
    },
    {
      "midi": 57,
      "hit": false,
      "t": 69700.68787500079,
      "d": 71.9696249999979,
      "v": 127
    },
    {
      "midi": 65,
      "hit": false,
      "t": 69700.68787500079,
      "d": 71.9696249999979,
      "v": 127
    },
    {
      "midi": 43,
      "hit": false,
      "t": 69821.89987500013,
      "d": 405.3026249999966,
      "v": 127
    },
    {
      "midi": 43,
      "hit": false,
      "t": 69821.89987500079,
      "d": 416.66624999999476,
      "v": 127
    },
    {
      "midi": 59,
      "hit": false,
      "t": 70060.5360000008,
      "d": 71.9696249999979,
      "v": 127
    },
    {
      "midi": 62,
      "hit": false,
      "t": 70060.5360000008,
      "d": 71.9696249999979,
      "v": 127
    },
    {
      "midi": 67,
      "hit": false,
      "t": 70064.32387500079,
      "d": 87.12112500000512,
      "v": 127
    },
    {
      "midi": 47,
      "hit": false,
      "t": 70185.53587500013,
      "d": 352.27237500000047,
      "v": 118
    },
    {
      "midi": 47,
      "hit": false,
      "t": 70185.53587500079,
      "d": 352.2723749999859,
      "v": 127
    },
    {
      "midi": 67,
      "hit": false,
      "t": 70424.17200000078,
      "d": 71.9696249999979,
      "v": 127
    },
    {
      "midi": 62,
      "hit": false,
      "t": 70427.95987500077,
      "d": 68.18175000000338,
      "v": 127
    },
    {
      "midi": 59,
      "hit": false,
      "t": 70427.95987500077,
      "d": 71.9696249999979,
      "v": 127
    },
    {
      "midi": 50,
      "hit": false,
      "t": 70549.17187500013,
      "d": 700.7568750000064,
      "v": 110
    },
    {
      "midi": 50,
      "hit": false,
      "t": 70549.17187500077,
      "d": 719.6962500000227,
      "v": 127
    },
    {
      "midi": 59,
      "hit": false,
      "t": 70787.80800000078,
      "d": 79.54537500000151,
      "v": 127
    },
    {
      "midi": 67,
      "hit": false,
      "t": 70787.80800000078,
      "d": 98.48475000000326,
      "v": 127
    },
    {
      "midi": 62,
      "hit": false,
      "t": 70791.59587500077,
      "d": 60.60599999999977,
      "v": 127
    },
    {
      "midi": 47,
      "hit": false,
      "t": 70912.80787500013,
      "d": 45.4545000000071,
      "v": 113
    },
    {
      "midi": 47,
      "hit": false,
      "t": 70912.80787500078,
      "d": 34.09087499999441,
      "v": 127
    },
    {
      "midi": 67,
      "hit": false,
      "t": 71155.23187500078,
      "d": 68.18175000000338,
      "v": 127
    },
    {
      "midi": 59,
      "hit": false,
      "t": 71155.23187500078,
      "d": 87.12112500000512,
      "v": 127
    },
    {
      "midi": 62,
      "hit": false,
      "t": 71155.23187500078,
      "d": 87.12112500000512,
      "v": 127
    },
    {
      "midi": 41,
      "hit": false,
      "t": 71276.4438750008,
      "d": 359.8481250000041,
      "v": 127
    },
    {
      "midi": 41,
      "hit": false,
      "t": 71280.23175000014,
      "d": 382.57537500000035,
      "v": 127
    },
    {
      "midi": 60,
      "hit": false,
      "t": 71515.0800000008,
      "d": 87.12112500000512,
      "v": 127
    },
    {
      "midi": 65,
      "hit": false,
      "t": 71515.0800000008,
      "d": 87.12112500000512,
      "v": 127
    },
    {
      "midi": 57,
      "hit": false,
      "t": 71518.8678750008,
      "d": 68.18175000000338,
      "v": 127
    },
    {
      "midi": 45,
      "hit": false,
      "t": 71643.86775000014,
      "d": 390.15112500000396,
      "v": 125
    },
    {
      "midi": 45,
      "hit": false,
      "t": 71643.8677500008,
      "d": 412.87837500000023,
      "v": 127
    },
    {
      "midi": 57,
      "hit": false,
      "t": 71882.50387500081,
      "d": 60.60599999999977,
      "v": 127
    },
    {
      "midi": 65,
      "hit": false,
      "t": 71882.50387500081,
      "d": 64.3938749999943,
      "v": 127
    },
    {
      "midi": 60,
      "hit": false,
      "t": 71882.50387500081,
      "d": 79.54537500000151,
      "v": 127
    },
    {
      "midi": 48,
      "hit": false,
      "t": 72003.71587500081,
      "d": 712.1204999999754,
      "v": 127
    },
    {
      "midi": 48,
      "hit": false,
      "t": 72007.50375000013,
      "d": 329.5451250000042,
      "v": 127
    },
    {
      "midi": 60,
      "hit": false,
      "t": 72242.3520000008,
      "d": 75.75749999999243,
      "v": 127
    },
    {
      "midi": 65,
      "hit": false,
      "t": 72242.3520000008,
      "d": 75.75749999999243,
      "v": 127
    },
    {
      "midi": 57,
      "hit": false,
      "t": 72246.1398750008,
      "d": 68.18175000000338,
      "v": 127
    },
    {
      "midi": 45,
      "hit": false,
      "t": 72367.35187500014,
      "d": 306.81787499999336,
      "v": 118
    },
    {
      "midi": 45,
      "hit": false,
      "t": 72367.3518750008,
      "d": 7.575750000003609,
      "v": 127
    },
    {
      "midi": 57,
      "hit": false,
      "t": 72609.77587500079,
      "d": 56.81812500000524,
      "v": 127
    },
    {
      "midi": 65,
      "hit": false,
      "t": 72609.77587500079,
      "d": 60.60599999999977,
      "v": 127
    },
    {
      "midi": 60,
      "hit": false,
      "t": 72609.77587500079,
      "d": 83.33324999999604,
      "v": 127
    },
    {
      "midi": 43,
      "hit": false,
      "t": 72730.98787500014,
      "d": 670.4538750000065,
      "v": 127
    },
    {
      "midi": 43,
      "hit": false,
      "t": 72730.98787500079,
      "d": 401.51475000001665,
      "v": 127
    },
    {
      "midi": 62,
      "hit": false,
      "t": 72969.6240000008,
      "d": 87.12112500000512,
      "v": 127
    },
    {
      "midi": 59,
      "hit": false,
      "t": 72973.41187500079,
      "d": 68.18175000000338,
      "v": 127
    },
    {
      "midi": 67,
      "hit": false,
      "t": 72973.41187500079,
      "d": 83.3332500000106,
      "v": 127
    },
    {
      "midi": 47,
      "hit": false,
      "t": 73094.6238750008,
      "d": 367.42387499999313,
      "v": 127
    },
    {
      "midi": 47,
      "hit": false,
      "t": 73212.04800000014,
      "d": 280.30275000000256,
      "v": 116
    },
    {
      "midi": 59,
      "hit": false,
      "t": 73337.0478750008,
      "d": 68.18175000000338,
      "v": 127
    },
    {
      "midi": 67,
      "hit": false,
      "t": 73337.0478750008,
      "d": 68.18175000000338,
      "v": 127
    },
    {
      "midi": 62,
      "hit": false,
      "t": 73337.0478750008,
      "d": 71.9696249999979,
      "v": 127
    },
    {
      "midi": 50,
      "hit": false,
      "t": 73458.25987500015,
      "d": 666.6659999999974,
      "v": 111
    },
    {
      "midi": 50,
      "hit": false,
      "t": 73458.2598750008,
      "d": 367.4238749999786,
      "v": 127
    },
    {
      "midi": 62,
      "hit": false,
      "t": 73700.6838750008,
      "d": 64.3938749999943,
      "v": 127
    },
    {
      "midi": 59,
      "hit": false,
      "t": 73700.6838750008,
      "d": 87.12112499999057,
      "v": 127
    },
    {
      "midi": 67,
      "hit": false,
      "t": 73700.6838750008,
      "d": 87.12112499999057,
      "v": 127
    },
    {
      "midi": 47,
      "hit": false,
      "t": 73821.89587500015,
      "d": 22.727249999996275,
      "v": 123
    },
    {
      "midi": 43,
      "hit": false,
      "t": 73821.89587500079,
      "d": 299.2421250000043,
      "v": 127
    },
    {
      "midi": 59,
      "hit": false,
      "t": 74064.31987500079,
      "d": 68.18175000000338,
      "v": 127
    },
    {
      "midi": 67,
      "hit": false,
      "t": 74064.31987500079,
      "d": 68.18175000000338,
      "v": 127
    },
    {
      "midi": 62,
      "hit": false,
      "t": 74064.31987500079,
      "d": 71.9696249999979,
      "v": 127
    },
    {
      "midi": 36,
      "hit": false,
      "t": 74185.53187500015,
      "d": 382.57537500000035,
      "v": 127
    },
    {
      "midi": 36,
      "hit": false,
      "t": 74185.53187500079,
      "d": 409.0905000000057,
      "v": 127
    },
    {
      "midi": 55,
      "hit": false,
      "t": 74424.16800000079,
      "d": 71.9696249999979,
      "v": 127
    },
    {
      "midi": 60,
      "hit": false,
      "t": 74424.16800000079,
      "d": 71.9696249999979,
      "v": 127
    },
    {
      "midi": 64,
      "hit": false,
      "t": 74427.95587500079,
      "d": 68.18175000000338,
      "v": 127
    },
    {
      "midi": 40,
      "hit": false,
      "t": 74549.16787500078,
      "d": 397.72687500000757,
      "v": 127
    },
    {
      "midi": 38,
      "hit": false,
      "t": 74552.95575000014,
      "d": 30.303000000014435,
      "v": 106
    },
    {
      "midi": 40,
      "hit": false,
      "t": 74552.95575000014,
      "d": 356.06025000000955,
      "v": 115
    },
    {
      "midi": 60,
      "hit": false,
      "t": 74791.5918750008,
      "d": 60.60599999999977,
      "v": 127
    },
    {
      "midi": 64,
      "hit": false,
      "t": 74791.5918750008,
      "d": 79.54537500000151,
      "v": 127
    },
    {
      "midi": 55,
      "hit": false,
      "t": 74791.5918750008,
      "d": 83.33324999999604,
      "v": 127
    },
    {
      "midi": 43,
      "hit": false,
      "t": 74912.80387500014,
      "d": 367.42387499999313,
      "v": 127
    },
    {
      "midi": 43,
      "hit": false,
      "t": 74912.8038750008,
      "d": 374.99962499996764,
      "v": 127
    },
    {
      "midi": 64,
      "hit": false,
      "t": 75151.44000000079,
      "d": 68.18174999998882,
      "v": 127
    },
    {
      "midi": 60,
      "hit": false,
      "t": 75155.22787500078,
      "d": 64.3938749999943,
      "v": 127
    },
    {
      "midi": 55,
      "hit": false,
      "t": 75155.22787500078,
      "d": 87.12112499999057,
      "v": 127
    },
    {
      "midi": 45,
      "hit": false,
      "t": 75276.43987500077,
      "d": 246.2118749999936,
      "v": 127
    },
    {
      "midi": 45,
      "hit": false,
      "t": 75280.22775000014,
      "d": 257.5755000000063,
      "v": 113
    },
    {
      "midi": 55,
      "hit": false,
      "t": 75518.86387500077,
      "d": 79.54537500000151,
      "v": 127
    },
    {
      "midi": 60,
      "hit": false,
      "t": 75518.86387500077,
      "d": 79.54537500000151,
      "v": 127
    },
    {
      "midi": 64,
      "hit": false,
      "t": 75518.86387500077,
      "d": 79.54537500000151,
      "v": 127
    },
    {
      "midi": 43,
      "hit": false,
      "t": 75518.86387500077,
      "d": 124.99987499999406,
      "v": 127
    },
    {
      "midi": 43,
      "hit": false,
      "t": 75522.65175000014,
      "d": 83.3332500000106,
      "v": 127
    },
    {
      "midi": 36,
      "hit": false,
      "t": 75640.07587500014,
      "d": 378.78749999999127,
      "v": 127
    },
    {
      "midi": 36,
      "hit": false,
      "t": 75640.07587500077,
      "d": 405.3026249999821,
      "v": 127
    },
    {
      "midi": 64,
      "hit": false,
      "t": 75878.71200000076,
      "d": 75.75749999999243,
      "v": 127
    },
    {
      "midi": 55,
      "hit": false,
      "t": 75878.71200000076,
      "d": 79.54537499998696,
      "v": 127
    },
    {
      "midi": 60,
      "hit": false,
      "t": 75882.49987500075,
      "d": 71.9696249999979,
      "v": 127
    },
    {
      "midi": 40,
      "hit": false,
      "t": 76003.71187500075,
      "d": 424.24199999999837,
      "v": 127
    },
    {
      "midi": 40,
      "hit": false,
      "t": 76007.49975000013,
      "d": 382.57537500000035,
      "v": 127
    },
    {
      "midi": 55,
      "hit": false,
      "t": 76246.13587500075,
      "d": 68.18175000000338,
      "v": 127
    },
    {
      "midi": 60,
      "hit": false,
      "t": 76246.13587500075,
      "d": 68.18175000000338,
      "v": 127
    },
    {
      "midi": 64,
      "hit": false,
      "t": 76246.13587500075,
      "d": 87.12112500000512,
      "v": 127
    },
    {
      "midi": 43,
      "hit": false,
      "t": 76367.34787500014,
      "d": 333.3329999999987,
      "v": 124
    },
    {
      "midi": 48,
      "hit": false,
      "t": 76367.34787500075,
      "d": 359.8481250000041,
      "v": 127
    },
    {
      "midi": 55,
      "hit": false,
      "t": 76609.77187500075,
      "d": 68.18175000000338,
      "v": 127
    },
    {
      "midi": 60,
      "hit": false,
      "t": 76609.77187500075,
      "d": 68.18175000000338,
      "v": 127
    },
    {
      "midi": 64,
      "hit": false,
      "t": 76609.77187500075,
      "d": 90.90899999999965,
      "v": 127
    },
    {
      "midi": 45,
      "hit": false,
      "t": 76734.77175000013,
      "d": 272.72699999999895,
      "v": 113
    },
    {
      "midi": 45,
      "hit": false,
      "t": 76734.77175000076,
      "d": 374.9996250000113,
      "v": 127
    },
    {
      "midi": 43,
      "hit": false,
      "t": 76973.40787500014,
      "d": 102.27262499999779,
      "v": 127
    },
    {
      "midi": 55,
      "hit": false,
      "t": 76973.40787500076,
      "d": 68.18175000000338,
      "v": 127
    },
    {
      "midi": 60,
      "hit": false,
      "t": 76973.40787500076,
      "d": 68.18175000000338,
      "v": 127
    },
    {
      "midi": 64,
      "hit": false,
      "t": 76973.40787500076,
      "d": 71.9696249999979,
      "v": 127
    },
    {
      "midi": 36,
      "hit": false,
      "t": 77094.61987500076,
      "d": 382.57537500000035,
      "v": 127
    },
    {
      "midi": 36,
      "hit": false,
      "t": 77098.40775000013,
      "d": 352.27237500000047,
      "v": 127
    },
    {
      "midi": 55,
      "hit": false,
      "t": 77333.25600000077,
      "d": 75.75749999999243,
      "v": 127
    },
    {
      "midi": 64,
      "hit": false,
      "t": 77333.25600000077,
      "d": 94.69687499999418,
      "v": 127
    },
    {
      "midi": 60,
      "hit": false,
      "t": 77337.04387500076,
      "d": 71.9696249999979,
      "v": 127
    },
    {
      "midi": 40,
      "hit": false,
      "t": 77458.25587500076,
      "d": 409.09049999999115,
      "v": 127
    },
    {
      "midi": 40,
      "hit": false,
      "t": 77462.04375000013,
      "d": 374.9996250000113,
      "v": 127
    },
    {
      "midi": 64,
      "hit": false,
      "t": 77696.89200000076,
      "d": 90.9089999999851,
      "v": 127
    },
    {
      "midi": 55,
      "hit": false,
      "t": 77700.67987500076,
      "d": 64.3938749999943,
      "v": 127
    },
    {
      "midi": 60,
      "hit": false,
      "t": 77700.67987500076,
      "d": 68.18174999998882,
      "v": 127
    },
    {
      "midi": 43,
      "hit": false,
      "t": 77821.89187500013,
      "d": 348.48450000000594,
      "v": 124
    },
    {
      "midi": 43,
      "hit": false,
      "t": 77821.89187500074,
      "d": 348.4845000000205,
      "v": 127
    },
    {
      "midi": 55,
      "hit": false,
      "t": 78064.31587500076,
      "d": 68.18175000000338,
      "v": 127
    },
    {
      "midi": 60,
      "hit": false,
      "t": 78064.31587500076,
      "d": 68.18175000000338,
      "v": 127
    },
    {
      "midi": 64,
      "hit": false,
      "t": 78064.31587500076,
      "d": 90.90899999999965,
      "v": 127
    },
    {
      "midi": 45,
      "hit": false,
      "t": 78185.52787500077,
      "d": 253.7876249999972,
      "v": 127
    },
    {
      "midi": 45,
      "hit": false,
      "t": 78189.31575000014,
      "d": 253.7876249999972,
      "v": 113
    },
    {
      "midi": 55,
      "hit": false,
      "t": 78427.95187500077,
      "d": 79.54537500000151,
      "v": 127
    },
    {
      "midi": 60,
      "hit": false,
      "t": 78427.95187500077,
      "d": 83.33324999999604,
      "v": 127
    },
    {
      "midi": 64,
      "hit": false,
      "t": 78427.95187500077,
      "d": 83.33324999999604,
      "v": 127
    },
    {
      "midi": 43,
      "hit": false,
      "t": 78427.95187500077,
      "d": 124.99987499999406,
      "v": 127
    },
    {
      "midi": 43,
      "hit": false,
      "t": 78431.73975000014,
      "d": 83.33324999999604,
      "v": 119
    },
    {
      "midi": 36,
      "hit": false,
      "t": 78549.16387500013,
      "d": 359.8481250000041,
      "v": 121
    },
    {
      "midi": 36,
      "hit": false,
      "t": 78549.16387500077,
      "d": 390.1511249999894,
      "v": 127
    },
    {
      "midi": 60,
      "hit": false,
      "t": 78787.80000000076,
      "d": 68.18174999998882,
      "v": 127
    },
    {
      "midi": 64,
      "hit": false,
      "t": 78787.80000000076,
      "d": 109.84837499998685,
      "v": 127
    },
    {
      "midi": 55,
      "hit": false,
      "t": 78791.58787500075,
      "d": 64.3938749999943,
      "v": 127
    },
    {
      "midi": 40,
      "hit": false,
      "t": 78912.79987500075,
      "d": 386.3632499999949,
      "v": 127
    },
    {
      "midi": 40,
      "hit": false,
      "t": 78916.58775000014,
      "d": 363.6359999999986,
      "v": 123
    },
    {
      "midi": 64,
      "hit": false,
      "t": 79151.43600000076,
      "d": 94.69687499999418,
      "v": 127
    },
    {
      "midi": 55,
      "hit": false,
      "t": 79155.22387500075,
      "d": 68.18175000000338,
      "v": 127
    },
    {
      "midi": 60,
      "hit": false,
      "t": 79155.22387500075,
      "d": 68.18175000000338,
      "v": 127
    },
    {
      "midi": 43,
      "hit": false,
      "t": 79276.43587500014,
      "d": 352.27237500000047,
      "v": 119
    },
    {
      "midi": 43,
      "hit": false,
      "t": 79276.43587500075,
      "d": 344.6966249999823,
      "v": 127
    },
    {
      "midi": 55,
      "hit": false,
      "t": 79515.07200000074,
      "d": 75.75749999999243,
      "v": 127
    },
    {
      "midi": 64,
      "hit": false,
      "t": 79515.07200000074,
      "d": 94.69687499999418,
      "v": 127
    },
    {
      "midi": 60,
      "hit": false,
      "t": 79518.85987500074,
      "d": 71.9696249999979,
      "v": 127
    },
    {
      "midi": 45,
      "hit": false,
      "t": 79640.07187500014,
      "d": 246.2118749999936,
      "v": 113
    },
    {
      "midi": 45,
      "hit": false,
      "t": 79640.07187500074,
      "d": 272.72699999999895,
      "v": 127
    },
    {
      "midi": 60,
      "hit": false,
      "t": 79882.49587500074,
      "d": 68.18175000000338,
      "v": 127
    },
    {
      "midi": 64,
      "hit": false,
      "t": 79882.49587500074,
      "d": 75.75750000000698,
      "v": 127
    },
    {
      "midi": 55,
      "hit": false,
      "t": 79882.49587500074,
      "d": 94.69687500000873,
      "v": 127
    },
    {
      "midi": 43,
      "hit": false,
      "t": 79882.49587500074,
      "d": 106.06050000000687,
      "v": 127
    },
    {
      "midi": 43,
      "hit": false,
      "t": 79886.28375000013,
      "d": 90.90899999999965,
      "v": 121
    },
    {
      "midi": 36,
      "hit": false,
      "t": 80003.70787500075,
      "d": 356.06025000000955,
      "v": 127
    },
    {
      "midi": 36,
      "hit": false,
      "t": 80007.49575000013,
      "d": 352.27237500000047,
      "v": 127
    },
    {
      "midi": 55,
      "hit": false,
      "t": 80242.34400000075,
      "d": 71.9696249999979,
      "v": 127
    },
    {
      "midi": 60,
      "hit": false,
      "t": 80246.13187500075,
      "d": 68.18175000000338,
      "v": 127
    },
    {
      "midi": 64,
      "hit": false,
      "t": 80246.13187500075,
      "d": 87.12112500000512,
      "v": 127
    },
    {
      "midi": 40,
      "hit": false,
      "t": 80367.34387500014,
      "d": 409.0905000000057,
      "v": 127
    },
    {
      "midi": 40,
      "hit": false,
      "t": 80367.34387500076,
      "d": 393.9389999999985,
      "v": 127
    },
    {
      "midi": 55,
      "hit": false,
      "t": 80605.98000000077,
      "d": 75.75749999999243,
      "v": 127
    },
    {
      "midi": 60,
      "hit": false,
      "t": 80609.76787500076,
      "d": 68.18175000000338,
      "v": 127
    },
    {
      "midi": 64,
      "hit": false,
      "t": 80609.76787500076,
      "d": 90.90899999999965,
      "v": 127
    },
    {
      "midi": 43,
      "hit": false,
      "t": 80730.97987500014,
      "d": 348.48450000000594,
      "v": 121
    },
    {
      "midi": 43,
      "hit": false,
      "t": 80730.97987500076,
      "d": 344.6966250000114,
      "v": 127
    },
    {
      "midi": 55,
      "hit": false,
      "t": 80969.61600000077,
      "d": 71.9696249999979,
      "v": 127
    },
    {
      "midi": 60,
      "hit": false,
      "t": 80973.40387500076,
      "d": 68.18175000000338,
      "v": 127
    },
    {
      "midi": 64,
      "hit": false,
      "t": 80973.40387500076,
      "d": 87.12112500000512,
      "v": 127
    },
    {
      "midi": 45,
      "hit": false,
      "t": 81094.61587500015,
      "d": 238.63612500000454,
      "v": 115
    },
    {
      "midi": 45,
      "hit": false,
      "t": 81094.61587500077,
      "d": 265.15124999999534,
      "v": 127
    },
    {
      "midi": 55,
      "hit": false,
      "t": 81337.03987500077,
      "d": 79.54537499998696,
      "v": 127
    },
    {
      "midi": 64,
      "hit": false,
      "t": 81337.03987500077,
      "d": 79.54537499998696,
      "v": 127
    },
    {
      "midi": 43,
      "hit": false,
      "t": 81337.03987500077,
      "d": 140.15137499998673,
      "v": 127
    },
    {
      "midi": 43,
      "hit": false,
      "t": 81340.82775000016,
      "d": 102.27262499999779,
      "v": 124
    },
    {
      "midi": 60,
      "hit": false,
      "t": 81340.82775000077,
      "d": 71.9696249999979,
      "v": 127
    },
    {
      "midi": 36,
      "hit": false,
      "t": 81458.25187500076,
      "d": 295.4542499999952,
      "v": 127
    },
    {
      "midi": 36,
      "hit": false,
      "t": 81462.03975000016,
      "d": 390.15112500000396,
      "v": 127
    },
    {
      "midi": 64,
      "hit": false,
      "t": 81696.88800000076,
      "d": 94.69687499999418,
      "v": 127
    },
    {
      "midi": 55,
      "hit": false,
      "t": 81700.67587500076,
      "d": 68.18175000000338,
      "v": 127
    },
    {
      "midi": 60,
      "hit": false,
      "t": 81700.67587500076,
      "d": 68.18175000000338,
      "v": 127
    },
    {
      "midi": 40,
      "hit": false,
      "t": 81821.88787500016,
      "d": 378.7875000000058,
      "v": 125
    },
    {
      "midi": 36,
      "hit": false,
      "t": 81821.88787500076,
      "d": 386.3632499999949,
      "v": 127
    },
    {
      "midi": 55,
      "hit": false,
      "t": 82060.52400000076,
      "d": 71.9696249999979,
      "v": 127
    },
    {
      "midi": 60,
      "hit": false,
      "t": 82064.31187500076,
      "d": 68.18175000000338,
      "v": 127
    },
    {
      "midi": 64,
      "hit": false,
      "t": 82064.31187500076,
      "d": 87.12112500000512,
      "v": 127
    },
    {
      "midi": 43,
      "hit": false,
      "t": 82185.52387500016,
      "d": 348.48450000000594,
      "v": 119
    },
    {
      "midi": 38,
      "hit": false,
      "t": 82185.52387500076,
      "d": 337.12087499999325,
      "v": 127
    },
    {
      "midi": 60,
      "hit": false,
      "t": 82427.94787500075,
      "d": 64.3938749999943,
      "v": 127
    },
    {
      "midi": 55,
      "hit": false,
      "t": 82427.94787500075,
      "d": 68.18174999998882,
      "v": 127
    },
    {
      "midi": 64,
      "hit": false,
      "t": 82427.94787500075,
      "d": 87.12112499999057,
      "v": 127
    },
    {
      "midi": 45,
      "hit": false,
      "t": 82549.15987500017,
      "d": 257.5755000000063,
      "v": 111
    },
    {
      "midi": 40,
      "hit": false,
      "t": 82549.15987500075,
      "d": 306.81787499999336,
      "v": 127
    },
    {
      "midi": 43,
      "hit": false,
      "t": 82791.58387500017,
      "d": 75.75750000000698,
      "v": 121
    },
    {
      "midi": 55,
      "hit": false,
      "t": 82791.58387500075,
      "d": 68.18174999998882,
      "v": 127
    },
    {
      "midi": 60,
      "hit": false,
      "t": 82791.58387500075,
      "d": 68.18174999998882,
      "v": 127
    },
    {
      "midi": 64,
      "hit": false,
      "t": 82791.58387500075,
      "d": 90.9089999999851,
      "v": 127
    },
    {
      "midi": 41,
      "hit": false,
      "t": 82912.79587500074,
      "d": 371.2117500000022,
      "v": 127
    },
    {
      "midi": 41,
      "hit": false,
      "t": 82916.58375000018,
      "d": 367.4238750000077,
      "v": 127
    },
    {
      "midi": 65,
      "hit": false,
      "t": 83151.43200000074,
      "d": 75.75749999999243,
      "v": 127
    },
    {
      "midi": 57,
      "hit": false,
      "t": 83155.21987500074,
      "d": 71.9696249999979,
      "v": 127
    },
    {
      "midi": 60,
      "hit": false,
      "t": 83155.21987500074,
      "d": 71.9696249999979,
      "v": 127
    },
    {
      "midi": 45,
      "hit": false,
      "t": 83276.43187500018,
      "d": 412.8783750000148,
      "v": 127
    },
    {
      "midi": 45,
      "hit": false,
      "t": 83276.43187500074,
      "d": 390.15112500000396,
      "v": 127
    },
    {
      "midi": 60,
      "hit": false,
      "t": 83518.85587500074,
      "d": 68.18175000000338,
      "v": 127
    },
    {
      "midi": 65,
      "hit": false,
      "t": 83518.85587500074,
      "d": 68.18175000000338,
      "v": 127
    },
    {
      "midi": 57,
      "hit": false,
      "t": 83518.85587500074,
      "d": 71.9696249999979,
      "v": 127
    },
    {
      "midi": 48,
      "hit": false,
      "t": 83640.06787500074,
      "d": 329.5451250000042,
      "v": 127
    },
    {
      "midi": 48,
      "hit": false,
      "t": 83643.85575000019,
      "d": 329.5451250000042,
      "v": 121
    },
    {
      "midi": 57,
      "hit": false,
      "t": 83878.70400000074,
      "d": 90.90899999999965,
      "v": 127
    },
    {
      "midi": 60,
      "hit": false,
      "t": 83882.49187500073,
      "d": 68.18175000000338,
      "v": 127
    },
    {
      "midi": 65,
      "hit": false,
      "t": 83882.49187500073,
      "d": 68.18175000000338,
      "v": 127
    },
    {
      "midi": 50,
      "hit": false,
      "t": 84003.7038750002,
      "d": 280.302749999988,
      "v": 115
    },
    {
      "midi": 50,
      "hit": false,
      "t": 84003.70387500073,
      "d": 253.7876249999972,
      "v": 127
    },
    {
      "midi": 57,
      "hit": false,
      "t": 84246.12787500073,
      "d": 79.54537500000151,
      "v": 127
    },
    {
      "midi": 60,
      "hit": false,
      "t": 84246.12787500073,
      "d": 79.54537500000151,
      "v": 127
    },
    {
      "midi": 65,
      "hit": false,
      "t": 84246.12787500073,
      "d": 79.54537500000151,
      "v": 127
    },
    {
      "midi": 48,
      "hit": false,
      "t": 84246.12787500073,
      "d": 128.78775000000314,
      "v": 127
    },
    {
      "midi": 48,
      "hit": false,
      "t": 84249.91575000019,
      "d": 98.48474999998871,
      "v": 114
    },
    {
      "midi": 41,
      "hit": false,
      "t": 84367.33987500073,
      "d": 367.42387499999313,
      "v": 127
    },
    {
      "midi": 41,
      "hit": false,
      "t": 84371.12775000017,
      "d": 401.5147500000021,
      "v": 127
    },
    {
      "midi": 57,
      "hit": false,
      "t": 84609.76387500073,
      "d": 71.9696249999979,
      "v": 127
    },
    {
      "midi": 60,
      "hit": false,
      "t": 84609.76387500073,
      "d": 71.9696249999979,
      "v": 127
    },
    {
      "midi": 65,
      "hit": false,
      "t": 84609.76387500073,
      "d": 71.9696249999979,
      "v": 127
    },
    {
      "midi": 45,
      "hit": false,
      "t": 84730.97587500018,
      "d": 416.66624999999476,
      "v": 120
    },
    {
      "midi": 45,
      "hit": false,
      "t": 84730.97587500073,
      "d": 401.51474999998754,
      "v": 127
    },
    {
      "midi": 65,
      "hit": false,
      "t": 84969.61200000072,
      "d": 71.9696249999979,
      "v": 127
    },
    {
      "midi": 57,
      "hit": false,
      "t": 84973.39987500072,
      "d": 68.18175000000338,
      "v": 127
    },
    {
      "midi": 60,
      "hit": false,
      "t": 84973.39987500072,
      "d": 68.18175000000338,
      "v": 127
    },
    {
      "midi": 48,
      "hit": false,
      "t": 85094.61187500072,
      "d": 367.42387499999313,
      "v": 127
    },
    {
      "midi": 48,
      "hit": false,
      "t": 85098.39975000017,
      "d": 329.5451250000042,
      "v": 119
    },
    {
      "midi": 57,
      "hit": false,
      "t": 85333.24800000072,
      "d": 71.9696249999979,
      "v": 127
    },
    {
      "midi": 60,
      "hit": false,
      "t": 85333.24800000072,
      "d": 71.9696249999979,
      "v": 127
    },
    {
      "midi": 65,
      "hit": false,
      "t": 85337.03587500071,
      "d": 71.9696249999979,
      "v": 127
    },
    {
      "midi": 50,
      "hit": false,
      "t": 85458.24787500071,
      "d": 284.0906249999971,
      "v": 127
    },
    {
      "midi": 50,
      "hit": false,
      "t": 85462.03575000017,
      "d": 284.0906249999971,
      "v": 113
    },
    {
      "midi": 57,
      "hit": false,
      "t": 85700.67187500071,
      "d": 79.54537500000151,
      "v": 127
    },
    {
      "midi": 65,
      "hit": false,
      "t": 85700.67187500071,
      "d": 79.54537500000151,
      "v": 127
    },
    {
      "midi": 60,
      "hit": false,
      "t": 85700.67187500071,
      "d": 83.33324999999604,
      "v": 127
    },
    {
      "midi": 48,
      "hit": false,
      "t": 85700.67187500071,
      "d": 109.8483750000014,
      "v": 127
    },
    {
      "midi": 48,
      "hit": false,
      "t": 85704.45975000017,
      "d": 87.12112500000512,
      "v": 117
    },
    {
      "midi": 36,
      "hit": false,
      "t": 85821.88387500017,
      "d": 386.3632499999949,
      "v": 117
    },
    {
      "midi": 36,
      "hit": false,
      "t": 85821.88387500071,
      "d": 371.2117500000022,
      "v": 127
    },
    {
      "midi": 60,
      "hit": false,
      "t": 86060.52000000072,
      "d": 75.75749999999243,
      "v": 127
    },
    {
      "midi": 55,
      "hit": false,
      "t": 86064.30787500071,
      "d": 68.18175000000338,
      "v": 127
    },
    {
      "midi": 64,
      "hit": false,
      "t": 86064.30787500071,
      "d": 90.90899999999965,
      "v": 127
    },
    {
      "midi": 40,
      "hit": false,
      "t": 86185.51987500071,
      "d": 325.75725000000966,
      "v": 127
    },
    {
      "midi": 40,
      "hit": false,
      "t": 86189.30775000017,
      "d": 405.3026250000112,
      "v": 127
    },
    {
      "midi": 55,
      "hit": false,
      "t": 86427.94387500071,
      "d": 68.18175000000338,
      "v": 127
    },
    {
      "midi": 60,
      "hit": false,
      "t": 86427.94387500071,
      "d": 68.18175000000338,
      "v": 127
    },
    {
      "midi": 64,
      "hit": false,
      "t": 86427.94387500071,
      "d": 87.12112500000512,
      "v": 127
    },
    {
      "midi": 43,
      "hit": false,
      "t": 86549.15587500017,
      "d": 348.48450000000594,
      "v": 117
    },
    {
      "midi": 43,
      "hit": false,
      "t": 86549.15587500071,
      "d": 371.2117500000022,
      "v": 127
    },
    {
      "midi": 55,
      "hit": false,
      "t": 86787.79200000071,
      "d": 71.9696249999979,
      "v": 127
    },
    {
      "midi": 64,
      "hit": false,
      "t": 86787.79200000071,
      "d": 71.9696249999979,
      "v": 127
    },
    {
      "midi": 60,
      "hit": false,
      "t": 86791.57987500071,
      "d": 68.18175000000338,
      "v": 127
    },
    {
      "midi": 45,
      "hit": false,
      "t": 86912.79187500018,
      "d": 276.5148749999935,
      "v": 109
    },
    {
      "midi": 45,
      "hit": false,
      "t": 86912.79187500071,
      "d": 265.15124999999534,
      "v": 127
    },
    {
      "midi": 55,
      "hit": false,
      "t": 87155.21587500071,
      "d": 79.54537500000151,
      "v": 127
    },
    {
      "midi": 64,
      "hit": false,
      "t": 87155.21587500071,
      "d": 83.33324999999604,
      "v": 127
    },
    {
      "midi": 43,
      "hit": false,
      "t": 87155.21587500071,
      "d": 106.06049999999232,
      "v": 127
    },
    {
      "midi": 43,
      "hit": false,
      "t": 87159.00375000018,
      "d": 102.27262499999779,
      "v": 119
    },
    {
      "midi": 60,
      "hit": false,
      "t": 87159.0037500007,
      "d": 75.75750000000698,
      "v": 127
    },
    {
      "midi": 36,
      "hit": false,
      "t": 87276.42787500018,
      "d": 401.5147500000021,
      "v": 121
    },
    {
      "midi": 36,
      "hit": false,
      "t": 87276.4278750007,
      "d": 397.726874999993,
      "v": 127
    },
    {
      "midi": 64,
      "hit": false,
      "t": 87515.06400000071,
      "d": 64.3938749999943,
      "v": 127
    },
    {
      "midi": 55,
      "hit": false,
      "t": 87515.06400000071,
      "d": 87.12112499999057,
      "v": 127
    },
    {
      "midi": 60,
      "hit": false,
      "t": 87518.8518750007,
      "d": 60.60599999999977,
      "v": 127
    },
    {
      "midi": 40,
      "hit": false,
      "t": 87640.06387500018,
      "d": 393.93900000001304,
      "v": 127
    },
    {
      "midi": 40,
      "hit": false,
      "t": 87640.0638750007,
      "d": 382.5753749999858,
      "v": 127
    },
    {
      "midi": 64,
      "hit": false,
      "t": 87878.7000000007,
      "d": 90.90899999999965,
      "v": 127
    },
    {
      "midi": 55,
      "hit": false,
      "t": 87882.48787500069,
      "d": 68.18175000000338,
      "v": 127
    },
    {
      "midi": 60,
      "hit": false,
      "t": 87882.48787500069,
      "d": 68.18175000000338,
      "v": 127
    },
    {
      "midi": 43,
      "hit": false,
      "t": 88003.69987500069,
      "d": 348.48450000000594,
      "v": 127
    },
    {
      "midi": 43,
      "hit": false,
      "t": 88007.48775000019,
      "d": 329.5451250000042,
      "v": 119
    },
    {
      "midi": 55,
      "hit": false,
      "t": 88242.3360000007,
      "d": 71.9696249999979,
      "v": 127
    },
    {
      "midi": 60,
      "hit": false,
      "t": 88246.12387500069,
      "d": 68.18175000000338,
      "v": 127
    },
    {
      "midi": 64,
      "hit": false,
      "t": 88246.12387500069,
      "d": 68.18175000000338,
      "v": 127
    },
    {
      "midi": 45,
      "hit": false,
      "t": 88367.3358750002,
      "d": 268.9391250000044,
      "v": 109
    },
    {
      "midi": 45,
      "hit": false,
      "t": 88367.3358750007,
      "d": 333.3329999999987,
      "v": 127
    },
    {
      "midi": 55,
      "hit": false,
      "t": 88605.97200000071,
      "d": 64.3938749999943,
      "v": 127
    },
    {
      "midi": 43,
      "hit": false,
      "t": 88609.75987500019,
      "d": 87.12112500000512,
      "v": 127
    },
    {
      "midi": 60,
      "hit": false,
      "t": 88609.7598750007,
      "d": 34.09087499999441,
      "v": 127
    },
    {
      "midi": 64,
      "hit": false,
      "t": 88609.7598750007,
      "d": 87.12112500000512,
      "v": 127
    },
    {
      "midi": 38,
      "hit": false,
      "t": 88730.97187500019,
      "d": 359.8481250000041,
      "v": 125
    },
    {
      "midi": 38,
      "hit": false,
      "t": 88730.9718750007,
      "d": 397.72687500000757,
      "v": 127
    },
    {
      "midi": 65,
      "hit": false,
      "t": 88969.6080000007,
      "d": 102.27262499999779,
      "v": 127
    },
    {
      "midi": 57,
      "hit": false,
      "t": 88973.3958750007,
      "d": 60.60599999999977,
      "v": 127
    },
    {
      "midi": 62,
      "hit": false,
      "t": 88973.3958750007,
      "d": 75.75750000000698,
      "v": 127
    },
    {
      "midi": 40,
      "hit": false,
      "t": 89098.3957500002,
      "d": 393.9389999999985,
      "v": 127
    },
    {
      "midi": 40,
      "hit": false,
      "t": 89098.39575000071,
      "d": 371.2117500000022,
      "v": 127
    },
    {
      "midi": 62,
      "hit": false,
      "t": 89337.03187500071,
      "d": 56.81812500000524,
      "v": 127
    },
    {
      "midi": 57,
      "hit": false,
      "t": 89337.03187500071,
      "d": 83.3332500000106,
      "v": 127
    },
    {
      "midi": 65,
      "hit": false,
      "t": 89337.03187500071,
      "d": 87.12112500000512,
      "v": 127
    },
    {
      "midi": 41,
      "hit": false,
      "t": 89458.2438750002,
      "d": 367.42387499999313,
      "v": 127
    },
    {
      "midi": 41,
      "hit": false,
      "t": 89458.24387500071,
      "d": 393.9389999999985,
      "v": 127
    },
    {
      "midi": 57,
      "hit": false,
      "t": 89696.88000000072,
      "d": 71.9696249999979,
      "v": 127
    },
    {
      "midi": 65,
      "hit": false,
      "t": 89696.88000000072,
      "d": 71.9696249999979,
      "v": 127
    },
    {
      "midi": 62,
      "hit": false,
      "t": 89700.66787500071,
      "d": 68.18175000000338,
      "v": 127
    },
    {
      "midi": 42,
      "hit": false,
      "t": 89821.8798750002,
      "d": 397.726874999993,
      "v": 123
    },
    {
      "midi": 42,
      "hit": false,
      "t": 89821.87987500071,
      "d": 386.36325000000943,
      "v": 127
    },
    {
      "midi": 62,
      "hit": false,
      "t": 90064.30387500071,
      "d": 56.81812500000524,
      "v": 127
    },
    {
      "midi": 57,
      "hit": false,
      "t": 90064.30387500071,
      "d": 87.12112500000512,
      "v": 127
    },
    {
      "midi": 65,
      "hit": false,
      "t": 90064.30387500071,
      "d": 106.06050000000687,
      "v": 127
    },
    {
      "midi": 43,
      "hit": false,
      "t": 90185.51587500072,
      "d": 306.8178749999788,
      "v": 127
    },
    {
      "midi": 43,
      "hit": false,
      "t": 90189.3037500002,
      "d": 378.7875000000058,
      "v": 124
    },
    {
      "midi": 59,
      "hit": false,
      "t": 90424.15200000071,
      "d": 68.18174999998882,
      "v": 127
    },
    {
      "midi": 55,
      "hit": false,
      "t": 90424.15200000071,
      "d": 87.12112499999057,
      "v": 127
    },
    {
      "midi": 62,
      "hit": false,
      "t": 90427.93987500071,
      "d": 68.18174999998882,
      "v": 127
    },
    {
      "midi": 45,
      "hit": false,
      "t": 90549.15187500071,
      "d": 371.2117500000022,
      "v": 127
    },
    {
      "midi": 45,
      "hit": false,
      "t": 90552.9397500002,
      "d": 371.2117500000022,
      "v": 115
    },
    {
      "midi": 62,
      "hit": false,
      "t": 90791.57587500071,
      "d": 60.60599999999977,
      "v": 127
    },
    {
      "midi": 55,
      "hit": false,
      "t": 90791.57587500071,
      "d": 64.3938749999943,
      "v": 127
    },
    {
      "midi": 59,
      "hit": false,
      "t": 90791.57587500071,
      "d": 64.3938749999943,
      "v": 127
    },
    {
      "midi": 46,
      "hit": false,
      "t": 90912.7878750002,
      "d": 348.4844999999914,
      "v": 127
    },
    {
      "midi": 46,
      "hit": false,
      "t": 90912.78787500071,
      "d": 340.9087500000023,
      "v": 127
    },
    {
      "midi": 59,
      "hit": false,
      "t": 91151.42400000071,
      "d": 64.3938749999943,
      "v": 127
    },
    {
      "midi": 55,
      "hit": false,
      "t": 91151.42400000071,
      "d": 87.12112499999057,
      "v": 127
    },
    {
      "midi": 62,
      "hit": false,
      "t": 91155.2118750007,
      "d": 60.60599999999977,
      "v": 127
    },
    {
      "midi": 47,
      "hit": false,
      "t": 91276.4238750007,
      "d": 378.7875000000058,
      "v": 127
    },
    {
      "midi": 47,
      "hit": false,
      "t": 91280.21175000019,
      "d": 386.36325000000943,
      "v": 125
    },
    {
      "midi": 59,
      "hit": false,
      "t": 91518.8478750007,
      "d": 60.60599999999977,
      "v": 127
    },
    {
      "midi": 62,
      "hit": false,
      "t": 91518.8478750007,
      "d": 64.3938749999943,
      "v": 127
    },
    {
      "midi": 55,
      "hit": false,
      "t": 91518.8478750007,
      "d": 79.54537500000151,
      "v": 127
    },
    {
      "midi": 48,
      "hit": false,
      "t": 91640.0598750002,
      "d": 719.6962500000081,
      "v": 127
    },
    {
      "midi": 48,
      "hit": false,
      "t": 91640.0598750007,
      "d": 712.1205000000045,
      "v": 127
    },
    {
      "midi": 55,
      "hit": false,
      "t": 91878.69600000071,
      "d": 71.9696249999979,
      "v": 127
    },
    {
      "midi": 64,
      "hit": false,
      "t": 91878.69600000071,
      "d": 90.90899999999965,
      "v": 127
    },
    {
      "midi": 60,
      "hit": false,
      "t": 91882.4838750007,
      "d": 71.9696249999979,
      "v": 127
    },
    {
      "midi": 45,
      "hit": false,
      "t": 92003.6958750007,
      "d": 3.7878749999945285,
      "v": 127
    },
    {
      "midi": 45,
      "hit": false,
      "t": 92007.4837500002,
      "d": 30.302999999999884,
      "v": 115
    },
    {
      "midi": 60,
      "hit": false,
      "t": 92246.1198750007,
      "d": 34.09087499999441,
      "v": 127
    },
    {
      "midi": 55,
      "hit": false,
      "t": 92246.1198750007,
      "d": 64.3938749999943,
      "v": 127
    },
    {
      "midi": 64,
      "hit": false,
      "t": 92246.1198750007,
      "d": 90.90899999999965,
      "v": 127
    },
    {
      "midi": 43,
      "hit": false,
      "t": 92367.33187500072,
      "d": 340.9087500000023,
      "v": 127
    },
    {
      "midi": 43,
      "hit": false,
      "t": 92371.1197500002,
      "d": 731.0598749999917,
      "v": 127
    },
    {
      "midi": 55,
      "hit": false,
      "t": 92605.96800000072,
      "d": 64.3938749999943,
      "v": 127
    },
    {
      "midi": 64,
      "hit": false,
      "t": 92605.96800000072,
      "d": 90.90899999999965,
      "v": 127
    },
    {
      "midi": 60,
      "hit": false,
      "t": 92609.75587500072,
      "d": 30.302999999999884,
      "v": 127
    },
    {
      "midi": 40,
      "hit": false,
      "t": 92730.96787500072,
      "d": 367.42387499999313,
      "v": 127
    },
    {
      "midi": 40,
      "hit": false,
      "t": 92734.7557500002,
      "d": 3.7878749999945285,
      "v": 120
    },
    {
      "midi": 64,
      "hit": false,
      "t": 92969.60400000072,
      "d": 90.90899999999965,
      "v": 127
    },
    {
      "midi": 55,
      "hit": false,
      "t": 92973.39187500071,
      "d": 68.18175000000338,
      "v": 127
    },
    {
      "midi": 60,
      "hit": false,
      "t": 92973.39187500071,
      "d": 68.18175000000338,
      "v": 127
    },
    {
      "midi": 36,
      "hit": false,
      "t": 93094.60387500071,
      "d": 401.514749999973,
      "v": 127
    },
    {
      "midi": 36,
      "hit": false,
      "t": 93098.3917500002,
      "d": 405.3026249999966,
      "v": 127
    },
    {
      "midi": 55,
      "hit": false,
      "t": 93333.2400000007,
      "d": 64.3938749999943,
      "v": 127
    },
    {
      "midi": 64,
      "hit": false,
      "t": 93333.2400000007,
      "d": 90.9089999999851,
      "v": 127
    },
    {
      "midi": 60,
      "hit": false,
      "t": 93337.0278750007,
      "d": 64.3938749999943,
      "v": 127
    },
    {
      "midi": 46,
      "hit": false,
      "t": 93458.23987500068,
      "d": 356.06024999998044,
      "v": 127
    },
    {
      "midi": 46,
      "hit": false,
      "t": 93462.0277500002,
      "d": 371.2117500000022,
      "v": 127
    },
    {
      "midi": 64,
      "hit": false,
      "t": 93696.87600000069,
      "d": 75.75749999997788,
      "v": 127
    },
    {
      "midi": 55,
      "hit": false,
      "t": 93700.66387500068,
      "d": 64.3938749999943,
      "v": 127
    },
    {
      "midi": 60,
      "hit": false,
      "t": 93700.66387500068,
      "d": 68.18174999998882,
      "v": 127
    },
    {
      "midi": 45,
      "hit": false,
      "t": 93821.8758750002,
      "d": 367.4238750000077,
      "v": 123
    },
    {
      "midi": 45,
      "hit": false,
      "t": 93821.87587500067,
      "d": 405.3026249999966,
      "v": 127
    },
    {
      "midi": 46,
      "hit": false,
      "t": 93939.3000000002,
      "d": 30.302999999999884,
      "v": 98
    },
    {
      "midi": 55,
      "hit": false,
      "t": 94064.29987500067,
      "d": 71.9696249999979,
      "v": 127
    },
    {
      "midi": 60,
      "hit": false,
      "t": 94064.29987500067,
      "d": 75.75749999999243,
      "v": 127
    },
    {
      "midi": 64,
      "hit": false,
      "t": 94064.29987500067,
      "d": 75.75749999999243,
      "v": 127
    },
    {
      "midi": 43,
      "hit": false,
      "t": 94185.51187500067,
      "d": 306.81787499999336,
      "v": 127
    },
    {
      "midi": 43,
      "hit": false,
      "t": 94189.29975000021,
      "d": 306.81787499999336,
      "v": 121
    },
    {
      "midi": 55,
      "hit": false,
      "t": 94427.93587500066,
      "d": 68.18174999998882,
      "v": 127
    },
    {
      "midi": 60,
      "hit": false,
      "t": 94427.93587500066,
      "d": 68.18174999998882,
      "v": 127
    },
    {
      "midi": 64,
      "hit": false,
      "t": 94427.93587500066,
      "d": 68.18174999998882,
      "v": 127
    },
    {
      "midi": 41,
      "hit": false,
      "t": 94549.1478750002,
      "d": 382.57537500000035,
      "v": 127
    },
    {
      "midi": 41,
      "hit": false,
      "t": 94549.14787500065,
      "d": 340.9087500000169,
      "v": 127
    },
    {
      "midi": 65,
      "hit": false,
      "t": 94787.78400000065,
      "d": 106.06050000000687,
      "v": 127
    },
    {
      "midi": 57,
      "hit": false,
      "t": 94791.57187500065,
      "d": 68.18175000000338,
      "v": 127
    },
    {
      "midi": 60,
      "hit": false,
      "t": 94791.57187500065,
      "d": 83.3332500000106,
      "v": 127
    },
    {
      "midi": 45,
      "hit": false,
      "t": 94912.78387500066,
      "d": 397.726874999993,
      "v": 127
    },
    {
      "midi": 45,
      "hit": false,
      "t": 94916.57175000019,
      "d": 397.72687500000757,
      "v": 113
    },
    {
      "midi": 65,
      "hit": false,
      "t": 95151.42000000067,
      "d": 75.75749999999243,
      "v": 127
    },
    {
      "midi": 57,
      "hit": false,
      "t": 95155.20787500066,
      "d": 68.18175000000338,
      "v": 127
    },
    {
      "midi": 60,
      "hit": false,
      "t": 95155.20787500066,
      "d": 68.18175000000338,
      "v": 127
    },
    {
      "midi": 48,
      "hit": false,
      "t": 95276.4198750002,
      "d": 344.69662499999686,
      "v": 121
    },
    {
      "midi": 48,
      "hit": false,
      "t": 95276.41987500066,
      "d": 352.2723749999859,
      "v": 127
    },
    {
      "midi": 65,
      "hit": false,
      "t": 95515.05600000065,
      "d": 87.12112499999057,
      "v": 127
    },
    {
      "midi": 57,
      "hit": false,
      "t": 95518.84387500065,
      "d": 79.54537500000151,
      "v": 127
    },
    {
      "midi": 60,
      "hit": false,
      "t": 95518.84387500065,
      "d": 83.33324999999604,
      "v": 127
    },
    {
      "midi": 45,
      "hit": false,
      "t": 95640.0558750002,
      "d": 318.18150000000605,
      "v": 120
    },
    {
      "midi": 45,
      "hit": false,
      "t": 95640.05587500065,
      "d": 325.7572499999951,
      "v": 127
    },
    {
      "midi": 57,
      "hit": false,
      "t": 95882.47987500064,
      "d": 53.03024999999616,
      "v": 127
    },
    {
      "midi": 60,
      "hit": false,
      "t": 95882.47987500064,
      "d": 87.12112499999057,
      "v": 127
    },
    {
      "midi": 65,
      "hit": false,
      "t": 95882.47987500064,
      "d": 87.12112499999057,
      "v": 127
    },
    {
      "midi": 43,
      "hit": false,
      "t": 96003.69187500063,
      "d": 397.726874999993,
      "v": 127
    },
    {
      "midi": 43,
      "hit": false,
      "t": 96007.4797500002,
      "d": 363.6359999999986,
      "v": 124
    },
    {
      "midi": 59,
      "hit": false,
      "t": 96242.32800000063,
      "d": 75.75749999999243,
      "v": 127
    },
    {
      "midi": 62,
      "hit": false,
      "t": 96246.11587500063,
      "d": 68.18175000000338,
      "v": 127
    },
    {
      "midi": 67,
      "hit": false,
      "t": 96246.11587500063,
      "d": 68.18175000000338,
      "v": 127
    },
    {
      "midi": 47,
      "hit": false,
      "t": 96367.3278750002,
      "d": 321.9693750000006,
      "v": 118
    },
    {
      "midi": 47,
      "hit": false,
      "t": 96367.32787500063,
      "d": 386.3632499999803,
      "v": 127
    },
    {
      "midi": 67,
      "hit": false,
      "t": 96605.96400000062,
      "d": 75.75749999999243,
      "v": 127
    },
    {
      "midi": 59,
      "hit": false,
      "t": 96609.75187500061,
      "d": 68.18175000000338,
      "v": 127
    },
    {
      "midi": 62,
      "hit": false,
      "t": 96609.75187500061,
      "d": 68.18175000000338,
      "v": 127
    },
    {
      "midi": 50,
      "hit": false,
      "t": 96730.9638750002,
      "d": 696.9689999999973,
      "v": 109
    },
    {
      "midi": 50,
      "hit": false,
      "t": 96730.96387500061,
      "d": 696.9689999999828,
      "v": 127
    },
    {
      "midi": 67,
      "hit": false,
      "t": 96969.6000000006,
      "d": 75.75749999999243,
      "v": 127
    },
    {
      "midi": 62,
      "hit": false,
      "t": 96973.3878750006,
      "d": 68.18175000000338,
      "v": 127
    },
    {
      "midi": 59,
      "hit": false,
      "t": 96973.3878750006,
      "d": 71.9696249999979,
      "v": 127
    },
    {
      "midi": 47,
      "hit": false,
      "t": 97094.5998750002,
      "d": 49.24237500000163,
      "v": 113
    },
    {
      "midi": 47,
      "hit": false,
      "t": 97094.5998750006,
      "d": 22.727249999996275,
      "v": 127
    },
    {
      "midi": 59,
      "hit": false,
      "t": 97337.0238750006,
      "d": 56.81812500000524,
      "v": 127
    },
    {
      "midi": 67,
      "hit": false,
      "t": 97337.0238750006,
      "d": 64.39387500000885,
      "v": 127
    },
    {
      "midi": 62,
      "hit": false,
      "t": 97337.0238750006,
      "d": 87.12112500000512,
      "v": 127
    },
    {
      "midi": 41,
      "hit": false,
      "t": 97458.2358750006,
      "d": 367.42387499999313,
      "v": 127
    },
    {
      "midi": 41,
      "hit": false,
      "t": 97462.0237500002,
      "d": 409.0905000000057,
      "v": 127
    },
    {
      "midi": 60,
      "hit": false,
      "t": 97696.8720000006,
      "d": 83.33324999999604,
      "v": 127
    },
    {
      "midi": 57,
      "hit": false,
      "t": 97700.6598750006,
      "d": 53.03024999999616,
      "v": 127
    },
    {
      "midi": 65,
      "hit": false,
      "t": 97700.6598750006,
      "d": 79.54537500000151,
      "v": 127
    },
    {
      "midi": 45,
      "hit": false,
      "t": 97821.8718750002,
      "d": 374.9996250000113,
      "v": 127
    },
    {
      "midi": 45,
      "hit": false,
      "t": 97821.8718750006,
      "d": 390.15112500000396,
      "v": 127
    },
    {
      "midi": 60,
      "hit": false,
      "t": 98064.2958750006,
      "d": 71.9696249999979,
      "v": 127
    },
    {
      "midi": 65,
      "hit": false,
      "t": 98064.2958750006,
      "d": 71.9696249999979,
      "v": 127
    },
    {
      "midi": 57,
      "hit": false,
      "t": 98064.2958750006,
      "d": 75.75749999999243,
      "v": 127
    },
    {
      "midi": 48,
      "hit": false,
      "t": 98185.50787500059,
      "d": 731.0598749999917,
      "v": 127
    },
    {
      "midi": 48,
      "hit": false,
      "t": 98189.29575000021,
      "d": 632.5751249999885,
      "v": 127
    },
    {
      "midi": 60,
      "hit": false,
      "t": 98424.1440000006,
      "d": 75.75749999999243,
      "v": 127
    },
    {
      "midi": 57,
      "hit": false,
      "t": 98427.93187500059,
      "d": 68.18175000000338,
      "v": 127
    },
    {
      "midi": 65,
      "hit": false,
      "t": 98427.93187500059,
      "d": 68.18175000000338,
      "v": 127
    },
    {
      "midi": 45,
      "hit": false,
      "t": 98549.14387500059,
      "d": 22.727249999996275,
      "v": 127
    },
    {
      "midi": 45,
      "hit": false,
      "t": 98552.9317500002,
      "d": 3.7878749999945285,
      "v": 120
    },
    {
      "midi": 41,
      "hit": false,
      "t": 98791.5678750002,
      "d": 128.7877499999886,
      "v": 115
    },
    {
      "midi": 57,
      "hit": false,
      "t": 98791.56787500059,
      "d": 68.18175000000338,
      "v": 127
    },
    {
      "midi": 60,
      "hit": false,
      "t": 98791.56787500059,
      "d": 68.18175000000338,
      "v": 127
    },
    {
      "midi": 65,
      "hit": false,
      "t": 98791.56787500059,
      "d": 71.9696249999979,
      "v": 127
    },
    {
      "midi": 43,
      "hit": false,
      "t": 98912.77987500059,
      "d": 378.78749999999127,
      "v": 127
    },
    {
      "midi": 43,
      "hit": false,
      "t": 98916.56775000019,
      "d": 306.81787499999336,
      "v": 127
    },
    {
      "midi": 59,
      "hit": false,
      "t": 99151.41600000058,
      "d": 75.75749999999243,
      "v": 127
    },
    {
      "midi": 62,
      "hit": false,
      "t": 99155.20387500057,
      "d": 71.9696249999979,
      "v": 127
    },
    {
      "midi": 67,
      "hit": false,
      "t": 99155.20387500057,
      "d": 83.33324999999604,
      "v": 127
    },
    {
      "midi": 41,
      "hit": false,
      "t": 99276.41587500057,
      "d": 318.1814999999915,
      "v": 127
    },
    {
      "midi": 41,
      "hit": false,
      "t": 99280.20375000019,
      "d": 325.7572499999951,
      "v": 127
    },
    {
      "midi": 67,
      "hit": false,
      "t": 99515.05200000058,
      "d": 75.75749999999243,
      "v": 127
    },
    {
      "midi": 59,
      "hit": false,
      "t": 99518.83987500057,
      "d": 71.9696249999979,
      "v": 127
    },
    {
      "midi": 62,
      "hit": false,
      "t": 99518.83987500057,
      "d": 71.9696249999979,
      "v": 127
    },
    {
      "midi": 40,
      "hit": false,
      "t": 99640.05187500018,
      "d": 356.060249999995,
      "v": 127
    },
    {
      "midi": 40,
      "hit": false,
      "t": 99640.05187500057,
      "d": 246.2118749999936,
      "v": 127
    },
    {
      "midi": 67,
      "hit": false,
      "t": 99878.68800000058,
      "d": 79.54537499998696,
      "v": 127
    },
    {
      "midi": 59,
      "hit": false,
      "t": 99882.47587500057,
      "d": 71.9696249999979,
      "v": 127
    },
    {
      "midi": 62,
      "hit": false,
      "t": 99882.47587500057,
      "d": 71.9696249999979,
      "v": 127
    },
    {
      "midi": 38,
      "hit": false,
      "t": 100003.68787500057,
      "d": 306.81787499999336,
      "v": 127
    },
    {
      "midi": 38,
      "hit": false,
      "t": 100007.47575000017,
      "d": 363.6359999999986,
      "v": 127
    },
    {
      "midi": 62,
      "hit": false,
      "t": 100246.11187500057,
      "d": 71.9696249999979,
      "v": 127
    },
    {
      "midi": 67,
      "hit": false,
      "t": 100246.11187500057,
      "d": 71.9696249999979,
      "v": 127
    },
    {
      "midi": 59,
      "hit": false,
      "t": 100246.11187500057,
      "d": 90.90899999999965,
      "v": 127
    },
    {
      "midi": 36,
      "hit": false,
      "t": 100367.32387500057,
      "d": 386.3632499999949,
      "v": 127
    },
    {
      "midi": 36,
      "hit": false,
      "t": 100371.11175000017,
      "d": 371.2117500000022,
      "v": 127
    },
    {
      "midi": 60,
      "hit": false,
      "t": 100605.96000000057,
      "d": 64.3938749999943,
      "v": 127
    },
    {
      "midi": 55,
      "hit": false,
      "t": 100609.74787500057,
      "d": 34.09087499999441,
      "v": 127
    },
    {
      "midi": 64,
      "hit": false,
      "t": 100609.74787500057,
      "d": 87.12112500000512,
      "v": 127
    },
    {
      "midi": 40,
      "hit": false,
      "t": 100730.95987500018,
      "d": 382.57537500000035,
      "v": 127
    },
    {
      "midi": 40,
      "hit": false,
      "t": 100730.95987500057,
      "d": 390.15112500000396,
      "v": 127
    },
    {
      "midi": 55,
      "hit": false,
      "t": 100973.38387500057,
      "d": 71.9696249999979,
      "v": 127
    },
    {
      "midi": 60,
      "hit": false,
      "t": 100973.38387500057,
      "d": 71.9696249999979,
      "v": 127
    },
    {
      "midi": 64,
      "hit": false,
      "t": 100973.38387500057,
      "d": 90.90899999999965,
      "v": 127
    },
    {
      "midi": 43,
      "hit": false,
      "t": 101094.59587500057,
      "d": 359.8481249999895,
      "v": 127
    },
    {
      "midi": 43,
      "hit": false,
      "t": 101098.38375000017,
      "d": 151.51500000001397,
      "v": 127
    },
    {
      "midi": 64,
      "hit": false,
      "t": 101333.23200000057,
      "d": 68.18174999998882,
      "v": 127
    },
    {
      "midi": 60,
      "hit": false,
      "t": 101337.01987500057,
      "d": 64.3938749999943,
      "v": 127
    },
    {
      "midi": 55,
      "hit": false,
      "t": 101337.01987500057,
      "d": 83.33324999999604,
      "v": 127
    },
    {
      "midi": 45,
      "hit": false,
      "t": 101458.23187500055,
      "d": 257.5755000000063,
      "v": 127
    },
    {
      "midi": 45,
      "hit": false,
      "t": 101462.01975000018,
      "d": 257.5755000000063,
      "v": 127
    },
    {
      "midi": 55,
      "hit": false,
      "t": 101700.65587500055,
      "d": 83.3332500000106,
      "v": 127
    },
    {
      "midi": 60,
      "hit": false,
      "t": 101700.65587500055,
      "d": 83.3332500000106,
      "v": 127
    },
    {
      "midi": 64,
      "hit": false,
      "t": 101700.65587500055,
      "d": 83.3332500000106,
      "v": 127
    },
    {
      "midi": 43,
      "hit": false,
      "t": 101700.65587500055,
      "d": 106.06050000000687,
      "v": 127
    },
    {
      "midi": 43,
      "hit": false,
      "t": 101704.44375000018,
      "d": 68.18175000000338,
      "v": 127
    },
    {
      "midi": 64,
      "hit": false,
      "t": 101821.86787500056,
      "d": 102.27262499999779,
      "v": 127
    },
    {
      "midi": 36,
      "hit": false,
      "t": 101821.86787500056,
      "d": 382.57537500000035,
      "v": 127
    },
    {
      "midi": 36,
      "hit": false,
      "t": 101825.65575000018,
      "d": 151.51499999999942,
      "v": 127
    },
    {
      "midi": 55,
      "hit": false,
      "t": 101825.65575000056,
      "d": 83.33324999999604,
      "v": 127
    },
    {
      "midi": 60,
      "hit": false,
      "t": 101825.65575000056,
      "d": 98.48475000000326,
      "v": 127
    },
    {
      "midi": 38,
      "hit": false,
      "t": 103276.41187500018,
      "d": 352.27237500000047,
      "v": 127
    },
    {
      "midi": 38,
      "hit": false,
      "t": 103276.41187500056,
      "d": 386.3632499999949,
      "v": 127
    },
    {
      "midi": 62,
      "hit": false,
      "t": 103515.04800000056,
      "d": 64.3938749999943,
      "v": 127
    },
    {
      "midi": 65,
      "hit": false,
      "t": 103515.04800000056,
      "d": 83.33324999999604,
      "v": 127
    },
    {
      "midi": 57,
      "hit": false,
      "t": 103518.83587500056,
      "d": 83.33324999999604,
      "v": 127
    },
    {
      "midi": 40,
      "hit": false,
      "t": 103640.04787500018,
      "d": 390.1511249999894,
      "v": 127
    },
    {
      "midi": 40,
      "hit": false,
      "t": 103640.04787500056,
      "d": 367.4238749999786,
      "v": 127
    },
    {
      "midi": 65,
      "hit": false,
      "t": 103878.68400000055,
      "d": 75.75749999999243,
      "v": 127
    },
    {
      "midi": 62,
      "hit": false,
      "t": 103882.47187500054,
      "d": 68.18175000000338,
      "v": 127
    },
    {
      "midi": 57,
      "hit": false,
      "t": 103882.47187500054,
      "d": 71.9696249999979,
      "v": 127
    },
    {
      "midi": 41,
      "hit": false,
      "t": 104003.68387500054,
      "d": 367.42387499999313,
      "v": 127
    },
    {
      "midi": 41,
      "hit": false,
      "t": 104007.47175000017,
      "d": 356.060249999995,
      "v": 127
    },
    {
      "midi": 62,
      "hit": false,
      "t": 104242.32000000053,
      "d": 71.9696249999979,
      "v": 127
    },
    {
      "midi": 65,
      "hit": false,
      "t": 104242.32000000053,
      "d": 71.9696249999979,
      "v": 127
    },
    {
      "midi": 57,
      "hit": false,
      "t": 104246.10787500053,
      "d": 68.18175000000338,
      "v": 127
    },
    {
      "midi": 42,
      "hit": false,
      "t": 104371.10775000017,
      "d": 374.9996250000113,
      "v": 127
    },
    {
      "midi": 42,
      "hit": false,
      "t": 104371.10775000053,
      "d": 386.36325000000943,
      "v": 127
    },
    {
      "midi": 65,
      "hit": false,
      "t": 104609.74387500054,
      "d": 71.9696249999979,
      "v": 127
    },
    {
      "midi": 57,
      "hit": false,
      "t": 104609.74387500054,
      "d": 75.75749999999243,
      "v": 127
    },
    {
      "midi": 62,
      "hit": false,
      "t": 104609.74387500054,
      "d": 75.75749999999243,
      "v": 127
    },
    {
      "midi": 43,
      "hit": false,
      "t": 104730.95587500017,
      "d": 318.18150000000605,
      "v": 127
    },
    {
      "midi": 43,
      "hit": false,
      "t": 104730.95587500054,
      "d": 371.2117500000022,
      "v": 127
    },
    {
      "midi": 62,
      "hit": false,
      "t": 104969.59200000054,
      "d": 71.9696249999979,
      "v": 127
    },
    {
      "midi": 67,
      "hit": false,
      "t": 104969.59200000054,
      "d": 71.9696249999979,
      "v": 127
    },
    {
      "midi": 59,
      "hit": false,
      "t": 104973.37987500054,
      "d": 68.18175000000338,
      "v": 127
    },
    {
      "midi": 45,
      "hit": false,
      "t": 105094.59187500019,
      "d": 352.27237500000047,
      "v": 113
    },
    {
      "midi": 45,
      "hit": false,
      "t": 105094.59187500054,
      "d": 367.42387499999313,
      "v": 127
    },
    {
      "midi": 59,
      "hit": false,
      "t": 105337.01587500054,
      "d": 68.18175000000338,
      "v": 127
    },
    {
      "midi": 62,
      "hit": false,
      "t": 105337.01587500054,
      "d": 68.18175000000338,
      "v": 127
    },
    {
      "midi": 67,
      "hit": false,
      "t": 105337.01587500054,
      "d": 87.12112500000512,
      "v": 127
    },
    {
      "midi": 46,
      "hit": false,
      "t": 105458.22787500019,
      "d": 348.48450000000594,
      "v": 127
    },
    {
      "midi": 46,
      "hit": false,
      "t": 105458.22787500054,
      "d": 340.9087499999878,
      "v": 127
    },
    {
      "midi": 62,
      "hit": false,
      "t": 105696.86400000053,
      "d": 71.9696249999979,
      "v": 127
    },
    {
      "midi": 67,
      "hit": false,
      "t": 105696.86400000053,
      "d": 71.9696249999979,
      "v": 127
    },
    {
      "midi": 59,
      "hit": false,
      "t": 105700.65187500052,
      "d": 68.18175000000338,
      "v": 127
    },
    {
      "midi": 47,
      "hit": false,
      "t": 105821.8638750002,
      "d": 382.57537500000035,
      "v": 120
    },
    {
      "midi": 47,
      "hit": false,
      "t": 105821.86387500052,
      "d": 409.0905000000057,
      "v": 127
    },
    {
      "midi": 59,
      "hit": false,
      "t": 106064.28787500052,
      "d": 60.60599999999977,
      "v": 127
    },
    {
      "midi": 67,
      "hit": false,
      "t": 106064.28787500052,
      "d": 64.3938749999943,
      "v": 127
    },
    {
      "midi": 62,
      "hit": false,
      "t": 106064.28787500052,
      "d": 83.33324999999604,
      "v": 127
    },
    {
      "midi": 48,
      "hit": false,
      "t": 106185.49987500052,
      "d": 715.9083750000136,
      "v": 127
    },
    {
      "midi": 48,
      "hit": false,
      "t": 106189.28775000019,
      "d": 356.06025000000955,
      "v": 127
    },
    {
      "midi": 55,
      "hit": false,
      "t": 106424.13600000052,
      "d": 71.9696249999979,
      "v": 127
    },
    {
      "midi": 64,
      "hit": false,
      "t": 106424.13600000052,
      "d": 71.9696249999979,
      "v": 127
    },
    {
      "midi": 60,
      "hit": false,
      "t": 106427.92387500052,
      "d": 68.18175000000338,
      "v": 127
    },
    {
      "midi": 45,
      "hit": false,
      "t": 106549.13587500052,
      "d": 15.151500000007218,
      "v": 127
    },
    {
      "midi": 45,
      "hit": false,
      "t": 106552.9237500002,
      "d": 352.27237500000047,
      "v": 118
    },
    {
      "midi": 55,
      "hit": false,
      "t": 106791.55987500053,
      "d": 68.18175000000338,
      "v": 127
    },
    {
      "midi": 60,
      "hit": false,
      "t": 106791.55987500053,
      "d": 68.18175000000338,
      "v": 127
    },
    {
      "midi": 64,
      "hit": false,
      "t": 106791.55987500053,
      "d": 87.12112500000512,
      "v": 127
    },
    {
      "midi": 43,
      "hit": false,
      "t": 106912.77187500021,
      "d": 340.9087500000023,
      "v": 127
    },
    {
      "midi": 43,
      "hit": false,
      "t": 106912.77187500053,
      "d": 340.9087500000023,
      "v": 127
    },
    {
      "midi": 55,
      "hit": false,
      "t": 107151.40800000053,
      "d": 75.75749999999243,
      "v": 127
    },
    {
      "midi": 60,
      "hit": false,
      "t": 107155.19587500053,
      "d": 71.9696249999979,
      "v": 127
    },
    {
      "midi": 64,
      "hit": false,
      "t": 107155.19587500053,
      "d": 83.33324999999604,
      "v": 127
    },
    {
      "midi": 40,
      "hit": false,
      "t": 107276.40787500053,
      "d": 367.42387499999313,
      "v": 127
    },
    {
      "midi": 40,
      "hit": false,
      "t": 107280.19575000022,
      "d": 367.4238750000077,
      "v": 123
    },
    {
      "midi": 64,
      "hit": false,
      "t": 107518.83187500053,
      "d": 56.81812500000524,
      "v": 127
    },
    {
      "midi": 60,
      "hit": false,
      "t": 107518.83187500053,
      "d": 64.39387500000885,
      "v": 127
    },
    {
      "midi": 55,
      "hit": false,
      "t": 107518.83187500053,
      "d": 87.12112500000512,
      "v": 127
    },
    {
      "midi": 36,
      "hit": false,
      "t": 107640.04387500022,
      "d": 397.72687500000757,
      "v": 127
    },
    {
      "midi": 36,
      "hit": false,
      "t": 107640.04387500053,
      "d": 431.8177499999874,
      "v": 127
    },
    {
      "midi": 55,
      "hit": false,
      "t": 107878.68000000052,
      "d": 71.9696249999979,
      "v": 127
    },
    {
      "midi": 60,
      "hit": false,
      "t": 107882.46787500051,
      "d": 68.18175000000338,
      "v": 127
    },
    {
      "midi": 64,
      "hit": false,
      "t": 107882.46787500051,
      "d": 87.12112500000512,
      "v": 127
    },
    {
      "midi": 40,
      "hit": false,
      "t": 108003.67987500051,
      "d": 378.7875000000058,
      "v": 127
    },
    {
      "midi": 40,
      "hit": false,
      "t": 108007.46775000023,
      "d": 386.36325000000943,
      "v": 125
    },
    {
      "midi": 55,
      "hit": false,
      "t": 108246.10387500051,
      "d": 64.3938749999943,
      "v": 127
    },
    {
      "midi": 60,
      "hit": false,
      "t": 108246.10387500051,
      "d": 64.3938749999943,
      "v": 127
    },
    {
      "midi": 64,
      "hit": false,
      "t": 108246.10387500051,
      "d": 71.9696249999979,
      "v": 127
    },
    {
      "midi": 43,
      "hit": false,
      "t": 108367.31587500023,
      "d": 344.6966250000114,
      "v": 124
    },
    {
      "midi": 45,
      "hit": false,
      "t": 108367.31587500051,
      "d": 397.726874999993,
      "v": 127
    },
    {
      "midi": 60,
      "hit": false,
      "t": 108609.73987500052,
      "d": 64.3938749999943,
      "v": 127
    },
    {
      "midi": 55,
      "hit": false,
      "t": 108609.73987500052,
      "d": 68.18174999998882,
      "v": 127
    },
    {
      "midi": 64,
      "hit": false,
      "t": 108609.73987500052,
      "d": 71.96962499998335,
      "v": 127
    },
    {
      "midi": 43,
      "hit": false,
      "t": 108730.95187500051,
      "d": 314.3936249999824,
      "v": 127
    },
    {
      "midi": 45,
      "hit": false,
      "t": 108734.73975000024,
      "d": 272.72699999999895,
      "v": 113
    },
    {
      "midi": 55,
      "hit": false,
      "t": 108969.5880000005,
      "d": 71.9696249999979,
      "v": 127
    },
    {
      "midi": 43,
      "hit": false,
      "t": 108973.37587500025,
      "d": 90.90899999999965,
      "v": 127
    },
    {
      "midi": 60,
      "hit": false,
      "t": 108973.37587500049,
      "d": 75.75749999999243,
      "v": 127
    },
    {
      "midi": 64,
      "hit": false,
      "t": 108973.37587500049,
      "d": 90.90899999999965,
      "v": 127
    },
    {
      "midi": 38,
      "hit": false,
      "t": 109094.58787500049,
      "d": 397.72687499997846,
      "v": 127
    },
    {
      "midi": 38,
      "hit": false,
      "t": 109098.37575000024,
      "d": 367.42387499999313,
      "v": 125
    },
    {
      "midi": 57,
      "hit": false,
      "t": 109333.2240000005,
      "d": 87.12112499999057,
      "v": 127
    },
    {
      "midi": 62,
      "hit": false,
      "t": 109333.2240000005,
      "d": 90.9089999999851,
      "v": 127
    },
    {
      "midi": 65,
      "hit": false,
      "t": 109337.01187500049,
      "d": 87.12112499999057,
      "v": 127
    },
    {
      "midi": 40,
      "hit": false,
      "t": 109458.22387500048,
      "d": 386.3632499999803,
      "v": 127
    },
    {
      "midi": 40,
      "hit": false,
      "t": 109462.01175000024,
      "d": 386.3632499999949,
      "v": 127
    },
    {
      "midi": 62,
      "hit": false,
      "t": 109696.86000000047,
      "d": 71.9696249999979,
      "v": 127
    },
    {
      "midi": 57,
      "hit": false,
      "t": 109700.64787500046,
      "d": 68.18175000000338,
      "v": 127
    },
    {
      "midi": 65,
      "hit": false,
      "t": 109700.64787500046,
      "d": 87.12112500000512,
      "v": 127
    },
    {
      "midi": 41,
      "hit": false,
      "t": 109821.85987500023,
      "d": 348.48450000000594,
      "v": 127
    },
    {
      "midi": 41,
      "hit": false,
      "t": 109821.85987500046,
      "d": 374.9996249999822,
      "v": 127
    },
    {
      "midi": 62,
      "hit": false,
      "t": 110064.28387500046,
      "d": 79.54537500000151,
      "v": 127
    },
    {
      "midi": 57,
      "hit": false,
      "t": 110064.28387500046,
      "d": 83.33324999999604,
      "v": 127
    },
    {
      "midi": 65,
      "hit": false,
      "t": 110064.28387500046,
      "d": 87.12112499999057,
      "v": 127
    },
    {
      "midi": 42,
      "hit": false,
      "t": 110185.49587500044,
      "d": 386.3632499999803,
      "v": 127
    },
    {
      "midi": 42,
      "hit": false,
      "t": 110189.28375000024,
      "d": 397.72687500000757,
      "v": 127
    },
    {
      "midi": 65,
      "hit": false,
      "t": 110424.13200000045,
      "d": 90.9089999999851,
      "v": 127
    },
    {
      "midi": 57,
      "hit": false,
      "t": 110427.91987500044,
      "d": 83.33324999999604,
      "v": 127
    },
    {
      "midi": 62,
      "hit": false,
      "t": 110427.91987500044,
      "d": 83.33324999999604,
      "v": 127
    },
    {
      "midi": 43,
      "hit": false,
      "t": 110549.13187500024,
      "d": 333.3329999999987,
      "v": 127
    },
    {
      "midi": 43,
      "hit": false,
      "t": 110549.13187500043,
      "d": 340.9087499999878,
      "v": 127
    },
    {
      "midi": 59,
      "hit": false,
      "t": 110787.76800000042,
      "d": 64.3938749999943,
      "v": 127
    },
    {
      "midi": 67,
      "hit": false,
      "t": 110787.76800000042,
      "d": 83.33324999999604,
      "v": 127
    },
    {
      "midi": 62,
      "hit": false,
      "t": 110791.55587500041,
      "d": 79.54537500000151,
      "v": 127
    },
    {
      "midi": 45,
      "hit": false,
      "t": 110912.76787500024,
      "d": 374.99962499999674,
      "v": 115
    },
    {
      "midi": 45,
      "hit": false,
      "t": 110912.76787500041,
      "d": 356.060249999995,
      "v": 127
    },
    {
      "midi": 62,
      "hit": false,
      "t": 111155.19187500041,
      "d": 68.18175000000338,
      "v": 127
    },
    {
      "midi": 67,
      "hit": false,
      "t": 111155.19187500041,
      "d": 68.18175000000338,
      "v": 127
    },
    {
      "midi": 59,
      "hit": false,
      "t": 111155.19187500041,
      "d": 71.9696249999979,
      "v": 127
    },
    {
      "midi": 46,
      "hit": false,
      "t": 111276.40387500041,
      "d": 352.272375000015,
      "v": 127
    },
    {
      "midi": 46,
      "hit": false,
      "t": 111280.19175000023,
      "d": 363.6359999999986,
      "v": 127
    },
    {
      "midi": 62,
      "hit": false,
      "t": 111515.04000000042,
      "d": 98.48475000000326,
      "v": 127
    },
    {
      "midi": 59,
      "hit": false,
      "t": 111518.82787500041,
      "d": 79.54537500000151,
      "v": 127
    },
    {
      "midi": 67,
      "hit": false,
      "t": 111518.82787500041,
      "d": 94.69687500000873,
      "v": 127
    },
    {
      "midi": 47,
      "hit": false,
      "t": 111640.03987500024,
      "d": 397.726874999993,
      "v": 127
    },
    {
      "midi": 47,
      "hit": false,
      "t": 111640.03987500042,
      "d": 397.726874999993,
      "v": 127
    },
    {
      "midi": 59,
      "hit": false,
      "t": 111878.67600000043,
      "d": 83.33324999999604,
      "v": 127
    },
    {
      "midi": 62,
      "hit": false,
      "t": 111882.46387500042,
      "d": 98.48475000000326,
      "v": 127
    },
    {
      "midi": 67,
      "hit": false,
      "t": 111882.46387500042,
      "d": 98.48475000000326,
      "v": 127
    },
    {
      "midi": 48,
      "hit": false,
      "t": 112003.67587500042,
      "d": 3.7878749999945285,
      "v": 127
    },
    {
      "midi": 48,
      "hit": false,
      "t": 112007.46375000023,
      "d": 712.1205000000045,
      "v": 127
    },
    {
      "midi": 55,
      "hit": false,
      "t": 112246.09987500042,
      "d": 60.60599999999977,
      "v": 127
    },
    {
      "midi": 60,
      "hit": false,
      "t": 112246.09987500042,
      "d": 60.60599999999977,
      "v": 127
    },
    {
      "midi": 64,
      "hit": false,
      "t": 112246.09987500042,
      "d": 98.48475000000326,
      "v": 127
    },
    {
      "midi": 45,
      "hit": false,
      "t": 112367.31187500042,
      "d": 397.726874999993,
      "v": 127
    },
    {
      "midi": 55,
      "hit": false,
      "t": 112605.94800000043,
      "d": 71.9696249999979,
      "v": 127
    },
    {
      "midi": 60,
      "hit": false,
      "t": 112609.73587500042,
      "d": 68.18175000000338,
      "v": 127
    },
    {
      "midi": 64,
      "hit": false,
      "t": 112609.73587500042,
      "d": 87.12112500000512,
      "v": 127
    },
    {
      "midi": 43,
      "hit": false,
      "t": 112730.94787500023,
      "d": 333.3329999999987,
      "v": 119
    },
    {
      "midi": 43,
      "hit": false,
      "t": 112730.94787500042,
      "d": 337.1208749999787,
      "v": 127
    },
    {
      "midi": 55,
      "hit": false,
      "t": 112969.58400000041,
      "d": 87.12112499999057,
      "v": 127
    },
    {
      "midi": 60,
      "hit": false,
      "t": 112973.3718750004,
      "d": 79.54537500000151,
      "v": 127
    },
    {
      "midi": 64,
      "hit": false,
      "t": 112973.3718750004,
      "d": 83.33324999999604,
      "v": 127
    },
    {
      "midi": 40,
      "hit": false,
      "t": 113094.5838750004,
      "d": 378.7875000000204,
      "v": 127
    },
    {
      "midi": 40,
      "hit": false,
      "t": 113098.37175000022,
      "d": 397.726874999993,
      "v": 127
    },
    {
      "midi": 60,
      "hit": false,
      "t": 113333.22000000041,
      "d": 71.9696249999979,
      "v": 127
    },
    {
      "midi": 55,
      "hit": false,
      "t": 113337.0078750004,
      "d": 83.3332500000106,
      "v": 127
    },
    {
      "midi": 64,
      "hit": false,
      "t": 113337.0078750004,
      "d": 98.48475000001781,
      "v": 127
    },
    {
      "midi": 36,
      "hit": false,
      "t": 113458.21987500042,
      "d": 420.4541249999893,
      "v": 127
    },
    {
      "midi": 36,
      "hit": false,
      "t": 113462.00775000022,
      "d": 356.060249999995,
      "v": 127
    },
    {
      "midi": 60,
      "hit": false,
      "t": 113696.85600000042,
      "d": 68.18174999998882,
      "v": 127
    },
    {
      "midi": 55,
      "hit": false,
      "t": 113700.64387500042,
      "d": 68.18174999998882,
      "v": 127
    },
    {
      "midi": 64,
      "hit": false,
      "t": 113700.64387500042,
      "d": 87.12112499999057,
      "v": 127
    },
    {
      "midi": 46,
      "hit": false,
      "t": 113821.85587500021,
      "d": 348.48450000000594,
      "v": 127
    },
    {
      "midi": 46,
      "hit": false,
      "t": 113821.8558750004,
      "d": 333.3329999999987,
      "v": 127
    },
    {
      "midi": 60,
      "hit": false,
      "t": 114064.2798750004,
      "d": 68.18175000000338,
      "v": 127
    },
    {
      "midi": 55,
      "hit": false,
      "t": 114064.2798750004,
      "d": 87.12112500000512,
      "v": 127
    },
    {
      "midi": 64,
      "hit": false,
      "t": 114064.2798750004,
      "d": 106.06050000000687,
      "v": 127
    },
    {
      "midi": 45,
      "hit": false,
      "t": 114185.49187500041,
      "d": 367.4238750000077,
      "v": 127
    },
    {
      "midi": 45,
      "hit": false,
      "t": 114189.27975000022,
      "d": 374.9996250000113,
      "v": 113
    },
    {
      "midi": 55,
      "hit": false,
      "t": 114427.91587500041,
      "d": 75.75750000000698,
      "v": 127
    },
    {
      "midi": 60,
      "hit": false,
      "t": 114427.91587500041,
      "d": 75.75750000000698,
      "v": 127
    },
    {
      "midi": 64,
      "hit": false,
      "t": 114427.91587500041,
      "d": 90.9090000000142,
      "v": 127
    },
    {
      "midi": 43,
      "hit": false,
      "t": 114549.12787500022,
      "d": 333.33300000001327,
      "v": 121
    },
    {
      "midi": 43,
      "hit": false,
      "t": 114549.12787500043,
      "d": 329.54512499998964,
      "v": 127
    },
    {
      "midi": 60,
      "hit": false,
      "t": 114787.76400000042,
      "d": 71.9696249999979,
      "v": 127
    },
    {
      "midi": 64,
      "hit": false,
      "t": 114787.76400000042,
      "d": 94.69687499999418,
      "v": 127
    },
    {
      "midi": 55,
      "hit": false,
      "t": 114791.55187500041,
      "d": 68.18175000000338,
      "v": 127
    },
    {
      "midi": 41,
      "hit": false,
      "t": 114912.76387500041,
      "d": 431.817750000002,
      "v": 127
    },
    {
      "midi": 41,
      "hit": false,
      "t": 114916.55175000023,
      "d": 409.0905000000057,
      "v": 121
    },
    {
      "midi": 60,
      "hit": false,
      "t": 115151.40000000042,
      "d": 71.9696249999979,
      "v": 127
    },
    {
      "midi": 57,
      "hit": false,
      "t": 115155.18787500041,
      "d": 68.18175000000338,
      "v": 127
    },
    {
      "midi": 65,
      "hit": false,
      "t": 115155.18787500041,
      "d": 71.9696249999979,
      "v": 127
    },
    {
      "midi": 45,
      "hit": false,
      "t": 115276.39987500024,
      "d": 378.7875000000058,
      "v": 111
    },
    {
      "midi": 45,
      "hit": false,
      "t": 115276.39987500041,
      "d": 393.93900000001304,
      "v": 127
    },
    {
      "midi": 60,
      "hit": false,
      "t": 115515.03600000041,
      "d": 87.12112500000512,
      "v": 127
    },
    {
      "midi": 57,
      "hit": false,
      "t": 115518.82387500041,
      "d": 56.81812500000524,
      "v": 127
    },
    {
      "midi": 65,
      "hit": false,
      "t": 115518.82387500041,
      "d": 83.3332500000106,
      "v": 127
    },
    {
      "midi": 48,
      "hit": false,
      "t": 115640.03587500042,
      "d": 356.06025000000955,
      "v": 127
    },
    {
      "midi": 48,
      "hit": false,
      "t": 115643.82375000024,
      "d": 340.9087500000023,
      "v": 114
    },
    {
      "midi": 65,
      "hit": false,
      "t": 115878.67200000043,
      "d": 90.90899999999965,
      "v": 127
    },
    {
      "midi": 57,
      "hit": false,
      "t": 115882.45987500042,
      "d": 68.18175000000338,
      "v": 127
    },
    {
      "midi": 60,
      "hit": false,
      "t": 115882.45987500042,
      "d": 68.18175000000338,
      "v": 127
    },
    {
      "midi": 45,
      "hit": false,
      "t": 116003.67187500044,
      "d": 314.393624999997,
      "v": 127
    },
    {
      "midi": 45,
      "hit": false,
      "t": 116007.45975000024,
      "d": 344.69662499999686,
      "v": 113
    },
    {
      "midi": 57,
      "hit": false,
      "t": 116246.09587500044,
      "d": 68.18175000000338,
      "v": 127
    },
    {
      "midi": 60,
      "hit": false,
      "t": 116246.09587500044,
      "d": 68.18175000000338,
      "v": 127
    },
    {
      "midi": 65,
      "hit": false,
      "t": 116246.09587500044,
      "d": 68.18175000000338,
      "v": 127
    },
    {
      "midi": 43,
      "hit": false,
      "t": 116367.30787500044,
      "d": 412.87837500000023,
      "v": 127
    },
    {
      "midi": 43,
      "hit": false,
      "t": 116371.09575000024,
      "d": 412.87837500000023,
      "v": 124
    },
    {
      "midi": 62,
      "hit": false,
      "t": 116605.94400000044,
      "d": 83.33324999999604,
      "v": 127
    },
    {
      "midi": 59,
      "hit": false,
      "t": 116609.73187500043,
      "d": 79.54537500000151,
      "v": 127
    },
    {
      "midi": 67,
      "hit": false,
      "t": 116609.73187500043,
      "d": 83.33324999999604,
      "v": 127
    },
    {
      "midi": 47,
      "hit": false,
      "t": 116730.94387500024,
      "d": 374.99962499999674,
      "v": 110
    },
    {
      "midi": 47,
      "hit": false,
      "t": 116730.94387500043,
      "d": 371.2117500000022,
      "v": 127
    },
    {
      "midi": 62,
      "hit": false,
      "t": 116969.58000000044,
      "d": 83.33324999999604,
      "v": 127
    },
    {
      "midi": 59,
      "hit": false,
      "t": 116973.36787500043,
      "d": 71.9696249999979,
      "v": 127
    },
    {
      "midi": 67,
      "hit": false,
      "t": 116973.36787500043,
      "d": 79.54537500000151,
      "v": 127
    },
    {
      "midi": 50,
      "hit": false,
      "t": 117094.57987500043,
      "d": 693.1811249999882,
      "v": 127
    },
    {
      "midi": 50,
      "hit": false,
      "t": 117098.36775000024,
      "d": 696.9689999999973,
      "v": 115
    },
    {
      "midi": 67,
      "hit": false,
      "t": 117333.21600000044,
      "d": 71.9696249999979,
      "v": 127
    },
    {
      "midi": 62,
      "hit": false,
      "t": 117333.21600000044,
      "d": 75.75749999999243,
      "v": 127
    },
    {
      "midi": 59,
      "hit": false,
      "t": 117337.00387500043,
      "d": 71.9696249999979,
      "v": 127
    },
    {
      "midi": 47,
      "hit": false,
      "t": 117458.21587500043,
      "d": 3.7878749999945285,
      "v": 127
    },
    {
      "midi": 47,
      "hit": false,
      "t": 117462.00375000024,
      "d": 30.302999999999884,
      "v": 109
    },
    {
      "midi": 67,
      "hit": false,
      "t": 117696.85200000042,
      "d": 75.75749999999243,
      "v": 127
    },
    {
      "midi": 62,
      "hit": false,
      "t": 117700.63987500042,
      "d": 71.9696249999979,
      "v": 127
    },
    {
      "midi": 59,
      "hit": false,
      "t": 117700.63987500042,
      "d": 90.90899999999965,
      "v": 127
    },
    {
      "midi": 41,
      "hit": false,
      "t": 117821.85187500042,
      "d": 416.66624999999476,
      "v": 127
    },
    {
      "midi": 41,
      "hit": false,
      "t": 117825.63975000023,
      "d": 367.42387499999313,
      "v": 124
    },
    {
      "midi": 60,
      "hit": false,
      "t": 118060.48800000042,
      "d": 90.90899999999965,
      "v": 127
    },
    {
      "midi": 57,
      "hit": false,
      "t": 118064.27587500041,
      "d": 71.9696249999979,
      "v": 127
    },
    {
      "midi": 65,
      "hit": false,
      "t": 118064.27587500041,
      "d": 71.9696249999979,
      "v": 127
    },
    {
      "midi": 45,
      "hit": false,
      "t": 118185.48787500041,
      "d": 374.99962499999674,
      "v": 127
    },
    {
      "midi": 45,
      "hit": false,
      "t": 118189.27575000023,
      "d": 386.3632499999949,
      "v": 115
    },
    {
      "midi": 57,
      "hit": false,
      "t": 118427.91187500041,
      "d": 68.18175000000338,
      "v": 127
    },
    {
      "midi": 60,
      "hit": false,
      "t": 118427.91187500041,
      "d": 68.18175000000338,
      "v": 127
    },
    {
      "midi": 65,
      "hit": false,
      "t": 118427.91187500041,
      "d": 68.18175000000338,
      "v": 127
    },
    {
      "midi": 48,
      "hit": false,
      "t": 118549.12387500022,
      "d": 704.5447500000009,
      "v": 115
    },
    {
      "midi": 48,
      "hit": false,
      "t": 118549.12387500041,
      "d": 337.12087499999325,
      "v": 127
    },
    {
      "midi": 65,
      "hit": false,
      "t": 118787.76000000042,
      "d": 68.18174999998882,
      "v": 127
    },
    {
      "midi": 60,
      "hit": false,
      "t": 118787.76000000042,
      "d": 87.12112499999057,
      "v": 127
    },
    {
      "midi": 57,
      "hit": false,
      "t": 118791.54787500041,
      "d": 68.18174999998882,
      "v": 127
    },
    {
      "midi": 45,
      "hit": false,
      "t": 118912.75987500022,
      "d": 68.18175000000338,
      "v": 111
    },
    {
      "midi": 45,
      "hit": false,
      "t": 118912.75987500041,
      "d": 352.27237500000047,
      "v": 127
    },
    {
      "midi": 57,
      "hit": false,
      "t": 119155.18387500041,
      "d": 34.09087499999441,
      "v": 127
    },
    {
      "midi": 60,
      "hit": false,
      "t": 119155.18387500041,
      "d": 83.33324999999604,
      "v": 127
    },
    {
      "midi": 65,
      "hit": false,
      "t": 119155.18387500041,
      "d": 83.33324999999604,
      "v": 127
    },
    {
      "midi": 43,
      "hit": false,
      "t": 119276.39587500022,
      "d": 356.060249999995,
      "v": 127
    },
    {
      "midi": 43,
      "hit": false,
      "t": 119276.39587500041,
      "d": 401.5147500000021,
      "v": 127
    },
    {
      "midi": 59,
      "hit": false,
      "t": 119515.03200000041,
      "d": 71.9696249999979,
      "v": 127
    },
    {
      "midi": 62,
      "hit": false,
      "t": 119515.03200000041,
      "d": 75.75749999999243,
      "v": 127
    },
    {
      "midi": 67,
      "hit": false,
      "t": 119518.81987500041,
      "d": 71.9696249999979,
      "v": 127
    },
    {
      "midi": 41,
      "hit": false,
      "t": 119640.03187500022,
      "d": 329.5451250000042,
      "v": 127
    },
    {
      "midi": 41,
      "hit": false,
      "t": 119640.03187500041,
      "d": 367.42387499999313,
      "v": 127
    },
    {
      "midi": 62,
      "hit": false,
      "t": 119878.66800000041,
      "d": 75.75749999999243,
      "v": 127
    },
    {
      "midi": 59,
      "hit": false,
      "t": 119882.4558750004,
      "d": 68.18175000000338,
      "v": 127
    },
    {
      "midi": 67,
      "hit": false,
      "t": 119882.4558750004,
      "d": 68.18175000000338,
      "v": 127
    },
    {
      "midi": 40,
      "hit": false,
      "t": 120003.6678750004,
      "d": 261.36337499998626,
      "v": 127
    },
    {
      "midi": 40,
      "hit": false,
      "t": 120007.45575000023,
      "d": 276.5148749999935,
      "v": 127
    },
    {
      "midi": 59,
      "hit": false,
      "t": 120242.3040000004,
      "d": 75.75749999999243,
      "v": 127
    },
    {
      "midi": 67,
      "hit": false,
      "t": 120242.3040000004,
      "d": 75.75749999999243,
      "v": 127
    },
    {
      "midi": 62,
      "hit": false,
      "t": 120246.09187500039,
      "d": 68.18175000000338,
      "v": 127
    },
    {
      "midi": 38,
      "hit": false,
      "t": 120367.30387500022,
      "d": 321.9693750000006,
      "v": 123
    },
    {
      "midi": 38,
      "hit": false,
      "t": 120367.30387500039,
      "d": 306.81787499999336,
      "v": 127
    },
    {
      "midi": 59,
      "hit": false,
      "t": 120609.72787500039,
      "d": 68.18174999998882,
      "v": 127
    },
    {
      "midi": 62,
      "hit": false,
      "t": 120609.72787500039,
      "d": 71.96962499998335,
      "v": 127
    },
    {
      "midi": 67,
      "hit": false,
      "t": 120609.72787500039,
      "d": 75.75749999997788,
      "v": 127
    },
    {
      "midi": 36,
      "hit": false,
      "t": 120730.93987500021,
      "d": 390.15112500000396,
      "v": 119
    },
    {
      "midi": 36,
      "hit": false,
      "t": 120730.93987500037,
      "d": 393.93900000001304,
      "v": 127
    },
    {
      "midi": 55,
      "hit": false,
      "t": 120969.57600000038,
      "d": 71.9696249999979,
      "v": 127
    },
    {
      "midi": 64,
      "hit": false,
      "t": 120969.57600000038,
      "d": 87.12112500000512,
      "v": 127
    },
    {
      "midi": 60,
      "hit": false,
      "t": 120973.36387500037,
      "d": 68.18175000000338,
      "v": 127
    },
    {
      "midi": 40,
      "hit": false,
      "t": 121094.57587500021,
      "d": 405.3026249999966,
      "v": 125
    },
    {
      "midi": 40,
      "hit": false,
      "t": 121094.57587500039,
      "d": 390.15112500000396,
      "v": 127
    },
    {
      "midi": 60,
      "hit": false,
      "t": 121336.99987500039,
      "d": 64.3938749999943,
      "v": 127
    },
    {
      "midi": 64,
      "hit": false,
      "t": 121336.99987500039,
      "d": 68.18174999998882,
      "v": 127
    },
    {
      "midi": 55,
      "hit": false,
      "t": 121336.99987500039,
      "d": 83.33324999999604,
      "v": 127
    },
    {
      "midi": 43,
      "hit": false,
      "t": 121458.21187500021,
      "d": 363.6359999999986,
      "v": 115
    },
    {
      "midi": 43,
      "hit": false,
      "t": 121458.21187500039,
      "d": 359.8481250000041,
      "v": 127
    },
    {
      "midi": 55,
      "hit": false,
      "t": 121696.84800000039,
      "d": 71.9696249999979,
      "v": 127
    },
    {
      "midi": 60,
      "hit": false,
      "t": 121700.63587500039,
      "d": 68.18175000000338,
      "v": 127
    },
    {
      "midi": 64,
      "hit": false,
      "t": 121700.63587500039,
      "d": 87.12112500000512,
      "v": 127
    },
    {
      "midi": 45,
      "hit": false,
      "t": 121825.6357500002,
      "d": 272.72699999999895,
      "v": 111
    },
    {
      "midi": 45,
      "hit": false,
      "t": 121825.6357500004,
      "d": 242.42399999999907,
      "v": 127
    },
    {
      "midi": 43,
      "hit": false,
      "t": 122064.27187500021,
      "d": 106.06049999999232,
      "v": 119
    },
    {
      "midi": 43,
      "hit": false,
      "t": 122064.2718750004,
      "d": 90.90899999999965,
      "v": 127
    },
    {
      "midi": 55,
      "hit": false,
      "t": 122185.4838750004,
      "d": 121.21199999999953,
      "v": 127
    },
    {
      "midi": 64,
      "hit": false,
      "t": 122185.4838750004,
      "d": 140.15137500000128,
      "v": 127
    },
    {
      "midi": 36,
      "hit": false,
      "t": 122185.4838750004,
      "d": 549.241875000007,
      "v": 127
    },
    {
      "midi": 36,
      "hit": false,
      "t": 122189.2717500002,
      "d": 136.36350000000675,
      "v": 124
    },
    {
      "midi": 60,
      "hit": false,
      "t": 122189.2717500004,
      "d": 102.27262499999779,
      "v": 127
    },
    {
      "midi": 52,
      "hit": false,
      "t": 122908.9680000004,
      "d": 1090.9079999999958,
      "v": 127
    },
    {
      "midi": 55,
      "hit": false,
      "t": 122908.9680000004,
      "d": 1090.9079999999958,
      "v": 127
    },
    {
      "midi": 36,
      "hit": false,
      "t": 122912.7558750002,
      "d": 1534.089374999996,
      "v": 112
    },
    {
      "midi": 60,
      "hit": false,
      "t": 122912.7558750004,
      "d": 1106.059500000003,
      "v": 127
    }
  ]
}