{
  "jsonPath": "Rock/Rock-And-Roll/Platters/smoke-gets-in-your-eyes.json",
  "path": "Rock\\Rock-And-Roll\\Platters\\Smoke Gets In Your Eyes.mid",
  "name": "Smoke Gets In Your Eyes",
  "difficulty": "Advanced",
  "bpm": 120,
  "notes": [
    {
      "midi": 55,
      "hit": false,
      "t": 4858.589016666666,
      "d": 363.6365999999998,
      "v": 74
    },
    {
      "midi": 58,
      "hit": false,
      "t": 5151.518499999999,
      "d": 323.2325333333338,
      "v": 58
    },
    {
      "midi": 63,
      "hit": false,
      "t": 5459.599508333333,
      "d": 313.13151666666636,
      "v": 71
    },
    {
      "midi": 58,
      "hit": false,
      "t": 5752.528991666666,
      "d": 303.03049999999985,
      "v": 58
    },
    {
      "midi": 55,
      "hit": false,
      "t": 6055.559491666666,
      "d": 358.586091666667,
      "v": 73
    },
    {
      "midi": 58,
      "hit": false,
      "t": 6363.6404999999995,
      "d": 292.92948333333334,
      "v": 63
    },
    {
      "midi": 63,
      "hit": false,
      "t": 6661.620491666667,
      "d": 303.03049999999985,
      "v": 76
    },
    {
      "midi": 58,
      "hit": false,
      "t": 6964.650991666666,
      "d": 287.8789749999996,
      "v": 64
    },
    {
      "midi": 55,
      "hit": false,
      "t": 7282.8330166666665,
      "d": 363.6365999999998,
      "v": 74
    },
    {
      "midi": 58,
      "hit": false,
      "t": 7575.7625,
      "d": 323.2325333333338,
      "v": 58
    },
    {
      "midi": 63,
      "hit": false,
      "t": 7883.843508333333,
      "d": 313.13151666666636,
      "v": 71
    },
    {
      "midi": 58,
      "hit": false,
      "t": 8176.772991666667,
      "d": 303.03049999999894,
      "v": 60
    },
    {
      "midi": 55,
      "hit": false,
      "t": 8479.803491666666,
      "d": 358.5860916666661,
      "v": 73
    },
    {
      "midi": 58,
      "hit": false,
      "t": 8787.884499999998,
      "d": 292.92948333333334,
      "v": 60
    },
    {
      "midi": 63,
      "hit": false,
      "t": 9085.864491666665,
      "d": 303.03050000000076,
      "v": 76
    },
    {
      "midi": 58,
      "hit": false,
      "t": 9388.894991666666,
      "d": 287.8789749999996,
      "v": 64
    },
    {
      "midi": 55,
      "hit": false,
      "t": 9707.077016666666,
      "d": 363.6365999999998,
      "v": 74
    },
    {
      "midi": 58,
      "hit": false,
      "t": 10000.0065,
      "d": 323.23253333333196,
      "v": 58
    },
    {
      "midi": 63,
      "hit": false,
      "t": 10308.087508333332,
      "d": 313.13151666666636,
      "v": 71
    },
    {
      "midi": 58,
      "hit": false,
      "t": 10601.016991666665,
      "d": 303.03049999999894,
      "v": 60
    },
    {
      "midi": 55,
      "hit": false,
      "t": 10904.047491666664,
      "d": 358.5860916666661,
      "v": 73
    },
    {
      "midi": 58,
      "hit": false,
      "t": 11212.128499999997,
      "d": 292.92948333333334,
      "v": 60
    },
    {
      "midi": 63,
      "hit": false,
      "t": 11510.108491666664,
      "d": 303.03050000000076,
      "v": 76
    },
    {
      "midi": 58,
      "hit": false,
      "t": 11813.138991666665,
      "d": 287.8789749999996,
      "v": 64
    },
    {
      "midi": 56,
      "hit": false,
      "t": 12131.321016666665,
      "d": 363.6365999999998,
      "v": 74
    },
    {
      "midi": 60,
      "hit": false,
      "t": 12424.250499999998,
      "d": 323.23253333333196,
      "v": 58
    },
    {
      "midi": 63,
      "hit": false,
      "t": 12732.331508333331,
      "d": 313.13151666666636,
      "v": 71
    },
    {
      "midi": 60,
      "hit": false,
      "t": 13025.260991666664,
      "d": 303.03049999999894,
      "v": 60
    },
    {
      "midi": 58,
      "hit": false,
      "t": 13328.291491666663,
      "d": 358.5860916666661,
      "v": 73
    },
    {
      "midi": 53,
      "hit": false,
      "t": 13636.372499999996,
      "d": 292.92948333333334,
      "v": 60
    },
    {
      "midi": 58,
      "hit": false,
      "t": 13934.352491666663,
      "d": 303.03050000000076,
      "v": 76
    },
    {
      "midi": 62,
      "hit": false,
      "t": 14237.382991666664,
      "d": 287.8789749999996,
      "v": 64
    },
    {
      "midi": 55,
      "hit": false,
      "t": 14555.565016666664,
      "d": 363.6365999999998,
      "v": 74
    },
    {
      "midi": 58,
      "hit": false,
      "t": 14848.494499999997,
      "d": 323.23253333333196,
      "v": 58
    },
    {
      "midi": 63,
      "hit": false,
      "t": 15156.57550833333,
      "d": 313.13151666666636,
      "v": 71
    },
    {
      "midi": 58,
      "hit": false,
      "t": 15449.504991666663,
      "d": 303.03049999999894,
      "v": 60
    },
    {
      "midi": 55,
      "hit": false,
      "t": 15752.535491666662,
      "d": 358.5860916666661,
      "v": 73
    },
    {
      "midi": 59,
      "hit": false,
      "t": 16060.616499999995,
      "d": 292.92948333333334,
      "v": 60
    },
    {
      "midi": 63,
      "hit": false,
      "t": 16358.596491666662,
      "d": 303.03049999999894,
      "v": 76
    },
    {
      "midi": 59,
      "hit": false,
      "t": 16661.62699166666,
      "d": 287.8789749999996,
      "v": 64
    },
    {
      "midi": 56,
      "hit": false,
      "t": 16979.80901666666,
      "d": 363.63660000000164,
      "v": 74
    },
    {
      "midi": 60,
      "hit": false,
      "t": 17272.738499999992,
      "d": 323.2325333333356,
      "v": 58
    },
    {
      "midi": 63,
      "hit": false,
      "t": 17580.819508333327,
      "d": 313.1315166666682,
      "v": 71
    },
    {
      "midi": 60,
      "hit": false,
      "t": 17873.74899166666,
      "d": 303.03050000000076,
      "v": 60
    },
    {
      "midi": 57,
      "hit": false,
      "t": 18176.77949166666,
      "d": 358.5860916666679,
      "v": 73
    },
    {
      "midi": 60,
      "hit": false,
      "t": 18484.860499999995,
      "d": 292.92948333333334,
      "v": 60
    },
    {
      "midi": 63,
      "hit": false,
      "t": 18782.840491666662,
      "d": 303.03050000000076,
      "v": 76
    },
    {
      "midi": 60,
      "hit": false,
      "t": 19085.870991666663,
      "d": 287.8789749999996,
      "v": 64
    },
    {
      "midi": 58,
      "hit": false,
      "t": 19404.05301666666,
      "d": 363.63660000000164,
      "v": 74
    },
    {
      "midi": 51,
      "hit": false,
      "t": 19696.982499999995,
      "d": 323.2325333333356,
      "v": 58
    },
    {
      "midi": 55,
      "hit": false,
      "t": 20005.06350833333,
      "d": 313.1315166666682,
      "v": 71
    },
    {
      "midi": 58,
      "hit": false,
      "t": 20297.992991666662,
      "d": 303.03050000000076,
      "v": 60
    },
    {
      "midi": 55,
      "hit": false,
      "t": 20601.023491666663,
      "d": 358.5860916666679,
      "v": 73
    },
    {
      "midi": 60,
      "hit": false,
      "t": 20909.104499999998,
      "d": 292.92948333333334,
      "v": 66
    },
    {
      "midi": 58,
      "hit": false,
      "t": 21207.084491666665,
      "d": 303.03050000000076,
      "v": 76
    },
    {
      "midi": 63,
      "hit": false,
      "t": 21510.114991666665,
      "d": 287.8789749999996,
      "v": 64
    },
    {
      "midi": 53,
      "hit": false,
      "t": 21828.297016666664,
      "d": 363.63660000000164,
      "v": 74
    },
    {
      "midi": 48,
      "hit": false,
      "t": 22121.226499999997,
      "d": 323.2325333333356,
      "v": 58
    },
    {
      "midi": 51,
      "hit": false,
      "t": 22429.30750833333,
      "d": 313.1315166666682,
      "v": 71
    },
    {
      "midi": 56,
      "hit": false,
      "t": 22722.236991666665,
      "d": 303.03050000000076,
      "v": 60
    },
    {
      "midi": 53,
      "hit": false,
      "t": 23025.267491666666,
      "d": 358.5860916666679,
      "v": 65
    },
    {
      "midi": 58,
      "hit": false,
      "t": 23333.3485,
      "d": 292.92948333333334,
      "v": 60
    },
    {
      "midi": 62,
      "hit": false,
      "t": 23631.328491666667,
      "d": 303.03050000000076,
      "v": 76
    },
    {
      "midi": 65,
      "hit": false,
      "t": 23934.358991666668,
      "d": 287.8789749999996,
      "v": 64
    },
    {
      "midi": 75,
      "hit": false,
      "t": 24242.440000000002,
      "d": 505.0508333333346,
      "v": 83
    },
    {
      "midi": 63,
      "hit": false,
      "t": 24252.54101666667,
      "d": 363.63660000000164,
      "v": 74
    },
    {
      "midi": 58,
      "hit": false,
      "t": 24545.470500000003,
      "d": 323.2325333333356,
      "v": 58
    },
    {
      "midi": 55,
      "hit": false,
      "t": 24853.551508333338,
      "d": 313.1315166666682,
      "v": 71
    },
    {
      "midi": 58,
      "hit": false,
      "t": 25146.48099166667,
      "d": 303.03050000000076,
      "v": 60
    },
    {
      "midi": 75,
      "hit": false,
      "t": 25348.501325000005,
      "d": 656.566083333335,
      "v": 78
    },
    {
      "midi": 79,
      "hit": false,
      "t": 25404.056916666672,
      "d": 590.9094750000004,
      "v": 53
    },
    {
      "midi": 60,
      "hit": false,
      "t": 25449.51149166667,
      "d": 358.5860916666679,
      "v": 73
    },
    {
      "midi": 82,
      "hit": false,
      "t": 25449.51149166667,
      "d": 434.3437166666663,
      "v": 56
    },
    {
      "midi": 84,
      "hit": false,
      "t": 25489.915558333338,
      "d": 525.2528666666694,
      "v": 86
    },
    {
      "midi": 58,
      "hit": false,
      "t": 25757.592500000006,
      "d": 292.92948333333334,
      "v": 66
    },
    {
      "midi": 60,
      "hit": false,
      "t": 26055.572491666673,
      "d": 303.03050000000076,
      "v": 76
    },
    {
      "midi": 58,
      "hit": false,
      "t": 26358.602991666674,
      "d": 287.8789749999996,
      "v": 64
    },
    {
      "midi": 72,
      "hit": false,
      "t": 26616.178916666675,
      "d": 696.970150000001,
      "v": 72
    },
    {
      "midi": 75,
      "hit": false,
      "t": 26671.73450833334,
      "d": 641.4145583333375,
      "v": 82
    },
    {
      "midi": 56,
      "hit": false,
      "t": 26676.785016666672,
      "d": 363.63660000000164,
      "v": 74
    },
    {
      "midi": 80,
      "hit": false,
      "t": 26722.239591666672,
      "d": 686.8691333333372,
      "v": 76
    },
    {
      "midi": 48,
      "hit": false,
      "t": 26969.714500000006,
      "d": 323.2325333333356,
      "v": 58
    },
    {
      "midi": 53,
      "hit": false,
      "t": 27277.79550833334,
      "d": 313.1315166666718,
      "v": 71
    },
    {
      "midi": 56,
      "hit": false,
      "t": 27570.724991666677,
      "d": 303.0305000000044,
      "v": 60
    },
    {
      "midi": 77,
      "hit": false,
      "t": 27808.098883333347,
      "d": 994.9501416666717,
      "v": 64
    },
    {
      "midi": 82,
      "hit": false,
      "t": 27858.60396666668,
      "d": 949.495566666672,
      "v": 81
    },
    {
      "midi": 58,
      "hit": false,
      "t": 27873.75549166668,
      "d": 358.5860916666679,
      "v": 73
    },
    {
      "midi": 86,
      "hit": false,
      "t": 27929.31108333335,
      "d": 919.1925166666697,
      "v": 74
    },
    {
      "midi": 56,
      "hit": false,
      "t": 28181.836500000016,
      "d": 292.92948333333334,
      "v": 66
    },
    {
      "midi": 58,
      "hit": false,
      "t": 28479.816491666683,
      "d": 303.03050000000076,
      "v": 76
    },
    {
      "midi": 62,
      "hit": false,
      "t": 28782.846991666684,
      "d": 287.8789749999996,
      "v": 64
    },
    {
      "midi": 82,
      "hit": false,
      "t": 28974.76630833335,
      "d": 292.92948333333334,
      "v": 51
    },
    {
      "midi": 80,
      "hit": false,
      "t": 29020.22088333335,
      "d": 146.46474166666667,
      "v": 66
    },
    {
      "midi": 79,
      "hit": false,
      "t": 29055.574441666682,
      "d": 580.808458333333,
      "v": 69
    },
    {
      "midi": 77,
      "hit": false,
      "t": 29095.978508333348,
      "d": 136.3637250000029,
      "v": 59
    },
    {
      "midi": 55,
      "hit": false,
      "t": 29101.029016666682,
      "d": 363.63660000000164,
      "v": 74
    },
    {
      "midi": 75,
      "hit": false,
      "t": 29146.48359166668,
      "d": 873.7379416666699,
      "v": 85
    },
    {
      "midi": 58,
      "hit": false,
      "t": 29393.958500000015,
      "d": 323.2325333333356,
      "v": 58
    },
    {
      "midi": 63,
      "hit": false,
      "t": 29702.03950833335,
      "d": 313.1315166666682,
      "v": 71
    },
    {
      "midi": 58,
      "hit": false,
      "t": 29994.968991666683,
      "d": 303.03050000000076,
      "v": 60
    },
    {
      "midi": 55,
      "hit": false,
      "t": 30297.999491666684,
      "d": 358.5860916666679,
      "v": 73
    },
    {
      "midi": 58,
      "hit": false,
      "t": 30606.08050000002,
      "d": 292.92948333333334,
      "v": 60
    },
    {
      "midi": 63,
      "hit": false,
      "t": 30904.060491666685,
      "d": 303.03050000000076,
      "v": 76
    },
    {
      "midi": 58,
      "hit": false,
      "t": 31207.090991666686,
      "d": 287.8789749999996,
      "v": 64
    },
    {
      "midi": 56,
      "hit": false,
      "t": 31525.273016666684,
      "d": 363.63660000000164,
      "v": 74
    },
    {
      "midi": 60,
      "hit": false,
      "t": 31818.202500000018,
      "d": 323.2325333333356,
      "v": 58
    },
    {
      "midi": 63,
      "hit": false,
      "t": 32126.283508333352,
      "d": 313.1315166666682,
      "v": 71
    },
    {
      "midi": 60,
      "hit": false,
      "t": 32419.212991666685,
      "d": 303.03050000000076,
      "v": 60
    },
    {
      "midi": 58,
      "hit": false,
      "t": 32722.243491666686,
      "d": 358.58609166666065,
      "v": 73
    },
    {
      "midi": 53,
      "hit": false,
      "t": 33030.32450000002,
      "d": 292.92948333333334,
      "v": 60
    },
    {
      "midi": 58,
      "hit": false,
      "t": 33328.304491666684,
      "d": 303.03050000000076,
      "v": 76
    },
    {
      "midi": 62,
      "hit": false,
      "t": 33631.334991666685,
      "d": 287.8789749999996,
      "v": 64
    },
    {
      "midi": 55,
      "hit": false,
      "t": 33949.51701666669,
      "d": 363.636599999998,
      "v": 74
    },
    {
      "midi": 58,
      "hit": false,
      "t": 34242.44650000002,
      "d": 323.2325333333356,
      "v": 58
    },
    {
      "midi": 63,
      "hit": false,
      "t": 34550.527508333354,
      "d": 313.1315166666682,
      "v": 71
    },
    {
      "midi": 58,
      "hit": false,
      "t": 34843.45699166669,
      "d": 303.03050000000076,
      "v": 60
    },
    {
      "midi": 55,
      "hit": false,
      "t": 35146.48749166669,
      "d": 358.5860916666643,
      "v": 73
    },
    {
      "midi": 59,
      "hit": false,
      "t": 35454.56850000002,
      "d": 292.92948333333334,
      "v": 60
    },
    {
      "midi": 63,
      "hit": false,
      "t": 35752.54849166669,
      "d": 303.03050000000076,
      "v": 76
    },
    {
      "midi": 59,
      "hit": false,
      "t": 36055.57899166669,
      "d": 287.8789749999996,
      "v": 64
    },
    {
      "midi": 56,
      "hit": false,
      "t": 36373.76101666669,
      "d": 363.636599999998,
      "v": 74
    },
    {
      "midi": 60,
      "hit": false,
      "t": 36666.690500000026,
      "d": 323.2325333333356,
      "v": 58
    },
    {
      "midi": 63,
      "hit": false,
      "t": 36974.77150833336,
      "d": 313.1315166666682,
      "v": 71
    },
    {
      "midi": 60,
      "hit": false,
      "t": 37267.700991666694,
      "d": 303.03050000000076,
      "v": 60
    },
    {
      "midi": 57,
      "hit": false,
      "t": 37570.731491666695,
      "d": 358.5860916666643,
      "v": 73
    },
    {
      "midi": 60,
      "hit": false,
      "t": 37878.81250000003,
      "d": 292.92948333333334,
      "v": 60
    },
    {
      "midi": 63,
      "hit": false,
      "t": 38176.792491666696,
      "d": 303.03050000000076,
      "v": 76
    },
    {
      "midi": 60,
      "hit": false,
      "t": 38479.8229916667,
      "d": 287.8789749999996,
      "v": 64
    },
    {
      "midi": 75,
      "hit": false,
      "t": 38787.90400000003,
      "d": 505.0508333333346,
      "v": 83
    },
    {
      "midi": 58,
      "hit": false,
      "t": 38798.0050166667,
      "d": 363.636599999998,
      "v": 74
    },
    {
      "midi": 51,
      "hit": false,
      "t": 39090.93450000003,
      "d": 323.2325333333356,
      "v": 58
    },
    {
      "midi": 55,
      "hit": false,
      "t": 39399.01550833337,
      "d": 313.1315166666682,
      "v": 71
    },
    {
      "midi": 58,
      "hit": false,
      "t": 39691.9449916667,
      "d": 303.03050000000076,
      "v": 60
    },
    {
      "midi": 75,
      "hit": false,
      "t": 39893.965325000034,
      "d": 656.5660833333313,
      "v": 78
    },
    {
      "midi": 79,
      "hit": false,
      "t": 39949.5209166667,
      "d": 590.9094750000004,
      "v": 53
    },
    {
      "midi": 55,
      "hit": false,
      "t": 39994.9754916667,
      "d": 358.5860916666643,
      "v": 73
    },
    {
      "midi": 82,
      "hit": false,
      "t": 39994.9754916667,
      "d": 434.34371666666266,
      "v": 56
    },
    {
      "midi": 84,
      "hit": false,
      "t": 40035.37955833337,
      "d": 525.2528666666622,
      "v": 86
    },
    {
      "midi": 60,
      "hit": false,
      "t": 40303.056500000035,
      "d": 292.92948333333334,
      "v": 66
    },
    {
      "midi": 58,
      "hit": false,
      "t": 40601.0364916667,
      "d": 303.03050000000076,
      "v": 76
    },
    {
      "midi": 63,
      "hit": false,
      "t": 40904.0669916667,
      "d": 287.8789749999996,
      "v": 64
    },
    {
      "midi": 72,
      "hit": false,
      "t": 41161.6429166667,
      "d": 696.9701500000083,
      "v": 72
    },
    {
      "midi": 75,
      "hit": false,
      "t": 41217.19850833337,
      "d": 641.4145583333375,
      "v": 82
    },
    {
      "midi": 53,
      "hit": false,
      "t": 41222.249016666705,
      "d": 363.636599999998,
      "v": 74
    },
    {
      "midi": 80,
      "hit": false,
      "t": 41267.70359166671,
      "d": 686.8691333333336,
      "v": 76
    },
    {
      "midi": 48,
      "hit": false,
      "t": 41515.17850000004,
      "d": 323.2325333333356,
      "v": 58
    },
    {
      "midi": 51,
      "hit": false,
      "t": 41823.25950833337,
      "d": 313.1315166666682,
      "v": 71
    },
    {
      "midi": 56,
      "hit": false,
      "t": 42116.188991666706,
      "d": 303.03050000000076,
      "v": 60
    },
    {
      "midi": 77,
      "hit": false,
      "t": 42353.562883333376,
      "d": 994.9501416666608,
      "v": 64
    },
    {
      "midi": 82,
      "hit": false,
      "t": 42404.067966666706,
      "d": 949.4955666666647,
      "v": 81
    },
    {
      "midi": 53,
      "hit": false,
      "t": 42419.21949166671,
      "d": 358.586091666657,
      "v": 65
    },
    {
      "midi": 86,
      "hit": false,
      "t": 42474.77508333337,
      "d": 919.1925166666697,
      "v": 74
    },
    {
      "midi": 58,
      "hit": false,
      "t": 42727.300500000034,
      "d": 292.92948333333334,
      "v": 60
    },
    {
      "midi": 62,
      "hit": false,
      "t": 43025.2804916667,
      "d": 303.03050000000076,
      "v": 76
    },
    {
      "midi": 65,
      "hit": false,
      "t": 43328.3109916667,
      "d": 287.8789750000069,
      "v": 64
    },
    {
      "midi": 55,
      "hit": false,
      "t": 43646.49301666671,
      "d": 363.636599999998,
      "v": 74
    },
    {
      "midi": 58,
      "hit": false,
      "t": 43939.422500000044,
      "d": 323.2325333333356,
      "v": 58
    },
    {
      "midi": 63,
      "hit": false,
      "t": 44247.50350833338,
      "d": 313.1315166666682,
      "v": 71
    },
    {
      "midi": 58,
      "hit": false,
      "t": 44540.43299166671,
      "d": 303.03050000000076,
      "v": 60
    },
    {
      "midi": 56,
      "hit": false,
      "t": 44843.46349166671,
      "d": 358.5860916666643,
      "v": 73
    },
    {
      "midi": 60,
      "hit": false,
      "t": 45151.54450000005,
      "d": 292.92948333333334,
      "v": 66
    },
    {
      "midi": 63,
      "hit": false,
      "t": 45449.524491666714,
      "d": 303.03050000000076,
      "v": 76
    },
    {
      "midi": 60,
      "hit": false,
      "t": 45752.554991666715,
      "d": 287.8789749999996,
      "v": 64
    },
    {
      "midi": 63,
      "hit": false,
      "t": 46070.73701666672,
      "d": 363.636599999998,
      "v": 74
    },
    {
      "midi": 55,
      "hit": false,
      "t": 46363.66650000005,
      "d": 323.2325333333356,
      "v": 58
    },
    {
      "midi": 58,
      "hit": false,
      "t": 46671.747508333385,
      "d": 313.1315166666682,
      "v": 71
    },
    {
      "midi": 55,
      "hit": false,
      "t": 46964.67699166672,
      "d": 303.03050000000076,
      "v": 60
    },
    {
      "midi": 54,
      "hit": false,
      "t": 47267.70749166672,
      "d": 358.5860916666643,
      "v": 73
    },
    {
      "midi": 58,
      "hit": false,
      "t": 47575.78850000005,
      "d": 292.92948333333334,
      "v": 66
    },
    {
      "midi": 61,
      "hit": false,
      "t": 47873.76849166672,
      "d": 303.03050000000076,
      "v": 76
    },
    {
      "midi": 54,
      "hit": false,
      "t": 48176.79899166672,
      "d": 287.8789749999996,
      "v": 64
    },
    {
      "midi": 59,
      "hit": false,
      "t": 48494.98101666672,
      "d": 363.636599999998,
      "v": 74
    },
    {
      "midi": 51,
      "hit": false,
      "t": 48787.910500000056,
      "d": 323.2325333333356,
      "v": 58
    },
    {
      "midi": 54,
      "hit": false,
      "t": 49095.99150833339,
      "d": 313.1315166666682,
      "v": 71
    },
    {
      "midi": 59,
      "hit": false,
      "t": 49388.920991666724,
      "d": 303.03050000000076,
      "v": 60
    },
    {
      "midi": 51,
      "hit": false,
      "t": 49691.951491666725,
      "d": 358.5860916666643,
      "v": 73
    },
    {
      "midi": 54,
      "hit": false,
      "t": 50000.03250000006,
      "d": 292.92948333333334,
      "v": 66
    },
    {
      "midi": 59,
      "hit": false,
      "t": 50298.01249166673,
      "d": 303.03050000000076,
      "v": 76
    },
    {
      "midi": 54,
      "hit": false,
      "t": 50601.04299166673,
      "d": 287.8789749999996,
      "v": 64
    },
    {
      "midi": 59,
      "hit": false,
      "t": 50919.22501666673,
      "d": 363.636599999998,
      "v": 74
    },
    {
      "midi": 51,
      "hit": false,
      "t": 51212.15450000006,
      "d": 323.2325333333356,
      "v": 58
    },
    {
      "midi": 54,
      "hit": false,
      "t": 51520.2355083334,
      "d": 313.1315166666682,
      "v": 71
    },
    {
      "midi": 59,
      "hit": false,
      "t": 51813.16499166673,
      "d": 303.03050000000076,
      "v": 60
    },
    {
      "midi": 51,
      "hit": false,
      "t": 52116.19549166673,
      "d": 358.5860916666643,
      "v": 73
    },
    {
      "midi": 54,
      "hit": false,
      "t": 52424.276500000065,
      "d": 292.92948333333334,
      "v": 66
    },
    {
      "midi": 59,
      "hit": false,
      "t": 52722.25649166673,
      "d": 303.03050000000076,
      "v": 76
    },
    {
      "midi": 54,
      "hit": false,
      "t": 53025.28699166673,
      "d": 287.8789749999996,
      "v": 64
    },
    {
      "midi": 58,
      "hit": false,
      "t": 53343.469016666735,
      "d": 363.636599999998,
      "v": 74
    },
    {
      "midi": 54,
      "hit": false,
      "t": 53636.39850000007,
      "d": 323.2325333333356,
      "v": 58
    },
    {
      "midi": 49,
      "hit": false,
      "t": 53944.4795083334,
      "d": 313.1315166666682,
      "v": 71
    },
    {
      "midi": 58,
      "hit": false,
      "t": 54237.408991666736,
      "d": 303.03050000000076,
      "v": 60
    },
    {
      "midi": 54,
      "hit": false,
      "t": 54540.43949166674,
      "d": 358.5860916666643,
      "v": 73
    },
    {
      "midi": 49,
      "hit": false,
      "t": 54848.52050000007,
      "d": 292.92948333333334,
      "v": 66
    },
    {
      "midi": 58,
      "hit": false,
      "t": 55146.50049166674,
      "d": 303.03050000000076,
      "v": 76
    },
    {
      "midi": 54,
      "hit": false,
      "t": 55449.53099166674,
      "d": 287.8789749999996,
      "v": 64
    },
    {
      "midi": 58,
      "hit": false,
      "t": 55767.71301666674,
      "d": 363.636599999998,
      "v": 74
    },
    {
      "midi": 54,
      "hit": false,
      "t": 56060.642500000075,
      "d": 323.2325333333356,
      "v": 58
    },
    {
      "midi": 49,
      "hit": false,
      "t": 56368.72350833341,
      "d": 313.1315166666682,
      "v": 71
    },
    {
      "midi": 58,
      "hit": false,
      "t": 56661.65299166674,
      "d": 303.03050000000076,
      "v": 60
    },
    {
      "midi": 54,
      "hit": false,
      "t": 56964.68349166674,
      "d": 358.5860916666643,
      "v": 73
    },
    {
      "midi": 49,
      "hit": false,
      "t": 57272.76450000008,
      "d": 292.92948333333334,
      "v": 66
    },
    {
      "midi": 58,
      "hit": false,
      "t": 57570.744491666745,
      "d": 303.03050000000076,
      "v": 76
    },
    {
      "midi": 54,
      "hit": false,
      "t": 57873.774991666745,
      "d": 287.8789749999996,
      "v": 64
    },
    {
      "midi": 59,
      "hit": false,
      "t": 58191.95701666675,
      "d": 363.636599999998,
      "v": 74
    },
    {
      "midi": 51,
      "hit": false,
      "t": 58484.88650000008,
      "d": 323.2325333333356,
      "v": 58
    },
    {
      "midi": 54,
      "hit": false,
      "t": 58792.967508333415,
      "d": 313.1315166666682,
      "v": 71
    },
    {
      "midi": 59,
      "hit": false,
      "t": 59085.89699166675,
      "d": 303.03050000000076,
      "v": 60
    },
    {
      "midi": 51,
      "hit": false,
      "t": 59388.92749166675,
      "d": 358.5860916666643,
      "v": 73
    },
    {
      "midi": 54,
      "hit": false,
      "t": 59697.00850000008,
      "d": 292.92948333333334,
      "v": 66
    },
    {
      "midi": 59,
      "hit": false,
      "t": 59994.98849166675,
      "d": 303.03050000000076,
      "v": 76
    },
    {
      "midi": 54,
      "hit": false,
      "t": 60298.01899166675,
      "d": 287.8789749999996,
      "v": 64
    },
    {
      "midi": 56,
      "hit": false,
      "t": 60616.20101666675,
      "d": 363.636599999998,
      "v": 74
    },
    {
      "midi": 51,
      "hit": false,
      "t": 60909.13050000009,
      "d": 323.2325333333356,
      "v": 58
    },
    {
      "midi": 59,
      "hit": false,
      "t": 61217.21150833342,
      "d": 313.1315166666682,
      "v": 71
    },
    {
      "midi": 56,
      "hit": false,
      "t": 61510.140991666754,
      "d": 303.03050000000076,
      "v": 60
    },
    {
      "midi": 50,
      "hit": false,
      "t": 61813.171491666755,
      "d": 358.5860916666643,
      "v": 73
    },
    {
      "midi": 53,
      "hit": false,
      "t": 62121.25250000009,
      "d": 292.92948333333334,
      "v": 66
    },
    {
      "midi": 58,
      "hit": false,
      "t": 62419.23249166676,
      "d": 303.03050000000076,
      "v": 76
    },
    {
      "midi": 53,
      "hit": false,
      "t": 62722.26299166676,
      "d": 287.8789749999996,
      "v": 64
    },
    {
      "midi": 55,
      "hit": false,
      "t": 63040.44501666676,
      "d": 363.636599999998,
      "v": 74
    },
    {
      "midi": 58,
      "hit": false,
      "t": 63333.37450000009,
      "d": 323.2325333333356,
      "v": 58
    },
    {
      "midi": 63,
      "hit": false,
      "t": 63641.45550833343,
      "d": 313.1315166666682,
      "v": 71
    },
    {
      "midi": 58,
      "hit": false,
      "t": 63934.38499166676,
      "d": 303.03050000000076,
      "v": 60
    },
    {
      "midi": 55,
      "hit": false,
      "t": 64237.41549166676,
      "d": 358.5860916666643,
      "v": 73
    },
    {
      "midi": 58,
      "hit": false,
      "t": 64545.496500000096,
      "d": 292.92948333333334,
      "v": 60
    },
    {
      "midi": 63,
      "hit": false,
      "t": 64843.47649166676,
      "d": 303.03050000000076,
      "v": 76
    },
    {
      "midi": 58,
      "hit": false,
      "t": 65146.50699166676,
      "d": 287.8789749999996,
      "v": 64
    },
    {
      "midi": 56,
      "hit": false,
      "t": 65464.689016666765,
      "d": 363.6366000000053,
      "v": 74
    },
    {
      "midi": 53,
      "hit": false,
      "t": 65757.6185000001,
      "d": 323.2325333333283,
      "v": 58
    },
    {
      "midi": 62,
      "hit": false,
      "t": 66065.69950833343,
      "d": 313.1315166666609,
      "v": 71
    },
    {
      "midi": 58,
      "hit": false,
      "t": 66358.62899166676,
      "d": 303.03050000000803,
      "v": 60
    },
    {
      "midi": 62,
      "hit": false,
      "t": 66666.7100000001,
      "d": 303.0304999999935,
      "v": 60
    },
    {
      "midi": 82,
      "hit": false,
      "t": 66818.22525000009,
      "d": 171.71728333333158,
      "v": 69
    },
    {
      "midi": 80,
      "hit": false,
      "t": 66969.74050000009,
      "d": 176.767791666658,
      "v": 63
    },
    {
      "midi": 77,
      "hit": false,
      "t": 67121.25575000008,
      "d": 151.51524999999674,
      "v": 75
    },
    {
      "midi": 74,
      "hit": false,
      "t": 67272.77100000008,
      "d": 202.02033333333384,
      "v": 67
    },
    {
      "midi": 70,
      "hit": false,
      "t": 67424.28625000008,
      "d": 156.56575833332317,
      "v": 79
    },
    {
      "midi": 68,
      "hit": false,
      "t": 67575.80150000007,
      "d": 146.46474166665575,
      "v": 63
    },
    {
      "midi": 65,
      "hit": false,
      "t": 67727.31675000006,
      "d": 136.3637250000029,
      "v": 70
    },
    {
      "midi": 55,
      "hit": false,
      "t": 67888.93301666672,
      "d": 363.636599999998,
      "v": 74
    },
    {
      "midi": 58,
      "hit": false,
      "t": 68181.86250000005,
      "d": 323.2325333333283,
      "v": 58
    },
    {
      "midi": 63,
      "hit": false,
      "t": 68489.94350833338,
      "d": 313.1315166666609,
      "v": 71
    },
    {
      "midi": 58,
      "hit": false,
      "t": 68782.8729916667,
      "d": 303.03050000000803,
      "v": 60
    },
    {
      "midi": 55,
      "hit": false,
      "t": 69085.90349166672,
      "d": 358.58609166667156,
      "v": 73
    },
    {
      "midi": 58,
      "hit": false,
      "t": 69393.98450000005,
      "d": 292.9294833333406,
      "v": 60
    },
    {
      "midi": 63,
      "hit": false,
      "t": 69691.96449166672,
      "d": 303.0304999999935,
      "v": 76
    },
    {
      "midi": 58,
      "hit": false,
      "t": 69994.99499166671,
      "d": 287.8789749999996,
      "v": 64
    },
    {
      "midi": 56,
      "hit": false,
      "t": 70313.17701666671,
      "d": 363.63660000001255,
      "v": 74
    },
    {
      "midi": 60,
      "hit": false,
      "t": 70606.10650000005,
      "d": 323.2325333333283,
      "v": 58
    },
    {
      "midi": 63,
      "hit": false,
      "t": 70914.18750833339,
      "d": 313.1315166666609,
      "v": 71
    },
    {
      "midi": 60,
      "hit": false,
      "t": 71207.11699166671,
      "d": 303.03050000000803,
      "v": 60
    },
    {
      "midi": 58,
      "hit": false,
      "t": 71510.14749166672,
      "d": 358.58609166667156,
      "v": 73
    },
    {
      "midi": 53,
      "hit": false,
      "t": 71818.22850000006,
      "d": 292.9294833333406,
      "v": 60
    },
    {
      "midi": 58,
      "hit": false,
      "t": 72116.20849166672,
      "d": 303.0304999999935,
      "v": 76
    },
    {
      "midi": 62,
      "hit": false,
      "t": 72419.23899166672,
      "d": 287.8789749999996,
      "v": 64
    },
    {
      "midi": 55,
      "hit": false,
      "t": 72737.42101666672,
      "d": 363.63660000001255,
      "v": 74
    },
    {
      "midi": 58,
      "hit": false,
      "t": 73030.35050000006,
      "d": 323.2325333333283,
      "v": 58
    },
    {
      "midi": 63,
      "hit": false,
      "t": 73338.4315083334,
      "d": 313.1315166666609,
      "v": 71
    },
    {
      "midi": 58,
      "hit": false,
      "t": 73631.36099166672,
      "d": 303.03050000000803,
      "v": 60
    },
    {
      "midi": 55,
      "hit": false,
      "t": 73934.39149166673,
      "d": 358.58609166667156,
      "v": 73
    },
    {
      "midi": 59,
      "hit": false,
      "t": 74242.47250000006,
      "d": 292.9294833333406,
      "v": 60
    },
    {
      "midi": 63,
      "hit": false,
      "t": 74540.45249166673,
      "d": 303.0304999999935,
      "v": 76
    },
    {
      "midi": 59,
      "hit": false,
      "t": 74843.48299166672,
      "d": 287.8789749999996,
      "v": 64
    },
    {
      "midi": 56,
      "hit": false,
      "t": 75161.66501666672,
      "d": 363.63660000001255,
      "v": 74
    },
    {
      "midi": 60,
      "hit": false,
      "t": 75454.59450000006,
      "d": 323.2325333333283,
      "v": 58
    },
    {
      "midi": 63,
      "hit": false,
      "t": 75762.6755083334,
      "d": 313.1315166666609,
      "v": 71
    },
    {
      "midi": 60,
      "hit": false,
      "t": 76055.60499166673,
      "d": 303.03050000000803,
      "v": 60
    },
    {
      "midi": 57,
      "hit": false,
      "t": 76358.63549166673,
      "d": 358.58609166667156,
      "v": 73
    },
    {
      "midi": 60,
      "hit": false,
      "t": 76666.71650000007,
      "d": 292.9294833333406,
      "v": 60
    },
    {
      "midi": 63,
      "hit": false,
      "t": 76964.69649166673,
      "d": 303.0304999999935,
      "v": 76
    },
    {
      "midi": 60,
      "hit": false,
      "t": 77267.72699166673,
      "d": 287.8789749999996,
      "v": 64
    },
    {
      "midi": 58,
      "hit": false,
      "t": 77585.90901666673,
      "d": 363.63660000001255,
      "v": 74
    },
    {
      "midi": 51,
      "hit": false,
      "t": 77878.83850000007,
      "d": 323.2325333333283,
      "v": 58
    },
    {
      "midi": 55,
      "hit": false,
      "t": 78186.9195083334,
      "d": 313.1315166666609,
      "v": 71
    },
    {
      "midi": 58,
      "hit": false,
      "t": 78479.84899166673,
      "d": 303.03050000000803,
      "v": 60
    },
    {
      "midi": 55,
      "hit": false,
      "t": 78782.87949166674,
      "d": 358.58609166667156,
      "v": 73
    },
    {
      "midi": 60,
      "hit": false,
      "t": 79090.96050000007,
      "d": 292.9294833333406,
      "v": 66
    },
    {
      "midi": 58,
      "hit": false,
      "t": 79388.94049166674,
      "d": 303.0304999999935,
      "v": 76
    },
    {
      "midi": 63,
      "hit": false,
      "t": 79691.97099166673,
      "d": 287.8789749999996,
      "v": 64
    },
    {
      "midi": 53,
      "hit": false,
      "t": 80010.15301666674,
      "d": 363.63660000001255,
      "v": 74
    },
    {
      "midi": 48,
      "hit": false,
      "t": 80303.08250000008,
      "d": 323.2325333333283,
      "v": 58
    },
    {
      "midi": 51,
      "hit": false,
      "t": 80611.16350833341,
      "d": 313.1315166666609,
      "v": 71
    },
    {
      "midi": 56,
      "hit": false,
      "t": 80904.09299166674,
      "d": 303.03050000000803,
      "v": 60
    },
    {
      "midi": 53,
      "hit": false,
      "t": 81207.12349166675,
      "d": 358.58609166667156,
      "v": 65
    },
    {
      "midi": 58,
      "hit": false,
      "t": 81515.20450000008,
      "d": 292.9294833333406,
      "v": 60
    },
    {
      "midi": 62,
      "hit": false,
      "t": 81813.18449166675,
      "d": 303.0304999999935,
      "v": 76
    },
    {
      "midi": 65,
      "hit": false,
      "t": 82116.21499166674,
      "d": 287.8789749999996,
      "v": 64
    },
    {
      "midi": 55,
      "hit": false,
      "t": 82434.39701666674,
      "d": 363.63660000001255,
      "v": 74
    },
    {
      "midi": 51,
      "hit": false,
      "t": 82727.32650000008,
      "d": 323.2325333333283,
      "v": 58
    },
    {
      "midi": 58,
      "hit": false,
      "t": 83035.40750833342,
      "d": 313.1315166666609,
      "v": 71
    },
    {
      "midi": 55,
      "hit": false,
      "t": 83328.33699166674,
      "d": 303.03050000000803,
      "v": 60
    },
    {
      "midi": 53,
      "hit": false,
      "t": 83636.41800000008,
      "d": 303.0304999999935,
      "v": 60
    },
    {
      "midi": 82,
      "hit": false,
      "t": 83787.93325000007,
      "d": 171.71728333333158,
      "v": 69
    },
    {
      "midi": 80,
      "hit": false,
      "t": 83939.44850000007,
      "d": 176.767791666658,
      "v": 63
    },
    {
      "midi": 77,
      "hit": false,
      "t": 84090.96375000007,
      "d": 151.51524999999674,
      "v": 75
    },
    {
      "midi": 74,
      "hit": false,
      "t": 84242.47900000006,
      "d": 202.02033333333384,
      "v": 67
    },
    {
      "midi": 70,
      "hit": false,
      "t": 84393.99425000006,
      "d": 156.56575833332317,
      "v": 79
    },
    {
      "midi": 68,
      "hit": false,
      "t": 84545.50950000006,
      "d": 146.46474166665575,
      "v": 63
    },
    {
      "midi": 65,
      "hit": false,
      "t": 84697.02475000004,
      "d": 136.3637250000029,
      "v": 70
    },
    {
      "midi": 55,
      "hit": false,
      "t": 84858.6410166667,
      "d": 363.636599999998,
      "v": 74
    },
    {
      "midi": 51,
      "hit": false,
      "t": 85151.57050000003,
      "d": 323.2325333333283,
      "v": 58
    },
    {
      "midi": 58,
      "hit": false,
      "t": 85459.65150833337,
      "d": 313.1315166666609,
      "v": 71
    },
    {
      "midi": 55,
      "hit": false,
      "t": 85752.58099166669,
      "d": 303.03050000000803,
      "v": 60
    },
    {
      "midi": 53,
      "hit": false,
      "t": 86060.66200000003,
      "d": 303.0304999999935,
      "v": 60
    },
    {
      "midi": 86,
      "hit": false,
      "t": 86212.17725000002,
      "d": 171.71728333333158,
      "v": 69
    },
    {
      "midi": 83,
      "hit": false,
      "t": 86363.69250000002,
      "d": 176.767791666658,
      "v": 63
    },
    {
      "midi": 80,
      "hit": false,
      "t": 86515.20775000002,
      "d": 151.51524999999674,
      "v": 75
    },
    {
      "midi": 77,
      "hit": false,
      "t": 86666.72300000001,
      "d": 202.02033333333384,
      "v": 67
    },
    {
      "midi": 74,
      "hit": false,
      "t": 86818.23825000001,
      "d": 156.56575833332317,
      "v": 79
    },
    {
      "midi": 71,
      "hit": false,
      "t": 86969.7535,
      "d": 146.46474166665575,
      "v": 63
    },
    {
      "midi": 68,
      "hit": false,
      "t": 87121.26874999999,
      "d": 136.3637250000029,
      "v": 70
    },
    {
      "midi": 68,
      "hit": false,
      "t": 87272.78399999999,
      "d": 520.2023583333357,
      "v": 59
    },
    {
      "midi": 56,
      "hit": false,
      "t": 87272.78399999999,
      "d": 535.3538833333296,
      "v": 71
    },
    {
      "midi": 60,
      "hit": false,
      "t": 87272.78399999999,
      "d": 540.404391666656,
      "v": 63
    },
    {
      "midi": 65,
      "hit": false,
      "t": 87272.78399999999,
      "d": 550.5054083333234,
      "v": 51
    },
    {
      "midi": 72,
      "hit": false,
      "t": 87878.84499999997,
      "d": 439.39422499999637,
      "v": 59
    },
    {
      "midi": 68,
      "hit": false,
      "t": 87878.84499999997,
      "d": 469.6972749999986,
      "v": 61
    },
    {
      "midi": 60,
      "hit": false,
      "t": 87878.84499999997,
      "d": 479.79829166666605,
      "v": 76
    },
    {
      "midi": 65,
      "hit": false,
      "t": 87878.84499999997,
      "d": 505.0508333333273,
      "v": 35
    },
    {
      "midi": 56,
      "hit": false,
      "t": 88484.90599999996,
      "d": 464.6467666666722,
      "v": 74
    },
    {
      "midi": 68,
      "hit": false,
      "t": 88484.90599999996,
      "d": 500.0003250000009,
      "v": 53
    },
    {
      "midi": 60,
      "hit": false,
      "t": 88484.90599999996,
      "d": 515.1518499999947,
      "v": 75
    },
    {
      "midi": 65,
      "hit": false,
      "t": 88484.90599999996,
      "d": 520.2023583333212,
      "v": 56
    },
    {
      "midi": 68,
      "hit": false,
      "t": 89090.96699999995,
      "d": 560.6064250000054,
      "v": 70
    },
    {
      "midi": 65,
      "hit": false,
      "t": 89090.96699999995,
      "d": 565.6569333333318,
      "v": 55
    },
    {
      "midi": 60,
      "hit": false,
      "t": 89090.96699999995,
      "d": 570.7074416666583,
      "v": 81
    },
    {
      "midi": 72,
      "hit": false,
      "t": 89090.96699999995,
      "d": 570.7074416666583,
      "v": 66
    },
    {
      "midi": 55,
      "hit": false,
      "t": 89697.02799999993,
      "d": 2257.577225000001,
      "v": 71
    },
    {
      "midi": 58,
      "hit": false,
      "t": 89697.02799999993,
      "d": 2272.7287499999948,
      "v": 63
    },
    {
      "midi": 63,
      "hit": false,
      "t": 89697.02799999993,
      "d": 2272.7287499999948,
      "v": 51
    },
    {
      "midi": 67,
      "hit": false,
      "t": 89697.02799999993,
      "d": 2292.9307833333296,
      "v": 59
    },
    {
      "midi": 75,
      "hit": false,
      "t": 92121.27199999992,
      "d": 101.0101666666742,
      "v": 66
    },
    {
      "midi": 77,
      "hit": false,
      "t": 92191.9791166666,
      "d": 136.3637250000029,
      "v": 58
    },
    {
      "midi": 79,
      "hit": false,
      "t": 92262.68623333327,
      "d": 101.01016666665964,
      "v": 52
    },
    {
      "midi": 80,
      "hit": false,
      "t": 92333.39334999993,
      "d": 166.66677500000515,
      "v": 67
    },
    {
      "midi": 82,
      "hit": false,
      "t": 92404.1004666666,
      "d": 141.41423333332932,
      "v": 62
    },
    {
      "midi": 84,
      "hit": false,
      "t": 92474.80758333327,
      "d": 101.01016666665964,
      "v": 66
    },
    {
      "midi": 86,
      "hit": false,
      "t": 92545.51469999993,
      "d": 101.0101666666742,
      "v": 66
    },
    {
      "midi": 87,
      "hit": false,
      "t": 92616.2218166666,
      "d": 136.3637250000029,
      "v": 58
    },
    {
      "midi": 86,
      "hit": false,
      "t": 92686.92893333327,
      "d": 101.01016666665964,
      "v": 52
    },
    {
      "midi": 84,
      "hit": false,
      "t": 92757.63604999993,
      "d": 166.66677500000515,
      "v": 67
    },
    {
      "midi": 82,
      "hit": false,
      "t": 92828.3431666666,
      "d": 141.41423333332932,
      "v": 62
    },
    {
      "midi": 80,
      "hit": false,
      "t": 92899.05028333327,
      "d": 101.01016666665964,
      "v": 66
    },
    {
      "midi": 79,
      "hit": false,
      "t": 92969.75739999993,
      "d": 101.0101666666742,
      "v": 66
    },
    {
      "midi": 77,
      "hit": false,
      "t": 93040.4645166666,
      "d": 101.0101666666742,
      "v": 66
    },
    {
      "midi": 75,
      "hit": false,
      "t": 93111.17163333327,
      "d": 101.0101666666742,
      "v": 66
    },
    {
      "midi": 77,
      "hit": false,
      "t": 93217.23230833327,
      "d": 136.3637250000029,
      "v": 58
    },
    {
      "midi": 79,
      "hit": false,
      "t": 93287.93942499995,
      "d": 101.01016666665964,
      "v": 52
    },
    {
      "midi": 80,
      "hit": false,
      "t": 93358.6465416666,
      "d": 166.66677500000515,
      "v": 67
    },
    {
      "midi": 82,
      "hit": false,
      "t": 93429.35365833328,
      "d": 141.41423333332932,
      "v": 62
    },
    {
      "midi": 84,
      "hit": false,
      "t": 93500.06077499995,
      "d": 101.01016666665964,
      "v": 66
    },
    {
      "midi": 86,
      "hit": false,
      "t": 93570.7678916666,
      "d": 101.0101666666742,
      "v": 66
    },
    {
      "midi": 87,
      "hit": false,
      "t": 93641.47500833328,
      "d": 136.3637250000029,
      "v": 58
    },
    {
      "midi": 86,
      "hit": false,
      "t": 93712.18212499995,
      "d": 101.01016666665964,
      "v": 52
    },
    {
      "midi": 84,
      "hit": false,
      "t": 93782.8892416666,
      "d": 166.66677500000515,
      "v": 67
    },
    {
      "midi": 82,
      "hit": false,
      "t": 93853.59635833328,
      "d": 141.41423333332932,
      "v": 62
    },
    {
      "midi": 80,
      "hit": false,
      "t": 93924.30347499995,
      "d": 101.01016666665964,
      "v": 66
    },
    {
      "midi": 79,
      "hit": false,
      "t": 93995.0105916666,
      "d": 101.0101666666742,
      "v": 66
    },
    {
      "midi": 77,
      "hit": false,
      "t": 94065.71770833328,
      "d": 101.0101666666742,
      "v": 66
    },
    {
      "midi": 75,
      "hit": false,
      "t": 94136.42482499995,
      "d": 101.0101666666742,
      "v": 66
    },
    {
      "midi": 77,
      "hit": false,
      "t": 94242.48549999995,
      "d": 136.3637250000029,
      "v": 58
    },
    {
      "midi": 79,
      "hit": false,
      "t": 94313.19261666662,
      "d": 101.01016666665964,
      "v": 52
    },
    {
      "midi": 80,
      "hit": false,
      "t": 94383.89973333328,
      "d": 166.66677500000515,
      "v": 67
    },
    {
      "midi": 82,
      "hit": false,
      "t": 94454.60684999995,
      "d": 141.41423333332932,
      "v": 62
    },
    {
      "midi": 84,
      "hit": false,
      "t": 94525.31396666662,
      "d": 101.01016666665964,
      "v": 66
    },
    {
      "midi": 86,
      "hit": false,
      "t": 94596.02108333328,
      "d": 101.0101666666742,
      "v": 66
    },
    {
      "midi": 87,
      "hit": false,
      "t": 94666.72819999995,
      "d": 136.3637250000029,
      "v": 58
    },
    {
      "midi": 86,
      "hit": false,
      "t": 94737.43531666663,
      "d": 101.01016666665964,
      "v": 52
    },
    {
      "midi": 84,
      "hit": false,
      "t": 94808.14243333328,
      "d": 166.66677500000515,
      "v": 67
    },
    {
      "midi": 82,
      "hit": false,
      "t": 94878.84954999996,
      "d": 141.41423333332932,
      "v": 62
    },
    {
      "midi": 80,
      "hit": false,
      "t": 94949.55666666663,
      "d": 101.01016666665964,
      "v": 66
    },
    {
      "midi": 79,
      "hit": false,
      "t": 95020.26378333328,
      "d": 101.0101666666742,
      "v": 66
    },
    {
      "midi": 77,
      "hit": false,
      "t": 95090.97089999996,
      "d": 101.0101666666742,
      "v": 66
    },
    {
      "midi": 75,
      "hit": false,
      "t": 95161.67801666663,
      "d": 101.0101666666742,
      "v": 66
    }
  ]
}