{
  "jsonPath": "Animes/Hunter X Hunter MIDI Collection/dancin-yoderu-naito.json",
  "path": "Animes\\Hunter X Hunter MIDI Collection\\Dancin yoderu naito.mid",
  "name": "Dancin yoderu naito",
  "difficulty": "Advanced",
  "bpm": 137.99987580011177,
  "notes": [
    {
      "midi": 48,
      "hit": false,
      "t": 181.15958333333336,
      "d": 217.39150000000004,
      "v": 126
    },
    {
      "midi": 67,
      "hit": false,
      "t": 208.33333333333331,
      "d": 217.3915,
      "v": 126
    },
    {
      "midi": 55,
      "hit": false,
      "t": 398.5510833333334,
      "d": 217.39150000000006,
      "v": 126
    },
    {
      "midi": 52,
      "hit": false,
      "t": 398.5510833333334,
      "d": 217.39150000000006,
      "v": 126
    },
    {
      "midi": 76,
      "hit": false,
      "t": 425.7248333333333,
      "d": 217.39150000000006,
      "v": 126
    },
    {
      "midi": 43,
      "hit": false,
      "t": 615.9425833333335,
      "d": 217.39150000000006,
      "v": 126
    },
    {
      "midi": 67,
      "hit": false,
      "t": 643.1163333333334,
      "d": 326.08725000000004,
      "v": 126
    },
    {
      "midi": 55,
      "hit": false,
      "t": 833.3340833333335,
      "d": 217.39150000000006,
      "v": 126
    },
    {
      "midi": 52,
      "hit": false,
      "t": 833.3340833333335,
      "d": 217.39150000000006,
      "v": 126
    },
    {
      "midi": 67,
      "hit": false,
      "t": 969.2035833333334,
      "d": 108.69575000000009,
      "v": 126
    },
    {
      "midi": 48,
      "hit": false,
      "t": 1050.7255833333336,
      "d": 217.39149999999995,
      "v": 126
    },
    {
      "midi": 67,
      "hit": false,
      "t": 1077.8993333333335,
      "d": 217.39149999999995,
      "v": 126
    },
    {
      "midi": 55,
      "hit": false,
      "t": 1268.1170833333335,
      "d": 217.39149999999995,
      "v": 126
    },
    {
      "midi": 52,
      "hit": false,
      "t": 1268.1170833333335,
      "d": 217.39149999999995,
      "v": 126
    },
    {
      "midi": 76,
      "hit": false,
      "t": 1295.2908333333335,
      "d": 217.39149999999995,
      "v": 126
    },
    {
      "midi": 43,
      "hit": false,
      "t": 1485.5085833333335,
      "d": 217.39149999999995,
      "v": 126
    },
    {
      "midi": 67,
      "hit": false,
      "t": 1512.6823333333334,
      "d": 326.08725000000004,
      "v": 126
    },
    {
      "midi": 55,
      "hit": false,
      "t": 1702.9000833333334,
      "d": 217.39149999999995,
      "v": 126
    },
    {
      "midi": 52,
      "hit": false,
      "t": 1702.9000833333334,
      "d": 217.39149999999995,
      "v": 126
    },
    {
      "midi": 67,
      "hit": false,
      "t": 1838.7695833333335,
      "d": 108.69575000000009,
      "v": 126
    },
    {
      "midi": 53,
      "hit": false,
      "t": 1920.2915833333334,
      "d": 217.39149999999995,
      "v": 126
    },
    {
      "midi": 69,
      "hit": false,
      "t": 1947.4653333333335,
      "d": 217.39150000000018,
      "v": 126
    },
    {
      "midi": 60,
      "hit": false,
      "t": 2137.6830833333333,
      "d": 217.39150000000018,
      "v": 126
    },
    {
      "midi": 57,
      "hit": false,
      "t": 2137.6830833333333,
      "d": 217.39150000000018,
      "v": 126
    },
    {
      "midi": 77,
      "hit": false,
      "t": 2164.8568333333337,
      "d": 217.39150000000018,
      "v": 126
    },
    {
      "midi": 48,
      "hit": false,
      "t": 2355.0745833333335,
      "d": 217.39150000000018,
      "v": 126
    },
    {
      "midi": 69,
      "hit": false,
      "t": 2382.248333333334,
      "d": 326.08725000000004,
      "v": 126
    },
    {
      "midi": 60,
      "hit": false,
      "t": 2572.4660833333337,
      "d": 217.39150000000018,
      "v": 126
    },
    {
      "midi": 57,
      "hit": false,
      "t": 2572.4660833333337,
      "d": 217.39150000000018,
      "v": 126
    },
    {
      "midi": 69,
      "hit": false,
      "t": 2708.335583333334,
      "d": 108.69574999999986,
      "v": 126
    },
    {
      "midi": 53,
      "hit": false,
      "t": 2789.857583333334,
      "d": 217.39150000000018,
      "v": 126
    },
    {
      "midi": 69,
      "hit": false,
      "t": 2817.031333333334,
      "d": 217.39150000000018,
      "v": 126
    },
    {
      "midi": 60,
      "hit": false,
      "t": 3007.249083333334,
      "d": 217.39150000000018,
      "v": 126
    },
    {
      "midi": 57,
      "hit": false,
      "t": 3007.249083333334,
      "d": 217.39150000000018,
      "v": 126
    },
    {
      "midi": 77,
      "hit": false,
      "t": 3034.422833333334,
      "d": 217.39150000000018,
      "v": 126
    },
    {
      "midi": 48,
      "hit": false,
      "t": 3224.6405833333342,
      "d": 217.39150000000018,
      "v": 126
    },
    {
      "midi": 69,
      "hit": false,
      "t": 3251.814333333334,
      "d": 326.08725000000004,
      "v": 126
    },
    {
      "midi": 60,
      "hit": false,
      "t": 3442.0320833333344,
      "d": 217.39150000000018,
      "v": 126
    },
    {
      "midi": 57,
      "hit": false,
      "t": 3442.0320833333344,
      "d": 217.39150000000018,
      "v": 126
    },
    {
      "midi": 69,
      "hit": false,
      "t": 3577.901583333334,
      "d": 108.69574999999986,
      "v": 126
    },
    {
      "midi": 55,
      "hit": false,
      "t": 3659.4235833333346,
      "d": 217.39150000000018,
      "v": 126
    },
    {
      "midi": 71,
      "hit": false,
      "t": 3686.597333333334,
      "d": 217.39150000000018,
      "v": 126
    },
    {
      "midi": 62,
      "hit": false,
      "t": 3876.8150833333348,
      "d": 217.39150000000018,
      "v": 126
    },
    {
      "midi": 59,
      "hit": false,
      "t": 3876.8150833333348,
      "d": 217.39150000000018,
      "v": 126
    },
    {
      "midi": 79,
      "hit": false,
      "t": 3903.9888333333342,
      "d": 217.39150000000018,
      "v": 126
    },
    {
      "midi": 50,
      "hit": false,
      "t": 4094.206583333335,
      "d": 217.39150000000018,
      "v": 126
    },
    {
      "midi": 71,
      "hit": false,
      "t": 4121.380333333334,
      "d": 326.0872500000005,
      "v": 126
    },
    {
      "midi": 62,
      "hit": false,
      "t": 4311.598083333335,
      "d": 217.39149999999972,
      "v": 126
    },
    {
      "midi": 59,
      "hit": false,
      "t": 4311.598083333335,
      "d": 217.39149999999972,
      "v": 126
    },
    {
      "midi": 71,
      "hit": false,
      "t": 4447.467583333335,
      "d": 108.69574999999986,
      "v": 126
    },
    {
      "midi": 55,
      "hit": false,
      "t": 4528.989583333335,
      "d": 217.39149999999972,
      "v": 126
    },
    {
      "midi": 71,
      "hit": false,
      "t": 4556.163333333335,
      "d": 217.39149999999972,
      "v": 126
    },
    {
      "midi": 62,
      "hit": false,
      "t": 4746.381083333335,
      "d": 217.39149999999972,
      "v": 126
    },
    {
      "midi": 59,
      "hit": false,
      "t": 4746.381083333335,
      "d": 217.39149999999972,
      "v": 126
    },
    {
      "midi": 79,
      "hit": false,
      "t": 4773.5548333333345,
      "d": 217.39149999999972,
      "v": 126
    },
    {
      "midi": 50,
      "hit": false,
      "t": 4963.772583333334,
      "d": 217.39149999999972,
      "v": 126
    },
    {
      "midi": 71,
      "hit": false,
      "t": 4990.946333333334,
      "d": 326.0872499999996,
      "v": 126
    },
    {
      "midi": 62,
      "hit": false,
      "t": 5181.164083333334,
      "d": 217.39149999999972,
      "v": 126
    },
    {
      "midi": 59,
      "hit": false,
      "t": 5181.164083333334,
      "d": 217.39149999999972,
      "v": 126
    },
    {
      "midi": 71,
      "hit": false,
      "t": 5317.033583333334,
      "d": 108.69574999999986,
      "v": 126
    },
    {
      "midi": 48,
      "hit": false,
      "t": 5398.555583333334,
      "d": 217.39149999999972,
      "v": 126
    },
    {
      "midi": 72,
      "hit": false,
      "t": 5425.729333333334,
      "d": 326.0872499999996,
      "v": 126
    },
    {
      "midi": 55,
      "hit": false,
      "t": 5615.9470833333335,
      "d": 217.39149999999972,
      "v": 126
    },
    {
      "midi": 52,
      "hit": false,
      "t": 5615.9470833333335,
      "d": 217.39149999999972,
      "v": 126
    },
    {
      "midi": 72,
      "hit": false,
      "t": 5751.816583333333,
      "d": 108.69574999999986,
      "v": 126
    },
    {
      "midi": 43,
      "hit": false,
      "t": 5833.338583333333,
      "d": 217.39149999999972,
      "v": 126
    },
    {
      "midi": 72,
      "hit": false,
      "t": 5860.512333333333,
      "d": 217.39149999999972,
      "v": 126
    },
    {
      "midi": 55,
      "hit": false,
      "t": 6050.730083333333,
      "d": 217.39149999999972,
      "v": 126
    },
    {
      "midi": 52,
      "hit": false,
      "t": 6050.730083333333,
      "d": 217.39149999999972,
      "v": 126
    },
    {
      "midi": 81,
      "hit": false,
      "t": 6077.903833333333,
      "d": 217.39149999999972,
      "v": 126
    },
    {
      "midi": 48,
      "hit": false,
      "t": 6268.121583333333,
      "d": 217.39149999999972,
      "v": 126
    },
    {
      "midi": 79,
      "hit": false,
      "t": 6295.295333333333,
      "d": 869.5659999999998,
      "v": 126
    },
    {
      "midi": 55,
      "hit": false,
      "t": 6485.513083333332,
      "d": 217.39149999999972,
      "v": 126
    },
    {
      "midi": 52,
      "hit": false,
      "t": 6485.513083333332,
      "d": 217.39149999999972,
      "v": 126
    },
    {
      "midi": 43,
      "hit": false,
      "t": 6702.904583333332,
      "d": 217.39149999999972,
      "v": 126
    },
    {
      "midi": 55,
      "hit": false,
      "t": 6920.296083333332,
      "d": 217.39149999999972,
      "v": 126
    },
    {
      "midi": 52,
      "hit": false,
      "t": 6920.296083333332,
      "d": 217.39149999999972,
      "v": 126
    },
    {
      "midi": 48,
      "hit": false,
      "t": 7137.6875833333315,
      "d": 217.39149999999972,
      "v": 126
    },
    {
      "midi": 67,
      "hit": false,
      "t": 7164.861333333332,
      "d": 217.39149999999972,
      "v": 126
    },
    {
      "midi": 55,
      "hit": false,
      "t": 7355.079083333331,
      "d": 217.39149999999972,
      "v": 126
    },
    {
      "midi": 52,
      "hit": false,
      "t": 7355.079083333331,
      "d": 217.39149999999972,
      "v": 126
    },
    {
      "midi": 76,
      "hit": false,
      "t": 7382.252833333332,
      "d": 217.39149999999972,
      "v": 126
    },
    {
      "midi": 43,
      "hit": false,
      "t": 7572.470583333331,
      "d": 217.39149999999972,
      "v": 126
    },
    {
      "midi": 67,
      "hit": false,
      "t": 7599.644333333332,
      "d": 326.0872500000005,
      "v": 126
    },
    {
      "midi": 55,
      "hit": false,
      "t": 7789.862083333331,
      "d": 217.39149999999972,
      "v": 126
    },
    {
      "midi": 52,
      "hit": false,
      "t": 7789.862083333331,
      "d": 217.39149999999972,
      "v": 126
    },
    {
      "midi": 67,
      "hit": false,
      "t": 7925.731583333332,
      "d": 108.69574999999986,
      "v": 126
    },
    {
      "midi": 48,
      "hit": false,
      "t": 8007.25358333333,
      "d": 217.39150000000063,
      "v": 126
    },
    {
      "midi": 67,
      "hit": false,
      "t": 8034.427333333332,
      "d": 217.39150000000063,
      "v": 126
    },
    {
      "midi": 55,
      "hit": false,
      "t": 8224.645083333331,
      "d": 217.39149999999972,
      "v": 126
    },
    {
      "midi": 52,
      "hit": false,
      "t": 8224.645083333331,
      "d": 217.39149999999972,
      "v": 126
    },
    {
      "midi": 76,
      "hit": false,
      "t": 8251.818833333333,
      "d": 217.39149999999972,
      "v": 126
    },
    {
      "midi": 43,
      "hit": false,
      "t": 8442.03658333333,
      "d": 217.39149999999972,
      "v": 126
    },
    {
      "midi": 67,
      "hit": false,
      "t": 8469.210333333333,
      "d": 326.0872500000005,
      "v": 126
    },
    {
      "midi": 55,
      "hit": false,
      "t": 8659.42808333333,
      "d": 217.39149999999972,
      "v": 126
    },
    {
      "midi": 52,
      "hit": false,
      "t": 8659.42808333333,
      "d": 217.39149999999972,
      "v": 126
    },
    {
      "midi": 67,
      "hit": false,
      "t": 8795.297583333333,
      "d": 108.69575000000077,
      "v": 126
    },
    {
      "midi": 53,
      "hit": false,
      "t": 8876.81958333333,
      "d": 217.39149999999972,
      "v": 126
    },
    {
      "midi": 69,
      "hit": false,
      "t": 8903.993333333334,
      "d": 217.39149999999972,
      "v": 126
    },
    {
      "midi": 60,
      "hit": false,
      "t": 9094.21108333333,
      "d": 217.39149999999972,
      "v": 126
    },
    {
      "midi": 57,
      "hit": false,
      "t": 9094.21108333333,
      "d": 217.39149999999972,
      "v": 126
    },
    {
      "midi": 77,
      "hit": false,
      "t": 9121.384833333334,
      "d": 217.39149999999972,
      "v": 126
    },
    {
      "midi": 48,
      "hit": false,
      "t": 9311.60258333333,
      "d": 217.39149999999972,
      "v": 126
    },
    {
      "midi": 69,
      "hit": false,
      "t": 9338.776333333333,
      "d": 326.0872500000005,
      "v": 126
    },
    {
      "midi": 60,
      "hit": false,
      "t": 9528.99408333333,
      "d": 217.39149999999972,
      "v": 126
    },
    {
      "midi": 57,
      "hit": false,
      "t": 9528.99408333333,
      "d": 217.39149999999972,
      "v": 126
    },
    {
      "midi": 69,
      "hit": false,
      "t": 9664.863583333334,
      "d": 108.69575000000077,
      "v": 126
    },
    {
      "midi": 53,
      "hit": false,
      "t": 9746.38558333333,
      "d": 217.39149999999972,
      "v": 126
    },
    {
      "midi": 69,
      "hit": false,
      "t": 9773.559333333335,
      "d": 217.39149999999972,
      "v": 126
    },
    {
      "midi": 60,
      "hit": false,
      "t": 9963.777083333329,
      "d": 217.39149999999972,
      "v": 126
    },
    {
      "midi": 57,
      "hit": false,
      "t": 9963.777083333329,
      "d": 217.39149999999972,
      "v": 126
    },
    {
      "midi": 77,
      "hit": false,
      "t": 9990.950833333334,
      "d": 217.39149999999972,
      "v": 126
    },
    {
      "midi": 48,
      "hit": false,
      "t": 10181.168583333329,
      "d": 217.39149999999972,
      "v": 126
    },
    {
      "midi": 69,
      "hit": false,
      "t": 10208.342333333334,
      "d": 326.0872500000005,
      "v": 126
    },
    {
      "midi": 60,
      "hit": false,
      "t": 10398.560083333328,
      "d": 217.39149999999972,
      "v": 126
    },
    {
      "midi": 57,
      "hit": false,
      "t": 10398.560083333328,
      "d": 217.39149999999972,
      "v": 126
    },
    {
      "midi": 69,
      "hit": false,
      "t": 10534.429583333334,
      "d": 108.69575000000077,
      "v": 126
    },
    {
      "midi": 55,
      "hit": false,
      "t": 10615.951583333328,
      "d": 217.39149999999972,
      "v": 126
    },
    {
      "midi": 71,
      "hit": false,
      "t": 10643.125333333335,
      "d": 217.39149999999972,
      "v": 126
    },
    {
      "midi": 62,
      "hit": false,
      "t": 10833.343083333328,
      "d": 217.39149999999972,
      "v": 126
    },
    {
      "midi": 59,
      "hit": false,
      "t": 10833.343083333328,
      "d": 217.39149999999972,
      "v": 126
    },
    {
      "midi": 79,
      "hit": false,
      "t": 10860.516833333335,
      "d": 217.39149999999972,
      "v": 126
    },
    {
      "midi": 50,
      "hit": false,
      "t": 11050.734583333327,
      "d": 217.39149999999972,
      "v": 126
    },
    {
      "midi": 71,
      "hit": false,
      "t": 11077.908333333335,
      "d": 326.0872500000005,
      "v": 126
    },
    {
      "midi": 62,
      "hit": false,
      "t": 11268.126083333327,
      "d": 217.39149999999972,
      "v": 126
    },
    {
      "midi": 59,
      "hit": false,
      "t": 11268.126083333327,
      "d": 217.39149999999972,
      "v": 126
    },
    {
      "midi": 71,
      "hit": false,
      "t": 11403.995583333335,
      "d": 108.69575000000077,
      "v": 126
    },
    {
      "midi": 55,
      "hit": false,
      "t": 11485.517583333327,
      "d": 217.39149999999972,
      "v": 126
    },
    {
      "midi": 71,
      "hit": false,
      "t": 11512.691333333336,
      "d": 217.39149999999972,
      "v": 126
    },
    {
      "midi": 62,
      "hit": false,
      "t": 11702.909083333327,
      "d": 217.39149999999972,
      "v": 126
    },
    {
      "midi": 59,
      "hit": false,
      "t": 11702.909083333327,
      "d": 217.39149999999972,
      "v": 126
    },
    {
      "midi": 79,
      "hit": false,
      "t": 11730.082833333336,
      "d": 217.39149999999972,
      "v": 126
    },
    {
      "midi": 50,
      "hit": false,
      "t": 11920.300583333326,
      "d": 217.39149999999972,
      "v": 126
    },
    {
      "midi": 71,
      "hit": false,
      "t": 11947.474333333335,
      "d": 326.0872500000005,
      "v": 126
    },
    {
      "midi": 62,
      "hit": false,
      "t": 12137.692083333326,
      "d": 217.39149999999972,
      "v": 126
    },
    {
      "midi": 59,
      "hit": false,
      "t": 12137.692083333326,
      "d": 217.39149999999972,
      "v": 126
    },
    {
      "midi": 71,
      "hit": false,
      "t": 12273.561583333336,
      "d": 108.69575000000077,
      "v": 126
    },
    {
      "midi": 48,
      "hit": false,
      "t": 12355.083583333326,
      "d": 217.39149999999972,
      "v": 126
    },
    {
      "midi": 72,
      "hit": false,
      "t": 12382.257333333337,
      "d": 1304.3490000000002,
      "v": 126
    },
    {
      "midi": 55,
      "hit": false,
      "t": 12572.475083333326,
      "d": 217.39149999999972,
      "v": 126
    },
    {
      "midi": 52,
      "hit": false,
      "t": 12572.475083333326,
      "d": 217.39149999999972,
      "v": 126
    },
    {
      "midi": 43,
      "hit": false,
      "t": 12789.866583333325,
      "d": 217.39149999999972,
      "v": 126
    },
    {
      "midi": 55,
      "hit": false,
      "t": 13007.258083333325,
      "d": 217.39149999999972,
      "v": 126
    },
    {
      "midi": 52,
      "hit": false,
      "t": 13007.258083333325,
      "d": 217.39149999999972,
      "v": 126
    },
    {
      "midi": 48,
      "hit": false,
      "t": 13224.649583333325,
      "d": 217.39149999999972,
      "v": 126
    },
    {
      "midi": 48,
      "hit": false,
      "t": 13442.041083333324,
      "d": 217.39149999999972,
      "v": 126
    },
    {
      "midi": 50,
      "hit": false,
      "t": 13659.432583333324,
      "d": 217.39149999999972,
      "v": 126
    },
    {
      "midi": 52,
      "hit": false,
      "t": 13876.824083333324,
      "d": 217.39149999999972,
      "v": 126
    },
    {
      "midi": 53,
      "hit": false,
      "t": 14094.215583333324,
      "d": 217.39149999999972,
      "v": 126
    },
    {
      "midi": 72,
      "hit": false,
      "t": 14121.389333333336,
      "d": 326.0872500000005,
      "v": 126
    },
    {
      "midi": 60,
      "hit": false,
      "t": 14311.607083333323,
      "d": 217.39149999999972,
      "v": 126
    },
    {
      "midi": 57,
      "hit": false,
      "t": 14311.607083333325,
      "d": 217.39149999999972,
      "v": 126
    },
    {
      "midi": 72,
      "hit": false,
      "t": 14447.476583333337,
      "d": 108.69575000000077,
      "v": 126
    },
    {
      "midi": 48,
      "hit": false,
      "t": 14528.998583333323,
      "d": 217.39149999999972,
      "v": 126
    },
    {
      "midi": 72,
      "hit": false,
      "t": 14556.172333333338,
      "d": 217.39149999999972,
      "v": 126
    },
    {
      "midi": 60,
      "hit": false,
      "t": 14746.390083333323,
      "d": 217.39149999999972,
      "v": 126
    },
    {
      "midi": 57,
      "hit": false,
      "t": 14746.390083333325,
      "d": 217.39149999999972,
      "v": 126
    },
    {
      "midi": 81,
      "hit": false,
      "t": 14773.563833333337,
      "d": 217.39149999999972,
      "v": 126
    },
    {
      "midi": 53,
      "hit": false,
      "t": 14963.781583333322,
      "d": 217.39149999999972,
      "v": 126
    },
    {
      "midi": 77,
      "hit": false,
      "t": 14990.955333333337,
      "d": 869.5660000000007,
      "v": 126
    },
    {
      "midi": 60,
      "hit": false,
      "t": 15181.173083333322,
      "d": 217.39149999999972,
      "v": 126
    },
    {
      "midi": 57,
      "hit": false,
      "t": 15181.173083333324,
      "d": 217.39149999999972,
      "v": 126
    },
    {
      "midi": 48,
      "hit": false,
      "t": 15398.564583333322,
      "d": 217.39149999999972,
      "v": 126
    },
    {
      "midi": 60,
      "hit": false,
      "t": 15615.956083333322,
      "d": 217.39149999999972,
      "v": 126
    },
    {
      "midi": 57,
      "hit": false,
      "t": 15615.956083333323,
      "d": 217.39149999999972,
      "v": 126
    },
    {
      "midi": 48,
      "hit": false,
      "t": 15833.347583333321,
      "d": 217.39149999999972,
      "v": 126
    },
    {
      "midi": 72,
      "hit": false,
      "t": 15860.521333333338,
      "d": 326.0872500000005,
      "v": 126
    },
    {
      "midi": 55,
      "hit": false,
      "t": 16050.739083333321,
      "d": 217.39149999999972,
      "v": 126
    },
    {
      "midi": 52,
      "hit": false,
      "t": 16050.739083333323,
      "d": 217.39149999999972,
      "v": 126
    },
    {
      "midi": 72,
      "hit": false,
      "t": 16186.608583333338,
      "d": 108.69575000000077,
      "v": 126
    },
    {
      "midi": 43,
      "hit": false,
      "t": 16268.13058333332,
      "d": 217.39150000000154,
      "v": 126
    },
    {
      "midi": 72,
      "hit": false,
      "t": 16295.304333333339,
      "d": 217.39149999999972,
      "v": 126
    },
    {
      "midi": 55,
      "hit": false,
      "t": 16485.522083333322,
      "d": 217.39150000000154,
      "v": 126
    },
    {
      "midi": 52,
      "hit": false,
      "t": 16485.522083333322,
      "d": 217.39150000000154,
      "v": 126
    },
    {
      "midi": 79,
      "hit": false,
      "t": 16512.69583333334,
      "d": 217.39150000000154,
      "v": 126
    },
    {
      "midi": 48,
      "hit": false,
      "t": 16702.913583333324,
      "d": 217.39150000000154,
      "v": 126
    },
    {
      "midi": 76,
      "hit": false,
      "t": 16730.08733333334,
      "d": 869.5659999999989,
      "v": 126
    },
    {
      "midi": 55,
      "hit": false,
      "t": 16920.305083333325,
      "d": 217.39150000000154,
      "v": 126
    },
    {
      "midi": 52,
      "hit": false,
      "t": 16920.305083333325,
      "d": 217.39150000000154,
      "v": 126
    },
    {
      "midi": 43,
      "hit": false,
      "t": 17137.696583333327,
      "d": 217.39150000000154,
      "v": 126
    },
    {
      "midi": 55,
      "hit": false,
      "t": 17355.08808333333,
      "d": 217.39150000000154,
      "v": 126
    },
    {
      "midi": 52,
      "hit": false,
      "t": 17355.08808333333,
      "d": 217.39150000000154,
      "v": 126
    },
    {
      "midi": 55,
      "hit": false,
      "t": 17572.47958333333,
      "d": 217.39150000000154,
      "v": 126
    },
    {
      "midi": 67,
      "hit": false,
      "t": 17599.65333333334,
      "d": 217.39150000000154,
      "v": 126
    },
    {
      "midi": 62,
      "hit": false,
      "t": 17789.87108333333,
      "d": 217.39150000000154,
      "v": 126
    },
    {
      "midi": 59,
      "hit": false,
      "t": 17789.87108333333,
      "d": 217.39150000000154,
      "v": 126
    },
    {
      "midi": 79,
      "hit": false,
      "t": 17817.04483333334,
      "d": 217.39150000000154,
      "v": 126
    },
    {
      "midi": 50,
      "hit": false,
      "t": 18007.262583333333,
      "d": 217.39150000000154,
      "v": 126
    },
    {
      "midi": 67,
      "hit": false,
      "t": 18034.436333333342,
      "d": 326.0872500000005,
      "v": 126
    },
    {
      "midi": 62,
      "hit": false,
      "t": 18224.654083333335,
      "d": 217.39150000000154,
      "v": 126
    },
    {
      "midi": 59,
      "hit": false,
      "t": 18224.654083333335,
      "d": 217.39150000000154,
      "v": 126
    },
    {
      "midi": 67,
      "hit": false,
      "t": 18360.523583333343,
      "d": 108.69574999999895,
      "v": 126
    },
    {
      "midi": 55,
      "hit": false,
      "t": 18442.045583333336,
      "d": 217.39150000000154,
      "v": 126
    },
    {
      "midi": 67,
      "hit": false,
      "t": 18469.21933333334,
      "d": 217.39150000000154,
      "v": 126
    },
    {
      "midi": 62,
      "hit": false,
      "t": 18659.437083333338,
      "d": 217.39150000000154,
      "v": 126
    },
    {
      "midi": 59,
      "hit": false,
      "t": 18659.437083333338,
      "d": 217.39150000000154,
      "v": 126
    },
    {
      "midi": 79,
      "hit": false,
      "t": 18686.610833333343,
      "d": 217.39150000000154,
      "v": 126
    },
    {
      "midi": 50,
      "hit": false,
      "t": 18876.82858333334,
      "d": 217.39150000000154,
      "v": 126
    },
    {
      "midi": 67,
      "hit": false,
      "t": 18904.002333333345,
      "d": 326.0872500000005,
      "v": 126
    },
    {
      "midi": 62,
      "hit": false,
      "t": 19094.22008333334,
      "d": 217.39150000000154,
      "v": 126
    },
    {
      "midi": 59,
      "hit": false,
      "t": 19094.22008333334,
      "d": 217.39150000000154,
      "v": 126
    },
    {
      "midi": 67,
      "hit": false,
      "t": 19230.089583333345,
      "d": 108.69574999999895,
      "v": 126
    },
    {
      "midi": 48,
      "hit": false,
      "t": 19311.611583333342,
      "d": 217.39150000000154,
      "v": 126
    },
    {
      "midi": 67,
      "hit": false,
      "t": 19338.785333333344,
      "d": 217.39150000000154,
      "v": 126
    },
    {
      "midi": 55,
      "hit": false,
      "t": 19529.003083333344,
      "d": 217.39150000000154,
      "v": 126
    },
    {
      "midi": 52,
      "hit": false,
      "t": 19529.003083333344,
      "d": 217.39150000000154,
      "v": 126
    },
    {
      "midi": 79,
      "hit": false,
      "t": 19556.176833333346,
      "d": 217.39150000000154,
      "v": 126
    },
    {
      "midi": 43,
      "hit": false,
      "t": 19746.394583333346,
      "d": 217.39150000000154,
      "v": 126
    },
    {
      "midi": 67,
      "hit": false,
      "t": 19773.568333333347,
      "d": 326.0872500000005,
      "v": 126
    },
    {
      "midi": 55,
      "hit": false,
      "t": 19963.786083333347,
      "d": 217.39150000000154,
      "v": 126
    },
    {
      "midi": 52,
      "hit": false,
      "t": 19963.786083333347,
      "d": 217.39150000000154,
      "v": 126
    },
    {
      "midi": 67,
      "hit": false,
      "t": 20099.655583333348,
      "d": 108.69574999999895,
      "v": 126
    },
    {
      "midi": 48,
      "hit": false,
      "t": 20181.17758333335,
      "d": 217.39150000000154,
      "v": 126
    },
    {
      "midi": 67,
      "hit": false,
      "t": 20208.351333333347,
      "d": 217.39150000000154,
      "v": 126
    },
    {
      "midi": 55,
      "hit": false,
      "t": 20398.56908333335,
      "d": 217.39150000000154,
      "v": 126
    },
    {
      "midi": 52,
      "hit": false,
      "t": 20398.56908333335,
      "d": 217.39150000000154,
      "v": 126
    },
    {
      "midi": 67,
      "hit": false,
      "t": 20425.74283333335,
      "d": 217.39150000000154,
      "v": 126
    },
    {
      "midi": 43,
      "hit": false,
      "t": 20615.96058333335,
      "d": 217.39150000000154,
      "v": 126
    },
    {
      "midi": 79,
      "hit": false,
      "t": 20643.13433333335,
      "d": 434.78299999999945,
      "v": 126
    },
    {
      "midi": 55,
      "hit": false,
      "t": 20833.352083333353,
      "d": 217.39150000000154,
      "v": 126
    },
    {
      "midi": 52,
      "hit": false,
      "t": 20833.352083333353,
      "d": 217.39150000000154,
      "v": 126
    },
    {
      "midi": 53,
      "hit": false,
      "t": 21050.743583333355,
      "d": 217.39150000000154,
      "v": 126
    },
    {
      "midi": 72,
      "hit": false,
      "t": 21077.91733333335,
      "d": 326.0872500000005,
      "v": 126
    },
    {
      "midi": 60,
      "hit": false,
      "t": 21268.135083333356,
      "d": 217.39150000000154,
      "v": 126
    },
    {
      "midi": 57,
      "hit": false,
      "t": 21268.135083333356,
      "d": 217.39150000000154,
      "v": 126
    },
    {
      "midi": 72,
      "hit": false,
      "t": 21404.00458333335,
      "d": 108.69574999999895,
      "v": 126
    },
    {
      "midi": 48,
      "hit": false,
      "t": 21485.526583333358,
      "d": 217.39150000000154,
      "v": 126
    },
    {
      "midi": 72,
      "hit": false,
      "t": 21512.70033333335,
      "d": 217.39150000000154,
      "v": 126
    },
    {
      "midi": 60,
      "hit": false,
      "t": 21702.91808333336,
      "d": 217.39150000000154,
      "v": 126
    },
    {
      "midi": 57,
      "hit": false,
      "t": 21702.91808333336,
      "d": 217.39150000000154,
      "v": 126
    },
    {
      "midi": 81,
      "hit": false,
      "t": 21730.09183333335,
      "d": 217.39150000000154,
      "v": 126
    },
    {
      "midi": 53,
      "hit": false,
      "t": 21920.30958333336,
      "d": 217.39150000000154,
      "v": 126
    },
    {
      "midi": 77,
      "hit": false,
      "t": 21947.48333333335,
      "d": 869.5659999999989,
      "v": 126
    },
    {
      "midi": 60,
      "hit": false,
      "t": 22137.701083333362,
      "d": 217.39150000000154,
      "v": 126
    },
    {
      "midi": 57,
      "hit": false,
      "t": 22137.701083333362,
      "d": 217.39150000000154,
      "v": 126
    },
    {
      "midi": 48,
      "hit": false,
      "t": 22355.092583333364,
      "d": 217.39150000000154,
      "v": 126
    },
    {
      "midi": 60,
      "hit": false,
      "t": 22572.484083333366,
      "d": 217.39150000000154,
      "v": 126
    },
    {
      "midi": 57,
      "hit": false,
      "t": 22572.484083333366,
      "d": 217.39150000000154,
      "v": 126
    },
    {
      "midi": 48,
      "hit": false,
      "t": 22789.875583333367,
      "d": 217.39150000000154,
      "v": 126
    },
    {
      "midi": 72,
      "hit": false,
      "t": 22817.04933333335,
      "d": 326.0872500000005,
      "v": 126
    },
    {
      "midi": 55,
      "hit": false,
      "t": 23007.26708333337,
      "d": 217.39150000000154,
      "v": 126
    },
    {
      "midi": 52,
      "hit": false,
      "t": 23007.26708333337,
      "d": 217.39150000000154,
      "v": 126
    },
    {
      "midi": 72,
      "hit": false,
      "t": 23143.13658333335,
      "d": 108.69574999999895,
      "v": 126
    },
    {
      "midi": 43,
      "hit": false,
      "t": 23224.65858333337,
      "d": 217.39150000000154,
      "v": 126
    },
    {
      "midi": 72,
      "hit": false,
      "t": 23251.83233333335,
      "d": 217.39150000000154,
      "v": 126
    },
    {
      "midi": 55,
      "hit": false,
      "t": 23442.05008333337,
      "d": 217.39150000000154,
      "v": 126
    },
    {
      "midi": 52,
      "hit": false,
      "t": 23442.05008333337,
      "d": 217.39150000000154,
      "v": 126
    },
    {
      "midi": 79,
      "hit": false,
      "t": 23469.22383333335,
      "d": 217.39150000000154,
      "v": 126
    },
    {
      "midi": 48,
      "hit": false,
      "t": 23659.441583333373,
      "d": 217.39150000000154,
      "v": 126
    },
    {
      "midi": 76,
      "hit": false,
      "t": 23686.615333333353,
      "d": 869.5659999999989,
      "v": 126
    },
    {
      "midi": 55,
      "hit": false,
      "t": 23876.833083333375,
      "d": 217.39150000000154,
      "v": 126
    },
    {
      "midi": 52,
      "hit": false,
      "t": 23876.833083333375,
      "d": 217.39150000000154,
      "v": 126
    },
    {
      "midi": 43,
      "hit": false,
      "t": 24094.224583333376,
      "d": 217.39150000000154,
      "v": 126
    },
    {
      "midi": 55,
      "hit": false,
      "t": 24311.616083333378,
      "d": 217.39150000000154,
      "v": 126
    },
    {
      "midi": 52,
      "hit": false,
      "t": 24311.616083333378,
      "d": 217.39150000000154,
      "v": 126
    },
    {
      "midi": 50,
      "hit": false,
      "t": 24529.00758333338,
      "d": 1304.3489999999983,
      "v": 126
    },
    {
      "midi": 55,
      "hit": false,
      "t": 24529.00758333338,
      "d": 1739.1320000000014,
      "v": 126
    },
    {
      "midi": 67,
      "hit": false,
      "t": 24556.181333333352,
      "d": 326.0872500000005,
      "v": 126
    },
    {
      "midi": 67,
      "hit": false,
      "t": 24882.268583333353,
      "d": 108.69574999999895,
      "v": 126
    },
    {
      "midi": 67,
      "hit": false,
      "t": 24990.96433333335,
      "d": 217.39150000000154,
      "v": 126
    },
    {
      "midi": 76,
      "hit": false,
      "t": 25208.355833333353,
      "d": 217.39150000000154,
      "v": 126
    },
    {
      "midi": 74,
      "hit": false,
      "t": 25425.747333333355,
      "d": 1739.1320000000014,
      "v": 126
    },
    {
      "midi": 41,
      "hit": false,
      "t": 25833.356583333378,
      "d": 434.78299999999945,
      "v": 126
    },
    {
      "midi": 43,
      "hit": false,
      "t": 26268.139583333377,
      "d": 1739.1320000000014,
      "v": 126
    },
    {
      "midi": 48,
      "hit": false,
      "t": 28007.27158333338,
      "d": 217.39150000000154,
      "v": 126
    },
    {
      "midi": 67,
      "hit": false,
      "t": 28034.445333333355,
      "d": 217.39150000000154,
      "v": 126
    },
    {
      "midi": 55,
      "hit": false,
      "t": 28224.66308333338,
      "d": 217.39150000000154,
      "v": 126
    },
    {
      "midi": 52,
      "hit": false,
      "t": 28224.663083333384,
      "d": 217.39150000000154,
      "v": 126
    },
    {
      "midi": 76,
      "hit": false,
      "t": 28251.836833333356,
      "d": 217.39150000000154,
      "v": 126
    },
    {
      "midi": 43,
      "hit": false,
      "t": 28442.05458333338,
      "d": 217.39150000000154,
      "v": 126
    },
    {
      "midi": 67,
      "hit": false,
      "t": 28469.228333333358,
      "d": 326.0872500000005,
      "v": 126
    },
    {
      "midi": 55,
      "hit": false,
      "t": 28659.446083333383,
      "d": 217.39150000000154,
      "v": 126
    },
    {
      "midi": 52,
      "hit": false,
      "t": 28659.446083333387,
      "d": 217.39150000000154,
      "v": 126
    },
    {
      "midi": 67,
      "hit": false,
      "t": 28795.31558333336,
      "d": 108.69574999999895,
      "v": 126
    },
    {
      "midi": 48,
      "hit": false,
      "t": 28876.837583333385,
      "d": 217.39150000000154,
      "v": 126
    },
    {
      "midi": 67,
      "hit": false,
      "t": 28904.011333333357,
      "d": 217.39150000000154,
      "v": 126
    },
    {
      "midi": 55,
      "hit": false,
      "t": 29094.229083333386,
      "d": 217.39150000000154,
      "v": 126
    },
    {
      "midi": 52,
      "hit": false,
      "t": 29094.22908333339,
      "d": 217.39150000000154,
      "v": 126
    },
    {
      "midi": 76,
      "hit": false,
      "t": 29121.40283333336,
      "d": 217.39150000000154,
      "v": 126
    },
    {
      "midi": 43,
      "hit": false,
      "t": 29311.620583333388,
      "d": 217.39150000000154,
      "v": 126
    },
    {
      "midi": 67,
      "hit": false,
      "t": 29338.79433333336,
      "d": 326.0872500000005,
      "v": 126
    },
    {
      "midi": 55,
      "hit": false,
      "t": 29529.01208333339,
      "d": 217.39150000000154,
      "v": 126
    },
    {
      "midi": 52,
      "hit": false,
      "t": 29529.012083333393,
      "d": 217.39150000000154,
      "v": 126
    },
    {
      "midi": 67,
      "hit": false,
      "t": 29664.88158333336,
      "d": 108.69574999999895,
      "v": 126
    },
    {
      "midi": 53,
      "hit": false,
      "t": 29746.40358333339,
      "d": 217.39150000000154,
      "v": 126
    },
    {
      "midi": 69,
      "hit": false,
      "t": 29773.57733333336,
      "d": 217.39150000000154,
      "v": 126
    },
    {
      "midi": 60,
      "hit": false,
      "t": 29963.795083333393,
      "d": 217.39150000000154,
      "v": 126
    },
    {
      "midi": 57,
      "hit": false,
      "t": 29963.795083333396,
      "d": 217.39150000000154,
      "v": 126
    },
    {
      "midi": 77,
      "hit": false,
      "t": 29990.96883333336,
      "d": 217.39150000000154,
      "v": 126
    },
    {
      "midi": 48,
      "hit": false,
      "t": 30181.186583333394,
      "d": 217.39150000000154,
      "v": 126
    },
    {
      "midi": 69,
      "hit": false,
      "t": 30208.360333333363,
      "d": 326.0872500000005,
      "v": 126
    },
    {
      "midi": 60,
      "hit": false,
      "t": 30398.578083333396,
      "d": 217.39150000000154,
      "v": 126
    },
    {
      "midi": 57,
      "hit": false,
      "t": 30398.5780833334,
      "d": 217.39150000000154,
      "v": 126
    },
    {
      "midi": 69,
      "hit": false,
      "t": 30534.447583333364,
      "d": 108.69574999999895,
      "v": 126
    },
    {
      "midi": 53,
      "hit": false,
      "t": 30615.969583333397,
      "d": 217.39150000000154,
      "v": 126
    },
    {
      "midi": 69,
      "hit": false,
      "t": 30643.143333333363,
      "d": 217.39150000000154,
      "v": 126
    },
    {
      "midi": 60,
      "hit": false,
      "t": 30833.3610833334,
      "d": 217.39150000000154,
      "v": 126
    },
    {
      "midi": 57,
      "hit": false,
      "t": 30833.361083333402,
      "d": 217.39150000000154,
      "v": 126
    },
    {
      "midi": 77,
      "hit": false,
      "t": 30860.534833333364,
      "d": 217.39150000000154,
      "v": 126
    },
    {
      "midi": 48,
      "hit": false,
      "t": 31050.7525833334,
      "d": 217.39150000000154,
      "v": 126
    },
    {
      "midi": 69,
      "hit": false,
      "t": 31077.926333333366,
      "d": 326.0872500000005,
      "v": 126
    },
    {
      "midi": 60,
      "hit": false,
      "t": 31268.1440833334,
      "d": 217.39150000000154,
      "v": 126
    },
    {
      "midi": 57,
      "hit": false,
      "t": 31268.144083333405,
      "d": 217.39150000000154,
      "v": 126
    },
    {
      "midi": 69,
      "hit": false,
      "t": 31404.013583333366,
      "d": 108.69574999999895,
      "v": 126
    },
    {
      "midi": 55,
      "hit": false,
      "t": 31485.535583333403,
      "d": 217.39150000000154,
      "v": 126
    },
    {
      "midi": 71,
      "hit": false,
      "t": 31512.709333333365,
      "d": 217.39150000000154,
      "v": 126
    },
    {
      "midi": 62,
      "hit": false,
      "t": 31702.927083333405,
      "d": 217.39150000000154,
      "v": 126
    },
    {
      "midi": 59,
      "hit": false,
      "t": 31702.92708333341,
      "d": 217.39150000000154,
      "v": 126
    },
    {
      "midi": 79,
      "hit": false,
      "t": 31730.100833333367,
      "d": 217.39150000000154,
      "v": 126
    },
    {
      "midi": 50,
      "hit": false,
      "t": 31920.318583333406,
      "d": 217.39150000000154,
      "v": 126
    },
    {
      "midi": 71,
      "hit": false,
      "t": 31947.492333333368,
      "d": 326.0872500000005,
      "v": 126
    },
    {
      "midi": 62,
      "hit": false,
      "t": 32137.710083333408,
      "d": 217.39150000000154,
      "v": 126
    },
    {
      "midi": 59,
      "hit": false,
      "t": 32137.71008333341,
      "d": 217.39150000000154,
      "v": 126
    },
    {
      "midi": 71,
      "hit": false,
      "t": 32273.57958333337,
      "d": 108.69574999999895,
      "v": 126
    },
    {
      "midi": 55,
      "hit": false,
      "t": 32355.10158333341,
      "d": 217.39150000000154,
      "v": 126
    },
    {
      "midi": 71,
      "hit": false,
      "t": 32382.275333333368,
      "d": 217.39150000000154,
      "v": 126
    },
    {
      "midi": 62,
      "hit": false,
      "t": 32572.49308333341,
      "d": 217.39150000000154,
      "v": 126
    },
    {
      "midi": 59,
      "hit": false,
      "t": 32572.493083333415,
      "d": 217.3914999999979,
      "v": 126
    },
    {
      "midi": 79,
      "hit": false,
      "t": 32599.66683333337,
      "d": 217.39150000000154,
      "v": 126
    },
    {
      "midi": 50,
      "hit": false,
      "t": 32789.88458333341,
      "d": 217.3914999999979,
      "v": 126
    },
    {
      "midi": 71,
      "hit": false,
      "t": 32817.05833333337,
      "d": 326.08724999999686,
      "v": 126
    },
    {
      "midi": 62,
      "hit": false,
      "t": 33007.27608333341,
      "d": 217.3914999999979,
      "v": 126
    },
    {
      "midi": 59,
      "hit": false,
      "t": 33007.27608333341,
      "d": 217.3914999999979,
      "v": 126
    },
    {
      "midi": 71,
      "hit": false,
      "t": 33143.14558333337,
      "d": 108.69574999999895,
      "v": 126
    },
    {
      "midi": 48,
      "hit": false,
      "t": 33224.66758333341,
      "d": 217.3914999999979,
      "v": 126
    },
    {
      "midi": 72,
      "hit": false,
      "t": 33251.84133333337,
      "d": 326.08724999999686,
      "v": 126
    },
    {
      "midi": 55,
      "hit": false,
      "t": 33442.059083333406,
      "d": 217.3914999999979,
      "v": 126
    },
    {
      "midi": 52,
      "hit": false,
      "t": 33442.059083333406,
      "d": 217.3914999999979,
      "v": 126
    },
    {
      "midi": 72,
      "hit": false,
      "t": 33577.92858333336,
      "d": 108.69574999999895,
      "v": 126
    },
    {
      "midi": 43,
      "hit": false,
      "t": 33659.450583333404,
      "d": 217.3914999999979,
      "v": 126
    },
    {
      "midi": 72,
      "hit": false,
      "t": 33686.62433333336,
      "d": 217.3914999999979,
      "v": 126
    },
    {
      "midi": 55,
      "hit": false,
      "t": 33876.8420833334,
      "d": 217.3914999999979,
      "v": 126
    },
    {
      "midi": 52,
      "hit": false,
      "t": 33876.8420833334,
      "d": 217.3914999999979,
      "v": 126
    },
    {
      "midi": 81,
      "hit": false,
      "t": 33904.01583333336,
      "d": 217.3914999999979,
      "v": 126
    },
    {
      "midi": 48,
      "hit": false,
      "t": 34094.2335833334,
      "d": 217.3914999999979,
      "v": 126
    },
    {
      "midi": 79,
      "hit": false,
      "t": 34121.40733333336,
      "d": 869.5659999999989,
      "v": 126
    },
    {
      "midi": 55,
      "hit": false,
      "t": 34311.6250833334,
      "d": 217.3914999999979,
      "v": 126
    },
    {
      "midi": 52,
      "hit": false,
      "t": 34311.6250833334,
      "d": 217.3914999999979,
      "v": 126
    },
    {
      "midi": 43,
      "hit": false,
      "t": 34529.016583333396,
      "d": 217.3914999999979,
      "v": 126
    },
    {
      "midi": 55,
      "hit": false,
      "t": 34746.408083333394,
      "d": 217.3914999999979,
      "v": 126
    },
    {
      "midi": 52,
      "hit": false,
      "t": 34746.408083333394,
      "d": 217.3914999999979,
      "v": 126
    },
    {
      "midi": 48,
      "hit": false,
      "t": 34963.79958333339,
      "d": 217.3914999999979,
      "v": 126
    },
    {
      "midi": 67,
      "hit": false,
      "t": 34990.97333333336,
      "d": 217.3914999999979,
      "v": 126
    },
    {
      "midi": 55,
      "hit": false,
      "t": 35181.19108333339,
      "d": 217.3914999999979,
      "v": 126
    },
    {
      "midi": 52,
      "hit": false,
      "t": 35181.19108333339,
      "d": 217.3914999999979,
      "v": 126
    },
    {
      "midi": 76,
      "hit": false,
      "t": 35208.364833333355,
      "d": 217.3914999999979,
      "v": 126
    },
    {
      "midi": 43,
      "hit": false,
      "t": 35398.58258333339,
      "d": 217.3914999999979,
      "v": 126
    },
    {
      "midi": 67,
      "hit": false,
      "t": 35425.75633333335,
      "d": 326.08724999999686,
      "v": 126
    },
    {
      "midi": 55,
      "hit": false,
      "t": 35615.974083333385,
      "d": 217.3914999999979,
      "v": 126
    },
    {
      "midi": 52,
      "hit": false,
      "t": 35615.974083333385,
      "d": 217.3914999999979,
      "v": 126
    },
    {
      "midi": 67,
      "hit": false,
      "t": 35751.84358333335,
      "d": 108.69574999999895,
      "v": 126
    },
    {
      "midi": 48,
      "hit": false,
      "t": 35833.36558333338,
      "d": 217.3914999999979,
      "v": 126
    },
    {
      "midi": 67,
      "hit": false,
      "t": 35860.53933333335,
      "d": 217.3914999999979,
      "v": 126
    },
    {
      "midi": 55,
      "hit": false,
      "t": 36050.75708333338,
      "d": 217.3914999999979,
      "v": 126
    },
    {
      "midi": 52,
      "hit": false,
      "t": 36050.75708333338,
      "d": 217.3914999999979,
      "v": 126
    },
    {
      "midi": 76,
      "hit": false,
      "t": 36077.93083333335,
      "d": 217.3914999999979,
      "v": 126
    },
    {
      "midi": 43,
      "hit": false,
      "t": 36268.14858333338,
      "d": 217.3914999999979,
      "v": 126
    },
    {
      "midi": 67,
      "hit": false,
      "t": 36295.322333333344,
      "d": 326.08724999999686,
      "v": 126
    },
    {
      "midi": 55,
      "hit": false,
      "t": 36485.54008333338,
      "d": 217.3914999999979,
      "v": 126
    },
    {
      "midi": 52,
      "hit": false,
      "t": 36485.54008333338,
      "d": 217.3914999999979,
      "v": 126
    },
    {
      "midi": 67,
      "hit": false,
      "t": 36621.40958333334,
      "d": 108.69574999999895,
      "v": 126
    },
    {
      "midi": 53,
      "hit": false,
      "t": 36702.931583333375,
      "d": 217.3914999999979,
      "v": 126
    },
    {
      "midi": 69,
      "hit": false,
      "t": 36730.10533333334,
      "d": 217.3914999999979,
      "v": 126
    },
    {
      "midi": 60,
      "hit": false,
      "t": 36920.32308333337,
      "d": 217.3914999999979,
      "v": 126
    },
    {
      "midi": 57,
      "hit": false,
      "t": 36920.32308333337,
      "d": 217.3914999999979,
      "v": 126
    },
    {
      "midi": 77,
      "hit": false,
      "t": 36947.49683333334,
      "d": 217.3914999999979,
      "v": 126
    },
    {
      "midi": 48,
      "hit": false,
      "t": 37137.71458333337,
      "d": 217.3914999999979,
      "v": 126
    },
    {
      "midi": 69,
      "hit": false,
      "t": 37164.888333333336,
      "d": 326.08724999999686,
      "v": 126
    },
    {
      "midi": 60,
      "hit": false,
      "t": 37355.10608333337,
      "d": 217.3914999999979,
      "v": 126
    },
    {
      "midi": 57,
      "hit": false,
      "t": 37355.10608333337,
      "d": 217.3914999999979,
      "v": 126
    },
    {
      "midi": 69,
      "hit": false,
      "t": 37490.97558333333,
      "d": 108.69574999999895,
      "v": 126
    },
    {
      "midi": 53,
      "hit": false,
      "t": 37572.49758333337,
      "d": 217.3914999999979,
      "v": 126
    },
    {
      "midi": 69,
      "hit": false,
      "t": 37599.67133333333,
      "d": 217.3914999999979,
      "v": 126
    },
    {
      "midi": 60,
      "hit": false,
      "t": 37789.889083333364,
      "d": 217.3914999999979,
      "v": 126
    },
    {
      "midi": 57,
      "hit": false,
      "t": 37789.889083333364,
      "d": 217.3914999999979,
      "v": 126
    },
    {
      "midi": 77,
      "hit": false,
      "t": 37817.06283333333,
      "d": 217.3914999999979,
      "v": 126
    },
    {
      "midi": 48,
      "hit": false,
      "t": 38007.28058333336,
      "d": 217.3914999999979,
      "v": 126
    },
    {
      "midi": 69,
      "hit": false,
      "t": 38034.45433333333,
      "d": 326.08724999999686,
      "v": 126
    },
    {
      "midi": 60,
      "hit": false,
      "t": 38224.67208333336,
      "d": 217.3914999999979,
      "v": 126
    },
    {
      "midi": 57,
      "hit": false,
      "t": 38224.67208333336,
      "d": 217.3914999999979,
      "v": 126
    },
    {
      "midi": 69,
      "hit": false,
      "t": 38360.541583333325,
      "d": 108.69574999999895,
      "v": 126
    },
    {
      "midi": 55,
      "hit": false,
      "t": 38442.06358333336,
      "d": 217.3914999999979,
      "v": 126
    },
    {
      "midi": 71,
      "hit": false,
      "t": 38469.23733333332,
      "d": 217.3914999999979,
      "v": 126
    },
    {
      "midi": 62,
      "hit": false,
      "t": 38659.455083333356,
      "d": 217.3914999999979,
      "v": 126
    },
    {
      "midi": 59,
      "hit": false,
      "t": 38659.455083333356,
      "d": 217.3914999999979,
      "v": 126
    },
    {
      "midi": 79,
      "hit": false,
      "t": 38686.62883333332,
      "d": 217.3914999999979,
      "v": 126
    },
    {
      "midi": 50,
      "hit": false,
      "t": 38876.846583333354,
      "d": 217.3914999999979,
      "v": 126
    },
    {
      "midi": 71,
      "hit": false,
      "t": 38904.02033333332,
      "d": 326.08724999999686,
      "v": 126
    },
    {
      "midi": 62,
      "hit": false,
      "t": 39094.23808333335,
      "d": 217.3914999999979,
      "v": 126
    },
    {
      "midi": 59,
      "hit": false,
      "t": 39094.23808333335,
      "d": 217.3914999999979,
      "v": 126
    },
    {
      "midi": 71,
      "hit": false,
      "t": 39230.107583333316,
      "d": 108.69574999999895,
      "v": 126
    },
    {
      "midi": 55,
      "hit": false,
      "t": 39311.62958333335,
      "d": 217.3914999999979,
      "v": 126
    },
    {
      "midi": 71,
      "hit": false,
      "t": 39338.803333333315,
      "d": 217.3914999999979,
      "v": 126
    },
    {
      "midi": 62,
      "hit": false,
      "t": 39529.02108333335,
      "d": 217.3914999999979,
      "v": 126
    },
    {
      "midi": 59,
      "hit": false,
      "t": 39529.02108333335,
      "d": 217.3914999999979,
      "v": 126
    },
    {
      "midi": 79,
      "hit": false,
      "t": 39556.19483333331,
      "d": 217.3914999999979,
      "v": 126
    },
    {
      "midi": 50,
      "hit": false,
      "t": 39746.412583333346,
      "d": 217.3914999999979,
      "v": 126
    },
    {
      "midi": 71,
      "hit": false,
      "t": 39773.58633333331,
      "d": 326.08724999999686,
      "v": 126
    },
    {
      "midi": 62,
      "hit": false,
      "t": 39963.80408333334,
      "d": 217.3914999999979,
      "v": 126
    },
    {
      "midi": 59,
      "hit": false,
      "t": 39963.80408333334,
      "d": 217.3914999999979,
      "v": 126
    },
    {
      "midi": 71,
      "hit": false,
      "t": 40099.67358333331,
      "d": 108.69574999999895,
      "v": 126
    },
    {
      "midi": 48,
      "hit": false,
      "t": 40181.19558333334,
      "d": 217.3914999999979,
      "v": 126
    },
    {
      "midi": 72,
      "hit": false,
      "t": 40208.36933333331,
      "d": 1304.349000000002,
      "v": 126
    },
    {
      "midi": 55,
      "hit": false,
      "t": 40398.58708333334,
      "d": 217.3914999999979,
      "v": 126
    },
    {
      "midi": 52,
      "hit": false,
      "t": 40398.58708333334,
      "d": 217.3914999999979,
      "v": 126
    },
    {
      "midi": 43,
      "hit": false,
      "t": 40615.97858333334,
      "d": 217.3914999999979,
      "v": 126
    },
    {
      "midi": 55,
      "hit": false,
      "t": 40833.370083333335,
      "d": 217.3914999999979,
      "v": 126
    },
    {
      "midi": 52,
      "hit": false,
      "t": 40833.370083333335,
      "d": 217.3914999999979,
      "v": 126
    },
    {
      "midi": 48,
      "hit": false,
      "t": 41050.76158333333,
      "d": 217.3914999999979,
      "v": 126
    },
    {
      "midi": 48,
      "hit": false,
      "t": 41268.15308333333,
      "d": 217.3914999999979,
      "v": 126
    },
    {
      "midi": 50,
      "hit": false,
      "t": 41485.54458333333,
      "d": 217.3914999999979,
      "v": 126
    },
    {
      "midi": 52,
      "hit": false,
      "t": 41702.93608333333,
      "d": 217.3914999999979,
      "v": 126
    },
    {
      "midi": 53,
      "hit": false,
      "t": 41920.327583333325,
      "d": 217.3914999999979,
      "v": 126
    },
    {
      "midi": 72,
      "hit": false,
      "t": 41947.50133333331,
      "d": 326.08724999999686,
      "v": 126
    },
    {
      "midi": 60,
      "hit": false,
      "t": 42137.71908333332,
      "d": 217.3914999999979,
      "v": 126
    },
    {
      "midi": 57,
      "hit": false,
      "t": 42137.71908333333,
      "d": 217.3914999999979,
      "v": 126
    },
    {
      "midi": 72,
      "hit": false,
      "t": 42273.58858333331,
      "d": 108.69574999999895,
      "v": 126
    },
    {
      "midi": 48,
      "hit": false,
      "t": 42355.11058333332,
      "d": 217.3914999999979,
      "v": 126
    },
    {
      "midi": 72,
      "hit": false,
      "t": 42382.28433333331,
      "d": 217.3914999999979,
      "v": 126
    },
    {
      "midi": 60,
      "hit": false,
      "t": 42572.50208333332,
      "d": 217.3914999999979,
      "v": 126
    },
    {
      "midi": 57,
      "hit": false,
      "t": 42572.502083333326,
      "d": 217.3914999999979,
      "v": 126
    },
    {
      "midi": 81,
      "hit": false,
      "t": 42599.675833333305,
      "d": 217.3914999999979,
      "v": 126
    },
    {
      "midi": 53,
      "hit": false,
      "t": 42789.893583333316,
      "d": 217.3914999999979,
      "v": 126
    },
    {
      "midi": 77,
      "hit": false,
      "t": 42817.0673333333,
      "d": 869.5659999999989,
      "v": 126
    },
    {
      "midi": 60,
      "hit": false,
      "t": 43007.285083333314,
      "d": 217.3914999999979,
      "v": 126
    },
    {
      "midi": 57,
      "hit": false,
      "t": 43007.28508333332,
      "d": 217.3914999999979,
      "v": 126
    },
    {
      "midi": 48,
      "hit": false,
      "t": 43224.67658333331,
      "d": 217.3914999999979,
      "v": 126
    },
    {
      "midi": 60,
      "hit": false,
      "t": 43442.06808333331,
      "d": 217.3914999999979,
      "v": 126
    },
    {
      "midi": 57,
      "hit": false,
      "t": 43442.06808333332,
      "d": 217.3914999999979,
      "v": 126
    },
    {
      "midi": 48,
      "hit": false,
      "t": 43659.45958333331,
      "d": 217.3914999999979,
      "v": 126
    },
    {
      "midi": 72,
      "hit": false,
      "t": 43686.6333333333,
      "d": 326.08724999999686,
      "v": 126
    },
    {
      "midi": 55,
      "hit": false,
      "t": 43876.851083333306,
      "d": 217.3914999999979,
      "v": 126
    },
    {
      "midi": 52,
      "hit": false,
      "t": 43876.85108333331,
      "d": 217.3914999999979,
      "v": 126
    },
    {
      "midi": 72,
      "hit": false,
      "t": 44012.7205833333,
      "d": 108.69574999999895,
      "v": 126
    },
    {
      "midi": 43,
      "hit": false,
      "t": 44094.2425833333,
      "d": 217.3914999999979,
      "v": 126
    },
    {
      "midi": 72,
      "hit": false,
      "t": 44121.4163333333,
      "d": 217.3914999999979,
      "v": 126
    },
    {
      "midi": 55,
      "hit": false,
      "t": 44311.6340833333,
      "d": 217.3914999999979,
      "v": 126
    },
    {
      "midi": 52,
      "hit": false,
      "t": 44311.63408333331,
      "d": 217.3914999999979,
      "v": 126
    },
    {
      "midi": 79,
      "hit": false,
      "t": 44338.807833333296,
      "d": 217.3914999999979,
      "v": 126
    },
    {
      "midi": 48,
      "hit": false,
      "t": 44529.0255833333,
      "d": 217.3914999999979,
      "v": 126
    },
    {
      "midi": 76,
      "hit": false,
      "t": 44556.199333333294,
      "d": 869.5659999999989,
      "v": 126
    },
    {
      "midi": 55,
      "hit": false,
      "t": 44746.4170833333,
      "d": 217.3914999999979,
      "v": 126
    },
    {
      "midi": 52,
      "hit": false,
      "t": 44746.417083333305,
      "d": 217.3914999999979,
      "v": 126
    },
    {
      "midi": 43,
      "hit": false,
      "t": 44963.808583333295,
      "d": 217.3914999999979,
      "v": 126
    },
    {
      "midi": 55,
      "hit": false,
      "t": 45181.20008333329,
      "d": 217.3914999999979,
      "v": 126
    },
    {
      "midi": 52,
      "hit": false,
      "t": 45181.2000833333,
      "d": 217.3914999999979,
      "v": 126
    },
    {
      "midi": 55,
      "hit": false,
      "t": 45398.59158333329,
      "d": 217.3914999999979,
      "v": 126
    },
    {
      "midi": 67,
      "hit": false,
      "t": 45425.76533333329,
      "d": 217.3914999999979,
      "v": 126
    },
    {
      "midi": 62,
      "hit": false,
      "t": 45615.98308333329,
      "d": 217.3914999999979,
      "v": 126
    },
    {
      "midi": 59,
      "hit": false,
      "t": 45615.983083333296,
      "d": 217.3914999999979,
      "v": 126
    },
    {
      "midi": 79,
      "hit": false,
      "t": 45643.15683333329,
      "d": 217.3914999999979,
      "v": 126
    },
    {
      "midi": 50,
      "hit": false,
      "t": 45833.37458333329,
      "d": 217.3914999999979,
      "v": 126
    },
    {
      "midi": 67,
      "hit": false,
      "t": 45860.54833333329,
      "d": 326.08724999999686,
      "v": 126
    },
    {
      "midi": 62,
      "hit": false,
      "t": 46050.766083333285,
      "d": 217.3914999999979,
      "v": 126
    },
    {
      "midi": 59,
      "hit": false,
      "t": 46050.76608333329,
      "d": 217.3914999999979,
      "v": 126
    },
    {
      "midi": 67,
      "hit": false,
      "t": 46186.635583333285,
      "d": 108.69574999999895,
      "v": 126
    },
    {
      "midi": 55,
      "hit": false,
      "t": 46268.15758333328,
      "d": 217.3914999999979,
      "v": 126
    },
    {
      "midi": 67,
      "hit": false,
      "t": 46295.331333333284,
      "d": 217.3914999999979,
      "v": 126
    },
    {
      "midi": 62,
      "hit": false,
      "t": 46485.54908333328,
      "d": 217.3914999999979,
      "v": 126
    },
    {
      "midi": 59,
      "hit": false,
      "t": 46485.54908333329,
      "d": 217.3914999999979,
      "v": 126
    },
    {
      "midi": 79,
      "hit": false,
      "t": 46512.72283333328,
      "d": 217.3914999999979,
      "v": 126
    },
    {
      "midi": 50,
      "hit": false,
      "t": 46702.94058333328,
      "d": 217.3914999999979,
      "v": 126
    },
    {
      "midi": 67,
      "hit": false,
      "t": 46730.11433333328,
      "d": 326.08724999999686,
      "v": 126
    },
    {
      "midi": 62,
      "hit": false,
      "t": 46920.33208333328,
      "d": 217.3914999999979,
      "v": 126
    },
    {
      "midi": 59,
      "hit": false,
      "t": 46920.332083333284,
      "d": 217.3914999999979,
      "v": 126
    },
    {
      "midi": 67,
      "hit": false,
      "t": 47056.20158333328,
      "d": 108.69574999999895,
      "v": 126
    },
    {
      "midi": 48,
      "hit": false,
      "t": 47137.723583333274,
      "d": 217.3914999999979,
      "v": 126
    },
    {
      "midi": 67,
      "hit": false,
      "t": 47164.897333333276,
      "d": 217.3914999999979,
      "v": 126
    },
    {
      "midi": 55,
      "hit": false,
      "t": 47355.11508333327,
      "d": 217.3914999999979,
      "v": 126
    },
    {
      "midi": 52,
      "hit": false,
      "t": 47355.11508333328,
      "d": 217.3914999999979,
      "v": 126
    },
    {
      "midi": 79,
      "hit": false,
      "t": 47382.288833333274,
      "d": 217.3914999999979,
      "v": 126
    },
    {
      "midi": 43,
      "hit": false,
      "t": 47572.50658333327,
      "d": 217.3914999999979,
      "v": 126
    },
    {
      "midi": 67,
      "hit": false,
      "t": 47599.68033333327,
      "d": 326.08724999999686,
      "v": 126
    },
    {
      "midi": 55,
      "hit": false,
      "t": 47789.89808333327,
      "d": 217.3914999999979,
      "v": 126
    },
    {
      "midi": 52,
      "hit": false,
      "t": 47789.898083333275,
      "d": 217.3914999999979,
      "v": 126
    },
    {
      "midi": 67,
      "hit": false,
      "t": 47925.76758333327,
      "d": 108.69574999999895,
      "v": 126
    },
    {
      "midi": 48,
      "hit": false,
      "t": 48007.289583333266,
      "d": 217.3914999999979,
      "v": 126
    },
    {
      "midi": 67,
      "hit": false,
      "t": 48034.46333333327,
      "d": 217.3914999999979,
      "v": 126
    },
    {
      "midi": 55,
      "hit": false,
      "t": 48224.681083333264,
      "d": 217.3914999999979,
      "v": 126
    },
    {
      "midi": 52,
      "hit": false,
      "t": 48224.68108333327,
      "d": 217.3914999999979,
      "v": 126
    },
    {
      "midi": 67,
      "hit": false,
      "t": 48251.854833333266,
      "d": 217.3914999999979,
      "v": 126
    },
    {
      "midi": 43,
      "hit": false,
      "t": 48442.07258333326,
      "d": 217.3914999999979,
      "v": 126
    },
    {
      "midi": 79,
      "hit": false,
      "t": 48469.24633333326,
      "d": 434.7830000000031,
      "v": 126
    },
    {
      "midi": 55,
      "hit": false,
      "t": 48659.46408333326,
      "d": 217.3914999999979,
      "v": 126
    },
    {
      "midi": 52,
      "hit": false,
      "t": 48659.46408333327,
      "d": 217.3914999999979,
      "v": 126
    },
    {
      "midi": 53,
      "hit": false,
      "t": 48876.85558333326,
      "d": 217.3914999999979,
      "v": 126
    },
    {
      "midi": 72,
      "hit": false,
      "t": 48904.02933333327,
      "d": 326.08724999999686,
      "v": 126
    },
    {
      "midi": 60,
      "hit": false,
      "t": 49094.247083333255,
      "d": 217.3914999999979,
      "v": 126
    },
    {
      "midi": 57,
      "hit": false,
      "t": 49094.24708333326,
      "d": 217.3914999999979,
      "v": 126
    },
    {
      "midi": 72,
      "hit": false,
      "t": 49230.11658333326,
      "d": 108.69574999999895,
      "v": 126
    },
    {
      "midi": 48,
      "hit": false,
      "t": 49311.63858333325,
      "d": 217.3914999999979,
      "v": 126
    },
    {
      "midi": 72,
      "hit": false,
      "t": 49338.81233333326,
      "d": 217.3914999999979,
      "v": 126
    },
    {
      "midi": 60,
      "hit": false,
      "t": 49529.03008333325,
      "d": 217.3914999999979,
      "v": 126
    },
    {
      "midi": 57,
      "hit": false,
      "t": 49529.03008333326,
      "d": 217.3914999999979,
      "v": 126
    },
    {
      "midi": 81,
      "hit": false,
      "t": 49556.20383333326,
      "d": 217.3914999999979,
      "v": 126
    },
    {
      "midi": 53,
      "hit": false,
      "t": 49746.42158333325,
      "d": 217.3914999999979,
      "v": 126
    },
    {
      "midi": 77,
      "hit": false,
      "t": 49773.59533333326,
      "d": 869.5659999999989,
      "v": 126
    },
    {
      "midi": 60,
      "hit": false,
      "t": 49963.81308333325,
      "d": 217.3914999999979,
      "v": 126
    },
    {
      "midi": 57,
      "hit": false,
      "t": 49963.813083333254,
      "d": 217.3914999999979,
      "v": 126
    },
    {
      "midi": 48,
      "hit": false,
      "t": 50181.204583333245,
      "d": 217.3914999999979,
      "v": 126
    },
    {
      "midi": 60,
      "hit": false,
      "t": 50398.59608333324,
      "d": 217.3914999999979,
      "v": 126
    },
    {
      "midi": 57,
      "hit": false,
      "t": 50398.59608333325,
      "d": 217.3914999999979,
      "v": 126
    },
    {
      "midi": 48,
      "hit": false,
      "t": 50615.98758333324,
      "d": 217.3914999999979,
      "v": 126
    },
    {
      "midi": 72,
      "hit": false,
      "t": 50643.16133333326,
      "d": 326.08724999999686,
      "v": 126
    },
    {
      "midi": 55,
      "hit": false,
      "t": 50833.37908333324,
      "d": 217.3914999999979,
      "v": 126
    },
    {
      "midi": 52,
      "hit": false,
      "t": 50833.379083333246,
      "d": 217.3914999999979,
      "v": 126
    },
    {
      "midi": 72,
      "hit": false,
      "t": 50969.248583333254,
      "d": 108.69574999999895,
      "v": 126
    },
    {
      "midi": 43,
      "hit": false,
      "t": 51050.77058333324,
      "d": 217.3914999999979,
      "v": 126
    },
    {
      "midi": 72,
      "hit": false,
      "t": 51077.94433333325,
      "d": 217.3914999999979,
      "v": 126
    },
    {
      "midi": 55,
      "hit": false,
      "t": 51268.162083333234,
      "d": 217.3914999999979,
      "v": 126
    },
    {
      "midi": 52,
      "hit": false,
      "t": 51268.16208333324,
      "d": 217.3914999999979,
      "v": 126
    },
    {
      "midi": 79,
      "hit": false,
      "t": 51295.33583333325,
      "d": 217.3914999999979,
      "v": 126
    },
    {
      "midi": 48,
      "hit": false,
      "t": 51485.55358333323,
      "d": 217.3914999999979,
      "v": 126
    },
    {
      "midi": 76,
      "hit": false,
      "t": 51512.72733333325,
      "d": 869.5659999999989,
      "v": 126
    },
    {
      "midi": 55,
      "hit": false,
      "t": 51702.94508333323,
      "d": 217.3914999999979,
      "v": 126
    },
    {
      "midi": 52,
      "hit": false,
      "t": 51702.94508333324,
      "d": 217.3914999999979,
      "v": 126
    },
    {
      "midi": 43,
      "hit": false,
      "t": 51920.33658333323,
      "d": 217.3914999999979,
      "v": 126
    },
    {
      "midi": 55,
      "hit": false,
      "t": 52137.728083333226,
      "d": 217.3914999999979,
      "v": 126
    },
    {
      "midi": 52,
      "hit": false,
      "t": 52137.72808333323,
      "d": 217.3914999999979,
      "v": 126
    },
    {
      "midi": 50,
      "hit": false,
      "t": 52355.119583333224,
      "d": 1304.349000000002,
      "v": 126
    },
    {
      "midi": 55,
      "hit": false,
      "t": 52355.11958333323,
      "d": 1739.1319999999978,
      "v": 126
    },
    {
      "midi": 67,
      "hit": false,
      "t": 52382.29333333325,
      "d": 326.08724999999686,
      "v": 126
    },
    {
      "midi": 67,
      "hit": false,
      "t": 52708.380583333244,
      "d": 108.69574999999895,
      "v": 126
    },
    {
      "midi": 67,
      "hit": false,
      "t": 52817.07633333324,
      "d": 217.3914999999979,
      "v": 126
    },
    {
      "midi": 76,
      "hit": false,
      "t": 53034.46783333324,
      "d": 217.3914999999979,
      "v": 126
    },
    {
      "midi": 74,
      "hit": false,
      "t": 53251.85933333324,
      "d": 1739.1319999999978,
      "v": 126
    },
    {
      "midi": 41,
      "hit": false,
      "t": 53659.468583333226,
      "d": 434.7830000000031,
      "v": 126
    },
    {
      "midi": 43,
      "hit": false,
      "t": 54094.25158333323,
      "d": 1739.1319999999978,
      "v": 126
    }
  ]
}