{
  "jsonPath": "Country/Contemporary Country/Brad Paisley/im-gonna-miss-her.json",
  "path": "Country\\Contemporary Country\\Brad Paisley\\Im Gonna Miss Her.mid",
  "name": "Im Gonna Miss Her",
  "difficulty": "Advanced",
  "bpm": 120,
  "notes": [
    {
      "midi": 37,
      "hit": false,
      "t": 9633.253416666668,
      "d": 810.9494833333356,
      "v": 66
    },
    {
      "midi": 66,
      "hit": false,
      "t": 9886.352300000002,
      "d": 41.32226666666793,
      "v": 57
    },
    {
      "midi": 68,
      "hit": false,
      "t": 9896.68286666667,
      "d": 87.80981666666776,
      "v": 57
    },
    {
      "midi": 42,
      "hit": false,
      "t": 9922.509283333336,
      "d": 1249.998566666667,
      "v": 75
    },
    {
      "midi": 70,
      "hit": false,
      "t": 9948.335700000003,
      "d": 686.9826833333336,
      "v": 72
    },
    {
      "midi": 54,
      "hit": false,
      "t": 10227.261000000004,
      "d": 501.0324833333325,
      "v": 56
    },
    {
      "midi": 61,
      "hit": false,
      "t": 10537.178000000004,
      "d": 351.2392666666674,
      "v": 51
    },
    {
      "midi": 58,
      "hit": false,
      "t": 10831.599150000004,
      "d": 149.79321666666692,
      "v": 71
    },
    {
      "midi": 59,
      "hit": false,
      "t": 10981.39236666667,
      "d": 149.79321666666692,
      "v": 73
    },
    {
      "midi": 61,
      "hit": false,
      "t": 11157.012000000004,
      "d": 475.2060666666657,
      "v": 74
    },
    {
      "midi": 54,
      "hit": false,
      "t": 11466.929000000004,
      "d": 464.8755000000001,
      "v": 55
    },
    {
      "midi": 61,
      "hit": false,
      "t": 11776.846000000003,
      "d": 635.3298500000001,
      "v": 60
    },
    {
      "midi": 64,
      "hit": false,
      "t": 12081.59771666667,
      "d": 294.4211500000001,
      "v": 77
    },
    {
      "midi": 54,
      "hit": false,
      "t": 12086.763000000004,
      "d": 304.75171666666574,
      "v": 45
    },
    {
      "midi": 59,
      "hit": false,
      "t": 12396.680000000004,
      "d": 588.8423000000003,
      "v": 64
    },
    {
      "midi": 63,
      "hit": false,
      "t": 12396.680000000004,
      "d": 1017.5608166666661,
      "v": 72
    },
    {
      "midi": 54,
      "hit": false,
      "t": 13001.018150000004,
      "d": 996.8996833333331,
      "v": 59
    },
    {
      "midi": 59,
      "hit": false,
      "t": 13347.092133333337,
      "d": 888.4287333333323,
      "v": 72
    },
    {
      "midi": 68,
      "hit": false,
      "t": 13491.72006666667,
      "d": 30.991700000000492,
      "v": 60
    },
    {
      "midi": 66,
      "hit": false,
      "t": 13533.042333333338,
      "d": 103.30566666666527,
      "v": 68
    },
    {
      "midi": 65,
      "hit": false,
      "t": 13620.852150000004,
      "d": 1126.0317666666651,
      "v": 80
    },
    {
      "midi": 61,
      "hit": false,
      "t": 14256.182000000003,
      "d": 320.2475666666669,
      "v": 79
    },
    {
      "midi": 60,
      "hit": false,
      "t": 14566.099000000002,
      "d": 299.58643333333384,
      "v": 74
    },
    {
      "midi": 59,
      "hit": false,
      "t": 14876.016000000003,
      "d": 1208.676300000001,
      "v": 77
    },
    {
      "midi": 51,
      "hit": false,
      "t": 14881.181283333337,
      "d": 1234.5027166666678,
      "v": 65
    },
    {
      "midi": 42,
      "hit": false,
      "t": 16115.684000000005,
      "d": 940.0815666666676,
      "v": 66
    },
    {
      "midi": 61,
      "hit": false,
      "t": 16425.601000000006,
      "d": 826.4453333333331,
      "v": 49
    },
    {
      "midi": 58,
      "hit": false,
      "t": 16425.601000000006,
      "d": 831.610616666665,
      "v": 73
    },
    {
      "midi": 44,
      "hit": false,
      "t": 17045.435000000005,
      "d": 309.91699999999764,
      "v": 75
    },
    {
      "midi": 46,
      "hit": false,
      "t": 17355.352000000003,
      "d": 1162.1887499999975,
      "v": 80
    },
    {
      "midi": 61,
      "hit": false,
      "t": 17670.434283333336,
      "d": 361.5698333333312,
      "v": 66
    },
    {
      "midi": 52,
      "hit": false,
      "t": 17975.186,
      "d": 547.5200333333305,
      "v": 70
    },
    {
      "midi": 61,
      "hit": false,
      "t": 18285.103,
      "d": 278.92529999999897,
      "v": 61
    },
    {
      "midi": 54,
      "hit": false,
      "t": 18595.019999999997,
      "d": 392.5615333333335,
      "v": 54
    },
    {
      "midi": 47,
      "hit": false,
      "t": 18595.019999999997,
      "d": 532.0241833333348,
      "v": 71
    },
    {
      "midi": 63,
      "hit": false,
      "t": 18904.936999999998,
      "d": 532.0241833333348,
      "v": 60
    },
    {
      "midi": 54,
      "hit": false,
      "t": 19214.854,
      "d": 439.04908333333515,
      "v": 53
    },
    {
      "midi": 51,
      "hit": false,
      "t": 19214.854,
      "d": 728.3049500000016,
      "v": 70
    },
    {
      "midi": 59,
      "hit": false,
      "t": 19524.771,
      "d": 594.0075833333321,
      "v": 62
    },
    {
      "midi": 54,
      "hit": false,
      "t": 19834.688000000002,
      "d": 185.9501999999993,
      "v": 52
    },
    {
      "midi": 47,
      "hit": false,
      "t": 19834.688000000002,
      "d": 433.883799999996,
      "v": 72
    },
    {
      "midi": 63,
      "hit": false,
      "t": 19834.688000000002,
      "d": 464.87549999999464,
      "v": 49
    },
    {
      "midi": 54,
      "hit": false,
      "t": 20144.605,
      "d": 511.3630499999963,
      "v": 59
    },
    {
      "midi": 63,
      "hit": false,
      "t": 20454.521999999997,
      "d": 242.76831666666476,
      "v": 67
    },
    {
      "midi": 47,
      "hit": false,
      "t": 20454.521999999997,
      "d": 557.8505999999979,
      "v": 61
    },
    {
      "midi": 54,
      "hit": false,
      "t": 20764.438999999995,
      "d": 273.76001666666707,
      "v": 58
    },
    {
      "midi": 63,
      "hit": false,
      "t": 20764.438999999995,
      "d": 273.76001666666707,
      "v": 69
    },
    {
      "midi": 56,
      "hit": false,
      "t": 21074.355999999996,
      "d": 449.3796500000026,
      "v": 75
    },
    {
      "midi": 53,
      "hit": false,
      "t": 21074.355999999996,
      "d": 480.37135000000126,
      "v": 66
    },
    {
      "midi": 49,
      "hit": false,
      "t": 21384.272999999997,
      "d": 402.89210000000094,
      "v": 70
    },
    {
      "midi": 61,
      "hit": false,
      "t": 21384.272999999997,
      "d": 418.3879500000003,
      "v": 56
    },
    {
      "midi": 56,
      "hit": false,
      "t": 21694.19,
      "d": 506.1977666666644,
      "v": 57
    },
    {
      "midi": 53,
      "hit": false,
      "t": 21694.19,
      "d": 532.0241833333312,
      "v": 67
    },
    {
      "midi": 49,
      "hit": false,
      "t": 22004.106999999996,
      "d": 485.53663333333316,
      "v": 70
    },
    {
      "midi": 68,
      "hit": false,
      "t": 22004.106999999996,
      "d": 583.6770166666647,
      "v": 69
    },
    {
      "midi": 56,
      "hit": false,
      "t": 22314.023999999998,
      "d": 594.0075833333321,
      "v": 64
    },
    {
      "midi": 53,
      "hit": false,
      "t": 22314.023999999998,
      "d": 676.652116666668,
      "v": 64
    },
    {
      "midi": 61,
      "hit": false,
      "t": 22623.940999999995,
      "d": 470.04078333333746,
      "v": 60
    },
    {
      "midi": 49,
      "hit": false,
      "t": 22623.940999999995,
      "d": 810.9494833333374,
      "v": 71
    },
    {
      "midi": 59,
      "hit": false,
      "t": 22944.188566666664,
      "d": 594.0075833333358,
      "v": 64
    },
    {
      "midi": 54,
      "hit": false,
      "t": 23243.774999999998,
      "d": 335.74341666666805,
      "v": 70
    },
    {
      "midi": 49,
      "hit": false,
      "t": 23553.692,
      "d": 258.26416666666773,
      "v": 75
    },
    {
      "midi": 58,
      "hit": false,
      "t": 23553.692,
      "d": 1064.048366666666,
      "v": 80
    },
    {
      "midi": 49,
      "hit": false,
      "t": 23863.609,
      "d": 464.8754999999983,
      "v": 72
    },
    {
      "midi": 54,
      "hit": false,
      "t": 23863.609,
      "d": 501.0324833333325,
      "v": 51
    },
    {
      "midi": 54,
      "hit": false,
      "t": 24483.443,
      "d": 346.07398333333185,
      "v": 65
    },
    {
      "midi": 49,
      "hit": false,
      "t": 24483.443,
      "d": 692.1479666666637,
      "v": 65
    },
    {
      "midi": 53,
      "hit": false,
      "t": 24793.359999999997,
      "d": 340.90869999999995,
      "v": 50
    },
    {
      "midi": 61,
      "hit": false,
      "t": 24793.359999999997,
      "d": 583.6770166666647,
      "v": 68
    },
    {
      "midi": 56,
      "hit": false,
      "t": 25103.277,
      "d": 841.9411833333324,
      "v": 66
    },
    {
      "midi": 53,
      "hit": false,
      "t": 25413.193999999996,
      "d": 480.37135000000126,
      "v": 52
    },
    {
      "midi": 59,
      "hit": false,
      "t": 25413.193999999996,
      "d": 537.1894666666667,
      "v": 79
    },
    {
      "midi": 49,
      "hit": false,
      "t": 25723.110999999997,
      "d": 284.09058333333087,
      "v": 66
    },
    {
      "midi": 58,
      "hit": false,
      "t": 26033.027999999995,
      "d": 201.44604999999865,
      "v": 56
    },
    {
      "midi": 42,
      "hit": false,
      "t": 26033.027999999995,
      "d": 940.081566666664,
      "v": 66
    },
    {
      "midi": 61,
      "hit": false,
      "t": 26342.944999999992,
      "d": 826.4453333333367,
      "v": 49
    },
    {
      "midi": 58,
      "hit": false,
      "t": 26342.944999999992,
      "d": 831.6106166666686,
      "v": 73
    },
    {
      "midi": 54,
      "hit": false,
      "t": 26658.027283333326,
      "d": 516.5283333333355,
      "v": 55
    },
    {
      "midi": 44,
      "hit": false,
      "t": 26962.77899999999,
      "d": 123.96680000000197,
      "v": 75
    },
    {
      "midi": 45,
      "hit": false,
      "t": 27122.902783333328,
      "d": 123.96680000000197,
      "v": 75
    },
    {
      "midi": 46,
      "hit": false,
      "t": 27272.695999999996,
      "d": 1162.1887499999975,
      "v": 80
    },
    {
      "midi": 58,
      "hit": false,
      "t": 27298.522416666663,
      "d": 516.5283333333318,
      "v": 57
    },
    {
      "midi": 61,
      "hit": false,
      "t": 27587.77828333333,
      "d": 361.5698333333312,
      "v": 66
    },
    {
      "midi": 54,
      "hit": false,
      "t": 27892.529999999995,
      "d": 547.5200333333305,
      "v": 70
    },
    {
      "midi": 61,
      "hit": false,
      "t": 28202.446999999993,
      "d": 278.92529999999897,
      "v": 61
    },
    {
      "midi": 54,
      "hit": false,
      "t": 28512.36399999999,
      "d": 392.5615333333335,
      "v": 54
    },
    {
      "midi": 47,
      "hit": false,
      "t": 28512.36399999999,
      "d": 532.0241833333348,
      "v": 71
    },
    {
      "midi": 63,
      "hit": false,
      "t": 28822.28099999999,
      "d": 532.0241833333348,
      "v": 60
    },
    {
      "midi": 54,
      "hit": false,
      "t": 29132.197999999993,
      "d": 439.04908333333515,
      "v": 53
    },
    {
      "midi": 51,
      "hit": false,
      "t": 29132.197999999993,
      "d": 728.3049500000016,
      "v": 70
    },
    {
      "midi": 59,
      "hit": false,
      "t": 29442.114999999994,
      "d": 335.74341666666805,
      "v": 62
    },
    {
      "midi": 54,
      "hit": false,
      "t": 29752.031999999996,
      "d": 330.5781333333325,
      "v": 52
    },
    {
      "midi": 48,
      "hit": false,
      "t": 29752.031999999996,
      "d": 433.8837999999996,
      "v": 72
    },
    {
      "midi": 63,
      "hit": false,
      "t": 29752.031999999996,
      "d": 464.8754999999983,
      "v": 49
    },
    {
      "midi": 56,
      "hit": false,
      "t": 30061.948999999993,
      "d": 532.0241833333348,
      "v": 59
    },
    {
      "midi": 63,
      "hit": false,
      "t": 30371.865999999995,
      "d": 242.7683166666684,
      "v": 67
    },
    {
      "midi": 48,
      "hit": false,
      "t": 30371.865999999995,
      "d": 557.8506000000016,
      "v": 61
    },
    {
      "midi": 56,
      "hit": false,
      "t": 30681.782999999996,
      "d": 273.76001666666707,
      "v": 59
    },
    {
      "midi": 63,
      "hit": false,
      "t": 30681.782999999996,
      "d": 273.76001666666707,
      "v": 59
    },
    {
      "midi": 58,
      "hit": false,
      "t": 30991.699999999997,
      "d": 506.19776666666803,
      "v": 76
    },
    {
      "midi": 54,
      "hit": false,
      "t": 30991.699999999997,
      "d": 547.5200333333341,
      "v": 63
    },
    {
      "midi": 56,
      "hit": false,
      "t": 31611.534,
      "d": 594.0075833333321,
      "v": 79
    },
    {
      "midi": 53,
      "hit": false,
      "t": 31611.534,
      "d": 619.8339999999989,
      "v": 62
    },
    {
      "midi": 54,
      "hit": false,
      "t": 32231.368,
      "d": 738.6355166666654,
      "v": 70
    },
    {
      "midi": 51,
      "hit": false,
      "t": 32231.368,
      "d": 1115.7011999999995,
      "v": 69
    },
    {
      "midi": 56,
      "hit": false,
      "t": 33316.0775,
      "d": 144.62793333332957,
      "v": 63
    },
    {
      "midi": 54,
      "hit": false,
      "t": 33471.03599999999,
      "d": 568.181166666669,
      "v": 70
    },
    {
      "midi": 58,
      "hit": false,
      "t": 33471.03599999999,
      "d": 681.8173999999999,
      "v": 75
    },
    {
      "midi": 53,
      "hit": false,
      "t": 34090.869999999995,
      "d": 557.8505999999979,
      "v": 58
    },
    {
      "midi": 56,
      "hit": false,
      "t": 34090.869999999995,
      "d": 614.668716666667,
      "v": 77
    },
    {
      "midi": 54,
      "hit": false,
      "t": 34710.704,
      "d": 609.5034333333315,
      "v": 61
    },
    {
      "midi": 51,
      "hit": false,
      "t": 34710.704,
      "d": 1079.5442166666617,
      "v": 74
    },
    {
      "midi": 58,
      "hit": false,
      "t": 35330.53799999999,
      "d": 583.6770166666684,
      "v": 65
    },
    {
      "midi": 56,
      "hit": false,
      "t": 35950.371999999996,
      "d": 449.3796500000026,
      "v": 78
    },
    {
      "midi": 44,
      "hit": false,
      "t": 36260.289,
      "d": 196.2807666666704,
      "v": 74
    },
    {
      "midi": 61,
      "hit": false,
      "t": 36260.289,
      "d": 237.60303333334014,
      "v": 50
    },
    {
      "midi": 49,
      "hit": false,
      "t": 36415.2475,
      "d": 134.29736666667304,
      "v": 79
    },
    {
      "midi": 51,
      "hit": false,
      "t": 36570.206000000006,
      "d": 325.4128500000006,
      "v": 76
    },
    {
      "midi": 61,
      "hit": false,
      "t": 36570.206000000006,
      "d": 413.2226666666684,
      "v": 68
    },
    {
      "midi": 56,
      "hit": false,
      "t": 36570.206000000006,
      "d": 480.37135000000126,
      "v": 74
    },
    {
      "midi": 44,
      "hit": false,
      "t": 36880.12300000001,
      "d": 211.77661666666972,
      "v": 80
    },
    {
      "midi": 68,
      "hit": false,
      "t": 36880.12300000001,
      "d": 464.8755000000019,
      "v": 79
    },
    {
      "midi": 46,
      "hit": false,
      "t": 37035.08150000001,
      "d": 144.62793333333684,
      "v": 85
    },
    {
      "midi": 56,
      "hit": false,
      "t": 37190.04000000001,
      "d": 180.78491666666378,
      "v": 70
    },
    {
      "midi": 48,
      "hit": false,
      "t": 37190.04000000001,
      "d": 1182.8498833333288,
      "v": 83
    },
    {
      "midi": 60,
      "hit": false,
      "t": 37190.04000000001,
      "d": 1198.345733333328,
      "v": 76
    },
    {
      "midi": 56,
      "hit": false,
      "t": 37499.957,
      "d": 919.4204333333328,
      "v": 64
    },
    {
      "midi": 49,
      "hit": false,
      "t": 38429.708,
      "d": 3672.516450000003,
      "v": 82
    },
    {
      "midi": 61,
      "hit": false,
      "t": 38713.79858333333,
      "d": 320.2475666666651,
      "v": 51
    },
    {
      "midi": 56,
      "hit": false,
      "t": 38739.62499999999,
      "d": 563.0158833333335,
      "v": 65
    },
    {
      "midi": 61,
      "hit": false,
      "t": 39049.541999999994,
      "d": 289.2558666666664,
      "v": 75
    },
    {
      "midi": 63,
      "hit": false,
      "t": 39359.458999999995,
      "d": 335.7434166666717,
      "v": 71
    },
    {
      "midi": 65,
      "hit": false,
      "t": 39669.376,
      "d": 2469.005433333339,
      "v": 78
    },
    {
      "midi": 61,
      "hit": false,
      "t": 39674.54128333333,
      "d": 2443.1790166666688,
      "v": 60
    },
    {
      "midi": 51,
      "hit": false,
      "t": 42148.712,
      "d": 464.8755000000019,
      "v": 68
    },
    {
      "midi": 54,
      "hit": false,
      "t": 42148.712,
      "d": 495.8672000000006,
      "v": 68
    },
    {
      "midi": 59,
      "hit": false,
      "t": 42148.712,
      "d": 495.8672000000006,
      "v": 72
    },
    {
      "midi": 63,
      "hit": false,
      "t": 42561.93466666667,
      "d": 702.4785333333275,
      "v": 64
    },
    {
      "midi": 54,
      "hit": false,
      "t": 42768.546,
      "d": 423.5532333333322,
      "v": 63
    },
    {
      "midi": 51,
      "hit": false,
      "t": 42768.546,
      "d": 439.0490833333315,
      "v": 72
    },
    {
      "midi": 59,
      "hit": false,
      "t": 42768.546,
      "d": 470.0407833333302,
      "v": 62
    },
    {
      "midi": 59,
      "hit": false,
      "t": 43388.38,
      "d": 294.42115000000194,
      "v": 72
    },
    {
      "midi": 54,
      "hit": false,
      "t": 43388.38,
      "d": 356.4045499999993,
      "v": 63
    },
    {
      "midi": 51,
      "hit": false,
      "t": 43388.38,
      "d": 495.8672000000006,
      "v": 71
    },
    {
      "midi": 54,
      "hit": false,
      "t": 43801.602666666666,
      "d": 635.3298500000019,
      "v": 68
    },
    {
      "midi": 59,
      "hit": false,
      "t": 43801.602666666666,
      "d": 702.4785333333348,
      "v": 64
    },
    {
      "midi": 51,
      "hit": false,
      "t": 44008.214,
      "d": 495.8672000000006,
      "v": 75
    },
    {
      "midi": 63,
      "hit": false,
      "t": 44008.214,
      "d": 573.3464499999973,
      "v": 63
    },
    {
      "midi": 54,
      "hit": false,
      "t": 44628.047999999995,
      "d": 480.37135000000126,
      "v": 65
    },
    {
      "midi": 51,
      "hit": false,
      "t": 44628.047999999995,
      "d": 495.8672000000006,
      "v": 63
    },
    {
      "midi": 59,
      "hit": false,
      "t": 44628.047999999995,
      "d": 516.5283333333355,
      "v": 63
    },
    {
      "midi": 59,
      "hit": false,
      "t": 45247.882,
      "d": 320.2475666666651,
      "v": 72
    },
    {
      "midi": 54,
      "hit": false,
      "t": 45247.882,
      "d": 439.0490833333315,
      "v": 61
    },
    {
      "midi": 51,
      "hit": false,
      "t": 45247.882,
      "d": 475.2060666666657,
      "v": 63
    },
    {
      "midi": 59,
      "hit": false,
      "t": 45661.104666666666,
      "d": 671.4868333333361,
      "v": 70
    },
    {
      "midi": 63,
      "hit": false,
      "t": 45867.716,
      "d": 423.5532333333322,
      "v": 57
    },
    {
      "midi": 51,
      "hit": false,
      "t": 45867.716,
      "d": 444.21436666666705,
      "v": 67
    },
    {
      "midi": 54,
      "hit": false,
      "t": 45867.716,
      "d": 449.3796500000026,
      "v": 64
    },
    {
      "midi": 63,
      "hit": false,
      "t": 46487.55,
      "d": 454.54493333333085,
      "v": 56
    },
    {
      "midi": 51,
      "hit": false,
      "t": 46487.55,
      "d": 506.1977666666644,
      "v": 70
    },
    {
      "midi": 54,
      "hit": false,
      "t": 46487.55,
      "d": 521.6936166666637,
      "v": 62
    },
    {
      "midi": 59,
      "hit": false,
      "t": 46487.55,
      "d": 526.8588999999993,
      "v": 73
    },
    {
      "midi": 49,
      "hit": false,
      "t": 47107.384000000005,
      "d": 464.8755000000019,
      "v": 68
    },
    {
      "midi": 54,
      "hit": false,
      "t": 47107.384000000005,
      "d": 495.8672000000006,
      "v": 68
    },
    {
      "midi": 58,
      "hit": false,
      "t": 47107.384000000005,
      "d": 495.8672000000006,
      "v": 71
    },
    {
      "midi": 66,
      "hit": false,
      "t": 47520.606666666674,
      "d": 702.4785333333275,
      "v": 64
    },
    {
      "midi": 54,
      "hit": false,
      "t": 47727.21800000001,
      "d": 423.5532333333322,
      "v": 63
    },
    {
      "midi": 49,
      "hit": false,
      "t": 47727.21800000001,
      "d": 439.0490833333315,
      "v": 72
    },
    {
      "midi": 58,
      "hit": false,
      "t": 47727.21800000001,
      "d": 470.0407833333302,
      "v": 67
    },
    {
      "midi": 58,
      "hit": false,
      "t": 48347.052,
      "d": 294.42115000000194,
      "v": 72
    },
    {
      "midi": 54,
      "hit": false,
      "t": 48347.052,
      "d": 356.4045499999993,
      "v": 63
    },
    {
      "midi": 49,
      "hit": false,
      "t": 48347.052,
      "d": 495.8672000000006,
      "v": 66
    },
    {
      "midi": 54,
      "hit": false,
      "t": 48760.27466666667,
      "d": 635.3298500000019,
      "v": 68
    },
    {
      "midi": 58,
      "hit": false,
      "t": 48760.27466666667,
      "d": 702.4785333333348,
      "v": 64
    },
    {
      "midi": 49,
      "hit": false,
      "t": 48966.886000000006,
      "d": 495.8672000000006,
      "v": 70
    },
    {
      "midi": 61,
      "hit": false,
      "t": 48966.886000000006,
      "d": 573.3464499999973,
      "v": 63
    },
    {
      "midi": 54,
      "hit": false,
      "t": 49586.72,
      "d": 480.37135000000126,
      "v": 65
    },
    {
      "midi": 49,
      "hit": false,
      "t": 49586.72,
      "d": 495.8672000000006,
      "v": 63
    },
    {
      "midi": 58,
      "hit": false,
      "t": 49586.72,
      "d": 516.5283333333355,
      "v": 63
    },
    {
      "midi": 58,
      "hit": false,
      "t": 50206.554000000004,
      "d": 320.2475666666651,
      "v": 67
    },
    {
      "midi": 54,
      "hit": false,
      "t": 50206.554000000004,
      "d": 439.0490833333315,
      "v": 61
    },
    {
      "midi": 49,
      "hit": false,
      "t": 50206.554000000004,
      "d": 475.2060666666657,
      "v": 63
    },
    {
      "midi": 58,
      "hit": false,
      "t": 50619.77666666667,
      "d": 671.4868333333361,
      "v": 64
    },
    {
      "midi": 49,
      "hit": false,
      "t": 50826.388000000006,
      "d": 444.21436666666705,
      "v": 67
    },
    {
      "midi": 54,
      "hit": false,
      "t": 50826.388000000006,
      "d": 449.3796500000026,
      "v": 64
    },
    {
      "midi": 66,
      "hit": false,
      "t": 50826.388000000006,
      "d": 516.5283333333355,
      "v": 57
    },
    {
      "midi": 61,
      "hit": false,
      "t": 51239.610666666675,
      "d": 686.9826833333354,
      "v": 56
    },
    {
      "midi": 49,
      "hit": false,
      "t": 51446.22200000001,
      "d": 506.1977666666644,
      "v": 65
    },
    {
      "midi": 54,
      "hit": false,
      "t": 51446.22200000001,
      "d": 521.6936166666637,
      "v": 62
    },
    {
      "midi": 58,
      "hit": false,
      "t": 51446.22200000001,
      "d": 526.8588999999993,
      "v": 70
    },
    {
      "midi": 49,
      "hit": false,
      "t": 52066.05600000001,
      "d": 464.8755000000019,
      "v": 68
    },
    {
      "midi": 53,
      "hit": false,
      "t": 52066.05600000001,
      "d": 495.8672000000006,
      "v": 68
    },
    {
      "midi": 56,
      "hit": false,
      "t": 52066.05600000001,
      "d": 1151.8581833333374,
      "v": 71
    },
    {
      "midi": 65,
      "hit": false,
      "t": 52479.27866666668,
      "d": 702.4785333333348,
      "v": 64
    },
    {
      "midi": 53,
      "hit": false,
      "t": 52685.890000000014,
      "d": 423.5532333333322,
      "v": 63
    },
    {
      "midi": 49,
      "hit": false,
      "t": 52685.890000000014,
      "d": 439.0490833333315,
      "v": 72
    },
    {
      "midi": 61,
      "hit": false,
      "t": 52685.890000000014,
      "d": 671.4868333333361,
      "v": 67
    },
    {
      "midi": 56,
      "hit": false,
      "t": 53305.72400000002,
      "d": 294.42115000000194,
      "v": 72
    },
    {
      "midi": 53,
      "hit": false,
      "t": 53305.72400000002,
      "d": 356.4045499999993,
      "v": 63
    },
    {
      "midi": 49,
      "hit": false,
      "t": 53305.72400000002,
      "d": 495.8672000000006,
      "v": 66
    },
    {
      "midi": 53,
      "hit": false,
      "t": 53718.946666666685,
      "d": 635.3298500000019,
      "v": 68
    },
    {
      "midi": 56,
      "hit": false,
      "t": 53718.946666666685,
      "d": 702.4785333333348,
      "v": 64
    },
    {
      "midi": 49,
      "hit": false,
      "t": 53925.55800000002,
      "d": 495.8672000000006,
      "v": 70
    },
    {
      "midi": 61,
      "hit": false,
      "t": 53925.55800000002,
      "d": 573.3464499999973,
      "v": 63
    },
    {
      "midi": 53,
      "hit": false,
      "t": 54545.392000000014,
      "d": 480.37135000000126,
      "v": 65
    },
    {
      "midi": 49,
      "hit": false,
      "t": 54545.392000000014,
      "d": 495.8672000000006,
      "v": 63
    },
    {
      "midi": 56,
      "hit": false,
      "t": 54545.392000000014,
      "d": 516.5283333333355,
      "v": 63
    },
    {
      "midi": 56,
      "hit": false,
      "t": 55165.22600000002,
      "d": 320.2475666666651,
      "v": 67
    },
    {
      "midi": 53,
      "hit": false,
      "t": 55165.22600000002,
      "d": 439.0490833333315,
      "v": 61
    },
    {
      "midi": 49,
      "hit": false,
      "t": 55165.22600000002,
      "d": 475.2060666666657,
      "v": 63
    },
    {
      "midi": 56,
      "hit": false,
      "t": 55578.448666666685,
      "d": 671.4868333333361,
      "v": 64
    },
    {
      "midi": 49,
      "hit": false,
      "t": 55785.06000000002,
      "d": 444.21436666666705,
      "v": 67
    },
    {
      "midi": 53,
      "hit": false,
      "t": 55785.06000000002,
      "d": 449.3796500000026,
      "v": 64
    },
    {
      "midi": 65,
      "hit": false,
      "t": 55785.06000000002,
      "d": 516.5283333333355,
      "v": 57
    },
    {
      "midi": 61,
      "hit": false,
      "t": 56198.28266666669,
      "d": 686.9826833333354,
      "v": 56
    },
    {
      "midi": 49,
      "hit": false,
      "t": 56404.89400000002,
      "d": 506.1977666666644,
      "v": 65
    },
    {
      "midi": 53,
      "hit": false,
      "t": 56404.89400000002,
      "d": 521.6936166666637,
      "v": 62
    },
    {
      "midi": 56,
      "hit": false,
      "t": 56404.89400000002,
      "d": 526.8588999999993,
      "v": 70
    },
    {
      "midi": 49,
      "hit": false,
      "t": 57024.728000000025,
      "d": 464.8755000000019,
      "v": 68
    },
    {
      "midi": 54,
      "hit": false,
      "t": 57024.728000000025,
      "d": 495.8672000000006,
      "v": 68
    },
    {
      "midi": 58,
      "hit": false,
      "t": 57024.728000000025,
      "d": 495.8672000000006,
      "v": 71
    },
    {
      "midi": 66,
      "hit": false,
      "t": 57437.95066666669,
      "d": 702.4785333333275,
      "v": 64
    },
    {
      "midi": 54,
      "hit": false,
      "t": 57644.56200000003,
      "d": 423.5532333333322,
      "v": 63
    },
    {
      "midi": 49,
      "hit": false,
      "t": 57644.56200000003,
      "d": 439.0490833333315,
      "v": 72
    },
    {
      "midi": 58,
      "hit": false,
      "t": 57644.56200000003,
      "d": 470.0407833333302,
      "v": 67
    },
    {
      "midi": 58,
      "hit": false,
      "t": 58264.39600000002,
      "d": 294.42115000000194,
      "v": 72
    },
    {
      "midi": 54,
      "hit": false,
      "t": 58264.39600000002,
      "d": 356.4045499999993,
      "v": 63
    },
    {
      "midi": 49,
      "hit": false,
      "t": 58264.39600000002,
      "d": 495.8672000000006,
      "v": 66
    },
    {
      "midi": 54,
      "hit": false,
      "t": 58677.61866666669,
      "d": 635.3298500000019,
      "v": 68
    },
    {
      "midi": 58,
      "hit": false,
      "t": 58677.61866666669,
      "d": 702.4785333333348,
      "v": 64
    },
    {
      "midi": 49,
      "hit": false,
      "t": 58884.230000000025,
      "d": 495.8672000000006,
      "v": 70
    },
    {
      "midi": 61,
      "hit": false,
      "t": 58884.230000000025,
      "d": 573.3464499999973,
      "v": 63
    },
    {
      "midi": 54,
      "hit": false,
      "t": 59504.06400000002,
      "d": 480.37135000000126,
      "v": 65
    },
    {
      "midi": 49,
      "hit": false,
      "t": 59504.06400000002,
      "d": 495.8672000000006,
      "v": 63
    },
    {
      "midi": 58,
      "hit": false,
      "t": 59504.06400000002,
      "d": 516.5283333333355,
      "v": 63
    },
    {
      "midi": 58,
      "hit": false,
      "t": 60123.89800000002,
      "d": 320.2475666666651,
      "v": 67
    },
    {
      "midi": 54,
      "hit": false,
      "t": 60123.89800000002,
      "d": 439.0490833333315,
      "v": 61
    },
    {
      "midi": 49,
      "hit": false,
      "t": 60123.89800000002,
      "d": 475.2060666666657,
      "v": 63
    },
    {
      "midi": 58,
      "hit": false,
      "t": 60537.12066666669,
      "d": 671.4868333333361,
      "v": 64
    },
    {
      "midi": 49,
      "hit": false,
      "t": 60743.732000000025,
      "d": 444.21436666666705,
      "v": 67
    },
    {
      "midi": 54,
      "hit": false,
      "t": 60743.732000000025,
      "d": 449.3796500000026,
      "v": 64
    },
    {
      "midi": 66,
      "hit": false,
      "t": 60743.732000000025,
      "d": 516.5283333333355,
      "v": 57
    },
    {
      "midi": 61,
      "hit": false,
      "t": 61156.954666666694,
      "d": 686.9826833333354,
      "v": 56
    },
    {
      "midi": 49,
      "hit": false,
      "t": 61363.56600000003,
      "d": 506.1977666666644,
      "v": 65
    },
    {
      "midi": 54,
      "hit": false,
      "t": 61363.56600000003,
      "d": 521.6936166666637,
      "v": 62
    },
    {
      "midi": 58,
      "hit": false,
      "t": 61363.56600000003,
      "d": 526.8588999999993,
      "v": 70
    },
    {
      "midi": 51,
      "hit": false,
      "t": 61983.40000000003,
      "d": 464.8755000000019,
      "v": 68
    },
    {
      "midi": 54,
      "hit": false,
      "t": 61983.40000000003,
      "d": 495.8672000000006,
      "v": 68
    },
    {
      "midi": 59,
      "hit": false,
      "t": 61983.40000000003,
      "d": 495.8672000000006,
      "v": 72
    },
    {
      "midi": 63,
      "hit": false,
      "t": 62396.6226666667,
      "d": 702.4785333333275,
      "v": 64
    },
    {
      "midi": 54,
      "hit": false,
      "t": 62603.23400000003,
      "d": 423.5532333333322,
      "v": 63
    },
    {
      "midi": 51,
      "hit": false,
      "t": 62603.23400000003,
      "d": 439.0490833333315,
      "v": 72
    },
    {
      "midi": 59,
      "hit": false,
      "t": 62603.23400000003,
      "d": 470.0407833333302,
      "v": 62
    },
    {
      "midi": 59,
      "hit": false,
      "t": 63223.06800000003,
      "d": 294.42115000000194,
      "v": 72
    },
    {
      "midi": 54,
      "hit": false,
      "t": 63223.06800000003,
      "d": 356.4045499999993,
      "v": 63
    },
    {
      "midi": 51,
      "hit": false,
      "t": 63223.06800000003,
      "d": 495.8672000000006,
      "v": 71
    },
    {
      "midi": 54,
      "hit": false,
      "t": 63636.2906666667,
      "d": 635.3298500000019,
      "v": 68
    },
    {
      "midi": 59,
      "hit": false,
      "t": 63636.2906666667,
      "d": 702.4785333333348,
      "v": 64
    },
    {
      "midi": 51,
      "hit": false,
      "t": 63842.90200000003,
      "d": 495.8672000000006,
      "v": 75
    },
    {
      "midi": 63,
      "hit": false,
      "t": 63842.90200000003,
      "d": 573.3464499999973,
      "v": 63
    },
    {
      "midi": 54,
      "hit": false,
      "t": 64462.736000000026,
      "d": 480.37135000000126,
      "v": 65
    },
    {
      "midi": 51,
      "hit": false,
      "t": 64462.736000000026,
      "d": 495.8672000000006,
      "v": 63
    },
    {
      "midi": 59,
      "hit": false,
      "t": 64462.736000000026,
      "d": 516.5283333333355,
      "v": 63
    },
    {
      "midi": 59,
      "hit": false,
      "t": 65082.57000000003,
      "d": 320.2475666666651,
      "v": 72
    },
    {
      "midi": 54,
      "hit": false,
      "t": 65082.57000000003,
      "d": 439.0490833333315,
      "v": 61
    },
    {
      "midi": 51,
      "hit": false,
      "t": 65082.57000000003,
      "d": 475.20606666665844,
      "v": 63
    },
    {
      "midi": 59,
      "hit": false,
      "t": 65495.7926666667,
      "d": 671.4868333333361,
      "v": 70
    },
    {
      "midi": 63,
      "hit": false,
      "t": 65702.40400000002,
      "d": 423.55323333333945,
      "v": 57
    },
    {
      "midi": 51,
      "hit": false,
      "t": 65702.40400000002,
      "d": 444.21436666666705,
      "v": 67
    },
    {
      "midi": 54,
      "hit": false,
      "t": 65702.40400000002,
      "d": 449.3796500000026,
      "v": 64
    },
    {
      "midi": 63,
      "hit": false,
      "t": 66322.23800000003,
      "d": 454.5449333333381,
      "v": 56
    },
    {
      "midi": 51,
      "hit": false,
      "t": 66322.23800000003,
      "d": 506.1977666666644,
      "v": 70
    },
    {
      "midi": 54,
      "hit": false,
      "t": 66322.23800000003,
      "d": 521.693616666671,
      "v": 62
    },
    {
      "midi": 59,
      "hit": false,
      "t": 66322.23800000003,
      "d": 526.8589000000065,
      "v": 73
    },
    {
      "midi": 49,
      "hit": false,
      "t": 66942.07200000003,
      "d": 464.87549999999464,
      "v": 68
    },
    {
      "midi": 54,
      "hit": false,
      "t": 66942.07200000003,
      "d": 495.8671999999933,
      "v": 68
    },
    {
      "midi": 58,
      "hit": false,
      "t": 66942.07200000003,
      "d": 495.8671999999933,
      "v": 71
    },
    {
      "midi": 66,
      "hit": false,
      "t": 67355.2946666667,
      "d": 702.4785333333275,
      "v": 64
    },
    {
      "midi": 54,
      "hit": false,
      "t": 67561.90600000002,
      "d": 423.55323333333945,
      "v": 63
    },
    {
      "midi": 49,
      "hit": false,
      "t": 67561.90600000002,
      "d": 439.04908333334606,
      "v": 72
    },
    {
      "midi": 58,
      "hit": false,
      "t": 67561.90600000002,
      "d": 470.04078333334473,
      "v": 67
    },
    {
      "midi": 58,
      "hit": false,
      "t": 68181.74000000002,
      "d": 294.42114999999467,
      "v": 72
    },
    {
      "midi": 50,
      "hit": false,
      "t": 68181.74000000002,
      "d": 495.86720000000787,
      "v": 66
    },
    {
      "midi": 53,
      "hit": false,
      "t": 68181.74000000002,
      "d": 532.0241833333421,
      "v": 63
    },
    {
      "midi": 58,
      "hit": false,
      "t": 68594.96266666669,
      "d": 702.478533333342,
      "v": 64
    },
    {
      "midi": 50,
      "hit": false,
      "t": 68801.57400000002,
      "d": 495.86720000000787,
      "v": 70
    },
    {
      "midi": 62,
      "hit": false,
      "t": 68801.57400000002,
      "d": 573.3464499999973,
      "v": 63
    },
    {
      "midi": 53,
      "hit": false,
      "t": 68806.73928333336,
      "d": 547.5200333333341,
      "v": 68
    },
    {
      "midi": 54,
      "hit": false,
      "t": 69421.40800000002,
      "d": 480.37135000000126,
      "v": 65
    },
    {
      "midi": 51,
      "hit": false,
      "t": 69421.40800000002,
      "d": 495.86720000000787,
      "v": 63
    },
    {
      "midi": 58,
      "hit": false,
      "t": 69421.40800000002,
      "d": 516.5283333333355,
      "v": 63
    },
    {
      "midi": 58,
      "hit": false,
      "t": 70041.24200000003,
      "d": 320.24756666667236,
      "v": 67
    },
    {
      "midi": 54,
      "hit": false,
      "t": 70041.24200000003,
      "d": 439.0490833333315,
      "v": 61
    },
    {
      "midi": 51,
      "hit": false,
      "t": 70041.24200000003,
      "d": 475.2060666666657,
      "v": 63
    },
    {
      "midi": 58,
      "hit": false,
      "t": 70454.4646666667,
      "d": 671.4868333333434,
      "v": 64
    },
    {
      "midi": 49,
      "hit": false,
      "t": 70661.07600000003,
      "d": 444.21436666666705,
      "v": 67
    },
    {
      "midi": 54,
      "hit": false,
      "t": 70661.07600000003,
      "d": 449.3796500000026,
      "v": 64
    },
    {
      "midi": 66,
      "hit": false,
      "t": 70661.07600000003,
      "d": 516.5283333333355,
      "v": 57
    },
    {
      "midi": 61,
      "hit": false,
      "t": 71074.2986666667,
      "d": 686.9826833333354,
      "v": 56
    },
    {
      "midi": 51,
      "hit": false,
      "t": 71280.91000000003,
      "d": 506.1977666666644,
      "v": 65
    },
    {
      "midi": 54,
      "hit": false,
      "t": 71280.91000000003,
      "d": 521.693616666671,
      "v": 62
    },
    {
      "midi": 58,
      "hit": false,
      "t": 71280.91000000003,
      "d": 526.8589000000065,
      "v": 70
    },
    {
      "midi": 54,
      "hit": false,
      "t": 71900.74400000004,
      "d": 480.37135000000126,
      "v": 65
    },
    {
      "midi": 51,
      "hit": false,
      "t": 71900.74400000004,
      "d": 495.86720000000787,
      "v": 63
    },
    {
      "midi": 59,
      "hit": false,
      "t": 71900.74400000004,
      "d": 516.5283333333355,
      "v": 63
    },
    {
      "midi": 59,
      "hit": false,
      "t": 72520.57800000004,
      "d": 320.24756666667236,
      "v": 72
    },
    {
      "midi": 54,
      "hit": false,
      "t": 72520.57800000004,
      "d": 439.0490833333315,
      "v": 61
    },
    {
      "midi": 51,
      "hit": false,
      "t": 72520.57800000004,
      "d": 475.2060666666657,
      "v": 63
    },
    {
      "midi": 59,
      "hit": false,
      "t": 72933.8006666667,
      "d": 671.4868333333434,
      "v": 70
    },
    {
      "midi": 63,
      "hit": false,
      "t": 73140.41200000004,
      "d": 423.55323333333945,
      "v": 57
    },
    {
      "midi": 51,
      "hit": false,
      "t": 73140.41200000004,
      "d": 444.21436666666705,
      "v": 67
    },
    {
      "midi": 54,
      "hit": false,
      "t": 73140.41200000004,
      "d": 449.3796500000026,
      "v": 64
    },
    {
      "midi": 63,
      "hit": false,
      "t": 73760.24600000004,
      "d": 454.5449333333381,
      "v": 56
    },
    {
      "midi": 51,
      "hit": false,
      "t": 73760.24600000004,
      "d": 506.1977666666644,
      "v": 70
    },
    {
      "midi": 54,
      "hit": false,
      "t": 73760.24600000004,
      "d": 521.693616666671,
      "v": 62
    },
    {
      "midi": 59,
      "hit": false,
      "t": 73760.24600000004,
      "d": 526.8589000000065,
      "v": 73
    },
    {
      "midi": 53,
      "hit": false,
      "t": 74380.08000000005,
      "d": 480.37135000000126,
      "v": 65
    },
    {
      "midi": 61,
      "hit": false,
      "t": 74380.08000000005,
      "d": 495.86720000000787,
      "v": 63
    },
    {
      "midi": 56,
      "hit": false,
      "t": 74380.08000000005,
      "d": 516.5283333333355,
      "v": 63
    },
    {
      "midi": 56,
      "hit": false,
      "t": 74999.91400000005,
      "d": 320.24756666667236,
      "v": 67
    },
    {
      "midi": 53,
      "hit": false,
      "t": 74999.91400000005,
      "d": 439.0490833333315,
      "v": 61
    },
    {
      "midi": 49,
      "hit": false,
      "t": 74999.91400000005,
      "d": 475.2060666666657,
      "v": 63
    },
    {
      "midi": 56,
      "hit": false,
      "t": 75413.13666666672,
      "d": 671.4868333333434,
      "v": 64
    },
    {
      "midi": 49,
      "hit": false,
      "t": 75619.74800000005,
      "d": 444.21436666666705,
      "v": 67
    },
    {
      "midi": 53,
      "hit": false,
      "t": 75619.74800000005,
      "d": 449.3796500000026,
      "v": 64
    },
    {
      "midi": 65,
      "hit": false,
      "t": 75619.74800000005,
      "d": 516.5283333333355,
      "v": 57
    },
    {
      "midi": 61,
      "hit": false,
      "t": 76032.97066666672,
      "d": 686.9826833333354,
      "v": 56
    },
    {
      "midi": 49,
      "hit": false,
      "t": 76239.58200000005,
      "d": 506.1977666666644,
      "v": 65
    },
    {
      "midi": 53,
      "hit": false,
      "t": 76239.58200000005,
      "d": 521.693616666671,
      "v": 62
    },
    {
      "midi": 56,
      "hit": false,
      "t": 76239.58200000005,
      "d": 526.8589000000065,
      "v": 70
    },
    {
      "midi": 49,
      "hit": false,
      "t": 76859.41600000006,
      "d": 464.87549999999464,
      "v": 68
    },
    {
      "midi": 54,
      "hit": false,
      "t": 76859.41600000006,
      "d": 495.8671999999933,
      "v": 68
    },
    {
      "midi": 58,
      "hit": false,
      "t": 76859.41600000006,
      "d": 495.8671999999933,
      "v": 71
    },
    {
      "midi": 66,
      "hit": false,
      "t": 77272.63866666672,
      "d": 702.4785333333275,
      "v": 64
    },
    {
      "midi": 54,
      "hit": false,
      "t": 77479.25000000004,
      "d": 423.55323333333945,
      "v": 63
    },
    {
      "midi": 49,
      "hit": false,
      "t": 77479.25000000004,
      "d": 439.04908333334606,
      "v": 72
    },
    {
      "midi": 58,
      "hit": false,
      "t": 77479.25000000004,
      "d": 470.04078333334473,
      "v": 67
    },
    {
      "midi": 58,
      "hit": false,
      "t": 78099.08400000005,
      "d": 294.42114999999467,
      "v": 72
    },
    {
      "midi": 54,
      "hit": false,
      "t": 78099.08400000005,
      "d": 356.404549999992,
      "v": 63
    },
    {
      "midi": 49,
      "hit": false,
      "t": 78099.08400000005,
      "d": 495.8671999999933,
      "v": 66
    },
    {
      "midi": 54,
      "hit": false,
      "t": 78512.3066666667,
      "d": 635.3298499999946,
      "v": 68
    },
    {
      "midi": 58,
      "hit": false,
      "t": 78512.3066666667,
      "d": 702.4785333333275,
      "v": 64
    },
    {
      "midi": 49,
      "hit": false,
      "t": 78718.91800000003,
      "d": 495.8671999999933,
      "v": 70
    },
    {
      "midi": 61,
      "hit": false,
      "t": 78718.91800000003,
      "d": 573.3464499999973,
      "v": 63
    },
    {
      "midi": 54,
      "hit": false,
      "t": 79338.75200000004,
      "d": 480.37135000000126,
      "v": 65
    },
    {
      "midi": 49,
      "hit": false,
      "t": 79338.75200000004,
      "d": 495.86720000000787,
      "v": 63
    },
    {
      "midi": 58,
      "hit": false,
      "t": 79338.75200000004,
      "d": 516.5283333333355,
      "v": 63
    },
    {
      "midi": 58,
      "hit": false,
      "t": 79958.58600000004,
      "d": 320.24756666667236,
      "v": 67
    },
    {
      "midi": 54,
      "hit": false,
      "t": 79958.58600000004,
      "d": 439.0490833333315,
      "v": 61
    },
    {
      "midi": 49,
      "hit": false,
      "t": 79958.58600000004,
      "d": 475.2060666666657,
      "v": 63
    },
    {
      "midi": 58,
      "hit": false,
      "t": 80371.80866666671,
      "d": 671.4868333333434,
      "v": 64
    },
    {
      "midi": 49,
      "hit": false,
      "t": 80578.42000000004,
      "d": 444.21436666666705,
      "v": 67
    },
    {
      "midi": 54,
      "hit": false,
      "t": 80578.42000000004,
      "d": 449.3796500000026,
      "v": 64
    },
    {
      "midi": 66,
      "hit": false,
      "t": 80578.42000000004,
      "d": 516.5283333333355,
      "v": 57
    },
    {
      "midi": 61,
      "hit": false,
      "t": 80991.64266666671,
      "d": 686.9826833333354,
      "v": 56
    },
    {
      "midi": 49,
      "hit": false,
      "t": 81198.25400000004,
      "d": 506.1977666666644,
      "v": 65
    },
    {
      "midi": 54,
      "hit": false,
      "t": 81198.25400000004,
      "d": 521.693616666671,
      "v": 62
    },
    {
      "midi": 58,
      "hit": false,
      "t": 81198.25400000004,
      "d": 526.8589000000065,
      "v": 70
    },
    {
      "midi": 51,
      "hit": false,
      "t": 81818.08800000005,
      "d": 464.87549999999464,
      "v": 68
    },
    {
      "midi": 54,
      "hit": false,
      "t": 81818.08800000005,
      "d": 495.8671999999933,
      "v": 68
    },
    {
      "midi": 59,
      "hit": false,
      "t": 81818.08800000005,
      "d": 495.8671999999933,
      "v": 72
    },
    {
      "midi": 63,
      "hit": false,
      "t": 82231.31066666672,
      "d": 702.4785333333275,
      "v": 64
    },
    {
      "midi": 54,
      "hit": false,
      "t": 82437.92200000004,
      "d": 423.55323333333945,
      "v": 63
    },
    {
      "midi": 51,
      "hit": false,
      "t": 82437.92200000004,
      "d": 439.04908333334606,
      "v": 72
    },
    {
      "midi": 59,
      "hit": false,
      "t": 82437.92200000004,
      "d": 470.04078333334473,
      "v": 62
    },
    {
      "midi": 59,
      "hit": false,
      "t": 83057.75600000004,
      "d": 294.42114999999467,
      "v": 72
    },
    {
      "midi": 54,
      "hit": false,
      "t": 83057.75600000004,
      "d": 356.404549999992,
      "v": 63
    },
    {
      "midi": 51,
      "hit": false,
      "t": 83057.75600000004,
      "d": 495.8671999999933,
      "v": 71
    },
    {
      "midi": 54,
      "hit": false,
      "t": 83470.97866666669,
      "d": 635.3298499999946,
      "v": 68
    },
    {
      "midi": 59,
      "hit": false,
      "t": 83470.97866666669,
      "d": 702.4785333333275,
      "v": 64
    },
    {
      "midi": 51,
      "hit": false,
      "t": 83677.59000000003,
      "d": 495.8671999999933,
      "v": 75
    },
    {
      "midi": 63,
      "hit": false,
      "t": 83677.59000000003,
      "d": 573.3464499999973,
      "v": 63
    },
    {
      "midi": 54,
      "hit": false,
      "t": 84297.42400000003,
      "d": 480.37135000000126,
      "v": 65
    },
    {
      "midi": 51,
      "hit": false,
      "t": 84297.42400000003,
      "d": 495.86720000000787,
      "v": 63
    },
    {
      "midi": 59,
      "hit": false,
      "t": 84297.42400000003,
      "d": 516.5283333333355,
      "v": 63
    },
    {
      "midi": 59,
      "hit": false,
      "t": 84917.25800000003,
      "d": 320.24756666667236,
      "v": 72
    },
    {
      "midi": 54,
      "hit": false,
      "t": 84917.25800000003,
      "d": 439.0490833333315,
      "v": 61
    },
    {
      "midi": 51,
      "hit": false,
      "t": 84917.25800000003,
      "d": 475.2060666666657,
      "v": 63
    },
    {
      "midi": 59,
      "hit": false,
      "t": 85330.4806666667,
      "d": 671.4868333333434,
      "v": 70
    },
    {
      "midi": 63,
      "hit": false,
      "t": 85537.09200000003,
      "d": 423.55323333333945,
      "v": 57
    },
    {
      "midi": 51,
      "hit": false,
      "t": 85537.09200000003,
      "d": 444.21436666666705,
      "v": 67
    },
    {
      "midi": 54,
      "hit": false,
      "t": 85537.09200000003,
      "d": 449.3796500000026,
      "v": 64
    },
    {
      "midi": 63,
      "hit": false,
      "t": 86156.92600000004,
      "d": 454.5449333333381,
      "v": 56
    },
    {
      "midi": 51,
      "hit": false,
      "t": 86156.92600000004,
      "d": 506.1977666666644,
      "v": 70
    },
    {
      "midi": 54,
      "hit": false,
      "t": 86156.92600000004,
      "d": 521.693616666671,
      "v": 62
    },
    {
      "midi": 59,
      "hit": false,
      "t": 86156.92600000004,
      "d": 526.8589000000065,
      "v": 73
    },
    {
      "midi": 49,
      "hit": false,
      "t": 86776.76000000004,
      "d": 464.87549999999464,
      "v": 68
    },
    {
      "midi": 54,
      "hit": false,
      "t": 86776.76000000004,
      "d": 495.8671999999933,
      "v": 68
    },
    {
      "midi": 58,
      "hit": false,
      "t": 86776.76000000004,
      "d": 495.8671999999933,
      "v": 71
    },
    {
      "midi": 66,
      "hit": false,
      "t": 87189.9826666667,
      "d": 702.4785333333275,
      "v": 64
    },
    {
      "midi": 54,
      "hit": false,
      "t": 87396.59400000003,
      "d": 423.55323333333945,
      "v": 63
    },
    {
      "midi": 49,
      "hit": false,
      "t": 87396.59400000003,
      "d": 439.04908333334606,
      "v": 72
    },
    {
      "midi": 58,
      "hit": false,
      "t": 87396.59400000003,
      "d": 470.04078333334473,
      "v": 67
    },
    {
      "midi": 58,
      "hit": false,
      "t": 88016.42800000003,
      "d": 294.42114999999467,
      "v": 72
    },
    {
      "midi": 54,
      "hit": false,
      "t": 88016.42800000003,
      "d": 356.404549999992,
      "v": 63
    },
    {
      "midi": 49,
      "hit": false,
      "t": 88016.42800000003,
      "d": 495.8671999999933,
      "v": 66
    },
    {
      "midi": 54,
      "hit": false,
      "t": 88429.65066666668,
      "d": 635.3298499999946,
      "v": 68
    },
    {
      "midi": 58,
      "hit": false,
      "t": 88429.65066666668,
      "d": 702.4785333333275,
      "v": 64
    },
    {
      "midi": 49,
      "hit": false,
      "t": 88636.26200000002,
      "d": 495.8671999999933,
      "v": 70
    },
    {
      "midi": 61,
      "hit": false,
      "t": 88636.26200000002,
      "d": 573.3464499999973,
      "v": 63
    },
    {
      "midi": 54,
      "hit": false,
      "t": 89256.09600000002,
      "d": 480.37135000000126,
      "v": 65
    },
    {
      "midi": 49,
      "hit": false,
      "t": 89256.09600000002,
      "d": 495.86720000000787,
      "v": 63
    },
    {
      "midi": 58,
      "hit": false,
      "t": 89256.09600000002,
      "d": 516.5283333333355,
      "v": 63
    },
    {
      "midi": 58,
      "hit": false,
      "t": 89875.93000000002,
      "d": 320.24756666667236,
      "v": 67
    },
    {
      "midi": 54,
      "hit": false,
      "t": 89875.93000000002,
      "d": 439.0490833333315,
      "v": 61
    },
    {
      "midi": 49,
      "hit": false,
      "t": 89875.93000000002,
      "d": 475.2060666666657,
      "v": 63
    },
    {
      "midi": 58,
      "hit": false,
      "t": 90289.15266666669,
      "d": 671.4868333333434,
      "v": 64
    },
    {
      "midi": 49,
      "hit": false,
      "t": 90495.76400000002,
      "d": 444.21436666666705,
      "v": 67
    },
    {
      "midi": 54,
      "hit": false,
      "t": 90495.76400000002,
      "d": 449.3796500000026,
      "v": 64
    },
    {
      "midi": 66,
      "hit": false,
      "t": 90495.76400000002,
      "d": 516.5283333333355,
      "v": 57
    },
    {
      "midi": 61,
      "hit": false,
      "t": 90908.9866666667,
      "d": 686.9826833333354,
      "v": 56
    },
    {
      "midi": 49,
      "hit": false,
      "t": 91115.59800000003,
      "d": 506.1977666666644,
      "v": 65
    },
    {
      "midi": 54,
      "hit": false,
      "t": 91115.59800000003,
      "d": 521.693616666671,
      "v": 62
    },
    {
      "midi": 58,
      "hit": false,
      "t": 91115.59800000003,
      "d": 526.8589000000065,
      "v": 70
    },
    {
      "midi": 49,
      "hit": false,
      "t": 91735.43200000003,
      "d": 464.87549999999464,
      "v": 68
    },
    {
      "midi": 53,
      "hit": false,
      "t": 91735.43200000003,
      "d": 495.8671999999933,
      "v": 68
    },
    {
      "midi": 56,
      "hit": false,
      "t": 91735.43200000003,
      "d": 1151.85818333333,
      "v": 71
    },
    {
      "midi": 65,
      "hit": false,
      "t": 92148.6546666667,
      "d": 702.4785333333275,
      "v": 64
    },
    {
      "midi": 53,
      "hit": false,
      "t": 92355.26600000002,
      "d": 423.55323333333945,
      "v": 63
    },
    {
      "midi": 49,
      "hit": false,
      "t": 92355.26600000002,
      "d": 439.04908333334606,
      "v": 72
    },
    {
      "midi": 61,
      "hit": false,
      "t": 92355.26600000002,
      "d": 671.4868333333288,
      "v": 67
    },
    {
      "midi": 56,
      "hit": false,
      "t": 92975.10000000002,
      "d": 294.42114999999467,
      "v": 72
    },
    {
      "midi": 53,
      "hit": false,
      "t": 92975.10000000002,
      "d": 356.404549999992,
      "v": 63
    },
    {
      "midi": 49,
      "hit": false,
      "t": 92975.10000000002,
      "d": 495.8671999999933,
      "v": 66
    },
    {
      "midi": 53,
      "hit": false,
      "t": 93388.32266666667,
      "d": 635.3298499999946,
      "v": 68
    },
    {
      "midi": 56,
      "hit": false,
      "t": 93388.32266666667,
      "d": 702.4785333333275,
      "v": 64
    },
    {
      "midi": 49,
      "hit": false,
      "t": 93594.93400000001,
      "d": 495.8671999999933,
      "v": 70
    },
    {
      "midi": 61,
      "hit": false,
      "t": 93594.93400000001,
      "d": 573.3464499999973,
      "v": 63
    },
    {
      "midi": 53,
      "hit": false,
      "t": 94214.76800000001,
      "d": 480.37135000000126,
      "v": 65
    },
    {
      "midi": 49,
      "hit": false,
      "t": 94214.76800000001,
      "d": 495.86720000000787,
      "v": 63
    },
    {
      "midi": 56,
      "hit": false,
      "t": 94214.76800000001,
      "d": 516.5283333333355,
      "v": 63
    },
    {
      "midi": 56,
      "hit": false,
      "t": 94834.60200000001,
      "d": 320.24756666667236,
      "v": 67
    },
    {
      "midi": 53,
      "hit": false,
      "t": 94834.60200000001,
      "d": 439.0490833333315,
      "v": 61
    },
    {
      "midi": 49,
      "hit": false,
      "t": 94834.60200000001,
      "d": 475.2060666666657,
      "v": 63
    },
    {
      "midi": 56,
      "hit": false,
      "t": 95247.82466666668,
      "d": 671.4868333333434,
      "v": 64
    },
    {
      "midi": 49,
      "hit": false,
      "t": 95454.43600000002,
      "d": 444.21436666666705,
      "v": 67
    },
    {
      "midi": 53,
      "hit": false,
      "t": 95454.43600000002,
      "d": 449.3796500000026,
      "v": 64
    },
    {
      "midi": 65,
      "hit": false,
      "t": 95454.43600000002,
      "d": 516.5283333333355,
      "v": 57
    },
    {
      "midi": 61,
      "hit": false,
      "t": 95867.65866666668,
      "d": 686.9826833333354,
      "v": 56
    },
    {
      "midi": 49,
      "hit": false,
      "t": 96074.27000000002,
      "d": 506.1977666666644,
      "v": 65
    },
    {
      "midi": 53,
      "hit": false,
      "t": 96074.27000000002,
      "d": 521.693616666671,
      "v": 62
    },
    {
      "midi": 56,
      "hit": false,
      "t": 96074.27000000002,
      "d": 526.8589000000065,
      "v": 70
    },
    {
      "midi": 49,
      "hit": false,
      "t": 96694.10400000002,
      "d": 464.87549999999464,
      "v": 68
    },
    {
      "midi": 54,
      "hit": false,
      "t": 96694.10400000002,
      "d": 495.8671999999933,
      "v": 68
    },
    {
      "midi": 58,
      "hit": false,
      "t": 96694.10400000002,
      "d": 495.8671999999933,
      "v": 71
    },
    {
      "midi": 66,
      "hit": false,
      "t": 97107.32666666669,
      "d": 702.4785333333275,
      "v": 64
    },
    {
      "midi": 54,
      "hit": false,
      "t": 97313.93800000001,
      "d": 423.55323333333945,
      "v": 63
    },
    {
      "midi": 49,
      "hit": false,
      "t": 97313.93800000001,
      "d": 439.04908333334606,
      "v": 72
    },
    {
      "midi": 58,
      "hit": false,
      "t": 97313.93800000001,
      "d": 470.04078333334473,
      "v": 67
    },
    {
      "midi": 58,
      "hit": false,
      "t": 97933.77200000001,
      "d": 294.42114999999467,
      "v": 72
    },
    {
      "midi": 54,
      "hit": false,
      "t": 97933.77200000001,
      "d": 356.404549999992,
      "v": 63
    },
    {
      "midi": 49,
      "hit": false,
      "t": 97933.77200000001,
      "d": 495.8671999999933,
      "v": 66
    },
    {
      "midi": 54,
      "hit": false,
      "t": 98346.99466666667,
      "d": 635.3298499999946,
      "v": 68
    },
    {
      "midi": 58,
      "hit": false,
      "t": 98346.99466666667,
      "d": 702.4785333333275,
      "v": 64
    },
    {
      "midi": 49,
      "hit": false,
      "t": 98553.606,
      "d": 495.8671999999933,
      "v": 70
    },
    {
      "midi": 61,
      "hit": false,
      "t": 98553.606,
      "d": 573.3464499999973,
      "v": 63
    },
    {
      "midi": 54,
      "hit": false,
      "t": 99173.44,
      "d": 480.37135000000126,
      "v": 65
    },
    {
      "midi": 49,
      "hit": false,
      "t": 99173.44,
      "d": 495.86720000000787,
      "v": 63
    },
    {
      "midi": 58,
      "hit": false,
      "t": 99173.44,
      "d": 516.5283333333355,
      "v": 63
    },
    {
      "midi": 58,
      "hit": false,
      "t": 99793.274,
      "d": 320.24756666667236,
      "v": 67
    },
    {
      "midi": 54,
      "hit": false,
      "t": 99793.274,
      "d": 439.0490833333315,
      "v": 61
    },
    {
      "midi": 49,
      "hit": false,
      "t": 99793.274,
      "d": 475.2060666666657,
      "v": 63
    },
    {
      "midi": 58,
      "hit": false,
      "t": 100206.49666666667,
      "d": 196.2807666666631,
      "v": 64
    },
    {
      "midi": 56,
      "hit": false,
      "t": 100413.10800000001,
      "d": 449.3796500000026,
      "v": 71
    },
    {
      "midi": 59,
      "hit": false,
      "t": 100413.10800000001,
      "d": 495.86720000000787,
      "v": 70
    },
    {
      "midi": 44,
      "hit": false,
      "t": 100413.10800000001,
      "d": 506.19776666667894,
      "v": 80
    },
    {
      "midi": 61,
      "hit": false,
      "t": 101032.94200000002,
      "d": 495.8671999999933,
      "v": 69
    },
    {
      "midi": 57,
      "hit": false,
      "t": 101032.94200000002,
      "d": 526.858899999992,
      "v": 69
    },
    {
      "midi": 45,
      "hit": false,
      "t": 101032.94200000002,
      "d": 568.1811666666617,
      "v": 66
    },
    {
      "midi": 50,
      "hit": false,
      "t": 101652.77600000001,
      "d": 464.87549999999464,
      "v": 68
    },
    {
      "midi": 53,
      "hit": false,
      "t": 101652.77600000001,
      "d": 495.8671999999933,
      "v": 68
    },
    {
      "midi": 58,
      "hit": false,
      "t": 101652.77600000001,
      "d": 495.8671999999933,
      "v": 72
    },
    {
      "midi": 46,
      "hit": false,
      "t": 101652.77600000001,
      "d": 2257.2288166666403,
      "v": 66
    },
    {
      "midi": 62,
      "hit": false,
      "t": 102065.99866666668,
      "d": 702.478533333313,
      "v": 64
    },
    {
      "midi": 53,
      "hit": false,
      "t": 102272.61,
      "d": 309.9170000000013,
      "v": 63
    },
    {
      "midi": 50,
      "hit": false,
      "t": 102272.61,
      "d": 439.0490833333315,
      "v": 72
    },
    {
      "midi": 58,
      "hit": false,
      "t": 102272.61,
      "d": 470.0407833333302,
      "v": 62
    },
    {
      "midi": 53,
      "hit": false,
      "t": 102685.83266666667,
      "d": 578.5117333333183,
      "v": 63
    },
    {
      "midi": 58,
      "hit": false,
      "t": 102892.44399999999,
      "d": 294.42114999999467,
      "v": 72
    },
    {
      "midi": 50,
      "hit": false,
      "t": 102892.44399999999,
      "d": 495.86720000000787,
      "v": 71
    },
    {
      "midi": 53,
      "hit": false,
      "t": 103305.66666666666,
      "d": 635.3298499999946,
      "v": 68
    },
    {
      "midi": 58,
      "hit": false,
      "t": 103305.66666666666,
      "d": 702.4785333333275,
      "v": 64
    },
    {
      "midi": 50,
      "hit": false,
      "t": 103512.27799999999,
      "d": 495.8671999999933,
      "v": 75
    },
    {
      "midi": 62,
      "hit": false,
      "t": 103512.27799999999,
      "d": 573.3464499999973,
      "v": 63
    },
    {
      "midi": 51,
      "hit": false,
      "t": 104132.112,
      "d": 464.87549999999464,
      "v": 68
    },
    {
      "midi": 54,
      "hit": false,
      "t": 104132.112,
      "d": 495.8671999999933,
      "v": 68
    },
    {
      "midi": 58,
      "hit": false,
      "t": 104132.112,
      "d": 495.8671999999933,
      "v": 72
    },
    {
      "midi": 46,
      "hit": false,
      "t": 104132.112,
      "d": 2277.8899499999825,
      "v": 61
    },
    {
      "midi": 63,
      "hit": false,
      "t": 104545.33466666666,
      "d": 702.478533333313,
      "v": 64
    },
    {
      "midi": 54,
      "hit": false,
      "t": 104751.94599999998,
      "d": 309.9170000000013,
      "v": 63
    },
    {
      "midi": 51,
      "hit": false,
      "t": 104751.94599999998,
      "d": 439.0490833333315,
      "v": 72
    },
    {
      "midi": 58,
      "hit": false,
      "t": 104751.94599999998,
      "d": 470.0407833333302,
      "v": 62
    },
    {
      "midi": 54,
      "hit": false,
      "t": 105165.16866666665,
      "d": 578.5117333333183,
      "v": 63
    },
    {
      "midi": 58,
      "hit": false,
      "t": 105371.77999999997,
      "d": 294.42114999999467,
      "v": 72
    },
    {
      "midi": 51,
      "hit": false,
      "t": 105371.77999999997,
      "d": 495.86720000000787,
      "v": 71
    },
    {
      "midi": 54,
      "hit": false,
      "t": 105785.00266666664,
      "d": 635.3298500000092,
      "v": 68
    },
    {
      "midi": 58,
      "hit": false,
      "t": 105785.00266666664,
      "d": 702.478533333342,
      "v": 64
    },
    {
      "midi": 51,
      "hit": false,
      "t": 105991.61399999997,
      "d": 495.86720000000787,
      "v": 75
    },
    {
      "midi": 63,
      "hit": false,
      "t": 105991.61399999997,
      "d": 573.3464500000118,
      "v": 63
    },
    {
      "midi": 51,
      "hit": false,
      "t": 106611.44799999999,
      "d": 464.87549999999464,
      "v": 68
    },
    {
      "midi": 56,
      "hit": false,
      "t": 106611.44799999999,
      "d": 495.8671999999933,
      "v": 68
    },
    {
      "midi": 60,
      "hit": false,
      "t": 106611.44799999999,
      "d": 495.8671999999933,
      "v": 72
    },
    {
      "midi": 63,
      "hit": false,
      "t": 107024.67066666666,
      "d": 702.478533333313,
      "v": 64
    },
    {
      "midi": 56,
      "hit": false,
      "t": 107231.28199999998,
      "d": 309.9170000000013,
      "v": 63
    },
    {
      "midi": 51,
      "hit": false,
      "t": 107231.28199999998,
      "d": 439.0490833333315,
      "v": 72
    },
    {
      "midi": 60,
      "hit": false,
      "t": 107231.28199999998,
      "d": 470.0407833333302,
      "v": 62
    },
    {
      "midi": 56,
      "hit": false,
      "t": 107644.50466666665,
      "d": 578.5117333333183,
      "v": 63
    },
    {
      "midi": 49,
      "hit": false,
      "t": 107851.11599999997,
      "d": 495.86720000000787,
      "v": 71
    },
    {
      "midi": 59,
      "hit": false,
      "t": 107851.11599999997,
      "d": 542.3547500000132,
      "v": 72
    },
    {
      "midi": 53,
      "hit": false,
      "t": 108264.33866666663,
      "d": 635.3298500000092,
      "v": 68
    },
    {
      "midi": 56,
      "hit": false,
      "t": 108264.33866666663,
      "d": 702.478533333342,
      "v": 64
    },
    {
      "midi": 49,
      "hit": false,
      "t": 108470.94999999998,
      "d": 495.8671999999933,
      "v": 75
    },
    {
      "midi": 61,
      "hit": false,
      "t": 108470.94999999998,
      "d": 573.3464499999973,
      "v": 63
    },
    {
      "midi": 49,
      "hit": false,
      "t": 109090.78399999999,
      "d": 464.87549999999464,
      "v": 68
    },
    {
      "midi": 54,
      "hit": false,
      "t": 109090.78399999999,
      "d": 495.8671999999933,
      "v": 68
    },
    {
      "midi": 58,
      "hit": false,
      "t": 109090.78399999999,
      "d": 495.8671999999933,
      "v": 71
    },
    {
      "midi": 66,
      "hit": false,
      "t": 109504.00666666665,
      "d": 340.9086999999854,
      "v": 64
    },
    {
      "midi": 49,
      "hit": false,
      "t": 109710.61799999997,
      "d": 237.60303333333286,
      "v": 72
    },
    {
      "midi": 54,
      "hit": false,
      "t": 109710.61799999997,
      "d": 237.60303333333286,
      "v": 63
    },
    {
      "midi": 58,
      "hit": false,
      "t": 109710.61799999997,
      "d": 258.26416666666046,
      "v": 67
    },
    {
      "midi": 54,
      "hit": false,
      "t": 110330.45199999996,
      "d": 330.5781333333289,
      "v": 75
    },
    {
      "midi": 58,
      "hit": false,
      "t": 110330.45199999996,
      "d": 340.90869999999995,
      "v": 75
    },
    {
      "midi": 56,
      "hit": false,
      "t": 110743.67466666663,
      "d": 340.90869999999995,
      "v": 79
    },
    {
      "midi": 59,
      "hit": false,
      "t": 110743.67466666663,
      "d": 340.90869999999995,
      "v": 79
    },
    {
      "midi": 57,
      "hit": false,
      "t": 111156.8973333333,
      "d": 299.5864333333302,
      "v": 73
    },
    {
      "midi": 61,
      "hit": false,
      "t": 111156.8973333333,
      "d": 325.41284999999334,
      "v": 72
    },
    {
      "midi": 50,
      "hit": false,
      "t": 111570.11999999995,
      "d": 464.87549999999464,
      "v": 68
    },
    {
      "midi": 53,
      "hit": false,
      "t": 111570.11999999995,
      "d": 495.8671999999933,
      "v": 68
    },
    {
      "midi": 58,
      "hit": false,
      "t": 111570.11999999995,
      "d": 495.8671999999933,
      "v": 72
    },
    {
      "midi": 46,
      "hit": false,
      "t": 111570.11999999995,
      "d": 2257.2288166666403,
      "v": 66
    },
    {
      "midi": 62,
      "hit": false,
      "t": 111983.34266666662,
      "d": 702.478533333313,
      "v": 64
    },
    {
      "midi": 53,
      "hit": false,
      "t": 112189.95399999994,
      "d": 309.9170000000013,
      "v": 63
    },
    {
      "midi": 50,
      "hit": false,
      "t": 112189.95399999994,
      "d": 439.0490833333315,
      "v": 72
    },
    {
      "midi": 58,
      "hit": false,
      "t": 112189.95399999994,
      "d": 470.0407833333302,
      "v": 62
    },
    {
      "midi": 53,
      "hit": false,
      "t": 112603.17666666661,
      "d": 578.5117333333183,
      "v": 63
    },
    {
      "midi": 58,
      "hit": false,
      "t": 112809.78799999993,
      "d": 294.42114999999467,
      "v": 72
    },
    {
      "midi": 50,
      "hit": false,
      "t": 112809.78799999993,
      "d": 495.86720000000787,
      "v": 71
    },
    {
      "midi": 53,
      "hit": false,
      "t": 113223.0106666666,
      "d": 635.3298499999946,
      "v": 68
    },
    {
      "midi": 58,
      "hit": false,
      "t": 113223.0106666666,
      "d": 702.4785333333275,
      "v": 64
    },
    {
      "midi": 50,
      "hit": false,
      "t": 113429.62199999993,
      "d": 495.8671999999933,
      "v": 75
    },
    {
      "midi": 62,
      "hit": false,
      "t": 113429.62199999993,
      "d": 573.3464499999973,
      "v": 63
    },
    {
      "midi": 51,
      "hit": false,
      "t": 114049.45599999993,
      "d": 464.87549999999464,
      "v": 68
    },
    {
      "midi": 54,
      "hit": false,
      "t": 114049.45599999993,
      "d": 495.8671999999933,
      "v": 68
    },
    {
      "midi": 58,
      "hit": false,
      "t": 114049.45599999993,
      "d": 495.8671999999933,
      "v": 72
    },
    {
      "midi": 63,
      "hit": false,
      "t": 114462.6786666666,
      "d": 702.478533333313,
      "v": 64
    },
    {
      "midi": 54,
      "hit": false,
      "t": 114669.28999999992,
      "d": 309.9170000000013,
      "v": 63
    },
    {
      "midi": 51,
      "hit": false,
      "t": 114669.28999999992,
      "d": 439.0490833333315,
      "v": 72
    },
    {
      "midi": 58,
      "hit": false,
      "t": 114669.28999999992,
      "d": 470.0407833333302,
      "v": 62
    },
    {
      "midi": 54,
      "hit": false,
      "t": 115082.51266666659,
      "d": 578.5117333333183,
      "v": 63
    },
    {
      "midi": 58,
      "hit": false,
      "t": 115289.12399999991,
      "d": 294.42114999999467,
      "v": 72
    },
    {
      "midi": 51,
      "hit": false,
      "t": 115289.12399999991,
      "d": 495.86720000000787,
      "v": 71
    },
    {
      "midi": 54,
      "hit": false,
      "t": 115702.34666666658,
      "d": 635.3298499999946,
      "v": 68
    },
    {
      "midi": 58,
      "hit": false,
      "t": 115702.34666666658,
      "d": 702.4785333333275,
      "v": 64
    },
    {
      "midi": 51,
      "hit": false,
      "t": 115908.95799999991,
      "d": 495.8671999999933,
      "v": 75
    },
    {
      "midi": 63,
      "hit": false,
      "t": 115908.95799999991,
      "d": 573.3464499999973,
      "v": 63
    },
    {
      "midi": 51,
      "hit": false,
      "t": 116528.79199999991,
      "d": 464.87549999999464,
      "v": 68
    },
    {
      "midi": 56,
      "hit": false,
      "t": 116528.79199999991,
      "d": 495.8671999999933,
      "v": 68
    },
    {
      "midi": 60,
      "hit": false,
      "t": 116528.79199999991,
      "d": 495.8671999999933,
      "v": 72
    },
    {
      "midi": 63,
      "hit": false,
      "t": 116942.01466666658,
      "d": 702.478533333313,
      "v": 64
    },
    {
      "midi": 56,
      "hit": false,
      "t": 117148.6259999999,
      "d": 309.9170000000013,
      "v": 63
    },
    {
      "midi": 51,
      "hit": false,
      "t": 117148.6259999999,
      "d": 439.0490833333315,
      "v": 72
    },
    {
      "midi": 60,
      "hit": false,
      "t": 117148.6259999999,
      "d": 470.0407833333302,
      "v": 62
    },
    {
      "midi": 56,
      "hit": false,
      "t": 117561.84866666657,
      "d": 578.5117333333183,
      "v": 63
    },
    {
      "midi": 51,
      "hit": false,
      "t": 117768.45999999989,
      "d": 495.86720000000787,
      "v": 71
    },
    {
      "midi": 60,
      "hit": false,
      "t": 117768.45999999989,
      "d": 542.3547500000132,
      "v": 72
    },
    {
      "midi": 56,
      "hit": false,
      "t": 118181.68266666656,
      "d": 702.478533333342,
      "v": 64
    },
    {
      "midi": 51,
      "hit": false,
      "t": 118388.2939999999,
      "d": 495.8671999999933,
      "v": 75
    },
    {
      "midi": 63,
      "hit": false,
      "t": 118388.2939999999,
      "d": 573.3464499999973,
      "v": 63
    },
    {
      "midi": 54,
      "hit": false,
      "t": 118393.45928333324,
      "d": 464.87549999999464,
      "v": 68
    },
    {
      "midi": 49,
      "hit": false,
      "t": 119008.12799999991,
      "d": 464.87549999999464,
      "v": 68
    },
    {
      "midi": 53,
      "hit": false,
      "t": 119008.12799999991,
      "d": 495.8671999999933,
      "v": 68
    },
    {
      "midi": 56,
      "hit": false,
      "t": 119008.12799999991,
      "d": 1151.85818333333,
      "v": 71
    },
    {
      "midi": 65,
      "hit": false,
      "t": 119421.35066666658,
      "d": 702.4785333333275,
      "v": 64
    },
    {
      "midi": 53,
      "hit": false,
      "t": 119627.9619999999,
      "d": 423.55323333333945,
      "v": 63
    },
    {
      "midi": 49,
      "hit": false,
      "t": 119627.9619999999,
      "d": 439.04908333334606,
      "v": 72
    },
    {
      "midi": 61,
      "hit": false,
      "t": 119627.9619999999,
      "d": 671.4868333333288,
      "v": 67
    },
    {
      "midi": 56,
      "hit": false,
      "t": 120247.7959999999,
      "d": 294.42114999999467,
      "v": 72
    },
    {
      "midi": 53,
      "hit": false,
      "t": 120247.7959999999,
      "d": 356.404549999992,
      "v": 63
    },
    {
      "midi": 49,
      "hit": false,
      "t": 120247.7959999999,
      "d": 495.8671999999933,
      "v": 66
    },
    {
      "midi": 53,
      "hit": false,
      "t": 120661.01866666655,
      "d": 635.3298499999946,
      "v": 68
    },
    {
      "midi": 56,
      "hit": false,
      "t": 120661.01866666655,
      "d": 702.4785333333275,
      "v": 64
    },
    {
      "midi": 49,
      "hit": false,
      "t": 120867.62999999989,
      "d": 495.8671999999933,
      "v": 70
    },
    {
      "midi": 61,
      "hit": false,
      "t": 120867.62999999989,
      "d": 573.3464499999973,
      "v": 63
    },
    {
      "midi": 53,
      "hit": false,
      "t": 121487.46399999989,
      "d": 309.9170000000013,
      "v": 65
    },
    {
      "midi": 61,
      "hit": false,
      "t": 121487.46399999989,
      "d": 309.9170000000013,
      "v": 60
    },
    {
      "midi": 49,
      "hit": false,
      "t": 121487.46399999989,
      "d": 346.0739833333355,
      "v": 63
    },
    {
      "midi": 56,
      "hit": false,
      "t": 121487.46399999989,
      "d": 361.5698333333421,
      "v": 63
    },
    {
      "midi": 61,
      "hit": false,
      "t": 121900.68666666656,
      "d": 661.1562666666723,
      "v": 77
    },
    {
      "midi": 49,
      "hit": false,
      "t": 121900.68666666656,
      "d": 733.4702333333407,
      "v": 63
    },
    {
      "midi": 53,
      "hit": false,
      "t": 121900.68666666656,
      "d": 754.1313666666683,
      "v": 61
    },
    {
      "midi": 56,
      "hit": false,
      "t": 121900.68666666656,
      "d": 754.1313666666683,
      "v": 67
    },
    {
      "midi": 49,
      "hit": false,
      "t": 122727.1319999999,
      "d": 444.21436666666705,
      "v": 67
    },
    {
      "midi": 54,
      "hit": false,
      "t": 122727.1319999999,
      "d": 449.3796500000026,
      "v": 64
    },
    {
      "midi": 66,
      "hit": false,
      "t": 122727.1319999999,
      "d": 516.5283333333355,
      "v": 57
    },
    {
      "midi": 61,
      "hit": false,
      "t": 123140.35466666656,
      "d": 686.9826833333354,
      "v": 56
    },
    {
      "midi": 49,
      "hit": false,
      "t": 123346.9659999999,
      "d": 506.1977666666644,
      "v": 65
    },
    {
      "midi": 54,
      "hit": false,
      "t": 123346.9659999999,
      "d": 521.693616666671,
      "v": 62
    },
    {
      "midi": 58,
      "hit": false,
      "t": 123346.9659999999,
      "d": 526.8589000000065,
      "v": 70
    },
    {
      "midi": 51,
      "hit": false,
      "t": 123966.7999999999,
      "d": 464.87549999999464,
      "v": 68
    },
    {
      "midi": 54,
      "hit": false,
      "t": 123966.7999999999,
      "d": 495.8671999999933,
      "v": 68
    },
    {
      "midi": 59,
      "hit": false,
      "t": 123966.7999999999,
      "d": 495.8671999999933,
      "v": 72
    },
    {
      "midi": 63,
      "hit": false,
      "t": 124380.02266666657,
      "d": 702.4785333333275,
      "v": 64
    },
    {
      "midi": 54,
      "hit": false,
      "t": 124586.63399999989,
      "d": 423.55323333333945,
      "v": 63
    },
    {
      "midi": 51,
      "hit": false,
      "t": 124586.63399999989,
      "d": 439.04908333334606,
      "v": 72
    },
    {
      "midi": 59,
      "hit": false,
      "t": 124586.63399999989,
      "d": 470.04078333334473,
      "v": 62
    },
    {
      "midi": 59,
      "hit": false,
      "t": 125206.46799999989,
      "d": 294.42114999999467,
      "v": 72
    },
    {
      "midi": 54,
      "hit": false,
      "t": 125206.46799999989,
      "d": 356.404549999992,
      "v": 63
    },
    {
      "midi": 51,
      "hit": false,
      "t": 125206.46799999989,
      "d": 495.8671999999933,
      "v": 71
    },
    {
      "midi": 54,
      "hit": false,
      "t": 125619.69066666655,
      "d": 635.3298499999946,
      "v": 68
    },
    {
      "midi": 59,
      "hit": false,
      "t": 125619.69066666655,
      "d": 702.4785333333275,
      "v": 64
    },
    {
      "midi": 51,
      "hit": false,
      "t": 125826.30199999988,
      "d": 495.8671999999933,
      "v": 75
    },
    {
      "midi": 63,
      "hit": false,
      "t": 125826.30199999988,
      "d": 573.3464499999973,
      "v": 63
    },
    {
      "midi": 54,
      "hit": false,
      "t": 126446.13599999988,
      "d": 480.37135000000126,
      "v": 65
    },
    {
      "midi": 51,
      "hit": false,
      "t": 126446.13599999988,
      "d": 495.86720000000787,
      "v": 63
    },
    {
      "midi": 59,
      "hit": false,
      "t": 126446.13599999988,
      "d": 516.5283333333355,
      "v": 63
    },
    {
      "midi": 59,
      "hit": false,
      "t": 127065.96999999988,
      "d": 320.24756666667236,
      "v": 72
    },
    {
      "midi": 54,
      "hit": false,
      "t": 127065.96999999988,
      "d": 439.0490833333315,
      "v": 61
    },
    {
      "midi": 51,
      "hit": false,
      "t": 127065.96999999988,
      "d": 475.2060666666657,
      "v": 63
    },
    {
      "midi": 59,
      "hit": false,
      "t": 127479.19266666655,
      "d": 671.4868333333434,
      "v": 70
    },
    {
      "midi": 63,
      "hit": false,
      "t": 127685.80399999989,
      "d": 423.55323333333945,
      "v": 57
    },
    {
      "midi": 51,
      "hit": false,
      "t": 127685.80399999989,
      "d": 444.21436666666705,
      "v": 67
    },
    {
      "midi": 54,
      "hit": false,
      "t": 127685.80399999989,
      "d": 449.3796500000026,
      "v": 64
    },
    {
      "midi": 63,
      "hit": false,
      "t": 128305.63799999989,
      "d": 454.5449333333381,
      "v": 56
    },
    {
      "midi": 51,
      "hit": false,
      "t": 128305.63799999989,
      "d": 506.1977666666644,
      "v": 70
    },
    {
      "midi": 54,
      "hit": false,
      "t": 128305.63799999989,
      "d": 521.693616666671,
      "v": 62
    },
    {
      "midi": 59,
      "hit": false,
      "t": 128305.63799999989,
      "d": 526.8589000000065,
      "v": 73
    },
    {
      "midi": 49,
      "hit": false,
      "t": 128925.47199999989,
      "d": 464.87549999999464,
      "v": 68
    },
    {
      "midi": 54,
      "hit": false,
      "t": 128925.47199999989,
      "d": 495.8671999999933,
      "v": 68
    },
    {
      "midi": 58,
      "hit": false,
      "t": 128925.47199999989,
      "d": 495.8671999999933,
      "v": 71
    },
    {
      "midi": 66,
      "hit": false,
      "t": 129338.69466666656,
      "d": 702.4785333333275,
      "v": 64
    },
    {
      "midi": 54,
      "hit": false,
      "t": 129545.30599999988,
      "d": 423.55323333333945,
      "v": 63
    },
    {
      "midi": 49,
      "hit": false,
      "t": 129545.30599999988,
      "d": 439.04908333334606,
      "v": 72
    },
    {
      "midi": 58,
      "hit": false,
      "t": 129545.30599999988,
      "d": 470.04078333334473,
      "v": 67
    },
    {
      "midi": 58,
      "hit": false,
      "t": 130165.13999999988,
      "d": 294.42114999999467,
      "v": 72
    },
    {
      "midi": 54,
      "hit": false,
      "t": 130165.13999999988,
      "d": 356.404549999992,
      "v": 63
    },
    {
      "midi": 49,
      "hit": false,
      "t": 130165.13999999988,
      "d": 495.8671999999933,
      "v": 66
    },
    {
      "midi": 54,
      "hit": false,
      "t": 130578.36266666654,
      "d": 635.3298500000092,
      "v": 68
    },
    {
      "midi": 58,
      "hit": false,
      "t": 130578.36266666654,
      "d": 702.478533333342,
      "v": 64
    },
    {
      "midi": 49,
      "hit": false,
      "t": 130784.97399999987,
      "d": 495.86720000000787,
      "v": 70
    },
    {
      "midi": 61,
      "hit": false,
      "t": 130784.97399999987,
      "d": 573.3464500000118,
      "v": 63
    },
    {
      "midi": 54,
      "hit": false,
      "t": 131404.80799999987,
      "d": 480.37135000000126,
      "v": 65
    },
    {
      "midi": 49,
      "hit": false,
      "t": 131404.80799999987,
      "d": 495.86720000000787,
      "v": 63
    },
    {
      "midi": 58,
      "hit": false,
      "t": 131404.80799999987,
      "d": 516.52833333335,
      "v": 63
    },
    {
      "midi": 58,
      "hit": false,
      "t": 132024.64199999988,
      "d": 320.2475666666578,
      "v": 67
    },
    {
      "midi": 54,
      "hit": false,
      "t": 132024.64199999988,
      "d": 439.04908333334606,
      "v": 61
    },
    {
      "midi": 49,
      "hit": false,
      "t": 132024.64199999988,
      "d": 475.2060666666657,
      "v": 63
    },
    {
      "midi": 58,
      "hit": false,
      "t": 132437.86466666654,
      "d": 671.4868333333579,
      "v": 64
    },
    {
      "midi": 49,
      "hit": false,
      "t": 132644.47599999988,
      "d": 444.2143666666816,
      "v": 67
    },
    {
      "midi": 54,
      "hit": false,
      "t": 132644.47599999988,
      "d": 449.37965000001714,
      "v": 64
    },
    {
      "midi": 66,
      "hit": false,
      "t": 132644.47599999988,
      "d": 516.52833333335,
      "v": 57
    },
    {
      "midi": 61,
      "hit": false,
      "t": 133057.69866666655,
      "d": 686.9826833333354,
      "v": 56
    },
    {
      "midi": 49,
      "hit": false,
      "t": 133264.30999999988,
      "d": 506.19776666667894,
      "v": 65
    },
    {
      "midi": 54,
      "hit": false,
      "t": 133264.30999999988,
      "d": 521.6936166666856,
      "v": 62
    },
    {
      "midi": 58,
      "hit": false,
      "t": 133264.30999999988,
      "d": 526.8589000000211,
      "v": 70
    },
    {
      "midi": 49,
      "hit": false,
      "t": 133884.1439999999,
      "d": 464.87549999999464,
      "v": 68
    },
    {
      "midi": 53,
      "hit": false,
      "t": 133884.1439999999,
      "d": 495.86720000000787,
      "v": 68
    },
    {
      "midi": 56,
      "hit": false,
      "t": 133884.1439999999,
      "d": 1151.85818333333,
      "v": 71
    },
    {
      "midi": 65,
      "hit": false,
      "t": 134297.36666666658,
      "d": 702.478533333342,
      "v": 64
    },
    {
      "midi": 53,
      "hit": false,
      "t": 134503.97799999992,
      "d": 423.55323333333945,
      "v": 63
    },
    {
      "midi": 49,
      "hit": false,
      "t": 134503.97799999992,
      "d": 439.04908333334606,
      "v": 72
    },
    {
      "midi": 61,
      "hit": false,
      "t": 134503.97799999992,
      "d": 671.4868333333288,
      "v": 67
    },
    {
      "midi": 56,
      "hit": false,
      "t": 135123.81199999992,
      "d": 294.4211499999801,
      "v": 72
    },
    {
      "midi": 53,
      "hit": false,
      "t": 135123.81199999992,
      "d": 356.40454999997746,
      "v": 63
    },
    {
      "midi": 49,
      "hit": false,
      "t": 135123.81199999992,
      "d": 495.86719999997877,
      "v": 66
    },
    {
      "midi": 53,
      "hit": false,
      "t": 135537.03466666656,
      "d": 635.3298500000092,
      "v": 68
    },
    {
      "midi": 56,
      "hit": false,
      "t": 135537.03466666656,
      "d": 702.478533333342,
      "v": 64
    },
    {
      "midi": 49,
      "hit": false,
      "t": 135743.6459999999,
      "d": 495.86720000000787,
      "v": 70
    },
    {
      "midi": 61,
      "hit": false,
      "t": 135743.6459999999,
      "d": 573.3464500000118,
      "v": 63
    },
    {
      "midi": 53,
      "hit": false,
      "t": 136363.4799999999,
      "d": 480.37135000000126,
      "v": 65
    },
    {
      "midi": 49,
      "hit": false,
      "t": 136363.4799999999,
      "d": 495.86720000000787,
      "v": 63
    },
    {
      "midi": 56,
      "hit": false,
      "t": 136363.4799999999,
      "d": 516.52833333335,
      "v": 63
    },
    {
      "midi": 56,
      "hit": false,
      "t": 136983.3139999999,
      "d": 320.2475666666578,
      "v": 67
    },
    {
      "midi": 53,
      "hit": false,
      "t": 136983.3139999999,
      "d": 439.04908333334606,
      "v": 61
    },
    {
      "midi": 49,
      "hit": false,
      "t": 136983.3139999999,
      "d": 475.2060666666657,
      "v": 63
    },
    {
      "midi": 56,
      "hit": false,
      "t": 137396.53666666656,
      "d": 671.4868333333579,
      "v": 64
    },
    {
      "midi": 49,
      "hit": false,
      "t": 137603.1479999999,
      "d": 444.2143666666816,
      "v": 67
    },
    {
      "midi": 53,
      "hit": false,
      "t": 137603.1479999999,
      "d": 449.37965000001714,
      "v": 64
    },
    {
      "midi": 65,
      "hit": false,
      "t": 137603.1479999999,
      "d": 516.52833333335,
      "v": 57
    },
    {
      "midi": 61,
      "hit": false,
      "t": 138016.37066666657,
      "d": 686.9826833333354,
      "v": 56
    },
    {
      "midi": 49,
      "hit": false,
      "t": 138222.9819999999,
      "d": 506.19776666667894,
      "v": 65
    },
    {
      "midi": 53,
      "hit": false,
      "t": 138222.9819999999,
      "d": 521.6936166666856,
      "v": 62
    },
    {
      "midi": 56,
      "hit": false,
      "t": 138222.9819999999,
      "d": 526.8589000000211,
      "v": 70
    },
    {
      "midi": 49,
      "hit": false,
      "t": 138842.81599999993,
      "d": 464.87549999999464,
      "v": 68
    },
    {
      "midi": 54,
      "hit": false,
      "t": 138842.81599999993,
      "d": 495.86720000000787,
      "v": 68
    },
    {
      "midi": 58,
      "hit": false,
      "t": 138842.81599999993,
      "d": 495.86720000000787,
      "v": 71
    },
    {
      "midi": 66,
      "hit": false,
      "t": 139256.0386666666,
      "d": 702.4785333333712,
      "v": 64
    },
    {
      "midi": 54,
      "hit": false,
      "t": 139462.64999999994,
      "d": 423.55323333333945,
      "v": 63
    },
    {
      "midi": 49,
      "hit": false,
      "t": 139462.64999999994,
      "d": 439.04908333334606,
      "v": 72
    },
    {
      "midi": 58,
      "hit": false,
      "t": 139462.64999999994,
      "d": 470.0407833333593,
      "v": 67
    },
    {
      "midi": 58,
      "hit": false,
      "t": 140082.48399999997,
      "d": 294.4211500000092,
      "v": 72
    },
    {
      "midi": 54,
      "hit": false,
      "t": 140082.48399999997,
      "d": 356.40455000000657,
      "v": 63
    },
    {
      "midi": 49,
      "hit": false,
      "t": 140082.48399999997,
      "d": 495.86720000000787,
      "v": 66
    },
    {
      "midi": 54,
      "hit": false,
      "t": 140495.70666666664,
      "d": 635.3298500000092,
      "v": 68
    },
    {
      "midi": 58,
      "hit": false,
      "t": 140495.70666666664,
      "d": 702.478533333342,
      "v": 64
    },
    {
      "midi": 49,
      "hit": false,
      "t": 140702.31799999997,
      "d": 495.86720000000787,
      "v": 70
    },
    {
      "midi": 61,
      "hit": false,
      "t": 140702.31799999997,
      "d": 573.3464500000118,
      "v": 63
    },
    {
      "midi": 54,
      "hit": false,
      "t": 141322.15199999997,
      "d": 480.37135000000126,
      "v": 65
    },
    {
      "midi": 49,
      "hit": false,
      "t": 141322.15199999997,
      "d": 495.86720000000787,
      "v": 63
    },
    {
      "midi": 58,
      "hit": false,
      "t": 141322.15199999997,
      "d": 516.52833333335,
      "v": 63
    },
    {
      "midi": 58,
      "hit": false,
      "t": 141941.98599999998,
      "d": 320.2475666666578,
      "v": 67
    },
    {
      "midi": 54,
      "hit": false,
      "t": 141941.98599999998,
      "d": 439.04908333334606,
      "v": 61
    },
    {
      "midi": 49,
      "hit": false,
      "t": 141941.98599999998,
      "d": 475.2060666666657,
      "v": 63
    },
    {
      "midi": 58,
      "hit": false,
      "t": 142355.20866666664,
      "d": 671.4868333333579,
      "v": 64
    },
    {
      "midi": 49,
      "hit": false,
      "t": 142561.81999999998,
      "d": 444.2143666666816,
      "v": 67
    },
    {
      "midi": 54,
      "hit": false,
      "t": 142561.81999999998,
      "d": 449.37965000001714,
      "v": 64
    },
    {
      "midi": 66,
      "hit": false,
      "t": 142561.81999999998,
      "d": 516.52833333335,
      "v": 57
    },
    {
      "midi": 61,
      "hit": false,
      "t": 142975.04266666665,
      "d": 686.9826833333354,
      "v": 56
    },
    {
      "midi": 49,
      "hit": false,
      "t": 143181.65399999998,
      "d": 506.19776666667894,
      "v": 65
    },
    {
      "midi": 54,
      "hit": false,
      "t": 143181.65399999998,
      "d": 521.6936166666856,
      "v": 62
    },
    {
      "midi": 58,
      "hit": false,
      "t": 143181.65399999998,
      "d": 526.8589000000211,
      "v": 70
    },
    {
      "midi": 51,
      "hit": false,
      "t": 143801.488,
      "d": 464.87549999999464,
      "v": 68
    },
    {
      "midi": 54,
      "hit": false,
      "t": 143801.488,
      "d": 495.86720000000787,
      "v": 68
    },
    {
      "midi": 59,
      "hit": false,
      "t": 143801.488,
      "d": 495.86720000000787,
      "v": 72
    },
    {
      "midi": 63,
      "hit": false,
      "t": 144214.71066666668,
      "d": 702.4785333333712,
      "v": 64
    },
    {
      "midi": 54,
      "hit": false,
      "t": 144421.32200000001,
      "d": 423.55323333333945,
      "v": 63
    },
    {
      "midi": 51,
      "hit": false,
      "t": 144421.32200000001,
      "d": 439.04908333334606,
      "v": 72
    },
    {
      "midi": 59,
      "hit": false,
      "t": 144421.32200000001,
      "d": 470.0407833333593,
      "v": 62
    },
    {
      "midi": 59,
      "hit": false,
      "t": 145041.15600000005,
      "d": 294.4211500000092,
      "v": 72
    },
    {
      "midi": 54,
      "hit": false,
      "t": 145041.15600000005,
      "d": 356.40455000000657,
      "v": 63
    },
    {
      "midi": 51,
      "hit": false,
      "t": 145041.15600000005,
      "d": 495.86720000000787,
      "v": 71
    },
    {
      "midi": 54,
      "hit": false,
      "t": 145454.37866666671,
      "d": 635.3298500000092,
      "v": 68
    },
    {
      "midi": 59,
      "hit": false,
      "t": 145454.37866666671,
      "d": 702.478533333342,
      "v": 64
    },
    {
      "midi": 51,
      "hit": false,
      "t": 145660.99000000005,
      "d": 495.86720000000787,
      "v": 75
    },
    {
      "midi": 63,
      "hit": false,
      "t": 145660.99000000005,
      "d": 573.3464500000118,
      "v": 63
    },
    {
      "midi": 54,
      "hit": false,
      "t": 146280.82400000005,
      "d": 480.37135000000126,
      "v": 65
    },
    {
      "midi": 51,
      "hit": false,
      "t": 146280.82400000005,
      "d": 495.86720000000787,
      "v": 63
    },
    {
      "midi": 59,
      "hit": false,
      "t": 146280.82400000005,
      "d": 516.52833333335,
      "v": 63
    },
    {
      "midi": 59,
      "hit": false,
      "t": 146900.65800000005,
      "d": 320.2475666666578,
      "v": 72
    },
    {
      "midi": 54,
      "hit": false,
      "t": 146900.65800000005,
      "d": 439.04908333334606,
      "v": 61
    },
    {
      "midi": 51,
      "hit": false,
      "t": 146900.65800000005,
      "d": 475.2060666666657,
      "v": 63
    },
    {
      "midi": 59,
      "hit": false,
      "t": 147313.88066666672,
      "d": 671.4868333333579,
      "v": 70
    },
    {
      "midi": 63,
      "hit": false,
      "t": 147520.49200000006,
      "d": 423.55323333333945,
      "v": 57
    },
    {
      "midi": 51,
      "hit": false,
      "t": 147520.49200000006,
      "d": 444.2143666666816,
      "v": 67
    },
    {
      "midi": 54,
      "hit": false,
      "t": 147520.49200000006,
      "d": 449.37965000001714,
      "v": 64
    },
    {
      "midi": 63,
      "hit": false,
      "t": 148140.3260000001,
      "d": 454.54493333332357,
      "v": 56
    },
    {
      "midi": 51,
      "hit": false,
      "t": 148140.3260000001,
      "d": 506.19776666664984,
      "v": 70
    },
    {
      "midi": 54,
      "hit": false,
      "t": 148140.3260000001,
      "d": 521.6936166666565,
      "v": 62
    },
    {
      "midi": 59,
      "hit": false,
      "t": 148140.3260000001,
      "d": 526.858899999992,
      "v": 73
    },
    {
      "midi": 49,
      "hit": false,
      "t": 148760.1600000001,
      "d": 464.87549999999464,
      "v": 68
    },
    {
      "midi": 54,
      "hit": false,
      "t": 148760.1600000001,
      "d": 495.86720000000787,
      "v": 68
    },
    {
      "midi": 58,
      "hit": false,
      "t": 148760.1600000001,
      "d": 495.86720000000787,
      "v": 71
    },
    {
      "midi": 66,
      "hit": false,
      "t": 149173.38266666676,
      "d": 702.4785333333712,
      "v": 64
    },
    {
      "midi": 54,
      "hit": false,
      "t": 149379.9940000001,
      "d": 423.55323333333945,
      "v": 63
    },
    {
      "midi": 49,
      "hit": false,
      "t": 149379.9940000001,
      "d": 439.04908333334606,
      "v": 72
    },
    {
      "midi": 58,
      "hit": false,
      "t": 149379.9940000001,
      "d": 470.0407833333593,
      "v": 67
    },
    {
      "midi": 58,
      "hit": false,
      "t": 149999.82800000013,
      "d": 294.4211500000092,
      "v": 72
    },
    {
      "midi": 50,
      "hit": false,
      "t": 149999.82800000013,
      "d": 495.86720000000787,
      "v": 66
    },
    {
      "midi": 53,
      "hit": false,
      "t": 149999.82800000013,
      "d": 532.0241833333275,
      "v": 63
    },
    {
      "midi": 58,
      "hit": false,
      "t": 150413.0506666668,
      "d": 702.478533333342,
      "v": 64
    },
    {
      "midi": 50,
      "hit": false,
      "t": 150619.66200000013,
      "d": 495.86720000000787,
      "v": 70
    },
    {
      "midi": 62,
      "hit": false,
      "t": 150619.66200000013,
      "d": 573.3464500000118,
      "v": 63
    },
    {
      "midi": 53,
      "hit": false,
      "t": 150624.82728333346,
      "d": 547.5200333333341,
      "v": 68
    },
    {
      "midi": 54,
      "hit": false,
      "t": 151239.49600000013,
      "d": 480.37135000000126,
      "v": 65
    },
    {
      "midi": 51,
      "hit": false,
      "t": 151239.49600000013,
      "d": 495.86720000000787,
      "v": 63
    },
    {
      "midi": 58,
      "hit": false,
      "t": 151239.49600000013,
      "d": 516.52833333335,
      "v": 63
    },
    {
      "midi": 58,
      "hit": false,
      "t": 151859.33000000013,
      "d": 320.2475666666578,
      "v": 67
    },
    {
      "midi": 54,
      "hit": false,
      "t": 151859.33000000013,
      "d": 439.04908333334606,
      "v": 61
    },
    {
      "midi": 51,
      "hit": false,
      "t": 151859.33000000013,
      "d": 475.2060666666657,
      "v": 63
    },
    {
      "midi": 58,
      "hit": false,
      "t": 152272.5526666668,
      "d": 671.4868333333579,
      "v": 64
    },
    {
      "midi": 49,
      "hit": false,
      "t": 152479.16400000014,
      "d": 444.2143666666816,
      "v": 67
    },
    {
      "midi": 54,
      "hit": false,
      "t": 152479.16400000014,
      "d": 449.37965000001714,
      "v": 64
    },
    {
      "midi": 66,
      "hit": false,
      "t": 152479.16400000014,
      "d": 516.52833333335,
      "v": 57
    },
    {
      "midi": 61,
      "hit": false,
      "t": 152892.3866666668,
      "d": 686.9826833333354,
      "v": 56
    },
    {
      "midi": 51,
      "hit": false,
      "t": 153098.99800000014,
      "d": 506.19776666667894,
      "v": 65
    },
    {
      "midi": 54,
      "hit": false,
      "t": 153098.99800000014,
      "d": 521.6936166666856,
      "v": 62
    },
    {
      "midi": 58,
      "hit": false,
      "t": 153098.99800000014,
      "d": 526.8589000000211,
      "v": 70
    },
    {
      "midi": 54,
      "hit": false,
      "t": 153718.83200000017,
      "d": 480.37135000000126,
      "v": 65
    },
    {
      "midi": 51,
      "hit": false,
      "t": 153718.83200000017,
      "d": 495.86720000000787,
      "v": 63
    },
    {
      "midi": 59,
      "hit": false,
      "t": 153718.83200000017,
      "d": 516.52833333335,
      "v": 63
    },
    {
      "midi": 59,
      "hit": false,
      "t": 154338.66600000017,
      "d": 320.2475666666578,
      "v": 72
    },
    {
      "midi": 54,
      "hit": false,
      "t": 154338.66600000017,
      "d": 439.04908333334606,
      "v": 61
    },
    {
      "midi": 51,
      "hit": false,
      "t": 154338.66600000017,
      "d": 475.2060666666657,
      "v": 63
    },
    {
      "midi": 59,
      "hit": false,
      "t": 154751.88866666684,
      "d": 671.4868333333579,
      "v": 70
    },
    {
      "midi": 63,
      "hit": false,
      "t": 154958.50000000017,
      "d": 423.55323333333945,
      "v": 57
    },
    {
      "midi": 51,
      "hit": false,
      "t": 154958.50000000017,
      "d": 444.2143666666816,
      "v": 67
    },
    {
      "midi": 54,
      "hit": false,
      "t": 154958.50000000017,
      "d": 449.37965000001714,
      "v": 64
    },
    {
      "midi": 63,
      "hit": false,
      "t": 155578.3340000002,
      "d": 454.54493333332357,
      "v": 56
    },
    {
      "midi": 51,
      "hit": false,
      "t": 155578.3340000002,
      "d": 506.19776666664984,
      "v": 70
    },
    {
      "midi": 54,
      "hit": false,
      "t": 155578.3340000002,
      "d": 521.6936166666565,
      "v": 62
    },
    {
      "midi": 59,
      "hit": false,
      "t": 155578.3340000002,
      "d": 526.858899999992,
      "v": 73
    },
    {
      "midi": 53,
      "hit": false,
      "t": 156198.1680000002,
      "d": 480.37135000000126,
      "v": 65
    },
    {
      "midi": 61,
      "hit": false,
      "t": 156198.1680000002,
      "d": 495.86720000000787,
      "v": 63
    },
    {
      "midi": 56,
      "hit": false,
      "t": 156198.1680000002,
      "d": 516.52833333335,
      "v": 63
    },
    {
      "midi": 56,
      "hit": false,
      "t": 156818.0020000002,
      "d": 320.2475666666578,
      "v": 67
    },
    {
      "midi": 53,
      "hit": false,
      "t": 156818.0020000002,
      "d": 439.04908333334606,
      "v": 61
    },
    {
      "midi": 49,
      "hit": false,
      "t": 156818.0020000002,
      "d": 475.2060666666657,
      "v": 63
    },
    {
      "midi": 56,
      "hit": false,
      "t": 157231.22466666688,
      "d": 671.4868333333579,
      "v": 64
    },
    {
      "midi": 49,
      "hit": false,
      "t": 157437.8360000002,
      "d": 444.2143666666816,
      "v": 67
    },
    {
      "midi": 53,
      "hit": false,
      "t": 157437.8360000002,
      "d": 449.37965000001714,
      "v": 64
    },
    {
      "midi": 65,
      "hit": false,
      "t": 157437.8360000002,
      "d": 516.52833333335,
      "v": 57
    },
    {
      "midi": 61,
      "hit": false,
      "t": 157851.05866666688,
      "d": 686.9826833333354,
      "v": 56
    },
    {
      "midi": 49,
      "hit": false,
      "t": 158057.67000000022,
      "d": 506.19776666667894,
      "v": 65
    },
    {
      "midi": 53,
      "hit": false,
      "t": 158057.67000000022,
      "d": 521.6936166666856,
      "v": 62
    },
    {
      "midi": 56,
      "hit": false,
      "t": 158057.67000000022,
      "d": 526.8589000000211,
      "v": 70
    },
    {
      "midi": 49,
      "hit": false,
      "t": 158677.50400000025,
      "d": 464.87549999999464,
      "v": 68
    },
    {
      "midi": 54,
      "hit": false,
      "t": 158677.50400000025,
      "d": 495.86720000000787,
      "v": 68
    },
    {
      "midi": 58,
      "hit": false,
      "t": 158677.50400000025,
      "d": 495.86720000000787,
      "v": 71
    },
    {
      "midi": 66,
      "hit": false,
      "t": 159090.72666666692,
      "d": 702.4785333333712,
      "v": 64
    },
    {
      "midi": 54,
      "hit": false,
      "t": 159297.33800000025,
      "d": 423.55323333333945,
      "v": 63
    },
    {
      "midi": 49,
      "hit": false,
      "t": 159297.33800000025,
      "d": 439.04908333334606,
      "v": 72
    },
    {
      "midi": 58,
      "hit": false,
      "t": 159297.33800000025,
      "d": 470.0407833333593,
      "v": 67
    },
    {
      "midi": 58,
      "hit": false,
      "t": 159917.17200000028,
      "d": 294.4211500000092,
      "v": 72
    },
    {
      "midi": 54,
      "hit": false,
      "t": 159917.17200000028,
      "d": 356.40455000000657,
      "v": 63
    },
    {
      "midi": 49,
      "hit": false,
      "t": 159917.17200000028,
      "d": 495.86720000000787,
      "v": 66
    },
    {
      "midi": 54,
      "hit": false,
      "t": 160330.39466666695,
      "d": 635.3298500000092,
      "v": 68
    },
    {
      "midi": 58,
      "hit": false,
      "t": 160330.39466666695,
      "d": 702.478533333342,
      "v": 64
    },
    {
      "midi": 49,
      "hit": false,
      "t": 160537.00600000028,
      "d": 495.86720000000787,
      "v": 70
    },
    {
      "midi": 61,
      "hit": false,
      "t": 160537.00600000028,
      "d": 573.3464500000118,
      "v": 63
    },
    {
      "midi": 54,
      "hit": false,
      "t": 161156.8400000003,
      "d": 480.37135000000126,
      "v": 65
    },
    {
      "midi": 49,
      "hit": false,
      "t": 161156.8400000003,
      "d": 495.86720000000787,
      "v": 63
    },
    {
      "midi": 58,
      "hit": false,
      "t": 161156.8400000003,
      "d": 516.52833333335,
      "v": 63
    },
    {
      "midi": 58,
      "hit": false,
      "t": 161776.6740000003,
      "d": 320.2475666666578,
      "v": 67
    },
    {
      "midi": 54,
      "hit": false,
      "t": 161776.6740000003,
      "d": 439.04908333334606,
      "v": 61
    },
    {
      "midi": 49,
      "hit": false,
      "t": 161776.6740000003,
      "d": 475.2060666666657,
      "v": 63
    },
    {
      "midi": 58,
      "hit": false,
      "t": 162189.89666666696,
      "d": 671.4868333333579,
      "v": 64
    },
    {
      "midi": 49,
      "hit": false,
      "t": 162396.5080000003,
      "d": 444.2143666666816,
      "v": 67
    },
    {
      "midi": 54,
      "hit": false,
      "t": 162396.5080000003,
      "d": 449.37965000001714,
      "v": 64
    },
    {
      "midi": 66,
      "hit": false,
      "t": 162396.5080000003,
      "d": 516.52833333335,
      "v": 57
    },
    {
      "midi": 61,
      "hit": false,
      "t": 162809.73066666696,
      "d": 686.9826833333354,
      "v": 56
    },
    {
      "midi": 49,
      "hit": false,
      "t": 163016.3420000003,
      "d": 506.19776666667894,
      "v": 65
    },
    {
      "midi": 54,
      "hit": false,
      "t": 163016.3420000003,
      "d": 521.6936166666856,
      "v": 62
    },
    {
      "midi": 58,
      "hit": false,
      "t": 163016.3420000003,
      "d": 526.8589000000211,
      "v": 70
    },
    {
      "midi": 51,
      "hit": false,
      "t": 163636.17600000033,
      "d": 464.87549999999464,
      "v": 68
    },
    {
      "midi": 54,
      "hit": false,
      "t": 163636.17600000033,
      "d": 495.86720000000787,
      "v": 68
    },
    {
      "midi": 59,
      "hit": false,
      "t": 163636.17600000033,
      "d": 495.86720000000787,
      "v": 72
    },
    {
      "midi": 63,
      "hit": false,
      "t": 164049.398666667,
      "d": 702.4785333333712,
      "v": 64
    },
    {
      "midi": 54,
      "hit": false,
      "t": 164256.01000000033,
      "d": 423.55323333333945,
      "v": 63
    },
    {
      "midi": 51,
      "hit": false,
      "t": 164256.01000000033,
      "d": 439.04908333334606,
      "v": 72
    },
    {
      "midi": 59,
      "hit": false,
      "t": 164256.01000000033,
      "d": 470.0407833333593,
      "v": 62
    },
    {
      "midi": 59,
      "hit": false,
      "t": 164875.84400000036,
      "d": 294.4211500000092,
      "v": 72
    },
    {
      "midi": 54,
      "hit": false,
      "t": 164875.84400000036,
      "d": 356.40455000000657,
      "v": 63
    },
    {
      "midi": 51,
      "hit": false,
      "t": 164875.84400000036,
      "d": 495.86720000000787,
      "v": 71
    },
    {
      "midi": 54,
      "hit": false,
      "t": 165289.06666666703,
      "d": 635.3298500000092,
      "v": 68
    },
    {
      "midi": 59,
      "hit": false,
      "t": 165289.06666666703,
      "d": 702.478533333342,
      "v": 64
    },
    {
      "midi": 51,
      "hit": false,
      "t": 165495.67800000036,
      "d": 495.86720000000787,
      "v": 75
    },
    {
      "midi": 63,
      "hit": false,
      "t": 165495.67800000036,
      "d": 573.3464500000118,
      "v": 63
    },
    {
      "midi": 49,
      "hit": false,
      "t": 166115.51200000037,
      "d": 6936.975516666658,
      "v": 63
    },
    {
      "midi": 56,
      "hit": false,
      "t": 166115.51200000037,
      "d": 7009.289483333327,
      "v": 65
    },
    {
      "midi": 61,
      "hit": false,
      "t": 166115.51200000037,
      "d": 7009.289483333327,
      "v": 63
    },
    {
      "midi": 65,
      "hit": false,
      "t": 166125.84256666704,
      "d": 7014.454766666662,
      "v": 63
    },
    {
      "midi": 54,
      "hit": false,
      "t": 176291.12016666704,
      "d": 7210.735533333325,
      "v": 61
    },
    {
      "midi": 58,
      "hit": false,
      "t": 176353.10356666704,
      "d": 7148.752133333328,
      "v": 73
    },
    {
      "midi": 66,
      "hit": false,
      "t": 176420.25225000037,
      "d": 7076.4381666666595,
      "v": 64
    },
    {
      "midi": 61,
      "hit": false,
      "t": 176420.25225000037,
      "d": 7081.603449999995,
      "v": 64
    }
  ]
}