{
  "jsonPath": "Jazz/Reggae Fusion/Wayne Marshall/3-preludes-no-2-in-c-sharp-minor.json",
  "path": "Jazz\\Reggae Fusion\\Wayne Marshall\\3 Preludes No 2 in C sharp minor.mid",
  "name": "3 Preludes No 2 in C sharp minor",
  "difficulty": "Advanced",
  "bpm": 69.00009660013524,
  "notes": [
    {
      "midi": 37,
      "hit": false,
      "t": 3387.6764166666667,
      "d": 932.9697083333335,
      "v": 40
    },
    {
      "midi": 52,
      "hit": false,
      "t": 3387.6764166666667,
      "d": 932.9697083333335,
      "v": 40
    },
    {
      "midi": 44,
      "hit": false,
      "t": 4338.762041666667,
      "d": 923.9117500000002,
      "v": 40
    },
    {
      "midi": 53,
      "hit": false,
      "t": 4338.762041666667,
      "d": 923.9117500000002,
      "v": 40
    },
    {
      "midi": 54,
      "hit": false,
      "t": 5280.789708333334,
      "d": 923.9117499999993,
      "v": 40
    },
    {
      "midi": 61,
      "hit": false,
      "t": 5285.3186875,
      "d": 919.3827708333329,
      "v": 40
    },
    {
      "midi": 44,
      "hit": false,
      "t": 6227.346354166666,
      "d": 923.9117500000002,
      "v": 40
    },
    {
      "midi": 52,
      "hit": false,
      "t": 6227.346354166666,
      "d": 923.9117500000002,
      "v": 40
    },
    {
      "midi": 37,
      "hit": false,
      "t": 7169.374020833333,
      "d": 923.9117499999993,
      "v": 40
    },
    {
      "midi": 52,
      "hit": false,
      "t": 7173.902999999999,
      "d": 919.3827708333329,
      "v": 40
    },
    {
      "midi": 44,
      "hit": false,
      "t": 8115.930666666665,
      "d": 919.3827708333338,
      "v": 40
    },
    {
      "midi": 53,
      "hit": false,
      "t": 8115.930666666665,
      "d": 923.9117500000011,
      "v": 40
    },
    {
      "midi": 54,
      "hit": false,
      "t": 9057.958333333334,
      "d": 923.9117499999993,
      "v": 40
    },
    {
      "midi": 61,
      "hit": false,
      "t": 9057.958333333334,
      "d": 923.9117499999993,
      "v": 40
    },
    {
      "midi": 44,
      "hit": false,
      "t": 9999.986,
      "d": 923.9117499999993,
      "v": 40
    },
    {
      "midi": 52,
      "hit": false,
      "t": 9999.986,
      "d": 923.9117499999993,
      "v": 40
    },
    {
      "midi": 37,
      "hit": false,
      "t": 10946.542645833333,
      "d": 923.9117499999993,
      "v": 40
    },
    {
      "midi": 52,
      "hit": false,
      "t": 10946.542645833333,
      "d": 923.9117499999993,
      "v": 40
    },
    {
      "midi": 44,
      "hit": false,
      "t": 11888.5703125,
      "d": 923.9117499999993,
      "v": 40
    },
    {
      "midi": 53,
      "hit": false,
      "t": 11888.5703125,
      "d": 923.9117499999993,
      "v": 40
    },
    {
      "midi": 54,
      "hit": false,
      "t": 12835.126958333332,
      "d": 919.3827708333338,
      "v": 40
    },
    {
      "midi": 61,
      "hit": false,
      "t": 12835.126958333332,
      "d": 919.3827708333338,
      "v": 40
    },
    {
      "midi": 44,
      "hit": false,
      "t": 13777.154625,
      "d": 923.9117499999993,
      "v": 40
    },
    {
      "midi": 52,
      "hit": false,
      "t": 13777.154625,
      "d": 923.9117499999993,
      "v": 40
    },
    {
      "midi": 37,
      "hit": false,
      "t": 14723.711270833332,
      "d": 919.3827708333338,
      "v": 40
    },
    {
      "midi": 52,
      "hit": false,
      "t": 14723.711270833332,
      "d": 919.3827708333338,
      "v": 40
    },
    {
      "midi": 44,
      "hit": false,
      "t": 15665.738937499998,
      "d": 919.3827708333338,
      "v": 40
    },
    {
      "midi": 53,
      "hit": false,
      "t": 15665.738937499998,
      "d": 923.9117499999993,
      "v": 40
    },
    {
      "midi": 54,
      "hit": false,
      "t": 16607.766604166663,
      "d": 923.9117499999993,
      "v": 40
    },
    {
      "midi": 61,
      "hit": false,
      "t": 16607.766604166663,
      "d": 923.9117499999993,
      "v": 40
    },
    {
      "midi": 68,
      "hit": false,
      "t": 17078.780437499998,
      "d": 452.89791666666497,
      "v": 40
    },
    {
      "midi": 71,
      "hit": false,
      "t": 17554.323249999998,
      "d": 452.89791666666497,
      "v": 40
    },
    {
      "midi": 44,
      "hit": false,
      "t": 17554.323249999998,
      "d": 928.4407291666648,
      "v": 40
    },
    {
      "midi": 52,
      "hit": false,
      "t": 17554.323249999998,
      "d": 928.4407291666648,
      "v": 40
    },
    {
      "midi": 68,
      "hit": false,
      "t": 18029.866062499997,
      "d": 452.89791666666497,
      "v": 40
    },
    {
      "midi": 71,
      "hit": false,
      "t": 18505.408874999997,
      "d": 452.89791666666497,
      "v": 40
    },
    {
      "midi": 37,
      "hit": false,
      "t": 18505.408874999997,
      "d": 923.9117499999957,
      "v": 40
    },
    {
      "midi": 52,
      "hit": false,
      "t": 18505.408874999997,
      "d": 923.9117499999957,
      "v": 40
    },
    {
      "midi": 68,
      "hit": false,
      "t": 18976.422708333328,
      "d": 1399.4545624999992,
      "v": 40
    },
    {
      "midi": 44,
      "hit": false,
      "t": 19451.965520833328,
      "d": 919.3827708333338,
      "v": 40
    },
    {
      "midi": 53,
      "hit": false,
      "t": 19451.965520833328,
      "d": 919.3827708333338,
      "v": 40
    },
    {
      "midi": 54,
      "hit": false,
      "t": 20393.993187499993,
      "d": 923.9117499999993,
      "v": 40
    },
    {
      "midi": 61,
      "hit": false,
      "t": 20393.993187499993,
      "d": 923.9117499999993,
      "v": 40
    },
    {
      "midi": 68,
      "hit": false,
      "t": 20865.007020833327,
      "d": 452.89791666666497,
      "v": 40
    },
    {
      "midi": 71,
      "hit": false,
      "t": 21340.549833333327,
      "d": 452.89791666666497,
      "v": 40
    },
    {
      "midi": 44,
      "hit": false,
      "t": 21340.549833333327,
      "d": 923.9117499999957,
      "v": 40
    },
    {
      "midi": 52,
      "hit": false,
      "t": 21340.549833333327,
      "d": 928.4407291666612,
      "v": 40
    },
    {
      "midi": 68,
      "hit": false,
      "t": 21811.563666666658,
      "d": 457.4268958333305,
      "v": 40
    },
    {
      "midi": 71,
      "hit": false,
      "t": 22291.635458333323,
      "d": 452.89791666666497,
      "v": 40
    },
    {
      "midi": 37,
      "hit": false,
      "t": 22291.635458333323,
      "d": 923.9117499999957,
      "v": 40
    },
    {
      "midi": 52,
      "hit": false,
      "t": 22291.635458333323,
      "d": 923.9117499999957,
      "v": 40
    },
    {
      "midi": 68,
      "hit": false,
      "t": 22762.649291666654,
      "d": 1394.92558333333,
      "v": 40
    },
    {
      "midi": 44,
      "hit": false,
      "t": 23233.663124999985,
      "d": 923.9117499999993,
      "v": 40
    },
    {
      "midi": 53,
      "hit": false,
      "t": 23238.19210416665,
      "d": 919.3827708333338,
      "v": 40
    },
    {
      "midi": 54,
      "hit": false,
      "t": 24180.21977083332,
      "d": 923.9117499999993,
      "v": 40
    },
    {
      "midi": 61,
      "hit": false,
      "t": 24180.21977083332,
      "d": 923.9117499999993,
      "v": 40
    },
    {
      "midi": 68,
      "hit": false,
      "t": 24651.233604166653,
      "d": 452.89791666666497,
      "v": 40
    },
    {
      "midi": 71,
      "hit": false,
      "t": 25126.776416666653,
      "d": 452.89791666666497,
      "v": 40
    },
    {
      "midi": 44,
      "hit": false,
      "t": 25126.776416666653,
      "d": 923.9117499999957,
      "v": 40
    },
    {
      "midi": 52,
      "hit": false,
      "t": 25126.776416666653,
      "d": 923.9117499999957,
      "v": 40
    },
    {
      "midi": 68,
      "hit": false,
      "t": 25597.790249999984,
      "d": 457.4268958333305,
      "v": 40
    },
    {
      "midi": 37,
      "hit": false,
      "t": 26073.33306249998,
      "d": 928.4407291666648,
      "v": 40
    },
    {
      "midi": 71,
      "hit": false,
      "t": 26077.862041666645,
      "d": 448.36893749999945,
      "v": 40
    },
    {
      "midi": 52,
      "hit": false,
      "t": 26077.862041666645,
      "d": 923.9117499999993,
      "v": 40
    },
    {
      "midi": 68,
      "hit": false,
      "t": 26548.87587499998,
      "d": 452.89791666666497,
      "v": 40
    },
    {
      "midi": 71,
      "hit": false,
      "t": 27024.41868749998,
      "d": 452.89791666666497,
      "v": 40
    },
    {
      "midi": 44,
      "hit": false,
      "t": 27024.41868749998,
      "d": 923.9117499999957,
      "v": 40
    },
    {
      "midi": 53,
      "hit": false,
      "t": 27024.41868749998,
      "d": 923.9117499999957,
      "v": 40
    },
    {
      "midi": 68,
      "hit": false,
      "t": 27495.43252083331,
      "d": 452.89791666666497,
      "v": 40
    },
    {
      "midi": 71,
      "hit": false,
      "t": 27970.97533333331,
      "d": 452.89791666666497,
      "v": 40
    },
    {
      "midi": 54,
      "hit": false,
      "t": 27970.97533333331,
      "d": 923.9117499999957,
      "v": 40
    },
    {
      "midi": 61,
      "hit": false,
      "t": 27970.97533333331,
      "d": 923.9117499999957,
      "v": 40
    },
    {
      "midi": 68,
      "hit": false,
      "t": 28441.98916666664,
      "d": 452.89791666666497,
      "v": 40
    },
    {
      "midi": 71,
      "hit": false,
      "t": 28917.53197916664,
      "d": 452.89791666666497,
      "v": 40
    },
    {
      "midi": 44,
      "hit": false,
      "t": 28917.53197916664,
      "d": 923.9117499999993,
      "v": 40
    },
    {
      "midi": 52,
      "hit": false,
      "t": 28917.53197916664,
      "d": 928.4407291666648,
      "v": 40
    },
    {
      "midi": 68,
      "hit": false,
      "t": 29393.07479166664,
      "d": 452.89791666666497,
      "v": 40
    },
    {
      "midi": 73,
      "hit": false,
      "t": 29868.61760416664,
      "d": 217.39099999999962,
      "v": 40
    },
    {
      "midi": 37,
      "hit": false,
      "t": 29868.61760416664,
      "d": 923.9117499999957,
      "v": 40
    },
    {
      "midi": 52,
      "hit": false,
      "t": 29868.61760416664,
      "d": 923.9117499999957,
      "v": 40
    },
    {
      "midi": 71,
      "hit": false,
      "t": 30104.124520833306,
      "d": 217.39099999999962,
      "v": 40
    },
    {
      "midi": 68,
      "hit": false,
      "t": 30339.63143749997,
      "d": 1399.4545624999992,
      "v": 40
    },
    {
      "midi": 44,
      "hit": false,
      "t": 30815.17424999997,
      "d": 919.3827708333338,
      "v": 40
    },
    {
      "midi": 53,
      "hit": false,
      "t": 30815.17424999997,
      "d": 923.9117499999993,
      "v": 40
    },
    {
      "midi": 54,
      "hit": false,
      "t": 31761.730895833305,
      "d": 919.3827708333301,
      "v": 40
    },
    {
      "midi": 61,
      "hit": false,
      "t": 31761.730895833305,
      "d": 919.3827708333301,
      "v": 40
    },
    {
      "midi": 73,
      "hit": false,
      "t": 32386.730020833304,
      "d": 611.4121874999983,
      "v": 40
    },
    {
      "midi": 44,
      "hit": false,
      "t": 32703.75856249997,
      "d": 923.9117499999993,
      "v": 40
    },
    {
      "midi": 52,
      "hit": false,
      "t": 32703.75856249997,
      "d": 923.9117499999993,
      "v": 40
    },
    {
      "midi": 73,
      "hit": false,
      "t": 33020.78710416664,
      "d": 611.4121874999983,
      "v": 40
    },
    {
      "midi": 42,
      "hit": false,
      "t": 33650.315208333304,
      "d": 923.9117499999993,
      "v": 40
    },
    {
      "midi": 58,
      "hit": false,
      "t": 33650.315208333304,
      "d": 923.9117499999993,
      "v": 40
    },
    {
      "midi": 73,
      "hit": false,
      "t": 33654.84418749997,
      "d": 919.3827708333338,
      "v": 40
    },
    {
      "midi": 51,
      "hit": false,
      "t": 34596.87185416664,
      "d": 923.9117499999993,
      "v": 40
    },
    {
      "midi": 59,
      "hit": false,
      "t": 34596.87185416664,
      "d": 923.9117499999993,
      "v": 40
    },
    {
      "midi": 78,
      "hit": false,
      "t": 34601.400833333304,
      "d": 919.3827708333338,
      "v": 40
    },
    {
      "midi": 60,
      "hit": false,
      "t": 35543.42849999997,
      "d": 923.9117499999993,
      "v": 40
    },
    {
      "midi": 66,
      "hit": false,
      "t": 35543.42849999997,
      "d": 923.9117499999993,
      "v": 40
    },
    {
      "midi": 82,
      "hit": false,
      "t": 35543.42849999997,
      "d": 923.9117499999993,
      "v": 40
    },
    {
      "midi": 51,
      "hit": false,
      "t": 36489.98514583331,
      "d": 923.9117499999993,
      "v": 40
    },
    {
      "midi": 59,
      "hit": false,
      "t": 36489.98514583331,
      "d": 923.9117499999993,
      "v": 40
    },
    {
      "midi": 78,
      "hit": false,
      "t": 36489.98514583331,
      "d": 923.9117499999993,
      "v": 40
    },
    {
      "midi": 73,
      "hit": false,
      "t": 37436.54179166664,
      "d": 452.8979166666686,
      "v": 40
    },
    {
      "midi": 42,
      "hit": false,
      "t": 37436.54179166664,
      "d": 923.9117500000066,
      "v": 40
    },
    {
      "midi": 58,
      "hit": false,
      "t": 37436.54179166664,
      "d": 923.9117500000066,
      "v": 40
    },
    {
      "midi": 70,
      "hit": false,
      "t": 37912.084604166645,
      "d": 452.8979166666686,
      "v": 40
    },
    {
      "midi": 68,
      "hit": false,
      "t": 38383.09843749998,
      "d": 452.8979166666686,
      "v": 40
    },
    {
      "midi": 43,
      "hit": false,
      "t": 38383.09843749998,
      "d": 923.9117500000066,
      "v": 40
    },
    {
      "midi": 59,
      "hit": false,
      "t": 38383.09843749998,
      "d": 923.9117500000066,
      "v": 40
    },
    {
      "midi": 67,
      "hit": false,
      "t": 38858.641249999986,
      "d": 452.8979166666686,
      "v": 40
    },
    {
      "midi": 44,
      "hit": false,
      "t": 39329.655083333324,
      "d": 923.9117500000066,
      "v": 40
    },
    {
      "midi": 66,
      "hit": false,
      "t": 39334.18406249999,
      "d": 448.3689375000031,
      "v": 40
    },
    {
      "midi": 60,
      "hit": false,
      "t": 39334.18406249999,
      "d": 1865.9394166666752,
      "v": 40
    },
    {
      "midi": 75,
      "hit": false,
      "t": 39805.19789583333,
      "d": 1394.9255833333373,
      "v": 40
    },
    {
      "midi": 56,
      "hit": false,
      "t": 40276.211729166665,
      "d": 923.9117499999993,
      "v": 40
    },
    {
      "midi": 73,
      "hit": false,
      "t": 41222.768375,
      "d": 217.39100000000326,
      "v": 35
    },
    {
      "midi": 52,
      "hit": false,
      "t": 41222.768375,
      "d": 923.9117500000066,
      "v": 35
    },
    {
      "midi": 58,
      "hit": false,
      "t": 41222.768375,
      "d": 928.4407291666721,
      "v": 35
    },
    {
      "midi": 49,
      "hit": false,
      "t": 41222.768375,
      "d": 3759.0527083333436,
      "v": 35
    },
    {
      "midi": 75,
      "hit": false,
      "t": 41462.80427083334,
      "d": 212.86202083333046,
      "v": 35
    },
    {
      "midi": 73,
      "hit": false,
      "t": 41698.3111875,
      "d": 3283.50989583334,
      "v": 35
    },
    {
      "midi": 53,
      "hit": false,
      "t": 42169.32502083334,
      "d": 923.9117499999993,
      "v": 35
    },
    {
      "midi": 57,
      "hit": false,
      "t": 42169.32502083334,
      "d": 923.9117499999993,
      "v": 35
    },
    {
      "midi": 54,
      "hit": false,
      "t": 43111.35268750001,
      "d": 923.9117499999993,
      "v": 35
    },
    {
      "midi": 56,
      "hit": false,
      "t": 43115.881666666675,
      "d": 919.3827708333338,
      "v": 35
    },
    {
      "midi": 53,
      "hit": false,
      "t": 44057.909333333344,
      "d": 919.3827708333338,
      "v": 35
    },
    {
      "midi": 57,
      "hit": false,
      "t": 44057.909333333344,
      "d": 923.9117499999993,
      "v": 35
    },
    {
      "midi": 52,
      "hit": false,
      "t": 45004.46597916668,
      "d": 923.9117499999993,
      "v": 30
    },
    {
      "midi": 58,
      "hit": false,
      "t": 45004.46597916668,
      "d": 923.9117499999993,
      "v": 30
    },
    {
      "midi": 73,
      "hit": false,
      "t": 45004.46597916668,
      "d": 1865.939416666668,
      "v": 30
    },
    {
      "midi": 49,
      "hit": false,
      "t": 45004.46597916668,
      "d": 3763.581687500009,
      "v": 30
    },
    {
      "midi": 53,
      "hit": false,
      "t": 45946.49364583335,
      "d": 923.9117499999993,
      "v": 30
    },
    {
      "midi": 57,
      "hit": false,
      "t": 45946.49364583335,
      "d": 923.9117499999993,
      "v": 30
    },
    {
      "midi": 54,
      "hit": false,
      "t": 46893.05029166668,
      "d": 923.9117499999993,
      "v": 30
    },
    {
      "midi": 56,
      "hit": false,
      "t": 46893.05029166668,
      "d": 923.9117499999993,
      "v": 30
    },
    {
      "midi": 73,
      "hit": false,
      "t": 47364.06412500001,
      "d": 452.8979166666686,
      "v": 30
    },
    {
      "midi": 76,
      "hit": false,
      "t": 47839.606937500015,
      "d": 452.8979166666686,
      "v": 30
    },
    {
      "midi": 53,
      "hit": false,
      "t": 47839.606937500015,
      "d": 923.9117500000066,
      "v": 30
    },
    {
      "midi": 57,
      "hit": false,
      "t": 47839.606937500015,
      "d": 923.9117500000066,
      "v": 30
    },
    {
      "midi": 73,
      "hit": false,
      "t": 48310.62077083335,
      "d": 457.42689583333413,
      "v": 30
    },
    {
      "midi": 76,
      "hit": false,
      "t": 48790.69256250002,
      "d": 452.8979166666686,
      "v": 30
    },
    {
      "midi": 42,
      "hit": false,
      "t": 48790.69256250002,
      "d": 923.9117500000066,
      "v": 30
    },
    {
      "midi": 56,
      "hit": false,
      "t": 48790.69256250002,
      "d": 923.9117500000066,
      "v": 30
    },
    {
      "midi": 78,
      "hit": false,
      "t": 49261.70639583336,
      "d": 1394.9255833333373,
      "v": 30
    },
    {
      "midi": 49,
      "hit": false,
      "t": 49732.7202291667,
      "d": 923.9117499999993,
      "v": 30
    },
    {
      "midi": 57,
      "hit": false,
      "t": 49737.249208333364,
      "d": 919.3827708333338,
      "v": 30
    },
    {
      "midi": 52,
      "hit": false,
      "t": 50679.27687500003,
      "d": 923.9117499999993,
      "v": 30
    },
    {
      "midi": 58,
      "hit": false,
      "t": 50679.27687500003,
      "d": 923.9117499999993,
      "v": 30
    },
    {
      "midi": 73,
      "hit": false,
      "t": 51150.29070833336,
      "d": 452.8979166666686,
      "v": 30
    },
    {
      "midi": 76,
      "hit": false,
      "t": 51625.83352083337,
      "d": 452.8979166666686,
      "v": 30
    },
    {
      "midi": 42,
      "hit": false,
      "t": 51625.83352083337,
      "d": 923.9117500000066,
      "v": 30
    },
    {
      "midi": 56,
      "hit": false,
      "t": 51625.83352083337,
      "d": 928.4407291666721,
      "v": 30
    },
    {
      "midi": 73,
      "hit": false,
      "t": 52096.847354166704,
      "d": 457.42689583333413,
      "v": 30
    },
    {
      "midi": 57,
      "hit": false,
      "t": 52572.39016666671,
      "d": 923.9117499999993,
      "v": 30
    },
    {
      "midi": 43,
      "hit": false,
      "t": 52576.91914583337,
      "d": 1870.4683958333408,
      "v": 30
    },
    {
      "midi": 49,
      "hit": false,
      "t": 52576.91914583337,
      "d": 1870.4683958333408,
      "v": 30
    },
    {
      "midi": 73,
      "hit": false,
      "t": 53047.932979166704,
      "d": 452.8979166666686,
      "v": 30
    },
    {
      "midi": 58,
      "hit": false,
      "t": 53518.94681250004,
      "d": 923.9117500000066,
      "v": 30
    },
    {
      "midi": 76,
      "hit": false,
      "t": 53523.47579166671,
      "d": 448.3689375000031,
      "v": 30
    },
    {
      "midi": 73,
      "hit": false,
      "t": 53994.489625000046,
      "d": 452.8979166666686,
      "v": 30
    },
    {
      "midi": 59,
      "hit": false,
      "t": 54465.50345833338,
      "d": 928.4407291666721,
      "v": 30
    },
    {
      "midi": 69,
      "hit": false,
      "t": 54470.03243750005,
      "d": 452.8979166666686,
      "v": 30
    },
    {
      "midi": 44,
      "hit": false,
      "t": 54470.03243750005,
      "d": 1870.468395833348,
      "v": 30
    },
    {
      "midi": 54,
      "hit": false,
      "t": 54470.03243750005,
      "d": 1870.468395833348,
      "v": 30
    },
    {
      "midi": 68,
      "hit": false,
      "t": 54941.04627083339,
      "d": 452.8979166666686,
      "v": 30
    },
    {
      "midi": 64,
      "hit": false,
      "t": 55416.58908333339,
      "d": 448.3689375000031,
      "v": 30
    },
    {
      "midi": 60,
      "hit": false,
      "t": 55416.58908333339,
      "d": 923.9117500000066,
      "v": 30
    },
    {
      "midi": 61,
      "hit": false,
      "t": 55887.60291666673,
      "d": 452.8979166666686,
      "v": 30
    },
    {
      "midi": 37,
      "hit": false,
      "t": 56363.14572916673,
      "d": 1394.9255833333373,
      "v": 60
    },
    {
      "midi": 61,
      "hit": false,
      "t": 56363.14572916673,
      "d": 3763.5816875000164,
      "v": 60
    },
    {
      "midi": 49,
      "hit": false,
      "t": 56834.15956250006,
      "d": 452.8979166666686,
      "v": 60
    },
    {
      "midi": 52,
      "hit": false,
      "t": 57309.702375000066,
      "d": 448.3689375000031,
      "v": 60
    },
    {
      "midi": 64,
      "hit": false,
      "t": 57780.716208333404,
      "d": 452.8979166666686,
      "v": 60
    },
    {
      "midi": 68,
      "hit": false,
      "t": 57780.716208333404,
      "d": 452.8979166666686,
      "v": 60
    },
    {
      "midi": 49,
      "hit": false,
      "t": 57785.24518750007,
      "d": 452.8979166666686,
      "v": 60
    },
    {
      "midi": 68,
      "hit": false,
      "t": 58256.25902083341,
      "d": 923.9117500000066,
      "v": 60
    },
    {
      "midi": 64,
      "hit": false,
      "t": 58256.25902083341,
      "d": 928.4407291666721,
      "v": 60
    },
    {
      "midi": 52,
      "hit": false,
      "t": 58260.78800000007,
      "d": 448.3689375000031,
      "v": 60
    },
    {
      "midi": 54,
      "hit": false,
      "t": 58731.80183333341,
      "d": 1394.9255833333373,
      "v": 60
    },
    {
      "midi": 66,
      "hit": false,
      "t": 59202.81566666675,
      "d": 923.9117499999993,
      "v": 60
    },
    {
      "midi": 70,
      "hit": false,
      "t": 59202.81566666675,
      "d": 923.9117499999993,
      "v": 60
    },
    {
      "midi": 42,
      "hit": false,
      "t": 60149.37231250008,
      "d": 1394.9255833333373,
      "v": 60
    },
    {
      "midi": 61,
      "hit": false,
      "t": 60153.90129166675,
      "d": 3759.052708333351,
      "v": 60
    },
    {
      "midi": 49,
      "hit": false,
      "t": 60620.386145833414,
      "d": 452.8979166666686,
      "v": 60
    },
    {
      "midi": 52,
      "hit": false,
      "t": 61095.92895833342,
      "d": 448.3689375000031,
      "v": 60
    },
    {
      "midi": 49,
      "hit": false,
      "t": 61566.942791666756,
      "d": 452.8979166666686,
      "v": 60
    },
    {
      "midi": 64,
      "hit": false,
      "t": 61566.942791666756,
      "d": 452.8979166666686,
      "v": 60
    },
    {
      "midi": 68,
      "hit": false,
      "t": 61566.942791666756,
      "d": 452.8979166666686,
      "v": 60
    },
    {
      "midi": 64,
      "hit": false,
      "t": 62042.48560416676,
      "d": 923.9117500000066,
      "v": 60
    },
    {
      "midi": 68,
      "hit": false,
      "t": 62042.48560416676,
      "d": 923.9117500000066,
      "v": 60
    },
    {
      "midi": 52,
      "hit": false,
      "t": 62047.014583333425,
      "d": 448.3689375000031,
      "v": 60
    },
    {
      "midi": 54,
      "hit": false,
      "t": 62518.02841666676,
      "d": 1394.9255833333373,
      "v": 60
    },
    {
      "midi": 66,
      "hit": false,
      "t": 62989.0422500001,
      "d": 923.9117499999993,
      "v": 60
    },
    {
      "midi": 69,
      "hit": false,
      "t": 62989.0422500001,
      "d": 923.9117499999993,
      "v": 60
    },
    {
      "midi": 37,
      "hit": false,
      "t": 63935.598895833435,
      "d": 923.9117499999993,
      "v": 60
    },
    {
      "midi": 52,
      "hit": false,
      "t": 63935.598895833435,
      "d": 923.9117499999993,
      "v": 60
    },
    {
      "midi": 44,
      "hit": false,
      "t": 64877.6265625001,
      "d": 923.9117500000066,
      "v": 60
    },
    {
      "midi": 53,
      "hit": false,
      "t": 64877.6265625001,
      "d": 923.9117500000066,
      "v": 60
    },
    {
      "midi": 54,
      "hit": false,
      "t": 65824.18320833344,
      "d": 919.3827708333265,
      "v": 60
    },
    {
      "midi": 61,
      "hit": false,
      "t": 65824.18320833344,
      "d": 923.9117499999993,
      "v": 60
    },
    {
      "midi": 44,
      "hit": false,
      "t": 66766.2108750001,
      "d": 923.9117499999993,
      "v": 60
    },
    {
      "midi": 52,
      "hit": false,
      "t": 66766.2108750001,
      "d": 923.9117499999993,
      "v": 60
    },
    {
      "midi": 37,
      "hit": false,
      "t": 67712.76752083344,
      "d": 919.3827708333265,
      "v": 60
    },
    {
      "midi": 52,
      "hit": false,
      "t": 67712.76752083344,
      "d": 923.9117499999993,
      "v": 60
    },
    {
      "midi": 44,
      "hit": false,
      "t": 68654.7951875001,
      "d": 923.9117499999993,
      "v": 60
    },
    {
      "midi": 53,
      "hit": false,
      "t": 68654.7951875001,
      "d": 923.9117499999993,
      "v": 60
    },
    {
      "midi": 54,
      "hit": false,
      "t": 69596.82285416676,
      "d": 923.9117499999993,
      "v": 60
    },
    {
      "midi": 61,
      "hit": false,
      "t": 69601.35183333344,
      "d": 923.9117499999993,
      "v": 60
    },
    {
      "midi": 68,
      "hit": false,
      "t": 70072.36566666677,
      "d": 452.8979166666686,
      "v": 60
    },
    {
      "midi": 80,
      "hit": false,
      "t": 70072.36566666677,
      "d": 452.8979166666686,
      "v": 60
    },
    {
      "midi": 71,
      "hit": false,
      "t": 70547.90847916677,
      "d": 452.8979166666686,
      "v": 60
    },
    {
      "midi": 83,
      "hit": false,
      "t": 70547.90847916677,
      "d": 452.8979166666686,
      "v": 60
    },
    {
      "midi": 44,
      "hit": false,
      "t": 70547.90847916677,
      "d": 928.4407291666721,
      "v": 60
    },
    {
      "midi": 52,
      "hit": false,
      "t": 70547.90847916677,
      "d": 928.4407291666721,
      "v": 60
    },
    {
      "midi": 68,
      "hit": false,
      "t": 71023.45129166677,
      "d": 452.8979166666686,
      "v": 60
    },
    {
      "midi": 80,
      "hit": false,
      "t": 71023.45129166677,
      "d": 452.8979166666686,
      "v": 60
    },
    {
      "midi": 71,
      "hit": false,
      "t": 71498.99410416678,
      "d": 452.8979166666686,
      "v": 60
    },
    {
      "midi": 83,
      "hit": false,
      "t": 71498.99410416678,
      "d": 457.4268958333414,
      "v": 60
    },
    {
      "midi": 37,
      "hit": false,
      "t": 71498.99410416678,
      "d": 928.4407291666721,
      "v": 60
    },
    {
      "midi": 52,
      "hit": false,
      "t": 71498.99410416678,
      "d": 928.4407291666721,
      "v": 60
    },
    {
      "midi": 76,
      "hit": false,
      "t": 71503.52308333345,
      "d": 923.9117499999993,
      "v": 60
    },
    {
      "midi": 68,
      "hit": false,
      "t": 71974.53691666678,
      "d": 1399.4545625000028,
      "v": 60
    },
    {
      "midi": 80,
      "hit": false,
      "t": 71974.53691666678,
      "d": 1399.4545625000028,
      "v": 60
    },
    {
      "midi": 44,
      "hit": false,
      "t": 72450.07972916678,
      "d": 923.9117499999993,
      "v": 60
    },
    {
      "midi": 53,
      "hit": false,
      "t": 72450.07972916678,
      "d": 923.9117499999993,
      "v": 60
    },
    {
      "midi": 75,
      "hit": false,
      "t": 72450.07972916678,
      "d": 923.9117499999993,
      "v": 60
    },
    {
      "midi": 54,
      "hit": false,
      "t": 73396.63637500012,
      "d": 923.9117499999993,
      "v": 60
    },
    {
      "midi": 61,
      "hit": false,
      "t": 73396.63637500012,
      "d": 928.4407291666721,
      "v": 60
    },
    {
      "midi": 73,
      "hit": false,
      "t": 73396.63637500012,
      "d": 928.4407291666721,
      "v": 60
    },
    {
      "midi": 68,
      "hit": false,
      "t": 73872.17918750012,
      "d": 452.8979166666686,
      "v": 60
    },
    {
      "midi": 80,
      "hit": false,
      "t": 73872.17918750012,
      "d": 452.8979166666686,
      "v": 60
    },
    {
      "midi": 71,
      "hit": false,
      "t": 74347.72200000013,
      "d": 452.8979166666686,
      "v": 60
    },
    {
      "midi": 83,
      "hit": false,
      "t": 74347.72200000013,
      "d": 452.8979166666686,
      "v": 60
    },
    {
      "midi": 44,
      "hit": false,
      "t": 74347.72200000013,
      "d": 928.4407291666721,
      "v": 60
    },
    {
      "midi": 52,
      "hit": false,
      "t": 74347.72200000013,
      "d": 928.4407291666721,
      "v": 60
    },
    {
      "midi": 75,
      "hit": false,
      "t": 74347.72200000013,
      "d": 932.9697083333449,
      "v": 60
    },
    {
      "midi": 68,
      "hit": false,
      "t": 74823.26481250013,
      "d": 452.8979166666686,
      "v": 60
    },
    {
      "midi": 80,
      "hit": false,
      "t": 74823.26481250013,
      "d": 452.8979166666686,
      "v": 60
    },
    {
      "midi": 37,
      "hit": false,
      "t": 75298.80762500013,
      "d": 928.4407291666721,
      "v": 60
    },
    {
      "midi": 52,
      "hit": false,
      "t": 75298.80762500013,
      "d": 928.4407291666721,
      "v": 60
    },
    {
      "midi": 71,
      "hit": false,
      "t": 75303.3366041668,
      "d": 452.8979166666686,
      "v": 60
    },
    {
      "midi": 83,
      "hit": false,
      "t": 75303.3366041668,
      "d": 452.8979166666686,
      "v": 60
    },
    {
      "midi": 76,
      "hit": false,
      "t": 75303.3366041668,
      "d": 928.4407291666721,
      "v": 60
    },
    {
      "midi": 68,
      "hit": false,
      "t": 75774.35043750014,
      "d": 1403.9835416666756,
      "v": 60
    },
    {
      "midi": 80,
      "hit": false,
      "t": 75778.87941666681,
      "d": 1399.4545625000028,
      "v": 60
    },
    {
      "midi": 44,
      "hit": false,
      "t": 76249.89325000014,
      "d": 923.9117499999993,
      "v": 60
    },
    {
      "midi": 53,
      "hit": false,
      "t": 76254.42222916681,
      "d": 919.3827708333265,
      "v": 60
    },
    {
      "midi": 75,
      "hit": false,
      "t": 76254.42222916681,
      "d": 923.9117499999993,
      "v": 60
    },
    {
      "midi": 54,
      "hit": false,
      "t": 77200.97887500015,
      "d": 923.9117499999993,
      "v": 60
    },
    {
      "midi": 61,
      "hit": false,
      "t": 77200.97887500015,
      "d": 923.9117499999993,
      "v": 60
    },
    {
      "midi": 73,
      "hit": false,
      "t": 77200.97887500015,
      "d": 928.4407291666721,
      "v": 60
    },
    {
      "midi": 68,
      "hit": false,
      "t": 77671.99270833348,
      "d": 452.8979166666686,
      "v": 60
    },
    {
      "midi": 80,
      "hit": false,
      "t": 77671.99270833348,
      "d": 452.8979166666686,
      "v": 60
    },
    {
      "midi": 44,
      "hit": false,
      "t": 78147.53552083348,
      "d": 928.4407291666721,
      "v": 60
    },
    {
      "midi": 52,
      "hit": false,
      "t": 78147.53552083348,
      "d": 932.9697083333449,
      "v": 60
    },
    {
      "midi": 71,
      "hit": false,
      "t": 78152.06450000015,
      "d": 452.8979166666686,
      "v": 60
    },
    {
      "midi": 83,
      "hit": false,
      "t": 78152.06450000015,
      "d": 452.8979166666686,
      "v": 60
    },
    {
      "midi": 75,
      "hit": false,
      "t": 78152.06450000015,
      "d": 928.4407291666721,
      "v": 60
    },
    {
      "midi": 68,
      "hit": false,
      "t": 78623.07833333348,
      "d": 457.4268958333414,
      "v": 60
    },
    {
      "midi": 80,
      "hit": false,
      "t": 78627.60731250016,
      "d": 452.8979166666686,
      "v": 60
    },
    {
      "midi": 71,
      "hit": false,
      "t": 79103.15012500016,
      "d": 452.8979166666686,
      "v": 60
    },
    {
      "midi": 83,
      "hit": false,
      "t": 79103.15012500016,
      "d": 452.8979166666686,
      "v": 60
    },
    {
      "midi": 37,
      "hit": false,
      "t": 79103.15012500016,
      "d": 928.4407291666721,
      "v": 60
    },
    {
      "midi": 52,
      "hit": false,
      "t": 79103.15012500016,
      "d": 928.4407291666721,
      "v": 60
    },
    {
      "midi": 76,
      "hit": false,
      "t": 79107.67910416683,
      "d": 928.4407291666721,
      "v": 60
    },
    {
      "midi": 68,
      "hit": false,
      "t": 79578.69293750016,
      "d": 452.8979166666686,
      "v": 60
    },
    {
      "midi": 80,
      "hit": false,
      "t": 79578.69293750016,
      "d": 452.8979166666686,
      "v": 60
    },
    {
      "midi": 44,
      "hit": false,
      "t": 80054.23575000017,
      "d": 928.4407291666721,
      "v": 60
    },
    {
      "midi": 53,
      "hit": false,
      "t": 80054.23575000017,
      "d": 928.4407291666721,
      "v": 60
    },
    {
      "midi": 71,
      "hit": false,
      "t": 80058.76472916684,
      "d": 448.3689374999958,
      "v": 60
    },
    {
      "midi": 83,
      "hit": false,
      "t": 80058.76472916684,
      "d": 452.8979166666686,
      "v": 60
    },
    {
      "midi": 75,
      "hit": false,
      "t": 80058.76472916684,
      "d": 928.4407291666721,
      "v": 60
    },
    {
      "midi": 68,
      "hit": false,
      "t": 80529.77856250017,
      "d": 457.4268958333414,
      "v": 60
    },
    {
      "midi": 80,
      "hit": false,
      "t": 80529.77856250017,
      "d": 457.4268958333414,
      "v": 60
    },
    {
      "midi": 71,
      "hit": false,
      "t": 81009.85035416685,
      "d": 452.8979166666686,
      "v": 60
    },
    {
      "midi": 83,
      "hit": false,
      "t": 81009.85035416685,
      "d": 452.8979166666686,
      "v": 60
    },
    {
      "midi": 54,
      "hit": false,
      "t": 81009.85035416685,
      "d": 928.4407291666721,
      "v": 60
    },
    {
      "midi": 61,
      "hit": false,
      "t": 81009.85035416685,
      "d": 928.4407291666721,
      "v": 60
    },
    {
      "midi": 73,
      "hit": false,
      "t": 81009.85035416685,
      "d": 928.4407291666721,
      "v": 60
    },
    {
      "midi": 68,
      "hit": false,
      "t": 81485.39316666685,
      "d": 452.8979166666686,
      "v": 60
    },
    {
      "midi": 80,
      "hit": false,
      "t": 81485.39316666685,
      "d": 452.8979166666686,
      "v": 60
    },
    {
      "midi": 71,
      "hit": false,
      "t": 81960.93597916685,
      "d": 452.8979166666686,
      "v": 60
    },
    {
      "midi": 83,
      "hit": false,
      "t": 81960.93597916685,
      "d": 452.8979166666686,
      "v": 60
    },
    {
      "midi": 44,
      "hit": false,
      "t": 81960.93597916685,
      "d": 928.4407291666721,
      "v": 60
    },
    {
      "midi": 52,
      "hit": false,
      "t": 81960.93597916685,
      "d": 928.4407291666721,
      "v": 60
    },
    {
      "midi": 75,
      "hit": false,
      "t": 81965.46495833353,
      "d": 923.9117499999993,
      "v": 60
    },
    {
      "midi": 68,
      "hit": false,
      "t": 82436.47879166686,
      "d": 452.8979166666686,
      "v": 60
    },
    {
      "midi": 80,
      "hit": false,
      "t": 82436.47879166686,
      "d": 452.8979166666686,
      "v": 60
    },
    {
      "midi": 37,
      "hit": false,
      "t": 82912.02160416686,
      "d": 928.4407291666721,
      "v": 60
    },
    {
      "midi": 71,
      "hit": false,
      "t": 82916.55058333353,
      "d": 452.8979166666686,
      "v": 60
    },
    {
      "midi": 83,
      "hit": false,
      "t": 82916.55058333353,
      "d": 452.8979166666686,
      "v": 60
    },
    {
      "midi": 52,
      "hit": false,
      "t": 82916.55058333353,
      "d": 928.4407291666721,
      "v": 60
    },
    {
      "midi": 76,
      "hit": false,
      "t": 82916.55058333353,
      "d": 928.4407291666721,
      "v": 60
    },
    {
      "midi": 68,
      "hit": false,
      "t": 83387.56441666686,
      "d": 1403.9835416666756,
      "v": 60
    },
    {
      "midi": 80,
      "hit": false,
      "t": 83387.56441666686,
      "d": 1403.9835416666756,
      "v": 60
    },
    {
      "midi": 44,
      "hit": false,
      "t": 83863.10722916687,
      "d": 923.9117499999993,
      "v": 60
    },
    {
      "midi": 53,
      "hit": false,
      "t": 83863.10722916687,
      "d": 923.9117499999993,
      "v": 60
    },
    {
      "midi": 75,
      "hit": false,
      "t": 83867.63620833354,
      "d": 923.9117499999993,
      "v": 60
    },
    {
      "midi": 54,
      "hit": false,
      "t": 84814.19285416687,
      "d": 923.9117499999993,
      "v": 60
    },
    {
      "midi": 61,
      "hit": false,
      "t": 84814.19285416687,
      "d": 923.9117499999993,
      "v": 60
    },
    {
      "midi": 73,
      "hit": false,
      "t": 84814.19285416687,
      "d": 923.9117499999993,
      "v": 60
    },
    {
      "midi": 85,
      "hit": false,
      "t": 85443.72095833354,
      "d": 611.4121875000128,
      "v": 60
    },
    {
      "midi": 44,
      "hit": false,
      "t": 85760.74950000021,
      "d": 923.9117500000139,
      "v": 60
    },
    {
      "midi": 52,
      "hit": false,
      "t": 85760.74950000021,
      "d": 928.4407291666867,
      "v": 60
    },
    {
      "midi": 73,
      "hit": false,
      "t": 86077.77804166688,
      "d": 611.4121875000128,
      "v": 60
    },
    {
      "midi": 85,
      "hit": false,
      "t": 86077.77804166688,
      "d": 611.4121875000128,
      "v": 60
    },
    {
      "midi": 42,
      "hit": false,
      "t": 86711.83512500023,
      "d": 923.9117499999993,
      "v": 60
    },
    {
      "midi": 58,
      "hit": false,
      "t": 86711.83512500023,
      "d": 923.9117499999993,
      "v": 60
    },
    {
      "midi": 73,
      "hit": false,
      "t": 86711.83512500023,
      "d": 923.9117499999993,
      "v": 60
    },
    {
      "midi": 85,
      "hit": false,
      "t": 86711.83512500023,
      "d": 923.9117499999993,
      "v": 60
    },
    {
      "midi": 78,
      "hit": false,
      "t": 86711.83512500023,
      "d": 928.4407291666721,
      "v": 60
    },
    {
      "midi": 51,
      "hit": false,
      "t": 87658.39177083356,
      "d": 928.4407291666721,
      "v": 60
    },
    {
      "midi": 59,
      "hit": false,
      "t": 87658.39177083356,
      "d": 928.4407291666721,
      "v": 60
    },
    {
      "midi": 78,
      "hit": false,
      "t": 87662.92075000024,
      "d": 923.9117499999993,
      "v": 60
    },
    {
      "midi": 83,
      "hit": false,
      "t": 87662.92075000024,
      "d": 923.9117499999993,
      "v": 60
    },
    {
      "midi": 90,
      "hit": false,
      "t": 87662.92075000024,
      "d": 923.9117499999993,
      "v": 60
    },
    {
      "midi": 60,
      "hit": false,
      "t": 88609.47739583357,
      "d": 923.9117499999993,
      "v": 60
    },
    {
      "midi": 66,
      "hit": false,
      "t": 88609.47739583357,
      "d": 923.9117499999993,
      "v": 60
    },
    {
      "midi": 82,
      "hit": false,
      "t": 88609.47739583357,
      "d": 923.9117499999993,
      "v": 60
    },
    {
      "midi": 94,
      "hit": false,
      "t": 88609.47739583357,
      "d": 928.4407291666721,
      "v": 60
    },
    {
      "midi": 87,
      "hit": false,
      "t": 88614.00637500024,
      "d": 923.9117499999993,
      "v": 60
    },
    {
      "midi": 51,
      "hit": false,
      "t": 89556.0340416669,
      "d": 928.4407291666721,
      "v": 60
    },
    {
      "midi": 59,
      "hit": false,
      "t": 89560.56302083358,
      "d": 923.9117499999993,
      "v": 60
    },
    {
      "midi": 78,
      "hit": false,
      "t": 89560.56302083358,
      "d": 923.9117499999993,
      "v": 60
    },
    {
      "midi": 83,
      "hit": false,
      "t": 89560.56302083358,
      "d": 923.9117499999993,
      "v": 60
    },
    {
      "midi": 90,
      "hit": false,
      "t": 89560.56302083358,
      "d": 923.9117499999993,
      "v": 60
    },
    {
      "midi": 87,
      "hit": false,
      "t": 90507.11966666691,
      "d": 217.39100000000326,
      "v": 60
    },
    {
      "midi": 42,
      "hit": false,
      "t": 90507.11966666691,
      "d": 928.4407291666721,
      "v": 60
    },
    {
      "midi": 58,
      "hit": false,
      "t": 90507.11966666691,
      "d": 932.9697083333449,
      "v": 60
    },
    {
      "midi": 73,
      "hit": false,
      "t": 90747.15556250025,
      "d": 217.39100000000326,
      "v": 60
    },
    {
      "midi": 85,
      "hit": false,
      "t": 90747.15556250025,
      "d": 217.39100000000326,
      "v": 60
    },
    {
      "midi": 70,
      "hit": false,
      "t": 90987.19145833359,
      "d": 452.8979166666686,
      "v": 60
    },
    {
      "midi": 82,
      "hit": false,
      "t": 90987.19145833359,
      "d": 452.8979166666686,
      "v": 60
    },
    {
      "midi": 68,
      "hit": false,
      "t": 91462.7342708336,
      "d": 452.8979166666686,
      "v": 60
    },
    {
      "midi": 80,
      "hit": false,
      "t": 91462.7342708336,
      "d": 452.8979166666686,
      "v": 60
    },
    {
      "midi": 43,
      "hit": false,
      "t": 91462.7342708336,
      "d": 923.9117499999993,
      "v": 60
    },
    {
      "midi": 59,
      "hit": false,
      "t": 91462.7342708336,
      "d": 928.4407291666721,
      "v": 60
    },
    {
      "midi": 67,
      "hit": false,
      "t": 91938.2770833336,
      "d": 452.8979166666686,
      "v": 60
    },
    {
      "midi": 79,
      "hit": false,
      "t": 91938.2770833336,
      "d": 452.8979166666686,
      "v": 60
    },
    {
      "midi": 66,
      "hit": false,
      "t": 92413.8198958336,
      "d": 452.8979166666686,
      "v": 60
    },
    {
      "midi": 78,
      "hit": false,
      "t": 92413.8198958336,
      "d": 452.8979166666686,
      "v": 60
    },
    {
      "midi": 44,
      "hit": false,
      "t": 92413.8198958336,
      "d": 923.9117499999993,
      "v": 60
    },
    {
      "midi": 60,
      "hit": false,
      "t": 92413.8198958336,
      "d": 1874.9973750000063,
      "v": 60
    },
    {
      "midi": 75,
      "hit": false,
      "t": 92884.83372916693,
      "d": 923.9117499999993,
      "v": 60
    },
    {
      "midi": 87,
      "hit": false,
      "t": 92889.3627083336,
      "d": 923.9117499999993,
      "v": 60
    },
    {
      "midi": 56,
      "hit": false,
      "t": 93360.37654166693,
      "d": 928.4407291666721,
      "v": 60
    },
    {
      "midi": 73,
      "hit": false,
      "t": 93831.39037500026,
      "d": 217.39100000000326,
      "v": 60
    },
    {
      "midi": 85,
      "hit": false,
      "t": 93831.39037500026,
      "d": 217.39100000000326,
      "v": 60
    },
    {
      "midi": 87,
      "hit": false,
      "t": 94071.4262708336,
      "d": 217.39100000000326,
      "v": 60
    },
    {
      "midi": 52,
      "hit": false,
      "t": 94311.46216666694,
      "d": 932.9697083333449,
      "v": 55
    },
    {
      "midi": 58,
      "hit": false,
      "t": 94311.46216666694,
      "d": 932.9697083333449,
      "v": 55
    },
    {
      "midi": 49,
      "hit": false,
      "t": 94311.46216666694,
      "d": 3768.1106666666747,
      "v": 55
    },
    {
      "midi": 73,
      "hit": false,
      "t": 94315.99114583361,
      "d": 217.39100000000326,
      "v": 55
    },
    {
      "midi": 85,
      "hit": false,
      "t": 94315.99114583361,
      "d": 217.39100000000326,
      "v": 55
    },
    {
      "midi": 87,
      "hit": false,
      "t": 94551.49806250028,
      "d": 217.39100000000326,
      "v": 55
    },
    {
      "midi": 73,
      "hit": false,
      "t": 94787.00497916694,
      "d": 217.39100000000326,
      "v": 55
    },
    {
      "midi": 85,
      "hit": false,
      "t": 94791.53395833362,
      "d": 212.86202083333046,
      "v": 55
    },
    {
      "midi": 87,
      "hit": false,
      "t": 95027.04087500028,
      "d": 217.39100000000326,
      "v": 55
    },
    {
      "midi": 53,
      "hit": false,
      "t": 95267.07677083362,
      "d": 923.9117499999993,
      "v": 55
    },
    {
      "midi": 57,
      "hit": false,
      "t": 95267.07677083362,
      "d": 923.9117499999993,
      "v": 55
    },
    {
      "midi": 73,
      "hit": false,
      "t": 95267.07677083362,
      "d": 2812.496062499995,
      "v": 55
    },
    {
      "midi": 85,
      "hit": false,
      "t": 95267.07677083362,
      "d": 2812.496062499995,
      "v": 55
    },
    {
      "midi": 54,
      "hit": false,
      "t": 96213.63341666695,
      "d": 919.3827708333265,
      "v": 55
    },
    {
      "midi": 56,
      "hit": false,
      "t": 96213.63341666695,
      "d": 919.3827708333265,
      "v": 55
    },
    {
      "midi": 53,
      "hit": false,
      "t": 97155.66108333362,
      "d": 923.9117499999993,
      "v": 55
    },
    {
      "midi": 57,
      "hit": false,
      "t": 97155.66108333362,
      "d": 923.9117499999993,
      "v": 55
    },
    {
      "midi": 52,
      "hit": false,
      "t": 98102.21772916695,
      "d": 923.9117499999993,
      "v": 50
    },
    {
      "midi": 58,
      "hit": false,
      "t": 98102.21772916695,
      "d": 923.9117499999993,
      "v": 50
    },
    {
      "midi": 49,
      "hit": false,
      "t": 98102.21772916695,
      "d": 3768.1106666666747,
      "v": 50
    },
    {
      "midi": 73,
      "hit": false,
      "t": 98106.74670833362,
      "d": 1865.9394166666607,
      "v": 50
    },
    {
      "midi": 85,
      "hit": false,
      "t": 98106.74670833362,
      "d": 1865.9394166666607,
      "v": 50
    },
    {
      "midi": 53,
      "hit": false,
      "t": 99048.77437500028,
      "d": 919.3827708333265,
      "v": 50
    },
    {
      "midi": 57,
      "hit": false,
      "t": 99048.77437500028,
      "d": 923.9117499999993,
      "v": 50
    },
    {
      "midi": 54,
      "hit": false,
      "t": 99995.33102083362,
      "d": 923.9117499999993,
      "v": 50
    },
    {
      "midi": 56,
      "hit": false,
      "t": 99995.33102083362,
      "d": 923.9117499999993,
      "v": 50
    },
    {
      "midi": 73,
      "hit": false,
      "t": 100466.34485416695,
      "d": 452.8979166666686,
      "v": 50
    },
    {
      "midi": 85,
      "hit": false,
      "t": 100466.34485416695,
      "d": 452.8979166666686,
      "v": 50
    },
    {
      "midi": 76,
      "hit": false,
      "t": 100941.88766666695,
      "d": 452.8979166666686,
      "v": 50
    },
    {
      "midi": 88,
      "hit": false,
      "t": 100941.88766666695,
      "d": 452.8979166666686,
      "v": 50
    },
    {
      "midi": 53,
      "hit": false,
      "t": 100941.88766666695,
      "d": 928.4407291666721,
      "v": 50
    },
    {
      "midi": 57,
      "hit": false,
      "t": 100941.88766666695,
      "d": 928.4407291666721,
      "v": 50
    },
    {
      "midi": 73,
      "hit": false,
      "t": 101417.43047916696,
      "d": 452.8979166666686,
      "v": 50
    },
    {
      "midi": 85,
      "hit": false,
      "t": 101417.43047916696,
      "d": 457.4268958333414,
      "v": 50
    },
    {
      "midi": 42,
      "hit": false,
      "t": 101892.97329166696,
      "d": 928.4407291666721,
      "v": 50
    },
    {
      "midi": 76,
      "hit": false,
      "t": 101897.50227083363,
      "d": 452.8979166666686,
      "v": 50
    },
    {
      "midi": 88,
      "hit": false,
      "t": 101897.50227083363,
      "d": 452.8979166666686,
      "v": 50
    },
    {
      "midi": 56,
      "hit": false,
      "t": 101897.50227083363,
      "d": 923.9117499999993,
      "v": 50
    },
    {
      "midi": 82,
      "hit": false,
      "t": 101897.50227083363,
      "d": 928.4407291666721,
      "v": 50
    },
    {
      "midi": 78,
      "hit": false,
      "t": 102368.51610416696,
      "d": 1399.4545625000028,
      "v": 50
    },
    {
      "midi": 90,
      "hit": false,
      "t": 102373.04508333364,
      "d": 1399.4545625000028,
      "v": 50
    },
    {
      "midi": 49,
      "hit": false,
      "t": 102844.05891666697,
      "d": 923.9117499999993,
      "v": 50
    },
    {
      "midi": 57,
      "hit": false,
      "t": 102844.05891666697,
      "d": 923.9117499999993,
      "v": 50
    },
    {
      "midi": 81,
      "hit": false,
      "t": 102848.58789583364,
      "d": 923.9117499999993,
      "v": 50
    },
    {
      "midi": 52,
      "hit": false,
      "t": 103795.14454166697,
      "d": 923.9117499999993,
      "v": 50
    },
    {
      "midi": 58,
      "hit": false,
      "t": 103795.14454166697,
      "d": 923.9117499999993,
      "v": 50
    },
    {
      "midi": 80,
      "hit": false,
      "t": 103795.14454166697,
      "d": 928.4407291666721,
      "v": 50
    },
    {
      "midi": 73,
      "hit": false,
      "t": 104266.1583750003,
      "d": 452.8979166666686,
      "v": 50
    },
    {
      "midi": 85,
      "hit": false,
      "t": 104266.1583750003,
      "d": 457.4268958333414,
      "v": 50
    },
    {
      "midi": 42,
      "hit": false,
      "t": 104741.70118750031,
      "d": 928.4407291666721,
      "v": 50
    },
    {
      "midi": 56,
      "hit": false,
      "t": 104741.70118750031,
      "d": 932.9697083333449,
      "v": 50
    },
    {
      "midi": 76,
      "hit": false,
      "t": 104746.23016666698,
      "d": 452.8979166666686,
      "v": 50
    },
    {
      "midi": 88,
      "hit": false,
      "t": 104746.23016666698,
      "d": 452.8979166666686,
      "v": 50
    },
    {
      "midi": 82,
      "hit": false,
      "t": 104746.23016666698,
      "d": 928.4407291666721,
      "v": 50
    },
    {
      "midi": 73,
      "hit": false,
      "t": 105217.24400000031,
      "d": 457.4268958333414,
      "v": 50
    },
    {
      "midi": 85,
      "hit": false,
      "t": 105217.24400000031,
      "d": 457.4268958333414,
      "v": 50
    },
    {
      "midi": 57,
      "hit": false,
      "t": 105697.31579166699,
      "d": 923.9117499999993,
      "v": 50
    },
    {
      "midi": 81,
      "hit": false,
      "t": 105697.31579166699,
      "d": 928.4407291666721,
      "v": 50
    },
    {
      "midi": 43,
      "hit": false,
      "t": 105697.31579166699,
      "d": 1879.526354166679,
      "v": 50
    },
    {
      "midi": 49,
      "hit": false,
      "t": 105697.31579166699,
      "d": 1879.526354166679,
      "v": 50
    },
    {
      "midi": 73,
      "hit": false,
      "t": 106168.32962500032,
      "d": 457.4268958333414,
      "v": 50
    },
    {
      "midi": 85,
      "hit": false,
      "t": 106172.85860416699,
      "d": 452.8979166666686,
      "v": 50
    },
    {
      "midi": 58,
      "hit": false,
      "t": 106643.87243750032,
      "d": 928.4407291666721,
      "v": 50
    },
    {
      "midi": 76,
      "hit": false,
      "t": 106648.401416667,
      "d": 452.8979166666686,
      "v": 50
    },
    {
      "midi": 88,
      "hit": false,
      "t": 106648.401416667,
      "d": 452.8979166666686,
      "v": 50
    },
    {
      "midi": 82,
      "hit": false,
      "t": 106648.401416667,
      "d": 928.4407291666721,
      "v": 50
    },
    {
      "midi": 73,
      "hit": false,
      "t": 107119.41525000033,
      "d": 457.4268958333414,
      "v": 50
    },
    {
      "midi": 85,
      "hit": false,
      "t": 107123.944229167,
      "d": 452.8979166666686,
      "v": 50
    },
    {
      "midi": 69,
      "hit": false,
      "t": 107599.487041667,
      "d": 452.8979166666686,
      "v": 50
    },
    {
      "midi": 59,
      "hit": false,
      "t": 107599.487041667,
      "d": 928.4407291666721,
      "v": 50
    },
    {
      "midi": 44,
      "hit": false,
      "t": 107599.487041667,
      "d": 1884.0553333333519,
      "v": 50
    },
    {
      "midi": 54,
      "hit": false,
      "t": 107599.487041667,
      "d": 1884.0553333333519,
      "v": 50
    },
    {
      "midi": 93,
      "hit": false,
      "t": 107604.01602083367,
      "d": 452.8979166666686,
      "v": 50
    },
    {
      "midi": 71,
      "hit": false,
      "t": 107604.01602083367,
      "d": 923.9117499999993,
      "v": 50
    },
    {
      "midi": 68,
      "hit": false,
      "t": 108075.029854167,
      "d": 452.8979166666686,
      "v": 50
    },
    {
      "midi": 80,
      "hit": false,
      "t": 108075.029854167,
      "d": 452.8979166666686,
      "v": 50
    },
    {
      "midi": 64,
      "hit": false,
      "t": 108550.57266666701,
      "d": 452.8979166666686,
      "v": 50
    },
    {
      "midi": 60,
      "hit": false,
      "t": 108550.57266666701,
      "d": 928.4407291666721,
      "v": 50
    },
    {
      "midi": 72,
      "hit": false,
      "t": 108555.10164583368,
      "d": 452.8979166666686,
      "v": 50
    },
    {
      "midi": 76,
      "hit": false,
      "t": 108555.10164583368,
      "d": 452.8979166666686,
      "v": 50
    },
    {
      "midi": 61,
      "hit": false,
      "t": 109026.11547916701,
      "d": 457.4268958333414,
      "v": 50
    },
    {
      "midi": 73,
      "hit": false,
      "t": 109026.11547916701,
      "d": 457.4268958333414,
      "v": 50
    },
    {
      "midi": 37,
      "hit": false,
      "t": 109506.18727083369,
      "d": 1426.628437499996,
      "v": 50
    },
    {
      "midi": 61,
      "hit": false,
      "t": 109506.18727083369,
      "d": 3854.1612708333414,
      "v": 50
    },
    {
      "midi": 49,
      "hit": false,
      "t": 109986.25906250035,
      "d": 466.48485416667245,
      "v": 50
    },
    {
      "midi": 52,
      "hit": false,
      "t": 110470.85983333368,
      "d": 461.95587499999965,
      "v": 50
    },
    {
      "midi": 49,
      "hit": false,
      "t": 110955.46060416702,
      "d": 466.48485416667245,
      "v": 50
    },
    {
      "midi": 64,
      "hit": false,
      "t": 110955.46060416702,
      "d": 466.48485416667245,
      "v": 50
    },
    {
      "midi": 68,
      "hit": false,
      "t": 110955.46060416702,
      "d": 466.48485416667245,
      "v": 50
    },
    {
      "midi": 52,
      "hit": false,
      "t": 111444.59035416703,
      "d": 461.95587499999965,
      "v": 50
    },
    {
      "midi": 64,
      "hit": false,
      "t": 111444.59035416703,
      "d": 946.5566458333342,
      "v": 50
    },
    {
      "midi": 68,
      "hit": false,
      "t": 111444.59035416703,
      "d": 946.5566458333342,
      "v": 50
    },
    {
      "midi": 54,
      "hit": false,
      "t": 111929.19112500036,
      "d": 1431.1574166666687,
      "v": 50
    },
    {
      "midi": 66,
      "hit": false,
      "t": 112413.7918958337,
      "d": 942.0276666666614,
      "v": 50
    },
    {
      "midi": 70,
      "hit": false,
      "t": 112413.7918958337,
      "d": 942.0276666666614,
      "v": 50
    },
    {
      "midi": 37,
      "hit": false,
      "t": 113382.99343750036,
      "d": 1512.6790416666481,
      "v": 50
    },
    {
      "midi": 61,
      "hit": false,
      "t": 113382.99343750036,
      "d": 4080.610229166632,
      "v": 50
    },
    {
      "midi": 49,
      "hit": false,
      "t": 113894.76808333369,
      "d": 489.1297499999928,
      "v": 50
    },
    {
      "midi": 52,
      "hit": false,
      "t": 114406.54272916702,
      "d": 489.1297499999928,
      "v": 50
    },
    {
      "midi": 68,
      "hit": false,
      "t": 114918.31737500035,
      "d": 489.1297499999928,
      "v": 50
    },
    {
      "midi": 49,
      "hit": false,
      "t": 114918.31737500035,
      "d": 493.6587291666656,
      "v": 50
    },
    {
      "midi": 64,
      "hit": false,
      "t": 114918.31737500035,
      "d": 493.6587291666656,
      "v": 50
    },
    {
      "midi": 52,
      "hit": false,
      "t": 115434.62100000035,
      "d": 489.1297499999928,
      "v": 50
    },
    {
      "midi": 68,
      "hit": false,
      "t": 115434.62100000035,
      "d": 1000.9043958333205,
      "v": 50
    },
    {
      "midi": 64,
      "hit": false,
      "t": 115434.62100000035,
      "d": 1005.4333749999932,
      "v": 50
    },
    {
      "midi": 56,
      "hit": false,
      "t": 115946.39564583368,
      "d": 1005.4333749999932,
      "v": 50
    },
    {
      "midi": 71,
      "hit": false,
      "t": 116458.170291667,
      "d": 1005.4333749999932,
      "v": 50
    },
    {
      "midi": 65,
      "hit": false,
      "t": 116462.69927083368,
      "d": 1000.9043958333205,
      "v": 50
    },
    {
      "midi": 49,
      "hit": false,
      "t": 116969.94493750033,
      "d": 493.6587291666656,
      "v": 50
    },
    {
      "midi": 42,
      "hit": false,
      "t": 117490.77754166699,
      "d": 923.9117499999993,
      "v": 60
    },
    {
      "midi": 49,
      "hit": false,
      "t": 117490.77754166699,
      "d": 923.9117499999993,
      "v": 60
    },
    {
      "midi": 58,
      "hit": false,
      "t": 117490.77754166699,
      "d": 923.9117499999993,
      "v": 60
    },
    {
      "midi": 66,
      "hit": false,
      "t": 117490.77754166699,
      "d": 923.9117499999993,
      "v": 60
    },
    {
      "midi": 54,
      "hit": false,
      "t": 118437.33418750032,
      "d": 923.9117499999993,
      "v": 60
    },
    {
      "midi": 58,
      "hit": false,
      "t": 118437.33418750032,
      "d": 923.9117499999993,
      "v": 60
    },
    {
      "midi": 66,
      "hit": false,
      "t": 118437.33418750032,
      "d": 923.9117499999993,
      "v": 60
    },
    {
      "midi": 61,
      "hit": false,
      "t": 119383.89083333366,
      "d": 923.9117499999993,
      "v": 60
    },
    {
      "midi": 66,
      "hit": false,
      "t": 119383.89083333366,
      "d": 923.9117499999993,
      "v": 60
    },
    {
      "midi": 45,
      "hit": false,
      "t": 119383.89083333366,
      "d": 1394.92558333333,
      "v": 60
    },
    {
      "midi": 61,
      "hit": false,
      "t": 120325.91850000032,
      "d": 928.4407291666721,
      "v": 60
    },
    {
      "midi": 66,
      "hit": false,
      "t": 120325.91850000032,
      "d": 928.4407291666721,
      "v": 60
    },
    {
      "midi": 46,
      "hit": false,
      "t": 120796.93233333365,
      "d": 452.8979166666686,
      "v": 60
    },
    {
      "midi": 49,
      "hit": false,
      "t": 121277.00412500033,
      "d": 683.8758541666612,
      "v": 60
    },
    {
      "midi": 59,
      "hit": false,
      "t": 121277.00412500033,
      "d": 923.9117499999993,
      "v": 60
    },
    {
      "midi": 65,
      "hit": false,
      "t": 121277.00412500033,
      "d": 923.9117499999993,
      "v": 60
    },
    {
      "midi": 49,
      "hit": false,
      "t": 121983.52487500032,
      "d": 217.39100000000326,
      "v": 60
    },
    {
      "midi": 51,
      "hit": false,
      "t": 122223.56077083366,
      "d": 688.404833333334,
      "v": 60
    },
    {
      "midi": 59,
      "hit": false,
      "t": 122223.56077083366,
      "d": 923.9117499999993,
      "v": 60
    },
    {
      "midi": 65,
      "hit": false,
      "t": 122223.56077083366,
      "d": 923.9117499999993,
      "v": 60
    },
    {
      "midi": 49,
      "hit": false,
      "t": 122930.08152083366,
      "d": 217.39100000000326,
      "v": 60
    },
    {
      "midi": 57,
      "hit": false,
      "t": 123170.117416667,
      "d": 452.8979166666686,
      "v": 60
    },
    {
      "midi": 59,
      "hit": false,
      "t": 123170.117416667,
      "d": 923.9117499999993,
      "v": 60
    },
    {
      "midi": 65,
      "hit": false,
      "t": 123170.117416667,
      "d": 923.9117499999993,
      "v": 60
    },
    {
      "midi": 57,
      "hit": false,
      "t": 123645.660229167,
      "d": 923.9117499999993,
      "v": 60
    },
    {
      "midi": 59,
      "hit": false,
      "t": 124116.67406250033,
      "d": 923.9117499999993,
      "v": 60
    },
    {
      "midi": 65,
      "hit": false,
      "t": 124116.67406250033,
      "d": 923.9117499999993,
      "v": 60
    },
    {
      "midi": 56,
      "hit": false,
      "t": 124587.68789583366,
      "d": 452.8979166666686,
      "v": 60
    },
    {
      "midi": 57,
      "hit": false,
      "t": 125063.23070833366,
      "d": 452.8979166666686,
      "v": 60
    },
    {
      "midi": 66,
      "hit": false,
      "t": 125063.23070833366,
      "d": 928.4407291666721,
      "v": 60
    },
    {
      "midi": 61,
      "hit": false,
      "t": 125067.75968750034,
      "d": 923.9117499999993,
      "v": 60
    },
    {
      "midi": 49,
      "hit": false,
      "t": 125538.77352083367,
      "d": 448.3689374999958,
      "v": 60
    },
    {
      "midi": 51,
      "hit": false,
      "t": 126009.787354167,
      "d": 452.8979166666686,
      "v": 60
    },
    {
      "midi": 66,
      "hit": false,
      "t": 126009.787354167,
      "d": 928.4407291666721,
      "v": 60
    },
    {
      "midi": 61,
      "hit": false,
      "t": 126014.31633333367,
      "d": 923.9117499999993,
      "v": 60
    },
    {
      "midi": 54,
      "hit": false,
      "t": 126485.330166667,
      "d": 452.8979166666686,
      "v": 60
    },
    {
      "midi": 58,
      "hit": false,
      "t": 126960.872979167,
      "d": 448.3689374999958,
      "v": 60
    },
    {
      "midi": 61,
      "hit": false,
      "t": 126960.872979167,
      "d": 923.9117499999993,
      "v": 60
    },
    {
      "midi": 66,
      "hit": false,
      "t": 126960.872979167,
      "d": 923.9117499999993,
      "v": 60
    },
    {
      "midi": 58,
      "hit": false,
      "t": 127431.88681250034,
      "d": 923.9117499999993,
      "v": 60
    },
    {
      "midi": 59,
      "hit": false,
      "t": 127907.42962500034,
      "d": 923.9117499999993,
      "v": 60
    },
    {
      "midi": 65,
      "hit": false,
      "t": 127907.42962500034,
      "d": 923.9117499999993,
      "v": 60
    },
    {
      "midi": 56,
      "hit": false,
      "t": 128378.44345833367,
      "d": 452.8979166666686,
      "v": 60
    },
    {
      "midi": 54,
      "hit": false,
      "t": 128853.98627083367,
      "d": 452.8979166666686,
      "v": 60
    },
    {
      "midi": 58,
      "hit": false,
      "t": 128853.98627083367,
      "d": 923.9117499999993,
      "v": 60
    },
    {
      "midi": 64,
      "hit": false,
      "t": 128853.98627083367,
      "d": 923.9117499999993,
      "v": 60
    },
    {
      "midi": 46,
      "hit": false,
      "t": 129325.000104167,
      "d": 452.8979166666686,
      "v": 60
    },
    {
      "midi": 49,
      "hit": false,
      "t": 129800.54291666701,
      "d": 452.8979166666686,
      "v": 60
    },
    {
      "midi": 64,
      "hit": false,
      "t": 129800.54291666701,
      "d": 923.9117499999993,
      "v": 60
    },
    {
      "midi": 58,
      "hit": false,
      "t": 129800.54291666701,
      "d": 928.4407291666721,
      "v": 60
    },
    {
      "midi": 52,
      "hit": false,
      "t": 130276.08572916701,
      "d": 448.3689374999958,
      "v": 60
    },
    {
      "midi": 56,
      "hit": false,
      "t": 130747.09956250034,
      "d": 452.8979166666686,
      "v": 60
    },
    {
      "midi": 64,
      "hit": false,
      "t": 130747.09956250034,
      "d": 923.9117499999993,
      "v": 60
    },
    {
      "midi": 58,
      "hit": false,
      "t": 130751.62854166701,
      "d": 919.3827708333265,
      "v": 60
    },
    {
      "midi": 56,
      "hit": false,
      "t": 131222.64237500035,
      "d": 923.9117499999993,
      "v": 60
    },
    {
      "midi": 64,
      "hit": false,
      "t": 131693.65620833368,
      "d": 923.9117499999993,
      "v": 60
    },
    {
      "midi": 58,
      "hit": false,
      "t": 131693.65620833368,
      "d": 928.4407291666721,
      "v": 60
    },
    {
      "midi": 54,
      "hit": false,
      "t": 132164.670041667,
      "d": 452.8979166666686,
      "v": 60
    },
    {
      "midi": 53,
      "hit": false,
      "t": 132640.212854167,
      "d": 923.9117499999993,
      "v": 60
    },
    {
      "midi": 59,
      "hit": false,
      "t": 132644.74183333368,
      "d": 923.9117499999993,
      "v": 60
    },
    {
      "midi": 63,
      "hit": false,
      "t": 132644.74183333368,
      "d": 923.9117499999993,
      "v": 60
    },
    {
      "midi": 54,
      "hit": false,
      "t": 133586.76950000034,
      "d": 452.8979166666686,
      "v": 60
    },
    {
      "midi": 63,
      "hit": false,
      "t": 133586.76950000034,
      "d": 928.4407291666721,
      "v": 60
    },
    {
      "midi": 59,
      "hit": false,
      "t": 133591.29847916702,
      "d": 923.9117499999993,
      "v": 60
    },
    {
      "midi": 42,
      "hit": false,
      "t": 134062.31231250035,
      "d": 448.3689374999958,
      "v": 60
    },
    {
      "midi": 42,
      "hit": false,
      "t": 134533.32614583368,
      "d": 452.8979166666686,
      "v": 60
    },
    {
      "midi": 59,
      "hit": false,
      "t": 134537.85512500035,
      "d": 923.9117499999993,
      "v": 60
    },
    {
      "midi": 63,
      "hit": false,
      "t": 134537.85512500035,
      "d": 923.9117499999993,
      "v": 60
    },
    {
      "midi": 44,
      "hit": false,
      "t": 135008.86895833368,
      "d": 452.8979166666686,
      "v": 60
    },
    {
      "midi": 47,
      "hit": false,
      "t": 135484.41177083369,
      "d": 452.8979166666686,
      "v": 60
    },
    {
      "midi": 59,
      "hit": false,
      "t": 135484.41177083369,
      "d": 923.9117499999993,
      "v": 60
    },
    {
      "midi": 63,
      "hit": false,
      "t": 135484.41177083369,
      "d": 923.9117499999993,
      "v": 60
    },
    {
      "midi": 51,
      "hit": false,
      "t": 135955.42560416702,
      "d": 452.8979166666686,
      "v": 60
    },
    {
      "midi": 53,
      "hit": false,
      "t": 136430.96841666702,
      "d": 452.8979166666686,
      "v": 60
    },
    {
      "midi": 59,
      "hit": false,
      "t": 136430.96841666702,
      "d": 928.4407291666721,
      "v": 60
    },
    {
      "midi": 63,
      "hit": false,
      "t": 136430.96841666702,
      "d": 928.4407291666721,
      "v": 60
    },
    {
      "midi": 54,
      "hit": false,
      "t": 136906.51122916702,
      "d": 448.3689374999958,
      "v": 60
    },
    {
      "midi": 51,
      "hit": false,
      "t": 137377.52506250035,
      "d": 452.8979166666686,
      "v": 60
    },
    {
      "midi": 59,
      "hit": false,
      "t": 137382.05404166703,
      "d": 923.9117499999993,
      "v": 60
    },
    {
      "midi": 63,
      "hit": false,
      "t": 137382.05404166703,
      "d": 923.9117499999993,
      "v": 60
    },
    {
      "midi": 50,
      "hit": false,
      "t": 137853.06787500036,
      "d": 217.39100000000326,
      "v": 60
    },
    {
      "midi": 52,
      "hit": false,
      "t": 138088.57479166702,
      "d": 217.39100000000326,
      "v": 60
    },
    {
      "midi": 50,
      "hit": false,
      "t": 138328.61068750036,
      "d": 606.88320833334,
      "v": 60
    },
    {
      "midi": 59,
      "hit": false,
      "t": 138328.61068750036,
      "d": 923.9117499999993,
      "v": 60
    },
    {
      "midi": 65,
      "hit": false,
      "t": 138328.61068750036,
      "d": 923.9117499999993,
      "v": 60
    },
    {
      "midi": 49,
      "hit": false,
      "t": 138958.13879166704,
      "d": 611.4121874999837,
      "v": 60
    },
    {
      "midi": 59,
      "hit": false,
      "t": 139275.1673333337,
      "d": 923.9117499999993,
      "v": 60
    },
    {
      "midi": 65,
      "hit": false,
      "t": 139275.1673333337,
      "d": 923.9117499999993,
      "v": 60
    },
    {
      "midi": 47,
      "hit": false,
      "t": 139587.66689583368,
      "d": 611.4121875000128,
      "v": 60
    },
    {
      "midi": 66,
      "hit": false,
      "t": 140221.72397916703,
      "d": 923.9117499999993,
      "v": 60
    },
    {
      "midi": 49,
      "hit": false,
      "t": 140221.72397916703,
      "d": 1865.9394166666607,
      "v": 60
    },
    {
      "midi": 58,
      "hit": false,
      "t": 140226.2529583337,
      "d": 919.3827708333265,
      "v": 60
    },
    {
      "midi": 58,
      "hit": false,
      "t": 141168.28062500036,
      "d": 923.9117499999993,
      "v": 60
    },
    {
      "midi": 66,
      "hit": false,
      "t": 141168.28062500036,
      "d": 923.9117499999993,
      "v": 60
    },
    {
      "midi": 49,
      "hit": false,
      "t": 142110.30829166702,
      "d": 452.8979166666686,
      "v": 60
    },
    {
      "midi": 66,
      "hit": false,
      "t": 142110.30829166702,
      "d": 928.4407291666721,
      "v": 60
    },
    {
      "midi": 58,
      "hit": false,
      "t": 142114.8372708337,
      "d": 923.9117499999993,
      "v": 60
    },
    {
      "midi": 46,
      "hit": false,
      "t": 142585.85110416703,
      "d": 452.8979166666686,
      "v": 60
    },
    {
      "midi": 49,
      "hit": false,
      "t": 143056.86493750036,
      "d": 452.8979166666686,
      "v": 60
    },
    {
      "midi": 58,
      "hit": false,
      "t": 143061.39391666703,
      "d": 923.9117499999993,
      "v": 60
    },
    {
      "midi": 66,
      "hit": false,
      "t": 143061.39391666703,
      "d": 923.9117499999993,
      "v": 60
    },
    {
      "midi": 51,
      "hit": false,
      "t": 143532.40775000036,
      "d": 452.8979166666686,
      "v": 60
    },
    {
      "midi": 52,
      "hit": false,
      "t": 144007.95056250037,
      "d": 452.8979166666686,
      "v": 60
    },
    {
      "midi": 68,
      "hit": false,
      "t": 144007.95056250037,
      "d": 923.9117499999993,
      "v": 60
    },
    {
      "midi": 58,
      "hit": false,
      "t": 144007.95056250037,
      "d": 928.4407291666721,
      "v": 60
    },
    {
      "midi": 52,
      "hit": false,
      "t": 144478.9643958337,
      "d": 452.8979166666686,
      "v": 60
    },
    {
      "midi": 52,
      "hit": false,
      "t": 144954.5072083337,
      "d": 452.8979166666686,
      "v": 60
    },
    {
      "midi": 58,
      "hit": false,
      "t": 144959.03618750037,
      "d": 923.9117499999993,
      "v": 60
    },
    {
      "midi": 68,
      "hit": false,
      "t": 144959.03618750037,
      "d": 923.9117499999993,
      "v": 60
    },
    {
      "midi": 52,
      "hit": false,
      "t": 145430.0500208337,
      "d": 217.39100000000326,
      "v": 60
    },
    {
      "midi": 54,
      "hit": false,
      "t": 145665.55693750037,
      "d": 217.39100000000326,
      "v": 60
    },
    {
      "midi": 52,
      "hit": false,
      "t": 145905.5928333337,
      "d": 452.8979166666686,
      "v": 60
    },
    {
      "midi": 58,
      "hit": false,
      "t": 145905.5928333337,
      "d": 923.9117499999993,
      "v": 60
    },
    {
      "midi": 68,
      "hit": false,
      "t": 145905.5928333337,
      "d": 923.9117499999993,
      "v": 60
    },
    {
      "midi": 51,
      "hit": false,
      "t": 146376.60666666704,
      "d": 1394.92558333333,
      "v": 60
    },
    {
      "midi": 58,
      "hit": false,
      "t": 146852.14947916704,
      "d": 923.9117499999993,
      "v": 60
    },
    {
      "midi": 67,
      "hit": false,
      "t": 146852.14947916704,
      "d": 923.9117499999993,
      "v": 60
    },
    {
      "midi": 60,
      "hit": false,
      "t": 147798.70612500038,
      "d": 923.9117499999993,
      "v": 60
    },
    {
      "midi": 66,
      "hit": false,
      "t": 147798.70612500038,
      "d": 923.9117499999993,
      "v": 60
    },
    {
      "midi": 56,
      "hit": false,
      "t": 148034.21304166704,
      "d": 217.39100000000326,
      "v": 60
    },
    {
      "midi": 57,
      "hit": false,
      "t": 148269.7199583337,
      "d": 452.8979166666686,
      "v": 60
    },
    {
      "midi": 57,
      "hit": false,
      "t": 148745.2627708337,
      "d": 452.8979166666686,
      "v": 60
    },
    {
      "midi": 60,
      "hit": false,
      "t": 148745.2627708337,
      "d": 923.9117499999993,
      "v": 60
    },
    {
      "midi": 66,
      "hit": false,
      "t": 148745.2627708337,
      "d": 923.9117499999993,
      "v": 60
    },
    {
      "midi": 57,
      "hit": false,
      "t": 149216.27660416704,
      "d": 452.8979166666686,
      "v": 60
    },
    {
      "midi": 57,
      "hit": false,
      "t": 149691.81941666704,
      "d": 452.8979166666686,
      "v": 60
    },
    {
      "midi": 60,
      "hit": false,
      "t": 149691.81941666704,
      "d": 923.9117499999993,
      "v": 60
    },
    {
      "midi": 66,
      "hit": false,
      "t": 149691.81941666704,
      "d": 923.9117499999993,
      "v": 60
    },
    {
      "midi": 58,
      "hit": false,
      "t": 150167.36222916705,
      "d": 1394.92558333333,
      "v": 60
    },
    {
      "midi": 60,
      "hit": false,
      "t": 150638.37606250038,
      "d": 923.9117499999993,
      "v": 60
    },
    {
      "midi": 66,
      "hit": false,
      "t": 150638.37606250038,
      "d": 923.9117499999993,
      "v": 60
    },
    {
      "midi": 55,
      "hit": false,
      "t": 151584.9327083337,
      "d": 452.8979166666686,
      "v": 60
    },
    {
      "midi": 59,
      "hit": false,
      "t": 151584.9327083337,
      "d": 923.9117499999993,
      "v": 60
    },
    {
      "midi": 65,
      "hit": false,
      "t": 151584.9327083337,
      "d": 923.9117499999993,
      "v": 60
    },
    {
      "midi": 56,
      "hit": false,
      "t": 152055.94654166704,
      "d": 452.8979166666686,
      "v": 60
    },
    {
      "midi": 44,
      "hit": false,
      "t": 152531.48935416705,
      "d": 923.9117499999993,
      "v": 60
    },
    {
      "midi": 59,
      "hit": false,
      "t": 152531.48935416705,
      "d": 923.9117499999993,
      "v": 60
    },
    {
      "midi": 65,
      "hit": false,
      "t": 152531.48935416705,
      "d": 923.9117499999993,
      "v": 60
    },
    {
      "midi": 48,
      "hit": false,
      "t": 153478.04600000038,
      "d": 452.8979166666686,
      "v": 60
    },
    {
      "midi": 59,
      "hit": false,
      "t": 153478.04600000038,
      "d": 923.9117499999993,
      "v": 60
    },
    {
      "midi": 65,
      "hit": false,
      "t": 153478.04600000038,
      "d": 923.9117499999993,
      "v": 60
    },
    {
      "midi": 49,
      "hit": false,
      "t": 153949.0598333337,
      "d": 452.8979166666686,
      "v": 60
    },
    {
      "midi": 37,
      "hit": false,
      "t": 154424.60264583371,
      "d": 923.9117499999993,
      "v": 60
    },
    {
      "midi": 65,
      "hit": false,
      "t": 154424.60264583371,
      "d": 923.9117499999993,
      "v": 60
    },
    {
      "midi": 59,
      "hit": false,
      "t": 154429.1316250004,
      "d": 923.9117499999993,
      "v": 60
    },
    {
      "midi": 41,
      "hit": false,
      "t": 155371.15929166705,
      "d": 452.8979166666686,
      "v": 60
    },
    {
      "midi": 61,
      "hit": false,
      "t": 155371.15929166705,
      "d": 1870.4683958333335,
      "v": 60
    },
    {
      "midi": 58,
      "hit": false,
      "t": 155375.68827083372,
      "d": 1865.9394166666607,
      "v": 60
    },
    {
      "midi": 42,
      "hit": false,
      "t": 155846.70210416705,
      "d": 448.3689374999958,
      "v": 60
    },
    {
      "midi": 44,
      "hit": false,
      "t": 156317.71593750038,
      "d": 452.8979166666686,
      "v": 60
    },
    {
      "midi": 42,
      "hit": false,
      "t": 156788.7297708337,
      "d": 452.8979166666686,
      "v": 60
    },
    {
      "midi": 42,
      "hit": false,
      "t": 157264.27258333372,
      "d": 452.8979166666686,
      "v": 60
    },
    {
      "midi": 59,
      "hit": false,
      "t": 157264.27258333372,
      "d": 1870.4683958333335,
      "v": 60
    },
    {
      "midi": 63,
      "hit": false,
      "t": 157264.27258333372,
      "d": 1870.4683958333335,
      "v": 60
    },
    {
      "midi": 41,
      "hit": false,
      "t": 157735.28641666705,
      "d": 452.8979166666686,
      "v": 60
    },
    {
      "midi": 42,
      "hit": false,
      "t": 158206.30025000038,
      "d": 452.8979166666686,
      "v": 60
    },
    {
      "midi": 44,
      "hit": false,
      "t": 158681.84306250038,
      "d": 448.3689374999958,
      "v": 60
    },
    {
      "midi": 42,
      "hit": false,
      "t": 159157.3858750004,
      "d": 923.9117499999993,
      "v": 60
    },
    {
      "midi": 58,
      "hit": false,
      "t": 159157.3858750004,
      "d": 923.9117499999993,
      "v": 60
    },
    {
      "midi": 61,
      "hit": false,
      "t": 159157.3858750004,
      "d": 923.9117499999993,
      "v": 60
    },
    {
      "midi": 44,
      "hit": false,
      "t": 160099.41354166705,
      "d": 923.9117499999993,
      "v": 60
    },
    {
      "midi": 46,
      "hit": false,
      "t": 161041.4412083337,
      "d": 923.9117499999993,
      "v": 60
    },
    {
      "midi": 49,
      "hit": false,
      "t": 161983.46887500037,
      "d": 923.9117499999993,
      "v": 60
    },
    {
      "midi": 53,
      "hit": false,
      "t": 162930.0255208337,
      "d": 471.0138333333307,
      "v": 60
    },
    {
      "midi": 63,
      "hit": false,
      "t": 162930.0255208337,
      "d": 1938.403083333309,
      "v": 60
    },
    {
      "midi": 68,
      "hit": false,
      "t": 162930.0255208337,
      "d": 1938.403083333309,
      "v": 60
    },
    {
      "midi": 72,
      "hit": false,
      "t": 162930.0255208337,
      "d": 1938.403083333309,
      "v": 60
    },
    {
      "midi": 54,
      "hit": false,
      "t": 163419.1552708337,
      "d": 471.0138333333307,
      "v": 60
    },
    {
      "midi": 56,
      "hit": false,
      "t": 163908.2850208337,
      "d": 471.0138333333307,
      "v": 60
    },
    {
      "midi": 54,
      "hit": false,
      "t": 164397.41477083368,
      "d": 471.0138333333307,
      "v": 60
    },
    {
      "midi": 54,
      "hit": false,
      "t": 164891.07350000035,
      "d": 471.0138333333307,
      "v": 60
    },
    {
      "midi": 71,
      "hit": false,
      "t": 164891.07350000035,
      "d": 1942.9320624999818,
      "v": 60
    },
    {
      "midi": 62,
      "hit": false,
      "t": 164895.60247916702,
      "d": 1938.403083333309,
      "v": 60
    },
    {
      "midi": 67,
      "hit": false,
      "t": 164895.60247916702,
      "d": 1938.403083333309,
      "v": 60
    },
    {
      "midi": 53,
      "hit": false,
      "t": 165380.20325000034,
      "d": 471.0138333333307,
      "v": 60
    },
    {
      "midi": 54,
      "hit": false,
      "t": 165873.861979167,
      "d": 466.4848541666579,
      "v": 60
    },
    {
      "midi": 56,
      "hit": false,
      "t": 166362.991729167,
      "d": 466.4848541666579,
      "v": 60
    },
    {
      "midi": 61,
      "hit": false,
      "t": 166856.65045833366,
      "d": 2065.214500000002,
      "v": 60
    },
    {
      "midi": 66,
      "hit": false,
      "t": 166856.65045833366,
      "d": 2065.214500000002,
      "v": 60
    },
    {
      "midi": 70,
      "hit": false,
      "t": 166856.65045833366,
      "d": 2065.214500000002,
      "v": 60
    },
    {
      "midi": 54,
      "hit": false,
      "t": 166856.65045833366,
      "d": 4153.073895833339,
      "v": 60
    },
    {
      "midi": 60,
      "hit": false,
      "t": 168944.509854167,
      "d": 2065.214500000002,
      "v": 60
    },
    {
      "midi": 63,
      "hit": false,
      "t": 168944.509854167,
      "d": 2065.214500000002,
      "v": 60
    },
    {
      "midi": 68,
      "hit": false,
      "t": 168944.509854167,
      "d": 2065.214500000002,
      "v": 60
    },
    {
      "midi": 37,
      "hit": false,
      "t": 171036.898229167,
      "d": 919.3827708333265,
      "v": 40
    },
    {
      "midi": 52,
      "hit": false,
      "t": 171036.898229167,
      "d": 919.3827708333265,
      "v": 40
    },
    {
      "midi": 44,
      "hit": false,
      "t": 171978.92589583367,
      "d": 919.3827708333265,
      "v": 40
    },
    {
      "midi": 53,
      "hit": false,
      "t": 171978.92589583367,
      "d": 923.9117499999993,
      "v": 40
    },
    {
      "midi": 54,
      "hit": false,
      "t": 172920.95356250033,
      "d": 923.9117499999993,
      "v": 40
    },
    {
      "midi": 61,
      "hit": false,
      "t": 172920.95356250033,
      "d": 923.9117499999993,
      "v": 40
    },
    {
      "midi": 44,
      "hit": false,
      "t": 173867.51020833367,
      "d": 919.3827708333265,
      "v": 40
    },
    {
      "midi": 52,
      "hit": false,
      "t": 173867.51020833367,
      "d": 919.3827708333265,
      "v": 40
    },
    {
      "midi": 37,
      "hit": false,
      "t": 174809.53787500033,
      "d": 923.9117499999993,
      "v": 40
    },
    {
      "midi": 52,
      "hit": false,
      "t": 174809.53787500033,
      "d": 923.9117499999993,
      "v": 40
    },
    {
      "midi": 44,
      "hit": false,
      "t": 175751.565541667,
      "d": 923.9117499999993,
      "v": 40
    },
    {
      "midi": 53,
      "hit": false,
      "t": 175756.09452083366,
      "d": 919.3827708333265,
      "v": 40
    },
    {
      "midi": 54,
      "hit": false,
      "t": 176698.12218750032,
      "d": 923.9117499999993,
      "v": 40
    },
    {
      "midi": 61,
      "hit": false,
      "t": 176698.12218750032,
      "d": 923.9117499999993,
      "v": 40
    },
    {
      "midi": 68,
      "hit": false,
      "t": 177169.13602083366,
      "d": 452.8979166666686,
      "v": 40
    },
    {
      "midi": 71,
      "hit": false,
      "t": 177644.67883333366,
      "d": 452.8979166666686,
      "v": 40
    },
    {
      "midi": 44,
      "hit": false,
      "t": 177644.67883333366,
      "d": 923.9117499999993,
      "v": 40
    },
    {
      "midi": 52,
      "hit": false,
      "t": 177644.67883333366,
      "d": 923.9117499999993,
      "v": 40
    },
    {
      "midi": 68,
      "hit": false,
      "t": 178115.692666667,
      "d": 452.8979166666686,
      "v": 40
    },
    {
      "midi": 71,
      "hit": false,
      "t": 178591.235479167,
      "d": 452.8979166666686,
      "v": 40
    },
    {
      "midi": 37,
      "hit": false,
      "t": 178591.235479167,
      "d": 923.9117499999993,
      "v": 40
    },
    {
      "midi": 52,
      "hit": false,
      "t": 178591.235479167,
      "d": 928.4407291666721,
      "v": 40
    },
    {
      "midi": 68,
      "hit": false,
      "t": 179066.778291667,
      "d": 1394.92558333333,
      "v": 40
    },
    {
      "midi": 44,
      "hit": false,
      "t": 179537.79212500033,
      "d": 923.9117499999993,
      "v": 40
    },
    {
      "midi": 53,
      "hit": false,
      "t": 179537.79212500033,
      "d": 923.9117499999993,
      "v": 40
    },
    {
      "midi": 54,
      "hit": false,
      "t": 180484.34877083366,
      "d": 919.3827708333265,
      "v": 40
    },
    {
      "midi": 61,
      "hit": false,
      "t": 180484.34877083366,
      "d": 923.9117499999993,
      "v": 40
    },
    {
      "midi": 68,
      "hit": false,
      "t": 180955.362604167,
      "d": 452.8979166666686,
      "v": 40
    },
    {
      "midi": 71,
      "hit": false,
      "t": 181430.905416667,
      "d": 448.3689374999958,
      "v": 40
    },
    {
      "midi": 44,
      "hit": false,
      "t": 181430.905416667,
      "d": 923.9117499999993,
      "v": 40
    },
    {
      "midi": 52,
      "hit": false,
      "t": 181430.905416667,
      "d": 923.9117499999993,
      "v": 40
    },
    {
      "midi": 68,
      "hit": false,
      "t": 181901.91925000033,
      "d": 452.8979166666686,
      "v": 40
    },
    {
      "midi": 71,
      "hit": false,
      "t": 182377.46206250033,
      "d": 452.8979166666686,
      "v": 40
    },
    {
      "midi": 37,
      "hit": false,
      "t": 182377.46206250033,
      "d": 923.9117499999993,
      "v": 40
    },
    {
      "midi": 52,
      "hit": false,
      "t": 182377.46206250033,
      "d": 923.9117499999993,
      "v": 40
    },
    {
      "midi": 68,
      "hit": false,
      "t": 182853.00487500033,
      "d": 1394.92558333333,
      "v": 40
    },
    {
      "midi": 44,
      "hit": false,
      "t": 183324.01870833366,
      "d": 919.3827708333265,
      "v": 40
    },
    {
      "midi": 53,
      "hit": false,
      "t": 183324.01870833366,
      "d": 923.9117499999993,
      "v": 40
    },
    {
      "midi": 54,
      "hit": false,
      "t": 184270.575354167,
      "d": 919.3827708333265,
      "v": 40
    },
    {
      "midi": 61,
      "hit": false,
      "t": 184270.575354167,
      "d": 923.9117499999993,
      "v": 40
    },
    {
      "midi": 68,
      "hit": false,
      "t": 184741.58918750033,
      "d": 452.8979166666686,
      "v": 40
    },
    {
      "midi": 44,
      "hit": false,
      "t": 185212.60302083366,
      "d": 928.4407291666721,
      "v": 40
    },
    {
      "midi": 52,
      "hit": false,
      "t": 185212.60302083366,
      "d": 928.4407291666721,
      "v": 40
    },
    {
      "midi": 71,
      "hit": false,
      "t": 185217.13200000033,
      "d": 448.3689374999958,
      "v": 40
    },
    {
      "midi": 68,
      "hit": false,
      "t": 185688.14583333366,
      "d": 452.8979166666686,
      "v": 40
    },
    {
      "midi": 71,
      "hit": false,
      "t": 186163.68864583367,
      "d": 452.8979166666686,
      "v": 40
    },
    {
      "midi": 37,
      "hit": false,
      "t": 186163.68864583367,
      "d": 923.9117499999993,
      "v": 40
    },
    {
      "midi": 52,
      "hit": false,
      "t": 186163.68864583367,
      "d": 923.9117499999993,
      "v": 40
    },
    {
      "midi": 68,
      "hit": false,
      "t": 186639.23145833367,
      "d": 452.8979166666686,
      "v": 40
    },
    {
      "midi": 71,
      "hit": false,
      "t": 187110.245291667,
      "d": 452.8979166666686,
      "v": 40
    },
    {
      "midi": 44,
      "hit": false,
      "t": 187110.245291667,
      "d": 923.9117499999993,
      "v": 40
    },
    {
      "midi": 53,
      "hit": false,
      "t": 187110.245291667,
      "d": 923.9117499999993,
      "v": 40
    },
    {
      "midi": 68,
      "hit": false,
      "t": 187585.788104167,
      "d": 452.8979166666686,
      "v": 40
    },
    {
      "midi": 54,
      "hit": false,
      "t": 188056.80193750034,
      "d": 928.4407291666721,
      "v": 40
    },
    {
      "midi": 71,
      "hit": false,
      "t": 188061.330916667,
      "d": 448.3689374999958,
      "v": 40
    },
    {
      "midi": 61,
      "hit": false,
      "t": 188061.330916667,
      "d": 923.9117499999993,
      "v": 40
    },
    {
      "midi": 68,
      "hit": false,
      "t": 188532.34475000034,
      "d": 452.8979166666686,
      "v": 40
    },
    {
      "midi": 44,
      "hit": false,
      "t": 189003.35858333367,
      "d": 928.4407291666721,
      "v": 40
    },
    {
      "midi": 71,
      "hit": false,
      "t": 189007.88756250034,
      "d": 452.8979166666686,
      "v": 40
    },
    {
      "midi": 52,
      "hit": false,
      "t": 189007.88756250034,
      "d": 923.9117499999993,
      "v": 40
    },
    {
      "midi": 68,
      "hit": false,
      "t": 189478.90139583367,
      "d": 452.8979166666686,
      "v": 40
    },
    {
      "midi": 37,
      "hit": false,
      "t": 189954.44420833368,
      "d": 928.4407291666721,
      "v": 40
    },
    {
      "midi": 52,
      "hit": false,
      "t": 189954.44420833368,
      "d": 928.4407291666721,
      "v": 40
    },
    {
      "midi": 73,
      "hit": false,
      "t": 189958.97318750035,
      "d": 212.86202083333046,
      "v": 40
    },
    {
      "midi": 71,
      "hit": false,
      "t": 190194.480104167,
      "d": 212.86202083333046,
      "v": 40
    },
    {
      "midi": 68,
      "hit": false,
      "t": 190429.98702083368,
      "d": 1394.92558333333,
      "v": 40
    },
    {
      "midi": 44,
      "hit": false,
      "t": 190901.000854167,
      "d": 923.9117499999993,
      "v": 40
    },
    {
      "midi": 53,
      "hit": false,
      "t": 190901.000854167,
      "d": 923.9117499999993,
      "v": 40
    },
    {
      "midi": 54,
      "hit": false,
      "t": 191847.55750000034,
      "d": 923.9117499999993,
      "v": 40
    },
    {
      "midi": 61,
      "hit": false,
      "t": 191847.55750000034,
      "d": 923.9117499999993,
      "v": 40
    },
    {
      "midi": 73,
      "hit": false,
      "t": 192477.08560416702,
      "d": 611.4121874999837,
      "v": 40
    },
    {
      "midi": 44,
      "hit": false,
      "t": 192789.585166667,
      "d": 928.4407291666721,
      "v": 40
    },
    {
      "midi": 52,
      "hit": false,
      "t": 192794.11414583368,
      "d": 923.9117499999993,
      "v": 40
    },
    {
      "midi": 73,
      "hit": false,
      "t": 193106.61370833367,
      "d": 611.4121875000128,
      "v": 40
    },
    {
      "midi": 42,
      "hit": false,
      "t": 193740.670791667,
      "d": 923.9117499999993,
      "v": 40
    },
    {
      "midi": 58,
      "hit": false,
      "t": 193740.670791667,
      "d": 923.9117499999993,
      "v": 40
    },
    {
      "midi": 73,
      "hit": false,
      "t": 193740.670791667,
      "d": 923.9117499999993,
      "v": 40
    },
    {
      "midi": 51,
      "hit": false,
      "t": 194687.22743750035,
      "d": 923.9117499999993,
      "v": 40
    },
    {
      "midi": 59,
      "hit": false,
      "t": 194687.22743750035,
      "d": 923.9117499999993,
      "v": 40
    },
    {
      "midi": 78,
      "hit": false,
      "t": 194687.22743750035,
      "d": 923.9117499999993,
      "v": 40
    },
    {
      "midi": 60,
      "hit": false,
      "t": 195629.255104167,
      "d": 923.9117499999993,
      "v": 40
    },
    {
      "midi": 66,
      "hit": false,
      "t": 195633.78408333368,
      "d": 919.3827708333265,
      "v": 40
    },
    {
      "midi": 82,
      "hit": false,
      "t": 195633.78408333368,
      "d": 923.9117499999993,
      "v": 40
    },
    {
      "midi": 51,
      "hit": false,
      "t": 196575.81175000034,
      "d": 923.9117499999993,
      "v": 40
    },
    {
      "midi": 59,
      "hit": false,
      "t": 196580.34072916702,
      "d": 923.9117499999993,
      "v": 40
    },
    {
      "midi": 78,
      "hit": false,
      "t": 196580.34072916702,
      "d": 923.9117499999993,
      "v": 40
    },
    {
      "midi": 42,
      "hit": false,
      "t": 197522.36839583368,
      "d": 928.440729166643,
      "v": 40
    },
    {
      "midi": 73,
      "hit": false,
      "t": 197526.89737500035,
      "d": 99.63754166665603,
      "v": 40
    },
    {
      "midi": 58,
      "hit": false,
      "t": 197526.89737500035,
      "d": 928.440729166643,
      "v": 40
    },
    {
      "midi": 75,
      "hit": false,
      "t": 197644.65083333367,
      "d": 99.63754166665603,
      "v": 40
    },
    {
      "midi": 73,
      "hit": false,
      "t": 197762.404291667,
      "d": 217.39100000000326,
      "v": 40
    },
    {
      "midi": 70,
      "hit": false,
      "t": 198002.44018750032,
      "d": 452.8979166666686,
      "v": 40
    },
    {
      "midi": 43,
      "hit": false,
      "t": 198473.45402083365,
      "d": 928.4407291666721,
      "v": 40
    },
    {
      "midi": 68,
      "hit": false,
      "t": 198477.98300000033,
      "d": 448.3689374999958,
      "v": 40
    },
    {
      "midi": 59,
      "hit": false,
      "t": 198477.98300000033,
      "d": 923.9117499999993,
      "v": 40
    },
    {
      "midi": 67,
      "hit": false,
      "t": 198948.99683333366,
      "d": 452.8979166666686,
      "v": 40
    },
    {
      "midi": 66,
      "hit": false,
      "t": 199424.53964583366,
      "d": 452.8979166666686,
      "v": 40
    },
    {
      "midi": 44,
      "hit": false,
      "t": 199424.53964583366,
      "d": 923.9117499999993,
      "v": 40
    },
    {
      "midi": 60,
      "hit": false,
      "t": 199424.53964583366,
      "d": 1870.4683958333335,
      "v": 40
    },
    {
      "midi": 75,
      "hit": false,
      "t": 199895.553479167,
      "d": 923.9117499999993,
      "v": 40
    },
    {
      "midi": 56,
      "hit": false,
      "t": 200366.56731250032,
      "d": 928.4407291666721,
      "v": 40
    },
    {
      "midi": 73,
      "hit": false,
      "t": 200837.58114583365,
      "d": 217.39100000000326,
      "v": 40
    },
    {
      "midi": 75,
      "hit": false,
      "t": 201077.617041667,
      "d": 217.39100000000326,
      "v": 40
    },
    {
      "midi": 73,
      "hit": false,
      "t": 201317.65293750033,
      "d": 217.39100000000326,
      "v": 40
    },
    {
      "midi": 52,
      "hit": false,
      "t": 201317.65293750033,
      "d": 928.4407291666721,
      "v": 40
    },
    {
      "midi": 58,
      "hit": false,
      "t": 201317.65293750033,
      "d": 928.4407291666721,
      "v": 40
    },
    {
      "midi": 49,
      "hit": false,
      "t": 201317.65293750033,
      "d": 3763.581687500002,
      "v": 40
    },
    {
      "midi": 75,
      "hit": false,
      "t": 201557.68883333367,
      "d": 212.86202083333046,
      "v": 40
    },
    {
      "midi": 73,
      "hit": false,
      "t": 201793.19575000033,
      "d": 217.39100000000326,
      "v": 40
    },
    {
      "midi": 75,
      "hit": false,
      "t": 202028.702666667,
      "d": 217.39100000000326,
      "v": 40
    },
    {
      "midi": 53,
      "hit": false,
      "t": 202268.73856250034,
      "d": 923.9117499999993,
      "v": 40
    },
    {
      "midi": 57,
      "hit": false,
      "t": 202268.73856250034,
      "d": 923.9117499999993,
      "v": 40
    },
    {
      "midi": 73,
      "hit": false,
      "t": 202268.73856250034,
      "d": 2812.496062499995,
      "v": 40
    },
    {
      "midi": 54,
      "hit": false,
      "t": 203210.766229167,
      "d": 923.9117499999993,
      "v": 40
    },
    {
      "midi": 56,
      "hit": false,
      "t": 203215.29520833367,
      "d": 919.3827708333265,
      "v": 40
    },
    {
      "midi": 53,
      "hit": false,
      "t": 204157.32287500033,
      "d": 923.9117499999993,
      "v": 40
    },
    {
      "midi": 57,
      "hit": false,
      "t": 204157.32287500033,
      "d": 923.9117499999993,
      "v": 40
    },
    {
      "midi": 52,
      "hit": false,
      "t": 205103.87952083367,
      "d": 923.9117499999993,
      "v": 40
    },
    {
      "midi": 58,
      "hit": false,
      "t": 205103.87952083367,
      "d": 923.9117499999993,
      "v": 40
    },
    {
      "midi": 73,
      "hit": false,
      "t": 205103.87952083367,
      "d": 1870.4683958333335,
      "v": 40
    },
    {
      "midi": 49,
      "hit": false,
      "t": 205103.87952083367,
      "d": 3768.1106666666747,
      "v": 40
    },
    {
      "midi": 53,
      "hit": false,
      "t": 206050.436166667,
      "d": 919.3827708333265,
      "v": 40
    },
    {
      "midi": 57,
      "hit": false,
      "t": 206050.436166667,
      "d": 919.3827708333265,
      "v": 40
    },
    {
      "midi": 54,
      "hit": false,
      "t": 206992.46383333366,
      "d": 923.9117499999993,
      "v": 40
    },
    {
      "midi": 56,
      "hit": false,
      "t": 206992.46383333366,
      "d": 928.4407291666721,
      "v": 40
    },
    {
      "midi": 73,
      "hit": false,
      "t": 207463.477666667,
      "d": 457.4268958333414,
      "v": 40
    },
    {
      "midi": 85,
      "hit": false,
      "t": 207463.477666667,
      "d": 457.4268958333414,
      "v": 40
    },
    {
      "midi": 76,
      "hit": false,
      "t": 207943.54945833367,
      "d": 452.8979166666686,
      "v": 40
    },
    {
      "midi": 88,
      "hit": false,
      "t": 207943.54945833367,
      "d": 452.8979166666686,
      "v": 40
    },
    {
      "midi": 53,
      "hit": false,
      "t": 207943.54945833367,
      "d": 928.4407291666721,
      "v": 40
    },
    {
      "midi": 57,
      "hit": false,
      "t": 207943.54945833367,
      "d": 928.4407291666721,
      "v": 40
    },
    {
      "midi": 73,
      "hit": false,
      "t": 208414.563291667,
      "d": 457.4268958333414,
      "v": 40
    },
    {
      "midi": 85,
      "hit": false,
      "t": 208414.563291667,
      "d": 457.4268958333414,
      "v": 40
    },
    {
      "midi": 76,
      "hit": false,
      "t": 208894.63508333368,
      "d": 452.8979166666686,
      "v": 80
    },
    {
      "midi": 88,
      "hit": false,
      "t": 208894.63508333368,
      "d": 457.4268958333414,
      "v": 80
    },
    {
      "midi": 42,
      "hit": false,
      "t": 208894.63508333368,
      "d": 928.4407291666721,
      "v": 80
    },
    {
      "midi": 56,
      "hit": false,
      "t": 208894.63508333368,
      "d": 928.4407291666721,
      "v": 80
    },
    {
      "midi": 82,
      "hit": false,
      "t": 208899.16406250035,
      "d": 923.9117499999993,
      "v": 80
    },
    {
      "midi": 78,
      "hit": false,
      "t": 209370.17789583368,
      "d": 1399.4545625000028,
      "v": 80
    },
    {
      "midi": 90,
      "hit": false,
      "t": 209370.17789583368,
      "d": 1399.4545625000028,
      "v": 80
    },
    {
      "midi": 49,
      "hit": false,
      "t": 209845.72070833368,
      "d": 923.9117499999993,
      "v": 80
    },
    {
      "midi": 57,
      "hit": false,
      "t": 209845.72070833368,
      "d": 923.9117499999993,
      "v": 80
    },
    {
      "midi": 81,
      "hit": false,
      "t": 209845.72070833368,
      "d": 923.9117499999993,
      "v": 80
    },
    {
      "midi": 52,
      "hit": false,
      "t": 210792.27735416702,
      "d": 928.4407291666721,
      "v": 80
    },
    {
      "midi": 58,
      "hit": false,
      "t": 210792.27735416702,
      "d": 928.4407291666721,
      "v": 80
    },
    {
      "midi": 80,
      "hit": false,
      "t": 210792.27735416702,
      "d": 928.4407291666721,
      "v": 80
    },
    {
      "midi": 73,
      "hit": false,
      "t": 211263.29118750035,
      "d": 457.4268958333414,
      "v": 80
    },
    {
      "midi": 85,
      "hit": false,
      "t": 211267.82016666702,
      "d": 452.8979166666686,
      "v": 80
    },
    {
      "midi": 76,
      "hit": false,
      "t": 211743.36297916702,
      "d": 452.8979166666686,
      "v": 80
    },
    {
      "midi": 88,
      "hit": false,
      "t": 211743.36297916702,
      "d": 452.8979166666686,
      "v": 80
    },
    {
      "midi": 42,
      "hit": false,
      "t": 211743.36297916702,
      "d": 928.4407291666721,
      "v": 80
    },
    {
      "midi": 56,
      "hit": false,
      "t": 211743.36297916702,
      "d": 928.4407291666721,
      "v": 80
    },
    {
      "midi": 82,
      "hit": false,
      "t": 211743.36297916702,
      "d": 932.9697083333449,
      "v": 80
    },
    {
      "midi": 73,
      "hit": false,
      "t": 212218.90579166703,
      "d": 452.8979166666686,
      "v": 80
    },
    {
      "midi": 85,
      "hit": false,
      "t": 212218.90579166703,
      "d": 452.8979166666686,
      "v": 80
    },
    {
      "midi": 57,
      "hit": false,
      "t": 212694.44860416703,
      "d": 923.9117499999993,
      "v": 40
    },
    {
      "midi": 49,
      "hit": false,
      "t": 212694.44860416703,
      "d": 1870.4683958333335,
      "v": 40
    },
    {
      "midi": 43,
      "hit": false,
      "t": 212698.9775833337,
      "d": 1870.4683958333335,
      "v": 40
    },
    {
      "midi": 73,
      "hit": false,
      "t": 213169.99141666704,
      "d": 452.8979166666686,
      "v": 40
    },
    {
      "midi": 76,
      "hit": false,
      "t": 213641.00525000037,
      "d": 452.8979166666686,
      "v": 40
    },
    {
      "midi": 58,
      "hit": false,
      "t": 213641.00525000037,
      "d": 923.9117499999993,
      "v": 40
    },
    {
      "midi": 73,
      "hit": false,
      "t": 214116.54806250037,
      "d": 452.8979166666686,
      "v": 40
    },
    {
      "midi": 69,
      "hit": false,
      "t": 214592.09087500037,
      "d": 452.8979166666686,
      "v": 40
    },
    {
      "midi": 59,
      "hit": false,
      "t": 214592.09087500037,
      "d": 923.9117499999993,
      "v": 40
    },
    {
      "midi": 44,
      "hit": false,
      "t": 214592.09087500037,
      "d": 1870.4683958333335,
      "v": 40
    },
    {
      "midi": 54,
      "hit": false,
      "t": 214592.09087500037,
      "d": 1870.4683958333335,
      "v": 40
    },
    {
      "midi": 68,
      "hit": false,
      "t": 215063.1047083337,
      "d": 452.8979166666686,
      "v": 40
    },
    {
      "midi": 64,
      "hit": false,
      "t": 215538.6475208337,
      "d": 452.8979166666686,
      "v": 40
    },
    {
      "midi": 60,
      "hit": false,
      "t": 215538.6475208337,
      "d": 923.9117499999993,
      "v": 40
    },
    {
      "midi": 61,
      "hit": false,
      "t": 216009.66135416704,
      "d": 452.8979166666686,
      "v": 40
    },
    {
      "midi": 37,
      "hit": false,
      "t": 216485.20416666704,
      "d": 1413.0415000000212,
      "v": 40
    },
    {
      "midi": 61,
      "hit": false,
      "t": 216489.7331458337,
      "d": 3804.342500000057,
      "v": 40
    },
    {
      "midi": 49,
      "hit": false,
      "t": 216965.27595833372,
      "d": 457.4268958333414,
      "v": 40
    },
    {
      "midi": 52,
      "hit": false,
      "t": 217440.81877083372,
      "d": 457.4268958333414,
      "v": 40
    },
    {
      "midi": 68,
      "hit": false,
      "t": 217920.8905625004,
      "d": 457.4268958333414,
      "v": 40
    },
    {
      "midi": 49,
      "hit": false,
      "t": 217920.8905625004,
      "d": 461.9558750000142,
      "v": 40
    },
    {
      "midi": 64,
      "hit": false,
      "t": 217920.8905625004,
      "d": 461.9558750000142,
      "v": 40
    },
    {
      "midi": 64,
      "hit": false,
      "t": 218400.96235416707,
      "d": 937.4986875000177,
      "v": 40
    },
    {
      "midi": 68,
      "hit": false,
      "t": 218400.96235416707,
      "d": 937.4986875000177,
      "v": 40
    },
    {
      "midi": 52,
      "hit": false,
      "t": 218405.49133333375,
      "d": 457.4268958333414,
      "v": 40
    },
    {
      "midi": 54,
      "hit": false,
      "t": 218881.03414583375,
      "d": 1413.0415000000212,
      "v": 40
    },
    {
      "midi": 66,
      "hit": false,
      "t": 219361.10593750043,
      "d": 932.9697083333449,
      "v": 40
    },
    {
      "midi": 70,
      "hit": false,
      "t": 219361.10593750043,
      "d": 932.9697083333449,
      "v": 40
    },
    {
      "midi": 42,
      "hit": false,
      "t": 220321.24952083378,
      "d": 1444.7443541666435,
      "v": 40
    },
    {
      "midi": 61,
      "hit": false,
      "t": 220321.24952083378,
      "d": 3899.451062499982,
      "v": 40
    },
    {
      "midi": 49,
      "hit": false,
      "t": 220810.37927083377,
      "d": 466.4848541666579,
      "v": 40
    },
    {
      "midi": 52,
      "hit": false,
      "t": 221299.50902083376,
      "d": 466.4848541666579,
      "v": 40
    },
    {
      "midi": 49,
      "hit": false,
      "t": 221788.63877083376,
      "d": 471.0138333333307,
      "v": 40
    },
    {
      "midi": 64,
      "hit": false,
      "t": 221788.63877083376,
      "d": 471.0138333333307,
      "v": 40
    },
    {
      "midi": 68,
      "hit": false,
      "t": 221788.63877083376,
      "d": 471.0138333333307,
      "v": 40
    },
    {
      "midi": 52,
      "hit": false,
      "t": 222282.29750000042,
      "d": 471.0138333333307,
      "v": 40
    },
    {
      "midi": 64,
      "hit": false,
      "t": 222282.29750000042,
      "d": 960.1435833333235,
      "v": 40
    },
    {
      "midi": 68,
      "hit": false,
      "t": 222282.29750000042,
      "d": 960.1435833333235,
      "v": 40
    },
    {
      "midi": 54,
      "hit": false,
      "t": 222771.42725000042,
      "d": 1449.2733333333454,
      "v": 40
    },
    {
      "midi": 66,
      "hit": false,
      "t": 223265.08597916708,
      "d": 955.6146041666798,
      "v": 40
    },
    {
      "midi": 69,
      "hit": false,
      "t": 223265.08597916708,
      "d": 955.6146041666798,
      "v": 40
    },
    {
      "midi": 25,
      "hit": false,
      "t": 224243.3454791671,
      "d": 16820.628624999954,
      "v": 40
    },
    {
      "midi": 37,
      "hit": false,
      "t": 224247.87445833377,
      "d": 489.1297499999928,
      "v": 40
    },
    {
      "midi": 53,
      "hit": false,
      "t": 224247.87445833377,
      "d": 1005.4333749999932,
      "v": 40
    },
    {
      "midi": 61,
      "hit": false,
      "t": 224247.87445833377,
      "d": 1005.4333749999932,
      "v": 40
    },
    {
      "midi": 44,
      "hit": false,
      "t": 224759.6491041671,
      "d": 489.1297499999928,
      "v": 40
    },
    {
      "midi": 53,
      "hit": false,
      "t": 225275.9527291671,
      "d": 489.1297499999928,
      "v": 40
    },
    {
      "midi": 63,
      "hit": false,
      "t": 225275.9527291671,
      "d": 1005.4333749999932,
      "v": 40
    },
    {
      "midi": 68,
      "hit": false,
      "t": 225275.9527291671,
      "d": 1005.4333749999932,
      "v": 40
    },
    {
      "midi": 56,
      "hit": false,
      "t": 225787.72737500042,
      "d": 489.1297499999928,
      "v": 40
    },
    {
      "midi": 61,
      "hit": false,
      "t": 226304.03100000042,
      "d": 489.1297499999928,
      "v": 40
    },
    {
      "midi": 65,
      "hit": false,
      "t": 226815.80564583375,
      "d": 489.1297499999928,
      "v": 40
    },
    {
      "midi": 75,
      "hit": false,
      "t": 226815.80564583375,
      "d": 1005.4333749999932,
      "v": 40
    },
    {
      "midi": 80,
      "hit": false,
      "t": 226815.80564583375,
      "d": 1005.4333749999932,
      "v": 40
    },
    {
      "midi": 68,
      "hit": false,
      "t": 227327.58029166708,
      "d": 493.6587291666656,
      "v": 40
    },
    {
      "midi": 73,
      "hit": false,
      "t": 227843.88391666708,
      "d": 489.1297499999928,
      "v": 40
    },
    {
      "midi": 65,
      "hit": false,
      "t": 228360.18754166708,
      "d": 489.1297499999928,
      "v": 40
    },
    {
      "midi": 75,
      "hit": false,
      "t": 228360.18754166708,
      "d": 1000.9043958333205,
      "v": 40
    },
    {
      "midi": 80,
      "hit": false,
      "t": 228360.18754166708,
      "d": 1000.9043958333205,
      "v": 40
    },
    {
      "midi": 68,
      "hit": false,
      "t": 228871.9621875004,
      "d": 489.1297499999928,
      "v": 40
    },
    {
      "midi": 73,
      "hit": false,
      "t": 229383.73683333374,
      "d": 489.1297499999928,
      "v": 40
    },
    {
      "midi": 77,
      "hit": false,
      "t": 229895.51147916706,
      "d": 493.6587291666656,
      "v": 40
    },
    {
      "midi": 87,
      "hit": false,
      "t": 229900.04045833374,
      "d": 489.1297499999928,
      "v": 40
    },
    {
      "midi": 92,
      "hit": false,
      "t": 229900.04045833374,
      "d": 489.1297499999928,
      "v": 40
    },
    {
      "midi": 77,
      "hit": false,
      "t": 230411.81510416706,
      "d": 2024.453687500005,
      "v": 40
    },
    {
      "midi": 92,
      "hit": false,
      "t": 230416.34408333374,
      "d": 2019.924708333332,
      "v": 40
    },
    {
      "midi": 87,
      "hit": false,
      "t": 230416.34408333374,
      "d": 2024.453687500005,
      "v": 40
    },
    {
      "midi": 37,
      "hit": false,
      "t": 231901.8492500004,
      "d": 4067.023291666672,
      "v": 20
    },
    {
      "midi": 59,
      "hit": false,
      "t": 232463.44266666708,
      "d": 4062.494312499999,
      "v": 20
    },
    {
      "midi": 77,
      "hit": false,
      "t": 232463.44266666708,
      "d": 4062.494312499999,
      "v": 20
    },
    {
      "midi": 87,
      "hit": false,
      "t": 232463.44266666708,
      "d": 4062.494312499999,
      "v": 20
    },
    {
      "midi": 92,
      "hit": false,
      "t": 232463.44266666708,
      "d": 4062.494312499999,
      "v": 20
    },
    {
      "midi": 37,
      "hit": false,
      "t": 237979.73929166707,
      "d": 1947.4610416666546,
      "v": 20
    }
  ]
}