{
  "jsonPath": "Animes/Digimon Adventure MIDI Collection/break-up.json",
  "path": "Animes\\Digimon Adventure MIDI Collection\\Break Up.mid",
  "name": "Break Up",
  "difficulty": "Advanced",
  "bpm": 125,
  "notes": [
    {
      "midi": 74,
      "hit": false,
      "t": 112,
      "d": 260,
      "v": 100
    },
    {
      "midi": 67,
      "hit": false,
      "t": 112,
      "d": 260,
      "v": 48
    },
    {
      "midi": 77,
      "hit": false,
      "t": 372,
      "d": 0,
      "v": 100
    },
    {
      "midi": 44,
      "hit": false,
      "t": 372,
      "d": 132,
      "v": 95
    },
    {
      "midi": 81,
      "hit": false,
      "t": 372,
      "d": 392,
      "v": 60
    },
    {
      "midi": 72,
      "hit": false,
      "t": 372,
      "d": 392,
      "v": 48
    },
    {
      "midi": 43,
      "hit": false,
      "t": 372,
      "d": 1044,
      "v": 70
    },
    {
      "midi": 44,
      "hit": false,
      "t": 504,
      "d": 128,
      "v": 95
    },
    {
      "midi": 46,
      "hit": false,
      "t": 632,
      "d": 132,
      "v": 95
    },
    {
      "midi": 44,
      "hit": false,
      "t": 764,
      "d": 132,
      "v": 95
    },
    {
      "midi": 79,
      "hit": false,
      "t": 764,
      "d": 392,
      "v": 100
    },
    {
      "midi": 82,
      "hit": false,
      "t": 764,
      "d": 392,
      "v": 60
    },
    {
      "midi": 44,
      "hit": false,
      "t": 896,
      "d": 128,
      "v": 95
    },
    {
      "midi": 44,
      "hit": false,
      "t": 1024,
      "d": 132,
      "v": 95
    },
    {
      "midi": 74,
      "hit": false,
      "t": 1156,
      "d": 0,
      "v": 100
    },
    {
      "midi": 46,
      "hit": false,
      "t": 1156,
      "d": 128,
      "v": 95
    },
    {
      "midi": 67,
      "hit": false,
      "t": 1156,
      "d": 260,
      "v": 48
    },
    {
      "midi": 44,
      "hit": false,
      "t": 1284,
      "d": 132,
      "v": 95
    },
    {
      "midi": 77,
      "hit": false,
      "t": 1416,
      "d": 0,
      "v": 100
    },
    {
      "midi": 44,
      "hit": false,
      "t": 1416,
      "d": 132,
      "v": 95
    },
    {
      "midi": 81,
      "hit": false,
      "t": 1416,
      "d": 392,
      "v": 60
    },
    {
      "midi": 72,
      "hit": false,
      "t": 1416,
      "d": 392,
      "v": 48
    },
    {
      "midi": 39,
      "hit": false,
      "t": 1416,
      "d": 1044,
      "v": 70
    },
    {
      "midi": 44,
      "hit": false,
      "t": 1548,
      "d": 128,
      "v": 95
    },
    {
      "midi": 46,
      "hit": false,
      "t": 1676,
      "d": 132,
      "v": 95
    },
    {
      "midi": 44,
      "hit": false,
      "t": 1808,
      "d": 132,
      "v": 95
    },
    {
      "midi": 79,
      "hit": false,
      "t": 1808,
      "d": 392,
      "v": 100
    },
    {
      "midi": 82,
      "hit": false,
      "t": 1808,
      "d": 392,
      "v": 60
    },
    {
      "midi": 44,
      "hit": false,
      "t": 1940,
      "d": 128,
      "v": 95
    },
    {
      "midi": 44,
      "hit": false,
      "t": 2068,
      "d": 132,
      "v": 95
    },
    {
      "midi": 74,
      "hit": false,
      "t": 2200,
      "d": 0,
      "v": 100
    },
    {
      "midi": 46,
      "hit": false,
      "t": 2200,
      "d": 128,
      "v": 95
    },
    {
      "midi": 67,
      "hit": false,
      "t": 2200,
      "d": 260,
      "v": 48
    },
    {
      "midi": 44,
      "hit": false,
      "t": 2328,
      "d": 132,
      "v": 95
    },
    {
      "midi": 77,
      "hit": false,
      "t": 2460,
      "d": 0,
      "v": 100
    },
    {
      "midi": 44,
      "hit": false,
      "t": 2460,
      "d": 132,
      "v": 95
    },
    {
      "midi": 81,
      "hit": false,
      "t": 2460,
      "d": 260,
      "v": 60
    },
    {
      "midi": 74,
      "hit": false,
      "t": 2460,
      "d": 260,
      "v": 48
    },
    {
      "midi": 41,
      "hit": false,
      "t": 2460,
      "d": 1044,
      "v": 70
    },
    {
      "midi": 44,
      "hit": false,
      "t": 2592,
      "d": 128,
      "v": 95
    },
    {
      "midi": 46,
      "hit": false,
      "t": 2720,
      "d": 132,
      "v": 95
    },
    {
      "midi": 75,
      "hit": false,
      "t": 2720,
      "d": 260,
      "v": 100
    },
    {
      "midi": 79,
      "hit": false,
      "t": 2720,
      "d": 260,
      "v": 60
    },
    {
      "midi": 72,
      "hit": false,
      "t": 2720,
      "d": 260,
      "v": 48
    },
    {
      "midi": 44,
      "hit": false,
      "t": 2852,
      "d": 128,
      "v": 95
    },
    {
      "midi": 44,
      "hit": false,
      "t": 2980,
      "d": 132,
      "v": 95
    },
    {
      "midi": 74,
      "hit": false,
      "t": 2980,
      "d": 264,
      "v": 100
    },
    {
      "midi": 77,
      "hit": false,
      "t": 2980,
      "d": 264,
      "v": 60
    },
    {
      "midi": 70,
      "hit": false,
      "t": 2980,
      "d": 264,
      "v": 48
    },
    {
      "midi": 44,
      "hit": false,
      "t": 3112,
      "d": 132,
      "v": 95
    },
    {
      "midi": 46,
      "hit": false,
      "t": 3244,
      "d": 128,
      "v": 95
    },
    {
      "midi": 72,
      "hit": false,
      "t": 3244,
      "d": 260,
      "v": 100
    },
    {
      "midi": 75,
      "hit": false,
      "t": 3244,
      "d": 260,
      "v": 60
    },
    {
      "midi": 69,
      "hit": false,
      "t": 3244,
      "d": 260,
      "v": 48
    },
    {
      "midi": 44,
      "hit": false,
      "t": 3372,
      "d": 132,
      "v": 95
    },
    {
      "midi": 44,
      "hit": false,
      "t": 3504,
      "d": 128,
      "v": 95
    },
    {
      "midi": 72,
      "hit": false,
      "t": 3504,
      "d": 392,
      "v": 100
    },
    {
      "midi": 75,
      "hit": false,
      "t": 3504,
      "d": 392,
      "v": 60
    },
    {
      "midi": 69,
      "hit": false,
      "t": 3504,
      "d": 392,
      "v": 48
    },
    {
      "midi": 44,
      "hit": false,
      "t": 3632,
      "d": 132,
      "v": 95
    },
    {
      "midi": 46,
      "hit": false,
      "t": 3764,
      "d": 132,
      "v": 95
    },
    {
      "midi": 44,
      "hit": false,
      "t": 3896,
      "d": 128,
      "v": 95
    },
    {
      "midi": 74,
      "hit": false,
      "t": 3896,
      "d": 388,
      "v": 100
    },
    {
      "midi": 77,
      "hit": false,
      "t": 3896,
      "d": 388,
      "v": 60
    },
    {
      "midi": 70,
      "hit": false,
      "t": 3896,
      "d": 388,
      "v": 48
    },
    {
      "midi": 44,
      "hit": false,
      "t": 4024,
      "d": 132,
      "v": 95
    },
    {
      "midi": 44,
      "hit": false,
      "t": 4156,
      "d": 128,
      "v": 95
    },
    {
      "midi": 46,
      "hit": false,
      "t": 4284,
      "d": 132,
      "v": 95
    },
    {
      "midi": 44,
      "hit": false,
      "t": 4416,
      "d": 132,
      "v": 95
    },
    {
      "midi": 44,
      "hit": false,
      "t": 4548,
      "d": 128,
      "v": 95
    },
    {
      "midi": 75,
      "hit": false,
      "t": 4548,
      "d": 392,
      "v": 100
    },
    {
      "midi": 79,
      "hit": false,
      "t": 4548,
      "d": 392,
      "v": 60
    },
    {
      "midi": 70,
      "hit": false,
      "t": 4548,
      "d": 392,
      "v": 48
    },
    {
      "midi": 48,
      "hit": false,
      "t": 4548,
      "d": 1044,
      "v": 70
    },
    {
      "midi": 44,
      "hit": false,
      "t": 4676,
      "d": 132,
      "v": 95
    },
    {
      "midi": 46,
      "hit": false,
      "t": 4808,
      "d": 132,
      "v": 95
    },
    {
      "midi": 44,
      "hit": false,
      "t": 4940,
      "d": 128,
      "v": 95
    },
    {
      "midi": 75,
      "hit": false,
      "t": 4940,
      "d": 388,
      "v": 100
    },
    {
      "midi": 79,
      "hit": false,
      "t": 4940,
      "d": 388,
      "v": 60
    },
    {
      "midi": 70,
      "hit": false,
      "t": 4940,
      "d": 388,
      "v": 48
    },
    {
      "midi": 44,
      "hit": false,
      "t": 5068,
      "d": 132,
      "v": 95
    },
    {
      "midi": 44,
      "hit": false,
      "t": 5200,
      "d": 128,
      "v": 95
    },
    {
      "midi": 46,
      "hit": false,
      "t": 5328,
      "d": 132,
      "v": 95
    },
    {
      "midi": 75,
      "hit": false,
      "t": 5328,
      "d": 264,
      "v": 100
    },
    {
      "midi": 79,
      "hit": false,
      "t": 5328,
      "d": 264,
      "v": 60
    },
    {
      "midi": 70,
      "hit": false,
      "t": 5328,
      "d": 264,
      "v": 48
    },
    {
      "midi": 44,
      "hit": false,
      "t": 5460,
      "d": 132,
      "v": 95
    },
    {
      "midi": 44,
      "hit": false,
      "t": 5592,
      "d": 128,
      "v": 95
    },
    {
      "midi": 74,
      "hit": false,
      "t": 5592,
      "d": 520,
      "v": 100
    },
    {
      "midi": 78,
      "hit": false,
      "t": 5592,
      "d": 520,
      "v": 60
    },
    {
      "midi": 50,
      "hit": false,
      "t": 5592,
      "d": 1040,
      "v": 70
    },
    {
      "midi": 44,
      "hit": false,
      "t": 5720,
      "d": 132,
      "v": 95
    },
    {
      "midi": 46,
      "hit": false,
      "t": 5852,
      "d": 128,
      "v": 95
    },
    {
      "midi": 44,
      "hit": false,
      "t": 5980,
      "d": 132,
      "v": 95
    },
    {
      "midi": 69,
      "hit": false,
      "t": 6112,
      "d": 0,
      "v": 100
    },
    {
      "midi": 44,
      "hit": false,
      "t": 6112,
      "d": 132,
      "v": 95
    },
    {
      "midi": 74,
      "hit": false,
      "t": 6112,
      "d": 260,
      "v": 60
    },
    {
      "midi": 65,
      "hit": false,
      "t": 6112,
      "d": 260,
      "v": 48
    },
    {
      "midi": 44,
      "hit": false,
      "t": 6244,
      "d": 128,
      "v": 95
    },
    {
      "midi": 46,
      "hit": false,
      "t": 6372,
      "d": 132,
      "v": 95
    },
    {
      "midi": 72,
      "hit": false,
      "t": 6372,
      "d": 260,
      "v": 100
    },
    {
      "midi": 77,
      "hit": false,
      "t": 6372,
      "d": 260,
      "v": 60
    },
    {
      "midi": 69,
      "hit": false,
      "t": 6372,
      "d": 260,
      "v": 48
    },
    {
      "midi": 44,
      "hit": false,
      "t": 6504,
      "d": 128,
      "v": 95
    },
    {
      "midi": 44,
      "hit": false,
      "t": 6632,
      "d": 132,
      "v": 95
    },
    {
      "midi": 72,
      "hit": false,
      "t": 6632,
      "d": 784,
      "v": 100
    },
    {
      "midi": 43,
      "hit": false,
      "t": 6632,
      "d": 784,
      "v": 70
    },
    {
      "midi": 77,
      "hit": false,
      "t": 6632,
      "d": 784,
      "v": 60
    },
    {
      "midi": 69,
      "hit": false,
      "t": 6632,
      "d": 784,
      "v": 48
    },
    {
      "midi": 44,
      "hit": false,
      "t": 6764,
      "d": 132,
      "v": 95
    },
    {
      "midi": 46,
      "hit": false,
      "t": 6896,
      "d": 128,
      "v": 95
    },
    {
      "midi": 44,
      "hit": false,
      "t": 7024,
      "d": 132,
      "v": 95
    },
    {
      "midi": 44,
      "hit": false,
      "t": 7156,
      "d": 128,
      "v": 95
    },
    {
      "midi": 44,
      "hit": false,
      "t": 7284,
      "d": 132,
      "v": 95
    },
    {
      "midi": 70,
      "hit": false,
      "t": 7416,
      "d": 132,
      "v": 100
    },
    {
      "midi": 74,
      "hit": false,
      "t": 7416,
      "d": 132,
      "v": 60
    },
    {
      "midi": 67,
      "hit": false,
      "t": 7416,
      "d": 132,
      "v": 48
    },
    {
      "midi": 46,
      "hit": false,
      "t": 7416,
      "d": 132,
      "v": 95
    },
    {
      "midi": 43,
      "hit": false,
      "t": 7416,
      "d": 260,
      "v": 70
    },
    {
      "midi": 69,
      "hit": false,
      "t": 7548,
      "d": 128,
      "v": 100
    },
    {
      "midi": 72,
      "hit": false,
      "t": 7548,
      "d": 128,
      "v": 60
    },
    {
      "midi": 65,
      "hit": false,
      "t": 7548,
      "d": 128,
      "v": 48
    },
    {
      "midi": 44,
      "hit": false,
      "t": 7548,
      "d": 128,
      "v": 95
    },
    {
      "midi": 44,
      "hit": false,
      "t": 7676,
      "d": 132,
      "v": 95
    },
    {
      "midi": 70,
      "hit": false,
      "t": 7676,
      "d": 524,
      "v": 100
    },
    {
      "midi": 74,
      "hit": false,
      "t": 7676,
      "d": 524,
      "v": 60
    },
    {
      "midi": 67,
      "hit": false,
      "t": 7676,
      "d": 524,
      "v": 48
    },
    {
      "midi": 43,
      "hit": false,
      "t": 7676,
      "d": 784,
      "v": 70
    },
    {
      "midi": 44,
      "hit": false,
      "t": 7808,
      "d": 132,
      "v": 95
    },
    {
      "midi": 46,
      "hit": false,
      "t": 7940,
      "d": 128,
      "v": 95
    },
    {
      "midi": 44,
      "hit": false,
      "t": 8068,
      "d": 132,
      "v": 95
    },
    {
      "midi": 44,
      "hit": false,
      "t": 8200,
      "d": 128,
      "v": 95
    },
    {
      "midi": 44,
      "hit": false,
      "t": 8328,
      "d": 132,
      "v": 95
    },
    {
      "midi": 46,
      "hit": false,
      "t": 8460,
      "d": 132,
      "v": 95
    },
    {
      "midi": 74,
      "hit": false,
      "t": 8460,
      "d": 260,
      "v": 100
    },
    {
      "midi": 67,
      "hit": false,
      "t": 8460,
      "d": 260,
      "v": 48
    },
    {
      "midi": 44,
      "hit": false,
      "t": 8592,
      "d": 128,
      "v": 95
    },
    {
      "midi": 77,
      "hit": false,
      "t": 8720,
      "d": 0,
      "v": 100
    },
    {
      "midi": 44,
      "hit": false,
      "t": 8720,
      "d": 132,
      "v": 95
    },
    {
      "midi": 81,
      "hit": false,
      "t": 8720,
      "d": 392,
      "v": 60
    },
    {
      "midi": 72,
      "hit": false,
      "t": 8720,
      "d": 392,
      "v": 48
    },
    {
      "midi": 43,
      "hit": false,
      "t": 8720,
      "d": 1044,
      "v": 70
    },
    {
      "midi": 44,
      "hit": false,
      "t": 8852,
      "d": 128,
      "v": 95
    },
    {
      "midi": 46,
      "hit": false,
      "t": 8980,
      "d": 132,
      "v": 95
    },
    {
      "midi": 44,
      "hit": false,
      "t": 9112,
      "d": 132,
      "v": 95
    },
    {
      "midi": 79,
      "hit": false,
      "t": 9112,
      "d": 392,
      "v": 100
    },
    {
      "midi": 82,
      "hit": false,
      "t": 9112,
      "d": 392,
      "v": 60
    },
    {
      "midi": 44,
      "hit": false,
      "t": 9244,
      "d": 128,
      "v": 95
    },
    {
      "midi": 44,
      "hit": false,
      "t": 9372,
      "d": 132,
      "v": 95
    },
    {
      "midi": 74,
      "hit": false,
      "t": 9504,
      "d": 0,
      "v": 100
    },
    {
      "midi": 46,
      "hit": false,
      "t": 9504,
      "d": 128,
      "v": 95
    },
    {
      "midi": 67,
      "hit": false,
      "t": 9504,
      "d": 260,
      "v": 48
    },
    {
      "midi": 44,
      "hit": false,
      "t": 9632,
      "d": 132,
      "v": 95
    },
    {
      "midi": 77,
      "hit": false,
      "t": 9764,
      "d": 0,
      "v": 100
    },
    {
      "midi": 44,
      "hit": false,
      "t": 9764,
      "d": 132,
      "v": 95
    },
    {
      "midi": 81,
      "hit": false,
      "t": 9764,
      "d": 392,
      "v": 60
    },
    {
      "midi": 72,
      "hit": false,
      "t": 9764,
      "d": 392,
      "v": 48
    },
    {
      "midi": 39,
      "hit": false,
      "t": 9764,
      "d": 1044,
      "v": 70
    },
    {
      "midi": 44,
      "hit": false,
      "t": 9896,
      "d": 128,
      "v": 95
    },
    {
      "midi": 46,
      "hit": false,
      "t": 10024,
      "d": 132,
      "v": 95
    },
    {
      "midi": 44,
      "hit": false,
      "t": 10156,
      "d": 128,
      "v": 95
    },
    {
      "midi": 79,
      "hit": false,
      "t": 10156,
      "d": 392,
      "v": 100
    },
    {
      "midi": 82,
      "hit": false,
      "t": 10156,
      "d": 392,
      "v": 60
    },
    {
      "midi": 44,
      "hit": false,
      "t": 10284,
      "d": 132,
      "v": 95
    },
    {
      "midi": 44,
      "hit": false,
      "t": 10416,
      "d": 132,
      "v": 95
    },
    {
      "midi": 74,
      "hit": false,
      "t": 10548,
      "d": 0,
      "v": 100
    },
    {
      "midi": 46,
      "hit": false,
      "t": 10548,
      "d": 128,
      "v": 95
    },
    {
      "midi": 67,
      "hit": false,
      "t": 10548,
      "d": 260,
      "v": 48
    },
    {
      "midi": 44,
      "hit": false,
      "t": 10676,
      "d": 132,
      "v": 95
    },
    {
      "midi": 77,
      "hit": false,
      "t": 10808,
      "d": 0,
      "v": 100
    },
    {
      "midi": 44,
      "hit": false,
      "t": 10808,
      "d": 132,
      "v": 95
    },
    {
      "midi": 81,
      "hit": false,
      "t": 10808,
      "d": 260,
      "v": 60
    },
    {
      "midi": 74,
      "hit": false,
      "t": 10808,
      "d": 260,
      "v": 48
    },
    {
      "midi": 41,
      "hit": false,
      "t": 10808,
      "d": 1044,
      "v": 70
    },
    {
      "midi": 44,
      "hit": false,
      "t": 10940,
      "d": 128,
      "v": 95
    },
    {
      "midi": 46,
      "hit": false,
      "t": 11068,
      "d": 132,
      "v": 95
    },
    {
      "midi": 75,
      "hit": false,
      "t": 11068,
      "d": 260,
      "v": 100
    },
    {
      "midi": 79,
      "hit": false,
      "t": 11068,
      "d": 260,
      "v": 60
    },
    {
      "midi": 72,
      "hit": false,
      "t": 11068,
      "d": 260,
      "v": 48
    },
    {
      "midi": 44,
      "hit": false,
      "t": 11200,
      "d": 128,
      "v": 95
    },
    {
      "midi": 44,
      "hit": false,
      "t": 11328,
      "d": 132,
      "v": 95
    },
    {
      "midi": 74,
      "hit": false,
      "t": 11328,
      "d": 264,
      "v": 100
    },
    {
      "midi": 77,
      "hit": false,
      "t": 11328,
      "d": 264,
      "v": 60
    },
    {
      "midi": 70,
      "hit": false,
      "t": 11328,
      "d": 264,
      "v": 48
    },
    {
      "midi": 44,
      "hit": false,
      "t": 11460,
      "d": 132,
      "v": 95
    },
    {
      "midi": 46,
      "hit": false,
      "t": 11592,
      "d": 128,
      "v": 95
    },
    {
      "midi": 72,
      "hit": false,
      "t": 11592,
      "d": 260,
      "v": 100
    },
    {
      "midi": 75,
      "hit": false,
      "t": 11592,
      "d": 260,
      "v": 60
    },
    {
      "midi": 69,
      "hit": false,
      "t": 11592,
      "d": 260,
      "v": 48
    },
    {
      "midi": 44,
      "hit": false,
      "t": 11720,
      "d": 132,
      "v": 95
    },
    {
      "midi": 44,
      "hit": false,
      "t": 11852,
      "d": 128,
      "v": 95
    },
    {
      "midi": 72,
      "hit": false,
      "t": 11852,
      "d": 392,
      "v": 100
    },
    {
      "midi": 75,
      "hit": false,
      "t": 11852,
      "d": 392,
      "v": 60
    },
    {
      "midi": 69,
      "hit": false,
      "t": 11852,
      "d": 392,
      "v": 48
    },
    {
      "midi": 44,
      "hit": false,
      "t": 11980,
      "d": 132,
      "v": 95
    },
    {
      "midi": 46,
      "hit": false,
      "t": 12112,
      "d": 132,
      "v": 95
    },
    {
      "midi": 44,
      "hit": false,
      "t": 12244,
      "d": 128,
      "v": 95
    },
    {
      "midi": 74,
      "hit": false,
      "t": 12244,
      "d": 388,
      "v": 100
    },
    {
      "midi": 77,
      "hit": false,
      "t": 12244,
      "d": 388,
      "v": 60
    },
    {
      "midi": 70,
      "hit": false,
      "t": 12244,
      "d": 388,
      "v": 48
    },
    {
      "midi": 44,
      "hit": false,
      "t": 12372,
      "d": 132,
      "v": 95
    },
    {
      "midi": 44,
      "hit": false,
      "t": 12504,
      "d": 128,
      "v": 95
    },
    {
      "midi": 46,
      "hit": false,
      "t": 12632,
      "d": 132,
      "v": 95
    },
    {
      "midi": 44,
      "hit": false,
      "t": 12764,
      "d": 132,
      "v": 95
    },
    {
      "midi": 44,
      "hit": false,
      "t": 12896,
      "d": 128,
      "v": 95
    },
    {
      "midi": 75,
      "hit": false,
      "t": 12896,
      "d": 388,
      "v": 100
    },
    {
      "midi": 79,
      "hit": false,
      "t": 12896,
      "d": 388,
      "v": 60
    },
    {
      "midi": 70,
      "hit": false,
      "t": 12896,
      "d": 388,
      "v": 48
    },
    {
      "midi": 48,
      "hit": false,
      "t": 12896,
      "d": 1044,
      "v": 70
    },
    {
      "midi": 44,
      "hit": false,
      "t": 13024,
      "d": 132,
      "v": 95
    },
    {
      "midi": 46,
      "hit": false,
      "t": 13156,
      "d": 128,
      "v": 95
    },
    {
      "midi": 44,
      "hit": false,
      "t": 13284,
      "d": 132,
      "v": 95
    },
    {
      "midi": 75,
      "hit": false,
      "t": 13284,
      "d": 392,
      "v": 100
    },
    {
      "midi": 79,
      "hit": false,
      "t": 13284,
      "d": 392,
      "v": 60
    },
    {
      "midi": 70,
      "hit": false,
      "t": 13284,
      "d": 392,
      "v": 48
    },
    {
      "midi": 44,
      "hit": false,
      "t": 13416,
      "d": 132,
      "v": 95
    },
    {
      "midi": 44,
      "hit": false,
      "t": 13548,
      "d": 128,
      "v": 95
    },
    {
      "midi": 46,
      "hit": false,
      "t": 13676,
      "d": 132,
      "v": 95
    },
    {
      "midi": 75,
      "hit": false,
      "t": 13676,
      "d": 264,
      "v": 100
    },
    {
      "midi": 79,
      "hit": false,
      "t": 13676,
      "d": 264,
      "v": 60
    },
    {
      "midi": 70,
      "hit": false,
      "t": 13676,
      "d": 264,
      "v": 48
    },
    {
      "midi": 44,
      "hit": false,
      "t": 13808,
      "d": 132,
      "v": 95
    },
    {
      "midi": 44,
      "hit": false,
      "t": 13940,
      "d": 128,
      "v": 95
    },
    {
      "midi": 74,
      "hit": false,
      "t": 13940,
      "d": 520,
      "v": 100
    },
    {
      "midi": 69,
      "hit": false,
      "t": 13940,
      "d": 520,
      "v": 48
    },
    {
      "midi": 50,
      "hit": false,
      "t": 13940,
      "d": 1040,
      "v": 70
    },
    {
      "midi": 44,
      "hit": false,
      "t": 14068,
      "d": 132,
      "v": 95
    },
    {
      "midi": 46,
      "hit": false,
      "t": 14200,
      "d": 128,
      "v": 95
    },
    {
      "midi": 44,
      "hit": false,
      "t": 14328,
      "d": 132,
      "v": 95
    },
    {
      "midi": 77,
      "hit": false,
      "t": 14460,
      "d": 0,
      "v": 100
    },
    {
      "midi": 44,
      "hit": false,
      "t": 14460,
      "d": 132,
      "v": 95
    },
    {
      "midi": 81,
      "hit": false,
      "t": 14460,
      "d": 260,
      "v": 60
    },
    {
      "midi": 72,
      "hit": false,
      "t": 14460,
      "d": 260,
      "v": 48
    },
    {
      "midi": 44,
      "hit": false,
      "t": 14592,
      "d": 128,
      "v": 95
    },
    {
      "midi": 46,
      "hit": false,
      "t": 14720,
      "d": 132,
      "v": 95
    },
    {
      "midi": 77,
      "hit": false,
      "t": 14720,
      "d": 260,
      "v": 100
    },
    {
      "midi": 81,
      "hit": false,
      "t": 14720,
      "d": 260,
      "v": 60
    },
    {
      "midi": 72,
      "hit": false,
      "t": 14720,
      "d": 260,
      "v": 48
    },
    {
      "midi": 44,
      "hit": false,
      "t": 14852,
      "d": 128,
      "v": 95
    },
    {
      "midi": 44,
      "hit": false,
      "t": 14980,
      "d": 132,
      "v": 95
    },
    {
      "midi": 51,
      "hit": false,
      "t": 14980,
      "d": 2088,
      "v": 70
    },
    {
      "midi": 78,
      "hit": false,
      "t": 14980,
      "d": 4156,
      "v": 100
    },
    {
      "midi": 81,
      "hit": false,
      "t": 14980,
      "d": 4156,
      "v": 60
    },
    {
      "midi": 73,
      "hit": false,
      "t": 14980,
      "d": 4156,
      "v": 48
    },
    {
      "midi": 44,
      "hit": false,
      "t": 15112,
      "d": 132,
      "v": 95
    },
    {
      "midi": 46,
      "hit": false,
      "t": 15244,
      "d": 128,
      "v": 95
    },
    {
      "midi": 44,
      "hit": false,
      "t": 15372,
      "d": 132,
      "v": 95
    },
    {
      "midi": 44,
      "hit": false,
      "t": 15504,
      "d": 128,
      "v": 95
    },
    {
      "midi": 44,
      "hit": false,
      "t": 15632,
      "d": 132,
      "v": 95
    },
    {
      "midi": 46,
      "hit": false,
      "t": 15764,
      "d": 132,
      "v": 95
    },
    {
      "midi": 44,
      "hit": false,
      "t": 15896,
      "d": 128,
      "v": 95
    },
    {
      "midi": 44,
      "hit": false,
      "t": 16024,
      "d": 132,
      "v": 95
    },
    {
      "midi": 44,
      "hit": false,
      "t": 16156,
      "d": 128,
      "v": 95
    },
    {
      "midi": 46,
      "hit": false,
      "t": 16284,
      "d": 132,
      "v": 95
    },
    {
      "midi": 44,
      "hit": false,
      "t": 16416,
      "d": 132,
      "v": 95
    },
    {
      "midi": 44,
      "hit": false,
      "t": 16548,
      "d": 128,
      "v": 95
    },
    {
      "midi": 44,
      "hit": false,
      "t": 16676,
      "d": 132,
      "v": 95
    },
    {
      "midi": 46,
      "hit": false,
      "t": 16808,
      "d": 132,
      "v": 95
    },
    {
      "midi": 44,
      "hit": false,
      "t": 16940,
      "d": 128,
      "v": 95
    },
    {
      "midi": 44,
      "hit": false,
      "t": 17068,
      "d": 132,
      "v": 95
    },
    {
      "midi": 53,
      "hit": false,
      "t": 17068,
      "d": 2068,
      "v": 70
    },
    {
      "midi": 44,
      "hit": false,
      "t": 17200,
      "d": 128,
      "v": 95
    },
    {
      "midi": 46,
      "hit": false,
      "t": 17328,
      "d": 132,
      "v": 95
    },
    {
      "midi": 44,
      "hit": false,
      "t": 17460,
      "d": 132,
      "v": 95
    },
    {
      "midi": 44,
      "hit": false,
      "t": 17592,
      "d": 128,
      "v": 95
    },
    {
      "midi": 44,
      "hit": false,
      "t": 17720,
      "d": 132,
      "v": 95
    },
    {
      "midi": 46,
      "hit": false,
      "t": 17852,
      "d": 128,
      "v": 95
    },
    {
      "midi": 44,
      "hit": false,
      "t": 17980,
      "d": 132,
      "v": 95
    },
    {
      "midi": 44,
      "hit": false,
      "t": 18112,
      "d": 132,
      "v": 95
    },
    {
      "midi": 44,
      "hit": false,
      "t": 18244,
      "d": 128,
      "v": 95
    },
    {
      "midi": 46,
      "hit": false,
      "t": 18372,
      "d": 132,
      "v": 95
    },
    {
      "midi": 44,
      "hit": false,
      "t": 18504,
      "d": 128,
      "v": 95
    },
    {
      "midi": 44,
      "hit": false,
      "t": 18632,
      "d": 132,
      "v": 95
    },
    {
      "midi": 44,
      "hit": false,
      "t": 18764,
      "d": 132,
      "v": 95
    },
    {
      "midi": 46,
      "hit": false,
      "t": 18896,
      "d": 128,
      "v": 95
    },
    {
      "midi": 74,
      "hit": false,
      "t": 19136,
      "d": 228,
      "v": 100
    },
    {
      "midi": 70,
      "hit": false,
      "t": 19136,
      "d": 228,
      "v": 80
    },
    {
      "midi": 35,
      "hit": false,
      "t": 19136,
      "d": 340,
      "v": 100
    },
    {
      "midi": 72,
      "hit": false,
      "t": 19364,
      "d": 2592,
      "v": 100
    },
    {
      "midi": 69,
      "hit": false,
      "t": 19364,
      "d": 2592,
      "v": 80
    },
    {
      "midi": 35,
      "hit": false,
      "t": 19476,
      "d": 0,
      "v": 110
    },
    {
      "midi": 35,
      "hit": false,
      "t": 19476,
      "d": 336,
      "v": 100
    },
    {
      "midi": 35,
      "hit": false,
      "t": 19812,
      "d": 0,
      "v": 110
    },
    {
      "midi": 35,
      "hit": false,
      "t": 19812,
      "d": 228,
      "v": 100
    },
    {
      "midi": 40,
      "hit": false,
      "t": 20040,
      "d": 676,
      "v": 100
    },
    {
      "midi": 35,
      "hit": false,
      "t": 20716,
      "d": 224,
      "v": 100
    },
    {
      "midi": 35,
      "hit": false,
      "t": 20940,
      "d": 0,
      "v": 110
    },
    {
      "midi": 35,
      "hit": false,
      "t": 20940,
      "d": 340,
      "v": 100
    },
    {
      "midi": 35,
      "hit": false,
      "t": 21280,
      "d": 0,
      "v": 110
    },
    {
      "midi": 35,
      "hit": false,
      "t": 21280,
      "d": 336,
      "v": 100
    },
    {
      "midi": 35,
      "hit": false,
      "t": 21616,
      "d": 0,
      "v": 110
    },
    {
      "midi": 35,
      "hit": false,
      "t": 21616,
      "d": 340,
      "v": 100
    },
    {
      "midi": 70,
      "hit": false,
      "t": 21956,
      "d": 340,
      "v": 100
    },
    {
      "midi": 67,
      "hit": false,
      "t": 21956,
      "d": 340,
      "v": 80
    },
    {
      "midi": 40,
      "hit": false,
      "t": 22180,
      "d": 116,
      "v": 100
    },
    {
      "midi": 72,
      "hit": false,
      "t": 22296,
      "d": 224,
      "v": 100
    },
    {
      "midi": 69,
      "hit": false,
      "t": 22296,
      "d": 224,
      "v": 80
    },
    {
      "midi": 40,
      "hit": false,
      "t": 22296,
      "d": 224,
      "v": 100
    },
    {
      "midi": 74,
      "hit": false,
      "t": 22520,
      "d": 340,
      "v": 100
    },
    {
      "midi": 70,
      "hit": false,
      "t": 22520,
      "d": 340,
      "v": 80
    },
    {
      "midi": 57,
      "hit": false,
      "t": 22520,
      "d": 340,
      "v": 100
    },
    {
      "midi": 35,
      "hit": false,
      "t": 22520,
      "d": 340,
      "v": 100
    },
    {
      "midi": 35,
      "hit": false,
      "t": 22860,
      "d": 0,
      "v": 110
    },
    {
      "midi": 57,
      "hit": false,
      "t": 22860,
      "d": 336,
      "v": 100
    },
    {
      "midi": 35,
      "hit": false,
      "t": 22860,
      "d": 336,
      "v": 100
    },
    {
      "midi": 72,
      "hit": false,
      "t": 22860,
      "d": 3156,
      "v": 100
    },
    {
      "midi": 69,
      "hit": false,
      "t": 22860,
      "d": 3156,
      "v": 80
    },
    {
      "midi": 35,
      "hit": false,
      "t": 23196,
      "d": 0,
      "v": 110
    },
    {
      "midi": 35,
      "hit": false,
      "t": 23196,
      "d": 228,
      "v": 100
    },
    {
      "midi": 40,
      "hit": false,
      "t": 23424,
      "d": 676,
      "v": 100
    },
    {
      "midi": 77,
      "hit": false,
      "t": 24100,
      "d": 112,
      "v": 58
    },
    {
      "midi": 35,
      "hit": false,
      "t": 24100,
      "d": 224,
      "v": 100
    },
    {
      "midi": 77,
      "hit": false,
      "t": 24212,
      "d": 112,
      "v": 58
    },
    {
      "midi": 35,
      "hit": false,
      "t": 24324,
      "d": 0,
      "v": 110
    },
    {
      "midi": 50,
      "hit": false,
      "t": 24324,
      "d": 228,
      "v": 90
    },
    {
      "midi": 35,
      "hit": false,
      "t": 24324,
      "d": 228,
      "v": 100
    },
    {
      "midi": 77,
      "hit": false,
      "t": 24324,
      "d": 676,
      "v": 58
    },
    {
      "midi": 50,
      "hit": false,
      "t": 24552,
      "d": 224,
      "v": 90
    },
    {
      "midi": 40,
      "hit": false,
      "t": 24552,
      "d": 224,
      "v": 100
    },
    {
      "midi": 50,
      "hit": false,
      "t": 24776,
      "d": 224,
      "v": 90
    },
    {
      "midi": 40,
      "hit": false,
      "t": 24776,
      "d": 224,
      "v": 100
    },
    {
      "midi": 50,
      "hit": false,
      "t": 25000,
      "d": 228,
      "v": 90
    },
    {
      "midi": 35,
      "hit": false,
      "t": 25000,
      "d": 228,
      "v": 100
    },
    {
      "midi": 50,
      "hit": false,
      "t": 25228,
      "d": 224,
      "v": 90
    },
    {
      "midi": 40,
      "hit": false,
      "t": 25228,
      "d": 224,
      "v": 100
    },
    {
      "midi": 40,
      "hit": false,
      "t": 25452,
      "d": 112,
      "v": 100
    },
    {
      "midi": 50,
      "hit": false,
      "t": 25452,
      "d": 228,
      "v": 90
    },
    {
      "midi": 40,
      "hit": false,
      "t": 25564,
      "d": 228,
      "v": 100
    },
    {
      "midi": 50,
      "hit": false,
      "t": 25680,
      "d": 224,
      "v": 90
    },
    {
      "midi": 40,
      "hit": false,
      "t": 25792,
      "d": 112,
      "v": 100
    },
    {
      "midi": 50,
      "hit": false,
      "t": 25904,
      "d": 224,
      "v": 90
    },
    {
      "midi": 74,
      "hit": false,
      "t": 25904,
      "d": 224,
      "v": 100
    },
    {
      "midi": 62,
      "hit": false,
      "t": 25904,
      "d": 224,
      "v": 80
    },
    {
      "midi": 40,
      "hit": false,
      "t": 25904,
      "d": 224,
      "v": 100
    },
    {
      "midi": 43,
      "hit": false,
      "t": 26128,
      "d": 228,
      "v": 90
    },
    {
      "midi": 77,
      "hit": false,
      "t": 26128,
      "d": 340,
      "v": 100
    },
    {
      "midi": 65,
      "hit": false,
      "t": 26128,
      "d": 340,
      "v": 80
    },
    {
      "midi": 57,
      "hit": false,
      "t": 26128,
      "d": 452,
      "v": 100
    },
    {
      "midi": 35,
      "hit": false,
      "t": 26128,
      "d": 452,
      "v": 100
    },
    {
      "midi": 70,
      "hit": false,
      "t": 26128,
      "d": 904,
      "v": 58
    },
    {
      "midi": 43,
      "hit": false,
      "t": 26356,
      "d": 224,
      "v": 90
    },
    {
      "midi": 79,
      "hit": false,
      "t": 26468,
      "d": 336,
      "v": 100
    },
    {
      "midi": 67,
      "hit": false,
      "t": 26468,
      "d": 336,
      "v": 80
    },
    {
      "midi": 43,
      "hit": false,
      "t": 26580,
      "d": 224,
      "v": 90
    },
    {
      "midi": 40,
      "hit": false,
      "t": 26580,
      "d": 340,
      "v": 100
    },
    {
      "midi": 43,
      "hit": false,
      "t": 26804,
      "d": 228,
      "v": 90
    },
    {
      "midi": 74,
      "hit": false,
      "t": 26804,
      "d": 228,
      "v": 100
    },
    {
      "midi": 62,
      "hit": false,
      "t": 26804,
      "d": 228,
      "v": 80
    },
    {
      "midi": 35,
      "hit": false,
      "t": 26920,
      "d": 112,
      "v": 100
    },
    {
      "midi": 35,
      "hit": false,
      "t": 27032,
      "d": 0,
      "v": 110
    },
    {
      "midi": 39,
      "hit": false,
      "t": 27032,
      "d": 224,
      "v": 90
    },
    {
      "midi": 35,
      "hit": false,
      "t": 27032,
      "d": 224,
      "v": 100
    },
    {
      "midi": 77,
      "hit": false,
      "t": 27032,
      "d": 336,
      "v": 100
    },
    {
      "midi": 65,
      "hit": false,
      "t": 27032,
      "d": 336,
      "v": 80
    },
    {
      "midi": 75,
      "hit": false,
      "t": 27032,
      "d": 900,
      "v": 58
    },
    {
      "midi": 82,
      "hit": false,
      "t": 27032,
      "d": 900,
      "v": 58
    },
    {
      "midi": 35,
      "hit": false,
      "t": 27256,
      "d": 0,
      "v": 110
    },
    {
      "midi": 39,
      "hit": false,
      "t": 27256,
      "d": 228,
      "v": 90
    },
    {
      "midi": 35,
      "hit": false,
      "t": 27256,
      "d": 228,
      "v": 100
    },
    {
      "midi": 79,
      "hit": false,
      "t": 27368,
      "d": 340,
      "v": 100
    },
    {
      "midi": 67,
      "hit": false,
      "t": 27368,
      "d": 340,
      "v": 80
    },
    {
      "midi": 39,
      "hit": false,
      "t": 27484,
      "d": 224,
      "v": 90
    },
    {
      "midi": 40,
      "hit": false,
      "t": 27484,
      "d": 336,
      "v": 100
    },
    {
      "midi": 39,
      "hit": false,
      "t": 27708,
      "d": 224,
      "v": 90
    },
    {
      "midi": 74,
      "hit": false,
      "t": 27708,
      "d": 224,
      "v": 100
    },
    {
      "midi": 62,
      "hit": false,
      "t": 27708,
      "d": 224,
      "v": 80
    },
    {
      "midi": 35,
      "hit": false,
      "t": 27820,
      "d": 112,
      "v": 100
    },
    {
      "midi": 35,
      "hit": false,
      "t": 27932,
      "d": 0,
      "v": 110
    },
    {
      "midi": 41,
      "hit": false,
      "t": 27932,
      "d": 228,
      "v": 90
    },
    {
      "midi": 77,
      "hit": false,
      "t": 27932,
      "d": 228,
      "v": 100
    },
    {
      "midi": 65,
      "hit": false,
      "t": 27932,
      "d": 228,
      "v": 58
    },
    {
      "midi": 35,
      "hit": false,
      "t": 27932,
      "d": 452,
      "v": 100
    },
    {
      "midi": 69,
      "hit": false,
      "t": 27932,
      "d": 904,
      "v": 58
    },
    {
      "midi": 41,
      "hit": false,
      "t": 28160,
      "d": 224,
      "v": 90
    },
    {
      "midi": 75,
      "hit": false,
      "t": 28160,
      "d": 224,
      "v": 100
    },
    {
      "midi": 63,
      "hit": false,
      "t": 28160,
      "d": 224,
      "v": 80
    },
    {
      "midi": 41,
      "hit": false,
      "t": 28384,
      "d": 228,
      "v": 90
    },
    {
      "midi": 74,
      "hit": false,
      "t": 28384,
      "d": 228,
      "v": 100
    },
    {
      "midi": 62,
      "hit": false,
      "t": 28384,
      "d": 228,
      "v": 80
    },
    {
      "midi": 40,
      "hit": false,
      "t": 28384,
      "d": 340,
      "v": 100
    },
    {
      "midi": 41,
      "hit": false,
      "t": 28612,
      "d": 224,
      "v": 90
    },
    {
      "midi": 72,
      "hit": false,
      "t": 28612,
      "d": 224,
      "v": 100
    },
    {
      "midi": 60,
      "hit": false,
      "t": 28612,
      "d": 224,
      "v": 80
    },
    {
      "midi": 35,
      "hit": false,
      "t": 28724,
      "d": 112,
      "v": 100
    },
    {
      "midi": 72,
      "hit": false,
      "t": 28836,
      "d": 0,
      "v": 100
    },
    {
      "midi": 35,
      "hit": false,
      "t": 28836,
      "d": 0,
      "v": 110
    },
    {
      "midi": 46,
      "hit": false,
      "t": 28836,
      "d": 224,
      "v": 90
    },
    {
      "midi": 35,
      "hit": false,
      "t": 28836,
      "d": 224,
      "v": 100
    },
    {
      "midi": 60,
      "hit": false,
      "t": 28836,
      "d": 340,
      "v": 80
    },
    {
      "midi": 70,
      "hit": false,
      "t": 28836,
      "d": 904,
      "v": 58
    },
    {
      "midi": 77,
      "hit": false,
      "t": 28836,
      "d": 904,
      "v": 58
    },
    {
      "midi": 35,
      "hit": false,
      "t": 29060,
      "d": 0,
      "v": 110
    },
    {
      "midi": 46,
      "hit": false,
      "t": 29060,
      "d": 228,
      "v": 90
    },
    {
      "midi": 35,
      "hit": false,
      "t": 29060,
      "d": 228,
      "v": 100
    },
    {
      "midi": 74,
      "hit": false,
      "t": 29176,
      "d": 336,
      "v": 100
    },
    {
      "midi": 62,
      "hit": false,
      "t": 29176,
      "d": 336,
      "v": 80
    },
    {
      "midi": 46,
      "hit": false,
      "t": 29288,
      "d": 224,
      "v": 90
    },
    {
      "midi": 40,
      "hit": false,
      "t": 29288,
      "d": 336,
      "v": 100
    },
    {
      "midi": 46,
      "hit": false,
      "t": 29512,
      "d": 228,
      "v": 90
    },
    {
      "midi": 35,
      "hit": false,
      "t": 29624,
      "d": 116,
      "v": 100
    },
    {
      "midi": 35,
      "hit": false,
      "t": 29740,
      "d": 0,
      "v": 110
    },
    {
      "midi": 48,
      "hit": false,
      "t": 29740,
      "d": 224,
      "v": 90
    },
    {
      "midi": 75,
      "hit": false,
      "t": 29740,
      "d": 336,
      "v": 58
    },
    {
      "midi": 63,
      "hit": false,
      "t": 29740,
      "d": 336,
      "v": 80
    },
    {
      "midi": 49,
      "hit": false,
      "t": 29740,
      "d": 448,
      "v": 100
    },
    {
      "midi": 35,
      "hit": false,
      "t": 29740,
      "d": 448,
      "v": 100
    },
    {
      "midi": 72,
      "hit": false,
      "t": 29740,
      "d": 900,
      "v": 58
    },
    {
      "midi": 79,
      "hit": false,
      "t": 29740,
      "d": 900,
      "v": 58
    },
    {
      "midi": 48,
      "hit": false,
      "t": 29964,
      "d": 224,
      "v": 90
    },
    {
      "midi": 75,
      "hit": false,
      "t": 30076,
      "d": 340,
      "v": 100
    },
    {
      "midi": 63,
      "hit": false,
      "t": 30076,
      "d": 340,
      "v": 80
    },
    {
      "midi": 48,
      "hit": false,
      "t": 30188,
      "d": 228,
      "v": 90
    },
    {
      "midi": 40,
      "hit": false,
      "t": 30188,
      "d": 340,
      "v": 100
    },
    {
      "midi": 48,
      "hit": false,
      "t": 30416,
      "d": 224,
      "v": 90
    },
    {
      "midi": 75,
      "hit": false,
      "t": 30416,
      "d": 224,
      "v": 100
    },
    {
      "midi": 63,
      "hit": false,
      "t": 30416,
      "d": 224,
      "v": 80
    },
    {
      "midi": 35,
      "hit": false,
      "t": 30528,
      "d": 112,
      "v": 100
    },
    {
      "midi": 35,
      "hit": false,
      "t": 30640,
      "d": 0,
      "v": 110
    },
    {
      "midi": 50,
      "hit": false,
      "t": 30640,
      "d": 228,
      "v": 90
    },
    {
      "midi": 35,
      "hit": false,
      "t": 30640,
      "d": 228,
      "v": 100
    },
    {
      "midi": 74,
      "hit": false,
      "t": 30640,
      "d": 452,
      "v": 58
    },
    {
      "midi": 62,
      "hit": false,
      "t": 30640,
      "d": 452,
      "v": 80
    },
    {
      "midi": 81,
      "hit": false,
      "t": 30640,
      "d": 904,
      "v": 58
    },
    {
      "midi": 35,
      "hit": false,
      "t": 30868,
      "d": 0,
      "v": 110
    },
    {
      "midi": 50,
      "hit": false,
      "t": 30868,
      "d": 224,
      "v": 90
    },
    {
      "midi": 35,
      "hit": false,
      "t": 30868,
      "d": 224,
      "v": 100
    },
    {
      "midi": 50,
      "hit": false,
      "t": 31092,
      "d": 224,
      "v": 90
    },
    {
      "midi": 77,
      "hit": false,
      "t": 31092,
      "d": 224,
      "v": 100
    },
    {
      "midi": 65,
      "hit": false,
      "t": 31092,
      "d": 224,
      "v": 80
    },
    {
      "midi": 40,
      "hit": false,
      "t": 31092,
      "d": 340,
      "v": 100
    },
    {
      "midi": 50,
      "hit": false,
      "t": 31316,
      "d": 228,
      "v": 90
    },
    {
      "midi": 67,
      "hit": false,
      "t": 31316,
      "d": 2708,
      "v": 80
    },
    {
      "midi": 35,
      "hit": false,
      "t": 31432,
      "d": 112,
      "v": 100
    },
    {
      "midi": 35,
      "hit": false,
      "t": 31544,
      "d": 0,
      "v": 110
    },
    {
      "midi": 51,
      "hit": false,
      "t": 31544,
      "d": 224,
      "v": 90
    },
    {
      "midi": 35,
      "hit": false,
      "t": 31544,
      "d": 448,
      "v": 100
    },
    {
      "midi": 75,
      "hit": false,
      "t": 31544,
      "d": 676,
      "v": 58
    },
    {
      "midi": 79,
      "hit": false,
      "t": 31544,
      "d": 676,
      "v": 58
    },
    {
      "midi": 82,
      "hit": false,
      "t": 31544,
      "d": 676,
      "v": 58
    },
    {
      "midi": 51,
      "hit": false,
      "t": 31768,
      "d": 224,
      "v": 90
    },
    {
      "midi": 51,
      "hit": false,
      "t": 31992,
      "d": 228,
      "v": 90
    },
    {
      "midi": 40,
      "hit": false,
      "t": 31992,
      "d": 340,
      "v": 100
    },
    {
      "midi": 51,
      "hit": false,
      "t": 32220,
      "d": 224,
      "v": 90
    },
    {
      "midi": 79,
      "hit": false,
      "t": 32220,
      "d": 1128,
      "v": 58
    },
    {
      "midi": 82,
      "hit": false,
      "t": 32220,
      "d": 1128,
      "v": 58
    },
    {
      "midi": 86,
      "hit": false,
      "t": 32220,
      "d": 1128,
      "v": 58
    },
    {
      "midi": 35,
      "hit": false,
      "t": 32332,
      "d": 112,
      "v": 100
    },
    {
      "midi": 35,
      "hit": false,
      "t": 32444,
      "d": 0,
      "v": 110
    },
    {
      "midi": 51,
      "hit": false,
      "t": 32444,
      "d": 228,
      "v": 90
    },
    {
      "midi": 35,
      "hit": false,
      "t": 32444,
      "d": 228,
      "v": 100
    },
    {
      "midi": 35,
      "hit": false,
      "t": 32672,
      "d": 0,
      "v": 110
    },
    {
      "midi": 51,
      "hit": false,
      "t": 32672,
      "d": 224,
      "v": 90
    },
    {
      "midi": 35,
      "hit": false,
      "t": 32672,
      "d": 224,
      "v": 100
    },
    {
      "midi": 51,
      "hit": false,
      "t": 32896,
      "d": 224,
      "v": 90
    },
    {
      "midi": 40,
      "hit": false,
      "t": 32896,
      "d": 340,
      "v": 100
    },
    {
      "midi": 51,
      "hit": false,
      "t": 33120,
      "d": 228,
      "v": 90
    },
    {
      "midi": 35,
      "hit": false,
      "t": 33236,
      "d": 112,
      "v": 100
    },
    {
      "midi": 35,
      "hit": false,
      "t": 33348,
      "d": 0,
      "v": 110
    },
    {
      "midi": 53,
      "hit": false,
      "t": 33348,
      "d": 224,
      "v": 90
    },
    {
      "midi": 57,
      "hit": false,
      "t": 33348,
      "d": 452,
      "v": 100
    },
    {
      "midi": 35,
      "hit": false,
      "t": 33348,
      "d": 452,
      "v": 100
    },
    {
      "midi": 74,
      "hit": false,
      "t": 33348,
      "d": 676,
      "v": 58
    },
    {
      "midi": 77,
      "hit": false,
      "t": 33348,
      "d": 676,
      "v": 58
    },
    {
      "midi": 81,
      "hit": false,
      "t": 33348,
      "d": 676,
      "v": 58
    },
    {
      "midi": 53,
      "hit": false,
      "t": 33572,
      "d": 228,
      "v": 90
    },
    {
      "midi": 53,
      "hit": false,
      "t": 33800,
      "d": 224,
      "v": 90
    },
    {
      "midi": 40,
      "hit": false,
      "t": 33800,
      "d": 336,
      "v": 100
    },
    {
      "midi": 53,
      "hit": false,
      "t": 34024,
      "d": 224,
      "v": 90
    },
    {
      "midi": 77,
      "hit": false,
      "t": 34024,
      "d": 1128,
      "v": 58
    },
    {
      "midi": 81,
      "hit": false,
      "t": 34024,
      "d": 1128,
      "v": 58
    },
    {
      "midi": 84,
      "hit": false,
      "t": 34024,
      "d": 1128,
      "v": 58
    },
    {
      "midi": 40,
      "hit": false,
      "t": 34136,
      "d": 112,
      "v": 100
    },
    {
      "midi": 43,
      "hit": false,
      "t": 34248,
      "d": 116,
      "v": 100
    },
    {
      "midi": 53,
      "hit": false,
      "t": 34248,
      "d": 228,
      "v": 90
    },
    {
      "midi": 43,
      "hit": false,
      "t": 34364,
      "d": 224,
      "v": 100
    },
    {
      "midi": 53,
      "hit": false,
      "t": 34476,
      "d": 224,
      "v": 90
    },
    {
      "midi": 74,
      "hit": false,
      "t": 34476,
      "d": 452,
      "v": 100
    },
    {
      "midi": 43,
      "hit": false,
      "t": 34588,
      "d": 112,
      "v": 100
    },
    {
      "midi": 41,
      "hit": false,
      "t": 34700,
      "d": 112,
      "v": 100
    },
    {
      "midi": 53,
      "hit": false,
      "t": 34700,
      "d": 228,
      "v": 90
    },
    {
      "midi": 41,
      "hit": false,
      "t": 34812,
      "d": 116,
      "v": 100
    },
    {
      "midi": 72,
      "hit": false,
      "t": 34928,
      "d": 112,
      "v": 100
    },
    {
      "midi": 41,
      "hit": false,
      "t": 34928,
      "d": 112,
      "v": 100
    },
    {
      "midi": 53,
      "hit": false,
      "t": 34928,
      "d": 224,
      "v": 90
    },
    {
      "midi": 41,
      "hit": false,
      "t": 35040,
      "d": 112,
      "v": 100
    },
    {
      "midi": 70,
      "hit": false,
      "t": 35152,
      "d": 0,
      "v": 100
    },
    {
      "midi": 43,
      "hit": false,
      "t": 35152,
      "d": 224,
      "v": 60
    },
    {
      "midi": 57,
      "hit": false,
      "t": 35152,
      "d": 452,
      "v": 100
    },
    {
      "midi": 35,
      "hit": false,
      "t": 35152,
      "d": 452,
      "v": 100
    },
    {
      "midi": 74,
      "hit": false,
      "t": 35152,
      "d": 1804,
      "v": 58
    },
    {
      "midi": 43,
      "hit": false,
      "t": 35376,
      "d": 228,
      "v": 60
    },
    {
      "midi": 70,
      "hit": false,
      "t": 35376,
      "d": 228,
      "v": 100
    },
    {
      "midi": 35,
      "hit": false,
      "t": 35604,
      "d": 0,
      "v": 110
    },
    {
      "midi": 43,
      "hit": false,
      "t": 35604,
      "d": 224,
      "v": 60
    },
    {
      "midi": 70,
      "hit": false,
      "t": 35604,
      "d": 224,
      "v": 100
    },
    {
      "midi": 35,
      "hit": false,
      "t": 35604,
      "d": 452,
      "v": 100
    },
    {
      "midi": 43,
      "hit": false,
      "t": 35828,
      "d": 228,
      "v": 60
    },
    {
      "midi": 70,
      "hit": false,
      "t": 35828,
      "d": 228,
      "v": 100
    },
    {
      "midi": 35,
      "hit": false,
      "t": 36056,
      "d": 0,
      "v": 110
    },
    {
      "midi": 43,
      "hit": false,
      "t": 36056,
      "d": 224,
      "v": 60
    },
    {
      "midi": 70,
      "hit": false,
      "t": 36056,
      "d": 224,
      "v": 100
    },
    {
      "midi": 35,
      "hit": false,
      "t": 36056,
      "d": 448,
      "v": 100
    },
    {
      "midi": 72,
      "hit": false,
      "t": 36280,
      "d": 112,
      "v": 100
    },
    {
      "midi": 43,
      "hit": false,
      "t": 36280,
      "d": 224,
      "v": 60
    },
    {
      "midi": 67,
      "hit": false,
      "t": 36392,
      "d": 340,
      "v": 100
    },
    {
      "midi": 35,
      "hit": false,
      "t": 36504,
      "d": 0,
      "v": 110
    },
    {
      "midi": 43,
      "hit": false,
      "t": 36504,
      "d": 228,
      "v": 60
    },
    {
      "midi": 35,
      "hit": false,
      "t": 36504,
      "d": 452,
      "v": 100
    },
    {
      "midi": 43,
      "hit": false,
      "t": 36732,
      "d": 224,
      "v": 60
    },
    {
      "midi": 70,
      "hit": false,
      "t": 36732,
      "d": 224,
      "v": 100
    },
    {
      "midi": 35,
      "hit": false,
      "t": 36956,
      "d": 0,
      "v": 110
    },
    {
      "midi": 39,
      "hit": false,
      "t": 36956,
      "d": 224,
      "v": 60
    },
    {
      "midi": 35,
      "hit": false,
      "t": 36956,
      "d": 452,
      "v": 100
    },
    {
      "midi": 75,
      "hit": false,
      "t": 36956,
      "d": 1804,
      "v": 58
    },
    {
      "midi": 79,
      "hit": false,
      "t": 36956,
      "d": 1804,
      "v": 58
    },
    {
      "midi": 82,
      "hit": false,
      "t": 36956,
      "d": 1804,
      "v": 58
    },
    {
      "midi": 70,
      "hit": false,
      "t": 37068,
      "d": 340,
      "v": 100
    },
    {
      "midi": 39,
      "hit": false,
      "t": 37180,
      "d": 228,
      "v": 60
    },
    {
      "midi": 35,
      "hit": false,
      "t": 37408,
      "d": 0,
      "v": 110
    },
    {
      "midi": 39,
      "hit": false,
      "t": 37408,
      "d": 224,
      "v": 60
    },
    {
      "midi": 70,
      "hit": false,
      "t": 37408,
      "d": 224,
      "v": 100
    },
    {
      "midi": 35,
      "hit": false,
      "t": 37408,
      "d": 452,
      "v": 100
    },
    {
      "midi": 39,
      "hit": false,
      "t": 37632,
      "d": 228,
      "v": 60
    },
    {
      "midi": 70,
      "hit": false,
      "t": 37632,
      "d": 228,
      "v": 100
    },
    {
      "midi": 35,
      "hit": false,
      "t": 37860,
      "d": 0,
      "v": 110
    },
    {
      "midi": 37,
      "hit": false,
      "t": 37860,
      "d": 112,
      "v": 100
    },
    {
      "midi": 39,
      "hit": false,
      "t": 37860,
      "d": 224,
      "v": 60
    },
    {
      "midi": 70,
      "hit": false,
      "t": 37860,
      "d": 224,
      "v": 100
    },
    {
      "midi": 35,
      "hit": false,
      "t": 37860,
      "d": 448,
      "v": 100
    },
    {
      "midi": 37,
      "hit": false,
      "t": 37972,
      "d": 224,
      "v": 100
    },
    {
      "midi": 72,
      "hit": false,
      "t": 38084,
      "d": 112,
      "v": 100
    },
    {
      "midi": 39,
      "hit": false,
      "t": 38084,
      "d": 224,
      "v": 60
    },
    {
      "midi": 37,
      "hit": false,
      "t": 38196,
      "d": 228,
      "v": 100
    },
    {
      "midi": 67,
      "hit": false,
      "t": 38196,
      "d": 452,
      "v": 100
    },
    {
      "midi": 35,
      "hit": false,
      "t": 38308,
      "d": 0,
      "v": 110
    },
    {
      "midi": 39,
      "hit": false,
      "t": 38308,
      "d": 228,
      "v": 60
    },
    {
      "midi": 35,
      "hit": false,
      "t": 38308,
      "d": 452,
      "v": 100
    },
    {
      "midi": 37,
      "hit": false,
      "t": 38424,
      "d": 112,
      "v": 100
    },
    {
      "midi": 37,
      "hit": false,
      "t": 38536,
      "d": 112,
      "v": 100
    },
    {
      "midi": 39,
      "hit": false,
      "t": 38536,
      "d": 224,
      "v": 60
    },
    {
      "midi": 37,
      "hit": false,
      "t": 38648,
      "d": 112,
      "v": 100
    },
    {
      "midi": 35,
      "hit": false,
      "t": 38760,
      "d": 0,
      "v": 110
    },
    {
      "midi": 41,
      "hit": false,
      "t": 38760,
      "d": 228,
      "v": 60
    },
    {
      "midi": 35,
      "hit": false,
      "t": 38760,
      "d": 452,
      "v": 100
    },
    {
      "midi": 65,
      "hit": false,
      "t": 38760,
      "d": 1804,
      "v": 58
    },
    {
      "midi": 41,
      "hit": false,
      "t": 38988,
      "d": 224,
      "v": 60
    },
    {
      "midi": 69,
      "hit": false,
      "t": 38988,
      "d": 224,
      "v": 100
    },
    {
      "midi": 35,
      "hit": false,
      "t": 39212,
      "d": 0,
      "v": 110
    },
    {
      "midi": 41,
      "hit": false,
      "t": 39212,
      "d": 224,
      "v": 60
    },
    {
      "midi": 69,
      "hit": false,
      "t": 39212,
      "d": 224,
      "v": 100
    },
    {
      "midi": 35,
      "hit": false,
      "t": 39212,
      "d": 452,
      "v": 100
    },
    {
      "midi": 41,
      "hit": false,
      "t": 39436,
      "d": 228,
      "v": 60
    },
    {
      "midi": 70,
      "hit": false,
      "t": 39436,
      "d": 228,
      "v": 100
    },
    {
      "midi": 35,
      "hit": false,
      "t": 39664,
      "d": 0,
      "v": 110
    },
    {
      "midi": 41,
      "hit": false,
      "t": 39664,
      "d": 224,
      "v": 60
    },
    {
      "midi": 72,
      "hit": false,
      "t": 39664,
      "d": 336,
      "v": 100
    },
    {
      "midi": 35,
      "hit": false,
      "t": 39664,
      "d": 452,
      "v": 100
    },
    {
      "midi": 41,
      "hit": false,
      "t": 39888,
      "d": 228,
      "v": 60
    },
    {
      "midi": 69,
      "hit": false,
      "t": 40000,
      "d": 340,
      "v": 100
    },
    {
      "midi": 35,
      "hit": false,
      "t": 40116,
      "d": 0,
      "v": 110
    },
    {
      "midi": 41,
      "hit": false,
      "t": 40116,
      "d": 224,
      "v": 60
    },
    {
      "midi": 35,
      "hit": false,
      "t": 40116,
      "d": 448,
      "v": 100
    },
    {
      "midi": 41,
      "hit": false,
      "t": 40340,
      "d": 224,
      "v": 60
    },
    {
      "midi": 67,
      "hit": false,
      "t": 40340,
      "d": 224,
      "v": 100
    },
    {
      "midi": 35,
      "hit": false,
      "t": 40564,
      "d": 0,
      "v": 110
    },
    {
      "midi": 46,
      "hit": false,
      "t": 40564,
      "d": 228,
      "v": 60
    },
    {
      "midi": 67,
      "hit": false,
      "t": 40564,
      "d": 228,
      "v": 100
    },
    {
      "midi": 35,
      "hit": false,
      "t": 40564,
      "d": 452,
      "v": 100
    },
    {
      "midi": 70,
      "hit": false,
      "t": 40564,
      "d": 1804,
      "v": 58
    },
    {
      "midi": 74,
      "hit": false,
      "t": 40564,
      "d": 1804,
      "v": 58
    },
    {
      "midi": 77,
      "hit": false,
      "t": 40564,
      "d": 1804,
      "v": 58
    },
    {
      "midi": 69,
      "hit": false,
      "t": 40792,
      "d": 112,
      "v": 100
    },
    {
      "midi": 46,
      "hit": false,
      "t": 40792,
      "d": 224,
      "v": 60
    },
    {
      "midi": 65,
      "hit": false,
      "t": 40904,
      "d": 900,
      "v": 100
    },
    {
      "midi": 35,
      "hit": false,
      "t": 41016,
      "d": 0,
      "v": 110
    },
    {
      "midi": 46,
      "hit": false,
      "t": 41016,
      "d": 228,
      "v": 60
    },
    {
      "midi": 35,
      "hit": false,
      "t": 41016,
      "d": 452,
      "v": 100
    },
    {
      "midi": 46,
      "hit": false,
      "t": 41244,
      "d": 224,
      "v": 60
    },
    {
      "midi": 35,
      "hit": false,
      "t": 41468,
      "d": 0,
      "v": 110
    },
    {
      "midi": 37,
      "hit": false,
      "t": 41468,
      "d": 112,
      "v": 100
    },
    {
      "midi": 46,
      "hit": false,
      "t": 41468,
      "d": 224,
      "v": 60
    },
    {
      "midi": 35,
      "hit": false,
      "t": 41468,
      "d": 452,
      "v": 100
    },
    {
      "midi": 37,
      "hit": false,
      "t": 41580,
      "d": 224,
      "v": 100
    },
    {
      "midi": 46,
      "hit": false,
      "t": 41692,
      "d": 228,
      "v": 60
    },
    {
      "midi": 37,
      "hit": false,
      "t": 41804,
      "d": 228,
      "v": 100
    },
    {
      "midi": 35,
      "hit": false,
      "t": 41920,
      "d": 0,
      "v": 110
    },
    {
      "midi": 46,
      "hit": false,
      "t": 41920,
      "d": 224,
      "v": 60
    },
    {
      "midi": 35,
      "hit": false,
      "t": 41920,
      "d": 448,
      "v": 100
    },
    {
      "midi": 37,
      "hit": false,
      "t": 42032,
      "d": 112,
      "v": 100
    },
    {
      "midi": 37,
      "hit": false,
      "t": 42144,
      "d": 112,
      "v": 100
    },
    {
      "midi": 46,
      "hit": false,
      "t": 42144,
      "d": 224,
      "v": 60
    },
    {
      "midi": 37,
      "hit": false,
      "t": 42256,
      "d": 112,
      "v": 100
    },
    {
      "midi": 35,
      "hit": false,
      "t": 42368,
      "d": 0,
      "v": 110
    },
    {
      "midi": 39,
      "hit": false,
      "t": 42368,
      "d": 228,
      "v": 60
    },
    {
      "midi": 35,
      "hit": false,
      "t": 42368,
      "d": 452,
      "v": 100
    },
    {
      "midi": 60,
      "hit": false,
      "t": 42368,
      "d": 904,
      "v": 58
    },
    {
      "midi": 63,
      "hit": false,
      "t": 42368,
      "d": 904,
      "v": 58
    },
    {
      "midi": 39,
      "hit": false,
      "t": 42596,
      "d": 224,
      "v": 60
    },
    {
      "midi": 65,
      "hit": false,
      "t": 42596,
      "d": 224,
      "v": 100
    },
    {
      "midi": 35,
      "hit": false,
      "t": 42820,
      "d": 0,
      "v": 110
    },
    {
      "midi": 39,
      "hit": false,
      "t": 42820,
      "d": 228,
      "v": 60
    },
    {
      "midi": 67,
      "hit": false,
      "t": 42820,
      "d": 228,
      "v": 100
    },
    {
      "midi": 35,
      "hit": false,
      "t": 42820,
      "d": 452,
      "v": 100
    },
    {
      "midi": 39,
      "hit": false,
      "t": 43048,
      "d": 224,
      "v": 60
    },
    {
      "midi": 70,
      "hit": false,
      "t": 43048,
      "d": 224,
      "v": 100
    },
    {
      "midi": 35,
      "hit": false,
      "t": 43272,
      "d": 0,
      "v": 110
    },
    {
      "midi": 41,
      "hit": false,
      "t": 43272,
      "d": 224,
      "v": 60
    },
    {
      "midi": 70,
      "hit": false,
      "t": 43272,
      "d": 340,
      "v": 100
    },
    {
      "midi": 35,
      "hit": false,
      "t": 43272,
      "d": 452,
      "v": 100
    },
    {
      "midi": 65,
      "hit": false,
      "t": 43272,
      "d": 904,
      "v": 58
    },
    {
      "midi": 72,
      "hit": false,
      "t": 43272,
      "d": 904,
      "v": 58
    },
    {
      "midi": 41,
      "hit": false,
      "t": 43496,
      "d": 228,
      "v": 60
    },
    {
      "midi": 69,
      "hit": false,
      "t": 43612,
      "d": 564,
      "v": 100
    },
    {
      "midi": 35,
      "hit": false,
      "t": 43724,
      "d": 0,
      "v": 110
    },
    {
      "midi": 41,
      "hit": false,
      "t": 43724,
      "d": 224,
      "v": 60
    },
    {
      "midi": 35,
      "hit": false,
      "t": 43724,
      "d": 452,
      "v": 100
    },
    {
      "midi": 41,
      "hit": false,
      "t": 43948,
      "d": 228,
      "v": 60
    },
    {
      "midi": 35,
      "hit": false,
      "t": 44176,
      "d": 0,
      "v": 110
    },
    {
      "midi": 42,
      "hit": false,
      "t": 44176,
      "d": 224,
      "v": 60
    },
    {
      "midi": 69,
      "hit": false,
      "t": 44176,
      "d": 224,
      "v": 58
    },
    {
      "midi": 35,
      "hit": false,
      "t": 44176,
      "d": 448,
      "v": 100
    },
    {
      "midi": 62,
      "hit": false,
      "t": 44176,
      "d": 900,
      "v": 58
    },
    {
      "midi": 42,
      "hit": false,
      "t": 44400,
      "d": 224,
      "v": 60
    },
    {
      "midi": 66,
      "hit": false,
      "t": 44400,
      "d": 224,
      "v": 100
    },
    {
      "midi": 35,
      "hit": false,
      "t": 44624,
      "d": 0,
      "v": 110
    },
    {
      "midi": 42,
      "hit": false,
      "t": 44624,
      "d": 228,
      "v": 60
    },
    {
      "midi": 69,
      "hit": false,
      "t": 44624,
      "d": 228,
      "v": 100
    },
    {
      "midi": 35,
      "hit": false,
      "t": 44624,
      "d": 452,
      "v": 100
    },
    {
      "midi": 42,
      "hit": false,
      "t": 44852,
      "d": 224,
      "v": 60
    },
    {
      "midi": 72,
      "hit": false,
      "t": 44852,
      "d": 224,
      "v": 100
    },
    {
      "midi": 35,
      "hit": false,
      "t": 45076,
      "d": 0,
      "v": 110
    },
    {
      "midi": 37,
      "hit": false,
      "t": 45076,
      "d": 112,
      "v": 100
    },
    {
      "midi": 43,
      "hit": false,
      "t": 45076,
      "d": 228,
      "v": 60
    },
    {
      "midi": 72,
      "hit": false,
      "t": 45076,
      "d": 340,
      "v": 100
    },
    {
      "midi": 35,
      "hit": false,
      "t": 45076,
      "d": 452,
      "v": 100
    },
    {
      "midi": 67,
      "hit": false,
      "t": 45076,
      "d": 904,
      "v": 58
    },
    {
      "midi": 74,
      "hit": false,
      "t": 45076,
      "d": 904,
      "v": 58
    },
    {
      "midi": 37,
      "hit": false,
      "t": 45188,
      "d": 228,
      "v": 100
    },
    {
      "midi": 43,
      "hit": false,
      "t": 45304,
      "d": 224,
      "v": 60
    },
    {
      "midi": 37,
      "hit": false,
      "t": 45416,
      "d": 224,
      "v": 100
    },
    {
      "midi": 70,
      "hit": false,
      "t": 45416,
      "d": 336,
      "v": 100
    },
    {
      "midi": 35,
      "hit": false,
      "t": 45528,
      "d": 0,
      "v": 110
    },
    {
      "midi": 43,
      "hit": false,
      "t": 45528,
      "d": 224,
      "v": 60
    },
    {
      "midi": 35,
      "hit": false,
      "t": 45528,
      "d": 452,
      "v": 100
    },
    {
      "midi": 37,
      "hit": false,
      "t": 45640,
      "d": 112,
      "v": 100
    },
    {
      "midi": 37,
      "hit": false,
      "t": 45752,
      "d": 116,
      "v": 100
    },
    {
      "midi": 43,
      "hit": false,
      "t": 45752,
      "d": 228,
      "v": 60
    },
    {
      "midi": 69,
      "hit": false,
      "t": 45752,
      "d": 228,
      "v": 100
    },
    {
      "midi": 37,
      "hit": false,
      "t": 45868,
      "d": 112,
      "v": 100
    },
    {
      "midi": 35,
      "hit": false,
      "t": 45980,
      "d": 0,
      "v": 110
    },
    {
      "midi": 36,
      "hit": false,
      "t": 45980,
      "d": 224,
      "v": 60
    },
    {
      "midi": 35,
      "hit": false,
      "t": 45980,
      "d": 452,
      "v": 100
    },
    {
      "midi": 70,
      "hit": false,
      "t": 45980,
      "d": 1128,
      "v": 100
    },
    {
      "midi": 63,
      "hit": false,
      "t": 45980,
      "d": 1804,
      "v": 58
    },
    {
      "midi": 36,
      "hit": false,
      "t": 46204,
      "d": 228,
      "v": 60
    },
    {
      "midi": 35,
      "hit": false,
      "t": 46432,
      "d": 0,
      "v": 110
    },
    {
      "midi": 36,
      "hit": false,
      "t": 46432,
      "d": 224,
      "v": 60
    },
    {
      "midi": 35,
      "hit": false,
      "t": 46432,
      "d": 448,
      "v": 100
    },
    {
      "midi": 36,
      "hit": false,
      "t": 46656,
      "d": 224,
      "v": 60
    },
    {
      "midi": 35,
      "hit": false,
      "t": 46880,
      "d": 0,
      "v": 110
    },
    {
      "midi": 36,
      "hit": false,
      "t": 46880,
      "d": 228,
      "v": 60
    },
    {
      "midi": 35,
      "hit": false,
      "t": 46880,
      "d": 452,
      "v": 100
    },
    {
      "midi": 36,
      "hit": false,
      "t": 47108,
      "d": 224,
      "v": 60
    },
    {
      "midi": 67,
      "hit": false,
      "t": 47108,
      "d": 224,
      "v": 100
    },
    {
      "midi": 35,
      "hit": false,
      "t": 47332,
      "d": 0,
      "v": 110
    },
    {
      "midi": 36,
      "hit": false,
      "t": 47332,
      "d": 224,
      "v": 60
    },
    {
      "midi": 70,
      "hit": false,
      "t": 47332,
      "d": 224,
      "v": 100
    },
    {
      "midi": 35,
      "hit": false,
      "t": 47332,
      "d": 452,
      "v": 100
    },
    {
      "midi": 72,
      "hit": false,
      "t": 47556,
      "d": 116,
      "v": 100
    },
    {
      "midi": 36,
      "hit": false,
      "t": 47556,
      "d": 228,
      "v": 60
    },
    {
      "midi": 72,
      "hit": false,
      "t": 47672,
      "d": 112,
      "v": 100
    },
    {
      "midi": 35,
      "hit": false,
      "t": 47784,
      "d": 0,
      "v": 110
    },
    {
      "midi": 38,
      "hit": false,
      "t": 47784,
      "d": 224,
      "v": 60
    },
    {
      "midi": 35,
      "hit": false,
      "t": 47784,
      "d": 452,
      "v": 100
    },
    {
      "midi": 62,
      "hit": false,
      "t": 47784,
      "d": 900,
      "v": 58
    },
    {
      "midi": 67,
      "hit": false,
      "t": 47784,
      "d": 900,
      "v": 58
    },
    {
      "midi": 69,
      "hit": false,
      "t": 47784,
      "d": 900,
      "v": 100
    },
    {
      "midi": 38,
      "hit": false,
      "t": 48008,
      "d": 228,
      "v": 60
    },
    {
      "midi": 35,
      "hit": false,
      "t": 48236,
      "d": 0,
      "v": 110
    },
    {
      "midi": 38,
      "hit": false,
      "t": 48236,
      "d": 224,
      "v": 60
    },
    {
      "midi": 35,
      "hit": false,
      "t": 48236,
      "d": 448,
      "v": 100
    },
    {
      "midi": 38,
      "hit": false,
      "t": 48460,
      "d": 224,
      "v": 60
    },
    {
      "midi": 35,
      "hit": false,
      "t": 48684,
      "d": 0,
      "v": 110
    },
    {
      "midi": 37,
      "hit": false,
      "t": 48684,
      "d": 116,
      "v": 100
    },
    {
      "midi": 38,
      "hit": false,
      "t": 48684,
      "d": 228,
      "v": 60
    },
    {
      "midi": 35,
      "hit": false,
      "t": 48684,
      "d": 452,
      "v": 100
    },
    {
      "midi": 69,
      "hit": false,
      "t": 48684,
      "d": 680,
      "v": 58
    },
    {
      "midi": 62,
      "hit": false,
      "t": 48684,
      "d": 904,
      "v": 58
    },
    {
      "midi": 66,
      "hit": false,
      "t": 48684,
      "d": 904,
      "v": 58
    },
    {
      "midi": 37,
      "hit": false,
      "t": 48800,
      "d": 224,
      "v": 100
    },
    {
      "midi": 38,
      "hit": false,
      "t": 48912,
      "d": 224,
      "v": 60
    },
    {
      "midi": 37,
      "hit": false,
      "t": 49024,
      "d": 224,
      "v": 100
    },
    {
      "midi": 35,
      "hit": false,
      "t": 49136,
      "d": 0,
      "v": 110
    },
    {
      "midi": 38,
      "hit": false,
      "t": 49136,
      "d": 228,
      "v": 60
    },
    {
      "midi": 35,
      "hit": false,
      "t": 49136,
      "d": 452,
      "v": 100
    },
    {
      "midi": 37,
      "hit": false,
      "t": 49248,
      "d": 116,
      "v": 100
    },
    {
      "midi": 37,
      "hit": false,
      "t": 49364,
      "d": 112,
      "v": 100
    },
    {
      "midi": 38,
      "hit": false,
      "t": 49364,
      "d": 224,
      "v": 60
    },
    {
      "midi": 37,
      "hit": false,
      "t": 49476,
      "d": 112,
      "v": 100
    },
    {
      "midi": 35,
      "hit": false,
      "t": 49588,
      "d": 0,
      "v": 110
    },
    {
      "midi": 44,
      "hit": false,
      "t": 49588,
      "d": 112,
      "v": 95
    },
    {
      "midi": 43,
      "hit": false,
      "t": 49588,
      "d": 224,
      "v": 90
    },
    {
      "midi": 70,
      "hit": false,
      "t": 49588,
      "d": 224,
      "v": 100
    },
    {
      "midi": 35,
      "hit": false,
      "t": 49588,
      "d": 452,
      "v": 100
    },
    {
      "midi": 74,
      "hit": false,
      "t": 49588,
      "d": 1804,
      "v": 58
    },
    {
      "midi": 44,
      "hit": false,
      "t": 49700,
      "d": 112,
      "v": 95
    },
    {
      "midi": 46,
      "hit": false,
      "t": 49812,
      "d": 116,
      "v": 95
    },
    {
      "midi": 43,
      "hit": false,
      "t": 49812,
      "d": 228,
      "v": 90
    },
    {
      "midi": 70,
      "hit": false,
      "t": 49812,
      "d": 228,
      "v": 100
    },
    {
      "midi": 44,
      "hit": false,
      "t": 49928,
      "d": 112,
      "v": 95
    },
    {
      "midi": 35,
      "hit": false,
      "t": 50040,
      "d": 0,
      "v": 110
    },
    {
      "midi": 44,
      "hit": false,
      "t": 50040,
      "d": 112,
      "v": 95
    },
    {
      "midi": 43,
      "hit": false,
      "t": 50040,
      "d": 224,
      "v": 90
    },
    {
      "midi": 70,
      "hit": false,
      "t": 50040,
      "d": 224,
      "v": 100
    },
    {
      "midi": 35,
      "hit": false,
      "t": 50040,
      "d": 452,
      "v": 100
    },
    {
      "midi": 44,
      "hit": false,
      "t": 50152,
      "d": 112,
      "v": 95
    },
    {
      "midi": 46,
      "hit": false,
      "t": 50264,
      "d": 112,
      "v": 95
    },
    {
      "midi": 43,
      "hit": false,
      "t": 50264,
      "d": 228,
      "v": 90
    },
    {
      "midi": 70,
      "hit": false,
      "t": 50264,
      "d": 228,
      "v": 100
    },
    {
      "midi": 44,
      "hit": false,
      "t": 50376,
      "d": 116,
      "v": 95
    },
    {
      "midi": 35,
      "hit": false,
      "t": 50492,
      "d": 0,
      "v": 110
    },
    {
      "midi": 44,
      "hit": false,
      "t": 50492,
      "d": 112,
      "v": 95
    },
    {
      "midi": 43,
      "hit": false,
      "t": 50492,
      "d": 224,
      "v": 90
    },
    {
      "midi": 70,
      "hit": false,
      "t": 50492,
      "d": 224,
      "v": 100
    },
    {
      "midi": 35,
      "hit": false,
      "t": 50492,
      "d": 448,
      "v": 100
    },
    {
      "midi": 44,
      "hit": false,
      "t": 50604,
      "d": 112,
      "v": 95
    },
    {
      "midi": 72,
      "hit": false,
      "t": 50716,
      "d": 112,
      "v": 100
    },
    {
      "midi": 46,
      "hit": false,
      "t": 50716,
      "d": 112,
      "v": 95
    },
    {
      "midi": 43,
      "hit": false,
      "t": 50716,
      "d": 224,
      "v": 90
    },
    {
      "midi": 44,
      "hit": false,
      "t": 50828,
      "d": 112,
      "v": 95
    },
    {
      "midi": 67,
      "hit": false,
      "t": 50828,
      "d": 340,
      "v": 100
    },
    {
      "midi": 35,
      "hit": false,
      "t": 50940,
      "d": 0,
      "v": 110
    },
    {
      "midi": 44,
      "hit": false,
      "t": 50940,
      "d": 116,
      "v": 95
    },
    {
      "midi": 43,
      "hit": false,
      "t": 50940,
      "d": 228,
      "v": 90
    },
    {
      "midi": 35,
      "hit": false,
      "t": 50940,
      "d": 452,
      "v": 100
    },
    {
      "midi": 44,
      "hit": false,
      "t": 51056,
      "d": 112,
      "v": 95
    },
    {
      "midi": 46,
      "hit": false,
      "t": 51168,
      "d": 112,
      "v": 95
    },
    {
      "midi": 43,
      "hit": false,
      "t": 51168,
      "d": 224,
      "v": 90
    },
    {
      "midi": 70,
      "hit": false,
      "t": 51168,
      "d": 224,
      "v": 100
    },
    {
      "midi": 44,
      "hit": false,
      "t": 51280,
      "d": 112,
      "v": 95
    },
    {
      "midi": 35,
      "hit": false,
      "t": 51392,
      "d": 0,
      "v": 110
    },
    {
      "midi": 44,
      "hit": false,
      "t": 51392,
      "d": 112,
      "v": 95
    },
    {
      "midi": 39,
      "hit": false,
      "t": 51392,
      "d": 224,
      "v": 90
    },
    {
      "midi": 35,
      "hit": false,
      "t": 51392,
      "d": 452,
      "v": 100
    },
    {
      "midi": 75,
      "hit": false,
      "t": 51392,
      "d": 1804,
      "v": 58
    },
    {
      "midi": 79,
      "hit": false,
      "t": 51392,
      "d": 1804,
      "v": 58
    },
    {
      "midi": 82,
      "hit": false,
      "t": 51392,
      "d": 1804,
      "v": 58
    },
    {
      "midi": 44,
      "hit": false,
      "t": 51504,
      "d": 112,
      "v": 95
    },
    {
      "midi": 70,
      "hit": false,
      "t": 51504,
      "d": 340,
      "v": 100
    },
    {
      "midi": 46,
      "hit": false,
      "t": 51616,
      "d": 116,
      "v": 95
    },
    {
      "midi": 39,
      "hit": false,
      "t": 51616,
      "d": 228,
      "v": 90
    },
    {
      "midi": 44,
      "hit": false,
      "t": 51732,
      "d": 112,
      "v": 95
    },
    {
      "midi": 35,
      "hit": false,
      "t": 51844,
      "d": 0,
      "v": 110
    },
    {
      "midi": 44,
      "hit": false,
      "t": 51844,
      "d": 112,
      "v": 95
    },
    {
      "midi": 39,
      "hit": false,
      "t": 51844,
      "d": 224,
      "v": 90
    },
    {
      "midi": 70,
      "hit": false,
      "t": 51844,
      "d": 224,
      "v": 100
    },
    {
      "midi": 35,
      "hit": false,
      "t": 51844,
      "d": 452,
      "v": 100
    },
    {
      "midi": 44,
      "hit": false,
      "t": 51956,
      "d": 112,
      "v": 95
    },
    {
      "midi": 46,
      "hit": false,
      "t": 52068,
      "d": 112,
      "v": 95
    },
    {
      "midi": 39,
      "hit": false,
      "t": 52068,
      "d": 228,
      "v": 90
    },
    {
      "midi": 70,
      "hit": false,
      "t": 52068,
      "d": 228,
      "v": 100
    },
    {
      "midi": 44,
      "hit": false,
      "t": 52180,
      "d": 116,
      "v": 95
    },
    {
      "midi": 35,
      "hit": false,
      "t": 52296,
      "d": 0,
      "v": 110
    },
    {
      "midi": 37,
      "hit": false,
      "t": 52296,
      "d": 112,
      "v": 100
    },
    {
      "midi": 44,
      "hit": false,
      "t": 52296,
      "d": 112,
      "v": 95
    },
    {
      "midi": 39,
      "hit": false,
      "t": 52296,
      "d": 224,
      "v": 90
    },
    {
      "midi": 70,
      "hit": false,
      "t": 52296,
      "d": 224,
      "v": 100
    },
    {
      "midi": 35,
      "hit": false,
      "t": 52296,
      "d": 448,
      "v": 100
    },
    {
      "midi": 44,
      "hit": false,
      "t": 52408,
      "d": 112,
      "v": 95
    },
    {
      "midi": 37,
      "hit": false,
      "t": 52408,
      "d": 224,
      "v": 100
    },
    {
      "midi": 72,
      "hit": false,
      "t": 52520,
      "d": 112,
      "v": 100
    },
    {
      "midi": 46,
      "hit": false,
      "t": 52520,
      "d": 112,
      "v": 95
    },
    {
      "midi": 39,
      "hit": false,
      "t": 52520,
      "d": 224,
      "v": 90
    },
    {
      "midi": 44,
      "hit": false,
      "t": 52632,
      "d": 112,
      "v": 95
    },
    {
      "midi": 37,
      "hit": false,
      "t": 52632,
      "d": 228,
      "v": 100
    },
    {
      "midi": 67,
      "hit": false,
      "t": 52632,
      "d": 452,
      "v": 100
    },
    {
      "midi": 35,
      "hit": false,
      "t": 52744,
      "d": 0,
      "v": 110
    },
    {
      "midi": 44,
      "hit": false,
      "t": 52744,
      "d": 116,
      "v": 95
    },
    {
      "midi": 39,
      "hit": false,
      "t": 52744,
      "d": 228,
      "v": 90
    },
    {
      "midi": 35,
      "hit": false,
      "t": 52744,
      "d": 452,
      "v": 100
    },
    {
      "midi": 37,
      "hit": false,
      "t": 52860,
      "d": 112,
      "v": 100
    },
    {
      "midi": 44,
      "hit": false,
      "t": 52860,
      "d": 112,
      "v": 95
    },
    {
      "midi": 37,
      "hit": false,
      "t": 52972,
      "d": 112,
      "v": 100
    },
    {
      "midi": 46,
      "hit": false,
      "t": 52972,
      "d": 112,
      "v": 95
    },
    {
      "midi": 39,
      "hit": false,
      "t": 52972,
      "d": 224,
      "v": 90
    },
    {
      "midi": 37,
      "hit": false,
      "t": 53084,
      "d": 112,
      "v": 100
    },
    {
      "midi": 44,
      "hit": false,
      "t": 53084,
      "d": 112,
      "v": 95
    },
    {
      "midi": 35,
      "hit": false,
      "t": 53196,
      "d": 0,
      "v": 110
    },
    {
      "midi": 44,
      "hit": false,
      "t": 53196,
      "d": 112,
      "v": 95
    },
    {
      "midi": 41,
      "hit": false,
      "t": 53196,
      "d": 228,
      "v": 90
    },
    {
      "midi": 35,
      "hit": false,
      "t": 53196,
      "d": 452,
      "v": 100
    },
    {
      "midi": 65,
      "hit": false,
      "t": 53196,
      "d": 1804,
      "v": 58
    },
    {
      "midi": 44,
      "hit": false,
      "t": 53308,
      "d": 116,
      "v": 95
    },
    {
      "midi": 46,
      "hit": false,
      "t": 53424,
      "d": 112,
      "v": 95
    },
    {
      "midi": 41,
      "hit": false,
      "t": 53424,
      "d": 224,
      "v": 90
    },
    {
      "midi": 69,
      "hit": false,
      "t": 53424,
      "d": 224,
      "v": 100
    },
    {
      "midi": 44,
      "hit": false,
      "t": 53536,
      "d": 112,
      "v": 95
    },
    {
      "midi": 35,
      "hit": false,
      "t": 53648,
      "d": 0,
      "v": 110
    },
    {
      "midi": 44,
      "hit": false,
      "t": 53648,
      "d": 112,
      "v": 95
    },
    {
      "midi": 41,
      "hit": false,
      "t": 53648,
      "d": 224,
      "v": 90
    },
    {
      "midi": 69,
      "hit": false,
      "t": 53648,
      "d": 224,
      "v": 100
    },
    {
      "midi": 35,
      "hit": false,
      "t": 53648,
      "d": 452,
      "v": 100
    },
    {
      "midi": 44,
      "hit": false,
      "t": 53760,
      "d": 112,
      "v": 95
    },
    {
      "midi": 46,
      "hit": false,
      "t": 53872,
      "d": 116,
      "v": 95
    },
    {
      "midi": 41,
      "hit": false,
      "t": 53872,
      "d": 228,
      "v": 90
    },
    {
      "midi": 70,
      "hit": false,
      "t": 53872,
      "d": 228,
      "v": 100
    },
    {
      "midi": 44,
      "hit": false,
      "t": 53988,
      "d": 112,
      "v": 95
    },
    {
      "midi": 35,
      "hit": false,
      "t": 54100,
      "d": 0,
      "v": 110
    },
    {
      "midi": 44,
      "hit": false,
      "t": 54100,
      "d": 112,
      "v": 95
    },
    {
      "midi": 41,
      "hit": false,
      "t": 54100,
      "d": 224,
      "v": 90
    },
    {
      "midi": 72,
      "hit": false,
      "t": 54100,
      "d": 336,
      "v": 100
    },
    {
      "midi": 35,
      "hit": false,
      "t": 54100,
      "d": 452,
      "v": 100
    },
    {
      "midi": 44,
      "hit": false,
      "t": 54212,
      "d": 112,
      "v": 95
    },
    {
      "midi": 46,
      "hit": false,
      "t": 54324,
      "d": 112,
      "v": 95
    },
    {
      "midi": 41,
      "hit": false,
      "t": 54324,
      "d": 228,
      "v": 90
    },
    {
      "midi": 44,
      "hit": false,
      "t": 54436,
      "d": 116,
      "v": 95
    },
    {
      "midi": 69,
      "hit": false,
      "t": 54436,
      "d": 340,
      "v": 100
    },
    {
      "midi": 35,
      "hit": false,
      "t": 54552,
      "d": 0,
      "v": 110
    },
    {
      "midi": 44,
      "hit": false,
      "t": 54552,
      "d": 112,
      "v": 95
    },
    {
      "midi": 45,
      "hit": false,
      "t": 54552,
      "d": 448,
      "v": 90
    },
    {
      "midi": 35,
      "hit": false,
      "t": 54552,
      "d": 448,
      "v": 100
    },
    {
      "midi": 44,
      "hit": false,
      "t": 54664,
      "d": 112,
      "v": 95
    },
    {
      "midi": 46,
      "hit": false,
      "t": 54776,
      "d": 112,
      "v": 95
    },
    {
      "midi": 67,
      "hit": false,
      "t": 54776,
      "d": 224,
      "v": 100
    },
    {
      "midi": 44,
      "hit": false,
      "t": 54888,
      "d": 112,
      "v": 95
    },
    {
      "midi": 35,
      "hit": false,
      "t": 55000,
      "d": 0,
      "v": 110
    },
    {
      "midi": 44,
      "hit": false,
      "t": 55000,
      "d": 116,
      "v": 95
    },
    {
      "midi": 46,
      "hit": false,
      "t": 55000,
      "d": 228,
      "v": 90
    },
    {
      "midi": 67,
      "hit": false,
      "t": 55000,
      "d": 228,
      "v": 100
    },
    {
      "midi": 35,
      "hit": false,
      "t": 55000,
      "d": 452,
      "v": 100
    },
    {
      "midi": 70,
      "hit": false,
      "t": 55000,
      "d": 1804,
      "v": 58
    },
    {
      "midi": 74,
      "hit": false,
      "t": 55000,
      "d": 1804,
      "v": 58
    },
    {
      "midi": 77,
      "hit": false,
      "t": 55000,
      "d": 1804,
      "v": 58
    },
    {
      "midi": 44,
      "hit": false,
      "t": 55116,
      "d": 112,
      "v": 95
    },
    {
      "midi": 69,
      "hit": false,
      "t": 55228,
      "d": 112,
      "v": 100
    },
    {
      "midi": 46,
      "hit": false,
      "t": 55228,
      "d": 112,
      "v": 95
    },
    {
      "midi": 44,
      "hit": false,
      "t": 55340,
      "d": 112,
      "v": 95
    },
    {
      "midi": 65,
      "hit": false,
      "t": 55340,
      "d": 904,
      "v": 100
    },
    {
      "midi": 35,
      "hit": false,
      "t": 55452,
      "d": 0,
      "v": 110
    },
    {
      "midi": 44,
      "hit": false,
      "t": 55452,
      "d": 112,
      "v": 95
    },
    {
      "midi": 46,
      "hit": false,
      "t": 55452,
      "d": 228,
      "v": 90
    },
    {
      "midi": 35,
      "hit": false,
      "t": 55452,
      "d": 452,
      "v": 100
    },
    {
      "midi": 44,
      "hit": false,
      "t": 55564,
      "d": 116,
      "v": 95
    },
    {
      "midi": 46,
      "hit": false,
      "t": 55680,
      "d": 112,
      "v": 95
    },
    {
      "midi": 44,
      "hit": false,
      "t": 55792,
      "d": 112,
      "v": 95
    },
    {
      "midi": 35,
      "hit": false,
      "t": 55904,
      "d": 0,
      "v": 110
    },
    {
      "midi": 37,
      "hit": false,
      "t": 55904,
      "d": 112,
      "v": 100
    },
    {
      "midi": 44,
      "hit": false,
      "t": 55904,
      "d": 112,
      "v": 95
    },
    {
      "midi": 46,
      "hit": false,
      "t": 55904,
      "d": 224,
      "v": 90
    },
    {
      "midi": 35,
      "hit": false,
      "t": 55904,
      "d": 452,
      "v": 100
    },
    {
      "midi": 44,
      "hit": false,
      "t": 56016,
      "d": 112,
      "v": 95
    },
    {
      "midi": 37,
      "hit": false,
      "t": 56016,
      "d": 228,
      "v": 100
    },
    {
      "midi": 46,
      "hit": false,
      "t": 56128,
      "d": 116,
      "v": 95
    },
    {
      "midi": 44,
      "hit": false,
      "t": 56244,
      "d": 112,
      "v": 95
    },
    {
      "midi": 37,
      "hit": false,
      "t": 56244,
      "d": 224,
      "v": 100
    },
    {
      "midi": 35,
      "hit": false,
      "t": 56356,
      "d": 0,
      "v": 110
    },
    {
      "midi": 44,
      "hit": false,
      "t": 56356,
      "d": 112,
      "v": 95
    },
    {
      "midi": 46,
      "hit": false,
      "t": 56356,
      "d": 224,
      "v": 90
    },
    {
      "midi": 35,
      "hit": false,
      "t": 56356,
      "d": 448,
      "v": 100
    },
    {
      "midi": 37,
      "hit": false,
      "t": 56468,
      "d": 112,
      "v": 100
    },
    {
      "midi": 44,
      "hit": false,
      "t": 56468,
      "d": 112,
      "v": 95
    },
    {
      "midi": 37,
      "hit": false,
      "t": 56580,
      "d": 112,
      "v": 100
    },
    {
      "midi": 46,
      "hit": false,
      "t": 56580,
      "d": 112,
      "v": 95
    },
    {
      "midi": 37,
      "hit": false,
      "t": 56692,
      "d": 112,
      "v": 100
    },
    {
      "midi": 44,
      "hit": false,
      "t": 56692,
      "d": 112,
      "v": 95
    },
    {
      "midi": 35,
      "hit": false,
      "t": 56804,
      "d": 0,
      "v": 110
    },
    {
      "midi": 44,
      "hit": false,
      "t": 56804,
      "d": 116,
      "v": 95
    },
    {
      "midi": 39,
      "hit": false,
      "t": 56804,
      "d": 228,
      "v": 90
    },
    {
      "midi": 35,
      "hit": false,
      "t": 56804,
      "d": 452,
      "v": 100
    },
    {
      "midi": 60,
      "hit": false,
      "t": 56804,
      "d": 904,
      "v": 58
    },
    {
      "midi": 63,
      "hit": false,
      "t": 56804,
      "d": 904,
      "v": 58
    },
    {
      "midi": 44,
      "hit": false,
      "t": 56920,
      "d": 112,
      "v": 95
    },
    {
      "midi": 46,
      "hit": false,
      "t": 57032,
      "d": 112,
      "v": 95
    },
    {
      "midi": 39,
      "hit": false,
      "t": 57032,
      "d": 224,
      "v": 90
    },
    {
      "midi": 65,
      "hit": false,
      "t": 57032,
      "d": 224,
      "v": 100
    },
    {
      "midi": 44,
      "hit": false,
      "t": 57144,
      "d": 112,
      "v": 95
    },
    {
      "midi": 35,
      "hit": false,
      "t": 57256,
      "d": 0,
      "v": 110
    },
    {
      "midi": 44,
      "hit": false,
      "t": 57256,
      "d": 112,
      "v": 95
    },
    {
      "midi": 39,
      "hit": false,
      "t": 57256,
      "d": 228,
      "v": 90
    },
    {
      "midi": 67,
      "hit": false,
      "t": 57256,
      "d": 228,
      "v": 100
    },
    {
      "midi": 35,
      "hit": false,
      "t": 57256,
      "d": 452,
      "v": 100
    },
    {
      "midi": 44,
      "hit": false,
      "t": 57368,
      "d": 116,
      "v": 95
    },
    {
      "midi": 46,
      "hit": false,
      "t": 57484,
      "d": 112,
      "v": 95
    },
    {
      "midi": 39,
      "hit": false,
      "t": 57484,
      "d": 224,
      "v": 90
    },
    {
      "midi": 70,
      "hit": false,
      "t": 57484,
      "d": 224,
      "v": 100
    },
    {
      "midi": 44,
      "hit": false,
      "t": 57596,
      "d": 112,
      "v": 95
    },
    {
      "midi": 35,
      "hit": false,
      "t": 57708,
      "d": 0,
      "v": 110
    },
    {
      "midi": 44,
      "hit": false,
      "t": 57708,
      "d": 112,
      "v": 95
    },
    {
      "midi": 41,
      "hit": false,
      "t": 57708,
      "d": 224,
      "v": 90
    },
    {
      "midi": 70,
      "hit": false,
      "t": 57708,
      "d": 340,
      "v": 100
    },
    {
      "midi": 35,
      "hit": false,
      "t": 57708,
      "d": 452,
      "v": 100
    },
    {
      "midi": 65,
      "hit": false,
      "t": 57708,
      "d": 904,
      "v": 58
    },
    {
      "midi": 72,
      "hit": false,
      "t": 57708,
      "d": 904,
      "v": 58
    },
    {
      "midi": 44,
      "hit": false,
      "t": 57820,
      "d": 112,
      "v": 95
    },
    {
      "midi": 46,
      "hit": false,
      "t": 57932,
      "d": 116,
      "v": 95
    },
    {
      "midi": 41,
      "hit": false,
      "t": 57932,
      "d": 228,
      "v": 90
    },
    {
      "midi": 44,
      "hit": false,
      "t": 58048,
      "d": 112,
      "v": 95
    },
    {
      "midi": 69,
      "hit": false,
      "t": 58048,
      "d": 564,
      "v": 100
    },
    {
      "midi": 35,
      "hit": false,
      "t": 58160,
      "d": 0,
      "v": 110
    },
    {
      "midi": 44,
      "hit": false,
      "t": 58160,
      "d": 112,
      "v": 95
    },
    {
      "midi": 41,
      "hit": false,
      "t": 58160,
      "d": 224,
      "v": 90
    },
    {
      "midi": 35,
      "hit": false,
      "t": 58160,
      "d": 452,
      "v": 100
    },
    {
      "midi": 44,
      "hit": false,
      "t": 58272,
      "d": 112,
      "v": 95
    },
    {
      "midi": 46,
      "hit": false,
      "t": 58384,
      "d": 112,
      "v": 95
    },
    {
      "midi": 41,
      "hit": false,
      "t": 58384,
      "d": 228,
      "v": 90
    },
    {
      "midi": 44,
      "hit": false,
      "t": 58496,
      "d": 116,
      "v": 95
    },
    {
      "midi": 35,
      "hit": false,
      "t": 58612,
      "d": 0,
      "v": 110
    },
    {
      "midi": 44,
      "hit": false,
      "t": 58612,
      "d": 112,
      "v": 95
    },
    {
      "midi": 42,
      "hit": false,
      "t": 58612,
      "d": 224,
      "v": 90
    },
    {
      "midi": 69,
      "hit": false,
      "t": 58612,
      "d": 224,
      "v": 58
    },
    {
      "midi": 35,
      "hit": false,
      "t": 58612,
      "d": 448,
      "v": 100
    },
    {
      "midi": 62,
      "hit": false,
      "t": 58612,
      "d": 900,
      "v": 58
    },
    {
      "midi": 44,
      "hit": false,
      "t": 58724,
      "d": 112,
      "v": 95
    },
    {
      "midi": 46,
      "hit": false,
      "t": 58836,
      "d": 112,
      "v": 95
    },
    {
      "midi": 42,
      "hit": false,
      "t": 58836,
      "d": 224,
      "v": 90
    },
    {
      "midi": 66,
      "hit": false,
      "t": 58836,
      "d": 224,
      "v": 100
    },
    {
      "midi": 44,
      "hit": false,
      "t": 58948,
      "d": 112,
      "v": 95
    },
    {
      "midi": 35,
      "hit": false,
      "t": 59060,
      "d": 0,
      "v": 110
    },
    {
      "midi": 44,
      "hit": false,
      "t": 59060,
      "d": 116,
      "v": 95
    },
    {
      "midi": 42,
      "hit": false,
      "t": 59060,
      "d": 228,
      "v": 90
    },
    {
      "midi": 69,
      "hit": false,
      "t": 59060,
      "d": 228,
      "v": 100
    },
    {
      "midi": 35,
      "hit": false,
      "t": 59060,
      "d": 452,
      "v": 100
    },
    {
      "midi": 44,
      "hit": false,
      "t": 59176,
      "d": 112,
      "v": 95
    },
    {
      "midi": 46,
      "hit": false,
      "t": 59288,
      "d": 112,
      "v": 95
    },
    {
      "midi": 42,
      "hit": false,
      "t": 59288,
      "d": 224,
      "v": 90
    },
    {
      "midi": 72,
      "hit": false,
      "t": 59288,
      "d": 224,
      "v": 100
    },
    {
      "midi": 44,
      "hit": false,
      "t": 59400,
      "d": 112,
      "v": 95
    },
    {
      "midi": 35,
      "hit": false,
      "t": 59512,
      "d": 0,
      "v": 110
    },
    {
      "midi": 37,
      "hit": false,
      "t": 59512,
      "d": 112,
      "v": 100
    },
    {
      "midi": 44,
      "hit": false,
      "t": 59512,
      "d": 112,
      "v": 95
    },
    {
      "midi": 43,
      "hit": false,
      "t": 59512,
      "d": 228,
      "v": 90
    },
    {
      "midi": 72,
      "hit": false,
      "t": 59512,
      "d": 340,
      "v": 100
    },
    {
      "midi": 35,
      "hit": false,
      "t": 59512,
      "d": 452,
      "v": 100
    },
    {
      "midi": 67,
      "hit": false,
      "t": 59512,
      "d": 904,
      "v": 58
    },
    {
      "midi": 74,
      "hit": false,
      "t": 59512,
      "d": 904,
      "v": 58
    },
    {
      "midi": 44,
      "hit": false,
      "t": 59624,
      "d": 116,
      "v": 95
    },
    {
      "midi": 37,
      "hit": false,
      "t": 59624,
      "d": 228,
      "v": 100
    },
    {
      "midi": 46,
      "hit": false,
      "t": 59740,
      "d": 112,
      "v": 95
    },
    {
      "midi": 43,
      "hit": false,
      "t": 59740,
      "d": 224,
      "v": 90
    },
    {
      "midi": 44,
      "hit": false,
      "t": 59852,
      "d": 112,
      "v": 95
    },
    {
      "midi": 37,
      "hit": false,
      "t": 59852,
      "d": 224,
      "v": 100
    },
    {
      "midi": 70,
      "hit": false,
      "t": 59852,
      "d": 336,
      "v": 100
    },
    {
      "midi": 35,
      "hit": false,
      "t": 59964,
      "d": 0,
      "v": 110
    },
    {
      "midi": 44,
      "hit": false,
      "t": 59964,
      "d": 112,
      "v": 95
    },
    {
      "midi": 43,
      "hit": false,
      "t": 59964,
      "d": 224,
      "v": 90
    },
    {
      "midi": 35,
      "hit": false,
      "t": 59964,
      "d": 452,
      "v": 100
    },
    {
      "midi": 37,
      "hit": false,
      "t": 60076,
      "d": 112,
      "v": 100
    },
    {
      "midi": 44,
      "hit": false,
      "t": 60076,
      "d": 112,
      "v": 95
    },
    {
      "midi": 37,
      "hit": false,
      "t": 60188,
      "d": 116,
      "v": 100
    },
    {
      "midi": 46,
      "hit": false,
      "t": 60188,
      "d": 116,
      "v": 95
    },
    {
      "midi": 43,
      "hit": false,
      "t": 60188,
      "d": 228,
      "v": 90
    },
    {
      "midi": 72,
      "hit": false,
      "t": 60188,
      "d": 228,
      "v": 100
    },
    {
      "midi": 37,
      "hit": false,
      "t": 60304,
      "d": 112,
      "v": 100
    },
    {
      "midi": 44,
      "hit": false,
      "t": 60304,
      "d": 112,
      "v": 95
    },
    {
      "midi": 35,
      "hit": false,
      "t": 60416,
      "d": 0,
      "v": 110
    },
    {
      "midi": 44,
      "hit": false,
      "t": 60416,
      "d": 112,
      "v": 95
    },
    {
      "midi": 39,
      "hit": false,
      "t": 60416,
      "d": 224,
      "v": 90
    },
    {
      "midi": 35,
      "hit": false,
      "t": 60416,
      "d": 452,
      "v": 100
    },
    {
      "midi": 74,
      "hit": false,
      "t": 60416,
      "d": 1128,
      "v": 100
    },
    {
      "midi": 62,
      "hit": false,
      "t": 60416,
      "d": 1804,
      "v": 58
    },
    {
      "midi": 65,
      "hit": false,
      "t": 60416,
      "d": 1804,
      "v": 58
    },
    {
      "midi": 67,
      "hit": false,
      "t": 60416,
      "d": 1804,
      "v": 58
    },
    {
      "midi": 70,
      "hit": false,
      "t": 60416,
      "d": 1804,
      "v": 58
    },
    {
      "midi": 44,
      "hit": false,
      "t": 60528,
      "d": 112,
      "v": 95
    },
    {
      "midi": 46,
      "hit": false,
      "t": 60640,
      "d": 112,
      "v": 95
    },
    {
      "midi": 39,
      "hit": false,
      "t": 60640,
      "d": 228,
      "v": 90
    },
    {
      "midi": 44,
      "hit": false,
      "t": 60752,
      "d": 116,
      "v": 95
    },
    {
      "midi": 35,
      "hit": false,
      "t": 60868,
      "d": 0,
      "v": 110
    },
    {
      "midi": 44,
      "hit": false,
      "t": 60868,
      "d": 112,
      "v": 95
    },
    {
      "midi": 39,
      "hit": false,
      "t": 60868,
      "d": 224,
      "v": 90
    },
    {
      "midi": 35,
      "hit": false,
      "t": 60868,
      "d": 448,
      "v": 100
    },
    {
      "midi": 44,
      "hit": false,
      "t": 60980,
      "d": 112,
      "v": 95
    },
    {
      "midi": 46,
      "hit": false,
      "t": 61092,
      "d": 112,
      "v": 95
    },
    {
      "midi": 39,
      "hit": false,
      "t": 61092,
      "d": 224,
      "v": 90
    },
    {
      "midi": 44,
      "hit": false,
      "t": 61204,
      "d": 112,
      "v": 95
    },
    {
      "midi": 35,
      "hit": false,
      "t": 61316,
      "d": 0,
      "v": 110
    },
    {
      "midi": 44,
      "hit": false,
      "t": 61316,
      "d": 116,
      "v": 95
    },
    {
      "midi": 39,
      "hit": false,
      "t": 61316,
      "d": 228,
      "v": 90
    },
    {
      "midi": 35,
      "hit": false,
      "t": 61316,
      "d": 452,
      "v": 100
    },
    {
      "midi": 44,
      "hit": false,
      "t": 61432,
      "d": 112,
      "v": 95
    },
    {
      "midi": 46,
      "hit": false,
      "t": 61544,
      "d": 112,
      "v": 95
    },
    {
      "midi": 39,
      "hit": false,
      "t": 61544,
      "d": 224,
      "v": 90
    },
    {
      "midi": 74,
      "hit": false,
      "t": 61544,
      "d": 224,
      "v": 100
    },
    {
      "midi": 44,
      "hit": false,
      "t": 61656,
      "d": 112,
      "v": 95
    },
    {
      "midi": 35,
      "hit": false,
      "t": 61768,
      "d": 0,
      "v": 110
    },
    {
      "midi": 44,
      "hit": false,
      "t": 61768,
      "d": 112,
      "v": 95
    },
    {
      "midi": 39,
      "hit": false,
      "t": 61768,
      "d": 224,
      "v": 90
    },
    {
      "midi": 77,
      "hit": false,
      "t": 61768,
      "d": 224,
      "v": 100
    },
    {
      "midi": 35,
      "hit": false,
      "t": 61768,
      "d": 452,
      "v": 100
    },
    {
      "midi": 44,
      "hit": false,
      "t": 61880,
      "d": 112,
      "v": 95
    },
    {
      "midi": 75,
      "hit": false,
      "t": 61992,
      "d": 116,
      "v": 100
    },
    {
      "midi": 46,
      "hit": false,
      "t": 61992,
      "d": 116,
      "v": 95
    },
    {
      "midi": 39,
      "hit": false,
      "t": 61992,
      "d": 228,
      "v": 90
    },
    {
      "midi": 44,
      "hit": false,
      "t": 62108,
      "d": 112,
      "v": 95
    },
    {
      "midi": 74,
      "hit": false,
      "t": 62108,
      "d": 1804,
      "v": 100
    },
    {
      "midi": 35,
      "hit": false,
      "t": 62220,
      "d": 0,
      "v": 110
    },
    {
      "midi": 44,
      "hit": false,
      "t": 62220,
      "d": 112,
      "v": 95
    },
    {
      "midi": 38,
      "hit": false,
      "t": 62220,
      "d": 224,
      "v": 90
    },
    {
      "midi": 35,
      "hit": false,
      "t": 62220,
      "d": 452,
      "v": 100
    },
    {
      "midi": 62,
      "hit": false,
      "t": 62220,
      "d": 900,
      "v": 58
    },
    {
      "midi": 67,
      "hit": false,
      "t": 62220,
      "d": 900,
      "v": 58
    },
    {
      "midi": 69,
      "hit": false,
      "t": 62220,
      "d": 900,
      "v": 58
    },
    {
      "midi": 44,
      "hit": false,
      "t": 62332,
      "d": 112,
      "v": 95
    },
    {
      "midi": 46,
      "hit": false,
      "t": 62444,
      "d": 112,
      "v": 95
    },
    {
      "midi": 38,
      "hit": false,
      "t": 62444,
      "d": 228,
      "v": 90
    },
    {
      "midi": 44,
      "hit": false,
      "t": 62556,
      "d": 116,
      "v": 95
    },
    {
      "midi": 35,
      "hit": false,
      "t": 62672,
      "d": 0,
      "v": 110
    },
    {
      "midi": 44,
      "hit": false,
      "t": 62672,
      "d": 112,
      "v": 95
    },
    {
      "midi": 38,
      "hit": false,
      "t": 62672,
      "d": 224,
      "v": 90
    },
    {
      "midi": 35,
      "hit": false,
      "t": 62672,
      "d": 448,
      "v": 100
    },
    {
      "midi": 44,
      "hit": false,
      "t": 62784,
      "d": 112,
      "v": 95
    },
    {
      "midi": 46,
      "hit": false,
      "t": 62896,
      "d": 112,
      "v": 95
    },
    {
      "midi": 38,
      "hit": false,
      "t": 62896,
      "d": 224,
      "v": 90
    },
    {
      "midi": 44,
      "hit": false,
      "t": 63008,
      "d": 112,
      "v": 95
    },
    {
      "midi": 38,
      "hit": false,
      "t": 63120,
      "d": 228,
      "v": 90
    },
    {
      "midi": 40,
      "hit": false,
      "t": 63120,
      "d": 228,
      "v": 100
    },
    {
      "midi": 62,
      "hit": false,
      "t": 63120,
      "d": 904,
      "v": 58
    },
    {
      "midi": 66,
      "hit": false,
      "t": 63120,
      "d": 904,
      "v": 58
    },
    {
      "midi": 69,
      "hit": false,
      "t": 63120,
      "d": 904,
      "v": 58
    },
    {
      "midi": 38,
      "hit": false,
      "t": 63348,
      "d": 224,
      "v": 90
    },
    {
      "midi": 40,
      "hit": false,
      "t": 63348,
      "d": 224,
      "v": 100
    },
    {
      "midi": 38,
      "hit": false,
      "t": 63572,
      "d": 228,
      "v": 90
    },
    {
      "midi": 40,
      "hit": false,
      "t": 63572,
      "d": 228,
      "v": 100
    },
    {
      "midi": 40,
      "hit": false,
      "t": 63800,
      "d": 112,
      "v": 100
    },
    {
      "midi": 38,
      "hit": false,
      "t": 63800,
      "d": 224,
      "v": 90
    },
    {
      "midi": 40,
      "hit": false,
      "t": 63912,
      "d": 112,
      "v": 100
    },
    {
      "midi": 39,
      "hit": false,
      "t": 64024,
      "d": 224,
      "v": 90
    },
    {
      "midi": 35,
      "hit": false,
      "t": 64024,
      "d": 452,
      "v": 100
    },
    {
      "midi": 63,
      "hit": false,
      "t": 64024,
      "d": 1804,
      "v": 58
    },
    {
      "midi": 39,
      "hit": false,
      "t": 64248,
      "d": 228,
      "v": 90
    },
    {
      "midi": 39,
      "hit": false,
      "t": 64476,
      "d": 224,
      "v": 90
    },
    {
      "midi": 70,
      "hit": false,
      "t": 64476,
      "d": 224,
      "v": 100
    },
    {
      "midi": 40,
      "hit": false,
      "t": 64476,
      "d": 452,
      "v": 100
    },
    {
      "midi": 70,
      "hit": false,
      "t": 64700,
      "d": 112,
      "v": 100
    },
    {
      "midi": 39,
      "hit": false,
      "t": 64700,
      "d": 228,
      "v": 90
    },
    {
      "midi": 70,
      "hit": false,
      "t": 64812,
      "d": 340,
      "v": 100
    },
    {
      "midi": 39,
      "hit": false,
      "t": 64928,
      "d": 224,
      "v": 90
    },
    {
      "midi": 35,
      "hit": false,
      "t": 64928,
      "d": 448,
      "v": 100
    },
    {
      "midi": 39,
      "hit": false,
      "t": 65152,
      "d": 224,
      "v": 90
    },
    {
      "midi": 67,
      "hit": false,
      "t": 65152,
      "d": 224,
      "v": 100
    },
    {
      "midi": 39,
      "hit": false,
      "t": 65376,
      "d": 228,
      "v": 90
    },
    {
      "midi": 70,
      "hit": false,
      "t": 65376,
      "d": 228,
      "v": 100
    },
    {
      "midi": 40,
      "hit": false,
      "t": 65376,
      "d": 452,
      "v": 100
    },
    {
      "midi": 39,
      "hit": false,
      "t": 65604,
      "d": 224,
      "v": 90
    },
    {
      "midi": 74,
      "hit": false,
      "t": 65604,
      "d": 224,
      "v": 100
    },
    {
      "midi": 41,
      "hit": false,
      "t": 65828,
      "d": 228,
      "v": 90
    },
    {
      "midi": 35,
      "hit": false,
      "t": 65828,
      "d": 452,
      "v": 100
    },
    {
      "midi": 74,
      "hit": false,
      "t": 65828,
      "d": 676,
      "v": 100
    },
    {
      "midi": 65,
      "hit": false,
      "t": 65828,
      "d": 1804,
      "v": 58
    },
    {
      "midi": 69,
      "hit": false,
      "t": 65828,
      "d": 1804,
      "v": 58
    },
    {
      "midi": 41,
      "hit": false,
      "t": 66056,
      "d": 224,
      "v": 90
    },
    {
      "midi": 41,
      "hit": false,
      "t": 66280,
      "d": 224,
      "v": 90
    },
    {
      "midi": 40,
      "hit": false,
      "t": 66280,
      "d": 452,
      "v": 100
    },
    {
      "midi": 41,
      "hit": false,
      "t": 66504,
      "d": 228,
      "v": 90
    },
    {
      "midi": 72,
      "hit": false,
      "t": 66504,
      "d": 228,
      "v": 100
    },
    {
      "midi": 35,
      "hit": false,
      "t": 66732,
      "d": 112,
      "v": 100
    },
    {
      "midi": 41,
      "hit": false,
      "t": 66732,
      "d": 224,
      "v": 90
    },
    {
      "midi": 77,
      "hit": false,
      "t": 66732,
      "d": 448,
      "v": 70
    },
    {
      "midi": 89,
      "hit": false,
      "t": 66732,
      "d": 448,
      "v": 90
    },
    {
      "midi": 72,
      "hit": false,
      "t": 66732,
      "d": 900,
      "v": 100
    },
    {
      "midi": 40,
      "hit": false,
      "t": 66844,
      "d": 336,
      "v": 100
    },
    {
      "midi": 41,
      "hit": false,
      "t": 66956,
      "d": 224,
      "v": 90
    },
    {
      "midi": 41,
      "hit": false,
      "t": 67180,
      "d": 228,
      "v": 90
    },
    {
      "midi": 75,
      "hit": false,
      "t": 67180,
      "d": 452,
      "v": 70
    },
    {
      "midi": 87,
      "hit": false,
      "t": 67180,
      "d": 452,
      "v": 90
    },
    {
      "midi": 40,
      "hit": false,
      "t": 67180,
      "d": 452,
      "v": 100
    },
    {
      "midi": 41,
      "hit": false,
      "t": 67408,
      "d": 224,
      "v": 90
    },
    {
      "midi": 38,
      "hit": false,
      "t": 67632,
      "d": 228,
      "v": 90
    },
    {
      "midi": 74,
      "hit": false,
      "t": 67632,
      "d": 452,
      "v": 70
    },
    {
      "midi": 86,
      "hit": false,
      "t": 67632,
      "d": 452,
      "v": 90
    },
    {
      "midi": 35,
      "hit": false,
      "t": 67632,
      "d": 452,
      "v": 100
    },
    {
      "midi": 62,
      "hit": false,
      "t": 67632,
      "d": 1804,
      "v": 58
    },
    {
      "midi": 38,
      "hit": false,
      "t": 67860,
      "d": 224,
      "v": 90
    },
    {
      "midi": 38,
      "hit": false,
      "t": 68084,
      "d": 224,
      "v": 90
    },
    {
      "midi": 69,
      "hit": false,
      "t": 68084,
      "d": 224,
      "v": 100
    },
    {
      "midi": 40,
      "hit": false,
      "t": 68084,
      "d": 452,
      "v": 100
    },
    {
      "midi": 69,
      "hit": false,
      "t": 68308,
      "d": 116,
      "v": 100
    },
    {
      "midi": 38,
      "hit": false,
      "t": 68308,
      "d": 228,
      "v": 90
    },
    {
      "midi": 69,
      "hit": false,
      "t": 68424,
      "d": 336,
      "v": 100
    },
    {
      "midi": 38,
      "hit": false,
      "t": 68536,
      "d": 224,
      "v": 90
    },
    {
      "midi": 35,
      "hit": false,
      "t": 68536,
      "d": 452,
      "v": 100
    },
    {
      "midi": 38,
      "hit": false,
      "t": 68760,
      "d": 228,
      "v": 90
    },
    {
      "midi": 65,
      "hit": false,
      "t": 68760,
      "d": 228,
      "v": 100
    },
    {
      "midi": 38,
      "hit": false,
      "t": 68988,
      "d": 224,
      "v": 90
    },
    {
      "midi": 69,
      "hit": false,
      "t": 68988,
      "d": 224,
      "v": 100
    },
    {
      "midi": 40,
      "hit": false,
      "t": 68988,
      "d": 448,
      "v": 100
    },
    {
      "midi": 38,
      "hit": false,
      "t": 69212,
      "d": 224,
      "v": 90
    },
    {
      "midi": 72,
      "hit": false,
      "t": 69212,
      "d": 224,
      "v": 100
    },
    {
      "midi": 72,
      "hit": false,
      "t": 69436,
      "d": 0,
      "v": 100
    },
    {
      "midi": 43,
      "hit": false,
      "t": 69436,
      "d": 228,
      "v": 90
    },
    {
      "midi": 35,
      "hit": false,
      "t": 69436,
      "d": 452,
      "v": 100
    },
    {
      "midi": 67,
      "hit": false,
      "t": 69436,
      "d": 1808,
      "v": 58
    },
    {
      "midi": 43,
      "hit": false,
      "t": 69664,
      "d": 224,
      "v": 90
    },
    {
      "midi": 43,
      "hit": false,
      "t": 69888,
      "d": 228,
      "v": 90
    },
    {
      "midi": 70,
      "hit": false,
      "t": 69888,
      "d": 452,
      "v": 100
    },
    {
      "midi": 40,
      "hit": false,
      "t": 69888,
      "d": 452,
      "v": 100
    },
    {
      "midi": 43,
      "hit": false,
      "t": 70116,
      "d": 224,
      "v": 90
    },
    {
      "midi": 35,
      "hit": false,
      "t": 70340,
      "d": 112,
      "v": 100
    },
    {
      "midi": 43,
      "hit": false,
      "t": 70340,
      "d": 224,
      "v": 90
    },
    {
      "midi": 72,
      "hit": false,
      "t": 70340,
      "d": 452,
      "v": 100
    },
    {
      "midi": 40,
      "hit": false,
      "t": 70452,
      "d": 340,
      "v": 100
    },
    {
      "midi": 43,
      "hit": false,
      "t": 70564,
      "d": 228,
      "v": 90
    },
    {
      "midi": 43,
      "hit": false,
      "t": 70792,
      "d": 224,
      "v": 90
    },
    {
      "midi": 74,
      "hit": false,
      "t": 70792,
      "d": 452,
      "v": 100
    },
    {
      "midi": 40,
      "hit": false,
      "t": 70792,
      "d": 452,
      "v": 100
    },
    {
      "midi": 43,
      "hit": false,
      "t": 71016,
      "d": 228,
      "v": 90
    },
    {
      "midi": 74,
      "hit": false,
      "t": 71244,
      "d": 0,
      "v": 100
    },
    {
      "midi": 36,
      "hit": false,
      "t": 71244,
      "d": 224,
      "v": 90
    },
    {
      "midi": 57,
      "hit": false,
      "t": 71244,
      "d": 448,
      "v": 100
    },
    {
      "midi": 35,
      "hit": false,
      "t": 71244,
      "d": 448,
      "v": 100
    },
    {
      "midi": 60,
      "hit": false,
      "t": 71244,
      "d": 1804,
      "v": 58
    },
    {
      "midi": 63,
      "hit": false,
      "t": 71244,
      "d": 1804,
      "v": 58
    },
    {
      "midi": 67,
      "hit": false,
      "t": 71244,
      "d": 1804,
      "v": 58
    },
    {
      "midi": 36,
      "hit": false,
      "t": 71468,
      "d": 224,
      "v": 90
    },
    {
      "midi": 72,
      "hit": false,
      "t": 71580,
      "d": 340,
      "v": 100
    },
    {
      "midi": 36,
      "hit": false,
      "t": 71692,
      "d": 228,
      "v": 90
    },
    {
      "midi": 40,
      "hit": false,
      "t": 71692,
      "d": 452,
      "v": 100
    },
    {
      "midi": 36,
      "hit": false,
      "t": 71920,
      "d": 224,
      "v": 90
    },
    {
      "midi": 77,
      "hit": false,
      "t": 71920,
      "d": 224,
      "v": 100
    },
    {
      "midi": 36,
      "hit": false,
      "t": 72144,
      "d": 224,
      "v": 90
    },
    {
      "midi": 74,
      "hit": false,
      "t": 72144,
      "d": 340,
      "v": 100
    },
    {
      "midi": 86,
      "hit": false,
      "t": 72144,
      "d": 340,
      "v": 90
    },
    {
      "midi": 35,
      "hit": false,
      "t": 72144,
      "d": 452,
      "v": 100
    },
    {
      "midi": 36,
      "hit": false,
      "t": 72368,
      "d": 228,
      "v": 90
    },
    {
      "midi": 72,
      "hit": false,
      "t": 72484,
      "d": 336,
      "v": 80
    },
    {
      "midi": 84,
      "hit": false,
      "t": 72484,
      "d": 336,
      "v": 90
    },
    {
      "midi": 36,
      "hit": false,
      "t": 72596,
      "d": 224,
      "v": 90
    },
    {
      "midi": 40,
      "hit": false,
      "t": 72596,
      "d": 452,
      "v": 100
    },
    {
      "midi": 70,
      "hit": false,
      "t": 72820,
      "d": 112,
      "v": 100
    },
    {
      "midi": 36,
      "hit": false,
      "t": 72820,
      "d": 228,
      "v": 90
    },
    {
      "midi": 77,
      "hit": false,
      "t": 72820,
      "d": 228,
      "v": 80
    },
    {
      "midi": 89,
      "hit": false,
      "t": 72820,
      "d": 228,
      "v": 90
    },
    {
      "midi": 72,
      "hit": false,
      "t": 72932,
      "d": 116,
      "v": 100
    },
    {
      "midi": 33,
      "hit": false,
      "t": 73048,
      "d": 224,
      "v": 90
    },
    {
      "midi": 74,
      "hit": false,
      "t": 73048,
      "d": 336,
      "v": 100
    },
    {
      "midi": 35,
      "hit": false,
      "t": 73048,
      "d": 448,
      "v": 100
    },
    {
      "midi": 86,
      "hit": false,
      "t": 73048,
      "d": 676,
      "v": 90
    },
    {
      "midi": 60,
      "hit": false,
      "t": 73048,
      "d": 1804,
      "v": 58
    },
    {
      "midi": 64,
      "hit": false,
      "t": 73048,
      "d": 1804,
      "v": 58
    },
    {
      "midi": 67,
      "hit": false,
      "t": 73048,
      "d": 1804,
      "v": 58
    },
    {
      "midi": 69,
      "hit": false,
      "t": 73048,
      "d": 1804,
      "v": 58
    },
    {
      "midi": 33,
      "hit": false,
      "t": 73272,
      "d": 224,
      "v": 90
    },
    {
      "midi": 72,
      "hit": false,
      "t": 73384,
      "d": 340,
      "v": 100
    },
    {
      "midi": 33,
      "hit": false,
      "t": 73496,
      "d": 228,
      "v": 90
    },
    {
      "midi": 40,
      "hit": false,
      "t": 73496,
      "d": 452,
      "v": 100
    },
    {
      "midi": 33,
      "hit": false,
      "t": 73724,
      "d": 224,
      "v": 90
    },
    {
      "midi": 77,
      "hit": false,
      "t": 73724,
      "d": 224,
      "v": 100
    },
    {
      "midi": 33,
      "hit": false,
      "t": 73948,
      "d": 228,
      "v": 90
    },
    {
      "midi": 74,
      "hit": false,
      "t": 73948,
      "d": 340,
      "v": 100
    },
    {
      "midi": 86,
      "hit": false,
      "t": 73948,
      "d": 340,
      "v": 90
    },
    {
      "midi": 35,
      "hit": false,
      "t": 73948,
      "d": 452,
      "v": 100
    },
    {
      "midi": 33,
      "hit": false,
      "t": 74176,
      "d": 224,
      "v": 90
    },
    {
      "midi": 72,
      "hit": false,
      "t": 74288,
      "d": 336,
      "v": 80
    },
    {
      "midi": 84,
      "hit": false,
      "t": 74288,
      "d": 336,
      "v": 90
    },
    {
      "midi": 70,
      "hit": false,
      "t": 74288,
      "d": 336,
      "v": 100
    },
    {
      "midi": 33,
      "hit": false,
      "t": 74400,
      "d": 224,
      "v": 90
    },
    {
      "midi": 40,
      "hit": false,
      "t": 74400,
      "d": 452,
      "v": 100
    },
    {
      "midi": 33,
      "hit": false,
      "t": 74624,
      "d": 228,
      "v": 90
    },
    {
      "midi": 77,
      "hit": false,
      "t": 74624,
      "d": 228,
      "v": 80
    },
    {
      "midi": 89,
      "hit": false,
      "t": 74624,
      "d": 228,
      "v": 90
    },
    {
      "midi": 72,
      "hit": false,
      "t": 74624,
      "d": 228,
      "v": 100
    },
    {
      "midi": 38,
      "hit": false,
      "t": 74852,
      "d": 224,
      "v": 90
    },
    {
      "midi": 49,
      "hit": false,
      "t": 74852,
      "d": 452,
      "v": 100
    },
    {
      "midi": 35,
      "hit": false,
      "t": 74852,
      "d": 452,
      "v": 100
    },
    {
      "midi": 74,
      "hit": false,
      "t": 74852,
      "d": 676,
      "v": 100
    },
    {
      "midi": 86,
      "hit": false,
      "t": 74852,
      "d": 676,
      "v": 90
    },
    {
      "midi": 67,
      "hit": false,
      "t": 74852,
      "d": 1804,
      "v": 58
    },
    {
      "midi": 38,
      "hit": false,
      "t": 75076,
      "d": 228,
      "v": 90
    },
    {
      "midi": 38,
      "hit": false,
      "t": 75304,
      "d": 224,
      "v": 90
    },
    {
      "midi": 40,
      "hit": false,
      "t": 75304,
      "d": 448,
      "v": 100
    },
    {
      "midi": 38,
      "hit": false,
      "t": 75528,
      "d": 224,
      "v": 90
    },
    {
      "midi": 38,
      "hit": false,
      "t": 75752,
      "d": 228,
      "v": 90
    },
    {
      "midi": 35,
      "hit": false,
      "t": 75752,
      "d": 452,
      "v": 100
    },
    {
      "midi": 38,
      "hit": false,
      "t": 75980,
      "d": 224,
      "v": 90
    },
    {
      "midi": 38,
      "hit": false,
      "t": 76204,
      "d": 228,
      "v": 90
    },
    {
      "midi": 40,
      "hit": false,
      "t": 76204,
      "d": 452,
      "v": 100
    },
    {
      "midi": 38,
      "hit": false,
      "t": 76432,
      "d": 224,
      "v": 90
    },
    {
      "midi": 62,
      "hit": false,
      "t": 76656,
      "d": 0,
      "v": 58
    },
    {
      "midi": 69,
      "hit": false,
      "t": 76656,
      "d": 0,
      "v": 58
    },
    {
      "midi": 38,
      "hit": false,
      "t": 76656,
      "d": 224,
      "v": 90
    },
    {
      "midi": 40,
      "hit": false,
      "t": 76656,
      "d": 224,
      "v": 100
    },
    {
      "midi": 57,
      "hit": false,
      "t": 76656,
      "d": 452,
      "v": 100
    },
    {
      "midi": 66,
      "hit": false,
      "t": 76656,
      "d": 1804,
      "v": 58
    },
    {
      "midi": 38,
      "hit": false,
      "t": 76880,
      "d": 228,
      "v": 90
    },
    {
      "midi": 35,
      "hit": false,
      "t": 76880,
      "d": 228,
      "v": 100
    },
    {
      "midi": 38,
      "hit": false,
      "t": 77108,
      "d": 224,
      "v": 90
    },
    {
      "midi": 40,
      "hit": false,
      "t": 77108,
      "d": 224,
      "v": 100
    },
    {
      "midi": 57,
      "hit": false,
      "t": 77108,
      "d": 448,
      "v": 100
    },
    {
      "midi": 38,
      "hit": false,
      "t": 77332,
      "d": 224,
      "v": 90
    },
    {
      "midi": 35,
      "hit": false,
      "t": 77332,
      "d": 224,
      "v": 100
    },
    {
      "midi": 35,
      "hit": false,
      "t": 77556,
      "d": 0,
      "v": 110
    },
    {
      "midi": 38,
      "hit": false,
      "t": 77556,
      "d": 228,
      "v": 90
    },
    {
      "midi": 35,
      "hit": false,
      "t": 77556,
      "d": 228,
      "v": 100
    },
    {
      "midi": 57,
      "hit": false,
      "t": 77556,
      "d": 452,
      "v": 100
    },
    {
      "midi": 35,
      "hit": false,
      "t": 77784,
      "d": 0,
      "v": 110
    },
    {
      "midi": 38,
      "hit": false,
      "t": 77784,
      "d": 224,
      "v": 90
    },
    {
      "midi": 35,
      "hit": false,
      "t": 77784,
      "d": 224,
      "v": 100
    },
    {
      "midi": 35,
      "hit": false,
      "t": 78008,
      "d": 0,
      "v": 110
    },
    {
      "midi": 38,
      "hit": false,
      "t": 78008,
      "d": 228,
      "v": 90
    },
    {
      "midi": 35,
      "hit": false,
      "t": 78008,
      "d": 228,
      "v": 100
    },
    {
      "midi": 57,
      "hit": false,
      "t": 78008,
      "d": 452,
      "v": 100
    },
    {
      "midi": 35,
      "hit": false,
      "t": 78236,
      "d": 0,
      "v": 110
    },
    {
      "midi": 38,
      "hit": false,
      "t": 78236,
      "d": 224,
      "v": 90
    },
    {
      "midi": 35,
      "hit": false,
      "t": 78236,
      "d": 224,
      "v": 100
    },
    {
      "midi": 74,
      "hit": false,
      "t": 78460,
      "d": 0,
      "v": 58
    },
    {
      "midi": 35,
      "hit": false,
      "t": 78460,
      "d": 0,
      "v": 110
    },
    {
      "midi": 43,
      "hit": false,
      "t": 78460,
      "d": 224,
      "v": 90
    },
    {
      "midi": 77,
      "hit": false,
      "t": 78460,
      "d": 340,
      "v": 100
    },
    {
      "midi": 35,
      "hit": false,
      "t": 78460,
      "d": 452,
      "v": 100
    },
    {
      "midi": 67,
      "hit": false,
      "t": 78460,
      "d": 904,
      "v": 58
    },
    {
      "midi": 70,
      "hit": false,
      "t": 78460,
      "d": 904,
      "v": 58
    },
    {
      "midi": 43,
      "hit": false,
      "t": 78684,
      "d": 228,
      "v": 90
    },
    {
      "midi": 79,
      "hit": false,
      "t": 78800,
      "d": 336,
      "v": 100
    },
    {
      "midi": 43,
      "hit": false,
      "t": 78912,
      "d": 224,
      "v": 90
    },
    {
      "midi": 40,
      "hit": false,
      "t": 78912,
      "d": 336,
      "v": 100
    },
    {
      "midi": 43,
      "hit": false,
      "t": 79136,
      "d": 228,
      "v": 90
    },
    {
      "midi": 74,
      "hit": false,
      "t": 79136,
      "d": 228,
      "v": 100
    },
    {
      "midi": 35,
      "hit": false,
      "t": 79248,
      "d": 116,
      "v": 100
    },
    {
      "midi": 35,
      "hit": false,
      "t": 79364,
      "d": 0,
      "v": 110
    },
    {
      "midi": 39,
      "hit": false,
      "t": 79364,
      "d": 224,
      "v": 90
    },
    {
      "midi": 35,
      "hit": false,
      "t": 79364,
      "d": 224,
      "v": 100
    },
    {
      "midi": 77,
      "hit": false,
      "t": 79364,
      "d": 336,
      "v": 100
    },
    {
      "midi": 63,
      "hit": false,
      "t": 79364,
      "d": 900,
      "v": 58
    },
    {
      "midi": 67,
      "hit": false,
      "t": 79364,
      "d": 900,
      "v": 58
    },
    {
      "midi": 70,
      "hit": false,
      "t": 79364,
      "d": 900,
      "v": 58
    },
    {
      "midi": 35,
      "hit": false,
      "t": 79588,
      "d": 0,
      "v": 110
    },
    {
      "midi": 39,
      "hit": false,
      "t": 79588,
      "d": 224,
      "v": 90
    },
    {
      "midi": 35,
      "hit": false,
      "t": 79588,
      "d": 224,
      "v": 100
    },
    {
      "midi": 79,
      "hit": false,
      "t": 79700,
      "d": 340,
      "v": 100
    },
    {
      "midi": 39,
      "hit": false,
      "t": 79812,
      "d": 228,
      "v": 90
    },
    {
      "midi": 40,
      "hit": false,
      "t": 79812,
      "d": 340,
      "v": 100
    },
    {
      "midi": 39,
      "hit": false,
      "t": 80040,
      "d": 224,
      "v": 90
    },
    {
      "midi": 74,
      "hit": false,
      "t": 80040,
      "d": 224,
      "v": 100
    },
    {
      "midi": 35,
      "hit": false,
      "t": 80152,
      "d": 112,
      "v": 100
    },
    {
      "midi": 35,
      "hit": false,
      "t": 80264,
      "d": 0,
      "v": 110
    },
    {
      "midi": 41,
      "hit": false,
      "t": 80264,
      "d": 228,
      "v": 90
    },
    {
      "midi": 77,
      "hit": false,
      "t": 80264,
      "d": 228,
      "v": 100
    },
    {
      "midi": 35,
      "hit": false,
      "t": 80264,
      "d": 452,
      "v": 100
    },
    {
      "midi": 65,
      "hit": false,
      "t": 80264,
      "d": 904,
      "v": 58
    },
    {
      "midi": 69,
      "hit": false,
      "t": 80264,
      "d": 904,
      "v": 58
    },
    {
      "midi": 41,
      "hit": false,
      "t": 80492,
      "d": 224,
      "v": 90
    },
    {
      "midi": 75,
      "hit": false,
      "t": 80492,
      "d": 224,
      "v": 100
    },
    {
      "midi": 41,
      "hit": false,
      "t": 80716,
      "d": 224,
      "v": 90
    },
    {
      "midi": 74,
      "hit": false,
      "t": 80716,
      "d": 224,
      "v": 100
    },
    {
      "midi": 40,
      "hit": false,
      "t": 80716,
      "d": 340,
      "v": 100
    },
    {
      "midi": 41,
      "hit": false,
      "t": 80940,
      "d": 228,
      "v": 90
    },
    {
      "midi": 72,
      "hit": false,
      "t": 80940,
      "d": 228,
      "v": 100
    },
    {
      "midi": 35,
      "hit": false,
      "t": 81056,
      "d": 112,
      "v": 100
    },
    {
      "midi": 35,
      "hit": false,
      "t": 81168,
      "d": 0,
      "v": 110
    },
    {
      "midi": 46,
      "hit": false,
      "t": 81168,
      "d": 224,
      "v": 90
    },
    {
      "midi": 35,
      "hit": false,
      "t": 81168,
      "d": 224,
      "v": 100
    },
    {
      "midi": 72,
      "hit": false,
      "t": 81168,
      "d": 336,
      "v": 100
    },
    {
      "midi": 70,
      "hit": false,
      "t": 81168,
      "d": 900,
      "v": 58
    },
    {
      "midi": 77,
      "hit": false,
      "t": 81168,
      "d": 900,
      "v": 58
    },
    {
      "midi": 35,
      "hit": false,
      "t": 81392,
      "d": 0,
      "v": 110
    },
    {
      "midi": 46,
      "hit": false,
      "t": 81392,
      "d": 224,
      "v": 90
    },
    {
      "midi": 35,
      "hit": false,
      "t": 81392,
      "d": 224,
      "v": 100
    },
    {
      "midi": 74,
      "hit": false,
      "t": 81504,
      "d": 340,
      "v": 100
    },
    {
      "midi": 46,
      "hit": false,
      "t": 81616,
      "d": 228,
      "v": 90
    },
    {
      "midi": 40,
      "hit": false,
      "t": 81616,
      "d": 340,
      "v": 100
    },
    {
      "midi": 46,
      "hit": false,
      "t": 81844,
      "d": 224,
      "v": 90
    },
    {
      "midi": 35,
      "hit": false,
      "t": 81956,
      "d": 112,
      "v": 100
    },
    {
      "midi": 35,
      "hit": false,
      "t": 82068,
      "d": 0,
      "v": 110
    },
    {
      "midi": 48,
      "hit": false,
      "t": 82068,
      "d": 228,
      "v": 90
    },
    {
      "midi": 75,
      "hit": false,
      "t": 82068,
      "d": 340,
      "v": 100
    },
    {
      "midi": 35,
      "hit": false,
      "t": 82068,
      "d": 452,
      "v": 100
    },
    {
      "midi": 60,
      "hit": false,
      "t": 82068,
      "d": 904,
      "v": 58
    },
    {
      "midi": 63,
      "hit": false,
      "t": 82068,
      "d": 904,
      "v": 58
    },
    {
      "midi": 67,
      "hit": false,
      "t": 82068,
      "d": 904,
      "v": 58
    },
    {
      "midi": 48,
      "hit": false,
      "t": 82296,
      "d": 224,
      "v": 90
    },
    {
      "midi": 75,
      "hit": false,
      "t": 82408,
      "d": 336,
      "v": 100
    },
    {
      "midi": 48,
      "hit": false,
      "t": 82520,
      "d": 224,
      "v": 90
    },
    {
      "midi": 40,
      "hit": false,
      "t": 82520,
      "d": 340,
      "v": 100
    },
    {
      "midi": 48,
      "hit": false,
      "t": 82744,
      "d": 228,
      "v": 90
    },
    {
      "midi": 75,
      "hit": false,
      "t": 82744,
      "d": 228,
      "v": 100
    },
    {
      "midi": 35,
      "hit": false,
      "t": 82860,
      "d": 112,
      "v": 100
    },
    {
      "midi": 35,
      "hit": false,
      "t": 82972,
      "d": 0,
      "v": 110
    },
    {
      "midi": 50,
      "hit": false,
      "t": 82972,
      "d": 224,
      "v": 90
    },
    {
      "midi": 35,
      "hit": false,
      "t": 82972,
      "d": 224,
      "v": 100
    },
    {
      "midi": 74,
      "hit": false,
      "t": 82972,
      "d": 452,
      "v": 100
    },
    {
      "midi": 62,
      "hit": false,
      "t": 82972,
      "d": 900,
      "v": 58
    },
    {
      "midi": 66,
      "hit": false,
      "t": 82972,
      "d": 900,
      "v": 58
    },
    {
      "midi": 35,
      "hit": false,
      "t": 83196,
      "d": 0,
      "v": 110
    },
    {
      "midi": 50,
      "hit": false,
      "t": 83196,
      "d": 228,
      "v": 90
    },
    {
      "midi": 35,
      "hit": false,
      "t": 83196,
      "d": 228,
      "v": 100
    },
    {
      "midi": 50,
      "hit": false,
      "t": 83424,
      "d": 224,
      "v": 90
    },
    {
      "midi": 69,
      "hit": false,
      "t": 83424,
      "d": 224,
      "v": 100
    },
    {
      "midi": 40,
      "hit": false,
      "t": 83424,
      "d": 336,
      "v": 100
    },
    {
      "midi": 50,
      "hit": false,
      "t": 83648,
      "d": 224,
      "v": 90
    },
    {
      "midi": 35,
      "hit": false,
      "t": 83760,
      "d": 112,
      "v": 100
    },
    {
      "midi": 72,
      "hit": false,
      "t": 83872,
      "d": 0,
      "v": 58
    },
    {
      "midi": 35,
      "hit": false,
      "t": 83872,
      "d": 0,
      "v": 110
    },
    {
      "midi": 43,
      "hit": false,
      "t": 83872,
      "d": 228,
      "v": 90
    },
    {
      "midi": 35,
      "hit": false,
      "t": 83872,
      "d": 452,
      "v": 100
    },
    {
      "midi": 72,
      "hit": false,
      "t": 83872,
      "d": 680,
      "v": 100
    },
    {
      "midi": 67,
      "hit": false,
      "t": 83872,
      "d": 904,
      "v": 58
    },
    {
      "midi": 74,
      "hit": false,
      "t": 83872,
      "d": 904,
      "v": 58
    },
    {
      "midi": 43,
      "hit": false,
      "t": 84100,
      "d": 224,
      "v": 90
    },
    {
      "midi": 43,
      "hit": false,
      "t": 84324,
      "d": 228,
      "v": 90
    },
    {
      "midi": 40,
      "hit": false,
      "t": 84324,
      "d": 340,
      "v": 100
    },
    {
      "midi": 43,
      "hit": false,
      "t": 84552,
      "d": 112,
      "v": 90
    },
    {
      "midi": 70,
      "hit": false,
      "t": 84552,
      "d": 112,
      "v": 100
    },
    {
      "midi": 43,
      "hit": false,
      "t": 84664,
      "d": 112,
      "v": 90
    },
    {
      "midi": 69,
      "hit": false,
      "t": 84664,
      "d": 112,
      "v": 100
    },
    {
      "midi": 35,
      "hit": false,
      "t": 84664,
      "d": 112,
      "v": 100
    },
    {
      "midi": 35,
      "hit": false,
      "t": 84776,
      "d": 0,
      "v": 110
    },
    {
      "midi": 43,
      "hit": false,
      "t": 84776,
      "d": 224,
      "v": 90
    },
    {
      "midi": 35,
      "hit": false,
      "t": 84776,
      "d": 224,
      "v": 100
    },
    {
      "midi": 70,
      "hit": false,
      "t": 84776,
      "d": 452,
      "v": 100
    },
    {
      "midi": 67,
      "hit": false,
      "t": 84776,
      "d": 904,
      "v": 58
    },
    {
      "midi": 35,
      "hit": false,
      "t": 85000,
      "d": 0,
      "v": 110
    },
    {
      "midi": 43,
      "hit": false,
      "t": 85000,
      "d": 228,
      "v": 90
    },
    {
      "midi": 35,
      "hit": false,
      "t": 85000,
      "d": 228,
      "v": 100
    },
    {
      "midi": 43,
      "hit": false,
      "t": 85228,
      "d": 224,
      "v": 90
    },
    {
      "midi": 40,
      "hit": false,
      "t": 85228,
      "d": 224,
      "v": 100
    },
    {
      "midi": 40,
      "hit": false,
      "t": 85452,
      "d": 112,
      "v": 100
    },
    {
      "midi": 43,
      "hit": false,
      "t": 85452,
      "d": 228,
      "v": 90
    },
    {
      "midi": 74,
      "hit": false,
      "t": 85452,
      "d": 228,
      "v": 100
    },
    {
      "midi": 40,
      "hit": false,
      "t": 85564,
      "d": 116,
      "v": 100
    },
    {
      "midi": 74,
      "hit": false,
      "t": 85680,
      "d": 0,
      "v": 58
    },
    {
      "midi": 43,
      "hit": false,
      "t": 85680,
      "d": 224,
      "v": 90
    },
    {
      "midi": 77,
      "hit": false,
      "t": 85680,
      "d": 336,
      "v": 100
    },
    {
      "midi": 35,
      "hit": false,
      "t": 85680,
      "d": 448,
      "v": 100
    },
    {
      "midi": 67,
      "hit": false,
      "t": 85680,
      "d": 900,
      "v": 58
    },
    {
      "midi": 70,
      "hit": false,
      "t": 85680,
      "d": 900,
      "v": 58
    },
    {
      "midi": 43,
      "hit": false,
      "t": 85904,
      "d": 224,
      "v": 90
    },
    {
      "midi": 79,
      "hit": false,
      "t": 86016,
      "d": 340,
      "v": 100
    },
    {
      "midi": 43,
      "hit": false,
      "t": 86128,
      "d": 228,
      "v": 90
    },
    {
      "midi": 40,
      "hit": false,
      "t": 86128,
      "d": 340,
      "v": 100
    },
    {
      "midi": 43,
      "hit": false,
      "t": 86356,
      "d": 224,
      "v": 90
    },
    {
      "midi": 74,
      "hit": false,
      "t": 86356,
      "d": 224,
      "v": 100
    },
    {
      "midi": 35,
      "hit": false,
      "t": 86468,
      "d": 112,
      "v": 100
    },
    {
      "midi": 35,
      "hit": false,
      "t": 86580,
      "d": 0,
      "v": 110
    },
    {
      "midi": 39,
      "hit": false,
      "t": 86580,
      "d": 224,
      "v": 90
    },
    {
      "midi": 35,
      "hit": false,
      "t": 86580,
      "d": 224,
      "v": 100
    },
    {
      "midi": 77,
      "hit": false,
      "t": 86580,
      "d": 340,
      "v": 100
    },
    {
      "midi": 63,
      "hit": false,
      "t": 86580,
      "d": 904,
      "v": 58
    },
    {
      "midi": 67,
      "hit": false,
      "t": 86580,
      "d": 904,
      "v": 58
    },
    {
      "midi": 70,
      "hit": false,
      "t": 86580,
      "d": 904,
      "v": 58
    },
    {
      "midi": 35,
      "hit": false,
      "t": 86804,
      "d": 0,
      "v": 110
    },
    {
      "midi": 39,
      "hit": false,
      "t": 86804,
      "d": 228,
      "v": 90
    },
    {
      "midi": 35,
      "hit": false,
      "t": 86804,
      "d": 228,
      "v": 100
    },
    {
      "midi": 79,
      "hit": false,
      "t": 86920,
      "d": 336,
      "v": 100
    },
    {
      "midi": 39,
      "hit": false,
      "t": 87032,
      "d": 224,
      "v": 90
    },
    {
      "midi": 40,
      "hit": false,
      "t": 87032,
      "d": 336,
      "v": 100
    },
    {
      "midi": 39,
      "hit": false,
      "t": 87256,
      "d": 228,
      "v": 90
    },
    {
      "midi": 35,
      "hit": false,
      "t": 87368,
      "d": 116,
      "v": 100
    },
    {
      "midi": 35,
      "hit": false,
      "t": 87484,
      "d": 0,
      "v": 110
    },
    {
      "midi": 41,
      "hit": false,
      "t": 87484,
      "d": 224,
      "v": 90
    },
    {
      "midi": 77,
      "hit": false,
      "t": 87484,
      "d": 224,
      "v": 100
    },
    {
      "midi": 35,
      "hit": false,
      "t": 87484,
      "d": 448,
      "v": 100
    },
    {
      "midi": 65,
      "hit": false,
      "t": 87484,
      "d": 900,
      "v": 58
    },
    {
      "midi": 69,
      "hit": false,
      "t": 87484,
      "d": 900,
      "v": 58
    },
    {
      "midi": 41,
      "hit": false,
      "t": 87708,
      "d": 224,
      "v": 90
    },
    {
      "midi": 75,
      "hit": false,
      "t": 87708,
      "d": 224,
      "v": 100
    },
    {
      "midi": 41,
      "hit": false,
      "t": 87932,
      "d": 228,
      "v": 90
    },
    {
      "midi": 74,
      "hit": false,
      "t": 87932,
      "d": 228,
      "v": 100
    },
    {
      "midi": 40,
      "hit": false,
      "t": 87932,
      "d": 340,
      "v": 100
    },
    {
      "midi": 41,
      "hit": false,
      "t": 88160,
      "d": 224,
      "v": 90
    },
    {
      "midi": 72,
      "hit": false,
      "t": 88160,
      "d": 224,
      "v": 100
    },
    {
      "midi": 35,
      "hit": false,
      "t": 88272,
      "d": 112,
      "v": 100
    },
    {
      "midi": 35,
      "hit": false,
      "t": 88384,
      "d": 0,
      "v": 110
    },
    {
      "midi": 46,
      "hit": false,
      "t": 88384,
      "d": 228,
      "v": 90
    },
    {
      "midi": 35,
      "hit": false,
      "t": 88384,
      "d": 228,
      "v": 100
    },
    {
      "midi": 72,
      "hit": false,
      "t": 88384,
      "d": 340,
      "v": 100
    },
    {
      "midi": 70,
      "hit": false,
      "t": 88384,
      "d": 904,
      "v": 58
    },
    {
      "midi": 77,
      "hit": false,
      "t": 88384,
      "d": 904,
      "v": 58
    },
    {
      "midi": 35,
      "hit": false,
      "t": 88612,
      "d": 0,
      "v": 110
    },
    {
      "midi": 46,
      "hit": false,
      "t": 88612,
      "d": 224,
      "v": 90
    },
    {
      "midi": 35,
      "hit": false,
      "t": 88612,
      "d": 224,
      "v": 100
    },
    {
      "midi": 74,
      "hit": false,
      "t": 88724,
      "d": 336,
      "v": 100
    },
    {
      "midi": 46,
      "hit": false,
      "t": 88836,
      "d": 224,
      "v": 90
    },
    {
      "midi": 40,
      "hit": false,
      "t": 88836,
      "d": 340,
      "v": 100
    },
    {
      "midi": 46,
      "hit": false,
      "t": 89060,
      "d": 228,
      "v": 90
    },
    {
      "midi": 35,
      "hit": false,
      "t": 89176,
      "d": 112,
      "v": 100
    },
    {
      "midi": 35,
      "hit": false,
      "t": 89288,
      "d": 0,
      "v": 110
    },
    {
      "midi": 48,
      "hit": false,
      "t": 89288,
      "d": 224,
      "v": 90
    },
    {
      "midi": 75,
      "hit": false,
      "t": 89288,
      "d": 336,
      "v": 100
    },
    {
      "midi": 57,
      "hit": false,
      "t": 89288,
      "d": 452,
      "v": 100
    },
    {
      "midi": 35,
      "hit": false,
      "t": 89288,
      "d": 452,
      "v": 100
    },
    {
      "midi": 60,
      "hit": false,
      "t": 89288,
      "d": 900,
      "v": 58
    },
    {
      "midi": 63,
      "hit": false,
      "t": 89288,
      "d": 900,
      "v": 58
    },
    {
      "midi": 67,
      "hit": false,
      "t": 89288,
      "d": 900,
      "v": 58
    },
    {
      "midi": 48,
      "hit": false,
      "t": 89512,
      "d": 228,
      "v": 90
    },
    {
      "midi": 75,
      "hit": false,
      "t": 89624,
      "d": 340,
      "v": 100
    },
    {
      "midi": 48,
      "hit": false,
      "t": 89740,
      "d": 224,
      "v": 90
    },
    {
      "midi": 40,
      "hit": false,
      "t": 89740,
      "d": 336,
      "v": 100
    },
    {
      "midi": 48,
      "hit": false,
      "t": 89964,
      "d": 224,
      "v": 90
    },
    {
      "midi": 75,
      "hit": false,
      "t": 89964,
      "d": 224,
      "v": 100
    },
    {
      "midi": 35,
      "hit": false,
      "t": 90076,
      "d": 112,
      "v": 100
    },
    {
      "midi": 35,
      "hit": false,
      "t": 90188,
      "d": 0,
      "v": 110
    },
    {
      "midi": 50,
      "hit": false,
      "t": 90188,
      "d": 228,
      "v": 90
    },
    {
      "midi": 35,
      "hit": false,
      "t": 90188,
      "d": 228,
      "v": 100
    },
    {
      "midi": 74,
      "hit": false,
      "t": 90188,
      "d": 452,
      "v": 100
    },
    {
      "midi": 62,
      "hit": false,
      "t": 90188,
      "d": 904,
      "v": 58
    },
    {
      "midi": 65,
      "hit": false,
      "t": 90188,
      "d": 904,
      "v": 58
    },
    {
      "midi": 69,
      "hit": false,
      "t": 90188,
      "d": 904,
      "v": 58
    },
    {
      "midi": 35,
      "hit": false,
      "t": 90416,
      "d": 0,
      "v": 110
    },
    {
      "midi": 50,
      "hit": false,
      "t": 90416,
      "d": 224,
      "v": 90
    },
    {
      "midi": 35,
      "hit": false,
      "t": 90416,
      "d": 224,
      "v": 100
    },
    {
      "midi": 50,
      "hit": false,
      "t": 90640,
      "d": 228,
      "v": 90
    },
    {
      "midi": 77,
      "hit": false,
      "t": 90640,
      "d": 228,
      "v": 100
    },
    {
      "midi": 40,
      "hit": false,
      "t": 90640,
      "d": 340,
      "v": 100
    },
    {
      "midi": 50,
      "hit": false,
      "t": 90868,
      "d": 224,
      "v": 90
    },
    {
      "midi": 77,
      "hit": false,
      "t": 90868,
      "d": 224,
      "v": 100
    },
    {
      "midi": 35,
      "hit": false,
      "t": 90980,
      "d": 112,
      "v": 100
    },
    {
      "midi": 35,
      "hit": false,
      "t": 91092,
      "d": 0,
      "v": 110
    },
    {
      "midi": 39,
      "hit": false,
      "t": 91092,
      "d": 224,
      "v": 90
    },
    {
      "midi": 35,
      "hit": false,
      "t": 91092,
      "d": 452,
      "v": 100
    },
    {
      "midi": 63,
      "hit": false,
      "t": 91092,
      "d": 1804,
      "v": 58
    },
    {
      "midi": 67,
      "hit": false,
      "t": 91092,
      "d": 1804,
      "v": 58
    },
    {
      "midi": 70,
      "hit": false,
      "t": 91092,
      "d": 1804,
      "v": 58
    },
    {
      "midi": 78,
      "hit": false,
      "t": 91092,
      "d": 1804,
      "v": 100
    },
    {
      "midi": 39,
      "hit": false,
      "t": 91316,
      "d": 228,
      "v": 90
    },
    {
      "midi": 39,
      "hit": false,
      "t": 91544,
      "d": 224,
      "v": 90
    },
    {
      "midi": 40,
      "hit": false,
      "t": 91544,
      "d": 336,
      "v": 100
    },
    {
      "midi": 39,
      "hit": false,
      "t": 91768,
      "d": 224,
      "v": 90
    },
    {
      "midi": 35,
      "hit": false,
      "t": 91880,
      "d": 112,
      "v": 100
    },
    {
      "midi": 35,
      "hit": false,
      "t": 91992,
      "d": 0,
      "v": 110
    },
    {
      "midi": 39,
      "hit": false,
      "t": 91992,
      "d": 228,
      "v": 90
    },
    {
      "midi": 35,
      "hit": false,
      "t": 91992,
      "d": 228,
      "v": 100
    },
    {
      "midi": 35,
      "hit": false,
      "t": 92220,
      "d": 0,
      "v": 110
    },
    {
      "midi": 39,
      "hit": false,
      "t": 92220,
      "d": 224,
      "v": 90
    },
    {
      "midi": 35,
      "hit": false,
      "t": 92220,
      "d": 224,
      "v": 100
    },
    {
      "midi": 39,
      "hit": false,
      "t": 92444,
      "d": 228,
      "v": 90
    },
    {
      "midi": 40,
      "hit": false,
      "t": 92444,
      "d": 340,
      "v": 100
    },
    {
      "midi": 39,
      "hit": false,
      "t": 92672,
      "d": 224,
      "v": 90
    },
    {
      "midi": 35,
      "hit": false,
      "t": 92784,
      "d": 112,
      "v": 100
    },
    {
      "midi": 35,
      "hit": false,
      "t": 92896,
      "d": 0,
      "v": 110
    },
    {
      "midi": 41,
      "hit": false,
      "t": 92896,
      "d": 224,
      "v": 90
    },
    {
      "midi": 49,
      "hit": false,
      "t": 92896,
      "d": 452,
      "v": 100
    },
    {
      "midi": 35,
      "hit": false,
      "t": 92896,
      "d": 452,
      "v": 100
    },
    {
      "midi": 65,
      "hit": false,
      "t": 92896,
      "d": 1804,
      "v": 58
    },
    {
      "midi": 69,
      "hit": false,
      "t": 92896,
      "d": 1804,
      "v": 58
    },
    {
      "midi": 72,
      "hit": false,
      "t": 92896,
      "d": 1804,
      "v": 58
    },
    {
      "midi": 41,
      "hit": false,
      "t": 93120,
      "d": 228,
      "v": 90
    },
    {
      "midi": 41,
      "hit": false,
      "t": 93348,
      "d": 224,
      "v": 90
    },
    {
      "midi": 40,
      "hit": false,
      "t": 93348,
      "d": 336,
      "v": 100
    },
    {
      "midi": 41,
      "hit": false,
      "t": 93572,
      "d": 228,
      "v": 90
    },
    {
      "midi": 35,
      "hit": false,
      "t": 93684,
      "d": 116,
      "v": 100
    },
    {
      "midi": 40,
      "hit": false,
      "t": 93800,
      "d": 112,
      "v": 100
    },
    {
      "midi": 41,
      "hit": false,
      "t": 93800,
      "d": 224,
      "v": 90
    },
    {
      "midi": 77,
      "hit": false,
      "t": 93800,
      "d": 336,
      "v": 100
    },
    {
      "midi": 40,
      "hit": false,
      "t": 93912,
      "d": 112,
      "v": 100
    },
    {
      "midi": 40,
      "hit": false,
      "t": 94024,
      "d": 112,
      "v": 100
    },
    {
      "midi": 41,
      "hit": false,
      "t": 94024,
      "d": 224,
      "v": 90
    },
    {
      "midi": 40,
      "hit": false,
      "t": 94136,
      "d": 112,
      "v": 100
    },
    {
      "midi": 79,
      "hit": false,
      "t": 94136,
      "d": 340,
      "v": 100
    },
    {
      "midi": 40,
      "hit": false,
      "t": 94248,
      "d": 116,
      "v": 100
    },
    {
      "midi": 41,
      "hit": false,
      "t": 94248,
      "d": 228,
      "v": 90
    },
    {
      "midi": 40,
      "hit": false,
      "t": 94364,
      "d": 112,
      "v": 100
    },
    {
      "midi": 40,
      "hit": false,
      "t": 94476,
      "d": 112,
      "v": 100
    },
    {
      "midi": 41,
      "hit": false,
      "t": 94476,
      "d": 224,
      "v": 90
    },
    {
      "midi": 79,
      "hit": false,
      "t": 94476,
      "d": 676,
      "v": 100
    },
    {
      "midi": 40,
      "hit": false,
      "t": 94588,
      "d": 112,
      "v": 100
    },
    {
      "midi": 74,
      "hit": false,
      "t": 94700,
      "d": 228,
      "v": 100
    },
    {
      "midi": 70,
      "hit": false,
      "t": 94700,
      "d": 228,
      "v": 80
    },
    {
      "midi": 35,
      "hit": false,
      "t": 94700,
      "d": 340,
      "v": 100
    },
    {
      "midi": 55,
      "hit": false,
      "t": 94700,
      "d": 452,
      "v": 100
    },
    {
      "midi": 72,
      "hit": false,
      "t": 94928,
      "d": 2704,
      "v": 100
    },
    {
      "midi": 69,
      "hit": false,
      "t": 94928,
      "d": 2704,
      "v": 80
    },
    {
      "midi": 35,
      "hit": false,
      "t": 95040,
      "d": 0,
      "v": 110
    },
    {
      "midi": 35,
      "hit": false,
      "t": 95040,
      "d": 336,
      "v": 100
    },
    {
      "midi": 55,
      "hit": false,
      "t": 95152,
      "d": 452,
      "v": 100
    },
    {
      "midi": 35,
      "hit": false,
      "t": 95376,
      "d": 0,
      "v": 110
    },
    {
      "midi": 35,
      "hit": false,
      "t": 95376,
      "d": 228,
      "v": 100
    },
    {
      "midi": 55,
      "hit": false,
      "t": 95604,
      "d": 452,
      "v": 100
    },
    {
      "midi": 40,
      "hit": false,
      "t": 95604,
      "d": 676,
      "v": 100
    },
    {
      "midi": 55,
      "hit": false,
      "t": 96056,
      "d": 448,
      "v": 100
    },
    {
      "midi": 35,
      "hit": false,
      "t": 96280,
      "d": 224,
      "v": 100
    },
    {
      "midi": 35,
      "hit": false,
      "t": 96504,
      "d": 0,
      "v": 110
    },
    {
      "midi": 35,
      "hit": false,
      "t": 96504,
      "d": 340,
      "v": 100
    },
    {
      "midi": 55,
      "hit": false,
      "t": 96504,
      "d": 452,
      "v": 100
    },
    {
      "midi": 35,
      "hit": false,
      "t": 96844,
      "d": 0,
      "v": 110
    },
    {
      "midi": 35,
      "hit": false,
      "t": 96844,
      "d": 336,
      "v": 100
    },
    {
      "midi": 55,
      "hit": false,
      "t": 96956,
      "d": 452,
      "v": 100
    },
    {
      "midi": 35,
      "hit": false,
      "t": 97180,
      "d": 0,
      "v": 110
    },
    {
      "midi": 35,
      "hit": false,
      "t": 97180,
      "d": 228,
      "v": 100
    },
    {
      "midi": 40,
      "hit": false,
      "t": 97408,
      "d": 112,
      "v": 100
    },
    {
      "midi": 55,
      "hit": false,
      "t": 97408,
      "d": 452,
      "v": 100
    },
    {
      "midi": 40,
      "hit": false,
      "t": 97520,
      "d": 112,
      "v": 100
    },
    {
      "midi": 40,
      "hit": false,
      "t": 97632,
      "d": 228,
      "v": 100
    },
    {
      "midi": 70,
      "hit": false,
      "t": 97632,
      "d": 340,
      "v": 100
    },
    {
      "midi": 67,
      "hit": false,
      "t": 97632,
      "d": 340,
      "v": 80
    },
    {
      "midi": 40,
      "hit": false,
      "t": 97860,
      "d": 112,
      "v": 100
    },
    {
      "midi": 55,
      "hit": false,
      "t": 97860,
      "d": 448,
      "v": 100
    },
    {
      "midi": 40,
      "hit": false,
      "t": 97972,
      "d": 112,
      "v": 100
    },
    {
      "midi": 72,
      "hit": false,
      "t": 97972,
      "d": 224,
      "v": 100
    },
    {
      "midi": 69,
      "hit": false,
      "t": 97972,
      "d": 224,
      "v": 80
    },
    {
      "midi": 40,
      "hit": false,
      "t": 98084,
      "d": 224,
      "v": 100
    },
    {
      "midi": 74,
      "hit": false,
      "t": 98196,
      "d": 340,
      "v": 100
    },
    {
      "midi": 70,
      "hit": false,
      "t": 98196,
      "d": 340,
      "v": 80
    },
    {
      "midi": 35,
      "hit": false,
      "t": 98308,
      "d": 340,
      "v": 100
    },
    {
      "midi": 57,
      "hit": false,
      "t": 98308,
      "d": 452,
      "v": 100
    },
    {
      "midi": 72,
      "hit": false,
      "t": 98536,
      "d": 3156,
      "v": 100
    },
    {
      "midi": 69,
      "hit": false,
      "t": 98536,
      "d": 3156,
      "v": 80
    },
    {
      "midi": 35,
      "hit": false,
      "t": 98648,
      "d": 0,
      "v": 110
    },
    {
      "midi": 35,
      "hit": false,
      "t": 98648,
      "d": 340,
      "v": 100
    },
    {
      "midi": 55,
      "hit": false,
      "t": 98760,
      "d": 452,
      "v": 100
    },
    {
      "midi": 35,
      "hit": false,
      "t": 98988,
      "d": 0,
      "v": 110
    },
    {
      "midi": 35,
      "hit": false,
      "t": 98988,
      "d": 224,
      "v": 100
    },
    {
      "midi": 55,
      "hit": false,
      "t": 99212,
      "d": 452,
      "v": 100
    },
    {
      "midi": 40,
      "hit": false,
      "t": 99212,
      "d": 676,
      "v": 100
    },
    {
      "midi": 55,
      "hit": false,
      "t": 99664,
      "d": 452,
      "v": 100
    },
    {
      "midi": 77,
      "hit": false,
      "t": 99888,
      "d": 112,
      "v": 58
    },
    {
      "midi": 35,
      "hit": false,
      "t": 99888,
      "d": 228,
      "v": 100
    },
    {
      "midi": 77,
      "hit": false,
      "t": 100000,
      "d": 116,
      "v": 58
    },
    {
      "midi": 40,
      "hit": false,
      "t": 100116,
      "d": 56,
      "v": 100
    },
    {
      "midi": 77,
      "hit": false,
      "t": 100116,
      "d": 676,
      "v": 58
    },
    {
      "midi": 40,
      "hit": false,
      "t": 100172,
      "d": 56,
      "v": 100
    },
    {
      "midi": 40,
      "hit": false,
      "t": 100228,
      "d": 56,
      "v": 100
    },
    {
      "midi": 40,
      "hit": false,
      "t": 100284,
      "d": 56,
      "v": 100
    },
    {
      "midi": 40,
      "hit": false,
      "t": 100340,
      "d": 56,
      "v": 100
    },
    {
      "midi": 40,
      "hit": false,
      "t": 100396,
      "d": 56,
      "v": 100
    },
    {
      "midi": 40,
      "hit": false,
      "t": 100452,
      "d": 56,
      "v": 100
    },
    {
      "midi": 40,
      "hit": false,
      "t": 100508,
      "d": 56,
      "v": 100
    },
    {
      "midi": 40,
      "hit": false,
      "t": 100564,
      "d": 228,
      "v": 100
    },
    {
      "midi": 40,
      "hit": false,
      "t": 100792,
      "d": 56,
      "v": 100
    },
    {
      "midi": 40,
      "hit": false,
      "t": 100848,
      "d": 56,
      "v": 100
    },
    {
      "midi": 40,
      "hit": false,
      "t": 100904,
      "d": 56,
      "v": 100
    },
    {
      "midi": 40,
      "hit": false,
      "t": 100960,
      "d": 56,
      "v": 100
    },
    {
      "midi": 40,
      "hit": false,
      "t": 101016,
      "d": 56,
      "v": 100
    },
    {
      "midi": 40,
      "hit": false,
      "t": 101072,
      "d": 56,
      "v": 100
    },
    {
      "midi": 40,
      "hit": false,
      "t": 101128,
      "d": 56,
      "v": 100
    },
    {
      "midi": 40,
      "hit": false,
      "t": 101184,
      "d": 60,
      "v": 100
    },
    {
      "midi": 40,
      "hit": false,
      "t": 101244,
      "d": 224,
      "v": 100
    },
    {
      "midi": 40,
      "hit": false,
      "t": 101468,
      "d": 112,
      "v": 100
    },
    {
      "midi": 40,
      "hit": false,
      "t": 101580,
      "d": 112,
      "v": 100
    },
    {
      "midi": 40,
      "hit": false,
      "t": 101692,
      "d": 228,
      "v": 100
    },
    {
      "midi": 44,
      "hit": false,
      "t": 101920,
      "d": 112,
      "v": 95
    },
    {
      "midi": 43,
      "hit": false,
      "t": 101920,
      "d": 224,
      "v": 60
    },
    {
      "midi": 70,
      "hit": false,
      "t": 101920,
      "d": 224,
      "v": 100
    },
    {
      "midi": 49,
      "hit": false,
      "t": 101920,
      "d": 448,
      "v": 100
    },
    {
      "midi": 35,
      "hit": false,
      "t": 101920,
      "d": 448,
      "v": 100
    },
    {
      "midi": 74,
      "hit": false,
      "t": 101920,
      "d": 1804,
      "v": 58
    },
    {
      "midi": 44,
      "hit": false,
      "t": 102032,
      "d": 112,
      "v": 95
    },
    {
      "midi": 46,
      "hit": false,
      "t": 102144,
      "d": 112,
      "v": 95
    },
    {
      "midi": 43,
      "hit": false,
      "t": 102144,
      "d": 224,
      "v": 60
    },
    {
      "midi": 70,
      "hit": false,
      "t": 102144,
      "d": 224,
      "v": 100
    },
    {
      "midi": 44,
      "hit": false,
      "t": 102256,
      "d": 112,
      "v": 95
    },
    {
      "midi": 35,
      "hit": false,
      "t": 102368,
      "d": 0,
      "v": 110
    },
    {
      "midi": 44,
      "hit": false,
      "t": 102368,
      "d": 116,
      "v": 95
    },
    {
      "midi": 43,
      "hit": false,
      "t": 102368,
      "d": 228,
      "v": 60
    },
    {
      "midi": 70,
      "hit": false,
      "t": 102368,
      "d": 228,
      "v": 100
    },
    {
      "midi": 35,
      "hit": false,
      "t": 102368,
      "d": 452,
      "v": 100
    },
    {
      "midi": 44,
      "hit": false,
      "t": 102484,
      "d": 112,
      "v": 95
    },
    {
      "midi": 46,
      "hit": false,
      "t": 102596,
      "d": 112,
      "v": 95
    },
    {
      "midi": 43,
      "hit": false,
      "t": 102596,
      "d": 224,
      "v": 60
    },
    {
      "midi": 70,
      "hit": false,
      "t": 102596,
      "d": 224,
      "v": 100
    },
    {
      "midi": 44,
      "hit": false,
      "t": 102708,
      "d": 112,
      "v": 95
    },
    {
      "midi": 35,
      "hit": false,
      "t": 102820,
      "d": 0,
      "v": 110
    },
    {
      "midi": 44,
      "hit": false,
      "t": 102820,
      "d": 112,
      "v": 95
    },
    {
      "midi": 43,
      "hit": false,
      "t": 102820,
      "d": 228,
      "v": 60
    },
    {
      "midi": 70,
      "hit": false,
      "t": 102820,
      "d": 228,
      "v": 100
    },
    {
      "midi": 35,
      "hit": false,
      "t": 102820,
      "d": 452,
      "v": 100
    },
    {
      "midi": 44,
      "hit": false,
      "t": 102932,
      "d": 116,
      "v": 95
    },
    {
      "midi": 72,
      "hit": false,
      "t": 103048,
      "d": 112,
      "v": 100
    },
    {
      "midi": 46,
      "hit": false,
      "t": 103048,
      "d": 112,
      "v": 95
    },
    {
      "midi": 43,
      "hit": false,
      "t": 103048,
      "d": 224,
      "v": 60
    },
    {
      "midi": 44,
      "hit": false,
      "t": 103160,
      "d": 112,
      "v": 95
    },
    {
      "midi": 67,
      "hit": false,
      "t": 103160,
      "d": 336,
      "v": 100
    },
    {
      "midi": 35,
      "hit": false,
      "t": 103272,
      "d": 0,
      "v": 110
    },
    {
      "midi": 44,
      "hit": false,
      "t": 103272,
      "d": 112,
      "v": 95
    },
    {
      "midi": 43,
      "hit": false,
      "t": 103272,
      "d": 224,
      "v": 60
    },
    {
      "midi": 35,
      "hit": false,
      "t": 103272,
      "d": 452,
      "v": 100
    },
    {
      "midi": 44,
      "hit": false,
      "t": 103384,
      "d": 112,
      "v": 95
    },
    {
      "midi": 46,
      "hit": false,
      "t": 103496,
      "d": 116,
      "v": 95
    },
    {
      "midi": 43,
      "hit": false,
      "t": 103496,
      "d": 228,
      "v": 60
    },
    {
      "midi": 70,
      "hit": false,
      "t": 103496,
      "d": 228,
      "v": 100
    },
    {
      "midi": 44,
      "hit": false,
      "t": 103612,
      "d": 112,
      "v": 95
    },
    {
      "midi": 35,
      "hit": false,
      "t": 103724,
      "d": 0,
      "v": 110
    },
    {
      "midi": 44,
      "hit": false,
      "t": 103724,
      "d": 112,
      "v": 95
    },
    {
      "midi": 39,
      "hit": false,
      "t": 103724,
      "d": 224,
      "v": 60
    },
    {
      "midi": 35,
      "hit": false,
      "t": 103724,
      "d": 452,
      "v": 100
    },
    {
      "midi": 75,
      "hit": false,
      "t": 103724,
      "d": 1804,
      "v": 58
    },
    {
      "midi": 79,
      "hit": false,
      "t": 103724,
      "d": 1804,
      "v": 58
    },
    {
      "midi": 82,
      "hit": false,
      "t": 103724,
      "d": 1804,
      "v": 58
    },
    {
      "midi": 44,
      "hit": false,
      "t": 103836,
      "d": 112,
      "v": 95
    },
    {
      "midi": 70,
      "hit": false,
      "t": 103836,
      "d": 340,
      "v": 100
    },
    {
      "midi": 46,
      "hit": false,
      "t": 103948,
      "d": 112,
      "v": 95
    },
    {
      "midi": 39,
      "hit": false,
      "t": 103948,
      "d": 228,
      "v": 60
    },
    {
      "midi": 44,
      "hit": false,
      "t": 104060,
      "d": 116,
      "v": 95
    },
    {
      "midi": 35,
      "hit": false,
      "t": 104176,
      "d": 0,
      "v": 110
    },
    {
      "midi": 44,
      "hit": false,
      "t": 104176,
      "d": 112,
      "v": 95
    },
    {
      "midi": 39,
      "hit": false,
      "t": 104176,
      "d": 224,
      "v": 60
    },
    {
      "midi": 70,
      "hit": false,
      "t": 104176,
      "d": 224,
      "v": 100
    },
    {
      "midi": 35,
      "hit": false,
      "t": 104176,
      "d": 448,
      "v": 100
    },
    {
      "midi": 44,
      "hit": false,
      "t": 104288,
      "d": 112,
      "v": 95
    },
    {
      "midi": 46,
      "hit": false,
      "t": 104400,
      "d": 112,
      "v": 95
    },
    {
      "midi": 39,
      "hit": false,
      "t": 104400,
      "d": 224,
      "v": 60
    },
    {
      "midi": 70,
      "hit": false,
      "t": 104400,
      "d": 224,
      "v": 100
    },
    {
      "midi": 44,
      "hit": false,
      "t": 104512,
      "d": 112,
      "v": 95
    },
    {
      "midi": 35,
      "hit": false,
      "t": 104624,
      "d": 0,
      "v": 110
    },
    {
      "midi": 37,
      "hit": false,
      "t": 104624,
      "d": 116,
      "v": 100
    },
    {
      "midi": 44,
      "hit": false,
      "t": 104624,
      "d": 116,
      "v": 95
    },
    {
      "midi": 39,
      "hit": false,
      "t": 104624,
      "d": 228,
      "v": 60
    },
    {
      "midi": 70,
      "hit": false,
      "t": 104624,
      "d": 228,
      "v": 100
    },
    {
      "midi": 35,
      "hit": false,
      "t": 104624,
      "d": 452,
      "v": 100
    },
    {
      "midi": 44,
      "hit": false,
      "t": 104740,
      "d": 112,
      "v": 95
    },
    {
      "midi": 37,
      "hit": false,
      "t": 104740,
      "d": 224,
      "v": 100
    },
    {
      "midi": 72,
      "hit": false,
      "t": 104852,
      "d": 112,
      "v": 100
    },
    {
      "midi": 46,
      "hit": false,
      "t": 104852,
      "d": 112,
      "v": 95
    },
    {
      "midi": 39,
      "hit": false,
      "t": 104852,
      "d": 224,
      "v": 60
    },
    {
      "midi": 44,
      "hit": false,
      "t": 104964,
      "d": 112,
      "v": 95
    },
    {
      "midi": 37,
      "hit": false,
      "t": 104964,
      "d": 224,
      "v": 100
    },
    {
      "midi": 67,
      "hit": false,
      "t": 104964,
      "d": 452,
      "v": 100
    },
    {
      "midi": 35,
      "hit": false,
      "t": 105076,
      "d": 0,
      "v": 110
    },
    {
      "midi": 44,
      "hit": false,
      "t": 105076,
      "d": 112,
      "v": 95
    },
    {
      "midi": 39,
      "hit": false,
      "t": 105076,
      "d": 228,
      "v": 60
    },
    {
      "midi": 35,
      "hit": false,
      "t": 105076,
      "d": 452,
      "v": 100
    },
    {
      "midi": 37,
      "hit": false,
      "t": 105188,
      "d": 116,
      "v": 100
    },
    {
      "midi": 44,
      "hit": false,
      "t": 105188,
      "d": 116,
      "v": 95
    },
    {
      "midi": 37,
      "hit": false,
      "t": 105304,
      "d": 112,
      "v": 100
    },
    {
      "midi": 46,
      "hit": false,
      "t": 105304,
      "d": 112,
      "v": 95
    },
    {
      "midi": 39,
      "hit": false,
      "t": 105304,
      "d": 224,
      "v": 60
    },
    {
      "midi": 37,
      "hit": false,
      "t": 105416,
      "d": 112,
      "v": 100
    },
    {
      "midi": 44,
      "hit": false,
      "t": 105416,
      "d": 112,
      "v": 95
    },
    {
      "midi": 35,
      "hit": false,
      "t": 105528,
      "d": 0,
      "v": 110
    },
    {
      "midi": 44,
      "hit": false,
      "t": 105528,
      "d": 112,
      "v": 95
    },
    {
      "midi": 41,
      "hit": false,
      "t": 105528,
      "d": 224,
      "v": 60
    },
    {
      "midi": 35,
      "hit": false,
      "t": 105528,
      "d": 452,
      "v": 100
    },
    {
      "midi": 65,
      "hit": false,
      "t": 105528,
      "d": 1804,
      "v": 58
    },
    {
      "midi": 44,
      "hit": false,
      "t": 105640,
      "d": 112,
      "v": 95
    },
    {
      "midi": 46,
      "hit": false,
      "t": 105752,
      "d": 116,
      "v": 95
    },
    {
      "midi": 41,
      "hit": false,
      "t": 105752,
      "d": 228,
      "v": 60
    },
    {
      "midi": 69,
      "hit": false,
      "t": 105752,
      "d": 228,
      "v": 100
    },
    {
      "midi": 44,
      "hit": false,
      "t": 105868,
      "d": 112,
      "v": 95
    },
    {
      "midi": 35,
      "hit": false,
      "t": 105980,
      "d": 0,
      "v": 110
    },
    {
      "midi": 44,
      "hit": false,
      "t": 105980,
      "d": 112,
      "v": 95
    },
    {
      "midi": 41,
      "hit": false,
      "t": 105980,
      "d": 224,
      "v": 60
    },
    {
      "midi": 69,
      "hit": false,
      "t": 105980,
      "d": 224,
      "v": 100
    },
    {
      "midi": 35,
      "hit": false,
      "t": 105980,
      "d": 452,
      "v": 100
    },
    {
      "midi": 44,
      "hit": false,
      "t": 106092,
      "d": 112,
      "v": 95
    },
    {
      "midi": 46,
      "hit": false,
      "t": 106204,
      "d": 112,
      "v": 95
    },
    {
      "midi": 41,
      "hit": false,
      "t": 106204,
      "d": 228,
      "v": 60
    },
    {
      "midi": 70,
      "hit": false,
      "t": 106204,
      "d": 228,
      "v": 100
    },
    {
      "midi": 44,
      "hit": false,
      "t": 106316,
      "d": 116,
      "v": 95
    },
    {
      "midi": 35,
      "hit": false,
      "t": 106432,
      "d": 0,
      "v": 110
    },
    {
      "midi": 44,
      "hit": false,
      "t": 106432,
      "d": 112,
      "v": 95
    },
    {
      "midi": 41,
      "hit": false,
      "t": 106432,
      "d": 224,
      "v": 60
    },
    {
      "midi": 72,
      "hit": false,
      "t": 106432,
      "d": 336,
      "v": 100
    },
    {
      "midi": 35,
      "hit": false,
      "t": 106432,
      "d": 448,
      "v": 100
    },
    {
      "midi": 44,
      "hit": false,
      "t": 106544,
      "d": 112,
      "v": 95
    },
    {
      "midi": 46,
      "hit": false,
      "t": 106656,
      "d": 112,
      "v": 95
    },
    {
      "midi": 41,
      "hit": false,
      "t": 106656,
      "d": 224,
      "v": 60
    },
    {
      "midi": 44,
      "hit": false,
      "t": 106768,
      "d": 112,
      "v": 95
    },
    {
      "midi": 69,
      "hit": false,
      "t": 106768,
      "d": 340,
      "v": 100
    },
    {
      "midi": 35,
      "hit": false,
      "t": 106880,
      "d": 0,
      "v": 110
    },
    {
      "midi": 44,
      "hit": false,
      "t": 106880,
      "d": 112,
      "v": 95
    },
    {
      "midi": 41,
      "hit": false,
      "t": 106880,
      "d": 228,
      "v": 60
    },
    {
      "midi": 35,
      "hit": false,
      "t": 106880,
      "d": 452,
      "v": 100
    },
    {
      "midi": 44,
      "hit": false,
      "t": 106992,
      "d": 116,
      "v": 95
    },
    {
      "midi": 46,
      "hit": false,
      "t": 107108,
      "d": 112,
      "v": 95
    },
    {
      "midi": 41,
      "hit": false,
      "t": 107108,
      "d": 224,
      "v": 60
    },
    {
      "midi": 67,
      "hit": false,
      "t": 107108,
      "d": 224,
      "v": 100
    },
    {
      "midi": 44,
      "hit": false,
      "t": 107220,
      "d": 112,
      "v": 95
    },
    {
      "midi": 35,
      "hit": false,
      "t": 107332,
      "d": 0,
      "v": 110
    },
    {
      "midi": 44,
      "hit": false,
      "t": 107332,
      "d": 112,
      "v": 95
    },
    {
      "midi": 46,
      "hit": false,
      "t": 107332,
      "d": 224,
      "v": 60
    },
    {
      "midi": 67,
      "hit": false,
      "t": 107332,
      "d": 224,
      "v": 100
    },
    {
      "midi": 35,
      "hit": false,
      "t": 107332,
      "d": 452,
      "v": 100
    },
    {
      "midi": 70,
      "hit": false,
      "t": 107332,
      "d": 1804,
      "v": 58
    },
    {
      "midi": 74,
      "hit": false,
      "t": 107332,
      "d": 1804,
      "v": 58
    },
    {
      "midi": 77,
      "hit": false,
      "t": 107332,
      "d": 1804,
      "v": 58
    },
    {
      "midi": 44,
      "hit": false,
      "t": 107444,
      "d": 112,
      "v": 95
    },
    {
      "midi": 69,
      "hit": false,
      "t": 107556,
      "d": 116,
      "v": 100
    },
    {
      "midi": 46,
      "hit": false,
      "t": 107556,
      "d": 116,
      "v": 95
    },
    {
      "midi": 44,
      "hit": false,
      "t": 107672,
      "d": 112,
      "v": 95
    },
    {
      "midi": 65,
      "hit": false,
      "t": 107672,
      "d": 900,
      "v": 100
    },
    {
      "midi": 35,
      "hit": false,
      "t": 107784,
      "d": 0,
      "v": 110
    },
    {
      "midi": 44,
      "hit": false,
      "t": 107784,
      "d": 112,
      "v": 95
    },
    {
      "midi": 46,
      "hit": false,
      "t": 107784,
      "d": 224,
      "v": 60
    },
    {
      "midi": 35,
      "hit": false,
      "t": 107784,
      "d": 452,
      "v": 100
    },
    {
      "midi": 44,
      "hit": false,
      "t": 107896,
      "d": 112,
      "v": 95
    },
    {
      "midi": 46,
      "hit": false,
      "t": 108008,
      "d": 112,
      "v": 95
    },
    {
      "midi": 44,
      "hit": false,
      "t": 108120,
      "d": 116,
      "v": 95
    },
    {
      "midi": 35,
      "hit": false,
      "t": 108236,
      "d": 0,
      "v": 110
    },
    {
      "midi": 37,
      "hit": false,
      "t": 108236,
      "d": 112,
      "v": 100
    },
    {
      "midi": 44,
      "hit": false,
      "t": 108236,
      "d": 112,
      "v": 95
    },
    {
      "midi": 46,
      "hit": false,
      "t": 108236,
      "d": 224,
      "v": 60
    },
    {
      "midi": 35,
      "hit": false,
      "t": 108236,
      "d": 448,
      "v": 100
    },
    {
      "midi": 44,
      "hit": false,
      "t": 108348,
      "d": 112,
      "v": 95
    },
    {
      "midi": 37,
      "hit": false,
      "t": 108348,
      "d": 224,
      "v": 100
    },
    {
      "midi": 46,
      "hit": false,
      "t": 108460,
      "d": 112,
      "v": 95
    },
    {
      "midi": 44,
      "hit": false,
      "t": 108572,
      "d": 112,
      "v": 95
    },
    {
      "midi": 37,
      "hit": false,
      "t": 108572,
      "d": 228,
      "v": 100
    },
    {
      "midi": 35,
      "hit": false,
      "t": 108684,
      "d": 0,
      "v": 110
    },
    {
      "midi": 44,
      "hit": false,
      "t": 108684,
      "d": 116,
      "v": 95
    },
    {
      "midi": 46,
      "hit": false,
      "t": 108684,
      "d": 228,
      "v": 60
    },
    {
      "midi": 35,
      "hit": false,
      "t": 108684,
      "d": 452,
      "v": 100
    },
    {
      "midi": 37,
      "hit": false,
      "t": 108800,
      "d": 112,
      "v": 100
    },
    {
      "midi": 44,
      "hit": false,
      "t": 108800,
      "d": 112,
      "v": 95
    },
    {
      "midi": 37,
      "hit": false,
      "t": 108912,
      "d": 112,
      "v": 100
    },
    {
      "midi": 46,
      "hit": false,
      "t": 108912,
      "d": 112,
      "v": 95
    },
    {
      "midi": 37,
      "hit": false,
      "t": 109024,
      "d": 112,
      "v": 100
    },
    {
      "midi": 44,
      "hit": false,
      "t": 109024,
      "d": 112,
      "v": 95
    },
    {
      "midi": 35,
      "hit": false,
      "t": 109136,
      "d": 0,
      "v": 110
    },
    {
      "midi": 44,
      "hit": false,
      "t": 109136,
      "d": 112,
      "v": 95
    },
    {
      "midi": 39,
      "hit": false,
      "t": 109136,
      "d": 228,
      "v": 60
    },
    {
      "midi": 35,
      "hit": false,
      "t": 109136,
      "d": 452,
      "v": 100
    },
    {
      "midi": 60,
      "hit": false,
      "t": 109136,
      "d": 904,
      "v": 58
    },
    {
      "midi": 63,
      "hit": false,
      "t": 109136,
      "d": 904,
      "v": 58
    },
    {
      "midi": 44,
      "hit": false,
      "t": 109248,
      "d": 116,
      "v": 95
    },
    {
      "midi": 46,
      "hit": false,
      "t": 109364,
      "d": 112,
      "v": 95
    },
    {
      "midi": 39,
      "hit": false,
      "t": 109364,
      "d": 224,
      "v": 60
    },
    {
      "midi": 65,
      "hit": false,
      "t": 109364,
      "d": 224,
      "v": 100
    },
    {
      "midi": 44,
      "hit": false,
      "t": 109476,
      "d": 112,
      "v": 95
    },
    {
      "midi": 35,
      "hit": false,
      "t": 109588,
      "d": 0,
      "v": 110
    },
    {
      "midi": 44,
      "hit": false,
      "t": 109588,
      "d": 112,
      "v": 95
    },
    {
      "midi": 39,
      "hit": false,
      "t": 109588,
      "d": 224,
      "v": 60
    },
    {
      "midi": 67,
      "hit": false,
      "t": 109588,
      "d": 224,
      "v": 100
    },
    {
      "midi": 35,
      "hit": false,
      "t": 109588,
      "d": 452,
      "v": 100
    },
    {
      "midi": 44,
      "hit": false,
      "t": 109700,
      "d": 112,
      "v": 95
    },
    {
      "midi": 46,
      "hit": false,
      "t": 109812,
      "d": 116,
      "v": 95
    },
    {
      "midi": 39,
      "hit": false,
      "t": 109812,
      "d": 228,
      "v": 60
    },
    {
      "midi": 70,
      "hit": false,
      "t": 109812,
      "d": 228,
      "v": 100
    },
    {
      "midi": 44,
      "hit": false,
      "t": 109928,
      "d": 112,
      "v": 95
    },
    {
      "midi": 35,
      "hit": false,
      "t": 110040,
      "d": 0,
      "v": 110
    },
    {
      "midi": 44,
      "hit": false,
      "t": 110040,
      "d": 112,
      "v": 95
    },
    {
      "midi": 41,
      "hit": false,
      "t": 110040,
      "d": 224,
      "v": 60
    },
    {
      "midi": 70,
      "hit": false,
      "t": 110040,
      "d": 336,
      "v": 100
    },
    {
      "midi": 35,
      "hit": false,
      "t": 110040,
      "d": 452,
      "v": 100
    },
    {
      "midi": 65,
      "hit": false,
      "t": 110040,
      "d": 900,
      "v": 58
    },
    {
      "midi": 72,
      "hit": false,
      "t": 110040,
      "d": 900,
      "v": 58
    },
    {
      "midi": 44,
      "hit": false,
      "t": 110152,
      "d": 112,
      "v": 95
    },
    {
      "midi": 46,
      "hit": false,
      "t": 110264,
      "d": 112,
      "v": 95
    },
    {
      "midi": 41,
      "hit": false,
      "t": 110264,
      "d": 228,
      "v": 60
    },
    {
      "midi": 44,
      "hit": false,
      "t": 110376,
      "d": 116,
      "v": 95
    },
    {
      "midi": 69,
      "hit": false,
      "t": 110376,
      "d": 564,
      "v": 100
    },
    {
      "midi": 35,
      "hit": false,
      "t": 110492,
      "d": 0,
      "v": 110
    },
    {
      "midi": 44,
      "hit": false,
      "t": 110492,
      "d": 112,
      "v": 95
    },
    {
      "midi": 41,
      "hit": false,
      "t": 110492,
      "d": 224,
      "v": 60
    },
    {
      "midi": 35,
      "hit": false,
      "t": 110492,
      "d": 448,
      "v": 100
    },
    {
      "midi": 44,
      "hit": false,
      "t": 110604,
      "d": 112,
      "v": 95
    },
    {
      "midi": 46,
      "hit": false,
      "t": 110716,
      "d": 112,
      "v": 95
    },
    {
      "midi": 41,
      "hit": false,
      "t": 110716,
      "d": 224,
      "v": 60
    },
    {
      "midi": 44,
      "hit": false,
      "t": 110828,
      "d": 112,
      "v": 95
    },
    {
      "midi": 35,
      "hit": false,
      "t": 110940,
      "d": 0,
      "v": 110
    },
    {
      "midi": 44,
      "hit": false,
      "t": 110940,
      "d": 116,
      "v": 95
    },
    {
      "midi": 42,
      "hit": false,
      "t": 110940,
      "d": 228,
      "v": 60
    },
    {
      "midi": 69,
      "hit": false,
      "t": 110940,
      "d": 228,
      "v": 58
    },
    {
      "midi": 35,
      "hit": false,
      "t": 110940,
      "d": 452,
      "v": 100
    },
    {
      "midi": 62,
      "hit": false,
      "t": 110940,
      "d": 904,
      "v": 58
    },
    {
      "midi": 44,
      "hit": false,
      "t": 111056,
      "d": 112,
      "v": 95
    },
    {
      "midi": 46,
      "hit": false,
      "t": 111168,
      "d": 112,
      "v": 95
    },
    {
      "midi": 42,
      "hit": false,
      "t": 111168,
      "d": 224,
      "v": 60
    },
    {
      "midi": 66,
      "hit": false,
      "t": 111168,
      "d": 224,
      "v": 100
    },
    {
      "midi": 44,
      "hit": false,
      "t": 111280,
      "d": 112,
      "v": 95
    },
    {
      "midi": 35,
      "hit": false,
      "t": 111392,
      "d": 0,
      "v": 110
    },
    {
      "midi": 44,
      "hit": false,
      "t": 111392,
      "d": 112,
      "v": 95
    },
    {
      "midi": 42,
      "hit": false,
      "t": 111392,
      "d": 224,
      "v": 60
    },
    {
      "midi": 69,
      "hit": false,
      "t": 111392,
      "d": 224,
      "v": 100
    },
    {
      "midi": 35,
      "hit": false,
      "t": 111392,
      "d": 452,
      "v": 100
    },
    {
      "midi": 44,
      "hit": false,
      "t": 111504,
      "d": 112,
      "v": 95
    },
    {
      "midi": 46,
      "hit": false,
      "t": 111616,
      "d": 116,
      "v": 95
    },
    {
      "midi": 42,
      "hit": false,
      "t": 111616,
      "d": 228,
      "v": 60
    },
    {
      "midi": 72,
      "hit": false,
      "t": 111616,
      "d": 228,
      "v": 100
    },
    {
      "midi": 44,
      "hit": false,
      "t": 111732,
      "d": 112,
      "v": 95
    },
    {
      "midi": 35,
      "hit": false,
      "t": 111844,
      "d": 0,
      "v": 110
    },
    {
      "midi": 37,
      "hit": false,
      "t": 111844,
      "d": 112,
      "v": 100
    },
    {
      "midi": 44,
      "hit": false,
      "t": 111844,
      "d": 112,
      "v": 95
    },
    {
      "midi": 43,
      "hit": false,
      "t": 111844,
      "d": 224,
      "v": 60
    },
    {
      "midi": 72,
      "hit": false,
      "t": 111844,
      "d": 336,
      "v": 100
    },
    {
      "midi": 35,
      "hit": false,
      "t": 111844,
      "d": 452,
      "v": 100
    },
    {
      "midi": 67,
      "hit": false,
      "t": 111844,
      "d": 900,
      "v": 58
    },
    {
      "midi": 74,
      "hit": false,
      "t": 111844,
      "d": 900,
      "v": 58
    },
    {
      "midi": 44,
      "hit": false,
      "t": 111956,
      "d": 112,
      "v": 95
    },
    {
      "midi": 37,
      "hit": false,
      "t": 111956,
      "d": 224,
      "v": 100
    },
    {
      "midi": 46,
      "hit": false,
      "t": 112068,
      "d": 112,
      "v": 95
    },
    {
      "midi": 43,
      "hit": false,
      "t": 112068,
      "d": 228,
      "v": 60
    },
    {
      "midi": 44,
      "hit": false,
      "t": 112180,
      "d": 116,
      "v": 95
    },
    {
      "midi": 37,
      "hit": false,
      "t": 112180,
      "d": 228,
      "v": 100
    },
    {
      "midi": 70,
      "hit": false,
      "t": 112180,
      "d": 340,
      "v": 100
    },
    {
      "midi": 35,
      "hit": false,
      "t": 112296,
      "d": 0,
      "v": 110
    },
    {
      "midi": 44,
      "hit": false,
      "t": 112296,
      "d": 112,
      "v": 95
    },
    {
      "midi": 43,
      "hit": false,
      "t": 112296,
      "d": 224,
      "v": 60
    },
    {
      "midi": 35,
      "hit": false,
      "t": 112296,
      "d": 448,
      "v": 100
    },
    {
      "midi": 37,
      "hit": false,
      "t": 112408,
      "d": 112,
      "v": 100
    },
    {
      "midi": 44,
      "hit": false,
      "t": 112408,
      "d": 112,
      "v": 95
    },
    {
      "midi": 37,
      "hit": false,
      "t": 112520,
      "d": 112,
      "v": 100
    },
    {
      "midi": 46,
      "hit": false,
      "t": 112520,
      "d": 112,
      "v": 95
    },
    {
      "midi": 43,
      "hit": false,
      "t": 112520,
      "d": 224,
      "v": 60
    },
    {
      "midi": 69,
      "hit": false,
      "t": 112520,
      "d": 224,
      "v": 100
    },
    {
      "midi": 37,
      "hit": false,
      "t": 112632,
      "d": 112,
      "v": 100
    },
    {
      "midi": 44,
      "hit": false,
      "t": 112632,
      "d": 112,
      "v": 95
    },
    {
      "midi": 35,
      "hit": false,
      "t": 112744,
      "d": 0,
      "v": 110
    },
    {
      "midi": 44,
      "hit": false,
      "t": 112744,
      "d": 116,
      "v": 95
    },
    {
      "midi": 36,
      "hit": false,
      "t": 112744,
      "d": 228,
      "v": 60
    },
    {
      "midi": 35,
      "hit": false,
      "t": 112744,
      "d": 452,
      "v": 100
    },
    {
      "midi": 70,
      "hit": false,
      "t": 112744,
      "d": 1128,
      "v": 100
    },
    {
      "midi": 63,
      "hit": false,
      "t": 112744,
      "d": 1808,
      "v": 58
    },
    {
      "midi": 44,
      "hit": false,
      "t": 112860,
      "d": 112,
      "v": 95
    },
    {
      "midi": 46,
      "hit": false,
      "t": 112972,
      "d": 112,
      "v": 95
    },
    {
      "midi": 36,
      "hit": false,
      "t": 112972,
      "d": 224,
      "v": 60
    },
    {
      "midi": 44,
      "hit": false,
      "t": 113084,
      "d": 112,
      "v": 95
    },
    {
      "midi": 35,
      "hit": false,
      "t": 113196,
      "d": 0,
      "v": 110
    },
    {
      "midi": 44,
      "hit": false,
      "t": 113196,
      "d": 112,
      "v": 95
    },
    {
      "midi": 36,
      "hit": false,
      "t": 113196,
      "d": 228,
      "v": 60
    },
    {
      "midi": 35,
      "hit": false,
      "t": 113196,
      "d": 452,
      "v": 100
    },
    {
      "midi": 44,
      "hit": false,
      "t": 113308,
      "d": 116,
      "v": 95
    },
    {
      "midi": 46,
      "hit": false,
      "t": 113424,
      "d": 112,
      "v": 95
    },
    {
      "midi": 36,
      "hit": false,
      "t": 113424,
      "d": 224,
      "v": 60
    },
    {
      "midi": 44,
      "hit": false,
      "t": 113536,
      "d": 112,
      "v": 95
    },
    {
      "midi": 35,
      "hit": false,
      "t": 113648,
      "d": 0,
      "v": 110
    },
    {
      "midi": 44,
      "hit": false,
      "t": 113648,
      "d": 112,
      "v": 95
    },
    {
      "midi": 36,
      "hit": false,
      "t": 113648,
      "d": 224,
      "v": 60
    },
    {
      "midi": 35,
      "hit": false,
      "t": 113648,
      "d": 452,
      "v": 100
    },
    {
      "midi": 44,
      "hit": false,
      "t": 113760,
      "d": 112,
      "v": 95
    },
    {
      "midi": 46,
      "hit": false,
      "t": 113872,
      "d": 116,
      "v": 95
    },
    {
      "midi": 36,
      "hit": false,
      "t": 113872,
      "d": 228,
      "v": 60
    },
    {
      "midi": 67,
      "hit": false,
      "t": 113872,
      "d": 228,
      "v": 100
    },
    {
      "midi": 44,
      "hit": false,
      "t": 113988,
      "d": 112,
      "v": 95
    },
    {
      "midi": 35,
      "hit": false,
      "t": 114100,
      "d": 0,
      "v": 110
    },
    {
      "midi": 44,
      "hit": false,
      "t": 114100,
      "d": 112,
      "v": 95
    },
    {
      "midi": 36,
      "hit": false,
      "t": 114100,
      "d": 224,
      "v": 60
    },
    {
      "midi": 70,
      "hit": false,
      "t": 114100,
      "d": 224,
      "v": 100
    },
    {
      "midi": 35,
      "hit": false,
      "t": 114100,
      "d": 452,
      "v": 100
    },
    {
      "midi": 44,
      "hit": false,
      "t": 114212,
      "d": 112,
      "v": 95
    },
    {
      "midi": 72,
      "hit": false,
      "t": 114324,
      "d": 112,
      "v": 100
    },
    {
      "midi": 46,
      "hit": false,
      "t": 114324,
      "d": 112,
      "v": 95
    },
    {
      "midi": 36,
      "hit": false,
      "t": 114324,
      "d": 228,
      "v": 60
    },
    {
      "midi": 72,
      "hit": false,
      "t": 114436,
      "d": 116,
      "v": 100
    },
    {
      "midi": 44,
      "hit": false,
      "t": 114436,
      "d": 116,
      "v": 95
    },
    {
      "midi": 35,
      "hit": false,
      "t": 114552,
      "d": 0,
      "v": 110
    },
    {
      "midi": 44,
      "hit": false,
      "t": 114552,
      "d": 112,
      "v": 95
    },
    {
      "midi": 38,
      "hit": false,
      "t": 114552,
      "d": 224,
      "v": 60
    },
    {
      "midi": 35,
      "hit": false,
      "t": 114552,
      "d": 448,
      "v": 100
    },
    {
      "midi": 62,
      "hit": false,
      "t": 114552,
      "d": 900,
      "v": 58
    },
    {
      "midi": 67,
      "hit": false,
      "t": 114552,
      "d": 900,
      "v": 58
    },
    {
      "midi": 69,
      "hit": false,
      "t": 114552,
      "d": 900,
      "v": 100
    },
    {
      "midi": 44,
      "hit": false,
      "t": 114664,
      "d": 112,
      "v": 95
    },
    {
      "midi": 46,
      "hit": false,
      "t": 114776,
      "d": 112,
      "v": 95
    },
    {
      "midi": 38,
      "hit": false,
      "t": 114776,
      "d": 224,
      "v": 60
    },
    {
      "midi": 44,
      "hit": false,
      "t": 114888,
      "d": 112,
      "v": 95
    },
    {
      "midi": 35,
      "hit": false,
      "t": 115000,
      "d": 0,
      "v": 110
    },
    {
      "midi": 44,
      "hit": false,
      "t": 115000,
      "d": 116,
      "v": 95
    },
    {
      "midi": 38,
      "hit": false,
      "t": 115000,
      "d": 228,
      "v": 60
    },
    {
      "midi": 35,
      "hit": false,
      "t": 115000,
      "d": 452,
      "v": 100
    },
    {
      "midi": 44,
      "hit": false,
      "t": 115116,
      "d": 112,
      "v": 95
    },
    {
      "midi": 46,
      "hit": false,
      "t": 115228,
      "d": 112,
      "v": 95
    },
    {
      "midi": 38,
      "hit": false,
      "t": 115228,
      "d": 224,
      "v": 60
    },
    {
      "midi": 44,
      "hit": false,
      "t": 115340,
      "d": 112,
      "v": 95
    },
    {
      "midi": 35,
      "hit": false,
      "t": 115452,
      "d": 0,
      "v": 110
    },
    {
      "midi": 37,
      "hit": false,
      "t": 115452,
      "d": 112,
      "v": 100
    },
    {
      "midi": 44,
      "hit": false,
      "t": 115452,
      "d": 112,
      "v": 95
    },
    {
      "midi": 38,
      "hit": false,
      "t": 115452,
      "d": 228,
      "v": 60
    },
    {
      "midi": 35,
      "hit": false,
      "t": 115452,
      "d": 452,
      "v": 100
    },
    {
      "midi": 69,
      "hit": false,
      "t": 115452,
      "d": 676,
      "v": 58
    },
    {
      "midi": 62,
      "hit": false,
      "t": 115452,
      "d": 904,
      "v": 58
    },
    {
      "midi": 66,
      "hit": false,
      "t": 115452,
      "d": 904,
      "v": 58
    },
    {
      "midi": 44,
      "hit": false,
      "t": 115564,
      "d": 116,
      "v": 95
    },
    {
      "midi": 37,
      "hit": false,
      "t": 115564,
      "d": 228,
      "v": 100
    },
    {
      "midi": 46,
      "hit": false,
      "t": 115680,
      "d": 112,
      "v": 95
    },
    {
      "midi": 38,
      "hit": false,
      "t": 115680,
      "d": 224,
      "v": 60
    },
    {
      "midi": 44,
      "hit": false,
      "t": 115792,
      "d": 112,
      "v": 95
    },
    {
      "midi": 37,
      "hit": false,
      "t": 115792,
      "d": 224,
      "v": 100
    },
    {
      "midi": 35,
      "hit": false,
      "t": 115904,
      "d": 0,
      "v": 110
    },
    {
      "midi": 44,
      "hit": false,
      "t": 115904,
      "d": 112,
      "v": 95
    },
    {
      "midi": 38,
      "hit": false,
      "t": 115904,
      "d": 224,
      "v": 60
    },
    {
      "midi": 35,
      "hit": false,
      "t": 115904,
      "d": 452,
      "v": 100
    },
    {
      "midi": 37,
      "hit": false,
      "t": 116016,
      "d": 112,
      "v": 100
    },
    {
      "midi": 44,
      "hit": false,
      "t": 116016,
      "d": 112,
      "v": 95
    },
    {
      "midi": 37,
      "hit": false,
      "t": 116128,
      "d": 116,
      "v": 100
    },
    {
      "midi": 46,
      "hit": false,
      "t": 116128,
      "d": 116,
      "v": 95
    },
    {
      "midi": 38,
      "hit": false,
      "t": 116128,
      "d": 228,
      "v": 60
    },
    {
      "midi": 37,
      "hit": false,
      "t": 116244,
      "d": 112,
      "v": 100
    },
    {
      "midi": 44,
      "hit": false,
      "t": 116244,
      "d": 112,
      "v": 95
    },
    {
      "midi": 35,
      "hit": false,
      "t": 116356,
      "d": 0,
      "v": 110
    },
    {
      "midi": 44,
      "hit": false,
      "t": 116356,
      "d": 112,
      "v": 95
    },
    {
      "midi": 43,
      "hit": false,
      "t": 116356,
      "d": 224,
      "v": 90
    },
    {
      "midi": 70,
      "hit": false,
      "t": 116356,
      "d": 224,
      "v": 100
    },
    {
      "midi": 35,
      "hit": false,
      "t": 116356,
      "d": 448,
      "v": 100
    },
    {
      "midi": 74,
      "hit": false,
      "t": 116356,
      "d": 1804,
      "v": 58
    },
    {
      "midi": 44,
      "hit": false,
      "t": 116468,
      "d": 112,
      "v": 95
    },
    {
      "midi": 46,
      "hit": false,
      "t": 116580,
      "d": 112,
      "v": 95
    },
    {
      "midi": 43,
      "hit": false,
      "t": 116580,
      "d": 224,
      "v": 90
    },
    {
      "midi": 70,
      "hit": false,
      "t": 116580,
      "d": 224,
      "v": 100
    },
    {
      "midi": 44,
      "hit": false,
      "t": 116692,
      "d": 112,
      "v": 95
    },
    {
      "midi": 35,
      "hit": false,
      "t": 116804,
      "d": 0,
      "v": 110
    },
    {
      "midi": 44,
      "hit": false,
      "t": 116804,
      "d": 116,
      "v": 95
    },
    {
      "midi": 43,
      "hit": false,
      "t": 116804,
      "d": 228,
      "v": 90
    },
    {
      "midi": 70,
      "hit": false,
      "t": 116804,
      "d": 228,
      "v": 100
    },
    {
      "midi": 35,
      "hit": false,
      "t": 116804,
      "d": 452,
      "v": 100
    },
    {
      "midi": 44,
      "hit": false,
      "t": 116920,
      "d": 112,
      "v": 95
    },
    {
      "midi": 46,
      "hit": false,
      "t": 117032,
      "d": 112,
      "v": 95
    },
    {
      "midi": 43,
      "hit": false,
      "t": 117032,
      "d": 224,
      "v": 90
    },
    {
      "midi": 70,
      "hit": false,
      "t": 117032,
      "d": 224,
      "v": 100
    },
    {
      "midi": 44,
      "hit": false,
      "t": 117144,
      "d": 112,
      "v": 95
    },
    {
      "midi": 35,
      "hit": false,
      "t": 117256,
      "d": 0,
      "v": 110
    },
    {
      "midi": 44,
      "hit": false,
      "t": 117256,
      "d": 112,
      "v": 95
    },
    {
      "midi": 43,
      "hit": false,
      "t": 117256,
      "d": 228,
      "v": 90
    },
    {
      "midi": 70,
      "hit": false,
      "t": 117256,
      "d": 228,
      "v": 100
    },
    {
      "midi": 35,
      "hit": false,
      "t": 117256,
      "d": 452,
      "v": 100
    },
    {
      "midi": 44,
      "hit": false,
      "t": 117368,
      "d": 116,
      "v": 95
    },
    {
      "midi": 72,
      "hit": false,
      "t": 117484,
      "d": 112,
      "v": 100
    },
    {
      "midi": 46,
      "hit": false,
      "t": 117484,
      "d": 112,
      "v": 95
    },
    {
      "midi": 43,
      "hit": false,
      "t": 117484,
      "d": 224,
      "v": 90
    },
    {
      "midi": 44,
      "hit": false,
      "t": 117596,
      "d": 112,
      "v": 95
    },
    {
      "midi": 67,
      "hit": false,
      "t": 117596,
      "d": 336,
      "v": 100
    },
    {
      "midi": 35,
      "hit": false,
      "t": 117708,
      "d": 0,
      "v": 110
    },
    {
      "midi": 44,
      "hit": false,
      "t": 117708,
      "d": 112,
      "v": 95
    },
    {
      "midi": 43,
      "hit": false,
      "t": 117708,
      "d": 224,
      "v": 90
    },
    {
      "midi": 35,
      "hit": false,
      "t": 117708,
      "d": 452,
      "v": 100
    },
    {
      "midi": 44,
      "hit": false,
      "t": 117820,
      "d": 112,
      "v": 95
    },
    {
      "midi": 46,
      "hit": false,
      "t": 117932,
      "d": 116,
      "v": 95
    },
    {
      "midi": 43,
      "hit": false,
      "t": 117932,
      "d": 228,
      "v": 90
    },
    {
      "midi": 70,
      "hit": false,
      "t": 117932,
      "d": 228,
      "v": 100
    },
    {
      "midi": 44,
      "hit": false,
      "t": 118048,
      "d": 112,
      "v": 95
    },
    {
      "midi": 35,
      "hit": false,
      "t": 118160,
      "d": 0,
      "v": 110
    },
    {
      "midi": 44,
      "hit": false,
      "t": 118160,
      "d": 112,
      "v": 95
    },
    {
      "midi": 39,
      "hit": false,
      "t": 118160,
      "d": 224,
      "v": 90
    },
    {
      "midi": 35,
      "hit": false,
      "t": 118160,
      "d": 452,
      "v": 100
    },
    {
      "midi": 75,
      "hit": false,
      "t": 118160,
      "d": 1804,
      "v": 58
    },
    {
      "midi": 79,
      "hit": false,
      "t": 118160,
      "d": 1804,
      "v": 58
    },
    {
      "midi": 82,
      "hit": false,
      "t": 118160,
      "d": 1804,
      "v": 58
    },
    {
      "midi": 44,
      "hit": false,
      "t": 118272,
      "d": 112,
      "v": 95
    },
    {
      "midi": 70,
      "hit": false,
      "t": 118272,
      "d": 340,
      "v": 100
    },
    {
      "midi": 46,
      "hit": false,
      "t": 118384,
      "d": 112,
      "v": 95
    },
    {
      "midi": 39,
      "hit": false,
      "t": 118384,
      "d": 228,
      "v": 90
    },
    {
      "midi": 44,
      "hit": false,
      "t": 118496,
      "d": 116,
      "v": 95
    },
    {
      "midi": 35,
      "hit": false,
      "t": 118612,
      "d": 0,
      "v": 110
    },
    {
      "midi": 44,
      "hit": false,
      "t": 118612,
      "d": 112,
      "v": 95
    },
    {
      "midi": 39,
      "hit": false,
      "t": 118612,
      "d": 224,
      "v": 90
    },
    {
      "midi": 70,
      "hit": false,
      "t": 118612,
      "d": 224,
      "v": 100
    },
    {
      "midi": 35,
      "hit": false,
      "t": 118612,
      "d": 448,
      "v": 100
    },
    {
      "midi": 44,
      "hit": false,
      "t": 118724,
      "d": 112,
      "v": 95
    },
    {
      "midi": 46,
      "hit": false,
      "t": 118836,
      "d": 112,
      "v": 95
    },
    {
      "midi": 39,
      "hit": false,
      "t": 118836,
      "d": 224,
      "v": 90
    },
    {
      "midi": 70,
      "hit": false,
      "t": 118836,
      "d": 224,
      "v": 100
    },
    {
      "midi": 44,
      "hit": false,
      "t": 118948,
      "d": 112,
      "v": 95
    },
    {
      "midi": 35,
      "hit": false,
      "t": 119060,
      "d": 0,
      "v": 110
    },
    {
      "midi": 37,
      "hit": false,
      "t": 119060,
      "d": 116,
      "v": 100
    },
    {
      "midi": 44,
      "hit": false,
      "t": 119060,
      "d": 116,
      "v": 95
    },
    {
      "midi": 39,
      "hit": false,
      "t": 119060,
      "d": 228,
      "v": 90
    },
    {
      "midi": 70,
      "hit": false,
      "t": 119060,
      "d": 228,
      "v": 100
    },
    {
      "midi": 35,
      "hit": false,
      "t": 119060,
      "d": 452,
      "v": 100
    },
    {
      "midi": 44,
      "hit": false,
      "t": 119176,
      "d": 112,
      "v": 95
    },
    {
      "midi": 37,
      "hit": false,
      "t": 119176,
      "d": 224,
      "v": 100
    },
    {
      "midi": 72,
      "hit": false,
      "t": 119288,
      "d": 112,
      "v": 100
    },
    {
      "midi": 46,
      "hit": false,
      "t": 119288,
      "d": 112,
      "v": 95
    },
    {
      "midi": 39,
      "hit": false,
      "t": 119288,
      "d": 224,
      "v": 90
    },
    {
      "midi": 44,
      "hit": false,
      "t": 119400,
      "d": 112,
      "v": 95
    },
    {
      "midi": 37,
      "hit": false,
      "t": 119400,
      "d": 224,
      "v": 100
    },
    {
      "midi": 67,
      "hit": false,
      "t": 119400,
      "d": 452,
      "v": 100
    },
    {
      "midi": 35,
      "hit": false,
      "t": 119512,
      "d": 0,
      "v": 110
    },
    {
      "midi": 44,
      "hit": false,
      "t": 119512,
      "d": 112,
      "v": 95
    },
    {
      "midi": 39,
      "hit": false,
      "t": 119512,
      "d": 228,
      "v": 90
    },
    {
      "midi": 35,
      "hit": false,
      "t": 119512,
      "d": 452,
      "v": 100
    },
    {
      "midi": 37,
      "hit": false,
      "t": 119624,
      "d": 116,
      "v": 100
    },
    {
      "midi": 44,
      "hit": false,
      "t": 119624,
      "d": 116,
      "v": 95
    },
    {
      "midi": 37,
      "hit": false,
      "t": 119740,
      "d": 112,
      "v": 100
    },
    {
      "midi": 46,
      "hit": false,
      "t": 119740,
      "d": 112,
      "v": 95
    },
    {
      "midi": 39,
      "hit": false,
      "t": 119740,
      "d": 224,
      "v": 90
    },
    {
      "midi": 37,
      "hit": false,
      "t": 119852,
      "d": 112,
      "v": 100
    },
    {
      "midi": 44,
      "hit": false,
      "t": 119852,
      "d": 112,
      "v": 95
    },
    {
      "midi": 35,
      "hit": false,
      "t": 119964,
      "d": 0,
      "v": 110
    },
    {
      "midi": 44,
      "hit": false,
      "t": 119964,
      "d": 112,
      "v": 95
    },
    {
      "midi": 41,
      "hit": false,
      "t": 119964,
      "d": 224,
      "v": 90
    },
    {
      "midi": 35,
      "hit": false,
      "t": 119964,
      "d": 452,
      "v": 100
    },
    {
      "midi": 65,
      "hit": false,
      "t": 119964,
      "d": 1804,
      "v": 58
    },
    {
      "midi": 44,
      "hit": false,
      "t": 120076,
      "d": 112,
      "v": 95
    },
    {
      "midi": 46,
      "hit": false,
      "t": 120188,
      "d": 116,
      "v": 95
    },
    {
      "midi": 41,
      "hit": false,
      "t": 120188,
      "d": 228,
      "v": 90
    },
    {
      "midi": 69,
      "hit": false,
      "t": 120188,
      "d": 228,
      "v": 100
    },
    {
      "midi": 44,
      "hit": false,
      "t": 120304,
      "d": 112,
      "v": 95
    },
    {
      "midi": 35,
      "hit": false,
      "t": 120416,
      "d": 0,
      "v": 110
    },
    {
      "midi": 44,
      "hit": false,
      "t": 120416,
      "d": 112,
      "v": 95
    },
    {
      "midi": 41,
      "hit": false,
      "t": 120416,
      "d": 224,
      "v": 90
    },
    {
      "midi": 69,
      "hit": false,
      "t": 120416,
      "d": 224,
      "v": 100
    },
    {
      "midi": 35,
      "hit": false,
      "t": 120416,
      "d": 452,
      "v": 100
    },
    {
      "midi": 44,
      "hit": false,
      "t": 120528,
      "d": 112,
      "v": 95
    },
    {
      "midi": 46,
      "hit": false,
      "t": 120640,
      "d": 112,
      "v": 95
    },
    {
      "midi": 41,
      "hit": false,
      "t": 120640,
      "d": 228,
      "v": 90
    },
    {
      "midi": 70,
      "hit": false,
      "t": 120640,
      "d": 228,
      "v": 100
    },
    {
      "midi": 44,
      "hit": false,
      "t": 120752,
      "d": 116,
      "v": 95
    },
    {
      "midi": 35,
      "hit": false,
      "t": 120868,
      "d": 0,
      "v": 110
    },
    {
      "midi": 44,
      "hit": false,
      "t": 120868,
      "d": 112,
      "v": 95
    },
    {
      "midi": 41,
      "hit": false,
      "t": 120868,
      "d": 224,
      "v": 90
    },
    {
      "midi": 72,
      "hit": false,
      "t": 120868,
      "d": 336,
      "v": 100
    },
    {
      "midi": 35,
      "hit": false,
      "t": 120868,
      "d": 448,
      "v": 100
    },
    {
      "midi": 44,
      "hit": false,
      "t": 120980,
      "d": 112,
      "v": 95
    },
    {
      "midi": 46,
      "hit": false,
      "t": 121092,
      "d": 112,
      "v": 95
    },
    {
      "midi": 41,
      "hit": false,
      "t": 121092,
      "d": 224,
      "v": 90
    },
    {
      "midi": 44,
      "hit": false,
      "t": 121204,
      "d": 112,
      "v": 95
    },
    {
      "midi": 69,
      "hit": false,
      "t": 121204,
      "d": 340,
      "v": 100
    },
    {
      "midi": 35,
      "hit": false,
      "t": 121316,
      "d": 0,
      "v": 110
    },
    {
      "midi": 44,
      "hit": false,
      "t": 121316,
      "d": 116,
      "v": 95
    },
    {
      "midi": 45,
      "hit": false,
      "t": 121316,
      "d": 452,
      "v": 90
    },
    {
      "midi": 35,
      "hit": false,
      "t": 121316,
      "d": 452,
      "v": 100
    },
    {
      "midi": 44,
      "hit": false,
      "t": 121432,
      "d": 112,
      "v": 95
    },
    {
      "midi": 46,
      "hit": false,
      "t": 121544,
      "d": 112,
      "v": 95
    },
    {
      "midi": 67,
      "hit": false,
      "t": 121544,
      "d": 224,
      "v": 100
    },
    {
      "midi": 44,
      "hit": false,
      "t": 121656,
      "d": 112,
      "v": 95
    },
    {
      "midi": 35,
      "hit": false,
      "t": 121768,
      "d": 0,
      "v": 110
    },
    {
      "midi": 44,
      "hit": false,
      "t": 121768,
      "d": 112,
      "v": 95
    },
    {
      "midi": 46,
      "hit": false,
      "t": 121768,
      "d": 224,
      "v": 90
    },
    {
      "midi": 67,
      "hit": false,
      "t": 121768,
      "d": 224,
      "v": 100
    },
    {
      "midi": 35,
      "hit": false,
      "t": 121768,
      "d": 452,
      "v": 100
    },
    {
      "midi": 70,
      "hit": false,
      "t": 121768,
      "d": 1804,
      "v": 58
    },
    {
      "midi": 74,
      "hit": false,
      "t": 121768,
      "d": 1804,
      "v": 58
    },
    {
      "midi": 77,
      "hit": false,
      "t": 121768,
      "d": 1804,
      "v": 58
    },
    {
      "midi": 44,
      "hit": false,
      "t": 121880,
      "d": 112,
      "v": 95
    },
    {
      "midi": 69,
      "hit": false,
      "t": 121992,
      "d": 116,
      "v": 100
    },
    {
      "midi": 46,
      "hit": false,
      "t": 121992,
      "d": 116,
      "v": 95
    },
    {
      "midi": 44,
      "hit": false,
      "t": 122108,
      "d": 112,
      "v": 95
    },
    {
      "midi": 65,
      "hit": false,
      "t": 122108,
      "d": 900,
      "v": 100
    },
    {
      "midi": 35,
      "hit": false,
      "t": 122220,
      "d": 0,
      "v": 110
    },
    {
      "midi": 44,
      "hit": false,
      "t": 122220,
      "d": 112,
      "v": 95
    },
    {
      "midi": 46,
      "hit": false,
      "t": 122220,
      "d": 224,
      "v": 90
    },
    {
      "midi": 35,
      "hit": false,
      "t": 122220,
      "d": 452,
      "v": 100
    },
    {
      "midi": 44,
      "hit": false,
      "t": 122332,
      "d": 112,
      "v": 95
    },
    {
      "midi": 46,
      "hit": false,
      "t": 122444,
      "d": 112,
      "v": 95
    },
    {
      "midi": 44,
      "hit": false,
      "t": 122556,
      "d": 116,
      "v": 95
    },
    {
      "midi": 35,
      "hit": false,
      "t": 122672,
      "d": 0,
      "v": 110
    },
    {
      "midi": 37,
      "hit": false,
      "t": 122672,
      "d": 112,
      "v": 100
    },
    {
      "midi": 44,
      "hit": false,
      "t": 122672,
      "d": 112,
      "v": 95
    },
    {
      "midi": 46,
      "hit": false,
      "t": 122672,
      "d": 224,
      "v": 90
    },
    {
      "midi": 35,
      "hit": false,
      "t": 122672,
      "d": 448,
      "v": 100
    },
    {
      "midi": 44,
      "hit": false,
      "t": 122784,
      "d": 112,
      "v": 95
    },
    {
      "midi": 37,
      "hit": false,
      "t": 122784,
      "d": 224,
      "v": 100
    },
    {
      "midi": 46,
      "hit": false,
      "t": 122896,
      "d": 112,
      "v": 95
    },
    {
      "midi": 44,
      "hit": false,
      "t": 123008,
      "d": 112,
      "v": 95
    },
    {
      "midi": 37,
      "hit": false,
      "t": 123008,
      "d": 228,
      "v": 100
    },
    {
      "midi": 35,
      "hit": false,
      "t": 123120,
      "d": 0,
      "v": 110
    },
    {
      "midi": 44,
      "hit": false,
      "t": 123120,
      "d": 116,
      "v": 95
    },
    {
      "midi": 46,
      "hit": false,
      "t": 123120,
      "d": 228,
      "v": 90
    },
    {
      "midi": 35,
      "hit": false,
      "t": 123120,
      "d": 452,
      "v": 100
    },
    {
      "midi": 37,
      "hit": false,
      "t": 123236,
      "d": 112,
      "v": 100
    },
    {
      "midi": 44,
      "hit": false,
      "t": 123236,
      "d": 112,
      "v": 95
    },
    {
      "midi": 37,
      "hit": false,
      "t": 123348,
      "d": 112,
      "v": 100
    },
    {
      "midi": 46,
      "hit": false,
      "t": 123348,
      "d": 112,
      "v": 95
    },
    {
      "midi": 37,
      "hit": false,
      "t": 123460,
      "d": 112,
      "v": 100
    },
    {
      "midi": 44,
      "hit": false,
      "t": 123460,
      "d": 112,
      "v": 95
    },
    {
      "midi": 35,
      "hit": false,
      "t": 123572,
      "d": 0,
      "v": 110
    },
    {
      "midi": 44,
      "hit": false,
      "t": 123572,
      "d": 112,
      "v": 95
    },
    {
      "midi": 39,
      "hit": false,
      "t": 123572,
      "d": 228,
      "v": 90
    },
    {
      "midi": 35,
      "hit": false,
      "t": 123572,
      "d": 452,
      "v": 100
    },
    {
      "midi": 60,
      "hit": false,
      "t": 123572,
      "d": 904,
      "v": 58
    },
    {
      "midi": 63,
      "hit": false,
      "t": 123572,
      "d": 904,
      "v": 58
    },
    {
      "midi": 44,
      "hit": false,
      "t": 123684,
      "d": 116,
      "v": 95
    },
    {
      "midi": 46,
      "hit": false,
      "t": 123800,
      "d": 112,
      "v": 95
    },
    {
      "midi": 39,
      "hit": false,
      "t": 123800,
      "d": 224,
      "v": 90
    },
    {
      "midi": 65,
      "hit": false,
      "t": 123800,
      "d": 224,
      "v": 100
    },
    {
      "midi": 44,
      "hit": false,
      "t": 123912,
      "d": 112,
      "v": 95
    },
    {
      "midi": 35,
      "hit": false,
      "t": 124024,
      "d": 0,
      "v": 110
    },
    {
      "midi": 44,
      "hit": false,
      "t": 124024,
      "d": 112,
      "v": 95
    },
    {
      "midi": 39,
      "hit": false,
      "t": 124024,
      "d": 224,
      "v": 90
    },
    {
      "midi": 67,
      "hit": false,
      "t": 124024,
      "d": 224,
      "v": 100
    },
    {
      "midi": 35,
      "hit": false,
      "t": 124024,
      "d": 452,
      "v": 100
    },
    {
      "midi": 44,
      "hit": false,
      "t": 124136,
      "d": 112,
      "v": 95
    },
    {
      "midi": 46,
      "hit": false,
      "t": 124248,
      "d": 116,
      "v": 95
    },
    {
      "midi": 39,
      "hit": false,
      "t": 124248,
      "d": 228,
      "v": 90
    },
    {
      "midi": 70,
      "hit": false,
      "t": 124248,
      "d": 228,
      "v": 100
    },
    {
      "midi": 44,
      "hit": false,
      "t": 124364,
      "d": 112,
      "v": 95
    },
    {
      "midi": 35,
      "hit": false,
      "t": 124476,
      "d": 0,
      "v": 110
    },
    {
      "midi": 44,
      "hit": false,
      "t": 124476,
      "d": 112,
      "v": 95
    },
    {
      "midi": 41,
      "hit": false,
      "t": 124476,
      "d": 224,
      "v": 90
    },
    {
      "midi": 70,
      "hit": false,
      "t": 124476,
      "d": 336,
      "v": 100
    },
    {
      "midi": 35,
      "hit": false,
      "t": 124476,
      "d": 452,
      "v": 100
    },
    {
      "midi": 65,
      "hit": false,
      "t": 124476,
      "d": 900,
      "v": 58
    },
    {
      "midi": 72,
      "hit": false,
      "t": 124476,
      "d": 900,
      "v": 58
    },
    {
      "midi": 44,
      "hit": false,
      "t": 124588,
      "d": 112,
      "v": 95
    },
    {
      "midi": 46,
      "hit": false,
      "t": 124700,
      "d": 112,
      "v": 95
    },
    {
      "midi": 41,
      "hit": false,
      "t": 124700,
      "d": 228,
      "v": 90
    },
    {
      "midi": 44,
      "hit": false,
      "t": 124812,
      "d": 116,
      "v": 95
    },
    {
      "midi": 69,
      "hit": false,
      "t": 124812,
      "d": 564,
      "v": 100
    },
    {
      "midi": 35,
      "hit": false,
      "t": 124928,
      "d": 0,
      "v": 110
    },
    {
      "midi": 44,
      "hit": false,
      "t": 124928,
      "d": 112,
      "v": 95
    },
    {
      "midi": 41,
      "hit": false,
      "t": 124928,
      "d": 224,
      "v": 90
    },
    {
      "midi": 35,
      "hit": false,
      "t": 124928,
      "d": 448,
      "v": 100
    },
    {
      "midi": 44,
      "hit": false,
      "t": 125040,
      "d": 112,
      "v": 95
    },
    {
      "midi": 46,
      "hit": false,
      "t": 125152,
      "d": 112,
      "v": 95
    },
    {
      "midi": 41,
      "hit": false,
      "t": 125152,
      "d": 224,
      "v": 90
    },
    {
      "midi": 44,
      "hit": false,
      "t": 125264,
      "d": 112,
      "v": 95
    },
    {
      "midi": 35,
      "hit": false,
      "t": 125376,
      "d": 0,
      "v": 110
    },
    {
      "midi": 44,
      "hit": false,
      "t": 125376,
      "d": 116,
      "v": 95
    },
    {
      "midi": 42,
      "hit": false,
      "t": 125376,
      "d": 228,
      "v": 90
    },
    {
      "midi": 69,
      "hit": false,
      "t": 125376,
      "d": 228,
      "v": 58
    },
    {
      "midi": 35,
      "hit": false,
      "t": 125376,
      "d": 452,
      "v": 100
    },
    {
      "midi": 62,
      "hit": false,
      "t": 125376,
      "d": 904,
      "v": 58
    },
    {
      "midi": 44,
      "hit": false,
      "t": 125492,
      "d": 112,
      "v": 95
    },
    {
      "midi": 46,
      "hit": false,
      "t": 125604,
      "d": 112,
      "v": 95
    },
    {
      "midi": 42,
      "hit": false,
      "t": 125604,
      "d": 224,
      "v": 90
    },
    {
      "midi": 66,
      "hit": false,
      "t": 125604,
      "d": 224,
      "v": 100
    },
    {
      "midi": 44,
      "hit": false,
      "t": 125716,
      "d": 112,
      "v": 95
    },
    {
      "midi": 35,
      "hit": false,
      "t": 125828,
      "d": 0,
      "v": 110
    },
    {
      "midi": 44,
      "hit": false,
      "t": 125828,
      "d": 112,
      "v": 95
    },
    {
      "midi": 42,
      "hit": false,
      "t": 125828,
      "d": 228,
      "v": 90
    },
    {
      "midi": 69,
      "hit": false,
      "t": 125828,
      "d": 228,
      "v": 100
    },
    {
      "midi": 35,
      "hit": false,
      "t": 125828,
      "d": 452,
      "v": 100
    },
    {
      "midi": 44,
      "hit": false,
      "t": 125940,
      "d": 116,
      "v": 95
    },
    {
      "midi": 46,
      "hit": false,
      "t": 126056,
      "d": 112,
      "v": 95
    },
    {
      "midi": 42,
      "hit": false,
      "t": 126056,
      "d": 224,
      "v": 90
    },
    {
      "midi": 72,
      "hit": false,
      "t": 126056,
      "d": 224,
      "v": 100
    },
    {
      "midi": 44,
      "hit": false,
      "t": 126168,
      "d": 112,
      "v": 95
    },
    {
      "midi": 35,
      "hit": false,
      "t": 126280,
      "d": 0,
      "v": 110
    },
    {
      "midi": 37,
      "hit": false,
      "t": 126280,
      "d": 112,
      "v": 100
    },
    {
      "midi": 44,
      "hit": false,
      "t": 126280,
      "d": 112,
      "v": 95
    },
    {
      "midi": 43,
      "hit": false,
      "t": 126280,
      "d": 224,
      "v": 90
    },
    {
      "midi": 72,
      "hit": false,
      "t": 126280,
      "d": 336,
      "v": 100
    },
    {
      "midi": 35,
      "hit": false,
      "t": 126280,
      "d": 452,
      "v": 100
    },
    {
      "midi": 67,
      "hit": false,
      "t": 126280,
      "d": 900,
      "v": 58
    },
    {
      "midi": 74,
      "hit": false,
      "t": 126280,
      "d": 900,
      "v": 58
    },
    {
      "midi": 44,
      "hit": false,
      "t": 126392,
      "d": 112,
      "v": 95
    },
    {
      "midi": 37,
      "hit": false,
      "t": 126392,
      "d": 224,
      "v": 100
    },
    {
      "midi": 46,
      "hit": false,
      "t": 126504,
      "d": 112,
      "v": 95
    },
    {
      "midi": 43,
      "hit": false,
      "t": 126504,
      "d": 228,
      "v": 90
    },
    {
      "midi": 44,
      "hit": false,
      "t": 126616,
      "d": 116,
      "v": 95
    },
    {
      "midi": 37,
      "hit": false,
      "t": 126616,
      "d": 228,
      "v": 100
    },
    {
      "midi": 70,
      "hit": false,
      "t": 126616,
      "d": 340,
      "v": 100
    },
    {
      "midi": 35,
      "hit": false,
      "t": 126732,
      "d": 0,
      "v": 110
    },
    {
      "midi": 44,
      "hit": false,
      "t": 126732,
      "d": 112,
      "v": 95
    },
    {
      "midi": 43,
      "hit": false,
      "t": 126732,
      "d": 224,
      "v": 90
    },
    {
      "midi": 35,
      "hit": false,
      "t": 126732,
      "d": 448,
      "v": 100
    },
    {
      "midi": 37,
      "hit": false,
      "t": 126844,
      "d": 112,
      "v": 100
    },
    {
      "midi": 44,
      "hit": false,
      "t": 126844,
      "d": 112,
      "v": 95
    },
    {
      "midi": 37,
      "hit": false,
      "t": 126956,
      "d": 112,
      "v": 100
    },
    {
      "midi": 46,
      "hit": false,
      "t": 126956,
      "d": 112,
      "v": 95
    },
    {
      "midi": 43,
      "hit": false,
      "t": 126956,
      "d": 224,
      "v": 90
    },
    {
      "midi": 72,
      "hit": false,
      "t": 126956,
      "d": 224,
      "v": 100
    },
    {
      "midi": 37,
      "hit": false,
      "t": 127068,
      "d": 112,
      "v": 100
    },
    {
      "midi": 44,
      "hit": false,
      "t": 127068,
      "d": 112,
      "v": 95
    },
    {
      "midi": 35,
      "hit": false,
      "t": 127180,
      "d": 0,
      "v": 110
    },
    {
      "midi": 44,
      "hit": false,
      "t": 127180,
      "d": 116,
      "v": 95
    },
    {
      "midi": 39,
      "hit": false,
      "t": 127180,
      "d": 228,
      "v": 90
    },
    {
      "midi": 35,
      "hit": false,
      "t": 127180,
      "d": 452,
      "v": 100
    },
    {
      "midi": 74,
      "hit": false,
      "t": 127180,
      "d": 1128,
      "v": 100
    },
    {
      "midi": 62,
      "hit": false,
      "t": 127180,
      "d": 1808,
      "v": 58
    },
    {
      "midi": 65,
      "hit": false,
      "t": 127180,
      "d": 1808,
      "v": 58
    },
    {
      "midi": 67,
      "hit": false,
      "t": 127180,
      "d": 1808,
      "v": 58
    },
    {
      "midi": 70,
      "hit": false,
      "t": 127180,
      "d": 1808,
      "v": 58
    },
    {
      "midi": 44,
      "hit": false,
      "t": 127296,
      "d": 112,
      "v": 95
    },
    {
      "midi": 46,
      "hit": false,
      "t": 127408,
      "d": 112,
      "v": 95
    },
    {
      "midi": 39,
      "hit": false,
      "t": 127408,
      "d": 224,
      "v": 90
    },
    {
      "midi": 44,
      "hit": false,
      "t": 127520,
      "d": 112,
      "v": 95
    },
    {
      "midi": 35,
      "hit": false,
      "t": 127632,
      "d": 0,
      "v": 110
    },
    {
      "midi": 44,
      "hit": false,
      "t": 127632,
      "d": 112,
      "v": 95
    },
    {
      "midi": 39,
      "hit": false,
      "t": 127632,
      "d": 228,
      "v": 90
    },
    {
      "midi": 35,
      "hit": false,
      "t": 127632,
      "d": 452,
      "v": 100
    },
    {
      "midi": 44,
      "hit": false,
      "t": 127744,
      "d": 116,
      "v": 95
    },
    {
      "midi": 46,
      "hit": false,
      "t": 127860,
      "d": 112,
      "v": 95
    },
    {
      "midi": 39,
      "hit": false,
      "t": 127860,
      "d": 224,
      "v": 90
    },
    {
      "midi": 44,
      "hit": false,
      "t": 127972,
      "d": 112,
      "v": 95
    },
    {
      "midi": 35,
      "hit": false,
      "t": 128084,
      "d": 0,
      "v": 110
    },
    {
      "midi": 44,
      "hit": false,
      "t": 128084,
      "d": 112,
      "v": 95
    },
    {
      "midi": 39,
      "hit": false,
      "t": 128084,
      "d": 224,
      "v": 90
    },
    {
      "midi": 35,
      "hit": false,
      "t": 128084,
      "d": 452,
      "v": 100
    },
    {
      "midi": 44,
      "hit": false,
      "t": 128196,
      "d": 112,
      "v": 95
    },
    {
      "midi": 46,
      "hit": false,
      "t": 128308,
      "d": 116,
      "v": 95
    },
    {
      "midi": 39,
      "hit": false,
      "t": 128308,
      "d": 228,
      "v": 90
    },
    {
      "midi": 74,
      "hit": false,
      "t": 128308,
      "d": 228,
      "v": 100
    },
    {
      "midi": 44,
      "hit": false,
      "t": 128424,
      "d": 112,
      "v": 95
    },
    {
      "midi": 35,
      "hit": false,
      "t": 128536,
      "d": 0,
      "v": 110
    },
    {
      "midi": 44,
      "hit": false,
      "t": 128536,
      "d": 112,
      "v": 95
    },
    {
      "midi": 39,
      "hit": false,
      "t": 128536,
      "d": 224,
      "v": 90
    },
    {
      "midi": 77,
      "hit": false,
      "t": 128536,
      "d": 224,
      "v": 100
    },
    {
      "midi": 35,
      "hit": false,
      "t": 128536,
      "d": 452,
      "v": 100
    },
    {
      "midi": 44,
      "hit": false,
      "t": 128648,
      "d": 112,
      "v": 95
    },
    {
      "midi": 75,
      "hit": false,
      "t": 128760,
      "d": 112,
      "v": 100
    },
    {
      "midi": 46,
      "hit": false,
      "t": 128760,
      "d": 112,
      "v": 95
    },
    {
      "midi": 39,
      "hit": false,
      "t": 128760,
      "d": 228,
      "v": 90
    },
    {
      "midi": 44,
      "hit": false,
      "t": 128872,
      "d": 116,
      "v": 95
    },
    {
      "midi": 74,
      "hit": false,
      "t": 128872,
      "d": 1808,
      "v": 100
    },
    {
      "midi": 35,
      "hit": false,
      "t": 128988,
      "d": 0,
      "v": 110
    },
    {
      "midi": 44,
      "hit": false,
      "t": 128988,
      "d": 112,
      "v": 95
    },
    {
      "midi": 38,
      "hit": false,
      "t": 128988,
      "d": 224,
      "v": 90
    },
    {
      "midi": 35,
      "hit": false,
      "t": 128988,
      "d": 448,
      "v": 100
    },
    {
      "midi": 62,
      "hit": false,
      "t": 128988,
      "d": 900,
      "v": 58
    },
    {
      "midi": 67,
      "hit": false,
      "t": 128988,
      "d": 900,
      "v": 58
    },
    {
      "midi": 69,
      "hit": false,
      "t": 128988,
      "d": 900,
      "v": 58
    },
    {
      "midi": 44,
      "hit": false,
      "t": 129100,
      "d": 112,
      "v": 95
    },
    {
      "midi": 46,
      "hit": false,
      "t": 129212,
      "d": 112,
      "v": 95
    },
    {
      "midi": 38,
      "hit": false,
      "t": 129212,
      "d": 224,
      "v": 90
    },
    {
      "midi": 44,
      "hit": false,
      "t": 129324,
      "d": 112,
      "v": 95
    },
    {
      "midi": 35,
      "hit": false,
      "t": 129436,
      "d": 0,
      "v": 110
    },
    {
      "midi": 44,
      "hit": false,
      "t": 129436,
      "d": 116,
      "v": 95
    },
    {
      "midi": 38,
      "hit": false,
      "t": 129436,
      "d": 228,
      "v": 90
    },
    {
      "midi": 35,
      "hit": false,
      "t": 129436,
      "d": 452,
      "v": 100
    },
    {
      "midi": 44,
      "hit": false,
      "t": 129552,
      "d": 112,
      "v": 95
    },
    {
      "midi": 46,
      "hit": false,
      "t": 129664,
      "d": 112,
      "v": 95
    },
    {
      "midi": 38,
      "hit": false,
      "t": 129664,
      "d": 224,
      "v": 90
    },
    {
      "midi": 44,
      "hit": false,
      "t": 129776,
      "d": 112,
      "v": 95
    },
    {
      "midi": 38,
      "hit": false,
      "t": 129888,
      "d": 228,
      "v": 90
    },
    {
      "midi": 40,
      "hit": false,
      "t": 129888,
      "d": 228,
      "v": 100
    },
    {
      "midi": 62,
      "hit": false,
      "t": 129888,
      "d": 904,
      "v": 58
    },
    {
      "midi": 66,
      "hit": false,
      "t": 129888,
      "d": 904,
      "v": 58
    },
    {
      "midi": 69,
      "hit": false,
      "t": 129888,
      "d": 904,
      "v": 58
    },
    {
      "midi": 38,
      "hit": false,
      "t": 130116,
      "d": 224,
      "v": 90
    },
    {
      "midi": 40,
      "hit": false,
      "t": 130116,
      "d": 224,
      "v": 100
    },
    {
      "midi": 38,
      "hit": false,
      "t": 130340,
      "d": 224,
      "v": 90
    },
    {
      "midi": 40,
      "hit": false,
      "t": 130340,
      "d": 224,
      "v": 100
    },
    {
      "midi": 40,
      "hit": false,
      "t": 130564,
      "d": 116,
      "v": 100
    },
    {
      "midi": 38,
      "hit": false,
      "t": 130564,
      "d": 228,
      "v": 90
    },
    {
      "midi": 40,
      "hit": false,
      "t": 130680,
      "d": 112,
      "v": 100
    },
    {
      "midi": 39,
      "hit": false,
      "t": 130792,
      "d": 224,
      "v": 90
    },
    {
      "midi": 35,
      "hit": false,
      "t": 130792,
      "d": 452,
      "v": 100
    },
    {
      "midi": 63,
      "hit": false,
      "t": 130792,
      "d": 1804,
      "v": 58
    },
    {
      "midi": 39,
      "hit": false,
      "t": 131016,
      "d": 228,
      "v": 90
    },
    {
      "midi": 39,
      "hit": false,
      "t": 131244,
      "d": 224,
      "v": 90
    },
    {
      "midi": 70,
      "hit": false,
      "t": 131244,
      "d": 224,
      "v": 100
    },
    {
      "midi": 40,
      "hit": false,
      "t": 131244,
      "d": 448,
      "v": 100
    },
    {
      "midi": 70,
      "hit": false,
      "t": 131468,
      "d": 112,
      "v": 100
    },
    {
      "midi": 39,
      "hit": false,
      "t": 131468,
      "d": 224,
      "v": 90
    },
    {
      "midi": 70,
      "hit": false,
      "t": 131580,
      "d": 340,
      "v": 100
    },
    {
      "midi": 39,
      "hit": false,
      "t": 131692,
      "d": 228,
      "v": 90
    },
    {
      "midi": 35,
      "hit": false,
      "t": 131692,
      "d": 452,
      "v": 100
    },
    {
      "midi": 39,
      "hit": false,
      "t": 131920,
      "d": 224,
      "v": 90
    },
    {
      "midi": 67,
      "hit": false,
      "t": 131920,
      "d": 224,
      "v": 100
    },
    {
      "midi": 39,
      "hit": false,
      "t": 132144,
      "d": 224,
      "v": 90
    },
    {
      "midi": 70,
      "hit": false,
      "t": 132144,
      "d": 224,
      "v": 100
    },
    {
      "midi": 40,
      "hit": false,
      "t": 132144,
      "d": 452,
      "v": 100
    },
    {
      "midi": 39,
      "hit": false,
      "t": 132368,
      "d": 228,
      "v": 90
    },
    {
      "midi": 74,
      "hit": false,
      "t": 132368,
      "d": 228,
      "v": 100
    },
    {
      "midi": 41,
      "hit": false,
      "t": 132596,
      "d": 224,
      "v": 90
    },
    {
      "midi": 35,
      "hit": false,
      "t": 132596,
      "d": 452,
      "v": 100
    },
    {
      "midi": 74,
      "hit": false,
      "t": 132596,
      "d": 676,
      "v": 100
    },
    {
      "midi": 65,
      "hit": false,
      "t": 132596,
      "d": 1804,
      "v": 58
    },
    {
      "midi": 69,
      "hit": false,
      "t": 132596,
      "d": 1804,
      "v": 58
    },
    {
      "midi": 41,
      "hit": false,
      "t": 132820,
      "d": 228,
      "v": 90
    },
    {
      "midi": 41,
      "hit": false,
      "t": 133048,
      "d": 224,
      "v": 90
    },
    {
      "midi": 40,
      "hit": false,
      "t": 133048,
      "d": 448,
      "v": 100
    },
    {
      "midi": 41,
      "hit": false,
      "t": 133272,
      "d": 224,
      "v": 90
    },
    {
      "midi": 72,
      "hit": false,
      "t": 133272,
      "d": 224,
      "v": 100
    },
    {
      "midi": 35,
      "hit": false,
      "t": 133496,
      "d": 116,
      "v": 100
    },
    {
      "midi": 41,
      "hit": false,
      "t": 133496,
      "d": 228,
      "v": 90
    },
    {
      "midi": 77,
      "hit": false,
      "t": 133496,
      "d": 452,
      "v": 70
    },
    {
      "midi": 89,
      "hit": false,
      "t": 133496,
      "d": 452,
      "v": 90
    },
    {
      "midi": 72,
      "hit": false,
      "t": 133496,
      "d": 904,
      "v": 100
    },
    {
      "midi": 40,
      "hit": false,
      "t": 133612,
      "d": 336,
      "v": 100
    },
    {
      "midi": 41,
      "hit": false,
      "t": 133724,
      "d": 224,
      "v": 90
    },
    {
      "midi": 41,
      "hit": false,
      "t": 133948,
      "d": 228,
      "v": 90
    },
    {
      "midi": 75,
      "hit": false,
      "t": 133948,
      "d": 452,
      "v": 70
    },
    {
      "midi": 87,
      "hit": false,
      "t": 133948,
      "d": 452,
      "v": 90
    },
    {
      "midi": 40,
      "hit": false,
      "t": 133948,
      "d": 452,
      "v": 100
    },
    {
      "midi": 41,
      "hit": false,
      "t": 134176,
      "d": 224,
      "v": 90
    },
    {
      "midi": 38,
      "hit": false,
      "t": 134400,
      "d": 224,
      "v": 90
    },
    {
      "midi": 74,
      "hit": false,
      "t": 134400,
      "d": 452,
      "v": 70
    },
    {
      "midi": 86,
      "hit": false,
      "t": 134400,
      "d": 452,
      "v": 90
    },
    {
      "midi": 35,
      "hit": false,
      "t": 134400,
      "d": 452,
      "v": 100
    },
    {
      "midi": 62,
      "hit": false,
      "t": 134400,
      "d": 1804,
      "v": 58
    },
    {
      "midi": 38,
      "hit": false,
      "t": 134624,
      "d": 228,
      "v": 90
    },
    {
      "midi": 38,
      "hit": false,
      "t": 134852,
      "d": 224,
      "v": 90
    },
    {
      "midi": 69,
      "hit": false,
      "t": 134852,
      "d": 224,
      "v": 100
    },
    {
      "midi": 40,
      "hit": false,
      "t": 134852,
      "d": 452,
      "v": 100
    },
    {
      "midi": 69,
      "hit": false,
      "t": 135076,
      "d": 112,
      "v": 100
    },
    {
      "midi": 38,
      "hit": false,
      "t": 135076,
      "d": 228,
      "v": 90
    },
    {
      "midi": 69,
      "hit": false,
      "t": 135188,
      "d": 340,
      "v": 100
    },
    {
      "midi": 38,
      "hit": false,
      "t": 135304,
      "d": 224,
      "v": 90
    },
    {
      "midi": 35,
      "hit": false,
      "t": 135304,
      "d": 448,
      "v": 100
    },
    {
      "midi": 38,
      "hit": false,
      "t": 135528,
      "d": 224,
      "v": 90
    },
    {
      "midi": 65,
      "hit": false,
      "t": 135528,
      "d": 224,
      "v": 100
    },
    {
      "midi": 38,
      "hit": false,
      "t": 135752,
      "d": 228,
      "v": 90
    },
    {
      "midi": 69,
      "hit": false,
      "t": 135752,
      "d": 228,
      "v": 100
    },
    {
      "midi": 40,
      "hit": false,
      "t": 135752,
      "d": 452,
      "v": 100
    },
    {
      "midi": 38,
      "hit": false,
      "t": 135980,
      "d": 224,
      "v": 90
    },
    {
      "midi": 72,
      "hit": false,
      "t": 135980,
      "d": 224,
      "v": 100
    },
    {
      "midi": 72,
      "hit": false,
      "t": 136204,
      "d": 0,
      "v": 100
    },
    {
      "midi": 43,
      "hit": false,
      "t": 136204,
      "d": 228,
      "v": 90
    },
    {
      "midi": 35,
      "hit": false,
      "t": 136204,
      "d": 452,
      "v": 100
    },
    {
      "midi": 67,
      "hit": false,
      "t": 136204,
      "d": 1804,
      "v": 58
    },
    {
      "midi": 43,
      "hit": false,
      "t": 136432,
      "d": 224,
      "v": 90
    },
    {
      "midi": 43,
      "hit": false,
      "t": 136656,
      "d": 224,
      "v": 90
    },
    {
      "midi": 70,
      "hit": false,
      "t": 136656,
      "d": 452,
      "v": 100
    },
    {
      "midi": 40,
      "hit": false,
      "t": 136656,
      "d": 452,
      "v": 100
    },
    {
      "midi": 43,
      "hit": false,
      "t": 136880,
      "d": 228,
      "v": 90
    },
    {
      "midi": 35,
      "hit": false,
      "t": 137108,
      "d": 112,
      "v": 100
    },
    {
      "midi": 43,
      "hit": false,
      "t": 137108,
      "d": 224,
      "v": 90
    },
    {
      "midi": 72,
      "hit": false,
      "t": 137108,
      "d": 448,
      "v": 100
    },
    {
      "midi": 40,
      "hit": false,
      "t": 137220,
      "d": 336,
      "v": 100
    },
    {
      "midi": 43,
      "hit": false,
      "t": 137332,
      "d": 224,
      "v": 90
    },
    {
      "midi": 43,
      "hit": false,
      "t": 137556,
      "d": 228,
      "v": 90
    },
    {
      "midi": 74,
      "hit": false,
      "t": 137556,
      "d": 452,
      "v": 100
    },
    {
      "midi": 40,
      "hit": false,
      "t": 137556,
      "d": 452,
      "v": 100
    },
    {
      "midi": 43,
      "hit": false,
      "t": 137784,
      "d": 224,
      "v": 90
    },
    {
      "midi": 74,
      "hit": false,
      "t": 138008,
      "d": 0,
      "v": 100
    },
    {
      "midi": 36,
      "hit": false,
      "t": 138008,
      "d": 228,
      "v": 90
    },
    {
      "midi": 57,
      "hit": false,
      "t": 138008,
      "d": 452,
      "v": 100
    },
    {
      "midi": 35,
      "hit": false,
      "t": 138008,
      "d": 452,
      "v": 100
    },
    {
      "midi": 60,
      "hit": false,
      "t": 138008,
      "d": 1804,
      "v": 58
    },
    {
      "midi": 63,
      "hit": false,
      "t": 138008,
      "d": 1804,
      "v": 58
    },
    {
      "midi": 67,
      "hit": false,
      "t": 138008,
      "d": 1804,
      "v": 58
    },
    {
      "midi": 36,
      "hit": false,
      "t": 138236,
      "d": 224,
      "v": 90
    },
    {
      "midi": 72,
      "hit": false,
      "t": 138348,
      "d": 336,
      "v": 100
    },
    {
      "midi": 36,
      "hit": false,
      "t": 138460,
      "d": 224,
      "v": 90
    },
    {
      "midi": 40,
      "hit": false,
      "t": 138460,
      "d": 452,
      "v": 100
    },
    {
      "midi": 36,
      "hit": false,
      "t": 138684,
      "d": 228,
      "v": 90
    },
    {
      "midi": 77,
      "hit": false,
      "t": 138684,
      "d": 228,
      "v": 100
    },
    {
      "midi": 36,
      "hit": false,
      "t": 138912,
      "d": 224,
      "v": 90
    },
    {
      "midi": 74,
      "hit": false,
      "t": 138912,
      "d": 336,
      "v": 100
    },
    {
      "midi": 86,
      "hit": false,
      "t": 138912,
      "d": 336,
      "v": 90
    },
    {
      "midi": 35,
      "hit": false,
      "t": 138912,
      "d": 452,
      "v": 100
    },
    {
      "midi": 36,
      "hit": false,
      "t": 139136,
      "d": 228,
      "v": 90
    },
    {
      "midi": 72,
      "hit": false,
      "t": 139248,
      "d": 340,
      "v": 80
    },
    {
      "midi": 84,
      "hit": false,
      "t": 139248,
      "d": 340,
      "v": 90
    },
    {
      "midi": 36,
      "hit": false,
      "t": 139364,
      "d": 224,
      "v": 90
    },
    {
      "midi": 40,
      "hit": false,
      "t": 139364,
      "d": 448,
      "v": 100
    },
    {
      "midi": 70,
      "hit": false,
      "t": 139588,
      "d": 112,
      "v": 100
    },
    {
      "midi": 36,
      "hit": false,
      "t": 139588,
      "d": 224,
      "v": 90
    },
    {
      "midi": 77,
      "hit": false,
      "t": 139588,
      "d": 224,
      "v": 80
    },
    {
      "midi": 89,
      "hit": false,
      "t": 139588,
      "d": 224,
      "v": 90
    },
    {
      "midi": 72,
      "hit": false,
      "t": 139700,
      "d": 112,
      "v": 100
    },
    {
      "midi": 33,
      "hit": false,
      "t": 139812,
      "d": 228,
      "v": 90
    },
    {
      "midi": 74,
      "hit": false,
      "t": 139812,
      "d": 340,
      "v": 100
    },
    {
      "midi": 35,
      "hit": false,
      "t": 139812,
      "d": 452,
      "v": 100
    },
    {
      "midi": 86,
      "hit": false,
      "t": 139812,
      "d": 680,
      "v": 90
    },
    {
      "midi": 60,
      "hit": false,
      "t": 139812,
      "d": 1804,
      "v": 58
    },
    {
      "midi": 64,
      "hit": false,
      "t": 139812,
      "d": 1804,
      "v": 58
    },
    {
      "midi": 67,
      "hit": false,
      "t": 139812,
      "d": 1804,
      "v": 58
    },
    {
      "midi": 69,
      "hit": false,
      "t": 139812,
      "d": 1804,
      "v": 58
    },
    {
      "midi": 33,
      "hit": false,
      "t": 140040,
      "d": 224,
      "v": 90
    },
    {
      "midi": 72,
      "hit": false,
      "t": 140152,
      "d": 340,
      "v": 100
    },
    {
      "midi": 33,
      "hit": false,
      "t": 140264,
      "d": 228,
      "v": 90
    },
    {
      "midi": 40,
      "hit": false,
      "t": 140264,
      "d": 452,
      "v": 100
    },
    {
      "midi": 33,
      "hit": false,
      "t": 140492,
      "d": 224,
      "v": 90
    },
    {
      "midi": 77,
      "hit": false,
      "t": 140492,
      "d": 224,
      "v": 100
    },
    {
      "midi": 33,
      "hit": false,
      "t": 140716,
      "d": 224,
      "v": 90
    },
    {
      "midi": 74,
      "hit": false,
      "t": 140716,
      "d": 340,
      "v": 100
    },
    {
      "midi": 86,
      "hit": false,
      "t": 140716,
      "d": 340,
      "v": 90
    },
    {
      "midi": 35,
      "hit": false,
      "t": 140716,
      "d": 452,
      "v": 100
    },
    {
      "midi": 33,
      "hit": false,
      "t": 140940,
      "d": 228,
      "v": 90
    },
    {
      "midi": 72,
      "hit": false,
      "t": 141056,
      "d": 336,
      "v": 80
    },
    {
      "midi": 84,
      "hit": false,
      "t": 141056,
      "d": 336,
      "v": 90
    },
    {
      "midi": 70,
      "hit": false,
      "t": 141056,
      "d": 336,
      "v": 100
    },
    {
      "midi": 33,
      "hit": false,
      "t": 141168,
      "d": 224,
      "v": 90
    },
    {
      "midi": 40,
      "hit": false,
      "t": 141168,
      "d": 448,
      "v": 100
    },
    {
      "midi": 33,
      "hit": false,
      "t": 141392,
      "d": 224,
      "v": 90
    },
    {
      "midi": 77,
      "hit": false,
      "t": 141392,
      "d": 224,
      "v": 80
    },
    {
      "midi": 89,
      "hit": false,
      "t": 141392,
      "d": 224,
      "v": 90
    },
    {
      "midi": 72,
      "hit": false,
      "t": 141392,
      "d": 224,
      "v": 100
    },
    {
      "midi": 38,
      "hit": false,
      "t": 141616,
      "d": 228,
      "v": 90
    },
    {
      "midi": 49,
      "hit": false,
      "t": 141616,
      "d": 452,
      "v": 100
    },
    {
      "midi": 35,
      "hit": false,
      "t": 141616,
      "d": 452,
      "v": 100
    },
    {
      "midi": 74,
      "hit": false,
      "t": 141616,
      "d": 680,
      "v": 100
    },
    {
      "midi": 86,
      "hit": false,
      "t": 141616,
      "d": 680,
      "v": 90
    },
    {
      "midi": 67,
      "hit": false,
      "t": 141616,
      "d": 1808,
      "v": 58
    },
    {
      "midi": 38,
      "hit": false,
      "t": 141844,
      "d": 224,
      "v": 90
    },
    {
      "midi": 38,
      "hit": false,
      "t": 142068,
      "d": 228,
      "v": 90
    },
    {
      "midi": 40,
      "hit": false,
      "t": 142068,
      "d": 452,
      "v": 100
    },
    {
      "midi": 38,
      "hit": false,
      "t": 142296,
      "d": 224,
      "v": 90
    },
    {
      "midi": 38,
      "hit": false,
      "t": 142520,
      "d": 224,
      "v": 90
    },
    {
      "midi": 35,
      "hit": false,
      "t": 142520,
      "d": 452,
      "v": 100
    },
    {
      "midi": 38,
      "hit": false,
      "t": 142744,
      "d": 228,
      "v": 90
    },
    {
      "midi": 38,
      "hit": false,
      "t": 142972,
      "d": 224,
      "v": 90
    },
    {
      "midi": 40,
      "hit": false,
      "t": 142972,
      "d": 452,
      "v": 100
    },
    {
      "midi": 38,
      "hit": false,
      "t": 143196,
      "d": 228,
      "v": 90
    },
    {
      "midi": 62,
      "hit": false,
      "t": 143424,
      "d": 0,
      "v": 58
    },
    {
      "midi": 69,
      "hit": false,
      "t": 143424,
      "d": 0,
      "v": 58
    },
    {
      "midi": 38,
      "hit": false,
      "t": 143424,
      "d": 224,
      "v": 90
    },
    {
      "midi": 40,
      "hit": false,
      "t": 143424,
      "d": 224,
      "v": 100
    },
    {
      "midi": 57,
      "hit": false,
      "t": 143424,
      "d": 448,
      "v": 100
    },
    {
      "midi": 66,
      "hit": false,
      "t": 143424,
      "d": 1804,
      "v": 58
    },
    {
      "midi": 38,
      "hit": false,
      "t": 143648,
      "d": 224,
      "v": 90
    },
    {
      "midi": 35,
      "hit": false,
      "t": 143648,
      "d": 224,
      "v": 100
    },
    {
      "midi": 38,
      "hit": false,
      "t": 143872,
      "d": 228,
      "v": 90
    },
    {
      "midi": 40,
      "hit": false,
      "t": 143872,
      "d": 228,
      "v": 100
    },
    {
      "midi": 57,
      "hit": false,
      "t": 143872,
      "d": 452,
      "v": 100
    },
    {
      "midi": 38,
      "hit": false,
      "t": 144100,
      "d": 224,
      "v": 90
    },
    {
      "midi": 35,
      "hit": false,
      "t": 144100,
      "d": 224,
      "v": 100
    },
    {
      "midi": 35,
      "hit": false,
      "t": 144324,
      "d": 0,
      "v": 110
    },
    {
      "midi": 38,
      "hit": false,
      "t": 144324,
      "d": 228,
      "v": 90
    },
    {
      "midi": 35,
      "hit": false,
      "t": 144324,
      "d": 228,
      "v": 100
    },
    {
      "midi": 57,
      "hit": false,
      "t": 144324,
      "d": 452,
      "v": 100
    },
    {
      "midi": 35,
      "hit": false,
      "t": 144552,
      "d": 0,
      "v": 110
    },
    {
      "midi": 38,
      "hit": false,
      "t": 144552,
      "d": 224,
      "v": 90
    },
    {
      "midi": 35,
      "hit": false,
      "t": 144552,
      "d": 224,
      "v": 100
    },
    {
      "midi": 35,
      "hit": false,
      "t": 144776,
      "d": 0,
      "v": 110
    },
    {
      "midi": 38,
      "hit": false,
      "t": 144776,
      "d": 224,
      "v": 90
    },
    {
      "midi": 35,
      "hit": false,
      "t": 144776,
      "d": 224,
      "v": 100
    },
    {
      "midi": 57,
      "hit": false,
      "t": 144776,
      "d": 452,
      "v": 100
    },
    {
      "midi": 35,
      "hit": false,
      "t": 145000,
      "d": 0,
      "v": 110
    },
    {
      "midi": 38,
      "hit": false,
      "t": 145000,
      "d": 228,
      "v": 90
    },
    {
      "midi": 35,
      "hit": false,
      "t": 145000,
      "d": 228,
      "v": 100
    },
    {
      "midi": 74,
      "hit": false,
      "t": 145228,
      "d": 0,
      "v": 58
    },
    {
      "midi": 35,
      "hit": false,
      "t": 145228,
      "d": 0,
      "v": 110
    },
    {
      "midi": 43,
      "hit": false,
      "t": 145228,
      "d": 224,
      "v": 90
    },
    {
      "midi": 77,
      "hit": false,
      "t": 145228,
      "d": 336,
      "v": 100
    },
    {
      "midi": 35,
      "hit": false,
      "t": 145228,
      "d": 452,
      "v": 100
    },
    {
      "midi": 67,
      "hit": false,
      "t": 145228,
      "d": 900,
      "v": 58
    },
    {
      "midi": 70,
      "hit": false,
      "t": 145228,
      "d": 900,
      "v": 58
    },
    {
      "midi": 43,
      "hit": false,
      "t": 145452,
      "d": 228,
      "v": 90
    },
    {
      "midi": 79,
      "hit": false,
      "t": 145564,
      "d": 340,
      "v": 100
    },
    {
      "midi": 43,
      "hit": false,
      "t": 145680,
      "d": 224,
      "v": 90
    },
    {
      "midi": 40,
      "hit": false,
      "t": 145680,
      "d": 336,
      "v": 100
    },
    {
      "midi": 43,
      "hit": false,
      "t": 145904,
      "d": 224,
      "v": 90
    },
    {
      "midi": 74,
      "hit": false,
      "t": 145904,
      "d": 224,
      "v": 100
    },
    {
      "midi": 35,
      "hit": false,
      "t": 146016,
      "d": 112,
      "v": 100
    },
    {
      "midi": 35,
      "hit": false,
      "t": 146128,
      "d": 0,
      "v": 110
    },
    {
      "midi": 39,
      "hit": false,
      "t": 146128,
      "d": 228,
      "v": 90
    },
    {
      "midi": 35,
      "hit": false,
      "t": 146128,
      "d": 228,
      "v": 100
    },
    {
      "midi": 77,
      "hit": false,
      "t": 146128,
      "d": 340,
      "v": 100
    },
    {
      "midi": 63,
      "hit": false,
      "t": 146128,
      "d": 904,
      "v": 58
    },
    {
      "midi": 67,
      "hit": false,
      "t": 146128,
      "d": 904,
      "v": 58
    },
    {
      "midi": 70,
      "hit": false,
      "t": 146128,
      "d": 904,
      "v": 58
    },
    {
      "midi": 35,
      "hit": false,
      "t": 146356,
      "d": 0,
      "v": 110
    },
    {
      "midi": 39,
      "hit": false,
      "t": 146356,
      "d": 224,
      "v": 90
    },
    {
      "midi": 35,
      "hit": false,
      "t": 146356,
      "d": 224,
      "v": 100
    },
    {
      "midi": 79,
      "hit": false,
      "t": 146468,
      "d": 336,
      "v": 100
    },
    {
      "midi": 39,
      "hit": false,
      "t": 146580,
      "d": 224,
      "v": 90
    },
    {
      "midi": 40,
      "hit": false,
      "t": 146580,
      "d": 340,
      "v": 100
    },
    {
      "midi": 39,
      "hit": false,
      "t": 146804,
      "d": 228,
      "v": 90
    },
    {
      "midi": 74,
      "hit": false,
      "t": 146804,
      "d": 228,
      "v": 100
    },
    {
      "midi": 35,
      "hit": false,
      "t": 146920,
      "d": 112,
      "v": 100
    },
    {
      "midi": 35,
      "hit": false,
      "t": 147032,
      "d": 0,
      "v": 110
    },
    {
      "midi": 41,
      "hit": false,
      "t": 147032,
      "d": 224,
      "v": 90
    },
    {
      "midi": 77,
      "hit": false,
      "t": 147032,
      "d": 224,
      "v": 100
    },
    {
      "midi": 35,
      "hit": false,
      "t": 147032,
      "d": 452,
      "v": 100
    },
    {
      "midi": 65,
      "hit": false,
      "t": 147032,
      "d": 900,
      "v": 58
    },
    {
      "midi": 69,
      "hit": false,
      "t": 147032,
      "d": 900,
      "v": 58
    },
    {
      "midi": 41,
      "hit": false,
      "t": 147256,
      "d": 228,
      "v": 90
    },
    {
      "midi": 75,
      "hit": false,
      "t": 147256,
      "d": 228,
      "v": 100
    },
    {
      "midi": 41,
      "hit": false,
      "t": 147484,
      "d": 224,
      "v": 90
    },
    {
      "midi": 74,
      "hit": false,
      "t": 147484,
      "d": 224,
      "v": 100
    },
    {
      "midi": 40,
      "hit": false,
      "t": 147484,
      "d": 336,
      "v": 100
    },
    {
      "midi": 41,
      "hit": false,
      "t": 147708,
      "d": 224,
      "v": 90
    },
    {
      "midi": 72,
      "hit": false,
      "t": 147708,
      "d": 224,
      "v": 100
    },
    {
      "midi": 35,
      "hit": false,
      "t": 147820,
      "d": 112,
      "v": 100
    },
    {
      "midi": 35,
      "hit": false,
      "t": 147932,
      "d": 0,
      "v": 110
    },
    {
      "midi": 46,
      "hit": false,
      "t": 147932,
      "d": 228,
      "v": 90
    },
    {
      "midi": 35,
      "hit": false,
      "t": 147932,
      "d": 228,
      "v": 100
    },
    {
      "midi": 72,
      "hit": false,
      "t": 147932,
      "d": 340,
      "v": 100
    },
    {
      "midi": 70,
      "hit": false,
      "t": 147932,
      "d": 904,
      "v": 58
    },
    {
      "midi": 77,
      "hit": false,
      "t": 147932,
      "d": 904,
      "v": 58
    },
    {
      "midi": 35,
      "hit": false,
      "t": 148160,
      "d": 0,
      "v": 110
    },
    {
      "midi": 46,
      "hit": false,
      "t": 148160,
      "d": 224,
      "v": 90
    },
    {
      "midi": 35,
      "hit": false,
      "t": 148160,
      "d": 224,
      "v": 100
    },
    {
      "midi": 74,
      "hit": false,
      "t": 148272,
      "d": 340,
      "v": 100
    },
    {
      "midi": 46,
      "hit": false,
      "t": 148384,
      "d": 228,
      "v": 90
    },
    {
      "midi": 40,
      "hit": false,
      "t": 148384,
      "d": 340,
      "v": 100
    },
    {
      "midi": 46,
      "hit": false,
      "t": 148612,
      "d": 224,
      "v": 90
    },
    {
      "midi": 35,
      "hit": false,
      "t": 148724,
      "d": 112,
      "v": 100
    },
    {
      "midi": 35,
      "hit": false,
      "t": 148836,
      "d": 0,
      "v": 110
    },
    {
      "midi": 48,
      "hit": false,
      "t": 148836,
      "d": 224,
      "v": 90
    },
    {
      "midi": 75,
      "hit": false,
      "t": 148836,
      "d": 340,
      "v": 100
    },
    {
      "midi": 35,
      "hit": false,
      "t": 148836,
      "d": 452,
      "v": 100
    },
    {
      "midi": 60,
      "hit": false,
      "t": 148836,
      "d": 904,
      "v": 58
    },
    {
      "midi": 63,
      "hit": false,
      "t": 148836,
      "d": 904,
      "v": 58
    },
    {
      "midi": 67,
      "hit": false,
      "t": 148836,
      "d": 904,
      "v": 58
    },
    {
      "midi": 48,
      "hit": false,
      "t": 149060,
      "d": 228,
      "v": 90
    },
    {
      "midi": 75,
      "hit": false,
      "t": 149176,
      "d": 336,
      "v": 100
    },
    {
      "midi": 48,
      "hit": false,
      "t": 149288,
      "d": 224,
      "v": 90
    },
    {
      "midi": 40,
      "hit": false,
      "t": 149288,
      "d": 336,
      "v": 100
    },
    {
      "midi": 48,
      "hit": false,
      "t": 149512,
      "d": 228,
      "v": 90
    },
    {
      "midi": 75,
      "hit": false,
      "t": 149512,
      "d": 228,
      "v": 100
    },
    {
      "midi": 35,
      "hit": false,
      "t": 149624,
      "d": 116,
      "v": 100
    },
    {
      "midi": 35,
      "hit": false,
      "t": 149740,
      "d": 0,
      "v": 110
    },
    {
      "midi": 50,
      "hit": false,
      "t": 149740,
      "d": 224,
      "v": 90
    },
    {
      "midi": 35,
      "hit": false,
      "t": 149740,
      "d": 224,
      "v": 100
    },
    {
      "midi": 74,
      "hit": false,
      "t": 149740,
      "d": 448,
      "v": 100
    },
    {
      "midi": 62,
      "hit": false,
      "t": 149740,
      "d": 900,
      "v": 58
    },
    {
      "midi": 66,
      "hit": false,
      "t": 149740,
      "d": 900,
      "v": 58
    },
    {
      "midi": 35,
      "hit": false,
      "t": 149964,
      "d": 0,
      "v": 110
    },
    {
      "midi": 50,
      "hit": false,
      "t": 149964,
      "d": 224,
      "v": 90
    },
    {
      "midi": 35,
      "hit": false,
      "t": 149964,
      "d": 224,
      "v": 100
    },
    {
      "midi": 50,
      "hit": false,
      "t": 150188,
      "d": 228,
      "v": 90
    },
    {
      "midi": 69,
      "hit": false,
      "t": 150188,
      "d": 228,
      "v": 100
    },
    {
      "midi": 40,
      "hit": false,
      "t": 150188,
      "d": 340,
      "v": 100
    },
    {
      "midi": 50,
      "hit": false,
      "t": 150416,
      "d": 224,
      "v": 90
    },
    {
      "midi": 35,
      "hit": false,
      "t": 150528,
      "d": 112,
      "v": 100
    },
    {
      "midi": 72,
      "hit": false,
      "t": 150640,
      "d": 0,
      "v": 58
    },
    {
      "midi": 35,
      "hit": false,
      "t": 150640,
      "d": 0,
      "v": 110
    },
    {
      "midi": 43,
      "hit": false,
      "t": 150640,
      "d": 228,
      "v": 90
    },
    {
      "midi": 35,
      "hit": false,
      "t": 150640,
      "d": 452,
      "v": 100
    },
    {
      "midi": 72,
      "hit": false,
      "t": 150640,
      "d": 676,
      "v": 100
    },
    {
      "midi": 67,
      "hit": false,
      "t": 150640,
      "d": 904,
      "v": 58
    },
    {
      "midi": 74,
      "hit": false,
      "t": 150640,
      "d": 904,
      "v": 58
    },
    {
      "midi": 43,
      "hit": false,
      "t": 150868,
      "d": 224,
      "v": 90
    },
    {
      "midi": 43,
      "hit": false,
      "t": 151092,
      "d": 224,
      "v": 90
    },
    {
      "midi": 40,
      "hit": false,
      "t": 151092,
      "d": 340,
      "v": 100
    },
    {
      "midi": 43,
      "hit": false,
      "t": 151316,
      "d": 116,
      "v": 90
    },
    {
      "midi": 70,
      "hit": false,
      "t": 151316,
      "d": 116,
      "v": 100
    },
    {
      "midi": 43,
      "hit": false,
      "t": 151432,
      "d": 112,
      "v": 90
    },
    {
      "midi": 69,
      "hit": false,
      "t": 151432,
      "d": 112,
      "v": 100
    },
    {
      "midi": 35,
      "hit": false,
      "t": 151432,
      "d": 112,
      "v": 100
    },
    {
      "midi": 35,
      "hit": false,
      "t": 151544,
      "d": 0,
      "v": 110
    },
    {
      "midi": 43,
      "hit": false,
      "t": 151544,
      "d": 224,
      "v": 90
    },
    {
      "midi": 35,
      "hit": false,
      "t": 151544,
      "d": 224,
      "v": 100
    },
    {
      "midi": 70,
      "hit": false,
      "t": 151544,
      "d": 448,
      "v": 100
    },
    {
      "midi": 67,
      "hit": false,
      "t": 151544,
      "d": 900,
      "v": 58
    },
    {
      "midi": 35,
      "hit": false,
      "t": 151768,
      "d": 0,
      "v": 110
    },
    {
      "midi": 43,
      "hit": false,
      "t": 151768,
      "d": 224,
      "v": 90
    },
    {
      "midi": 35,
      "hit": false,
      "t": 151768,
      "d": 224,
      "v": 100
    },
    {
      "midi": 43,
      "hit": false,
      "t": 151992,
      "d": 228,
      "v": 90
    },
    {
      "midi": 40,
      "hit": false,
      "t": 151992,
      "d": 228,
      "v": 100
    },
    {
      "midi": 40,
      "hit": false,
      "t": 152220,
      "d": 112,
      "v": 100
    },
    {
      "midi": 43,
      "hit": false,
      "t": 152220,
      "d": 224,
      "v": 90
    },
    {
      "midi": 74,
      "hit": false,
      "t": 152220,
      "d": 224,
      "v": 100
    },
    {
      "midi": 40,
      "hit": false,
      "t": 152332,
      "d": 112,
      "v": 100
    },
    {
      "midi": 74,
      "hit": false,
      "t": 152444,
      "d": 0,
      "v": 58
    },
    {
      "midi": 43,
      "hit": false,
      "t": 152444,
      "d": 228,
      "v": 90
    },
    {
      "midi": 77,
      "hit": false,
      "t": 152444,
      "d": 340,
      "v": 100
    },
    {
      "midi": 35,
      "hit": false,
      "t": 152444,
      "d": 452,
      "v": 100
    },
    {
      "midi": 67,
      "hit": false,
      "t": 152444,
      "d": 904,
      "v": 58
    },
    {
      "midi": 70,
      "hit": false,
      "t": 152444,
      "d": 904,
      "v": 58
    },
    {
      "midi": 43,
      "hit": false,
      "t": 152672,
      "d": 224,
      "v": 90
    },
    {
      "midi": 79,
      "hit": false,
      "t": 152784,
      "d": 336,
      "v": 100
    },
    {
      "midi": 43,
      "hit": false,
      "t": 152896,
      "d": 224,
      "v": 90
    },
    {
      "midi": 40,
      "hit": false,
      "t": 152896,
      "d": 340,
      "v": 100
    },
    {
      "midi": 43,
      "hit": false,
      "t": 153120,
      "d": 228,
      "v": 90
    },
    {
      "midi": 74,
      "hit": false,
      "t": 153120,
      "d": 228,
      "v": 100
    },
    {
      "midi": 35,
      "hit": false,
      "t": 153236,
      "d": 112,
      "v": 100
    },
    {
      "midi": 35,
      "hit": false,
      "t": 153348,
      "d": 0,
      "v": 110
    },
    {
      "midi": 39,
      "hit": false,
      "t": 153348,
      "d": 224,
      "v": 90
    },
    {
      "midi": 35,
      "hit": false,
      "t": 153348,
      "d": 224,
      "v": 100
    },
    {
      "midi": 77,
      "hit": false,
      "t": 153348,
      "d": 336,
      "v": 100
    },
    {
      "midi": 63,
      "hit": false,
      "t": 153348,
      "d": 900,
      "v": 58
    },
    {
      "midi": 67,
      "hit": false,
      "t": 153348,
      "d": 900,
      "v": 58
    },
    {
      "midi": 70,
      "hit": false,
      "t": 153348,
      "d": 900,
      "v": 58
    },
    {
      "midi": 35,
      "hit": false,
      "t": 153572,
      "d": 0,
      "v": 110
    },
    {
      "midi": 39,
      "hit": false,
      "t": 153572,
      "d": 228,
      "v": 90
    },
    {
      "midi": 35,
      "hit": false,
      "t": 153572,
      "d": 228,
      "v": 100
    },
    {
      "midi": 79,
      "hit": false,
      "t": 153684,
      "d": 340,
      "v": 100
    },
    {
      "midi": 39,
      "hit": false,
      "t": 153800,
      "d": 224,
      "v": 90
    },
    {
      "midi": 40,
      "hit": false,
      "t": 153800,
      "d": 336,
      "v": 100
    },
    {
      "midi": 39,
      "hit": false,
      "t": 154024,
      "d": 224,
      "v": 90
    },
    {
      "midi": 35,
      "hit": false,
      "t": 154136,
      "d": 112,
      "v": 100
    },
    {
      "midi": 35,
      "hit": false,
      "t": 154248,
      "d": 0,
      "v": 110
    },
    {
      "midi": 41,
      "hit": false,
      "t": 154248,
      "d": 228,
      "v": 90
    },
    {
      "midi": 77,
      "hit": false,
      "t": 154248,
      "d": 228,
      "v": 100
    },
    {
      "midi": 35,
      "hit": false,
      "t": 154248,
      "d": 452,
      "v": 100
    },
    {
      "midi": 65,
      "hit": false,
      "t": 154248,
      "d": 904,
      "v": 58
    },
    {
      "midi": 69,
      "hit": false,
      "t": 154248,
      "d": 904,
      "v": 58
    },
    {
      "midi": 41,
      "hit": false,
      "t": 154476,
      "d": 224,
      "v": 90
    },
    {
      "midi": 75,
      "hit": false,
      "t": 154476,
      "d": 224,
      "v": 100
    },
    {
      "midi": 41,
      "hit": false,
      "t": 154700,
      "d": 228,
      "v": 90
    },
    {
      "midi": 74,
      "hit": false,
      "t": 154700,
      "d": 228,
      "v": 100
    },
    {
      "midi": 40,
      "hit": false,
      "t": 154700,
      "d": 340,
      "v": 100
    },
    {
      "midi": 41,
      "hit": false,
      "t": 154928,
      "d": 224,
      "v": 90
    },
    {
      "midi": 72,
      "hit": false,
      "t": 154928,
      "d": 224,
      "v": 100
    },
    {
      "midi": 35,
      "hit": false,
      "t": 155040,
      "d": 112,
      "v": 100
    },
    {
      "midi": 35,
      "hit": false,
      "t": 155152,
      "d": 0,
      "v": 110
    },
    {
      "midi": 46,
      "hit": false,
      "t": 155152,
      "d": 224,
      "v": 90
    },
    {
      "midi": 35,
      "hit": false,
      "t": 155152,
      "d": 224,
      "v": 100
    },
    {
      "midi": 72,
      "hit": false,
      "t": 155152,
      "d": 340,
      "v": 100
    },
    {
      "midi": 70,
      "hit": false,
      "t": 155152,
      "d": 904,
      "v": 58
    },
    {
      "midi": 77,
      "hit": false,
      "t": 155152,
      "d": 904,
      "v": 58
    },
    {
      "midi": 35,
      "hit": false,
      "t": 155376,
      "d": 0,
      "v": 110
    },
    {
      "midi": 46,
      "hit": false,
      "t": 155376,
      "d": 228,
      "v": 90
    },
    {
      "midi": 35,
      "hit": false,
      "t": 155376,
      "d": 228,
      "v": 100
    },
    {
      "midi": 74,
      "hit": false,
      "t": 155492,
      "d": 336,
      "v": 100
    },
    {
      "midi": 46,
      "hit": false,
      "t": 155604,
      "d": 224,
      "v": 90
    },
    {
      "midi": 40,
      "hit": false,
      "t": 155604,
      "d": 336,
      "v": 100
    },
    {
      "midi": 46,
      "hit": false,
      "t": 155828,
      "d": 228,
      "v": 90
    },
    {
      "midi": 35,
      "hit": false,
      "t": 155940,
      "d": 116,
      "v": 100
    },
    {
      "midi": 35,
      "hit": false,
      "t": 156056,
      "d": 0,
      "v": 110
    },
    {
      "midi": 48,
      "hit": false,
      "t": 156056,
      "d": 224,
      "v": 90
    },
    {
      "midi": 75,
      "hit": false,
      "t": 156056,
      "d": 336,
      "v": 100
    },
    {
      "midi": 57,
      "hit": false,
      "t": 156056,
      "d": 448,
      "v": 100
    },
    {
      "midi": 35,
      "hit": false,
      "t": 156056,
      "d": 448,
      "v": 100
    },
    {
      "midi": 60,
      "hit": false,
      "t": 156056,
      "d": 900,
      "v": 58
    },
    {
      "midi": 63,
      "hit": false,
      "t": 156056,
      "d": 900,
      "v": 58
    },
    {
      "midi": 67,
      "hit": false,
      "t": 156056,
      "d": 900,
      "v": 58
    },
    {
      "midi": 48,
      "hit": false,
      "t": 156280,
      "d": 224,
      "v": 90
    },
    {
      "midi": 75,
      "hit": false,
      "t": 156392,
      "d": 340,
      "v": 100
    },
    {
      "midi": 48,
      "hit": false,
      "t": 156504,
      "d": 228,
      "v": 90
    },
    {
      "midi": 40,
      "hit": false,
      "t": 156504,
      "d": 340,
      "v": 100
    },
    {
      "midi": 48,
      "hit": false,
      "t": 156732,
      "d": 224,
      "v": 90
    },
    {
      "midi": 75,
      "hit": false,
      "t": 156732,
      "d": 224,
      "v": 100
    },
    {
      "midi": 35,
      "hit": false,
      "t": 156844,
      "d": 112,
      "v": 100
    },
    {
      "midi": 35,
      "hit": false,
      "t": 156956,
      "d": 0,
      "v": 110
    },
    {
      "midi": 50,
      "hit": false,
      "t": 156956,
      "d": 224,
      "v": 90
    },
    {
      "midi": 35,
      "hit": false,
      "t": 156956,
      "d": 224,
      "v": 100
    },
    {
      "midi": 74,
      "hit": false,
      "t": 156956,
      "d": 452,
      "v": 100
    },
    {
      "midi": 62,
      "hit": false,
      "t": 156956,
      "d": 904,
      "v": 58
    },
    {
      "midi": 65,
      "hit": false,
      "t": 156956,
      "d": 904,
      "v": 58
    },
    {
      "midi": 69,
      "hit": false,
      "t": 156956,
      "d": 904,
      "v": 58
    },
    {
      "midi": 35,
      "hit": false,
      "t": 157180,
      "d": 0,
      "v": 110
    },
    {
      "midi": 50,
      "hit": false,
      "t": 157180,
      "d": 228,
      "v": 90
    },
    {
      "midi": 35,
      "hit": false,
      "t": 157180,
      "d": 228,
      "v": 100
    },
    {
      "midi": 50,
      "hit": false,
      "t": 157408,
      "d": 224,
      "v": 90
    },
    {
      "midi": 77,
      "hit": false,
      "t": 157408,
      "d": 224,
      "v": 100
    },
    {
      "midi": 40,
      "hit": false,
      "t": 157408,
      "d": 336,
      "v": 100
    },
    {
      "midi": 50,
      "hit": false,
      "t": 157632,
      "d": 228,
      "v": 90
    },
    {
      "midi": 77,
      "hit": false,
      "t": 157632,
      "d": 228,
      "v": 100
    },
    {
      "midi": 35,
      "hit": false,
      "t": 157744,
      "d": 116,
      "v": 100
    },
    {
      "midi": 35,
      "hit": false,
      "t": 157860,
      "d": 0,
      "v": 110
    },
    {
      "midi": 39,
      "hit": false,
      "t": 157860,
      "d": 224,
      "v": 90
    },
    {
      "midi": 35,
      "hit": false,
      "t": 157860,
      "d": 448,
      "v": 100
    },
    {
      "midi": 63,
      "hit": false,
      "t": 157860,
      "d": 1804,
      "v": 58
    },
    {
      "midi": 67,
      "hit": false,
      "t": 157860,
      "d": 1804,
      "v": 58
    },
    {
      "midi": 70,
      "hit": false,
      "t": 157860,
      "d": 1804,
      "v": 58
    },
    {
      "midi": 78,
      "hit": false,
      "t": 157860,
      "d": 1804,
      "v": 100
    },
    {
      "midi": 39,
      "hit": false,
      "t": 158084,
      "d": 224,
      "v": 90
    },
    {
      "midi": 39,
      "hit": false,
      "t": 158308,
      "d": 228,
      "v": 90
    },
    {
      "midi": 40,
      "hit": false,
      "t": 158308,
      "d": 340,
      "v": 100
    },
    {
      "midi": 39,
      "hit": false,
      "t": 158536,
      "d": 224,
      "v": 90
    },
    {
      "midi": 35,
      "hit": false,
      "t": 158648,
      "d": 112,
      "v": 100
    },
    {
      "midi": 35,
      "hit": false,
      "t": 158760,
      "d": 0,
      "v": 110
    },
    {
      "midi": 39,
      "hit": false,
      "t": 158760,
      "d": 228,
      "v": 90
    },
    {
      "midi": 35,
      "hit": false,
      "t": 158760,
      "d": 228,
      "v": 100
    },
    {
      "midi": 35,
      "hit": false,
      "t": 158988,
      "d": 0,
      "v": 110
    },
    {
      "midi": 39,
      "hit": false,
      "t": 158988,
      "d": 224,
      "v": 90
    },
    {
      "midi": 35,
      "hit": false,
      "t": 158988,
      "d": 224,
      "v": 100
    },
    {
      "midi": 39,
      "hit": false,
      "t": 159212,
      "d": 224,
      "v": 90
    },
    {
      "midi": 40,
      "hit": false,
      "t": 159212,
      "d": 340,
      "v": 100
    },
    {
      "midi": 39,
      "hit": false,
      "t": 159436,
      "d": 228,
      "v": 90
    },
    {
      "midi": 35,
      "hit": false,
      "t": 159552,
      "d": 112,
      "v": 100
    },
    {
      "midi": 35,
      "hit": false,
      "t": 159664,
      "d": 0,
      "v": 110
    },
    {
      "midi": 41,
      "hit": false,
      "t": 159664,
      "d": 224,
      "v": 90
    },
    {
      "midi": 49,
      "hit": false,
      "t": 159664,
      "d": 452,
      "v": 100
    },
    {
      "midi": 35,
      "hit": false,
      "t": 159664,
      "d": 452,
      "v": 100
    },
    {
      "midi": 65,
      "hit": false,
      "t": 159664,
      "d": 1804,
      "v": 58
    },
    {
      "midi": 69,
      "hit": false,
      "t": 159664,
      "d": 1804,
      "v": 58
    },
    {
      "midi": 72,
      "hit": false,
      "t": 159664,
      "d": 1804,
      "v": 58
    },
    {
      "midi": 41,
      "hit": false,
      "t": 159888,
      "d": 228,
      "v": 90
    },
    {
      "midi": 41,
      "hit": false,
      "t": 160116,
      "d": 224,
      "v": 90
    },
    {
      "midi": 40,
      "hit": false,
      "t": 160116,
      "d": 336,
      "v": 100
    },
    {
      "midi": 41,
      "hit": false,
      "t": 160340,
      "d": 224,
      "v": 90
    },
    {
      "midi": 35,
      "hit": false,
      "t": 160452,
      "d": 112,
      "v": 100
    },
    {
      "midi": 40,
      "hit": false,
      "t": 160564,
      "d": 116,
      "v": 100
    },
    {
      "midi": 41,
      "hit": false,
      "t": 160564,
      "d": 228,
      "v": 90
    },
    {
      "midi": 77,
      "hit": false,
      "t": 160564,
      "d": 340,
      "v": 100
    },
    {
      "midi": 40,
      "hit": false,
      "t": 160680,
      "d": 112,
      "v": 100
    },
    {
      "midi": 40,
      "hit": false,
      "t": 160792,
      "d": 112,
      "v": 100
    },
    {
      "midi": 41,
      "hit": false,
      "t": 160792,
      "d": 224,
      "v": 90
    },
    {
      "midi": 40,
      "hit": false,
      "t": 160904,
      "d": 112,
      "v": 100
    },
    {
      "midi": 79,
      "hit": false,
      "t": 160904,
      "d": 340,
      "v": 100
    },
    {
      "midi": 40,
      "hit": false,
      "t": 161016,
      "d": 112,
      "v": 100
    },
    {
      "midi": 41,
      "hit": false,
      "t": 161016,
      "d": 228,
      "v": 90
    },
    {
      "midi": 40,
      "hit": false,
      "t": 161128,
      "d": 116,
      "v": 100
    },
    {
      "midi": 40,
      "hit": false,
      "t": 161244,
      "d": 112,
      "v": 100
    },
    {
      "midi": 41,
      "hit": false,
      "t": 161244,
      "d": 224,
      "v": 90
    },
    {
      "midi": 40,
      "hit": false,
      "t": 161356,
      "d": 112,
      "v": 100
    },
    {
      "midi": 44,
      "hit": false,
      "t": 161468,
      "d": 224,
      "v": 70
    },
    {
      "midi": 79,
      "hit": false,
      "t": 161468,
      "d": 452,
      "v": 80
    },
    {
      "midi": 55,
      "hit": false,
      "t": 161468,
      "d": 452,
      "v": 100
    },
    {
      "midi": 35,
      "hit": false,
      "t": 161468,
      "d": 676,
      "v": 100
    },
    {
      "midi": 60,
      "hit": false,
      "t": 161468,
      "d": 3608,
      "v": 70
    },
    {
      "midi": 63,
      "hit": false,
      "t": 161468,
      "d": 3608,
      "v": 70
    },
    {
      "midi": 67,
      "hit": false,
      "t": 161468,
      "d": 3608,
      "v": 70
    },
    {
      "midi": 70,
      "hit": false,
      "t": 161468,
      "d": 3608,
      "v": 70
    },
    {
      "midi": 44,
      "hit": false,
      "t": 161692,
      "d": 228,
      "v": 70
    },
    {
      "midi": 44,
      "hit": false,
      "t": 161920,
      "d": 224,
      "v": 70
    },
    {
      "midi": 55,
      "hit": false,
      "t": 161920,
      "d": 448,
      "v": 100
    },
    {
      "midi": 35,
      "hit": false,
      "t": 162144,
      "d": 0,
      "v": 110
    },
    {
      "midi": 44,
      "hit": false,
      "t": 162144,
      "d": 224,
      "v": 70
    },
    {
      "midi": 35,
      "hit": false,
      "t": 162144,
      "d": 224,
      "v": 100
    },
    {
      "midi": 44,
      "hit": false,
      "t": 162368,
      "d": 228,
      "v": 70
    },
    {
      "midi": 55,
      "hit": false,
      "t": 162368,
      "d": 452,
      "v": 100
    },
    {
      "midi": 40,
      "hit": false,
      "t": 162368,
      "d": 680,
      "v": 100
    },
    {
      "midi": 44,
      "hit": false,
      "t": 162596,
      "d": 224,
      "v": 70
    },
    {
      "midi": 77,
      "hit": false,
      "t": 162596,
      "d": 452,
      "v": 80
    },
    {
      "midi": 44,
      "hit": false,
      "t": 162820,
      "d": 228,
      "v": 70
    },
    {
      "midi": 55,
      "hit": false,
      "t": 162820,
      "d": 452,
      "v": 100
    },
    {
      "midi": 44,
      "hit": false,
      "t": 163048,
      "d": 224,
      "v": 70
    },
    {
      "midi": 75,
      "hit": false,
      "t": 163048,
      "d": 224,
      "v": 80
    },
    {
      "midi": 35,
      "hit": false,
      "t": 163048,
      "d": 224,
      "v": 100
    },
    {
      "midi": 35,
      "hit": false,
      "t": 163272,
      "d": 0,
      "v": 110
    },
    {
      "midi": 44,
      "hit": false,
      "t": 163272,
      "d": 224,
      "v": 70
    },
    {
      "midi": 35,
      "hit": false,
      "t": 163272,
      "d": 340,
      "v": 100
    },
    {
      "midi": 74,
      "hit": false,
      "t": 163272,
      "d": 452,
      "v": 80
    },
    {
      "midi": 55,
      "hit": false,
      "t": 163272,
      "d": 452,
      "v": 100
    },
    {
      "midi": 44,
      "hit": false,
      "t": 163496,
      "d": 228,
      "v": 70
    },
    {
      "midi": 35,
      "hit": false,
      "t": 163612,
      "d": 0,
      "v": 110
    },
    {
      "midi": 35,
      "hit": false,
      "t": 163612,
      "d": 336,
      "v": 100
    },
    {
      "midi": 44,
      "hit": false,
      "t": 163724,
      "d": 224,
      "v": 70
    },
    {
      "midi": 72,
      "hit": false,
      "t": 163724,
      "d": 452,
      "v": 80
    },
    {
      "midi": 55,
      "hit": false,
      "t": 163724,
      "d": 452,
      "v": 100
    },
    {
      "midi": 35,
      "hit": false,
      "t": 163948,
      "d": 0,
      "v": 110
    },
    {
      "midi": 44,
      "hit": false,
      "t": 163948,
      "d": 228,
      "v": 70
    },
    {
      "midi": 35,
      "hit": false,
      "t": 163948,
      "d": 228,
      "v": 100
    },
    {
      "midi": 44,
      "hit": false,
      "t": 164176,
      "d": 224,
      "v": 70
    },
    {
      "midi": 77,
      "hit": false,
      "t": 164176,
      "d": 448,
      "v": 80
    },
    {
      "midi": 55,
      "hit": false,
      "t": 164176,
      "d": 448,
      "v": 100
    },
    {
      "midi": 40,
      "hit": false,
      "t": 164176,
      "d": 676,
      "v": 100
    },
    {
      "midi": 44,
      "hit": false,
      "t": 164400,
      "d": 224,
      "v": 70
    },
    {
      "midi": 44,
      "hit": false,
      "t": 164624,
      "d": 228,
      "v": 70
    },
    {
      "midi": 75,
      "hit": false,
      "t": 164624,
      "d": 452,
      "v": 80
    },
    {
      "midi": 55,
      "hit": false,
      "t": 164624,
      "d": 452,
      "v": 100
    },
    {
      "midi": 44,
      "hit": false,
      "t": 164852,
      "d": 224,
      "v": 70
    },
    {
      "midi": 35,
      "hit": false,
      "t": 164852,
      "d": 224,
      "v": 100
    },
    {
      "midi": 35,
      "hit": false,
      "t": 165076,
      "d": 0,
      "v": 110
    },
    {
      "midi": 43,
      "hit": false,
      "t": 165076,
      "d": 228,
      "v": 70
    },
    {
      "midi": 55,
      "hit": false,
      "t": 165076,
      "d": 452,
      "v": 100
    },
    {
      "midi": 74,
      "hit": false,
      "t": 165076,
      "d": 676,
      "v": 80
    },
    {
      "midi": 35,
      "hit": false,
      "t": 165076,
      "d": 676,
      "v": 100
    },
    {
      "midi": 62,
      "hit": false,
      "t": 165076,
      "d": 3608,
      "v": 70
    },
    {
      "midi": 65,
      "hit": false,
      "t": 165076,
      "d": 3608,
      "v": 70
    },
    {
      "midi": 70,
      "hit": false,
      "t": 165076,
      "d": 3608,
      "v": 70
    },
    {
      "midi": 43,
      "hit": false,
      "t": 165304,
      "d": 224,
      "v": 70
    },
    {
      "midi": 43,
      "hit": false,
      "t": 165528,
      "d": 224,
      "v": 70
    },
    {
      "midi": 55,
      "hit": false,
      "t": 165528,
      "d": 452,
      "v": 100
    },
    {
      "midi": 35,
      "hit": false,
      "t": 165752,
      "d": 0,
      "v": 110
    },
    {
      "midi": 43,
      "hit": false,
      "t": 165752,
      "d": 228,
      "v": 70
    },
    {
      "midi": 35,
      "hit": false,
      "t": 165752,
      "d": 228,
      "v": 100
    },
    {
      "midi": 67,
      "hit": false,
      "t": 165752,
      "d": 2932,
      "v": 80
    },
    {
      "midi": 43,
      "hit": false,
      "t": 165980,
      "d": 224,
      "v": 70
    },
    {
      "midi": 55,
      "hit": false,
      "t": 165980,
      "d": 452,
      "v": 100
    },
    {
      "midi": 40,
      "hit": false,
      "t": 165980,
      "d": 676,
      "v": 100
    },
    {
      "midi": 43,
      "hit": false,
      "t": 166204,
      "d": 228,
      "v": 70
    },
    {
      "midi": 43,
      "hit": false,
      "t": 166432,
      "d": 224,
      "v": 70
    },
    {
      "midi": 43,
      "hit": false,
      "t": 166656,
      "d": 224,
      "v": 70
    },
    {
      "midi": 35,
      "hit": false,
      "t": 166656,
      "d": 224,
      "v": 100
    },
    {
      "midi": 55,
      "hit": false,
      "t": 166880,
      "d": 0,
      "v": 70
    },
    {
      "midi": 35,
      "hit": false,
      "t": 166880,
      "d": 0,
      "v": 110
    },
    {
      "midi": 43,
      "hit": false,
      "t": 166880,
      "d": 228,
      "v": 70
    },
    {
      "midi": 35,
      "hit": false,
      "t": 166880,
      "d": 340,
      "v": 100
    },
    {
      "midi": 55,
      "hit": false,
      "t": 166880,
      "d": 452,
      "v": 100
    },
    {
      "midi": 43,
      "hit": false,
      "t": 167108,
      "d": 224,
      "v": 70
    },
    {
      "midi": 35,
      "hit": false,
      "t": 167220,
      "d": 0,
      "v": 110
    },
    {
      "midi": 35,
      "hit": false,
      "t": 167220,
      "d": 336,
      "v": 100
    },
    {
      "midi": 43,
      "hit": false,
      "t": 167332,
      "d": 224,
      "v": 70
    },
    {
      "midi": 57,
      "hit": false,
      "t": 167332,
      "d": 452,
      "v": 70
    },
    {
      "midi": 55,
      "hit": false,
      "t": 167332,
      "d": 452,
      "v": 100
    },
    {
      "midi": 35,
      "hit": false,
      "t": 167556,
      "d": 0,
      "v": 110
    },
    {
      "midi": 43,
      "hit": false,
      "t": 167556,
      "d": 228,
      "v": 70
    },
    {
      "midi": 35,
      "hit": false,
      "t": 167556,
      "d": 228,
      "v": 100
    },
    {
      "midi": 43,
      "hit": false,
      "t": 167784,
      "d": 224,
      "v": 70
    },
    {
      "midi": 58,
      "hit": false,
      "t": 167784,
      "d": 452,
      "v": 70
    },
    {
      "midi": 40,
      "hit": false,
      "t": 167784,
      "d": 452,
      "v": 100
    },
    {
      "midi": 43,
      "hit": false,
      "t": 168008,
      "d": 228,
      "v": 70
    },
    {
      "midi": 55,
      "hit": false,
      "t": 168236,
      "d": 0,
      "v": 70
    },
    {
      "midi": 40,
      "hit": false,
      "t": 168236,
      "d": 112,
      "v": 100
    },
    {
      "midi": 43,
      "hit": false,
      "t": 168236,
      "d": 224,
      "v": 70
    },
    {
      "midi": 55,
      "hit": false,
      "t": 168236,
      "d": 448,
      "v": 100
    },
    {
      "midi": 40,
      "hit": false,
      "t": 168348,
      "d": 112,
      "v": 100
    },
    {
      "midi": 43,
      "hit": false,
      "t": 168460,
      "d": 224,
      "v": 70
    },
    {
      "midi": 35,
      "hit": false,
      "t": 168460,
      "d": 224,
      "v": 100
    },
    {
      "midi": 35,
      "hit": false,
      "t": 168684,
      "d": 0,
      "v": 110
    },
    {
      "midi": 44,
      "hit": false,
      "t": 168684,
      "d": 228,
      "v": 70
    },
    {
      "midi": 55,
      "hit": false,
      "t": 168684,
      "d": 452,
      "v": 100
    },
    {
      "midi": 35,
      "hit": false,
      "t": 168684,
      "d": 680,
      "v": 100
    },
    {
      "midi": 79,
      "hit": false,
      "t": 168684,
      "d": 1128,
      "v": 80
    },
    {
      "midi": 60,
      "hit": false,
      "t": 168684,
      "d": 3160,
      "v": 70
    },
    {
      "midi": 63,
      "hit": false,
      "t": 168684,
      "d": 3612,
      "v": 70
    },
    {
      "midi": 67,
      "hit": false,
      "t": 168684,
      "d": 3612,
      "v": 70
    },
    {
      "midi": 70,
      "hit": false,
      "t": 168684,
      "d": 3612,
      "v": 70
    },
    {
      "midi": 44,
      "hit": false,
      "t": 168912,
      "d": 224,
      "v": 70
    },
    {
      "midi": 44,
      "hit": false,
      "t": 169136,
      "d": 228,
      "v": 70
    },
    {
      "midi": 55,
      "hit": false,
      "t": 169136,
      "d": 452,
      "v": 100
    },
    {
      "midi": 35,
      "hit": false,
      "t": 169364,
      "d": 0,
      "v": 110
    },
    {
      "midi": 44,
      "hit": false,
      "t": 169364,
      "d": 224,
      "v": 70
    },
    {
      "midi": 35,
      "hit": false,
      "t": 169364,
      "d": 224,
      "v": 100
    },
    {
      "midi": 44,
      "hit": false,
      "t": 169588,
      "d": 224,
      "v": 70
    },
    {
      "midi": 55,
      "hit": false,
      "t": 169588,
      "d": 452,
      "v": 100
    },
    {
      "midi": 40,
      "hit": false,
      "t": 169588,
      "d": 676,
      "v": 100
    },
    {
      "midi": 44,
      "hit": false,
      "t": 169812,
      "d": 228,
      "v": 70
    },
    {
      "midi": 77,
      "hit": false,
      "t": 169812,
      "d": 452,
      "v": 80
    },
    {
      "midi": 44,
      "hit": false,
      "t": 170040,
      "d": 224,
      "v": 70
    },
    {
      "midi": 55,
      "hit": false,
      "t": 170040,
      "d": 452,
      "v": 100
    },
    {
      "midi": 44,
      "hit": false,
      "t": 170264,
      "d": 228,
      "v": 70
    },
    {
      "midi": 75,
      "hit": false,
      "t": 170264,
      "d": 228,
      "v": 80
    },
    {
      "midi": 35,
      "hit": false,
      "t": 170264,
      "d": 228,
      "v": 100
    },
    {
      "midi": 35,
      "hit": false,
      "t": 170492,
      "d": 0,
      "v": 110
    },
    {
      "midi": 44,
      "hit": false,
      "t": 170492,
      "d": 224,
      "v": 70
    },
    {
      "midi": 35,
      "hit": false,
      "t": 170492,
      "d": 336,
      "v": 100
    },
    {
      "midi": 74,
      "hit": false,
      "t": 170492,
      "d": 448,
      "v": 80
    },
    {
      "midi": 55,
      "hit": false,
      "t": 170492,
      "d": 448,
      "v": 100
    },
    {
      "midi": 44,
      "hit": false,
      "t": 170716,
      "d": 224,
      "v": 70
    },
    {
      "midi": 35,
      "hit": false,
      "t": 170828,
      "d": 0,
      "v": 110
    },
    {
      "midi": 35,
      "hit": false,
      "t": 170828,
      "d": 340,
      "v": 100
    },
    {
      "midi": 44,
      "hit": false,
      "t": 170940,
      "d": 228,
      "v": 70
    },
    {
      "midi": 72,
      "hit": false,
      "t": 170940,
      "d": 452,
      "v": 80
    },
    {
      "midi": 55,
      "hit": false,
      "t": 170940,
      "d": 452,
      "v": 100
    },
    {
      "midi": 35,
      "hit": false,
      "t": 171168,
      "d": 0,
      "v": 110
    },
    {
      "midi": 44,
      "hit": false,
      "t": 171168,
      "d": 224,
      "v": 70
    },
    {
      "midi": 35,
      "hit": false,
      "t": 171168,
      "d": 224,
      "v": 100
    },
    {
      "midi": 44,
      "hit": false,
      "t": 171392,
      "d": 224,
      "v": 70
    },
    {
      "midi": 77,
      "hit": false,
      "t": 171392,
      "d": 452,
      "v": 80
    },
    {
      "midi": 55,
      "hit": false,
      "t": 171392,
      "d": 452,
      "v": 100
    },
    {
      "midi": 40,
      "hit": false,
      "t": 171392,
      "d": 676,
      "v": 100
    },
    {
      "midi": 44,
      "hit": false,
      "t": 171616,
      "d": 228,
      "v": 70
    },
    {
      "midi": 44,
      "hit": false,
      "t": 171844,
      "d": 224,
      "v": 70
    },
    {
      "midi": 75,
      "hit": false,
      "t": 171844,
      "d": 452,
      "v": 80
    },
    {
      "midi": 58,
      "hit": false,
      "t": 171844,
      "d": 452,
      "v": 70
    },
    {
      "midi": 55,
      "hit": false,
      "t": 171844,
      "d": 452,
      "v": 100
    },
    {
      "midi": 44,
      "hit": false,
      "t": 172068,
      "d": 228,
      "v": 70
    },
    {
      "midi": 35,
      "hit": false,
      "t": 172068,
      "d": 228,
      "v": 100
    },
    {
      "midi": 35,
      "hit": false,
      "t": 172296,
      "d": 0,
      "v": 110
    },
    {
      "midi": 38,
      "hit": false,
      "t": 172296,
      "d": 224,
      "v": 70
    },
    {
      "midi": 35,
      "hit": false,
      "t": 172296,
      "d": 336,
      "v": 100
    },
    {
      "midi": 55,
      "hit": false,
      "t": 172296,
      "d": 448,
      "v": 100
    },
    {
      "midi": 74,
      "hit": false,
      "t": 172296,
      "d": 1804,
      "v": 80
    },
    {
      "midi": 57,
      "hit": false,
      "t": 172296,
      "d": 1804,
      "v": 70
    },
    {
      "midi": 62,
      "hit": false,
      "t": 172296,
      "d": 1804,
      "v": 70
    },
    {
      "midi": 67,
      "hit": false,
      "t": 172296,
      "d": 1804,
      "v": 70
    },
    {
      "midi": 69,
      "hit": false,
      "t": 172296,
      "d": 1804,
      "v": 70
    },
    {
      "midi": 38,
      "hit": false,
      "t": 172520,
      "d": 224,
      "v": 70
    },
    {
      "midi": 35,
      "hit": false,
      "t": 172632,
      "d": 0,
      "v": 110
    },
    {
      "midi": 35,
      "hit": false,
      "t": 172632,
      "d": 340,
      "v": 100
    },
    {
      "midi": 38,
      "hit": false,
      "t": 172744,
      "d": 228,
      "v": 70
    },
    {
      "midi": 55,
      "hit": false,
      "t": 172744,
      "d": 452,
      "v": 100
    },
    {
      "midi": 35,
      "hit": false,
      "t": 172972,
      "d": 0,
      "v": 110
    },
    {
      "midi": 38,
      "hit": false,
      "t": 172972,
      "d": 224,
      "v": 70
    },
    {
      "midi": 35,
      "hit": false,
      "t": 172972,
      "d": 224,
      "v": 100
    },
    {
      "midi": 38,
      "hit": false,
      "t": 173196,
      "d": 228,
      "v": 70
    },
    {
      "midi": 55,
      "hit": false,
      "t": 173196,
      "d": 452,
      "v": 100
    },
    {
      "midi": 40,
      "hit": false,
      "t": 173196,
      "d": 676,
      "v": 100
    },
    {
      "midi": 38,
      "hit": false,
      "t": 173424,
      "d": 224,
      "v": 70
    },
    {
      "midi": 38,
      "hit": false,
      "t": 173648,
      "d": 224,
      "v": 70
    },
    {
      "midi": 55,
      "hit": false,
      "t": 173648,
      "d": 452,
      "v": 100
    },
    {
      "midi": 38,
      "hit": false,
      "t": 173872,
      "d": 228,
      "v": 70
    },
    {
      "midi": 35,
      "hit": false,
      "t": 173872,
      "d": 228,
      "v": 100
    },
    {
      "midi": 44,
      "hit": false,
      "t": 174100,
      "d": 112,
      "v": 95
    },
    {
      "midi": 86,
      "hit": false,
      "t": 174100,
      "d": 1804,
      "v": 80
    },
    {
      "midi": 62,
      "hit": false,
      "t": 174100,
      "d": 1804,
      "v": 70
    },
    {
      "midi": 66,
      "hit": false,
      "t": 174100,
      "d": 1804,
      "v": 70
    },
    {
      "midi": 69,
      "hit": false,
      "t": 174100,
      "d": 1804,
      "v": 70
    },
    {
      "midi": 44,
      "hit": false,
      "t": 174212,
      "d": 112,
      "v": 95
    },
    {
      "midi": 46,
      "hit": false,
      "t": 174324,
      "d": 112,
      "v": 95
    },
    {
      "midi": 44,
      "hit": false,
      "t": 174436,
      "d": 116,
      "v": 95
    },
    {
      "midi": 44,
      "hit": false,
      "t": 174552,
      "d": 112,
      "v": 95
    },
    {
      "midi": 44,
      "hit": false,
      "t": 174664,
      "d": 112,
      "v": 95
    },
    {
      "midi": 46,
      "hit": false,
      "t": 174776,
      "d": 112,
      "v": 95
    },
    {
      "midi": 44,
      "hit": false,
      "t": 174888,
      "d": 112,
      "v": 95
    },
    {
      "midi": 44,
      "hit": false,
      "t": 175000,
      "d": 116,
      "v": 95
    },
    {
      "midi": 44,
      "hit": false,
      "t": 175116,
      "d": 112,
      "v": 95
    },
    {
      "midi": 46,
      "hit": false,
      "t": 175228,
      "d": 112,
      "v": 95
    },
    {
      "midi": 44,
      "hit": false,
      "t": 175340,
      "d": 112,
      "v": 95
    },
    {
      "midi": 44,
      "hit": false,
      "t": 175452,
      "d": 112,
      "v": 95
    },
    {
      "midi": 44,
      "hit": false,
      "t": 175564,
      "d": 116,
      "v": 95
    },
    {
      "midi": 46,
      "hit": false,
      "t": 175680,
      "d": 112,
      "v": 95
    },
    {
      "midi": 44,
      "hit": false,
      "t": 175792,
      "d": 112,
      "v": 95
    },
    {
      "midi": 44,
      "hit": false,
      "t": 175904,
      "d": 112,
      "v": 95
    },
    {
      "midi": 43,
      "hit": false,
      "t": 175904,
      "d": 224,
      "v": 100
    },
    {
      "midi": 35,
      "hit": false,
      "t": 175904,
      "d": 224,
      "v": 100
    },
    {
      "midi": 44,
      "hit": false,
      "t": 176016,
      "d": 112,
      "v": 95
    },
    {
      "midi": 35,
      "hit": false,
      "t": 176128,
      "d": 0,
      "v": 90
    },
    {
      "midi": 46,
      "hit": false,
      "t": 176128,
      "d": 116,
      "v": 95
    },
    {
      "midi": 43,
      "hit": false,
      "t": 176128,
      "d": 228,
      "v": 100
    },
    {
      "midi": 35,
      "hit": false,
      "t": 176128,
      "d": 228,
      "v": 100
    },
    {
      "midi": 44,
      "hit": false,
      "t": 176244,
      "d": 112,
      "v": 95
    },
    {
      "midi": 44,
      "hit": false,
      "t": 176356,
      "d": 112,
      "v": 95
    },
    {
      "midi": 46,
      "hit": false,
      "t": 176356,
      "d": 224,
      "v": 100
    },
    {
      "midi": 40,
      "hit": false,
      "t": 176356,
      "d": 336,
      "v": 100
    },
    {
      "midi": 44,
      "hit": false,
      "t": 176468,
      "d": 112,
      "v": 95
    },
    {
      "midi": 43,
      "hit": false,
      "t": 176580,
      "d": 112,
      "v": 100
    },
    {
      "midi": 46,
      "hit": false,
      "t": 176580,
      "d": 112,
      "v": 95
    },
    {
      "midi": 35,
      "hit": false,
      "t": 176692,
      "d": 112,
      "v": 100
    },
    {
      "midi": 44,
      "hit": false,
      "t": 176692,
      "d": 112,
      "v": 95
    },
    {
      "midi": 48,
      "hit": false,
      "t": 176692,
      "d": 1016,
      "v": 100
    },
    {
      "midi": 35,
      "hit": false,
      "t": 176804,
      "d": 0,
      "v": 90
    },
    {
      "midi": 44,
      "hit": false,
      "t": 176804,
      "d": 116,
      "v": 95
    },
    {
      "midi": 35,
      "hit": false,
      "t": 176804,
      "d": 228,
      "v": 100
    },
    {
      "midi": 44,
      "hit": false,
      "t": 176920,
      "d": 112,
      "v": 95
    },
    {
      "midi": 35,
      "hit": false,
      "t": 177032,
      "d": 0,
      "v": 90
    },
    {
      "midi": 46,
      "hit": false,
      "t": 177032,
      "d": 112,
      "v": 95
    },
    {
      "midi": 35,
      "hit": false,
      "t": 177032,
      "d": 224,
      "v": 100
    },
    {
      "midi": 44,
      "hit": false,
      "t": 177144,
      "d": 112,
      "v": 95
    },
    {
      "midi": 44,
      "hit": false,
      "t": 177256,
      "d": 112,
      "v": 95
    },
    {
      "midi": 40,
      "hit": false,
      "t": 177256,
      "d": 452,
      "v": 100
    },
    {
      "midi": 44,
      "hit": false,
      "t": 177368,
      "d": 116,
      "v": 95
    },
    {
      "midi": 46,
      "hit": false,
      "t": 177484,
      "d": 112,
      "v": 95
    },
    {
      "midi": 44,
      "hit": false,
      "t": 177596,
      "d": 112,
      "v": 95
    },
    {
      "midi": 44,
      "hit": false,
      "t": 177708,
      "d": 112,
      "v": 95
    },
    {
      "midi": 43,
      "hit": false,
      "t": 177708,
      "d": 224,
      "v": 100
    },
    {
      "midi": 35,
      "hit": false,
      "t": 177708,
      "d": 224,
      "v": 100
    },
    {
      "midi": 44,
      "hit": false,
      "t": 177820,
      "d": 112,
      "v": 95
    },
    {
      "midi": 35,
      "hit": false,
      "t": 177932,
      "d": 0,
      "v": 90
    },
    {
      "midi": 46,
      "hit": false,
      "t": 177932,
      "d": 116,
      "v": 95
    },
    {
      "midi": 43,
      "hit": false,
      "t": 177932,
      "d": 228,
      "v": 100
    },
    {
      "midi": 35,
      "hit": false,
      "t": 177932,
      "d": 228,
      "v": 100
    },
    {
      "midi": 44,
      "hit": false,
      "t": 178048,
      "d": 112,
      "v": 95
    },
    {
      "midi": 44,
      "hit": false,
      "t": 178160,
      "d": 112,
      "v": 95
    },
    {
      "midi": 46,
      "hit": false,
      "t": 178160,
      "d": 224,
      "v": 100
    },
    {
      "midi": 40,
      "hit": false,
      "t": 178160,
      "d": 336,
      "v": 100
    },
    {
      "midi": 44,
      "hit": false,
      "t": 178272,
      "d": 112,
      "v": 95
    },
    {
      "midi": 43,
      "hit": false,
      "t": 178384,
      "d": 112,
      "v": 100
    },
    {
      "midi": 46,
      "hit": false,
      "t": 178384,
      "d": 112,
      "v": 95
    },
    {
      "midi": 35,
      "hit": false,
      "t": 178496,
      "d": 116,
      "v": 100
    },
    {
      "midi": 44,
      "hit": false,
      "t": 178496,
      "d": 116,
      "v": 95
    },
    {
      "midi": 48,
      "hit": false,
      "t": 178496,
      "d": 1016,
      "v": 100
    },
    {
      "midi": 35,
      "hit": false,
      "t": 178612,
      "d": 0,
      "v": 90
    },
    {
      "midi": 44,
      "hit": false,
      "t": 178612,
      "d": 112,
      "v": 95
    },
    {
      "midi": 35,
      "hit": false,
      "t": 178612,
      "d": 224,
      "v": 100
    },
    {
      "midi": 44,
      "hit": false,
      "t": 178724,
      "d": 112,
      "v": 95
    },
    {
      "midi": 35,
      "hit": false,
      "t": 178836,
      "d": 0,
      "v": 90
    },
    {
      "midi": 46,
      "hit": false,
      "t": 178836,
      "d": 112,
      "v": 95
    },
    {
      "midi": 35,
      "hit": false,
      "t": 178836,
      "d": 224,
      "v": 100
    },
    {
      "midi": 44,
      "hit": false,
      "t": 178948,
      "d": 112,
      "v": 95
    },
    {
      "midi": 44,
      "hit": false,
      "t": 179060,
      "d": 116,
      "v": 95
    },
    {
      "midi": 40,
      "hit": false,
      "t": 179060,
      "d": 452,
      "v": 100
    },
    {
      "midi": 44,
      "hit": false,
      "t": 179176,
      "d": 112,
      "v": 95
    },
    {
      "midi": 46,
      "hit": false,
      "t": 179288,
      "d": 112,
      "v": 95
    },
    {
      "midi": 44,
      "hit": false,
      "t": 179400,
      "d": 112,
      "v": 95
    },
    {
      "midi": 44,
      "hit": false,
      "t": 179512,
      "d": 112,
      "v": 95
    },
    {
      "midi": 43,
      "hit": false,
      "t": 179512,
      "d": 228,
      "v": 100
    },
    {
      "midi": 35,
      "hit": false,
      "t": 179512,
      "d": 228,
      "v": 100
    },
    {
      "midi": 44,
      "hit": false,
      "t": 179624,
      "d": 116,
      "v": 95
    },
    {
      "midi": 35,
      "hit": false,
      "t": 179740,
      "d": 0,
      "v": 90
    },
    {
      "midi": 46,
      "hit": false,
      "t": 179740,
      "d": 112,
      "v": 95
    },
    {
      "midi": 43,
      "hit": false,
      "t": 179740,
      "d": 224,
      "v": 100
    },
    {
      "midi": 35,
      "hit": false,
      "t": 179740,
      "d": 224,
      "v": 100
    },
    {
      "midi": 44,
      "hit": false,
      "t": 179852,
      "d": 112,
      "v": 95
    },
    {
      "midi": 44,
      "hit": false,
      "t": 179964,
      "d": 112,
      "v": 95
    },
    {
      "midi": 46,
      "hit": false,
      "t": 179964,
      "d": 224,
      "v": 100
    },
    {
      "midi": 40,
      "hit": false,
      "t": 179964,
      "d": 340,
      "v": 100
    },
    {
      "midi": 44,
      "hit": false,
      "t": 180076,
      "d": 112,
      "v": 95
    },
    {
      "midi": 43,
      "hit": false,
      "t": 180188,
      "d": 116,
      "v": 100
    },
    {
      "midi": 46,
      "hit": false,
      "t": 180188,
      "d": 116,
      "v": 95
    },
    {
      "midi": 35,
      "hit": false,
      "t": 180304,
      "d": 112,
      "v": 100
    },
    {
      "midi": 44,
      "hit": false,
      "t": 180304,
      "d": 112,
      "v": 95
    },
    {
      "midi": 48,
      "hit": false,
      "t": 180304,
      "d": 1012,
      "v": 100
    },
    {
      "midi": 35,
      "hit": false,
      "t": 180416,
      "d": 0,
      "v": 90
    },
    {
      "midi": 44,
      "hit": false,
      "t": 180416,
      "d": 112,
      "v": 95
    },
    {
      "midi": 35,
      "hit": false,
      "t": 180416,
      "d": 224,
      "v": 100
    },
    {
      "midi": 44,
      "hit": false,
      "t": 180528,
      "d": 112,
      "v": 95
    },
    {
      "midi": 35,
      "hit": false,
      "t": 180640,
      "d": 0,
      "v": 90
    },
    {
      "midi": 46,
      "hit": false,
      "t": 180640,
      "d": 112,
      "v": 95
    },
    {
      "midi": 35,
      "hit": false,
      "t": 180640,
      "d": 228,
      "v": 100
    },
    {
      "midi": 44,
      "hit": false,
      "t": 180752,
      "d": 116,
      "v": 95
    },
    {
      "midi": 44,
      "hit": false,
      "t": 180868,
      "d": 112,
      "v": 95
    },
    {
      "midi": 40,
      "hit": false,
      "t": 180868,
      "d": 448,
      "v": 100
    },
    {
      "midi": 44,
      "hit": false,
      "t": 180980,
      "d": 112,
      "v": 95
    },
    {
      "midi": 46,
      "hit": false,
      "t": 181092,
      "d": 112,
      "v": 95
    },
    {
      "midi": 44,
      "hit": false,
      "t": 181204,
      "d": 112,
      "v": 95
    },
    {
      "midi": 44,
      "hit": false,
      "t": 181316,
      "d": 116,
      "v": 95
    },
    {
      "midi": 43,
      "hit": false,
      "t": 181316,
      "d": 228,
      "v": 100
    },
    {
      "midi": 35,
      "hit": false,
      "t": 181316,
      "d": 228,
      "v": 100
    },
    {
      "midi": 44,
      "hit": false,
      "t": 181432,
      "d": 112,
      "v": 95
    },
    {
      "midi": 35,
      "hit": false,
      "t": 181544,
      "d": 0,
      "v": 90
    },
    {
      "midi": 46,
      "hit": false,
      "t": 181544,
      "d": 112,
      "v": 95
    },
    {
      "midi": 35,
      "hit": false,
      "t": 181544,
      "d": 224,
      "v": 100
    },
    {
      "midi": 43,
      "hit": false,
      "t": 181544,
      "d": 1576,
      "v": 100
    },
    {
      "midi": 44,
      "hit": false,
      "t": 181656,
      "d": 112,
      "v": 95
    },
    {
      "midi": 44,
      "hit": false,
      "t": 181768,
      "d": 112,
      "v": 95
    },
    {
      "midi": 44,
      "hit": false,
      "t": 181880,
      "d": 112,
      "v": 95
    },
    {
      "midi": 46,
      "hit": false,
      "t": 181992,
      "d": 116,
      "v": 95
    },
    {
      "midi": 44,
      "hit": false,
      "t": 182108,
      "d": 112,
      "v": 95
    },
    {
      "midi": 44,
      "hit": false,
      "t": 182220,
      "d": 112,
      "v": 95
    },
    {
      "midi": 44,
      "hit": false,
      "t": 182332,
      "d": 112,
      "v": 95
    },
    {
      "midi": 46,
      "hit": false,
      "t": 182444,
      "d": 112,
      "v": 95
    },
    {
      "midi": 44,
      "hit": false,
      "t": 182556,
      "d": 116,
      "v": 95
    },
    {
      "midi": 44,
      "hit": false,
      "t": 182672,
      "d": 112,
      "v": 95
    },
    {
      "midi": 44,
      "hit": false,
      "t": 182784,
      "d": 112,
      "v": 95
    },
    {
      "midi": 46,
      "hit": false,
      "t": 182896,
      "d": 112,
      "v": 95
    },
    {
      "midi": 44,
      "hit": false,
      "t": 183008,
      "d": 112,
      "v": 95
    },
    {
      "midi": 44,
      "hit": false,
      "t": 183120,
      "d": 116,
      "v": 95
    },
    {
      "midi": 43,
      "hit": false,
      "t": 183120,
      "d": 228,
      "v": 100
    },
    {
      "midi": 35,
      "hit": false,
      "t": 183120,
      "d": 228,
      "v": 100
    },
    {
      "midi": 57,
      "hit": false,
      "t": 183120,
      "d": 1808,
      "v": 100
    },
    {
      "midi": 44,
      "hit": false,
      "t": 183236,
      "d": 112,
      "v": 95
    },
    {
      "midi": 35,
      "hit": false,
      "t": 183348,
      "d": 0,
      "v": 90
    },
    {
      "midi": 46,
      "hit": false,
      "t": 183348,
      "d": 112,
      "v": 95
    },
    {
      "midi": 43,
      "hit": false,
      "t": 183348,
      "d": 224,
      "v": 100
    },
    {
      "midi": 35,
      "hit": false,
      "t": 183348,
      "d": 224,
      "v": 100
    },
    {
      "midi": 44,
      "hit": false,
      "t": 183460,
      "d": 112,
      "v": 95
    },
    {
      "midi": 44,
      "hit": false,
      "t": 183572,
      "d": 112,
      "v": 95
    },
    {
      "midi": 46,
      "hit": false,
      "t": 183572,
      "d": 228,
      "v": 100
    },
    {
      "midi": 40,
      "hit": false,
      "t": 183572,
      "d": 340,
      "v": 100
    },
    {
      "midi": 44,
      "hit": false,
      "t": 183684,
      "d": 116,
      "v": 95
    },
    {
      "midi": 43,
      "hit": false,
      "t": 183800,
      "d": 112,
      "v": 100
    },
    {
      "midi": 46,
      "hit": false,
      "t": 183800,
      "d": 112,
      "v": 95
    },
    {
      "midi": 35,
      "hit": false,
      "t": 183912,
      "d": 112,
      "v": 100
    },
    {
      "midi": 44,
      "hit": false,
      "t": 183912,
      "d": 112,
      "v": 95
    },
    {
      "midi": 48,
      "hit": false,
      "t": 183912,
      "d": 1016,
      "v": 100
    },
    {
      "midi": 35,
      "hit": false,
      "t": 184024,
      "d": 0,
      "v": 90
    },
    {
      "midi": 44,
      "hit": false,
      "t": 184024,
      "d": 112,
      "v": 95
    },
    {
      "midi": 35,
      "hit": false,
      "t": 184024,
      "d": 224,
      "v": 100
    },
    {
      "midi": 44,
      "hit": false,
      "t": 184136,
      "d": 112,
      "v": 95
    },
    {
      "midi": 35,
      "hit": false,
      "t": 184248,
      "d": 0,
      "v": 90
    },
    {
      "midi": 46,
      "hit": false,
      "t": 184248,
      "d": 116,
      "v": 95
    },
    {
      "midi": 35,
      "hit": false,
      "t": 184248,
      "d": 228,
      "v": 100
    },
    {
      "midi": 44,
      "hit": false,
      "t": 184364,
      "d": 112,
      "v": 95
    },
    {
      "midi": 44,
      "hit": false,
      "t": 184476,
      "d": 112,
      "v": 95
    },
    {
      "midi": 40,
      "hit": false,
      "t": 184476,
      "d": 452,
      "v": 100
    },
    {
      "midi": 44,
      "hit": false,
      "t": 184588,
      "d": 112,
      "v": 95
    },
    {
      "midi": 46,
      "hit": false,
      "t": 184700,
      "d": 112,
      "v": 95
    },
    {
      "midi": 44,
      "hit": false,
      "t": 184812,
      "d": 116,
      "v": 95
    },
    {
      "midi": 44,
      "hit": false,
      "t": 184928,
      "d": 112,
      "v": 95
    },
    {
      "midi": 43,
      "hit": false,
      "t": 184928,
      "d": 224,
      "v": 100
    },
    {
      "midi": 35,
      "hit": false,
      "t": 184928,
      "d": 224,
      "v": 100
    },
    {
      "midi": 44,
      "hit": false,
      "t": 185040,
      "d": 112,
      "v": 95
    },
    {
      "midi": 35,
      "hit": false,
      "t": 185152,
      "d": 0,
      "v": 90
    },
    {
      "midi": 46,
      "hit": false,
      "t": 185152,
      "d": 112,
      "v": 95
    },
    {
      "midi": 43,
      "hit": false,
      "t": 185152,
      "d": 224,
      "v": 100
    },
    {
      "midi": 35,
      "hit": false,
      "t": 185152,
      "d": 224,
      "v": 100
    },
    {
      "midi": 44,
      "hit": false,
      "t": 185264,
      "d": 112,
      "v": 95
    },
    {
      "midi": 44,
      "hit": false,
      "t": 185376,
      "d": 116,
      "v": 95
    },
    {
      "midi": 46,
      "hit": false,
      "t": 185376,
      "d": 228,
      "v": 100
    },
    {
      "midi": 40,
      "hit": false,
      "t": 185376,
      "d": 340,
      "v": 100
    },
    {
      "midi": 44,
      "hit": false,
      "t": 185492,
      "d": 112,
      "v": 95
    },
    {
      "midi": 43,
      "hit": false,
      "t": 185604,
      "d": 112,
      "v": 100
    },
    {
      "midi": 46,
      "hit": false,
      "t": 185604,
      "d": 112,
      "v": 95
    },
    {
      "midi": 35,
      "hit": false,
      "t": 185716,
      "d": 112,
      "v": 100
    },
    {
      "midi": 44,
      "hit": false,
      "t": 185716,
      "d": 112,
      "v": 95
    },
    {
      "midi": 48,
      "hit": false,
      "t": 185716,
      "d": 1016,
      "v": 100
    },
    {
      "midi": 35,
      "hit": false,
      "t": 185828,
      "d": 0,
      "v": 90
    },
    {
      "midi": 44,
      "hit": false,
      "t": 185828,
      "d": 112,
      "v": 95
    },
    {
      "midi": 35,
      "hit": false,
      "t": 185828,
      "d": 228,
      "v": 100
    },
    {
      "midi": 44,
      "hit": false,
      "t": 185940,
      "d": 116,
      "v": 95
    },
    {
      "midi": 35,
      "hit": false,
      "t": 186056,
      "d": 0,
      "v": 90
    },
    {
      "midi": 46,
      "hit": false,
      "t": 186056,
      "d": 112,
      "v": 95
    },
    {
      "midi": 35,
      "hit": false,
      "t": 186056,
      "d": 224,
      "v": 100
    },
    {
      "midi": 44,
      "hit": false,
      "t": 186168,
      "d": 112,
      "v": 95
    },
    {
      "midi": 44,
      "hit": false,
      "t": 186280,
      "d": 112,
      "v": 95
    },
    {
      "midi": 40,
      "hit": false,
      "t": 186280,
      "d": 452,
      "v": 100
    },
    {
      "midi": 44,
      "hit": false,
      "t": 186392,
      "d": 112,
      "v": 95
    },
    {
      "midi": 46,
      "hit": false,
      "t": 186504,
      "d": 112,
      "v": 95
    },
    {
      "midi": 44,
      "hit": false,
      "t": 186616,
      "d": 116,
      "v": 95
    },
    {
      "midi": 44,
      "hit": false,
      "t": 186732,
      "d": 112,
      "v": 95
    },
    {
      "midi": 43,
      "hit": false,
      "t": 186732,
      "d": 224,
      "v": 100
    },
    {
      "midi": 35,
      "hit": false,
      "t": 186732,
      "d": 224,
      "v": 100
    },
    {
      "midi": 44,
      "hit": false,
      "t": 186844,
      "d": 112,
      "v": 95
    },
    {
      "midi": 35,
      "hit": false,
      "t": 186956,
      "d": 0,
      "v": 90
    },
    {
      "midi": 46,
      "hit": false,
      "t": 186956,
      "d": 112,
      "v": 95
    },
    {
      "midi": 43,
      "hit": false,
      "t": 186956,
      "d": 224,
      "v": 100
    },
    {
      "midi": 35,
      "hit": false,
      "t": 186956,
      "d": 224,
      "v": 100
    },
    {
      "midi": 44,
      "hit": false,
      "t": 187068,
      "d": 112,
      "v": 95
    },
    {
      "midi": 44,
      "hit": false,
      "t": 187180,
      "d": 116,
      "v": 95
    },
    {
      "midi": 46,
      "hit": false,
      "t": 187180,
      "d": 228,
      "v": 100
    },
    {
      "midi": 40,
      "hit": false,
      "t": 187180,
      "d": 340,
      "v": 100
    },
    {
      "midi": 44,
      "hit": false,
      "t": 187296,
      "d": 112,
      "v": 95
    },
    {
      "midi": 43,
      "hit": false,
      "t": 187408,
      "d": 112,
      "v": 100
    },
    {
      "midi": 46,
      "hit": false,
      "t": 187408,
      "d": 112,
      "v": 95
    },
    {
      "midi": 35,
      "hit": false,
      "t": 187520,
      "d": 112,
      "v": 100
    },
    {
      "midi": 44,
      "hit": false,
      "t": 187520,
      "d": 112,
      "v": 95
    },
    {
      "midi": 48,
      "hit": false,
      "t": 187520,
      "d": 1016,
      "v": 100
    },
    {
      "midi": 35,
      "hit": false,
      "t": 187632,
      "d": 0,
      "v": 90
    },
    {
      "midi": 44,
      "hit": false,
      "t": 187632,
      "d": 112,
      "v": 95
    },
    {
      "midi": 35,
      "hit": false,
      "t": 187632,
      "d": 228,
      "v": 100
    },
    {
      "midi": 44,
      "hit": false,
      "t": 187744,
      "d": 116,
      "v": 95
    },
    {
      "midi": 35,
      "hit": false,
      "t": 187860,
      "d": 0,
      "v": 90
    },
    {
      "midi": 46,
      "hit": false,
      "t": 187860,
      "d": 112,
      "v": 95
    },
    {
      "midi": 35,
      "hit": false,
      "t": 187860,
      "d": 224,
      "v": 100
    },
    {
      "midi": 44,
      "hit": false,
      "t": 187972,
      "d": 112,
      "v": 95
    },
    {
      "midi": 44,
      "hit": false,
      "t": 188084,
      "d": 112,
      "v": 95
    },
    {
      "midi": 40,
      "hit": false,
      "t": 188084,
      "d": 452,
      "v": 100
    },
    {
      "midi": 44,
      "hit": false,
      "t": 188196,
      "d": 112,
      "v": 95
    },
    {
      "midi": 46,
      "hit": false,
      "t": 188308,
      "d": 116,
      "v": 95
    },
    {
      "midi": 44,
      "hit": false,
      "t": 188424,
      "d": 112,
      "v": 95
    },
    {
      "midi": 44,
      "hit": false,
      "t": 188536,
      "d": 112,
      "v": 95
    },
    {
      "midi": 50,
      "hit": false,
      "t": 188536,
      "d": 452,
      "v": 100
    },
    {
      "midi": 74,
      "hit": false,
      "t": 188536,
      "d": 452,
      "v": 100
    },
    {
      "midi": 35,
      "hit": false,
      "t": 188536,
      "d": 452,
      "v": 100
    },
    {
      "midi": 44,
      "hit": false,
      "t": 188648,
      "d": 112,
      "v": 95
    },
    {
      "midi": 46,
      "hit": false,
      "t": 188760,
      "d": 112,
      "v": 95
    },
    {
      "midi": 44,
      "hit": false,
      "t": 188872,
      "d": 116,
      "v": 95
    },
    {
      "midi": 35,
      "hit": false,
      "t": 188988,
      "d": 0,
      "v": 90
    },
    {
      "midi": 44,
      "hit": false,
      "t": 188988,
      "d": 112,
      "v": 95
    },
    {
      "midi": 50,
      "hit": false,
      "t": 188988,
      "d": 448,
      "v": 100
    },
    {
      "midi": 74,
      "hit": false,
      "t": 188988,
      "d": 448,
      "v": 100
    },
    {
      "midi": 35,
      "hit": false,
      "t": 188988,
      "d": 448,
      "v": 100
    },
    {
      "midi": 44,
      "hit": false,
      "t": 189100,
      "d": 112,
      "v": 95
    },
    {
      "midi": 46,
      "hit": false,
      "t": 189212,
      "d": 112,
      "v": 95
    },
    {
      "midi": 44,
      "hit": false,
      "t": 189324,
      "d": 112,
      "v": 95
    },
    {
      "midi": 35,
      "hit": false,
      "t": 189436,
      "d": 0,
      "v": 90
    },
    {
      "midi": 44,
      "hit": false,
      "t": 189436,
      "d": 116,
      "v": 95
    },
    {
      "midi": 50,
      "hit": false,
      "t": 189436,
      "d": 452,
      "v": 100
    },
    {
      "midi": 74,
      "hit": false,
      "t": 189436,
      "d": 452,
      "v": 100
    },
    {
      "midi": 35,
      "hit": false,
      "t": 189436,
      "d": 452,
      "v": 100
    },
    {
      "midi": 44,
      "hit": false,
      "t": 189552,
      "d": 112,
      "v": 95
    },
    {
      "midi": 46,
      "hit": false,
      "t": 189664,
      "d": 112,
      "v": 95
    },
    {
      "midi": 44,
      "hit": false,
      "t": 189776,
      "d": 112,
      "v": 95
    },
    {
      "midi": 35,
      "hit": false,
      "t": 189888,
      "d": 0,
      "v": 90
    },
    {
      "midi": 44,
      "hit": false,
      "t": 189888,
      "d": 112,
      "v": 95
    },
    {
      "midi": 50,
      "hit": false,
      "t": 189888,
      "d": 452,
      "v": 100
    },
    {
      "midi": 74,
      "hit": false,
      "t": 189888,
      "d": 452,
      "v": 100
    },
    {
      "midi": 35,
      "hit": false,
      "t": 189888,
      "d": 452,
      "v": 100
    },
    {
      "midi": 44,
      "hit": false,
      "t": 190000,
      "d": 116,
      "v": 95
    },
    {
      "midi": 46,
      "hit": false,
      "t": 190116,
      "d": 112,
      "v": 95
    },
    {
      "midi": 44,
      "hit": false,
      "t": 190228,
      "d": 112,
      "v": 95
    },
    {
      "midi": 35,
      "hit": false,
      "t": 190340,
      "d": 0,
      "v": 90
    },
    {
      "midi": 44,
      "hit": false,
      "t": 190340,
      "d": 112,
      "v": 95
    },
    {
      "midi": 43,
      "hit": false,
      "t": 190340,
      "d": 224,
      "v": 100
    },
    {
      "midi": 35,
      "hit": false,
      "t": 190340,
      "d": 224,
      "v": 100
    },
    {
      "midi": 44,
      "hit": false,
      "t": 190452,
      "d": 112,
      "v": 95
    },
    {
      "midi": 35,
      "hit": false,
      "t": 190564,
      "d": 0,
      "v": 90
    },
    {
      "midi": 46,
      "hit": false,
      "t": 190564,
      "d": 116,
      "v": 95
    },
    {
      "midi": 43,
      "hit": false,
      "t": 190564,
      "d": 228,
      "v": 100
    },
    {
      "midi": 35,
      "hit": false,
      "t": 190564,
      "d": 228,
      "v": 100
    },
    {
      "midi": 44,
      "hit": false,
      "t": 190680,
      "d": 112,
      "v": 95
    },
    {
      "midi": 44,
      "hit": false,
      "t": 190792,
      "d": 112,
      "v": 95
    },
    {
      "midi": 46,
      "hit": false,
      "t": 190792,
      "d": 224,
      "v": 100
    },
    {
      "midi": 40,
      "hit": false,
      "t": 190792,
      "d": 336,
      "v": 100
    },
    {
      "midi": 44,
      "hit": false,
      "t": 190904,
      "d": 112,
      "v": 95
    },
    {
      "midi": 43,
      "hit": false,
      "t": 191016,
      "d": 112,
      "v": 100
    },
    {
      "midi": 46,
      "hit": false,
      "t": 191016,
      "d": 112,
      "v": 95
    },
    {
      "midi": 35,
      "hit": false,
      "t": 191128,
      "d": 116,
      "v": 100
    },
    {
      "midi": 44,
      "hit": false,
      "t": 191128,
      "d": 116,
      "v": 95
    },
    {
      "midi": 48,
      "hit": false,
      "t": 191128,
      "d": 1016,
      "v": 100
    },
    {
      "midi": 35,
      "hit": false,
      "t": 191244,
      "d": 0,
      "v": 90
    },
    {
      "midi": 44,
      "hit": false,
      "t": 191244,
      "d": 112,
      "v": 95
    },
    {
      "midi": 35,
      "hit": false,
      "t": 191244,
      "d": 224,
      "v": 100
    },
    {
      "midi": 44,
      "hit": false,
      "t": 191356,
      "d": 112,
      "v": 95
    },
    {
      "midi": 35,
      "hit": false,
      "t": 191468,
      "d": 0,
      "v": 90
    },
    {
      "midi": 46,
      "hit": false,
      "t": 191468,
      "d": 112,
      "v": 95
    },
    {
      "midi": 35,
      "hit": false,
      "t": 191468,
      "d": 224,
      "v": 100
    },
    {
      "midi": 44,
      "hit": false,
      "t": 191580,
      "d": 112,
      "v": 95
    },
    {
      "midi": 44,
      "hit": false,
      "t": 191692,
      "d": 112,
      "v": 95
    },
    {
      "midi": 40,
      "hit": false,
      "t": 191692,
      "d": 452,
      "v": 100
    },
    {
      "midi": 44,
      "hit": false,
      "t": 191804,
      "d": 116,
      "v": 95
    },
    {
      "midi": 46,
      "hit": false,
      "t": 191920,
      "d": 112,
      "v": 95
    },
    {
      "midi": 44,
      "hit": false,
      "t": 192032,
      "d": 112,
      "v": 95
    },
    {
      "midi": 44,
      "hit": false,
      "t": 192144,
      "d": 112,
      "v": 95
    },
    {
      "midi": 43,
      "hit": false,
      "t": 192144,
      "d": 224,
      "v": 100
    },
    {
      "midi": 35,
      "hit": false,
      "t": 192144,
      "d": 224,
      "v": 100
    },
    {
      "midi": 44,
      "hit": false,
      "t": 192256,
      "d": 112,
      "v": 95
    },
    {
      "midi": 35,
      "hit": false,
      "t": 192368,
      "d": 0,
      "v": 90
    },
    {
      "midi": 46,
      "hit": false,
      "t": 192368,
      "d": 116,
      "v": 95
    },
    {
      "midi": 43,
      "hit": false,
      "t": 192368,
      "d": 228,
      "v": 100
    },
    {
      "midi": 35,
      "hit": false,
      "t": 192368,
      "d": 228,
      "v": 100
    },
    {
      "midi": 44,
      "hit": false,
      "t": 192484,
      "d": 112,
      "v": 95
    },
    {
      "midi": 44,
      "hit": false,
      "t": 192596,
      "d": 112,
      "v": 95
    },
    {
      "midi": 46,
      "hit": false,
      "t": 192596,
      "d": 224,
      "v": 100
    },
    {
      "midi": 40,
      "hit": false,
      "t": 192596,
      "d": 336,
      "v": 100
    },
    {
      "midi": 44,
      "hit": false,
      "t": 192708,
      "d": 112,
      "v": 95
    },
    {
      "midi": 43,
      "hit": false,
      "t": 192820,
      "d": 112,
      "v": 100
    },
    {
      "midi": 46,
      "hit": false,
      "t": 192820,
      "d": 112,
      "v": 95
    },
    {
      "midi": 35,
      "hit": false,
      "t": 192932,
      "d": 116,
      "v": 100
    },
    {
      "midi": 44,
      "hit": false,
      "t": 192932,
      "d": 116,
      "v": 95
    },
    {
      "midi": 48,
      "hit": false,
      "t": 192932,
      "d": 1016,
      "v": 100
    },
    {
      "midi": 35,
      "hit": false,
      "t": 193048,
      "d": 0,
      "v": 90
    },
    {
      "midi": 44,
      "hit": false,
      "t": 193048,
      "d": 112,
      "v": 95
    },
    {
      "midi": 35,
      "hit": false,
      "t": 193048,
      "d": 224,
      "v": 100
    },
    {
      "midi": 44,
      "hit": false,
      "t": 193160,
      "d": 112,
      "v": 95
    },
    {
      "midi": 35,
      "hit": false,
      "t": 193272,
      "d": 0,
      "v": 90
    },
    {
      "midi": 46,
      "hit": false,
      "t": 193272,
      "d": 112,
      "v": 95
    },
    {
      "midi": 35,
      "hit": false,
      "t": 193272,
      "d": 224,
      "v": 100
    },
    {
      "midi": 44,
      "hit": false,
      "t": 193384,
      "d": 112,
      "v": 95
    },
    {
      "midi": 44,
      "hit": false,
      "t": 193496,
      "d": 116,
      "v": 95
    },
    {
      "midi": 40,
      "hit": false,
      "t": 193496,
      "d": 452,
      "v": 100
    },
    {
      "midi": 44,
      "hit": false,
      "t": 193612,
      "d": 112,
      "v": 95
    },
    {
      "midi": 46,
      "hit": false,
      "t": 193724,
      "d": 112,
      "v": 95
    },
    {
      "midi": 44,
      "hit": false,
      "t": 193836,
      "d": 112,
      "v": 95
    },
    {
      "midi": 44,
      "hit": false,
      "t": 193948,
      "d": 112,
      "v": 95
    },
    {
      "midi": 43,
      "hit": false,
      "t": 193948,
      "d": 228,
      "v": 100
    },
    {
      "midi": 35,
      "hit": false,
      "t": 193948,
      "d": 228,
      "v": 100
    },
    {
      "midi": 44,
      "hit": false,
      "t": 194060,
      "d": 116,
      "v": 95
    },
    {
      "midi": 35,
      "hit": false,
      "t": 194176,
      "d": 0,
      "v": 90
    },
    {
      "midi": 46,
      "hit": false,
      "t": 194176,
      "d": 112,
      "v": 95
    },
    {
      "midi": 43,
      "hit": false,
      "t": 194176,
      "d": 224,
      "v": 100
    },
    {
      "midi": 35,
      "hit": false,
      "t": 194176,
      "d": 224,
      "v": 100
    },
    {
      "midi": 44,
      "hit": false,
      "t": 194288,
      "d": 112,
      "v": 95
    },
    {
      "midi": 44,
      "hit": false,
      "t": 194400,
      "d": 112,
      "v": 95
    },
    {
      "midi": 46,
      "hit": false,
      "t": 194400,
      "d": 224,
      "v": 100
    },
    {
      "midi": 40,
      "hit": false,
      "t": 194400,
      "d": 340,
      "v": 100
    },
    {
      "midi": 44,
      "hit": false,
      "t": 194512,
      "d": 112,
      "v": 95
    },
    {
      "midi": 43,
      "hit": false,
      "t": 194624,
      "d": 116,
      "v": 100
    },
    {
      "midi": 46,
      "hit": false,
      "t": 194624,
      "d": 116,
      "v": 95
    },
    {
      "midi": 35,
      "hit": false,
      "t": 194740,
      "d": 112,
      "v": 100
    },
    {
      "midi": 44,
      "hit": false,
      "t": 194740,
      "d": 112,
      "v": 95
    },
    {
      "midi": 48,
      "hit": false,
      "t": 194740,
      "d": 1012,
      "v": 100
    },
    {
      "midi": 35,
      "hit": false,
      "t": 194852,
      "d": 0,
      "v": 90
    },
    {
      "midi": 44,
      "hit": false,
      "t": 194852,
      "d": 112,
      "v": 95
    },
    {
      "midi": 35,
      "hit": false,
      "t": 194852,
      "d": 224,
      "v": 100
    },
    {
      "midi": 44,
      "hit": false,
      "t": 194964,
      "d": 112,
      "v": 95
    },
    {
      "midi": 35,
      "hit": false,
      "t": 195076,
      "d": 0,
      "v": 90
    },
    {
      "midi": 46,
      "hit": false,
      "t": 195076,
      "d": 112,
      "v": 95
    },
    {
      "midi": 35,
      "hit": false,
      "t": 195076,
      "d": 228,
      "v": 100
    },
    {
      "midi": 44,
      "hit": false,
      "t": 195188,
      "d": 116,
      "v": 95
    },
    {
      "midi": 44,
      "hit": false,
      "t": 195304,
      "d": 112,
      "v": 95
    },
    {
      "midi": 40,
      "hit": false,
      "t": 195304,
      "d": 448,
      "v": 100
    },
    {
      "midi": 44,
      "hit": false,
      "t": 195416,
      "d": 112,
      "v": 95
    },
    {
      "midi": 46,
      "hit": false,
      "t": 195528,
      "d": 112,
      "v": 95
    },
    {
      "midi": 44,
      "hit": false,
      "t": 195640,
      "d": 112,
      "v": 95
    },
    {
      "midi": 44,
      "hit": false,
      "t": 195752,
      "d": 116,
      "v": 95
    },
    {
      "midi": 43,
      "hit": false,
      "t": 195752,
      "d": 228,
      "v": 100
    },
    {
      "midi": 35,
      "hit": false,
      "t": 195752,
      "d": 228,
      "v": 100
    },
    {
      "midi": 44,
      "hit": false,
      "t": 195868,
      "d": 112,
      "v": 95
    },
    {
      "midi": 35,
      "hit": false,
      "t": 195980,
      "d": 0,
      "v": 90
    },
    {
      "midi": 46,
      "hit": false,
      "t": 195980,
      "d": 112,
      "v": 95
    },
    {
      "midi": 43,
      "hit": false,
      "t": 195980,
      "d": 224,
      "v": 100
    },
    {
      "midi": 35,
      "hit": false,
      "t": 195980,
      "d": 224,
      "v": 100
    },
    {
      "midi": 44,
      "hit": false,
      "t": 196092,
      "d": 112,
      "v": 95
    },
    {
      "midi": 44,
      "hit": false,
      "t": 196204,
      "d": 112,
      "v": 95
    },
    {
      "midi": 43,
      "hit": false,
      "t": 196204,
      "d": 228,
      "v": 100
    },
    {
      "midi": 44,
      "hit": false,
      "t": 196316,
      "d": 116,
      "v": 95
    },
    {
      "midi": 41,
      "hit": false,
      "t": 196432,
      "d": 112,
      "v": 100
    },
    {
      "midi": 46,
      "hit": false,
      "t": 196432,
      "d": 112,
      "v": 95
    },
    {
      "midi": 44,
      "hit": false,
      "t": 196544,
      "d": 112,
      "v": 95
    },
    {
      "midi": 43,
      "hit": false,
      "t": 196544,
      "d": 1012,
      "v": 100
    },
    {
      "midi": 44,
      "hit": false,
      "t": 196656,
      "d": 112,
      "v": 95
    },
    {
      "midi": 44,
      "hit": false,
      "t": 196768,
      "d": 112,
      "v": 95
    },
    {
      "midi": 46,
      "hit": false,
      "t": 196880,
      "d": 112,
      "v": 95
    },
    {
      "midi": 44,
      "hit": false,
      "t": 196992,
      "d": 116,
      "v": 95
    },
    {
      "midi": 44,
      "hit": false,
      "t": 197108,
      "d": 112,
      "v": 95
    },
    {
      "midi": 44,
      "hit": false,
      "t": 197220,
      "d": 112,
      "v": 95
    },
    {
      "midi": 46,
      "hit": false,
      "t": 197332,
      "d": 112,
      "v": 95
    },
    {
      "midi": 40,
      "hit": false,
      "t": 197332,
      "d": 112,
      "v": 100
    },
    {
      "midi": 44,
      "hit": false,
      "t": 197444,
      "d": 112,
      "v": 95
    },
    {
      "midi": 40,
      "hit": false,
      "t": 197444,
      "d": 112,
      "v": 100
    },
    {
      "midi": 44,
      "hit": false,
      "t": 197556,
      "d": 116,
      "v": 95
    },
    {
      "midi": 43,
      "hit": false,
      "t": 197556,
      "d": 228,
      "v": 100
    },
    {
      "midi": 35,
      "hit": false,
      "t": 197556,
      "d": 228,
      "v": 100
    },
    {
      "midi": 57,
      "hit": false,
      "t": 197556,
      "d": 1808,
      "v": 100
    },
    {
      "midi": 44,
      "hit": false,
      "t": 197672,
      "d": 112,
      "v": 95
    },
    {
      "midi": 35,
      "hit": false,
      "t": 197784,
      "d": 0,
      "v": 90
    },
    {
      "midi": 46,
      "hit": false,
      "t": 197784,
      "d": 112,
      "v": 95
    },
    {
      "midi": 43,
      "hit": false,
      "t": 197784,
      "d": 224,
      "v": 100
    },
    {
      "midi": 35,
      "hit": false,
      "t": 197784,
      "d": 224,
      "v": 100
    },
    {
      "midi": 44,
      "hit": false,
      "t": 197896,
      "d": 112,
      "v": 95
    },
    {
      "midi": 44,
      "hit": false,
      "t": 198008,
      "d": 112,
      "v": 95
    },
    {
      "midi": 46,
      "hit": false,
      "t": 198008,
      "d": 228,
      "v": 100
    },
    {
      "midi": 40,
      "hit": false,
      "t": 198008,
      "d": 340,
      "v": 100
    },
    {
      "midi": 44,
      "hit": false,
      "t": 198120,
      "d": 116,
      "v": 95
    },
    {
      "midi": 43,
      "hit": false,
      "t": 198236,
      "d": 112,
      "v": 100
    },
    {
      "midi": 46,
      "hit": false,
      "t": 198236,
      "d": 112,
      "v": 95
    },
    {
      "midi": 35,
      "hit": false,
      "t": 198348,
      "d": 112,
      "v": 100
    },
    {
      "midi": 44,
      "hit": false,
      "t": 198348,
      "d": 112,
      "v": 95
    },
    {
      "midi": 48,
      "hit": false,
      "t": 198348,
      "d": 1016,
      "v": 100
    },
    {
      "midi": 35,
      "hit": false,
      "t": 198460,
      "d": 0,
      "v": 90
    },
    {
      "midi": 44,
      "hit": false,
      "t": 198460,
      "d": 112,
      "v": 95
    },
    {
      "midi": 35,
      "hit": false,
      "t": 198460,
      "d": 224,
      "v": 100
    },
    {
      "midi": 44,
      "hit": false,
      "t": 198572,
      "d": 112,
      "v": 95
    },
    {
      "midi": 35,
      "hit": false,
      "t": 198684,
      "d": 0,
      "v": 90
    },
    {
      "midi": 46,
      "hit": false,
      "t": 198684,
      "d": 116,
      "v": 95
    },
    {
      "midi": 35,
      "hit": false,
      "t": 198684,
      "d": 228,
      "v": 100
    },
    {
      "midi": 44,
      "hit": false,
      "t": 198800,
      "d": 112,
      "v": 95
    },
    {
      "midi": 44,
      "hit": false,
      "t": 198912,
      "d": 112,
      "v": 95
    },
    {
      "midi": 40,
      "hit": false,
      "t": 198912,
      "d": 452,
      "v": 100
    },
    {
      "midi": 44,
      "hit": false,
      "t": 199024,
      "d": 112,
      "v": 95
    },
    {
      "midi": 46,
      "hit": false,
      "t": 199136,
      "d": 112,
      "v": 95
    },
    {
      "midi": 44,
      "hit": false,
      "t": 199248,
      "d": 116,
      "v": 95
    },
    {
      "midi": 44,
      "hit": false,
      "t": 199364,
      "d": 112,
      "v": 95
    },
    {
      "midi": 43,
      "hit": false,
      "t": 199364,
      "d": 224,
      "v": 100
    },
    {
      "midi": 35,
      "hit": false,
      "t": 199364,
      "d": 224,
      "v": 100
    },
    {
      "midi": 44,
      "hit": false,
      "t": 199476,
      "d": 112,
      "v": 95
    },
    {
      "midi": 35,
      "hit": false,
      "t": 199588,
      "d": 0,
      "v": 90
    },
    {
      "midi": 46,
      "hit": false,
      "t": 199588,
      "d": 112,
      "v": 95
    },
    {
      "midi": 43,
      "hit": false,
      "t": 199588,
      "d": 224,
      "v": 100
    },
    {
      "midi": 35,
      "hit": false,
      "t": 199588,
      "d": 224,
      "v": 100
    },
    {
      "midi": 44,
      "hit": false,
      "t": 199700,
      "d": 112,
      "v": 95
    },
    {
      "midi": 44,
      "hit": false,
      "t": 199812,
      "d": 116,
      "v": 95
    },
    {
      "midi": 46,
      "hit": false,
      "t": 199812,
      "d": 228,
      "v": 100
    },
    {
      "midi": 40,
      "hit": false,
      "t": 199812,
      "d": 340,
      "v": 100
    },
    {
      "midi": 44,
      "hit": false,
      "t": 199928,
      "d": 112,
      "v": 95
    },
    {
      "midi": 43,
      "hit": false,
      "t": 200040,
      "d": 112,
      "v": 100
    },
    {
      "midi": 46,
      "hit": false,
      "t": 200040,
      "d": 112,
      "v": 95
    },
    {
      "midi": 35,
      "hit": false,
      "t": 200152,
      "d": 112,
      "v": 100
    },
    {
      "midi": 44,
      "hit": false,
      "t": 200152,
      "d": 112,
      "v": 95
    },
    {
      "midi": 48,
      "hit": false,
      "t": 200152,
      "d": 1016,
      "v": 100
    },
    {
      "midi": 35,
      "hit": false,
      "t": 200264,
      "d": 0,
      "v": 90
    },
    {
      "midi": 44,
      "hit": false,
      "t": 200264,
      "d": 112,
      "v": 95
    },
    {
      "midi": 35,
      "hit": false,
      "t": 200264,
      "d": 228,
      "v": 100
    },
    {
      "midi": 44,
      "hit": false,
      "t": 200376,
      "d": 116,
      "v": 95
    },
    {
      "midi": 35,
      "hit": false,
      "t": 200492,
      "d": 0,
      "v": 90
    },
    {
      "midi": 46,
      "hit": false,
      "t": 200492,
      "d": 112,
      "v": 95
    },
    {
      "midi": 35,
      "hit": false,
      "t": 200492,
      "d": 224,
      "v": 100
    },
    {
      "midi": 44,
      "hit": false,
      "t": 200604,
      "d": 112,
      "v": 95
    },
    {
      "midi": 44,
      "hit": false,
      "t": 200716,
      "d": 112,
      "v": 95
    },
    {
      "midi": 40,
      "hit": false,
      "t": 200716,
      "d": 452,
      "v": 100
    },
    {
      "midi": 44,
      "hit": false,
      "t": 200828,
      "d": 112,
      "v": 95
    },
    {
      "midi": 46,
      "hit": false,
      "t": 200940,
      "d": 116,
      "v": 95
    },
    {
      "midi": 44,
      "hit": false,
      "t": 201056,
      "d": 112,
      "v": 95
    },
    {
      "midi": 44,
      "hit": false,
      "t": 201168,
      "d": 112,
      "v": 95
    },
    {
      "midi": 43,
      "hit": false,
      "t": 201168,
      "d": 224,
      "v": 100
    },
    {
      "midi": 35,
      "hit": false,
      "t": 201168,
      "d": 224,
      "v": 100
    },
    {
      "midi": 44,
      "hit": false,
      "t": 201280,
      "d": 112,
      "v": 95
    },
    {
      "midi": 35,
      "hit": false,
      "t": 201392,
      "d": 0,
      "v": 90
    },
    {
      "midi": 46,
      "hit": false,
      "t": 201392,
      "d": 112,
      "v": 95
    },
    {
      "midi": 43,
      "hit": false,
      "t": 201392,
      "d": 224,
      "v": 100
    },
    {
      "midi": 35,
      "hit": false,
      "t": 201392,
      "d": 224,
      "v": 100
    },
    {
      "midi": 44,
      "hit": false,
      "t": 201504,
      "d": 112,
      "v": 95
    },
    {
      "midi": 44,
      "hit": false,
      "t": 201616,
      "d": 116,
      "v": 95
    },
    {
      "midi": 46,
      "hit": false,
      "t": 201616,
      "d": 228,
      "v": 100
    },
    {
      "midi": 40,
      "hit": false,
      "t": 201616,
      "d": 340,
      "v": 100
    },
    {
      "midi": 44,
      "hit": false,
      "t": 201732,
      "d": 112,
      "v": 95
    },
    {
      "midi": 43,
      "hit": false,
      "t": 201844,
      "d": 112,
      "v": 100
    },
    {
      "midi": 46,
      "hit": false,
      "t": 201844,
      "d": 112,
      "v": 95
    },
    {
      "midi": 35,
      "hit": false,
      "t": 201956,
      "d": 112,
      "v": 100
    },
    {
      "midi": 44,
      "hit": false,
      "t": 201956,
      "d": 112,
      "v": 95
    },
    {
      "midi": 48,
      "hit": false,
      "t": 201956,
      "d": 1016,
      "v": 100
    },
    {
      "midi": 35,
      "hit": false,
      "t": 202068,
      "d": 0,
      "v": 90
    },
    {
      "midi": 44,
      "hit": false,
      "t": 202068,
      "d": 112,
      "v": 95
    },
    {
      "midi": 35,
      "hit": false,
      "t": 202068,
      "d": 228,
      "v": 100
    },
    {
      "midi": 44,
      "hit": false,
      "t": 202180,
      "d": 116,
      "v": 95
    },
    {
      "midi": 35,
      "hit": false,
      "t": 202296,
      "d": 0,
      "v": 90
    },
    {
      "midi": 46,
      "hit": false,
      "t": 202296,
      "d": 112,
      "v": 95
    },
    {
      "midi": 35,
      "hit": false,
      "t": 202296,
      "d": 224,
      "v": 100
    },
    {
      "midi": 44,
      "hit": false,
      "t": 202408,
      "d": 112,
      "v": 95
    },
    {
      "midi": 44,
      "hit": false,
      "t": 202520,
      "d": 112,
      "v": 95
    },
    {
      "midi": 40,
      "hit": false,
      "t": 202520,
      "d": 452,
      "v": 100
    },
    {
      "midi": 44,
      "hit": false,
      "t": 202632,
      "d": 112,
      "v": 95
    },
    {
      "midi": 46,
      "hit": false,
      "t": 202744,
      "d": 116,
      "v": 95
    },
    {
      "midi": 44,
      "hit": false,
      "t": 202860,
      "d": 112,
      "v": 95
    },
    {
      "midi": 50,
      "hit": false,
      "t": 202972,
      "d": 452,
      "v": 100
    },
    {
      "midi": 74,
      "hit": false,
      "t": 202972,
      "d": 452,
      "v": 100
    },
    {
      "midi": 35,
      "hit": false,
      "t": 202972,
      "d": 452,
      "v": 100
    },
    {
      "midi": 35,
      "hit": false,
      "t": 203424,
      "d": 0,
      "v": 90
    },
    {
      "midi": 50,
      "hit": false,
      "t": 203424,
      "d": 448,
      "v": 100
    },
    {
      "midi": 74,
      "hit": false,
      "t": 203424,
      "d": 448,
      "v": 100
    },
    {
      "midi": 35,
      "hit": false,
      "t": 203424,
      "d": 448,
      "v": 100
    },
    {
      "midi": 35,
      "hit": false,
      "t": 203872,
      "d": 0,
      "v": 90
    },
    {
      "midi": 50,
      "hit": false,
      "t": 203872,
      "d": 452,
      "v": 100
    },
    {
      "midi": 74,
      "hit": false,
      "t": 203872,
      "d": 452,
      "v": 100
    },
    {
      "midi": 35,
      "hit": false,
      "t": 203872,
      "d": 452,
      "v": 100
    },
    {
      "midi": 35,
      "hit": false,
      "t": 204324,
      "d": 0,
      "v": 90
    },
    {
      "midi": 50,
      "hit": false,
      "t": 204324,
      "d": 452,
      "v": 100
    },
    {
      "midi": 74,
      "hit": false,
      "t": 204324,
      "d": 452,
      "v": 100
    },
    {
      "midi": 35,
      "hit": false,
      "t": 204324,
      "d": 452,
      "v": 100
    },
    {
      "midi": 38,
      "hit": false,
      "t": 204776,
      "d": 676,
      "v": 120
    },
    {
      "midi": 74,
      "hit": false,
      "t": 205680,
      "d": 0,
      "v": 58
    },
    {
      "midi": 43,
      "hit": false,
      "t": 205680,
      "d": 224,
      "v": 90
    },
    {
      "midi": 77,
      "hit": false,
      "t": 205680,
      "d": 336,
      "v": 100
    },
    {
      "midi": 35,
      "hit": false,
      "t": 205680,
      "d": 448,
      "v": 100
    },
    {
      "midi": 67,
      "hit": false,
      "t": 205680,
      "d": 900,
      "v": 58
    },
    {
      "midi": 70,
      "hit": false,
      "t": 205680,
      "d": 900,
      "v": 58
    },
    {
      "midi": 43,
      "hit": false,
      "t": 205904,
      "d": 224,
      "v": 90
    },
    {
      "midi": 79,
      "hit": false,
      "t": 206016,
      "d": 340,
      "v": 100
    },
    {
      "midi": 43,
      "hit": false,
      "t": 206128,
      "d": 228,
      "v": 90
    },
    {
      "midi": 40,
      "hit": false,
      "t": 206128,
      "d": 340,
      "v": 100
    },
    {
      "midi": 43,
      "hit": false,
      "t": 206356,
      "d": 224,
      "v": 90
    },
    {
      "midi": 74,
      "hit": false,
      "t": 206356,
      "d": 224,
      "v": 100
    },
    {
      "midi": 35,
      "hit": false,
      "t": 206468,
      "d": 112,
      "v": 100
    },
    {
      "midi": 35,
      "hit": false,
      "t": 206580,
      "d": 0,
      "v": 110
    },
    {
      "midi": 39,
      "hit": false,
      "t": 206580,
      "d": 224,
      "v": 90
    },
    {
      "midi": 35,
      "hit": false,
      "t": 206580,
      "d": 224,
      "v": 100
    },
    {
      "midi": 77,
      "hit": false,
      "t": 206580,
      "d": 340,
      "v": 100
    },
    {
      "midi": 63,
      "hit": false,
      "t": 206580,
      "d": 904,
      "v": 58
    },
    {
      "midi": 67,
      "hit": false,
      "t": 206580,
      "d": 904,
      "v": 58
    },
    {
      "midi": 70,
      "hit": false,
      "t": 206580,
      "d": 904,
      "v": 58
    },
    {
      "midi": 35,
      "hit": false,
      "t": 206804,
      "d": 0,
      "v": 110
    },
    {
      "midi": 39,
      "hit": false,
      "t": 206804,
      "d": 228,
      "v": 90
    },
    {
      "midi": 35,
      "hit": false,
      "t": 206804,
      "d": 228,
      "v": 100
    },
    {
      "midi": 79,
      "hit": false,
      "t": 206920,
      "d": 336,
      "v": 100
    },
    {
      "midi": 39,
      "hit": false,
      "t": 207032,
      "d": 224,
      "v": 90
    },
    {
      "midi": 40,
      "hit": false,
      "t": 207032,
      "d": 336,
      "v": 100
    },
    {
      "midi": 39,
      "hit": false,
      "t": 207256,
      "d": 228,
      "v": 90
    },
    {
      "midi": 74,
      "hit": false,
      "t": 207256,
      "d": 228,
      "v": 100
    },
    {
      "midi": 35,
      "hit": false,
      "t": 207368,
      "d": 116,
      "v": 100
    },
    {
      "midi": 35,
      "hit": false,
      "t": 207484,
      "d": 0,
      "v": 110
    },
    {
      "midi": 41,
      "hit": false,
      "t": 207484,
      "d": 224,
      "v": 90
    },
    {
      "midi": 77,
      "hit": false,
      "t": 207484,
      "d": 224,
      "v": 100
    },
    {
      "midi": 35,
      "hit": false,
      "t": 207484,
      "d": 448,
      "v": 100
    },
    {
      "midi": 65,
      "hit": false,
      "t": 207484,
      "d": 900,
      "v": 58
    },
    {
      "midi": 69,
      "hit": false,
      "t": 207484,
      "d": 900,
      "v": 58
    },
    {
      "midi": 41,
      "hit": false,
      "t": 207708,
      "d": 224,
      "v": 90
    },
    {
      "midi": 75,
      "hit": false,
      "t": 207708,
      "d": 224,
      "v": 100
    },
    {
      "midi": 41,
      "hit": false,
      "t": 207932,
      "d": 228,
      "v": 90
    },
    {
      "midi": 74,
      "hit": false,
      "t": 207932,
      "d": 228,
      "v": 100
    },
    {
      "midi": 40,
      "hit": false,
      "t": 207932,
      "d": 340,
      "v": 100
    },
    {
      "midi": 41,
      "hit": false,
      "t": 208160,
      "d": 224,
      "v": 90
    },
    {
      "midi": 72,
      "hit": false,
      "t": 208160,
      "d": 224,
      "v": 100
    },
    {
      "midi": 35,
      "hit": false,
      "t": 208272,
      "d": 112,
      "v": 100
    },
    {
      "midi": 35,
      "hit": false,
      "t": 208384,
      "d": 0,
      "v": 110
    },
    {
      "midi": 46,
      "hit": false,
      "t": 208384,
      "d": 228,
      "v": 90
    },
    {
      "midi": 35,
      "hit": false,
      "t": 208384,
      "d": 228,
      "v": 100
    },
    {
      "midi": 72,
      "hit": false,
      "t": 208384,
      "d": 340,
      "v": 100
    },
    {
      "midi": 70,
      "hit": false,
      "t": 208384,
      "d": 904,
      "v": 58
    },
    {
      "midi": 77,
      "hit": false,
      "t": 208384,
      "d": 904,
      "v": 58
    },
    {
      "midi": 35,
      "hit": false,
      "t": 208612,
      "d": 0,
      "v": 110
    },
    {
      "midi": 46,
      "hit": false,
      "t": 208612,
      "d": 224,
      "v": 90
    },
    {
      "midi": 35,
      "hit": false,
      "t": 208612,
      "d": 224,
      "v": 100
    },
    {
      "midi": 74,
      "hit": false,
      "t": 208724,
      "d": 336,
      "v": 100
    },
    {
      "midi": 46,
      "hit": false,
      "t": 208836,
      "d": 224,
      "v": 90
    },
    {
      "midi": 40,
      "hit": false,
      "t": 208836,
      "d": 340,
      "v": 100
    },
    {
      "midi": 46,
      "hit": false,
      "t": 209060,
      "d": 228,
      "v": 90
    },
    {
      "midi": 35,
      "hit": false,
      "t": 209176,
      "d": 112,
      "v": 100
    },
    {
      "midi": 35,
      "hit": false,
      "t": 209288,
      "d": 0,
      "v": 110
    },
    {
      "midi": 48,
      "hit": false,
      "t": 209288,
      "d": 224,
      "v": 90
    },
    {
      "midi": 75,
      "hit": false,
      "t": 209288,
      "d": 336,
      "v": 100
    },
    {
      "midi": 35,
      "hit": false,
      "t": 209288,
      "d": 452,
      "v": 100
    },
    {
      "midi": 60,
      "hit": false,
      "t": 209288,
      "d": 900,
      "v": 58
    },
    {
      "midi": 63,
      "hit": false,
      "t": 209288,
      "d": 900,
      "v": 58
    },
    {
      "midi": 67,
      "hit": false,
      "t": 209288,
      "d": 900,
      "v": 58
    },
    {
      "midi": 48,
      "hit": false,
      "t": 209512,
      "d": 228,
      "v": 90
    },
    {
      "midi": 75,
      "hit": false,
      "t": 209624,
      "d": 340,
      "v": 100
    },
    {
      "midi": 48,
      "hit": false,
      "t": 209740,
      "d": 224,
      "v": 90
    },
    {
      "midi": 40,
      "hit": false,
      "t": 209740,
      "d": 336,
      "v": 100
    },
    {
      "midi": 48,
      "hit": false,
      "t": 209964,
      "d": 224,
      "v": 90
    },
    {
      "midi": 75,
      "hit": false,
      "t": 209964,
      "d": 224,
      "v": 100
    },
    {
      "midi": 35,
      "hit": false,
      "t": 210076,
      "d": 112,
      "v": 100
    },
    {
      "midi": 35,
      "hit": false,
      "t": 210188,
      "d": 0,
      "v": 110
    },
    {
      "midi": 50,
      "hit": false,
      "t": 210188,
      "d": 228,
      "v": 90
    },
    {
      "midi": 35,
      "hit": false,
      "t": 210188,
      "d": 228,
      "v": 100
    },
    {
      "midi": 74,
      "hit": false,
      "t": 210188,
      "d": 452,
      "v": 100
    },
    {
      "midi": 62,
      "hit": false,
      "t": 210188,
      "d": 904,
      "v": 58
    },
    {
      "midi": 66,
      "hit": false,
      "t": 210188,
      "d": 904,
      "v": 58
    },
    {
      "midi": 35,
      "hit": false,
      "t": 210416,
      "d": 0,
      "v": 110
    },
    {
      "midi": 50,
      "hit": false,
      "t": 210416,
      "d": 224,
      "v": 90
    },
    {
      "midi": 35,
      "hit": false,
      "t": 210416,
      "d": 224,
      "v": 100
    },
    {
      "midi": 50,
      "hit": false,
      "t": 210640,
      "d": 228,
      "v": 90
    },
    {
      "midi": 69,
      "hit": false,
      "t": 210640,
      "d": 228,
      "v": 100
    },
    {
      "midi": 40,
      "hit": false,
      "t": 210640,
      "d": 340,
      "v": 100
    },
    {
      "midi": 50,
      "hit": false,
      "t": 210868,
      "d": 224,
      "v": 90
    },
    {
      "midi": 35,
      "hit": false,
      "t": 210980,
      "d": 112,
      "v": 100
    },
    {
      "midi": 72,
      "hit": false,
      "t": 211092,
      "d": 0,
      "v": 58
    },
    {
      "midi": 35,
      "hit": false,
      "t": 211092,
      "d": 0,
      "v": 110
    },
    {
      "midi": 43,
      "hit": false,
      "t": 211092,
      "d": 224,
      "v": 90
    },
    {
      "midi": 35,
      "hit": false,
      "t": 211092,
      "d": 452,
      "v": 100
    },
    {
      "midi": 72,
      "hit": false,
      "t": 211092,
      "d": 676,
      "v": 100
    },
    {
      "midi": 67,
      "hit": false,
      "t": 211092,
      "d": 900,
      "v": 58
    },
    {
      "midi": 74,
      "hit": false,
      "t": 211092,
      "d": 900,
      "v": 58
    },
    {
      "midi": 43,
      "hit": false,
      "t": 211316,
      "d": 228,
      "v": 90
    },
    {
      "midi": 43,
      "hit": false,
      "t": 211544,
      "d": 224,
      "v": 90
    },
    {
      "midi": 40,
      "hit": false,
      "t": 211544,
      "d": 336,
      "v": 100
    },
    {
      "midi": 43,
      "hit": false,
      "t": 211768,
      "d": 112,
      "v": 90
    },
    {
      "midi": 70,
      "hit": false,
      "t": 211768,
      "d": 112,
      "v": 100
    },
    {
      "midi": 43,
      "hit": false,
      "t": 211880,
      "d": 112,
      "v": 90
    },
    {
      "midi": 69,
      "hit": false,
      "t": 211880,
      "d": 112,
      "v": 100
    },
    {
      "midi": 35,
      "hit": false,
      "t": 211880,
      "d": 112,
      "v": 100
    },
    {
      "midi": 35,
      "hit": false,
      "t": 211992,
      "d": 0,
      "v": 110
    },
    {
      "midi": 43,
      "hit": false,
      "t": 211992,
      "d": 228,
      "v": 90
    },
    {
      "midi": 35,
      "hit": false,
      "t": 211992,
      "d": 228,
      "v": 100
    },
    {
      "midi": 70,
      "hit": false,
      "t": 211992,
      "d": 452,
      "v": 100
    },
    {
      "midi": 67,
      "hit": false,
      "t": 211992,
      "d": 904,
      "v": 58
    },
    {
      "midi": 35,
      "hit": false,
      "t": 212220,
      "d": 0,
      "v": 110
    },
    {
      "midi": 43,
      "hit": false,
      "t": 212220,
      "d": 224,
      "v": 90
    },
    {
      "midi": 35,
      "hit": false,
      "t": 212220,
      "d": 224,
      "v": 100
    },
    {
      "midi": 43,
      "hit": false,
      "t": 212444,
      "d": 228,
      "v": 90
    },
    {
      "midi": 40,
      "hit": false,
      "t": 212444,
      "d": 228,
      "v": 100
    },
    {
      "midi": 40,
      "hit": false,
      "t": 212672,
      "d": 112,
      "v": 100
    },
    {
      "midi": 43,
      "hit": false,
      "t": 212672,
      "d": 224,
      "v": 90
    },
    {
      "midi": 74,
      "hit": false,
      "t": 212672,
      "d": 224,
      "v": 100
    },
    {
      "midi": 40,
      "hit": false,
      "t": 212784,
      "d": 112,
      "v": 100
    },
    {
      "midi": 74,
      "hit": false,
      "t": 212896,
      "d": 0,
      "v": 58
    },
    {
      "midi": 43,
      "hit": false,
      "t": 212896,
      "d": 224,
      "v": 90
    },
    {
      "midi": 77,
      "hit": false,
      "t": 212896,
      "d": 340,
      "v": 100
    },
    {
      "midi": 35,
      "hit": false,
      "t": 212896,
      "d": 452,
      "v": 100
    },
    {
      "midi": 67,
      "hit": false,
      "t": 212896,
      "d": 904,
      "v": 58
    },
    {
      "midi": 70,
      "hit": false,
      "t": 212896,
      "d": 904,
      "v": 58
    },
    {
      "midi": 43,
      "hit": false,
      "t": 213120,
      "d": 228,
      "v": 90
    },
    {
      "midi": 79,
      "hit": false,
      "t": 213236,
      "d": 336,
      "v": 100
    },
    {
      "midi": 43,
      "hit": false,
      "t": 213348,
      "d": 224,
      "v": 90
    },
    {
      "midi": 40,
      "hit": false,
      "t": 213348,
      "d": 336,
      "v": 100
    },
    {
      "midi": 43,
      "hit": false,
      "t": 213572,
      "d": 228,
      "v": 90
    },
    {
      "midi": 74,
      "hit": false,
      "t": 213572,
      "d": 228,
      "v": 100
    },
    {
      "midi": 35,
      "hit": false,
      "t": 213684,
      "d": 116,
      "v": 100
    },
    {
      "midi": 35,
      "hit": false,
      "t": 213800,
      "d": 0,
      "v": 110
    },
    {
      "midi": 39,
      "hit": false,
      "t": 213800,
      "d": 224,
      "v": 90
    },
    {
      "midi": 35,
      "hit": false,
      "t": 213800,
      "d": 224,
      "v": 100
    },
    {
      "midi": 77,
      "hit": false,
      "t": 213800,
      "d": 336,
      "v": 100
    },
    {
      "midi": 63,
      "hit": false,
      "t": 213800,
      "d": 900,
      "v": 58
    },
    {
      "midi": 67,
      "hit": false,
      "t": 213800,
      "d": 900,
      "v": 58
    },
    {
      "midi": 70,
      "hit": false,
      "t": 213800,
      "d": 900,
      "v": 58
    },
    {
      "midi": 35,
      "hit": false,
      "t": 214024,
      "d": 0,
      "v": 110
    },
    {
      "midi": 39,
      "hit": false,
      "t": 214024,
      "d": 224,
      "v": 90
    },
    {
      "midi": 35,
      "hit": false,
      "t": 214024,
      "d": 224,
      "v": 100
    },
    {
      "midi": 79,
      "hit": false,
      "t": 214136,
      "d": 340,
      "v": 100
    },
    {
      "midi": 39,
      "hit": false,
      "t": 214248,
      "d": 228,
      "v": 90
    },
    {
      "midi": 40,
      "hit": false,
      "t": 214248,
      "d": 340,
      "v": 100
    },
    {
      "midi": 39,
      "hit": false,
      "t": 214476,
      "d": 224,
      "v": 90
    },
    {
      "midi": 35,
      "hit": false,
      "t": 214588,
      "d": 112,
      "v": 100
    },
    {
      "midi": 35,
      "hit": false,
      "t": 214700,
      "d": 0,
      "v": 110
    },
    {
      "midi": 41,
      "hit": false,
      "t": 214700,
      "d": 228,
      "v": 90
    },
    {
      "midi": 77,
      "hit": false,
      "t": 214700,
      "d": 228,
      "v": 100
    },
    {
      "midi": 35,
      "hit": false,
      "t": 214700,
      "d": 452,
      "v": 100
    },
    {
      "midi": 65,
      "hit": false,
      "t": 214700,
      "d": 904,
      "v": 58
    },
    {
      "midi": 69,
      "hit": false,
      "t": 214700,
      "d": 904,
      "v": 58
    },
    {
      "midi": 41,
      "hit": false,
      "t": 214928,
      "d": 224,
      "v": 90
    },
    {
      "midi": 75,
      "hit": false,
      "t": 214928,
      "d": 224,
      "v": 100
    },
    {
      "midi": 41,
      "hit": false,
      "t": 215152,
      "d": 224,
      "v": 90
    },
    {
      "midi": 74,
      "hit": false,
      "t": 215152,
      "d": 224,
      "v": 100
    },
    {
      "midi": 40,
      "hit": false,
      "t": 215152,
      "d": 340,
      "v": 100
    },
    {
      "midi": 41,
      "hit": false,
      "t": 215376,
      "d": 228,
      "v": 90
    },
    {
      "midi": 72,
      "hit": false,
      "t": 215376,
      "d": 228,
      "v": 100
    },
    {
      "midi": 35,
      "hit": false,
      "t": 215492,
      "d": 112,
      "v": 100
    },
    {
      "midi": 35,
      "hit": false,
      "t": 215604,
      "d": 0,
      "v": 110
    },
    {
      "midi": 46,
      "hit": false,
      "t": 215604,
      "d": 224,
      "v": 90
    },
    {
      "midi": 35,
      "hit": false,
      "t": 215604,
      "d": 224,
      "v": 100
    },
    {
      "midi": 72,
      "hit": false,
      "t": 215604,
      "d": 336,
      "v": 100
    },
    {
      "midi": 70,
      "hit": false,
      "t": 215604,
      "d": 900,
      "v": 58
    },
    {
      "midi": 77,
      "hit": false,
      "t": 215604,
      "d": 900,
      "v": 58
    },
    {
      "midi": 35,
      "hit": false,
      "t": 215828,
      "d": 0,
      "v": 110
    },
    {
      "midi": 46,
      "hit": false,
      "t": 215828,
      "d": 228,
      "v": 90
    },
    {
      "midi": 35,
      "hit": false,
      "t": 215828,
      "d": 228,
      "v": 100
    },
    {
      "midi": 74,
      "hit": false,
      "t": 215940,
      "d": 340,
      "v": 100
    },
    {
      "midi": 46,
      "hit": false,
      "t": 216056,
      "d": 224,
      "v": 90
    },
    {
      "midi": 40,
      "hit": false,
      "t": 216056,
      "d": 336,
      "v": 100
    },
    {
      "midi": 46,
      "hit": false,
      "t": 216280,
      "d": 224,
      "v": 90
    },
    {
      "midi": 35,
      "hit": false,
      "t": 216392,
      "d": 112,
      "v": 100
    },
    {
      "midi": 35,
      "hit": false,
      "t": 216504,
      "d": 0,
      "v": 110
    },
    {
      "midi": 48,
      "hit": false,
      "t": 216504,
      "d": 228,
      "v": 90
    },
    {
      "midi": 75,
      "hit": false,
      "t": 216504,
      "d": 340,
      "v": 100
    },
    {
      "midi": 57,
      "hit": false,
      "t": 216504,
      "d": 452,
      "v": 100
    },
    {
      "midi": 35,
      "hit": false,
      "t": 216504,
      "d": 452,
      "v": 100
    },
    {
      "midi": 60,
      "hit": false,
      "t": 216504,
      "d": 904,
      "v": 58
    },
    {
      "midi": 63,
      "hit": false,
      "t": 216504,
      "d": 904,
      "v": 58
    },
    {
      "midi": 67,
      "hit": false,
      "t": 216504,
      "d": 904,
      "v": 58
    },
    {
      "midi": 48,
      "hit": false,
      "t": 216732,
      "d": 224,
      "v": 90
    },
    {
      "midi": 75,
      "hit": false,
      "t": 216844,
      "d": 336,
      "v": 100
    },
    {
      "midi": 48,
      "hit": false,
      "t": 216956,
      "d": 224,
      "v": 90
    },
    {
      "midi": 40,
      "hit": false,
      "t": 216956,
      "d": 340,
      "v": 100
    },
    {
      "midi": 48,
      "hit": false,
      "t": 217180,
      "d": 228,
      "v": 90
    },
    {
      "midi": 75,
      "hit": false,
      "t": 217180,
      "d": 228,
      "v": 100
    },
    {
      "midi": 35,
      "hit": false,
      "t": 217296,
      "d": 112,
      "v": 100
    },
    {
      "midi": 35,
      "hit": false,
      "t": 217408,
      "d": 0,
      "v": 110
    },
    {
      "midi": 50,
      "hit": false,
      "t": 217408,
      "d": 224,
      "v": 90
    },
    {
      "midi": 35,
      "hit": false,
      "t": 217408,
      "d": 224,
      "v": 100
    },
    {
      "midi": 74,
      "hit": false,
      "t": 217408,
      "d": 452,
      "v": 100
    },
    {
      "midi": 62,
      "hit": false,
      "t": 217408,
      "d": 900,
      "v": 58
    },
    {
      "midi": 65,
      "hit": false,
      "t": 217408,
      "d": 900,
      "v": 58
    },
    {
      "midi": 69,
      "hit": false,
      "t": 217408,
      "d": 900,
      "v": 58
    },
    {
      "midi": 35,
      "hit": false,
      "t": 217632,
      "d": 0,
      "v": 110
    },
    {
      "midi": 50,
      "hit": false,
      "t": 217632,
      "d": 228,
      "v": 90
    },
    {
      "midi": 35,
      "hit": false,
      "t": 217632,
      "d": 228,
      "v": 100
    },
    {
      "midi": 50,
      "hit": false,
      "t": 217860,
      "d": 224,
      "v": 90
    },
    {
      "midi": 77,
      "hit": false,
      "t": 217860,
      "d": 224,
      "v": 100
    },
    {
      "midi": 40,
      "hit": false,
      "t": 217860,
      "d": 336,
      "v": 100
    },
    {
      "midi": 50,
      "hit": false,
      "t": 218084,
      "d": 224,
      "v": 90
    },
    {
      "midi": 77,
      "hit": false,
      "t": 218084,
      "d": 224,
      "v": 100
    },
    {
      "midi": 35,
      "hit": false,
      "t": 218196,
      "d": 112,
      "v": 100
    },
    {
      "midi": 35,
      "hit": false,
      "t": 218308,
      "d": 0,
      "v": 110
    },
    {
      "midi": 39,
      "hit": false,
      "t": 218308,
      "d": 228,
      "v": 90
    },
    {
      "midi": 35,
      "hit": false,
      "t": 218308,
      "d": 452,
      "v": 100
    },
    {
      "midi": 63,
      "hit": false,
      "t": 218308,
      "d": 1808,
      "v": 58
    },
    {
      "midi": 67,
      "hit": false,
      "t": 218308,
      "d": 1808,
      "v": 58
    },
    {
      "midi": 70,
      "hit": false,
      "t": 218308,
      "d": 1808,
      "v": 58
    },
    {
      "midi": 78,
      "hit": false,
      "t": 218308,
      "d": 2256,
      "v": 100
    },
    {
      "midi": 39,
      "hit": false,
      "t": 218536,
      "d": 224,
      "v": 90
    },
    {
      "midi": 39,
      "hit": false,
      "t": 218760,
      "d": 228,
      "v": 90
    },
    {
      "midi": 40,
      "hit": false,
      "t": 218760,
      "d": 340,
      "v": 100
    },
    {
      "midi": 39,
      "hit": false,
      "t": 218988,
      "d": 224,
      "v": 90
    },
    {
      "midi": 35,
      "hit": false,
      "t": 219100,
      "d": 112,
      "v": 100
    },
    {
      "midi": 35,
      "hit": false,
      "t": 219212,
      "d": 0,
      "v": 110
    },
    {
      "midi": 39,
      "hit": false,
      "t": 219212,
      "d": 224,
      "v": 90
    },
    {
      "midi": 35,
      "hit": false,
      "t": 219212,
      "d": 224,
      "v": 100
    },
    {
      "midi": 35,
      "hit": false,
      "t": 219436,
      "d": 0,
      "v": 110
    },
    {
      "midi": 39,
      "hit": false,
      "t": 219436,
      "d": 228,
      "v": 90
    },
    {
      "midi": 35,
      "hit": false,
      "t": 219436,
      "d": 228,
      "v": 100
    },
    {
      "midi": 39,
      "hit": false,
      "t": 219664,
      "d": 224,
      "v": 90
    },
    {
      "midi": 40,
      "hit": false,
      "t": 219664,
      "d": 336,
      "v": 100
    },
    {
      "midi": 39,
      "hit": false,
      "t": 219888,
      "d": 228,
      "v": 90
    },
    {
      "midi": 35,
      "hit": false,
      "t": 220000,
      "d": 116,
      "v": 100
    },
    {
      "midi": 35,
      "hit": false,
      "t": 220116,
      "d": 0,
      "v": 110
    },
    {
      "midi": 41,
      "hit": false,
      "t": 220116,
      "d": 224,
      "v": 90
    },
    {
      "midi": 49,
      "hit": false,
      "t": 220116,
      "d": 448,
      "v": 100
    },
    {
      "midi": 35,
      "hit": false,
      "t": 220116,
      "d": 448,
      "v": 100
    },
    {
      "midi": 65,
      "hit": false,
      "t": 220116,
      "d": 1804,
      "v": 58
    },
    {
      "midi": 69,
      "hit": false,
      "t": 220116,
      "d": 1804,
      "v": 58
    },
    {
      "midi": 72,
      "hit": false,
      "t": 220116,
      "d": 1804,
      "v": 58
    },
    {
      "midi": 41,
      "hit": false,
      "t": 220340,
      "d": 224,
      "v": 90
    },
    {
      "midi": 41,
      "hit": false,
      "t": 220564,
      "d": 228,
      "v": 90
    },
    {
      "midi": 40,
      "hit": false,
      "t": 220564,
      "d": 340,
      "v": 100
    },
    {
      "midi": 41,
      "hit": false,
      "t": 220792,
      "d": 224,
      "v": 90
    },
    {
      "midi": 35,
      "hit": false,
      "t": 220904,
      "d": 112,
      "v": 100
    },
    {
      "midi": 40,
      "hit": false,
      "t": 221016,
      "d": 112,
      "v": 100
    },
    {
      "midi": 41,
      "hit": false,
      "t": 221016,
      "d": 228,
      "v": 90
    },
    {
      "midi": 40,
      "hit": false,
      "t": 221128,
      "d": 116,
      "v": 100
    },
    {
      "midi": 40,
      "hit": false,
      "t": 221244,
      "d": 112,
      "v": 100
    },
    {
      "midi": 41,
      "hit": false,
      "t": 221244,
      "d": 224,
      "v": 90
    },
    {
      "midi": 40,
      "hit": false,
      "t": 221356,
      "d": 112,
      "v": 100
    },
    {
      "midi": 40,
      "hit": false,
      "t": 221468,
      "d": 112,
      "v": 100
    },
    {
      "midi": 41,
      "hit": false,
      "t": 221468,
      "d": 224,
      "v": 90
    },
    {
      "midi": 40,
      "hit": false,
      "t": 221580,
      "d": 112,
      "v": 100
    },
    {
      "midi": 40,
      "hit": false,
      "t": 221692,
      "d": 112,
      "v": 100
    },
    {
      "midi": 41,
      "hit": false,
      "t": 221692,
      "d": 228,
      "v": 90
    },
    {
      "midi": 40,
      "hit": false,
      "t": 221804,
      "d": 116,
      "v": 100
    },
    {
      "midi": 74,
      "hit": false,
      "t": 221920,
      "d": 0,
      "v": 58
    },
    {
      "midi": 43,
      "hit": false,
      "t": 221920,
      "d": 224,
      "v": 90
    },
    {
      "midi": 77,
      "hit": false,
      "t": 221920,
      "d": 336,
      "v": 100
    },
    {
      "midi": 57,
      "hit": false,
      "t": 221920,
      "d": 448,
      "v": 100
    },
    {
      "midi": 35,
      "hit": false,
      "t": 221920,
      "d": 448,
      "v": 100
    },
    {
      "midi": 67,
      "hit": false,
      "t": 221920,
      "d": 900,
      "v": 58
    },
    {
      "midi": 70,
      "hit": false,
      "t": 221920,
      "d": 900,
      "v": 58
    },
    {
      "midi": 43,
      "hit": false,
      "t": 222144,
      "d": 224,
      "v": 90
    },
    {
      "midi": 79,
      "hit": false,
      "t": 222256,
      "d": 340,
      "v": 100
    },
    {
      "midi": 43,
      "hit": false,
      "t": 222368,
      "d": 228,
      "v": 90
    },
    {
      "midi": 40,
      "hit": false,
      "t": 222368,
      "d": 340,
      "v": 100
    },
    {
      "midi": 43,
      "hit": false,
      "t": 222596,
      "d": 224,
      "v": 90
    },
    {
      "midi": 74,
      "hit": false,
      "t": 222596,
      "d": 224,
      "v": 100
    },
    {
      "midi": 35,
      "hit": false,
      "t": 222708,
      "d": 112,
      "v": 100
    },
    {
      "midi": 35,
      "hit": false,
      "t": 222820,
      "d": 0,
      "v": 110
    },
    {
      "midi": 39,
      "hit": false,
      "t": 222820,
      "d": 228,
      "v": 90
    },
    {
      "midi": 35,
      "hit": false,
      "t": 222820,
      "d": 228,
      "v": 100
    },
    {
      "midi": 77,
      "hit": false,
      "t": 222820,
      "d": 340,
      "v": 100
    },
    {
      "midi": 63,
      "hit": false,
      "t": 222820,
      "d": 904,
      "v": 58
    },
    {
      "midi": 67,
      "hit": false,
      "t": 222820,
      "d": 904,
      "v": 58
    },
    {
      "midi": 70,
      "hit": false,
      "t": 222820,
      "d": 904,
      "v": 58
    },
    {
      "midi": 35,
      "hit": false,
      "t": 223048,
      "d": 0,
      "v": 110
    },
    {
      "midi": 39,
      "hit": false,
      "t": 223048,
      "d": 224,
      "v": 90
    },
    {
      "midi": 35,
      "hit": false,
      "t": 223048,
      "d": 224,
      "v": 100
    },
    {
      "midi": 79,
      "hit": false,
      "t": 223160,
      "d": 336,
      "v": 100
    },
    {
      "midi": 39,
      "hit": false,
      "t": 223272,
      "d": 224,
      "v": 90
    },
    {
      "midi": 40,
      "hit": false,
      "t": 223272,
      "d": 340,
      "v": 100
    },
    {
      "midi": 39,
      "hit": false,
      "t": 223496,
      "d": 228,
      "v": 90
    },
    {
      "midi": 74,
      "hit": false,
      "t": 223496,
      "d": 228,
      "v": 100
    },
    {
      "midi": 35,
      "hit": false,
      "t": 223612,
      "d": 112,
      "v": 100
    },
    {
      "midi": 35,
      "hit": false,
      "t": 223724,
      "d": 0,
      "v": 110
    },
    {
      "midi": 41,
      "hit": false,
      "t": 223724,
      "d": 224,
      "v": 90
    },
    {
      "midi": 77,
      "hit": false,
      "t": 223724,
      "d": 224,
      "v": 100
    },
    {
      "midi": 35,
      "hit": false,
      "t": 223724,
      "d": 452,
      "v": 100
    },
    {
      "midi": 65,
      "hit": false,
      "t": 223724,
      "d": 900,
      "v": 58
    },
    {
      "midi": 69,
      "hit": false,
      "t": 223724,
      "d": 900,
      "v": 58
    },
    {
      "midi": 41,
      "hit": false,
      "t": 223948,
      "d": 228,
      "v": 90
    },
    {
      "midi": 75,
      "hit": false,
      "t": 223948,
      "d": 228,
      "v": 100
    },
    {
      "midi": 41,
      "hit": false,
      "t": 224176,
      "d": 224,
      "v": 90
    },
    {
      "midi": 74,
      "hit": false,
      "t": 224176,
      "d": 224,
      "v": 100
    },
    {
      "midi": 40,
      "hit": false,
      "t": 224176,
      "d": 336,
      "v": 100
    },
    {
      "midi": 41,
      "hit": false,
      "t": 224400,
      "d": 224,
      "v": 90
    },
    {
      "midi": 72,
      "hit": false,
      "t": 224400,
      "d": 224,
      "v": 100
    },
    {
      "midi": 35,
      "hit": false,
      "t": 224512,
      "d": 112,
      "v": 100
    },
    {
      "midi": 35,
      "hit": false,
      "t": 224624,
      "d": 0,
      "v": 110
    },
    {
      "midi": 46,
      "hit": false,
      "t": 224624,
      "d": 228,
      "v": 90
    },
    {
      "midi": 35,
      "hit": false,
      "t": 224624,
      "d": 228,
      "v": 100
    },
    {
      "midi": 72,
      "hit": false,
      "t": 224624,
      "d": 340,
      "v": 100
    },
    {
      "midi": 70,
      "hit": false,
      "t": 224624,
      "d": 904,
      "v": 58
    },
    {
      "midi": 77,
      "hit": false,
      "t": 224624,
      "d": 904,
      "v": 58
    },
    {
      "midi": 35,
      "hit": false,
      "t": 224852,
      "d": 0,
      "v": 110
    },
    {
      "midi": 46,
      "hit": false,
      "t": 224852,
      "d": 224,
      "v": 90
    },
    {
      "midi": 35,
      "hit": false,
      "t": 224852,
      "d": 224,
      "v": 100
    },
    {
      "midi": 74,
      "hit": false,
      "t": 224964,
      "d": 340,
      "v": 100
    },
    {
      "midi": 46,
      "hit": false,
      "t": 225076,
      "d": 228,
      "v": 90
    },
    {
      "midi": 40,
      "hit": false,
      "t": 225076,
      "d": 340,
      "v": 100
    },
    {
      "midi": 46,
      "hit": false,
      "t": 225304,
      "d": 224,
      "v": 90
    },
    {
      "midi": 35,
      "hit": false,
      "t": 225416,
      "d": 112,
      "v": 100
    },
    {
      "midi": 35,
      "hit": false,
      "t": 225528,
      "d": 0,
      "v": 110
    },
    {
      "midi": 48,
      "hit": false,
      "t": 225528,
      "d": 224,
      "v": 90
    },
    {
      "midi": 75,
      "hit": false,
      "t": 225528,
      "d": 340,
      "v": 100
    },
    {
      "midi": 35,
      "hit": false,
      "t": 225528,
      "d": 452,
      "v": 100
    },
    {
      "midi": 60,
      "hit": false,
      "t": 225528,
      "d": 904,
      "v": 58
    },
    {
      "midi": 63,
      "hit": false,
      "t": 225528,
      "d": 904,
      "v": 58
    },
    {
      "midi": 67,
      "hit": false,
      "t": 225528,
      "d": 904,
      "v": 58
    },
    {
      "midi": 48,
      "hit": false,
      "t": 225752,
      "d": 228,
      "v": 90
    },
    {
      "midi": 75,
      "hit": false,
      "t": 225868,
      "d": 336,
      "v": 100
    },
    {
      "midi": 48,
      "hit": false,
      "t": 225980,
      "d": 224,
      "v": 90
    },
    {
      "midi": 40,
      "hit": false,
      "t": 225980,
      "d": 336,
      "v": 100
    },
    {
      "midi": 48,
      "hit": false,
      "t": 226204,
      "d": 228,
      "v": 90
    },
    {
      "midi": 75,
      "hit": false,
      "t": 226204,
      "d": 228,
      "v": 100
    },
    {
      "midi": 35,
      "hit": false,
      "t": 226316,
      "d": 116,
      "v": 100
    },
    {
      "midi": 35,
      "hit": false,
      "t": 226432,
      "d": 0,
      "v": 110
    },
    {
      "midi": 50,
      "hit": false,
      "t": 226432,
      "d": 224,
      "v": 90
    },
    {
      "midi": 35,
      "hit": false,
      "t": 226432,
      "d": 224,
      "v": 100
    },
    {
      "midi": 74,
      "hit": false,
      "t": 226432,
      "d": 448,
      "v": 100
    },
    {
      "midi": 62,
      "hit": false,
      "t": 226432,
      "d": 900,
      "v": 58
    },
    {
      "midi": 66,
      "hit": false,
      "t": 226432,
      "d": 900,
      "v": 58
    },
    {
      "midi": 35,
      "hit": false,
      "t": 226656,
      "d": 0,
      "v": 110
    },
    {
      "midi": 50,
      "hit": false,
      "t": 226656,
      "d": 224,
      "v": 90
    },
    {
      "midi": 35,
      "hit": false,
      "t": 226656,
      "d": 224,
      "v": 100
    },
    {
      "midi": 50,
      "hit": false,
      "t": 226880,
      "d": 228,
      "v": 90
    },
    {
      "midi": 69,
      "hit": false,
      "t": 226880,
      "d": 228,
      "v": 100
    },
    {
      "midi": 40,
      "hit": false,
      "t": 226880,
      "d": 340,
      "v": 100
    },
    {
      "midi": 50,
      "hit": false,
      "t": 227108,
      "d": 224,
      "v": 90
    },
    {
      "midi": 35,
      "hit": false,
      "t": 227220,
      "d": 112,
      "v": 100
    },
    {
      "midi": 72,
      "hit": false,
      "t": 227332,
      "d": 0,
      "v": 58
    },
    {
      "midi": 35,
      "hit": false,
      "t": 227332,
      "d": 0,
      "v": 110
    },
    {
      "midi": 43,
      "hit": false,
      "t": 227332,
      "d": 224,
      "v": 90
    },
    {
      "midi": 35,
      "hit": false,
      "t": 227332,
      "d": 452,
      "v": 100
    },
    {
      "midi": 72,
      "hit": false,
      "t": 227332,
      "d": 676,
      "v": 100
    },
    {
      "midi": 67,
      "hit": false,
      "t": 227332,
      "d": 904,
      "v": 58
    },
    {
      "midi": 74,
      "hit": false,
      "t": 227332,
      "d": 904,
      "v": 58
    },
    {
      "midi": 43,
      "hit": false,
      "t": 227556,
      "d": 228,
      "v": 90
    },
    {
      "midi": 43,
      "hit": false,
      "t": 227784,
      "d": 224,
      "v": 90
    },
    {
      "midi": 40,
      "hit": false,
      "t": 227784,
      "d": 336,
      "v": 100
    },
    {
      "midi": 43,
      "hit": false,
      "t": 228008,
      "d": 112,
      "v": 90
    },
    {
      "midi": 70,
      "hit": false,
      "t": 228008,
      "d": 112,
      "v": 100
    },
    {
      "midi": 43,
      "hit": false,
      "t": 228120,
      "d": 116,
      "v": 90
    },
    {
      "midi": 69,
      "hit": false,
      "t": 228120,
      "d": 116,
      "v": 100
    },
    {
      "midi": 35,
      "hit": false,
      "t": 228120,
      "d": 116,
      "v": 100
    },
    {
      "midi": 35,
      "hit": false,
      "t": 228236,
      "d": 0,
      "v": 110
    },
    {
      "midi": 43,
      "hit": false,
      "t": 228236,
      "d": 224,
      "v": 90
    },
    {
      "midi": 35,
      "hit": false,
      "t": 228236,
      "d": 224,
      "v": 100
    },
    {
      "midi": 70,
      "hit": false,
      "t": 228236,
      "d": 448,
      "v": 100
    },
    {
      "midi": 67,
      "hit": false,
      "t": 228236,
      "d": 900,
      "v": 58
    },
    {
      "midi": 35,
      "hit": false,
      "t": 228460,
      "d": 0,
      "v": 110
    },
    {
      "midi": 43,
      "hit": false,
      "t": 228460,
      "d": 224,
      "v": 90
    },
    {
      "midi": 35,
      "hit": false,
      "t": 228460,
      "d": 224,
      "v": 100
    },
    {
      "midi": 43,
      "hit": false,
      "t": 228684,
      "d": 228,
      "v": 90
    },
    {
      "midi": 40,
      "hit": false,
      "t": 228684,
      "d": 228,
      "v": 100
    },
    {
      "midi": 40,
      "hit": false,
      "t": 228912,
      "d": 112,
      "v": 100
    },
    {
      "midi": 43,
      "hit": false,
      "t": 228912,
      "d": 224,
      "v": 90
    },
    {
      "midi": 74,
      "hit": false,
      "t": 228912,
      "d": 224,
      "v": 100
    },
    {
      "midi": 40,
      "hit": false,
      "t": 229024,
      "d": 112,
      "v": 100
    },
    {
      "midi": 74,
      "hit": false,
      "t": 229136,
      "d": 0,
      "v": 58
    },
    {
      "midi": 43,
      "hit": false,
      "t": 229136,
      "d": 228,
      "v": 90
    },
    {
      "midi": 77,
      "hit": false,
      "t": 229136,
      "d": 340,
      "v": 100
    },
    {
      "midi": 35,
      "hit": false,
      "t": 229136,
      "d": 452,
      "v": 100
    },
    {
      "midi": 67,
      "hit": false,
      "t": 229136,
      "d": 904,
      "v": 58
    },
    {
      "midi": 70,
      "hit": false,
      "t": 229136,
      "d": 904,
      "v": 58
    },
    {
      "midi": 43,
      "hit": false,
      "t": 229364,
      "d": 224,
      "v": 90
    },
    {
      "midi": 79,
      "hit": false,
      "t": 229476,
      "d": 336,
      "v": 100
    },
    {
      "midi": 43,
      "hit": false,
      "t": 229588,
      "d": 224,
      "v": 90
    },
    {
      "midi": 40,
      "hit": false,
      "t": 229588,
      "d": 340,
      "v": 100
    },
    {
      "midi": 43,
      "hit": false,
      "t": 229812,
      "d": 228,
      "v": 90
    },
    {
      "midi": 74,
      "hit": false,
      "t": 229812,
      "d": 228,
      "v": 100
    },
    {
      "midi": 35,
      "hit": false,
      "t": 229928,
      "d": 112,
      "v": 100
    },
    {
      "midi": 35,
      "hit": false,
      "t": 230040,
      "d": 0,
      "v": 110
    },
    {
      "midi": 39,
      "hit": false,
      "t": 230040,
      "d": 224,
      "v": 90
    },
    {
      "midi": 35,
      "hit": false,
      "t": 230040,
      "d": 224,
      "v": 100
    },
    {
      "midi": 77,
      "hit": false,
      "t": 230040,
      "d": 336,
      "v": 100
    },
    {
      "midi": 63,
      "hit": false,
      "t": 230040,
      "d": 900,
      "v": 58
    },
    {
      "midi": 67,
      "hit": false,
      "t": 230040,
      "d": 900,
      "v": 58
    },
    {
      "midi": 70,
      "hit": false,
      "t": 230040,
      "d": 900,
      "v": 58
    },
    {
      "midi": 35,
      "hit": false,
      "t": 230264,
      "d": 0,
      "v": 110
    },
    {
      "midi": 39,
      "hit": false,
      "t": 230264,
      "d": 228,
      "v": 90
    },
    {
      "midi": 35,
      "hit": false,
      "t": 230264,
      "d": 228,
      "v": 100
    },
    {
      "midi": 79,
      "hit": false,
      "t": 230376,
      "d": 340,
      "v": 100
    },
    {
      "midi": 39,
      "hit": false,
      "t": 230492,
      "d": 224,
      "v": 90
    },
    {
      "midi": 40,
      "hit": false,
      "t": 230492,
      "d": 336,
      "v": 100
    },
    {
      "midi": 39,
      "hit": false,
      "t": 230716,
      "d": 224,
      "v": 90
    },
    {
      "midi": 35,
      "hit": false,
      "t": 230828,
      "d": 112,
      "v": 100
    },
    {
      "midi": 35,
      "hit": false,
      "t": 230940,
      "d": 0,
      "v": 110
    },
    {
      "midi": 41,
      "hit": false,
      "t": 230940,
      "d": 228,
      "v": 90
    },
    {
      "midi": 77,
      "hit": false,
      "t": 230940,
      "d": 228,
      "v": 100
    },
    {
      "midi": 35,
      "hit": false,
      "t": 230940,
      "d": 452,
      "v": 100
    },
    {
      "midi": 65,
      "hit": false,
      "t": 230940,
      "d": 904,
      "v": 58
    },
    {
      "midi": 69,
      "hit": false,
      "t": 230940,
      "d": 904,
      "v": 58
    },
    {
      "midi": 41,
      "hit": false,
      "t": 231168,
      "d": 224,
      "v": 90
    },
    {
      "midi": 75,
      "hit": false,
      "t": 231168,
      "d": 224,
      "v": 100
    },
    {
      "midi": 41,
      "hit": false,
      "t": 231392,
      "d": 224,
      "v": 90
    },
    {
      "midi": 74,
      "hit": false,
      "t": 231392,
      "d": 224,
      "v": 100
    },
    {
      "midi": 40,
      "hit": false,
      "t": 231392,
      "d": 340,
      "v": 100
    },
    {
      "midi": 41,
      "hit": false,
      "t": 231616,
      "d": 228,
      "v": 90
    },
    {
      "midi": 72,
      "hit": false,
      "t": 231616,
      "d": 228,
      "v": 100
    },
    {
      "midi": 35,
      "hit": false,
      "t": 231732,
      "d": 112,
      "v": 100
    },
    {
      "midi": 35,
      "hit": false,
      "t": 231844,
      "d": 0,
      "v": 110
    },
    {
      "midi": 46,
      "hit": false,
      "t": 231844,
      "d": 224,
      "v": 90
    },
    {
      "midi": 35,
      "hit": false,
      "t": 231844,
      "d": 224,
      "v": 100
    },
    {
      "midi": 72,
      "hit": false,
      "t": 231844,
      "d": 336,
      "v": 100
    },
    {
      "midi": 70,
      "hit": false,
      "t": 231844,
      "d": 900,
      "v": 58
    },
    {
      "midi": 77,
      "hit": false,
      "t": 231844,
      "d": 900,
      "v": 58
    },
    {
      "midi": 35,
      "hit": false,
      "t": 232068,
      "d": 0,
      "v": 110
    },
    {
      "midi": 46,
      "hit": false,
      "t": 232068,
      "d": 228,
      "v": 90
    },
    {
      "midi": 35,
      "hit": false,
      "t": 232068,
      "d": 228,
      "v": 100
    },
    {
      "midi": 74,
      "hit": false,
      "t": 232180,
      "d": 340,
      "v": 100
    },
    {
      "midi": 46,
      "hit": false,
      "t": 232296,
      "d": 224,
      "v": 90
    },
    {
      "midi": 40,
      "hit": false,
      "t": 232296,
      "d": 336,
      "v": 100
    },
    {
      "midi": 46,
      "hit": false,
      "t": 232520,
      "d": 224,
      "v": 90
    },
    {
      "midi": 35,
      "hit": false,
      "t": 232632,
      "d": 112,
      "v": 100
    },
    {
      "midi": 35,
      "hit": false,
      "t": 232744,
      "d": 0,
      "v": 110
    },
    {
      "midi": 48,
      "hit": false,
      "t": 232744,
      "d": 228,
      "v": 90
    },
    {
      "midi": 75,
      "hit": false,
      "t": 232744,
      "d": 340,
      "v": 100
    },
    {
      "midi": 57,
      "hit": false,
      "t": 232744,
      "d": 452,
      "v": 100
    },
    {
      "midi": 35,
      "hit": false,
      "t": 232744,
      "d": 452,
      "v": 100
    },
    {
      "midi": 60,
      "hit": false,
      "t": 232744,
      "d": 904,
      "v": 58
    },
    {
      "midi": 63,
      "hit": false,
      "t": 232744,
      "d": 904,
      "v": 58
    },
    {
      "midi": 67,
      "hit": false,
      "t": 232744,
      "d": 904,
      "v": 58
    },
    {
      "midi": 48,
      "hit": false,
      "t": 232972,
      "d": 224,
      "v": 90
    },
    {
      "midi": 75,
      "hit": false,
      "t": 233084,
      "d": 340,
      "v": 100
    },
    {
      "midi": 48,
      "hit": false,
      "t": 233196,
      "d": 228,
      "v": 90
    },
    {
      "midi": 40,
      "hit": false,
      "t": 233196,
      "d": 340,
      "v": 100
    },
    {
      "midi": 48,
      "hit": false,
      "t": 233424,
      "d": 224,
      "v": 90
    },
    {
      "midi": 75,
      "hit": false,
      "t": 233424,
      "d": 224,
      "v": 100
    },
    {
      "midi": 35,
      "hit": false,
      "t": 233536,
      "d": 112,
      "v": 100
    },
    {
      "midi": 35,
      "hit": false,
      "t": 233648,
      "d": 0,
      "v": 110
    },
    {
      "midi": 50,
      "hit": false,
      "t": 233648,
      "d": 224,
      "v": 90
    },
    {
      "midi": 35,
      "hit": false,
      "t": 233648,
      "d": 224,
      "v": 100
    },
    {
      "midi": 74,
      "hit": false,
      "t": 233648,
      "d": 452,
      "v": 100
    },
    {
      "midi": 62,
      "hit": false,
      "t": 233648,
      "d": 904,
      "v": 58
    },
    {
      "midi": 65,
      "hit": false,
      "t": 233648,
      "d": 904,
      "v": 58
    },
    {
      "midi": 69,
      "hit": false,
      "t": 233648,
      "d": 904,
      "v": 58
    },
    {
      "midi": 35,
      "hit": false,
      "t": 233872,
      "d": 0,
      "v": 110
    },
    {
      "midi": 50,
      "hit": false,
      "t": 233872,
      "d": 228,
      "v": 90
    },
    {
      "midi": 35,
      "hit": false,
      "t": 233872,
      "d": 228,
      "v": 100
    },
    {
      "midi": 50,
      "hit": false,
      "t": 234100,
      "d": 224,
      "v": 90
    },
    {
      "midi": 77,
      "hit": false,
      "t": 234100,
      "d": 224,
      "v": 100
    },
    {
      "midi": 40,
      "hit": false,
      "t": 234100,
      "d": 336,
      "v": 100
    },
    {
      "midi": 50,
      "hit": false,
      "t": 234324,
      "d": 228,
      "v": 90
    },
    {
      "midi": 77,
      "hit": false,
      "t": 234324,
      "d": 228,
      "v": 100
    },
    {
      "midi": 35,
      "hit": false,
      "t": 234436,
      "d": 116,
      "v": 100
    },
    {
      "midi": 35,
      "hit": false,
      "t": 234552,
      "d": 0,
      "v": 110
    },
    {
      "midi": 39,
      "hit": false,
      "t": 234552,
      "d": 224,
      "v": 90
    },
    {
      "midi": 35,
      "hit": false,
      "t": 234552,
      "d": 448,
      "v": 100
    },
    {
      "midi": 63,
      "hit": false,
      "t": 234552,
      "d": 1804,
      "v": 58
    },
    {
      "midi": 67,
      "hit": false,
      "t": 234552,
      "d": 1804,
      "v": 58
    },
    {
      "midi": 70,
      "hit": false,
      "t": 234552,
      "d": 1804,
      "v": 58
    },
    {
      "midi": 78,
      "hit": false,
      "t": 234552,
      "d": 1804,
      "v": 100
    },
    {
      "midi": 39,
      "hit": false,
      "t": 234776,
      "d": 224,
      "v": 90
    },
    {
      "midi": 39,
      "hit": false,
      "t": 235000,
      "d": 228,
      "v": 90
    },
    {
      "midi": 40,
      "hit": false,
      "t": 235000,
      "d": 340,
      "v": 100
    },
    {
      "midi": 39,
      "hit": false,
      "t": 235228,
      "d": 224,
      "v": 90
    },
    {
      "midi": 35,
      "hit": false,
      "t": 235340,
      "d": 112,
      "v": 100
    },
    {
      "midi": 35,
      "hit": false,
      "t": 235452,
      "d": 0,
      "v": 110
    },
    {
      "midi": 39,
      "hit": false,
      "t": 235452,
      "d": 228,
      "v": 90
    },
    {
      "midi": 35,
      "hit": false,
      "t": 235452,
      "d": 228,
      "v": 100
    },
    {
      "midi": 35,
      "hit": false,
      "t": 235680,
      "d": 0,
      "v": 110
    },
    {
      "midi": 39,
      "hit": false,
      "t": 235680,
      "d": 224,
      "v": 90
    },
    {
      "midi": 35,
      "hit": false,
      "t": 235680,
      "d": 224,
      "v": 100
    },
    {
      "midi": 39,
      "hit": false,
      "t": 235904,
      "d": 224,
      "v": 90
    },
    {
      "midi": 40,
      "hit": false,
      "t": 235904,
      "d": 340,
      "v": 100
    },
    {
      "midi": 39,
      "hit": false,
      "t": 236128,
      "d": 228,
      "v": 90
    },
    {
      "midi": 35,
      "hit": false,
      "t": 236244,
      "d": 112,
      "v": 100
    },
    {
      "midi": 35,
      "hit": false,
      "t": 236356,
      "d": 0,
      "v": 110
    },
    {
      "midi": 41,
      "hit": false,
      "t": 236356,
      "d": 224,
      "v": 90
    },
    {
      "midi": 35,
      "hit": false,
      "t": 236356,
      "d": 448,
      "v": 100
    },
    {
      "midi": 69,
      "hit": false,
      "t": 236356,
      "d": 1804,
      "v": 58
    },
    {
      "midi": 72,
      "hit": false,
      "t": 236356,
      "d": 1804,
      "v": 58
    },
    {
      "midi": 41,
      "hit": false,
      "t": 236580,
      "d": 224,
      "v": 90
    },
    {
      "midi": 41,
      "hit": false,
      "t": 236804,
      "d": 228,
      "v": 90
    },
    {
      "midi": 40,
      "hit": false,
      "t": 236804,
      "d": 340,
      "v": 100
    },
    {
      "midi": 41,
      "hit": false,
      "t": 237032,
      "d": 224,
      "v": 90
    },
    {
      "midi": 35,
      "hit": false,
      "t": 237144,
      "d": 112,
      "v": 100
    },
    {
      "midi": 40,
      "hit": false,
      "t": 237256,
      "d": 112,
      "v": 100
    },
    {
      "midi": 41,
      "hit": false,
      "t": 237256,
      "d": 228,
      "v": 90
    },
    {
      "midi": 77,
      "hit": false,
      "t": 237256,
      "d": 340,
      "v": 100
    },
    {
      "midi": 40,
      "hit": false,
      "t": 237368,
      "d": 116,
      "v": 100
    },
    {
      "midi": 40,
      "hit": false,
      "t": 237484,
      "d": 112,
      "v": 100
    },
    {
      "midi": 41,
      "hit": false,
      "t": 237484,
      "d": 224,
      "v": 90
    },
    {
      "midi": 40,
      "hit": false,
      "t": 237596,
      "d": 112,
      "v": 100
    },
    {
      "midi": 79,
      "hit": false,
      "t": 237596,
      "d": 336,
      "v": 100
    },
    {
      "midi": 40,
      "hit": false,
      "t": 237708,
      "d": 112,
      "v": 100
    },
    {
      "midi": 41,
      "hit": false,
      "t": 237708,
      "d": 224,
      "v": 90
    },
    {
      "midi": 40,
      "hit": false,
      "t": 237820,
      "d": 112,
      "v": 100
    },
    {
      "midi": 40,
      "hit": false,
      "t": 237932,
      "d": 116,
      "v": 100
    },
    {
      "midi": 41,
      "hit": false,
      "t": 237932,
      "d": 228,
      "v": 90
    },
    {
      "midi": 74,
      "hit": false,
      "t": 237932,
      "d": 228,
      "v": 100
    },
    {
      "midi": 62,
      "hit": false,
      "t": 237932,
      "d": 228,
      "v": 80
    },
    {
      "midi": 40,
      "hit": false,
      "t": 238048,
      "d": 112,
      "v": 100
    },
    {
      "midi": 65,
      "hit": false,
      "t": 238160,
      "d": 0,
      "v": 80
    },
    {
      "midi": 43,
      "hit": false,
      "t": 238160,
      "d": 224,
      "v": 90
    },
    {
      "midi": 77,
      "hit": false,
      "t": 238160,
      "d": 336,
      "v": 100
    },
    {
      "midi": 57,
      "hit": false,
      "t": 238160,
      "d": 452,
      "v": 100
    },
    {
      "midi": 35,
      "hit": false,
      "t": 238160,
      "d": 452,
      "v": 100
    },
    {
      "midi": 43,
      "hit": false,
      "t": 238384,
      "d": 228,
      "v": 90
    },
    {
      "midi": 79,
      "hit": false,
      "t": 238496,
      "d": 116,
      "v": 100
    },
    {
      "midi": 67,
      "hit": false,
      "t": 238496,
      "d": 340,
      "v": 80
    },
    {
      "midi": 43,
      "hit": false,
      "t": 238612,
      "d": 224,
      "v": 90
    },
    {
      "midi": 40,
      "hit": false,
      "t": 238612,
      "d": 336,
      "v": 100
    },
    {
      "midi": 43,
      "hit": false,
      "t": 238836,
      "d": 224,
      "v": 90
    },
    {
      "midi": 74,
      "hit": false,
      "t": 238836,
      "d": 224,
      "v": 100
    },
    {
      "midi": 62,
      "hit": false,
      "t": 238836,
      "d": 224,
      "v": 80
    },
    {
      "midi": 35,
      "hit": false,
      "t": 238948,
      "d": 112,
      "v": 100
    },
    {
      "midi": 35,
      "hit": false,
      "t": 239060,
      "d": 0,
      "v": 110
    },
    {
      "midi": 39,
      "hit": false,
      "t": 239060,
      "d": 228,
      "v": 90
    },
    {
      "midi": 35,
      "hit": false,
      "t": 239060,
      "d": 228,
      "v": 100
    },
    {
      "midi": 77,
      "hit": false,
      "t": 239060,
      "d": 340,
      "v": 100
    },
    {
      "midi": 65,
      "hit": false,
      "t": 239060,
      "d": 340,
      "v": 80
    },
    {
      "midi": 35,
      "hit": false,
      "t": 239288,
      "d": 0,
      "v": 110
    },
    {
      "midi": 39,
      "hit": false,
      "t": 239288,
      "d": 224,
      "v": 90
    },
    {
      "midi": 35,
      "hit": false,
      "t": 239288,
      "d": 224,
      "v": 100
    },
    {
      "midi": 79,
      "hit": false,
      "t": 239400,
      "d": 340,
      "v": 100
    },
    {
      "midi": 67,
      "hit": false,
      "t": 239400,
      "d": 340,
      "v": 80
    },
    {
      "midi": 39,
      "hit": false,
      "t": 239512,
      "d": 228,
      "v": 90
    },
    {
      "midi": 40,
      "hit": false,
      "t": 239512,
      "d": 340,
      "v": 100
    },
    {
      "midi": 39,
      "hit": false,
      "t": 239740,
      "d": 224,
      "v": 90
    },
    {
      "midi": 74,
      "hit": false,
      "t": 239740,
      "d": 224,
      "v": 100
    },
    {
      "midi": 62,
      "hit": false,
      "t": 239740,
      "d": 224,
      "v": 80
    },
    {
      "midi": 35,
      "hit": false,
      "t": 239852,
      "d": 112,
      "v": 100
    },
    {
      "midi": 41,
      "hit": false,
      "t": 239964,
      "d": 112,
      "v": 90
    },
    {
      "midi": 77,
      "hit": false,
      "t": 239964,
      "d": 112,
      "v": 100
    },
    {
      "midi": 65,
      "hit": false,
      "t": 239964,
      "d": 112,
      "v": 80
    },
    {
      "midi": 45,
      "hit": false,
      "t": 239964,
      "d": 112,
      "v": 100
    },
    {
      "midi": 41,
      "hit": false,
      "t": 240076,
      "d": 112,
      "v": 90
    },
    {
      "midi": 77,
      "hit": false,
      "t": 240076,
      "d": 112,
      "v": 100
    },
    {
      "midi": 65,
      "hit": false,
      "t": 240076,
      "d": 112,
      "v": 80
    },
    {
      "midi": 45,
      "hit": false,
      "t": 240076,
      "d": 112,
      "v": 100
    },
    {
      "midi": 41,
      "hit": false,
      "t": 240188,
      "d": 228,
      "v": 90
    },
    {
      "midi": 74,
      "hit": false,
      "t": 240188,
      "d": 228,
      "v": 100
    },
    {
      "midi": 62,
      "hit": false,
      "t": 240188,
      "d": 228,
      "v": 80
    },
    {
      "midi": 45,
      "hit": false,
      "t": 240188,
      "d": 228,
      "v": 100
    },
    {
      "midi": 41,
      "hit": false,
      "t": 240416,
      "d": 224,
      "v": 90
    },
    {
      "midi": 77,
      "hit": false,
      "t": 240416,
      "d": 224,
      "v": 100
    },
    {
      "midi": 65,
      "hit": false,
      "t": 240416,
      "d": 224,
      "v": 80
    },
    {
      "midi": 43,
      "hit": false,
      "t": 240416,
      "d": 224,
      "v": 100
    },
    {
      "midi": 41,
      "hit": false,
      "t": 240640,
      "d": 228,
      "v": 100
    },
    {
      "midi": 74,
      "hit": false,
      "t": 240640,
      "d": 228,
      "v": 100
    },
    {
      "midi": 62,
      "hit": false,
      "t": 240640,
      "d": 228,
      "v": 80
    },
    {
      "midi": 41,
      "hit": false,
      "t": 240868,
      "d": 0,
      "v": 90
    },
    {
      "midi": 77,
      "hit": false,
      "t": 240868,
      "d": 336,
      "v": 100
    },
    {
      "midi": 65,
      "hit": false,
      "t": 240868,
      "d": 336,
      "v": 80
    },
    {
      "midi": 49,
      "hit": false,
      "t": 240868,
      "d": 336,
      "v": 100
    },
    {
      "midi": 43,
      "hit": false,
      "t": 241204,
      "d": 452,
      "v": 90
    },
    {
      "midi": 79,
      "hit": false,
      "t": 241204,
      "d": 452,
      "v": 100
    },
    {
      "midi": 67,
      "hit": false,
      "t": 241204,
      "d": 452,
      "v": 80
    },
    {
      "midi": 57,
      "hit": false,
      "t": 241204,
      "d": 904,
      "v": 100
    }
  ]
}