{
  "jsonPath": "Animes/Digimon Adventure MIDI Collection/fire.json",
  "path": "Animes\\Digimon Adventure MIDI Collection\\Fire!.mid",
  "name": "Fire!",
  "difficulty": "Beginner",
  "bpm": 120,
  "notes": [
    {
      "midi": 93,
      "hit": false,
      "t": 2500.0000000000005,
      "d": 208.33333333333348,
      "v": 80
    },
    {
      "midi": 93,
      "hit": false,
      "t": 3000.0000000000005,
      "d": 208.33333333333348,
      "v": 80
    },
    {
      "midi": 90,
      "hit": false,
      "t": 3500.0000000000005,
      "d": 208.33333333333348,
      "v": 80
    },
    {
      "midi": 95,
      "hit": false,
      "t": 4000.0000000000005,
      "d": 208.33333333333348,
      "v": 80
    },
    {
      "midi": 93,
      "hit": false,
      "t": 4250.000000000001,
      "d": 208.33333333333303,
      "v": 80
    },
    {
      "midi": 93,
      "hit": false,
      "t": 4500.000000000001,
      "d": 208.33333333333303,
      "v": 60
    },
    {
      "midi": 93,
      "hit": false,
      "t": 4750.000000000001,
      "d": 208.33333333333303,
      "v": 80
    },
    {
      "midi": 90,
      "hit": false,
      "t": 5500.000000000001,
      "d": 208.33333333333303,
      "v": 80
    },
    {
      "midi": 91,
      "hit": false,
      "t": 5750.000000000001,
      "d": 208.33333333333303,
      "v": 80
    },
    {
      "midi": 93,
      "hit": false,
      "t": 6000.000000000001,
      "d": 208.33333333333303,
      "v": 80
    },
    {
      "midi": 93,
      "hit": false,
      "t": 6250.000000000001,
      "d": 208.33333333333303,
      "v": 80
    },
    {
      "midi": 93,
      "hit": false,
      "t": 6500.000000000001,
      "d": 208.33333333333303,
      "v": 80
    },
    {
      "midi": 93,
      "hit": false,
      "t": 6750.000000000001,
      "d": 208.33333333333303,
      "v": 80
    },
    {
      "midi": 93,
      "hit": false,
      "t": 7000.000000000001,
      "d": 208.33333333333303,
      "v": 80
    },
    {
      "midi": 98,
      "hit": false,
      "t": 7500.000000000001,
      "d": 208.33333333333303,
      "v": 80
    },
    {
      "midi": 97,
      "hit": false,
      "t": 7750.000000000001,
      "d": 208.33333333333303,
      "v": 80
    },
    {
      "midi": 93,
      "hit": false,
      "t": 8250,
      "d": 208.33333333333394,
      "v": 80
    },
    {
      "midi": 90,
      "hit": false,
      "t": 9000,
      "d": 208.33333333333394,
      "v": 80
    },
    {
      "midi": 91,
      "hit": false,
      "t": 9250,
      "d": 208.33333333333394,
      "v": 80
    },
    {
      "midi": 93,
      "hit": false,
      "t": 9500,
      "d": 208.33333333333394,
      "v": 80
    },
    {
      "midi": 93,
      "hit": false,
      "t": 9750,
      "d": 208.33333333333394,
      "v": 80
    },
    {
      "midi": 86,
      "hit": false,
      "t": 10250,
      "d": 208.33333333333394,
      "v": 80
    },
    {
      "midi": 86,
      "hit": false,
      "t": 10500,
      "d": 208.33333333333394,
      "v": 80
    },
    {
      "midi": 86,
      "hit": false,
      "t": 13250,
      "d": 208.33333333333394,
      "v": 80
    },
    {
      "midi": 86,
      "hit": false,
      "t": 13500,
      "d": 208.33333333333394,
      "v": 80
    },
    {
      "midi": 88,
      "hit": false,
      "t": 13750,
      "d": 208.33333333333394,
      "v": 80
    },
    {
      "midi": 89,
      "hit": false,
      "t": 14000,
      "d": 208.33333333333394,
      "v": 80
    },
    {
      "midi": 88,
      "hit": false,
      "t": 15000,
      "d": 208.33333333333394,
      "v": 80
    },
    {
      "midi": 86,
      "hit": false,
      "t": 16000,
      "d": 208.33333333333394,
      "v": 80
    },
    {
      "midi": 88,
      "hit": false,
      "t": 16750,
      "d": 208.33333333333212,
      "v": 80
    },
    {
      "midi": 88,
      "hit": false,
      "t": 17000,
      "d": 208.33333333333212,
      "v": 80
    },
    {
      "midi": 93,
      "hit": false,
      "t": 18500,
      "d": 208.33333333333212,
      "v": 80
    },
    {
      "midi": 93,
      "hit": false,
      "t": 19000,
      "d": 208.33333333333212,
      "v": 80
    },
    {
      "midi": 90,
      "hit": false,
      "t": 19500,
      "d": 208.33333333333212,
      "v": 80
    },
    {
      "midi": 95,
      "hit": false,
      "t": 20000,
      "d": 208.33333333333212,
      "v": 80
    },
    {
      "midi": 93,
      "hit": false,
      "t": 20250,
      "d": 208.33333333333212,
      "v": 80
    },
    {
      "midi": 93,
      "hit": false,
      "t": 20750,
      "d": 208.33333333333212,
      "v": 80
    },
    {
      "midi": 90,
      "hit": false,
      "t": 21500,
      "d": 208.33333333333212,
      "v": 80
    },
    {
      "midi": 91,
      "hit": false,
      "t": 21750,
      "d": 208.33333333333212,
      "v": 80
    },
    {
      "midi": 93,
      "hit": false,
      "t": 22000,
      "d": 208.33333333333212,
      "v": 80
    },
    {
      "midi": 93,
      "hit": false,
      "t": 22250,
      "d": 208.33333333333212,
      "v": 80
    },
    {
      "midi": 93,
      "hit": false,
      "t": 22500,
      "d": 208.33333333333212,
      "v": 80
    },
    {
      "midi": 93,
      "hit": false,
      "t": 22750,
      "d": 208.33333333333212,
      "v": 80
    },
    {
      "midi": 93,
      "hit": false,
      "t": 23000,
      "d": 208.33333333333212,
      "v": 80
    },
    {
      "midi": 98,
      "hit": false,
      "t": 23500,
      "d": 208.33333333333212,
      "v": 80
    },
    {
      "midi": 97,
      "hit": false,
      "t": 23750,
      "d": 208.33333333333212,
      "v": 80
    },
    {
      "midi": 93,
      "hit": false,
      "t": 24250,
      "d": 208.33333333333212,
      "v": 80
    },
    {
      "midi": 90,
      "hit": false,
      "t": 25000,
      "d": 208.33333333333212,
      "v": 80
    },
    {
      "midi": 91,
      "hit": false,
      "t": 25250,
      "d": 208.33333333333212,
      "v": 80
    },
    {
      "midi": 93,
      "hit": false,
      "t": 25500,
      "d": 208.33333333333212,
      "v": 80
    },
    {
      "midi": 93,
      "hit": false,
      "t": 25750,
      "d": 208.33333333333212,
      "v": 80
    },
    {
      "midi": 86,
      "hit": false,
      "t": 26250,
      "d": 208.33333333333212,
      "v": 80
    },
    {
      "midi": 86,
      "hit": false,
      "t": 26500,
      "d": 208.33333333333212,
      "v": 80
    },
    {
      "midi": 86,
      "hit": false,
      "t": 27500,
      "d": 208.33333333333212,
      "v": 80
    },
    {
      "midi": 88,
      "hit": false,
      "t": 27750,
      "d": 208.33333333333212,
      "v": 80
    },
    {
      "midi": 89,
      "hit": false,
      "t": 28000,
      "d": 208.33333333333212,
      "v": 80
    },
    {
      "midi": 91,
      "hit": false,
      "t": 28500,
      "d": 208.33333333333212,
      "v": 80
    },
    {
      "midi": 89,
      "hit": false,
      "t": 28750,
      "d": 208.33333333333212,
      "v": 80
    },
    {
      "midi": 88,
      "hit": false,
      "t": 29250,
      "d": 208.33333333333212,
      "v": 80
    },
    {
      "midi": 86,
      "hit": false,
      "t": 29500,
      "d": 208.33333333333212,
      "v": 80
    },
    {
      "midi": 88,
      "hit": false,
      "t": 29750,
      "d": 208.33333333333212,
      "v": 80
    },
    {
      "midi": 86,
      "hit": false,
      "t": 30000,
      "d": 208.33333333333212,
      "v": 80
    },
    {
      "midi": 98,
      "hit": false,
      "t": 32750,
      "d": 208.33333333333576,
      "v": 80
    },
    {
      "midi": 98,
      "hit": false,
      "t": 33000,
      "d": 208.33333333333576,
      "v": 80
    },
    {
      "midi": 97,
      "hit": false,
      "t": 33500,
      "d": 208.33333333333576,
      "v": 80
    },
    {
      "midi": 98,
      "hit": false,
      "t": 33750,
      "d": 208.33333333333576,
      "v": 80
    },
    {
      "midi": 98,
      "hit": false,
      "t": 35000,
      "d": 208.33333333333576,
      "v": 80
    },
    {
      "midi": 97,
      "hit": false,
      "t": 35500,
      "d": 208.33333333333576,
      "v": 80
    },
    {
      "midi": 98,
      "hit": false,
      "t": 35750,
      "d": 208.33333333333576,
      "v": 80
    },
    {
      "midi": 98,
      "hit": false,
      "t": 37000,
      "d": 208.33333333333576,
      "v": 80
    },
    {
      "midi": 100,
      "hit": false,
      "t": 37500,
      "d": 208.33333333333576,
      "v": 80
    },
    {
      "midi": 102,
      "hit": false,
      "t": 37750,
      "d": 208.33333333333576,
      "v": 80
    },
    {
      "midi": 102,
      "hit": false,
      "t": 38250,
      "d": 208.33333333333576,
      "v": 80
    },
    {
      "midi": 102,
      "hit": false,
      "t": 38500,
      "d": 208.33333333333576,
      "v": 80
    },
    {
      "midi": 102,
      "hit": false,
      "t": 38750,
      "d": 208.33333333333576,
      "v": 80
    },
    {
      "midi": 103,
      "hit": false,
      "t": 39000,
      "d": 208.33333333333576,
      "v": 80
    },
    {
      "midi": 102,
      "hit": false,
      "t": 39500,
      "d": 208.33333333333576,
      "v": 80
    },
    {
      "midi": 100,
      "hit": false,
      "t": 39750,
      "d": 208.33333333333576,
      "v": 80
    },
    {
      "midi": 93,
      "hit": false,
      "t": 40250,
      "d": 208.33333333333576,
      "v": 80
    },
    {
      "midi": 93,
      "hit": false,
      "t": 40500,
      "d": 208.33333333333576,
      "v": 80
    },
    {
      "midi": 98,
      "hit": false,
      "t": 41000,
      "d": 208.33333333333576,
      "v": 80
    },
    {
      "midi": 97,
      "hit": false,
      "t": 41500,
      "d": 208.33333333333576,
      "v": 80
    },
    {
      "midi": 98,
      "hit": false,
      "t": 41750,
      "d": 208.33333333333576,
      "v": 80
    },
    {
      "midi": 98,
      "hit": false,
      "t": 42750,
      "d": 208.33333333333576,
      "v": 80
    },
    {
      "midi": 98,
      "hit": false,
      "t": 43000,
      "d": 208.33333333333576,
      "v": 80
    },
    {
      "midi": 97,
      "hit": false,
      "t": 43500,
      "d": 208.33333333333576,
      "v": 80
    },
    {
      "midi": 98,
      "hit": false,
      "t": 43750,
      "d": 208.33333333333576,
      "v": 80
    },
    {
      "midi": 98,
      "hit": false,
      "t": 45000,
      "d": 208.33333333333576,
      "v": 80
    },
    {
      "midi": 100,
      "hit": false,
      "t": 45500,
      "d": 208.33333333333576,
      "v": 80
    },
    {
      "midi": 102,
      "hit": false,
      "t": 45750,
      "d": 208.33333333333576,
      "v": 80
    },
    {
      "midi": 102,
      "hit": false,
      "t": 46250,
      "d": 208.33333333333576,
      "v": 80
    },
    {
      "midi": 102,
      "hit": false,
      "t": 46500,
      "d": 208.33333333333576,
      "v": 80
    },
    {
      "midi": 102,
      "hit": false,
      "t": 46750,
      "d": 208.33333333333576,
      "v": 80
    },
    {
      "midi": 103,
      "hit": false,
      "t": 47000,
      "d": 208.33333333333576,
      "v": 80
    },
    {
      "midi": 102,
      "hit": false,
      "t": 47500,
      "d": 208.33333333333576,
      "v": 80
    },
    {
      "midi": 100,
      "hit": false,
      "t": 47750,
      "d": 208.33333333333576,
      "v": 80
    },
    {
      "midi": 93,
      "hit": false,
      "t": 48250,
      "d": 208.33333333333576,
      "v": 80
    },
    {
      "midi": 93,
      "hit": false,
      "t": 48500,
      "d": 208.33333333333576,
      "v": 80
    },
    {
      "midi": 102,
      "hit": false,
      "t": 49000,
      "d": 208.33333333333576,
      "v": 80
    },
    {
      "midi": 100,
      "hit": false,
      "t": 49250,
      "d": 208.33333333333576,
      "v": 80
    },
    {
      "midi": 98,
      "hit": false,
      "t": 49500,
      "d": 208.33333333333576,
      "v": 80
    },
    {
      "midi": 98,
      "hit": false,
      "t": 49750,
      "d": 208.33333333333576,
      "v": 80
    },
    {
      "midi": 90,
      "hit": false,
      "t": 55250,
      "d": 208.33333333333576,
      "v": 80
    },
    {
      "midi": 91,
      "hit": false,
      "t": 55500,
      "d": 208.33333333333576,
      "v": 80
    },
    {
      "midi": 93,
      "hit": false,
      "t": 55750,
      "d": 208.33333333333576,
      "v": 80
    },
    {
      "midi": 98,
      "hit": false,
      "t": 56500,
      "d": 208.33333333333576,
      "v": 80
    },
    {
      "midi": 98,
      "hit": false,
      "t": 56750,
      "d": 208.33333333333576,
      "v": 80
    },
    {
      "midi": 90,
      "hit": false,
      "t": 57250,
      "d": 208.33333333333576,
      "v": 80
    },
    {
      "midi": 91,
      "hit": false,
      "t": 57500,
      "d": 208.33333333333576,
      "v": 80
    },
    {
      "midi": 93,
      "hit": false,
      "t": 57750,
      "d": 208.33333333333576,
      "v": 80
    },
    {
      "midi": 100,
      "hit": false,
      "t": 58500,
      "d": 208.33333333333576,
      "v": 80
    },
    {
      "midi": 100,
      "hit": false,
      "t": 58750,
      "d": 208.33333333333576,
      "v": 80
    },
    {
      "midi": 98,
      "hit": false,
      "t": 59250,
      "d": 208.33333333333576,
      "v": 80
    },
    {
      "midi": 100,
      "hit": false,
      "t": 59500,
      "d": 208.33333333333576,
      "v": 80
    },
    {
      "midi": 102,
      "hit": false,
      "t": 59750,
      "d": 208.33333333333576,
      "v": 80
    },
    {
      "midi": 103,
      "hit": false,
      "t": 60500,
      "d": 208.33333333333576,
      "v": 80
    },
    {
      "midi": 102,
      "hit": false,
      "t": 60750,
      "d": 208.33333333333576,
      "v": 80
    },
    {
      "midi": 100,
      "hit": false,
      "t": 61250,
      "d": 208.33333333333576,
      "v": 80
    },
    {
      "midi": 98,
      "hit": false,
      "t": 61750,
      "d": 208.33333333333576,
      "v": 80
    },
    {
      "midi": 100,
      "hit": false,
      "t": 63750,
      "d": 208.33333333333576,
      "v": 80
    },
    {
      "midi": 100,
      "hit": false,
      "t": 64250,
      "d": 208.33333333333576,
      "v": 80
    },
    {
      "midi": 100,
      "hit": false,
      "t": 64500,
      "d": 208.33333333333576,
      "v": 80
    },
    {
      "midi": 100,
      "hit": false,
      "t": 64750,
      "d": 208.33333333333576,
      "v": 80
    },
    {
      "midi": 100,
      "hit": false,
      "t": 65000,
      "d": 208.33333333333576,
      "v": 80
    },
    {
      "midi": 102,
      "hit": false,
      "t": 65250,
      "d": 208.33333333333576,
      "v": 80
    },
    {
      "midi": 100,
      "hit": false,
      "t": 65500,
      "d": 208.33333333332848,
      "v": 80
    },
    {
      "midi": 98,
      "hit": false,
      "t": 65750,
      "d": 208.33333333332848,
      "v": 80
    },
    {
      "midi": 95,
      "hit": false,
      "t": 66500,
      "d": 208.33333333332848,
      "v": 80
    },
    {
      "midi": 95,
      "hit": false,
      "t": 66750,
      "d": 208.33333333332848,
      "v": 80
    },
    {
      "midi": 98,
      "hit": false,
      "t": 67000,
      "d": 208.33333333332848,
      "v": 80
    },
    {
      "midi": 98,
      "hit": false,
      "t": 67750,
      "d": 208.33333333332848,
      "v": 80
    },
    {
      "midi": 95,
      "hit": false,
      "t": 68250,
      "d": 208.33333333332848,
      "v": 80
    },
    {
      "midi": 93,
      "hit": false,
      "t": 68500,
      "d": 208.33333333332848,
      "v": 80
    },
    {
      "midi": 90,
      "hit": false,
      "t": 71250,
      "d": 208.33333333332848,
      "v": 80
    },
    {
      "midi": 91,
      "hit": false,
      "t": 71500,
      "d": 208.33333333332848,
      "v": 80
    },
    {
      "midi": 93,
      "hit": false,
      "t": 71750,
      "d": 208.33333333332848,
      "v": 80
    },
    {
      "midi": 98,
      "hit": false,
      "t": 72500,
      "d": 208.33333333332848,
      "v": 80
    },
    {
      "midi": 98,
      "hit": false,
      "t": 72750,
      "d": 208.33333333332848,
      "v": 80
    },
    {
      "midi": 90,
      "hit": false,
      "t": 73250,
      "d": 208.33333333332848,
      "v": 80
    },
    {
      "midi": 91,
      "hit": false,
      "t": 73500,
      "d": 208.33333333332848,
      "v": 80
    },
    {
      "midi": 93,
      "hit": false,
      "t": 73750,
      "d": 208.33333333332848,
      "v": 80
    },
    {
      "midi": 100,
      "hit": false,
      "t": 74500,
      "d": 208.33333333332848,
      "v": 80
    },
    {
      "midi": 100,
      "hit": false,
      "t": 74750,
      "d": 208.33333333332848,
      "v": 80
    },
    {
      "midi": 98,
      "hit": false,
      "t": 75250,
      "d": 208.33333333332848,
      "v": 80
    },
    {
      "midi": 100,
      "hit": false,
      "t": 75500,
      "d": 208.33333333332848,
      "v": 80
    },
    {
      "midi": 102,
      "hit": false,
      "t": 75750,
      "d": 208.33333333332848,
      "v": 80
    },
    {
      "midi": 103,
      "hit": false,
      "t": 76500,
      "d": 208.33333333332848,
      "v": 80
    },
    {
      "midi": 102,
      "hit": false,
      "t": 76750,
      "d": 208.33333333332848,
      "v": 80
    },
    {
      "midi": 100,
      "hit": false,
      "t": 77250,
      "d": 208.33333333332848,
      "v": 80
    },
    {
      "midi": 98,
      "hit": false,
      "t": 77500,
      "d": 208.33333333332848,
      "v": 80
    },
    {
      "midi": 100,
      "hit": false,
      "t": 77750,
      "d": 208.33333333332848,
      "v": 80
    },
    {
      "midi": 98,
      "hit": false,
      "t": 78000,
      "d": 208.33333333332848,
      "v": 80
    },
    {
      "midi": 100,
      "hit": false,
      "t": 79750,
      "d": 208.33333333332848,
      "v": 80
    },
    {
      "midi": 100,
      "hit": false,
      "t": 80250,
      "d": 208.33333333332848,
      "v": 80
    },
    {
      "midi": 100,
      "hit": false,
      "t": 80500,
      "d": 208.33333333332848,
      "v": 80
    },
    {
      "midi": 100,
      "hit": false,
      "t": 80750,
      "d": 208.33333333332848,
      "v": 80
    },
    {
      "midi": 100,
      "hit": false,
      "t": 81000,
      "d": 208.33333333332848,
      "v": 80
    },
    {
      "midi": 102,
      "hit": false,
      "t": 81250,
      "d": 208.33333333332848,
      "v": 80
    },
    {
      "midi": 100,
      "hit": false,
      "t": 81500,
      "d": 208.33333333332848,
      "v": 80
    },
    {
      "midi": 98,
      "hit": false,
      "t": 81750,
      "d": 208.33333333332848,
      "v": 80
    },
    {
      "midi": 95,
      "hit": false,
      "t": 82500,
      "d": 208.33333333332848,
      "v": 80
    },
    {
      "midi": 95,
      "hit": false,
      "t": 82750,
      "d": 208.33333333332848,
      "v": 80
    },
    {
      "midi": 98,
      "hit": false,
      "t": 83000,
      "d": 208.33333333332848,
      "v": 80
    },
    {
      "midi": 98,
      "hit": false,
      "t": 83750,
      "d": 208.33333333332848,
      "v": 80
    },
    {
      "midi": 95,
      "hit": false,
      "t": 84250,
      "d": 208.33333333332848,
      "v": 80
    },
    {
      "midi": 93,
      "hit": false,
      "t": 84500,
      "d": 208.33333333332848,
      "v": 80
    },
    {
      "midi": 98,
      "hit": false,
      "t": 86250,
      "d": 208.33333333332848,
      "v": 80
    },
    {
      "midi": 98,
      "hit": false,
      "t": 86500,
      "d": 208.33333333332848,
      "v": 80
    },
    {
      "midi": 95,
      "hit": false,
      "t": 86750,
      "d": 208.33333333332848,
      "v": 80
    },
    {
      "midi": 98,
      "hit": false,
      "t": 87000,
      "d": 208.33333333332848,
      "v": 80
    },
    {
      "midi": 98,
      "hit": false,
      "t": 87250,
      "d": 208.33333333332848,
      "v": 80
    },
    {
      "midi": 102,
      "hit": false,
      "t": 87750,
      "d": 208.33333333332848,
      "v": 80
    },
    {
      "midi": 98,
      "hit": false,
      "t": 88250,
      "d": 208.33333333332848,
      "v": 80
    },
    {
      "midi": 98,
      "hit": false,
      "t": 90250,
      "d": 208.33333333332848,
      "v": 80
    },
    {
      "midi": 98,
      "hit": false,
      "t": 90500,
      "d": 208.33333333332848,
      "v": 80
    },
    {
      "midi": 95,
      "hit": false,
      "t": 90750,
      "d": 208.33333333332848,
      "v": 80
    },
    {
      "midi": 98,
      "hit": false,
      "t": 91000,
      "d": 208.33333333332848,
      "v": 80
    },
    {
      "midi": 98,
      "hit": false,
      "t": 91250,
      "d": 208.33333333332848,
      "v": 80
    },
    {
      "midi": 98,
      "hit": false,
      "t": 91750,
      "d": 208.33333333332848,
      "v": 80
    },
    {
      "midi": 95,
      "hit": false,
      "t": 92250,
      "d": 208.33333333332848,
      "v": 80
    },
    {
      "midi": 94,
      "hit": false,
      "t": 92500,
      "d": 208.33333333332848,
      "v": 80
    },
    {
      "midi": 98,
      "hit": false,
      "t": 94250,
      "d": 208.33333333332848,
      "v": 80
    },
    {
      "midi": 98,
      "hit": false,
      "t": 94500,
      "d": 208.33333333332848,
      "v": 80
    },
    {
      "midi": 95,
      "hit": false,
      "t": 94750,
      "d": 208.33333333332848,
      "v": 80
    },
    {
      "midi": 98,
      "hit": false,
      "t": 95000,
      "d": 208.33333333332848,
      "v": 80
    },
    {
      "midi": 98,
      "hit": false,
      "t": 95250,
      "d": 208.33333333332848,
      "v": 80
    },
    {
      "midi": 98,
      "hit": false,
      "t": 95500,
      "d": 208.33333333332848,
      "v": 80
    },
    {
      "midi": 105,
      "hit": false,
      "t": 95750,
      "d": 208.33333333332848,
      "v": 80
    },
    {
      "midi": 98,
      "hit": false,
      "t": 96250,
      "d": 208.33333333332848,
      "v": 80
    },
    {
      "midi": 98,
      "hit": false,
      "t": 96500,
      "d": 208.33333333332848,
      "v": 80
    },
    {
      "midi": 98,
      "hit": false,
      "t": 98250,
      "d": 208.33333333332848,
      "v": 80
    },
    {
      "midi": 98,
      "hit": false,
      "t": 98500,
      "d": 208.33333333332848,
      "v": 80
    },
    {
      "midi": 95,
      "hit": false,
      "t": 98750,
      "d": 208.33333333332848,
      "v": 80
    },
    {
      "midi": 98,
      "hit": false,
      "t": 99000,
      "d": 208.33333333332848,
      "v": 80
    },
    {
      "midi": 98,
      "hit": false,
      "t": 99250,
      "d": 208.33333333332848,
      "v": 80
    },
    {
      "midi": 98,
      "hit": false,
      "t": 99750,
      "d": 208.33333333332848,
      "v": 80
    }
  ]
}