{
  "jsonPath": "Animes/Digimon Adventure MIDI Collection/target-akai-shougeki.json",
  "path": "Animes\\Digimon Adventure MIDI Collection\\Target Akai Shougeki.mid",
  "name": "Target Akai Shougeki",
  "difficulty": "Advanced",
  "bpm": 160,
  "notes": [
    {
      "midi": 36,
      "hit": false,
      "t": 4500,
      "d": 109.375,
      "v": 102
    },
    {
      "midi": 79,
      "hit": false,
      "t": 4500,
      "d": 878.125,
      "v": 43
    },
    {
      "midi": 76,
      "hit": false,
      "t": 4500,
      "d": 940.625,
      "v": 41
    },
    {
      "midi": 72,
      "hit": false,
      "t": 4500,
      "d": 1053.125,
      "v": 45
    },
    {
      "midi": 67,
      "hit": false,
      "t": 4500,
      "d": 1493.75,
      "v": 43
    },
    {
      "midi": 36,
      "hit": false,
      "t": 4687.5,
      "d": 134.375,
      "v": 119
    },
    {
      "midi": 36,
      "hit": false,
      "t": 4875,
      "d": 112.5,
      "v": 113
    },
    {
      "midi": 36,
      "hit": false,
      "t": 5062.5,
      "d": 150,
      "v": 113
    },
    {
      "midi": 36,
      "hit": false,
      "t": 5250,
      "d": 106.25,
      "v": 91
    },
    {
      "midi": 36,
      "hit": false,
      "t": 5437.5,
      "d": 137.5,
      "v": 105
    },
    {
      "midi": 79,
      "hit": false,
      "t": 5440.625,
      "d": 184.375,
      "v": 66
    },
    {
      "midi": 76,
      "hit": false,
      "t": 5553.125,
      "d": 146.875,
      "v": 64
    },
    {
      "midi": 36,
      "hit": false,
      "t": 5625,
      "d": 106.25,
      "v": 105
    },
    {
      "midi": 72,
      "hit": false,
      "t": 5625,
      "d": 159.375,
      "v": 57
    },
    {
      "midi": 79,
      "hit": false,
      "t": 5718.75,
      "d": 187.5,
      "v": 72
    },
    {
      "midi": 36,
      "hit": false,
      "t": 5812.5,
      "d": 128.125,
      "v": 113
    },
    {
      "midi": 76,
      "hit": false,
      "t": 5812.5,
      "d": 121.875,
      "v": 59
    },
    {
      "midi": 72,
      "hit": false,
      "t": 5906.25,
      "d": 75,
      "v": 64
    },
    {
      "midi": 43,
      "hit": false,
      "t": 6000,
      "d": 87.5,
      "v": 116
    },
    {
      "midi": 79,
      "hit": false,
      "t": 6000,
      "d": 884.375,
      "v": 47
    },
    {
      "midi": 82,
      "hit": false,
      "t": 6000,
      "d": 893.75,
      "v": 39
    },
    {
      "midi": 74,
      "hit": false,
      "t": 6000,
      "d": 915.625,
      "v": 46
    },
    {
      "midi": 70,
      "hit": false,
      "t": 6000,
      "d": 950,
      "v": 42
    },
    {
      "midi": 43,
      "hit": false,
      "t": 6187.5,
      "d": 106.25,
      "v": 116
    },
    {
      "midi": 43,
      "hit": false,
      "t": 6375,
      "d": 100,
      "v": 107
    },
    {
      "midi": 43,
      "hit": false,
      "t": 6562.5,
      "d": 112.5,
      "v": 116
    },
    {
      "midi": 43,
      "hit": false,
      "t": 6750,
      "d": 103.125,
      "v": 107
    },
    {
      "midi": 43,
      "hit": false,
      "t": 6937.5,
      "d": 96.875,
      "v": 105
    },
    {
      "midi": 43,
      "hit": false,
      "t": 6950,
      "d": 200,
      "v": 59
    },
    {
      "midi": 31,
      "hit": false,
      "t": 7031.25,
      "d": 78.125,
      "v": 72
    },
    {
      "midi": 43,
      "hit": false,
      "t": 7125,
      "d": 87.5,
      "v": 127
    },
    {
      "midi": 79,
      "hit": false,
      "t": 7125,
      "d": 143.75,
      "v": 74
    },
    {
      "midi": 82,
      "hit": false,
      "t": 7125,
      "d": 159.375,
      "v": 65
    },
    {
      "midi": 74,
      "hit": false,
      "t": 7125,
      "d": 159.375,
      "v": 74
    },
    {
      "midi": 70,
      "hit": false,
      "t": 7125,
      "d": 168.75,
      "v": 51
    },
    {
      "midi": 31,
      "hit": false,
      "t": 7218.75,
      "d": 75,
      "v": 76
    },
    {
      "midi": 43,
      "hit": false,
      "t": 7312.5,
      "d": 81.25,
      "v": 110
    },
    {
      "midi": 43,
      "hit": false,
      "t": 7406.25,
      "d": 56.25,
      "v": 102
    },
    {
      "midi": 43,
      "hit": false,
      "t": 7500,
      "d": 96.875,
      "v": 102
    },
    {
      "midi": 82,
      "hit": false,
      "t": 7500,
      "d": 140.625,
      "v": 57
    },
    {
      "midi": 79,
      "hit": false,
      "t": 7500,
      "d": 150,
      "v": 53
    },
    {
      "midi": 74,
      "hit": false,
      "t": 7500,
      "d": 150,
      "v": 35
    },
    {
      "midi": 86,
      "hit": false,
      "t": 7500,
      "d": 165.625,
      "v": 55
    },
    {
      "midi": 43,
      "hit": false,
      "t": 7687.5,
      "d": 118.75,
      "v": 98
    },
    {
      "midi": 43,
      "hit": false,
      "t": 7875,
      "d": 106.25,
      "v": 119
    },
    {
      "midi": 43,
      "hit": false,
      "t": 8062.5,
      "d": 118.75,
      "v": 105
    },
    {
      "midi": 82,
      "hit": false,
      "t": 8062.5,
      "d": 746.875,
      "v": 62
    },
    {
      "midi": 79,
      "hit": false,
      "t": 8062.5,
      "d": 746.875,
      "v": 62
    },
    {
      "midi": 86,
      "hit": false,
      "t": 8062.5,
      "d": 750,
      "v": 60
    },
    {
      "midi": 74,
      "hit": false,
      "t": 8062.5,
      "d": 756.25,
      "v": 60
    },
    {
      "midi": 31,
      "hit": false,
      "t": 8156.25,
      "d": 50,
      "v": 93
    },
    {
      "midi": 43,
      "hit": false,
      "t": 8250,
      "d": 96.875,
      "v": 85
    },
    {
      "midi": 43,
      "hit": false,
      "t": 8437.5,
      "d": 65.625,
      "v": 107
    },
    {
      "midi": 43,
      "hit": false,
      "t": 8625,
      "d": 156.25,
      "v": 113
    },
    {
      "midi": 35,
      "hit": false,
      "t": 8812.5,
      "d": 59.375,
      "v": 98
    },
    {
      "midi": 36,
      "hit": false,
      "t": 9000,
      "d": 78.125,
      "v": 107
    },
    {
      "midi": 36,
      "hit": false,
      "t": 9187.5,
      "d": 106.25,
      "v": 107
    },
    {
      "midi": 67,
      "hit": false,
      "t": 9187.5,
      "d": 1168.75,
      "v": 59
    },
    {
      "midi": 36,
      "hit": false,
      "t": 9375,
      "d": 96.875,
      "v": 119
    },
    {
      "midi": 72,
      "hit": false,
      "t": 9375,
      "d": 981.25,
      "v": 64
    },
    {
      "midi": 76,
      "hit": false,
      "t": 9468.75,
      "d": 887.5,
      "v": 29
    },
    {
      "midi": 36,
      "hit": false,
      "t": 9562.5,
      "d": 121.875,
      "v": 107
    },
    {
      "midi": 79,
      "hit": false,
      "t": 9562.5,
      "d": 793.75,
      "v": 70
    },
    {
      "midi": 36,
      "hit": false,
      "t": 9750,
      "d": 78.125,
      "v": 107
    },
    {
      "midi": 36,
      "hit": false,
      "t": 9937.5,
      "d": 75,
      "v": 100
    },
    {
      "midi": 36,
      "hit": false,
      "t": 10125,
      "d": 187.5,
      "v": 105
    },
    {
      "midi": 35,
      "hit": false,
      "t": 10312.5,
      "d": 71.875,
      "v": 89
    },
    {
      "midi": 36,
      "hit": false,
      "t": 10500,
      "d": 78.125,
      "v": 107
    },
    {
      "midi": 76,
      "hit": false,
      "t": 10500,
      "d": 1387.5,
      "v": 60
    },
    {
      "midi": 67,
      "hit": false,
      "t": 10500,
      "d": 1387.5,
      "v": 47
    },
    {
      "midi": 72,
      "hit": false,
      "t": 10500,
      "d": 1393.75,
      "v": 58
    },
    {
      "midi": 79,
      "hit": false,
      "t": 10500,
      "d": 1403.125,
      "v": 57
    },
    {
      "midi": 36,
      "hit": false,
      "t": 10687.5,
      "d": 106.25,
      "v": 107
    },
    {
      "midi": 36,
      "hit": false,
      "t": 10875,
      "d": 96.875,
      "v": 119
    },
    {
      "midi": 36,
      "hit": false,
      "t": 11062.5,
      "d": 121.875,
      "v": 107
    },
    {
      "midi": 36,
      "hit": false,
      "t": 11250,
      "d": 78.125,
      "v": 107
    },
    {
      "midi": 36,
      "hit": false,
      "t": 11437.5,
      "d": 75,
      "v": 100
    },
    {
      "midi": 36,
      "hit": false,
      "t": 11625,
      "d": 187.5,
      "v": 105
    },
    {
      "midi": 42,
      "hit": false,
      "t": 11812.5,
      "d": 71.875,
      "v": 89
    },
    {
      "midi": 43,
      "hit": false,
      "t": 12000,
      "d": 87.5,
      "v": 116
    },
    {
      "midi": 82,
      "hit": false,
      "t": 12000,
      "d": 140.625,
      "v": 57
    },
    {
      "midi": 79,
      "hit": false,
      "t": 12000,
      "d": 150,
      "v": 53
    },
    {
      "midi": 74,
      "hit": false,
      "t": 12000,
      "d": 150,
      "v": 35
    },
    {
      "midi": 86,
      "hit": false,
      "t": 12000,
      "d": 165.625,
      "v": 55
    },
    {
      "midi": 43,
      "hit": false,
      "t": 12187.5,
      "d": 106.25,
      "v": 116
    },
    {
      "midi": 43,
      "hit": false,
      "t": 12375,
      "d": 100,
      "v": 107
    },
    {
      "midi": 43,
      "hit": false,
      "t": 12562.5,
      "d": 112.5,
      "v": 116
    },
    {
      "midi": 82,
      "hit": false,
      "t": 12562.5,
      "d": 746.875,
      "v": 62
    },
    {
      "midi": 79,
      "hit": false,
      "t": 12562.5,
      "d": 746.875,
      "v": 62
    },
    {
      "midi": 86,
      "hit": false,
      "t": 12562.5,
      "d": 750,
      "v": 60
    },
    {
      "midi": 74,
      "hit": false,
      "t": 12562.5,
      "d": 756.25,
      "v": 60
    },
    {
      "midi": 43,
      "hit": false,
      "t": 12750,
      "d": 103.125,
      "v": 107
    },
    {
      "midi": 43,
      "hit": false,
      "t": 12937.5,
      "d": 96.875,
      "v": 105
    },
    {
      "midi": 31,
      "hit": false,
      "t": 13031.25,
      "d": 78.125,
      "v": 72
    },
    {
      "midi": 43,
      "hit": false,
      "t": 13125,
      "d": 87.5,
      "v": 127
    },
    {
      "midi": 31,
      "hit": false,
      "t": 13218.75,
      "d": 75,
      "v": 76
    },
    {
      "midi": 43,
      "hit": false,
      "t": 13312.5,
      "d": 81.25,
      "v": 110
    },
    {
      "midi": 43,
      "hit": false,
      "t": 13406.25,
      "d": 56.25,
      "v": 102
    },
    {
      "midi": 43,
      "hit": false,
      "t": 13500,
      "d": 78.125,
      "v": 107
    },
    {
      "midi": 79,
      "hit": false,
      "t": 13500,
      "d": 1387.5,
      "v": 60
    },
    {
      "midi": 70,
      "hit": false,
      "t": 13500,
      "d": 1387.5,
      "v": 47
    },
    {
      "midi": 74,
      "hit": false,
      "t": 13500,
      "d": 1393.75,
      "v": 58
    },
    {
      "midi": 82,
      "hit": false,
      "t": 13500,
      "d": 1403.125,
      "v": 57
    },
    {
      "midi": 43,
      "hit": false,
      "t": 13687.5,
      "d": 106.25,
      "v": 107
    },
    {
      "midi": 43,
      "hit": false,
      "t": 13875,
      "d": 96.875,
      "v": 119
    },
    {
      "midi": 43,
      "hit": false,
      "t": 14062.5,
      "d": 121.875,
      "v": 107
    },
    {
      "midi": 43,
      "hit": false,
      "t": 14250,
      "d": 78.125,
      "v": 107
    },
    {
      "midi": 43,
      "hit": false,
      "t": 14437.5,
      "d": 75,
      "v": 100
    },
    {
      "midi": 43,
      "hit": false,
      "t": 14625,
      "d": 187.5,
      "v": 105
    },
    {
      "midi": 35,
      "hit": false,
      "t": 14812.5,
      "d": 71.875,
      "v": 89
    },
    {
      "midi": 36,
      "hit": false,
      "t": 15000,
      "d": 96.875,
      "v": 102
    },
    {
      "midi": 79,
      "hit": false,
      "t": 15000,
      "d": 878.125,
      "v": 43
    },
    {
      "midi": 76,
      "hit": false,
      "t": 15000,
      "d": 940.625,
      "v": 41
    },
    {
      "midi": 72,
      "hit": false,
      "t": 15000,
      "d": 1053.125,
      "v": 45
    },
    {
      "midi": 67,
      "hit": false,
      "t": 15000,
      "d": 1493.75,
      "v": 43
    },
    {
      "midi": 36,
      "hit": false,
      "t": 15187.5,
      "d": 118.75,
      "v": 98
    },
    {
      "midi": 36,
      "hit": false,
      "t": 15375,
      "d": 106.25,
      "v": 119
    },
    {
      "midi": 36,
      "hit": false,
      "t": 15562.5,
      "d": 118.75,
      "v": 105
    },
    {
      "midi": 24,
      "hit": false,
      "t": 15656.25,
      "d": 50,
      "v": 93
    },
    {
      "midi": 36,
      "hit": false,
      "t": 15750,
      "d": 96.875,
      "v": 85
    },
    {
      "midi": 36,
      "hit": false,
      "t": 15937.5,
      "d": 65.625,
      "v": 107
    },
    {
      "midi": 79,
      "hit": false,
      "t": 15940.625,
      "d": 184.375,
      "v": 66
    },
    {
      "midi": 76,
      "hit": false,
      "t": 16053.125,
      "d": 146.875,
      "v": 64
    },
    {
      "midi": 36,
      "hit": false,
      "t": 16125,
      "d": 156.25,
      "v": 113
    },
    {
      "midi": 72,
      "hit": false,
      "t": 16125,
      "d": 159.375,
      "v": 57
    },
    {
      "midi": 79,
      "hit": false,
      "t": 16218.75,
      "d": 187.5,
      "v": 72
    },
    {
      "midi": 35,
      "hit": false,
      "t": 16312.5,
      "d": 59.375,
      "v": 98
    },
    {
      "midi": 76,
      "hit": false,
      "t": 16312.5,
      "d": 121.875,
      "v": 59
    },
    {
      "midi": 72,
      "hit": false,
      "t": 16406.25,
      "d": 75,
      "v": 64
    },
    {
      "midi": 36,
      "hit": false,
      "t": 16500,
      "d": 118.75,
      "v": 105
    },
    {
      "midi": 79,
      "hit": false,
      "t": 16500,
      "d": 675,
      "v": 48
    },
    {
      "midi": 76,
      "hit": false,
      "t": 16500,
      "d": 675,
      "v": 55
    },
    {
      "midi": 67,
      "hit": false,
      "t": 16500,
      "d": 693.75,
      "v": 61
    },
    {
      "midi": 36,
      "hit": false,
      "t": 16687.5,
      "d": 150,
      "v": 107
    },
    {
      "midi": 36,
      "hit": false,
      "t": 16875,
      "d": 118.75,
      "v": 102
    },
    {
      "midi": 36,
      "hit": false,
      "t": 17062.5,
      "d": 53.125,
      "v": 116
    },
    {
      "midi": 24,
      "hit": false,
      "t": 17156.25,
      "d": 46.875,
      "v": 80
    },
    {
      "midi": 38,
      "hit": false,
      "t": 17250,
      "d": 65.625,
      "v": 105
    },
    {
      "midi": 38,
      "hit": false,
      "t": 17437.5,
      "d": 153.125,
      "v": 116
    },
    {
      "midi": 74,
      "hit": false,
      "t": 17437.5,
      "d": 156.25,
      "v": 8
    },
    {
      "midi": 78,
      "hit": false,
      "t": 17437.5,
      "d": 159.375,
      "v": 29
    },
    {
      "midi": 38,
      "hit": false,
      "t": 17625,
      "d": 96.875,
      "v": 110
    },
    {
      "midi": 42,
      "hit": false,
      "t": 17812.5,
      "d": 78.125,
      "v": 110
    },
    {
      "midi": 43,
      "hit": false,
      "t": 18000,
      "d": 78.125,
      "v": 107
    },
    {
      "midi": 82,
      "hit": false,
      "t": 18000,
      "d": 878.125,
      "v": 43
    },
    {
      "midi": 79,
      "hit": false,
      "t": 18000,
      "d": 940.625,
      "v": 41
    },
    {
      "midi": 74,
      "hit": false,
      "t": 18000,
      "d": 1053.125,
      "v": 45
    },
    {
      "midi": 70,
      "hit": false,
      "t": 18000,
      "d": 1493.75,
      "v": 43
    },
    {
      "midi": 43,
      "hit": false,
      "t": 18187.5,
      "d": 106.25,
      "v": 107
    },
    {
      "midi": 43,
      "hit": false,
      "t": 18375,
      "d": 96.875,
      "v": 119
    },
    {
      "midi": 43,
      "hit": false,
      "t": 18562.5,
      "d": 121.875,
      "v": 107
    },
    {
      "midi": 43,
      "hit": false,
      "t": 18750,
      "d": 78.125,
      "v": 107
    },
    {
      "midi": 43,
      "hit": false,
      "t": 18937.5,
      "d": 75,
      "v": 100
    },
    {
      "midi": 82,
      "hit": false,
      "t": 18940.625,
      "d": 184.375,
      "v": 66
    },
    {
      "midi": 79,
      "hit": false,
      "t": 19053.125,
      "d": 146.875,
      "v": 64
    },
    {
      "midi": 43,
      "hit": false,
      "t": 19125,
      "d": 187.5,
      "v": 105
    },
    {
      "midi": 74,
      "hit": false,
      "t": 19125,
      "d": 159.375,
      "v": 57
    },
    {
      "midi": 82,
      "hit": false,
      "t": 19218.75,
      "d": 187.5,
      "v": 72
    },
    {
      "midi": 40,
      "hit": false,
      "t": 19312.5,
      "d": 71.875,
      "v": 89
    },
    {
      "midi": 79,
      "hit": false,
      "t": 19312.5,
      "d": 121.875,
      "v": 59
    },
    {
      "midi": 74,
      "hit": false,
      "t": 19406.25,
      "d": 75,
      "v": 64
    },
    {
      "midi": 33,
      "hit": false,
      "t": 19500,
      "d": 137.5,
      "v": 105
    },
    {
      "midi": 33,
      "hit": false,
      "t": 19687.5,
      "d": 103.125,
      "v": 89
    },
    {
      "midi": 69,
      "hit": false,
      "t": 19687.5,
      "d": 1168.75,
      "v": 59
    },
    {
      "midi": 33,
      "hit": false,
      "t": 19875,
      "d": 125,
      "v": 105
    },
    {
      "midi": 72,
      "hit": false,
      "t": 19875,
      "d": 981.25,
      "v": 64
    },
    {
      "midi": 77,
      "hit": false,
      "t": 19968.75,
      "d": 887.5,
      "v": 29
    },
    {
      "midi": 33,
      "hit": false,
      "t": 20062.5,
      "d": 137.5,
      "v": 98
    },
    {
      "midi": 81,
      "hit": false,
      "t": 20062.5,
      "d": 793.75,
      "v": 70
    },
    {
      "midi": 33,
      "hit": false,
      "t": 20250,
      "d": 112.5,
      "v": 102
    },
    {
      "midi": 33,
      "hit": false,
      "t": 20437.5,
      "d": 115.625,
      "v": 102
    },
    {
      "midi": 33,
      "hit": false,
      "t": 20625,
      "d": 134.375,
      "v": 110
    },
    {
      "midi": 33,
      "hit": false,
      "t": 20812.5,
      "d": 162.5,
      "v": 98
    },
    {
      "midi": 34,
      "hit": false,
      "t": 21000,
      "d": 87.5,
      "v": 116
    },
    {
      "midi": 77,
      "hit": false,
      "t": 21000,
      "d": 878.125,
      "v": 43
    },
    {
      "midi": 74,
      "hit": false,
      "t": 21000,
      "d": 940.625,
      "v": 41
    },
    {
      "midi": 70,
      "hit": false,
      "t": 21000,
      "d": 1053.125,
      "v": 45
    },
    {
      "midi": 65,
      "hit": false,
      "t": 21000,
      "d": 1493.75,
      "v": 43
    },
    {
      "midi": 34,
      "hit": false,
      "t": 21187.5,
      "d": 106.25,
      "v": 116
    },
    {
      "midi": 34,
      "hit": false,
      "t": 21375,
      "d": 100,
      "v": 107
    },
    {
      "midi": 34,
      "hit": false,
      "t": 21562.5,
      "d": 112.5,
      "v": 116
    },
    {
      "midi": 34,
      "hit": false,
      "t": 21750,
      "d": 103.125,
      "v": 107
    },
    {
      "midi": 34,
      "hit": false,
      "t": 21937.5,
      "d": 96.875,
      "v": 105
    },
    {
      "midi": 77,
      "hit": false,
      "t": 21940.625,
      "d": 184.375,
      "v": 66
    },
    {
      "midi": 22,
      "hit": false,
      "t": 22031.25,
      "d": 78.125,
      "v": 72
    },
    {
      "midi": 74,
      "hit": false,
      "t": 22053.125,
      "d": 146.875,
      "v": 64
    },
    {
      "midi": 34,
      "hit": false,
      "t": 22125,
      "d": 87.5,
      "v": 127
    },
    {
      "midi": 70,
      "hit": false,
      "t": 22125,
      "d": 159.375,
      "v": 57
    },
    {
      "midi": 22,
      "hit": false,
      "t": 22218.75,
      "d": 75,
      "v": 76
    },
    {
      "midi": 77,
      "hit": false,
      "t": 22218.75,
      "d": 187.5,
      "v": 72
    },
    {
      "midi": 34,
      "hit": false,
      "t": 22312.5,
      "d": 81.25,
      "v": 110
    },
    {
      "midi": 74,
      "hit": false,
      "t": 22312.5,
      "d": 121.875,
      "v": 59
    },
    {
      "midi": 34,
      "hit": false,
      "t": 22406.25,
      "d": 56.25,
      "v": 102
    },
    {
      "midi": 70,
      "hit": false,
      "t": 22406.25,
      "d": 75,
      "v": 64
    },
    {
      "midi": 36,
      "hit": false,
      "t": 22500,
      "d": 137.5,
      "v": 105
    },
    {
      "midi": 76,
      "hit": false,
      "t": 22500,
      "d": 884.375,
      "v": 47
    },
    {
      "midi": 79,
      "hit": false,
      "t": 22500,
      "d": 893.75,
      "v": 39
    },
    {
      "midi": 72,
      "hit": false,
      "t": 22500,
      "d": 915.625,
      "v": 46
    },
    {
      "midi": 67,
      "hit": false,
      "t": 22500,
      "d": 950,
      "v": 42
    },
    {
      "midi": 36,
      "hit": false,
      "t": 22687.5,
      "d": 103.125,
      "v": 89
    },
    {
      "midi": 36,
      "hit": false,
      "t": 22875,
      "d": 125,
      "v": 105
    },
    {
      "midi": 36,
      "hit": false,
      "t": 23062.5,
      "d": 137.5,
      "v": 98
    },
    {
      "midi": 36,
      "hit": false,
      "t": 23250,
      "d": 112.5,
      "v": 102
    },
    {
      "midi": 36,
      "hit": false,
      "t": 23437.5,
      "d": 115.625,
      "v": 102
    },
    {
      "midi": 48,
      "hit": false,
      "t": 23450,
      "d": 200,
      "v": 59
    },
    {
      "midi": 36,
      "hit": false,
      "t": 23625,
      "d": 134.375,
      "v": 110
    },
    {
      "midi": 76,
      "hit": false,
      "t": 23625,
      "d": 143.75,
      "v": 74
    },
    {
      "midi": 79,
      "hit": false,
      "t": 23625,
      "d": 159.375,
      "v": 65
    },
    {
      "midi": 72,
      "hit": false,
      "t": 23625,
      "d": 159.375,
      "v": 74
    },
    {
      "midi": 67,
      "hit": false,
      "t": 23625,
      "d": 168.75,
      "v": 51
    },
    {
      "midi": 36,
      "hit": false,
      "t": 23812.5,
      "d": 162.5,
      "v": 98
    },
    {
      "midi": 43,
      "hit": false,
      "t": 24000,
      "d": 87.5,
      "v": 105
    },
    {
      "midi": 43,
      "hit": false,
      "t": 24187.5,
      "d": 68.75,
      "v": 100
    },
    {
      "midi": 70,
      "hit": false,
      "t": 24187.5,
      "d": 1168.75,
      "v": 59
    },
    {
      "midi": 43,
      "hit": false,
      "t": 24375,
      "d": 71.875,
      "v": 110
    },
    {
      "midi": 74,
      "hit": false,
      "t": 24375,
      "d": 981.25,
      "v": 64
    },
    {
      "midi": 79,
      "hit": false,
      "t": 24468.75,
      "d": 887.5,
      "v": 29
    },
    {
      "midi": 43,
      "hit": false,
      "t": 24562.5,
      "d": 159.375,
      "v": 116
    },
    {
      "midi": 82,
      "hit": false,
      "t": 24562.5,
      "d": 793.75,
      "v": 70
    },
    {
      "midi": 43,
      "hit": false,
      "t": 24750,
      "d": 84.375,
      "v": 95
    },
    {
      "midi": 43,
      "hit": false,
      "t": 24937.5,
      "d": 71.875,
      "v": 95
    },
    {
      "midi": 43,
      "hit": false,
      "t": 25125,
      "d": 103.125,
      "v": 122
    },
    {
      "midi": 43,
      "hit": false,
      "t": 25312.5,
      "d": 43.75,
      "v": 110
    },
    {
      "midi": 31,
      "hit": false,
      "t": 25406.25,
      "d": 53.125,
      "v": 85
    },
    {
      "midi": 33,
      "hit": false,
      "t": 25500,
      "d": 87.5,
      "v": 116
    },
    {
      "midi": 77,
      "hit": false,
      "t": 25500,
      "d": 1387.5,
      "v": 60
    },
    {
      "midi": 69,
      "hit": false,
      "t": 25500,
      "d": 1387.5,
      "v": 47
    },
    {
      "midi": 72,
      "hit": false,
      "t": 25500,
      "d": 1393.75,
      "v": 58
    },
    {
      "midi": 81,
      "hit": false,
      "t": 25500,
      "d": 1403.125,
      "v": 57
    },
    {
      "midi": 33,
      "hit": false,
      "t": 25687.5,
      "d": 106.25,
      "v": 116
    },
    {
      "midi": 33,
      "hit": false,
      "t": 25875,
      "d": 100,
      "v": 107
    },
    {
      "midi": 33,
      "hit": false,
      "t": 26062.5,
      "d": 112.5,
      "v": 116
    },
    {
      "midi": 33,
      "hit": false,
      "t": 26250,
      "d": 103.125,
      "v": 107
    },
    {
      "midi": 33,
      "hit": false,
      "t": 26437.5,
      "d": 96.875,
      "v": 105
    },
    {
      "midi": 21,
      "hit": false,
      "t": 26531.25,
      "d": 78.125,
      "v": 72
    },
    {
      "midi": 33,
      "hit": false,
      "t": 26625,
      "d": 87.5,
      "v": 127
    },
    {
      "midi": 21,
      "hit": false,
      "t": 26718.75,
      "d": 75,
      "v": 76
    },
    {
      "midi": 33,
      "hit": false,
      "t": 26812.5,
      "d": 81.25,
      "v": 110
    },
    {
      "midi": 33,
      "hit": false,
      "t": 26906.25,
      "d": 56.25,
      "v": 102
    },
    {
      "midi": 34,
      "hit": false,
      "t": 27000,
      "d": 87.5,
      "v": 116
    },
    {
      "midi": 77,
      "hit": false,
      "t": 27000,
      "d": 878.125,
      "v": 43
    },
    {
      "midi": 75,
      "hit": false,
      "t": 27000,
      "d": 940.625,
      "v": 41
    },
    {
      "midi": 70,
      "hit": false,
      "t": 27000,
      "d": 1053.125,
      "v": 45
    },
    {
      "midi": 65,
      "hit": false,
      "t": 27000,
      "d": 1493.75,
      "v": 43
    },
    {
      "midi": 34,
      "hit": false,
      "t": 27187.5,
      "d": 106.25,
      "v": 116
    },
    {
      "midi": 34,
      "hit": false,
      "t": 27375,
      "d": 100,
      "v": 107
    },
    {
      "midi": 34,
      "hit": false,
      "t": 27562.5,
      "d": 112.5,
      "v": 116
    },
    {
      "midi": 34,
      "hit": false,
      "t": 27750,
      "d": 103.125,
      "v": 107
    },
    {
      "midi": 34,
      "hit": false,
      "t": 27937.5,
      "d": 96.875,
      "v": 105
    },
    {
      "midi": 77,
      "hit": false,
      "t": 27940.625,
      "d": 184.375,
      "v": 66
    },
    {
      "midi": 22,
      "hit": false,
      "t": 28031.25,
      "d": 78.125,
      "v": 72
    },
    {
      "midi": 75,
      "hit": false,
      "t": 28053.125,
      "d": 146.875,
      "v": 64
    },
    {
      "midi": 34,
      "hit": false,
      "t": 28125,
      "d": 87.5,
      "v": 127
    },
    {
      "midi": 70,
      "hit": false,
      "t": 28125,
      "d": 159.375,
      "v": 57
    },
    {
      "midi": 22,
      "hit": false,
      "t": 28218.75,
      "d": 75,
      "v": 76
    },
    {
      "midi": 77,
      "hit": false,
      "t": 28218.75,
      "d": 187.5,
      "v": 72
    },
    {
      "midi": 34,
      "hit": false,
      "t": 28312.5,
      "d": 81.25,
      "v": 110
    },
    {
      "midi": 75,
      "hit": false,
      "t": 28312.5,
      "d": 121.875,
      "v": 59
    },
    {
      "midi": 34,
      "hit": false,
      "t": 28406.25,
      "d": 56.25,
      "v": 102
    },
    {
      "midi": 70,
      "hit": false,
      "t": 28406.25,
      "d": 75,
      "v": 64
    },
    {
      "midi": 34,
      "hit": false,
      "t": 28500,
      "d": 96.875,
      "v": 102
    },
    {
      "midi": 34,
      "hit": false,
      "t": 28687.5,
      "d": 118.75,
      "v": 98
    },
    {
      "midi": 65,
      "hit": false,
      "t": 28687.5,
      "d": 1168.75,
      "v": 59
    },
    {
      "midi": 34,
      "hit": false,
      "t": 28875,
      "d": 106.25,
      "v": 119
    },
    {
      "midi": 70,
      "hit": false,
      "t": 28875,
      "d": 981.25,
      "v": 64
    },
    {
      "midi": 75,
      "hit": false,
      "t": 28968.75,
      "d": 887.5,
      "v": 29
    },
    {
      "midi": 34,
      "hit": false,
      "t": 29062.5,
      "d": 118.75,
      "v": 105
    },
    {
      "midi": 77,
      "hit": false,
      "t": 29062.5,
      "d": 793.75,
      "v": 70
    },
    {
      "midi": 22,
      "hit": false,
      "t": 29156.25,
      "d": 50,
      "v": 93
    },
    {
      "midi": 34,
      "hit": false,
      "t": 29250,
      "d": 96.875,
      "v": 85
    },
    {
      "midi": 34,
      "hit": false,
      "t": 29437.5,
      "d": 65.625,
      "v": 107
    },
    {
      "midi": 34,
      "hit": false,
      "t": 29625,
      "d": 156.25,
      "v": 113
    },
    {
      "midi": 42,
      "hit": false,
      "t": 29812.5,
      "d": 59.375,
      "v": 98
    },
    {
      "midi": 43,
      "hit": false,
      "t": 30000,
      "d": 78.125,
      "v": 107
    },
    {
      "midi": 82,
      "hit": false,
      "t": 30000,
      "d": 878.125,
      "v": 43
    },
    {
      "midi": 79,
      "hit": false,
      "t": 30000,
      "d": 940.625,
      "v": 41
    },
    {
      "midi": 74,
      "hit": false,
      "t": 30000,
      "d": 1053.125,
      "v": 45
    },
    {
      "midi": 70,
      "hit": false,
      "t": 30000,
      "d": 1493.75,
      "v": 43
    },
    {
      "midi": 43,
      "hit": false,
      "t": 30187.5,
      "d": 106.25,
      "v": 107
    },
    {
      "midi": 43,
      "hit": false,
      "t": 30375,
      "d": 96.875,
      "v": 119
    },
    {
      "midi": 43,
      "hit": false,
      "t": 30562.5,
      "d": 121.875,
      "v": 107
    },
    {
      "midi": 43,
      "hit": false,
      "t": 30750,
      "d": 78.125,
      "v": 107
    },
    {
      "midi": 43,
      "hit": false,
      "t": 30937.5,
      "d": 75,
      "v": 100
    },
    {
      "midi": 82,
      "hit": false,
      "t": 30940.625,
      "d": 184.375,
      "v": 66
    },
    {
      "midi": 79,
      "hit": false,
      "t": 31053.125,
      "d": 146.875,
      "v": 64
    },
    {
      "midi": 43,
      "hit": false,
      "t": 31125,
      "d": 187.5,
      "v": 105
    },
    {
      "midi": 74,
      "hit": false,
      "t": 31125,
      "d": 159.375,
      "v": 57
    },
    {
      "midi": 82,
      "hit": false,
      "t": 31218.75,
      "d": 187.5,
      "v": 72
    },
    {
      "midi": 40,
      "hit": false,
      "t": 31312.5,
      "d": 71.875,
      "v": 89
    },
    {
      "midi": 79,
      "hit": false,
      "t": 31312.5,
      "d": 121.875,
      "v": 59
    },
    {
      "midi": 74,
      "hit": false,
      "t": 31406.25,
      "d": 75,
      "v": 64
    },
    {
      "midi": 33,
      "hit": false,
      "t": 31500,
      "d": 137.5,
      "v": 105
    },
    {
      "midi": 77,
      "hit": false,
      "t": 31500,
      "d": 1387.5,
      "v": 60
    },
    {
      "midi": 69,
      "hit": false,
      "t": 31500,
      "d": 1387.5,
      "v": 47
    },
    {
      "midi": 72,
      "hit": false,
      "t": 31500,
      "d": 1393.75,
      "v": 58
    },
    {
      "midi": 81,
      "hit": false,
      "t": 31500,
      "d": 1403.125,
      "v": 57
    },
    {
      "midi": 33,
      "hit": false,
      "t": 31687.5,
      "d": 103.125,
      "v": 89
    },
    {
      "midi": 33,
      "hit": false,
      "t": 31875,
      "d": 125,
      "v": 105
    },
    {
      "midi": 33,
      "hit": false,
      "t": 32062.5,
      "d": 137.5,
      "v": 98
    },
    {
      "midi": 33,
      "hit": false,
      "t": 32250,
      "d": 112.5,
      "v": 102
    },
    {
      "midi": 33,
      "hit": false,
      "t": 32437.5,
      "d": 115.625,
      "v": 102
    },
    {
      "midi": 33,
      "hit": false,
      "t": 32625,
      "d": 134.375,
      "v": 110
    },
    {
      "midi": 33,
      "hit": false,
      "t": 32812.5,
      "d": 162.5,
      "v": 98
    },
    {
      "midi": 34,
      "hit": false,
      "t": 33000,
      "d": 109.375,
      "v": 102
    },
    {
      "midi": 77,
      "hit": false,
      "t": 33000,
      "d": 878.125,
      "v": 43
    },
    {
      "midi": 74,
      "hit": false,
      "t": 33000,
      "d": 940.625,
      "v": 41
    },
    {
      "midi": 70,
      "hit": false,
      "t": 33000,
      "d": 1053.125,
      "v": 45
    },
    {
      "midi": 65,
      "hit": false,
      "t": 33000,
      "d": 1493.75,
      "v": 43
    },
    {
      "midi": 34,
      "hit": false,
      "t": 33187.5,
      "d": 134.375,
      "v": 119
    },
    {
      "midi": 34,
      "hit": false,
      "t": 33375,
      "d": 112.5,
      "v": 113
    },
    {
      "midi": 34,
      "hit": false,
      "t": 33562.5,
      "d": 150,
      "v": 113
    },
    {
      "midi": 34,
      "hit": false,
      "t": 33750,
      "d": 106.25,
      "v": 91
    },
    {
      "midi": 34,
      "hit": false,
      "t": 33937.5,
      "d": 137.5,
      "v": 105
    },
    {
      "midi": 77,
      "hit": false,
      "t": 33940.625,
      "d": 184.375,
      "v": 66
    },
    {
      "midi": 74,
      "hit": false,
      "t": 34053.125,
      "d": 146.875,
      "v": 64
    },
    {
      "midi": 34,
      "hit": false,
      "t": 34125,
      "d": 106.25,
      "v": 105
    },
    {
      "midi": 70,
      "hit": false,
      "t": 34125,
      "d": 159.375,
      "v": 57
    },
    {
      "midi": 77,
      "hit": false,
      "t": 34218.75,
      "d": 187.5,
      "v": 72
    },
    {
      "midi": 34,
      "hit": false,
      "t": 34312.5,
      "d": 128.125,
      "v": 113
    },
    {
      "midi": 74,
      "hit": false,
      "t": 34312.5,
      "d": 121.875,
      "v": 59
    },
    {
      "midi": 70,
      "hit": false,
      "t": 34406.25,
      "d": 75,
      "v": 64
    },
    {
      "midi": 36,
      "hit": false,
      "t": 34500,
      "d": 78.125,
      "v": 107
    },
    {
      "midi": 76,
      "hit": false,
      "t": 34500,
      "d": 1387.5,
      "v": 60
    },
    {
      "midi": 67,
      "hit": false,
      "t": 34500,
      "d": 1387.5,
      "v": 47
    },
    {
      "midi": 72,
      "hit": false,
      "t": 34500,
      "d": 1393.75,
      "v": 58
    },
    {
      "midi": 79,
      "hit": false,
      "t": 34500,
      "d": 1403.125,
      "v": 57
    },
    {
      "midi": 36,
      "hit": false,
      "t": 34687.5,
      "d": 106.25,
      "v": 107
    },
    {
      "midi": 36,
      "hit": false,
      "t": 34875,
      "d": 96.875,
      "v": 119
    },
    {
      "midi": 36,
      "hit": false,
      "t": 35062.5,
      "d": 121.875,
      "v": 107
    },
    {
      "midi": 36,
      "hit": false,
      "t": 35250,
      "d": 78.125,
      "v": 107
    },
    {
      "midi": 36,
      "hit": false,
      "t": 35437.5,
      "d": 75,
      "v": 100
    },
    {
      "midi": 36,
      "hit": false,
      "t": 35625,
      "d": 187.5,
      "v": 105
    },
    {
      "midi": 42,
      "hit": false,
      "t": 35812.5,
      "d": 71.875,
      "v": 89
    },
    {
      "midi": 43,
      "hit": false,
      "t": 36000,
      "d": 87.5,
      "v": 116
    },
    {
      "midi": 43,
      "hit": false,
      "t": 36187.5,
      "d": 106.25,
      "v": 116
    },
    {
      "midi": 70,
      "hit": false,
      "t": 36187.5,
      "d": 1168.75,
      "v": 59
    },
    {
      "midi": 43,
      "hit": false,
      "t": 36375,
      "d": 100,
      "v": 107
    },
    {
      "midi": 74,
      "hit": false,
      "t": 36375,
      "d": 981.25,
      "v": 64
    },
    {
      "midi": 79,
      "hit": false,
      "t": 36468.75,
      "d": 887.5,
      "v": 29
    },
    {
      "midi": 43,
      "hit": false,
      "t": 36562.5,
      "d": 112.5,
      "v": 116
    },
    {
      "midi": 82,
      "hit": false,
      "t": 36562.5,
      "d": 793.75,
      "v": 70
    },
    {
      "midi": 43,
      "hit": false,
      "t": 36750,
      "d": 103.125,
      "v": 107
    },
    {
      "midi": 43,
      "hit": false,
      "t": 36937.5,
      "d": 96.875,
      "v": 105
    },
    {
      "midi": 31,
      "hit": false,
      "t": 37031.25,
      "d": 78.125,
      "v": 72
    },
    {
      "midi": 43,
      "hit": false,
      "t": 37125,
      "d": 87.5,
      "v": 127
    },
    {
      "midi": 31,
      "hit": false,
      "t": 37218.75,
      "d": 75,
      "v": 76
    },
    {
      "midi": 43,
      "hit": false,
      "t": 37312.5,
      "d": 81.25,
      "v": 110
    },
    {
      "midi": 43,
      "hit": false,
      "t": 37406.25,
      "d": 56.25,
      "v": 102
    },
    {
      "midi": 33,
      "hit": false,
      "t": 37500,
      "d": 78.125,
      "v": 107
    },
    {
      "midi": 77,
      "hit": false,
      "t": 37500,
      "d": 1387.5,
      "v": 60
    },
    {
      "midi": 69,
      "hit": false,
      "t": 37500,
      "d": 1387.5,
      "v": 47
    },
    {
      "midi": 72,
      "hit": false,
      "t": 37500,
      "d": 1393.75,
      "v": 58
    },
    {
      "midi": 81,
      "hit": false,
      "t": 37500,
      "d": 1403.125,
      "v": 57
    },
    {
      "midi": 33,
      "hit": false,
      "t": 37687.5,
      "d": 106.25,
      "v": 107
    },
    {
      "midi": 33,
      "hit": false,
      "t": 37875,
      "d": 96.875,
      "v": 119
    },
    {
      "midi": 33,
      "hit": false,
      "t": 38062.5,
      "d": 121.875,
      "v": 107
    },
    {
      "midi": 33,
      "hit": false,
      "t": 38250,
      "d": 78.125,
      "v": 107
    },
    {
      "midi": 33,
      "hit": false,
      "t": 38437.5,
      "d": 75,
      "v": 100
    },
    {
      "midi": 33,
      "hit": false,
      "t": 38625,
      "d": 187.5,
      "v": 105
    },
    {
      "midi": 38,
      "hit": false,
      "t": 38812.5,
      "d": 71.875,
      "v": 89
    },
    {
      "midi": 39,
      "hit": false,
      "t": 39000,
      "d": 137.5,
      "v": 105
    },
    {
      "midi": 79,
      "hit": false,
      "t": 39000,
      "d": 878.125,
      "v": 43
    },
    {
      "midi": 75,
      "hit": false,
      "t": 39000,
      "d": 940.625,
      "v": 41
    },
    {
      "midi": 70,
      "hit": false,
      "t": 39000,
      "d": 1053.125,
      "v": 45
    },
    {
      "midi": 67,
      "hit": false,
      "t": 39000,
      "d": 1493.75,
      "v": 43
    },
    {
      "midi": 39,
      "hit": false,
      "t": 39187.5,
      "d": 103.125,
      "v": 89
    },
    {
      "midi": 39,
      "hit": false,
      "t": 39375,
      "d": 125,
      "v": 105
    },
    {
      "midi": 39,
      "hit": false,
      "t": 39562.5,
      "d": 137.5,
      "v": 98
    },
    {
      "midi": 39,
      "hit": false,
      "t": 39750,
      "d": 112.5,
      "v": 102
    },
    {
      "midi": 39,
      "hit": false,
      "t": 39937.5,
      "d": 115.625,
      "v": 102
    },
    {
      "midi": 79,
      "hit": false,
      "t": 39940.625,
      "d": 184.375,
      "v": 66
    },
    {
      "midi": 75,
      "hit": false,
      "t": 40053.125,
      "d": 146.875,
      "v": 64
    },
    {
      "midi": 39,
      "hit": false,
      "t": 40125,
      "d": 134.375,
      "v": 110
    },
    {
      "midi": 70,
      "hit": false,
      "t": 40125,
      "d": 159.375,
      "v": 57
    },
    {
      "midi": 79,
      "hit": false,
      "t": 40218.75,
      "d": 187.5,
      "v": 72
    },
    {
      "midi": 39,
      "hit": false,
      "t": 40312.5,
      "d": 162.5,
      "v": 98
    },
    {
      "midi": 75,
      "hit": false,
      "t": 40312.5,
      "d": 121.875,
      "v": 59
    },
    {
      "midi": 70,
      "hit": false,
      "t": 40406.25,
      "d": 75,
      "v": 64
    },
    {
      "midi": 39,
      "hit": false,
      "t": 40500,
      "d": 78.125,
      "v": 107
    },
    {
      "midi": 39,
      "hit": false,
      "t": 40687.5,
      "d": 106.25,
      "v": 107
    },
    {
      "midi": 67,
      "hit": false,
      "t": 40687.5,
      "d": 1168.75,
      "v": 59
    },
    {
      "midi": 39,
      "hit": false,
      "t": 40875,
      "d": 96.875,
      "v": 119
    },
    {
      "midi": 70,
      "hit": false,
      "t": 40875,
      "d": 981.25,
      "v": 64
    },
    {
      "midi": 75,
      "hit": false,
      "t": 40968.75,
      "d": 887.5,
      "v": 29
    },
    {
      "midi": 39,
      "hit": false,
      "t": 41062.5,
      "d": 121.875,
      "v": 107
    },
    {
      "midi": 79,
      "hit": false,
      "t": 41062.5,
      "d": 793.75,
      "v": 70
    },
    {
      "midi": 39,
      "hit": false,
      "t": 41250,
      "d": 78.125,
      "v": 107
    },
    {
      "midi": 39,
      "hit": false,
      "t": 41437.5,
      "d": 75,
      "v": 100
    },
    {
      "midi": 39,
      "hit": false,
      "t": 41625,
      "d": 187.5,
      "v": 105
    },
    {
      "midi": 35,
      "hit": false,
      "t": 41812.5,
      "d": 71.875,
      "v": 89
    },
    {
      "midi": 36,
      "hit": false,
      "t": 42000,
      "d": 96.875,
      "v": 102
    },
    {
      "midi": 79,
      "hit": false,
      "t": 42000,
      "d": 878.125,
      "v": 43
    },
    {
      "midi": 75,
      "hit": false,
      "t": 42000,
      "d": 940.625,
      "v": 41
    },
    {
      "midi": 72,
      "hit": false,
      "t": 42000,
      "d": 1053.125,
      "v": 45
    },
    {
      "midi": 70,
      "hit": false,
      "t": 42000,
      "d": 1493.75,
      "v": 43
    },
    {
      "midi": 36,
      "hit": false,
      "t": 42187.5,
      "d": 118.75,
      "v": 98
    },
    {
      "midi": 36,
      "hit": false,
      "t": 42375,
      "d": 106.25,
      "v": 119
    },
    {
      "midi": 36,
      "hit": false,
      "t": 42562.5,
      "d": 118.75,
      "v": 105
    },
    {
      "midi": 24,
      "hit": false,
      "t": 42656.25,
      "d": 50,
      "v": 93
    },
    {
      "midi": 36,
      "hit": false,
      "t": 42750,
      "d": 96.875,
      "v": 85
    },
    {
      "midi": 36,
      "hit": false,
      "t": 42937.5,
      "d": 65.625,
      "v": 107
    },
    {
      "midi": 79,
      "hit": false,
      "t": 42940.625,
      "d": 184.375,
      "v": 66
    },
    {
      "midi": 75,
      "hit": false,
      "t": 43053.125,
      "d": 146.875,
      "v": 64
    },
    {
      "midi": 36,
      "hit": false,
      "t": 43125,
      "d": 156.25,
      "v": 113
    },
    {
      "midi": 72,
      "hit": false,
      "t": 43125,
      "d": 159.375,
      "v": 57
    },
    {
      "midi": 79,
      "hit": false,
      "t": 43218.75,
      "d": 187.5,
      "v": 72
    },
    {
      "midi": 40,
      "hit": false,
      "t": 43312.5,
      "d": 59.375,
      "v": 98
    },
    {
      "midi": 75,
      "hit": false,
      "t": 43312.5,
      "d": 121.875,
      "v": 59
    },
    {
      "midi": 72,
      "hit": false,
      "t": 43406.25,
      "d": 75,
      "v": 64
    },
    {
      "midi": 41,
      "hit": false,
      "t": 43500,
      "d": 96.875,
      "v": 102
    },
    {
      "midi": 81,
      "hit": false,
      "t": 43500,
      "d": 140.625,
      "v": 57
    },
    {
      "midi": 77,
      "hit": false,
      "t": 43500,
      "d": 150,
      "v": 53
    },
    {
      "midi": 72,
      "hit": false,
      "t": 43500,
      "d": 150,
      "v": 35
    },
    {
      "midi": 84,
      "hit": false,
      "t": 43500,
      "d": 165.625,
      "v": 55
    },
    {
      "midi": 41,
      "hit": false,
      "t": 43687.5,
      "d": 118.75,
      "v": 98
    },
    {
      "midi": 41,
      "hit": false,
      "t": 43875,
      "d": 106.25,
      "v": 119
    },
    {
      "midi": 41,
      "hit": false,
      "t": 44062.5,
      "d": 118.75,
      "v": 105
    },
    {
      "midi": 81,
      "hit": false,
      "t": 44062.5,
      "d": 746.875,
      "v": 62
    },
    {
      "midi": 77,
      "hit": false,
      "t": 44062.5,
      "d": 746.875,
      "v": 62
    },
    {
      "midi": 84,
      "hit": false,
      "t": 44062.5,
      "d": 750,
      "v": 60
    },
    {
      "midi": 72,
      "hit": false,
      "t": 44062.5,
      "d": 756.25,
      "v": 60
    },
    {
      "midi": 29,
      "hit": false,
      "t": 44156.25,
      "d": 50,
      "v": 93
    },
    {
      "midi": 41,
      "hit": false,
      "t": 44250,
      "d": 96.875,
      "v": 85
    },
    {
      "midi": 41,
      "hit": false,
      "t": 44437.5,
      "d": 65.625,
      "v": 107
    },
    {
      "midi": 41,
      "hit": false,
      "t": 44625,
      "d": 156.25,
      "v": 113
    },
    {
      "midi": 37,
      "hit": false,
      "t": 44812.5,
      "d": 59.375,
      "v": 98
    },
    {
      "midi": 38,
      "hit": false,
      "t": 45000,
      "d": 87.5,
      "v": 105
    },
    {
      "midi": 81,
      "hit": false,
      "t": 45000,
      "d": 140.625,
      "v": 57
    },
    {
      "midi": 77,
      "hit": false,
      "t": 45000,
      "d": 150,
      "v": 53
    },
    {
      "midi": 74,
      "hit": false,
      "t": 45000,
      "d": 150,
      "v": 35
    },
    {
      "midi": 86,
      "hit": false,
      "t": 45000,
      "d": 165.625,
      "v": 55
    },
    {
      "midi": 38,
      "hit": false,
      "t": 45187.5,
      "d": 68.75,
      "v": 100
    },
    {
      "midi": 38,
      "hit": false,
      "t": 45375,
      "d": 71.875,
      "v": 110
    },
    {
      "midi": 38,
      "hit": false,
      "t": 45562.5,
      "d": 159.375,
      "v": 116
    },
    {
      "midi": 81,
      "hit": false,
      "t": 45562.5,
      "d": 746.875,
      "v": 62
    },
    {
      "midi": 77,
      "hit": false,
      "t": 45562.5,
      "d": 746.875,
      "v": 62
    },
    {
      "midi": 86,
      "hit": false,
      "t": 45562.5,
      "d": 750,
      "v": 60
    },
    {
      "midi": 74,
      "hit": false,
      "t": 45562.5,
      "d": 756.25,
      "v": 60
    },
    {
      "midi": 38,
      "hit": false,
      "t": 45750,
      "d": 84.375,
      "v": 95
    },
    {
      "midi": 38,
      "hit": false,
      "t": 45937.5,
      "d": 71.875,
      "v": 95
    },
    {
      "midi": 38,
      "hit": false,
      "t": 46125,
      "d": 103.125,
      "v": 122
    },
    {
      "midi": 38,
      "hit": false,
      "t": 46312.5,
      "d": 43.75,
      "v": 110
    },
    {
      "midi": 26,
      "hit": false,
      "t": 46406.25,
      "d": 53.125,
      "v": 85
    },
    {
      "midi": 43,
      "hit": false,
      "t": 46500,
      "d": 87.5,
      "v": 105
    },
    {
      "midi": 79,
      "hit": false,
      "t": 46500,
      "d": 884.375,
      "v": 47
    },
    {
      "midi": 82,
      "hit": false,
      "t": 46500,
      "d": 893.75,
      "v": 39
    },
    {
      "midi": 74,
      "hit": false,
      "t": 46500,
      "d": 915.625,
      "v": 46
    },
    {
      "midi": 70,
      "hit": false,
      "t": 46500,
      "d": 950,
      "v": 42
    },
    {
      "midi": 43,
      "hit": false,
      "t": 46687.5,
      "d": 68.75,
      "v": 100
    },
    {
      "midi": 43,
      "hit": false,
      "t": 46875,
      "d": 71.875,
      "v": 110
    },
    {
      "midi": 43,
      "hit": false,
      "t": 47062.5,
      "d": 159.375,
      "v": 116
    },
    {
      "midi": 43,
      "hit": false,
      "t": 47250,
      "d": 84.375,
      "v": 95
    },
    {
      "midi": 43,
      "hit": false,
      "t": 47437.5,
      "d": 71.875,
      "v": 95
    },
    {
      "midi": 43,
      "hit": false,
      "t": 47450,
      "d": 200,
      "v": 59
    },
    {
      "midi": 43,
      "hit": false,
      "t": 47625,
      "d": 103.125,
      "v": 122
    },
    {
      "midi": 79,
      "hit": false,
      "t": 47625,
      "d": 143.75,
      "v": 74
    },
    {
      "midi": 82,
      "hit": false,
      "t": 47625,
      "d": 159.375,
      "v": 65
    },
    {
      "midi": 74,
      "hit": false,
      "t": 47625,
      "d": 159.375,
      "v": 74
    },
    {
      "midi": 70,
      "hit": false,
      "t": 47625,
      "d": 168.75,
      "v": 51
    },
    {
      "midi": 43,
      "hit": false,
      "t": 47812.5,
      "d": 43.75,
      "v": 110
    },
    {
      "midi": 31,
      "hit": false,
      "t": 47906.25,
      "d": 53.125,
      "v": 85
    },
    {
      "midi": 44,
      "hit": false,
      "t": 48000,
      "d": 78.125,
      "v": 107
    },
    {
      "midi": 84,
      "hit": false,
      "t": 48000,
      "d": 140.625,
      "v": 57
    },
    {
      "midi": 80,
      "hit": false,
      "t": 48000,
      "d": 150,
      "v": 53
    },
    {
      "midi": 75,
      "hit": false,
      "t": 48000,
      "d": 150,
      "v": 35
    },
    {
      "midi": 87,
      "hit": false,
      "t": 48000,
      "d": 165.625,
      "v": 55
    },
    {
      "midi": 44,
      "hit": false,
      "t": 48187.5,
      "d": 106.25,
      "v": 107
    },
    {
      "midi": 44,
      "hit": false,
      "t": 48375,
      "d": 96.875,
      "v": 119
    },
    {
      "midi": 44,
      "hit": false,
      "t": 48562.5,
      "d": 121.875,
      "v": 107
    },
    {
      "midi": 84,
      "hit": false,
      "t": 48562.5,
      "d": 746.875,
      "v": 62
    },
    {
      "midi": 80,
      "hit": false,
      "t": 48562.5,
      "d": 746.875,
      "v": 62
    },
    {
      "midi": 87,
      "hit": false,
      "t": 48562.5,
      "d": 750,
      "v": 60
    },
    {
      "midi": 75,
      "hit": false,
      "t": 48562.5,
      "d": 756.25,
      "v": 60
    },
    {
      "midi": 44,
      "hit": false,
      "t": 48750,
      "d": 78.125,
      "v": 107
    },
    {
      "midi": 44,
      "hit": false,
      "t": 48937.5,
      "d": 75,
      "v": 100
    },
    {
      "midi": 44,
      "hit": false,
      "t": 49125,
      "d": 187.5,
      "v": 105
    },
    {
      "midi": 43,
      "hit": false,
      "t": 49312.5,
      "d": 71.875,
      "v": 89
    },
    {
      "midi": 44,
      "hit": false,
      "t": 49500,
      "d": 96.875,
      "v": 102
    },
    {
      "midi": 80,
      "hit": false,
      "t": 49500,
      "d": 884.375,
      "v": 47
    },
    {
      "midi": 84,
      "hit": false,
      "t": 49500,
      "d": 893.75,
      "v": 39
    },
    {
      "midi": 75,
      "hit": false,
      "t": 49500,
      "d": 915.625,
      "v": 46
    },
    {
      "midi": 72,
      "hit": false,
      "t": 49500,
      "d": 950,
      "v": 42
    },
    {
      "midi": 44,
      "hit": false,
      "t": 49687.5,
      "d": 118.75,
      "v": 98
    },
    {
      "midi": 44,
      "hit": false,
      "t": 49875,
      "d": 106.25,
      "v": 119
    },
    {
      "midi": 44,
      "hit": false,
      "t": 50062.5,
      "d": 118.75,
      "v": 105
    },
    {
      "midi": 32,
      "hit": false,
      "t": 50156.25,
      "d": 50,
      "v": 93
    },
    {
      "midi": 44,
      "hit": false,
      "t": 50250,
      "d": 96.875,
      "v": 85
    },
    {
      "midi": 44,
      "hit": false,
      "t": 50437.5,
      "d": 65.625,
      "v": 107
    },
    {
      "midi": 44,
      "hit": false,
      "t": 50450,
      "d": 200,
      "v": 59
    },
    {
      "midi": 44,
      "hit": false,
      "t": 50625,
      "d": 156.25,
      "v": 113
    },
    {
      "midi": 80,
      "hit": false,
      "t": 50625,
      "d": 143.75,
      "v": 74
    },
    {
      "midi": 84,
      "hit": false,
      "t": 50625,
      "d": 159.375,
      "v": 65
    },
    {
      "midi": 75,
      "hit": false,
      "t": 50625,
      "d": 159.375,
      "v": 74
    },
    {
      "midi": 72,
      "hit": false,
      "t": 50625,
      "d": 168.75,
      "v": 51
    },
    {
      "midi": 37,
      "hit": false,
      "t": 50812.5,
      "d": 59.375,
      "v": 98
    },
    {
      "midi": 38,
      "hit": false,
      "t": 51000,
      "d": 96.875,
      "v": 102
    },
    {
      "midi": 81,
      "hit": false,
      "t": 51000,
      "d": 878.125,
      "v": 43
    },
    {
      "midi": 79,
      "hit": false,
      "t": 51000,
      "d": 940.625,
      "v": 41
    },
    {
      "midi": 74,
      "hit": false,
      "t": 51000,
      "d": 1053.125,
      "v": 45
    },
    {
      "midi": 69,
      "hit": false,
      "t": 51000,
      "d": 1493.75,
      "v": 43
    },
    {
      "midi": 38,
      "hit": false,
      "t": 51187.5,
      "d": 118.75,
      "v": 98
    },
    {
      "midi": 38,
      "hit": false,
      "t": 51375,
      "d": 106.25,
      "v": 119
    },
    {
      "midi": 38,
      "hit": false,
      "t": 51562.5,
      "d": 118.75,
      "v": 105
    },
    {
      "midi": 26,
      "hit": false,
      "t": 51656.25,
      "d": 50,
      "v": 93
    },
    {
      "midi": 38,
      "hit": false,
      "t": 51750,
      "d": 96.875,
      "v": 85
    },
    {
      "midi": 38,
      "hit": false,
      "t": 51937.5,
      "d": 65.625,
      "v": 107
    },
    {
      "midi": 81,
      "hit": false,
      "t": 51940.625,
      "d": 184.375,
      "v": 66
    },
    {
      "midi": 79,
      "hit": false,
      "t": 52053.125,
      "d": 146.875,
      "v": 64
    },
    {
      "midi": 38,
      "hit": false,
      "t": 52125,
      "d": 156.25,
      "v": 113
    },
    {
      "midi": 74,
      "hit": false,
      "t": 52125,
      "d": 159.375,
      "v": 57
    },
    {
      "midi": 81,
      "hit": false,
      "t": 52218.75,
      "d": 187.5,
      "v": 72
    },
    {
      "midi": 37,
      "hit": false,
      "t": 52312.5,
      "d": 59.375,
      "v": 98
    },
    {
      "midi": 79,
      "hit": false,
      "t": 52312.5,
      "d": 121.875,
      "v": 59
    },
    {
      "midi": 74,
      "hit": false,
      "t": 52406.25,
      "d": 75,
      "v": 64
    },
    {
      "midi": 38,
      "hit": false,
      "t": 52500,
      "d": 78.125,
      "v": 107
    },
    {
      "midi": 79,
      "hit": false,
      "t": 52500,
      "d": 1387.5,
      "v": 60
    },
    {
      "midi": 69,
      "hit": false,
      "t": 52500,
      "d": 1387.5,
      "v": 47
    },
    {
      "midi": 74,
      "hit": false,
      "t": 52500,
      "d": 1393.75,
      "v": 58
    },
    {
      "midi": 81,
      "hit": false,
      "t": 52500,
      "d": 1403.125,
      "v": 57
    },
    {
      "midi": 38,
      "hit": false,
      "t": 52687.5,
      "d": 106.25,
      "v": 107
    },
    {
      "midi": 38,
      "hit": false,
      "t": 52875,
      "d": 96.875,
      "v": 119
    },
    {
      "midi": 38,
      "hit": false,
      "t": 53062.5,
      "d": 121.875,
      "v": 107
    },
    {
      "midi": 38,
      "hit": false,
      "t": 53250,
      "d": 78.125,
      "v": 107
    },
    {
      "midi": 38,
      "hit": false,
      "t": 53437.5,
      "d": 75,
      "v": 100
    },
    {
      "midi": 38,
      "hit": false,
      "t": 53625,
      "d": 187.5,
      "v": 105
    },
    {
      "midi": 37,
      "hit": false,
      "t": 53812.5,
      "d": 71.875,
      "v": 89
    },
    {
      "midi": 38,
      "hit": false,
      "t": 54000,
      "d": 118.75,
      "v": 107
    },
    {
      "midi": 81,
      "hit": false,
      "t": 54000,
      "d": 675,
      "v": 48
    },
    {
      "midi": 79,
      "hit": false,
      "t": 54000,
      "d": 675,
      "v": 55
    },
    {
      "midi": 69,
      "hit": false,
      "t": 54000,
      "d": 693.75,
      "v": 61
    },
    {
      "midi": 26,
      "hit": false,
      "t": 54093.75,
      "d": 87.5,
      "v": 82
    },
    {
      "midi": 38,
      "hit": false,
      "t": 54187.5,
      "d": 100,
      "v": 89
    },
    {
      "midi": 38,
      "hit": false,
      "t": 54375,
      "d": 121.875,
      "v": 107
    },
    {
      "midi": 38,
      "hit": false,
      "t": 54562.5,
      "d": 134.375,
      "v": 113
    },
    {
      "midi": 38,
      "hit": false,
      "t": 54750,
      "d": 118.75,
      "v": 105
    },
    {
      "midi": 81,
      "hit": false,
      "t": 54750,
      "d": 750,
      "v": 60
    },
    {
      "midi": 69,
      "hit": false,
      "t": 54750,
      "d": 750,
      "v": 56
    },
    {
      "midi": 78,
      "hit": false,
      "t": 54750,
      "d": 750,
      "v": 60
    },
    {
      "midi": 74,
      "hit": false,
      "t": 54750,
      "d": 750,
      "v": 45
    },
    {
      "midi": 38,
      "hit": false,
      "t": 54937.5,
      "d": 150,
      "v": 107
    },
    {
      "midi": 38,
      "hit": false,
      "t": 55125,
      "d": 118.75,
      "v": 102
    },
    {
      "midi": 38,
      "hit": false,
      "t": 55312.5,
      "d": 53.125,
      "v": 116
    },
    {
      "midi": 26,
      "hit": false,
      "t": 55406.25,
      "d": 46.875,
      "v": 80
    },
    {
      "midi": 38,
      "hit": false,
      "t": 55500,
      "d": 109.375,
      "v": 102
    },
    {
      "midi": 78,
      "hit": false,
      "t": 55500,
      "d": 1387.5,
      "v": 60
    },
    {
      "midi": 69,
      "hit": false,
      "t": 55500,
      "d": 1387.5,
      "v": 47
    },
    {
      "midi": 74,
      "hit": false,
      "t": 55500,
      "d": 1393.75,
      "v": 58
    },
    {
      "midi": 81,
      "hit": false,
      "t": 55500,
      "d": 1403.125,
      "v": 57
    },
    {
      "midi": 38,
      "hit": false,
      "t": 55687.5,
      "d": 134.375,
      "v": 119
    },
    {
      "midi": 38,
      "hit": false,
      "t": 55875,
      "d": 112.5,
      "v": 113
    },
    {
      "midi": 38,
      "hit": false,
      "t": 56062.5,
      "d": 150,
      "v": 113
    },
    {
      "midi": 38,
      "hit": false,
      "t": 56250,
      "d": 106.25,
      "v": 91
    },
    {
      "midi": 38,
      "hit": false,
      "t": 56437.5,
      "d": 137.5,
      "v": 105
    },
    {
      "midi": 38,
      "hit": false,
      "t": 56625,
      "d": 106.25,
      "v": 105
    },
    {
      "midi": 38,
      "hit": false,
      "t": 56812.5,
      "d": 128.125,
      "v": 113
    },
    {
      "midi": 43,
      "hit": false,
      "t": 57000,
      "d": 118.75,
      "v": 107
    },
    {
      "midi": 82,
      "hit": false,
      "t": 57000,
      "d": 750,
      "v": 60
    },
    {
      "midi": 70,
      "hit": false,
      "t": 57000,
      "d": 750,
      "v": 56
    },
    {
      "midi": 79,
      "hit": false,
      "t": 57000,
      "d": 750,
      "v": 60
    },
    {
      "midi": 74,
      "hit": false,
      "t": 57000,
      "d": 750,
      "v": 45
    },
    {
      "midi": 31,
      "hit": false,
      "t": 57093.75,
      "d": 87.5,
      "v": 82
    },
    {
      "midi": 43,
      "hit": false,
      "t": 57187.5,
      "d": 100,
      "v": 89
    },
    {
      "midi": 43,
      "hit": false,
      "t": 57375,
      "d": 121.875,
      "v": 107
    },
    {
      "midi": 43,
      "hit": false,
      "t": 57562.5,
      "d": 134.375,
      "v": 113
    },
    {
      "midi": 33,
      "hit": false,
      "t": 57750,
      "d": 118.75,
      "v": 105
    },
    {
      "midi": 77,
      "hit": false,
      "t": 57750,
      "d": 750,
      "v": 61
    },
    {
      "midi": 69,
      "hit": false,
      "t": 57750,
      "d": 750,
      "v": 50
    },
    {
      "midi": 33,
      "hit": false,
      "t": 57937.5,
      "d": 150,
      "v": 107
    },
    {
      "midi": 33,
      "hit": false,
      "t": 58125,
      "d": 118.75,
      "v": 102
    },
    {
      "midi": 33,
      "hit": false,
      "t": 58312.5,
      "d": 53.125,
      "v": 116
    },
    {
      "midi": 21,
      "hit": false,
      "t": 58406.25,
      "d": 46.875,
      "v": 80
    },
    {
      "midi": 34,
      "hit": false,
      "t": 58500,
      "d": 78.125,
      "v": 107
    },
    {
      "midi": 77,
      "hit": false,
      "t": 58500,
      "d": 140.625,
      "v": 57
    },
    {
      "midi": 74,
      "hit": false,
      "t": 58500,
      "d": 150,
      "v": 53
    },
    {
      "midi": 70,
      "hit": false,
      "t": 58500,
      "d": 150,
      "v": 35
    },
    {
      "midi": 82,
      "hit": false,
      "t": 58500,
      "d": 165.625,
      "v": 55
    },
    {
      "midi": 34,
      "hit": false,
      "t": 58687.5,
      "d": 106.25,
      "v": 107
    },
    {
      "midi": 34,
      "hit": false,
      "t": 58875,
      "d": 96.875,
      "v": 119
    },
    {
      "midi": 34,
      "hit": false,
      "t": 59062.5,
      "d": 121.875,
      "v": 107
    },
    {
      "midi": 77,
      "hit": false,
      "t": 59062.5,
      "d": 746.875,
      "v": 62
    },
    {
      "midi": 74,
      "hit": false,
      "t": 59062.5,
      "d": 746.875,
      "v": 62
    },
    {
      "midi": 82,
      "hit": false,
      "t": 59062.5,
      "d": 750,
      "v": 60
    },
    {
      "midi": 70,
      "hit": false,
      "t": 59062.5,
      "d": 756.25,
      "v": 60
    },
    {
      "midi": 34,
      "hit": false,
      "t": 59250,
      "d": 78.125,
      "v": 107
    },
    {
      "midi": 34,
      "hit": false,
      "t": 59437.5,
      "d": 75,
      "v": 100
    },
    {
      "midi": 34,
      "hit": false,
      "t": 59625,
      "d": 187.5,
      "v": 105
    },
    {
      "midi": 35,
      "hit": false,
      "t": 59812.5,
      "d": 71.875,
      "v": 89
    },
    {
      "midi": 36,
      "hit": false,
      "t": 60000,
      "d": 118.75,
      "v": 105
    },
    {
      "midi": 36,
      "hit": false,
      "t": 60187.5,
      "d": 150,
      "v": 107
    },
    {
      "midi": 72,
      "hit": false,
      "t": 60187.5,
      "d": 156.25,
      "v": 8
    },
    {
      "midi": 76,
      "hit": false,
      "t": 60187.5,
      "d": 159.375,
      "v": 29
    },
    {
      "midi": 36,
      "hit": false,
      "t": 60375,
      "d": 118.75,
      "v": 102
    },
    {
      "midi": 36,
      "hit": false,
      "t": 60562.5,
      "d": 53.125,
      "v": 116
    },
    {
      "midi": 24,
      "hit": false,
      "t": 60656.25,
      "d": 46.875,
      "v": 80
    },
    {
      "midi": 38,
      "hit": false,
      "t": 60750,
      "d": 118.75,
      "v": 107
    },
    {
      "midi": 26,
      "hit": false,
      "t": 60843.75,
      "d": 87.5,
      "v": 82
    },
    {
      "midi": 38,
      "hit": false,
      "t": 60937.5,
      "d": 100,
      "v": 89
    },
    {
      "midi": 70,
      "hit": false,
      "t": 60937.5,
      "d": 156.25,
      "v": 8
    },
    {
      "midi": 74,
      "hit": false,
      "t": 60937.5,
      "d": 159.375,
      "v": 29
    },
    {
      "midi": 38,
      "hit": false,
      "t": 61125,
      "d": 121.875,
      "v": 107
    },
    {
      "midi": 38,
      "hit": false,
      "t": 61312.5,
      "d": 134.375,
      "v": 113
    },
    {
      "midi": 39,
      "hit": false,
      "t": 61500,
      "d": 87.5,
      "v": 105
    },
    {
      "midi": 79,
      "hit": false,
      "t": 61500,
      "d": 878.125,
      "v": 43
    },
    {
      "midi": 75,
      "hit": false,
      "t": 61500,
      "d": 940.625,
      "v": 41
    },
    {
      "midi": 70,
      "hit": false,
      "t": 61500,
      "d": 1053.125,
      "v": 45
    },
    {
      "midi": 67,
      "hit": false,
      "t": 61500,
      "d": 1493.75,
      "v": 43
    },
    {
      "midi": 39,
      "hit": false,
      "t": 61687.5,
      "d": 68.75,
      "v": 100
    },
    {
      "midi": 39,
      "hit": false,
      "t": 61875,
      "d": 71.875,
      "v": 110
    },
    {
      "midi": 39,
      "hit": false,
      "t": 62062.5,
      "d": 159.375,
      "v": 116
    },
    {
      "midi": 39,
      "hit": false,
      "t": 62250,
      "d": 84.375,
      "v": 95
    },
    {
      "midi": 39,
      "hit": false,
      "t": 62437.5,
      "d": 71.875,
      "v": 95
    },
    {
      "midi": 79,
      "hit": false,
      "t": 62440.625,
      "d": 184.375,
      "v": 66
    },
    {
      "midi": 75,
      "hit": false,
      "t": 62553.125,
      "d": 146.875,
      "v": 64
    },
    {
      "midi": 39,
      "hit": false,
      "t": 62625,
      "d": 103.125,
      "v": 122
    },
    {
      "midi": 70,
      "hit": false,
      "t": 62625,
      "d": 159.375,
      "v": 57
    },
    {
      "midi": 79,
      "hit": false,
      "t": 62718.75,
      "d": 187.5,
      "v": 72
    },
    {
      "midi": 39,
      "hit": false,
      "t": 62812.5,
      "d": 43.75,
      "v": 110
    },
    {
      "midi": 75,
      "hit": false,
      "t": 62812.5,
      "d": 121.875,
      "v": 59
    },
    {
      "midi": 27,
      "hit": false,
      "t": 62906.25,
      "d": 53.125,
      "v": 85
    },
    {
      "midi": 70,
      "hit": false,
      "t": 62906.25,
      "d": 75,
      "v": 64
    },
    {
      "midi": 43,
      "hit": false,
      "t": 63000,
      "d": 65.625,
      "v": 105
    },
    {
      "midi": 79,
      "hit": false,
      "t": 63000,
      "d": 750,
      "v": 61
    },
    {
      "midi": 70,
      "hit": false,
      "t": 63000,
      "d": 750,
      "v": 50
    },
    {
      "midi": 43,
      "hit": false,
      "t": 63187.5,
      "d": 153.125,
      "v": 116
    },
    {
      "midi": 43,
      "hit": false,
      "t": 63375,
      "d": 96.875,
      "v": 110
    },
    {
      "midi": 40,
      "hit": false,
      "t": 63562.5,
      "d": 78.125,
      "v": 110
    },
    {
      "midi": 33,
      "hit": false,
      "t": 63750,
      "d": 65.625,
      "v": 105
    },
    {
      "midi": 81,
      "hit": false,
      "t": 63750,
      "d": 675,
      "v": 48
    },
    {
      "midi": 77,
      "hit": false,
      "t": 63750,
      "d": 675,
      "v": 55
    },
    {
      "midi": 69,
      "hit": false,
      "t": 63750,
      "d": 693.75,
      "v": 61
    },
    {
      "midi": 33,
      "hit": false,
      "t": 63937.5,
      "d": 153.125,
      "v": 116
    },
    {
      "midi": 33,
      "hit": false,
      "t": 64125,
      "d": 96.875,
      "v": 110
    },
    {
      "midi": 33,
      "hit": false,
      "t": 64312.5,
      "d": 78.125,
      "v": 110
    },
    {
      "midi": 34,
      "hit": false,
      "t": 64500,
      "d": 96.875,
      "v": 102
    },
    {
      "midi": 77,
      "hit": false,
      "t": 64500,
      "d": 140.625,
      "v": 57
    },
    {
      "midi": 74,
      "hit": false,
      "t": 64500,
      "d": 150,
      "v": 53
    },
    {
      "midi": 70,
      "hit": false,
      "t": 64500,
      "d": 150,
      "v": 35
    },
    {
      "midi": 82,
      "hit": false,
      "t": 64500,
      "d": 165.625,
      "v": 55
    },
    {
      "midi": 34,
      "hit": false,
      "t": 64687.5,
      "d": 118.75,
      "v": 98
    },
    {
      "midi": 34,
      "hit": false,
      "t": 64875,
      "d": 106.25,
      "v": 119
    },
    {
      "midi": 34,
      "hit": false,
      "t": 65062.5,
      "d": 118.75,
      "v": 105
    },
    {
      "midi": 77,
      "hit": false,
      "t": 65062.5,
      "d": 746.875,
      "v": 62
    },
    {
      "midi": 74,
      "hit": false,
      "t": 65062.5,
      "d": 746.875,
      "v": 62
    },
    {
      "midi": 82,
      "hit": false,
      "t": 65062.5,
      "d": 750,
      "v": 60
    },
    {
      "midi": 70,
      "hit": false,
      "t": 65062.5,
      "d": 756.25,
      "v": 60
    },
    {
      "midi": 22,
      "hit": false,
      "t": 65156.25,
      "d": 50,
      "v": 93
    },
    {
      "midi": 34,
      "hit": false,
      "t": 65250,
      "d": 96.875,
      "v": 85
    },
    {
      "midi": 34,
      "hit": false,
      "t": 65437.5,
      "d": 65.625,
      "v": 107
    },
    {
      "midi": 34,
      "hit": false,
      "t": 65625,
      "d": 156.25,
      "v": 113
    },
    {
      "midi": 35,
      "hit": false,
      "t": 65812.5,
      "d": 59.375,
      "v": 98
    },
    {
      "midi": 36,
      "hit": false,
      "t": 66000,
      "d": 118.75,
      "v": 105
    },
    {
      "midi": 79,
      "hit": false,
      "t": 66000,
      "d": 750,
      "v": 60
    },
    {
      "midi": 67,
      "hit": false,
      "t": 66000,
      "d": 750,
      "v": 56
    },
    {
      "midi": 76,
      "hit": false,
      "t": 66000,
      "d": 750,
      "v": 60
    },
    {
      "midi": 72,
      "hit": false,
      "t": 66000,
      "d": 750,
      "v": 45
    },
    {
      "midi": 36,
      "hit": false,
      "t": 66187.5,
      "d": 150,
      "v": 107
    },
    {
      "midi": 36,
      "hit": false,
      "t": 66375,
      "d": 118.75,
      "v": 102
    },
    {
      "midi": 36,
      "hit": false,
      "t": 66562.5,
      "d": 53.125,
      "v": 116
    },
    {
      "midi": 24,
      "hit": false,
      "t": 66656.25,
      "d": 46.875,
      "v": 80
    },
    {
      "midi": 38,
      "hit": false,
      "t": 66750,
      "d": 118.75,
      "v": 107
    },
    {
      "midi": 74,
      "hit": false,
      "t": 66750,
      "d": 750,
      "v": 61
    },
    {
      "midi": 65,
      "hit": false,
      "t": 66750,
      "d": 750,
      "v": 50
    },
    {
      "midi": 26,
      "hit": false,
      "t": 66843.75,
      "d": 87.5,
      "v": 82
    },
    {
      "midi": 38,
      "hit": false,
      "t": 66937.5,
      "d": 100,
      "v": 89
    },
    {
      "midi": 38,
      "hit": false,
      "t": 67125,
      "d": 121.875,
      "v": 107
    },
    {
      "midi": 38,
      "hit": false,
      "t": 67312.5,
      "d": 134.375,
      "v": 113
    },
    {
      "midi": 39,
      "hit": false,
      "t": 67500,
      "d": 109.375,
      "v": 102
    },
    {
      "midi": 75,
      "hit": false,
      "t": 67500,
      "d": 1387.5,
      "v": 60
    },
    {
      "midi": 67,
      "hit": false,
      "t": 67500,
      "d": 1387.5,
      "v": 47
    },
    {
      "midi": 70,
      "hit": false,
      "t": 67500,
      "d": 1393.75,
      "v": 58
    },
    {
      "midi": 79,
      "hit": false,
      "t": 67500,
      "d": 1403.125,
      "v": 57
    },
    {
      "midi": 39,
      "hit": false,
      "t": 67687.5,
      "d": 134.375,
      "v": 119
    },
    {
      "midi": 39,
      "hit": false,
      "t": 67875,
      "d": 112.5,
      "v": 113
    },
    {
      "midi": 39,
      "hit": false,
      "t": 68062.5,
      "d": 150,
      "v": 113
    },
    {
      "midi": 39,
      "hit": false,
      "t": 68250,
      "d": 106.25,
      "v": 91
    },
    {
      "midi": 39,
      "hit": false,
      "t": 68437.5,
      "d": 137.5,
      "v": 105
    },
    {
      "midi": 39,
      "hit": false,
      "t": 68625,
      "d": 106.25,
      "v": 105
    },
    {
      "midi": 39,
      "hit": false,
      "t": 68812.5,
      "d": 128.125,
      "v": 113
    },
    {
      "midi": 43,
      "hit": false,
      "t": 69000,
      "d": 118.75,
      "v": 105
    },
    {
      "midi": 82,
      "hit": false,
      "t": 69000,
      "d": 675,
      "v": 48
    },
    {
      "midi": 79,
      "hit": false,
      "t": 69000,
      "d": 675,
      "v": 55
    },
    {
      "midi": 70,
      "hit": false,
      "t": 69000,
      "d": 693.75,
      "v": 61
    },
    {
      "midi": 43,
      "hit": false,
      "t": 69187.5,
      "d": 150,
      "v": 107
    },
    {
      "midi": 43,
      "hit": false,
      "t": 69375,
      "d": 118.75,
      "v": 102
    },
    {
      "midi": 43,
      "hit": false,
      "t": 69562.5,
      "d": 53.125,
      "v": 116
    },
    {
      "midi": 31,
      "hit": false,
      "t": 69656.25,
      "d": 46.875,
      "v": 80
    },
    {
      "midi": 33,
      "hit": false,
      "t": 69750,
      "d": 118.75,
      "v": 105
    },
    {
      "midi": 81,
      "hit": false,
      "t": 69750,
      "d": 675,
      "v": 48
    },
    {
      "midi": 77,
      "hit": false,
      "t": 69750,
      "d": 675,
      "v": 55
    },
    {
      "midi": 69,
      "hit": false,
      "t": 69750,
      "d": 693.75,
      "v": 61
    },
    {
      "midi": 33,
      "hit": false,
      "t": 69937.5,
      "d": 150,
      "v": 107
    },
    {
      "midi": 33,
      "hit": false,
      "t": 70125,
      "d": 118.75,
      "v": 102
    },
    {
      "midi": 33,
      "hit": false,
      "t": 70312.5,
      "d": 53.125,
      "v": 116
    },
    {
      "midi": 21,
      "hit": false,
      "t": 70406.25,
      "d": 46.875,
      "v": 80
    },
    {
      "midi": 34,
      "hit": false,
      "t": 70500,
      "d": 109.375,
      "v": 102
    },
    {
      "midi": 77,
      "hit": false,
      "t": 70500,
      "d": 140.625,
      "v": 57
    },
    {
      "midi": 74,
      "hit": false,
      "t": 70500,
      "d": 150,
      "v": 53
    },
    {
      "midi": 70,
      "hit": false,
      "t": 70500,
      "d": 150,
      "v": 35
    },
    {
      "midi": 82,
      "hit": false,
      "t": 70500,
      "d": 165.625,
      "v": 55
    },
    {
      "midi": 34,
      "hit": false,
      "t": 70687.5,
      "d": 134.375,
      "v": 119
    },
    {
      "midi": 34,
      "hit": false,
      "t": 70875,
      "d": 112.5,
      "v": 113
    },
    {
      "midi": 34,
      "hit": false,
      "t": 71062.5,
      "d": 150,
      "v": 113
    },
    {
      "midi": 77,
      "hit": false,
      "t": 71062.5,
      "d": 746.875,
      "v": 62
    },
    {
      "midi": 74,
      "hit": false,
      "t": 71062.5,
      "d": 746.875,
      "v": 62
    },
    {
      "midi": 82,
      "hit": false,
      "t": 71062.5,
      "d": 750,
      "v": 60
    },
    {
      "midi": 70,
      "hit": false,
      "t": 71062.5,
      "d": 756.25,
      "v": 60
    },
    {
      "midi": 34,
      "hit": false,
      "t": 71250,
      "d": 106.25,
      "v": 91
    },
    {
      "midi": 34,
      "hit": false,
      "t": 71437.5,
      "d": 137.5,
      "v": 105
    },
    {
      "midi": 34,
      "hit": false,
      "t": 71625,
      "d": 106.25,
      "v": 105
    },
    {
      "midi": 34,
      "hit": false,
      "t": 71812.5,
      "d": 128.125,
      "v": 113
    },
    {
      "midi": 36,
      "hit": false,
      "t": 72000,
      "d": 65.625,
      "v": 105
    },
    {
      "midi": 36,
      "hit": false,
      "t": 72187.5,
      "d": 153.125,
      "v": 116
    },
    {
      "midi": 72,
      "hit": false,
      "t": 72187.5,
      "d": 156.25,
      "v": 8
    },
    {
      "midi": 76,
      "hit": false,
      "t": 72187.5,
      "d": 159.375,
      "v": 29
    },
    {
      "midi": 36,
      "hit": false,
      "t": 72375,
      "d": 96.875,
      "v": 110
    },
    {
      "midi": 33,
      "hit": false,
      "t": 72562.5,
      "d": 78.125,
      "v": 110
    },
    {
      "midi": 38,
      "hit": false,
      "t": 72750,
      "d": 118.75,
      "v": 105
    },
    {
      "midi": 74,
      "hit": false,
      "t": 72750,
      "d": 750,
      "v": 61
    },
    {
      "midi": 65,
      "hit": false,
      "t": 72750,
      "d": 750,
      "v": 50
    },
    {
      "midi": 38,
      "hit": false,
      "t": 72937.5,
      "d": 150,
      "v": 107
    },
    {
      "midi": 38,
      "hit": false,
      "t": 73125,
      "d": 118.75,
      "v": 102
    },
    {
      "midi": 38,
      "hit": false,
      "t": 73312.5,
      "d": 53.125,
      "v": 116
    },
    {
      "midi": 26,
      "hit": false,
      "t": 73406.25,
      "d": 46.875,
      "v": 80
    },
    {
      "midi": 39,
      "hit": false,
      "t": 73500,
      "d": 96.875,
      "v": 102
    },
    {
      "midi": 75,
      "hit": false,
      "t": 73500,
      "d": 1387.5,
      "v": 60
    },
    {
      "midi": 67,
      "hit": false,
      "t": 73500,
      "d": 1387.5,
      "v": 47
    },
    {
      "midi": 70,
      "hit": false,
      "t": 73500,
      "d": 1393.75,
      "v": 58
    },
    {
      "midi": 79,
      "hit": false,
      "t": 73500,
      "d": 1403.125,
      "v": 57
    },
    {
      "midi": 39,
      "hit": false,
      "t": 73687.5,
      "d": 118.75,
      "v": 98
    },
    {
      "midi": 39,
      "hit": false,
      "t": 73875,
      "d": 106.25,
      "v": 119
    },
    {
      "midi": 39,
      "hit": false,
      "t": 74062.5,
      "d": 118.75,
      "v": 105
    },
    {
      "midi": 27,
      "hit": false,
      "t": 74156.25,
      "d": 50,
      "v": 93
    },
    {
      "midi": 39,
      "hit": false,
      "t": 74250,
      "d": 96.875,
      "v": 85
    },
    {
      "midi": 39,
      "hit": false,
      "t": 74437.5,
      "d": 65.625,
      "v": 107
    },
    {
      "midi": 39,
      "hit": false,
      "t": 74625,
      "d": 156.25,
      "v": 113
    },
    {
      "midi": 42,
      "hit": false,
      "t": 74812.5,
      "d": 59.375,
      "v": 98
    },
    {
      "midi": 43,
      "hit": false,
      "t": 75000,
      "d": 118.75,
      "v": 107
    },
    {
      "midi": 79,
      "hit": false,
      "t": 75000,
      "d": 750,
      "v": 61
    },
    {
      "midi": 70,
      "hit": false,
      "t": 75000,
      "d": 750,
      "v": 50
    },
    {
      "midi": 31,
      "hit": false,
      "t": 75093.75,
      "d": 87.5,
      "v": 82
    },
    {
      "midi": 43,
      "hit": false,
      "t": 75187.5,
      "d": 100,
      "v": 89
    },
    {
      "midi": 43,
      "hit": false,
      "t": 75375,
      "d": 121.875,
      "v": 107
    },
    {
      "midi": 43,
      "hit": false,
      "t": 75562.5,
      "d": 134.375,
      "v": 113
    },
    {
      "midi": 33,
      "hit": false,
      "t": 75750,
      "d": 65.625,
      "v": 105
    },
    {
      "midi": 81,
      "hit": false,
      "t": 75750,
      "d": 750,
      "v": 60
    },
    {
      "midi": 69,
      "hit": false,
      "t": 75750,
      "d": 750,
      "v": 56
    },
    {
      "midi": 77,
      "hit": false,
      "t": 75750,
      "d": 750,
      "v": 60
    },
    {
      "midi": 72,
      "hit": false,
      "t": 75750,
      "d": 750,
      "v": 45
    },
    {
      "midi": 33,
      "hit": false,
      "t": 75937.5,
      "d": 153.125,
      "v": 116
    },
    {
      "midi": 33,
      "hit": false,
      "t": 76125,
      "d": 96.875,
      "v": 110
    },
    {
      "midi": 33,
      "hit": false,
      "t": 76312.5,
      "d": 78.125,
      "v": 110
    },
    {
      "midi": 34,
      "hit": false,
      "t": 76500,
      "d": 78.125,
      "v": 107
    },
    {
      "midi": 34,
      "hit": false,
      "t": 76687.5,
      "d": 106.25,
      "v": 107
    },
    {
      "midi": 65,
      "hit": false,
      "t": 76687.5,
      "d": 1168.75,
      "v": 59
    },
    {
      "midi": 34,
      "hit": false,
      "t": 76875,
      "d": 96.875,
      "v": 119
    },
    {
      "midi": 70,
      "hit": false,
      "t": 76875,
      "d": 981.25,
      "v": 64
    },
    {
      "midi": 74,
      "hit": false,
      "t": 76968.75,
      "d": 887.5,
      "v": 29
    },
    {
      "midi": 34,
      "hit": false,
      "t": 77062.5,
      "d": 121.875,
      "v": 107
    },
    {
      "midi": 77,
      "hit": false,
      "t": 77062.5,
      "d": 793.75,
      "v": 70
    },
    {
      "midi": 34,
      "hit": false,
      "t": 77250,
      "d": 78.125,
      "v": 107
    },
    {
      "midi": 34,
      "hit": false,
      "t": 77437.5,
      "d": 75,
      "v": 100
    },
    {
      "midi": 34,
      "hit": false,
      "t": 77625,
      "d": 187.5,
      "v": 105
    },
    {
      "midi": 35,
      "hit": false,
      "t": 77812.5,
      "d": 71.875,
      "v": 89
    },
    {
      "midi": 36,
      "hit": false,
      "t": 78000,
      "d": 118.75,
      "v": 105
    },
    {
      "midi": 79,
      "hit": false,
      "t": 78000,
      "d": 675,
      "v": 48
    },
    {
      "midi": 76,
      "hit": false,
      "t": 78000,
      "d": 675,
      "v": 55
    },
    {
      "midi": 67,
      "hit": false,
      "t": 78000,
      "d": 693.75,
      "v": 61
    },
    {
      "midi": 36,
      "hit": false,
      "t": 78187.5,
      "d": 150,
      "v": 107
    },
    {
      "midi": 36,
      "hit": false,
      "t": 78375,
      "d": 118.75,
      "v": 102
    },
    {
      "midi": 36,
      "hit": false,
      "t": 78562.5,
      "d": 53.125,
      "v": 116
    },
    {
      "midi": 24,
      "hit": false,
      "t": 78656.25,
      "d": 46.875,
      "v": 80
    },
    {
      "midi": 38,
      "hit": false,
      "t": 78750,
      "d": 118.75,
      "v": 107
    },
    {
      "midi": 77,
      "hit": false,
      "t": 78750,
      "d": 750,
      "v": 60
    },
    {
      "midi": 65,
      "hit": false,
      "t": 78750,
      "d": 750,
      "v": 56
    },
    {
      "midi": 74,
      "hit": false,
      "t": 78750,
      "d": 750,
      "v": 60
    },
    {
      "midi": 70,
      "hit": false,
      "t": 78750,
      "d": 750,
      "v": 45
    },
    {
      "midi": 26,
      "hit": false,
      "t": 78843.75,
      "d": 87.5,
      "v": 82
    },
    {
      "midi": 38,
      "hit": false,
      "t": 78937.5,
      "d": 100,
      "v": 89
    },
    {
      "midi": 38,
      "hit": false,
      "t": 79125,
      "d": 121.875,
      "v": 107
    },
    {
      "midi": 38,
      "hit": false,
      "t": 79312.5,
      "d": 134.375,
      "v": 113
    },
    {
      "midi": 39,
      "hit": false,
      "t": 79500,
      "d": 87.5,
      "v": 116
    },
    {
      "midi": 75,
      "hit": false,
      "t": 79500,
      "d": 884.375,
      "v": 47
    },
    {
      "midi": 79,
      "hit": false,
      "t": 79500,
      "d": 893.75,
      "v": 39
    },
    {
      "midi": 70,
      "hit": false,
      "t": 79500,
      "d": 915.625,
      "v": 46
    },
    {
      "midi": 67,
      "hit": false,
      "t": 79500,
      "d": 950,
      "v": 42
    },
    {
      "midi": 39,
      "hit": false,
      "t": 79687.5,
      "d": 106.25,
      "v": 116
    },
    {
      "midi": 39,
      "hit": false,
      "t": 79875,
      "d": 100,
      "v": 107
    },
    {
      "midi": 39,
      "hit": false,
      "t": 80062.5,
      "d": 112.5,
      "v": 116
    },
    {
      "midi": 39,
      "hit": false,
      "t": 80250,
      "d": 103.125,
      "v": 107
    },
    {
      "midi": 39,
      "hit": false,
      "t": 80437.5,
      "d": 96.875,
      "v": 105
    },
    {
      "midi": 39,
      "hit": false,
      "t": 80450,
      "d": 200,
      "v": 59
    },
    {
      "midi": 27,
      "hit": false,
      "t": 80531.25,
      "d": 78.125,
      "v": 72
    },
    {
      "midi": 39,
      "hit": false,
      "t": 80625,
      "d": 87.5,
      "v": 127
    },
    {
      "midi": 75,
      "hit": false,
      "t": 80625,
      "d": 143.75,
      "v": 74
    },
    {
      "midi": 79,
      "hit": false,
      "t": 80625,
      "d": 159.375,
      "v": 65
    },
    {
      "midi": 70,
      "hit": false,
      "t": 80625,
      "d": 159.375,
      "v": 74
    },
    {
      "midi": 67,
      "hit": false,
      "t": 80625,
      "d": 168.75,
      "v": 51
    },
    {
      "midi": 27,
      "hit": false,
      "t": 80718.75,
      "d": 75,
      "v": 76
    },
    {
      "midi": 39,
      "hit": false,
      "t": 80812.5,
      "d": 81.25,
      "v": 110
    },
    {
      "midi": 39,
      "hit": false,
      "t": 80906.25,
      "d": 56.25,
      "v": 102
    },
    {
      "midi": 43,
      "hit": false,
      "t": 81000,
      "d": 87.5,
      "v": 116
    },
    {
      "midi": 82,
      "hit": false,
      "t": 81000,
      "d": 140.625,
      "v": 57
    },
    {
      "midi": 79,
      "hit": false,
      "t": 81000,
      "d": 150,
      "v": 53
    },
    {
      "midi": 74,
      "hit": false,
      "t": 81000,
      "d": 150,
      "v": 35
    },
    {
      "midi": 86,
      "hit": false,
      "t": 81000,
      "d": 165.625,
      "v": 55
    },
    {
      "midi": 43,
      "hit": false,
      "t": 81187.5,
      "d": 106.25,
      "v": 116
    },
    {
      "midi": 43,
      "hit": false,
      "t": 81375,
      "d": 100,
      "v": 107
    },
    {
      "midi": 43,
      "hit": false,
      "t": 81562.5,
      "d": 112.5,
      "v": 116
    },
    {
      "midi": 82,
      "hit": false,
      "t": 81562.5,
      "d": 746.875,
      "v": 62
    },
    {
      "midi": 79,
      "hit": false,
      "t": 81562.5,
      "d": 746.875,
      "v": 62
    },
    {
      "midi": 86,
      "hit": false,
      "t": 81562.5,
      "d": 750,
      "v": 60
    },
    {
      "midi": 74,
      "hit": false,
      "t": 81562.5,
      "d": 756.25,
      "v": 60
    },
    {
      "midi": 43,
      "hit": false,
      "t": 81750,
      "d": 103.125,
      "v": 107
    },
    {
      "midi": 43,
      "hit": false,
      "t": 81937.5,
      "d": 96.875,
      "v": 105
    },
    {
      "midi": 31,
      "hit": false,
      "t": 82031.25,
      "d": 78.125,
      "v": 72
    },
    {
      "midi": 43,
      "hit": false,
      "t": 82125,
      "d": 87.5,
      "v": 127
    },
    {
      "midi": 31,
      "hit": false,
      "t": 82218.75,
      "d": 75,
      "v": 76
    },
    {
      "midi": 43,
      "hit": false,
      "t": 82312.5,
      "d": 81.25,
      "v": 110
    },
    {
      "midi": 43,
      "hit": false,
      "t": 82406.25,
      "d": 56.25,
      "v": 102
    },
    {
      "midi": 43,
      "hit": false,
      "t": 82500,
      "d": 137.5,
      "v": 105
    },
    {
      "midi": 43,
      "hit": false,
      "t": 82687.5,
      "d": 103.125,
      "v": 89
    },
    {
      "midi": 70,
      "hit": false,
      "t": 82687.5,
      "d": 1168.75,
      "v": 59
    },
    {
      "midi": 43,
      "hit": false,
      "t": 82875,
      "d": 125,
      "v": 105
    },
    {
      "midi": 74,
      "hit": false,
      "t": 82875,
      "d": 981.25,
      "v": 64
    },
    {
      "midi": 79,
      "hit": false,
      "t": 82968.75,
      "d": 887.5,
      "v": 29
    },
    {
      "midi": 43,
      "hit": false,
      "t": 83062.5,
      "d": 137.5,
      "v": 98
    },
    {
      "midi": 82,
      "hit": false,
      "t": 83062.5,
      "d": 793.75,
      "v": 70
    },
    {
      "midi": 43,
      "hit": false,
      "t": 83250,
      "d": 112.5,
      "v": 102
    },
    {
      "midi": 43,
      "hit": false,
      "t": 83437.5,
      "d": 115.625,
      "v": 102
    },
    {
      "midi": 43,
      "hit": false,
      "t": 83625,
      "d": 134.375,
      "v": 110
    },
    {
      "midi": 43,
      "hit": false,
      "t": 83812.5,
      "d": 162.5,
      "v": 98
    },
    {
      "midi": 43,
      "hit": false,
      "t": 84000,
      "d": 78.125,
      "v": 107
    },
    {
      "midi": 79,
      "hit": false,
      "t": 84000,
      "d": 884.375,
      "v": 47
    },
    {
      "midi": 82,
      "hit": false,
      "t": 84000,
      "d": 893.75,
      "v": 39
    },
    {
      "midi": 74,
      "hit": false,
      "t": 84000,
      "d": 915.625,
      "v": 46
    },
    {
      "midi": 70,
      "hit": false,
      "t": 84000,
      "d": 950,
      "v": 42
    },
    {
      "midi": 43,
      "hit": false,
      "t": 84187.5,
      "d": 106.25,
      "v": 107
    },
    {
      "midi": 43,
      "hit": false,
      "t": 84375,
      "d": 96.875,
      "v": 119
    },
    {
      "midi": 43,
      "hit": false,
      "t": 84562.5,
      "d": 121.875,
      "v": 107
    },
    {
      "midi": 43,
      "hit": false,
      "t": 84750,
      "d": 78.125,
      "v": 107
    },
    {
      "midi": 43,
      "hit": false,
      "t": 84937.5,
      "d": 75,
      "v": 100
    },
    {
      "midi": 43,
      "hit": false,
      "t": 84950,
      "d": 200,
      "v": 59
    },
    {
      "midi": 43,
      "hit": false,
      "t": 85125,
      "d": 187.5,
      "v": 105
    },
    {
      "midi": 79,
      "hit": false,
      "t": 85125,
      "d": 143.75,
      "v": 74
    },
    {
      "midi": 82,
      "hit": false,
      "t": 85125,
      "d": 159.375,
      "v": 65
    },
    {
      "midi": 74,
      "hit": false,
      "t": 85125,
      "d": 159.375,
      "v": 74
    },
    {
      "midi": 70,
      "hit": false,
      "t": 85125,
      "d": 168.75,
      "v": 51
    },
    {
      "midi": 35,
      "hit": false,
      "t": 85312.5,
      "d": 71.875,
      "v": 89
    },
    {
      "midi": 43,
      "hit": false,
      "t": 85500,
      "d": 109.375,
      "v": 102
    },
    {
      "midi": 79,
      "hit": false,
      "t": 85500,
      "d": 140.625,
      "v": 57
    },
    {
      "midi": 76,
      "hit": false,
      "t": 85500,
      "d": 150,
      "v": 53
    },
    {
      "midi": 72,
      "hit": false,
      "t": 85500,
      "d": 150,
      "v": 35
    },
    {
      "midi": 84,
      "hit": false,
      "t": 85500,
      "d": 165.625,
      "v": 55
    },
    {
      "midi": 43,
      "hit": false,
      "t": 85687.5,
      "d": 134.375,
      "v": 119
    },
    {
      "midi": 43,
      "hit": false,
      "t": 85875,
      "d": 112.5,
      "v": 113
    },
    {
      "midi": 43,
      "hit": false,
      "t": 86062.5,
      "d": 150,
      "v": 113
    },
    {
      "midi": 79,
      "hit": false,
      "t": 86062.5,
      "d": 746.875,
      "v": 62
    },
    {
      "midi": 76,
      "hit": false,
      "t": 86062.5,
      "d": 746.875,
      "v": 62
    },
    {
      "midi": 84,
      "hit": false,
      "t": 86062.5,
      "d": 750,
      "v": 60
    },
    {
      "midi": 72,
      "hit": false,
      "t": 86062.5,
      "d": 756.25,
      "v": 60
    },
    {
      "midi": 43,
      "hit": false,
      "t": 86250,
      "d": 106.25,
      "v": 91
    },
    {
      "midi": 43,
      "hit": false,
      "t": 86437.5,
      "d": 137.5,
      "v": 105
    },
    {
      "midi": 43,
      "hit": false,
      "t": 86625,
      "d": 106.25,
      "v": 105
    },
    {
      "midi": 43,
      "hit": false,
      "t": 86812.5,
      "d": 128.125,
      "v": 113
    },
    {
      "midi": 43,
      "hit": false,
      "t": 87000,
      "d": 87.5,
      "v": 116
    },
    {
      "midi": 79,
      "hit": false,
      "t": 87000,
      "d": 878.125,
      "v": 43
    },
    {
      "midi": 76,
      "hit": false,
      "t": 87000,
      "d": 940.625,
      "v": 41
    },
    {
      "midi": 72,
      "hit": false,
      "t": 87000,
      "d": 1053.125,
      "v": 45
    },
    {
      "midi": 67,
      "hit": false,
      "t": 87000,
      "d": 1493.75,
      "v": 43
    },
    {
      "midi": 43,
      "hit": false,
      "t": 87187.5,
      "d": 106.25,
      "v": 116
    },
    {
      "midi": 43,
      "hit": false,
      "t": 87375,
      "d": 100,
      "v": 107
    },
    {
      "midi": 43,
      "hit": false,
      "t": 87562.5,
      "d": 112.5,
      "v": 116
    },
    {
      "midi": 43,
      "hit": false,
      "t": 87750,
      "d": 103.125,
      "v": 107
    },
    {
      "midi": 43,
      "hit": false,
      "t": 87937.5,
      "d": 96.875,
      "v": 105
    },
    {
      "midi": 79,
      "hit": false,
      "t": 87940.625,
      "d": 184.375,
      "v": 66
    },
    {
      "midi": 31,
      "hit": false,
      "t": 88031.25,
      "d": 78.125,
      "v": 72
    },
    {
      "midi": 76,
      "hit": false,
      "t": 88053.125,
      "d": 146.875,
      "v": 64
    },
    {
      "midi": 43,
      "hit": false,
      "t": 88125,
      "d": 87.5,
      "v": 127
    },
    {
      "midi": 72,
      "hit": false,
      "t": 88125,
      "d": 159.375,
      "v": 57
    },
    {
      "midi": 31,
      "hit": false,
      "t": 88218.75,
      "d": 75,
      "v": 76
    },
    {
      "midi": 79,
      "hit": false,
      "t": 88218.75,
      "d": 187.5,
      "v": 72
    },
    {
      "midi": 43,
      "hit": false,
      "t": 88312.5,
      "d": 81.25,
      "v": 110
    },
    {
      "midi": 76,
      "hit": false,
      "t": 88312.5,
      "d": 121.875,
      "v": 59
    },
    {
      "midi": 43,
      "hit": false,
      "t": 88406.25,
      "d": 56.25,
      "v": 102
    },
    {
      "midi": 72,
      "hit": false,
      "t": 88406.25,
      "d": 75,
      "v": 64
    },
    {
      "midi": 43,
      "hit": false,
      "t": 88500,
      "d": 87.5,
      "v": 116
    },
    {
      "midi": 43,
      "hit": false,
      "t": 88687.5,
      "d": 106.25,
      "v": 116
    },
    {
      "midi": 70,
      "hit": false,
      "t": 88687.5,
      "d": 1168.75,
      "v": 59
    },
    {
      "midi": 43,
      "hit": false,
      "t": 88875,
      "d": 100,
      "v": 107
    },
    {
      "midi": 74,
      "hit": false,
      "t": 88875,
      "d": 981.25,
      "v": 64
    },
    {
      "midi": 79,
      "hit": false,
      "t": 88968.75,
      "d": 887.5,
      "v": 29
    },
    {
      "midi": 43,
      "hit": false,
      "t": 89062.5,
      "d": 112.5,
      "v": 116
    },
    {
      "midi": 82,
      "hit": false,
      "t": 89062.5,
      "d": 793.75,
      "v": 70
    },
    {
      "midi": 43,
      "hit": false,
      "t": 89250,
      "d": 103.125,
      "v": 107
    },
    {
      "midi": 43,
      "hit": false,
      "t": 89437.5,
      "d": 96.875,
      "v": 105
    },
    {
      "midi": 31,
      "hit": false,
      "t": 89531.25,
      "d": 78.125,
      "v": 72
    },
    {
      "midi": 43,
      "hit": false,
      "t": 89625,
      "d": 87.5,
      "v": 127
    },
    {
      "midi": 31,
      "hit": false,
      "t": 89718.75,
      "d": 75,
      "v": 76
    },
    {
      "midi": 43,
      "hit": false,
      "t": 89812.5,
      "d": 81.25,
      "v": 110
    },
    {
      "midi": 43,
      "hit": false,
      "t": 89906.25,
      "d": 56.25,
      "v": 102
    },
    {
      "midi": 43,
      "hit": false,
      "t": 90000,
      "d": 96.875,
      "v": 102
    },
    {
      "midi": 79,
      "hit": false,
      "t": 90000,
      "d": 1387.5,
      "v": 60
    },
    {
      "midi": 70,
      "hit": false,
      "t": 90000,
      "d": 1387.5,
      "v": 47
    },
    {
      "midi": 74,
      "hit": false,
      "t": 90000,
      "d": 1393.75,
      "v": 58
    },
    {
      "midi": 82,
      "hit": false,
      "t": 90000,
      "d": 1403.125,
      "v": 57
    },
    {
      "midi": 43,
      "hit": false,
      "t": 90187.5,
      "d": 118.75,
      "v": 98
    },
    {
      "midi": 43,
      "hit": false,
      "t": 90375,
      "d": 106.25,
      "v": 119
    },
    {
      "midi": 43,
      "hit": false,
      "t": 90562.5,
      "d": 118.75,
      "v": 105
    },
    {
      "midi": 31,
      "hit": false,
      "t": 90656.25,
      "d": 50,
      "v": 93
    },
    {
      "midi": 43,
      "hit": false,
      "t": 90750,
      "d": 96.875,
      "v": 85
    },
    {
      "midi": 43,
      "hit": false,
      "t": 90937.5,
      "d": 65.625,
      "v": 107
    },
    {
      "midi": 43,
      "hit": false,
      "t": 91125,
      "d": 156.25,
      "v": 113
    },
    {
      "midi": 35,
      "hit": false,
      "t": 91312.5,
      "d": 59.375,
      "v": 98
    },
    {
      "midi": 43,
      "hit": false,
      "t": 91500,
      "d": 96.875,
      "v": 102
    },
    {
      "midi": 43,
      "hit": false,
      "t": 91687.5,
      "d": 118.75,
      "v": 98
    },
    {
      "midi": 67,
      "hit": false,
      "t": 91687.5,
      "d": 1168.75,
      "v": 59
    },
    {
      "midi": 43,
      "hit": false,
      "t": 91875,
      "d": 106.25,
      "v": 119
    },
    {
      "midi": 72,
      "hit": false,
      "t": 91875,
      "d": 981.25,
      "v": 64
    },
    {
      "midi": 76,
      "hit": false,
      "t": 91968.75,
      "d": 887.5,
      "v": 29
    },
    {
      "midi": 43,
      "hit": false,
      "t": 92062.5,
      "d": 118.75,
      "v": 105
    },
    {
      "midi": 79,
      "hit": false,
      "t": 92062.5,
      "d": 793.75,
      "v": 70
    },
    {
      "midi": 31,
      "hit": false,
      "t": 92156.25,
      "d": 50,
      "v": 93
    },
    {
      "midi": 43,
      "hit": false,
      "t": 92250,
      "d": 96.875,
      "v": 85
    },
    {
      "midi": 43,
      "hit": false,
      "t": 92437.5,
      "d": 65.625,
      "v": 107
    },
    {
      "midi": 43,
      "hit": false,
      "t": 92625,
      "d": 156.25,
      "v": 113
    },
    {
      "midi": 35,
      "hit": false,
      "t": 92812.5,
      "d": 59.375,
      "v": 98
    },
    {
      "midi": 43,
      "hit": false,
      "t": 93000,
      "d": 87.5,
      "v": 105
    },
    {
      "midi": 76,
      "hit": false,
      "t": 93000,
      "d": 1387.5,
      "v": 60
    },
    {
      "midi": 67,
      "hit": false,
      "t": 93000,
      "d": 1387.5,
      "v": 47
    },
    {
      "midi": 72,
      "hit": false,
      "t": 93000,
      "d": 1393.75,
      "v": 58
    },
    {
      "midi": 79,
      "hit": false,
      "t": 93000,
      "d": 1403.125,
      "v": 57
    },
    {
      "midi": 43,
      "hit": false,
      "t": 93187.5,
      "d": 68.75,
      "v": 100
    },
    {
      "midi": 43,
      "hit": false,
      "t": 93375,
      "d": 71.875,
      "v": 110
    },
    {
      "midi": 43,
      "hit": false,
      "t": 93562.5,
      "d": 159.375,
      "v": 116
    },
    {
      "midi": 43,
      "hit": false,
      "t": 93750,
      "d": 84.375,
      "v": 95
    },
    {
      "midi": 43,
      "hit": false,
      "t": 93937.5,
      "d": 71.875,
      "v": 95
    },
    {
      "midi": 43,
      "hit": false,
      "t": 94125,
      "d": 103.125,
      "v": 122
    },
    {
      "midi": 43,
      "hit": false,
      "t": 94312.5,
      "d": 43.75,
      "v": 110
    },
    {
      "midi": 31,
      "hit": false,
      "t": 94406.25,
      "d": 53.125,
      "v": 85
    },
    {
      "midi": 43,
      "hit": false,
      "t": 94500,
      "d": 87.5,
      "v": 105
    },
    {
      "midi": 79,
      "hit": false,
      "t": 94500,
      "d": 884.375,
      "v": 47
    },
    {
      "midi": 82,
      "hit": false,
      "t": 94500,
      "d": 893.75,
      "v": 39
    },
    {
      "midi": 74,
      "hit": false,
      "t": 94500,
      "d": 915.625,
      "v": 46
    },
    {
      "midi": 70,
      "hit": false,
      "t": 94500,
      "d": 950,
      "v": 42
    },
    {
      "midi": 43,
      "hit": false,
      "t": 94687.5,
      "d": 68.75,
      "v": 100
    },
    {
      "midi": 43,
      "hit": false,
      "t": 94875,
      "d": 71.875,
      "v": 110
    },
    {
      "midi": 43,
      "hit": false,
      "t": 95062.5,
      "d": 159.375,
      "v": 116
    },
    {
      "midi": 43,
      "hit": false,
      "t": 95250,
      "d": 84.375,
      "v": 95
    },
    {
      "midi": 43,
      "hit": false,
      "t": 95437.5,
      "d": 71.875,
      "v": 95
    },
    {
      "midi": 43,
      "hit": false,
      "t": 95450,
      "d": 200,
      "v": 59
    },
    {
      "midi": 43,
      "hit": false,
      "t": 95625,
      "d": 103.125,
      "v": 122
    },
    {
      "midi": 79,
      "hit": false,
      "t": 95625,
      "d": 143.75,
      "v": 74
    },
    {
      "midi": 82,
      "hit": false,
      "t": 95625,
      "d": 159.375,
      "v": 65
    },
    {
      "midi": 74,
      "hit": false,
      "t": 95625,
      "d": 159.375,
      "v": 74
    },
    {
      "midi": 70,
      "hit": false,
      "t": 95625,
      "d": 168.75,
      "v": 51
    },
    {
      "midi": 43,
      "hit": false,
      "t": 95812.5,
      "d": 43.75,
      "v": 110
    },
    {
      "midi": 31,
      "hit": false,
      "t": 95906.25,
      "d": 53.125,
      "v": 85
    },
    {
      "midi": 33,
      "hit": false,
      "t": 96000,
      "d": 78.125,
      "v": 107
    },
    {
      "midi": 33,
      "hit": false,
      "t": 96187.5,
      "d": 106.25,
      "v": 107
    },
    {
      "midi": 69,
      "hit": false,
      "t": 96187.5,
      "d": 1168.75,
      "v": 59
    },
    {
      "midi": 33,
      "hit": false,
      "t": 96375,
      "d": 96.875,
      "v": 119
    },
    {
      "midi": 72,
      "hit": false,
      "t": 96375,
      "d": 981.25,
      "v": 64
    },
    {
      "midi": 77,
      "hit": false,
      "t": 96468.75,
      "d": 887.5,
      "v": 29
    },
    {
      "midi": 33,
      "hit": false,
      "t": 96562.5,
      "d": 121.875,
      "v": 107
    },
    {
      "midi": 81,
      "hit": false,
      "t": 96562.5,
      "d": 793.75,
      "v": 70
    },
    {
      "midi": 33,
      "hit": false,
      "t": 96750,
      "d": 78.125,
      "v": 107
    },
    {
      "midi": 33,
      "hit": false,
      "t": 96937.5,
      "d": 75,
      "v": 100
    },
    {
      "midi": 33,
      "hit": false,
      "t": 97125,
      "d": 187.5,
      "v": 105
    },
    {
      "midi": 33,
      "hit": false,
      "t": 97312.5,
      "d": 71.875,
      "v": 89
    },
    {
      "midi": 34,
      "hit": false,
      "t": 97500,
      "d": 96.875,
      "v": 102
    },
    {
      "midi": 74,
      "hit": false,
      "t": 97500,
      "d": 884.375,
      "v": 47
    },
    {
      "midi": 77,
      "hit": false,
      "t": 97500,
      "d": 893.75,
      "v": 39
    },
    {
      "midi": 70,
      "hit": false,
      "t": 97500,
      "d": 915.625,
      "v": 46
    },
    {
      "midi": 65,
      "hit": false,
      "t": 97500,
      "d": 950,
      "v": 42
    },
    {
      "midi": 34,
      "hit": false,
      "t": 97687.5,
      "d": 118.75,
      "v": 98
    },
    {
      "midi": 34,
      "hit": false,
      "t": 97875,
      "d": 106.25,
      "v": 119
    },
    {
      "midi": 34,
      "hit": false,
      "t": 98062.5,
      "d": 118.75,
      "v": 105
    },
    {
      "midi": 22,
      "hit": false,
      "t": 98156.25,
      "d": 50,
      "v": 93
    },
    {
      "midi": 34,
      "hit": false,
      "t": 98250,
      "d": 96.875,
      "v": 85
    },
    {
      "midi": 34,
      "hit": false,
      "t": 98437.5,
      "d": 65.625,
      "v": 107
    },
    {
      "midi": 46,
      "hit": false,
      "t": 98450,
      "d": 200,
      "v": 59
    },
    {
      "midi": 34,
      "hit": false,
      "t": 98625,
      "d": 156.25,
      "v": 113
    },
    {
      "midi": 74,
      "hit": false,
      "t": 98625,
      "d": 143.75,
      "v": 74
    },
    {
      "midi": 77,
      "hit": false,
      "t": 98625,
      "d": 159.375,
      "v": 65
    },
    {
      "midi": 70,
      "hit": false,
      "t": 98625,
      "d": 159.375,
      "v": 74
    },
    {
      "midi": 65,
      "hit": false,
      "t": 98625,
      "d": 168.75,
      "v": 51
    },
    {
      "midi": 35,
      "hit": false,
      "t": 98812.5,
      "d": 59.375,
      "v": 98
    },
    {
      "midi": 36,
      "hit": false,
      "t": 99000,
      "d": 96.875,
      "v": 102
    },
    {
      "midi": 79,
      "hit": false,
      "t": 99000,
      "d": 140.625,
      "v": 57
    },
    {
      "midi": 76,
      "hit": false,
      "t": 99000,
      "d": 150,
      "v": 53
    },
    {
      "midi": 72,
      "hit": false,
      "t": 99000,
      "d": 150,
      "v": 35
    },
    {
      "midi": 84,
      "hit": false,
      "t": 99000,
      "d": 165.625,
      "v": 55
    },
    {
      "midi": 36,
      "hit": false,
      "t": 99187.5,
      "d": 118.75,
      "v": 98
    },
    {
      "midi": 36,
      "hit": false,
      "t": 99375,
      "d": 106.25,
      "v": 119
    },
    {
      "midi": 36,
      "hit": false,
      "t": 99562.5,
      "d": 118.75,
      "v": 105
    },
    {
      "midi": 79,
      "hit": false,
      "t": 99562.5,
      "d": 746.875,
      "v": 62
    },
    {
      "midi": 76,
      "hit": false,
      "t": 99562.5,
      "d": 746.875,
      "v": 62
    },
    {
      "midi": 84,
      "hit": false,
      "t": 99562.5,
      "d": 750,
      "v": 60
    },
    {
      "midi": 72,
      "hit": false,
      "t": 99562.5,
      "d": 756.25,
      "v": 60
    },
    {
      "midi": 24,
      "hit": false,
      "t": 99656.25,
      "d": 50,
      "v": 93
    },
    {
      "midi": 36,
      "hit": false,
      "t": 99750,
      "d": 96.875,
      "v": 85
    },
    {
      "midi": 36,
      "hit": false,
      "t": 99937.5,
      "d": 65.625,
      "v": 107
    },
    {
      "midi": 36,
      "hit": false,
      "t": 100125,
      "d": 156.25,
      "v": 113
    },
    {
      "midi": 42,
      "hit": false,
      "t": 100312.5,
      "d": 59.375,
      "v": 98
    },
    {
      "midi": 43,
      "hit": false,
      "t": 100500,
      "d": 87.5,
      "v": 116
    },
    {
      "midi": 82,
      "hit": false,
      "t": 100500,
      "d": 140.625,
      "v": 57
    },
    {
      "midi": 79,
      "hit": false,
      "t": 100500,
      "d": 150,
      "v": 53
    },
    {
      "midi": 74,
      "hit": false,
      "t": 100500,
      "d": 150,
      "v": 35
    },
    {
      "midi": 86,
      "hit": false,
      "t": 100500,
      "d": 165.625,
      "v": 55
    },
    {
      "midi": 43,
      "hit": false,
      "t": 100687.5,
      "d": 106.25,
      "v": 116
    },
    {
      "midi": 43,
      "hit": false,
      "t": 100875,
      "d": 100,
      "v": 107
    },
    {
      "midi": 43,
      "hit": false,
      "t": 101062.5,
      "d": 112.5,
      "v": 116
    },
    {
      "midi": 82,
      "hit": false,
      "t": 101062.5,
      "d": 746.875,
      "v": 62
    },
    {
      "midi": 79,
      "hit": false,
      "t": 101062.5,
      "d": 746.875,
      "v": 62
    },
    {
      "midi": 86,
      "hit": false,
      "t": 101062.5,
      "d": 750,
      "v": 60
    },
    {
      "midi": 74,
      "hit": false,
      "t": 101062.5,
      "d": 756.25,
      "v": 60
    },
    {
      "midi": 43,
      "hit": false,
      "t": 101250,
      "d": 103.125,
      "v": 107
    },
    {
      "midi": 43,
      "hit": false,
      "t": 101437.5,
      "d": 96.875,
      "v": 105
    },
    {
      "midi": 31,
      "hit": false,
      "t": 101531.25,
      "d": 78.125,
      "v": 72
    },
    {
      "midi": 43,
      "hit": false,
      "t": 101625,
      "d": 87.5,
      "v": 127
    },
    {
      "midi": 31,
      "hit": false,
      "t": 101718.75,
      "d": 75,
      "v": 76
    },
    {
      "midi": 43,
      "hit": false,
      "t": 101812.5,
      "d": 81.25,
      "v": 110
    },
    {
      "midi": 43,
      "hit": false,
      "t": 101906.25,
      "d": 56.25,
      "v": 102
    },
    {
      "midi": 33,
      "hit": false,
      "t": 102000,
      "d": 137.5,
      "v": 105
    },
    {
      "midi": 33,
      "hit": false,
      "t": 102187.5,
      "d": 103.125,
      "v": 89
    },
    {
      "midi": 69,
      "hit": false,
      "t": 102187.5,
      "d": 1168.75,
      "v": 59
    },
    {
      "midi": 33,
      "hit": false,
      "t": 102375,
      "d": 125,
      "v": 105
    },
    {
      "midi": 72,
      "hit": false,
      "t": 102375,
      "d": 981.25,
      "v": 64
    },
    {
      "midi": 77,
      "hit": false,
      "t": 102468.75,
      "d": 887.5,
      "v": 29
    },
    {
      "midi": 33,
      "hit": false,
      "t": 102562.5,
      "d": 137.5,
      "v": 98
    },
    {
      "midi": 81,
      "hit": false,
      "t": 102562.5,
      "d": 793.75,
      "v": 70
    },
    {
      "midi": 33,
      "hit": false,
      "t": 102750,
      "d": 112.5,
      "v": 102
    },
    {
      "midi": 33,
      "hit": false,
      "t": 102937.5,
      "d": 115.625,
      "v": 102
    },
    {
      "midi": 33,
      "hit": false,
      "t": 103125,
      "d": 134.375,
      "v": 110
    },
    {
      "midi": 33,
      "hit": false,
      "t": 103312.5,
      "d": 162.5,
      "v": 98
    },
    {
      "midi": 39,
      "hit": false,
      "t": 103500,
      "d": 78.125,
      "v": 107
    },
    {
      "midi": 39,
      "hit": false,
      "t": 103687.5,
      "d": 106.25,
      "v": 107
    },
    {
      "midi": 67,
      "hit": false,
      "t": 103687.5,
      "d": 1168.75,
      "v": 59
    },
    {
      "midi": 39,
      "hit": false,
      "t": 103875,
      "d": 96.875,
      "v": 119
    },
    {
      "midi": 70,
      "hit": false,
      "t": 103875,
      "d": 981.25,
      "v": 64
    },
    {
      "midi": 75,
      "hit": false,
      "t": 103968.75,
      "d": 887.5,
      "v": 29
    },
    {
      "midi": 39,
      "hit": false,
      "t": 104062.5,
      "d": 121.875,
      "v": 107
    },
    {
      "midi": 79,
      "hit": false,
      "t": 104062.5,
      "d": 793.75,
      "v": 70
    },
    {
      "midi": 39,
      "hit": false,
      "t": 104250,
      "d": 78.125,
      "v": 107
    },
    {
      "midi": 39,
      "hit": false,
      "t": 104437.5,
      "d": 75,
      "v": 100
    },
    {
      "midi": 39,
      "hit": false,
      "t": 104625,
      "d": 187.5,
      "v": 105
    },
    {
      "midi": 38,
      "hit": false,
      "t": 104812.5,
      "d": 71.875,
      "v": 89
    },
    {
      "midi": 39,
      "hit": false,
      "t": 105000,
      "d": 87.5,
      "v": 116
    },
    {
      "midi": 79,
      "hit": false,
      "t": 105000,
      "d": 140.625,
      "v": 57
    },
    {
      "midi": 75,
      "hit": false,
      "t": 105000,
      "d": 150,
      "v": 53
    },
    {
      "midi": 70,
      "hit": false,
      "t": 105000,
      "d": 150,
      "v": 35
    },
    {
      "midi": 82,
      "hit": false,
      "t": 105000,
      "d": 165.625,
      "v": 55
    },
    {
      "midi": 39,
      "hit": false,
      "t": 105187.5,
      "d": 106.25,
      "v": 116
    },
    {
      "midi": 39,
      "hit": false,
      "t": 105375,
      "d": 100,
      "v": 107
    },
    {
      "midi": 39,
      "hit": false,
      "t": 105562.5,
      "d": 112.5,
      "v": 116
    },
    {
      "midi": 79,
      "hit": false,
      "t": 105562.5,
      "d": 746.875,
      "v": 62
    },
    {
      "midi": 75,
      "hit": false,
      "t": 105562.5,
      "d": 746.875,
      "v": 62
    },
    {
      "midi": 82,
      "hit": false,
      "t": 105562.5,
      "d": 750,
      "v": 60
    },
    {
      "midi": 70,
      "hit": false,
      "t": 105562.5,
      "d": 756.25,
      "v": 60
    },
    {
      "midi": 39,
      "hit": false,
      "t": 105750,
      "d": 103.125,
      "v": 107
    },
    {
      "midi": 39,
      "hit": false,
      "t": 105937.5,
      "d": 96.875,
      "v": 105
    },
    {
      "midi": 27,
      "hit": false,
      "t": 106031.25,
      "d": 78.125,
      "v": 72
    },
    {
      "midi": 39,
      "hit": false,
      "t": 106125,
      "d": 87.5,
      "v": 127
    },
    {
      "midi": 27,
      "hit": false,
      "t": 106218.75,
      "d": 75,
      "v": 76
    },
    {
      "midi": 39,
      "hit": false,
      "t": 106312.5,
      "d": 81.25,
      "v": 110
    },
    {
      "midi": 39,
      "hit": false,
      "t": 106406.25,
      "d": 56.25,
      "v": 102
    },
    {
      "midi": 36,
      "hit": false,
      "t": 106500,
      "d": 137.5,
      "v": 105
    },
    {
      "midi": 75,
      "hit": false,
      "t": 106500,
      "d": 884.375,
      "v": 47
    },
    {
      "midi": 79,
      "hit": false,
      "t": 106500,
      "d": 893.75,
      "v": 39
    },
    {
      "midi": 72,
      "hit": false,
      "t": 106500,
      "d": 915.625,
      "v": 46
    },
    {
      "midi": 70,
      "hit": false,
      "t": 106500,
      "d": 950,
      "v": 42
    },
    {
      "midi": 36,
      "hit": false,
      "t": 106687.5,
      "d": 103.125,
      "v": 89
    },
    {
      "midi": 36,
      "hit": false,
      "t": 106875,
      "d": 125,
      "v": 105
    },
    {
      "midi": 36,
      "hit": false,
      "t": 107062.5,
      "d": 137.5,
      "v": 98
    },
    {
      "midi": 36,
      "hit": false,
      "t": 107250,
      "d": 112.5,
      "v": 102
    },
    {
      "midi": 36,
      "hit": false,
      "t": 107437.5,
      "d": 115.625,
      "v": 102
    },
    {
      "midi": 48,
      "hit": false,
      "t": 107450,
      "d": 200,
      "v": 59
    },
    {
      "midi": 36,
      "hit": false,
      "t": 107625,
      "d": 134.375,
      "v": 110
    },
    {
      "midi": 75,
      "hit": false,
      "t": 107625,
      "d": 143.75,
      "v": 74
    },
    {
      "midi": 79,
      "hit": false,
      "t": 107625,
      "d": 159.375,
      "v": 65
    },
    {
      "midi": 72,
      "hit": false,
      "t": 107625,
      "d": 159.375,
      "v": 74
    },
    {
      "midi": 70,
      "hit": false,
      "t": 107625,
      "d": 168.75,
      "v": 51
    },
    {
      "midi": 36,
      "hit": false,
      "t": 107812.5,
      "d": 162.5,
      "v": 98
    },
    {
      "midi": 41,
      "hit": false,
      "t": 108000,
      "d": 96.875,
      "v": 102
    },
    {
      "midi": 81,
      "hit": false,
      "t": 108000,
      "d": 140.625,
      "v": 57
    },
    {
      "midi": 77,
      "hit": false,
      "t": 108000,
      "d": 150,
      "v": 53
    },
    {
      "midi": 72,
      "hit": false,
      "t": 108000,
      "d": 150,
      "v": 35
    },
    {
      "midi": 84,
      "hit": false,
      "t": 108000,
      "d": 165.625,
      "v": 55
    },
    {
      "midi": 41,
      "hit": false,
      "t": 108187.5,
      "d": 118.75,
      "v": 98
    },
    {
      "midi": 41,
      "hit": false,
      "t": 108375,
      "d": 106.25,
      "v": 119
    },
    {
      "midi": 41,
      "hit": false,
      "t": 108562.5,
      "d": 118.75,
      "v": 105
    },
    {
      "midi": 81,
      "hit": false,
      "t": 108562.5,
      "d": 746.875,
      "v": 62
    },
    {
      "midi": 77,
      "hit": false,
      "t": 108562.5,
      "d": 746.875,
      "v": 62
    },
    {
      "midi": 84,
      "hit": false,
      "t": 108562.5,
      "d": 750,
      "v": 60
    },
    {
      "midi": 72,
      "hit": false,
      "t": 108562.5,
      "d": 756.25,
      "v": 60
    },
    {
      "midi": 29,
      "hit": false,
      "t": 108656.25,
      "d": 50,
      "v": 93
    },
    {
      "midi": 41,
      "hit": false,
      "t": 108750,
      "d": 96.875,
      "v": 85
    },
    {
      "midi": 41,
      "hit": false,
      "t": 108937.5,
      "d": 65.625,
      "v": 107
    },
    {
      "midi": 41,
      "hit": false,
      "t": 109125,
      "d": 156.25,
      "v": 113
    },
    {
      "midi": 37,
      "hit": false,
      "t": 109312.5,
      "d": 59.375,
      "v": 98
    },
    {
      "midi": 38,
      "hit": false,
      "t": 109500,
      "d": 78.125,
      "v": 107
    },
    {
      "midi": 77,
      "hit": false,
      "t": 109500,
      "d": 884.375,
      "v": 47
    },
    {
      "midi": 81,
      "hit": false,
      "t": 109500,
      "d": 893.75,
      "v": 39
    },
    {
      "midi": 74,
      "hit": false,
      "t": 109500,
      "d": 915.625,
      "v": 46
    },
    {
      "midi": 72,
      "hit": false,
      "t": 109500,
      "d": 950,
      "v": 42
    },
    {
      "midi": 38,
      "hit": false,
      "t": 109687.5,
      "d": 106.25,
      "v": 107
    },
    {
      "midi": 38,
      "hit": false,
      "t": 109875,
      "d": 96.875,
      "v": 119
    },
    {
      "midi": 38,
      "hit": false,
      "t": 110062.5,
      "d": 121.875,
      "v": 107
    },
    {
      "midi": 38,
      "hit": false,
      "t": 110250,
      "d": 78.125,
      "v": 107
    },
    {
      "midi": 38,
      "hit": false,
      "t": 110437.5,
      "d": 75,
      "v": 100
    },
    {
      "midi": 50,
      "hit": false,
      "t": 110450,
      "d": 200,
      "v": 59
    },
    {
      "midi": 38,
      "hit": false,
      "t": 110625,
      "d": 187.5,
      "v": 105
    },
    {
      "midi": 77,
      "hit": false,
      "t": 110625,
      "d": 143.75,
      "v": 74
    },
    {
      "midi": 81,
      "hit": false,
      "t": 110625,
      "d": 159.375,
      "v": 65
    },
    {
      "midi": 74,
      "hit": false,
      "t": 110625,
      "d": 159.375,
      "v": 74
    },
    {
      "midi": 72,
      "hit": false,
      "t": 110625,
      "d": 168.75,
      "v": 51
    },
    {
      "midi": 42,
      "hit": false,
      "t": 110812.5,
      "d": 71.875,
      "v": 89
    },
    {
      "midi": 43,
      "hit": false,
      "t": 111000,
      "d": 87.5,
      "v": 105
    },
    {
      "midi": 82,
      "hit": false,
      "t": 111000,
      "d": 878.125,
      "v": 43
    },
    {
      "midi": 79,
      "hit": false,
      "t": 111000,
      "d": 940.625,
      "v": 41
    },
    {
      "midi": 74,
      "hit": false,
      "t": 111000,
      "d": 1053.125,
      "v": 45
    },
    {
      "midi": 70,
      "hit": false,
      "t": 111000,
      "d": 1493.75,
      "v": 43
    },
    {
      "midi": 43,
      "hit": false,
      "t": 111187.5,
      "d": 68.75,
      "v": 100
    },
    {
      "midi": 43,
      "hit": false,
      "t": 111375,
      "d": 71.875,
      "v": 110
    },
    {
      "midi": 43,
      "hit": false,
      "t": 111562.5,
      "d": 159.375,
      "v": 116
    },
    {
      "midi": 43,
      "hit": false,
      "t": 111750,
      "d": 84.375,
      "v": 95
    },
    {
      "midi": 43,
      "hit": false,
      "t": 111937.5,
      "d": 71.875,
      "v": 95
    },
    {
      "midi": 82,
      "hit": false,
      "t": 111940.625,
      "d": 184.375,
      "v": 66
    },
    {
      "midi": 79,
      "hit": false,
      "t": 112053.125,
      "d": 146.875,
      "v": 64
    },
    {
      "midi": 43,
      "hit": false,
      "t": 112125,
      "d": 103.125,
      "v": 122
    },
    {
      "midi": 74,
      "hit": false,
      "t": 112125,
      "d": 159.375,
      "v": 57
    },
    {
      "midi": 82,
      "hit": false,
      "t": 112218.75,
      "d": 187.5,
      "v": 72
    },
    {
      "midi": 43,
      "hit": false,
      "t": 112312.5,
      "d": 43.75,
      "v": 110
    },
    {
      "midi": 79,
      "hit": false,
      "t": 112312.5,
      "d": 121.875,
      "v": 59
    },
    {
      "midi": 31,
      "hit": false,
      "t": 112406.25,
      "d": 53.125,
      "v": 85
    },
    {
      "midi": 74,
      "hit": false,
      "t": 112406.25,
      "d": 75,
      "v": 64
    },
    {
      "midi": 44,
      "hit": false,
      "t": 112500,
      "d": 87.5,
      "v": 116
    },
    {
      "midi": 44,
      "hit": false,
      "t": 112687.5,
      "d": 106.25,
      "v": 116
    },
    {
      "midi": 72,
      "hit": false,
      "t": 112687.5,
      "d": 1168.75,
      "v": 59
    },
    {
      "midi": 44,
      "hit": false,
      "t": 112875,
      "d": 100,
      "v": 107
    },
    {
      "midi": 75,
      "hit": false,
      "t": 112875,
      "d": 981.25,
      "v": 64
    },
    {
      "midi": 80,
      "hit": false,
      "t": 112968.75,
      "d": 887.5,
      "v": 29
    },
    {
      "midi": 44,
      "hit": false,
      "t": 113062.5,
      "d": 112.5,
      "v": 116
    },
    {
      "midi": 84,
      "hit": false,
      "t": 113062.5,
      "d": 793.75,
      "v": 70
    },
    {
      "midi": 44,
      "hit": false,
      "t": 113250,
      "d": 103.125,
      "v": 107
    },
    {
      "midi": 44,
      "hit": false,
      "t": 113437.5,
      "d": 96.875,
      "v": 105
    },
    {
      "midi": 32,
      "hit": false,
      "t": 113531.25,
      "d": 78.125,
      "v": 72
    },
    {
      "midi": 44,
      "hit": false,
      "t": 113625,
      "d": 87.5,
      "v": 127
    },
    {
      "midi": 32,
      "hit": false,
      "t": 113718.75,
      "d": 75,
      "v": 76
    },
    {
      "midi": 44,
      "hit": false,
      "t": 113812.5,
      "d": 81.25,
      "v": 110
    },
    {
      "midi": 44,
      "hit": false,
      "t": 113906.25,
      "d": 56.25,
      "v": 102
    },
    {
      "midi": 44,
      "hit": false,
      "t": 114000,
      "d": 96.875,
      "v": 102
    },
    {
      "midi": 80,
      "hit": false,
      "t": 114000,
      "d": 884.375,
      "v": 47
    },
    {
      "midi": 84,
      "hit": false,
      "t": 114000,
      "d": 893.75,
      "v": 39
    },
    {
      "midi": 75,
      "hit": false,
      "t": 114000,
      "d": 915.625,
      "v": 46
    },
    {
      "midi": 72,
      "hit": false,
      "t": 114000,
      "d": 950,
      "v": 42
    },
    {
      "midi": 44,
      "hit": false,
      "t": 114187.5,
      "d": 118.75,
      "v": 98
    },
    {
      "midi": 44,
      "hit": false,
      "t": 114375,
      "d": 106.25,
      "v": 119
    },
    {
      "midi": 44,
      "hit": false,
      "t": 114562.5,
      "d": 118.75,
      "v": 105
    },
    {
      "midi": 32,
      "hit": false,
      "t": 114656.25,
      "d": 50,
      "v": 93
    },
    {
      "midi": 44,
      "hit": false,
      "t": 114750,
      "d": 96.875,
      "v": 85
    },
    {
      "midi": 44,
      "hit": false,
      "t": 114937.5,
      "d": 65.625,
      "v": 107
    },
    {
      "midi": 44,
      "hit": false,
      "t": 114950,
      "d": 200,
      "v": 59
    },
    {
      "midi": 44,
      "hit": false,
      "t": 115125,
      "d": 156.25,
      "v": 113
    },
    {
      "midi": 80,
      "hit": false,
      "t": 115125,
      "d": 143.75,
      "v": 74
    },
    {
      "midi": 84,
      "hit": false,
      "t": 115125,
      "d": 159.375,
      "v": 65
    },
    {
      "midi": 75,
      "hit": false,
      "t": 115125,
      "d": 159.375,
      "v": 74
    },
    {
      "midi": 72,
      "hit": false,
      "t": 115125,
      "d": 168.75,
      "v": 51
    },
    {
      "midi": 37,
      "hit": false,
      "t": 115312.5,
      "d": 59.375,
      "v": 98
    },
    {
      "midi": 38,
      "hit": false,
      "t": 115500,
      "d": 78.125,
      "v": 107
    },
    {
      "midi": 79,
      "hit": false,
      "t": 115500,
      "d": 1387.5,
      "v": 60
    },
    {
      "midi": 69,
      "hit": false,
      "t": 115500,
      "d": 1387.5,
      "v": 47
    },
    {
      "midi": 74,
      "hit": false,
      "t": 115500,
      "d": 1393.75,
      "v": 58
    },
    {
      "midi": 81,
      "hit": false,
      "t": 115500,
      "d": 1403.125,
      "v": 57
    },
    {
      "midi": 38,
      "hit": false,
      "t": 115687.5,
      "d": 106.25,
      "v": 107
    },
    {
      "midi": 38,
      "hit": false,
      "t": 115875,
      "d": 96.875,
      "v": 119
    },
    {
      "midi": 38,
      "hit": false,
      "t": 116062.5,
      "d": 121.875,
      "v": 107
    },
    {
      "midi": 38,
      "hit": false,
      "t": 116250,
      "d": 78.125,
      "v": 107
    },
    {
      "midi": 38,
      "hit": false,
      "t": 116437.5,
      "d": 75,
      "v": 100
    },
    {
      "midi": 38,
      "hit": false,
      "t": 116625,
      "d": 187.5,
      "v": 105
    },
    {
      "midi": 37,
      "hit": false,
      "t": 116812.5,
      "d": 71.875,
      "v": 89
    },
    {
      "midi": 38,
      "hit": false,
      "t": 117000,
      "d": 87.5,
      "v": 105
    },
    {
      "midi": 81,
      "hit": false,
      "t": 117000,
      "d": 878.125,
      "v": 43
    },
    {
      "midi": 79,
      "hit": false,
      "t": 117000,
      "d": 940.625,
      "v": 41
    },
    {
      "midi": 74,
      "hit": false,
      "t": 117000,
      "d": 1053.125,
      "v": 45
    },
    {
      "midi": 69,
      "hit": false,
      "t": 117000,
      "d": 1493.75,
      "v": 43
    },
    {
      "midi": 38,
      "hit": false,
      "t": 117187.5,
      "d": 68.75,
      "v": 100
    },
    {
      "midi": 38,
      "hit": false,
      "t": 117375,
      "d": 71.875,
      "v": 110
    },
    {
      "midi": 38,
      "hit": false,
      "t": 117562.5,
      "d": 159.375,
      "v": 116
    },
    {
      "midi": 38,
      "hit": false,
      "t": 117750,
      "d": 84.375,
      "v": 95
    },
    {
      "midi": 38,
      "hit": false,
      "t": 117937.5,
      "d": 71.875,
      "v": 95
    },
    {
      "midi": 81,
      "hit": false,
      "t": 117940.625,
      "d": 184.375,
      "v": 66
    },
    {
      "midi": 79,
      "hit": false,
      "t": 118053.125,
      "d": 146.875,
      "v": 64
    },
    {
      "midi": 38,
      "hit": false,
      "t": 118125,
      "d": 103.125,
      "v": 122
    },
    {
      "midi": 74,
      "hit": false,
      "t": 118125,
      "d": 159.375,
      "v": 57
    },
    {
      "midi": 81,
      "hit": false,
      "t": 118218.75,
      "d": 187.5,
      "v": 72
    },
    {
      "midi": 38,
      "hit": false,
      "t": 118312.5,
      "d": 43.75,
      "v": 110
    },
    {
      "midi": 79,
      "hit": false,
      "t": 118312.5,
      "d": 121.875,
      "v": 59
    },
    {
      "midi": 26,
      "hit": false,
      "t": 118406.25,
      "d": 53.125,
      "v": 85
    },
    {
      "midi": 74,
      "hit": false,
      "t": 118406.25,
      "d": 75,
      "v": 64
    },
    {
      "midi": 38,
      "hit": false,
      "t": 118500,
      "d": 118.75,
      "v": 107
    },
    {
      "midi": 81,
      "hit": false,
      "t": 118500,
      "d": 675,
      "v": 48
    },
    {
      "midi": 79,
      "hit": false,
      "t": 118500,
      "d": 675,
      "v": 55
    },
    {
      "midi": 69,
      "hit": false,
      "t": 118500,
      "d": 693.75,
      "v": 61
    },
    {
      "midi": 26,
      "hit": false,
      "t": 118593.75,
      "d": 87.5,
      "v": 82
    },
    {
      "midi": 38,
      "hit": false,
      "t": 118687.5,
      "d": 100,
      "v": 89
    },
    {
      "midi": 38,
      "hit": false,
      "t": 118875,
      "d": 121.875,
      "v": 107
    },
    {
      "midi": 38,
      "hit": false,
      "t": 119062.5,
      "d": 134.375,
      "v": 113
    },
    {
      "midi": 38,
      "hit": false,
      "t": 119250,
      "d": 118.75,
      "v": 105
    },
    {
      "midi": 78,
      "hit": false,
      "t": 119250,
      "d": 750,
      "v": 61
    },
    {
      "midi": 69,
      "hit": false,
      "t": 119250,
      "d": 750,
      "v": 50
    },
    {
      "midi": 38,
      "hit": false,
      "t": 119437.5,
      "d": 150,
      "v": 107
    },
    {
      "midi": 38,
      "hit": false,
      "t": 119625,
      "d": 118.75,
      "v": 102
    },
    {
      "midi": 38,
      "hit": false,
      "t": 119812.5,
      "d": 53.125,
      "v": 116
    },
    {
      "midi": 26,
      "hit": false,
      "t": 119906.25,
      "d": 46.875,
      "v": 80
    },
    {
      "midi": 38,
      "hit": false,
      "t": 120000,
      "d": 87.5,
      "v": 116
    },
    {
      "midi": 38,
      "hit": false,
      "t": 120187.5,
      "d": 106.25,
      "v": 116
    },
    {
      "midi": 69,
      "hit": false,
      "t": 120187.5,
      "d": 1168.75,
      "v": 59
    },
    {
      "midi": 38,
      "hit": false,
      "t": 120375,
      "d": 100,
      "v": 107
    },
    {
      "midi": 74,
      "hit": false,
      "t": 120375,
      "d": 981.25,
      "v": 64
    },
    {
      "midi": 78,
      "hit": false,
      "t": 120468.75,
      "d": 887.5,
      "v": 29
    },
    {
      "midi": 38,
      "hit": false,
      "t": 120562.5,
      "d": 112.5,
      "v": 116
    },
    {
      "midi": 81,
      "hit": false,
      "t": 120562.5,
      "d": 793.75,
      "v": 70
    },
    {
      "midi": 38,
      "hit": false,
      "t": 120750,
      "d": 103.125,
      "v": 107
    },
    {
      "midi": 38,
      "hit": false,
      "t": 120937.5,
      "d": 96.875,
      "v": 105
    },
    {
      "midi": 26,
      "hit": false,
      "t": 121031.25,
      "d": 78.125,
      "v": 72
    },
    {
      "midi": 38,
      "hit": false,
      "t": 121125,
      "d": 87.5,
      "v": 127
    },
    {
      "midi": 26,
      "hit": false,
      "t": 121218.75,
      "d": 75,
      "v": 76
    },
    {
      "midi": 38,
      "hit": false,
      "t": 121312.5,
      "d": 81.25,
      "v": 110
    },
    {
      "midi": 38,
      "hit": false,
      "t": 121406.25,
      "d": 56.25,
      "v": 102
    },
    {
      "midi": 43,
      "hit": false,
      "t": 121500,
      "d": 118.75,
      "v": 105
    },
    {
      "midi": 82,
      "hit": false,
      "t": 121500,
      "d": 675,
      "v": 48
    },
    {
      "midi": 79,
      "hit": false,
      "t": 121500,
      "d": 675,
      "v": 55
    },
    {
      "midi": 70,
      "hit": false,
      "t": 121500,
      "d": 693.75,
      "v": 61
    },
    {
      "midi": 43,
      "hit": false,
      "t": 121687.5,
      "d": 150,
      "v": 107
    },
    {
      "midi": 43,
      "hit": false,
      "t": 121875,
      "d": 118.75,
      "v": 102
    },
    {
      "midi": 43,
      "hit": false,
      "t": 122062.5,
      "d": 53.125,
      "v": 116
    },
    {
      "midi": 31,
      "hit": false,
      "t": 122156.25,
      "d": 46.875,
      "v": 80
    },
    {
      "midi": 33,
      "hit": false,
      "t": 122250,
      "d": 118.75,
      "v": 107
    },
    {
      "midi": 21,
      "hit": false,
      "t": 122343.75,
      "d": 87.5,
      "v": 82
    },
    {
      "midi": 33,
      "hit": false,
      "t": 122437.5,
      "d": 100,
      "v": 89
    },
    {
      "midi": 72,
      "hit": false,
      "t": 122437.5,
      "d": 156.25,
      "v": 8
    },
    {
      "midi": 77,
      "hit": false,
      "t": 122437.5,
      "d": 159.375,
      "v": 29
    },
    {
      "midi": 33,
      "hit": false,
      "t": 122625,
      "d": 121.875,
      "v": 107
    },
    {
      "midi": 33,
      "hit": false,
      "t": 122812.5,
      "d": 134.375,
      "v": 113
    },
    {
      "midi": 34,
      "hit": false,
      "t": 123000,
      "d": 78.125,
      "v": 107
    },
    {
      "midi": 74,
      "hit": false,
      "t": 123000,
      "d": 1387.5,
      "v": 60
    },
    {
      "midi": 65,
      "hit": false,
      "t": 123000,
      "d": 1387.5,
      "v": 47
    },
    {
      "midi": 70,
      "hit": false,
      "t": 123000,
      "d": 1393.75,
      "v": 58
    },
    {
      "midi": 77,
      "hit": false,
      "t": 123000,
      "d": 1403.125,
      "v": 57
    },
    {
      "midi": 34,
      "hit": false,
      "t": 123187.5,
      "d": 106.25,
      "v": 107
    },
    {
      "midi": 34,
      "hit": false,
      "t": 123375,
      "d": 96.875,
      "v": 119
    },
    {
      "midi": 34,
      "hit": false,
      "t": 123562.5,
      "d": 121.875,
      "v": 107
    },
    {
      "midi": 34,
      "hit": false,
      "t": 123750,
      "d": 78.125,
      "v": 107
    },
    {
      "midi": 34,
      "hit": false,
      "t": 123937.5,
      "d": 75,
      "v": 100
    },
    {
      "midi": 34,
      "hit": false,
      "t": 124125,
      "d": 187.5,
      "v": 105
    },
    {
      "midi": 35,
      "hit": false,
      "t": 124312.5,
      "d": 71.875,
      "v": 89
    },
    {
      "midi": 36,
      "hit": false,
      "t": 124500,
      "d": 118.75,
      "v": 107
    },
    {
      "midi": 24,
      "hit": false,
      "t": 124593.75,
      "d": 87.5,
      "v": 82
    },
    {
      "midi": 36,
      "hit": false,
      "t": 124687.5,
      "d": 100,
      "v": 89
    },
    {
      "midi": 72,
      "hit": false,
      "t": 124687.5,
      "d": 156.25,
      "v": 8
    },
    {
      "midi": 76,
      "hit": false,
      "t": 124687.5,
      "d": 159.375,
      "v": 29
    },
    {
      "midi": 36,
      "hit": false,
      "t": 124875,
      "d": 121.875,
      "v": 107
    },
    {
      "midi": 36,
      "hit": false,
      "t": 125062.5,
      "d": 134.375,
      "v": 113
    },
    {
      "midi": 38,
      "hit": false,
      "t": 125250,
      "d": 118.75,
      "v": 105
    },
    {
      "midi": 77,
      "hit": false,
      "t": 125250,
      "d": 750,
      "v": 60
    },
    {
      "midi": 65,
      "hit": false,
      "t": 125250,
      "d": 750,
      "v": 56
    },
    {
      "midi": 74,
      "hit": false,
      "t": 125250,
      "d": 750,
      "v": 60
    },
    {
      "midi": 70,
      "hit": false,
      "t": 125250,
      "d": 750,
      "v": 45
    },
    {
      "midi": 38,
      "hit": false,
      "t": 125437.5,
      "d": 150,
      "v": 107
    },
    {
      "midi": 38,
      "hit": false,
      "t": 125625,
      "d": 118.75,
      "v": 102
    },
    {
      "midi": 38,
      "hit": false,
      "t": 125812.5,
      "d": 53.125,
      "v": 116
    },
    {
      "midi": 26,
      "hit": false,
      "t": 125906.25,
      "d": 46.875,
      "v": 80
    },
    {
      "midi": 39,
      "hit": false,
      "t": 126000,
      "d": 87.5,
      "v": 105
    },
    {
      "midi": 39,
      "hit": false,
      "t": 126187.5,
      "d": 68.75,
      "v": 100
    },
    {
      "midi": 67,
      "hit": false,
      "t": 126187.5,
      "d": 1168.75,
      "v": 59
    },
    {
      "midi": 39,
      "hit": false,
      "t": 126375,
      "d": 71.875,
      "v": 110
    },
    {
      "midi": 70,
      "hit": false,
      "t": 126375,
      "d": 981.25,
      "v": 64
    },
    {
      "midi": 75,
      "hit": false,
      "t": 126468.75,
      "d": 887.5,
      "v": 29
    },
    {
      "midi": 39,
      "hit": false,
      "t": 126562.5,
      "d": 159.375,
      "v": 116
    },
    {
      "midi": 79,
      "hit": false,
      "t": 126562.5,
      "d": 793.75,
      "v": 70
    },
    {
      "midi": 39,
      "hit": false,
      "t": 126750,
      "d": 84.375,
      "v": 95
    },
    {
      "midi": 39,
      "hit": false,
      "t": 126937.5,
      "d": 71.875,
      "v": 95
    },
    {
      "midi": 39,
      "hit": false,
      "t": 127125,
      "d": 103.125,
      "v": 122
    },
    {
      "midi": 39,
      "hit": false,
      "t": 127312.5,
      "d": 43.75,
      "v": 110
    },
    {
      "midi": 27,
      "hit": false,
      "t": 127406.25,
      "d": 53.125,
      "v": 85
    },
    {
      "midi": 43,
      "hit": false,
      "t": 127500,
      "d": 118.75,
      "v": 107
    },
    {
      "midi": 82,
      "hit": false,
      "t": 127500,
      "d": 675,
      "v": 48
    },
    {
      "midi": 79,
      "hit": false,
      "t": 127500,
      "d": 675,
      "v": 55
    },
    {
      "midi": 70,
      "hit": false,
      "t": 127500,
      "d": 693.75,
      "v": 61
    },
    {
      "midi": 31,
      "hit": false,
      "t": 127593.75,
      "d": 87.5,
      "v": 82
    },
    {
      "midi": 43,
      "hit": false,
      "t": 127687.5,
      "d": 100,
      "v": 89
    },
    {
      "midi": 43,
      "hit": false,
      "t": 127875,
      "d": 121.875,
      "v": 107
    },
    {
      "midi": 43,
      "hit": false,
      "t": 128062.5,
      "d": 134.375,
      "v": 113
    },
    {
      "midi": 33,
      "hit": false,
      "t": 128250,
      "d": 118.75,
      "v": 105
    },
    {
      "midi": 81,
      "hit": false,
      "t": 128250,
      "d": 675,
      "v": 48
    },
    {
      "midi": 77,
      "hit": false,
      "t": 128250,
      "d": 675,
      "v": 55
    },
    {
      "midi": 69,
      "hit": false,
      "t": 128250,
      "d": 693.75,
      "v": 61
    },
    {
      "midi": 33,
      "hit": false,
      "t": 128437.5,
      "d": 150,
      "v": 107
    },
    {
      "midi": 33,
      "hit": false,
      "t": 128625,
      "d": 118.75,
      "v": 102
    },
    {
      "midi": 33,
      "hit": false,
      "t": 128812.5,
      "d": 53.125,
      "v": 116
    },
    {
      "midi": 21,
      "hit": false,
      "t": 128906.25,
      "d": 46.875,
      "v": 80
    },
    {
      "midi": 34,
      "hit": false,
      "t": 129000,
      "d": 109.375,
      "v": 102
    },
    {
      "midi": 34,
      "hit": false,
      "t": 129187.5,
      "d": 134.375,
      "v": 119
    },
    {
      "midi": 65,
      "hit": false,
      "t": 129187.5,
      "d": 1168.75,
      "v": 59
    },
    {
      "midi": 34,
      "hit": false,
      "t": 129375,
      "d": 112.5,
      "v": 113
    },
    {
      "midi": 70,
      "hit": false,
      "t": 129375,
      "d": 981.25,
      "v": 64
    },
    {
      "midi": 74,
      "hit": false,
      "t": 129468.75,
      "d": 887.5,
      "v": 29
    },
    {
      "midi": 34,
      "hit": false,
      "t": 129562.5,
      "d": 150,
      "v": 113
    },
    {
      "midi": 77,
      "hit": false,
      "t": 129562.5,
      "d": 793.75,
      "v": 70
    },
    {
      "midi": 34,
      "hit": false,
      "t": 129750,
      "d": 106.25,
      "v": 91
    },
    {
      "midi": 34,
      "hit": false,
      "t": 129937.5,
      "d": 137.5,
      "v": 105
    },
    {
      "midi": 34,
      "hit": false,
      "t": 130125,
      "d": 106.25,
      "v": 105
    },
    {
      "midi": 34,
      "hit": false,
      "t": 130312.5,
      "d": 128.125,
      "v": 113
    },
    {
      "midi": 36,
      "hit": false,
      "t": 130500,
      "d": 118.75,
      "v": 105
    },
    {
      "midi": 79,
      "hit": false,
      "t": 130500,
      "d": 675,
      "v": 48
    },
    {
      "midi": 76,
      "hit": false,
      "t": 130500,
      "d": 675,
      "v": 55
    },
    {
      "midi": 67,
      "hit": false,
      "t": 130500,
      "d": 693.75,
      "v": 61
    },
    {
      "midi": 36,
      "hit": false,
      "t": 130687.5,
      "d": 150,
      "v": 107
    },
    {
      "midi": 36,
      "hit": false,
      "t": 130875,
      "d": 118.75,
      "v": 102
    },
    {
      "midi": 36,
      "hit": false,
      "t": 131062.5,
      "d": 53.125,
      "v": 116
    },
    {
      "midi": 24,
      "hit": false,
      "t": 131156.25,
      "d": 46.875,
      "v": 80
    },
    {
      "midi": 38,
      "hit": false,
      "t": 131250,
      "d": 118.75,
      "v": 105
    },
    {
      "midi": 77,
      "hit": false,
      "t": 131250,
      "d": 675,
      "v": 48
    },
    {
      "midi": 74,
      "hit": false,
      "t": 131250,
      "d": 675,
      "v": 55
    },
    {
      "midi": 65,
      "hit": false,
      "t": 131250,
      "d": 693.75,
      "v": 61
    },
    {
      "midi": 38,
      "hit": false,
      "t": 131437.5,
      "d": 150,
      "v": 107
    },
    {
      "midi": 38,
      "hit": false,
      "t": 131625,
      "d": 118.75,
      "v": 102
    },
    {
      "midi": 38,
      "hit": false,
      "t": 131812.5,
      "d": 53.125,
      "v": 116
    },
    {
      "midi": 26,
      "hit": false,
      "t": 131906.25,
      "d": 46.875,
      "v": 80
    },
    {
      "midi": 39,
      "hit": false,
      "t": 132000,
      "d": 109.375,
      "v": 102
    },
    {
      "midi": 79,
      "hit": false,
      "t": 132000,
      "d": 140.625,
      "v": 57
    },
    {
      "midi": 75,
      "hit": false,
      "t": 132000,
      "d": 150,
      "v": 53
    },
    {
      "midi": 70,
      "hit": false,
      "t": 132000,
      "d": 150,
      "v": 35
    },
    {
      "midi": 82,
      "hit": false,
      "t": 132000,
      "d": 165.625,
      "v": 55
    },
    {
      "midi": 39,
      "hit": false,
      "t": 132187.5,
      "d": 134.375,
      "v": 119
    },
    {
      "midi": 39,
      "hit": false,
      "t": 132375,
      "d": 112.5,
      "v": 113
    },
    {
      "midi": 39,
      "hit": false,
      "t": 132562.5,
      "d": 150,
      "v": 113
    },
    {
      "midi": 79,
      "hit": false,
      "t": 132562.5,
      "d": 746.875,
      "v": 62
    },
    {
      "midi": 75,
      "hit": false,
      "t": 132562.5,
      "d": 746.875,
      "v": 62
    },
    {
      "midi": 82,
      "hit": false,
      "t": 132562.5,
      "d": 750,
      "v": 60
    },
    {
      "midi": 70,
      "hit": false,
      "t": 132562.5,
      "d": 756.25,
      "v": 60
    },
    {
      "midi": 39,
      "hit": false,
      "t": 132750,
      "d": 106.25,
      "v": 91
    },
    {
      "midi": 39,
      "hit": false,
      "t": 132937.5,
      "d": 137.5,
      "v": 105
    },
    {
      "midi": 39,
      "hit": false,
      "t": 133125,
      "d": 106.25,
      "v": 105
    },
    {
      "midi": 39,
      "hit": false,
      "t": 133312.5,
      "d": 128.125,
      "v": 113
    },
    {
      "midi": 43,
      "hit": false,
      "t": 133500,
      "d": 118.75,
      "v": 107
    },
    {
      "midi": 82,
      "hit": false,
      "t": 133500,
      "d": 750,
      "v": 60
    },
    {
      "midi": 70,
      "hit": false,
      "t": 133500,
      "d": 750,
      "v": 56
    },
    {
      "midi": 79,
      "hit": false,
      "t": 133500,
      "d": 750,
      "v": 60
    },
    {
      "midi": 74,
      "hit": false,
      "t": 133500,
      "d": 750,
      "v": 45
    },
    {
      "midi": 31,
      "hit": false,
      "t": 133593.75,
      "d": 87.5,
      "v": 82
    },
    {
      "midi": 43,
      "hit": false,
      "t": 133687.5,
      "d": 100,
      "v": 89
    },
    {
      "midi": 43,
      "hit": false,
      "t": 133875,
      "d": 121.875,
      "v": 107
    },
    {
      "midi": 43,
      "hit": false,
      "t": 134062.5,
      "d": 134.375,
      "v": 113
    },
    {
      "midi": 33,
      "hit": false,
      "t": 134250,
      "d": 118.75,
      "v": 107
    },
    {
      "midi": 81,
      "hit": false,
      "t": 134250,
      "d": 675,
      "v": 48
    },
    {
      "midi": 77,
      "hit": false,
      "t": 134250,
      "d": 675,
      "v": 55
    },
    {
      "midi": 69,
      "hit": false,
      "t": 134250,
      "d": 693.75,
      "v": 61
    },
    {
      "midi": 21,
      "hit": false,
      "t": 134343.75,
      "d": 87.5,
      "v": 82
    },
    {
      "midi": 33,
      "hit": false,
      "t": 134437.5,
      "d": 100,
      "v": 89
    },
    {
      "midi": 33,
      "hit": false,
      "t": 134625,
      "d": 121.875,
      "v": 107
    },
    {
      "midi": 33,
      "hit": false,
      "t": 134812.5,
      "d": 134.375,
      "v": 113
    },
    {
      "midi": 34,
      "hit": false,
      "t": 135000,
      "d": 96.875,
      "v": 102
    },
    {
      "midi": 77,
      "hit": false,
      "t": 135000,
      "d": 140.625,
      "v": 57
    },
    {
      "midi": 74,
      "hit": false,
      "t": 135000,
      "d": 150,
      "v": 53
    },
    {
      "midi": 70,
      "hit": false,
      "t": 135000,
      "d": 150,
      "v": 35
    },
    {
      "midi": 82,
      "hit": false,
      "t": 135000,
      "d": 165.625,
      "v": 55
    },
    {
      "midi": 34,
      "hit": false,
      "t": 135187.5,
      "d": 118.75,
      "v": 98
    },
    {
      "midi": 34,
      "hit": false,
      "t": 135375,
      "d": 106.25,
      "v": 119
    },
    {
      "midi": 34,
      "hit": false,
      "t": 135562.5,
      "d": 118.75,
      "v": 105
    },
    {
      "midi": 77,
      "hit": false,
      "t": 135562.5,
      "d": 746.875,
      "v": 62
    },
    {
      "midi": 74,
      "hit": false,
      "t": 135562.5,
      "d": 746.875,
      "v": 62
    },
    {
      "midi": 82,
      "hit": false,
      "t": 135562.5,
      "d": 750,
      "v": 60
    },
    {
      "midi": 70,
      "hit": false,
      "t": 135562.5,
      "d": 756.25,
      "v": 60
    },
    {
      "midi": 22,
      "hit": false,
      "t": 135656.25,
      "d": 50,
      "v": 93
    },
    {
      "midi": 34,
      "hit": false,
      "t": 135750,
      "d": 96.875,
      "v": 85
    },
    {
      "midi": 34,
      "hit": false,
      "t": 135937.5,
      "d": 65.625,
      "v": 107
    },
    {
      "midi": 34,
      "hit": false,
      "t": 136125,
      "d": 156.25,
      "v": 113
    },
    {
      "midi": 35,
      "hit": false,
      "t": 136312.5,
      "d": 59.375,
      "v": 98
    },
    {
      "midi": 36,
      "hit": false,
      "t": 136500,
      "d": 65.625,
      "v": 105
    },
    {
      "midi": 36,
      "hit": false,
      "t": 136687.5,
      "d": 153.125,
      "v": 116
    },
    {
      "midi": 72,
      "hit": false,
      "t": 136687.5,
      "d": 156.25,
      "v": 8
    },
    {
      "midi": 76,
      "hit": false,
      "t": 136687.5,
      "d": 159.375,
      "v": 29
    },
    {
      "midi": 36,
      "hit": false,
      "t": 136875,
      "d": 96.875,
      "v": 110
    },
    {
      "midi": 33,
      "hit": false,
      "t": 137062.5,
      "d": 78.125,
      "v": 110
    },
    {
      "midi": 38,
      "hit": false,
      "t": 137250,
      "d": 118.75,
      "v": 105
    },
    {
      "midi": 38,
      "hit": false,
      "t": 137437.5,
      "d": 150,
      "v": 107
    },
    {
      "midi": 70,
      "hit": false,
      "t": 137437.5,
      "d": 156.25,
      "v": 8
    },
    {
      "midi": 74,
      "hit": false,
      "t": 137437.5,
      "d": 159.375,
      "v": 29
    },
    {
      "midi": 38,
      "hit": false,
      "t": 137625,
      "d": 118.75,
      "v": 102
    },
    {
      "midi": 38,
      "hit": false,
      "t": 137812.5,
      "d": 53.125,
      "v": 116
    },
    {
      "midi": 26,
      "hit": false,
      "t": 137906.25,
      "d": 46.875,
      "v": 80
    },
    {
      "midi": 39,
      "hit": false,
      "t": 138000,
      "d": 87.5,
      "v": 105
    },
    {
      "midi": 75,
      "hit": false,
      "t": 138000,
      "d": 1387.5,
      "v": 60
    },
    {
      "midi": 67,
      "hit": false,
      "t": 138000,
      "d": 1387.5,
      "v": 47
    },
    {
      "midi": 70,
      "hit": false,
      "t": 138000,
      "d": 1393.75,
      "v": 58
    },
    {
      "midi": 79,
      "hit": false,
      "t": 138000,
      "d": 1403.125,
      "v": 57
    },
    {
      "midi": 39,
      "hit": false,
      "t": 138187.5,
      "d": 68.75,
      "v": 100
    },
    {
      "midi": 39,
      "hit": false,
      "t": 138375,
      "d": 71.875,
      "v": 110
    },
    {
      "midi": 39,
      "hit": false,
      "t": 138562.5,
      "d": 159.375,
      "v": 116
    },
    {
      "midi": 39,
      "hit": false,
      "t": 138750,
      "d": 84.375,
      "v": 95
    },
    {
      "midi": 39,
      "hit": false,
      "t": 138937.5,
      "d": 71.875,
      "v": 95
    },
    {
      "midi": 39,
      "hit": false,
      "t": 139125,
      "d": 103.125,
      "v": 122
    },
    {
      "midi": 39,
      "hit": false,
      "t": 139312.5,
      "d": 43.75,
      "v": 110
    },
    {
      "midi": 27,
      "hit": false,
      "t": 139406.25,
      "d": 53.125,
      "v": 85
    },
    {
      "midi": 43,
      "hit": false,
      "t": 139500,
      "d": 65.625,
      "v": 105
    },
    {
      "midi": 43,
      "hit": false,
      "t": 139687.5,
      "d": 153.125,
      "v": 116
    },
    {
      "midi": 74,
      "hit": false,
      "t": 139687.5,
      "d": 156.25,
      "v": 8
    },
    {
      "midi": 79,
      "hit": false,
      "t": 139687.5,
      "d": 159.375,
      "v": 29
    },
    {
      "midi": 43,
      "hit": false,
      "t": 139875,
      "d": 96.875,
      "v": 110
    },
    {
      "midi": 40,
      "hit": false,
      "t": 140062.5,
      "d": 78.125,
      "v": 110
    },
    {
      "midi": 33,
      "hit": false,
      "t": 140250,
      "d": 118.75,
      "v": 107
    },
    {
      "midi": 81,
      "hit": false,
      "t": 140250,
      "d": 750,
      "v": 60
    },
    {
      "midi": 69,
      "hit": false,
      "t": 140250,
      "d": 750,
      "v": 56
    },
    {
      "midi": 77,
      "hit": false,
      "t": 140250,
      "d": 750,
      "v": 60
    },
    {
      "midi": 72,
      "hit": false,
      "t": 140250,
      "d": 750,
      "v": 45
    },
    {
      "midi": 21,
      "hit": false,
      "t": 140343.75,
      "d": 87.5,
      "v": 82
    },
    {
      "midi": 33,
      "hit": false,
      "t": 140437.5,
      "d": 100,
      "v": 89
    },
    {
      "midi": 33,
      "hit": false,
      "t": 140625,
      "d": 121.875,
      "v": 107
    },
    {
      "midi": 33,
      "hit": false,
      "t": 140812.5,
      "d": 134.375,
      "v": 113
    },
    {
      "midi": 34,
      "hit": false,
      "t": 141000,
      "d": 87.5,
      "v": 116
    },
    {
      "midi": 77,
      "hit": false,
      "t": 141000,
      "d": 878.125,
      "v": 43
    },
    {
      "midi": 74,
      "hit": false,
      "t": 141000,
      "d": 940.625,
      "v": 41
    },
    {
      "midi": 70,
      "hit": false,
      "t": 141000,
      "d": 1053.125,
      "v": 45
    },
    {
      "midi": 65,
      "hit": false,
      "t": 141000,
      "d": 1493.75,
      "v": 43
    },
    {
      "midi": 34,
      "hit": false,
      "t": 141187.5,
      "d": 106.25,
      "v": 116
    },
    {
      "midi": 34,
      "hit": false,
      "t": 141375,
      "d": 100,
      "v": 107
    },
    {
      "midi": 34,
      "hit": false,
      "t": 141562.5,
      "d": 112.5,
      "v": 116
    },
    {
      "midi": 34,
      "hit": false,
      "t": 141750,
      "d": 103.125,
      "v": 107
    },
    {
      "midi": 34,
      "hit": false,
      "t": 141937.5,
      "d": 96.875,
      "v": 105
    },
    {
      "midi": 77,
      "hit": false,
      "t": 141940.625,
      "d": 184.375,
      "v": 66
    },
    {
      "midi": 22,
      "hit": false,
      "t": 142031.25,
      "d": 78.125,
      "v": 72
    },
    {
      "midi": 74,
      "hit": false,
      "t": 142053.125,
      "d": 146.875,
      "v": 64
    },
    {
      "midi": 34,
      "hit": false,
      "t": 142125,
      "d": 87.5,
      "v": 127
    },
    {
      "midi": 70,
      "hit": false,
      "t": 142125,
      "d": 159.375,
      "v": 57
    },
    {
      "midi": 22,
      "hit": false,
      "t": 142218.75,
      "d": 75,
      "v": 76
    },
    {
      "midi": 77,
      "hit": false,
      "t": 142218.75,
      "d": 187.5,
      "v": 72
    },
    {
      "midi": 34,
      "hit": false,
      "t": 142312.5,
      "d": 81.25,
      "v": 110
    },
    {
      "midi": 74,
      "hit": false,
      "t": 142312.5,
      "d": 121.875,
      "v": 59
    },
    {
      "midi": 34,
      "hit": false,
      "t": 142406.25,
      "d": 56.25,
      "v": 102
    },
    {
      "midi": 70,
      "hit": false,
      "t": 142406.25,
      "d": 75,
      "v": 64
    },
    {
      "midi": 36,
      "hit": false,
      "t": 142500,
      "d": 65.625,
      "v": 105
    },
    {
      "midi": 76,
      "hit": false,
      "t": 142500,
      "d": 750,
      "v": 61
    },
    {
      "midi": 67,
      "hit": false,
      "t": 142500,
      "d": 750,
      "v": 50
    },
    {
      "midi": 36,
      "hit": false,
      "t": 142687.5,
      "d": 153.125,
      "v": 116
    },
    {
      "midi": 36,
      "hit": false,
      "t": 142875,
      "d": 96.875,
      "v": 110
    },
    {
      "midi": 33,
      "hit": false,
      "t": 143062.5,
      "d": 78.125,
      "v": 110
    },
    {
      "midi": 38,
      "hit": false,
      "t": 143250,
      "d": 118.75,
      "v": 105
    },
    {
      "midi": 77,
      "hit": false,
      "t": 143250,
      "d": 750,
      "v": 60
    },
    {
      "midi": 65,
      "hit": false,
      "t": 143250,
      "d": 750,
      "v": 56
    },
    {
      "midi": 74,
      "hit": false,
      "t": 143250,
      "d": 750,
      "v": 60
    },
    {
      "midi": 70,
      "hit": false,
      "t": 143250,
      "d": 750,
      "v": 45
    },
    {
      "midi": 38,
      "hit": false,
      "t": 143437.5,
      "d": 150,
      "v": 107
    },
    {
      "midi": 38,
      "hit": false,
      "t": 143625,
      "d": 118.75,
      "v": 102
    },
    {
      "midi": 38,
      "hit": false,
      "t": 143812.5,
      "d": 53.125,
      "v": 116
    },
    {
      "midi": 26,
      "hit": false,
      "t": 143906.25,
      "d": 46.875,
      "v": 80
    },
    {
      "midi": 39,
      "hit": false,
      "t": 144000,
      "d": 87.5,
      "v": 105
    },
    {
      "midi": 39,
      "hit": false,
      "t": 144187.5,
      "d": 68.75,
      "v": 100
    },
    {
      "midi": 67,
      "hit": false,
      "t": 144187.5,
      "d": 1168.75,
      "v": 59
    },
    {
      "midi": 39,
      "hit": false,
      "t": 144375,
      "d": 71.875,
      "v": 110
    },
    {
      "midi": 70,
      "hit": false,
      "t": 144375,
      "d": 981.25,
      "v": 64
    },
    {
      "midi": 75,
      "hit": false,
      "t": 144468.75,
      "d": 887.5,
      "v": 29
    },
    {
      "midi": 39,
      "hit": false,
      "t": 144562.5,
      "d": 159.375,
      "v": 116
    },
    {
      "midi": 79,
      "hit": false,
      "t": 144562.5,
      "d": 793.75,
      "v": 70
    },
    {
      "midi": 39,
      "hit": false,
      "t": 144750,
      "d": 84.375,
      "v": 95
    },
    {
      "midi": 39,
      "hit": false,
      "t": 144937.5,
      "d": 71.875,
      "v": 95
    },
    {
      "midi": 39,
      "hit": false,
      "t": 145125,
      "d": 103.125,
      "v": 122
    },
    {
      "midi": 39,
      "hit": false,
      "t": 145312.5,
      "d": 43.75,
      "v": 110
    },
    {
      "midi": 27,
      "hit": false,
      "t": 145406.25,
      "d": 53.125,
      "v": 85
    },
    {
      "midi": 43,
      "hit": false,
      "t": 145500,
      "d": 96.875,
      "v": 102
    },
    {
      "midi": 79,
      "hit": false,
      "t": 145500,
      "d": 1387.5,
      "v": 60
    },
    {
      "midi": 70,
      "hit": false,
      "t": 145500,
      "d": 1387.5,
      "v": 47
    },
    {
      "midi": 74,
      "hit": false,
      "t": 145500,
      "d": 1393.75,
      "v": 58
    },
    {
      "midi": 82,
      "hit": false,
      "t": 145500,
      "d": 1403.125,
      "v": 57
    },
    {
      "midi": 43,
      "hit": false,
      "t": 145687.5,
      "d": 118.75,
      "v": 98
    },
    {
      "midi": 43,
      "hit": false,
      "t": 145875,
      "d": 106.25,
      "v": 119
    },
    {
      "midi": 43,
      "hit": false,
      "t": 146062.5,
      "d": 118.75,
      "v": 105
    },
    {
      "midi": 31,
      "hit": false,
      "t": 146156.25,
      "d": 50,
      "v": 93
    },
    {
      "midi": 43,
      "hit": false,
      "t": 146250,
      "d": 96.875,
      "v": 85
    },
    {
      "midi": 43,
      "hit": false,
      "t": 146437.5,
      "d": 65.625,
      "v": 107
    },
    {
      "midi": 43,
      "hit": false,
      "t": 146625,
      "d": 156.25,
      "v": 113
    },
    {
      "midi": 42,
      "hit": false,
      "t": 146812.5,
      "d": 59.375,
      "v": 98
    },
    {
      "midi": 43,
      "hit": false,
      "t": 147000,
      "d": 87.5,
      "v": 116
    },
    {
      "midi": 79,
      "hit": false,
      "t": 147000,
      "d": 1387.5,
      "v": 60
    },
    {
      "midi": 70,
      "hit": false,
      "t": 147000,
      "d": 1387.5,
      "v": 47
    },
    {
      "midi": 74,
      "hit": false,
      "t": 147000,
      "d": 1393.75,
      "v": 58
    },
    {
      "midi": 82,
      "hit": false,
      "t": 147000,
      "d": 1403.125,
      "v": 57
    },
    {
      "midi": 43,
      "hit": false,
      "t": 147187.5,
      "d": 106.25,
      "v": 116
    },
    {
      "midi": 43,
      "hit": false,
      "t": 147375,
      "d": 100,
      "v": 107
    },
    {
      "midi": 43,
      "hit": false,
      "t": 147562.5,
      "d": 112.5,
      "v": 116
    },
    {
      "midi": 43,
      "hit": false,
      "t": 147750,
      "d": 103.125,
      "v": 107
    },
    {
      "midi": 43,
      "hit": false,
      "t": 147937.5,
      "d": 96.875,
      "v": 105
    },
    {
      "midi": 31,
      "hit": false,
      "t": 148031.25,
      "d": 78.125,
      "v": 72
    },
    {
      "midi": 43,
      "hit": false,
      "t": 148125,
      "d": 87.5,
      "v": 127
    },
    {
      "midi": 31,
      "hit": false,
      "t": 148218.75,
      "d": 75,
      "v": 76
    },
    {
      "midi": 43,
      "hit": false,
      "t": 148312.5,
      "d": 81.25,
      "v": 110
    },
    {
      "midi": 43,
      "hit": false,
      "t": 148406.25,
      "d": 56.25,
      "v": 102
    },
    {
      "midi": 43,
      "hit": false,
      "t": 148500,
      "d": 109.375,
      "v": 102
    },
    {
      "midi": 79,
      "hit": false,
      "t": 148500,
      "d": 1387.5,
      "v": 60
    },
    {
      "midi": 70,
      "hit": false,
      "t": 148500,
      "d": 1387.5,
      "v": 47
    },
    {
      "midi": 74,
      "hit": false,
      "t": 148500,
      "d": 1393.75,
      "v": 58
    },
    {
      "midi": 82,
      "hit": false,
      "t": 148500,
      "d": 1403.125,
      "v": 57
    },
    {
      "midi": 43,
      "hit": false,
      "t": 148687.5,
      "d": 134.375,
      "v": 119
    },
    {
      "midi": 43,
      "hit": false,
      "t": 148875,
      "d": 112.5,
      "v": 113
    },
    {
      "midi": 43,
      "hit": false,
      "t": 149062.5,
      "d": 150,
      "v": 113
    },
    {
      "midi": 43,
      "hit": false,
      "t": 149250,
      "d": 106.25,
      "v": 91
    },
    {
      "midi": 43,
      "hit": false,
      "t": 149437.5,
      "d": 137.5,
      "v": 105
    },
    {
      "midi": 43,
      "hit": false,
      "t": 149625,
      "d": 106.25,
      "v": 105
    },
    {
      "midi": 43,
      "hit": false,
      "t": 149812.5,
      "d": 128.125,
      "v": 113
    },
    {
      "midi": 43,
      "hit": false,
      "t": 150000,
      "d": 87.5,
      "v": 105
    },
    {
      "midi": 43,
      "hit": false,
      "t": 150187.5,
      "d": 68.75,
      "v": 100
    },
    {
      "midi": 67,
      "hit": false,
      "t": 150187.5,
      "d": 1168.75,
      "v": 59
    },
    {
      "midi": 43,
      "hit": false,
      "t": 150375,
      "d": 71.875,
      "v": 110
    },
    {
      "midi": 72,
      "hit": false,
      "t": 150375,
      "d": 981.25,
      "v": 64
    },
    {
      "midi": 76,
      "hit": false,
      "t": 150468.75,
      "d": 887.5,
      "v": 29
    },
    {
      "midi": 43,
      "hit": false,
      "t": 150562.5,
      "d": 159.375,
      "v": 116
    },
    {
      "midi": 79,
      "hit": false,
      "t": 150562.5,
      "d": 793.75,
      "v": 70
    },
    {
      "midi": 43,
      "hit": false,
      "t": 150750,
      "d": 84.375,
      "v": 95
    },
    {
      "midi": 43,
      "hit": false,
      "t": 150937.5,
      "d": 71.875,
      "v": 95
    },
    {
      "midi": 43,
      "hit": false,
      "t": 151125,
      "d": 103.125,
      "v": 122
    },
    {
      "midi": 43,
      "hit": false,
      "t": 151312.5,
      "d": 43.75,
      "v": 110
    },
    {
      "midi": 31,
      "hit": false,
      "t": 151406.25,
      "d": 53.125,
      "v": 85
    },
    {
      "midi": 43,
      "hit": false,
      "t": 151500,
      "d": 87.5,
      "v": 105
    },
    {
      "midi": 79,
      "hit": false,
      "t": 151500,
      "d": 878.125,
      "v": 43
    },
    {
      "midi": 76,
      "hit": false,
      "t": 151500,
      "d": 940.625,
      "v": 41
    },
    {
      "midi": 72,
      "hit": false,
      "t": 151500,
      "d": 1053.125,
      "v": 45
    },
    {
      "midi": 67,
      "hit": false,
      "t": 151500,
      "d": 1493.75,
      "v": 43
    },
    {
      "midi": 43,
      "hit": false,
      "t": 151687.5,
      "d": 68.75,
      "v": 100
    },
    {
      "midi": 43,
      "hit": false,
      "t": 151875,
      "d": 71.875,
      "v": 110
    },
    {
      "midi": 43,
      "hit": false,
      "t": 152062.5,
      "d": 159.375,
      "v": 116
    },
    {
      "midi": 43,
      "hit": false,
      "t": 152250,
      "d": 84.375,
      "v": 95
    },
    {
      "midi": 43,
      "hit": false,
      "t": 152437.5,
      "d": 71.875,
      "v": 95
    },
    {
      "midi": 79,
      "hit": false,
      "t": 152440.625,
      "d": 184.375,
      "v": 66
    },
    {
      "midi": 76,
      "hit": false,
      "t": 152553.125,
      "d": 146.875,
      "v": 64
    },
    {
      "midi": 43,
      "hit": false,
      "t": 152625,
      "d": 103.125,
      "v": 122
    },
    {
      "midi": 72,
      "hit": false,
      "t": 152625,
      "d": 159.375,
      "v": 57
    },
    {
      "midi": 79,
      "hit": false,
      "t": 152718.75,
      "d": 187.5,
      "v": 72
    },
    {
      "midi": 43,
      "hit": false,
      "t": 152812.5,
      "d": 43.75,
      "v": 110
    },
    {
      "midi": 76,
      "hit": false,
      "t": 152812.5,
      "d": 121.875,
      "v": 59
    },
    {
      "midi": 31,
      "hit": false,
      "t": 152906.25,
      "d": 53.125,
      "v": 85
    },
    {
      "midi": 72,
      "hit": false,
      "t": 152906.25,
      "d": 75,
      "v": 64
    },
    {
      "midi": 43,
      "hit": false,
      "t": 153000,
      "d": 78.125,
      "v": 107
    },
    {
      "midi": 79,
      "hit": false,
      "t": 153000,
      "d": 884.375,
      "v": 47
    },
    {
      "midi": 82,
      "hit": false,
      "t": 153000,
      "d": 893.75,
      "v": 39
    },
    {
      "midi": 74,
      "hit": false,
      "t": 153000,
      "d": 915.625,
      "v": 46
    },
    {
      "midi": 70,
      "hit": false,
      "t": 153000,
      "d": 950,
      "v": 42
    },
    {
      "midi": 43,
      "hit": false,
      "t": 153187.5,
      "d": 106.25,
      "v": 107
    },
    {
      "midi": 43,
      "hit": false,
      "t": 153375,
      "d": 96.875,
      "v": 119
    },
    {
      "midi": 43,
      "hit": false,
      "t": 153562.5,
      "d": 121.875,
      "v": 107
    },
    {
      "midi": 43,
      "hit": false,
      "t": 153750,
      "d": 78.125,
      "v": 107
    },
    {
      "midi": 43,
      "hit": false,
      "t": 153937.5,
      "d": 75,
      "v": 100
    },
    {
      "midi": 43,
      "hit": false,
      "t": 153950,
      "d": 200,
      "v": 59
    },
    {
      "midi": 43,
      "hit": false,
      "t": 154125,
      "d": 187.5,
      "v": 105
    },
    {
      "midi": 79,
      "hit": false,
      "t": 154125,
      "d": 143.75,
      "v": 74
    },
    {
      "midi": 82,
      "hit": false,
      "t": 154125,
      "d": 159.375,
      "v": 65
    },
    {
      "midi": 74,
      "hit": false,
      "t": 154125,
      "d": 159.375,
      "v": 74
    },
    {
      "midi": 70,
      "hit": false,
      "t": 154125,
      "d": 168.75,
      "v": 51
    },
    {
      "midi": 42,
      "hit": false,
      "t": 154312.5,
      "d": 71.875,
      "v": 89
    },
    {
      "midi": 43,
      "hit": false,
      "t": 154500,
      "d": 96.875,
      "v": 102
    },
    {
      "midi": 43,
      "hit": false,
      "t": 154687.5,
      "d": 118.75,
      "v": 98
    },
    {
      "midi": 70,
      "hit": false,
      "t": 154687.5,
      "d": 1168.75,
      "v": 59
    },
    {
      "midi": 43,
      "hit": false,
      "t": 154875,
      "d": 106.25,
      "v": 119
    },
    {
      "midi": 74,
      "hit": false,
      "t": 154875,
      "d": 981.25,
      "v": 64
    },
    {
      "midi": 79,
      "hit": false,
      "t": 154968.75,
      "d": 887.5,
      "v": 29
    },
    {
      "midi": 43,
      "hit": false,
      "t": 155062.5,
      "d": 118.75,
      "v": 105
    },
    {
      "midi": 82,
      "hit": false,
      "t": 155062.5,
      "d": 793.75,
      "v": 70
    },
    {
      "midi": 31,
      "hit": false,
      "t": 155156.25,
      "d": 50,
      "v": 93
    },
    {
      "midi": 43,
      "hit": false,
      "t": 155250,
      "d": 96.875,
      "v": 85
    },
    {
      "midi": 43,
      "hit": false,
      "t": 155437.5,
      "d": 65.625,
      "v": 107
    },
    {
      "midi": 43,
      "hit": false,
      "t": 155625,
      "d": 156.25,
      "v": 113
    },
    {
      "midi": 35,
      "hit": false,
      "t": 155812.5,
      "d": 59.375,
      "v": 98
    },
    {
      "midi": 43,
      "hit": false,
      "t": 156000,
      "d": 87.5,
      "v": 116
    },
    {
      "midi": 79,
      "hit": false,
      "t": 156000,
      "d": 878.125,
      "v": 43
    },
    {
      "midi": 76,
      "hit": false,
      "t": 156000,
      "d": 940.625,
      "v": 41
    },
    {
      "midi": 72,
      "hit": false,
      "t": 156000,
      "d": 1053.125,
      "v": 45
    },
    {
      "midi": 67,
      "hit": false,
      "t": 156000,
      "d": 1493.75,
      "v": 43
    },
    {
      "midi": 43,
      "hit": false,
      "t": 156187.5,
      "d": 106.25,
      "v": 116
    },
    {
      "midi": 43,
      "hit": false,
      "t": 156375,
      "d": 100,
      "v": 107
    },
    {
      "midi": 43,
      "hit": false,
      "t": 156562.5,
      "d": 112.5,
      "v": 116
    },
    {
      "midi": 43,
      "hit": false,
      "t": 156750,
      "d": 103.125,
      "v": 107
    },
    {
      "midi": 43,
      "hit": false,
      "t": 156937.5,
      "d": 96.875,
      "v": 105
    },
    {
      "midi": 79,
      "hit": false,
      "t": 156940.625,
      "d": 184.375,
      "v": 66
    },
    {
      "midi": 31,
      "hit": false,
      "t": 157031.25,
      "d": 78.125,
      "v": 72
    },
    {
      "midi": 76,
      "hit": false,
      "t": 157053.125,
      "d": 146.875,
      "v": 64
    },
    {
      "midi": 43,
      "hit": false,
      "t": 157125,
      "d": 87.5,
      "v": 127
    },
    {
      "midi": 72,
      "hit": false,
      "t": 157125,
      "d": 159.375,
      "v": 57
    },
    {
      "midi": 31,
      "hit": false,
      "t": 157218.75,
      "d": 75,
      "v": 76
    },
    {
      "midi": 79,
      "hit": false,
      "t": 157218.75,
      "d": 187.5,
      "v": 72
    },
    {
      "midi": 43,
      "hit": false,
      "t": 157312.5,
      "d": 81.25,
      "v": 110
    },
    {
      "midi": 76,
      "hit": false,
      "t": 157312.5,
      "d": 121.875,
      "v": 59
    },
    {
      "midi": 43,
      "hit": false,
      "t": 157406.25,
      "d": 56.25,
      "v": 102
    },
    {
      "midi": 72,
      "hit": false,
      "t": 157406.25,
      "d": 75,
      "v": 64
    },
    {
      "midi": 43,
      "hit": false,
      "t": 157500,
      "d": 87.5,
      "v": 116
    },
    {
      "midi": 43,
      "hit": false,
      "t": 157687.5,
      "d": 106.25,
      "v": 116
    },
    {
      "midi": 67,
      "hit": false,
      "t": 157687.5,
      "d": 1168.75,
      "v": 59
    },
    {
      "midi": 43,
      "hit": false,
      "t": 157875,
      "d": 100,
      "v": 107
    },
    {
      "midi": 72,
      "hit": false,
      "t": 157875,
      "d": 981.25,
      "v": 64
    },
    {
      "midi": 76,
      "hit": false,
      "t": 157968.75,
      "d": 887.5,
      "v": 29
    },
    {
      "midi": 43,
      "hit": false,
      "t": 158062.5,
      "d": 112.5,
      "v": 116
    },
    {
      "midi": 79,
      "hit": false,
      "t": 158062.5,
      "d": 793.75,
      "v": 70
    },
    {
      "midi": 43,
      "hit": false,
      "t": 158250,
      "d": 103.125,
      "v": 107
    },
    {
      "midi": 43,
      "hit": false,
      "t": 158437.5,
      "d": 96.875,
      "v": 105
    },
    {
      "midi": 31,
      "hit": false,
      "t": 158531.25,
      "d": 78.125,
      "v": 72
    },
    {
      "midi": 43,
      "hit": false,
      "t": 158625,
      "d": 87.5,
      "v": 127
    },
    {
      "midi": 31,
      "hit": false,
      "t": 158718.75,
      "d": 75,
      "v": 76
    },
    {
      "midi": 43,
      "hit": false,
      "t": 158812.5,
      "d": 81.25,
      "v": 110
    },
    {
      "midi": 43,
      "hit": false,
      "t": 158906.25,
      "d": 56.25,
      "v": 102
    },
    {
      "midi": 43,
      "hit": false,
      "t": 159000,
      "d": 137.5,
      "v": 105
    },
    {
      "midi": 77,
      "hit": false,
      "t": 159000,
      "d": 884.375,
      "v": 47
    },
    {
      "midi": 79,
      "hit": false,
      "t": 159000,
      "d": 893.75,
      "v": 39
    },
    {
      "midi": 74,
      "hit": false,
      "t": 159000,
      "d": 915.625,
      "v": 46
    },
    {
      "midi": 70,
      "hit": false,
      "t": 159000,
      "d": 950,
      "v": 42
    },
    {
      "midi": 43,
      "hit": false,
      "t": 159187.5,
      "d": 103.125,
      "v": 89
    },
    {
      "midi": 43,
      "hit": false,
      "t": 159375,
      "d": 125,
      "v": 105
    },
    {
      "midi": 43,
      "hit": false,
      "t": 159562.5,
      "d": 137.5,
      "v": 98
    },
    {
      "midi": 43,
      "hit": false,
      "t": 159750,
      "d": 112.5,
      "v": 102
    },
    {
      "midi": 43,
      "hit": false,
      "t": 159937.5,
      "d": 115.625,
      "v": 102
    },
    {
      "midi": 43,
      "hit": false,
      "t": 159950,
      "d": 200,
      "v": 59
    },
    {
      "midi": 43,
      "hit": false,
      "t": 160125,
      "d": 134.375,
      "v": 110
    },
    {
      "midi": 77,
      "hit": false,
      "t": 160125,
      "d": 143.75,
      "v": 74
    },
    {
      "midi": 79,
      "hit": false,
      "t": 160125,
      "d": 159.375,
      "v": 65
    },
    {
      "midi": 74,
      "hit": false,
      "t": 160125,
      "d": 159.375,
      "v": 74
    },
    {
      "midi": 70,
      "hit": false,
      "t": 160125,
      "d": 168.75,
      "v": 51
    },
    {
      "midi": 43,
      "hit": false,
      "t": 160312.5,
      "d": 162.5,
      "v": 98
    },
    {
      "midi": 43,
      "hit": false,
      "t": 160500,
      "d": 109.375,
      "v": 102
    },
    {
      "midi": 79,
      "hit": false,
      "t": 160500,
      "d": 878.125,
      "v": 43
    },
    {
      "midi": 77,
      "hit": false,
      "t": 160500,
      "d": 940.625,
      "v": 41
    },
    {
      "midi": 74,
      "hit": false,
      "t": 160500,
      "d": 1053.125,
      "v": 45
    },
    {
      "midi": 70,
      "hit": false,
      "t": 160500,
      "d": 1125,
      "v": 43
    },
    {
      "midi": 43,
      "hit": false,
      "t": 160687.5,
      "d": 134.375,
      "v": 119
    },
    {
      "midi": 43,
      "hit": false,
      "t": 160875,
      "d": 112.5,
      "v": 113
    },
    {
      "midi": 43,
      "hit": false,
      "t": 161062.5,
      "d": 150,
      "v": 113
    },
    {
      "midi": 43,
      "hit": false,
      "t": 161250,
      "d": 106.25,
      "v": 91
    },
    {
      "midi": 43,
      "hit": false,
      "t": 161437.5,
      "d": 137.5,
      "v": 105
    },
    {
      "midi": 79,
      "hit": false,
      "t": 161440.625,
      "d": 184.375,
      "v": 66
    },
    {
      "midi": 77,
      "hit": false,
      "t": 161553.125,
      "d": 71.875,
      "v": 64
    },
    {
      "midi": 43,
      "hit": false,
      "t": 161625,
      "d": 78.125,
      "v": 107
    },
    {
      "midi": 77,
      "hit": false,
      "t": 161625,
      "d": 884.375,
      "v": 47
    },
    {
      "midi": 79,
      "hit": false,
      "t": 161625,
      "d": 893.75,
      "v": 39
    },
    {
      "midi": 74,
      "hit": false,
      "t": 161625,
      "d": 915.625,
      "v": 46
    },
    {
      "midi": 70,
      "hit": false,
      "t": 161625,
      "d": 950,
      "v": 42
    },
    {
      "midi": 43,
      "hit": false,
      "t": 161812.5,
      "d": 106.25,
      "v": 107
    },
    {
      "midi": 43,
      "hit": false,
      "t": 162000,
      "d": 96.875,
      "v": 119
    },
    {
      "midi": 43,
      "hit": false,
      "t": 162187.5,
      "d": 121.875,
      "v": 107
    },
    {
      "midi": 43,
      "hit": false,
      "t": 162375,
      "d": 78.125,
      "v": 107
    },
    {
      "midi": 43,
      "hit": false,
      "t": 162562.5,
      "d": 75,
      "v": 100
    },
    {
      "midi": 43,
      "hit": false,
      "t": 162575,
      "d": 200,
      "v": 59
    },
    {
      "midi": 43,
      "hit": false,
      "t": 162750,
      "d": 187.5,
      "v": 105
    },
    {
      "midi": 77,
      "hit": false,
      "t": 162750,
      "d": 143.75,
      "v": 74
    },
    {
      "midi": 79,
      "hit": false,
      "t": 162750,
      "d": 159.375,
      "v": 65
    },
    {
      "midi": 74,
      "hit": false,
      "t": 162750,
      "d": 159.375,
      "v": 74
    },
    {
      "midi": 70,
      "hit": false,
      "t": 162750,
      "d": 168.75,
      "v": 51
    },
    {
      "midi": 42,
      "hit": false,
      "t": 162937.5,
      "d": 71.875,
      "v": 89
    },
    {
      "midi": 43,
      "hit": false,
      "t": 163125,
      "d": 109.375,
      "v": 102
    },
    {
      "midi": 79,
      "hit": false,
      "t": 163125,
      "d": 140.625,
      "v": 57
    },
    {
      "midi": 77,
      "hit": false,
      "t": 163125,
      "d": 150,
      "v": 53
    },
    {
      "midi": 74,
      "hit": false,
      "t": 163125,
      "d": 150,
      "v": 35
    },
    {
      "midi": 86,
      "hit": false,
      "t": 163125,
      "d": 165.625,
      "v": 55
    },
    {
      "midi": 43,
      "hit": false,
      "t": 163312.5,
      "d": 134.375,
      "v": 119
    },
    {
      "midi": 43,
      "hit": false,
      "t": 163500,
      "d": 112.5,
      "v": 113
    },
    {
      "midi": 43,
      "hit": false,
      "t": 163687.5,
      "d": 150,
      "v": 113
    },
    {
      "midi": 79,
      "hit": false,
      "t": 163687.5,
      "d": 562.5,
      "v": 62
    },
    {
      "midi": 77,
      "hit": false,
      "t": 163687.5,
      "d": 562.5,
      "v": 62
    },
    {
      "midi": 74,
      "hit": false,
      "t": 163687.5,
      "d": 562.5,
      "v": 60
    },
    {
      "midi": 86,
      "hit": false,
      "t": 163687.5,
      "d": 562.5,
      "v": 60
    },
    {
      "midi": 43,
      "hit": false,
      "t": 163875,
      "d": 106.25,
      "v": 91
    },
    {
      "midi": 43,
      "hit": false,
      "t": 164062.5,
      "d": 137.5,
      "v": 105
    },
    {
      "midi": 34,
      "hit": false,
      "t": 164250,
      "d": 87.5,
      "v": 116
    },
    {
      "midi": 73,
      "hit": false,
      "t": 164250,
      "d": 1387.5,
      "v": 60
    },
    {
      "midi": 68,
      "hit": false,
      "t": 164250,
      "d": 1387.5,
      "v": 47
    },
    {
      "midi": 70,
      "hit": false,
      "t": 164250,
      "d": 1393.75,
      "v": 58
    },
    {
      "midi": 77,
      "hit": false,
      "t": 164250,
      "d": 1403.125,
      "v": 57
    },
    {
      "midi": 34,
      "hit": false,
      "t": 164437.5,
      "d": 106.25,
      "v": 116
    },
    {
      "midi": 34,
      "hit": false,
      "t": 164625,
      "d": 100,
      "v": 107
    },
    {
      "midi": 34,
      "hit": false,
      "t": 164812.5,
      "d": 112.5,
      "v": 116
    },
    {
      "midi": 34,
      "hit": false,
      "t": 165000,
      "d": 103.125,
      "v": 107
    },
    {
      "midi": 34,
      "hit": false,
      "t": 165187.5,
      "d": 96.875,
      "v": 105
    },
    {
      "midi": 22,
      "hit": false,
      "t": 165281.25,
      "d": 78.125,
      "v": 72
    },
    {
      "midi": 34,
      "hit": false,
      "t": 165375,
      "d": 87.5,
      "v": 127
    },
    {
      "midi": 22,
      "hit": false,
      "t": 165468.75,
      "d": 75,
      "v": 76
    },
    {
      "midi": 34,
      "hit": false,
      "t": 165562.5,
      "d": 81.25,
      "v": 110
    },
    {
      "midi": 34,
      "hit": false,
      "t": 165656.25,
      "d": 56.25,
      "v": 102
    },
    {
      "midi": 34,
      "hit": false,
      "t": 165750,
      "d": 87.5,
      "v": 105
    },
    {
      "midi": 34,
      "hit": false,
      "t": 165937.5,
      "d": 68.75,
      "v": 100
    },
    {
      "midi": 68,
      "hit": false,
      "t": 165937.5,
      "d": 937.5,
      "v": 59
    },
    {
      "midi": 34,
      "hit": false,
      "t": 166125,
      "d": 71.875,
      "v": 110
    },
    {
      "midi": 70,
      "hit": false,
      "t": 166125,
      "d": 750,
      "v": 64
    },
    {
      "midi": 73,
      "hit": false,
      "t": 166218.75,
      "d": 656.25,
      "v": 29
    },
    {
      "midi": 34,
      "hit": false,
      "t": 166312.5,
      "d": 159.375,
      "v": 116
    },
    {
      "midi": 77,
      "hit": false,
      "t": 166312.5,
      "d": 562.5,
      "v": 70
    },
    {
      "midi": 34,
      "hit": false,
      "t": 166500,
      "d": 84.375,
      "v": 95
    },
    {
      "midi": 34,
      "hit": false,
      "t": 166687.5,
      "d": 71.875,
      "v": 95
    },
    {
      "midi": 34,
      "hit": false,
      "t": 166875,
      "d": 137.5,
      "v": 105
    },
    {
      "midi": 34,
      "hit": false,
      "t": 167062.5,
      "d": 103.125,
      "v": 89
    },
    {
      "midi": 68,
      "hit": false,
      "t": 167062.5,
      "d": 1168.75,
      "v": 59
    },
    {
      "midi": 34,
      "hit": false,
      "t": 167250,
      "d": 125,
      "v": 105
    },
    {
      "midi": 70,
      "hit": false,
      "t": 167250,
      "d": 981.25,
      "v": 64
    },
    {
      "midi": 73,
      "hit": false,
      "t": 167343.75,
      "d": 887.5,
      "v": 29
    },
    {
      "midi": 34,
      "hit": false,
      "t": 167437.5,
      "d": 137.5,
      "v": 98
    },
    {
      "midi": 77,
      "hit": false,
      "t": 167437.5,
      "d": 793.75,
      "v": 70
    },
    {
      "midi": 34,
      "hit": false,
      "t": 167625,
      "d": 112.5,
      "v": 102
    },
    {
      "midi": 34,
      "hit": false,
      "t": 167812.5,
      "d": 115.625,
      "v": 102
    },
    {
      "midi": 34,
      "hit": false,
      "t": 168000,
      "d": 134.375,
      "v": 110
    },
    {
      "midi": 34,
      "hit": false,
      "t": 168187.5,
      "d": 162.5,
      "v": 98
    },
    {
      "midi": 34,
      "hit": false,
      "t": 168375,
      "d": 109.375,
      "v": 102
    },
    {
      "midi": 77,
      "hit": false,
      "t": 168375,
      "d": 878.125,
      "v": 43
    },
    {
      "midi": 73,
      "hit": false,
      "t": 168375,
      "d": 940.625,
      "v": 41
    },
    {
      "midi": 70,
      "hit": false,
      "t": 168375,
      "d": 1053.125,
      "v": 45
    },
    {
      "midi": 68,
      "hit": false,
      "t": 168375,
      "d": 1125,
      "v": 43
    },
    {
      "midi": 34,
      "hit": false,
      "t": 168562.5,
      "d": 134.375,
      "v": 119
    },
    {
      "midi": 34,
      "hit": false,
      "t": 168750,
      "d": 112.5,
      "v": 113
    },
    {
      "midi": 34,
      "hit": false,
      "t": 168937.5,
      "d": 150,
      "v": 113
    },
    {
      "midi": 34,
      "hit": false,
      "t": 169125,
      "d": 106.25,
      "v": 91
    },
    {
      "midi": 34,
      "hit": false,
      "t": 169312.5,
      "d": 137.5,
      "v": 105
    },
    {
      "midi": 77,
      "hit": false,
      "t": 169315.625,
      "d": 184.375,
      "v": 66
    },
    {
      "midi": 73,
      "hit": false,
      "t": 169428.125,
      "d": 71.875,
      "v": 64
    },
    {
      "midi": 43,
      "hit": false,
      "t": 169500,
      "d": 87.5,
      "v": 116
    },
    {
      "midi": 79,
      "hit": false,
      "t": 169500,
      "d": 878.125,
      "v": 43
    },
    {
      "midi": 77,
      "hit": false,
      "t": 169500,
      "d": 940.625,
      "v": 41
    },
    {
      "midi": 74,
      "hit": false,
      "t": 169500,
      "d": 1053.125,
      "v": 45
    },
    {
      "midi": 70,
      "hit": false,
      "t": 169500,
      "d": 1493.75,
      "v": 43
    },
    {
      "midi": 43,
      "hit": false,
      "t": 169687.5,
      "d": 106.25,
      "v": 116
    },
    {
      "midi": 43,
      "hit": false,
      "t": 169875,
      "d": 100,
      "v": 107
    },
    {
      "midi": 43,
      "hit": false,
      "t": 170062.5,
      "d": 112.5,
      "v": 116
    },
    {
      "midi": 43,
      "hit": false,
      "t": 170250,
      "d": 103.125,
      "v": 107
    },
    {
      "midi": 43,
      "hit": false,
      "t": 170437.5,
      "d": 96.875,
      "v": 105
    },
    {
      "midi": 79,
      "hit": false,
      "t": 170440.625,
      "d": 184.375,
      "v": 66
    },
    {
      "midi": 31,
      "hit": false,
      "t": 170531.25,
      "d": 78.125,
      "v": 72
    },
    {
      "midi": 77,
      "hit": false,
      "t": 170553.125,
      "d": 146.875,
      "v": 64
    },
    {
      "midi": 43,
      "hit": false,
      "t": 170625,
      "d": 87.5,
      "v": 127
    },
    {
      "midi": 74,
      "hit": false,
      "t": 170625,
      "d": 159.375,
      "v": 57
    },
    {
      "midi": 31,
      "hit": false,
      "t": 170718.75,
      "d": 75,
      "v": 76
    },
    {
      "midi": 79,
      "hit": false,
      "t": 170718.75,
      "d": 187.5,
      "v": 72
    },
    {
      "midi": 43,
      "hit": false,
      "t": 170812.5,
      "d": 81.25,
      "v": 110
    },
    {
      "midi": 77,
      "hit": false,
      "t": 170812.5,
      "d": 121.875,
      "v": 59
    },
    {
      "midi": 43,
      "hit": false,
      "t": 170906.25,
      "d": 56.25,
      "v": 102
    },
    {
      "midi": 74,
      "hit": false,
      "t": 170906.25,
      "d": 75,
      "v": 64
    },
    {
      "midi": 43,
      "hit": false,
      "t": 171000,
      "d": 96.875,
      "v": 102
    },
    {
      "midi": 43,
      "hit": false,
      "t": 171187.5,
      "d": 118.75,
      "v": 98
    },
    {
      "midi": 70,
      "hit": false,
      "t": 171187.5,
      "d": 937.5,
      "v": 59
    },
    {
      "midi": 43,
      "hit": false,
      "t": 171375,
      "d": 106.25,
      "v": 119
    },
    {
      "midi": 74,
      "hit": false,
      "t": 171375,
      "d": 750,
      "v": 64
    },
    {
      "midi": 77,
      "hit": false,
      "t": 171468.75,
      "d": 656.25,
      "v": 29
    },
    {
      "midi": 43,
      "hit": false,
      "t": 171562.5,
      "d": 118.75,
      "v": 105
    },
    {
      "midi": 79,
      "hit": false,
      "t": 171562.5,
      "d": 562.5,
      "v": 70
    },
    {
      "midi": 31,
      "hit": false,
      "t": 171656.25,
      "d": 50,
      "v": 93
    },
    {
      "midi": 43,
      "hit": false,
      "t": 171750,
      "d": 96.875,
      "v": 85
    },
    {
      "midi": 43,
      "hit": false,
      "t": 171937.5,
      "d": 65.625,
      "v": 107
    },
    {
      "midi": 43,
      "hit": false,
      "t": 172125,
      "d": 137.5,
      "v": 105
    },
    {
      "midi": 77,
      "hit": false,
      "t": 172125,
      "d": 884.375,
      "v": 47
    },
    {
      "midi": 79,
      "hit": false,
      "t": 172125,
      "d": 893.75,
      "v": 39
    },
    {
      "midi": 74,
      "hit": false,
      "t": 172125,
      "d": 915.625,
      "v": 46
    },
    {
      "midi": 70,
      "hit": false,
      "t": 172125,
      "d": 950,
      "v": 42
    },
    {
      "midi": 43,
      "hit": false,
      "t": 172312.5,
      "d": 103.125,
      "v": 89
    },
    {
      "midi": 43,
      "hit": false,
      "t": 172500,
      "d": 125,
      "v": 105
    },
    {
      "midi": 43,
      "hit": false,
      "t": 172687.5,
      "d": 137.5,
      "v": 98
    },
    {
      "midi": 43,
      "hit": false,
      "t": 172875,
      "d": 112.5,
      "v": 102
    },
    {
      "midi": 43,
      "hit": false,
      "t": 173062.5,
      "d": 115.625,
      "v": 102
    },
    {
      "midi": 43,
      "hit": false,
      "t": 173075,
      "d": 200,
      "v": 59
    },
    {
      "midi": 43,
      "hit": false,
      "t": 173250,
      "d": 134.375,
      "v": 110
    },
    {
      "midi": 77,
      "hit": false,
      "t": 173250,
      "d": 143.75,
      "v": 74
    },
    {
      "midi": 79,
      "hit": false,
      "t": 173250,
      "d": 159.375,
      "v": 65
    },
    {
      "midi": 74,
      "hit": false,
      "t": 173250,
      "d": 159.375,
      "v": 74
    },
    {
      "midi": 70,
      "hit": false,
      "t": 173250,
      "d": 168.75,
      "v": 51
    },
    {
      "midi": 43,
      "hit": false,
      "t": 173437.5,
      "d": 162.5,
      "v": 98
    },
    {
      "midi": 43,
      "hit": false,
      "t": 173625,
      "d": 87.5,
      "v": 105
    },
    {
      "midi": 43,
      "hit": false,
      "t": 173812.5,
      "d": 68.75,
      "v": 100
    },
    {
      "midi": 70,
      "hit": false,
      "t": 173812.5,
      "d": 937.5,
      "v": 59
    },
    {
      "midi": 43,
      "hit": false,
      "t": 174000,
      "d": 71.875,
      "v": 110
    },
    {
      "midi": 74,
      "hit": false,
      "t": 174000,
      "d": 750,
      "v": 64
    },
    {
      "midi": 77,
      "hit": false,
      "t": 174093.75,
      "d": 656.25,
      "v": 29
    },
    {
      "midi": 43,
      "hit": false,
      "t": 174187.5,
      "d": 159.375,
      "v": 116
    },
    {
      "midi": 79,
      "hit": false,
      "t": 174187.5,
      "d": 562.5,
      "v": 70
    },
    {
      "midi": 43,
      "hit": false,
      "t": 174375,
      "d": 84.375,
      "v": 95
    },
    {
      "midi": 43,
      "hit": false,
      "t": 174562.5,
      "d": 71.875,
      "v": 95
    },
    {
      "midi": 34,
      "hit": false,
      "t": 174750,
      "d": 137.5,
      "v": 105
    },
    {
      "midi": 34,
      "hit": false,
      "t": 174937.5,
      "d": 103.125,
      "v": 89
    },
    {
      "midi": 68,
      "hit": false,
      "t": 174937.5,
      "d": 1168.75,
      "v": 59
    },
    {
      "midi": 34,
      "hit": false,
      "t": 175125,
      "d": 125,
      "v": 105
    },
    {
      "midi": 70,
      "hit": false,
      "t": 175125,
      "d": 981.25,
      "v": 64
    },
    {
      "midi": 73,
      "hit": false,
      "t": 175218.75,
      "d": 887.5,
      "v": 29
    },
    {
      "midi": 34,
      "hit": false,
      "t": 175312.5,
      "d": 137.5,
      "v": 98
    },
    {
      "midi": 77,
      "hit": false,
      "t": 175312.5,
      "d": 793.75,
      "v": 70
    },
    {
      "midi": 34,
      "hit": false,
      "t": 175500,
      "d": 112.5,
      "v": 102
    },
    {
      "midi": 34,
      "hit": false,
      "t": 175687.5,
      "d": 115.625,
      "v": 102
    },
    {
      "midi": 34,
      "hit": false,
      "t": 175875,
      "d": 134.375,
      "v": 110
    },
    {
      "midi": 34,
      "hit": false,
      "t": 176062.5,
      "d": 162.5,
      "v": 98
    },
    {
      "midi": 34,
      "hit": false,
      "t": 176250,
      "d": 109.375,
      "v": 102
    },
    {
      "midi": 77,
      "hit": false,
      "t": 176250,
      "d": 1125,
      "v": 57
    },
    {
      "midi": 73,
      "hit": false,
      "t": 176250,
      "d": 1125,
      "v": 60
    },
    {
      "midi": 70,
      "hit": false,
      "t": 176250,
      "d": 1125,
      "v": 58
    },
    {
      "midi": 68,
      "hit": false,
      "t": 176250,
      "d": 1125,
      "v": 47
    },
    {
      "midi": 34,
      "hit": false,
      "t": 176437.5,
      "d": 134.375,
      "v": 119
    },
    {
      "midi": 34,
      "hit": false,
      "t": 176625,
      "d": 112.5,
      "v": 113
    },
    {
      "midi": 34,
      "hit": false,
      "t": 176812.5,
      "d": 150,
      "v": 113
    },
    {
      "midi": 34,
      "hit": false,
      "t": 177000,
      "d": 106.25,
      "v": 91
    },
    {
      "midi": 34,
      "hit": false,
      "t": 177187.5,
      "d": 137.5,
      "v": 105
    },
    {
      "midi": 34,
      "hit": false,
      "t": 177375,
      "d": 96.875,
      "v": 102
    },
    {
      "midi": 73,
      "hit": false,
      "t": 177375,
      "d": 884.375,
      "v": 47
    },
    {
      "midi": 77,
      "hit": false,
      "t": 177375,
      "d": 893.75,
      "v": 39
    },
    {
      "midi": 70,
      "hit": false,
      "t": 177375,
      "d": 915.625,
      "v": 46
    },
    {
      "midi": 68,
      "hit": false,
      "t": 177375,
      "d": 950,
      "v": 42
    },
    {
      "midi": 34,
      "hit": false,
      "t": 177562.5,
      "d": 118.75,
      "v": 98
    },
    {
      "midi": 34,
      "hit": false,
      "t": 177750,
      "d": 106.25,
      "v": 119
    },
    {
      "midi": 34,
      "hit": false,
      "t": 177937.5,
      "d": 118.75,
      "v": 105
    },
    {
      "midi": 22,
      "hit": false,
      "t": 178031.25,
      "d": 50,
      "v": 93
    },
    {
      "midi": 34,
      "hit": false,
      "t": 178125,
      "d": 96.875,
      "v": 85
    },
    {
      "midi": 34,
      "hit": false,
      "t": 178312.5,
      "d": 65.625,
      "v": 107
    },
    {
      "midi": 46,
      "hit": false,
      "t": 178325,
      "d": 175,
      "v": 59
    },
    {
      "midi": 34,
      "hit": false,
      "t": 178500,
      "d": 156.25,
      "v": 113
    },
    {
      "midi": 73,
      "hit": false,
      "t": 178500,
      "d": 143.75,
      "v": 74
    },
    {
      "midi": 77,
      "hit": false,
      "t": 178500,
      "d": 159.375,
      "v": 65
    },
    {
      "midi": 70,
      "hit": false,
      "t": 178500,
      "d": 159.375,
      "v": 74
    },
    {
      "midi": 68,
      "hit": false,
      "t": 178500,
      "d": 168.75,
      "v": 51
    },
    {
      "midi": 33,
      "hit": false,
      "t": 178687.5,
      "d": 59.375,
      "v": 98
    },
    {
      "midi": 34,
      "hit": false,
      "t": 178875,
      "d": 96.875,
      "v": 102
    },
    {
      "midi": 77,
      "hit": false,
      "t": 178875,
      "d": 878.125,
      "v": 43
    },
    {
      "midi": 73,
      "hit": false,
      "t": 178875,
      "d": 940.625,
      "v": 41
    },
    {
      "midi": 70,
      "hit": false,
      "t": 178875,
      "d": 1053.125,
      "v": 45
    },
    {
      "midi": 68,
      "hit": false,
      "t": 178875,
      "d": 1125,
      "v": 43
    },
    {
      "midi": 34,
      "hit": false,
      "t": 179062.5,
      "d": 118.75,
      "v": 98
    },
    {
      "midi": 34,
      "hit": false,
      "t": 179250,
      "d": 106.25,
      "v": 119
    },
    {
      "midi": 34,
      "hit": false,
      "t": 179437.5,
      "d": 118.75,
      "v": 105
    },
    {
      "midi": 22,
      "hit": false,
      "t": 179531.25,
      "d": 50,
      "v": 93
    },
    {
      "midi": 34,
      "hit": false,
      "t": 179625,
      "d": 96.875,
      "v": 85
    },
    {
      "midi": 34,
      "hit": false,
      "t": 179812.5,
      "d": 65.625,
      "v": 107
    },
    {
      "midi": 77,
      "hit": false,
      "t": 179815.625,
      "d": 184.375,
      "v": 66
    },
    {
      "midi": 73,
      "hit": false,
      "t": 179928.125,
      "d": 71.875,
      "v": 64
    },
    {
      "midi": 34,
      "hit": false,
      "t": 180000,
      "d": 137.5,
      "v": 105
    },
    {
      "midi": 77,
      "hit": false,
      "t": 180000,
      "d": 878.125,
      "v": 43
    },
    {
      "midi": 74,
      "hit": false,
      "t": 180000,
      "d": 940.625,
      "v": 41
    },
    {
      "midi": 70,
      "hit": false,
      "t": 180000,
      "d": 1053.125,
      "v": 45
    },
    {
      "midi": 65,
      "hit": false,
      "t": 180000,
      "d": 1493.75,
      "v": 43
    },
    {
      "midi": 34,
      "hit": false,
      "t": 180187.5,
      "d": 103.125,
      "v": 89
    },
    {
      "midi": 34,
      "hit": false,
      "t": 180375,
      "d": 125,
      "v": 105
    },
    {
      "midi": 34,
      "hit": false,
      "t": 180562.5,
      "d": 137.5,
      "v": 98
    },
    {
      "midi": 34,
      "hit": false,
      "t": 180750,
      "d": 112.5,
      "v": 102
    },
    {
      "midi": 34,
      "hit": false,
      "t": 180937.5,
      "d": 115.625,
      "v": 102
    },
    {
      "midi": 77,
      "hit": false,
      "t": 180940.625,
      "d": 184.375,
      "v": 66
    },
    {
      "midi": 74,
      "hit": false,
      "t": 181053.125,
      "d": 146.875,
      "v": 64
    },
    {
      "midi": 34,
      "hit": false,
      "t": 181125,
      "d": 134.375,
      "v": 110
    },
    {
      "midi": 70,
      "hit": false,
      "t": 181125,
      "d": 159.375,
      "v": 57
    },
    {
      "midi": 77,
      "hit": false,
      "t": 181218.75,
      "d": 187.5,
      "v": 72
    },
    {
      "midi": 34,
      "hit": false,
      "t": 181312.5,
      "d": 162.5,
      "v": 98
    },
    {
      "midi": 74,
      "hit": false,
      "t": 181312.5,
      "d": 121.875,
      "v": 59
    },
    {
      "midi": 70,
      "hit": false,
      "t": 181406.25,
      "d": 75,
      "v": 64
    },
    {
      "midi": 36,
      "hit": false,
      "t": 181500,
      "d": 87.5,
      "v": 116
    },
    {
      "midi": 36,
      "hit": false,
      "t": 181687.5,
      "d": 106.25,
      "v": 116
    },
    {
      "midi": 67,
      "hit": false,
      "t": 181687.5,
      "d": 1168.75,
      "v": 59
    },
    {
      "midi": 36,
      "hit": false,
      "t": 181875,
      "d": 100,
      "v": 107
    },
    {
      "midi": 72,
      "hit": false,
      "t": 181875,
      "d": 981.25,
      "v": 64
    },
    {
      "midi": 76,
      "hit": false,
      "t": 181968.75,
      "d": 887.5,
      "v": 29
    },
    {
      "midi": 36,
      "hit": false,
      "t": 182062.5,
      "d": 112.5,
      "v": 116
    },
    {
      "midi": 79,
      "hit": false,
      "t": 182062.5,
      "d": 793.75,
      "v": 70
    },
    {
      "midi": 36,
      "hit": false,
      "t": 182250,
      "d": 103.125,
      "v": 107
    },
    {
      "midi": 36,
      "hit": false,
      "t": 182437.5,
      "d": 96.875,
      "v": 105
    },
    {
      "midi": 24,
      "hit": false,
      "t": 182531.25,
      "d": 78.125,
      "v": 72
    },
    {
      "midi": 36,
      "hit": false,
      "t": 182625,
      "d": 87.5,
      "v": 127
    },
    {
      "midi": 24,
      "hit": false,
      "t": 182718.75,
      "d": 75,
      "v": 76
    },
    {
      "midi": 36,
      "hit": false,
      "t": 182812.5,
      "d": 81.25,
      "v": 110
    },
    {
      "midi": 36,
      "hit": false,
      "t": 182906.25,
      "d": 56.25,
      "v": 102
    },
    {
      "midi": 37,
      "hit": false,
      "t": 183000,
      "d": 109.375,
      "v": 102
    },
    {
      "midi": 77,
      "hit": false,
      "t": 183000,
      "d": 884.375,
      "v": 47
    },
    {
      "midi": 80,
      "hit": false,
      "t": 183000,
      "d": 893.75,
      "v": 39
    },
    {
      "midi": 73,
      "hit": false,
      "t": 183000,
      "d": 915.625,
      "v": 46
    },
    {
      "midi": 68,
      "hit": false,
      "t": 183000,
      "d": 950,
      "v": 42
    },
    {
      "midi": 37,
      "hit": false,
      "t": 183187.5,
      "d": 134.375,
      "v": 119
    },
    {
      "midi": 37,
      "hit": false,
      "t": 183375,
      "d": 112.5,
      "v": 113
    },
    {
      "midi": 37,
      "hit": false,
      "t": 183562.5,
      "d": 150,
      "v": 113
    },
    {
      "midi": 37,
      "hit": false,
      "t": 183750,
      "d": 106.25,
      "v": 91
    },
    {
      "midi": 37,
      "hit": false,
      "t": 183937.5,
      "d": 137.5,
      "v": 105
    },
    {
      "midi": 49,
      "hit": false,
      "t": 183950,
      "d": 200,
      "v": 59
    },
    {
      "midi": 37,
      "hit": false,
      "t": 184125,
      "d": 106.25,
      "v": 105
    },
    {
      "midi": 77,
      "hit": false,
      "t": 184125,
      "d": 143.75,
      "v": 74
    },
    {
      "midi": 80,
      "hit": false,
      "t": 184125,
      "d": 159.375,
      "v": 65
    },
    {
      "midi": 73,
      "hit": false,
      "t": 184125,
      "d": 159.375,
      "v": 74
    },
    {
      "midi": 68,
      "hit": false,
      "t": 184125,
      "d": 168.75,
      "v": 51
    },
    {
      "midi": 37,
      "hit": false,
      "t": 184312.5,
      "d": 128.125,
      "v": 113
    },
    {
      "midi": 39,
      "hit": false,
      "t": 184500,
      "d": 87.5,
      "v": 116
    },
    {
      "midi": 75,
      "hit": false,
      "t": 184500,
      "d": 1387.5,
      "v": 60
    },
    {
      "midi": 67,
      "hit": false,
      "t": 184500,
      "d": 1387.5,
      "v": 47
    },
    {
      "midi": 70,
      "hit": false,
      "t": 184500,
      "d": 1393.75,
      "v": 58
    },
    {
      "midi": 79,
      "hit": false,
      "t": 184500,
      "d": 1403.125,
      "v": 57
    },
    {
      "midi": 39,
      "hit": false,
      "t": 184687.5,
      "d": 106.25,
      "v": 116
    },
    {
      "midi": 39,
      "hit": false,
      "t": 184875,
      "d": 100,
      "v": 107
    },
    {
      "midi": 39,
      "hit": false,
      "t": 185062.5,
      "d": 112.5,
      "v": 116
    },
    {
      "midi": 39,
      "hit": false,
      "t": 185250,
      "d": 103.125,
      "v": 107
    },
    {
      "midi": 39,
      "hit": false,
      "t": 185437.5,
      "d": 96.875,
      "v": 105
    },
    {
      "midi": 27,
      "hit": false,
      "t": 185531.25,
      "d": 78.125,
      "v": 72
    },
    {
      "midi": 39,
      "hit": false,
      "t": 185625,
      "d": 87.5,
      "v": 127
    },
    {
      "midi": 27,
      "hit": false,
      "t": 185718.75,
      "d": 75,
      "v": 76
    },
    {
      "midi": 39,
      "hit": false,
      "t": 185812.5,
      "d": 81.25,
      "v": 110
    },
    {
      "midi": 39,
      "hit": false,
      "t": 185906.25,
      "d": 56.25,
      "v": 102
    },
    {
      "midi": 34,
      "hit": false,
      "t": 186000,
      "d": 109.375,
      "v": 102
    },
    {
      "midi": 74,
      "hit": false,
      "t": 186000,
      "d": 1387.5,
      "v": 60
    },
    {
      "midi": 65,
      "hit": false,
      "t": 186000,
      "d": 1387.5,
      "v": 47
    },
    {
      "midi": 70,
      "hit": false,
      "t": 186000,
      "d": 1393.75,
      "v": 58
    },
    {
      "midi": 77,
      "hit": false,
      "t": 186000,
      "d": 1403.125,
      "v": 57
    },
    {
      "midi": 34,
      "hit": false,
      "t": 186187.5,
      "d": 134.375,
      "v": 119
    },
    {
      "midi": 34,
      "hit": false,
      "t": 186375,
      "d": 112.5,
      "v": 113
    },
    {
      "midi": 34,
      "hit": false,
      "t": 186562.5,
      "d": 150,
      "v": 113
    },
    {
      "midi": 34,
      "hit": false,
      "t": 186750,
      "d": 106.25,
      "v": 91
    },
    {
      "midi": 34,
      "hit": false,
      "t": 186937.5,
      "d": 137.5,
      "v": 105
    },
    {
      "midi": 34,
      "hit": false,
      "t": 187125,
      "d": 106.25,
      "v": 105
    },
    {
      "midi": 34,
      "hit": false,
      "t": 187312.5,
      "d": 128.125,
      "v": 113
    },
    {
      "midi": 36,
      "hit": false,
      "t": 187500,
      "d": 78.125,
      "v": 107
    },
    {
      "midi": 36,
      "hit": false,
      "t": 187687.5,
      "d": 106.25,
      "v": 107
    },
    {
      "midi": 67,
      "hit": false,
      "t": 187687.5,
      "d": 1168.75,
      "v": 59
    },
    {
      "midi": 36,
      "hit": false,
      "t": 187875,
      "d": 96.875,
      "v": 119
    },
    {
      "midi": 72,
      "hit": false,
      "t": 187875,
      "d": 981.25,
      "v": 64
    },
    {
      "midi": 76,
      "hit": false,
      "t": 187968.75,
      "d": 887.5,
      "v": 29
    },
    {
      "midi": 36,
      "hit": false,
      "t": 188062.5,
      "d": 121.875,
      "v": 107
    },
    {
      "midi": 79,
      "hit": false,
      "t": 188062.5,
      "d": 793.75,
      "v": 70
    },
    {
      "midi": 36,
      "hit": false,
      "t": 188250,
      "d": 78.125,
      "v": 107
    },
    {
      "midi": 36,
      "hit": false,
      "t": 188437.5,
      "d": 75,
      "v": 100
    },
    {
      "midi": 36,
      "hit": false,
      "t": 188625,
      "d": 187.5,
      "v": 105
    },
    {
      "midi": 36,
      "hit": false,
      "t": 188812.5,
      "d": 71.875,
      "v": 89
    },
    {
      "midi": 37,
      "hit": false,
      "t": 189000,
      "d": 87.5,
      "v": 116
    },
    {
      "midi": 37,
      "hit": false,
      "t": 189187.5,
      "d": 106.25,
      "v": 116
    },
    {
      "midi": 68,
      "hit": false,
      "t": 189187.5,
      "d": 1168.75,
      "v": 59
    },
    {
      "midi": 37,
      "hit": false,
      "t": 189375,
      "d": 100,
      "v": 107
    },
    {
      "midi": 73,
      "hit": false,
      "t": 189375,
      "d": 981.25,
      "v": 64
    },
    {
      "midi": 77,
      "hit": false,
      "t": 189468.75,
      "d": 887.5,
      "v": 29
    },
    {
      "midi": 37,
      "hit": false,
      "t": 189562.5,
      "d": 112.5,
      "v": 116
    },
    {
      "midi": 80,
      "hit": false,
      "t": 189562.5,
      "d": 793.75,
      "v": 70
    },
    {
      "midi": 37,
      "hit": false,
      "t": 189750,
      "d": 103.125,
      "v": 107
    },
    {
      "midi": 37,
      "hit": false,
      "t": 189937.5,
      "d": 96.875,
      "v": 105
    },
    {
      "midi": 25,
      "hit": false,
      "t": 190031.25,
      "d": 78.125,
      "v": 72
    },
    {
      "midi": 37,
      "hit": false,
      "t": 190125,
      "d": 87.5,
      "v": 127
    },
    {
      "midi": 25,
      "hit": false,
      "t": 190218.75,
      "d": 75,
      "v": 76
    },
    {
      "midi": 37,
      "hit": false,
      "t": 190312.5,
      "d": 81.25,
      "v": 110
    },
    {
      "midi": 37,
      "hit": false,
      "t": 190406.25,
      "d": 56.25,
      "v": 102
    },
    {
      "midi": 39,
      "hit": false,
      "t": 190500,
      "d": 87.5,
      "v": 116
    },
    {
      "midi": 79,
      "hit": false,
      "t": 190500,
      "d": 140.625,
      "v": 57
    },
    {
      "midi": 75,
      "hit": false,
      "t": 190500,
      "d": 150,
      "v": 53
    },
    {
      "midi": 70,
      "hit": false,
      "t": 190500,
      "d": 150,
      "v": 35
    },
    {
      "midi": 82,
      "hit": false,
      "t": 190500,
      "d": 165.625,
      "v": 55
    },
    {
      "midi": 39,
      "hit": false,
      "t": 190687.5,
      "d": 106.25,
      "v": 116
    },
    {
      "midi": 39,
      "hit": false,
      "t": 190875,
      "d": 100,
      "v": 107
    },
    {
      "midi": 39,
      "hit": false,
      "t": 191062.5,
      "d": 112.5,
      "v": 116
    },
    {
      "midi": 79,
      "hit": false,
      "t": 191062.5,
      "d": 746.875,
      "v": 62
    },
    {
      "midi": 75,
      "hit": false,
      "t": 191062.5,
      "d": 746.875,
      "v": 62
    },
    {
      "midi": 82,
      "hit": false,
      "t": 191062.5,
      "d": 750,
      "v": 60
    },
    {
      "midi": 70,
      "hit": false,
      "t": 191062.5,
      "d": 756.25,
      "v": 60
    },
    {
      "midi": 39,
      "hit": false,
      "t": 191250,
      "d": 103.125,
      "v": 107
    },
    {
      "midi": 39,
      "hit": false,
      "t": 191437.5,
      "d": 96.875,
      "v": 105
    },
    {
      "midi": 27,
      "hit": false,
      "t": 191531.25,
      "d": 78.125,
      "v": 72
    },
    {
      "midi": 39,
      "hit": false,
      "t": 191625,
      "d": 87.5,
      "v": 127
    },
    {
      "midi": 27,
      "hit": false,
      "t": 191718.75,
      "d": 75,
      "v": 76
    },
    {
      "midi": 39,
      "hit": false,
      "t": 191812.5,
      "d": 81.25,
      "v": 110
    },
    {
      "midi": 39,
      "hit": false,
      "t": 191906.25,
      "d": 56.25,
      "v": 102
    },
    {
      "midi": 39,
      "hit": false,
      "t": 192000,
      "d": 96.875,
      "v": 102
    },
    {
      "midi": 79,
      "hit": false,
      "t": 192000,
      "d": 878.125,
      "v": 43
    },
    {
      "midi": 75,
      "hit": false,
      "t": 192000,
      "d": 940.625,
      "v": 41
    },
    {
      "midi": 70,
      "hit": false,
      "t": 192000,
      "d": 1053.125,
      "v": 45
    },
    {
      "midi": 67,
      "hit": false,
      "t": 192000,
      "d": 1493.75,
      "v": 43
    },
    {
      "midi": 39,
      "hit": false,
      "t": 192187.5,
      "d": 118.75,
      "v": 98
    },
    {
      "midi": 39,
      "hit": false,
      "t": 192375,
      "d": 106.25,
      "v": 119
    },
    {
      "midi": 39,
      "hit": false,
      "t": 192562.5,
      "d": 118.75,
      "v": 105
    },
    {
      "midi": 27,
      "hit": false,
      "t": 192656.25,
      "d": 50,
      "v": 93
    },
    {
      "midi": 39,
      "hit": false,
      "t": 192750,
      "d": 96.875,
      "v": 85
    },
    {
      "midi": 39,
      "hit": false,
      "t": 192937.5,
      "d": 65.625,
      "v": 107
    },
    {
      "midi": 79,
      "hit": false,
      "t": 192940.625,
      "d": 184.375,
      "v": 66
    },
    {
      "midi": 75,
      "hit": false,
      "t": 193053.125,
      "d": 146.875,
      "v": 64
    },
    {
      "midi": 39,
      "hit": false,
      "t": 193125,
      "d": 156.25,
      "v": 113
    },
    {
      "midi": 70,
      "hit": false,
      "t": 193125,
      "d": 159.375,
      "v": 57
    },
    {
      "midi": 79,
      "hit": false,
      "t": 193218.75,
      "d": 187.5,
      "v": 72
    },
    {
      "midi": 38,
      "hit": false,
      "t": 193312.5,
      "d": 59.375,
      "v": 98
    },
    {
      "midi": 75,
      "hit": false,
      "t": 193312.5,
      "d": 121.875,
      "v": 59
    },
    {
      "midi": 70,
      "hit": false,
      "t": 193406.25,
      "d": 75,
      "v": 64
    },
    {
      "midi": 39,
      "hit": false,
      "t": 193500,
      "d": 118.75,
      "v": 105
    },
    {
      "midi": 75,
      "hit": false,
      "t": 193500,
      "d": 750,
      "v": 61
    },
    {
      "midi": 67,
      "hit": false,
      "t": 193500,
      "d": 750,
      "v": 50
    },
    {
      "midi": 39,
      "hit": false,
      "t": 193687.5,
      "d": 150,
      "v": 107
    },
    {
      "midi": 39,
      "hit": false,
      "t": 193875,
      "d": 118.75,
      "v": 102
    },
    {
      "midi": 39,
      "hit": false,
      "t": 194062.5,
      "d": 53.125,
      "v": 116
    },
    {
      "midi": 27,
      "hit": false,
      "t": 194156.25,
      "d": 46.875,
      "v": 80
    },
    {
      "midi": 43,
      "hit": false,
      "t": 194250,
      "d": 118.75,
      "v": 107
    },
    {
      "midi": 79,
      "hit": false,
      "t": 194250,
      "d": 750,
      "v": 61
    },
    {
      "midi": 70,
      "hit": false,
      "t": 194250,
      "d": 750,
      "v": 50
    },
    {
      "midi": 31,
      "hit": false,
      "t": 194343.75,
      "d": 87.5,
      "v": 82
    },
    {
      "midi": 43,
      "hit": false,
      "t": 194437.5,
      "d": 100,
      "v": 89
    },
    {
      "midi": 43,
      "hit": false,
      "t": 194625,
      "d": 121.875,
      "v": 107
    },
    {
      "midi": 43,
      "hit": false,
      "t": 194812.5,
      "d": 134.375,
      "v": 113
    },
    {
      "midi": 33,
      "hit": false,
      "t": 195000,
      "d": 118.75,
      "v": 105
    },
    {
      "midi": 77,
      "hit": false,
      "t": 195000,
      "d": 750,
      "v": 61
    },
    {
      "midi": 69,
      "hit": false,
      "t": 195000,
      "d": 750,
      "v": 50
    },
    {
      "midi": 33,
      "hit": false,
      "t": 195187.5,
      "d": 150,
      "v": 107
    },
    {
      "midi": 33,
      "hit": false,
      "t": 195375,
      "d": 118.75,
      "v": 102
    },
    {
      "midi": 33,
      "hit": false,
      "t": 195562.5,
      "d": 53.125,
      "v": 116
    },
    {
      "midi": 21,
      "hit": false,
      "t": 195656.25,
      "d": 46.875,
      "v": 80
    },
    {
      "midi": 34,
      "hit": false,
      "t": 195750,
      "d": 87.5,
      "v": 105
    },
    {
      "midi": 74,
      "hit": false,
      "t": 195750,
      "d": 884.375,
      "v": 47
    },
    {
      "midi": 77,
      "hit": false,
      "t": 195750,
      "d": 893.75,
      "v": 39
    },
    {
      "midi": 70,
      "hit": false,
      "t": 195750,
      "d": 915.625,
      "v": 46
    },
    {
      "midi": 65,
      "hit": false,
      "t": 195750,
      "d": 950,
      "v": 42
    },
    {
      "midi": 34,
      "hit": false,
      "t": 195937.5,
      "d": 68.75,
      "v": 100
    },
    {
      "midi": 34,
      "hit": false,
      "t": 196125,
      "d": 71.875,
      "v": 110
    },
    {
      "midi": 34,
      "hit": false,
      "t": 196312.5,
      "d": 159.375,
      "v": 116
    },
    {
      "midi": 34,
      "hit": false,
      "t": 196500,
      "d": 84.375,
      "v": 95
    },
    {
      "midi": 34,
      "hit": false,
      "t": 196687.5,
      "d": 71.875,
      "v": 95
    },
    {
      "midi": 46,
      "hit": false,
      "t": 196700,
      "d": 200,
      "v": 59
    },
    {
      "midi": 34,
      "hit": false,
      "t": 196875,
      "d": 103.125,
      "v": 122
    },
    {
      "midi": 74,
      "hit": false,
      "t": 196875,
      "d": 143.75,
      "v": 74
    },
    {
      "midi": 77,
      "hit": false,
      "t": 196875,
      "d": 159.375,
      "v": 65
    },
    {
      "midi": 70,
      "hit": false,
      "t": 196875,
      "d": 159.375,
      "v": 74
    },
    {
      "midi": 65,
      "hit": false,
      "t": 196875,
      "d": 168.75,
      "v": 51
    },
    {
      "midi": 34,
      "hit": false,
      "t": 197062.5,
      "d": 43.75,
      "v": 110
    },
    {
      "midi": 22,
      "hit": false,
      "t": 197156.25,
      "d": 53.125,
      "v": 85
    },
    {
      "midi": 36,
      "hit": false,
      "t": 197250,
      "d": 65.625,
      "v": 105
    },
    {
      "midi": 36,
      "hit": false,
      "t": 197437.5,
      "d": 153.125,
      "v": 116
    },
    {
      "midi": 72,
      "hit": false,
      "t": 197437.5,
      "d": 156.25,
      "v": 8
    },
    {
      "midi": 76,
      "hit": false,
      "t": 197437.5,
      "d": 159.375,
      "v": 29
    },
    {
      "midi": 36,
      "hit": false,
      "t": 197625,
      "d": 96.875,
      "v": 110
    },
    {
      "midi": 33,
      "hit": false,
      "t": 197812.5,
      "d": 78.125,
      "v": 110
    },
    {
      "midi": 38,
      "hit": false,
      "t": 198000,
      "d": 65.625,
      "v": 105
    },
    {
      "midi": 74,
      "hit": false,
      "t": 198000,
      "d": 750,
      "v": 61
    },
    {
      "midi": 65,
      "hit": false,
      "t": 198000,
      "d": 750,
      "v": 50
    },
    {
      "midi": 38,
      "hit": false,
      "t": 198187.5,
      "d": 153.125,
      "v": 116
    },
    {
      "midi": 38,
      "hit": false,
      "t": 198375,
      "d": 96.875,
      "v": 110
    },
    {
      "midi": 38,
      "hit": false,
      "t": 198562.5,
      "d": 78.125,
      "v": 110
    },
    {
      "midi": 39,
      "hit": false,
      "t": 198750,
      "d": 78.125,
      "v": 107
    },
    {
      "midi": 39,
      "hit": false,
      "t": 198937.5,
      "d": 106.25,
      "v": 107
    },
    {
      "midi": 67,
      "hit": false,
      "t": 198937.5,
      "d": 1168.75,
      "v": 59
    },
    {
      "midi": 39,
      "hit": false,
      "t": 199125,
      "d": 96.875,
      "v": 119
    },
    {
      "midi": 70,
      "hit": false,
      "t": 199125,
      "d": 981.25,
      "v": 64
    },
    {
      "midi": 75,
      "hit": false,
      "t": 199218.75,
      "d": 887.5,
      "v": 29
    },
    {
      "midi": 39,
      "hit": false,
      "t": 199312.5,
      "d": 121.875,
      "v": 107
    },
    {
      "midi": 79,
      "hit": false,
      "t": 199312.5,
      "d": 793.75,
      "v": 70
    },
    {
      "midi": 39,
      "hit": false,
      "t": 199500,
      "d": 78.125,
      "v": 107
    },
    {
      "midi": 39,
      "hit": false,
      "t": 199687.5,
      "d": 75,
      "v": 100
    },
    {
      "midi": 39,
      "hit": false,
      "t": 199875,
      "d": 187.5,
      "v": 105
    },
    {
      "midi": 42,
      "hit": false,
      "t": 200062.5,
      "d": 71.875,
      "v": 89
    },
    {
      "midi": 43,
      "hit": false,
      "t": 200250,
      "d": 118.75,
      "v": 105
    },
    {
      "midi": 82,
      "hit": false,
      "t": 200250,
      "d": 675,
      "v": 48
    },
    {
      "midi": 79,
      "hit": false,
      "t": 200250,
      "d": 675,
      "v": 55
    },
    {
      "midi": 70,
      "hit": false,
      "t": 200250,
      "d": 693.75,
      "v": 61
    },
    {
      "midi": 43,
      "hit": false,
      "t": 200437.5,
      "d": 150,
      "v": 107
    },
    {
      "midi": 43,
      "hit": false,
      "t": 200625,
      "d": 118.75,
      "v": 102
    },
    {
      "midi": 43,
      "hit": false,
      "t": 200812.5,
      "d": 53.125,
      "v": 116
    },
    {
      "midi": 31,
      "hit": false,
      "t": 200906.25,
      "d": 46.875,
      "v": 80
    },
    {
      "midi": 33,
      "hit": false,
      "t": 201000,
      "d": 118.75,
      "v": 107
    },
    {
      "midi": 81,
      "hit": false,
      "t": 201000,
      "d": 675,
      "v": 48
    },
    {
      "midi": 77,
      "hit": false,
      "t": 201000,
      "d": 675,
      "v": 55
    },
    {
      "midi": 69,
      "hit": false,
      "t": 201000,
      "d": 693.75,
      "v": 61
    },
    {
      "midi": 21,
      "hit": false,
      "t": 201093.75,
      "d": 87.5,
      "v": 82
    },
    {
      "midi": 33,
      "hit": false,
      "t": 201187.5,
      "d": 100,
      "v": 89
    },
    {
      "midi": 33,
      "hit": false,
      "t": 201375,
      "d": 121.875,
      "v": 107
    },
    {
      "midi": 33,
      "hit": false,
      "t": 201562.5,
      "d": 134.375,
      "v": 113
    },
    {
      "midi": 34,
      "hit": false,
      "t": 201750,
      "d": 96.875,
      "v": 102
    },
    {
      "midi": 77,
      "hit": false,
      "t": 201750,
      "d": 878.125,
      "v": 43
    },
    {
      "midi": 74,
      "hit": false,
      "t": 201750,
      "d": 940.625,
      "v": 41
    },
    {
      "midi": 70,
      "hit": false,
      "t": 201750,
      "d": 1053.125,
      "v": 45
    },
    {
      "midi": 65,
      "hit": false,
      "t": 201750,
      "d": 1493.75,
      "v": 43
    },
    {
      "midi": 34,
      "hit": false,
      "t": 201937.5,
      "d": 118.75,
      "v": 98
    },
    {
      "midi": 34,
      "hit": false,
      "t": 202125,
      "d": 106.25,
      "v": 119
    },
    {
      "midi": 34,
      "hit": false,
      "t": 202312.5,
      "d": 118.75,
      "v": 105
    },
    {
      "midi": 22,
      "hit": false,
      "t": 202406.25,
      "d": 50,
      "v": 93
    },
    {
      "midi": 34,
      "hit": false,
      "t": 202500,
      "d": 96.875,
      "v": 85
    },
    {
      "midi": 34,
      "hit": false,
      "t": 202687.5,
      "d": 65.625,
      "v": 107
    },
    {
      "midi": 77,
      "hit": false,
      "t": 202690.625,
      "d": 184.375,
      "v": 66
    },
    {
      "midi": 74,
      "hit": false,
      "t": 202803.125,
      "d": 146.875,
      "v": 64
    },
    {
      "midi": 34,
      "hit": false,
      "t": 202875,
      "d": 156.25,
      "v": 113
    },
    {
      "midi": 70,
      "hit": false,
      "t": 202875,
      "d": 159.375,
      "v": 57
    },
    {
      "midi": 77,
      "hit": false,
      "t": 202968.75,
      "d": 187.5,
      "v": 72
    },
    {
      "midi": 35,
      "hit": false,
      "t": 203062.5,
      "d": 59.375,
      "v": 98
    },
    {
      "midi": 74,
      "hit": false,
      "t": 203062.5,
      "d": 121.875,
      "v": 59
    },
    {
      "midi": 70,
      "hit": false,
      "t": 203156.25,
      "d": 75,
      "v": 64
    },
    {
      "midi": 36,
      "hit": false,
      "t": 203250,
      "d": 65.625,
      "v": 105
    },
    {
      "midi": 79,
      "hit": false,
      "t": 203250,
      "d": 750,
      "v": 60
    },
    {
      "midi": 67,
      "hit": false,
      "t": 203250,
      "d": 750,
      "v": 56
    },
    {
      "midi": 76,
      "hit": false,
      "t": 203250,
      "d": 750,
      "v": 60
    },
    {
      "midi": 72,
      "hit": false,
      "t": 203250,
      "d": 750,
      "v": 45
    },
    {
      "midi": 36,
      "hit": false,
      "t": 203437.5,
      "d": 153.125,
      "v": 116
    },
    {
      "midi": 36,
      "hit": false,
      "t": 203625,
      "d": 96.875,
      "v": 110
    },
    {
      "midi": 33,
      "hit": false,
      "t": 203812.5,
      "d": 78.125,
      "v": 110
    },
    {
      "midi": 38,
      "hit": false,
      "t": 204000,
      "d": 118.75,
      "v": 107
    },
    {
      "midi": 77,
      "hit": false,
      "t": 204000,
      "d": 675,
      "v": 48
    },
    {
      "midi": 74,
      "hit": false,
      "t": 204000,
      "d": 675,
      "v": 55
    },
    {
      "midi": 65,
      "hit": false,
      "t": 204000,
      "d": 693.75,
      "v": 61
    },
    {
      "midi": 26,
      "hit": false,
      "t": 204093.75,
      "d": 87.5,
      "v": 82
    },
    {
      "midi": 38,
      "hit": false,
      "t": 204187.5,
      "d": 100,
      "v": 89
    },
    {
      "midi": 38,
      "hit": false,
      "t": 204375,
      "d": 121.875,
      "v": 107
    },
    {
      "midi": 38,
      "hit": false,
      "t": 204562.5,
      "d": 134.375,
      "v": 113
    },
    {
      "midi": 39,
      "hit": false,
      "t": 204750,
      "d": 93.75,
      "v": 105
    },
    {
      "midi": 70,
      "hit": false,
      "t": 204750,
      "d": 1550,
      "v": 37
    },
    {
      "midi": 79,
      "hit": false,
      "t": 204750,
      "d": 1565.625,
      "v": 48
    },
    {
      "midi": 75,
      "hit": false,
      "t": 204750,
      "d": 1575,
      "v": 54
    },
    {
      "midi": 39,
      "hit": false,
      "t": 204937.5,
      "d": 93.75,
      "v": 102
    },
    {
      "midi": 39,
      "hit": false,
      "t": 205125,
      "d": 100,
      "v": 107
    },
    {
      "midi": 39,
      "hit": false,
      "t": 205312.5,
      "d": 118.75,
      "v": 116
    },
    {
      "midi": 27,
      "hit": false,
      "t": 205406.25,
      "d": 50,
      "v": 72
    },
    {
      "midi": 39,
      "hit": false,
      "t": 205500,
      "d": 87.5,
      "v": 82
    },
    {
      "midi": 39,
      "hit": false,
      "t": 205687.5,
      "d": 87.5,
      "v": 105
    },
    {
      "midi": 39,
      "hit": false,
      "t": 205875,
      "d": 121.875,
      "v": 105
    },
    {
      "midi": 39,
      "hit": false,
      "t": 206062.5,
      "d": 140.625,
      "v": 105
    },
    {
      "midi": 39,
      "hit": false,
      "t": 206250,
      "d": 87.5,
      "v": 98
    },
    {
      "midi": 39,
      "hit": false,
      "t": 206437.5,
      "d": 87.5,
      "v": 89
    },
    {
      "midi": 75,
      "hit": false,
      "t": 206437.5,
      "d": 59.375,
      "v": 59
    },
    {
      "midi": 79,
      "hit": false,
      "t": 206437.5,
      "d": 71.875,
      "v": 59
    },
    {
      "midi": 67,
      "hit": false,
      "t": 206437.5,
      "d": 71.875,
      "v": 44
    },
    {
      "midi": 39,
      "hit": false,
      "t": 206625,
      "d": 109.375,
      "v": 110
    },
    {
      "midi": 39,
      "hit": false,
      "t": 206812.5,
      "d": 137.5,
      "v": 95
    },
    {
      "midi": 39,
      "hit": false,
      "t": 207000,
      "d": 96.875,
      "v": 105
    },
    {
      "midi": 67,
      "hit": false,
      "t": 207000,
      "d": 78.125,
      "v": 46
    },
    {
      "midi": 75,
      "hit": false,
      "t": 207000,
      "d": 93.75,
      "v": 61
    },
    {
      "midi": 79,
      "hit": false,
      "t": 207000,
      "d": 106.25,
      "v": 63
    },
    {
      "midi": 39,
      "hit": false,
      "t": 207187.5,
      "d": 106.25,
      "v": 105
    },
    {
      "midi": 39,
      "hit": false,
      "t": 207375,
      "d": 109.375,
      "v": 107
    },
    {
      "midi": 75,
      "hit": false,
      "t": 207375,
      "d": 115.625,
      "v": 67
    },
    {
      "midi": 79,
      "hit": false,
      "t": 207375,
      "d": 128.125,
      "v": 72
    },
    {
      "midi": 67,
      "hit": false,
      "t": 207375,
      "d": 131.25,
      "v": 61
    },
    {
      "midi": 39,
      "hit": false,
      "t": 207562.5,
      "d": 121.875,
      "v": 113
    },
    {
      "midi": 39,
      "hit": false,
      "t": 207750,
      "d": 87.5,
      "v": 116
    },
    {
      "midi": 79,
      "hit": false,
      "t": 207750,
      "d": 140.625,
      "v": 57
    },
    {
      "midi": 75,
      "hit": false,
      "t": 207750,
      "d": 150,
      "v": 53
    },
    {
      "midi": 70,
      "hit": false,
      "t": 207750,
      "d": 150,
      "v": 35
    },
    {
      "midi": 82,
      "hit": false,
      "t": 207750,
      "d": 165.625,
      "v": 55
    },
    {
      "midi": 39,
      "hit": false,
      "t": 207937.5,
      "d": 106.25,
      "v": 116
    },
    {
      "midi": 39,
      "hit": false,
      "t": 208125,
      "d": 100,
      "v": 107
    },
    {
      "midi": 39,
      "hit": false,
      "t": 208312.5,
      "d": 112.5,
      "v": 116
    },
    {
      "midi": 79,
      "hit": false,
      "t": 208312.5,
      "d": 746.875,
      "v": 62
    },
    {
      "midi": 75,
      "hit": false,
      "t": 208312.5,
      "d": 746.875,
      "v": 62
    },
    {
      "midi": 82,
      "hit": false,
      "t": 208312.5,
      "d": 750,
      "v": 60
    },
    {
      "midi": 70,
      "hit": false,
      "t": 208312.5,
      "d": 756.25,
      "v": 60
    },
    {
      "midi": 39,
      "hit": false,
      "t": 208500,
      "d": 103.125,
      "v": 107
    },
    {
      "midi": 39,
      "hit": false,
      "t": 208687.5,
      "d": 96.875,
      "v": 105
    },
    {
      "midi": 27,
      "hit": false,
      "t": 208781.25,
      "d": 78.125,
      "v": 72
    },
    {
      "midi": 39,
      "hit": false,
      "t": 208875,
      "d": 87.5,
      "v": 127
    },
    {
      "midi": 27,
      "hit": false,
      "t": 208968.75,
      "d": 75,
      "v": 76
    },
    {
      "midi": 39,
      "hit": false,
      "t": 209062.5,
      "d": 81.25,
      "v": 110
    },
    {
      "midi": 39,
      "hit": false,
      "t": 209156.25,
      "d": 56.25,
      "v": 102
    },
    {
      "midi": 43,
      "hit": false,
      "t": 209250,
      "d": 65.625,
      "v": 105
    },
    {
      "midi": 43,
      "hit": false,
      "t": 209437.5,
      "d": 153.125,
      "v": 116
    },
    {
      "midi": 74,
      "hit": false,
      "t": 209437.5,
      "d": 156.25,
      "v": 8
    },
    {
      "midi": 79,
      "hit": false,
      "t": 209437.5,
      "d": 159.375,
      "v": 29
    },
    {
      "midi": 43,
      "hit": false,
      "t": 209625,
      "d": 96.875,
      "v": 110
    },
    {
      "midi": 40,
      "hit": false,
      "t": 209812.5,
      "d": 78.125,
      "v": 110
    },
    {
      "midi": 33,
      "hit": false,
      "t": 210000,
      "d": 118.75,
      "v": 107
    },
    {
      "midi": 77,
      "hit": false,
      "t": 210000,
      "d": 750,
      "v": 61
    },
    {
      "midi": 69,
      "hit": false,
      "t": 210000,
      "d": 750,
      "v": 50
    },
    {
      "midi": 21,
      "hit": false,
      "t": 210093.75,
      "d": 87.5,
      "v": 82
    },
    {
      "midi": 33,
      "hit": false,
      "t": 210187.5,
      "d": 100,
      "v": 89
    },
    {
      "midi": 33,
      "hit": false,
      "t": 210375,
      "d": 121.875,
      "v": 107
    },
    {
      "midi": 33,
      "hit": false,
      "t": 210562.5,
      "d": 134.375,
      "v": 113
    },
    {
      "midi": 34,
      "hit": false,
      "t": 210750,
      "d": 87.5,
      "v": 105
    },
    {
      "midi": 74,
      "hit": false,
      "t": 210750,
      "d": 884.375,
      "v": 47
    },
    {
      "midi": 77,
      "hit": false,
      "t": 210750,
      "d": 893.75,
      "v": 39
    },
    {
      "midi": 70,
      "hit": false,
      "t": 210750,
      "d": 915.625,
      "v": 46
    },
    {
      "midi": 65,
      "hit": false,
      "t": 210750,
      "d": 950,
      "v": 42
    },
    {
      "midi": 34,
      "hit": false,
      "t": 210937.5,
      "d": 68.75,
      "v": 100
    },
    {
      "midi": 34,
      "hit": false,
      "t": 211125,
      "d": 71.875,
      "v": 110
    },
    {
      "midi": 34,
      "hit": false,
      "t": 211312.5,
      "d": 159.375,
      "v": 116
    },
    {
      "midi": 34,
      "hit": false,
      "t": 211500,
      "d": 84.375,
      "v": 95
    },
    {
      "midi": 34,
      "hit": false,
      "t": 211687.5,
      "d": 71.875,
      "v": 95
    },
    {
      "midi": 46,
      "hit": false,
      "t": 211700,
      "d": 200,
      "v": 59
    },
    {
      "midi": 34,
      "hit": false,
      "t": 211875,
      "d": 103.125,
      "v": 122
    },
    {
      "midi": 74,
      "hit": false,
      "t": 211875,
      "d": 143.75,
      "v": 74
    },
    {
      "midi": 77,
      "hit": false,
      "t": 211875,
      "d": 159.375,
      "v": 65
    },
    {
      "midi": 70,
      "hit": false,
      "t": 211875,
      "d": 159.375,
      "v": 74
    },
    {
      "midi": 65,
      "hit": false,
      "t": 211875,
      "d": 168.75,
      "v": 51
    },
    {
      "midi": 34,
      "hit": false,
      "t": 212062.5,
      "d": 43.75,
      "v": 110
    },
    {
      "midi": 22,
      "hit": false,
      "t": 212156.25,
      "d": 53.125,
      "v": 85
    },
    {
      "midi": 36,
      "hit": false,
      "t": 212250,
      "d": 118.75,
      "v": 107
    },
    {
      "midi": 76,
      "hit": false,
      "t": 212250,
      "d": 750,
      "v": 61
    },
    {
      "midi": 67,
      "hit": false,
      "t": 212250,
      "d": 750,
      "v": 50
    },
    {
      "midi": 24,
      "hit": false,
      "t": 212343.75,
      "d": 87.5,
      "v": 82
    },
    {
      "midi": 36,
      "hit": false,
      "t": 212437.5,
      "d": 100,
      "v": 89
    },
    {
      "midi": 36,
      "hit": false,
      "t": 212625,
      "d": 121.875,
      "v": 107
    },
    {
      "midi": 36,
      "hit": false,
      "t": 212812.5,
      "d": 134.375,
      "v": 113
    },
    {
      "midi": 38,
      "hit": false,
      "t": 213000,
      "d": 118.75,
      "v": 105
    },
    {
      "midi": 38,
      "hit": false,
      "t": 213187.5,
      "d": 150,
      "v": 107
    },
    {
      "midi": 70,
      "hit": false,
      "t": 213187.5,
      "d": 156.25,
      "v": 8
    },
    {
      "midi": 74,
      "hit": false,
      "t": 213187.5,
      "d": 159.375,
      "v": 29
    },
    {
      "midi": 38,
      "hit": false,
      "t": 213375,
      "d": 118.75,
      "v": 102
    },
    {
      "midi": 38,
      "hit": false,
      "t": 213562.5,
      "d": 53.125,
      "v": 116
    },
    {
      "midi": 26,
      "hit": false,
      "t": 213656.25,
      "d": 46.875,
      "v": 80
    },
    {
      "midi": 39,
      "hit": false,
      "t": 213750,
      "d": 87.5,
      "v": 105
    },
    {
      "midi": 75,
      "hit": false,
      "t": 213750,
      "d": 1387.5,
      "v": 60
    },
    {
      "midi": 67,
      "hit": false,
      "t": 213750,
      "d": 1387.5,
      "v": 47
    },
    {
      "midi": 70,
      "hit": false,
      "t": 213750,
      "d": 1393.75,
      "v": 58
    },
    {
      "midi": 79,
      "hit": false,
      "t": 213750,
      "d": 1403.125,
      "v": 57
    },
    {
      "midi": 39,
      "hit": false,
      "t": 213937.5,
      "d": 68.75,
      "v": 100
    },
    {
      "midi": 39,
      "hit": false,
      "t": 214125,
      "d": 71.875,
      "v": 110
    },
    {
      "midi": 39,
      "hit": false,
      "t": 214312.5,
      "d": 159.375,
      "v": 116
    },
    {
      "midi": 39,
      "hit": false,
      "t": 214500,
      "d": 84.375,
      "v": 95
    },
    {
      "midi": 39,
      "hit": false,
      "t": 214687.5,
      "d": 71.875,
      "v": 95
    },
    {
      "midi": 39,
      "hit": false,
      "t": 214875,
      "d": 103.125,
      "v": 122
    },
    {
      "midi": 39,
      "hit": false,
      "t": 215062.5,
      "d": 43.75,
      "v": 110
    },
    {
      "midi": 27,
      "hit": false,
      "t": 215156.25,
      "d": 53.125,
      "v": 85
    },
    {
      "midi": 43,
      "hit": false,
      "t": 215250,
      "d": 118.75,
      "v": 107
    },
    {
      "midi": 31,
      "hit": false,
      "t": 215343.75,
      "d": 87.5,
      "v": 82
    },
    {
      "midi": 43,
      "hit": false,
      "t": 215437.5,
      "d": 100,
      "v": 89
    },
    {
      "midi": 74,
      "hit": false,
      "t": 215437.5,
      "d": 156.25,
      "v": 8
    },
    {
      "midi": 79,
      "hit": false,
      "t": 215437.5,
      "d": 159.375,
      "v": 29
    },
    {
      "midi": 43,
      "hit": false,
      "t": 215625,
      "d": 121.875,
      "v": 107
    },
    {
      "midi": 43,
      "hit": false,
      "t": 215812.5,
      "d": 134.375,
      "v": 113
    },
    {
      "midi": 33,
      "hit": false,
      "t": 216000,
      "d": 65.625,
      "v": 105
    },
    {
      "midi": 77,
      "hit": false,
      "t": 216000,
      "d": 750,
      "v": 61
    },
    {
      "midi": 69,
      "hit": false,
      "t": 216000,
      "d": 750,
      "v": 50
    },
    {
      "midi": 33,
      "hit": false,
      "t": 216187.5,
      "d": 153.125,
      "v": 116
    },
    {
      "midi": 33,
      "hit": false,
      "t": 216375,
      "d": 96.875,
      "v": 110
    },
    {
      "midi": 33,
      "hit": false,
      "t": 216562.5,
      "d": 78.125,
      "v": 110
    },
    {
      "midi": 34,
      "hit": false,
      "t": 216750,
      "d": 87.5,
      "v": 116
    },
    {
      "midi": 77,
      "hit": false,
      "t": 216750,
      "d": 878.125,
      "v": 43
    },
    {
      "midi": 74,
      "hit": false,
      "t": 216750,
      "d": 940.625,
      "v": 41
    },
    {
      "midi": 70,
      "hit": false,
      "t": 216750,
      "d": 1053.125,
      "v": 45
    },
    {
      "midi": 65,
      "hit": false,
      "t": 216750,
      "d": 1493.75,
      "v": 43
    },
    {
      "midi": 34,
      "hit": false,
      "t": 216937.5,
      "d": 106.25,
      "v": 116
    },
    {
      "midi": 34,
      "hit": false,
      "t": 217125,
      "d": 100,
      "v": 107
    },
    {
      "midi": 34,
      "hit": false,
      "t": 217312.5,
      "d": 112.5,
      "v": 116
    },
    {
      "midi": 34,
      "hit": false,
      "t": 217500,
      "d": 103.125,
      "v": 107
    },
    {
      "midi": 34,
      "hit": false,
      "t": 217687.5,
      "d": 96.875,
      "v": 105
    },
    {
      "midi": 77,
      "hit": false,
      "t": 217690.625,
      "d": 184.375,
      "v": 66
    },
    {
      "midi": 22,
      "hit": false,
      "t": 217781.25,
      "d": 78.125,
      "v": 72
    },
    {
      "midi": 74,
      "hit": false,
      "t": 217803.125,
      "d": 146.875,
      "v": 64
    },
    {
      "midi": 34,
      "hit": false,
      "t": 217875,
      "d": 87.5,
      "v": 127
    },
    {
      "midi": 70,
      "hit": false,
      "t": 217875,
      "d": 159.375,
      "v": 57
    },
    {
      "midi": 22,
      "hit": false,
      "t": 217968.75,
      "d": 75,
      "v": 76
    },
    {
      "midi": 77,
      "hit": false,
      "t": 217968.75,
      "d": 187.5,
      "v": 72
    },
    {
      "midi": 34,
      "hit": false,
      "t": 218062.5,
      "d": 81.25,
      "v": 110
    },
    {
      "midi": 74,
      "hit": false,
      "t": 218062.5,
      "d": 121.875,
      "v": 59
    },
    {
      "midi": 34,
      "hit": false,
      "t": 218156.25,
      "d": 56.25,
      "v": 102
    },
    {
      "midi": 70,
      "hit": false,
      "t": 218156.25,
      "d": 75,
      "v": 64
    },
    {
      "midi": 36,
      "hit": false,
      "t": 218250,
      "d": 118.75,
      "v": 105
    },
    {
      "midi": 36,
      "hit": false,
      "t": 218437.5,
      "d": 150,
      "v": 107
    },
    {
      "midi": 72,
      "hit": false,
      "t": 218437.5,
      "d": 156.25,
      "v": 8
    },
    {
      "midi": 76,
      "hit": false,
      "t": 218437.5,
      "d": 159.375,
      "v": 29
    },
    {
      "midi": 36,
      "hit": false,
      "t": 218625,
      "d": 118.75,
      "v": 102
    },
    {
      "midi": 36,
      "hit": false,
      "t": 218812.5,
      "d": 53.125,
      "v": 116
    },
    {
      "midi": 24,
      "hit": false,
      "t": 218906.25,
      "d": 46.875,
      "v": 80
    },
    {
      "midi": 38,
      "hit": false,
      "t": 219000,
      "d": 118.75,
      "v": 105
    },
    {
      "midi": 77,
      "hit": false,
      "t": 219000,
      "d": 750,
      "v": 60
    },
    {
      "midi": 65,
      "hit": false,
      "t": 219000,
      "d": 750,
      "v": 56
    },
    {
      "midi": 74,
      "hit": false,
      "t": 219000,
      "d": 750,
      "v": 60
    },
    {
      "midi": 70,
      "hit": false,
      "t": 219000,
      "d": 750,
      "v": 45
    },
    {
      "midi": 38,
      "hit": false,
      "t": 219187.5,
      "d": 150,
      "v": 107
    },
    {
      "midi": 38,
      "hit": false,
      "t": 219375,
      "d": 118.75,
      "v": 102
    },
    {
      "midi": 38,
      "hit": false,
      "t": 219562.5,
      "d": 53.125,
      "v": 116
    },
    {
      "midi": 26,
      "hit": false,
      "t": 219656.25,
      "d": 46.875,
      "v": 80
    },
    {
      "midi": 39,
      "hit": false,
      "t": 219750,
      "d": 87.5,
      "v": 105
    },
    {
      "midi": 75,
      "hit": false,
      "t": 219750,
      "d": 884.375,
      "v": 47
    },
    {
      "midi": 79,
      "hit": false,
      "t": 219750,
      "d": 893.75,
      "v": 39
    },
    {
      "midi": 70,
      "hit": false,
      "t": 219750,
      "d": 915.625,
      "v": 46
    },
    {
      "midi": 67,
      "hit": false,
      "t": 219750,
      "d": 950,
      "v": 42
    },
    {
      "midi": 39,
      "hit": false,
      "t": 219937.5,
      "d": 68.75,
      "v": 100
    },
    {
      "midi": 39,
      "hit": false,
      "t": 220125,
      "d": 71.875,
      "v": 110
    },
    {
      "midi": 39,
      "hit": false,
      "t": 220312.5,
      "d": 159.375,
      "v": 116
    },
    {
      "midi": 39,
      "hit": false,
      "t": 220500,
      "d": 84.375,
      "v": 95
    },
    {
      "midi": 39,
      "hit": false,
      "t": 220687.5,
      "d": 71.875,
      "v": 95
    },
    {
      "midi": 39,
      "hit": false,
      "t": 220700,
      "d": 200,
      "v": 59
    },
    {
      "midi": 39,
      "hit": false,
      "t": 220875,
      "d": 103.125,
      "v": 122
    },
    {
      "midi": 75,
      "hit": false,
      "t": 220875,
      "d": 143.75,
      "v": 74
    },
    {
      "midi": 79,
      "hit": false,
      "t": 220875,
      "d": 159.375,
      "v": 65
    },
    {
      "midi": 70,
      "hit": false,
      "t": 220875,
      "d": 159.375,
      "v": 74
    },
    {
      "midi": 67,
      "hit": false,
      "t": 220875,
      "d": 168.75,
      "v": 51
    },
    {
      "midi": 39,
      "hit": false,
      "t": 221062.5,
      "d": 43.75,
      "v": 110
    },
    {
      "midi": 27,
      "hit": false,
      "t": 221156.25,
      "d": 53.125,
      "v": 85
    },
    {
      "midi": 43,
      "hit": false,
      "t": 221250,
      "d": 118.75,
      "v": 105
    },
    {
      "midi": 82,
      "hit": false,
      "t": 221250,
      "d": 675,
      "v": 48
    },
    {
      "midi": 79,
      "hit": false,
      "t": 221250,
      "d": 675,
      "v": 55
    },
    {
      "midi": 70,
      "hit": false,
      "t": 221250,
      "d": 693.75,
      "v": 61
    },
    {
      "midi": 43,
      "hit": false,
      "t": 221437.5,
      "d": 150,
      "v": 107
    },
    {
      "midi": 43,
      "hit": false,
      "t": 221625,
      "d": 118.75,
      "v": 102
    },
    {
      "midi": 43,
      "hit": false,
      "t": 221812.5,
      "d": 53.125,
      "v": 116
    },
    {
      "midi": 31,
      "hit": false,
      "t": 221906.25,
      "d": 46.875,
      "v": 80
    },
    {
      "midi": 33,
      "hit": false,
      "t": 222000,
      "d": 118.75,
      "v": 107
    },
    {
      "midi": 21,
      "hit": false,
      "t": 222093.75,
      "d": 87.5,
      "v": 82
    },
    {
      "midi": 33,
      "hit": false,
      "t": 222187.5,
      "d": 100,
      "v": 89
    },
    {
      "midi": 72,
      "hit": false,
      "t": 222187.5,
      "d": 156.25,
      "v": 8
    },
    {
      "midi": 77,
      "hit": false,
      "t": 222187.5,
      "d": 159.375,
      "v": 29
    },
    {
      "midi": 33,
      "hit": false,
      "t": 222375,
      "d": 121.875,
      "v": 107
    },
    {
      "midi": 33,
      "hit": false,
      "t": 222562.5,
      "d": 134.375,
      "v": 113
    },
    {
      "midi": 34,
      "hit": false,
      "t": 222750,
      "d": 96.875,
      "v": 102
    },
    {
      "midi": 74,
      "hit": false,
      "t": 222750,
      "d": 1387.5,
      "v": 60
    },
    {
      "midi": 65,
      "hit": false,
      "t": 222750,
      "d": 1387.5,
      "v": 47
    },
    {
      "midi": 70,
      "hit": false,
      "t": 222750,
      "d": 1393.75,
      "v": 58
    },
    {
      "midi": 77,
      "hit": false,
      "t": 222750,
      "d": 1403.125,
      "v": 57
    },
    {
      "midi": 34,
      "hit": false,
      "t": 222937.5,
      "d": 118.75,
      "v": 98
    },
    {
      "midi": 34,
      "hit": false,
      "t": 223125,
      "d": 106.25,
      "v": 119
    },
    {
      "midi": 34,
      "hit": false,
      "t": 223312.5,
      "d": 118.75,
      "v": 105
    },
    {
      "midi": 22,
      "hit": false,
      "t": 223406.25,
      "d": 50,
      "v": 93
    },
    {
      "midi": 34,
      "hit": false,
      "t": 223500,
      "d": 96.875,
      "v": 85
    },
    {
      "midi": 34,
      "hit": false,
      "t": 223687.5,
      "d": 65.625,
      "v": 107
    },
    {
      "midi": 34,
      "hit": false,
      "t": 223875,
      "d": 156.25,
      "v": 113
    },
    {
      "midi": 35,
      "hit": false,
      "t": 224062.5,
      "d": 59.375,
      "v": 98
    },
    {
      "midi": 36,
      "hit": false,
      "t": 224250,
      "d": 118.75,
      "v": 105
    },
    {
      "midi": 79,
      "hit": false,
      "t": 224250,
      "d": 750,
      "v": 60
    },
    {
      "midi": 67,
      "hit": false,
      "t": 224250,
      "d": 750,
      "v": 56
    },
    {
      "midi": 76,
      "hit": false,
      "t": 224250,
      "d": 750,
      "v": 60
    },
    {
      "midi": 72,
      "hit": false,
      "t": 224250,
      "d": 750,
      "v": 45
    },
    {
      "midi": 36,
      "hit": false,
      "t": 224437.5,
      "d": 150,
      "v": 107
    },
    {
      "midi": 36,
      "hit": false,
      "t": 224625,
      "d": 118.75,
      "v": 102
    },
    {
      "midi": 36,
      "hit": false,
      "t": 224812.5,
      "d": 53.125,
      "v": 116
    },
    {
      "midi": 24,
      "hit": false,
      "t": 224906.25,
      "d": 46.875,
      "v": 80
    },
    {
      "midi": 38,
      "hit": false,
      "t": 225000,
      "d": 118.75,
      "v": 105
    },
    {
      "midi": 77,
      "hit": false,
      "t": 225000,
      "d": 750,
      "v": 60
    },
    {
      "midi": 65,
      "hit": false,
      "t": 225000,
      "d": 750,
      "v": 56
    },
    {
      "midi": 74,
      "hit": false,
      "t": 225000,
      "d": 750,
      "v": 60
    },
    {
      "midi": 70,
      "hit": false,
      "t": 225000,
      "d": 750,
      "v": 45
    },
    {
      "midi": 38,
      "hit": false,
      "t": 225187.5,
      "d": 150,
      "v": 107
    },
    {
      "midi": 38,
      "hit": false,
      "t": 225375,
      "d": 118.75,
      "v": 102
    },
    {
      "midi": 38,
      "hit": false,
      "t": 225562.5,
      "d": 53.125,
      "v": 116
    },
    {
      "midi": 26,
      "hit": false,
      "t": 225656.25,
      "d": 46.875,
      "v": 80
    },
    {
      "midi": 39,
      "hit": false,
      "t": 225750,
      "d": 78.125,
      "v": 107
    },
    {
      "midi": 79,
      "hit": false,
      "t": 225750,
      "d": 140.625,
      "v": 57
    },
    {
      "midi": 75,
      "hit": false,
      "t": 225750,
      "d": 150,
      "v": 53
    },
    {
      "midi": 70,
      "hit": false,
      "t": 225750,
      "d": 150,
      "v": 35
    },
    {
      "midi": 82,
      "hit": false,
      "t": 225750,
      "d": 165.625,
      "v": 55
    },
    {
      "midi": 39,
      "hit": false,
      "t": 225937.5,
      "d": 106.25,
      "v": 107
    },
    {
      "midi": 39,
      "hit": false,
      "t": 226125,
      "d": 96.875,
      "v": 119
    },
    {
      "midi": 39,
      "hit": false,
      "t": 226312.5,
      "d": 121.875,
      "v": 107
    },
    {
      "midi": 79,
      "hit": false,
      "t": 226312.5,
      "d": 746.875,
      "v": 62
    },
    {
      "midi": 75,
      "hit": false,
      "t": 226312.5,
      "d": 746.875,
      "v": 62
    },
    {
      "midi": 82,
      "hit": false,
      "t": 226312.5,
      "d": 750,
      "v": 60
    },
    {
      "midi": 70,
      "hit": false,
      "t": 226312.5,
      "d": 756.25,
      "v": 60
    },
    {
      "midi": 39,
      "hit": false,
      "t": 226500,
      "d": 78.125,
      "v": 107
    },
    {
      "midi": 39,
      "hit": false,
      "t": 226687.5,
      "d": 75,
      "v": 100
    },
    {
      "midi": 39,
      "hit": false,
      "t": 226875,
      "d": 187.5,
      "v": 105
    },
    {
      "midi": 42,
      "hit": false,
      "t": 227062.5,
      "d": 71.875,
      "v": 89
    },
    {
      "midi": 43,
      "hit": false,
      "t": 227250,
      "d": 118.75,
      "v": 107
    },
    {
      "midi": 82,
      "hit": false,
      "t": 227250,
      "d": 750,
      "v": 60
    },
    {
      "midi": 70,
      "hit": false,
      "t": 227250,
      "d": 750,
      "v": 56
    },
    {
      "midi": 79,
      "hit": false,
      "t": 227250,
      "d": 750,
      "v": 60
    },
    {
      "midi": 74,
      "hit": false,
      "t": 227250,
      "d": 750,
      "v": 45
    },
    {
      "midi": 31,
      "hit": false,
      "t": 227343.75,
      "d": 87.5,
      "v": 82
    },
    {
      "midi": 43,
      "hit": false,
      "t": 227437.5,
      "d": 100,
      "v": 89
    },
    {
      "midi": 43,
      "hit": false,
      "t": 227625,
      "d": 121.875,
      "v": 107
    },
    {
      "midi": 43,
      "hit": false,
      "t": 227812.5,
      "d": 134.375,
      "v": 113
    },
    {
      "midi": 33,
      "hit": false,
      "t": 228000,
      "d": 65.625,
      "v": 105
    },
    {
      "midi": 81,
      "hit": false,
      "t": 228000,
      "d": 675,
      "v": 48
    },
    {
      "midi": 77,
      "hit": false,
      "t": 228000,
      "d": 675,
      "v": 55
    },
    {
      "midi": 69,
      "hit": false,
      "t": 228000,
      "d": 693.75,
      "v": 61
    },
    {
      "midi": 33,
      "hit": false,
      "t": 228187.5,
      "d": 153.125,
      "v": 116
    },
    {
      "midi": 33,
      "hit": false,
      "t": 228375,
      "d": 96.875,
      "v": 110
    },
    {
      "midi": 33,
      "hit": false,
      "t": 228562.5,
      "d": 78.125,
      "v": 110
    },
    {
      "midi": 34,
      "hit": false,
      "t": 228750,
      "d": 87.5,
      "v": 105
    },
    {
      "midi": 34,
      "hit": false,
      "t": 228937.5,
      "d": 68.75,
      "v": 100
    },
    {
      "midi": 65,
      "hit": false,
      "t": 228937.5,
      "d": 1168.75,
      "v": 59
    },
    {
      "midi": 34,
      "hit": false,
      "t": 229125,
      "d": 71.875,
      "v": 110
    },
    {
      "midi": 70,
      "hit": false,
      "t": 229125,
      "d": 981.25,
      "v": 64
    },
    {
      "midi": 74,
      "hit": false,
      "t": 229218.75,
      "d": 887.5,
      "v": 29
    },
    {
      "midi": 34,
      "hit": false,
      "t": 229312.5,
      "d": 159.375,
      "v": 116
    },
    {
      "midi": 77,
      "hit": false,
      "t": 229312.5,
      "d": 793.75,
      "v": 70
    },
    {
      "midi": 34,
      "hit": false,
      "t": 229500,
      "d": 84.375,
      "v": 95
    },
    {
      "midi": 34,
      "hit": false,
      "t": 229687.5,
      "d": 71.875,
      "v": 95
    },
    {
      "midi": 34,
      "hit": false,
      "t": 229875,
      "d": 103.125,
      "v": 122
    },
    {
      "midi": 34,
      "hit": false,
      "t": 230062.5,
      "d": 43.75,
      "v": 110
    },
    {
      "midi": 22,
      "hit": false,
      "t": 230156.25,
      "d": 53.125,
      "v": 85
    },
    {
      "midi": 36,
      "hit": false,
      "t": 230250,
      "d": 118.75,
      "v": 107
    },
    {
      "midi": 24,
      "hit": false,
      "t": 230343.75,
      "d": 87.5,
      "v": 82
    },
    {
      "midi": 36,
      "hit": false,
      "t": 230437.5,
      "d": 100,
      "v": 89
    },
    {
      "midi": 72,
      "hit": false,
      "t": 230437.5,
      "d": 156.25,
      "v": 8
    },
    {
      "midi": 76,
      "hit": false,
      "t": 230437.5,
      "d": 159.375,
      "v": 29
    },
    {
      "midi": 36,
      "hit": false,
      "t": 230625,
      "d": 121.875,
      "v": 107
    },
    {
      "midi": 36,
      "hit": false,
      "t": 230812.5,
      "d": 134.375,
      "v": 113
    },
    {
      "midi": 38,
      "hit": false,
      "t": 231000,
      "d": 118.75,
      "v": 107
    },
    {
      "midi": 26,
      "hit": false,
      "t": 231093.75,
      "d": 87.5,
      "v": 82
    },
    {
      "midi": 38,
      "hit": false,
      "t": 231187.5,
      "d": 100,
      "v": 89
    },
    {
      "midi": 70,
      "hit": false,
      "t": 231187.5,
      "d": 156.25,
      "v": 8
    },
    {
      "midi": 74,
      "hit": false,
      "t": 231187.5,
      "d": 159.375,
      "v": 29
    },
    {
      "midi": 38,
      "hit": false,
      "t": 231375,
      "d": 121.875,
      "v": 107
    },
    {
      "midi": 38,
      "hit": false,
      "t": 231562.5,
      "d": 134.375,
      "v": 113
    },
    {
      "midi": 39,
      "hit": false,
      "t": 231750,
      "d": 87.5,
      "v": 105
    },
    {
      "midi": 75,
      "hit": false,
      "t": 231750,
      "d": 1387.5,
      "v": 60
    },
    {
      "midi": 67,
      "hit": false,
      "t": 231750,
      "d": 1387.5,
      "v": 47
    },
    {
      "midi": 70,
      "hit": false,
      "t": 231750,
      "d": 1393.75,
      "v": 58
    },
    {
      "midi": 79,
      "hit": false,
      "t": 231750,
      "d": 1403.125,
      "v": 57
    },
    {
      "midi": 39,
      "hit": false,
      "t": 231937.5,
      "d": 68.75,
      "v": 100
    },
    {
      "midi": 39,
      "hit": false,
      "t": 232125,
      "d": 71.875,
      "v": 110
    },
    {
      "midi": 39,
      "hit": false,
      "t": 232312.5,
      "d": 159.375,
      "v": 116
    },
    {
      "midi": 39,
      "hit": false,
      "t": 232500,
      "d": 84.375,
      "v": 95
    },
    {
      "midi": 39,
      "hit": false,
      "t": 232687.5,
      "d": 71.875,
      "v": 95
    },
    {
      "midi": 39,
      "hit": false,
      "t": 232875,
      "d": 103.125,
      "v": 122
    },
    {
      "midi": 39,
      "hit": false,
      "t": 233062.5,
      "d": 43.75,
      "v": 110
    },
    {
      "midi": 27,
      "hit": false,
      "t": 233156.25,
      "d": 53.125,
      "v": 85
    },
    {
      "midi": 43,
      "hit": false,
      "t": 233250,
      "d": 137.5,
      "v": 105
    },
    {
      "midi": 74,
      "hit": false,
      "t": 233250,
      "d": 1550,
      "v": 37
    },
    {
      "midi": 82,
      "hit": false,
      "t": 233250,
      "d": 1565.625,
      "v": 48
    },
    {
      "midi": 79,
      "hit": false,
      "t": 233250,
      "d": 1575,
      "v": 54
    },
    {
      "midi": 43,
      "hit": false,
      "t": 233437.5,
      "d": 103.125,
      "v": 89
    },
    {
      "midi": 43,
      "hit": false,
      "t": 233625,
      "d": 125,
      "v": 105
    },
    {
      "midi": 43,
      "hit": false,
      "t": 233812.5,
      "d": 137.5,
      "v": 98
    },
    {
      "midi": 43,
      "hit": false,
      "t": 234000,
      "d": 112.5,
      "v": 102
    },
    {
      "midi": 43,
      "hit": false,
      "t": 234187.5,
      "d": 115.625,
      "v": 102
    },
    {
      "midi": 43,
      "hit": false,
      "t": 234375,
      "d": 134.375,
      "v": 110
    },
    {
      "midi": 43,
      "hit": false,
      "t": 234562.5,
      "d": 162.5,
      "v": 98
    },
    {
      "midi": 43,
      "hit": false,
      "t": 234750,
      "d": 118.75,
      "v": 105
    },
    {
      "midi": 43,
      "hit": false,
      "t": 234937.5,
      "d": 134.375,
      "v": 110
    },
    {
      "midi": 79,
      "hit": false,
      "t": 234937.5,
      "d": 59.375,
      "v": 59
    },
    {
      "midi": 82,
      "hit": false,
      "t": 234937.5,
      "d": 71.875,
      "v": 59
    },
    {
      "midi": 70,
      "hit": false,
      "t": 234937.5,
      "d": 71.875,
      "v": 44
    },
    {
      "midi": 43,
      "hit": false,
      "t": 235125,
      "d": 131.25,
      "v": 107
    },
    {
      "midi": 43,
      "hit": false,
      "t": 235312.5,
      "d": 159.375,
      "v": 110
    },
    {
      "midi": 43,
      "hit": false,
      "t": 235500,
      "d": 106.25,
      "v": 100
    },
    {
      "midi": 70,
      "hit": false,
      "t": 235500,
      "d": 78.125,
      "v": 46
    },
    {
      "midi": 79,
      "hit": false,
      "t": 235500,
      "d": 93.75,
      "v": 61
    },
    {
      "midi": 82,
      "hit": false,
      "t": 235500,
      "d": 106.25,
      "v": 63
    },
    {
      "midi": 43,
      "hit": false,
      "t": 235687.5,
      "d": 146.875,
      "v": 107
    },
    {
      "midi": 43,
      "hit": false,
      "t": 235875,
      "d": 118.75,
      "v": 102
    },
    {
      "midi": 79,
      "hit": false,
      "t": 235875,
      "d": 115.625,
      "v": 67
    },
    {
      "midi": 82,
      "hit": false,
      "t": 235875,
      "d": 128.125,
      "v": 72
    },
    {
      "midi": 70,
      "hit": false,
      "t": 235875,
      "d": 131.25,
      "v": 61
    },
    {
      "midi": 43,
      "hit": false,
      "t": 236062.5,
      "d": 121.875,
      "v": 119
    },
    {
      "midi": 43,
      "hit": false,
      "t": 236250,
      "d": 78.125,
      "v": 107
    },
    {
      "midi": 82,
      "hit": false,
      "t": 236250,
      "d": 878.125,
      "v": 43
    },
    {
      "midi": 79,
      "hit": false,
      "t": 236250,
      "d": 940.625,
      "v": 41
    },
    {
      "midi": 74,
      "hit": false,
      "t": 236250,
      "d": 1053.125,
      "v": 45
    },
    {
      "midi": 70,
      "hit": false,
      "t": 236250,
      "d": 1493.75,
      "v": 43
    },
    {
      "midi": 43,
      "hit": false,
      "t": 236437.5,
      "d": 106.25,
      "v": 107
    },
    {
      "midi": 43,
      "hit": false,
      "t": 236625,
      "d": 96.875,
      "v": 119
    },
    {
      "midi": 43,
      "hit": false,
      "t": 236812.5,
      "d": 121.875,
      "v": 107
    },
    {
      "midi": 43,
      "hit": false,
      "t": 237000,
      "d": 78.125,
      "v": 107
    },
    {
      "midi": 43,
      "hit": false,
      "t": 237187.5,
      "d": 75,
      "v": 100
    },
    {
      "midi": 82,
      "hit": false,
      "t": 237190.625,
      "d": 184.375,
      "v": 66
    },
    {
      "midi": 79,
      "hit": false,
      "t": 237303.125,
      "d": 146.875,
      "v": 64
    },
    {
      "midi": 43,
      "hit": false,
      "t": 237375,
      "d": 187.5,
      "v": 105
    },
    {
      "midi": 74,
      "hit": false,
      "t": 237375,
      "d": 159.375,
      "v": 57
    },
    {
      "midi": 82,
      "hit": false,
      "t": 237468.75,
      "d": 187.5,
      "v": 72
    },
    {
      "midi": 35,
      "hit": false,
      "t": 237562.5,
      "d": 71.875,
      "v": 89
    },
    {
      "midi": 79,
      "hit": false,
      "t": 237562.5,
      "d": 121.875,
      "v": 59
    },
    {
      "midi": 74,
      "hit": false,
      "t": 237656.25,
      "d": 75,
      "v": 64
    },
    {
      "midi": 36,
      "hit": false,
      "t": 237750,
      "d": 87.5,
      "v": 105
    },
    {
      "midi": 79,
      "hit": false,
      "t": 237750,
      "d": 140.625,
      "v": 57
    },
    {
      "midi": 76,
      "hit": false,
      "t": 237750,
      "d": 150,
      "v": 53
    },
    {
      "midi": 72,
      "hit": false,
      "t": 237750,
      "d": 150,
      "v": 35
    },
    {
      "midi": 84,
      "hit": false,
      "t": 237750,
      "d": 165.625,
      "v": 55
    },
    {
      "midi": 36,
      "hit": false,
      "t": 237937.5,
      "d": 68.75,
      "v": 100
    },
    {
      "midi": 36,
      "hit": false,
      "t": 238125,
      "d": 71.875,
      "v": 110
    },
    {
      "midi": 36,
      "hit": false,
      "t": 238312.5,
      "d": 159.375,
      "v": 116
    },
    {
      "midi": 79,
      "hit": false,
      "t": 238312.5,
      "d": 746.875,
      "v": 62
    },
    {
      "midi": 76,
      "hit": false,
      "t": 238312.5,
      "d": 746.875,
      "v": 62
    },
    {
      "midi": 84,
      "hit": false,
      "t": 238312.5,
      "d": 750,
      "v": 60
    },
    {
      "midi": 72,
      "hit": false,
      "t": 238312.5,
      "d": 756.25,
      "v": 60
    },
    {
      "midi": 36,
      "hit": false,
      "t": 238500,
      "d": 84.375,
      "v": 95
    },
    {
      "midi": 36,
      "hit": false,
      "t": 238687.5,
      "d": 71.875,
      "v": 95
    },
    {
      "midi": 36,
      "hit": false,
      "t": 238875,
      "d": 103.125,
      "v": 122
    },
    {
      "midi": 36,
      "hit": false,
      "t": 239062.5,
      "d": 43.75,
      "v": 110
    },
    {
      "midi": 24,
      "hit": false,
      "t": 239156.25,
      "d": 53.125,
      "v": 85
    },
    {
      "midi": 36,
      "hit": false,
      "t": 239250,
      "d": 87.5,
      "v": 105
    },
    {
      "midi": 76,
      "hit": false,
      "t": 239250,
      "d": 1387.5,
      "v": 60
    },
    {
      "midi": 67,
      "hit": false,
      "t": 239250,
      "d": 1387.5,
      "v": 47
    },
    {
      "midi": 72,
      "hit": false,
      "t": 239250,
      "d": 1393.75,
      "v": 58
    },
    {
      "midi": 79,
      "hit": false,
      "t": 239250,
      "d": 1403.125,
      "v": 57
    },
    {
      "midi": 36,
      "hit": false,
      "t": 239437.5,
      "d": 68.75,
      "v": 100
    },
    {
      "midi": 36,
      "hit": false,
      "t": 239625,
      "d": 71.875,
      "v": 110
    },
    {
      "midi": 36,
      "hit": false,
      "t": 239812.5,
      "d": 159.375,
      "v": 116
    },
    {
      "midi": 36,
      "hit": false,
      "t": 240000,
      "d": 84.375,
      "v": 95
    },
    {
      "midi": 36,
      "hit": false,
      "t": 240187.5,
      "d": 71.875,
      "v": 95
    },
    {
      "midi": 36,
      "hit": false,
      "t": 240375,
      "d": 103.125,
      "v": 122
    },
    {
      "midi": 36,
      "hit": false,
      "t": 240562.5,
      "d": 43.75,
      "v": 110
    },
    {
      "midi": 24,
      "hit": false,
      "t": 240656.25,
      "d": 53.125,
      "v": 85
    },
    {
      "midi": 43,
      "hit": false,
      "t": 240750,
      "d": 87.5,
      "v": 116
    },
    {
      "midi": 79,
      "hit": false,
      "t": 240750,
      "d": 1387.5,
      "v": 60
    },
    {
      "midi": 70,
      "hit": false,
      "t": 240750,
      "d": 1387.5,
      "v": 47
    },
    {
      "midi": 74,
      "hit": false,
      "t": 240750,
      "d": 1393.75,
      "v": 58
    },
    {
      "midi": 82,
      "hit": false,
      "t": 240750,
      "d": 1403.125,
      "v": 57
    },
    {
      "midi": 43,
      "hit": false,
      "t": 240937.5,
      "d": 106.25,
      "v": 116
    },
    {
      "midi": 43,
      "hit": false,
      "t": 241125,
      "d": 100,
      "v": 107
    },
    {
      "midi": 43,
      "hit": false,
      "t": 241312.5,
      "d": 112.5,
      "v": 116
    },
    {
      "midi": 43,
      "hit": false,
      "t": 241500,
      "d": 103.125,
      "v": 107
    },
    {
      "midi": 43,
      "hit": false,
      "t": 241687.5,
      "d": 96.875,
      "v": 105
    },
    {
      "midi": 31,
      "hit": false,
      "t": 241781.25,
      "d": 78.125,
      "v": 72
    },
    {
      "midi": 43,
      "hit": false,
      "t": 241875,
      "d": 87.5,
      "v": 127
    },
    {
      "midi": 31,
      "hit": false,
      "t": 241968.75,
      "d": 75,
      "v": 76
    },
    {
      "midi": 43,
      "hit": false,
      "t": 242062.5,
      "d": 81.25,
      "v": 110
    },
    {
      "midi": 43,
      "hit": false,
      "t": 242156.25,
      "d": 56.25,
      "v": 102
    },
    {
      "midi": 43,
      "hit": false,
      "t": 242250,
      "d": 78.125,
      "v": 107
    },
    {
      "midi": 82,
      "hit": false,
      "t": 242250,
      "d": 878.125,
      "v": 43
    },
    {
      "midi": 79,
      "hit": false,
      "t": 242250,
      "d": 940.625,
      "v": 41
    },
    {
      "midi": 74,
      "hit": false,
      "t": 242250,
      "d": 1053.125,
      "v": 45
    },
    {
      "midi": 70,
      "hit": false,
      "t": 242250,
      "d": 1493.75,
      "v": 43
    },
    {
      "midi": 43,
      "hit": false,
      "t": 242437.5,
      "d": 106.25,
      "v": 107
    },
    {
      "midi": 43,
      "hit": false,
      "t": 242625,
      "d": 96.875,
      "v": 119
    },
    {
      "midi": 43,
      "hit": false,
      "t": 242812.5,
      "d": 121.875,
      "v": 107
    },
    {
      "midi": 43,
      "hit": false,
      "t": 243000,
      "d": 78.125,
      "v": 107
    },
    {
      "midi": 43,
      "hit": false,
      "t": 243187.5,
      "d": 75,
      "v": 100
    },
    {
      "midi": 82,
      "hit": false,
      "t": 243190.625,
      "d": 184.375,
      "v": 66
    },
    {
      "midi": 79,
      "hit": false,
      "t": 243303.125,
      "d": 146.875,
      "v": 64
    },
    {
      "midi": 43,
      "hit": false,
      "t": 243375,
      "d": 187.5,
      "v": 105
    },
    {
      "midi": 74,
      "hit": false,
      "t": 243375,
      "d": 159.375,
      "v": 57
    },
    {
      "midi": 82,
      "hit": false,
      "t": 243468.75,
      "d": 187.5,
      "v": 72
    },
    {
      "midi": 35,
      "hit": false,
      "t": 243562.5,
      "d": 71.875,
      "v": 89
    },
    {
      "midi": 79,
      "hit": false,
      "t": 243562.5,
      "d": 121.875,
      "v": 59
    },
    {
      "midi": 74,
      "hit": false,
      "t": 243656.25,
      "d": 75,
      "v": 64
    },
    {
      "midi": 36,
      "hit": false,
      "t": 243750,
      "d": 137.5,
      "v": 105
    },
    {
      "midi": 76,
      "hit": false,
      "t": 243750,
      "d": 1387.5,
      "v": 60
    },
    {
      "midi": 67,
      "hit": false,
      "t": 243750,
      "d": 1387.5,
      "v": 47
    },
    {
      "midi": 72,
      "hit": false,
      "t": 243750,
      "d": 1393.75,
      "v": 58
    },
    {
      "midi": 79,
      "hit": false,
      "t": 243750,
      "d": 1403.125,
      "v": 57
    },
    {
      "midi": 36,
      "hit": false,
      "t": 243937.5,
      "d": 103.125,
      "v": 89
    },
    {
      "midi": 36,
      "hit": false,
      "t": 244125,
      "d": 125,
      "v": 105
    },
    {
      "midi": 36,
      "hit": false,
      "t": 244312.5,
      "d": 137.5,
      "v": 98
    },
    {
      "midi": 36,
      "hit": false,
      "t": 244500,
      "d": 112.5,
      "v": 102
    },
    {
      "midi": 36,
      "hit": false,
      "t": 244687.5,
      "d": 115.625,
      "v": 102
    },
    {
      "midi": 36,
      "hit": false,
      "t": 244875,
      "d": 134.375,
      "v": 110
    },
    {
      "midi": 36,
      "hit": false,
      "t": 245062.5,
      "d": 162.5,
      "v": 98
    },
    {
      "midi": 36,
      "hit": false,
      "t": 245250,
      "d": 87.5,
      "v": 105
    },
    {
      "midi": 36,
      "hit": false,
      "t": 245437.5,
      "d": 68.75,
      "v": 100
    },
    {
      "midi": 67,
      "hit": false,
      "t": 245437.5,
      "d": 1168.75,
      "v": 59
    },
    {
      "midi": 36,
      "hit": false,
      "t": 245625,
      "d": 71.875,
      "v": 110
    },
    {
      "midi": 72,
      "hit": false,
      "t": 245625,
      "d": 981.25,
      "v": 64
    },
    {
      "midi": 76,
      "hit": false,
      "t": 245718.75,
      "d": 887.5,
      "v": 29
    },
    {
      "midi": 36,
      "hit": false,
      "t": 245812.5,
      "d": 159.375,
      "v": 116
    },
    {
      "midi": 79,
      "hit": false,
      "t": 245812.5,
      "d": 793.75,
      "v": 70
    },
    {
      "midi": 36,
      "hit": false,
      "t": 246000,
      "d": 84.375,
      "v": 95
    },
    {
      "midi": 36,
      "hit": false,
      "t": 246187.5,
      "d": 71.875,
      "v": 95
    },
    {
      "midi": 36,
      "hit": false,
      "t": 246375,
      "d": 103.125,
      "v": 122
    },
    {
      "midi": 36,
      "hit": false,
      "t": 246562.5,
      "d": 43.75,
      "v": 110
    },
    {
      "midi": 24,
      "hit": false,
      "t": 246656.25,
      "d": 53.125,
      "v": 85
    },
    {
      "midi": 43,
      "hit": false,
      "t": 246750,
      "d": 78.125,
      "v": 107
    },
    {
      "midi": 82,
      "hit": false,
      "t": 246750,
      "d": 140.625,
      "v": 57
    },
    {
      "midi": 79,
      "hit": false,
      "t": 246750,
      "d": 150,
      "v": 53
    },
    {
      "midi": 74,
      "hit": false,
      "t": 246750,
      "d": 150,
      "v": 35
    },
    {
      "midi": 86,
      "hit": false,
      "t": 246750,
      "d": 165.625,
      "v": 55
    },
    {
      "midi": 43,
      "hit": false,
      "t": 246937.5,
      "d": 106.25,
      "v": 107
    },
    {
      "midi": 43,
      "hit": false,
      "t": 247125,
      "d": 96.875,
      "v": 119
    },
    {
      "midi": 43,
      "hit": false,
      "t": 247312.5,
      "d": 121.875,
      "v": 107
    },
    {
      "midi": 82,
      "hit": false,
      "t": 247312.5,
      "d": 746.875,
      "v": 62
    },
    {
      "midi": 79,
      "hit": false,
      "t": 247312.5,
      "d": 746.875,
      "v": 62
    },
    {
      "midi": 86,
      "hit": false,
      "t": 247312.5,
      "d": 750,
      "v": 60
    },
    {
      "midi": 74,
      "hit": false,
      "t": 247312.5,
      "d": 756.25,
      "v": 60
    },
    {
      "midi": 43,
      "hit": false,
      "t": 247500,
      "d": 78.125,
      "v": 107
    },
    {
      "midi": 43,
      "hit": false,
      "t": 247687.5,
      "d": 75,
      "v": 100
    },
    {
      "midi": 43,
      "hit": false,
      "t": 247875,
      "d": 187.5,
      "v": 105
    },
    {
      "midi": 42,
      "hit": false,
      "t": 248062.5,
      "d": 71.875,
      "v": 89
    },
    {
      "midi": 43,
      "hit": false,
      "t": 248250,
      "d": 87.5,
      "v": 105
    },
    {
      "midi": 82,
      "hit": false,
      "t": 248250,
      "d": 878.125,
      "v": 43
    },
    {
      "midi": 79,
      "hit": false,
      "t": 248250,
      "d": 940.625,
      "v": 41
    },
    {
      "midi": 74,
      "hit": false,
      "t": 248250,
      "d": 1053.125,
      "v": 45
    },
    {
      "midi": 70,
      "hit": false,
      "t": 248250,
      "d": 1493.75,
      "v": 43
    },
    {
      "midi": 43,
      "hit": false,
      "t": 248437.5,
      "d": 68.75,
      "v": 100
    },
    {
      "midi": 43,
      "hit": false,
      "t": 248625,
      "d": 71.875,
      "v": 110
    },
    {
      "midi": 43,
      "hit": false,
      "t": 248812.5,
      "d": 159.375,
      "v": 116
    },
    {
      "midi": 43,
      "hit": false,
      "t": 249000,
      "d": 84.375,
      "v": 95
    },
    {
      "midi": 43,
      "hit": false,
      "t": 249187.5,
      "d": 71.875,
      "v": 95
    },
    {
      "midi": 82,
      "hit": false,
      "t": 249190.625,
      "d": 184.375,
      "v": 66
    },
    {
      "midi": 79,
      "hit": false,
      "t": 249303.125,
      "d": 146.875,
      "v": 64
    },
    {
      "midi": 43,
      "hit": false,
      "t": 249375,
      "d": 103.125,
      "v": 122
    },
    {
      "midi": 74,
      "hit": false,
      "t": 249375,
      "d": 159.375,
      "v": 57
    },
    {
      "midi": 82,
      "hit": false,
      "t": 249468.75,
      "d": 187.5,
      "v": 72
    },
    {
      "midi": 43,
      "hit": false,
      "t": 249562.5,
      "d": 43.75,
      "v": 110
    },
    {
      "midi": 79,
      "hit": false,
      "t": 249562.5,
      "d": 121.875,
      "v": 59
    },
    {
      "midi": 31,
      "hit": false,
      "t": 249656.25,
      "d": 53.125,
      "v": 85
    },
    {
      "midi": 74,
      "hit": false,
      "t": 249656.25,
      "d": 75,
      "v": 64
    },
    {
      "midi": 36,
      "hit": false,
      "t": 249750,
      "d": 96.875,
      "v": 102
    },
    {
      "midi": 79,
      "hit": false,
      "t": 249750,
      "d": 140.625,
      "v": 57
    },
    {
      "midi": 36,
      "hit": false,
      "t": 249937.5,
      "d": 118.75,
      "v": 98
    },
    {
      "midi": 36,
      "hit": false,
      "t": 250125,
      "d": 106.25,
      "v": 119
    },
    {
      "midi": 36,
      "hit": false,
      "t": 250312.5,
      "d": 118.75,
      "v": 105
    },
    {
      "midi": 24,
      "hit": false,
      "t": 250406.25,
      "d": 50,
      "v": 93
    },
    {
      "midi": 36,
      "hit": false,
      "t": 250500,
      "d": 96.875,
      "v": 85
    },
    {
      "midi": 36,
      "hit": false,
      "t": 250687.5,
      "d": 65.625,
      "v": 107
    },
    {
      "midi": 36,
      "hit": false,
      "t": 250875,
      "d": 156.25,
      "v": 113
    },
    {
      "midi": 35,
      "hit": false,
      "t": 251062.5,
      "d": 59.375,
      "v": 98
    },
    {
      "midi": 36,
      "hit": false,
      "t": 251250,
      "d": 87.5,
      "v": 116
    },
    {
      "midi": 36,
      "hit": false,
      "t": 251437.5,
      "d": 106.25,
      "v": 116
    },
    {
      "midi": 36,
      "hit": false,
      "t": 251625,
      "d": 100,
      "v": 107
    },
    {
      "midi": 36,
      "hit": false,
      "t": 251812.5,
      "d": 112.5,
      "v": 116
    },
    {
      "midi": 36,
      "hit": false,
      "t": 252000,
      "d": 103.125,
      "v": 107
    },
    {
      "midi": 36,
      "hit": false,
      "t": 252187.5,
      "d": 96.875,
      "v": 105
    },
    {
      "midi": 24,
      "hit": false,
      "t": 252281.25,
      "d": 78.125,
      "v": 72
    },
    {
      "midi": 36,
      "hit": false,
      "t": 252375,
      "d": 87.5,
      "v": 127
    },
    {
      "midi": 24,
      "hit": false,
      "t": 252468.75,
      "d": 75,
      "v": 76
    },
    {
      "midi": 36,
      "hit": false,
      "t": 252562.5,
      "d": 81.25,
      "v": 110
    },
    {
      "midi": 36,
      "hit": false,
      "t": 252656.25,
      "d": 56.25,
      "v": 102
    },
    {
      "midi": 43,
      "hit": false,
      "t": 252750,
      "d": 109.375,
      "v": 102
    },
    {
      "midi": 43,
      "hit": false,
      "t": 252937.5,
      "d": 134.375,
      "v": 119
    },
    {
      "midi": 43,
      "hit": false,
      "t": 253125,
      "d": 112.5,
      "v": 113
    },
    {
      "midi": 43,
      "hit": false,
      "t": 253312.5,
      "d": 150,
      "v": 113
    },
    {
      "midi": 43,
      "hit": false,
      "t": 253500,
      "d": 106.25,
      "v": 91
    },
    {
      "midi": 43,
      "hit": false,
      "t": 253687.5,
      "d": 137.5,
      "v": 105
    },
    {
      "midi": 43,
      "hit": false,
      "t": 253875,
      "d": 106.25,
      "v": 105
    },
    {
      "midi": 43,
      "hit": false,
      "t": 254062.5,
      "d": 128.125,
      "v": 113
    },
    {
      "midi": 43,
      "hit": false,
      "t": 254250,
      "d": 87.5,
      "v": 105
    },
    {
      "midi": 43,
      "hit": false,
      "t": 254437.5,
      "d": 68.75,
      "v": 100
    },
    {
      "midi": 43,
      "hit": false,
      "t": 254625,
      "d": 71.875,
      "v": 110
    },
    {
      "midi": 43,
      "hit": false,
      "t": 254812.5,
      "d": 159.375,
      "v": 116
    },
    {
      "midi": 43,
      "hit": false,
      "t": 255000,
      "d": 84.375,
      "v": 95
    },
    {
      "midi": 43,
      "hit": false,
      "t": 255187.5,
      "d": 71.875,
      "v": 95
    },
    {
      "midi": 43,
      "hit": false,
      "t": 255375,
      "d": 103.125,
      "v": 122
    },
    {
      "midi": 43,
      "hit": false,
      "t": 255562.5,
      "d": 43.75,
      "v": 110
    },
    {
      "midi": 31,
      "hit": false,
      "t": 255656.25,
      "d": 53.125,
      "v": 85
    },
    {
      "midi": 36,
      "hit": false,
      "t": 255750,
      "d": 78.125,
      "v": 107
    },
    {
      "midi": 36,
      "hit": false,
      "t": 255937.5,
      "d": 106.25,
      "v": 107
    },
    {
      "midi": 36,
      "hit": false,
      "t": 256125,
      "d": 96.875,
      "v": 119
    },
    {
      "midi": 36,
      "hit": false,
      "t": 256312.5,
      "d": 121.875,
      "v": 107
    },
    {
      "midi": 36,
      "hit": false,
      "t": 256500,
      "d": 78.125,
      "v": 107
    },
    {
      "midi": 36,
      "hit": false,
      "t": 256687.5,
      "d": 75,
      "v": 100
    },
    {
      "midi": 36,
      "hit": false,
      "t": 256875,
      "d": 187.5,
      "v": 105
    },
    {
      "midi": 35,
      "hit": false,
      "t": 257062.5,
      "d": 71.875,
      "v": 89
    },
    {
      "midi": 36,
      "hit": false,
      "t": 257250,
      "d": 137.5,
      "v": 105
    },
    {
      "midi": 36,
      "hit": false,
      "t": 257437.5,
      "d": 103.125,
      "v": 89
    },
    {
      "midi": 36,
      "hit": false,
      "t": 257625,
      "d": 125,
      "v": 105
    },
    {
      "midi": 36,
      "hit": false,
      "t": 257812.5,
      "d": 137.5,
      "v": 98
    },
    {
      "midi": 36,
      "hit": false,
      "t": 258000,
      "d": 112.5,
      "v": 102
    },
    {
      "midi": 36,
      "hit": false,
      "t": 258187.5,
      "d": 115.625,
      "v": 102
    },
    {
      "midi": 36,
      "hit": false,
      "t": 258375,
      "d": 134.375,
      "v": 110
    },
    {
      "midi": 36,
      "hit": false,
      "t": 258562.5,
      "d": 162.5,
      "v": 98
    },
    {
      "midi": 36,
      "hit": false,
      "t": 258750,
      "d": 118.75,
      "v": 105
    },
    {
      "midi": 36,
      "hit": false,
      "t": 258937.5,
      "d": 134.375,
      "v": 110
    },
    {
      "midi": 36,
      "hit": false,
      "t": 259125,
      "d": 131.25,
      "v": 107
    },
    {
      "midi": 36,
      "hit": false,
      "t": 259312.5,
      "d": 159.375,
      "v": 110
    },
    {
      "midi": 36,
      "hit": false,
      "t": 259500,
      "d": 106.25,
      "v": 100
    },
    {
      "midi": 36,
      "hit": false,
      "t": 259687.5,
      "d": 146.875,
      "v": 107
    },
    {
      "midi": 36,
      "hit": false,
      "t": 259875,
      "d": 118.75,
      "v": 102
    },
    {
      "midi": 36,
      "hit": false,
      "t": 260062.5,
      "d": 121.875,
      "v": 119
    },
    {
      "midi": 43,
      "hit": false,
      "t": 260250,
      "d": 109.375,
      "v": 102
    },
    {
      "midi": 43,
      "hit": false,
      "t": 260437.5,
      "d": 134.375,
      "v": 119
    },
    {
      "midi": 43,
      "hit": false,
      "t": 260625,
      "d": 112.5,
      "v": 113
    },
    {
      "midi": 43,
      "hit": false,
      "t": 260812.5,
      "d": 150,
      "v": 113
    },
    {
      "midi": 43,
      "hit": false,
      "t": 261000,
      "d": 106.25,
      "v": 91
    },
    {
      "midi": 43,
      "hit": false,
      "t": 261187.5,
      "d": 137.5,
      "v": 105
    },
    {
      "midi": 43,
      "hit": false,
      "t": 261375,
      "d": 106.25,
      "v": 105
    },
    {
      "midi": 43,
      "hit": false,
      "t": 261562.5,
      "d": 128.125,
      "v": 113
    },
    {
      "midi": 43,
      "hit": false,
      "t": 261750,
      "d": 96.875,
      "v": 102
    },
    {
      "midi": 43,
      "hit": false,
      "t": 261937.5,
      "d": 118.75,
      "v": 98
    },
    {
      "midi": 43,
      "hit": false,
      "t": 262125,
      "d": 106.25,
      "v": 119
    },
    {
      "midi": 43,
      "hit": false,
      "t": 262312.5,
      "d": 118.75,
      "v": 105
    },
    {
      "midi": 31,
      "hit": false,
      "t": 262406.25,
      "d": 50,
      "v": 93
    },
    {
      "midi": 43,
      "hit": false,
      "t": 262500,
      "d": 96.875,
      "v": 85
    },
    {
      "midi": 43,
      "hit": false,
      "t": 262687.5,
      "d": 65.625,
      "v": 107
    },
    {
      "midi": 43,
      "hit": false,
      "t": 262875,
      "d": 156.25,
      "v": 113
    },
    {
      "midi": 35,
      "hit": false,
      "t": 263062.5,
      "d": 59.375,
      "v": 98
    },
    {
      "midi": 43,
      "hit": false,
      "t": 263250,
      "d": 84.375,
      "v": 64
    },
    {
      "midi": 43,
      "hit": false,
      "t": 263437.5,
      "d": 40.625,
      "v": 59
    },
    {
      "midi": 43,
      "hit": false,
      "t": 263625,
      "d": 90.625,
      "v": 100
    },
    {
      "midi": 43,
      "hit": false,
      "t": 263812.5,
      "d": 53.125,
      "v": 64
    },
    {
      "midi": 43,
      "hit": false,
      "t": 264000,
      "d": 96.875,
      "v": 98
    },
    {
      "midi": 43,
      "hit": false,
      "t": 264187.5,
      "d": 46.875,
      "v": 66
    },
    {
      "midi": 43,
      "hit": false,
      "t": 264375,
      "d": 84.375,
      "v": 102
    },
    {
      "midi": 43,
      "hit": false,
      "t": 264562.5,
      "d": 37.5,
      "v": 80
    },
    {
      "midi": 43,
      "hit": false,
      "t": 264656.25,
      "d": 28.125,
      "v": 76
    },
    {
      "midi": 43,
      "hit": false,
      "t": 264750,
      "d": 84.375,
      "v": 110
    },
    {
      "midi": 50,
      "hit": false,
      "t": 264937.5,
      "d": 153.125,
      "v": 85
    },
    {
      "midi": 53,
      "hit": false,
      "t": 265125,
      "d": 128.125,
      "v": 93
    },
    {
      "midi": 55,
      "hit": false,
      "t": 265312.5,
      "d": 78.125,
      "v": 105
    },
    {
      "midi": 43,
      "hit": false,
      "t": 265875,
      "d": 375,
      "v": 122
    }
  ]
}