{
  "jsonPath": "Animes/Digimon Adventure MIDI Collection/tk-s-theme.json",
  "path": "Animes\\Digimon Adventure MIDI Collection\\TK's Theme.mid",
  "name": "TK's Theme",
  "difficulty": "Advanced",
  "bpm": 100,
  "notes": [
    {
      "midi": 82,
      "hit": false,
      "t": 0,
      "d": 240,
      "v": 100
    },
    {
      "midi": 70,
      "hit": false,
      "t": 0,
      "d": 240,
      "v": 100
    },
    {
      "midi": 39,
      "hit": false,
      "t": 0,
      "d": 480,
      "v": 100
    },
    {
      "midi": 49,
      "hit": false,
      "t": 0,
      "d": 240,
      "v": 100
    },
    {
      "midi": 87,
      "hit": false,
      "t": 300,
      "d": 240,
      "v": 100
    },
    {
      "midi": 75,
      "hit": false,
      "t": 300,
      "d": 240,
      "v": 100
    },
    {
      "midi": 84,
      "hit": false,
      "t": 600,
      "d": 240,
      "v": 100
    },
    {
      "midi": 72,
      "hit": false,
      "t": 600,
      "d": 240,
      "v": 100
    },
    {
      "midi": 41,
      "hit": false,
      "t": 600,
      "d": 480,
      "v": 100
    },
    {
      "midi": 89,
      "hit": false,
      "t": 900,
      "d": 240,
      "v": 100
    },
    {
      "midi": 77,
      "hit": false,
      "t": 900,
      "d": 240,
      "v": 100
    },
    {
      "midi": 86,
      "hit": false,
      "t": 1200,
      "d": 240,
      "v": 100
    },
    {
      "midi": 74,
      "hit": false,
      "t": 1200,
      "d": 240,
      "v": 100
    },
    {
      "midi": 43,
      "hit": false,
      "t": 1200,
      "d": 360,
      "v": 100
    },
    {
      "midi": 91,
      "hit": false,
      "t": 1500,
      "d": 120,
      "v": 100
    },
    {
      "midi": 79,
      "hit": false,
      "t": 1500,
      "d": 120,
      "v": 100
    },
    {
      "midi": 71,
      "hit": false,
      "t": 1500,
      "d": 120,
      "v": 100
    },
    {
      "midi": 87,
      "hit": false,
      "t": 1650,
      "d": 240,
      "v": 100
    },
    {
      "midi": 75,
      "hit": false,
      "t": 1650,
      "d": 240,
      "v": 100
    },
    {
      "midi": 44,
      "hit": false,
      "t": 1650,
      "d": 480,
      "v": 100
    },
    {
      "midi": 61,
      "hit": false,
      "t": 1650,
      "d": 240,
      "v": 100
    },
    {
      "midi": 87,
      "hit": false,
      "t": 1950,
      "d": 120,
      "v": 100
    },
    {
      "midi": 75,
      "hit": false,
      "t": 1950,
      "d": 120,
      "v": 100
    },
    {
      "midi": 54,
      "hit": false,
      "t": 1950,
      "d": 120,
      "v": 100
    },
    {
      "midi": 91,
      "hit": false,
      "t": 2100,
      "d": 120,
      "v": 100
    },
    {
      "midi": 79,
      "hit": false,
      "t": 2100,
      "d": 120,
      "v": 100
    },
    {
      "midi": 49,
      "hit": false,
      "t": 2100,
      "d": 120,
      "v": 100
    },
    {
      "midi": 92,
      "hit": false,
      "t": 2250,
      "d": 120,
      "v": 100
    },
    {
      "midi": 80,
      "hit": false,
      "t": 2250,
      "d": 120,
      "v": 100
    },
    {
      "midi": 44,
      "hit": false,
      "t": 2250,
      "d": 120,
      "v": 100
    },
    {
      "midi": 94,
      "hit": false,
      "t": 2400,
      "d": 240,
      "v": 100
    },
    {
      "midi": 82,
      "hit": false,
      "t": 2400,
      "d": 140,
      "v": 100
    },
    {
      "midi": 46,
      "hit": false,
      "t": 2400,
      "d": 120,
      "v": 100
    },
    {
      "midi": 58,
      "hit": false,
      "t": 2400,
      "d": 113.75,
      "v": 100
    },
    {
      "midi": 70,
      "hit": false,
      "t": 2400,
      "d": 113.75,
      "v": 100
    },
    {
      "midi": 94,
      "hit": false,
      "t": 2700,
      "d": 240,
      "v": 100
    },
    {
      "midi": 82,
      "hit": false,
      "t": 2700,
      "d": 137.5,
      "v": 100
    },
    {
      "midi": 46,
      "hit": false,
      "t": 2700,
      "d": 125,
      "v": 100
    },
    {
      "midi": 58,
      "hit": false,
      "t": 2700,
      "d": 101.25,
      "v": 100
    },
    {
      "midi": 70,
      "hit": false,
      "t": 2700,
      "d": 101.25,
      "v": 100
    },
    {
      "midi": 94,
      "hit": false,
      "t": 3000,
      "d": 240,
      "v": 100
    },
    {
      "midi": 82,
      "hit": false,
      "t": 3000,
      "d": 150,
      "v": 100
    },
    {
      "midi": 46,
      "hit": false,
      "t": 3000,
      "d": 125,
      "v": 100
    },
    {
      "midi": 58,
      "hit": false,
      "t": 3000,
      "d": 105,
      "v": 100
    },
    {
      "midi": 70,
      "hit": false,
      "t": 3000,
      "d": 105,
      "v": 100
    },
    {
      "midi": 94,
      "hit": false,
      "t": 3300,
      "d": 120,
      "v": 100
    },
    {
      "midi": 82,
      "hit": false,
      "t": 3300,
      "d": 80,
      "v": 100
    },
    {
      "midi": 46,
      "hit": false,
      "t": 3300,
      "d": 62.5,
      "v": 100
    },
    {
      "midi": 58,
      "hit": false,
      "t": 3300,
      "d": 55,
      "v": 100
    },
    {
      "midi": 70,
      "hit": false,
      "t": 3300,
      "d": 55,
      "v": 100
    },
    {
      "midi": 94,
      "hit": false,
      "t": 3450,
      "d": 240,
      "v": 100
    },
    {
      "midi": 82,
      "hit": false,
      "t": 3450,
      "d": 167.5,
      "v": 100
    },
    {
      "midi": 46,
      "hit": false,
      "t": 3450,
      "d": 131.25,
      "v": 100
    },
    {
      "midi": 58,
      "hit": false,
      "t": 3450,
      "d": 113.75,
      "v": 100
    },
    {
      "midi": 70,
      "hit": false,
      "t": 3450,
      "d": 113.75,
      "v": 100
    },
    {
      "midi": 82,
      "hit": false,
      "t": 4200,
      "d": 360,
      "v": 100
    },
    {
      "midi": 94,
      "hit": false,
      "t": 4200,
      "d": 360,
      "v": 100
    },
    {
      "midi": 64,
      "hit": false,
      "t": 4200,
      "d": 60,
      "v": 100
    },
    {
      "midi": 60,
      "hit": false,
      "t": 4275,
      "d": 60,
      "v": 100
    },
    {
      "midi": 55,
      "hit": false,
      "t": 4350,
      "d": 60,
      "v": 100
    },
    {
      "midi": 47,
      "hit": false,
      "t": 4425,
      "d": 60,
      "v": 100
    },
    {
      "midi": 41,
      "hit": false,
      "t": 4500,
      "d": 60,
      "v": 100
    },
    {
      "midi": 39,
      "hit": false,
      "t": 4800,
      "d": 480,
      "v": 100
    },
    {
      "midi": 63,
      "hit": false,
      "t": 4800,
      "d": 120,
      "v": 100
    },
    {
      "midi": 75,
      "hit": false,
      "t": 4800,
      "d": 120,
      "v": 100
    },
    {
      "midi": 87,
      "hit": false,
      "t": 4800,
      "d": 120,
      "v": 100
    },
    {
      "midi": 67,
      "hit": false,
      "t": 5100,
      "d": 180,
      "v": 100
    },
    {
      "midi": 54,
      "hit": false,
      "t": 5100,
      "d": 240,
      "v": 100
    },
    {
      "midi": 67,
      "hit": false,
      "t": 5400,
      "d": 180,
      "v": 100
    },
    {
      "midi": 39,
      "hit": false,
      "t": 5400,
      "d": 360,
      "v": 100
    },
    {
      "midi": 46,
      "hit": false,
      "t": 5400,
      "d": 480,
      "v": 100
    },
    {
      "midi": 67,
      "hit": false,
      "t": 5700,
      "d": 95,
      "v": 100
    },
    {
      "midi": 54,
      "hit": false,
      "t": 5700,
      "d": 120,
      "v": 100
    },
    {
      "midi": 68,
      "hit": false,
      "t": 5850,
      "d": 360,
      "v": 100
    },
    {
      "midi": 39,
      "hit": false,
      "t": 5850,
      "d": 240,
      "v": 100
    },
    {
      "midi": 54,
      "hit": false,
      "t": 5850,
      "d": 120,
      "v": 100
    },
    {
      "midi": 39,
      "hit": false,
      "t": 6150,
      "d": 120,
      "v": 100
    },
    {
      "midi": 67,
      "hit": false,
      "t": 6300,
      "d": 180,
      "v": 100
    },
    {
      "midi": 39,
      "hit": false,
      "t": 6300,
      "d": 120,
      "v": 100
    },
    {
      "midi": 54,
      "hit": false,
      "t": 6300,
      "d": 240,
      "v": 100
    },
    {
      "midi": 65,
      "hit": false,
      "t": 6600,
      "d": 185,
      "v": 100
    },
    {
      "midi": 39,
      "hit": false,
      "t": 6600,
      "d": 170,
      "v": 100
    },
    {
      "midi": 46,
      "hit": false,
      "t": 6600,
      "d": 480,
      "v": 100
    },
    {
      "midi": 63,
      "hit": false,
      "t": 6900,
      "d": 188.75,
      "v": 100
    },
    {
      "midi": 39,
      "hit": false,
      "t": 6900,
      "d": 170,
      "v": 100
    },
    {
      "midi": 54,
      "hit": false,
      "t": 6900,
      "d": 240,
      "v": 100
    },
    {
      "midi": 31,
      "hit": false,
      "t": 7200,
      "d": 480,
      "v": 100
    },
    {
      "midi": 70,
      "hit": false,
      "t": 7500,
      "d": 240,
      "v": 100
    },
    {
      "midi": 54,
      "hit": false,
      "t": 7500,
      "d": 240,
      "v": 100
    },
    {
      "midi": 70,
      "hit": false,
      "t": 7800,
      "d": 240,
      "v": 100
    },
    {
      "midi": 31,
      "hit": false,
      "t": 7800,
      "d": 360,
      "v": 100
    },
    {
      "midi": 46,
      "hit": false,
      "t": 7800,
      "d": 480,
      "v": 100
    },
    {
      "midi": 70,
      "hit": false,
      "t": 8100,
      "d": 120,
      "v": 100
    },
    {
      "midi": 54,
      "hit": false,
      "t": 8100,
      "d": 120,
      "v": 100
    },
    {
      "midi": 72,
      "hit": false,
      "t": 8250,
      "d": 360,
      "v": 100
    },
    {
      "midi": 31,
      "hit": false,
      "t": 8250,
      "d": 240,
      "v": 100
    },
    {
      "midi": 54,
      "hit": false,
      "t": 8250,
      "d": 120,
      "v": 100
    },
    {
      "midi": 31,
      "hit": false,
      "t": 8550,
      "d": 120,
      "v": 100
    },
    {
      "midi": 70,
      "hit": false,
      "t": 8700,
      "d": 240,
      "v": 100
    },
    {
      "midi": 31,
      "hit": false,
      "t": 8700,
      "d": 120,
      "v": 100
    },
    {
      "midi": 54,
      "hit": false,
      "t": 8700,
      "d": 240,
      "v": 100
    },
    {
      "midi": 68,
      "hit": false,
      "t": 9000,
      "d": 240,
      "v": 100
    },
    {
      "midi": 38,
      "hit": false,
      "t": 9000,
      "d": 240,
      "v": 100
    },
    {
      "midi": 46,
      "hit": false,
      "t": 9000,
      "d": 480,
      "v": 100
    },
    {
      "midi": 67,
      "hit": false,
      "t": 9300,
      "d": 240,
      "v": 100
    },
    {
      "midi": 31,
      "hit": false,
      "t": 9300,
      "d": 240,
      "v": 100
    },
    {
      "midi": 54,
      "hit": false,
      "t": 9300,
      "d": 240,
      "v": 100
    },
    {
      "midi": 65,
      "hit": false,
      "t": 9600,
      "d": 240,
      "v": 100
    },
    {
      "midi": 29,
      "hit": false,
      "t": 9600,
      "d": 480,
      "v": 100
    },
    {
      "midi": 67,
      "hit": false,
      "t": 9900,
      "d": 120,
      "v": 100
    },
    {
      "midi": 54,
      "hit": false,
      "t": 9900,
      "d": 240,
      "v": 100
    },
    {
      "midi": 68,
      "hit": false,
      "t": 10050,
      "d": 840,
      "v": 100
    },
    {
      "midi": 29,
      "hit": false,
      "t": 10200,
      "d": 360,
      "v": 100
    },
    {
      "midi": 46,
      "hit": false,
      "t": 10200,
      "d": 480,
      "v": 100
    },
    {
      "midi": 54,
      "hit": false,
      "t": 10500,
      "d": 120,
      "v": 100
    },
    {
      "midi": 29,
      "hit": false,
      "t": 10650,
      "d": 240,
      "v": 100
    },
    {
      "midi": 54,
      "hit": false,
      "t": 10650,
      "d": 120,
      "v": 100
    },
    {
      "midi": 29,
      "hit": false,
      "t": 10950,
      "d": 120,
      "v": 100
    },
    {
      "midi": 68,
      "hit": false,
      "t": 11100,
      "d": 240,
      "v": 100
    },
    {
      "midi": 29,
      "hit": false,
      "t": 11100,
      "d": 120,
      "v": 100
    },
    {
      "midi": 54,
      "hit": false,
      "t": 11100,
      "d": 240,
      "v": 100
    },
    {
      "midi": 67,
      "hit": false,
      "t": 11400,
      "d": 240,
      "v": 100
    },
    {
      "midi": 36,
      "hit": false,
      "t": 11400,
      "d": 240,
      "v": 100
    },
    {
      "midi": 46,
      "hit": false,
      "t": 11400,
      "d": 480,
      "v": 100
    },
    {
      "midi": 65,
      "hit": false,
      "t": 11700,
      "d": 240,
      "v": 100
    },
    {
      "midi": 29,
      "hit": false,
      "t": 11700,
      "d": 240,
      "v": 100
    },
    {
      "midi": 54,
      "hit": false,
      "t": 11700,
      "d": 240,
      "v": 100
    },
    {
      "midi": 65,
      "hit": false,
      "t": 12000,
      "d": 240,
      "v": 100
    },
    {
      "midi": 29,
      "hit": false,
      "t": 12000,
      "d": 480,
      "v": 100
    },
    {
      "midi": 67,
      "hit": false,
      "t": 12300,
      "d": 120,
      "v": 100
    },
    {
      "midi": 54,
      "hit": false,
      "t": 12300,
      "d": 240,
      "v": 100
    },
    {
      "midi": 68,
      "hit": false,
      "t": 12450,
      "d": 840,
      "v": 100
    },
    {
      "midi": 29,
      "hit": false,
      "t": 12600,
      "d": 360,
      "v": 100
    },
    {
      "midi": 46,
      "hit": false,
      "t": 12600,
      "d": 480,
      "v": 100
    },
    {
      "midi": 54,
      "hit": false,
      "t": 12900,
      "d": 120,
      "v": 100
    },
    {
      "midi": 29,
      "hit": false,
      "t": 13050,
      "d": 240,
      "v": 100
    },
    {
      "midi": 54,
      "hit": false,
      "t": 13050,
      "d": 120,
      "v": 100
    },
    {
      "midi": 29,
      "hit": false,
      "t": 13350,
      "d": 120,
      "v": 100
    },
    {
      "midi": 68,
      "hit": false,
      "t": 13500,
      "d": 240,
      "v": 100
    },
    {
      "midi": 29,
      "hit": false,
      "t": 13500,
      "d": 120,
      "v": 100
    },
    {
      "midi": 54,
      "hit": false,
      "t": 13500,
      "d": 240,
      "v": 100
    },
    {
      "midi": 67,
      "hit": false,
      "t": 13800,
      "d": 240,
      "v": 100
    },
    {
      "midi": 36,
      "hit": false,
      "t": 13800,
      "d": 240,
      "v": 100
    },
    {
      "midi": 46,
      "hit": false,
      "t": 13800,
      "d": 480,
      "v": 100
    },
    {
      "midi": 65,
      "hit": false,
      "t": 14100,
      "d": 240,
      "v": 100
    },
    {
      "midi": 29,
      "hit": false,
      "t": 14100,
      "d": 240,
      "v": 100
    },
    {
      "midi": 54,
      "hit": false,
      "t": 14100,
      "d": 240,
      "v": 100
    },
    {
      "midi": 63,
      "hit": false,
      "t": 14400,
      "d": 1440,
      "v": 100
    },
    {
      "midi": 39,
      "hit": false,
      "t": 14400,
      "d": 480,
      "v": 100
    },
    {
      "midi": 63,
      "hit": false,
      "t": 14400,
      "d": 120,
      "v": 100
    },
    {
      "midi": 75,
      "hit": false,
      "t": 14400,
      "d": 120,
      "v": 100
    },
    {
      "midi": 87,
      "hit": false,
      "t": 14400,
      "d": 120,
      "v": 100
    },
    {
      "midi": 79,
      "hit": false,
      "t": 14700,
      "d": 240,
      "v": 100
    },
    {
      "midi": 54,
      "hit": false,
      "t": 14700,
      "d": 240,
      "v": 100
    },
    {
      "midi": 79,
      "hit": false,
      "t": 15000,
      "d": 240,
      "v": 100
    },
    {
      "midi": 39,
      "hit": false,
      "t": 15000,
      "d": 360,
      "v": 100
    },
    {
      "midi": 46,
      "hit": false,
      "t": 15000,
      "d": 480,
      "v": 100
    },
    {
      "midi": 79,
      "hit": false,
      "t": 15300,
      "d": 120,
      "v": 100
    },
    {
      "midi": 54,
      "hit": false,
      "t": 15300,
      "d": 120,
      "v": 100
    },
    {
      "midi": 80,
      "hit": false,
      "t": 15450,
      "d": 360,
      "v": 100
    },
    {
      "midi": 39,
      "hit": false,
      "t": 15450,
      "d": 240,
      "v": 100
    },
    {
      "midi": 54,
      "hit": false,
      "t": 15450,
      "d": 120,
      "v": 100
    },
    {
      "midi": 39,
      "hit": false,
      "t": 15750,
      "d": 120,
      "v": 100
    },
    {
      "midi": 79,
      "hit": false,
      "t": 15900,
      "d": 240,
      "v": 100
    },
    {
      "midi": 39,
      "hit": false,
      "t": 15900,
      "d": 120,
      "v": 100
    },
    {
      "midi": 54,
      "hit": false,
      "t": 15900,
      "d": 240,
      "v": 100
    },
    {
      "midi": 77,
      "hit": false,
      "t": 16200,
      "d": 240,
      "v": 100
    },
    {
      "midi": 67,
      "hit": false,
      "t": 16200,
      "d": 480,
      "v": 100
    },
    {
      "midi": 39,
      "hit": false,
      "t": 16200,
      "d": 170,
      "v": 100
    },
    {
      "midi": 46,
      "hit": false,
      "t": 16200,
      "d": 480,
      "v": 100
    },
    {
      "midi": 75,
      "hit": false,
      "t": 16500,
      "d": 240,
      "v": 100
    },
    {
      "midi": 39,
      "hit": false,
      "t": 16500,
      "d": 170,
      "v": 100
    },
    {
      "midi": 54,
      "hit": false,
      "t": 16500,
      "d": 240,
      "v": 100
    },
    {
      "midi": 62,
      "hit": false,
      "t": 16800,
      "d": 1440,
      "v": 100
    },
    {
      "midi": 31,
      "hit": false,
      "t": 16800,
      "d": 480,
      "v": 100
    },
    {
      "midi": 82,
      "hit": false,
      "t": 17100,
      "d": 240,
      "v": 100
    },
    {
      "midi": 54,
      "hit": false,
      "t": 17100,
      "d": 240,
      "v": 100
    },
    {
      "midi": 82,
      "hit": false,
      "t": 17400,
      "d": 240,
      "v": 100
    },
    {
      "midi": 31,
      "hit": false,
      "t": 17400,
      "d": 360,
      "v": 100
    },
    {
      "midi": 46,
      "hit": false,
      "t": 17400,
      "d": 480,
      "v": 100
    },
    {
      "midi": 82,
      "hit": false,
      "t": 17700,
      "d": 120,
      "v": 100
    },
    {
      "midi": 54,
      "hit": false,
      "t": 17700,
      "d": 120,
      "v": 100
    },
    {
      "midi": 84,
      "hit": false,
      "t": 17850,
      "d": 360,
      "v": 100
    },
    {
      "midi": 31,
      "hit": false,
      "t": 17850,
      "d": 240,
      "v": 100
    },
    {
      "midi": 54,
      "hit": false,
      "t": 17850,
      "d": 120,
      "v": 100
    },
    {
      "midi": 31,
      "hit": false,
      "t": 18150,
      "d": 120,
      "v": 100
    },
    {
      "midi": 82,
      "hit": false,
      "t": 18300,
      "d": 240,
      "v": 100
    },
    {
      "midi": 31,
      "hit": false,
      "t": 18300,
      "d": 120,
      "v": 100
    },
    {
      "midi": 54,
      "hit": false,
      "t": 18300,
      "d": 240,
      "v": 100
    },
    {
      "midi": 80,
      "hit": false,
      "t": 18600,
      "d": 240,
      "v": 100
    },
    {
      "midi": 58,
      "hit": false,
      "t": 18600,
      "d": 480,
      "v": 100
    },
    {
      "midi": 38,
      "hit": false,
      "t": 18600,
      "d": 240,
      "v": 100
    },
    {
      "midi": 46,
      "hit": false,
      "t": 18600,
      "d": 480,
      "v": 100
    },
    {
      "midi": 79,
      "hit": false,
      "t": 18900,
      "d": 240,
      "v": 100
    },
    {
      "midi": 31,
      "hit": false,
      "t": 18900,
      "d": 240,
      "v": 100
    },
    {
      "midi": 54,
      "hit": false,
      "t": 18900,
      "d": 240,
      "v": 100
    },
    {
      "midi": 77,
      "hit": false,
      "t": 19200,
      "d": 240,
      "v": 100
    },
    {
      "midi": 60,
      "hit": false,
      "t": 19200,
      "d": 1440,
      "v": 100
    },
    {
      "midi": 29,
      "hit": false,
      "t": 19200,
      "d": 480,
      "v": 100
    },
    {
      "midi": 79,
      "hit": false,
      "t": 19500,
      "d": 120,
      "v": 100
    },
    {
      "midi": 54,
      "hit": false,
      "t": 19500,
      "d": 240,
      "v": 100
    },
    {
      "midi": 80,
      "hit": false,
      "t": 19650,
      "d": 840,
      "v": 100
    },
    {
      "midi": 29,
      "hit": false,
      "t": 19800,
      "d": 360,
      "v": 100
    },
    {
      "midi": 46,
      "hit": false,
      "t": 19800,
      "d": 480,
      "v": 100
    },
    {
      "midi": 54,
      "hit": false,
      "t": 20100,
      "d": 120,
      "v": 100
    },
    {
      "midi": 29,
      "hit": false,
      "t": 20250,
      "d": 240,
      "v": 100
    },
    {
      "midi": 54,
      "hit": false,
      "t": 20250,
      "d": 120,
      "v": 100
    },
    {
      "midi": 29,
      "hit": false,
      "t": 20550,
      "d": 120,
      "v": 100
    },
    {
      "midi": 80,
      "hit": false,
      "t": 20700,
      "d": 240,
      "v": 100
    },
    {
      "midi": 29,
      "hit": false,
      "t": 20700,
      "d": 120,
      "v": 100
    },
    {
      "midi": 54,
      "hit": false,
      "t": 20700,
      "d": 240,
      "v": 100
    },
    {
      "midi": 79,
      "hit": false,
      "t": 21000,
      "d": 240,
      "v": 100
    },
    {
      "midi": 67,
      "hit": false,
      "t": 21000,
      "d": 480,
      "v": 100
    },
    {
      "midi": 36,
      "hit": false,
      "t": 21000,
      "d": 240,
      "v": 100
    },
    {
      "midi": 46,
      "hit": false,
      "t": 21000,
      "d": 480,
      "v": 100
    },
    {
      "midi": 77,
      "hit": false,
      "t": 21300,
      "d": 240,
      "v": 100
    },
    {
      "midi": 29,
      "hit": false,
      "t": 21300,
      "d": 240,
      "v": 100
    },
    {
      "midi": 54,
      "hit": false,
      "t": 21300,
      "d": 240,
      "v": 100
    },
    {
      "midi": 77,
      "hit": false,
      "t": 21600,
      "d": 240,
      "v": 100
    },
    {
      "midi": 59,
      "hit": false,
      "t": 21600,
      "d": 1920,
      "v": 100
    },
    {
      "midi": 29,
      "hit": false,
      "t": 21600,
      "d": 480,
      "v": 100
    },
    {
      "midi": 79,
      "hit": false,
      "t": 21900,
      "d": 120,
      "v": 100
    },
    {
      "midi": 54,
      "hit": false,
      "t": 21900,
      "d": 240,
      "v": 100
    },
    {
      "midi": 80,
      "hit": false,
      "t": 22050,
      "d": 840,
      "v": 100
    },
    {
      "midi": 29,
      "hit": false,
      "t": 22200,
      "d": 360,
      "v": 100
    },
    {
      "midi": 46,
      "hit": false,
      "t": 22200,
      "d": 480,
      "v": 100
    },
    {
      "midi": 54,
      "hit": false,
      "t": 22500,
      "d": 120,
      "v": 100
    },
    {
      "midi": 29,
      "hit": false,
      "t": 22650,
      "d": 240,
      "v": 100
    },
    {
      "midi": 54,
      "hit": false,
      "t": 22650,
      "d": 120,
      "v": 100
    },
    {
      "midi": 29,
      "hit": false,
      "t": 22950,
      "d": 120,
      "v": 100
    },
    {
      "midi": 80,
      "hit": false,
      "t": 23100,
      "d": 240,
      "v": 100
    },
    {
      "midi": 29,
      "hit": false,
      "t": 23100,
      "d": 120,
      "v": 100
    },
    {
      "midi": 54,
      "hit": false,
      "t": 23100,
      "d": 240,
      "v": 100
    },
    {
      "midi": 79,
      "hit": false,
      "t": 23400,
      "d": 240,
      "v": 100
    },
    {
      "midi": 36,
      "hit": false,
      "t": 23400,
      "d": 240,
      "v": 100
    },
    {
      "midi": 46,
      "hit": false,
      "t": 23400,
      "d": 480,
      "v": 100
    },
    {
      "midi": 77,
      "hit": false,
      "t": 23700,
      "d": 240,
      "v": 100
    },
    {
      "midi": 29,
      "hit": false,
      "t": 23700,
      "d": 240,
      "v": 100
    },
    {
      "midi": 54,
      "hit": false,
      "t": 23700,
      "d": 240,
      "v": 100
    },
    {
      "midi": 39,
      "hit": false,
      "t": 24000,
      "d": 480,
      "v": 100
    },
    {
      "midi": 63,
      "hit": false,
      "t": 24000,
      "d": 120,
      "v": 100
    },
    {
      "midi": 75,
      "hit": false,
      "t": 24000,
      "d": 120,
      "v": 100
    },
    {
      "midi": 87,
      "hit": false,
      "t": 24000,
      "d": 120,
      "v": 100
    },
    {
      "midi": 67,
      "hit": false,
      "t": 24300,
      "d": 180,
      "v": 100
    },
    {
      "midi": 54,
      "hit": false,
      "t": 24300,
      "d": 240,
      "v": 100
    },
    {
      "midi": 67,
      "hit": false,
      "t": 24600,
      "d": 180,
      "v": 100
    },
    {
      "midi": 39,
      "hit": false,
      "t": 24600,
      "d": 360,
      "v": 100
    },
    {
      "midi": 46,
      "hit": false,
      "t": 24600,
      "d": 480,
      "v": 100
    },
    {
      "midi": 67,
      "hit": false,
      "t": 24900,
      "d": 95,
      "v": 100
    },
    {
      "midi": 54,
      "hit": false,
      "t": 24900,
      "d": 120,
      "v": 100
    },
    {
      "midi": 68,
      "hit": false,
      "t": 25050,
      "d": 360,
      "v": 100
    },
    {
      "midi": 39,
      "hit": false,
      "t": 25050,
      "d": 240,
      "v": 100
    },
    {
      "midi": 54,
      "hit": false,
      "t": 25050,
      "d": 120,
      "v": 100
    },
    {
      "midi": 39,
      "hit": false,
      "t": 25350,
      "d": 120,
      "v": 100
    },
    {
      "midi": 67,
      "hit": false,
      "t": 25500,
      "d": 180,
      "v": 100
    },
    {
      "midi": 39,
      "hit": false,
      "t": 25500,
      "d": 120,
      "v": 100
    },
    {
      "midi": 54,
      "hit": false,
      "t": 25500,
      "d": 240,
      "v": 100
    },
    {
      "midi": 65,
      "hit": false,
      "t": 25800,
      "d": 185,
      "v": 100
    },
    {
      "midi": 39,
      "hit": false,
      "t": 25800,
      "d": 170,
      "v": 100
    },
    {
      "midi": 46,
      "hit": false,
      "t": 25800,
      "d": 480,
      "v": 100
    },
    {
      "midi": 63,
      "hit": false,
      "t": 26100,
      "d": 188.75,
      "v": 100
    },
    {
      "midi": 39,
      "hit": false,
      "t": 26100,
      "d": 170,
      "v": 100
    },
    {
      "midi": 54,
      "hit": false,
      "t": 26100,
      "d": 240,
      "v": 100
    },
    {
      "midi": 31,
      "hit": false,
      "t": 26400,
      "d": 480,
      "v": 100
    },
    {
      "midi": 70,
      "hit": false,
      "t": 26700,
      "d": 240,
      "v": 100
    },
    {
      "midi": 54,
      "hit": false,
      "t": 26700,
      "d": 240,
      "v": 100
    },
    {
      "midi": 70,
      "hit": false,
      "t": 27000,
      "d": 240,
      "v": 100
    },
    {
      "midi": 31,
      "hit": false,
      "t": 27000,
      "d": 360,
      "v": 100
    },
    {
      "midi": 46,
      "hit": false,
      "t": 27000,
      "d": 480,
      "v": 100
    },
    {
      "midi": 70,
      "hit": false,
      "t": 27300,
      "d": 120,
      "v": 100
    },
    {
      "midi": 54,
      "hit": false,
      "t": 27300,
      "d": 120,
      "v": 100
    },
    {
      "midi": 72,
      "hit": false,
      "t": 27450,
      "d": 360,
      "v": 100
    },
    {
      "midi": 31,
      "hit": false,
      "t": 27450,
      "d": 240,
      "v": 100
    },
    {
      "midi": 54,
      "hit": false,
      "t": 27450,
      "d": 120,
      "v": 100
    },
    {
      "midi": 31,
      "hit": false,
      "t": 27750,
      "d": 120,
      "v": 100
    },
    {
      "midi": 70,
      "hit": false,
      "t": 27900,
      "d": 240,
      "v": 100
    },
    {
      "midi": 31,
      "hit": false,
      "t": 27900,
      "d": 120,
      "v": 100
    },
    {
      "midi": 54,
      "hit": false,
      "t": 27900,
      "d": 240,
      "v": 100
    },
    {
      "midi": 68,
      "hit": false,
      "t": 28200,
      "d": 240,
      "v": 100
    },
    {
      "midi": 38,
      "hit": false,
      "t": 28200,
      "d": 240,
      "v": 100
    },
    {
      "midi": 46,
      "hit": false,
      "t": 28200,
      "d": 480,
      "v": 100
    },
    {
      "midi": 67,
      "hit": false,
      "t": 28500,
      "d": 240,
      "v": 100
    },
    {
      "midi": 31,
      "hit": false,
      "t": 28500,
      "d": 240,
      "v": 100
    },
    {
      "midi": 54,
      "hit": false,
      "t": 28500,
      "d": 240,
      "v": 100
    },
    {
      "midi": 65,
      "hit": false,
      "t": 28800,
      "d": 240,
      "v": 100
    },
    {
      "midi": 29,
      "hit": false,
      "t": 28800,
      "d": 480,
      "v": 100
    },
    {
      "midi": 67,
      "hit": false,
      "t": 29100,
      "d": 120,
      "v": 100
    },
    {
      "midi": 54,
      "hit": false,
      "t": 29100,
      "d": 240,
      "v": 100
    },
    {
      "midi": 68,
      "hit": false,
      "t": 29250,
      "d": 840,
      "v": 100
    },
    {
      "midi": 29,
      "hit": false,
      "t": 29400,
      "d": 360,
      "v": 100
    },
    {
      "midi": 46,
      "hit": false,
      "t": 29400,
      "d": 480,
      "v": 100
    },
    {
      "midi": 54,
      "hit": false,
      "t": 29700,
      "d": 120,
      "v": 100
    },
    {
      "midi": 29,
      "hit": false,
      "t": 29850,
      "d": 240,
      "v": 100
    },
    {
      "midi": 54,
      "hit": false,
      "t": 29850,
      "d": 120,
      "v": 100
    },
    {
      "midi": 29,
      "hit": false,
      "t": 30150,
      "d": 120,
      "v": 100
    },
    {
      "midi": 68,
      "hit": false,
      "t": 30300,
      "d": 240,
      "v": 100
    },
    {
      "midi": 29,
      "hit": false,
      "t": 30300,
      "d": 120,
      "v": 100
    },
    {
      "midi": 54,
      "hit": false,
      "t": 30300,
      "d": 240,
      "v": 100
    },
    {
      "midi": 67,
      "hit": false,
      "t": 30600,
      "d": 240,
      "v": 100
    },
    {
      "midi": 36,
      "hit": false,
      "t": 30600,
      "d": 240,
      "v": 100
    },
    {
      "midi": 46,
      "hit": false,
      "t": 30600,
      "d": 480,
      "v": 100
    },
    {
      "midi": 65,
      "hit": false,
      "t": 30900,
      "d": 240,
      "v": 100
    },
    {
      "midi": 29,
      "hit": false,
      "t": 30900,
      "d": 240,
      "v": 100
    },
    {
      "midi": 54,
      "hit": false,
      "t": 30900,
      "d": 240,
      "v": 100
    },
    {
      "midi": 65,
      "hit": false,
      "t": 31200,
      "d": 240,
      "v": 100
    },
    {
      "midi": 29,
      "hit": false,
      "t": 31200,
      "d": 480,
      "v": 100
    },
    {
      "midi": 67,
      "hit": false,
      "t": 31500,
      "d": 120,
      "v": 100
    },
    {
      "midi": 54,
      "hit": false,
      "t": 31500,
      "d": 240,
      "v": 100
    },
    {
      "midi": 68,
      "hit": false,
      "t": 31650,
      "d": 840,
      "v": 100
    },
    {
      "midi": 29,
      "hit": false,
      "t": 31800,
      "d": 360,
      "v": 100
    },
    {
      "midi": 46,
      "hit": false,
      "t": 31800,
      "d": 480,
      "v": 100
    },
    {
      "midi": 54,
      "hit": false,
      "t": 32100,
      "d": 120,
      "v": 100
    },
    {
      "midi": 29,
      "hit": false,
      "t": 32250,
      "d": 240,
      "v": 100
    },
    {
      "midi": 54,
      "hit": false,
      "t": 32250,
      "d": 120,
      "v": 100
    },
    {
      "midi": 29,
      "hit": false,
      "t": 32550,
      "d": 120,
      "v": 100
    },
    {
      "midi": 68,
      "hit": false,
      "t": 32700,
      "d": 240,
      "v": 100
    },
    {
      "midi": 29,
      "hit": false,
      "t": 32700,
      "d": 120,
      "v": 100
    },
    {
      "midi": 54,
      "hit": false,
      "t": 32700,
      "d": 240,
      "v": 100
    },
    {
      "midi": 67,
      "hit": false,
      "t": 33000,
      "d": 240,
      "v": 100
    },
    {
      "midi": 36,
      "hit": false,
      "t": 33000,
      "d": 240,
      "v": 100
    },
    {
      "midi": 46,
      "hit": false,
      "t": 33000,
      "d": 480,
      "v": 100
    },
    {
      "midi": 65,
      "hit": false,
      "t": 33300,
      "d": 240,
      "v": 100
    },
    {
      "midi": 29,
      "hit": false,
      "t": 33300,
      "d": 240,
      "v": 100
    },
    {
      "midi": 54,
      "hit": false,
      "t": 33300,
      "d": 240,
      "v": 100
    },
    {
      "midi": 63,
      "hit": false,
      "t": 33600,
      "d": 1440,
      "v": 100
    },
    {
      "midi": 39,
      "hit": false,
      "t": 33600,
      "d": 480,
      "v": 100
    },
    {
      "midi": 63,
      "hit": false,
      "t": 33600,
      "d": 120,
      "v": 100
    },
    {
      "midi": 75,
      "hit": false,
      "t": 33600,
      "d": 120,
      "v": 100
    },
    {
      "midi": 87,
      "hit": false,
      "t": 33600,
      "d": 120,
      "v": 100
    },
    {
      "midi": 79,
      "hit": false,
      "t": 33900,
      "d": 240,
      "v": 100
    },
    {
      "midi": 54,
      "hit": false,
      "t": 33900,
      "d": 240,
      "v": 100
    },
    {
      "midi": 79,
      "hit": false,
      "t": 34200,
      "d": 240,
      "v": 100
    },
    {
      "midi": 39,
      "hit": false,
      "t": 34200,
      "d": 360,
      "v": 100
    },
    {
      "midi": 46,
      "hit": false,
      "t": 34200,
      "d": 480,
      "v": 100
    },
    {
      "midi": 79,
      "hit": false,
      "t": 34500,
      "d": 120,
      "v": 100
    },
    {
      "midi": 54,
      "hit": false,
      "t": 34500,
      "d": 120,
      "v": 100
    },
    {
      "midi": 80,
      "hit": false,
      "t": 34650,
      "d": 360,
      "v": 100
    },
    {
      "midi": 39,
      "hit": false,
      "t": 34650,
      "d": 240,
      "v": 100
    },
    {
      "midi": 54,
      "hit": false,
      "t": 34650,
      "d": 120,
      "v": 100
    },
    {
      "midi": 39,
      "hit": false,
      "t": 34950,
      "d": 120,
      "v": 100
    },
    {
      "midi": 79,
      "hit": false,
      "t": 35100,
      "d": 240,
      "v": 100
    },
    {
      "midi": 39,
      "hit": false,
      "t": 35100,
      "d": 120,
      "v": 100
    },
    {
      "midi": 54,
      "hit": false,
      "t": 35100,
      "d": 240,
      "v": 100
    },
    {
      "midi": 77,
      "hit": false,
      "t": 35400,
      "d": 240,
      "v": 100
    },
    {
      "midi": 67,
      "hit": false,
      "t": 35400,
      "d": 480,
      "v": 100
    },
    {
      "midi": 39,
      "hit": false,
      "t": 35400,
      "d": 170,
      "v": 100
    },
    {
      "midi": 46,
      "hit": false,
      "t": 35400,
      "d": 480,
      "v": 100
    },
    {
      "midi": 75,
      "hit": false,
      "t": 35700,
      "d": 240,
      "v": 100
    },
    {
      "midi": 39,
      "hit": false,
      "t": 35700,
      "d": 170,
      "v": 100
    },
    {
      "midi": 54,
      "hit": false,
      "t": 35700,
      "d": 240,
      "v": 100
    },
    {
      "midi": 62,
      "hit": false,
      "t": 36000,
      "d": 1440,
      "v": 100
    },
    {
      "midi": 31,
      "hit": false,
      "t": 36000,
      "d": 480,
      "v": 100
    },
    {
      "midi": 82,
      "hit": false,
      "t": 36300,
      "d": 240,
      "v": 100
    },
    {
      "midi": 54,
      "hit": false,
      "t": 36300,
      "d": 240,
      "v": 100
    },
    {
      "midi": 82,
      "hit": false,
      "t": 36600,
      "d": 240,
      "v": 100
    },
    {
      "midi": 31,
      "hit": false,
      "t": 36600,
      "d": 360,
      "v": 100
    },
    {
      "midi": 46,
      "hit": false,
      "t": 36600,
      "d": 480,
      "v": 100
    },
    {
      "midi": 82,
      "hit": false,
      "t": 36900,
      "d": 120,
      "v": 100
    },
    {
      "midi": 54,
      "hit": false,
      "t": 36900,
      "d": 120,
      "v": 100
    },
    {
      "midi": 84,
      "hit": false,
      "t": 37050,
      "d": 360,
      "v": 100
    },
    {
      "midi": 31,
      "hit": false,
      "t": 37050,
      "d": 240,
      "v": 100
    },
    {
      "midi": 54,
      "hit": false,
      "t": 37050,
      "d": 120,
      "v": 100
    },
    {
      "midi": 31,
      "hit": false,
      "t": 37350,
      "d": 120,
      "v": 100
    },
    {
      "midi": 82,
      "hit": false,
      "t": 37500,
      "d": 240,
      "v": 100
    },
    {
      "midi": 31,
      "hit": false,
      "t": 37500,
      "d": 120,
      "v": 100
    },
    {
      "midi": 54,
      "hit": false,
      "t": 37500,
      "d": 240,
      "v": 100
    },
    {
      "midi": 80,
      "hit": false,
      "t": 37800,
      "d": 240,
      "v": 100
    },
    {
      "midi": 58,
      "hit": false,
      "t": 37800,
      "d": 480,
      "v": 100
    },
    {
      "midi": 38,
      "hit": false,
      "t": 37800,
      "d": 240,
      "v": 100
    },
    {
      "midi": 46,
      "hit": false,
      "t": 37800,
      "d": 480,
      "v": 100
    },
    {
      "midi": 79,
      "hit": false,
      "t": 38100,
      "d": 240,
      "v": 100
    },
    {
      "midi": 31,
      "hit": false,
      "t": 38100,
      "d": 240,
      "v": 100
    },
    {
      "midi": 54,
      "hit": false,
      "t": 38100,
      "d": 240,
      "v": 100
    },
    {
      "midi": 77,
      "hit": false,
      "t": 38400,
      "d": 240,
      "v": 100
    },
    {
      "midi": 60,
      "hit": false,
      "t": 38400,
      "d": 1440,
      "v": 100
    },
    {
      "midi": 29,
      "hit": false,
      "t": 38400,
      "d": 480,
      "v": 100
    },
    {
      "midi": 79,
      "hit": false,
      "t": 38700,
      "d": 120,
      "v": 100
    },
    {
      "midi": 54,
      "hit": false,
      "t": 38700,
      "d": 240,
      "v": 100
    },
    {
      "midi": 80,
      "hit": false,
      "t": 38850,
      "d": 840,
      "v": 100
    },
    {
      "midi": 29,
      "hit": false,
      "t": 39000,
      "d": 360,
      "v": 100
    },
    {
      "midi": 46,
      "hit": false,
      "t": 39000,
      "d": 480,
      "v": 100
    },
    {
      "midi": 54,
      "hit": false,
      "t": 39300,
      "d": 120,
      "v": 100
    },
    {
      "midi": 29,
      "hit": false,
      "t": 39450,
      "d": 240,
      "v": 100
    },
    {
      "midi": 54,
      "hit": false,
      "t": 39450,
      "d": 120,
      "v": 100
    },
    {
      "midi": 29,
      "hit": false,
      "t": 39750,
      "d": 120,
      "v": 100
    },
    {
      "midi": 80,
      "hit": false,
      "t": 39900,
      "d": 240,
      "v": 100
    },
    {
      "midi": 29,
      "hit": false,
      "t": 39900,
      "d": 120,
      "v": 100
    },
    {
      "midi": 54,
      "hit": false,
      "t": 39900,
      "d": 240,
      "v": 100
    },
    {
      "midi": 79,
      "hit": false,
      "t": 40200,
      "d": 240,
      "v": 100
    },
    {
      "midi": 67,
      "hit": false,
      "t": 40200,
      "d": 480,
      "v": 100
    },
    {
      "midi": 36,
      "hit": false,
      "t": 40200,
      "d": 240,
      "v": 100
    },
    {
      "midi": 46,
      "hit": false,
      "t": 40200,
      "d": 480,
      "v": 100
    },
    {
      "midi": 77,
      "hit": false,
      "t": 40500,
      "d": 240,
      "v": 100
    },
    {
      "midi": 29,
      "hit": false,
      "t": 40500,
      "d": 240,
      "v": 100
    },
    {
      "midi": 54,
      "hit": false,
      "t": 40500,
      "d": 240,
      "v": 100
    },
    {
      "midi": 77,
      "hit": false,
      "t": 40800,
      "d": 240,
      "v": 100
    },
    {
      "midi": 59,
      "hit": false,
      "t": 40800,
      "d": 1920,
      "v": 100
    },
    {
      "midi": 29,
      "hit": false,
      "t": 40800,
      "d": 480,
      "v": 100
    },
    {
      "midi": 79,
      "hit": false,
      "t": 41100,
      "d": 120,
      "v": 100
    },
    {
      "midi": 54,
      "hit": false,
      "t": 41100,
      "d": 240,
      "v": 100
    },
    {
      "midi": 80,
      "hit": false,
      "t": 41250,
      "d": 840,
      "v": 100
    },
    {
      "midi": 29,
      "hit": false,
      "t": 41400,
      "d": 360,
      "v": 100
    },
    {
      "midi": 46,
      "hit": false,
      "t": 41400,
      "d": 480,
      "v": 100
    },
    {
      "midi": 54,
      "hit": false,
      "t": 41700,
      "d": 120,
      "v": 100
    },
    {
      "midi": 29,
      "hit": false,
      "t": 41850,
      "d": 240,
      "v": 100
    },
    {
      "midi": 54,
      "hit": false,
      "t": 41850,
      "d": 120,
      "v": 100
    },
    {
      "midi": 29,
      "hit": false,
      "t": 42150,
      "d": 120,
      "v": 100
    },
    {
      "midi": 68,
      "hit": false,
      "t": 42150,
      "d": 120,
      "v": 127
    },
    {
      "midi": 29,
      "hit": false,
      "t": 42300,
      "d": 120,
      "v": 100
    },
    {
      "midi": 68,
      "hit": false,
      "t": 42300,
      "d": 240,
      "v": 127
    },
    {
      "midi": 68,
      "hit": false,
      "t": 42300,
      "d": 240,
      "v": 100
    },
    {
      "midi": 80,
      "hit": false,
      "t": 42300,
      "d": 240,
      "v": 100
    },
    {
      "midi": 54,
      "hit": false,
      "t": 42300,
      "d": 240,
      "v": 100
    },
    {
      "midi": 36,
      "hit": false,
      "t": 42600,
      "d": 240,
      "v": 100
    },
    {
      "midi": 46,
      "hit": false,
      "t": 42600,
      "d": 480,
      "v": 100
    },
    {
      "midi": 61,
      "hit": false,
      "t": 42600,
      "d": 240,
      "v": 127
    },
    {
      "midi": 67,
      "hit": false,
      "t": 42600,
      "d": 240,
      "v": 100
    },
    {
      "midi": 79,
      "hit": false,
      "t": 42600,
      "d": 240,
      "v": 100
    },
    {
      "midi": 29,
      "hit": false,
      "t": 42900,
      "d": 240,
      "v": 100
    },
    {
      "midi": 54,
      "hit": false,
      "t": 42900,
      "d": 240,
      "v": 100
    },
    {
      "midi": 68,
      "hit": false,
      "t": 42900,
      "d": 240,
      "v": 100
    },
    {
      "midi": 80,
      "hit": false,
      "t": 42900,
      "d": 240,
      "v": 100
    },
    {
      "midi": 54,
      "hit": false,
      "t": 42900,
      "d": 240,
      "v": 100
    },
    {
      "midi": 31,
      "hit": false,
      "t": 43200,
      "d": 480,
      "v": 100
    },
    {
      "midi": 70,
      "hit": false,
      "t": 43200,
      "d": 960,
      "v": 100
    },
    {
      "midi": 82,
      "hit": false,
      "t": 43200,
      "d": 960,
      "v": 100
    },
    {
      "midi": 54,
      "hit": false,
      "t": 43500,
      "d": 240,
      "v": 100
    },
    {
      "midi": 31,
      "hit": false,
      "t": 43800,
      "d": 360,
      "v": 100
    },
    {
      "midi": 54,
      "hit": false,
      "t": 44100,
      "d": 120,
      "v": 100
    },
    {
      "midi": 31,
      "hit": false,
      "t": 44250,
      "d": 240,
      "v": 100
    },
    {
      "midi": 54,
      "hit": false,
      "t": 44250,
      "d": 120,
      "v": 100
    },
    {
      "midi": 31,
      "hit": false,
      "t": 44550,
      "d": 120,
      "v": 100
    },
    {
      "midi": 31,
      "hit": false,
      "t": 44700,
      "d": 240,
      "v": 100
    },
    {
      "midi": 67,
      "hit": false,
      "t": 44700,
      "d": 240,
      "v": 100
    },
    {
      "midi": 79,
      "hit": false,
      "t": 44700,
      "d": 240,
      "v": 100
    },
    {
      "midi": 54,
      "hit": false,
      "t": 44700,
      "d": 240,
      "v": 100
    },
    {
      "midi": 38,
      "hit": false,
      "t": 45000,
      "d": 240,
      "v": 100
    },
    {
      "midi": 70,
      "hit": false,
      "t": 45000,
      "d": 240,
      "v": 100
    },
    {
      "midi": 82,
      "hit": false,
      "t": 45000,
      "d": 240,
      "v": 100
    },
    {
      "midi": 31,
      "hit": false,
      "t": 45300,
      "d": 240,
      "v": 100
    },
    {
      "midi": 72,
      "hit": false,
      "t": 45300,
      "d": 240,
      "v": 100
    },
    {
      "midi": 84,
      "hit": false,
      "t": 45300,
      "d": 240,
      "v": 100
    },
    {
      "midi": 54,
      "hit": false,
      "t": 45300,
      "d": 240,
      "v": 100
    },
    {
      "midi": 36,
      "hit": false,
      "t": 45600,
      "d": 480,
      "v": 100
    },
    {
      "midi": 74,
      "hit": false,
      "t": 45600,
      "d": 240,
      "v": 100
    },
    {
      "midi": 86,
      "hit": false,
      "t": 45600,
      "d": 240,
      "v": 100
    },
    {
      "midi": 75,
      "hit": false,
      "t": 45900,
      "d": 240,
      "v": 100
    },
    {
      "midi": 87,
      "hit": false,
      "t": 45900,
      "d": 240,
      "v": 100
    },
    {
      "midi": 54,
      "hit": false,
      "t": 45900,
      "d": 240,
      "v": 100
    },
    {
      "midi": 36,
      "hit": false,
      "t": 46200,
      "d": 360,
      "v": 100
    },
    {
      "midi": 74,
      "hit": false,
      "t": 46200,
      "d": 240,
      "v": 100
    },
    {
      "midi": 86,
      "hit": false,
      "t": 46200,
      "d": 240,
      "v": 100
    },
    {
      "midi": 75,
      "hit": false,
      "t": 46500,
      "d": 120,
      "v": 100
    },
    {
      "midi": 87,
      "hit": false,
      "t": 46500,
      "d": 120,
      "v": 100
    },
    {
      "midi": 54,
      "hit": false,
      "t": 46500,
      "d": 120,
      "v": 100
    },
    {
      "midi": 36,
      "hit": false,
      "t": 46650,
      "d": 240,
      "v": 100
    },
    {
      "midi": 74,
      "hit": false,
      "t": 46650,
      "d": 360,
      "v": 100
    },
    {
      "midi": 86,
      "hit": false,
      "t": 46650,
      "d": 360,
      "v": 100
    },
    {
      "midi": 54,
      "hit": false,
      "t": 46650,
      "d": 120,
      "v": 100
    },
    {
      "midi": 36,
      "hit": false,
      "t": 46950,
      "d": 120,
      "v": 100
    },
    {
      "midi": 36,
      "hit": false,
      "t": 47100,
      "d": 240,
      "v": 100
    },
    {
      "midi": 70,
      "hit": false,
      "t": 47100,
      "d": 240,
      "v": 100
    },
    {
      "midi": 82,
      "hit": false,
      "t": 47100,
      "d": 240,
      "v": 100
    },
    {
      "midi": 54,
      "hit": false,
      "t": 47100,
      "d": 240,
      "v": 100
    },
    {
      "midi": 31,
      "hit": false,
      "t": 47400,
      "d": 240,
      "v": 100
    },
    {
      "midi": 67,
      "hit": false,
      "t": 47400,
      "d": 240,
      "v": 100
    },
    {
      "midi": 79,
      "hit": false,
      "t": 47400,
      "d": 240,
      "v": 100
    },
    {
      "midi": 36,
      "hit": false,
      "t": 47700,
      "d": 240,
      "v": 100
    },
    {
      "midi": 70,
      "hit": false,
      "t": 47700,
      "d": 240,
      "v": 100
    },
    {
      "midi": 82,
      "hit": false,
      "t": 47700,
      "d": 240,
      "v": 100
    },
    {
      "midi": 54,
      "hit": false,
      "t": 47700,
      "d": 240,
      "v": 100
    },
    {
      "midi": 29,
      "hit": false,
      "t": 48000,
      "d": 480,
      "v": 100
    },
    {
      "midi": 68,
      "hit": false,
      "t": 48000,
      "d": 960,
      "v": 100
    },
    {
      "midi": 80,
      "hit": false,
      "t": 48000,
      "d": 960,
      "v": 100
    },
    {
      "midi": 54,
      "hit": false,
      "t": 48300,
      "d": 240,
      "v": 100
    },
    {
      "midi": 29,
      "hit": false,
      "t": 48600,
      "d": 360,
      "v": 100
    },
    {
      "midi": 54,
      "hit": false,
      "t": 48900,
      "d": 120,
      "v": 100
    },
    {
      "midi": 29,
      "hit": false,
      "t": 49050,
      "d": 240,
      "v": 100
    },
    {
      "midi": 54,
      "hit": false,
      "t": 49050,
      "d": 120,
      "v": 100
    },
    {
      "midi": 29,
      "hit": false,
      "t": 49350,
      "d": 120,
      "v": 100
    },
    {
      "midi": 29,
      "hit": false,
      "t": 49500,
      "d": 240,
      "v": 100
    },
    {
      "midi": 68,
      "hit": false,
      "t": 49500,
      "d": 240,
      "v": 100
    },
    {
      "midi": 80,
      "hit": false,
      "t": 49500,
      "d": 240,
      "v": 100
    },
    {
      "midi": 54,
      "hit": false,
      "t": 49500,
      "d": 240,
      "v": 100
    },
    {
      "midi": 36,
      "hit": false,
      "t": 49800,
      "d": 240,
      "v": 100
    },
    {
      "midi": 68,
      "hit": false,
      "t": 49800,
      "d": 240,
      "v": 100
    },
    {
      "midi": 80,
      "hit": false,
      "t": 49800,
      "d": 240,
      "v": 100
    },
    {
      "midi": 29,
      "hit": false,
      "t": 50100,
      "d": 240,
      "v": 100
    },
    {
      "midi": 70,
      "hit": false,
      "t": 50100,
      "d": 240,
      "v": 100
    },
    {
      "midi": 82,
      "hit": false,
      "t": 50100,
      "d": 240,
      "v": 100
    },
    {
      "midi": 54,
      "hit": false,
      "t": 50100,
      "d": 240,
      "v": 100
    },
    {
      "midi": 29,
      "hit": false,
      "t": 50400,
      "d": 480,
      "v": 100
    },
    {
      "midi": 71,
      "hit": false,
      "t": 50400,
      "d": 240,
      "v": 100
    },
    {
      "midi": 83,
      "hit": false,
      "t": 50400,
      "d": 240,
      "v": 100
    },
    {
      "midi": 73,
      "hit": false,
      "t": 50700,
      "d": 240,
      "v": 100
    },
    {
      "midi": 85,
      "hit": false,
      "t": 50700,
      "d": 240,
      "v": 100
    },
    {
      "midi": 54,
      "hit": false,
      "t": 50700,
      "d": 240,
      "v": 100
    },
    {
      "midi": 29,
      "hit": false,
      "t": 51000,
      "d": 360,
      "v": 100
    },
    {
      "midi": 71,
      "hit": false,
      "t": 51000,
      "d": 240,
      "v": 100
    },
    {
      "midi": 83,
      "hit": false,
      "t": 51000,
      "d": 240,
      "v": 100
    },
    {
      "midi": 73,
      "hit": false,
      "t": 51300,
      "d": 120,
      "v": 100
    },
    {
      "midi": 85,
      "hit": false,
      "t": 51300,
      "d": 120,
      "v": 100
    },
    {
      "midi": 54,
      "hit": false,
      "t": 51300,
      "d": 120,
      "v": 100
    },
    {
      "midi": 29,
      "hit": false,
      "t": 51450,
      "d": 240,
      "v": 100
    },
    {
      "midi": 71,
      "hit": false,
      "t": 51450,
      "d": 360,
      "v": 100
    },
    {
      "midi": 83,
      "hit": false,
      "t": 51450,
      "d": 360,
      "v": 100
    },
    {
      "midi": 54,
      "hit": false,
      "t": 51450,
      "d": 120,
      "v": 100
    },
    {
      "midi": 29,
      "hit": false,
      "t": 51750,
      "d": 120,
      "v": 100
    },
    {
      "midi": 29,
      "hit": false,
      "t": 51900,
      "d": 240,
      "v": 100
    },
    {
      "midi": 70,
      "hit": false,
      "t": 51900,
      "d": 240,
      "v": 100
    },
    {
      "midi": 82,
      "hit": false,
      "t": 51900,
      "d": 240,
      "v": 100
    },
    {
      "midi": 54,
      "hit": false,
      "t": 51900,
      "d": 240,
      "v": 100
    },
    {
      "midi": 36,
      "hit": false,
      "t": 52200,
      "d": 240,
      "v": 100
    },
    {
      "midi": 68,
      "hit": false,
      "t": 52200,
      "d": 240,
      "v": 100
    },
    {
      "midi": 80,
      "hit": false,
      "t": 52200,
      "d": 240,
      "v": 100
    },
    {
      "midi": 29,
      "hit": false,
      "t": 52500,
      "d": 240,
      "v": 100
    },
    {
      "midi": 71,
      "hit": false,
      "t": 52500,
      "d": 240,
      "v": 100
    },
    {
      "midi": 83,
      "hit": false,
      "t": 52500,
      "d": 240,
      "v": 100
    },
    {
      "midi": 54,
      "hit": false,
      "t": 52500,
      "d": 240,
      "v": 100
    },
    {
      "midi": 31,
      "hit": false,
      "t": 52800,
      "d": 480,
      "v": 100
    },
    {
      "midi": 70,
      "hit": false,
      "t": 52800,
      "d": 960,
      "v": 100
    },
    {
      "midi": 82,
      "hit": false,
      "t": 52800,
      "d": 960,
      "v": 100
    },
    {
      "midi": 54,
      "hit": false,
      "t": 53100,
      "d": 240,
      "v": 100
    },
    {
      "midi": 31,
      "hit": false,
      "t": 53400,
      "d": 360,
      "v": 100
    },
    {
      "midi": 54,
      "hit": false,
      "t": 53700,
      "d": 120,
      "v": 100
    },
    {
      "midi": 31,
      "hit": false,
      "t": 53850,
      "d": 240,
      "v": 100
    },
    {
      "midi": 54,
      "hit": false,
      "t": 53850,
      "d": 120,
      "v": 100
    },
    {
      "midi": 31,
      "hit": false,
      "t": 54150,
      "d": 120,
      "v": 100
    },
    {
      "midi": 31,
      "hit": false,
      "t": 54300,
      "d": 240,
      "v": 100
    },
    {
      "midi": 67,
      "hit": false,
      "t": 54300,
      "d": 240,
      "v": 100
    },
    {
      "midi": 79,
      "hit": false,
      "t": 54300,
      "d": 240,
      "v": 100
    },
    {
      "midi": 54,
      "hit": false,
      "t": 54300,
      "d": 240,
      "v": 100
    },
    {
      "midi": 38,
      "hit": false,
      "t": 54600,
      "d": 240,
      "v": 100
    },
    {
      "midi": 70,
      "hit": false,
      "t": 54600,
      "d": 240,
      "v": 100
    },
    {
      "midi": 82,
      "hit": false,
      "t": 54600,
      "d": 240,
      "v": 100
    },
    {
      "midi": 31,
      "hit": false,
      "t": 54900,
      "d": 240,
      "v": 100
    },
    {
      "midi": 72,
      "hit": false,
      "t": 54900,
      "d": 240,
      "v": 100
    },
    {
      "midi": 84,
      "hit": false,
      "t": 54900,
      "d": 240,
      "v": 100
    },
    {
      "midi": 54,
      "hit": false,
      "t": 54900,
      "d": 240,
      "v": 100
    },
    {
      "midi": 36,
      "hit": false,
      "t": 55200,
      "d": 480,
      "v": 100
    },
    {
      "midi": 74,
      "hit": false,
      "t": 55200,
      "d": 240,
      "v": 100
    },
    {
      "midi": 86,
      "hit": false,
      "t": 55200,
      "d": 240,
      "v": 100
    },
    {
      "midi": 75,
      "hit": false,
      "t": 55500,
      "d": 240,
      "v": 100
    },
    {
      "midi": 87,
      "hit": false,
      "t": 55500,
      "d": 240,
      "v": 100
    },
    {
      "midi": 54,
      "hit": false,
      "t": 55500,
      "d": 240,
      "v": 100
    },
    {
      "midi": 36,
      "hit": false,
      "t": 55800,
      "d": 360,
      "v": 100
    },
    {
      "midi": 74,
      "hit": false,
      "t": 55800,
      "d": 240,
      "v": 100
    },
    {
      "midi": 86,
      "hit": false,
      "t": 55800,
      "d": 240,
      "v": 100
    },
    {
      "midi": 75,
      "hit": false,
      "t": 56100,
      "d": 120,
      "v": 100
    },
    {
      "midi": 87,
      "hit": false,
      "t": 56100,
      "d": 120,
      "v": 100
    },
    {
      "midi": 54,
      "hit": false,
      "t": 56100,
      "d": 120,
      "v": 100
    },
    {
      "midi": 36,
      "hit": false,
      "t": 56250,
      "d": 240,
      "v": 100
    },
    {
      "midi": 74,
      "hit": false,
      "t": 56250,
      "d": 360,
      "v": 100
    },
    {
      "midi": 86,
      "hit": false,
      "t": 56250,
      "d": 360,
      "v": 100
    },
    {
      "midi": 54,
      "hit": false,
      "t": 56250,
      "d": 120,
      "v": 100
    },
    {
      "midi": 36,
      "hit": false,
      "t": 56550,
      "d": 120,
      "v": 100
    },
    {
      "midi": 36,
      "hit": false,
      "t": 56700,
      "d": 240,
      "v": 100
    },
    {
      "midi": 70,
      "hit": false,
      "t": 56700,
      "d": 240,
      "v": 100
    },
    {
      "midi": 82,
      "hit": false,
      "t": 56700,
      "d": 240,
      "v": 100
    },
    {
      "midi": 54,
      "hit": false,
      "t": 56700,
      "d": 240,
      "v": 100
    },
    {
      "midi": 31,
      "hit": false,
      "t": 57000,
      "d": 240,
      "v": 100
    },
    {
      "midi": 67,
      "hit": false,
      "t": 57000,
      "d": 240,
      "v": 100
    },
    {
      "midi": 79,
      "hit": false,
      "t": 57000,
      "d": 240,
      "v": 100
    },
    {
      "midi": 36,
      "hit": false,
      "t": 57300,
      "d": 240,
      "v": 100
    },
    {
      "midi": 70,
      "hit": false,
      "t": 57300,
      "d": 240,
      "v": 100
    },
    {
      "midi": 82,
      "hit": false,
      "t": 57300,
      "d": 240,
      "v": 100
    },
    {
      "midi": 54,
      "hit": false,
      "t": 57300,
      "d": 240,
      "v": 100
    },
    {
      "midi": 29,
      "hit": false,
      "t": 57600,
      "d": 480,
      "v": 100
    },
    {
      "midi": 69,
      "hit": false,
      "t": 57600,
      "d": 960,
      "v": 100
    },
    {
      "midi": 81,
      "hit": false,
      "t": 57600,
      "d": 960,
      "v": 100
    },
    {
      "midi": 54,
      "hit": false,
      "t": 57900,
      "d": 240,
      "v": 100
    },
    {
      "midi": 29,
      "hit": false,
      "t": 58200,
      "d": 360,
      "v": 100
    },
    {
      "midi": 54,
      "hit": false,
      "t": 58500,
      "d": 120,
      "v": 100
    },
    {
      "midi": 29,
      "hit": false,
      "t": 58650,
      "d": 240,
      "v": 100
    },
    {
      "midi": 54,
      "hit": false,
      "t": 58650,
      "d": 120,
      "v": 100
    },
    {
      "midi": 29,
      "hit": false,
      "t": 58950,
      "d": 120,
      "v": 100
    },
    {
      "midi": 29,
      "hit": false,
      "t": 59100,
      "d": 240,
      "v": 100
    },
    {
      "midi": 72,
      "hit": false,
      "t": 59100,
      "d": 240,
      "v": 100
    },
    {
      "midi": 84,
      "hit": false,
      "t": 59100,
      "d": 240,
      "v": 100
    },
    {
      "midi": 54,
      "hit": false,
      "t": 59100,
      "d": 240,
      "v": 100
    },
    {
      "midi": 29,
      "hit": false,
      "t": 59400,
      "d": 240,
      "v": 100
    },
    {
      "midi": 74,
      "hit": false,
      "t": 59400,
      "d": 240,
      "v": 100
    },
    {
      "midi": 86,
      "hit": false,
      "t": 59400,
      "d": 240,
      "v": 100
    },
    {
      "midi": 36,
      "hit": false,
      "t": 59700,
      "d": 240,
      "v": 100
    },
    {
      "midi": 75,
      "hit": false,
      "t": 59700,
      "d": 240,
      "v": 100
    },
    {
      "midi": 87,
      "hit": false,
      "t": 59700,
      "d": 240,
      "v": 100
    },
    {
      "midi": 54,
      "hit": false,
      "t": 59700,
      "d": 240,
      "v": 100
    },
    {
      "midi": 34,
      "hit": false,
      "t": 60000,
      "d": 240,
      "v": 100
    },
    {
      "midi": 62,
      "hit": false,
      "t": 60000,
      "d": 240,
      "v": 127
    },
    {
      "midi": 74,
      "hit": false,
      "t": 60000,
      "d": 240,
      "v": 100
    },
    {
      "midi": 86,
      "hit": false,
      "t": 60000,
      "d": 240,
      "v": 100
    },
    {
      "midi": 54,
      "hit": false,
      "t": 60000,
      "d": 240,
      "v": 100
    },
    {
      "midi": 34,
      "hit": false,
      "t": 60300,
      "d": 240,
      "v": 100
    },
    {
      "midi": 62,
      "hit": false,
      "t": 60300,
      "d": 240,
      "v": 127
    },
    {
      "midi": 75,
      "hit": false,
      "t": 60300,
      "d": 240,
      "v": 100
    },
    {
      "midi": 87,
      "hit": false,
      "t": 60300,
      "d": 240,
      "v": 100
    },
    {
      "midi": 54,
      "hit": false,
      "t": 60300,
      "d": 240,
      "v": 100
    },
    {
      "midi": 34,
      "hit": false,
      "t": 60600,
      "d": 240,
      "v": 100
    },
    {
      "midi": 62,
      "hit": false,
      "t": 60600,
      "d": 240,
      "v": 127
    },
    {
      "midi": 72,
      "hit": false,
      "t": 60600,
      "d": 240,
      "v": 100
    },
    {
      "midi": 84,
      "hit": false,
      "t": 60600,
      "d": 240,
      "v": 100
    },
    {
      "midi": 54,
      "hit": false,
      "t": 60600,
      "d": 240,
      "v": 100
    },
    {
      "midi": 34,
      "hit": false,
      "t": 60900,
      "d": 120,
      "v": 100
    },
    {
      "midi": 62,
      "hit": false,
      "t": 60900,
      "d": 120,
      "v": 127
    },
    {
      "midi": 74,
      "hit": false,
      "t": 60900,
      "d": 120,
      "v": 100
    },
    {
      "midi": 86,
      "hit": false,
      "t": 60900,
      "d": 120,
      "v": 100
    },
    {
      "midi": 54,
      "hit": false,
      "t": 60900,
      "d": 120,
      "v": 100
    },
    {
      "midi": 34,
      "hit": false,
      "t": 61050,
      "d": 120,
      "v": 100
    },
    {
      "midi": 62,
      "hit": false,
      "t": 61050,
      "d": 120,
      "v": 127
    },
    {
      "midi": 70,
      "hit": false,
      "t": 61050,
      "d": 240,
      "v": 100
    },
    {
      "midi": 82,
      "hit": false,
      "t": 61050,
      "d": 240,
      "v": 100
    },
    {
      "midi": 54,
      "hit": false,
      "t": 61050,
      "d": 120,
      "v": 100
    },
    {
      "midi": 64,
      "hit": false,
      "t": 61800,
      "d": 60,
      "v": 127
    },
    {
      "midi": 70,
      "hit": false,
      "t": 61800,
      "d": 480,
      "v": 100
    },
    {
      "midi": 82,
      "hit": false,
      "t": 61800,
      "d": 480,
      "v": 100
    },
    {
      "midi": 54,
      "hit": false,
      "t": 61800,
      "d": 480,
      "v": 100
    },
    {
      "midi": 70,
      "hit": false,
      "t": 61800,
      "d": 480,
      "v": 100
    },
    {
      "midi": 82,
      "hit": false,
      "t": 61800,
      "d": 480,
      "v": 100
    },
    {
      "midi": 60,
      "hit": false,
      "t": 61875,
      "d": 60,
      "v": 127
    },
    {
      "midi": 55,
      "hit": false,
      "t": 61950,
      "d": 60,
      "v": 127
    },
    {
      "midi": 47,
      "hit": false,
      "t": 62025,
      "d": 60,
      "v": 127
    },
    {
      "midi": 41,
      "hit": false,
      "t": 62100,
      "d": 60,
      "v": 127
    },
    {
      "midi": 39,
      "hit": false,
      "t": 62400,
      "d": 480,
      "v": 100
    },
    {
      "midi": 63,
      "hit": false,
      "t": 62400,
      "d": 120,
      "v": 100
    },
    {
      "midi": 75,
      "hit": false,
      "t": 62400,
      "d": 120,
      "v": 100
    },
    {
      "midi": 87,
      "hit": false,
      "t": 62400,
      "d": 120,
      "v": 100
    },
    {
      "midi": 67,
      "hit": false,
      "t": 62700,
      "d": 180,
      "v": 100
    },
    {
      "midi": 54,
      "hit": false,
      "t": 62700,
      "d": 240,
      "v": 100
    },
    {
      "midi": 67,
      "hit": false,
      "t": 63000,
      "d": 180,
      "v": 100
    },
    {
      "midi": 39,
      "hit": false,
      "t": 63000,
      "d": 360,
      "v": 100
    },
    {
      "midi": 46,
      "hit": false,
      "t": 63000,
      "d": 480,
      "v": 100
    },
    {
      "midi": 67,
      "hit": false,
      "t": 63300,
      "d": 95,
      "v": 100
    },
    {
      "midi": 54,
      "hit": false,
      "t": 63300,
      "d": 120,
      "v": 100
    },
    {
      "midi": 68,
      "hit": false,
      "t": 63450,
      "d": 360,
      "v": 100
    },
    {
      "midi": 39,
      "hit": false,
      "t": 63450,
      "d": 240,
      "v": 100
    },
    {
      "midi": 54,
      "hit": false,
      "t": 63450,
      "d": 120,
      "v": 100
    },
    {
      "midi": 39,
      "hit": false,
      "t": 63750,
      "d": 120,
      "v": 100
    },
    {
      "midi": 67,
      "hit": false,
      "t": 63900,
      "d": 180,
      "v": 100
    },
    {
      "midi": 39,
      "hit": false,
      "t": 63900,
      "d": 120,
      "v": 100
    },
    {
      "midi": 54,
      "hit": false,
      "t": 63900,
      "d": 240,
      "v": 100
    },
    {
      "midi": 65,
      "hit": false,
      "t": 64200,
      "d": 185,
      "v": 100
    },
    {
      "midi": 39,
      "hit": false,
      "t": 64200,
      "d": 170,
      "v": 100
    },
    {
      "midi": 46,
      "hit": false,
      "t": 64200,
      "d": 480,
      "v": 100
    },
    {
      "midi": 63,
      "hit": false,
      "t": 64500,
      "d": 188.75,
      "v": 100
    },
    {
      "midi": 39,
      "hit": false,
      "t": 64500,
      "d": 170,
      "v": 100
    },
    {
      "midi": 54,
      "hit": false,
      "t": 64500,
      "d": 240,
      "v": 100
    },
    {
      "midi": 31,
      "hit": false,
      "t": 64800,
      "d": 480,
      "v": 100
    },
    {
      "midi": 70,
      "hit": false,
      "t": 65100,
      "d": 240,
      "v": 100
    },
    {
      "midi": 54,
      "hit": false,
      "t": 65100,
      "d": 240,
      "v": 100
    },
    {
      "midi": 70,
      "hit": false,
      "t": 65400,
      "d": 240,
      "v": 100
    },
    {
      "midi": 31,
      "hit": false,
      "t": 65400,
      "d": 360,
      "v": 100
    },
    {
      "midi": 46,
      "hit": false,
      "t": 65400,
      "d": 480,
      "v": 100
    },
    {
      "midi": 70,
      "hit": false,
      "t": 65700,
      "d": 120,
      "v": 100
    },
    {
      "midi": 54,
      "hit": false,
      "t": 65700,
      "d": 120,
      "v": 100
    },
    {
      "midi": 72,
      "hit": false,
      "t": 65850,
      "d": 360,
      "v": 100
    },
    {
      "midi": 31,
      "hit": false,
      "t": 65850,
      "d": 240,
      "v": 100
    },
    {
      "midi": 54,
      "hit": false,
      "t": 65850,
      "d": 120,
      "v": 100
    },
    {
      "midi": 31,
      "hit": false,
      "t": 66150,
      "d": 120,
      "v": 100
    },
    {
      "midi": 70,
      "hit": false,
      "t": 66300,
      "d": 240,
      "v": 100
    },
    {
      "midi": 31,
      "hit": false,
      "t": 66300,
      "d": 120,
      "v": 100
    },
    {
      "midi": 54,
      "hit": false,
      "t": 66300,
      "d": 240,
      "v": 100
    },
    {
      "midi": 68,
      "hit": false,
      "t": 66600,
      "d": 240,
      "v": 100
    },
    {
      "midi": 38,
      "hit": false,
      "t": 66600,
      "d": 240,
      "v": 100
    },
    {
      "midi": 46,
      "hit": false,
      "t": 66600,
      "d": 480,
      "v": 100
    },
    {
      "midi": 67,
      "hit": false,
      "t": 66900,
      "d": 240,
      "v": 100
    },
    {
      "midi": 31,
      "hit": false,
      "t": 66900,
      "d": 240,
      "v": 100
    },
    {
      "midi": 54,
      "hit": false,
      "t": 66900,
      "d": 240,
      "v": 100
    },
    {
      "midi": 65,
      "hit": false,
      "t": 67200,
      "d": 240,
      "v": 100
    },
    {
      "midi": 29,
      "hit": false,
      "t": 67200,
      "d": 480,
      "v": 100
    },
    {
      "midi": 67,
      "hit": false,
      "t": 67500,
      "d": 120,
      "v": 100
    },
    {
      "midi": 54,
      "hit": false,
      "t": 67500,
      "d": 240,
      "v": 100
    },
    {
      "midi": 68,
      "hit": false,
      "t": 67650,
      "d": 840,
      "v": 100
    },
    {
      "midi": 29,
      "hit": false,
      "t": 67800,
      "d": 360,
      "v": 100
    },
    {
      "midi": 46,
      "hit": false,
      "t": 67800,
      "d": 480,
      "v": 100
    },
    {
      "midi": 54,
      "hit": false,
      "t": 68100,
      "d": 120,
      "v": 100
    },
    {
      "midi": 29,
      "hit": false,
      "t": 68250,
      "d": 240,
      "v": 100
    },
    {
      "midi": 54,
      "hit": false,
      "t": 68250,
      "d": 120,
      "v": 100
    },
    {
      "midi": 29,
      "hit": false,
      "t": 68550,
      "d": 120,
      "v": 100
    },
    {
      "midi": 68,
      "hit": false,
      "t": 68700,
      "d": 240,
      "v": 100
    },
    {
      "midi": 29,
      "hit": false,
      "t": 68700,
      "d": 120,
      "v": 100
    },
    {
      "midi": 54,
      "hit": false,
      "t": 68700,
      "d": 240,
      "v": 100
    },
    {
      "midi": 67,
      "hit": false,
      "t": 69000,
      "d": 240,
      "v": 100
    },
    {
      "midi": 36,
      "hit": false,
      "t": 69000,
      "d": 240,
      "v": 100
    },
    {
      "midi": 46,
      "hit": false,
      "t": 69000,
      "d": 480,
      "v": 100
    },
    {
      "midi": 65,
      "hit": false,
      "t": 69300,
      "d": 240,
      "v": 100
    },
    {
      "midi": 29,
      "hit": false,
      "t": 69300,
      "d": 240,
      "v": 100
    },
    {
      "midi": 54,
      "hit": false,
      "t": 69300,
      "d": 240,
      "v": 100
    },
    {
      "midi": 65,
      "hit": false,
      "t": 69600,
      "d": 240,
      "v": 100
    },
    {
      "midi": 29,
      "hit": false,
      "t": 69600,
      "d": 480,
      "v": 100
    },
    {
      "midi": 67,
      "hit": false,
      "t": 69900,
      "d": 120,
      "v": 100
    },
    {
      "midi": 54,
      "hit": false,
      "t": 69900,
      "d": 240,
      "v": 100
    },
    {
      "midi": 68,
      "hit": false,
      "t": 70050,
      "d": 840,
      "v": 100
    },
    {
      "midi": 29,
      "hit": false,
      "t": 70200,
      "d": 360,
      "v": 100
    },
    {
      "midi": 46,
      "hit": false,
      "t": 70200,
      "d": 480,
      "v": 100
    },
    {
      "midi": 54,
      "hit": false,
      "t": 70500,
      "d": 120,
      "v": 100
    },
    {
      "midi": 29,
      "hit": false,
      "t": 70650,
      "d": 240,
      "v": 100
    },
    {
      "midi": 54,
      "hit": false,
      "t": 70650,
      "d": 120,
      "v": 100
    },
    {
      "midi": 29,
      "hit": false,
      "t": 70950,
      "d": 120,
      "v": 100
    },
    {
      "midi": 68,
      "hit": false,
      "t": 71100,
      "d": 240,
      "v": 100
    },
    {
      "midi": 29,
      "hit": false,
      "t": 71100,
      "d": 120,
      "v": 100
    },
    {
      "midi": 54,
      "hit": false,
      "t": 71100,
      "d": 240,
      "v": 100
    },
    {
      "midi": 67,
      "hit": false,
      "t": 71400,
      "d": 240,
      "v": 100
    },
    {
      "midi": 36,
      "hit": false,
      "t": 71400,
      "d": 240,
      "v": 100
    },
    {
      "midi": 46,
      "hit": false,
      "t": 71400,
      "d": 480,
      "v": 100
    },
    {
      "midi": 65,
      "hit": false,
      "t": 71700,
      "d": 240,
      "v": 100
    },
    {
      "midi": 29,
      "hit": false,
      "t": 71700,
      "d": 240,
      "v": 100
    },
    {
      "midi": 54,
      "hit": false,
      "t": 71700,
      "d": 240,
      "v": 100
    },
    {
      "midi": 63,
      "hit": false,
      "t": 72000,
      "d": 1440,
      "v": 100
    },
    {
      "midi": 39,
      "hit": false,
      "t": 72000,
      "d": 480,
      "v": 100
    },
    {
      "midi": 63,
      "hit": false,
      "t": 72000,
      "d": 120,
      "v": 100
    },
    {
      "midi": 75,
      "hit": false,
      "t": 72000,
      "d": 120,
      "v": 100
    },
    {
      "midi": 87,
      "hit": false,
      "t": 72000,
      "d": 120,
      "v": 100
    },
    {
      "midi": 79,
      "hit": false,
      "t": 72300,
      "d": 240,
      "v": 100
    },
    {
      "midi": 54,
      "hit": false,
      "t": 72300,
      "d": 240,
      "v": 100
    },
    {
      "midi": 79,
      "hit": false,
      "t": 72600,
      "d": 240,
      "v": 100
    },
    {
      "midi": 39,
      "hit": false,
      "t": 72600,
      "d": 360,
      "v": 100
    },
    {
      "midi": 46,
      "hit": false,
      "t": 72600,
      "d": 480,
      "v": 100
    },
    {
      "midi": 79,
      "hit": false,
      "t": 72900,
      "d": 120,
      "v": 100
    },
    {
      "midi": 54,
      "hit": false,
      "t": 72900,
      "d": 120,
      "v": 100
    },
    {
      "midi": 80,
      "hit": false,
      "t": 73050,
      "d": 360,
      "v": 100
    },
    {
      "midi": 39,
      "hit": false,
      "t": 73050,
      "d": 240,
      "v": 100
    },
    {
      "midi": 54,
      "hit": false,
      "t": 73050,
      "d": 120,
      "v": 100
    },
    {
      "midi": 39,
      "hit": false,
      "t": 73350,
      "d": 120,
      "v": 100
    },
    {
      "midi": 79,
      "hit": false,
      "t": 73500,
      "d": 240,
      "v": 100
    },
    {
      "midi": 39,
      "hit": false,
      "t": 73500,
      "d": 120,
      "v": 100
    },
    {
      "midi": 54,
      "hit": false,
      "t": 73500,
      "d": 240,
      "v": 100
    },
    {
      "midi": 77,
      "hit": false,
      "t": 73800,
      "d": 240,
      "v": 100
    },
    {
      "midi": 67,
      "hit": false,
      "t": 73800,
      "d": 480,
      "v": 100
    },
    {
      "midi": 39,
      "hit": false,
      "t": 73800,
      "d": 170,
      "v": 100
    },
    {
      "midi": 46,
      "hit": false,
      "t": 73800,
      "d": 480,
      "v": 100
    },
    {
      "midi": 75,
      "hit": false,
      "t": 74100,
      "d": 240,
      "v": 100
    },
    {
      "midi": 39,
      "hit": false,
      "t": 74100,
      "d": 170,
      "v": 100
    },
    {
      "midi": 54,
      "hit": false,
      "t": 74100,
      "d": 240,
      "v": 100
    },
    {
      "midi": 62,
      "hit": false,
      "t": 74400,
      "d": 1440,
      "v": 100
    },
    {
      "midi": 31,
      "hit": false,
      "t": 74400,
      "d": 480,
      "v": 100
    },
    {
      "midi": 82,
      "hit": false,
      "t": 74700,
      "d": 240,
      "v": 100
    },
    {
      "midi": 54,
      "hit": false,
      "t": 74700,
      "d": 240,
      "v": 100
    },
    {
      "midi": 82,
      "hit": false,
      "t": 75000,
      "d": 240,
      "v": 100
    },
    {
      "midi": 31,
      "hit": false,
      "t": 75000,
      "d": 360,
      "v": 100
    },
    {
      "midi": 46,
      "hit": false,
      "t": 75000,
      "d": 480,
      "v": 100
    },
    {
      "midi": 82,
      "hit": false,
      "t": 75300,
      "d": 120,
      "v": 100
    },
    {
      "midi": 54,
      "hit": false,
      "t": 75300,
      "d": 120,
      "v": 100
    },
    {
      "midi": 84,
      "hit": false,
      "t": 75450,
      "d": 360,
      "v": 100
    },
    {
      "midi": 31,
      "hit": false,
      "t": 75450,
      "d": 240,
      "v": 100
    },
    {
      "midi": 54,
      "hit": false,
      "t": 75450,
      "d": 120,
      "v": 100
    },
    {
      "midi": 31,
      "hit": false,
      "t": 75750,
      "d": 120,
      "v": 100
    },
    {
      "midi": 82,
      "hit": false,
      "t": 75900,
      "d": 240,
      "v": 100
    },
    {
      "midi": 31,
      "hit": false,
      "t": 75900,
      "d": 120,
      "v": 100
    },
    {
      "midi": 54,
      "hit": false,
      "t": 75900,
      "d": 240,
      "v": 100
    },
    {
      "midi": 80,
      "hit": false,
      "t": 76200,
      "d": 240,
      "v": 100
    },
    {
      "midi": 58,
      "hit": false,
      "t": 76200,
      "d": 480,
      "v": 100
    },
    {
      "midi": 38,
      "hit": false,
      "t": 76200,
      "d": 240,
      "v": 100
    },
    {
      "midi": 46,
      "hit": false,
      "t": 76200,
      "d": 480,
      "v": 100
    },
    {
      "midi": 79,
      "hit": false,
      "t": 76500,
      "d": 240,
      "v": 100
    },
    {
      "midi": 31,
      "hit": false,
      "t": 76500,
      "d": 240,
      "v": 100
    },
    {
      "midi": 54,
      "hit": false,
      "t": 76500,
      "d": 240,
      "v": 100
    },
    {
      "midi": 77,
      "hit": false,
      "t": 76800,
      "d": 240,
      "v": 100
    },
    {
      "midi": 60,
      "hit": false,
      "t": 76800,
      "d": 1440,
      "v": 75
    },
    {
      "midi": 29,
      "hit": false,
      "t": 76800,
      "d": 480,
      "v": 100
    },
    {
      "midi": 79,
      "hit": false,
      "t": 77100,
      "d": 120,
      "v": 100
    },
    {
      "midi": 54,
      "hit": false,
      "t": 77100,
      "d": 240,
      "v": 100
    },
    {
      "midi": 80,
      "hit": false,
      "t": 77250,
      "d": 840,
      "v": 100
    },
    {
      "midi": 29,
      "hit": false,
      "t": 77400,
      "d": 360,
      "v": 100
    },
    {
      "midi": 46,
      "hit": false,
      "t": 77400,
      "d": 480,
      "v": 100
    },
    {
      "midi": 54,
      "hit": false,
      "t": 77700,
      "d": 120,
      "v": 100
    },
    {
      "midi": 29,
      "hit": false,
      "t": 77850,
      "d": 240,
      "v": 100
    },
    {
      "midi": 54,
      "hit": false,
      "t": 77850,
      "d": 120,
      "v": 100
    },
    {
      "midi": 29,
      "hit": false,
      "t": 78150,
      "d": 120,
      "v": 100
    },
    {
      "midi": 80,
      "hit": false,
      "t": 78300,
      "d": 240,
      "v": 100
    },
    {
      "midi": 29,
      "hit": false,
      "t": 78300,
      "d": 120,
      "v": 100
    },
    {
      "midi": 54,
      "hit": false,
      "t": 78300,
      "d": 240,
      "v": 100
    },
    {
      "midi": 79,
      "hit": false,
      "t": 78600,
      "d": 240,
      "v": 100
    },
    {
      "midi": 60,
      "hit": false,
      "t": 78600,
      "d": 480,
      "v": 67
    },
    {
      "midi": 36,
      "hit": false,
      "t": 78600,
      "d": 240,
      "v": 100
    },
    {
      "midi": 46,
      "hit": false,
      "t": 78600,
      "d": 480,
      "v": 100
    },
    {
      "midi": 80,
      "hit": false,
      "t": 78900,
      "d": 240,
      "v": 100
    },
    {
      "midi": 29,
      "hit": false,
      "t": 78900,
      "d": 240,
      "v": 100
    },
    {
      "midi": 54,
      "hit": false,
      "t": 78900,
      "d": 240,
      "v": 100
    },
    {
      "midi": 82,
      "hit": false,
      "t": 79200,
      "d": 240,
      "v": 100
    },
    {
      "midi": 70,
      "hit": false,
      "t": 79200,
      "d": 240,
      "v": 100
    },
    {
      "midi": 34,
      "hit": false,
      "t": 79200,
      "d": 240,
      "v": 100
    },
    {
      "midi": 82,
      "hit": false,
      "t": 79500,
      "d": 240,
      "v": 100
    },
    {
      "midi": 70,
      "hit": false,
      "t": 79500,
      "d": 240,
      "v": 100
    },
    {
      "midi": 34,
      "hit": false,
      "t": 79500,
      "d": 240,
      "v": 100
    },
    {
      "midi": 54,
      "hit": false,
      "t": 79500,
      "d": 240,
      "v": 100
    },
    {
      "midi": 82,
      "hit": false,
      "t": 79800,
      "d": 240,
      "v": 100
    },
    {
      "midi": 70,
      "hit": false,
      "t": 79800,
      "d": 240,
      "v": 100
    },
    {
      "midi": 34,
      "hit": false,
      "t": 79800,
      "d": 240,
      "v": 100
    },
    {
      "midi": 46,
      "hit": false,
      "t": 79800,
      "d": 480,
      "v": 100
    },
    {
      "midi": 82,
      "hit": false,
      "t": 80100,
      "d": 120,
      "v": 100
    },
    {
      "midi": 70,
      "hit": false,
      "t": 80100,
      "d": 120,
      "v": 100
    },
    {
      "midi": 34,
      "hit": false,
      "t": 80100,
      "d": 120,
      "v": 100
    },
    {
      "midi": 54,
      "hit": false,
      "t": 80100,
      "d": 120,
      "v": 100
    },
    {
      "midi": 82,
      "hit": false,
      "t": 80250,
      "d": 120,
      "v": 100
    },
    {
      "midi": 70,
      "hit": false,
      "t": 80250,
      "d": 120,
      "v": 100
    },
    {
      "midi": 34,
      "hit": false,
      "t": 80250,
      "d": 120,
      "v": 100
    },
    {
      "midi": 54,
      "hit": false,
      "t": 80250,
      "d": 120,
      "v": 100
    },
    {
      "midi": 84,
      "hit": false,
      "t": 80700,
      "d": 240,
      "v": 100
    },
    {
      "midi": 54,
      "hit": false,
      "t": 80700,
      "d": 240,
      "v": 100
    },
    {
      "midi": 79,
      "hit": false,
      "t": 81000,
      "d": 120,
      "v": 100
    },
    {
      "midi": 41,
      "hit": false,
      "t": 81000,
      "d": 120,
      "v": 100
    },
    {
      "midi": 43,
      "hit": false,
      "t": 81000,
      "d": 120,
      "v": 100
    },
    {
      "midi": 57,
      "hit": false,
      "t": 81000,
      "d": 120,
      "v": 100
    },
    {
      "midi": 75,
      "hit": false,
      "t": 81150,
      "d": 120,
      "v": 100
    },
    {
      "midi": 77,
      "hit": false,
      "t": 81300,
      "d": 120,
      "v": 100
    },
    {
      "midi": 54,
      "hit": false,
      "t": 81300,
      "d": 240,
      "v": 100
    },
    {
      "midi": 75,
      "hit": false,
      "t": 81600,
      "d": 120,
      "v": 100
    },
    {
      "midi": 63,
      "hit": false,
      "t": 81600,
      "d": 1440,
      "v": 100
    },
    {
      "midi": 75,
      "hit": false,
      "t": 81600,
      "d": 1440,
      "v": 100
    },
    {
      "midi": 39,
      "hit": false,
      "t": 81600,
      "d": 480,
      "v": 100
    },
    {
      "midi": 46,
      "hit": false,
      "t": 81900,
      "d": 240,
      "v": 100
    },
    {
      "midi": 39,
      "hit": false,
      "t": 82200,
      "d": 360,
      "v": 100
    },
    {
      "midi": 46,
      "hit": false,
      "t": 82500,
      "d": 240,
      "v": 100
    },
    {
      "midi": 39,
      "hit": false,
      "t": 82650,
      "d": 240,
      "v": 100
    },
    {
      "midi": 39,
      "hit": false,
      "t": 82950,
      "d": 120,
      "v": 100
    },
    {
      "midi": 39,
      "hit": false,
      "t": 83100,
      "d": 240,
      "v": 100
    },
    {
      "midi": 46,
      "hit": false,
      "t": 83100,
      "d": 240,
      "v": 100
    },
    {
      "midi": 63,
      "hit": false,
      "t": 83400,
      "d": 75,
      "v": 100
    },
    {
      "midi": 75,
      "hit": false,
      "t": 83400,
      "d": 75,
      "v": 100
    },
    {
      "midi": 34,
      "hit": false,
      "t": 83400,
      "d": 240,
      "v": 100
    },
    {
      "midi": 65,
      "hit": false,
      "t": 83475,
      "d": 75,
      "v": 100
    },
    {
      "midi": 77,
      "hit": false,
      "t": 83475,
      "d": 75,
      "v": 100
    },
    {
      "midi": 66,
      "hit": false,
      "t": 83550,
      "d": 75,
      "v": 100
    },
    {
      "midi": 78,
      "hit": false,
      "t": 83550,
      "d": 75,
      "v": 100
    },
    {
      "midi": 70,
      "hit": false,
      "t": 83625,
      "d": 75,
      "v": 100
    },
    {
      "midi": 82,
      "hit": false,
      "t": 83625,
      "d": 75,
      "v": 100
    },
    {
      "midi": 73,
      "hit": false,
      "t": 83700,
      "d": 75,
      "v": 100
    },
    {
      "midi": 85,
      "hit": false,
      "t": 83700,
      "d": 75,
      "v": 100
    },
    {
      "midi": 39,
      "hit": false,
      "t": 83700,
      "d": 240,
      "v": 100
    },
    {
      "midi": 46,
      "hit": false,
      "t": 83700,
      "d": 240,
      "v": 100
    },
    {
      "midi": 75,
      "hit": false,
      "t": 83775,
      "d": 150,
      "v": 100
    },
    {
      "midi": 87,
      "hit": false,
      "t": 83775,
      "d": 150,
      "v": 100
    },
    {
      "midi": 73,
      "hit": false,
      "t": 84000,
      "d": 90,
      "v": 100
    },
    {
      "midi": 85,
      "hit": false,
      "t": 84000,
      "d": 90,
      "v": 100
    },
    {
      "midi": 37,
      "hit": false,
      "t": 84000,
      "d": 120,
      "v": 100
    },
    {
      "midi": 46,
      "hit": false,
      "t": 84000,
      "d": 120,
      "v": 100
    },
    {
      "midi": 73,
      "hit": false,
      "t": 84150,
      "d": 173.75,
      "v": 100
    },
    {
      "midi": 85,
      "hit": false,
      "t": 84150,
      "d": 173.75,
      "v": 100
    },
    {
      "midi": 37,
      "hit": false,
      "t": 84150,
      "d": 240,
      "v": 100
    },
    {
      "midi": 46,
      "hit": false,
      "t": 84150,
      "d": 240,
      "v": 100
    },
    {
      "midi": 73,
      "hit": false,
      "t": 84450,
      "d": 180,
      "v": 100
    },
    {
      "midi": 85,
      "hit": false,
      "t": 84450,
      "d": 180,
      "v": 100
    },
    {
      "midi": 37,
      "hit": false,
      "t": 84450,
      "d": 240,
      "v": 100
    },
    {
      "midi": 46,
      "hit": false,
      "t": 84450,
      "d": 240,
      "v": 100
    },
    {
      "midi": 73,
      "hit": false,
      "t": 84750,
      "d": 91.25,
      "v": 100
    },
    {
      "midi": 85,
      "hit": false,
      "t": 84750,
      "d": 91.25,
      "v": 100
    },
    {
      "midi": 37,
      "hit": false,
      "t": 84750,
      "d": 120,
      "v": 100
    },
    {
      "midi": 46,
      "hit": false,
      "t": 84750,
      "d": 120,
      "v": 100
    },
    {
      "midi": 73,
      "hit": false,
      "t": 84900,
      "d": 185,
      "v": 100
    },
    {
      "midi": 85,
      "hit": false,
      "t": 84900,
      "d": 185,
      "v": 100
    },
    {
      "midi": 37,
      "hit": false,
      "t": 84900,
      "d": 240,
      "v": 100
    },
    {
      "midi": 46,
      "hit": false,
      "t": 84900,
      "d": 240,
      "v": 100
    },
    {
      "midi": 75,
      "hit": false,
      "t": 85200,
      "d": 185,
      "v": 100
    },
    {
      "midi": 87,
      "hit": false,
      "t": 85200,
      "d": 185,
      "v": 100
    },
    {
      "midi": 39,
      "hit": false,
      "t": 85200,
      "d": 240,
      "v": 100
    },
    {
      "midi": 46,
      "hit": false,
      "t": 85200,
      "d": 240,
      "v": 100
    },
    {
      "midi": 63,
      "hit": false,
      "t": 85800,
      "d": 185,
      "v": 100
    },
    {
      "midi": 75,
      "hit": false,
      "t": 85800,
      "d": 185,
      "v": 100
    },
    {
      "midi": 27,
      "hit": false,
      "t": 85800,
      "d": 480,
      "v": 100
    },
    {
      "midi": 0,
      "hit": false,
      "t": 86400,
      "d": 1920,
      "v": 100
    },
    {
      "midi": 0,
      "hit": false,
      "t": 88800,
      "d": 407.5,
      "v": 100
    },
    {
      "midi": 0,
      "hit": false,
      "t": 91200,
      "d": 335,
      "v": 100
    },
    {
      "midi": 0,
      "hit": false,
      "t": 93600,
      "d": 383.75,
      "v": 100
    },
    {
      "midi": 0,
      "hit": false,
      "t": 96000,
      "d": 407.5,
      "v": 100
    }
  ]
}