{
  "jsonPath": "Animes/Digimon Adventure MIDI Collection/wood-walker.json",
  "path": "Animes\\Digimon Adventure MIDI Collection\\Wood Walker.mid",
  "name": "Wood Walker",
  "difficulty": "Advanced",
  "bpm": 189.000189000189,
  "notes": [
    {
      "midi": 44,
      "hit": false,
      "t": 3171.2931249999983,
      "d": 476.19000000000005,
      "v": 104
    },
    {
      "midi": 47,
      "hit": false,
      "t": 3647.4831249999984,
      "d": 79.36499999999978,
      "v": 81
    },
    {
      "midi": 48,
      "hit": false,
      "t": 3726.848124999998,
      "d": 79.36499999999978,
      "v": 83
    },
    {
      "midi": 46,
      "hit": false,
      "t": 3806.213124999998,
      "d": 105.82000000000016,
      "v": 110
    },
    {
      "midi": 46,
      "hit": false,
      "t": 4123.673124999998,
      "d": 105.81999999999971,
      "v": 110
    },
    {
      "midi": 46,
      "hit": false,
      "t": 4441.1331249999985,
      "d": 105.81999999999971,
      "v": 110
    },
    {
      "midi": 46,
      "hit": false,
      "t": 4758.5931249999985,
      "d": 105.81999999999971,
      "v": 110
    },
    {
      "midi": 46,
      "hit": false,
      "t": 5076.0531249999985,
      "d": 105.81999999999971,
      "v": 110
    },
    {
      "midi": 46,
      "hit": false,
      "t": 5393.513124999999,
      "d": 105.81999999999971,
      "v": 110
    },
    {
      "midi": 46,
      "hit": false,
      "t": 5710.973124999999,
      "d": 0,
      "v": 110
    },
    {
      "midi": 44,
      "hit": false,
      "t": 5710.973124999999,
      "d": 476.1899999999996,
      "v": 104
    },
    {
      "midi": 46,
      "hit": false,
      "t": 6028.433124999999,
      "d": 105.81999999999971,
      "v": 110
    },
    {
      "midi": 47,
      "hit": false,
      "t": 6187.163124999998,
      "d": 79.36499999999978,
      "v": 81
    },
    {
      "midi": 48,
      "hit": false,
      "t": 6266.528124999998,
      "d": 79.36499999999978,
      "v": 83
    },
    {
      "midi": 46,
      "hit": false,
      "t": 6345.893124999998,
      "d": 105.81999999999971,
      "v": 110
    },
    {
      "midi": 46,
      "hit": false,
      "t": 6663.353124999998,
      "d": 105.81999999999971,
      "v": 110
    },
    {
      "midi": 46,
      "hit": false,
      "t": 6980.813124999998,
      "d": 105.81999999999971,
      "v": 110
    },
    {
      "midi": 46,
      "hit": false,
      "t": 7298.273124999998,
      "d": 105.81999999999971,
      "v": 110
    },
    {
      "midi": 46,
      "hit": false,
      "t": 7615.733124999998,
      "d": 105.82000000000062,
      "v": 110
    },
    {
      "midi": 65,
      "hit": false,
      "t": 7619.039999999998,
      "d": 317.46000000000095,
      "v": 104
    },
    {
      "midi": 46,
      "hit": false,
      "t": 7933.193124999999,
      "d": 105.82000000000062,
      "v": 110
    },
    {
      "midi": 67,
      "hit": false,
      "t": 7936.499999999999,
      "d": 317.46000000000004,
      "v": 91
    },
    {
      "midi": 46,
      "hit": false,
      "t": 8250.653124999999,
      "d": 0,
      "v": 110
    },
    {
      "midi": 44,
      "hit": false,
      "t": 8250.653124999999,
      "d": 476.1899999999987,
      "v": 104
    },
    {
      "midi": 68,
      "hit": false,
      "t": 8253.96,
      "d": 476.1899999999987,
      "v": 95
    },
    {
      "midi": 54,
      "hit": false,
      "t": 8253.96,
      "d": 634.9199999999983,
      "v": 110
    },
    {
      "midi": 46,
      "hit": false,
      "t": 8568.113124999998,
      "d": 105.81999999999971,
      "v": 110
    },
    {
      "midi": 47,
      "hit": false,
      "t": 8726.843124999998,
      "d": 79.36499999999978,
      "v": 81
    },
    {
      "midi": 40,
      "hit": false,
      "t": 8730.149999999998,
      "d": 79.36499999999978,
      "v": 113
    },
    {
      "midi": 70,
      "hit": false,
      "t": 8730.149999999998,
      "d": 158.72999999999956,
      "v": 95
    },
    {
      "midi": 48,
      "hit": false,
      "t": 8806.208124999997,
      "d": 79.36499999999978,
      "v": 83
    },
    {
      "midi": 46,
      "hit": false,
      "t": 8885.573124999997,
      "d": 105.81999999999971,
      "v": 110
    },
    {
      "midi": 68,
      "hit": false,
      "t": 8888.879999999997,
      "d": 317.4599999999991,
      "v": 95
    },
    {
      "midi": 54,
      "hit": false,
      "t": 8888.879999999997,
      "d": 317.4599999999991,
      "v": 110
    },
    {
      "midi": 46,
      "hit": false,
      "t": 9203.033124999996,
      "d": 105.81999999999971,
      "v": 110
    },
    {
      "midi": 40,
      "hit": false,
      "t": 9206.339999999997,
      "d": 79.36499999999978,
      "v": 104
    },
    {
      "midi": 67,
      "hit": false,
      "t": 9206.339999999997,
      "d": 317.4599999999991,
      "v": 95
    },
    {
      "midi": 54,
      "hit": false,
      "t": 9206.339999999997,
      "d": 317.4599999999991,
      "v": 84
    },
    {
      "midi": 46,
      "hit": false,
      "t": 9520.493124999995,
      "d": 105.81999999999971,
      "v": 110
    },
    {
      "midi": 40,
      "hit": false,
      "t": 9523.799999999996,
      "d": 79.36499999999978,
      "v": 108
    },
    {
      "midi": 65,
      "hit": false,
      "t": 9523.799999999996,
      "d": 634.9199999999983,
      "v": 95
    },
    {
      "midi": 54,
      "hit": false,
      "t": 9523.799999999996,
      "d": 634.9199999999983,
      "v": 106
    },
    {
      "midi": 46,
      "hit": false,
      "t": 9837.953124999995,
      "d": 105.81999999999971,
      "v": 110
    },
    {
      "midi": 40,
      "hit": false,
      "t": 9999.989999999994,
      "d": 79.36499999999978,
      "v": 113
    },
    {
      "midi": 46,
      "hit": false,
      "t": 10155.413124999994,
      "d": 105.81999999999971,
      "v": 110
    },
    {
      "midi": 65,
      "hit": false,
      "t": 10158.719999999994,
      "d": 317.4599999999991,
      "v": 104
    },
    {
      "midi": 54,
      "hit": false,
      "t": 10158.719999999994,
      "d": 317.4599999999991,
      "v": 110
    },
    {
      "midi": 46,
      "hit": false,
      "t": 10472.873124999993,
      "d": 105.81999999999971,
      "v": 110
    },
    {
      "midi": 40,
      "hit": false,
      "t": 10476.179999999993,
      "d": 79.36499999999978,
      "v": 104
    },
    {
      "midi": 67,
      "hit": false,
      "t": 10476.179999999993,
      "d": 317.4599999999991,
      "v": 91
    },
    {
      "midi": 54,
      "hit": false,
      "t": 10476.179999999993,
      "d": 317.4599999999991,
      "v": 84
    },
    {
      "midi": 46,
      "hit": false,
      "t": 10790.333124999992,
      "d": 0,
      "v": 110
    },
    {
      "midi": 44,
      "hit": false,
      "t": 10790.333124999992,
      "d": 476.1899999999987,
      "v": 104
    },
    {
      "midi": 40,
      "hit": false,
      "t": 10793.639999999992,
      "d": 79.36499999999978,
      "v": 108
    },
    {
      "midi": 68,
      "hit": false,
      "t": 10793.639999999992,
      "d": 476.1899999999987,
      "v": 95
    },
    {
      "midi": 54,
      "hit": false,
      "t": 10793.639999999992,
      "d": 634.9199999999983,
      "v": 106
    },
    {
      "midi": 46,
      "hit": false,
      "t": 11107.793124999991,
      "d": 105.81999999999971,
      "v": 110
    },
    {
      "midi": 47,
      "hit": false,
      "t": 11266.52312499999,
      "d": 79.36499999999978,
      "v": 81
    },
    {
      "midi": 40,
      "hit": false,
      "t": 11269.82999999999,
      "d": 79.36499999999978,
      "v": 113
    },
    {
      "midi": 70,
      "hit": false,
      "t": 11269.82999999999,
      "d": 158.72999999999956,
      "v": 95
    },
    {
      "midi": 48,
      "hit": false,
      "t": 11345.88812499999,
      "d": 79.36499999999978,
      "v": 83
    },
    {
      "midi": 46,
      "hit": false,
      "t": 11425.25312499999,
      "d": 105.81999999999971,
      "v": 110
    },
    {
      "midi": 68,
      "hit": false,
      "t": 11428.55999999999,
      "d": 132.27499999999964,
      "v": 95
    },
    {
      "midi": 54,
      "hit": false,
      "t": 11428.55999999999,
      "d": 317.4599999999991,
      "v": 110
    },
    {
      "midi": 67,
      "hit": false,
      "t": 11587.28999999999,
      "d": 132.27499999999964,
      "v": 86
    },
    {
      "midi": 46,
      "hit": false,
      "t": 11742.71312499999,
      "d": 105.81999999999971,
      "v": 110
    },
    {
      "midi": 40,
      "hit": false,
      "t": 11746.01999999999,
      "d": 79.36499999999978,
      "v": 104
    },
    {
      "midi": 65,
      "hit": false,
      "t": 11746.01999999999,
      "d": 132.27499999999964,
      "v": 86
    },
    {
      "midi": 54,
      "hit": false,
      "t": 11746.01999999999,
      "d": 317.4599999999991,
      "v": 84
    },
    {
      "midi": 63,
      "hit": false,
      "t": 11904.749999999989,
      "d": 132.27499999999964,
      "v": 95
    },
    {
      "midi": 46,
      "hit": false,
      "t": 12060.173124999988,
      "d": 105.81999999999971,
      "v": 110
    },
    {
      "midi": 40,
      "hit": false,
      "t": 12063.479999999989,
      "d": 79.36499999999978,
      "v": 108
    },
    {
      "midi": 65,
      "hit": false,
      "t": 12063.479999999989,
      "d": 529.0999999999985,
      "v": 86
    },
    {
      "midi": 54,
      "hit": false,
      "t": 12063.479999999989,
      "d": 634.9199999999983,
      "v": 106
    },
    {
      "midi": 46,
      "hit": false,
      "t": 12377.633124999988,
      "d": 105.81999999999971,
      "v": 110
    },
    {
      "midi": 40,
      "hit": false,
      "t": 12539.669999999987,
      "d": 79.36499999999978,
      "v": 113
    },
    {
      "midi": 46,
      "hit": false,
      "t": 12695.093124999987,
      "d": 105.81999999999971,
      "v": 110
    },
    {
      "midi": 65,
      "hit": false,
      "t": 12698.399999999987,
      "d": 317.4599999999991,
      "v": 104
    },
    {
      "midi": 54,
      "hit": false,
      "t": 12698.399999999987,
      "d": 317.4599999999991,
      "v": 110
    },
    {
      "midi": 46,
      "hit": false,
      "t": 13012.553124999986,
      "d": 105.81999999999971,
      "v": 110
    },
    {
      "midi": 40,
      "hit": false,
      "t": 13015.859999999986,
      "d": 79.36499999999978,
      "v": 104
    },
    {
      "midi": 67,
      "hit": false,
      "t": 13015.859999999986,
      "d": 317.4599999999991,
      "v": 91
    },
    {
      "midi": 54,
      "hit": false,
      "t": 13015.859999999986,
      "d": 317.4599999999991,
      "v": 84
    },
    {
      "midi": 46,
      "hit": false,
      "t": 13330.013124999985,
      "d": 0,
      "v": 110
    },
    {
      "midi": 44,
      "hit": false,
      "t": 13330.013124999985,
      "d": 476.1899999999987,
      "v": 104
    },
    {
      "midi": 40,
      "hit": false,
      "t": 13333.319999999985,
      "d": 79.36499999999978,
      "v": 108
    },
    {
      "midi": 68,
      "hit": false,
      "t": 13333.319999999985,
      "d": 132.27499999999964,
      "v": 104
    },
    {
      "midi": 29,
      "hit": false,
      "t": 13333.319999999985,
      "d": 634.9199999999983,
      "v": 127
    },
    {
      "midi": 54,
      "hit": false,
      "t": 13333.319999999985,
      "d": 634.9199999999983,
      "v": 106
    },
    {
      "midi": 46,
      "hit": false,
      "t": 13647.473124999984,
      "d": 105.81999999999971,
      "v": 110
    },
    {
      "midi": 68,
      "hit": false,
      "t": 13650.779999999984,
      "d": 132.27499999999964,
      "v": 104
    },
    {
      "midi": 47,
      "hit": false,
      "t": 13806.203124999984,
      "d": 79.36499999999978,
      "v": 81
    },
    {
      "midi": 48,
      "hit": false,
      "t": 13885.568124999983,
      "d": 79.36499999999978,
      "v": 83
    },
    {
      "midi": 34,
      "hit": false,
      "t": 13968.239999999983,
      "d": 158.72999999999956,
      "v": 104
    },
    {
      "midi": 54,
      "hit": false,
      "t": 13968.239999999983,
      "d": 317.4599999999991,
      "v": 110
    },
    {
      "midi": 65,
      "hit": false,
      "t": 13968.239999999983,
      "d": 529.0999999999985,
      "v": 104
    },
    {
      "midi": 34,
      "hit": false,
      "t": 14285.699999999983,
      "d": 158.72999999999956,
      "v": 104
    },
    {
      "midi": 54,
      "hit": false,
      "t": 14285.699999999983,
      "d": 317.4599999999991,
      "v": 84
    },
    {
      "midi": 68,
      "hit": false,
      "t": 14603.159999999982,
      "d": 132.27499999999964,
      "v": 104
    },
    {
      "midi": 29,
      "hit": false,
      "t": 14603.159999999982,
      "d": 634.9199999999983,
      "v": 117
    },
    {
      "midi": 54,
      "hit": false,
      "t": 14603.159999999982,
      "d": 634.9199999999983,
      "v": 106
    },
    {
      "midi": 68,
      "hit": false,
      "t": 14920.61999999998,
      "d": 132.27499999999964,
      "v": 104
    },
    {
      "midi": 34,
      "hit": false,
      "t": 15238.07999999998,
      "d": 158.72999999999956,
      "v": 104
    },
    {
      "midi": 54,
      "hit": false,
      "t": 15238.07999999998,
      "d": 317.4599999999991,
      "v": 110
    },
    {
      "midi": 65,
      "hit": false,
      "t": 15238.07999999998,
      "d": 529.0999999999985,
      "v": 104
    },
    {
      "midi": 34,
      "hit": false,
      "t": 15555.539999999979,
      "d": 158.72999999999956,
      "v": 104
    },
    {
      "midi": 54,
      "hit": false,
      "t": 15555.539999999979,
      "d": 317.4599999999991,
      "v": 84
    },
    {
      "midi": 68,
      "hit": false,
      "t": 15872.999999999978,
      "d": 476.1900000000005,
      "v": 110
    },
    {
      "midi": 29,
      "hit": false,
      "t": 15872.999999999978,
      "d": 634.9200000000019,
      "v": 117
    },
    {
      "midi": 54,
      "hit": false,
      "t": 15872.999999999978,
      "d": 634.9200000000019,
      "v": 106
    },
    {
      "midi": 70,
      "hit": false,
      "t": 16349.189999999979,
      "d": 158.73000000000138,
      "v": 110
    },
    {
      "midi": 68,
      "hit": false,
      "t": 16507.91999999998,
      "d": 159.57875000000058,
      "v": 110
    },
    {
      "midi": 29,
      "hit": false,
      "t": 16507.91999999998,
      "d": 322.62674999999945,
      "v": 104
    },
    {
      "midi": 54,
      "hit": false,
      "t": 16507.91999999998,
      "d": 322.62674999999945,
      "v": 91
    },
    {
      "midi": 67,
      "hit": false,
      "t": 16667.49874999998,
      "d": 163.04799999999886,
      "v": 110
    },
    {
      "midi": 65,
      "hit": false,
      "t": 16830.54674999998,
      "d": 166.2059999999983,
      "v": 110
    },
    {
      "midi": 29,
      "hit": false,
      "t": 16830.54674999998,
      "d": 335.70274999999674,
      "v": 113
    },
    {
      "midi": 54,
      "hit": false,
      "t": 16830.54674999998,
      "d": 335.70274999999674,
      "v": 81
    },
    {
      "midi": 63,
      "hit": false,
      "t": 16996.752749999978,
      "d": 169.49674999999843,
      "v": 110
    },
    {
      "midi": 34,
      "hit": false,
      "t": 17166.249499999976,
      "d": 723.5032500000016,
      "v": 104
    },
    {
      "midi": 65,
      "hit": false,
      "t": 17166.249499999976,
      "d": 723.5032500000016,
      "v": 110
    },
    {
      "midi": 54,
      "hit": false,
      "t": 17166.249499999976,
      "d": 723.5032500000016,
      "v": 85
    },
    {
      "midi": 54,
      "hit": false,
      "t": 17889.752749999978,
      "d": 1707.996750000002,
      "v": 107
    },
    {
      "midi": 34,
      "hit": false,
      "t": 17889.752749999978,
      "d": 3943.59,
      "v": 104
    },
    {
      "midi": 65,
      "hit": false,
      "t": 17889.752749999978,
      "d": 3943.59,
      "v": 110
    },
    {
      "midi": 51,
      "hit": false,
      "t": 21826.622322916646,
      "d": 333.108989583332,
      "v": 104
    },
    {
      "midi": 58,
      "hit": false,
      "t": 21833.342749999978,
      "d": 333.3329999999987,
      "v": 104
    },
    {
      "midi": 55,
      "hit": false,
      "t": 22159.73131249998,
      "d": 333.3329999999987,
      "v": 97
    },
    {
      "midi": 67,
      "hit": false,
      "t": 22166.675749999977,
      "d": 166.66649999999936,
      "v": 104
    },
    {
      "midi": 58,
      "hit": false,
      "t": 22493.064312499977,
      "d": 333.3329999999987,
      "v": 104
    },
    {
      "midi": 63,
      "hit": false,
      "t": 22826.397312499976,
      "d": 333.3329999999987,
      "v": 110
    },
    {
      "midi": 65,
      "hit": false,
      "t": 23159.730312499974,
      "d": 333.3329999999987,
      "v": 86
    },
    {
      "midi": 58,
      "hit": false,
      "t": 23166.674749999973,
      "d": 333.3329999999987,
      "v": 104
    },
    {
      "midi": 67,
      "hit": false,
      "t": 23500.00774999997,
      "d": 166.66649999999936,
      "v": 104
    },
    {
      "midi": 68,
      "hit": false,
      "t": 23826.396312499972,
      "d": 333.3329999999987,
      "v": 86
    },
    {
      "midi": 63,
      "hit": false,
      "t": 23833.34074999997,
      "d": 666.6659999999974,
      "v": 100
    },
    {
      "midi": 70,
      "hit": false,
      "t": 24159.72931249997,
      "d": 333.3329999999987,
      "v": 110
    },
    {
      "midi": 53,
      "hit": false,
      "t": 24493.06231249997,
      "d": 222.22199999999793,
      "v": 108
    },
    {
      "midi": 60,
      "hit": false,
      "t": 24500.006749999968,
      "d": 333.3329999999987,
      "v": 122
    },
    {
      "midi": 56,
      "hit": false,
      "t": 24826.395312499968,
      "d": 222.22199999999793,
      "v": 104
    },
    {
      "midi": 68,
      "hit": false,
      "t": 24833.339749999966,
      "d": 166.66649999999936,
      "v": 104
    },
    {
      "midi": 60,
      "hit": false,
      "t": 25159.728312499967,
      "d": 222.22199999999793,
      "v": 81
    },
    {
      "midi": 63,
      "hit": false,
      "t": 25493.061312499965,
      "d": 222.22200000000157,
      "v": 104
    },
    {
      "midi": 65,
      "hit": false,
      "t": 25826.394312499968,
      "d": 6.9444374999984575,
      "v": 97
    },
    {
      "midi": 70,
      "hit": false,
      "t": 25833.338749999966,
      "d": 333.3329999999987,
      "v": 100
    },
    {
      "midi": 68,
      "hit": false,
      "t": 26166.671749999965,
      "d": 166.66649999999936,
      "v": 83
    },
    {
      "midi": 67,
      "hit": false,
      "t": 26333.338249999964,
      "d": 159.7220625000009,
      "v": 77
    },
    {
      "midi": 68,
      "hit": false,
      "t": 26493.060312499965,
      "d": 333.3329999999987,
      "v": 91
    },
    {
      "midi": 65,
      "hit": false,
      "t": 26500.004749999964,
      "d": 666.6659999999974,
      "v": 94
    },
    {
      "midi": 70,
      "hit": false,
      "t": 26826.393312499964,
      "d": 333.3329999999987,
      "v": 100
    },
    {
      "midi": 58,
      "hit": false,
      "t": 27159.726312499963,
      "d": 333.3329999999987,
      "v": 95
    },
    {
      "midi": 63,
      "hit": false,
      "t": 27493.05931249996,
      "d": 333.3329999999987,
      "v": 71
    },
    {
      "midi": 67,
      "hit": false,
      "t": 27826.39231249996,
      "d": 333.3329999999987,
      "v": 86
    },
    {
      "midi": 70,
      "hit": false,
      "t": 28166.669749999957,
      "d": 326.38856250000026,
      "v": 91
    },
    {
      "midi": 58,
      "hit": false,
      "t": 28493.058312499958,
      "d": 333.3329999999987,
      "v": 87
    },
    {
      "midi": 62,
      "hit": false,
      "t": 28826.391312499956,
      "d": 333.3329999999987,
      "v": 97
    },
    {
      "midi": 65,
      "hit": false,
      "t": 29159.724312499955,
      "d": 6.9444374999984575,
      "v": 117
    },
    {
      "midi": 70,
      "hit": false,
      "t": 29493.057312499954,
      "d": 333.3329999999987,
      "v": 104
    },
    {
      "midi": 67,
      "hit": false,
      "t": 29500.001749999952,
      "d": 333.3329999999987,
      "v": 101
    },
    {
      "midi": 51,
      "hit": false,
      "t": 29826.390312499952,
      "d": 333.3329999999987,
      "v": 104
    },
    {
      "midi": 65,
      "hit": false,
      "t": 29833.33474999995,
      "d": 333.3329999999987,
      "v": 101
    },
    {
      "midi": 55,
      "hit": false,
      "t": 30159.72331249995,
      "d": 333.3329999999987,
      "v": 97
    },
    {
      "midi": 63,
      "hit": false,
      "t": 30166.66774999995,
      "d": 166.66649999999936,
      "v": 91
    },
    {
      "midi": 58,
      "hit": false,
      "t": 30493.05631249995,
      "d": 333.3329999999987,
      "v": 104
    },
    {
      "midi": 63,
      "hit": false,
      "t": 30826.38931249995,
      "d": 333.3329999999987,
      "v": 110
    },
    {
      "midi": 65,
      "hit": false,
      "t": 31159.722312499947,
      "d": 333.3329999999987,
      "v": 86
    },
    {
      "midi": 67,
      "hit": false,
      "t": 31493.055312499946,
      "d": 333.33300000000236,
      "v": 86
    },
    {
      "midi": 40,
      "hit": false,
      "t": 31666.666249999947,
      "d": 166.66649999999936,
      "v": 94
    },
    {
      "midi": 68,
      "hit": false,
      "t": 31826.38831249995,
      "d": 333.3329999999987,
      "v": 86
    },
    {
      "midi": 40,
      "hit": false,
      "t": 31999.999249999946,
      "d": 166.66649999999936,
      "v": 95
    },
    {
      "midi": 70,
      "hit": false,
      "t": 32159.721312499947,
      "d": 333.3329999999987,
      "v": 110
    },
    {
      "midi": 40,
      "hit": false,
      "t": 32166.665749999946,
      "d": 166.66649999999936,
      "v": 95
    },
    {
      "midi": 51,
      "hit": false,
      "t": 32493.054312499946,
      "d": 329.7463124999995,
      "v": 104
    },
    {
      "midi": 58,
      "hit": false,
      "t": 32499.998749999944,
      "d": 329.6700000000019,
      "v": 104
    },
    {
      "midi": 39,
      "hit": false,
      "t": 32499.998749999944,
      "d": 480.7687499999993,
      "v": 106
    },
    {
      "midi": 38,
      "hit": false,
      "t": 32499.998749999944,
      "d": 494.505000000001,
      "v": 84
    },
    {
      "midi": 36,
      "hit": false,
      "t": 32499.998749999944,
      "d": 659.3400000000074,
      "v": 113
    },
    {
      "midi": 55,
      "hit": false,
      "t": 32822.800624999945,
      "d": 329.67000000000553,
      "v": 97
    },
    {
      "midi": 67,
      "hit": false,
      "t": 32829.668749999946,
      "d": 164.83499999999913,
      "v": 104
    },
    {
      "midi": 54,
      "hit": false,
      "t": 32829.668749999946,
      "d": 549.4500000000044,
      "v": 106
    },
    {
      "midi": 39,
      "hit": false,
      "t": 32994.503749999945,
      "d": 137.3625000000029,
      "v": 106
    },
    {
      "midi": 38,
      "hit": false,
      "t": 32994.503749999945,
      "d": 164.8350000000064,
      "v": 84
    },
    {
      "midi": 58,
      "hit": false,
      "t": 33152.47062499995,
      "d": 329.66999999999825,
      "v": 104
    },
    {
      "midi": 38,
      "hit": false,
      "t": 33159.33874999995,
      "d": 164.83499999999913,
      "v": 84
    },
    {
      "midi": 39,
      "hit": false,
      "t": 33159.33874999995,
      "d": 618.1312499999985,
      "v": 106
    },
    {
      "midi": 36,
      "hit": false,
      "t": 33159.33874999995,
      "d": 659.3399999999965,
      "v": 97
    },
    {
      "midi": 38,
      "hit": false,
      "t": 33324.17374999995,
      "d": 164.83499999999913,
      "v": 84
    },
    {
      "midi": 63,
      "hit": false,
      "t": 33482.14062499995,
      "d": 329.66999999999825,
      "v": 110
    },
    {
      "midi": 38,
      "hit": false,
      "t": 33489.00874999995,
      "d": 329.66999999999825,
      "v": 84
    },
    {
      "midi": 54,
      "hit": false,
      "t": 33489.00874999995,
      "d": 549.4499999999971,
      "v": 106
    },
    {
      "midi": 65,
      "hit": false,
      "t": 33811.81062499995,
      "d": 329.66999999999825,
      "v": 86
    },
    {
      "midi": 58,
      "hit": false,
      "t": 33818.67874999995,
      "d": 329.66999999999825,
      "v": 104
    },
    {
      "midi": 39,
      "hit": false,
      "t": 33818.67874999995,
      "d": 467.03250000000116,
      "v": 106
    },
    {
      "midi": 38,
      "hit": false,
      "t": 33818.67874999995,
      "d": 494.50500000000466,
      "v": 84
    },
    {
      "midi": 36,
      "hit": false,
      "t": 33818.67874999995,
      "d": 659.3400000000111,
      "v": 97
    },
    {
      "midi": 67,
      "hit": false,
      "t": 34148.34874999995,
      "d": 164.8350000000064,
      "v": 104
    },
    {
      "midi": 54,
      "hit": false,
      "t": 34148.34874999995,
      "d": 549.4500000000116,
      "v": 106
    },
    {
      "midi": 39,
      "hit": false,
      "t": 34313.18374999995,
      "d": 137.3625000000029,
      "v": 106
    },
    {
      "midi": 38,
      "hit": false,
      "t": 34313.18374999995,
      "d": 164.8350000000064,
      "v": 84
    },
    {
      "midi": 68,
      "hit": false,
      "t": 34471.15062499996,
      "d": 329.66999999999825,
      "v": 86
    },
    {
      "midi": 38,
      "hit": false,
      "t": 34478.01874999996,
      "d": 164.83499999999913,
      "v": 84
    },
    {
      "midi": 25,
      "hit": false,
      "t": 34478.01874999996,
      "d": 549.4499999999971,
      "v": 106
    },
    {
      "midi": 39,
      "hit": false,
      "t": 34478.01874999996,
      "d": 659.3399999999965,
      "v": 106
    },
    {
      "midi": 63,
      "hit": false,
      "t": 34478.01874999996,
      "d": 659.3399999999965,
      "v": 100
    },
    {
      "midi": 36,
      "hit": false,
      "t": 34478.01874999996,
      "d": 659.3399999999965,
      "v": 97
    },
    {
      "midi": 38,
      "hit": false,
      "t": 34642.85374999996,
      "d": 164.83499999999913,
      "v": 84
    },
    {
      "midi": 70,
      "hit": false,
      "t": 34800.82062499996,
      "d": 329.66999999999825,
      "v": 110
    },
    {
      "midi": 38,
      "hit": false,
      "t": 34807.68874999996,
      "d": 164.83499999999913,
      "v": 84
    },
    {
      "midi": 54,
      "hit": false,
      "t": 34807.68874999996,
      "d": 549.4499999999971,
      "v": 106
    },
    {
      "midi": 38,
      "hit": false,
      "t": 34972.52374999996,
      "d": 164.83499999999913,
      "v": 84
    },
    {
      "midi": 53,
      "hit": false,
      "t": 35130.490624999955,
      "d": 219.77999999999884,
      "v": 108
    },
    {
      "midi": 60,
      "hit": false,
      "t": 35137.358749999956,
      "d": 329.66999999999825,
      "v": 122
    },
    {
      "midi": 41,
      "hit": false,
      "t": 35137.358749999956,
      "d": 480.76874999999563,
      "v": 106
    },
    {
      "midi": 38,
      "hit": false,
      "t": 35137.358749999956,
      "d": 494.5049999999974,
      "v": 84
    },
    {
      "midi": 36,
      "hit": false,
      "t": 35137.358749999956,
      "d": 659.3399999999965,
      "v": 94
    },
    {
      "midi": 56,
      "hit": false,
      "t": 35460.16062499995,
      "d": 219.77999999999884,
      "v": 104
    },
    {
      "midi": 68,
      "hit": false,
      "t": 35467.028749999954,
      "d": 164.83499999999913,
      "v": 104
    },
    {
      "midi": 54,
      "hit": false,
      "t": 35467.028749999954,
      "d": 549.4499999999971,
      "v": 106
    },
    {
      "midi": 41,
      "hit": false,
      "t": 35631.86374999995,
      "d": 137.36249999999563,
      "v": 106
    },
    {
      "midi": 38,
      "hit": false,
      "t": 35631.86374999995,
      "d": 164.83499999999913,
      "v": 84
    },
    {
      "midi": 60,
      "hit": false,
      "t": 35789.83062499995,
      "d": 219.77999999999884,
      "v": 81
    },
    {
      "midi": 38,
      "hit": false,
      "t": 35796.69874999995,
      "d": 164.83499999999913,
      "v": 84
    },
    {
      "midi": 41,
      "hit": false,
      "t": 35796.69874999995,
      "d": 618.1312499999985,
      "v": 106
    },
    {
      "midi": 36,
      "hit": false,
      "t": 35796.69874999995,
      "d": 659.3399999999965,
      "v": 101
    },
    {
      "midi": 38,
      "hit": false,
      "t": 35961.53374999995,
      "d": 164.83499999999913,
      "v": 84
    },
    {
      "midi": 63,
      "hit": false,
      "t": 36119.50062499995,
      "d": 219.77999999999884,
      "v": 104
    },
    {
      "midi": 38,
      "hit": false,
      "t": 36126.36874999995,
      "d": 329.66999999999825,
      "v": 84
    },
    {
      "midi": 54,
      "hit": false,
      "t": 36126.36874999995,
      "d": 549.4499999999971,
      "v": 106
    },
    {
      "midi": 65,
      "hit": false,
      "t": 36449.17062499995,
      "d": 6.868125000000873,
      "v": 97
    },
    {
      "midi": 70,
      "hit": false,
      "t": 36456.03874999995,
      "d": 329.66999999999825,
      "v": 100
    },
    {
      "midi": 41,
      "hit": false,
      "t": 36456.03874999995,
      "d": 467.03250000000116,
      "v": 106
    },
    {
      "midi": 38,
      "hit": false,
      "t": 36456.03874999995,
      "d": 494.50500000000466,
      "v": 84
    },
    {
      "midi": 36,
      "hit": false,
      "t": 36456.03874999995,
      "d": 659.3400000000111,
      "v": 104
    },
    {
      "midi": 68,
      "hit": false,
      "t": 36785.70874999995,
      "d": 164.8350000000064,
      "v": 83
    },
    {
      "midi": 54,
      "hit": false,
      "t": 36785.70874999995,
      "d": 549.4500000000116,
      "v": 106
    },
    {
      "midi": 41,
      "hit": false,
      "t": 36950.54374999995,
      "d": 137.3625000000029,
      "v": 106
    },
    {
      "midi": 67,
      "hit": false,
      "t": 36950.54374999995,
      "d": 157.96687500000553,
      "v": 77
    },
    {
      "midi": 38,
      "hit": false,
      "t": 36950.54374999995,
      "d": 164.8350000000064,
      "v": 84
    },
    {
      "midi": 68,
      "hit": false,
      "t": 37108.51062499996,
      "d": 329.66999999999825,
      "v": 91
    },
    {
      "midi": 38,
      "hit": false,
      "t": 37115.37874999996,
      "d": 164.83499999999913,
      "v": 84
    },
    {
      "midi": 25,
      "hit": false,
      "t": 37115.37874999996,
      "d": 549.4499999999971,
      "v": 106
    },
    {
      "midi": 41,
      "hit": false,
      "t": 37115.37874999996,
      "d": 659.3399999999965,
      "v": 106
    },
    {
      "midi": 65,
      "hit": false,
      "t": 37115.37874999996,
      "d": 659.3399999999965,
      "v": 94
    },
    {
      "midi": 36,
      "hit": false,
      "t": 37115.37874999996,
      "d": 659.3399999999965,
      "v": 108
    },
    {
      "midi": 38,
      "hit": false,
      "t": 37280.21374999996,
      "d": 164.83499999999913,
      "v": 84
    },
    {
      "midi": 70,
      "hit": false,
      "t": 37438.18062499996,
      "d": 329.66999999999825,
      "v": 100
    },
    {
      "midi": 38,
      "hit": false,
      "t": 37445.04874999996,
      "d": 164.83499999999913,
      "v": 84
    },
    {
      "midi": 54,
      "hit": false,
      "t": 37445.04874999996,
      "d": 549.4499999999971,
      "v": 106
    },
    {
      "midi": 38,
      "hit": false,
      "t": 37609.88374999996,
      "d": 164.83499999999913,
      "v": 84
    },
    {
      "midi": 58,
      "hit": false,
      "t": 37767.850624999955,
      "d": 329.66999999999825,
      "v": 111
    },
    {
      "midi": 43,
      "hit": false,
      "t": 37774.718749999956,
      "d": 480.76874999999563,
      "v": 106
    },
    {
      "midi": 38,
      "hit": false,
      "t": 37774.718749999956,
      "d": 494.5049999999974,
      "v": 84
    },
    {
      "midi": 36,
      "hit": false,
      "t": 37774.718749999956,
      "d": 659.3400000000038,
      "v": 113
    },
    {
      "midi": 63,
      "hit": false,
      "t": 38097.520624999954,
      "d": 329.67000000000553,
      "v": 71
    },
    {
      "midi": 54,
      "hit": false,
      "t": 38104.388749999955,
      "d": 549.4500000000044,
      "v": 106
    },
    {
      "midi": 43,
      "hit": false,
      "t": 38269.223749999954,
      "d": 137.3625000000029,
      "v": 106
    },
    {
      "midi": 38,
      "hit": false,
      "t": 38269.223749999954,
      "d": 164.8350000000064,
      "v": 84
    },
    {
      "midi": 67,
      "hit": false,
      "t": 38427.19062499996,
      "d": 329.66999999999825,
      "v": 106
    },
    {
      "midi": 38,
      "hit": false,
      "t": 38434.05874999996,
      "d": 164.83499999999913,
      "v": 84
    },
    {
      "midi": 43,
      "hit": false,
      "t": 38434.05874999996,
      "d": 618.1312499999985,
      "v": 106
    },
    {
      "midi": 36,
      "hit": false,
      "t": 38434.05874999996,
      "d": 659.3399999999965,
      "v": 97
    },
    {
      "midi": 38,
      "hit": false,
      "t": 38598.89374999996,
      "d": 164.83499999999913,
      "v": 84
    },
    {
      "midi": 70,
      "hit": false,
      "t": 38763.72874999996,
      "d": 322.8018749999974,
      "v": 91
    },
    {
      "midi": 38,
      "hit": false,
      "t": 38763.72874999996,
      "d": 329.66999999999825,
      "v": 84
    },
    {
      "midi": 54,
      "hit": false,
      "t": 38763.72874999996,
      "d": 549.4499999999971,
      "v": 106
    },
    {
      "midi": 58,
      "hit": false,
      "t": 39086.530624999956,
      "d": 329.66999999999825,
      "v": 87
    },
    {
      "midi": 41,
      "hit": false,
      "t": 39093.39874999996,
      "d": 467.03250000000116,
      "v": 106
    },
    {
      "midi": 38,
      "hit": false,
      "t": 39093.39874999996,
      "d": 494.50500000000466,
      "v": 84
    },
    {
      "midi": 36,
      "hit": false,
      "t": 39093.39874999996,
      "d": 659.3400000000111,
      "v": 97
    },
    {
      "midi": 62,
      "hit": false,
      "t": 39416.200624999954,
      "d": 329.6700000000128,
      "v": 97
    },
    {
      "midi": 54,
      "hit": false,
      "t": 39423.068749999955,
      "d": 549.4500000000116,
      "v": 106
    },
    {
      "midi": 41,
      "hit": false,
      "t": 39587.90374999996,
      "d": 137.3625000000029,
      "v": 106
    },
    {
      "midi": 38,
      "hit": false,
      "t": 39587.90374999996,
      "d": 164.8350000000064,
      "v": 84
    },
    {
      "midi": 65,
      "hit": false,
      "t": 39745.87062499997,
      "d": 6.868125000000873,
      "v": 117
    },
    {
      "midi": 38,
      "hit": false,
      "t": 39752.73874999997,
      "d": 164.83499999999913,
      "v": 84
    },
    {
      "midi": 25,
      "hit": false,
      "t": 39752.73874999997,
      "d": 549.4499999999971,
      "v": 106
    },
    {
      "midi": 41,
      "hit": false,
      "t": 39752.73874999997,
      "d": 659.3399999999965,
      "v": 106
    },
    {
      "midi": 36,
      "hit": false,
      "t": 39752.73874999997,
      "d": 659.3399999999965,
      "v": 97
    },
    {
      "midi": 38,
      "hit": false,
      "t": 39917.57374999997,
      "d": 164.83499999999913,
      "v": 84
    },
    {
      "midi": 70,
      "hit": false,
      "t": 40075.540624999965,
      "d": 329.66999999999825,
      "v": 104
    },
    {
      "midi": 38,
      "hit": false,
      "t": 40082.408749999966,
      "d": 164.83499999999913,
      "v": 84
    },
    {
      "midi": 67,
      "hit": false,
      "t": 40082.408749999966,
      "d": 329.66999999999825,
      "v": 101
    },
    {
      "midi": 54,
      "hit": false,
      "t": 40082.408749999966,
      "d": 549.4499999999971,
      "v": 106
    },
    {
      "midi": 38,
      "hit": false,
      "t": 40247.243749999965,
      "d": 164.83499999999913,
      "v": 84
    },
    {
      "midi": 51,
      "hit": false,
      "t": 40405.21062499996,
      "d": 329.66999999999825,
      "v": 104
    },
    {
      "midi": 65,
      "hit": false,
      "t": 40412.078749999964,
      "d": 329.66999999999825,
      "v": 101
    },
    {
      "midi": 39,
      "hit": false,
      "t": 40412.078749999964,
      "d": 480.76874999999563,
      "v": 106
    },
    {
      "midi": 38,
      "hit": false,
      "t": 40412.078749999964,
      "d": 494.5049999999974,
      "v": 84
    },
    {
      "midi": 36,
      "hit": false,
      "t": 40412.078749999964,
      "d": 659.3400000000038,
      "v": 113
    },
    {
      "midi": 55,
      "hit": false,
      "t": 40734.88062499996,
      "d": 329.67000000000553,
      "v": 97
    },
    {
      "midi": 63,
      "hit": false,
      "t": 40741.74874999996,
      "d": 164.83499999999913,
      "v": 91
    },
    {
      "midi": 54,
      "hit": false,
      "t": 40741.74874999996,
      "d": 549.4500000000044,
      "v": 106
    },
    {
      "midi": 39,
      "hit": false,
      "t": 40906.58374999996,
      "d": 137.3625000000029,
      "v": 106
    },
    {
      "midi": 38,
      "hit": false,
      "t": 40906.58374999996,
      "d": 164.8350000000064,
      "v": 84
    },
    {
      "midi": 58,
      "hit": false,
      "t": 41064.55062499997,
      "d": 329.66999999999825,
      "v": 104
    },
    {
      "midi": 38,
      "hit": false,
      "t": 41071.41874999997,
      "d": 164.83499999999913,
      "v": 84
    },
    {
      "midi": 39,
      "hit": false,
      "t": 41071.41874999997,
      "d": 618.1312499999985,
      "v": 106
    },
    {
      "midi": 36,
      "hit": false,
      "t": 41071.41874999997,
      "d": 659.3399999999965,
      "v": 97
    },
    {
      "midi": 38,
      "hit": false,
      "t": 41236.25374999997,
      "d": 164.83499999999913,
      "v": 84
    },
    {
      "midi": 63,
      "hit": false,
      "t": 41394.220624999965,
      "d": 329.66999999999825,
      "v": 110
    },
    {
      "midi": 38,
      "hit": false,
      "t": 41401.088749999966,
      "d": 329.66999999999825,
      "v": 84
    },
    {
      "midi": 54,
      "hit": false,
      "t": 41401.088749999966,
      "d": 549.4499999999971,
      "v": 106
    },
    {
      "midi": 65,
      "hit": false,
      "t": 41723.89062499996,
      "d": 329.66999999999825,
      "v": 86
    },
    {
      "midi": 39,
      "hit": false,
      "t": 41730.758749999964,
      "d": 467.03250000000116,
      "v": 106
    },
    {
      "midi": 38,
      "hit": false,
      "t": 41730.758749999964,
      "d": 494.50500000000466,
      "v": 84
    },
    {
      "midi": 36,
      "hit": false,
      "t": 41730.758749999964,
      "d": 659.3400000000111,
      "v": 113
    },
    {
      "midi": 67,
      "hit": false,
      "t": 42053.56062499996,
      "d": 329.6700000000128,
      "v": 86
    },
    {
      "midi": 54,
      "hit": false,
      "t": 42060.42874999996,
      "d": 549.4500000000116,
      "v": 106
    },
    {
      "midi": 39,
      "hit": false,
      "t": 42225.26374999997,
      "d": 137.3625000000029,
      "v": 106
    },
    {
      "midi": 40,
      "hit": false,
      "t": 42225.26374999997,
      "d": 164.8350000000064,
      "v": 101
    },
    {
      "midi": 38,
      "hit": false,
      "t": 42225.26374999997,
      "d": 164.8350000000064,
      "v": 84
    },
    {
      "midi": 63,
      "hit": false,
      "t": 42225.26374999997,
      "d": 329.67000000000553,
      "v": 110
    },
    {
      "midi": 75,
      "hit": false,
      "t": 42225.26374999997,
      "d": 329.67000000000553,
      "v": 127
    },
    {
      "midi": 87,
      "hit": false,
      "t": 42225.26374999997,
      "d": 329.67000000000553,
      "v": 127
    },
    {
      "midi": 68,
      "hit": false,
      "t": 42383.230624999975,
      "d": 329.66999999999825,
      "v": 86
    },
    {
      "midi": 38,
      "hit": false,
      "t": 42390.098749999976,
      "d": 164.83499999999913,
      "v": 84
    },
    {
      "midi": 25,
      "hit": false,
      "t": 42390.098749999976,
      "d": 549.4499999999971,
      "v": 106
    },
    {
      "midi": 39,
      "hit": false,
      "t": 42390.098749999976,
      "d": 659.3399999999965,
      "v": 106
    },
    {
      "midi": 36,
      "hit": false,
      "t": 42390.098749999976,
      "d": 659.3399999999965,
      "v": 97
    },
    {
      "midi": 40,
      "hit": false,
      "t": 42554.933749999975,
      "d": 164.83499999999913,
      "v": 101
    },
    {
      "midi": 38,
      "hit": false,
      "t": 42554.933749999975,
      "d": 164.83499999999913,
      "v": 84
    },
    {
      "midi": 63,
      "hit": false,
      "t": 42554.933749999975,
      "d": 329.66999999999825,
      "v": 110
    },
    {
      "midi": 75,
      "hit": false,
      "t": 42554.933749999975,
      "d": 329.66999999999825,
      "v": 127
    },
    {
      "midi": 87,
      "hit": false,
      "t": 42554.933749999975,
      "d": 329.66999999999825,
      "v": 127
    },
    {
      "midi": 70,
      "hit": false,
      "t": 42712.90062499997,
      "d": 329.66999999999825,
      "v": 110
    },
    {
      "midi": 40,
      "hit": false,
      "t": 42719.768749999974,
      "d": 164.83499999999913,
      "v": 101
    },
    {
      "midi": 38,
      "hit": false,
      "t": 42719.768749999974,
      "d": 164.83499999999913,
      "v": 84
    },
    {
      "midi": 54,
      "hit": false,
      "t": 42719.768749999974,
      "d": 549.4499999999971,
      "v": 106
    },
    {
      "midi": 38,
      "hit": false,
      "t": 42884.60374999997,
      "d": 164.83499999999913,
      "v": 84
    },
    {
      "midi": 49,
      "hit": false,
      "t": 43042.57062499997,
      "d": 329.66999999999825,
      "v": 127
    },
    {
      "midi": 37,
      "hit": false,
      "t": 43049.43874999997,
      "d": 480.76874999999563,
      "v": 106
    },
    {
      "midi": 38,
      "hit": false,
      "t": 43049.43874999997,
      "d": 494.5049999999974,
      "v": 84
    },
    {
      "midi": 61,
      "hit": false,
      "t": 43049.43874999997,
      "d": 659.3400000000038,
      "v": 108
    },
    {
      "midi": 73,
      "hit": false,
      "t": 43049.43874999997,
      "d": 659.3400000000038,
      "v": 108
    },
    {
      "midi": 85,
      "hit": false,
      "t": 43049.43874999997,
      "d": 659.3400000000038,
      "v": 108
    },
    {
      "midi": 36,
      "hit": false,
      "t": 43049.43874999997,
      "d": 659.3400000000038,
      "v": 113
    },
    {
      "midi": 53,
      "hit": false,
      "t": 43372.24062499997,
      "d": 329.67000000000553,
      "v": 127
    },
    {
      "midi": 65,
      "hit": false,
      "t": 43379.10874999997,
      "d": 329.67000000000553,
      "v": 101
    },
    {
      "midi": 54,
      "hit": false,
      "t": 43379.10874999997,
      "d": 549.4500000000044,
      "v": 106
    },
    {
      "midi": 37,
      "hit": false,
      "t": 43543.94374999997,
      "d": 137.3625000000029,
      "v": 106
    },
    {
      "midi": 38,
      "hit": false,
      "t": 43543.94374999997,
      "d": 164.8350000000064,
      "v": 84
    },
    {
      "midi": 56,
      "hit": false,
      "t": 43701.910624999975,
      "d": 329.66999999999825,
      "v": 127
    },
    {
      "midi": 38,
      "hit": false,
      "t": 43708.778749999976,
      "d": 164.83499999999913,
      "v": 84
    },
    {
      "midi": 65,
      "hit": false,
      "t": 43708.778749999976,
      "d": 329.66999999999825,
      "v": 101
    },
    {
      "midi": 37,
      "hit": false,
      "t": 43708.778749999976,
      "d": 618.1312499999985,
      "v": 106
    },
    {
      "midi": 36,
      "hit": false,
      "t": 43708.778749999976,
      "d": 659.3399999999965,
      "v": 97
    },
    {
      "midi": 38,
      "hit": false,
      "t": 43873.613749999975,
      "d": 164.83499999999913,
      "v": 84
    },
    {
      "midi": 61,
      "hit": false,
      "t": 44031.58062499997,
      "d": 329.66999999999825,
      "v": 127
    },
    {
      "midi": 65,
      "hit": false,
      "t": 44038.448749999974,
      "d": 329.66999999999825,
      "v": 101
    },
    {
      "midi": 38,
      "hit": false,
      "t": 44038.448749999974,
      "d": 329.66999999999825,
      "v": 84
    },
    {
      "midi": 54,
      "hit": false,
      "t": 44038.448749999974,
      "d": 549.4499999999971,
      "v": 106
    },
    {
      "midi": 63,
      "hit": false,
      "t": 44361.25062499997,
      "d": 329.66999999999825,
      "v": 127
    },
    {
      "midi": 37,
      "hit": false,
      "t": 44368.11874999997,
      "d": 467.03250000000116,
      "v": 106
    },
    {
      "midi": 38,
      "hit": false,
      "t": 44368.11874999997,
      "d": 494.50500000000466,
      "v": 84
    },
    {
      "midi": 36,
      "hit": false,
      "t": 44368.11874999997,
      "d": 659.3400000000111,
      "v": 97
    },
    {
      "midi": 65,
      "hit": false,
      "t": 44690.92062499997,
      "d": 6.868125000000873,
      "v": 127
    },
    {
      "midi": 63,
      "hit": false,
      "t": 44697.78874999997,
      "d": 164.8350000000064,
      "v": 104
    },
    {
      "midi": 54,
      "hit": false,
      "t": 44697.78874999997,
      "d": 549.4500000000116,
      "v": 106
    },
    {
      "midi": 37,
      "hit": false,
      "t": 44862.62374999998,
      "d": 137.3625000000029,
      "v": 106
    },
    {
      "midi": 38,
      "hit": false,
      "t": 44862.62374999998,
      "d": 164.8350000000064,
      "v": 84
    },
    {
      "midi": 63,
      "hit": false,
      "t": 44862.62374999998,
      "d": 494.50500000000466,
      "v": 95
    },
    {
      "midi": 68,
      "hit": false,
      "t": 45020.59062499998,
      "d": 329.66999999999825,
      "v": 127
    },
    {
      "midi": 38,
      "hit": false,
      "t": 45027.45874999998,
      "d": 164.83499999999913,
      "v": 84
    },
    {
      "midi": 25,
      "hit": false,
      "t": 45027.45874999998,
      "d": 549.4499999999971,
      "v": 106
    },
    {
      "midi": 37,
      "hit": false,
      "t": 45027.45874999998,
      "d": 659.3399999999965,
      "v": 106
    },
    {
      "midi": 36,
      "hit": false,
      "t": 45027.45874999998,
      "d": 659.3399999999965,
      "v": 97
    },
    {
      "midi": 38,
      "hit": false,
      "t": 45192.29374999998,
      "d": 164.83499999999913,
      "v": 84
    },
    {
      "midi": 70,
      "hit": false,
      "t": 45350.26062499998,
      "d": 329.66999999999825,
      "v": 127
    },
    {
      "midi": 38,
      "hit": false,
      "t": 45357.12874999998,
      "d": 164.83499999999913,
      "v": 84
    },
    {
      "midi": 63,
      "hit": false,
      "t": 45357.12874999998,
      "d": 329.66999999999825,
      "v": 95
    },
    {
      "midi": 54,
      "hit": false,
      "t": 45357.12874999998,
      "d": 549.4499999999971,
      "v": 106
    },
    {
      "midi": 38,
      "hit": false,
      "t": 45521.96374999998,
      "d": 164.83499999999913,
      "v": 84
    },
    {
      "midi": 51,
      "hit": false,
      "t": 45679.93062499998,
      "d": 329.66999999999825,
      "v": 127
    },
    {
      "midi": 63,
      "hit": false,
      "t": 45686.79874999998,
      "d": 329.66999999999825,
      "v": 95
    },
    {
      "midi": 39,
      "hit": false,
      "t": 45686.79874999998,
      "d": 480.76874999999563,
      "v": 106
    },
    {
      "midi": 38,
      "hit": false,
      "t": 45686.79874999998,
      "d": 494.5049999999974,
      "v": 84
    },
    {
      "midi": 36,
      "hit": false,
      "t": 45686.79874999998,
      "d": 659.3400000000038,
      "v": 94
    },
    {
      "midi": 55,
      "hit": false,
      "t": 46009.60062499998,
      "d": 329.67000000000553,
      "v": 127
    },
    {
      "midi": 65,
      "hit": false,
      "t": 46016.46874999998,
      "d": 164.83499999999913,
      "v": 83
    },
    {
      "midi": 54,
      "hit": false,
      "t": 46016.46874999998,
      "d": 549.4500000000044,
      "v": 106
    },
    {
      "midi": 39,
      "hit": false,
      "t": 46181.30374999998,
      "d": 137.3625000000029,
      "v": 106
    },
    {
      "midi": 38,
      "hit": false,
      "t": 46181.30374999998,
      "d": 164.8350000000064,
      "v": 84
    },
    {
      "midi": 67,
      "hit": false,
      "t": 46181.30374999998,
      "d": 824.1750000000029,
      "v": 97
    },
    {
      "midi": 58,
      "hit": false,
      "t": 46339.27062499998,
      "d": 329.66999999999825,
      "v": 127
    },
    {
      "midi": 38,
      "hit": false,
      "t": 46346.138749999984,
      "d": 164.83499999999913,
      "v": 84
    },
    {
      "midi": 39,
      "hit": false,
      "t": 46346.138749999984,
      "d": 618.1312499999985,
      "v": 106
    },
    {
      "midi": 36,
      "hit": false,
      "t": 46346.138749999984,
      "d": 659.3399999999965,
      "v": 101
    },
    {
      "midi": 38,
      "hit": false,
      "t": 46510.97374999998,
      "d": 164.83499999999913,
      "v": 84
    },
    {
      "midi": 63,
      "hit": false,
      "t": 46668.94062499998,
      "d": 329.66999999999825,
      "v": 127
    },
    {
      "midi": 38,
      "hit": false,
      "t": 46675.80874999998,
      "d": 329.66999999999825,
      "v": 84
    },
    {
      "midi": 54,
      "hit": false,
      "t": 46675.80874999998,
      "d": 549.4499999999971,
      "v": 106
    },
    {
      "midi": 65,
      "hit": false,
      "t": 46998.61062499998,
      "d": 329.66999999999825,
      "v": 127
    },
    {
      "midi": 63,
      "hit": false,
      "t": 47005.47874999998,
      "d": 329.66999999999825,
      "v": 110
    },
    {
      "midi": 75,
      "hit": false,
      "t": 47005.47874999998,
      "d": 329.66999999999825,
      "v": 110
    },
    {
      "midi": 87,
      "hit": false,
      "t": 47005.47874999998,
      "d": 329.66999999999825,
      "v": 127
    },
    {
      "midi": 39,
      "hit": false,
      "t": 47005.47874999998,
      "d": 467.03250000000116,
      "v": 106
    },
    {
      "midi": 38,
      "hit": false,
      "t": 47005.47874999998,
      "d": 494.50500000000466,
      "v": 84
    },
    {
      "midi": 36,
      "hit": false,
      "t": 47005.47874999998,
      "d": 659.3400000000111,
      "v": 104
    },
    {
      "midi": 67,
      "hit": false,
      "t": 47328.28062499998,
      "d": 329.6700000000128,
      "v": 127
    },
    {
      "midi": 54,
      "hit": false,
      "t": 47335.14874999998,
      "d": 549.4500000000116,
      "v": 106
    },
    {
      "midi": 39,
      "hit": false,
      "t": 47499.983749999985,
      "d": 137.3625000000029,
      "v": 106
    },
    {
      "midi": 38,
      "hit": false,
      "t": 47499.983749999985,
      "d": 164.8350000000064,
      "v": 84
    },
    {
      "midi": 63,
      "hit": false,
      "t": 47499.983749999985,
      "d": 329.67000000000553,
      "v": 110
    },
    {
      "midi": 75,
      "hit": false,
      "t": 47499.983749999985,
      "d": 329.67000000000553,
      "v": 110
    },
    {
      "midi": 87,
      "hit": false,
      "t": 47499.983749999985,
      "d": 329.67000000000553,
      "v": 127
    },
    {
      "midi": 68,
      "hit": false,
      "t": 47657.95062499999,
      "d": 329.66999999999825,
      "v": 127
    },
    {
      "midi": 38,
      "hit": false,
      "t": 47664.81874999999,
      "d": 164.83499999999913,
      "v": 84
    },
    {
      "midi": 25,
      "hit": false,
      "t": 47664.81874999999,
      "d": 549.4499999999971,
      "v": 106
    },
    {
      "midi": 39,
      "hit": false,
      "t": 47664.81874999999,
      "d": 659.3399999999965,
      "v": 106
    },
    {
      "midi": 36,
      "hit": false,
      "t": 47664.81874999999,
      "d": 659.3399999999965,
      "v": 108
    },
    {
      "midi": 38,
      "hit": false,
      "t": 47829.65374999999,
      "d": 164.83499999999913,
      "v": 84
    },
    {
      "midi": 70,
      "hit": false,
      "t": 47987.62062499999,
      "d": 329.66999999999825,
      "v": 127
    },
    {
      "midi": 38,
      "hit": false,
      "t": 47994.48874999999,
      "d": 164.83499999999913,
      "v": 84
    },
    {
      "midi": 54,
      "hit": false,
      "t": 47994.48874999999,
      "d": 549.4499999999971,
      "v": 106
    },
    {
      "midi": 38,
      "hit": false,
      "t": 48159.32374999999,
      "d": 164.83499999999913,
      "v": 84
    },
    {
      "midi": 49,
      "hit": false,
      "t": 48317.29062499999,
      "d": 329.66999999999825,
      "v": 127
    },
    {
      "midi": 37,
      "hit": false,
      "t": 48324.15874999999,
      "d": 480.76874999999563,
      "v": 106
    },
    {
      "midi": 38,
      "hit": false,
      "t": 48324.15874999999,
      "d": 494.5049999999974,
      "v": 84
    },
    {
      "midi": 61,
      "hit": false,
      "t": 48324.15874999999,
      "d": 659.3400000000038,
      "v": 108
    },
    {
      "midi": 73,
      "hit": false,
      "t": 48324.15874999999,
      "d": 659.3400000000038,
      "v": 108
    },
    {
      "midi": 85,
      "hit": false,
      "t": 48324.15874999999,
      "d": 659.3400000000038,
      "v": 108
    },
    {
      "midi": 36,
      "hit": false,
      "t": 48324.15874999999,
      "d": 659.3400000000038,
      "v": 113
    },
    {
      "midi": 53,
      "hit": false,
      "t": 48646.960624999985,
      "d": 329.67000000000553,
      "v": 127
    },
    {
      "midi": 65,
      "hit": false,
      "t": 48653.828749999986,
      "d": 329.67000000000553,
      "v": 101
    },
    {
      "midi": 54,
      "hit": false,
      "t": 48653.828749999986,
      "d": 549.4500000000044,
      "v": 106
    },
    {
      "midi": 37,
      "hit": false,
      "t": 48818.663749999985,
      "d": 137.3625000000029,
      "v": 106
    },
    {
      "midi": 38,
      "hit": false,
      "t": 48818.663749999985,
      "d": 164.8350000000064,
      "v": 84
    },
    {
      "midi": 56,
      "hit": false,
      "t": 48976.63062499999,
      "d": 329.66999999999825,
      "v": 127
    },
    {
      "midi": 38,
      "hit": false,
      "t": 48983.49874999999,
      "d": 164.83499999999913,
      "v": 84
    },
    {
      "midi": 65,
      "hit": false,
      "t": 48983.49874999999,
      "d": 329.66999999999825,
      "v": 101
    },
    {
      "midi": 37,
      "hit": false,
      "t": 48983.49874999999,
      "d": 618.1312499999985,
      "v": 106
    },
    {
      "midi": 36,
      "hit": false,
      "t": 48983.49874999999,
      "d": 659.3399999999965,
      "v": 97
    },
    {
      "midi": 38,
      "hit": false,
      "t": 49148.33374999999,
      "d": 164.83499999999913,
      "v": 84
    },
    {
      "midi": 61,
      "hit": false,
      "t": 49306.30062499999,
      "d": 329.66999999999825,
      "v": 127
    },
    {
      "midi": 65,
      "hit": false,
      "t": 49313.16874999999,
      "d": 329.66999999999825,
      "v": 101
    },
    {
      "midi": 38,
      "hit": false,
      "t": 49313.16874999999,
      "d": 329.66999999999825,
      "v": 84
    },
    {
      "midi": 54,
      "hit": false,
      "t": 49313.16874999999,
      "d": 549.4499999999971,
      "v": 106
    },
    {
      "midi": 63,
      "hit": false,
      "t": 49635.97062499999,
      "d": 329.66999999999825,
      "v": 127
    },
    {
      "midi": 37,
      "hit": false,
      "t": 49642.83874999999,
      "d": 467.03250000000116,
      "v": 106
    },
    {
      "midi": 38,
      "hit": false,
      "t": 49642.83874999999,
      "d": 494.50500000000466,
      "v": 84
    },
    {
      "midi": 36,
      "hit": false,
      "t": 49642.83874999999,
      "d": 659.3400000000111,
      "v": 97
    },
    {
      "midi": 65,
      "hit": false,
      "t": 49965.640624999985,
      "d": 6.868125000000873,
      "v": 127
    },
    {
      "midi": 63,
      "hit": false,
      "t": 49972.508749999986,
      "d": 164.8350000000064,
      "v": 104
    },
    {
      "midi": 54,
      "hit": false,
      "t": 49972.508749999986,
      "d": 549.4500000000116,
      "v": 106
    },
    {
      "midi": 37,
      "hit": false,
      "t": 50137.34374999999,
      "d": 137.3625000000029,
      "v": 106
    },
    {
      "midi": 38,
      "hit": false,
      "t": 50137.34374999999,
      "d": 164.8350000000064,
      "v": 84
    },
    {
      "midi": 63,
      "hit": false,
      "t": 50137.34374999999,
      "d": 494.50500000000466,
      "v": 95
    },
    {
      "midi": 68,
      "hit": false,
      "t": 50295.310625,
      "d": 329.66999999999825,
      "v": 127
    },
    {
      "midi": 38,
      "hit": false,
      "t": 50302.17875,
      "d": 164.83499999999913,
      "v": 84
    },
    {
      "midi": 25,
      "hit": false,
      "t": 50302.17875,
      "d": 549.4499999999971,
      "v": 106
    },
    {
      "midi": 37,
      "hit": false,
      "t": 50302.17875,
      "d": 659.3399999999965,
      "v": 106
    },
    {
      "midi": 36,
      "hit": false,
      "t": 50302.17875,
      "d": 659.3399999999965,
      "v": 97
    },
    {
      "midi": 38,
      "hit": false,
      "t": 50467.01375,
      "d": 164.83499999999913,
      "v": 84
    },
    {
      "midi": 70,
      "hit": false,
      "t": 50624.980625,
      "d": 329.66999999999825,
      "v": 127
    },
    {
      "midi": 38,
      "hit": false,
      "t": 50631.84875,
      "d": 164.83499999999913,
      "v": 84
    },
    {
      "midi": 63,
      "hit": false,
      "t": 50631.84875,
      "d": 329.66999999999825,
      "v": 95
    },
    {
      "midi": 54,
      "hit": false,
      "t": 50631.84875,
      "d": 549.4499999999971,
      "v": 106
    },
    {
      "midi": 38,
      "hit": false,
      "t": 50796.68375,
      "d": 164.83499999999913,
      "v": 84
    },
    {
      "midi": 51,
      "hit": false,
      "t": 50954.650624999995,
      "d": 329.66999999999825,
      "v": 127
    },
    {
      "midi": 39,
      "hit": false,
      "t": 50961.518749999996,
      "d": 480.76874999999563,
      "v": 106
    },
    {
      "midi": 38,
      "hit": false,
      "t": 50961.518749999996,
      "d": 494.5049999999974,
      "v": 84
    },
    {
      "midi": 36,
      "hit": false,
      "t": 50961.518749999996,
      "d": 659.3400000000038,
      "v": 113
    },
    {
      "midi": 55,
      "hit": false,
      "t": 51284.32062499999,
      "d": 329.67000000000553,
      "v": 127
    },
    {
      "midi": 54,
      "hit": false,
      "t": 51291.188749999994,
      "d": 549.4500000000044,
      "v": 106
    },
    {
      "midi": 39,
      "hit": false,
      "t": 51456.02374999999,
      "d": 137.3625000000029,
      "v": 106
    },
    {
      "midi": 38,
      "hit": false,
      "t": 51456.02374999999,
      "d": 164.8350000000064,
      "v": 84
    },
    {
      "midi": 58,
      "hit": false,
      "t": 51613.990625,
      "d": 329.66999999999825,
      "v": 127
    },
    {
      "midi": 38,
      "hit": false,
      "t": 51620.85875,
      "d": 164.83499999999913,
      "v": 84
    },
    {
      "midi": 39,
      "hit": false,
      "t": 51620.85875,
      "d": 618.1312499999985,
      "v": 106
    },
    {
      "midi": 36,
      "hit": false,
      "t": 51620.85875,
      "d": 659.3399999999965,
      "v": 97
    },
    {
      "midi": 38,
      "hit": false,
      "t": 51785.69375,
      "d": 164.83499999999913,
      "v": 84
    },
    {
      "midi": 63,
      "hit": false,
      "t": 51943.660625,
      "d": 329.66999999999825,
      "v": 127
    },
    {
      "midi": 38,
      "hit": false,
      "t": 51950.52875,
      "d": 329.66999999999825,
      "v": 84
    },
    {
      "midi": 54,
      "hit": false,
      "t": 51950.52875,
      "d": 549.4499999999971,
      "v": 106
    },
    {
      "midi": 65,
      "hit": false,
      "t": 52273.330624999995,
      "d": 329.66999999999825,
      "v": 127
    },
    {
      "midi": 63,
      "hit": false,
      "t": 52280.198749999996,
      "d": 329.66999999999825,
      "v": 110
    },
    {
      "midi": 75,
      "hit": false,
      "t": 52280.198749999996,
      "d": 329.66999999999825,
      "v": 110
    },
    {
      "midi": 87,
      "hit": false,
      "t": 52280.198749999996,
      "d": 329.66999999999825,
      "v": 127
    },
    {
      "midi": 39,
      "hit": false,
      "t": 52280.198749999996,
      "d": 467.03250000000116,
      "v": 106
    },
    {
      "midi": 38,
      "hit": false,
      "t": 52280.198749999996,
      "d": 494.50500000000466,
      "v": 84
    },
    {
      "midi": 36,
      "hit": false,
      "t": 52280.198749999996,
      "d": 659.3400000000111,
      "v": 113
    },
    {
      "midi": 67,
      "hit": false,
      "t": 52603.00062499999,
      "d": 329.6700000000128,
      "v": 127
    },
    {
      "midi": 54,
      "hit": false,
      "t": 52609.868749999994,
      "d": 549.4500000000116,
      "v": 106
    },
    {
      "midi": 39,
      "hit": false,
      "t": 52774.70375,
      "d": 137.3625000000029,
      "v": 106
    },
    {
      "midi": 40,
      "hit": false,
      "t": 52774.70375,
      "d": 164.8350000000064,
      "v": 101
    },
    {
      "midi": 38,
      "hit": false,
      "t": 52774.70375,
      "d": 164.8350000000064,
      "v": 84
    },
    {
      "midi": 63,
      "hit": false,
      "t": 52774.70375,
      "d": 329.67000000000553,
      "v": 110
    },
    {
      "midi": 75,
      "hit": false,
      "t": 52774.70375,
      "d": 329.67000000000553,
      "v": 110
    },
    {
      "midi": 87,
      "hit": false,
      "t": 52774.70375,
      "d": 329.67000000000553,
      "v": 127
    },
    {
      "midi": 68,
      "hit": false,
      "t": 52932.670625000006,
      "d": 329.66999999999825,
      "v": 127
    },
    {
      "midi": 38,
      "hit": false,
      "t": 52939.53875000001,
      "d": 164.83499999999913,
      "v": 84
    },
    {
      "midi": 25,
      "hit": false,
      "t": 52939.53875000001,
      "d": 549.4499999999971,
      "v": 106
    },
    {
      "midi": 39,
      "hit": false,
      "t": 52939.53875000001,
      "d": 659.3399999999965,
      "v": 106
    },
    {
      "midi": 36,
      "hit": false,
      "t": 52939.53875000001,
      "d": 659.3399999999965,
      "v": 97
    },
    {
      "midi": 40,
      "hit": false,
      "t": 53104.373750000006,
      "d": 164.83499999999913,
      "v": 101
    },
    {
      "midi": 38,
      "hit": false,
      "t": 53104.373750000006,
      "d": 164.83499999999913,
      "v": 84
    },
    {
      "midi": 70,
      "hit": false,
      "t": 53262.340625000004,
      "d": 329.66999999999825,
      "v": 127
    },
    {
      "midi": 40,
      "hit": false,
      "t": 53269.208750000005,
      "d": 164.83499999999913,
      "v": 101
    },
    {
      "midi": 38,
      "hit": false,
      "t": 53269.208750000005,
      "d": 164.83499999999913,
      "v": 84
    },
    {
      "midi": 54,
      "hit": false,
      "t": 53269.208750000005,
      "d": 549.4499999999971,
      "v": 106
    },
    {
      "midi": 38,
      "hit": false,
      "t": 53434.043750000004,
      "d": 164.83499999999913,
      "v": 84
    },
    {
      "midi": 49,
      "hit": false,
      "t": 53592.010625,
      "d": 329.66999999999825,
      "v": 127
    },
    {
      "midi": 37,
      "hit": false,
      "t": 53598.87875,
      "d": 480.76874999999563,
      "v": 106
    },
    {
      "midi": 38,
      "hit": false,
      "t": 53598.87875,
      "d": 494.5049999999974,
      "v": 84
    },
    {
      "midi": 61,
      "hit": false,
      "t": 53598.87875,
      "d": 659.3400000000038,
      "v": 108
    },
    {
      "midi": 73,
      "hit": false,
      "t": 53598.87875,
      "d": 659.3400000000038,
      "v": 108
    },
    {
      "midi": 85,
      "hit": false,
      "t": 53598.87875,
      "d": 659.3400000000038,
      "v": 108
    },
    {
      "midi": 36,
      "hit": false,
      "t": 53598.87875,
      "d": 659.3400000000038,
      "v": 113
    },
    {
      "midi": 53,
      "hit": false,
      "t": 53921.680625,
      "d": 329.67000000000553,
      "v": 127
    },
    {
      "midi": 65,
      "hit": false,
      "t": 53928.54875,
      "d": 329.67000000000553,
      "v": 101
    },
    {
      "midi": 54,
      "hit": false,
      "t": 53928.54875,
      "d": 549.4500000000044,
      "v": 106
    },
    {
      "midi": 37,
      "hit": false,
      "t": 54093.38375,
      "d": 137.3625000000029,
      "v": 106
    },
    {
      "midi": 38,
      "hit": false,
      "t": 54093.38375,
      "d": 164.8350000000064,
      "v": 84
    },
    {
      "midi": 56,
      "hit": false,
      "t": 54251.35062500001,
      "d": 329.66999999999825,
      "v": 127
    },
    {
      "midi": 38,
      "hit": false,
      "t": 54258.21875000001,
      "d": 164.83499999999913,
      "v": 84
    },
    {
      "midi": 65,
      "hit": false,
      "t": 54258.21875000001,
      "d": 329.66999999999825,
      "v": 101
    },
    {
      "midi": 37,
      "hit": false,
      "t": 54258.21875000001,
      "d": 618.1312499999985,
      "v": 106
    },
    {
      "midi": 36,
      "hit": false,
      "t": 54258.21875000001,
      "d": 659.3399999999965,
      "v": 97
    },
    {
      "midi": 38,
      "hit": false,
      "t": 54423.05375000001,
      "d": 164.83499999999913,
      "v": 84
    },
    {
      "midi": 61,
      "hit": false,
      "t": 54581.020625000005,
      "d": 329.66999999999825,
      "v": 127
    },
    {
      "midi": 65,
      "hit": false,
      "t": 54587.888750000006,
      "d": 329.66999999999825,
      "v": 101
    },
    {
      "midi": 38,
      "hit": false,
      "t": 54587.888750000006,
      "d": 329.66999999999825,
      "v": 84
    },
    {
      "midi": 54,
      "hit": false,
      "t": 54587.888750000006,
      "d": 549.4499999999971,
      "v": 106
    },
    {
      "midi": 63,
      "hit": false,
      "t": 54910.690625,
      "d": 329.66999999999825,
      "v": 127
    },
    {
      "midi": 37,
      "hit": false,
      "t": 54917.558750000004,
      "d": 467.03250000000116,
      "v": 106
    },
    {
      "midi": 38,
      "hit": false,
      "t": 54917.558750000004,
      "d": 494.50500000000466,
      "v": 84
    },
    {
      "midi": 36,
      "hit": false,
      "t": 54917.558750000004,
      "d": 659.3400000000111,
      "v": 97
    },
    {
      "midi": 65,
      "hit": false,
      "t": 55240.360625,
      "d": 6.868125000000873,
      "v": 127
    },
    {
      "midi": 63,
      "hit": false,
      "t": 55247.22875,
      "d": 164.8350000000064,
      "v": 104
    },
    {
      "midi": 54,
      "hit": false,
      "t": 55247.22875,
      "d": 549.4500000000116,
      "v": 106
    },
    {
      "midi": 37,
      "hit": false,
      "t": 55412.06375000001,
      "d": 137.3625000000029,
      "v": 106
    },
    {
      "midi": 38,
      "hit": false,
      "t": 55412.06375000001,
      "d": 164.8350000000064,
      "v": 84
    },
    {
      "midi": 63,
      "hit": false,
      "t": 55412.06375000001,
      "d": 494.50500000000466,
      "v": 95
    },
    {
      "midi": 68,
      "hit": false,
      "t": 55570.030625000014,
      "d": 329.66999999999825,
      "v": 127
    },
    {
      "midi": 38,
      "hit": false,
      "t": 55576.898750000015,
      "d": 164.83499999999913,
      "v": 84
    },
    {
      "midi": 25,
      "hit": false,
      "t": 55576.898750000015,
      "d": 549.4499999999971,
      "v": 106
    },
    {
      "midi": 37,
      "hit": false,
      "t": 55576.898750000015,
      "d": 659.3399999999965,
      "v": 106
    },
    {
      "midi": 36,
      "hit": false,
      "t": 55576.898750000015,
      "d": 659.3399999999965,
      "v": 97
    },
    {
      "midi": 38,
      "hit": false,
      "t": 55741.733750000014,
      "d": 164.83499999999913,
      "v": 84
    },
    {
      "midi": 70,
      "hit": false,
      "t": 55899.70062500001,
      "d": 329.66999999999825,
      "v": 127
    },
    {
      "midi": 38,
      "hit": false,
      "t": 55906.56875000001,
      "d": 164.83499999999913,
      "v": 84
    },
    {
      "midi": 63,
      "hit": false,
      "t": 55906.56875000001,
      "d": 329.66999999999825,
      "v": 95
    },
    {
      "midi": 54,
      "hit": false,
      "t": 55906.56875000001,
      "d": 549.4499999999971,
      "v": 106
    },
    {
      "midi": 38,
      "hit": false,
      "t": 56071.40375000001,
      "d": 164.83499999999913,
      "v": 84
    },
    {
      "midi": 51,
      "hit": false,
      "t": 56229.37062500001,
      "d": 329.66999999999825,
      "v": 127
    },
    {
      "midi": 63,
      "hit": false,
      "t": 56236.23875000001,
      "d": 329.66999999999825,
      "v": 95
    },
    {
      "midi": 39,
      "hit": false,
      "t": 56236.23875000001,
      "d": 480.76874999999563,
      "v": 106
    },
    {
      "midi": 38,
      "hit": false,
      "t": 56236.23875000001,
      "d": 494.5049999999974,
      "v": 84
    },
    {
      "midi": 36,
      "hit": false,
      "t": 56236.23875000001,
      "d": 659.3400000000038,
      "v": 94
    },
    {
      "midi": 55,
      "hit": false,
      "t": 56559.04062500001,
      "d": 329.67000000000553,
      "v": 127
    },
    {
      "midi": 65,
      "hit": false,
      "t": 56565.90875000001,
      "d": 164.83499999999913,
      "v": 83
    },
    {
      "midi": 54,
      "hit": false,
      "t": 56565.90875000001,
      "d": 549.4500000000044,
      "v": 106
    },
    {
      "midi": 39,
      "hit": false,
      "t": 56730.74375000001,
      "d": 137.3625000000029,
      "v": 106
    },
    {
      "midi": 38,
      "hit": false,
      "t": 56730.74375000001,
      "d": 164.8350000000064,
      "v": 84
    },
    {
      "midi": 67,
      "hit": false,
      "t": 56730.74375000001,
      "d": 824.1750000000029,
      "v": 97
    },
    {
      "midi": 58,
      "hit": false,
      "t": 56888.710625000014,
      "d": 329.66999999999825,
      "v": 127
    },
    {
      "midi": 38,
      "hit": false,
      "t": 56895.578750000015,
      "d": 164.83499999999913,
      "v": 84
    },
    {
      "midi": 39,
      "hit": false,
      "t": 56895.578750000015,
      "d": 618.1312499999985,
      "v": 106
    },
    {
      "midi": 36,
      "hit": false,
      "t": 56895.578750000015,
      "d": 659.3399999999965,
      "v": 101
    },
    {
      "midi": 38,
      "hit": false,
      "t": 57060.413750000014,
      "d": 164.83499999999913,
      "v": 84
    },
    {
      "midi": 63,
      "hit": false,
      "t": 57218.38062500001,
      "d": 329.66999999999825,
      "v": 127
    },
    {
      "midi": 38,
      "hit": false,
      "t": 57225.24875000001,
      "d": 329.66999999999825,
      "v": 84
    },
    {
      "midi": 54,
      "hit": false,
      "t": 57225.24875000001,
      "d": 549.4499999999971,
      "v": 106
    },
    {
      "midi": 65,
      "hit": false,
      "t": 57548.05062500001,
      "d": 329.66999999999825,
      "v": 127
    },
    {
      "midi": 63,
      "hit": false,
      "t": 57554.91875000001,
      "d": 329.66999999999825,
      "v": 110
    },
    {
      "midi": 75,
      "hit": false,
      "t": 57554.91875000001,
      "d": 329.66999999999825,
      "v": 110
    },
    {
      "midi": 87,
      "hit": false,
      "t": 57554.91875000001,
      "d": 329.66999999999825,
      "v": 127
    },
    {
      "midi": 39,
      "hit": false,
      "t": 57554.91875000001,
      "d": 467.03250000000116,
      "v": 106
    },
    {
      "midi": 38,
      "hit": false,
      "t": 57554.91875000001,
      "d": 494.50500000000466,
      "v": 84
    },
    {
      "midi": 36,
      "hit": false,
      "t": 57554.91875000001,
      "d": 659.3400000000111,
      "v": 104
    },
    {
      "midi": 67,
      "hit": false,
      "t": 57877.72062500001,
      "d": 329.6700000000128,
      "v": 127
    },
    {
      "midi": 54,
      "hit": false,
      "t": 57884.58875000001,
      "d": 549.4500000000116,
      "v": 106
    },
    {
      "midi": 39,
      "hit": false,
      "t": 58049.423750000016,
      "d": 137.3625000000029,
      "v": 106
    },
    {
      "midi": 38,
      "hit": false,
      "t": 58049.423750000016,
      "d": 164.8350000000064,
      "v": 84
    },
    {
      "midi": 63,
      "hit": false,
      "t": 58049.423750000016,
      "d": 329.67000000000553,
      "v": 110
    },
    {
      "midi": 75,
      "hit": false,
      "t": 58049.423750000016,
      "d": 329.67000000000553,
      "v": 110
    },
    {
      "midi": 87,
      "hit": false,
      "t": 58049.423750000016,
      "d": 329.67000000000553,
      "v": 127
    },
    {
      "midi": 68,
      "hit": false,
      "t": 58207.39062500002,
      "d": 329.66999999999825,
      "v": 127
    },
    {
      "midi": 38,
      "hit": false,
      "t": 58214.25875000002,
      "d": 164.83499999999913,
      "v": 84
    },
    {
      "midi": 25,
      "hit": false,
      "t": 58214.25875000002,
      "d": 549.4499999999971,
      "v": 106
    },
    {
      "midi": 39,
      "hit": false,
      "t": 58214.25875000002,
      "d": 659.3399999999965,
      "v": 106
    },
    {
      "midi": 36,
      "hit": false,
      "t": 58214.25875000002,
      "d": 659.3399999999965,
      "v": 108
    },
    {
      "midi": 38,
      "hit": false,
      "t": 58379.09375000002,
      "d": 164.83499999999913,
      "v": 84
    },
    {
      "midi": 70,
      "hit": false,
      "t": 58537.06062500002,
      "d": 329.66999999999825,
      "v": 127
    },
    {
      "midi": 38,
      "hit": false,
      "t": 58543.92875000002,
      "d": 164.83499999999913,
      "v": 84
    },
    {
      "midi": 54,
      "hit": false,
      "t": 58543.92875000002,
      "d": 549.4499999999971,
      "v": 106
    },
    {
      "midi": 38,
      "hit": false,
      "t": 58708.76375000002,
      "d": 164.83499999999913,
      "v": 84
    },
    {
      "midi": 49,
      "hit": false,
      "t": 58866.73062500002,
      "d": 329.66999999999825,
      "v": 127
    },
    {
      "midi": 37,
      "hit": false,
      "t": 58873.59875000002,
      "d": 480.76874999999563,
      "v": 106
    },
    {
      "midi": 38,
      "hit": false,
      "t": 58873.59875000002,
      "d": 494.5049999999974,
      "v": 84
    },
    {
      "midi": 61,
      "hit": false,
      "t": 58873.59875000002,
      "d": 659.3400000000038,
      "v": 108
    },
    {
      "midi": 73,
      "hit": false,
      "t": 58873.59875000002,
      "d": 659.3400000000038,
      "v": 108
    },
    {
      "midi": 85,
      "hit": false,
      "t": 58873.59875000002,
      "d": 659.3400000000038,
      "v": 108
    },
    {
      "midi": 36,
      "hit": false,
      "t": 58873.59875000002,
      "d": 659.3400000000038,
      "v": 113
    },
    {
      "midi": 53,
      "hit": false,
      "t": 59196.40062500002,
      "d": 329.67000000000553,
      "v": 127
    },
    {
      "midi": 65,
      "hit": false,
      "t": 59203.26875000002,
      "d": 329.67000000000553,
      "v": 101
    },
    {
      "midi": 54,
      "hit": false,
      "t": 59203.26875000002,
      "d": 549.4500000000044,
      "v": 106
    },
    {
      "midi": 37,
      "hit": false,
      "t": 59368.10375000002,
      "d": 137.3625000000029,
      "v": 106
    },
    {
      "midi": 38,
      "hit": false,
      "t": 59368.10375000002,
      "d": 164.8350000000064,
      "v": 84
    },
    {
      "midi": 56,
      "hit": false,
      "t": 59526.07062500002,
      "d": 329.66999999999825,
      "v": 127
    },
    {
      "midi": 38,
      "hit": false,
      "t": 59532.93875000002,
      "d": 164.83499999999913,
      "v": 84
    },
    {
      "midi": 65,
      "hit": false,
      "t": 59532.93875000002,
      "d": 329.66999999999825,
      "v": 101
    },
    {
      "midi": 37,
      "hit": false,
      "t": 59532.93875000002,
      "d": 618.1312499999985,
      "v": 106
    },
    {
      "midi": 36,
      "hit": false,
      "t": 59532.93875000002,
      "d": 659.3399999999965,
      "v": 97
    },
    {
      "midi": 38,
      "hit": false,
      "t": 59697.77375000002,
      "d": 164.83499999999913,
      "v": 84
    },
    {
      "midi": 61,
      "hit": false,
      "t": 59855.74062500002,
      "d": 329.66999999999825,
      "v": 127
    },
    {
      "midi": 65,
      "hit": false,
      "t": 59862.60875000002,
      "d": 329.66999999999825,
      "v": 101
    },
    {
      "midi": 38,
      "hit": false,
      "t": 59862.60875000002,
      "d": 329.66999999999825,
      "v": 84
    },
    {
      "midi": 54,
      "hit": false,
      "t": 59862.60875000002,
      "d": 549.4499999999971,
      "v": 106
    },
    {
      "midi": 63,
      "hit": false,
      "t": 60185.41062500002,
      "d": 329.66999999999825,
      "v": 127
    },
    {
      "midi": 37,
      "hit": false,
      "t": 60192.27875000002,
      "d": 467.03250000000116,
      "v": 106
    },
    {
      "midi": 38,
      "hit": false,
      "t": 60192.27875000002,
      "d": 494.50500000000466,
      "v": 84
    },
    {
      "midi": 36,
      "hit": false,
      "t": 60192.27875000002,
      "d": 659.3400000000111,
      "v": 97
    },
    {
      "midi": 65,
      "hit": false,
      "t": 60515.08062500002,
      "d": 6.868125000000873,
      "v": 127
    },
    {
      "midi": 63,
      "hit": false,
      "t": 60521.94875000002,
      "d": 164.8350000000064,
      "v": 104
    },
    {
      "midi": 54,
      "hit": false,
      "t": 60521.94875000002,
      "d": 549.4500000000116,
      "v": 106
    },
    {
      "midi": 37,
      "hit": false,
      "t": 60686.783750000024,
      "d": 137.3625000000029,
      "v": 106
    },
    {
      "midi": 38,
      "hit": false,
      "t": 60686.783750000024,
      "d": 164.8350000000064,
      "v": 84
    },
    {
      "midi": 63,
      "hit": false,
      "t": 60686.783750000024,
      "d": 494.50500000000466,
      "v": 95
    },
    {
      "midi": 68,
      "hit": false,
      "t": 60844.75062500003,
      "d": 329.66999999999825,
      "v": 127
    },
    {
      "midi": 38,
      "hit": false,
      "t": 60851.61875000003,
      "d": 164.83499999999913,
      "v": 84
    },
    {
      "midi": 25,
      "hit": false,
      "t": 60851.61875000003,
      "d": 549.4499999999971,
      "v": 106
    },
    {
      "midi": 37,
      "hit": false,
      "t": 60851.61875000003,
      "d": 659.3399999999965,
      "v": 106
    },
    {
      "midi": 36,
      "hit": false,
      "t": 60851.61875000003,
      "d": 659.3399999999965,
      "v": 97
    },
    {
      "midi": 38,
      "hit": false,
      "t": 61016.45375000003,
      "d": 164.83499999999913,
      "v": 84
    },
    {
      "midi": 70,
      "hit": false,
      "t": 61174.42062500003,
      "d": 329.66999999999825,
      "v": 127
    },
    {
      "midi": 38,
      "hit": false,
      "t": 61181.28875000003,
      "d": 164.83499999999913,
      "v": 84
    },
    {
      "midi": 63,
      "hit": false,
      "t": 61181.28875000003,
      "d": 329.66999999999825,
      "v": 95
    },
    {
      "midi": 54,
      "hit": false,
      "t": 61181.28875000003,
      "d": 549.4499999999971,
      "v": 106
    },
    {
      "midi": 38,
      "hit": false,
      "t": 61346.12375000003,
      "d": 164.83499999999913,
      "v": 84
    },
    {
      "midi": 51,
      "hit": false,
      "t": 61504.090625000026,
      "d": 329.66999999999825,
      "v": 127
    },
    {
      "midi": 39,
      "hit": false,
      "t": 61510.95875000003,
      "d": 480.76874999999563,
      "v": 106
    },
    {
      "midi": 38,
      "hit": false,
      "t": 61510.95875000003,
      "d": 494.5049999999974,
      "v": 84
    },
    {
      "midi": 36,
      "hit": false,
      "t": 61510.95875000003,
      "d": 659.3400000000038,
      "v": 113
    },
    {
      "midi": 55,
      "hit": false,
      "t": 61833.760625000024,
      "d": 329.67000000000553,
      "v": 127
    },
    {
      "midi": 54,
      "hit": false,
      "t": 61840.628750000025,
      "d": 549.4500000000044,
      "v": 106
    },
    {
      "midi": 39,
      "hit": false,
      "t": 62005.463750000024,
      "d": 137.3625000000029,
      "v": 106
    },
    {
      "midi": 38,
      "hit": false,
      "t": 62005.463750000024,
      "d": 164.8350000000064,
      "v": 84
    },
    {
      "midi": 58,
      "hit": false,
      "t": 62163.43062500003,
      "d": 329.66999999999825,
      "v": 127
    },
    {
      "midi": 38,
      "hit": false,
      "t": 62170.29875000003,
      "d": 164.83499999999913,
      "v": 84
    },
    {
      "midi": 39,
      "hit": false,
      "t": 62170.29875000003,
      "d": 618.1312499999985,
      "v": 106
    },
    {
      "midi": 36,
      "hit": false,
      "t": 62170.29875000003,
      "d": 659.3399999999965,
      "v": 97
    },
    {
      "midi": 38,
      "hit": false,
      "t": 62335.13375000003,
      "d": 164.83499999999913,
      "v": 84
    },
    {
      "midi": 63,
      "hit": false,
      "t": 62493.10062500003,
      "d": 329.66999999999825,
      "v": 127
    },
    {
      "midi": 38,
      "hit": false,
      "t": 62499.96875000003,
      "d": 329.66999999999825,
      "v": 84
    },
    {
      "midi": 54,
      "hit": false,
      "t": 62499.96875000003,
      "d": 549.4499999999971,
      "v": 106
    },
    {
      "midi": 65,
      "hit": false,
      "t": 62822.77062500003,
      "d": 329.66999999999825,
      "v": 127
    },
    {
      "midi": 63,
      "hit": false,
      "t": 62829.63875000003,
      "d": 329.66999999999825,
      "v": 110
    },
    {
      "midi": 75,
      "hit": false,
      "t": 62829.63875000003,
      "d": 329.66999999999825,
      "v": 110
    },
    {
      "midi": 87,
      "hit": false,
      "t": 62829.63875000003,
      "d": 329.66999999999825,
      "v": 127
    },
    {
      "midi": 39,
      "hit": false,
      "t": 62829.63875000003,
      "d": 467.03250000000116,
      "v": 106
    },
    {
      "midi": 38,
      "hit": false,
      "t": 62829.63875000003,
      "d": 494.50500000000466,
      "v": 84
    },
    {
      "midi": 36,
      "hit": false,
      "t": 62829.63875000003,
      "d": 659.3400000000111,
      "v": 113
    },
    {
      "midi": 67,
      "hit": false,
      "t": 63152.440625000025,
      "d": 329.6700000000128,
      "v": 127
    },
    {
      "midi": 54,
      "hit": false,
      "t": 63159.308750000026,
      "d": 549.4500000000116,
      "v": 106
    },
    {
      "midi": 39,
      "hit": false,
      "t": 63324.14375000003,
      "d": 137.3625000000029,
      "v": 106
    },
    {
      "midi": 40,
      "hit": false,
      "t": 63324.14375000003,
      "d": 164.8350000000064,
      "v": 101
    },
    {
      "midi": 38,
      "hit": false,
      "t": 63324.14375000003,
      "d": 164.8350000000064,
      "v": 84
    },
    {
      "midi": 63,
      "hit": false,
      "t": 63324.14375000003,
      "d": 329.67000000000553,
      "v": 110
    },
    {
      "midi": 75,
      "hit": false,
      "t": 63324.14375000003,
      "d": 329.67000000000553,
      "v": 110
    },
    {
      "midi": 87,
      "hit": false,
      "t": 63324.14375000003,
      "d": 329.67000000000553,
      "v": 127
    },
    {
      "midi": 68,
      "hit": false,
      "t": 63482.11062500004,
      "d": 329.66999999999825,
      "v": 127
    },
    {
      "midi": 38,
      "hit": false,
      "t": 63488.97875000004,
      "d": 164.83499999999913,
      "v": 84
    },
    {
      "midi": 25,
      "hit": false,
      "t": 63488.97875000004,
      "d": 549.4499999999971,
      "v": 106
    },
    {
      "midi": 39,
      "hit": false,
      "t": 63488.97875000004,
      "d": 659.3399999999965,
      "v": 106
    },
    {
      "midi": 36,
      "hit": false,
      "t": 63488.97875000004,
      "d": 659.3399999999965,
      "v": 97
    },
    {
      "midi": 40,
      "hit": false,
      "t": 63653.81375000004,
      "d": 164.83499999999913,
      "v": 101
    },
    {
      "midi": 38,
      "hit": false,
      "t": 63653.81375000004,
      "d": 164.83499999999913,
      "v": 84
    },
    {
      "midi": 70,
      "hit": false,
      "t": 63811.780625000036,
      "d": 329.66999999999825,
      "v": 127
    },
    {
      "midi": 40,
      "hit": false,
      "t": 63818.64875000004,
      "d": 164.83499999999913,
      "v": 101
    },
    {
      "midi": 38,
      "hit": false,
      "t": 63818.64875000004,
      "d": 164.83499999999913,
      "v": 84
    },
    {
      "midi": 54,
      "hit": false,
      "t": 63818.64875000004,
      "d": 549.4499999999971,
      "v": 106
    },
    {
      "midi": 38,
      "hit": false,
      "t": 63983.483750000036,
      "d": 164.83499999999913,
      "v": 84
    },
    {
      "midi": 44,
      "hit": false,
      "t": 64148.318750000035,
      "d": 329.66999999999825,
      "v": 104
    },
    {
      "midi": 38,
      "hit": false,
      "t": 64148.318750000035,
      "d": 494.5049999999974,
      "v": 84
    },
    {
      "midi": 36,
      "hit": false,
      "t": 64148.318750000035,
      "d": 659.3399999999965,
      "v": 113
    },
    {
      "midi": 72,
      "hit": false,
      "t": 64148.318750000035,
      "d": 865.3837499999936,
      "v": 104
    },
    {
      "midi": 54,
      "hit": false,
      "t": 64477.98875000003,
      "d": 549.4499999999971,
      "v": 106
    },
    {
      "midi": 75,
      "hit": false,
      "t": 64635.95562500003,
      "d": 109.88999999999942,
      "v": 95
    },
    {
      "midi": 38,
      "hit": false,
      "t": 64642.82375000003,
      "d": 164.83499999999913,
      "v": 84
    },
    {
      "midi": 44,
      "hit": false,
      "t": 64642.82375000003,
      "d": 329.66999999999825,
      "v": 104
    },
    {
      "midi": 38,
      "hit": false,
      "t": 64807.65875000003,
      "d": 164.83499999999913,
      "v": 84
    },
    {
      "midi": 36,
      "hit": false,
      "t": 64807.65875000003,
      "d": 659.3399999999965,
      "v": 97
    },
    {
      "midi": 75,
      "hit": false,
      "t": 64965.62562500003,
      "d": 109.88999999999942,
      "v": 95
    },
    {
      "midi": 38,
      "hit": false,
      "t": 64972.49375000003,
      "d": 164.83499999999913,
      "v": 84
    },
    {
      "midi": 87,
      "hit": false,
      "t": 65130.46062500003,
      "d": 109.88999999999942,
      "v": 95
    },
    {
      "midi": 44,
      "hit": false,
      "t": 65137.32875000003,
      "d": 219.77999999999884,
      "v": 104
    },
    {
      "midi": 38,
      "hit": false,
      "t": 65137.32875000003,
      "d": 329.66999999999825,
      "v": 84
    },
    {
      "midi": 54,
      "hit": false,
      "t": 65137.32875000003,
      "d": 549.4499999999971,
      "v": 106
    },
    {
      "midi": 70,
      "hit": false,
      "t": 65466.99875000003,
      "d": 219.77999999999884,
      "v": 104
    },
    {
      "midi": 43,
      "hit": false,
      "t": 65466.99875000003,
      "d": 329.66999999999825,
      "v": 113
    },
    {
      "midi": 38,
      "hit": false,
      "t": 65466.99875000003,
      "d": 494.5049999999901,
      "v": 84
    },
    {
      "midi": 36,
      "hit": false,
      "t": 65466.99875000003,
      "d": 659.3399999999965,
      "v": 97
    },
    {
      "midi": 68,
      "hit": false,
      "t": 65796.66875000003,
      "d": 109.88999999999942,
      "v": 104
    },
    {
      "midi": 54,
      "hit": false,
      "t": 65796.66875000003,
      "d": 549.4499999999971,
      "v": 106
    },
    {
      "midi": 75,
      "hit": false,
      "t": 65954.63562500002,
      "d": 109.88999999999942,
      "v": 95
    },
    {
      "midi": 38,
      "hit": false,
      "t": 65961.50375000002,
      "d": 164.8350000000064,
      "v": 84
    },
    {
      "midi": 43,
      "hit": false,
      "t": 65961.50375000002,
      "d": 329.66999999999825,
      "v": 94
    },
    {
      "midi": 67,
      "hit": false,
      "t": 65961.50375000002,
      "d": 604.3950000000041,
      "v": 104
    },
    {
      "midi": 38,
      "hit": false,
      "t": 66126.33875000002,
      "d": 164.83499999999185,
      "v": 84
    },
    {
      "midi": 25,
      "hit": false,
      "t": 66126.33875000002,
      "d": 549.4500000000116,
      "v": 106
    },
    {
      "midi": 36,
      "hit": false,
      "t": 66126.33875000002,
      "d": 659.3400000000111,
      "v": 97
    },
    {
      "midi": 75,
      "hit": false,
      "t": 66284.30562500002,
      "d": 109.88999999999942,
      "v": 95
    },
    {
      "midi": 38,
      "hit": false,
      "t": 66291.17375000002,
      "d": 164.8350000000064,
      "v": 84
    },
    {
      "midi": 87,
      "hit": false,
      "t": 66449.14062500003,
      "d": 109.88999999999942,
      "v": 95
    },
    {
      "midi": 38,
      "hit": false,
      "t": 66456.00875000002,
      "d": 164.8350000000064,
      "v": 84
    },
    {
      "midi": 43,
      "hit": false,
      "t": 66456.00875000002,
      "d": 219.7800000000134,
      "v": 94
    },
    {
      "midi": 54,
      "hit": false,
      "t": 66456.00875000002,
      "d": 549.4500000000116,
      "v": 106
    },
    {
      "midi": 38,
      "hit": false,
      "t": 66620.84375000003,
      "d": 164.8350000000064,
      "v": 84
    },
    {
      "midi": 41,
      "hit": false,
      "t": 66785.67875000004,
      "d": 329.66999999999825,
      "v": 104
    },
    {
      "midi": 38,
      "hit": false,
      "t": 66785.67875000004,
      "d": 494.5049999999901,
      "v": 84
    },
    {
      "midi": 36,
      "hit": false,
      "t": 66785.67875000004,
      "d": 659.3399999999965,
      "v": 94
    },
    {
      "midi": 68,
      "hit": false,
      "t": 67115.34875000003,
      "d": 329.66999999999825,
      "v": 104
    },
    {
      "midi": 54,
      "hit": false,
      "t": 67115.34875000003,
      "d": 549.4499999999971,
      "v": 106
    },
    {
      "midi": 75,
      "hit": false,
      "t": 67273.31562500003,
      "d": 109.88999999999942,
      "v": 95
    },
    {
      "midi": 38,
      "hit": false,
      "t": 67280.18375000003,
      "d": 164.8350000000064,
      "v": 84
    },
    {
      "midi": 41,
      "hit": false,
      "t": 67280.18375000003,
      "d": 329.66999999999825,
      "v": 104
    },
    {
      "midi": 38,
      "hit": false,
      "t": 67445.01875000003,
      "d": 164.83499999999185,
      "v": 84
    },
    {
      "midi": 70,
      "hit": false,
      "t": 67445.01875000003,
      "d": 329.66999999999825,
      "v": 100
    },
    {
      "midi": 36,
      "hit": false,
      "t": 67445.01875000003,
      "d": 659.3399999999965,
      "v": 101
    },
    {
      "midi": 75,
      "hit": false,
      "t": 67602.98562500003,
      "d": 109.88999999999942,
      "v": 95
    },
    {
      "midi": 38,
      "hit": false,
      "t": 67609.85375000002,
      "d": 164.8350000000064,
      "v": 84
    },
    {
      "midi": 87,
      "hit": false,
      "t": 67767.82062500004,
      "d": 109.88999999999942,
      "v": 95
    },
    {
      "midi": 41,
      "hit": false,
      "t": 67774.68875000003,
      "d": 219.77999999999884,
      "v": 104
    },
    {
      "midi": 68,
      "hit": false,
      "t": 67774.68875000003,
      "d": 329.66999999999825,
      "v": 104
    },
    {
      "midi": 38,
      "hit": false,
      "t": 67774.68875000003,
      "d": 329.66999999999825,
      "v": 84
    },
    {
      "midi": 54,
      "hit": false,
      "t": 67774.68875000003,
      "d": 549.4499999999971,
      "v": 106
    },
    {
      "midi": 39,
      "hit": false,
      "t": 68104.35875000003,
      "d": 329.66999999999825,
      "v": 113
    },
    {
      "midi": 67,
      "hit": false,
      "t": 68104.35875000003,
      "d": 329.66999999999825,
      "v": 104
    },
    {
      "midi": 38,
      "hit": false,
      "t": 68104.35875000003,
      "d": 494.5049999999901,
      "v": 84
    },
    {
      "midi": 36,
      "hit": false,
      "t": 68104.35875000003,
      "d": 659.3399999999965,
      "v": 104
    },
    {
      "midi": 68,
      "hit": false,
      "t": 68434.02875000003,
      "d": 164.83499999999185,
      "v": 104
    },
    {
      "midi": 54,
      "hit": false,
      "t": 68434.02875000003,
      "d": 549.4499999999971,
      "v": 106
    },
    {
      "midi": 75,
      "hit": false,
      "t": 68591.99562500003,
      "d": 109.88999999999942,
      "v": 95
    },
    {
      "midi": 39,
      "hit": false,
      "t": 68598.86375000002,
      "d": 164.8350000000064,
      "v": 94
    },
    {
      "midi": 38,
      "hit": false,
      "t": 68598.86375000002,
      "d": 164.8350000000064,
      "v": 84
    },
    {
      "midi": 70,
      "hit": false,
      "t": 68598.86375000002,
      "d": 1153.8450000000303,
      "v": 100
    },
    {
      "midi": 39,
      "hit": false,
      "t": 68763.69875000003,
      "d": 164.83499999999185,
      "v": 104
    },
    {
      "midi": 38,
      "hit": false,
      "t": 68763.69875000003,
      "d": 164.83499999999185,
      "v": 84
    },
    {
      "midi": 25,
      "hit": false,
      "t": 68763.69875000003,
      "d": 549.4500000000116,
      "v": 106
    },
    {
      "midi": 36,
      "hit": false,
      "t": 68763.69875000003,
      "d": 659.3400000000256,
      "v": 108
    },
    {
      "midi": 75,
      "hit": false,
      "t": 68921.66562500002,
      "d": 109.88999999999942,
      "v": 95
    },
    {
      "midi": 38,
      "hit": false,
      "t": 68928.53375000002,
      "d": 164.8350000000064,
      "v": 84
    },
    {
      "midi": 87,
      "hit": false,
      "t": 69086.50062500003,
      "d": 109.88999999999942,
      "v": 95
    },
    {
      "midi": 39,
      "hit": false,
      "t": 69093.36875000002,
      "d": 109.88999999999942,
      "v": 95
    },
    {
      "midi": 38,
      "hit": false,
      "t": 69093.36875000002,
      "d": 164.8350000000064,
      "v": 84
    },
    {
      "midi": 54,
      "hit": false,
      "t": 69093.36875000002,
      "d": 549.4500000000262,
      "v": 106
    },
    {
      "midi": 41,
      "hit": false,
      "t": 69258.20375000003,
      "d": 109.89000000001397,
      "v": 97
    },
    {
      "midi": 38,
      "hit": false,
      "t": 69258.20375000003,
      "d": 164.83500000002095,
      "v": 84
    },
    {
      "midi": 44,
      "hit": false,
      "t": 69423.03875000005,
      "d": 329.66999999999825,
      "v": 104
    },
    {
      "midi": 38,
      "hit": false,
      "t": 69423.03875000005,
      "d": 494.5049999999901,
      "v": 84
    },
    {
      "midi": 36,
      "hit": false,
      "t": 69423.03875000005,
      "d": 659.3399999999965,
      "v": 113
    },
    {
      "midi": 68,
      "hit": false,
      "t": 69752.70875000005,
      "d": 329.66999999999825,
      "v": 104
    },
    {
      "midi": 54,
      "hit": false,
      "t": 69752.70875000005,
      "d": 549.4499999999971,
      "v": 106
    },
    {
      "midi": 75,
      "hit": false,
      "t": 69910.67562500005,
      "d": 109.88999999999942,
      "v": 95
    },
    {
      "midi": 38,
      "hit": false,
      "t": 69917.54375000004,
      "d": 164.8350000000064,
      "v": 84
    },
    {
      "midi": 44,
      "hit": false,
      "t": 69917.54375000004,
      "d": 329.66999999999825,
      "v": 104
    },
    {
      "midi": 38,
      "hit": false,
      "t": 70082.37875000005,
      "d": 164.83499999999185,
      "v": 84
    },
    {
      "midi": 68,
      "hit": false,
      "t": 70082.37875000005,
      "d": 329.66999999999825,
      "v": 104
    },
    {
      "midi": 36,
      "hit": false,
      "t": 70082.37875000005,
      "d": 659.3399999999965,
      "v": 97
    },
    {
      "midi": 75,
      "hit": false,
      "t": 70240.34562500005,
      "d": 109.88999999999942,
      "v": 95
    },
    {
      "midi": 38,
      "hit": false,
      "t": 70247.21375000004,
      "d": 164.8350000000064,
      "v": 84
    },
    {
      "midi": 87,
      "hit": false,
      "t": 70405.18062500005,
      "d": 109.88999999999942,
      "v": 95
    },
    {
      "midi": 44,
      "hit": false,
      "t": 70412.04875000005,
      "d": 219.77999999999884,
      "v": 104
    },
    {
      "midi": 68,
      "hit": false,
      "t": 70412.04875000005,
      "d": 329.66999999999825,
      "v": 104
    },
    {
      "midi": 38,
      "hit": false,
      "t": 70412.04875000005,
      "d": 329.66999999999825,
      "v": 84
    },
    {
      "midi": 54,
      "hit": false,
      "t": 70412.04875000005,
      "d": 549.4499999999971,
      "v": 106
    },
    {
      "midi": 43,
      "hit": false,
      "t": 70741.71875000004,
      "d": 329.66999999999825,
      "v": 113
    },
    {
      "midi": 67,
      "hit": false,
      "t": 70741.71875000004,
      "d": 329.66999999999825,
      "v": 104
    },
    {
      "midi": 38,
      "hit": false,
      "t": 70741.71875000004,
      "d": 494.5049999999901,
      "v": 84
    },
    {
      "midi": 36,
      "hit": false,
      "t": 70741.71875000004,
      "d": 659.3399999999965,
      "v": 97
    },
    {
      "midi": 67,
      "hit": false,
      "t": 71071.38875000004,
      "d": 164.83499999999185,
      "v": 104
    },
    {
      "midi": 54,
      "hit": false,
      "t": 71071.38875000004,
      "d": 549.4499999999971,
      "v": 106
    },
    {
      "midi": 75,
      "hit": false,
      "t": 71229.35562500004,
      "d": 109.88999999999942,
      "v": 95
    },
    {
      "midi": 67,
      "hit": false,
      "t": 71236.22375000003,
      "d": 164.8350000000064,
      "v": 108
    },
    {
      "midi": 38,
      "hit": false,
      "t": 71236.22375000003,
      "d": 164.8350000000064,
      "v": 84
    },
    {
      "midi": 43,
      "hit": false,
      "t": 71236.22375000003,
      "d": 329.66999999999825,
      "v": 94
    },
    {
      "midi": 38,
      "hit": false,
      "t": 71401.05875000004,
      "d": 164.83499999999185,
      "v": 84
    },
    {
      "midi": 25,
      "hit": false,
      "t": 71401.05875000004,
      "d": 549.4500000000116,
      "v": 106
    },
    {
      "midi": 36,
      "hit": false,
      "t": 71401.05875000004,
      "d": 659.3400000000111,
      "v": 97
    },
    {
      "midi": 75,
      "hit": false,
      "t": 71559.02562500004,
      "d": 109.88999999999942,
      "v": 95
    },
    {
      "midi": 65,
      "hit": false,
      "t": 71565.89375000003,
      "d": 164.8350000000064,
      "v": 88
    },
    {
      "midi": 38,
      "hit": false,
      "t": 71565.89375000003,
      "d": 164.8350000000064,
      "v": 84
    },
    {
      "midi": 87,
      "hit": false,
      "t": 71723.86062500004,
      "d": 109.88999999999942,
      "v": 95
    },
    {
      "midi": 63,
      "hit": false,
      "t": 71730.72875000004,
      "d": 164.8350000000064,
      "v": 87
    },
    {
      "midi": 38,
      "hit": false,
      "t": 71730.72875000004,
      "d": 164.8350000000064,
      "v": 84
    },
    {
      "midi": 43,
      "hit": false,
      "t": 71730.72875000004,
      "d": 219.7800000000134,
      "v": 94
    },
    {
      "midi": 54,
      "hit": false,
      "t": 71730.72875000004,
      "d": 549.4500000000116,
      "v": 106
    },
    {
      "midi": 38,
      "hit": false,
      "t": 71895.56375000004,
      "d": 164.8350000000064,
      "v": 84
    },
    {
      "midi": 41,
      "hit": false,
      "t": 72060.39875000005,
      "d": 329.66999999999825,
      "v": 104
    },
    {
      "midi": 65,
      "hit": false,
      "t": 72060.39875000005,
      "d": 329.66999999999825,
      "v": 91
    },
    {
      "midi": 38,
      "hit": false,
      "t": 72060.39875000005,
      "d": 494.5049999999901,
      "v": 84
    },
    {
      "midi": 36,
      "hit": false,
      "t": 72060.39875000005,
      "d": 659.3399999999965,
      "v": 94
    },
    {
      "midi": 65,
      "hit": false,
      "t": 72390.06875000005,
      "d": 164.83499999999185,
      "v": 91
    },
    {
      "midi": 54,
      "hit": false,
      "t": 72390.06875000005,
      "d": 549.4499999999971,
      "v": 106
    },
    {
      "midi": 75,
      "hit": false,
      "t": 72548.03562500005,
      "d": 109.88999999999942,
      "v": 95
    },
    {
      "midi": 65,
      "hit": false,
      "t": 72554.90375000004,
      "d": 164.8350000000064,
      "v": 104
    },
    {
      "midi": 38,
      "hit": false,
      "t": 72554.90375000004,
      "d": 164.8350000000064,
      "v": 84
    },
    {
      "midi": 41,
      "hit": false,
      "t": 72554.90375000004,
      "d": 329.66999999999825,
      "v": 104
    },
    {
      "midi": 38,
      "hit": false,
      "t": 72719.73875000005,
      "d": 164.83499999999185,
      "v": 84
    },
    {
      "midi": 36,
      "hit": false,
      "t": 72719.73875000005,
      "d": 659.3400000000111,
      "v": 101
    },
    {
      "midi": 75,
      "hit": false,
      "t": 72877.70562500005,
      "d": 109.88999999999942,
      "v": 95
    },
    {
      "midi": 63,
      "hit": false,
      "t": 72884.57375000004,
      "d": 164.8350000000064,
      "v": 104
    },
    {
      "midi": 38,
      "hit": false,
      "t": 72884.57375000004,
      "d": 164.8350000000064,
      "v": 84
    },
    {
      "midi": 87,
      "hit": false,
      "t": 73042.54062500005,
      "d": 109.88999999999942,
      "v": 95
    },
    {
      "midi": 62,
      "hit": false,
      "t": 73049.40875000005,
      "d": 164.8350000000064,
      "v": 104
    },
    {
      "midi": 41,
      "hit": false,
      "t": 73049.40875000005,
      "d": 219.7800000000134,
      "v": 104
    },
    {
      "midi": 38,
      "hit": false,
      "t": 73049.40875000005,
      "d": 329.6700000000128,
      "v": 84
    },
    {
      "midi": 54,
      "hit": false,
      "t": 73049.40875000005,
      "d": 549.4500000000116,
      "v": 106
    },
    {
      "midi": 39,
      "hit": false,
      "t": 73379.07875000006,
      "d": 329.66999999999825,
      "v": 113
    },
    {
      "midi": 63,
      "hit": false,
      "t": 73379.07875000006,
      "d": 329.66999999999825,
      "v": 104
    },
    {
      "midi": 38,
      "hit": false,
      "t": 73379.07875000006,
      "d": 494.5049999999901,
      "v": 84
    },
    {
      "midi": 36,
      "hit": false,
      "t": 73379.07875000006,
      "d": 659.3399999999965,
      "v": 104
    },
    {
      "midi": 54,
      "hit": false,
      "t": 73708.74875000006,
      "d": 549.4499999999971,
      "v": 106
    },
    {
      "midi": 75,
      "hit": false,
      "t": 73866.71562500006,
      "d": 109.88999999999942,
      "v": 95
    },
    {
      "midi": 39,
      "hit": false,
      "t": 73873.58375000005,
      "d": 164.8350000000064,
      "v": 94
    },
    {
      "midi": 63,
      "hit": false,
      "t": 73873.58375000005,
      "d": 164.8350000000064,
      "v": 91
    },
    {
      "midi": 38,
      "hit": false,
      "t": 73873.58375000005,
      "d": 164.8350000000064,
      "v": 84
    },
    {
      "midi": 39,
      "hit": false,
      "t": 74038.41875000006,
      "d": 164.83499999999185,
      "v": 104
    },
    {
      "midi": 38,
      "hit": false,
      "t": 74038.41875000006,
      "d": 164.83499999999185,
      "v": 84
    },
    {
      "midi": 65,
      "hit": false,
      "t": 74038.41875000006,
      "d": 329.66999999999825,
      "v": 101
    },
    {
      "midi": 25,
      "hit": false,
      "t": 74038.41875000006,
      "d": 549.4500000000116,
      "v": 106
    },
    {
      "midi": 36,
      "hit": false,
      "t": 74038.41875000006,
      "d": 659.3400000000256,
      "v": 108
    },
    {
      "midi": 75,
      "hit": false,
      "t": 74196.38562500005,
      "d": 109.88999999999942,
      "v": 95
    },
    {
      "midi": 38,
      "hit": false,
      "t": 74203.25375000005,
      "d": 164.8350000000064,
      "v": 84
    },
    {
      "midi": 87,
      "hit": false,
      "t": 74361.22062500006,
      "d": 109.88999999999942,
      "v": 95
    },
    {
      "midi": 39,
      "hit": false,
      "t": 74368.08875000005,
      "d": 109.88999999999942,
      "v": 95
    },
    {
      "midi": 38,
      "hit": false,
      "t": 74368.08875000005,
      "d": 164.8350000000064,
      "v": 84
    },
    {
      "midi": 67,
      "hit": false,
      "t": 74368.08875000005,
      "d": 329.67000000002736,
      "v": 101
    },
    {
      "midi": 54,
      "hit": false,
      "t": 74368.08875000005,
      "d": 549.4500000000262,
      "v": 106
    },
    {
      "midi": 41,
      "hit": false,
      "t": 74532.92375000006,
      "d": 109.89000000001397,
      "v": 97
    },
    {
      "midi": 38,
      "hit": false,
      "t": 74532.92375000006,
      "d": 164.83500000002095,
      "v": 84
    },
    {
      "midi": 44,
      "hit": false,
      "t": 74697.75875000008,
      "d": 329.66999999999825,
      "v": 104
    },
    {
      "midi": 38,
      "hit": false,
      "t": 74697.75875000008,
      "d": 494.5049999999901,
      "v": 84
    },
    {
      "midi": 36,
      "hit": false,
      "t": 74697.75875000008,
      "d": 659.3399999999965,
      "v": 113
    },
    {
      "midi": 68,
      "hit": false,
      "t": 75027.42875000008,
      "d": 329.66999999999825,
      "v": 104
    },
    {
      "midi": 54,
      "hit": false,
      "t": 75027.42875000008,
      "d": 549.4499999999971,
      "v": 106
    },
    {
      "midi": 75,
      "hit": false,
      "t": 75185.39562500008,
      "d": 109.88999999999942,
      "v": 95
    },
    {
      "midi": 38,
      "hit": false,
      "t": 75192.26375000007,
      "d": 164.8350000000064,
      "v": 84
    },
    {
      "midi": 44,
      "hit": false,
      "t": 75192.26375000007,
      "d": 329.66999999999825,
      "v": 104
    },
    {
      "midi": 38,
      "hit": false,
      "t": 75357.09875000008,
      "d": 164.83499999999185,
      "v": 84
    },
    {
      "midi": 68,
      "hit": false,
      "t": 75357.09875000008,
      "d": 329.66999999999825,
      "v": 104
    },
    {
      "midi": 36,
      "hit": false,
      "t": 75357.09875000008,
      "d": 659.3399999999965,
      "v": 97
    },
    {
      "midi": 75,
      "hit": false,
      "t": 75515.06562500008,
      "d": 109.88999999999942,
      "v": 95
    },
    {
      "midi": 38,
      "hit": false,
      "t": 75521.93375000007,
      "d": 164.8350000000064,
      "v": 84
    },
    {
      "midi": 87,
      "hit": false,
      "t": 75679.90062500008,
      "d": 109.88999999999942,
      "v": 95
    },
    {
      "midi": 44,
      "hit": false,
      "t": 75686.76875000008,
      "d": 219.77999999999884,
      "v": 104
    },
    {
      "midi": 68,
      "hit": false,
      "t": 75686.76875000008,
      "d": 329.66999999999825,
      "v": 104
    },
    {
      "midi": 38,
      "hit": false,
      "t": 75686.76875000008,
      "d": 329.66999999999825,
      "v": 84
    },
    {
      "midi": 54,
      "hit": false,
      "t": 75686.76875000008,
      "d": 549.4499999999971,
      "v": 106
    },
    {
      "midi": 43,
      "hit": false,
      "t": 76016.43875000007,
      "d": 329.66999999999825,
      "v": 113
    },
    {
      "midi": 67,
      "hit": false,
      "t": 76016.43875000007,
      "d": 329.66999999999825,
      "v": 104
    },
    {
      "midi": 38,
      "hit": false,
      "t": 76016.43875000007,
      "d": 494.5049999999901,
      "v": 84
    },
    {
      "midi": 36,
      "hit": false,
      "t": 76016.43875000007,
      "d": 659.3399999999965,
      "v": 97
    },
    {
      "midi": 67,
      "hit": false,
      "t": 76346.10875000007,
      "d": 164.83499999999185,
      "v": 104
    },
    {
      "midi": 54,
      "hit": false,
      "t": 76346.10875000007,
      "d": 549.4499999999971,
      "v": 106
    },
    {
      "midi": 75,
      "hit": false,
      "t": 76504.07562500007,
      "d": 109.88999999999942,
      "v": 95
    },
    {
      "midi": 67,
      "hit": false,
      "t": 76510.94375000006,
      "d": 164.8350000000064,
      "v": 108
    },
    {
      "midi": 38,
      "hit": false,
      "t": 76510.94375000006,
      "d": 164.8350000000064,
      "v": 84
    },
    {
      "midi": 43,
      "hit": false,
      "t": 76510.94375000006,
      "d": 329.66999999999825,
      "v": 94
    },
    {
      "midi": 38,
      "hit": false,
      "t": 76675.77875000007,
      "d": 164.83499999999185,
      "v": 84
    },
    {
      "midi": 25,
      "hit": false,
      "t": 76675.77875000007,
      "d": 549.4500000000116,
      "v": 106
    },
    {
      "midi": 36,
      "hit": false,
      "t": 76675.77875000007,
      "d": 659.3400000000111,
      "v": 97
    },
    {
      "midi": 75,
      "hit": false,
      "t": 76833.74562500007,
      "d": 109.88999999999942,
      "v": 95
    },
    {
      "midi": 65,
      "hit": false,
      "t": 76840.61375000006,
      "d": 164.8350000000064,
      "v": 88
    },
    {
      "midi": 38,
      "hit": false,
      "t": 76840.61375000006,
      "d": 164.8350000000064,
      "v": 84
    },
    {
      "midi": 87,
      "hit": false,
      "t": 76998.58062500008,
      "d": 109.88999999999942,
      "v": 95
    },
    {
      "midi": 63,
      "hit": false,
      "t": 77005.44875000007,
      "d": 164.8350000000064,
      "v": 87
    },
    {
      "midi": 38,
      "hit": false,
      "t": 77005.44875000007,
      "d": 164.8350000000064,
      "v": 84
    },
    {
      "midi": 43,
      "hit": false,
      "t": 77005.44875000007,
      "d": 219.7800000000134,
      "v": 94
    },
    {
      "midi": 54,
      "hit": false,
      "t": 77005.44875000007,
      "d": 549.4500000000116,
      "v": 106
    },
    {
      "midi": 38,
      "hit": false,
      "t": 77170.28375000008,
      "d": 164.8350000000064,
      "v": 84
    },
    {
      "midi": 41,
      "hit": false,
      "t": 77335.11875000008,
      "d": 329.66999999999825,
      "v": 104
    },
    {
      "midi": 65,
      "hit": false,
      "t": 77335.11875000008,
      "d": 329.66999999999825,
      "v": 91
    },
    {
      "midi": 38,
      "hit": false,
      "t": 77335.11875000008,
      "d": 494.5049999999901,
      "v": 84
    },
    {
      "midi": 36,
      "hit": false,
      "t": 77335.11875000008,
      "d": 659.3399999999965,
      "v": 113
    },
    {
      "midi": 65,
      "hit": false,
      "t": 77664.78875000008,
      "d": 164.83499999999185,
      "v": 91
    },
    {
      "midi": 54,
      "hit": false,
      "t": 77664.78875000008,
      "d": 549.4499999999971,
      "v": 106
    },
    {
      "midi": 75,
      "hit": false,
      "t": 77822.75562500008,
      "d": 109.88999999999942,
      "v": 95
    },
    {
      "midi": 65,
      "hit": false,
      "t": 77829.62375000007,
      "d": 164.8350000000064,
      "v": 104
    },
    {
      "midi": 38,
      "hit": false,
      "t": 77829.62375000007,
      "d": 164.8350000000064,
      "v": 84
    },
    {
      "midi": 41,
      "hit": false,
      "t": 77829.62375000007,
      "d": 329.66999999999825,
      "v": 104
    },
    {
      "midi": 38,
      "hit": false,
      "t": 77994.45875000008,
      "d": 164.83499999999185,
      "v": 84
    },
    {
      "midi": 36,
      "hit": false,
      "t": 77994.45875000008,
      "d": 659.3400000000111,
      "v": 97
    },
    {
      "midi": 75,
      "hit": false,
      "t": 78152.42562500008,
      "d": 109.88999999999942,
      "v": 95
    },
    {
      "midi": 63,
      "hit": false,
      "t": 78159.29375000007,
      "d": 164.8350000000064,
      "v": 104
    },
    {
      "midi": 38,
      "hit": false,
      "t": 78159.29375000007,
      "d": 164.8350000000064,
      "v": 84
    },
    {
      "midi": 87,
      "hit": false,
      "t": 78317.26062500008,
      "d": 109.88999999999942,
      "v": 95
    },
    {
      "midi": 62,
      "hit": false,
      "t": 78324.12875000008,
      "d": 164.8350000000064,
      "v": 104
    },
    {
      "midi": 41,
      "hit": false,
      "t": 78324.12875000008,
      "d": 219.7800000000134,
      "v": 104
    },
    {
      "midi": 38,
      "hit": false,
      "t": 78324.12875000008,
      "d": 329.6700000000128,
      "v": 84
    },
    {
      "midi": 54,
      "hit": false,
      "t": 78324.12875000008,
      "d": 549.4500000000116,
      "v": 106
    },
    {
      "midi": 39,
      "hit": false,
      "t": 78653.79875000009,
      "d": 329.66999999999825,
      "v": 113
    },
    {
      "midi": 38,
      "hit": false,
      "t": 78653.79875000009,
      "d": 494.50500000000466,
      "v": 84
    },
    {
      "midi": 36,
      "hit": false,
      "t": 78653.79875000009,
      "d": 659.3400000000111,
      "v": 113
    },
    {
      "midi": 63,
      "hit": false,
      "t": 78653.79875000009,
      "d": 1318.6800000000367,
      "v": 104
    },
    {
      "midi": 54,
      "hit": false,
      "t": 78983.46875000009,
      "d": 549.4500000000262,
      "v": 106
    },
    {
      "midi": 39,
      "hit": false,
      "t": 79148.3037500001,
      "d": 164.8350000000064,
      "v": 94
    },
    {
      "midi": 40,
      "hit": false,
      "t": 79148.3037500001,
      "d": 164.8350000000064,
      "v": 101
    },
    {
      "midi": 38,
      "hit": false,
      "t": 79148.3037500001,
      "d": 164.8350000000064,
      "v": 84
    },
    {
      "midi": 39,
      "hit": false,
      "t": 79313.1387500001,
      "d": 164.8350000000064,
      "v": 104
    },
    {
      "midi": 38,
      "hit": false,
      "t": 79313.1387500001,
      "d": 164.8350000000064,
      "v": 84
    },
    {
      "midi": 25,
      "hit": false,
      "t": 79313.1387500001,
      "d": 549.4500000000262,
      "v": 106
    },
    {
      "midi": 36,
      "hit": false,
      "t": 79313.1387500001,
      "d": 659.3400000000256,
      "v": 97
    },
    {
      "midi": 40,
      "hit": false,
      "t": 79477.9737500001,
      "d": 164.8350000000064,
      "v": 101
    },
    {
      "midi": 38,
      "hit": false,
      "t": 79477.9737500001,
      "d": 164.8350000000064,
      "v": 84
    },
    {
      "midi": 39,
      "hit": false,
      "t": 79642.80875000011,
      "d": 109.88999999999942,
      "v": 95
    },
    {
      "midi": 40,
      "hit": false,
      "t": 79642.80875000011,
      "d": 164.8350000000064,
      "v": 101
    },
    {
      "midi": 38,
      "hit": false,
      "t": 79642.80875000011,
      "d": 164.8350000000064,
      "v": 84
    },
    {
      "midi": 54,
      "hit": false,
      "t": 79642.80875000011,
      "d": 549.4500000000116,
      "v": 106
    },
    {
      "midi": 39,
      "hit": false,
      "t": 79807.64375000012,
      "d": 109.89000000001397,
      "v": 97
    },
    {
      "midi": 38,
      "hit": false,
      "t": 79807.64375000012,
      "d": 164.8350000000064,
      "v": 84
    },
    {
      "midi": 51,
      "hit": false,
      "t": 79965.61062500013,
      "d": 329.66999999999825,
      "v": 104
    },
    {
      "midi": 58,
      "hit": false,
      "t": 79972.47875000013,
      "d": 329.66999999999825,
      "v": 104
    },
    {
      "midi": 39,
      "hit": false,
      "t": 79972.47875000013,
      "d": 480.7687500000029,
      "v": 106
    },
    {
      "midi": 38,
      "hit": false,
      "t": 79972.47875000013,
      "d": 494.50500000000466,
      "v": 84
    },
    {
      "midi": 36,
      "hit": false,
      "t": 79972.47875000013,
      "d": 659.3399999999965,
      "v": 113
    },
    {
      "midi": 55,
      "hit": false,
      "t": 80295.28062500013,
      "d": 329.66999999999825,
      "v": 97
    },
    {
      "midi": 67,
      "hit": false,
      "t": 80302.14875000012,
      "d": 164.8350000000064,
      "v": 104
    },
    {
      "midi": 54,
      "hit": false,
      "t": 80302.14875000012,
      "d": 549.4500000000116,
      "v": 106
    },
    {
      "midi": 39,
      "hit": false,
      "t": 80466.98375000013,
      "d": 137.3625000000029,
      "v": 106
    },
    {
      "midi": 38,
      "hit": false,
      "t": 80466.98375000013,
      "d": 164.83499999999185,
      "v": 84
    },
    {
      "midi": 58,
      "hit": false,
      "t": 80624.95062500013,
      "d": 329.6700000000128,
      "v": 104
    },
    {
      "midi": 38,
      "hit": false,
      "t": 80631.81875000012,
      "d": 164.8350000000064,
      "v": 84
    },
    {
      "midi": 39,
      "hit": false,
      "t": 80631.81875000012,
      "d": 618.1312500000058,
      "v": 106
    },
    {
      "midi": 36,
      "hit": false,
      "t": 80631.81875000012,
      "d": 659.3399999999965,
      "v": 97
    },
    {
      "midi": 38,
      "hit": false,
      "t": 80796.65375000013,
      "d": 164.8350000000064,
      "v": 84
    },
    {
      "midi": 63,
      "hit": false,
      "t": 80954.62062500014,
      "d": 329.6699999999837,
      "v": 110
    },
    {
      "midi": 38,
      "hit": false,
      "t": 80961.48875000014,
      "d": 329.6699999999837,
      "v": 84
    },
    {
      "midi": 54,
      "hit": false,
      "t": 80961.48875000014,
      "d": 549.4499999999825,
      "v": 106
    },
    {
      "midi": 65,
      "hit": false,
      "t": 81284.29062500013,
      "d": 329.66999999999825,
      "v": 86
    },
    {
      "midi": 58,
      "hit": false,
      "t": 81291.15875000012,
      "d": 329.66999999999825,
      "v": 104
    },
    {
      "midi": 39,
      "hit": false,
      "t": 81291.15875000012,
      "d": 467.03250000000116,
      "v": 106
    },
    {
      "midi": 38,
      "hit": false,
      "t": 81291.15875000012,
      "d": 494.50500000000466,
      "v": 84
    },
    {
      "midi": 36,
      "hit": false,
      "t": 81291.15875000012,
      "d": 659.3399999999965,
      "v": 97
    },
    {
      "midi": 67,
      "hit": false,
      "t": 81620.82875000012,
      "d": 164.8350000000064,
      "v": 104
    },
    {
      "midi": 54,
      "hit": false,
      "t": 81620.82875000012,
      "d": 549.4500000000116,
      "v": 106
    },
    {
      "midi": 39,
      "hit": false,
      "t": 81785.66375000012,
      "d": 137.3625000000029,
      "v": 106
    },
    {
      "midi": 38,
      "hit": false,
      "t": 81785.66375000012,
      "d": 164.83499999999185,
      "v": 84
    },
    {
      "midi": 68,
      "hit": false,
      "t": 81943.63062500012,
      "d": 329.6700000000128,
      "v": 86
    },
    {
      "midi": 38,
      "hit": false,
      "t": 81950.49875000012,
      "d": 164.8350000000064,
      "v": 84
    },
    {
      "midi": 25,
      "hit": false,
      "t": 81950.49875000012,
      "d": 549.4500000000262,
      "v": 106
    },
    {
      "midi": 39,
      "hit": false,
      "t": 81950.49875000012,
      "d": 659.3400000000256,
      "v": 106
    },
    {
      "midi": 63,
      "hit": false,
      "t": 81950.49875000012,
      "d": 659.3400000000256,
      "v": 100
    },
    {
      "midi": 36,
      "hit": false,
      "t": 81950.49875000012,
      "d": 659.3400000000256,
      "v": 97
    },
    {
      "midi": 38,
      "hit": false,
      "t": 82115.33375000012,
      "d": 164.8350000000064,
      "v": 84
    },
    {
      "midi": 70,
      "hit": false,
      "t": 82273.30062500013,
      "d": 329.6700000000128,
      "v": 110
    },
    {
      "midi": 38,
      "hit": false,
      "t": 82280.16875000013,
      "d": 164.8350000000064,
      "v": 84
    },
    {
      "midi": 54,
      "hit": false,
      "t": 82280.16875000013,
      "d": 549.4500000000116,
      "v": 106
    },
    {
      "midi": 38,
      "hit": false,
      "t": 82445.00375000013,
      "d": 164.8350000000064,
      "v": 84
    },
    {
      "midi": 53,
      "hit": false,
      "t": 82602.97062500015,
      "d": 219.77999999999884,
      "v": 108
    },
    {
      "midi": 60,
      "hit": false,
      "t": 82609.83875000014,
      "d": 329.66999999999825,
      "v": 122
    },
    {
      "midi": 41,
      "hit": false,
      "t": 82609.83875000014,
      "d": 480.7687500000029,
      "v": 106
    },
    {
      "midi": 38,
      "hit": false,
      "t": 82609.83875000014,
      "d": 494.50500000000466,
      "v": 84
    },
    {
      "midi": 36,
      "hit": false,
      "t": 82609.83875000014,
      "d": 659.3399999999965,
      "v": 94
    },
    {
      "midi": 56,
      "hit": false,
      "t": 82932.64062500015,
      "d": 219.77999999999884,
      "v": 104
    },
    {
      "midi": 68,
      "hit": false,
      "t": 82939.50875000014,
      "d": 164.8350000000064,
      "v": 104
    },
    {
      "midi": 54,
      "hit": false,
      "t": 82939.50875000014,
      "d": 549.4499999999971,
      "v": 106
    },
    {
      "midi": 41,
      "hit": false,
      "t": 83104.34375000015,
      "d": 137.3625000000029,
      "v": 106
    },
    {
      "midi": 38,
      "hit": false,
      "t": 83104.34375000015,
      "d": 164.83499999999185,
      "v": 84
    },
    {
      "midi": 60,
      "hit": false,
      "t": 83262.31062500014,
      "d": 219.77999999999884,
      "v": 81
    },
    {
      "midi": 38,
      "hit": false,
      "t": 83269.17875000014,
      "d": 164.8350000000064,
      "v": 84
    },
    {
      "midi": 41,
      "hit": false,
      "t": 83269.17875000014,
      "d": 618.1312500000058,
      "v": 106
    },
    {
      "midi": 36,
      "hit": false,
      "t": 83269.17875000014,
      "d": 659.3399999999965,
      "v": 101
    },
    {
      "midi": 38,
      "hit": false,
      "t": 83434.01375000014,
      "d": 164.83499999999185,
      "v": 84
    },
    {
      "midi": 63,
      "hit": false,
      "t": 83591.98062500014,
      "d": 219.77999999999884,
      "v": 104
    },
    {
      "midi": 38,
      "hit": false,
      "t": 83598.84875000014,
      "d": 329.66999999999825,
      "v": 84
    },
    {
      "midi": 54,
      "hit": false,
      "t": 83598.84875000014,
      "d": 549.4499999999971,
      "v": 106
    },
    {
      "midi": 65,
      "hit": false,
      "t": 83921.65062500014,
      "d": 6.868124999993597,
      "v": 97
    },
    {
      "midi": 70,
      "hit": false,
      "t": 83928.51875000013,
      "d": 329.66999999999825,
      "v": 100
    },
    {
      "midi": 41,
      "hit": false,
      "t": 83928.51875000013,
      "d": 467.03250000000116,
      "v": 106
    },
    {
      "midi": 38,
      "hit": false,
      "t": 83928.51875000013,
      "d": 494.50500000000466,
      "v": 84
    },
    {
      "midi": 36,
      "hit": false,
      "t": 83928.51875000013,
      "d": 659.3399999999965,
      "v": 104
    },
    {
      "midi": 68,
      "hit": false,
      "t": 84258.18875000013,
      "d": 164.8350000000064,
      "v": 83
    },
    {
      "midi": 54,
      "hit": false,
      "t": 84258.18875000013,
      "d": 549.4500000000116,
      "v": 106
    },
    {
      "midi": 41,
      "hit": false,
      "t": 84423.02375000014,
      "d": 137.3625000000029,
      "v": 106
    },
    {
      "midi": 67,
      "hit": false,
      "t": 84423.02375000014,
      "d": 157.96687499999825,
      "v": 77
    },
    {
      "midi": 38,
      "hit": false,
      "t": 84423.02375000014,
      "d": 164.83499999999185,
      "v": 84
    },
    {
      "midi": 68,
      "hit": false,
      "t": 84580.99062500014,
      "d": 329.6700000000128,
      "v": 91
    },
    {
      "midi": 38,
      "hit": false,
      "t": 84587.85875000013,
      "d": 164.8350000000064,
      "v": 84
    },
    {
      "midi": 25,
      "hit": false,
      "t": 84587.85875000013,
      "d": 549.4500000000262,
      "v": 106
    },
    {
      "midi": 41,
      "hit": false,
      "t": 84587.85875000013,
      "d": 659.3400000000256,
      "v": 106
    },
    {
      "midi": 65,
      "hit": false,
      "t": 84587.85875000013,
      "d": 659.3400000000256,
      "v": 94
    },
    {
      "midi": 36,
      "hit": false,
      "t": 84587.85875000013,
      "d": 659.3400000000256,
      "v": 108
    },
    {
      "midi": 38,
      "hit": false,
      "t": 84752.69375000014,
      "d": 164.8350000000064,
      "v": 84
    },
    {
      "midi": 70,
      "hit": false,
      "t": 84910.66062500015,
      "d": 329.6700000000128,
      "v": 100
    },
    {
      "midi": 38,
      "hit": false,
      "t": 84917.52875000014,
      "d": 164.8350000000064,
      "v": 84
    },
    {
      "midi": 54,
      "hit": false,
      "t": 84917.52875000014,
      "d": 549.4500000000116,
      "v": 106
    },
    {
      "midi": 38,
      "hit": false,
      "t": 85082.36375000015,
      "d": 164.8350000000064,
      "v": 84
    },
    {
      "midi": 58,
      "hit": false,
      "t": 85240.33062500016,
      "d": 329.66999999999825,
      "v": 95
    },
    {
      "midi": 43,
      "hit": false,
      "t": 85247.19875000016,
      "d": 480.7687500000029,
      "v": 106
    },
    {
      "midi": 38,
      "hit": false,
      "t": 85247.19875000016,
      "d": 494.50500000000466,
      "v": 84
    },
    {
      "midi": 36,
      "hit": false,
      "t": 85247.19875000016,
      "d": 659.3399999999965,
      "v": 113
    },
    {
      "midi": 63,
      "hit": false,
      "t": 85570.00062500016,
      "d": 329.66999999999825,
      "v": 71
    },
    {
      "midi": 54,
      "hit": false,
      "t": 85576.86875000015,
      "d": 549.4500000000116,
      "v": 106
    },
    {
      "midi": 43,
      "hit": false,
      "t": 85741.70375000016,
      "d": 137.3625000000029,
      "v": 106
    },
    {
      "midi": 38,
      "hit": false,
      "t": 85741.70375000016,
      "d": 164.83499999999185,
      "v": 84
    },
    {
      "midi": 67,
      "hit": false,
      "t": 85899.67062500016,
      "d": 329.6700000000128,
      "v": 86
    },
    {
      "midi": 38,
      "hit": false,
      "t": 85906.53875000015,
      "d": 164.8350000000064,
      "v": 84
    },
    {
      "midi": 43,
      "hit": false,
      "t": 85906.53875000015,
      "d": 618.1312500000058,
      "v": 106
    },
    {
      "midi": 36,
      "hit": false,
      "t": 85906.53875000015,
      "d": 659.3399999999965,
      "v": 97
    },
    {
      "midi": 38,
      "hit": false,
      "t": 86071.37375000016,
      "d": 164.8350000000064,
      "v": 84
    },
    {
      "midi": 70,
      "hit": false,
      "t": 86236.20875000017,
      "d": 322.8018749999901,
      "v": 91
    },
    {
      "midi": 38,
      "hit": false,
      "t": 86236.20875000017,
      "d": 329.6699999999837,
      "v": 84
    },
    {
      "midi": 54,
      "hit": false,
      "t": 86236.20875000017,
      "d": 549.4499999999825,
      "v": 106
    },
    {
      "midi": 58,
      "hit": false,
      "t": 86559.01062500016,
      "d": 329.66999999999825,
      "v": 87
    },
    {
      "midi": 41,
      "hit": false,
      "t": 86565.87875000015,
      "d": 467.03250000000116,
      "v": 106
    },
    {
      "midi": 38,
      "hit": false,
      "t": 86565.87875000015,
      "d": 494.50500000000466,
      "v": 84
    },
    {
      "midi": 36,
      "hit": false,
      "t": 86565.87875000015,
      "d": 659.3399999999965,
      "v": 97
    },
    {
      "midi": 62,
      "hit": false,
      "t": 86888.68062500015,
      "d": 329.66999999999825,
      "v": 97
    },
    {
      "midi": 54,
      "hit": false,
      "t": 86895.54875000015,
      "d": 549.4500000000116,
      "v": 106
    },
    {
      "midi": 41,
      "hit": false,
      "t": 87060.38375000015,
      "d": 137.3625000000029,
      "v": 106
    },
    {
      "midi": 38,
      "hit": false,
      "t": 87060.38375000015,
      "d": 164.83499999999185,
      "v": 84
    },
    {
      "midi": 65,
      "hit": false,
      "t": 87218.35062500015,
      "d": 6.868124999993597,
      "v": 117
    },
    {
      "midi": 38,
      "hit": false,
      "t": 87225.21875000015,
      "d": 164.8350000000064,
      "v": 84
    },
    {
      "midi": 25,
      "hit": false,
      "t": 87225.21875000015,
      "d": 549.4500000000262,
      "v": 106
    },
    {
      "midi": 41,
      "hit": false,
      "t": 87225.21875000015,
      "d": 659.3400000000256,
      "v": 106
    },
    {
      "midi": 36,
      "hit": false,
      "t": 87225.21875000015,
      "d": 659.3400000000256,
      "v": 97
    },
    {
      "midi": 38,
      "hit": false,
      "t": 87390.05375000015,
      "d": 164.8350000000064,
      "v": 84
    },
    {
      "midi": 70,
      "hit": false,
      "t": 87548.02062500016,
      "d": 329.6700000000128,
      "v": 104
    },
    {
      "midi": 38,
      "hit": false,
      "t": 87554.88875000016,
      "d": 164.8350000000064,
      "v": 84
    },
    {
      "midi": 67,
      "hit": false,
      "t": 87554.88875000016,
      "d": 329.6700000000128,
      "v": 101
    },
    {
      "midi": 54,
      "hit": false,
      "t": 87554.88875000016,
      "d": 549.4500000000116,
      "v": 106
    },
    {
      "midi": 38,
      "hit": false,
      "t": 87719.72375000016,
      "d": 164.8350000000064,
      "v": 84
    },
    {
      "midi": 51,
      "hit": false,
      "t": 87877.69062500018,
      "d": 329.66999999999825,
      "v": 104
    },
    {
      "midi": 65,
      "hit": false,
      "t": 87884.55875000017,
      "d": 329.66999999999825,
      "v": 101
    },
    {
      "midi": 39,
      "hit": false,
      "t": 87884.55875000017,
      "d": 480.7687500000029,
      "v": 106
    },
    {
      "midi": 38,
      "hit": false,
      "t": 87884.55875000017,
      "d": 494.50500000000466,
      "v": 84
    },
    {
      "midi": 36,
      "hit": false,
      "t": 87884.55875000017,
      "d": 659.3399999999965,
      "v": 113
    },
    {
      "midi": 55,
      "hit": false,
      "t": 88207.36062500018,
      "d": 329.66999999999825,
      "v": 97
    },
    {
      "midi": 63,
      "hit": false,
      "t": 88214.22875000017,
      "d": 164.8350000000064,
      "v": 91
    },
    {
      "midi": 54,
      "hit": false,
      "t": 88214.22875000017,
      "d": 549.4500000000116,
      "v": 106
    },
    {
      "midi": 39,
      "hit": false,
      "t": 88379.06375000018,
      "d": 137.3625000000029,
      "v": 106
    },
    {
      "midi": 38,
      "hit": false,
      "t": 88379.06375000018,
      "d": 164.83499999999185,
      "v": 84
    },
    {
      "midi": 58,
      "hit": false,
      "t": 88537.03062500017,
      "d": 329.6700000000128,
      "v": 104
    },
    {
      "midi": 38,
      "hit": false,
      "t": 88543.89875000017,
      "d": 164.8350000000064,
      "v": 84
    },
    {
      "midi": 39,
      "hit": false,
      "t": 88543.89875000017,
      "d": 618.1312500000058,
      "v": 106
    },
    {
      "midi": 36,
      "hit": false,
      "t": 88543.89875000017,
      "d": 659.3399999999965,
      "v": 97
    },
    {
      "midi": 38,
      "hit": false,
      "t": 88708.73375000017,
      "d": 164.8350000000064,
      "v": 84
    },
    {
      "midi": 63,
      "hit": false,
      "t": 88866.70062500019,
      "d": 329.6699999999837,
      "v": 110
    },
    {
      "midi": 38,
      "hit": false,
      "t": 88873.56875000018,
      "d": 329.6699999999837,
      "v": 84
    },
    {
      "midi": 54,
      "hit": false,
      "t": 88873.56875000018,
      "d": 549.4499999999825,
      "v": 106
    },
    {
      "midi": 65,
      "hit": false,
      "t": 89196.37062500017,
      "d": 329.66999999999825,
      "v": 86
    },
    {
      "midi": 39,
      "hit": false,
      "t": 89203.23875000016,
      "d": 467.03250000000116,
      "v": 106
    },
    {
      "midi": 38,
      "hit": false,
      "t": 89203.23875000016,
      "d": 494.50500000000466,
      "v": 84
    },
    {
      "midi": 36,
      "hit": false,
      "t": 89203.23875000016,
      "d": 659.3399999999965,
      "v": 113
    },
    {
      "midi": 67,
      "hit": false,
      "t": 89526.04062500017,
      "d": 329.66999999999825,
      "v": 86
    },
    {
      "midi": 54,
      "hit": false,
      "t": 89532.90875000016,
      "d": 549.4500000000116,
      "v": 106
    },
    {
      "midi": 39,
      "hit": false,
      "t": 89697.74375000017,
      "d": 137.3625000000029,
      "v": 106
    },
    {
      "midi": 40,
      "hit": false,
      "t": 89697.74375000017,
      "d": 164.83499999999185,
      "v": 101
    },
    {
      "midi": 38,
      "hit": false,
      "t": 89697.74375000017,
      "d": 164.83499999999185,
      "v": 84
    },
    {
      "midi": 68,
      "hit": false,
      "t": 89855.71062500017,
      "d": 329.6700000000128,
      "v": 86
    },
    {
      "midi": 38,
      "hit": false,
      "t": 89862.57875000016,
      "d": 164.8350000000064,
      "v": 84
    },
    {
      "midi": 25,
      "hit": false,
      "t": 89862.57875000016,
      "d": 549.4500000000262,
      "v": 106
    },
    {
      "midi": 39,
      "hit": false,
      "t": 89862.57875000016,
      "d": 659.3400000000256,
      "v": 106
    },
    {
      "midi": 36,
      "hit": false,
      "t": 89862.57875000016,
      "d": 659.3400000000256,
      "v": 97
    },
    {
      "midi": 40,
      "hit": false,
      "t": 90027.41375000017,
      "d": 164.8350000000064,
      "v": 101
    },
    {
      "midi": 38,
      "hit": false,
      "t": 90027.41375000017,
      "d": 164.8350000000064,
      "v": 84
    },
    {
      "midi": 70,
      "hit": false,
      "t": 90185.38062500018,
      "d": 329.6700000000128,
      "v": 110
    },
    {
      "midi": 40,
      "hit": false,
      "t": 90192.24875000017,
      "d": 164.8350000000064,
      "v": 101
    },
    {
      "midi": 38,
      "hit": false,
      "t": 90192.24875000017,
      "d": 164.8350000000064,
      "v": 84
    },
    {
      "midi": 54,
      "hit": false,
      "t": 90192.24875000017,
      "d": 549.4500000000116,
      "v": 106
    },
    {
      "midi": 38,
      "hit": false,
      "t": 90357.08375000018,
      "d": 549.4500000000116,
      "v": 84
    }
  ]
}