{
  "jsonPath": "Classical/Classical Tenor/Jose Carreras/un-nuvol-blanc.json",
  "path": "Classical\\Classical Tenor\\Jose Carreras\\Un Nuvol Blanc.mid",
  "name": "Un Nuvol Blanc",
  "difficulty": "Advanced",
  "bpm": 75,
  "notes": [
    {
      "midi": 62,
      "hit": false,
      "t": 0,
      "d": 421.05199999999996,
      "v": 99
    },
    {
      "midi": 31,
      "hit": false,
      "t": 6.5789375,
      "d": 2559.2066875,
      "v": 67
    },
    {
      "midi": 43,
      "hit": false,
      "t": 6.5789375,
      "d": 2559.2066875,
      "v": 59
    },
    {
      "midi": 59,
      "hit": false,
      "t": 32.8946875,
      "d": 1934.207625,
      "v": 78
    },
    {
      "midi": 67,
      "hit": false,
      "t": 322.3679375,
      "d": 651.3148125,
      "v": 82
    },
    {
      "midi": 74,
      "hit": false,
      "t": 638.1569374999999,
      "d": 947.3670000000002,
      "v": 91
    },
    {
      "midi": 55,
      "hit": false,
      "t": 914.4723125,
      "d": 993.4195625,
      "v": 88
    },
    {
      "midi": 69,
      "hit": false,
      "t": 980.2616875,
      "d": 657.8937500000001,
      "v": 81
    },
    {
      "midi": 71,
      "hit": false,
      "t": 1611.8396875,
      "d": 888.1565625000001,
      "v": 82
    },
    {
      "midi": 74,
      "hit": false,
      "t": 1618.418625,
      "d": 835.5250625000001,
      "v": 22
    },
    {
      "midi": 62,
      "hit": false,
      "t": 1888.1550625,
      "d": 322.3679374999997,
      "v": 88
    },
    {
      "midi": 55,
      "hit": false,
      "t": 2203.9440624999997,
      "d": 85.5261875000001,
      "v": 75
    },
    {
      "midi": 62,
      "hit": false,
      "t": 2493.4173125,
      "d": 348.6836874999999,
      "v": 81
    },
    {
      "midi": 40,
      "hit": false,
      "t": 2526.312,
      "d": 2493.4173125000016,
      "v": 75
    },
    {
      "midi": 52,
      "hit": false,
      "t": 2532.8909375,
      "d": 1046.0510625000006,
      "v": 77
    },
    {
      "midi": 67,
      "hit": false,
      "t": 2835.5220625,
      "d": 335.5258124999996,
      "v": 86
    },
    {
      "midi": 74,
      "hit": false,
      "t": 3151.3110625,
      "d": 388.15731249999953,
      "v": 89
    },
    {
      "midi": 59,
      "hit": false,
      "t": 3440.7843125000004,
      "d": 940.7880625000003,
      "v": 84
    },
    {
      "midi": 69,
      "hit": false,
      "t": 3473.6789999999996,
      "d": 677.6305624999991,
      "v": 89
    },
    {
      "midi": 66,
      "hit": false,
      "t": 3480.2579374999996,
      "d": 59.2104374999999,
      "v": 94
    },
    {
      "midi": 64,
      "hit": false,
      "t": 4098.678062499999,
      "d": 59.2104374999999,
      "v": 89
    },
    {
      "midi": 67,
      "hit": false,
      "t": 4111.835937499999,
      "d": 532.8939375,
      "v": 93
    },
    {
      "midi": 52,
      "hit": false,
      "t": 4374.9934375,
      "d": 355.2626250000003,
      "v": 81
    },
    {
      "midi": 55,
      "hit": false,
      "t": 4664.4666875,
      "d": 361.8415625000016,
      "v": 76
    },
    {
      "midi": 33,
      "hit": false,
      "t": 5006.571437500001,
      "d": 2598.6803125000015,
      "v": 66
    },
    {
      "midi": 45,
      "hit": false,
      "t": 5006.571437500001,
      "d": 2598.6803125000015,
      "v": 67
    },
    {
      "midi": 57,
      "hit": false,
      "t": 5013.150375000001,
      "d": 1355.261125000001,
      "v": 81
    },
    {
      "midi": 64,
      "hit": false,
      "t": 5046.0450624999985,
      "d": 374.99943749999966,
      "v": 83
    },
    {
      "midi": 69,
      "hit": false,
      "t": 5361.834062499998,
      "d": 355.2626250000003,
      "v": 82
    },
    {
      "midi": 72,
      "hit": false,
      "t": 5684.201999999998,
      "d": 361.8415625000007,
      "v": 90
    },
    {
      "midi": 74,
      "hit": false,
      "t": 5993.412062499999,
      "d": 618.4201250000006,
      "v": 82
    },
    {
      "midi": 71,
      "hit": false,
      "t": 5993.412062499999,
      "d": 671.051625000001,
      "v": 89
    },
    {
      "midi": 64,
      "hit": false,
      "t": 5999.991000000002,
      "d": 960.5248750000001,
      "v": 74
    },
    {
      "midi": 72,
      "hit": false,
      "t": 6664.4636875,
      "d": 565.7886250000001,
      "v": 82
    },
    {
      "midi": 76,
      "hit": false,
      "t": 6664.4636875,
      "d": 578.9465,
      "v": 83
    },
    {
      "midi": 57,
      "hit": false,
      "t": 6940.779062500002,
      "d": 374.99943750000057,
      "v": 64
    },
    {
      "midi": 60,
      "hit": false,
      "t": 7256.568062500002,
      "d": 46.05256250000002,
      "v": 79
    },
    {
      "midi": 69,
      "hit": false,
      "t": 7572.3570625,
      "d": 684.2095000000018,
      "v": 79
    },
    {
      "midi": 38,
      "hit": false,
      "t": 7572.357062500002,
      "d": 993.4195624999984,
      "v": 73
    },
    {
      "midi": 50,
      "hit": false,
      "t": 7572.357062500002,
      "d": 1401.313687499999,
      "v": 80
    },
    {
      "midi": 74,
      "hit": false,
      "t": 7901.303937500001,
      "d": 381.57837500000096,
      "v": 90
    },
    {
      "midi": 76,
      "hit": false,
      "t": 8217.092937500001,
      "d": 98.68406250000044,
      "v": 82
    },
    {
      "midi": 57,
      "hit": false,
      "t": 8519.724062500001,
      "d": 736.8410000000003,
      "v": 80
    },
    {
      "midi": 78,
      "hit": false,
      "t": 8559.197687500002,
      "d": 78.94725000000108,
      "v": 86
    },
    {
      "midi": 81,
      "hit": false,
      "t": 8565.776625000002,
      "d": 98.68406250000044,
      "v": 74
    },
    {
      "midi": 79,
      "hit": false,
      "t": 9190.775687500003,
      "d": 65.78937500000029,
      "v": 74
    },
    {
      "midi": 83,
      "hit": false,
      "t": 9190.775687500003,
      "d": 72.36831250000068,
      "v": 81
    },
    {
      "midi": 50,
      "hit": false,
      "t": 9480.248937500002,
      "d": 328.94687499999964,
      "v": 79
    },
    {
      "midi": 54,
      "hit": false,
      "t": 9789.459000000003,
      "d": 276.31537500000013,
      "v": 82
    },
    {
      "midi": 31,
      "hit": false,
      "t": 10072.353312500003,
      "d": 2513.154124999999,
      "v": 71
    },
    {
      "midi": 55,
      "hit": false,
      "t": 10098.669062500003,
      "d": 1585.5239374999983,
      "v": 79
    },
    {
      "midi": 62,
      "hit": false,
      "t": 10190.774187500005,
      "d": 1815.7867500000011,
      "v": 78
    },
    {
      "midi": 67,
      "hit": false,
      "t": 10493.405312500005,
      "d": 1480.260937500001,
      "v": 79
    },
    {
      "midi": 69,
      "hit": false,
      "t": 11046.036062500005,
      "d": 999.9985000000015,
      "v": 81
    },
    {
      "midi": 55,
      "hit": false,
      "t": 11960.508375000001,
      "d": 328.94687500000146,
      "v": 82
    },
    {
      "midi": 71,
      "hit": false,
      "t": 11967.087312500005,
      "d": 598.6833125000012,
      "v": 89
    },
    {
      "midi": 54,
      "hit": false,
      "t": 12276.297375000002,
      "d": 171.05237500000112,
      "v": 72
    },
    {
      "midi": 40,
      "hit": false,
      "t": 12585.507437500002,
      "d": 2546.0488124999993,
      "v": 74
    },
    {
      "midi": 62,
      "hit": false,
      "t": 12585.507437500008,
      "d": 986.8406249999989,
      "v": 81
    },
    {
      "midi": 52,
      "hit": false,
      "t": 12598.665312500003,
      "d": 1927.6286874999987,
      "v": 86
    },
    {
      "midi": 67,
      "hit": false,
      "t": 13578.927000000007,
      "d": 309.2100625000003,
      "v": 87
    },
    {
      "midi": 69,
      "hit": false,
      "t": 13894.716000000008,
      "d": 592.1043750000008,
      "v": 91
    },
    {
      "midi": 55,
      "hit": false,
      "t": 14480.241437500003,
      "d": 657.8937499999993,
      "v": 85
    },
    {
      "midi": 71,
      "hit": false,
      "t": 14519.715062500009,
      "d": 592.1043750000008,
      "v": 91
    },
    {
      "midi": 33,
      "hit": false,
      "t": 15072.345812500002,
      "d": 2618.4171250000018,
      "v": 63
    },
    {
      "midi": 45,
      "hit": false,
      "t": 15072.345812500002,
      "d": 2638.153937500001,
      "v": 58
    },
    {
      "midi": 57,
      "hit": false,
      "t": 15111.819437500002,
      "d": 1756.5763125000012,
      "v": 76
    },
    {
      "midi": 72,
      "hit": false,
      "t": 15111.81943750001,
      "d": 671.0516250000001,
      "v": 83
    },
    {
      "midi": 71,
      "hit": false,
      "t": 15756.55531250001,
      "d": 671.0516249999982,
      "v": 87
    },
    {
      "midi": 69,
      "hit": false,
      "t": 16388.13331250001,
      "d": 348.6836874999972,
      "v": 85
    },
    {
      "midi": 67,
      "hit": false,
      "t": 16730.238062500008,
      "d": 322.3679374999956,
      "v": 79
    },
    {
      "midi": 69,
      "hit": false,
      "t": 17046.027062500005,
      "d": 335.52581250000003,
      "v": 90
    },
    {
      "midi": 57,
      "hit": false,
      "t": 17046.027062500005,
      "d": 78.94725000000108,
      "v": 76
    },
    {
      "midi": 50,
      "hit": false,
      "t": 17651.289312500005,
      "d": 796.0514374999984,
      "v": 64
    },
    {
      "midi": 54,
      "hit": false,
      "t": 17651.289312500005,
      "d": 967.1038124999977,
      "v": 67
    },
    {
      "midi": 38,
      "hit": false,
      "t": 17651.289312500005,
      "d": 1328.9453749999957,
      "v": 69
    },
    {
      "midi": 62,
      "hit": false,
      "t": 17684.184000000005,
      "d": 736.8409999999967,
      "v": 73
    },
    {
      "midi": 66,
      "hit": false,
      "t": 17684.184000000005,
      "d": 815.7882499999978,
      "v": 75
    },
    {
      "midi": 69,
      "hit": false,
      "t": 17690.762937500003,
      "d": 874.9986874999995,
      "v": 61
    },
    {
      "midi": 50,
      "hit": false,
      "t": 18624.9720625,
      "d": 388.15731249999953,
      "v": 76
    },
    {
      "midi": 69,
      "hit": false,
      "t": 18901.287437500003,
      "d": 697.3673750000016,
      "v": 82
    },
    {
      "midi": 57,
      "hit": false,
      "t": 18980.2346875,
      "d": 1210.5245000000032,
      "v": 87
    },
    {
      "midi": 66,
      "hit": false,
      "t": 19572.339062500003,
      "d": 671.0516250000001,
      "v": 90
    },
    {
      "midi": 55,
      "hit": false,
      "t": 20164.443437500002,
      "d": 1618.418625000002,
      "v": 62
    },
    {
      "midi": 31,
      "hit": false,
      "t": 20164.443437500002,
      "d": 2046.049562500004,
      "v": 47
    },
    {
      "midi": 43,
      "hit": false,
      "t": 20164.443437500002,
      "d": 2592.101375000002,
      "v": 51
    },
    {
      "midi": 62,
      "hit": false,
      "t": 20203.917062500004,
      "d": 1013.1563749999987,
      "v": 81
    },
    {
      "midi": 67,
      "hit": false,
      "t": 21151.284062500003,
      "d": 335.52581250000003,
      "v": 94
    },
    {
      "midi": 69,
      "hit": false,
      "t": 21480.230937500004,
      "d": 690.7884374999994,
      "v": 85
    },
    {
      "midi": 55,
      "hit": false,
      "t": 22105.230000000003,
      "d": 59.21043750000172,
      "v": 86
    },
    {
      "midi": 71,
      "hit": false,
      "t": 22138.124687500003,
      "d": 631.5780000000013,
      "v": 87
    },
    {
      "midi": 54,
      "hit": false,
      "t": 22414.440062500005,
      "d": 78.94725000000108,
      "v": 83
    },
    {
      "midi": 40,
      "hit": false,
      "t": 22730.229062500006,
      "d": 1664.4711874999957,
      "v": 75
    },
    {
      "midi": 52,
      "hit": false,
      "t": 22736.808000000005,
      "d": 1592.1028749999969,
      "v": 83
    },
    {
      "midi": 62,
      "hit": false,
      "t": 22769.702687500005,
      "d": 1874.997187500001,
      "v": 81
    },
    {
      "midi": 67,
      "hit": false,
      "t": 23717.069687500007,
      "d": 335.52581250000003,
      "v": 85
    },
    {
      "midi": 69,
      "hit": false,
      "t": 24032.858687500007,
      "d": 657.8937499999993,
      "v": 83
    },
    {
      "midi": 52,
      "hit": false,
      "t": 24585.4894375,
      "d": 118.4208749999998,
      "v": 95
    },
    {
      "midi": 71,
      "hit": false,
      "t": 24624.963062500006,
      "d": 631.5779999999977,
      "v": 93
    },
    {
      "midi": 29,
      "hit": false,
      "t": 25151.2780625,
      "d": 2598.6803125000006,
      "v": 64
    },
    {
      "midi": 57,
      "hit": false,
      "t": 25177.593812500003,
      "d": 1914.4708124999997,
      "v": 67
    },
    {
      "midi": 41,
      "hit": false,
      "t": 25177.593812500003,
      "d": 2611.8381875000014,
      "v": 64
    },
    {
      "midi": 53,
      "hit": false,
      "t": 25184.17275,
      "d": 1624.9975625000006,
      "v": 78
    },
    {
      "midi": 72,
      "hit": false,
      "t": 25230.225312500006,
      "d": 453.9466874999998,
      "v": 91
    },
    {
      "midi": 71,
      "hit": false,
      "t": 25651.277312500006,
      "d": 552.6307500000003,
      "v": 94
    },
    {
      "midi": 69,
      "hit": false,
      "t": 26164.434437500007,
      "d": 249.99962500000038,
      "v": 103
    },
    {
      "midi": 69,
      "hit": false,
      "t": 26480.223437500008,
      "d": 624.9990625000028,
      "v": 107
    },
    {
      "midi": 67,
      "hit": false,
      "t": 27078.90675000001,
      "d": 78.94725000000108,
      "v": 95
    },
    {
      "midi": 55,
      "hit": false,
      "t": 27111.801437500002,
      "d": 72.36831249999886,
      "v": 91
    },
    {
      "midi": 50,
      "hit": false,
      "t": 27717.063687500002,
      "d": 690.788437500003,
      "v": 74
    },
    {
      "midi": 54,
      "hit": false,
      "t": 27717.063687500002,
      "d": 842.104000000003,
      "v": 78
    },
    {
      "midi": 57,
      "hit": false,
      "t": 27717.063687500002,
      "d": 842.104000000003,
      "v": 56
    },
    {
      "midi": 38,
      "hit": false,
      "t": 27717.063687500002,
      "d": 2565.7856250000114,
      "v": 80
    },
    {
      "midi": 62,
      "hit": false,
      "t": 27756.53731250001,
      "d": 657.8937499999993,
      "v": 90
    },
    {
      "midi": 66,
      "hit": false,
      "t": 27756.53731250001,
      "d": 723.6831249999996,
      "v": 90
    },
    {
      "midi": 69,
      "hit": false,
      "t": 27756.53731250001,
      "d": 947.3669999999984,
      "v": 73
    },
    {
      "midi": 52,
      "hit": false,
      "t": 28703.904312500006,
      "d": 78.94725000000108,
      "v": 77
    },
    {
      "midi": 64,
      "hit": false,
      "t": 28703.90431250001,
      "d": 118.4208749999998,
      "v": 95
    },
    {
      "midi": 50,
      "hit": false,
      "t": 29006.535437500006,
      "d": 197.36812500000087,
      "v": 81
    },
    {
      "midi": 54,
      "hit": false,
      "t": 29006.535437500006,
      "d": 282.89431250000416,
      "v": 84
    },
    {
      "midi": 62,
      "hit": false,
      "t": 29046.00906250001,
      "d": 230.26281250000102,
      "v": 96
    },
    {
      "midi": 66,
      "hit": false,
      "t": 29046.00906250001,
      "d": 322.36793749999924,
      "v": 95
    },
    {
      "midi": 55,
      "hit": false,
      "t": 29289.42975000001,
      "d": 348.6836875000008,
      "v": 88
    },
    {
      "midi": 52,
      "hit": false,
      "t": 29289.42975000001,
      "d": 394.73625000000175,
      "v": 87
    },
    {
      "midi": 64,
      "hit": false,
      "t": 29361.79806250001,
      "d": 263.1574999999975,
      "v": 95
    },
    {
      "midi": 67,
      "hit": false,
      "t": 29374.955937500006,
      "d": 289.4732499999991,
      "v": 89
    },
    {
      "midi": 57,
      "hit": false,
      "t": 29605.21875000001,
      "d": 394.73625000000175,
      "v": 78
    },
    {
      "midi": 54,
      "hit": false,
      "t": 29611.79768750001,
      "d": 361.8415625000016,
      "v": 98
    },
    {
      "midi": 66,
      "hit": false,
      "t": 29690.744937500007,
      "d": 203.94706249999945,
      "v": 102
    },
    {
      "midi": 69,
      "hit": false,
      "t": 29690.744937500007,
      "d": 263.15750000000116,
      "v": 82
    },
    {
      "midi": 55,
      "hit": false,
      "t": 29953.90243750001,
      "d": 98.68406250000044,
      "v": 91
    },
    {
      "midi": 67,
      "hit": false,
      "t": 29993.376062500007,
      "d": 78.94725000000108,
      "v": 82
    },
    {
      "midi": 36,
      "hit": false,
      "t": 30282.849312500013,
      "d": 1467.1030624999985,
      "v": 90
    },
    {
      "midi": 62,
      "hit": false,
      "t": 30309.165062500015,
      "d": 26.315749999997934,
      "v": 76
    },
    {
      "midi": 60,
      "hit": false,
      "t": 30309.165062500015,
      "d": 631.5779999999977,
      "v": 92
    },
    {
      "midi": 72,
      "hit": false,
      "t": 30322.32293750001,
      "d": 282.89431250000416,
      "v": 99
    },
    {
      "midi": 60,
      "hit": false,
      "t": 30322.32293750001,
      "d": 1335.5243125000052,
      "v": 95
    },
    {
      "midi": 72,
      "hit": false,
      "t": 30671.006625000013,
      "d": 480.2624375000014,
      "v": 94
    },
    {
      "midi": 72,
      "hit": false,
      "t": 31230.216312500015,
      "d": 322.36793749999924,
      "v": 98
    },
    {
      "midi": 71,
      "hit": false,
      "t": 31546.005312500016,
      "d": 59.21043749999808,
      "v": 99
    },
    {
      "midi": 48,
      "hit": false,
      "t": 31809.162812500013,
      "d": 144.73662500000137,
      "v": 82
    },
    {
      "midi": 55,
      "hit": false,
      "t": 32124.951812500014,
      "d": 39.47362499999872,
      "v": 82
    },
    {
      "midi": 69,
      "hit": false,
      "t": 32177.583312500014,
      "d": 72.36831249999886,
      "v": 99
    },
    {
      "midi": 50,
      "hit": false,
      "t": 32835.47706250001,
      "d": 1401.3136874999982,
      "v": 72
    },
    {
      "midi": 55,
      "hit": false,
      "t": 32835.47706250001,
      "d": 1572.3660624999975,
      "v": 61
    },
    {
      "midi": 31,
      "hit": false,
      "t": 32835.47706250001,
      "d": 1822.3656875000015,
      "v": 60
    },
    {
      "midi": 62,
      "hit": false,
      "t": 32842.05600000001,
      "d": 249.99962499999674,
      "v": 96
    },
    {
      "midi": 62,
      "hit": false,
      "t": 33190.739687500005,
      "d": 1552.6292499999981,
      "v": 95
    },
    {
      "midi": 71,
      "hit": false,
      "t": 33519.68656250001,
      "d": 328.94687500000146,
      "v": 99
    },
    {
      "midi": 69,
      "hit": false,
      "t": 33822.317687500006,
      "d": 960.5248749999955,
      "v": 93
    },
    {
      "midi": 50,
      "hit": false,
      "t": 34414.42206250001,
      "d": 92.10512500000186,
      "v": 69
    },
    {
      "midi": 67,
      "hit": false,
      "t": 34730.211062500006,
      "d": 618.4201249999969,
      "v": 98
    },
    {
      "midi": 55,
      "hit": false,
      "t": 34743.36893750001,
      "d": 85.52618749999965,
      "v": 82
    },
    {
      "midi": 62,
      "hit": false,
      "t": 35322.3154375,
      "d": 1980.2601874999891,
      "v": 87
    },
    {
      "midi": 38,
      "hit": false,
      "t": 35361.78906250001,
      "d": 624.9990624999991,
      "v": 66
    },
    {
      "midi": 50,
      "hit": false,
      "t": 35361.78906250001,
      "d": 1539.471375000001,
      "v": 70
    },
    {
      "midi": 54,
      "hit": false,
      "t": 35368.36800000001,
      "d": 1480.2609374999956,
      "v": 76
    },
    {
      "midi": 69,
      "hit": false,
      "t": 35684.157,
      "d": 532.8939374999973,
      "v": 87
    },
    {
      "midi": 69,
      "hit": false,
      "t": 36282.8403125,
      "d": 368.4205000000002,
      "v": 83
    },
    {
      "midi": 67,
      "hit": false,
      "t": 36598.629312499994,
      "d": 671.0516250000001,
      "v": 95
    },
    {
      "midi": 54,
      "hit": false,
      "t": 37190.73368750001,
      "d": 118.42087500000343,
      "v": 81
    },
    {
      "midi": 50,
      "hit": false,
      "t": 37217.04943750001,
      "d": 131.57875000000058,
      "v": 75
    },
    {
      "midi": 66,
      "hit": false,
      "t": 37256.5230625,
      "d": 546.0518124999944,
      "v": 103
    },
    {
      "midi": 31,
      "hit": false,
      "t": 37822.31168750001,
      "d": 559.2096874999988,
      "v": 57
    },
    {
      "midi": 43,
      "hit": false,
      "t": 37848.627437500014,
      "d": 598.6833124999976,
      "v": 55
    },
    {
      "midi": 55,
      "hit": false,
      "t": 37848.627437500014,
      "d": 1427.6294374999998,
      "v": 63
    },
    {
      "midi": 59,
      "hit": false,
      "t": 37848.627437500014,
      "d": 1532.8924374999988,
      "v": 64
    },
    {
      "midi": 67,
      "hit": false,
      "t": 37861.7853125,
      "d": 1342.1032500000074,
      "v": 89
    },
    {
      "midi": 62,
      "hit": false,
      "t": 37888.1010625,
      "d": 1592.1028750000041,
      "v": 79
    },
    {
      "midi": 71,
      "hit": false,
      "t": 38519.6790625,
      "d": 473.6834999999992,
      "v": 89
    },
    {
      "midi": 71,
      "hit": false,
      "t": 39151.2570625,
      "d": 315.7890000000043,
      "v": 89
    },
    {
      "midi": 69,
      "hit": false,
      "t": 39309.1515625,
      "d": 210.52599999999802,
      "v": 82
    },
    {
      "midi": 67,
      "hit": false,
      "t": 39440.7303125,
      "d": 296.0521874999977,
      "v": 96
    },
    {
      "midi": 64,
      "hit": false,
      "t": 40098.6240625,
      "d": 118.42087500000343,
      "v": 91
    },
    {
      "midi": 60,
      "hit": false,
      "t": 40374.93943750001,
      "d": 1217.103437500009,
      "v": 64
    },
    {
      "midi": 55,
      "hit": false,
      "t": 40374.93943750001,
      "d": 1263.15600000001,
      "v": 61
    },
    {
      "midi": 43,
      "hit": false,
      "t": 40374.93943750001,
      "d": 1368.4190000000162,
      "v": 51
    },
    {
      "midi": 48,
      "hit": false,
      "t": 40381.518375000014,
      "d": 1309.2085625000109,
      "v": 58
    },
    {
      "midi": 36,
      "hit": false,
      "t": 40388.09731250002,
      "d": 1381.5768750000134,
      "v": 56
    },
    {
      "midi": 72,
      "hit": false,
      "t": 40414.4130625,
      "d": 269.7364375000034,
      "v": 94
    },
    {
      "midi": 60,
      "hit": false,
      "t": 40414.4130625,
      "d": 1631.5764999999956,
      "v": 74
    },
    {
      "midi": 72,
      "hit": false,
      "t": 40736.781,
      "d": 243.4206875000018,
      "v": 83
    },
    {
      "midi": 72,
      "hit": false,
      "t": 41045.991062500005,
      "d": 335.5258124999964,
      "v": 85
    },
    {
      "midi": 71,
      "hit": false,
      "t": 41368.359000000004,
      "d": 611.8411874999947,
      "v": 100
    },
    {
      "midi": 69,
      "hit": false,
      "t": 41967.0423125,
      "d": 78.94724999999744,
      "v": 95
    },
    {
      "midi": 31,
      "hit": false,
      "t": 42901.25143750003,
      "d": 480.2624375000087,
      "v": 55
    },
    {
      "midi": 43,
      "hit": false,
      "t": 42907.830375000034,
      "d": 565.7886250000083,
      "v": 52
    },
    {
      "midi": 50,
      "hit": false,
      "t": 42914.409312500036,
      "d": 822.3671875000073,
      "v": 72
    },
    {
      "midi": 55,
      "hit": false,
      "t": 42914.409312500036,
      "d": 914.4723125000091,
      "v": 59
    },
    {
      "midi": 62,
      "hit": false,
      "t": 42940.7250625,
      "d": 210.52599999999802,
      "v": 94
    },
    {
      "midi": 62,
      "hit": false,
      "t": 43256.5140625,
      "d": 1999.9969999999958,
      "v": 93
    },
    {
      "midi": 71,
      "hit": false,
      "t": 43572.303062499996,
      "d": 315.78899999999703,
      "v": 95
    },
    {
      "midi": 69,
      "hit": false,
      "t": 43888.09206249999,
      "d": 684.2094999999972,
      "v": 93
    },
    {
      "midi": 67,
      "hit": false,
      "t": 44532.82793749999,
      "d": 717.104187500001,
      "v": 96
    },
    {
      "midi": 50,
      "hit": false,
      "t": 45440.72131250005,
      "d": 3197.363624999998,
      "v": 55
    },
    {
      "midi": 62,
      "hit": false,
      "t": 45467.03706249999,
      "d": 203.94706250000309,
      "v": 93
    },
    {
      "midi": 66,
      "hit": false,
      "t": 45467.03706249999,
      "d": 223.68387500000244,
      "v": 89
    },
    {
      "midi": 26,
      "hit": false,
      "t": 45467.03706250005,
      "d": 210.52599999999802,
      "v": 54
    },
    {
      "midi": 38,
      "hit": false,
      "t": 45467.03706250005,
      "d": 249.99962499999674,
      "v": 58
    },
    {
      "midi": 54,
      "hit": false,
      "t": 45467.03706250005,
      "d": 3144.732124999995,
      "v": 60
    },
    {
      "midi": 62,
      "hit": false,
      "t": 45861.773312499994,
      "d": 381.5783749999973,
      "v": 95
    },
    {
      "midi": 66,
      "hit": false,
      "t": 45861.773312499994,
      "d": 388.15731249999953,
      "v": 99
    },
    {
      "midi": 66,
      "hit": false,
      "t": 46381.509374999994,
      "d": 210.52599999999802,
      "v": 99
    },
    {
      "midi": 62,
      "hit": false,
      "t": 46388.0883125,
      "d": 164.4734374999971,
      "v": 93
    },
    {
      "midi": 62,
      "hit": false,
      "t": 46690.71943749999,
      "d": 421.0520000000033,
      "v": 96
    },
    {
      "midi": 67,
      "hit": false,
      "t": 46690.71943749999,
      "d": 526.3150000000023,
      "v": 94
    },
    {
      "midi": 62,
      "hit": false,
      "t": 47295.98168749999,
      "d": 513.1571250000052,
      "v": 95
    },
    {
      "midi": 66,
      "hit": false,
      "t": 47295.98168749999,
      "d": 513.1571250000052,
      "v": 99
    },
    {
      "midi": 69,
      "hit": false,
      "t": 47322.29743749999,
      "d": 506.57818750000297,
      "v": 86
    },
    {
      "midi": 62,
      "hit": false,
      "t": 47960.454374999994,
      "d": 848.6829375000016,
      "v": 100
    },
    {
      "midi": 69,
      "hit": false,
      "t": 47967.033312499996,
      "d": 940.7880624999962,
      "v": 86
    },
    {
      "midi": 66,
      "hit": false,
      "t": 47967.033312499996,
      "d": 953.9459374999933,
      "v": 99
    },
    {
      "midi": 62,
      "hit": false,
      "t": 48940.71606249999,
      "d": 296.05218750000495,
      "v": 99
    },
    {
      "midi": 50,
      "hit": false,
      "t": 48940.71606250005,
      "d": 381.5783749999973,
      "v": 79
    },
    {
      "midi": 67,
      "hit": false,
      "t": 49230.18931249999,
      "d": 664.4726874999978,
      "v": 95
    },
    {
      "midi": 55,
      "hit": false,
      "t": 49263.084000000046,
      "d": 605.2622499999998,
      "v": 87
    },
    {
      "midi": 57,
      "hit": false,
      "t": 49848.60943750005,
      "d": 585.5254375000004,
      "v": 78
    },
    {
      "midi": 69,
      "hit": false,
      "t": 49861.76731249999,
      "d": 697.3673749999944,
      "v": 95
    },
    {
      "midi": 55,
      "hit": false,
      "t": 50407.819125000045,
      "d": 1815.7867499999993,
      "v": 55
    },
    {
      "midi": 43,
      "hit": false,
      "t": 50407.819125000045,
      "d": 2664.469687500001,
      "v": 55
    },
    {
      "midi": 59,
      "hit": false,
      "t": 50414.39806250005,
      "d": 1763.1552499999962,
      "v": 72
    },
    {
      "midi": 31,
      "hit": false,
      "t": 50414.39806250005,
      "d": 2644.7328750000015,
      "v": 55
    },
    {
      "midi": 71,
      "hit": false,
      "t": 50493.34531249999,
      "d": 815.7882499999978,
      "v": 81
    },
    {
      "midi": 67,
      "hit": false,
      "t": 50493.34531249999,
      "d": 1315.7874999999985,
      "v": 81
    },
    {
      "midi": 71,
      "hit": false,
      "t": 51467.02806249999,
      "d": 164.4734374999971,
      "v": 98
    },
    {
      "midi": 71,
      "hit": false,
      "t": 51782.817062499984,
      "d": 361.84156250000524,
      "v": 95
    },
    {
      "midi": 69,
      "hit": false,
      "t": 52098.60606249999,
      "d": 322.36793749999924,
      "v": 86
    },
    {
      "midi": 67,
      "hit": false,
      "t": 52388.07931249999,
      "d": 532.8939374999973,
      "v": 95
    },
    {
      "midi": 48,
      "hit": false,
      "t": 52980.183687500044,
      "d": 1947.3654999999999,
      "v": 45
    },
    {
      "midi": 52,
      "hit": false,
      "t": 52980.183687500044,
      "d": 2006.575937499998,
      "v": 59
    },
    {
      "midi": 36,
      "hit": false,
      "t": 52980.183687500044,
      "d": 2532.8909375000003,
      "v": 59
    },
    {
      "midi": 55,
      "hit": false,
      "t": 53006.499437500046,
      "d": 1999.9969999999958,
      "v": 12
    },
    {
      "midi": 67,
      "hit": false,
      "t": 53059.13093749999,
      "d": 914.4723124999946,
      "v": 89
    },
    {
      "midi": 64,
      "hit": false,
      "t": 53960.44537499999,
      "d": 1322.3664374999935,
      "v": 95
    },
    {
      "midi": 62,
      "hit": false,
      "t": 55263.07499999998,
      "d": 223.68387500000244,
      "v": 90
    },
    {
      "midi": 54,
      "hit": false,
      "t": 55506.49568750004,
      "d": 1440.7873125000042,
      "v": 50
    },
    {
      "midi": 50,
      "hit": false,
      "t": 55506.49568750004,
      "d": 1453.9451875000013,
      "v": 55
    },
    {
      "midi": 57,
      "hit": false,
      "t": 55506.49568750004,
      "d": 1513.1556249999994,
      "v": 46
    },
    {
      "midi": 38,
      "hit": false,
      "t": 55506.49568750004,
      "d": 2578.943500000001,
      "v": 65
    },
    {
      "midi": 69,
      "hit": false,
      "t": 55572.285062499985,
      "d": 796.0514374999984,
      "v": 73
    },
    {
      "midi": 62,
      "hit": false,
      "t": 55572.285062499985,
      "d": 802.6303750000006,
      "v": 86
    },
    {
      "midi": 66,
      "hit": false,
      "t": 55578.86399999999,
      "d": 796.0514374999984,
      "v": 87
    },
    {
      "midi": 69,
      "hit": false,
      "t": 56480.178437499984,
      "d": 138.1576875000028,
      "v": 81
    },
    {
      "midi": 62,
      "hit": false,
      "t": 56486.75737499999,
      "d": 105.26299999999901,
      "v": 79
    },
    {
      "midi": 66,
      "hit": false,
      "t": 56486.75737499999,
      "d": 105.26299999999901,
      "v": 85
    },
    {
      "midi": 69,
      "hit": false,
      "t": 56809.125312499986,
      "d": 131.57875000000058,
      "v": 81
    },
    {
      "midi": 66,
      "hit": false,
      "t": 56835.44106249999,
      "d": 85.52618749999965,
      "v": 64
    },
    {
      "midi": 62,
      "hit": false,
      "t": 56835.44106249999,
      "d": 131.57875000000058,
      "v": 82
    },
    {
      "midi": 71,
      "hit": false,
      "t": 57118.33537499999,
      "d": 111.84193750000122,
      "v": 95
    },
    {
      "midi": 72,
      "hit": false,
      "t": 57427.54543749999,
      "d": 552.6307499999966,
      "v": 91
    },
    {
      "midi": 71,
      "hit": false,
      "t": 58019.649812499985,
      "d": 1664.4711874999994,
      "v": 85
    },
    {
      "midi": 43,
      "hit": false,
      "t": 58026.22875000004,
      "d": 2046.049562500004,
      "v": 42
    },
    {
      "midi": 55,
      "hit": false,
      "t": 58032.80768750004,
      "d": 671.0516250000001,
      "v": 61
    },
    {
      "midi": 31,
      "hit": false,
      "t": 58032.80768750004,
      "d": 1973.6812500000015,
      "v": 52
    },
    {
      "midi": 59,
      "hit": false,
      "t": 58059.12343750004,
      "d": 736.8410000000003,
      "v": 67
    },
    {
      "midi": 55,
      "hit": false,
      "t": 59052.54300000004,
      "d": 388.15731249999953,
      "v": 63
    },
    {
      "midi": 62,
      "hit": false,
      "t": 59374.91093750004,
      "d": 92.10512500000186,
      "v": 82
    },
    {
      "midi": 59,
      "hit": false,
      "t": 59967.01531250004,
      "d": 342.1047499999986,
      "v": 83
    },
    {
      "midi": 71,
      "hit": false,
      "t": 59993.33106249999,
      "d": 315.78899999999703,
      "v": 89
    },
    {
      "midi": 67,
      "hit": false,
      "t": 59993.33106249999,
      "d": 355.26262499999575,
      "v": 91
    },
    {
      "midi": 60,
      "hit": false,
      "t": 60309.12006250004,
      "d": 315.7890000000043,
      "v": 87
    },
    {
      "midi": 72,
      "hit": false,
      "t": 60315.698999999986,
      "d": 263.1574999999939,
      "v": 89
    },
    {
      "midi": 69,
      "hit": false,
      "t": 60315.698999999986,
      "d": 276.31537499999104,
      "v": 90
    },
    {
      "midi": 43,
      "hit": false,
      "t": 60598.593312500045,
      "d": 1263.1560000000027,
      "v": 79
    },
    {
      "midi": 59,
      "hit": false,
      "t": 60598.593312500045,
      "d": 1276.3138749999998,
      "v": 85
    },
    {
      "midi": 74,
      "hit": false,
      "t": 60631.487999999976,
      "d": 618.4201249999969,
      "v": 95
    },
    {
      "midi": 71,
      "hit": false,
      "t": 60638.06693749998,
      "d": 1256.5770625000005,
      "v": 89
    },
    {
      "midi": 50,
      "hit": false,
      "t": 61230.171312500046,
      "d": 72.3683125000025,
      "v": 99
    },
    {
      "midi": 62,
      "hit": false,
      "t": 61256.487062499975,
      "d": 85.52618749999965,
      "v": 98
    },
    {
      "midi": 67,
      "hit": false,
      "t": 61256.487062499975,
      "d": 1078.945749999999,
      "v": 96
    },
    {
      "midi": 62,
      "hit": false,
      "t": 61822.27568750005,
      "d": 434.2098749999932,
      "v": 104
    },
    {
      "midi": 74,
      "hit": false,
      "t": 61888.065062499976,
      "d": 434.20987500000047,
      "v": 90
    },
    {
      "midi": 60,
      "hit": false,
      "t": 62217.01193750004,
      "d": 907.8933749999997,
      "v": 101
    },
    {
      "midi": 72,
      "hit": false,
      "t": 62243.32768749998,
      "d": 651.3148125000007,
      "v": 93
    },
    {
      "midi": 71,
      "hit": false,
      "t": 62842.01099999998,
      "d": 322.3679375000065,
      "v": 96
    },
    {
      "midi": 40,
      "hit": false,
      "t": 63124.90531250004,
      "d": 1631.5764999999956,
      "v": 46
    },
    {
      "midi": 59,
      "hit": false,
      "t": 63124.90531250004,
      "d": 1868.4182500000024,
      "v": 77
    },
    {
      "midi": 55,
      "hit": false,
      "t": 63124.90531250004,
      "d": 1894.734000000004,
      "v": 82
    },
    {
      "midi": 47,
      "hit": false,
      "t": 63151.221062500044,
      "d": 1677.6290624999965,
      "v": 73
    },
    {
      "midi": 69,
      "hit": false,
      "t": 63157.79999999998,
      "d": 651.3148125000007,
      "v": 91
    },
    {
      "midi": 64,
      "hit": false,
      "t": 64348.58768749998,
      "d": 493.42031249999854,
      "v": 87
    },
    {
      "midi": 67,
      "hit": false,
      "t": 64374.90343749998,
      "d": 532.8939374999973,
      "v": 79
    },
    {
      "midi": 71,
      "hit": false,
      "t": 64374.90343749998,
      "d": 532.8939374999973,
      "v": 81
    },
    {
      "midi": 69,
      "hit": false,
      "t": 64934.11312499998,
      "d": 381.5783749999973,
      "v": 89
    },
    {
      "midi": 57,
      "hit": false,
      "t": 64967.007812500044,
      "d": 322.3679375000065,
      "v": 83
    },
    {
      "midi": 59,
      "hit": false,
      "t": 65243.32318750005,
      "d": 361.84156250000524,
      "v": 84
    },
    {
      "midi": 71,
      "hit": false,
      "t": 65282.79681249998,
      "d": 289.47325000000274,
      "v": 94
    },
    {
      "midi": 60,
      "hit": false,
      "t": 65559.11218750005,
      "d": 1980.2601874999964,
      "v": 80
    },
    {
      "midi": 57,
      "hit": false,
      "t": 65559.11218750005,
      "d": 2013.154874999993,
      "v": 79
    },
    {
      "midi": 33,
      "hit": false,
      "t": 65565.69112500006,
      "d": 2677.6275624999835,
      "v": 65
    },
    {
      "midi": 45,
      "hit": false,
      "t": 65565.69112500006,
      "d": 2703.9433124999778,
      "v": 63
    },
    {
      "midi": 72,
      "hit": false,
      "t": 65598.58581249998,
      "d": 638.1569375000108,
      "v": 89
    },
    {
      "midi": 69,
      "hit": false,
      "t": 65605.16474999998,
      "d": 690.7884374999994,
      "v": 82
    },
    {
      "midi": 71,
      "hit": false,
      "t": 66269.63743749999,
      "d": 631.5779999999941,
      "v": 93
    },
    {
      "midi": 69,
      "hit": false,
      "t": 66874.89968749999,
      "d": 703.9463124999893,
      "v": 89
    },
    {
      "midi": 55,
      "hit": false,
      "t": 67532.79343750005,
      "d": 78.94724999999744,
      "v": 85
    },
    {
      "midi": 67,
      "hit": false,
      "t": 67539.37237499998,
      "d": 78.94724999999744,
      "v": 94
    },
    {
      "midi": 62,
      "hit": false,
      "t": 68177.52931249997,
      "d": 592.1043749999953,
      "v": 83
    },
    {
      "midi": 69,
      "hit": false,
      "t": 68177.52931249997,
      "d": 611.841187500002,
      "v": 70
    },
    {
      "midi": 66,
      "hit": false,
      "t": 68177.52931249997,
      "d": 638.1569374999963,
      "v": 81
    },
    {
      "midi": 38,
      "hit": false,
      "t": 68203.84506250004,
      "d": 2539.46987500001,
      "v": 72
    },
    {
      "midi": 50,
      "hit": false,
      "t": 68210.42400000004,
      "d": 736.8410000000003,
      "v": 72
    },
    {
      "midi": 54,
      "hit": false,
      "t": 68210.42400000004,
      "d": 848.6829374999943,
      "v": 74
    },
    {
      "midi": 57,
      "hit": false,
      "t": 68210.42400000004,
      "d": 947.3669999999984,
      "v": 62
    },
    {
      "midi": 50,
      "hit": false,
      "t": 69164.36993750004,
      "d": 1328.9453750000102,
      "v": 89
    },
    {
      "midi": 62,
      "hit": false,
      "t": 69427.52743749997,
      "d": 605.2622499999998,
      "v": 95
    },
    {
      "midi": 54,
      "hit": false,
      "t": 69480.15893750005,
      "d": 1006.5774375000037,
      "v": 93
    },
    {
      "midi": 57,
      "hit": false,
      "t": 69756.47431250005,
      "d": 894.7354999999952,
      "v": 76
    },
    {
      "midi": 71,
      "hit": false,
      "t": 70072.26331249997,
      "d": 388.15731249999953,
      "v": 91
    },
    {
      "midi": 60,
      "hit": false,
      "t": 70072.26331250006,
      "d": 638.1569374999963,
      "v": 92
    },
    {
      "midi": 72,
      "hit": false,
      "t": 70414.36806249997,
      "d": 92.10512500000186,
      "v": 83
    },
    {
      "midi": 59,
      "hit": false,
      "t": 70690.68343750005,
      "d": 1460.5241249999963,
      "v": 58
    },
    {
      "midi": 55,
      "hit": false,
      "t": 70697.26237500005,
      "d": 1374.9979374999966,
      "v": 78
    },
    {
      "midi": 43,
      "hit": false,
      "t": 70697.26237500005,
      "d": 1473.6820000000007,
      "v": 64
    },
    {
      "midi": 62,
      "hit": false,
      "t": 70730.15706249997,
      "d": 2190.78618749998,
      "v": 69
    },
    {
      "midi": 74,
      "hit": false,
      "t": 70743.31493749998,
      "d": 230.2628124999901,
      "v": 64
    },
    {
      "midi": 74,
      "hit": false,
      "t": 71085.41968749996,
      "d": 111.84193749999395,
      "v": 82
    },
    {
      "midi": 74,
      "hit": false,
      "t": 71374.89293749996,
      "d": 171.0523749999993,
      "v": 74
    },
    {
      "midi": 74,
      "hit": false,
      "t": 71677.52406249996,
      "d": 552.6307499999966,
      "v": 95
    },
    {
      "midi": 72,
      "hit": false,
      "t": 72230.15481249995,
      "d": 52.63150000000314,
      "v": 78
    },
    {
      "midi": 74,
      "hit": false,
      "t": 72309.10206249995,
      "d": 92.10512500000186,
      "v": 83
    },
    {
      "midi": 72,
      "hit": false,
      "t": 72388.04931249995,
      "d": 342.1047499999986,
      "v": 102
    },
    {
      "midi": 71,
      "hit": false,
      "t": 72703.83831249995,
      "d": 302.6311249999999,
      "v": 99
    },
    {
      "midi": 72,
      "hit": false,
      "t": 72993.31156249995,
      "d": 276.3153750000056,
      "v": 100
    },
    {
      "midi": 47,
      "hit": false,
      "t": 73269.62693750006,
      "d": 1927.6286874999932,
      "v": 55
    },
    {
      "midi": 71,
      "hit": false,
      "t": 73295.94268749995,
      "d": 467.104562499997,
      "v": 95
    },
    {
      "midi": 74,
      "hit": false,
      "t": 73295.94268749995,
      "d": 506.5781874999957,
      "v": 95
    },
    {
      "midi": 65,
      "hit": false,
      "t": 73295.94268749995,
      "d": 1901.3129375000135,
      "v": 73
    },
    {
      "midi": 59,
      "hit": false,
      "t": 73295.94268750005,
      "d": 1453.945187499994,
      "v": 46
    },
    {
      "midi": 62,
      "hit": false,
      "t": 73295.94268750005,
      "d": 1460.5241249999963,
      "v": 78
    },
    {
      "midi": 35,
      "hit": false,
      "t": 73295.94268750005,
      "d": 2460.522624999998,
      "v": 60
    },
    {
      "midi": 74,
      "hit": false,
      "t": 73901.20493749995,
      "d": 328.94687500000873,
      "v": 99
    },
    {
      "midi": 76,
      "hit": false,
      "t": 74210.41499999995,
      "d": 348.6836875000008,
      "v": 95
    },
    {
      "midi": 74,
      "hit": false,
      "t": 74519.62506249995,
      "d": 657.8937500000029,
      "v": 100
    },
    {
      "midi": 71,
      "hit": false,
      "t": 75151.20306249995,
      "d": 342.10475000001315,
      "v": 89
    },
    {
      "midi": 62,
      "hit": false,
      "t": 75164.36093749995,
      "d": 52.631500000017695,
      "v": 94
    },
    {
      "midi": 72,
      "hit": false,
      "t": 75466.99206249996,
      "d": 322.36793749999197,
      "v": 91
    },
    {
      "midi": 62,
      "hit": false,
      "t": 75782.78106249995,
      "d": 657.8937500000175,
      "v": 86
    },
    {
      "midi": 57,
      "hit": false,
      "t": 75782.78106250004,
      "d": 572.3675625000033,
      "v": 63
    },
    {
      "midi": 38,
      "hit": false,
      "t": 75782.78106250004,
      "d": 657.8937500000029,
      "v": 62
    },
    {
      "midi": 69,
      "hit": false,
      "t": 75795.93893749996,
      "d": 624.9990625000064,
      "v": 78
    },
    {
      "midi": 74,
      "hit": false,
      "t": 75795.93893749996,
      "d": 697.3673750000162,
      "v": 98
    },
    {
      "midi": 57,
      "hit": false,
      "t": 76427.51693750004,
      "d": 578.9465000000055,
      "v": 79
    },
    {
      "midi": 74,
      "hit": false,
      "t": 76730.14806249998,
      "d": 348.6836875000008,
      "v": 98
    },
    {
      "midi": 55,
      "hit": false,
      "t": 77006.46343750005,
      "d": 697.3673750000162,
      "v": 76
    },
    {
      "midi": 43,
      "hit": false,
      "t": 77013.04237500005,
      "d": 1263.1560000000027,
      "v": 50
    },
    {
      "midi": 31,
      "hit": false,
      "t": 77019.62131250005,
      "d": 1256.5770625000005,
      "v": 52
    },
    {
      "midi": 72,
      "hit": false,
      "t": 77045.93706249999,
      "d": 631.5779999999941,
      "v": 95
    },
    {
      "midi": 62,
      "hit": false,
      "t": 77638.04143749998,
      "d": 59.210437500005355,
      "v": 93
    },
    {
      "midi": 59,
      "hit": false,
      "t": 77644.62037500006,
      "d": 131.57875000000058,
      "v": 83
    },
    {
      "midi": 71,
      "hit": false,
      "t": 77651.19931249999,
      "d": 85.52618749999965,
      "v": 89
    },
    {
      "midi": 48,
      "hit": false,
      "t": 78243.30368750005,
      "d": 1585.5239375000092,
      "v": 62
    },
    {
      "midi": 60,
      "hit": false,
      "t": 78269.61943749999,
      "d": 263.15750000000116,
      "v": 79
    },
    {
      "midi": 67,
      "hit": false,
      "t": 78269.61943749999,
      "d": 1440.7873125000042,
      "v": 89
    },
    {
      "midi": 72,
      "hit": false,
      "t": 78269.61943749999,
      "d": 1973.6812499999942,
      "v": 82
    },
    {
      "midi": 36,
      "hit": false,
      "t": 78269.61943750005,
      "d": 1624.997562500008,
      "v": 62
    },
    {
      "midi": 67,
      "hit": false,
      "t": 80216.98493749999,
      "d": 197.3681249999936,
      "v": 95
    },
    {
      "midi": 67,
      "hit": false,
      "t": 80493.30031249998,
      "d": 177.6313125000015,
      "v": 82
    },
    {
      "midi": 36,
      "hit": false,
      "t": 80795.93143750005,
      "d": 684.2095000000118,
      "v": 65
    },
    {
      "midi": 55,
      "hit": false,
      "t": 80795.93143750005,
      "d": 776.3146250000136,
      "v": 77
    },
    {
      "midi": 60,
      "hit": false,
      "t": 80809.08931250006,
      "d": 717.1041875000083,
      "v": 65
    },
    {
      "midi": 72,
      "hit": false,
      "t": 80835.40506249998,
      "d": 473.6834999999992,
      "v": 73
    },
    {
      "midi": 76,
      "hit": false,
      "t": 80835.40506249998,
      "d": 480.2624375000014,
      "v": 73
    },
    {
      "midi": 67,
      "hit": false,
      "t": 80835.40506249998,
      "d": 486.8413750000036,
      "v": 74
    },
    {
      "midi": 67,
      "hit": false,
      "t": 81480.14093749998,
      "d": 361.8415624999907,
      "v": 85
    },
    {
      "midi": 76,
      "hit": false,
      "t": 81480.14093749998,
      "d": 368.4204999999929,
      "v": 75
    },
    {
      "midi": 72,
      "hit": false,
      "t": 81506.45668749997,
      "d": 368.4204999999929,
      "v": 81
    },
    {
      "midi": 54,
      "hit": false,
      "t": 82032.77168750006,
      "d": 1223.682375000004,
      "v": 63
    },
    {
      "midi": 38,
      "hit": false,
      "t": 82032.77168750006,
      "d": 1269.734937500005,
      "v": 58
    },
    {
      "midi": 50,
      "hit": false,
      "t": 82032.77168750006,
      "d": 1302.6296250000014,
      "v": 45
    },
    {
      "midi": 57,
      "hit": false,
      "t": 82059.08743750006,
      "d": 1197.3666250000097,
      "v": 37
    },
    {
      "midi": 67,
      "hit": false,
      "t": 82065.66637499997,
      "d": 315.7890000000043,
      "v": 79
    },
    {
      "midi": 76,
      "hit": false,
      "t": 82072.24531249997,
      "d": 368.42050000000745,
      "v": 79
    },
    {
      "midi": 72,
      "hit": false,
      "t": 82098.56106249997,
      "d": 282.8943125000078,
      "v": 69
    },
    {
      "midi": 74,
      "hit": false,
      "t": 82374.87643749997,
      "d": 289.47325000001,
      "v": 91
    },
    {
      "midi": 72,
      "hit": false,
      "t": 82664.34968749998,
      "d": 618.4201250000042,
      "v": 98
    },
    {
      "midi": 43,
      "hit": false,
      "t": 83256.45406250007,
      "d": 1368.4189999999944,
      "v": 75
    },
    {
      "midi": 74,
      "hit": false,
      "t": 83282.76981249999,
      "d": 1342.1032499999856,
      "v": 89
    },
    {
      "midi": 59,
      "hit": false,
      "t": 83282.76981250006,
      "d": 1322.3664374999935,
      "v": 60
    },
    {
      "midi": 55,
      "hit": false,
      "t": 83289.34875000006,
      "d": 1019.7353124999936,
      "v": 62
    },
    {
      "midi": 52,
      "hit": false,
      "t": 84598.55731250005,
      "d": 605.2622500000143,
      "v": 79
    },
    {
      "midi": 40,
      "hit": false,
      "t": 84598.55731250005,
      "d": 717.1041875000083,
      "v": 69
    },
    {
      "midi": 71,
      "hit": false,
      "t": 84624.87306249997,
      "d": 631.5779999999941,
      "v": 82
    },
    {
      "midi": 69,
      "hit": false,
      "t": 85230.13531249997,
      "d": 276.31537499999104,
      "v": 81
    },
    {
      "midi": 71,
      "hit": false,
      "t": 85532.76643749996,
      "d": 302.6311249999999,
      "v": 82
    },
    {
      "midi": 72,
      "hit": false,
      "t": 85848.55543749996,
      "d": 453.9466875000071,
      "v": 91
    },
    {
      "midi": 60,
      "hit": false,
      "t": 85848.55543750006,
      "d": 585.5254375000077,
      "v": 78
    },
    {
      "midi": 33,
      "hit": false,
      "t": 85848.55543750006,
      "d": 1282.8928125000093,
      "v": 60
    },
    {
      "midi": 45,
      "hit": false,
      "t": 85848.55543750006,
      "d": 1302.629625000016,
      "v": 52
    },
    {
      "midi": 72,
      "hit": false,
      "t": 86493.29131249998,
      "d": 513.1571249999834,
      "v": 89
    },
    {
      "midi": 64,
      "hit": false,
      "t": 86519.60706249997,
      "d": 72.36831249999523,
      "v": 79
    },
    {
      "midi": 54,
      "hit": false,
      "t": 87111.71143750007,
      "d": 671.0516250000073,
      "v": 70
    },
    {
      "midi": 38,
      "hit": false,
      "t": 87111.71143750007,
      "d": 690.788437500014,
      "v": 69
    },
    {
      "midi": 50,
      "hit": false,
      "t": 87111.71143750007,
      "d": 690.788437500014,
      "v": 71
    },
    {
      "midi": 57,
      "hit": false,
      "t": 87111.71143750007,
      "d": 743.4199375000171,
      "v": 58
    },
    {
      "midi": 72,
      "hit": false,
      "t": 87124.86931249996,
      "d": 348.6836875000008,
      "v": 89
    },
    {
      "midi": 71,
      "hit": false,
      "t": 87440.65831249996,
      "d": 618.4201249999896,
      "v": 94
    },
    {
      "midi": 67,
      "hit": false,
      "t": 88059.07843749995,
      "d": 197.3681249999936,
      "v": 89
    },
    {
      "midi": 69,
      "hit": false,
      "t": 88374.86743749994,
      "d": 657.8937500000029,
      "v": 90
    },
    {
      "midi": 43,
      "hit": false,
      "t": 88374.86743750008,
      "d": 921.0512500000186,
      "v": 53
    },
    {
      "midi": 59,
      "hit": false,
      "t": 88388.02531250009,
      "d": 881.5776250000054,
      "v": 70
    },
    {
      "midi": 31,
      "hit": false,
      "t": 88388.02531250009,
      "d": 888.1565625000076,
      "v": 62
    },
    {
      "midi": 55,
      "hit": false,
      "t": 88388.02531250009,
      "d": 888.1565625000076,
      "v": 59
    },
    {
      "midi": 62,
      "hit": false,
      "t": 89006.44543749995,
      "d": 59.2104374999908,
      "v": 87
    },
    {
      "midi": 67,
      "hit": false,
      "t": 89006.44543749995,
      "d": 111.84193749999395,
      "v": 89
    },
    {
      "midi": 66,
      "hit": false,
      "t": 89638.02343749994,
      "d": 72.36831249999523,
      "v": 95
    },
    {
      "midi": 69,
      "hit": false,
      "t": 89638.02343749994,
      "d": 72.36831249999523,
      "v": 68
    },
    {
      "midi": 71,
      "hit": false,
      "t": 90276.18037499994,
      "d": 111.8419375000085,
      "v": 91
    },
    {
      "midi": 67,
      "hit": false,
      "t": 90282.75931249994,
      "d": 92.10512500000186,
      "v": 81
    },
    {
      "midi": 74,
      "hit": false,
      "t": 90953.81093749995,
      "d": 552.6307500000112,
      "v": 107
    },
    {
      "midi": 62,
      "hit": false,
      "t": 91295.91568749995,
      "d": 59.210437500005355,
      "v": 95
    },
    {
      "midi": 67,
      "hit": false,
      "t": 91585.38893749996,
      "d": 138.1576875000028,
      "v": 89
    },
    {
      "midi": 66,
      "hit": false,
      "t": 92243.28268749996,
      "d": 98.68406250000407,
      "v": 93
    },
    {
      "midi": 69,
      "hit": false,
      "t": 92243.28268749996,
      "d": 572.3675625000033,
      "v": 89
    },
    {
      "midi": 67,
      "hit": false,
      "t": 92835.38706249997,
      "d": 59.210437500005355,
      "v": 89
    },
    {
      "midi": 71,
      "hit": false,
      "t": 92835.38706249997,
      "d": 59.210437500005355,
      "v": 95
    }
  ]
}