{
  "jsonPath": "Soundtracks/Video Game Music/Donkey Kong Country 3/donkey-kong-country-3-millfever.json",
  "path": "Soundtracks\\Video Game Music\\Donkey Kong Country 3\\Donkey_Kong_Country_3_MillFever.mid",
  "name": "Donkey_Kong_Country_3_MillFever",
  "difficulty": "Advanced",
  "bpm": 175.00007291669704,
  "notes": [
    {
      "midi": 67,
      "hit": false,
      "t": 0,
      "d": 252.14275208333333,
      "v": 96
    },
    {
      "midi": 67,
      "hit": false,
      "t": 257.14275,
      "d": 80.71425208333335,
      "v": 96
    },
    {
      "midi": 66,
      "hit": false,
      "t": 342.85699999999997,
      "d": 252.14275208333333,
      "v": 96
    },
    {
      "midi": 67,
      "hit": false,
      "t": 599.99975,
      "d": 766.4282520833333,
      "v": 96
    },
    {
      "midi": 65,
      "hit": false,
      "t": 1628.5707499999999,
      "d": 80.71425208333335,
      "v": 96
    },
    {
      "midi": 65,
      "hit": false,
      "t": 1714.2849999999999,
      "d": 252.14275208333333,
      "v": 96
    },
    {
      "midi": 60,
      "hit": false,
      "t": 1971.4277499999998,
      "d": 80.71425208333312,
      "v": 96
    },
    {
      "midi": 63,
      "hit": false,
      "t": 2057.142,
      "d": 166.42850208333311,
      "v": 96
    },
    {
      "midi": 65,
      "hit": false,
      "t": 2228.5705,
      "d": 509.2855020833331,
      "v": 96
    },
    {
      "midi": 67,
      "hit": false,
      "t": 2742.8559999999998,
      "d": 252.1427520833331,
      "v": 96
    },
    {
      "midi": 67,
      "hit": false,
      "t": 2999.9987499999997,
      "d": 80.71425208333312,
      "v": 96
    },
    {
      "midi": 67,
      "hit": false,
      "t": 3085.7129999999997,
      "d": 252.1427520833331,
      "v": 96
    },
    {
      "midi": 67,
      "hit": false,
      "t": 3342.8557499999997,
      "d": 80.71425208333312,
      "v": 96
    },
    {
      "midi": 65,
      "hit": false,
      "t": 3428.5699999999997,
      "d": 252.1427520833331,
      "v": 96
    },
    {
      "midi": 63,
      "hit": false,
      "t": 3685.7127499999997,
      "d": 80.71425208333312,
      "v": 96
    },
    {
      "midi": 60,
      "hit": false,
      "t": 4028.5697499999997,
      "d": 80.71425208333312,
      "v": 96
    },
    {
      "midi": 55,
      "hit": false,
      "t": 5057.14075,
      "d": 80.71425208333312,
      "v": 96
    },
    {
      "midi": 58,
      "hit": false,
      "t": 5142.855,
      "d": 252.1427520833331,
      "v": 96
    },
    {
      "midi": 60,
      "hit": false,
      "t": 5399.9977499999995,
      "d": 80.71425208333312,
      "v": 96
    },
    {
      "midi": 67,
      "hit": false,
      "t": 5485.7119999999995,
      "d": 252.1427520833331,
      "v": 96
    },
    {
      "midi": 67,
      "hit": false,
      "t": 5742.8547499999995,
      "d": 80.71425208333312,
      "v": 96
    },
    {
      "midi": 66,
      "hit": false,
      "t": 5828.5689999999995,
      "d": 252.1427520833331,
      "v": 96
    },
    {
      "midi": 67,
      "hit": false,
      "t": 6085.7117499999995,
      "d": 766.4282520833331,
      "v": 96
    },
    {
      "midi": 65,
      "hit": false,
      "t": 7114.282749999999,
      "d": 80.71425208333312,
      "v": 96
    },
    {
      "midi": 65,
      "hit": false,
      "t": 7199.996999999999,
      "d": 252.1427520833331,
      "v": 96
    },
    {
      "midi": 60,
      "hit": false,
      "t": 7457.139749999999,
      "d": 80.71425208333312,
      "v": 96
    },
    {
      "midi": 63,
      "hit": false,
      "t": 7542.853999999999,
      "d": 166.42850208333311,
      "v": 96
    },
    {
      "midi": 65,
      "hit": false,
      "t": 7714.282499999999,
      "d": 337.8570020833331,
      "v": 96
    },
    {
      "midi": 60,
      "hit": false,
      "t": 8057.139499999999,
      "d": 166.42850208333402,
      "v": 96
    },
    {
      "midi": 67,
      "hit": false,
      "t": 8228.568,
      "d": 252.1427520833331,
      "v": 96
    },
    {
      "midi": 67,
      "hit": false,
      "t": 8485.710749999998,
      "d": 80.71425208333312,
      "v": 96
    },
    {
      "midi": 72,
      "hit": false,
      "t": 8571.424999999997,
      "d": 252.1427520833331,
      "v": 96
    },
    {
      "midi": 72,
      "hit": false,
      "t": 8828.567749999997,
      "d": 80.71425208333312,
      "v": 96
    },
    {
      "midi": 65,
      "hit": false,
      "t": 8914.281999999996,
      "d": 252.1427520833331,
      "v": 96
    },
    {
      "midi": 63,
      "hit": false,
      "t": 9171.424749999995,
      "d": 80.71425208333312,
      "v": 96
    },
    {
      "midi": 60,
      "hit": false,
      "t": 9514.281749999995,
      "d": 337.857002083334,
      "v": 96
    },
    {
      "midi": 60,
      "hit": false,
      "t": 9857.138749999995,
      "d": 80.71425208333312,
      "v": 96
    },
    {
      "midi": 58,
      "hit": false,
      "t": 9942.852999999994,
      "d": 252.1427520833331,
      "v": 96
    },
    {
      "midi": 60,
      "hit": false,
      "t": 10199.995749999993,
      "d": 80.71425208333312,
      "v": 96
    },
    {
      "midi": 63,
      "hit": false,
      "t": 10285.709999999992,
      "d": 337.857002083334,
      "v": 96
    },
    {
      "midi": 60,
      "hit": false,
      "t": 10628.566999999992,
      "d": 337.857002083334,
      "v": 96
    },
    {
      "midi": 67,
      "hit": false,
      "t": 10971.423999999992,
      "d": 252.1427520833331,
      "v": 96
    },
    {
      "midi": 72,
      "hit": false,
      "t": 10971.423999999992,
      "d": 252.1427520833331,
      "v": 96
    },
    {
      "midi": 48,
      "hit": false,
      "t": 10971.423999999999,
      "d": 337.857002083334,
      "v": 96
    },
    {
      "midi": 67,
      "hit": false,
      "t": 11228.56674999999,
      "d": 80.71425208333312,
      "v": 96
    },
    {
      "midi": 72,
      "hit": false,
      "t": 11228.56674999999,
      "d": 80.71425208333312,
      "v": 96
    },
    {
      "midi": 67,
      "hit": false,
      "t": 11314.28099999999,
      "d": 166.42850208333402,
      "v": 96
    },
    {
      "midi": 72,
      "hit": false,
      "t": 11314.28099999999,
      "d": 166.42850208333402,
      "v": 96
    },
    {
      "midi": 48,
      "hit": false,
      "t": 11314.280999999999,
      "d": 337.857002083334,
      "v": 96
    },
    {
      "midi": 67,
      "hit": false,
      "t": 11657.13799999999,
      "d": 252.1427520833331,
      "v": 96
    },
    {
      "midi": 72,
      "hit": false,
      "t": 11657.13799999999,
      "d": 252.1427520833331,
      "v": 96
    },
    {
      "midi": 67,
      "hit": false,
      "t": 11914.280749999989,
      "d": 80.71425208333312,
      "v": 96
    },
    {
      "midi": 72,
      "hit": false,
      "t": 11914.280749999989,
      "d": 80.71425208333312,
      "v": 96
    },
    {
      "midi": 67,
      "hit": false,
      "t": 11999.994999999988,
      "d": 166.42850208333402,
      "v": 96
    },
    {
      "midi": 72,
      "hit": false,
      "t": 11999.994999999988,
      "d": 166.42850208333402,
      "v": 96
    },
    {
      "midi": 67,
      "hit": false,
      "t": 12685.708999999988,
      "d": 252.1427520833331,
      "v": 96
    },
    {
      "midi": 72,
      "hit": false,
      "t": 12685.708999999988,
      "d": 252.1427520833331,
      "v": 96
    },
    {
      "midi": 67,
      "hit": false,
      "t": 12942.851749999987,
      "d": 80.71425208333312,
      "v": 96
    },
    {
      "midi": 72,
      "hit": false,
      "t": 12942.851749999987,
      "d": 80.71425208333312,
      "v": 96
    },
    {
      "midi": 46,
      "hit": false,
      "t": 13199.9945,
      "d": 509.285502083334,
      "v": 96
    },
    {
      "midi": 67,
      "hit": false,
      "t": 13371.422999999986,
      "d": 252.1427520833331,
      "v": 96
    },
    {
      "midi": 72,
      "hit": false,
      "t": 13371.422999999986,
      "d": 252.1427520833331,
      "v": 96
    },
    {
      "midi": 67,
      "hit": false,
      "t": 13628.565749999985,
      "d": 80.71425208333312,
      "v": 96
    },
    {
      "midi": 72,
      "hit": false,
      "t": 13628.565749999985,
      "d": 80.71425208333312,
      "v": 96
    },
    {
      "midi": 67,
      "hit": false,
      "t": 13714.279999999984,
      "d": 252.1427520833331,
      "v": 96
    },
    {
      "midi": 72,
      "hit": false,
      "t": 13714.279999999984,
      "d": 252.1427520833331,
      "v": 96
    },
    {
      "midi": 48,
      "hit": false,
      "t": 13714.28,
      "d": 337.857002083334,
      "v": 96
    },
    {
      "midi": 67,
      "hit": false,
      "t": 13971.422749999983,
      "d": 80.71425208333312,
      "v": 96
    },
    {
      "midi": 72,
      "hit": false,
      "t": 13971.422749999983,
      "d": 80.71425208333312,
      "v": 96
    },
    {
      "midi": 67,
      "hit": false,
      "t": 14057.136999999982,
      "d": 166.42850208333402,
      "v": 96
    },
    {
      "midi": 72,
      "hit": false,
      "t": 14057.136999999982,
      "d": 166.42850208333402,
      "v": 96
    },
    {
      "midi": 48,
      "hit": false,
      "t": 14057.137,
      "d": 337.857002083334,
      "v": 96
    },
    {
      "midi": 67,
      "hit": false,
      "t": 14399.993999999982,
      "d": 252.1427520833331,
      "v": 96
    },
    {
      "midi": 72,
      "hit": false,
      "t": 14399.993999999982,
      "d": 252.1427520833331,
      "v": 96
    },
    {
      "midi": 67,
      "hit": false,
      "t": 14657.136749999981,
      "d": 80.71425208333312,
      "v": 96
    },
    {
      "midi": 72,
      "hit": false,
      "t": 14657.136749999981,
      "d": 80.71425208333312,
      "v": 96
    },
    {
      "midi": 67,
      "hit": false,
      "t": 14742.85099999998,
      "d": 166.42850208333402,
      "v": 96
    },
    {
      "midi": 72,
      "hit": false,
      "t": 14742.85099999998,
      "d": 166.42850208333402,
      "v": 96
    },
    {
      "midi": 67,
      "hit": false,
      "t": 15428.56499999998,
      "d": 252.1427520833331,
      "v": 96
    },
    {
      "midi": 72,
      "hit": false,
      "t": 15428.56499999998,
      "d": 252.1427520833331,
      "v": 96
    },
    {
      "midi": 46,
      "hit": false,
      "t": 15599.9935,
      "d": 337.857002083334,
      "v": 96
    },
    {
      "midi": 67,
      "hit": false,
      "t": 15685.70774999998,
      "d": 80.71425208333312,
      "v": 96
    },
    {
      "midi": 72,
      "hit": false,
      "t": 15685.70774999998,
      "d": 80.71425208333312,
      "v": 96
    },
    {
      "midi": 67,
      "hit": false,
      "t": 15771.421999999979,
      "d": 252.1427520833331,
      "v": 96
    },
    {
      "midi": 72,
      "hit": false,
      "t": 15771.421999999979,
      "d": 252.1427520833331,
      "v": 96
    },
    {
      "midi": 48,
      "hit": false,
      "t": 15942.8505,
      "d": 166.42850208333402,
      "v": 96
    },
    {
      "midi": 67,
      "hit": false,
      "t": 16028.564749999978,
      "d": 80.71425208333312,
      "v": 96
    },
    {
      "midi": 72,
      "hit": false,
      "t": 16028.564749999978,
      "d": 80.71425208333312,
      "v": 96
    },
    {
      "midi": 67,
      "hit": false,
      "t": 16114.278999999977,
      "d": 252.1427520833331,
      "v": 96
    },
    {
      "midi": 72,
      "hit": false,
      "t": 16114.278999999977,
      "d": 252.1427520833331,
      "v": 96
    },
    {
      "midi": 49,
      "hit": false,
      "t": 16114.279,
      "d": 337.857002083334,
      "v": 96
    },
    {
      "midi": 67,
      "hit": false,
      "t": 16371.421749999976,
      "d": 80.71425208333312,
      "v": 96
    },
    {
      "midi": 72,
      "hit": false,
      "t": 16371.421749999976,
      "d": 80.71425208333312,
      "v": 96
    },
    {
      "midi": 67,
      "hit": false,
      "t": 16457.135999999977,
      "d": 252.14275208333493,
      "v": 96
    },
    {
      "midi": 72,
      "hit": false,
      "t": 16457.135999999977,
      "d": 252.14275208333493,
      "v": 96
    },
    {
      "midi": 48,
      "hit": false,
      "t": 16457.136000000002,
      "d": 337.8570020833322,
      "v": 96
    },
    {
      "midi": 67,
      "hit": false,
      "t": 16714.27874999998,
      "d": 80.71425208333312,
      "v": 96
    },
    {
      "midi": 72,
      "hit": false,
      "t": 16714.27874999998,
      "d": 80.71425208333312,
      "v": 96
    },
    {
      "midi": 67,
      "hit": false,
      "t": 16799.99299999998,
      "d": 166.42850208333402,
      "v": 96
    },
    {
      "midi": 72,
      "hit": false,
      "t": 16799.99299999998,
      "d": 166.42850208333402,
      "v": 96
    },
    {
      "midi": 48,
      "hit": false,
      "t": 16799.993000000002,
      "d": 337.8570020833322,
      "v": 96
    },
    {
      "midi": 67,
      "hit": false,
      "t": 17142.84999999998,
      "d": 252.14275208333493,
      "v": 96
    },
    {
      "midi": 72,
      "hit": false,
      "t": 17142.84999999998,
      "d": 252.14275208333493,
      "v": 96
    },
    {
      "midi": 67,
      "hit": false,
      "t": 17399.992749999983,
      "d": 80.71425208333312,
      "v": 96
    },
    {
      "midi": 72,
      "hit": false,
      "t": 17399.992749999983,
      "d": 80.71425208333312,
      "v": 96
    },
    {
      "midi": 67,
      "hit": false,
      "t": 17485.706999999984,
      "d": 166.42850208333402,
      "v": 96
    },
    {
      "midi": 72,
      "hit": false,
      "t": 17485.706999999984,
      "d": 166.42850208333402,
      "v": 96
    },
    {
      "midi": 67,
      "hit": false,
      "t": 18171.420999999984,
      "d": 252.14275208333493,
      "v": 96
    },
    {
      "midi": 72,
      "hit": false,
      "t": 18171.420999999984,
      "d": 252.14275208333493,
      "v": 96
    },
    {
      "midi": 67,
      "hit": false,
      "t": 18428.563749999987,
      "d": 80.71425208333312,
      "v": 96
    },
    {
      "midi": 72,
      "hit": false,
      "t": 18428.563749999987,
      "d": 80.71425208333312,
      "v": 96
    },
    {
      "midi": 46,
      "hit": false,
      "t": 18685.7065,
      "d": 509.285502083334,
      "v": 96
    },
    {
      "midi": 67,
      "hit": false,
      "t": 18857.134999999987,
      "d": 252.14275208333493,
      "v": 96
    },
    {
      "midi": 72,
      "hit": false,
      "t": 18857.134999999987,
      "d": 252.14275208333493,
      "v": 96
    },
    {
      "midi": 67,
      "hit": false,
      "t": 19114.27774999999,
      "d": 80.71425208333312,
      "v": 96
    },
    {
      "midi": 72,
      "hit": false,
      "t": 19114.27774999999,
      "d": 80.71425208333312,
      "v": 96
    },
    {
      "midi": 67,
      "hit": false,
      "t": 19199.99199999999,
      "d": 252.14275208333493,
      "v": 96
    },
    {
      "midi": 72,
      "hit": false,
      "t": 19199.99199999999,
      "d": 252.14275208333493,
      "v": 96
    },
    {
      "midi": 48,
      "hit": false,
      "t": 19199.992000000002,
      "d": 337.8570020833322,
      "v": 96
    },
    {
      "midi": 67,
      "hit": false,
      "t": 19457.134749999994,
      "d": 80.71425208333312,
      "v": 96
    },
    {
      "midi": 72,
      "hit": false,
      "t": 19457.134749999994,
      "d": 80.71425208333312,
      "v": 96
    },
    {
      "midi": 67,
      "hit": false,
      "t": 19542.848999999995,
      "d": 166.42850208333402,
      "v": 96
    },
    {
      "midi": 72,
      "hit": false,
      "t": 19542.848999999995,
      "d": 166.42850208333402,
      "v": 96
    },
    {
      "midi": 48,
      "hit": false,
      "t": 19542.849000000002,
      "d": 337.8570020833322,
      "v": 96
    },
    {
      "midi": 67,
      "hit": false,
      "t": 19885.705999999995,
      "d": 252.14275208333493,
      "v": 96
    },
    {
      "midi": 72,
      "hit": false,
      "t": 19885.705999999995,
      "d": 252.14275208333493,
      "v": 96
    },
    {
      "midi": 67,
      "hit": false,
      "t": 20142.848749999997,
      "d": 80.71425208333312,
      "v": 96
    },
    {
      "midi": 72,
      "hit": false,
      "t": 20142.848749999997,
      "d": 80.71425208333312,
      "v": 96
    },
    {
      "midi": 67,
      "hit": false,
      "t": 20228.563,
      "d": 166.42850208333402,
      "v": 96
    },
    {
      "midi": 72,
      "hit": false,
      "t": 20228.563,
      "d": 166.42850208333402,
      "v": 96
    },
    {
      "midi": 67,
      "hit": false,
      "t": 20914.277,
      "d": 252.14275208333493,
      "v": 96
    },
    {
      "midi": 72,
      "hit": false,
      "t": 20914.277,
      "d": 252.14275208333493,
      "v": 96
    },
    {
      "midi": 53,
      "hit": false,
      "t": 20914.277000000002,
      "d": 166.42850208333402,
      "v": 96
    },
    {
      "midi": 53,
      "hit": false,
      "t": 21085.705500000004,
      "d": 337.8570020833322,
      "v": 96
    },
    {
      "midi": 67,
      "hit": false,
      "t": 21171.41975,
      "d": 80.71425208333312,
      "v": 96
    },
    {
      "midi": 72,
      "hit": false,
      "t": 21171.41975,
      "d": 80.71425208333312,
      "v": 96
    },
    {
      "midi": 67,
      "hit": false,
      "t": 21257.134000000002,
      "d": 252.14275208333493,
      "v": 96
    },
    {
      "midi": 72,
      "hit": false,
      "t": 21257.134000000002,
      "d": 252.14275208333493,
      "v": 96
    },
    {
      "midi": 51,
      "hit": false,
      "t": 21428.562500000004,
      "d": 166.42850208333402,
      "v": 96
    },
    {
      "midi": 67,
      "hit": false,
      "t": 21514.276750000005,
      "d": 80.71425208333312,
      "v": 96
    },
    {
      "midi": 72,
      "hit": false,
      "t": 21514.276750000005,
      "d": 80.71425208333312,
      "v": 96
    },
    {
      "midi": 67,
      "hit": false,
      "t": 21599.991000000005,
      "d": 252.14275208333493,
      "v": 96
    },
    {
      "midi": 72,
      "hit": false,
      "t": 21599.991000000005,
      "d": 252.14275208333493,
      "v": 96
    },
    {
      "midi": 48,
      "hit": false,
      "t": 21599.991000000005,
      "d": 337.8570020833322,
      "v": 96
    },
    {
      "midi": 67,
      "hit": false,
      "t": 21857.133750000008,
      "d": 80.71425208333312,
      "v": 96
    },
    {
      "midi": 72,
      "hit": false,
      "t": 21857.133750000008,
      "d": 80.71425208333312,
      "v": 96
    },
    {
      "midi": 48,
      "hit": false,
      "t": 21942.848000000005,
      "d": 680.7140020833322,
      "v": 96
    },
    {
      "midi": 60,
      "hit": false,
      "t": 21942.84800000001,
      "d": 1880.7135020833339,
      "v": 96
    },
    {
      "midi": 46,
      "hit": false,
      "t": 22628.562000000005,
      "d": 680.7140020833322,
      "v": 96
    },
    {
      "midi": 44,
      "hit": false,
      "t": 23314.276000000005,
      "d": 509.285502083334,
      "v": 96
    },
    {
      "midi": 43,
      "hit": false,
      "t": 23828.561500000007,
      "d": 423.5712520833331,
      "v": 96
    },
    {
      "midi": 58,
      "hit": false,
      "t": 23828.56150000001,
      "d": 423.5712520833331,
      "v": 96
    },
    {
      "midi": 46,
      "hit": false,
      "t": 24257.132750000008,
      "d": 80.71425208333312,
      "v": 96
    },
    {
      "midi": 55,
      "hit": false,
      "t": 24257.13275000001,
      "d": 80.71425208333312,
      "v": 96
    },
    {
      "midi": 47,
      "hit": false,
      "t": 24342.84700000001,
      "d": 337.8570020833322,
      "v": 96
    },
    {
      "midi": 58,
      "hit": false,
      "t": 24342.847000000012,
      "d": 337.8570020833322,
      "v": 96
    },
    {
      "midi": 48,
      "hit": false,
      "t": 24685.70400000001,
      "d": 680.7140020833322,
      "v": 96
    },
    {
      "midi": 60,
      "hit": false,
      "t": 24685.704000000012,
      "d": 1366.428002083332,
      "v": 96
    },
    {
      "midi": 46,
      "hit": false,
      "t": 25371.41800000001,
      "d": 680.7140020833322,
      "v": 96
    },
    {
      "midi": 44,
      "hit": false,
      "t": 26057.13200000001,
      "d": 337.8570020833322,
      "v": 96
    },
    {
      "midi": 60,
      "hit": false,
      "t": 26314.27475000001,
      "d": 80.71425208333312,
      "v": 96
    },
    {
      "midi": 49,
      "hit": false,
      "t": 26399.98900000001,
      "d": 252.14275208333493,
      "v": 96
    },
    {
      "midi": 63,
      "hit": false,
      "t": 26399.989000000012,
      "d": 252.14275208333493,
      "v": 96
    },
    {
      "midi": 50,
      "hit": false,
      "t": 26657.13175000001,
      "d": 80.71425208333312,
      "v": 96
    },
    {
      "midi": 63,
      "hit": false,
      "t": 26657.131750000015,
      "d": 80.71425208333312,
      "v": 96
    },
    {
      "midi": 51,
      "hit": false,
      "t": 26742.846000000012,
      "d": 166.42850208333402,
      "v": 96
    },
    {
      "midi": 65,
      "hit": false,
      "t": 26742.846000000016,
      "d": 252.14275208333493,
      "v": 96
    },
    {
      "midi": 48,
      "hit": false,
      "t": 26914.274500000014,
      "d": 509.285502083334,
      "v": 96
    },
    {
      "midi": 65,
      "hit": false,
      "t": 26999.98875000002,
      "d": 80.71425208333312,
      "v": 96
    },
    {
      "midi": 66,
      "hit": false,
      "t": 27085.70300000002,
      "d": 337.8570020833322,
      "v": 96
    },
    {
      "midi": 48,
      "hit": false,
      "t": 27428.560000000016,
      "d": 680.7140020833322,
      "v": 96
    },
    {
      "midi": 60,
      "hit": false,
      "t": 27428.56000000002,
      "d": 1880.7135020833339,
      "v": 96
    },
    {
      "midi": 46,
      "hit": false,
      "t": 28114.274000000016,
      "d": 680.7140020833322,
      "v": 96
    },
    {
      "midi": 44,
      "hit": false,
      "t": 28799.988000000016,
      "d": 680.7140020833322,
      "v": 96
    },
    {
      "midi": 58,
      "hit": false,
      "t": 29314.27350000002,
      "d": 423.5712520833331,
      "v": 96
    },
    {
      "midi": 43,
      "hit": false,
      "t": 29485.702000000016,
      "d": 680.7140020833322,
      "v": 96
    },
    {
      "midi": 55,
      "hit": false,
      "t": 29742.844750000022,
      "d": 80.71425208333312,
      "v": 96
    },
    {
      "midi": 58,
      "hit": false,
      "t": 29828.559000000023,
      "d": 337.8570020833322,
      "v": 96
    },
    {
      "midi": 41,
      "hit": false,
      "t": 30171.416000000016,
      "d": 337.8570020833322,
      "v": 96
    },
    {
      "midi": 60,
      "hit": false,
      "t": 30171.416000000023,
      "d": 252.14275208333493,
      "v": 96
    },
    {
      "midi": 60,
      "hit": false,
      "t": 30428.558750000026,
      "d": 80.71425208333312,
      "v": 96
    },
    {
      "midi": 41,
      "hit": false,
      "t": 30514.273000000016,
      "d": 337.8570020833322,
      "v": 96
    },
    {
      "midi": 55,
      "hit": false,
      "t": 30514.273000000027,
      "d": 594.9997520833349,
      "v": 96
    },
    {
      "midi": 41,
      "hit": false,
      "t": 30857.130000000016,
      "d": 252.14275208333493,
      "v": 96
    },
    {
      "midi": 41,
      "hit": false,
      "t": 31114.27275000002,
      "d": 423.5712520833331,
      "v": 96
    },
    {
      "midi": 67,
      "hit": false,
      "t": 31114.27275000003,
      "d": 80.71425208333312,
      "v": 96
    },
    {
      "midi": 66,
      "hit": false,
      "t": 31199.98700000003,
      "d": 109.28566874999888,
      "v": 96
    },
    {
      "midi": 67,
      "hit": false,
      "t": 31314.272666666697,
      "d": 109.28566874999888,
      "v": 96
    },
    {
      "midi": 65,
      "hit": false,
      "t": 31428.558333333363,
      "d": 794.9996687499988,
      "v": 96
    },
    {
      "midi": 43,
      "hit": false,
      "t": 31542.84400000002,
      "d": 1366.428002083332,
      "v": 96
    },
    {
      "midi": 53,
      "hit": false,
      "t": 32228.55800000003,
      "d": 680.7140020833358,
      "v": 96
    },
    {
      "midi": 48,
      "hit": false,
      "t": 32914.27200000002,
      "d": 337.85700208333583,
      "v": 96
    },
    {
      "midi": 60,
      "hit": false,
      "t": 32914.27200000003,
      "d": 1366.428002083332,
      "v": 96
    },
    {
      "midi": 48,
      "hit": false,
      "t": 33257.12900000002,
      "d": 337.85700208333583,
      "v": 96
    },
    {
      "midi": 55,
      "hit": false,
      "t": 34628.55700000003,
      "d": 252.1427520833313,
      "v": 96
    },
    {
      "midi": 58,
      "hit": false,
      "t": 34885.69975000003,
      "d": 337.85700208333583,
      "v": 96
    },
    {
      "midi": 46,
      "hit": false,
      "t": 35142.84250000003,
      "d": 509.28550208333036,
      "v": 96
    },
    {
      "midi": 55,
      "hit": false,
      "t": 35228.55675000003,
      "d": 80.71425208333676,
      "v": 96
    },
    {
      "midi": 58,
      "hit": false,
      "t": 35314.27100000004,
      "d": 337.85700208333583,
      "v": 96
    },
    {
      "midi": 48,
      "hit": false,
      "t": 35657.128000000026,
      "d": 337.85700208333583,
      "v": 96
    },
    {
      "midi": 60,
      "hit": false,
      "t": 35657.12800000004,
      "d": 1366.428002083332,
      "v": 96
    },
    {
      "midi": 48,
      "hit": false,
      "t": 35999.98500000003,
      "d": 337.85700208333583,
      "v": 96
    },
    {
      "midi": 60,
      "hit": false,
      "t": 37285.69875000004,
      "d": 80.71425208333676,
      "v": 96
    },
    {
      "midi": 63,
      "hit": false,
      "t": 37371.413000000044,
      "d": 252.1427520833313,
      "v": 96
    },
    {
      "midi": 46,
      "hit": false,
      "t": 37542.84150000003,
      "d": 423.5712520833331,
      "v": 96
    },
    {
      "midi": 60,
      "hit": false,
      "t": 37628.55575000004,
      "d": 80.71425208333676,
      "v": 96
    },
    {
      "midi": 65,
      "hit": false,
      "t": 37714.27000000005,
      "d": 337.85700208333583,
      "v": 96
    },
    {
      "midi": 48,
      "hit": false,
      "t": 37971.41275000003,
      "d": 80.71425208333676,
      "v": 96
    },
    {
      "midi": 49,
      "hit": false,
      "t": 38057.12700000004,
      "d": 337.85700208333583,
      "v": 96
    },
    {
      "midi": 66,
      "hit": false,
      "t": 38057.12700000005,
      "d": 337.85700208333583,
      "v": 96
    },
    {
      "midi": 48,
      "hit": false,
      "t": 38399.98400000004,
      "d": 337.85700208333583,
      "v": 96
    },
    {
      "midi": 60,
      "hit": false,
      "t": 38399.984000000055,
      "d": 1366.428002083332,
      "v": 96
    },
    {
      "midi": 48,
      "hit": false,
      "t": 38742.841000000044,
      "d": 337.85700208333583,
      "v": 96
    },
    {
      "midi": 55,
      "hit": false,
      "t": 40114.26900000005,
      "d": 252.1427520833313,
      "v": 96
    },
    {
      "midi": 58,
      "hit": false,
      "t": 40371.41175000005,
      "d": 337.85700208333583,
      "v": 96
    },
    {
      "midi": 46,
      "hit": false,
      "t": 40628.55450000005,
      "d": 509.28550208333036,
      "v": 96
    },
    {
      "midi": 55,
      "hit": false,
      "t": 40714.268750000054,
      "d": 80.71425208333676,
      "v": 96
    },
    {
      "midi": 58,
      "hit": false,
      "t": 40799.98300000006,
      "d": 337.85700208333583,
      "v": 96
    },
    {
      "midi": 48,
      "hit": false,
      "t": 41142.84000000005,
      "d": 337.85700208333583,
      "v": 96
    },
    {
      "midi": 60,
      "hit": false,
      "t": 41142.84000000006,
      "d": 680.7140020833322,
      "v": 96
    },
    {
      "midi": 48,
      "hit": false,
      "t": 41485.69700000005,
      "d": 337.85700208333583,
      "v": 96
    },
    {
      "midi": 67,
      "hit": false,
      "t": 42085.69675000006,
      "d": 80.71425208333676,
      "v": 96
    },
    {
      "midi": 66,
      "hit": false,
      "t": 42171.411000000066,
      "d": 109.28566875000251,
      "v": 96
    },
    {
      "midi": 67,
      "hit": false,
      "t": 42285.696666666736,
      "d": 109.28566875000251,
      "v": 96
    },
    {
      "midi": 65,
      "hit": false,
      "t": 42399.982333333406,
      "d": 1480.7136687500024,
      "v": 96
    },
    {
      "midi": 46,
      "hit": false,
      "t": 43114.26775000006,
      "d": 337.85700208333583,
      "v": 96
    },
    {
      "midi": 48,
      "hit": false,
      "t": 43457.12475000006,
      "d": 80.71425208333676,
      "v": 96
    },
    {
      "midi": 49,
      "hit": false,
      "t": 43542.839000000065,
      "d": 337.85700208333583,
      "v": 96
    },
    {
      "midi": 48,
      "hit": false,
      "t": 43885.69600000007,
      "d": 337.85700208333583,
      "v": 96
    },
    {
      "midi": 67,
      "hit": false,
      "t": 43885.696000000076,
      "d": 680.7140020833322,
      "v": 96
    },
    {
      "midi": 48,
      "hit": false,
      "t": 44228.55300000007,
      "d": 337.85700208333583,
      "v": 96
    },
    {
      "midi": 67,
      "hit": false,
      "t": 44571.410000000076,
      "d": 680.7140020833322,
      "v": 96
    },
    {
      "midi": 65,
      "hit": false,
      "t": 45514.266750000075,
      "d": 80.71425208333676,
      "v": 96
    },
    {
      "midi": 65,
      "hit": false,
      "t": 45599.98100000008,
      "d": 252.1427520833313,
      "v": 96
    },
    {
      "midi": 60,
      "hit": false,
      "t": 45857.12375000008,
      "d": 80.71425208333676,
      "v": 96
    },
    {
      "midi": 63,
      "hit": false,
      "t": 45942.83800000008,
      "d": 166.42850208333402,
      "v": 96
    },
    {
      "midi": 46,
      "hit": false,
      "t": 46114.26650000008,
      "d": 509.28550208333036,
      "v": 96
    },
    {
      "midi": 65,
      "hit": false,
      "t": 46114.266500000085,
      "d": 509.28550208333036,
      "v": 96
    },
    {
      "midi": 48,
      "hit": false,
      "t": 46628.552000000076,
      "d": 337.85700208333583,
      "v": 96
    },
    {
      "midi": 67,
      "hit": false,
      "t": 46628.55200000008,
      "d": 252.1427520833313,
      "v": 96
    },
    {
      "midi": 67,
      "hit": false,
      "t": 46885.69475000008,
      "d": 80.71425208333676,
      "v": 96
    },
    {
      "midi": 48,
      "hit": false,
      "t": 46971.40900000008,
      "d": 337.85700208333583,
      "v": 96
    },
    {
      "midi": 67,
      "hit": false,
      "t": 46971.40900000009,
      "d": 252.1427520833313,
      "v": 96
    },
    {
      "midi": 67,
      "hit": false,
      "t": 47228.551750000086,
      "d": 80.71425208333676,
      "v": 96
    },
    {
      "midi": 65,
      "hit": false,
      "t": 47314.26600000009,
      "d": 252.1427520833313,
      "v": 96
    },
    {
      "midi": 63,
      "hit": false,
      "t": 47571.40875000009,
      "d": 80.71425208333676,
      "v": 96
    },
    {
      "midi": 60,
      "hit": false,
      "t": 47914.26575000009,
      "d": 80.71425208333676,
      "v": 96
    },
    {
      "midi": 46,
      "hit": false,
      "t": 48599.979750000086,
      "d": 337.85700208333583,
      "v": 96
    },
    {
      "midi": 48,
      "hit": false,
      "t": 48942.83675000009,
      "d": 80.71425208333676,
      "v": 96
    },
    {
      "midi": 55,
      "hit": false,
      "t": 48942.8367500001,
      "d": 80.71425208333676,
      "v": 96
    },
    {
      "midi": 49,
      "hit": false,
      "t": 49028.551000000094,
      "d": 337.85700208333583,
      "v": 96
    },
    {
      "midi": 58,
      "hit": false,
      "t": 49028.5510000001,
      "d": 252.1427520833313,
      "v": 96
    },
    {
      "midi": 60,
      "hit": false,
      "t": 49285.6937500001,
      "d": 80.71425208333676,
      "v": 96
    },
    {
      "midi": 48,
      "hit": false,
      "t": 49371.4080000001,
      "d": 337.85700208333583,
      "v": 96
    },
    {
      "midi": 67,
      "hit": false,
      "t": 49371.408000000105,
      "d": 680.7140020833322,
      "v": 96
    },
    {
      "midi": 48,
      "hit": false,
      "t": 49714.2650000001,
      "d": 337.85700208333583,
      "v": 96
    },
    {
      "midi": 67,
      "hit": false,
      "t": 50057.122000000105,
      "d": 680.7140020833322,
      "v": 96
    },
    {
      "midi": 65,
      "hit": false,
      "t": 50999.978750000104,
      "d": 80.71425208333676,
      "v": 96
    },
    {
      "midi": 65,
      "hit": false,
      "t": 51085.69300000011,
      "d": 252.1427520833313,
      "v": 96
    },
    {
      "midi": 60,
      "hit": false,
      "t": 51342.83575000011,
      "d": 80.71425208333676,
      "v": 96
    },
    {
      "midi": 63,
      "hit": false,
      "t": 51428.55000000011,
      "d": 166.42850208333402,
      "v": 96
    },
    {
      "midi": 46,
      "hit": false,
      "t": 51599.97850000011,
      "d": 509.28550208333036,
      "v": 96
    },
    {
      "midi": 65,
      "hit": false,
      "t": 51599.978500000114,
      "d": 337.85700208333583,
      "v": 96
    },
    {
      "midi": 60,
      "hit": false,
      "t": 51942.83550000012,
      "d": 166.42850208333402,
      "v": 96
    },
    {
      "midi": 48,
      "hit": false,
      "t": 52114.264000000105,
      "d": 337.85700208333583,
      "v": 96
    },
    {
      "midi": 67,
      "hit": false,
      "t": 52114.26400000012,
      "d": 252.1427520833313,
      "v": 96
    },
    {
      "midi": 67,
      "hit": false,
      "t": 52371.40675000012,
      "d": 80.71425208333676,
      "v": 96
    },
    {
      "midi": 48,
      "hit": false,
      "t": 52457.12100000011,
      "d": 337.85700208333583,
      "v": 96
    },
    {
      "midi": 72,
      "hit": false,
      "t": 52457.12100000012,
      "d": 252.1427520833313,
      "v": 96
    },
    {
      "midi": 72,
      "hit": false,
      "t": 52714.26375000012,
      "d": 80.71425208333676,
      "v": 96
    },
    {
      "midi": 65,
      "hit": false,
      "t": 52799.97800000013,
      "d": 252.1427520833313,
      "v": 96
    },
    {
      "midi": 63,
      "hit": false,
      "t": 53057.120750000126,
      "d": 80.71425208333676,
      "v": 96
    },
    {
      "midi": 60,
      "hit": false,
      "t": 53399.97775000013,
      "d": 80.71425208333676,
      "v": 96
    },
    {
      "midi": 60,
      "hit": false,
      "t": 53599.9776666668,
      "d": 109.28566875000251,
      "v": 96
    },
    {
      "midi": 60,
      "hit": false,
      "t": 53714.26333333347,
      "d": 109.28566875000251,
      "v": 96
    },
    {
      "midi": 58,
      "hit": false,
      "t": 53828.54900000014,
      "d": 252.1427520833313,
      "v": 96
    },
    {
      "midi": 46,
      "hit": false,
      "t": 54085.691750000115,
      "d": 337.85700208333583,
      "v": 96
    },
    {
      "midi": 60,
      "hit": false,
      "t": 54085.69175000014,
      "d": 80.71425208333676,
      "v": 96
    },
    {
      "midi": 63,
      "hit": false,
      "t": 54171.40600000014,
      "d": 337.85700208333583,
      "v": 96
    },
    {
      "midi": 48,
      "hit": false,
      "t": 54428.54875000012,
      "d": 80.71425208333676,
      "v": 96
    },
    {
      "midi": 49,
      "hit": false,
      "t": 54514.26300000012,
      "d": 337.85700208333583,
      "v": 96
    },
    {
      "midi": 60,
      "hit": false,
      "t": 54514.263000000145,
      "d": 337.85700208333583,
      "v": 96
    },
    {
      "midi": 48,
      "hit": false,
      "t": 54857.120000000126,
      "d": 680.7140020833322,
      "v": 96
    },
    {
      "midi": 67,
      "hit": false,
      "t": 55199.977000000144,
      "d": 252.1427520833313,
      "v": 96
    },
    {
      "midi": 72,
      "hit": false,
      "t": 55199.977000000144,
      "d": 252.1427520833313,
      "v": 96
    },
    {
      "midi": 67,
      "hit": false,
      "t": 55457.11975000014,
      "d": 80.71425208333676,
      "v": 96
    },
    {
      "midi": 72,
      "hit": false,
      "t": 55457.11975000014,
      "d": 80.71425208333676,
      "v": 96
    },
    {
      "midi": 46,
      "hit": false,
      "t": 55542.834000000126,
      "d": 680.7140020833322,
      "v": 96
    },
    {
      "midi": 67,
      "hit": false,
      "t": 55885.691000000144,
      "d": 252.1427520833313,
      "v": 96
    },
    {
      "midi": 72,
      "hit": false,
      "t": 55885.691000000144,
      "d": 252.1427520833313,
      "v": 96
    },
    {
      "midi": 67,
      "hit": false,
      "t": 56142.83375000014,
      "d": 80.71425208333676,
      "v": 96
    },
    {
      "midi": 72,
      "hit": false,
      "t": 56142.83375000014,
      "d": 80.71425208333676,
      "v": 96
    },
    {
      "midi": 44,
      "hit": false,
      "t": 56228.548000000126,
      "d": 509.28550208333036,
      "v": 96
    },
    {
      "midi": 43,
      "hit": false,
      "t": 56742.833500000124,
      "d": 423.5712520833331,
      "v": 96
    },
    {
      "midi": 58,
      "hit": false,
      "t": 56828.54775000014,
      "d": 337.85700208333583,
      "v": 96
    },
    {
      "midi": 46,
      "hit": false,
      "t": 57171.404750000125,
      "d": 80.71425208333676,
      "v": 96
    },
    {
      "midi": 55,
      "hit": false,
      "t": 57171.40475000015,
      "d": 80.71425208333676,
      "v": 96
    },
    {
      "midi": 48,
      "hit": false,
      "t": 57257.11900000013,
      "d": 337.85700208333583,
      "v": 96
    },
    {
      "midi": 58,
      "hit": false,
      "t": 57257.11900000015,
      "d": 337.85700208333583,
      "v": 96
    },
    {
      "midi": 48,
      "hit": false,
      "t": 57599.97600000013,
      "d": 680.7140020833322,
      "v": 96
    },
    {
      "midi": 67,
      "hit": false,
      "t": 57942.83300000015,
      "d": 252.1427520833313,
      "v": 96
    },
    {
      "midi": 72,
      "hit": false,
      "t": 57942.83300000015,
      "d": 252.1427520833313,
      "v": 96
    },
    {
      "midi": 67,
      "hit": false,
      "t": 58199.97575000015,
      "d": 80.71425208333676,
      "v": 96
    },
    {
      "midi": 72,
      "hit": false,
      "t": 58199.97575000015,
      "d": 80.71425208333676,
      "v": 96
    },
    {
      "midi": 46,
      "hit": false,
      "t": 58285.69000000013,
      "d": 680.7140020833322,
      "v": 96
    },
    {
      "midi": 67,
      "hit": false,
      "t": 58628.54700000015,
      "d": 252.1427520833313,
      "v": 96
    },
    {
      "midi": 72,
      "hit": false,
      "t": 58628.54700000015,
      "d": 252.1427520833313,
      "v": 96
    },
    {
      "midi": 67,
      "hit": false,
      "t": 58885.68975000015,
      "d": 80.71425208333676,
      "v": 96
    },
    {
      "midi": 72,
      "hit": false,
      "t": 58885.68975000015,
      "d": 80.71425208333676,
      "v": 96
    },
    {
      "midi": 44,
      "hit": false,
      "t": 58971.40400000013,
      "d": 337.85700208333583,
      "v": 96
    },
    {
      "midi": 60,
      "hit": false,
      "t": 58971.404000000155,
      "d": 252.1427520833313,
      "v": 96
    },
    {
      "midi": 60,
      "hit": false,
      "t": 59228.546750000154,
      "d": 80.71425208333676,
      "v": 96
    },
    {
      "midi": 49,
      "hit": false,
      "t": 59314.26100000014,
      "d": 252.1427520833313,
      "v": 96
    },
    {
      "midi": 66,
      "hit": false,
      "t": 59314.26100000016,
      "d": 252.1427520833313,
      "v": 96
    },
    {
      "midi": 50,
      "hit": false,
      "t": 59571.403750000136,
      "d": 80.71425208333676,
      "v": 96
    },
    {
      "midi": 66,
      "hit": false,
      "t": 59571.40375000016,
      "d": 80.71425208333676,
      "v": 96
    },
    {
      "midi": 51,
      "hit": false,
      "t": 59657.11800000014,
      "d": 166.42850208333402,
      "v": 96
    },
    {
      "midi": 67,
      "hit": false,
      "t": 59657.11800000016,
      "d": 252.1427520833313,
      "v": 96
    },
    {
      "midi": 48,
      "hit": false,
      "t": 59828.54650000014,
      "d": 509.28550208333036,
      "v": 96
    },
    {
      "midi": 67,
      "hit": false,
      "t": 59914.26075000016,
      "d": 80.71425208333676,
      "v": 96
    },
    {
      "midi": 70,
      "hit": false,
      "t": 59999.975000000166,
      "d": 337.85700208333583,
      "v": 96
    },
    {
      "midi": 48,
      "hit": false,
      "t": 60342.83200000014,
      "d": 680.7140020833322,
      "v": 96
    },
    {
      "midi": 67,
      "hit": false,
      "t": 60685.689000000166,
      "d": 252.1427520833313,
      "v": 96
    },
    {
      "midi": 72,
      "hit": false,
      "t": 60685.689000000166,
      "d": 252.1427520833313,
      "v": 96
    },
    {
      "midi": 67,
      "hit": false,
      "t": 60942.831750000165,
      "d": 80.71425208333676,
      "v": 96
    },
    {
      "midi": 72,
      "hit": false,
      "t": 60942.831750000165,
      "d": 80.71425208333676,
      "v": 96
    },
    {
      "midi": 46,
      "hit": false,
      "t": 61028.54600000014,
      "d": 680.7140020833322,
      "v": 96
    },
    {
      "midi": 67,
      "hit": false,
      "t": 61371.403000000166,
      "d": 252.1427520833313,
      "v": 96
    },
    {
      "midi": 72,
      "hit": false,
      "t": 61371.403000000166,
      "d": 252.1427520833313,
      "v": 96
    },
    {
      "midi": 67,
      "hit": false,
      "t": 61628.545750000165,
      "d": 80.71425208333676,
      "v": 96
    },
    {
      "midi": 72,
      "hit": false,
      "t": 61628.545750000165,
      "d": 80.71425208333676,
      "v": 96
    },
    {
      "midi": 44,
      "hit": false,
      "t": 61714.26000000014,
      "d": 680.7140020833322,
      "v": 96
    },
    {
      "midi": 60,
      "hit": false,
      "t": 61714.26000000017,
      "d": 594.9997520833349,
      "v": 96
    },
    {
      "midi": 58,
      "hit": false,
      "t": 62314.25975000017,
      "d": 337.85700208333583,
      "v": 96
    },
    {
      "midi": 43,
      "hit": false,
      "t": 62399.97400000014,
      "d": 680.7140020833322,
      "v": 96
    },
    {
      "midi": 55,
      "hit": false,
      "t": 62657.116750000176,
      "d": 80.71425208333676,
      "v": 96
    },
    {
      "midi": 58,
      "hit": false,
      "t": 62742.83100000018,
      "d": 337.85700208333583,
      "v": 96
    },
    {
      "midi": 41,
      "hit": false,
      "t": 63085.68800000014,
      "d": 252.1427520833313,
      "v": 96
    },
    {
      "midi": 60,
      "hit": false,
      "t": 63085.688000000184,
      "d": 252.1427520833313,
      "v": 96
    },
    {
      "midi": 41,
      "hit": false,
      "t": 63342.83075000014,
      "d": 80.71425208333676,
      "v": 96
    },
    {
      "midi": 60,
      "hit": false,
      "t": 63342.83075000018,
      "d": 80.71425208333676,
      "v": 96
    },
    {
      "midi": 41,
      "hit": false,
      "t": 63428.545000000144,
      "d": 252.1427520833313,
      "v": 96
    },
    {
      "midi": 60,
      "hit": false,
      "t": 63428.54500000019,
      "d": 252.1427520833313,
      "v": 96
    },
    {
      "midi": 41,
      "hit": false,
      "t": 63685.68775000014,
      "d": 80.71425208333676,
      "v": 96
    },
    {
      "midi": 60,
      "hit": false,
      "t": 63685.68775000019,
      "d": 80.71425208333676,
      "v": 96
    },
    {
      "midi": 41,
      "hit": false,
      "t": 63771.40200000015,
      "d": 166.42850208333402,
      "v": 96
    },
    {
      "midi": 60,
      "hit": false,
      "t": 63771.40200000019,
      "d": 166.42850208333402,
      "v": 96
    },
    {
      "midi": 42,
      "hit": false,
      "t": 63942.83050000015,
      "d": 337.85700208333583,
      "v": 96
    },
    {
      "midi": 54,
      "hit": false,
      "t": 63942.83050000019,
      "d": 337.85700208333583,
      "v": 96
    },
    {
      "midi": 43,
      "hit": false,
      "t": 64285.68750000015,
      "d": 1537.8565020833266,
      "v": 96
    },
    {
      "midi": 53,
      "hit": false,
      "t": 64285.6875000002,
      "d": 166.42850208333402,
      "v": 96
    },
    {
      "midi": 67,
      "hit": false,
      "t": 64799.973000000195,
      "d": 252.1427520833313,
      "v": 96
    },
    {
      "midi": 66,
      "hit": false,
      "t": 65057.115750000194,
      "d": 80.71425208333676,
      "v": 96
    },
    {
      "midi": 65,
      "hit": false,
      "t": 65142.8300000002,
      "d": 252.1427520833313,
      "v": 96
    },
    {
      "midi": 65,
      "hit": false,
      "t": 65399.9727500002,
      "d": 80.71425208333676,
      "v": 96
    },
    {
      "midi": 63,
      "hit": false,
      "t": 65485.6870000002,
      "d": 337.85700208333583,
      "v": 96
    },
    {
      "midi": 48,
      "hit": false,
      "t": 65828.54400000014,
      "d": 680.7140020833322,
      "v": 96
    },
    {
      "midi": 67,
      "hit": false,
      "t": 66171.4010000002,
      "d": 252.14275208333856,
      "v": 96
    },
    {
      "midi": 72,
      "hit": false,
      "t": 66171.4010000002,
      "d": 252.14275208333856,
      "v": 96
    },
    {
      "midi": 67,
      "hit": false,
      "t": 66428.5437500002,
      "d": 80.71425208332948,
      "v": 96
    },
    {
      "midi": 72,
      "hit": false,
      "t": 66428.5437500002,
      "d": 80.71425208332948,
      "v": 96
    },
    {
      "midi": 46,
      "hit": false,
      "t": 66514.25800000013,
      "d": 680.7140020833322,
      "v": 96
    },
    {
      "midi": 67,
      "hit": false,
      "t": 66857.1150000002,
      "d": 252.14275208333856,
      "v": 96
    },
    {
      "midi": 72,
      "hit": false,
      "t": 66857.1150000002,
      "d": 252.14275208333856,
      "v": 96
    },
    {
      "midi": 67,
      "hit": false,
      "t": 67114.2577500002,
      "d": 80.71425208332948,
      "v": 96
    },
    {
      "midi": 72,
      "hit": false,
      "t": 67114.2577500002,
      "d": 80.71425208332948,
      "v": 96
    },
    {
      "midi": 44,
      "hit": false,
      "t": 67199.97200000013,
      "d": 509.28550208333763,
      "v": 96
    },
    {
      "midi": 43,
      "hit": false,
      "t": 67714.25750000012,
      "d": 423.5712520833331,
      "v": 96
    },
    {
      "midi": 58,
      "hit": false,
      "t": 67799.97175000019,
      "d": 337.85700208332855,
      "v": 96
    },
    {
      "midi": 46,
      "hit": false,
      "t": 68142.82875000012,
      "d": 80.71425208332948,
      "v": 96
    },
    {
      "midi": 55,
      "hit": false,
      "t": 68142.82875000018,
      "d": 80.71425208332948,
      "v": 96
    },
    {
      "midi": 47,
      "hit": false,
      "t": 68228.5430000001,
      "d": 337.85700208332855,
      "v": 96
    },
    {
      "midi": 58,
      "hit": false,
      "t": 68228.54300000017,
      "d": 337.85700208332855,
      "v": 96
    },
    {
      "midi": 48,
      "hit": false,
      "t": 68571.4000000001,
      "d": 680.7140020833322,
      "v": 96
    },
    {
      "midi": 67,
      "hit": false,
      "t": 68914.25700000016,
      "d": 252.14275208333856,
      "v": 96
    },
    {
      "midi": 72,
      "hit": false,
      "t": 68914.25700000016,
      "d": 252.14275208333856,
      "v": 96
    },
    {
      "midi": 67,
      "hit": false,
      "t": 69171.39975000016,
      "d": 80.71425208332948,
      "v": 96
    },
    {
      "midi": 72,
      "hit": false,
      "t": 69171.39975000016,
      "d": 80.71425208332948,
      "v": 96
    },
    {
      "midi": 46,
      "hit": false,
      "t": 69257.11400000009,
      "d": 680.7140020833322,
      "v": 96
    },
    {
      "midi": 67,
      "hit": false,
      "t": 69599.97100000015,
      "d": 252.14275208333856,
      "v": 96
    },
    {
      "midi": 72,
      "hit": false,
      "t": 69599.97100000015,
      "d": 252.14275208333856,
      "v": 96
    },
    {
      "midi": 67,
      "hit": false,
      "t": 69857.11375000015,
      "d": 80.71425208332948,
      "v": 96
    },
    {
      "midi": 72,
      "hit": false,
      "t": 69857.11375000015,
      "d": 80.71425208332948,
      "v": 96
    },
    {
      "midi": 44,
      "hit": false,
      "t": 69942.82800000008,
      "d": 337.85700208332855,
      "v": 96
    },
    {
      "midi": 60,
      "hit": false,
      "t": 69942.82800000014,
      "d": 252.14275208333856,
      "v": 96
    },
    {
      "midi": 60,
      "hit": false,
      "t": 70199.97075000014,
      "d": 80.71425208332948,
      "v": 96
    },
    {
      "midi": 49,
      "hit": false,
      "t": 70285.68500000007,
      "d": 252.14275208333856,
      "v": 96
    },
    {
      "midi": 66,
      "hit": false,
      "t": 70285.68500000013,
      "d": 252.14275208333856,
      "v": 96
    },
    {
      "midi": 50,
      "hit": false,
      "t": 70542.82775000007,
      "d": 80.71425208332948,
      "v": 96
    },
    {
      "midi": 66,
      "hit": false,
      "t": 70542.82775000013,
      "d": 80.71425208332948,
      "v": 96
    },
    {
      "midi": 51,
      "hit": false,
      "t": 70628.54200000006,
      "d": 166.42850208333402,
      "v": 96
    },
    {
      "midi": 67,
      "hit": false,
      "t": 70628.54200000012,
      "d": 252.14275208333856,
      "v": 96
    },
    {
      "midi": 48,
      "hit": false,
      "t": 70799.97050000005,
      "d": 509.28550208333763,
      "v": 96
    },
    {
      "midi": 67,
      "hit": false,
      "t": 70885.68475000012,
      "d": 80.71425208332948,
      "v": 96
    },
    {
      "midi": 70,
      "hit": false,
      "t": 70971.3990000001,
      "d": 337.85700208332855,
      "v": 96
    },
    {
      "midi": 48,
      "hit": false,
      "t": 71314.25600000005,
      "d": 680.7140020833322,
      "v": 96
    },
    {
      "midi": 67,
      "hit": false,
      "t": 71657.1130000001,
      "d": 252.14275208333856,
      "v": 96
    },
    {
      "midi": 72,
      "hit": false,
      "t": 71657.1130000001,
      "d": 252.14275208333856,
      "v": 96
    },
    {
      "midi": 67,
      "hit": false,
      "t": 71914.2557500001,
      "d": 80.71425208332948,
      "v": 96
    },
    {
      "midi": 72,
      "hit": false,
      "t": 71914.2557500001,
      "d": 80.71425208332948,
      "v": 96
    },
    {
      "midi": 46,
      "hit": false,
      "t": 71999.97000000004,
      "d": 680.7140020833322,
      "v": 96
    },
    {
      "midi": 67,
      "hit": false,
      "t": 72342.82700000009,
      "d": 252.14275208333856,
      "v": 96
    },
    {
      "midi": 72,
      "hit": false,
      "t": 72342.82700000009,
      "d": 252.14275208333856,
      "v": 96
    },
    {
      "midi": 67,
      "hit": false,
      "t": 72599.96975000009,
      "d": 80.71425208332948,
      "v": 96
    },
    {
      "midi": 72,
      "hit": false,
      "t": 72599.96975000009,
      "d": 80.71425208332948,
      "v": 96
    },
    {
      "midi": 44,
      "hit": false,
      "t": 72685.68400000004,
      "d": 680.7140020833322,
      "v": 96
    },
    {
      "midi": 60,
      "hit": false,
      "t": 72685.68400000008,
      "d": 594.9997520833276,
      "v": 96
    },
    {
      "midi": 58,
      "hit": false,
      "t": 73285.68375000007,
      "d": 337.85700208332855,
      "v": 96
    },
    {
      "midi": 43,
      "hit": false,
      "t": 73371.39800000003,
      "d": 680.7140020833322,
      "v": 96
    },
    {
      "midi": 55,
      "hit": false,
      "t": 73628.54075000006,
      "d": 80.71425208332948,
      "v": 96
    },
    {
      "midi": 58,
      "hit": false,
      "t": 73714.25500000005,
      "d": 337.85700208332855,
      "v": 96
    },
    {
      "midi": 41,
      "hit": false,
      "t": 74057.11200000002,
      "d": 252.14275208333856,
      "v": 96
    },
    {
      "midi": 60,
      "hit": false,
      "t": 74057.11200000004,
      "d": 252.14275208333856,
      "v": 96
    },
    {
      "midi": 41,
      "hit": false,
      "t": 74314.25475000002,
      "d": 80.71425208332948,
      "v": 96
    },
    {
      "midi": 60,
      "hit": false,
      "t": 74314.25475000004,
      "d": 80.71425208332948,
      "v": 96
    },
    {
      "midi": 41,
      "hit": false,
      "t": 74399.96900000001,
      "d": 252.14275208333856,
      "v": 96
    },
    {
      "midi": 60,
      "hit": false,
      "t": 74399.96900000003,
      "d": 252.14275208333856,
      "v": 96
    },
    {
      "midi": 41,
      "hit": false,
      "t": 74657.11175000001,
      "d": 80.71425208332948,
      "v": 96
    },
    {
      "midi": 60,
      "hit": false,
      "t": 74657.11175000003,
      "d": 80.71425208332948,
      "v": 96
    },
    {
      "midi": 41,
      "hit": false,
      "t": 74742.826,
      "d": 166.42850208333402,
      "v": 96
    },
    {
      "midi": 60,
      "hit": false,
      "t": 74742.82600000002,
      "d": 166.42850208333402,
      "v": 96
    },
    {
      "midi": 42,
      "hit": false,
      "t": 74914.2545,
      "d": 337.85700208332855,
      "v": 96
    },
    {
      "midi": 54,
      "hit": false,
      "t": 74914.25450000001,
      "d": 337.85700208332855,
      "v": 96
    },
    {
      "midi": 43,
      "hit": false,
      "t": 75257.11149999998,
      "d": 1537.856502083334,
      "v": 96
    },
    {
      "midi": 53,
      "hit": false,
      "t": 75257.1115,
      "d": 166.42850208333402,
      "v": 96
    },
    {
      "midi": 67,
      "hit": false,
      "t": 75771.397,
      "d": 252.14275208333856,
      "v": 96
    },
    {
      "midi": 66,
      "hit": false,
      "t": 76028.53975,
      "d": 80.71425208332948,
      "v": 96
    },
    {
      "midi": 65,
      "hit": false,
      "t": 76114.25399999999,
      "d": 252.14275208333856,
      "v": 96
    },
    {
      "midi": 65,
      "hit": false,
      "t": 76371.39674999999,
      "d": 80.71425208332948,
      "v": 96
    },
    {
      "midi": 63,
      "hit": false,
      "t": 76457.11099999998,
      "d": 337.85700208332855,
      "v": 96
    },
    {
      "midi": 60,
      "hit": false,
      "t": 76799.96799999996,
      "d": 252.14275208333856,
      "v": 96
    },
    {
      "midi": 48,
      "hit": false,
      "t": 76799.96799999998,
      "d": 337.85700208332855,
      "v": 96
    },
    {
      "midi": 60,
      "hit": false,
      "t": 77057.11074999996,
      "d": 80.71425208332948,
      "v": 96
    },
    {
      "midi": 60,
      "hit": false,
      "t": 77142.82499999995,
      "d": 252.14275208333856,
      "v": 96
    },
    {
      "midi": 48,
      "hit": false,
      "t": 77142.82499999997,
      "d": 337.85700208332855,
      "v": 96
    },
    {
      "midi": 60,
      "hit": false,
      "t": 77399.96774999995,
      "d": 80.71425208332948,
      "v": 96
    },
    {
      "midi": 60,
      "hit": false,
      "t": 77742.82474999994,
      "d": 80.71425208332948,
      "v": 96
    },
    {
      "midi": 60,
      "hit": false,
      "t": 77828.53899999993,
      "d": 252.14275208333856,
      "v": 96
    },
    {
      "midi": 60,
      "hit": false,
      "t": 78085.68174999993,
      "d": 80.71425208332948,
      "v": 96
    },
    {
      "midi": 60,
      "hit": false,
      "t": 78171.39599999992,
      "d": 252.14275208333856,
      "v": 96
    },
    {
      "midi": 60,
      "hit": false,
      "t": 78428.53874999992,
      "d": 80.71425208332948,
      "v": 96
    },
    {
      "midi": 60,
      "hit": false,
      "t": 78514.25299999991,
      "d": 252.14275208333856,
      "v": 96
    },
    {
      "midi": 60,
      "hit": false,
      "t": 78771.39574999991,
      "d": 80.71425208332948,
      "v": 96
    },
    {
      "midi": 46,
      "hit": false,
      "t": 79028.53849999997,
      "d": 509.28550208333763,
      "v": 96
    },
    {
      "midi": 60,
      "hit": false,
      "t": 79114.2527499999,
      "d": 80.71425208332948,
      "v": 96
    },
    {
      "midi": 63,
      "hit": false,
      "t": 79199.96699999989,
      "d": 252.14275208333856,
      "v": 96
    },
    {
      "midi": 65,
      "hit": false,
      "t": 79457.10974999989,
      "d": 80.71425208332948,
      "v": 96
    },
    {
      "midi": 60,
      "hit": false,
      "t": 79542.82399999988,
      "d": 252.14275208333856,
      "v": 96
    },
    {
      "midi": 48,
      "hit": false,
      "t": 79542.82399999996,
      "d": 337.85700208332855,
      "v": 96
    },
    {
      "midi": 60,
      "hit": false,
      "t": 79799.96674999988,
      "d": 80.71425208332948,
      "v": 96
    },
    {
      "midi": 60,
      "hit": false,
      "t": 79885.68099999987,
      "d": 252.14275208333856,
      "v": 96
    },
    {
      "midi": 48,
      "hit": false,
      "t": 79885.68099999995,
      "d": 337.85700208332855,
      "v": 96
    },
    {
      "midi": 60,
      "hit": false,
      "t": 80142.82374999986,
      "d": 80.71425208332948,
      "v": 96
    },
    {
      "midi": 60,
      "hit": false,
      "t": 80485.68074999985,
      "d": 80.71425208332948,
      "v": 96
    },
    {
      "midi": 60,
      "hit": false,
      "t": 80571.39499999984,
      "d": 252.14275208333856,
      "v": 96
    },
    {
      "midi": 60,
      "hit": false,
      "t": 80828.53774999984,
      "d": 80.71425208332948,
      "v": 96
    },
    {
      "midi": 60,
      "hit": false,
      "t": 80914.25199999983,
      "d": 252.14275208333856,
      "v": 96
    },
    {
      "midi": 60,
      "hit": false,
      "t": 81171.39474999983,
      "d": 80.71425208332948,
      "v": 96
    },
    {
      "midi": 60,
      "hit": false,
      "t": 81257.10899999982,
      "d": 252.14275208333856,
      "v": 96
    },
    {
      "midi": 66,
      "hit": false,
      "t": 81514.25174999982,
      "d": 423.5712520833331,
      "v": 96
    },
    {
      "midi": 46,
      "hit": false,
      "t": 81514.25174999995,
      "d": 337.85700208332855,
      "v": 96
    },
    {
      "midi": 48,
      "hit": false,
      "t": 81857.10874999994,
      "d": 80.71425208332948,
      "v": 96
    },
    {
      "midi": 65,
      "hit": false,
      "t": 81942.82299999981,
      "d": 252.14275208333856,
      "v": 96
    },
    {
      "midi": 49,
      "hit": false,
      "t": 81942.82299999993,
      "d": 337.85700208332855,
      "v": 96
    },
    {
      "midi": 65,
      "hit": false,
      "t": 82199.96574999981,
      "d": 85.71425000000454,
      "v": 96
    },
    {
      "midi": 60,
      "hit": false,
      "t": 82285.67999999982,
      "d": 252.14275208333856,
      "v": 96
    },
    {
      "midi": 48,
      "hit": false,
      "t": 82285.67999999992,
      "d": 337.85700208332855,
      "v": 96
    },
    {
      "midi": 60,
      "hit": false,
      "t": 82542.82274999982,
      "d": 80.71425208332948,
      "v": 96
    },
    {
      "midi": 60,
      "hit": false,
      "t": 82628.53699999981,
      "d": 252.14275208333856,
      "v": 96
    },
    {
      "midi": 48,
      "hit": false,
      "t": 82628.53699999991,
      "d": 337.85700208332855,
      "v": 96
    },
    {
      "midi": 60,
      "hit": false,
      "t": 82885.6797499998,
      "d": 80.71425208332948,
      "v": 96
    },
    {
      "midi": 60,
      "hit": false,
      "t": 83228.5367499998,
      "d": 80.71425208332948,
      "v": 96
    },
    {
      "midi": 60,
      "hit": false,
      "t": 83314.25099999979,
      "d": 252.14275208333856,
      "v": 96
    },
    {
      "midi": 60,
      "hit": false,
      "t": 83571.39374999978,
      "d": 80.71425208332948,
      "v": 96
    },
    {
      "midi": 60,
      "hit": false,
      "t": 83657.10799999977,
      "d": 252.14275208333856,
      "v": 96
    },
    {
      "midi": 60,
      "hit": false,
      "t": 83914.25074999977,
      "d": 80.71425208332948,
      "v": 96
    },
    {
      "midi": 60,
      "hit": false,
      "t": 83999.96499999976,
      "d": 252.14275208333856,
      "v": 96
    },
    {
      "midi": 60,
      "hit": false,
      "t": 84257.10774999976,
      "d": 80.71425208332948,
      "v": 96
    },
    {
      "midi": 46,
      "hit": false,
      "t": 84514.25049999991,
      "d": 509.28550208333763,
      "v": 96
    },
    {
      "midi": 60,
      "hit": false,
      "t": 84599.96474999975,
      "d": 80.71425208332948,
      "v": 96
    },
    {
      "midi": 63,
      "hit": false,
      "t": 84685.67899999974,
      "d": 252.14275208333856,
      "v": 96
    },
    {
      "midi": 65,
      "hit": false,
      "t": 84942.82174999974,
      "d": 80.71425208332948,
      "v": 96
    },
    {
      "midi": 60,
      "hit": false,
      "t": 85028.53599999973,
      "d": 252.14275208333856,
      "v": 96
    },
    {
      "midi": 48,
      "hit": false,
      "t": 85028.5359999999,
      "d": 337.85700208332855,
      "v": 96
    },
    {
      "midi": 60,
      "hit": false,
      "t": 85285.67874999973,
      "d": 80.71425208332948,
      "v": 96
    },
    {
      "midi": 60,
      "hit": false,
      "t": 85371.39299999972,
      "d": 252.14275208333856,
      "v": 96
    },
    {
      "midi": 48,
      "hit": false,
      "t": 85371.3929999999,
      "d": 337.85700208332855,
      "v": 96
    },
    {
      "midi": 60,
      "hit": false,
      "t": 85628.53574999972,
      "d": 80.71425208332948,
      "v": 96
    },
    {
      "midi": 60,
      "hit": false,
      "t": 85971.39274999971,
      "d": 80.71425208332948,
      "v": 96
    },
    {
      "midi": 60,
      "hit": false,
      "t": 86057.1069999997,
      "d": 252.14275208333856,
      "v": 96
    },
    {
      "midi": 60,
      "hit": false,
      "t": 86314.2497499997,
      "d": 80.71425208332948,
      "v": 96
    },
    {
      "midi": 60,
      "hit": false,
      "t": 86399.96399999969,
      "d": 252.14275208333856,
      "v": 96
    },
    {
      "midi": 60,
      "hit": false,
      "t": 86657.10674999969,
      "d": 80.71425208332948,
      "v": 96
    },
    {
      "midi": 60,
      "hit": false,
      "t": 86742.82099999968,
      "d": 252.14275208333856,
      "v": 96
    },
    {
      "midi": 66,
      "hit": false,
      "t": 86999.96374999968,
      "d": 423.5712520833331,
      "v": 96
    },
    {
      "midi": 46,
      "hit": false,
      "t": 86999.9637499999,
      "d": 337.85700208332855,
      "v": 96
    },
    {
      "midi": 48,
      "hit": false,
      "t": 87342.82074999988,
      "d": 80.71425208332948,
      "v": 96
    },
    {
      "midi": 65,
      "hit": false,
      "t": 87428.53499999967,
      "d": 252.14275208333856,
      "v": 96
    },
    {
      "midi": 49,
      "hit": false,
      "t": 87428.53499999987,
      "d": 337.85700208332855,
      "v": 96
    },
    {
      "midi": 65,
      "hit": false,
      "t": 87685.67774999967,
      "d": 85.71425000000454,
      "v": 96
    },
    {
      "midi": 60,
      "hit": false,
      "t": 87771.39199999967,
      "d": 252.14275208333856,
      "v": 96
    },
    {
      "midi": 48,
      "hit": false,
      "t": 87771.39199999986,
      "d": 337.85700208332855,
      "v": 96
    },
    {
      "midi": 60,
      "hit": false,
      "t": 88028.53474999967,
      "d": 80.71425208332948,
      "v": 96
    },
    {
      "midi": 60,
      "hit": false,
      "t": 88114.24899999966,
      "d": 252.14275208333856,
      "v": 96
    },
    {
      "midi": 48,
      "hit": false,
      "t": 88114.24899999985,
      "d": 337.85700208332855,
      "v": 96
    },
    {
      "midi": 60,
      "hit": false,
      "t": 88371.39174999966,
      "d": 80.71425208332948,
      "v": 96
    },
    {
      "midi": 60,
      "hit": false,
      "t": 88714.24874999965,
      "d": 80.71425208332948,
      "v": 96
    },
    {
      "midi": 60,
      "hit": false,
      "t": 88799.96299999964,
      "d": 252.14275208333856,
      "v": 96
    },
    {
      "midi": 60,
      "hit": false,
      "t": 89057.10574999964,
      "d": 80.71425208332948,
      "v": 96
    },
    {
      "midi": 60,
      "hit": false,
      "t": 89142.81999999963,
      "d": 252.14275208333856,
      "v": 96
    },
    {
      "midi": 60,
      "hit": false,
      "t": 89399.96274999963,
      "d": 80.71425208332948,
      "v": 96
    },
    {
      "midi": 60,
      "hit": false,
      "t": 89485.67699999962,
      "d": 252.14275208333856,
      "v": 96
    },
    {
      "midi": 60,
      "hit": false,
      "t": 89742.81974999962,
      "d": 80.71425208332948,
      "v": 96
    },
    {
      "midi": 46,
      "hit": false,
      "t": 89999.96249999985,
      "d": 509.28550208333763,
      "v": 96
    },
    {
      "midi": 60,
      "hit": false,
      "t": 90085.6767499996,
      "d": 80.71425208332948,
      "v": 96
    },
    {
      "midi": 63,
      "hit": false,
      "t": 90171.3909999996,
      "d": 252.14275208333856,
      "v": 96
    },
    {
      "midi": 65,
      "hit": false,
      "t": 90428.5337499996,
      "d": 80.71425208332948,
      "v": 96
    },
    {
      "midi": 60,
      "hit": false,
      "t": 90514.24799999958,
      "d": 252.14275208333856,
      "v": 96
    },
    {
      "midi": 48,
      "hit": false,
      "t": 90514.24799999985,
      "d": 337.85700208332855,
      "v": 96
    },
    {
      "midi": 60,
      "hit": false,
      "t": 90771.39074999958,
      "d": 80.71425208332948,
      "v": 96
    },
    {
      "midi": 60,
      "hit": false,
      "t": 90857.10499999957,
      "d": 252.14275208333856,
      "v": 96
    },
    {
      "midi": 48,
      "hit": false,
      "t": 90857.10499999984,
      "d": 337.85700208332855,
      "v": 96
    },
    {
      "midi": 60,
      "hit": false,
      "t": 91114.24774999957,
      "d": 80.71425208332948,
      "v": 96
    },
    {
      "midi": 60,
      "hit": false,
      "t": 91457.10474999956,
      "d": 80.71425208332948,
      "v": 96
    },
    {
      "midi": 60,
      "hit": false,
      "t": 91542.81899999955,
      "d": 252.14275208333856,
      "v": 96
    },
    {
      "midi": 60,
      "hit": false,
      "t": 91799.96174999955,
      "d": 80.71425208332948,
      "v": 96
    },
    {
      "midi": 60,
      "hit": false,
      "t": 91885.67599999954,
      "d": 252.14275208333856,
      "v": 96
    },
    {
      "midi": 60,
      "hit": false,
      "t": 92142.81874999954,
      "d": 80.71425208332948,
      "v": 96
    },
    {
      "midi": 60,
      "hit": false,
      "t": 92228.53299999953,
      "d": 252.14275208333856,
      "v": 96
    },
    {
      "midi": 66,
      "hit": false,
      "t": 92485.67574999953,
      "d": 423.5712520833331,
      "v": 96
    },
    {
      "midi": 46,
      "hit": false,
      "t": 92485.67574999983,
      "d": 337.85700208332855,
      "v": 96
    },
    {
      "midi": 48,
      "hit": false,
      "t": 92828.53274999982,
      "d": 80.71425208332948,
      "v": 96
    },
    {
      "midi": 65,
      "hit": false,
      "t": 92914.24699999952,
      "d": 252.14275208333856,
      "v": 96
    },
    {
      "midi": 49,
      "hit": false,
      "t": 92914.24699999981,
      "d": 337.85700208332855,
      "v": 96
    },
    {
      "midi": 65,
      "hit": false,
      "t": 93171.38974999952,
      "d": 85.71425000000454,
      "v": 96
    },
    {
      "midi": 60,
      "hit": false,
      "t": 93257.10399999953,
      "d": 252.14275208333856,
      "v": 96
    },
    {
      "midi": 48,
      "hit": false,
      "t": 93257.1039999998,
      "d": 337.85700208332855,
      "v": 96
    },
    {
      "midi": 60,
      "hit": false,
      "t": 93514.24674999953,
      "d": 80.71425208332948,
      "v": 96
    },
    {
      "midi": 60,
      "hit": false,
      "t": 93599.96099999952,
      "d": 252.14275208333856,
      "v": 96
    },
    {
      "midi": 48,
      "hit": false,
      "t": 93599.96099999979,
      "d": 337.85700208332855,
      "v": 96
    },
    {
      "midi": 60,
      "hit": false,
      "t": 93857.10374999951,
      "d": 80.71425208332948,
      "v": 96
    },
    {
      "midi": 60,
      "hit": false,
      "t": 94199.9607499995,
      "d": 80.71425208332948,
      "v": 96
    },
    {
      "midi": 60,
      "hit": false,
      "t": 94285.6749999995,
      "d": 252.14275208333856,
      "v": 96
    },
    {
      "midi": 60,
      "hit": false,
      "t": 94542.81774999949,
      "d": 80.71425208332948,
      "v": 96
    },
    {
      "midi": 60,
      "hit": false,
      "t": 94628.53199999948,
      "d": 252.14275208333856,
      "v": 96
    },
    {
      "midi": 60,
      "hit": false,
      "t": 94885.67474999948,
      "d": 80.71425208332948,
      "v": 96
    },
    {
      "midi": 60,
      "hit": false,
      "t": 94971.38899999947,
      "d": 252.14275208333856,
      "v": 96
    },
    {
      "midi": 60,
      "hit": false,
      "t": 95228.53174999947,
      "d": 80.71425208332948,
      "v": 96
    },
    {
      "midi": 46,
      "hit": false,
      "t": 95485.67449999979,
      "d": 509.28550208333763,
      "v": 96
    },
    {
      "midi": 60,
      "hit": false,
      "t": 95571.38874999946,
      "d": 80.71425208332948,
      "v": 96
    },
    {
      "midi": 63,
      "hit": false,
      "t": 95657.10299999945,
      "d": 252.14275208333856,
      "v": 96
    },
    {
      "midi": 65,
      "hit": false,
      "t": 95914.24574999945,
      "d": 80.71425208332948,
      "v": 96
    },
    {
      "midi": 60,
      "hit": false,
      "t": 95999.95999999944,
      "d": 252.14275208333856,
      "v": 96
    },
    {
      "midi": 48,
      "hit": false,
      "t": 95999.95999999979,
      "d": 337.85700208332855,
      "v": 96
    },
    {
      "midi": 60,
      "hit": false,
      "t": 96257.10274999944,
      "d": 80.71425208332948,
      "v": 96
    },
    {
      "midi": 60,
      "hit": false,
      "t": 96342.81699999943,
      "d": 252.14275208333856,
      "v": 96
    },
    {
      "midi": 48,
      "hit": false,
      "t": 96342.81699999978,
      "d": 337.85700208332855,
      "v": 96
    },
    {
      "midi": 60,
      "hit": false,
      "t": 96599.95974999943,
      "d": 80.71425208332948,
      "v": 96
    },
    {
      "midi": 60,
      "hit": false,
      "t": 96942.81674999942,
      "d": 80.71425208332948,
      "v": 96
    },
    {
      "midi": 60,
      "hit": false,
      "t": 97028.5309999994,
      "d": 252.14275208333856,
      "v": 96
    },
    {
      "midi": 60,
      "hit": false,
      "t": 97285.6737499994,
      "d": 80.71425208332948,
      "v": 96
    },
    {
      "midi": 60,
      "hit": false,
      "t": 97371.3879999994,
      "d": 252.14275208333856,
      "v": 96
    },
    {
      "midi": 60,
      "hit": false,
      "t": 97628.5307499994,
      "d": 80.71425208332948,
      "v": 96
    },
    {
      "midi": 60,
      "hit": false,
      "t": 97714.24499999938,
      "d": 252.14275208333856,
      "v": 96
    },
    {
      "midi": 66,
      "hit": false,
      "t": 97971.38774999938,
      "d": 423.5712520833331,
      "v": 96
    },
    {
      "midi": 46,
      "hit": false,
      "t": 97971.38774999978,
      "d": 337.85700208332855,
      "v": 96
    },
    {
      "midi": 48,
      "hit": false,
      "t": 98314.24474999977,
      "d": 80.71425208332948,
      "v": 96
    },
    {
      "midi": 65,
      "hit": false,
      "t": 98399.95899999938,
      "d": 252.14275208333856,
      "v": 96
    },
    {
      "midi": 49,
      "hit": false,
      "t": 98399.95899999976,
      "d": 337.85700208332855,
      "v": 96
    },
    {
      "midi": 65,
      "hit": false,
      "t": 98657.10174999938,
      "d": 85.71425000000454,
      "v": 96
    }
  ]
}