{
  "jsonPath": "Classical/Classical/John Philip Sousa/transit-of-venus-march.json",
  "path": "Classical\\Classical\\John Philip Sousa\\Transit of Venus March.mid",
  "name": "Transit of Venus March",
  "difficulty": "Advanced",
  "bpm": 180.00018000018,
  "notes": [
    {
      "midi": 79,
      "hit": false,
      "t": 0,
      "d": 166.66649999999998,
      "v": 127
    },
    {
      "midi": 91,
      "hit": false,
      "t": 0,
      "d": 166.66649999999998,
      "v": 127
    },
    {
      "midi": 55,
      "hit": false,
      "t": 0,
      "d": 166.66649999999998,
      "v": 127
    },
    {
      "midi": 67,
      "hit": false,
      "t": 0,
      "d": 166.66649999999998,
      "v": 127
    },
    {
      "midi": 78,
      "hit": false,
      "t": 166.66649999999998,
      "d": 166.66649999999998,
      "v": 127
    },
    {
      "midi": 90,
      "hit": false,
      "t": 166.66649999999998,
      "d": 166.66649999999998,
      "v": 127
    },
    {
      "midi": 54,
      "hit": false,
      "t": 166.66649999999998,
      "d": 166.66649999999998,
      "v": 127
    },
    {
      "midi": 66,
      "hit": false,
      "t": 166.66649999999998,
      "d": 166.66649999999998,
      "v": 127
    },
    {
      "midi": 76,
      "hit": false,
      "t": 333.33299999999997,
      "d": 166.66649999999998,
      "v": 127
    },
    {
      "midi": 88,
      "hit": false,
      "t": 333.33299999999997,
      "d": 166.66649999999998,
      "v": 127
    },
    {
      "midi": 52,
      "hit": false,
      "t": 333.33299999999997,
      "d": 166.66649999999998,
      "v": 127
    },
    {
      "midi": 64,
      "hit": false,
      "t": 333.33299999999997,
      "d": 166.66649999999998,
      "v": 127
    },
    {
      "midi": 74,
      "hit": false,
      "t": 499.99949999999995,
      "d": 166.66649999999998,
      "v": 127
    },
    {
      "midi": 86,
      "hit": false,
      "t": 499.99949999999995,
      "d": 166.66649999999998,
      "v": 127
    },
    {
      "midi": 50,
      "hit": false,
      "t": 499.99949999999995,
      "d": 166.66649999999998,
      "v": 127
    },
    {
      "midi": 62,
      "hit": false,
      "t": 499.99949999999995,
      "d": 166.66649999999998,
      "v": 127
    },
    {
      "midi": 76,
      "hit": false,
      "t": 666.6659999999999,
      "d": 166.66650000000004,
      "v": 127
    },
    {
      "midi": 88,
      "hit": false,
      "t": 666.6659999999999,
      "d": 166.66650000000004,
      "v": 127
    },
    {
      "midi": 52,
      "hit": false,
      "t": 666.6659999999999,
      "d": 166.66650000000004,
      "v": 127
    },
    {
      "midi": 64,
      "hit": false,
      "t": 666.6659999999999,
      "d": 166.66650000000004,
      "v": 127
    },
    {
      "midi": 78,
      "hit": false,
      "t": 833.3325,
      "d": 166.66650000000004,
      "v": 127
    },
    {
      "midi": 90,
      "hit": false,
      "t": 833.3325,
      "d": 166.66650000000004,
      "v": 127
    },
    {
      "midi": 54,
      "hit": false,
      "t": 833.3325,
      "d": 166.66650000000004,
      "v": 127
    },
    {
      "midi": 66,
      "hit": false,
      "t": 833.3325,
      "d": 166.66650000000004,
      "v": 127
    },
    {
      "midi": 79,
      "hit": false,
      "t": 999.999,
      "d": 166.66650000000004,
      "v": 127
    },
    {
      "midi": 91,
      "hit": false,
      "t": 999.999,
      "d": 166.66650000000004,
      "v": 127
    },
    {
      "midi": 55,
      "hit": false,
      "t": 999.999,
      "d": 166.66650000000004,
      "v": 127
    },
    {
      "midi": 67,
      "hit": false,
      "t": 999.999,
      "d": 166.66650000000004,
      "v": 127
    },
    {
      "midi": 78,
      "hit": false,
      "t": 1166.6655,
      "d": 166.66650000000004,
      "v": 127
    },
    {
      "midi": 90,
      "hit": false,
      "t": 1166.6655,
      "d": 166.66650000000004,
      "v": 127
    },
    {
      "midi": 54,
      "hit": false,
      "t": 1166.6655,
      "d": 166.66650000000004,
      "v": 127
    },
    {
      "midi": 66,
      "hit": false,
      "t": 1166.6655,
      "d": 166.66650000000004,
      "v": 127
    },
    {
      "midi": 76,
      "hit": false,
      "t": 1333.332,
      "d": 166.66650000000004,
      "v": 127
    },
    {
      "midi": 88,
      "hit": false,
      "t": 1333.332,
      "d": 166.66650000000004,
      "v": 127
    },
    {
      "midi": 52,
      "hit": false,
      "t": 1333.332,
      "d": 166.66650000000004,
      "v": 127
    },
    {
      "midi": 64,
      "hit": false,
      "t": 1333.332,
      "d": 166.66650000000004,
      "v": 127
    },
    {
      "midi": 74,
      "hit": false,
      "t": 1499.9985000000001,
      "d": 166.66650000000004,
      "v": 127
    },
    {
      "midi": 86,
      "hit": false,
      "t": 1499.9985000000001,
      "d": 166.66650000000004,
      "v": 127
    },
    {
      "midi": 50,
      "hit": false,
      "t": 1499.9985000000001,
      "d": 166.66650000000004,
      "v": 127
    },
    {
      "midi": 62,
      "hit": false,
      "t": 1499.9985000000001,
      "d": 166.66650000000004,
      "v": 127
    },
    {
      "midi": 76,
      "hit": false,
      "t": 1666.6650000000002,
      "d": 166.66650000000004,
      "v": 127
    },
    {
      "midi": 88,
      "hit": false,
      "t": 1666.6650000000002,
      "d": 166.66650000000004,
      "v": 127
    },
    {
      "midi": 52,
      "hit": false,
      "t": 1666.6650000000002,
      "d": 166.66650000000004,
      "v": 127
    },
    {
      "midi": 64,
      "hit": false,
      "t": 1666.6650000000002,
      "d": 166.66650000000004,
      "v": 127
    },
    {
      "midi": 74,
      "hit": false,
      "t": 1833.3315000000002,
      "d": 166.66650000000004,
      "v": 127
    },
    {
      "midi": 86,
      "hit": false,
      "t": 1833.3315000000002,
      "d": 166.66650000000004,
      "v": 127
    },
    {
      "midi": 50,
      "hit": false,
      "t": 1833.3315000000002,
      "d": 166.66650000000004,
      "v": 127
    },
    {
      "midi": 62,
      "hit": false,
      "t": 1833.3315000000002,
      "d": 166.66650000000004,
      "v": 127
    },
    {
      "midi": 73,
      "hit": false,
      "t": 1999.9980000000003,
      "d": 166.66650000000004,
      "v": 127
    },
    {
      "midi": 85,
      "hit": false,
      "t": 1999.9980000000003,
      "d": 166.66650000000004,
      "v": 127
    },
    {
      "midi": 49,
      "hit": false,
      "t": 1999.9980000000003,
      "d": 166.66650000000004,
      "v": 127
    },
    {
      "midi": 61,
      "hit": false,
      "t": 1999.9980000000003,
      "d": 166.66650000000004,
      "v": 127
    },
    {
      "midi": 74,
      "hit": false,
      "t": 2166.6645000000003,
      "d": 166.66649999999981,
      "v": 127
    },
    {
      "midi": 86,
      "hit": false,
      "t": 2166.6645000000003,
      "d": 166.66649999999981,
      "v": 127
    },
    {
      "midi": 50,
      "hit": false,
      "t": 2166.6645000000003,
      "d": 166.66649999999981,
      "v": 127
    },
    {
      "midi": 62,
      "hit": false,
      "t": 2166.6645000000003,
      "d": 166.66649999999981,
      "v": 127
    },
    {
      "midi": 73,
      "hit": false,
      "t": 2333.331,
      "d": 166.66649999999981,
      "v": 127
    },
    {
      "midi": 85,
      "hit": false,
      "t": 2333.331,
      "d": 166.66649999999981,
      "v": 127
    },
    {
      "midi": 49,
      "hit": false,
      "t": 2333.331,
      "d": 166.66649999999981,
      "v": 127
    },
    {
      "midi": 61,
      "hit": false,
      "t": 2333.331,
      "d": 166.66649999999981,
      "v": 127
    },
    {
      "midi": 72,
      "hit": false,
      "t": 2499.9975,
      "d": 166.66649999999981,
      "v": 127
    },
    {
      "midi": 84,
      "hit": false,
      "t": 2499.9975,
      "d": 166.66649999999981,
      "v": 127
    },
    {
      "midi": 48,
      "hit": false,
      "t": 2499.9975,
      "d": 166.66649999999981,
      "v": 127
    },
    {
      "midi": 60,
      "hit": false,
      "t": 2499.9975,
      "d": 166.66649999999981,
      "v": 127
    },
    {
      "midi": 71,
      "hit": false,
      "t": 2666.6639999999998,
      "d": 166.66649999999981,
      "v": 127
    },
    {
      "midi": 83,
      "hit": false,
      "t": 2666.6639999999998,
      "d": 166.66649999999981,
      "v": 127
    },
    {
      "midi": 47,
      "hit": false,
      "t": 2666.6639999999998,
      "d": 166.66649999999981,
      "v": 127
    },
    {
      "midi": 59,
      "hit": false,
      "t": 2666.6639999999998,
      "d": 166.66649999999981,
      "v": 127
    },
    {
      "midi": 69,
      "hit": false,
      "t": 2833.3304999999996,
      "d": 166.66649999999981,
      "v": 127
    },
    {
      "midi": 81,
      "hit": false,
      "t": 2833.3304999999996,
      "d": 166.66649999999981,
      "v": 127
    },
    {
      "midi": 45,
      "hit": false,
      "t": 2833.3304999999996,
      "d": 166.66649999999981,
      "v": 127
    },
    {
      "midi": 57,
      "hit": false,
      "t": 2833.3304999999996,
      "d": 166.66649999999981,
      "v": 127
    },
    {
      "midi": 67,
      "hit": false,
      "t": 2999.9969999999994,
      "d": 499.9994999999999,
      "v": 127
    },
    {
      "midi": 79,
      "hit": false,
      "t": 2999.9969999999994,
      "d": 499.9994999999999,
      "v": 127
    },
    {
      "midi": 43,
      "hit": false,
      "t": 2999.9969999999994,
      "d": 499.9994999999999,
      "v": 127
    },
    {
      "midi": 55,
      "hit": false,
      "t": 2999.9969999999994,
      "d": 499.9994999999999,
      "v": 127
    },
    {
      "midi": 74,
      "hit": false,
      "t": 3499.9964999999993,
      "d": 166.66649999999981,
      "v": 127
    },
    {
      "midi": 76,
      "hit": false,
      "t": 3666.662999999999,
      "d": 166.66649999999981,
      "v": 127
    },
    {
      "midi": 74,
      "hit": false,
      "t": 3833.329499999999,
      "d": 166.66649999999981,
      "v": 127
    },
    {
      "midi": 73,
      "hit": false,
      "t": 3999.9959999999987,
      "d": 333.3330000000001,
      "v": 127
    },
    {
      "midi": 43,
      "hit": false,
      "t": 3999.995999999999,
      "d": 333.33299999999963,
      "v": 127
    },
    {
      "midi": 74,
      "hit": false,
      "t": 4333.328999999999,
      "d": 166.66650000000027,
      "v": 127
    },
    {
      "midi": 50,
      "hit": false,
      "t": 4333.328999999999,
      "d": 166.66650000000027,
      "v": 127
    },
    {
      "midi": 55,
      "hit": false,
      "t": 4333.328999999999,
      "d": 166.66650000000027,
      "v": 127
    },
    {
      "midi": 59,
      "hit": false,
      "t": 4333.328999999999,
      "d": 166.66650000000027,
      "v": 127
    },
    {
      "midi": 67,
      "hit": false,
      "t": 4499.995499999999,
      "d": 333.33299999999963,
      "v": 127
    },
    {
      "midi": 71,
      "hit": false,
      "t": 4499.995499999999,
      "d": 333.33299999999963,
      "v": 127
    },
    {
      "midi": 50,
      "hit": false,
      "t": 4499.995499999999,
      "d": 333.33299999999963,
      "v": 127
    },
    {
      "midi": 67,
      "hit": false,
      "t": 4833.328499999999,
      "d": 166.66650000000027,
      "v": 127
    },
    {
      "midi": 71,
      "hit": false,
      "t": 4833.328499999999,
      "d": 166.66650000000027,
      "v": 127
    },
    {
      "midi": 50,
      "hit": false,
      "t": 4833.328499999999,
      "d": 166.66650000000027,
      "v": 127
    },
    {
      "midi": 55,
      "hit": false,
      "t": 4833.328499999999,
      "d": 166.66650000000027,
      "v": 127
    },
    {
      "midi": 59,
      "hit": false,
      "t": 4833.328499999999,
      "d": 166.66650000000027,
      "v": 127
    },
    {
      "midi": 67,
      "hit": false,
      "t": 4999.994999999999,
      "d": 333.33299999999963,
      "v": 127
    },
    {
      "midi": 71,
      "hit": false,
      "t": 4999.994999999999,
      "d": 333.33299999999963,
      "v": 127
    },
    {
      "midi": 43,
      "hit": false,
      "t": 4999.994999999999,
      "d": 333.33299999999963,
      "v": 127
    },
    {
      "midi": 67,
      "hit": false,
      "t": 5333.327999999999,
      "d": 166.66650000000027,
      "v": 127
    },
    {
      "midi": 71,
      "hit": false,
      "t": 5333.327999999999,
      "d": 166.66650000000027,
      "v": 127
    },
    {
      "midi": 50,
      "hit": false,
      "t": 5333.327999999999,
      "d": 166.66650000000027,
      "v": 127
    },
    {
      "midi": 55,
      "hit": false,
      "t": 5333.327999999999,
      "d": 166.66650000000027,
      "v": 127
    },
    {
      "midi": 59,
      "hit": false,
      "t": 5333.327999999999,
      "d": 166.66650000000027,
      "v": 127
    },
    {
      "midi": 67,
      "hit": false,
      "t": 5499.994499999999,
      "d": 166.66650000000027,
      "v": 127
    },
    {
      "midi": 71,
      "hit": false,
      "t": 5499.994499999999,
      "d": 166.66650000000027,
      "v": 127
    },
    {
      "midi": 50,
      "hit": false,
      "t": 5499.994499999999,
      "d": 333.33299999999963,
      "v": 127
    },
    {
      "midi": 76,
      "hit": false,
      "t": 5666.660999999999,
      "d": 166.66650000000027,
      "v": 127
    },
    {
      "midi": 50,
      "hit": false,
      "t": 5833.3274999999985,
      "d": 166.66650000000027,
      "v": 127
    },
    {
      "midi": 55,
      "hit": false,
      "t": 5833.3274999999985,
      "d": 166.66650000000027,
      "v": 127
    },
    {
      "midi": 59,
      "hit": false,
      "t": 5833.3274999999985,
      "d": 166.66650000000027,
      "v": 127
    },
    {
      "midi": 74,
      "hit": false,
      "t": 5833.327499999999,
      "d": 166.66650000000027,
      "v": 127
    },
    {
      "midi": 45,
      "hit": false,
      "t": 5999.993999999999,
      "d": 333.33299999999963,
      "v": 127
    },
    {
      "midi": 73,
      "hit": false,
      "t": 5999.994,
      "d": 333.33299999999963,
      "v": 127
    },
    {
      "midi": 54,
      "hit": false,
      "t": 6333.326999999998,
      "d": 166.66650000000027,
      "v": 127
    },
    {
      "midi": 57,
      "hit": false,
      "t": 6333.326999999998,
      "d": 166.66650000000027,
      "v": 127
    },
    {
      "midi": 60,
      "hit": false,
      "t": 6333.326999999998,
      "d": 166.66650000000027,
      "v": 127
    },
    {
      "midi": 74,
      "hit": false,
      "t": 6333.326999999999,
      "d": 166.66650000000027,
      "v": 127
    },
    {
      "midi": 50,
      "hit": false,
      "t": 6499.993499999999,
      "d": 333.33299999999963,
      "v": 127
    },
    {
      "midi": 66,
      "hit": false,
      "t": 6499.9935,
      "d": 333.33299999999963,
      "v": 127
    },
    {
      "midi": 69,
      "hit": false,
      "t": 6499.9935,
      "d": 333.33299999999963,
      "v": 127
    },
    {
      "midi": 54,
      "hit": false,
      "t": 6833.326499999998,
      "d": 166.66650000000027,
      "v": 127
    },
    {
      "midi": 57,
      "hit": false,
      "t": 6833.326499999998,
      "d": 166.66650000000027,
      "v": 127
    },
    {
      "midi": 60,
      "hit": false,
      "t": 6833.326499999998,
      "d": 166.66650000000027,
      "v": 127
    },
    {
      "midi": 66,
      "hit": false,
      "t": 6833.326499999999,
      "d": 166.66650000000027,
      "v": 127
    },
    {
      "midi": 69,
      "hit": false,
      "t": 6833.326499999999,
      "d": 166.66650000000027,
      "v": 127
    },
    {
      "midi": 45,
      "hit": false,
      "t": 6999.992999999999,
      "d": 333.33299999999963,
      "v": 127
    },
    {
      "midi": 66,
      "hit": false,
      "t": 6999.9929999999995,
      "d": 333.33299999999963,
      "v": 127
    },
    {
      "midi": 69,
      "hit": false,
      "t": 6999.9929999999995,
      "d": 333.33299999999963,
      "v": 127
    },
    {
      "midi": 54,
      "hit": false,
      "t": 7333.325999999998,
      "d": 166.66650000000027,
      "v": 127
    },
    {
      "midi": 57,
      "hit": false,
      "t": 7333.325999999998,
      "d": 166.66650000000027,
      "v": 127
    },
    {
      "midi": 60,
      "hit": false,
      "t": 7333.325999999998,
      "d": 166.66650000000027,
      "v": 127
    },
    {
      "midi": 66,
      "hit": false,
      "t": 7333.325999999999,
      "d": 166.66650000000027,
      "v": 127
    },
    {
      "midi": 69,
      "hit": false,
      "t": 7333.325999999999,
      "d": 166.66650000000027,
      "v": 127
    },
    {
      "midi": 50,
      "hit": false,
      "t": 7499.9924999999985,
      "d": 333.33299999999963,
      "v": 127
    },
    {
      "midi": 69,
      "hit": false,
      "t": 7499.992499999999,
      "d": 166.66650000000027,
      "v": 127
    },
    {
      "midi": 74,
      "hit": false,
      "t": 7666.659,
      "d": 166.66650000000027,
      "v": 127
    },
    {
      "midi": 54,
      "hit": false,
      "t": 7833.325499999998,
      "d": 166.66650000000027,
      "v": 127
    },
    {
      "midi": 57,
      "hit": false,
      "t": 7833.325499999998,
      "d": 166.66650000000027,
      "v": 127
    },
    {
      "midi": 60,
      "hit": false,
      "t": 7833.325499999998,
      "d": 166.66650000000027,
      "v": 127
    },
    {
      "midi": 81,
      "hit": false,
      "t": 7833.3255,
      "d": 166.66650000000027,
      "v": 127
    },
    {
      "midi": 45,
      "hit": false,
      "t": 7999.991999999998,
      "d": 333.33300000000054,
      "v": 127
    },
    {
      "midi": 69,
      "hit": false,
      "t": 7999.992,
      "d": 333.33300000000054,
      "v": 127
    },
    {
      "midi": 72,
      "hit": false,
      "t": 7999.992,
      "d": 333.33300000000054,
      "v": 127
    },
    {
      "midi": 79,
      "hit": false,
      "t": 7999.992,
      "d": 333.33300000000054,
      "v": 127
    },
    {
      "midi": 54,
      "hit": false,
      "t": 8333.324999999999,
      "d": 166.66649999999936,
      "v": 127
    },
    {
      "midi": 57,
      "hit": false,
      "t": 8333.324999999999,
      "d": 166.66649999999936,
      "v": 127
    },
    {
      "midi": 60,
      "hit": false,
      "t": 8333.324999999999,
      "d": 166.66649999999936,
      "v": 127
    },
    {
      "midi": 69,
      "hit": false,
      "t": 8333.325,
      "d": 166.66649999999936,
      "v": 127
    },
    {
      "midi": 72,
      "hit": false,
      "t": 8333.325,
      "d": 166.66649999999936,
      "v": 127
    },
    {
      "midi": 79,
      "hit": false,
      "t": 8333.325,
      "d": 166.66649999999936,
      "v": 127
    },
    {
      "midi": 50,
      "hit": false,
      "t": 8499.991499999998,
      "d": 333.33300000000054,
      "v": 127
    },
    {
      "midi": 69,
      "hit": false,
      "t": 8499.9915,
      "d": 333.33300000000054,
      "v": 127
    },
    {
      "midi": 72,
      "hit": false,
      "t": 8499.9915,
      "d": 333.33300000000054,
      "v": 127
    },
    {
      "midi": 79,
      "hit": false,
      "t": 8499.9915,
      "d": 333.33300000000054,
      "v": 127
    },
    {
      "midi": 54,
      "hit": false,
      "t": 8833.324499999999,
      "d": 166.66649999999936,
      "v": 127
    },
    {
      "midi": 57,
      "hit": false,
      "t": 8833.324499999999,
      "d": 166.66649999999936,
      "v": 127
    },
    {
      "midi": 60,
      "hit": false,
      "t": 8833.324499999999,
      "d": 166.66649999999936,
      "v": 127
    },
    {
      "midi": 69,
      "hit": false,
      "t": 8833.3245,
      "d": 166.66649999999936,
      "v": 127
    },
    {
      "midi": 72,
      "hit": false,
      "t": 8833.3245,
      "d": 166.66649999999936,
      "v": 127
    },
    {
      "midi": 78,
      "hit": false,
      "t": 8833.3245,
      "d": 166.66649999999936,
      "v": 127
    },
    {
      "midi": 45,
      "hit": false,
      "t": 8999.990999999998,
      "d": 333.33300000000054,
      "v": 127
    },
    {
      "midi": 69,
      "hit": false,
      "t": 8999.991,
      "d": 333.33300000000054,
      "v": 127
    },
    {
      "midi": 72,
      "hit": false,
      "t": 8999.991,
      "d": 333.33300000000054,
      "v": 127
    },
    {
      "midi": 78,
      "hit": false,
      "t": 8999.991,
      "d": 333.33300000000054,
      "v": 127
    },
    {
      "midi": 54,
      "hit": false,
      "t": 9333.323999999999,
      "d": 166.66649999999936,
      "v": 127
    },
    {
      "midi": 57,
      "hit": false,
      "t": 9333.323999999999,
      "d": 166.66649999999936,
      "v": 127
    },
    {
      "midi": 60,
      "hit": false,
      "t": 9333.323999999999,
      "d": 166.66649999999936,
      "v": 127
    },
    {
      "midi": 69,
      "hit": false,
      "t": 9333.324,
      "d": 166.66649999999936,
      "v": 127
    },
    {
      "midi": 72,
      "hit": false,
      "t": 9333.324,
      "d": 166.66649999999936,
      "v": 127
    },
    {
      "midi": 78,
      "hit": false,
      "t": 9333.324,
      "d": 166.66649999999936,
      "v": 127
    },
    {
      "midi": 50,
      "hit": false,
      "t": 9499.990499999998,
      "d": 333.33300000000054,
      "v": 127
    },
    {
      "midi": 69,
      "hit": false,
      "t": 9499.9905,
      "d": 333.33300000000054,
      "v": 127
    },
    {
      "midi": 72,
      "hit": false,
      "t": 9499.9905,
      "d": 333.33300000000054,
      "v": 127
    },
    {
      "midi": 78,
      "hit": false,
      "t": 9499.9905,
      "d": 333.33300000000054,
      "v": 127
    },
    {
      "midi": 54,
      "hit": false,
      "t": 9833.323499999999,
      "d": 166.66649999999936,
      "v": 127
    },
    {
      "midi": 57,
      "hit": false,
      "t": 9833.323499999999,
      "d": 166.66649999999936,
      "v": 127
    },
    {
      "midi": 60,
      "hit": false,
      "t": 9833.323499999999,
      "d": 166.66649999999936,
      "v": 127
    },
    {
      "midi": 72,
      "hit": false,
      "t": 9833.3235,
      "d": 166.66649999999936,
      "v": 127
    },
    {
      "midi": 76,
      "hit": false,
      "t": 9833.3235,
      "d": 166.66649999999936,
      "v": 127
    },
    {
      "midi": 45,
      "hit": false,
      "t": 9999.989999999998,
      "d": 333.33300000000054,
      "v": 127
    },
    {
      "midi": 72,
      "hit": false,
      "t": 9999.99,
      "d": 166.66649999999936,
      "v": 127
    },
    {
      "midi": 76,
      "hit": false,
      "t": 9999.99,
      "d": 166.66649999999936,
      "v": 127
    },
    {
      "midi": 74,
      "hit": false,
      "t": 10166.6565,
      "d": 166.66649999999936,
      "v": 127
    },
    {
      "midi": 78,
      "hit": false,
      "t": 10166.6565,
      "d": 166.66649999999936,
      "v": 127
    },
    {
      "midi": 76,
      "hit": false,
      "t": 10333.322999999999,
      "d": 166.66649999999936,
      "v": 127
    },
    {
      "midi": 79,
      "hit": false,
      "t": 10333.322999999999,
      "d": 166.66649999999936,
      "v": 127
    },
    {
      "midi": 54,
      "hit": false,
      "t": 10333.322999999999,
      "d": 166.66649999999936,
      "v": 127
    },
    {
      "midi": 57,
      "hit": false,
      "t": 10333.322999999999,
      "d": 166.66649999999936,
      "v": 127
    },
    {
      "midi": 60,
      "hit": false,
      "t": 10333.322999999999,
      "d": 166.66649999999936,
      "v": 127
    },
    {
      "midi": 74,
      "hit": false,
      "t": 10499.989499999998,
      "d": 333.33300000000054,
      "v": 127
    },
    {
      "midi": 78,
      "hit": false,
      "t": 10499.989499999998,
      "d": 333.33300000000054,
      "v": 127
    },
    {
      "midi": 50,
      "hit": false,
      "t": 10499.989499999998,
      "d": 333.33300000000054,
      "v": 127
    },
    {
      "midi": 72,
      "hit": false,
      "t": 10833.322499999998,
      "d": 166.66649999999936,
      "v": 127
    },
    {
      "midi": 76,
      "hit": false,
      "t": 10833.322499999998,
      "d": 166.66649999999936,
      "v": 127
    },
    {
      "midi": 54,
      "hit": false,
      "t": 10833.322499999998,
      "d": 166.66649999999936,
      "v": 127
    },
    {
      "midi": 57,
      "hit": false,
      "t": 10833.322499999998,
      "d": 166.66649999999936,
      "v": 127
    },
    {
      "midi": 60,
      "hit": false,
      "t": 10833.322499999998,
      "d": 166.66649999999936,
      "v": 127
    },
    {
      "midi": 71,
      "hit": false,
      "t": 10999.988999999998,
      "d": 499.9994999999999,
      "v": 127
    },
    {
      "midi": 74,
      "hit": false,
      "t": 10999.988999999998,
      "d": 499.9994999999999,
      "v": 127
    },
    {
      "midi": 43,
      "hit": false,
      "t": 10999.988999999998,
      "d": 333.33300000000054,
      "v": 127
    },
    {
      "midi": 50,
      "hit": false,
      "t": 11333.321999999998,
      "d": 166.66649999999936,
      "v": 127
    },
    {
      "midi": 55,
      "hit": false,
      "t": 11333.321999999998,
      "d": 166.66649999999936,
      "v": 127
    },
    {
      "midi": 59,
      "hit": false,
      "t": 11333.321999999998,
      "d": 166.66649999999936,
      "v": 127
    },
    {
      "midi": 71,
      "hit": false,
      "t": 11499.988499999998,
      "d": 166.66649999999936,
      "v": 127
    },
    {
      "midi": 50,
      "hit": false,
      "t": 11499.988499999998,
      "d": 333.33300000000054,
      "v": 127
    },
    {
      "midi": 76,
      "hit": false,
      "t": 11666.654999999997,
      "d": 166.66649999999936,
      "v": 127
    },
    {
      "midi": 74,
      "hit": false,
      "t": 11833.321499999996,
      "d": 166.66649999999936,
      "v": 127
    },
    {
      "midi": 50,
      "hit": false,
      "t": 11833.321499999998,
      "d": 166.66649999999936,
      "v": 127
    },
    {
      "midi": 55,
      "hit": false,
      "t": 11833.321499999998,
      "d": 166.66649999999936,
      "v": 127
    },
    {
      "midi": 59,
      "hit": false,
      "t": 11833.321499999998,
      "d": 166.66649999999936,
      "v": 127
    },
    {
      "midi": 73,
      "hit": false,
      "t": 11999.987999999996,
      "d": 333.33300000000054,
      "v": 127
    },
    {
      "midi": 43,
      "hit": false,
      "t": 11999.987999999998,
      "d": 333.33300000000054,
      "v": 127
    },
    {
      "midi": 74,
      "hit": false,
      "t": 12333.320999999996,
      "d": 166.66649999999936,
      "v": 127
    },
    {
      "midi": 50,
      "hit": false,
      "t": 12333.320999999998,
      "d": 166.66649999999936,
      "v": 127
    },
    {
      "midi": 55,
      "hit": false,
      "t": 12333.320999999998,
      "d": 166.66649999999936,
      "v": 127
    },
    {
      "midi": 59,
      "hit": false,
      "t": 12333.320999999998,
      "d": 166.66649999999936,
      "v": 127
    },
    {
      "midi": 71,
      "hit": false,
      "t": 12499.987499999996,
      "d": 333.33300000000054,
      "v": 127
    },
    {
      "midi": 50,
      "hit": false,
      "t": 12499.987499999997,
      "d": 333.33300000000054,
      "v": 127
    },
    {
      "midi": 71,
      "hit": false,
      "t": 12833.320499999996,
      "d": 166.66649999999936,
      "v": 127
    },
    {
      "midi": 50,
      "hit": false,
      "t": 12833.320499999998,
      "d": 166.66649999999936,
      "v": 127
    },
    {
      "midi": 55,
      "hit": false,
      "t": 12833.320499999998,
      "d": 166.66649999999936,
      "v": 127
    },
    {
      "midi": 59,
      "hit": false,
      "t": 12833.320499999998,
      "d": 166.66649999999936,
      "v": 127
    },
    {
      "midi": 71,
      "hit": false,
      "t": 12999.986999999996,
      "d": 333.33300000000054,
      "v": 127
    },
    {
      "midi": 43,
      "hit": false,
      "t": 12999.986999999997,
      "d": 333.33300000000054,
      "v": 127
    },
    {
      "midi": 71,
      "hit": false,
      "t": 13333.319999999996,
      "d": 166.66649999999936,
      "v": 127
    },
    {
      "midi": 50,
      "hit": false,
      "t": 13333.319999999998,
      "d": 166.66649999999936,
      "v": 127
    },
    {
      "midi": 55,
      "hit": false,
      "t": 13333.319999999998,
      "d": 166.66649999999936,
      "v": 127
    },
    {
      "midi": 59,
      "hit": false,
      "t": 13333.319999999998,
      "d": 166.66649999999936,
      "v": 127
    },
    {
      "midi": 71,
      "hit": false,
      "t": 13499.986499999995,
      "d": 166.66649999999936,
      "v": 127
    },
    {
      "midi": 50,
      "hit": false,
      "t": 13499.986499999997,
      "d": 333.33300000000054,
      "v": 127
    },
    {
      "midi": 76,
      "hit": false,
      "t": 13666.652999999995,
      "d": 166.66649999999936,
      "v": 127
    },
    {
      "midi": 74,
      "hit": false,
      "t": 13833.319499999994,
      "d": 166.66649999999936,
      "v": 127
    },
    {
      "midi": 50,
      "hit": false,
      "t": 13833.319499999998,
      "d": 166.66649999999936,
      "v": 127
    },
    {
      "midi": 55,
      "hit": false,
      "t": 13833.319499999998,
      "d": 166.66649999999936,
      "v": 127
    },
    {
      "midi": 59,
      "hit": false,
      "t": 13833.319499999998,
      "d": 166.66649999999936,
      "v": 127
    },
    {
      "midi": 73,
      "hit": false,
      "t": 13999.985999999994,
      "d": 333.33300000000054,
      "v": 127
    },
    {
      "midi": 45,
      "hit": false,
      "t": 13999.985999999997,
      "d": 333.33300000000054,
      "v": 127
    },
    {
      "midi": 74,
      "hit": false,
      "t": 14333.318999999994,
      "d": 166.66649999999936,
      "v": 127
    },
    {
      "midi": 54,
      "hit": false,
      "t": 14333.318999999998,
      "d": 166.66649999999936,
      "v": 127
    },
    {
      "midi": 57,
      "hit": false,
      "t": 14333.318999999998,
      "d": 166.66649999999936,
      "v": 127
    },
    {
      "midi": 62,
      "hit": false,
      "t": 14333.318999999998,
      "d": 166.66649999999936,
      "v": 127
    },
    {
      "midi": 69,
      "hit": false,
      "t": 14499.985499999993,
      "d": 333.33300000000054,
      "v": 127
    },
    {
      "midi": 50,
      "hit": false,
      "t": 14499.985499999997,
      "d": 333.33300000000054,
      "v": 127
    },
    {
      "midi": 69,
      "hit": false,
      "t": 14833.318499999994,
      "d": 166.66649999999936,
      "v": 127
    },
    {
      "midi": 54,
      "hit": false,
      "t": 14833.318499999998,
      "d": 166.66649999999936,
      "v": 127
    },
    {
      "midi": 57,
      "hit": false,
      "t": 14833.318499999998,
      "d": 166.66649999999936,
      "v": 127
    },
    {
      "midi": 62,
      "hit": false,
      "t": 14833.318499999998,
      "d": 166.66649999999936,
      "v": 127
    },
    {
      "midi": 69,
      "hit": false,
      "t": 14999.984999999993,
      "d": 333.33300000000054,
      "v": 127
    },
    {
      "midi": 50,
      "hit": false,
      "t": 14999.984999999997,
      "d": 333.33300000000054,
      "v": 127
    },
    {
      "midi": 69,
      "hit": false,
      "t": 15333.317999999994,
      "d": 166.66649999999936,
      "v": 127
    },
    {
      "midi": 54,
      "hit": false,
      "t": 15333.317999999997,
      "d": 166.66649999999936,
      "v": 127
    },
    {
      "midi": 57,
      "hit": false,
      "t": 15333.317999999997,
      "d": 166.66649999999936,
      "v": 127
    },
    {
      "midi": 62,
      "hit": false,
      "t": 15333.317999999997,
      "d": 166.66649999999936,
      "v": 127
    },
    {
      "midi": 69,
      "hit": false,
      "t": 15499.984499999993,
      "d": 166.66649999999936,
      "v": 127
    },
    {
      "midi": 54,
      "hit": false,
      "t": 15499.984499999997,
      "d": 333.33300000000054,
      "v": 127
    },
    {
      "midi": 57,
      "hit": false,
      "t": 15499.984499999997,
      "d": 333.33300000000054,
      "v": 127
    },
    {
      "midi": 62,
      "hit": false,
      "t": 15499.984499999997,
      "d": 333.33300000000054,
      "v": 127
    },
    {
      "midi": 74,
      "hit": false,
      "t": 15666.650999999993,
      "d": 166.66649999999936,
      "v": 127
    },
    {
      "midi": 78,
      "hit": false,
      "t": 15833.317499999992,
      "d": 166.66649999999936,
      "v": 127
    },
    {
      "midi": 54,
      "hit": false,
      "t": 15833.317499999997,
      "d": 166.66649999999936,
      "v": 127
    },
    {
      "midi": 57,
      "hit": false,
      "t": 15833.317499999997,
      "d": 166.66649999999936,
      "v": 127
    },
    {
      "midi": 62,
      "hit": false,
      "t": 15833.317499999997,
      "d": 166.66649999999936,
      "v": 127
    },
    {
      "midi": 81,
      "hit": false,
      "t": 15999.983999999991,
      "d": 333.33300000000054,
      "v": 127
    },
    {
      "midi": 50,
      "hit": false,
      "t": 15999.983999999997,
      "d": 333.33300000000054,
      "v": 127
    },
    {
      "midi": 83,
      "hit": false,
      "t": 16333.316999999992,
      "d": 166.66649999999936,
      "v": 127
    },
    {
      "midi": 54,
      "hit": false,
      "t": 16333.316999999997,
      "d": 166.66650000000118,
      "v": 127
    },
    {
      "midi": 57,
      "hit": false,
      "t": 16333.316999999997,
      "d": 166.66650000000118,
      "v": 127
    },
    {
      "midi": 62,
      "hit": false,
      "t": 16333.316999999997,
      "d": 166.66650000000118,
      "v": 127
    },
    {
      "midi": 81,
      "hit": false,
      "t": 16499.98349999999,
      "d": 166.66649999999936,
      "v": 127
    },
    {
      "midi": 54,
      "hit": false,
      "t": 16499.9835,
      "d": 333.3329999999987,
      "v": 127
    },
    {
      "midi": 57,
      "hit": false,
      "t": 16499.9835,
      "d": 333.3329999999987,
      "v": 127
    },
    {
      "midi": 62,
      "hit": false,
      "t": 16499.9835,
      "d": 333.3329999999987,
      "v": 127
    },
    {
      "midi": 78,
      "hit": false,
      "t": 16666.64999999999,
      "d": 166.66649999999936,
      "v": 127
    },
    {
      "midi": 74,
      "hit": false,
      "t": 16833.31649999999,
      "d": 166.66649999999936,
      "v": 127
    },
    {
      "midi": 54,
      "hit": false,
      "t": 16833.316499999997,
      "d": 166.66649999999936,
      "v": 127
    },
    {
      "midi": 57,
      "hit": false,
      "t": 16833.316499999997,
      "d": 166.66649999999936,
      "v": 127
    },
    {
      "midi": 62,
      "hit": false,
      "t": 16833.316499999997,
      "d": 166.66649999999936,
      "v": 127
    },
    {
      "midi": 69,
      "hit": false,
      "t": 16999.98299999999,
      "d": 166.66649999999936,
      "v": 127
    },
    {
      "midi": 50,
      "hit": false,
      "t": 16999.982999999997,
      "d": 333.3329999999987,
      "v": 127
    },
    {
      "midi": 74,
      "hit": false,
      "t": 17166.64949999999,
      "d": 166.66649999999936,
      "v": 127
    },
    {
      "midi": 78,
      "hit": false,
      "t": 17333.315999999988,
      "d": 166.66649999999936,
      "v": 127
    },
    {
      "midi": 54,
      "hit": false,
      "t": 17333.315999999995,
      "d": 166.66649999999936,
      "v": 127
    },
    {
      "midi": 57,
      "hit": false,
      "t": 17333.315999999995,
      "d": 166.66649999999936,
      "v": 127
    },
    {
      "midi": 62,
      "hit": false,
      "t": 17333.315999999995,
      "d": 166.66649999999936,
      "v": 127
    },
    {
      "midi": 81,
      "hit": false,
      "t": 17499.982499999987,
      "d": 166.66649999999936,
      "v": 127
    },
    {
      "midi": 54,
      "hit": false,
      "t": 17499.982499999995,
      "d": 333.3329999999987,
      "v": 127
    },
    {
      "midi": 57,
      "hit": false,
      "t": 17499.982499999995,
      "d": 333.3329999999987,
      "v": 127
    },
    {
      "midi": 62,
      "hit": false,
      "t": 17499.982499999995,
      "d": 333.3329999999987,
      "v": 127
    },
    {
      "midi": 83,
      "hit": false,
      "t": 17666.648999999987,
      "d": 166.66649999999936,
      "v": 127
    },
    {
      "midi": 84,
      "hit": false,
      "t": 17833.315499999986,
      "d": 166.66649999999936,
      "v": 127
    },
    {
      "midi": 54,
      "hit": false,
      "t": 17833.315499999993,
      "d": 166.66649999999936,
      "v": 127
    },
    {
      "midi": 57,
      "hit": false,
      "t": 17833.315499999993,
      "d": 166.66649999999936,
      "v": 127
    },
    {
      "midi": 62,
      "hit": false,
      "t": 17833.315499999993,
      "d": 166.66649999999936,
      "v": 127
    },
    {
      "midi": 85,
      "hit": false,
      "t": 17999.981999999985,
      "d": 333.3329999999987,
      "v": 127
    },
    {
      "midi": 52,
      "hit": false,
      "t": 17999.981999999993,
      "d": 333.3329999999987,
      "v": 127
    },
    {
      "midi": 83,
      "hit": false,
      "t": 18333.314999999984,
      "d": 166.66649999999936,
      "v": 127
    },
    {
      "midi": 55,
      "hit": false,
      "t": 18333.31499999999,
      "d": 166.66649999999936,
      "v": 127
    },
    {
      "midi": 57,
      "hit": false,
      "t": 18333.31499999999,
      "d": 166.66649999999936,
      "v": 127
    },
    {
      "midi": 61,
      "hit": false,
      "t": 18333.31499999999,
      "d": 166.66649999999936,
      "v": 127
    },
    {
      "midi": 81,
      "hit": false,
      "t": 18499.981499999983,
      "d": 166.66649999999936,
      "v": 127
    },
    {
      "midi": 45,
      "hit": false,
      "t": 18499.98149999999,
      "d": 333.3329999999987,
      "v": 127
    },
    {
      "midi": 79,
      "hit": false,
      "t": 18666.647999999983,
      "d": 166.66649999999936,
      "v": 127
    },
    {
      "midi": 76,
      "hit": false,
      "t": 18833.314499999982,
      "d": 166.66649999999936,
      "v": 127
    },
    {
      "midi": 52,
      "hit": false,
      "t": 18833.31449999999,
      "d": 166.66649999999936,
      "v": 127
    },
    {
      "midi": 55,
      "hit": false,
      "t": 18833.31449999999,
      "d": 166.66649999999936,
      "v": 127
    },
    {
      "midi": 57,
      "hit": false,
      "t": 18833.31449999999,
      "d": 166.66649999999936,
      "v": 127
    },
    {
      "midi": 61,
      "hit": false,
      "t": 18833.31449999999,
      "d": 166.66649999999936,
      "v": 127
    },
    {
      "midi": 74,
      "hit": false,
      "t": 18999.98099999998,
      "d": 499.9995000000017,
      "v": 127
    },
    {
      "midi": 54,
      "hit": false,
      "t": 18999.98099999999,
      "d": 499.9995000000017,
      "v": 127
    },
    {
      "midi": 57,
      "hit": false,
      "t": 18999.98099999999,
      "d": 499.9995000000017,
      "v": 127
    },
    {
      "midi": 62,
      "hit": false,
      "t": 18999.98099999999,
      "d": 499.9995000000017,
      "v": 127
    },
    {
      "midi": 74,
      "hit": false,
      "t": 19499.980499999983,
      "d": 166.66649999999936,
      "v": 127
    },
    {
      "midi": 50,
      "hit": false,
      "t": 19499.98049999999,
      "d": 499.9995000000017,
      "v": 127
    },
    {
      "midi": 54,
      "hit": false,
      "t": 19499.98049999999,
      "d": 499.9995000000017,
      "v": 127
    },
    {
      "midi": 57,
      "hit": false,
      "t": 19499.98049999999,
      "d": 499.9995000000017,
      "v": 127
    },
    {
      "midi": 60,
      "hit": false,
      "t": 19499.98049999999,
      "d": 499.9995000000017,
      "v": 127
    },
    {
      "midi": 76,
      "hit": false,
      "t": 19666.646999999983,
      "d": 166.66649999999936,
      "v": 127
    },
    {
      "midi": 74,
      "hit": false,
      "t": 19833.313499999982,
      "d": 166.66649999999936,
      "v": 127
    },
    {
      "midi": 73,
      "hit": false,
      "t": 19999.97999999998,
      "d": 333.3329999999987,
      "v": 127
    },
    {
      "midi": 43,
      "hit": false,
      "t": 19999.979999999992,
      "d": 333.3329999999987,
      "v": 127
    },
    {
      "midi": 74,
      "hit": false,
      "t": 20333.31299999998,
      "d": 166.66649999999936,
      "v": 127
    },
    {
      "midi": 50,
      "hit": false,
      "t": 20333.31299999999,
      "d": 166.66649999999936,
      "v": 127
    },
    {
      "midi": 55,
      "hit": false,
      "t": 20333.31299999999,
      "d": 166.66649999999936,
      "v": 127
    },
    {
      "midi": 59,
      "hit": false,
      "t": 20333.31299999999,
      "d": 166.66649999999936,
      "v": 127
    },
    {
      "midi": 67,
      "hit": false,
      "t": 20499.97949999998,
      "d": 333.3329999999987,
      "v": 127
    },
    {
      "midi": 71,
      "hit": false,
      "t": 20499.97949999998,
      "d": 333.3329999999987,
      "v": 127
    },
    {
      "midi": 50,
      "hit": false,
      "t": 20499.97949999999,
      "d": 333.3329999999987,
      "v": 127
    },
    {
      "midi": 67,
      "hit": false,
      "t": 20833.312499999978,
      "d": 166.66649999999936,
      "v": 127
    },
    {
      "midi": 71,
      "hit": false,
      "t": 20833.312499999978,
      "d": 166.66649999999936,
      "v": 127
    },
    {
      "midi": 50,
      "hit": false,
      "t": 20833.31249999999,
      "d": 166.66649999999936,
      "v": 127
    },
    {
      "midi": 55,
      "hit": false,
      "t": 20833.31249999999,
      "d": 166.66649999999936,
      "v": 127
    },
    {
      "midi": 59,
      "hit": false,
      "t": 20833.31249999999,
      "d": 166.66649999999936,
      "v": 127
    },
    {
      "midi": 67,
      "hit": false,
      "t": 20999.978999999978,
      "d": 333.3329999999987,
      "v": 127
    },
    {
      "midi": 71,
      "hit": false,
      "t": 20999.978999999978,
      "d": 333.3329999999987,
      "v": 127
    },
    {
      "midi": 43,
      "hit": false,
      "t": 20999.97899999999,
      "d": 333.3329999999987,
      "v": 127
    },
    {
      "midi": 67,
      "hit": false,
      "t": 21333.311999999976,
      "d": 166.66649999999936,
      "v": 127
    },
    {
      "midi": 71,
      "hit": false,
      "t": 21333.311999999976,
      "d": 166.66649999999936,
      "v": 127
    },
    {
      "midi": 50,
      "hit": false,
      "t": 21333.311999999987,
      "d": 166.66649999999936,
      "v": 127
    },
    {
      "midi": 55,
      "hit": false,
      "t": 21333.311999999987,
      "d": 166.66649999999936,
      "v": 127
    },
    {
      "midi": 59,
      "hit": false,
      "t": 21333.311999999987,
      "d": 166.66649999999936,
      "v": 127
    },
    {
      "midi": 67,
      "hit": false,
      "t": 21499.978499999976,
      "d": 166.66649999999936,
      "v": 127
    },
    {
      "midi": 71,
      "hit": false,
      "t": 21499.978499999976,
      "d": 166.66649999999936,
      "v": 127
    },
    {
      "midi": 50,
      "hit": false,
      "t": 21499.978499999987,
      "d": 333.3329999999987,
      "v": 127
    },
    {
      "midi": 76,
      "hit": false,
      "t": 21666.644999999975,
      "d": 166.66649999999936,
      "v": 127
    },
    {
      "midi": 74,
      "hit": false,
      "t": 21833.311499999974,
      "d": 166.66649999999936,
      "v": 127
    },
    {
      "midi": 50,
      "hit": false,
      "t": 21833.311499999985,
      "d": 166.66649999999936,
      "v": 127
    },
    {
      "midi": 55,
      "hit": false,
      "t": 21833.311499999985,
      "d": 166.66649999999936,
      "v": 127
    },
    {
      "midi": 59,
      "hit": false,
      "t": 21833.311499999985,
      "d": 166.66649999999936,
      "v": 127
    },
    {
      "midi": 73,
      "hit": false,
      "t": 21999.977999999974,
      "d": 333.3329999999987,
      "v": 127
    },
    {
      "midi": 45,
      "hit": false,
      "t": 21999.977999999985,
      "d": 333.3329999999987,
      "v": 127
    },
    {
      "midi": 74,
      "hit": false,
      "t": 22333.310999999972,
      "d": 166.66649999999936,
      "v": 127
    },
    {
      "midi": 54,
      "hit": false,
      "t": 22333.310999999983,
      "d": 166.66649999999936,
      "v": 127
    },
    {
      "midi": 57,
      "hit": false,
      "t": 22333.310999999983,
      "d": 166.66649999999936,
      "v": 127
    },
    {
      "midi": 60,
      "hit": false,
      "t": 22333.310999999983,
      "d": 166.66649999999936,
      "v": 127
    },
    {
      "midi": 66,
      "hit": false,
      "t": 22499.97749999997,
      "d": 333.3329999999987,
      "v": 127
    },
    {
      "midi": 69,
      "hit": false,
      "t": 22499.97749999997,
      "d": 333.3329999999987,
      "v": 127
    },
    {
      "midi": 50,
      "hit": false,
      "t": 22499.977499999983,
      "d": 333.3329999999987,
      "v": 127
    },
    {
      "midi": 66,
      "hit": false,
      "t": 22833.31049999997,
      "d": 166.66649999999936,
      "v": 127
    },
    {
      "midi": 69,
      "hit": false,
      "t": 22833.31049999997,
      "d": 166.66649999999936,
      "v": 127
    },
    {
      "midi": 54,
      "hit": false,
      "t": 22833.31049999998,
      "d": 166.66649999999936,
      "v": 127
    },
    {
      "midi": 57,
      "hit": false,
      "t": 22833.31049999998,
      "d": 166.66649999999936,
      "v": 127
    },
    {
      "midi": 60,
      "hit": false,
      "t": 22833.31049999998,
      "d": 166.66649999999936,
      "v": 127
    },
    {
      "midi": 66,
      "hit": false,
      "t": 22999.97699999997,
      "d": 333.3329999999987,
      "v": 127
    },
    {
      "midi": 69,
      "hit": false,
      "t": 22999.97699999997,
      "d": 333.3329999999987,
      "v": 127
    },
    {
      "midi": 45,
      "hit": false,
      "t": 22999.97699999998,
      "d": 333.3329999999987,
      "v": 127
    },
    {
      "midi": 66,
      "hit": false,
      "t": 23333.30999999997,
      "d": 166.66649999999936,
      "v": 127
    },
    {
      "midi": 69,
      "hit": false,
      "t": 23333.30999999997,
      "d": 166.66649999999936,
      "v": 127
    },
    {
      "midi": 54,
      "hit": false,
      "t": 23333.30999999998,
      "d": 166.66649999999936,
      "v": 127
    },
    {
      "midi": 57,
      "hit": false,
      "t": 23333.30999999998,
      "d": 166.66649999999936,
      "v": 127
    },
    {
      "midi": 60,
      "hit": false,
      "t": 23333.30999999998,
      "d": 166.66649999999936,
      "v": 127
    },
    {
      "midi": 69,
      "hit": false,
      "t": 23499.976499999968,
      "d": 166.66649999999936,
      "v": 127
    },
    {
      "midi": 50,
      "hit": false,
      "t": 23499.97649999998,
      "d": 333.3329999999987,
      "v": 127
    },
    {
      "midi": 74,
      "hit": false,
      "t": 23666.642999999967,
      "d": 166.66649999999936,
      "v": 127
    },
    {
      "midi": 81,
      "hit": false,
      "t": 23833.309499999967,
      "d": 166.66649999999936,
      "v": 127
    },
    {
      "midi": 54,
      "hit": false,
      "t": 23833.309499999978,
      "d": 166.66649999999936,
      "v": 127
    },
    {
      "midi": 57,
      "hit": false,
      "t": 23833.309499999978,
      "d": 166.66649999999936,
      "v": 127
    },
    {
      "midi": 60,
      "hit": false,
      "t": 23833.309499999978,
      "d": 166.66649999999936,
      "v": 127
    },
    {
      "midi": 69,
      "hit": false,
      "t": 23999.975999999966,
      "d": 333.3329999999987,
      "v": 127
    },
    {
      "midi": 72,
      "hit": false,
      "t": 23999.975999999966,
      "d": 333.3329999999987,
      "v": 127
    },
    {
      "midi": 79,
      "hit": false,
      "t": 23999.975999999966,
      "d": 333.3329999999987,
      "v": 127
    },
    {
      "midi": 45,
      "hit": false,
      "t": 23999.975999999977,
      "d": 333.3329999999987,
      "v": 127
    },
    {
      "midi": 69,
      "hit": false,
      "t": 24333.308999999965,
      "d": 166.66649999999936,
      "v": 127
    },
    {
      "midi": 72,
      "hit": false,
      "t": 24333.308999999965,
      "d": 166.66649999999936,
      "v": 127
    },
    {
      "midi": 79,
      "hit": false,
      "t": 24333.308999999965,
      "d": 166.66649999999936,
      "v": 127
    },
    {
      "midi": 54,
      "hit": false,
      "t": 24333.308999999976,
      "d": 166.66649999999936,
      "v": 127
    },
    {
      "midi": 57,
      "hit": false,
      "t": 24333.308999999976,
      "d": 166.66649999999936,
      "v": 127
    },
    {
      "midi": 60,
      "hit": false,
      "t": 24333.308999999976,
      "d": 166.66649999999936,
      "v": 127
    },
    {
      "midi": 69,
      "hit": false,
      "t": 24499.975499999964,
      "d": 333.3329999999987,
      "v": 127
    },
    {
      "midi": 72,
      "hit": false,
      "t": 24499.975499999964,
      "d": 333.3329999999987,
      "v": 127
    },
    {
      "midi": 79,
      "hit": false,
      "t": 24499.975499999964,
      "d": 333.3329999999987,
      "v": 127
    },
    {
      "midi": 50,
      "hit": false,
      "t": 24499.975499999975,
      "d": 333.3329999999987,
      "v": 127
    },
    {
      "midi": 69,
      "hit": false,
      "t": 24833.308499999963,
      "d": 166.66649999999936,
      "v": 127
    },
    {
      "midi": 72,
      "hit": false,
      "t": 24833.308499999963,
      "d": 166.66649999999936,
      "v": 127
    },
    {
      "midi": 78,
      "hit": false,
      "t": 24833.308499999963,
      "d": 166.66649999999936,
      "v": 127
    },
    {
      "midi": 54,
      "hit": false,
      "t": 24833.308499999974,
      "d": 166.66649999999936,
      "v": 127
    },
    {
      "midi": 57,
      "hit": false,
      "t": 24833.308499999974,
      "d": 166.66649999999936,
      "v": 127
    },
    {
      "midi": 60,
      "hit": false,
      "t": 24833.308499999974,
      "d": 166.66649999999936,
      "v": 127
    },
    {
      "midi": 69,
      "hit": false,
      "t": 24999.974999999962,
      "d": 333.3329999999987,
      "v": 127
    },
    {
      "midi": 72,
      "hit": false,
      "t": 24999.974999999962,
      "d": 333.3329999999987,
      "v": 127
    },
    {
      "midi": 78,
      "hit": false,
      "t": 24999.974999999962,
      "d": 333.3329999999987,
      "v": 127
    },
    {
      "midi": 45,
      "hit": false,
      "t": 24999.974999999973,
      "d": 333.3329999999987,
      "v": 127
    },
    {
      "midi": 69,
      "hit": false,
      "t": 25333.30799999996,
      "d": 166.66649999999936,
      "v": 127
    },
    {
      "midi": 72,
      "hit": false,
      "t": 25333.30799999996,
      "d": 166.66649999999936,
      "v": 127
    },
    {
      "midi": 78,
      "hit": false,
      "t": 25333.30799999996,
      "d": 166.66649999999936,
      "v": 127
    },
    {
      "midi": 54,
      "hit": false,
      "t": 25333.30799999997,
      "d": 166.66649999999936,
      "v": 127
    },
    {
      "midi": 57,
      "hit": false,
      "t": 25333.30799999997,
      "d": 166.66649999999936,
      "v": 127
    },
    {
      "midi": 60,
      "hit": false,
      "t": 25333.30799999997,
      "d": 166.66649999999936,
      "v": 127
    },
    {
      "midi": 69,
      "hit": false,
      "t": 25499.97449999996,
      "d": 333.3329999999987,
      "v": 127
    },
    {
      "midi": 72,
      "hit": false,
      "t": 25499.97449999996,
      "d": 333.3329999999987,
      "v": 127
    },
    {
      "midi": 78,
      "hit": false,
      "t": 25499.97449999996,
      "d": 333.3329999999987,
      "v": 127
    },
    {
      "midi": 50,
      "hit": false,
      "t": 25499.97449999997,
      "d": 333.3329999999987,
      "v": 127
    },
    {
      "midi": 72,
      "hit": false,
      "t": 25833.30749999996,
      "d": 166.66649999999936,
      "v": 127
    },
    {
      "midi": 76,
      "hit": false,
      "t": 25833.30749999996,
      "d": 166.66649999999936,
      "v": 127
    },
    {
      "midi": 54,
      "hit": false,
      "t": 25833.30749999997,
      "d": 166.66649999999936,
      "v": 127
    },
    {
      "midi": 57,
      "hit": false,
      "t": 25833.30749999997,
      "d": 166.66649999999936,
      "v": 127
    },
    {
      "midi": 60,
      "hit": false,
      "t": 25833.30749999997,
      "d": 166.66649999999936,
      "v": 127
    },
    {
      "midi": 72,
      "hit": false,
      "t": 25999.97399999996,
      "d": 166.66649999999936,
      "v": 127
    },
    {
      "midi": 76,
      "hit": false,
      "t": 25999.97399999996,
      "d": 166.66649999999936,
      "v": 127
    },
    {
      "midi": 45,
      "hit": false,
      "t": 25999.97399999997,
      "d": 333.3329999999987,
      "v": 127
    },
    {
      "midi": 74,
      "hit": false,
      "t": 26166.640499999958,
      "d": 166.66649999999936,
      "v": 127
    },
    {
      "midi": 78,
      "hit": false,
      "t": 26166.640499999958,
      "d": 166.66649999999936,
      "v": 127
    },
    {
      "midi": 76,
      "hit": false,
      "t": 26333.306999999957,
      "d": 166.66649999999936,
      "v": 127
    },
    {
      "midi": 79,
      "hit": false,
      "t": 26333.306999999957,
      "d": 166.66649999999936,
      "v": 127
    },
    {
      "midi": 54,
      "hit": false,
      "t": 26333.306999999968,
      "d": 166.66649999999936,
      "v": 127
    },
    {
      "midi": 57,
      "hit": false,
      "t": 26333.306999999968,
      "d": 166.66649999999936,
      "v": 127
    },
    {
      "midi": 60,
      "hit": false,
      "t": 26333.306999999968,
      "d": 166.66649999999936,
      "v": 127
    },
    {
      "midi": 74,
      "hit": false,
      "t": 26499.973499999956,
      "d": 333.3329999999987,
      "v": 127
    },
    {
      "midi": 78,
      "hit": false,
      "t": 26499.973499999956,
      "d": 333.3329999999987,
      "v": 127
    },
    {
      "midi": 50,
      "hit": false,
      "t": 26499.973499999967,
      "d": 333.3329999999987,
      "v": 127
    },
    {
      "midi": 72,
      "hit": false,
      "t": 26833.306499999955,
      "d": 166.66649999999936,
      "v": 127
    },
    {
      "midi": 76,
      "hit": false,
      "t": 26833.306499999955,
      "d": 166.66649999999936,
      "v": 127
    },
    {
      "midi": 54,
      "hit": false,
      "t": 26833.306499999966,
      "d": 166.66649999999936,
      "v": 127
    },
    {
      "midi": 57,
      "hit": false,
      "t": 26833.306499999966,
      "d": 166.66649999999936,
      "v": 127
    },
    {
      "midi": 60,
      "hit": false,
      "t": 26833.306499999966,
      "d": 166.66649999999936,
      "v": 127
    },
    {
      "midi": 71,
      "hit": false,
      "t": 26999.972999999954,
      "d": 499.9995000000017,
      "v": 127
    },
    {
      "midi": 74,
      "hit": false,
      "t": 26999.972999999954,
      "d": 499.9995000000017,
      "v": 127
    },
    {
      "midi": 43,
      "hit": false,
      "t": 26999.972999999965,
      "d": 333.3329999999987,
      "v": 127
    },
    {
      "midi": 50,
      "hit": false,
      "t": 27333.305999999964,
      "d": 166.66649999999936,
      "v": 127
    },
    {
      "midi": 55,
      "hit": false,
      "t": 27333.305999999964,
      "d": 166.66649999999936,
      "v": 127
    },
    {
      "midi": 59,
      "hit": false,
      "t": 27333.305999999964,
      "d": 166.66649999999936,
      "v": 127
    },
    {
      "midi": 71,
      "hit": false,
      "t": 27499.972499999956,
      "d": 166.66649999999936,
      "v": 127
    },
    {
      "midi": 50,
      "hit": false,
      "t": 27499.972499999963,
      "d": 333.3329999999987,
      "v": 127
    },
    {
      "midi": 76,
      "hit": false,
      "t": 27666.638999999956,
      "d": 166.66649999999936,
      "v": 127
    },
    {
      "midi": 74,
      "hit": false,
      "t": 27833.305499999955,
      "d": 166.66649999999936,
      "v": 127
    },
    {
      "midi": 50,
      "hit": false,
      "t": 27833.305499999962,
      "d": 166.66649999999936,
      "v": 127
    },
    {
      "midi": 55,
      "hit": false,
      "t": 27833.305499999962,
      "d": 166.66649999999936,
      "v": 127
    },
    {
      "midi": 59,
      "hit": false,
      "t": 27833.305499999962,
      "d": 166.66649999999936,
      "v": 127
    },
    {
      "midi": 73,
      "hit": false,
      "t": 27999.971999999954,
      "d": 333.3329999999987,
      "v": 127
    },
    {
      "midi": 43,
      "hit": false,
      "t": 27999.97199999996,
      "d": 333.3329999999987,
      "v": 127
    },
    {
      "midi": 74,
      "hit": false,
      "t": 28333.304999999953,
      "d": 166.66649999999936,
      "v": 127
    },
    {
      "midi": 50,
      "hit": false,
      "t": 28333.30499999996,
      "d": 166.66649999999936,
      "v": 127
    },
    {
      "midi": 55,
      "hit": false,
      "t": 28333.30499999996,
      "d": 166.66649999999936,
      "v": 127
    },
    {
      "midi": 59,
      "hit": false,
      "t": 28333.30499999996,
      "d": 166.66649999999936,
      "v": 127
    },
    {
      "midi": 71,
      "hit": false,
      "t": 28499.971499999952,
      "d": 333.3329999999987,
      "v": 127
    },
    {
      "midi": 50,
      "hit": false,
      "t": 28499.97149999996,
      "d": 333.3329999999987,
      "v": 127
    },
    {
      "midi": 71,
      "hit": false,
      "t": 28833.30449999995,
      "d": 166.66649999999936,
      "v": 127
    },
    {
      "midi": 50,
      "hit": false,
      "t": 28833.30449999996,
      "d": 166.66649999999936,
      "v": 127
    },
    {
      "midi": 55,
      "hit": false,
      "t": 28833.30449999996,
      "d": 166.66649999999936,
      "v": 127
    },
    {
      "midi": 59,
      "hit": false,
      "t": 28833.30449999996,
      "d": 166.66649999999936,
      "v": 127
    },
    {
      "midi": 71,
      "hit": false,
      "t": 28999.97099999995,
      "d": 333.3329999999987,
      "v": 127
    },
    {
      "midi": 43,
      "hit": false,
      "t": 28999.970999999958,
      "d": 333.3329999999987,
      "v": 127
    },
    {
      "midi": 71,
      "hit": false,
      "t": 29333.30399999995,
      "d": 166.66649999999936,
      "v": 127
    },
    {
      "midi": 50,
      "hit": false,
      "t": 29333.303999999956,
      "d": 166.66649999999936,
      "v": 127
    },
    {
      "midi": 55,
      "hit": false,
      "t": 29333.303999999956,
      "d": 166.66649999999936,
      "v": 127
    },
    {
      "midi": 59,
      "hit": false,
      "t": 29333.303999999956,
      "d": 166.66649999999936,
      "v": 127
    },
    {
      "midi": 71,
      "hit": false,
      "t": 29499.97049999995,
      "d": 166.66649999999936,
      "v": 127
    },
    {
      "midi": 50,
      "hit": false,
      "t": 29499.970499999956,
      "d": 333.3329999999987,
      "v": 127
    },
    {
      "midi": 76,
      "hit": false,
      "t": 29666.636999999948,
      "d": 166.66649999999936,
      "v": 127
    },
    {
      "midi": 74,
      "hit": false,
      "t": 29833.303499999947,
      "d": 166.66649999999936,
      "v": 127
    },
    {
      "midi": 50,
      "hit": false,
      "t": 29833.303499999955,
      "d": 166.66649999999936,
      "v": 127
    },
    {
      "midi": 55,
      "hit": false,
      "t": 29833.303499999955,
      "d": 166.66649999999936,
      "v": 127
    },
    {
      "midi": 59,
      "hit": false,
      "t": 29833.303499999955,
      "d": 166.66649999999936,
      "v": 127
    },
    {
      "midi": 73,
      "hit": false,
      "t": 29999.969999999947,
      "d": 333.3329999999987,
      "v": 127
    },
    {
      "midi": 45,
      "hit": false,
      "t": 29999.969999999954,
      "d": 333.3329999999987,
      "v": 127
    },
    {
      "midi": 74,
      "hit": false,
      "t": 30333.302999999945,
      "d": 166.66649999999936,
      "v": 127
    },
    {
      "midi": 54,
      "hit": false,
      "t": 30333.302999999953,
      "d": 166.66649999999936,
      "v": 127
    },
    {
      "midi": 57,
      "hit": false,
      "t": 30333.302999999953,
      "d": 166.66649999999936,
      "v": 127
    },
    {
      "midi": 62,
      "hit": false,
      "t": 30333.302999999953,
      "d": 166.66649999999936,
      "v": 127
    },
    {
      "midi": 69,
      "hit": false,
      "t": 30499.969499999945,
      "d": 333.3329999999987,
      "v": 127
    },
    {
      "midi": 50,
      "hit": false,
      "t": 30499.969499999952,
      "d": 333.3329999999987,
      "v": 127
    },
    {
      "midi": 69,
      "hit": false,
      "t": 30833.302499999943,
      "d": 166.66649999999936,
      "v": 127
    },
    {
      "midi": 54,
      "hit": false,
      "t": 30833.30249999995,
      "d": 166.66649999999936,
      "v": 127
    },
    {
      "midi": 57,
      "hit": false,
      "t": 30833.30249999995,
      "d": 166.66649999999936,
      "v": 127
    },
    {
      "midi": 62,
      "hit": false,
      "t": 30833.30249999995,
      "d": 166.66649999999936,
      "v": 127
    },
    {
      "midi": 69,
      "hit": false,
      "t": 30999.968999999943,
      "d": 333.3329999999987,
      "v": 127
    },
    {
      "midi": 50,
      "hit": false,
      "t": 30999.96899999995,
      "d": 333.3329999999987,
      "v": 127
    },
    {
      "midi": 69,
      "hit": false,
      "t": 31333.30199999994,
      "d": 166.66649999999936,
      "v": 127
    },
    {
      "midi": 54,
      "hit": false,
      "t": 31333.30199999995,
      "d": 166.66649999999936,
      "v": 127
    },
    {
      "midi": 57,
      "hit": false,
      "t": 31333.30199999995,
      "d": 166.66649999999936,
      "v": 127
    },
    {
      "midi": 62,
      "hit": false,
      "t": 31333.30199999995,
      "d": 166.66649999999936,
      "v": 127
    },
    {
      "midi": 69,
      "hit": false,
      "t": 31499.96849999994,
      "d": 166.66649999999936,
      "v": 127
    },
    {
      "midi": 54,
      "hit": false,
      "t": 31499.968499999948,
      "d": 333.3329999999987,
      "v": 127
    },
    {
      "midi": 57,
      "hit": false,
      "t": 31499.968499999948,
      "d": 333.3329999999987,
      "v": 127
    },
    {
      "midi": 62,
      "hit": false,
      "t": 31499.968499999948,
      "d": 333.3329999999987,
      "v": 127
    },
    {
      "midi": 74,
      "hit": false,
      "t": 31666.63499999994,
      "d": 166.66649999999936,
      "v": 127
    },
    {
      "midi": 78,
      "hit": false,
      "t": 31833.30149999994,
      "d": 166.66649999999936,
      "v": 127
    },
    {
      "midi": 54,
      "hit": false,
      "t": 31833.301499999947,
      "d": 166.66649999999936,
      "v": 127
    },
    {
      "midi": 57,
      "hit": false,
      "t": 31833.301499999947,
      "d": 166.66649999999936,
      "v": 127
    },
    {
      "midi": 62,
      "hit": false,
      "t": 31833.301499999947,
      "d": 166.66649999999936,
      "v": 127
    },
    {
      "midi": 81,
      "hit": false,
      "t": 31999.96799999994,
      "d": 333.3329999999987,
      "v": 127
    },
    {
      "midi": 50,
      "hit": false,
      "t": 31999.967999999946,
      "d": 333.3329999999987,
      "v": 127
    },
    {
      "midi": 83,
      "hit": false,
      "t": 32333.300999999938,
      "d": 166.66649999999936,
      "v": 127
    },
    {
      "midi": 54,
      "hit": false,
      "t": 32333.300999999945,
      "d": 166.66649999999936,
      "v": 127
    },
    {
      "midi": 57,
      "hit": false,
      "t": 32333.300999999945,
      "d": 166.66649999999936,
      "v": 127
    },
    {
      "midi": 62,
      "hit": false,
      "t": 32333.300999999945,
      "d": 166.66649999999936,
      "v": 127
    },
    {
      "midi": 81,
      "hit": false,
      "t": 32499.967499999937,
      "d": 166.66649999999936,
      "v": 127
    },
    {
      "midi": 54,
      "hit": false,
      "t": 32499.967499999944,
      "d": 333.33300000000236,
      "v": 127
    },
    {
      "midi": 57,
      "hit": false,
      "t": 32499.967499999944,
      "d": 333.33300000000236,
      "v": 127
    },
    {
      "midi": 62,
      "hit": false,
      "t": 32499.967499999944,
      "d": 333.33300000000236,
      "v": 127
    },
    {
      "midi": 78,
      "hit": false,
      "t": 32666.633999999936,
      "d": 166.666500000003,
      "v": 127
    },
    {
      "midi": 74,
      "hit": false,
      "t": 32833.30049999994,
      "d": 166.66649999999936,
      "v": 127
    },
    {
      "midi": 54,
      "hit": false,
      "t": 32833.30049999995,
      "d": 166.66649999999936,
      "v": 127
    },
    {
      "midi": 57,
      "hit": false,
      "t": 32833.30049999995,
      "d": 166.66649999999936,
      "v": 127
    },
    {
      "midi": 62,
      "hit": false,
      "t": 32833.30049999995,
      "d": 166.66649999999936,
      "v": 127
    },
    {
      "midi": 69,
      "hit": false,
      "t": 32999.96699999994,
      "d": 166.66649999999936,
      "v": 127
    },
    {
      "midi": 50,
      "hit": false,
      "t": 32999.966999999946,
      "d": 333.3329999999987,
      "v": 127
    },
    {
      "midi": 74,
      "hit": false,
      "t": 33166.63349999994,
      "d": 166.66649999999936,
      "v": 127
    },
    {
      "midi": 78,
      "hit": false,
      "t": 33333.29999999994,
      "d": 166.66649999999936,
      "v": 127
    },
    {
      "midi": 54,
      "hit": false,
      "t": 33333.299999999945,
      "d": 166.66649999999936,
      "v": 127
    },
    {
      "midi": 57,
      "hit": false,
      "t": 33333.299999999945,
      "d": 166.66649999999936,
      "v": 127
    },
    {
      "midi": 62,
      "hit": false,
      "t": 33333.299999999945,
      "d": 166.66649999999936,
      "v": 127
    },
    {
      "midi": 81,
      "hit": false,
      "t": 33499.96649999994,
      "d": 166.66649999999936,
      "v": 127
    },
    {
      "midi": 54,
      "hit": false,
      "t": 33499.966499999944,
      "d": 333.3329999999987,
      "v": 127
    },
    {
      "midi": 57,
      "hit": false,
      "t": 33499.966499999944,
      "d": 333.3329999999987,
      "v": 127
    },
    {
      "midi": 62,
      "hit": false,
      "t": 33499.966499999944,
      "d": 333.3329999999987,
      "v": 127
    },
    {
      "midi": 83,
      "hit": false,
      "t": 33666.632999999936,
      "d": 166.66649999999936,
      "v": 127
    },
    {
      "midi": 84,
      "hit": false,
      "t": 33833.299499999936,
      "d": 166.66649999999936,
      "v": 127
    },
    {
      "midi": 54,
      "hit": false,
      "t": 33833.29949999994,
      "d": 166.66649999999936,
      "v": 127
    },
    {
      "midi": 57,
      "hit": false,
      "t": 33833.29949999994,
      "d": 166.66649999999936,
      "v": 127
    },
    {
      "midi": 62,
      "hit": false,
      "t": 33833.29949999994,
      "d": 166.66649999999936,
      "v": 127
    },
    {
      "midi": 85,
      "hit": false,
      "t": 33999.965999999935,
      "d": 333.3329999999987,
      "v": 127
    },
    {
      "midi": 52,
      "hit": false,
      "t": 33999.96599999994,
      "d": 333.3329999999987,
      "v": 127
    },
    {
      "midi": 83,
      "hit": false,
      "t": 34333.29899999993,
      "d": 166.66649999999936,
      "v": 127
    },
    {
      "midi": 55,
      "hit": false,
      "t": 34333.29899999994,
      "d": 166.66649999999936,
      "v": 127
    },
    {
      "midi": 57,
      "hit": false,
      "t": 34333.29899999994,
      "d": 166.66649999999936,
      "v": 127
    },
    {
      "midi": 61,
      "hit": false,
      "t": 34333.29899999994,
      "d": 166.66649999999936,
      "v": 127
    },
    {
      "midi": 81,
      "hit": false,
      "t": 34499.96549999993,
      "d": 166.66649999999936,
      "v": 127
    },
    {
      "midi": 45,
      "hit": false,
      "t": 34499.96549999994,
      "d": 333.3329999999987,
      "v": 127
    },
    {
      "midi": 79,
      "hit": false,
      "t": 34666.63199999993,
      "d": 166.66649999999936,
      "v": 127
    },
    {
      "midi": 76,
      "hit": false,
      "t": 34833.29849999993,
      "d": 166.66649999999936,
      "v": 127
    },
    {
      "midi": 52,
      "hit": false,
      "t": 34833.29849999994,
      "d": 166.66649999999936,
      "v": 127
    },
    {
      "midi": 55,
      "hit": false,
      "t": 34833.29849999994,
      "d": 166.66649999999936,
      "v": 127
    },
    {
      "midi": 57,
      "hit": false,
      "t": 34833.29849999994,
      "d": 166.66649999999936,
      "v": 127
    },
    {
      "midi": 61,
      "hit": false,
      "t": 34833.29849999994,
      "d": 166.66649999999936,
      "v": 127
    },
    {
      "midi": 74,
      "hit": false,
      "t": 34999.96499999993,
      "d": 333.3329999999987,
      "v": 127
    },
    {
      "midi": 54,
      "hit": false,
      "t": 34999.96499999994,
      "d": 499.9994999999981,
      "v": 127
    },
    {
      "midi": 57,
      "hit": false,
      "t": 34999.96499999994,
      "d": 499.9994999999981,
      "v": 127
    },
    {
      "midi": 62,
      "hit": false,
      "t": 34999.96499999994,
      "d": 499.9994999999981,
      "v": 127
    },
    {
      "midi": 74,
      "hit": false,
      "t": 35333.29799999993,
      "d": 166.66649999999936,
      "v": 127
    },
    {
      "midi": 74,
      "hit": false,
      "t": 35499.96449999993,
      "d": 166.66649999999936,
      "v": 127
    },
    {
      "midi": 73,
      "hit": false,
      "t": 35666.63099999993,
      "d": 166.66649999999936,
      "v": 127
    },
    {
      "midi": 74,
      "hit": false,
      "t": 35833.29749999993,
      "d": 166.66649999999936,
      "v": 127
    },
    {
      "midi": 76,
      "hit": false,
      "t": 35999.96399999993,
      "d": 333.3329999999987,
      "v": 127
    },
    {
      "midi": 45,
      "hit": false,
      "t": 35999.963999999934,
      "d": 333.3329999999987,
      "v": 127
    },
    {
      "midi": 74,
      "hit": false,
      "t": 36333.296999999926,
      "d": 166.66649999999936,
      "v": 127
    },
    {
      "midi": 50,
      "hit": false,
      "t": 36333.29699999993,
      "d": 166.66649999999936,
      "v": 127
    },
    {
      "midi": 54,
      "hit": false,
      "t": 36333.29699999993,
      "d": 166.66649999999936,
      "v": 127
    },
    {
      "midi": 60,
      "hit": false,
      "t": 36333.29699999993,
      "d": 166.66649999999936,
      "v": 127
    },
    {
      "midi": 84,
      "hit": false,
      "t": 36499.963499999925,
      "d": 166.66649999999936,
      "v": 127
    },
    {
      "midi": 38,
      "hit": false,
      "t": 36499.96349999993,
      "d": 333.3329999999987,
      "v": 127
    },
    {
      "midi": 83,
      "hit": false,
      "t": 36666.629999999925,
      "d": 166.66649999999936,
      "v": 127
    },
    {
      "midi": 81,
      "hit": false,
      "t": 36833.296499999924,
      "d": 166.66649999999936,
      "v": 127
    },
    {
      "midi": 50,
      "hit": false,
      "t": 36833.29649999993,
      "d": 166.66649999999936,
      "v": 127
    },
    {
      "midi": 54,
      "hit": false,
      "t": 36833.29649999993,
      "d": 166.66649999999936,
      "v": 127
    },
    {
      "midi": 60,
      "hit": false,
      "t": 36833.29649999993,
      "d": 166.66649999999936,
      "v": 127
    },
    {
      "midi": 79,
      "hit": false,
      "t": 36999.96299999992,
      "d": 333.3329999999987,
      "v": 127
    },
    {
      "midi": 43,
      "hit": false,
      "t": 36999.96299999993,
      "d": 333.3329999999987,
      "v": 127
    },
    {
      "midi": 81,
      "hit": false,
      "t": 37333.29599999992,
      "d": 166.66649999999936,
      "v": 127
    },
    {
      "midi": 50,
      "hit": false,
      "t": 37333.29599999993,
      "d": 166.66649999999936,
      "v": 127
    },
    {
      "midi": 55,
      "hit": false,
      "t": 37333.29599999993,
      "d": 166.66649999999936,
      "v": 127
    },
    {
      "midi": 59,
      "hit": false,
      "t": 37333.29599999993,
      "d": 166.66649999999936,
      "v": 127
    },
    {
      "midi": 83,
      "hit": false,
      "t": 37499.96249999992,
      "d": 166.66649999999936,
      "v": 127
    },
    {
      "midi": 38,
      "hit": false,
      "t": 37499.96249999993,
      "d": 333.3329999999987,
      "v": 127
    },
    {
      "midi": 81,
      "hit": false,
      "t": 37666.62899999992,
      "d": 166.66649999999936,
      "v": 127
    },
    {
      "midi": 79,
      "hit": false,
      "t": 37833.29549999992,
      "d": 166.66649999999936,
      "v": 127
    },
    {
      "midi": 50,
      "hit": false,
      "t": 37833.29549999993,
      "d": 166.66649999999936,
      "v": 127
    },
    {
      "midi": 55,
      "hit": false,
      "t": 37833.29549999993,
      "d": 166.66649999999936,
      "v": 127
    },
    {
      "midi": 59,
      "hit": false,
      "t": 37833.29549999993,
      "d": 166.66649999999936,
      "v": 127
    },
    {
      "midi": 78,
      "hit": false,
      "t": 37999.96199999992,
      "d": 166.66649999999936,
      "v": 127
    },
    {
      "midi": 45,
      "hit": false,
      "t": 37999.96199999993,
      "d": 333.3329999999987,
      "v": 127
    },
    {
      "midi": 79,
      "hit": false,
      "t": 38166.62849999992,
      "d": 166.66649999999936,
      "v": 127
    },
    {
      "midi": 81,
      "hit": false,
      "t": 38333.29499999992,
      "d": 166.66649999999936,
      "v": 127
    },
    {
      "midi": 50,
      "hit": false,
      "t": 38333.294999999925,
      "d": 166.66649999999936,
      "v": 127
    },
    {
      "midi": 54,
      "hit": false,
      "t": 38333.294999999925,
      "d": 166.66649999999936,
      "v": 127
    },
    {
      "midi": 60,
      "hit": false,
      "t": 38333.294999999925,
      "d": 166.66649999999936,
      "v": 127
    },
    {
      "midi": 78,
      "hit": false,
      "t": 38499.96149999992,
      "d": 333.3329999999987,
      "v": 127
    },
    {
      "midi": 38,
      "hit": false,
      "t": 38499.961499999925,
      "d": 333.3329999999987,
      "v": 127
    },
    {
      "midi": 76,
      "hit": false,
      "t": 38833.294499999916,
      "d": 166.66649999999936,
      "v": 127
    },
    {
      "midi": 50,
      "hit": false,
      "t": 38833.29449999992,
      "d": 166.66649999999936,
      "v": 127
    },
    {
      "midi": 54,
      "hit": false,
      "t": 38833.29449999992,
      "d": 166.66649999999936,
      "v": 127
    },
    {
      "midi": 60,
      "hit": false,
      "t": 38833.29449999992,
      "d": 166.66649999999936,
      "v": 127
    },
    {
      "midi": 74,
      "hit": false,
      "t": 38999.960999999916,
      "d": 499.9994999999981,
      "v": 127
    },
    {
      "midi": 43,
      "hit": false,
      "t": 38999.96099999992,
      "d": 333.3329999999987,
      "v": 127
    },
    {
      "midi": 50,
      "hit": false,
      "t": 39333.29399999992,
      "d": 166.66649999999936,
      "v": 127
    },
    {
      "midi": 55,
      "hit": false,
      "t": 39333.29399999992,
      "d": 166.66649999999936,
      "v": 127
    },
    {
      "midi": 59,
      "hit": false,
      "t": 39333.29399999992,
      "d": 166.66649999999936,
      "v": 127
    },
    {
      "midi": 74,
      "hit": false,
      "t": 39499.960499999914,
      "d": 166.66649999999936,
      "v": 127
    },
    {
      "midi": 50,
      "hit": false,
      "t": 39499.96049999992,
      "d": 333.3329999999987,
      "v": 127
    },
    {
      "midi": 55,
      "hit": false,
      "t": 39499.96049999992,
      "d": 333.3329999999987,
      "v": 127
    },
    {
      "midi": 59,
      "hit": false,
      "t": 39499.96049999992,
      "d": 333.3329999999987,
      "v": 127
    },
    {
      "midi": 76,
      "hit": false,
      "t": 39666.62699999991,
      "d": 166.66649999999936,
      "v": 127
    },
    {
      "midi": 74,
      "hit": false,
      "t": 39833.29349999991,
      "d": 166.66649999999936,
      "v": 127
    },
    {
      "midi": 50,
      "hit": false,
      "t": 39833.29349999992,
      "d": 166.66649999999936,
      "v": 127
    },
    {
      "midi": 55,
      "hit": false,
      "t": 39833.29349999992,
      "d": 166.66649999999936,
      "v": 127
    },
    {
      "midi": 59,
      "hit": false,
      "t": 39833.29349999992,
      "d": 166.66649999999936,
      "v": 127
    },
    {
      "midi": 66,
      "hit": false,
      "t": 39999.95999999991,
      "d": 333.3329999999987,
      "v": 127
    },
    {
      "midi": 72,
      "hit": false,
      "t": 39999.95999999991,
      "d": 333.3329999999987,
      "v": 127
    },
    {
      "midi": 50,
      "hit": false,
      "t": 39999.95999999992,
      "d": 333.3329999999987,
      "v": 127
    },
    {
      "midi": 54,
      "hit": false,
      "t": 39999.95999999992,
      "d": 333.3329999999987,
      "v": 127
    },
    {
      "midi": 57,
      "hit": false,
      "t": 39999.95999999992,
      "d": 333.3329999999987,
      "v": 127
    },
    {
      "midi": 60,
      "hit": false,
      "t": 39999.95999999992,
      "d": 333.3329999999987,
      "v": 127
    },
    {
      "midi": 74,
      "hit": false,
      "t": 40333.29299999991,
      "d": 166.66649999999936,
      "v": 127
    },
    {
      "midi": 50,
      "hit": false,
      "t": 40333.29299999992,
      "d": 166.66649999999936,
      "v": 127
    },
    {
      "midi": 54,
      "hit": false,
      "t": 40333.29299999992,
      "d": 166.66649999999936,
      "v": 127
    },
    {
      "midi": 57,
      "hit": false,
      "t": 40333.29299999992,
      "d": 166.66649999999936,
      "v": 127
    },
    {
      "midi": 60,
      "hit": false,
      "t": 40333.29299999992,
      "d": 166.66649999999936,
      "v": 127
    },
    {
      "midi": 67,
      "hit": false,
      "t": 40499.95949999991,
      "d": 333.3329999999987,
      "v": 127
    },
    {
      "midi": 71,
      "hit": false,
      "t": 40499.95949999991,
      "d": 333.3329999999987,
      "v": 127
    },
    {
      "midi": 50,
      "hit": false,
      "t": 40499.95949999992,
      "d": 333.3329999999987,
      "v": 127
    },
    {
      "midi": 55,
      "hit": false,
      "t": 40499.95949999992,
      "d": 333.3329999999987,
      "v": 127
    },
    {
      "midi": 59,
      "hit": false,
      "t": 40499.95949999992,
      "d": 333.3329999999987,
      "v": 127
    },
    {
      "midi": 74,
      "hit": false,
      "t": 40833.29249999991,
      "d": 166.66649999999936,
      "v": 127
    },
    {
      "midi": 50,
      "hit": false,
      "t": 40833.292499999916,
      "d": 166.66649999999936,
      "v": 127
    },
    {
      "midi": 55,
      "hit": false,
      "t": 40833.292499999916,
      "d": 166.66649999999936,
      "v": 127
    },
    {
      "midi": 59,
      "hit": false,
      "t": 40833.292499999916,
      "d": 166.66649999999936,
      "v": 127
    },
    {
      "midi": 66,
      "hit": false,
      "t": 40999.95899999991,
      "d": 333.3329999999987,
      "v": 127
    },
    {
      "midi": 72,
      "hit": false,
      "t": 40999.95899999991,
      "d": 333.3329999999987,
      "v": 127
    },
    {
      "midi": 50,
      "hit": false,
      "t": 40999.958999999915,
      "d": 333.3329999999987,
      "v": 127
    },
    {
      "midi": 54,
      "hit": false,
      "t": 40999.958999999915,
      "d": 333.3329999999987,
      "v": 127
    },
    {
      "midi": 57,
      "hit": false,
      "t": 40999.958999999915,
      "d": 333.3329999999987,
      "v": 127
    },
    {
      "midi": 60,
      "hit": false,
      "t": 40999.958999999915,
      "d": 333.3329999999987,
      "v": 127
    },
    {
      "midi": 74,
      "hit": false,
      "t": 41333.29199999991,
      "d": 166.66649999999936,
      "v": 127
    },
    {
      "midi": 50,
      "hit": false,
      "t": 41333.291999999914,
      "d": 166.66649999999936,
      "v": 127
    },
    {
      "midi": 54,
      "hit": false,
      "t": 41333.291999999914,
      "d": 166.66649999999936,
      "v": 127
    },
    {
      "midi": 57,
      "hit": false,
      "t": 41333.291999999914,
      "d": 166.66649999999936,
      "v": 127
    },
    {
      "midi": 60,
      "hit": false,
      "t": 41333.291999999914,
      "d": 166.66649999999936,
      "v": 127
    },
    {
      "midi": 67,
      "hit": false,
      "t": 41499.958499999906,
      "d": 333.3329999999987,
      "v": 127
    },
    {
      "midi": 71,
      "hit": false,
      "t": 41499.958499999906,
      "d": 333.3329999999987,
      "v": 127
    },
    {
      "midi": 50,
      "hit": false,
      "t": 41499.95849999991,
      "d": 333.3329999999987,
      "v": 127
    },
    {
      "midi": 55,
      "hit": false,
      "t": 41499.95849999991,
      "d": 333.3329999999987,
      "v": 127
    },
    {
      "midi": 59,
      "hit": false,
      "t": 41499.95849999991,
      "d": 333.3329999999987,
      "v": 127
    },
    {
      "midi": 74,
      "hit": false,
      "t": 41833.291499999905,
      "d": 166.66649999999936,
      "v": 127
    },
    {
      "midi": 50,
      "hit": false,
      "t": 41833.29149999991,
      "d": 166.66649999999936,
      "v": 127
    },
    {
      "midi": 55,
      "hit": false,
      "t": 41833.29149999991,
      "d": 166.66649999999936,
      "v": 127
    },
    {
      "midi": 59,
      "hit": false,
      "t": 41833.29149999991,
      "d": 166.66649999999936,
      "v": 127
    },
    {
      "midi": 66,
      "hit": false,
      "t": 41999.957999999904,
      "d": 333.3329999999987,
      "v": 127
    },
    {
      "midi": 72,
      "hit": false,
      "t": 41999.957999999904,
      "d": 333.3329999999987,
      "v": 127
    },
    {
      "midi": 45,
      "hit": false,
      "t": 41999.95799999991,
      "d": 333.3329999999987,
      "v": 127
    },
    {
      "midi": 74,
      "hit": false,
      "t": 42333.2909999999,
      "d": 166.66649999999936,
      "v": 127
    },
    {
      "midi": 50,
      "hit": false,
      "t": 42333.29099999991,
      "d": 166.66649999999936,
      "v": 127
    },
    {
      "midi": 54,
      "hit": false,
      "t": 42333.29099999991,
      "d": 166.66649999999936,
      "v": 127
    },
    {
      "midi": 60,
      "hit": false,
      "t": 42333.29099999991,
      "d": 166.66649999999936,
      "v": 127
    },
    {
      "midi": 69,
      "hit": false,
      "t": 42499.9574999999,
      "d": 333.3329999999987,
      "v": 127
    },
    {
      "midi": 72,
      "hit": false,
      "t": 42499.9574999999,
      "d": 333.3329999999987,
      "v": 127
    },
    {
      "midi": 78,
      "hit": false,
      "t": 42499.9574999999,
      "d": 333.3329999999987,
      "v": 127
    },
    {
      "midi": 38,
      "hit": false,
      "t": 42499.95749999991,
      "d": 333.3329999999987,
      "v": 127
    },
    {
      "midi": 76,
      "hit": false,
      "t": 42833.2904999999,
      "d": 166.66649999999936,
      "v": 127
    },
    {
      "midi": 50,
      "hit": false,
      "t": 42833.29049999991,
      "d": 166.66649999999936,
      "v": 127
    },
    {
      "midi": 54,
      "hit": false,
      "t": 42833.29049999991,
      "d": 166.66649999999936,
      "v": 127
    },
    {
      "midi": 60,
      "hit": false,
      "t": 42833.29049999991,
      "d": 166.66649999999936,
      "v": 127
    },
    {
      "midi": 71,
      "hit": false,
      "t": 42999.9569999999,
      "d": 499.9994999999981,
      "v": 127
    },
    {
      "midi": 74,
      "hit": false,
      "t": 42999.9569999999,
      "d": 499.9994999999981,
      "v": 127
    },
    {
      "midi": 43,
      "hit": false,
      "t": 42999.95699999991,
      "d": 333.3329999999987,
      "v": 127
    },
    {
      "midi": 50,
      "hit": false,
      "t": 43333.289999999906,
      "d": 166.66649999999936,
      "v": 127
    },
    {
      "midi": 55,
      "hit": false,
      "t": 43333.289999999906,
      "d": 166.66649999999936,
      "v": 127
    },
    {
      "midi": 59,
      "hit": false,
      "t": 43333.289999999906,
      "d": 166.66649999999936,
      "v": 127
    },
    {
      "midi": 74,
      "hit": false,
      "t": 43499.9564999999,
      "d": 166.66649999999936,
      "v": 127
    },
    {
      "midi": 50,
      "hit": false,
      "t": 43499.956499999906,
      "d": 333.3329999999987,
      "v": 127
    },
    {
      "midi": 55,
      "hit": false,
      "t": 43499.956499999906,
      "d": 333.3329999999987,
      "v": 127
    },
    {
      "midi": 59,
      "hit": false,
      "t": 43499.956499999906,
      "d": 333.3329999999987,
      "v": 127
    },
    {
      "midi": 79,
      "hit": false,
      "t": 43666.6229999999,
      "d": 166.66649999999936,
      "v": 127
    },
    {
      "midi": 83,
      "hit": false,
      "t": 43833.2894999999,
      "d": 166.66649999999936,
      "v": 127
    },
    {
      "midi": 50,
      "hit": false,
      "t": 43833.289499999904,
      "d": 166.66649999999936,
      "v": 127
    },
    {
      "midi": 55,
      "hit": false,
      "t": 43833.289499999904,
      "d": 166.66649999999936,
      "v": 127
    },
    {
      "midi": 59,
      "hit": false,
      "t": 43833.289499999904,
      "d": 166.66649999999936,
      "v": 127
    },
    {
      "midi": 76,
      "hit": false,
      "t": 43999.9559999999,
      "d": 333.3329999999987,
      "v": 127
    },
    {
      "midi": 45,
      "hit": false,
      "t": 43999.955999999904,
      "d": 333.3329999999987,
      "v": 127
    },
    {
      "midi": 74,
      "hit": false,
      "t": 44333.288999999895,
      "d": 166.66649999999936,
      "v": 127
    },
    {
      "midi": 50,
      "hit": false,
      "t": 44333.2889999999,
      "d": 166.66649999999936,
      "v": 127
    },
    {
      "midi": 54,
      "hit": false,
      "t": 44333.2889999999,
      "d": 166.66649999999936,
      "v": 127
    },
    {
      "midi": 60,
      "hit": false,
      "t": 44333.2889999999,
      "d": 166.66649999999936,
      "v": 127
    },
    {
      "midi": 84,
      "hit": false,
      "t": 44499.955499999895,
      "d": 166.66649999999936,
      "v": 127
    },
    {
      "midi": 38,
      "hit": false,
      "t": 44499.9554999999,
      "d": 333.3329999999987,
      "v": 127
    },
    {
      "midi": 83,
      "hit": false,
      "t": 44666.621999999894,
      "d": 166.66649999999936,
      "v": 127
    },
    {
      "midi": 81,
      "hit": false,
      "t": 44833.28849999989,
      "d": 166.66649999999936,
      "v": 127
    },
    {
      "midi": 50,
      "hit": false,
      "t": 44833.2884999999,
      "d": 166.66649999999936,
      "v": 127
    },
    {
      "midi": 54,
      "hit": false,
      "t": 44833.2884999999,
      "d": 166.66649999999936,
      "v": 127
    },
    {
      "midi": 60,
      "hit": false,
      "t": 44833.2884999999,
      "d": 166.66649999999936,
      "v": 127
    },
    {
      "midi": 79,
      "hit": false,
      "t": 44999.95499999989,
      "d": 333.3329999999987,
      "v": 127
    },
    {
      "midi": 43,
      "hit": false,
      "t": 44999.9549999999,
      "d": 333.3329999999987,
      "v": 127
    },
    {
      "midi": 81,
      "hit": false,
      "t": 45333.28799999989,
      "d": 166.66649999999936,
      "v": 127
    },
    {
      "midi": 50,
      "hit": false,
      "t": 45333.2879999999,
      "d": 166.66649999999936,
      "v": 127
    },
    {
      "midi": 55,
      "hit": false,
      "t": 45333.2879999999,
      "d": 166.66649999999936,
      "v": 127
    },
    {
      "midi": 59,
      "hit": false,
      "t": 45333.2879999999,
      "d": 166.66649999999936,
      "v": 127
    },
    {
      "midi": 83,
      "hit": false,
      "t": 45499.95449999989,
      "d": 166.66649999999936,
      "v": 127
    },
    {
      "midi": 38,
      "hit": false,
      "t": 45499.9544999999,
      "d": 333.3329999999987,
      "v": 127
    },
    {
      "midi": 81,
      "hit": false,
      "t": 45666.62099999989,
      "d": 166.66649999999936,
      "v": 127
    },
    {
      "midi": 79,
      "hit": false,
      "t": 45833.28749999989,
      "d": 166.66649999999936,
      "v": 127
    },
    {
      "midi": 50,
      "hit": false,
      "t": 45833.2874999999,
      "d": 166.66649999999936,
      "v": 127
    },
    {
      "midi": 55,
      "hit": false,
      "t": 45833.2874999999,
      "d": 166.66649999999936,
      "v": 127
    },
    {
      "midi": 59,
      "hit": false,
      "t": 45833.2874999999,
      "d": 166.66649999999936,
      "v": 127
    },
    {
      "midi": 78,
      "hit": false,
      "t": 45999.95399999989,
      "d": 166.66649999999936,
      "v": 127
    },
    {
      "midi": 42,
      "hit": false,
      "t": 45999.953999999896,
      "d": 333.3329999999987,
      "v": 127
    },
    {
      "midi": 79,
      "hit": false,
      "t": 46166.62049999989,
      "d": 166.66649999999936,
      "v": 127
    },
    {
      "midi": 81,
      "hit": false,
      "t": 46333.28699999989,
      "d": 166.66649999999936,
      "v": 127
    },
    {
      "midi": 50,
      "hit": false,
      "t": 46333.286999999895,
      "d": 166.66649999999936,
      "v": 127
    },
    {
      "midi": 54,
      "hit": false,
      "t": 46333.286999999895,
      "d": 166.66649999999936,
      "v": 127
    },
    {
      "midi": 60,
      "hit": false,
      "t": 46333.286999999895,
      "d": 166.66649999999936,
      "v": 127
    },
    {
      "midi": 78,
      "hit": false,
      "t": 46499.95349999989,
      "d": 333.3329999999987,
      "v": 127
    },
    {
      "midi": 38,
      "hit": false,
      "t": 46499.953499999894,
      "d": 333.3329999999987,
      "v": 127
    },
    {
      "midi": 76,
      "hit": false,
      "t": 46833.286499999886,
      "d": 166.66649999999936,
      "v": 127
    },
    {
      "midi": 50,
      "hit": false,
      "t": 46833.28649999989,
      "d": 166.66649999999936,
      "v": 127
    },
    {
      "midi": 54,
      "hit": false,
      "t": 46833.28649999989,
      "d": 166.66649999999936,
      "v": 127
    },
    {
      "midi": 60,
      "hit": false,
      "t": 46833.28649999989,
      "d": 166.66649999999936,
      "v": 127
    },
    {
      "midi": 74,
      "hit": false,
      "t": 46999.952999999885,
      "d": 499.9994999999981,
      "v": 127
    },
    {
      "midi": 43,
      "hit": false,
      "t": 46999.95299999989,
      "d": 333.3329999999987,
      "v": 127
    },
    {
      "midi": 55,
      "hit": false,
      "t": 46999.95299999989,
      "d": 333.3329999999987,
      "v": 127
    },
    {
      "midi": 50,
      "hit": false,
      "t": 47333.28599999989,
      "d": 166.66649999999936,
      "v": 127
    },
    {
      "midi": 55,
      "hit": false,
      "t": 47333.28599999989,
      "d": 166.66649999999936,
      "v": 127
    },
    {
      "midi": 59,
      "hit": false,
      "t": 47333.28599999989,
      "d": 166.66649999999936,
      "v": 127
    },
    {
      "midi": 74,
      "hit": false,
      "t": 47499.95249999988,
      "d": 166.66649999999936,
      "v": 127
    },
    {
      "midi": 50,
      "hit": false,
      "t": 47499.95249999989,
      "d": 333.3329999999987,
      "v": 127
    },
    {
      "midi": 55,
      "hit": false,
      "t": 47499.95249999989,
      "d": 333.3329999999987,
      "v": 127
    },
    {
      "midi": 59,
      "hit": false,
      "t": 47499.95249999989,
      "d": 333.3329999999987,
      "v": 127
    },
    {
      "midi": 76,
      "hit": false,
      "t": 47666.61899999988,
      "d": 166.66649999999936,
      "v": 127
    },
    {
      "midi": 74,
      "hit": false,
      "t": 47833.28549999988,
      "d": 166.66649999999936,
      "v": 127
    },
    {
      "midi": 50,
      "hit": false,
      "t": 47833.28549999989,
      "d": 166.66649999999936,
      "v": 127
    },
    {
      "midi": 55,
      "hit": false,
      "t": 47833.28549999989,
      "d": 166.66649999999936,
      "v": 127
    },
    {
      "midi": 59,
      "hit": false,
      "t": 47833.28549999989,
      "d": 166.66649999999936,
      "v": 127
    },
    {
      "midi": 66,
      "hit": false,
      "t": 47999.95199999988,
      "d": 333.3329999999987,
      "v": 127
    },
    {
      "midi": 72,
      "hit": false,
      "t": 47999.95199999988,
      "d": 333.3329999999987,
      "v": 127
    },
    {
      "midi": 50,
      "hit": false,
      "t": 47999.95199999989,
      "d": 333.3329999999987,
      "v": 127
    },
    {
      "midi": 54,
      "hit": false,
      "t": 47999.95199999989,
      "d": 333.3329999999987,
      "v": 127
    },
    {
      "midi": 57,
      "hit": false,
      "t": 47999.95199999989,
      "d": 333.3329999999987,
      "v": 127
    },
    {
      "midi": 60,
      "hit": false,
      "t": 47999.95199999989,
      "d": 333.3329999999987,
      "v": 127
    },
    {
      "midi": 74,
      "hit": false,
      "t": 48333.28499999988,
      "d": 166.66649999999936,
      "v": 127
    },
    {
      "midi": 50,
      "hit": false,
      "t": 48333.28499999989,
      "d": 166.66649999999936,
      "v": 127
    },
    {
      "midi": 54,
      "hit": false,
      "t": 48333.28499999989,
      "d": 166.66649999999936,
      "v": 127
    },
    {
      "midi": 57,
      "hit": false,
      "t": 48333.28499999989,
      "d": 166.66649999999936,
      "v": 127
    },
    {
      "midi": 60,
      "hit": false,
      "t": 48333.28499999989,
      "d": 166.66649999999936,
      "v": 127
    },
    {
      "midi": 67,
      "hit": false,
      "t": 48499.95149999988,
      "d": 333.3329999999987,
      "v": 127
    },
    {
      "midi": 71,
      "hit": false,
      "t": 48499.95149999988,
      "d": 333.3329999999987,
      "v": 127
    },
    {
      "midi": 50,
      "hit": false,
      "t": 48499.95149999989,
      "d": 333.3329999999987,
      "v": 127
    },
    {
      "midi": 55,
      "hit": false,
      "t": 48499.95149999989,
      "d": 333.3329999999987,
      "v": 127
    },
    {
      "midi": 59,
      "hit": false,
      "t": 48499.95149999989,
      "d": 333.3329999999987,
      "v": 127
    },
    {
      "midi": 74,
      "hit": false,
      "t": 48833.28449999988,
      "d": 166.66649999999936,
      "v": 127
    },
    {
      "midi": 50,
      "hit": false,
      "t": 48833.284499999885,
      "d": 166.66649999999936,
      "v": 127
    },
    {
      "midi": 55,
      "hit": false,
      "t": 48833.284499999885,
      "d": 166.66649999999936,
      "v": 127
    },
    {
      "midi": 59,
      "hit": false,
      "t": 48833.284499999885,
      "d": 166.66649999999936,
      "v": 127
    },
    {
      "midi": 66,
      "hit": false,
      "t": 48999.95099999988,
      "d": 333.3329999999987,
      "v": 127
    },
    {
      "midi": 72,
      "hit": false,
      "t": 48999.95099999988,
      "d": 333.3329999999987,
      "v": 127
    },
    {
      "midi": 50,
      "hit": false,
      "t": 48999.950999999885,
      "d": 333.3329999999987,
      "v": 127
    },
    {
      "midi": 54,
      "hit": false,
      "t": 48999.950999999885,
      "d": 333.3329999999987,
      "v": 127
    },
    {
      "midi": 57,
      "hit": false,
      "t": 48999.950999999885,
      "d": 333.3329999999987,
      "v": 127
    },
    {
      "midi": 60,
      "hit": false,
      "t": 48999.950999999885,
      "d": 333.3329999999987,
      "v": 127
    },
    {
      "midi": 74,
      "hit": false,
      "t": 49333.283999999876,
      "d": 166.66649999999936,
      "v": 127
    },
    {
      "midi": 50,
      "hit": false,
      "t": 49333.28399999988,
      "d": 166.66649999999936,
      "v": 127
    },
    {
      "midi": 54,
      "hit": false,
      "t": 49333.28399999988,
      "d": 166.66649999999936,
      "v": 127
    },
    {
      "midi": 57,
      "hit": false,
      "t": 49333.28399999988,
      "d": 166.66649999999936,
      "v": 127
    },
    {
      "midi": 60,
      "hit": false,
      "t": 49333.28399999988,
      "d": 166.66649999999936,
      "v": 127
    },
    {
      "midi": 67,
      "hit": false,
      "t": 49499.950499999875,
      "d": 333.3329999999987,
      "v": 127
    },
    {
      "midi": 71,
      "hit": false,
      "t": 49499.950499999875,
      "d": 333.3329999999987,
      "v": 127
    },
    {
      "midi": 50,
      "hit": false,
      "t": 49499.95049999988,
      "d": 333.3329999999987,
      "v": 127
    },
    {
      "midi": 55,
      "hit": false,
      "t": 49499.95049999988,
      "d": 333.3329999999987,
      "v": 127
    },
    {
      "midi": 59,
      "hit": false,
      "t": 49499.95049999988,
      "d": 333.3329999999987,
      "v": 127
    },
    {
      "midi": 74,
      "hit": false,
      "t": 49833.283499999874,
      "d": 166.66649999999936,
      "v": 127
    },
    {
      "midi": 50,
      "hit": false,
      "t": 49833.28349999988,
      "d": 166.66649999999936,
      "v": 127
    },
    {
      "midi": 55,
      "hit": false,
      "t": 49833.28349999988,
      "d": 166.66649999999936,
      "v": 127
    },
    {
      "midi": 59,
      "hit": false,
      "t": 49833.28349999988,
      "d": 166.66649999999936,
      "v": 127
    },
    {
      "midi": 72,
      "hit": false,
      "t": 49999.94999999987,
      "d": 166.66649999999936,
      "v": 127
    },
    {
      "midi": 45,
      "hit": false,
      "t": 49999.94999999988,
      "d": 333.3329999999987,
      "v": 127
    },
    {
      "midi": 74,
      "hit": false,
      "t": 50166.61649999987,
      "d": 166.66649999999936,
      "v": 127
    },
    {
      "midi": 76,
      "hit": false,
      "t": 50333.28299999987,
      "d": 166.66649999999936,
      "v": 127
    },
    {
      "midi": 50,
      "hit": false,
      "t": 50333.28299999988,
      "d": 166.66649999999936,
      "v": 127
    },
    {
      "midi": 54,
      "hit": false,
      "t": 50333.28299999988,
      "d": 166.66649999999936,
      "v": 127
    },
    {
      "midi": 60,
      "hit": false,
      "t": 50333.28299999988,
      "d": 166.66649999999936,
      "v": 127
    },
    {
      "midi": 78,
      "hit": false,
      "t": 50499.94949999987,
      "d": 333.3329999999987,
      "v": 127
    },
    {
      "midi": 38,
      "hit": false,
      "t": 50499.94949999988,
      "d": 333.3329999999987,
      "v": 127
    },
    {
      "midi": 74,
      "hit": false,
      "t": 50833.28249999987,
      "d": 166.66649999999936,
      "v": 127
    },
    {
      "midi": 50,
      "hit": false,
      "t": 50833.28249999988,
      "d": 166.66649999999936,
      "v": 127
    },
    {
      "midi": 54,
      "hit": false,
      "t": 50833.28249999988,
      "d": 166.66649999999936,
      "v": 127
    },
    {
      "midi": 60,
      "hit": false,
      "t": 50833.28249999988,
      "d": 166.66649999999936,
      "v": 127
    },
    {
      "midi": 79,
      "hit": false,
      "t": 50999.94899999987,
      "d": 333.3329999999987,
      "v": 127
    },
    {
      "midi": 50,
      "hit": false,
      "t": 50999.94899999988,
      "d": 499.9994999999981,
      "v": 127
    },
    {
      "midi": 55,
      "hit": false,
      "t": 50999.94899999988,
      "d": 499.9994999999981,
      "v": 127
    },
    {
      "midi": 59,
      "hit": false,
      "t": 50999.94899999988,
      "d": 499.9994999999981,
      "v": 127
    },
    {
      "midi": 74,
      "hit": false,
      "t": 51333.28199999987,
      "d": 166.66649999999936,
      "v": 127
    },
    {
      "midi": 74,
      "hit": false,
      "t": 51499.94849999987,
      "d": 166.66649999999936,
      "v": 127
    },
    {
      "midi": 73,
      "hit": false,
      "t": 51666.61499999987,
      "d": 166.66649999999936,
      "v": 127
    },
    {
      "midi": 74,
      "hit": false,
      "t": 51833.281499999866,
      "d": 166.66649999999936,
      "v": 127
    },
    {
      "midi": 76,
      "hit": false,
      "t": 51999.947999999866,
      "d": 333.3329999999987,
      "v": 127
    },
    {
      "midi": 45,
      "hit": false,
      "t": 51999.94799999987,
      "d": 333.3329999999987,
      "v": 127
    },
    {
      "midi": 74,
      "hit": false,
      "t": 52333.280999999864,
      "d": 166.66649999999936,
      "v": 127
    },
    {
      "midi": 50,
      "hit": false,
      "t": 52333.28099999987,
      "d": 166.66649999999936,
      "v": 127
    },
    {
      "midi": 54,
      "hit": false,
      "t": 52333.28099999987,
      "d": 166.66649999999936,
      "v": 127
    },
    {
      "midi": 60,
      "hit": false,
      "t": 52333.28099999987,
      "d": 166.66649999999936,
      "v": 127
    },
    {
      "midi": 84,
      "hit": false,
      "t": 52499.947499999864,
      "d": 166.66649999999936,
      "v": 127
    },
    {
      "midi": 38,
      "hit": false,
      "t": 52499.94749999987,
      "d": 333.3329999999987,
      "v": 127
    },
    {
      "midi": 83,
      "hit": false,
      "t": 52666.61399999986,
      "d": 166.66649999999936,
      "v": 127
    },
    {
      "midi": 81,
      "hit": false,
      "t": 52833.28049999986,
      "d": 166.66649999999936,
      "v": 127
    },
    {
      "midi": 50,
      "hit": false,
      "t": 52833.28049999987,
      "d": 166.66649999999936,
      "v": 127
    },
    {
      "midi": 54,
      "hit": false,
      "t": 52833.28049999987,
      "d": 166.66649999999936,
      "v": 127
    },
    {
      "midi": 60,
      "hit": false,
      "t": 52833.28049999987,
      "d": 166.66649999999936,
      "v": 127
    },
    {
      "midi": 79,
      "hit": false,
      "t": 52999.94699999986,
      "d": 333.3329999999987,
      "v": 127
    },
    {
      "midi": 43,
      "hit": false,
      "t": 52999.94699999987,
      "d": 333.3329999999987,
      "v": 127
    },
    {
      "midi": 81,
      "hit": false,
      "t": 53333.27999999986,
      "d": 166.66649999999936,
      "v": 127
    },
    {
      "midi": 50,
      "hit": false,
      "t": 53333.27999999987,
      "d": 166.66649999999936,
      "v": 127
    },
    {
      "midi": 55,
      "hit": false,
      "t": 53333.27999999987,
      "d": 166.66649999999936,
      "v": 127
    },
    {
      "midi": 59,
      "hit": false,
      "t": 53333.27999999987,
      "d": 166.66649999999936,
      "v": 127
    },
    {
      "midi": 83,
      "hit": false,
      "t": 53499.94649999986,
      "d": 166.66649999999936,
      "v": 127
    },
    {
      "midi": 38,
      "hit": false,
      "t": 53499.94649999987,
      "d": 333.3329999999987,
      "v": 127
    },
    {
      "midi": 81,
      "hit": false,
      "t": 53666.61299999986,
      "d": 166.66649999999936,
      "v": 127
    },
    {
      "midi": 79,
      "hit": false,
      "t": 53833.27949999986,
      "d": 166.66649999999936,
      "v": 127
    },
    {
      "midi": 50,
      "hit": false,
      "t": 53833.279499999866,
      "d": 166.66649999999936,
      "v": 127
    },
    {
      "midi": 55,
      "hit": false,
      "t": 53833.279499999866,
      "d": 166.66649999999936,
      "v": 127
    },
    {
      "midi": 59,
      "hit": false,
      "t": 53833.279499999866,
      "d": 166.66649999999936,
      "v": 127
    },
    {
      "midi": 78,
      "hit": false,
      "t": 53999.94599999986,
      "d": 166.66649999999936,
      "v": 127
    },
    {
      "midi": 45,
      "hit": false,
      "t": 53999.945999999865,
      "d": 333.3329999999987,
      "v": 127
    },
    {
      "midi": 79,
      "hit": false,
      "t": 54166.61249999986,
      "d": 166.66649999999936,
      "v": 127
    },
    {
      "midi": 81,
      "hit": false,
      "t": 54333.27899999986,
      "d": 166.66649999999936,
      "v": 127
    },
    {
      "midi": 50,
      "hit": false,
      "t": 54333.278999999864,
      "d": 166.66649999999936,
      "v": 127
    },
    {
      "midi": 54,
      "hit": false,
      "t": 54333.278999999864,
      "d": 166.66649999999936,
      "v": 127
    },
    {
      "midi": 60,
      "hit": false,
      "t": 54333.278999999864,
      "d": 166.66649999999936,
      "v": 127
    },
    {
      "midi": 78,
      "hit": false,
      "t": 54499.945499999856,
      "d": 333.3329999999987,
      "v": 127
    },
    {
      "midi": 38,
      "hit": false,
      "t": 54499.94549999986,
      "d": 333.3329999999987,
      "v": 127
    },
    {
      "midi": 76,
      "hit": false,
      "t": 54833.278499999855,
      "d": 166.66649999999936,
      "v": 127
    },
    {
      "midi": 50,
      "hit": false,
      "t": 54833.27849999986,
      "d": 166.66649999999936,
      "v": 127
    },
    {
      "midi": 54,
      "hit": false,
      "t": 54833.27849999986,
      "d": 166.66649999999936,
      "v": 127
    },
    {
      "midi": 60,
      "hit": false,
      "t": 54833.27849999986,
      "d": 166.66649999999936,
      "v": 127
    },
    {
      "midi": 74,
      "hit": false,
      "t": 54999.944999999854,
      "d": 499.9994999999981,
      "v": 127
    },
    {
      "midi": 43,
      "hit": false,
      "t": 54999.94499999986,
      "d": 333.3329999999987,
      "v": 127
    },
    {
      "midi": 50,
      "hit": false,
      "t": 55333.27799999986,
      "d": 166.66649999999936,
      "v": 127
    },
    {
      "midi": 55,
      "hit": false,
      "t": 55333.27799999986,
      "d": 166.66649999999936,
      "v": 127
    },
    {
      "midi": 59,
      "hit": false,
      "t": 55333.27799999986,
      "d": 166.66649999999936,
      "v": 127
    },
    {
      "midi": 74,
      "hit": false,
      "t": 55499.94449999985,
      "d": 166.66649999999936,
      "v": 127
    },
    {
      "midi": 50,
      "hit": false,
      "t": 55499.94449999986,
      "d": 333.3329999999987,
      "v": 127
    },
    {
      "midi": 55,
      "hit": false,
      "t": 55499.94449999986,
      "d": 333.3329999999987,
      "v": 127
    },
    {
      "midi": 59,
      "hit": false,
      "t": 55499.94449999986,
      "d": 333.3329999999987,
      "v": 127
    },
    {
      "midi": 76,
      "hit": false,
      "t": 55666.61099999985,
      "d": 166.66649999999936,
      "v": 127
    },
    {
      "midi": 74,
      "hit": false,
      "t": 55833.27749999985,
      "d": 166.66649999999936,
      "v": 127
    },
    {
      "midi": 50,
      "hit": false,
      "t": 55833.27749999986,
      "d": 166.66649999999936,
      "v": 127
    },
    {
      "midi": 55,
      "hit": false,
      "t": 55833.27749999986,
      "d": 166.66649999999936,
      "v": 127
    },
    {
      "midi": 59,
      "hit": false,
      "t": 55833.27749999986,
      "d": 166.66649999999936,
      "v": 127
    },
    {
      "midi": 66,
      "hit": false,
      "t": 55999.94399999985,
      "d": 333.3329999999987,
      "v": 127
    },
    {
      "midi": 72,
      "hit": false,
      "t": 55999.94399999985,
      "d": 333.3329999999987,
      "v": 127
    },
    {
      "midi": 50,
      "hit": false,
      "t": 55999.94399999986,
      "d": 333.3329999999987,
      "v": 127
    },
    {
      "midi": 54,
      "hit": false,
      "t": 55999.94399999986,
      "d": 333.3329999999987,
      "v": 127
    },
    {
      "midi": 57,
      "hit": false,
      "t": 55999.94399999986,
      "d": 333.3329999999987,
      "v": 127
    },
    {
      "midi": 60,
      "hit": false,
      "t": 55999.94399999986,
      "d": 333.3329999999987,
      "v": 127
    },
    {
      "midi": 74,
      "hit": false,
      "t": 56333.27699999985,
      "d": 166.66649999999936,
      "v": 127
    },
    {
      "midi": 50,
      "hit": false,
      "t": 56333.276999999856,
      "d": 166.66649999999936,
      "v": 127
    },
    {
      "midi": 54,
      "hit": false,
      "t": 56333.276999999856,
      "d": 166.66649999999936,
      "v": 127
    },
    {
      "midi": 57,
      "hit": false,
      "t": 56333.276999999856,
      "d": 166.66649999999936,
      "v": 127
    },
    {
      "midi": 60,
      "hit": false,
      "t": 56333.276999999856,
      "d": 166.66649999999936,
      "v": 127
    },
    {
      "midi": 67,
      "hit": false,
      "t": 56499.94349999985,
      "d": 333.3329999999987,
      "v": 127
    },
    {
      "midi": 71,
      "hit": false,
      "t": 56499.94349999985,
      "d": 333.3329999999987,
      "v": 127
    },
    {
      "midi": 50,
      "hit": false,
      "t": 56499.943499999856,
      "d": 333.3329999999987,
      "v": 127
    },
    {
      "midi": 55,
      "hit": false,
      "t": 56499.943499999856,
      "d": 333.3329999999987,
      "v": 127
    },
    {
      "midi": 59,
      "hit": false,
      "t": 56499.943499999856,
      "d": 333.3329999999987,
      "v": 127
    },
    {
      "midi": 74,
      "hit": false,
      "t": 56833.27649999985,
      "d": 166.66649999999936,
      "v": 127
    },
    {
      "midi": 50,
      "hit": false,
      "t": 56833.276499999854,
      "d": 166.66649999999936,
      "v": 127
    },
    {
      "midi": 55,
      "hit": false,
      "t": 56833.276499999854,
      "d": 166.66649999999936,
      "v": 127
    },
    {
      "midi": 59,
      "hit": false,
      "t": 56833.276499999854,
      "d": 166.66649999999936,
      "v": 127
    },
    {
      "midi": 66,
      "hit": false,
      "t": 56999.94299999985,
      "d": 333.3329999999987,
      "v": 127
    },
    {
      "midi": 72,
      "hit": false,
      "t": 56999.94299999985,
      "d": 333.3329999999987,
      "v": 127
    },
    {
      "midi": 50,
      "hit": false,
      "t": 56999.942999999854,
      "d": 333.3329999999987,
      "v": 127
    },
    {
      "midi": 54,
      "hit": false,
      "t": 56999.942999999854,
      "d": 333.3329999999987,
      "v": 127
    },
    {
      "midi": 57,
      "hit": false,
      "t": 56999.942999999854,
      "d": 333.3329999999987,
      "v": 127
    },
    {
      "midi": 60,
      "hit": false,
      "t": 56999.942999999854,
      "d": 333.3329999999987,
      "v": 127
    },
    {
      "midi": 74,
      "hit": false,
      "t": 57333.275999999845,
      "d": 166.66649999999936,
      "v": 127
    },
    {
      "midi": 50,
      "hit": false,
      "t": 57333.27599999985,
      "d": 166.66649999999936,
      "v": 127
    },
    {
      "midi": 54,
      "hit": false,
      "t": 57333.27599999985,
      "d": 166.66649999999936,
      "v": 127
    },
    {
      "midi": 57,
      "hit": false,
      "t": 57333.27599999985,
      "d": 166.66649999999936,
      "v": 127
    },
    {
      "midi": 60,
      "hit": false,
      "t": 57333.27599999985,
      "d": 166.66649999999936,
      "v": 127
    },
    {
      "midi": 67,
      "hit": false,
      "t": 57499.942499999845,
      "d": 333.3329999999987,
      "v": 127
    },
    {
      "midi": 71,
      "hit": false,
      "t": 57499.942499999845,
      "d": 333.3329999999987,
      "v": 127
    },
    {
      "midi": 50,
      "hit": false,
      "t": 57499.94249999985,
      "d": 333.3329999999987,
      "v": 127
    },
    {
      "midi": 55,
      "hit": false,
      "t": 57499.94249999985,
      "d": 333.3329999999987,
      "v": 127
    },
    {
      "midi": 59,
      "hit": false,
      "t": 57499.94249999985,
      "d": 333.3329999999987,
      "v": 127
    },
    {
      "midi": 74,
      "hit": false,
      "t": 57833.27549999984,
      "d": 166.66649999999936,
      "v": 127
    },
    {
      "midi": 50,
      "hit": false,
      "t": 57833.27549999985,
      "d": 166.66649999999936,
      "v": 127
    },
    {
      "midi": 55,
      "hit": false,
      "t": 57833.27549999985,
      "d": 166.66649999999936,
      "v": 127
    },
    {
      "midi": 59,
      "hit": false,
      "t": 57833.27549999985,
      "d": 166.66649999999936,
      "v": 127
    },
    {
      "midi": 66,
      "hit": false,
      "t": 57999.94199999984,
      "d": 333.3329999999987,
      "v": 127
    },
    {
      "midi": 72,
      "hit": false,
      "t": 57999.94199999984,
      "d": 333.3329999999987,
      "v": 127
    },
    {
      "midi": 45,
      "hit": false,
      "t": 57999.94199999985,
      "d": 333.3329999999987,
      "v": 127
    },
    {
      "midi": 74,
      "hit": false,
      "t": 58333.27499999984,
      "d": 166.66649999999936,
      "v": 127
    },
    {
      "midi": 50,
      "hit": false,
      "t": 58333.27499999985,
      "d": 166.66649999999936,
      "v": 127
    },
    {
      "midi": 54,
      "hit": false,
      "t": 58333.27499999985,
      "d": 166.66649999999936,
      "v": 127
    },
    {
      "midi": 60,
      "hit": false,
      "t": 58333.27499999985,
      "d": 166.66649999999936,
      "v": 127
    },
    {
      "midi": 69,
      "hit": false,
      "t": 58499.94149999984,
      "d": 333.3329999999987,
      "v": 127
    },
    {
      "midi": 72,
      "hit": false,
      "t": 58499.94149999984,
      "d": 333.3329999999987,
      "v": 127
    },
    {
      "midi": 78,
      "hit": false,
      "t": 58499.94149999984,
      "d": 333.3329999999987,
      "v": 127
    },
    {
      "midi": 38,
      "hit": false,
      "t": 58499.94149999985,
      "d": 333.3329999999987,
      "v": 127
    },
    {
      "midi": 76,
      "hit": false,
      "t": 58833.27449999984,
      "d": 166.66649999999936,
      "v": 127
    },
    {
      "midi": 50,
      "hit": false,
      "t": 58833.27449999985,
      "d": 166.66649999999936,
      "v": 127
    },
    {
      "midi": 54,
      "hit": false,
      "t": 58833.27449999985,
      "d": 166.66649999999936,
      "v": 127
    },
    {
      "midi": 60,
      "hit": false,
      "t": 58833.27449999985,
      "d": 166.66649999999936,
      "v": 127
    },
    {
      "midi": 71,
      "hit": false,
      "t": 58999.94099999984,
      "d": 499.9994999999981,
      "v": 127
    },
    {
      "midi": 74,
      "hit": false,
      "t": 58999.94099999984,
      "d": 499.9994999999981,
      "v": 127
    },
    {
      "midi": 43,
      "hit": false,
      "t": 58999.940999999846,
      "d": 333.3329999999987,
      "v": 127
    },
    {
      "midi": 50,
      "hit": false,
      "t": 59333.273999999845,
      "d": 166.66649999999936,
      "v": 127
    },
    {
      "midi": 55,
      "hit": false,
      "t": 59333.273999999845,
      "d": 166.66649999999936,
      "v": 127
    },
    {
      "midi": 59,
      "hit": false,
      "t": 59333.273999999845,
      "d": 166.66649999999936,
      "v": 127
    },
    {
      "midi": 74,
      "hit": false,
      "t": 59499.94049999984,
      "d": 166.66649999999936,
      "v": 127
    },
    {
      "midi": 50,
      "hit": false,
      "t": 59499.940499999844,
      "d": 333.3329999999987,
      "v": 127
    },
    {
      "midi": 55,
      "hit": false,
      "t": 59499.940499999844,
      "d": 333.3329999999987,
      "v": 127
    },
    {
      "midi": 59,
      "hit": false,
      "t": 59499.940499999844,
      "d": 333.3329999999987,
      "v": 127
    },
    {
      "midi": 79,
      "hit": false,
      "t": 59666.606999999836,
      "d": 166.66649999999936,
      "v": 127
    },
    {
      "midi": 83,
      "hit": false,
      "t": 59833.273499999836,
      "d": 166.66649999999936,
      "v": 127
    },
    {
      "midi": 50,
      "hit": false,
      "t": 59833.27349999984,
      "d": 166.66649999999936,
      "v": 127
    },
    {
      "midi": 55,
      "hit": false,
      "t": 59833.27349999984,
      "d": 166.66649999999936,
      "v": 127
    },
    {
      "midi": 59,
      "hit": false,
      "t": 59833.27349999984,
      "d": 166.66649999999936,
      "v": 127
    },
    {
      "midi": 76,
      "hit": false,
      "t": 59999.939999999835,
      "d": 333.3329999999987,
      "v": 127
    },
    {
      "midi": 45,
      "hit": false,
      "t": 59999.93999999984,
      "d": 333.3329999999987,
      "v": 127
    },
    {
      "midi": 74,
      "hit": false,
      "t": 60333.272999999834,
      "d": 166.66649999999936,
      "v": 127
    },
    {
      "midi": 50,
      "hit": false,
      "t": 60333.27299999984,
      "d": 166.66649999999936,
      "v": 127
    },
    {
      "midi": 54,
      "hit": false,
      "t": 60333.27299999984,
      "d": 166.66649999999936,
      "v": 127
    },
    {
      "midi": 60,
      "hit": false,
      "t": 60333.27299999984,
      "d": 166.66649999999936,
      "v": 127
    },
    {
      "midi": 84,
      "hit": false,
      "t": 60499.93949999983,
      "d": 166.66649999999936,
      "v": 127
    },
    {
      "midi": 38,
      "hit": false,
      "t": 60499.93949999984,
      "d": 333.3329999999987,
      "v": 127
    },
    {
      "midi": 83,
      "hit": false,
      "t": 60666.60599999983,
      "d": 166.66649999999936,
      "v": 127
    },
    {
      "midi": 81,
      "hit": false,
      "t": 60833.27249999983,
      "d": 166.66649999999936,
      "v": 127
    },
    {
      "midi": 50,
      "hit": false,
      "t": 60833.27249999984,
      "d": 166.66649999999936,
      "v": 127
    },
    {
      "midi": 54,
      "hit": false,
      "t": 60833.27249999984,
      "d": 166.66649999999936,
      "v": 127
    },
    {
      "midi": 60,
      "hit": false,
      "t": 60833.27249999984,
      "d": 166.66649999999936,
      "v": 127
    },
    {
      "midi": 79,
      "hit": false,
      "t": 60999.93899999983,
      "d": 333.3329999999987,
      "v": 127
    },
    {
      "midi": 43,
      "hit": false,
      "t": 60999.93899999984,
      "d": 333.3329999999987,
      "v": 127
    },
    {
      "midi": 81,
      "hit": false,
      "t": 61333.27199999983,
      "d": 166.66649999999936,
      "v": 127
    },
    {
      "midi": 50,
      "hit": false,
      "t": 61333.27199999984,
      "d": 166.66649999999936,
      "v": 127
    },
    {
      "midi": 55,
      "hit": false,
      "t": 61333.27199999984,
      "d": 166.66649999999936,
      "v": 127
    },
    {
      "midi": 59,
      "hit": false,
      "t": 61333.27199999984,
      "d": 166.66649999999936,
      "v": 127
    },
    {
      "midi": 83,
      "hit": false,
      "t": 61499.93849999983,
      "d": 166.66649999999936,
      "v": 127
    },
    {
      "midi": 38,
      "hit": false,
      "t": 61499.93849999984,
      "d": 333.3329999999987,
      "v": 127
    },
    {
      "midi": 81,
      "hit": false,
      "t": 61666.60499999983,
      "d": 166.66649999999936,
      "v": 127
    },
    {
      "midi": 79,
      "hit": false,
      "t": 61833.27149999983,
      "d": 166.66649999999936,
      "v": 127
    },
    {
      "midi": 50,
      "hit": false,
      "t": 61833.271499999835,
      "d": 166.66649999999936,
      "v": 127
    },
    {
      "midi": 55,
      "hit": false,
      "t": 61833.271499999835,
      "d": 166.66649999999936,
      "v": 127
    },
    {
      "midi": 59,
      "hit": false,
      "t": 61833.271499999835,
      "d": 166.66649999999936,
      "v": 127
    },
    {
      "midi": 78,
      "hit": false,
      "t": 61999.93799999983,
      "d": 166.66649999999936,
      "v": 127
    },
    {
      "midi": 42,
      "hit": false,
      "t": 61999.937999999835,
      "d": 333.3329999999987,
      "v": 127
    },
    {
      "midi": 79,
      "hit": false,
      "t": 62166.60449999983,
      "d": 166.66649999999936,
      "v": 127
    },
    {
      "midi": 81,
      "hit": false,
      "t": 62333.270999999826,
      "d": 166.66649999999936,
      "v": 127
    },
    {
      "midi": 50,
      "hit": false,
      "t": 62333.27099999983,
      "d": 166.66649999999936,
      "v": 127
    },
    {
      "midi": 54,
      "hit": false,
      "t": 62333.27099999983,
      "d": 166.66649999999936,
      "v": 127
    },
    {
      "midi": 60,
      "hit": false,
      "t": 62333.27099999983,
      "d": 166.66649999999936,
      "v": 127
    },
    {
      "midi": 78,
      "hit": false,
      "t": 62499.937499999825,
      "d": 333.3329999999987,
      "v": 127
    },
    {
      "midi": 38,
      "hit": false,
      "t": 62499.93749999983,
      "d": 333.3329999999987,
      "v": 127
    },
    {
      "midi": 76,
      "hit": false,
      "t": 62833.270499999824,
      "d": 166.66649999999936,
      "v": 127
    },
    {
      "midi": 50,
      "hit": false,
      "t": 62833.27049999983,
      "d": 166.66649999999936,
      "v": 127
    },
    {
      "midi": 54,
      "hit": false,
      "t": 62833.27049999983,
      "d": 166.66649999999936,
      "v": 127
    },
    {
      "midi": 60,
      "hit": false,
      "t": 62833.27049999983,
      "d": 166.66649999999936,
      "v": 127
    },
    {
      "midi": 74,
      "hit": false,
      "t": 62999.93699999982,
      "d": 499.9994999999981,
      "v": 127
    },
    {
      "midi": 43,
      "hit": false,
      "t": 62999.93699999983,
      "d": 333.3329999999987,
      "v": 127
    },
    {
      "midi": 55,
      "hit": false,
      "t": 62999.93699999983,
      "d": 333.3329999999987,
      "v": 127
    },
    {
      "midi": 50,
      "hit": false,
      "t": 63333.26999999983,
      "d": 166.66649999999936,
      "v": 127
    },
    {
      "midi": 55,
      "hit": false,
      "t": 63333.26999999983,
      "d": 166.66649999999936,
      "v": 127
    },
    {
      "midi": 59,
      "hit": false,
      "t": 63333.26999999983,
      "d": 166.66649999999936,
      "v": 127
    },
    {
      "midi": 74,
      "hit": false,
      "t": 63499.93649999982,
      "d": 166.66649999999936,
      "v": 127
    },
    {
      "midi": 50,
      "hit": false,
      "t": 63499.93649999983,
      "d": 333.3329999999987,
      "v": 127
    },
    {
      "midi": 55,
      "hit": false,
      "t": 63499.93649999983,
      "d": 333.3329999999987,
      "v": 127
    },
    {
      "midi": 59,
      "hit": false,
      "t": 63499.93649999983,
      "d": 333.3329999999987,
      "v": 127
    },
    {
      "midi": 76,
      "hit": false,
      "t": 63666.60299999982,
      "d": 166.66649999999936,
      "v": 127
    },
    {
      "midi": 74,
      "hit": false,
      "t": 63833.26949999982,
      "d": 166.66649999999936,
      "v": 127
    },
    {
      "midi": 50,
      "hit": false,
      "t": 63833.26949999983,
      "d": 166.66649999999936,
      "v": 127
    },
    {
      "midi": 55,
      "hit": false,
      "t": 63833.26949999983,
      "d": 166.66649999999936,
      "v": 127
    },
    {
      "midi": 59,
      "hit": false,
      "t": 63833.26949999983,
      "d": 166.66649999999936,
      "v": 127
    },
    {
      "midi": 66,
      "hit": false,
      "t": 63999.93599999982,
      "d": 333.3329999999987,
      "v": 127
    },
    {
      "midi": 72,
      "hit": false,
      "t": 63999.93599999982,
      "d": 333.3329999999987,
      "v": 127
    },
    {
      "midi": 50,
      "hit": false,
      "t": 63999.93599999983,
      "d": 333.3329999999987,
      "v": 127
    },
    {
      "midi": 54,
      "hit": false,
      "t": 63999.93599999983,
      "d": 333.3329999999987,
      "v": 127
    },
    {
      "midi": 57,
      "hit": false,
      "t": 63999.93599999983,
      "d": 333.3329999999987,
      "v": 127
    },
    {
      "midi": 60,
      "hit": false,
      "t": 63999.93599999983,
      "d": 333.3329999999987,
      "v": 127
    },
    {
      "midi": 74,
      "hit": false,
      "t": 64333.26899999982,
      "d": 166.66649999999936,
      "v": 127
    },
    {
      "midi": 50,
      "hit": false,
      "t": 64333.268999999826,
      "d": 166.66649999999936,
      "v": 127
    },
    {
      "midi": 54,
      "hit": false,
      "t": 64333.268999999826,
      "d": 166.66649999999936,
      "v": 127
    },
    {
      "midi": 57,
      "hit": false,
      "t": 64333.268999999826,
      "d": 166.66649999999936,
      "v": 127
    },
    {
      "midi": 60,
      "hit": false,
      "t": 64333.268999999826,
      "d": 166.66649999999936,
      "v": 127
    },
    {
      "midi": 67,
      "hit": false,
      "t": 64499.93549999982,
      "d": 333.3329999999987,
      "v": 127
    },
    {
      "midi": 71,
      "hit": false,
      "t": 64499.93549999982,
      "d": 333.3329999999987,
      "v": 127
    },
    {
      "midi": 50,
      "hit": false,
      "t": 64499.935499999825,
      "d": 333.3329999999987,
      "v": 127
    },
    {
      "midi": 55,
      "hit": false,
      "t": 64499.935499999825,
      "d": 333.3329999999987,
      "v": 127
    },
    {
      "midi": 59,
      "hit": false,
      "t": 64499.935499999825,
      "d": 333.3329999999987,
      "v": 127
    },
    {
      "midi": 74,
      "hit": false,
      "t": 64833.26849999982,
      "d": 166.66649999999936,
      "v": 127
    },
    {
      "midi": 50,
      "hit": false,
      "t": 64833.268499999824,
      "d": 166.66649999999936,
      "v": 127
    },
    {
      "midi": 55,
      "hit": false,
      "t": 64833.268499999824,
      "d": 166.66649999999936,
      "v": 127
    },
    {
      "midi": 59,
      "hit": false,
      "t": 64833.268499999824,
      "d": 166.66649999999936,
      "v": 127
    },
    {
      "midi": 66,
      "hit": false,
      "t": 64999.934999999816,
      "d": 333.3329999999987,
      "v": 127
    },
    {
      "midi": 72,
      "hit": false,
      "t": 64999.934999999816,
      "d": 333.3329999999987,
      "v": 127
    },
    {
      "midi": 50,
      "hit": false,
      "t": 64999.93499999982,
      "d": 333.3329999999987,
      "v": 127
    },
    {
      "midi": 54,
      "hit": false,
      "t": 64999.93499999982,
      "d": 333.3329999999987,
      "v": 127
    },
    {
      "midi": 57,
      "hit": false,
      "t": 64999.93499999982,
      "d": 333.3329999999987,
      "v": 127
    },
    {
      "midi": 60,
      "hit": false,
      "t": 64999.93499999982,
      "d": 333.3329999999987,
      "v": 127
    },
    {
      "midi": 74,
      "hit": false,
      "t": 65333.267999999814,
      "d": 166.66649999999936,
      "v": 127
    },
    {
      "midi": 50,
      "hit": false,
      "t": 65333.26799999982,
      "d": 166.66649999999936,
      "v": 127
    },
    {
      "midi": 54,
      "hit": false,
      "t": 65333.26799999982,
      "d": 166.66649999999936,
      "v": 127
    },
    {
      "midi": 57,
      "hit": false,
      "t": 65333.26799999982,
      "d": 166.66649999999936,
      "v": 127
    },
    {
      "midi": 60,
      "hit": false,
      "t": 65333.26799999982,
      "d": 166.66649999999936,
      "v": 127
    },
    {
      "midi": 67,
      "hit": false,
      "t": 65499.934499999814,
      "d": 333.3329999999987,
      "v": 127
    },
    {
      "midi": 71,
      "hit": false,
      "t": 65499.934499999814,
      "d": 333.3329999999987,
      "v": 127
    },
    {
      "midi": 50,
      "hit": false,
      "t": 65499.93449999982,
      "d": 333.333000000006,
      "v": 127
    },
    {
      "midi": 55,
      "hit": false,
      "t": 65499.93449999982,
      "d": 333.333000000006,
      "v": 127
    },
    {
      "midi": 59,
      "hit": false,
      "t": 65499.93449999982,
      "d": 333.333000000006,
      "v": 127
    },
    {
      "midi": 74,
      "hit": false,
      "t": 65833.26749999981,
      "d": 166.66650000000664,
      "v": 127
    },
    {
      "midi": 50,
      "hit": false,
      "t": 65833.26749999983,
      "d": 166.66650000000664,
      "v": 127
    },
    {
      "midi": 55,
      "hit": false,
      "t": 65833.26749999983,
      "d": 166.66650000000664,
      "v": 127
    },
    {
      "midi": 59,
      "hit": false,
      "t": 65833.26749999983,
      "d": 166.66650000000664,
      "v": 127
    },
    {
      "midi": 72,
      "hit": false,
      "t": 65999.93399999982,
      "d": 166.66650000000664,
      "v": 127
    },
    {
      "midi": 45,
      "hit": false,
      "t": 65999.93399999983,
      "d": 333.3329999999987,
      "v": 127
    },
    {
      "midi": 74,
      "hit": false,
      "t": 66166.60049999983,
      "d": 166.66650000000664,
      "v": 127
    },
    {
      "midi": 76,
      "hit": false,
      "t": 66333.26699999983,
      "d": 166.66650000000664,
      "v": 127
    },
    {
      "midi": 50,
      "hit": false,
      "t": 66333.26699999983,
      "d": 166.66650000000664,
      "v": 127
    },
    {
      "midi": 54,
      "hit": false,
      "t": 66333.26699999983,
      "d": 166.66650000000664,
      "v": 127
    },
    {
      "midi": 60,
      "hit": false,
      "t": 66333.26699999983,
      "d": 166.66650000000664,
      "v": 127
    },
    {
      "midi": 78,
      "hit": false,
      "t": 66499.93349999984,
      "d": 333.3329999999987,
      "v": 127
    },
    {
      "midi": 38,
      "hit": false,
      "t": 66499.93349999984,
      "d": 333.3329999999987,
      "v": 127
    },
    {
      "midi": 74,
      "hit": false,
      "t": 66833.26649999984,
      "d": 166.66650000000664,
      "v": 127
    },
    {
      "midi": 50,
      "hit": false,
      "t": 66833.26649999984,
      "d": 166.66650000000664,
      "v": 127
    },
    {
      "midi": 54,
      "hit": false,
      "t": 66833.26649999984,
      "d": 166.66650000000664,
      "v": 127
    },
    {
      "midi": 60,
      "hit": false,
      "t": 66833.26649999984,
      "d": 166.66650000000664,
      "v": 127
    },
    {
      "midi": 79,
      "hit": false,
      "t": 66999.93299999984,
      "d": 499.99950000000536,
      "v": 127
    },
    {
      "midi": 50,
      "hit": false,
      "t": 66999.93299999984,
      "d": 499.99950000000536,
      "v": 127
    },
    {
      "midi": 55,
      "hit": false,
      "t": 66999.93299999984,
      "d": 499.99950000000536,
      "v": 127
    },
    {
      "midi": 59,
      "hit": false,
      "t": 66999.93299999984,
      "d": 499.99950000000536,
      "v": 127
    },
    {
      "midi": 67,
      "hit": false,
      "t": 67499.93249999985,
      "d": 499.99950000000536,
      "v": 127
    },
    {
      "midi": 71,
      "hit": false,
      "t": 67499.93249999985,
      "d": 499.99950000000536,
      "v": 127
    },
    {
      "midi": 74,
      "hit": false,
      "t": 67499.93249999985,
      "d": 499.99950000000536,
      "v": 127
    },
    {
      "midi": 79,
      "hit": false,
      "t": 67499.93249999985,
      "d": 499.99950000000536,
      "v": 127
    },
    {
      "midi": 43,
      "hit": false,
      "t": 67499.93249999985,
      "d": 499.99950000000536,
      "v": 127
    },
    {
      "midi": 55,
      "hit": false,
      "t": 67499.93249999985,
      "d": 499.99950000000536,
      "v": 127
    },
    {
      "midi": 64,
      "hit": false,
      "t": 67999.93199999986,
      "d": 499.99950000000536,
      "v": 127
    },
    {
      "midi": 76,
      "hit": false,
      "t": 67999.93199999986,
      "d": 499.99950000000536,
      "v": 127
    },
    {
      "midi": 48,
      "hit": false,
      "t": 67999.93199999986,
      "d": 333.3329999999987,
      "v": 127
    },
    {
      "midi": 52,
      "hit": false,
      "t": 68333.26499999985,
      "d": 166.66650000000664,
      "v": 127
    },
    {
      "midi": 55,
      "hit": false,
      "t": 68333.26499999985,
      "d": 166.66650000000664,
      "v": 127
    },
    {
      "midi": 60,
      "hit": false,
      "t": 68333.26499999985,
      "d": 166.66650000000664,
      "v": 127
    },
    {
      "midi": 64,
      "hit": false,
      "t": 68499.93149999986,
      "d": 499.99950000000536,
      "v": 127
    },
    {
      "midi": 76,
      "hit": false,
      "t": 68499.93149999986,
      "d": 499.99950000000536,
      "v": 127
    },
    {
      "midi": 47,
      "hit": false,
      "t": 68499.93149999986,
      "d": 333.3329999999987,
      "v": 127
    },
    {
      "midi": 52,
      "hit": false,
      "t": 68833.26449999986,
      "d": 166.66650000000664,
      "v": 127
    },
    {
      "midi": 56,
      "hit": false,
      "t": 68833.26449999986,
      "d": 166.66650000000664,
      "v": 127
    },
    {
      "midi": 62,
      "hit": false,
      "t": 68833.26449999986,
      "d": 166.66650000000664,
      "v": 127
    },
    {
      "midi": 64,
      "hit": false,
      "t": 68999.93099999987,
      "d": 499.99950000000536,
      "v": 127
    },
    {
      "midi": 76,
      "hit": false,
      "t": 68999.93099999987,
      "d": 499.99950000000536,
      "v": 127
    },
    {
      "midi": 45,
      "hit": false,
      "t": 68999.93099999987,
      "d": 333.3329999999987,
      "v": 127
    },
    {
      "midi": 52,
      "hit": false,
      "t": 69333.26399999986,
      "d": 166.66650000000664,
      "v": 127
    },
    {
      "midi": 57,
      "hit": false,
      "t": 69333.26399999986,
      "d": 166.66650000000664,
      "v": 127
    },
    {
      "midi": 60,
      "hit": false,
      "t": 69333.26399999986,
      "d": 166.66650000000664,
      "v": 127
    },
    {
      "midi": 64,
      "hit": false,
      "t": 69499.93049999987,
      "d": 499.99950000000536,
      "v": 127
    },
    {
      "midi": 76,
      "hit": false,
      "t": 69499.93049999987,
      "d": 499.99950000000536,
      "v": 127
    },
    {
      "midi": 43,
      "hit": false,
      "t": 69499.93049999987,
      "d": 333.3329999999987,
      "v": 127
    },
    {
      "midi": 55,
      "hit": false,
      "t": 69833.26349999987,
      "d": 166.66650000000664,
      "v": 127
    },
    {
      "midi": 60,
      "hit": false,
      "t": 69833.26349999987,
      "d": 166.66650000000664,
      "v": 127
    },
    {
      "midi": 67,
      "hit": false,
      "t": 69999.92999999988,
      "d": 499.99950000000536,
      "v": 127
    },
    {
      "midi": 79,
      "hit": false,
      "t": 69999.92999999988,
      "d": 499.99950000000536,
      "v": 127
    },
    {
      "midi": 43,
      "hit": false,
      "t": 69999.92999999988,
      "d": 333.3329999999987,
      "v": 127
    },
    {
      "midi": 55,
      "hit": false,
      "t": 70333.26299999988,
      "d": 166.66650000000664,
      "v": 127
    },
    {
      "midi": 59,
      "hit": false,
      "t": 70333.26299999988,
      "d": 166.66650000000664,
      "v": 127
    },
    {
      "midi": 62,
      "hit": false,
      "t": 70333.26299999988,
      "d": 166.66650000000664,
      "v": 127
    },
    {
      "midi": 66,
      "hit": false,
      "t": 70499.92949999988,
      "d": 499.99950000000536,
      "v": 127
    },
    {
      "midi": 78,
      "hit": false,
      "t": 70499.92949999988,
      "d": 499.99950000000536,
      "v": 127
    },
    {
      "midi": 45,
      "hit": false,
      "t": 70499.92949999988,
      "d": 333.3329999999987,
      "v": 127
    },
    {
      "midi": 57,
      "hit": false,
      "t": 70833.26249999988,
      "d": 166.66650000000664,
      "v": 127
    },
    {
      "midi": 60,
      "hit": false,
      "t": 70833.26249999988,
      "d": 166.66650000000664,
      "v": 127
    },
    {
      "midi": 62,
      "hit": false,
      "t": 70833.26249999988,
      "d": 166.66650000000664,
      "v": 127
    },
    {
      "midi": 65,
      "hit": false,
      "t": 70999.92899999989,
      "d": 499.99950000000536,
      "v": 127
    },
    {
      "midi": 77,
      "hit": false,
      "t": 70999.92899999989,
      "d": 499.99950000000536,
      "v": 127
    },
    {
      "midi": 47,
      "hit": false,
      "t": 70999.92899999989,
      "d": 333.3329999999987,
      "v": 127
    },
    {
      "midi": 55,
      "hit": false,
      "t": 71333.26199999989,
      "d": 166.66650000000664,
      "v": 127
    },
    {
      "midi": 59,
      "hit": false,
      "t": 71333.26199999989,
      "d": 166.66650000000664,
      "v": 127
    },
    {
      "midi": 62,
      "hit": false,
      "t": 71333.26199999989,
      "d": 166.66650000000664,
      "v": 127
    },
    {
      "midi": 64,
      "hit": false,
      "t": 71499.92849999989,
      "d": 499.99950000000536,
      "v": 127
    },
    {
      "midi": 76,
      "hit": false,
      "t": 71499.92849999989,
      "d": 499.99950000000536,
      "v": 127
    },
    {
      "midi": 48,
      "hit": false,
      "t": 71499.92849999989,
      "d": 333.3329999999987,
      "v": 127
    },
    {
      "midi": 55,
      "hit": false,
      "t": 71833.26149999989,
      "d": 166.66650000000664,
      "v": 127
    },
    {
      "midi": 60,
      "hit": false,
      "t": 71833.26149999989,
      "d": 166.66650000000664,
      "v": 127
    },
    {
      "midi": 65,
      "hit": false,
      "t": 71999.9279999999,
      "d": 499.99950000000536,
      "v": 127
    },
    {
      "midi": 74,
      "hit": false,
      "t": 71999.9279999999,
      "d": 499.99950000000536,
      "v": 127
    },
    {
      "midi": 53,
      "hit": false,
      "t": 71999.9279999999,
      "d": 333.3329999999987,
      "v": 127
    },
    {
      "midi": 53,
      "hit": false,
      "t": 72333.2609999999,
      "d": 166.66650000000664,
      "v": 127
    },
    {
      "midi": 57,
      "hit": false,
      "t": 72333.2609999999,
      "d": 166.66650000000664,
      "v": 127
    },
    {
      "midi": 62,
      "hit": false,
      "t": 72333.2609999999,
      "d": 166.66650000000664,
      "v": 127
    },
    {
      "midi": 65,
      "hit": false,
      "t": 72499.9274999999,
      "d": 499.99950000000536,
      "v": 127
    },
    {
      "midi": 74,
      "hit": false,
      "t": 72499.9274999999,
      "d": 499.99950000000536,
      "v": 127
    },
    {
      "midi": 53,
      "hit": false,
      "t": 72499.9274999999,
      "d": 333.3329999999987,
      "v": 127
    },
    {
      "midi": 57,
      "hit": false,
      "t": 72499.9274999999,
      "d": 333.3329999999987,
      "v": 127
    },
    {
      "midi": 62,
      "hit": false,
      "t": 72499.9274999999,
      "d": 333.3329999999987,
      "v": 127
    },
    {
      "midi": 53,
      "hit": false,
      "t": 72833.2604999999,
      "d": 166.66650000000664,
      "v": 127
    },
    {
      "midi": 57,
      "hit": false,
      "t": 72833.2604999999,
      "d": 166.66650000000664,
      "v": 127
    },
    {
      "midi": 62,
      "hit": false,
      "t": 72833.2604999999,
      "d": 166.66650000000664,
      "v": 127
    },
    {
      "midi": 74,
      "hit": false,
      "t": 72999.92699999991,
      "d": 166.66650000000664,
      "v": 127
    },
    {
      "midi": 43,
      "hit": false,
      "t": 72999.92699999991,
      "d": 333.3329999999987,
      "v": 127
    },
    {
      "midi": 55,
      "hit": false,
      "t": 72999.92699999991,
      "d": 333.3329999999987,
      "v": 127
    },
    {
      "midi": 76,
      "hit": false,
      "t": 73166.59349999992,
      "d": 666.6659999999974,
      "v": 127
    },
    {
      "midi": 55,
      "hit": false,
      "t": 73333.25999999991,
      "d": 166.66650000000664,
      "v": 127
    },
    {
      "midi": 59,
      "hit": false,
      "t": 73333.25999999991,
      "d": 166.66650000000664,
      "v": 127
    },
    {
      "midi": 65,
      "hit": false,
      "t": 73333.25999999991,
      "d": 166.66650000000664,
      "v": 127
    },
    {
      "midi": 55,
      "hit": false,
      "t": 73499.92649999991,
      "d": 333.3329999999987,
      "v": 127
    },
    {
      "midi": 59,
      "hit": false,
      "t": 73499.92649999991,
      "d": 333.3329999999987,
      "v": 127
    },
    {
      "midi": 65,
      "hit": false,
      "t": 73499.92649999991,
      "d": 333.3329999999987,
      "v": 127
    },
    {
      "midi": 74,
      "hit": false,
      "t": 73833.25949999991,
      "d": 166.66650000000664,
      "v": 127
    },
    {
      "midi": 55,
      "hit": false,
      "t": 73833.25949999991,
      "d": 166.66650000000664,
      "v": 127
    },
    {
      "midi": 59,
      "hit": false,
      "t": 73833.25949999991,
      "d": 166.66650000000664,
      "v": 127
    },
    {
      "midi": 65,
      "hit": false,
      "t": 73833.25949999991,
      "d": 166.66650000000664,
      "v": 127
    },
    {
      "midi": 72,
      "hit": false,
      "t": 73999.92599999992,
      "d": 166.66650000000664,
      "v": 127
    },
    {
      "midi": 55,
      "hit": false,
      "t": 73999.92599999992,
      "d": 499.99950000000536,
      "v": 127
    },
    {
      "midi": 60,
      "hit": false,
      "t": 73999.92599999992,
      "d": 499.99950000000536,
      "v": 127
    },
    {
      "midi": 64,
      "hit": false,
      "t": 73999.92599999992,
      "d": 499.99950000000536,
      "v": 127
    },
    {
      "midi": 84,
      "hit": false,
      "t": 74166.59249999993,
      "d": 666.6659999999974,
      "v": 127
    },
    {
      "midi": 54,
      "hit": false,
      "t": 74499.92549999992,
      "d": 499.99950000000536,
      "v": 127
    },
    {
      "midi": 57,
      "hit": false,
      "t": 74499.92549999992,
      "d": 499.99950000000536,
      "v": 127
    },
    {
      "midi": 60,
      "hit": false,
      "t": 74499.92549999992,
      "d": 499.99950000000536,
      "v": 127
    },
    {
      "midi": 63,
      "hit": false,
      "t": 74499.92549999992,
      "d": 499.99950000000536,
      "v": 127
    },
    {
      "midi": 81,
      "hit": false,
      "t": 74833.25849999992,
      "d": 166.66650000000664,
      "v": 127
    },
    {
      "midi": 79,
      "hit": false,
      "t": 74999.92499999993,
      "d": 499.99950000000536,
      "v": 127
    },
    {
      "midi": 55,
      "hit": false,
      "t": 74999.92499999993,
      "d": 499.99950000000536,
      "v": 127
    },
    {
      "midi": 60,
      "hit": false,
      "t": 74999.92499999993,
      "d": 499.99950000000536,
      "v": 127
    },
    {
      "midi": 64,
      "hit": false,
      "t": 74999.92499999993,
      "d": 499.99950000000536,
      "v": 127
    },
    {
      "midi": 71,
      "hit": false,
      "t": 75499.92449999994,
      "d": 333.3329999999987,
      "v": 127
    },
    {
      "midi": 74,
      "hit": false,
      "t": 75499.92449999994,
      "d": 333.3329999999987,
      "v": 127
    },
    {
      "midi": 79,
      "hit": false,
      "t": 75499.92449999994,
      "d": 333.3329999999987,
      "v": 127
    },
    {
      "midi": 43,
      "hit": false,
      "t": 75499.92449999994,
      "d": 499.99950000000536,
      "v": 127
    },
    {
      "midi": 55,
      "hit": false,
      "t": 75499.92449999994,
      "d": 499.99950000000536,
      "v": 127
    },
    {
      "midi": 77,
      "hit": false,
      "t": 75833.25749999993,
      "d": 166.66650000000664,
      "v": 127
    },
    {
      "midi": 64,
      "hit": false,
      "t": 75999.92399999994,
      "d": 499.99950000000536,
      "v": 127
    },
    {
      "midi": 76,
      "hit": false,
      "t": 75999.92399999994,
      "d": 499.99950000000536,
      "v": 127
    },
    {
      "midi": 48,
      "hit": false,
      "t": 75999.92399999994,
      "d": 333.3329999999987,
      "v": 127
    },
    {
      "midi": 52,
      "hit": false,
      "t": 76333.25699999994,
      "d": 166.66650000000664,
      "v": 127
    },
    {
      "midi": 55,
      "hit": false,
      "t": 76333.25699999994,
      "d": 166.66650000000664,
      "v": 127
    },
    {
      "midi": 60,
      "hit": false,
      "t": 76333.25699999994,
      "d": 166.66650000000664,
      "v": 127
    },
    {
      "midi": 64,
      "hit": false,
      "t": 76499.92349999995,
      "d": 499.99950000000536,
      "v": 127
    },
    {
      "midi": 76,
      "hit": false,
      "t": 76499.92349999995,
      "d": 499.99950000000536,
      "v": 127
    },
    {
      "midi": 47,
      "hit": false,
      "t": 76499.92349999995,
      "d": 333.3329999999987,
      "v": 127
    },
    {
      "midi": 52,
      "hit": false,
      "t": 76833.25649999994,
      "d": 166.66650000000664,
      "v": 127
    },
    {
      "midi": 56,
      "hit": false,
      "t": 76833.25649999994,
      "d": 166.66650000000664,
      "v": 127
    },
    {
      "midi": 62,
      "hit": false,
      "t": 76833.25649999994,
      "d": 166.66650000000664,
      "v": 127
    },
    {
      "midi": 64,
      "hit": false,
      "t": 76999.92299999995,
      "d": 499.99950000000536,
      "v": 127
    },
    {
      "midi": 76,
      "hit": false,
      "t": 76999.92299999995,
      "d": 499.99950000000536,
      "v": 127
    },
    {
      "midi": 45,
      "hit": false,
      "t": 76999.92299999995,
      "d": 333.3329999999987,
      "v": 127
    },
    {
      "midi": 52,
      "hit": false,
      "t": 77333.25599999995,
      "d": 166.66650000000664,
      "v": 127
    },
    {
      "midi": 57,
      "hit": false,
      "t": 77333.25599999995,
      "d": 166.66650000000664,
      "v": 127
    },
    {
      "midi": 60,
      "hit": false,
      "t": 77333.25599999995,
      "d": 166.66650000000664,
      "v": 127
    },
    {
      "midi": 64,
      "hit": false,
      "t": 77499.92249999996,
      "d": 499.99950000000536,
      "v": 127
    },
    {
      "midi": 76,
      "hit": false,
      "t": 77499.92249999996,
      "d": 499.99950000000536,
      "v": 127
    },
    {
      "midi": 43,
      "hit": false,
      "t": 77499.92249999996,
      "d": 333.3329999999987,
      "v": 127
    },
    {
      "midi": 55,
      "hit": false,
      "t": 77833.25549999996,
      "d": 166.66650000000664,
      "v": 127
    },
    {
      "midi": 60,
      "hit": false,
      "t": 77833.25549999996,
      "d": 166.66650000000664,
      "v": 127
    },
    {
      "midi": 67,
      "hit": false,
      "t": 77999.92199999996,
      "d": 499.99950000000536,
      "v": 127
    },
    {
      "midi": 79,
      "hit": false,
      "t": 77999.92199999996,
      "d": 499.99950000000536,
      "v": 127
    },
    {
      "midi": 43,
      "hit": false,
      "t": 77999.92199999996,
      "d": 333.3329999999987,
      "v": 127
    },
    {
      "midi": 55,
      "hit": false,
      "t": 78333.25499999996,
      "d": 166.66650000000664,
      "v": 127
    },
    {
      "midi": 59,
      "hit": false,
      "t": 78333.25499999996,
      "d": 166.66650000000664,
      "v": 127
    },
    {
      "midi": 62,
      "hit": false,
      "t": 78333.25499999996,
      "d": 166.66650000000664,
      "v": 127
    },
    {
      "midi": 66,
      "hit": false,
      "t": 78499.92149999997,
      "d": 499.99950000000536,
      "v": 127
    },
    {
      "midi": 78,
      "hit": false,
      "t": 78499.92149999997,
      "d": 499.99950000000536,
      "v": 127
    },
    {
      "midi": 45,
      "hit": false,
      "t": 78499.92149999997,
      "d": 333.3329999999987,
      "v": 127
    },
    {
      "midi": 57,
      "hit": false,
      "t": 78833.25449999997,
      "d": 166.66650000000664,
      "v": 127
    },
    {
      "midi": 60,
      "hit": false,
      "t": 78833.25449999997,
      "d": 166.66650000000664,
      "v": 127
    },
    {
      "midi": 62,
      "hit": false,
      "t": 78833.25449999997,
      "d": 166.66650000000664,
      "v": 127
    },
    {
      "midi": 65,
      "hit": false,
      "t": 78999.92099999997,
      "d": 499.99950000000536,
      "v": 127
    },
    {
      "midi": 77,
      "hit": false,
      "t": 78999.92099999997,
      "d": 499.99950000000536,
      "v": 127
    },
    {
      "midi": 47,
      "hit": false,
      "t": 78999.92099999997,
      "d": 333.3329999999987,
      "v": 127
    },
    {
      "midi": 55,
      "hit": false,
      "t": 79333.25399999997,
      "d": 166.66650000000664,
      "v": 127
    },
    {
      "midi": 59,
      "hit": false,
      "t": 79333.25399999997,
      "d": 166.66650000000664,
      "v": 127
    },
    {
      "midi": 62,
      "hit": false,
      "t": 79333.25399999997,
      "d": 166.66650000000664,
      "v": 127
    },
    {
      "midi": 64,
      "hit": false,
      "t": 79499.92049999998,
      "d": 499.99950000000536,
      "v": 127
    },
    {
      "midi": 76,
      "hit": false,
      "t": 79499.92049999998,
      "d": 499.99950000000536,
      "v": 127
    },
    {
      "midi": 48,
      "hit": false,
      "t": 79499.92049999998,
      "d": 333.3329999999987,
      "v": 127
    },
    {
      "midi": 55,
      "hit": false,
      "t": 79833.25349999998,
      "d": 166.66650000000664,
      "v": 127
    },
    {
      "midi": 60,
      "hit": false,
      "t": 79833.25349999998,
      "d": 166.66650000000664,
      "v": 127
    },
    {
      "midi": 65,
      "hit": false,
      "t": 79999.91999999998,
      "d": 499.99950000000536,
      "v": 127
    },
    {
      "midi": 69,
      "hit": false,
      "t": 79999.91999999998,
      "d": 499.99950000000536,
      "v": 127
    },
    {
      "midi": 74,
      "hit": false,
      "t": 79999.91999999998,
      "d": 499.99950000000536,
      "v": 127
    },
    {
      "midi": 53,
      "hit": false,
      "t": 79999.91999999998,
      "d": 333.3329999999987,
      "v": 127
    },
    {
      "midi": 53,
      "hit": false,
      "t": 80333.25299999998,
      "d": 166.66650000000664,
      "v": 127
    },
    {
      "midi": 57,
      "hit": false,
      "t": 80333.25299999998,
      "d": 166.66650000000664,
      "v": 127
    },
    {
      "midi": 62,
      "hit": false,
      "t": 80333.25299999998,
      "d": 166.66650000000664,
      "v": 127
    },
    {
      "midi": 65,
      "hit": false,
      "t": 80499.91949999999,
      "d": 499.99950000000536,
      "v": 127
    },
    {
      "midi": 69,
      "hit": false,
      "t": 80499.91949999999,
      "d": 499.99950000000536,
      "v": 127
    },
    {
      "midi": 74,
      "hit": false,
      "t": 80499.91949999999,
      "d": 499.99950000000536,
      "v": 127
    },
    {
      "midi": 53,
      "hit": false,
      "t": 80499.91949999999,
      "d": 333.3329999999987,
      "v": 127
    },
    {
      "midi": 57,
      "hit": false,
      "t": 80499.91949999999,
      "d": 333.3329999999987,
      "v": 127
    },
    {
      "midi": 62,
      "hit": false,
      "t": 80499.91949999999,
      "d": 333.3329999999987,
      "v": 127
    },
    {
      "midi": 53,
      "hit": false,
      "t": 80833.25249999999,
      "d": 166.66650000000664,
      "v": 127
    },
    {
      "midi": 57,
      "hit": false,
      "t": 80833.25249999999,
      "d": 166.66650000000664,
      "v": 127
    },
    {
      "midi": 62,
      "hit": false,
      "t": 80833.25249999999,
      "d": 166.66650000000664,
      "v": 127
    },
    {
      "midi": 74,
      "hit": false,
      "t": 80999.919,
      "d": 166.66650000000664,
      "v": 127
    },
    {
      "midi": 43,
      "hit": false,
      "t": 80999.919,
      "d": 333.3329999999987,
      "v": 127
    },
    {
      "midi": 55,
      "hit": false,
      "t": 80999.919,
      "d": 333.3329999999987,
      "v": 127
    },
    {
      "midi": 76,
      "hit": false,
      "t": 81166.5855,
      "d": 666.6659999999974,
      "v": 127
    },
    {
      "midi": 55,
      "hit": false,
      "t": 81333.252,
      "d": 166.66650000000664,
      "v": 127
    },
    {
      "midi": 59,
      "hit": false,
      "t": 81333.252,
      "d": 166.66650000000664,
      "v": 127
    },
    {
      "midi": 65,
      "hit": false,
      "t": 81333.252,
      "d": 166.66650000000664,
      "v": 127
    },
    {
      "midi": 55,
      "hit": false,
      "t": 81499.9185,
      "d": 333.3329999999987,
      "v": 127
    },
    {
      "midi": 59,
      "hit": false,
      "t": 81499.9185,
      "d": 333.3329999999987,
      "v": 127
    },
    {
      "midi": 65,
      "hit": false,
      "t": 81499.9185,
      "d": 333.3329999999987,
      "v": 127
    },
    {
      "midi": 74,
      "hit": false,
      "t": 81833.2515,
      "d": 166.66650000000664,
      "v": 127
    },
    {
      "midi": 55,
      "hit": false,
      "t": 81833.2515,
      "d": 166.66650000000664,
      "v": 127
    },
    {
      "midi": 59,
      "hit": false,
      "t": 81833.2515,
      "d": 166.66650000000664,
      "v": 127
    },
    {
      "midi": 65,
      "hit": false,
      "t": 81833.2515,
      "d": 166.66650000000664,
      "v": 127
    },
    {
      "midi": 64,
      "hit": false,
      "t": 81999.918,
      "d": 999.9989999999962,
      "v": 127
    },
    {
      "midi": 67,
      "hit": false,
      "t": 81999.918,
      "d": 999.9989999999962,
      "v": 127
    },
    {
      "midi": 72,
      "hit": false,
      "t": 81999.918,
      "d": 999.9989999999962,
      "v": 127
    },
    {
      "midi": 48,
      "hit": false,
      "t": 81999.918,
      "d": 333.3329999999987,
      "v": 127
    },
    {
      "midi": 60,
      "hit": false,
      "t": 81999.918,
      "d": 333.3329999999987,
      "v": 127
    },
    {
      "midi": 45,
      "hit": false,
      "t": 82333.251,
      "d": 166.66650000000664,
      "v": 127
    },
    {
      "midi": 57,
      "hit": false,
      "t": 82333.251,
      "d": 166.66650000000664,
      "v": 127
    },
    {
      "midi": 43,
      "hit": false,
      "t": 82499.91750000001,
      "d": 333.3329999999987,
      "v": 127
    },
    {
      "midi": 55,
      "hit": false,
      "t": 82499.91750000001,
      "d": 333.3329999999987,
      "v": 127
    },
    {
      "midi": 40,
      "hit": false,
      "t": 82833.25050000001,
      "d": 166.66650000000664,
      "v": 127
    },
    {
      "midi": 52,
      "hit": false,
      "t": 82833.25050000001,
      "d": 166.66650000000664,
      "v": 127
    },
    {
      "midi": 36,
      "hit": false,
      "t": 82999.91700000002,
      "d": 499.99950000000536,
      "v": 127
    },
    {
      "midi": 48,
      "hit": false,
      "t": 82999.91700000002,
      "d": 499.99950000000536,
      "v": 127
    },
    {
      "midi": 72,
      "hit": false,
      "t": 83333.25,
      "d": 166.66650000000664,
      "v": 127
    },
    {
      "midi": 72,
      "hit": false,
      "t": 83499.9165,
      "d": 333.3329999999987,
      "v": 127
    },
    {
      "midi": 72,
      "hit": false,
      "t": 83833.2495,
      "d": 166.66650000000664,
      "v": 127
    },
    {
      "midi": 73,
      "hit": false,
      "t": 83999.91600000001,
      "d": 499.99950000000536,
      "v": 127
    },
    {
      "midi": 49,
      "hit": false,
      "t": 83999.91600000003,
      "d": 333.3329999999987,
      "v": 127
    },
    {
      "midi": 56,
      "hit": false,
      "t": 84333.24900000003,
      "d": 166.66650000000664,
      "v": 127
    },
    {
      "midi": 61,
      "hit": false,
      "t": 84333.24900000003,
      "d": 166.66650000000664,
      "v": 127
    },
    {
      "midi": 65,
      "hit": false,
      "t": 84333.24900000003,
      "d": 166.66650000000664,
      "v": 127
    },
    {
      "midi": 73,
      "hit": false,
      "t": 84499.91550000002,
      "d": 499.99950000000536,
      "v": 127
    },
    {
      "midi": 56,
      "hit": false,
      "t": 84499.91550000003,
      "d": 333.3329999999987,
      "v": 127
    },
    {
      "midi": 61,
      "hit": false,
      "t": 84499.91550000003,
      "d": 333.3329999999987,
      "v": 127
    },
    {
      "midi": 65,
      "hit": false,
      "t": 84499.91550000003,
      "d": 333.3329999999987,
      "v": 127
    },
    {
      "midi": 56,
      "hit": false,
      "t": 84833.24850000003,
      "d": 166.66650000000664,
      "v": 127
    },
    {
      "midi": 61,
      "hit": false,
      "t": 84833.24850000003,
      "d": 166.66650000000664,
      "v": 127
    },
    {
      "midi": 65,
      "hit": false,
      "t": 84833.24850000003,
      "d": 166.66650000000664,
      "v": 127
    },
    {
      "midi": 73,
      "hit": false,
      "t": 84999.91500000002,
      "d": 499.99950000000536,
      "v": 127
    },
    {
      "midi": 49,
      "hit": false,
      "t": 84999.91500000004,
      "d": 333.3329999999987,
      "v": 127
    },
    {
      "midi": 56,
      "hit": false,
      "t": 85333.24800000004,
      "d": 166.66650000000664,
      "v": 127
    },
    {
      "midi": 61,
      "hit": false,
      "t": 85333.24800000004,
      "d": 166.66650000000664,
      "v": 127
    },
    {
      "midi": 65,
      "hit": false,
      "t": 85333.24800000004,
      "d": 166.66650000000664,
      "v": 127
    },
    {
      "midi": 73,
      "hit": false,
      "t": 85499.91450000003,
      "d": 499.99950000000536,
      "v": 127
    },
    {
      "midi": 56,
      "hit": false,
      "t": 85499.91450000004,
      "d": 333.3329999999987,
      "v": 127
    },
    {
      "midi": 61,
      "hit": false,
      "t": 85499.91450000004,
      "d": 333.3329999999987,
      "v": 127
    },
    {
      "midi": 65,
      "hit": false,
      "t": 85499.91450000004,
      "d": 333.3329999999987,
      "v": 127
    },
    {
      "midi": 56,
      "hit": false,
      "t": 85833.24750000004,
      "d": 166.66650000000664,
      "v": 127
    },
    {
      "midi": 61,
      "hit": false,
      "t": 85833.24750000004,
      "d": 166.66650000000664,
      "v": 127
    },
    {
      "midi": 65,
      "hit": false,
      "t": 85833.24750000004,
      "d": 166.66650000000664,
      "v": 127
    },
    {
      "midi": 73,
      "hit": false,
      "t": 85999.91400000003,
      "d": 499.99950000000536,
      "v": 127
    },
    {
      "midi": 49,
      "hit": false,
      "t": 85999.91400000005,
      "d": 333.3329999999987,
      "v": 127
    },
    {
      "midi": 56,
      "hit": false,
      "t": 86333.24700000005,
      "d": 166.66650000000664,
      "v": 127
    },
    {
      "midi": 61,
      "hit": false,
      "t": 86333.24700000005,
      "d": 166.66650000000664,
      "v": 127
    },
    {
      "midi": 65,
      "hit": false,
      "t": 86333.24700000005,
      "d": 166.66650000000664,
      "v": 127
    },
    {
      "midi": 80,
      "hit": false,
      "t": 86499.91350000004,
      "d": 499.99950000000536,
      "v": 127
    },
    {
      "midi": 44,
      "hit": false,
      "t": 86499.91350000005,
      "d": 333.3329999999987,
      "v": 127
    },
    {
      "midi": 56,
      "hit": false,
      "t": 86833.24650000005,
      "d": 166.66650000000664,
      "v": 127
    },
    {
      "midi": 61,
      "hit": false,
      "t": 86833.24650000005,
      "d": 166.66650000000664,
      "v": 127
    },
    {
      "midi": 65,
      "hit": false,
      "t": 86833.24650000005,
      "d": 166.66650000000664,
      "v": 127
    },
    {
      "midi": 77,
      "hit": false,
      "t": 86999.91300000004,
      "d": 499.99950000000536,
      "v": 127
    },
    {
      "midi": 49,
      "hit": false,
      "t": 86999.91300000006,
      "d": 333.3329999999987,
      "v": 127
    },
    {
      "midi": 56,
      "hit": false,
      "t": 87333.24600000006,
      "d": 166.66650000000664,
      "v": 127
    },
    {
      "midi": 61,
      "hit": false,
      "t": 87333.24600000006,
      "d": 166.66650000000664,
      "v": 127
    },
    {
      "midi": 65,
      "hit": false,
      "t": 87333.24600000006,
      "d": 166.66650000000664,
      "v": 127
    },
    {
      "midi": 73,
      "hit": false,
      "t": 87499.91250000005,
      "d": 499.99950000000536,
      "v": 127
    },
    {
      "midi": 44,
      "hit": false,
      "t": 87499.91250000006,
      "d": 333.3329999999987,
      "v": 127
    },
    {
      "midi": 56,
      "hit": false,
      "t": 87833.24550000006,
      "d": 166.66650000000664,
      "v": 127
    },
    {
      "midi": 61,
      "hit": false,
      "t": 87833.24550000006,
      "d": 166.66650000000664,
      "v": 127
    },
    {
      "midi": 65,
      "hit": false,
      "t": 87833.24550000006,
      "d": 166.66650000000664,
      "v": 127
    },
    {
      "midi": 72,
      "hit": false,
      "t": 87999.91200000005,
      "d": 166.66650000000664,
      "v": 127
    },
    {
      "midi": 48,
      "hit": false,
      "t": 87999.91200000007,
      "d": 333.3329999999987,
      "v": 127
    },
    {
      "midi": 84,
      "hit": false,
      "t": 88166.57850000006,
      "d": 666.6659999999974,
      "v": 127
    },
    {
      "midi": 56,
      "hit": false,
      "t": 88333.24500000007,
      "d": 166.66650000000664,
      "v": 127
    },
    {
      "midi": 60,
      "hit": false,
      "t": 88333.24500000007,
      "d": 166.66650000000664,
      "v": 127
    },
    {
      "midi": 66,
      "hit": false,
      "t": 88333.24500000007,
      "d": 166.66650000000664,
      "v": 127
    },
    {
      "midi": 44,
      "hit": false,
      "t": 88499.91150000007,
      "d": 333.3329999999987,
      "v": 127
    },
    {
      "midi": 84,
      "hit": false,
      "t": 88833.24450000006,
      "d": 166.66650000000664,
      "v": 127
    },
    {
      "midi": 56,
      "hit": false,
      "t": 88833.24450000007,
      "d": 166.66650000000664,
      "v": 127
    },
    {
      "midi": 60,
      "hit": false,
      "t": 88833.24450000007,
      "d": 166.66650000000664,
      "v": 127
    },
    {
      "midi": 66,
      "hit": false,
      "t": 88833.24450000007,
      "d": 166.66650000000664,
      "v": 127
    },
    {
      "midi": 72,
      "hit": false,
      "t": 88999.91100000007,
      "d": 499.99950000000536,
      "v": 127
    },
    {
      "midi": 84,
      "hit": false,
      "t": 88999.91100000007,
      "d": 499.99950000000536,
      "v": 127
    },
    {
      "midi": 44,
      "hit": false,
      "t": 88999.91100000008,
      "d": 333.3329999999987,
      "v": 127
    },
    {
      "midi": 56,
      "hit": false,
      "t": 89333.24400000008,
      "d": 166.66650000000664,
      "v": 127
    },
    {
      "midi": 60,
      "hit": false,
      "t": 89333.24400000008,
      "d": 166.66650000000664,
      "v": 127
    },
    {
      "midi": 66,
      "hit": false,
      "t": 89333.24400000008,
      "d": 166.66650000000664,
      "v": 127
    },
    {
      "midi": 72,
      "hit": false,
      "t": 89499.91050000007,
      "d": 499.99950000000536,
      "v": 127
    },
    {
      "midi": 82,
      "hit": false,
      "t": 89499.91050000007,
      "d": 499.99950000000536,
      "v": 127
    },
    {
      "midi": 56,
      "hit": false,
      "t": 89499.91050000009,
      "d": 333.3329999999987,
      "v": 127
    },
    {
      "midi": 60,
      "hit": false,
      "t": 89499.91050000009,
      "d": 333.3329999999987,
      "v": 127
    },
    {
      "midi": 66,
      "hit": false,
      "t": 89499.91050000009,
      "d": 333.3329999999987,
      "v": 127
    },
    {
      "midi": 56,
      "hit": false,
      "t": 89833.24350000008,
      "d": 166.66650000000664,
      "v": 127
    },
    {
      "midi": 60,
      "hit": false,
      "t": 89833.24350000008,
      "d": 166.66650000000664,
      "v": 127
    },
    {
      "midi": 66,
      "hit": false,
      "t": 89833.24350000008,
      "d": 166.66650000000664,
      "v": 127
    },
    {
      "midi": 73,
      "hit": false,
      "t": 89999.91000000008,
      "d": 999.9989999999962,
      "v": 127
    },
    {
      "midi": 77,
      "hit": false,
      "t": 89999.91000000008,
      "d": 999.9989999999962,
      "v": 127
    },
    {
      "midi": 80,
      "hit": false,
      "t": 89999.91000000008,
      "d": 999.9989999999962,
      "v": 127
    },
    {
      "midi": 37,
      "hit": false,
      "t": 89999.91000000009,
      "d": 333.3329999999987,
      "v": 127
    },
    {
      "midi": 49,
      "hit": false,
      "t": 89999.91000000009,
      "d": 333.3329999999987,
      "v": 127
    },
    {
      "midi": 39,
      "hit": false,
      "t": 90333.24300000009,
      "d": 166.66650000000664,
      "v": 127
    },
    {
      "midi": 51,
      "hit": false,
      "t": 90333.24300000009,
      "d": 166.66650000000664,
      "v": 127
    },
    {
      "midi": 41,
      "hit": false,
      "t": 90499.9095000001,
      "d": 333.3329999999987,
      "v": 127
    },
    {
      "midi": 53,
      "hit": false,
      "t": 90499.9095000001,
      "d": 333.3329999999987,
      "v": 127
    },
    {
      "midi": 42,
      "hit": false,
      "t": 90833.2425000001,
      "d": 166.66650000000664,
      "v": 127
    },
    {
      "midi": 54,
      "hit": false,
      "t": 90833.2425000001,
      "d": 166.66650000000664,
      "v": 127
    },
    {
      "midi": 44,
      "hit": false,
      "t": 90999.9090000001,
      "d": 499.99950000000536,
      "v": 127
    },
    {
      "midi": 56,
      "hit": false,
      "t": 90999.9090000001,
      "d": 499.99950000000536,
      "v": 127
    },
    {
      "midi": 80,
      "hit": false,
      "t": 91499.90850000008,
      "d": 333.3329999999987,
      "v": 127
    },
    {
      "midi": 56,
      "hit": false,
      "t": 91499.9085000001,
      "d": 499.99950000000536,
      "v": 127
    },
    {
      "midi": 60,
      "hit": false,
      "t": 91499.9085000001,
      "d": 499.99950000000536,
      "v": 127
    },
    {
      "midi": 63,
      "hit": false,
      "t": 91499.9085000001,
      "d": 499.99950000000536,
      "v": 127
    },
    {
      "midi": 66,
      "hit": false,
      "t": 91499.9085000001,
      "d": 499.99950000000536,
      "v": 127
    },
    {
      "midi": 80,
      "hit": false,
      "t": 91833.24150000008,
      "d": 166.66650000000664,
      "v": 127
    },
    {
      "midi": 77,
      "hit": false,
      "t": 91999.90800000008,
      "d": 499.99950000000536,
      "v": 127
    },
    {
      "midi": 80,
      "hit": false,
      "t": 91999.90800000008,
      "d": 499.99950000000536,
      "v": 127
    },
    {
      "midi": 85,
      "hit": false,
      "t": 91999.90800000008,
      "d": 499.99950000000536,
      "v": 127
    },
    {
      "midi": 49,
      "hit": false,
      "t": 91999.90800000011,
      "d": 333.3329999999987,
      "v": 127
    },
    {
      "midi": 56,
      "hit": false,
      "t": 92333.24100000011,
      "d": 166.66650000000664,
      "v": 127
    },
    {
      "midi": 61,
      "hit": false,
      "t": 92333.24100000011,
      "d": 166.66650000000664,
      "v": 127
    },
    {
      "midi": 65,
      "hit": false,
      "t": 92333.24100000011,
      "d": 166.66650000000664,
      "v": 127
    },
    {
      "midi": 77,
      "hit": false,
      "t": 92499.90750000009,
      "d": 499.99950000000536,
      "v": 127
    },
    {
      "midi": 80,
      "hit": false,
      "t": 92499.90750000009,
      "d": 499.99950000000536,
      "v": 127
    },
    {
      "midi": 85,
      "hit": false,
      "t": 92499.90750000009,
      "d": 499.99950000000536,
      "v": 127
    },
    {
      "midi": 56,
      "hit": false,
      "t": 92499.90750000012,
      "d": 333.3329999999987,
      "v": 127
    },
    {
      "midi": 61,
      "hit": false,
      "t": 92499.90750000012,
      "d": 333.3329999999987,
      "v": 127
    },
    {
      "midi": 65,
      "hit": false,
      "t": 92499.90750000012,
      "d": 333.3329999999987,
      "v": 127
    },
    {
      "midi": 56,
      "hit": false,
      "t": 92833.24050000012,
      "d": 166.66650000000664,
      "v": 127
    },
    {
      "midi": 61,
      "hit": false,
      "t": 92833.24050000012,
      "d": 166.66650000000664,
      "v": 127
    },
    {
      "midi": 65,
      "hit": false,
      "t": 92833.24050000012,
      "d": 166.66650000000664,
      "v": 127
    },
    {
      "midi": 78,
      "hit": false,
      "t": 92999.9070000001,
      "d": 499.99950000000536,
      "v": 127
    },
    {
      "midi": 80,
      "hit": false,
      "t": 92999.9070000001,
      "d": 499.99950000000536,
      "v": 127
    },
    {
      "midi": 84,
      "hit": false,
      "t": 92999.9070000001,
      "d": 499.99950000000536,
      "v": 127
    },
    {
      "midi": 51,
      "hit": false,
      "t": 92999.90700000012,
      "d": 333.3329999999987,
      "v": 127
    },
    {
      "midi": 56,
      "hit": false,
      "t": 93333.24000000012,
      "d": 166.66650000000664,
      "v": 127
    },
    {
      "midi": 60,
      "hit": false,
      "t": 93333.24000000012,
      "d": 166.66650000000664,
      "v": 127
    },
    {
      "midi": 66,
      "hit": false,
      "t": 93333.24000000012,
      "d": 166.66650000000664,
      "v": 127
    },
    {
      "midi": 78,
      "hit": false,
      "t": 93499.9065000001,
      "d": 499.99950000000536,
      "v": 127
    },
    {
      "midi": 80,
      "hit": false,
      "t": 93499.9065000001,
      "d": 499.99950000000536,
      "v": 127
    },
    {
      "midi": 84,
      "hit": false,
      "t": 93499.9065000001,
      "d": 499.99950000000536,
      "v": 127
    },
    {
      "midi": 56,
      "hit": false,
      "t": 93499.90650000013,
      "d": 333.3329999999987,
      "v": 127
    },
    {
      "midi": 60,
      "hit": false,
      "t": 93499.90650000013,
      "d": 333.3329999999987,
      "v": 127
    },
    {
      "midi": 66,
      "hit": false,
      "t": 93499.90650000013,
      "d": 333.3329999999987,
      "v": 127
    },
    {
      "midi": 56,
      "hit": false,
      "t": 93833.23950000013,
      "d": 166.66650000000664,
      "v": 127
    },
    {
      "midi": 60,
      "hit": false,
      "t": 93833.23950000013,
      "d": 166.66650000000664,
      "v": 127
    },
    {
      "midi": 66,
      "hit": false,
      "t": 93833.23950000013,
      "d": 166.66650000000664,
      "v": 127
    },
    {
      "midi": 73,
      "hit": false,
      "t": 93999.9060000001,
      "d": 499.99950000000536,
      "v": 127
    },
    {
      "midi": 79,
      "hit": false,
      "t": 93999.9060000001,
      "d": 499.99950000000536,
      "v": 127
    },
    {
      "midi": 82,
      "hit": false,
      "t": 93999.9060000001,
      "d": 499.99950000000536,
      "v": 127
    },
    {
      "midi": 52,
      "hit": false,
      "t": 93999.90600000013,
      "d": 333.3329999999987,
      "v": 127
    },
    {
      "midi": 58,
      "hit": false,
      "t": 94333.23900000013,
      "d": 166.66650000000664,
      "v": 127
    },
    {
      "midi": 61,
      "hit": false,
      "t": 94333.23900000013,
      "d": 166.66650000000664,
      "v": 127
    },
    {
      "midi": 64,
      "hit": false,
      "t": 94333.23900000013,
      "d": 166.66650000000664,
      "v": 127
    },
    {
      "midi": 73,
      "hit": false,
      "t": 94499.90550000011,
      "d": 499.99950000000536,
      "v": 127
    },
    {
      "midi": 79,
      "hit": false,
      "t": 94499.90550000011,
      "d": 499.99950000000536,
      "v": 127
    },
    {
      "midi": 82,
      "hit": false,
      "t": 94499.90550000011,
      "d": 499.99950000000536,
      "v": 127
    },
    {
      "midi": 58,
      "hit": false,
      "t": 94499.90550000014,
      "d": 333.3329999999987,
      "v": 127
    },
    {
      "midi": 61,
      "hit": false,
      "t": 94499.90550000014,
      "d": 333.3329999999987,
      "v": 127
    },
    {
      "midi": 64,
      "hit": false,
      "t": 94499.90550000014,
      "d": 333.3329999999987,
      "v": 127
    },
    {
      "midi": 58,
      "hit": false,
      "t": 94833.23850000014,
      "d": 166.66650000000664,
      "v": 127
    },
    {
      "midi": 61,
      "hit": false,
      "t": 94833.23850000014,
      "d": 166.66650000000664,
      "v": 127
    },
    {
      "midi": 64,
      "hit": false,
      "t": 94833.23850000014,
      "d": 166.66650000000664,
      "v": 127
    },
    {
      "midi": 72,
      "hit": false,
      "t": 94999.90500000012,
      "d": 499.99950000000536,
      "v": 127
    },
    {
      "midi": 77,
      "hit": false,
      "t": 94999.90500000012,
      "d": 499.99950000000536,
      "v": 127
    },
    {
      "midi": 80,
      "hit": false,
      "t": 94999.90500000012,
      "d": 499.99950000000536,
      "v": 127
    },
    {
      "midi": 53,
      "hit": false,
      "t": 94999.90500000014,
      "d": 333.3329999999987,
      "v": 127
    },
    {
      "midi": 53,
      "hit": false,
      "t": 95333.23800000014,
      "d": 166.66650000000664,
      "v": 127
    },
    {
      "midi": 56,
      "hit": false,
      "t": 95333.23800000014,
      "d": 166.66650000000664,
      "v": 127
    },
    {
      "midi": 60,
      "hit": false,
      "t": 95333.23800000014,
      "d": 166.66650000000664,
      "v": 127
    },
    {
      "midi": 72,
      "hit": false,
      "t": 95499.90450000012,
      "d": 499.99950000000536,
      "v": 127
    },
    {
      "midi": 77,
      "hit": false,
      "t": 95499.90450000012,
      "d": 499.99950000000536,
      "v": 127
    },
    {
      "midi": 80,
      "hit": false,
      "t": 95499.90450000012,
      "d": 499.99950000000536,
      "v": 127
    },
    {
      "midi": 53,
      "hit": false,
      "t": 95499.90450000015,
      "d": 333.3329999999987,
      "v": 127
    },
    {
      "midi": 56,
      "hit": false,
      "t": 95499.90450000015,
      "d": 333.3329999999987,
      "v": 127
    },
    {
      "midi": 60,
      "hit": false,
      "t": 95499.90450000015,
      "d": 333.3329999999987,
      "v": 127
    },
    {
      "midi": 53,
      "hit": false,
      "t": 95833.23750000015,
      "d": 166.66650000000664,
      "v": 127
    },
    {
      "midi": 56,
      "hit": false,
      "t": 95833.23750000015,
      "d": 166.66650000000664,
      "v": 127
    },
    {
      "midi": 60,
      "hit": false,
      "t": 95833.23750000015,
      "d": 166.66650000000664,
      "v": 127
    },
    {
      "midi": 72,
      "hit": false,
      "t": 95999.90400000013,
      "d": 499.99950000000536,
      "v": 127
    },
    {
      "midi": 75,
      "hit": false,
      "t": 95999.90400000013,
      "d": 499.99950000000536,
      "v": 127
    },
    {
      "midi": 79,
      "hit": false,
      "t": 95999.90400000013,
      "d": 499.99950000000536,
      "v": 127
    },
    {
      "midi": 43,
      "hit": false,
      "t": 95999.90400000016,
      "d": 499.99950000000536,
      "v": 127
    },
    {
      "midi": 55,
      "hit": false,
      "t": 95999.90400000016,
      "d": 499.99950000000536,
      "v": 127
    },
    {
      "midi": 72,
      "hit": false,
      "t": 96499.90350000013,
      "d": 499.99950000000536,
      "v": 127
    },
    {
      "midi": 75,
      "hit": false,
      "t": 96499.90350000013,
      "d": 499.99950000000536,
      "v": 127
    },
    {
      "midi": 79,
      "hit": false,
      "t": 96499.90350000013,
      "d": 499.99950000000536,
      "v": 127
    },
    {
      "midi": 43,
      "hit": false,
      "t": 96499.90350000016,
      "d": 499.99950000000536,
      "v": 127
    },
    {
      "midi": 55,
      "hit": false,
      "t": 96499.90350000016,
      "d": 499.99950000000536,
      "v": 127
    },
    {
      "midi": 72,
      "hit": false,
      "t": 96999.90300000014,
      "d": 499.99950000000536,
      "v": 127
    },
    {
      "midi": 77,
      "hit": false,
      "t": 96999.90300000014,
      "d": 499.99950000000536,
      "v": 127
    },
    {
      "midi": 80,
      "hit": false,
      "t": 96999.90300000014,
      "d": 499.99950000000536,
      "v": 127
    },
    {
      "midi": 41,
      "hit": false,
      "t": 96999.90300000017,
      "d": 499.99950000000536,
      "v": 127
    },
    {
      "midi": 53,
      "hit": false,
      "t": 96999.90300000017,
      "d": 499.99950000000536,
      "v": 127
    },
    {
      "midi": 72,
      "hit": false,
      "t": 97499.90250000014,
      "d": 499.99950000000536,
      "v": 127
    },
    {
      "midi": 75,
      "hit": false,
      "t": 97499.90250000014,
      "d": 499.99950000000536,
      "v": 127
    },
    {
      "midi": 80,
      "hit": false,
      "t": 97499.90250000014,
      "d": 499.99950000000536,
      "v": 127
    },
    {
      "midi": 42,
      "hit": false,
      "t": 97499.90250000017,
      "d": 499.99950000000536,
      "v": 127
    },
    {
      "midi": 54,
      "hit": false,
      "t": 97499.90250000017,
      "d": 499.99950000000536,
      "v": 127
    },
    {
      "midi": 71,
      "hit": false,
      "t": 97999.90200000015,
      "d": 333.3329999999987,
      "v": 127
    },
    {
      "midi": 74,
      "hit": false,
      "t": 97999.90200000015,
      "d": 333.3329999999987,
      "v": 127
    },
    {
      "midi": 79,
      "hit": false,
      "t": 97999.90200000015,
      "d": 333.3329999999987,
      "v": 127
    },
    {
      "midi": 43,
      "hit": false,
      "t": 97999.90200000018,
      "d": 499.99950000000536,
      "v": 127
    },
    {
      "midi": 55,
      "hit": false,
      "t": 97999.90200000018,
      "d": 499.99950000000536,
      "v": 127
    },
    {
      "midi": 79,
      "hit": false,
      "t": 98333.23500000015,
      "d": 166.66650000000664,
      "v": 127
    },
    {
      "midi": 79,
      "hit": false,
      "t": 98499.90150000015,
      "d": 333.3329999999987,
      "v": 127
    },
    {
      "midi": 41,
      "hit": false,
      "t": 98499.90150000018,
      "d": 499.99950000000536,
      "v": 127
    },
    {
      "midi": 53,
      "hit": false,
      "t": 98499.90150000018,
      "d": 499.99950000000536,
      "v": 127
    },
    {
      "midi": 79,
      "hit": false,
      "t": 98833.23450000015,
      "d": 166.66650000000664,
      "v": 127
    },
    {
      "midi": 78,
      "hit": false,
      "t": 98999.90100000016,
      "d": 333.3329999999987,
      "v": 127
    },
    {
      "midi": 38,
      "hit": false,
      "t": 98999.90100000019,
      "d": 499.99950000000536,
      "v": 127
    },
    {
      "midi": 50,
      "hit": false,
      "t": 98999.90100000019,
      "d": 499.99950000000536,
      "v": 127
    },
    {
      "midi": 78,
      "hit": false,
      "t": 99333.23400000016,
      "d": 166.66650000000664,
      "v": 127
    },
    {
      "midi": 78,
      "hit": false,
      "t": 99499.90050000016,
      "d": 333.3329999999987,
      "v": 127
    },
    {
      "midi": 43,
      "hit": false,
      "t": 99499.90050000019,
      "d": 499.99950000000536,
      "v": 127
    },
    {
      "midi": 55,
      "hit": false,
      "t": 99499.90050000019,
      "d": 499.99950000000536,
      "v": 127
    },
    {
      "midi": 78,
      "hit": false,
      "t": 99833.23350000016,
      "d": 166.66650000000664,
      "v": 127
    },
    {
      "midi": 76,
      "hit": false,
      "t": 99999.90000000017,
      "d": 499.99950000000536,
      "v": 127
    },
    {
      "midi": 88,
      "hit": false,
      "t": 99999.90000000017,
      "d": 499.99950000000536,
      "v": 127
    },
    {
      "midi": 48,
      "hit": false,
      "t": 99999.9000000002,
      "d": 333.3329999999987,
      "v": 127
    },
    {
      "midi": 60,
      "hit": false,
      "t": 99999.9000000002,
      "d": 333.3329999999987,
      "v": 127
    },
    {
      "midi": 55,
      "hit": false,
      "t": 100333.2330000002,
      "d": 166.66650000000664,
      "v": 127
    },
    {
      "midi": 60,
      "hit": false,
      "t": 100333.2330000002,
      "d": 166.66650000000664,
      "v": 127
    },
    {
      "midi": 64,
      "hit": false,
      "t": 100333.2330000002,
      "d": 166.66650000000664,
      "v": 127
    },
    {
      "midi": 76,
      "hit": false,
      "t": 100499.89950000017,
      "d": 499.99950000000536,
      "v": 127
    },
    {
      "midi": 88,
      "hit": false,
      "t": 100499.89950000017,
      "d": 499.99950000000536,
      "v": 127
    },
    {
      "midi": 47,
      "hit": false,
      "t": 100499.8995000002,
      "d": 333.3329999999987,
      "v": 127
    },
    {
      "midi": 59,
      "hit": false,
      "t": 100499.8995000002,
      "d": 333.3329999999987,
      "v": 127
    },
    {
      "midi": 56,
      "hit": false,
      "t": 100833.2325000002,
      "d": 166.66650000000664,
      "v": 127
    },
    {
      "midi": 59,
      "hit": false,
      "t": 100833.2325000002,
      "d": 166.66650000000664,
      "v": 127
    },
    {
      "midi": 62,
      "hit": false,
      "t": 100833.2325000002,
      "d": 166.66650000000664,
      "v": 127
    },
    {
      "midi": 76,
      "hit": false,
      "t": 100999.89900000018,
      "d": 499.99950000000536,
      "v": 127
    },
    {
      "midi": 88,
      "hit": false,
      "t": 100999.89900000018,
      "d": 499.99950000000536,
      "v": 127
    },
    {
      "midi": 45,
      "hit": false,
      "t": 100999.89900000021,
      "d": 333.3329999999987,
      "v": 127
    },
    {
      "midi": 57,
      "hit": false,
      "t": 100999.89900000021,
      "d": 333.3329999999987,
      "v": 127
    },
    {
      "midi": 52,
      "hit": false,
      "t": 101333.23200000021,
      "d": 166.66650000000664,
      "v": 127
    },
    {
      "midi": 57,
      "hit": false,
      "t": 101333.23200000021,
      "d": 166.66650000000664,
      "v": 127
    },
    {
      "midi": 60,
      "hit": false,
      "t": 101333.23200000021,
      "d": 166.66650000000664,
      "v": 127
    },
    {
      "midi": 76,
      "hit": false,
      "t": 101499.89850000018,
      "d": 499.99950000000536,
      "v": 127
    },
    {
      "midi": 88,
      "hit": false,
      "t": 101499.89850000018,
      "d": 499.99950000000536,
      "v": 127
    },
    {
      "midi": 43,
      "hit": false,
      "t": 101499.89850000021,
      "d": 333.3329999999987,
      "v": 127
    },
    {
      "midi": 55,
      "hit": false,
      "t": 101499.89850000021,
      "d": 333.3329999999987,
      "v": 127
    },
    {
      "midi": 55,
      "hit": false,
      "t": 101833.23150000021,
      "d": 166.66650000000664,
      "v": 127
    },
    {
      "midi": 60,
      "hit": false,
      "t": 101833.23150000021,
      "d": 166.66650000000664,
      "v": 127
    },
    {
      "midi": 64,
      "hit": false,
      "t": 101833.23150000021,
      "d": 166.66650000000664,
      "v": 127
    },
    {
      "midi": 79,
      "hit": false,
      "t": 101999.89800000019,
      "d": 499.99950000000536,
      "v": 127
    },
    {
      "midi": 91,
      "hit": false,
      "t": 101999.89800000019,
      "d": 499.99950000000536,
      "v": 127
    },
    {
      "midi": 43,
      "hit": false,
      "t": 101999.89800000022,
      "d": 333.3329999999987,
      "v": 127
    },
    {
      "midi": 55,
      "hit": false,
      "t": 101999.89800000022,
      "d": 333.3329999999987,
      "v": 127
    },
    {
      "midi": 55,
      "hit": false,
      "t": 102333.23100000022,
      "d": 166.66650000000664,
      "v": 127
    },
    {
      "midi": 59,
      "hit": false,
      "t": 102333.23100000022,
      "d": 166.66650000000664,
      "v": 127
    },
    {
      "midi": 65,
      "hit": false,
      "t": 102333.23100000022,
      "d": 166.66650000000664,
      "v": 127
    },
    {
      "midi": 78,
      "hit": false,
      "t": 102499.8975000002,
      "d": 499.99950000000536,
      "v": 127
    },
    {
      "midi": 90,
      "hit": false,
      "t": 102499.8975000002,
      "d": 499.99950000000536,
      "v": 127
    },
    {
      "midi": 45,
      "hit": false,
      "t": 102499.89750000022,
      "d": 333.3329999999987,
      "v": 127
    },
    {
      "midi": 57,
      "hit": false,
      "t": 102499.89750000022,
      "d": 333.3329999999987,
      "v": 127
    },
    {
      "midi": 60,
      "hit": false,
      "t": 102833.23050000022,
      "d": 166.66650000000664,
      "v": 127
    },
    {
      "midi": 62,
      "hit": false,
      "t": 102833.23050000022,
      "d": 166.66650000000664,
      "v": 127
    },
    {
      "midi": 66,
      "hit": false,
      "t": 102833.23050000022,
      "d": 166.66650000000664,
      "v": 127
    },
    {
      "midi": 77,
      "hit": false,
      "t": 102999.8970000002,
      "d": 499.99950000000536,
      "v": 127
    },
    {
      "midi": 89,
      "hit": false,
      "t": 102999.8970000002,
      "d": 499.99950000000536,
      "v": 127
    },
    {
      "midi": 47,
      "hit": false,
      "t": 102999.89700000023,
      "d": 333.3329999999987,
      "v": 127
    },
    {
      "midi": 59,
      "hit": false,
      "t": 102999.89700000023,
      "d": 333.3329999999987,
      "v": 127
    },
    {
      "midi": 55,
      "hit": false,
      "t": 103333.23000000023,
      "d": 166.66650000000664,
      "v": 127
    },
    {
      "midi": 62,
      "hit": false,
      "t": 103333.23000000023,
      "d": 166.66650000000664,
      "v": 127
    },
    {
      "midi": 65,
      "hit": false,
      "t": 103333.23000000023,
      "d": 166.66650000000664,
      "v": 127
    },
    {
      "midi": 76,
      "hit": false,
      "t": 103499.8965000002,
      "d": 499.99950000000536,
      "v": 127
    },
    {
      "midi": 88,
      "hit": false,
      "t": 103499.8965000002,
      "d": 499.99950000000536,
      "v": 127
    },
    {
      "midi": 48,
      "hit": false,
      "t": 103499.89650000024,
      "d": 333.3329999999987,
      "v": 127
    },
    {
      "midi": 60,
      "hit": false,
      "t": 103499.89650000024,
      "d": 333.3329999999987,
      "v": 127
    },
    {
      "midi": 55,
      "hit": false,
      "t": 103833.22950000023,
      "d": 166.66650000000664,
      "v": 127
    },
    {
      "midi": 60,
      "hit": false,
      "t": 103833.22950000023,
      "d": 166.66650000000664,
      "v": 127
    },
    {
      "midi": 64,
      "hit": false,
      "t": 103833.22950000023,
      "d": 166.66650000000664,
      "v": 127
    },
    {
      "midi": 74,
      "hit": false,
      "t": 103999.89600000021,
      "d": 499.99950000000536,
      "v": 127
    },
    {
      "midi": 86,
      "hit": false,
      "t": 103999.89600000021,
      "d": 499.99950000000536,
      "v": 127
    },
    {
      "midi": 41,
      "hit": false,
      "t": 103999.89600000024,
      "d": 333.3329999999987,
      "v": 127
    },
    {
      "midi": 53,
      "hit": false,
      "t": 103999.89600000024,
      "d": 333.3329999999987,
      "v": 127
    },
    {
      "midi": 53,
      "hit": false,
      "t": 104333.22900000024,
      "d": 166.66650000000664,
      "v": 127
    },
    {
      "midi": 57,
      "hit": false,
      "t": 104333.22900000024,
      "d": 166.66650000000664,
      "v": 127
    },
    {
      "midi": 62,
      "hit": false,
      "t": 104333.22900000024,
      "d": 166.66650000000664,
      "v": 127
    },
    {
      "midi": 74,
      "hit": false,
      "t": 104499.89550000022,
      "d": 499.99950000000536,
      "v": 127
    },
    {
      "midi": 86,
      "hit": false,
      "t": 104499.89550000022,
      "d": 499.99950000000536,
      "v": 127
    },
    {
      "midi": 53,
      "hit": false,
      "t": 104499.89550000025,
      "d": 333.3329999999987,
      "v": 127
    },
    {
      "midi": 57,
      "hit": false,
      "t": 104499.89550000025,
      "d": 333.3329999999987,
      "v": 127
    },
    {
      "midi": 62,
      "hit": false,
      "t": 104499.89550000025,
      "d": 333.3329999999987,
      "v": 127
    },
    {
      "midi": 53,
      "hit": false,
      "t": 104833.22850000024,
      "d": 166.66650000000664,
      "v": 127
    },
    {
      "midi": 57,
      "hit": false,
      "t": 104833.22850000024,
      "d": 166.66650000000664,
      "v": 127
    },
    {
      "midi": 62,
      "hit": false,
      "t": 104833.22850000024,
      "d": 166.66650000000664,
      "v": 127
    },
    {
      "midi": 74,
      "hit": false,
      "t": 104999.89500000022,
      "d": 166.66650000000664,
      "v": 127
    },
    {
      "midi": 86,
      "hit": false,
      "t": 104999.89500000022,
      "d": 166.66650000000664,
      "v": 127
    },
    {
      "midi": 43,
      "hit": false,
      "t": 104999.89500000025,
      "d": 333.3329999999987,
      "v": 127
    },
    {
      "midi": 55,
      "hit": false,
      "t": 104999.89500000025,
      "d": 333.3329999999987,
      "v": 127
    },
    {
      "midi": 76,
      "hit": false,
      "t": 105166.56150000023,
      "d": 666.6659999999974,
      "v": 127
    },
    {
      "midi": 88,
      "hit": false,
      "t": 105166.56150000023,
      "d": 666.6659999999974,
      "v": 127
    },
    {
      "midi": 55,
      "hit": false,
      "t": 105333.22800000025,
      "d": 166.66650000000664,
      "v": 127
    },
    {
      "midi": 59,
      "hit": false,
      "t": 105333.22800000025,
      "d": 166.66650000000664,
      "v": 127
    },
    {
      "midi": 65,
      "hit": false,
      "t": 105333.22800000025,
      "d": 166.66650000000664,
      "v": 127
    },
    {
      "midi": 55,
      "hit": false,
      "t": 105499.89450000026,
      "d": 333.3329999999987,
      "v": 127
    },
    {
      "midi": 59,
      "hit": false,
      "t": 105499.89450000026,
      "d": 333.3329999999987,
      "v": 127
    },
    {
      "midi": 65,
      "hit": false,
      "t": 105499.89450000026,
      "d": 333.3329999999987,
      "v": 127
    },
    {
      "midi": 74,
      "hit": false,
      "t": 105833.22750000023,
      "d": 166.66650000000664,
      "v": 127
    },
    {
      "midi": 86,
      "hit": false,
      "t": 105833.22750000023,
      "d": 166.66650000000664,
      "v": 127
    },
    {
      "midi": 55,
      "hit": false,
      "t": 105833.22750000026,
      "d": 166.66650000000664,
      "v": 127
    },
    {
      "midi": 59,
      "hit": false,
      "t": 105833.22750000026,
      "d": 166.66650000000664,
      "v": 127
    },
    {
      "midi": 65,
      "hit": false,
      "t": 105833.22750000026,
      "d": 166.66650000000664,
      "v": 127
    },
    {
      "midi": 72,
      "hit": false,
      "t": 105999.89400000023,
      "d": 166.66650000000664,
      "v": 127
    },
    {
      "midi": 48,
      "hit": false,
      "t": 105999.89400000026,
      "d": 499.99950000000536,
      "v": 127
    },
    {
      "midi": 60,
      "hit": false,
      "t": 105999.89400000026,
      "d": 499.99950000000536,
      "v": 127
    },
    {
      "midi": 84,
      "hit": false,
      "t": 106166.56050000024,
      "d": 666.6659999999974,
      "v": 127
    },
    {
      "midi": 54,
      "hit": false,
      "t": 106499.89350000027,
      "d": 499.99950000000536,
      "v": 127
    },
    {
      "midi": 57,
      "hit": false,
      "t": 106499.89350000027,
      "d": 499.99950000000536,
      "v": 127
    },
    {
      "midi": 60,
      "hit": false,
      "t": 106499.89350000027,
      "d": 499.99950000000536,
      "v": 127
    },
    {
      "midi": 63,
      "hit": false,
      "t": 106499.89350000027,
      "d": 499.99950000000536,
      "v": 127
    },
    {
      "midi": 81,
      "hit": false,
      "t": 106833.22650000024,
      "d": 166.66650000000664,
      "v": 127
    },
    {
      "midi": 79,
      "hit": false,
      "t": 106999.89300000024,
      "d": 499.99950000000536,
      "v": 127
    },
    {
      "midi": 55,
      "hit": false,
      "t": 106999.89300000027,
      "d": 499.99950000000536,
      "v": 127
    },
    {
      "midi": 60,
      "hit": false,
      "t": 106999.89300000027,
      "d": 499.99950000000536,
      "v": 127
    },
    {
      "midi": 64,
      "hit": false,
      "t": 106999.89300000027,
      "d": 499.99950000000536,
      "v": 127
    },
    {
      "midi": 79,
      "hit": false,
      "t": 107499.89250000025,
      "d": 333.3329999999987,
      "v": 127
    },
    {
      "midi": 91,
      "hit": false,
      "t": 107499.89250000025,
      "d": 333.3329999999987,
      "v": 127
    },
    {
      "midi": 55,
      "hit": false,
      "t": 107499.89250000028,
      "d": 499.99950000000536,
      "v": 127
    },
    {
      "midi": 59,
      "hit": false,
      "t": 107499.89250000028,
      "d": 499.99950000000536,
      "v": 127
    },
    {
      "midi": 62,
      "hit": false,
      "t": 107499.89250000028,
      "d": 499.99950000000536,
      "v": 127
    },
    {
      "midi": 65,
      "hit": false,
      "t": 107499.89250000028,
      "d": 499.99950000000536,
      "v": 127
    },
    {
      "midi": 77,
      "hit": false,
      "t": 107833.22550000025,
      "d": 166.66650000000664,
      "v": 127
    },
    {
      "midi": 89,
      "hit": false,
      "t": 107833.22550000025,
      "d": 166.66650000000664,
      "v": 127
    },
    {
      "midi": 76,
      "hit": false,
      "t": 107999.89200000025,
      "d": 499.99950000000536,
      "v": 127
    },
    {
      "midi": 88,
      "hit": false,
      "t": 107999.89200000025,
      "d": 499.99950000000536,
      "v": 127
    },
    {
      "midi": 48,
      "hit": false,
      "t": 107999.89200000028,
      "d": 333.3329999999987,
      "v": 127
    },
    {
      "midi": 60,
      "hit": false,
      "t": 107999.89200000028,
      "d": 333.3329999999987,
      "v": 127
    },
    {
      "midi": 55,
      "hit": false,
      "t": 108333.22500000028,
      "d": 166.66650000000664,
      "v": 127
    },
    {
      "midi": 60,
      "hit": false,
      "t": 108333.22500000028,
      "d": 166.66650000000664,
      "v": 127
    },
    {
      "midi": 64,
      "hit": false,
      "t": 108333.22500000028,
      "d": 166.66650000000664,
      "v": 127
    },
    {
      "midi": 76,
      "hit": false,
      "t": 108499.89150000026,
      "d": 499.99950000000536,
      "v": 127
    },
    {
      "midi": 88,
      "hit": false,
      "t": 108499.89150000026,
      "d": 499.99950000000536,
      "v": 127
    },
    {
      "midi": 47,
      "hit": false,
      "t": 108499.89150000029,
      "d": 333.3329999999987,
      "v": 127
    },
    {
      "midi": 59,
      "hit": false,
      "t": 108499.89150000029,
      "d": 333.3329999999987,
      "v": 127
    },
    {
      "midi": 56,
      "hit": false,
      "t": 108833.22450000029,
      "d": 166.66650000000664,
      "v": 127
    },
    {
      "midi": 59,
      "hit": false,
      "t": 108833.22450000029,
      "d": 166.66650000000664,
      "v": 127
    },
    {
      "midi": 62,
      "hit": false,
      "t": 108833.22450000029,
      "d": 166.66650000000664,
      "v": 127
    },
    {
      "midi": 76,
      "hit": false,
      "t": 108999.89100000027,
      "d": 499.99950000000536,
      "v": 127
    },
    {
      "midi": 88,
      "hit": false,
      "t": 108999.89100000027,
      "d": 499.99950000000536,
      "v": 127
    },
    {
      "midi": 45,
      "hit": false,
      "t": 108999.8910000003,
      "d": 333.3329999999987,
      "v": 127
    },
    {
      "midi": 57,
      "hit": false,
      "t": 108999.8910000003,
      "d": 333.3329999999987,
      "v": 127
    },
    {
      "midi": 52,
      "hit": false,
      "t": 109333.2240000003,
      "d": 166.66650000000664,
      "v": 127
    },
    {
      "midi": 57,
      "hit": false,
      "t": 109333.2240000003,
      "d": 166.66650000000664,
      "v": 127
    },
    {
      "midi": 60,
      "hit": false,
      "t": 109333.2240000003,
      "d": 166.66650000000664,
      "v": 127
    },
    {
      "midi": 76,
      "hit": false,
      "t": 109499.89050000027,
      "d": 499.99950000000536,
      "v": 127
    },
    {
      "midi": 88,
      "hit": false,
      "t": 109499.89050000027,
      "d": 499.99950000000536,
      "v": 127
    },
    {
      "midi": 43,
      "hit": false,
      "t": 109499.8905000003,
      "d": 333.3329999999987,
      "v": 127
    },
    {
      "midi": 55,
      "hit": false,
      "t": 109499.8905000003,
      "d": 333.3329999999987,
      "v": 127
    },
    {
      "midi": 55,
      "hit": false,
      "t": 109833.2235000003,
      "d": 166.66650000000664,
      "v": 127
    },
    {
      "midi": 60,
      "hit": false,
      "t": 109833.2235000003,
      "d": 166.66650000000664,
      "v": 127
    },
    {
      "midi": 64,
      "hit": false,
      "t": 109833.2235000003,
      "d": 166.66650000000664,
      "v": 127
    },
    {
      "midi": 79,
      "hit": false,
      "t": 109999.89000000028,
      "d": 499.99950000000536,
      "v": 127
    },
    {
      "midi": 91,
      "hit": false,
      "t": 109999.89000000028,
      "d": 499.99950000000536,
      "v": 127
    },
    {
      "midi": 43,
      "hit": false,
      "t": 109999.8900000003,
      "d": 333.3329999999987,
      "v": 127
    },
    {
      "midi": 55,
      "hit": false,
      "t": 109999.8900000003,
      "d": 333.3329999999987,
      "v": 127
    },
    {
      "midi": 55,
      "hit": false,
      "t": 110333.2230000003,
      "d": 166.66650000000664,
      "v": 127
    },
    {
      "midi": 59,
      "hit": false,
      "t": 110333.2230000003,
      "d": 166.66650000000664,
      "v": 127
    },
    {
      "midi": 65,
      "hit": false,
      "t": 110333.2230000003,
      "d": 166.66650000000664,
      "v": 127
    },
    {
      "midi": 78,
      "hit": false,
      "t": 110499.88950000028,
      "d": 499.99950000000536,
      "v": 127
    },
    {
      "midi": 90,
      "hit": false,
      "t": 110499.88950000028,
      "d": 499.99950000000536,
      "v": 127
    },
    {
      "midi": 45,
      "hit": false,
      "t": 110499.88950000031,
      "d": 333.3329999999987,
      "v": 127
    },
    {
      "midi": 57,
      "hit": false,
      "t": 110499.88950000031,
      "d": 333.3329999999987,
      "v": 127
    },
    {
      "midi": 60,
      "hit": false,
      "t": 110833.22250000031,
      "d": 166.66650000000664,
      "v": 127
    },
    {
      "midi": 62,
      "hit": false,
      "t": 110833.22250000031,
      "d": 166.66650000000664,
      "v": 127
    },
    {
      "midi": 66,
      "hit": false,
      "t": 110833.22250000031,
      "d": 166.66650000000664,
      "v": 127
    },
    {
      "midi": 77,
      "hit": false,
      "t": 110999.88900000029,
      "d": 499.99950000000536,
      "v": 127
    },
    {
      "midi": 89,
      "hit": false,
      "t": 110999.88900000029,
      "d": 499.99950000000536,
      "v": 127
    },
    {
      "midi": 47,
      "hit": false,
      "t": 110999.88900000032,
      "d": 333.3329999999987,
      "v": 127
    },
    {
      "midi": 59,
      "hit": false,
      "t": 110999.88900000032,
      "d": 333.3329999999987,
      "v": 127
    },
    {
      "midi": 50,
      "hit": false,
      "t": 111333.22200000031,
      "d": 166.66650000000664,
      "v": 127
    },
    {
      "midi": 53,
      "hit": false,
      "t": 111333.22200000031,
      "d": 166.66650000000664,
      "v": 127
    },
    {
      "midi": 55,
      "hit": false,
      "t": 111333.22200000031,
      "d": 166.66650000000664,
      "v": 127
    },
    {
      "midi": 76,
      "hit": false,
      "t": 111499.88850000029,
      "d": 499.99950000000536,
      "v": 127
    },
    {
      "midi": 88,
      "hit": false,
      "t": 111499.88850000029,
      "d": 499.99950000000536,
      "v": 127
    },
    {
      "midi": 48,
      "hit": false,
      "t": 111499.88850000032,
      "d": 333.3329999999987,
      "v": 127
    },
    {
      "midi": 60,
      "hit": false,
      "t": 111499.88850000032,
      "d": 333.3329999999987,
      "v": 127
    },
    {
      "midi": 55,
      "hit": false,
      "t": 111833.22150000032,
      "d": 166.66650000000664,
      "v": 127
    },
    {
      "midi": 60,
      "hit": false,
      "t": 111833.22150000032,
      "d": 166.66650000000664,
      "v": 127
    },
    {
      "midi": 64,
      "hit": false,
      "t": 111833.22150000032,
      "d": 166.66650000000664,
      "v": 127
    },
    {
      "midi": 74,
      "hit": false,
      "t": 111999.8880000003,
      "d": 499.99950000000536,
      "v": 127
    },
    {
      "midi": 86,
      "hit": false,
      "t": 111999.8880000003,
      "d": 499.99950000000536,
      "v": 127
    },
    {
      "midi": 41,
      "hit": false,
      "t": 111999.88800000033,
      "d": 333.3329999999987,
      "v": 127
    },
    {
      "midi": 53,
      "hit": false,
      "t": 111999.88800000033,
      "d": 333.3329999999987,
      "v": 127
    },
    {
      "midi": 53,
      "hit": false,
      "t": 112333.22100000033,
      "d": 166.66650000000664,
      "v": 127
    },
    {
      "midi": 57,
      "hit": false,
      "t": 112333.22100000033,
      "d": 166.66650000000664,
      "v": 127
    },
    {
      "midi": 62,
      "hit": false,
      "t": 112333.22100000033,
      "d": 166.66650000000664,
      "v": 127
    },
    {
      "midi": 74,
      "hit": false,
      "t": 112499.8875000003,
      "d": 499.99950000000536,
      "v": 127
    },
    {
      "midi": 86,
      "hit": false,
      "t": 112499.8875000003,
      "d": 499.99950000000536,
      "v": 127
    },
    {
      "midi": 53,
      "hit": false,
      "t": 112499.88750000033,
      "d": 333.3329999999987,
      "v": 127
    },
    {
      "midi": 57,
      "hit": false,
      "t": 112499.88750000033,
      "d": 333.3329999999987,
      "v": 127
    },
    {
      "midi": 62,
      "hit": false,
      "t": 112499.88750000033,
      "d": 333.3329999999987,
      "v": 127
    },
    {
      "midi": 53,
      "hit": false,
      "t": 112833.22050000033,
      "d": 166.66650000000664,
      "v": 127
    },
    {
      "midi": 57,
      "hit": false,
      "t": 112833.22050000033,
      "d": 166.66650000000664,
      "v": 127
    },
    {
      "midi": 62,
      "hit": false,
      "t": 112833.22050000033,
      "d": 166.66650000000664,
      "v": 127
    },
    {
      "midi": 74,
      "hit": false,
      "t": 112999.88700000031,
      "d": 166.66650000000664,
      "v": 127
    },
    {
      "midi": 86,
      "hit": false,
      "t": 112999.88700000031,
      "d": 166.66650000000664,
      "v": 127
    },
    {
      "midi": 43,
      "hit": false,
      "t": 112999.88700000034,
      "d": 333.3329999999987,
      "v": 127
    },
    {
      "midi": 55,
      "hit": false,
      "t": 112999.88700000034,
      "d": 333.3329999999987,
      "v": 127
    },
    {
      "midi": 76,
      "hit": false,
      "t": 113166.55350000031,
      "d": 666.6659999999974,
      "v": 127
    },
    {
      "midi": 88,
      "hit": false,
      "t": 113166.55350000031,
      "d": 666.6659999999974,
      "v": 127
    },
    {
      "midi": 55,
      "hit": false,
      "t": 113333.22000000034,
      "d": 166.66650000000664,
      "v": 127
    },
    {
      "midi": 59,
      "hit": false,
      "t": 113333.22000000034,
      "d": 166.66650000000664,
      "v": 127
    },
    {
      "midi": 62,
      "hit": false,
      "t": 113333.22000000034,
      "d": 166.66650000000664,
      "v": 127
    },
    {
      "midi": 65,
      "hit": false,
      "t": 113333.22000000034,
      "d": 166.66650000000664,
      "v": 127
    },
    {
      "midi": 55,
      "hit": false,
      "t": 113499.88650000034,
      "d": 333.3329999999987,
      "v": 127
    },
    {
      "midi": 59,
      "hit": false,
      "t": 113499.88650000034,
      "d": 333.3329999999987,
      "v": 127
    },
    {
      "midi": 62,
      "hit": false,
      "t": 113499.88650000034,
      "d": 333.3329999999987,
      "v": 127
    },
    {
      "midi": 65,
      "hit": false,
      "t": 113499.88650000034,
      "d": 333.3329999999987,
      "v": 127
    },
    {
      "midi": 74,
      "hit": false,
      "t": 113833.21950000031,
      "d": 166.66650000000664,
      "v": 127
    },
    {
      "midi": 86,
      "hit": false,
      "t": 113833.21950000031,
      "d": 166.66650000000664,
      "v": 127
    },
    {
      "midi": 55,
      "hit": false,
      "t": 113833.21950000034,
      "d": 166.66650000000664,
      "v": 127
    },
    {
      "midi": 59,
      "hit": false,
      "t": 113833.21950000034,
      "d": 166.66650000000664,
      "v": 127
    },
    {
      "midi": 62,
      "hit": false,
      "t": 113833.21950000034,
      "d": 166.66650000000664,
      "v": 127
    },
    {
      "midi": 65,
      "hit": false,
      "t": 113833.21950000034,
      "d": 166.66650000000664,
      "v": 127
    },
    {
      "midi": 72,
      "hit": false,
      "t": 113999.88600000032,
      "d": 999.9989999999962,
      "v": 127
    },
    {
      "midi": 84,
      "hit": false,
      "t": 113999.88600000032,
      "d": 999.9989999999962,
      "v": 127
    },
    {
      "midi": 55,
      "hit": false,
      "t": 113999.88600000035,
      "d": 333.3329999999987,
      "v": 127
    },
    {
      "midi": 60,
      "hit": false,
      "t": 113999.88600000035,
      "d": 333.3329999999987,
      "v": 127
    },
    {
      "midi": 64,
      "hit": false,
      "t": 113999.88600000035,
      "d": 333.3329999999987,
      "v": 127
    },
    {
      "midi": 43,
      "hit": false,
      "t": 114333.21900000035,
      "d": 166.66650000000664,
      "v": 127
    },
    {
      "midi": 55,
      "hit": false,
      "t": 114333.21900000035,
      "d": 166.66650000000664,
      "v": 127
    },
    {
      "midi": 45,
      "hit": false,
      "t": 114499.88550000035,
      "d": 166.66650000000664,
      "v": 127
    },
    {
      "midi": 57,
      "hit": false,
      "t": 114499.88550000035,
      "d": 166.66650000000664,
      "v": 127
    },
    {
      "midi": 43,
      "hit": false,
      "t": 114666.55200000036,
      "d": 166.66650000000664,
      "v": 127
    },
    {
      "midi": 55,
      "hit": false,
      "t": 114666.55200000036,
      "d": 166.66650000000664,
      "v": 127
    },
    {
      "midi": 40,
      "hit": false,
      "t": 114833.21850000037,
      "d": 166.66650000000664,
      "v": 127
    },
    {
      "midi": 52,
      "hit": false,
      "t": 114833.21850000037,
      "d": 166.66650000000664,
      "v": 127
    },
    {
      "midi": 36,
      "hit": false,
      "t": 114999.88500000037,
      "d": 499.99950000000536,
      "v": 127
    },
    {
      "midi": 48,
      "hit": false,
      "t": 114999.88500000037,
      "d": 499.99950000000536,
      "v": 127
    },
    {
      "midi": 72,
      "hit": false,
      "t": 115499.88450000032,
      "d": 499.99950000000536,
      "v": 127
    },
    {
      "midi": 76,
      "hit": false,
      "t": 115499.88450000032,
      "d": 499.99950000000536,
      "v": 127
    },
    {
      "midi": 79,
      "hit": false,
      "t": 115499.88450000032,
      "d": 499.99950000000536,
      "v": 127
    },
    {
      "midi": 84,
      "hit": false,
      "t": 115499.88450000032,
      "d": 499.99950000000536,
      "v": 127
    },
    {
      "midi": 48,
      "hit": false,
      "t": 115499.88450000038,
      "d": 333.3329999999987,
      "v": 127
    },
    {
      "midi": 60,
      "hit": false,
      "t": 115499.88450000038,
      "d": 333.3329999999987,
      "v": 127
    }
  ]
}