{
  "jsonPath": "Classical/British Modern Classical/Gustav Holst/thaxted.json",
  "path": "Classical\\British Modern Classical\\Gustav Holst\\Thaxted.mid",
  "name": "Thaxted",
  "difficulty": "Advanced",
  "bpm": 75,
  "notes": [
    {
      "midi": 64,
      "hit": false,
      "t": 1600,
      "d": 400,
      "v": 96
    },
    {
      "midi": 67,
      "hit": false,
      "t": 2000,
      "d": 400,
      "v": 96
    },
    {
      "midi": 69,
      "hit": false,
      "t": 2400,
      "d": 800,
      "v": 96
    },
    {
      "midi": 53,
      "hit": false,
      "t": 2400,
      "d": 1600,
      "v": 64
    },
    {
      "midi": 57,
      "hit": false,
      "t": 2400,
      "d": 1600,
      "v": 64
    },
    {
      "midi": 60,
      "hit": false,
      "t": 2400,
      "d": 1600,
      "v": 64
    },
    {
      "midi": 69,
      "hit": false,
      "t": 3200,
      "d": 400,
      "v": 96
    },
    {
      "midi": 72,
      "hit": false,
      "t": 3600,
      "d": 400,
      "v": 96
    },
    {
      "midi": 71,
      "hit": false,
      "t": 4000,
      "d": 600,
      "v": 96
    },
    {
      "midi": 50,
      "hit": false,
      "t": 4000,
      "d": 800,
      "v": 64
    },
    {
      "midi": 53,
      "hit": false,
      "t": 4000,
      "d": 800,
      "v": 64
    },
    {
      "midi": 55,
      "hit": false,
      "t": 4000,
      "d": 800,
      "v": 64
    },
    {
      "midi": 67,
      "hit": false,
      "t": 4600,
      "d": 200,
      "v": 96
    },
    {
      "midi": 72,
      "hit": false,
      "t": 4800,
      "d": 400,
      "v": 96
    },
    {
      "midi": 48,
      "hit": false,
      "t": 4800,
      "d": 1600,
      "v": 64
    },
    {
      "midi": 52,
      "hit": false,
      "t": 4800,
      "d": 1600,
      "v": 64
    },
    {
      "midi": 55,
      "hit": false,
      "t": 4800,
      "d": 1600,
      "v": 64
    },
    {
      "midi": 74,
      "hit": false,
      "t": 5200,
      "d": 400,
      "v": 96
    },
    {
      "midi": 72,
      "hit": false,
      "t": 5600,
      "d": 800,
      "v": 96
    },
    {
      "midi": 71,
      "hit": false,
      "t": 6400,
      "d": 800,
      "v": 96
    },
    {
      "midi": 52,
      "hit": false,
      "t": 6400,
      "d": 800,
      "v": 64
    },
    {
      "midi": 55,
      "hit": false,
      "t": 6400,
      "d": 800,
      "v": 64
    },
    {
      "midi": 60,
      "hit": false,
      "t": 6400,
      "d": 800,
      "v": 64
    },
    {
      "midi": 69,
      "hit": false,
      "t": 7200,
      "d": 400,
      "v": 96
    },
    {
      "midi": 53,
      "hit": false,
      "t": 7200,
      "d": 1600,
      "v": 64
    },
    {
      "midi": 57,
      "hit": false,
      "t": 7200,
      "d": 1600,
      "v": 64
    },
    {
      "midi": 60,
      "hit": false,
      "t": 7200,
      "d": 1600,
      "v": 64
    },
    {
      "midi": 71,
      "hit": false,
      "t": 7600,
      "d": 400,
      "v": 96
    },
    {
      "midi": 69,
      "hit": false,
      "t": 8000,
      "d": 800,
      "v": 96
    },
    {
      "midi": 67,
      "hit": false,
      "t": 8800,
      "d": 800,
      "v": 96
    },
    {
      "midi": 55,
      "hit": false,
      "t": 8800,
      "d": 800,
      "v": 64
    },
    {
      "midi": 59,
      "hit": false,
      "t": 8800,
      "d": 800,
      "v": 64
    },
    {
      "midi": 62,
      "hit": false,
      "t": 8800,
      "d": 800,
      "v": 64
    },
    {
      "midi": 64,
      "hit": false,
      "t": 9600,
      "d": 1600,
      "v": 96
    },
    {
      "midi": 57,
      "hit": false,
      "t": 9600,
      "d": 2400,
      "v": 64
    },
    {
      "midi": 60,
      "hit": false,
      "t": 9600,
      "d": 2400,
      "v": 64
    },
    {
      "midi": 64,
      "hit": false,
      "t": 11200,
      "d": 400,
      "v": 96
    },
    {
      "midi": 67,
      "hit": false,
      "t": 11600,
      "d": 400,
      "v": 96
    },
    {
      "midi": 69,
      "hit": false,
      "t": 12000,
      "d": 800,
      "v": 96
    },
    {
      "midi": 53,
      "hit": false,
      "t": 12000,
      "d": 1600,
      "v": 64
    },
    {
      "midi": 57,
      "hit": false,
      "t": 12000,
      "d": 1600,
      "v": 64
    },
    {
      "midi": 60,
      "hit": false,
      "t": 12000,
      "d": 1600,
      "v": 64
    },
    {
      "midi": 69,
      "hit": false,
      "t": 12800,
      "d": 400,
      "v": 96
    },
    {
      "midi": 72,
      "hit": false,
      "t": 13200,
      "d": 400,
      "v": 96
    },
    {
      "midi": 71,
      "hit": false,
      "t": 13600,
      "d": 600,
      "v": 96
    },
    {
      "midi": 50,
      "hit": false,
      "t": 13600,
      "d": 800,
      "v": 64
    },
    {
      "midi": 53,
      "hit": false,
      "t": 13600,
      "d": 800,
      "v": 64
    },
    {
      "midi": 55,
      "hit": false,
      "t": 13600,
      "d": 800,
      "v": 64
    },
    {
      "midi": 67,
      "hit": false,
      "t": 14200,
      "d": 200,
      "v": 96
    },
    {
      "midi": 72,
      "hit": false,
      "t": 14400,
      "d": 400,
      "v": 96
    },
    {
      "midi": 48,
      "hit": false,
      "t": 14400,
      "d": 1600,
      "v": 64
    },
    {
      "midi": 52,
      "hit": false,
      "t": 14400,
      "d": 1600,
      "v": 64
    },
    {
      "midi": 55,
      "hit": false,
      "t": 14400,
      "d": 1600,
      "v": 64
    },
    {
      "midi": 74,
      "hit": false,
      "t": 14800,
      "d": 400,
      "v": 96
    },
    {
      "midi": 76,
      "hit": false,
      "t": 15200,
      "d": 800,
      "v": 96
    },
    {
      "midi": 76,
      "hit": false,
      "t": 16000,
      "d": 800,
      "v": 96
    },
    {
      "midi": 52,
      "hit": false,
      "t": 16000,
      "d": 800,
      "v": 64
    },
    {
      "midi": 55,
      "hit": false,
      "t": 16000,
      "d": 800,
      "v": 64
    },
    {
      "midi": 60,
      "hit": false,
      "t": 16000,
      "d": 800,
      "v": 64
    },
    {
      "midi": 76,
      "hit": false,
      "t": 16800,
      "d": 400,
      "v": 96
    },
    {
      "midi": 53,
      "hit": false,
      "t": 16800,
      "d": 1600,
      "v": 64
    },
    {
      "midi": 57,
      "hit": false,
      "t": 16800,
      "d": 1600,
      "v": 64
    },
    {
      "midi": 60,
      "hit": false,
      "t": 16800,
      "d": 1600,
      "v": 64
    },
    {
      "midi": 74,
      "hit": false,
      "t": 17200,
      "d": 400,
      "v": 96
    },
    {
      "midi": 72,
      "hit": false,
      "t": 17600,
      "d": 800,
      "v": 96
    },
    {
      "midi": 74,
      "hit": false,
      "t": 18400,
      "d": 800,
      "v": 96
    },
    {
      "midi": 53,
      "hit": false,
      "t": 18400,
      "d": 800,
      "v": 64
    },
    {
      "midi": 55,
      "hit": false,
      "t": 18400,
      "d": 800,
      "v": 64
    },
    {
      "midi": 60,
      "hit": false,
      "t": 18400,
      "d": 800,
      "v": 64
    },
    {
      "midi": 62,
      "hit": false,
      "t": 18400,
      "d": 800,
      "v": 64
    },
    {
      "midi": 72,
      "hit": false,
      "t": 19200,
      "d": 1600,
      "v": 96
    },
    {
      "midi": 48,
      "hit": false,
      "t": 19200,
      "d": 2400,
      "v": 64
    },
    {
      "midi": 52,
      "hit": false,
      "t": 19200,
      "d": 2400,
      "v": 64
    },
    {
      "midi": 55,
      "hit": false,
      "t": 19200,
      "d": 2400,
      "v": 64
    },
    {
      "midi": 79,
      "hit": false,
      "t": 20800,
      "d": 400,
      "v": 96
    },
    {
      "midi": 76,
      "hit": false,
      "t": 21200,
      "d": 400,
      "v": 96
    },
    {
      "midi": 74,
      "hit": false,
      "t": 21600,
      "d": 800,
      "v": 96
    },
    {
      "midi": 55,
      "hit": false,
      "t": 21600,
      "d": 1600,
      "v": 64
    },
    {
      "midi": 59,
      "hit": false,
      "t": 21600,
      "d": 1600,
      "v": 64
    },
    {
      "midi": 62,
      "hit": false,
      "t": 21600,
      "d": 1600,
      "v": 64
    },
    {
      "midi": 74,
      "hit": false,
      "t": 22400,
      "d": 800,
      "v": 96
    },
    {
      "midi": 72,
      "hit": false,
      "t": 23200,
      "d": 400,
      "v": 96
    },
    {
      "midi": 57,
      "hit": false,
      "t": 23200,
      "d": 800,
      "v": 64
    },
    {
      "midi": 60,
      "hit": false,
      "t": 23200,
      "d": 800,
      "v": 64
    },
    {
      "midi": 64,
      "hit": false,
      "t": 23200,
      "d": 800,
      "v": 64
    },
    {
      "midi": 76,
      "hit": false,
      "t": 23600,
      "d": 400,
      "v": 96
    },
    {
      "midi": 74,
      "hit": false,
      "t": 24000,
      "d": 800,
      "v": 96
    },
    {
      "midi": 55,
      "hit": false,
      "t": 24000,
      "d": 2400,
      "v": 64
    },
    {
      "midi": 59,
      "hit": false,
      "t": 24000,
      "d": 2400,
      "v": 64
    },
    {
      "midi": 62,
      "hit": false,
      "t": 24000,
      "d": 2400,
      "v": 64
    },
    {
      "midi": 67,
      "hit": false,
      "t": 24800,
      "d": 800,
      "v": 96
    },
    {
      "midi": 79,
      "hit": false,
      "t": 25600,
      "d": 400,
      "v": 96
    },
    {
      "midi": 76,
      "hit": false,
      "t": 26000,
      "d": 400,
      "v": 96
    },
    {
      "midi": 74,
      "hit": false,
      "t": 26400,
      "d": 800,
      "v": 96
    },
    {
      "midi": 55,
      "hit": false,
      "t": 26400,
      "d": 1600,
      "v": 64
    },
    {
      "midi": 59,
      "hit": false,
      "t": 26400,
      "d": 1600,
      "v": 64
    },
    {
      "midi": 62,
      "hit": false,
      "t": 26400,
      "d": 1600,
      "v": 64
    },
    {
      "midi": 74,
      "hit": false,
      "t": 27200,
      "d": 800,
      "v": 96
    },
    {
      "midi": 76,
      "hit": false,
      "t": 28000,
      "d": 400,
      "v": 96
    },
    {
      "midi": 55,
      "hit": false,
      "t": 28000,
      "d": 800,
      "v": 64
    },
    {
      "midi": 60,
      "hit": false,
      "t": 28000,
      "d": 800,
      "v": 64
    },
    {
      "midi": 64,
      "hit": false,
      "t": 28000,
      "d": 800,
      "v": 64
    },
    {
      "midi": 79,
      "hit": false,
      "t": 28400,
      "d": 400,
      "v": 96
    },
    {
      "midi": 81,
      "hit": false,
      "t": 28800,
      "d": 1600,
      "v": 96
    },
    {
      "midi": 53,
      "hit": false,
      "t": 28800,
      "d": 800,
      "v": 64
    },
    {
      "midi": 57,
      "hit": false,
      "t": 28800,
      "d": 800,
      "v": 64
    },
    {
      "midi": 60,
      "hit": false,
      "t": 28800,
      "d": 800,
      "v": 64
    },
    {
      "midi": 52,
      "hit": false,
      "t": 29600,
      "d": 800,
      "v": 64
    },
    {
      "midi": 81,
      "hit": false,
      "t": 30400,
      "d": 400,
      "v": 96
    },
    {
      "midi": 50,
      "hit": false,
      "t": 30400,
      "d": 800,
      "v": 64
    },
    {
      "midi": 53,
      "hit": false,
      "t": 30400,
      "d": 800,
      "v": 64
    },
    {
      "midi": 57,
      "hit": false,
      "t": 30400,
      "d": 800,
      "v": 64
    },
    {
      "midi": 83,
      "hit": false,
      "t": 30800,
      "d": 400,
      "v": 96
    },
    {
      "midi": 84,
      "hit": false,
      "t": 31200,
      "d": 800,
      "v": 96
    },
    {
      "midi": 57,
      "hit": false,
      "t": 31200,
      "d": 800,
      "v": 64
    },
    {
      "midi": 60,
      "hit": false,
      "t": 31200,
      "d": 800,
      "v": 64
    },
    {
      "midi": 64,
      "hit": false,
      "t": 31200,
      "d": 800,
      "v": 64
    },
    {
      "midi": 83,
      "hit": false,
      "t": 32000,
      "d": 800,
      "v": 96
    },
    {
      "midi": 55,
      "hit": false,
      "t": 32000,
      "d": 800,
      "v": 64
    },
    {
      "midi": 60,
      "hit": false,
      "t": 32000,
      "d": 800,
      "v": 64
    },
    {
      "midi": 64,
      "hit": false,
      "t": 32000,
      "d": 800,
      "v": 64
    },
    {
      "midi": 81,
      "hit": false,
      "t": 32800,
      "d": 800,
      "v": 96
    },
    {
      "midi": 53,
      "hit": false,
      "t": 32800,
      "d": 800,
      "v": 64
    },
    {
      "midi": 57,
      "hit": false,
      "t": 32800,
      "d": 800,
      "v": 64
    },
    {
      "midi": 60,
      "hit": false,
      "t": 32800,
      "d": 800,
      "v": 64
    },
    {
      "midi": 79,
      "hit": false,
      "t": 33600,
      "d": 800,
      "v": 96
    },
    {
      "midi": 52,
      "hit": false,
      "t": 33600,
      "d": 800,
      "v": 64
    },
    {
      "midi": 55,
      "hit": false,
      "t": 33600,
      "d": 800,
      "v": 64
    },
    {
      "midi": 60,
      "hit": false,
      "t": 33600,
      "d": 800,
      "v": 64
    },
    {
      "midi": 84,
      "hit": false,
      "t": 34400,
      "d": 800,
      "v": 96
    },
    {
      "midi": 50,
      "hit": false,
      "t": 34400,
      "d": 800,
      "v": 64
    },
    {
      "midi": 53,
      "hit": false,
      "t": 34400,
      "d": 800,
      "v": 64
    },
    {
      "midi": 57,
      "hit": false,
      "t": 34400,
      "d": 800,
      "v": 64
    },
    {
      "midi": 76,
      "hit": false,
      "t": 35200,
      "d": 800,
      "v": 96
    },
    {
      "midi": 48,
      "hit": false,
      "t": 35200,
      "d": 800,
      "v": 64
    },
    {
      "midi": 52,
      "hit": false,
      "t": 35200,
      "d": 800,
      "v": 64
    },
    {
      "midi": 55,
      "hit": false,
      "t": 35200,
      "d": 800,
      "v": 64
    },
    {
      "midi": 74,
      "hit": false,
      "t": 36000,
      "d": 400,
      "v": 96
    },
    {
      "midi": 53,
      "hit": false,
      "t": 36000,
      "d": 800,
      "v": 64
    },
    {
      "midi": 57,
      "hit": false,
      "t": 36000,
      "d": 800,
      "v": 64
    },
    {
      "midi": 60,
      "hit": false,
      "t": 36000,
      "d": 800,
      "v": 64
    },
    {
      "midi": 72,
      "hit": false,
      "t": 36400,
      "d": 400,
      "v": 96
    },
    {
      "midi": 74,
      "hit": false,
      "t": 36800,
      "d": 800,
      "v": 96
    },
    {
      "midi": 50,
      "hit": false,
      "t": 36800,
      "d": 800,
      "v": 64
    },
    {
      "midi": 53,
      "hit": false,
      "t": 36800,
      "d": 800,
      "v": 64
    },
    {
      "midi": 57,
      "hit": false,
      "t": 36800,
      "d": 800,
      "v": 64
    },
    {
      "midi": 76,
      "hit": false,
      "t": 37600,
      "d": 800,
      "v": 96
    },
    {
      "midi": 48,
      "hit": false,
      "t": 37600,
      "d": 800,
      "v": 64
    },
    {
      "midi": 52,
      "hit": false,
      "t": 37600,
      "d": 800,
      "v": 64
    },
    {
      "midi": 57,
      "hit": false,
      "t": 37600,
      "d": 800,
      "v": 64
    },
    {
      "midi": 79,
      "hit": false,
      "t": 38400,
      "d": 1600,
      "v": 96
    },
    {
      "midi": 47,
      "hit": false,
      "t": 38400,
      "d": 800,
      "v": 64
    },
    {
      "midi": 50,
      "hit": false,
      "t": 38400,
      "d": 800,
      "v": 64
    },
    {
      "midi": 55,
      "hit": false,
      "t": 38400,
      "d": 800,
      "v": 64
    },
    {
      "midi": 45,
      "hit": false,
      "t": 39200,
      "d": 1600,
      "v": 64
    },
    {
      "midi": 48,
      "hit": false,
      "t": 39200,
      "d": 1600,
      "v": 64
    },
    {
      "midi": 52,
      "hit": false,
      "t": 39200,
      "d": 1600,
      "v": 64
    },
    {
      "midi": 64,
      "hit": false,
      "t": 40000,
      "d": 400,
      "v": 96
    },
    {
      "midi": 67,
      "hit": false,
      "t": 40400,
      "d": 400,
      "v": 96
    },
    {
      "midi": 69,
      "hit": false,
      "t": 40800,
      "d": 800,
      "v": 96
    },
    {
      "midi": 53,
      "hit": false,
      "t": 40800,
      "d": 1600,
      "v": 64
    },
    {
      "midi": 57,
      "hit": false,
      "t": 40800,
      "d": 1600,
      "v": 64
    },
    {
      "midi": 60,
      "hit": false,
      "t": 40800,
      "d": 1600,
      "v": 64
    },
    {
      "midi": 69,
      "hit": false,
      "t": 41600,
      "d": 400,
      "v": 96
    },
    {
      "midi": 72,
      "hit": false,
      "t": 42000,
      "d": 400,
      "v": 96
    },
    {
      "midi": 71,
      "hit": false,
      "t": 42400,
      "d": 600,
      "v": 96
    },
    {
      "midi": 50,
      "hit": false,
      "t": 42400,
      "d": 800,
      "v": 64
    },
    {
      "midi": 53,
      "hit": false,
      "t": 42400,
      "d": 800,
      "v": 64
    },
    {
      "midi": 55,
      "hit": false,
      "t": 42400,
      "d": 800,
      "v": 64
    },
    {
      "midi": 67,
      "hit": false,
      "t": 43000,
      "d": 200,
      "v": 96
    },
    {
      "midi": 72,
      "hit": false,
      "t": 43200,
      "d": 400,
      "v": 96
    },
    {
      "midi": 48,
      "hit": false,
      "t": 43200,
      "d": 1600,
      "v": 64
    },
    {
      "midi": 52,
      "hit": false,
      "t": 43200,
      "d": 1600,
      "v": 64
    },
    {
      "midi": 55,
      "hit": false,
      "t": 43200,
      "d": 1600,
      "v": 64
    },
    {
      "midi": 74,
      "hit": false,
      "t": 43600,
      "d": 400,
      "v": 96
    },
    {
      "midi": 72,
      "hit": false,
      "t": 44000,
      "d": 800,
      "v": 96
    },
    {
      "midi": 71,
      "hit": false,
      "t": 44800,
      "d": 800,
      "v": 96
    },
    {
      "midi": 52,
      "hit": false,
      "t": 44800,
      "d": 800,
      "v": 64
    },
    {
      "midi": 55,
      "hit": false,
      "t": 44800,
      "d": 800,
      "v": 64
    },
    {
      "midi": 60,
      "hit": false,
      "t": 44800,
      "d": 800,
      "v": 64
    },
    {
      "midi": 69,
      "hit": false,
      "t": 45600,
      "d": 400,
      "v": 96
    },
    {
      "midi": 53,
      "hit": false,
      "t": 45600,
      "d": 1600,
      "v": 64
    },
    {
      "midi": 57,
      "hit": false,
      "t": 45600,
      "d": 1600,
      "v": 64
    },
    {
      "midi": 60,
      "hit": false,
      "t": 45600,
      "d": 1600,
      "v": 64
    },
    {
      "midi": 71,
      "hit": false,
      "t": 46000,
      "d": 400,
      "v": 96
    },
    {
      "midi": 69,
      "hit": false,
      "t": 46400,
      "d": 800,
      "v": 96
    },
    {
      "midi": 67,
      "hit": false,
      "t": 47200,
      "d": 800,
      "v": 96
    },
    {
      "midi": 55,
      "hit": false,
      "t": 47200,
      "d": 800,
      "v": 64
    },
    {
      "midi": 59,
      "hit": false,
      "t": 47200,
      "d": 800,
      "v": 64
    },
    {
      "midi": 62,
      "hit": false,
      "t": 47200,
      "d": 800,
      "v": 64
    },
    {
      "midi": 64,
      "hit": false,
      "t": 48000,
      "d": 1600,
      "v": 96
    },
    {
      "midi": 57,
      "hit": false,
      "t": 48000,
      "d": 2400,
      "v": 64
    },
    {
      "midi": 60,
      "hit": false,
      "t": 48000,
      "d": 2400,
      "v": 64
    },
    {
      "midi": 64,
      "hit": false,
      "t": 49600,
      "d": 400,
      "v": 96
    },
    {
      "midi": 67,
      "hit": false,
      "t": 50000,
      "d": 400,
      "v": 96
    },
    {
      "midi": 69,
      "hit": false,
      "t": 50400,
      "d": 800,
      "v": 96
    },
    {
      "midi": 53,
      "hit": false,
      "t": 50400,
      "d": 1600,
      "v": 64
    },
    {
      "midi": 57,
      "hit": false,
      "t": 50400,
      "d": 1600,
      "v": 64
    },
    {
      "midi": 60,
      "hit": false,
      "t": 50400,
      "d": 1600,
      "v": 64
    },
    {
      "midi": 69,
      "hit": false,
      "t": 51200,
      "d": 400,
      "v": 96
    },
    {
      "midi": 72,
      "hit": false,
      "t": 51600,
      "d": 400,
      "v": 96
    },
    {
      "midi": 71,
      "hit": false,
      "t": 52000,
      "d": 600,
      "v": 96
    },
    {
      "midi": 50,
      "hit": false,
      "t": 52000,
      "d": 800,
      "v": 64
    },
    {
      "midi": 53,
      "hit": false,
      "t": 52000,
      "d": 800,
      "v": 64
    },
    {
      "midi": 55,
      "hit": false,
      "t": 52000,
      "d": 800,
      "v": 64
    },
    {
      "midi": 67,
      "hit": false,
      "t": 52600,
      "d": 200,
      "v": 96
    },
    {
      "midi": 72,
      "hit": false,
      "t": 52800,
      "d": 400,
      "v": 96
    },
    {
      "midi": 48,
      "hit": false,
      "t": 52800,
      "d": 1600,
      "v": 64
    },
    {
      "midi": 52,
      "hit": false,
      "t": 52800,
      "d": 1600,
      "v": 64
    },
    {
      "midi": 55,
      "hit": false,
      "t": 52800,
      "d": 1600,
      "v": 64
    },
    {
      "midi": 74,
      "hit": false,
      "t": 53200,
      "d": 400,
      "v": 96
    },
    {
      "midi": 76,
      "hit": false,
      "t": 53600,
      "d": 800,
      "v": 96
    },
    {
      "midi": 76,
      "hit": false,
      "t": 54400,
      "d": 800,
      "v": 96
    },
    {
      "midi": 52,
      "hit": false,
      "t": 54400,
      "d": 800,
      "v": 64
    },
    {
      "midi": 55,
      "hit": false,
      "t": 54400,
      "d": 800,
      "v": 64
    },
    {
      "midi": 60,
      "hit": false,
      "t": 54400,
      "d": 800,
      "v": 64
    },
    {
      "midi": 76,
      "hit": false,
      "t": 55200,
      "d": 400,
      "v": 96
    },
    {
      "midi": 53,
      "hit": false,
      "t": 55200,
      "d": 1600,
      "v": 64
    },
    {
      "midi": 57,
      "hit": false,
      "t": 55200,
      "d": 1600,
      "v": 64
    },
    {
      "midi": 60,
      "hit": false,
      "t": 55200,
      "d": 1600,
      "v": 64
    },
    {
      "midi": 74,
      "hit": false,
      "t": 55600,
      "d": 400,
      "v": 96
    },
    {
      "midi": 72,
      "hit": false,
      "t": 56000,
      "d": 800,
      "v": 96
    },
    {
      "midi": 74,
      "hit": false,
      "t": 56800,
      "d": 800,
      "v": 96
    },
    {
      "midi": 53,
      "hit": false,
      "t": 56800,
      "d": 800,
      "v": 64
    },
    {
      "midi": 55,
      "hit": false,
      "t": 56800,
      "d": 800,
      "v": 64
    },
    {
      "midi": 60,
      "hit": false,
      "t": 56800,
      "d": 800,
      "v": 64
    },
    {
      "midi": 62,
      "hit": false,
      "t": 56800,
      "d": 800,
      "v": 64
    },
    {
      "midi": 72,
      "hit": false,
      "t": 57600,
      "d": 2400,
      "v": 96
    },
    {
      "midi": 48,
      "hit": false,
      "t": 57600,
      "d": 2400,
      "v": 64
    },
    {
      "midi": 52,
      "hit": false,
      "t": 57600,
      "d": 2400,
      "v": 64
    },
    {
      "midi": 55,
      "hit": false,
      "t": 57600,
      "d": 2400,
      "v": 64
    }
  ]
}