{
  "jsonPath": "Unknown/Unknown/Groove Committee/just-play-the-music.json",
  "path": "Unknown\\Unknown\\Groove Committee\\Just Play The Music.mid",
  "name": "Just Play The Music",
  "difficulty": "Advanced",
  "bpm": 120,
  "notes": [
    {
      "midi": 37,
      "hit": false,
      "t": 2068.9640000000004,
      "d": 123.92232291666687,
      "v": 127
    },
    {
      "midi": 61,
      "hit": false,
      "t": 2068.9640000000004,
      "d": 123.92232291666687,
      "v": 127
    },
    {
      "midi": 64,
      "hit": false,
      "t": 2068.9640000000004,
      "d": 123.92232291666687,
      "v": 127
    },
    {
      "midi": 68,
      "hit": false,
      "t": 2068.9640000000004,
      "d": 123.92232291666687,
      "v": 127
    },
    {
      "midi": 49,
      "hit": false,
      "t": 2198.2742500000004,
      "d": 123.92232291666687,
      "v": 107
    },
    {
      "midi": 37,
      "hit": false,
      "t": 2456.8947500000004,
      "d": 123.92232291666687,
      "v": 109
    },
    {
      "midi": 61,
      "hit": false,
      "t": 2456.8947500000004,
      "d": 123.92232291666687,
      "v": 127
    },
    {
      "midi": 64,
      "hit": false,
      "t": 2456.8947500000004,
      "d": 123.92232291666687,
      "v": 127
    },
    {
      "midi": 68,
      "hit": false,
      "t": 2456.8947500000004,
      "d": 123.92232291666687,
      "v": 127
    },
    {
      "midi": 49,
      "hit": false,
      "t": 2586.2050000000004,
      "d": 123.92232291666687,
      "v": 127
    },
    {
      "midi": 61,
      "hit": false,
      "t": 2844.825500000001,
      "d": 123.92232291666687,
      "v": 127
    },
    {
      "midi": 64,
      "hit": false,
      "t": 2844.825500000001,
      "d": 123.92232291666687,
      "v": 127
    },
    {
      "midi": 68,
      "hit": false,
      "t": 2844.825500000001,
      "d": 123.92232291666687,
      "v": 127
    },
    {
      "midi": 61,
      "hit": false,
      "t": 3103.446000000001,
      "d": 123.92232291666687,
      "v": 127
    },
    {
      "midi": 66,
      "hit": false,
      "t": 3103.446000000001,
      "d": 123.92232291666687,
      "v": 127
    },
    {
      "midi": 69,
      "hit": false,
      "t": 3103.446000000001,
      "d": 123.92232291666687,
      "v": 127
    },
    {
      "midi": 42,
      "hit": false,
      "t": 3362.066500000001,
      "d": 123.92232291666687,
      "v": 127
    },
    {
      "midi": 61,
      "hit": false,
      "t": 3491.376750000001,
      "d": 123.92232291666687,
      "v": 127
    },
    {
      "midi": 66,
      "hit": false,
      "t": 3491.376750000001,
      "d": 123.92232291666687,
      "v": 127
    },
    {
      "midi": 69,
      "hit": false,
      "t": 3491.376750000001,
      "d": 123.92232291666687,
      "v": 127
    },
    {
      "midi": 54,
      "hit": false,
      "t": 3620.687000000001,
      "d": 123.92232291666687,
      "v": 127
    },
    {
      "midi": 42,
      "hit": false,
      "t": 3879.307500000001,
      "d": 123.92232291666687,
      "v": 127
    },
    {
      "midi": 61,
      "hit": false,
      "t": 3879.307500000001,
      "d": 123.92232291666687,
      "v": 127
    },
    {
      "midi": 66,
      "hit": false,
      "t": 3879.307500000001,
      "d": 123.92232291666687,
      "v": 127
    },
    {
      "midi": 69,
      "hit": false,
      "t": 3879.307500000001,
      "d": 123.92232291666687,
      "v": 127
    },
    {
      "midi": 35,
      "hit": false,
      "t": 4137.928000000001,
      "d": 123.92232291666642,
      "v": 127
    },
    {
      "midi": 47,
      "hit": false,
      "t": 4267.23825,
      "d": 123.92232291666642,
      "v": 127
    },
    {
      "midi": 59,
      "hit": false,
      "t": 4396.5485,
      "d": 123.92232291666642,
      "v": 115
    },
    {
      "midi": 63,
      "hit": false,
      "t": 4396.5485,
      "d": 123.92232291666642,
      "v": 127
    },
    {
      "midi": 66,
      "hit": false,
      "t": 4396.5485,
      "d": 123.92232291666642,
      "v": 127
    },
    {
      "midi": 35,
      "hit": false,
      "t": 4525.858749999999,
      "d": 123.92232291666642,
      "v": 127
    },
    {
      "midi": 47,
      "hit": false,
      "t": 4655.168999999999,
      "d": 123.92232291666642,
      "v": 127
    },
    {
      "midi": 59,
      "hit": false,
      "t": 4655.168999999999,
      "d": 123.92232291666642,
      "v": 112
    },
    {
      "midi": 63,
      "hit": false,
      "t": 4655.168999999999,
      "d": 123.92232291666642,
      "v": 127
    },
    {
      "midi": 66,
      "hit": false,
      "t": 4655.168999999999,
      "d": 123.92232291666642,
      "v": 127
    },
    {
      "midi": 59,
      "hit": false,
      "t": 4784.4792499999985,
      "d": 123.92232291666642,
      "v": 127
    },
    {
      "midi": 63,
      "hit": false,
      "t": 4784.4792499999985,
      "d": 123.92232291666642,
      "v": 127
    },
    {
      "midi": 66,
      "hit": false,
      "t": 4784.4792499999985,
      "d": 123.92232291666642,
      "v": 127
    },
    {
      "midi": 61,
      "hit": false,
      "t": 5172.409999999998,
      "d": 123.92232291666642,
      "v": 127
    },
    {
      "midi": 64,
      "hit": false,
      "t": 5172.409999999998,
      "d": 123.92232291666642,
      "v": 127
    },
    {
      "midi": 68,
      "hit": false,
      "t": 5172.409999999998,
      "d": 123.92232291666642,
      "v": 127
    },
    {
      "midi": 37,
      "hit": false,
      "t": 5431.030499999998,
      "d": 253.23257291666687,
      "v": 127
    },
    {
      "midi": 61,
      "hit": false,
      "t": 5560.3407499999985,
      "d": 123.92232291666642,
      "v": 127
    },
    {
      "midi": 64,
      "hit": false,
      "t": 5560.3407499999985,
      "d": 123.92232291666642,
      "v": 127
    },
    {
      "midi": 68,
      "hit": false,
      "t": 5560.3407499999985,
      "d": 123.92232291666642,
      "v": 127
    },
    {
      "midi": 49,
      "hit": false,
      "t": 5689.650999999998,
      "d": 123.92232291666642,
      "v": 127
    },
    {
      "midi": 37,
      "hit": false,
      "t": 5948.271499999998,
      "d": 123.92232291666642,
      "v": 127
    },
    {
      "midi": 61,
      "hit": false,
      "t": 5948.271499999998,
      "d": 123.92232291666642,
      "v": 127
    },
    {
      "midi": 64,
      "hit": false,
      "t": 5948.271499999998,
      "d": 123.92232291666642,
      "v": 127
    },
    {
      "midi": 68,
      "hit": false,
      "t": 5948.271499999998,
      "d": 123.92232291666642,
      "v": 127
    },
    {
      "midi": 37,
      "hit": false,
      "t": 6206.891999999998,
      "d": 123.92232291666642,
      "v": 127
    },
    {
      "midi": 61,
      "hit": false,
      "t": 6206.891999999998,
      "d": 123.92232291666642,
      "v": 127
    },
    {
      "midi": 64,
      "hit": false,
      "t": 6206.891999999998,
      "d": 123.92232291666642,
      "v": 122
    },
    {
      "midi": 68,
      "hit": false,
      "t": 6206.891999999998,
      "d": 123.92232291666642,
      "v": 127
    },
    {
      "midi": 49,
      "hit": false,
      "t": 6336.202249999998,
      "d": 123.92232291666642,
      "v": 109
    },
    {
      "midi": 37,
      "hit": false,
      "t": 6594.8227499999975,
      "d": 123.92232291666642,
      "v": 127
    },
    {
      "midi": 61,
      "hit": false,
      "t": 6594.8227499999975,
      "d": 123.92232291666642,
      "v": 127
    },
    {
      "midi": 64,
      "hit": false,
      "t": 6594.8227499999975,
      "d": 123.92232291666642,
      "v": 127
    },
    {
      "midi": 68,
      "hit": false,
      "t": 6594.8227499999975,
      "d": 123.92232291666642,
      "v": 127
    },
    {
      "midi": 49,
      "hit": false,
      "t": 6724.132999999997,
      "d": 123.92232291666642,
      "v": 127
    },
    {
      "midi": 61,
      "hit": false,
      "t": 6982.753499999997,
      "d": 123.92232291666642,
      "v": 127
    },
    {
      "midi": 64,
      "hit": false,
      "t": 6982.753499999997,
      "d": 123.92232291666642,
      "v": 127
    },
    {
      "midi": 68,
      "hit": false,
      "t": 6982.753499999997,
      "d": 123.92232291666642,
      "v": 127
    },
    {
      "midi": 61,
      "hit": false,
      "t": 7241.373999999997,
      "d": 123.92232291666642,
      "v": 127
    },
    {
      "midi": 66,
      "hit": false,
      "t": 7241.373999999997,
      "d": 123.92232291666642,
      "v": 127
    },
    {
      "midi": 69,
      "hit": false,
      "t": 7241.373999999997,
      "d": 123.92232291666642,
      "v": 127
    },
    {
      "midi": 42,
      "hit": false,
      "t": 7499.994499999997,
      "d": 123.92232291666642,
      "v": 127
    },
    {
      "midi": 61,
      "hit": false,
      "t": 7629.304749999997,
      "d": 123.92232291666642,
      "v": 127
    },
    {
      "midi": 66,
      "hit": false,
      "t": 7629.304749999997,
      "d": 123.92232291666642,
      "v": 127
    },
    {
      "midi": 69,
      "hit": false,
      "t": 7629.304749999997,
      "d": 123.92232291666642,
      "v": 127
    },
    {
      "midi": 54,
      "hit": false,
      "t": 7758.614999999996,
      "d": 123.92232291666642,
      "v": 127
    },
    {
      "midi": 42,
      "hit": false,
      "t": 8017.235499999996,
      "d": 123.92232291666642,
      "v": 127
    },
    {
      "midi": 61,
      "hit": false,
      "t": 8017.235499999996,
      "d": 123.92232291666642,
      "v": 127
    },
    {
      "midi": 66,
      "hit": false,
      "t": 8017.235499999996,
      "d": 123.92232291666642,
      "v": 127
    },
    {
      "midi": 69,
      "hit": false,
      "t": 8017.235499999996,
      "d": 123.92232291666642,
      "v": 127
    },
    {
      "midi": 35,
      "hit": false,
      "t": 8275.855999999994,
      "d": 123.92232291666733,
      "v": 103
    },
    {
      "midi": 47,
      "hit": false,
      "t": 8405.166249999995,
      "d": 123.92232291666733,
      "v": 101
    },
    {
      "midi": 59,
      "hit": false,
      "t": 8534.476499999995,
      "d": 123.92232291666733,
      "v": 109
    },
    {
      "midi": 63,
      "hit": false,
      "t": 8534.476499999995,
      "d": 123.92232291666733,
      "v": 127
    },
    {
      "midi": 66,
      "hit": false,
      "t": 8534.476499999995,
      "d": 123.92232291666733,
      "v": 127
    },
    {
      "midi": 35,
      "hit": false,
      "t": 8663.786749999996,
      "d": 123.92232291666733,
      "v": 127
    },
    {
      "midi": 47,
      "hit": false,
      "t": 8793.096999999996,
      "d": 123.92232291666733,
      "v": 127
    },
    {
      "midi": 59,
      "hit": false,
      "t": 8793.096999999996,
      "d": 123.92232291666733,
      "v": 123
    },
    {
      "midi": 63,
      "hit": false,
      "t": 8793.096999999996,
      "d": 123.92232291666733,
      "v": 127
    },
    {
      "midi": 66,
      "hit": false,
      "t": 8793.096999999996,
      "d": 123.92232291666733,
      "v": 127
    },
    {
      "midi": 59,
      "hit": false,
      "t": 8922.407249999997,
      "d": 123.92232291666733,
      "v": 119
    },
    {
      "midi": 63,
      "hit": false,
      "t": 8922.407249999997,
      "d": 123.92232291666733,
      "v": 127
    },
    {
      "midi": 66,
      "hit": false,
      "t": 8922.407249999997,
      "d": 123.92232291666733,
      "v": 127
    },
    {
      "midi": 59,
      "hit": false,
      "t": 9310.337999999996,
      "d": 123.92232291666733,
      "v": 105
    },
    {
      "midi": 63,
      "hit": false,
      "t": 9310.337999999996,
      "d": 123.92232291666733,
      "v": 127
    },
    {
      "midi": 68,
      "hit": false,
      "t": 9310.337999999996,
      "d": 123.92232291666733,
      "v": 127
    },
    {
      "midi": 44,
      "hit": false,
      "t": 9568.958499999997,
      "d": 123.92232291666733,
      "v": 127
    },
    {
      "midi": 59,
      "hit": false,
      "t": 9568.958499999997,
      "d": 123.92232291666733,
      "v": 103
    },
    {
      "midi": 63,
      "hit": false,
      "t": 9568.958499999997,
      "d": 123.92232291666733,
      "v": 127
    },
    {
      "midi": 68,
      "hit": false,
      "t": 9568.958499999997,
      "d": 123.92232291666733,
      "v": 127
    },
    {
      "midi": 56,
      "hit": false,
      "t": 9827.578999999998,
      "d": 123.92232291666733,
      "v": 127
    },
    {
      "midi": 59,
      "hit": false,
      "t": 9827.578999999998,
      "d": 123.92232291666733,
      "v": 127
    },
    {
      "midi": 63,
      "hit": false,
      "t": 9827.578999999998,
      "d": 123.92232291666733,
      "v": 127
    },
    {
      "midi": 68,
      "hit": false,
      "t": 9827.578999999998,
      "d": 123.92232291666733,
      "v": 127
    },
    {
      "midi": 59,
      "hit": false,
      "t": 9956.889249999998,
      "d": 123.92232291666733,
      "v": 127
    },
    {
      "midi": 63,
      "hit": false,
      "t": 9956.889249999998,
      "d": 123.92232291666733,
      "v": 127
    },
    {
      "midi": 66,
      "hit": false,
      "t": 9956.889249999998,
      "d": 123.92232291666733,
      "v": 127
    },
    {
      "midi": 44,
      "hit": false,
      "t": 10086.199499999999,
      "d": 123.92232291666733,
      "v": 127
    },
    {
      "midi": 37,
      "hit": false,
      "t": 10344.82,
      "d": 123.92232291666733,
      "v": 127
    },
    {
      "midi": 61,
      "hit": false,
      "t": 10344.82,
      "d": 123.92232291666733,
      "v": 127
    },
    {
      "midi": 64,
      "hit": false,
      "t": 10344.82,
      "d": 123.92232291666733,
      "v": 127
    },
    {
      "midi": 68,
      "hit": false,
      "t": 10344.82,
      "d": 123.92232291666733,
      "v": 127
    },
    {
      "midi": 49,
      "hit": false,
      "t": 10474.13025,
      "d": 123.92232291666733,
      "v": 107
    },
    {
      "midi": 37,
      "hit": false,
      "t": 10732.750750000001,
      "d": 123.92232291666733,
      "v": 109
    },
    {
      "midi": 61,
      "hit": false,
      "t": 10732.750750000001,
      "d": 123.92232291666733,
      "v": 127
    },
    {
      "midi": 64,
      "hit": false,
      "t": 10732.750750000001,
      "d": 123.92232291666733,
      "v": 127
    },
    {
      "midi": 68,
      "hit": false,
      "t": 10732.750750000001,
      "d": 123.92232291666733,
      "v": 127
    },
    {
      "midi": 49,
      "hit": false,
      "t": 10862.061000000002,
      "d": 123.92232291666733,
      "v": 127
    },
    {
      "midi": 61,
      "hit": false,
      "t": 11120.681500000002,
      "d": 123.92232291666733,
      "v": 127
    },
    {
      "midi": 64,
      "hit": false,
      "t": 11120.681500000002,
      "d": 123.92232291666733,
      "v": 127
    },
    {
      "midi": 68,
      "hit": false,
      "t": 11120.681500000002,
      "d": 123.92232291666733,
      "v": 127
    },
    {
      "midi": 61,
      "hit": false,
      "t": 11379.302000000003,
      "d": 123.92232291666733,
      "v": 127
    },
    {
      "midi": 66,
      "hit": false,
      "t": 11379.302000000003,
      "d": 123.92232291666733,
      "v": 127
    },
    {
      "midi": 69,
      "hit": false,
      "t": 11379.302000000003,
      "d": 123.92232291666733,
      "v": 127
    },
    {
      "midi": 42,
      "hit": false,
      "t": 11637.922500000004,
      "d": 123.92232291666733,
      "v": 127
    },
    {
      "midi": 61,
      "hit": false,
      "t": 11767.232750000005,
      "d": 123.92232291666733,
      "v": 127
    },
    {
      "midi": 66,
      "hit": false,
      "t": 11767.232750000005,
      "d": 123.92232291666733,
      "v": 127
    },
    {
      "midi": 69,
      "hit": false,
      "t": 11767.232750000005,
      "d": 123.92232291666733,
      "v": 127
    },
    {
      "midi": 54,
      "hit": false,
      "t": 11896.543000000005,
      "d": 123.92232291666733,
      "v": 127
    },
    {
      "midi": 42,
      "hit": false,
      "t": 12155.163500000006,
      "d": 123.92232291666733,
      "v": 127
    },
    {
      "midi": 61,
      "hit": false,
      "t": 12155.163500000006,
      "d": 123.92232291666733,
      "v": 127
    },
    {
      "midi": 66,
      "hit": false,
      "t": 12155.163500000006,
      "d": 123.92232291666733,
      "v": 127
    },
    {
      "midi": 69,
      "hit": false,
      "t": 12155.163500000006,
      "d": 123.92232291666733,
      "v": 127
    },
    {
      "midi": 35,
      "hit": false,
      "t": 12413.784000000007,
      "d": 123.92232291666551,
      "v": 127
    },
    {
      "midi": 47,
      "hit": false,
      "t": 12543.094250000006,
      "d": 123.92232291666733,
      "v": 127
    },
    {
      "midi": 59,
      "hit": false,
      "t": 12672.404500000006,
      "d": 123.92232291666733,
      "v": 115
    },
    {
      "midi": 63,
      "hit": false,
      "t": 12672.404500000006,
      "d": 123.92232291666733,
      "v": 127
    },
    {
      "midi": 66,
      "hit": false,
      "t": 12672.404500000006,
      "d": 123.92232291666733,
      "v": 127
    },
    {
      "midi": 35,
      "hit": false,
      "t": 12801.714750000006,
      "d": 123.92232291666733,
      "v": 127
    },
    {
      "midi": 47,
      "hit": false,
      "t": 12931.025000000007,
      "d": 123.92232291666733,
      "v": 127
    },
    {
      "midi": 59,
      "hit": false,
      "t": 12931.025000000007,
      "d": 123.92232291666733,
      "v": 112
    },
    {
      "midi": 63,
      "hit": false,
      "t": 12931.025000000007,
      "d": 123.92232291666733,
      "v": 127
    },
    {
      "midi": 66,
      "hit": false,
      "t": 12931.025000000007,
      "d": 123.92232291666733,
      "v": 127
    },
    {
      "midi": 59,
      "hit": false,
      "t": 13060.335250000007,
      "d": 123.92232291666733,
      "v": 127
    },
    {
      "midi": 63,
      "hit": false,
      "t": 13060.335250000007,
      "d": 123.92232291666733,
      "v": 127
    },
    {
      "midi": 66,
      "hit": false,
      "t": 13060.335250000007,
      "d": 123.92232291666733,
      "v": 127
    },
    {
      "midi": 61,
      "hit": false,
      "t": 13448.266000000009,
      "d": 123.92232291666733,
      "v": 127
    },
    {
      "midi": 64,
      "hit": false,
      "t": 13448.266000000009,
      "d": 123.92232291666733,
      "v": 127
    },
    {
      "midi": 68,
      "hit": false,
      "t": 13448.266000000009,
      "d": 123.92232291666733,
      "v": 127
    },
    {
      "midi": 37,
      "hit": false,
      "t": 13706.88650000001,
      "d": 253.23257291666778,
      "v": 127
    },
    {
      "midi": 61,
      "hit": false,
      "t": 13836.19675000001,
      "d": 123.92232291666733,
      "v": 127
    },
    {
      "midi": 64,
      "hit": false,
      "t": 13836.19675000001,
      "d": 123.92232291666733,
      "v": 127
    },
    {
      "midi": 68,
      "hit": false,
      "t": 13836.19675000001,
      "d": 123.92232291666733,
      "v": 127
    },
    {
      "midi": 49,
      "hit": false,
      "t": 13965.50700000001,
      "d": 123.92232291666551,
      "v": 127
    },
    {
      "midi": 37,
      "hit": false,
      "t": 14224.12750000001,
      "d": 123.92232291666733,
      "v": 127
    },
    {
      "midi": 61,
      "hit": false,
      "t": 14224.12750000001,
      "d": 123.92232291666733,
      "v": 127
    },
    {
      "midi": 64,
      "hit": false,
      "t": 14224.12750000001,
      "d": 123.92232291666733,
      "v": 127
    },
    {
      "midi": 68,
      "hit": false,
      "t": 14224.12750000001,
      "d": 123.92232291666733,
      "v": 127
    },
    {
      "midi": 37,
      "hit": false,
      "t": 14482.74800000001,
      "d": 123.92232291666733,
      "v": 127
    },
    {
      "midi": 61,
      "hit": false,
      "t": 14482.74800000001,
      "d": 123.92232291666733,
      "v": 127
    },
    {
      "midi": 64,
      "hit": false,
      "t": 14482.74800000001,
      "d": 123.92232291666733,
      "v": 122
    },
    {
      "midi": 68,
      "hit": false,
      "t": 14482.74800000001,
      "d": 123.92232291666733,
      "v": 127
    },
    {
      "midi": 49,
      "hit": false,
      "t": 14612.058250000011,
      "d": 123.92232291666733,
      "v": 109
    },
    {
      "midi": 37,
      "hit": false,
      "t": 14870.678750000012,
      "d": 123.92232291666733,
      "v": 127
    },
    {
      "midi": 61,
      "hit": false,
      "t": 14870.678750000012,
      "d": 123.92232291666733,
      "v": 127
    },
    {
      "midi": 64,
      "hit": false,
      "t": 14870.678750000012,
      "d": 123.92232291666733,
      "v": 127
    },
    {
      "midi": 68,
      "hit": false,
      "t": 14870.678750000012,
      "d": 123.92232291666733,
      "v": 127
    },
    {
      "midi": 49,
      "hit": false,
      "t": 14999.989000000012,
      "d": 123.92232291666733,
      "v": 127
    },
    {
      "midi": 61,
      "hit": false,
      "t": 15258.609500000013,
      "d": 123.92232291666733,
      "v": 127
    },
    {
      "midi": 64,
      "hit": false,
      "t": 15258.609500000013,
      "d": 123.92232291666733,
      "v": 127
    },
    {
      "midi": 68,
      "hit": false,
      "t": 15258.609500000013,
      "d": 123.92232291666733,
      "v": 127
    },
    {
      "midi": 61,
      "hit": false,
      "t": 15517.230000000014,
      "d": 123.92232291666551,
      "v": 127
    },
    {
      "midi": 66,
      "hit": false,
      "t": 15517.230000000014,
      "d": 123.92232291666551,
      "v": 127
    },
    {
      "midi": 69,
      "hit": false,
      "t": 15517.230000000014,
      "d": 123.92232291666551,
      "v": 127
    },
    {
      "midi": 42,
      "hit": false,
      "t": 15775.850500000013,
      "d": 123.92232291666733,
      "v": 127
    },
    {
      "midi": 61,
      "hit": false,
      "t": 15905.160750000014,
      "d": 123.92232291666733,
      "v": 127
    },
    {
      "midi": 66,
      "hit": false,
      "t": 15905.160750000014,
      "d": 123.92232291666733,
      "v": 127
    },
    {
      "midi": 69,
      "hit": false,
      "t": 15905.160750000014,
      "d": 123.92232291666733,
      "v": 127
    },
    {
      "midi": 54,
      "hit": false,
      "t": 16034.471000000014,
      "d": 123.92232291666733,
      "v": 127
    },
    {
      "midi": 42,
      "hit": false,
      "t": 16293.091500000015,
      "d": 123.92232291666551,
      "v": 127
    },
    {
      "midi": 61,
      "hit": false,
      "t": 16293.091500000015,
      "d": 123.92232291666551,
      "v": 127
    },
    {
      "midi": 66,
      "hit": false,
      "t": 16293.091500000015,
      "d": 123.92232291666551,
      "v": 127
    },
    {
      "midi": 69,
      "hit": false,
      "t": 16293.091500000015,
      "d": 123.92232291666551,
      "v": 127
    },
    {
      "midi": 35,
      "hit": false,
      "t": 16551.712000000014,
      "d": 123.92232291666733,
      "v": 103
    },
    {
      "midi": 47,
      "hit": false,
      "t": 16681.022250000016,
      "d": 123.92232291666733,
      "v": 101
    },
    {
      "midi": 59,
      "hit": false,
      "t": 16810.33250000002,
      "d": 123.92232291666733,
      "v": 109
    },
    {
      "midi": 63,
      "hit": false,
      "t": 16810.33250000002,
      "d": 123.92232291666733,
      "v": 127
    },
    {
      "midi": 66,
      "hit": false,
      "t": 16810.33250000002,
      "d": 123.92232291666733,
      "v": 127
    },
    {
      "midi": 35,
      "hit": false,
      "t": 16939.64275000002,
      "d": 123.92232291666733,
      "v": 127
    },
    {
      "midi": 47,
      "hit": false,
      "t": 17068.953000000023,
      "d": 123.92232291666733,
      "v": 127
    },
    {
      "midi": 59,
      "hit": false,
      "t": 17068.953000000023,
      "d": 123.92232291666733,
      "v": 123
    },
    {
      "midi": 63,
      "hit": false,
      "t": 17068.953000000023,
      "d": 123.92232291666733,
      "v": 127
    },
    {
      "midi": 66,
      "hit": false,
      "t": 17068.953000000023,
      "d": 123.92232291666733,
      "v": 127
    },
    {
      "midi": 59,
      "hit": false,
      "t": 17198.263250000025,
      "d": 123.92232291666733,
      "v": 119
    },
    {
      "midi": 63,
      "hit": false,
      "t": 17198.263250000025,
      "d": 123.92232291666733,
      "v": 127
    },
    {
      "midi": 66,
      "hit": false,
      "t": 17198.263250000025,
      "d": 123.92232291666733,
      "v": 127
    },
    {
      "midi": 59,
      "hit": false,
      "t": 17586.19400000003,
      "d": 123.92232291666733,
      "v": 105
    },
    {
      "midi": 63,
      "hit": false,
      "t": 17586.19400000003,
      "d": 123.92232291666733,
      "v": 127
    },
    {
      "midi": 68,
      "hit": false,
      "t": 17586.19400000003,
      "d": 123.92232291666733,
      "v": 127
    },
    {
      "midi": 44,
      "hit": false,
      "t": 17844.81450000003,
      "d": 123.92232291666733,
      "v": 127
    },
    {
      "midi": 59,
      "hit": false,
      "t": 17844.81450000003,
      "d": 123.92232291666733,
      "v": 103
    },
    {
      "midi": 63,
      "hit": false,
      "t": 17844.81450000003,
      "d": 123.92232291666733,
      "v": 127
    },
    {
      "midi": 68,
      "hit": false,
      "t": 17844.81450000003,
      "d": 123.92232291666733,
      "v": 127
    },
    {
      "midi": 56,
      "hit": false,
      "t": 18103.43500000003,
      "d": 123.92232291666733,
      "v": 127
    },
    {
      "midi": 59,
      "hit": false,
      "t": 18103.43500000003,
      "d": 123.92232291666733,
      "v": 127
    },
    {
      "midi": 63,
      "hit": false,
      "t": 18103.43500000003,
      "d": 123.92232291666733,
      "v": 127
    },
    {
      "midi": 68,
      "hit": false,
      "t": 18103.43500000003,
      "d": 123.92232291666733,
      "v": 127
    },
    {
      "midi": 59,
      "hit": false,
      "t": 18232.745250000033,
      "d": 123.92232291666733,
      "v": 127
    },
    {
      "midi": 63,
      "hit": false,
      "t": 18232.745250000033,
      "d": 123.92232291666733,
      "v": 127
    },
    {
      "midi": 66,
      "hit": false,
      "t": 18232.745250000033,
      "d": 123.92232291666733,
      "v": 127
    },
    {
      "midi": 44,
      "hit": false,
      "t": 18362.055500000035,
      "d": 123.92232291666733,
      "v": 127
    },
    {
      "midi": 37,
      "hit": false,
      "t": 26896.532000000036,
      "d": 123.92232291666369,
      "v": 127
    },
    {
      "midi": 61,
      "hit": false,
      "t": 26896.532000000036,
      "d": 123.92232291666369,
      "v": 127
    },
    {
      "midi": 64,
      "hit": false,
      "t": 26896.532000000036,
      "d": 123.92232291666369,
      "v": 127
    },
    {
      "midi": 68,
      "hit": false,
      "t": 26896.532000000036,
      "d": 123.92232291666369,
      "v": 127
    },
    {
      "midi": 49,
      "hit": false,
      "t": 27025.842250000034,
      "d": 123.92232291666733,
      "v": 107
    },
    {
      "midi": 37,
      "hit": false,
      "t": 27284.462750000035,
      "d": 123.92232291666733,
      "v": 109
    },
    {
      "midi": 61,
      "hit": false,
      "t": 27284.462750000035,
      "d": 123.92232291666733,
      "v": 127
    },
    {
      "midi": 64,
      "hit": false,
      "t": 27284.462750000035,
      "d": 123.92232291666733,
      "v": 127
    },
    {
      "midi": 68,
      "hit": false,
      "t": 27284.462750000035,
      "d": 123.92232291666733,
      "v": 127
    },
    {
      "midi": 49,
      "hit": false,
      "t": 27413.773000000037,
      "d": 123.92232291666733,
      "v": 127
    },
    {
      "midi": 61,
      "hit": false,
      "t": 27672.39350000004,
      "d": 123.92232291666733,
      "v": 127
    },
    {
      "midi": 64,
      "hit": false,
      "t": 27672.39350000004,
      "d": 123.92232291666733,
      "v": 127
    },
    {
      "midi": 68,
      "hit": false,
      "t": 27672.39350000004,
      "d": 123.92232291666733,
      "v": 127
    },
    {
      "midi": 61,
      "hit": false,
      "t": 27931.01400000004,
      "d": 123.92232291666733,
      "v": 127
    },
    {
      "midi": 66,
      "hit": false,
      "t": 27931.01400000004,
      "d": 123.92232291666733,
      "v": 127
    },
    {
      "midi": 69,
      "hit": false,
      "t": 27931.01400000004,
      "d": 123.92232291666733,
      "v": 127
    },
    {
      "midi": 42,
      "hit": false,
      "t": 28189.63450000004,
      "d": 123.92232291666733,
      "v": 127
    },
    {
      "midi": 61,
      "hit": false,
      "t": 28318.944750000042,
      "d": 123.92232291666733,
      "v": 127
    },
    {
      "midi": 66,
      "hit": false,
      "t": 28318.944750000042,
      "d": 123.92232291666733,
      "v": 127
    },
    {
      "midi": 69,
      "hit": false,
      "t": 28318.944750000042,
      "d": 123.92232291666733,
      "v": 127
    },
    {
      "midi": 54,
      "hit": false,
      "t": 28448.255000000045,
      "d": 123.92232291666733,
      "v": 127
    },
    {
      "midi": 42,
      "hit": false,
      "t": 28706.875500000046,
      "d": 123.92232291666733,
      "v": 127
    },
    {
      "midi": 61,
      "hit": false,
      "t": 28706.875500000046,
      "d": 123.92232291666733,
      "v": 127
    },
    {
      "midi": 66,
      "hit": false,
      "t": 28706.875500000046,
      "d": 123.92232291666733,
      "v": 127
    },
    {
      "midi": 69,
      "hit": false,
      "t": 28706.875500000046,
      "d": 123.92232291666733,
      "v": 127
    },
    {
      "midi": 35,
      "hit": false,
      "t": 28965.496000000043,
      "d": 123.92232291666733,
      "v": 127
    },
    {
      "midi": 47,
      "hit": false,
      "t": 29094.806250000045,
      "d": 123.92232291666733,
      "v": 127
    },
    {
      "midi": 59,
      "hit": false,
      "t": 29224.116500000047,
      "d": 123.92232291666733,
      "v": 115
    },
    {
      "midi": 63,
      "hit": false,
      "t": 29224.116500000047,
      "d": 123.92232291666733,
      "v": 127
    },
    {
      "midi": 66,
      "hit": false,
      "t": 29224.116500000047,
      "d": 123.92232291666733,
      "v": 127
    },
    {
      "midi": 35,
      "hit": false,
      "t": 29353.42675000005,
      "d": 123.92232291666733,
      "v": 127
    },
    {
      "midi": 47,
      "hit": false,
      "t": 29482.737000000052,
      "d": 123.92232291666733,
      "v": 127
    },
    {
      "midi": 59,
      "hit": false,
      "t": 29482.737000000052,
      "d": 123.92232291666733,
      "v": 112
    },
    {
      "midi": 63,
      "hit": false,
      "t": 29482.737000000052,
      "d": 123.92232291666733,
      "v": 127
    },
    {
      "midi": 66,
      "hit": false,
      "t": 29482.737000000052,
      "d": 123.92232291666733,
      "v": 127
    },
    {
      "midi": 59,
      "hit": false,
      "t": 29612.047250000054,
      "d": 123.92232291666733,
      "v": 127
    },
    {
      "midi": 63,
      "hit": false,
      "t": 29612.047250000054,
      "d": 123.92232291666733,
      "v": 127
    },
    {
      "midi": 66,
      "hit": false,
      "t": 29612.047250000054,
      "d": 123.92232291666733,
      "v": 127
    },
    {
      "midi": 61,
      "hit": false,
      "t": 29999.978000000054,
      "d": 123.92232291666733,
      "v": 127
    },
    {
      "midi": 64,
      "hit": false,
      "t": 29999.978000000054,
      "d": 123.92232291666733,
      "v": 127
    },
    {
      "midi": 68,
      "hit": false,
      "t": 29999.978000000054,
      "d": 123.92232291666733,
      "v": 127
    },
    {
      "midi": 37,
      "hit": false,
      "t": 30258.598500000055,
      "d": 253.23257291666596,
      "v": 127
    },
    {
      "midi": 61,
      "hit": false,
      "t": 30387.908750000053,
      "d": 123.92232291666733,
      "v": 127
    },
    {
      "midi": 64,
      "hit": false,
      "t": 30387.908750000053,
      "d": 123.92232291666733,
      "v": 127
    },
    {
      "midi": 68,
      "hit": false,
      "t": 30387.908750000053,
      "d": 123.92232291666733,
      "v": 127
    },
    {
      "midi": 49,
      "hit": false,
      "t": 30517.219000000056,
      "d": 123.92232291666733,
      "v": 127
    },
    {
      "midi": 37,
      "hit": false,
      "t": 30775.839500000056,
      "d": 123.92232291666733,
      "v": 127
    },
    {
      "midi": 61,
      "hit": false,
      "t": 30775.839500000056,
      "d": 123.92232291666733,
      "v": 127
    },
    {
      "midi": 64,
      "hit": false,
      "t": 30775.839500000056,
      "d": 123.92232291666733,
      "v": 127
    },
    {
      "midi": 68,
      "hit": false,
      "t": 30775.839500000056,
      "d": 123.92232291666733,
      "v": 127
    },
    {
      "midi": 37,
      "hit": false,
      "t": 31034.460000000057,
      "d": 123.92232291666733,
      "v": 127
    },
    {
      "midi": 61,
      "hit": false,
      "t": 31034.460000000057,
      "d": 123.92232291666733,
      "v": 127
    },
    {
      "midi": 64,
      "hit": false,
      "t": 31034.460000000057,
      "d": 123.92232291666733,
      "v": 122
    },
    {
      "midi": 68,
      "hit": false,
      "t": 31034.460000000057,
      "d": 123.92232291666733,
      "v": 127
    },
    {
      "midi": 49,
      "hit": false,
      "t": 31163.77025000006,
      "d": 123.92232291666733,
      "v": 109
    },
    {
      "midi": 37,
      "hit": false,
      "t": 31422.39075000006,
      "d": 123.92232291666733,
      "v": 127
    },
    {
      "midi": 61,
      "hit": false,
      "t": 31422.39075000006,
      "d": 123.92232291666733,
      "v": 127
    },
    {
      "midi": 64,
      "hit": false,
      "t": 31422.39075000006,
      "d": 123.92232291666733,
      "v": 127
    },
    {
      "midi": 68,
      "hit": false,
      "t": 31422.39075000006,
      "d": 123.92232291666733,
      "v": 127
    },
    {
      "midi": 49,
      "hit": false,
      "t": 31551.701000000063,
      "d": 123.92232291666733,
      "v": 127
    },
    {
      "midi": 61,
      "hit": false,
      "t": 31810.321500000064,
      "d": 123.92232291666733,
      "v": 127
    },
    {
      "midi": 64,
      "hit": false,
      "t": 31810.321500000064,
      "d": 123.92232291666733,
      "v": 127
    },
    {
      "midi": 68,
      "hit": false,
      "t": 31810.321500000064,
      "d": 123.92232291666733,
      "v": 127
    },
    {
      "midi": 61,
      "hit": false,
      "t": 32068.942000000065,
      "d": 123.92232291666733,
      "v": 127
    },
    {
      "midi": 66,
      "hit": false,
      "t": 32068.942000000065,
      "d": 123.92232291666733,
      "v": 127
    },
    {
      "midi": 69,
      "hit": false,
      "t": 32068.942000000065,
      "d": 123.92232291666733,
      "v": 127
    },
    {
      "midi": 42,
      "hit": false,
      "t": 32327.562500000065,
      "d": 123.92232291666733,
      "v": 127
    },
    {
      "midi": 61,
      "hit": false,
      "t": 32456.872750000068,
      "d": 123.92232291666733,
      "v": 127
    },
    {
      "midi": 66,
      "hit": false,
      "t": 32456.872750000068,
      "d": 123.92232291666733,
      "v": 127
    },
    {
      "midi": 69,
      "hit": false,
      "t": 32456.872750000068,
      "d": 123.92232291666733,
      "v": 127
    },
    {
      "midi": 54,
      "hit": false,
      "t": 32586.18300000007,
      "d": 123.92232291666733,
      "v": 127
    },
    {
      "midi": 42,
      "hit": false,
      "t": 32844.80350000007,
      "d": 123.92232291666733,
      "v": 127
    },
    {
      "midi": 61,
      "hit": false,
      "t": 32844.80350000007,
      "d": 123.92232291666733,
      "v": 127
    },
    {
      "midi": 66,
      "hit": false,
      "t": 32844.80350000007,
      "d": 123.92232291666733,
      "v": 127
    },
    {
      "midi": 69,
      "hit": false,
      "t": 32844.80350000007,
      "d": 123.92232291666733,
      "v": 127
    },
    {
      "midi": 35,
      "hit": false,
      "t": 33103.42400000007,
      "d": 123.92232291666733,
      "v": 103
    },
    {
      "midi": 47,
      "hit": false,
      "t": 33232.734250000074,
      "d": 123.92232291666733,
      "v": 101
    },
    {
      "midi": 59,
      "hit": false,
      "t": 33362.04450000008,
      "d": 123.92232291666733,
      "v": 109
    },
    {
      "midi": 63,
      "hit": false,
      "t": 33362.04450000008,
      "d": 123.92232291666733,
      "v": 127
    },
    {
      "midi": 66,
      "hit": false,
      "t": 33362.04450000008,
      "d": 123.92232291666733,
      "v": 127
    },
    {
      "midi": 35,
      "hit": false,
      "t": 33491.35475000008,
      "d": 123.92232291666733,
      "v": 127
    },
    {
      "midi": 47,
      "hit": false,
      "t": 33620.66500000008,
      "d": 123.92232291666733,
      "v": 127
    },
    {
      "midi": 59,
      "hit": false,
      "t": 33620.66500000008,
      "d": 123.92232291666733,
      "v": 123
    },
    {
      "midi": 63,
      "hit": false,
      "t": 33620.66500000008,
      "d": 123.92232291666733,
      "v": 127
    },
    {
      "midi": 66,
      "hit": false,
      "t": 33620.66500000008,
      "d": 123.92232291666733,
      "v": 127
    },
    {
      "midi": 59,
      "hit": false,
      "t": 33749.97525000008,
      "d": 123.92232291666733,
      "v": 119
    },
    {
      "midi": 63,
      "hit": false,
      "t": 33749.97525000008,
      "d": 123.92232291666733,
      "v": 127
    },
    {
      "midi": 66,
      "hit": false,
      "t": 33749.97525000008,
      "d": 123.92232291666733,
      "v": 127
    },
    {
      "midi": 59,
      "hit": false,
      "t": 34137.90600000008,
      "d": 123.92232291666733,
      "v": 105
    },
    {
      "midi": 63,
      "hit": false,
      "t": 34137.90600000008,
      "d": 123.92232291666733,
      "v": 127
    },
    {
      "midi": 68,
      "hit": false,
      "t": 34137.90600000008,
      "d": 123.92232291666733,
      "v": 127
    },
    {
      "midi": 44,
      "hit": false,
      "t": 34396.52650000008,
      "d": 123.92232291666733,
      "v": 127
    },
    {
      "midi": 59,
      "hit": false,
      "t": 34396.52650000008,
      "d": 123.92232291666733,
      "v": 103
    },
    {
      "midi": 63,
      "hit": false,
      "t": 34396.52650000008,
      "d": 123.92232291666733,
      "v": 127
    },
    {
      "midi": 68,
      "hit": false,
      "t": 34396.52650000008,
      "d": 123.92232291666733,
      "v": 127
    },
    {
      "midi": 56,
      "hit": false,
      "t": 34655.14700000008,
      "d": 123.92232291666733,
      "v": 127
    },
    {
      "midi": 59,
      "hit": false,
      "t": 34655.14700000008,
      "d": 123.92232291666733,
      "v": 127
    },
    {
      "midi": 63,
      "hit": false,
      "t": 34655.14700000008,
      "d": 123.92232291666733,
      "v": 127
    },
    {
      "midi": 68,
      "hit": false,
      "t": 34655.14700000008,
      "d": 123.92232291666733,
      "v": 127
    },
    {
      "midi": 59,
      "hit": false,
      "t": 34784.45725000008,
      "d": 123.92232291666733,
      "v": 127
    },
    {
      "midi": 63,
      "hit": false,
      "t": 34784.45725000008,
      "d": 123.92232291666733,
      "v": 127
    },
    {
      "midi": 66,
      "hit": false,
      "t": 34784.45725000008,
      "d": 123.92232291666733,
      "v": 127
    },
    {
      "midi": 44,
      "hit": false,
      "t": 34913.76750000008,
      "d": 123.92232291666733,
      "v": 127
    },
    {
      "midi": 37,
      "hit": false,
      "t": 35172.38800000008,
      "d": 123.92232291666733,
      "v": 127
    },
    {
      "midi": 61,
      "hit": false,
      "t": 35172.38800000008,
      "d": 123.92232291666733,
      "v": 127
    },
    {
      "midi": 64,
      "hit": false,
      "t": 35172.38800000008,
      "d": 123.92232291666733,
      "v": 127
    },
    {
      "midi": 68,
      "hit": false,
      "t": 35172.38800000008,
      "d": 123.92232291666733,
      "v": 127
    },
    {
      "midi": 49,
      "hit": false,
      "t": 35301.69825000008,
      "d": 123.92232291666733,
      "v": 107
    },
    {
      "midi": 37,
      "hit": false,
      "t": 35560.31875000008,
      "d": 123.92232291666733,
      "v": 109
    },
    {
      "midi": 61,
      "hit": false,
      "t": 35560.31875000008,
      "d": 123.92232291666733,
      "v": 127
    },
    {
      "midi": 64,
      "hit": false,
      "t": 35560.31875000008,
      "d": 123.92232291666733,
      "v": 127
    },
    {
      "midi": 68,
      "hit": false,
      "t": 35560.31875000008,
      "d": 123.92232291666733,
      "v": 127
    },
    {
      "midi": 49,
      "hit": false,
      "t": 35689.62900000008,
      "d": 123.92232291666733,
      "v": 127
    },
    {
      "midi": 61,
      "hit": false,
      "t": 35948.24950000008,
      "d": 123.92232291666733,
      "v": 127
    },
    {
      "midi": 64,
      "hit": false,
      "t": 35948.24950000008,
      "d": 123.92232291666733,
      "v": 127
    },
    {
      "midi": 68,
      "hit": false,
      "t": 35948.24950000008,
      "d": 123.92232291666733,
      "v": 127
    },
    {
      "midi": 61,
      "hit": false,
      "t": 36206.870000000075,
      "d": 123.92232291666733,
      "v": 127
    },
    {
      "midi": 66,
      "hit": false,
      "t": 36206.870000000075,
      "d": 123.92232291666733,
      "v": 127
    },
    {
      "midi": 69,
      "hit": false,
      "t": 36206.870000000075,
      "d": 123.92232291666733,
      "v": 127
    },
    {
      "midi": 42,
      "hit": false,
      "t": 36465.49050000007,
      "d": 123.92232291666733,
      "v": 127
    },
    {
      "midi": 61,
      "hit": false,
      "t": 36594.800750000075,
      "d": 123.92232291666733,
      "v": 127
    },
    {
      "midi": 66,
      "hit": false,
      "t": 36594.800750000075,
      "d": 123.92232291666733,
      "v": 127
    },
    {
      "midi": 69,
      "hit": false,
      "t": 36594.800750000075,
      "d": 123.92232291666733,
      "v": 127
    },
    {
      "midi": 54,
      "hit": false,
      "t": 36724.11100000008,
      "d": 123.92232291666733,
      "v": 127
    },
    {
      "midi": 42,
      "hit": false,
      "t": 36982.731500000074,
      "d": 123.92232291666733,
      "v": 127
    },
    {
      "midi": 61,
      "hit": false,
      "t": 36982.731500000074,
      "d": 123.92232291666733,
      "v": 127
    },
    {
      "midi": 66,
      "hit": false,
      "t": 36982.731500000074,
      "d": 123.92232291666733,
      "v": 127
    },
    {
      "midi": 69,
      "hit": false,
      "t": 36982.731500000074,
      "d": 123.92232291666733,
      "v": 127
    },
    {
      "midi": 35,
      "hit": false,
      "t": 37241.35200000007,
      "d": 123.92232291666733,
      "v": 127
    },
    {
      "midi": 47,
      "hit": false,
      "t": 37370.662250000074,
      "d": 123.92232291666733,
      "v": 127
    },
    {
      "midi": 59,
      "hit": false,
      "t": 37499.972500000076,
      "d": 123.92232291666733,
      "v": 115
    },
    {
      "midi": 63,
      "hit": false,
      "t": 37499.972500000076,
      "d": 123.92232291666733,
      "v": 127
    },
    {
      "midi": 66,
      "hit": false,
      "t": 37499.972500000076,
      "d": 123.92232291666733,
      "v": 127
    },
    {
      "midi": 35,
      "hit": false,
      "t": 37629.28275000008,
      "d": 123.92232291666733,
      "v": 127
    },
    {
      "midi": 47,
      "hit": false,
      "t": 37758.59300000008,
      "d": 123.92232291666733,
      "v": 127
    },
    {
      "midi": 59,
      "hit": false,
      "t": 37758.59300000008,
      "d": 123.92232291666733,
      "v": 112
    },
    {
      "midi": 63,
      "hit": false,
      "t": 37758.59300000008,
      "d": 123.92232291666733,
      "v": 127
    },
    {
      "midi": 66,
      "hit": false,
      "t": 37758.59300000008,
      "d": 123.92232291666733,
      "v": 127
    },
    {
      "midi": 59,
      "hit": false,
      "t": 37887.90325000008,
      "d": 123.92232291666733,
      "v": 127
    },
    {
      "midi": 63,
      "hit": false,
      "t": 37887.90325000008,
      "d": 123.92232291666733,
      "v": 127
    },
    {
      "midi": 66,
      "hit": false,
      "t": 37887.90325000008,
      "d": 123.92232291666733,
      "v": 127
    },
    {
      "midi": 61,
      "hit": false,
      "t": 38275.83400000008,
      "d": 123.92232291666733,
      "v": 127
    },
    {
      "midi": 64,
      "hit": false,
      "t": 38275.83400000008,
      "d": 123.92232291666733,
      "v": 127
    },
    {
      "midi": 68,
      "hit": false,
      "t": 38275.83400000008,
      "d": 123.92232291666733,
      "v": 127
    },
    {
      "midi": 37,
      "hit": false,
      "t": 38534.45450000008,
      "d": 253.2325729166696,
      "v": 127
    },
    {
      "midi": 61,
      "hit": false,
      "t": 38663.76475000008,
      "d": 123.92232291666733,
      "v": 127
    },
    {
      "midi": 64,
      "hit": false,
      "t": 38663.76475000008,
      "d": 123.92232291666733,
      "v": 127
    },
    {
      "midi": 68,
      "hit": false,
      "t": 38663.76475000008,
      "d": 123.92232291666733,
      "v": 127
    },
    {
      "midi": 49,
      "hit": false,
      "t": 38793.075000000084,
      "d": 123.9223229166746,
      "v": 127
    },
    {
      "midi": 37,
      "hit": false,
      "t": 39051.69550000009,
      "d": 123.92232291666733,
      "v": 127
    },
    {
      "midi": 61,
      "hit": false,
      "t": 39051.69550000009,
      "d": 123.92232291666733,
      "v": 127
    },
    {
      "midi": 64,
      "hit": false,
      "t": 39051.69550000009,
      "d": 123.92232291666733,
      "v": 127
    },
    {
      "midi": 68,
      "hit": false,
      "t": 39051.69550000009,
      "d": 123.92232291666733,
      "v": 127
    },
    {
      "midi": 37,
      "hit": false,
      "t": 39310.31600000009,
      "d": 123.92232291666733,
      "v": 127
    },
    {
      "midi": 61,
      "hit": false,
      "t": 39310.31600000009,
      "d": 123.92232291666733,
      "v": 127
    },
    {
      "midi": 64,
      "hit": false,
      "t": 39310.31600000009,
      "d": 123.92232291666733,
      "v": 122
    },
    {
      "midi": 68,
      "hit": false,
      "t": 39310.31600000009,
      "d": 123.92232291666733,
      "v": 127
    },
    {
      "midi": 49,
      "hit": false,
      "t": 39439.626250000096,
      "d": 123.92232291666733,
      "v": 109
    },
    {
      "midi": 37,
      "hit": false,
      "t": 39698.24675000009,
      "d": 123.92232291666733,
      "v": 127
    },
    {
      "midi": 61,
      "hit": false,
      "t": 39698.24675000009,
      "d": 123.92232291666733,
      "v": 127
    },
    {
      "midi": 64,
      "hit": false,
      "t": 39698.24675000009,
      "d": 123.92232291666733,
      "v": 127
    },
    {
      "midi": 68,
      "hit": false,
      "t": 39698.24675000009,
      "d": 123.92232291666733,
      "v": 127
    },
    {
      "midi": 49,
      "hit": false,
      "t": 39827.557000000095,
      "d": 123.92232291666733,
      "v": 127
    },
    {
      "midi": 61,
      "hit": false,
      "t": 40086.17750000009,
      "d": 123.92232291666733,
      "v": 127
    },
    {
      "midi": 64,
      "hit": false,
      "t": 40086.17750000009,
      "d": 123.92232291666733,
      "v": 127
    },
    {
      "midi": 68,
      "hit": false,
      "t": 40086.17750000009,
      "d": 123.92232291666733,
      "v": 127
    },
    {
      "midi": 61,
      "hit": false,
      "t": 40344.7980000001,
      "d": 123.92232291666733,
      "v": 127
    },
    {
      "midi": 66,
      "hit": false,
      "t": 40344.7980000001,
      "d": 123.92232291666733,
      "v": 127
    },
    {
      "midi": 69,
      "hit": false,
      "t": 40344.7980000001,
      "d": 123.92232291666733,
      "v": 127
    },
    {
      "midi": 42,
      "hit": false,
      "t": 40603.418500000094,
      "d": 123.92232291666733,
      "v": 127
    },
    {
      "midi": 61,
      "hit": false,
      "t": 40732.7287500001,
      "d": 123.92232291666733,
      "v": 127
    },
    {
      "midi": 66,
      "hit": false,
      "t": 40732.7287500001,
      "d": 123.92232291666733,
      "v": 127
    },
    {
      "midi": 69,
      "hit": false,
      "t": 40732.7287500001,
      "d": 123.92232291666733,
      "v": 127
    },
    {
      "midi": 54,
      "hit": false,
      "t": 40862.0390000001,
      "d": 123.92232291666733,
      "v": 127
    },
    {
      "midi": 42,
      "hit": false,
      "t": 41120.659500000096,
      "d": 123.92232291666733,
      "v": 127
    },
    {
      "midi": 61,
      "hit": false,
      "t": 41120.659500000096,
      "d": 123.92232291666733,
      "v": 127
    },
    {
      "midi": 66,
      "hit": false,
      "t": 41120.659500000096,
      "d": 123.92232291666733,
      "v": 127
    },
    {
      "midi": 69,
      "hit": false,
      "t": 41120.659500000096,
      "d": 123.92232291666733,
      "v": 127
    },
    {
      "midi": 35,
      "hit": false,
      "t": 41379.2800000001,
      "d": 123.92232291666733,
      "v": 103
    },
    {
      "midi": 47,
      "hit": false,
      "t": 41508.5902500001,
      "d": 123.92232291666733,
      "v": 101
    },
    {
      "midi": 59,
      "hit": false,
      "t": 41637.900500000105,
      "d": 123.92232291666733,
      "v": 109
    },
    {
      "midi": 63,
      "hit": false,
      "t": 41637.900500000105,
      "d": 123.92232291666733,
      "v": 127
    },
    {
      "midi": 66,
      "hit": false,
      "t": 41637.900500000105,
      "d": 123.92232291666733,
      "v": 127
    },
    {
      "midi": 35,
      "hit": false,
      "t": 41767.21075000011,
      "d": 123.92232291666733,
      "v": 127
    },
    {
      "midi": 47,
      "hit": false,
      "t": 41896.52100000011,
      "d": 123.92232291666733,
      "v": 127
    },
    {
      "midi": 59,
      "hit": false,
      "t": 41896.52100000011,
      "d": 123.92232291666733,
      "v": 123
    },
    {
      "midi": 63,
      "hit": false,
      "t": 41896.52100000011,
      "d": 123.92232291666733,
      "v": 127
    },
    {
      "midi": 66,
      "hit": false,
      "t": 41896.52100000011,
      "d": 123.92232291666733,
      "v": 127
    },
    {
      "midi": 59,
      "hit": false,
      "t": 42025.83125000011,
      "d": 123.92232291666733,
      "v": 119
    },
    {
      "midi": 63,
      "hit": false,
      "t": 42025.83125000011,
      "d": 123.92232291666733,
      "v": 127
    },
    {
      "midi": 66,
      "hit": false,
      "t": 42025.83125000011,
      "d": 123.92232291666733,
      "v": 127
    },
    {
      "midi": 59,
      "hit": false,
      "t": 42413.76200000011,
      "d": 123.92232291666733,
      "v": 105
    },
    {
      "midi": 63,
      "hit": false,
      "t": 42413.76200000011,
      "d": 123.92232291666733,
      "v": 127
    },
    {
      "midi": 68,
      "hit": false,
      "t": 42413.76200000011,
      "d": 123.92232291666733,
      "v": 127
    },
    {
      "midi": 44,
      "hit": false,
      "t": 42672.38250000011,
      "d": 123.92232291666733,
      "v": 127
    },
    {
      "midi": 59,
      "hit": false,
      "t": 42672.38250000011,
      "d": 123.92232291666733,
      "v": 103
    },
    {
      "midi": 63,
      "hit": false,
      "t": 42672.38250000011,
      "d": 123.92232291666733,
      "v": 127
    },
    {
      "midi": 68,
      "hit": false,
      "t": 42672.38250000011,
      "d": 123.92232291666733,
      "v": 127
    },
    {
      "midi": 56,
      "hit": false,
      "t": 42931.003000000106,
      "d": 123.92232291666733,
      "v": 127
    },
    {
      "midi": 59,
      "hit": false,
      "t": 42931.003000000106,
      "d": 123.92232291666733,
      "v": 127
    },
    {
      "midi": 63,
      "hit": false,
      "t": 42931.003000000106,
      "d": 123.92232291666733,
      "v": 127
    },
    {
      "midi": 68,
      "hit": false,
      "t": 42931.003000000106,
      "d": 123.92232291666733,
      "v": 127
    },
    {
      "midi": 59,
      "hit": false,
      "t": 43060.31325000011,
      "d": 123.92232291666733,
      "v": 127
    },
    {
      "midi": 63,
      "hit": false,
      "t": 43060.31325000011,
      "d": 123.92232291666733,
      "v": 127
    },
    {
      "midi": 66,
      "hit": false,
      "t": 43060.31325000011,
      "d": 123.92232291666733,
      "v": 127
    },
    {
      "midi": 44,
      "hit": false,
      "t": 43189.62350000011,
      "d": 123.92232291666733,
      "v": 127
    },
    {
      "midi": 61,
      "hit": false,
      "t": 44999.96700000011,
      "d": 382.5428229166646,
      "v": 127
    },
    {
      "midi": 64,
      "hit": false,
      "t": 44999.96700000011,
      "d": 382.5428229166646,
      "v": 127
    },
    {
      "midi": 68,
      "hit": false,
      "t": 44999.96700000011,
      "d": 382.5428229166646,
      "v": 127
    },
    {
      "midi": 37,
      "hit": false,
      "t": 45258.58750000011,
      "d": 511.85307291666686,
      "v": 127
    },
    {
      "midi": 61,
      "hit": false,
      "t": 45517.20800000011,
      "d": 253.2325729166696,
      "v": 127
    },
    {
      "midi": 64,
      "hit": false,
      "t": 45517.20800000011,
      "d": 253.2325729166696,
      "v": 127
    },
    {
      "midi": 68,
      "hit": false,
      "t": 45517.20800000011,
      "d": 253.2325729166696,
      "v": 127
    },
    {
      "midi": 61,
      "hit": false,
      "t": 45905.13875000011,
      "d": 123.92232291666733,
      "v": 127
    },
    {
      "midi": 64,
      "hit": false,
      "t": 45905.13875000011,
      "d": 123.92232291666733,
      "v": 127
    },
    {
      "midi": 68,
      "hit": false,
      "t": 45905.13875000011,
      "d": 123.92232291666733,
      "v": 127
    },
    {
      "midi": 37,
      "hit": false,
      "t": 46034.44900000011,
      "d": 253.2325729166696,
      "v": 127
    },
    {
      "midi": 61,
      "hit": false,
      "t": 46293.069500000114,
      "d": 382.5428229166646,
      "v": 127
    },
    {
      "midi": 64,
      "hit": false,
      "t": 46293.069500000114,
      "d": 382.5428229166646,
      "v": 127
    },
    {
      "midi": 68,
      "hit": false,
      "t": 46293.069500000114,
      "d": 382.5428229166646,
      "v": 127
    },
    {
      "midi": 49,
      "hit": false,
      "t": 46293.069500000114,
      "d": 511.85307291666686,
      "v": 127
    },
    {
      "midi": 37,
      "hit": false,
      "t": 46810.310500000116,
      "d": 253.2325729166696,
      "v": 127
    },
    {
      "midi": 61,
      "hit": false,
      "t": 46810.310500000116,
      "d": 382.54282291667187,
      "v": 127
    },
    {
      "midi": 64,
      "hit": false,
      "t": 46810.310500000116,
      "d": 382.54282291667187,
      "v": 127
    },
    {
      "midi": 68,
      "hit": false,
      "t": 46810.310500000116,
      "d": 382.54282291667187,
      "v": 127
    },
    {
      "midi": 49,
      "hit": false,
      "t": 47068.93100000012,
      "d": 511.85307291666686,
      "v": 127
    },
    {
      "midi": 42,
      "hit": false,
      "t": 47586.17200000012,
      "d": 511.85307291666686,
      "v": 127
    },
    {
      "midi": 54,
      "hit": false,
      "t": 48103.413000000124,
      "d": 253.2325729166696,
      "v": 127
    },
    {
      "midi": 61,
      "hit": false,
      "t": 48362.03350000013,
      "d": 123.92232291666733,
      "v": 127
    },
    {
      "midi": 66,
      "hit": false,
      "t": 48362.03350000013,
      "d": 123.92232291666733,
      "v": 127
    },
    {
      "midi": 69,
      "hit": false,
      "t": 48362.03350000013,
      "d": 123.92232291666733,
      "v": 127
    },
    {
      "midi": 42,
      "hit": false,
      "t": 48362.03350000013,
      "d": 382.54282291667187,
      "v": 127
    },
    {
      "midi": 61,
      "hit": false,
      "t": 48491.34375000013,
      "d": 253.2325729166696,
      "v": 103
    },
    {
      "midi": 66,
      "hit": false,
      "t": 48491.34375000013,
      "d": 253.2325729166696,
      "v": 127
    },
    {
      "midi": 69,
      "hit": false,
      "t": 48491.34375000013,
      "d": 253.2325729166696,
      "v": 127
    },
    {
      "midi": 61,
      "hit": false,
      "t": 48749.964250000136,
      "d": 253.2325729166696,
      "v": 127
    },
    {
      "midi": 66,
      "hit": false,
      "t": 48749.964250000136,
      "d": 253.2325729166696,
      "v": 127
    },
    {
      "midi": 69,
      "hit": false,
      "t": 48749.964250000136,
      "d": 253.2325729166696,
      "v": 127
    },
    {
      "midi": 42,
      "hit": false,
      "t": 48879.27450000014,
      "d": 253.2325729166696,
      "v": 127
    },
    {
      "midi": 54,
      "hit": false,
      "t": 49137.89500000014,
      "d": 123.92232291666733,
      "v": 127
    },
    {
      "midi": 61,
      "hit": false,
      "t": 49137.89500000014,
      "d": 123.92232291666733,
      "v": 127
    },
    {
      "midi": 66,
      "hit": false,
      "t": 49137.89500000014,
      "d": 123.92232291666733,
      "v": 127
    },
    {
      "midi": 69,
      "hit": false,
      "t": 49137.89500000014,
      "d": 123.92232291666733,
      "v": 127
    },
    {
      "midi": 35,
      "hit": false,
      "t": 49655.13600000014,
      "d": 382.5428229166646,
      "v": 127
    },
    {
      "midi": 59,
      "hit": false,
      "t": 49913.756500000134,
      "d": 511.85307291666686,
      "v": 127
    },
    {
      "midi": 63,
      "hit": false,
      "t": 49913.756500000134,
      "d": 511.85307291666686,
      "v": 127
    },
    {
      "midi": 66,
      "hit": false,
      "t": 49913.756500000134,
      "d": 641.1633229166691,
      "v": 127
    },
    {
      "midi": 47,
      "hit": false,
      "t": 50172.37700000013,
      "d": 253.2325729166696,
      "v": 127
    },
    {
      "midi": 37,
      "hit": false,
      "t": 50430.997500000136,
      "d": 123.92232291666733,
      "v": 127
    },
    {
      "midi": 35,
      "hit": false,
      "t": 50430.997500000136,
      "d": 511.85307291666686,
      "v": 127
    },
    {
      "midi": 47,
      "hit": false,
      "t": 50948.23850000014,
      "d": 382.5428229166646,
      "v": 127
    },
    {
      "midi": 59,
      "hit": false,
      "t": 50948.23850000014,
      "d": 382.5428229166646,
      "v": 112
    },
    {
      "midi": 63,
      "hit": false,
      "t": 50948.23850000014,
      "d": 382.5428229166646,
      "v": 127
    },
    {
      "midi": 66,
      "hit": false,
      "t": 50948.23850000014,
      "d": 382.5428229166646,
      "v": 127
    },
    {
      "midi": 37,
      "hit": false,
      "t": 51724.10000000013,
      "d": 511.85307291666686,
      "v": 127
    },
    {
      "midi": 49,
      "hit": false,
      "t": 52241.34100000013,
      "d": 253.2325729166696,
      "v": 127
    },
    {
      "midi": 37,
      "hit": false,
      "t": 52499.961500000136,
      "d": 123.92232291666733,
      "v": 127
    },
    {
      "midi": 61,
      "hit": false,
      "t": 52499.961500000136,
      "d": 123.92232291666733,
      "v": 127
    },
    {
      "midi": 64,
      "hit": false,
      "t": 52499.961500000136,
      "d": 123.92232291666733,
      "v": 127
    },
    {
      "midi": 68,
      "hit": false,
      "t": 52499.961500000136,
      "d": 123.92232291666733,
      "v": 127
    },
    {
      "midi": 64,
      "hit": false,
      "t": 52629.27175000014,
      "d": 123.92232291666733,
      "v": 127
    },
    {
      "midi": 68,
      "hit": false,
      "t": 52629.27175000014,
      "d": 123.92232291666733,
      "v": 127
    },
    {
      "midi": 61,
      "hit": false,
      "t": 52629.27175000014,
      "d": 253.2325729166696,
      "v": 127
    },
    {
      "midi": 49,
      "hit": false,
      "t": 52629.27175000014,
      "d": 641.1633229166691,
      "v": 127
    },
    {
      "midi": 64,
      "hit": false,
      "t": 53275.82300000014,
      "d": 253.2325729166696,
      "v": 126
    },
    {
      "midi": 37,
      "hit": false,
      "t": 53275.82300000014,
      "d": 382.54282291667187,
      "v": 127
    },
    {
      "midi": 61,
      "hit": false,
      "t": 53275.82300000014,
      "d": 382.54282291667187,
      "v": 96
    },
    {
      "midi": 68,
      "hit": false,
      "t": 53275.82300000014,
      "d": 382.54282291667187,
      "v": 111
    },
    {
      "midi": 61,
      "hit": false,
      "t": 53793.064000000144,
      "d": 511.85307291666686,
      "v": 127
    },
    {
      "midi": 64,
      "hit": false,
      "t": 53793.064000000144,
      "d": 511.85307291666686,
      "v": 127
    },
    {
      "midi": 68,
      "hit": false,
      "t": 53793.064000000144,
      "d": 511.85307291666686,
      "v": 127
    },
    {
      "midi": 37,
      "hit": false,
      "t": 53793.064000000144,
      "d": 770.4735729166641,
      "v": 127
    },
    {
      "midi": 64,
      "hit": false,
      "t": 54568.92550000014,
      "d": 123.92232291666733,
      "v": 127
    },
    {
      "midi": 61,
      "hit": false,
      "t": 54568.92550000014,
      "d": 253.2325729166696,
      "v": 127
    },
    {
      "midi": 68,
      "hit": false,
      "t": 54568.92550000014,
      "d": 253.2325729166696,
      "v": 127
    },
    {
      "midi": 49,
      "hit": false,
      "t": 54568.92550000014,
      "d": 382.54282291667187,
      "v": 127
    },
    {
      "midi": 61,
      "hit": false,
      "t": 55086.166500000145,
      "d": 123.92232291666733,
      "v": 127
    },
    {
      "midi": 64,
      "hit": false,
      "t": 55086.166500000145,
      "d": 123.92232291666733,
      "v": 127
    },
    {
      "midi": 68,
      "hit": false,
      "t": 55086.166500000145,
      "d": 123.92232291666733,
      "v": 127
    },
    {
      "midi": 37,
      "hit": false,
      "t": 55086.166500000145,
      "d": 253.2325729166696,
      "v": 127
    },
    {
      "midi": 49,
      "hit": false,
      "t": 55344.78700000015,
      "d": 253.2325729166696,
      "v": 127
    },
    {
      "midi": 61,
      "hit": false,
      "t": 55603.407500000154,
      "d": 123.92232291666733,
      "v": 99
    },
    {
      "midi": 64,
      "hit": false,
      "t": 55603.407500000154,
      "d": 123.92232291666733,
      "v": 99
    },
    {
      "midi": 68,
      "hit": false,
      "t": 55603.407500000154,
      "d": 123.92232291666733,
      "v": 127
    },
    {
      "midi": 42,
      "hit": false,
      "t": 55862.02800000015,
      "d": 253.2325729166696,
      "v": 127
    },
    {
      "midi": 61,
      "hit": false,
      "t": 55862.02800000015,
      "d": 382.54282291667187,
      "v": 112
    },
    {
      "midi": 66,
      "hit": false,
      "t": 55862.02800000015,
      "d": 382.54282291667187,
      "v": 127
    },
    {
      "midi": 69,
      "hit": false,
      "t": 55862.02800000015,
      "d": 382.54282291667187,
      "v": 127
    },
    {
      "midi": 54,
      "hit": false,
      "t": 56120.648500000156,
      "d": 382.5428229166646,
      "v": 127
    },
    {
      "midi": 42,
      "hit": false,
      "t": 56637.88950000015,
      "d": 123.92232291666733,
      "v": 127
    },
    {
      "midi": 61,
      "hit": false,
      "t": 56637.88950000015,
      "d": 253.2325729166696,
      "v": 111
    },
    {
      "midi": 66,
      "hit": false,
      "t": 56637.88950000015,
      "d": 253.2325729166696,
      "v": 127
    },
    {
      "midi": 69,
      "hit": false,
      "t": 56637.88950000015,
      "d": 253.2325729166696,
      "v": 119
    },
    {
      "midi": 54,
      "hit": false,
      "t": 56767.19975000015,
      "d": 382.5428229166646,
      "v": 127
    },
    {
      "midi": 42,
      "hit": false,
      "t": 57025.82025000015,
      "d": 123.92232291666733,
      "v": 127
    },
    {
      "midi": 61,
      "hit": false,
      "t": 57155.13050000015,
      "d": 382.5428229166646,
      "v": 127
    },
    {
      "midi": 66,
      "hit": false,
      "t": 57155.13050000015,
      "d": 382.5428229166646,
      "v": 127
    },
    {
      "midi": 69,
      "hit": false,
      "t": 57155.13050000015,
      "d": 382.5428229166646,
      "v": 127
    },
    {
      "midi": 35,
      "hit": false,
      "t": 57930.99200000015,
      "d": 123.92232291666733,
      "v": 127
    },
    {
      "midi": 66,
      "hit": false,
      "t": 57930.99200000015,
      "d": 253.2325729166696,
      "v": 127
    },
    {
      "midi": 59,
      "hit": false,
      "t": 57930.99200000015,
      "d": 382.54282291667187,
      "v": 116
    },
    {
      "midi": 63,
      "hit": false,
      "t": 57930.99200000015,
      "d": 382.54282291667187,
      "v": 127
    },
    {
      "midi": 47,
      "hit": false,
      "t": 58060.30225000015,
      "d": 899.7838229166737,
      "v": 127
    },
    {
      "midi": 63,
      "hit": false,
      "t": 58706.85350000016,
      "d": 253.2325729166696,
      "v": 114
    },
    {
      "midi": 66,
      "hit": false,
      "t": 58706.85350000016,
      "d": 253.2325729166696,
      "v": 127
    },
    {
      "midi": 59,
      "hit": false,
      "t": 58706.85350000016,
      "d": 382.54282291667187,
      "v": 99
    },
    {
      "midi": 35,
      "hit": false,
      "t": 58965.47400000016,
      "d": 511.85307291666686,
      "v": 127
    },
    {
      "midi": 59,
      "hit": false,
      "t": 59224.09450000016,
      "d": 253.2325729166696,
      "v": 99
    },
    {
      "midi": 63,
      "hit": false,
      "t": 59224.09450000016,
      "d": 253.2325729166696,
      "v": 100
    },
    {
      "midi": 66,
      "hit": false,
      "t": 59224.09450000016,
      "d": 253.2325729166696,
      "v": 121
    },
    {
      "midi": 47,
      "hit": false,
      "t": 59482.715000000164,
      "d": 123.92232291666733,
      "v": 118
    },
    {
      "midi": 64,
      "hit": false,
      "t": 59741.33550000016,
      "d": 253.2325729166696,
      "v": 127
    },
    {
      "midi": 68,
      "hit": false,
      "t": 59741.33550000016,
      "d": 253.2325729166696,
      "v": 127
    },
    {
      "midi": 61,
      "hit": false,
      "t": 59741.33550000016,
      "d": 382.54282291667187,
      "v": 127
    },
    {
      "midi": 37,
      "hit": false,
      "t": 59999.956000000166,
      "d": 253.2325729166696,
      "v": 127
    },
    {
      "midi": 49,
      "hit": false,
      "t": 59999.956000000166,
      "d": 253.2325729166696,
      "v": 127
    },
    {
      "midi": 61,
      "hit": false,
      "t": 60387.886750000165,
      "d": 253.2325729166696,
      "v": 99
    },
    {
      "midi": 68,
      "hit": false,
      "t": 60387.886750000165,
      "d": 253.2325729166696,
      "v": 104
    },
    {
      "midi": 64,
      "hit": false,
      "t": 60398.662604166835,
      "d": 253.2325729166696,
      "v": 101
    },
    {
      "midi": 37,
      "hit": false,
      "t": 60517.19700000017,
      "d": 123.92232291666733,
      "v": 127
    },
    {
      "midi": 61,
      "hit": false,
      "t": 61034.43800000017,
      "d": 253.2325729166696,
      "v": 127
    },
    {
      "midi": 64,
      "hit": false,
      "t": 61034.43800000017,
      "d": 253.2325729166696,
      "v": 127
    },
    {
      "midi": 68,
      "hit": false,
      "t": 61034.43800000017,
      "d": 253.2325729166696,
      "v": 127
    },
    {
      "midi": 61,
      "hit": false,
      "t": 61422.36875000017,
      "d": 123.92232291666733,
      "v": 127
    },
    {
      "midi": 64,
      "hit": false,
      "t": 61422.36875000017,
      "d": 123.92232291666733,
      "v": 127
    },
    {
      "midi": 68,
      "hit": false,
      "t": 61422.36875000017,
      "d": 123.92232291666733,
      "v": 127
    },
    {
      "midi": 37,
      "hit": false,
      "t": 62068.92000000017,
      "d": 123.92232291666733,
      "v": 127
    },
    {
      "midi": 61,
      "hit": false,
      "t": 62068.92000000017,
      "d": 123.92232291666733,
      "v": 127
    },
    {
      "midi": 64,
      "hit": false,
      "t": 62068.92000000017,
      "d": 123.92232291666733,
      "v": 127
    },
    {
      "midi": 68,
      "hit": false,
      "t": 62068.92000000017,
      "d": 123.92232291666733,
      "v": 127
    },
    {
      "midi": 49,
      "hit": false,
      "t": 62198.230250000175,
      "d": 123.92232291666733,
      "v": 107
    },
    {
      "midi": 37,
      "hit": false,
      "t": 62456.85075000017,
      "d": 123.92232291666733,
      "v": 109
    },
    {
      "midi": 61,
      "hit": false,
      "t": 62456.85075000017,
      "d": 123.92232291666733,
      "v": 127
    },
    {
      "midi": 64,
      "hit": false,
      "t": 62456.85075000017,
      "d": 123.92232291666733,
      "v": 127
    },
    {
      "midi": 68,
      "hit": false,
      "t": 62456.85075000017,
      "d": 123.92232291666733,
      "v": 127
    },
    {
      "midi": 49,
      "hit": false,
      "t": 62586.161000000175,
      "d": 123.92232291666733,
      "v": 127
    },
    {
      "midi": 61,
      "hit": false,
      "t": 62844.78150000017,
      "d": 123.92232291666733,
      "v": 127
    },
    {
      "midi": 64,
      "hit": false,
      "t": 62844.78150000017,
      "d": 123.92232291666733,
      "v": 127
    },
    {
      "midi": 68,
      "hit": false,
      "t": 62844.78150000017,
      "d": 123.92232291666733,
      "v": 127
    },
    {
      "midi": 61,
      "hit": false,
      "t": 63103.40200000017,
      "d": 123.92232291666733,
      "v": 127
    },
    {
      "midi": 66,
      "hit": false,
      "t": 63103.40200000017,
      "d": 123.92232291666733,
      "v": 127
    },
    {
      "midi": 69,
      "hit": false,
      "t": 63103.40200000017,
      "d": 123.92232291666733,
      "v": 127
    },
    {
      "midi": 42,
      "hit": false,
      "t": 63362.02250000017,
      "d": 123.92232291666733,
      "v": 127
    },
    {
      "midi": 61,
      "hit": false,
      "t": 63491.33275000017,
      "d": 123.92232291666733,
      "v": 127
    },
    {
      "midi": 66,
      "hit": false,
      "t": 63491.33275000017,
      "d": 123.92232291666733,
      "v": 127
    },
    {
      "midi": 69,
      "hit": false,
      "t": 63491.33275000017,
      "d": 123.92232291666733,
      "v": 127
    },
    {
      "midi": 54,
      "hit": false,
      "t": 63620.64300000017,
      "d": 123.92232291666733,
      "v": 127
    },
    {
      "midi": 42,
      "hit": false,
      "t": 63879.26350000017,
      "d": 123.92232291666733,
      "v": 127
    },
    {
      "midi": 61,
      "hit": false,
      "t": 63879.26350000017,
      "d": 123.92232291666733,
      "v": 127
    },
    {
      "midi": 66,
      "hit": false,
      "t": 63879.26350000017,
      "d": 123.92232291666733,
      "v": 127
    },
    {
      "midi": 69,
      "hit": false,
      "t": 63879.26350000017,
      "d": 123.92232291666733,
      "v": 127
    },
    {
      "midi": 35,
      "hit": false,
      "t": 64137.884000000166,
      "d": 123.92232291666733,
      "v": 127
    },
    {
      "midi": 47,
      "hit": false,
      "t": 64267.19425000017,
      "d": 123.92232291666733,
      "v": 127
    },
    {
      "midi": 59,
      "hit": false,
      "t": 64396.50450000017,
      "d": 123.92232291666733,
      "v": 115
    },
    {
      "midi": 63,
      "hit": false,
      "t": 64396.50450000017,
      "d": 123.92232291666733,
      "v": 127
    },
    {
      "midi": 66,
      "hit": false,
      "t": 64396.50450000017,
      "d": 123.92232291666733,
      "v": 127
    },
    {
      "midi": 35,
      "hit": false,
      "t": 64525.81475000017,
      "d": 123.92232291666733,
      "v": 127
    },
    {
      "midi": 47,
      "hit": false,
      "t": 64655.125000000175,
      "d": 123.92232291666733,
      "v": 127
    },
    {
      "midi": 59,
      "hit": false,
      "t": 64655.125000000175,
      "d": 123.92232291666733,
      "v": 112
    },
    {
      "midi": 63,
      "hit": false,
      "t": 64655.125000000175,
      "d": 123.92232291666733,
      "v": 127
    },
    {
      "midi": 66,
      "hit": false,
      "t": 64655.125000000175,
      "d": 123.92232291666733,
      "v": 127
    },
    {
      "midi": 59,
      "hit": false,
      "t": 64784.43525000018,
      "d": 123.92232291666733,
      "v": 127
    },
    {
      "midi": 63,
      "hit": false,
      "t": 64784.43525000018,
      "d": 123.92232291666733,
      "v": 127
    },
    {
      "midi": 66,
      "hit": false,
      "t": 64784.43525000018,
      "d": 123.92232291666733,
      "v": 127
    },
    {
      "midi": 61,
      "hit": false,
      "t": 65172.36600000018,
      "d": 123.92232291666733,
      "v": 127
    },
    {
      "midi": 64,
      "hit": false,
      "t": 65172.36600000018,
      "d": 123.92232291666733,
      "v": 127
    },
    {
      "midi": 68,
      "hit": false,
      "t": 65172.36600000018,
      "d": 123.92232291666733,
      "v": 127
    },
    {
      "midi": 37,
      "hit": false,
      "t": 65430.986500000174,
      "d": 253.23257291666232,
      "v": 127
    },
    {
      "midi": 61,
      "hit": false,
      "t": 65560.29675000017,
      "d": 123.92232291666733,
      "v": 127
    },
    {
      "midi": 64,
      "hit": false,
      "t": 65560.29675000017,
      "d": 123.92232291666733,
      "v": 127
    },
    {
      "midi": 68,
      "hit": false,
      "t": 65560.29675000017,
      "d": 123.92232291666733,
      "v": 127
    },
    {
      "midi": 49,
      "hit": false,
      "t": 65689.60700000016,
      "d": 123.92232291666733,
      "v": 127
    },
    {
      "midi": 37,
      "hit": false,
      "t": 65948.22750000017,
      "d": 123.92232291666733,
      "v": 127
    },
    {
      "midi": 61,
      "hit": false,
      "t": 65948.22750000017,
      "d": 123.92232291666733,
      "v": 127
    },
    {
      "midi": 64,
      "hit": false,
      "t": 65948.22750000017,
      "d": 123.92232291666733,
      "v": 127
    },
    {
      "midi": 68,
      "hit": false,
      "t": 65948.22750000017,
      "d": 123.92232291666733,
      "v": 127
    },
    {
      "midi": 37,
      "hit": false,
      "t": 66206.84800000017,
      "d": 123.92232291666733,
      "v": 127
    },
    {
      "midi": 61,
      "hit": false,
      "t": 66206.84800000017,
      "d": 123.92232291666733,
      "v": 127
    },
    {
      "midi": 64,
      "hit": false,
      "t": 66206.84800000017,
      "d": 123.92232291666733,
      "v": 122
    },
    {
      "midi": 68,
      "hit": false,
      "t": 66206.84800000017,
      "d": 123.92232291666733,
      "v": 127
    },
    {
      "midi": 49,
      "hit": false,
      "t": 66336.15825000017,
      "d": 123.92232291666733,
      "v": 109
    },
    {
      "midi": 37,
      "hit": false,
      "t": 66594.77875000017,
      "d": 123.92232291666733,
      "v": 127
    },
    {
      "midi": 61,
      "hit": false,
      "t": 66594.77875000017,
      "d": 123.92232291666733,
      "v": 127
    },
    {
      "midi": 64,
      "hit": false,
      "t": 66594.77875000017,
      "d": 123.92232291666733,
      "v": 127
    },
    {
      "midi": 68,
      "hit": false,
      "t": 66594.77875000017,
      "d": 123.92232291666733,
      "v": 127
    },
    {
      "midi": 49,
      "hit": false,
      "t": 66724.08900000017,
      "d": 123.92232291666733,
      "v": 127
    },
    {
      "midi": 61,
      "hit": false,
      "t": 66982.70950000017,
      "d": 123.92232291666733,
      "v": 127
    },
    {
      "midi": 64,
      "hit": false,
      "t": 66982.70950000017,
      "d": 123.92232291666733,
      "v": 127
    },
    {
      "midi": 68,
      "hit": false,
      "t": 66982.70950000017,
      "d": 123.92232291666733,
      "v": 127
    },
    {
      "midi": 61,
      "hit": false,
      "t": 67241.33000000018,
      "d": 123.92232291666733,
      "v": 127
    },
    {
      "midi": 66,
      "hit": false,
      "t": 67241.33000000018,
      "d": 123.92232291666733,
      "v": 127
    },
    {
      "midi": 69,
      "hit": false,
      "t": 67241.33000000018,
      "d": 123.92232291666733,
      "v": 127
    },
    {
      "midi": 42,
      "hit": false,
      "t": 67499.95050000018,
      "d": 123.92232291666733,
      "v": 127
    },
    {
      "midi": 61,
      "hit": false,
      "t": 67629.26075000018,
      "d": 123.92232291666733,
      "v": 127
    },
    {
      "midi": 66,
      "hit": false,
      "t": 67629.26075000018,
      "d": 123.92232291666733,
      "v": 127
    },
    {
      "midi": 69,
      "hit": false,
      "t": 67629.26075000018,
      "d": 123.92232291666733,
      "v": 127
    },
    {
      "midi": 54,
      "hit": false,
      "t": 67758.57100000017,
      "d": 123.92232291666733,
      "v": 127
    },
    {
      "midi": 42,
      "hit": false,
      "t": 68017.19150000018,
      "d": 123.92232291666733,
      "v": 127
    },
    {
      "midi": 61,
      "hit": false,
      "t": 68017.19150000018,
      "d": 123.92232291666733,
      "v": 127
    },
    {
      "midi": 66,
      "hit": false,
      "t": 68017.19150000018,
      "d": 123.92232291666733,
      "v": 127
    },
    {
      "midi": 69,
      "hit": false,
      "t": 68017.19150000018,
      "d": 123.92232291666733,
      "v": 127
    },
    {
      "midi": 35,
      "hit": false,
      "t": 68275.81200000018,
      "d": 123.92232291666733,
      "v": 103
    },
    {
      "midi": 47,
      "hit": false,
      "t": 68405.12225000017,
      "d": 123.92232291666733,
      "v": 101
    },
    {
      "midi": 59,
      "hit": false,
      "t": 68534.43250000017,
      "d": 123.92232291666733,
      "v": 109
    },
    {
      "midi": 63,
      "hit": false,
      "t": 68534.43250000017,
      "d": 123.92232291666733,
      "v": 127
    },
    {
      "midi": 66,
      "hit": false,
      "t": 68534.43250000017,
      "d": 123.92232291666733,
      "v": 127
    },
    {
      "midi": 35,
      "hit": false,
      "t": 68663.74275000016,
      "d": 123.92232291666733,
      "v": 127
    },
    {
      "midi": 47,
      "hit": false,
      "t": 68793.05300000016,
      "d": 123.92232291666733,
      "v": 127
    },
    {
      "midi": 59,
      "hit": false,
      "t": 68793.05300000016,
      "d": 123.92232291666733,
      "v": 123
    },
    {
      "midi": 63,
      "hit": false,
      "t": 68793.05300000016,
      "d": 123.92232291666733,
      "v": 127
    },
    {
      "midi": 66,
      "hit": false,
      "t": 68793.05300000016,
      "d": 123.92232291666733,
      "v": 127
    },
    {
      "midi": 59,
      "hit": false,
      "t": 68922.36325000015,
      "d": 123.92232291666733,
      "v": 119
    },
    {
      "midi": 63,
      "hit": false,
      "t": 68922.36325000015,
      "d": 123.92232291666733,
      "v": 127
    },
    {
      "midi": 66,
      "hit": false,
      "t": 68922.36325000015,
      "d": 123.92232291666733,
      "v": 127
    },
    {
      "midi": 59,
      "hit": false,
      "t": 69310.29400000015,
      "d": 123.92232291666733,
      "v": 105
    },
    {
      "midi": 63,
      "hit": false,
      "t": 69310.29400000015,
      "d": 123.92232291666733,
      "v": 127
    },
    {
      "midi": 68,
      "hit": false,
      "t": 69310.29400000015,
      "d": 123.92232291666733,
      "v": 127
    },
    {
      "midi": 44,
      "hit": false,
      "t": 69568.91450000016,
      "d": 123.92232291666733,
      "v": 127
    },
    {
      "midi": 59,
      "hit": false,
      "t": 69568.91450000016,
      "d": 123.92232291666733,
      "v": 103
    },
    {
      "midi": 63,
      "hit": false,
      "t": 69568.91450000016,
      "d": 123.92232291666733,
      "v": 127
    },
    {
      "midi": 68,
      "hit": false,
      "t": 69568.91450000016,
      "d": 123.92232291666733,
      "v": 127
    },
    {
      "midi": 56,
      "hit": false,
      "t": 69827.53500000016,
      "d": 123.92232291666733,
      "v": 127
    },
    {
      "midi": 59,
      "hit": false,
      "t": 69827.53500000016,
      "d": 123.92232291666733,
      "v": 127
    },
    {
      "midi": 63,
      "hit": false,
      "t": 69827.53500000016,
      "d": 123.92232291666733,
      "v": 127
    },
    {
      "midi": 68,
      "hit": false,
      "t": 69827.53500000016,
      "d": 123.92232291666733,
      "v": 127
    },
    {
      "midi": 59,
      "hit": false,
      "t": 69956.84525000016,
      "d": 123.92232291666733,
      "v": 127
    },
    {
      "midi": 63,
      "hit": false,
      "t": 69956.84525000016,
      "d": 123.92232291666733,
      "v": 127
    },
    {
      "midi": 66,
      "hit": false,
      "t": 69956.84525000016,
      "d": 123.92232291666733,
      "v": 127
    },
    {
      "midi": 44,
      "hit": false,
      "t": 70086.15550000015,
      "d": 123.92232291666733,
      "v": 127
    },
    {
      "midi": 37,
      "hit": false,
      "t": 70339.38807291682,
      "d": 123.92232291666733,
      "v": 127
    },
    {
      "midi": 49,
      "hit": false,
      "t": 70468.69832291681,
      "d": 123.92232291666733,
      "v": 107
    },
    {
      "midi": 64,
      "hit": false,
      "t": 70727.31882291682,
      "d": 26.939635416667443,
      "v": 127
    },
    {
      "midi": 68,
      "hit": false,
      "t": 70727.31882291682,
      "d": 32.32756249999511,
      "v": 127
    },
    {
      "midi": 61,
      "hit": false,
      "t": 70727.31882291682,
      "d": 43.103416666665,
      "v": 127
    },
    {
      "midi": 37,
      "hit": false,
      "t": 70727.31882291682,
      "d": 123.92232291666733,
      "v": 109
    },
    {
      "midi": 49,
      "hit": false,
      "t": 70856.62907291681,
      "d": 123.92232291666733,
      "v": 127
    },
    {
      "midi": 61,
      "hit": false,
      "t": 71115.24957291681,
      "d": 123.92232291666733,
      "v": 127
    },
    {
      "midi": 64,
      "hit": false,
      "t": 71115.24957291681,
      "d": 123.92232291666733,
      "v": 127
    },
    {
      "midi": 68,
      "hit": false,
      "t": 71115.24957291681,
      "d": 123.92232291666733,
      "v": 127
    },
    {
      "midi": 61,
      "hit": false,
      "t": 71373.87007291682,
      "d": 123.92232291666733,
      "v": 127
    },
    {
      "midi": 66,
      "hit": false,
      "t": 71373.87007291682,
      "d": 123.92232291666733,
      "v": 127
    },
    {
      "midi": 69,
      "hit": false,
      "t": 71373.87007291682,
      "d": 123.92232291666733,
      "v": 127
    },
    {
      "midi": 42,
      "hit": false,
      "t": 71632.49057291682,
      "d": 123.92232291666733,
      "v": 127
    },
    {
      "midi": 61,
      "hit": false,
      "t": 71761.80082291682,
      "d": 123.92232291666733,
      "v": 127
    },
    {
      "midi": 66,
      "hit": false,
      "t": 71761.80082291682,
      "d": 123.92232291666733,
      "v": 127
    },
    {
      "midi": 69,
      "hit": false,
      "t": 71761.80082291682,
      "d": 123.92232291666733,
      "v": 127
    },
    {
      "midi": 54,
      "hit": false,
      "t": 71891.11107291681,
      "d": 123.92232291666733,
      "v": 127
    },
    {
      "midi": 42,
      "hit": false,
      "t": 72149.73157291682,
      "d": 123.92232291666733,
      "v": 127
    },
    {
      "midi": 61,
      "hit": false,
      "t": 72149.73157291682,
      "d": 123.92232291666733,
      "v": 127
    },
    {
      "midi": 66,
      "hit": false,
      "t": 72149.73157291682,
      "d": 123.92232291666733,
      "v": 127
    },
    {
      "midi": 69,
      "hit": false,
      "t": 72149.73157291682,
      "d": 123.92232291666733,
      "v": 127
    },
    {
      "midi": 35,
      "hit": false,
      "t": 72408.35207291682,
      "d": 123.92232291666733,
      "v": 127
    },
    {
      "midi": 47,
      "hit": false,
      "t": 72537.66232291682,
      "d": 123.92232291666733,
      "v": 127
    },
    {
      "midi": 59,
      "hit": false,
      "t": 72666.97257291681,
      "d": 123.92232291666733,
      "v": 115
    },
    {
      "midi": 63,
      "hit": false,
      "t": 72666.97257291681,
      "d": 123.92232291666733,
      "v": 127
    },
    {
      "midi": 66,
      "hit": false,
      "t": 72666.97257291681,
      "d": 123.92232291666733,
      "v": 127
    },
    {
      "midi": 35,
      "hit": false,
      "t": 72796.28282291681,
      "d": 123.92232291666733,
      "v": 127
    },
    {
      "midi": 47,
      "hit": false,
      "t": 72925.5930729168,
      "d": 123.92232291666733,
      "v": 127
    },
    {
      "midi": 59,
      "hit": false,
      "t": 72925.5930729168,
      "d": 123.92232291666733,
      "v": 112
    },
    {
      "midi": 63,
      "hit": false,
      "t": 72925.5930729168,
      "d": 123.92232291666733,
      "v": 127
    },
    {
      "midi": 66,
      "hit": false,
      "t": 72925.5930729168,
      "d": 123.92232291666733,
      "v": 127
    },
    {
      "midi": 59,
      "hit": false,
      "t": 73054.9033229168,
      "d": 123.92232291666733,
      "v": 127
    },
    {
      "midi": 63,
      "hit": false,
      "t": 73054.9033229168,
      "d": 123.92232291666733,
      "v": 127
    },
    {
      "midi": 66,
      "hit": false,
      "t": 73054.9033229168,
      "d": 123.92232291666733,
      "v": 127
    },
    {
      "midi": 61,
      "hit": false,
      "t": 73442.8340729168,
      "d": 123.92232291666733,
      "v": 127
    },
    {
      "midi": 64,
      "hit": false,
      "t": 73442.8340729168,
      "d": 123.92232291666733,
      "v": 127
    },
    {
      "midi": 68,
      "hit": false,
      "t": 73442.8340729168,
      "d": 123.92232291666733,
      "v": 127
    },
    {
      "midi": 37,
      "hit": false,
      "t": 73701.4545729168,
      "d": 253.23257291666232,
      "v": 127
    },
    {
      "midi": 61,
      "hit": false,
      "t": 73830.7648229168,
      "d": 123.92232291666733,
      "v": 127
    },
    {
      "midi": 64,
      "hit": false,
      "t": 73830.7648229168,
      "d": 123.92232291666733,
      "v": 127
    },
    {
      "midi": 68,
      "hit": false,
      "t": 73830.7648229168,
      "d": 123.92232291666733,
      "v": 127
    },
    {
      "midi": 49,
      "hit": false,
      "t": 73960.07507291679,
      "d": 123.92232291666733,
      "v": 127
    },
    {
      "midi": 37,
      "hit": false,
      "t": 74218.6955729168,
      "d": 123.92232291666733,
      "v": 127
    },
    {
      "midi": 61,
      "hit": false,
      "t": 74218.6955729168,
      "d": 123.92232291666733,
      "v": 127
    },
    {
      "midi": 64,
      "hit": false,
      "t": 74218.6955729168,
      "d": 123.92232291666733,
      "v": 127
    },
    {
      "midi": 68,
      "hit": false,
      "t": 74218.6955729168,
      "d": 123.92232291666733,
      "v": 127
    },
    {
      "midi": 37,
      "hit": false,
      "t": 74477.3160729168,
      "d": 123.92232291666733,
      "v": 127
    },
    {
      "midi": 49,
      "hit": false,
      "t": 74606.6263229168,
      "d": 123.92232291666733,
      "v": 109
    },
    {
      "midi": 37,
      "hit": false,
      "t": 74865.2468229168,
      "d": 123.92232291666733,
      "v": 127
    },
    {
      "midi": 61,
      "hit": false,
      "t": 74865.2468229168,
      "d": 123.92232291666733,
      "v": 127
    },
    {
      "midi": 64,
      "hit": false,
      "t": 74865.2468229168,
      "d": 123.92232291666733,
      "v": 127
    },
    {
      "midi": 68,
      "hit": false,
      "t": 74865.2468229168,
      "d": 123.92232291666733,
      "v": 127
    },
    {
      "midi": 49,
      "hit": false,
      "t": 74994.5570729168,
      "d": 123.92232291666733,
      "v": 127
    },
    {
      "midi": 61,
      "hit": false,
      "t": 75253.1775729168,
      "d": 123.92232291666733,
      "v": 127
    },
    {
      "midi": 64,
      "hit": false,
      "t": 75253.1775729168,
      "d": 123.92232291666733,
      "v": 127
    },
    {
      "midi": 68,
      "hit": false,
      "t": 75253.1775729168,
      "d": 123.92232291666733,
      "v": 127
    },
    {
      "midi": 61,
      "hit": false,
      "t": 75511.7980729168,
      "d": 123.92232291666733,
      "v": 127
    },
    {
      "midi": 66,
      "hit": false,
      "t": 75511.7980729168,
      "d": 123.92232291666733,
      "v": 127
    },
    {
      "midi": 69,
      "hit": false,
      "t": 75511.7980729168,
      "d": 123.92232291666733,
      "v": 127
    },
    {
      "midi": 42,
      "hit": false,
      "t": 75770.41857291681,
      "d": 123.92232291666733,
      "v": 127
    },
    {
      "midi": 61,
      "hit": false,
      "t": 75899.7288229168,
      "d": 123.92232291666733,
      "v": 127
    },
    {
      "midi": 66,
      "hit": false,
      "t": 75899.7288229168,
      "d": 123.92232291666733,
      "v": 127
    },
    {
      "midi": 69,
      "hit": false,
      "t": 75899.7288229168,
      "d": 123.92232291666733,
      "v": 127
    },
    {
      "midi": 54,
      "hit": false,
      "t": 76029.0390729168,
      "d": 123.92232291666733,
      "v": 127
    },
    {
      "midi": 42,
      "hit": false,
      "t": 76287.6595729168,
      "d": 123.92232291666733,
      "v": 127
    },
    {
      "midi": 61,
      "hit": false,
      "t": 76287.6595729168,
      "d": 123.92232291666733,
      "v": 127
    },
    {
      "midi": 66,
      "hit": false,
      "t": 76287.6595729168,
      "d": 123.92232291666733,
      "v": 127
    },
    {
      "midi": 69,
      "hit": false,
      "t": 76287.6595729168,
      "d": 123.92232291666733,
      "v": 127
    },
    {
      "midi": 35,
      "hit": false,
      "t": 76546.28007291681,
      "d": 123.92232291666733,
      "v": 103
    },
    {
      "midi": 47,
      "hit": false,
      "t": 76675.5903229168,
      "d": 123.92232291666733,
      "v": 101
    },
    {
      "midi": 59,
      "hit": false,
      "t": 76804.9005729168,
      "d": 123.92232291666733,
      "v": 109
    },
    {
      "midi": 63,
      "hit": false,
      "t": 76804.9005729168,
      "d": 123.92232291666733,
      "v": 127
    },
    {
      "midi": 66,
      "hit": false,
      "t": 76804.9005729168,
      "d": 123.92232291666733,
      "v": 127
    },
    {
      "midi": 35,
      "hit": false,
      "t": 76934.2108229168,
      "d": 123.92232291666733,
      "v": 127
    },
    {
      "midi": 47,
      "hit": false,
      "t": 77063.52107291679,
      "d": 123.92232291666733,
      "v": 127
    },
    {
      "midi": 59,
      "hit": false,
      "t": 77063.52107291679,
      "d": 123.92232291666733,
      "v": 123
    },
    {
      "midi": 63,
      "hit": false,
      "t": 77063.52107291679,
      "d": 123.92232291666733,
      "v": 127
    },
    {
      "midi": 66,
      "hit": false,
      "t": 77063.52107291679,
      "d": 123.92232291666733,
      "v": 127
    },
    {
      "midi": 59,
      "hit": false,
      "t": 77192.83132291678,
      "d": 123.92232291666733,
      "v": 119
    },
    {
      "midi": 63,
      "hit": false,
      "t": 77192.83132291678,
      "d": 123.92232291666733,
      "v": 127
    },
    {
      "midi": 66,
      "hit": false,
      "t": 77192.83132291678,
      "d": 123.92232291666733,
      "v": 127
    },
    {
      "midi": 59,
      "hit": false,
      "t": 77580.76207291678,
      "d": 123.92232291666733,
      "v": 105
    },
    {
      "midi": 63,
      "hit": false,
      "t": 77580.76207291678,
      "d": 123.92232291666733,
      "v": 127
    },
    {
      "midi": 68,
      "hit": false,
      "t": 77580.76207291678,
      "d": 123.92232291666733,
      "v": 127
    },
    {
      "midi": 44,
      "hit": false,
      "t": 77839.38257291679,
      "d": 123.92232291666733,
      "v": 127
    },
    {
      "midi": 59,
      "hit": false,
      "t": 77839.38257291679,
      "d": 123.92232291666733,
      "v": 103
    },
    {
      "midi": 63,
      "hit": false,
      "t": 77839.38257291679,
      "d": 123.92232291666733,
      "v": 127
    },
    {
      "midi": 68,
      "hit": false,
      "t": 77839.38257291679,
      "d": 123.92232291666733,
      "v": 127
    },
    {
      "midi": 56,
      "hit": false,
      "t": 78098.00307291679,
      "d": 123.92232291666733,
      "v": 127
    },
    {
      "midi": 59,
      "hit": false,
      "t": 78098.00307291679,
      "d": 123.92232291666733,
      "v": 127
    },
    {
      "midi": 63,
      "hit": false,
      "t": 78098.00307291679,
      "d": 123.92232291666733,
      "v": 127
    },
    {
      "midi": 68,
      "hit": false,
      "t": 78098.00307291679,
      "d": 123.92232291666733,
      "v": 127
    },
    {
      "midi": 59,
      "hit": false,
      "t": 78227.31332291679,
      "d": 123.92232291666733,
      "v": 127
    },
    {
      "midi": 63,
      "hit": false,
      "t": 78227.31332291679,
      "d": 123.92232291666733,
      "v": 127
    },
    {
      "midi": 66,
      "hit": false,
      "t": 78227.31332291679,
      "d": 123.92232291666733,
      "v": 127
    },
    {
      "midi": 44,
      "hit": false,
      "t": 78356.62357291678,
      "d": 123.92232291666733,
      "v": 127
    },
    {
      "midi": 37,
      "hit": false,
      "t": 78615.24407291679,
      "d": 123.92232291666733,
      "v": 127
    },
    {
      "midi": 49,
      "hit": false,
      "t": 78744.55432291678,
      "d": 123.92232291666733,
      "v": 107
    },
    {
      "midi": 64,
      "hit": false,
      "t": 79003.17482291679,
      "d": 26.939635416667443,
      "v": 127
    },
    {
      "midi": 68,
      "hit": false,
      "t": 79003.17482291679,
      "d": 32.32756249999511,
      "v": 127
    },
    {
      "midi": 61,
      "hit": false,
      "t": 79003.17482291679,
      "d": 43.103416666665,
      "v": 127
    },
    {
      "midi": 37,
      "hit": false,
      "t": 79003.17482291679,
      "d": 123.92232291666733,
      "v": 109
    },
    {
      "midi": 49,
      "hit": false,
      "t": 79132.48507291678,
      "d": 123.92232291666733,
      "v": 127
    },
    {
      "midi": 61,
      "hit": false,
      "t": 79391.10557291679,
      "d": 123.92232291666733,
      "v": 127
    },
    {
      "midi": 64,
      "hit": false,
      "t": 79391.10557291679,
      "d": 123.92232291666733,
      "v": 127
    },
    {
      "midi": 68,
      "hit": false,
      "t": 79391.10557291679,
      "d": 123.92232291666733,
      "v": 127
    },
    {
      "midi": 61,
      "hit": false,
      "t": 79649.72607291679,
      "d": 123.92232291666733,
      "v": 127
    },
    {
      "midi": 66,
      "hit": false,
      "t": 79649.72607291679,
      "d": 123.92232291666733,
      "v": 127
    },
    {
      "midi": 69,
      "hit": false,
      "t": 79649.72607291679,
      "d": 123.92232291666733,
      "v": 127
    },
    {
      "midi": 42,
      "hit": false,
      "t": 79908.3465729168,
      "d": 123.92232291666733,
      "v": 127
    },
    {
      "midi": 61,
      "hit": false,
      "t": 80037.65682291679,
      "d": 123.92232291666733,
      "v": 127
    },
    {
      "midi": 66,
      "hit": false,
      "t": 80037.65682291679,
      "d": 123.92232291666733,
      "v": 127
    },
    {
      "midi": 69,
      "hit": false,
      "t": 80037.65682291679,
      "d": 123.92232291666733,
      "v": 127
    },
    {
      "midi": 54,
      "hit": false,
      "t": 80166.96707291678,
      "d": 123.92232291666733,
      "v": 127
    },
    {
      "midi": 42,
      "hit": false,
      "t": 80425.58757291679,
      "d": 123.92232291666733,
      "v": 127
    },
    {
      "midi": 61,
      "hit": false,
      "t": 80425.58757291679,
      "d": 123.92232291666733,
      "v": 127
    },
    {
      "midi": 66,
      "hit": false,
      "t": 80425.58757291679,
      "d": 123.92232291666733,
      "v": 127
    },
    {
      "midi": 69,
      "hit": false,
      "t": 80425.58757291679,
      "d": 123.92232291666733,
      "v": 127
    },
    {
      "midi": 35,
      "hit": false,
      "t": 80684.2080729168,
      "d": 123.92232291666733,
      "v": 127
    },
    {
      "midi": 47,
      "hit": false,
      "t": 80813.51832291679,
      "d": 123.92232291666733,
      "v": 127
    },
    {
      "midi": 59,
      "hit": false,
      "t": 80942.82857291678,
      "d": 123.92232291666733,
      "v": 115
    },
    {
      "midi": 63,
      "hit": false,
      "t": 80942.82857291678,
      "d": 123.92232291666733,
      "v": 127
    },
    {
      "midi": 66,
      "hit": false,
      "t": 80942.82857291678,
      "d": 123.92232291666733,
      "v": 127
    },
    {
      "midi": 35,
      "hit": false,
      "t": 81072.13882291678,
      "d": 123.92232291666733,
      "v": 127
    },
    {
      "midi": 47,
      "hit": false,
      "t": 81201.44907291677,
      "d": 123.92232291666733,
      "v": 127
    },
    {
      "midi": 59,
      "hit": false,
      "t": 81201.44907291677,
      "d": 123.92232291666733,
      "v": 112
    },
    {
      "midi": 63,
      "hit": false,
      "t": 81201.44907291677,
      "d": 123.92232291666733,
      "v": 127
    },
    {
      "midi": 66,
      "hit": false,
      "t": 81201.44907291677,
      "d": 123.92232291666733,
      "v": 127
    },
    {
      "midi": 59,
      "hit": false,
      "t": 81330.75932291677,
      "d": 123.92232291666733,
      "v": 127
    },
    {
      "midi": 63,
      "hit": false,
      "t": 81330.75932291677,
      "d": 123.92232291666733,
      "v": 127
    },
    {
      "midi": 66,
      "hit": false,
      "t": 81330.75932291677,
      "d": 123.92232291666733,
      "v": 127
    },
    {
      "midi": 61,
      "hit": false,
      "t": 81718.69007291677,
      "d": 123.92232291666733,
      "v": 127
    },
    {
      "midi": 64,
      "hit": false,
      "t": 81718.69007291677,
      "d": 123.92232291666733,
      "v": 127
    },
    {
      "midi": 68,
      "hit": false,
      "t": 81718.69007291677,
      "d": 123.92232291666733,
      "v": 127
    },
    {
      "midi": 37,
      "hit": false,
      "t": 81977.31057291677,
      "d": 253.23257291666232,
      "v": 127
    },
    {
      "midi": 61,
      "hit": false,
      "t": 82106.62082291677,
      "d": 123.92232291666733,
      "v": 127
    },
    {
      "midi": 64,
      "hit": false,
      "t": 82106.62082291677,
      "d": 123.92232291666733,
      "v": 127
    },
    {
      "midi": 68,
      "hit": false,
      "t": 82106.62082291677,
      "d": 123.92232291666733,
      "v": 127
    },
    {
      "midi": 49,
      "hit": false,
      "t": 82235.93107291676,
      "d": 123.92232291666733,
      "v": 127
    },
    {
      "midi": 37,
      "hit": false,
      "t": 82494.55157291677,
      "d": 123.92232291666733,
      "v": 127
    },
    {
      "midi": 61,
      "hit": false,
      "t": 82494.55157291677,
      "d": 123.92232291666733,
      "v": 127
    },
    {
      "midi": 64,
      "hit": false,
      "t": 82494.55157291677,
      "d": 123.92232291666733,
      "v": 127
    },
    {
      "midi": 68,
      "hit": false,
      "t": 82494.55157291677,
      "d": 123.92232291666733,
      "v": 127
    },
    {
      "midi": 37,
      "hit": false,
      "t": 82753.17207291677,
      "d": 123.92232291666733,
      "v": 127
    },
    {
      "midi": 49,
      "hit": false,
      "t": 82882.48232291677,
      "d": 123.92232291666733,
      "v": 109
    },
    {
      "midi": 37,
      "hit": false,
      "t": 83141.10282291677,
      "d": 123.92232291666733,
      "v": 127
    },
    {
      "midi": 61,
      "hit": false,
      "t": 83141.10282291677,
      "d": 123.92232291666733,
      "v": 127
    },
    {
      "midi": 64,
      "hit": false,
      "t": 83141.10282291677,
      "d": 123.92232291666733,
      "v": 127
    },
    {
      "midi": 68,
      "hit": false,
      "t": 83141.10282291677,
      "d": 123.92232291666733,
      "v": 127
    },
    {
      "midi": 49,
      "hit": false,
      "t": 83270.41307291677,
      "d": 123.92232291666733,
      "v": 127
    },
    {
      "midi": 61,
      "hit": false,
      "t": 83529.03357291677,
      "d": 123.92232291666733,
      "v": 127
    },
    {
      "midi": 64,
      "hit": false,
      "t": 83529.03357291677,
      "d": 123.92232291666733,
      "v": 127
    },
    {
      "midi": 68,
      "hit": false,
      "t": 83529.03357291677,
      "d": 123.92232291666733,
      "v": 127
    },
    {
      "midi": 61,
      "hit": false,
      "t": 83787.65407291678,
      "d": 123.92232291666733,
      "v": 127
    },
    {
      "midi": 66,
      "hit": false,
      "t": 83787.65407291678,
      "d": 123.92232291666733,
      "v": 127
    },
    {
      "midi": 69,
      "hit": false,
      "t": 83787.65407291678,
      "d": 123.92232291666733,
      "v": 127
    },
    {
      "midi": 42,
      "hit": false,
      "t": 84046.27457291678,
      "d": 123.92232291666733,
      "v": 127
    },
    {
      "midi": 61,
      "hit": false,
      "t": 84175.58482291678,
      "d": 123.92232291666733,
      "v": 127
    },
    {
      "midi": 66,
      "hit": false,
      "t": 84175.58482291678,
      "d": 123.92232291666733,
      "v": 127
    },
    {
      "midi": 69,
      "hit": false,
      "t": 84175.58482291678,
      "d": 123.92232291666733,
      "v": 127
    },
    {
      "midi": 54,
      "hit": false,
      "t": 84304.89507291677,
      "d": 123.92232291666733,
      "v": 127
    },
    {
      "midi": 42,
      "hit": false,
      "t": 84563.51557291677,
      "d": 123.92232291666733,
      "v": 127
    },
    {
      "midi": 61,
      "hit": false,
      "t": 84563.51557291677,
      "d": 123.92232291666733,
      "v": 127
    },
    {
      "midi": 66,
      "hit": false,
      "t": 84563.51557291677,
      "d": 123.92232291666733,
      "v": 127
    },
    {
      "midi": 69,
      "hit": false,
      "t": 84563.51557291677,
      "d": 123.92232291666733,
      "v": 127
    },
    {
      "midi": 35,
      "hit": false,
      "t": 84822.13607291678,
      "d": 123.92232291666733,
      "v": 103
    },
    {
      "midi": 47,
      "hit": false,
      "t": 84951.44632291677,
      "d": 123.92232291666733,
      "v": 101
    },
    {
      "midi": 59,
      "hit": false,
      "t": 85080.75657291677,
      "d": 123.92232291666733,
      "v": 109
    },
    {
      "midi": 63,
      "hit": false,
      "t": 85080.75657291677,
      "d": 123.92232291666733,
      "v": 127
    },
    {
      "midi": 66,
      "hit": false,
      "t": 85080.75657291677,
      "d": 123.92232291666733,
      "v": 127
    },
    {
      "midi": 35,
      "hit": false,
      "t": 85210.06682291676,
      "d": 123.92232291666733,
      "v": 127
    },
    {
      "midi": 47,
      "hit": false,
      "t": 85339.37707291676,
      "d": 123.92232291666733,
      "v": 127
    },
    {
      "midi": 59,
      "hit": false,
      "t": 85339.37707291676,
      "d": 123.92232291666733,
      "v": 123
    },
    {
      "midi": 63,
      "hit": false,
      "t": 85339.37707291676,
      "d": 123.92232291666733,
      "v": 127
    },
    {
      "midi": 66,
      "hit": false,
      "t": 85339.37707291676,
      "d": 123.92232291666733,
      "v": 127
    },
    {
      "midi": 59,
      "hit": false,
      "t": 85468.68732291675,
      "d": 123.92232291666733,
      "v": 119
    },
    {
      "midi": 63,
      "hit": false,
      "t": 85468.68732291675,
      "d": 123.92232291666733,
      "v": 127
    },
    {
      "midi": 66,
      "hit": false,
      "t": 85468.68732291675,
      "d": 123.92232291666733,
      "v": 127
    },
    {
      "midi": 59,
      "hit": false,
      "t": 85856.61807291675,
      "d": 123.92232291666733,
      "v": 105
    },
    {
      "midi": 63,
      "hit": false,
      "t": 85856.61807291675,
      "d": 123.92232291666733,
      "v": 127
    },
    {
      "midi": 68,
      "hit": false,
      "t": 85856.61807291675,
      "d": 123.92232291666733,
      "v": 127
    },
    {
      "midi": 44,
      "hit": false,
      "t": 86115.23857291676,
      "d": 123.92232291666733,
      "v": 127
    },
    {
      "midi": 59,
      "hit": false,
      "t": 86115.23857291676,
      "d": 123.92232291666733,
      "v": 103
    },
    {
      "midi": 63,
      "hit": false,
      "t": 86115.23857291676,
      "d": 123.92232291666733,
      "v": 127
    },
    {
      "midi": 68,
      "hit": false,
      "t": 86115.23857291676,
      "d": 123.92232291666733,
      "v": 127
    },
    {
      "midi": 56,
      "hit": false,
      "t": 86373.85907291676,
      "d": 123.92232291666733,
      "v": 127
    },
    {
      "midi": 59,
      "hit": false,
      "t": 86373.85907291676,
      "d": 123.92232291666733,
      "v": 127
    },
    {
      "midi": 63,
      "hit": false,
      "t": 86373.85907291676,
      "d": 123.92232291666733,
      "v": 127
    },
    {
      "midi": 68,
      "hit": false,
      "t": 86373.85907291676,
      "d": 123.92232291666733,
      "v": 127
    },
    {
      "midi": 59,
      "hit": false,
      "t": 86503.16932291676,
      "d": 123.92232291666733,
      "v": 127
    },
    {
      "midi": 63,
      "hit": false,
      "t": 86503.16932291676,
      "d": 123.92232291666733,
      "v": 127
    },
    {
      "midi": 66,
      "hit": false,
      "t": 86503.16932291676,
      "d": 123.92232291666733,
      "v": 127
    },
    {
      "midi": 44,
      "hit": false,
      "t": 86632.47957291675,
      "d": 123.92232291666733,
      "v": 127
    },
    {
      "midi": 37,
      "hit": false,
      "t": 86891.10007291676,
      "d": 123.92232291666733,
      "v": 127
    },
    {
      "midi": 49,
      "hit": false,
      "t": 87020.41032291675,
      "d": 123.92232291666733,
      "v": 107
    },
    {
      "midi": 64,
      "hit": false,
      "t": 87279.03082291676,
      "d": 26.939635416667443,
      "v": 127
    },
    {
      "midi": 68,
      "hit": false,
      "t": 87279.03082291676,
      "d": 32.32756249999511,
      "v": 127
    },
    {
      "midi": 61,
      "hit": false,
      "t": 87279.03082291676,
      "d": 43.103416666665,
      "v": 127
    },
    {
      "midi": 37,
      "hit": false,
      "t": 87279.03082291676,
      "d": 123.92232291666733,
      "v": 109
    },
    {
      "midi": 49,
      "hit": false,
      "t": 87408.34107291675,
      "d": 123.92232291666733,
      "v": 127
    },
    {
      "midi": 61,
      "hit": false,
      "t": 87666.96157291676,
      "d": 123.92232291666733,
      "v": 127
    },
    {
      "midi": 64,
      "hit": false,
      "t": 87666.96157291676,
      "d": 123.92232291666733,
      "v": 127
    },
    {
      "midi": 68,
      "hit": false,
      "t": 87666.96157291676,
      "d": 123.92232291666733,
      "v": 127
    },
    {
      "midi": 61,
      "hit": false,
      "t": 87925.58207291676,
      "d": 123.92232291666733,
      "v": 127
    },
    {
      "midi": 66,
      "hit": false,
      "t": 87925.58207291676,
      "d": 123.92232291666733,
      "v": 127
    },
    {
      "midi": 69,
      "hit": false,
      "t": 87925.58207291676,
      "d": 123.92232291666733,
      "v": 127
    },
    {
      "midi": 42,
      "hit": false,
      "t": 88184.20257291677,
      "d": 123.92232291666733,
      "v": 127
    },
    {
      "midi": 61,
      "hit": false,
      "t": 88313.51282291676,
      "d": 123.92232291666733,
      "v": 127
    },
    {
      "midi": 66,
      "hit": false,
      "t": 88313.51282291676,
      "d": 123.92232291666733,
      "v": 127
    },
    {
      "midi": 69,
      "hit": false,
      "t": 88313.51282291676,
      "d": 123.92232291666733,
      "v": 127
    },
    {
      "midi": 54,
      "hit": false,
      "t": 88442.82307291676,
      "d": 123.92232291666733,
      "v": 127
    },
    {
      "midi": 42,
      "hit": false,
      "t": 88701.44357291676,
      "d": 123.92232291666733,
      "v": 127
    },
    {
      "midi": 61,
      "hit": false,
      "t": 88701.44357291676,
      "d": 123.92232291666733,
      "v": 127
    },
    {
      "midi": 66,
      "hit": false,
      "t": 88701.44357291676,
      "d": 123.92232291666733,
      "v": 127
    },
    {
      "midi": 69,
      "hit": false,
      "t": 88701.44357291676,
      "d": 123.92232291666733,
      "v": 127
    },
    {
      "midi": 35,
      "hit": false,
      "t": 88960.06407291676,
      "d": 123.92232291666733,
      "v": 127
    },
    {
      "midi": 47,
      "hit": false,
      "t": 89089.37432291676,
      "d": 123.92232291666733,
      "v": 127
    },
    {
      "midi": 59,
      "hit": false,
      "t": 89218.68457291675,
      "d": 123.92232291666733,
      "v": 115
    },
    {
      "midi": 63,
      "hit": false,
      "t": 89218.68457291675,
      "d": 123.92232291666733,
      "v": 127
    },
    {
      "midi": 66,
      "hit": false,
      "t": 89218.68457291675,
      "d": 123.92232291666733,
      "v": 127
    },
    {
      "midi": 35,
      "hit": false,
      "t": 89347.99482291675,
      "d": 123.92232291666733,
      "v": 127
    },
    {
      "midi": 47,
      "hit": false,
      "t": 89477.30507291674,
      "d": 123.92232291666733,
      "v": 127
    },
    {
      "midi": 59,
      "hit": false,
      "t": 89477.30507291674,
      "d": 123.92232291666733,
      "v": 112
    },
    {
      "midi": 63,
      "hit": false,
      "t": 89477.30507291674,
      "d": 123.92232291666733,
      "v": 127
    },
    {
      "midi": 66,
      "hit": false,
      "t": 89477.30507291674,
      "d": 123.92232291666733,
      "v": 127
    },
    {
      "midi": 59,
      "hit": false,
      "t": 89606.61532291674,
      "d": 123.92232291666733,
      "v": 127
    },
    {
      "midi": 63,
      "hit": false,
      "t": 89606.61532291674,
      "d": 123.92232291666733,
      "v": 127
    },
    {
      "midi": 66,
      "hit": false,
      "t": 89606.61532291674,
      "d": 123.92232291666733,
      "v": 127
    },
    {
      "midi": 61,
      "hit": false,
      "t": 89994.54607291674,
      "d": 123.92232291666733,
      "v": 127
    },
    {
      "midi": 64,
      "hit": false,
      "t": 89994.54607291674,
      "d": 123.92232291666733,
      "v": 127
    },
    {
      "midi": 68,
      "hit": false,
      "t": 89994.54607291674,
      "d": 123.92232291666733,
      "v": 127
    },
    {
      "midi": 37,
      "hit": false,
      "t": 90253.16657291674,
      "d": 253.23257291666232,
      "v": 127
    },
    {
      "midi": 61,
      "hit": false,
      "t": 90382.47682291674,
      "d": 123.92232291666733,
      "v": 127
    },
    {
      "midi": 64,
      "hit": false,
      "t": 90382.47682291674,
      "d": 123.92232291666733,
      "v": 127
    },
    {
      "midi": 68,
      "hit": false,
      "t": 90382.47682291674,
      "d": 123.92232291666733,
      "v": 127
    },
    {
      "midi": 49,
      "hit": false,
      "t": 90511.78707291673,
      "d": 123.92232291666733,
      "v": 127
    },
    {
      "midi": 37,
      "hit": false,
      "t": 90770.40757291674,
      "d": 123.92232291666733,
      "v": 127
    },
    {
      "midi": 61,
      "hit": false,
      "t": 90770.40757291674,
      "d": 123.92232291666733,
      "v": 127
    },
    {
      "midi": 64,
      "hit": false,
      "t": 90770.40757291674,
      "d": 123.92232291666733,
      "v": 127
    },
    {
      "midi": 68,
      "hit": false,
      "t": 90770.40757291674,
      "d": 123.92232291666733,
      "v": 127
    },
    {
      "midi": 37,
      "hit": false,
      "t": 91029.02807291674,
      "d": 123.92232291666733,
      "v": 127
    },
    {
      "midi": 49,
      "hit": false,
      "t": 91158.33832291674,
      "d": 123.92232291666733,
      "v": 109
    },
    {
      "midi": 37,
      "hit": false,
      "t": 91416.95882291674,
      "d": 123.92232291666733,
      "v": 127
    },
    {
      "midi": 61,
      "hit": false,
      "t": 91416.95882291674,
      "d": 123.92232291666733,
      "v": 127
    },
    {
      "midi": 64,
      "hit": false,
      "t": 91416.95882291674,
      "d": 123.92232291666733,
      "v": 127
    },
    {
      "midi": 68,
      "hit": false,
      "t": 91416.95882291674,
      "d": 123.92232291666733,
      "v": 127
    },
    {
      "midi": 49,
      "hit": false,
      "t": 91546.26907291674,
      "d": 123.92232291666733,
      "v": 127
    },
    {
      "midi": 61,
      "hit": false,
      "t": 91804.88957291674,
      "d": 123.92232291666733,
      "v": 127
    },
    {
      "midi": 64,
      "hit": false,
      "t": 91804.88957291674,
      "d": 123.92232291666733,
      "v": 127
    },
    {
      "midi": 68,
      "hit": false,
      "t": 91804.88957291674,
      "d": 123.92232291666733,
      "v": 127
    },
    {
      "midi": 61,
      "hit": false,
      "t": 92063.51007291675,
      "d": 123.92232291666733,
      "v": 127
    },
    {
      "midi": 66,
      "hit": false,
      "t": 92063.51007291675,
      "d": 123.92232291666733,
      "v": 127
    },
    {
      "midi": 69,
      "hit": false,
      "t": 92063.51007291675,
      "d": 123.92232291666733,
      "v": 127
    },
    {
      "midi": 42,
      "hit": false,
      "t": 92322.13057291675,
      "d": 123.92232291666733,
      "v": 127
    },
    {
      "midi": 61,
      "hit": false,
      "t": 92451.44082291675,
      "d": 123.92232291666733,
      "v": 127
    },
    {
      "midi": 66,
      "hit": false,
      "t": 92451.44082291675,
      "d": 123.92232291666733,
      "v": 127
    },
    {
      "midi": 69,
      "hit": false,
      "t": 92451.44082291675,
      "d": 123.92232291666733,
      "v": 127
    },
    {
      "midi": 54,
      "hit": false,
      "t": 92580.75107291674,
      "d": 123.92232291666733,
      "v": 127
    },
    {
      "midi": 42,
      "hit": false,
      "t": 92839.37157291675,
      "d": 123.92232291666733,
      "v": 127
    },
    {
      "midi": 61,
      "hit": false,
      "t": 92839.37157291675,
      "d": 123.92232291666733,
      "v": 127
    },
    {
      "midi": 66,
      "hit": false,
      "t": 92839.37157291675,
      "d": 123.92232291666733,
      "v": 127
    },
    {
      "midi": 69,
      "hit": false,
      "t": 92839.37157291675,
      "d": 123.92232291666733,
      "v": 127
    },
    {
      "midi": 35,
      "hit": false,
      "t": 93097.99207291675,
      "d": 123.92232291666733,
      "v": 103
    },
    {
      "midi": 47,
      "hit": false,
      "t": 93227.30232291674,
      "d": 123.92232291666733,
      "v": 101
    },
    {
      "midi": 59,
      "hit": false,
      "t": 93356.61257291674,
      "d": 123.92232291666733,
      "v": 109
    },
    {
      "midi": 63,
      "hit": false,
      "t": 93356.61257291674,
      "d": 123.92232291666733,
      "v": 127
    },
    {
      "midi": 66,
      "hit": false,
      "t": 93356.61257291674,
      "d": 123.92232291666733,
      "v": 127
    },
    {
      "midi": 35,
      "hit": false,
      "t": 93485.92282291673,
      "d": 123.92232291666733,
      "v": 127
    },
    {
      "midi": 47,
      "hit": false,
      "t": 93615.23307291673,
      "d": 123.92232291666733,
      "v": 127
    },
    {
      "midi": 59,
      "hit": false,
      "t": 93615.23307291673,
      "d": 123.92232291666733,
      "v": 123
    },
    {
      "midi": 63,
      "hit": false,
      "t": 93615.23307291673,
      "d": 123.92232291666733,
      "v": 127
    },
    {
      "midi": 66,
      "hit": false,
      "t": 93615.23307291673,
      "d": 123.92232291666733,
      "v": 127
    },
    {
      "midi": 59,
      "hit": false,
      "t": 93744.54332291672,
      "d": 123.92232291666733,
      "v": 119
    },
    {
      "midi": 63,
      "hit": false,
      "t": 93744.54332291672,
      "d": 123.92232291666733,
      "v": 127
    },
    {
      "midi": 66,
      "hit": false,
      "t": 93744.54332291672,
      "d": 123.92232291666733,
      "v": 127
    },
    {
      "midi": 59,
      "hit": false,
      "t": 94132.47407291672,
      "d": 123.92232291666733,
      "v": 105
    },
    {
      "midi": 63,
      "hit": false,
      "t": 94132.47407291672,
      "d": 123.92232291666733,
      "v": 127
    },
    {
      "midi": 68,
      "hit": false,
      "t": 94132.47407291672,
      "d": 123.92232291666733,
      "v": 127
    },
    {
      "midi": 44,
      "hit": false,
      "t": 94391.09457291673,
      "d": 123.92232291666733,
      "v": 127
    },
    {
      "midi": 59,
      "hit": false,
      "t": 94391.09457291673,
      "d": 123.92232291666733,
      "v": 103
    },
    {
      "midi": 63,
      "hit": false,
      "t": 94391.09457291673,
      "d": 123.92232291666733,
      "v": 127
    },
    {
      "midi": 68,
      "hit": false,
      "t": 94391.09457291673,
      "d": 123.92232291666733,
      "v": 127
    },
    {
      "midi": 56,
      "hit": false,
      "t": 94649.71507291673,
      "d": 123.92232291666733,
      "v": 127
    },
    {
      "midi": 59,
      "hit": false,
      "t": 94649.71507291673,
      "d": 123.92232291666733,
      "v": 127
    },
    {
      "midi": 63,
      "hit": false,
      "t": 94649.71507291673,
      "d": 123.92232291666733,
      "v": 127
    },
    {
      "midi": 68,
      "hit": false,
      "t": 94649.71507291673,
      "d": 123.92232291666733,
      "v": 127
    },
    {
      "midi": 59,
      "hit": false,
      "t": 94779.02532291673,
      "d": 123.92232291666733,
      "v": 127
    },
    {
      "midi": 63,
      "hit": false,
      "t": 94779.02532291673,
      "d": 123.92232291666733,
      "v": 127
    },
    {
      "midi": 66,
      "hit": false,
      "t": 94779.02532291673,
      "d": 123.92232291666733,
      "v": 127
    },
    {
      "midi": 44,
      "hit": false,
      "t": 94908.33557291672,
      "d": 123.92232291666733,
      "v": 127
    },
    {
      "midi": 37,
      "hit": false,
      "t": 95166.95607291673,
      "d": 123.92232291666733,
      "v": 127
    },
    {
      "midi": 49,
      "hit": false,
      "t": 95296.26632291672,
      "d": 123.92232291666733,
      "v": 107
    },
    {
      "midi": 64,
      "hit": false,
      "t": 95554.88682291673,
      "d": 26.939635416667443,
      "v": 127
    },
    {
      "midi": 68,
      "hit": false,
      "t": 95554.88682291673,
      "d": 32.32756249999511,
      "v": 127
    },
    {
      "midi": 61,
      "hit": false,
      "t": 95554.88682291673,
      "d": 43.103416666665,
      "v": 127
    },
    {
      "midi": 37,
      "hit": false,
      "t": 95554.88682291673,
      "d": 123.92232291666733,
      "v": 109
    },
    {
      "midi": 49,
      "hit": false,
      "t": 95684.19707291672,
      "d": 123.92232291666733,
      "v": 127
    },
    {
      "midi": 61,
      "hit": false,
      "t": 95942.81757291673,
      "d": 123.92232291666733,
      "v": 127
    },
    {
      "midi": 64,
      "hit": false,
      "t": 95942.81757291673,
      "d": 123.92232291666733,
      "v": 127
    },
    {
      "midi": 68,
      "hit": false,
      "t": 95942.81757291673,
      "d": 123.92232291666733,
      "v": 127
    },
    {
      "midi": 61,
      "hit": false,
      "t": 96201.43807291673,
      "d": 123.92232291666733,
      "v": 127
    },
    {
      "midi": 66,
      "hit": false,
      "t": 96201.43807291673,
      "d": 123.92232291666733,
      "v": 127
    },
    {
      "midi": 69,
      "hit": false,
      "t": 96201.43807291673,
      "d": 123.92232291666733,
      "v": 127
    },
    {
      "midi": 42,
      "hit": false,
      "t": 96460.05857291674,
      "d": 123.92232291666733,
      "v": 127
    },
    {
      "midi": 61,
      "hit": false,
      "t": 96589.36882291673,
      "d": 123.92232291666733,
      "v": 127
    },
    {
      "midi": 66,
      "hit": false,
      "t": 96589.36882291673,
      "d": 123.92232291666733,
      "v": 127
    },
    {
      "midi": 69,
      "hit": false,
      "t": 96589.36882291673,
      "d": 123.92232291666733,
      "v": 127
    },
    {
      "midi": 54,
      "hit": false,
      "t": 96718.67907291673,
      "d": 123.92232291666733,
      "v": 127
    },
    {
      "midi": 42,
      "hit": false,
      "t": 96977.29957291673,
      "d": 123.92232291666733,
      "v": 127
    },
    {
      "midi": 61,
      "hit": false,
      "t": 96977.29957291673,
      "d": 123.92232291666733,
      "v": 127
    },
    {
      "midi": 66,
      "hit": false,
      "t": 96977.29957291673,
      "d": 123.92232291666733,
      "v": 127
    },
    {
      "midi": 69,
      "hit": false,
      "t": 96977.29957291673,
      "d": 123.92232291666733,
      "v": 127
    },
    {
      "midi": 35,
      "hit": false,
      "t": 97235.92007291674,
      "d": 123.92232291666733,
      "v": 127
    },
    {
      "midi": 47,
      "hit": false,
      "t": 97365.23032291673,
      "d": 123.92232291666733,
      "v": 127
    },
    {
      "midi": 59,
      "hit": false,
      "t": 97494.54057291673,
      "d": 123.92232291666733,
      "v": 115
    },
    {
      "midi": 63,
      "hit": false,
      "t": 97494.54057291673,
      "d": 123.92232291666733,
      "v": 127
    },
    {
      "midi": 66,
      "hit": false,
      "t": 97494.54057291673,
      "d": 123.92232291666733,
      "v": 127
    },
    {
      "midi": 35,
      "hit": false,
      "t": 97623.85082291672,
      "d": 123.92232291666733,
      "v": 127
    },
    {
      "midi": 47,
      "hit": false,
      "t": 97753.16107291672,
      "d": 123.92232291666733,
      "v": 127
    },
    {
      "midi": 59,
      "hit": false,
      "t": 97753.16107291672,
      "d": 123.92232291666733,
      "v": 112
    },
    {
      "midi": 63,
      "hit": false,
      "t": 97753.16107291672,
      "d": 123.92232291666733,
      "v": 127
    },
    {
      "midi": 66,
      "hit": false,
      "t": 97753.16107291672,
      "d": 123.92232291666733,
      "v": 127
    },
    {
      "midi": 59,
      "hit": false,
      "t": 97882.47132291671,
      "d": 123.92232291666733,
      "v": 127
    },
    {
      "midi": 63,
      "hit": false,
      "t": 97882.47132291671,
      "d": 123.92232291666733,
      "v": 127
    },
    {
      "midi": 66,
      "hit": false,
      "t": 97882.47132291671,
      "d": 123.92232291666733,
      "v": 127
    },
    {
      "midi": 61,
      "hit": false,
      "t": 98270.40207291671,
      "d": 123.92232291666733,
      "v": 127
    },
    {
      "midi": 64,
      "hit": false,
      "t": 98270.40207291671,
      "d": 123.92232291666733,
      "v": 127
    },
    {
      "midi": 68,
      "hit": false,
      "t": 98270.40207291671,
      "d": 123.92232291666733,
      "v": 127
    },
    {
      "midi": 37,
      "hit": false,
      "t": 98529.02257291671,
      "d": 253.23257291666232,
      "v": 127
    },
    {
      "midi": 61,
      "hit": false,
      "t": 98658.33282291671,
      "d": 123.92232291666733,
      "v": 127
    },
    {
      "midi": 64,
      "hit": false,
      "t": 98658.33282291671,
      "d": 123.92232291666733,
      "v": 127
    },
    {
      "midi": 68,
      "hit": false,
      "t": 98658.33282291671,
      "d": 123.92232291666733,
      "v": 127
    },
    {
      "midi": 49,
      "hit": false,
      "t": 98787.6430729167,
      "d": 123.92232291666733,
      "v": 127
    },
    {
      "midi": 37,
      "hit": false,
      "t": 99046.26357291671,
      "d": 123.92232291666733,
      "v": 127
    },
    {
      "midi": 61,
      "hit": false,
      "t": 99046.26357291671,
      "d": 123.92232291666733,
      "v": 127
    },
    {
      "midi": 64,
      "hit": false,
      "t": 99046.26357291671,
      "d": 123.92232291666733,
      "v": 127
    },
    {
      "midi": 68,
      "hit": false,
      "t": 99046.26357291671,
      "d": 123.92232291666733,
      "v": 127
    },
    {
      "midi": 37,
      "hit": false,
      "t": 99304.88407291671,
      "d": 123.92232291666733,
      "v": 127
    },
    {
      "midi": 49,
      "hit": false,
      "t": 99434.19432291671,
      "d": 123.92232291666733,
      "v": 109
    },
    {
      "midi": 37,
      "hit": false,
      "t": 99692.81482291671,
      "d": 123.92232291666733,
      "v": 127
    },
    {
      "midi": 61,
      "hit": false,
      "t": 99692.81482291671,
      "d": 123.92232291666733,
      "v": 127
    },
    {
      "midi": 64,
      "hit": false,
      "t": 99692.81482291671,
      "d": 123.92232291666733,
      "v": 127
    },
    {
      "midi": 68,
      "hit": false,
      "t": 99692.81482291671,
      "d": 123.92232291666733,
      "v": 127
    },
    {
      "midi": 49,
      "hit": false,
      "t": 99822.12507291671,
      "d": 123.92232291666733,
      "v": 127
    },
    {
      "midi": 61,
      "hit": false,
      "t": 100080.74557291671,
      "d": 123.92232291666733,
      "v": 127
    },
    {
      "midi": 64,
      "hit": false,
      "t": 100080.74557291671,
      "d": 123.92232291666733,
      "v": 127
    },
    {
      "midi": 68,
      "hit": false,
      "t": 100080.74557291671,
      "d": 123.92232291666733,
      "v": 127
    },
    {
      "midi": 61,
      "hit": false,
      "t": 100339.36607291672,
      "d": 123.92232291666733,
      "v": 127
    },
    {
      "midi": 66,
      "hit": false,
      "t": 100339.36607291672,
      "d": 123.92232291666733,
      "v": 127
    },
    {
      "midi": 69,
      "hit": false,
      "t": 100339.36607291672,
      "d": 123.92232291666733,
      "v": 127
    },
    {
      "midi": 42,
      "hit": false,
      "t": 100597.98657291672,
      "d": 123.92232291666733,
      "v": 127
    },
    {
      "midi": 61,
      "hit": false,
      "t": 100727.29682291672,
      "d": 123.92232291666733,
      "v": 127
    },
    {
      "midi": 66,
      "hit": false,
      "t": 100727.29682291672,
      "d": 123.92232291666733,
      "v": 127
    },
    {
      "midi": 69,
      "hit": false,
      "t": 100727.29682291672,
      "d": 123.92232291666733,
      "v": 127
    },
    {
      "midi": 54,
      "hit": false,
      "t": 100856.60707291671,
      "d": 123.92232291666733,
      "v": 127
    },
    {
      "midi": 42,
      "hit": false,
      "t": 101115.22757291672,
      "d": 123.92232291666733,
      "v": 127
    },
    {
      "midi": 61,
      "hit": false,
      "t": 101115.22757291672,
      "d": 123.92232291666733,
      "v": 127
    },
    {
      "midi": 66,
      "hit": false,
      "t": 101115.22757291672,
      "d": 123.92232291666733,
      "v": 127
    },
    {
      "midi": 69,
      "hit": false,
      "t": 101115.22757291672,
      "d": 123.92232291666733,
      "v": 127
    },
    {
      "midi": 35,
      "hit": false,
      "t": 101373.84807291672,
      "d": 123.92232291666733,
      "v": 103
    },
    {
      "midi": 47,
      "hit": false,
      "t": 101503.15832291672,
      "d": 123.92232291666733,
      "v": 101
    },
    {
      "midi": 59,
      "hit": false,
      "t": 101632.46857291671,
      "d": 123.92232291666733,
      "v": 109
    },
    {
      "midi": 63,
      "hit": false,
      "t": 101632.46857291671,
      "d": 123.92232291666733,
      "v": 127
    },
    {
      "midi": 66,
      "hit": false,
      "t": 101632.46857291671,
      "d": 123.92232291666733,
      "v": 127
    },
    {
      "midi": 35,
      "hit": false,
      "t": 101761.7788229167,
      "d": 123.92232291666733,
      "v": 127
    },
    {
      "midi": 47,
      "hit": false,
      "t": 101891.0890729167,
      "d": 123.92232291666733,
      "v": 127
    },
    {
      "midi": 59,
      "hit": false,
      "t": 101891.0890729167,
      "d": 123.92232291666733,
      "v": 123
    },
    {
      "midi": 63,
      "hit": false,
      "t": 101891.0890729167,
      "d": 123.92232291666733,
      "v": 127
    },
    {
      "midi": 66,
      "hit": false,
      "t": 101891.0890729167,
      "d": 123.92232291666733,
      "v": 127
    },
    {
      "midi": 59,
      "hit": false,
      "t": 102020.3993229167,
      "d": 123.92232291666733,
      "v": 119
    },
    {
      "midi": 63,
      "hit": false,
      "t": 102020.3993229167,
      "d": 123.92232291666733,
      "v": 127
    },
    {
      "midi": 66,
      "hit": false,
      "t": 102020.3993229167,
      "d": 123.92232291666733,
      "v": 127
    },
    {
      "midi": 59,
      "hit": false,
      "t": 102408.3300729167,
      "d": 123.92232291666733,
      "v": 105
    },
    {
      "midi": 63,
      "hit": false,
      "t": 102408.3300729167,
      "d": 123.92232291666733,
      "v": 127
    },
    {
      "midi": 68,
      "hit": false,
      "t": 102408.3300729167,
      "d": 123.92232291666733,
      "v": 127
    },
    {
      "midi": 44,
      "hit": false,
      "t": 102666.9505729167,
      "d": 123.92232291666733,
      "v": 127
    },
    {
      "midi": 59,
      "hit": false,
      "t": 102666.9505729167,
      "d": 123.92232291666733,
      "v": 103
    },
    {
      "midi": 63,
      "hit": false,
      "t": 102666.9505729167,
      "d": 123.92232291666733,
      "v": 127
    },
    {
      "midi": 68,
      "hit": false,
      "t": 102666.9505729167,
      "d": 123.92232291666733,
      "v": 127
    },
    {
      "midi": 56,
      "hit": false,
      "t": 102925.5710729167,
      "d": 123.92232291666733,
      "v": 127
    },
    {
      "midi": 59,
      "hit": false,
      "t": 102925.5710729167,
      "d": 123.92232291666733,
      "v": 127
    },
    {
      "midi": 63,
      "hit": false,
      "t": 102925.5710729167,
      "d": 123.92232291666733,
      "v": 127
    },
    {
      "midi": 68,
      "hit": false,
      "t": 102925.5710729167,
      "d": 123.92232291666733,
      "v": 127
    },
    {
      "midi": 59,
      "hit": false,
      "t": 103054.8813229167,
      "d": 123.92232291666733,
      "v": 127
    },
    {
      "midi": 63,
      "hit": false,
      "t": 103054.8813229167,
      "d": 123.92232291666733,
      "v": 127
    },
    {
      "midi": 66,
      "hit": false,
      "t": 103054.8813229167,
      "d": 123.92232291666733,
      "v": 127
    },
    {
      "midi": 44,
      "hit": false,
      "t": 103184.1915729167,
      "d": 123.92232291666733,
      "v": 127
    },
    {
      "midi": 37,
      "hit": false,
      "t": 103442.8120729167,
      "d": 123.92232291666733,
      "v": 127
    },
    {
      "midi": 49,
      "hit": false,
      "t": 103572.1223229167,
      "d": 123.92232291666733,
      "v": 107
    },
    {
      "midi": 64,
      "hit": false,
      "t": 103830.7428229167,
      "d": 26.939635416667443,
      "v": 127
    },
    {
      "midi": 68,
      "hit": false,
      "t": 103830.7428229167,
      "d": 32.32756249999511,
      "v": 127
    },
    {
      "midi": 61,
      "hit": false,
      "t": 103830.7428229167,
      "d": 43.103416666665,
      "v": 127
    },
    {
      "midi": 37,
      "hit": false,
      "t": 103830.7428229167,
      "d": 123.92232291666733,
      "v": 109
    },
    {
      "midi": 49,
      "hit": false,
      "t": 103960.0530729167,
      "d": 123.92232291666733,
      "v": 127
    },
    {
      "midi": 61,
      "hit": false,
      "t": 104218.6735729167,
      "d": 123.92232291666733,
      "v": 127
    },
    {
      "midi": 64,
      "hit": false,
      "t": 104218.6735729167,
      "d": 123.92232291666733,
      "v": 127
    },
    {
      "midi": 68,
      "hit": false,
      "t": 104218.6735729167,
      "d": 123.92232291666733,
      "v": 127
    },
    {
      "midi": 61,
      "hit": false,
      "t": 104477.2940729167,
      "d": 123.92232291666733,
      "v": 127
    },
    {
      "midi": 66,
      "hit": false,
      "t": 104477.2940729167,
      "d": 123.92232291666733,
      "v": 127
    },
    {
      "midi": 69,
      "hit": false,
      "t": 104477.2940729167,
      "d": 123.92232291666733,
      "v": 127
    },
    {
      "midi": 42,
      "hit": false,
      "t": 104735.9145729167,
      "d": 123.92232291666733,
      "v": 127
    },
    {
      "midi": 61,
      "hit": false,
      "t": 104865.2248229167,
      "d": 123.92232291666733,
      "v": 127
    },
    {
      "midi": 66,
      "hit": false,
      "t": 104865.2248229167,
      "d": 123.92232291666733,
      "v": 127
    },
    {
      "midi": 69,
      "hit": false,
      "t": 104865.2248229167,
      "d": 123.92232291666733,
      "v": 127
    },
    {
      "midi": 54,
      "hit": false,
      "t": 104994.5350729167,
      "d": 123.92232291666733,
      "v": 127
    },
    {
      "midi": 42,
      "hit": false,
      "t": 105253.1555729167,
      "d": 123.92232291666733,
      "v": 127
    },
    {
      "midi": 61,
      "hit": false,
      "t": 105253.1555729167,
      "d": 123.92232291666733,
      "v": 127
    },
    {
      "midi": 66,
      "hit": false,
      "t": 105253.1555729167,
      "d": 123.92232291666733,
      "v": 127
    },
    {
      "midi": 69,
      "hit": false,
      "t": 105253.1555729167,
      "d": 123.92232291666733,
      "v": 127
    },
    {
      "midi": 35,
      "hit": false,
      "t": 105511.7760729167,
      "d": 123.92232291666733,
      "v": 127
    },
    {
      "midi": 47,
      "hit": false,
      "t": 105641.0863229167,
      "d": 123.92232291666733,
      "v": 127
    },
    {
      "midi": 59,
      "hit": false,
      "t": 105770.3965729167,
      "d": 123.92232291666733,
      "v": 115
    },
    {
      "midi": 63,
      "hit": false,
      "t": 105770.3965729167,
      "d": 123.92232291666733,
      "v": 127
    },
    {
      "midi": 66,
      "hit": false,
      "t": 105770.3965729167,
      "d": 123.92232291666733,
      "v": 127
    },
    {
      "midi": 35,
      "hit": false,
      "t": 105899.70682291669,
      "d": 123.92232291666733,
      "v": 127
    },
    {
      "midi": 47,
      "hit": false,
      "t": 106029.01707291669,
      "d": 123.92232291666733,
      "v": 127
    },
    {
      "midi": 59,
      "hit": false,
      "t": 106029.01707291669,
      "d": 123.92232291666733,
      "v": 112
    },
    {
      "midi": 63,
      "hit": false,
      "t": 106029.01707291669,
      "d": 123.92232291666733,
      "v": 127
    },
    {
      "midi": 66,
      "hit": false,
      "t": 106029.01707291669,
      "d": 123.92232291666733,
      "v": 127
    },
    {
      "midi": 59,
      "hit": false,
      "t": 106158.32732291668,
      "d": 123.92232291666733,
      "v": 127
    },
    {
      "midi": 63,
      "hit": false,
      "t": 106158.32732291668,
      "d": 123.92232291666733,
      "v": 127
    },
    {
      "midi": 66,
      "hit": false,
      "t": 106158.32732291668,
      "d": 123.92232291666733,
      "v": 127
    },
    {
      "midi": 61,
      "hit": false,
      "t": 106546.25807291668,
      "d": 123.92232291666733,
      "v": 127
    },
    {
      "midi": 64,
      "hit": false,
      "t": 106546.25807291668,
      "d": 123.92232291666733,
      "v": 127
    },
    {
      "midi": 68,
      "hit": false,
      "t": 106546.25807291668,
      "d": 123.92232291666733,
      "v": 127
    },
    {
      "midi": 37,
      "hit": false,
      "t": 106804.87857291668,
      "d": 253.23257291666232,
      "v": 127
    },
    {
      "midi": 61,
      "hit": false,
      "t": 106934.18882291668,
      "d": 123.92232291666733,
      "v": 127
    },
    {
      "midi": 64,
      "hit": false,
      "t": 106934.18882291668,
      "d": 123.92232291666733,
      "v": 127
    },
    {
      "midi": 68,
      "hit": false,
      "t": 106934.18882291668,
      "d": 123.92232291666733,
      "v": 127
    },
    {
      "midi": 49,
      "hit": false,
      "t": 107063.49907291667,
      "d": 123.92232291666733,
      "v": 127
    },
    {
      "midi": 37,
      "hit": false,
      "t": 107322.11957291668,
      "d": 123.92232291666733,
      "v": 127
    },
    {
      "midi": 61,
      "hit": false,
      "t": 107322.11957291668,
      "d": 123.92232291666733,
      "v": 127
    },
    {
      "midi": 64,
      "hit": false,
      "t": 107322.11957291668,
      "d": 123.92232291666733,
      "v": 127
    },
    {
      "midi": 68,
      "hit": false,
      "t": 107322.11957291668,
      "d": 123.92232291666733,
      "v": 127
    },
    {
      "midi": 37,
      "hit": false,
      "t": 107580.74007291668,
      "d": 123.92232291666733,
      "v": 127
    },
    {
      "midi": 49,
      "hit": false,
      "t": 107710.05032291668,
      "d": 123.92232291666733,
      "v": 109
    },
    {
      "midi": 37,
      "hit": false,
      "t": 107968.67082291668,
      "d": 123.92232291666733,
      "v": 127
    },
    {
      "midi": 61,
      "hit": false,
      "t": 107968.67082291668,
      "d": 123.92232291666733,
      "v": 127
    },
    {
      "midi": 64,
      "hit": false,
      "t": 107968.67082291668,
      "d": 123.92232291666733,
      "v": 127
    },
    {
      "midi": 68,
      "hit": false,
      "t": 107968.67082291668,
      "d": 123.92232291666733,
      "v": 127
    },
    {
      "midi": 49,
      "hit": false,
      "t": 108097.98107291668,
      "d": 123.92232291666733,
      "v": 127
    },
    {
      "midi": 61,
      "hit": false,
      "t": 108356.60157291668,
      "d": 123.92232291666733,
      "v": 127
    },
    {
      "midi": 64,
      "hit": false,
      "t": 108356.60157291668,
      "d": 123.92232291666733,
      "v": 127
    },
    {
      "midi": 68,
      "hit": false,
      "t": 108356.60157291668,
      "d": 123.92232291666733,
      "v": 127
    },
    {
      "midi": 61,
      "hit": false,
      "t": 108615.22207291669,
      "d": 123.92232291666733,
      "v": 127
    },
    {
      "midi": 66,
      "hit": false,
      "t": 108615.22207291669,
      "d": 123.92232291666733,
      "v": 127
    },
    {
      "midi": 69,
      "hit": false,
      "t": 108615.22207291669,
      "d": 123.92232291666733,
      "v": 127
    },
    {
      "midi": 42,
      "hit": false,
      "t": 108873.84257291669,
      "d": 123.92232291666733,
      "v": 127
    },
    {
      "midi": 61,
      "hit": false,
      "t": 109003.15282291669,
      "d": 123.92232291666733,
      "v": 127
    },
    {
      "midi": 66,
      "hit": false,
      "t": 109003.15282291669,
      "d": 123.92232291666733,
      "v": 127
    },
    {
      "midi": 69,
      "hit": false,
      "t": 109003.15282291669,
      "d": 123.92232291666733,
      "v": 127
    },
    {
      "midi": 54,
      "hit": false,
      "t": 109132.46307291668,
      "d": 123.92232291666733,
      "v": 127
    },
    {
      "midi": 42,
      "hit": false,
      "t": 109391.08357291669,
      "d": 123.92232291666733,
      "v": 127
    },
    {
      "midi": 61,
      "hit": false,
      "t": 109391.08357291669,
      "d": 123.92232291666733,
      "v": 127
    },
    {
      "midi": 66,
      "hit": false,
      "t": 109391.08357291669,
      "d": 123.92232291666733,
      "v": 127
    },
    {
      "midi": 69,
      "hit": false,
      "t": 109391.08357291669,
      "d": 123.92232291666733,
      "v": 127
    },
    {
      "midi": 35,
      "hit": false,
      "t": 109649.70407291669,
      "d": 123.92232291666733,
      "v": 103
    },
    {
      "midi": 47,
      "hit": false,
      "t": 109779.01432291669,
      "d": 123.92232291666733,
      "v": 101
    },
    {
      "midi": 59,
      "hit": false,
      "t": 109908.32457291668,
      "d": 123.92232291666733,
      "v": 109
    },
    {
      "midi": 63,
      "hit": false,
      "t": 109908.32457291668,
      "d": 123.92232291666733,
      "v": 127
    },
    {
      "midi": 66,
      "hit": false,
      "t": 109908.32457291668,
      "d": 123.92232291666733,
      "v": 127
    },
    {
      "midi": 35,
      "hit": false,
      "t": 110037.63482291668,
      "d": 123.92232291666733,
      "v": 127
    },
    {
      "midi": 47,
      "hit": false,
      "t": 110166.94507291667,
      "d": 123.92232291666733,
      "v": 127
    },
    {
      "midi": 59,
      "hit": false,
      "t": 110166.94507291667,
      "d": 123.92232291666733,
      "v": 123
    },
    {
      "midi": 63,
      "hit": false,
      "t": 110166.94507291667,
      "d": 123.92232291666733,
      "v": 127
    },
    {
      "midi": 66,
      "hit": false,
      "t": 110166.94507291667,
      "d": 123.92232291666733,
      "v": 127
    },
    {
      "midi": 59,
      "hit": false,
      "t": 110296.25532291667,
      "d": 123.92232291666733,
      "v": 119
    },
    {
      "midi": 63,
      "hit": false,
      "t": 110296.25532291667,
      "d": 123.92232291666733,
      "v": 127
    },
    {
      "midi": 66,
      "hit": false,
      "t": 110296.25532291667,
      "d": 123.92232291666733,
      "v": 127
    },
    {
      "midi": 59,
      "hit": false,
      "t": 110684.18607291667,
      "d": 123.92232291666733,
      "v": 105
    },
    {
      "midi": 63,
      "hit": false,
      "t": 110684.18607291667,
      "d": 123.92232291666733,
      "v": 127
    },
    {
      "midi": 68,
      "hit": false,
      "t": 110684.18607291667,
      "d": 123.92232291666733,
      "v": 127
    },
    {
      "midi": 44,
      "hit": false,
      "t": 110942.80657291667,
      "d": 123.92232291666733,
      "v": 127
    },
    {
      "midi": 59,
      "hit": false,
      "t": 110942.80657291667,
      "d": 123.92232291666733,
      "v": 103
    },
    {
      "midi": 63,
      "hit": false,
      "t": 110942.80657291667,
      "d": 123.92232291666733,
      "v": 127
    },
    {
      "midi": 68,
      "hit": false,
      "t": 110942.80657291667,
      "d": 123.92232291666733,
      "v": 127
    },
    {
      "midi": 56,
      "hit": false,
      "t": 111201.42707291667,
      "d": 123.92232291666733,
      "v": 127
    },
    {
      "midi": 59,
      "hit": false,
      "t": 111201.42707291667,
      "d": 123.92232291666733,
      "v": 127
    },
    {
      "midi": 63,
      "hit": false,
      "t": 111201.42707291667,
      "d": 123.92232291666733,
      "v": 127
    },
    {
      "midi": 68,
      "hit": false,
      "t": 111201.42707291667,
      "d": 123.92232291666733,
      "v": 127
    },
    {
      "midi": 59,
      "hit": false,
      "t": 111330.73732291667,
      "d": 123.92232291666733,
      "v": 127
    },
    {
      "midi": 63,
      "hit": false,
      "t": 111330.73732291667,
      "d": 123.92232291666733,
      "v": 127
    },
    {
      "midi": 66,
      "hit": false,
      "t": 111330.73732291667,
      "d": 123.92232291666733,
      "v": 127
    },
    {
      "midi": 44,
      "hit": false,
      "t": 111460.04757291666,
      "d": 123.92232291666733,
      "v": 127
    },
    {
      "midi": 37,
      "hit": false,
      "t": 111718.66807291667,
      "d": 123.92232291666733,
      "v": 127
    },
    {
      "midi": 49,
      "hit": false,
      "t": 111847.97832291666,
      "d": 123.92232291666733,
      "v": 107
    },
    {
      "midi": 64,
      "hit": false,
      "t": 112106.59882291667,
      "d": 26.939635416667443,
      "v": 127
    },
    {
      "midi": 68,
      "hit": false,
      "t": 112106.59882291667,
      "d": 32.32756249999511,
      "v": 127
    },
    {
      "midi": 61,
      "hit": false,
      "t": 112106.59882291667,
      "d": 43.103416666665,
      "v": 127
    },
    {
      "midi": 37,
      "hit": false,
      "t": 112106.59882291667,
      "d": 123.92232291666733,
      "v": 109
    },
    {
      "midi": 49,
      "hit": false,
      "t": 112235.90907291666,
      "d": 123.92232291666733,
      "v": 127
    },
    {
      "midi": 61,
      "hit": false,
      "t": 112494.52957291667,
      "d": 123.92232291666733,
      "v": 127
    },
    {
      "midi": 64,
      "hit": false,
      "t": 112494.52957291667,
      "d": 123.92232291666733,
      "v": 127
    },
    {
      "midi": 68,
      "hit": false,
      "t": 112494.52957291667,
      "d": 123.92232291666733,
      "v": 127
    },
    {
      "midi": 61,
      "hit": false,
      "t": 112753.15007291667,
      "d": 123.92232291666733,
      "v": 127
    },
    {
      "midi": 66,
      "hit": false,
      "t": 112753.15007291667,
      "d": 123.92232291666733,
      "v": 127
    },
    {
      "midi": 69,
      "hit": false,
      "t": 112753.15007291667,
      "d": 123.92232291666733,
      "v": 127
    },
    {
      "midi": 42,
      "hit": false,
      "t": 113011.77057291668,
      "d": 123.92232291666733,
      "v": 127
    },
    {
      "midi": 61,
      "hit": false,
      "t": 113141.08082291667,
      "d": 123.92232291666733,
      "v": 127
    },
    {
      "midi": 66,
      "hit": false,
      "t": 113141.08082291667,
      "d": 123.92232291666733,
      "v": 127
    },
    {
      "midi": 69,
      "hit": false,
      "t": 113141.08082291667,
      "d": 123.92232291666733,
      "v": 127
    },
    {
      "midi": 54,
      "hit": false,
      "t": 113270.39107291667,
      "d": 123.92232291666733,
      "v": 127
    },
    {
      "midi": 42,
      "hit": false,
      "t": 113529.01157291667,
      "d": 123.92232291666733,
      "v": 127
    },
    {
      "midi": 61,
      "hit": false,
      "t": 113529.01157291667,
      "d": 123.92232291666733,
      "v": 127
    },
    {
      "midi": 66,
      "hit": false,
      "t": 113529.01157291667,
      "d": 123.92232291666733,
      "v": 127
    },
    {
      "midi": 69,
      "hit": false,
      "t": 113529.01157291667,
      "d": 123.92232291666733,
      "v": 127
    },
    {
      "midi": 35,
      "hit": false,
      "t": 113787.63207291668,
      "d": 123.92232291666733,
      "v": 127
    },
    {
      "midi": 47,
      "hit": false,
      "t": 113916.94232291667,
      "d": 123.92232291666733,
      "v": 127
    },
    {
      "midi": 59,
      "hit": false,
      "t": 114046.25257291667,
      "d": 123.92232291666733,
      "v": 115
    },
    {
      "midi": 63,
      "hit": false,
      "t": 114046.25257291667,
      "d": 123.92232291666733,
      "v": 127
    },
    {
      "midi": 66,
      "hit": false,
      "t": 114046.25257291667,
      "d": 123.92232291666733,
      "v": 127
    },
    {
      "midi": 35,
      "hit": false,
      "t": 114175.56282291666,
      "d": 123.92232291666733,
      "v": 127
    },
    {
      "midi": 47,
      "hit": false,
      "t": 114304.87307291666,
      "d": 123.92232291666733,
      "v": 127
    },
    {
      "midi": 59,
      "hit": false,
      "t": 114304.87307291666,
      "d": 123.92232291666733,
      "v": 112
    },
    {
      "midi": 63,
      "hit": false,
      "t": 114304.87307291666,
      "d": 123.92232291666733,
      "v": 127
    },
    {
      "midi": 66,
      "hit": false,
      "t": 114304.87307291666,
      "d": 123.92232291666733,
      "v": 127
    },
    {
      "midi": 59,
      "hit": false,
      "t": 114434.18332291665,
      "d": 123.92232291666733,
      "v": 127
    },
    {
      "midi": 63,
      "hit": false,
      "t": 114434.18332291665,
      "d": 123.92232291666733,
      "v": 127
    },
    {
      "midi": 66,
      "hit": false,
      "t": 114434.18332291665,
      "d": 123.92232291666733,
      "v": 127
    },
    {
      "midi": 61,
      "hit": false,
      "t": 114822.11407291665,
      "d": 123.92232291666733,
      "v": 127
    },
    {
      "midi": 64,
      "hit": false,
      "t": 114822.11407291665,
      "d": 123.92232291666733,
      "v": 127
    },
    {
      "midi": 68,
      "hit": false,
      "t": 114822.11407291665,
      "d": 123.92232291666733,
      "v": 127
    },
    {
      "midi": 37,
      "hit": false,
      "t": 115080.73457291666,
      "d": 253.23257291666232,
      "v": 127
    },
    {
      "midi": 61,
      "hit": false,
      "t": 115210.04482291665,
      "d": 123.92232291666733,
      "v": 127
    },
    {
      "midi": 64,
      "hit": false,
      "t": 115210.04482291665,
      "d": 123.92232291666733,
      "v": 127
    },
    {
      "midi": 68,
      "hit": false,
      "t": 115210.04482291665,
      "d": 123.92232291666733,
      "v": 127
    },
    {
      "midi": 49,
      "hit": false,
      "t": 115339.35507291665,
      "d": 123.92232291666733,
      "v": 127
    },
    {
      "midi": 37,
      "hit": false,
      "t": 115597.97557291665,
      "d": 123.92232291666733,
      "v": 127
    },
    {
      "midi": 61,
      "hit": false,
      "t": 115597.97557291665,
      "d": 123.92232291666733,
      "v": 127
    },
    {
      "midi": 64,
      "hit": false,
      "t": 115597.97557291665,
      "d": 123.92232291666733,
      "v": 127
    },
    {
      "midi": 68,
      "hit": false,
      "t": 115597.97557291665,
      "d": 123.92232291666733,
      "v": 127
    },
    {
      "midi": 37,
      "hit": false,
      "t": 115856.59607291665,
      "d": 123.92232291666733,
      "v": 127
    },
    {
      "midi": 49,
      "hit": false,
      "t": 115985.90632291665,
      "d": 123.92232291666733,
      "v": 109
    },
    {
      "midi": 37,
      "hit": false,
      "t": 116244.52682291665,
      "d": 123.92232291666733,
      "v": 127
    },
    {
      "midi": 61,
      "hit": false,
      "t": 116244.52682291665,
      "d": 123.92232291666733,
      "v": 127
    },
    {
      "midi": 64,
      "hit": false,
      "t": 116244.52682291665,
      "d": 123.92232291666733,
      "v": 127
    },
    {
      "midi": 68,
      "hit": false,
      "t": 116244.52682291665,
      "d": 123.92232291666733,
      "v": 127
    },
    {
      "midi": 49,
      "hit": false,
      "t": 116373.83707291665,
      "d": 123.92232291666733,
      "v": 127
    },
    {
      "midi": 61,
      "hit": false,
      "t": 116632.45757291665,
      "d": 123.92232291666733,
      "v": 127
    },
    {
      "midi": 64,
      "hit": false,
      "t": 116632.45757291665,
      "d": 123.92232291666733,
      "v": 127
    },
    {
      "midi": 68,
      "hit": false,
      "t": 116632.45757291665,
      "d": 123.92232291666733,
      "v": 127
    },
    {
      "midi": 61,
      "hit": false,
      "t": 116891.07807291666,
      "d": 123.92232291666733,
      "v": 127
    },
    {
      "midi": 66,
      "hit": false,
      "t": 116891.07807291666,
      "d": 123.92232291666733,
      "v": 127
    },
    {
      "midi": 69,
      "hit": false,
      "t": 116891.07807291666,
      "d": 123.92232291666733,
      "v": 127
    },
    {
      "midi": 42,
      "hit": false,
      "t": 117149.69857291666,
      "d": 123.92232291666733,
      "v": 127
    },
    {
      "midi": 61,
      "hit": false,
      "t": 117279.00882291666,
      "d": 123.92232291666733,
      "v": 127
    },
    {
      "midi": 66,
      "hit": false,
      "t": 117279.00882291666,
      "d": 123.92232291666733,
      "v": 127
    },
    {
      "midi": 69,
      "hit": false,
      "t": 117279.00882291666,
      "d": 123.92232291666733,
      "v": 127
    },
    {
      "midi": 54,
      "hit": false,
      "t": 117408.31907291665,
      "d": 123.92232291666733,
      "v": 127
    },
    {
      "midi": 42,
      "hit": false,
      "t": 117666.93957291666,
      "d": 123.92232291666733,
      "v": 127
    },
    {
      "midi": 61,
      "hit": false,
      "t": 117666.93957291666,
      "d": 123.92232291666733,
      "v": 127
    },
    {
      "midi": 66,
      "hit": false,
      "t": 117666.93957291666,
      "d": 123.92232291666733,
      "v": 127
    },
    {
      "midi": 69,
      "hit": false,
      "t": 117666.93957291666,
      "d": 123.92232291666733,
      "v": 127
    },
    {
      "midi": 35,
      "hit": false,
      "t": 117925.56007291666,
      "d": 123.92232291666733,
      "v": 103
    },
    {
      "midi": 47,
      "hit": false,
      "t": 118054.87032291666,
      "d": 123.92232291666733,
      "v": 101
    },
    {
      "midi": 59,
      "hit": false,
      "t": 118184.18057291665,
      "d": 123.92232291666733,
      "v": 109
    },
    {
      "midi": 63,
      "hit": false,
      "t": 118184.18057291665,
      "d": 123.92232291666733,
      "v": 127
    },
    {
      "midi": 66,
      "hit": false,
      "t": 118184.18057291665,
      "d": 123.92232291666733,
      "v": 127
    },
    {
      "midi": 35,
      "hit": false,
      "t": 118313.49082291665,
      "d": 123.92232291666733,
      "v": 127
    },
    {
      "midi": 47,
      "hit": false,
      "t": 118442.80107291664,
      "d": 123.92232291666733,
      "v": 127
    },
    {
      "midi": 59,
      "hit": false,
      "t": 118442.80107291664,
      "d": 123.92232291666733,
      "v": 123
    },
    {
      "midi": 63,
      "hit": false,
      "t": 118442.80107291664,
      "d": 123.92232291666733,
      "v": 127
    },
    {
      "midi": 66,
      "hit": false,
      "t": 118442.80107291664,
      "d": 123.92232291666733,
      "v": 127
    },
    {
      "midi": 59,
      "hit": false,
      "t": 118572.11132291664,
      "d": 123.92232291666733,
      "v": 119
    },
    {
      "midi": 63,
      "hit": false,
      "t": 118572.11132291664,
      "d": 123.92232291666733,
      "v": 127
    },
    {
      "midi": 66,
      "hit": false,
      "t": 118572.11132291664,
      "d": 123.92232291666733,
      "v": 127
    },
    {
      "midi": 59,
      "hit": false,
      "t": 118960.04207291664,
      "d": 123.92232291666733,
      "v": 105
    },
    {
      "midi": 63,
      "hit": false,
      "t": 118960.04207291664,
      "d": 123.92232291666733,
      "v": 127
    },
    {
      "midi": 68,
      "hit": false,
      "t": 118960.04207291664,
      "d": 123.92232291666733,
      "v": 127
    },
    {
      "midi": 44,
      "hit": false,
      "t": 119218.66257291664,
      "d": 123.92232291666733,
      "v": 127
    },
    {
      "midi": 59,
      "hit": false,
      "t": 119218.66257291664,
      "d": 123.92232291666733,
      "v": 103
    },
    {
      "midi": 63,
      "hit": false,
      "t": 119218.66257291664,
      "d": 123.92232291666733,
      "v": 127
    },
    {
      "midi": 68,
      "hit": false,
      "t": 119218.66257291664,
      "d": 123.92232291666733,
      "v": 127
    },
    {
      "midi": 56,
      "hit": false,
      "t": 119477.28307291665,
      "d": 123.92232291666733,
      "v": 127
    },
    {
      "midi": 59,
      "hit": false,
      "t": 119477.28307291665,
      "d": 123.92232291666733,
      "v": 127
    },
    {
      "midi": 63,
      "hit": false,
      "t": 119477.28307291665,
      "d": 123.92232291666733,
      "v": 127
    },
    {
      "midi": 68,
      "hit": false,
      "t": 119477.28307291665,
      "d": 123.92232291666733,
      "v": 127
    },
    {
      "midi": 59,
      "hit": false,
      "t": 119606.59332291664,
      "d": 123.92232291666733,
      "v": 127
    },
    {
      "midi": 63,
      "hit": false,
      "t": 119606.59332291664,
      "d": 123.92232291666733,
      "v": 127
    },
    {
      "midi": 66,
      "hit": false,
      "t": 119606.59332291664,
      "d": 123.92232291666733,
      "v": 127
    },
    {
      "midi": 44,
      "hit": false,
      "t": 119735.90357291664,
      "d": 123.92232291666733,
      "v": 127
    },
    {
      "midi": 61,
      "hit": false,
      "t": 121546.24707291664,
      "d": 382.54282291667187,
      "v": 127
    },
    {
      "midi": 64,
      "hit": false,
      "t": 121546.24707291664,
      "d": 382.54282291667187,
      "v": 127
    },
    {
      "midi": 68,
      "hit": false,
      "t": 121546.24707291664,
      "d": 382.54282291667187,
      "v": 127
    },
    {
      "midi": 37,
      "hit": false,
      "t": 121804.86757291664,
      "d": 511.85307291666686,
      "v": 127
    },
    {
      "midi": 61,
      "hit": false,
      "t": 122451.41882291665,
      "d": 123.92232291666733,
      "v": 127
    },
    {
      "midi": 64,
      "hit": false,
      "t": 122451.41882291665,
      "d": 123.92232291666733,
      "v": 127
    },
    {
      "midi": 68,
      "hit": false,
      "t": 122451.41882291665,
      "d": 123.92232291666733,
      "v": 127
    },
    {
      "midi": 37,
      "hit": false,
      "t": 122580.72907291664,
      "d": 253.23257291666232,
      "v": 127
    },
    {
      "midi": 61,
      "hit": false,
      "t": 122839.34957291663,
      "d": 382.54282291667187,
      "v": 127
    },
    {
      "midi": 64,
      "hit": false,
      "t": 122839.34957291663,
      "d": 382.54282291667187,
      "v": 127
    },
    {
      "midi": 68,
      "hit": false,
      "t": 122839.34957291663,
      "d": 382.54282291667187,
      "v": 127
    },
    {
      "midi": 49,
      "hit": false,
      "t": 122839.34957291663,
      "d": 511.85307291666686,
      "v": 127
    },
    {
      "midi": 61,
      "hit": false,
      "t": 123356.59057291663,
      "d": 123.92232291666733,
      "v": 127
    },
    {
      "midi": 37,
      "hit": false,
      "t": 123356.59057291663,
      "d": 253.23257291666232,
      "v": 127
    },
    {
      "midi": 64,
      "hit": false,
      "t": 123356.59057291663,
      "d": 382.5428229166573,
      "v": 127
    },
    {
      "midi": 68,
      "hit": false,
      "t": 123356.59057291663,
      "d": 382.5428229166573,
      "v": 127
    },
    {
      "midi": 49,
      "hit": false,
      "t": 123615.21107291662,
      "d": 511.85307291666686,
      "v": 127
    },
    {
      "midi": 42,
      "hit": false,
      "t": 124132.45207291661,
      "d": 511.85307291666686,
      "v": 127
    },
    {
      "midi": 54,
      "hit": false,
      "t": 124649.6930729166,
      "d": 253.23257291666232,
      "v": 127
    },
    {
      "midi": 61,
      "hit": false,
      "t": 124908.3135729166,
      "d": 123.92232291666733,
      "v": 127
    },
    {
      "midi": 66,
      "hit": false,
      "t": 124908.3135729166,
      "d": 123.92232291666733,
      "v": 127
    },
    {
      "midi": 69,
      "hit": false,
      "t": 124908.3135729166,
      "d": 123.92232291666733,
      "v": 127
    },
    {
      "midi": 42,
      "hit": false,
      "t": 124908.3135729166,
      "d": 382.5428229166573,
      "v": 127
    },
    {
      "midi": 61,
      "hit": false,
      "t": 125037.62382291659,
      "d": 253.23257291666232,
      "v": 103
    },
    {
      "midi": 66,
      "hit": false,
      "t": 125037.62382291659,
      "d": 253.23257291666232,
      "v": 127
    },
    {
      "midi": 69,
      "hit": false,
      "t": 125037.62382291659,
      "d": 253.23257291666232,
      "v": 127
    },
    {
      "midi": 61,
      "hit": false,
      "t": 125296.24432291658,
      "d": 253.23257291666232,
      "v": 127
    },
    {
      "midi": 66,
      "hit": false,
      "t": 125296.24432291658,
      "d": 253.23257291666232,
      "v": 127
    },
    {
      "midi": 69,
      "hit": false,
      "t": 125296.24432291658,
      "d": 253.23257291666232,
      "v": 127
    },
    {
      "midi": 42,
      "hit": false,
      "t": 125425.55457291658,
      "d": 253.23257291666232,
      "v": 127
    },
    {
      "midi": 54,
      "hit": false,
      "t": 125684.17507291657,
      "d": 123.92232291666733,
      "v": 127
    },
    {
      "midi": 61,
      "hit": false,
      "t": 125684.17507291657,
      "d": 123.92232291666733,
      "v": 127
    },
    {
      "midi": 66,
      "hit": false,
      "t": 125684.17507291657,
      "d": 123.92232291666733,
      "v": 127
    },
    {
      "midi": 69,
      "hit": false,
      "t": 125684.17507291657,
      "d": 123.92232291666733,
      "v": 127
    },
    {
      "midi": 35,
      "hit": false,
      "t": 126201.41607291657,
      "d": 382.54282291667187,
      "v": 127
    },
    {
      "midi": 59,
      "hit": false,
      "t": 126460.03657291658,
      "d": 511.85307291666686,
      "v": 127
    },
    {
      "midi": 63,
      "hit": false,
      "t": 126460.03657291658,
      "d": 511.85307291666686,
      "v": 127
    },
    {
      "midi": 66,
      "hit": false,
      "t": 126460.03657291658,
      "d": 641.1633229166619,
      "v": 127
    },
    {
      "midi": 47,
      "hit": false,
      "t": 126718.65707291658,
      "d": 253.23257291666232,
      "v": 127
    },
    {
      "midi": 35,
      "hit": false,
      "t": 126977.27757291657,
      "d": 511.85307291666686,
      "v": 127
    },
    {
      "midi": 47,
      "hit": false,
      "t": 127494.51857291657,
      "d": 382.54282291667187,
      "v": 127
    },
    {
      "midi": 59,
      "hit": false,
      "t": 127494.51857291657,
      "d": 382.54282291667187,
      "v": 112
    },
    {
      "midi": 63,
      "hit": false,
      "t": 127494.51857291657,
      "d": 382.54282291667187,
      "v": 127
    },
    {
      "midi": 66,
      "hit": false,
      "t": 127494.51857291657,
      "d": 382.54282291667187,
      "v": 127
    },
    {
      "midi": 37,
      "hit": false,
      "t": 128270.38007291658,
      "d": 511.85307291666686,
      "v": 127
    },
    {
      "midi": 49,
      "hit": false,
      "t": 128787.62107291658,
      "d": 253.23257291666232,
      "v": 127
    },
    {
      "midi": 37,
      "hit": false,
      "t": 129046.24157291657,
      "d": 123.92232291666733,
      "v": 127
    },
    {
      "midi": 61,
      "hit": false,
      "t": 129046.24157291657,
      "d": 123.92232291666733,
      "v": 127
    },
    {
      "midi": 64,
      "hit": false,
      "t": 129046.24157291657,
      "d": 123.92232291666733,
      "v": 127
    },
    {
      "midi": 68,
      "hit": false,
      "t": 129046.24157291657,
      "d": 123.92232291666733,
      "v": 127
    },
    {
      "midi": 64,
      "hit": false,
      "t": 129175.55182291656,
      "d": 123.92232291666733,
      "v": 127
    },
    {
      "midi": 68,
      "hit": false,
      "t": 129175.55182291656,
      "d": 123.92232291666733,
      "v": 127
    },
    {
      "midi": 61,
      "hit": false,
      "t": 129175.55182291656,
      "d": 253.23257291666232,
      "v": 127
    },
    {
      "midi": 49,
      "hit": false,
      "t": 129175.55182291656,
      "d": 641.1633229166619,
      "v": 127
    },
    {
      "midi": 64,
      "hit": false,
      "t": 129822.10307291655,
      "d": 253.23257291666232,
      "v": 126
    },
    {
      "midi": 37,
      "hit": false,
      "t": 129822.10307291655,
      "d": 382.5428229166573,
      "v": 127
    },
    {
      "midi": 61,
      "hit": false,
      "t": 129822.10307291655,
      "d": 382.5428229166573,
      "v": 96
    },
    {
      "midi": 68,
      "hit": false,
      "t": 129822.10307291655,
      "d": 382.5428229166573,
      "v": 111
    },
    {
      "midi": 37,
      "hit": false,
      "t": 130339.34407291654,
      "d": 770.4735729166714,
      "v": 127
    },
    {
      "midi": 61,
      "hit": false,
      "t": 130339.34407291654,
      "d": 770.4735729166714,
      "v": 127
    },
    {
      "midi": 64,
      "hit": false,
      "t": 130339.34407291654,
      "d": 770.4735729166714,
      "v": 127
    },
    {
      "midi": 68,
      "hit": false,
      "t": 130339.34407291654,
      "d": 770.4735729166714,
      "v": 127
    },
    {
      "midi": 64,
      "hit": false,
      "t": 131115.20557291654,
      "d": 123.92232291665277,
      "v": 127
    },
    {
      "midi": 61,
      "hit": false,
      "t": 131115.20557291654,
      "d": 253.23257291666232,
      "v": 127
    },
    {
      "midi": 68,
      "hit": false,
      "t": 131115.20557291654,
      "d": 253.23257291666232,
      "v": 127
    },
    {
      "midi": 49,
      "hit": false,
      "t": 131115.20557291654,
      "d": 382.54282291667187,
      "v": 127
    },
    {
      "midi": 61,
      "hit": false,
      "t": 131632.44657291655,
      "d": 123.92232291665277,
      "v": 127
    },
    {
      "midi": 64,
      "hit": false,
      "t": 131632.44657291655,
      "d": 123.92232291665277,
      "v": 127
    },
    {
      "midi": 68,
      "hit": false,
      "t": 131632.44657291655,
      "d": 123.92232291665277,
      "v": 127
    },
    {
      "midi": 37,
      "hit": false,
      "t": 131632.44657291655,
      "d": 253.23257291666232,
      "v": 127
    },
    {
      "midi": 49,
      "hit": false,
      "t": 131891.06707291654,
      "d": 253.23257291666232,
      "v": 127
    },
    {
      "midi": 61,
      "hit": false,
      "t": 132149.68757291653,
      "d": 123.92232291665277,
      "v": 99
    },
    {
      "midi": 64,
      "hit": false,
      "t": 132149.68757291653,
      "d": 123.92232291665277,
      "v": 99
    },
    {
      "midi": 68,
      "hit": false,
      "t": 132149.68757291653,
      "d": 123.92232291665277,
      "v": 127
    },
    {
      "midi": 42,
      "hit": false,
      "t": 132408.30807291652,
      "d": 253.23257291666232,
      "v": 127
    },
    {
      "midi": 54,
      "hit": false,
      "t": 132666.9285729165,
      "d": 382.54282291667187,
      "v": 127
    },
    {
      "midi": 42,
      "hit": false,
      "t": 133184.16957291652,
      "d": 123.92232291665277,
      "v": 127
    },
    {
      "midi": 61,
      "hit": false,
      "t": 133184.16957291652,
      "d": 123.92232291665277,
      "v": 111
    },
    {
      "midi": 66,
      "hit": false,
      "t": 133184.16957291652,
      "d": 123.92232291665277,
      "v": 127
    },
    {
      "midi": 69,
      "hit": false,
      "t": 133184.16957291652,
      "d": 123.92232291665277,
      "v": 119
    },
    {
      "midi": 54,
      "hit": false,
      "t": 133313.4798229165,
      "d": 382.54282291664276,
      "v": 127
    },
    {
      "midi": 42,
      "hit": false,
      "t": 133572.1003229165,
      "d": 123.92232291665277,
      "v": 127
    },
    {
      "midi": 61,
      "hit": false,
      "t": 133701.41057291647,
      "d": 382.54282291667187,
      "v": 127
    },
    {
      "midi": 66,
      "hit": false,
      "t": 133701.41057291647,
      "d": 382.54282291667187,
      "v": 127
    },
    {
      "midi": 69,
      "hit": false,
      "t": 133701.41057291647,
      "d": 382.54282291667187,
      "v": 127
    },
    {
      "midi": 35,
      "hit": false,
      "t": 134477.27207291647,
      "d": 123.92232291665277,
      "v": 127
    },
    {
      "midi": 47,
      "hit": false,
      "t": 134606.58232291645,
      "d": 899.7838229166518,
      "v": 127
    },
    {
      "midi": 59,
      "hit": false,
      "t": 135253.13357291644,
      "d": 123.92232291665277,
      "v": 99
    },
    {
      "midi": 63,
      "hit": false,
      "t": 135253.13357291644,
      "d": 123.92232291665277,
      "v": 114
    },
    {
      "midi": 66,
      "hit": false,
      "t": 135253.13357291644,
      "d": 123.92232291665277,
      "v": 127
    },
    {
      "midi": 35,
      "hit": false,
      "t": 135511.75407291643,
      "d": 511.8530729166523,
      "v": 127
    },
    {
      "midi": 59,
      "hit": false,
      "t": 135770.37457291642,
      "d": 253.23257291666232,
      "v": 99
    },
    {
      "midi": 63,
      "hit": false,
      "t": 135770.37457291642,
      "d": 253.23257291666232,
      "v": 100
    },
    {
      "midi": 66,
      "hit": false,
      "t": 135770.37457291642,
      "d": 253.23257291666232,
      "v": 121
    },
    {
      "midi": 47,
      "hit": false,
      "t": 136028.9950729164,
      "d": 123.92232291665277,
      "v": 118
    },
    {
      "midi": 64,
      "hit": false,
      "t": 136287.6155729164,
      "d": 253.23257291666232,
      "v": 127
    },
    {
      "midi": 68,
      "hit": false,
      "t": 136287.6155729164,
      "d": 253.23257291666232,
      "v": 127
    },
    {
      "midi": 37,
      "hit": false,
      "t": 136546.2360729164,
      "d": 253.23257291666232,
      "v": 127
    },
    {
      "midi": 49,
      "hit": false,
      "t": 136546.2360729164,
      "d": 253.23257291666232,
      "v": 127
    },
    {
      "midi": 61,
      "hit": false,
      "t": 136934.1668229164,
      "d": 253.23257291663322,
      "v": 99
    },
    {
      "midi": 68,
      "hit": false,
      "t": 136934.1668229164,
      "d": 253.23257291663322,
      "v": 104
    },
    {
      "midi": 64,
      "hit": false,
      "t": 136944.94267708305,
      "d": 253.23257291663322,
      "v": 101
    },
    {
      "midi": 37,
      "hit": false,
      "t": 137063.47707291637,
      "d": 123.92232291665277,
      "v": 127
    },
    {
      "midi": 61,
      "hit": false,
      "t": 137580.71807291635,
      "d": 123.92232291665277,
      "v": 127
    },
    {
      "midi": 64,
      "hit": false,
      "t": 137580.71807291635,
      "d": 253.23257291666232,
      "v": 127
    },
    {
      "midi": 68,
      "hit": false,
      "t": 137580.71807291635,
      "d": 253.23257291666232,
      "v": 127
    },
    {
      "midi": 61,
      "hit": false,
      "t": 137968.64882291635,
      "d": 123.92232291665277,
      "v": 127
    },
    {
      "midi": 64,
      "hit": false,
      "t": 137968.64882291635,
      "d": 123.92232291665277,
      "v": 127
    },
    {
      "midi": 68,
      "hit": false,
      "t": 137968.64882291635,
      "d": 123.92232291665277,
      "v": 127
    },
    {
      "midi": 37,
      "hit": false,
      "t": 138615.20007291634,
      "d": 123.92232291665277,
      "v": 127
    },
    {
      "midi": 49,
      "hit": false,
      "t": 138744.51032291632,
      "d": 123.92232291665277,
      "v": 107
    },
    {
      "midi": 64,
      "hit": false,
      "t": 139003.1308229163,
      "d": 26.939635416667443,
      "v": 127
    },
    {
      "midi": 68,
      "hit": false,
      "t": 139003.1308229163,
      "d": 32.32756249999511,
      "v": 127
    },
    {
      "midi": 61,
      "hit": false,
      "t": 139003.1308229163,
      "d": 43.103416666650446,
      "v": 127
    },
    {
      "midi": 37,
      "hit": false,
      "t": 139003.1308229163,
      "d": 123.92232291665277,
      "v": 109
    },
    {
      "midi": 49,
      "hit": false,
      "t": 139132.4410729163,
      "d": 123.92232291665277,
      "v": 127
    },
    {
      "midi": 61,
      "hit": false,
      "t": 139391.06157291628,
      "d": 123.92232291665277,
      "v": 127
    },
    {
      "midi": 64,
      "hit": false,
      "t": 139391.06157291628,
      "d": 123.92232291665277,
      "v": 127
    },
    {
      "midi": 68,
      "hit": false,
      "t": 139391.06157291628,
      "d": 123.92232291665277,
      "v": 127
    },
    {
      "midi": 61,
      "hit": false,
      "t": 139649.68207291627,
      "d": 123.92232291665277,
      "v": 127
    },
    {
      "midi": 66,
      "hit": false,
      "t": 139649.68207291627,
      "d": 123.92232291665277,
      "v": 127
    },
    {
      "midi": 69,
      "hit": false,
      "t": 139649.68207291627,
      "d": 123.92232291665277,
      "v": 127
    },
    {
      "midi": 42,
      "hit": false,
      "t": 139908.30257291626,
      "d": 123.92232291665277,
      "v": 127
    },
    {
      "midi": 61,
      "hit": false,
      "t": 140037.61282291624,
      "d": 123.92232291668188,
      "v": 127
    },
    {
      "midi": 66,
      "hit": false,
      "t": 140037.61282291624,
      "d": 123.92232291668188,
      "v": 127
    },
    {
      "midi": 69,
      "hit": false,
      "t": 140037.61282291624,
      "d": 123.92232291668188,
      "v": 127
    },
    {
      "midi": 54,
      "hit": false,
      "t": 140166.92307291625,
      "d": 123.92232291665277,
      "v": 127
    },
    {
      "midi": 42,
      "hit": false,
      "t": 140425.54357291624,
      "d": 123.92232291665277,
      "v": 127
    },
    {
      "midi": 61,
      "hit": false,
      "t": 140425.54357291624,
      "d": 123.92232291665277,
      "v": 127
    },
    {
      "midi": 66,
      "hit": false,
      "t": 140425.54357291624,
      "d": 123.92232291665277,
      "v": 127
    },
    {
      "midi": 69,
      "hit": false,
      "t": 140425.54357291624,
      "d": 123.92232291665277,
      "v": 127
    },
    {
      "midi": 35,
      "hit": false,
      "t": 140684.16407291623,
      "d": 123.92232291665277,
      "v": 127
    },
    {
      "midi": 47,
      "hit": false,
      "t": 140813.4743229162,
      "d": 123.92232291665277,
      "v": 127
    },
    {
      "midi": 59,
      "hit": false,
      "t": 140942.7845729162,
      "d": 123.92232291665277,
      "v": 115
    },
    {
      "midi": 63,
      "hit": false,
      "t": 140942.7845729162,
      "d": 123.92232291665277,
      "v": 127
    },
    {
      "midi": 66,
      "hit": false,
      "t": 140942.7845729162,
      "d": 123.92232291665277,
      "v": 127
    },
    {
      "midi": 35,
      "hit": false,
      "t": 141072.09482291617,
      "d": 123.92232291665277,
      "v": 127
    },
    {
      "midi": 47,
      "hit": false,
      "t": 141201.40507291615,
      "d": 123.92232291665277,
      "v": 127
    },
    {
      "midi": 59,
      "hit": false,
      "t": 141201.40507291615,
      "d": 123.92232291665277,
      "v": 112
    },
    {
      "midi": 63,
      "hit": false,
      "t": 141201.40507291615,
      "d": 123.92232291665277,
      "v": 127
    },
    {
      "midi": 66,
      "hit": false,
      "t": 141201.40507291615,
      "d": 123.92232291665277,
      "v": 127
    },
    {
      "midi": 59,
      "hit": false,
      "t": 141330.71532291613,
      "d": 123.92232291665277,
      "v": 127
    },
    {
      "midi": 63,
      "hit": false,
      "t": 141330.71532291613,
      "d": 123.92232291665277,
      "v": 127
    },
    {
      "midi": 66,
      "hit": false,
      "t": 141330.71532291613,
      "d": 123.92232291665277,
      "v": 127
    },
    {
      "midi": 61,
      "hit": false,
      "t": 141718.64607291613,
      "d": 123.92232291665277,
      "v": 127
    },
    {
      "midi": 64,
      "hit": false,
      "t": 141718.64607291613,
      "d": 123.92232291665277,
      "v": 127
    },
    {
      "midi": 68,
      "hit": false,
      "t": 141718.64607291613,
      "d": 123.92232291665277,
      "v": 127
    },
    {
      "midi": 37,
      "hit": false,
      "t": 141977.26657291612,
      "d": 253.23257291666232,
      "v": 127
    },
    {
      "midi": 61,
      "hit": false,
      "t": 142106.57682291613,
      "d": 123.92232291665277,
      "v": 127
    },
    {
      "midi": 64,
      "hit": false,
      "t": 142106.57682291613,
      "d": 123.92232291665277,
      "v": 127
    },
    {
      "midi": 68,
      "hit": false,
      "t": 142106.57682291613,
      "d": 123.92232291665277,
      "v": 127
    },
    {
      "midi": 49,
      "hit": false,
      "t": 142235.8870729161,
      "d": 123.92232291665277,
      "v": 127
    },
    {
      "midi": 37,
      "hit": false,
      "t": 142494.5075729161,
      "d": 123.92232291665277,
      "v": 127
    },
    {
      "midi": 61,
      "hit": false,
      "t": 142494.5075729161,
      "d": 123.92232291665277,
      "v": 127
    },
    {
      "midi": 64,
      "hit": false,
      "t": 142494.5075729161,
      "d": 123.92232291665277,
      "v": 127
    },
    {
      "midi": 68,
      "hit": false,
      "t": 142494.5075729161,
      "d": 123.92232291665277,
      "v": 127
    },
    {
      "midi": 37,
      "hit": false,
      "t": 142753.1280729161,
      "d": 123.92232291665277,
      "v": 127
    },
    {
      "midi": 49,
      "hit": false,
      "t": 142882.43832291607,
      "d": 123.92232291665277,
      "v": 109
    },
    {
      "midi": 37,
      "hit": false,
      "t": 143141.05882291606,
      "d": 123.92232291665277,
      "v": 127
    },
    {
      "midi": 61,
      "hit": false,
      "t": 143141.05882291606,
      "d": 123.92232291665277,
      "v": 127
    },
    {
      "midi": 64,
      "hit": false,
      "t": 143141.05882291606,
      "d": 123.92232291665277,
      "v": 127
    },
    {
      "midi": 68,
      "hit": false,
      "t": 143141.05882291606,
      "d": 123.92232291665277,
      "v": 127
    },
    {
      "midi": 49,
      "hit": false,
      "t": 143270.36907291604,
      "d": 123.92232291665277,
      "v": 127
    },
    {
      "midi": 61,
      "hit": false,
      "t": 143528.98957291603,
      "d": 123.92232291665277,
      "v": 127
    },
    {
      "midi": 64,
      "hit": false,
      "t": 143528.98957291603,
      "d": 123.92232291665277,
      "v": 127
    },
    {
      "midi": 68,
      "hit": false,
      "t": 143528.98957291603,
      "d": 123.92232291665277,
      "v": 127
    },
    {
      "midi": 61,
      "hit": false,
      "t": 143787.61007291602,
      "d": 123.92232291668188,
      "v": 127
    },
    {
      "midi": 66,
      "hit": false,
      "t": 143787.61007291602,
      "d": 123.92232291668188,
      "v": 127
    },
    {
      "midi": 69,
      "hit": false,
      "t": 143787.61007291602,
      "d": 123.92232291668188,
      "v": 127
    },
    {
      "midi": 42,
      "hit": false,
      "t": 144046.23057291604,
      "d": 123.92232291665277,
      "v": 127
    },
    {
      "midi": 61,
      "hit": false,
      "t": 144175.54082291602,
      "d": 123.92232291665277,
      "v": 127
    },
    {
      "midi": 66,
      "hit": false,
      "t": 144175.54082291602,
      "d": 123.92232291665277,
      "v": 127
    },
    {
      "midi": 69,
      "hit": false,
      "t": 144175.54082291602,
      "d": 123.92232291665277,
      "v": 127
    },
    {
      "midi": 54,
      "hit": false,
      "t": 144304.851072916,
      "d": 123.92232291665277,
      "v": 127
    },
    {
      "midi": 42,
      "hit": false,
      "t": 144563.471572916,
      "d": 123.92232291665277,
      "v": 127
    },
    {
      "midi": 61,
      "hit": false,
      "t": 144563.471572916,
      "d": 123.92232291665277,
      "v": 127
    },
    {
      "midi": 66,
      "hit": false,
      "t": 144563.471572916,
      "d": 123.92232291665277,
      "v": 127
    },
    {
      "midi": 69,
      "hit": false,
      "t": 144563.471572916,
      "d": 123.92232291665277,
      "v": 127
    },
    {
      "midi": 35,
      "hit": false,
      "t": 144822.09207291598,
      "d": 123.92232291665277,
      "v": 103
    },
    {
      "midi": 47,
      "hit": false,
      "t": 144951.40232291596,
      "d": 123.92232291665277,
      "v": 101
    },
    {
      "midi": 59,
      "hit": false,
      "t": 145080.71257291595,
      "d": 123.92232291665277,
      "v": 109
    },
    {
      "midi": 63,
      "hit": false,
      "t": 145080.71257291595,
      "d": 123.92232291665277,
      "v": 127
    },
    {
      "midi": 66,
      "hit": false,
      "t": 145080.71257291595,
      "d": 123.92232291665277,
      "v": 127
    },
    {
      "midi": 35,
      "hit": false,
      "t": 145210.02282291593,
      "d": 123.92232291665277,
      "v": 127
    },
    {
      "midi": 47,
      "hit": false,
      "t": 145339.3330729159,
      "d": 123.92232291665277,
      "v": 127
    },
    {
      "midi": 59,
      "hit": false,
      "t": 145339.3330729159,
      "d": 123.92232291665277,
      "v": 123
    },
    {
      "midi": 63,
      "hit": false,
      "t": 145339.3330729159,
      "d": 123.92232291665277,
      "v": 127
    },
    {
      "midi": 66,
      "hit": false,
      "t": 145339.3330729159,
      "d": 123.92232291665277,
      "v": 127
    },
    {
      "midi": 59,
      "hit": false,
      "t": 145468.6433229159,
      "d": 123.92232291665277,
      "v": 119
    },
    {
      "midi": 63,
      "hit": false,
      "t": 145468.6433229159,
      "d": 123.92232291665277,
      "v": 127
    },
    {
      "midi": 66,
      "hit": false,
      "t": 145468.6433229159,
      "d": 123.92232291665277,
      "v": 127
    },
    {
      "midi": 59,
      "hit": false,
      "t": 145856.57407291586,
      "d": 123.92232291668188,
      "v": 105
    },
    {
      "midi": 63,
      "hit": false,
      "t": 145856.57407291586,
      "d": 123.92232291668188,
      "v": 127
    },
    {
      "midi": 68,
      "hit": false,
      "t": 145856.57407291586,
      "d": 123.92232291668188,
      "v": 127
    },
    {
      "midi": 44,
      "hit": false,
      "t": 146115.19457291588,
      "d": 123.92232291665277,
      "v": 127
    },
    {
      "midi": 59,
      "hit": false,
      "t": 146115.19457291588,
      "d": 123.92232291665277,
      "v": 103
    },
    {
      "midi": 63,
      "hit": false,
      "t": 146115.19457291588,
      "d": 123.92232291665277,
      "v": 127
    },
    {
      "midi": 68,
      "hit": false,
      "t": 146115.19457291588,
      "d": 123.92232291665277,
      "v": 127
    },
    {
      "midi": 56,
      "hit": false,
      "t": 146373.81507291587,
      "d": 123.92232291665277,
      "v": 127
    },
    {
      "midi": 59,
      "hit": false,
      "t": 146373.81507291587,
      "d": 123.92232291665277,
      "v": 127
    },
    {
      "midi": 63,
      "hit": false,
      "t": 146373.81507291587,
      "d": 123.92232291665277,
      "v": 127
    },
    {
      "midi": 68,
      "hit": false,
      "t": 146373.81507291587,
      "d": 123.92232291665277,
      "v": 127
    },
    {
      "midi": 59,
      "hit": false,
      "t": 146503.12532291585,
      "d": 123.92232291665277,
      "v": 127
    },
    {
      "midi": 63,
      "hit": false,
      "t": 146503.12532291585,
      "d": 123.92232291665277,
      "v": 127
    },
    {
      "midi": 66,
      "hit": false,
      "t": 146503.12532291585,
      "d": 123.92232291665277,
      "v": 127
    },
    {
      "midi": 44,
      "hit": false,
      "t": 146632.43557291583,
      "d": 123.92232291665277,
      "v": 127
    },
    {
      "midi": 37,
      "hit": false,
      "t": 146891.05607291582,
      "d": 123.92232291665277,
      "v": 127
    },
    {
      "midi": 49,
      "hit": false,
      "t": 147020.3663229158,
      "d": 123.92232291665277,
      "v": 107
    },
    {
      "midi": 64,
      "hit": false,
      "t": 147278.9868229158,
      "d": 26.939635416667443,
      "v": 127
    },
    {
      "midi": 68,
      "hit": false,
      "t": 147278.9868229158,
      "d": 32.32756249999511,
      "v": 127
    },
    {
      "midi": 61,
      "hit": false,
      "t": 147278.9868229158,
      "d": 43.103416666650446,
      "v": 127
    },
    {
      "midi": 37,
      "hit": false,
      "t": 147278.9868229158,
      "d": 123.92232291665277,
      "v": 109
    },
    {
      "midi": 49,
      "hit": false,
      "t": 147408.29707291577,
      "d": 123.92232291665277,
      "v": 127
    },
    {
      "midi": 61,
      "hit": false,
      "t": 147666.91757291576,
      "d": 123.92232291665277,
      "v": 127
    },
    {
      "midi": 64,
      "hit": false,
      "t": 147666.91757291576,
      "d": 123.92232291665277,
      "v": 127
    },
    {
      "midi": 68,
      "hit": false,
      "t": 147666.91757291576,
      "d": 123.92232291665277,
      "v": 127
    },
    {
      "midi": 61,
      "hit": false,
      "t": 147925.53807291575,
      "d": 123.92232291665277,
      "v": 127
    },
    {
      "midi": 66,
      "hit": false,
      "t": 147925.53807291575,
      "d": 123.92232291665277,
      "v": 127
    },
    {
      "midi": 69,
      "hit": false,
      "t": 147925.53807291575,
      "d": 123.92232291665277,
      "v": 127
    },
    {
      "midi": 42,
      "hit": false,
      "t": 148184.15857291574,
      "d": 123.92232291665277,
      "v": 127
    },
    {
      "midi": 61,
      "hit": false,
      "t": 148313.46882291572,
      "d": 123.92232291665277,
      "v": 127
    },
    {
      "midi": 66,
      "hit": false,
      "t": 148313.46882291572,
      "d": 123.92232291665277,
      "v": 127
    },
    {
      "midi": 69,
      "hit": false,
      "t": 148313.46882291572,
      "d": 123.92232291665277,
      "v": 127
    },
    {
      "midi": 54,
      "hit": false,
      "t": 148442.7790729157,
      "d": 123.92232291665277,
      "v": 127
    },
    {
      "midi": 42,
      "hit": false,
      "t": 148701.3995729157,
      "d": 123.92232291665277,
      "v": 127
    },
    {
      "midi": 61,
      "hit": false,
      "t": 148701.3995729157,
      "d": 123.92232291665277,
      "v": 127
    },
    {
      "midi": 66,
      "hit": false,
      "t": 148701.3995729157,
      "d": 123.92232291665277,
      "v": 127
    },
    {
      "midi": 69,
      "hit": false,
      "t": 148701.3995729157,
      "d": 123.92232291665277,
      "v": 127
    },
    {
      "midi": 35,
      "hit": false,
      "t": 148960.02007291568,
      "d": 123.92232291668188,
      "v": 127
    },
    {
      "midi": 47,
      "hit": false,
      "t": 149089.3303229157,
      "d": 123.92232291665277,
      "v": 127
    },
    {
      "midi": 59,
      "hit": false,
      "t": 149218.64057291567,
      "d": 123.92232291665277,
      "v": 115
    },
    {
      "midi": 63,
      "hit": false,
      "t": 149218.64057291567,
      "d": 123.92232291665277,
      "v": 127
    },
    {
      "midi": 66,
      "hit": false,
      "t": 149218.64057291567,
      "d": 123.92232291665277,
      "v": 127
    },
    {
      "midi": 35,
      "hit": false,
      "t": 149347.95082291565,
      "d": 123.92232291665277,
      "v": 127
    },
    {
      "midi": 47,
      "hit": false,
      "t": 149477.26107291563,
      "d": 123.92232291665277,
      "v": 127
    },
    {
      "midi": 59,
      "hit": false,
      "t": 149477.26107291563,
      "d": 123.92232291665277,
      "v": 112
    },
    {
      "midi": 63,
      "hit": false,
      "t": 149477.26107291563,
      "d": 123.92232291665277,
      "v": 127
    },
    {
      "midi": 66,
      "hit": false,
      "t": 149477.26107291563,
      "d": 123.92232291665277,
      "v": 127
    },
    {
      "midi": 59,
      "hit": false,
      "t": 149606.5713229156,
      "d": 123.92232291665277,
      "v": 127
    },
    {
      "midi": 63,
      "hit": false,
      "t": 149606.5713229156,
      "d": 123.92232291665277,
      "v": 127
    },
    {
      "midi": 66,
      "hit": false,
      "t": 149606.5713229156,
      "d": 123.92232291665277,
      "v": 127
    },
    {
      "midi": 61,
      "hit": false,
      "t": 149994.5020729156,
      "d": 123.92232291665277,
      "v": 127
    },
    {
      "midi": 64,
      "hit": false,
      "t": 149994.5020729156,
      "d": 123.92232291665277,
      "v": 127
    },
    {
      "midi": 68,
      "hit": false,
      "t": 149994.5020729156,
      "d": 123.92232291665277,
      "v": 127
    },
    {
      "midi": 37,
      "hit": false,
      "t": 150253.1225729156,
      "d": 253.23257291666232,
      "v": 127
    },
    {
      "midi": 61,
      "hit": false,
      "t": 150382.4328229156,
      "d": 123.92232291665277,
      "v": 127
    },
    {
      "midi": 64,
      "hit": false,
      "t": 150382.4328229156,
      "d": 123.92232291665277,
      "v": 127
    },
    {
      "midi": 68,
      "hit": false,
      "t": 150382.4328229156,
      "d": 123.92232291665277,
      "v": 127
    },
    {
      "midi": 49,
      "hit": false,
      "t": 150511.7430729156,
      "d": 123.92232291665277,
      "v": 127
    },
    {
      "midi": 37,
      "hit": false,
      "t": 150770.36357291558,
      "d": 123.92232291665277,
      "v": 127
    },
    {
      "midi": 61,
      "hit": false,
      "t": 150770.36357291558,
      "d": 123.92232291665277,
      "v": 127
    },
    {
      "midi": 64,
      "hit": false,
      "t": 150770.36357291558,
      "d": 123.92232291665277,
      "v": 127
    },
    {
      "midi": 68,
      "hit": false,
      "t": 150770.36357291558,
      "d": 123.92232291665277,
      "v": 127
    },
    {
      "midi": 37,
      "hit": false,
      "t": 151028.98407291557,
      "d": 123.92232291665277,
      "v": 127
    },
    {
      "midi": 49,
      "hit": false,
      "t": 151158.29432291555,
      "d": 123.92232291665277,
      "v": 109
    },
    {
      "midi": 37,
      "hit": false,
      "t": 151416.91482291554,
      "d": 123.92232291665277,
      "v": 127
    },
    {
      "midi": 61,
      "hit": false,
      "t": 151416.91482291554,
      "d": 123.92232291665277,
      "v": 127
    },
    {
      "midi": 64,
      "hit": false,
      "t": 151416.91482291554,
      "d": 123.92232291665277,
      "v": 127
    },
    {
      "midi": 68,
      "hit": false,
      "t": 151416.91482291554,
      "d": 123.92232291665277,
      "v": 127
    },
    {
      "midi": 49,
      "hit": false,
      "t": 151546.22507291552,
      "d": 123.92232291665277,
      "v": 127
    },
    {
      "midi": 61,
      "hit": false,
      "t": 151804.8455729155,
      "d": 123.92232291665277,
      "v": 127
    },
    {
      "midi": 64,
      "hit": false,
      "t": 151804.8455729155,
      "d": 123.92232291665277,
      "v": 127
    },
    {
      "midi": 68,
      "hit": false,
      "t": 151804.8455729155,
      "d": 123.92232291665277,
      "v": 127
    },
    {
      "midi": 61,
      "hit": false,
      "t": 152063.4660729155,
      "d": 123.92232291665277,
      "v": 127
    },
    {
      "midi": 66,
      "hit": false,
      "t": 152063.4660729155,
      "d": 123.92232291665277,
      "v": 127
    },
    {
      "midi": 69,
      "hit": false,
      "t": 152063.4660729155,
      "d": 123.92232291665277,
      "v": 127
    },
    {
      "midi": 42,
      "hit": false,
      "t": 152322.0865729155,
      "d": 123.92232291665277,
      "v": 127
    },
    {
      "midi": 61,
      "hit": false,
      "t": 152451.39682291547,
      "d": 123.92232291665277,
      "v": 127
    },
    {
      "midi": 66,
      "hit": false,
      "t": 152451.39682291547,
      "d": 123.92232291665277,
      "v": 127
    },
    {
      "midi": 69,
      "hit": false,
      "t": 152451.39682291547,
      "d": 123.92232291665277,
      "v": 127
    },
    {
      "midi": 54,
      "hit": false,
      "t": 152580.70707291545,
      "d": 123.92232291665277,
      "v": 127
    },
    {
      "midi": 42,
      "hit": false,
      "t": 152839.32757291544,
      "d": 123.92232291665277,
      "v": 127
    },
    {
      "midi": 61,
      "hit": false,
      "t": 152839.32757291544,
      "d": 123.92232291665277,
      "v": 127
    },
    {
      "midi": 66,
      "hit": false,
      "t": 152839.32757291544,
      "d": 123.92232291665277,
      "v": 127
    },
    {
      "midi": 69,
      "hit": false,
      "t": 152839.32757291544,
      "d": 123.92232291665277,
      "v": 127
    },
    {
      "midi": 35,
      "hit": false,
      "t": 153097.94807291543,
      "d": 123.92232291665277,
      "v": 103
    },
    {
      "midi": 47,
      "hit": false,
      "t": 153227.2583229154,
      "d": 123.92232291665277,
      "v": 101
    },
    {
      "midi": 59,
      "hit": false,
      "t": 153356.5685729154,
      "d": 123.92232291665277,
      "v": 109
    },
    {
      "midi": 63,
      "hit": false,
      "t": 153356.5685729154,
      "d": 123.92232291665277,
      "v": 127
    },
    {
      "midi": 66,
      "hit": false,
      "t": 153356.5685729154,
      "d": 123.92232291665277,
      "v": 127
    },
    {
      "midi": 35,
      "hit": false,
      "t": 153485.87882291537,
      "d": 123.92232291665277,
      "v": 127
    },
    {
      "midi": 47,
      "hit": false,
      "t": 153615.18907291535,
      "d": 123.92232291665277,
      "v": 127
    },
    {
      "midi": 59,
      "hit": false,
      "t": 153615.18907291535,
      "d": 123.92232291665277,
      "v": 123
    },
    {
      "midi": 63,
      "hit": false,
      "t": 153615.18907291535,
      "d": 123.92232291665277,
      "v": 127
    },
    {
      "midi": 66,
      "hit": false,
      "t": 153615.18907291535,
      "d": 123.92232291665277,
      "v": 127
    },
    {
      "midi": 59,
      "hit": false,
      "t": 153744.49932291533,
      "d": 123.92232291665277,
      "v": 119
    },
    {
      "midi": 63,
      "hit": false,
      "t": 153744.49932291533,
      "d": 123.92232291665277,
      "v": 127
    },
    {
      "midi": 66,
      "hit": false,
      "t": 153744.49932291533,
      "d": 123.92232291665277,
      "v": 127
    },
    {
      "midi": 59,
      "hit": false,
      "t": 154132.4300729153,
      "d": 123.92232291665277,
      "v": 105
    },
    {
      "midi": 63,
      "hit": false,
      "t": 154132.4300729153,
      "d": 123.92232291665277,
      "v": 127
    },
    {
      "midi": 68,
      "hit": false,
      "t": 154132.4300729153,
      "d": 123.92232291665277,
      "v": 127
    },
    {
      "midi": 44,
      "hit": false,
      "t": 154391.0505729153,
      "d": 123.92232291665277,
      "v": 127
    },
    {
      "midi": 59,
      "hit": false,
      "t": 154391.0505729153,
      "d": 123.92232291665277,
      "v": 103
    },
    {
      "midi": 63,
      "hit": false,
      "t": 154391.0505729153,
      "d": 123.92232291665277,
      "v": 127
    },
    {
      "midi": 68,
      "hit": false,
      "t": 154391.0505729153,
      "d": 123.92232291665277,
      "v": 127
    },
    {
      "midi": 56,
      "hit": false,
      "t": 154649.67107291528,
      "d": 123.92232291665277,
      "v": 127
    },
    {
      "midi": 59,
      "hit": false,
      "t": 154649.67107291528,
      "d": 123.92232291665277,
      "v": 127
    },
    {
      "midi": 63,
      "hit": false,
      "t": 154649.67107291528,
      "d": 123.92232291665277,
      "v": 127
    },
    {
      "midi": 68,
      "hit": false,
      "t": 154649.67107291528,
      "d": 123.92232291665277,
      "v": 127
    },
    {
      "midi": 59,
      "hit": false,
      "t": 154778.98132291526,
      "d": 123.92232291665277,
      "v": 127
    },
    {
      "midi": 63,
      "hit": false,
      "t": 154778.98132291526,
      "d": 123.92232291665277,
      "v": 127
    },
    {
      "midi": 66,
      "hit": false,
      "t": 154778.98132291526,
      "d": 123.92232291665277,
      "v": 127
    },
    {
      "midi": 44,
      "hit": false,
      "t": 154908.29157291524,
      "d": 123.92232291665277,
      "v": 127
    },
    {
      "midi": 37,
      "hit": false,
      "t": 155166.91207291523,
      "d": 123.92232291665277,
      "v": 127
    },
    {
      "midi": 49,
      "hit": false,
      "t": 155296.22232291522,
      "d": 123.92232291665277,
      "v": 107
    },
    {
      "midi": 64,
      "hit": false,
      "t": 155554.8428229152,
      "d": 26.939635416667443,
      "v": 127
    },
    {
      "midi": 68,
      "hit": false,
      "t": 155554.8428229152,
      "d": 32.32756249999511,
      "v": 127
    },
    {
      "midi": 61,
      "hit": false,
      "t": 155554.8428229152,
      "d": 43.103416666650446,
      "v": 127
    },
    {
      "midi": 37,
      "hit": false,
      "t": 155554.8428229152,
      "d": 123.92232291665277,
      "v": 109
    },
    {
      "midi": 49,
      "hit": false,
      "t": 155684.1530729152,
      "d": 123.92232291665277,
      "v": 127
    },
    {
      "midi": 61,
      "hit": false,
      "t": 155942.77357291518,
      "d": 123.92232291665277,
      "v": 127
    },
    {
      "midi": 64,
      "hit": false,
      "t": 155942.77357291518,
      "d": 123.92232291665277,
      "v": 127
    },
    {
      "midi": 68,
      "hit": false,
      "t": 155942.77357291518,
      "d": 123.92232291665277,
      "v": 127
    },
    {
      "midi": 61,
      "hit": false,
      "t": 156201.39407291517,
      "d": 123.92232291665277,
      "v": 127
    },
    {
      "midi": 66,
      "hit": false,
      "t": 156201.39407291517,
      "d": 123.92232291665277,
      "v": 127
    },
    {
      "midi": 69,
      "hit": false,
      "t": 156201.39407291517,
      "d": 123.92232291665277,
      "v": 127
    },
    {
      "midi": 42,
      "hit": false,
      "t": 156460.01457291516,
      "d": 123.92232291665277,
      "v": 127
    },
    {
      "midi": 61,
      "hit": false,
      "t": 156589.32482291514,
      "d": 123.92232291665277,
      "v": 127
    },
    {
      "midi": 66,
      "hit": false,
      "t": 156589.32482291514,
      "d": 123.92232291665277,
      "v": 127
    },
    {
      "midi": 69,
      "hit": false,
      "t": 156589.32482291514,
      "d": 123.92232291665277,
      "v": 127
    },
    {
      "midi": 54,
      "hit": false,
      "t": 156718.63507291512,
      "d": 123.92232291665277,
      "v": 127
    },
    {
      "midi": 42,
      "hit": false,
      "t": 156977.2555729151,
      "d": 123.92232291665277,
      "v": 127
    },
    {
      "midi": 61,
      "hit": false,
      "t": 156977.2555729151,
      "d": 123.92232291665277,
      "v": 127
    },
    {
      "midi": 66,
      "hit": false,
      "t": 156977.2555729151,
      "d": 123.92232291665277,
      "v": 127
    },
    {
      "midi": 69,
      "hit": false,
      "t": 156977.2555729151,
      "d": 123.92232291665277,
      "v": 127
    },
    {
      "midi": 35,
      "hit": false,
      "t": 157235.8760729151,
      "d": 123.92232291668188,
      "v": 127
    },
    {
      "midi": 47,
      "hit": false,
      "t": 157365.1863229151,
      "d": 123.92232291665277,
      "v": 127
    },
    {
      "midi": 59,
      "hit": false,
      "t": 157494.4965729151,
      "d": 123.92232291665277,
      "v": 115
    },
    {
      "midi": 63,
      "hit": false,
      "t": 157494.4965729151,
      "d": 123.92232291665277,
      "v": 127
    },
    {
      "midi": 66,
      "hit": false,
      "t": 157494.4965729151,
      "d": 123.92232291665277,
      "v": 127
    },
    {
      "midi": 35,
      "hit": false,
      "t": 157623.80682291507,
      "d": 123.92232291665277,
      "v": 127
    },
    {
      "midi": 47,
      "hit": false,
      "t": 157753.11707291505,
      "d": 123.92232291665277,
      "v": 127
    },
    {
      "midi": 59,
      "hit": false,
      "t": 157753.11707291505,
      "d": 123.92232291665277,
      "v": 112
    },
    {
      "midi": 63,
      "hit": false,
      "t": 157753.11707291505,
      "d": 123.92232291665277,
      "v": 127
    },
    {
      "midi": 66,
      "hit": false,
      "t": 157753.11707291505,
      "d": 123.92232291665277,
      "v": 127
    },
    {
      "midi": 59,
      "hit": false,
      "t": 157882.42732291503,
      "d": 123.92232291665277,
      "v": 127
    },
    {
      "midi": 63,
      "hit": false,
      "t": 157882.42732291503,
      "d": 123.92232291665277,
      "v": 127
    },
    {
      "midi": 66,
      "hit": false,
      "t": 157882.42732291503,
      "d": 123.92232291665277,
      "v": 127
    },
    {
      "midi": 61,
      "hit": false,
      "t": 158270.35807291503,
      "d": 123.92232291665277,
      "v": 127
    },
    {
      "midi": 64,
      "hit": false,
      "t": 158270.35807291503,
      "d": 123.92232291665277,
      "v": 127
    },
    {
      "midi": 68,
      "hit": false,
      "t": 158270.35807291503,
      "d": 123.92232291665277,
      "v": 127
    },
    {
      "midi": 37,
      "hit": false,
      "t": 158528.97857291502,
      "d": 253.23257291666232,
      "v": 127
    },
    {
      "midi": 61,
      "hit": false,
      "t": 158658.28882291503,
      "d": 123.92232291665277,
      "v": 127
    },
    {
      "midi": 64,
      "hit": false,
      "t": 158658.28882291503,
      "d": 123.92232291665277,
      "v": 127
    },
    {
      "midi": 68,
      "hit": false,
      "t": 158658.28882291503,
      "d": 123.92232291665277,
      "v": 127
    },
    {
      "midi": 49,
      "hit": false,
      "t": 158787.599072915,
      "d": 123.92232291665277,
      "v": 127
    },
    {
      "midi": 37,
      "hit": false,
      "t": 159046.219572915,
      "d": 123.92232291665277,
      "v": 127
    },
    {
      "midi": 61,
      "hit": false,
      "t": 159046.219572915,
      "d": 123.92232291665277,
      "v": 127
    },
    {
      "midi": 64,
      "hit": false,
      "t": 159046.219572915,
      "d": 123.92232291665277,
      "v": 127
    },
    {
      "midi": 68,
      "hit": false,
      "t": 159046.219572915,
      "d": 123.92232291665277,
      "v": 127
    },
    {
      "midi": 37,
      "hit": false,
      "t": 159304.840072915,
      "d": 123.92232291665277,
      "v": 127
    },
    {
      "midi": 49,
      "hit": false,
      "t": 159434.15032291497,
      "d": 123.92232291665277,
      "v": 109
    },
    {
      "midi": 37,
      "hit": false,
      "t": 159692.77082291496,
      "d": 123.92232291665277,
      "v": 127
    },
    {
      "midi": 61,
      "hit": false,
      "t": 159692.77082291496,
      "d": 123.92232291665277,
      "v": 127
    },
    {
      "midi": 64,
      "hit": false,
      "t": 159692.77082291496,
      "d": 123.92232291665277,
      "v": 127
    },
    {
      "midi": 68,
      "hit": false,
      "t": 159692.77082291496,
      "d": 123.92232291665277,
      "v": 127
    },
    {
      "midi": 49,
      "hit": false,
      "t": 159822.08107291494,
      "d": 123.92232291665277,
      "v": 127
    },
    {
      "midi": 61,
      "hit": false,
      "t": 160080.70157291493,
      "d": 123.92232291665277,
      "v": 127
    },
    {
      "midi": 64,
      "hit": false,
      "t": 160080.70157291493,
      "d": 123.92232291665277,
      "v": 127
    },
    {
      "midi": 68,
      "hit": false,
      "t": 160080.70157291493,
      "d": 123.92232291665277,
      "v": 127
    },
    {
      "midi": 61,
      "hit": false,
      "t": 160339.32207291492,
      "d": 123.92232291665277,
      "v": 127
    },
    {
      "midi": 66,
      "hit": false,
      "t": 160339.32207291492,
      "d": 123.92232291665277,
      "v": 127
    },
    {
      "midi": 69,
      "hit": false,
      "t": 160339.32207291492,
      "d": 123.92232291665277,
      "v": 127
    },
    {
      "midi": 42,
      "hit": false,
      "t": 160597.9425729149,
      "d": 123.92232291665277,
      "v": 127
    },
    {
      "midi": 61,
      "hit": false,
      "t": 160727.2528229149,
      "d": 123.92232291665277,
      "v": 127
    },
    {
      "midi": 66,
      "hit": false,
      "t": 160727.2528229149,
      "d": 123.92232291665277,
      "v": 127
    },
    {
      "midi": 69,
      "hit": false,
      "t": 160727.2528229149,
      "d": 123.92232291665277,
      "v": 127
    },
    {
      "midi": 54,
      "hit": false,
      "t": 160856.56307291487,
      "d": 123.92232291665277,
      "v": 127
    },
    {
      "midi": 42,
      "hit": false,
      "t": 161115.18357291486,
      "d": 123.92232291665277,
      "v": 127
    },
    {
      "midi": 61,
      "hit": false,
      "t": 161115.18357291486,
      "d": 123.92232291665277,
      "v": 127
    },
    {
      "midi": 66,
      "hit": false,
      "t": 161115.18357291486,
      "d": 123.92232291665277,
      "v": 127
    },
    {
      "midi": 69,
      "hit": false,
      "t": 161115.18357291486,
      "d": 123.92232291665277,
      "v": 127
    },
    {
      "midi": 35,
      "hit": false,
      "t": 161373.80407291485,
      "d": 123.92232291665277,
      "v": 103
    },
    {
      "midi": 47,
      "hit": false,
      "t": 161503.11432291483,
      "d": 123.92232291665277,
      "v": 101
    },
    {
      "midi": 59,
      "hit": false,
      "t": 161632.4245729148,
      "d": 123.92232291665277,
      "v": 109
    },
    {
      "midi": 63,
      "hit": false,
      "t": 161632.4245729148,
      "d": 123.92232291665277,
      "v": 127
    },
    {
      "midi": 66,
      "hit": false,
      "t": 161632.4245729148,
      "d": 123.92232291665277,
      "v": 127
    },
    {
      "midi": 35,
      "hit": false,
      "t": 161761.7348229148,
      "d": 123.92232291665277,
      "v": 127
    },
    {
      "midi": 47,
      "hit": false,
      "t": 161891.04507291477,
      "d": 123.92232291665277,
      "v": 127
    },
    {
      "midi": 59,
      "hit": false,
      "t": 161891.04507291477,
      "d": 123.92232291665277,
      "v": 123
    },
    {
      "midi": 63,
      "hit": false,
      "t": 161891.04507291477,
      "d": 123.92232291665277,
      "v": 127
    },
    {
      "midi": 66,
      "hit": false,
      "t": 161891.04507291477,
      "d": 123.92232291665277,
      "v": 127
    },
    {
      "midi": 59,
      "hit": false,
      "t": 162020.35532291475,
      "d": 123.92232291665277,
      "v": 119
    },
    {
      "midi": 63,
      "hit": false,
      "t": 162020.35532291475,
      "d": 123.92232291665277,
      "v": 127
    },
    {
      "midi": 66,
      "hit": false,
      "t": 162020.35532291475,
      "d": 123.92232291665277,
      "v": 127
    },
    {
      "midi": 59,
      "hit": false,
      "t": 162408.28607291472,
      "d": 123.92232291665277,
      "v": 105
    },
    {
      "midi": 63,
      "hit": false,
      "t": 162408.28607291472,
      "d": 123.92232291665277,
      "v": 127
    },
    {
      "midi": 68,
      "hit": false,
      "t": 162408.28607291472,
      "d": 123.92232291665277,
      "v": 127
    },
    {
      "midi": 44,
      "hit": false,
      "t": 162666.9065729147,
      "d": 123.92232291665277,
      "v": 127
    },
    {
      "midi": 59,
      "hit": false,
      "t": 162666.9065729147,
      "d": 123.92232291665277,
      "v": 103
    },
    {
      "midi": 63,
      "hit": false,
      "t": 162666.9065729147,
      "d": 123.92232291665277,
      "v": 127
    },
    {
      "midi": 68,
      "hit": false,
      "t": 162666.9065729147,
      "d": 123.92232291665277,
      "v": 127
    },
    {
      "midi": 56,
      "hit": false,
      "t": 162925.5270729147,
      "d": 123.92232291665277,
      "v": 127
    },
    {
      "midi": 59,
      "hit": false,
      "t": 162925.5270729147,
      "d": 123.92232291665277,
      "v": 127
    },
    {
      "midi": 63,
      "hit": false,
      "t": 162925.5270729147,
      "d": 123.92232291665277,
      "v": 127
    },
    {
      "midi": 68,
      "hit": false,
      "t": 162925.5270729147,
      "d": 123.92232291665277,
      "v": 127
    },
    {
      "midi": 59,
      "hit": false,
      "t": 163054.83732291468,
      "d": 123.92232291665277,
      "v": 127
    },
    {
      "midi": 63,
      "hit": false,
      "t": 163054.83732291468,
      "d": 123.92232291665277,
      "v": 127
    },
    {
      "midi": 66,
      "hit": false,
      "t": 163054.83732291468,
      "d": 123.92232291665277,
      "v": 127
    },
    {
      "midi": 44,
      "hit": false,
      "t": 163184.14757291466,
      "d": 123.92232291665277,
      "v": 127
    },
    {
      "midi": 37,
      "hit": false,
      "t": 163442.76807291465,
      "d": 123.92232291665277,
      "v": 127
    },
    {
      "midi": 49,
      "hit": false,
      "t": 163572.07832291463,
      "d": 123.92232291665277,
      "v": 107
    },
    {
      "midi": 64,
      "hit": false,
      "t": 163830.69882291462,
      "d": 26.939635416667443,
      "v": 127
    },
    {
      "midi": 68,
      "hit": false,
      "t": 163830.69882291462,
      "d": 32.32756249999511,
      "v": 127
    },
    {
      "midi": 61,
      "hit": false,
      "t": 163830.69882291462,
      "d": 43.103416666650446,
      "v": 127
    },
    {
      "midi": 37,
      "hit": false,
      "t": 163830.69882291462,
      "d": 123.92232291665277,
      "v": 109
    },
    {
      "midi": 49,
      "hit": false,
      "t": 163960.0090729146,
      "d": 123.92232291665277,
      "v": 127
    },
    {
      "midi": 61,
      "hit": false,
      "t": 164218.6295729146,
      "d": 123.92232291665277,
      "v": 127
    },
    {
      "midi": 64,
      "hit": false,
      "t": 164218.6295729146,
      "d": 123.92232291665277,
      "v": 127
    },
    {
      "midi": 68,
      "hit": false,
      "t": 164218.6295729146,
      "d": 123.92232291665277,
      "v": 127
    },
    {
      "midi": 61,
      "hit": false,
      "t": 164477.25007291458,
      "d": 123.92232291665277,
      "v": 127
    },
    {
      "midi": 66,
      "hit": false,
      "t": 164477.25007291458,
      "d": 123.92232291665277,
      "v": 127
    },
    {
      "midi": 69,
      "hit": false,
      "t": 164477.25007291458,
      "d": 123.92232291665277,
      "v": 127
    },
    {
      "midi": 42,
      "hit": false,
      "t": 164735.87057291457,
      "d": 123.92232291665277,
      "v": 127
    },
    {
      "midi": 61,
      "hit": false,
      "t": 164865.18082291455,
      "d": 123.92232291665277,
      "v": 127
    },
    {
      "midi": 66,
      "hit": false,
      "t": 164865.18082291455,
      "d": 123.92232291665277,
      "v": 127
    },
    {
      "midi": 69,
      "hit": false,
      "t": 164865.18082291455,
      "d": 123.92232291665277,
      "v": 127
    },
    {
      "midi": 54,
      "hit": false,
      "t": 164994.49107291453,
      "d": 123.92232291665277,
      "v": 127
    },
    {
      "midi": 42,
      "hit": false,
      "t": 165253.11157291452,
      "d": 123.92232291665277,
      "v": 127
    },
    {
      "midi": 61,
      "hit": false,
      "t": 165253.11157291452,
      "d": 123.92232291665277,
      "v": 127
    },
    {
      "midi": 66,
      "hit": false,
      "t": 165253.11157291452,
      "d": 123.92232291665277,
      "v": 127
    },
    {
      "midi": 69,
      "hit": false,
      "t": 165253.11157291452,
      "d": 123.92232291665277,
      "v": 127
    },
    {
      "midi": 35,
      "hit": false,
      "t": 165511.7320729145,
      "d": 123.92232291668188,
      "v": 127
    },
    {
      "midi": 47,
      "hit": false,
      "t": 165641.04232291452,
      "d": 123.92232291665277,
      "v": 127
    },
    {
      "midi": 59,
      "hit": false,
      "t": 165770.3525729145,
      "d": 123.92232291665277,
      "v": 115
    },
    {
      "midi": 63,
      "hit": false,
      "t": 165770.3525729145,
      "d": 123.92232291665277,
      "v": 127
    },
    {
      "midi": 66,
      "hit": false,
      "t": 165770.3525729145,
      "d": 123.92232291665277,
      "v": 127
    },
    {
      "midi": 35,
      "hit": false,
      "t": 165899.66282291448,
      "d": 123.92232291665277,
      "v": 127
    },
    {
      "midi": 47,
      "hit": false,
      "t": 166028.97307291446,
      "d": 123.92232291665277,
      "v": 127
    },
    {
      "midi": 59,
      "hit": false,
      "t": 166028.97307291446,
      "d": 123.92232291665277,
      "v": 112
    },
    {
      "midi": 63,
      "hit": false,
      "t": 166028.97307291446,
      "d": 123.92232291665277,
      "v": 127
    },
    {
      "midi": 66,
      "hit": false,
      "t": 166028.97307291446,
      "d": 123.92232291665277,
      "v": 127
    },
    {
      "midi": 59,
      "hit": false,
      "t": 166158.28332291445,
      "d": 123.92232291665277,
      "v": 127
    },
    {
      "midi": 63,
      "hit": false,
      "t": 166158.28332291445,
      "d": 123.92232291665277,
      "v": 127
    },
    {
      "midi": 66,
      "hit": false,
      "t": 166158.28332291445,
      "d": 123.92232291665277,
      "v": 127
    },
    {
      "midi": 61,
      "hit": false,
      "t": 166546.21407291444,
      "d": 123.92232291665277,
      "v": 127
    },
    {
      "midi": 64,
      "hit": false,
      "t": 166546.21407291444,
      "d": 123.92232291665277,
      "v": 127
    },
    {
      "midi": 68,
      "hit": false,
      "t": 166546.21407291444,
      "d": 123.92232291665277,
      "v": 127
    },
    {
      "midi": 37,
      "hit": false,
      "t": 166804.83457291443,
      "d": 253.23257291666232,
      "v": 127
    },
    {
      "midi": 61,
      "hit": false,
      "t": 166934.14482291444,
      "d": 123.92232291665277,
      "v": 127
    },
    {
      "midi": 64,
      "hit": false,
      "t": 166934.14482291444,
      "d": 123.92232291665277,
      "v": 127
    },
    {
      "midi": 68,
      "hit": false,
      "t": 166934.14482291444,
      "d": 123.92232291665277,
      "v": 127
    },
    {
      "midi": 49,
      "hit": false,
      "t": 167063.45507291442,
      "d": 123.92232291665277,
      "v": 127
    },
    {
      "midi": 37,
      "hit": false,
      "t": 167322.07557291441,
      "d": 123.92232291665277,
      "v": 127
    },
    {
      "midi": 61,
      "hit": false,
      "t": 167322.07557291441,
      "d": 123.92232291665277,
      "v": 127
    },
    {
      "midi": 64,
      "hit": false,
      "t": 167322.07557291441,
      "d": 123.92232291665277,
      "v": 127
    },
    {
      "midi": 68,
      "hit": false,
      "t": 167322.07557291441,
      "d": 123.92232291665277,
      "v": 127
    },
    {
      "midi": 37,
      "hit": false,
      "t": 167580.6960729144,
      "d": 118.5343958333251,
      "v": 127
    },
    {
      "midi": 49,
      "hit": false,
      "t": 167704.61839583106,
      "d": 123.92232291665277,
      "v": 109
    },
    {
      "midi": 37,
      "hit": false,
      "t": 167963.23889583105,
      "d": 123.92232291665277,
      "v": 127
    },
    {
      "midi": 61,
      "hit": false,
      "t": 167963.23889583105,
      "d": 123.92232291665277,
      "v": 127
    },
    {
      "midi": 64,
      "hit": false,
      "t": 167963.23889583105,
      "d": 123.92232291665277,
      "v": 127
    },
    {
      "midi": 68,
      "hit": false,
      "t": 167963.23889583105,
      "d": 123.92232291665277,
      "v": 127
    },
    {
      "midi": 49,
      "hit": false,
      "t": 168092.54914583103,
      "d": 123.92232291665277,
      "v": 127
    },
    {
      "midi": 61,
      "hit": false,
      "t": 168351.16964583102,
      "d": 123.92232291665277,
      "v": 127
    },
    {
      "midi": 64,
      "hit": false,
      "t": 168351.16964583102,
      "d": 123.92232291665277,
      "v": 127
    },
    {
      "midi": 68,
      "hit": false,
      "t": 168351.16964583102,
      "d": 123.92232291665277,
      "v": 127
    },
    {
      "midi": 61,
      "hit": false,
      "t": 168609.790145831,
      "d": 123.92232291665277,
      "v": 127
    },
    {
      "midi": 66,
      "hit": false,
      "t": 168609.790145831,
      "d": 123.92232291665277,
      "v": 127
    },
    {
      "midi": 69,
      "hit": false,
      "t": 168609.790145831,
      "d": 123.92232291665277,
      "v": 127
    },
    {
      "midi": 42,
      "hit": false,
      "t": 168868.410645831,
      "d": 123.92232291665277,
      "v": 127
    },
    {
      "midi": 61,
      "hit": false,
      "t": 168997.72089583098,
      "d": 123.92232291665277,
      "v": 127
    },
    {
      "midi": 66,
      "hit": false,
      "t": 168997.72089583098,
      "d": 123.92232291665277,
      "v": 127
    },
    {
      "midi": 69,
      "hit": false,
      "t": 168997.72089583098,
      "d": 123.92232291665277,
      "v": 127
    },
    {
      "midi": 54,
      "hit": false,
      "t": 169127.03114583096,
      "d": 123.92232291665277,
      "v": 127
    },
    {
      "midi": 42,
      "hit": false,
      "t": 169385.65164583095,
      "d": 123.92232291665277,
      "v": 127
    },
    {
      "midi": 61,
      "hit": false,
      "t": 169385.65164583095,
      "d": 123.92232291665277,
      "v": 127
    },
    {
      "midi": 66,
      "hit": false,
      "t": 169385.65164583095,
      "d": 123.92232291665277,
      "v": 127
    },
    {
      "midi": 69,
      "hit": false,
      "t": 169385.65164583095,
      "d": 123.92232291665277,
      "v": 127
    },
    {
      "midi": 35,
      "hit": false,
      "t": 169644.27214583094,
      "d": 123.92232291665277,
      "v": 103
    },
    {
      "midi": 47,
      "hit": false,
      "t": 169773.58239583092,
      "d": 123.92232291665277,
      "v": 101
    },
    {
      "midi": 59,
      "hit": false,
      "t": 169902.8926458309,
      "d": 123.92232291665277,
      "v": 109
    },
    {
      "midi": 63,
      "hit": false,
      "t": 169902.8926458309,
      "d": 123.92232291665277,
      "v": 127
    },
    {
      "midi": 66,
      "hit": false,
      "t": 169902.8926458309,
      "d": 123.92232291665277,
      "v": 127
    },
    {
      "midi": 35,
      "hit": false,
      "t": 170032.20289583088,
      "d": 123.92232291665277,
      "v": 127
    },
    {
      "midi": 47,
      "hit": false,
      "t": 170161.51314583086,
      "d": 123.92232291665277,
      "v": 127
    },
    {
      "midi": 59,
      "hit": false,
      "t": 170161.51314583086,
      "d": 123.92232291665277,
      "v": 123
    },
    {
      "midi": 63,
      "hit": false,
      "t": 170161.51314583086,
      "d": 123.92232291665277,
      "v": 127
    },
    {
      "midi": 66,
      "hit": false,
      "t": 170161.51314583086,
      "d": 123.92232291665277,
      "v": 127
    },
    {
      "midi": 59,
      "hit": false,
      "t": 170290.82339583084,
      "d": 123.92232291665277,
      "v": 119
    },
    {
      "midi": 63,
      "hit": false,
      "t": 170290.82339583084,
      "d": 123.92232291665277,
      "v": 127
    },
    {
      "midi": 66,
      "hit": false,
      "t": 170290.82339583084,
      "d": 123.92232291665277,
      "v": 127
    },
    {
      "midi": 59,
      "hit": false,
      "t": 170678.7541458308,
      "d": 123.92232291665277,
      "v": 105
    },
    {
      "midi": 63,
      "hit": false,
      "t": 170678.7541458308,
      "d": 123.92232291665277,
      "v": 127
    },
    {
      "midi": 68,
      "hit": false,
      "t": 170678.7541458308,
      "d": 123.92232291665277,
      "v": 127
    },
    {
      "midi": 44,
      "hit": false,
      "t": 170937.3746458308,
      "d": 123.92232291665277,
      "v": 127
    },
    {
      "midi": 59,
      "hit": false,
      "t": 170937.3746458308,
      "d": 123.92232291665277,
      "v": 103
    },
    {
      "midi": 63,
      "hit": false,
      "t": 170937.3746458308,
      "d": 123.92232291665277,
      "v": 127
    },
    {
      "midi": 68,
      "hit": false,
      "t": 170937.3746458308,
      "d": 123.92232291665277,
      "v": 127
    },
    {
      "midi": 56,
      "hit": false,
      "t": 171195.9951458308,
      "d": 123.92232291665277,
      "v": 127
    },
    {
      "midi": 59,
      "hit": false,
      "t": 171195.9951458308,
      "d": 123.92232291665277,
      "v": 127
    },
    {
      "midi": 63,
      "hit": false,
      "t": 171195.9951458308,
      "d": 123.92232291665277,
      "v": 127
    },
    {
      "midi": 68,
      "hit": false,
      "t": 171195.9951458308,
      "d": 123.92232291665277,
      "v": 127
    },
    {
      "midi": 59,
      "hit": false,
      "t": 171325.30539583077,
      "d": 123.92232291665277,
      "v": 127
    },
    {
      "midi": 63,
      "hit": false,
      "t": 171325.30539583077,
      "d": 123.92232291665277,
      "v": 127
    },
    {
      "midi": 66,
      "hit": false,
      "t": 171325.30539583077,
      "d": 123.92232291665277,
      "v": 127
    },
    {
      "midi": 44,
      "hit": false,
      "t": 171454.61564583075,
      "d": 123.92232291665277,
      "v": 127
    },
    {
      "midi": 37,
      "hit": false,
      "t": 171713.23614583074,
      "d": 123.92232291665277,
      "v": 127
    },
    {
      "midi": 49,
      "hit": false,
      "t": 171842.54639583072,
      "d": 123.92232291665277,
      "v": 107
    },
    {
      "midi": 64,
      "hit": false,
      "t": 172101.1668958307,
      "d": 26.939635416667443,
      "v": 127
    },
    {
      "midi": 68,
      "hit": false,
      "t": 172101.1668958307,
      "d": 32.32756249999511,
      "v": 127
    },
    {
      "midi": 61,
      "hit": false,
      "t": 172101.1668958307,
      "d": 43.103416666650446,
      "v": 127
    },
    {
      "midi": 37,
      "hit": false,
      "t": 172101.1668958307,
      "d": 123.92232291665277,
      "v": 109
    },
    {
      "midi": 49,
      "hit": false,
      "t": 172230.4771458307,
      "d": 123.92232291665277,
      "v": 127
    },
    {
      "midi": 61,
      "hit": false,
      "t": 172489.09764583068,
      "d": 123.92232291665277,
      "v": 127
    },
    {
      "midi": 64,
      "hit": false,
      "t": 172489.09764583068,
      "d": 123.92232291665277,
      "v": 127
    },
    {
      "midi": 68,
      "hit": false,
      "t": 172489.09764583068,
      "d": 123.92232291665277,
      "v": 127
    },
    {
      "midi": 61,
      "hit": false,
      "t": 172747.71814583067,
      "d": 123.92232291665277,
      "v": 127
    },
    {
      "midi": 66,
      "hit": false,
      "t": 172747.71814583067,
      "d": 123.92232291665277,
      "v": 127
    },
    {
      "midi": 69,
      "hit": false,
      "t": 172747.71814583067,
      "d": 123.92232291665277,
      "v": 127
    },
    {
      "midi": 42,
      "hit": false,
      "t": 173006.33864583066,
      "d": 123.92232291665277,
      "v": 127
    },
    {
      "midi": 61,
      "hit": false,
      "t": 173135.64889583064,
      "d": 123.92232291665277,
      "v": 127
    },
    {
      "midi": 66,
      "hit": false,
      "t": 173135.64889583064,
      "d": 123.92232291665277,
      "v": 127
    },
    {
      "midi": 69,
      "hit": false,
      "t": 173135.64889583064,
      "d": 123.92232291665277,
      "v": 127
    },
    {
      "midi": 54,
      "hit": false,
      "t": 173264.95914583062,
      "d": 123.92232291665277,
      "v": 127
    },
    {
      "midi": 42,
      "hit": false,
      "t": 173523.5796458306,
      "d": 123.92232291665277,
      "v": 127
    },
    {
      "midi": 61,
      "hit": false,
      "t": 173523.5796458306,
      "d": 123.92232291665277,
      "v": 127
    },
    {
      "midi": 66,
      "hit": false,
      "t": 173523.5796458306,
      "d": 123.92232291665277,
      "v": 127
    },
    {
      "midi": 69,
      "hit": false,
      "t": 173523.5796458306,
      "d": 123.92232291665277,
      "v": 127
    },
    {
      "midi": 35,
      "hit": false,
      "t": 173782.2001458306,
      "d": 123.92232291668188,
      "v": 127
    },
    {
      "midi": 47,
      "hit": false,
      "t": 173911.5103958306,
      "d": 123.92232291665277,
      "v": 127
    },
    {
      "midi": 59,
      "hit": false,
      "t": 174040.8206458306,
      "d": 123.92232291665277,
      "v": 115
    },
    {
      "midi": 63,
      "hit": false,
      "t": 174040.8206458306,
      "d": 123.92232291665277,
      "v": 127
    },
    {
      "midi": 66,
      "hit": false,
      "t": 174040.8206458306,
      "d": 123.92232291665277,
      "v": 127
    },
    {
      "midi": 35,
      "hit": false,
      "t": 174170.13089583057,
      "d": 123.92232291665277,
      "v": 127
    },
    {
      "midi": 47,
      "hit": false,
      "t": 174299.44114583055,
      "d": 123.92232291665277,
      "v": 127
    },
    {
      "midi": 59,
      "hit": false,
      "t": 174299.44114583055,
      "d": 123.92232291665277,
      "v": 112
    },
    {
      "midi": 63,
      "hit": false,
      "t": 174299.44114583055,
      "d": 123.92232291665277,
      "v": 127
    },
    {
      "midi": 66,
      "hit": false,
      "t": 174299.44114583055,
      "d": 123.92232291665277,
      "v": 127
    },
    {
      "midi": 59,
      "hit": false,
      "t": 174428.75139583054,
      "d": 123.92232291665277,
      "v": 127
    },
    {
      "midi": 63,
      "hit": false,
      "t": 174428.75139583054,
      "d": 123.92232291665277,
      "v": 127
    },
    {
      "midi": 66,
      "hit": false,
      "t": 174428.75139583054,
      "d": 123.92232291665277,
      "v": 127
    },
    {
      "midi": 61,
      "hit": false,
      "t": 174816.68214583053,
      "d": 123.92232291665277,
      "v": 127
    },
    {
      "midi": 64,
      "hit": false,
      "t": 174816.68214583053,
      "d": 123.92232291665277,
      "v": 127
    },
    {
      "midi": 68,
      "hit": false,
      "t": 174816.68214583053,
      "d": 123.92232291665277,
      "v": 127
    },
    {
      "midi": 37,
      "hit": false,
      "t": 175075.30264583052,
      "d": 253.23257291666232,
      "v": 127
    },
    {
      "midi": 61,
      "hit": false,
      "t": 175204.61289583053,
      "d": 123.92232291665277,
      "v": 127
    },
    {
      "midi": 64,
      "hit": false,
      "t": 175204.61289583053,
      "d": 123.92232291665277,
      "v": 127
    },
    {
      "midi": 68,
      "hit": false,
      "t": 175204.61289583053,
      "d": 123.92232291665277,
      "v": 127
    },
    {
      "midi": 49,
      "hit": false,
      "t": 175333.92314583051,
      "d": 123.92232291665277,
      "v": 127
    },
    {
      "midi": 37,
      "hit": false,
      "t": 175592.5436458305,
      "d": 123.92232291665277,
      "v": 127
    },
    {
      "midi": 61,
      "hit": false,
      "t": 175592.5436458305,
      "d": 123.92232291665277,
      "v": 127
    },
    {
      "midi": 64,
      "hit": false,
      "t": 175592.5436458305,
      "d": 123.92232291665277,
      "v": 127
    },
    {
      "midi": 68,
      "hit": false,
      "t": 175592.5436458305,
      "d": 123.92232291665277,
      "v": 127
    },
    {
      "midi": 37,
      "hit": false,
      "t": 175851.1641458305,
      "d": 123.92232291665277,
      "v": 127
    },
    {
      "midi": 49,
      "hit": false,
      "t": 175980.47439583048,
      "d": 123.92232291665277,
      "v": 109
    },
    {
      "midi": 37,
      "hit": false,
      "t": 176239.09489583047,
      "d": 123.92232291665277,
      "v": 127
    },
    {
      "midi": 61,
      "hit": false,
      "t": 176239.09489583047,
      "d": 123.92232291665277,
      "v": 127
    },
    {
      "midi": 64,
      "hit": false,
      "t": 176239.09489583047,
      "d": 123.92232291665277,
      "v": 127
    },
    {
      "midi": 68,
      "hit": false,
      "t": 176239.09489583047,
      "d": 123.92232291665277,
      "v": 127
    },
    {
      "midi": 49,
      "hit": false,
      "t": 176368.40514583045,
      "d": 123.92232291665277,
      "v": 127
    },
    {
      "midi": 61,
      "hit": false,
      "t": 176627.02564583044,
      "d": 123.92232291665277,
      "v": 127
    },
    {
      "midi": 64,
      "hit": false,
      "t": 176627.02564583044,
      "d": 123.92232291665277,
      "v": 127
    },
    {
      "midi": 68,
      "hit": false,
      "t": 176627.02564583044,
      "d": 123.92232291665277,
      "v": 127
    },
    {
      "midi": 61,
      "hit": false,
      "t": 176885.64614583043,
      "d": 123.92232291665277,
      "v": 127
    },
    {
      "midi": 66,
      "hit": false,
      "t": 176885.64614583043,
      "d": 123.92232291665277,
      "v": 127
    },
    {
      "midi": 69,
      "hit": false,
      "t": 176885.64614583043,
      "d": 123.92232291665277,
      "v": 127
    },
    {
      "midi": 42,
      "hit": false,
      "t": 177144.26664583042,
      "d": 123.92232291665277,
      "v": 127
    },
    {
      "midi": 61,
      "hit": false,
      "t": 177273.5768958304,
      "d": 123.92232291665277,
      "v": 127
    },
    {
      "midi": 66,
      "hit": false,
      "t": 177273.5768958304,
      "d": 123.92232291665277,
      "v": 127
    },
    {
      "midi": 69,
      "hit": false,
      "t": 177273.5768958304,
      "d": 123.92232291665277,
      "v": 127
    },
    {
      "midi": 54,
      "hit": false,
      "t": 177402.88714583038,
      "d": 123.92232291665277,
      "v": 127
    },
    {
      "midi": 42,
      "hit": false,
      "t": 177661.50764583037,
      "d": 123.92232291665277,
      "v": 127
    },
    {
      "midi": 61,
      "hit": false,
      "t": 177661.50764583037,
      "d": 123.92232291665277,
      "v": 127
    },
    {
      "midi": 66,
      "hit": false,
      "t": 177661.50764583037,
      "d": 123.92232291665277,
      "v": 127
    },
    {
      "midi": 69,
      "hit": false,
      "t": 177661.50764583037,
      "d": 123.92232291665277,
      "v": 127
    },
    {
      "midi": 35,
      "hit": false,
      "t": 177920.12814583036,
      "d": 123.92232291665277,
      "v": 103
    },
    {
      "midi": 47,
      "hit": false,
      "t": 178049.43839583034,
      "d": 123.92232291665277,
      "v": 101
    },
    {
      "midi": 59,
      "hit": false,
      "t": 178178.74864583032,
      "d": 123.92232291665277,
      "v": 109
    },
    {
      "midi": 63,
      "hit": false,
      "t": 178178.74864583032,
      "d": 123.92232291665277,
      "v": 127
    },
    {
      "midi": 66,
      "hit": false,
      "t": 178178.74864583032,
      "d": 123.92232291665277,
      "v": 127
    },
    {
      "midi": 35,
      "hit": false,
      "t": 178308.0588958303,
      "d": 123.92232291665277,
      "v": 127
    },
    {
      "midi": 47,
      "hit": false,
      "t": 178437.36914583028,
      "d": 123.92232291665277,
      "v": 127
    },
    {
      "midi": 59,
      "hit": false,
      "t": 178437.36914583028,
      "d": 123.92232291665277,
      "v": 123
    },
    {
      "midi": 63,
      "hit": false,
      "t": 178437.36914583028,
      "d": 123.92232291665277,
      "v": 127
    },
    {
      "midi": 66,
      "hit": false,
      "t": 178437.36914583028,
      "d": 123.92232291665277,
      "v": 127
    },
    {
      "midi": 59,
      "hit": false,
      "t": 178566.67939583026,
      "d": 123.92232291665277,
      "v": 119
    },
    {
      "midi": 63,
      "hit": false,
      "t": 178566.67939583026,
      "d": 123.92232291665277,
      "v": 127
    },
    {
      "midi": 66,
      "hit": false,
      "t": 178566.67939583026,
      "d": 123.92232291665277,
      "v": 127
    },
    {
      "midi": 59,
      "hit": false,
      "t": 178954.61014583023,
      "d": 123.92232291665277,
      "v": 105
    },
    {
      "midi": 63,
      "hit": false,
      "t": 178954.61014583023,
      "d": 123.92232291665277,
      "v": 127
    },
    {
      "midi": 68,
      "hit": false,
      "t": 178954.61014583023,
      "d": 123.92232291665277,
      "v": 127
    },
    {
      "midi": 44,
      "hit": false,
      "t": 179213.23064583022,
      "d": 123.92232291665277,
      "v": 127
    },
    {
      "midi": 59,
      "hit": false,
      "t": 179213.23064583022,
      "d": 123.92232291665277,
      "v": 103
    },
    {
      "midi": 63,
      "hit": false,
      "t": 179213.23064583022,
      "d": 123.92232291665277,
      "v": 127
    },
    {
      "midi": 68,
      "hit": false,
      "t": 179213.23064583022,
      "d": 123.92232291665277,
      "v": 127
    },
    {
      "midi": 56,
      "hit": false,
      "t": 179471.8511458302,
      "d": 123.92232291665277,
      "v": 127
    },
    {
      "midi": 59,
      "hit": false,
      "t": 179471.8511458302,
      "d": 123.92232291665277,
      "v": 127
    },
    {
      "midi": 63,
      "hit": false,
      "t": 179471.8511458302,
      "d": 123.92232291665277,
      "v": 127
    },
    {
      "midi": 68,
      "hit": false,
      "t": 179471.8511458302,
      "d": 123.92232291665277,
      "v": 127
    },
    {
      "midi": 59,
      "hit": false,
      "t": 179601.1613958302,
      "d": 123.92232291665277,
      "v": 127
    },
    {
      "midi": 63,
      "hit": false,
      "t": 179601.1613958302,
      "d": 123.92232291665277,
      "v": 127
    },
    {
      "midi": 66,
      "hit": false,
      "t": 179601.1613958302,
      "d": 123.92232291665277,
      "v": 127
    },
    {
      "midi": 44,
      "hit": false,
      "t": 179730.47164583017,
      "d": 123.92232291665277,
      "v": 127
    },
    {
      "midi": 37,
      "hit": false,
      "t": 179989.09214583016,
      "d": 123.92232291665277,
      "v": 127
    },
    {
      "midi": 49,
      "hit": false,
      "t": 180118.40239583014,
      "d": 123.92232291665277,
      "v": 107
    },
    {
      "midi": 64,
      "hit": false,
      "t": 180377.02289583013,
      "d": 26.939635416667443,
      "v": 127
    },
    {
      "midi": 68,
      "hit": false,
      "t": 180377.02289583013,
      "d": 32.32756249999511,
      "v": 127
    },
    {
      "midi": 61,
      "hit": false,
      "t": 180377.02289583013,
      "d": 43.103416666650446,
      "v": 127
    },
    {
      "midi": 37,
      "hit": false,
      "t": 180377.02289583013,
      "d": 123.92232291665277,
      "v": 109
    },
    {
      "midi": 49,
      "hit": false,
      "t": 180506.3331458301,
      "d": 123.92232291665277,
      "v": 127
    },
    {
      "midi": 61,
      "hit": false,
      "t": 180764.9536458301,
      "d": 123.92232291665277,
      "v": 127
    },
    {
      "midi": 64,
      "hit": false,
      "t": 180764.9536458301,
      "d": 123.92232291665277,
      "v": 127
    },
    {
      "midi": 68,
      "hit": false,
      "t": 180764.9536458301,
      "d": 123.92232291665277,
      "v": 127
    },
    {
      "midi": 61,
      "hit": false,
      "t": 181023.5741458301,
      "d": 123.92232291665277,
      "v": 127
    },
    {
      "midi": 66,
      "hit": false,
      "t": 181023.5741458301,
      "d": 123.92232291665277,
      "v": 127
    },
    {
      "midi": 69,
      "hit": false,
      "t": 181023.5741458301,
      "d": 123.92232291665277,
      "v": 127
    },
    {
      "midi": 42,
      "hit": false,
      "t": 181282.19464583008,
      "d": 123.92232291665277,
      "v": 127
    },
    {
      "midi": 61,
      "hit": false,
      "t": 181411.50489583006,
      "d": 123.92232291668188,
      "v": 127
    },
    {
      "midi": 66,
      "hit": false,
      "t": 181411.50489583006,
      "d": 123.92232291668188,
      "v": 127
    },
    {
      "midi": 69,
      "hit": false,
      "t": 181411.50489583006,
      "d": 123.92232291668188,
      "v": 127
    },
    {
      "midi": 54,
      "hit": false,
      "t": 181540.81514583007,
      "d": 123.92232291665277,
      "v": 127
    },
    {
      "midi": 42,
      "hit": false,
      "t": 181799.43564583006,
      "d": 123.92232291665277,
      "v": 127
    },
    {
      "midi": 61,
      "hit": false,
      "t": 181799.43564583006,
      "d": 123.92232291665277,
      "v": 127
    },
    {
      "midi": 66,
      "hit": false,
      "t": 181799.43564583006,
      "d": 123.92232291665277,
      "v": 127
    },
    {
      "midi": 69,
      "hit": false,
      "t": 181799.43564583006,
      "d": 123.92232291665277,
      "v": 127
    },
    {
      "midi": 35,
      "hit": false,
      "t": 182058.05614583005,
      "d": 123.92232291665277,
      "v": 127
    },
    {
      "midi": 47,
      "hit": false,
      "t": 182187.36639583003,
      "d": 123.92232291665277,
      "v": 127
    },
    {
      "midi": 59,
      "hit": false,
      "t": 182316.67664583,
      "d": 123.92232291665277,
      "v": 115
    },
    {
      "midi": 63,
      "hit": false,
      "t": 182316.67664583,
      "d": 123.92232291665277,
      "v": 127
    },
    {
      "midi": 66,
      "hit": false,
      "t": 182316.67664583,
      "d": 123.92232291665277,
      "v": 127
    },
    {
      "midi": 35,
      "hit": false,
      "t": 182445.98689583,
      "d": 123.92232291665277,
      "v": 127
    },
    {
      "midi": 47,
      "hit": false,
      "t": 182575.29714582997,
      "d": 123.92232291665277,
      "v": 127
    },
    {
      "midi": 59,
      "hit": false,
      "t": 182575.29714582997,
      "d": 123.92232291665277,
      "v": 112
    },
    {
      "midi": 63,
      "hit": false,
      "t": 182575.29714582997,
      "d": 123.92232291665277,
      "v": 127
    },
    {
      "midi": 66,
      "hit": false,
      "t": 182575.29714582997,
      "d": 123.92232291665277,
      "v": 127
    },
    {
      "midi": 59,
      "hit": false,
      "t": 182704.60739582995,
      "d": 123.92232291665277,
      "v": 127
    },
    {
      "midi": 63,
      "hit": false,
      "t": 182704.60739582995,
      "d": 123.92232291665277,
      "v": 127
    },
    {
      "midi": 66,
      "hit": false,
      "t": 182704.60739582995,
      "d": 123.92232291665277,
      "v": 127
    },
    {
      "midi": 61,
      "hit": false,
      "t": 183092.53814582995,
      "d": 123.92232291665277,
      "v": 127
    },
    {
      "midi": 64,
      "hit": false,
      "t": 183092.53814582995,
      "d": 123.92232291665277,
      "v": 127
    },
    {
      "midi": 68,
      "hit": false,
      "t": 183092.53814582995,
      "d": 123.92232291665277,
      "v": 127
    },
    {
      "midi": 37,
      "hit": false,
      "t": 183351.15864582994,
      "d": 253.23257291666232,
      "v": 127
    },
    {
      "midi": 61,
      "hit": false,
      "t": 183480.46889582995,
      "d": 123.92232291665277,
      "v": 127
    },
    {
      "midi": 64,
      "hit": false,
      "t": 183480.46889582995,
      "d": 123.92232291665277,
      "v": 127
    },
    {
      "midi": 68,
      "hit": false,
      "t": 183480.46889582995,
      "d": 123.92232291665277,
      "v": 127
    },
    {
      "midi": 49,
      "hit": false,
      "t": 183609.77914582993,
      "d": 123.92232291665277,
      "v": 127
    },
    {
      "midi": 37,
      "hit": false,
      "t": 183868.39964582992,
      "d": 123.92232291665277,
      "v": 127
    },
    {
      "midi": 61,
      "hit": false,
      "t": 183868.39964582992,
      "d": 123.92232291665277,
      "v": 127
    },
    {
      "midi": 64,
      "hit": false,
      "t": 183868.39964582992,
      "d": 123.92232291665277,
      "v": 127
    },
    {
      "midi": 68,
      "hit": false,
      "t": 183868.39964582992,
      "d": 123.92232291665277,
      "v": 127
    },
    {
      "midi": 37,
      "hit": false,
      "t": 184127.0201458299,
      "d": 123.92232291665277,
      "v": 127
    },
    {
      "midi": 49,
      "hit": false,
      "t": 184256.3303958299,
      "d": 123.92232291665277,
      "v": 109
    },
    {
      "midi": 37,
      "hit": false,
      "t": 184514.95089582988,
      "d": 123.92232291665277,
      "v": 127
    },
    {
      "midi": 61,
      "hit": false,
      "t": 184514.95089582988,
      "d": 123.92232291665277,
      "v": 127
    },
    {
      "midi": 64,
      "hit": false,
      "t": 184514.95089582988,
      "d": 123.92232291665277,
      "v": 127
    },
    {
      "midi": 68,
      "hit": false,
      "t": 184514.95089582988,
      "d": 123.92232291665277,
      "v": 127
    },
    {
      "midi": 49,
      "hit": false,
      "t": 184644.26114582986,
      "d": 123.92232291665277,
      "v": 127
    },
    {
      "midi": 61,
      "hit": false,
      "t": 184902.88164582985,
      "d": 123.92232291665277,
      "v": 127
    },
    {
      "midi": 64,
      "hit": false,
      "t": 184902.88164582985,
      "d": 123.92232291665277,
      "v": 127
    },
    {
      "midi": 68,
      "hit": false,
      "t": 184902.88164582985,
      "d": 123.92232291665277,
      "v": 127
    },
    {
      "midi": 61,
      "hit": false,
      "t": 185161.50214582984,
      "d": 123.92232291668188,
      "v": 127
    },
    {
      "midi": 66,
      "hit": false,
      "t": 185161.50214582984,
      "d": 123.92232291668188,
      "v": 127
    },
    {
      "midi": 69,
      "hit": false,
      "t": 185161.50214582984,
      "d": 123.92232291668188,
      "v": 127
    },
    {
      "midi": 42,
      "hit": false,
      "t": 185420.12264582986,
      "d": 123.92232291665277,
      "v": 127
    },
    {
      "midi": 61,
      "hit": false,
      "t": 185549.43289582984,
      "d": 123.92232291665277,
      "v": 127
    },
    {
      "midi": 66,
      "hit": false,
      "t": 185549.43289582984,
      "d": 123.92232291665277,
      "v": 127
    },
    {
      "midi": 69,
      "hit": false,
      "t": 185549.43289582984,
      "d": 123.92232291665277,
      "v": 127
    },
    {
      "midi": 54,
      "hit": false,
      "t": 185678.74314582982,
      "d": 123.92232291665277,
      "v": 127
    },
    {
      "midi": 42,
      "hit": false,
      "t": 185937.3636458298,
      "d": 123.92232291665277,
      "v": 127
    },
    {
      "midi": 61,
      "hit": false,
      "t": 185937.3636458298,
      "d": 123.92232291665277,
      "v": 127
    },
    {
      "midi": 66,
      "hit": false,
      "t": 185937.3636458298,
      "d": 123.92232291665277,
      "v": 127
    },
    {
      "midi": 69,
      "hit": false,
      "t": 185937.3636458298,
      "d": 123.92232291665277,
      "v": 127
    },
    {
      "midi": 35,
      "hit": false,
      "t": 186195.9841458298,
      "d": 123.92232291665277,
      "v": 103
    },
    {
      "midi": 47,
      "hit": false,
      "t": 186325.29439582978,
      "d": 123.92232291665277,
      "v": 101
    },
    {
      "midi": 59,
      "hit": false,
      "t": 186454.60464582976,
      "d": 123.92232291665277,
      "v": 109
    },
    {
      "midi": 63,
      "hit": false,
      "t": 186454.60464582976,
      "d": 123.92232291665277,
      "v": 127
    },
    {
      "midi": 66,
      "hit": false,
      "t": 186454.60464582976,
      "d": 123.92232291665277,
      "v": 127
    },
    {
      "midi": 35,
      "hit": false,
      "t": 186583.91489582974,
      "d": 123.92232291665277,
      "v": 127
    },
    {
      "midi": 47,
      "hit": false,
      "t": 186713.22514582973,
      "d": 123.92232291665277,
      "v": 127
    },
    {
      "midi": 59,
      "hit": false,
      "t": 186713.22514582973,
      "d": 123.92232291665277,
      "v": 123
    },
    {
      "midi": 63,
      "hit": false,
      "t": 186713.22514582973,
      "d": 123.92232291665277,
      "v": 127
    },
    {
      "midi": 66,
      "hit": false,
      "t": 186713.22514582973,
      "d": 123.92232291665277,
      "v": 127
    },
    {
      "midi": 59,
      "hit": false,
      "t": 186842.5353958297,
      "d": 123.92232291665277,
      "v": 119
    },
    {
      "midi": 63,
      "hit": false,
      "t": 186842.5353958297,
      "d": 123.92232291665277,
      "v": 127
    },
    {
      "midi": 66,
      "hit": false,
      "t": 186842.5353958297,
      "d": 123.92232291665277,
      "v": 127
    },
    {
      "midi": 59,
      "hit": false,
      "t": 187230.46614582968,
      "d": 123.92232291668188,
      "v": 105
    },
    {
      "midi": 63,
      "hit": false,
      "t": 187230.46614582968,
      "d": 123.92232291668188,
      "v": 127
    },
    {
      "midi": 68,
      "hit": false,
      "t": 187230.46614582968,
      "d": 123.92232291668188,
      "v": 127
    },
    {
      "midi": 44,
      "hit": false,
      "t": 187489.0866458297,
      "d": 123.92232291665277,
      "v": 127
    },
    {
      "midi": 59,
      "hit": false,
      "t": 187489.0866458297,
      "d": 123.92232291665277,
      "v": 103
    },
    {
      "midi": 63,
      "hit": false,
      "t": 187489.0866458297,
      "d": 123.92232291665277,
      "v": 127
    },
    {
      "midi": 68,
      "hit": false,
      "t": 187489.0866458297,
      "d": 123.92232291665277,
      "v": 127
    },
    {
      "midi": 56,
      "hit": false,
      "t": 187747.70714582969,
      "d": 123.92232291665277,
      "v": 127
    },
    {
      "midi": 59,
      "hit": false,
      "t": 187747.70714582969,
      "d": 123.92232291665277,
      "v": 127
    },
    {
      "midi": 63,
      "hit": false,
      "t": 187747.70714582969,
      "d": 123.92232291665277,
      "v": 127
    },
    {
      "midi": 68,
      "hit": false,
      "t": 187747.70714582969,
      "d": 123.92232291665277,
      "v": 127
    },
    {
      "midi": 59,
      "hit": false,
      "t": 187877.01739582967,
      "d": 123.92232291665277,
      "v": 127
    },
    {
      "midi": 63,
      "hit": false,
      "t": 187877.01739582967,
      "d": 123.92232291665277,
      "v": 127
    },
    {
      "midi": 66,
      "hit": false,
      "t": 187877.01739582967,
      "d": 123.92232291665277,
      "v": 127
    },
    {
      "midi": 44,
      "hit": false,
      "t": 188006.32764582965,
      "d": 123.92232291665277,
      "v": 127
    },
    {
      "midi": 37,
      "hit": false,
      "t": 188264.94814582964,
      "d": 123.92232291665277,
      "v": 127
    },
    {
      "midi": 49,
      "hit": false,
      "t": 188394.25839582962,
      "d": 123.92232291665277,
      "v": 107
    },
    {
      "midi": 64,
      "hit": false,
      "t": 188652.8788958296,
      "d": 26.939635416667443,
      "v": 127
    },
    {
      "midi": 68,
      "hit": false,
      "t": 188652.8788958296,
      "d": 32.32756249999511,
      "v": 127
    },
    {
      "midi": 61,
      "hit": false,
      "t": 188652.8788958296,
      "d": 43.103416666650446,
      "v": 127
    },
    {
      "midi": 37,
      "hit": false,
      "t": 188652.8788958296,
      "d": 123.92232291665277,
      "v": 109
    },
    {
      "midi": 49,
      "hit": false,
      "t": 188782.1891458296,
      "d": 123.92232291665277,
      "v": 127
    },
    {
      "midi": 61,
      "hit": false,
      "t": 189040.80964582958,
      "d": 123.92232291665277,
      "v": 127
    },
    {
      "midi": 64,
      "hit": false,
      "t": 189040.80964582958,
      "d": 123.92232291665277,
      "v": 127
    },
    {
      "midi": 68,
      "hit": false,
      "t": 189040.80964582958,
      "d": 123.92232291665277,
      "v": 127
    },
    {
      "midi": 61,
      "hit": false,
      "t": 189299.43014582957,
      "d": 123.92232291665277,
      "v": 127
    },
    {
      "midi": 66,
      "hit": false,
      "t": 189299.43014582957,
      "d": 123.92232291665277,
      "v": 127
    },
    {
      "midi": 69,
      "hit": false,
      "t": 189299.43014582957,
      "d": 123.92232291665277,
      "v": 127
    },
    {
      "midi": 42,
      "hit": false,
      "t": 189558.05064582956,
      "d": 123.92232291665277,
      "v": 127
    },
    {
      "midi": 61,
      "hit": false,
      "t": 189687.36089582954,
      "d": 123.92232291668188,
      "v": 127
    },
    {
      "midi": 66,
      "hit": false,
      "t": 189687.36089582954,
      "d": 123.92232291668188,
      "v": 127
    },
    {
      "midi": 69,
      "hit": false,
      "t": 189687.36089582954,
      "d": 123.92232291668188,
      "v": 127
    },
    {
      "midi": 54,
      "hit": false,
      "t": 189816.67114582955,
      "d": 123.92232291665277,
      "v": 127
    },
    {
      "midi": 42,
      "hit": false,
      "t": 190075.29164582954,
      "d": 123.92232291665277,
      "v": 127
    },
    {
      "midi": 61,
      "hit": false,
      "t": 190075.29164582954,
      "d": 123.92232291665277,
      "v": 127
    },
    {
      "midi": 66,
      "hit": false,
      "t": 190075.29164582954,
      "d": 123.92232291665277,
      "v": 127
    },
    {
      "midi": 69,
      "hit": false,
      "t": 190075.29164582954,
      "d": 123.92232291665277,
      "v": 127
    },
    {
      "midi": 35,
      "hit": false,
      "t": 190333.91214582953,
      "d": 123.92232291665277,
      "v": 127
    },
    {
      "midi": 47,
      "hit": false,
      "t": 190463.2223958295,
      "d": 123.92232291665277,
      "v": 127
    },
    {
      "midi": 59,
      "hit": false,
      "t": 190592.5326458295,
      "d": 123.92232291665277,
      "v": 115
    },
    {
      "midi": 63,
      "hit": false,
      "t": 190592.5326458295,
      "d": 123.92232291665277,
      "v": 127
    },
    {
      "midi": 66,
      "hit": false,
      "t": 190592.5326458295,
      "d": 123.92232291665277,
      "v": 127
    },
    {
      "midi": 35,
      "hit": false,
      "t": 190721.84289582947,
      "d": 123.92232291665277,
      "v": 127
    },
    {
      "midi": 47,
      "hit": false,
      "t": 190851.15314582945,
      "d": 123.92232291665277,
      "v": 127
    },
    {
      "midi": 59,
      "hit": false,
      "t": 190851.15314582945,
      "d": 123.92232291665277,
      "v": 112
    },
    {
      "midi": 63,
      "hit": false,
      "t": 190851.15314582945,
      "d": 123.92232291665277,
      "v": 127
    },
    {
      "midi": 66,
      "hit": false,
      "t": 190851.15314582945,
      "d": 123.92232291665277,
      "v": 127
    },
    {
      "midi": 59,
      "hit": false,
      "t": 190980.46339582943,
      "d": 123.92232291665277,
      "v": 127
    },
    {
      "midi": 63,
      "hit": false,
      "t": 190980.46339582943,
      "d": 123.92232291665277,
      "v": 127
    },
    {
      "midi": 66,
      "hit": false,
      "t": 190980.46339582943,
      "d": 123.92232291665277,
      "v": 127
    },
    {
      "midi": 61,
      "hit": false,
      "t": 191368.39414582943,
      "d": 123.92232291665277,
      "v": 127
    },
    {
      "midi": 64,
      "hit": false,
      "t": 191368.39414582943,
      "d": 123.92232291665277,
      "v": 127
    },
    {
      "midi": 68,
      "hit": false,
      "t": 191368.39414582943,
      "d": 123.92232291665277,
      "v": 127
    },
    {
      "midi": 37,
      "hit": false,
      "t": 191627.01464582942,
      "d": 253.23257291666232,
      "v": 127
    },
    {
      "midi": 61,
      "hit": false,
      "t": 191756.32489582943,
      "d": 123.92232291665277,
      "v": 127
    },
    {
      "midi": 64,
      "hit": false,
      "t": 191756.32489582943,
      "d": 123.92232291665277,
      "v": 127
    },
    {
      "midi": 68,
      "hit": false,
      "t": 191756.32489582943,
      "d": 123.92232291665277,
      "v": 127
    },
    {
      "midi": 49,
      "hit": false,
      "t": 191885.6351458294,
      "d": 123.92232291665277,
      "v": 127
    },
    {
      "midi": 37,
      "hit": false,
      "t": 192144.2556458294,
      "d": 123.92232291665277,
      "v": 127
    },
    {
      "midi": 61,
      "hit": false,
      "t": 192144.2556458294,
      "d": 123.92232291665277,
      "v": 127
    },
    {
      "midi": 64,
      "hit": false,
      "t": 192144.2556458294,
      "d": 123.92232291665277,
      "v": 127
    },
    {
      "midi": 68,
      "hit": false,
      "t": 192144.2556458294,
      "d": 123.92232291665277,
      "v": 127
    },
    {
      "midi": 37,
      "hit": false,
      "t": 192402.8761458294,
      "d": 123.92232291665277,
      "v": 127
    },
    {
      "midi": 49,
      "hit": false,
      "t": 192532.18639582937,
      "d": 123.92232291665277,
      "v": 109
    },
    {
      "midi": 37,
      "hit": false,
      "t": 192790.80689582936,
      "d": 123.92232291665277,
      "v": 127
    },
    {
      "midi": 61,
      "hit": false,
      "t": 192790.80689582936,
      "d": 123.92232291665277,
      "v": 127
    },
    {
      "midi": 64,
      "hit": false,
      "t": 192790.80689582936,
      "d": 123.92232291665277,
      "v": 127
    },
    {
      "midi": 68,
      "hit": false,
      "t": 192790.80689582936,
      "d": 123.92232291665277,
      "v": 127
    },
    {
      "midi": 49,
      "hit": false,
      "t": 192920.11714582934,
      "d": 123.92232291665277,
      "v": 127
    },
    {
      "midi": 61,
      "hit": false,
      "t": 193178.73764582933,
      "d": 123.92232291665277,
      "v": 127
    },
    {
      "midi": 64,
      "hit": false,
      "t": 193178.73764582933,
      "d": 123.92232291665277,
      "v": 127
    },
    {
      "midi": 68,
      "hit": false,
      "t": 193178.73764582933,
      "d": 123.92232291665277,
      "v": 127
    },
    {
      "midi": 61,
      "hit": false,
      "t": 193437.35814582932,
      "d": 123.92232291668188,
      "v": 127
    },
    {
      "midi": 66,
      "hit": false,
      "t": 193437.35814582932,
      "d": 123.92232291668188,
      "v": 127
    },
    {
      "midi": 69,
      "hit": false,
      "t": 193437.35814582932,
      "d": 123.92232291668188,
      "v": 127
    },
    {
      "midi": 42,
      "hit": false,
      "t": 193695.97864582934,
      "d": 123.92232291665277,
      "v": 127
    },
    {
      "midi": 61,
      "hit": false,
      "t": 193825.28889582932,
      "d": 123.92232291665277,
      "v": 127
    },
    {
      "midi": 66,
      "hit": false,
      "t": 193825.28889582932,
      "d": 123.92232291665277,
      "v": 127
    },
    {
      "midi": 69,
      "hit": false,
      "t": 193825.28889582932,
      "d": 123.92232291665277,
      "v": 127
    },
    {
      "midi": 54,
      "hit": false,
      "t": 193954.5991458293,
      "d": 123.92232291665277,
      "v": 127
    },
    {
      "midi": 42,
      "hit": false,
      "t": 194213.2196458293,
      "d": 123.92232291665277,
      "v": 127
    },
    {
      "midi": 61,
      "hit": false,
      "t": 194213.2196458293,
      "d": 123.92232291665277,
      "v": 127
    },
    {
      "midi": 66,
      "hit": false,
      "t": 194213.2196458293,
      "d": 123.92232291665277,
      "v": 127
    },
    {
      "midi": 69,
      "hit": false,
      "t": 194213.2196458293,
      "d": 123.92232291665277,
      "v": 127
    },
    {
      "midi": 35,
      "hit": false,
      "t": 194471.84014582928,
      "d": 123.92232291665277,
      "v": 103
    },
    {
      "midi": 47,
      "hit": false,
      "t": 194601.15039582926,
      "d": 123.92232291665277,
      "v": 101
    },
    {
      "midi": 59,
      "hit": false,
      "t": 194730.46064582924,
      "d": 123.92232291665277,
      "v": 109
    },
    {
      "midi": 63,
      "hit": false,
      "t": 194730.46064582924,
      "d": 123.92232291665277,
      "v": 127
    },
    {
      "midi": 66,
      "hit": false,
      "t": 194730.46064582924,
      "d": 123.92232291665277,
      "v": 127
    },
    {
      "midi": 35,
      "hit": false,
      "t": 194859.77089582922,
      "d": 123.92232291665277,
      "v": 127
    },
    {
      "midi": 47,
      "hit": false,
      "t": 194989.0811458292,
      "d": 123.92232291665277,
      "v": 127
    },
    {
      "midi": 59,
      "hit": false,
      "t": 194989.0811458292,
      "d": 123.92232291665277,
      "v": 123
    },
    {
      "midi": 63,
      "hit": false,
      "t": 194989.0811458292,
      "d": 123.92232291665277,
      "v": 127
    },
    {
      "midi": 66,
      "hit": false,
      "t": 194989.0811458292,
      "d": 123.92232291665277,
      "v": 127
    },
    {
      "midi": 59,
      "hit": false,
      "t": 195118.39139582918,
      "d": 123.92232291665277,
      "v": 119
    },
    {
      "midi": 63,
      "hit": false,
      "t": 195118.39139582918,
      "d": 123.92232291665277,
      "v": 127
    },
    {
      "midi": 66,
      "hit": false,
      "t": 195118.39139582918,
      "d": 123.92232291665277,
      "v": 127
    },
    {
      "midi": 59,
      "hit": false,
      "t": 195506.32214582915,
      "d": 123.92232291668188,
      "v": 105
    },
    {
      "midi": 63,
      "hit": false,
      "t": 195506.32214582915,
      "d": 123.92232291668188,
      "v": 127
    },
    {
      "midi": 68,
      "hit": false,
      "t": 195506.32214582915,
      "d": 123.92232291668188,
      "v": 127
    },
    {
      "midi": 44,
      "hit": false,
      "t": 195764.94264582917,
      "d": 123.92232291665277,
      "v": 127
    },
    {
      "midi": 59,
      "hit": false,
      "t": 195764.94264582917,
      "d": 123.92232291665277,
      "v": 103
    },
    {
      "midi": 63,
      "hit": false,
      "t": 195764.94264582917,
      "d": 123.92232291665277,
      "v": 127
    },
    {
      "midi": 68,
      "hit": false,
      "t": 195764.94264582917,
      "d": 123.92232291665277,
      "v": 127
    },
    {
      "midi": 56,
      "hit": false,
      "t": 196023.56314582916,
      "d": 123.92232291665277,
      "v": 127
    },
    {
      "midi": 59,
      "hit": false,
      "t": 196023.56314582916,
      "d": 123.92232291665277,
      "v": 127
    },
    {
      "midi": 63,
      "hit": false,
      "t": 196023.56314582916,
      "d": 123.92232291665277,
      "v": 127
    },
    {
      "midi": 68,
      "hit": false,
      "t": 196023.56314582916,
      "d": 123.92232291665277,
      "v": 127
    },
    {
      "midi": 59,
      "hit": false,
      "t": 196152.87339582914,
      "d": 123.92232291665277,
      "v": 127
    },
    {
      "midi": 63,
      "hit": false,
      "t": 196152.87339582914,
      "d": 123.92232291665277,
      "v": 127
    },
    {
      "midi": 66,
      "hit": false,
      "t": 196152.87339582914,
      "d": 123.92232291665277,
      "v": 127
    },
    {
      "midi": 44,
      "hit": false,
      "t": 196282.18364582912,
      "d": 123.92232291665277,
      "v": 127
    },
    {
      "midi": 37,
      "hit": false,
      "t": 196540.8041458291,
      "d": 123.92232291665277,
      "v": 127
    },
    {
      "midi": 49,
      "hit": false,
      "t": 196670.1143958291,
      "d": 123.92232291665277,
      "v": 107
    },
    {
      "midi": 64,
      "hit": false,
      "t": 196928.73489582908,
      "d": 26.939635416667443,
      "v": 127
    },
    {
      "midi": 68,
      "hit": false,
      "t": 196928.73489582908,
      "d": 32.32756249999511,
      "v": 127
    },
    {
      "midi": 61,
      "hit": false,
      "t": 196928.73489582908,
      "d": 43.103416666650446,
      "v": 127
    },
    {
      "midi": 37,
      "hit": false,
      "t": 196928.73489582908,
      "d": 123.92232291665277,
      "v": 109
    },
    {
      "midi": 49,
      "hit": false,
      "t": 197058.04514582906,
      "d": 123.92232291665277,
      "v": 127
    },
    {
      "midi": 61,
      "hit": false,
      "t": 197316.66564582905,
      "d": 123.92232291665277,
      "v": 127
    },
    {
      "midi": 64,
      "hit": false,
      "t": 197316.66564582905,
      "d": 123.92232291665277,
      "v": 127
    },
    {
      "midi": 68,
      "hit": false,
      "t": 197316.66564582905,
      "d": 123.92232291665277,
      "v": 127
    },
    {
      "midi": 61,
      "hit": false,
      "t": 197575.28614582904,
      "d": 123.92232291665277,
      "v": 127
    },
    {
      "midi": 66,
      "hit": false,
      "t": 197575.28614582904,
      "d": 123.92232291665277,
      "v": 127
    },
    {
      "midi": 69,
      "hit": false,
      "t": 197575.28614582904,
      "d": 123.92232291665277,
      "v": 127
    },
    {
      "midi": 42,
      "hit": false,
      "t": 197833.90664582903,
      "d": 123.92232291665277,
      "v": 127
    },
    {
      "midi": 61,
      "hit": false,
      "t": 197963.216895829,
      "d": 123.92232291665277,
      "v": 127
    },
    {
      "midi": 66,
      "hit": false,
      "t": 197963.216895829,
      "d": 123.92232291665277,
      "v": 127
    },
    {
      "midi": 69,
      "hit": false,
      "t": 197963.216895829,
      "d": 123.92232291665277,
      "v": 127
    },
    {
      "midi": 54,
      "hit": false,
      "t": 198092.527145829,
      "d": 123.92232291665277,
      "v": 127
    },
    {
      "midi": 42,
      "hit": false,
      "t": 198351.14764582898,
      "d": 123.92232291665277,
      "v": 127
    },
    {
      "midi": 61,
      "hit": false,
      "t": 198351.14764582898,
      "d": 123.92232291665277,
      "v": 127
    },
    {
      "midi": 66,
      "hit": false,
      "t": 198351.14764582898,
      "d": 123.92232291665277,
      "v": 127
    },
    {
      "midi": 69,
      "hit": false,
      "t": 198351.14764582898,
      "d": 123.92232291665277,
      "v": 127
    },
    {
      "midi": 35,
      "hit": false,
      "t": 198609.76814582897,
      "d": 123.92232291668188,
      "v": 127
    },
    {
      "midi": 47,
      "hit": false,
      "t": 198739.07839582898,
      "d": 123.92232291665277,
      "v": 127
    },
    {
      "midi": 59,
      "hit": false,
      "t": 198868.38864582896,
      "d": 123.92232291665277,
      "v": 115
    },
    {
      "midi": 63,
      "hit": false,
      "t": 198868.38864582896,
      "d": 123.92232291665277,
      "v": 127
    },
    {
      "midi": 66,
      "hit": false,
      "t": 198868.38864582896,
      "d": 123.92232291665277,
      "v": 127
    },
    {
      "midi": 35,
      "hit": false,
      "t": 198997.69889582894,
      "d": 123.92232291665277,
      "v": 127
    },
    {
      "midi": 47,
      "hit": false,
      "t": 199127.00914582892,
      "d": 123.92232291665277,
      "v": 127
    },
    {
      "midi": 59,
      "hit": false,
      "t": 199127.00914582892,
      "d": 123.92232291665277,
      "v": 112
    },
    {
      "midi": 63,
      "hit": false,
      "t": 199127.00914582892,
      "d": 123.92232291665277,
      "v": 127
    },
    {
      "midi": 66,
      "hit": false,
      "t": 199127.00914582892,
      "d": 123.92232291665277,
      "v": 127
    },
    {
      "midi": 59,
      "hit": false,
      "t": 199256.3193958289,
      "d": 123.92232291665277,
      "v": 127
    },
    {
      "midi": 63,
      "hit": false,
      "t": 199256.3193958289,
      "d": 123.92232291665277,
      "v": 127
    },
    {
      "midi": 66,
      "hit": false,
      "t": 199256.3193958289,
      "d": 123.92232291665277,
      "v": 127
    },
    {
      "midi": 61,
      "hit": false,
      "t": 199644.2501458289,
      "d": 123.92232291665277,
      "v": 127
    },
    {
      "midi": 64,
      "hit": false,
      "t": 199644.2501458289,
      "d": 123.92232291665277,
      "v": 127
    },
    {
      "midi": 68,
      "hit": false,
      "t": 199644.2501458289,
      "d": 123.92232291665277,
      "v": 127
    },
    {
      "midi": 37,
      "hit": false,
      "t": 199902.8706458289,
      "d": 253.23257291666232,
      "v": 127
    },
    {
      "midi": 61,
      "hit": false,
      "t": 200032.1808958289,
      "d": 123.92232291665277,
      "v": 127
    },
    {
      "midi": 64,
      "hit": false,
      "t": 200032.1808958289,
      "d": 123.92232291665277,
      "v": 127
    },
    {
      "midi": 68,
      "hit": false,
      "t": 200032.1808958289,
      "d": 123.92232291665277,
      "v": 127
    },
    {
      "midi": 49,
      "hit": false,
      "t": 200161.49114582888,
      "d": 123.92232291665277,
      "v": 127
    },
    {
      "midi": 37,
      "hit": false,
      "t": 200420.11164582887,
      "d": 123.92232291665277,
      "v": 127
    },
    {
      "midi": 61,
      "hit": false,
      "t": 200420.11164582887,
      "d": 123.92232291665277,
      "v": 127
    },
    {
      "midi": 64,
      "hit": false,
      "t": 200420.11164582887,
      "d": 123.92232291665277,
      "v": 127
    },
    {
      "midi": 68,
      "hit": false,
      "t": 200420.11164582887,
      "d": 123.92232291665277,
      "v": 127
    },
    {
      "midi": 37,
      "hit": false,
      "t": 200678.73214582886,
      "d": 123.92232291665277,
      "v": 127
    },
    {
      "midi": 49,
      "hit": false,
      "t": 200808.04239582884,
      "d": 123.92232291665277,
      "v": 109
    },
    {
      "midi": 37,
      "hit": false,
      "t": 201066.66289582883,
      "d": 123.92232291665277,
      "v": 127
    },
    {
      "midi": 61,
      "hit": false,
      "t": 201066.66289582883,
      "d": 123.92232291665277,
      "v": 127
    },
    {
      "midi": 64,
      "hit": false,
      "t": 201066.66289582883,
      "d": 123.92232291665277,
      "v": 127
    },
    {
      "midi": 68,
      "hit": false,
      "t": 201066.66289582883,
      "d": 123.92232291665277,
      "v": 127
    },
    {
      "midi": 49,
      "hit": false,
      "t": 201195.97314582882,
      "d": 123.92232291665277,
      "v": 127
    },
    {
      "midi": 61,
      "hit": false,
      "t": 201454.5936458288,
      "d": 123.92232291665277,
      "v": 127
    },
    {
      "midi": 64,
      "hit": false,
      "t": 201454.5936458288,
      "d": 123.92232291665277,
      "v": 127
    },
    {
      "midi": 68,
      "hit": false,
      "t": 201454.5936458288,
      "d": 123.92232291665277,
      "v": 127
    },
    {
      "midi": 61,
      "hit": false,
      "t": 201713.2141458288,
      "d": 123.92232291665277,
      "v": 127
    },
    {
      "midi": 66,
      "hit": false,
      "t": 201713.2141458288,
      "d": 123.92232291665277,
      "v": 127
    },
    {
      "midi": 69,
      "hit": false,
      "t": 201713.2141458288,
      "d": 123.92232291665277,
      "v": 127
    },
    {
      "midi": 42,
      "hit": false,
      "t": 201971.83464582879,
      "d": 123.92232291665277,
      "v": 127
    },
    {
      "midi": 61,
      "hit": false,
      "t": 202101.14489582877,
      "d": 123.92232291665277,
      "v": 127
    },
    {
      "midi": 66,
      "hit": false,
      "t": 202101.14489582877,
      "d": 123.92232291665277,
      "v": 127
    },
    {
      "midi": 69,
      "hit": false,
      "t": 202101.14489582877,
      "d": 123.92232291665277,
      "v": 127
    },
    {
      "midi": 54,
      "hit": false,
      "t": 202230.45514582875,
      "d": 123.92232291665277,
      "v": 127
    },
    {
      "midi": 42,
      "hit": false,
      "t": 202489.07564582874,
      "d": 123.92232291665277,
      "v": 127
    },
    {
      "midi": 61,
      "hit": false,
      "t": 202489.07564582874,
      "d": 123.92232291665277,
      "v": 127
    },
    {
      "midi": 66,
      "hit": false,
      "t": 202489.07564582874,
      "d": 123.92232291665277,
      "v": 127
    },
    {
      "midi": 69,
      "hit": false,
      "t": 202489.07564582874,
      "d": 123.92232291665277,
      "v": 127
    },
    {
      "midi": 35,
      "hit": false,
      "t": 202747.69614582873,
      "d": 123.92232291665277,
      "v": 103
    },
    {
      "midi": 47,
      "hit": false,
      "t": 202877.0063958287,
      "d": 123.92232291665277,
      "v": 101
    },
    {
      "midi": 59,
      "hit": false,
      "t": 203006.3166458287,
      "d": 123.92232291665277,
      "v": 109
    },
    {
      "midi": 63,
      "hit": false,
      "t": 203006.3166458287,
      "d": 123.92232291665277,
      "v": 127
    },
    {
      "midi": 66,
      "hit": false,
      "t": 203006.3166458287,
      "d": 123.92232291665277,
      "v": 127
    },
    {
      "midi": 35,
      "hit": false,
      "t": 203135.62689582867,
      "d": 123.92232291665277,
      "v": 127
    },
    {
      "midi": 47,
      "hit": false,
      "t": 203264.93714582865,
      "d": 123.92232291665277,
      "v": 127
    },
    {
      "midi": 59,
      "hit": false,
      "t": 203264.93714582865,
      "d": 123.92232291665277,
      "v": 123
    },
    {
      "midi": 63,
      "hit": false,
      "t": 203264.93714582865,
      "d": 123.92232291665277,
      "v": 127
    },
    {
      "midi": 66,
      "hit": false,
      "t": 203264.93714582865,
      "d": 123.92232291665277,
      "v": 127
    },
    {
      "midi": 59,
      "hit": false,
      "t": 203394.24739582863,
      "d": 123.92232291665277,
      "v": 119
    },
    {
      "midi": 63,
      "hit": false,
      "t": 203394.24739582863,
      "d": 123.92232291665277,
      "v": 127
    },
    {
      "midi": 66,
      "hit": false,
      "t": 203394.24739582863,
      "d": 123.92232291665277,
      "v": 127
    },
    {
      "midi": 59,
      "hit": false,
      "t": 203782.1781458286,
      "d": 123.92232291665277,
      "v": 105
    },
    {
      "midi": 63,
      "hit": false,
      "t": 203782.1781458286,
      "d": 123.92232291665277,
      "v": 127
    },
    {
      "midi": 68,
      "hit": false,
      "t": 203782.1781458286,
      "d": 123.92232291665277,
      "v": 127
    },
    {
      "midi": 44,
      "hit": false,
      "t": 204040.7986458286,
      "d": 123.92232291665277,
      "v": 127
    },
    {
      "midi": 59,
      "hit": false,
      "t": 204040.7986458286,
      "d": 123.92232291665277,
      "v": 103
    },
    {
      "midi": 63,
      "hit": false,
      "t": 204040.7986458286,
      "d": 123.92232291665277,
      "v": 127
    },
    {
      "midi": 68,
      "hit": false,
      "t": 204040.7986458286,
      "d": 123.92232291665277,
      "v": 127
    },
    {
      "midi": 56,
      "hit": false,
      "t": 204299.41914582858,
      "d": 123.92232291665277,
      "v": 127
    },
    {
      "midi": 59,
      "hit": false,
      "t": 204299.41914582858,
      "d": 123.92232291665277,
      "v": 127
    },
    {
      "midi": 63,
      "hit": false,
      "t": 204299.41914582858,
      "d": 123.92232291665277,
      "v": 127
    },
    {
      "midi": 68,
      "hit": false,
      "t": 204299.41914582858,
      "d": 123.92232291665277,
      "v": 127
    },
    {
      "midi": 59,
      "hit": false,
      "t": 204428.72939582856,
      "d": 123.92232291665277,
      "v": 127
    },
    {
      "midi": 63,
      "hit": false,
      "t": 204428.72939582856,
      "d": 123.92232291665277,
      "v": 127
    },
    {
      "midi": 66,
      "hit": false,
      "t": 204428.72939582856,
      "d": 123.92232291665277,
      "v": 127
    },
    {
      "midi": 44,
      "hit": false,
      "t": 204558.03964582854,
      "d": 123.92232291665277,
      "v": 127
    },
    {
      "midi": 64,
      "hit": false,
      "t": 205204.59089582853,
      "d": 26.939635416667443,
      "v": 127
    },
    {
      "midi": 68,
      "hit": false,
      "t": 205204.59089582853,
      "d": 32.32756249999511,
      "v": 127
    },
    {
      "midi": 61,
      "hit": false,
      "t": 205204.59089582853,
      "d": 43.103416666650446,
      "v": 127
    },
    {
      "midi": 61,
      "hit": false,
      "t": 205592.5216458285,
      "d": 123.92232291665277,
      "v": 127
    },
    {
      "midi": 64,
      "hit": false,
      "t": 205592.5216458285,
      "d": 123.92232291665277,
      "v": 127
    },
    {
      "midi": 68,
      "hit": false,
      "t": 205592.5216458285,
      "d": 123.92232291665277,
      "v": 127
    },
    {
      "midi": 61,
      "hit": false,
      "t": 205851.1421458285,
      "d": 123.92232291665277,
      "v": 127
    },
    {
      "midi": 66,
      "hit": false,
      "t": 205851.1421458285,
      "d": 123.92232291665277,
      "v": 127
    },
    {
      "midi": 69,
      "hit": false,
      "t": 205851.1421458285,
      "d": 123.92232291665277,
      "v": 127
    },
    {
      "midi": 61,
      "hit": false,
      "t": 206239.0728958285,
      "d": 123.92232291665277,
      "v": 127
    },
    {
      "midi": 66,
      "hit": false,
      "t": 206239.0728958285,
      "d": 123.92232291665277,
      "v": 127
    },
    {
      "midi": 69,
      "hit": false,
      "t": 206239.0728958285,
      "d": 123.92232291665277,
      "v": 127
    },
    {
      "midi": 61,
      "hit": false,
      "t": 206627.0036458285,
      "d": 123.92232291665277,
      "v": 127
    },
    {
      "midi": 66,
      "hit": false,
      "t": 206627.0036458285,
      "d": 123.92232291665277,
      "v": 127
    },
    {
      "midi": 69,
      "hit": false,
      "t": 206627.0036458285,
      "d": 123.92232291665277,
      "v": 127
    },
    {
      "midi": 59,
      "hit": false,
      "t": 207144.24464582847,
      "d": 123.92232291665277,
      "v": 127
    },
    {
      "midi": 63,
      "hit": false,
      "t": 207144.24464582847,
      "d": 123.92232291665277,
      "v": 127
    },
    {
      "midi": 66,
      "hit": false,
      "t": 207144.24464582847,
      "d": 123.92232291665277,
      "v": 127
    },
    {
      "midi": 59,
      "hit": false,
      "t": 207402.86514582846,
      "d": 123.92232291665277,
      "v": 127
    },
    {
      "midi": 63,
      "hit": false,
      "t": 207402.86514582846,
      "d": 123.92232291665277,
      "v": 127
    },
    {
      "midi": 66,
      "hit": false,
      "t": 207402.86514582846,
      "d": 123.92232291665277,
      "v": 127
    },
    {
      "midi": 59,
      "hit": false,
      "t": 207532.17539582844,
      "d": 123.92232291665277,
      "v": 127
    },
    {
      "midi": 63,
      "hit": false,
      "t": 207532.17539582844,
      "d": 123.92232291665277,
      "v": 127
    },
    {
      "midi": 66,
      "hit": false,
      "t": 207532.17539582844,
      "d": 123.92232291665277,
      "v": 127
    },
    {
      "midi": 61,
      "hit": false,
      "t": 207920.10614582844,
      "d": 123.92232291665277,
      "v": 127
    },
    {
      "midi": 64,
      "hit": false,
      "t": 207920.10614582844,
      "d": 123.92232291665277,
      "v": 127
    },
    {
      "midi": 68,
      "hit": false,
      "t": 207920.10614582844,
      "d": 123.92232291665277,
      "v": 127
    },
    {
      "midi": 61,
      "hit": false,
      "t": 208308.03689582844,
      "d": 123.92232291665277,
      "v": 127
    },
    {
      "midi": 64,
      "hit": false,
      "t": 208308.03689582844,
      "d": 123.92232291665277,
      "v": 127
    },
    {
      "midi": 68,
      "hit": false,
      "t": 208308.03689582844,
      "d": 123.92232291665277,
      "v": 127
    },
    {
      "midi": 61,
      "hit": false,
      "t": 208695.96764582844,
      "d": 123.92232291665277,
      "v": 127
    },
    {
      "midi": 64,
      "hit": false,
      "t": 208695.96764582844,
      "d": 123.92232291665277,
      "v": 127
    },
    {
      "midi": 68,
      "hit": false,
      "t": 208695.96764582844,
      "d": 123.92232291665277,
      "v": 127
    },
    {
      "midi": 61,
      "hit": false,
      "t": 209342.51889582843,
      "d": 123.92232291665277,
      "v": 127
    },
    {
      "midi": 64,
      "hit": false,
      "t": 209342.51889582843,
      "d": 123.92232291665277,
      "v": 127
    },
    {
      "midi": 68,
      "hit": false,
      "t": 209342.51889582843,
      "d": 123.92232291665277,
      "v": 127
    },
    {
      "midi": 61,
      "hit": false,
      "t": 209730.44964582843,
      "d": 123.92232291665277,
      "v": 127
    },
    {
      "midi": 64,
      "hit": false,
      "t": 209730.44964582843,
      "d": 123.92232291665277,
      "v": 127
    },
    {
      "midi": 65,
      "hit": false,
      "t": 209730.44964582843,
      "d": 123.92232291665277,
      "v": 127
    },
    {
      "midi": 68,
      "hit": false,
      "t": 209730.44964582843,
      "d": 123.92232291665277,
      "v": 127
    },
    {
      "midi": 61,
      "hit": false,
      "t": 209989.07014582842,
      "d": 123.92232291665277,
      "v": 127
    },
    {
      "midi": 66,
      "hit": false,
      "t": 209989.07014582842,
      "d": 123.92232291665277,
      "v": 127
    },
    {
      "midi": 69,
      "hit": false,
      "t": 209989.07014582842,
      "d": 123.92232291665277,
      "v": 127
    },
    {
      "midi": 61,
      "hit": false,
      "t": 210377.00089582842,
      "d": 123.92232291665277,
      "v": 127
    },
    {
      "midi": 66,
      "hit": false,
      "t": 210377.00089582842,
      "d": 123.92232291665277,
      "v": 127
    },
    {
      "midi": 69,
      "hit": false,
      "t": 210377.00089582842,
      "d": 123.92232291665277,
      "v": 127
    },
    {
      "midi": 61,
      "hit": false,
      "t": 210764.93164582842,
      "d": 123.92232291665277,
      "v": 127
    },
    {
      "midi": 66,
      "hit": false,
      "t": 210764.93164582842,
      "d": 123.92232291665277,
      "v": 127
    },
    {
      "midi": 69,
      "hit": false,
      "t": 210764.93164582842,
      "d": 123.92232291665277,
      "v": 127
    },
    {
      "midi": 59,
      "hit": false,
      "t": 211282.1726458284,
      "d": 123.92232291665277,
      "v": 127
    },
    {
      "midi": 63,
      "hit": false,
      "t": 211282.1726458284,
      "d": 123.92232291665277,
      "v": 127
    },
    {
      "midi": 66,
      "hit": false,
      "t": 211282.1726458284,
      "d": 123.92232291665277,
      "v": 127
    },
    {
      "midi": 59,
      "hit": false,
      "t": 211540.7931458284,
      "d": 123.92232291665277,
      "v": 120
    },
    {
      "midi": 63,
      "hit": false,
      "t": 211540.7931458284,
      "d": 123.92232291665277,
      "v": 127
    },
    {
      "midi": 66,
      "hit": false,
      "t": 211540.7931458284,
      "d": 123.92232291665277,
      "v": 127
    },
    {
      "midi": 59,
      "hit": false,
      "t": 211670.10339582837,
      "d": 123.92232291668188,
      "v": 126
    },
    {
      "midi": 63,
      "hit": false,
      "t": 211670.10339582837,
      "d": 123.92232291668188,
      "v": 127
    },
    {
      "midi": 66,
      "hit": false,
      "t": 211670.10339582837,
      "d": 123.92232291668188,
      "v": 127
    },
    {
      "midi": 59,
      "hit": false,
      "t": 211799.41364582838,
      "d": 123.92232291665277,
      "v": 100
    },
    {
      "midi": 59,
      "hit": false,
      "t": 211928.72389582836,
      "d": 123.92232291665277,
      "v": 127
    },
    {
      "midi": 63,
      "hit": false,
      "t": 211928.72389582836,
      "d": 123.92232291665277,
      "v": 127
    },
    {
      "midi": 68,
      "hit": false,
      "t": 211928.72389582836,
      "d": 123.92232291665277,
      "v": 127
    },
    {
      "midi": 59,
      "hit": false,
      "t": 212187.34439582835,
      "d": 123.92232291665277,
      "v": 127
    },
    {
      "midi": 63,
      "hit": false,
      "t": 212187.34439582835,
      "d": 123.92232291665277,
      "v": 127
    },
    {
      "midi": 68,
      "hit": false,
      "t": 212187.34439582835,
      "d": 123.92232291665277,
      "v": 127
    },
    {
      "midi": 59,
      "hit": false,
      "t": 212445.96489582834,
      "d": 123.92232291665277,
      "v": 127
    },
    {
      "midi": 63,
      "hit": false,
      "t": 212445.96489582834,
      "d": 123.92232291665277,
      "v": 127
    },
    {
      "midi": 68,
      "hit": false,
      "t": 212445.96489582834,
      "d": 123.92232291665277,
      "v": 127
    },
    {
      "midi": 59,
      "hit": false,
      "t": 212704.58539582833,
      "d": 123.92232291665277,
      "v": 127
    },
    {
      "midi": 63,
      "hit": false,
      "t": 212704.58539582833,
      "d": 123.92232291665277,
      "v": 127
    },
    {
      "midi": 68,
      "hit": false,
      "t": 212704.58539582833,
      "d": 123.92232291665277,
      "v": 127
    },
    {
      "midi": 59,
      "hit": false,
      "t": 212833.8956458283,
      "d": 123.92232291665277,
      "v": 127
    },
    {
      "midi": 63,
      "hit": false,
      "t": 212833.8956458283,
      "d": 123.92232291665277,
      "v": 127
    },
    {
      "midi": 68,
      "hit": false,
      "t": 212833.8956458283,
      "d": 123.92232291665277,
      "v": 127
    },
    {
      "midi": 59,
      "hit": false,
      "t": 212963.2058958283,
      "d": 123.92232291665277,
      "v": 124
    },
    {
      "midi": 63,
      "hit": false,
      "t": 212963.2058958283,
      "d": 123.92232291665277,
      "v": 127
    },
    {
      "midi": 66,
      "hit": false,
      "t": 212963.2058958283,
      "d": 123.92232291665277,
      "v": 127
    },
    {
      "midi": 64,
      "hit": false,
      "t": 213480.44689582827,
      "d": 26.939635416667443,
      "v": 127
    },
    {
      "midi": 68,
      "hit": false,
      "t": 213480.44689582827,
      "d": 32.32756249999511,
      "v": 127
    },
    {
      "midi": 61,
      "hit": false,
      "t": 213480.44689582827,
      "d": 43.103416666650446,
      "v": 127
    },
    {
      "midi": 61,
      "hit": false,
      "t": 213868.37764582824,
      "d": 123.92232291665277,
      "v": 127
    },
    {
      "midi": 64,
      "hit": false,
      "t": 213868.37764582824,
      "d": 123.92232291665277,
      "v": 127
    },
    {
      "midi": 68,
      "hit": false,
      "t": 213868.37764582824,
      "d": 123.92232291665277,
      "v": 127
    },
    {
      "midi": 61,
      "hit": false,
      "t": 214126.99814582823,
      "d": 123.92232291668188,
      "v": 127
    },
    {
      "midi": 66,
      "hit": false,
      "t": 214126.99814582823,
      "d": 123.92232291668188,
      "v": 127
    },
    {
      "midi": 69,
      "hit": false,
      "t": 214126.99814582823,
      "d": 123.92232291668188,
      "v": 127
    },
    {
      "midi": 61,
      "hit": false,
      "t": 214514.92889582826,
      "d": 123.92232291668188,
      "v": 127
    },
    {
      "midi": 66,
      "hit": false,
      "t": 214514.92889582826,
      "d": 123.92232291668188,
      "v": 127
    },
    {
      "midi": 69,
      "hit": false,
      "t": 214514.92889582826,
      "d": 123.92232291668188,
      "v": 127
    },
    {
      "midi": 61,
      "hit": false,
      "t": 214902.85964582826,
      "d": 123.92232291668188,
      "v": 127
    },
    {
      "midi": 66,
      "hit": false,
      "t": 214902.85964582826,
      "d": 123.92232291668188,
      "v": 127
    },
    {
      "midi": 69,
      "hit": false,
      "t": 214902.85964582826,
      "d": 123.92232291668188,
      "v": 127
    },
    {
      "midi": 59,
      "hit": false,
      "t": 215420.10064582826,
      "d": 123.92232291665277,
      "v": 127
    },
    {
      "midi": 63,
      "hit": false,
      "t": 215420.10064582826,
      "d": 123.92232291665277,
      "v": 127
    },
    {
      "midi": 66,
      "hit": false,
      "t": 215420.10064582826,
      "d": 123.92232291665277,
      "v": 127
    },
    {
      "midi": 59,
      "hit": false,
      "t": 215678.72114582825,
      "d": 123.92232291665277,
      "v": 127
    },
    {
      "midi": 63,
      "hit": false,
      "t": 215678.72114582825,
      "d": 123.92232291665277,
      "v": 127
    },
    {
      "midi": 66,
      "hit": false,
      "t": 215678.72114582825,
      "d": 123.92232291665277,
      "v": 127
    },
    {
      "midi": 59,
      "hit": false,
      "t": 215808.03139582823,
      "d": 123.92232291665277,
      "v": 127
    },
    {
      "midi": 63,
      "hit": false,
      "t": 215808.03139582823,
      "d": 123.92232291665277,
      "v": 127
    },
    {
      "midi": 66,
      "hit": false,
      "t": 215808.03139582823,
      "d": 123.92232291665277,
      "v": 127
    },
    {
      "midi": 61,
      "hit": false,
      "t": 216195.96214582823,
      "d": 123.92232291665277,
      "v": 127
    },
    {
      "midi": 64,
      "hit": false,
      "t": 216195.96214582823,
      "d": 123.92232291665277,
      "v": 127
    },
    {
      "midi": 68,
      "hit": false,
      "t": 216195.96214582823,
      "d": 123.92232291665277,
      "v": 127
    },
    {
      "midi": 61,
      "hit": false,
      "t": 216583.89289582823,
      "d": 123.92232291665277,
      "v": 127
    },
    {
      "midi": 64,
      "hit": false,
      "t": 216583.89289582823,
      "d": 123.92232291665277,
      "v": 127
    },
    {
      "midi": 68,
      "hit": false,
      "t": 216583.89289582823,
      "d": 123.92232291665277,
      "v": 127
    },
    {
      "midi": 61,
      "hit": false,
      "t": 216971.8236458282,
      "d": 123.92232291665277,
      "v": 127
    },
    {
      "midi": 64,
      "hit": false,
      "t": 216971.8236458282,
      "d": 123.92232291665277,
      "v": 127
    },
    {
      "midi": 68,
      "hit": false,
      "t": 216971.8236458282,
      "d": 123.92232291665277,
      "v": 127
    },
    {
      "midi": 61,
      "hit": false,
      "t": 217618.37489582816,
      "d": 123.92232291665277,
      "v": 127
    },
    {
      "midi": 64,
      "hit": false,
      "t": 217618.37489582816,
      "d": 123.92232291665277,
      "v": 127
    },
    {
      "midi": 68,
      "hit": false,
      "t": 217618.37489582816,
      "d": 123.92232291665277,
      "v": 127
    },
    {
      "midi": 61,
      "hit": false,
      "t": 218006.30564582816,
      "d": 123.92232291665277,
      "v": 127
    },
    {
      "midi": 64,
      "hit": false,
      "t": 218006.30564582816,
      "d": 123.92232291665277,
      "v": 127
    },
    {
      "midi": 68,
      "hit": false,
      "t": 218006.30564582816,
      "d": 123.92232291665277,
      "v": 127
    },
    {
      "midi": 61,
      "hit": false,
      "t": 218264.92614582815,
      "d": 123.92232291665277,
      "v": 127
    },
    {
      "midi": 66,
      "hit": false,
      "t": 218264.92614582815,
      "d": 123.92232291665277,
      "v": 127
    },
    {
      "midi": 69,
      "hit": false,
      "t": 218264.92614582815,
      "d": 123.92232291665277,
      "v": 127
    },
    {
      "midi": 61,
      "hit": false,
      "t": 218652.85689582815,
      "d": 123.92232291668188,
      "v": 127
    },
    {
      "midi": 66,
      "hit": false,
      "t": 218652.85689582815,
      "d": 123.92232291668188,
      "v": 127
    },
    {
      "midi": 69,
      "hit": false,
      "t": 218652.85689582815,
      "d": 123.92232291668188,
      "v": 127
    },
    {
      "midi": 61,
      "hit": false,
      "t": 219040.78764582818,
      "d": 123.92232291665277,
      "v": 127
    },
    {
      "midi": 66,
      "hit": false,
      "t": 219040.78764582818,
      "d": 123.92232291665277,
      "v": 127
    },
    {
      "midi": 69,
      "hit": false,
      "t": 219040.78764582818,
      "d": 123.92232291665277,
      "v": 127
    },
    {
      "midi": 59,
      "hit": false,
      "t": 219558.02864582816,
      "d": 123.92232291668188,
      "v": 127
    },
    {
      "midi": 63,
      "hit": false,
      "t": 219558.02864582816,
      "d": 123.92232291668188,
      "v": 127
    },
    {
      "midi": 66,
      "hit": false,
      "t": 219558.02864582816,
      "d": 123.92232291668188,
      "v": 127
    },
    {
      "midi": 59,
      "hit": false,
      "t": 219816.64914582818,
      "d": 123.92232291665277,
      "v": 120
    },
    {
      "midi": 63,
      "hit": false,
      "t": 219816.64914582818,
      "d": 123.92232291665277,
      "v": 127
    },
    {
      "midi": 66,
      "hit": false,
      "t": 219816.64914582818,
      "d": 123.92232291665277,
      "v": 127
    },
    {
      "midi": 59,
      "hit": false,
      "t": 219945.95939582816,
      "d": 123.92232291665277,
      "v": 126
    },
    {
      "midi": 63,
      "hit": false,
      "t": 219945.95939582816,
      "d": 123.92232291665277,
      "v": 127
    },
    {
      "midi": 66,
      "hit": false,
      "t": 219945.95939582816,
      "d": 123.92232291665277,
      "v": 127
    },
    {
      "midi": 59,
      "hit": false,
      "t": 220075.26964582814,
      "d": 123.92232291665277,
      "v": 100
    },
    {
      "midi": 59,
      "hit": false,
      "t": 220204.57989582812,
      "d": 123.92232291665277,
      "v": 127
    },
    {
      "midi": 63,
      "hit": false,
      "t": 220204.57989582812,
      "d": 123.92232291665277,
      "v": 127
    },
    {
      "midi": 68,
      "hit": false,
      "t": 220204.57989582812,
      "d": 123.92232291665277,
      "v": 127
    },
    {
      "midi": 59,
      "hit": false,
      "t": 220463.2003958281,
      "d": 123.92232291665277,
      "v": 127
    },
    {
      "midi": 63,
      "hit": false,
      "t": 220463.2003958281,
      "d": 123.92232291665277,
      "v": 127
    },
    {
      "midi": 68,
      "hit": false,
      "t": 220463.2003958281,
      "d": 123.92232291665277,
      "v": 127
    },
    {
      "midi": 59,
      "hit": false,
      "t": 220721.8208958281,
      "d": 123.92232291665277,
      "v": 127
    },
    {
      "midi": 63,
      "hit": false,
      "t": 220721.8208958281,
      "d": 123.92232291665277,
      "v": 127
    },
    {
      "midi": 68,
      "hit": false,
      "t": 220721.8208958281,
      "d": 123.92232291665277,
      "v": 127
    },
    {
      "midi": 59,
      "hit": false,
      "t": 220980.4413958281,
      "d": 123.92232291665277,
      "v": 127
    },
    {
      "midi": 63,
      "hit": false,
      "t": 220980.4413958281,
      "d": 123.92232291665277,
      "v": 127
    },
    {
      "midi": 68,
      "hit": false,
      "t": 220980.4413958281,
      "d": 123.92232291665277,
      "v": 127
    },
    {
      "midi": 59,
      "hit": false,
      "t": 221109.75164582807,
      "d": 123.92232291665277,
      "v": 127
    },
    {
      "midi": 63,
      "hit": false,
      "t": 221109.75164582807,
      "d": 123.92232291665277,
      "v": 127
    },
    {
      "midi": 68,
      "hit": false,
      "t": 221109.75164582807,
      "d": 123.92232291665277,
      "v": 127
    },
    {
      "midi": 59,
      "hit": false,
      "t": 221239.06189582805,
      "d": 123.92232291665277,
      "v": 124
    },
    {
      "midi": 63,
      "hit": false,
      "t": 221239.06189582805,
      "d": 123.92232291665277,
      "v": 127
    },
    {
      "midi": 66,
      "hit": false,
      "t": 221239.06189582805,
      "d": 123.92232291665277,
      "v": 127
    }
  ]
}