{
  "jsonPath": "Pop/Dance Pop/Backstreet Boys/quit-playing-games-with-my-heart.json",
  "path": "Pop\\Dance Pop\\Backstreet Boys\\Quit Playing Games (With My Heart).mid",
  "name": "Quit Playing Games (With My Heart)",
  "difficulty": "Advanced",
  "bpm": 100,
  "notes": [
    {
      "midi": 64,
      "hit": false,
      "t": 4200,
      "d": 600,
      "v": 75
    },
    {
      "midi": 64,
      "hit": false,
      "t": 4200,
      "d": 600,
      "v": 65
    },
    {
      "midi": 75,
      "hit": false,
      "t": 4787.5,
      "d": 75,
      "v": 55
    },
    {
      "midi": 75,
      "hit": false,
      "t": 4787.5,
      "d": 75,
      "v": 45
    },
    {
      "midi": 76,
      "hit": false,
      "t": 4800,
      "d": 900,
      "v": 75
    },
    {
      "midi": 76,
      "hit": false,
      "t": 4800,
      "d": 900,
      "v": 65
    },
    {
      "midi": 73,
      "hit": false,
      "t": 5700,
      "d": 1200,
      "v": 75
    },
    {
      "midi": 73,
      "hit": false,
      "t": 5700,
      "d": 1200,
      "v": 65
    },
    {
      "midi": 74,
      "hit": false,
      "t": 6900,
      "d": 150,
      "v": 75
    },
    {
      "midi": 74,
      "hit": false,
      "t": 6900,
      "d": 150,
      "v": 65
    },
    {
      "midi": 73,
      "hit": false,
      "t": 7050,
      "d": 150,
      "v": 75
    },
    {
      "midi": 73,
      "hit": false,
      "t": 7050,
      "d": 150,
      "v": 65
    },
    {
      "midi": 74,
      "hit": false,
      "t": 7200,
      "d": 900,
      "v": 75
    },
    {
      "midi": 74,
      "hit": false,
      "t": 7200,
      "d": 900,
      "v": 65
    },
    {
      "midi": 69,
      "hit": false,
      "t": 8100,
      "d": 1200,
      "v": 75
    },
    {
      "midi": 69,
      "hit": false,
      "t": 8100,
      "d": 1200,
      "v": 65
    },
    {
      "midi": 74,
      "hit": false,
      "t": 9300,
      "d": 150,
      "v": 75
    },
    {
      "midi": 74,
      "hit": false,
      "t": 9300,
      "d": 150,
      "v": 65
    },
    {
      "midi": 73,
      "hit": false,
      "t": 9450,
      "d": 150,
      "v": 75
    },
    {
      "midi": 73,
      "hit": false,
      "t": 9450,
      "d": 150,
      "v": 65
    },
    {
      "midi": 74,
      "hit": false,
      "t": 9600,
      "d": 1050,
      "v": 75
    },
    {
      "midi": 74,
      "hit": false,
      "t": 9600,
      "d": 975,
      "v": 65
    },
    {
      "midi": 69,
      "hit": false,
      "t": 10500,
      "d": 600,
      "v": 75
    },
    {
      "midi": 69,
      "hit": false,
      "t": 10500,
      "d": 525,
      "v": 65
    },
    {
      "midi": 70,
      "hit": false,
      "t": 11062.5,
      "d": 75,
      "v": 55
    },
    {
      "midi": 70,
      "hit": false,
      "t": 11062.5,
      "d": 75,
      "v": 45
    },
    {
      "midi": 71,
      "hit": false,
      "t": 11100,
      "d": 600,
      "v": 75
    },
    {
      "midi": 71,
      "hit": false,
      "t": 11100,
      "d": 600,
      "v": 65
    },
    {
      "midi": 69,
      "hit": false,
      "t": 11700,
      "d": 2100,
      "v": 75
    },
    {
      "midi": 69,
      "hit": false,
      "t": 11700,
      "d": 2100,
      "v": 65
    },
    {
      "midi": 64,
      "hit": false,
      "t": 13800,
      "d": 600,
      "v": 75
    },
    {
      "midi": 64,
      "hit": false,
      "t": 13800,
      "d": 600,
      "v": 65
    },
    {
      "midi": 75,
      "hit": false,
      "t": 14387.5,
      "d": 75,
      "v": 55
    },
    {
      "midi": 75,
      "hit": false,
      "t": 14387.5,
      "d": 75,
      "v": 45
    },
    {
      "midi": 76,
      "hit": false,
      "t": 14400,
      "d": 900,
      "v": 75
    },
    {
      "midi": 76,
      "hit": false,
      "t": 14400,
      "d": 900,
      "v": 65
    },
    {
      "midi": 73,
      "hit": false,
      "t": 15300,
      "d": 1200,
      "v": 75
    },
    {
      "midi": 73,
      "hit": false,
      "t": 15300,
      "d": 1200,
      "v": 65
    },
    {
      "midi": 74,
      "hit": false,
      "t": 16500,
      "d": 150,
      "v": 75
    },
    {
      "midi": 74,
      "hit": false,
      "t": 16500,
      "d": 150,
      "v": 65
    },
    {
      "midi": 73,
      "hit": false,
      "t": 16650,
      "d": 150,
      "v": 75
    },
    {
      "midi": 73,
      "hit": false,
      "t": 16650,
      "d": 150,
      "v": 65
    },
    {
      "midi": 74,
      "hit": false,
      "t": 16800,
      "d": 900,
      "v": 75
    },
    {
      "midi": 74,
      "hit": false,
      "t": 16800,
      "d": 900,
      "v": 65
    },
    {
      "midi": 69,
      "hit": false,
      "t": 17700,
      "d": 1200,
      "v": 75
    },
    {
      "midi": 69,
      "hit": false,
      "t": 17700,
      "d": 1200,
      "v": 65
    },
    {
      "midi": 74,
      "hit": false,
      "t": 18900,
      "d": 150,
      "v": 75
    },
    {
      "midi": 74,
      "hit": false,
      "t": 18900,
      "d": 150,
      "v": 65
    },
    {
      "midi": 73,
      "hit": false,
      "t": 19050,
      "d": 150,
      "v": 75
    },
    {
      "midi": 73,
      "hit": false,
      "t": 19050,
      "d": 150,
      "v": 65
    },
    {
      "midi": 74,
      "hit": false,
      "t": 19200,
      "d": 1050,
      "v": 75
    },
    {
      "midi": 74,
      "hit": false,
      "t": 19200,
      "d": 975,
      "v": 65
    },
    {
      "midi": 69,
      "hit": false,
      "t": 20100,
      "d": 600,
      "v": 75
    },
    {
      "midi": 69,
      "hit": false,
      "t": 20100,
      "d": 525,
      "v": 65
    },
    {
      "midi": 70,
      "hit": false,
      "t": 20662.5,
      "d": 75,
      "v": 55
    },
    {
      "midi": 70,
      "hit": false,
      "t": 20662.5,
      "d": 75,
      "v": 45
    },
    {
      "midi": 71,
      "hit": false,
      "t": 20700,
      "d": 600,
      "v": 75
    },
    {
      "midi": 71,
      "hit": false,
      "t": 20700,
      "d": 600,
      "v": 65
    },
    {
      "midi": 57,
      "hit": false,
      "t": 24000,
      "d": 2400,
      "v": 80
    },
    {
      "midi": 59,
      "hit": false,
      "t": 26400,
      "d": 2400,
      "v": 80
    },
    {
      "midi": 55,
      "hit": false,
      "t": 28800,
      "d": 2400,
      "v": 80
    },
    {
      "midi": 57,
      "hit": false,
      "t": 31200,
      "d": 2400,
      "v": 80
    },
    {
      "midi": 57,
      "hit": false,
      "t": 33600,
      "d": 2400,
      "v": 80
    },
    {
      "midi": 59,
      "hit": false,
      "t": 36000,
      "d": 2400,
      "v": 80
    },
    {
      "midi": 55,
      "hit": false,
      "t": 38400,
      "d": 2400,
      "v": 80
    },
    {
      "midi": 57,
      "hit": false,
      "t": 40800,
      "d": 2400,
      "v": 80
    },
    {
      "midi": 57,
      "hit": false,
      "t": 43200,
      "d": 2400,
      "v": 80
    },
    {
      "midi": 59,
      "hit": false,
      "t": 45600,
      "d": 2400,
      "v": 80
    },
    {
      "midi": 55,
      "hit": false,
      "t": 48000,
      "d": 2400,
      "v": 80
    },
    {
      "midi": 57,
      "hit": false,
      "t": 50400,
      "d": 2400,
      "v": 80
    },
    {
      "midi": 57,
      "hit": false,
      "t": 52800,
      "d": 2400,
      "v": 80
    },
    {
      "midi": 59,
      "hit": false,
      "t": 55200,
      "d": 2400,
      "v": 80
    },
    {
      "midi": 55,
      "hit": false,
      "t": 57600,
      "d": 2400,
      "v": 80
    },
    {
      "midi": 57,
      "hit": false,
      "t": 81600,
      "d": 2400,
      "v": 80
    },
    {
      "midi": 59,
      "hit": false,
      "t": 84000,
      "d": 2400,
      "v": 80
    },
    {
      "midi": 55,
      "hit": false,
      "t": 86400,
      "d": 2400,
      "v": 80
    },
    {
      "midi": 57,
      "hit": false,
      "t": 88800,
      "d": 2400,
      "v": 80
    },
    {
      "midi": 57,
      "hit": false,
      "t": 91200,
      "d": 2400,
      "v": 80
    },
    {
      "midi": 59,
      "hit": false,
      "t": 93600,
      "d": 2400,
      "v": 80
    },
    {
      "midi": 55,
      "hit": false,
      "t": 96000,
      "d": 2400,
      "v": 80
    },
    {
      "midi": 74,
      "hit": false,
      "t": 135000,
      "d": 1800,
      "v": 95
    },
    {
      "midi": 79,
      "hit": false,
      "t": 135000,
      "d": 1800,
      "v": 95
    },
    {
      "midi": 81,
      "hit": false,
      "t": 135000,
      "d": 1800,
      "v": 95
    },
    {
      "midi": 86,
      "hit": false,
      "t": 135000,
      "d": 1800,
      "v": 95
    },
    {
      "midi": 74,
      "hit": false,
      "t": 135000,
      "d": 1800,
      "v": 45
    },
    {
      "midi": 79,
      "hit": false,
      "t": 135000,
      "d": 1800,
      "v": 45
    },
    {
      "midi": 81,
      "hit": false,
      "t": 135000,
      "d": 1800,
      "v": 45
    },
    {
      "midi": 86,
      "hit": false,
      "t": 135000,
      "d": 1800,
      "v": 45
    },
    {
      "midi": 73,
      "hit": false,
      "t": 136800,
      "d": 1200,
      "v": 95
    },
    {
      "midi": 78,
      "hit": false,
      "t": 136800,
      "d": 1200,
      "v": 95
    },
    {
      "midi": 83,
      "hit": false,
      "t": 136800,
      "d": 1200,
      "v": 95
    },
    {
      "midi": 85,
      "hit": false,
      "t": 136800,
      "d": 1200,
      "v": 95
    },
    {
      "midi": 73,
      "hit": false,
      "t": 136800,
      "d": 1200,
      "v": 45
    },
    {
      "midi": 78,
      "hit": false,
      "t": 136800,
      "d": 1200,
      "v": 45
    },
    {
      "midi": 83,
      "hit": false,
      "t": 136800,
      "d": 1200,
      "v": 45
    },
    {
      "midi": 85,
      "hit": false,
      "t": 136800,
      "d": 1200,
      "v": 45
    },
    {
      "midi": 73,
      "hit": false,
      "t": 138000,
      "d": 1200,
      "v": 95
    },
    {
      "midi": 78,
      "hit": false,
      "t": 138000,
      "d": 1200,
      "v": 95
    },
    {
      "midi": 82,
      "hit": false,
      "t": 138000,
      "d": 1200,
      "v": 95
    },
    {
      "midi": 85,
      "hit": false,
      "t": 138000,
      "d": 1200,
      "v": 95
    },
    {
      "midi": 90,
      "hit": false,
      "t": 138000,
      "d": 1200,
      "v": 95
    },
    {
      "midi": 70,
      "hit": false,
      "t": 138000,
      "d": 1200,
      "v": 45
    },
    {
      "midi": 73,
      "hit": false,
      "t": 138000,
      "d": 1200,
      "v": 45
    },
    {
      "midi": 78,
      "hit": false,
      "t": 138000,
      "d": 1200,
      "v": 45
    },
    {
      "midi": 82,
      "hit": false,
      "t": 138000,
      "d": 1200,
      "v": 45
    },
    {
      "midi": 59,
      "hit": false,
      "t": 139200,
      "d": 2400,
      "v": 80
    },
    {
      "midi": 62,
      "hit": false,
      "t": 139200,
      "d": 2400,
      "v": 80
    },
    {
      "midi": 66,
      "hit": false,
      "t": 139200,
      "d": 2400,
      "v": 80
    },
    {
      "midi": 57,
      "hit": false,
      "t": 141600,
      "d": 2400,
      "v": 80
    },
    {
      "midi": 62,
      "hit": false,
      "t": 141600,
      "d": 2400,
      "v": 80
    },
    {
      "midi": 66,
      "hit": false,
      "t": 141600,
      "d": 2400,
      "v": 80
    },
    {
      "midi": 55,
      "hit": false,
      "t": 144000,
      "d": 3600,
      "v": 80
    },
    {
      "midi": 62,
      "hit": false,
      "t": 144000,
      "d": 3600,
      "v": 80
    },
    {
      "midi": 66,
      "hit": false,
      "t": 144000,
      "d": 3600,
      "v": 80
    },
    {
      "midi": 57,
      "hit": false,
      "t": 147600,
      "d": 1200,
      "v": 80
    },
    {
      "midi": 61,
      "hit": false,
      "t": 147600,
      "d": 1200,
      "v": 80
    },
    {
      "midi": 64,
      "hit": false,
      "t": 147600,
      "d": 1200,
      "v": 80
    },
    {
      "midi": 59,
      "hit": false,
      "t": 148800,
      "d": 2400,
      "v": 80
    },
    {
      "midi": 62,
      "hit": false,
      "t": 148800,
      "d": 2400,
      "v": 80
    },
    {
      "midi": 66,
      "hit": false,
      "t": 148800,
      "d": 2400,
      "v": 80
    },
    {
      "midi": 57,
      "hit": false,
      "t": 151200,
      "d": 2400,
      "v": 80
    },
    {
      "midi": 62,
      "hit": false,
      "t": 151200,
      "d": 2400,
      "v": 80
    },
    {
      "midi": 66,
      "hit": false,
      "t": 151200,
      "d": 2400,
      "v": 80
    },
    {
      "midi": 55,
      "hit": false,
      "t": 153600,
      "d": 2400,
      "v": 80
    },
    {
      "midi": 62,
      "hit": false,
      "t": 153600,
      "d": 2400,
      "v": 80
    },
    {
      "midi": 66,
      "hit": false,
      "t": 153600,
      "d": 2400,
      "v": 80
    },
    {
      "midi": 69,
      "hit": false,
      "t": 156300,
      "d": 300,
      "v": 70
    },
    {
      "midi": 73,
      "hit": false,
      "t": 156565,
      "d": 75,
      "v": 50
    },
    {
      "midi": 74,
      "hit": false,
      "t": 156600,
      "d": 600,
      "v": 70
    },
    {
      "midi": 73,
      "hit": false,
      "t": 157200,
      "d": 300,
      "v": 70
    },
    {
      "midi": 69,
      "hit": false,
      "t": 157500,
      "d": 300,
      "v": 70
    },
    {
      "midi": 64,
      "hit": false,
      "t": 157800,
      "d": 300,
      "v": 70
    },
    {
      "midi": 69,
      "hit": false,
      "t": 158100,
      "d": 300,
      "v": 70
    },
    {
      "midi": 76,
      "hit": false,
      "t": 158400,
      "d": 900,
      "v": 75
    },
    {
      "midi": 76,
      "hit": false,
      "t": 158400,
      "d": 900,
      "v": 65
    },
    {
      "midi": 73,
      "hit": false,
      "t": 159300,
      "d": 1200,
      "v": 75
    },
    {
      "midi": 73,
      "hit": false,
      "t": 159300,
      "d": 1200,
      "v": 65
    },
    {
      "midi": 74,
      "hit": false,
      "t": 160500,
      "d": 150,
      "v": 75
    },
    {
      "midi": 74,
      "hit": false,
      "t": 160500,
      "d": 150,
      "v": 65
    },
    {
      "midi": 73,
      "hit": false,
      "t": 160650,
      "d": 150,
      "v": 75
    },
    {
      "midi": 73,
      "hit": false,
      "t": 160650,
      "d": 150,
      "v": 65
    },
    {
      "midi": 74,
      "hit": false,
      "t": 160800,
      "d": 900,
      "v": 75
    },
    {
      "midi": 74,
      "hit": false,
      "t": 160800,
      "d": 900,
      "v": 65
    },
    {
      "midi": 69,
      "hit": false,
      "t": 161700,
      "d": 1200,
      "v": 75
    },
    {
      "midi": 69,
      "hit": false,
      "t": 161700,
      "d": 1200,
      "v": 65
    },
    {
      "midi": 74,
      "hit": false,
      "t": 162900,
      "d": 150,
      "v": 75
    },
    {
      "midi": 74,
      "hit": false,
      "t": 162900,
      "d": 150,
      "v": 65
    },
    {
      "midi": 73,
      "hit": false,
      "t": 163050,
      "d": 150,
      "v": 75
    },
    {
      "midi": 73,
      "hit": false,
      "t": 163050,
      "d": 150,
      "v": 65
    },
    {
      "midi": 74,
      "hit": false,
      "t": 163200,
      "d": 1050,
      "v": 75
    },
    {
      "midi": 74,
      "hit": false,
      "t": 163200,
      "d": 975,
      "v": 65
    },
    {
      "midi": 69,
      "hit": false,
      "t": 164100,
      "d": 600,
      "v": 75
    },
    {
      "midi": 69,
      "hit": false,
      "t": 164100,
      "d": 525,
      "v": 65
    },
    {
      "midi": 70,
      "hit": false,
      "t": 164662.5,
      "d": 75,
      "v": 55
    },
    {
      "midi": 70,
      "hit": false,
      "t": 164662.5,
      "d": 75,
      "v": 45
    },
    {
      "midi": 71,
      "hit": false,
      "t": 164700,
      "d": 600,
      "v": 75
    },
    {
      "midi": 71,
      "hit": false,
      "t": 164700,
      "d": 600,
      "v": 65
    },
    {
      "midi": 69,
      "hit": false,
      "t": 165300,
      "d": 2100,
      "v": 75
    },
    {
      "midi": 69,
      "hit": false,
      "t": 165300,
      "d": 2100,
      "v": 65
    },
    {
      "midi": 64,
      "hit": false,
      "t": 167400,
      "d": 600,
      "v": 75
    },
    {
      "midi": 64,
      "hit": false,
      "t": 167400,
      "d": 600,
      "v": 65
    },
    {
      "midi": 75,
      "hit": false,
      "t": 167987.5,
      "d": 75,
      "v": 75
    },
    {
      "midi": 75,
      "hit": false,
      "t": 167987.5,
      "d": 75,
      "v": 45
    },
    {
      "midi": 76,
      "hit": false,
      "t": 168000,
      "d": 900,
      "v": 75
    },
    {
      "midi": 76,
      "hit": false,
      "t": 168000,
      "d": 900,
      "v": 65
    },
    {
      "midi": 73,
      "hit": false,
      "t": 168900,
      "d": 1200,
      "v": 75
    },
    {
      "midi": 73,
      "hit": false,
      "t": 168900,
      "d": 1200,
      "v": 65
    },
    {
      "midi": 74,
      "hit": false,
      "t": 170100,
      "d": 150,
      "v": 75
    },
    {
      "midi": 74,
      "hit": false,
      "t": 170100,
      "d": 150,
      "v": 65
    },
    {
      "midi": 73,
      "hit": false,
      "t": 170250,
      "d": 150,
      "v": 75
    },
    {
      "midi": 73,
      "hit": false,
      "t": 170250,
      "d": 150,
      "v": 65
    },
    {
      "midi": 74,
      "hit": false,
      "t": 170400,
      "d": 900,
      "v": 75
    },
    {
      "midi": 74,
      "hit": false,
      "t": 170400,
      "d": 900,
      "v": 65
    },
    {
      "midi": 69,
      "hit": false,
      "t": 171300,
      "d": 1200,
      "v": 75
    },
    {
      "midi": 69,
      "hit": false,
      "t": 171300,
      "d": 1200,
      "v": 65
    },
    {
      "midi": 74,
      "hit": false,
      "t": 172500,
      "d": 150,
      "v": 75
    },
    {
      "midi": 74,
      "hit": false,
      "t": 172500,
      "d": 150,
      "v": 65
    },
    {
      "midi": 73,
      "hit": false,
      "t": 172650,
      "d": 150,
      "v": 75
    },
    {
      "midi": 73,
      "hit": false,
      "t": 172650,
      "d": 150,
      "v": 65
    },
    {
      "midi": 74,
      "hit": false,
      "t": 172800,
      "d": 1050,
      "v": 75
    },
    {
      "midi": 74,
      "hit": false,
      "t": 172800,
      "d": 975,
      "v": 65
    },
    {
      "midi": 69,
      "hit": false,
      "t": 173700,
      "d": 600,
      "v": 75
    },
    {
      "midi": 69,
      "hit": false,
      "t": 173700,
      "d": 525,
      "v": 65
    },
    {
      "midi": 70,
      "hit": false,
      "t": 174262.5,
      "d": 75,
      "v": 75
    },
    {
      "midi": 70,
      "hit": false,
      "t": 174262.5,
      "d": 75,
      "v": 45
    },
    {
      "midi": 71,
      "hit": false,
      "t": 174300,
      "d": 600,
      "v": 75
    },
    {
      "midi": 71,
      "hit": false,
      "t": 174300,
      "d": 600,
      "v": 65
    },
    {
      "midi": 74,
      "hit": false,
      "t": 176700,
      "d": 150,
      "v": 90
    },
    {
      "midi": 73,
      "hit": false,
      "t": 176850,
      "d": 150,
      "v": 90
    },
    {
      "midi": 69,
      "hit": false,
      "t": 177000,
      "d": 150,
      "v": 90
    },
    {
      "midi": 64,
      "hit": false,
      "t": 177150,
      "d": 150,
      "v": 90
    },
    {
      "midi": 62,
      "hit": false,
      "t": 177300,
      "d": 150,
      "v": 90
    },
    {
      "midi": 61,
      "hit": false,
      "t": 177450,
      "d": 150,
      "v": 90
    },
    {
      "midi": 52,
      "hit": false,
      "t": 177600,
      "d": 1350,
      "v": 100
    },
    {
      "midi": 57,
      "hit": false,
      "t": 177600,
      "d": 1350,
      "v": 100
    },
    {
      "midi": 61,
      "hit": false,
      "t": 177600,
      "d": 1350,
      "v": 100
    },
    {
      "midi": 73,
      "hit": false,
      "t": 178200,
      "d": 150,
      "v": 65
    },
    {
      "midi": 69,
      "hit": false,
      "t": 178500,
      "d": 150,
      "v": 65
    },
    {
      "midi": 57,
      "hit": false,
      "t": 179400,
      "d": 300,
      "v": 100
    },
    {
      "midi": 59,
      "hit": false,
      "t": 179700,
      "d": 600,
      "v": 100
    },
    {
      "midi": 62,
      "hit": false,
      "t": 180300,
      "d": 1050,
      "v": 100
    },
    {
      "midi": 74,
      "hit": false,
      "t": 180600,
      "d": 150,
      "v": 65
    },
    {
      "midi": 69,
      "hit": false,
      "t": 180900,
      "d": 150,
      "v": 65
    },
    {
      "midi": 57,
      "hit": false,
      "t": 181800,
      "d": 300,
      "v": 100
    },
    {
      "midi": 59,
      "hit": false,
      "t": 182100,
      "d": 600,
      "v": 100
    },
    {
      "midi": 62,
      "hit": false,
      "t": 182700,
      "d": 900,
      "v": 100
    },
    {
      "midi": 74,
      "hit": false,
      "t": 183000,
      "d": 150,
      "v": 65
    },
    {
      "midi": 71,
      "hit": false,
      "t": 183300,
      "d": 150,
      "v": 65
    },
    {
      "midi": 64,
      "hit": false,
      "t": 184200,
      "d": 600,
      "v": 100
    },
    {
      "midi": 63,
      "hit": false,
      "t": 184207.5,
      "d": 32.5,
      "v": 90
    },
    {
      "midi": 57,
      "hit": false,
      "t": 184800,
      "d": 1200,
      "v": 100
    },
    {
      "midi": 61,
      "hit": false,
      "t": 184800,
      "d": 1200,
      "v": 100
    },
    {
      "midi": 73,
      "hit": false,
      "t": 185400,
      "d": 150,
      "v": 65
    },
    {
      "midi": 69,
      "hit": false,
      "t": 185700,
      "d": 150,
      "v": 65
    },
    {
      "midi": 57,
      "hit": false,
      "t": 186000,
      "d": 1200,
      "v": 100
    },
    {
      "midi": 62,
      "hit": false,
      "t": 186000,
      "d": 1200,
      "v": 100
    },
    {
      "midi": 42,
      "hit": false,
      "t": 187200,
      "d": 1800,
      "v": 117
    },
    {
      "midi": 54,
      "hit": false,
      "t": 187200,
      "d": 1800,
      "v": 117
    },
    {
      "midi": 57,
      "hit": false,
      "t": 187200,
      "d": 1800,
      "v": 117
    },
    {
      "midi": 61,
      "hit": false,
      "t": 187200,
      "d": 1800,
      "v": 117
    },
    {
      "midi": 73,
      "hit": false,
      "t": 187800,
      "d": 150,
      "v": 65
    },
    {
      "midi": 69,
      "hit": false,
      "t": 188100,
      "d": 150,
      "v": 65
    },
    {
      "midi": 57,
      "hit": false,
      "t": 189000,
      "d": 300,
      "v": 100
    },
    {
      "midi": 59,
      "hit": false,
      "t": 189300,
      "d": 600,
      "v": 100
    },
    {
      "midi": 62,
      "hit": false,
      "t": 189900,
      "d": 1200,
      "v": 100
    },
    {
      "midi": 74,
      "hit": false,
      "t": 190200,
      "d": 150,
      "v": 65
    },
    {
      "midi": 71,
      "hit": false,
      "t": 190500,
      "d": 150,
      "v": 65
    },
    {
      "midi": 57,
      "hit": false,
      "t": 191400,
      "d": 600,
      "v": 105
    },
    {
      "midi": 31,
      "hit": false,
      "t": 192000,
      "d": 1800,
      "v": 100
    },
    {
      "midi": 43,
      "hit": false,
      "t": 192000,
      "d": 1800,
      "v": 107
    },
    {
      "midi": 50,
      "hit": false,
      "t": 192000,
      "d": 1800,
      "v": 107
    },
    {
      "midi": 55,
      "hit": false,
      "t": 192000,
      "d": 1800,
      "v": 107
    },
    {
      "midi": 59,
      "hit": false,
      "t": 192000,
      "d": 1800,
      "v": 107
    },
    {
      "midi": 74,
      "hit": false,
      "t": 192600,
      "d": 150,
      "v": 65
    },
    {
      "midi": 71,
      "hit": false,
      "t": 192900,
      "d": 150,
      "v": 65
    },
    {
      "midi": 64,
      "hit": false,
      "t": 196200,
      "d": 600,
      "v": 75
    },
    {
      "midi": 64,
      "hit": false,
      "t": 196200,
      "d": 600,
      "v": 65
    },
    {
      "midi": 75,
      "hit": false,
      "t": 196787.5,
      "d": 75,
      "v": 55
    },
    {
      "midi": 75,
      "hit": false,
      "t": 196787.5,
      "d": 75,
      "v": 45
    },
    {
      "midi": 76,
      "hit": false,
      "t": 196800,
      "d": 900,
      "v": 75
    },
    {
      "midi": 76,
      "hit": false,
      "t": 196800,
      "d": 900,
      "v": 65
    },
    {
      "midi": 73,
      "hit": false,
      "t": 197700,
      "d": 1200,
      "v": 75
    },
    {
      "midi": 73,
      "hit": false,
      "t": 197700,
      "d": 1200,
      "v": 65
    },
    {
      "midi": 74,
      "hit": false,
      "t": 198900,
      "d": 150,
      "v": 75
    },
    {
      "midi": 74,
      "hit": false,
      "t": 198900,
      "d": 150,
      "v": 65
    },
    {
      "midi": 73,
      "hit": false,
      "t": 199050,
      "d": 150,
      "v": 75
    },
    {
      "midi": 73,
      "hit": false,
      "t": 199050,
      "d": 150,
      "v": 65
    },
    {
      "midi": 74,
      "hit": false,
      "t": 199200,
      "d": 900,
      "v": 75
    },
    {
      "midi": 74,
      "hit": false,
      "t": 199200,
      "d": 900,
      "v": 65
    },
    {
      "midi": 69,
      "hit": false,
      "t": 200100,
      "d": 1200,
      "v": 75
    },
    {
      "midi": 69,
      "hit": false,
      "t": 200100,
      "d": 1200,
      "v": 65
    },
    {
      "midi": 74,
      "hit": false,
      "t": 201300,
      "d": 150,
      "v": 75
    },
    {
      "midi": 74,
      "hit": false,
      "t": 201300,
      "d": 150,
      "v": 65
    },
    {
      "midi": 73,
      "hit": false,
      "t": 201450,
      "d": 150,
      "v": 75
    },
    {
      "midi": 73,
      "hit": false,
      "t": 201450,
      "d": 150,
      "v": 65
    },
    {
      "midi": 74,
      "hit": false,
      "t": 201600,
      "d": 1050,
      "v": 75
    },
    {
      "midi": 74,
      "hit": false,
      "t": 201600,
      "d": 975,
      "v": 65
    },
    {
      "midi": 69,
      "hit": false,
      "t": 202500,
      "d": 600,
      "v": 75
    },
    {
      "midi": 69,
      "hit": false,
      "t": 202500,
      "d": 525,
      "v": 65
    },
    {
      "midi": 70,
      "hit": false,
      "t": 203062.5,
      "d": 75,
      "v": 55
    },
    {
      "midi": 70,
      "hit": false,
      "t": 203062.5,
      "d": 75,
      "v": 45
    },
    {
      "midi": 71,
      "hit": false,
      "t": 203100,
      "d": 600,
      "v": 75
    },
    {
      "midi": 71,
      "hit": false,
      "t": 203100,
      "d": 600,
      "v": 65
    },
    {
      "midi": 69,
      "hit": false,
      "t": 203700,
      "d": 2100,
      "v": 75
    },
    {
      "midi": 69,
      "hit": false,
      "t": 203700,
      "d": 2100,
      "v": 65
    },
    {
      "midi": 64,
      "hit": false,
      "t": 205800,
      "d": 600,
      "v": 75
    },
    {
      "midi": 64,
      "hit": false,
      "t": 205800,
      "d": 600,
      "v": 65
    },
    {
      "midi": 75,
      "hit": false,
      "t": 206387.5,
      "d": 75,
      "v": 55
    },
    {
      "midi": 75,
      "hit": false,
      "t": 206387.5,
      "d": 75,
      "v": 45
    },
    {
      "midi": 76,
      "hit": false,
      "t": 206400,
      "d": 900,
      "v": 75
    },
    {
      "midi": 76,
      "hit": false,
      "t": 206400,
      "d": 900,
      "v": 65
    },
    {
      "midi": 73,
      "hit": false,
      "t": 207300,
      "d": 1200,
      "v": 75
    },
    {
      "midi": 73,
      "hit": false,
      "t": 207300,
      "d": 1200,
      "v": 65
    },
    {
      "midi": 74,
      "hit": false,
      "t": 208500,
      "d": 150,
      "v": 75
    },
    {
      "midi": 74,
      "hit": false,
      "t": 208500,
      "d": 150,
      "v": 65
    },
    {
      "midi": 73,
      "hit": false,
      "t": 208650,
      "d": 150,
      "v": 75
    },
    {
      "midi": 73,
      "hit": false,
      "t": 208650,
      "d": 150,
      "v": 65
    },
    {
      "midi": 74,
      "hit": false,
      "t": 208800,
      "d": 900,
      "v": 75
    },
    {
      "midi": 74,
      "hit": false,
      "t": 208800,
      "d": 900,
      "v": 65
    },
    {
      "midi": 69,
      "hit": false,
      "t": 209700,
      "d": 1200,
      "v": 75
    },
    {
      "midi": 69,
      "hit": false,
      "t": 209700,
      "d": 1200,
      "v": 65
    },
    {
      "midi": 74,
      "hit": false,
      "t": 210900,
      "d": 150,
      "v": 75
    },
    {
      "midi": 74,
      "hit": false,
      "t": 210900,
      "d": 150,
      "v": 65
    },
    {
      "midi": 73,
      "hit": false,
      "t": 211050,
      "d": 150,
      "v": 75
    },
    {
      "midi": 73,
      "hit": false,
      "t": 211050,
      "d": 150,
      "v": 65
    },
    {
      "midi": 74,
      "hit": false,
      "t": 211200,
      "d": 1050,
      "v": 75
    },
    {
      "midi": 74,
      "hit": false,
      "t": 211200,
      "d": 975,
      "v": 65
    },
    {
      "midi": 69,
      "hit": false,
      "t": 212100,
      "d": 600,
      "v": 75
    },
    {
      "midi": 69,
      "hit": false,
      "t": 212100,
      "d": 525,
      "v": 65
    },
    {
      "midi": 70,
      "hit": false,
      "t": 212662.5,
      "d": 75,
      "v": 55
    },
    {
      "midi": 70,
      "hit": false,
      "t": 212662.5,
      "d": 75,
      "v": 45
    },
    {
      "midi": 71,
      "hit": false,
      "t": 212700,
      "d": 600,
      "v": 75
    },
    {
      "midi": 71,
      "hit": false,
      "t": 212700,
      "d": 600,
      "v": 65
    },
    {
      "midi": 64,
      "hit": false,
      "t": 215400,
      "d": 600,
      "v": 75
    },
    {
      "midi": 64,
      "hit": false,
      "t": 215400,
      "d": 600,
      "v": 65
    },
    {
      "midi": 75,
      "hit": false,
      "t": 215987.5,
      "d": 75,
      "v": 55
    },
    {
      "midi": 75,
      "hit": false,
      "t": 215987.5,
      "d": 75,
      "v": 45
    },
    {
      "midi": 76,
      "hit": false,
      "t": 216000,
      "d": 900,
      "v": 75
    },
    {
      "midi": 76,
      "hit": false,
      "t": 216000,
      "d": 900,
      "v": 65
    },
    {
      "midi": 73,
      "hit": false,
      "t": 216900,
      "d": 1200,
      "v": 75
    },
    {
      "midi": 73,
      "hit": false,
      "t": 216900,
      "d": 1200,
      "v": 65
    },
    {
      "midi": 74,
      "hit": false,
      "t": 218100,
      "d": 150,
      "v": 75
    },
    {
      "midi": 74,
      "hit": false,
      "t": 218100,
      "d": 150,
      "v": 65
    },
    {
      "midi": 73,
      "hit": false,
      "t": 218250,
      "d": 150,
      "v": 75
    },
    {
      "midi": 73,
      "hit": false,
      "t": 218250,
      "d": 150,
      "v": 65
    },
    {
      "midi": 74,
      "hit": false,
      "t": 218400,
      "d": 900,
      "v": 75
    },
    {
      "midi": 74,
      "hit": false,
      "t": 218400,
      "d": 900,
      "v": 65
    },
    {
      "midi": 69,
      "hit": false,
      "t": 219300,
      "d": 1200,
      "v": 75
    },
    {
      "midi": 69,
      "hit": false,
      "t": 219300,
      "d": 1200,
      "v": 65
    },
    {
      "midi": 74,
      "hit": false,
      "t": 220500,
      "d": 150,
      "v": 75
    },
    {
      "midi": 74,
      "hit": false,
      "t": 220500,
      "d": 150,
      "v": 65
    },
    {
      "midi": 73,
      "hit": false,
      "t": 220650,
      "d": 150,
      "v": 75
    },
    {
      "midi": 73,
      "hit": false,
      "t": 220650,
      "d": 150,
      "v": 65
    },
    {
      "midi": 74,
      "hit": false,
      "t": 220800,
      "d": 1050,
      "v": 75
    },
    {
      "midi": 74,
      "hit": false,
      "t": 220800,
      "d": 975,
      "v": 65
    },
    {
      "midi": 69,
      "hit": false,
      "t": 221700,
      "d": 600,
      "v": 75
    },
    {
      "midi": 69,
      "hit": false,
      "t": 221700,
      "d": 525,
      "v": 65
    },
    {
      "midi": 70,
      "hit": false,
      "t": 222262.5,
      "d": 75,
      "v": 55
    },
    {
      "midi": 70,
      "hit": false,
      "t": 222262.5,
      "d": 75,
      "v": 45
    },
    {
      "midi": 71,
      "hit": false,
      "t": 222300,
      "d": 600,
      "v": 75
    },
    {
      "midi": 71,
      "hit": false,
      "t": 222300,
      "d": 600,
      "v": 65
    },
    {
      "midi": 69,
      "hit": false,
      "t": 222900,
      "d": 2100,
      "v": 75
    },
    {
      "midi": 69,
      "hit": false,
      "t": 222900,
      "d": 2100,
      "v": 65
    },
    {
      "midi": 64,
      "hit": false,
      "t": 225000,
      "d": 600,
      "v": 75
    },
    {
      "midi": 64,
      "hit": false,
      "t": 225000,
      "d": 600,
      "v": 65
    },
    {
      "midi": 75,
      "hit": false,
      "t": 225587.5,
      "d": 75,
      "v": 55
    },
    {
      "midi": 75,
      "hit": false,
      "t": 225587.5,
      "d": 75,
      "v": 45
    },
    {
      "midi": 76,
      "hit": false,
      "t": 225600,
      "d": 900,
      "v": 75
    },
    {
      "midi": 76,
      "hit": false,
      "t": 225600,
      "d": 900,
      "v": 65
    },
    {
      "midi": 73,
      "hit": false,
      "t": 226500,
      "d": 1200,
      "v": 75
    },
    {
      "midi": 73,
      "hit": false,
      "t": 226500,
      "d": 1200,
      "v": 65
    },
    {
      "midi": 74,
      "hit": false,
      "t": 227700,
      "d": 150,
      "v": 75
    },
    {
      "midi": 74,
      "hit": false,
      "t": 227700,
      "d": 150,
      "v": 65
    },
    {
      "midi": 73,
      "hit": false,
      "t": 227850,
      "d": 150,
      "v": 75
    },
    {
      "midi": 73,
      "hit": false,
      "t": 227850,
      "d": 150,
      "v": 65
    },
    {
      "midi": 74,
      "hit": false,
      "t": 228000,
      "d": 900,
      "v": 75
    },
    {
      "midi": 74,
      "hit": false,
      "t": 228000,
      "d": 900,
      "v": 65
    },
    {
      "midi": 69,
      "hit": false,
      "t": 228900,
      "d": 1200,
      "v": 75
    },
    {
      "midi": 69,
      "hit": false,
      "t": 228900,
      "d": 1200,
      "v": 65
    },
    {
      "midi": 74,
      "hit": false,
      "t": 230100,
      "d": 150,
      "v": 75
    },
    {
      "midi": 74,
      "hit": false,
      "t": 230100,
      "d": 150,
      "v": 65
    },
    {
      "midi": 73,
      "hit": false,
      "t": 230250,
      "d": 150,
      "v": 75
    },
    {
      "midi": 73,
      "hit": false,
      "t": 230250,
      "d": 150,
      "v": 65
    },
    {
      "midi": 74,
      "hit": false,
      "t": 230400,
      "d": 1050,
      "v": 75
    },
    {
      "midi": 74,
      "hit": false,
      "t": 230400,
      "d": 975,
      "v": 65
    },
    {
      "midi": 69,
      "hit": false,
      "t": 231300,
      "d": 600,
      "v": 75
    },
    {
      "midi": 69,
      "hit": false,
      "t": 231300,
      "d": 525,
      "v": 65
    },
    {
      "midi": 70,
      "hit": false,
      "t": 231862.5,
      "d": 75,
      "v": 55
    },
    {
      "midi": 70,
      "hit": false,
      "t": 231862.5,
      "d": 75,
      "v": 45
    },
    {
      "midi": 71,
      "hit": false,
      "t": 231900,
      "d": 600,
      "v": 75
    },
    {
      "midi": 71,
      "hit": false,
      "t": 231900,
      "d": 600,
      "v": 65
    },
    {
      "midi": 33,
      "hit": false,
      "t": 232800,
      "d": 2250,
      "v": 100
    },
    {
      "midi": 45,
      "hit": false,
      "t": 232800,
      "d": 2250,
      "v": 102
    },
    {
      "midi": 57,
      "hit": false,
      "t": 232800,
      "d": 2250,
      "v": 100
    },
    {
      "midi": 61,
      "hit": false,
      "t": 232800,
      "d": 2250,
      "v": 100
    },
    {
      "midi": 64,
      "hit": false,
      "t": 232800,
      "d": 2250,
      "v": 100
    }
  ]
}