{
  "jsonPath": "Soundtracks/Video Game Music/Donkey Kong Land/donkey-kong-land-blimp.json",
  "path": "Soundtracks\\Video Game Music\\Donkey Kong Land\\Donkey_Kong_Land_Blimp.mid",
  "name": "Donkey_Kong_Land_Blimp",
  "difficulty": "Advanced",
  "bpm": 140.00014000014,
  "notes": [
    {
      "midi": 69,
      "hit": false,
      "t": 4.185263671875,
      "d": 211.3558154296875,
      "v": 69
    },
    {
      "midi": 33,
      "hit": false,
      "t": 4.185263671875,
      "d": 211.3558154296875,
      "v": 66
    },
    {
      "midi": 57,
      "hit": false,
      "t": 228.515396484375,
      "d": 97.5166435546875,
      "v": 64
    },
    {
      "midi": 45,
      "hit": false,
      "t": 228.515396484375,
      "d": 84.12379980468751,
      "v": 52
    },
    {
      "midi": 64,
      "hit": false,
      "t": 332.7284619140625,
      "d": 203.403814453125,
      "v": 64
    },
    {
      "midi": 45,
      "hit": false,
      "t": 332.7284619140625,
      "d": 114.25769824218747,
      "v": 52
    },
    {
      "midi": 57,
      "hit": false,
      "t": 549.10659375,
      "d": 96.67959082031246,
      "v": 64
    },
    {
      "midi": 69,
      "hit": false,
      "t": 652.4826064453125,
      "d": 200.47412988281258,
      "v": 64
    },
    {
      "midi": 45,
      "hit": false,
      "t": 652.4826064453125,
      "d": 83.70527343749995,
      "v": 52
    },
    {
      "midi": 45,
      "hit": false,
      "t": 756.2771455078125,
      "d": 115.5132773437499,
      "v": 52
    },
    {
      "midi": 33,
      "hit": false,
      "t": 865.9310537109375,
      "d": 200.47412988281235,
      "v": 64
    },
    {
      "midi": 57,
      "hit": false,
      "t": 976.0034882812502,
      "d": 96.67959082031257,
      "v": 64
    },
    {
      "midi": 45,
      "hit": false,
      "t": 1079.3795009765622,
      "d": 83.70527343749995,
      "v": 52
    },
    {
      "midi": 69,
      "hit": false,
      "t": 1079.3795009765627,
      "d": 198.3814980468751,
      "v": 64
    },
    {
      "midi": 45,
      "hit": false,
      "t": 1183.1740400390622,
      "d": 113.42064550781242,
      "v": 52
    },
    {
      "midi": 69,
      "hit": false,
      "t": 1290.7353164062501,
      "d": 100.86485449218753,
      "v": 65
    },
    {
      "midi": 64,
      "hit": false,
      "t": 1398.2965927734376,
      "d": 97.09811718750007,
      "v": 64
    },
    {
      "midi": 45,
      "hit": false,
      "t": 1502.0911318359372,
      "d": 83.70527343749995,
      "v": 52
    },
    {
      "midi": 57,
      "hit": false,
      "t": 1502.0911318359376,
      "d": 199.2185507812501,
      "v": 64
    },
    {
      "midi": 45,
      "hit": false,
      "t": 1605.8856708984372,
      "d": 114.25769824218742,
      "v": 52
    },
    {
      "midi": 33,
      "hit": false,
      "t": 1715.9581054687496,
      "d": 213.86697363281246,
      "v": 66
    },
    {
      "midi": 69,
      "hit": false,
      "t": 1715.9581054687503,
      "d": 213.86697363281246,
      "v": 69
    },
    {
      "midi": 45,
      "hit": false,
      "t": 1942.7993964843745,
      "d": 84.12379980468745,
      "v": 52
    },
    {
      "midi": 57,
      "hit": false,
      "t": 1942.7993964843754,
      "d": 97.51664355468756,
      "v": 64
    },
    {
      "midi": 45,
      "hit": false,
      "t": 2047.012461914062,
      "d": 114.25769824218742,
      "v": 52
    },
    {
      "midi": 64,
      "hit": false,
      "t": 2047.012461914063,
      "d": 203.40381445312505,
      "v": 64
    },
    {
      "midi": 57,
      "hit": false,
      "t": 2263.3905937500003,
      "d": 96.67959082031257,
      "v": 64
    },
    {
      "midi": 45,
      "hit": false,
      "t": 2366.766606445312,
      "d": 83.70527343750018,
      "v": 52
    },
    {
      "midi": 69,
      "hit": false,
      "t": 2366.766606445313,
      "d": 200.47412988281258,
      "v": 64
    },
    {
      "midi": 45,
      "hit": false,
      "t": 2470.561145507812,
      "d": 115.5132773437499,
      "v": 52
    },
    {
      "midi": 33,
      "hit": false,
      "t": 2580.215053710937,
      "d": 200.47412988281258,
      "v": 64
    },
    {
      "midi": 57,
      "hit": false,
      "t": 2690.2874882812503,
      "d": 96.67959082031257,
      "v": 64
    },
    {
      "midi": 45,
      "hit": false,
      "t": 2793.663500976562,
      "d": 83.70527343750018,
      "v": 52
    },
    {
      "midi": 69,
      "hit": false,
      "t": 2793.663500976563,
      "d": 198.3814980468751,
      "v": 64
    },
    {
      "midi": 45,
      "hit": false,
      "t": 2897.458040039062,
      "d": 113.42064550781242,
      "v": 52
    },
    {
      "midi": 69,
      "hit": false,
      "t": 3005.0193164062503,
      "d": 100.86485449218753,
      "v": 65
    },
    {
      "midi": 64,
      "hit": false,
      "t": 3112.5805927734377,
      "d": 97.09811718750007,
      "v": 64
    },
    {
      "midi": 45,
      "hit": false,
      "t": 3216.375131835937,
      "d": 83.70527343750018,
      "v": 52
    },
    {
      "midi": 57,
      "hit": false,
      "t": 3216.3751318359377,
      "d": 199.2185507812501,
      "v": 64
    },
    {
      "midi": 45,
      "hit": false,
      "t": 3320.169670898437,
      "d": 114.25769824218742,
      "v": 52
    },
    {
      "midi": 29,
      "hit": false,
      "t": 3430.2421054687493,
      "d": 213.86697363281246,
      "v": 65
    },
    {
      "midi": 69,
      "hit": false,
      "t": 3430.24210546875,
      "d": 213.86697363281246,
      "v": 69
    },
    {
      "midi": 41,
      "hit": false,
      "t": 3657.083396484374,
      "d": 84.12379980468768,
      "v": 52
    },
    {
      "midi": 57,
      "hit": false,
      "t": 3657.083396484375,
      "d": 97.51664355468756,
      "v": 64
    },
    {
      "midi": 41,
      "hit": false,
      "t": 3761.2964619140616,
      "d": 114.25769824218742,
      "v": 52
    },
    {
      "midi": 64,
      "hit": false,
      "t": 3761.2964619140625,
      "d": 203.40381445312505,
      "v": 64
    },
    {
      "midi": 57,
      "hit": false,
      "t": 3977.67459375,
      "d": 96.67959082031257,
      "v": 64
    },
    {
      "midi": 41,
      "hit": false,
      "t": 4081.0506064453116,
      "d": 83.70527343749973,
      "v": 52
    },
    {
      "midi": 69,
      "hit": false,
      "t": 4081.0506064453125,
      "d": 200.47412988281258,
      "v": 64
    },
    {
      "midi": 41,
      "hit": false,
      "t": 4184.845145507811,
      "d": 115.5132773437499,
      "v": 52
    },
    {
      "midi": 29,
      "hit": false,
      "t": 4294.499053710936,
      "d": 200.47412988281212,
      "v": 63
    },
    {
      "midi": 57,
      "hit": false,
      "t": 4404.57148828125,
      "d": 96.67959082031211,
      "v": 64
    },
    {
      "midi": 41,
      "hit": false,
      "t": 4507.947500976561,
      "d": 83.70527343750018,
      "v": 52
    },
    {
      "midi": 69,
      "hit": false,
      "t": 4507.947500976562,
      "d": 198.3814980468751,
      "v": 64
    },
    {
      "midi": 41,
      "hit": false,
      "t": 4611.742040039061,
      "d": 113.42064550781288,
      "v": 52
    },
    {
      "midi": 69,
      "hit": false,
      "t": 4719.30331640625,
      "d": 100.86485449218708,
      "v": 65
    },
    {
      "midi": 64,
      "hit": false,
      "t": 4826.864592773437,
      "d": 97.09811718750007,
      "v": 64
    },
    {
      "midi": 41,
      "hit": false,
      "t": 4930.659131835936,
      "d": 83.70527343750018,
      "v": 52
    },
    {
      "midi": 57,
      "hit": false,
      "t": 4930.659131835937,
      "d": 199.2185507812501,
      "v": 64
    },
    {
      "midi": 41,
      "hit": false,
      "t": 5034.453670898436,
      "d": 114.25769824218787,
      "v": 52
    },
    {
      "midi": 31,
      "hit": false,
      "t": 5144.526105468749,
      "d": 213.86697363281291,
      "v": 66
    },
    {
      "midi": 69,
      "hit": false,
      "t": 5144.52610546875,
      "d": 213.86697363281291,
      "v": 69
    },
    {
      "midi": 43,
      "hit": false,
      "t": 5371.367396484375,
      "d": 84.12379980468722,
      "v": 52
    },
    {
      "midi": 57,
      "hit": false,
      "t": 5371.367396484376,
      "d": 97.5166435546871,
      "v": 64
    },
    {
      "midi": 43,
      "hit": false,
      "t": 5475.580461914062,
      "d": 114.25769824218787,
      "v": 52
    },
    {
      "midi": 64,
      "hit": false,
      "t": 5475.580461914063,
      "d": 203.40381445312505,
      "v": 64
    },
    {
      "midi": 57,
      "hit": false,
      "t": 5691.958593750001,
      "d": 96.67959082031211,
      "v": 64
    },
    {
      "midi": 43,
      "hit": false,
      "t": 5795.334606445312,
      "d": 83.70527343750018,
      "v": 52
    },
    {
      "midi": 69,
      "hit": false,
      "t": 5795.334606445313,
      "d": 200.47412988281212,
      "v": 64
    },
    {
      "midi": 43,
      "hit": false,
      "t": 5899.129145507812,
      "d": 115.5132773437499,
      "v": 52
    },
    {
      "midi": 31,
      "hit": false,
      "t": 6008.783053710937,
      "d": 200.47412988281212,
      "v": 64
    },
    {
      "midi": 57,
      "hit": false,
      "t": 6118.85548828125,
      "d": 96.67959082031211,
      "v": 64
    },
    {
      "midi": 69,
      "hit": false,
      "t": 6222.231500976562,
      "d": 198.3814980468751,
      "v": 64
    },
    {
      "midi": 43,
      "hit": false,
      "t": 6222.231500976562,
      "d": 83.70527343750018,
      "v": 52
    },
    {
      "midi": 43,
      "hit": false,
      "t": 6326.026040039062,
      "d": 113.42064550781288,
      "v": 52
    },
    {
      "midi": 69,
      "hit": false,
      "t": 6433.58731640625,
      "d": 100.86485449218708,
      "v": 65
    },
    {
      "midi": 64,
      "hit": false,
      "t": 6541.148592773437,
      "d": 97.09811718750007,
      "v": 64
    },
    {
      "midi": 57,
      "hit": false,
      "t": 6644.943131835937,
      "d": 199.2185507812501,
      "v": 64
    },
    {
      "midi": 43,
      "hit": false,
      "t": 6644.943131835937,
      "d": 83.70527343750018,
      "v": 52
    },
    {
      "midi": 43,
      "hit": false,
      "t": 6748.737670898437,
      "d": 114.25769824218787,
      "v": 52
    },
    {
      "midi": 76,
      "hit": false,
      "t": 6858.8101054687495,
      "d": 213.86697363281291,
      "v": 69
    },
    {
      "midi": 33,
      "hit": false,
      "t": 6858.8101054687495,
      "d": 213.86697363281291,
      "v": 66
    },
    {
      "midi": 69,
      "hit": false,
      "t": 7085.651396484375,
      "d": 97.5166435546871,
      "v": 64
    },
    {
      "midi": 45,
      "hit": false,
      "t": 7085.651396484375,
      "d": 84.12379980468722,
      "v": 52
    },
    {
      "midi": 73,
      "hit": false,
      "t": 7189.864461914062,
      "d": 101.70190722656207,
      "v": 64
    },
    {
      "midi": 45,
      "hit": false,
      "t": 7189.864461914062,
      "d": 114.25769824218787,
      "v": 52
    },
    {
      "midi": 73,
      "hit": false,
      "t": 7298.262791015624,
      "d": 314.731828125,
      "v": 65
    },
    {
      "midi": 45,
      "hit": false,
      "t": 7509.618606445312,
      "d": 83.70527343750018,
      "v": 52
    },
    {
      "midi": 73,
      "hit": false,
      "t": 7613.413145507812,
      "d": 102.95748632812501,
      "v": 64
    },
    {
      "midi": 45,
      "hit": false,
      "t": 7613.413145507812,
      "d": 115.5132773437499,
      "v": 52
    },
    {
      "midi": 74,
      "hit": false,
      "t": 7723.067053710937,
      "d": 200.47412988281212,
      "v": 67
    },
    {
      "midi": 33,
      "hit": false,
      "t": 7723.067053710937,
      "d": 200.47412988281212,
      "v": 64
    },
    {
      "midi": 73,
      "hit": false,
      "t": 7936.515500976562,
      "d": 198.3814980468751,
      "v": 64
    },
    {
      "midi": 45,
      "hit": false,
      "t": 7936.515500976562,
      "d": 83.70527343750018,
      "v": 52
    },
    {
      "midi": 45,
      "hit": false,
      "t": 8040.310040039062,
      "d": 113.42064550781288,
      "v": 52
    },
    {
      "midi": 76,
      "hit": false,
      "t": 8147.87131640625,
      "d": 198.38149804687419,
      "v": 65
    },
    {
      "midi": 73,
      "hit": false,
      "t": 8359.227131835936,
      "d": 199.2185507812501,
      "v": 64
    },
    {
      "midi": 45,
      "hit": false,
      "t": 8359.227131835938,
      "d": 83.70527343749927,
      "v": 52
    },
    {
      "midi": 45,
      "hit": false,
      "t": 8463.021670898437,
      "d": 114.25769824218878,
      "v": 52
    },
    {
      "midi": 76,
      "hit": false,
      "t": 8573.094105468748,
      "d": 213.866973632812,
      "v": 69
    },
    {
      "midi": 33,
      "hit": false,
      "t": 8573.09410546875,
      "d": 213.86697363281382,
      "v": 66
    },
    {
      "midi": 69,
      "hit": false,
      "t": 8799.935396484372,
      "d": 97.5166435546871,
      "v": 64
    },
    {
      "midi": 45,
      "hit": false,
      "t": 8799.935396484376,
      "d": 84.12379980468722,
      "v": 52
    },
    {
      "midi": 73,
      "hit": false,
      "t": 8904.14846191406,
      "d": 101.70190722656298,
      "v": 64
    },
    {
      "midi": 45,
      "hit": false,
      "t": 8904.148461914063,
      "d": 114.25769824218696,
      "v": 52
    },
    {
      "midi": 73,
      "hit": false,
      "t": 9012.546791015622,
      "d": 314.7318281250009,
      "v": 65
    },
    {
      "midi": 45,
      "hit": false,
      "t": 9223.902606445312,
      "d": 83.70527343749927,
      "v": 52
    },
    {
      "midi": 73,
      "hit": false,
      "t": 9327.697145507811,
      "d": 102.95748632812501,
      "v": 64
    },
    {
      "midi": 45,
      "hit": false,
      "t": 9327.697145507811,
      "d": 115.51327734375081,
      "v": 52
    },
    {
      "midi": 74,
      "hit": false,
      "t": 9437.351053710936,
      "d": 200.47412988281212,
      "v": 67
    },
    {
      "midi": 33,
      "hit": false,
      "t": 9437.351053710936,
      "d": 200.47412988281394,
      "v": 64
    },
    {
      "midi": 73,
      "hit": false,
      "t": 9650.79950097656,
      "d": 198.38149804687419,
      "v": 64
    },
    {
      "midi": 45,
      "hit": false,
      "t": 9650.799500976562,
      "d": 83.70527343749927,
      "v": 52
    },
    {
      "midi": 45,
      "hit": false,
      "t": 9754.594040039061,
      "d": 113.42064550781288,
      "v": 52
    },
    {
      "midi": 69,
      "hit": false,
      "t": 9862.155316406246,
      "d": 198.38149804687419,
      "v": 65
    },
    {
      "midi": 67,
      "hit": false,
      "t": 10073.511131835932,
      "d": 199.2185507812501,
      "v": 64
    },
    {
      "midi": 45,
      "hit": false,
      "t": 10073.511131835936,
      "d": 83.70527343749927,
      "v": 52
    },
    {
      "midi": 45,
      "hit": false,
      "t": 10177.305670898435,
      "d": 114.25769824218878,
      "v": 52
    },
    {
      "midi": 72,
      "hit": false,
      "t": 10287.378105468744,
      "d": 213.866973632812,
      "v": 69
    },
    {
      "midi": 29,
      "hit": false,
      "t": 10287.378105468748,
      "d": 213.86697363281382,
      "v": 65
    },
    {
      "midi": 71,
      "hit": false,
      "t": 10514.219396484368,
      "d": 97.5166435546871,
      "v": 64
    },
    {
      "midi": 41,
      "hit": false,
      "t": 10514.219396484374,
      "d": 84.12379980468722,
      "v": 52
    },
    {
      "midi": 72,
      "hit": false,
      "t": 10618.432461914055,
      "d": 203.40381445312414,
      "v": 64
    },
    {
      "midi": 41,
      "hit": false,
      "t": 10618.43246191406,
      "d": 114.25769824218696,
      "v": 52
    },
    {
      "midi": 71,
      "hit": false,
      "t": 10834.810593749991,
      "d": 96.67959082031302,
      "v": 64
    },
    {
      "midi": 72,
      "hit": false,
      "t": 10938.186606445304,
      "d": 97.09811718749916,
      "v": 64
    },
    {
      "midi": 41,
      "hit": false,
      "t": 10938.18660644531,
      "d": 83.70527343749927,
      "v": 52
    },
    {
      "midi": 71,
      "hit": false,
      "t": 11041.981145507803,
      "d": 102.95748632812501,
      "v": 64
    },
    {
      "midi": 41,
      "hit": false,
      "t": 11041.981145507809,
      "d": 115.51327734375081,
      "v": 52
    },
    {
      "midi": 72,
      "hit": false,
      "t": 11151.635053710928,
      "d": 103.37601269531297,
      "v": 67
    },
    {
      "midi": 29,
      "hit": false,
      "t": 11151.635053710934,
      "d": 200.47412988281394,
      "v": 63
    },
    {
      "midi": 71,
      "hit": false,
      "t": 11261.707488281241,
      "d": 96.67959082031302,
      "v": 64
    },
    {
      "midi": 67,
      "hit": false,
      "t": 11365.083500976554,
      "d": 97.09811718749916,
      "v": 64
    },
    {
      "midi": 41,
      "hit": false,
      "t": 11365.08350097656,
      "d": 83.70527343749927,
      "v": 52
    },
    {
      "midi": 65,
      "hit": false,
      "t": 11468.878040039053,
      "d": 100.86485449218708,
      "v": 64
    },
    {
      "midi": 41,
      "hit": false,
      "t": 11468.878040039059,
      "d": 113.42064550781288,
      "v": 52
    },
    {
      "midi": 41,
      "hit": false,
      "t": 11787.795131835934,
      "d": 83.70527343749927,
      "v": 52
    },
    {
      "midi": 41,
      "hit": false,
      "t": 11891.589670898433,
      "d": 114.25769824218878,
      "v": 52
    },
    {
      "midi": 74,
      "hit": false,
      "t": 12001.66210546874,
      "d": 213.866973632812,
      "v": 69
    },
    {
      "midi": 31,
      "hit": false,
      "t": 12001.662105468746,
      "d": 213.86697363281382,
      "v": 66
    },
    {
      "midi": 73,
      "hit": false,
      "t": 12228.503396484364,
      "d": 97.5166435546871,
      "v": 64
    },
    {
      "midi": 43,
      "hit": false,
      "t": 12228.503396484371,
      "d": 84.12379980468722,
      "v": 52
    },
    {
      "midi": 74,
      "hit": false,
      "t": 12332.716461914051,
      "d": 203.40381445312414,
      "v": 64
    },
    {
      "midi": 43,
      "hit": false,
      "t": 12332.716461914059,
      "d": 114.25769824218696,
      "v": 52
    },
    {
      "midi": 73,
      "hit": false,
      "t": 12549.094593749987,
      "d": 96.67959082031302,
      "v": 64
    },
    {
      "midi": 74,
      "hit": false,
      "t": 12652.4706064453,
      "d": 97.09811718749916,
      "v": 64
    },
    {
      "midi": 43,
      "hit": false,
      "t": 12652.470606445308,
      "d": 83.70527343749927,
      "v": 52
    },
    {
      "midi": 73,
      "hit": false,
      "t": 12756.2651455078,
      "d": 102.95748632812501,
      "v": 64
    },
    {
      "midi": 43,
      "hit": false,
      "t": 12756.265145507807,
      "d": 115.51327734375081,
      "v": 52
    },
    {
      "midi": 74,
      "hit": false,
      "t": 12865.919053710924,
      "d": 103.37601269531297,
      "v": 67
    },
    {
      "midi": 31,
      "hit": false,
      "t": 12865.919053710932,
      "d": 200.47412988281394,
      "v": 64
    },
    {
      "midi": 73,
      "hit": false,
      "t": 12975.991488281237,
      "d": 96.67959082031302,
      "v": 64
    },
    {
      "midi": 69,
      "hit": false,
      "t": 13079.36750097655,
      "d": 97.09811718749916,
      "v": 64
    },
    {
      "midi": 43,
      "hit": false,
      "t": 13079.367500976557,
      "d": 83.70527343749927,
      "v": 52
    },
    {
      "midi": 67,
      "hit": false,
      "t": 13183.16204003905,
      "d": 202.1482353515621,
      "v": 64
    },
    {
      "midi": 43,
      "hit": false,
      "t": 13183.162040039057,
      "d": 113.42064550781288,
      "v": 52
    },
    {
      "midi": 64,
      "hit": false,
      "t": 13398.284592773423,
      "d": 97.09811718749916,
      "v": 64
    },
    {
      "midi": 67,
      "hit": false,
      "t": 13502.079131835922,
      "d": 199.2185507812501,
      "v": 64
    },
    {
      "midi": 43,
      "hit": false,
      "t": 13502.079131835932,
      "d": 83.70527343749927,
      "v": 52
    },
    {
      "midi": 43,
      "hit": false,
      "t": 13605.87367089843,
      "d": 114.25769824218878,
      "v": 52
    },
    {
      "midi": 76,
      "hit": false,
      "t": 13715.946105468734,
      "d": 213.866973632812,
      "v": 69
    },
    {
      "midi": 33,
      "hit": false,
      "t": 13715.946105468744,
      "d": 213.86697363281382,
      "v": 66
    },
    {
      "midi": 69,
      "hit": false,
      "t": 13942.787396484358,
      "d": 97.5166435546871,
      "v": 64
    },
    {
      "midi": 45,
      "hit": false,
      "t": 13942.78739648437,
      "d": 84.12379980468722,
      "v": 52
    },
    {
      "midi": 73,
      "hit": false,
      "t": 14047.000461914045,
      "d": 101.70190722656298,
      "v": 64
    },
    {
      "midi": 45,
      "hit": false,
      "t": 14047.000461914056,
      "d": 114.25769824218696,
      "v": 52
    },
    {
      "midi": 73,
      "hit": false,
      "t": 14155.398791015608,
      "d": 314.7318281249991,
      "v": 65
    },
    {
      "midi": 45,
      "hit": false,
      "t": 14366.754606445305,
      "d": 83.70527343749927,
      "v": 52
    },
    {
      "midi": 73,
      "hit": false,
      "t": 14470.549145507795,
      "d": 102.95748632812501,
      "v": 64
    },
    {
      "midi": 45,
      "hit": false,
      "t": 14470.549145507804,
      "d": 115.51327734375081,
      "v": 52
    },
    {
      "midi": 74,
      "hit": false,
      "t": 14580.20305371092,
      "d": 200.47412988281212,
      "v": 67
    },
    {
      "midi": 33,
      "hit": false,
      "t": 14580.20305371093,
      "d": 200.47412988281394,
      "v": 64
    },
    {
      "midi": 73,
      "hit": false,
      "t": 14793.651500976544,
      "d": 198.38149804687419,
      "v": 64
    },
    {
      "midi": 45,
      "hit": false,
      "t": 14793.651500976555,
      "d": 83.70527343749927,
      "v": 52
    },
    {
      "midi": 45,
      "hit": false,
      "t": 14897.446040039054,
      "d": 113.42064550781288,
      "v": 52
    },
    {
      "midi": 76,
      "hit": false,
      "t": 15005.00731640623,
      "d": 198.38149804687419,
      "v": 65
    },
    {
      "midi": 73,
      "hit": false,
      "t": 15216.363131835917,
      "d": 199.2185507812501,
      "v": 64
    },
    {
      "midi": 45,
      "hit": false,
      "t": 15216.36313183593,
      "d": 83.70527343749927,
      "v": 52
    },
    {
      "midi": 45,
      "hit": false,
      "t": 15320.157670898428,
      "d": 114.25769824218878,
      "v": 52
    },
    {
      "midi": 76,
      "hit": false,
      "t": 15430.230105468729,
      "d": 213.866973632812,
      "v": 69
    },
    {
      "midi": 33,
      "hit": false,
      "t": 15430.230105468741,
      "d": 213.86697363281382,
      "v": 66
    },
    {
      "midi": 69,
      "hit": false,
      "t": 15657.071396484353,
      "d": 97.5166435546871,
      "v": 64
    },
    {
      "midi": 45,
      "hit": false,
      "t": 15657.071396484367,
      "d": 84.12379980468722,
      "v": 52
    },
    {
      "midi": 73,
      "hit": false,
      "t": 15761.28446191404,
      "d": 101.70190722656298,
      "v": 64
    },
    {
      "midi": 45,
      "hit": false,
      "t": 15761.284461914054,
      "d": 114.25769824218696,
      "v": 52
    },
    {
      "midi": 73,
      "hit": false,
      "t": 15869.682791015603,
      "d": 314.7318281250009,
      "v": 65
    },
    {
      "midi": 45,
      "hit": false,
      "t": 16081.038606445303,
      "d": 83.70527343749927,
      "v": 52
    },
    {
      "midi": 73,
      "hit": false,
      "t": 16184.833145507791,
      "d": 102.95748632812501,
      "v": 64
    },
    {
      "midi": 45,
      "hit": false,
      "t": 16184.833145507802,
      "d": 115.51327734375081,
      "v": 52
    },
    {
      "midi": 74,
      "hit": false,
      "t": 16294.487053710916,
      "d": 200.47412988281212,
      "v": 67
    },
    {
      "midi": 33,
      "hit": false,
      "t": 16294.487053710927,
      "d": 200.47412988281212,
      "v": 64
    },
    {
      "midi": 73,
      "hit": false,
      "t": 16507.935500976542,
      "d": 198.38149804687419,
      "v": 64
    },
    {
      "midi": 45,
      "hit": false,
      "t": 16507.935500976553,
      "d": 83.70527343749927,
      "v": 52
    },
    {
      "midi": 45,
      "hit": false,
      "t": 16611.730040039052,
      "d": 113.42064550781288,
      "v": 52
    },
    {
      "midi": 69,
      "hit": false,
      "t": 16719.29131640623,
      "d": 198.38149804687419,
      "v": 65
    },
    {
      "midi": 67,
      "hit": false,
      "t": 16930.647131835918,
      "d": 199.2185507812501,
      "v": 64
    },
    {
      "midi": 45,
      "hit": false,
      "t": 16930.64713183593,
      "d": 83.70527343749927,
      "v": 52
    },
    {
      "midi": 45,
      "hit": false,
      "t": 17034.441670898428,
      "d": 114.25769824218878,
      "v": 52
    },
    {
      "midi": 72,
      "hit": false,
      "t": 17144.51410546873,
      "d": 213.866973632812,
      "v": 69
    },
    {
      "midi": 29,
      "hit": false,
      "t": 17144.51410546874,
      "d": 213.866973632812,
      "v": 65
    },
    {
      "midi": 71,
      "hit": false,
      "t": 17371.355396484356,
      "d": 97.51664355468893,
      "v": 64
    },
    {
      "midi": 41,
      "hit": false,
      "t": 17371.355396484367,
      "d": 84.12379980468904,
      "v": 52
    },
    {
      "midi": 72,
      "hit": false,
      "t": 17475.568461914045,
      "d": 203.40381445312596,
      "v": 64
    },
    {
      "midi": 41,
      "hit": false,
      "t": 17475.568461914056,
      "d": 114.25769824218878,
      "v": 52
    },
    {
      "midi": 71,
      "hit": false,
      "t": 17691.946593749984,
      "d": 96.67959082031302,
      "v": 64
    },
    {
      "midi": 72,
      "hit": false,
      "t": 17795.322606445297,
      "d": 97.09811718749916,
      "v": 64
    },
    {
      "midi": 41,
      "hit": false,
      "t": 17795.32260644531,
      "d": 83.70527343749927,
      "v": 52
    },
    {
      "midi": 71,
      "hit": false,
      "t": 17899.117145507797,
      "d": 102.9574863281232,
      "v": 64
    },
    {
      "midi": 41,
      "hit": false,
      "t": 17899.117145507807,
      "d": 115.51327734375081,
      "v": 52
    },
    {
      "midi": 72,
      "hit": false,
      "t": 18008.77105371092,
      "d": 103.37601269531297,
      "v": 67
    },
    {
      "midi": 29,
      "hit": false,
      "t": 18008.771053710934,
      "d": 200.47412988281212,
      "v": 63
    },
    {
      "midi": 71,
      "hit": false,
      "t": 18118.843488281233,
      "d": 96.67959082031302,
      "v": 64
    },
    {
      "midi": 67,
      "hit": false,
      "t": 18222.219500976546,
      "d": 97.09811718749916,
      "v": 64
    },
    {
      "midi": 41,
      "hit": false,
      "t": 18222.21950097656,
      "d": 83.70527343749927,
      "v": 52
    },
    {
      "midi": 65,
      "hit": false,
      "t": 18326.014040039045,
      "d": 100.8648544921889,
      "v": 64
    },
    {
      "midi": 41,
      "hit": false,
      "t": 18326.01404003906,
      "d": 113.42064550781288,
      "v": 52
    },
    {
      "midi": 41,
      "hit": false,
      "t": 18644.931131835936,
      "d": 83.70527343749927,
      "v": 52
    },
    {
      "midi": 41,
      "hit": false,
      "t": 18748.725670898435,
      "d": 114.25769824218878,
      "v": 52
    },
    {
      "midi": 74,
      "hit": false,
      "t": 18858.798105468733,
      "d": 213.866973632812,
      "v": 69
    },
    {
      "midi": 31,
      "hit": false,
      "t": 18858.798105468748,
      "d": 213.866973632812,
      "v": 66
    },
    {
      "midi": 73,
      "hit": false,
      "t": 19085.63939648436,
      "d": 97.51664355468893,
      "v": 64
    },
    {
      "midi": 43,
      "hit": false,
      "t": 19085.639396484374,
      "d": 84.12379980468904,
      "v": 52
    },
    {
      "midi": 74,
      "hit": false,
      "t": 19189.852461914048,
      "d": 203.40381445312596,
      "v": 64
    },
    {
      "midi": 43,
      "hit": false,
      "t": 19189.852461914063,
      "d": 114.25769824218878,
      "v": 52
    },
    {
      "midi": 73,
      "hit": false,
      "t": 19406.230593749988,
      "d": 96.67959082031302,
      "v": 64
    },
    {
      "midi": 74,
      "hit": false,
      "t": 19509.6066064453,
      "d": 97.09811718749916,
      "v": 64
    },
    {
      "midi": 43,
      "hit": false,
      "t": 19509.606606445315,
      "d": 83.70527343749927,
      "v": 52
    },
    {
      "midi": 73,
      "hit": false,
      "t": 19613.4011455078,
      "d": 102.9574863281232,
      "v": 64
    },
    {
      "midi": 43,
      "hit": false,
      "t": 19613.401145507814,
      "d": 115.51327734375081,
      "v": 52
    },
    {
      "midi": 74,
      "hit": false,
      "t": 19723.055053710923,
      "d": 103.37601269531297,
      "v": 67
    },
    {
      "midi": 31,
      "hit": false,
      "t": 19723.05505371094,
      "d": 200.47412988281212,
      "v": 64
    },
    {
      "midi": 73,
      "hit": false,
      "t": 19833.127488281236,
      "d": 96.67959082031302,
      "v": 64
    },
    {
      "midi": 69,
      "hit": false,
      "t": 19936.50350097655,
      "d": 97.09811718749916,
      "v": 64
    },
    {
      "midi": 43,
      "hit": false,
      "t": 19936.503500976567,
      "d": 83.70527343749927,
      "v": 52
    },
    {
      "midi": 67,
      "hit": false,
      "t": 20040.298040039048,
      "d": 202.14823535156393,
      "v": 64
    },
    {
      "midi": 43,
      "hit": false,
      "t": 20040.298040039066,
      "d": 113.42064550781288,
      "v": 52
    },
    {
      "midi": 64,
      "hit": false,
      "t": 20255.420592773426,
      "d": 97.09811718749916,
      "v": 64
    },
    {
      "midi": 67,
      "hit": false,
      "t": 20359.215131835925,
      "d": 199.2185507812501,
      "v": 64
    },
    {
      "midi": 43,
      "hit": false,
      "t": 20359.215131835943,
      "d": 83.70527343749927,
      "v": 52
    },
    {
      "midi": 43,
      "hit": false,
      "t": 20463.009670898442,
      "d": 114.25769824218878,
      "v": 52
    },
    {
      "midi": 69,
      "hit": false,
      "t": 20573.082105468737,
      "d": 213.866973632812,
      "v": 69
    },
    {
      "midi": 33,
      "hit": false,
      "t": 20573.082105468755,
      "d": 213.866973632812,
      "v": 66
    },
    {
      "midi": 57,
      "hit": false,
      "t": 20799.923396484362,
      "d": 97.51664355468893,
      "v": 64
    },
    {
      "midi": 45,
      "hit": false,
      "t": 20799.92339648438,
      "d": 84.12379980468904,
      "v": 52
    },
    {
      "midi": 64,
      "hit": false,
      "t": 20904.13646191405,
      "d": 203.40381445312596,
      "v": 64
    },
    {
      "midi": 45,
      "hit": false,
      "t": 20904.13646191407,
      "d": 114.25769824218878,
      "v": 52
    },
    {
      "midi": 57,
      "hit": false,
      "t": 21120.51459374999,
      "d": 96.67959082031302,
      "v": 64
    },
    {
      "midi": 69,
      "hit": false,
      "t": 21223.890606445304,
      "d": 200.47412988281212,
      "v": 64
    },
    {
      "midi": 45,
      "hit": false,
      "t": 21223.890606445322,
      "d": 83.70527343749927,
      "v": 52
    },
    {
      "midi": 45,
      "hit": false,
      "t": 21327.68514550782,
      "d": 115.51327734375081,
      "v": 52
    },
    {
      "midi": 33,
      "hit": false,
      "t": 21437.339053710948,
      "d": 200.47412988281212,
      "v": 64
    },
    {
      "midi": 57,
      "hit": false,
      "t": 21547.411488281243,
      "d": 96.67959082031302,
      "v": 64
    },
    {
      "midi": 69,
      "hit": false,
      "t": 21650.787500976556,
      "d": 198.38149804687419,
      "v": 64
    },
    {
      "midi": 45,
      "hit": false,
      "t": 21650.787500976574,
      "d": 83.70527343749927,
      "v": 52
    },
    {
      "midi": 45,
      "hit": false,
      "t": 21754.582040039073,
      "d": 113.42064550781288,
      "v": 52
    },
    {
      "midi": 69,
      "hit": false,
      "t": 21862.143316406244,
      "d": 100.8648544921889,
      "v": 65
    },
    {
      "midi": 64,
      "hit": false,
      "t": 21969.704592773433,
      "d": 97.09811718749916,
      "v": 64
    },
    {
      "midi": 57,
      "hit": false,
      "t": 22073.49913183593,
      "d": 199.2185507812501,
      "v": 64
    },
    {
      "midi": 45,
      "hit": false,
      "t": 22073.49913183595,
      "d": 83.70527343749927,
      "v": 52
    },
    {
      "midi": 45,
      "hit": false,
      "t": 22177.29367089845,
      "d": 114.25769824218878,
      "v": 52
    },
    {
      "midi": 69,
      "hit": false,
      "t": 22287.366105468744,
      "d": 213.866973632812,
      "v": 69
    },
    {
      "midi": 33,
      "hit": false,
      "t": 22287.36610546876,
      "d": 213.866973632812,
      "v": 66
    },
    {
      "midi": 57,
      "hit": false,
      "t": 22514.20739648437,
      "d": 97.51664355468893,
      "v": 64
    },
    {
      "midi": 45,
      "hit": false,
      "t": 22514.207396484388,
      "d": 84.12379980468904,
      "v": 52
    },
    {
      "midi": 64,
      "hit": false,
      "t": 22618.42046191406,
      "d": 203.40381445312596,
      "v": 64
    },
    {
      "midi": 45,
      "hit": false,
      "t": 22618.420461914076,
      "d": 114.25769824218878,
      "v": 52
    },
    {
      "midi": 57,
      "hit": false,
      "t": 22834.798593749998,
      "d": 96.67959082031302,
      "v": 64
    },
    {
      "midi": 69,
      "hit": false,
      "t": 22938.17460644531,
      "d": 200.47412988281212,
      "v": 64
    },
    {
      "midi": 45,
      "hit": false,
      "t": 22938.17460644533,
      "d": 83.70527343749927,
      "v": 52
    },
    {
      "midi": 45,
      "hit": false,
      "t": 23041.96914550783,
      "d": 115.51327734375081,
      "v": 52
    },
    {
      "midi": 33,
      "hit": false,
      "t": 23151.623053710955,
      "d": 200.47412988281212,
      "v": 64
    },
    {
      "midi": 57,
      "hit": false,
      "t": 23261.69548828125,
      "d": 96.67959082031302,
      "v": 64
    },
    {
      "midi": 69,
      "hit": false,
      "t": 23365.071500976563,
      "d": 198.38149804687419,
      "v": 64
    },
    {
      "midi": 45,
      "hit": false,
      "t": 23365.07150097658,
      "d": 83.70527343749927,
      "v": 52
    },
    {
      "midi": 45,
      "hit": false,
      "t": 23468.86604003908,
      "d": 113.42064550781288,
      "v": 52
    },
    {
      "midi": 69,
      "hit": false,
      "t": 23576.42731640625,
      "d": 100.8648544921889,
      "v": 65
    },
    {
      "midi": 64,
      "hit": false,
      "t": 23683.98859277344,
      "d": 97.09811718749916,
      "v": 64
    },
    {
      "midi": 57,
      "hit": false,
      "t": 23787.78313183594,
      "d": 199.2185507812501,
      "v": 64
    },
    {
      "midi": 45,
      "hit": false,
      "t": 23787.783131835957,
      "d": 83.70527343749927,
      "v": 52
    },
    {
      "midi": 45,
      "hit": false,
      "t": 23891.577670898456,
      "d": 114.25769824218878,
      "v": 52
    },
    {
      "midi": 69,
      "hit": false,
      "t": 24001.65010546875,
      "d": 213.866973632812,
      "v": 69
    },
    {
      "midi": 33,
      "hit": false,
      "t": 24001.65010546877,
      "d": 213.866973632812,
      "v": 66
    },
    {
      "midi": 57,
      "hit": false,
      "t": 24228.491396484376,
      "d": 97.51664355468893,
      "v": 64
    },
    {
      "midi": 45,
      "hit": false,
      "t": 24228.491396484394,
      "d": 84.12379980468904,
      "v": 52
    },
    {
      "midi": 64,
      "hit": false,
      "t": 24332.704461914065,
      "d": 203.40381445312596,
      "v": 64
    },
    {
      "midi": 45,
      "hit": false,
      "t": 24332.704461914083,
      "d": 114.25769824218878,
      "v": 52
    },
    {
      "midi": 57,
      "hit": false,
      "t": 24549.082593750005,
      "d": 96.67959082031302,
      "v": 64
    },
    {
      "midi": 69,
      "hit": false,
      "t": 24652.458606445318,
      "d": 200.47412988281212,
      "v": 64
    },
    {
      "midi": 45,
      "hit": false,
      "t": 24652.458606445336,
      "d": 83.70527343749927,
      "v": 52
    },
    {
      "midi": 45,
      "hit": false,
      "t": 24756.253145507835,
      "d": 115.51327734375081,
      "v": 52
    },
    {
      "midi": 33,
      "hit": false,
      "t": 24865.907053710962,
      "d": 200.47412988281212,
      "v": 64
    },
    {
      "midi": 57,
      "hit": false,
      "t": 24975.979488281257,
      "d": 96.67959082031302,
      "v": 64
    },
    {
      "midi": 69,
      "hit": false,
      "t": 25079.35550097657,
      "d": 198.38149804687419,
      "v": 64
    },
    {
      "midi": 45,
      "hit": false,
      "t": 25079.355500976588,
      "d": 83.70527343749927,
      "v": 52
    },
    {
      "midi": 45,
      "hit": false,
      "t": 25183.150040039087,
      "d": 113.42064550781288,
      "v": 52
    },
    {
      "midi": 69,
      "hit": false,
      "t": 25290.711316406258,
      "d": 100.8648544921889,
      "v": 65
    },
    {
      "midi": 64,
      "hit": false,
      "t": 25398.272592773446,
      "d": 97.09811718749916,
      "v": 64
    },
    {
      "midi": 57,
      "hit": false,
      "t": 25502.067131835945,
      "d": 199.2185507812501,
      "v": 64
    },
    {
      "midi": 45,
      "hit": false,
      "t": 25502.067131835964,
      "d": 83.70527343749927,
      "v": 52
    },
    {
      "midi": 45,
      "hit": false,
      "t": 25605.861670898463,
      "d": 114.25769824218878,
      "v": 52
    },
    {
      "midi": 69,
      "hit": false,
      "t": 25715.934105468757,
      "d": 213.866973632812,
      "v": 69
    },
    {
      "midi": 33,
      "hit": false,
      "t": 25715.934105468776,
      "d": 213.866973632812,
      "v": 66
    },
    {
      "midi": 57,
      "hit": false,
      "t": 25942.775396484383,
      "d": 97.51664355468893,
      "v": 64
    },
    {
      "midi": 45,
      "hit": false,
      "t": 25942.7753964844,
      "d": 84.12379980468904,
      "v": 52
    },
    {
      "midi": 64,
      "hit": false,
      "t": 26046.988461914072,
      "d": 203.40381445312596,
      "v": 64
    },
    {
      "midi": 45,
      "hit": false,
      "t": 26046.98846191409,
      "d": 114.25769824218878,
      "v": 52
    },
    {
      "midi": 57,
      "hit": false,
      "t": 26263.36659375001,
      "d": 96.67959082031302,
      "v": 64
    },
    {
      "midi": 69,
      "hit": false,
      "t": 26366.742606445325,
      "d": 200.47412988281212,
      "v": 64
    },
    {
      "midi": 45,
      "hit": false,
      "t": 26366.742606445343,
      "d": 83.70527343749927,
      "v": 52
    },
    {
      "midi": 45,
      "hit": false,
      "t": 26470.537145507842,
      "d": 115.51327734375081,
      "v": 52
    },
    {
      "midi": 33,
      "hit": false,
      "t": 26580.19105371097,
      "d": 200.47412988281212,
      "v": 64
    },
    {
      "midi": 57,
      "hit": false,
      "t": 26690.263488281264,
      "d": 96.67959082031302,
      "v": 64
    },
    {
      "midi": 69,
      "hit": false,
      "t": 26793.639500976577,
      "d": 198.38149804687419,
      "v": 64
    },
    {
      "midi": 45,
      "hit": false,
      "t": 26793.639500976595,
      "d": 83.70527343749927,
      "v": 52
    },
    {
      "midi": 45,
      "hit": false,
      "t": 26897.434040039094,
      "d": 113.42064550781288,
      "v": 52
    },
    {
      "midi": 69,
      "hit": false,
      "t": 27004.995316406264,
      "d": 100.8648544921889,
      "v": 65
    },
    {
      "midi": 64,
      "hit": false,
      "t": 27112.556592773453,
      "d": 97.09811718749916,
      "v": 64
    },
    {
      "midi": 57,
      "hit": false,
      "t": 27216.351131835952,
      "d": 199.2185507812501,
      "v": 64
    },
    {
      "midi": 45,
      "hit": false,
      "t": 27216.35113183597,
      "d": 83.70527343749927,
      "v": 52
    },
    {
      "midi": 45,
      "hit": false,
      "t": 27320.14567089847,
      "d": 114.25769824218878,
      "v": 52
    },
    {
      "midi": 69,
      "hit": false,
      "t": 27430.218105468764,
      "d": 213.866973632812,
      "v": 69
    },
    {
      "midi": 33,
      "hit": false,
      "t": 27430.218105468783,
      "d": 213.866973632812,
      "v": 66
    },
    {
      "midi": 73,
      "hit": false,
      "t": 27657.05939648439,
      "d": 199.63707714843622,
      "v": 64
    },
    {
      "midi": 45,
      "hit": false,
      "t": 27657.05939648441,
      "d": 84.12379980468904,
      "v": 52
    },
    {
      "midi": 45,
      "hit": false,
      "t": 27761.272461914097,
      "d": 114.25769824218878,
      "v": 52
    },
    {
      "midi": 76,
      "hit": false,
      "t": 27869.67079101564,
      "d": 198.38149804687419,
      "v": 65
    },
    {
      "midi": 85,
      "hit": false,
      "t": 28081.026606445328,
      "d": 200.47412988281212,
      "v": 64
    },
    {
      "midi": 45,
      "hit": false,
      "t": 28081.02660644535,
      "d": 83.70527343749927,
      "v": 52
    },
    {
      "midi": 45,
      "hit": false,
      "t": 28184.82114550785,
      "d": 115.51327734375081,
      "v": 52
    },
    {
      "midi": 33,
      "hit": false,
      "t": 28294.475053710976,
      "d": 200.47412988281212,
      "v": 64
    },
    {
      "midi": 83,
      "hit": false,
      "t": 28507.923500976576,
      "d": 198.38149804687419,
      "v": 64
    },
    {
      "midi": 45,
      "hit": false,
      "t": 28507.9235009766,
      "d": 83.70527343749927,
      "v": 52
    },
    {
      "midi": 45,
      "hit": false,
      "t": 28611.7180400391,
      "d": 113.42064550781288,
      "v": 52
    },
    {
      "midi": 81,
      "hit": false,
      "t": 28719.279316406264,
      "d": 198.38149804687419,
      "v": 65
    },
    {
      "midi": 45,
      "hit": false,
      "t": 28930.635131835978,
      "d": 83.70527343749927,
      "v": 52
    },
    {
      "midi": 45,
      "hit": false,
      "t": 29034.429670898477,
      "d": 114.25769824218878,
      "v": 52
    },
    {
      "midi": 69,
      "hit": false,
      "t": 29144.502105468764,
      "d": 213.866973632812,
      "v": 69
    },
    {
      "midi": 33,
      "hit": false,
      "t": 29144.50210546879,
      "d": 213.866973632812,
      "v": 66
    },
    {
      "midi": 74,
      "hit": false,
      "t": 29371.34339648439,
      "d": 199.63707714843622,
      "v": 64
    },
    {
      "midi": 45,
      "hit": false,
      "t": 29371.343396484415,
      "d": 84.12379980468904,
      "v": 52
    },
    {
      "midi": 45,
      "hit": false,
      "t": 29475.556461914104,
      "d": 114.25769824218878,
      "v": 52
    },
    {
      "midi": 78,
      "hit": false,
      "t": 29583.95479101564,
      "d": 198.38149804687419,
      "v": 65
    },
    {
      "midi": 76,
      "hit": false,
      "t": 29795.310606445328,
      "d": 200.47412988281212,
      "v": 64
    },
    {
      "midi": 45,
      "hit": false,
      "t": 29795.310606445357,
      "d": 83.70527343749927,
      "v": 52
    },
    {
      "midi": 45,
      "hit": false,
      "t": 29899.105145507856,
      "d": 115.51327734375081,
      "v": 52
    },
    {
      "midi": 33,
      "hit": false,
      "t": 30008.759053710983,
      "d": 200.47412988281212,
      "v": 64
    },
    {
      "midi": 73,
      "hit": false,
      "t": 30222.207500976576,
      "d": 198.38149804687419,
      "v": 64
    },
    {
      "midi": 45,
      "hit": false,
      "t": 30222.20750097661,
      "d": 83.70527343749927,
      "v": 52
    },
    {
      "midi": 45,
      "hit": false,
      "t": 30326.002040039108,
      "d": 113.42064550781288,
      "v": 52
    },
    {
      "midi": 69,
      "hit": false,
      "t": 30433.563316406264,
      "d": 198.38149804687419,
      "v": 65
    },
    {
      "midi": 45,
      "hit": false,
      "t": 30644.919131835984,
      "d": 83.70527343749927,
      "v": 52
    },
    {
      "midi": 45,
      "hit": false,
      "t": 30748.713670898484,
      "d": 114.25769824218878,
      "v": 52
    },
    {
      "midi": 65,
      "hit": false,
      "t": 30858.786105468764,
      "d": 213.866973632812,
      "v": 69
    },
    {
      "midi": 29,
      "hit": false,
      "t": 30858.786105468796,
      "d": 213.866973632812,
      "v": 65
    },
    {
      "midi": 69,
      "hit": false,
      "t": 31085.62739648439,
      "d": 199.63707714843622,
      "v": 64
    },
    {
      "midi": 41,
      "hit": false,
      "t": 31085.627396484422,
      "d": 84.12379980468904,
      "v": 52
    },
    {
      "midi": 41,
      "hit": false,
      "t": 31189.84046191411,
      "d": 114.25769824218878,
      "v": 52
    },
    {
      "midi": 72,
      "hit": false,
      "t": 31298.23879101564,
      "d": 198.38149804687419,
      "v": 65
    },
    {
      "midi": 71,
      "hit": false,
      "t": 31509.594606445327,
      "d": 200.47412988281212,
      "v": 64
    },
    {
      "midi": 41,
      "hit": false,
      "t": 31509.594606445364,
      "d": 83.70527343749927,
      "v": 52
    },
    {
      "midi": 41,
      "hit": false,
      "t": 31613.389145507863,
      "d": 115.51327734375081,
      "v": 52
    },
    {
      "midi": 29,
      "hit": false,
      "t": 31723.04305371099,
      "d": 200.47412988281212,
      "v": 63
    },
    {
      "midi": 69,
      "hit": false,
      "t": 31936.491500976575,
      "d": 198.38149804687419,
      "v": 64
    },
    {
      "midi": 41,
      "hit": false,
      "t": 31936.491500976615,
      "d": 83.70527343749927,
      "v": 52
    },
    {
      "midi": 41,
      "hit": false,
      "t": 32040.286040039115,
      "d": 113.42064550781288,
      "v": 52
    },
    {
      "midi": 71,
      "hit": false,
      "t": 32147.847316406263,
      "d": 198.38149804687419,
      "v": 65
    },
    {
      "midi": 67,
      "hit": false,
      "t": 32359.20313183595,
      "d": 199.2185507812501,
      "v": 64
    },
    {
      "midi": 41,
      "hit": false,
      "t": 32359.20313183599,
      "d": 83.70527343749927,
      "v": 52
    },
    {
      "midi": 41,
      "hit": false,
      "t": 32462.99767089849,
      "d": 114.25769824218878,
      "v": 52
    },
    {
      "midi": 67,
      "hit": false,
      "t": 32573.070105468763,
      "d": 213.866973632812,
      "v": 69
    },
    {
      "midi": 31,
      "hit": false,
      "t": 32573.070105468803,
      "d": 213.86697363281564,
      "v": 66
    },
    {
      "midi": 71,
      "hit": false,
      "t": 32799.911396484385,
      "d": 199.63707714843622,
      "v": 64
    },
    {
      "midi": 43,
      "hit": false,
      "t": 32799.91139648443,
      "d": 84.1237998046854,
      "v": 52
    },
    {
      "midi": 43,
      "hit": false,
      "t": 32904.124461914114,
      "d": 114.25769824218878,
      "v": 52
    },
    {
      "midi": 74,
      "hit": false,
      "t": 33012.52279101563,
      "d": 198.38149804687419,
      "v": 65
    },
    {
      "midi": 73,
      "hit": false,
      "t": 33223.878606445316,
      "d": 200.47412988281576,
      "v": 64
    },
    {
      "midi": 43,
      "hit": false,
      "t": 33223.87860644537,
      "d": 83.70527343750291,
      "v": 52
    },
    {
      "midi": 43,
      "hit": false,
      "t": 33327.67314550787,
      "d": 115.51327734375081,
      "v": 52
    },
    {
      "midi": 31,
      "hit": false,
      "t": 33437.32705371099,
      "d": 200.47412988281576,
      "v": 64
    },
    {
      "midi": 71,
      "hit": false,
      "t": 33650.77550097657,
      "d": 198.38149804687419,
      "v": 64
    },
    {
      "midi": 43,
      "hit": false,
      "t": 33650.77550097662,
      "d": 83.70527343750291,
      "v": 52
    },
    {
      "midi": 43,
      "hit": false,
      "t": 33754.57004003912,
      "d": 113.42064550780924,
      "v": 52
    },
    {
      "midi": 73,
      "hit": false,
      "t": 33862.13131640625,
      "d": 198.38149804687419,
      "v": 65
    },
    {
      "midi": 69,
      "hit": false,
      "t": 34073.48713183594,
      "d": 199.21855078124645,
      "v": 64
    },
    {
      "midi": 43,
      "hit": false,
      "t": 34073.487131835995,
      "d": 83.70527343750291,
      "v": 52
    },
    {
      "midi": 43,
      "hit": false,
      "t": 34177.2816708985,
      "d": 114.25769824218878,
      "v": 52
    },
    {
      "midi": 69,
      "hit": false,
      "t": 34287.354105468745,
      "d": 213.86697363281564,
      "v": 69
    },
    {
      "midi": 33,
      "hit": false,
      "t": 34287.35410546881,
      "d": 213.86697363281564,
      "v": 66
    },
    {
      "midi": 73,
      "hit": false,
      "t": 34514.19539648437,
      "d": 199.63707714843622,
      "v": 64
    },
    {
      "midi": 45,
      "hit": false,
      "t": 34514.195396484436,
      "d": 84.1237998046854,
      "v": 52
    },
    {
      "midi": 45,
      "hit": false,
      "t": 34618.40846191412,
      "d": 114.25769824218878,
      "v": 52
    },
    {
      "midi": 76,
      "hit": false,
      "t": 34726.80679101562,
      "d": 198.38149804687419,
      "v": 65
    },
    {
      "midi": 85,
      "hit": false,
      "t": 34938.1626064453,
      "d": 200.47412988281576,
      "v": 64
    },
    {
      "midi": 45,
      "hit": false,
      "t": 34938.162606445374,
      "d": 83.70527343750291,
      "v": 52
    },
    {
      "midi": 45,
      "hit": false,
      "t": 35041.95714550788,
      "d": 115.51327734375081,
      "v": 52
    },
    {
      "midi": 33,
      "hit": false,
      "t": 35151.611053711,
      "d": 200.47412988281576,
      "v": 64
    },
    {
      "midi": 83,
      "hit": false,
      "t": 35365.05950097655,
      "d": 198.38149804687419,
      "v": 64
    },
    {
      "midi": 45,
      "hit": false,
      "t": 35365.059500976626,
      "d": 83.70527343750291,
      "v": 52
    },
    {
      "midi": 45,
      "hit": false,
      "t": 35468.85404003913,
      "d": 113.42064550780924,
      "v": 52
    },
    {
      "midi": 81,
      "hit": false,
      "t": 35576.41531640624,
      "d": 198.38149804687419,
      "v": 65
    },
    {
      "midi": 45,
      "hit": false,
      "t": 35787.771131836,
      "d": 83.70527343750291,
      "v": 52
    },
    {
      "midi": 45,
      "hit": false,
      "t": 35891.565670898504,
      "d": 114.25769824218878,
      "v": 52
    },
    {
      "midi": 69,
      "hit": false,
      "t": 36001.63810546874,
      "d": 213.86697363281564,
      "v": 69
    },
    {
      "midi": 33,
      "hit": false,
      "t": 36001.63810546882,
      "d": 213.86697363281564,
      "v": 66
    },
    {
      "midi": 74,
      "hit": false,
      "t": 36228.47939648436,
      "d": 199.63707714843622,
      "v": 64
    },
    {
      "midi": 45,
      "hit": false,
      "t": 36228.47939648444,
      "d": 84.1237998046854,
      "v": 52
    },
    {
      "midi": 45,
      "hit": false,
      "t": 36332.69246191413,
      "d": 114.25769824218878,
      "v": 52
    },
    {
      "midi": 78,
      "hit": false,
      "t": 36441.09079101561,
      "d": 198.38149804687419,
      "v": 65
    },
    {
      "midi": 76,
      "hit": false,
      "t": 36652.44660644529,
      "d": 200.47412988281576,
      "v": 64
    },
    {
      "midi": 45,
      "hit": false,
      "t": 36652.44660644538,
      "d": 83.70527343750291,
      "v": 52
    },
    {
      "midi": 45,
      "hit": false,
      "t": 36756.24114550788,
      "d": 115.51327734375081,
      "v": 52
    },
    {
      "midi": 33,
      "hit": false,
      "t": 36865.89505371101,
      "d": 200.47412988281576,
      "v": 64
    },
    {
      "midi": 73,
      "hit": false,
      "t": 37079.343500976545,
      "d": 198.38149804687419,
      "v": 64
    },
    {
      "midi": 45,
      "hit": false,
      "t": 37079.34350097663,
      "d": 83.70527343750291,
      "v": 52
    },
    {
      "midi": 45,
      "hit": false,
      "t": 37183.138040039135,
      "d": 113.42064550780924,
      "v": 52
    },
    {
      "midi": 69,
      "hit": false,
      "t": 37290.69931640623,
      "d": 198.38149804687419,
      "v": 65
    },
    {
      "midi": 45,
      "hit": false,
      "t": 37502.05513183601,
      "d": 83.70527343750291,
      "v": 52
    },
    {
      "midi": 45,
      "hit": false,
      "t": 37605.84967089851,
      "d": 114.25769824218878,
      "v": 52
    },
    {
      "midi": 65,
      "hit": false,
      "t": 37715.92210546873,
      "d": 213.86697363281564,
      "v": 69
    },
    {
      "midi": 29,
      "hit": false,
      "t": 37715.922105468824,
      "d": 213.86697363281564,
      "v": 65
    },
    {
      "midi": 69,
      "hit": false,
      "t": 37942.763396484355,
      "d": 199.63707714843622,
      "v": 64
    },
    {
      "midi": 41,
      "hit": false,
      "t": 37942.76339648445,
      "d": 84.1237998046854,
      "v": 52
    },
    {
      "midi": 41,
      "hit": false,
      "t": 38046.976461914135,
      "d": 114.25769824218878,
      "v": 52
    },
    {
      "midi": 72,
      "hit": false,
      "t": 38155.3747910156,
      "d": 198.38149804687419,
      "v": 65
    },
    {
      "midi": 71,
      "hit": false,
      "t": 38366.730606445286,
      "d": 200.47412988281576,
      "v": 64
    },
    {
      "midi": 41,
      "hit": false,
      "t": 38366.73060644539,
      "d": 83.70527343750291,
      "v": 52
    },
    {
      "midi": 41,
      "hit": false,
      "t": 38470.52514550789,
      "d": 115.51327734375081,
      "v": 52
    },
    {
      "midi": 29,
      "hit": false,
      "t": 38580.179053711014,
      "d": 200.47412988281576,
      "v": 63
    },
    {
      "midi": 69,
      "hit": false,
      "t": 38793.62750097654,
      "d": 198.38149804687419,
      "v": 64
    },
    {
      "midi": 41,
      "hit": false,
      "t": 38793.62750097664,
      "d": 83.70527343750291,
      "v": 52
    },
    {
      "midi": 41,
      "hit": false,
      "t": 38897.42204003914,
      "d": 113.42064550780924,
      "v": 52
    },
    {
      "midi": 71,
      "hit": false,
      "t": 39004.98331640622,
      "d": 198.38149804687419,
      "v": 65
    },
    {
      "midi": 67,
      "hit": false,
      "t": 39216.339131835906,
      "d": 199.21855078124645,
      "v": 64
    },
    {
      "midi": 41,
      "hit": false,
      "t": 39216.339131836015,
      "d": 83.70527343750291,
      "v": 52
    },
    {
      "midi": 41,
      "hit": false,
      "t": 39320.13367089852,
      "d": 114.25769824218878,
      "v": 52
    },
    {
      "midi": 67,
      "hit": false,
      "t": 39430.206105468715,
      "d": 213.86697363281564,
      "v": 69
    },
    {
      "midi": 31,
      "hit": false,
      "t": 39430.20610546883,
      "d": 213.86697363281564,
      "v": 66
    },
    {
      "midi": 71,
      "hit": false,
      "t": 39657.04739648434,
      "d": 199.63707714843622,
      "v": 64
    },
    {
      "midi": 43,
      "hit": false,
      "t": 39657.04739648446,
      "d": 84.1237998046854,
      "v": 52
    },
    {
      "midi": 43,
      "hit": false,
      "t": 39761.26046191414,
      "d": 114.25769824218878,
      "v": 52
    },
    {
      "midi": 74,
      "hit": false,
      "t": 39869.65879101559,
      "d": 198.38149804687419,
      "v": 65
    },
    {
      "midi": 73,
      "hit": false,
      "t": 40081.01460644527,
      "d": 200.47412988281576,
      "v": 64
    },
    {
      "midi": 43,
      "hit": false,
      "t": 40081.014606445395,
      "d": 83.70527343750291,
      "v": 52
    },
    {
      "midi": 43,
      "hit": false,
      "t": 40184.8091455079,
      "d": 115.51327734375081,
      "v": 52
    },
    {
      "midi": 31,
      "hit": false,
      "t": 40294.46305371102,
      "d": 200.47412988281576,
      "v": 64
    },
    {
      "midi": 71,
      "hit": false,
      "t": 40507.91150097652,
      "d": 198.38149804687419,
      "v": 64
    },
    {
      "midi": 43,
      "hit": false,
      "t": 40507.91150097665,
      "d": 83.70527343750291,
      "v": 52
    },
    {
      "midi": 43,
      "hit": false,
      "t": 40611.70604003915,
      "d": 113.42064550780924,
      "v": 52
    },
    {
      "midi": 73,
      "hit": false,
      "t": 40719.26731640621,
      "d": 198.38149804687419,
      "v": 65
    },
    {
      "midi": 69,
      "hit": false,
      "t": 40930.62313183589,
      "d": 199.21855078124645,
      "v": 64
    },
    {
      "midi": 43,
      "hit": false,
      "t": 40930.62313183602,
      "d": 83.70527343750291,
      "v": 52
    },
    {
      "midi": 43,
      "hit": false,
      "t": 41034.417670898525,
      "d": 114.25769824218878,
      "v": 52
    },
    {
      "midi": 74,
      "hit": false,
      "t": 41144.4901054687,
      "d": 213.86697363281564,
      "v": 69
    },
    {
      "midi": 38,
      "hit": false,
      "t": 41144.49010546884,
      "d": 213.86697363281564,
      "v": 68
    },
    {
      "midi": 78,
      "hit": false,
      "t": 41371.331396484326,
      "d": 199.63707714843622,
      "v": 64
    },
    {
      "midi": 50,
      "hit": false,
      "t": 41371.331396484464,
      "d": 84.1237998046854,
      "v": 52
    },
    {
      "midi": 50,
      "hit": false,
      "t": 41475.54446191415,
      "d": 114.25769824218878,
      "v": 52
    },
    {
      "midi": 81,
      "hit": false,
      "t": 41583.94279101557,
      "d": 198.38149804687419,
      "v": 65
    },
    {
      "midi": 90,
      "hit": false,
      "t": 41795.298606445256,
      "d": 200.47412988281576,
      "v": 64
    },
    {
      "midi": 50,
      "hit": false,
      "t": 41795.2986064454,
      "d": 83.70527343750291,
      "v": 52
    },
    {
      "midi": 50,
      "hit": false,
      "t": 41899.093145507904,
      "d": 115.51327734375081,
      "v": 52
    },
    {
      "midi": 38,
      "hit": false,
      "t": 42008.74705371103,
      "d": 200.47412988281576,
      "v": 66
    },
    {
      "midi": 88,
      "hit": false,
      "t": 42222.19550097651,
      "d": 198.38149804687419,
      "v": 64
    },
    {
      "midi": 50,
      "hit": false,
      "t": 42222.19550097665,
      "d": 83.70527343750291,
      "v": 52
    },
    {
      "midi": 50,
      "hit": false,
      "t": 42325.990040039156,
      "d": 113.42064550780924,
      "v": 52
    },
    {
      "midi": 86,
      "hit": false,
      "t": 42433.55131640619,
      "d": 198.38149804687419,
      "v": 65
    },
    {
      "midi": 50,
      "hit": false,
      "t": 42644.90713183603,
      "d": 83.70527343750291,
      "v": 52
    },
    {
      "midi": 50,
      "hit": false,
      "t": 42748.70167089853,
      "d": 114.25769824218878,
      "v": 52
    },
    {
      "midi": 74,
      "hit": false,
      "t": 42858.77410546869,
      "d": 213.86697363281564,
      "v": 69
    },
    {
      "midi": 38,
      "hit": false,
      "t": 42858.774105468845,
      "d": 213.86697363281564,
      "v": 68
    },
    {
      "midi": 79,
      "hit": false,
      "t": 43085.61539648432,
      "d": 199.63707714843622,
      "v": 64
    },
    {
      "midi": 50,
      "hit": false,
      "t": 43085.61539648447,
      "d": 84.1237998046854,
      "v": 52
    },
    {
      "midi": 50,
      "hit": false,
      "t": 43189.828461914156,
      "d": 114.25769824218878,
      "v": 52
    },
    {
      "midi": 83,
      "hit": false,
      "t": 43298.226791015564,
      "d": 198.38149804687419,
      "v": 65
    },
    {
      "midi": 81,
      "hit": false,
      "t": 43509.58260644525,
      "d": 200.47412988281576,
      "v": 64
    },
    {
      "midi": 50,
      "hit": false,
      "t": 43509.58260644541,
      "d": 83.70527343750291,
      "v": 52
    },
    {
      "midi": 50,
      "hit": false,
      "t": 43613.37714550791,
      "d": 115.51327734375081,
      "v": 52
    },
    {
      "midi": 38,
      "hit": false,
      "t": 43723.031053711034,
      "d": 200.47412988281576,
      "v": 66
    },
    {
      "midi": 78,
      "hit": false,
      "t": 43936.4795009765,
      "d": 198.38149804687419,
      "v": 64
    },
    {
      "midi": 50,
      "hit": false,
      "t": 43936.47950097666,
      "d": 83.70527343750291,
      "v": 52
    },
    {
      "midi": 50,
      "hit": false,
      "t": 44040.27404003916,
      "d": 113.42064550780924,
      "v": 52
    },
    {
      "midi": 74,
      "hit": false,
      "t": 44147.835316406185,
      "d": 198.38149804687419,
      "v": 65
    },
    {
      "midi": 50,
      "hit": false,
      "t": 44359.191131836036,
      "d": 83.70527343750291,
      "v": 52
    },
    {
      "midi": 50,
      "hit": false,
      "t": 44462.98567089854,
      "d": 114.25769824218878,
      "v": 52
    },
    {
      "midi": 70,
      "hit": false,
      "t": 44573.058105468685,
      "d": 213.86697363281564,
      "v": 69
    },
    {
      "midi": 34,
      "hit": false,
      "t": 44573.05810546885,
      "d": 213.86697363281564,
      "v": 67
    },
    {
      "midi": 74,
      "hit": false,
      "t": 44799.89939648431,
      "d": 199.63707714843622,
      "v": 64
    },
    {
      "midi": 46,
      "hit": false,
      "t": 44799.89939648448,
      "d": 84.1237998046854,
      "v": 52
    },
    {
      "midi": 46,
      "hit": false,
      "t": 44904.11246191416,
      "d": 114.25769824218878,
      "v": 52
    },
    {
      "midi": 77,
      "hit": false,
      "t": 45012.51079101556,
      "d": 198.38149804687419,
      "v": 65
    },
    {
      "midi": 76,
      "hit": false,
      "t": 45223.86660644524,
      "d": 200.47412988281576,
      "v": 64
    },
    {
      "midi": 46,
      "hit": false,
      "t": 45223.866606445416,
      "d": 83.70527343750291,
      "v": 52
    },
    {
      "midi": 46,
      "hit": false,
      "t": 45327.66114550792,
      "d": 115.51327734375081,
      "v": 52
    },
    {
      "midi": 34,
      "hit": false,
      "t": 45437.31505371104,
      "d": 200.47412988281576,
      "v": 65
    },
    {
      "midi": 74,
      "hit": false,
      "t": 45650.76350097649,
      "d": 198.38149804687419,
      "v": 64
    },
    {
      "midi": 46,
      "hit": false,
      "t": 45650.76350097667,
      "d": 83.70527343750291,
      "v": 52
    },
    {
      "midi": 46,
      "hit": false,
      "t": 45754.55804003917,
      "d": 113.42064550780924,
      "v": 52
    },
    {
      "midi": 76,
      "hit": false,
      "t": 45862.11931640618,
      "d": 198.38149804687419,
      "v": 65
    },
    {
      "midi": 72,
      "hit": false,
      "t": 46073.47513183586,
      "d": 199.21855078124645,
      "v": 64
    },
    {
      "midi": 46,
      "hit": false,
      "t": 46073.47513183604,
      "d": 83.70527343750291,
      "v": 52
    },
    {
      "midi": 46,
      "hit": false,
      "t": 46177.269670898546,
      "d": 114.25769824218878,
      "v": 52
    },
    {
      "midi": 72,
      "hit": false,
      "t": 46287.34210546867,
      "d": 213.86697363281564,
      "v": 69
    },
    {
      "midi": 36,
      "hit": false,
      "t": 46287.34210546886,
      "d": 213.86697363281564,
      "v": 67
    },
    {
      "midi": 76,
      "hit": false,
      "t": 46514.183396484295,
      "d": 199.63707714843622,
      "v": 64
    },
    {
      "midi": 48,
      "hit": false,
      "t": 46514.183396484485,
      "d": 84.1237998046854,
      "v": 52
    },
    {
      "midi": 48,
      "hit": false,
      "t": 46618.39646191417,
      "d": 114.25769824218878,
      "v": 52
    },
    {
      "midi": 79,
      "hit": false,
      "t": 46726.79479101554,
      "d": 198.38149804687419,
      "v": 65
    },
    {
      "midi": 78,
      "hit": false,
      "t": 46938.150606445226,
      "d": 200.47412988281576,
      "v": 64
    },
    {
      "midi": 48,
      "hit": false,
      "t": 46938.15060644542,
      "d": 83.70527343750291,
      "v": 52
    },
    {
      "midi": 48,
      "hit": false,
      "t": 47041.945145507925,
      "d": 115.51327734375081,
      "v": 52
    },
    {
      "midi": 36,
      "hit": false,
      "t": 47151.59905371105,
      "d": 200.47412988281576,
      "v": 65
    },
    {
      "midi": 76,
      "hit": false,
      "t": 47365.04750097648,
      "d": 198.38149804687419,
      "v": 64
    },
    {
      "midi": 48,
      "hit": false,
      "t": 47365.047500976674,
      "d": 83.70527343750291,
      "v": 52
    },
    {
      "midi": 48,
      "hit": false,
      "t": 47468.84204003918,
      "d": 113.42064550780924,
      "v": 52
    },
    {
      "midi": 78,
      "hit": false,
      "t": 47576.40331640616,
      "d": 198.38149804687419,
      "v": 65
    },
    {
      "midi": 74,
      "hit": false,
      "t": 47787.759131835846,
      "d": 199.21855078124645,
      "v": 64
    },
    {
      "midi": 48,
      "hit": false,
      "t": 47787.75913183605,
      "d": 83.70527343750291,
      "v": 52
    },
    {
      "midi": 48,
      "hit": false,
      "t": 47891.55367089855,
      "d": 114.25769824218878,
      "v": 52
    },
    {
      "midi": 74,
      "hit": false,
      "t": 48001.626105468655,
      "d": 213.86697363281564,
      "v": 69
    },
    {
      "midi": 38,
      "hit": false,
      "t": 48001.626105468866,
      "d": 213.86697363281564,
      "v": 68
    },
    {
      "midi": 78,
      "hit": false,
      "t": 48228.46739648428,
      "d": 199.63707714843622,
      "v": 64
    },
    {
      "midi": 50,
      "hit": false,
      "t": 48228.46739648449,
      "d": 84.1237998046854,
      "v": 52
    },
    {
      "midi": 50,
      "hit": false,
      "t": 48332.68046191418,
      "d": 114.25769824218878,
      "v": 52
    },
    {
      "midi": 81,
      "hit": false,
      "t": 48441.07879101553,
      "d": 198.38149804687419,
      "v": 65
    },
    {
      "midi": 90,
      "hit": false,
      "t": 48652.43460644521,
      "d": 200.47412988281576,
      "v": 64
    },
    {
      "midi": 50,
      "hit": false,
      "t": 48652.43460644543,
      "d": 83.70527343750291,
      "v": 52
    },
    {
      "midi": 50,
      "hit": false,
      "t": 48756.22914550793,
      "d": 115.51327734375081,
      "v": 52
    },
    {
      "midi": 38,
      "hit": false,
      "t": 48865.883053711055,
      "d": 200.47412988281576,
      "v": 66
    },
    {
      "midi": 88,
      "hit": false,
      "t": 49079.33150097646,
      "d": 198.38149804687419,
      "v": 64
    },
    {
      "midi": 50,
      "hit": false,
      "t": 49079.33150097668,
      "d": 83.70527343750291,
      "v": 52
    },
    {
      "midi": 50,
      "hit": false,
      "t": 49183.126040039184,
      "d": 113.42064550780924,
      "v": 52
    },
    {
      "midi": 86,
      "hit": false,
      "t": 49290.68731640615,
      "d": 198.38149804687419,
      "v": 65
    },
    {
      "midi": 50,
      "hit": false,
      "t": 49502.04313183606,
      "d": 83.70527343750291,
      "v": 52
    },
    {
      "midi": 50,
      "hit": false,
      "t": 49605.83767089856,
      "d": 114.25769824218878,
      "v": 52
    },
    {
      "midi": 74,
      "hit": false,
      "t": 49715.91010546865,
      "d": 213.86697363281564,
      "v": 69
    },
    {
      "midi": 38,
      "hit": false,
      "t": 49715.91010546887,
      "d": 213.86697363281564,
      "v": 68
    },
    {
      "midi": 79,
      "hit": false,
      "t": 49942.75139648427,
      "d": 199.63707714843622,
      "v": 64
    },
    {
      "midi": 50,
      "hit": false,
      "t": 49942.7513964845,
      "d": 84.1237998046854,
      "v": 52
    },
    {
      "midi": 50,
      "hit": false,
      "t": 50046.96446191418,
      "d": 114.25769824218878,
      "v": 52
    },
    {
      "midi": 83,
      "hit": false,
      "t": 50155.36279101552,
      "d": 198.38149804687419,
      "v": 65
    },
    {
      "midi": 81,
      "hit": false,
      "t": 50366.7186064452,
      "d": 200.47412988281576,
      "v": 64
    },
    {
      "midi": 50,
      "hit": false,
      "t": 50366.718606445436,
      "d": 83.70527343750291,
      "v": 52
    },
    {
      "midi": 50,
      "hit": false,
      "t": 50470.51314550794,
      "d": 115.51327734375081,
      "v": 52
    },
    {
      "midi": 38,
      "hit": false,
      "t": 50580.16705371106,
      "d": 200.47412988281576,
      "v": 66
    },
    {
      "midi": 78,
      "hit": false,
      "t": 50793.615500976455,
      "d": 198.38149804687419,
      "v": 64
    },
    {
      "midi": 50,
      "hit": false,
      "t": 50793.61550097669,
      "d": 83.70527343750291,
      "v": 52
    },
    {
      "midi": 50,
      "hit": false,
      "t": 50897.41004003919,
      "d": 113.42064550780924,
      "v": 52
    },
    {
      "midi": 74,
      "hit": false,
      "t": 51004.97131640614,
      "d": 198.38149804687419,
      "v": 65
    },
    {
      "midi": 50,
      "hit": false,
      "t": 51216.327131836064,
      "d": 83.70527343750291,
      "v": 52
    },
    {
      "midi": 50,
      "hit": false,
      "t": 51320.12167089857,
      "d": 114.25769824218878,
      "v": 52
    },
    {
      "midi": 70,
      "hit": false,
      "t": 51430.19410546864,
      "d": 213.86697363281564,
      "v": 69
    },
    {
      "midi": 34,
      "hit": false,
      "t": 51430.19410546888,
      "d": 213.86697363281564,
      "v": 67
    },
    {
      "midi": 74,
      "hit": false,
      "t": 51657.035396484265,
      "d": 199.63707714843622,
      "v": 64
    },
    {
      "midi": 46,
      "hit": false,
      "t": 51657.035396484505,
      "d": 84.1237998046854,
      "v": 52
    },
    {
      "midi": 46,
      "hit": false,
      "t": 51761.24846191419,
      "d": 114.25769824218878,
      "v": 52
    },
    {
      "midi": 77,
      "hit": false,
      "t": 51869.64679101551,
      "d": 198.38149804687419,
      "v": 65
    },
    {
      "midi": 76,
      "hit": false,
      "t": 52081.002606445196,
      "d": 200.47412988281576,
      "v": 64
    },
    {
      "midi": 46,
      "hit": false,
      "t": 52081.00260644544,
      "d": 83.70527343750291,
      "v": 52
    },
    {
      "midi": 46,
      "hit": false,
      "t": 52184.797145507946,
      "d": 115.51327734375081,
      "v": 52
    },
    {
      "midi": 34,
      "hit": false,
      "t": 52294.45105371107,
      "d": 200.47412988281576,
      "v": 65
    },
    {
      "midi": 74,
      "hit": false,
      "t": 52507.89950097645,
      "d": 198.38149804687419,
      "v": 64
    },
    {
      "midi": 46,
      "hit": false,
      "t": 52507.899500976695,
      "d": 83.70527343750291,
      "v": 52
    },
    {
      "midi": 46,
      "hit": false,
      "t": 52611.6940400392,
      "d": 113.42064550780924,
      "v": 52
    },
    {
      "midi": 76,
      "hit": false,
      "t": 52719.25531640613,
      "d": 198.38149804687419,
      "v": 65
    },
    {
      "midi": 72,
      "hit": false,
      "t": 52930.611131835816,
      "d": 199.21855078124645,
      "v": 64
    },
    {
      "midi": 46,
      "hit": false,
      "t": 52930.61113183607,
      "d": 83.70527343750291,
      "v": 52
    },
    {
      "midi": 46,
      "hit": false,
      "t": 53034.40567089857,
      "d": 114.25769824218878,
      "v": 52
    },
    {
      "midi": 72,
      "hit": false,
      "t": 53144.478105468625,
      "d": 213.86697363281564,
      "v": 69
    },
    {
      "midi": 36,
      "hit": false,
      "t": 53144.47810546889,
      "d": 213.86697363281564,
      "v": 67
    },
    {
      "midi": 76,
      "hit": false,
      "t": 53371.31939648425,
      "d": 199.63707714843622,
      "v": 64
    },
    {
      "midi": 48,
      "hit": false,
      "t": 53371.31939648451,
      "d": 84.1237998046854,
      "v": 52
    },
    {
      "midi": 48,
      "hit": false,
      "t": 53475.5324619142,
      "d": 114.25769824218878,
      "v": 52
    },
    {
      "midi": 79,
      "hit": false,
      "t": 53583.9307910155,
      "d": 198.38149804687419,
      "v": 65
    },
    {
      "midi": 78,
      "hit": false,
      "t": 53795.28660644518,
      "d": 200.47412988281576,
      "v": 64
    },
    {
      "midi": 48,
      "hit": false,
      "t": 53795.28660644545,
      "d": 83.70527343750291,
      "v": 52
    },
    {
      "midi": 48,
      "hit": false,
      "t": 53899.08114550795,
      "d": 115.51327734375081,
      "v": 52
    },
    {
      "midi": 36,
      "hit": false,
      "t": 54008.735053711076,
      "d": 200.47412988281576,
      "v": 65
    },
    {
      "midi": 76,
      "hit": false,
      "t": 54222.18350097643,
      "d": 198.38149804687419,
      "v": 64
    },
    {
      "midi": 48,
      "hit": false,
      "t": 54222.1835009767,
      "d": 83.70527343750291,
      "v": 52
    },
    {
      "midi": 48,
      "hit": false,
      "t": 54325.978040039205,
      "d": 113.42064550780924,
      "v": 52
    },
    {
      "midi": 78,
      "hit": false,
      "t": 54433.53931640612,
      "d": 198.38149804687419,
      "v": 65
    },
    {
      "midi": 74,
      "hit": false,
      "t": 54644.8951318358,
      "d": 199.21855078124645,
      "v": 64
    },
    {
      "midi": 48,
      "hit": false,
      "t": 54644.89513183608,
      "d": 83.70527343750291,
      "v": 52
    },
    {
      "midi": 48,
      "hit": false,
      "t": 54748.68967089858,
      "d": 114.25769824218878,
      "v": 52
    }
  ]
}