{
  "jsonPath": "Pop/Classic Italian Pop/Riccardo Fogli/ti-amo-pero.json",
  "path": "Pop\\Classic Italian Pop\\Riccardo Fogli\\Ti Amo Però.mid",
  "name": "Ti Amo Però",
  "difficulty": "Advanced",
  "bpm": 102.00091800826208,
  "notes": [
    {
      "midi": 80,
      "hit": false,
      "t": 18823.36,
      "d": 459.5546875,
      "v": 101
    },
    {
      "midi": 83,
      "hit": false,
      "t": 18823.36,
      "d": 459.5546875,
      "v": 101
    },
    {
      "midi": 88,
      "hit": false,
      "t": 18823.36,
      "d": 459.5546875,
      "v": 101
    },
    {
      "midi": 83,
      "hit": false,
      "t": 20588.05,
      "d": 159.31229166666526,
      "v": 87
    },
    {
      "midi": 87,
      "hit": false,
      "t": 20588.05,
      "d": 165.4396874999984,
      "v": 100
    },
    {
      "midi": 78,
      "hit": false,
      "t": 20588.05,
      "d": 171.56708333333154,
      "v": 98
    },
    {
      "midi": 83,
      "hit": false,
      "t": 20882.164999999997,
      "d": 168.50338541666497,
      "v": 103
    },
    {
      "midi": 87,
      "hit": false,
      "t": 20882.164999999997,
      "d": 171.56708333333154,
      "v": 103
    },
    {
      "midi": 78,
      "hit": false,
      "t": 20882.164999999997,
      "d": 196.0766666666641,
      "v": 103
    },
    {
      "midi": 88,
      "hit": false,
      "t": 21176.279999999995,
      "d": 422.79031250000116,
      "v": 98
    },
    {
      "midi": 83,
      "hit": false,
      "t": 21176.279999999995,
      "d": 441.1725000000006,
      "v": 91
    },
    {
      "midi": 80,
      "hit": false,
      "t": 21176.279999999995,
      "d": 459.5546875,
      "v": 103
    },
    {
      "midi": 83,
      "hit": false,
      "t": 22058.624999999996,
      "d": 514.7012500000019,
      "v": 93
    },
    {
      "midi": 88,
      "hit": false,
      "t": 22058.624999999996,
      "d": 551.4656250000007,
      "v": 100
    },
    {
      "midi": 80,
      "hit": false,
      "t": 22058.624999999996,
      "d": 569.8478125000001,
      "v": 103
    },
    {
      "midi": 80,
      "hit": false,
      "t": 23529.2,
      "d": 266.54171874999884,
      "v": 103
    },
    {
      "midi": 80,
      "hit": false,
      "t": 23550.645885416663,
      "d": 272.669114583332,
      "v": 101
    },
    {
      "midi": 81,
      "hit": false,
      "t": 23823.314999999995,
      "d": 294.1150000000016,
      "v": 98
    },
    {
      "midi": 81,
      "hit": false,
      "t": 23823.315,
      "d": 189.9492708333346,
      "v": 103
    },
    {
      "midi": 83,
      "hit": false,
      "t": 24117.429999999997,
      "d": 294.1150000000016,
      "v": 98
    },
    {
      "midi": 83,
      "hit": false,
      "t": 24117.43,
      "d": 165.4396874999984,
      "v": 104
    },
    {
      "midi": 78,
      "hit": false,
      "t": 24411.545,
      "d": 1173.3963020833326,
      "v": 106
    },
    {
      "midi": 92,
      "hit": false,
      "t": 24411.545,
      "d": 1470.5750000000007,
      "v": 98
    },
    {
      "midi": 76,
      "hit": false,
      "t": 25882.12,
      "d": 275.73281249999854,
      "v": 111
    },
    {
      "midi": 80,
      "hit": false,
      "t": 25882.12,
      "d": 294.1150000000016,
      "v": 98
    },
    {
      "midi": 78,
      "hit": false,
      "t": 26176.234999999997,
      "d": 260.4143229166657,
      "v": 109
    },
    {
      "midi": 81,
      "hit": false,
      "t": 26176.235,
      "d": 294.1150000000016,
      "v": 104
    },
    {
      "midi": 80,
      "hit": false,
      "t": 26470.349999999995,
      "d": 229.77734375,
      "v": 113
    },
    {
      "midi": 83,
      "hit": false,
      "t": 26470.350000000002,
      "d": 294.1150000000016,
      "v": 107
    },
    {
      "midi": 75,
      "hit": false,
      "t": 26764.464999999997,
      "d": 943.6189583333326,
      "v": 114
    },
    {
      "midi": 87,
      "hit": false,
      "t": 26764.465000000004,
      "d": 1470.5750000000007,
      "v": 100
    },
    {
      "midi": 73,
      "hit": false,
      "t": 27940.924999999996,
      "d": 88.84723958333416,
      "v": 109
    },
    {
      "midi": 73,
      "hit": false,
      "t": 28235.039999999997,
      "d": 284.92390624999825,
      "v": 114
    },
    {
      "midi": 73,
      "hit": false,
      "t": 28235.040000000005,
      "d": 294.1150000000016,
      "v": 104
    },
    {
      "midi": 75,
      "hit": false,
      "t": 28529.154999999995,
      "d": 229.77734375,
      "v": 114
    },
    {
      "midi": 75,
      "hit": false,
      "t": 28529.155000000006,
      "d": 294.1150000000016,
      "v": 107
    },
    {
      "midi": 76,
      "hit": false,
      "t": 28823.269999999997,
      "d": 193.01296875000116,
      "v": 111
    },
    {
      "midi": 76,
      "hit": false,
      "t": 28823.270000000008,
      "d": 294.1150000000016,
      "v": 105
    },
    {
      "midi": 85,
      "hit": false,
      "t": 29117.385,
      "d": 762.8607812500013,
      "v": 111
    },
    {
      "midi": 85,
      "hit": false,
      "t": 29117.38500000001,
      "d": 1764.6899999999987,
      "v": 105
    },
    {
      "midi": 73,
      "hit": false,
      "t": 30882.075,
      "d": 245.09583333333285,
      "v": 109
    },
    {
      "midi": 73,
      "hit": false,
      "t": 30882.075000000008,
      "d": 294.1150000000016,
      "v": 98
    },
    {
      "midi": 75,
      "hit": false,
      "t": 31176.19,
      "d": 214.45885416666715,
      "v": 109
    },
    {
      "midi": 75,
      "hit": false,
      "t": 31176.19000000001,
      "d": 294.1150000000016,
      "v": 100
    },
    {
      "midi": 76,
      "hit": false,
      "t": 31470.305,
      "d": 208.331458333334,
      "v": 109
    },
    {
      "midi": 76,
      "hit": false,
      "t": 31470.30500000001,
      "d": 294.1150000000016,
      "v": 105
    },
    {
      "midi": 81,
      "hit": false,
      "t": 31764.420000000002,
      "d": 202.20406250000087,
      "v": 109
    },
    {
      "midi": 81,
      "hit": false,
      "t": 31764.420000000013,
      "d": 294.1150000000016,
      "v": 105
    },
    {
      "midi": 80,
      "hit": false,
      "t": 32058.535000000003,
      "d": 257.3506249999991,
      "v": 109
    },
    {
      "midi": 80,
      "hit": false,
      "t": 32058.535000000014,
      "d": 294.1150000000016,
      "v": 103
    },
    {
      "midi": 78,
      "hit": false,
      "t": 32352.65,
      "d": 238.9684374999997,
      "v": 109
    },
    {
      "midi": 78,
      "hit": false,
      "t": 32352.650000000016,
      "d": 294.1150000000016,
      "v": 107
    },
    {
      "midi": 76,
      "hit": false,
      "t": 32646.765,
      "d": 232.84104166666657,
      "v": 113
    },
    {
      "midi": 76,
      "hit": false,
      "t": 32646.765000000018,
      "d": 294.1150000000016,
      "v": 105
    },
    {
      "midi": 75,
      "hit": false,
      "t": 32940.88,
      "d": 245.09583333333285,
      "v": 109
    },
    {
      "midi": 75,
      "hit": false,
      "t": 32940.88000000002,
      "d": 294.11499999999796,
      "v": 105
    },
    {
      "midi": 76,
      "hit": false,
      "t": 33234.994999999995,
      "d": 229.77734375,
      "v": 113
    },
    {
      "midi": 76,
      "hit": false,
      "t": 33234.99500000002,
      "d": 294.11499999999796,
      "v": 105
    },
    {
      "midi": 78,
      "hit": false,
      "t": 33529.10999999999,
      "d": 174.63078125000175,
      "v": 109
    },
    {
      "midi": 78,
      "hit": false,
      "t": 33529.110000000015,
      "d": 294.11499999999796,
      "v": 98
    },
    {
      "midi": 87,
      "hit": false,
      "t": 33823.225,
      "d": 303.3060937499977,
      "v": 108
    },
    {
      "midi": 87,
      "hit": false,
      "t": 33823.22500000001,
      "d": 1470.574999999997,
      "v": 101
    },
    {
      "midi": 75,
      "hit": false,
      "t": 34999.685,
      "d": 147.05750000000262,
      "v": 106
    },
    {
      "midi": 75,
      "hit": false,
      "t": 35293.8,
      "d": 287.9876041666648,
      "v": 106
    },
    {
      "midi": 71,
      "hit": false,
      "t": 35293.80000000001,
      "d": 294.11499999999796,
      "v": 98
    },
    {
      "midi": 76,
      "hit": false,
      "t": 35587.915,
      "d": 275.73281249999854,
      "v": 106
    },
    {
      "midi": 73,
      "hit": false,
      "t": 35587.91500000001,
      "d": 294.11499999999796,
      "v": 96
    },
    {
      "midi": 78,
      "hit": false,
      "t": 35882.03,
      "d": 235.90473958333314,
      "v": 106
    },
    {
      "midi": 75,
      "hit": false,
      "t": 35882.030000000006,
      "d": 294.11499999999796,
      "v": 96
    },
    {
      "midi": 83,
      "hit": false,
      "t": 36176.145,
      "d": 778.1792708333305,
      "v": 108
    },
    {
      "midi": 83,
      "hit": false,
      "t": 36176.145000000004,
      "d": 1507.3393750000032,
      "v": 98
    },
    {
      "midi": 68,
      "hit": false,
      "t": 37352.604999999996,
      "d": 220.5862500000003,
      "v": 96
    },
    {
      "midi": 68,
      "hit": false,
      "t": 37646.719999999994,
      "d": 572.9115104166631,
      "v": 94
    },
    {
      "midi": 66,
      "hit": false,
      "t": 38529.06499999999,
      "d": 162.37598958333547,
      "v": 101
    },
    {
      "midi": 66,
      "hit": false,
      "t": 38823.17999999999,
      "d": 735.2874999999985,
      "v": 108
    },
    {
      "midi": 64,
      "hit": false,
      "t": 39705.524999999994,
      "d": 171.56708333333518,
      "v": 99
    },
    {
      "midi": 64,
      "hit": false,
      "t": 39999.64,
      "d": 744.4785937499983,
      "v": 104
    },
    {
      "midi": 40,
      "hit": false,
      "t": 39999.64,
      "d": 2135.397447916672,
      "v": 80
    },
    {
      "midi": 52,
      "hit": false,
      "t": 39999.64,
      "d": 2169.098125000004,
      "v": 73
    },
    {
      "midi": 63,
      "hit": false,
      "t": 40881.985,
      "d": 168.5033854166686,
      "v": 97
    },
    {
      "midi": 63,
      "hit": false,
      "t": 41176.100000000006,
      "d": 857.8354166666686,
      "v": 99
    },
    {
      "midi": 61,
      "hit": false,
      "t": 42058.44500000001,
      "d": 193.0129687499939,
      "v": 97
    },
    {
      "midi": 69,
      "hit": false,
      "t": 42352.56,
      "d": 692.3957291666666,
      "v": 111
    },
    {
      "midi": 45,
      "hit": false,
      "t": 42352.56,
      "d": 2211.989895833329,
      "v": 111
    },
    {
      "midi": 68,
      "hit": false,
      "t": 43234.905,
      "d": 257.3506249999991,
      "v": 111
    },
    {
      "midi": 68,
      "hit": false,
      "t": 43529.02,
      "d": 523.892343749998,
      "v": 111
    },
    {
      "midi": 66,
      "hit": false,
      "t": 44117.24999999999,
      "d": 217.52255208333372,
      "v": 108
    },
    {
      "midi": 69,
      "hit": false,
      "t": 44411.36499999999,
      "d": 287.9876041666721,
      "v": 118
    },
    {
      "midi": 45,
      "hit": false,
      "t": 44705.479999999996,
      "d": 2049.6139062500006,
      "v": 104
    },
    {
      "midi": 66,
      "hit": false,
      "t": 46764.284999999996,
      "d": 140.93010416666948,
      "v": 94
    },
    {
      "midi": 66,
      "hit": false,
      "t": 47058.4,
      "d": 839.4532291666692,
      "v": 99
    },
    {
      "midi": 47,
      "hit": false,
      "t": 47058.4,
      "d": 4650.693437499998,
      "v": 99
    },
    {
      "midi": 64,
      "hit": false,
      "t": 47940.745,
      "d": 232.84104166666657,
      "v": 103
    },
    {
      "midi": 64,
      "hit": false,
      "t": 48234.86,
      "d": 867.0265104166683,
      "v": 108
    },
    {
      "midi": 63,
      "hit": false,
      "t": 49117.205,
      "d": 223.64994791666686,
      "v": 109
    },
    {
      "midi": 63,
      "hit": false,
      "t": 49411.32,
      "d": 848.6443229166689,
      "v": 109
    },
    {
      "midi": 61,
      "hit": false,
      "t": 50293.665,
      "d": 229.77734375,
      "v": 108
    },
    {
      "midi": 61,
      "hit": false,
      "t": 50587.78,
      "d": 857.8354166666686,
      "v": 106
    },
    {
      "midi": 59,
      "hit": false,
      "t": 51470.125,
      "d": 275.73281249999854,
      "v": 98
    },
    {
      "midi": 68,
      "hit": false,
      "t": 51764.24,
      "d": 943.6189583333326,
      "v": 106
    },
    {
      "midi": 64,
      "hit": false,
      "t": 51764.24,
      "d": 968.1285416666651,
      "v": 103
    },
    {
      "midi": 52,
      "hit": false,
      "t": 51764.24,
      "d": 974.2559374999983,
      "v": 103
    },
    {
      "midi": 80,
      "hit": false,
      "t": 51764.240000000005,
      "d": 459.5546875,
      "v": 101
    },
    {
      "midi": 83,
      "hit": false,
      "t": 51764.240000000005,
      "d": 459.5546875,
      "v": 101
    },
    {
      "midi": 88,
      "hit": false,
      "t": 51764.240000000005,
      "d": 459.5546875,
      "v": 101
    },
    {
      "midi": 59,
      "hit": false,
      "t": 53528.92999999999,
      "d": 223.64994791666686,
      "v": 108
    },
    {
      "midi": 35,
      "hit": false,
      "t": 53528.92999999999,
      "d": 352.3252604166628,
      "v": 108
    },
    {
      "midi": 66,
      "hit": false,
      "t": 53528.92999999999,
      "d": 465.68208333332586,
      "v": 108
    },
    {
      "midi": 63,
      "hit": false,
      "t": 53528.92999999999,
      "d": 511.6375520833244,
      "v": 108
    },
    {
      "midi": 83,
      "hit": false,
      "t": 53528.93000000001,
      "d": 159.3122916666689,
      "v": 103
    },
    {
      "midi": 87,
      "hit": false,
      "t": 53528.93000000001,
      "d": 165.43968750000204,
      "v": 103
    },
    {
      "midi": 78,
      "hit": false,
      "t": 53528.93000000001,
      "d": 171.56708333333518,
      "v": 103
    },
    {
      "midi": 59,
      "hit": false,
      "t": 53823.04499999999,
      "d": 211.3951562499933,
      "v": 111
    },
    {
      "midi": 83,
      "hit": false,
      "t": 53823.04500000001,
      "d": 168.5033854166686,
      "v": 104
    },
    {
      "midi": 87,
      "hit": false,
      "t": 53823.04500000001,
      "d": 171.56708333333518,
      "v": 104
    },
    {
      "midi": 78,
      "hit": false,
      "t": 53823.04500000001,
      "d": 196.07666666666773,
      "v": 104
    },
    {
      "midi": 68,
      "hit": false,
      "t": 54117.15999999998,
      "d": 753.669687499998,
      "v": 111
    },
    {
      "midi": 59,
      "hit": false,
      "t": 54117.15999999998,
      "d": 762.8607812499977,
      "v": 111
    },
    {
      "midi": 64,
      "hit": false,
      "t": 54117.15999999998,
      "d": 793.4977604166634,
      "v": 111
    },
    {
      "midi": 88,
      "hit": false,
      "t": 54117.16000000001,
      "d": 422.79031250000116,
      "v": 98
    },
    {
      "midi": 83,
      "hit": false,
      "t": 54117.16000000001,
      "d": 441.1725000000006,
      "v": 91
    },
    {
      "midi": 80,
      "hit": false,
      "t": 54117.16000000001,
      "d": 459.5546875,
      "v": 103
    },
    {
      "midi": 59,
      "hit": false,
      "t": 54999.504999999976,
      "d": 1020.2114062499968,
      "v": 111
    },
    {
      "midi": 68,
      "hit": false,
      "t": 54999.504999999976,
      "d": 1029.4024999999965,
      "v": 111
    },
    {
      "midi": 64,
      "hit": false,
      "t": 54999.504999999976,
      "d": 1063.1031770833288,
      "v": 111
    },
    {
      "midi": 83,
      "hit": false,
      "t": 54999.50500000001,
      "d": 514.7012499999983,
      "v": 93
    },
    {
      "midi": 88,
      "hit": false,
      "t": 54999.50500000001,
      "d": 551.4656249999971,
      "v": 100
    },
    {
      "midi": 80,
      "hit": false,
      "t": 54999.50500000001,
      "d": 569.8478124999965,
      "v": 103
    },
    {
      "midi": 68,
      "hit": false,
      "t": 56175.96499999997,
      "d": 193.01296875000116,
      "v": 103
    },
    {
      "midi": 68,
      "hit": false,
      "t": 56470.079999999965,
      "d": 863.9628125000017,
      "v": 106
    },
    {
      "midi": 40,
      "hit": false,
      "t": 56470.079999999965,
      "d": 2123.1426562499983,
      "v": 106
    },
    {
      "midi": 52,
      "hit": false,
      "t": 56470.079999999965,
      "d": 2178.2892187499965,
      "v": 106
    },
    {
      "midi": 80,
      "hit": false,
      "t": 56476.20739583334,
      "d": 367.64374999999563,
      "v": 109
    },
    {
      "midi": 81,
      "hit": false,
      "t": 56764.19500000001,
      "d": 294.11499999999796,
      "v": 105
    },
    {
      "midi": 83,
      "hit": false,
      "t": 57058.310000000005,
      "d": 294.11499999999796,
      "v": 104
    },
    {
      "midi": 66,
      "hit": false,
      "t": 57352.42499999997,
      "d": 242.03213541666628,
      "v": 101
    },
    {
      "midi": 92,
      "hit": false,
      "t": 57352.425,
      "d": 1470.574999999997,
      "v": 99
    },
    {
      "midi": 66,
      "hit": false,
      "t": 57646.539999999964,
      "d": 867.0265104166683,
      "v": 97
    },
    {
      "midi": 64,
      "hit": false,
      "t": 58528.884999999966,
      "d": 238.9684374999997,
      "v": 98
    },
    {
      "midi": 64,
      "hit": false,
      "t": 58822.99999999996,
      "d": 845.5806250000023,
      "v": 99
    },
    {
      "midi": 52,
      "hit": false,
      "t": 58822.99999999996,
      "d": 2156.8433333333305,
      "v": 78
    },
    {
      "midi": 40,
      "hit": false,
      "t": 58822.99999999996,
      "d": 2175.22552083333,
      "v": 73
    },
    {
      "midi": 76,
      "hit": false,
      "t": 58823,
      "d": 294.11499999999796,
      "v": 97
    },
    {
      "midi": 78,
      "hit": false,
      "t": 59117.115,
      "d": 294.11499999999796,
      "v": 102
    },
    {
      "midi": 80,
      "hit": false,
      "t": 59411.229999999996,
      "d": 294.11499999999796,
      "v": 95
    },
    {
      "midi": 63,
      "hit": false,
      "t": 59705.344999999965,
      "d": 248.15953124999942,
      "v": 101
    },
    {
      "midi": 87,
      "hit": false,
      "t": 59705.344999999994,
      "d": 1470.574999999997,
      "v": 95
    },
    {
      "midi": 63,
      "hit": false,
      "t": 59999.45999999996,
      "d": 867.0265104166683,
      "v": 101
    },
    {
      "midi": 61,
      "hit": false,
      "t": 60881.804999999964,
      "d": 275.73281249999854,
      "v": 99
    },
    {
      "midi": 69,
      "hit": false,
      "t": 61175.91999999996,
      "d": 759.7970833333311,
      "v": 109
    },
    {
      "midi": 45,
      "hit": false,
      "t": 61175.91999999996,
      "d": 2254.881666666668,
      "v": 88
    },
    {
      "midi": 73,
      "hit": false,
      "t": 61175.91999999999,
      "d": 294.11499999999796,
      "v": 93
    },
    {
      "midi": 75,
      "hit": false,
      "t": 61470.03499999999,
      "d": 294.11499999999796,
      "v": 98
    },
    {
      "midi": 76,
      "hit": false,
      "t": 61764.14999999999,
      "d": 294.11499999999796,
      "v": 97
    },
    {
      "midi": 68,
      "hit": false,
      "t": 62058.26499999996,
      "d": 202.20406250000087,
      "v": 111
    },
    {
      "midi": 85,
      "hit": false,
      "t": 62058.264999999985,
      "d": 1764.6900000000023,
      "v": 100
    },
    {
      "midi": 68,
      "hit": false,
      "t": 62352.37999999996,
      "d": 588.2300000000032,
      "v": 108
    },
    {
      "midi": 66,
      "hit": false,
      "t": 62940.609999999964,
      "d": 275.73281249999854,
      "v": 103
    },
    {
      "midi": 69,
      "hit": false,
      "t": 63234.72499999996,
      "d": 275.73281249999854,
      "v": 104
    },
    {
      "midi": 45,
      "hit": false,
      "t": 63528.83999999996,
      "d": 2009.7858333333206,
      "v": 103
    },
    {
      "midi": 61,
      "hit": false,
      "t": 63822.95499999996,
      "d": 284.92390624999825,
      "v": 104
    },
    {
      "midi": 73,
      "hit": false,
      "t": 63822.95499999999,
      "d": 294.11499999999796,
      "v": 104
    },
    {
      "midi": 63,
      "hit": false,
      "t": 64117.069999999956,
      "d": 284.92390624999825,
      "v": 111
    },
    {
      "midi": 75,
      "hit": false,
      "t": 64117.069999999985,
      "d": 294.11499999999796,
      "v": 110
    },
    {
      "midi": 64,
      "hit": false,
      "t": 64411.184999999954,
      "d": 278.7965104166651,
      "v": 106
    },
    {
      "midi": 76,
      "hit": false,
      "t": 64411.18499999998,
      "d": 294.11499999999796,
      "v": 112
    },
    {
      "midi": 69,
      "hit": false,
      "t": 64705.29999999995,
      "d": 281.8602083333317,
      "v": 111
    },
    {
      "midi": 81,
      "hit": false,
      "t": 64705.29999999998,
      "d": 294.11499999999796,
      "v": 107
    },
    {
      "midi": 68,
      "hit": false,
      "t": 64999.41499999995,
      "d": 266.54171874999884,
      "v": 97
    },
    {
      "midi": 80,
      "hit": false,
      "t": 64999.41499999998,
      "d": 294.11499999999796,
      "v": 109
    },
    {
      "midi": 66,
      "hit": false,
      "t": 65293.52999999995,
      "d": 284.92390625000553,
      "v": 97
    },
    {
      "midi": 78,
      "hit": false,
      "t": 65293.52999999998,
      "d": 294.11499999999796,
      "v": 109
    },
    {
      "midi": 64,
      "hit": false,
      "t": 65587.64499999996,
      "d": 275.7328125000058,
      "v": 108
    },
    {
      "midi": 76,
      "hit": false,
      "t": 65587.64499999997,
      "d": 294.11500000000524,
      "v": 107
    },
    {
      "midi": 47,
      "hit": false,
      "t": 65869.5052083333,
      "d": 624.9943749999948,
      "v": 95
    },
    {
      "midi": 59,
      "hit": false,
      "t": 65869.5052083333,
      "d": 784.3066666666564,
      "v": 88
    },
    {
      "midi": 63,
      "hit": false,
      "t": 65881.75999999997,
      "d": 698.5231249999924,
      "v": 108
    },
    {
      "midi": 66,
      "hit": false,
      "t": 65881.75999999997,
      "d": 772.0518749999901,
      "v": 93
    },
    {
      "midi": 75,
      "hit": false,
      "t": 65881.75999999998,
      "d": 294.11500000000524,
      "v": 107
    },
    {
      "midi": 76,
      "hit": false,
      "t": 66175.87499999999,
      "d": 294.11500000000524,
      "v": 107
    },
    {
      "midi": 78,
      "hit": false,
      "t": 66469.98999999999,
      "d": 294.11500000000524,
      "v": 107
    },
    {
      "midi": 63,
      "hit": false,
      "t": 66751.85020833329,
      "d": 147.0575000000099,
      "v": 79
    },
    {
      "midi": 47,
      "hit": false,
      "t": 66757.97760416662,
      "d": 91.91093749999709,
      "v": 77
    },
    {
      "midi": 59,
      "hit": false,
      "t": 66764.10499999995,
      "d": 131.73901041666977,
      "v": 73
    },
    {
      "midi": 66,
      "hit": false,
      "t": 66764.10499999995,
      "d": 162.37598958335002,
      "v": 78
    },
    {
      "midi": 87,
      "hit": false,
      "t": 66764.105,
      "d": 1470.574999999997,
      "v": 117
    },
    {
      "midi": 63,
      "hit": false,
      "t": 67052.09260416664,
      "d": 1069.2305729166837,
      "v": 91
    },
    {
      "midi": 47,
      "hit": false,
      "t": 67052.09260416664,
      "d": 1608.4414062500146,
      "v": 93
    },
    {
      "midi": 66,
      "hit": false,
      "t": 67055.15630208331,
      "d": 1053.9120833333436,
      "v": 86
    },
    {
      "midi": 59,
      "hit": false,
      "t": 67076.60218749999,
      "d": 1023.2751041666634,
      "v": 80
    },
    {
      "midi": 63,
      "hit": false,
      "t": 68222.42520833333,
      "d": 683.2046354166669,
      "v": 104
    },
    {
      "midi": 66,
      "hit": false,
      "t": 68228.55260416666,
      "d": 569.8478124999965,
      "v": 99
    },
    {
      "midi": 59,
      "hit": false,
      "t": 68228.55260416666,
      "d": 655.6313541666605,
      "v": 89
    },
    {
      "midi": 71,
      "hit": false,
      "t": 68234.68,
      "d": 294.11500000000524,
      "v": 112
    },
    {
      "midi": 73,
      "hit": false,
      "t": 68528.795,
      "d": 294.11500000000524,
      "v": 112
    },
    {
      "midi": 47,
      "hit": false,
      "t": 68798.40041666666,
      "d": 1446.065416666679,
      "v": 78
    },
    {
      "midi": 75,
      "hit": false,
      "t": 68822.91,
      "d": 294.11500000000524,
      "v": 110
    },
    {
      "midi": 63,
      "hit": false,
      "t": 69089.45171874999,
      "d": 205.267760416682,
      "v": 77
    },
    {
      "midi": 66,
      "hit": false,
      "t": 69101.70651041665,
      "d": 174.63078125000175,
      "v": 80
    },
    {
      "midi": 59,
      "hit": false,
      "t": 69104.77020833333,
      "d": 180.75817708333489,
      "v": 73
    },
    {
      "midi": 83,
      "hit": false,
      "t": 69117.02500000001,
      "d": 1323.5175000000017,
      "v": 110
    },
    {
      "midi": 66,
      "hit": false,
      "t": 69417.26739583333,
      "d": 781.2429687499971,
      "v": 106
    },
    {
      "midi": 63,
      "hit": false,
      "t": 69417.26739583333,
      "d": 814.9436458333366,
      "v": 109
    },
    {
      "midi": 59,
      "hit": false,
      "t": 69429.5221875,
      "d": 903.7908854166744,
      "v": 95
    },
    {
      "midi": 52,
      "hit": false,
      "t": 70587.6,
      "d": 2680.7356770833285,
      "v": 83
    },
    {
      "midi": 68,
      "hit": false,
      "t": 70587.6,
      "d": 3256.710885416658,
      "v": 111
    },
    {
      "midi": 59,
      "hit": false,
      "t": 70587.6,
      "d": 3446.6601562499854,
      "v": 74
    },
    {
      "midi": 59,
      "hit": false,
      "t": 74095.53411458332,
      "d": 1176.460000000021,
      "v": 83
    },
    {
      "midi": 52,
      "hit": false,
      "t": 74098.5978125,
      "d": 1191.778489583361,
      "v": 81
    },
    {
      "midi": 68,
      "hit": false,
      "t": 74116.98,
      "d": 579.0389062500035,
      "v": 114
    },
    {
      "midi": 71,
      "hit": false,
      "t": 74717.46479166667,
      "d": 499.3827604166727,
      "v": 124
    },
    {
      "midi": 66,
      "hit": false,
      "t": 75281.18520833335,
      "d": 1164.2052083333401,
      "v": 118
    },
    {
      "midi": 47,
      "hit": false,
      "t": 75287.31260416668,
      "d": 2147.6522395833454,
      "v": 97
    },
    {
      "midi": 63,
      "hit": false,
      "t": 76457.64520833336,
      "d": 1133.5682291666744,
      "v": 116
    },
    {
      "midi": 47,
      "hit": false,
      "t": 77637.16890625004,
      "d": 793.4977604166634,
      "v": 111
    },
    {
      "midi": 66,
      "hit": false,
      "t": 77643.29630208337,
      "d": 943.6189583333326,
      "v": 109
    },
    {
      "midi": 59,
      "hit": false,
      "t": 77667.8058854167,
      "d": 909.918281249993,
      "v": 109
    },
    {
      "midi": 47,
      "hit": false,
      "t": 78798.3104166667,
      "d": 499.3827604166727,
      "v": 113
    },
    {
      "midi": 66,
      "hit": false,
      "t": 78816.6926041667,
      "d": 496.3190625000134,
      "v": 113
    },
    {
      "midi": 59,
      "hit": false,
      "t": 78819.75630208338,
      "d": 428.9177083333343,
      "v": 113
    },
    {
      "midi": 49,
      "hit": false,
      "t": 79395.73151041672,
      "d": 530.0197395833384,
      "v": 104
    },
    {
      "midi": 61,
      "hit": false,
      "t": 79404.92260416673,
      "d": 444.2361979166599,
      "v": 113
    },
    {
      "midi": 68,
      "hit": false,
      "t": 79404.92260416673,
      "d": 447.2998958333337,
      "v": 118
    },
    {
      "midi": 69,
      "hit": false,
      "t": 79993.15260416672,
      "d": 1102.9312500000087,
      "v": 111
    },
    {
      "midi": 42,
      "hit": false,
      "t": 79993.15260416672,
      "d": 2129.270052083346,
      "v": 108
    },
    {
      "midi": 61,
      "hit": false,
      "t": 79996.2163020834,
      "d": 1081.4853645833355,
      "v": 99
    },
    {
      "midi": 69,
      "hit": false,
      "t": 81178.80369791674,
      "d": 998.7655208333308,
      "v": 101
    },
    {
      "midi": 61,
      "hit": false,
      "t": 81178.80369791674,
      "d": 1007.9566145833378,
      "v": 101
    },
    {
      "midi": 61,
      "hit": false,
      "t": 82339.9452083334,
      "d": 922.1730729166738,
      "v": 65
    },
    {
      "midi": 42,
      "hit": false,
      "t": 82358.3273958334,
      "d": 995.7018229166715,
      "v": 79
    },
    {
      "midi": 69,
      "hit": false,
      "t": 82361.39109375008,
      "d": 1032.4661979166704,
      "v": 94
    },
    {
      "midi": 69,
      "hit": false,
      "t": 83522.53260416674,
      "d": 281.86020833333896,
      "v": 122
    },
    {
      "midi": 42,
      "hit": false,
      "t": 83528.66000000008,
      "d": 1017.1477083333448,
      "v": 77
    },
    {
      "midi": 68,
      "hit": false,
      "t": 83816.64760416675,
      "d": 318.6245833333378,
      "v": 108
    },
    {
      "midi": 66,
      "hit": false,
      "t": 84144.4632812501,
      "d": 462.6183854166593,
      "v": 127
    },
    {
      "midi": 68,
      "hit": false,
      "t": 84698.99260416675,
      "d": 2585.761041666672,
      "v": 101
    },
    {
      "midi": 49,
      "hit": false,
      "t": 84702.05630208342,
      "d": 2598.0158333333384,
      "v": 83
    },
    {
      "midi": 61,
      "hit": false,
      "t": 84714.31109375009,
      "d": 2598.0158333333384,
      "v": 86
    },
    {
      "midi": 73,
      "hit": false,
      "t": 87352.1550000001,
      "d": 294.11500000000524,
      "v": 109
    },
    {
      "midi": 76,
      "hit": false,
      "t": 87352.1550000001,
      "d": 294.11500000000524,
      "v": 108
    },
    {
      "midi": 73,
      "hit": false,
      "t": 87646.2700000001,
      "d": 294.11500000000524,
      "v": 113
    },
    {
      "midi": 76,
      "hit": false,
      "t": 87646.2700000001,
      "d": 294.11500000000524,
      "v": 113
    },
    {
      "midi": 71,
      "hit": false,
      "t": 87940.38500000011,
      "d": 294.11500000000524,
      "v": 109
    },
    {
      "midi": 75,
      "hit": false,
      "t": 87940.38500000011,
      "d": 294.11500000000524,
      "v": 109
    },
    {
      "midi": 71,
      "hit": false,
      "t": 88234.50000000012,
      "d": 294.11500000000524,
      "v": 106
    },
    {
      "midi": 75,
      "hit": false,
      "t": 88234.50000000012,
      "d": 294.11500000000524,
      "v": 106
    },
    {
      "midi": 69,
      "hit": false,
      "t": 88528.61500000012,
      "d": 294.11500000000524,
      "v": 89
    },
    {
      "midi": 73,
      "hit": false,
      "t": 88528.61500000012,
      "d": 294.11500000000524,
      "v": 106
    },
    {
      "midi": 69,
      "hit": false,
      "t": 88822.73000000013,
      "d": 294.11500000000524,
      "v": 108
    },
    {
      "midi": 73,
      "hit": false,
      "t": 88822.73000000013,
      "d": 294.11500000000524,
      "v": 108
    },
    {
      "midi": 68,
      "hit": false,
      "t": 89116.84500000013,
      "d": 294.11500000000524,
      "v": 108
    },
    {
      "midi": 71,
      "hit": false,
      "t": 89116.84500000013,
      "d": 294.11500000000524,
      "v": 108
    },
    {
      "midi": 73,
      "hit": false,
      "t": 89410.96000000014,
      "d": 260.4143229166657,
      "v": 111
    },
    {
      "midi": 71,
      "hit": false,
      "t": 89705.07500000014,
      "d": 294.11500000000524,
      "v": 108
    },
    {
      "midi": 73,
      "hit": false,
      "t": 89999.19000000015,
      "d": 294.11500000000524,
      "v": 111
    },
    {
      "midi": 69,
      "hit": false,
      "t": 90293.30500000015,
      "d": 1945.4481770833372,
      "v": 106
    },
    {
      "midi": 73,
      "hit": false,
      "t": 92352.11000000016,
      "d": 566.7841145833372,
      "v": 101
    },
    {
      "midi": 75,
      "hit": false,
      "t": 92940.34000000017,
      "d": 569.8478124999965,
      "v": 98
    },
    {
      "midi": 76,
      "hit": false,
      "t": 93528.57000000017,
      "d": 572.9115104166704,
      "v": 97
    },
    {
      "midi": 71,
      "hit": false,
      "t": 94116.80000000018,
      "d": 278.7965104166651,
      "v": 103
    },
    {
      "midi": 69,
      "hit": false,
      "t": 94410.91500000018,
      "d": 284.92390624999825,
      "v": 103
    },
    {
      "midi": 71,
      "hit": false,
      "t": 94705.03000000019,
      "d": 140.9301041666622,
      "v": 104
    },
    {
      "midi": 71,
      "hit": false,
      "t": 94999.14500000018,
      "d": 1461.3839062500047,
      "v": 104
    },
    {
      "midi": 68,
      "hit": false,
      "t": 94999.14500000018,
      "d": 1464.4476041666785,
      "v": 104
    },
    {
      "midi": 71,
      "hit": false,
      "t": 96469.72000000019,
      "d": 1170.3326041666733,
      "v": 83
    },
    {
      "midi": 75,
      "hit": false,
      "t": 97646.1800000002,
      "d": 1038.5935937500035,
      "v": 84
    },
    {
      "midi": 73,
      "hit": false,
      "t": 98822.6400000002,
      "d": 2153.779635416664,
      "v": 84
    },
    {
      "midi": 73,
      "hit": false,
      "t": 101175.5600000002,
      "d": 1041.6572916666628,
      "v": 81
    },
    {
      "midi": 76,
      "hit": false,
      "t": 102352.0200000002,
      "d": 1115.1860416666605,
      "v": 84
    },
    {
      "midi": 78,
      "hit": false,
      "t": 103528.48000000019,
      "d": 2181.3529166666704,
      "v": 88
    },
    {
      "midi": 75,
      "hit": false,
      "t": 106460.43890625019,
      "d": 508.5738541666651,
      "v": 91
    },
    {
      "midi": 76,
      "hit": false,
      "t": 107042.54151041685,
      "d": 490.1916666666657,
      "v": 91
    },
    {
      "midi": 78,
      "hit": false,
      "t": 107643.02630208351,
      "d": 398.2807291666686,
      "v": 96
    },
    {
      "midi": 80,
      "hit": false,
      "t": 108234.32,
      "d": 294.11500000000524,
      "v": 104
    },
    {
      "midi": 80,
      "hit": false,
      "t": 108234.32000000018,
      "d": 266.54171874999884,
      "v": 98
    },
    {
      "midi": 81,
      "hit": false,
      "t": 108528.43500000001,
      "d": 294.11500000000524,
      "v": 105
    },
    {
      "midi": 81,
      "hit": false,
      "t": 108528.43500000019,
      "d": 189.94927083332732,
      "v": 99
    },
    {
      "midi": 83,
      "hit": false,
      "t": 108822.55000000002,
      "d": 294.11500000000524,
      "v": 105
    },
    {
      "midi": 83,
      "hit": false,
      "t": 108822.55000000018,
      "d": 165.43968749999476,
      "v": 103
    },
    {
      "midi": 92,
      "hit": false,
      "t": 109116.66500000002,
      "d": 1470.574999999997,
      "v": 104
    },
    {
      "midi": 78,
      "hit": false,
      "t": 109116.66500000017,
      "d": 1173.3963020833326,
      "v": 104
    },
    {
      "midi": 80,
      "hit": false,
      "t": 110587.24000000002,
      "d": 294.11500000000524,
      "v": 98
    },
    {
      "midi": 76,
      "hit": false,
      "t": 110587.24000000017,
      "d": 269.6054166666727,
      "v": 106
    },
    {
      "midi": 81,
      "hit": false,
      "t": 110881.35500000003,
      "d": 294.11500000000524,
      "v": 97
    },
    {
      "midi": 78,
      "hit": false,
      "t": 110881.35500000017,
      "d": 260.4143229166657,
      "v": 111
    },
    {
      "midi": 83,
      "hit": false,
      "t": 111175.47000000003,
      "d": 294.11500000000524,
      "v": 95
    },
    {
      "midi": 80,
      "hit": false,
      "t": 111175.47000000018,
      "d": 229.77734375,
      "v": 109
    },
    {
      "midi": 87,
      "hit": false,
      "t": 111469.58500000004,
      "d": 1470.574999999997,
      "v": 95
    },
    {
      "midi": 75,
      "hit": false,
      "t": 111469.58500000018,
      "d": 943.6189583333326,
      "v": 109
    },
    {
      "midi": 73,
      "hit": false,
      "t": 112646.04500000019,
      "d": 88.8472395833378,
      "v": 108
    },
    {
      "midi": 73,
      "hit": false,
      "t": 112940.16000000003,
      "d": 294.11500000000524,
      "v": 97
    },
    {
      "midi": 73,
      "hit": false,
      "t": 112940.16000000019,
      "d": 284.92390624999825,
      "v": 108
    },
    {
      "midi": 75,
      "hit": false,
      "t": 113234.27500000004,
      "d": 294.11500000000524,
      "v": 98
    },
    {
      "midi": 75,
      "hit": false,
      "t": 113234.2750000002,
      "d": 229.77734375,
      "v": 108
    },
    {
      "midi": 76,
      "hit": false,
      "t": 113528.39000000004,
      "d": 294.11500000000524,
      "v": 102
    },
    {
      "midi": 76,
      "hit": false,
      "t": 113528.3900000002,
      "d": 193.01296875000116,
      "v": 108
    },
    {
      "midi": 85,
      "hit": false,
      "t": 113822.50500000005,
      "d": 1764.6900000000023,
      "v": 104
    },
    {
      "midi": 85,
      "hit": false,
      "t": 113822.50500000021,
      "d": 762.8607812499977,
      "v": 108
    },
    {
      "midi": 73,
      "hit": false,
      "t": 115587.19500000005,
      "d": 294.11500000000524,
      "v": 95
    },
    {
      "midi": 73,
      "hit": false,
      "t": 115587.19500000021,
      "d": 245.09583333334012,
      "v": 91
    },
    {
      "midi": 75,
      "hit": false,
      "t": 115881.31000000006,
      "d": 294.11500000000524,
      "v": 98
    },
    {
      "midi": 75,
      "hit": false,
      "t": 115881.31000000022,
      "d": 214.45885416665988,
      "v": 91
    },
    {
      "midi": 76,
      "hit": false,
      "t": 116175.42500000006,
      "d": 294.11500000000524,
      "v": 98
    },
    {
      "midi": 76,
      "hit": false,
      "t": 116175.4250000002,
      "d": 208.33145833332674,
      "v": 93
    },
    {
      "midi": 81,
      "hit": false,
      "t": 116469.54000000007,
      "d": 294.11500000000524,
      "v": 102
    },
    {
      "midi": 81,
      "hit": false,
      "t": 116469.5400000002,
      "d": 202.2040624999936,
      "v": 98
    },
    {
      "midi": 80,
      "hit": false,
      "t": 116763.65500000007,
      "d": 294.11500000000524,
      "v": 102
    },
    {
      "midi": 80,
      "hit": false,
      "t": 116763.65500000019,
      "d": 257.3506250000064,
      "v": 96
    },
    {
      "midi": 78,
      "hit": false,
      "t": 117057.77000000008,
      "d": 294.11500000000524,
      "v": 104
    },
    {
      "midi": 78,
      "hit": false,
      "t": 117057.7700000002,
      "d": 238.96843750000698,
      "v": 99
    },
    {
      "midi": 76,
      "hit": false,
      "t": 117351.88500000008,
      "d": 294.11500000000524,
      "v": 104
    },
    {
      "midi": 76,
      "hit": false,
      "t": 117351.8850000002,
      "d": 232.84104166667385,
      "v": 103
    },
    {
      "midi": 75,
      "hit": false,
      "t": 117646.00000000009,
      "d": 294.11500000000524,
      "v": 98
    },
    {
      "midi": 75,
      "hit": false,
      "t": 117646.0000000002,
      "d": 245.09583333334012,
      "v": 103
    },
    {
      "midi": 76,
      "hit": false,
      "t": 117940.11500000009,
      "d": 294.11500000000524,
      "v": 95
    },
    {
      "midi": 76,
      "hit": false,
      "t": 117940.11500000021,
      "d": 229.77734375,
      "v": 103
    },
    {
      "midi": 78,
      "hit": false,
      "t": 118234.2300000001,
      "d": 294.11500000000524,
      "v": 95
    },
    {
      "midi": 78,
      "hit": false,
      "t": 118234.23000000021,
      "d": 174.63078125000175,
      "v": 104
    },
    {
      "midi": 87,
      "hit": false,
      "t": 118528.3450000001,
      "d": 1470.574999999997,
      "v": 97
    },
    {
      "midi": 87,
      "hit": false,
      "t": 118528.34500000022,
      "d": 303.3060937499977,
      "v": 104
    },
    {
      "midi": 75,
      "hit": false,
      "t": 119704.80500000021,
      "d": 147.05749999999534,
      "v": 103
    },
    {
      "midi": 71,
      "hit": false,
      "t": 119998.9200000001,
      "d": 294.11500000000524,
      "v": 88
    },
    {
      "midi": 75,
      "hit": false,
      "t": 119998.9200000002,
      "d": 287.9876041666721,
      "v": 103
    },
    {
      "midi": 73,
      "hit": false,
      "t": 120293.0350000001,
      "d": 294.11500000000524,
      "v": 88
    },
    {
      "midi": 76,
      "hit": false,
      "t": 120293.0350000002,
      "d": 275.7328125000058,
      "v": 103
    },
    {
      "midi": 75,
      "hit": false,
      "t": 120587.15000000011,
      "d": 294.11500000000524,
      "v": 88
    },
    {
      "midi": 78,
      "hit": false,
      "t": 120587.15000000021,
      "d": 235.90473958333314,
      "v": 103
    },
    {
      "midi": 83,
      "hit": false,
      "t": 120881.26500000012,
      "d": 1470.574999999997,
      "v": 88
    },
    {
      "midi": 83,
      "hit": false,
      "t": 120881.26500000022,
      "d": 778.1792708333378,
      "v": 104
    },
    {
      "midi": 68,
      "hit": false,
      "t": 122057.72500000022,
      "d": 220.58624999999302,
      "v": 101
    },
    {
      "midi": 80,
      "hit": false,
      "t": 122351.84000000011,
      "d": 459.5546875,
      "v": 101
    },
    {
      "midi": 83,
      "hit": false,
      "t": 122351.84000000011,
      "d": 459.5546875,
      "v": 101
    },
    {
      "midi": 88,
      "hit": false,
      "t": 122351.84000000011,
      "d": 459.5546875,
      "v": 101
    },
    {
      "midi": 64,
      "hit": false,
      "t": 122354.90369791689,
      "d": 1593.1229166666599,
      "v": 108
    },
    {
      "midi": 59,
      "hit": false,
      "t": 122354.90369791689,
      "d": 1599.250312499993,
      "v": 108
    },
    {
      "midi": 68,
      "hit": false,
      "t": 122354.90369791689,
      "d": 1605.3777083333262,
      "v": 108
    },
    {
      "midi": 83,
      "hit": false,
      "t": 124116.53000000012,
      "d": 159.31229166666162,
      "v": 87
    },
    {
      "midi": 87,
      "hit": false,
      "t": 124116.53000000012,
      "d": 165.43968749999476,
      "v": 100
    },
    {
      "midi": 78,
      "hit": false,
      "t": 124116.53000000012,
      "d": 171.5670833333279,
      "v": 98
    },
    {
      "midi": 66,
      "hit": false,
      "t": 124122.65739583355,
      "d": 456.4909895833407,
      "v": 116
    },
    {
      "midi": 63,
      "hit": false,
      "t": 124122.65739583355,
      "d": 471.80947916668083,
      "v": 116
    },
    {
      "midi": 59,
      "hit": false,
      "t": 124125.72109375022,
      "d": 450.363593749993,
      "v": 82
    },
    {
      "midi": 83,
      "hit": false,
      "t": 124410.6450000001,
      "d": 168.5033854166686,
      "v": 69
    },
    {
      "midi": 87,
      "hit": false,
      "t": 124410.6450000001,
      "d": 171.56708333334245,
      "v": 87
    },
    {
      "midi": 78,
      "hit": false,
      "t": 124410.6450000001,
      "d": 196.076666666675,
      "v": 96
    },
    {
      "midi": 88,
      "hit": false,
      "t": 124704.76000000011,
      "d": 422.79031250000116,
      "v": 98
    },
    {
      "midi": 83,
      "hit": false,
      "t": 124704.76000000011,
      "d": 441.1725000000006,
      "v": 91
    },
    {
      "midi": 80,
      "hit": false,
      "t": 124704.76000000011,
      "d": 459.5546875,
      "v": 103
    },
    {
      "midi": 59,
      "hit": false,
      "t": 124704.76000000023,
      "d": 1801.4543750000012,
      "v": 105
    },
    {
      "midi": 64,
      "hit": false,
      "t": 124707.8236979169,
      "d": 1902.5564062499907,
      "v": 116
    },
    {
      "midi": 68,
      "hit": false,
      "t": 124707.8236979169,
      "d": 2037.3591145833198,
      "v": 116
    },
    {
      "midi": 83,
      "hit": false,
      "t": 125587.10500000011,
      "d": 514.7012499999983,
      "v": 93
    },
    {
      "midi": 88,
      "hit": false,
      "t": 125587.10500000011,
      "d": 551.4656249999971,
      "v": 100
    },
    {
      "midi": 80,
      "hit": false,
      "t": 125587.10500000011,
      "d": 569.8478124999965,
      "v": 103
    },
    {
      "midi": 80,
      "hit": false,
      "t": 127057.68000000011,
      "d": 294.11500000000524,
      "v": 100
    },
    {
      "midi": 68,
      "hit": false,
      "t": 127057.68000000023,
      "d": 572.9115104166704,
      "v": 94
    },
    {
      "midi": 52,
      "hit": false,
      "t": 127057.68000000023,
      "d": 2276.3275520833413,
      "v": 73
    },
    {
      "midi": 81,
      "hit": false,
      "t": 127351.79500000011,
      "d": 294.11500000000524,
      "v": 98
    },
    {
      "midi": 83,
      "hit": false,
      "t": 127645.91000000012,
      "d": 294.11500000000524,
      "v": 100
    },
    {
      "midi": 92,
      "hit": false,
      "t": 127940.02500000013,
      "d": 1470.574999999997,
      "v": 110
    },
    {
      "midi": 66,
      "hit": false,
      "t": 127940.02500000023,
      "d": 162.37598958333547,
      "v": 101
    },
    {
      "midi": 66,
      "hit": false,
      "t": 128234.14000000023,
      "d": 735.2875000000058,
      "v": 108
    },
    {
      "midi": 64,
      "hit": false,
      "t": 129116.48500000023,
      "d": 171.5670833333279,
      "v": 99
    },
    {
      "midi": 76,
      "hit": false,
      "t": 129410.60000000012,
      "d": 294.11500000000524,
      "v": 95
    },
    {
      "midi": 64,
      "hit": false,
      "t": 129410.60000000024,
      "d": 744.4785937499983,
      "v": 104
    },
    {
      "midi": 40,
      "hit": false,
      "t": 129410.60000000024,
      "d": 2135.39744791665,
      "v": 80
    },
    {
      "midi": 52,
      "hit": false,
      "t": 129410.60000000024,
      "d": 2276.3275520833267,
      "v": 73
    },
    {
      "midi": 78,
      "hit": false,
      "t": 129704.71500000013,
      "d": 294.11500000000524,
      "v": 95
    },
    {
      "midi": 80,
      "hit": false,
      "t": 129998.83000000013,
      "d": 294.11500000000524,
      "v": 95
    },
    {
      "midi": 87,
      "hit": false,
      "t": 130292.94500000014,
      "d": 1470.574999999997,
      "v": 95
    },
    {
      "midi": 63,
      "hit": false,
      "t": 130292.94500000024,
      "d": 168.5033854166686,
      "v": 97
    },
    {
      "midi": 63,
      "hit": false,
      "t": 130587.06000000025,
      "d": 857.835416666654,
      "v": 99
    },
    {
      "midi": 61,
      "hit": false,
      "t": 131469.40500000023,
      "d": 193.01296875000116,
      "v": 97
    },
    {
      "midi": 73,
      "hit": false,
      "t": 131763.52000000014,
      "d": 294.1149999999907,
      "v": 95
    },
    {
      "midi": 69,
      "hit": false,
      "t": 131763.52000000022,
      "d": 692.3957291666593,
      "v": 111
    },
    {
      "midi": 45,
      "hit": false,
      "t": 131763.52000000022,
      "d": 2211.989895833307,
      "v": 111
    },
    {
      "midi": 75,
      "hit": false,
      "t": 132057.63500000013,
      "d": 294.1149999999907,
      "v": 97
    },
    {
      "midi": 76,
      "hit": false,
      "t": 132351.75000000012,
      "d": 294.1149999999907,
      "v": 100
    },
    {
      "midi": 85,
      "hit": false,
      "t": 132645.8650000001,
      "d": 1764.6900000000023,
      "v": 100
    },
    {
      "midi": 68,
      "hit": false,
      "t": 132645.86500000022,
      "d": 257.35062499999185,
      "v": 111
    },
    {
      "midi": 68,
      "hit": false,
      "t": 132939.9800000002,
      "d": 523.8923437499907,
      "v": 111
    },
    {
      "midi": 66,
      "hit": false,
      "t": 133528.2100000002,
      "d": 217.52255208333372,
      "v": 108
    },
    {
      "midi": 69,
      "hit": false,
      "t": 133822.3250000002,
      "d": 269.60541666668723,
      "v": 118
    },
    {
      "midi": 45,
      "hit": false,
      "t": 134116.4400000002,
      "d": 2009.785833333328,
      "v": 103
    },
    {
      "midi": 73,
      "hit": false,
      "t": 134410.5550000001,
      "d": 294.1149999999907,
      "v": 102
    },
    {
      "midi": 61,
      "hit": false,
      "t": 134410.5550000002,
      "d": 269.60541666665813,
      "v": 104
    },
    {
      "midi": 75,
      "hit": false,
      "t": 134704.6700000001,
      "d": 294.1149999999907,
      "v": 102
    },
    {
      "midi": 63,
      "hit": false,
      "t": 134704.6700000002,
      "d": 278.7965104166651,
      "v": 111
    },
    {
      "midi": 76,
      "hit": false,
      "t": 134998.7850000001,
      "d": 294.1149999999907,
      "v": 102
    },
    {
      "midi": 64,
      "hit": false,
      "t": 134998.78500000018,
      "d": 287.9876041666721,
      "v": 106
    },
    {
      "midi": 81,
      "hit": false,
      "t": 135292.90000000008,
      "d": 294.1149999999907,
      "v": 104
    },
    {
      "midi": 69,
      "hit": false,
      "t": 135292.9000000002,
      "d": 281.8602083333244,
      "v": 111
    },
    {
      "midi": 80,
      "hit": false,
      "t": 135587.01500000007,
      "d": 294.1149999999907,
      "v": 104
    },
    {
      "midi": 68,
      "hit": false,
      "t": 135587.0150000002,
      "d": 287.9876041666721,
      "v": 97
    },
    {
      "midi": 78,
      "hit": false,
      "t": 135881.13000000006,
      "d": 294.1149999999907,
      "v": 104
    },
    {
      "midi": 66,
      "hit": false,
      "t": 135881.1300000002,
      "d": 278.7965104166651,
      "v": 97
    },
    {
      "midi": 76,
      "hit": false,
      "t": 136175.24500000005,
      "d": 294.1149999999907,
      "v": 105
    },
    {
      "midi": 64,
      "hit": false,
      "t": 136175.2450000002,
      "d": 284.9239062500128,
      "v": 108
    },
    {
      "midi": 75,
      "hit": false,
      "t": 136469.36000000004,
      "d": 294.1149999999907,
      "v": 107
    },
    {
      "midi": 66,
      "hit": false,
      "t": 136469.36000000022,
      "d": 839.4532291666546,
      "v": 99
    },
    {
      "midi": 47,
      "hit": false,
      "t": 136469.36000000022,
      "d": 4699.712604166649,
      "v": 99
    },
    {
      "midi": 76,
      "hit": false,
      "t": 136763.47500000003,
      "d": 294.1149999999907,
      "v": 100
    },
    {
      "midi": 78,
      "hit": false,
      "t": 137057.59000000003,
      "d": 294.1149999999907,
      "v": 98
    },
    {
      "midi": 87,
      "hit": false,
      "t": 137351.70500000002,
      "d": 1470.5750000000116,
      "v": 98
    },
    {
      "midi": 64,
      "hit": false,
      "t": 137351.70500000022,
      "d": 232.8410416666593,
      "v": 103
    },
    {
      "midi": 64,
      "hit": false,
      "t": 137645.8200000002,
      "d": 867.0265104166756,
      "v": 108
    },
    {
      "midi": 63,
      "hit": false,
      "t": 138528.1650000002,
      "d": 223.6499479166523,
      "v": 109
    },
    {
      "midi": 71,
      "hit": false,
      "t": 138822.28000000003,
      "d": 294.1149999999907,
      "v": 100
    },
    {
      "midi": 63,
      "hit": false,
      "t": 138822.2800000002,
      "d": 848.6443229166616,
      "v": 109
    },
    {
      "midi": 73,
      "hit": false,
      "t": 139116.39500000002,
      "d": 294.1149999999907,
      "v": 100
    },
    {
      "midi": 75,
      "hit": false,
      "t": 139410.51,
      "d": 294.1149999999907,
      "v": 105
    },
    {
      "midi": 83,
      "hit": false,
      "t": 139704.625,
      "d": 1433.8106250000128,
      "v": 116
    },
    {
      "midi": 61,
      "hit": false,
      "t": 139704.6250000002,
      "d": 229.77734375,
      "v": 108
    },
    {
      "midi": 61,
      "hit": false,
      "t": 139998.7400000002,
      "d": 873.1539062499942,
      "v": 106
    },
    {
      "midi": 59,
      "hit": false,
      "t": 140881.0850000002,
      "d": 284.9239062500128,
      "v": 98
    },
    {
      "midi": 52,
      "hit": false,
      "t": 141175.20000000022,
      "d": 2680.735677083343,
      "v": 83
    },
    {
      "midi": 68,
      "hit": false,
      "t": 141175.20000000022,
      "d": 3256.7108854166872,
      "v": 111
    },
    {
      "midi": 59,
      "hit": false,
      "t": 141175.20000000022,
      "d": 3446.660156250029,
      "v": 74
    },
    {
      "midi": 59,
      "hit": false,
      "t": 144683.13411458358,
      "d": 1176.460000000021,
      "v": 83
    },
    {
      "midi": 52,
      "hit": false,
      "t": 144686.19781250024,
      "d": 1164.2052083333547,
      "v": 81
    },
    {
      "midi": 68,
      "hit": false,
      "t": 144704.58000000025,
      "d": 569.8478124999965,
      "v": 114
    },
    {
      "midi": 71,
      "hit": false,
      "t": 145305.06479166693,
      "d": 499.38276041665813,
      "v": 124
    },
    {
      "midi": 66,
      "hit": false,
      "t": 145868.7852083336,
      "d": 1145.8230208333407,
      "v": 118
    },
    {
      "midi": 47,
      "hit": false,
      "t": 145874.91260416695,
      "d": 2147.6522395833454,
      "v": 97
    },
    {
      "midi": 63,
      "hit": false,
      "t": 147045.24520833362,
      "d": 1148.88671875,
      "v": 116
    },
    {
      "midi": 47,
      "hit": false,
      "t": 148224.7689062503,
      "d": 793.4977604166779,
      "v": 111
    },
    {
      "midi": 66,
      "hit": false,
      "t": 148230.89630208365,
      "d": 943.6189583333326,
      "v": 109
    },
    {
      "midi": 59,
      "hit": false,
      "t": 148255.40588541699,
      "d": 909.918281249993,
      "v": 109
    },
    {
      "midi": 47,
      "hit": false,
      "t": 149398.16520833364,
      "d": 499.38276041665813,
      "v": 113
    },
    {
      "midi": 66,
      "hit": false,
      "t": 149416.54739583365,
      "d": 496.31906249996973,
      "v": 113
    },
    {
      "midi": 59,
      "hit": false,
      "t": 149419.6110937503,
      "d": 428.91770833331975,
      "v": 113
    },
    {
      "midi": 49,
      "hit": false,
      "t": 149983.33151041696,
      "d": 548.4019270833523,
      "v": 104
    },
    {
      "midi": 61,
      "hit": false,
      "t": 149992.52260416697,
      "d": 444.2361979166744,
      "v": 113
    },
    {
      "midi": 68,
      "hit": false,
      "t": 149992.52260416697,
      "d": 447.2998958333337,
      "v": 118
    },
    {
      "midi": 69,
      "hit": false,
      "t": 150580.75260416698,
      "d": 1102.9312499999942,
      "v": 111
    },
    {
      "midi": 42,
      "hit": false,
      "t": 150580.75260416698,
      "d": 2129.2700520833314,
      "v": 108
    },
    {
      "midi": 61,
      "hit": false,
      "t": 150583.81630208364,
      "d": 1081.485364583321,
      "v": 99
    },
    {
      "midi": 69,
      "hit": false,
      "t": 151769.46739583364,
      "d": 1001.8292187500047,
      "v": 101
    },
    {
      "midi": 61,
      "hit": false,
      "t": 151769.46739583364,
      "d": 1011.0203125000116,
      "v": 101
    },
    {
      "midi": 61,
      "hit": false,
      "t": 152939.8000000003,
      "d": 922.1730729166593,
      "v": 65
    },
    {
      "midi": 42,
      "hit": false,
      "t": 152958.18218750032,
      "d": 995.701822916657,
      "v": 79
    },
    {
      "midi": 69,
      "hit": false,
      "t": 152961.24588541698,
      "d": 1032.4661979166558,
      "v": 94
    },
    {
      "midi": 69,
      "hit": false,
      "t": 154104.00520833363,
      "d": 281.8602083333535,
      "v": 122
    },
    {
      "midi": 42,
      "hit": false,
      "t": 154110.13260416698,
      "d": 1017.1477083333593,
      "v": 77
    },
    {
      "midi": 68,
      "hit": false,
      "t": 154398.12020833365,
      "d": 346.1978645833442,
      "v": 108
    },
    {
      "midi": 66,
      "hit": false,
      "t": 154719.80848958367,
      "d": 462.6183854166884,
      "v": 127
    },
    {
      "midi": 68,
      "hit": false,
      "t": 155274.33781250037,
      "d": 2585.761041666672,
      "v": 101
    },
    {
      "midi": 61,
      "hit": false,
      "t": 155289.6563020837,
      "d": 2702.1815625000163,
      "v": 86
    },
    {
      "midi": 49,
      "hit": false,
      "t": 155289.6563020837,
      "d": 2729.754843750008,
      "v": 83
    },
    {
      "midi": 73,
      "hit": false,
      "t": 157939.75500000038,
      "d": 294.1149999999907,
      "v": 109
    },
    {
      "midi": 76,
      "hit": false,
      "t": 157939.75500000038,
      "d": 294.1149999999907,
      "v": 108
    },
    {
      "midi": 73,
      "hit": false,
      "t": 158233.87000000037,
      "d": 294.1149999999907,
      "v": 113
    },
    {
      "midi": 76,
      "hit": false,
      "t": 158233.87000000037,
      "d": 294.1149999999907,
      "v": 113
    },
    {
      "midi": 71,
      "hit": false,
      "t": 158527.98500000036,
      "d": 294.1149999999907,
      "v": 109
    },
    {
      "midi": 75,
      "hit": false,
      "t": 158527.98500000036,
      "d": 294.1149999999907,
      "v": 109
    },
    {
      "midi": 71,
      "hit": false,
      "t": 158822.10000000036,
      "d": 294.1149999999907,
      "v": 106
    },
    {
      "midi": 75,
      "hit": false,
      "t": 158822.10000000036,
      "d": 294.1149999999907,
      "v": 106
    },
    {
      "midi": 69,
      "hit": false,
      "t": 159116.21500000035,
      "d": 294.1149999999907,
      "v": 89
    },
    {
      "midi": 73,
      "hit": false,
      "t": 159116.21500000035,
      "d": 294.1149999999907,
      "v": 106
    },
    {
      "midi": 69,
      "hit": false,
      "t": 159410.33000000034,
      "d": 294.1149999999907,
      "v": 108
    },
    {
      "midi": 73,
      "hit": false,
      "t": 159410.33000000034,
      "d": 294.1149999999907,
      "v": 108
    },
    {
      "midi": 68,
      "hit": false,
      "t": 159704.44500000033,
      "d": 294.1149999999907,
      "v": 108
    },
    {
      "midi": 71,
      "hit": false,
      "t": 159704.44500000033,
      "d": 294.1149999999907,
      "v": 108
    },
    {
      "midi": 73,
      "hit": false,
      "t": 159998.56000000032,
      "d": 284.9239062500128,
      "v": 111
    },
    {
      "midi": 71,
      "hit": false,
      "t": 160292.67500000034,
      "d": 275.7328125000058,
      "v": 108
    },
    {
      "midi": 73,
      "hit": false,
      "t": 160586.79000000036,
      "d": 294.1149999999907,
      "v": 111
    },
    {
      "midi": 69,
      "hit": false,
      "t": 160880.90500000035,
      "d": 1945.4481770833372,
      "v": 106
    },
    {
      "midi": 73,
      "hit": false,
      "t": 162939.71000000034,
      "d": 566.7841145833372,
      "v": 96
    },
    {
      "midi": 75,
      "hit": false,
      "t": 163527.94000000035,
      "d": 579.0389062500035,
      "v": 94
    },
    {
      "midi": 76,
      "hit": false,
      "t": 164116.17000000036,
      "d": 572.9115104166558,
      "v": 97
    },
    {
      "midi": 71,
      "hit": false,
      "t": 164704.40000000034,
      "d": 287.9876041666721,
      "v": 103
    },
    {
      "midi": 69,
      "hit": false,
      "t": 164998.51500000036,
      "d": 269.60541666665813,
      "v": 103
    },
    {
      "midi": 71,
      "hit": false,
      "t": 165292.63000000035,
      "d": 140.93010416667676,
      "v": 104
    },
    {
      "midi": 71,
      "hit": false,
      "t": 165586.74500000037,
      "d": 1452.1928124999977,
      "v": 104
    },
    {
      "midi": 68,
      "hit": false,
      "t": 165586.74500000037,
      "d": 1464.447604166664,
      "v": 104
    },
    {
      "midi": 71,
      "hit": false,
      "t": 167057.32000000039,
      "d": 1170.3326041666733,
      "v": 86
    },
    {
      "midi": 75,
      "hit": false,
      "t": 168233.7800000004,
      "d": 1038.5935937500035,
      "v": 93
    },
    {
      "midi": 73,
      "hit": false,
      "t": 169410.2400000004,
      "d": 2153.779635416664,
      "v": 93
    },
    {
      "midi": 73,
      "hit": false,
      "t": 171763.16000000038,
      "d": 1041.6572916666628,
      "v": 94
    },
    {
      "midi": 76,
      "hit": false,
      "t": 172939.62000000037,
      "d": 1115.1860416666605,
      "v": 96
    },
    {
      "midi": 78,
      "hit": false,
      "t": 174116.08000000037,
      "d": 2181.352916666656,
      "v": 98
    },
    {
      "midi": 75,
      "hit": false,
      "t": 177048.03890625035,
      "d": 508.5738541666651,
      "v": 99
    },
    {
      "midi": 75,
      "hit": false,
      "t": 177057.23,
      "d": 588.2300000000105,
      "v": 88
    },
    {
      "midi": 76,
      "hit": false,
      "t": 177630.14151041702,
      "d": 490.19166666668025,
      "v": 98
    },
    {
      "midi": 76,
      "hit": false,
      "t": 177645.46000000002,
      "d": 588.2300000000105,
      "v": 90
    },
    {
      "midi": 78,
      "hit": false,
      "t": 178230.6263020837,
      "d": 398.2807291666686,
      "v": 96
    },
    {
      "midi": 78,
      "hit": false,
      "t": 178233.69000000003,
      "d": 588.2300000000105,
      "v": 90
    },
    {
      "midi": 80,
      "hit": false,
      "t": 178821.92000000004,
      "d": 294.1149999999907,
      "v": 90
    },
    {
      "midi": 80,
      "hit": false,
      "t": 178821.92000000036,
      "d": 266.54171874999884,
      "v": 99
    },
    {
      "midi": 81,
      "hit": false,
      "t": 179116.03500000003,
      "d": 294.1149999999907,
      "v": 92
    },
    {
      "midi": 81,
      "hit": false,
      "t": 179116.03500000035,
      "d": 189.94927083334187,
      "v": 101
    },
    {
      "midi": 83,
      "hit": false,
      "t": 179410.15000000002,
      "d": 294.1149999999907,
      "v": 95
    },
    {
      "midi": 83,
      "hit": false,
      "t": 179410.15000000037,
      "d": 165.4396875000093,
      "v": 101
    },
    {
      "midi": 92,
      "hit": false,
      "t": 179704.265,
      "d": 1470.5750000000116,
      "v": 98
    },
    {
      "midi": 78,
      "hit": false,
      "t": 179704.2650000004,
      "d": 1173.3963020833326,
      "v": 101
    },
    {
      "midi": 80,
      "hit": false,
      "t": 181174.84000000003,
      "d": 294.1149999999907,
      "v": 87
    },
    {
      "midi": 76,
      "hit": false,
      "t": 181174.8400000004,
      "d": 294.1149999999907,
      "v": 103
    },
    {
      "midi": 81,
      "hit": false,
      "t": 181468.95500000002,
      "d": 294.1149999999907,
      "v": 90
    },
    {
      "midi": 78,
      "hit": false,
      "t": 181468.9550000004,
      "d": 260.41432291668025,
      "v": 106
    },
    {
      "midi": 83,
      "hit": false,
      "t": 181763.07,
      "d": 294.1149999999907,
      "v": 92
    },
    {
      "midi": 80,
      "hit": false,
      "t": 181763.0700000004,
      "d": 229.77734375,
      "v": 108
    },
    {
      "midi": 87,
      "hit": false,
      "t": 182057.185,
      "d": 1470.5750000000116,
      "v": 95
    },
    {
      "midi": 75,
      "hit": false,
      "t": 182057.1850000004,
      "d": 943.6189583333326,
      "v": 111
    },
    {
      "midi": 73,
      "hit": false,
      "t": 183233.6450000004,
      "d": 88.84723958332324,
      "v": 103
    },
    {
      "midi": 73,
      "hit": false,
      "t": 183527.76,
      "d": 294.1149999999907,
      "v": 98
    },
    {
      "midi": 73,
      "hit": false,
      "t": 183527.7600000004,
      "d": 284.9239062500128,
      "v": 104
    },
    {
      "midi": 75,
      "hit": false,
      "t": 183821.875,
      "d": 294.1149999999907,
      "v": 100
    },
    {
      "midi": 75,
      "hit": false,
      "t": 183821.8750000004,
      "d": 229.77734375,
      "v": 106
    },
    {
      "midi": 76,
      "hit": false,
      "t": 184115.99,
      "d": 294.1149999999907,
      "v": 100
    },
    {
      "midi": 76,
      "hit": false,
      "t": 184115.9900000004,
      "d": 193.01296875000116,
      "v": 109
    },
    {
      "midi": 85,
      "hit": false,
      "t": 184410.10499999998,
      "d": 1764.6900000000023,
      "v": 104
    },
    {
      "midi": 85,
      "hit": false,
      "t": 184410.1050000004,
      "d": 762.8607812499977,
      "v": 108
    },
    {
      "midi": 73,
      "hit": false,
      "t": 186174.79499999998,
      "d": 294.1149999999907,
      "v": 97
    },
    {
      "midi": 73,
      "hit": false,
      "t": 186174.7950000004,
      "d": 245.09583333332557,
      "v": 109
    },
    {
      "midi": 75,
      "hit": false,
      "t": 186468.90999999997,
      "d": 294.1149999999907,
      "v": 98
    },
    {
      "midi": 75,
      "hit": false,
      "t": 186468.91000000038,
      "d": 214.45885416667443,
      "v": 109
    },
    {
      "midi": 76,
      "hit": false,
      "t": 186763.02499999997,
      "d": 294.1149999999907,
      "v": 98
    },
    {
      "midi": 76,
      "hit": false,
      "t": 186763.0250000004,
      "d": 208.33145833332674,
      "v": 109
    },
    {
      "midi": 81,
      "hit": false,
      "t": 187057.13999999996,
      "d": 294.1149999999907,
      "v": 95
    },
    {
      "midi": 81,
      "hit": false,
      "t": 187057.1400000004,
      "d": 202.20406250000815,
      "v": 109
    },
    {
      "midi": 80,
      "hit": false,
      "t": 187351.25499999995,
      "d": 294.1149999999907,
      "v": 95
    },
    {
      "midi": 80,
      "hit": false,
      "t": 187351.2550000004,
      "d": 257.35062499999185,
      "v": 109
    },
    {
      "midi": 78,
      "hit": false,
      "t": 187645.36999999994,
      "d": 294.1149999999907,
      "v": 98
    },
    {
      "midi": 78,
      "hit": false,
      "t": 187645.3700000004,
      "d": 238.96843750000698,
      "v": 109
    },
    {
      "midi": 76,
      "hit": false,
      "t": 187939.48499999993,
      "d": 294.1149999999907,
      "v": 102
    },
    {
      "midi": 76,
      "hit": false,
      "t": 187939.48500000042,
      "d": 232.8410416666593,
      "v": 108
    },
    {
      "midi": 75,
      "hit": false,
      "t": 188233.59999999992,
      "d": 294.1149999999907,
      "v": 104
    },
    {
      "midi": 75,
      "hit": false,
      "t": 188233.6000000004,
      "d": 245.09583333332557,
      "v": 106
    },
    {
      "midi": 76,
      "hit": false,
      "t": 188527.7149999999,
      "d": 294.1149999999907,
      "v": 104
    },
    {
      "midi": 76,
      "hit": false,
      "t": 188527.7150000004,
      "d": 229.77734375,
      "v": 103
    },
    {
      "midi": 78,
      "hit": false,
      "t": 188821.8299999999,
      "d": 294.1149999999907,
      "v": 97
    },
    {
      "midi": 78,
      "hit": false,
      "t": 188821.8300000004,
      "d": 174.6307812499872,
      "v": 101
    },
    {
      "midi": 87,
      "hit": false,
      "t": 189115.9449999999,
      "d": 1470.5750000000116,
      "v": 95
    },
    {
      "midi": 87,
      "hit": false,
      "t": 189115.94500000039,
      "d": 303.3060937499977,
      "v": 99
    },
    {
      "midi": 75,
      "hit": false,
      "t": 190292.40500000038,
      "d": 147.05749999999534,
      "v": 104
    },
    {
      "midi": 71,
      "hit": false,
      "t": 190586.5199999999,
      "d": 294.1149999999907,
      "v": 88
    },
    {
      "midi": 75,
      "hit": false,
      "t": 190586.52000000037,
      "d": 287.9876041666721,
      "v": 108
    },
    {
      "midi": 73,
      "hit": false,
      "t": 190880.6349999999,
      "d": 294.1149999999907,
      "v": 92
    },
    {
      "midi": 76,
      "hit": false,
      "t": 190880.6350000004,
      "d": 284.9239062500128,
      "v": 108
    },
    {
      "midi": 75,
      "hit": false,
      "t": 191174.74999999988,
      "d": 294.1149999999907,
      "v": 93
    },
    {
      "midi": 78,
      "hit": false,
      "t": 191174.7500000004,
      "d": 235.9047395833477,
      "v": 104
    },
    {
      "midi": 83,
      "hit": false,
      "t": 191468.86499999987,
      "d": 1470.5750000000116,
      "v": 87
    },
    {
      "midi": 83,
      "hit": false,
      "t": 191468.86500000043,
      "d": 778.1792708333232,
      "v": 101
    },
    {
      "midi": 68,
      "hit": false,
      "t": 192645.32500000042,
      "d": 220.58624999999302,
      "v": 104
    },
    {
      "midi": 80,
      "hit": false,
      "t": 192939.4399999999,
      "d": 459.5546875,
      "v": 101
    },
    {
      "midi": 83,
      "hit": false,
      "t": 192939.4399999999,
      "d": 459.5546875,
      "v": 101
    },
    {
      "midi": 88,
      "hit": false,
      "t": 192939.4399999999,
      "d": 459.5546875,
      "v": 101
    },
    {
      "midi": 59,
      "hit": false,
      "t": 192942.50369791707,
      "d": 1531.848958333343,
      "v": 105
    },
    {
      "midi": 64,
      "hit": false,
      "t": 192945.56739583373,
      "d": 1544.1037500000093,
      "v": 110
    },
    {
      "midi": 68,
      "hit": false,
      "t": 192948.6310937504,
      "d": 1482.829791666678,
      "v": 100
    },
    {
      "midi": 63,
      "hit": false,
      "t": 194698.00260416706,
      "d": 499.38276041668723,
      "v": 122
    },
    {
      "midi": 59,
      "hit": false,
      "t": 194701.06630208372,
      "d": 477.93687500001397,
      "v": 113
    },
    {
      "midi": 66,
      "hit": false,
      "t": 194701.06630208372,
      "d": 477.93687500001397,
      "v": 113
    },
    {
      "midi": 83,
      "hit": false,
      "t": 194704.1299999999,
      "d": 159.31229166666162,
      "v": 87
    },
    {
      "midi": 87,
      "hit": false,
      "t": 194704.1299999999,
      "d": 165.4396875000093,
      "v": 100
    },
    {
      "midi": 78,
      "hit": false,
      "t": 194704.1299999999,
      "d": 171.567083333357,
      "v": 98
    },
    {
      "midi": 83,
      "hit": false,
      "t": 194998.2449999999,
      "d": 168.5033854166686,
      "v": 69
    },
    {
      "midi": 87,
      "hit": false,
      "t": 194998.2449999999,
      "d": 171.5670833333279,
      "v": 87
    },
    {
      "midi": 78,
      "hit": false,
      "t": 194998.2449999999,
      "d": 196.07666666666046,
      "v": 96
    },
    {
      "midi": 59,
      "hit": false,
      "t": 195289.29630208376,
      "d": 1994.4673437500023,
      "v": 110
    },
    {
      "midi": 64,
      "hit": false,
      "t": 195289.29630208376,
      "d": 2086.378281250014,
      "v": 110
    },
    {
      "midi": 88,
      "hit": false,
      "t": 195292.3599999999,
      "d": 422.79031250000116,
      "v": 98
    },
    {
      "midi": 83,
      "hit": false,
      "t": 195292.3599999999,
      "d": 441.17250000001513,
      "v": 91
    },
    {
      "midi": 80,
      "hit": false,
      "t": 195292.3599999999,
      "d": 459.5546875000291,
      "v": 103
    },
    {
      "midi": 68,
      "hit": false,
      "t": 195292.36000000042,
      "d": 2254.8816666666826,
      "v": 109
    },
    {
      "midi": 83,
      "hit": false,
      "t": 196174.70499999993,
      "d": 514.7012500000128,
      "v": 93
    },
    {
      "midi": 88,
      "hit": false,
      "t": 196174.70499999993,
      "d": 551.4656250000116,
      "v": 100
    },
    {
      "midi": 80,
      "hit": false,
      "t": 196174.70499999993,
      "d": 569.8478125000256,
      "v": 103
    },
    {
      "midi": 80,
      "hit": false,
      "t": 197645.27999999994,
      "d": 294.1149999999907,
      "v": 98
    },
    {
      "midi": 68,
      "hit": false,
      "t": 197645.28000000044,
      "d": 572.9115104166558,
      "v": 94
    },
    {
      "midi": 52,
      "hit": false,
      "t": 197645.28000000044,
      "d": 2196.6714062499814,
      "v": 73
    },
    {
      "midi": 81,
      "hit": false,
      "t": 197939.39499999993,
      "d": 294.1149999999907,
      "v": 98
    },
    {
      "midi": 83,
      "hit": false,
      "t": 198233.50999999992,
      "d": 294.1149999999907,
      "v": 100
    },
    {
      "midi": 92,
      "hit": false,
      "t": 198527.6249999999,
      "d": 1470.5750000000116,
      "v": 110
    },
    {
      "midi": 66,
      "hit": false,
      "t": 198527.62500000044,
      "d": 162.37598958332092,
      "v": 101
    },
    {
      "midi": 66,
      "hit": false,
      "t": 198821.74000000043,
      "d": 735.2875000000058,
      "v": 108
    },
    {
      "midi": 64,
      "hit": false,
      "t": 199704.08500000043,
      "d": 171.5670833333279,
      "v": 99
    },
    {
      "midi": 76,
      "hit": false,
      "t": 199998.19999999992,
      "d": 294.1149999999907,
      "v": 94
    },
    {
      "midi": 64,
      "hit": false,
      "t": 199998.20000000042,
      "d": 744.4785937500128,
      "v": 104
    },
    {
      "midi": 40,
      "hit": false,
      "t": 199998.20000000042,
      "d": 2135.39744791665,
      "v": 80
    },
    {
      "midi": 52,
      "hit": false,
      "t": 199998.20000000042,
      "d": 2196.6714062499814,
      "v": 73
    },
    {
      "midi": 78,
      "hit": false,
      "t": 200292.31499999992,
      "d": 294.1149999999907,
      "v": 94
    },
    {
      "midi": 80,
      "hit": false,
      "t": 200586.4299999999,
      "d": 294.1149999999907,
      "v": 96
    },
    {
      "midi": 87,
      "hit": false,
      "t": 200880.5449999999,
      "d": 1470.5750000000116,
      "v": 98
    },
    {
      "midi": 63,
      "hit": false,
      "t": 200880.54500000042,
      "d": 168.5033854166686,
      "v": 97
    },
    {
      "midi": 63,
      "hit": false,
      "t": 201174.6600000004,
      "d": 857.8354166666686,
      "v": 99
    },
    {
      "midi": 61,
      "hit": false,
      "t": 202057.0050000004,
      "d": 193.01296875000116,
      "v": 97
    },
    {
      "midi": 73,
      "hit": false,
      "t": 202351.1199999999,
      "d": 294.1149999999907,
      "v": 91
    },
    {
      "midi": 69,
      "hit": false,
      "t": 202351.1200000004,
      "d": 692.3957291666593,
      "v": 111
    },
    {
      "midi": 45,
      "hit": false,
      "t": 202351.1200000004,
      "d": 2211.989895833307,
      "v": 111
    },
    {
      "midi": 75,
      "hit": false,
      "t": 202645.2349999999,
      "d": 294.1149999999907,
      "v": 93
    },
    {
      "midi": 76,
      "hit": false,
      "t": 202939.3499999999,
      "d": 294.1149999999907,
      "v": 96
    },
    {
      "midi": 85,
      "hit": false,
      "t": 203233.46499999988,
      "d": 1764.6900000000023,
      "v": 100
    },
    {
      "midi": 68,
      "hit": false,
      "t": 203233.4650000004,
      "d": 257.35062499999185,
      "v": 111
    },
    {
      "midi": 68,
      "hit": false,
      "t": 203527.5800000004,
      "d": 523.8923437499907,
      "v": 111
    },
    {
      "midi": 66,
      "hit": false,
      "t": 204115.81000000038,
      "d": 217.52255208333372,
      "v": 104
    },
    {
      "midi": 69,
      "hit": false,
      "t": 204409.92500000037,
      "d": 269.60541666668723,
      "v": 104
    },
    {
      "midi": 45,
      "hit": false,
      "t": 204704.0400000004,
      "d": 2009.7858333332697,
      "v": 106
    },
    {
      "midi": 73,
      "hit": false,
      "t": 204998.15499999988,
      "d": 294.1149999999907,
      "v": 93
    },
    {
      "midi": 61,
      "hit": false,
      "t": 204998.15500000038,
      "d": 269.60541666665813,
      "v": 104
    },
    {
      "midi": 75,
      "hit": false,
      "t": 205292.26999999987,
      "d": 294.1149999999907,
      "v": 93
    },
    {
      "midi": 63,
      "hit": false,
      "t": 205292.27000000037,
      "d": 269.60541666665813,
      "v": 111
    },
    {
      "midi": 76,
      "hit": false,
      "t": 205586.38499999986,
      "d": 294.1149999999907,
      "v": 98
    },
    {
      "midi": 64,
      "hit": false,
      "t": 205586.38500000036,
      "d": 294.1149999999907,
      "v": 106
    },
    {
      "midi": 81,
      "hit": false,
      "t": 205880.49999999985,
      "d": 294.1149999999907,
      "v": 99
    },
    {
      "midi": 69,
      "hit": false,
      "t": 205880.50000000035,
      "d": 281.8602083333244,
      "v": 111
    },
    {
      "midi": 80,
      "hit": false,
      "t": 206174.61499999985,
      "d": 294.1149999999907,
      "v": 101
    },
    {
      "midi": 68,
      "hit": false,
      "t": 206174.61500000034,
      "d": 266.54171874999884,
      "v": 97
    },
    {
      "midi": 78,
      "hit": false,
      "t": 206468.72999999984,
      "d": 294.1149999999907,
      "v": 104
    },
    {
      "midi": 66,
      "hit": false,
      "t": 206468.73000000033,
      "d": 269.60541666665813,
      "v": 97
    },
    {
      "midi": 76,
      "hit": false,
      "t": 206762.84499999983,
      "d": 294.1149999999907,
      "v": 106
    },
    {
      "midi": 64,
      "hit": false,
      "t": 206762.84500000032,
      "d": 284.9239062500128,
      "v": 108
    },
    {
      "midi": 75,
      "hit": false,
      "t": 207056.95999999982,
      "d": 294.1149999999907,
      "v": 106
    },
    {
      "midi": 66,
      "hit": false,
      "t": 207056.96000000034,
      "d": 839.4532291666546,
      "v": 99
    },
    {
      "midi": 47,
      "hit": false,
      "t": 207056.96000000034,
      "d": 4699.712604166649,
      "v": 99
    },
    {
      "midi": 76,
      "hit": false,
      "t": 207351.0749999998,
      "d": 294.1149999999907,
      "v": 106
    },
    {
      "midi": 78,
      "hit": false,
      "t": 207645.1899999998,
      "d": 294.1149999999907,
      "v": 106
    },
    {
      "midi": 87,
      "hit": false,
      "t": 207939.3049999998,
      "d": 1470.5750000000116,
      "v": 100
    },
    {
      "midi": 64,
      "hit": false,
      "t": 207939.30500000034,
      "d": 232.8410416666593,
      "v": 103
    },
    {
      "midi": 64,
      "hit": false,
      "t": 208233.42000000033,
      "d": 854.7717187500093,
      "v": 108
    },
    {
      "midi": 63,
      "hit": false,
      "t": 209115.76500000033,
      "d": 223.6499479166523,
      "v": 109
    },
    {
      "midi": 71,
      "hit": false,
      "t": 209409.8799999998,
      "d": 294.1149999999907,
      "v": 94
    },
    {
      "midi": 63,
      "hit": false,
      "t": 209409.88000000032,
      "d": 848.6443229166616,
      "v": 109
    },
    {
      "midi": 73,
      "hit": false,
      "t": 209703.9949999998,
      "d": 294.1149999999907,
      "v": 103
    },
    {
      "midi": 75,
      "hit": false,
      "t": 209998.10999999978,
      "d": 294.1149999999907,
      "v": 104
    },
    {
      "midi": 83,
      "hit": false,
      "t": 210292.22499999977,
      "d": 1470.5750000000116,
      "v": 101
    },
    {
      "midi": 61,
      "hit": false,
      "t": 210292.22500000033,
      "d": 229.77734375,
      "v": 108
    },
    {
      "midi": 61,
      "hit": false,
      "t": 210586.34000000032,
      "d": 873.1539062499942,
      "v": 106
    },
    {
      "midi": 59,
      "hit": false,
      "t": 211468.68500000032,
      "d": 294.1150000000198,
      "v": 101
    },
    {
      "midi": 80,
      "hit": false,
      "t": 211762.79999999978,
      "d": 294.1149999999907,
      "v": 93
    },
    {
      "midi": 80,
      "hit": false,
      "t": 211762.80000000034,
      "d": 266.54171874999884,
      "v": 99
    },
    {
      "midi": 81,
      "hit": false,
      "t": 212056.91499999978,
      "d": 294.1149999999907,
      "v": 98
    },
    {
      "midi": 81,
      "hit": false,
      "t": 212056.91500000033,
      "d": 189.94927083334187,
      "v": 99
    },
    {
      "midi": 83,
      "hit": false,
      "t": 212351.02999999977,
      "d": 294.1149999999907,
      "v": 101
    },
    {
      "midi": 83,
      "hit": false,
      "t": 212351.03000000035,
      "d": 165.4396875000093,
      "v": 104
    },
    {
      "midi": 92,
      "hit": false,
      "t": 212645.14499999976,
      "d": 1470.5750000000116,
      "v": 103
    },
    {
      "midi": 78,
      "hit": false,
      "t": 212645.14500000037,
      "d": 1173.3963020833326,
      "v": 104
    },
    {
      "midi": 80,
      "hit": false,
      "t": 214115.71999999977,
      "d": 294.1149999999907,
      "v": 96
    },
    {
      "midi": 76,
      "hit": false,
      "t": 214115.72000000038,
      "d": 275.7328125000058,
      "v": 103
    },
    {
      "midi": 81,
      "hit": false,
      "t": 214409.83499999976,
      "d": 294.1149999999907,
      "v": 96
    },
    {
      "midi": 78,
      "hit": false,
      "t": 214409.8350000004,
      "d": 260.41432291668025,
      "v": 106
    },
    {
      "midi": 83,
      "hit": false,
      "t": 214703.94999999975,
      "d": 294.1149999999907,
      "v": 96
    },
    {
      "midi": 80,
      "hit": false,
      "t": 214703.95000000042,
      "d": 229.77734375,
      "v": 108
    },
    {
      "midi": 87,
      "hit": false,
      "t": 214998.06499999974,
      "d": 1470.5750000000116,
      "v": 93
    },
    {
      "midi": 75,
      "hit": false,
      "t": 214998.0650000004,
      "d": 943.6189583333326,
      "v": 104
    },
    {
      "midi": 40,
      "hit": false,
      "t": 216294.0092187504,
      "d": 2558.1877604166802,
      "v": 84
    },
    {
      "midi": 59,
      "hit": false,
      "t": 216349.15578125042,
      "d": 2401.939166666678,
      "v": 89
    },
    {
      "midi": 52,
      "hit": false,
      "t": 216364.47427083374,
      "d": 2377.4295833333454,
      "v": 89
    },
    {
      "midi": 64,
      "hit": false,
      "t": 216438.00302083374,
      "d": 2328.4104166666802,
      "v": 93
    },
    {
      "midi": 68,
      "hit": false,
      "t": 216496.2132812504,
      "d": 2401.939166666678,
      "v": 108
    }
  ]
}