{
  "jsonPath": "Rock/Indie Folk/The Deep Dark Woods/the-gallows.json",
  "path": "Rock\\Indie Folk\\The Deep Dark Woods\\The Gallows.mid",
  "name": "The Gallows",
  "difficulty": "Intermediate",
  "bpm": 102.0000510000255,
  "notes": [
    {
      "midi": 57,
      "hit": false,
      "t": 7627.11,
      "d": 1016.9479999999994,
      "v": 82
    },
    {
      "midi": 62,
      "hit": false,
      "t": 8135.584,
      "d": 1016.9479999999994,
      "v": 86
    },
    {
      "midi": 66,
      "hit": false,
      "t": 8644.057999999999,
      "d": 1016.9480000000003,
      "v": 83
    },
    {
      "midi": 86,
      "hit": false,
      "t": 9152.532,
      "d": 1016.9480000000003,
      "v": 82
    },
    {
      "midi": 81,
      "hit": false,
      "t": 9661.006,
      "d": 1016.9480000000003,
      "v": 75
    },
    {
      "midi": 78,
      "hit": false,
      "t": 10677.954,
      "d": 1016.9480000000003,
      "v": 74
    },
    {
      "midi": 81,
      "hit": false,
      "t": 11694.902,
      "d": 1779.6589999999997,
      "v": 69
    },
    {
      "midi": 83,
      "hit": false,
      "t": 17288.115999999998,
      "d": 1016.9479999999967,
      "v": 77
    },
    {
      "midi": 78,
      "hit": false,
      "t": 17796.589999999997,
      "d": 1271.1849999999977,
      "v": 77
    },
    {
      "midi": 76,
      "hit": false,
      "t": 18813.537999999993,
      "d": 1271.1850000000013,
      "v": 74
    },
    {
      "midi": 79,
      "hit": false,
      "t": 20338.959999999995,
      "d": 1271.1850000000013,
      "v": 68
    },
    {
      "midi": 74,
      "hit": false,
      "t": 20338.959999999995,
      "d": 1525.4220000000023,
      "v": 68
    },
    {
      "midi": 57,
      "hit": false,
      "t": 23898.278,
      "d": 1016.9479999999967,
      "v": 72
    },
    {
      "midi": 62,
      "hit": false,
      "t": 24406.751999999997,
      "d": 1016.9479999999967,
      "v": 78
    },
    {
      "midi": 69,
      "hit": false,
      "t": 24915.225999999995,
      "d": 1016.9479999999967,
      "v": 79
    },
    {
      "midi": 74,
      "hit": false,
      "t": 25423.699999999993,
      "d": 1016.9479999999967,
      "v": 72
    },
    {
      "midi": 86,
      "hit": false,
      "t": 25423.699999999993,
      "d": 1016.9479999999967,
      "v": 72
    },
    {
      "midi": 69,
      "hit": false,
      "t": 25932.17399999999,
      "d": 1016.9479999999967,
      "v": 74
    },
    {
      "midi": 81,
      "hit": false,
      "t": 25932.17399999999,
      "d": 1016.9479999999967,
      "v": 74
    },
    {
      "midi": 66,
      "hit": false,
      "t": 26949.12199999999,
      "d": 1016.9480000000003,
      "v": 75
    },
    {
      "midi": 78,
      "hit": false,
      "t": 26949.12199999999,
      "d": 1016.9480000000003,
      "v": 75
    },
    {
      "midi": 69,
      "hit": false,
      "t": 27966.06999999999,
      "d": 1016.9480000000003,
      "v": 73
    },
    {
      "midi": 81,
      "hit": false,
      "t": 27966.06999999999,
      "d": 1779.6589999999997,
      "v": 73
    },
    {
      "midi": 66,
      "hit": false,
      "t": 30508.439999999988,
      "d": 1271.1850000000013,
      "v": 67
    },
    {
      "midi": 62,
      "hit": false,
      "t": 31016.913999999986,
      "d": 254.237000000001,
      "v": 69
    },
    {
      "midi": 69,
      "hit": false,
      "t": 31525.387999999988,
      "d": 1271.1850000000013,
      "v": 74
    },
    {
      "midi": 66,
      "hit": false,
      "t": 32033.86199999999,
      "d": 1271.1850000000013,
      "v": 74
    },
    {
      "midi": 71,
      "hit": false,
      "t": 33559.28399999999,
      "d": 1016.948000000004,
      "v": 73
    },
    {
      "midi": 83,
      "hit": false,
      "t": 33559.28399999999,
      "d": 1016.948000000004,
      "v": 73
    },
    {
      "midi": 66,
      "hit": false,
      "t": 34067.757999999994,
      "d": 1016.948000000004,
      "v": 75
    },
    {
      "midi": 78,
      "hit": false,
      "t": 34067.757999999994,
      "d": 1271.185000000005,
      "v": 75
    },
    {
      "midi": 64,
      "hit": false,
      "t": 35084.706,
      "d": 1016.948000000004,
      "v": 74
    },
    {
      "midi": 76,
      "hit": false,
      "t": 35084.706,
      "d": 1271.185000000005,
      "v": 74
    },
    {
      "midi": 62,
      "hit": false,
      "t": 36610.128000000004,
      "d": 1016.9479999999967,
      "v": 70
    },
    {
      "midi": 79,
      "hit": false,
      "t": 36610.128000000004,
      "d": 1271.1849999999977,
      "v": 70
    },
    {
      "midi": 74,
      "hit": false,
      "t": 36610.128000000004,
      "d": 1525.4219999999987,
      "v": 70
    },
    {
      "midi": 62,
      "hit": false,
      "t": 39152.498,
      "d": 1271.185000000005,
      "v": 59
    },
    {
      "midi": 66,
      "hit": false,
      "t": 39660.972,
      "d": 1271.185000000005,
      "v": 59
    },
    {
      "midi": 69,
      "hit": false,
      "t": 40169.446,
      "d": 1271.185000000005,
      "v": 59
    },
    {
      "midi": 74,
      "hit": false,
      "t": 155593.044,
      "d": 1016.9479999999749,
      "v": 75
    },
    {
      "midi": 86,
      "hit": false,
      "t": 155593.044,
      "d": 1016.9479999999749,
      "v": 75
    },
    {
      "midi": 69,
      "hit": false,
      "t": 156101.51799999998,
      "d": 1016.9479999999749,
      "v": 75
    },
    {
      "midi": 81,
      "hit": false,
      "t": 156101.51799999998,
      "d": 1016.9479999999749,
      "v": 75
    },
    {
      "midi": 66,
      "hit": false,
      "t": 157118.46599999996,
      "d": 1016.948000000004,
      "v": 72
    },
    {
      "midi": 78,
      "hit": false,
      "t": 157118.46599999996,
      "d": 1016.948000000004,
      "v": 72
    },
    {
      "midi": 69,
      "hit": false,
      "t": 158135.41399999996,
      "d": 1016.948000000004,
      "v": 72
    },
    {
      "midi": 81,
      "hit": false,
      "t": 158135.41399999996,
      "d": 1779.6590000000142,
      "v": 72
    },
    {
      "midi": 66,
      "hit": false,
      "t": 160677.78399999996,
      "d": 1271.1849999999686,
      "v": 75
    },
    {
      "midi": 62,
      "hit": false,
      "t": 161186.25799999994,
      "d": 254.2369999999937,
      "v": 71
    },
    {
      "midi": 69,
      "hit": false,
      "t": 161694.73199999993,
      "d": 1271.1849999999977,
      "v": 74
    },
    {
      "midi": 81,
      "hit": false,
      "t": 161694.73199999993,
      "d": 1271.1849999999977,
      "v": 74
    },
    {
      "midi": 66,
      "hit": false,
      "t": 162203.20599999992,
      "d": 1271.1849999999977,
      "v": 74
    },
    {
      "midi": 83,
      "hit": false,
      "t": 163728.6279999999,
      "d": 1016.9479999999749,
      "v": 75
    },
    {
      "midi": 71,
      "hit": false,
      "t": 163728.6279999999,
      "d": 1271.1849999999686,
      "v": 75
    },
    {
      "midi": 66,
      "hit": false,
      "t": 164237.1019999999,
      "d": 1271.1849999999686,
      "v": 77
    },
    {
      "midi": 78,
      "hit": false,
      "t": 164237.1019999999,
      "d": 1271.1849999999686,
      "v": 77
    },
    {
      "midi": 64,
      "hit": false,
      "t": 165254.04999999987,
      "d": 1271.1849999999977,
      "v": 72
    },
    {
      "midi": 76,
      "hit": false,
      "t": 165254.04999999987,
      "d": 1271.1849999999977,
      "v": 72
    },
    {
      "midi": 62,
      "hit": false,
      "t": 166779.47199999986,
      "d": 1271.1849999999977,
      "v": 61
    },
    {
      "midi": 79,
      "hit": false,
      "t": 166779.47199999986,
      "d": 1271.1849999999977,
      "v": 61
    },
    {
      "midi": 74,
      "hit": false,
      "t": 166779.47199999986,
      "d": 1525.4219999999914,
      "v": 61
    },
    {
      "midi": 62,
      "hit": false,
      "t": 168304.89399999985,
      "d": 1016.9479999999749,
      "v": 65
    },
    {
      "midi": 66,
      "hit": false,
      "t": 168813.36799999984,
      "d": 1016.9479999999749,
      "v": 68
    },
    {
      "midi": 69,
      "hit": false,
      "t": 169321.84199999983,
      "d": 508.4739999999874,
      "v": 62
    },
    {
      "midi": 62,
      "hit": false,
      "t": 280677.6479999998,
      "d": 1271.1849999999977,
      "v": 61
    },
    {
      "midi": 79,
      "hit": false,
      "t": 280677.6479999998,
      "d": 1271.1849999999977,
      "v": 61
    },
    {
      "midi": 74,
      "hit": false,
      "t": 280677.6479999998,
      "d": 1525.4220000000205,
      "v": 61
    },
    {
      "midi": 62,
      "hit": false,
      "t": 282203.06999999983,
      "d": 1016.9479999999749,
      "v": 65
    },
    {
      "midi": 66,
      "hit": false,
      "t": 282711.5439999998,
      "d": 1016.9479999999749,
      "v": 68
    },
    {
      "midi": 69,
      "hit": false,
      "t": 283220.0179999998,
      "d": 508.4739999999874,
      "v": 62
    },
    {
      "midi": 62,
      "hit": false,
      "t": 321355.5679999998,
      "d": 1271.1849999999977,
      "v": 61
    },
    {
      "midi": 79,
      "hit": false,
      "t": 321355.5679999998,
      "d": 1271.1849999999977,
      "v": 61
    },
    {
      "midi": 74,
      "hit": false,
      "t": 321355.5679999998,
      "d": 1525.4220000000205,
      "v": 61
    },
    {
      "midi": 62,
      "hit": false,
      "t": 322880.9899999998,
      "d": 1016.9479999999749,
      "v": 65
    },
    {
      "midi": 66,
      "hit": false,
      "t": 323389.4639999998,
      "d": 1016.9479999999749,
      "v": 68
    },
    {
      "midi": 69,
      "hit": false,
      "t": 323897.9379999998,
      "d": 508.4739999999874,
      "v": 62
    }
  ]
}