{
  "jsonPath": "Soundtracks/Video Game Music/Tetris/tetris-musicabossremix.json",
  "path": "Soundtracks\\Video Game Music\\Tetris\\Tetris_MusicABossRemix.mid",
  "name": "Tetris_MusicABossRemix",
  "difficulty": "Advanced",
  "bpm": 165.000165000165,
  "notes": [
    {
      "midi": 68,
      "hit": false,
      "t": 0,
      "d": 157.8945,
      "v": 107
    },
    {
      "midi": 80,
      "hit": false,
      "t": 0,
      "d": 157.8945,
      "v": 107
    },
    {
      "midi": 47,
      "hit": false,
      "t": 0,
      "d": 157.8945,
      "v": 107
    },
    {
      "midi": 52,
      "hit": false,
      "t": 0.6578937499999999,
      "d": 138.81558125,
      "v": 107
    },
    {
      "midi": 56,
      "hit": false,
      "t": 0.6578937499999999,
      "d": 157.23660625,
      "v": 107
    },
    {
      "midi": 59,
      "hit": false,
      "t": 0.6578937499999999,
      "d": 167.1050125,
      "v": 107
    },
    {
      "midi": 76,
      "hit": false,
      "t": 157.8945,
      "d": 157.89449999999994,
      "v": 107
    },
    {
      "midi": 56,
      "hit": false,
      "t": 157.8945,
      "d": 28.947324999999978,
      "v": 107
    },
    {
      "midi": 52,
      "hit": false,
      "t": 157.8945,
      "d": 157.89449999999994,
      "v": 107
    },
    {
      "midi": 64,
      "hit": false,
      "t": 167.76290625,
      "d": 128.28928124999996,
      "v": 107
    },
    {
      "midi": 47,
      "hit": false,
      "t": 167.76290625,
      "d": 128.28928124999996,
      "v": 107
    },
    {
      "midi": 76,
      "hit": false,
      "t": 315.78899999999993,
      "d": 157.8945,
      "v": 107
    },
    {
      "midi": 80,
      "hit": false,
      "t": 315.78899999999993,
      "d": 157.8945,
      "v": 107
    },
    {
      "midi": 52,
      "hit": false,
      "t": 315.78899999999993,
      "d": 157.8945,
      "v": 107
    },
    {
      "midi": 68,
      "hit": false,
      "t": 324.9995124999999,
      "d": 142.76294374999998,
      "v": 107
    },
    {
      "midi": 47,
      "hit": false,
      "t": 324.9995124999999,
      "d": 126.97349374999999,
      "v": 107
    },
    {
      "midi": 78,
      "hit": false,
      "t": 473.6834999999999,
      "d": 157.89450000000005,
      "v": 107
    },
    {
      "midi": 81,
      "hit": false,
      "t": 473.6834999999999,
      "d": 157.89450000000005,
      "v": 107
    },
    {
      "midi": 56,
      "hit": false,
      "t": 473.6834999999999,
      "d": 157.89450000000005,
      "v": 107
    },
    {
      "midi": 47,
      "hit": false,
      "t": 473.6834999999999,
      "d": 157.89450000000005,
      "v": 107
    },
    {
      "midi": 69,
      "hit": false,
      "t": 480.2624374999999,
      "d": 144.736625,
      "v": 107
    },
    {
      "midi": 52,
      "hit": false,
      "t": 480.2624374999999,
      "d": 128.94717500000002,
      "v": 107
    },
    {
      "midi": 71,
      "hit": false,
      "t": 631.578,
      "d": 315.789,
      "v": 107
    },
    {
      "midi": 80,
      "hit": false,
      "t": 631.578,
      "d": 315.789,
      "v": 107
    },
    {
      "midi": 83,
      "hit": false,
      "t": 631.578,
      "d": 315.789,
      "v": 107
    },
    {
      "midi": 56,
      "hit": false,
      "t": 631.578,
      "d": 157.8945,
      "v": 107
    },
    {
      "midi": 52,
      "hit": false,
      "t": 631.578,
      "d": 157.8945,
      "v": 107
    },
    {
      "midi": 47,
      "hit": false,
      "t": 637.4990437499999,
      "d": 128.94717500000002,
      "v": 107
    },
    {
      "midi": 56,
      "hit": false,
      "t": 789.4725,
      "d": 157.8945,
      "v": 107
    },
    {
      "midi": 47,
      "hit": false,
      "t": 794.73565,
      "d": 127.63138749999996,
      "v": 107
    },
    {
      "midi": 64,
      "hit": false,
      "t": 947.367,
      "d": 78.94724999999994,
      "v": 107
    },
    {
      "midi": 56,
      "hit": false,
      "t": 947.367,
      "d": 157.89449999999988,
      "v": 107
    },
    {
      "midi": 47,
      "hit": false,
      "t": 947.367,
      "d": 157.89449999999988,
      "v": 107
    },
    {
      "midi": 52,
      "hit": false,
      "t": 950.6564687499999,
      "d": 126.97349374999999,
      "v": 107
    },
    {
      "midi": 69,
      "hit": false,
      "t": 1026.31425,
      "d": 78.94724999999994,
      "v": 107
    },
    {
      "midi": 72,
      "hit": false,
      "t": 1105.2614999999998,
      "d": 78.94724999999994,
      "v": 107
    },
    {
      "midi": 56,
      "hit": false,
      "t": 1105.2614999999998,
      "d": 157.8945000000001,
      "v": 107
    },
    {
      "midi": 47,
      "hit": false,
      "t": 1106.5772874999998,
      "d": 127.63138750000007,
      "v": 107
    },
    {
      "midi": 76,
      "hit": false,
      "t": 1184.2087499999998,
      "d": 78.94724999999994,
      "v": 107
    },
    {
      "midi": 69,
      "hit": false,
      "t": 1263.1559999999997,
      "d": 157.8945000000001,
      "v": 100
    },
    {
      "midi": 45,
      "hit": false,
      "t": 1263.156,
      "d": 157.89449999999988,
      "v": 80
    },
    {
      "midi": 72,
      "hit": false,
      "t": 1263.8138937499998,
      "d": 154.6050312499999,
      "v": 100
    },
    {
      "midi": 76,
      "hit": false,
      "t": 1263.8138937499998,
      "d": 154.6050312499999,
      "v": 100
    },
    {
      "midi": 72,
      "hit": false,
      "t": 1421.0504999999998,
      "d": 78.94724999999994,
      "v": 100
    },
    {
      "midi": 76,
      "hit": false,
      "t": 1421.0504999999998,
      "d": 78.94724999999994,
      "v": 100
    },
    {
      "midi": 48,
      "hit": false,
      "t": 1421.0504999999998,
      "d": 78.94724999999994,
      "v": 80
    },
    {
      "midi": 64,
      "hit": false,
      "t": 1578.9449999999997,
      "d": 157.89449999999988,
      "v": 100
    },
    {
      "midi": 40,
      "hit": false,
      "t": 1588.1555124999998,
      "d": 126.97349374999999,
      "v": 80
    },
    {
      "midi": 72,
      "hit": false,
      "t": 1736.8394999999996,
      "d": 78.94724999999994,
      "v": 100
    },
    {
      "midi": 76,
      "hit": false,
      "t": 1736.8394999999996,
      "d": 78.94724999999994,
      "v": 100
    },
    {
      "midi": 48,
      "hit": false,
      "t": 1736.8394999999998,
      "d": 78.94724999999994,
      "v": 80
    },
    {
      "midi": 69,
      "hit": false,
      "t": 1894.7339999999995,
      "d": 157.89449999999988,
      "v": 100
    },
    {
      "midi": 45,
      "hit": false,
      "t": 1900.6550437499998,
      "d": 128.94717500000002,
      "v": 80
    },
    {
      "midi": 72,
      "hit": false,
      "t": 2052.6284999999993,
      "d": 78.94725000000017,
      "v": 100
    },
    {
      "midi": 76,
      "hit": false,
      "t": 2052.6284999999993,
      "d": 78.94725000000017,
      "v": 100
    },
    {
      "midi": 48,
      "hit": false,
      "t": 2052.6285,
      "d": 78.94725000000017,
      "v": 80
    },
    {
      "midi": 64,
      "hit": false,
      "t": 2210.5229999999997,
      "d": 157.89449999999988,
      "v": 100
    },
    {
      "midi": 40,
      "hit": false,
      "t": 2213.81246875,
      "d": 126.97349375000022,
      "v": 80
    },
    {
      "midi": 72,
      "hit": false,
      "t": 2368.4174999999996,
      "d": 78.94725000000017,
      "v": 100
    },
    {
      "midi": 76,
      "hit": false,
      "t": 2368.4174999999996,
      "d": 78.94725000000017,
      "v": 100
    },
    {
      "midi": 48,
      "hit": false,
      "t": 2368.4175,
      "d": 78.94725000000017,
      "v": 80
    },
    {
      "midi": 69,
      "hit": false,
      "t": 2526.312,
      "d": 157.89449999999988,
      "v": 100
    },
    {
      "midi": 45,
      "hit": false,
      "t": 2526.96989375,
      "d": 138.81558124999992,
      "v": 80
    },
    {
      "midi": 72,
      "hit": false,
      "t": 2684.2065,
      "d": 78.94725000000017,
      "v": 100
    },
    {
      "midi": 76,
      "hit": false,
      "t": 2684.2065,
      "d": 78.94725000000017,
      "v": 100
    },
    {
      "midi": 48,
      "hit": false,
      "t": 2684.2065000000002,
      "d": 78.94725000000017,
      "v": 80
    },
    {
      "midi": 64,
      "hit": false,
      "t": 2842.101,
      "d": 157.89449999999988,
      "v": 100
    },
    {
      "midi": 40,
      "hit": false,
      "t": 2851.3115125000004,
      "d": 126.97349374999976,
      "v": 80
    },
    {
      "midi": 72,
      "hit": false,
      "t": 2999.9955,
      "d": 78.94725000000017,
      "v": 100
    },
    {
      "midi": 76,
      "hit": false,
      "t": 2999.9955,
      "d": 78.94725000000017,
      "v": 100
    },
    {
      "midi": 48,
      "hit": false,
      "t": 2999.9955,
      "d": 78.94725000000017,
      "v": 80
    },
    {
      "midi": 69,
      "hit": false,
      "t": 3157.8900000000003,
      "d": 157.89449999999988,
      "v": 100
    },
    {
      "midi": 45,
      "hit": false,
      "t": 3163.81104375,
      "d": 128.9471749999998,
      "v": 80
    },
    {
      "midi": 48,
      "hit": false,
      "t": 3315.7844999999998,
      "d": 78.94725000000017,
      "v": 80
    },
    {
      "midi": 72,
      "hit": false,
      "t": 3315.7845,
      "d": 78.94725000000017,
      "v": 100
    },
    {
      "midi": 76,
      "hit": false,
      "t": 3315.7845,
      "d": 78.94725000000017,
      "v": 100
    },
    {
      "midi": 64,
      "hit": false,
      "t": 3473.6790000000005,
      "d": 157.89449999999988,
      "v": 100
    },
    {
      "midi": 40,
      "hit": false,
      "t": 3476.96846875,
      "d": 126.97349375000022,
      "v": 80
    },
    {
      "midi": 48,
      "hit": false,
      "t": 3631.5735,
      "d": 78.94725000000017,
      "v": 80
    },
    {
      "midi": 72,
      "hit": false,
      "t": 3631.5735000000004,
      "d": 78.94725000000017,
      "v": 100
    },
    {
      "midi": 76,
      "hit": false,
      "t": 3631.5735000000004,
      "d": 78.94725000000017,
      "v": 100
    },
    {
      "midi": 44,
      "hit": false,
      "t": 3790.12589375,
      "d": 138.81558124999992,
      "v": 68
    },
    {
      "midi": 71,
      "hit": false,
      "t": 3790.1258937500006,
      "d": 157.23660625000002,
      "v": 100
    },
    {
      "midi": 76,
      "hit": false,
      "t": 3790.1258937500006,
      "d": 157.23660625000002,
      "v": 100
    },
    {
      "midi": 47,
      "hit": false,
      "t": 3947.3625,
      "d": 78.94725000000017,
      "v": 68
    },
    {
      "midi": 76,
      "hit": false,
      "t": 3947.3625000000006,
      "d": 157.89449999999988,
      "v": 100
    },
    {
      "midi": 68,
      "hit": false,
      "t": 3947.3625000000006,
      "d": 157.89449999999988,
      "v": 100
    },
    {
      "midi": 71,
      "hit": false,
      "t": 4105.2570000000005,
      "d": 8.552618749999965,
      "v": 100
    },
    {
      "midi": 68,
      "hit": false,
      "t": 4105.2570000000005,
      "d": 157.89450000000033,
      "v": 100
    },
    {
      "midi": 40,
      "hit": false,
      "t": 4114.4675125,
      "d": 126.97349374999976,
      "v": 68
    },
    {
      "midi": 47,
      "hit": false,
      "t": 4263.1515,
      "d": 78.94725000000017,
      "v": 68
    },
    {
      "midi": 76,
      "hit": false,
      "t": 4263.151500000001,
      "d": 157.89450000000033,
      "v": 100
    },
    {
      "midi": 72,
      "hit": false,
      "t": 4263.151500000001,
      "d": 157.89450000000033,
      "v": 100
    },
    {
      "midi": 44,
      "hit": false,
      "t": 4426.96704375,
      "d": 128.94717500000024,
      "v": 68
    },
    {
      "midi": 74,
      "hit": false,
      "t": 4426.967043750001,
      "d": 157.89449999999943,
      "v": 100
    },
    {
      "midi": 71,
      "hit": false,
      "t": 4426.967043750001,
      "d": 176.31552499999907,
      "v": 100
    },
    {
      "midi": 47,
      "hit": false,
      "t": 4578.9405,
      "d": 78.94725000000017,
      "v": 68
    },
    {
      "midi": 72,
      "hit": false,
      "t": 4578.940500000001,
      "d": 157.89449999999943,
      "v": 100
    },
    {
      "midi": 76,
      "hit": false,
      "t": 4578.940500000001,
      "d": 157.89449999999943,
      "v": 100
    },
    {
      "midi": 69,
      "hit": false,
      "t": 4736.835,
      "d": 157.89450000000033,
      "v": 100
    },
    {
      "midi": 72,
      "hit": false,
      "t": 4736.835,
      "d": 157.89450000000033,
      "v": 100
    },
    {
      "midi": 40,
      "hit": false,
      "t": 4740.12446875,
      "d": 126.97349374999976,
      "v": 68
    },
    {
      "midi": 71,
      "hit": false,
      "t": 4894.7295,
      "d": 157.89450000000033,
      "v": 100
    },
    {
      "midi": 76,
      "hit": false,
      "t": 4894.7295,
      "d": 157.89450000000033,
      "v": 100
    },
    {
      "midi": 47,
      "hit": false,
      "t": 4894.7295,
      "d": 78.94725000000017,
      "v": 68
    },
    {
      "midi": 69,
      "hit": false,
      "t": 5052.624000000001,
      "d": 157.89449999999943,
      "v": 100
    },
    {
      "midi": 64,
      "hit": false,
      "t": 5053.281893750001,
      "d": 157.89449999999943,
      "v": 100
    },
    {
      "midi": 45,
      "hit": false,
      "t": 5053.281893750001,
      "d": 138.81558124999992,
      "v": 68
    },
    {
      "midi": 76,
      "hit": false,
      "t": 5210.5185,
      "d": 157.89449999999943,
      "v": 100
    },
    {
      "midi": 48,
      "hit": false,
      "t": 5210.5185,
      "d": 78.94725000000017,
      "v": 68
    },
    {
      "midi": 64,
      "hit": false,
      "t": 5377.623512499999,
      "d": 142.76294374999998,
      "v": 100
    },
    {
      "midi": 69,
      "hit": false,
      "t": 5377.623512499999,
      "d": 142.76294374999998,
      "v": 100
    },
    {
      "midi": 40,
      "hit": false,
      "t": 5377.6235125,
      "d": 126.97349374999976,
      "v": 68
    },
    {
      "midi": 72,
      "hit": false,
      "t": 5526.307499999999,
      "d": 157.89450000000033,
      "v": 100
    },
    {
      "midi": 76,
      "hit": false,
      "t": 5526.307499999999,
      "d": 157.89450000000033,
      "v": 100
    },
    {
      "midi": 48,
      "hit": false,
      "t": 5526.3075,
      "d": 78.94725000000017,
      "v": 68
    },
    {
      "midi": 72,
      "hit": false,
      "t": 5690.123043749999,
      "d": 313.15742500000033,
      "v": 100
    },
    {
      "midi": 76,
      "hit": false,
      "t": 5690.123043749999,
      "d": 313.15742500000033,
      "v": 100
    },
    {
      "midi": 45,
      "hit": false,
      "t": 5690.12304375,
      "d": 128.94717500000024,
      "v": 68
    },
    {
      "midi": 69,
      "hit": false,
      "t": 5842.096499999999,
      "d": 157.89450000000033,
      "v": 100
    },
    {
      "midi": 48,
      "hit": false,
      "t": 5842.0965,
      "d": 78.94725000000017,
      "v": 68
    },
    {
      "midi": 74,
      "hit": false,
      "t": 5999.990999999999,
      "d": 157.89450000000033,
      "v": 100
    },
    {
      "midi": 40,
      "hit": false,
      "t": 6003.28046875,
      "d": 126.97349374999976,
      "v": 68
    },
    {
      "midi": 76,
      "hit": false,
      "t": 6157.885499999999,
      "d": 157.89450000000033,
      "v": 100
    },
    {
      "midi": 69,
      "hit": false,
      "t": 6157.885499999999,
      "d": 157.89450000000033,
      "v": 100
    },
    {
      "midi": 48,
      "hit": false,
      "t": 6157.8855,
      "d": 78.94725000000017,
      "v": 68
    },
    {
      "midi": 68,
      "hit": false,
      "t": 6316.43789375,
      "d": 154.60503125000014,
      "v": 100
    },
    {
      "midi": 71,
      "hit": false,
      "t": 6316.43789375,
      "d": 154.60503125000014,
      "v": 100
    },
    {
      "midi": 44,
      "hit": false,
      "t": 6316.4378937500005,
      "d": 138.81558124999992,
      "v": 68
    },
    {
      "midi": 64,
      "hit": false,
      "t": 6473.6745,
      "d": 157.89450000000033,
      "v": 100
    },
    {
      "midi": 76,
      "hit": false,
      "t": 6473.6745,
      "d": 157.89450000000033,
      "v": 100
    },
    {
      "midi": 47,
      "hit": false,
      "t": 6473.6745,
      "d": 78.94725000000017,
      "v": 68
    },
    {
      "midi": 68,
      "hit": false,
      "t": 6631.569,
      "d": 157.89450000000033,
      "v": 100
    },
    {
      "midi": 71,
      "hit": false,
      "t": 6631.569,
      "d": 157.89450000000033,
      "v": 100
    },
    {
      "midi": 40,
      "hit": false,
      "t": 6640.7795125,
      "d": 126.97349374999976,
      "v": 68
    },
    {
      "midi": 47,
      "hit": false,
      "t": 6789.4635,
      "d": 78.94725000000017,
      "v": 68
    },
    {
      "midi": 72,
      "hit": false,
      "t": 6789.463500000001,
      "d": 157.89450000000033,
      "v": 100
    },
    {
      "midi": 76,
      "hit": false,
      "t": 6789.463500000001,
      "d": 157.89450000000033,
      "v": 100
    },
    {
      "midi": 71,
      "hit": false,
      "t": 6947.358000000001,
      "d": 157.89449999999943,
      "v": 100
    },
    {
      "midi": 44,
      "hit": false,
      "t": 6953.27904375,
      "d": 128.94717500000024,
      "v": 68
    },
    {
      "midi": 74,
      "hit": false,
      "t": 6953.279043750001,
      "d": 157.89449999999943,
      "v": 100
    },
    {
      "midi": 47,
      "hit": false,
      "t": 7105.2525,
      "d": 78.94725000000017,
      "v": 68
    },
    {
      "midi": 68,
      "hit": false,
      "t": 7105.2525000000005,
      "d": 157.89449999999943,
      "v": 100
    },
    {
      "midi": 76,
      "hit": false,
      "t": 7105.2525000000005,
      "d": 157.89449999999943,
      "v": 100
    },
    {
      "midi": 72,
      "hit": false,
      "t": 7266.43646875,
      "d": 311.8416374999997,
      "v": 100
    },
    {
      "midi": 76,
      "hit": false,
      "t": 7266.43646875,
      "d": 311.8416374999997,
      "v": 100
    },
    {
      "midi": 40,
      "hit": false,
      "t": 7266.43646875,
      "d": 126.97349374999976,
      "v": 68
    },
    {
      "midi": 71,
      "hit": false,
      "t": 7421.0415,
      "d": 157.89449999999943,
      "v": 100
    },
    {
      "midi": 47,
      "hit": false,
      "t": 7421.0415,
      "d": 78.94725000000017,
      "v": 68
    },
    {
      "midi": 69,
      "hit": false,
      "t": 7579.59389375,
      "d": 157.23660624999957,
      "v": 100
    },
    {
      "midi": 72,
      "hit": false,
      "t": 7579.59389375,
      "d": 157.23660624999957,
      "v": 100
    },
    {
      "midi": 45,
      "hit": false,
      "t": 7579.5938937500005,
      "d": 138.81558124999992,
      "v": 68
    },
    {
      "midi": 76,
      "hit": false,
      "t": 7736.830499999999,
      "d": 157.89450000000033,
      "v": 100
    },
    {
      "midi": 48,
      "hit": false,
      "t": 7736.8305,
      "d": 78.94725000000017,
      "v": 68
    },
    {
      "midi": 64,
      "hit": false,
      "t": 7903.935512499999,
      "d": 123.02613124999971,
      "v": 100
    },
    {
      "midi": 69,
      "hit": false,
      "t": 7903.935512499999,
      "d": 123.02613124999971,
      "v": 100
    },
    {
      "midi": 40,
      "hit": false,
      "t": 7903.9355125,
      "d": 126.97349374999976,
      "v": 68
    },
    {
      "midi": 72,
      "hit": false,
      "t": 8052.619499999999,
      "d": 157.89450000000033,
      "v": 100
    },
    {
      "midi": 76,
      "hit": false,
      "t": 8052.619499999999,
      "d": 157.89450000000033,
      "v": 100
    },
    {
      "midi": 48,
      "hit": false,
      "t": 8052.6195,
      "d": 78.94725000000017,
      "v": 68
    },
    {
      "midi": 64,
      "hit": false,
      "t": 8210.514,
      "d": 157.89450000000033,
      "v": 85
    },
    {
      "midi": 69,
      "hit": false,
      "t": 8216.43504375,
      "d": 151.9734562499998,
      "v": 85
    },
    {
      "midi": 45,
      "hit": false,
      "t": 8216.43504375,
      "d": 128.94717499999933,
      "v": 80
    },
    {
      "midi": 72,
      "hit": false,
      "t": 8368.4085,
      "d": 157.89450000000033,
      "v": 85
    },
    {
      "midi": 76,
      "hit": false,
      "t": 8368.4085,
      "d": 157.89450000000033,
      "v": 85
    },
    {
      "midi": 45,
      "hit": false,
      "t": 8373.671649999998,
      "d": 127.63138749999962,
      "v": 80
    },
    {
      "midi": 71,
      "hit": false,
      "t": 8526.303,
      "d": 157.89450000000033,
      "v": 85
    },
    {
      "midi": 47,
      "hit": false,
      "t": 8529.592468749997,
      "d": 126.97349374999976,
      "v": 80
    },
    {
      "midi": 76,
      "hit": false,
      "t": 8684.1975,
      "d": 157.89450000000033,
      "v": 85
    },
    {
      "midi": 48,
      "hit": false,
      "t": 8685.513287499996,
      "d": 127.63138749999962,
      "v": 80
    },
    {
      "midi": 74,
      "hit": false,
      "t": 8842.092,
      "d": 157.89450000000033,
      "v": 76
    },
    {
      "midi": 50,
      "hit": false,
      "t": 8842.749893749997,
      "d": 167.10501250000016,
      "v": 100
    },
    {
      "midi": 41,
      "hit": false,
      "t": 8999.986499999997,
      "d": 157.89450000000033,
      "v": 100
    },
    {
      "midi": 77,
      "hit": false,
      "t": 8999.9865,
      "d": 78.94724999999926,
      "v": 76
    },
    {
      "midi": 41,
      "hit": false,
      "t": 9157.880999999998,
      "d": 157.89450000000033,
      "v": 100
    },
    {
      "midi": 69,
      "hit": false,
      "t": 9157.881,
      "d": 157.89450000000033,
      "v": 76
    },
    {
      "midi": 45,
      "hit": false,
      "t": 9167.091512499997,
      "d": 155.2629250000009,
      "v": 100
    },
    {
      "midi": 74,
      "hit": false,
      "t": 9315.7755,
      "d": 78.94724999999926,
      "v": 76
    },
    {
      "midi": 77,
      "hit": false,
      "t": 9315.7755,
      "d": 78.94724999999926,
      "v": 76
    },
    {
      "midi": 45,
      "hit": false,
      "t": 9322.354437499998,
      "d": 100.65774375000001,
      "v": 100
    },
    {
      "midi": 53,
      "hit": false,
      "t": 9322.354437499998,
      "d": 144.73662499999955,
      "v": 100
    },
    {
      "midi": 72,
      "hit": false,
      "t": 9473.669999999998,
      "d": 157.89450000000033,
      "v": 76
    },
    {
      "midi": 48,
      "hit": false,
      "t": 9479.591043749997,
      "d": 313.1574249999994,
      "v": 100
    },
    {
      "midi": 57,
      "hit": false,
      "t": 9479.591043749997,
      "d": 313.1574249999994,
      "v": 100
    },
    {
      "midi": 74,
      "hit": false,
      "t": 9631.564499999999,
      "d": 78.94724999999926,
      "v": 76
    },
    {
      "midi": 77,
      "hit": false,
      "t": 9631.564499999999,
      "d": 78.94724999999926,
      "v": 76
    },
    {
      "midi": 71,
      "hit": false,
      "t": 9789.458999999997,
      "d": 157.89450000000033,
      "v": 76
    },
    {
      "midi": 47,
      "hit": false,
      "t": 9792.748468749996,
      "d": 143.42083749999983,
      "v": 100
    },
    {
      "midi": 55,
      "hit": false,
      "t": 9792.748468749996,
      "d": 143.42083749999983,
      "v": 100
    },
    {
      "midi": 74,
      "hit": false,
      "t": 9947.353499999997,
      "d": 78.94724999999926,
      "v": 76
    },
    {
      "midi": 77,
      "hit": false,
      "t": 9947.353499999997,
      "d": 78.94724999999926,
      "v": 76
    },
    {
      "midi": 45,
      "hit": false,
      "t": 9948.669287499995,
      "d": 143.42083749999983,
      "v": 100
    },
    {
      "midi": 53,
      "hit": false,
      "t": 9948.669287499995,
      "d": 156.57871250000062,
      "v": 100
    },
    {
      "midi": 69,
      "hit": false,
      "t": 10105.247999999996,
      "d": 157.89450000000033,
      "v": 76
    },
    {
      "midi": 52,
      "hit": false,
      "t": 10105.247999999996,
      "d": 473.6834999999992,
      "v": 100
    },
    {
      "midi": 48,
      "hit": false,
      "t": 10105.247999999996,
      "d": 473.6834999999992,
      "v": 100
    },
    {
      "midi": 43,
      "hit": false,
      "t": 10105.247999999996,
      "d": 473.6834999999992,
      "v": 100
    },
    {
      "midi": 72,
      "hit": false,
      "t": 10263.142499999996,
      "d": 78.94724999999926,
      "v": 76
    },
    {
      "midi": 76,
      "hit": false,
      "t": 10263.142499999996,
      "d": 78.94724999999926,
      "v": 76
    },
    {
      "midi": 72,
      "hit": false,
      "t": 10421.036999999995,
      "d": 157.89450000000033,
      "v": 76
    },
    {
      "midi": 67,
      "hit": false,
      "t": 10578.931499999995,
      "d": 78.94724999999926,
      "v": 76
    },
    {
      "midi": 76,
      "hit": false,
      "t": 10578.931499999995,
      "d": 78.94724999999926,
      "v": 76
    },
    {
      "midi": 40,
      "hit": false,
      "t": 10585.510437499996,
      "d": 144.73662499999955,
      "v": 100
    },
    {
      "midi": 48,
      "hit": false,
      "t": 10585.510437499996,
      "d": 144.73662499999955,
      "v": 100
    },
    {
      "midi": 72,
      "hit": false,
      "t": 10736.825999999994,
      "d": 157.89450000000033,
      "v": 76
    },
    {
      "midi": 48,
      "hit": false,
      "t": 10742.747043749994,
      "d": 255.9206687499991,
      "v": 100
    },
    {
      "midi": 43,
      "hit": false,
      "t": 10742.747043749994,
      "d": 309.8679562499983,
      "v": 100
    },
    {
      "midi": 52,
      "hit": false,
      "t": 10742.747043749994,
      "d": 313.1574249999976,
      "v": 100
    },
    {
      "midi": 67,
      "hit": false,
      "t": 10894.720499999994,
      "d": 78.94724999999926,
      "v": 76
    },
    {
      "midi": 76,
      "hit": false,
      "t": 10894.720499999994,
      "d": 78.94724999999926,
      "v": 76
    },
    {
      "midi": 74,
      "hit": false,
      "t": 11052.614999999993,
      "d": 157.89450000000033,
      "v": 76
    },
    {
      "midi": 41,
      "hit": false,
      "t": 11055.904468749992,
      "d": 143.42083749999983,
      "v": 100
    },
    {
      "midi": 50,
      "hit": false,
      "t": 11055.904468749992,
      "d": 143.42083749999983,
      "v": 100
    },
    {
      "midi": 67,
      "hit": false,
      "t": 11210.509499999993,
      "d": 78.94724999999926,
      "v": 76
    },
    {
      "midi": 76,
      "hit": false,
      "t": 11210.509499999993,
      "d": 78.94724999999926,
      "v": 76
    },
    {
      "midi": 40,
      "hit": false,
      "t": 11211.82528749999,
      "d": 143.42083749999983,
      "v": 100
    },
    {
      "midi": 48,
      "hit": false,
      "t": 11211.82528749999,
      "d": 156.57871250000062,
      "v": 100
    },
    {
      "midi": 71,
      "hit": false,
      "t": 11368.403999999991,
      "d": 157.89450000000033,
      "v": 76
    },
    {
      "midi": 44,
      "hit": false,
      "t": 11368.403999999991,
      "d": 315.78900000000067,
      "v": 107
    },
    {
      "midi": 47,
      "hit": false,
      "t": 11368.403999999991,
      "d": 315.78900000000067,
      "v": 107
    },
    {
      "midi": 76,
      "hit": false,
      "t": 11526.298499999992,
      "d": 78.94724999999926,
      "v": 76
    },
    {
      "midi": 71,
      "hit": false,
      "t": 11684.19299999999,
      "d": 157.89450000000033,
      "v": 76
    },
    {
      "midi": 44,
      "hit": false,
      "t": 11693.403512499992,
      "d": 142.76294374999998,
      "v": 107
    },
    {
      "midi": 47,
      "hit": false,
      "t": 11693.403512499992,
      "d": 142.76294374999998,
      "v": 107
    },
    {
      "midi": 76,
      "hit": false,
      "t": 11842.08749999999,
      "d": 78.94724999999926,
      "v": 76
    },
    {
      "midi": 48,
      "hit": false,
      "t": 11842.087499999992,
      "d": 157.89450000000033,
      "v": 107
    },
    {
      "midi": 45,
      "hit": false,
      "t": 11842.087499999992,
      "d": 157.89450000000033,
      "v": 107
    },
    {
      "midi": 74,
      "hit": false,
      "t": 11999.981999999989,
      "d": 157.89450000000033,
      "v": 76
    },
    {
      "midi": 44,
      "hit": false,
      "t": 11999.981999999993,
      "d": 157.89450000000033,
      "v": 107
    },
    {
      "midi": 47,
      "hit": false,
      "t": 11999.981999999993,
      "d": 157.89450000000033,
      "v": 107
    },
    {
      "midi": 50,
      "hit": false,
      "t": 11999.981999999993,
      "d": 157.89450000000033,
      "v": 107
    },
    {
      "midi": 76,
      "hit": false,
      "t": 12157.87649999999,
      "d": 78.94724999999926,
      "v": 76
    },
    {
      "midi": 71,
      "hit": false,
      "t": 12157.87649999999,
      "d": 78.94724999999926,
      "v": 76
    },
    {
      "midi": 52,
      "hit": false,
      "t": 12157.876499999993,
      "d": 78.94724999999926,
      "v": 81
    },
    {
      "midi": 76,
      "hit": false,
      "t": 12315.770999999988,
      "d": 157.89450000000033,
      "v": 76
    },
    {
      "midi": 48,
      "hit": false,
      "t": 12315.770999999992,
      "d": 157.89450000000033,
      "v": 107
    },
    {
      "midi": 52,
      "hit": false,
      "t": 12315.770999999992,
      "d": 157.89450000000033,
      "v": 107
    },
    {
      "midi": 71,
      "hit": false,
      "t": 12473.665499999988,
      "d": 78.94724999999926,
      "v": 76
    },
    {
      "midi": 52,
      "hit": false,
      "t": 12473.665499999992,
      "d": 78.94724999999926,
      "v": 81
    },
    {
      "midi": 72,
      "hit": false,
      "t": 12631.559999999987,
      "d": 157.89450000000033,
      "v": 80
    },
    {
      "midi": 48,
      "hit": false,
      "t": 12631.55999999999,
      "d": 315.78900000000067,
      "v": 91
    },
    {
      "midi": 45,
      "hit": false,
      "t": 12631.55999999999,
      "d": 315.78900000000067,
      "v": 64
    },
    {
      "midi": 69,
      "hit": false,
      "t": 12789.454499999987,
      "d": 78.94724999999926,
      "v": 80
    },
    {
      "midi": 76,
      "hit": false,
      "t": 12789.454499999987,
      "d": 78.94724999999926,
      "v": 80
    },
    {
      "midi": 69,
      "hit": false,
      "t": 12947.348999999986,
      "d": 157.89450000000033,
      "v": 80
    },
    {
      "midi": 45,
      "hit": false,
      "t": 12947.348999999991,
      "d": 315.78900000000067,
      "v": 97
    },
    {
      "midi": 40,
      "hit": false,
      "t": 12947.348999999991,
      "d": 315.78900000000067,
      "v": 107
    },
    {
      "midi": 72,
      "hit": false,
      "t": 13105.243499999986,
      "d": 78.94724999999926,
      "v": 80
    },
    {
      "midi": 76,
      "hit": false,
      "t": 13105.243499999986,
      "d": 78.94724999999926,
      "v": 80
    },
    {
      "midi": 69,
      "hit": false,
      "t": 13263.137999999984,
      "d": 157.89450000000033,
      "v": 80
    },
    {
      "midi": 45,
      "hit": false,
      "t": 13263.137999999992,
      "d": 315.78900000000067,
      "v": 97
    },
    {
      "midi": 40,
      "hit": false,
      "t": 13263.137999999992,
      "d": 315.78900000000067,
      "v": 107
    },
    {
      "midi": 72,
      "hit": false,
      "t": 13421.032499999985,
      "d": 78.94724999999926,
      "v": 80
    },
    {
      "midi": 76,
      "hit": false,
      "t": 13421.032499999985,
      "d": 78.94724999999926,
      "v": 80
    },
    {
      "midi": 76,
      "hit": false,
      "t": 13578.926999999983,
      "d": 78.94724999999926,
      "v": 76
    },
    {
      "midi": 40,
      "hit": false,
      "t": 13578.926999999992,
      "d": 157.89450000000033,
      "v": 64
    },
    {
      "midi": 69,
      "hit": false,
      "t": 13657.874249999983,
      "d": 78.94724999999926,
      "v": 76
    },
    {
      "midi": 72,
      "hit": false,
      "t": 13736.821499999982,
      "d": 78.94724999999926,
      "v": 76
    },
    {
      "midi": 48,
      "hit": false,
      "t": 13736.821499999993,
      "d": 78.94724999999926,
      "v": 64
    },
    {
      "midi": 69,
      "hit": false,
      "t": 13815.768749999981,
      "d": 78.94724999999926,
      "v": 76
    },
    {
      "midi": 44,
      "hit": false,
      "t": 13894.715999999991,
      "d": 157.89450000000033,
      "v": 72
    },
    {
      "midi": 59,
      "hit": false,
      "t": 13895.37389374998,
      "d": 315.1311062500008,
      "v": 107
    },
    {
      "midi": 64,
      "hit": false,
      "t": 13895.37389374998,
      "d": 323.6837250000008,
      "v": 107
    },
    {
      "midi": 47,
      "hit": false,
      "t": 14052.610499999992,
      "d": 78.94724999999926,
      "v": 72
    },
    {
      "midi": 59,
      "hit": false,
      "t": 14210.504999999981,
      "d": 8.552618749999965,
      "v": 107
    },
    {
      "midi": 56,
      "hit": false,
      "t": 14210.504999999981,
      "d": 157.89450000000033,
      "v": 107
    },
    {
      "midi": 40,
      "hit": false,
      "t": 14210.50499999999,
      "d": 157.89450000000033,
      "v": 72
    },
    {
      "midi": 60,
      "hit": false,
      "t": 14368.399499999981,
      "d": 157.89450000000033,
      "v": 107
    },
    {
      "midi": 57,
      "hit": false,
      "t": 14368.399499999981,
      "d": 157.89450000000033,
      "v": 107
    },
    {
      "midi": 47,
      "hit": false,
      "t": 14368.39949999999,
      "d": 78.94724999999926,
      "v": 72
    },
    {
      "midi": 59,
      "hit": false,
      "t": 14526.293999999982,
      "d": 157.89450000000033,
      "v": 107
    },
    {
      "midi": 62,
      "hit": false,
      "t": 14526.293999999982,
      "d": 157.89450000000033,
      "v": 107
    },
    {
      "midi": 44,
      "hit": false,
      "t": 14526.293999999989,
      "d": 157.89450000000033,
      "v": 72
    },
    {
      "midi": 60,
      "hit": false,
      "t": 14684.188499999982,
      "d": 157.89450000000033,
      "v": 107
    },
    {
      "midi": 47,
      "hit": false,
      "t": 14684.18849999999,
      "d": 78.94724999999926,
      "v": 72
    },
    {
      "midi": 59,
      "hit": false,
      "t": 14842.082999999982,
      "d": 157.89450000000033,
      "v": 107
    },
    {
      "midi": 56,
      "hit": false,
      "t": 14842.082999999982,
      "d": 157.89450000000033,
      "v": 107
    },
    {
      "midi": 40,
      "hit": false,
      "t": 14842.082999999988,
      "d": 157.89450000000033,
      "v": 72
    },
    {
      "midi": 60,
      "hit": false,
      "t": 14999.977499999983,
      "d": 157.89450000000033,
      "v": 107
    },
    {
      "midi": 57,
      "hit": false,
      "t": 14999.977499999983,
      "d": 157.89450000000033,
      "v": 107
    },
    {
      "midi": 47,
      "hit": false,
      "t": 14999.977499999988,
      "d": 78.94724999999926,
      "v": 72
    },
    {
      "midi": 57,
      "hit": false,
      "t": 15157.871999999983,
      "d": 315.78900000000067,
      "v": 107
    },
    {
      "midi": 52,
      "hit": false,
      "t": 15157.871999999983,
      "d": 315.78900000000067,
      "v": 107
    },
    {
      "midi": 45,
      "hit": false,
      "t": 15157.871999999987,
      "d": 157.89450000000033,
      "v": 72
    },
    {
      "midi": 48,
      "hit": false,
      "t": 15315.766499999987,
      "d": 78.94724999999926,
      "v": 72
    },
    {
      "midi": 40,
      "hit": false,
      "t": 15473.660999999986,
      "d": 157.89450000000033,
      "v": 72
    },
    {
      "midi": 57,
      "hit": false,
      "t": 15482.871512499984,
      "d": 142.76294374999998,
      "v": 107
    },
    {
      "midi": 60,
      "hit": false,
      "t": 15631.555499999984,
      "d": 157.89450000000033,
      "v": 107
    },
    {
      "midi": 57,
      "hit": false,
      "t": 15631.555499999984,
      "d": 157.89450000000033,
      "v": 107
    },
    {
      "midi": 48,
      "hit": false,
      "t": 15631.555499999986,
      "d": 78.94724999999926,
      "v": 72
    },
    {
      "midi": 45,
      "hit": false,
      "t": 15789.449999999984,
      "d": 157.89450000000033,
      "v": 72
    },
    {
      "midi": 60,
      "hit": false,
      "t": 15795.371043749985,
      "d": 313.1574249999994,
      "v": 107
    },
    {
      "midi": 64,
      "hit": false,
      "t": 15795.371043749985,
      "d": 313.1574249999994,
      "v": 107
    },
    {
      "midi": 48,
      "hit": false,
      "t": 15947.344499999985,
      "d": 78.94724999999926,
      "v": 72
    },
    {
      "midi": 40,
      "hit": false,
      "t": 16105.238999999983,
      "d": 157.89450000000033,
      "v": 72
    },
    {
      "midi": 59,
      "hit": false,
      "t": 16105.238999999985,
      "d": 157.89449999999852,
      "v": 107
    },
    {
      "midi": 62,
      "hit": false,
      "t": 16105.238999999985,
      "d": 157.89449999999852,
      "v": 107
    },
    {
      "midi": 60,
      "hit": false,
      "t": 16263.133499999984,
      "d": 157.89450000000033,
      "v": 107
    },
    {
      "midi": 57,
      "hit": false,
      "t": 16263.133499999984,
      "d": 157.89450000000033,
      "v": 107
    },
    {
      "midi": 45,
      "hit": false,
      "t": 16263.133499999984,
      "d": 78.94724999999926,
      "v": 72
    },
    {
      "midi": 56,
      "hit": false,
      "t": 16421.027999999984,
      "d": 157.89450000000215,
      "v": 107
    },
    {
      "midi": 44,
      "hit": false,
      "t": 16421.027999999984,
      "d": 157.89449999999852,
      "v": 72
    },
    {
      "midi": 59,
      "hit": false,
      "t": 16421.685893749986,
      "d": 154.60503125000105,
      "v": 107
    },
    {
      "midi": 47,
      "hit": false,
      "t": 16578.922499999982,
      "d": 78.94725000000108,
      "v": 72
    },
    {
      "midi": 52,
      "hit": false,
      "t": 16578.922499999986,
      "d": 157.89449999999852,
      "v": 107
    },
    {
      "midi": 56,
      "hit": false,
      "t": 16736.816999999985,
      "d": 157.89449999999852,
      "v": 107
    },
    {
      "midi": 59,
      "hit": false,
      "t": 16736.816999999985,
      "d": 157.89449999999852,
      "v": 107
    },
    {
      "midi": 40,
      "hit": false,
      "t": 16736.816999999985,
      "d": 157.89449999999852,
      "v": 72
    },
    {
      "midi": 60,
      "hit": false,
      "t": 16894.711499999983,
      "d": 157.89449999999852,
      "v": 107
    },
    {
      "midi": 57,
      "hit": false,
      "t": 16894.711499999983,
      "d": 157.89449999999852,
      "v": 107
    },
    {
      "midi": 47,
      "hit": false,
      "t": 16894.711499999983,
      "d": 78.94725000000108,
      "v": 72
    },
    {
      "midi": 44,
      "hit": false,
      "t": 17052.605999999985,
      "d": 157.89449999999852,
      "v": 72
    },
    {
      "midi": 59,
      "hit": false,
      "t": 17058.527043749982,
      "d": 313.15742500000124,
      "v": 107
    },
    {
      "midi": 62,
      "hit": false,
      "t": 17058.527043749982,
      "d": 313.15742500000124,
      "v": 107
    },
    {
      "midi": 47,
      "hit": false,
      "t": 17210.500499999984,
      "d": 78.94725000000108,
      "v": 72
    },
    {
      "midi": 40,
      "hit": false,
      "t": 17368.394999999986,
      "d": 157.89449999999852,
      "v": 72
    },
    {
      "midi": 60,
      "hit": false,
      "t": 17371.684468749983,
      "d": 311.8416375000015,
      "v": 107
    },
    {
      "midi": 64,
      "hit": false,
      "t": 17371.684468749983,
      "d": 311.8416375000015,
      "v": 107
    },
    {
      "midi": 47,
      "hit": false,
      "t": 17526.289499999984,
      "d": 78.94725000000108,
      "v": 72
    },
    {
      "midi": 57,
      "hit": false,
      "t": 17684.183999999987,
      "d": 315.78900000000067,
      "v": 107
    },
    {
      "midi": 45,
      "hit": false,
      "t": 17684.183999999987,
      "d": 157.89449999999852,
      "v": 72
    },
    {
      "midi": 60,
      "hit": false,
      "t": 17684.84189374999,
      "d": 323.68372499999896,
      "v": 107
    },
    {
      "midi": 48,
      "hit": false,
      "t": 17842.078499999985,
      "d": 78.94725000000108,
      "v": 72
    },
    {
      "midi": 57,
      "hit": false,
      "t": 17999.972999999987,
      "d": 315.78900000000067,
      "v": 107
    },
    {
      "midi": 52,
      "hit": false,
      "t": 17999.972999999987,
      "d": 315.78900000000067,
      "v": 107
    },
    {
      "midi": 40,
      "hit": false,
      "t": 17999.972999999987,
      "d": 157.89449999999852,
      "v": 72
    },
    {
      "midi": 48,
      "hit": false,
      "t": 18157.867499999986,
      "d": 78.94725000000108,
      "v": 72
    },
    {
      "midi": 52,
      "hit": false,
      "t": 18315.761999999988,
      "d": 315.78900000000067,
      "v": 107
    },
    {
      "midi": 57,
      "hit": false,
      "t": 18315.761999999988,
      "d": 315.78900000000067,
      "v": 107
    },
    {
      "midi": 45,
      "hit": false,
      "t": 18315.761999999988,
      "d": 157.89449999999852,
      "v": 81
    },
    {
      "midi": 45,
      "hit": false,
      "t": 18473.656499999986,
      "d": 157.89449999999852,
      "v": 81
    },
    {
      "midi": 47,
      "hit": false,
      "t": 18631.550999999985,
      "d": 157.89449999999852,
      "v": 81
    },
    {
      "midi": 57,
      "hit": false,
      "t": 18631.55099999999,
      "d": 78.94725000000108,
      "v": 91
    },
    {
      "midi": 60,
      "hit": false,
      "t": 18710.49824999999,
      "d": 78.94725000000108,
      "v": 91
    },
    {
      "midi": 48,
      "hit": false,
      "t": 18789.445499999983,
      "d": 157.89449999999852,
      "v": 81
    },
    {
      "midi": 64,
      "hit": false,
      "t": 18789.44549999999,
      "d": 78.94725000000108,
      "v": 91
    },
    {
      "midi": 69,
      "hit": false,
      "t": 18868.39274999999,
      "d": 78.94725000000108,
      "v": 91
    },
    {
      "midi": 64,
      "hit": false,
      "t": 18947.339999999993,
      "d": 78.94725000000108,
      "v": 107
    },
    {
      "midi": 50,
      "hit": false,
      "t": 18947.997893749984,
      "d": 167.10501250000016,
      "v": 107
    },
    {
      "midi": 60,
      "hit": false,
      "t": 19026.287249999994,
      "d": 78.94725000000108,
      "v": 107
    },
    {
      "midi": 53,
      "hit": false,
      "t": 19115.102906249984,
      "d": 305.920593750001,
      "v": 107
    },
    {
      "midi": 41,
      "hit": false,
      "t": 19115.102906249984,
      "d": 305.920593750001,
      "v": 107
    },
    {
      "midi": 62,
      "hit": false,
      "t": 19115.102906249995,
      "d": 305.920593750001,
      "v": 107
    },
    {
      "midi": 45,
      "hit": false,
      "t": 19427.602437499983,
      "d": 100.65774374999819,
      "v": 107
    },
    {
      "midi": 57,
      "hit": false,
      "t": 19427.602437499983,
      "d": 144.73662499999773,
      "v": 107
    },
    {
      "midi": 69,
      "hit": false,
      "t": 19427.602437499994,
      "d": 128.94717500000115,
      "v": 107
    },
    {
      "midi": 65,
      "hit": false,
      "t": 19427.602437499994,
      "d": 144.73662500000137,
      "v": 107
    },
    {
      "midi": 69,
      "hit": false,
      "t": 19578.917999999994,
      "d": 315.78900000000067,
      "v": 107
    },
    {
      "midi": 60,
      "hit": false,
      "t": 19578.917999999994,
      "d": 315.78900000000067,
      "v": 107
    },
    {
      "midi": 48,
      "hit": false,
      "t": 19584.83904374998,
      "d": 309.86795625000013,
      "v": 107
    },
    {
      "midi": 57,
      "hit": false,
      "t": 19584.83904374998,
      "d": 309.86795625000013,
      "v": 107
    },
    {
      "midi": 47,
      "hit": false,
      "t": 19894.70699999998,
      "d": 157.89450000000215,
      "v": 107
    },
    {
      "midi": 55,
      "hit": false,
      "t": 19897.99646874998,
      "d": 143.42083750000165,
      "v": 107
    },
    {
      "midi": 59,
      "hit": false,
      "t": 19897.996468749996,
      "d": 143.42083750000165,
      "v": 107
    },
    {
      "midi": 67,
      "hit": false,
      "t": 19897.996468749996,
      "d": 143.42083750000165,
      "v": 107
    },
    {
      "midi": 57,
      "hit": false,
      "t": 20052.601499999997,
      "d": 157.89449999999852,
      "v": 107
    },
    {
      "midi": 45,
      "hit": false,
      "t": 20053.917287499982,
      "d": 99.34195624999847,
      "v": 107
    },
    {
      "midi": 53,
      "hit": false,
      "t": 20053.917287499982,
      "d": 156.5787124999988,
      "v": 107
    },
    {
      "midi": 65,
      "hit": false,
      "t": 20053.917287499997,
      "d": 156.5787124999988,
      "v": 107
    },
    {
      "midi": 43,
      "hit": false,
      "t": 20210.49599999998,
      "d": 157.89449999999852,
      "v": 85
    },
    {
      "midi": 48,
      "hit": false,
      "t": 20210.49599999998,
      "d": 157.89449999999852,
      "v": 85
    },
    {
      "midi": 55,
      "hit": false,
      "t": 20211.153893749997,
      "d": 473.02560625000115,
      "v": 107
    },
    {
      "midi": 64,
      "hit": false,
      "t": 20211.153893749997,
      "d": 473.02560625000115,
      "v": 107
    },
    {
      "midi": 52,
      "hit": false,
      "t": 20368.39049999998,
      "d": 78.94725000000108,
      "v": 72
    },
    {
      "midi": 48,
      "hit": false,
      "t": 20526.28499999998,
      "d": 157.89450000000215,
      "v": 72
    },
    {
      "midi": 43,
      "hit": false,
      "t": 20535.495512499983,
      "d": 148.6839875000005,
      "v": 72
    },
    {
      "midi": 52,
      "hit": false,
      "t": 20684.179499999984,
      "d": 78.94725000000108,
      "v": 72
    },
    {
      "midi": 52,
      "hit": false,
      "t": 20684.1795,
      "d": 157.89449999999852,
      "v": 107
    },
    {
      "midi": 60,
      "hit": false,
      "t": 20690.758437499997,
      "d": 144.73662500000137,
      "v": 107
    },
    {
      "midi": 43,
      "hit": false,
      "t": 20842.073999999986,
      "d": 157.89449999999852,
      "v": 72
    },
    {
      "midi": 48,
      "hit": false,
      "t": 20842.073999999986,
      "d": 157.89449999999852,
      "v": 72
    },
    {
      "midi": 55,
      "hit": false,
      "t": 20847.995043749997,
      "d": 313.15742500000124,
      "v": 107
    },
    {
      "midi": 64,
      "hit": false,
      "t": 20847.995043749997,
      "d": 313.15742500000124,
      "v": 107
    },
    {
      "midi": 52,
      "hit": false,
      "t": 20999.968499999984,
      "d": 78.94725000000108,
      "v": 72
    },
    {
      "midi": 41,
      "hit": false,
      "t": 21161.152468749984,
      "d": 143.42083750000165,
      "v": 72
    },
    {
      "midi": 50,
      "hit": false,
      "t": 21161.152468749984,
      "d": 143.42083750000165,
      "v": 72
    },
    {
      "midi": 53,
      "hit": false,
      "t": 21161.15246875,
      "d": 143.42083750000165,
      "v": 107
    },
    {
      "midi": 62,
      "hit": false,
      "t": 21161.15246875,
      "d": 143.42083750000165,
      "v": 107
    },
    {
      "midi": 43,
      "hit": false,
      "t": 21315.757499999985,
      "d": 78.94725000000108,
      "v": 72
    },
    {
      "midi": 52,
      "hit": false,
      "t": 21315.757499999985,
      "d": 78.94725000000108,
      "v": 72
    },
    {
      "midi": 52,
      "hit": false,
      "t": 21315.7575,
      "d": 157.89449999999852,
      "v": 107
    },
    {
      "midi": 60,
      "hit": false,
      "t": 21317.0732875,
      "d": 156.5787124999988,
      "v": 107
    },
    {
      "midi": 44,
      "hit": false,
      "t": 21474.309893749985,
      "d": 138.81558125000083,
      "v": 72
    },
    {
      "midi": 56,
      "hit": false,
      "t": 21474.30989375,
      "d": 315.131106249999,
      "v": 107
    },
    {
      "midi": 59,
      "hit": false,
      "t": 21474.30989375,
      "d": 315.131106249999,
      "v": 107
    },
    {
      "midi": 47,
      "hit": false,
      "t": 21631.546499999986,
      "d": 78.94725000000108,
      "v": 72
    },
    {
      "midi": 44,
      "hit": false,
      "t": 21798.651512499986,
      "d": 142.76294374999998,
      "v": 72
    },
    {
      "midi": 47,
      "hit": false,
      "t": 21798.651512499986,
      "d": 142.76294374999998,
      "v": 72
    },
    {
      "midi": 56,
      "hit": false,
      "t": 21798.6515125,
      "d": 142.76294374999998,
      "v": 107
    },
    {
      "midi": 59,
      "hit": false,
      "t": 21798.6515125,
      "d": 142.76294374999998,
      "v": 107
    },
    {
      "midi": 45,
      "hit": false,
      "t": 21947.335499999986,
      "d": 78.94725000000108,
      "v": 72
    },
    {
      "midi": 48,
      "hit": false,
      "t": 21947.335499999986,
      "d": 78.94725000000108,
      "v": 72
    },
    {
      "midi": 57,
      "hit": false,
      "t": 21947.3355,
      "d": 157.89449999999852,
      "v": 107
    },
    {
      "midi": 60,
      "hit": false,
      "t": 21953.9144375,
      "d": 144.73662500000137,
      "v": 107
    },
    {
      "midi": 50,
      "hit": false,
      "t": 22105.22999999999,
      "d": 157.89449999999852,
      "v": 72
    },
    {
      "midi": 47,
      "hit": false,
      "t": 22105.22999999999,
      "d": 157.89449999999852,
      "v": 72
    },
    {
      "midi": 59,
      "hit": false,
      "t": 22111.15104375,
      "d": 309.86795625000013,
      "v": 107
    },
    {
      "midi": 62,
      "hit": false,
      "t": 22111.15104375,
      "d": 309.86795625000013,
      "v": 107
    },
    {
      "midi": 47,
      "hit": false,
      "t": 22263.124499999987,
      "d": 78.94725000000108,
      "v": 72
    },
    {
      "midi": 48,
      "hit": false,
      "t": 22424.308468749987,
      "d": 312.4995312500032,
      "v": 72
    },
    {
      "midi": 60,
      "hit": false,
      "t": 22424.30846875,
      "d": 312.49953124999956,
      "v": 107
    },
    {
      "midi": 64,
      "hit": false,
      "t": 22424.30846875,
      "d": 312.49953124999956,
      "v": 107
    },
    {
      "midi": 52,
      "hit": false,
      "t": 22578.913499999988,
      "d": 78.94725000000108,
      "v": 72
    },
    {
      "midi": 45,
      "hit": false,
      "t": 22737.46589374999,
      "d": 138.81558125000083,
      "v": 72
    },
    {
      "midi": 57,
      "hit": false,
      "t": 22737.465893750003,
      "d": 315.131106249999,
      "v": 107
    },
    {
      "midi": 60,
      "hit": false,
      "t": 22737.465893750003,
      "d": 315.131106249999,
      "v": 107
    },
    {
      "midi": 48,
      "hit": false,
      "t": 22894.702499999992,
      "d": 78.94725000000108,
      "v": 72
    },
    {
      "midi": 52,
      "hit": false,
      "t": 23052.597,
      "d": 315.78900000000067,
      "v": 64
    },
    {
      "midi": 40,
      "hit": false,
      "t": 23061.807512499992,
      "d": 306.57848750000267,
      "v": 72
    },
    {
      "midi": 57,
      "hit": false,
      "t": 23061.807512500003,
      "d": 306.578487499999,
      "v": 107
    },
    {
      "midi": 48,
      "hit": false,
      "t": 23210.491499999993,
      "d": 78.94725000000108,
      "v": 72
    },
    {
      "midi": 57,
      "hit": false,
      "t": 23368.386000000002,
      "d": 315.78900000000067,
      "v": 107
    },
    {
      "midi": 52,
      "hit": false,
      "t": 23368.386000000002,
      "d": 315.78900000000067,
      "v": 64
    },
    {
      "midi": 45,
      "hit": false,
      "t": 23374.307043749996,
      "d": 128.94717500000115,
      "v": 72
    },
    {
      "midi": 48,
      "hit": false,
      "t": 23526.280499999997,
      "d": 78.94725000000108,
      "v": 72
    },
    {
      "midi": 64,
      "hit": false,
      "t": 23684.175000000003,
      "d": 157.89449999999852,
      "v": 72
    },
    {
      "midi": 40,
      "hit": false,
      "t": 23687.464468749997,
      "d": 126.97349374999976,
      "v": 72
    },
    {
      "midi": 48,
      "hit": false,
      "t": 23842.069499999998,
      "d": 78.94725000000108,
      "v": 72
    },
    {
      "midi": 72,
      "hit": false,
      "t": 23842.0695,
      "d": 78.94725000000108,
      "v": 72
    },
    {
      "midi": 76,
      "hit": false,
      "t": 23842.0695,
      "d": 78.94725000000108,
      "v": 72
    },
    {
      "midi": 45,
      "hit": false,
      "t": 23999.964,
      "d": 157.89449999999852,
      "v": 76
    },
    {
      "midi": 33,
      "hit": false,
      "t": 23999.964,
      "d": 157.89449999999852,
      "v": 76
    },
    {
      "midi": 76,
      "hit": false,
      "t": 23999.964000000004,
      "d": 157.89449999999852,
      "v": 112
    },
    {
      "midi": 72,
      "hit": false,
      "t": 23999.964000000004,
      "d": 157.89449999999852,
      "v": 112
    },
    {
      "midi": 69,
      "hit": false,
      "t": 23999.964000000004,
      "d": 157.89449999999852,
      "v": 112
    },
    {
      "midi": 33,
      "hit": false,
      "t": 24157.8585,
      "d": 315.78900000000067,
      "v": 76
    },
    {
      "midi": 45,
      "hit": false,
      "t": 24157.8585,
      "d": 315.78900000000067,
      "v": 76
    },
    {
      "midi": 72,
      "hit": false,
      "t": 24157.858500000002,
      "d": 78.94725000000108,
      "v": 64
    },
    {
      "midi": 76,
      "hit": false,
      "t": 24157.858500000002,
      "d": 78.94725000000108,
      "v": 64
    },
    {
      "midi": 72,
      "hit": false,
      "t": 24315.753000000004,
      "d": 157.89450000000215,
      "v": 64
    },
    {
      "midi": 69,
      "hit": false,
      "t": 24324.963512500006,
      "d": 142.76294374999998,
      "v": 64
    },
    {
      "midi": 45,
      "hit": false,
      "t": 24473.6475,
      "d": 157.89449999999852,
      "v": 76
    },
    {
      "midi": 33,
      "hit": false,
      "t": 24473.6475,
      "d": 157.89449999999852,
      "v": 76
    },
    {
      "midi": 72,
      "hit": false,
      "t": 24473.647500000006,
      "d": 78.94725000000108,
      "v": 64
    },
    {
      "midi": 76,
      "hit": false,
      "t": 24473.647500000006,
      "d": 78.94725000000108,
      "v": 64
    },
    {
      "midi": 40,
      "hit": false,
      "t": 24631.541999999998,
      "d": 157.89449999999852,
      "v": 76
    },
    {
      "midi": 28,
      "hit": false,
      "t": 24631.541999999998,
      "d": 157.89449999999852,
      "v": 76
    },
    {
      "midi": 69,
      "hit": false,
      "t": 24637.46304375001,
      "d": 309.8679562500038,
      "v": 112
    },
    {
      "midi": 72,
      "hit": false,
      "t": 24637.46304375001,
      "d": 309.8679562500038,
      "v": 112
    },
    {
      "midi": 45,
      "hit": false,
      "t": 24789.436499999996,
      "d": 315.78900000000067,
      "v": 76
    },
    {
      "midi": 33,
      "hit": false,
      "t": 24789.436499999996,
      "d": 315.78900000000067,
      "v": 76
    },
    {
      "midi": 76,
      "hit": false,
      "t": 24789.43650000001,
      "d": 78.94725000000108,
      "v": 64
    },
    {
      "midi": 72,
      "hit": false,
      "t": 24947.331000000013,
      "d": 157.89450000000215,
      "v": 64
    },
    {
      "midi": 69,
      "hit": false,
      "t": 24950.620468750014,
      "d": 143.42083750000165,
      "v": 64
    },
    {
      "midi": 45,
      "hit": false,
      "t": 25105.225499999997,
      "d": 157.89449999999852,
      "v": 76
    },
    {
      "midi": 33,
      "hit": false,
      "t": 25105.225499999997,
      "d": 157.89449999999852,
      "v": 76
    },
    {
      "midi": 72,
      "hit": false,
      "t": 25105.225500000015,
      "d": 78.94725000000108,
      "v": 64
    },
    {
      "midi": 76,
      "hit": false,
      "t": 25105.225500000015,
      "d": 78.94725000000108,
      "v": 64
    },
    {
      "midi": 40,
      "hit": false,
      "t": 25263.119999999995,
      "d": 157.89449999999852,
      "v": 76
    },
    {
      "midi": 52,
      "hit": false,
      "t": 25263.119999999995,
      "d": 157.89449999999852,
      "v": 76
    },
    {
      "midi": 68,
      "hit": false,
      "t": 25263.120000000017,
      "d": 157.89450000000215,
      "v": 112
    },
    {
      "midi": 52,
      "hit": false,
      "t": 25421.014499999994,
      "d": 315.78900000000067,
      "v": 76
    },
    {
      "midi": 40,
      "hit": false,
      "t": 25421.014499999994,
      "d": 315.78900000000067,
      "v": 76
    },
    {
      "midi": 71,
      "hit": false,
      "t": 25421.01450000002,
      "d": 0.6578937500016764,
      "v": 64
    },
    {
      "midi": 74,
      "hit": false,
      "t": 25421.01450000002,
      "d": 9.868406250003318,
      "v": 64
    },
    {
      "midi": 71,
      "hit": false,
      "t": 25578.909000000025,
      "d": 157.89450000000215,
      "v": 64
    },
    {
      "midi": 68,
      "hit": false,
      "t": 25588.119512500027,
      "d": 142.76294374999998,
      "v": 64
    },
    {
      "midi": 52,
      "hit": false,
      "t": 25736.803499999995,
      "d": 157.89449999999852,
      "v": 76
    },
    {
      "midi": 40,
      "hit": false,
      "t": 25736.803499999995,
      "d": 157.89449999999852,
      "v": 76
    },
    {
      "midi": 71,
      "hit": false,
      "t": 25736.803500000027,
      "d": 78.94725000000108,
      "v": 64
    },
    {
      "midi": 74,
      "hit": false,
      "t": 25736.803500000027,
      "d": 78.94725000000108,
      "v": 64
    },
    {
      "midi": 47,
      "hit": false,
      "t": 25894.697999999993,
      "d": 157.89449999999852,
      "v": 76
    },
    {
      "midi": 35,
      "hit": false,
      "t": 25894.697999999993,
      "d": 157.89449999999852,
      "v": 76
    },
    {
      "midi": 68,
      "hit": false,
      "t": 25900.61904375003,
      "d": 309.8679562500038,
      "v": 112
    },
    {
      "midi": 71,
      "hit": false,
      "t": 25900.61904375003,
      "d": 309.8679562500038,
      "v": 112
    },
    {
      "midi": 52,
      "hit": false,
      "t": 26052.59249999999,
      "d": 315.78900000000067,
      "v": 76
    },
    {
      "midi": 40,
      "hit": false,
      "t": 26052.59249999999,
      "d": 315.78900000000067,
      "v": 76
    },
    {
      "midi": 74,
      "hit": false,
      "t": 26052.59250000003,
      "d": 78.94725000000108,
      "v": 64
    },
    {
      "midi": 71,
      "hit": false,
      "t": 26210.487000000034,
      "d": 157.89450000000215,
      "v": 64
    },
    {
      "midi": 68,
      "hit": false,
      "t": 26213.776468750035,
      "d": 143.42083750000165,
      "v": 50
    },
    {
      "midi": 52,
      "hit": false,
      "t": 26368.381499999992,
      "d": 157.89449999999852,
      "v": 76
    },
    {
      "midi": 40,
      "hit": false,
      "t": 26368.381499999992,
      "d": 157.89449999999852,
      "v": 76
    },
    {
      "midi": 71,
      "hit": false,
      "t": 26368.381500000036,
      "d": 78.94725000000108,
      "v": 64
    },
    {
      "midi": 74,
      "hit": false,
      "t": 26368.381500000036,
      "d": 78.94725000000108,
      "v": 64
    },
    {
      "midi": 45,
      "hit": false,
      "t": 26526.27599999999,
      "d": 157.89449999999852,
      "v": 76
    },
    {
      "midi": 33,
      "hit": false,
      "t": 26526.27599999999,
      "d": 157.89449999999852,
      "v": 76
    },
    {
      "midi": 72,
      "hit": false,
      "t": 26526.276000000038,
      "d": 157.89450000000215,
      "v": 112
    },
    {
      "midi": 69,
      "hit": false,
      "t": 26526.276000000038,
      "d": 157.89450000000215,
      "v": 112
    },
    {
      "midi": 64,
      "hit": false,
      "t": 26526.93389375004,
      "d": 154.60503125000105,
      "v": 112
    },
    {
      "midi": 45,
      "hit": false,
      "t": 26684.17049999999,
      "d": 315.78900000000067,
      "v": 64
    },
    {
      "midi": 33,
      "hit": false,
      "t": 26684.17049999999,
      "d": 315.78900000000067,
      "v": 64
    },
    {
      "midi": 69,
      "hit": false,
      "t": 26684.17050000004,
      "d": 78.94725000000108,
      "v": 64
    },
    {
      "midi": 72,
      "hit": false,
      "t": 26684.17050000004,
      "d": 78.94725000000108,
      "v": 64
    },
    {
      "midi": 69,
      "hit": false,
      "t": 26842.065000000042,
      "d": 157.89450000000215,
      "v": 64
    },
    {
      "midi": 64,
      "hit": false,
      "t": 26851.275512500044,
      "d": 142.76294374999998,
      "v": 64
    },
    {
      "midi": 45,
      "hit": false,
      "t": 26999.95949999999,
      "d": 157.89449999999852,
      "v": 76
    },
    {
      "midi": 33,
      "hit": false,
      "t": 26999.95949999999,
      "d": 157.89449999999852,
      "v": 76
    },
    {
      "midi": 69,
      "hit": false,
      "t": 26999.959500000044,
      "d": 78.94725000000108,
      "v": 64
    },
    {
      "midi": 72,
      "hit": false,
      "t": 26999.959500000044,
      "d": 78.94725000000108,
      "v": 64
    },
    {
      "midi": 40,
      "hit": false,
      "t": 27157.85399999999,
      "d": 157.89449999999852,
      "v": 76
    },
    {
      "midi": 28,
      "hit": false,
      "t": 27157.85399999999,
      "d": 157.89449999999852,
      "v": 76
    },
    {
      "midi": 69,
      "hit": false,
      "t": 27163.775043750047,
      "d": 151.97345625000162,
      "v": 112
    },
    {
      "midi": 64,
      "hit": false,
      "t": 27163.775043750047,
      "d": 309.8679562500038,
      "v": 112
    },
    {
      "midi": 45,
      "hit": false,
      "t": 27315.748499999987,
      "d": 315.78900000000067,
      "v": 76
    },
    {
      "midi": 33,
      "hit": false,
      "t": 27315.748499999987,
      "d": 315.78900000000067,
      "v": 76
    },
    {
      "midi": 69,
      "hit": false,
      "t": 27315.74850000005,
      "d": 78.94725000000108,
      "v": 64
    },
    {
      "midi": 72,
      "hit": false,
      "t": 27315.74850000005,
      "d": 78.94725000000108,
      "v": 64
    },
    {
      "midi": 69,
      "hit": false,
      "t": 27473.64300000005,
      "d": 157.89450000000215,
      "v": 64
    },
    {
      "midi": 64,
      "hit": false,
      "t": 27476.932468750052,
      "d": 143.42083750000165,
      "v": 64
    },
    {
      "midi": 45,
      "hit": false,
      "t": 27631.537499999988,
      "d": 157.89449999999852,
      "v": 76
    },
    {
      "midi": 33,
      "hit": false,
      "t": 27631.537499999988,
      "d": 157.89449999999852,
      "v": 76
    },
    {
      "midi": 69,
      "hit": false,
      "t": 27631.537500000053,
      "d": 78.94725000000108,
      "v": 64
    },
    {
      "midi": 72,
      "hit": false,
      "t": 27631.537500000053,
      "d": 78.94725000000108,
      "v": 64
    },
    {
      "midi": 40,
      "hit": false,
      "t": 27789.431999999986,
      "d": 157.89449999999852,
      "v": 76
    },
    {
      "midi": 52,
      "hit": false,
      "t": 27789.431999999986,
      "d": 157.89449999999852,
      "v": 76
    },
    {
      "midi": 68,
      "hit": false,
      "t": 27789.432000000055,
      "d": 157.89450000000215,
      "v": 112
    },
    {
      "midi": 64,
      "hit": false,
      "t": 27790.089893750057,
      "d": 315.13110625000263,
      "v": 112
    },
    {
      "midi": 52,
      "hit": false,
      "t": 27947.326499999985,
      "d": 315.78900000000067,
      "v": 76
    },
    {
      "midi": 40,
      "hit": false,
      "t": 27947.326499999985,
      "d": 315.78900000000067,
      "v": 76
    },
    {
      "midi": 68,
      "hit": false,
      "t": 27947.326500000057,
      "d": 78.94725000000108,
      "v": 64
    },
    {
      "midi": 71,
      "hit": false,
      "t": 27947.326500000057,
      "d": 78.94725000000108,
      "v": 64
    },
    {
      "midi": 68,
      "hit": false,
      "t": 28105.22100000006,
      "d": 157.89450000000215,
      "v": 64
    },
    {
      "midi": 64,
      "hit": false,
      "t": 28114.43151250006,
      "d": 142.76294374999998,
      "v": 64
    },
    {
      "midi": 52,
      "hit": false,
      "t": 28263.115499999985,
      "d": 157.89449999999852,
      "v": 76
    },
    {
      "midi": 40,
      "hit": false,
      "t": 28263.115499999985,
      "d": 157.89449999999852,
      "v": 76
    },
    {
      "midi": 68,
      "hit": false,
      "t": 28263.11550000006,
      "d": 78.94725000000108,
      "v": 64
    },
    {
      "midi": 71,
      "hit": false,
      "t": 28263.11550000006,
      "d": 78.94725000000108,
      "v": 64
    },
    {
      "midi": 35,
      "hit": false,
      "t": 28421.009999999984,
      "d": 157.89449999999852,
      "v": 76
    },
    {
      "midi": 47,
      "hit": false,
      "t": 28421.009999999984,
      "d": 157.89449999999852,
      "v": 76
    },
    {
      "midi": 64,
      "hit": false,
      "t": 28421.010000000064,
      "d": 157.89450000000215,
      "v": 112
    },
    {
      "midi": 68,
      "hit": false,
      "t": 28421.010000000064,
      "d": 157.89450000000215,
      "v": 112
    },
    {
      "midi": 71,
      "hit": false,
      "t": 28426.931043750064,
      "d": 625.6569562500081,
      "v": 112
    },
    {
      "midi": 52,
      "hit": false,
      "t": 28578.904499999982,
      "d": 315.78900000000067,
      "v": 76
    },
    {
      "midi": 40,
      "hit": false,
      "t": 28578.904499999982,
      "d": 315.78900000000067,
      "v": 76
    },
    {
      "midi": 64,
      "hit": false,
      "t": 28578.904500000066,
      "d": 78.94725000000108,
      "v": 64
    },
    {
      "midi": 68,
      "hit": false,
      "t": 28578.904500000066,
      "d": 78.94725000000108,
      "v": 64
    },
    {
      "midi": 68,
      "hit": false,
      "t": 28736.79900000007,
      "d": 157.89450000000215,
      "v": 64
    },
    {
      "midi": 66,
      "hit": false,
      "t": 28740.08846875007,
      "d": 143.42083750000165,
      "v": 64
    },
    {
      "midi": 52,
      "hit": false,
      "t": 28894.693499999983,
      "d": 157.89449999999852,
      "v": 76
    },
    {
      "midi": 40,
      "hit": false,
      "t": 28894.693499999983,
      "d": 157.89449999999852,
      "v": 76
    },
    {
      "midi": 68,
      "hit": false,
      "t": 28894.69350000007,
      "d": 78.94725000000108,
      "v": 64
    },
    {
      "midi": 33,
      "hit": false,
      "t": 29052.58799999998,
      "d": 157.89449999999852,
      "v": 76
    },
    {
      "midi": 45,
      "hit": false,
      "t": 29052.58799999998,
      "d": 157.89449999999852,
      "v": 76
    },
    {
      "midi": 72,
      "hit": false,
      "t": 29052.588000000072,
      "d": 157.89450000000215,
      "v": 112
    },
    {
      "midi": 69,
      "hit": false,
      "t": 29053.245893750074,
      "d": 154.60503125000105,
      "v": 112
    },
    {
      "midi": 45,
      "hit": false,
      "t": 29210.48249999998,
      "d": 315.78900000000067,
      "v": 76
    },
    {
      "midi": 33,
      "hit": false,
      "t": 29210.48249999998,
      "d": 315.78900000000067,
      "v": 76
    },
    {
      "midi": 76,
      "hit": false,
      "t": 29210.482500000075,
      "d": 9.86840624999968,
      "v": 64
    },
    {
      "midi": 72,
      "hit": false,
      "t": 29210.482500000075,
      "d": 78.94725000000108,
      "v": 64
    },
    {
      "midi": 72,
      "hit": false,
      "t": 29368.377000000077,
      "d": 157.89450000000215,
      "v": 64
    },
    {
      "midi": 69,
      "hit": false,
      "t": 29377.58751250008,
      "d": 142.76294374999998,
      "v": 64
    },
    {
      "midi": 45,
      "hit": false,
      "t": 29526.27149999998,
      "d": 157.89449999999852,
      "v": 76
    },
    {
      "midi": 33,
      "hit": false,
      "t": 29526.27149999998,
      "d": 157.89449999999852,
      "v": 76
    },
    {
      "midi": 72,
      "hit": false,
      "t": 29526.27150000008,
      "d": 78.94725000000108,
      "v": 64
    },
    {
      "midi": 76,
      "hit": false,
      "t": 29526.27150000008,
      "d": 78.94725000000108,
      "v": 64
    },
    {
      "midi": 40,
      "hit": false,
      "t": 29684.16599999998,
      "d": 157.89449999999852,
      "v": 76
    },
    {
      "midi": 28,
      "hit": false,
      "t": 29684.16599999998,
      "d": 157.89449999999852,
      "v": 76
    },
    {
      "midi": 69,
      "hit": false,
      "t": 29690.08704375008,
      "d": 309.8679562500038,
      "v": 112
    },
    {
      "midi": 72,
      "hit": false,
      "t": 29690.08704375008,
      "d": 309.8679562500038,
      "v": 112
    },
    {
      "midi": 45,
      "hit": false,
      "t": 29842.060499999978,
      "d": 315.78900000000067,
      "v": 76
    },
    {
      "midi": 33,
      "hit": false,
      "t": 29842.060499999978,
      "d": 315.78900000000067,
      "v": 76
    },
    {
      "midi": 76,
      "hit": false,
      "t": 29842.060500000083,
      "d": 78.94725000000108,
      "v": 64
    },
    {
      "midi": 72,
      "hit": false,
      "t": 29999.955000000085,
      "d": 157.89450000000215,
      "v": 64
    },
    {
      "midi": 69,
      "hit": false,
      "t": 30003.244468750087,
      "d": 143.42083750000165,
      "v": 64
    },
    {
      "midi": 45,
      "hit": false,
      "t": 30157.84949999998,
      "d": 157.89449999999852,
      "v": 76
    },
    {
      "midi": 33,
      "hit": false,
      "t": 30157.84949999998,
      "d": 157.89449999999852,
      "v": 76
    },
    {
      "midi": 72,
      "hit": false,
      "t": 30157.849500000088,
      "d": 78.94725000000108,
      "v": 64
    },
    {
      "midi": 76,
      "hit": false,
      "t": 30157.849500000088,
      "d": 78.94725000000108,
      "v": 64
    },
    {
      "midi": 40,
      "hit": false,
      "t": 30315.743999999977,
      "d": 157.89449999999852,
      "v": 76
    },
    {
      "midi": 52,
      "hit": false,
      "t": 30315.743999999977,
      "d": 157.89449999999852,
      "v": 76
    },
    {
      "midi": 68,
      "hit": false,
      "t": 30315.74400000009,
      "d": 157.89450000000215,
      "v": 112
    },
    {
      "midi": 71,
      "hit": false,
      "t": 30315.74400000009,
      "d": 157.89450000000215,
      "v": 112
    },
    {
      "midi": 40,
      "hit": false,
      "t": 30473.638499999975,
      "d": 315.78900000000067,
      "v": 76
    },
    {
      "midi": 52,
      "hit": false,
      "t": 30473.638499999975,
      "d": 315.78900000000067,
      "v": 76
    },
    {
      "midi": 74,
      "hit": false,
      "t": 30473.638500000092,
      "d": 9.86840624999968,
      "v": 64
    },
    {
      "midi": 71,
      "hit": false,
      "t": 30473.638500000092,
      "d": 78.94725000000108,
      "v": 64
    },
    {
      "midi": 71,
      "hit": false,
      "t": 30631.533000000094,
      "d": 157.89450000000215,
      "v": 64
    },
    {
      "midi": 68,
      "hit": false,
      "t": 30640.743512500096,
      "d": 142.76294374999998,
      "v": 64
    },
    {
      "midi": 52,
      "hit": false,
      "t": 30789.427499999976,
      "d": 157.89449999999852,
      "v": 76
    },
    {
      "midi": 40,
      "hit": false,
      "t": 30789.427499999976,
      "d": 157.89449999999852,
      "v": 76
    },
    {
      "midi": 71,
      "hit": false,
      "t": 30789.427500000096,
      "d": 78.94725000000108,
      "v": 64
    },
    {
      "midi": 74,
      "hit": false,
      "t": 30789.427500000096,
      "d": 78.94725000000108,
      "v": 64
    },
    {
      "midi": 35,
      "hit": false,
      "t": 30947.321999999975,
      "d": 157.89449999999852,
      "v": 76
    },
    {
      "midi": 47,
      "hit": false,
      "t": 30947.321999999975,
      "d": 157.89449999999852,
      "v": 76
    },
    {
      "midi": 68,
      "hit": false,
      "t": 30953.2430437501,
      "d": 309.8679562500038,
      "v": 112
    },
    {
      "midi": 71,
      "hit": false,
      "t": 30953.2430437501,
      "d": 309.8679562500038,
      "v": 112
    },
    {
      "midi": 52,
      "hit": false,
      "t": 31105.216499999973,
      "d": 315.78900000000067,
      "v": 76
    },
    {
      "midi": 40,
      "hit": false,
      "t": 31105.216499999973,
      "d": 315.78900000000067,
      "v": 76
    },
    {
      "midi": 74,
      "hit": false,
      "t": 31105.2165000001,
      "d": 78.94725000000108,
      "v": 64
    },
    {
      "midi": 71,
      "hit": false,
      "t": 31263.111000000103,
      "d": 157.89450000000215,
      "v": 64
    },
    {
      "midi": 68,
      "hit": false,
      "t": 31266.400468750104,
      "d": 143.42083750000165,
      "v": 64
    },
    {
      "midi": 52,
      "hit": false,
      "t": 31421.005499999974,
      "d": 157.89449999999852,
      "v": 76
    },
    {
      "midi": 40,
      "hit": false,
      "t": 31421.005499999974,
      "d": 157.89449999999852,
      "v": 76
    },
    {
      "midi": 71,
      "hit": false,
      "t": 31421.005500000105,
      "d": 78.94725000000108,
      "v": 64
    },
    {
      "midi": 74,
      "hit": false,
      "t": 31421.005500000105,
      "d": 78.94725000000108,
      "v": 64
    },
    {
      "midi": 45,
      "hit": false,
      "t": 31578.899999999972,
      "d": 157.89449999999852,
      "v": 81
    },
    {
      "midi": 33,
      "hit": false,
      "t": 31578.899999999972,
      "d": 157.89449999999852,
      "v": 81
    },
    {
      "midi": 69,
      "hit": false,
      "t": 31579.557893750105,
      "d": 315.13110625000263,
      "v": 112
    },
    {
      "midi": 72,
      "hit": false,
      "t": 31579.557893750105,
      "d": 315.13110625000263,
      "v": 112
    },
    {
      "midi": 28,
      "hit": false,
      "t": 31736.79449999997,
      "d": 157.89449999999852,
      "v": 81
    },
    {
      "midi": 40,
      "hit": false,
      "t": 31736.79449999997,
      "d": 157.89449999999852,
      "v": 81
    },
    {
      "midi": 76,
      "hit": false,
      "t": 31736.794500000105,
      "d": 78.94725000000108,
      "v": 64
    },
    {
      "midi": 45,
      "hit": false,
      "t": 31894.68899999997,
      "d": 157.89449999999852,
      "v": 81
    },
    {
      "midi": 33,
      "hit": false,
      "t": 31894.68899999997,
      "d": 157.89449999999852,
      "v": 81
    },
    {
      "midi": 72,
      "hit": false,
      "t": 31894.689000000108,
      "d": 157.89450000000215,
      "v": 112
    },
    {
      "midi": 69,
      "hit": false,
      "t": 31903.89951250011,
      "d": 142.76294374999998,
      "v": 112
    },
    {
      "midi": 48,
      "hit": false,
      "t": 32052.583499999968,
      "d": 157.89449999999852,
      "v": 81
    },
    {
      "midi": 36,
      "hit": false,
      "t": 32052.583499999968,
      "d": 157.89449999999852,
      "v": 81
    },
    {
      "midi": 76,
      "hit": false,
      "t": 32052.58350000011,
      "d": 6.578937499998574,
      "v": 64
    },
    {
      "midi": 72,
      "hit": false,
      "t": 32052.58350000011,
      "d": 78.94724999999744,
      "v": 64
    },
    {
      "midi": 52,
      "hit": false,
      "t": 32210.477999999966,
      "d": 315.78900000000067,
      "v": 81
    },
    {
      "midi": 40,
      "hit": false,
      "t": 32210.477999999966,
      "d": 315.78900000000067,
      "v": 81
    },
    {
      "midi": 69,
      "hit": false,
      "t": 32216.39904375011,
      "d": 144.73662500000137,
      "v": 112
    },
    {
      "midi": 81,
      "hit": false,
      "t": 32216.39904375011,
      "d": 625.6569562499972,
      "v": 112
    },
    {
      "midi": 76,
      "hit": false,
      "t": 32368.37250000011,
      "d": 5.263149999998859,
      "v": 64
    },
    {
      "midi": 48,
      "hit": false,
      "t": 32526.266999999967,
      "d": 315.78900000000067,
      "v": 81
    },
    {
      "midi": 36,
      "hit": false,
      "t": 32526.266999999967,
      "d": 315.78900000000067,
      "v": 81
    },
    {
      "midi": 69,
      "hit": false,
      "t": 32529.556468750106,
      "d": 143.42083750000165,
      "v": 64
    },
    {
      "midi": 76,
      "hit": false,
      "t": 32684.161500000107,
      "d": 78.94725000000108,
      "v": 64
    },
    {
      "midi": 80,
      "hit": false,
      "t": 32842.056000000106,
      "d": 1263.1559999999808,
      "v": 112
    },
    {
      "midi": 40,
      "hit": false,
      "t": 32842.71389374997,
      "d": 315.13110625000263,
      "v": 110
    },
    {
      "midi": 52,
      "hit": false,
      "t": 32842.71389374997,
      "d": 315.13110625000263,
      "v": 100
    },
    {
      "midi": 71,
      "hit": false,
      "t": 32999.95050000011,
      "d": 78.94724999999744,
      "v": 64
    },
    {
      "midi": 74,
      "hit": false,
      "t": 32999.95050000011,
      "d": 78.94724999999744,
      "v": 64
    },
    {
      "midi": 40,
      "hit": false,
      "t": 33167.055512499974,
      "d": 227.63123749999795,
      "v": 110
    },
    {
      "midi": 52,
      "hit": false,
      "t": 33167.055512499974,
      "d": 227.63123749999795,
      "v": 110
    },
    {
      "midi": 68,
      "hit": false,
      "t": 33167.055512500105,
      "d": 142.76294374999998,
      "v": 64
    },
    {
      "midi": 71,
      "hit": false,
      "t": 33315.739500000105,
      "d": 78.94724999999744,
      "v": 64
    },
    {
      "midi": 74,
      "hit": false,
      "t": 33315.739500000105,
      "d": 78.94724999999744,
      "v": 64
    },
    {
      "midi": 38,
      "hit": false,
      "t": 33399.29200624997,
      "d": 74.34199375000026,
      "v": 110
    },
    {
      "midi": 50,
      "hit": false,
      "t": 33399.29200624997,
      "d": 74.34199375000026,
      "v": 110
    },
    {
      "midi": 40,
      "hit": false,
      "t": 33479.55504374997,
      "d": 144.73662499999773,
      "v": 110
    },
    {
      "midi": 52,
      "hit": false,
      "t": 33479.55504374997,
      "d": 144.73662499999773,
      "v": 110
    },
    {
      "midi": 68,
      "hit": false,
      "t": 33479.5550437501,
      "d": 144.73662499999773,
      "v": 64
    },
    {
      "midi": 71,
      "hit": false,
      "t": 33631.528500000095,
      "d": 78.94724999999744,
      "v": 64
    },
    {
      "midi": 74,
      "hit": false,
      "t": 33631.528500000095,
      "d": 78.94724999999744,
      "v": 64
    },
    {
      "midi": 38,
      "hit": false,
      "t": 33636.79164999997,
      "d": 152.6313500000033,
      "v": 110
    },
    {
      "midi": 50,
      "hit": false,
      "t": 33636.79164999997,
      "d": 152.6313500000033,
      "v": 110
    },
    {
      "midi": 36,
      "hit": false,
      "t": 33792.712468749975,
      "d": 143.42083750000165,
      "v": 110
    },
    {
      "midi": 48,
      "hit": false,
      "t": 33792.712468749975,
      "d": 143.42083750000165,
      "v": 110
    },
    {
      "midi": 68,
      "hit": false,
      "t": 33792.71246875009,
      "d": 143.42083750000165,
      "v": 64
    },
    {
      "midi": 71,
      "hit": false,
      "t": 33947.31750000009,
      "d": 78.94724999999744,
      "v": 64
    },
    {
      "midi": 74,
      "hit": false,
      "t": 33947.31750000009,
      "d": 78.94724999999744,
      "v": 64
    },
    {
      "midi": 35,
      "hit": false,
      "t": 33948.63328749998,
      "d": 156.5787124999988,
      "v": 110
    },
    {
      "midi": 47,
      "hit": false,
      "t": 33948.63328749998,
      "d": 156.5787124999988,
      "v": 110
    },
    {
      "midi": 52,
      "hit": false,
      "t": 34105.21199999998,
      "d": 631.5780000000013,
      "v": 100
    },
    {
      "midi": 48,
      "hit": false,
      "t": 34105.21199999998,
      "d": 631.5780000000013,
      "v": 110
    },
    {
      "midi": 64,
      "hit": false,
      "t": 34105.21200000009,
      "d": 78.94724999999744,
      "v": 81
    },
    {
      "midi": 69,
      "hit": false,
      "t": 34184.159250000084,
      "d": 78.94724999999744,
      "v": 81
    },
    {
      "midi": 72,
      "hit": false,
      "t": 34263.10650000008,
      "d": 78.94724999999744,
      "v": 81
    },
    {
      "midi": 76,
      "hit": false,
      "t": 34342.05375000008,
      "d": 78.94724999999744,
      "v": 81
    },
    {
      "midi": 74,
      "hit": false,
      "t": 34421.00100000008,
      "d": 78.94724999999744,
      "v": 81
    },
    {
      "midi": 76,
      "hit": false,
      "t": 34499.948250000074,
      "d": 78.94724999999744,
      "v": 81
    },
    {
      "midi": 72,
      "hit": false,
      "t": 34578.89550000007,
      "d": 78.94724999999744,
      "v": 81
    },
    {
      "midi": 69,
      "hit": false,
      "t": 34657.84275000007,
      "d": 78.94724999999744,
      "v": 81
    },
    {
      "midi": 48,
      "hit": false,
      "t": 34736.78999999998,
      "d": 631.5780000000013,
      "v": 110
    },
    {
      "midi": 45,
      "hit": false,
      "t": 34736.78999999998,
      "d": 631.5780000000013,
      "v": 110
    },
    {
      "midi": 64,
      "hit": false,
      "t": 34736.790000000066,
      "d": 78.94724999999744,
      "v": 81
    },
    {
      "midi": 69,
      "hit": false,
      "t": 34815.737250000064,
      "d": 78.94724999999744,
      "v": 81
    },
    {
      "midi": 72,
      "hit": false,
      "t": 34894.68450000006,
      "d": 78.94724999999744,
      "v": 81
    },
    {
      "midi": 76,
      "hit": false,
      "t": 34973.63175000006,
      "d": 78.94724999999744,
      "v": 81
    },
    {
      "midi": 74,
      "hit": false,
      "t": 35052.579000000056,
      "d": 78.94724999999744,
      "v": 81
    },
    {
      "midi": 76,
      "hit": false,
      "t": 35131.52625000005,
      "d": 78.94724999999744,
      "v": 81
    },
    {
      "midi": 72,
      "hit": false,
      "t": 35210.47350000005,
      "d": 78.94724999999744,
      "v": 81
    },
    {
      "midi": 69,
      "hit": false,
      "t": 35289.42075000005,
      "d": 78.94724999999744,
      "v": 81
    },
    {
      "midi": 50,
      "hit": false,
      "t": 35368.36799999998,
      "d": 631.5780000000013,
      "v": 110
    },
    {
      "midi": 47,
      "hit": false,
      "t": 35368.36799999998,
      "d": 631.5780000000013,
      "v": 110
    },
    {
      "midi": 64,
      "hit": false,
      "t": 35368.368000000046,
      "d": 78.94724999999744,
      "v": 81
    },
    {
      "midi": 68,
      "hit": false,
      "t": 35447.31525000004,
      "d": 78.94724999999744,
      "v": 81
    },
    {
      "midi": 71,
      "hit": false,
      "t": 35526.26250000004,
      "d": 78.94724999999744,
      "v": 81
    },
    {
      "midi": 76,
      "hit": false,
      "t": 35605.20975000004,
      "d": 78.94724999999744,
      "v": 81
    },
    {
      "midi": 74,
      "hit": false,
      "t": 35684.157000000036,
      "d": 78.94724999999744,
      "v": 81
    },
    {
      "midi": 76,
      "hit": false,
      "t": 35763.10425000003,
      "d": 78.94724999999744,
      "v": 81
    },
    {
      "midi": 71,
      "hit": false,
      "t": 35842.05150000003,
      "d": 78.94724999999744,
      "v": 81
    },
    {
      "midi": 68,
      "hit": false,
      "t": 35920.99875000003,
      "d": 78.94724999999744,
      "v": 81
    },
    {
      "midi": 47,
      "hit": false,
      "t": 35999.94599999998,
      "d": 631.5780000000013,
      "v": 110
    },
    {
      "midi": 44,
      "hit": false,
      "t": 35999.94599999998,
      "d": 631.5780000000013,
      "v": 110
    },
    {
      "midi": 64,
      "hit": false,
      "t": 35999.946000000025,
      "d": 78.94724999999744,
      "v": 81
    },
    {
      "midi": 68,
      "hit": false,
      "t": 36078.89325000002,
      "d": 78.94724999999744,
      "v": 81
    },
    {
      "midi": 71,
      "hit": false,
      "t": 36157.84050000002,
      "d": 78.94724999999744,
      "v": 81
    },
    {
      "midi": 76,
      "hit": false,
      "t": 36236.78775000002,
      "d": 78.94724999999744,
      "v": 81
    },
    {
      "midi": 74,
      "hit": false,
      "t": 36315.735000000015,
      "d": 78.94724999999744,
      "v": 81
    },
    {
      "midi": 76,
      "hit": false,
      "t": 36394.68225000001,
      "d": 78.94724999999744,
      "v": 81
    },
    {
      "midi": 71,
      "hit": false,
      "t": 36473.62950000001,
      "d": 78.94724999999744,
      "v": 81
    },
    {
      "midi": 68,
      "hit": false,
      "t": 36552.57675000001,
      "d": 78.94724999999744,
      "v": 81
    },
    {
      "midi": 48,
      "hit": false,
      "t": 36631.52399999998,
      "d": 631.5780000000013,
      "v": 110
    },
    {
      "midi": 45,
      "hit": false,
      "t": 36631.52399999998,
      "d": 631.5780000000013,
      "v": 110
    },
    {
      "midi": 64,
      "hit": false,
      "t": 36631.524000000005,
      "d": 78.94724999999744,
      "v": 81
    },
    {
      "midi": 69,
      "hit": false,
      "t": 36710.47125,
      "d": 78.94724999999744,
      "v": 81
    },
    {
      "midi": 72,
      "hit": false,
      "t": 36789.4185,
      "d": 78.94724999999744,
      "v": 81
    },
    {
      "midi": 76,
      "hit": false,
      "t": 36868.36575,
      "d": 78.94724999999744,
      "v": 81
    },
    {
      "midi": 74,
      "hit": false,
      "t": 36947.312999999995,
      "d": 78.94724999999744,
      "v": 81
    },
    {
      "midi": 76,
      "hit": false,
      "t": 37026.26024999999,
      "d": 78.94724999999744,
      "v": 81
    },
    {
      "midi": 72,
      "hit": false,
      "t": 37105.20749999999,
      "d": 78.94724999999744,
      "v": 81
    },
    {
      "midi": 69,
      "hit": false,
      "t": 37184.15474999999,
      "d": 78.94724999999744,
      "v": 81
    },
    {
      "midi": 64,
      "hit": false,
      "t": 37263.101999999984,
      "d": 78.94724999999744,
      "v": 81
    },
    {
      "midi": 45,
      "hit": false,
      "t": 37263.101999999984,
      "d": 631.5780000000013,
      "v": 110
    },
    {
      "midi": 40,
      "hit": false,
      "t": 37263.101999999984,
      "d": 631.5780000000013,
      "v": 110
    },
    {
      "midi": 69,
      "hit": false,
      "t": 37342.04924999998,
      "d": 78.94724999999744,
      "v": 81
    },
    {
      "midi": 72,
      "hit": false,
      "t": 37420.99649999998,
      "d": 78.94724999999744,
      "v": 81
    },
    {
      "midi": 76,
      "hit": false,
      "t": 37499.94374999998,
      "d": 78.94724999999744,
      "v": 81
    },
    {
      "midi": 74,
      "hit": false,
      "t": 37578.890999999974,
      "d": 78.94724999999744,
      "v": 81
    },
    {
      "midi": 76,
      "hit": false,
      "t": 37657.83824999997,
      "d": 78.94724999999744,
      "v": 81
    },
    {
      "midi": 72,
      "hit": false,
      "t": 37736.78549999997,
      "d": 78.94724999999744,
      "v": 81
    },
    {
      "midi": 69,
      "hit": false,
      "t": 37815.73274999997,
      "d": 78.94724999999744,
      "v": 81
    },
    {
      "midi": 64,
      "hit": false,
      "t": 37894.679999999964,
      "d": 78.94724999999744,
      "v": 81
    },
    {
      "midi": 44,
      "hit": false,
      "t": 37894.679999999986,
      "d": 631.5780000000013,
      "v": 110
    },
    {
      "midi": 40,
      "hit": false,
      "t": 37894.679999999986,
      "d": 631.5780000000013,
      "v": 110
    },
    {
      "midi": 68,
      "hit": false,
      "t": 37973.62724999996,
      "d": 78.94724999999744,
      "v": 81
    },
    {
      "midi": 71,
      "hit": false,
      "t": 38052.57449999996,
      "d": 78.94724999999744,
      "v": 81
    },
    {
      "midi": 76,
      "hit": false,
      "t": 38131.521749999956,
      "d": 78.94724999999744,
      "v": 81
    },
    {
      "midi": 74,
      "hit": false,
      "t": 38210.468999999954,
      "d": 78.94724999999744,
      "v": 81
    },
    {
      "midi": 76,
      "hit": false,
      "t": 38289.41624999995,
      "d": 78.94724999999744,
      "v": 81
    },
    {
      "midi": 71,
      "hit": false,
      "t": 38368.36349999995,
      "d": 78.94724999999744,
      "v": 81
    },
    {
      "midi": 68,
      "hit": false,
      "t": 38447.310749999946,
      "d": 78.94724999999744,
      "v": 81
    },
    {
      "midi": 64,
      "hit": false,
      "t": 38526.25799999994,
      "d": 78.94724999999744,
      "v": 81
    },
    {
      "midi": 44,
      "hit": false,
      "t": 38526.25799999999,
      "d": 631.5780000000013,
      "v": 110
    },
    {
      "midi": 47,
      "hit": false,
      "t": 38526.25799999999,
      "d": 631.5780000000013,
      "v": 110
    },
    {
      "midi": 68,
      "hit": false,
      "t": 38605.20524999994,
      "d": 78.94724999999744,
      "v": 81
    },
    {
      "midi": 71,
      "hit": false,
      "t": 38684.15249999994,
      "d": 78.94724999999744,
      "v": 81
    },
    {
      "midi": 76,
      "hit": false,
      "t": 38763.099749999936,
      "d": 78.94724999999744,
      "v": 81
    },
    {
      "midi": 74,
      "hit": false,
      "t": 38842.04699999993,
      "d": 78.94724999999744,
      "v": 81
    },
    {
      "midi": 76,
      "hit": false,
      "t": 38920.99424999993,
      "d": 78.94724999999744,
      "v": 81
    },
    {
      "midi": 71,
      "hit": false,
      "t": 38999.94149999993,
      "d": 78.94724999999744,
      "v": 81
    },
    {
      "midi": 64,
      "hit": false,
      "t": 39078.888749999925,
      "d": 78.94724999999744,
      "v": 81
    },
    {
      "midi": 60,
      "hit": false,
      "t": 39157.83599999992,
      "d": 78.94724999999744,
      "v": 81
    },
    {
      "midi": 45,
      "hit": false,
      "t": 39157.83599999999,
      "d": 157.89450000000215,
      "v": 91
    },
    {
      "midi": 64,
      "hit": false,
      "t": 39236.78324999992,
      "d": 78.94724999999744,
      "v": 81
    },
    {
      "midi": 69,
      "hit": false,
      "t": 39315.73049999992,
      "d": 78.94724999999744,
      "v": 81
    },
    {
      "midi": 48,
      "hit": false,
      "t": 39315.73049999999,
      "d": 78.94724999999744,
      "v": 91
    },
    {
      "midi": 72,
      "hit": false,
      "t": 39394.677749999915,
      "d": 78.94724999999744,
      "v": 81
    },
    {
      "midi": 76,
      "hit": false,
      "t": 39473.62499999991,
      "d": 78.94724999999744,
      "v": 81
    },
    {
      "midi": 40,
      "hit": false,
      "t": 39473.624999999985,
      "d": 157.89450000000215,
      "v": 91
    },
    {
      "midi": 72,
      "hit": false,
      "t": 39552.57224999991,
      "d": 78.94724999999744,
      "v": 81
    },
    {
      "midi": 69,
      "hit": false,
      "t": 39631.51949999991,
      "d": 78.94724999999744,
      "v": 81
    },
    {
      "midi": 48,
      "hit": false,
      "t": 39631.51949999999,
      "d": 78.94724999999744,
      "v": 91
    },
    {
      "midi": 64,
      "hit": false,
      "t": 39710.466749999905,
      "d": 78.94724999999744,
      "v": 81
    },
    {
      "midi": 60,
      "hit": false,
      "t": 39789.4139999999,
      "d": 78.94724999999744,
      "v": 81
    },
    {
      "midi": 45,
      "hit": false,
      "t": 39789.41399999998,
      "d": 157.89450000000215,
      "v": 91
    },
    {
      "midi": 64,
      "hit": false,
      "t": 39868.3612499999,
      "d": 78.94724999999744,
      "v": 81
    },
    {
      "midi": 69,
      "hit": false,
      "t": 39947.3084999999,
      "d": 78.94724999999744,
      "v": 81
    },
    {
      "midi": 48,
      "hit": false,
      "t": 39947.308499999985,
      "d": 78.94724999999744,
      "v": 91
    },
    {
      "midi": 72,
      "hit": false,
      "t": 40026.255749999895,
      "d": 78.94724999999744,
      "v": 81
    },
    {
      "midi": 76,
      "hit": false,
      "t": 40105.20299999989,
      "d": 78.94724999999744,
      "v": 81
    },
    {
      "midi": 40,
      "hit": false,
      "t": 40105.20299999998,
      "d": 157.89450000000215,
      "v": 91
    },
    {
      "midi": 72,
      "hit": false,
      "t": 40184.15024999989,
      "d": 78.94724999999744,
      "v": 81
    },
    {
      "midi": 69,
      "hit": false,
      "t": 40263.09749999989,
      "d": 78.94724999999744,
      "v": 81
    },
    {
      "midi": 48,
      "hit": false,
      "t": 40263.09749999998,
      "d": 78.94724999999744,
      "v": 91
    },
    {
      "midi": 64,
      "hit": false,
      "t": 40342.044749999885,
      "d": 78.94724999999744,
      "v": 81
    },
    {
      "midi": 59,
      "hit": false,
      "t": 40420.99199999988,
      "d": 78.94724999999744,
      "v": 81
    },
    {
      "midi": 44,
      "hit": false,
      "t": 40420.99199999998,
      "d": 157.89450000000215,
      "v": 91
    },
    {
      "midi": 64,
      "hit": false,
      "t": 40499.93924999988,
      "d": 78.94724999999744,
      "v": 81
    },
    {
      "midi": 68,
      "hit": false,
      "t": 40578.88649999988,
      "d": 78.94724999999744,
      "v": 81
    },
    {
      "midi": 47,
      "hit": false,
      "t": 40578.88649999998,
      "d": 78.94724999999744,
      "v": 91
    },
    {
      "midi": 71,
      "hit": false,
      "t": 40657.833749999874,
      "d": 78.94724999999744,
      "v": 81
    },
    {
      "midi": 76,
      "hit": false,
      "t": 40736.78099999987,
      "d": 78.94724999999744,
      "v": 81
    },
    {
      "midi": 40,
      "hit": false,
      "t": 40736.78099999997,
      "d": 157.89450000000215,
      "v": 91
    },
    {
      "midi": 71,
      "hit": false,
      "t": 40815.72824999987,
      "d": 78.94724999999744,
      "v": 81
    },
    {
      "midi": 68,
      "hit": false,
      "t": 40894.67549999987,
      "d": 78.94724999999744,
      "v": 81
    },
    {
      "midi": 47,
      "hit": false,
      "t": 40894.675499999976,
      "d": 78.94724999999744,
      "v": 91
    },
    {
      "midi": 64,
      "hit": false,
      "t": 40973.622749999864,
      "d": 78.94724999999744,
      "v": 81
    },
    {
      "midi": 59,
      "hit": false,
      "t": 41052.56999999986,
      "d": 78.94724999999744,
      "v": 81
    },
    {
      "midi": 44,
      "hit": false,
      "t": 41052.56999999997,
      "d": 157.89450000000215,
      "v": 91
    },
    {
      "midi": 64,
      "hit": false,
      "t": 41131.51724999986,
      "d": 78.94724999999744,
      "v": 81
    },
    {
      "midi": 68,
      "hit": false,
      "t": 41210.464499999856,
      "d": 78.94724999999744,
      "v": 81
    },
    {
      "midi": 47,
      "hit": false,
      "t": 41210.46449999997,
      "d": 78.94724999999744,
      "v": 91
    },
    {
      "midi": 71,
      "hit": false,
      "t": 41289.411749999854,
      "d": 78.94724999999744,
      "v": 81
    },
    {
      "midi": 76,
      "hit": false,
      "t": 41368.35899999985,
      "d": 78.94724999999744,
      "v": 81
    },
    {
      "midi": 40,
      "hit": false,
      "t": 41368.35899999997,
      "d": 157.89450000000215,
      "v": 91
    },
    {
      "midi": 71,
      "hit": false,
      "t": 41447.30624999985,
      "d": 78.94724999999744,
      "v": 81
    },
    {
      "midi": 68,
      "hit": false,
      "t": 41526.253499999846,
      "d": 78.94724999999744,
      "v": 81
    },
    {
      "midi": 47,
      "hit": false,
      "t": 41526.25349999997,
      "d": 78.94724999999744,
      "v": 91
    },
    {
      "midi": 64,
      "hit": false,
      "t": 41605.20074999984,
      "d": 78.94724999999744,
      "v": 81
    },
    {
      "midi": 60,
      "hit": false,
      "t": 41684.14799999984,
      "d": 78.94724999999744,
      "v": 91
    },
    {
      "midi": 45,
      "hit": false,
      "t": 41684.147999999965,
      "d": 157.89450000000215,
      "v": 91
    },
    {
      "midi": 64,
      "hit": false,
      "t": 41763.09524999984,
      "d": 78.94724999999744,
      "v": 91
    },
    {
      "midi": 69,
      "hit": false,
      "t": 41842.042499999836,
      "d": 78.94724999999744,
      "v": 91
    },
    {
      "midi": 48,
      "hit": false,
      "t": 41842.04249999997,
      "d": 78.94724999999744,
      "v": 91
    },
    {
      "midi": 72,
      "hit": false,
      "t": 41920.98974999983,
      "d": 78.94724999999744,
      "v": 91
    },
    {
      "midi": 76,
      "hit": false,
      "t": 41999.93699999983,
      "d": 78.94724999999744,
      "v": 91
    },
    {
      "midi": 40,
      "hit": false,
      "t": 41999.93699999996,
      "d": 157.89450000000215,
      "v": 91
    },
    {
      "midi": 72,
      "hit": false,
      "t": 42078.88424999983,
      "d": 78.94724999999744,
      "v": 91
    },
    {
      "midi": 69,
      "hit": false,
      "t": 42157.831499999826,
      "d": 78.94724999999744,
      "v": 91
    },
    {
      "midi": 48,
      "hit": false,
      "t": 42157.831499999964,
      "d": 78.94724999999744,
      "v": 91
    },
    {
      "midi": 64,
      "hit": false,
      "t": 42236.77874999982,
      "d": 78.94724999999744,
      "v": 91
    },
    {
      "midi": 60,
      "hit": false,
      "t": 42315.72599999982,
      "d": 78.94724999999744,
      "v": 91
    },
    {
      "midi": 45,
      "hit": false,
      "t": 42315.72599999996,
      "d": 157.89450000000215,
      "v": 91
    },
    {
      "midi": 64,
      "hit": false,
      "t": 42394.67324999982,
      "d": 78.94724999999744,
      "v": 91
    },
    {
      "midi": 69,
      "hit": false,
      "t": 42473.620499999815,
      "d": 78.94724999999744,
      "v": 91
    },
    {
      "midi": 48,
      "hit": false,
      "t": 42473.62049999996,
      "d": 78.94724999999744,
      "v": 91
    },
    {
      "midi": 72,
      "hit": false,
      "t": 42552.56774999981,
      "d": 78.94724999999744,
      "v": 91
    },
    {
      "midi": 76,
      "hit": false,
      "t": 42631.51499999981,
      "d": 78.94724999999744,
      "v": 91
    },
    {
      "midi": 40,
      "hit": false,
      "t": 42631.514999999956,
      "d": 157.89450000000215,
      "v": 91
    },
    {
      "midi": 72,
      "hit": false,
      "t": 42710.46224999981,
      "d": 78.94724999999744,
      "v": 91
    },
    {
      "midi": 69,
      "hit": false,
      "t": 42789.409499999805,
      "d": 78.94724999999744,
      "v": 91
    },
    {
      "midi": 48,
      "hit": false,
      "t": 42789.40949999996,
      "d": 78.94724999999744,
      "v": 91
    },
    {
      "midi": 64,
      "hit": false,
      "t": 42868.3567499998,
      "d": 78.94724999999744,
      "v": 91
    },
    {
      "midi": 59,
      "hit": false,
      "t": 42947.9618937498,
      "d": 99.34195624999847,
      "v": 110
    },
    {
      "midi": 40,
      "hit": false,
      "t": 42947.961893749954,
      "d": 315.13110625000263,
      "v": 100
    },
    {
      "midi": 52,
      "hit": false,
      "t": 42947.961893749954,
      "d": 315.13110625000263,
      "v": 100
    },
    {
      "midi": 64,
      "hit": false,
      "t": 43038.7512312498,
      "d": 85.52618749999965,
      "v": 110
    },
    {
      "midi": 68,
      "hit": false,
      "t": 43115.0669062498,
      "d": 49.34203125000204,
      "v": 110
    },
    {
      "midi": 71,
      "hit": false,
      "t": 43192.0404749998,
      "d": 88.81565625000076,
      "v": 110
    },
    {
      "midi": 76,
      "hit": false,
      "t": 43272.3035124998,
      "d": 88.15776249999908,
      "v": 110
    },
    {
      "midi": 40,
      "hit": false,
      "t": 43272.30351249996,
      "d": 227.63123749999795,
      "v": 100
    },
    {
      "midi": 52,
      "hit": false,
      "t": 43272.30351249996,
      "d": 227.63123749999795,
      "v": 100
    },
    {
      "midi": 74,
      "hit": false,
      "t": 43351.9086562498,
      "d": 84.86829374999797,
      "v": 110
    },
    {
      "midi": 71,
      "hit": false,
      "t": 43420.9874999998,
      "d": 78.94724999999744,
      "v": 110
    },
    {
      "midi": 68,
      "hit": false,
      "t": 43504.540006249794,
      "d": 89.47355000000243,
      "v": 110
    },
    {
      "midi": 38,
      "hit": false,
      "t": 43504.540006249954,
      "d": 74.34199375000026,
      "v": 100
    },
    {
      "midi": 50,
      "hit": false,
      "t": 43504.540006249954,
      "d": 74.34199375000026,
      "v": 100
    },
    {
      "midi": 64,
      "hit": false,
      "t": 43584.803043749795,
      "d": 90.13144375000411,
      "v": 110
    },
    {
      "midi": 40,
      "hit": false,
      "t": 43584.803043749955,
      "d": 151.97345625000162,
      "v": 100
    },
    {
      "midi": 52,
      "hit": false,
      "t": 43584.803043749955,
      "d": 151.97345625000162,
      "v": 100
    },
    {
      "midi": 68,
      "hit": false,
      "t": 43666.3818687498,
      "d": 84.86829374999797,
      "v": 110
    },
    {
      "midi": 71,
      "hit": false,
      "t": 43736.776499999796,
      "d": 78.94724999999744,
      "v": 110
    },
    {
      "midi": 38,
      "hit": false,
      "t": 43742.039649999955,
      "d": 152.6313500000033,
      "v": 100
    },
    {
      "midi": 50,
      "hit": false,
      "t": 43742.039649999955,
      "d": 152.6313500000033,
      "v": 100
    },
    {
      "midi": 74,
      "hit": false,
      "t": 43819.013218749795,
      "d": 88.15776249999908,
      "v": 110
    },
    {
      "midi": 76,
      "hit": false,
      "t": 43897.96046874979,
      "d": 88.15776250000636,
      "v": 110
    },
    {
      "midi": 36,
      "hit": false,
      "t": 43897.96046874996,
      "d": 154.60503125000105,
      "v": 100
    },
    {
      "midi": 48,
      "hit": false,
      "t": 43897.96046874996,
      "d": 154.60503125000105,
      "v": 100
    },
    {
      "midi": 80,
      "hit": false,
      "t": 43973.618249999796,
      "d": 78.94725000000471,
      "v": 110
    },
    {
      "midi": 81,
      "hit": false,
      "t": 44052.5654999998,
      "d": 78.94724999999744,
      "v": 110
    },
    {
      "midi": 40,
      "hit": false,
      "t": 44053.881287499964,
      "d": 156.5787124999988,
      "v": 100
    },
    {
      "midi": 52,
      "hit": false,
      "t": 44053.881287499964,
      "d": 156.5787124999988,
      "v": 100
    },
    {
      "midi": 80,
      "hit": false,
      "t": 44131.5127499998,
      "d": 78.94724999999744,
      "v": 110
    },
    {
      "midi": 76,
      "hit": false,
      "t": 44210.459999999795,
      "d": 157.89450000000215,
      "v": 100
    },
    {
      "midi": 72,
      "hit": false,
      "t": 44210.459999999795,
      "d": 157.89450000000215,
      "v": 100
    },
    {
      "midi": 69,
      "hit": false,
      "t": 44210.459999999795,
      "d": 157.89450000000215,
      "v": 100
    },
    {
      "midi": 57,
      "hit": false,
      "t": 44210.45999999996,
      "d": 157.89450000000215,
      "v": 90
    },
    {
      "midi": 45,
      "hit": false,
      "t": 44210.45999999996,
      "d": 157.89450000000215,
      "v": 90
    },
    {
      "midi": 69,
      "hit": false,
      "t": 44368.3544999998,
      "d": 157.89450000000215,
      "v": 100
    },
    {
      "midi": 72,
      "hit": false,
      "t": 44368.3544999998,
      "d": 157.89450000000215,
      "v": 100
    },
    {
      "midi": 76,
      "hit": false,
      "t": 44368.3544999998,
      "d": 157.89450000000215,
      "v": 100
    },
    {
      "midi": 52,
      "hit": false,
      "t": 44368.354499999965,
      "d": 157.89450000000215,
      "v": 90
    },
    {
      "midi": 40,
      "hit": false,
      "t": 44368.354499999965,
      "d": 157.89450000000215,
      "v": 90
    },
    {
      "midi": 57,
      "hit": false,
      "t": 44842.0379999998,
      "d": 78.94724999999744,
      "v": 100
    },
    {
      "midi": 48,
      "hit": false,
      "t": 44842.037999999964,
      "d": 315.78899999999703,
      "v": 90
    },
    {
      "midi": 36,
      "hit": false,
      "t": 44842.037999999964,
      "d": 315.78899999999703,
      "v": 90
    },
    {
      "midi": 60,
      "hit": false,
      "t": 44920.985249999794,
      "d": 78.94724999999744,
      "v": 100
    },
    {
      "midi": 64,
      "hit": false,
      "t": 44999.93249999979,
      "d": 78.94724999999744,
      "v": 100
    },
    {
      "midi": 69,
      "hit": false,
      "t": 45078.87974999979,
      "d": 78.94724999999744,
      "v": 100
    },
    {
      "midi": 72,
      "hit": false,
      "t": 45157.82699999979,
      "d": 78.94724999999744,
      "v": 100
    },
    {
      "midi": 45,
      "hit": false,
      "t": 45157.82699999996,
      "d": 315.78899999999703,
      "v": 90
    },
    {
      "midi": 33,
      "hit": false,
      "t": 45157.82699999996,
      "d": 315.78899999999703,
      "v": 90
    },
    {
      "midi": 76,
      "hit": false,
      "t": 45236.774249999784,
      "d": 78.94724999999744,
      "v": 100
    },
    {
      "midi": 74,
      "hit": false,
      "t": 45315.72149999978,
      "d": 78.94724999999744,
      "v": 100
    },
    {
      "midi": 76,
      "hit": false,
      "t": 45394.66874999978,
      "d": 78.94724999999744,
      "v": 100
    },
    {
      "midi": 69,
      "hit": false,
      "t": 45473.615999999776,
      "d": 157.89450000000215,
      "v": 100
    },
    {
      "midi": 72,
      "hit": false,
      "t": 45473.615999999776,
      "d": 157.89450000000215,
      "v": 100
    },
    {
      "midi": 77,
      "hit": false,
      "t": 45473.615999999776,
      "d": 157.89450000000215,
      "v": 100
    },
    {
      "midi": 53,
      "hit": false,
      "t": 45473.61599999996,
      "d": 157.89450000000215,
      "v": 90
    },
    {
      "midi": 41,
      "hit": false,
      "t": 45473.61599999996,
      "d": 157.89450000000215,
      "v": 90
    },
    {
      "midi": 77,
      "hit": false,
      "t": 45631.51049999978,
      "d": 157.89450000000215,
      "v": 100
    },
    {
      "midi": 72,
      "hit": false,
      "t": 45631.51049999978,
      "d": 157.89450000000215,
      "v": 100
    },
    {
      "midi": 69,
      "hit": false,
      "t": 45631.51049999978,
      "d": 157.89450000000215,
      "v": 100
    },
    {
      "midi": 48,
      "hit": false,
      "t": 45631.51049999996,
      "d": 157.89450000000215,
      "v": 90
    },
    {
      "midi": 36,
      "hit": false,
      "t": 45631.51049999996,
      "d": 157.89450000000215,
      "v": 90
    },
    {
      "midi": 53,
      "hit": false,
      "t": 46105.19399999978,
      "d": 78.94724999999744,
      "v": 100
    },
    {
      "midi": 45,
      "hit": false,
      "t": 46105.19399999996,
      "d": 315.78899999999703,
      "v": 90
    },
    {
      "midi": 33,
      "hit": false,
      "t": 46105.19399999996,
      "d": 315.78899999999703,
      "v": 90
    },
    {
      "midi": 57,
      "hit": false,
      "t": 46184.141249999775,
      "d": 78.94724999999744,
      "v": 100
    },
    {
      "midi": 60,
      "hit": false,
      "t": 46263.08849999977,
      "d": 78.94724999999744,
      "v": 100
    },
    {
      "midi": 65,
      "hit": false,
      "t": 46342.03574999977,
      "d": 78.94724999999744,
      "v": 100
    },
    {
      "midi": 69,
      "hit": false,
      "t": 46420.98299999977,
      "d": 78.94724999999744,
      "v": 100
    },
    {
      "midi": 41,
      "hit": false,
      "t": 46420.98299999996,
      "d": 315.78899999999703,
      "v": 90
    },
    {
      "midi": 29,
      "hit": false,
      "t": 46420.98299999996,
      "d": 315.78899999999703,
      "v": 90
    },
    {
      "midi": 72,
      "hit": false,
      "t": 46499.930249999765,
      "d": 78.94724999999744,
      "v": 100
    },
    {
      "midi": 71,
      "hit": false,
      "t": 46578.87749999976,
      "d": 78.94724999999744,
      "v": 100
    },
    {
      "midi": 72,
      "hit": false,
      "t": 46657.82474999976,
      "d": 78.94724999999744,
      "v": 100
    },
    {
      "midi": 69,
      "hit": false,
      "t": 46736.77199999976,
      "d": 157.89450000000215,
      "v": 100
    },
    {
      "midi": 72,
      "hit": false,
      "t": 46736.77199999976,
      "d": 157.89450000000215,
      "v": 100
    },
    {
      "midi": 76,
      "hit": false,
      "t": 46736.77199999976,
      "d": 157.89450000000215,
      "v": 100
    },
    {
      "midi": 57,
      "hit": false,
      "t": 46736.77199999995,
      "d": 157.89450000000215,
      "v": 85
    },
    {
      "midi": 45,
      "hit": false,
      "t": 46736.77199999995,
      "d": 157.89450000000215,
      "v": 85
    },
    {
      "midi": 76,
      "hit": false,
      "t": 46894.66649999976,
      "d": 157.89450000000215,
      "v": 100
    },
    {
      "midi": 72,
      "hit": false,
      "t": 46894.66649999976,
      "d": 157.89450000000215,
      "v": 100
    },
    {
      "midi": 69,
      "hit": false,
      "t": 46894.66649999976,
      "d": 157.89450000000215,
      "v": 100
    },
    {
      "midi": 52,
      "hit": false,
      "t": 46894.666499999956,
      "d": 157.89450000000215,
      "v": 85
    },
    {
      "midi": 40,
      "hit": false,
      "t": 46894.666499999956,
      "d": 157.89450000000215,
      "v": 85
    },
    {
      "midi": 36,
      "hit": false,
      "t": 47052.56099999996,
      "d": 157.89450000000215,
      "v": 85
    },
    {
      "midi": 48,
      "hit": false,
      "t": 47052.56099999996,
      "d": 157.89450000000215,
      "v": 85
    },
    {
      "midi": 52,
      "hit": false,
      "t": 47210.45549999996,
      "d": 157.89450000000215,
      "v": 85
    },
    {
      "midi": 40,
      "hit": false,
      "t": 47210.45549999996,
      "d": 157.89450000000215,
      "v": 85
    },
    {
      "midi": 57,
      "hit": false,
      "t": 47368.34999999976,
      "d": 78.94724999999744,
      "v": 100
    },
    {
      "midi": 48,
      "hit": false,
      "t": 47368.34999999996,
      "d": 315.78899999999703,
      "v": 76
    },
    {
      "midi": 36,
      "hit": false,
      "t": 47368.34999999996,
      "d": 315.78899999999703,
      "v": 76
    },
    {
      "midi": 60,
      "hit": false,
      "t": 47447.297249999756,
      "d": 78.94724999999744,
      "v": 100
    },
    {
      "midi": 64,
      "hit": false,
      "t": 47526.24449999975,
      "d": 78.94724999999744,
      "v": 100
    },
    {
      "midi": 69,
      "hit": false,
      "t": 47605.19174999975,
      "d": 78.94724999999744,
      "v": 100
    },
    {
      "midi": 72,
      "hit": false,
      "t": 47684.13899999975,
      "d": 78.94724999999744,
      "v": 100
    },
    {
      "midi": 52,
      "hit": false,
      "t": 47684.13899999996,
      "d": 315.78899999999703,
      "v": 76
    },
    {
      "midi": 40,
      "hit": false,
      "t": 47684.13899999996,
      "d": 315.78899999999703,
      "v": 76
    },
    {
      "midi": 76,
      "hit": false,
      "t": 47763.086249999746,
      "d": 78.94724999999744,
      "v": 100
    },
    {
      "midi": 74,
      "hit": false,
      "t": 47842.03349999974,
      "d": 78.94724999999744,
      "v": 100
    },
    {
      "midi": 76,
      "hit": false,
      "t": 47920.98074999974,
      "d": 78.94724999999744,
      "v": 100
    },
    {
      "midi": 69,
      "hit": false,
      "t": 47999.92799999974,
      "d": 157.89450000000215,
      "v": 100
    },
    {
      "midi": 72,
      "hit": false,
      "t": 47999.92799999974,
      "d": 157.89450000000215,
      "v": 100
    },
    {
      "midi": 77,
      "hit": false,
      "t": 47999.92799999974,
      "d": 157.89450000000215,
      "v": 100
    },
    {
      "midi": 53,
      "hit": false,
      "t": 47999.927999999956,
      "d": 157.89450000000215,
      "v": 85
    },
    {
      "midi": 41,
      "hit": false,
      "t": 47999.927999999956,
      "d": 157.89450000000215,
      "v": 85
    },
    {
      "midi": 77,
      "hit": false,
      "t": 48157.82249999974,
      "d": 157.89450000000215,
      "v": 100
    },
    {
      "midi": 72,
      "hit": false,
      "t": 48157.82249999974,
      "d": 157.89450000000215,
      "v": 100
    },
    {
      "midi": 69,
      "hit": false,
      "t": 48157.82249999974,
      "d": 157.89450000000215,
      "v": 100
    },
    {
      "midi": 48,
      "hit": false,
      "t": 48157.82249999996,
      "d": 157.89450000000215,
      "v": 85
    },
    {
      "midi": 36,
      "hit": false,
      "t": 48157.82249999996,
      "d": 157.89450000000215,
      "v": 85
    },
    {
      "midi": 45,
      "hit": false,
      "t": 48315.71699999996,
      "d": 157.89450000000215,
      "v": 85
    },
    {
      "midi": 33,
      "hit": false,
      "t": 48315.71699999996,
      "d": 157.89450000000215,
      "v": 85
    },
    {
      "midi": 48,
      "hit": false,
      "t": 48473.61149999996,
      "d": 157.89450000000215,
      "v": 85
    },
    {
      "midi": 36,
      "hit": false,
      "t": 48473.61149999996,
      "d": 157.89450000000215,
      "v": 85
    },
    {
      "midi": 53,
      "hit": false,
      "t": 48631.50599999974,
      "d": 78.94724999999744,
      "v": 100
    },
    {
      "midi": 33,
      "hit": false,
      "t": 48631.505999999965,
      "d": 315.78899999999703,
      "v": 76
    },
    {
      "midi": 45,
      "hit": false,
      "t": 48631.505999999965,
      "d": 315.78899999999703,
      "v": 76
    },
    {
      "midi": 57,
      "hit": false,
      "t": 48710.45324999974,
      "d": 78.94724999999744,
      "v": 100
    },
    {
      "midi": 60,
      "hit": false,
      "t": 48789.400499999734,
      "d": 78.94724999999744,
      "v": 100
    },
    {
      "midi": 65,
      "hit": false,
      "t": 48868.34774999973,
      "d": 78.94724999999744,
      "v": 100
    },
    {
      "midi": 69,
      "hit": false,
      "t": 48947.29499999973,
      "d": 78.94724999999744,
      "v": 100
    },
    {
      "midi": 48,
      "hit": false,
      "t": 48947.29499999996,
      "d": 315.78899999999703,
      "v": 76
    },
    {
      "midi": 36,
      "hit": false,
      "t": 48947.29499999996,
      "d": 315.78899999999703,
      "v": 76
    },
    {
      "midi": 72,
      "hit": false,
      "t": 49026.24224999973,
      "d": 78.94724999999744,
      "v": 100
    },
    {
      "midi": 71,
      "hit": false,
      "t": 49105.189499999724,
      "d": 78.94724999999744,
      "v": 100
    },
    {
      "midi": 72,
      "hit": false,
      "t": 49184.13674999972,
      "d": 78.94724999999744,
      "v": 100
    },
    {
      "midi": 76,
      "hit": false,
      "t": 49263.08399999972,
      "d": 78.94724999999744,
      "v": 76
    },
    {
      "midi": 52,
      "hit": false,
      "t": 49263.08399999996,
      "d": 315.78899999999703,
      "v": 85
    },
    {
      "midi": 40,
      "hit": false,
      "t": 49263.08399999996,
      "d": 315.78899999999703,
      "v": 85
    },
    {
      "midi": 71,
      "hit": false,
      "t": 49342.031249999716,
      "d": 78.94724999999744,
      "v": 76
    },
    {
      "midi": 68,
      "hit": false,
      "t": 49420.978499999714,
      "d": 78.94724999999744,
      "v": 76
    },
    {
      "midi": 64,
      "hit": false,
      "t": 49499.92574999971,
      "d": 78.94724999999744,
      "v": 76
    },
    {
      "midi": 68,
      "hit": false,
      "t": 49578.87299999971,
      "d": 78.94724999999744,
      "v": 76
    },
    {
      "midi": 47,
      "hit": false,
      "t": 49578.872999999956,
      "d": 315.78899999999703,
      "v": 85
    },
    {
      "midi": 35,
      "hit": false,
      "t": 49578.872999999956,
      "d": 315.78899999999703,
      "v": 85
    },
    {
      "midi": 71,
      "hit": false,
      "t": 49657.820249999706,
      "d": 78.94724999999744,
      "v": 76
    },
    {
      "midi": 76,
      "hit": false,
      "t": 49736.7674999997,
      "d": 78.94724999999744,
      "v": 76
    },
    {
      "midi": 74,
      "hit": false,
      "t": 49815.7147499997,
      "d": 78.94724999999744,
      "v": 76
    },
    {
      "midi": 76,
      "hit": false,
      "t": 49894.6619999997,
      "d": 78.94724999999744,
      "v": 76
    },
    {
      "midi": 52,
      "hit": false,
      "t": 49894.66199999995,
      "d": 315.78899999999703,
      "v": 85
    },
    {
      "midi": 40,
      "hit": false,
      "t": 49894.66199999995,
      "d": 315.78899999999703,
      "v": 85
    },
    {
      "midi": 71,
      "hit": false,
      "t": 49973.609249999696,
      "d": 78.94724999999744,
      "v": 76
    },
    {
      "midi": 68,
      "hit": false,
      "t": 50052.55649999969,
      "d": 78.94724999999744,
      "v": 76
    },
    {
      "midi": 64,
      "hit": false,
      "t": 50131.50374999969,
      "d": 78.94724999999744,
      "v": 76
    },
    {
      "midi": 68,
      "hit": false,
      "t": 50210.45099999969,
      "d": 78.94724999999744,
      "v": 76
    },
    {
      "midi": 47,
      "hit": false,
      "t": 50210.45099999995,
      "d": 315.78899999999703,
      "v": 85
    },
    {
      "midi": 35,
      "hit": false,
      "t": 50210.45099999995,
      "d": 315.78899999999703,
      "v": 85
    },
    {
      "midi": 71,
      "hit": false,
      "t": 50289.398249999686,
      "d": 78.94724999999744,
      "v": 76
    },
    {
      "midi": 76,
      "hit": false,
      "t": 50368.34549999968,
      "d": 78.94724999999744,
      "v": 76
    },
    {
      "midi": 74,
      "hit": false,
      "t": 50447.29274999968,
      "d": 78.94724999999744,
      "v": 76
    },
    {
      "midi": 76,
      "hit": false,
      "t": 50526.23999999968,
      "d": 78.94724999999744,
      "v": 76
    },
    {
      "midi": 48,
      "hit": false,
      "t": 50526.23999999995,
      "d": 315.78899999999703,
      "v": 85
    },
    {
      "midi": 36,
      "hit": false,
      "t": 50526.23999999995,
      "d": 315.78899999999703,
      "v": 85
    },
    {
      "midi": 72,
      "hit": false,
      "t": 50605.187249999675,
      "d": 78.94724999999744,
      "v": 76
    },
    {
      "midi": 67,
      "hit": false,
      "t": 50684.13449999967,
      "d": 78.94724999999744,
      "v": 76
    },
    {
      "midi": 64,
      "hit": false,
      "t": 50763.08174999967,
      "d": 78.94724999999744,
      "v": 76
    },
    {
      "midi": 67,
      "hit": false,
      "t": 50842.02899999967,
      "d": 78.94724999999744,
      "v": 76
    },
    {
      "midi": 43,
      "hit": false,
      "t": 50842.028999999944,
      "d": 315.78899999999703,
      "v": 85
    },
    {
      "midi": 31,
      "hit": false,
      "t": 50842.028999999944,
      "d": 315.78899999999703,
      "v": 85
    },
    {
      "midi": 72,
      "hit": false,
      "t": 50920.976249999665,
      "d": 78.94724999999744,
      "v": 76
    },
    {
      "midi": 76,
      "hit": false,
      "t": 50999.92349999966,
      "d": 78.94724999999744,
      "v": 76
    },
    {
      "midi": 74,
      "hit": false,
      "t": 51078.87074999966,
      "d": 78.94724999999744,
      "v": 76
    },
    {
      "midi": 76,
      "hit": false,
      "t": 51157.81799999966,
      "d": 78.94724999999744,
      "v": 76
    },
    {
      "midi": 48,
      "hit": false,
      "t": 51157.81799999994,
      "d": 315.78899999999703,
      "v": 85
    },
    {
      "midi": 36,
      "hit": false,
      "t": 51157.81799999994,
      "d": 315.78899999999703,
      "v": 85
    },
    {
      "midi": 72,
      "hit": false,
      "t": 51236.765249999655,
      "d": 78.94724999999744,
      "v": 76
    },
    {
      "midi": 67,
      "hit": false,
      "t": 51315.71249999965,
      "d": 78.94724999999744,
      "v": 76
    },
    {
      "midi": 64,
      "hit": false,
      "t": 51394.65974999965,
      "d": 78.94724999999744,
      "v": 76
    },
    {
      "midi": 67,
      "hit": false,
      "t": 51473.60699999965,
      "d": 78.94724999999744,
      "v": 76
    },
    {
      "midi": 43,
      "hit": false,
      "t": 51473.60699999994,
      "d": 315.78899999999703,
      "v": 85
    },
    {
      "midi": 31,
      "hit": false,
      "t": 51473.60699999994,
      "d": 315.78899999999703,
      "v": 85
    },
    {
      "midi": 72,
      "hit": false,
      "t": 51552.554249999645,
      "d": 78.94724999999744,
      "v": 76
    },
    {
      "midi": 76,
      "hit": false,
      "t": 51631.50149999964,
      "d": 78.94724999999744,
      "v": 76
    },
    {
      "midi": 74,
      "hit": false,
      "t": 51710.44874999964,
      "d": 78.94724999999744,
      "v": 76
    },
    {
      "midi": 76,
      "hit": false,
      "t": 51789.39599999964,
      "d": 78.94724999999744,
      "v": 80
    },
    {
      "midi": 52,
      "hit": false,
      "t": 51789.395999999935,
      "d": 315.78899999999703,
      "v": 85
    },
    {
      "midi": 40,
      "hit": false,
      "t": 51789.395999999935,
      "d": 315.78899999999703,
      "v": 85
    },
    {
      "midi": 71,
      "hit": false,
      "t": 51868.343249999634,
      "d": 78.94724999999744,
      "v": 81
    },
    {
      "midi": 68,
      "hit": false,
      "t": 51947.29049999963,
      "d": 78.94724999999744,
      "v": 82
    },
    {
      "midi": 64,
      "hit": false,
      "t": 52026.23774999963,
      "d": 78.94724999999744,
      "v": 83
    },
    {
      "midi": 68,
      "hit": false,
      "t": 52105.18499999963,
      "d": 78.94724999999744,
      "v": 84
    },
    {
      "midi": 47,
      "hit": false,
      "t": 52105.18499999993,
      "d": 315.78899999999703,
      "v": 89
    },
    {
      "midi": 35,
      "hit": false,
      "t": 52105.18499999993,
      "d": 315.78899999999703,
      "v": 89
    },
    {
      "midi": 71,
      "hit": false,
      "t": 52184.132249999624,
      "d": 78.94724999999744,
      "v": 85
    },
    {
      "midi": 76,
      "hit": false,
      "t": 52263.07949999962,
      "d": 78.94724999999744,
      "v": 86
    },
    {
      "midi": 74,
      "hit": false,
      "t": 52342.02674999962,
      "d": 78.94724999999744,
      "v": 87
    },
    {
      "midi": 76,
      "hit": false,
      "t": 52420.973999999616,
      "d": 78.94724999999744,
      "v": 88
    },
    {
      "midi": 52,
      "hit": false,
      "t": 52420.97399999993,
      "d": 315.78899999999703,
      "v": 93
    },
    {
      "midi": 40,
      "hit": false,
      "t": 52420.97399999993,
      "d": 315.78899999999703,
      "v": 93
    },
    {
      "midi": 71,
      "hit": false,
      "t": 52499.921249999614,
      "d": 78.94724999999744,
      "v": 89
    },
    {
      "midi": 68,
      "hit": false,
      "t": 52578.86849999961,
      "d": 78.94724999999744,
      "v": 90
    },
    {
      "midi": 64,
      "hit": false,
      "t": 52657.81574999961,
      "d": 78.94724999999744,
      "v": 91
    },
    {
      "midi": 68,
      "hit": false,
      "t": 52736.762999999606,
      "d": 78.94724999999744,
      "v": 92
    },
    {
      "midi": 47,
      "hit": false,
      "t": 52736.762999999926,
      "d": 315.78899999999703,
      "v": 97
    },
    {
      "midi": 35,
      "hit": false,
      "t": 52736.762999999926,
      "d": 315.78899999999703,
      "v": 97
    },
    {
      "midi": 71,
      "hit": false,
      "t": 52815.7102499996,
      "d": 78.94724999999744,
      "v": 93
    },
    {
      "midi": 76,
      "hit": false,
      "t": 52894.6574999996,
      "d": 78.94724999999744,
      "v": 94
    },
    {
      "midi": 74,
      "hit": false,
      "t": 52973.6047499996,
      "d": 78.94724999999744,
      "v": 95
    },
    {
      "midi": 76,
      "hit": false,
      "t": 53052.551999999596,
      "d": 78.94724999999744,
      "v": 96
    },
    {
      "midi": 48,
      "hit": false,
      "t": 53052.55199999992,
      "d": 315.78899999999703,
      "v": 101
    },
    {
      "midi": 36,
      "hit": false,
      "t": 53052.55199999992,
      "d": 315.78899999999703,
      "v": 101
    },
    {
      "midi": 72,
      "hit": false,
      "t": 53131.49924999959,
      "d": 78.94724999999744,
      "v": 97
    },
    {
      "midi": 67,
      "hit": false,
      "t": 53210.44649999959,
      "d": 78.94724999999744,
      "v": 98
    },
    {
      "midi": 64,
      "hit": false,
      "t": 53289.39374999959,
      "d": 78.94724999999744,
      "v": 99
    },
    {
      "midi": 67,
      "hit": false,
      "t": 53368.340999999586,
      "d": 78.94724999999744,
      "v": 100
    },
    {
      "midi": 43,
      "hit": false,
      "t": 53368.34099999992,
      "d": 315.78899999999703,
      "v": 105
    },
    {
      "midi": 31,
      "hit": false,
      "t": 53368.34099999992,
      "d": 315.78899999999703,
      "v": 105
    },
    {
      "midi": 72,
      "hit": false,
      "t": 53447.28824999958,
      "d": 78.94724999999744,
      "v": 101
    },
    {
      "midi": 76,
      "hit": false,
      "t": 53526.23549999958,
      "d": 78.94724999999744,
      "v": 102
    },
    {
      "midi": 74,
      "hit": false,
      "t": 53605.18274999958,
      "d": 78.94724999999744,
      "v": 103
    },
    {
      "midi": 76,
      "hit": false,
      "t": 53684.129999999575,
      "d": 78.94724999999744,
      "v": 104
    },
    {
      "midi": 48,
      "hit": false,
      "t": 53684.12999999992,
      "d": 315.78899999999703,
      "v": 109
    },
    {
      "midi": 36,
      "hit": false,
      "t": 53684.12999999992,
      "d": 315.78899999999703,
      "v": 109
    },
    {
      "midi": 72,
      "hit": false,
      "t": 53763.07724999957,
      "d": 78.94724999999744,
      "v": 105
    },
    {
      "midi": 67,
      "hit": false,
      "t": 53842.02449999957,
      "d": 78.94724999999744,
      "v": 106
    },
    {
      "midi": 64,
      "hit": false,
      "t": 53920.97174999957,
      "d": 78.94724999999744,
      "v": 107
    },
    {
      "midi": 67,
      "hit": false,
      "t": 53999.918999999565,
      "d": 78.94724999999744,
      "v": 108
    },
    {
      "midi": 43,
      "hit": false,
      "t": 53999.918999999914,
      "d": 315.78899999999703,
      "v": 113
    },
    {
      "midi": 31,
      "hit": false,
      "t": 53999.918999999914,
      "d": 315.78899999999703,
      "v": 113
    },
    {
      "midi": 72,
      "hit": false,
      "t": 54078.86624999956,
      "d": 78.94724999999744,
      "v": 109
    },
    {
      "midi": 76,
      "hit": false,
      "t": 54157.81349999956,
      "d": 78.94724999999744,
      "v": 110
    },
    {
      "midi": 74,
      "hit": false,
      "t": 54236.76074999956,
      "d": 78.94724999999744,
      "v": 111
    },
    {
      "midi": 64,
      "hit": false,
      "t": 54315.707999999555,
      "d": 78.94725000000471,
      "v": 112
    },
    {
      "midi": 45,
      "hit": false,
      "t": 54315.70799999991,
      "d": 157.89450000000215,
      "v": 110
    },
    {
      "midi": 72,
      "hit": false,
      "t": 54316.36589374956,
      "d": 75.65778125000361,
      "v": 112
    },
    {
      "midi": 76,
      "hit": false,
      "t": 54316.36589374956,
      "d": 75.65778125000361,
      "v": 112
    },
    {
      "midi": 69,
      "hit": false,
      "t": 54316.36589374956,
      "d": 109.86825625000347,
      "v": 112
    },
    {
      "midi": 64,
      "hit": false,
      "t": 54473.60249999956,
      "d": 78.94724999999744,
      "v": 112
    },
    {
      "midi": 69,
      "hit": false,
      "t": 54473.60249999956,
      "d": 78.94724999999744,
      "v": 112
    },
    {
      "midi": 76,
      "hit": false,
      "t": 54473.60249999956,
      "d": 78.94724999999744,
      "v": 112
    },
    {
      "midi": 48,
      "hit": false,
      "t": 54473.60249999991,
      "d": 78.94724999999744,
      "v": 110
    },
    {
      "midi": 40,
      "hit": false,
      "t": 54631.49699999991,
      "d": 157.89450000000215,
      "v": 110
    },
    {
      "midi": 64,
      "hit": false,
      "t": 54789.391499999554,
      "d": 78.94725000000471,
      "v": 112
    },
    {
      "midi": 48,
      "hit": false,
      "t": 54789.39149999991,
      "d": 78.94724999999744,
      "v": 110
    },
    {
      "midi": 76,
      "hit": false,
      "t": 54795.970437499556,
      "d": 68.42094999999972,
      "v": 112
    },
    {
      "midi": 69,
      "hit": false,
      "t": 54795.970437499556,
      "d": 128.94717500000115,
      "v": 112
    },
    {
      "midi": 64,
      "hit": false,
      "t": 54947.285999999556,
      "d": 78.94724999999744,
      "v": 112
    },
    {
      "midi": 45,
      "hit": false,
      "t": 54947.285999999905,
      "d": 157.89450000000215,
      "v": 110
    },
    {
      "midi": 72,
      "hit": false,
      "t": 54953.20704374956,
      "d": 78.94724999999744,
      "v": 112
    },
    {
      "midi": 69,
      "hit": false,
      "t": 55105.18049999955,
      "d": 5.263149999998859,
      "v": 112
    },
    {
      "midi": 64,
      "hit": false,
      "t": 55105.18049999955,
      "d": 78.94724999999744,
      "v": 112
    },
    {
      "midi": 76,
      "hit": false,
      "t": 55105.18049999955,
      "d": 78.94724999999744,
      "v": 112
    },
    {
      "midi": 48,
      "hit": false,
      "t": 55105.18049999991,
      "d": 78.94724999999744,
      "v": 110
    },
    {
      "midi": 40,
      "hit": false,
      "t": 55263.0749999999,
      "d": 157.89450000000215,
      "v": 110
    },
    {
      "midi": 64,
      "hit": false,
      "t": 55420.96949999955,
      "d": 78.94725000000471,
      "v": 112
    },
    {
      "midi": 48,
      "hit": false,
      "t": 55420.969499999905,
      "d": 78.94724999999744,
      "v": 110
    },
    {
      "midi": 76,
      "hit": false,
      "t": 55422.28528749955,
      "d": 67.76305624999804,
      "v": 112
    },
    {
      "midi": 69,
      "hit": false,
      "t": 55422.28528749955,
      "d": 127.6313874999978,
      "v": 112
    },
    {
      "midi": 64,
      "hit": false,
      "t": 55578.86399999955,
      "d": 78.94725000000471,
      "v": 112
    },
    {
      "midi": 44,
      "hit": false,
      "t": 55578.8639999999,
      "d": 157.89450000000215,
      "v": 110
    },
    {
      "midi": 71,
      "hit": false,
      "t": 55579.52189374955,
      "d": 78.94725000000471,
      "v": 112
    },
    {
      "midi": 74,
      "hit": false,
      "t": 55579.52189374955,
      "d": 78.94725000000471,
      "v": 112
    },
    {
      "midi": 64,
      "hit": false,
      "t": 55736.75849999956,
      "d": 78.94724999999744,
      "v": 112
    },
    {
      "midi": 68,
      "hit": false,
      "t": 55736.75849999956,
      "d": 78.94724999999744,
      "v": 112
    },
    {
      "midi": 74,
      "hit": false,
      "t": 55736.75849999956,
      "d": 78.94724999999744,
      "v": 112
    },
    {
      "midi": 47,
      "hit": false,
      "t": 55736.7584999999,
      "d": 78.94724999999744,
      "v": 110
    },
    {
      "midi": 40,
      "hit": false,
      "t": 55894.6529999999,
      "d": 157.89450000000215,
      "v": 110
    },
    {
      "midi": 64,
      "hit": false,
      "t": 56052.54749999956,
      "d": 78.94725000000471,
      "v": 112
    },
    {
      "midi": 47,
      "hit": false,
      "t": 56052.5474999999,
      "d": 78.94724999999744,
      "v": 110
    },
    {
      "midi": 74,
      "hit": false,
      "t": 56059.12643749956,
      "d": 68.42094999999972,
      "v": 112
    },
    {
      "midi": 68,
      "hit": false,
      "t": 56059.12643749956,
      "d": 128.94717500000115,
      "v": 112
    },
    {
      "midi": 64,
      "hit": false,
      "t": 56210.44199999956,
      "d": 78.94724999999744,
      "v": 112
    },
    {
      "midi": 44,
      "hit": false,
      "t": 56210.44199999989,
      "d": 157.89450000000215,
      "v": 110
    },
    {
      "midi": 71,
      "hit": false,
      "t": 56216.36304374956,
      "d": 78.94724999999744,
      "v": 112
    },
    {
      "midi": 68,
      "hit": false,
      "t": 56368.336499999554,
      "d": 5.263149999998859,
      "v": 112
    },
    {
      "midi": 64,
      "hit": false,
      "t": 56368.336499999554,
      "d": 78.94724999999744,
      "v": 112
    },
    {
      "midi": 74,
      "hit": false,
      "t": 56368.336499999554,
      "d": 78.94724999999744,
      "v": 112
    },
    {
      "midi": 47,
      "hit": false,
      "t": 56368.336499999896,
      "d": 78.94724999999744,
      "v": 110
    },
    {
      "midi": 40,
      "hit": false,
      "t": 56526.23099999989,
      "d": 157.89450000000215,
      "v": 110
    },
    {
      "midi": 64,
      "hit": false,
      "t": 56684.12549999955,
      "d": 78.94725000000471,
      "v": 112
    },
    {
      "midi": 47,
      "hit": false,
      "t": 56684.12549999989,
      "d": 78.94724999999744,
      "v": 110
    },
    {
      "midi": 74,
      "hit": false,
      "t": 56685.441287499554,
      "d": 67.76305624999804,
      "v": 112
    },
    {
      "midi": 68,
      "hit": false,
      "t": 56685.441287499554,
      "d": 127.6313874999978,
      "v": 112
    },
    {
      "midi": 64,
      "hit": false,
      "t": 56842.01999999955,
      "d": 78.94725000000471,
      "v": 112
    },
    {
      "midi": 45,
      "hit": false,
      "t": 56842.01999999989,
      "d": 157.89450000000215,
      "v": 110
    },
    {
      "midi": 72,
      "hit": false,
      "t": 56842.677893749555,
      "d": 78.94725000000471,
      "v": 112
    },
    {
      "midi": 69,
      "hit": false,
      "t": 56999.91449999956,
      "d": 9.868406250003318,
      "v": 112
    },
    {
      "midi": 64,
      "hit": false,
      "t": 56999.91449999956,
      "d": 78.94725000000471,
      "v": 112
    },
    {
      "midi": 76,
      "hit": false,
      "t": 56999.91449999956,
      "d": 78.94725000000471,
      "v": 112
    },
    {
      "midi": 48,
      "hit": false,
      "t": 56999.91449999989,
      "d": 78.94724999999744,
      "v": 110
    },
    {
      "midi": 40,
      "hit": false,
      "t": 57157.808999999885,
      "d": 157.89450000000215,
      "v": 110
    },
    {
      "midi": 64,
      "hit": false,
      "t": 57315.70349999957,
      "d": 78.94725000000471,
      "v": 112
    },
    {
      "midi": 48,
      "hit": false,
      "t": 57315.70349999989,
      "d": 78.94724999999744,
      "v": 110
    },
    {
      "midi": 76,
      "hit": false,
      "t": 57322.28243749957,
      "d": 68.42094999999972,
      "v": 112
    },
    {
      "midi": 69,
      "hit": false,
      "t": 57322.28243749957,
      "d": 128.94717500000115,
      "v": 112
    },
    {
      "midi": 64,
      "hit": false,
      "t": 57473.59799999957,
      "d": 78.94724999999744,
      "v": 112
    },
    {
      "midi": 45,
      "hit": false,
      "t": 57473.59799999988,
      "d": 157.89450000000215,
      "v": 110
    },
    {
      "midi": 69,
      "hit": false,
      "t": 57631.492499999564,
      "d": 5.263149999998859,
      "v": 112
    },
    {
      "midi": 64,
      "hit": false,
      "t": 57631.492499999564,
      "d": 78.94724999999744,
      "v": 112
    },
    {
      "midi": 76,
      "hit": false,
      "t": 57631.492499999564,
      "d": 78.94724999999744,
      "v": 112
    },
    {
      "midi": 48,
      "hit": false,
      "t": 57631.492499999884,
      "d": 78.94724999999744,
      "v": 110
    },
    {
      "midi": 40,
      "hit": false,
      "t": 57789.38699999988,
      "d": 157.89450000000215,
      "v": 110
    },
    {
      "midi": 64,
      "hit": false,
      "t": 57947.28149999956,
      "d": 78.94725000000471,
      "v": 112
    },
    {
      "midi": 48,
      "hit": false,
      "t": 57947.28149999988,
      "d": 78.94724999999744,
      "v": 110
    },
    {
      "midi": 76,
      "hit": false,
      "t": 57948.597287499564,
      "d": 67.76305624999804,
      "v": 112
    },
    {
      "midi": 69,
      "hit": false,
      "t": 57948.597287499564,
      "d": 127.6313874999978,
      "v": 112
    },
    {
      "midi": 64,
      "hit": false,
      "t": 58105.17599999956,
      "d": 78.94725000000471,
      "v": 112
    },
    {
      "midi": 74,
      "hit": false,
      "t": 58105.17599999956,
      "d": 78.94725000000471,
      "v": 112
    },
    {
      "midi": 44,
      "hit": false,
      "t": 58105.175999999876,
      "d": 157.89450000000215,
      "v": 110
    },
    {
      "midi": 68,
      "hit": false,
      "t": 58105.833893749565,
      "d": 167.1050125000038,
      "v": 112
    },
    {
      "midi": 64,
      "hit": false,
      "t": 58263.070499999565,
      "d": 78.94725000000471,
      "v": 112
    },
    {
      "midi": 76,
      "hit": false,
      "t": 58263.070499999565,
      "d": 78.94725000000471,
      "v": 112
    },
    {
      "midi": 47,
      "hit": false,
      "t": 58263.07049999988,
      "d": 78.94724999999744,
      "v": 110
    },
    {
      "midi": 40,
      "hit": false,
      "t": 58420.96499999987,
      "d": 157.89450000000215,
      "v": 110
    },
    {
      "midi": 64,
      "hit": false,
      "t": 58578.85949999957,
      "d": 78.94725000000471,
      "v": 112
    },
    {
      "midi": 47,
      "hit": false,
      "t": 58578.859499999875,
      "d": 78.94724999999744,
      "v": 110
    },
    {
      "midi": 76,
      "hit": false,
      "t": 58585.43843749957,
      "d": 68.42094999999972,
      "v": 112
    },
    {
      "midi": 68,
      "hit": false,
      "t": 58585.43843749957,
      "d": 128.94717500000115,
      "v": 112
    },
    {
      "midi": 64,
      "hit": false,
      "t": 58736.75399999957,
      "d": 78.94724999999744,
      "v": 112
    },
    {
      "midi": 44,
      "hit": false,
      "t": 58736.75399999987,
      "d": 157.89450000000215,
      "v": 110
    },
    {
      "midi": 71,
      "hit": false,
      "t": 58742.67504374957,
      "d": 78.94724999999744,
      "v": 112
    },
    {
      "midi": 68,
      "hit": false,
      "t": 58894.64849999957,
      "d": 5.263149999998859,
      "v": 112
    },
    {
      "midi": 64,
      "hit": false,
      "t": 58894.64849999957,
      "d": 78.94724999999744,
      "v": 112
    },
    {
      "midi": 76,
      "hit": false,
      "t": 58894.64849999957,
      "d": 78.94724999999744,
      "v": 112
    },
    {
      "midi": 47,
      "hit": false,
      "t": 58894.64849999987,
      "d": 78.94724999999744,
      "v": 110
    },
    {
      "midi": 40,
      "hit": false,
      "t": 59052.54299999987,
      "d": 157.89450000000215,
      "v": 110
    },
    {
      "midi": 64,
      "hit": false,
      "t": 59210.43749999956,
      "d": 78.94725000000471,
      "v": 112
    },
    {
      "midi": 47,
      "hit": false,
      "t": 59210.43749999987,
      "d": 78.94724999999744,
      "v": 110
    },
    {
      "midi": 76,
      "hit": false,
      "t": 59211.75328749957,
      "d": 67.76305624999804,
      "v": 112
    },
    {
      "midi": 68,
      "hit": false,
      "t": 59211.75328749957,
      "d": 127.6313874999978,
      "v": 112
    },
    {
      "midi": 64,
      "hit": false,
      "t": 59368.331999999566,
      "d": 78.94725000000471,
      "v": 112
    },
    {
      "midi": 45,
      "hit": false,
      "t": 59368.331999999864,
      "d": 157.89450000000215,
      "v": 110
    },
    {
      "midi": 72,
      "hit": false,
      "t": 59368.98989374957,
      "d": 78.94725000000471,
      "v": 112
    },
    {
      "midi": 76,
      "hit": false,
      "t": 59368.98989374957,
      "d": 78.94725000000471,
      "v": 112
    },
    {
      "midi": 64,
      "hit": false,
      "t": 59526.226499999575,
      "d": 78.94724999999744,
      "v": 112
    },
    {
      "midi": 69,
      "hit": false,
      "t": 59526.226499999575,
      "d": 78.94724999999744,
      "v": 112
    },
    {
      "midi": 76,
      "hit": false,
      "t": 59526.226499999575,
      "d": 78.94724999999744,
      "v": 112
    },
    {
      "midi": 48,
      "hit": false,
      "t": 59526.226499999866,
      "d": 78.94724999999744,
      "v": 110
    },
    {
      "midi": 40,
      "hit": false,
      "t": 59684.12099999986,
      "d": 157.89450000000215,
      "v": 110
    },
    {
      "midi": 64,
      "hit": false,
      "t": 59842.01549999957,
      "d": 78.94725000000471,
      "v": 112
    },
    {
      "midi": 48,
      "hit": false,
      "t": 59842.01549999986,
      "d": 78.94724999999744,
      "v": 110
    },
    {
      "midi": 76,
      "hit": false,
      "t": 59848.594437499574,
      "d": 68.42094999999972,
      "v": 112
    },
    {
      "midi": 69,
      "hit": false,
      "t": 59848.594437499574,
      "d": 128.94717500000115,
      "v": 112
    },
    {
      "midi": 64,
      "hit": false,
      "t": 59999.909999999574,
      "d": 78.94724999999744,
      "v": 112
    },
    {
      "midi": 45,
      "hit": false,
      "t": 59999.90999999986,
      "d": 157.89450000000215,
      "v": 110
    },
    {
      "midi": 72,
      "hit": false,
      "t": 60005.831043749575,
      "d": 78.94724999999744,
      "v": 112
    },
    {
      "midi": 69,
      "hit": false,
      "t": 60157.80449999957,
      "d": 5.263149999998859,
      "v": 112
    },
    {
      "midi": 64,
      "hit": false,
      "t": 60157.80449999957,
      "d": 78.94724999999744,
      "v": 112
    },
    {
      "midi": 76,
      "hit": false,
      "t": 60157.80449999957,
      "d": 78.94724999999744,
      "v": 112
    },
    {
      "midi": 48,
      "hit": false,
      "t": 60157.80449999986,
      "d": 78.94724999999744,
      "v": 110
    },
    {
      "midi": 40,
      "hit": false,
      "t": 60315.698999999855,
      "d": 157.89450000000215,
      "v": 110
    },
    {
      "midi": 64,
      "hit": false,
      "t": 60473.593499999566,
      "d": 78.94725000000471,
      "v": 112
    },
    {
      "midi": 48,
      "hit": false,
      "t": 60473.59349999986,
      "d": 78.94724999999744,
      "v": 110
    },
    {
      "midi": 76,
      "hit": false,
      "t": 60474.90928749957,
      "d": 67.76305624999804,
      "v": 112
    },
    {
      "midi": 69,
      "hit": false,
      "t": 60474.90928749957,
      "d": 127.6313874999978,
      "v": 112
    },
    {
      "midi": 64,
      "hit": false,
      "t": 60631.48799999957,
      "d": 78.94725000000471,
      "v": 112
    },
    {
      "midi": 44,
      "hit": false,
      "t": 60631.48799999985,
      "d": 157.89450000000215,
      "v": 110
    },
    {
      "midi": 71,
      "hit": false,
      "t": 60632.14589374957,
      "d": 78.94725000000471,
      "v": 112
    },
    {
      "midi": 74,
      "hit": false,
      "t": 60632.14589374957,
      "d": 78.94725000000471,
      "v": 112
    },
    {
      "midi": 64,
      "hit": false,
      "t": 60789.38249999958,
      "d": 78.94724999999744,
      "v": 112
    },
    {
      "midi": 68,
      "hit": false,
      "t": 60789.38249999958,
      "d": 78.94724999999744,
      "v": 112
    },
    {
      "midi": 74,
      "hit": false,
      "t": 60789.38249999958,
      "d": 78.94724999999744,
      "v": 112
    },
    {
      "midi": 47,
      "hit": false,
      "t": 60789.382499999854,
      "d": 78.94724999999744,
      "v": 110
    },
    {
      "midi": 40,
      "hit": false,
      "t": 60947.27699999985,
      "d": 157.89450000000215,
      "v": 110
    },
    {
      "midi": 64,
      "hit": false,
      "t": 61105.171499999575,
      "d": 78.94725000000471,
      "v": 112
    },
    {
      "midi": 47,
      "hit": false,
      "t": 61105.17149999985,
      "d": 78.94724999999744,
      "v": 110
    },
    {
      "midi": 74,
      "hit": false,
      "t": 61111.75043749958,
      "d": 68.42094999999972,
      "v": 112
    },
    {
      "midi": 68,
      "hit": false,
      "t": 61111.75043749958,
      "d": 128.94717500000115,
      "v": 112
    },
    {
      "midi": 64,
      "hit": false,
      "t": 61263.06599999958,
      "d": 78.94724999999744,
      "v": 112
    },
    {
      "midi": 44,
      "hit": false,
      "t": 61263.065999999846,
      "d": 157.89450000000215,
      "v": 110
    },
    {
      "midi": 71,
      "hit": false,
      "t": 61268.98704374958,
      "d": 78.94724999999744,
      "v": 112
    },
    {
      "midi": 68,
      "hit": false,
      "t": 61420.96049999957,
      "d": 5.263149999998859,
      "v": 112
    },
    {
      "midi": 64,
      "hit": false,
      "t": 61420.96049999957,
      "d": 78.94724999999744,
      "v": 112
    },
    {
      "midi": 74,
      "hit": false,
      "t": 61420.96049999957,
      "d": 78.94724999999744,
      "v": 112
    },
    {
      "midi": 47,
      "hit": false,
      "t": 61420.96049999985,
      "d": 78.94724999999744,
      "v": 110
    },
    {
      "midi": 40,
      "hit": false,
      "t": 61578.85499999984,
      "d": 157.89450000000215,
      "v": 110
    },
    {
      "midi": 64,
      "hit": false,
      "t": 61736.74949999957,
      "d": 78.94725000000471,
      "v": 112
    },
    {
      "midi": 47,
      "hit": false,
      "t": 61736.749499999845,
      "d": 78.94724999999744,
      "v": 110
    },
    {
      "midi": 74,
      "hit": false,
      "t": 61738.06528749957,
      "d": 67.76305624999804,
      "v": 112
    },
    {
      "midi": 68,
      "hit": false,
      "t": 61738.06528749957,
      "d": 127.6313874999978,
      "v": 112
    },
    {
      "midi": 64,
      "hit": false,
      "t": 61894.64399999957,
      "d": 78.94725000000471,
      "v": 112
    },
    {
      "midi": 45,
      "hit": false,
      "t": 61894.64399999984,
      "d": 157.89450000000215,
      "v": 110
    },
    {
      "midi": 72,
      "hit": false,
      "t": 61895.30189374957,
      "d": 78.94725000000471,
      "v": 112
    },
    {
      "midi": 69,
      "hit": false,
      "t": 62052.53849999958,
      "d": 9.868406250003318,
      "v": 112
    },
    {
      "midi": 64,
      "hit": false,
      "t": 62052.53849999958,
      "d": 78.94725000000471,
      "v": 112
    },
    {
      "midi": 76,
      "hit": false,
      "t": 62052.53849999958,
      "d": 78.94725000000471,
      "v": 112
    },
    {
      "midi": 48,
      "hit": false,
      "t": 62052.53849999984,
      "d": 78.94724999999744,
      "v": 110
    },
    {
      "midi": 64,
      "hit": false,
      "t": 62210.43299999958,
      "d": 78.94725000000471,
      "v": 112
    },
    {
      "midi": 72,
      "hit": false,
      "t": 62210.43299999958,
      "d": 157.89450000000215,
      "v": 112
    },
    {
      "midi": 40,
      "hit": false,
      "t": 62210.43299999984,
      "d": 157.89450000000215,
      "v": 110
    },
    {
      "midi": 76,
      "hit": false,
      "t": 62368.327499999585,
      "d": 6.578937500002212,
      "v": 112
    },
    {
      "midi": 64,
      "hit": false,
      "t": 62368.327499999585,
      "d": 78.94725000000471,
      "v": 112
    },
    {
      "midi": 69,
      "hit": false,
      "t": 62368.327499999585,
      "d": 78.94725000000471,
      "v": 112
    },
    {
      "midi": 72,
      "hit": false,
      "t": 62368.327499999585,
      "d": 78.94725000000471,
      "v": 112
    },
    {
      "midi": 48,
      "hit": false,
      "t": 62368.32749999984,
      "d": 78.94724999999744,
      "v": 110
    },
    {
      "midi": 45,
      "hit": false,
      "t": 62526.221999999834,
      "d": 157.89450000000215,
      "v": 110
    },
    {
      "midi": 76,
      "hit": false,
      "t": 62532.14304374959,
      "d": 157.23660625000048,
      "v": 112
    },
    {
      "midi": 81,
      "hit": false,
      "t": 62684.11649999959,
      "d": 84.86829374999797,
      "v": 112
    },
    {
      "midi": 48,
      "hit": false,
      "t": 62684.11649999984,
      "d": 78.94724999999744,
      "v": 110
    },
    {
      "midi": 76,
      "hit": false,
      "t": 62689.37964999959,
      "d": 67.10516249999637,
      "v": 112
    },
    {
      "midi": 64,
      "hit": false,
      "t": 62842.010999999584,
      "d": 157.89450000000215,
      "v": 112
    },
    {
      "midi": 40,
      "hit": false,
      "t": 62842.01099999983,
      "d": 157.89450000000215,
      "v": 110
    },
    {
      "midi": 64,
      "hit": false,
      "t": 62999.905499999586,
      "d": 78.94724999999744,
      "v": 112
    },
    {
      "midi": 69,
      "hit": false,
      "t": 62999.905499999586,
      "d": 78.94724999999744,
      "v": 112
    },
    {
      "midi": 76,
      "hit": false,
      "t": 62999.905499999586,
      "d": 78.94724999999744,
      "v": 112
    },
    {
      "midi": 48,
      "hit": false,
      "t": 62999.90549999983,
      "d": 78.94724999999744,
      "v": 110
    },
    {
      "midi": 64,
      "hit": false,
      "t": 63157.79999999958,
      "d": 157.89450000000215,
      "v": 64
    },
    {
      "midi": 80,
      "hit": false,
      "t": 63157.79999999958,
      "d": 1263.1559999999881,
      "v": 112
    },
    {
      "midi": 40,
      "hit": false,
      "t": 63158.45789374983,
      "d": 315.13110625000263,
      "v": 115
    },
    {
      "midi": 52,
      "hit": false,
      "t": 63158.45789374983,
      "d": 315.13110625000263,
      "v": 115
    },
    {
      "midi": 68,
      "hit": false,
      "t": 63315.69449999958,
      "d": 78.94724999999744,
      "v": 64
    },
    {
      "midi": 74,
      "hit": false,
      "t": 63315.69449999958,
      "d": 78.94724999999744,
      "v": 64
    },
    {
      "midi": 64,
      "hit": false,
      "t": 63473.58899999958,
      "d": 157.89450000000215,
      "v": 64
    },
    {
      "midi": 40,
      "hit": false,
      "t": 63482.799512499834,
      "d": 227.63123749999795,
      "v": 115
    },
    {
      "midi": 52,
      "hit": false,
      "t": 63482.799512499834,
      "d": 227.63123749999795,
      "v": 115
    },
    {
      "midi": 68,
      "hit": false,
      "t": 63631.48349999958,
      "d": 78.94724999999744,
      "v": 64
    },
    {
      "midi": 74,
      "hit": false,
      "t": 63631.48349999958,
      "d": 78.94724999999744,
      "v": 64
    },
    {
      "midi": 38,
      "hit": false,
      "t": 63715.03600624983,
      "d": 74.34199375000026,
      "v": 115
    },
    {
      "midi": 50,
      "hit": false,
      "t": 63715.03600624983,
      "d": 74.34199375000026,
      "v": 115
    },
    {
      "midi": 64,
      "hit": false,
      "t": 63789.377999999575,
      "d": 157.89450000000215,
      "v": 64
    },
    {
      "midi": 40,
      "hit": false,
      "t": 63795.29904374983,
      "d": 151.97345625000162,
      "v": 115
    },
    {
      "midi": 52,
      "hit": false,
      "t": 63795.29904374983,
      "d": 151.97345625000162,
      "v": 115
    },
    {
      "midi": 68,
      "hit": false,
      "t": 63947.27249999958,
      "d": 78.94724999999744,
      "v": 64
    },
    {
      "midi": 74,
      "hit": false,
      "t": 63947.27249999958,
      "d": 78.94724999999744,
      "v": 64
    },
    {
      "midi": 38,
      "hit": false,
      "t": 63952.53564999983,
      "d": 152.6313500000033,
      "v": 115
    },
    {
      "midi": 50,
      "hit": false,
      "t": 63952.53564999983,
      "d": 152.6313500000033,
      "v": 115
    },
    {
      "midi": 64,
      "hit": false,
      "t": 64105.16699999957,
      "d": 157.89450000000215,
      "v": 64
    },
    {
      "midi": 36,
      "hit": false,
      "t": 64108.456468749835,
      "d": 154.60503125000105,
      "v": 115
    },
    {
      "midi": 48,
      "hit": false,
      "t": 64108.456468749835,
      "d": 154.60503125000105,
      "v": 115
    },
    {
      "midi": 68,
      "hit": false,
      "t": 64263.061499999574,
      "d": 78.94724999999744,
      "v": 64
    },
    {
      "midi": 74,
      "hit": false,
      "t": 64263.061499999574,
      "d": 78.94724999999744,
      "v": 64
    },
    {
      "midi": 35,
      "hit": false,
      "t": 64264.37728749984,
      "d": 156.5787124999988,
      "v": 115
    },
    {
      "midi": 47,
      "hit": false,
      "t": 64264.37728749984,
      "d": 156.5787124999988,
      "v": 115
    },
    {
      "midi": 64,
      "hit": false,
      "t": 64420.95599999957,
      "d": 157.89450000000215,
      "v": 64
    },
    {
      "midi": 40,
      "hit": false,
      "t": 64421.61389374984,
      "d": 315.13110625000263,
      "v": 118
    },
    {
      "midi": 52,
      "hit": false,
      "t": 64421.61389374984,
      "d": 315.13110625000263,
      "v": 118
    },
    {
      "midi": 68,
      "hit": false,
      "t": 64578.85049999957,
      "d": 78.94724999999744,
      "v": 64
    },
    {
      "midi": 74,
      "hit": false,
      "t": 64578.85049999957,
      "d": 78.94724999999744,
      "v": 64
    },
    {
      "midi": 64,
      "hit": false,
      "t": 64736.744999999566,
      "d": 157.89450000000215,
      "v": 64
    },
    {
      "midi": 40,
      "hit": false,
      "t": 64745.955512499844,
      "d": 227.63123749999795,
      "v": 118
    },
    {
      "midi": 52,
      "hit": false,
      "t": 64745.955512499844,
      "d": 227.63123749999795,
      "v": 118
    },
    {
      "midi": 68,
      "hit": false,
      "t": 64894.63949999957,
      "d": 78.94724999999744,
      "v": 64
    },
    {
      "midi": 74,
      "hit": false,
      "t": 64894.63949999957,
      "d": 78.94724999999744,
      "v": 64
    },
    {
      "midi": 38,
      "hit": false,
      "t": 64978.19200624984,
      "d": 74.34199375000026,
      "v": 118
    },
    {
      "midi": 50,
      "hit": false,
      "t": 64978.19200624984,
      "d": 74.34199375000026,
      "v": 118
    },
    {
      "midi": 64,
      "hit": false,
      "t": 65052.53399999956,
      "d": 157.89450000000215,
      "v": 64
    },
    {
      "midi": 40,
      "hit": false,
      "t": 65058.45504374984,
      "d": 151.97345625000162,
      "v": 118
    },
    {
      "midi": 52,
      "hit": false,
      "t": 65058.45504374984,
      "d": 151.97345625000162,
      "v": 118
    },
    {
      "midi": 68,
      "hit": false,
      "t": 65210.428499999565,
      "d": 78.94724999999744,
      "v": 64
    },
    {
      "midi": 74,
      "hit": false,
      "t": 65210.428499999565,
      "d": 78.94724999999744,
      "v": 64
    },
    {
      "midi": 38,
      "hit": false,
      "t": 65215.69164999984,
      "d": 152.6313500000033,
      "v": 118
    },
    {
      "midi": 50,
      "hit": false,
      "t": 65215.69164999984,
      "d": 152.6313500000033,
      "v": 118
    },
    {
      "midi": 64,
      "hit": false,
      "t": 65368.32299999956,
      "d": 157.89450000000215,
      "v": 64
    },
    {
      "midi": 36,
      "hit": false,
      "t": 65371.612468749845,
      "d": 154.60503125000105,
      "v": 118
    },
    {
      "midi": 48,
      "hit": false,
      "t": 65371.612468749845,
      "d": 154.60503125000105,
      "v": 118
    },
    {
      "midi": 68,
      "hit": false,
      "t": 65526.21749999956,
      "d": 78.94724999999744,
      "v": 64
    },
    {
      "midi": 74,
      "hit": false,
      "t": 65526.21749999956,
      "d": 78.94724999999744,
      "v": 64
    },
    {
      "midi": 35,
      "hit": false,
      "t": 65527.53328749985,
      "d": 156.5787124999988,
      "v": 118
    },
    {
      "midi": 47,
      "hit": false,
      "t": 65527.53328749985,
      "d": 156.5787124999988,
      "v": 118
    },
    {
      "midi": 64,
      "hit": false,
      "t": 65684.11199999956,
      "d": 157.89449999999488,
      "v": 64
    },
    {
      "midi": 40,
      "hit": false,
      "t": 65684.76989374985,
      "d": 315.13110625000263,
      "v": 121
    },
    {
      "midi": 52,
      "hit": false,
      "t": 65684.76989374985,
      "d": 315.13110625000263,
      "v": 121
    },
    {
      "midi": 68,
      "hit": false,
      "t": 65842.00649999955,
      "d": 78.94724999999744,
      "v": 64
    },
    {
      "midi": 74,
      "hit": false,
      "t": 65842.00649999955,
      "d": 78.94724999999744,
      "v": 64
    },
    {
      "midi": 64,
      "hit": false,
      "t": 65999.90099999955,
      "d": 157.89449999999488,
      "v": 64
    },
    {
      "midi": 40,
      "hit": false,
      "t": 66009.11151249985,
      "d": 227.63123749999795,
      "v": 121
    },
    {
      "midi": 52,
      "hit": false,
      "t": 66009.11151249985,
      "d": 227.63123749999795,
      "v": 121
    },
    {
      "midi": 68,
      "hit": false,
      "t": 66157.79549999954,
      "d": 78.94724999999744,
      "v": 64
    },
    {
      "midi": 74,
      "hit": false,
      "t": 66157.79549999954,
      "d": 78.94724999999744,
      "v": 64
    },
    {
      "midi": 38,
      "hit": false,
      "t": 66241.34800624984,
      "d": 74.34199375000026,
      "v": 121
    },
    {
      "midi": 50,
      "hit": false,
      "t": 66241.34800624984,
      "d": 74.34199375000026,
      "v": 121
    },
    {
      "midi": 64,
      "hit": false,
      "t": 66315.68999999954,
      "d": 157.89449999999488,
      "v": 64
    },
    {
      "midi": 40,
      "hit": false,
      "t": 66321.61104374984,
      "d": 151.97345624999434,
      "v": 121
    },
    {
      "midi": 52,
      "hit": false,
      "t": 66321.61104374984,
      "d": 151.97345624999434,
      "v": 121
    },
    {
      "midi": 68,
      "hit": false,
      "t": 66473.58449999953,
      "d": 78.94724999999744,
      "v": 64
    },
    {
      "midi": 74,
      "hit": false,
      "t": 66473.58449999953,
      "d": 78.94724999999744,
      "v": 64
    },
    {
      "midi": 38,
      "hit": false,
      "t": 66478.84764999984,
      "d": 152.63134999999602,
      "v": 121
    },
    {
      "midi": 50,
      "hit": false,
      "t": 66478.84764999984,
      "d": 152.63134999999602,
      "v": 121
    },
    {
      "midi": 64,
      "hit": false,
      "t": 66631.47899999953,
      "d": 157.89449999999488,
      "v": 64
    },
    {
      "midi": 36,
      "hit": false,
      "t": 66634.76846874983,
      "d": 154.60503125000105,
      "v": 121
    },
    {
      "midi": 48,
      "hit": false,
      "t": 66634.76846874983,
      "d": 154.60503125000105,
      "v": 121
    },
    {
      "midi": 68,
      "hit": false,
      "t": 66789.37349999952,
      "d": 78.94724999999744,
      "v": 64
    },
    {
      "midi": 74,
      "hit": false,
      "t": 66789.37349999952,
      "d": 78.94724999999744,
      "v": 64
    },
    {
      "midi": 35,
      "hit": false,
      "t": 66790.68928749983,
      "d": 156.57871250000608,
      "v": 121
    },
    {
      "midi": 47,
      "hit": false,
      "t": 66790.68928749983,
      "d": 156.57871250000608,
      "v": 121
    },
    {
      "midi": 64,
      "hit": false,
      "t": 66947.26799999952,
      "d": 157.89449999999488,
      "v": 64
    },
    {
      "midi": 40,
      "hit": false,
      "t": 66947.92589374984,
      "d": 315.13110625000263,
      "v": 124
    },
    {
      "midi": 52,
      "hit": false,
      "t": 66947.92589374984,
      "d": 315.13110625000263,
      "v": 124
    },
    {
      "midi": 68,
      "hit": false,
      "t": 67105.16249999951,
      "d": 78.94724999999744,
      "v": 64
    },
    {
      "midi": 74,
      "hit": false,
      "t": 67105.16249999951,
      "d": 78.94724999999744,
      "v": 64
    },
    {
      "midi": 64,
      "hit": false,
      "t": 67263.0569999995,
      "d": 157.89449999999488,
      "v": 64
    },
    {
      "midi": 40,
      "hit": false,
      "t": 67272.26751249983,
      "d": 227.63123749999795,
      "v": 124
    },
    {
      "midi": 52,
      "hit": false,
      "t": 67272.26751249983,
      "d": 227.63123749999795,
      "v": 124
    },
    {
      "midi": 68,
      "hit": false,
      "t": 67420.9514999995,
      "d": 78.94724999999744,
      "v": 64
    },
    {
      "midi": 74,
      "hit": false,
      "t": 67420.9514999995,
      "d": 78.94724999999744,
      "v": 64
    },
    {
      "midi": 38,
      "hit": false,
      "t": 67504.50400624983,
      "d": 74.34199375000026,
      "v": 124
    },
    {
      "midi": 50,
      "hit": false,
      "t": 67504.50400624983,
      "d": 74.34199375000026,
      "v": 124
    },
    {
      "midi": 64,
      "hit": false,
      "t": 67578.8459999995,
      "d": 157.89449999999488,
      "v": 64
    },
    {
      "midi": 40,
      "hit": false,
      "t": 67584.76704374983,
      "d": 151.97345624999434,
      "v": 124
    },
    {
      "midi": 52,
      "hit": false,
      "t": 67584.76704374983,
      "d": 151.97345624999434,
      "v": 124
    },
    {
      "midi": 68,
      "hit": false,
      "t": 67736.74049999949,
      "d": 78.94724999999744,
      "v": 64
    },
    {
      "midi": 74,
      "hit": false,
      "t": 67736.74049999949,
      "d": 78.94724999999744,
      "v": 64
    },
    {
      "midi": 38,
      "hit": false,
      "t": 67742.00364999982,
      "d": 152.63134999999602,
      "v": 124
    },
    {
      "midi": 50,
      "hit": false,
      "t": 67742.00364999982,
      "d": 152.63134999999602,
      "v": 124
    },
    {
      "midi": 64,
      "hit": false,
      "t": 67894.63499999949,
      "d": 157.89449999999488,
      "v": 64
    },
    {
      "midi": 36,
      "hit": false,
      "t": 67897.92446874981,
      "d": 154.60503125000105,
      "v": 124
    },
    {
      "midi": 48,
      "hit": false,
      "t": 67897.92446874981,
      "d": 154.60503125000105,
      "v": 124
    },
    {
      "midi": 68,
      "hit": false,
      "t": 68052.52949999948,
      "d": 78.94724999999744,
      "v": 64
    },
    {
      "midi": 74,
      "hit": false,
      "t": 68052.52949999948,
      "d": 78.94724999999744,
      "v": 64
    },
    {
      "midi": 35,
      "hit": false,
      "t": 68053.84528749982,
      "d": 156.57871250000608,
      "v": 124
    },
    {
      "midi": 47,
      "hit": false,
      "t": 68053.84528749982,
      "d": 156.57871250000608,
      "v": 124
    },
    {
      "midi": 81,
      "hit": false,
      "t": 68210.42399999948,
      "d": 157.89450000000943,
      "v": 127
    },
    {
      "midi": 33,
      "hit": false,
      "t": 68210.42399999982,
      "d": 157.89450000000943,
      "v": 127
    },
    {
      "midi": 72,
      "hit": false,
      "t": 68211.08189374948,
      "d": 154.60503125000105,
      "v": 127
    },
    {
      "midi": 76,
      "hit": false,
      "t": 68211.08189374948,
      "d": 154.60503125000105,
      "v": 127
    },
    {
      "midi": 69,
      "hit": false,
      "t": 68211.08189374948,
      "d": 173.02605625000433,
      "v": 127
    },
    {
      "midi": 45,
      "hit": false,
      "t": 68211.08189374983,
      "d": 154.60503125000105,
      "v": 127
    },
    {
      "midi": 33,
      "hit": false,
      "t": 68690.68643749984,
      "d": 70.39463125000475,
      "v": 127
    },
    {
      "midi": 45,
      "hit": false,
      "t": 68690.68643749984,
      "d": 70.39463125000475,
      "v": 127
    },
    {
      "midi": 33,
      "hit": false,
      "t": 68767.66000624985,
      "d": 74.34199375000026,
      "v": 127
    },
    {
      "midi": 45,
      "hit": false,
      "t": 68767.66000624985,
      "d": 74.34199375000026,
      "v": 127
    },
    {
      "midi": 33,
      "hit": false,
      "t": 68842.00199999985,
      "d": 315.7890000000043,
      "v": 127
    },
    {
      "midi": 45,
      "hit": false,
      "t": 68842.00199999985,
      "d": 315.7890000000043,
      "v": 127
    },
    {
      "midi": 81,
      "hit": false,
      "t": 69157.79099999949,
      "d": 315.7890000000043,
      "v": 127
    },
    {
      "midi": 69,
      "hit": false,
      "t": 69157.79099999949,
      "d": 315.7890000000043,
      "v": 127
    },
    {
      "midi": 45,
      "hit": false,
      "t": 69157.79099999985,
      "d": 315.7890000000043,
      "v": 127
    },
    {
      "midi": 33,
      "hit": false,
      "t": 69157.79099999985,
      "d": 315.7890000000043,
      "v": 127
    },
    {
      "midi": 40,
      "hit": false,
      "t": 69157.79099999985,
      "d": 315.7890000000043,
      "v": 127
    }
  ]
}