{
  "jsonPath": "Soundtracks/Video Game Music/Final Fantasy 2/final-fantasy-2-prologue.json",
  "path": "Soundtracks\\Video Game Music\\Final Fantasy 2\\Final_Fantasy_2_Prologue.mid",
  "name": "Final_Fantasy_2_Prologue",
  "difficulty": "Advanced",
  "bpm": 96,
  "notes": [
    {
      "midi": 65,
      "hit": false,
      "t": 0,
      "d": 471.69749999999993,
      "v": 60
    },
    {
      "midi": 70,
      "hit": false,
      "t": 566.0369999999999,
      "d": 471.6974999999999,
      "v": 60
    },
    {
      "midi": 72,
      "hit": false,
      "t": 1132.0739999999998,
      "d": 471.6975,
      "v": 60
    },
    {
      "midi": 65,
      "hit": false,
      "t": 1698.1109999999999,
      "d": 471.69749999999976,
      "v": 60
    },
    {
      "midi": 75,
      "hit": false,
      "t": 2264.1479999999997,
      "d": 990.56475,
      "v": 60
    },
    {
      "midi": 74,
      "hit": false,
      "t": 3396.2219999999998,
      "d": 471.69749999999976,
      "v": 60
    },
    {
      "midi": 72,
      "hit": false,
      "t": 3962.2589999999996,
      "d": 471.69749999999976,
      "v": 60
    },
    {
      "midi": 70,
      "hit": false,
      "t": 4528.295999999999,
      "d": 471.6975000000002,
      "v": 60
    },
    {
      "midi": 69,
      "hit": false,
      "t": 5094.333,
      "d": 277.12228125,
      "v": 60
    },
    {
      "midi": 70,
      "hit": false,
      "t": 5377.3515,
      "d": 277.12228125,
      "v": 60
    },
    {
      "midi": 72,
      "hit": false,
      "t": 5660.37,
      "d": 471.6975000000002,
      "v": 60
    },
    {
      "midi": 70,
      "hit": false,
      "t": 6226.407,
      "d": 471.6975000000002,
      "v": 60
    },
    {
      "midi": 70,
      "hit": false,
      "t": 6792.444,
      "d": 990.5647499999995,
      "v": 60
    },
    {
      "midi": 69,
      "hit": false,
      "t": 7924.518,
      "d": 990.5647499999995,
      "v": 60
    },
    {
      "midi": 67,
      "hit": false,
      "t": 9056.591999999999,
      "d": 471.6975000000002,
      "v": 60
    },
    {
      "midi": 72,
      "hit": false,
      "t": 9622.628999999999,
      "d": 471.6975000000002,
      "v": 60
    },
    {
      "midi": 74,
      "hit": false,
      "t": 10188.666,
      "d": 471.6975000000002,
      "v": 60
    },
    {
      "midi": 67,
      "hit": false,
      "t": 10754.703,
      "d": 471.6975000000002,
      "v": 60
    },
    {
      "midi": 77,
      "hit": false,
      "t": 11320.74,
      "d": 990.5647499999995,
      "v": 60
    },
    {
      "midi": 75,
      "hit": false,
      "t": 12452.813999999998,
      "d": 471.6975000000002,
      "v": 60
    },
    {
      "midi": 74,
      "hit": false,
      "t": 13018.850999999999,
      "d": 471.6975000000002,
      "v": 60
    },
    {
      "midi": 72,
      "hit": false,
      "t": 13584.887999999999,
      "d": 471.6975000000002,
      "v": 60
    },
    {
      "midi": 71,
      "hit": false,
      "t": 14150.925,
      "d": 277.12228125,
      "v": 60
    },
    {
      "midi": 74,
      "hit": false,
      "t": 14433.9435,
      "d": 277.12228125,
      "v": 60
    },
    {
      "midi": 72,
      "hit": false,
      "t": 14716.962,
      "d": 471.6975000000002,
      "v": 60
    },
    {
      "midi": 67,
      "hit": false,
      "t": 15282.999,
      "d": 471.6975000000002,
      "v": 60
    },
    {
      "midi": 74,
      "hit": false,
      "t": 15849.036,
      "d": 990.5647500000014,
      "v": 60
    },
    {
      "midi": 72,
      "hit": false,
      "t": 16981.11,
      "d": 990.5647500000014,
      "v": 60
    },
    {
      "midi": 65,
      "hit": false,
      "t": 18113.184,
      "d": 471.6974999999984,
      "v": 60
    },
    {
      "midi": 70,
      "hit": false,
      "t": 18679.220999999998,
      "d": 471.6974999999984,
      "v": 60
    },
    {
      "midi": 72,
      "hit": false,
      "t": 19245.257999999994,
      "d": 471.6974999999984,
      "v": 60
    },
    {
      "midi": 65,
      "hit": false,
      "t": 19811.29499999999,
      "d": 471.6974999999984,
      "v": 60
    },
    {
      "midi": 75,
      "hit": false,
      "t": 20377.331999999988,
      "d": 990.5647500000014,
      "v": 60
    },
    {
      "midi": 58,
      "hit": false,
      "t": 20869.536,
      "d": 1141.302749999999,
      "v": 60
    },
    {
      "midi": 74,
      "hit": false,
      "t": 21509.405999999988,
      "d": 471.6974999999984,
      "v": 60
    },
    {
      "midi": 72,
      "hit": false,
      "t": 22075.442999999985,
      "d": 471.6974999999984,
      "v": 60
    },
    {
      "midi": 57,
      "hit": false,
      "t": 22173.881999999998,
      "d": 1141.302749999999,
      "v": 60
    },
    {
      "midi": 70,
      "hit": false,
      "t": 22641.47999999998,
      "d": 471.6974999999984,
      "v": 60
    },
    {
      "midi": 69,
      "hit": false,
      "t": 23207.516999999978,
      "d": 277.1222812499982,
      "v": 60
    },
    {
      "midi": 55,
      "hit": false,
      "t": 23478.227999999996,
      "d": 1141.302749999999,
      "v": 60
    },
    {
      "midi": 70,
      "hit": false,
      "t": 23490.535499999976,
      "d": 277.1222812499982,
      "v": 60
    },
    {
      "midi": 72,
      "hit": false,
      "t": 23773.553999999975,
      "d": 471.6974999999984,
      "v": 60
    },
    {
      "midi": 70,
      "hit": false,
      "t": 24339.59099999997,
      "d": 471.6974999999984,
      "v": 60
    },
    {
      "midi": 53,
      "hit": false,
      "t": 24782.573999999993,
      "d": 1141.302749999999,
      "v": 60
    },
    {
      "midi": 70,
      "hit": false,
      "t": 24905.627999999968,
      "d": 990.5647500000014,
      "v": 60
    },
    {
      "midi": 69,
      "hit": false,
      "t": 26037.70199999997,
      "d": 990.5647500000014,
      "v": 60
    },
    {
      "midi": 51,
      "hit": false,
      "t": 26086.91999999999,
      "d": 1141.302749999999,
      "v": 60
    },
    {
      "midi": 67,
      "hit": false,
      "t": 27169.77599999997,
      "d": 471.6974999999984,
      "v": 60
    },
    {
      "midi": 52,
      "hit": false,
      "t": 27391.26599999999,
      "d": 1141.302749999999,
      "v": 60
    },
    {
      "midi": 72,
      "hit": false,
      "t": 27735.812999999966,
      "d": 471.6974999999984,
      "v": 60
    },
    {
      "midi": 74,
      "hit": false,
      "t": 28301.849999999962,
      "d": 471.6974999999984,
      "v": 60
    },
    {
      "midi": 53,
      "hit": false,
      "t": 28695.611999999986,
      "d": 2445.6487500000003,
      "v": 60
    },
    {
      "midi": 67,
      "hit": false,
      "t": 28867.88699999996,
      "d": 471.6974999999984,
      "v": 60
    },
    {
      "midi": 77,
      "hit": false,
      "t": 29433.923999999955,
      "d": 990.5647500000014,
      "v": 60
    },
    {
      "midi": 75,
      "hit": false,
      "t": 30565.997999999956,
      "d": 471.6974999999984,
      "v": 60
    },
    {
      "midi": 74,
      "hit": false,
      "t": 31132.034999999953,
      "d": 471.6974999999984,
      "v": 60
    },
    {
      "midi": 63,
      "hit": false,
      "t": 31304.303999999986,
      "d": 1141.302749999999,
      "v": 60
    },
    {
      "midi": 72,
      "hit": false,
      "t": 31698.07199999995,
      "d": 471.6974999999984,
      "v": 60
    },
    {
      "midi": 71,
      "hit": false,
      "t": 32264.108999999946,
      "d": 277.1222812499982,
      "v": 60
    },
    {
      "midi": 74,
      "hit": false,
      "t": 32547.127499999944,
      "d": 277.1222812499982,
      "v": 60
    },
    {
      "midi": 62,
      "hit": false,
      "t": 32608.649999999983,
      "d": 1141.302749999999,
      "v": 60
    },
    {
      "midi": 72,
      "hit": false,
      "t": 32830.14599999994,
      "d": 471.69750000000204,
      "v": 60
    },
    {
      "midi": 67,
      "hit": false,
      "t": 33396.182999999946,
      "d": 471.69750000000204,
      "v": 60
    },
    {
      "midi": 60,
      "hit": false,
      "t": 33912.995999999985,
      "d": 1141.3027500000026,
      "v": 60
    },
    {
      "midi": 74,
      "hit": false,
      "t": 33962.21999999995,
      "d": 990.5647499999977,
      "v": 60
    },
    {
      "midi": 72,
      "hit": false,
      "t": 35094.29399999995,
      "d": 990.5647499999977,
      "v": 60
    },
    {
      "midi": 59,
      "hit": false,
      "t": 35217.34199999999,
      "d": 1141.3027500000026,
      "v": 60
    },
    {
      "midi": 70,
      "hit": false,
      "t": 36226.36799999995,
      "d": 1556.6017500000016,
      "v": 60
    },
    {
      "midi": 79,
      "hit": false,
      "t": 36226.36799999995,
      "d": 1556.6017500000016,
      "v": 60
    },
    {
      "midi": 60,
      "hit": false,
      "t": 36521.687999999995,
      "d": 1141.3027500000026,
      "v": 60
    },
    {
      "midi": 58,
      "hit": false,
      "t": 37826.034,
      "d": 1141.3027500000026,
      "v": 60
    },
    {
      "midi": 70,
      "hit": false,
      "t": 37924.478999999956,
      "d": 471.69750000000204,
      "v": 60
    },
    {
      "midi": 79,
      "hit": false,
      "t": 37924.478999999956,
      "d": 471.69750000000204,
      "v": 60
    },
    {
      "midi": 74,
      "hit": false,
      "t": 38490.51599999996,
      "d": 1556.6017500000016,
      "v": 60
    },
    {
      "midi": 77,
      "hit": false,
      "t": 38490.51599999996,
      "d": 1556.6017500000016,
      "v": 60
    },
    {
      "midi": 57,
      "hit": false,
      "t": 39130.380000000005,
      "d": 1141.3027500000026,
      "v": 60
    },
    {
      "midi": 70,
      "hit": false,
      "t": 40188.626999999964,
      "d": 471.69750000000204,
      "v": 60
    },
    {
      "midi": 74,
      "hit": false,
      "t": 40188.626999999964,
      "d": 471.69750000000204,
      "v": 60
    },
    {
      "midi": 53,
      "hit": false,
      "t": 40434.72600000001,
      "d": 1141.3027500000026,
      "v": 60
    },
    {
      "midi": 75,
      "hit": false,
      "t": 40754.66399999997,
      "d": 471.69750000000204,
      "v": 60
    },
    {
      "midi": 72,
      "hit": false,
      "t": 40754.66399999997,
      "d": 990.564750000005,
      "v": 60
    },
    {
      "midi": 75,
      "hit": false,
      "t": 41320.70099999997,
      "d": 277.1222812499982,
      "v": 60
    },
    {
      "midi": 74,
      "hit": false,
      "t": 41603.71949999997,
      "d": 277.12228125000547,
      "v": 60
    },
    {
      "midi": 51,
      "hit": false,
      "t": 41739.072000000015,
      "d": 543.4775000000009,
      "v": 60
    },
    {
      "midi": 72,
      "hit": false,
      "t": 41886.737999999976,
      "d": 471.69750000000204,
      "v": 60
    },
    {
      "midi": 65,
      "hit": false,
      "t": 41886.737999999976,
      "d": 990.564750000005,
      "v": 60
    },
    {
      "midi": 51,
      "hit": false,
      "t": 42391.24500000002,
      "d": 319.29303125000297,
      "v": 60
    },
    {
      "midi": 71,
      "hit": false,
      "t": 42452.77499999998,
      "d": 471.69750000000204,
      "v": 60
    },
    {
      "midi": 50,
      "hit": false,
      "t": 42717.33150000002,
      "d": 319.29303125000297,
      "v": 60
    },
    {
      "midi": 72,
      "hit": false,
      "t": 43018.81199999998,
      "d": 471.69750000000204,
      "v": 60
    },
    {
      "midi": 63,
      "hit": false,
      "t": 43018.81199999998,
      "d": 990.564750000005,
      "v": 60
    },
    {
      "midi": 51,
      "hit": false,
      "t": 43043.41800000003,
      "d": 319.29303125000297,
      "v": 60
    },
    {
      "midi": 53,
      "hit": false,
      "t": 43369.50450000003,
      "d": 319.29303125000297,
      "v": 60
    },
    {
      "midi": 74,
      "hit": false,
      "t": 43584.84899999999,
      "d": 471.69750000000204,
      "v": 60
    },
    {
      "midi": 55,
      "hit": false,
      "t": 43695.59100000004,
      "d": 319.29303125000297,
      "v": 60
    },
    {
      "midi": 57,
      "hit": false,
      "t": 44021.67750000004,
      "d": 319.29303125000297,
      "v": 60
    },
    {
      "midi": 75,
      "hit": false,
      "t": 44150.88599999999,
      "d": 471.69750000000204,
      "v": 60
    },
    {
      "midi": 58,
      "hit": false,
      "t": 44347.76400000005,
      "d": 543.4775000000009,
      "v": 60
    },
    {
      "midi": 77,
      "hit": false,
      "t": 44716.922999999995,
      "d": 471.69750000000204,
      "v": 60
    },
    {
      "midi": 65,
      "hit": false,
      "t": 44999.93700000005,
      "d": 543.4775000000009,
      "v": 60
    },
    {
      "midi": 77,
      "hit": false,
      "t": 45282.96,
      "d": 1556.6017500000016,
      "v": 60
    },
    {
      "midi": 80,
      "hit": false,
      "t": 45282.96,
      "d": 1556.6017500000016,
      "v": 60
    },
    {
      "midi": 62,
      "hit": false,
      "t": 45652.11000000005,
      "d": 543.4775000000009,
      "v": 60
    },
    {
      "midi": 58,
      "hit": false,
      "t": 46304.283000000054,
      "d": 543.4775000000009,
      "v": 60
    },
    {
      "midi": 56,
      "hit": false,
      "t": 46956.45600000006,
      "d": 1141.3027500000026,
      "v": 60
    },
    {
      "midi": 77,
      "hit": false,
      "t": 46981.071,
      "d": 471.69750000000204,
      "v": 60
    },
    {
      "midi": 80,
      "hit": false,
      "t": 46981.071,
      "d": 471.69750000000204,
      "v": 60
    },
    {
      "midi": 75,
      "hit": false,
      "t": 47547.10800000001,
      "d": 1556.6017500000016,
      "v": 60
    },
    {
      "midi": 79,
      "hit": false,
      "t": 47547.10800000001,
      "d": 1556.6017500000016,
      "v": 60
    },
    {
      "midi": 55,
      "hit": false,
      "t": 48260.80200000006,
      "d": 1141.3027500000026,
      "v": 60
    },
    {
      "midi": 72,
      "hit": false,
      "t": 49245.21900000001,
      "d": 471.69750000000204,
      "v": 60
    },
    {
      "midi": 75,
      "hit": false,
      "t": 49245.21900000001,
      "d": 471.69750000000204,
      "v": 60
    },
    {
      "midi": 60,
      "hit": false,
      "t": 49565.14800000007,
      "d": 543.4775000000009,
      "v": 60
    },
    {
      "midi": 77,
      "hit": false,
      "t": 49811.256000000016,
      "d": 471.69750000000204,
      "v": 60
    },
    {
      "midi": 70,
      "hit": false,
      "t": 49811.256000000016,
      "d": 990.564750000005,
      "v": 60
    },
    {
      "midi": 55,
      "hit": false,
      "t": 50217.32100000007,
      "d": 543.4775000000009,
      "v": 60
    },
    {
      "midi": 77,
      "hit": false,
      "t": 50377.29300000002,
      "d": 277.1222812499982,
      "v": 60
    },
    {
      "midi": 78,
      "hit": false,
      "t": 50660.31150000002,
      "d": 277.12228125000547,
      "v": 60
    },
    {
      "midi": 51,
      "hit": false,
      "t": 50869.49400000007,
      "d": 543.4775000000009,
      "v": 60
    },
    {
      "midi": 77,
      "hit": false,
      "t": 50943.33000000002,
      "d": 471.69750000000204,
      "v": 60
    },
    {
      "midi": 70,
      "hit": false,
      "t": 50943.33000000002,
      "d": 990.564750000005,
      "v": 60
    },
    {
      "midi": 77,
      "hit": false,
      "t": 51509.36700000003,
      "d": 277.1222812499982,
      "v": 60
    },
    {
      "midi": 48,
      "hit": false,
      "t": 51521.667000000074,
      "d": 543.4775000000009,
      "v": 60
    },
    {
      "midi": 78,
      "hit": false,
      "t": 51792.385500000026,
      "d": 277.12228125000547,
      "v": 60
    },
    {
      "midi": 77,
      "hit": false,
      "t": 52075.40400000003,
      "d": 520.8333333333358,
      "v": 60
    },
    {
      "midi": 70,
      "hit": false,
      "t": 52075.40400000003,
      "d": 1108.8707500000019,
      "v": 60
    },
    {
      "midi": 49,
      "hit": false,
      "t": 52173.84000000008,
      "d": 543.4775000000009,
      "v": 60
    },
    {
      "midi": 75,
      "hit": false,
      "t": 52700.40400000003,
      "d": 537.6341666666704,
      "v": 60
    },
    {
      "midi": 49,
      "hit": false,
      "t": 52826.01300000008,
      "d": 319.29303125000297,
      "v": 60
    },
    {
      "midi": 51,
      "hit": false,
      "t": 53152.099500000084,
      "d": 319.29303125000297,
      "v": 60
    },
    {
      "midi": 74,
      "hit": false,
      "t": 53345.56500000003,
      "d": 555.5550000000003,
      "v": 60
    },
    {
      "midi": 69,
      "hit": false,
      "t": 53345.56500000003,
      "d": 1183.9072499999966,
      "v": 60
    },
    {
      "midi": 53,
      "hit": false,
      "t": 53478.18600000009,
      "d": 319.29303125000297,
      "v": 60
    },
    {
      "midi": 55,
      "hit": false,
      "t": 53804.272500000094,
      "d": 319.29303125000297,
      "v": 60
    },
    {
      "midi": 72,
      "hit": false,
      "t": 54012.23100000003,
      "d": 574.7125000000015,
      "v": 60
    },
    {
      "midi": 56,
      "hit": false,
      "t": 54130.3590000001,
      "d": 319.29303125000297,
      "v": 60
    },
    {
      "midi": 58,
      "hit": false,
      "t": 54456.4455000001,
      "d": 319.29303125000297,
      "v": 60
    },
    {
      "midi": 65,
      "hit": false,
      "t": 54701.88600000003,
      "d": 574.7125000000015,
      "v": 75
    },
    {
      "midi": 60,
      "hit": false,
      "t": 54701.88600000003,
      "d": 1206.896249999998,
      "v": 75
    },
    {
      "midi": 62,
      "hit": false,
      "t": 54701.88600000003,
      "d": 1206.896249999998,
      "v": 75
    },
    {
      "midi": 60,
      "hit": false,
      "t": 54782.53200000011,
      "d": 543.4775000000009,
      "v": 60
    },
    {
      "midi": 70,
      "hit": false,
      "t": 55391.54100000003,
      "d": 574.7125000000015,
      "v": 75
    },
    {
      "midi": 60,
      "hit": false,
      "t": 55434.70500000011,
      "d": 319.29303125000297,
      "v": 60
    },
    {
      "midi": 62,
      "hit": false,
      "t": 55760.791500000116,
      "d": 319.29303125000297,
      "v": 60
    },
    {
      "midi": 72,
      "hit": false,
      "t": 56081.196000000025,
      "d": 574.7125000000015,
      "v": 75
    },
    {
      "midi": 60,
      "hit": false,
      "t": 56081.196000000025,
      "d": 1206.896249999998,
      "v": 75
    },
    {
      "midi": 63,
      "hit": false,
      "t": 56086.87800000012,
      "d": 319.29303125000297,
      "v": 60
    },
    {
      "midi": 65,
      "hit": false,
      "t": 56412.964500000126,
      "d": 319.29303125000297,
      "v": 60
    },
    {
      "midi": 67,
      "hit": false,
      "t": 56739.05100000013,
      "d": 543.4775000000009,
      "v": 60
    },
    {
      "midi": 65,
      "hit": false,
      "t": 56770.851000000024,
      "d": 517.2412499999991,
      "v": 75
    },
    {
      "midi": 66,
      "hit": false,
      "t": 57391.22400000013,
      "d": 1141.3027500000026,
      "v": 60
    },
    {
      "midi": 63,
      "hit": false,
      "t": 57460.50600000002,
      "d": 1206.896249999998,
      "v": 75
    },
    {
      "midi": 70,
      "hit": false,
      "t": 57460.50600000002,
      "d": 1206.896249999998,
      "v": 75
    },
    {
      "midi": 75,
      "hit": false,
      "t": 57460.50600000002,
      "d": 1206.896249999998,
      "v": 75
    },
    {
      "midi": 66,
      "hit": false,
      "t": 58695.57000000014,
      "d": 1141.3027500000026,
      "v": 60
    },
    {
      "midi": 74,
      "hit": false,
      "t": 58839.81600000002,
      "d": 574.7125000000015,
      "v": 75
    },
    {
      "midi": 62,
      "hit": false,
      "t": 58839.81600000002,
      "d": 1206.896249999998,
      "v": 75
    },
    {
      "midi": 69,
      "hit": false,
      "t": 58839.81600000002,
      "d": 1206.896249999998,
      "v": 75
    },
    {
      "midi": 72,
      "hit": false,
      "t": 59529.47100000002,
      "d": 574.7125000000015,
      "v": 75
    },
    {
      "midi": 65,
      "hit": false,
      "t": 59999.91600000014,
      "d": 1141.3027500000026,
      "v": 60
    },
    {
      "midi": 70,
      "hit": false,
      "t": 60219.12600000002,
      "d": 574.7125000000015,
      "v": 75
    },
    {
      "midi": 65,
      "hit": false,
      "t": 60219.12600000002,
      "d": 1206.896249999998,
      "v": 75
    },
    {
      "midi": 67,
      "hit": false,
      "t": 60219.12600000002,
      "d": 1206.896249999998,
      "v": 75
    },
    {
      "midi": 69,
      "hit": false,
      "t": 60908.78100000002,
      "d": 337.6435937499991,
      "v": 75
    },
    {
      "midi": 70,
      "hit": false,
      "t": 61253.60850000002,
      "d": 337.6435937499991,
      "v": 75
    },
    {
      "midi": 57,
      "hit": false,
      "t": 61304.26200000015,
      "d": 1141.3027500000026,
      "v": 60
    },
    {
      "midi": 63,
      "hit": false,
      "t": 61304.26200000015,
      "d": 1141.3027500000026,
      "v": 60
    },
    {
      "midi": 60,
      "hit": false,
      "t": 61598.436000000016,
      "d": 574.7125000000015,
      "v": 75
    },
    {
      "midi": 67,
      "hit": false,
      "t": 61598.436000000016,
      "d": 574.7125000000015,
      "v": 75
    },
    {
      "midi": 72,
      "hit": false,
      "t": 61598.436000000016,
      "d": 574.7125000000015,
      "v": 75
    },
    {
      "midi": 53,
      "hit": false,
      "t": 61956.43500000015,
      "d": 543.4775000000009,
      "v": 60
    },
    {
      "midi": 67,
      "hit": false,
      "t": 62288.091000000015,
      "d": 574.7125000000015,
      "v": 75
    },
    {
      "midi": 70,
      "hit": false,
      "t": 62288.091000000015,
      "d": 574.7125000000015,
      "v": 75
    },
    {
      "midi": 46,
      "hit": false,
      "t": 62608.60800000015,
      "d": 1141.3027500000026,
      "v": 75
    },
    {
      "midi": 58,
      "hit": false,
      "t": 62608.60800000015,
      "d": 1141.3027500000026,
      "v": 75
    },
    {
      "midi": 60,
      "hit": false,
      "t": 62977.746000000014,
      "d": 1206.896249999998,
      "v": 75
    },
    {
      "midi": 65,
      "hit": false,
      "t": 62977.746000000014,
      "d": 1206.896249999998,
      "v": 75
    },
    {
      "midi": 70,
      "hit": false,
      "t": 62977.746000000014,
      "d": 1206.896249999998,
      "v": 75
    },
    {
      "midi": 45,
      "hit": false,
      "t": 63912.95400000016,
      "d": 1141.3027500000026,
      "v": 75
    },
    {
      "midi": 57,
      "hit": false,
      "t": 63912.95400000016,
      "d": 1141.3027500000026,
      "v": 75
    },
    {
      "midi": 60,
      "hit": false,
      "t": 64357.05600000001,
      "d": 1206.8962500000052,
      "v": 75
    },
    {
      "midi": 65,
      "hit": false,
      "t": 64357.05600000001,
      "d": 1206.8962500000052,
      "v": 75
    },
    {
      "midi": 69,
      "hit": false,
      "t": 64357.05600000001,
      "d": 1206.8962500000052,
      "v": 75
    },
    {
      "midi": 43,
      "hit": false,
      "t": 65217.30000000016,
      "d": 1141.3027500000026,
      "v": 75
    },
    {
      "midi": 55,
      "hit": false,
      "t": 65217.30000000016,
      "d": 1141.3027500000026,
      "v": 75
    },
    {
      "midi": 67,
      "hit": false,
      "t": 65736.36600000002,
      "d": 574.7124999999942,
      "v": 75
    },
    {
      "midi": 60,
      "hit": false,
      "t": 65736.36600000002,
      "d": 1206.8962500000052,
      "v": 75
    },
    {
      "midi": 63,
      "hit": false,
      "t": 65736.36600000002,
      "d": 1206.8962500000052,
      "v": 75
    },
    {
      "midi": 72,
      "hit": false,
      "t": 66426.02100000002,
      "d": 574.7125000000087,
      "v": 75
    },
    {
      "midi": 41,
      "hit": false,
      "t": 66521.64600000017,
      "d": 1141.3027500000026,
      "v": 75
    },
    {
      "midi": 53,
      "hit": false,
      "t": 66521.64600000017,
      "d": 1141.3027500000026,
      "v": 75
    },
    {
      "midi": 74,
      "hit": false,
      "t": 67115.67600000004,
      "d": 574.7124999999942,
      "v": 75
    },
    {
      "midi": 71,
      "hit": false,
      "t": 67115.67600000004,
      "d": 1206.8962500000052,
      "v": 75
    },
    {
      "midi": 67,
      "hit": false,
      "t": 67805.33100000003,
      "d": 517.2412500000064,
      "v": 75
    },
    {
      "midi": 39,
      "hit": false,
      "t": 67825.99200000017,
      "d": 1141.3027500000026,
      "v": 75
    },
    {
      "midi": 51,
      "hit": false,
      "t": 67825.99200000017,
      "d": 1141.3027500000026,
      "v": 75
    },
    {
      "midi": 67,
      "hit": false,
      "t": 68494.98600000005,
      "d": 1206.8962500000052,
      "v": 75
    },
    {
      "midi": 72,
      "hit": false,
      "t": 68494.98600000005,
      "d": 1206.8962500000052,
      "v": 75
    },
    {
      "midi": 77,
      "hit": false,
      "t": 68494.98600000005,
      "d": 1206.8962500000052,
      "v": 75
    },
    {
      "midi": 40,
      "hit": false,
      "t": 69130.33800000018,
      "d": 1141.3027500000026,
      "v": 75
    },
    {
      "midi": 52,
      "hit": false,
      "t": 69130.33800000018,
      "d": 1141.3027500000026,
      "v": 75
    },
    {
      "midi": 75,
      "hit": false,
      "t": 69874.29600000006,
      "d": 574.7124999999942,
      "v": 75
    },
    {
      "midi": 65,
      "hit": false,
      "t": 69874.29600000006,
      "d": 1206.8962500000052,
      "v": 75
    },
    {
      "midi": 69,
      "hit": false,
      "t": 69874.29600000006,
      "d": 1206.8962500000052,
      "v": 75
    },
    {
      "midi": 41,
      "hit": false,
      "t": 70434.68400000018,
      "d": 543.4774999999936,
      "v": 75
    },
    {
      "midi": 53,
      "hit": false,
      "t": 70434.68400000018,
      "d": 543.4774999999936,
      "v": 75
    },
    {
      "midi": 74,
      "hit": false,
      "t": 70563.95100000006,
      "d": 574.7125000000087,
      "v": 75
    },
    {
      "midi": 48,
      "hit": false,
      "t": 71086.85700000018,
      "d": 543.4774999999936,
      "v": 75
    },
    {
      "midi": 72,
      "hit": false,
      "t": 71253.60600000007,
      "d": 574.7124999999942,
      "v": 75
    },
    {
      "midi": 63,
      "hit": false,
      "t": 71253.60600000007,
      "d": 1206.8962500000052,
      "v": 75
    },
    {
      "midi": 67,
      "hit": false,
      "t": 71253.60600000007,
      "d": 1206.8962500000052,
      "v": 75
    },
    {
      "midi": 53,
      "hit": false,
      "t": 71739.03000000017,
      "d": 1141.3027500000026,
      "v": 75
    },
    {
      "midi": 71,
      "hit": false,
      "t": 71943.26100000007,
      "d": 337.6435937500064,
      "v": 75
    },
    {
      "midi": 74,
      "hit": false,
      "t": 72288.08850000007,
      "d": 337.6435937500064,
      "v": 75
    },
    {
      "midi": 72,
      "hit": false,
      "t": 72632.91600000007,
      "d": 574.7124999999942,
      "v": 75
    },
    {
      "midi": 64,
      "hit": false,
      "t": 72632.91600000007,
      "d": 1206.8962500000052,
      "v": 75
    },
    {
      "midi": 67,
      "hit": false,
      "t": 72632.91600000007,
      "d": 1206.8962500000052,
      "v": 75
    },
    {
      "midi": 51,
      "hit": false,
      "t": 73043.37600000018,
      "d": 1141.3027500000026,
      "v": 75
    },
    {
      "midi": 79,
      "hit": false,
      "t": 73322.57100000007,
      "d": 574.7125000000087,
      "v": 75
    },
    {
      "midi": 67,
      "hit": false,
      "t": 74012.22600000008,
      "d": 1108.8707500000019,
      "v": 75
    },
    {
      "midi": 72,
      "hit": false,
      "t": 74012.22600000008,
      "d": 1108.8707500000019,
      "v": 75
    },
    {
      "midi": 79,
      "hit": false,
      "t": 74012.22600000008,
      "d": 1108.8707500000019,
      "v": 75
    },
    {
      "midi": 50,
      "hit": false,
      "t": 74347.72200000018,
      "d": 1141.3027500000026,
      "v": 75
    },
    {
      "midi": 62,
      "hit": false,
      "t": 74347.72200000018,
      "d": 1141.3027500000026,
      "v": 75
    },
    {
      "midi": 69,
      "hit": false,
      "t": 75282.38700000009,
      "d": 555.554999999993,
      "v": 75
    },
    {
      "midi": 75,
      "hit": false,
      "t": 75282.38700000009,
      "d": 555.554999999993,
      "v": 75
    },
    {
      "midi": 81,
      "hit": false,
      "t": 75282.38700000009,
      "d": 555.554999999993,
      "v": 75
    },
    {
      "midi": 48,
      "hit": false,
      "t": 75652.06800000019,
      "d": 1141.3027500000026,
      "v": 75
    },
    {
      "midi": 60,
      "hit": false,
      "t": 75652.06800000019,
      "d": 1141.3027500000026,
      "v": 75
    },
    {
      "midi": 72,
      "hit": false,
      "t": 75949.05300000009,
      "d": 574.7124999999942,
      "v": 75
    },
    {
      "midi": 78,
      "hit": false,
      "t": 75949.05300000009,
      "d": 574.7124999999942,
      "v": 75
    },
    {
      "midi": 84,
      "hit": false,
      "t": 75949.05300000009,
      "d": 574.7124999999942,
      "v": 75
    },
    {
      "midi": 70,
      "hit": false,
      "t": 76638.70800000009,
      "d": 520.3682708333363,
      "v": 75
    },
    {
      "midi": 74,
      "hit": false,
      "t": 76638.70800000009,
      "d": 520.3682708333363,
      "v": 75
    },
    {
      "midi": 77,
      "hit": false,
      "t": 76638.70800000009,
      "d": 520.3682708333363,
      "v": 75
    },
    {
      "midi": 82,
      "hit": false,
      "t": 76638.70800000009,
      "d": 520.3682708333363,
      "v": 75
    },
    {
      "midi": 47,
      "hit": false,
      "t": 76956.4140000002,
      "d": 1141.3027500000026,
      "v": 75
    },
    {
      "midi": 59,
      "hit": false,
      "t": 76956.4140000002,
      "d": 1141.3027500000026,
      "v": 75
    },
    {
      "midi": 62,
      "hit": false,
      "t": 77261.11693750009,
      "d": 197.70379166665953,
      "v": 75
    },
    {
      "midi": 65,
      "hit": false,
      "t": 77261.11693750009,
      "d": 197.70379166665953,
      "v": 75
    },
    {
      "midi": 70,
      "hit": false,
      "t": 77261.11693750009,
      "d": 197.70379166665953,
      "v": 75
    },
    {
      "midi": 62,
      "hit": false,
      "t": 77465.19827083341,
      "d": 197.0023125000007,
      "v": 75
    },
    {
      "midi": 65,
      "hit": false,
      "t": 77465.19827083341,
      "d": 197.0023125000007,
      "v": 75
    },
    {
      "midi": 70,
      "hit": false,
      "t": 77465.19827083341,
      "d": 197.0023125000007,
      "v": 75
    },
    {
      "midi": 62,
      "hit": false,
      "t": 77668.45058333341,
      "d": 193.75,
      "v": 75
    },
    {
      "midi": 65,
      "hit": false,
      "t": 77668.45058333341,
      "d": 193.75,
      "v": 75
    },
    {
      "midi": 70,
      "hit": false,
      "t": 77668.45058333341,
      "d": 193.75,
      "v": 75
    },
    {
      "midi": 63,
      "hit": false,
      "t": 77868.45058333341,
      "d": 1637.6281458333397,
      "v": 75
    },
    {
      "midi": 66,
      "hit": false,
      "t": 77868.45058333341,
      "d": 1637.6281458333397,
      "v": 75
    },
    {
      "midi": 71,
      "hit": false,
      "t": 77868.45058333341,
      "d": 1637.6281458333397,
      "v": 75
    },
    {
      "midi": 48,
      "hit": false,
      "t": 78260.7600000002,
      "d": 1141.3027500000026,
      "v": 75
    },
    {
      "midi": 60,
      "hit": false,
      "t": 78260.7600000002,
      "d": 1141.3027500000026,
      "v": 75
    },
    {
      "midi": 46,
      "hit": false,
      "t": 79565.1060000002,
      "d": 1141.3027500000026,
      "v": 75
    },
    {
      "midi": 58,
      "hit": false,
      "t": 79565.1060000002,
      "d": 1141.3027500000026,
      "v": 75
    },
    {
      "midi": 63,
      "hit": false,
      "t": 79597.82172916675,
      "d": 177.75206250000338,
      "v": 75
    },
    {
      "midi": 66,
      "hit": false,
      "t": 79597.82172916675,
      "d": 177.75206250000338,
      "v": 75
    },
    {
      "midi": 71,
      "hit": false,
      "t": 79597.82172916675,
      "d": 177.75206250000338,
      "v": 75
    },
    {
      "midi": 63,
      "hit": false,
      "t": 79781.30772916676,
      "d": 174.54937500000233,
      "v": 75
    },
    {
      "midi": 66,
      "hit": false,
      "t": 79781.30772916676,
      "d": 174.54937500000233,
      "v": 75
    },
    {
      "midi": 71,
      "hit": false,
      "t": 79781.30772916676,
      "d": 174.54937500000233,
      "v": 75
    },
    {
      "midi": 63,
      "hit": false,
      "t": 79961.48772916677,
      "d": 174.54937500000233,
      "v": 75
    },
    {
      "midi": 66,
      "hit": false,
      "t": 79961.48772916677,
      "d": 174.54937500000233,
      "v": 75
    },
    {
      "midi": 71,
      "hit": false,
      "t": 79961.48772916677,
      "d": 174.54937500000233,
      "v": 75
    },
    {
      "midi": 64,
      "hit": false,
      "t": 80141.66772916677,
      "d": 1463.8555000000051,
      "v": 75
    },
    {
      "midi": 67,
      "hit": false,
      "t": 80141.66772916677,
      "d": 1463.8555000000051,
      "v": 75
    },
    {
      "midi": 72,
      "hit": false,
      "t": 80141.66772916677,
      "d": 1463.8555000000051,
      "v": 75
    },
    {
      "midi": 45,
      "hit": false,
      "t": 80869.45200000021,
      "d": 543.4774999999936,
      "v": 75
    },
    {
      "midi": 57,
      "hit": false,
      "t": 80869.45200000021,
      "d": 543.4774999999936,
      "v": 75
    },
    {
      "midi": 43,
      "hit": false,
      "t": 81521.6250000002,
      "d": 543.4774999999936,
      "v": 75
    },
    {
      "midi": 55,
      "hit": false,
      "t": 81521.6250000002,
      "d": 543.4774999999936,
      "v": 75
    },
    {
      "midi": 64,
      "hit": false,
      "t": 81689.55672916678,
      "d": 162.8149062500015,
      "v": 75
    },
    {
      "midi": 67,
      "hit": false,
      "t": 81689.55672916678,
      "d": 162.8149062500015,
      "v": 75
    },
    {
      "midi": 72,
      "hit": false,
      "t": 81689.55672916678,
      "d": 162.8149062500015,
      "v": 75
    },
    {
      "midi": 64,
      "hit": false,
      "t": 81857.62372916678,
      "d": 162.8149062500015,
      "v": 75
    },
    {
      "midi": 67,
      "hit": false,
      "t": 81857.62372916678,
      "d": 162.8149062500015,
      "v": 75
    },
    {
      "midi": 72,
      "hit": false,
      "t": 81857.62372916678,
      "d": 162.8149062500015,
      "v": 75
    },
    {
      "midi": 64,
      "hit": false,
      "t": 82025.69072916677,
      "d": 162.8149062500015,
      "v": 75
    },
    {
      "midi": 67,
      "hit": false,
      "t": 82025.69072916677,
      "d": 162.8149062500015,
      "v": 75
    },
    {
      "midi": 72,
      "hit": false,
      "t": 82025.69072916677,
      "d": 162.8149062500015,
      "v": 75
    },
    {
      "midi": 42,
      "hit": false,
      "t": 82173.7980000002,
      "d": 1141.3027500000026,
      "v": 75
    },
    {
      "midi": 54,
      "hit": false,
      "t": 82173.7980000002,
      "d": 1141.3027500000026,
      "v": 75
    },
    {
      "midi": 65,
      "hit": false,
      "t": 82193.75772916677,
      "d": 1431.4425000000047,
      "v": 75
    },
    {
      "midi": 68,
      "hit": false,
      "t": 82193.75772916677,
      "d": 1431.4425000000047,
      "v": 75
    },
    {
      "midi": 73,
      "hit": false,
      "t": 82193.75772916677,
      "d": 1431.4425000000047,
      "v": 75
    },
    {
      "midi": 41,
      "hit": false,
      "t": 83478.1440000002,
      "d": 1793.4757499999978,
      "v": 75
    },
    {
      "midi": 53,
      "hit": false,
      "t": 83478.1440000002,
      "d": 1793.4757499999978,
      "v": 75
    },
    {
      "midi": 65,
      "hit": false,
      "t": 83710.67022916678,
      "d": 169.95588541666802,
      "v": 105
    },
    {
      "midi": 68,
      "hit": false,
      "t": 83710.67022916678,
      "d": 169.95588541666802,
      "v": 105
    },
    {
      "midi": 73,
      "hit": false,
      "t": 83710.67022916678,
      "d": 169.95588541666802,
      "v": 105
    },
    {
      "midi": 65,
      "hit": false,
      "t": 83886.10856250011,
      "d": 169.95588541666802,
      "v": 105
    },
    {
      "midi": 68,
      "hit": false,
      "t": 83886.10856250011,
      "d": 169.95588541666802,
      "v": 105
    },
    {
      "midi": 73,
      "hit": false,
      "t": 83886.10856250011,
      "d": 169.95588541666802,
      "v": 105
    },
    {
      "midi": 65,
      "hit": false,
      "t": 84061.54689583345,
      "d": 169.95588541666802,
      "v": 105
    },
    {
      "midi": 68,
      "hit": false,
      "t": 84061.54689583345,
      "d": 169.95588541666802,
      "v": 105
    },
    {
      "midi": 73,
      "hit": false,
      "t": 84061.54689583345,
      "d": 169.95588541666802,
      "v": 105
    },
    {
      "midi": 65,
      "hit": false,
      "t": 84236.98522916679,
      "d": 453.7560000000085,
      "v": 105
    },
    {
      "midi": 68,
      "hit": false,
      "t": 84236.98522916679,
      "d": 453.7560000000085,
      "v": 105
    },
    {
      "midi": 74,
      "hit": false,
      "t": 84236.98522916679,
      "d": 453.7560000000085,
      "v": 105
    },
    {
      "midi": 53,
      "hit": false,
      "t": 84782.4842291668,
      "d": 471.69749999999476,
      "v": 105
    },
    {
      "midi": 56,
      "hit": false,
      "t": 84782.4842291668,
      "d": 471.69749999999476,
      "v": 105
    },
    {
      "midi": 62,
      "hit": false,
      "t": 84782.4842291668,
      "d": 471.69749999999476,
      "v": 105
    },
    {
      "midi": 58,
      "hit": false,
      "t": 85348.5212291668,
      "d": 471.69749999999476,
      "v": 92
    },
    {
      "midi": 63,
      "hit": false,
      "t": 85348.5212291668,
      "d": 471.69749999999476,
      "v": 92
    },
    {
      "midi": 67,
      "hit": false,
      "t": 85348.5212291668,
      "d": 471.69749999999476,
      "v": 92
    },
    {
      "midi": 70,
      "hit": false,
      "t": 85348.5212291668,
      "d": 471.69749999999476,
      "v": 92
    },
    {
      "midi": 41,
      "hit": false,
      "t": 85434.6630000002,
      "d": 543.4774999999936,
      "v": 75
    },
    {
      "midi": 53,
      "hit": false,
      "t": 85434.6630000002,
      "d": 543.4774999999936,
      "v": 75
    },
    {
      "midi": 63,
      "hit": false,
      "t": 85914.5582291668,
      "d": 471.69749999999476,
      "v": 92
    },
    {
      "midi": 67,
      "hit": false,
      "t": 85914.5582291668,
      "d": 471.69749999999476,
      "v": 92
    },
    {
      "midi": 70,
      "hit": false,
      "t": 85914.5582291668,
      "d": 471.69749999999476,
      "v": 92
    },
    {
      "midi": 75,
      "hit": false,
      "t": 85914.5582291668,
      "d": 471.69749999999476,
      "v": 92
    },
    {
      "midi": 41,
      "hit": false,
      "t": 86086.8360000002,
      "d": 1793.4757499999978,
      "v": 75
    },
    {
      "midi": 53,
      "hit": false,
      "t": 86086.8360000002,
      "d": 1793.4757499999978,
      "v": 75
    },
    {
      "midi": 65,
      "hit": false,
      "t": 86480.59522916679,
      "d": 471.69749999999476,
      "v": 92
    },
    {
      "midi": 70,
      "hit": false,
      "t": 86480.59522916679,
      "d": 471.69749999999476,
      "v": 92
    },
    {
      "midi": 74,
      "hit": false,
      "t": 86480.59522916679,
      "d": 471.69749999999476,
      "v": 92
    },
    {
      "midi": 77,
      "hit": false,
      "t": 86480.59522916679,
      "d": 471.69749999999476,
      "v": 92
    },
    {
      "midi": 58,
      "hit": false,
      "t": 87046.63222916679,
      "d": 471.69749999999476,
      "v": 92
    },
    {
      "midi": 62,
      "hit": false,
      "t": 87046.63222916679,
      "d": 471.69749999999476,
      "v": 92
    },
    {
      "midi": 65,
      "hit": false,
      "t": 87046.63222916679,
      "d": 471.69749999999476,
      "v": 92
    },
    {
      "midi": 70,
      "hit": false,
      "t": 87046.63222916679,
      "d": 471.69749999999476,
      "v": 92
    },
    {
      "midi": 68,
      "hit": false,
      "t": 87612.66922916679,
      "d": 990.564750000005,
      "v": 92
    },
    {
      "midi": 72,
      "hit": false,
      "t": 87612.66922916679,
      "d": 990.564750000005,
      "v": 92
    },
    {
      "midi": 75,
      "hit": false,
      "t": 87612.66922916679,
      "d": 990.564750000005,
      "v": 92
    },
    {
      "midi": 80,
      "hit": false,
      "t": 87612.66922916679,
      "d": 990.564750000005,
      "v": 92
    },
    {
      "midi": 41,
      "hit": false,
      "t": 88043.3550000002,
      "d": 543.4774999999936,
      "v": 75
    },
    {
      "midi": 53,
      "hit": false,
      "t": 88043.3550000002,
      "d": 543.4774999999936,
      "v": 75
    },
    {
      "midi": 41,
      "hit": false,
      "t": 88695.5280000002,
      "d": 1793.4757499999978,
      "v": 75
    },
    {
      "midi": 53,
      "hit": false,
      "t": 88695.5280000002,
      "d": 1793.4757499999978,
      "v": 75
    },
    {
      "midi": 67,
      "hit": false,
      "t": 88744.7432291668,
      "d": 471.69749999999476,
      "v": 92
    },
    {
      "midi": 70,
      "hit": false,
      "t": 88744.7432291668,
      "d": 471.69749999999476,
      "v": 92
    },
    {
      "midi": 74,
      "hit": false,
      "t": 88744.7432291668,
      "d": 471.69749999999476,
      "v": 92
    },
    {
      "midi": 79,
      "hit": false,
      "t": 88744.7432291668,
      "d": 471.69749999999476,
      "v": 92
    },
    {
      "midi": 65,
      "hit": false,
      "t": 89310.78022916679,
      "d": 471.69749999999476,
      "v": 92
    },
    {
      "midi": 70,
      "hit": false,
      "t": 89310.78022916679,
      "d": 471.69749999999476,
      "v": 92
    },
    {
      "midi": 74,
      "hit": false,
      "t": 89310.78022916679,
      "d": 471.69749999999476,
      "v": 92
    },
    {
      "midi": 77,
      "hit": false,
      "t": 89310.78022916679,
      "d": 471.69749999999476,
      "v": 92
    },
    {
      "midi": 63,
      "hit": false,
      "t": 89876.81722916679,
      "d": 471.69749999999476,
      "v": 92
    },
    {
      "midi": 68,
      "hit": false,
      "t": 89876.81722916679,
      "d": 471.69749999999476,
      "v": 92
    },
    {
      "midi": 72,
      "hit": false,
      "t": 89876.81722916679,
      "d": 471.69749999999476,
      "v": 92
    },
    {
      "midi": 75,
      "hit": false,
      "t": 89876.81722916679,
      "d": 471.69749999999476,
      "v": 92
    },
    {
      "midi": 62,
      "hit": false,
      "t": 90442.85422916678,
      "d": 277.12228125000547,
      "v": 92
    },
    {
      "midi": 74,
      "hit": false,
      "t": 90442.85422916678,
      "d": 277.12228125000547,
      "v": 92
    },
    {
      "midi": 41,
      "hit": false,
      "t": 90652.0470000002,
      "d": 543.4774999999936,
      "v": 75
    },
    {
      "midi": 53,
      "hit": false,
      "t": 90652.0470000002,
      "d": 543.4774999999936,
      "v": 75
    },
    {
      "midi": 63,
      "hit": false,
      "t": 90725.87272916679,
      "d": 277.12228125000547,
      "v": 92
    },
    {
      "midi": 75,
      "hit": false,
      "t": 90725.87272916679,
      "d": 277.12228125000547,
      "v": 92
    },
    {
      "midi": 65,
      "hit": false,
      "t": 91008.8912291668,
      "d": 471.69749999999476,
      "v": 92
    },
    {
      "midi": 72,
      "hit": false,
      "t": 91008.8912291668,
      "d": 471.69749999999476,
      "v": 92
    },
    {
      "midi": 77,
      "hit": false,
      "t": 91008.8912291668,
      "d": 471.69749999999476,
      "v": 92
    },
    {
      "midi": 41,
      "hit": false,
      "t": 91304.22000000019,
      "d": 543.4774999999936,
      "v": 75
    },
    {
      "midi": 53,
      "hit": false,
      "t": 91304.22000000019,
      "d": 543.4774999999936,
      "v": 75
    },
    {
      "midi": 63,
      "hit": false,
      "t": 91574.92822916679,
      "d": 471.69749999999476,
      "v": 92
    },
    {
      "midi": 72,
      "hit": false,
      "t": 91574.92822916679,
      "d": 471.69749999999476,
      "v": 92
    },
    {
      "midi": 75,
      "hit": false,
      "t": 91574.92822916679,
      "d": 471.69749999999476,
      "v": 92
    },
    {
      "midi": 41,
      "hit": false,
      "t": 91956.39300000019,
      "d": 210.59753124999406,
      "v": 105
    },
    {
      "midi": 53,
      "hit": false,
      "t": 91956.39300000019,
      "d": 210.59753124999406,
      "v": 105
    },
    {
      "midi": 63,
      "hit": false,
      "t": 92140.96522916679,
      "d": 990.564750000005,
      "v": 92
    },
    {
      "midi": 70,
      "hit": false,
      "t": 92140.96522916679,
      "d": 990.564750000005,
      "v": 92
    },
    {
      "midi": 75,
      "hit": false,
      "t": 92140.96522916679,
      "d": 990.564750000005,
      "v": 92
    },
    {
      "midi": 41,
      "hit": false,
      "t": 92173.78400000017,
      "d": 210.59753124999406,
      "v": 105
    },
    {
      "midi": 53,
      "hit": false,
      "t": 92173.78400000017,
      "d": 210.59753124999406,
      "v": 105
    },
    {
      "midi": 41,
      "hit": false,
      "t": 92391.17500000016,
      "d": 210.59753124999406,
      "v": 105
    },
    {
      "midi": 53,
      "hit": false,
      "t": 92391.17500000016,
      "d": 210.59753124999406,
      "v": 105
    },
    {
      "midi": 46,
      "hit": false,
      "t": 92608.56600000015,
      "d": 543.4774999999936,
      "v": 105
    },
    {
      "midi": 58,
      "hit": false,
      "t": 92608.56600000015,
      "d": 543.4774999999936,
      "v": 105
    },
    {
      "midi": 34,
      "hit": false,
      "t": 93260.73900000015,
      "d": 543.4774999999936,
      "v": 105
    },
    {
      "midi": 46,
      "hit": false,
      "t": 93260.73900000015,
      "d": 543.4774999999936,
      "v": 105
    },
    {
      "midi": 62,
      "hit": false,
      "t": 93273.0392291668,
      "d": 990.564750000005,
      "v": 92
    },
    {
      "midi": 70,
      "hit": false,
      "t": 93273.0392291668,
      "d": 990.564750000005,
      "v": 92
    },
    {
      "midi": 74,
      "hit": false,
      "t": 93273.0392291668,
      "d": 990.564750000005,
      "v": 92
    },
    {
      "midi": 39,
      "hit": false,
      "t": 93912.91200000014,
      "d": 1141.3027500000026,
      "v": 92
    },
    {
      "midi": 51,
      "hit": false,
      "t": 93912.91200000014,
      "d": 1141.3027500000026,
      "v": 92
    },
    {
      "midi": 60,
      "hit": false,
      "t": 94405.1132291668,
      "d": 471.69749999999476,
      "v": 92
    },
    {
      "midi": 65,
      "hit": false,
      "t": 94405.1132291668,
      "d": 471.69749999999476,
      "v": 92
    },
    {
      "midi": 68,
      "hit": false,
      "t": 94405.1132291668,
      "d": 471.69749999999476,
      "v": 92
    },
    {
      "midi": 72,
      "hit": false,
      "t": 94405.1132291668,
      "d": 471.69749999999476,
      "v": 92
    },
    {
      "midi": 65,
      "hit": false,
      "t": 94971.1502291668,
      "d": 471.69749999999476,
      "v": 92
    },
    {
      "midi": 68,
      "hit": false,
      "t": 94971.1502291668,
      "d": 471.69749999999476,
      "v": 92
    },
    {
      "midi": 72,
      "hit": false,
      "t": 94971.1502291668,
      "d": 471.69749999999476,
      "v": 92
    },
    {
      "midi": 77,
      "hit": false,
      "t": 94971.1502291668,
      "d": 471.69749999999476,
      "v": 92
    },
    {
      "midi": 38,
      "hit": false,
      "t": 95217.25800000015,
      "d": 1141.3027500000026,
      "v": 92
    },
    {
      "midi": 50,
      "hit": false,
      "t": 95217.25800000015,
      "d": 1141.3027500000026,
      "v": 92
    },
    {
      "midi": 67,
      "hit": false,
      "t": 95537.1872291668,
      "d": 471.69749999999476,
      "v": 92
    },
    {
      "midi": 72,
      "hit": false,
      "t": 95537.1872291668,
      "d": 471.69749999999476,
      "v": 92
    },
    {
      "midi": 76,
      "hit": false,
      "t": 95537.1872291668,
      "d": 471.69749999999476,
      "v": 92
    },
    {
      "midi": 79,
      "hit": false,
      "t": 95537.1872291668,
      "d": 471.69749999999476,
      "v": 92
    },
    {
      "midi": 60,
      "hit": false,
      "t": 96103.2242291668,
      "d": 471.69749999999476,
      "v": 92
    },
    {
      "midi": 64,
      "hit": false,
      "t": 96103.2242291668,
      "d": 471.69749999999476,
      "v": 92
    },
    {
      "midi": 67,
      "hit": false,
      "t": 96103.2242291668,
      "d": 471.69749999999476,
      "v": 92
    },
    {
      "midi": 72,
      "hit": false,
      "t": 96103.2242291668,
      "d": 471.69749999999476,
      "v": 92
    },
    {
      "midi": 36,
      "hit": false,
      "t": 96521.60400000015,
      "d": 1141.3027500000026,
      "v": 92
    },
    {
      "midi": 48,
      "hit": false,
      "t": 96521.60400000015,
      "d": 1141.3027500000026,
      "v": 92
    },
    {
      "midi": 70,
      "hit": false,
      "t": 96669.26122916679,
      "d": 990.564750000005,
      "v": 92
    },
    {
      "midi": 75,
      "hit": false,
      "t": 96669.26122916679,
      "d": 990.564750000005,
      "v": 92
    },
    {
      "midi": 82,
      "hit": false,
      "t": 96669.26122916679,
      "d": 990.564750000005,
      "v": 92
    },
    {
      "midi": 68,
      "hit": false,
      "t": 97801.3352291668,
      "d": 471.69749999999476,
      "v": 92
    },
    {
      "midi": 73,
      "hit": false,
      "t": 97801.3352291668,
      "d": 471.69749999999476,
      "v": 92
    },
    {
      "midi": 80,
      "hit": false,
      "t": 97801.3352291668,
      "d": 471.69749999999476,
      "v": 92
    },
    {
      "midi": 34,
      "hit": false,
      "t": 97825.95000000016,
      "d": 1141.3027500000026,
      "v": 92
    },
    {
      "midi": 46,
      "hit": false,
      "t": 97825.95000000016,
      "d": 1141.3027500000026,
      "v": 92
    },
    {
      "midi": 67,
      "hit": false,
      "t": 98367.3722291668,
      "d": 471.69749999999476,
      "v": 92
    },
    {
      "midi": 73,
      "hit": false,
      "t": 98367.3722291668,
      "d": 471.69749999999476,
      "v": 92
    },
    {
      "midi": 79,
      "hit": false,
      "t": 98367.3722291668,
      "d": 471.69749999999476,
      "v": 92
    },
    {
      "midi": 65,
      "hit": false,
      "t": 98933.40922916679,
      "d": 471.69749999999476,
      "v": 92
    },
    {
      "midi": 68,
      "hit": false,
      "t": 98933.40922916679,
      "d": 471.69749999999476,
      "v": 92
    },
    {
      "midi": 72,
      "hit": false,
      "t": 98933.40922916679,
      "d": 471.69749999999476,
      "v": 92
    },
    {
      "midi": 77,
      "hit": false,
      "t": 98933.40922916679,
      "d": 471.69749999999476,
      "v": 92
    },
    {
      "midi": 32,
      "hit": false,
      "t": 99130.29600000016,
      "d": 1141.3027500000026,
      "v": 92
    },
    {
      "midi": 44,
      "hit": false,
      "t": 99130.29600000016,
      "d": 1141.3027500000026,
      "v": 92
    },
    {
      "midi": 64,
      "hit": false,
      "t": 99499.44622916679,
      "d": 277.12228125000547,
      "v": 92
    },
    {
      "midi": 76,
      "hit": false,
      "t": 99499.44622916679,
      "d": 277.12228125000547,
      "v": 92
    },
    {
      "midi": 67,
      "hit": false,
      "t": 99782.4647291668,
      "d": 277.12228125000547,
      "v": 92
    },
    {
      "midi": 79,
      "hit": false,
      "t": 99782.4647291668,
      "d": 277.12228125000547,
      "v": 92
    },
    {
      "midi": 65,
      "hit": false,
      "t": 100065.4832291668,
      "d": 471.69749999999476,
      "v": 92
    },
    {
      "midi": 69,
      "hit": false,
      "t": 100065.4832291668,
      "d": 471.69749999999476,
      "v": 92
    },
    {
      "midi": 72,
      "hit": false,
      "t": 100065.4832291668,
      "d": 471.69749999999476,
      "v": 92
    },
    {
      "midi": 77,
      "hit": false,
      "t": 100065.4832291668,
      "d": 471.69749999999476,
      "v": 92
    },
    {
      "midi": 33,
      "hit": false,
      "t": 100434.64200000017,
      "d": 543.4774999999936,
      "v": 92
    },
    {
      "midi": 45,
      "hit": false,
      "t": 100434.64200000017,
      "d": 543.4774999999936,
      "v": 92
    },
    {
      "midi": 60,
      "hit": false,
      "t": 100631.5202291668,
      "d": 471.69749999999476,
      "v": 92
    },
    {
      "midi": 72,
      "hit": false,
      "t": 100631.5202291668,
      "d": 471.69749999999476,
      "v": 92
    },
    {
      "midi": 36,
      "hit": false,
      "t": 101086.81500000016,
      "d": 543.4774999999936,
      "v": 92
    },
    {
      "midi": 48,
      "hit": false,
      "t": 101086.81500000016,
      "d": 543.4774999999936,
      "v": 92
    },
    {
      "midi": 67,
      "hit": false,
      "t": 101197.55722916679,
      "d": 990.564750000005,
      "v": 92
    },
    {
      "midi": 70,
      "hit": false,
      "t": 101197.55722916679,
      "d": 990.564750000005,
      "v": 92
    },
    {
      "midi": 74,
      "hit": false,
      "t": 101197.55722916679,
      "d": 990.564750000005,
      "v": 92
    },
    {
      "midi": 79,
      "hit": false,
      "t": 101197.55722916679,
      "d": 990.564750000005,
      "v": 92
    },
    {
      "midi": 34,
      "hit": false,
      "t": 101738.98800000016,
      "d": 543.4774999999936,
      "v": 92
    },
    {
      "midi": 46,
      "hit": false,
      "t": 101738.98800000016,
      "d": 543.4774999999936,
      "v": 92
    },
    {
      "midi": 65,
      "hit": false,
      "t": 102329.6312291668,
      "d": 990.564750000005,
      "v": 92
    },
    {
      "midi": 70,
      "hit": false,
      "t": 102329.6312291668,
      "d": 990.564750000005,
      "v": 92
    },
    {
      "midi": 74,
      "hit": false,
      "t": 102329.6312291668,
      "d": 990.564750000005,
      "v": 92
    },
    {
      "midi": 77,
      "hit": false,
      "t": 102329.6312291668,
      "d": 990.564750000005,
      "v": 92
    },
    {
      "midi": 41,
      "hit": false,
      "t": 102391.16100000015,
      "d": 543.4774999999936,
      "v": 92
    },
    {
      "midi": 53,
      "hit": false,
      "t": 102391.16100000015,
      "d": 543.4774999999936,
      "v": 92
    },
    {
      "midi": 46,
      "hit": false,
      "t": 103043.33400000015,
      "d": 1141.3027500000026,
      "v": 92
    },
    {
      "midi": 58,
      "hit": false,
      "t": 103043.33400000015,
      "d": 1141.3027500000026,
      "v": 92
    },
    {
      "midi": 72,
      "hit": false,
      "t": 103461.70522916681,
      "d": 1556.6017500000016,
      "v": 108
    },
    {
      "midi": 75,
      "hit": false,
      "t": 103461.70522916681,
      "d": 1556.6017500000016,
      "v": 108
    },
    {
      "midi": 80,
      "hit": false,
      "t": 103461.70522916681,
      "d": 1556.6017500000016,
      "v": 108
    },
    {
      "midi": 84,
      "hit": false,
      "t": 103461.70522916681,
      "d": 1556.6017500000016,
      "v": 108
    },
    {
      "midi": 44,
      "hit": false,
      "t": 104347.68000000015,
      "d": 1141.3027500000026,
      "v": 92
    },
    {
      "midi": 56,
      "hit": false,
      "t": 104347.68000000015,
      "d": 1141.3027500000026,
      "v": 92
    },
    {
      "midi": 72,
      "hit": false,
      "t": 105159.81622916681,
      "d": 471.69749999999476,
      "v": 108
    },
    {
      "midi": 75,
      "hit": false,
      "t": 105159.81622916681,
      "d": 471.69749999999476,
      "v": 108
    },
    {
      "midi": 80,
      "hit": false,
      "t": 105159.81622916681,
      "d": 471.69749999999476,
      "v": 108
    },
    {
      "midi": 84,
      "hit": false,
      "t": 105159.81622916681,
      "d": 471.69749999999476,
      "v": 108
    },
    {
      "midi": 43,
      "hit": false,
      "t": 105652.02600000016,
      "d": 1141.3027500000026,
      "v": 92
    },
    {
      "midi": 55,
      "hit": false,
      "t": 105652.02600000016,
      "d": 1141.3027500000026,
      "v": 92
    },
    {
      "midi": 70,
      "hit": false,
      "t": 105725.85322916681,
      "d": 1556.6017500000016,
      "v": 108
    },
    {
      "midi": 75,
      "hit": false,
      "t": 105725.85322916681,
      "d": 1556.6017500000016,
      "v": 108
    },
    {
      "midi": 79,
      "hit": false,
      "t": 105725.85322916681,
      "d": 1556.6017500000016,
      "v": 108
    },
    {
      "midi": 82,
      "hit": false,
      "t": 105725.85322916681,
      "d": 1556.6017500000016,
      "v": 108
    },
    {
      "midi": 41,
      "hit": false,
      "t": 106956.37200000016,
      "d": 1141.3027500000026,
      "v": 92
    },
    {
      "midi": 53,
      "hit": false,
      "t": 106956.37200000016,
      "d": 1141.3027500000026,
      "v": 92
    },
    {
      "midi": 67,
      "hit": false,
      "t": 107423.96422916681,
      "d": 471.69749999999476,
      "v": 108
    },
    {
      "midi": 70,
      "hit": false,
      "t": 107423.96422916681,
      "d": 471.69749999999476,
      "v": 108
    },
    {
      "midi": 75,
      "hit": false,
      "t": 107423.96422916681,
      "d": 471.69749999999476,
      "v": 108
    },
    {
      "midi": 79,
      "hit": false,
      "t": 107423.96422916681,
      "d": 471.69749999999476,
      "v": 108
    },
    {
      "midi": 68,
      "hit": false,
      "t": 107990.00122916681,
      "d": 471.69749999999476,
      "v": 108
    },
    {
      "midi": 73,
      "hit": false,
      "t": 107990.00122916681,
      "d": 471.69749999999476,
      "v": 108
    },
    {
      "midi": 77,
      "hit": false,
      "t": 107990.00122916681,
      "d": 471.69749999999476,
      "v": 108
    },
    {
      "midi": 80,
      "hit": false,
      "t": 107990.00122916681,
      "d": 471.69749999999476,
      "v": 108
    },
    {
      "midi": 40,
      "hit": false,
      "t": 108260.71800000017,
      "d": 1141.3027500000026,
      "v": 92
    },
    {
      "midi": 52,
      "hit": false,
      "t": 108260.71800000017,
      "d": 1141.3027500000026,
      "v": 92
    },
    {
      "midi": 68,
      "hit": false,
      "t": 108556.0382291668,
      "d": 277.12228125000547,
      "v": 108
    },
    {
      "midi": 73,
      "hit": false,
      "t": 108556.0382291668,
      "d": 277.12228125000547,
      "v": 108
    },
    {
      "midi": 77,
      "hit": false,
      "t": 108556.0382291668,
      "d": 277.12228125000547,
      "v": 108
    },
    {
      "midi": 80,
      "hit": false,
      "t": 108556.0382291668,
      "d": 277.12228125000547,
      "v": 108
    },
    {
      "midi": 67,
      "hit": false,
      "t": 108839.05672916681,
      "d": 277.12228125000547,
      "v": 108
    },
    {
      "midi": 79,
      "hit": false,
      "t": 108839.05672916681,
      "d": 277.12228125000547,
      "v": 108
    },
    {
      "midi": 65,
      "hit": false,
      "t": 109122.07522916682,
      "d": 471.69749999999476,
      "v": 108
    },
    {
      "midi": 70,
      "hit": false,
      "t": 109122.07522916682,
      "d": 471.69749999999476,
      "v": 108
    },
    {
      "midi": 77,
      "hit": false,
      "t": 109122.07522916682,
      "d": 471.69749999999476,
      "v": 108
    },
    {
      "midi": 41,
      "hit": false,
      "t": 109565.06400000017,
      "d": 1141.3027500000026,
      "v": 92
    },
    {
      "midi": 53,
      "hit": false,
      "t": 109565.06400000017,
      "d": 1141.3027500000026,
      "v": 92
    },
    {
      "midi": 64,
      "hit": false,
      "t": 109688.11222916681,
      "d": 471.69749999999476,
      "v": 108
    },
    {
      "midi": 70,
      "hit": false,
      "t": 109688.11222916681,
      "d": 471.69749999999476,
      "v": 108
    },
    {
      "midi": 76,
      "hit": false,
      "t": 109688.11222916681,
      "d": 471.69749999999476,
      "v": 108
    },
    {
      "midi": 65,
      "hit": false,
      "t": 110254.14922916681,
      "d": 471.69749999999476,
      "v": 108
    },
    {
      "midi": 68,
      "hit": false,
      "t": 110254.14922916681,
      "d": 471.69749999999476,
      "v": 108
    },
    {
      "midi": 72,
      "hit": false,
      "t": 110254.14922916681,
      "d": 471.69749999999476,
      "v": 108
    },
    {
      "midi": 77,
      "hit": false,
      "t": 110254.14922916681,
      "d": 471.69749999999476,
      "v": 108
    },
    {
      "midi": 67,
      "hit": false,
      "t": 110820.18622916681,
      "d": 471.69749999999476,
      "v": 108
    },
    {
      "midi": 79,
      "hit": false,
      "t": 110820.18622916681,
      "d": 471.69749999999476,
      "v": 108
    },
    {
      "midi": 39,
      "hit": false,
      "t": 110869.41000000018,
      "d": 1141.3027500000026,
      "v": 92
    },
    {
      "midi": 51,
      "hit": false,
      "t": 110869.41000000018,
      "d": 1141.3027500000026,
      "v": 92
    },
    {
      "midi": 68,
      "hit": false,
      "t": 111386.2232291668,
      "d": 471.69749999999476,
      "v": 108
    },
    {
      "midi": 80,
      "hit": false,
      "t": 111386.2232291668,
      "d": 471.69749999999476,
      "v": 108
    },
    {
      "midi": 70,
      "hit": false,
      "t": 111952.2602291668,
      "d": 471.69749999999476,
      "v": 108
    },
    {
      "midi": 82,
      "hit": false,
      "t": 111952.2602291668,
      "d": 471.69749999999476,
      "v": 108
    },
    {
      "midi": 38,
      "hit": false,
      "t": 112173.75600000018,
      "d": 543.4774999999936,
      "v": 92
    },
    {
      "midi": 50,
      "hit": false,
      "t": 112173.75600000018,
      "d": 543.4774999999936,
      "v": 92
    },
    {
      "midi": 73,
      "hit": false,
      "t": 112518.2972291668,
      "d": 1556.6017500000016,
      "v": 108
    },
    {
      "midi": 78,
      "hit": false,
      "t": 112518.2972291668,
      "d": 1556.6017500000016,
      "v": 108
    },
    {
      "midi": 82,
      "hit": false,
      "t": 112518.2972291668,
      "d": 1556.6017500000016,
      "v": 108
    },
    {
      "midi": 85,
      "hit": false,
      "t": 112518.2972291668,
      "d": 1556.6017500000016,
      "v": 108
    },
    {
      "midi": 36,
      "hit": false,
      "t": 112825.92900000018,
      "d": 543.4774999999936,
      "v": 92
    },
    {
      "midi": 48,
      "hit": false,
      "t": 112825.92900000018,
      "d": 543.4774999999936,
      "v": 92
    },
    {
      "midi": 34,
      "hit": false,
      "t": 113478.10200000017,
      "d": 1141.3027500000026,
      "v": 92
    },
    {
      "midi": 46,
      "hit": false,
      "t": 113478.10200000017,
      "d": 1141.3027500000026,
      "v": 92
    },
    {
      "midi": 73,
      "hit": false,
      "t": 114216.4082291668,
      "d": 471.69749999999476,
      "v": 108
    },
    {
      "midi": 78,
      "hit": false,
      "t": 114216.4082291668,
      "d": 471.69749999999476,
      "v": 108
    },
    {
      "midi": 82,
      "hit": false,
      "t": 114216.4082291668,
      "d": 471.69749999999476,
      "v": 108
    },
    {
      "midi": 85,
      "hit": false,
      "t": 114216.4082291668,
      "d": 471.69749999999476,
      "v": 108
    },
    {
      "midi": 72,
      "hit": false,
      "t": 114782.4452291668,
      "d": 1556.6017500000016,
      "v": 108
    },
    {
      "midi": 77,
      "hit": false,
      "t": 114782.4452291668,
      "d": 1556.6017500000016,
      "v": 108
    },
    {
      "midi": 80,
      "hit": false,
      "t": 114782.4452291668,
      "d": 1556.6017500000016,
      "v": 108
    },
    {
      "midi": 84,
      "hit": false,
      "t": 114782.4452291668,
      "d": 1556.6017500000016,
      "v": 108
    },
    {
      "midi": 32,
      "hit": false,
      "t": 114782.44800000018,
      "d": 543.4774999999936,
      "v": 108
    },
    {
      "midi": 44,
      "hit": false,
      "t": 114782.44800000018,
      "d": 543.4774999999936,
      "v": 108
    },
    {
      "midi": 32,
      "hit": false,
      "t": 115434.62100000017,
      "d": 319.2930312499957,
      "v": 108
    },
    {
      "midi": 44,
      "hit": false,
      "t": 115434.62100000017,
      "d": 319.2930312499957,
      "v": 108
    },
    {
      "midi": 31,
      "hit": false,
      "t": 115760.70750000016,
      "d": 319.2930312499957,
      "v": 108
    },
    {
      "midi": 43,
      "hit": false,
      "t": 115760.70750000016,
      "d": 319.2930312499957,
      "v": 108
    },
    {
      "midi": 32,
      "hit": false,
      "t": 116086.79400000015,
      "d": 319.2930312499957,
      "v": 108
    },
    {
      "midi": 44,
      "hit": false,
      "t": 116086.79400000015,
      "d": 319.2930312499957,
      "v": 108
    },
    {
      "midi": 34,
      "hit": false,
      "t": 116412.88050000014,
      "d": 319.2930312499957,
      "v": 108
    },
    {
      "midi": 46,
      "hit": false,
      "t": 116412.88050000014,
      "d": 319.2930312499957,
      "v": 108
    },
    {
      "midi": 68,
      "hit": false,
      "t": 116480.5562291668,
      "d": 471.69749999999476,
      "v": 108
    },
    {
      "midi": 72,
      "hit": false,
      "t": 116480.5562291668,
      "d": 471.69749999999476,
      "v": 108
    },
    {
      "midi": 77,
      "hit": false,
      "t": 116480.5562291668,
      "d": 471.69749999999476,
      "v": 108
    },
    {
      "midi": 80,
      "hit": false,
      "t": 116480.5562291668,
      "d": 471.69749999999476,
      "v": 108
    },
    {
      "midi": 36,
      "hit": false,
      "t": 116738.96700000014,
      "d": 319.2930312499957,
      "v": 108
    },
    {
      "midi": 48,
      "hit": false,
      "t": 116738.96700000014,
      "d": 319.2930312499957,
      "v": 108
    },
    {
      "midi": 70,
      "hit": false,
      "t": 117046.5932291668,
      "d": 471.69749999999476,
      "v": 108
    },
    {
      "midi": 75,
      "hit": false,
      "t": 117046.5932291668,
      "d": 471.69749999999476,
      "v": 108
    },
    {
      "midi": 82,
      "hit": false,
      "t": 117046.5932291668,
      "d": 471.69749999999476,
      "v": 108
    },
    {
      "midi": 38,
      "hit": false,
      "t": 117065.05350000013,
      "d": 319.2930312499957,
      "v": 108
    },
    {
      "midi": 50,
      "hit": false,
      "t": 117065.05350000013,
      "d": 319.2930312499957,
      "v": 108
    },
    {
      "midi": 39,
      "hit": false,
      "t": 117391.14000000012,
      "d": 543.4774999999936,
      "v": 108
    },
    {
      "midi": 51,
      "hit": false,
      "t": 117391.14000000012,
      "d": 543.4774999999936,
      "v": 108
    },
    {
      "midi": 70,
      "hit": false,
      "t": 117612.6302291668,
      "d": 277.12228125000547,
      "v": 108
    },
    {
      "midi": 75,
      "hit": false,
      "t": 117612.6302291668,
      "d": 277.12228125000547,
      "v": 108
    },
    {
      "midi": 82,
      "hit": false,
      "t": 117612.6302291668,
      "d": 277.12228125000547,
      "v": 108
    },
    {
      "midi": 71,
      "hit": false,
      "t": 117895.6487291668,
      "d": 277.12228125000547,
      "v": 108
    },
    {
      "midi": 75,
      "hit": false,
      "t": 117895.6487291668,
      "d": 277.12228125000547,
      "v": 108
    },
    {
      "midi": 83,
      "hit": false,
      "t": 117895.6487291668,
      "d": 277.12228125000547,
      "v": 108
    },
    {
      "midi": 46,
      "hit": false,
      "t": 118043.31300000011,
      "d": 543.4774999999936,
      "v": 108
    },
    {
      "midi": 58,
      "hit": false,
      "t": 118043.31300000011,
      "d": 543.4774999999936,
      "v": 108
    },
    {
      "midi": 70,
      "hit": false,
      "t": 118178.66722916681,
      "d": 475.3261666666658,
      "v": 108
    },
    {
      "midi": 75,
      "hit": false,
      "t": 118178.66722916681,
      "d": 475.3261666666658,
      "v": 108
    },
    {
      "midi": 82,
      "hit": false,
      "t": 118178.66722916681,
      "d": 475.3261666666658,
      "v": 108
    },
    {
      "midi": 43,
      "hit": false,
      "t": 118695.4860000001,
      "d": 543.4774999999936,
      "v": 108
    },
    {
      "midi": 55,
      "hit": false,
      "t": 118695.4860000001,
      "d": 543.4774999999936,
      "v": 108
    },
    {
      "midi": 70,
      "hit": false,
      "t": 118750.1472291668,
      "d": 287.99005208333256,
      "v": 108
    },
    {
      "midi": 75,
      "hit": false,
      "t": 118750.1472291668,
      "d": 287.99005208333256,
      "v": 108
    },
    {
      "midi": 82,
      "hit": false,
      "t": 118750.1472291668,
      "d": 287.99005208333256,
      "v": 108
    },
    {
      "midi": 71,
      "hit": false,
      "t": 119044.2647291668,
      "d": 293.75,
      "v": 108
    },
    {
      "midi": 75,
      "hit": false,
      "t": 119044.2647291668,
      "d": 293.75,
      "v": 108
    },
    {
      "midi": 83,
      "hit": false,
      "t": 119044.2647291668,
      "d": 293.75,
      "v": 108
    },
    {
      "midi": 70,
      "hit": false,
      "t": 119344.2647291668,
      "d": 515.4633333333331,
      "v": 108
    },
    {
      "midi": 75,
      "hit": false,
      "t": 119344.2647291668,
      "d": 515.4633333333331,
      "v": 108
    },
    {
      "midi": 82,
      "hit": false,
      "t": 119344.2647291668,
      "d": 515.4633333333331,
      "v": 108
    },
    {
      "midi": 39,
      "hit": false,
      "t": 119347.6590000001,
      "d": 543.4774999999936,
      "v": 108
    },
    {
      "midi": 51,
      "hit": false,
      "t": 119347.6590000001,
      "d": 543.4774999999936,
      "v": 108
    },
    {
      "midi": 68,
      "hit": false,
      "t": 119962.82072916681,
      "d": 526.3149999999878,
      "v": 108
    },
    {
      "midi": 80,
      "hit": false,
      "t": 119962.82072916681,
      "d": 526.3149999999878,
      "v": 108
    },
    {
      "midi": 37,
      "hit": false,
      "t": 119999.8320000001,
      "d": 1141.3027500000026,
      "v": 108
    },
    {
      "midi": 49,
      "hit": false,
      "t": 119999.8320000001,
      "d": 1141.3027500000026,
      "v": 108
    },
    {
      "midi": 67,
      "hit": false,
      "t": 120594.3987291668,
      "d": 543.4774999999936,
      "v": 108
    },
    {
      "midi": 74,
      "hit": false,
      "t": 120594.3987291668,
      "d": 543.4774999999936,
      "v": 108
    },
    {
      "midi": 79,
      "hit": false,
      "t": 120594.3987291668,
      "d": 543.4774999999936,
      "v": 108
    },
    {
      "midi": 65,
      "hit": false,
      "t": 121246.5717291668,
      "d": 543.4774999999936,
      "v": 108
    },
    {
      "midi": 70,
      "hit": false,
      "t": 121246.5717291668,
      "d": 543.4774999999936,
      "v": 108
    },
    {
      "midi": 74,
      "hit": false,
      "t": 121246.5717291668,
      "d": 543.4774999999936,
      "v": 108
    },
    {
      "midi": 77,
      "hit": false,
      "t": 121246.5717291668,
      "d": 543.4774999999936,
      "v": 108
    },
    {
      "midi": 36,
      "hit": false,
      "t": 121304.1780000001,
      "d": 1141.3027500000026,
      "v": 108
    },
    {
      "midi": 48,
      "hit": false,
      "t": 121304.1780000001,
      "d": 1141.3027500000026,
      "v": 108
    },
    {
      "midi": 58,
      "hit": false,
      "t": 121898.74472916679,
      "d": 543.4774999999936,
      "v": 127
    },
    {
      "midi": 63,
      "hit": false,
      "t": 121898.74472916679,
      "d": 543.4774999999936,
      "v": 127
    },
    {
      "midi": 67,
      "hit": false,
      "t": 121898.74472916679,
      "d": 543.4774999999936,
      "v": 127
    },
    {
      "midi": 70,
      "hit": false,
      "t": 121898.74472916679,
      "d": 543.4774999999936,
      "v": 127
    },
    {
      "midi": 63,
      "hit": false,
      "t": 122550.91772916679,
      "d": 543.4774999999936,
      "v": 127
    },
    {
      "midi": 67,
      "hit": false,
      "t": 122550.91772916679,
      "d": 543.4774999999936,
      "v": 127
    },
    {
      "midi": 70,
      "hit": false,
      "t": 122550.91772916679,
      "d": 543.4774999999936,
      "v": 127
    },
    {
      "midi": 75,
      "hit": false,
      "t": 122550.91772916679,
      "d": 543.4774999999936,
      "v": 127
    },
    {
      "midi": 41,
      "hit": false,
      "t": 122608.5240000001,
      "d": 543.4774999999936,
      "v": 108
    },
    {
      "midi": 53,
      "hit": false,
      "t": 122608.5240000001,
      "d": 543.4774999999936,
      "v": 108
    },
    {
      "midi": 65,
      "hit": false,
      "t": 123203.09072916678,
      "d": 543.4774999999936,
      "v": 127
    },
    {
      "midi": 70,
      "hit": false,
      "t": 123203.09072916678,
      "d": 543.4774999999936,
      "v": 127
    },
    {
      "midi": 74,
      "hit": false,
      "t": 123203.09072916678,
      "d": 543.4774999999936,
      "v": 127
    },
    {
      "midi": 77,
      "hit": false,
      "t": 123203.09072916678,
      "d": 543.4774999999936,
      "v": 127
    },
    {
      "midi": 36,
      "hit": false,
      "t": 123260.6970000001,
      "d": 543.4774999999936,
      "v": 108
    },
    {
      "midi": 48,
      "hit": false,
      "t": 123260.6970000001,
      "d": 543.4774999999936,
      "v": 108
    },
    {
      "midi": 58,
      "hit": false,
      "t": 123855.26372916678,
      "d": 543.4774999999936,
      "v": 127
    },
    {
      "midi": 62,
      "hit": false,
      "t": 123855.26372916678,
      "d": 543.4774999999936,
      "v": 127
    },
    {
      "midi": 65,
      "hit": false,
      "t": 123855.26372916678,
      "d": 543.4774999999936,
      "v": 127
    },
    {
      "midi": 70,
      "hit": false,
      "t": 123855.26372916678,
      "d": 543.4774999999936,
      "v": 127
    },
    {
      "midi": 32,
      "hit": false,
      "t": 123912.8700000001,
      "d": 543.4774999999936,
      "v": 108
    },
    {
      "midi": 44,
      "hit": false,
      "t": 123912.8700000001,
      "d": 543.4774999999936,
      "v": 108
    },
    {
      "midi": 68,
      "hit": false,
      "t": 124507.43672916677,
      "d": 1141.3027500000026,
      "v": 127
    },
    {
      "midi": 72,
      "hit": false,
      "t": 124507.43672916677,
      "d": 1141.3027500000026,
      "v": 127
    },
    {
      "midi": 75,
      "hit": false,
      "t": 124507.43672916677,
      "d": 1141.3027500000026,
      "v": 127
    },
    {
      "midi": 80,
      "hit": false,
      "t": 124507.43672916677,
      "d": 1141.3027500000026,
      "v": 127
    },
    {
      "midi": 29,
      "hit": false,
      "t": 124565.04300000009,
      "d": 543.4774999999936,
      "v": 108
    },
    {
      "midi": 41,
      "hit": false,
      "t": 124565.04300000009,
      "d": 543.4774999999936,
      "v": 108
    },
    {
      "midi": 30,
      "hit": false,
      "t": 125217.21600000009,
      "d": 543.4774999999936,
      "v": 108
    },
    {
      "midi": 42,
      "hit": false,
      "t": 125217.21600000009,
      "d": 543.4774999999936,
      "v": 108
    },
    {
      "midi": 67,
      "hit": false,
      "t": 125811.78272916678,
      "d": 543.4774999999936,
      "v": 127
    },
    {
      "midi": 70,
      "hit": false,
      "t": 125811.78272916678,
      "d": 543.4774999999936,
      "v": 127
    },
    {
      "midi": 74,
      "hit": false,
      "t": 125811.78272916678,
      "d": 543.4774999999936,
      "v": 127
    },
    {
      "midi": 79,
      "hit": false,
      "t": 125811.78272916678,
      "d": 543.4774999999936,
      "v": 127
    },
    {
      "midi": 30,
      "hit": false,
      "t": 125869.38900000008,
      "d": 319.2930312499957,
      "v": 108
    },
    {
      "midi": 42,
      "hit": false,
      "t": 125869.38900000008,
      "d": 319.2930312499957,
      "v": 108
    },
    {
      "midi": 32,
      "hit": false,
      "t": 126195.47550000007,
      "d": 319.2930312499957,
      "v": 108
    },
    {
      "midi": 44,
      "hit": false,
      "t": 126195.47550000007,
      "d": 319.2930312499957,
      "v": 108
    },
    {
      "midi": 65,
      "hit": false,
      "t": 126463.95572916677,
      "d": 543.4774999999936,
      "v": 127
    },
    {
      "midi": 70,
      "hit": false,
      "t": 126463.95572916677,
      "d": 543.4774999999936,
      "v": 127
    },
    {
      "midi": 74,
      "hit": false,
      "t": 126463.95572916677,
      "d": 543.4774999999936,
      "v": 127
    },
    {
      "midi": 77,
      "hit": false,
      "t": 126463.95572916677,
      "d": 543.4774999999936,
      "v": 127
    },
    {
      "midi": 34,
      "hit": false,
      "t": 126521.56200000006,
      "d": 319.2930312499957,
      "v": 108
    },
    {
      "midi": 46,
      "hit": false,
      "t": 126521.56200000006,
      "d": 319.2930312499957,
      "v": 108
    },
    {
      "midi": 36,
      "hit": false,
      "t": 126847.64850000005,
      "d": 319.2930312499957,
      "v": 108
    },
    {
      "midi": 48,
      "hit": false,
      "t": 126847.64850000005,
      "d": 319.2930312499957,
      "v": 108
    },
    {
      "midi": 63,
      "hit": false,
      "t": 127116.12872916677,
      "d": 543.4774999999936,
      "v": 127
    },
    {
      "midi": 68,
      "hit": false,
      "t": 127116.12872916677,
      "d": 543.4774999999936,
      "v": 127
    },
    {
      "midi": 72,
      "hit": false,
      "t": 127116.12872916677,
      "d": 543.4774999999936,
      "v": 127
    },
    {
      "midi": 75,
      "hit": false,
      "t": 127116.12872916677,
      "d": 543.4774999999936,
      "v": 127
    },
    {
      "midi": 37,
      "hit": false,
      "t": 127173.73500000004,
      "d": 319.2930312499957,
      "v": 108
    },
    {
      "midi": 49,
      "hit": false,
      "t": 127173.73500000004,
      "d": 319.2930312499957,
      "v": 108
    },
    {
      "midi": 39,
      "hit": false,
      "t": 127499.82150000003,
      "d": 319.2930312499957,
      "v": 108
    },
    {
      "midi": 51,
      "hit": false,
      "t": 127499.82150000003,
      "d": 319.2930312499957,
      "v": 108
    },
    {
      "midi": 62,
      "hit": false,
      "t": 127768.30172916676,
      "d": 319.2930312499957,
      "v": 127
    },
    {
      "midi": 74,
      "hit": false,
      "t": 127768.30172916676,
      "d": 319.2930312499957,
      "v": 127
    },
    {
      "midi": 41,
      "hit": false,
      "t": 127825.90800000002,
      "d": 543.4774999999936,
      "v": 108
    },
    {
      "midi": 53,
      "hit": false,
      "t": 127825.90800000002,
      "d": 543.4774999999936,
      "v": 108
    },
    {
      "midi": 63,
      "hit": false,
      "t": 128094.38822916675,
      "d": 319.2930312499957,
      "v": 127
    },
    {
      "midi": 75,
      "hit": false,
      "t": 128094.38822916675,
      "d": 319.2930312499957,
      "v": 127
    },
    {
      "midi": 65,
      "hit": false,
      "t": 128420.47472916674,
      "d": 543.4774999999936,
      "v": 127
    },
    {
      "midi": 72,
      "hit": false,
      "t": 128420.47472916674,
      "d": 543.4774999999936,
      "v": 127
    },
    {
      "midi": 77,
      "hit": false,
      "t": 128420.47472916674,
      "d": 543.4774999999936,
      "v": 127
    },
    {
      "midi": 41,
      "hit": false,
      "t": 128478.08100000002,
      "d": 319.2930312499957,
      "v": 108
    },
    {
      "midi": 53,
      "hit": false,
      "t": 128478.08100000002,
      "d": 319.2930312499957,
      "v": 108
    },
    {
      "midi": 43,
      "hit": false,
      "t": 128804.16750000001,
      "d": 319.2930312499957,
      "v": 108
    },
    {
      "midi": 55,
      "hit": false,
      "t": 128804.16750000001,
      "d": 319.2930312499957,
      "v": 108
    },
    {
      "midi": 63,
      "hit": false,
      "t": 129072.64772916674,
      "d": 543.4774999999936,
      "v": 127
    },
    {
      "midi": 72,
      "hit": false,
      "t": 129072.64772916674,
      "d": 543.4774999999936,
      "v": 127
    },
    {
      "midi": 75,
      "hit": false,
      "t": 129072.64772916674,
      "d": 543.4774999999936,
      "v": 127
    },
    {
      "midi": 44,
      "hit": false,
      "t": 129130.254,
      "d": 319.2930312499957,
      "v": 108
    },
    {
      "midi": 56,
      "hit": false,
      "t": 129130.254,
      "d": 319.2930312499957,
      "v": 108
    },
    {
      "midi": 46,
      "hit": false,
      "t": 129456.34049999999,
      "d": 319.2930312499957,
      "v": 108
    },
    {
      "midi": 58,
      "hit": false,
      "t": 129456.34049999999,
      "d": 319.2930312499957,
      "v": 108
    },
    {
      "midi": 63,
      "hit": false,
      "t": 129724.82072916673,
      "d": 1141.3027500000026,
      "v": 127
    },
    {
      "midi": 70,
      "hit": false,
      "t": 129724.82072916673,
      "d": 1141.3027500000026,
      "v": 127
    },
    {
      "midi": 75,
      "hit": false,
      "t": 129724.82072916673,
      "d": 1141.3027500000026,
      "v": 127
    },
    {
      "midi": 48,
      "hit": false,
      "t": 129782.42699999998,
      "d": 543.4774999999936,
      "v": 108
    },
    {
      "midi": 60,
      "hit": false,
      "t": 129782.42699999998,
      "d": 543.4774999999936,
      "v": 108
    },
    {
      "midi": 47,
      "hit": false,
      "t": 130434.59999999998,
      "d": 1141.3027500000026,
      "v": 108
    },
    {
      "midi": 59,
      "hit": false,
      "t": 130434.59999999998,
      "d": 1141.3027500000026,
      "v": 108
    },
    {
      "midi": 62,
      "hit": false,
      "t": 131029.16672916674,
      "d": 1141.302749999988,
      "v": 127
    },
    {
      "midi": 70,
      "hit": false,
      "t": 131029.16672916674,
      "d": 1141.302749999988,
      "v": 127
    },
    {
      "midi": 74,
      "hit": false,
      "t": 131029.16672916674,
      "d": 1141.302749999988,
      "v": 127
    },
    {
      "midi": 35,
      "hit": false,
      "t": 131738.94599999997,
      "d": 1141.3027500000026,
      "v": 108
    },
    {
      "midi": 47,
      "hit": false,
      "t": 131738.94599999997,
      "d": 1141.3027500000026,
      "v": 108
    },
    {
      "midi": 60,
      "hit": false,
      "t": 132333.51272916672,
      "d": 543.4775000000081,
      "v": 127
    },
    {
      "midi": 65,
      "hit": false,
      "t": 132333.51272916672,
      "d": 543.4775000000081,
      "v": 127
    },
    {
      "midi": 68,
      "hit": false,
      "t": 132333.51272916672,
      "d": 543.4775000000081,
      "v": 127
    },
    {
      "midi": 72,
      "hit": false,
      "t": 132333.51272916672,
      "d": 543.4775000000081,
      "v": 127
    },
    {
      "midi": 65,
      "hit": false,
      "t": 132985.68572916673,
      "d": 543.4775000000081,
      "v": 127
    },
    {
      "midi": 68,
      "hit": false,
      "t": 132985.68572916673,
      "d": 543.4775000000081,
      "v": 127
    },
    {
      "midi": 72,
      "hit": false,
      "t": 132985.68572916673,
      "d": 543.4775000000081,
      "v": 127
    },
    {
      "midi": 77,
      "hit": false,
      "t": 132985.68572916673,
      "d": 543.4775000000081,
      "v": 127
    },
    {
      "midi": 46,
      "hit": false,
      "t": 133043.29199999996,
      "d": 1141.3027500000026,
      "v": 108
    },
    {
      "midi": 58,
      "hit": false,
      "t": 133043.29199999996,
      "d": 1141.3027500000026,
      "v": 108
    },
    {
      "midi": 67,
      "hit": false,
      "t": 133637.85872916674,
      "d": 543.4775000000081,
      "v": 127
    },
    {
      "midi": 72,
      "hit": false,
      "t": 133637.85872916674,
      "d": 543.4775000000081,
      "v": 127
    },
    {
      "midi": 76,
      "hit": false,
      "t": 133637.85872916674,
      "d": 543.4775000000081,
      "v": 127
    },
    {
      "midi": 79,
      "hit": false,
      "t": 133637.85872916674,
      "d": 543.4775000000081,
      "v": 127
    },
    {
      "midi": 60,
      "hit": false,
      "t": 134290.03172916675,
      "d": 543.4775000000081,
      "v": 127
    },
    {
      "midi": 64,
      "hit": false,
      "t": 134290.03172916675,
      "d": 543.4775000000081,
      "v": 127
    },
    {
      "midi": 67,
      "hit": false,
      "t": 134290.03172916675,
      "d": 543.4775000000081,
      "v": 127
    },
    {
      "midi": 72,
      "hit": false,
      "t": 134290.03172916675,
      "d": 543.4775000000081,
      "v": 127
    },
    {
      "midi": 34,
      "hit": false,
      "t": 134347.63799999995,
      "d": 543.4775000000081,
      "v": 108
    },
    {
      "midi": 46,
      "hit": false,
      "t": 134347.63799999995,
      "d": 543.4775000000081,
      "v": 108
    },
    {
      "midi": 70,
      "hit": false,
      "t": 134942.20472916675,
      "d": 1141.3027500000026,
      "v": 127
    },
    {
      "midi": 75,
      "hit": false,
      "t": 134942.20472916675,
      "d": 1141.3027500000026,
      "v": 127
    },
    {
      "midi": 82,
      "hit": false,
      "t": 134942.20472916675,
      "d": 1141.3027500000026,
      "v": 127
    },
    {
      "midi": 34,
      "hit": false,
      "t": 134999.81099999996,
      "d": 543.4775000000081,
      "v": 108
    },
    {
      "midi": 46,
      "hit": false,
      "t": 134999.81099999996,
      "d": 543.4775000000081,
      "v": 108
    },
    {
      "midi": 39,
      "hit": false,
      "t": 135651.98399999997,
      "d": 1141.3027500000026,
      "v": 127
    },
    {
      "midi": 51,
      "hit": false,
      "t": 135651.98399999997,
      "d": 1141.3027500000026,
      "v": 127
    },
    {
      "midi": 68,
      "hit": false,
      "t": 136246.55072916675,
      "d": 543.4775000000081,
      "v": 127
    },
    {
      "midi": 73,
      "hit": false,
      "t": 136246.55072916675,
      "d": 543.4775000000081,
      "v": 127
    },
    {
      "midi": 80,
      "hit": false,
      "t": 136246.55072916675,
      "d": 543.4775000000081,
      "v": 127
    },
    {
      "midi": 67,
      "hit": false,
      "t": 136898.72372916676,
      "d": 543.4775000000081,
      "v": 127
    },
    {
      "midi": 73,
      "hit": false,
      "t": 136898.72372916676,
      "d": 543.4775000000081,
      "v": 127
    },
    {
      "midi": 79,
      "hit": false,
      "t": 136898.72372916676,
      "d": 543.4775000000081,
      "v": 127
    },
    {
      "midi": 38,
      "hit": false,
      "t": 136956.32999999996,
      "d": 1141.3027500000026,
      "v": 127
    },
    {
      "midi": 50,
      "hit": false,
      "t": 136956.32999999996,
      "d": 1141.3027500000026,
      "v": 127
    },
    {
      "midi": 65,
      "hit": false,
      "t": 137550.89672916676,
      "d": 543.4775000000081,
      "v": 127
    },
    {
      "midi": 68,
      "hit": false,
      "t": 137550.89672916676,
      "d": 543.4775000000081,
      "v": 127
    },
    {
      "midi": 72,
      "hit": false,
      "t": 137550.89672916676,
      "d": 543.4775000000081,
      "v": 127
    },
    {
      "midi": 77,
      "hit": false,
      "t": 137550.89672916676,
      "d": 543.4775000000081,
      "v": 127
    },
    {
      "midi": 64,
      "hit": false,
      "t": 138203.06972916677,
      "d": 319.29303125001024,
      "v": 127
    },
    {
      "midi": 76,
      "hit": false,
      "t": 138203.06972916677,
      "d": 319.29303125001024,
      "v": 127
    },
    {
      "midi": 36,
      "hit": false,
      "t": 138260.67599999995,
      "d": 1141.3027500000026,
      "v": 127
    },
    {
      "midi": 48,
      "hit": false,
      "t": 138260.67599999995,
      "d": 1141.3027500000026,
      "v": 127
    },
    {
      "midi": 67,
      "hit": false,
      "t": 138529.15622916678,
      "d": 319.29303125001024,
      "v": 127
    },
    {
      "midi": 79,
      "hit": false,
      "t": 138529.15622916678,
      "d": 319.29303125001024,
      "v": 127
    },
    {
      "midi": 65,
      "hit": false,
      "t": 138855.24272916678,
      "d": 543.4775000000081,
      "v": 127
    },
    {
      "midi": 69,
      "hit": false,
      "t": 138855.24272916678,
      "d": 543.4775000000081,
      "v": 127
    },
    {
      "midi": 72,
      "hit": false,
      "t": 138855.24272916678,
      "d": 543.4775000000081,
      "v": 127
    },
    {
      "midi": 77,
      "hit": false,
      "t": 138855.24272916678,
      "d": 543.4775000000081,
      "v": 127
    },
    {
      "midi": 72,
      "hit": false,
      "t": 139507.4157291668,
      "d": 543.4775000000081,
      "v": 127
    },
    {
      "midi": 77,
      "hit": false,
      "t": 139507.4157291668,
      "d": 543.4775000000081,
      "v": 127
    },
    {
      "midi": 81,
      "hit": false,
      "t": 139507.4157291668,
      "d": 543.4775000000081,
      "v": 127
    },
    {
      "midi": 84,
      "hit": false,
      "t": 139507.4157291668,
      "d": 543.4775000000081,
      "v": 127
    },
    {
      "midi": 34,
      "hit": false,
      "t": 139565.02199999994,
      "d": 1141.3027500000026,
      "v": 127
    },
    {
      "midi": 46,
      "hit": false,
      "t": 139565.02199999994,
      "d": 1141.3027500000026,
      "v": 127
    },
    {
      "midi": 72,
      "hit": false,
      "t": 140159.5887291668,
      "d": 1141.3027500000026,
      "v": 127
    },
    {
      "midi": 77,
      "hit": false,
      "t": 140159.5887291668,
      "d": 1141.3027500000026,
      "v": 127
    },
    {
      "midi": 84,
      "hit": false,
      "t": 140159.5887291668,
      "d": 1141.3027500000026,
      "v": 127
    },
    {
      "midi": 32,
      "hit": false,
      "t": 140869.36799999993,
      "d": 1141.3027500000026,
      "v": 127
    },
    {
      "midi": 44,
      "hit": false,
      "t": 140869.36799999993,
      "d": 1141.3027500000026,
      "v": 127
    },
    {
      "midi": 74,
      "hit": false,
      "t": 141463.9347291668,
      "d": 543.4775000000081,
      "v": 127
    },
    {
      "midi": 80,
      "hit": false,
      "t": 141463.9347291668,
      "d": 543.4775000000081,
      "v": 127
    },
    {
      "midi": 86,
      "hit": false,
      "t": 141463.9347291668,
      "d": 543.4775000000081,
      "v": 127
    },
    {
      "midi": 77,
      "hit": false,
      "t": 142116.1077291668,
      "d": 543.4775000000081,
      "v": 127
    },
    {
      "midi": 83,
      "hit": false,
      "t": 142116.1077291668,
      "d": 543.4775000000081,
      "v": 127
    },
    {
      "midi": 86,
      "hit": false,
      "t": 142116.1077291668,
      "d": 543.4775000000081,
      "v": 127
    },
    {
      "midi": 89,
      "hit": false,
      "t": 142116.1077291668,
      "d": 543.4775000000081,
      "v": 127
    },
    {
      "midi": 33,
      "hit": false,
      "t": 142173.71399999992,
      "d": 543.4775000000081,
      "v": 127
    },
    {
      "midi": 45,
      "hit": false,
      "t": 142173.71399999992,
      "d": 543.4775000000081,
      "v": 127
    },
    {
      "midi": 75,
      "hit": false,
      "t": 142768.2807291668,
      "d": 543.4775000000081,
      "v": 127
    },
    {
      "midi": 79,
      "hit": false,
      "t": 142768.2807291668,
      "d": 543.4775000000081,
      "v": 127
    },
    {
      "midi": 82,
      "hit": false,
      "t": 142768.2807291668,
      "d": 543.4775000000081,
      "v": 127
    },
    {
      "midi": 87,
      "hit": false,
      "t": 142768.2807291668,
      "d": 543.4775000000081,
      "v": 127
    },
    {
      "midi": 36,
      "hit": false,
      "t": 142825.88699999993,
      "d": 543.4775000000081,
      "v": 127
    },
    {
      "midi": 48,
      "hit": false,
      "t": 142825.88699999993,
      "d": 543.4775000000081,
      "v": 127
    },
    {
      "midi": 63,
      "hit": false,
      "t": 143420.45372916682,
      "d": 210.59753125000861,
      "v": 127
    },
    {
      "midi": 67,
      "hit": false,
      "t": 143420.45372916682,
      "d": 210.59753125000861,
      "v": 127
    },
    {
      "midi": 70,
      "hit": false,
      "t": 143420.45372916682,
      "d": 210.59753125000861,
      "v": 127
    },
    {
      "midi": 75,
      "hit": false,
      "t": 143420.45372916682,
      "d": 210.59753125000861,
      "v": 127
    },
    {
      "midi": 34,
      "hit": false,
      "t": 143478.05999999994,
      "d": 543.4775000000081,
      "v": 127
    },
    {
      "midi": 46,
      "hit": false,
      "t": 143478.05999999994,
      "d": 543.4775000000081,
      "v": 127
    },
    {
      "midi": 63,
      "hit": false,
      "t": 143637.84472916683,
      "d": 210.59753125000861,
      "v": 127
    },
    {
      "midi": 67,
      "hit": false,
      "t": 143637.84472916683,
      "d": 210.59753125000861,
      "v": 127
    },
    {
      "midi": 70,
      "hit": false,
      "t": 143637.84472916683,
      "d": 210.59753125000861,
      "v": 127
    },
    {
      "midi": 75,
      "hit": false,
      "t": 143637.84472916683,
      "d": 210.59753125000861,
      "v": 127
    },
    {
      "midi": 63,
      "hit": false,
      "t": 143855.23572916683,
      "d": 210.59753125000861,
      "v": 127
    },
    {
      "midi": 67,
      "hit": false,
      "t": 143855.23572916683,
      "d": 210.59753125000861,
      "v": 127
    },
    {
      "midi": 70,
      "hit": false,
      "t": 143855.23572916683,
      "d": 210.59753125000861,
      "v": 127
    },
    {
      "midi": 75,
      "hit": false,
      "t": 143855.23572916683,
      "d": 210.59753125000861,
      "v": 127
    },
    {
      "midi": 64,
      "hit": false,
      "t": 144072.62672916683,
      "d": 1141.3027500000026,
      "v": 127
    },
    {
      "midi": 68,
      "hit": false,
      "t": 144072.62672916683,
      "d": 1141.3027500000026,
      "v": 127
    },
    {
      "midi": 71,
      "hit": false,
      "t": 144072.62672916683,
      "d": 1141.3027500000026,
      "v": 127
    },
    {
      "midi": 76,
      "hit": false,
      "t": 144072.62672916683,
      "d": 1141.3027500000026,
      "v": 127
    },
    {
      "midi": 41,
      "hit": false,
      "t": 144130.23299999995,
      "d": 543.4775000000081,
      "v": 127
    },
    {
      "midi": 53,
      "hit": false,
      "t": 144130.23299999995,
      "d": 543.4775000000081,
      "v": 127
    },
    {
      "midi": 46,
      "hit": false,
      "t": 144782.40599999996,
      "d": 1141.3027500000026,
      "v": 127
    },
    {
      "midi": 58,
      "hit": false,
      "t": 144782.40599999996,
      "d": 1141.3027500000026,
      "v": 127
    },
    {
      "midi": 63,
      "hit": false,
      "t": 146029.14572916683,
      "d": 210.59753125000861,
      "v": 127
    },
    {
      "midi": 67,
      "hit": false,
      "t": 146029.14572916683,
      "d": 210.59753125000861,
      "v": 127
    },
    {
      "midi": 70,
      "hit": false,
      "t": 146029.14572916683,
      "d": 210.59753125000861,
      "v": 127
    },
    {
      "midi": 75,
      "hit": false,
      "t": 146029.14572916683,
      "d": 210.59753125000861,
      "v": 127
    },
    {
      "midi": 44,
      "hit": false,
      "t": 146086.75199999995,
      "d": 1141.3027500000026,
      "v": 127
    },
    {
      "midi": 56,
      "hit": false,
      "t": 146086.75199999995,
      "d": 1141.3027500000026,
      "v": 127
    },
    {
      "midi": 63,
      "hit": false,
      "t": 146246.53672916684,
      "d": 210.59753125000861,
      "v": 127
    },
    {
      "midi": 67,
      "hit": false,
      "t": 146246.53672916684,
      "d": 210.59753125000861,
      "v": 127
    },
    {
      "midi": 70,
      "hit": false,
      "t": 146246.53672916684,
      "d": 210.59753125000861,
      "v": 127
    },
    {
      "midi": 75,
      "hit": false,
      "t": 146246.53672916684,
      "d": 210.59753125000861,
      "v": 127
    },
    {
      "midi": 63,
      "hit": false,
      "t": 146463.92772916684,
      "d": 210.59753125000861,
      "v": 127
    },
    {
      "midi": 67,
      "hit": false,
      "t": 146463.92772916684,
      "d": 210.59753125000861,
      "v": 127
    },
    {
      "midi": 70,
      "hit": false,
      "t": 146463.92772916684,
      "d": 210.59753125000861,
      "v": 127
    },
    {
      "midi": 75,
      "hit": false,
      "t": 146463.92772916684,
      "d": 210.59753125000861,
      "v": 127
    },
    {
      "midi": 61,
      "hit": false,
      "t": 146681.31872916684,
      "d": 1141.3027500000026,
      "v": 127
    },
    {
      "midi": 65,
      "hit": false,
      "t": 146681.31872916684,
      "d": 1141.3027500000026,
      "v": 127
    },
    {
      "midi": 68,
      "hit": false,
      "t": 146681.31872916684,
      "d": 1141.3027500000026,
      "v": 127
    },
    {
      "midi": 73,
      "hit": false,
      "t": 146681.31872916684,
      "d": 1141.3027500000026,
      "v": 127
    },
    {
      "midi": 43,
      "hit": false,
      "t": 147391.09799999994,
      "d": 1141.3027500000026,
      "v": 127
    },
    {
      "midi": 55,
      "hit": false,
      "t": 147391.09799999994,
      "d": 1141.3027500000026,
      "v": 127
    },
    {
      "midi": 63,
      "hit": false,
      "t": 148637.83772916684,
      "d": 210.59753125000861,
      "v": 127
    },
    {
      "midi": 67,
      "hit": false,
      "t": 148637.83772916684,
      "d": 210.59753125000861,
      "v": 127
    },
    {
      "midi": 70,
      "hit": false,
      "t": 148637.83772916684,
      "d": 210.59753125000861,
      "v": 127
    },
    {
      "midi": 75,
      "hit": false,
      "t": 148637.83772916684,
      "d": 210.59753125000861,
      "v": 127
    },
    {
      "midi": 41,
      "hit": false,
      "t": 148695.44399999993,
      "d": 1141.3027500000026,
      "v": 127
    },
    {
      "midi": 53,
      "hit": false,
      "t": 148695.44399999993,
      "d": 1141.3027500000026,
      "v": 127
    },
    {
      "midi": 63,
      "hit": false,
      "t": 148855.22872916685,
      "d": 210.59753125000861,
      "v": 127
    },
    {
      "midi": 67,
      "hit": false,
      "t": 148855.22872916685,
      "d": 210.59753125000861,
      "v": 127
    },
    {
      "midi": 70,
      "hit": false,
      "t": 148855.22872916685,
      "d": 210.59753125000861,
      "v": 127
    },
    {
      "midi": 75,
      "hit": false,
      "t": 148855.22872916685,
      "d": 210.59753125000861,
      "v": 127
    },
    {
      "midi": 63,
      "hit": false,
      "t": 149072.61972916685,
      "d": 210.59753125000861,
      "v": 127
    },
    {
      "midi": 67,
      "hit": false,
      "t": 149072.61972916685,
      "d": 210.59753125000861,
      "v": 127
    },
    {
      "midi": 70,
      "hit": false,
      "t": 149072.61972916685,
      "d": 210.59753125000861,
      "v": 127
    },
    {
      "midi": 75,
      "hit": false,
      "t": 149072.61972916685,
      "d": 210.59753125000861,
      "v": 127
    },
    {
      "midi": 64,
      "hit": false,
      "t": 149290.01072916685,
      "d": 1141.3027500000026,
      "v": 127
    },
    {
      "midi": 68,
      "hit": false,
      "t": 149290.01072916685,
      "d": 1141.3027500000026,
      "v": 127
    },
    {
      "midi": 71,
      "hit": false,
      "t": 149290.01072916685,
      "d": 1141.3027500000026,
      "v": 127
    },
    {
      "midi": 76,
      "hit": false,
      "t": 149290.01072916685,
      "d": 1141.3027500000026,
      "v": 127
    },
    {
      "midi": 40,
      "hit": false,
      "t": 149999.78999999992,
      "d": 1141.3027500000026,
      "v": 127
    },
    {
      "midi": 52,
      "hit": false,
      "t": 149999.78999999992,
      "d": 1141.3027500000026,
      "v": 127
    },
    {
      "midi": 63,
      "hit": false,
      "t": 151246.52972916685,
      "d": 210.59753125000861,
      "v": 127
    },
    {
      "midi": 67,
      "hit": false,
      "t": 151246.52972916685,
      "d": 210.59753125000861,
      "v": 127
    },
    {
      "midi": 70,
      "hit": false,
      "t": 151246.52972916685,
      "d": 210.59753125000861,
      "v": 127
    },
    {
      "midi": 75,
      "hit": false,
      "t": 151246.52972916685,
      "d": 210.59753125000861,
      "v": 127
    },
    {
      "midi": 41,
      "hit": false,
      "t": 151304.1359999999,
      "d": 1141.3027500000026,
      "v": 127
    },
    {
      "midi": 53,
      "hit": false,
      "t": 151304.1359999999,
      "d": 1141.3027500000026,
      "v": 127
    },
    {
      "midi": 63,
      "hit": false,
      "t": 151463.92072916686,
      "d": 210.59753125000861,
      "v": 127
    },
    {
      "midi": 67,
      "hit": false,
      "t": 151463.92072916686,
      "d": 210.59753125000861,
      "v": 127
    },
    {
      "midi": 70,
      "hit": false,
      "t": 151463.92072916686,
      "d": 210.59753125000861,
      "v": 127
    },
    {
      "midi": 75,
      "hit": false,
      "t": 151463.92072916686,
      "d": 210.59753125000861,
      "v": 127
    },
    {
      "midi": 63,
      "hit": false,
      "t": 151681.31172916686,
      "d": 210.59753125000861,
      "v": 127
    },
    {
      "midi": 67,
      "hit": false,
      "t": 151681.31172916686,
      "d": 210.59753125000861,
      "v": 127
    },
    {
      "midi": 70,
      "hit": false,
      "t": 151681.31172916686,
      "d": 210.59753125000861,
      "v": 127
    },
    {
      "midi": 75,
      "hit": false,
      "t": 151681.31172916686,
      "d": 210.59753125000861,
      "v": 127
    },
    {
      "midi": 61,
      "hit": false,
      "t": 151898.70272916686,
      "d": 543.4775000000081,
      "v": 127
    },
    {
      "midi": 65,
      "hit": false,
      "t": 151898.70272916686,
      "d": 543.4775000000081,
      "v": 127
    },
    {
      "midi": 68,
      "hit": false,
      "t": 151898.70272916686,
      "d": 543.4775000000081,
      "v": 127
    },
    {
      "midi": 73,
      "hit": false,
      "t": 151898.70272916686,
      "d": 543.4775000000081,
      "v": 127
    },
    {
      "midi": 61,
      "hit": false,
      "t": 152550.87572916687,
      "d": 543.4775000000081,
      "v": 127
    },
    {
      "midi": 65,
      "hit": false,
      "t": 152550.87572916687,
      "d": 543.4775000000081,
      "v": 127
    },
    {
      "midi": 68,
      "hit": false,
      "t": 152550.87572916687,
      "d": 543.4775000000081,
      "v": 127
    },
    {
      "midi": 73,
      "hit": false,
      "t": 152550.87572916687,
      "d": 543.4775000000081,
      "v": 127
    },
    {
      "midi": 39,
      "hit": false,
      "t": 152608.4819999999,
      "d": 1141.3027500000026,
      "v": 127
    },
    {
      "midi": 51,
      "hit": false,
      "t": 152608.4819999999,
      "d": 1141.3027500000026,
      "v": 127
    },
    {
      "midi": 63,
      "hit": false,
      "t": 153203.04872916688,
      "d": 2445.648749999993,
      "v": 127
    },
    {
      "midi": 67,
      "hit": false,
      "t": 153203.04872916688,
      "d": 2445.648749999993,
      "v": 127
    },
    {
      "midi": 70,
      "hit": false,
      "t": 153203.04872916688,
      "d": 2445.648749999993,
      "v": 127
    },
    {
      "midi": 75,
      "hit": false,
      "t": 153203.04872916688,
      "d": 2445.648749999993,
      "v": 127
    },
    {
      "midi": 38,
      "hit": false,
      "t": 153912.8279999999,
      "d": 543.4775000000081,
      "v": 127
    },
    {
      "midi": 50,
      "hit": false,
      "t": 153912.8279999999,
      "d": 543.4775000000081,
      "v": 127
    },
    {
      "midi": 36,
      "hit": false,
      "t": 154565.0009999999,
      "d": 543.4775000000081,
      "v": 127
    },
    {
      "midi": 48,
      "hit": false,
      "t": 154565.0009999999,
      "d": 543.4775000000081,
      "v": 127
    },
    {
      "midi": 35,
      "hit": false,
      "t": 155217.1739999999,
      "d": 1141.3027500000026,
      "v": 127
    },
    {
      "midi": 47,
      "hit": false,
      "t": 155217.1739999999,
      "d": 1141.3027500000026,
      "v": 127
    },
    {
      "midi": 34,
      "hit": false,
      "t": 156521.5199999999,
      "d": 1793.4757500000123,
      "v": 127
    },
    {
      "midi": 46,
      "hit": false,
      "t": 156521.5199999999,
      "d": 1793.4757500000123,
      "v": 127
    },
    {
      "midi": 34,
      "hit": false,
      "t": 158478.0389999999,
      "d": 543.4775000000081,
      "v": 127
    },
    {
      "midi": 46,
      "hit": false,
      "t": 158478.0389999999,
      "d": 543.4775000000081,
      "v": 127
    },
    {
      "midi": 34,
      "hit": false,
      "t": 159130.2119999999,
      "d": 1793.4757500000123,
      "v": 127
    },
    {
      "midi": 46,
      "hit": false,
      "t": 159130.2119999999,
      "d": 1793.4757500000123,
      "v": 127
    },
    {
      "midi": 34,
      "hit": false,
      "t": 161086.7309999999,
      "d": 543.4775000000081,
      "v": 127
    },
    {
      "midi": 46,
      "hit": false,
      "t": 161086.7309999999,
      "d": 543.4775000000081,
      "v": 127
    },
    {
      "midi": 34,
      "hit": false,
      "t": 161738.90399999992,
      "d": 1793.4757500000123,
      "v": 127
    },
    {
      "midi": 46,
      "hit": false,
      "t": 161738.90399999992,
      "d": 1793.4757500000123,
      "v": 127
    },
    {
      "midi": 34,
      "hit": false,
      "t": 163695.42299999992,
      "d": 543.4775000000081,
      "v": 127
    },
    {
      "midi": 46,
      "hit": false,
      "t": 163695.42299999992,
      "d": 543.4775000000081,
      "v": 127
    },
    {
      "midi": 34,
      "hit": false,
      "t": 164347.59599999993,
      "d": 1793.4757500000123,
      "v": 127
    },
    {
      "midi": 46,
      "hit": false,
      "t": 164347.59599999993,
      "d": 1793.4757500000123,
      "v": 127
    },
    {
      "midi": 34,
      "hit": false,
      "t": 166304.11499999993,
      "d": 543.4775000000081,
      "v": 127
    },
    {
      "midi": 46,
      "hit": false,
      "t": 166304.11499999993,
      "d": 543.4775000000081,
      "v": 127
    },
    {
      "midi": 27,
      "hit": false,
      "t": 166956.28799999994,
      "d": 2445.648749999993,
      "v": 127
    },
    {
      "midi": 39,
      "hit": false,
      "t": 166956.28799999994,
      "d": 2445.648749999993,
      "v": 127
    }
  ]
}