{
  "jsonPath": "World/Classic Eurovision/Serafin Zubiri/sonaras.json",
  "path": "World\\Classic Eurovision\\Serafin Zubiri\\Soñarás.mid",
  "name": "Soñarás",
  "difficulty": "Advanced",
  "bpm": 101.00159919198721,
  "notes": [
    {
      "midi": 67,
      "hit": false,
      "t": 1788.1109999999999,
      "d": 1039.960390625,
      "v": 119
    },
    {
      "midi": 79,
      "hit": false,
      "t": 1788.1109999999999,
      "d": 1139.299890625,
      "v": 119
    },
    {
      "midi": 76,
      "hit": false,
      "t": 1788.1109999999999,
      "d": 1266.578625,
      "v": 127
    },
    {
      "midi": 72,
      "hit": false,
      "t": 1788.1109999999999,
      "d": 1316.2483750000001,
      "v": 119
    },
    {
      "midi": 48,
      "hit": false,
      "t": 1788.1109999999999,
      "d": 2331.373890625,
      "v": 127
    },
    {
      "midi": 60,
      "hit": false,
      "t": 2682.1665,
      "d": 5538.177125000002,
      "v": 107
    },
    {
      "midi": 67,
      "hit": false,
      "t": 2980.185,
      "d": 394.2536406250001,
      "v": 107
    },
    {
      "midi": 72,
      "hit": false,
      "t": 3281.307859375,
      "d": 1359.7094062500005,
      "v": 87
    },
    {
      "midi": 67,
      "hit": false,
      "t": 3573.117640625,
      "d": 1018.2298750000004,
      "v": 87
    },
    {
      "midi": 48,
      "hit": false,
      "t": 4473.381859375,
      "d": 592.9326406250002,
      "v": 119
    },
    {
      "midi": 67,
      "hit": false,
      "t": 4768.296,
      "d": 543.2628906250002,
      "v": 127
    },
    {
      "midi": 74,
      "hit": false,
      "t": 4768.296,
      "d": 596.0370000000003,
      "v": 127
    },
    {
      "midi": 72,
      "hit": false,
      "t": 4771.400359375,
      "d": 543.2628906250002,
      "v": 127
    },
    {
      "midi": 76,
      "hit": false,
      "t": 5364.3330000000005,
      "d": 1167.239125,
      "v": 127
    },
    {
      "midi": 72,
      "hit": false,
      "t": 5364.3330000000005,
      "d": 1486.9881406249997,
      "v": 119
    },
    {
      "midi": 67,
      "hit": false,
      "t": 5364.3330000000005,
      "d": 1812.9458750000003,
      "v": 119
    },
    {
      "midi": 48,
      "hit": false,
      "t": 5364.3330000000005,
      "d": 2778.4016406250003,
      "v": 119
    },
    {
      "midi": 79,
      "hit": false,
      "t": 6556.407,
      "d": 1909.1810156250021,
      "v": 107
    },
    {
      "midi": 76,
      "hit": false,
      "t": 6857.529859375,
      "d": 838.1770312500003,
      "v": 107
    },
    {
      "midi": 72,
      "hit": false,
      "t": 7155.5483593750005,
      "d": 1412.483515625,
      "v": 119
    },
    {
      "midi": 67,
      "hit": false,
      "t": 7748.481000000001,
      "d": 769.8811250000008,
      "v": 115
    },
    {
      "midi": 76,
      "hit": false,
      "t": 8344.518000000002,
      "d": 298.0184999999983,
      "v": 99
    },
    {
      "midi": 67,
      "hit": false,
      "t": 8940.555,
      "d": 866.1162656249999,
      "v": 107
    },
    {
      "midi": 71,
      "hit": false,
      "t": 8943.659359375,
      "d": 915.7860156250008,
      "v": 107
    },
    {
      "midi": 76,
      "hit": false,
      "t": 8943.659359375,
      "d": 915.7860156250008,
      "v": 107
    },
    {
      "midi": 74,
      "hit": false,
      "t": 8946.76371875,
      "d": 912.6816562500007,
      "v": 107
    },
    {
      "midi": 52,
      "hit": false,
      "t": 8946.76371875,
      "d": 3244.055546874999,
      "v": 115
    },
    {
      "midi": 64,
      "hit": false,
      "t": 9840.81921875,
      "d": 2353.1044062499986,
      "v": 103
    },
    {
      "midi": 86,
      "hit": false,
      "t": 10135.733359375,
      "d": 319.74901562500054,
      "v": 111
    },
    {
      "midi": 79,
      "hit": false,
      "t": 10135.733359375,
      "d": 788.5072812499984,
      "v": 87
    },
    {
      "midi": 83,
      "hit": false,
      "t": 10433.751859375001,
      "d": 440.81903124999917,
      "v": 99
    },
    {
      "midi": 74,
      "hit": false,
      "t": 10728.666000000001,
      "d": 245.24439062499732,
      "v": 83
    },
    {
      "midi": 71,
      "hit": false,
      "t": 11321.598640624998,
      "d": 645.7067500000012,
      "v": 95
    },
    {
      "midi": 79,
      "hit": false,
      "t": 11324.702999999998,
      "d": 2331.373890625,
      "v": 87
    },
    {
      "midi": 74,
      "hit": false,
      "t": 11920.739999999998,
      "d": 1561.4927656250002,
      "v": 119
    },
    {
      "midi": 71,
      "hit": false,
      "t": 12218.7585,
      "d": 1266.5786249999983,
      "v": 99
    },
    {
      "midi": 67,
      "hit": false,
      "t": 12516.777,
      "d": 1064.7952656249981,
      "v": 95
    },
    {
      "midi": 52,
      "hit": false,
      "t": 12519.881359375,
      "d": 2952.2457656249953,
      "v": 115
    },
    {
      "midi": 64,
      "hit": false,
      "t": 13410.832499999999,
      "d": 2061.294624999997,
      "v": 79
    },
    {
      "midi": 67,
      "hit": false,
      "t": 13708.850999999997,
      "d": 493.59314062500016,
      "v": 119
    },
    {
      "midi": 69,
      "hit": false,
      "t": 14003.765140624997,
      "d": 248.3487499999992,
      "v": 127
    },
    {
      "midi": 67,
      "hit": false,
      "t": 14304.887999999995,
      "d": 447.0277499999993,
      "v": 127
    },
    {
      "midi": 69,
      "hit": false,
      "t": 14304.887999999995,
      "d": 471.86262499999975,
      "v": 127
    },
    {
      "midi": 71,
      "hit": false,
      "t": 14304.887999999995,
      "d": 496.6975000000002,
      "v": 127
    },
    {
      "midi": 67,
      "hit": false,
      "t": 14900.924999999996,
      "d": 397.3580000000002,
      "v": 119
    },
    {
      "midi": 69,
      "hit": false,
      "t": 14900.924999999996,
      "d": 397.3580000000002,
      "v": 119
    },
    {
      "midi": 72,
      "hit": false,
      "t": 14900.924999999996,
      "d": 496.6975000000002,
      "v": 111
    },
    {
      "midi": 69,
      "hit": false,
      "t": 15500.066359374996,
      "d": 68.29590624999946,
      "v": 79
    },
    {
      "midi": 74,
      "hit": false,
      "t": 15500.066359374996,
      "d": 117.96565624999857,
      "v": 103
    },
    {
      "midi": 67,
      "hit": false,
      "t": 15500.066359374996,
      "d": 121.07001562499863,
      "v": 111
    },
    {
      "midi": 69,
      "hit": false,
      "t": 16099.207718749994,
      "d": 1704.293296875001,
      "v": 103
    },
    {
      "midi": 67,
      "hit": false,
      "t": 16102.312078124995,
      "d": 1008.9167968749989,
      "v": 115
    },
    {
      "midi": 72,
      "hit": false,
      "t": 16102.312078124995,
      "d": 1750.858687500002,
      "v": 111
    },
    {
      "midi": 53,
      "hit": false,
      "t": 16105.416437499995,
      "d": 2446.235187500004,
      "v": 107
    },
    {
      "midi": 60,
      "hit": false,
      "t": 16987.054499999995,
      "d": 2408.982875000005,
      "v": 91
    },
    {
      "midi": 65,
      "hit": false,
      "t": 17586.195859374995,
      "d": 192.47028124999997,
      "v": 87
    },
    {
      "midi": 65,
      "hit": false,
      "t": 17881.109999999997,
      "d": 965.4557656250036,
      "v": 119
    },
    {
      "midi": 74,
      "hit": false,
      "t": 17881.109999999997,
      "d": 1188.969640625004,
      "v": 119
    },
    {
      "midi": 69,
      "hit": false,
      "t": 17881.109999999997,
      "d": 1313.1440156250028,
      "v": 123
    },
    {
      "midi": 53,
      "hit": false,
      "t": 18778.269859375,
      "d": 568.0977656249997,
      "v": 115
    },
    {
      "midi": 65,
      "hit": false,
      "t": 19073.184,
      "d": 372.5231249999997,
      "v": 107
    },
    {
      "midi": 69,
      "hit": false,
      "t": 19371.2025,
      "d": 96.2351406250018,
      "v": 103
    },
    {
      "midi": 65,
      "hit": false,
      "t": 19669.221,
      "d": 993.3950000000004,
      "v": 115
    },
    {
      "midi": 76,
      "hit": false,
      "t": 19669.221,
      "d": 1188.9696406250005,
      "v": 103
    },
    {
      "midi": 69,
      "hit": false,
      "t": 19669.221,
      "d": 1337.9788906249996,
      "v": 115
    },
    {
      "midi": 53,
      "hit": false,
      "t": 19669.221,
      "d": 1514.9273749999993,
      "v": 115
    },
    {
      "midi": 60,
      "hit": false,
      "t": 20569.48521875,
      "d": 2154.425406250004,
      "v": 99
    },
    {
      "midi": 65,
      "hit": false,
      "t": 20861.295000000002,
      "d": 419.0885156250006,
      "v": 107
    },
    {
      "midi": 69,
      "hit": false,
      "t": 21159.3135,
      "d": 170.7397656250032,
      "v": 95
    },
    {
      "midi": 65,
      "hit": false,
      "t": 21460.436359375002,
      "d": 1012.0211562500008,
      "v": 115
    },
    {
      "midi": 69,
      "hit": false,
      "t": 21460.436359375002,
      "d": 1064.7952656250018,
      "v": 119
    },
    {
      "midi": 74,
      "hit": false,
      "t": 21460.436359375002,
      "d": 1086.5257812500022,
      "v": 111
    },
    {
      "midi": 53,
      "hit": false,
      "t": 21460.436359375002,
      "d": 1235.5350312500013,
      "v": 119
    },
    {
      "midi": 72,
      "hit": false,
      "t": 22646.301640625003,
      "d": 276.28798437500154,
      "v": 115
    },
    {
      "midi": 69,
      "hit": false,
      "t": 22950.528859375005,
      "d": 43.461031250000815,
      "v": 103
    },
    {
      "midi": 67,
      "hit": false,
      "t": 23245.443000000007,
      "d": 1685.6671406249989,
      "v": 107
    },
    {
      "midi": 52,
      "hit": false,
      "t": 23245.443000000007,
      "d": 3175.7596406249977,
      "v": 115
    },
    {
      "midi": 59,
      "hit": false,
      "t": 23838.375640625007,
      "d": 2632.4967499999984,
      "v": 79
    },
    {
      "midi": 64,
      "hit": false,
      "t": 24139.498500000005,
      "d": 1387.6486406250006,
      "v": 111
    },
    {
      "midi": 71,
      "hit": false,
      "t": 24437.517000000007,
      "d": 419.08851562499694,
      "v": 111
    },
    {
      "midi": 76,
      "hit": false,
      "t": 24735.535500000005,
      "d": 220.4095156250005,
      "v": 111
    },
    {
      "midi": 79,
      "hit": false,
      "t": 25036.658359375007,
      "d": 1235.5350312499977,
      "v": 127
    },
    {
      "midi": 67,
      "hit": false,
      "t": 25036.658359375007,
      "d": 1263.4742656249982,
      "v": 127
    },
    {
      "midi": 71,
      "hit": false,
      "t": 25039.762718750007,
      "d": 1455.9445468749982,
      "v": 127
    },
    {
      "midi": 64,
      "hit": false,
      "t": 25927.609500000006,
      "d": 493.59314062499834,
      "v": 99
    },
    {
      "midi": 76,
      "hit": false,
      "t": 26225.628000000004,
      "d": 245.24439062500096,
      "v": 91
    },
    {
      "midi": 67,
      "hit": false,
      "t": 26523.646500000006,
      "d": 96.2351406250018,
      "v": 99
    },
    {
      "midi": 73,
      "hit": false,
      "t": 26821.665000000008,
      "d": 990.2906406250004,
      "v": 107
    },
    {
      "midi": 69,
      "hit": false,
      "t": 26821.665000000008,
      "d": 1039.9603906250013,
      "v": 99
    },
    {
      "midi": 57,
      "hit": false,
      "t": 26821.665000000008,
      "d": 3610.3699531250095,
      "v": 99
    },
    {
      "midi": 45,
      "hit": false,
      "t": 27718.824859375007,
      "d": 1809.8415156250048,
      "v": 127
    },
    {
      "midi": 64,
      "hit": false,
      "t": 28010.63464062501,
      "d": 471.8626250000016,
      "v": 127
    },
    {
      "midi": 69,
      "hit": false,
      "t": 28013.73900000001,
      "d": 521.5323750000025,
      "v": 123
    },
    {
      "midi": 73,
      "hit": false,
      "t": 28013.73900000001,
      "d": 571.2021250000034,
      "v": 119
    },
    {
      "midi": 69,
      "hit": false,
      "t": 28609.776000000013,
      "d": 993.3950000000004,
      "v": 103
    },
    {
      "midi": 64,
      "hit": false,
      "t": 28609.776000000013,
      "d": 1015.1255156250008,
      "v": 123
    },
    {
      "midi": 74,
      "hit": false,
      "t": 28609.776000000013,
      "d": 1064.7952656250018,
      "v": 127
    },
    {
      "midi": 64,
      "hit": false,
      "t": 29798.745640625013,
      "d": 99.33950000000186,
      "v": 111
    },
    {
      "midi": 69,
      "hit": false,
      "t": 29801.850000000013,
      "d": 99.33950000000186,
      "v": 103
    },
    {
      "midi": 76,
      "hit": false,
      "t": 29801.850000000013,
      "d": 121.07001562500227,
      "v": 99
    },
    {
      "midi": 65,
      "hit": false,
      "t": 30404.095718750017,
      "d": 863.0119062500016,
      "v": 107
    },
    {
      "midi": 69,
      "hit": false,
      "t": 30407.200078125017,
      "d": 909.5772968750025,
      "v": 103
    },
    {
      "midi": 77,
      "hit": false,
      "t": 30407.200078125017,
      "d": 909.5772968750025,
      "v": 119
    },
    {
      "midi": 50,
      "hit": false,
      "t": 30407.200078125017,
      "d": 2793.9234375000015,
      "v": 115
    },
    {
      "midi": 62,
      "hit": false,
      "t": 31291.94250000002,
      "d": 1561.4927656250002,
      "v": 107
    },
    {
      "midi": 74,
      "hit": false,
      "t": 31586.85664062502,
      "d": 1216.9088749999974,
      "v": 91
    },
    {
      "midi": 81,
      "hit": false,
      "t": 31891.08385937502,
      "d": 341.4795312499991,
      "v": 115
    },
    {
      "midi": 77,
      "hit": false,
      "t": 32189.102359375018,
      "d": 664.3329062500015,
      "v": 123
    },
    {
      "midi": 76,
      "hit": false,
      "t": 32782.03500000002,
      "d": 592.9326406250038,
      "v": 103
    },
    {
      "midi": 62,
      "hit": false,
      "t": 33086.26221875002,
      "d": 313.5402968750059,
      "v": 103
    },
    {
      "midi": 74,
      "hit": false,
      "t": 33378.07200000002,
      "d": 96.2351406250018,
      "v": 115
    },
    {
      "midi": 65,
      "hit": false,
      "t": 33977.213359375026,
      "d": 1036.856031250005,
      "v": 119
    },
    {
      "midi": 76,
      "hit": false,
      "t": 33980.317718750026,
      "d": 1008.9167968750044,
      "v": 115
    },
    {
      "midi": 71,
      "hit": false,
      "t": 33980.317718750026,
      "d": 1083.4214218750058,
      "v": 115
    },
    {
      "midi": 55,
      "hit": false,
      "t": 33980.317718750026,
      "d": 1455.9445468750127,
      "v": 115
    },
    {
      "midi": 62,
      "hit": false,
      "t": 34868.16450000003,
      "d": 546.3672500000102,
      "v": 87
    },
    {
      "midi": 69,
      "hit": false,
      "t": 35163.07864062503,
      "d": 74.5046250000014,
      "v": 123
    },
    {
      "midi": 74,
      "hit": false,
      "t": 35163.07864062503,
      "d": 99.33950000000186,
      "v": 115
    },
    {
      "midi": 75,
      "hit": false,
      "t": 35765.32435937504,
      "d": 1462.1532656249983,
      "v": 123
    },
    {
      "midi": 71,
      "hit": false,
      "t": 35765.32435937504,
      "d": 1583.2232812500006,
      "v": 123
    },
    {
      "midi": 55,
      "hit": false,
      "t": 35768.42871875004,
      "d": 1210.7001562500009,
      "v": 119
    },
    {
      "midi": 63,
      "hit": false,
      "t": 36954.29400000004,
      "d": 46.56539062500087,
      "v": 95
    },
    {
      "midi": 67,
      "hit": false,
      "t": 37249.208140625036,
      "d": 198.67900000000373,
      "v": 55
    },
    {
      "midi": 67,
      "hit": false,
      "t": 37550.33100000004,
      "d": 968.5601250000036,
      "v": 87
    },
    {
      "midi": 72,
      "hit": false,
      "t": 37550.33100000004,
      "d": 1337.9788906250033,
      "v": 99
    },
    {
      "midi": 48,
      "hit": false,
      "t": 37550.33100000004,
      "d": 1387.6486406250042,
      "v": 119
    },
    {
      "midi": 76,
      "hit": false,
      "t": 37550.33100000004,
      "d": 1486.988140625006,
      "v": 107
    },
    {
      "midi": 60,
      "hit": false,
      "t": 38447.490859375044,
      "d": 918.89037500001,
      "v": 107
    },
    {
      "midi": 67,
      "hit": false,
      "t": 38739.30064062504,
      "d": 471.86262500000885,
      "v": 95
    },
    {
      "midi": 72,
      "hit": false,
      "t": 39040.42350000005,
      "d": 245.2443906250046,
      "v": 79
    },
    {
      "midi": 70,
      "hit": false,
      "t": 39335.33764062505,
      "d": 127.27873437500239,
      "v": 87
    },
    {
      "midi": 71,
      "hit": false,
      "t": 39335.33764062505,
      "d": 127.27873437500239,
      "v": 91
    },
    {
      "midi": 67,
      "hit": false,
      "t": 39335.33764062505,
      "d": 993.3950000000114,
      "v": 103
    },
    {
      "midi": 48,
      "hit": false,
      "t": 39335.33764062505,
      "d": 1440.4227500000125,
      "v": 115
    },
    {
      "midi": 76,
      "hit": false,
      "t": 39335.33764062505,
      "d": 1518.031734375014,
      "v": 107
    },
    {
      "midi": 71,
      "hit": false,
      "t": 39636.46050000006,
      "d": 145.90489062500274,
      "v": 59
    },
    {
      "midi": 71,
      "hit": false,
      "t": 39785.46975000006,
      "d": 816.4465156250008,
      "v": 47
    },
    {
      "midi": 60,
      "hit": false,
      "t": 40232.49750000006,
      "d": 894.0555000000022,
      "v": 103
    },
    {
      "midi": 67,
      "hit": false,
      "t": 40527.41164062506,
      "d": 1663.9366250000094,
      "v": 99
    },
    {
      "midi": 71,
      "hit": false,
      "t": 40828.53450000007,
      "d": 270.0792656249978,
      "v": 91
    },
    {
      "midi": 72,
      "hit": false,
      "t": 41132.761718750065,
      "d": 1033.7516718750048,
      "v": 107
    },
    {
      "midi": 48,
      "hit": false,
      "t": 41132.761718750065,
      "d": 2051.981546875002,
      "v": 111
    },
    {
      "midi": 76,
      "hit": false,
      "t": 41135.866078125066,
      "d": 1129.9868125000066,
      "v": 103
    },
    {
      "midi": 60,
      "hit": false,
      "t": 42020.60850000007,
      "d": 2058.190265625002,
      "v": 115
    },
    {
      "midi": 72,
      "hit": false,
      "t": 42315.52264062507,
      "d": 298.0184999999983,
      "v": 119
    },
    {
      "midi": 76,
      "hit": false,
      "t": 42616.64550000007,
      "d": 245.24439062499732,
      "v": 111
    },
    {
      "midi": 79,
      "hit": false,
      "t": 42914.66400000007,
      "d": 1192.0740000000005,
      "v": 127
    },
    {
      "midi": 48,
      "hit": false,
      "t": 43659.71025000007,
      "d": 447.0277500000011,
      "v": 79
    },
    {
      "midi": 86,
      "hit": false,
      "t": 44106.73800000007,
      "d": 298.0184999999983,
      "v": 127
    },
    {
      "midi": 84,
      "hit": false,
      "t": 44407.86085937507,
      "d": 43.461031250000815,
      "v": 119
    },
    {
      "midi": 45,
      "hit": false,
      "t": 44705.87935937507,
      "d": 887.8467812499948,
      "v": 123
    },
    {
      "midi": 81,
      "hit": false,
      "t": 44705.87935937507,
      "d": 3250.264265624988,
      "v": 103
    },
    {
      "midi": 57,
      "hit": false,
      "t": 45603.03921875006,
      "d": 139.69617187500262,
      "v": 103
    },
    {
      "midi": 76,
      "hit": false,
      "t": 45894.84900000007,
      "d": 1490.0924999999916,
      "v": 107
    },
    {
      "midi": 64,
      "hit": false,
      "t": 46192.867500000066,
      "d": 1220.0132343749938,
      "v": 115
    },
    {
      "midi": 72,
      "hit": false,
      "t": 46490.886000000064,
      "d": 1514.927374999992,
      "v": 115
    },
    {
      "midi": 69,
      "hit": false,
      "t": 47090.02735937506,
      "d": 639.4980312499974,
      "v": 127
    },
    {
      "midi": 67,
      "hit": false,
      "t": 47384.94150000006,
      "d": 294.91414062499825,
      "v": 127
    },
    {
      "midi": 76,
      "hit": false,
      "t": 47679.85564062506,
      "d": 596.0369999999966,
      "v": 107
    },
    {
      "midi": 69,
      "hit": false,
      "t": 47980.978500000056,
      "d": 220.40951562499686,
      "v": 99
    },
    {
      "midi": 74,
      "hit": false,
      "t": 48278.997000000054,
      "d": 1139.2998906249995,
      "v": 119
    },
    {
      "midi": 69,
      "hit": false,
      "t": 48278.997000000054,
      "d": 1192.0740000000005,
      "v": 103
    },
    {
      "midi": 50,
      "hit": false,
      "t": 48278.997000000054,
      "d": 2483.48750000001,
      "v": 123
    },
    {
      "midi": 78,
      "hit": false,
      "t": 48278.997000000054,
      "d": 3225.4293906250095,
      "v": 107
    },
    {
      "midi": 57,
      "hit": false,
      "t": 48871.92964062506,
      "d": 2359.313125000008,
      "v": 87
    },
    {
      "midi": 62,
      "hit": false,
      "t": 49173.052500000056,
      "d": 1735.3368906250107,
      "v": 123
    },
    {
      "midi": 66,
      "hit": false,
      "t": 49471.071000000054,
      "d": 170.7397656250032,
      "v": 127
    },
    {
      "midi": 67,
      "hit": false,
      "t": 49772.19385937506,
      "d": 266.97490624999773,
      "v": 111
    },
    {
      "midi": 69,
      "hit": false,
      "t": 50073.31671875006,
      "d": 686.0634218750056,
      "v": 127
    },
    {
      "midi": 74,
      "hit": false,
      "t": 50660.04064062506,
      "d": 645.7067500000048,
      "v": 127
    },
    {
      "midi": 50,
      "hit": false,
      "t": 50961.16350000007,
      "d": 223.51387499999691,
      "v": 103
    },
    {
      "midi": 69,
      "hit": false,
      "t": 51259.182000000066,
      "d": 543.2628906249956,
      "v": 103
    },
    {
      "midi": 68,
      "hit": false,
      "t": 51858.32335937506,
      "d": 1039.9603906249977,
      "v": 103
    },
    {
      "midi": 72,
      "hit": false,
      "t": 51861.42771875006,
      "d": 1086.5257812499985,
      "v": 111
    },
    {
      "midi": 53,
      "hit": false,
      "t": 51861.42771875006,
      "d": 1679.4584218750024,
      "v": 127
    },
    {
      "midi": 60,
      "hit": false,
      "t": 52451.25600000006,
      "d": 2505.2180156250106,
      "v": 99
    },
    {
      "midi": 65,
      "hit": false,
      "t": 52755.48321875006,
      "d": 2104.7556562500104,
      "v": 115
    },
    {
      "midi": 68,
      "hit": false,
      "t": 53047.29300000006,
      "d": 443.92339062500105,
      "v": 127
    },
    {
      "midi": 72,
      "hit": false,
      "t": 53047.29300000006,
      "d": 493.593140625002,
      "v": 127
    },
    {
      "midi": 79,
      "hit": false,
      "t": 53050.39735937506,
      "d": 465.65390625000146,
      "v": 127
    },
    {
      "midi": 72,
      "hit": false,
      "t": 53643.33000000007,
      "d": 493.593140625002,
      "v": 127
    },
    {
      "midi": 68,
      "hit": false,
      "t": 53643.33000000007,
      "d": 1241.7437500000015,
      "v": 127
    },
    {
      "midi": 77,
      "hit": false,
      "t": 53643.33000000007,
      "d": 1437.3183906250051,
      "v": 127
    },
    {
      "midi": 53,
      "hit": false,
      "t": 54543.59421875007,
      "d": 415.9841562500005,
      "v": 107
    },
    {
      "midi": 72,
      "hit": false,
      "t": 54835.40400000007,
      "d": 298.0185000000056,
      "v": 119
    },
    {
      "midi": 68,
      "hit": false,
      "t": 55139.63121875007,
      "d": 93.13078125000175,
      "v": 103
    },
    {
      "midi": 65,
      "hit": false,
      "t": 55440.75407812507,
      "d": 1651.5191875000091,
      "v": 115
    },
    {
      "midi": 55,
      "hit": false,
      "t": 55440.75407812507,
      "d": 2824.9670312500166,
      "v": 119
    },
    {
      "midi": 74,
      "hit": false,
      "t": 55443.85843750007,
      "d": 1151.717328125007,
      "v": 127
    },
    {
      "midi": 69,
      "hit": false,
      "t": 55443.85843750007,
      "d": 1552.1796875000073,
      "v": 123
    },
    {
      "midi": 43,
      "hit": false,
      "t": 56325.496500000074,
      "d": 592.9326406250038,
      "v": 123
    },
    {
      "midi": 77,
      "hit": false,
      "t": 56620.41064062508,
      "d": 325.95773437499884,
      "v": 123
    },
    {
      "midi": 74,
      "hit": false,
      "t": 56924.63785937508,
      "d": 245.2443906250046,
      "v": 123
    },
    {
      "midi": 43,
      "hit": false,
      "t": 57219.55200000008,
      "d": 766.7767656249998,
      "v": 123
    },
    {
      "midi": 74,
      "hit": false,
      "t": 57219.55200000008,
      "d": 1142.4042500000069,
      "v": 103
    },
    {
      "midi": 71,
      "hit": false,
      "t": 57219.55200000008,
      "d": 1486.988140625006,
      "v": 123
    },
    {
      "midi": 67,
      "hit": false,
      "t": 57219.55200000008,
      "d": 1518.0317343750066,
      "v": 119
    },
    {
      "midi": 43,
      "hit": false,
      "t": 58119.816218750086,
      "d": 114.86129687500215,
      "v": 99
    },
    {
      "midi": 76,
      "hit": false,
      "t": 58414.73035937509,
      "d": 242.14003124999726,
      "v": 103
    },
    {
      "midi": 74,
      "hit": false,
      "t": 58712.74885937509,
      "d": 68.29590625000128,
      "v": 115
    },
    {
      "midi": 76,
      "hit": false,
      "t": 59013.87171875009,
      "d": 1185.8652812500077,
      "v": 119
    },
    {
      "midi": 67,
      "hit": false,
      "t": 59013.87171875009,
      "d": 1930.911531250007,
      "v": 115
    },
    {
      "midi": 72,
      "hit": false,
      "t": 59016.97607812509,
      "d": 2421.400312500009,
      "v": 119
    },
    {
      "midi": 48,
      "hit": false,
      "t": 59016.97607812509,
      "d": 2545.5746875000114,
      "v": 127
    },
    {
      "midi": 60,
      "hit": false,
      "t": 59907.92721875009,
      "d": 5628.203546875011,
      "v": 119
    },
    {
      "midi": 79,
      "hit": false,
      "t": 60199.737000000096,
      "d": 1095.8388593749987,
      "v": 107
    },
    {
      "midi": 76,
      "hit": false,
      "t": 60497.755500000094,
      "d": 596.0370000000039,
      "v": 95
    },
    {
      "midi": 67,
      "hit": false,
      "t": 61096.8968593751,
      "d": 490.4887812500019,
      "v": 95
    },
    {
      "midi": 79,
      "hit": false,
      "t": 61394.915359375096,
      "d": 217.30515625000407,
      "v": 75
    },
    {
      "midi": 76,
      "hit": false,
      "t": 61394.915359375096,
      "d": 242.14003125000454,
      "v": 107
    },
    {
      "midi": 71,
      "hit": false,
      "t": 61696.0382187501,
      "d": 835.0726718750011,
      "v": 127
    },
    {
      "midi": 67,
      "hit": false,
      "t": 61696.0382187501,
      "d": 1781.9022812500043,
      "v": 127
    },
    {
      "midi": 79,
      "hit": false,
      "t": 61696.0382187501,
      "d": 1906.0766562500066,
      "v": 119
    },
    {
      "midi": 48,
      "hit": false,
      "t": 61699.1425781251,
      "d": 434.6103125000009,
      "v": 115
    },
    {
      "midi": 74,
      "hit": false,
      "t": 61699.1425781251,
      "d": 909.5772968750025,
      "v": 127
    },
    {
      "midi": 48,
      "hit": false,
      "t": 62583.885000000104,
      "d": 794.7160000000003,
      "v": 119
    },
    {
      "midi": 72,
      "hit": false,
      "t": 62583.885000000104,
      "d": 993.3950000000041,
      "v": 111
    },
    {
      "midi": 76,
      "hit": false,
      "t": 62583.885000000104,
      "d": 1015.1255156250045,
      "v": 111
    },
    {
      "midi": 48,
      "hit": false,
      "t": 63779.06335937511,
      "d": 1707.3976562499956,
      "v": 119
    },
    {
      "midi": 88,
      "hit": false,
      "t": 64080.18621875011,
      "d": 859.9075468750016,
      "v": 119
    },
    {
      "midi": 79,
      "hit": false,
      "t": 64375.10035937511,
      "d": 540.1585312500029,
      "v": 107
    },
    {
      "midi": 76,
      "hit": false,
      "t": 64964.92864062511,
      "d": 49.66975000000093,
      "v": 115
    },
    {
      "midi": 72,
      "hit": false,
      "t": 65266.05150000011,
      "d": 468.75826562499424,
      "v": 111
    },
    {
      "midi": 67,
      "hit": false,
      "t": 65560.9656406251,
      "d": 276.2879843749979,
      "v": 91
    },
    {
      "midi": 71,
      "hit": false,
      "t": 66163.2113593751,
      "d": 1161.0304062499927,
      "v": 103
    },
    {
      "midi": 76,
      "hit": false,
      "t": 66163.2113593751,
      "d": 2775.2972812499647,
      "v": 99
    },
    {
      "midi": 67,
      "hit": false,
      "t": 66166.31571875009,
      "d": 959.2470468749962,
      "v": 91
    },
    {
      "midi": 52,
      "hit": false,
      "t": 66166.31571875009,
      "d": 3442.73454687497,
      "v": 115
    },
    {
      "midi": 64,
      "hit": false,
      "t": 67057.26685937509,
      "d": 2703.8970156249707,
      "v": 99
    },
    {
      "midi": 67,
      "hit": false,
      "t": 67349.07664062509,
      "d": 447.02774999999383,
      "v": 115
    },
    {
      "midi": 69,
      "hit": false,
      "t": 67650.19950000009,
      "d": 344.58389062498463,
      "v": 123
    },
    {
      "midi": 71,
      "hit": false,
      "t": 67954.42671875008,
      "d": 537.0541718749882,
      "v": 127
    },
    {
      "midi": 74,
      "hit": false,
      "t": 68848.48221875007,
      "d": 859.9075468749943,
      "v": 107
    },
    {
      "midi": 67,
      "hit": false,
      "t": 69736.32900000006,
      "d": 1266.5786249999946,
      "v": 87
    },
    {
      "midi": 76,
      "hit": false,
      "t": 69736.32900000006,
      "d": 1514.9273749999847,
      "v": 99
    },
    {
      "midi": 71,
      "hit": false,
      "t": 69736.32900000006,
      "d": 1611.1625156249793,
      "v": 95
    },
    {
      "midi": 52,
      "hit": false,
      "t": 69736.32900000006,
      "d": 2952.245765624946,
      "v": 91
    },
    {
      "midi": 59,
      "hit": false,
      "t": 70633.48885937505,
      "d": 2129.5905312499235,
      "v": 95
    },
    {
      "midi": 64,
      "hit": false,
      "t": 70928.40300000005,
      "d": 1812.9458749999321,
      "v": 115
    },
    {
      "midi": 67,
      "hit": false,
      "t": 71226.42150000004,
      "d": 195.5746406249964,
      "v": 115
    },
    {
      "midi": 76,
      "hit": false,
      "t": 71524.44000000003,
      "d": 96.23514062499453,
      "v": 127
    },
    {
      "midi": 67,
      "hit": false,
      "t": 71524.44000000003,
      "d": 447.02774999999383,
      "v": 119
    },
    {
      "midi": 71,
      "hit": false,
      "t": 71524.44000000003,
      "d": 493.5931406249874,
      "v": 127
    },
    {
      "midi": 67,
      "hit": false,
      "t": 72120.47700000001,
      "d": 397.3579999999929,
      "v": 111
    },
    {
      "midi": 71,
      "hit": false,
      "t": 72120.47700000001,
      "d": 397.3579999999929,
      "v": 115
    },
    {
      "midi": 74,
      "hit": false,
      "t": 72120.47700000001,
      "d": 443.9233906249865,
      "v": 123
    },
    {
      "midi": 76,
      "hit": false,
      "t": 72716.514,
      "d": 71.40026562497951,
      "v": 127
    },
    {
      "midi": 67,
      "hit": false,
      "t": 72719.61835937499,
      "d": 71.40026562497951,
      "v": 111
    },
    {
      "midi": 71,
      "hit": false,
      "t": 72719.61835937499,
      "d": 71.40026562497951,
      "v": 127
    },
    {
      "midi": 69,
      "hit": false,
      "t": 73318.75971874996,
      "d": 859.9075468749943,
      "v": 123
    },
    {
      "midi": 67,
      "hit": false,
      "t": 73321.86407812496,
      "d": 807.1334375000006,
      "v": 111
    },
    {
      "midi": 72,
      "hit": false,
      "t": 73321.86407812496,
      "d": 909.5772968749952,
      "v": 115
    },
    {
      "midi": 53,
      "hit": false,
      "t": 73321.86407812496,
      "d": 3293.7252968749817,
      "v": 119
    },
    {
      "midi": 60,
      "hit": false,
      "t": 73905.48364062495,
      "d": 2738.0449687499786,
      "v": 87
    },
    {
      "midi": 65,
      "hit": false,
      "t": 74206.60649999995,
      "d": 2408.982874999987,
      "v": 111
    },
    {
      "midi": 72,
      "hit": false,
      "t": 74501.52064062495,
      "d": 1514.9273749999993,
      "v": 119
    },
    {
      "midi": 81,
      "hit": false,
      "t": 74805.74785937495,
      "d": 1732.2325312499888,
      "v": 127
    },
    {
      "midi": 77,
      "hit": false,
      "t": 75103.76635937496,
      "d": 564.993406249996,
      "v": 127
    },
    {
      "midi": 76,
      "hit": false,
      "t": 75696.69899999995,
      "d": 571.2021249999962,
      "v": 115
    },
    {
      "midi": 72,
      "hit": false,
      "t": 76289.63164062494,
      "d": 375.6274843749852,
      "v": 79
    },
    {
      "midi": 74,
      "hit": false,
      "t": 76590.75449999994,
      "d": 55.878468749986496,
      "v": 111
    },
    {
      "midi": 67,
      "hit": false,
      "t": 76891.87735937492,
      "d": 990.2906406249967,
      "v": 107
    },
    {
      "midi": 72,
      "hit": false,
      "t": 76891.87735937492,
      "d": 1188.9696406250005,
      "v": 107
    },
    {
      "midi": 69,
      "hit": false,
      "t": 76891.87735937492,
      "d": 1359.7094062499964,
      "v": 95
    },
    {
      "midi": 53,
      "hit": false,
      "t": 76891.87735937492,
      "d": 1657.727906250002,
      "v": 119
    },
    {
      "midi": 60,
      "hit": false,
      "t": 77782.82849999992,
      "d": 2135.7992499999673,
      "v": 71
    },
    {
      "midi": 67,
      "hit": false,
      "t": 78083.95135937491,
      "d": 391.14928125000733,
      "v": 91
    },
    {
      "midi": 69,
      "hit": false,
      "t": 78375.76114062492,
      "d": 794.7159999999858,
      "v": 99
    },
    {
      "midi": 72,
      "hit": false,
      "t": 78524.77039062492,
      "d": 474.9669843749871,
      "v": 31
    },
    {
      "midi": 53,
      "hit": false,
      "t": 78679.98835937493,
      "d": 1235.535031249965,
      "v": 111
    },
    {
      "midi": 65,
      "hit": false,
      "t": 78683.09271874992,
      "d": 68.29590625000128,
      "v": 55
    },
    {
      "midi": 65,
      "hit": false,
      "t": 78978.00685937492,
      "d": 1213.8045156249718,
      "v": 111
    },
    {
      "midi": 69,
      "hit": false,
      "t": 79272.9209999999,
      "d": 918.8903749999881,
      "v": 111
    },
    {
      "midi": 72,
      "hit": false,
      "t": 79570.9394999999,
      "d": 270.0792656249978,
      "v": 127
    },
    {
      "midi": 77,
      "hit": false,
      "t": 79868.9579999999,
      "d": 298.01849999999104,
      "v": 119
    },
    {
      "midi": 72,
      "hit": false,
      "t": 80166.97649999989,
      "d": 99.33950000000186,
      "v": 127
    },
    {
      "midi": 76,
      "hit": false,
      "t": 80471.2037187499,
      "d": 1157.9260468749999,
      "v": 115
    },
    {
      "midi": 52,
      "hit": false,
      "t": 80471.2037187499,
      "d": 1431.109671875005,
      "v": 127
    },
    {
      "midi": 67,
      "hit": false,
      "t": 80471.2037187499,
      "d": 1530.4491718749923,
      "v": 115
    },
    {
      "midi": 71,
      "hit": false,
      "t": 80471.2037187499,
      "d": 1580.1189218749932,
      "v": 115
    },
    {
      "midi": 59,
      "hit": false,
      "t": 80766.11785937489,
      "d": 1462.153265624991,
      "v": 87
    },
    {
      "midi": 64,
      "hit": false,
      "t": 81359.0504999999,
      "d": 596.0369999999966,
      "v": 91
    },
    {
      "midi": 79,
      "hit": false,
      "t": 81653.9646406249,
      "d": 276.2879843749979,
      "v": 107
    },
    {
      "midi": 76,
      "hit": false,
      "t": 81958.19185937489,
      "d": 245.24439062499732,
      "v": 107
    },
    {
      "midi": 71,
      "hit": false,
      "t": 82253.10599999988,
      "d": 419.0885156250006,
      "v": 119
    },
    {
      "midi": 67,
      "hit": false,
      "t": 82253.10599999988,
      "d": 447.02774999999383,
      "v": 119
    },
    {
      "midi": 74,
      "hit": false,
      "t": 82253.10599999988,
      "d": 493.5931406249874,
      "v": 127
    },
    {
      "midi": 52,
      "hit": false,
      "t": 82253.10599999988,
      "d": 1192.0739999999641,
      "v": 123
    },
    {
      "midi": 59,
      "hit": false,
      "t": 82548.02014062488,
      "d": 819.5508749999863,
      "v": 71
    },
    {
      "midi": 76,
      "hit": false,
      "t": 82846.03864062487,
      "d": 571.2021249999816,
      "v": 127
    },
    {
      "midi": 67,
      "hit": false,
      "t": 82849.14299999987,
      "d": 471.86262500000885,
      "v": 123
    },
    {
      "midi": 71,
      "hit": false,
      "t": 82849.14299999987,
      "d": 546.3672499999957,
      "v": 127
    },
    {
      "midi": 64,
      "hit": false,
      "t": 83147.16149999987,
      "d": 198.67900000000373,
      "v": 123
    },
    {
      "midi": 74,
      "hit": false,
      "t": 83448.28435937484,
      "d": 68.29590624998673,
      "v": 127
    },
    {
      "midi": 71,
      "hit": false,
      "t": 83448.28435937484,
      "d": 71.40026562497951,
      "v": 35
    },
    {
      "midi": 67,
      "hit": false,
      "t": 83451.38871874983,
      "d": 68.29590624998673,
      "v": 51
    },
    {
      "midi": 69,
      "hit": false,
      "t": 84047.42571874982,
      "d": 1033.751671874983,
      "v": 123
    },
    {
      "midi": 67,
      "hit": false,
      "t": 84047.42571874982,
      "d": 1036.8560312499758,
      "v": 111
    },
    {
      "midi": 73,
      "hit": false,
      "t": 84047.42571874982,
      "d": 1061.6909062499763,
      "v": 119
    },
    {
      "midi": 45,
      "hit": false,
      "t": 84050.53007812481,
      "d": 1601.8494374999864,
      "v": 127
    },
    {
      "midi": 57,
      "hit": false,
      "t": 84935.2724999998,
      "d": 918.8903749999736,
      "v": 115
    },
    {
      "midi": 67,
      "hit": false,
      "t": 85233.2909999998,
      "d": 543.2628906250029,
      "v": 119
    },
    {
      "midi": 69,
      "hit": false,
      "t": 85233.2909999998,
      "d": 546.3672499999957,
      "v": 127
    },
    {
      "midi": 74,
      "hit": false,
      "t": 85233.2909999998,
      "d": 568.0977656249888,
      "v": 127
    },
    {
      "midi": 45,
      "hit": false,
      "t": 85832.43235937478,
      "d": 863.0119062499871,
      "v": 127
    },
    {
      "midi": 76,
      "hit": false,
      "t": 85835.53671874978,
      "d": 1232.4306718749867,
      "v": 127
    },
    {
      "midi": 67,
      "hit": false,
      "t": 85835.53671874978,
      "d": 1359.7094062499818,
      "v": 127
    },
    {
      "midi": 69,
      "hit": false,
      "t": 85835.53671874978,
      "d": 1508.7186562499846,
      "v": 127
    },
    {
      "midi": 57,
      "hit": false,
      "t": 86732.69657812477,
      "d": 40.35667187499348,
      "v": 99
    },
    {
      "midi": 79,
      "hit": false,
      "t": 87018.29764062476,
      "d": 276.2879843749979,
      "v": 95
    },
    {
      "midi": 67,
      "hit": false,
      "t": 87319.42049999976,
      "d": 96.23514062499453,
      "v": 83
    },
    {
      "midi": 65,
      "hit": false,
      "t": 87617.43899999975,
      "d": 946.8296093750105,
      "v": 103
    },
    {
      "midi": 74,
      "hit": false,
      "t": 87617.43899999975,
      "d": 1164.1347656250146,
      "v": 107
    },
    {
      "midi": 69,
      "hit": false,
      "t": 87617.43899999975,
      "d": 1316.2483750000101,
      "v": 111
    },
    {
      "midi": 50,
      "hit": false,
      "t": 87617.43899999975,
      "d": 1884.3461406250135,
      "v": 107
    },
    {
      "midi": 57,
      "hit": false,
      "t": 87915.45749999976,
      "d": 2530.052890624982,
      "v": 79
    },
    {
      "midi": 62,
      "hit": false,
      "t": 88511.49449999977,
      "d": 1983.6856406249572,
      "v": 95
    },
    {
      "midi": 65,
      "hit": false,
      "t": 88809.51299999976,
      "d": 1412.4835156250047,
      "v": 111
    },
    {
      "midi": 69,
      "hit": false,
      "t": 89107.53149999976,
      "d": 1117.5693749999919,
      "v": 127
    },
    {
      "midi": 74,
      "hit": false,
      "t": 89405.54999999977,
      "d": 791.611640624993,
      "v": 127
    },
    {
      "midi": 50,
      "hit": false,
      "t": 90302.70985937475,
      "d": 170.73976562498137,
      "v": 107
    },
    {
      "midi": 65,
      "hit": false,
      "t": 90302.70985937475,
      "d": 490.4887812499801,
      "v": 87
    },
    {
      "midi": 69,
      "hit": false,
      "t": 90302.70985937475,
      "d": 540.158531249981,
      "v": 87
    },
    {
      "midi": 77,
      "hit": false,
      "t": 90330.64909374974,
      "d": 543.2628906249884,
      "v": 115
    },
    {
      "midi": 68,
      "hit": false,
      "t": 91193.66099999973,
      "d": 794.7159999999858,
      "v": 111
    },
    {
      "midi": 53,
      "hit": false,
      "t": 91193.66099999973,
      "d": 2511.4267343749816,
      "v": 119
    },
    {
      "midi": 72,
      "hit": false,
      "t": 91196.76535937472,
      "d": 816.4465156249935,
      "v": 111
    },
    {
      "midi": 74,
      "hit": false,
      "t": 91196.76535937472,
      "d": 841.281390624994,
      "v": 123
    },
    {
      "midi": 60,
      "hit": false,
      "t": 91491.67949999972,
      "d": 2930.5152499999967,
      "v": 71
    },
    {
      "midi": 65,
      "hit": false,
      "t": 92090.82085937471,
      "d": 1657.727906250002,
      "v": 111
    },
    {
      "midi": 79,
      "hit": false,
      "t": 92385.73499999971,
      "d": 322.85337500000605,
      "v": 127
    },
    {
      "midi": 84,
      "hit": false,
      "t": 92683.75349999972,
      "d": 596.0369999999966,
      "v": 123
    },
    {
      "midi": 77,
      "hit": false,
      "t": 92984.87635937471,
      "d": 294.91414062499825,
      "v": 119
    },
    {
      "midi": 72,
      "hit": false,
      "t": 93279.79049999971,
      "d": 1192.0740000000078,
      "v": 115
    },
    {
      "midi": 53,
      "hit": false,
      "t": 93875.82749999971,
      "d": 596.0370000000112,
      "v": 123
    },
    {
      "midi": 67,
      "hit": false,
      "t": 94173.84599999971,
      "d": 298.0185000000056,
      "v": 103
    },
    {
      "midi": 76,
      "hit": false,
      "t": 94772.98735937472,
      "d": 1136.1955312499776,
      "v": 107
    },
    {
      "midi": 48,
      "hit": false,
      "t": 94772.98735937472,
      "d": 1337.9788906249742,
      "v": 119
    },
    {
      "midi": 67,
      "hit": false,
      "t": 94772.98735937472,
      "d": 1462.153265624962,
      "v": 115
    },
    {
      "midi": 72,
      "hit": false,
      "t": 94772.98735937472,
      "d": 1486.9881406249624,
      "v": 115
    },
    {
      "midi": 60,
      "hit": false,
      "t": 95667.0428593747,
      "d": 490.4887812499801,
      "v": 119
    },
    {
      "midi": 79,
      "hit": false,
      "t": 95961.95699999969,
      "d": 298.01849999999104,
      "v": 111
    },
    {
      "midi": 76,
      "hit": false,
      "t": 96266.18421874968,
      "d": 68.29590625000128,
      "v": 127
    },
    {
      "midi": 75,
      "hit": false,
      "t": 96561.09835937468,
      "d": 217.30515625000407,
      "v": 99
    },
    {
      "midi": 78,
      "hit": false,
      "t": 96561.09835937468,
      "d": 294.91414062499825,
      "v": 115
    },
    {
      "midi": 47,
      "hit": false,
      "t": 96561.09835937468,
      "d": 642.6023906249902,
      "v": 127
    },
    {
      "midi": 71,
      "hit": false,
      "t": 96859.11685937467,
      "d": 344.5838906249992,
      "v": 123
    },
    {
      "midi": 59,
      "hit": false,
      "t": 97154.03099999967,
      "d": 71.40026562499406,
      "v": 123
    },
    {
      "midi": 75,
      "hit": false,
      "t": 97154.03099999967,
      "d": 121.070015624995,
      "v": 115
    },
    {
      "midi": 82,
      "hit": false,
      "t": 97461.36257812467,
      "d": 533.9498124999809,
      "v": 107
    },
    {
      "midi": 46,
      "hit": false,
      "t": 97464.46693749966,
      "d": 583.6195624999818,
      "v": 127
    },
    {
      "midi": 74,
      "hit": false,
      "t": 97464.46693749966,
      "d": 583.6195624999818,
      "v": 107
    },
    {
      "midi": 77,
      "hit": false,
      "t": 97753.17235937466,
      "d": 266.97490624999045,
      "v": 119
    },
    {
      "midi": 58,
      "hit": false,
      "t": 98048.08649999964,
      "d": 71.40026562499406,
      "v": 115
    },
    {
      "midi": 70,
      "hit": false,
      "t": 98054.29521874964,
      "d": 139.69617187499534,
      "v": 119
    },
    {
      "midi": 73,
      "hit": false,
      "t": 98349.20935937464,
      "d": 1238.6393906250014,
      "v": 107
    },
    {
      "midi": 45,
      "hit": false,
      "t": 98349.20935937464,
      "d": 1459.0489062499983,
      "v": 119
    },
    {
      "midi": 76,
      "hit": false,
      "t": 98349.20935937464,
      "d": 1586.3276406249934,
      "v": 115
    },
    {
      "midi": 69,
      "hit": false,
      "t": 98942.14199999964,
      "d": 422.19287499999336,
      "v": 127
    },
    {
      "midi": 57,
      "hit": false,
      "t": 99240.16049999963,
      "d": 918.8903749999881,
      "v": 123
    },
    {
      "midi": 69,
      "hit": false,
      "t": 99538.17899999964,
      "d": 518.4280156249879,
      "v": 111
    },
    {
      "midi": 77,
      "hit": false,
      "t": 100134.21599999962,
      "d": 921.9947343749809,
      "v": 127
    },
    {
      "midi": 74,
      "hit": false,
      "t": 100134.21599999962,
      "d": 965.4557656249817,
      "v": 127
    },
    {
      "midi": 45,
      "hit": false,
      "t": 100134.21599999962,
      "d": 968.5601249999745,
      "v": 127
    },
    {
      "midi": 69,
      "hit": false,
      "t": 100134.21599999962,
      "d": 2930.515249999953,
      "v": 127
    },
    {
      "midi": 79,
      "hit": false,
      "t": 101034.48021874961,
      "d": 788.5072812499857,
      "v": 111
    },
    {
      "midi": 76,
      "hit": false,
      "t": 101034.48021874961,
      "d": 838.1770312499866,
      "v": 115
    },
    {
      "midi": 57,
      "hit": false,
      "t": 101037.5845781246,
      "d": 360.1056874999922,
      "v": 107
    },
    {
      "midi": 74,
      "hit": false,
      "t": 101922.32699999958,
      "d": 1142.4042499999923,
      "v": 111
    },
    {
      "midi": 77,
      "hit": false,
      "t": 101922.32699999958,
      "d": 1167.2391249999928,
      "v": 99
    },
    {
      "midi": 50,
      "hit": false,
      "t": 101922.32699999958,
      "d": 2958.4544843749754,
      "v": 119
    },
    {
      "midi": 57,
      "hit": false,
      "t": 102518.36399999958,
      "d": 2359.313124999986,
      "v": 63
    },
    {
      "midi": 62,
      "hit": false,
      "t": 102822.59121874959,
      "d": 2076.8164218749735,
      "v": 123
    },
    {
      "midi": 65,
      "hit": false,
      "t": 103114.40099999958,
      "d": 322.85337500000605,
      "v": 119
    },
    {
      "midi": 67,
      "hit": false,
      "t": 103418.62821874958,
      "d": 338.37517187499907,
      "v": 119
    },
    {
      "midi": 69,
      "hit": false,
      "t": 103710.43799999959,
      "d": 524.636734374988,
      "v": 127
    },
    {
      "midi": 72,
      "hit": false,
      "t": 104306.47499999957,
      "d": 645.706749999983,
      "v": 123
    },
    {
      "midi": 74,
      "hit": false,
      "t": 104902.51199999955,
      "d": 347.6882500000065,
      "v": 127
    },
    {
      "midi": 77,
      "hit": false,
      "t": 105200.53049999956,
      "d": 71.40026562499406,
      "v": 119
    },
    {
      "midi": 68,
      "hit": false,
      "t": 105504.75771874955,
      "d": 1008.9167968749971,
      "v": 119
    },
    {
      "midi": 72,
      "hit": false,
      "t": 105507.86207812454,
      "d": 1008.9167968749971,
      "v": 119
    },
    {
      "midi": 79,
      "hit": false,
      "t": 105507.86207812454,
      "d": 1030.6473124999902,
      "v": 127
    },
    {
      "midi": 74,
      "hit": false,
      "t": 105507.86207812454,
      "d": 1033.751671874983,
      "v": 123
    },
    {
      "midi": 53,
      "hit": false,
      "t": 105507.86207812454,
      "d": 1129.9868124999775,
      "v": 127
    },
    {
      "midi": 60,
      "hit": false,
      "t": 106097.69035937454,
      "d": 564.9934062499815,
      "v": 107
    },
    {
      "midi": 65,
      "hit": false,
      "t": 106401.91757812454,
      "d": 189.36592187498172,
      "v": 111
    },
    {
      "midi": 74,
      "hit": false,
      "t": 106690.62299999951,
      "d": 394.25364062498556,
      "v": 107
    },
    {
      "midi": 77,
      "hit": false,
      "t": 106693.7273593745,
      "d": 319.7490156249987,
      "v": 111
    },
    {
      "midi": 68,
      "hit": false,
      "t": 106693.7273593745,
      "d": 366.3144062499923,
      "v": 99
    },
    {
      "midi": 72,
      "hit": false,
      "t": 106693.7273593745,
      "d": 493.5931406249874,
      "v": 107
    },
    {
      "midi": 43,
      "hit": false,
      "t": 107292.8687187495,
      "d": 937.5165312499885,
      "v": 123
    },
    {
      "midi": 72,
      "hit": false,
      "t": 107295.97307812449,
      "d": 732.6288124999992,
      "v": 119
    },
    {
      "midi": 67,
      "hit": false,
      "t": 107295.97307812449,
      "d": 757.4636874999997,
      "v": 123
    },
    {
      "midi": 74,
      "hit": false,
      "t": 107295.97307812449,
      "d": 757.4636874999997,
      "v": 127
    },
    {
      "midi": 79,
      "hit": false,
      "t": 107295.97307812449,
      "d": 785.4029218749929,
      "v": 119
    },
    {
      "midi": 71,
      "hit": false,
      "t": 108180.71549999948,
      "d": 766.7767656249925,
      "v": 127
    },
    {
      "midi": 74,
      "hit": false,
      "t": 108180.71549999948,
      "d": 844.3857499999722,
      "v": 127
    },
    {
      "midi": 79,
      "hit": false,
      "t": 108180.71549999948,
      "d": 847.490109374965,
      "v": 99
    },
    {
      "midi": 55,
      "hit": false,
      "t": 108180.71549999948,
      "d": 925.0990937499591,
      "v": 115
    },
    {
      "midi": 67,
      "hit": false,
      "t": 108776.75249999948,
      "d": 220.4095156249823,
      "v": 91
    },
    {
      "midi": 67,
      "hit": false,
      "t": 109074.77099999944,
      "d": 344.5838906249992,
      "v": 123
    },
    {
      "midi": 72,
      "hit": false,
      "t": 109074.77099999944,
      "d": 471.8626249999943,
      "v": 127
    },
    {
      "midi": 76,
      "hit": false,
      "t": 109074.77099999944,
      "d": 471.8626249999943,
      "v": 127
    },
    {
      "midi": 48,
      "hit": false,
      "t": 109074.77099999944,
      "d": 1639.1017499999725,
      "v": 127
    },
    {
      "midi": 55,
      "hit": false,
      "t": 109375.89385937444,
      "d": 2405.8785156249505,
      "v": 107
    },
    {
      "midi": 60,
      "hit": false,
      "t": 109670.80799999944,
      "d": 1164.134765624971,
      "v": 127
    },
    {
      "midi": 79,
      "hit": false,
      "t": 109975.03521874944,
      "d": 71.40026562499406,
      "v": 127
    },
    {
      "midi": 88,
      "hit": false,
      "t": 109978.13957812444,
      "d": 68.29590625000128,
      "v": 127
    },
    {
      "midi": 79,
      "hit": false,
      "t": 110266.84499999943,
      "d": 74.5046250000014,
      "v": 127
    },
    {
      "midi": 88,
      "hit": false,
      "t": 110266.84499999943,
      "d": 77.60898437499418,
      "v": 127
    },
    {
      "midi": 79,
      "hit": false,
      "t": 110564.86349999942,
      "d": 71.40026562499406,
      "v": 127
    },
    {
      "midi": 88,
      "hit": false,
      "t": 110564.86349999942,
      "d": 74.50462499998685,
      "v": 127
    },
    {
      "midi": 76,
      "hit": false,
      "t": 110865.98635937441,
      "d": 96.23514062499453,
      "v": 127
    },
    {
      "midi": 84,
      "hit": false,
      "t": 110865.98635937441,
      "d": 96.23514062499453,
      "v": 127
    },
    {
      "midi": 48,
      "hit": false,
      "t": 110865.98635937441,
      "d": 1235.535031249965,
      "v": 127
    },
    {
      "midi": 76,
      "hit": false,
      "t": 111160.9004999994,
      "d": 71.40026562499406,
      "v": 127
    },
    {
      "midi": 84,
      "hit": false,
      "t": 111160.9004999994,
      "d": 71.40026562499406,
      "v": 127
    },
    {
      "midi": 84,
      "hit": false,
      "t": 111462.0233593744,
      "d": 96.23514062499453,
      "v": 127
    },
    {
      "midi": 76,
      "hit": false,
      "t": 111462.0233593744,
      "d": 99.33949999998731,
      "v": 127
    },
    {
      "midi": 60,
      "hit": false,
      "t": 111760.0418593744,
      "d": 294.9141406249837,
      "v": 127
    },
    {
      "midi": 79,
      "hit": false,
      "t": 111763.14621874939,
      "d": 65.19154687499395,
      "v": 127
    },
    {
      "midi": 72,
      "hit": false,
      "t": 111763.14621874939,
      "d": 96.23514062499453,
      "v": 127
    },
    {
      "midi": 72,
      "hit": false,
      "t": 112054.95599999938,
      "d": 71.40026562499406,
      "v": 127
    },
    {
      "midi": 79,
      "hit": false,
      "t": 112054.95599999938,
      "d": 71.40026562499406,
      "v": 127
    },
    {
      "midi": 79,
      "hit": false,
      "t": 112356.07885937438,
      "d": 93.13078125000175,
      "v": 127
    },
    {
      "midi": 72,
      "hit": false,
      "t": 112356.07885937438,
      "d": 96.23514062499453,
      "v": 119
    },
    {
      "midi": 80,
      "hit": false,
      "t": 112650.99299999936,
      "d": 96.23514062499453,
      "v": 127
    },
    {
      "midi": 72,
      "hit": false,
      "t": 112650.99299999936,
      "d": 99.33949999998731,
      "v": 127
    },
    {
      "midi": 75,
      "hit": false,
      "t": 112650.99299999936,
      "d": 99.33949999998731,
      "v": 127
    },
    {
      "midi": 44,
      "hit": false,
      "t": 112650.99299999936,
      "d": 1663.9366249999584,
      "v": 123
    },
    {
      "midi": 72,
      "hit": false,
      "t": 112949.01149999935,
      "d": 96.23514062499453,
      "v": 127
    },
    {
      "midi": 75,
      "hit": false,
      "t": 112949.01149999935,
      "d": 99.33949999998731,
      "v": 127
    },
    {
      "midi": 80,
      "hit": false,
      "t": 112949.01149999935,
      "d": 99.33949999998731,
      "v": 127
    },
    {
      "midi": 75,
      "hit": false,
      "t": 113243.92564062434,
      "d": 74.50462499998685,
      "v": 127
    },
    {
      "midi": 80,
      "hit": false,
      "t": 113247.02999999933,
      "d": 96.23514062499453,
      "v": 127
    },
    {
      "midi": 72,
      "hit": false,
      "t": 113250.13435937432,
      "d": 43.461031250000815,
      "v": 119
    },
    {
      "midi": 80,
      "hit": false,
      "t": 113548.15285937433,
      "d": 93.13078125000175,
      "v": 127
    },
    {
      "midi": 87,
      "hit": false,
      "t": 113548.15285937433,
      "d": 96.23514062499453,
      "v": 127
    },
    {
      "midi": 56,
      "hit": false,
      "t": 113548.15285937433,
      "d": 2157.5297656249313,
      "v": 119
    },
    {
      "midi": 80,
      "hit": false,
      "t": 113843.06699999933,
      "d": 99.33950000000186,
      "v": 127
    },
    {
      "midi": 87,
      "hit": false,
      "t": 113843.06699999933,
      "d": 121.070015624995,
      "v": 127
    },
    {
      "midi": 80,
      "hit": false,
      "t": 114144.18985937432,
      "d": 121.070015624995,
      "v": 127
    },
    {
      "midi": 87,
      "hit": false,
      "t": 114144.18985937432,
      "d": 121.070015624995,
      "v": 127
    },
    {
      "midi": 80,
      "hit": false,
      "t": 114442.20835937432,
      "d": 99.33950000000186,
      "v": 127
    },
    {
      "midi": 84,
      "hit": false,
      "t": 114442.20835937432,
      "d": 99.33950000000186,
      "v": 127
    },
    {
      "midi": 75,
      "hit": false,
      "t": 114442.20835937432,
      "d": 102.44385937499464,
      "v": 127
    },
    {
      "midi": 84,
      "hit": false,
      "t": 114737.12249999931,
      "d": 71.40026562499406,
      "v": 127
    },
    {
      "midi": 75,
      "hit": false,
      "t": 114737.12249999931,
      "d": 74.50462499998685,
      "v": 123
    },
    {
      "midi": 80,
      "hit": false,
      "t": 114737.12249999931,
      "d": 74.50462499998685,
      "v": 127
    },
    {
      "midi": 84,
      "hit": false,
      "t": 115038.2453593743,
      "d": 71.40026562499406,
      "v": 123
    },
    {
      "midi": 80,
      "hit": false,
      "t": 115038.2453593743,
      "d": 74.50462499998685,
      "v": 119
    },
    {
      "midi": 75,
      "hit": false,
      "t": 115041.34971874929,
      "d": 71.40026562499406,
      "v": 119
    },
    {
      "midi": 44,
      "hit": false,
      "t": 115336.26385937429,
      "d": 322.85337499997695,
      "v": 127
    },
    {
      "midi": 72,
      "hit": false,
      "t": 115336.26385937429,
      "d": 322.85337499997695,
      "v": 127
    },
    {
      "midi": 68,
      "hit": false,
      "t": 115336.26385937429,
      "d": 344.5838906249701,
      "v": 127
    },
    {
      "midi": 70,
      "hit": false,
      "t": 115634.28235937428,
      "d": 344.58389062498463,
      "v": 127
    },
    {
      "midi": 73,
      "hit": false,
      "t": 115637.38671874927,
      "d": 266.97490624999045,
      "v": 123
    },
    {
      "midi": 72,
      "hit": false,
      "t": 115929.19649999926,
      "d": 96.23514062499453,
      "v": 119
    },
    {
      "midi": 75,
      "hit": false,
      "t": 115929.19649999926,
      "d": 127.27873437499511,
      "v": 119
    },
    {
      "midi": 77,
      "hit": false,
      "t": 116236.52807812426,
      "d": 1182.7609218750003,
      "v": 127
    },
    {
      "midi": 68,
      "hit": false,
      "t": 116236.52807812426,
      "d": 1651.5191875000019,
      "v": 115
    },
    {
      "midi": 49,
      "hit": false,
      "t": 116236.52807812426,
      "d": 1679.458421874995,
      "v": 123
    },
    {
      "midi": 73,
      "hit": false,
      "t": 116236.52807812426,
      "d": 4311.955171874986,
      "v": 119
    },
    {
      "midi": 61,
      "hit": false,
      "t": 117124.37485937426,
      "d": 2303.4346562499995,
      "v": 123
    },
    {
      "midi": 80,
      "hit": false,
      "t": 117422.39335937425,
      "d": 2083.0251406250027,
      "v": 115
    },
    {
      "midi": 77,
      "hit": false,
      "t": 117720.41185937426,
      "d": 741.9418906250066,
      "v": 103
    },
    {
      "midi": 49,
      "hit": false,
      "t": 118015.32599999926,
      "d": 1362.8137656250037,
      "v": 115
    },
    {
      "midi": 68,
      "hit": false,
      "t": 118313.34449999926,
      "d": 667.4372656249907,
      "v": 87
    },
    {
      "midi": 77,
      "hit": false,
      "t": 118915.59021874926,
      "d": 1406.27479687499,
      "v": 111
    },
    {
      "midi": 68,
      "hit": false,
      "t": 119210.50435937426,
      "d": 142.80053125000268,
      "v": 87
    },
    {
      "midi": 68,
      "hit": false,
      "t": 119508.52285937425,
      "d": 419.0885156250006,
      "v": 71
    },
    {
      "midi": 61,
      "hit": false,
      "t": 119654.42774999925,
      "d": 99.33950000000186,
      "v": 31
    },
    {
      "midi": 80,
      "hit": false,
      "t": 119803.43699999925,
      "d": 745.0462499999994,
      "v": 71
    },
    {
      "midi": 49,
      "hit": false,
      "t": 119803.43699999925,
      "d": 1437.318390624976,
      "v": 111
    },
    {
      "midi": 68,
      "hit": false,
      "t": 120402.57835937425,
      "d": 192.47028124998906,
      "v": 67
    },
    {
      "midi": 77,
      "hit": false,
      "t": 120548.48324999925,
      "d": 24.834875000000466,
      "v": 55
    },
    {
      "midi": 61,
      "hit": false,
      "t": 121141.41589062424,
      "d": 27.939234374993248,
      "v": 95
    },
    {
      "midi": 63,
      "hit": false,
      "t": 121296.63385937423,
      "d": 220.4095156249823,
      "v": 119
    },
    {
      "midi": 72,
      "hit": false,
      "t": 121296.63385937423,
      "d": 294.9141406249837,
      "v": 119
    },
    {
      "midi": 68,
      "hit": false,
      "t": 121299.73821874922,
      "d": 2027.1466718749725,
      "v": 95
    },
    {
      "midi": 65,
      "hit": false,
      "t": 121591.54799999921,
      "d": 841.281390624994,
      "v": 127
    },
    {
      "midi": 49,
      "hit": false,
      "t": 121591.54799999921,
      "d": 943.7252499999886,
      "v": 119
    },
    {
      "midi": 73,
      "hit": false,
      "t": 121591.54799999921,
      "d": 1685.6671406249807,
      "v": 111
    },
    {
      "midi": 61,
      "hit": false,
      "t": 122482.4991406242,
      "d": 549.4716093749885,
      "v": 115
    },
    {
      "midi": 77,
      "hit": false,
      "t": 122482.4991406242,
      "d": 549.4716093749885,
      "v": 119
    },
    {
      "midi": 65,
      "hit": false,
      "t": 123084.74485937419,
      "d": 217.30515625000407,
      "v": 87
    },
    {
      "midi": 68,
      "hit": false,
      "t": 123382.76335937419,
      "d": 915.7860156249808,
      "v": 31
    },
    {
      "midi": 75,
      "hit": false,
      "t": 123382.76335937419,
      "d": 937.5165312499739,
      "v": 119
    },
    {
      "midi": 72,
      "hit": false,
      "t": 123382.76335937419,
      "d": 940.6208906249667,
      "v": 115
    },
    {
      "midi": 53,
      "hit": false,
      "t": 123382.76335937419,
      "d": 1934.0158906249708,
      "v": 127
    },
    {
      "midi": 60,
      "hit": false,
      "t": 123972.59164062419,
      "d": 2110.9643749999814,
      "v": 79
    },
    {
      "midi": 65,
      "hit": false,
      "t": 124270.61014062418,
      "d": 1713.6063749999885,
      "v": 119
    },
    {
      "midi": 80,
      "hit": false,
      "t": 124571.73299999916,
      "d": 1611.1625156250084,
      "v": 107
    },
    {
      "midi": 75,
      "hit": false,
      "t": 124571.73299999916,
      "d": 1635.9973906250088,
      "v": 115
    },
    {
      "midi": 77,
      "hit": false,
      "t": 124869.75149999917,
      "d": 270.0792656249978,
      "v": 115
    },
    {
      "midi": 72,
      "hit": false,
      "t": 125167.76999999916,
      "d": 1015.1255156250118,
      "v": 127
    },
    {
      "midi": 53,
      "hit": false,
      "t": 125465.78849999917,
      "d": 49.66975000000093,
      "v": 51
    },
    {
      "midi": 53,
      "hit": false,
      "t": 126064.92985937417,
      "d": 1660.8322656249948,
      "v": 115
    },
    {
      "midi": 75,
      "hit": false,
      "t": 126356.73964062418,
      "d": 772.9854843749927,
      "v": 123
    },
    {
      "midi": 72,
      "hit": false,
      "t": 126362.94835937418,
      "d": 440.8190312499937,
      "v": 119
    },
    {
      "midi": 60,
      "hit": false,
      "t": 126508.85324999917,
      "d": 3526.5522499999643,
      "v": 83
    },
    {
      "midi": 77,
      "hit": false,
      "t": 126657.86249999917,
      "d": 1313.1440156249882,
      "v": 115
    },
    {
      "midi": 65,
      "hit": false,
      "t": 126955.88099999916,
      "d": 3005.019874999969,
      "v": 107
    },
    {
      "midi": 67,
      "hit": false,
      "t": 127551.91799999916,
      "d": 319.7490156249987,
      "v": 115
    },
    {
      "midi": 68,
      "hit": false,
      "t": 127849.93649999917,
      "d": 322.8533749999915,
      "v": 127
    },
    {
      "midi": 72,
      "hit": false,
      "t": 128147.95499999916,
      "d": 248.34875000000466,
      "v": 127
    },
    {
      "midi": 75,
      "hit": false,
      "t": 128445.97349999916,
      "d": 692.2721406249912,
      "v": 127
    },
    {
      "midi": 77,
      "hit": false,
      "t": 128747.09635937416,
      "d": 468.75826562498696,
      "v": 127
    },
    {
      "midi": 53,
      "hit": false,
      "t": 128747.09635937416,
      "d": 667.4372656249761,
      "v": 115
    },
    {
      "midi": 77,
      "hit": false,
      "t": 129336.92464062414,
      "d": 425.2972343750007,
      "v": 127
    },
    {
      "midi": 75,
      "hit": false,
      "t": 129340.02899999914,
      "d": 422.1928750000079,
      "v": 127
    },
    {
      "midi": 80,
      "hit": false,
      "t": 129340.02899999914,
      "d": 474.96698437500163,
      "v": 127
    },
    {
      "midi": 53,
      "hit": false,
      "t": 129644.25621874914,
      "d": 239.0356718749972,
      "v": 79
    },
    {
      "midi": 75,
      "hit": false,
      "t": 129942.27471874913,
      "d": 68.29590625000128,
      "v": 127
    },
    {
      "midi": 77,
      "hit": false,
      "t": 129942.27471874913,
      "d": 68.29590625000128,
      "v": 127
    },
    {
      "midi": 82,
      "hit": false,
      "t": 129942.27471874913,
      "d": 93.13078125000175,
      "v": 127
    },
    {
      "midi": 42,
      "hit": false,
      "t": 130535.20735937414,
      "d": 540.1585312500101,
      "v": 127
    },
    {
      "midi": 78,
      "hit": false,
      "t": 130535.20735937414,
      "d": 4737.2524062500015,
      "v": 127
    },
    {
      "midi": 73,
      "hit": false,
      "t": 130538.31171874913,
      "d": 1729.1281718750106,
      "v": 115
    },
    {
      "midi": 54,
      "hit": false,
      "t": 131128.13999999914,
      "d": 71.40026562500861,
      "v": 119
    },
    {
      "midi": 70,
      "hit": false,
      "t": 131429.26285937414,
      "d": 443.9233906249865,
      "v": 127
    },
    {
      "midi": 66,
      "hit": false,
      "t": 131730.38571874914,
      "d": 65.19154687499395,
      "v": 119
    },
    {
      "midi": 70,
      "hit": false,
      "t": 132025.29985937412,
      "d": 145.90489062501,
      "v": 107
    },
    {
      "midi": 72,
      "hit": false,
      "t": 132323.31835937413,
      "d": 1161.0304062500072,
      "v": 119
    },
    {
      "midi": 54,
      "hit": false,
      "t": 132323.31835937413,
      "d": 1583.2232812500151,
      "v": 119
    },
    {
      "midi": 61,
      "hit": false,
      "t": 132913.14664062412,
      "d": 2980.185000000027,
      "v": 91
    },
    {
      "midi": 66,
      "hit": false,
      "t": 133214.26949999912,
      "d": 844.3857500000158,
      "v": 127
    },
    {
      "midi": 73,
      "hit": false,
      "t": 133512.28799999913,
      "d": 1884.3461406250135,
      "v": 119
    },
    {
      "midi": 70,
      "hit": false,
      "t": 133810.30649999913,
      "d": 791.611640624993,
      "v": 107
    },
    {
      "midi": 54,
      "hit": false,
      "t": 134111.42935937413,
      "d": 1611.1625156250084,
      "v": 115
    },
    {
      "midi": 70,
      "hit": false,
      "t": 134704.36199999912,
      "d": 443.9233906250156,
      "v": 83
    },
    {
      "midi": 66,
      "hit": false,
      "t": 134999.27614062413,
      "d": 772.9854843750072,
      "v": 107
    },
    {
      "midi": 70,
      "hit": false,
      "t": 135300.39899999913,
      "d": 493.59314062501653,
      "v": 107
    },
    {
      "midi": 73,
      "hit": false,
      "t": 135598.41749999914,
      "d": 741.9418906250212,
      "v": 91
    },
    {
      "midi": 78,
      "hit": false,
      "t": 135896.43599999914,
      "d": 394.25364062501467,
      "v": 99
    },
    {
      "midi": 54,
      "hit": false,
      "t": 135896.43599999914,
      "d": 1294.5178593749297,
      "v": 87
    },
    {
      "midi": 70,
      "hit": false,
      "t": 136194.45449999915,
      "d": 419.08851562498603,
      "v": 103
    },
    {
      "midi": 61,
      "hit": false,
      "t": 136194.45449999915,
      "d": 1015.1255156249099,
      "v": 75
    },
    {
      "midi": 73,
      "hit": false,
      "t": 136495.57735937415,
      "d": 366.3144062499632,
      "v": 103
    },
    {
      "midi": 66,
      "hit": false,
      "t": 136793.59585937412,
      "d": 394.25364062495646,
      "v": 115
    },
    {
      "midi": 78,
      "hit": false,
      "t": 136796.70021874912,
      "d": 313.5402968749695,
      "v": 127
    },
    {
      "midi": 82,
      "hit": false,
      "t": 137091.6143593741,
      "d": 319.74901562495506,
      "v": 123
    },
    {
      "midi": 78,
      "hit": false,
      "t": 137392.73721874907,
      "d": 217.30515624998952,
      "v": 107
    },
    {
      "midi": 77,
      "hit": false,
      "t": 137684.54699999906,
      "d": 571.2021250000107,
      "v": 111
    },
    {
      "midi": 53,
      "hit": false,
      "t": 137684.54699999906,
      "d": 2135.799250000011,
      "v": 119
    },
    {
      "midi": 68,
      "hit": false,
      "t": 137979.46114062407,
      "d": 397.35800000000745,
      "v": 87
    },
    {
      "midi": 60,
      "hit": false,
      "t": 137979.46114062407,
      "d": 2707.0013749999925,
      "v": 91
    },
    {
      "midi": 72,
      "hit": false,
      "t": 138280.58399999907,
      "d": 425.2972343750007,
      "v": 111
    },
    {
      "midi": 65,
      "hit": false,
      "t": 138280.58399999907,
      "d": 2359.313124999986,
      "v": 87
    },
    {
      "midi": 77,
      "hit": false,
      "t": 138578.60249999908,
      "d": 325.95773437499884,
      "v": 123
    },
    {
      "midi": 80,
      "hit": false,
      "t": 138876.62099999908,
      "d": 866.1162656249944,
      "v": 123
    },
    {
      "midi": 77,
      "hit": false,
      "t": 139174.6394999991,
      "d": 568.0977656249888,
      "v": 111
    },
    {
      "midi": 72,
      "hit": false,
      "t": 139475.7623593741,
      "d": 465.6539062499942,
      "v": 107
    },
    {
      "midi": 68,
      "hit": false,
      "t": 139770.67649999907,
      "d": 369.4187656250142,
      "v": 99
    },
    {
      "midi": 72,
      "hit": false,
      "t": 140068.69499999908,
      "d": 692.2721406249912,
      "v": 119
    },
    {
      "midi": 77,
      "hit": false,
      "t": 140369.81785937407,
      "d": 294.9141406249837,
      "v": 127
    },
    {
      "midi": 53,
      "hit": false,
      "t": 140372.92221874907,
      "d": 316.6446562499914,
      "v": 119
    },
    {
      "midi": 80,
      "hit": false,
      "t": 140664.73199999906,
      "d": 322.85337500000605,
      "v": 115
    },
    {
      "midi": 77,
      "hit": false,
      "t": 140965.85485937406,
      "d": 391.1492812500219,
      "v": 111
    },
    {
      "midi": 74,
      "hit": false,
      "t": 141260.76899999907,
      "d": 468.75826562501607,
      "v": 111
    },
    {
      "midi": 46,
      "hit": false,
      "t": 141260.76899999907,
      "d": 543.2628906250175,
      "v": 119
    },
    {
      "midi": 70,
      "hit": false,
      "t": 141558.78749999907,
      "d": 720.2113750000135,
      "v": 83
    },
    {
      "midi": 58,
      "hit": false,
      "t": 141853.7016406241,
      "d": 173.84412500000326,
      "v": 111
    },
    {
      "midi": 74,
      "hit": false,
      "t": 142154.8244999991,
      "d": 496.6975000000093,
      "v": 127
    },
    {
      "midi": 65,
      "hit": false,
      "t": 142154.8244999991,
      "d": 1983.6856406250154,
      "v": 91
    },
    {
      "midi": 77,
      "hit": false,
      "t": 142452.8429999991,
      "d": 298.0185000000056,
      "v": 127
    },
    {
      "midi": 82,
      "hit": false,
      "t": 142753.9658593741,
      "d": 96.23514062500908,
      "v": 119
    },
    {
      "midi": 84,
      "hit": false,
      "t": 143055.0887187491,
      "d": 65.19154687499395,
      "v": 127
    },
    {
      "midi": 70,
      "hit": false,
      "t": 143055.0887187491,
      "d": 1058.5865468750126,
      "v": 107
    },
    {
      "midi": 86,
      "hit": false,
      "t": 143346.89849999908,
      "d": 322.85337500000605,
      "v": 111
    },
    {
      "midi": 87,
      "hit": false,
      "t": 143648.02135937408,
      "d": 294.9141406250128,
      "v": 127
    },
    {
      "midi": 89,
      "hit": false,
      "t": 143942.9354999991,
      "d": 841.281390625023,
      "v": 127
    },
    {
      "midi": 51,
      "hit": false,
      "t": 144836.9909999991,
      "d": 319.74901562498417,
      "v": 119
    },
    {
      "midi": 87,
      "hit": false,
      "t": 144836.9909999991,
      "d": 3054.689624999999,
      "v": 115
    },
    {
      "midi": 63,
      "hit": false,
      "t": 145135.0094999991,
      "d": 149.0092499999737,
      "v": 111
    },
    {
      "midi": 82,
      "hit": false,
      "t": 145138.1138593741,
      "d": 1136.1955312500068,
      "v": 103
    },
    {
      "midi": 78,
      "hit": false,
      "t": 145429.9236406241,
      "d": 670.5416250000126,
      "v": 115
    },
    {
      "midi": 70,
      "hit": false,
      "t": 145429.9236406241,
      "d": 2259.9736250000424,
      "v": 111
    },
    {
      "midi": 75,
      "hit": false,
      "t": 146025.9606406241,
      "d": 298.0185000000056,
      "v": 115
    },
    {
      "midi": 78,
      "hit": false,
      "t": 146330.1878593741,
      "d": 341.47953125002095,
      "v": 127
    },
    {
      "midi": 77,
      "hit": false,
      "t": 146625.1019999991,
      "d": 592.9326406250184,
      "v": 119
    },
    {
      "midi": 78,
      "hit": false,
      "t": 146920.01614062412,
      "d": 645.7067500000121,
      "v": 123
    },
    {
      "midi": 75,
      "hit": false,
      "t": 147221.13899999912,
      "d": 419.08851562501513,
      "v": 119
    },
    {
      "midi": 82,
      "hit": false,
      "t": 147516.05314062414,
      "d": 347.6882499999774,
      "v": 103
    },
    {
      "midi": 78,
      "hit": false,
      "t": 147820.28035937413,
      "d": 142.80053124998813,
      "v": 115
    },
    {
      "midi": 80,
      "hit": false,
      "t": 148416.3173593741,
      "d": 962.3514062500326,
      "v": 107
    },
    {
      "midi": 85,
      "hit": false,
      "t": 148416.3173593741,
      "d": 1412.4835156250338,
      "v": 99
    },
    {
      "midi": 54,
      "hit": false,
      "t": 148416.3173593741,
      "d": 3150.924765625008,
      "v": 123
    },
    {
      "midi": 81,
      "hit": false,
      "t": 148714.3358593741,
      "d": 540.1585312500247,
      "v": 95
    },
    {
      "midi": 66,
      "hit": false,
      "t": 149009.24999999913,
      "d": 2604.557515624998,
      "v": 123
    },
    {
      "midi": 73,
      "hit": false,
      "t": 149307.26849999913,
      "d": 344.58389062501374,
      "v": 115
    },
    {
      "midi": 80,
      "hit": false,
      "t": 149605.28699999914,
      "d": 344.58389062498463,
      "v": 115
    },
    {
      "midi": 81,
      "hit": false,
      "t": 149906.40985937414,
      "d": 71.40026562497951,
      "v": 123
    },
    {
      "midi": 73,
      "hit": false,
      "t": 150204.4283593741,
      "d": 589.8282812499965,
      "v": 111
    },
    {
      "midi": 75,
      "hit": false,
      "t": 150204.4283593741,
      "d": 614.663156249997,
      "v": 123
    },
    {
      "midi": 78,
      "hit": false,
      "t": 150797.3609999991,
      "d": 74.5046250000014,
      "v": 127
    },
    {
      "midi": 69,
      "hit": false,
      "t": 151095.3794999991,
      "d": 372.523125000007,
      "v": 127
    },
    {
      "midi": 73,
      "hit": false,
      "t": 151098.4838593741,
      "d": 543.2628906250175,
      "v": 111
    },
    {
      "midi": 75,
      "hit": false,
      "t": 151396.5023593741,
      "d": 440.8190312499937,
      "v": 107
    },
    {
      "midi": 69,
      "hit": false,
      "t": 151697.6252187491,
      "d": 114.86129687499488,
      "v": 103
    },
    {
      "midi": 77,
      "hit": false,
      "t": 151992.5393593741,
      "d": 1185.8652812500077,
      "v": 123
    },
    {
      "midi": 68,
      "hit": false,
      "t": 151992.5393593741,
      "d": 1511.8230156249774,
      "v": 119
    },
    {
      "midi": 73,
      "hit": false,
      "t": 151992.5393593741,
      "d": 1511.8230156249774,
      "v": 115
    },
    {
      "midi": 49,
      "hit": false,
      "t": 151992.5393593741,
      "d": 1732.2325312499888,
      "v": 127
    },
    {
      "midi": 61,
      "hit": false,
      "t": 152883.49049999908,
      "d": 791.611640624993,
      "v": 127
    },
    {
      "midi": 80,
      "hit": false,
      "t": 153184.61335937408,
      "d": 266.97490624999045,
      "v": 119
    },
    {
      "midi": 77,
      "hit": false,
      "t": 153482.63185937406,
      "d": 117.96565625001676,
      "v": 123
    },
    {
      "midi": 79,
      "hit": false,
      "t": 153780.65035937406,
      "d": 564.993406249996,
      "v": 127
    },
    {
      "midi": 48,
      "hit": false,
      "t": 153783.75471874906,
      "d": 611.5587968750042,
      "v": 119
    },
    {
      "midi": 76,
      "hit": false,
      "t": 154075.56449999905,
      "d": 298.0185000000056,
      "v": 123
    },
    {
      "midi": 60,
      "hit": false,
      "t": 154373.58299999905,
      "d": 49.66975000000093,
      "v": 107
    },
    {
      "midi": 72,
      "hit": false,
      "t": 154373.58299999905,
      "d": 71.40026562500861,
      "v": 123
    },
    {
      "midi": 78,
      "hit": false,
      "t": 154671.60149999906,
      "d": 394.25364062498556,
      "v": 119
    },
    {
      "midi": 47,
      "hit": false,
      "t": 154671.60149999906,
      "d": 493.5931406249874,
      "v": 127
    },
    {
      "midi": 59,
      "hit": false,
      "t": 154969.61999999906,
      "d": 170.73976562498137,
      "v": 99
    },
    {
      "midi": 75,
      "hit": false,
      "t": 154972.72435937406,
      "d": 319.74901562498417,
      "v": 99
    },
    {
      "midi": 46,
      "hit": false,
      "t": 155565.65699999905,
      "d": 521.5323750000098,
      "v": 115
    },
    {
      "midi": 77,
      "hit": false,
      "t": 155565.65699999905,
      "d": 1735.3368906250107,
      "v": 115
    },
    {
      "midi": 74,
      "hit": false,
      "t": 155863.67549999905,
      "d": 1490.0924999999988,
      "v": 119
    },
    {
      "midi": 58,
      "hit": false,
      "t": 156158.58964062406,
      "d": 102.44385937499464,
      "v": 115
    },
    {
      "midi": 65,
      "hit": false,
      "t": 156459.71249999906,
      "d": 894.0554999999877,
      "v": 115
    },
    {
      "midi": 70,
      "hit": false,
      "t": 156757.73099999907,
      "d": 1912.2853749999776,
      "v": 99
    },
    {
      "midi": 58,
      "hit": false,
      "t": 157356.87235937404,
      "d": 1213.804515625001,
      "v": 107
    },
    {
      "midi": 68,
      "hit": false,
      "t": 157356.87235937404,
      "d": 1266.5786249999946,
      "v": 95
    },
    {
      "midi": 74,
      "hit": false,
      "t": 157949.80499999903,
      "d": 620.8718750000116,
      "v": 95
    },
    {
      "midi": 65,
      "hit": false,
      "t": 158247.82349999904,
      "d": 294.9141406250128,
      "v": 115
    },
    {
      "midi": 77,
      "hit": false,
      "t": 158545.84199999904,
      "d": 198.67900000000373,
      "v": 95
    },
    {
      "midi": 70,
      "hit": false,
      "t": 159154.29643749906,
      "d": 831.9683124999865,
      "v": 83
    },
    {
      "midi": 75,
      "hit": false,
      "t": 159154.29643749906,
      "d": 853.6988281249942,
      "v": 103
    },
    {
      "midi": 78,
      "hit": false,
      "t": 159154.29643749906,
      "d": 878.5337031249946,
      "v": 99
    },
    {
      "midi": 51,
      "hit": false,
      "t": 159154.29643749906,
      "d": 2517.6354531249963,
      "v": 115
    },
    {
      "midi": 63,
      "hit": false,
      "t": 160032.83014062405,
      "d": 1788.1110000000044,
      "v": 107
    },
    {
      "midi": 87,
      "hit": false,
      "t": 160330.84864062406,
      "d": 695.376500000013,
      "v": 115
    },
    {
      "midi": 82,
      "hit": false,
      "t": 160635.07585937405,
      "d": 369.4187656250142,
      "v": 119
    },
    {
      "midi": 78,
      "hit": false,
      "t": 160933.09435937405,
      "d": 142.80053125001723,
      "v": 123
    },
    {
      "midi": 77,
      "hit": false,
      "t": 161224.90414062407,
      "d": 301.12285937499837,
      "v": 127
    },
    {
      "midi": 80,
      "hit": false,
      "t": 161228.00849999906,
      "d": 298.0185000000056,
      "v": 115
    },
    {
      "midi": 78,
      "hit": false,
      "t": 161526.02699999907,
      "d": 592.9326406249893,
      "v": 127
    },
    {
      "midi": 75,
      "hit": false,
      "t": 161529.13135937406,
      "d": 915.7860156249953,
      "v": 119
    },
    {
      "midi": 51,
      "hit": false,
      "t": 161830.25421874906,
      "d": 561.8890468750033,
      "v": 115
    },
    {
      "midi": 70,
      "hit": false,
      "t": 162118.95964062406,
      "d": 325.95773437499884,
      "v": 103
    },
    {
      "midi": 78,
      "hit": false,
      "t": 162423.18685937405,
      "d": 46.56539062500815,
      "v": 123
    },
    {
      "midi": 63,
      "hit": false,
      "t": 162423.18685937405,
      "d": 96.23514062500908,
      "v": 91
    },
    {
      "midi": 75,
      "hit": false,
      "t": 162718.10099999906,
      "d": 866.1162656249944,
      "v": 115
    },
    {
      "midi": 54,
      "hit": false,
      "t": 162718.10099999906,
      "d": 1241.743749999965,
      "v": 127
    },
    {
      "midi": 69,
      "hit": false,
      "t": 162718.10099999906,
      "d": 1266.5786249999655,
      "v": 123
    },
    {
      "midi": 73,
      "hit": false,
      "t": 162718.10099999906,
      "d": 1412.4835156249756,
      "v": 107
    },
    {
      "midi": 78,
      "hit": false,
      "t": 162718.10099999906,
      "d": 1713.606374999974,
      "v": 107
    },
    {
      "midi": 66,
      "hit": false,
      "t": 163615.26085937404,
      "d": 341.47953124999185,
      "v": 127
    },
    {
      "midi": 75,
      "hit": false,
      "t": 163907.07064062404,
      "d": 524.6367343750026,
      "v": 87
    },
    {
      "midi": 69,
      "hit": false,
      "t": 164205.08914062404,
      "d": 198.67900000000373,
      "v": 115
    },
    {
      "midi": 75,
      "hit": false,
      "t": 164509.31635937403,
      "d": 915.7860156249953,
      "v": 91
    },
    {
      "midi": 68,
      "hit": false,
      "t": 164509.31635937403,
      "d": 1310.039656249981,
      "v": 119
    },
    {
      "midi": 44,
      "hit": false,
      "t": 164512.42071874902,
      "d": 912.6816562500026,
      "v": 127
    },
    {
      "midi": 73,
      "hit": false,
      "t": 164512.42071874902,
      "d": 1732.2325312499888,
      "v": 119
    },
    {
      "midi": 80,
      "hit": false,
      "t": 165403.37185937402,
      "d": 816.4465156249935,
      "v": 119
    },
    {
      "midi": 56,
      "hit": false,
      "t": 165403.37185937402,
      "d": 890.9511406249949,
      "v": 111
    },
    {
      "midi": 75,
      "hit": false,
      "t": 165701.39035937403,
      "d": 564.993406249996,
      "v": 107
    },
    {
      "midi": 68,
      "hit": false,
      "t": 166002.51321874902,
      "d": 214.20079687499674,
      "v": 83
    },
    {
      "midi": 77,
      "hit": false,
      "t": 166300.531718749,
      "d": 561.8890468750033,
      "v": 127
    },
    {
      "midi": 49,
      "hit": false,
      "t": 166300.531718749,
      "d": 1334.8745312500105,
      "v": 119
    },
    {
      "midi": 73,
      "hit": false,
      "t": 166303.636078124,
      "d": 561.8890468750033,
      "v": 123
    },
    {
      "midi": 68,
      "hit": false,
      "t": 166592.341499999,
      "d": 223.5138750000042,
      "v": 103
    },
    {
      "midi": 61,
      "hit": false,
      "t": 166893.464359374,
      "d": 2924.306531250011,
      "v": 115
    },
    {
      "midi": 89,
      "hit": false,
      "t": 167188.378499999,
      "d": 543.2628906250175,
      "v": 127
    },
    {
      "midi": 85,
      "hit": false,
      "t": 167188.378499999,
      "d": 568.0977656250179,
      "v": 127
    },
    {
      "midi": 80,
      "hit": false,
      "t": 167188.378499999,
      "d": 667.4372656250198,
      "v": 127
    },
    {
      "midi": 49,
      "hit": false,
      "t": 167784.415499999,
      "d": 1117.5693749999919,
      "v": 107
    },
    {
      "midi": 85,
      "hit": false,
      "t": 168082.43399999902,
      "d": 518.4280156249879,
      "v": 127
    },
    {
      "midi": 80,
      "hit": false,
      "t": 168082.43399999902,
      "d": 546.3672499999811,
      "v": 127
    },
    {
      "midi": 77,
      "hit": false,
      "t": 168082.43399999902,
      "d": 568.0977656249888,
      "v": 127
    },
    {
      "midi": 80,
      "hit": false,
      "t": 168976.489499999,
      "d": 518.4280156249879,
      "v": 127
    },
    {
      "midi": 77,
      "hit": false,
      "t": 168976.489499999,
      "d": 543.2628906249884,
      "v": 127
    },
    {
      "midi": 73,
      "hit": false,
      "t": 169572.526499999,
      "d": 49.66975000000093,
      "v": 107
    },
    {
      "midi": 73,
      "hit": false,
      "t": 169876.75371874898,
      "d": 462.5495468750014,
      "v": 127
    },
    {
      "midi": 78,
      "hit": false,
      "t": 169879.85807812397,
      "d": 487.38442187500186,
      "v": 127
    },
    {
      "midi": 85,
      "hit": false,
      "t": 169879.85807812397,
      "d": 509.11493750000955,
      "v": 127
    },
    {
      "midi": 81,
      "hit": false,
      "t": 169879.85807812397,
      "d": 512.2192968750023,
      "v": 127
    },
    {
      "midi": 54,
      "hit": false,
      "t": 169879.85807812397,
      "d": 3070.211421875021,
      "v": 127
    },
    {
      "midi": 66,
      "hit": false,
      "t": 170767.70485937397,
      "d": 2160.6341250000114,
      "v": 115
    },
    {
      "midi": 97,
      "hit": false,
      "t": 171037.784124999,
      "d": 298.0185000000056,
      "v": 127
    },
    {
      "midi": 85,
      "hit": false,
      "t": 171037.784124999,
      "d": 319.74901562498417,
      "v": 127
    },
    {
      "midi": 90,
      "hit": false,
      "t": 171040.88848437398,
      "d": 592.9326406249893,
      "v": 127
    },
    {
      "midi": 93,
      "hit": false,
      "t": 171338.90698437399,
      "d": 294.9141406249837,
      "v": 127
    },
    {
      "midi": 85,
      "hit": false,
      "t": 171633.82112499897,
      "d": 74.5046250000014,
      "v": 123
    },
    {
      "midi": 90,
      "hit": false,
      "t": 171931.83962499897,
      "d": 298.0185000000056,
      "v": 115
    },
    {
      "midi": 85,
      "hit": false,
      "t": 171934.94398437397,
      "d": 620.8718750000116,
      "v": 95
    },
    {
      "midi": 87,
      "hit": false,
      "t": 172229.85812499898,
      "d": 294.9141406250128,
      "v": 107
    },
    {
      "midi": 81,
      "hit": false,
      "t": 172555.81585937398,
      "d": 46.56539062500815,
      "v": 127
    },
    {
      "midi": 85,
      "hit": false,
      "t": 172822.790765624,
      "d": 322.85337500000605,
      "v": 115
    },
    {
      "midi": 81,
      "hit": false,
      "t": 173123.913624999,
      "d": 96.23514062500908,
      "v": 127
    },
    {
      "midi": 80,
      "hit": false,
      "t": 173471.601874999,
      "d": 1039.9603906249977,
      "v": 123
    },
    {
      "midi": 73,
      "hit": false,
      "t": 173471.601874999,
      "d": 1043.0647499999905,
      "v": 123
    },
    {
      "midi": 77,
      "hit": false,
      "t": 173471.601874999,
      "d": 1043.0647499999905,
      "v": 123
    },
    {
      "midi": 49,
      "hit": false,
      "t": 173471.601874999,
      "d": 2657.3316249999625,
      "v": 127
    },
    {
      "midi": 63,
      "hit": false,
      "t": 175182.10389062398,
      "d": 918.8903749999881,
      "v": 63
    },
    {
      "midi": 68,
      "hit": false,
      "t": 175185.20824999898,
      "d": 915.7860156249953,
      "v": 55
    },
    {
      "midi": 73,
      "hit": false,
      "t": 175185.20824999898,
      "d": 915.7860156249953,
      "v": 47
    },
    {
      "midi": 65,
      "hit": false,
      "t": 175185.20824999898,
      "d": 940.6208906249958,
      "v": 63
    },
    {
      "midi": 37,
      "hit": false,
      "t": 175185.20824999898,
      "d": 943.7252499999886,
      "v": 91
    }
  ]
}