{
  "jsonPath": "Classical/Classical/Martha Argerich/kinderszenen-scenes-from-childhood-op15-5-gluckes-genug-contentment.json",
  "path": "Classical\\Classical\\Martha Argerich\\Kinderszenen (Scenes from Childhood) Op15 5 Glückes genug (Contentment).mid",
  "name": "Kinderszenen (Scenes from Childhood) Op15 5 Glückes genug (Contentment)",
  "difficulty": "Advanced",
  "bpm": 120,
  "notes": [
    {
      "midi": 68,
      "hit": false,
      "t": 5.208333333333333,
      "d": 588.5416666666666,
      "v": 56
    },
    {
      "midi": 67,
      "hit": false,
      "t": 312.5,
      "d": 229.16666666666674,
      "v": 9
    },
    {
      "midi": 64,
      "hit": false,
      "t": 322.9166666666667,
      "d": 140.625,
      "v": 24
    },
    {
      "midi": 69,
      "hit": false,
      "t": 520.8333333333334,
      "d": 276.04166666666663,
      "v": 68
    },
    {
      "midi": 33,
      "hit": false,
      "t": 541.6666666666667,
      "d": 265.6249999999999,
      "v": 32
    },
    {
      "midi": 45,
      "hit": false,
      "t": 552.0833333333334,
      "d": 953.1250000000001,
      "v": 29
    },
    {
      "midi": 67,
      "hit": false,
      "t": 750,
      "d": 57.29166666666663,
      "v": 38
    },
    {
      "midi": 64,
      "hit": false,
      "t": 760.4166666666666,
      "d": 57.29166666666663,
      "v": 34
    },
    {
      "midi": 73,
      "hit": false,
      "t": 916.6666666666666,
      "d": 270.83333333333337,
      "v": 73
    },
    {
      "midi": 69,
      "hit": false,
      "t": 1093.75,
      "d": 83.33333333333326,
      "v": 36
    },
    {
      "midi": 67,
      "hit": false,
      "t": 1109.375,
      "d": 88.54166666666674,
      "v": 29
    },
    {
      "midi": 78,
      "hit": false,
      "t": 1265.625,
      "d": 229.16666666666674,
      "v": 78
    },
    {
      "midi": 69,
      "hit": false,
      "t": 1468.75,
      "d": 83.33333333333348,
      "v": 34
    },
    {
      "midi": 67,
      "hit": false,
      "t": 1479.1666666666667,
      "d": 72.91666666666674,
      "v": 35
    },
    {
      "midi": 76,
      "hit": false,
      "t": 1614.5833333333335,
      "d": 203.12499999999977,
      "v": 81
    },
    {
      "midi": 49,
      "hit": false,
      "t": 1630.2083333333335,
      "d": 255.20833333333303,
      "v": 63
    },
    {
      "midi": 69,
      "hit": false,
      "t": 1776.0416666666667,
      "d": 67.70833333333326,
      "v": 44
    },
    {
      "midi": 67,
      "hit": false,
      "t": 1781.25,
      "d": 83.33333333333326,
      "v": 35
    },
    {
      "midi": 45,
      "hit": false,
      "t": 1947.9166666666665,
      "d": 713.5416666666665,
      "v": 49
    },
    {
      "midi": 74,
      "hit": false,
      "t": 1958.3333333333333,
      "d": 406.2499999999998,
      "v": 76
    },
    {
      "midi": 50,
      "hit": false,
      "t": 1963.5416666666665,
      "d": 687.5,
      "v": 72
    },
    {
      "midi": 62,
      "hit": false,
      "t": 2166.6666666666665,
      "d": 140.625,
      "v": 36
    },
    {
      "midi": 66,
      "hit": false,
      "t": 2166.6666666666665,
      "d": 182.29166666666652,
      "v": 34
    },
    {
      "midi": 54,
      "hit": false,
      "t": 2317.708333333333,
      "d": 473.95833333333303,
      "v": 78
    },
    {
      "midi": 69,
      "hit": false,
      "t": 2328.1249999999995,
      "d": 359.375,
      "v": 63
    },
    {
      "midi": 66,
      "hit": false,
      "t": 2510.4166666666665,
      "d": 187.49999999999955,
      "v": 32
    },
    {
      "midi": 62,
      "hit": false,
      "t": 2515.625,
      "d": 145.83333333333303,
      "v": 41
    },
    {
      "midi": 59,
      "hit": false,
      "t": 2734.3749999999995,
      "d": 369.79166666666697,
      "v": 71
    },
    {
      "midi": 66,
      "hit": false,
      "t": 2937.4999999999995,
      "d": 135.41666666666697,
      "v": 30
    },
    {
      "midi": 62,
      "hit": false,
      "t": 2942.708333333333,
      "d": 125,
      "v": 27
    },
    {
      "midi": 69,
      "hit": false,
      "t": 3104.1666666666665,
      "d": 213.54166666666652,
      "v": 59
    },
    {
      "midi": 57,
      "hit": false,
      "t": 3114.583333333333,
      "d": 255.20833333333348,
      "v": 51
    },
    {
      "midi": 66,
      "hit": false,
      "t": 3286.458333333333,
      "d": 67.70833333333348,
      "v": 34
    },
    {
      "midi": 62,
      "hit": false,
      "t": 3291.6666666666665,
      "d": 72.91666666666652,
      "v": 31
    },
    {
      "midi": 69,
      "hit": false,
      "t": 3463.5416666666665,
      "d": 265.62500000000045,
      "v": 68
    },
    {
      "midi": 45,
      "hit": false,
      "t": 3468.75,
      "d": 145.83333333333348,
      "v": 47
    },
    {
      "midi": 64,
      "hit": false,
      "t": 3697.916666666667,
      "d": 125,
      "v": 69
    },
    {
      "midi": 61,
      "hit": false,
      "t": 3713.541666666667,
      "d": 57.291666666666515,
      "v": 44
    },
    {
      "midi": 57,
      "hit": false,
      "t": 3718.7500000000005,
      "d": 52.08333333333303,
      "v": 45
    },
    {
      "midi": 55,
      "hit": false,
      "t": 3718.7500000000005,
      "d": 57.291666666666515,
      "v": 40
    },
    {
      "midi": 64,
      "hit": false,
      "t": 3895.8333333333335,
      "d": 229.16666666666652,
      "v": 80
    },
    {
      "midi": 61,
      "hit": false,
      "t": 3906.25,
      "d": 83.33333333333303,
      "v": 54
    },
    {
      "midi": 57,
      "hit": false,
      "t": 3906.25,
      "d": 427.08333333333394,
      "v": 33
    },
    {
      "midi": 55,
      "hit": false,
      "t": 3916.6666666666665,
      "d": 72.91666666666652,
      "v": 32
    },
    {
      "midi": 54,
      "hit": false,
      "t": 4072.9166666666665,
      "d": 104.16666666666652,
      "v": 70
    },
    {
      "midi": 66,
      "hit": false,
      "t": 4072.9166666666665,
      "d": 229.16666666666742,
      "v": 71
    },
    {
      "midi": 67,
      "hit": false,
      "t": 4250,
      "d": 395.83333333333394,
      "v": 86
    },
    {
      "midi": 52,
      "hit": false,
      "t": 4276.041666666667,
      "d": 109.375,
      "v": 79
    },
    {
      "midi": 64,
      "hit": false,
      "t": 4416.666666666667,
      "d": 93.75,
      "v": 62
    },
    {
      "midi": 61,
      "hit": false,
      "t": 4421.875,
      "d": 62.5,
      "v": 51
    },
    {
      "midi": 71,
      "hit": false,
      "t": 4609.375,
      "d": 218.75,
      "v": 88
    },
    {
      "midi": 33,
      "hit": false,
      "t": 4619.791666666667,
      "d": 307.29166666666606,
      "v": 64
    },
    {
      "midi": 45,
      "hit": false,
      "t": 4619.791666666667,
      "d": 718.75,
      "v": 36
    },
    {
      "midi": 59,
      "hit": false,
      "t": 4796.875,
      "d": 140.625,
      "v": 56
    },
    {
      "midi": 67,
      "hit": false,
      "t": 4802.083333333333,
      "d": 93.75,
      "v": 56
    },
    {
      "midi": 69,
      "hit": false,
      "t": 4979.166666666667,
      "d": 401.04166666666697,
      "v": 67
    },
    {
      "midi": 38,
      "hit": false,
      "t": 4979.166666666667,
      "d": 489.58333333333394,
      "v": 51
    },
    {
      "midi": 66,
      "hit": false,
      "t": 5140.625,
      "d": 119.79166666666697,
      "v": 55
    },
    {
      "midi": 57,
      "hit": false,
      "t": 5156.25,
      "d": 135.41666666666697,
      "v": 44
    },
    {
      "midi": 66,
      "hit": false,
      "t": 5348.958333333334,
      "d": 463.5416666666679,
      "v": 51
    },
    {
      "midi": 42,
      "hit": false,
      "t": 5369.791666666667,
      "d": 401.0416666666679,
      "v": 40
    },
    {
      "midi": 62,
      "hit": false,
      "t": 5557.291666666668,
      "d": 78.125,
      "v": 37
    },
    {
      "midi": 57,
      "hit": false,
      "t": 5557.291666666668,
      "d": 140.625,
      "v": 39
    },
    {
      "midi": 45,
      "hit": false,
      "t": 5802.083333333335,
      "d": 499.9999999999991,
      "v": 34
    },
    {
      "midi": 64,
      "hit": false,
      "t": 5812.500000000002,
      "d": 317.7083333333321,
      "v": 59
    },
    {
      "midi": 61,
      "hit": false,
      "t": 6041.666666666668,
      "d": 93.74999999999909,
      "v": 33
    },
    {
      "midi": 57,
      "hit": false,
      "t": 6057.291666666668,
      "d": 67.70833333333303,
      "v": 28
    },
    {
      "midi": 68,
      "hit": false,
      "t": 6270.833333333334,
      "d": 281.25,
      "v": 61
    },
    {
      "midi": 67,
      "hit": false,
      "t": 6494.791666666667,
      "d": 213.54166666666606,
      "v": 28
    },
    {
      "midi": 33,
      "hit": false,
      "t": 6505.208333333334,
      "d": 197.91666666666606,
      "v": 49
    },
    {
      "midi": 69,
      "hit": false,
      "t": 6697.916666666667,
      "d": 307.29166666666424,
      "v": 52
    },
    {
      "midi": 45,
      "hit": false,
      "t": 6734.374999999999,
      "d": 1182.2916666666642,
      "v": 61
    },
    {
      "midi": 67,
      "hit": false,
      "t": 6947.916666666665,
      "d": 72.91666666666606,
      "v": 31
    },
    {
      "midi": 64,
      "hit": false,
      "t": 6953.124999999998,
      "d": 72.91666666666606,
      "v": 33
    },
    {
      "midi": 49,
      "hit": false,
      "t": 7098.958333333331,
      "d": 312.5,
      "v": 71
    },
    {
      "midi": 55,
      "hit": false,
      "t": 7296.874999999998,
      "d": 78.125,
      "v": 38
    },
    {
      "midi": 57,
      "hit": false,
      "t": 7296.874999999998,
      "d": 83.33333333333303,
      "v": 32
    },
    {
      "midi": 54,
      "hit": false,
      "t": 7458.333333333331,
      "d": 276.04166666666606,
      "v": 91
    },
    {
      "midi": 55,
      "hit": false,
      "t": 7630.208333333331,
      "d": 78.125,
      "v": 52
    },
    {
      "midi": 57,
      "hit": false,
      "t": 7635.416666666664,
      "d": 78.125,
      "v": 44
    },
    {
      "midi": 61,
      "hit": false,
      "t": 7796.874999999997,
      "d": 276.04166666666515,
      "v": 84
    },
    {
      "midi": 52,
      "hit": false,
      "t": 7817.70833333333,
      "d": 244.79166666666606,
      "v": 88
    },
    {
      "midi": 55,
      "hit": false,
      "t": 7989.58333333333,
      "d": 67.70833333333303,
      "v": 42
    },
    {
      "midi": 57,
      "hit": false,
      "t": 7989.58333333333,
      "d": 78.12499999999909,
      "v": 35
    },
    {
      "midi": 62,
      "hit": false,
      "t": 8166.666666666662,
      "d": 265.625,
      "v": 87
    },
    {
      "midi": 50,
      "hit": false,
      "t": 8182.291666666662,
      "d": 953.125,
      "v": 70
    },
    {
      "midi": 38,
      "hit": false,
      "t": 8187.499999999995,
      "d": 973.958333333333,
      "v": 55
    },
    {
      "midi": 54,
      "hit": false,
      "t": 8333.33333333333,
      "d": 67.70833333333212,
      "v": 66
    },
    {
      "midi": 57,
      "hit": false,
      "t": 8343.749999999996,
      "d": 57.29166666666606,
      "v": 43
    },
    {
      "midi": 66,
      "hit": false,
      "t": 8510.416666666662,
      "d": 250,
      "v": 81
    },
    {
      "midi": 62,
      "hit": false,
      "t": 8687.499999999996,
      "d": 52.08333333333394,
      "v": 53
    },
    {
      "midi": 57,
      "hit": false,
      "t": 8692.70833333333,
      "d": 57.29166666666606,
      "v": 47
    },
    {
      "midi": 71,
      "hit": false,
      "t": 8927.083333333328,
      "d": 239.58333333333394,
      "v": 90
    },
    {
      "midi": 66,
      "hit": false,
      "t": 9104.166666666662,
      "d": 156.25,
      "v": 45
    },
    {
      "midi": 62,
      "hit": false,
      "t": 9124.999999999996,
      "d": 72.91666666666606,
      "v": 38
    },
    {
      "midi": 69,
      "hit": false,
      "t": 9281.249999999996,
      "d": 229.16666666666424,
      "v": 83
    },
    {
      "midi": 48,
      "hit": false,
      "t": 9291.666666666662,
      "d": 166.66666666666606,
      "v": 66
    },
    {
      "midi": 36,
      "hit": false,
      "t": 9302.083333333328,
      "d": 166.66666666666606,
      "v": 55
    },
    {
      "midi": 66,
      "hit": false,
      "t": 9447.916666666662,
      "d": 197.91666666666424,
      "v": 51
    },
    {
      "midi": 62,
      "hit": false,
      "t": 9479.16666666666,
      "d": 67.70833333333394,
      "v": 35
    },
    {
      "midi": 35,
      "hit": false,
      "t": 9635.41666666666,
      "d": 1052.083333333334,
      "v": 61
    },
    {
      "midi": 67,
      "hit": false,
      "t": 9645.833333333327,
      "d": 276.04166666666606,
      "v": 94
    },
    {
      "midi": 47,
      "hit": false,
      "t": 9645.833333333327,
      "d": 781.25,
      "v": 59
    },
    {
      "midi": 55,
      "hit": false,
      "t": 9828.124999999993,
      "d": 62.5,
      "v": 48
    },
    {
      "midi": 62,
      "hit": false,
      "t": 9828.124999999993,
      "d": 62.5,
      "v": 41
    },
    {
      "midi": 71,
      "hit": false,
      "t": 10020.833333333327,
      "d": 255.20833333333394,
      "v": 95
    },
    {
      "midi": 62,
      "hit": false,
      "t": 10192.708333333327,
      "d": 57.29166666666788,
      "v": 43
    },
    {
      "midi": 67,
      "hit": false,
      "t": 10197.91666666666,
      "d": 52.08333333333394,
      "v": 56
    },
    {
      "midi": 76,
      "hit": false,
      "t": 10380.208333333327,
      "d": 213.54166666666788,
      "v": 88
    },
    {
      "midi": 67,
      "hit": false,
      "t": 10588.54166666666,
      "d": 78.125,
      "v": 36
    },
    {
      "midi": 64,
      "hit": false,
      "t": 10588.54166666666,
      "d": 125,
      "v": 49
    },
    {
      "midi": 74,
      "hit": false,
      "t": 10739.583333333327,
      "d": 265.625,
      "v": 80
    },
    {
      "midi": 46,
      "hit": false,
      "t": 10739.583333333327,
      "d": 317.70833333333394,
      "v": 47
    },
    {
      "midi": 34,
      "hit": false,
      "t": 10749.999999999993,
      "d": 375.0000000000018,
      "v": 37
    },
    {
      "midi": 67,
      "hit": false,
      "t": 10942.708333333327,
      "d": 93.75,
      "v": 34
    },
    {
      "midi": 62,
      "hit": false,
      "t": 10942.708333333327,
      "d": 130.20833333333394,
      "v": 45
    },
    {
      "midi": 73,
      "hit": false,
      "t": 11130.208333333328,
      "d": 442.7083333333321,
      "v": 69
    },
    {
      "midi": 45,
      "hit": false,
      "t": 11151.041666666662,
      "d": 249.99999999999818,
      "v": 36
    },
    {
      "midi": 33,
      "hit": false,
      "t": 11156.249999999996,
      "d": 234.37499999999818,
      "v": 34
    },
    {
      "midi": 61,
      "hit": false,
      "t": 11317.708333333328,
      "d": 130.20833333333212,
      "v": 42
    },
    {
      "midi": 67,
      "hit": false,
      "t": 11328.124999999995,
      "d": 78.125,
      "v": 32
    },
    {
      "midi": 71,
      "hit": false,
      "t": 11494.79166666666,
      "d": 421.875,
      "v": 68
    },
    {
      "midi": 47,
      "hit": false,
      "t": 11515.624999999995,
      "d": 213.54166666666606,
      "v": 44
    },
    {
      "midi": 35,
      "hit": false,
      "t": 11515.624999999995,
      "d": 234.375,
      "v": 66
    },
    {
      "midi": 67,
      "hit": false,
      "t": 11677.083333333327,
      "d": 88.54166666666788,
      "v": 27
    },
    {
      "midi": 62,
      "hit": false,
      "t": 11682.29166666666,
      "d": 62.5,
      "v": 43
    },
    {
      "midi": 69,
      "hit": false,
      "t": 11927.083333333327,
      "d": 281.25,
      "v": 41
    },
    {
      "midi": 48,
      "hit": false,
      "t": 11958.333333333327,
      "d": 223.95833333333394,
      "v": 23
    },
    {
      "midi": 36,
      "hit": false,
      "t": 11963.54166666666,
      "d": 411.4583333333321,
      "v": 28
    },
    {
      "midi": 67,
      "hit": false,
      "t": 12124.999999999995,
      "d": 98.95833333333212,
      "v": 21
    },
    {
      "midi": 63,
      "hit": false,
      "t": 12135.41666666666,
      "d": 249.99999999999818,
      "v": 29
    },
    {
      "midi": 68,
      "hit": false,
      "t": 12416.666666666659,
      "d": 453.12500000000364,
      "v": 44
    },
    {
      "midi": 49,
      "hit": false,
      "t": 12468.749999999993,
      "d": 531.2500000000036,
      "v": 25
    },
    {
      "midi": 37,
      "hit": false,
      "t": 12479.166666666659,
      "d": 614.5833333333376,
      "v": 25
    },
    {
      "midi": 64,
      "hit": false,
      "t": 12656.249999999993,
      "d": 98.95833333333394,
      "v": 29
    },
    {
      "midi": 67,
      "hit": false,
      "t": 12661.458333333327,
      "d": 114.58333333333394,
      "v": 24
    },
    {
      "midi": 69,
      "hit": false,
      "t": 12828.124999999995,
      "d": 296.8750000000018,
      "v": 52
    },
    {
      "midi": 67,
      "hit": false,
      "t": 13020.83333333333,
      "d": 83.33333333333212,
      "v": 22
    },
    {
      "midi": 64,
      "hit": false,
      "t": 13026.041666666664,
      "d": 67.70833333333212,
      "v": 18
    },
    {
      "midi": 73,
      "hit": false,
      "t": 13166.666666666662,
      "d": 239.58333333333394,
      "v": 43
    },
    {
      "midi": 33,
      "hit": false,
      "t": 13192.708333333328,
      "d": 604.1666666666679,
      "v": 16
    },
    {
      "midi": 67,
      "hit": false,
      "t": 13385.416666666662,
      "d": 145.83333333333394,
      "v": 25
    },
    {
      "midi": 69,
      "hit": false,
      "t": 13390.624999999996,
      "d": 166.66666666666606,
      "v": 9
    },
    {
      "midi": 78,
      "hit": false,
      "t": 13614.583333333328,
      "d": 286.45833333333394,
      "v": 41
    },
    {
      "midi": 69,
      "hit": false,
      "t": 13854.166666666662,
      "d": 114.58333333333394,
      "v": 24
    },
    {
      "midi": 67,
      "hit": false,
      "t": 13874.999999999996,
      "d": 109.375,
      "v": 12
    },
    {
      "midi": 76,
      "hit": false,
      "t": 14088.541666666662,
      "d": 182.29166666666788,
      "v": 37
    },
    {
      "midi": 49,
      "hit": false,
      "t": 14109.374999999996,
      "d": 98.95833333333394,
      "v": 24
    },
    {
      "midi": 69,
      "hit": false,
      "t": 14317.70833333333,
      "d": 109.375,
      "v": 12
    },
    {
      "midi": 67,
      "hit": false,
      "t": 14328.124999999996,
      "d": 104.16666666666788,
      "v": 6
    },
    {
      "midi": 45,
      "hit": false,
      "t": 14406.249999999996,
      "d": 708.3333333333376,
      "v": 15
    },
    {
      "midi": 74,
      "hit": false,
      "t": 14499.999999999998,
      "d": 390.625,
      "v": 47
    },
    {
      "midi": 50,
      "hit": false,
      "t": 14510.416666666664,
      "d": 375,
      "v": 35
    },
    {
      "midi": 62,
      "hit": false,
      "t": 14713.541666666664,
      "d": 182.29166666666788,
      "v": 27
    },
    {
      "midi": 66,
      "hit": false,
      "t": 14723.95833333333,
      "d": 192.70833333333576,
      "v": 13
    },
    {
      "midi": 69,
      "hit": false,
      "t": 14916.666666666666,
      "d": 343.7500000000018,
      "v": 23
    },
    {
      "midi": 54,
      "hit": false,
      "t": 14916.666666666666,
      "d": 348.95833333333576,
      "v": 49
    },
    {
      "midi": 66,
      "hit": false,
      "t": 15088.541666666666,
      "d": 125.00000000000182,
      "v": 14
    },
    {
      "midi": 62,
      "hit": false,
      "t": 15093.75,
      "d": 83.33333333333394,
      "v": 24
    },
    {
      "midi": 59,
      "hit": false,
      "t": 15234.375000000002,
      "d": 302.08333333333576,
      "v": 45
    },
    {
      "midi": 66,
      "hit": false,
      "t": 15411.458333333336,
      "d": 83.33333333333394,
      "v": 39
    },
    {
      "midi": 62,
      "hit": false,
      "t": 15442.708333333336,
      "d": 72.91666666666788,
      "v": 22
    },
    {
      "midi": 69,
      "hit": false,
      "t": 15593.750000000004,
      "d": 223.95833333333394,
      "v": 63
    },
    {
      "midi": 57,
      "hit": false,
      "t": 15614.583333333338,
      "d": 187.5,
      "v": 39
    },
    {
      "midi": 62,
      "hit": false,
      "t": 15770.833333333338,
      "d": 72.91666666666606,
      "v": 38
    },
    {
      "midi": 66,
      "hit": false,
      "t": 15776.041666666672,
      "d": 67.70833333333212,
      "v": 34
    },
    {
      "midi": 45,
      "hit": false,
      "t": 15963.54166666667,
      "d": 151.04166666666788,
      "v": 40
    },
    {
      "midi": 69,
      "hit": false,
      "t": 16000.000000000004,
      "d": 260.4166666666679,
      "v": 59
    },
    {
      "midi": 61,
      "hit": false,
      "t": 16213.54166666667,
      "d": 78.12500000000182,
      "v": 24
    },
    {
      "midi": 64,
      "hit": false,
      "t": 16218.750000000004,
      "d": 57.29166666666788,
      "v": 46
    },
    {
      "midi": 57,
      "hit": false,
      "t": 16223.958333333338,
      "d": 62.5,
      "v": 39
    },
    {
      "midi": 55,
      "hit": false,
      "t": 16223.958333333338,
      "d": 67.70833333333394,
      "v": 39
    },
    {
      "midi": 55,
      "hit": false,
      "t": 16385.41666666667,
      "d": 98.95833333333576,
      "v": 36
    },
    {
      "midi": 64,
      "hit": false,
      "t": 16385.41666666667,
      "d": 213.54166666667152,
      "v": 53
    },
    {
      "midi": 61,
      "hit": false,
      "t": 16395.83333333334,
      "d": 114.58333333333576,
      "v": 29
    },
    {
      "midi": 57,
      "hit": false,
      "t": 16395.83333333334,
      "d": 447.9166666666715,
      "v": 20
    },
    {
      "midi": 66,
      "hit": false,
      "t": 16562.500000000007,
      "d": 213.54166666667152,
      "v": 56
    },
    {
      "midi": 54,
      "hit": false,
      "t": 16572.916666666675,
      "d": 83.33333333333576,
      "v": 53
    },
    {
      "midi": 67,
      "hit": false,
      "t": 16755.208333333343,
      "d": 375.00000000000364,
      "v": 72
    },
    {
      "midi": 52,
      "hit": false,
      "t": 16765.62500000001,
      "d": 98.95833333333212,
      "v": 66
    },
    {
      "midi": 61,
      "hit": false,
      "t": 16906.25000000001,
      "d": 62.5,
      "v": 39
    },
    {
      "midi": 64,
      "hit": false,
      "t": 16911.458333333343,
      "d": 98.95833333333576,
      "v": 51
    },
    {
      "midi": 71,
      "hit": false,
      "t": 17114.583333333347,
      "d": 213.54166666666424,
      "v": 78
    },
    {
      "midi": 33,
      "hit": false,
      "t": 17130.208333333347,
      "d": 291.66666666666424,
      "v": 46
    },
    {
      "midi": 45,
      "hit": false,
      "t": 17145.833333333347,
      "d": 729.1666666666606,
      "v": 43
    },
    {
      "midi": 67,
      "hit": false,
      "t": 17307.29166666668,
      "d": 109.375,
      "v": 41
    },
    {
      "midi": 59,
      "hit": false,
      "t": 17307.29166666668,
      "d": 145.83333333333212,
      "v": 36
    },
    {
      "midi": 38,
      "hit": false,
      "t": 17484.37500000001,
      "d": 406.24999999999636,
      "v": 50
    },
    {
      "midi": 69,
      "hit": false,
      "t": 17484.37500000001,
      "d": 411.4583333333285,
      "v": 63
    },
    {
      "midi": 66,
      "hit": false,
      "t": 17651.041666666675,
      "d": 83.33333333333212,
      "v": 43
    },
    {
      "midi": 57,
      "hit": false,
      "t": 17666.666666666675,
      "d": 119.79166666666424,
      "v": 47
    },
    {
      "midi": 66,
      "hit": false,
      "t": 17843.750000000007,
      "d": 427.0833333333321,
      "v": 57
    },
    {
      "midi": 42,
      "hit": false,
      "t": 17848.95833333334,
      "d": 348.9583333333321,
      "v": 41
    },
    {
      "midi": 57,
      "hit": false,
      "t": 18036.45833333334,
      "d": 78.125,
      "v": 37
    },
    {
      "midi": 62,
      "hit": false,
      "t": 18062.500000000007,
      "d": 83.33333333333212,
      "v": 35
    },
    {
      "midi": 45,
      "hit": false,
      "t": 18255.20833333334,
      "d": 567.7083333333285,
      "v": 31
    },
    {
      "midi": 64,
      "hit": false,
      "t": 18270.83333333334,
      "d": 322.91666666666424,
      "v": 44
    },
    {
      "midi": 61,
      "hit": false,
      "t": 18479.16666666667,
      "d": 83.33333333333212,
      "v": 33
    },
    {
      "midi": 57,
      "hit": false,
      "t": 18494.79166666667,
      "d": 88.54166666666424,
      "v": 15
    },
    {
      "midi": 68,
      "hit": false,
      "t": 18708.333333333336,
      "d": 255.20833333333576,
      "v": 63
    },
    {
      "midi": 67,
      "hit": false,
      "t": 18895.833333333336,
      "d": 229.16666666666788,
      "v": 47
    },
    {
      "midi": 64,
      "hit": false,
      "t": 18906.250000000004,
      "d": 62.5,
      "v": 37
    },
    {
      "midi": 33,
      "hit": false,
      "t": 18973.958333333336,
      "d": 119.79166666666788,
      "v": 35
    },
    {
      "midi": 69,
      "hit": false,
      "t": 19078.125000000004,
      "d": 276.0416666666679,
      "v": 62
    },
    {
      "midi": 45,
      "hit": false,
      "t": 19104.16666666667,
      "d": 1192.7083333333321,
      "v": 57
    },
    {
      "midi": 67,
      "hit": false,
      "t": 19291.66666666667,
      "d": 57.29166666666788,
      "v": 52
    },
    {
      "midi": 64,
      "hit": false,
      "t": 19302.08333333334,
      "d": 57.29166666666424,
      "v": 39
    },
    {
      "midi": 49,
      "hit": false,
      "t": 19416.66666666667,
      "d": 312.5,
      "v": 65
    },
    {
      "midi": 55,
      "hit": false,
      "t": 19604.16666666667,
      "d": 93.75,
      "v": 51
    },
    {
      "midi": 57,
      "hit": false,
      "t": 19609.375000000004,
      "d": 78.125,
      "v": 36
    },
    {
      "midi": 54,
      "hit": false,
      "t": 19781.250000000004,
      "d": 317.7083333333321,
      "v": 84
    },
    {
      "midi": 55,
      "hit": false,
      "t": 19963.54166666667,
      "d": 67.70833333333212,
      "v": 54
    },
    {
      "midi": 57,
      "hit": false,
      "t": 19963.54166666667,
      "d": 88.54166666666424,
      "v": 47
    },
    {
      "midi": 61,
      "hit": false,
      "t": 20114.583333333336,
      "d": 296.875,
      "v": 77
    },
    {
      "midi": 52,
      "hit": false,
      "t": 20140.625000000004,
      "d": 239.58333333333212,
      "v": 75
    },
    {
      "midi": 57,
      "hit": false,
      "t": 20312.500000000004,
      "d": 62.5,
      "v": 42
    },
    {
      "midi": 55,
      "hit": false,
      "t": 20312.500000000004,
      "d": 67.70833333333212,
      "v": 51
    },
    {
      "midi": 62,
      "hit": false,
      "t": 20489.583333333336,
      "d": 265.62499999999636,
      "v": 84
    },
    {
      "midi": 50,
      "hit": false,
      "t": 20489.583333333336,
      "d": 947.9166666666642,
      "v": 57
    },
    {
      "midi": 38,
      "hit": false,
      "t": 20505.208333333336,
      "d": 947.9166666666642,
      "v": 39
    },
    {
      "midi": 54,
      "hit": false,
      "t": 20656.250000000004,
      "d": 52.08333333333212,
      "v": 64
    },
    {
      "midi": 57,
      "hit": false,
      "t": 20656.250000000004,
      "d": 57.29166666666424,
      "v": 36
    },
    {
      "midi": 66,
      "hit": false,
      "t": 20822.916666666664,
      "d": 234.37500000000364,
      "v": 75
    },
    {
      "midi": 62,
      "hit": false,
      "t": 20989.583333333332,
      "d": 46.875,
      "v": 52
    },
    {
      "midi": 57,
      "hit": false,
      "t": 20989.583333333332,
      "d": 57.29166666666788,
      "v": 46
    },
    {
      "midi": 71,
      "hit": false,
      "t": 21229.166666666668,
      "d": 333.3333333333321,
      "v": 88
    },
    {
      "midi": 66,
      "hit": false,
      "t": 21406.25,
      "d": 135.41666666666788,
      "v": 42
    },
    {
      "midi": 62,
      "hit": false,
      "t": 21411.458333333332,
      "d": 72.91666666666788,
      "v": 44
    },
    {
      "midi": 48,
      "hit": false,
      "t": 21572.916666666668,
      "d": 203.125,
      "v": 58
    },
    {
      "midi": 69,
      "hit": false,
      "t": 21572.916666666668,
      "d": 208.33333333333212,
      "v": 81
    },
    {
      "midi": 36,
      "hit": false,
      "t": 21583.333333333336,
      "d": 192.70833333333212,
      "v": 55
    },
    {
      "midi": 66,
      "hit": false,
      "t": 21729.166666666668,
      "d": 67.70833333333212,
      "v": 52
    },
    {
      "midi": 62,
      "hit": false,
      "t": 21750,
      "d": 57.29166666666788,
      "v": 49
    },
    {
      "midi": 67,
      "hit": false,
      "t": 21916.666666666668,
      "d": 276.0416666666715,
      "v": 91
    },
    {
      "midi": 35,
      "hit": false,
      "t": 21927.083333333336,
      "d": 895.8333333333394,
      "v": 59
    },
    {
      "midi": 47,
      "hit": false,
      "t": 21937.500000000004,
      "d": 786.4583333333394,
      "v": 45
    },
    {
      "midi": 55,
      "hit": false,
      "t": 22104.16666666667,
      "d": 57.29166666666788,
      "v": 48
    },
    {
      "midi": 71,
      "hit": false,
      "t": 22276.04166666667,
      "d": 239.58333333333576,
      "v": 94
    },
    {
      "midi": 67,
      "hit": false,
      "t": 22447.91666666667,
      "d": 57.29166666666788,
      "v": 50
    },
    {
      "midi": 60,
      "hit": false,
      "t": 22463.54166666667,
      "d": 62.50000000000364,
      "v": 16
    },
    {
      "midi": 76,
      "hit": false,
      "t": 22630.208333333343,
      "d": 203.125,
      "v": 91
    },
    {
      "midi": 67,
      "hit": false,
      "t": 22822.916666666675,
      "d": 67.70833333333212,
      "v": 64
    },
    {
      "midi": 64,
      "hit": false,
      "t": 22838.541666666675,
      "d": 67.70833333333212,
      "v": 47
    },
    {
      "midi": 46,
      "hit": false,
      "t": 23000.000000000007,
      "d": 343.7500000000073,
      "v": 55
    },
    {
      "midi": 34,
      "hit": false,
      "t": 23000.000000000007,
      "d": 401.04166666667516,
      "v": 53
    },
    {
      "midi": 74,
      "hit": false,
      "t": 23010.416666666675,
      "d": 239.58333333333576,
      "v": 82
    },
    {
      "midi": 67,
      "hit": false,
      "t": 23197.916666666675,
      "d": 125.00000000000364,
      "v": 47
    },
    {
      "midi": 62,
      "hit": false,
      "t": 23208.333333333343,
      "d": 125.00000000000364,
      "v": 49
    },
    {
      "midi": 73,
      "hit": false,
      "t": 23432.291666666682,
      "d": 468.74999999999636,
      "v": 72
    },
    {
      "midi": 33,
      "hit": false,
      "t": 23437.500000000015,
      "d": 255.20833333333212,
      "v": 64
    },
    {
      "midi": 45,
      "hit": false,
      "t": 23437.500000000015,
      "d": 260.41666666666424,
      "v": 55
    },
    {
      "midi": 61,
      "hit": false,
      "t": 23619.79166666668,
      "d": 98.95833333333212,
      "v": 60
    },
    {
      "midi": 67,
      "hit": false,
      "t": 23635.41666666668,
      "d": 114.58333333333212,
      "v": 51
    },
    {
      "midi": 71,
      "hit": false,
      "t": 23791.66666666668,
      "d": 484.375,
      "v": 83
    },
    {
      "midi": 47,
      "hit": false,
      "t": 23807.29166666668,
      "d": 250.00000000000364,
      "v": 64
    },
    {
      "midi": 35,
      "hit": false,
      "t": 23812.50000000001,
      "d": 234.37500000000364,
      "v": 68
    },
    {
      "midi": 62,
      "hit": false,
      "t": 23989.583333333347,
      "d": 145.83333333333576,
      "v": 53
    },
    {
      "midi": 67,
      "hit": false,
      "t": 23989.583333333347,
      "d": 239.58333333333576,
      "v": 44
    },
    {
      "midi": 69,
      "hit": false,
      "t": 24260.416666666682,
      "d": 390.62499999999636,
      "v": 48
    },
    {
      "midi": 49,
      "hit": false,
      "t": 24265.625000000015,
      "d": 468.75,
      "v": 46
    },
    {
      "midi": 37,
      "hit": false,
      "t": 24270.833333333347,
      "d": 416.6666666666679,
      "v": 33
    },
    {
      "midi": 63,
      "hit": false,
      "t": 24546.87500000001,
      "d": 343.75000000000364,
      "v": 36
    },
    {
      "midi": 67,
      "hit": false,
      "t": 24562.50000000001,
      "d": 98.95833333333576,
      "v": 30
    },
    {
      "midi": 69,
      "hit": false,
      "t": 24880.208333333347,
      "d": 473.9583333333285,
      "v": 48
    },
    {
      "midi": 36,
      "hit": false,
      "t": 24911.458333333347,
      "d": 1119.7916666666606,
      "v": 28
    },
    {
      "midi": 48,
      "hit": false,
      "t": 24916.66666666668,
      "d": 1281.2499999999927,
      "v": 24
    },
    {
      "midi": 64,
      "hit": false,
      "t": 25125.00000000001,
      "d": 98.95833333333212,
      "v": 26
    },
    {
      "midi": 67,
      "hit": false,
      "t": 25130.208333333343,
      "d": 130.20833333333212,
      "v": 28
    },
    {
      "midi": 70,
      "hit": false,
      "t": 25317.708333333343,
      "d": 296.87499999999636,
      "v": 50
    },
    {
      "midi": 67,
      "hit": false,
      "t": 25546.875000000007,
      "d": 78.125,
      "v": 30
    },
    {
      "midi": 64,
      "hit": false,
      "t": 25552.08333333334,
      "d": 62.5,
      "v": 18
    },
    {
      "midi": 76,
      "hit": false,
      "t": 25723.95833333334,
      "d": 343.75,
      "v": 49
    },
    {
      "midi": 70,
      "hit": false,
      "t": 25927.08333333334,
      "d": 135.41666666666788,
      "v": 25
    },
    {
      "midi": 67,
      "hit": false,
      "t": 25942.70833333334,
      "d": 78.125,
      "v": 30
    },
    {
      "midi": 81,
      "hit": false,
      "t": 26276.04166666667,
      "d": 161.45833333333212,
      "v": 53
    },
    {
      "midi": 70,
      "hit": false,
      "t": 26614.583333333336,
      "d": 78.125,
      "v": 29
    },
    {
      "midi": 67,
      "hit": false,
      "t": 26619.791666666668,
      "d": 140.625,
      "v": 8
    },
    {
      "midi": 79,
      "hit": false,
      "t": 26807.291666666668,
      "d": 140.625,
      "v": 50
    },
    {
      "midi": 52,
      "hit": false,
      "t": 26833.333333333336,
      "d": 343.74999999999636,
      "v": 38
    },
    {
      "midi": 70,
      "hit": false,
      "t": 27057.291666666668,
      "d": 156.24999999999636,
      "v": 25
    },
    {
      "midi": 67,
      "hit": false,
      "t": 27072.916666666668,
      "d": 156.24999999999636,
      "v": 4
    },
    {
      "midi": 48,
      "hit": false,
      "t": 27171.875,
      "d": 713.5416666666642,
      "v": 37
    },
    {
      "midi": 77,
      "hit": false,
      "t": 27255.208333333332,
      "d": 510.41666666666424,
      "v": 48
    },
    {
      "midi": 53,
      "hit": false,
      "t": 27322.916666666664,
      "d": 427.0833333333321,
      "v": 60
    },
    {
      "midi": 65,
      "hit": false,
      "t": 27541.666666666664,
      "d": 156.25,
      "v": 16
    },
    {
      "midi": 69,
      "hit": false,
      "t": 27552.083333333332,
      "d": 177.08333333333212,
      "v": 24
    },
    {
      "midi": 72,
      "hit": false,
      "t": 27734.374999999996,
      "d": 677.0833333333358,
      "v": 54
    },
    {
      "midi": 57,
      "hit": false,
      "t": 27760.416666666664,
      "d": 484.375,
      "v": 60
    },
    {
      "midi": 65,
      "hit": false,
      "t": 27963.541666666664,
      "d": 93.75,
      "v": 19
    },
    {
      "midi": 69,
      "hit": false,
      "t": 27968.749999999996,
      "d": 104.16666666666788,
      "v": 23
    },
    {
      "midi": 62,
      "hit": false,
      "t": 28244.791666666664,
      "d": 401.0416666666715,
      "v": 63
    },
    {
      "midi": 65,
      "hit": false,
      "t": 28468.75,
      "d": 83.33333333333576,
      "v": 29
    },
    {
      "midi": 69,
      "hit": false,
      "t": 28494.791666666668,
      "d": 104.16666666666788,
      "v": 18
    },
    {
      "midi": 72,
      "hit": false,
      "t": 28630.208333333336,
      "d": 223.95833333333576,
      "v": 64
    },
    {
      "midi": 60,
      "hit": false,
      "t": 28635.416666666668,
      "d": 385.4166666666679,
      "v": 63
    },
    {
      "midi": 69,
      "hit": false,
      "t": 28812.500000000004,
      "d": 62.5,
      "v": 42
    },
    {
      "midi": 65,
      "hit": false,
      "t": 28812.500000000004,
      "d": 78.125,
      "v": 23
    },
    {
      "midi": 48,
      "hit": false,
      "t": 29000.000000000004,
      "d": 192.70833333333212,
      "v": 48
    },
    {
      "midi": 72,
      "hit": false,
      "t": 29005.208333333336,
      "d": 432.29166666666424,
      "v": 75
    },
    {
      "midi": 67,
      "hit": false,
      "t": 29218.750000000004,
      "d": 83.33333333332848,
      "v": 66
    },
    {
      "midi": 62,
      "hit": false,
      "t": 29223.958333333336,
      "d": 62.49999999999636,
      "v": 41
    },
    {
      "midi": 64,
      "hit": false,
      "t": 29229.166666666668,
      "d": 52.08333333333212,
      "v": 41
    },
    {
      "midi": 58,
      "hit": false,
      "t": 29234.375,
      "d": 67.70833333333212,
      "v": 42
    },
    {
      "midi": 67,
      "hit": false,
      "t": 29421.875,
      "d": 255.20833333333212,
      "v": 71
    },
    {
      "midi": 58,
      "hit": false,
      "t": 29427.083333333332,
      "d": 151.04166666666788,
      "v": 39
    },
    {
      "midi": 64,
      "hit": false,
      "t": 29437.5,
      "d": 67.70833333333212,
      "v": 33
    },
    {
      "midi": 62,
      "hit": false,
      "t": 29437.5,
      "d": 406.24999999999636,
      "v": 36
    },
    {
      "midi": 69,
      "hit": false,
      "t": 29593.75,
      "d": 239.58333333332848,
      "v": 68
    },
    {
      "midi": 57,
      "hit": false,
      "t": 29625,
      "d": 88.54166666666424,
      "v": 50
    },
    {
      "midi": 70,
      "hit": false,
      "t": 29791.666666666664,
      "d": 291.6666666666679,
      "v": 73
    },
    {
      "midi": 55,
      "hit": false,
      "t": 29812.499999999996,
      "d": 57.29166666666788,
      "v": 62
    },
    {
      "midi": 64,
      "hit": false,
      "t": 29994.791666666664,
      "d": 72.91666666666788,
      "v": 52
    },
    {
      "midi": 67,
      "hit": false,
      "t": 29994.791666666664,
      "d": 93.75,
      "v": 53
    },
    {
      "midi": 36,
      "hit": false,
      "t": 30151.041666666664,
      "d": 52.08333333333212,
      "v": 45
    },
    {
      "midi": 74,
      "hit": false,
      "t": 30229.166666666664,
      "d": 104.16666666666788,
      "v": 79
    },
    {
      "midi": 52,
      "hit": false,
      "t": 30270.833333333332,
      "d": 171.875,
      "v": 69
    },
    {
      "midi": 70,
      "hit": false,
      "t": 30453.125,
      "d": 145.83333333333212,
      "v": 57
    },
    {
      "midi": 60,
      "hit": false,
      "t": 30458.333333333332,
      "d": 83.33333333333212,
      "v": 43
    },
    {
      "midi": 72,
      "hit": false,
      "t": 30630.208333333332,
      "d": 401.04166666666424,
      "v": 71
    },
    {
      "midi": 41,
      "hit": false,
      "t": 30645.833333333332,
      "d": 374.99999999999636,
      "v": 48
    },
    {
      "midi": 53,
      "hit": false,
      "t": 30645.833333333332,
      "d": 593.7499999999964,
      "v": 70
    },
    {
      "midi": 65,
      "hit": false,
      "t": 30807.291666666664,
      "d": 83.33333333333212,
      "v": 40
    },
    {
      "midi": 60,
      "hit": false,
      "t": 30807.291666666664,
      "d": 130.20833333333212,
      "v": 41
    },
    {
      "midi": 69,
      "hit": false,
      "t": 30989.58333333333,
      "d": 458.33333333333576,
      "v": 63
    },
    {
      "midi": 45,
      "hit": false,
      "t": 30999.999999999996,
      "d": 348.95833333333576,
      "v": 64
    },
    {
      "midi": 65,
      "hit": false,
      "t": 31197.916666666664,
      "d": 192.70833333333576,
      "v": 39
    },
    {
      "midi": 60,
      "hit": false,
      "t": 31203.124999999996,
      "d": 88.54166666666788,
      "v": 37
    },
    {
      "midi": 67,
      "hit": false,
      "t": 31406.25,
      "d": 380.2083333333321,
      "v": 65
    },
    {
      "midi": 52,
      "hit": false,
      "t": 31427.083333333332,
      "d": 281.25,
      "v": 39
    },
    {
      "midi": 48,
      "hit": false,
      "t": 31427.083333333332,
      "d": 401.0416666666679,
      "v": 33
    },
    {
      "midi": 60,
      "hit": false,
      "t": 31614.583333333332,
      "d": 78.125,
      "v": 42
    },
    {
      "midi": 69,
      "hit": false,
      "t": 31843.75,
      "d": 296.87499999999636,
      "v": 78
    },
    {
      "midi": 67,
      "hit": false,
      "t": 32036.458333333332,
      "d": 83.33333333333212,
      "v": 37
    },
    {
      "midi": 64,
      "hit": false,
      "t": 32041.666666666664,
      "d": 67.70833333333212,
      "v": 46
    },
    {
      "midi": 70,
      "hit": false,
      "t": 32213.541666666664,
      "d": 307.29166666666424,
      "v": 81
    },
    {
      "midi": 48,
      "hit": false,
      "t": 32229.166666666664,
      "d": 1031.2499999999927,
      "v": 45
    },
    {
      "midi": 36,
      "hit": false,
      "t": 32239.583333333332,
      "d": 1010.4166666666606,
      "v": 45
    },
    {
      "midi": 67,
      "hit": false,
      "t": 32401.041666666664,
      "d": 46.875,
      "v": 59
    },
    {
      "midi": 64,
      "hit": false,
      "t": 32401.041666666664,
      "d": 52.08333333333212,
      "v": 46
    },
    {
      "midi": 76,
      "hit": false,
      "t": 32588.54166666666,
      "d": 322.9166666666679,
      "v": 89
    },
    {
      "midi": 67,
      "hit": false,
      "t": 32776.041666666664,
      "d": 62.5,
      "v": 42
    },
    {
      "midi": 70,
      "hit": false,
      "t": 32776.041666666664,
      "d": 62.5,
      "v": 46
    },
    {
      "midi": 81,
      "hit": false,
      "t": 33010.416666666664,
      "d": 104.16666666666424,
      "v": 92
    },
    {
      "midi": 67,
      "hit": false,
      "t": 33239.58333333333,
      "d": 88.54166666666424,
      "v": 34
    },
    {
      "midi": 70,
      "hit": false,
      "t": 33249.99999999999,
      "d": 72.91666666666424,
      "v": 35
    },
    {
      "midi": 79,
      "hit": false,
      "t": 33437.49999999999,
      "d": 229.16666666666424,
      "v": 95
    },
    {
      "midi": 49,
      "hit": false,
      "t": 33447.91666666666,
      "d": 343.75,
      "v": 63
    },
    {
      "midi": 37,
      "hit": false,
      "t": 33453.12499999999,
      "d": 317.7083333333285,
      "v": 57
    },
    {
      "midi": 70,
      "hit": false,
      "t": 33651.04166666666,
      "d": 151.04166666666424,
      "v": 40
    },
    {
      "midi": 67,
      "hit": false,
      "t": 33666.66666666666,
      "d": 104.16666666666424,
      "v": 46
    },
    {
      "midi": 78,
      "hit": false,
      "t": 33854.16666666666,
      "d": 281.2499999999927,
      "v": 85
    },
    {
      "midi": 50,
      "hit": false,
      "t": 33869.79166666666,
      "d": 244.79166666666424,
      "v": 67
    },
    {
      "midi": 38,
      "hit": false,
      "t": 33885.41666666666,
      "d": 197.91666666666424,
      "v": 51
    },
    {
      "midi": 66,
      "hit": false,
      "t": 34041.66666666666,
      "d": 83.33333333332848,
      "v": 48
    },
    {
      "midi": 69,
      "hit": false,
      "t": 34041.66666666666,
      "d": 140.62499999999272,
      "v": 36
    },
    {
      "midi": 73,
      "hit": false,
      "t": 34229.16666666665,
      "d": 265.6250000000073,
      "v": 78
    },
    {
      "midi": 52,
      "hit": false,
      "t": 34249.999999999985,
      "d": 218.75000000000728,
      "v": 65
    },
    {
      "midi": 40,
      "hit": false,
      "t": 34255.20833333332,
      "d": 192.70833333333576,
      "v": 70
    },
    {
      "midi": 67,
      "hit": false,
      "t": 34390.62499999999,
      "d": 130.20833333332848,
      "v": 55
    },
    {
      "midi": 69,
      "hit": false,
      "t": 34401.04166666666,
      "d": 109.375,
      "v": 46
    },
    {
      "midi": 76,
      "hit": false,
      "t": 34593.749999999985,
      "d": 197.91666666667152,
      "v": 78
    },
    {
      "midi": 53,
      "hit": false,
      "t": 34614.58333333332,
      "d": 213.54166666667152,
      "v": 81
    },
    {
      "midi": 41,
      "hit": false,
      "t": 34619.79166666666,
      "d": 244.79166666667152,
      "v": 55
    },
    {
      "midi": 64,
      "hit": false,
      "t": 34796.87499999999,
      "d": 140.625,
      "v": 37
    },
    {
      "midi": 69,
      "hit": false,
      "t": 34802.08333333333,
      "d": 93.75,
      "v": 30
    },
    {
      "midi": 74,
      "hit": false,
      "t": 34979.16666666666,
      "d": 187.5,
      "v": 70
    },
    {
      "midi": 54,
      "hit": false,
      "t": 34989.58333333333,
      "d": 281.2499999999927,
      "v": 63
    },
    {
      "midi": 42,
      "hit": false,
      "t": 34999.99999999999,
      "d": 229.16666666666424,
      "v": 39
    },
    {
      "midi": 69,
      "hit": false,
      "t": 35145.83333333333,
      "d": 78.12499999999272,
      "v": 35
    },
    {
      "midi": 62,
      "hit": false,
      "t": 35166.66666666666,
      "d": 140.625,
      "v": 47
    },
    {
      "midi": 71,
      "hit": false,
      "t": 35338.54166666666,
      "d": 203.125,
      "v": 72
    },
    {
      "midi": 55,
      "hit": false,
      "t": 35354.16666666666,
      "d": 223.95833333332848,
      "v": 54
    },
    {
      "midi": 43,
      "hit": false,
      "t": 35364.58333333332,
      "d": 187.5,
      "v": 45
    },
    {
      "midi": 67,
      "hit": false,
      "t": 35526.04166666666,
      "d": 67.70833333332848,
      "v": 41
    },
    {
      "midi": 62,
      "hit": false,
      "t": 35531.24999999999,
      "d": 78.12499999999272,
      "v": 52
    },
    {
      "midi": 66,
      "hit": false,
      "t": 35703.124999999985,
      "d": 421.87500000001455,
      "v": 70
    },
    {
      "midi": 57,
      "hit": false,
      "t": 35718.749999999985,
      "d": 229.16666666667152,
      "v": 51
    },
    {
      "midi": 45,
      "hit": false,
      "t": 35723.95833333332,
      "d": 291.6666666666715,
      "v": 51
    },
    {
      "midi": 60,
      "hit": false,
      "t": 35890.624999999985,
      "d": 125.00000000000728,
      "v": 52
    },
    {
      "midi": 62,
      "hit": false,
      "t": 35895.83333333332,
      "d": 125.00000000000728,
      "v": 44
    },
    {
      "midi": 69,
      "hit": false,
      "t": 36114.58333333333,
      "d": 223.95833333334303,
      "v": 60
    },
    {
      "midi": 58,
      "hit": false,
      "t": 36119.791666666664,
      "d": 380.20833333333576,
      "v": 35
    },
    {
      "midi": 46,
      "hit": false,
      "t": 36145.833333333336,
      "d": 354.16666666666424,
      "v": 28
    },
    {
      "midi": 62,
      "hit": false,
      "t": 36364.583333333336,
      "d": 88.54166666666424,
      "v": 42
    },
    {
      "midi": 57,
      "hit": false,
      "t": 36380.208333333336,
      "d": 151.04166666666424,
      "v": 24
    },
    {
      "midi": 67,
      "hit": false,
      "t": 36593.75,
      "d": 208.33333333333576,
      "v": 56
    },
    {
      "midi": 59,
      "hit": false,
      "t": 36614.583333333336,
      "d": 109.375,
      "v": 28
    },
    {
      "midi": 47,
      "hit": false,
      "t": 36614.583333333336,
      "d": 177.08333333333576,
      "v": 26
    },
    {
      "midi": 55,
      "hit": false,
      "t": 36859.375,
      "d": 114.58333333333576,
      "v": 21
    },
    {
      "midi": 62,
      "hit": false,
      "t": 36864.583333333336,
      "d": 114.58333333333576,
      "v": 11
    },
    {
      "midi": 66,
      "hit": false,
      "t": 37083.333333333336,
      "d": 322.91666666666424,
      "v": 41
    },
    {
      "midi": 45,
      "hit": false,
      "t": 37125,
      "d": 2848.958333333321,
      "v": 39
    },
    {
      "midi": 57,
      "hit": false,
      "t": 37322.91666666667,
      "d": 229.16666666666424,
      "v": 25
    },
    {
      "midi": 62,
      "hit": false,
      "t": 37322.91666666667,
      "d": 276.04166666666424,
      "v": 37
    },
    {
      "midi": 64,
      "hit": false,
      "t": 37671.875,
      "d": 1046.8749999999927,
      "v": 36
    },
    {
      "midi": 33,
      "hit": false,
      "t": 37682.291666666664,
      "d": 609.375,
      "v": 23
    },
    {
      "midi": 61,
      "hit": false,
      "t": 38036.458333333336,
      "d": 395.8333333333285,
      "v": 30
    },
    {
      "midi": 55,
      "hit": false,
      "t": 38052.083333333336,
      "d": 473.9583333333285,
      "v": 32
    },
    {
      "midi": 62,
      "hit": false,
      "t": 38572.916666666664,
      "d": 4572.916666666657,
      "v": 29
    },
    {
      "midi": 38,
      "hit": false,
      "t": 38583.33333333333,
      "d": 4572.916666666657,
      "v": 24
    },
    {
      "midi": 57,
      "hit": false,
      "t": 39401.04166666666,
      "d": 3677.0833333333285,
      "v": 10
    },
    {
      "midi": 54,
      "hit": false,
      "t": 39401.04166666666,
      "d": 3697.9166666666642,
      "v": 22
    }
  ]
}