{
  "jsonPath": "Classical/Classical/Martha Argerich/sonatine-mouvement-de-menuet.json",
  "path": "Classical\\Classical\\Martha Argerich\\Sonatine Mouvement de menuet.mid",
  "name": "Sonatine Mouvement de menuet",
  "difficulty": "Advanced",
  "bpm": 100,
  "notes": [
    {
      "midi": 73,
      "hit": false,
      "t": 2670,
      "d": 160,
      "v": 68
    },
    {
      "midi": 65,
      "hit": false,
      "t": 2680,
      "d": 105,
      "v": 57
    },
    {
      "midi": 61,
      "hit": false,
      "t": 2705,
      "d": 140,
      "v": 63
    },
    {
      "midi": 68,
      "hit": false,
      "t": 2705,
      "d": 145,
      "v": 34
    },
    {
      "midi": 80,
      "hit": false,
      "t": 3210,
      "d": 820,
      "v": 73
    },
    {
      "midi": 70,
      "hit": false,
      "t": 3225,
      "d": 140,
      "v": 47
    },
    {
      "midi": 73,
      "hit": false,
      "t": 3230,
      "d": 145,
      "v": 69
    },
    {
      "midi": 68,
      "hit": false,
      "t": 3240,
      "d": 150,
      "v": 52
    },
    {
      "midi": 63,
      "hit": false,
      "t": 3245,
      "d": 105,
      "v": 68
    },
    {
      "midi": 73,
      "hit": false,
      "t": 3770,
      "d": 160,
      "v": 70
    },
    {
      "midi": 72,
      "hit": false,
      "t": 3775,
      "d": 135,
      "v": 55
    },
    {
      "midi": 68,
      "hit": false,
      "t": 3780,
      "d": 145,
      "v": 54
    },
    {
      "midi": 65,
      "hit": false,
      "t": 3785,
      "d": 160,
      "v": 63
    },
    {
      "midi": 70,
      "hit": false,
      "t": 4325,
      "d": 300,
      "v": 53
    },
    {
      "midi": 68,
      "hit": false,
      "t": 4325,
      "d": 330,
      "v": 71
    },
    {
      "midi": 73,
      "hit": false,
      "t": 4330,
      "d": 320,
      "v": 78
    },
    {
      "midi": 66,
      "hit": false,
      "t": 4345,
      "d": 285,
      "v": 74
    },
    {
      "midi": 78,
      "hit": false,
      "t": 4585,
      "d": 105,
      "v": 78
    },
    {
      "midi": 80,
      "hit": false,
      "t": 4890,
      "d": 355,
      "v": 75
    },
    {
      "midi": 73,
      "hit": false,
      "t": 4900,
      "d": 265,
      "v": 76
    },
    {
      "midi": 65,
      "hit": false,
      "t": 4905,
      "d": 255,
      "v": 51
    },
    {
      "midi": 68,
      "hit": false,
      "t": 4905,
      "d": 270,
      "v": 67
    },
    {
      "midi": 72,
      "hit": false,
      "t": 4915,
      "d": 200,
      "v": 63
    },
    {
      "midi": 68,
      "hit": false,
      "t": 5450,
      "d": 40,
      "v": 66
    },
    {
      "midi": 73,
      "hit": false,
      "t": 5450,
      "d": 50,
      "v": 73
    },
    {
      "midi": 70,
      "hit": false,
      "t": 5450,
      "d": 90,
      "v": 71
    },
    {
      "midi": 63,
      "hit": false,
      "t": 5475,
      "d": 75,
      "v": 69
    },
    {
      "midi": 85,
      "hit": false,
      "t": 5725,
      "d": 605,
      "v": 71
    },
    {
      "midi": 68,
      "hit": false,
      "t": 6015,
      "d": 235,
      "v": 48
    },
    {
      "midi": 65,
      "hit": false,
      "t": 6020,
      "d": 225,
      "v": 54
    },
    {
      "midi": 73,
      "hit": false,
      "t": 6020,
      "d": 285,
      "v": 54
    },
    {
      "midi": 61,
      "hit": false,
      "t": 6025,
      "d": 230,
      "v": 69
    },
    {
      "midi": 77,
      "hit": false,
      "t": 6030,
      "d": 215,
      "v": 71
    },
    {
      "midi": 68,
      "hit": false,
      "t": 6565,
      "d": 105,
      "v": 52
    },
    {
      "midi": 72,
      "hit": false,
      "t": 6570,
      "d": 90,
      "v": 70
    },
    {
      "midi": 84,
      "hit": false,
      "t": 6570,
      "d": 120,
      "v": 74
    },
    {
      "midi": 65,
      "hit": false,
      "t": 6575,
      "d": 80,
      "v": 54
    },
    {
      "midi": 60,
      "hit": false,
      "t": 6580,
      "d": 125,
      "v": 70
    },
    {
      "midi": 77,
      "hit": false,
      "t": 6610,
      "d": 290,
      "v": 56
    },
    {
      "midi": 85,
      "hit": false,
      "t": 6815,
      "d": 110,
      "v": 79
    },
    {
      "midi": 68,
      "hit": false,
      "t": 7105,
      "d": 35,
      "v": 46
    },
    {
      "midi": 70,
      "hit": false,
      "t": 7110,
      "d": 45,
      "v": 64
    },
    {
      "midi": 58,
      "hit": false,
      "t": 7120,
      "d": 45,
      "v": 70
    },
    {
      "midi": 82,
      "hit": false,
      "t": 7120,
      "d": 160,
      "v": 78
    },
    {
      "midi": 77,
      "hit": false,
      "t": 7125,
      "d": 100,
      "v": 28
    },
    {
      "midi": 84,
      "hit": false,
      "t": 7345,
      "d": 65,
      "v": 81
    },
    {
      "midi": 77,
      "hit": false,
      "t": 7650,
      "d": 175,
      "v": 75
    },
    {
      "midi": 65,
      "hit": false,
      "t": 7660,
      "d": 160,
      "v": 65
    },
    {
      "midi": 72,
      "hit": false,
      "t": 7665,
      "d": 200,
      "v": 72
    },
    {
      "midi": 60,
      "hit": false,
      "t": 7675,
      "d": 140,
      "v": 53
    },
    {
      "midi": 80,
      "hit": false,
      "t": 8185,
      "d": 575,
      "v": 75
    },
    {
      "midi": 63,
      "hit": false,
      "t": 8200,
      "d": 120,
      "v": 58
    },
    {
      "midi": 60,
      "hit": false,
      "t": 8205,
      "d": 125,
      "v": 64
    },
    {
      "midi": 68,
      "hit": false,
      "t": 8210,
      "d": 530,
      "v": 67
    },
    {
      "midi": 75,
      "hit": false,
      "t": 8220,
      "d": 550,
      "v": 77
    },
    {
      "midi": 56,
      "hit": false,
      "t": 8230,
      "d": 130,
      "v": 71
    },
    {
      "midi": 41,
      "hit": false,
      "t": 8725,
      "d": 115,
      "v": 79
    },
    {
      "midi": 82,
      "hit": false,
      "t": 9255,
      "d": 200,
      "v": 75
    },
    {
      "midi": 34,
      "hit": false,
      "t": 9265,
      "d": 315,
      "v": 74
    },
    {
      "midi": 73,
      "hit": false,
      "t": 9275,
      "d": 175,
      "v": 75
    },
    {
      "midi": 70,
      "hit": false,
      "t": 9285,
      "d": 190,
      "v": 58
    },
    {
      "midi": 65,
      "hit": false,
      "t": 9825,
      "d": 140,
      "v": 75
    },
    {
      "midi": 77,
      "hit": false,
      "t": 9830,
      "d": 160,
      "v": 79
    },
    {
      "midi": 80,
      "hit": false,
      "t": 10365,
      "d": 690,
      "v": 74
    },
    {
      "midi": 68,
      "hit": false,
      "t": 10385,
      "d": 675,
      "v": 65
    },
    {
      "midi": 44,
      "hit": false,
      "t": 10890,
      "d": 550,
      "v": 66
    },
    {
      "midi": 37,
      "hit": false,
      "t": 10905,
      "d": 520,
      "v": 67
    },
    {
      "midi": 65,
      "hit": false,
      "t": 11445,
      "d": 255,
      "v": 72
    },
    {
      "midi": 77,
      "hit": false,
      "t": 11450,
      "d": 130,
      "v": 78
    },
    {
      "midi": 72,
      "hit": false,
      "t": 12010,
      "d": 160,
      "v": 69
    },
    {
      "midi": 68,
      "hit": false,
      "t": 12010,
      "d": 175,
      "v": 69
    },
    {
      "midi": 48,
      "hit": false,
      "t": 12015,
      "d": 135,
      "v": 66
    },
    {
      "midi": 60,
      "hit": false,
      "t": 12015,
      "d": 185,
      "v": 63
    },
    {
      "midi": 67,
      "hit": false,
      "t": 12020,
      "d": 145,
      "v": 73
    },
    {
      "midi": 41,
      "hit": false,
      "t": 12025,
      "d": 95,
      "v": 59
    },
    {
      "midi": 46,
      "hit": false,
      "t": 12605,
      "d": 560,
      "v": 70
    },
    {
      "midi": 61,
      "hit": false,
      "t": 12615,
      "d": 155,
      "v": 70
    },
    {
      "midi": 65,
      "hit": false,
      "t": 12620,
      "d": 750,
      "v": 71
    },
    {
      "midi": 56,
      "hit": false,
      "t": 12745,
      "d": 455,
      "v": 13
    },
    {
      "midi": 70,
      "hit": false,
      "t": 13150,
      "d": 255,
      "v": 82
    },
    {
      "midi": 72,
      "hit": false,
      "t": 13390,
      "d": 80,
      "v": 81
    },
    {
      "midi": 61,
      "hit": false,
      "t": 13675,
      "d": 90,
      "v": 68
    },
    {
      "midi": 73,
      "hit": false,
      "t": 13690,
      "d": 210,
      "v": 83
    },
    {
      "midi": 51,
      "hit": false,
      "t": 13695,
      "d": 125,
      "v": 78
    },
    {
      "midi": 65,
      "hit": false,
      "t": 13710,
      "d": 150,
      "v": 55
    },
    {
      "midi": 67,
      "hit": false,
      "t": 13715,
      "d": 110,
      "v": 71
    },
    {
      "midi": 48,
      "hit": false,
      "t": 14240,
      "d": 1005,
      "v": 66
    },
    {
      "midi": 79,
      "hit": false,
      "t": 14245,
      "d": 185,
      "v": 79
    },
    {
      "midi": 41,
      "hit": false,
      "t": 14245,
      "d": 985,
      "v": 57
    },
    {
      "midi": 68,
      "hit": false,
      "t": 14250,
      "d": 195,
      "v": 73
    },
    {
      "midi": 77,
      "hit": false,
      "t": 14795,
      "d": 110,
      "v": 81
    },
    {
      "midi": 65,
      "hit": false,
      "t": 14805,
      "d": 190,
      "v": 70
    },
    {
      "midi": 72,
      "hit": false,
      "t": 15340,
      "d": 125,
      "v": 64
    },
    {
      "midi": 68,
      "hit": false,
      "t": 15345,
      "d": 165,
      "v": 63
    },
    {
      "midi": 60,
      "hit": false,
      "t": 15350,
      "d": 110,
      "v": 65
    },
    {
      "midi": 67,
      "hit": false,
      "t": 15360,
      "d": 125,
      "v": 66
    },
    {
      "midi": 61,
      "hit": false,
      "t": 15905,
      "d": 380,
      "v": 67
    },
    {
      "midi": 46,
      "hit": false,
      "t": 15905,
      "d": 525,
      "v": 56
    },
    {
      "midi": 56,
      "hit": false,
      "t": 15905,
      "d": 565,
      "v": 52
    },
    {
      "midi": 65,
      "hit": false,
      "t": 15910,
      "d": 625,
      "v": 64
    },
    {
      "midi": 70,
      "hit": false,
      "t": 16475,
      "d": 275,
      "v": 81
    },
    {
      "midi": 72,
      "hit": false,
      "t": 16720,
      "d": 165,
      "v": 75
    },
    {
      "midi": 61,
      "hit": false,
      "t": 17010,
      "d": 110,
      "v": 62
    },
    {
      "midi": 67,
      "hit": false,
      "t": 17020,
      "d": 155,
      "v": 73
    },
    {
      "midi": 65,
      "hit": false,
      "t": 17025,
      "d": 145,
      "v": 64
    },
    {
      "midi": 51,
      "hit": false,
      "t": 17040,
      "d": 105,
      "v": 69
    },
    {
      "midi": 55,
      "hit": false,
      "t": 17585,
      "d": 535,
      "v": 61
    },
    {
      "midi": 60,
      "hit": false,
      "t": 17590,
      "d": 620,
      "v": 70
    },
    {
      "midi": 63,
      "hit": false,
      "t": 17600,
      "d": 630,
      "v": 70
    },
    {
      "midi": 44,
      "hit": false,
      "t": 17605,
      "d": 420,
      "v": 59
    },
    {
      "midi": 68,
      "hit": false,
      "t": 18145,
      "d": 275,
      "v": 78
    },
    {
      "midi": 70,
      "hit": false,
      "t": 18365,
      "d": 165,
      "v": 77
    },
    {
      "midi": 68,
      "hit": false,
      "t": 18640,
      "d": 205,
      "v": 86
    },
    {
      "midi": 60,
      "hit": false,
      "t": 18645,
      "d": 125,
      "v": 61
    },
    {
      "midi": 61,
      "hit": false,
      "t": 18670,
      "d": 170,
      "v": 69
    },
    {
      "midi": 49,
      "hit": false,
      "t": 18680,
      "d": 155,
      "v": 63
    },
    {
      "midi": 67,
      "hit": false,
      "t": 18890,
      "d": 35,
      "v": 80
    },
    {
      "midi": 43,
      "hit": false,
      "t": 19175,
      "d": 110,
      "v": 70
    },
    {
      "midi": 65,
      "hit": false,
      "t": 19180,
      "d": 275,
      "v": 77
    },
    {
      "midi": 58,
      "hit": false,
      "t": 19185,
      "d": 160,
      "v": 74
    },
    {
      "midi": 61,
      "hit": false,
      "t": 19235,
      "d": 200,
      "v": 38
    },
    {
      "midi": 67,
      "hit": false,
      "t": 19425,
      "d": 120,
      "v": 77
    },
    {
      "midi": 63,
      "hit": false,
      "t": 19720,
      "d": 750,
      "v": 71
    },
    {
      "midi": 48,
      "hit": false,
      "t": 19725,
      "d": 1105,
      "v": 57
    },
    {
      "midi": 55,
      "hit": false,
      "t": 19740,
      "d": 925,
      "v": 50
    },
    {
      "midi": 60,
      "hit": false,
      "t": 19745,
      "d": 600,
      "v": 66
    },
    {
      "midi": 58,
      "hit": false,
      "t": 20270,
      "d": 185,
      "v": 72
    },
    {
      "midi": 56,
      "hit": false,
      "t": 20830,
      "d": 1180,
      "v": 64
    },
    {
      "midi": 65,
      "hit": false,
      "t": 20845,
      "d": 1315,
      "v": 57
    },
    {
      "midi": 60,
      "hit": false,
      "t": 20865,
      "d": 1190,
      "v": 60
    },
    {
      "midi": 36,
      "hit": false,
      "t": 21390,
      "d": 90,
      "v": 71
    },
    {
      "midi": 29,
      "hit": false,
      "t": 22045,
      "d": 135,
      "v": 62
    },
    {
      "midi": 65,
      "hit": false,
      "t": 22805,
      "d": 130,
      "v": 49
    },
    {
      "midi": 73,
      "hit": false,
      "t": 22805,
      "d": 215,
      "v": 69
    },
    {
      "midi": 61,
      "hit": false,
      "t": 22825,
      "d": 200,
      "v": 64
    },
    {
      "midi": 68,
      "hit": false,
      "t": 22835,
      "d": 180,
      "v": 35
    },
    {
      "midi": 80,
      "hit": false,
      "t": 23390,
      "d": 870,
      "v": 73
    },
    {
      "midi": 70,
      "hit": false,
      "t": 23400,
      "d": 135,
      "v": 49
    },
    {
      "midi": 63,
      "hit": false,
      "t": 23405,
      "d": 140,
      "v": 65
    },
    {
      "midi": 68,
      "hit": false,
      "t": 23405,
      "d": 190,
      "v": 62
    },
    {
      "midi": 73,
      "hit": false,
      "t": 23410,
      "d": 140,
      "v": 68
    },
    {
      "midi": 68,
      "hit": false,
      "t": 23955,
      "d": 190,
      "v": 64
    },
    {
      "midi": 72,
      "hit": false,
      "t": 23965,
      "d": 145,
      "v": 60
    },
    {
      "midi": 73,
      "hit": false,
      "t": 23965,
      "d": 215,
      "v": 72
    },
    {
      "midi": 65,
      "hit": false,
      "t": 23975,
      "d": 170,
      "v": 67
    },
    {
      "midi": 73,
      "hit": false,
      "t": 24515,
      "d": 310,
      "v": 80
    },
    {
      "midi": 70,
      "hit": false,
      "t": 24525,
      "d": 220,
      "v": 60
    },
    {
      "midi": 66,
      "hit": false,
      "t": 24525,
      "d": 240,
      "v": 74
    },
    {
      "midi": 68,
      "hit": false,
      "t": 24530,
      "d": 180,
      "v": 69
    },
    {
      "midi": 78,
      "hit": false,
      "t": 24775,
      "d": 95,
      "v": 81
    },
    {
      "midi": 72,
      "hit": false,
      "t": 25085,
      "d": 235,
      "v": 62
    },
    {
      "midi": 65,
      "hit": false,
      "t": 25085,
      "d": 260,
      "v": 57
    },
    {
      "midi": 80,
      "hit": false,
      "t": 25085,
      "d": 390,
      "v": 71
    },
    {
      "midi": 73,
      "hit": false,
      "t": 25095,
      "d": 250,
      "v": 71
    },
    {
      "midi": 68,
      "hit": false,
      "t": 25095,
      "d": 300,
      "v": 61
    },
    {
      "midi": 73,
      "hit": false,
      "t": 25635,
      "d": 85,
      "v": 74
    },
    {
      "midi": 68,
      "hit": false,
      "t": 25640,
      "d": 50,
      "v": 52
    },
    {
      "midi": 70,
      "hit": false,
      "t": 25640,
      "d": 95,
      "v": 66
    },
    {
      "midi": 63,
      "hit": false,
      "t": 25655,
      "d": 90,
      "v": 68
    },
    {
      "midi": 85,
      "hit": false,
      "t": 25910,
      "d": 590,
      "v": 78
    },
    {
      "midi": 65,
      "hit": false,
      "t": 26195,
      "d": 180,
      "v": 60
    },
    {
      "midi": 68,
      "hit": false,
      "t": 26200,
      "d": 180,
      "v": 51
    },
    {
      "midi": 77,
      "hit": false,
      "t": 26205,
      "d": 220,
      "v": 74
    },
    {
      "midi": 73,
      "hit": false,
      "t": 26210,
      "d": 205,
      "v": 58
    },
    {
      "midi": 61,
      "hit": false,
      "t": 26225,
      "d": 160,
      "v": 69
    },
    {
      "midi": 68,
      "hit": false,
      "t": 26735,
      "d": 95,
      "v": 52
    },
    {
      "midi": 60,
      "hit": false,
      "t": 26745,
      "d": 100,
      "v": 67
    },
    {
      "midi": 84,
      "hit": false,
      "t": 26745,
      "d": 135,
      "v": 80
    },
    {
      "midi": 72,
      "hit": false,
      "t": 26750,
      "d": 60,
      "v": 61
    },
    {
      "midi": 65,
      "hit": false,
      "t": 26760,
      "d": 60,
      "v": 57
    },
    {
      "midi": 85,
      "hit": false,
      "t": 27005,
      "d": 120,
      "v": 81
    },
    {
      "midi": 77,
      "hit": false,
      "t": 27035,
      "d": 85,
      "v": 22
    },
    {
      "midi": 68,
      "hit": false,
      "t": 27260,
      "d": 45,
      "v": 64
    },
    {
      "midi": 70,
      "hit": false,
      "t": 27265,
      "d": 80,
      "v": 86
    },
    {
      "midi": 77,
      "hit": false,
      "t": 27265,
      "d": 185,
      "v": 49
    },
    {
      "midi": 65,
      "hit": false,
      "t": 27275,
      "d": 45,
      "v": 57
    },
    {
      "midi": 82,
      "hit": false,
      "t": 27280,
      "d": 180,
      "v": 80
    },
    {
      "midi": 58,
      "hit": false,
      "t": 27285,
      "d": 60,
      "v": 74
    },
    {
      "midi": 84,
      "hit": false,
      "t": 27515,
      "d": 45,
      "v": 87
    },
    {
      "midi": 77,
      "hit": false,
      "t": 27830,
      "d": 185,
      "v": 76
    },
    {
      "midi": 72,
      "hit": false,
      "t": 27835,
      "d": 260,
      "v": 79
    },
    {
      "midi": 65,
      "hit": false,
      "t": 27840,
      "d": 180,
      "v": 76
    },
    {
      "midi": 63,
      "hit": false,
      "t": 27855,
      "d": 175,
      "v": 53
    },
    {
      "midi": 53,
      "hit": false,
      "t": 27860,
      "d": 155,
      "v": 69
    },
    {
      "midi": 60,
      "hit": false,
      "t": 27865,
      "d": 180,
      "v": 70
    },
    {
      "midi": 68,
      "hit": false,
      "t": 28400,
      "d": 570,
      "v": 71
    },
    {
      "midi": 63,
      "hit": false,
      "t": 28405,
      "d": 110,
      "v": 65
    },
    {
      "midi": 80,
      "hit": false,
      "t": 28405,
      "d": 585,
      "v": 67
    },
    {
      "midi": 60,
      "hit": false,
      "t": 28415,
      "d": 110,
      "v": 63
    },
    {
      "midi": 56,
      "hit": false,
      "t": 28415,
      "d": 150,
      "v": 71
    },
    {
      "midi": 75,
      "hit": false,
      "t": 28415,
      "d": 545,
      "v": 79
    },
    {
      "midi": 41,
      "hit": false,
      "t": 28965,
      "d": 120,
      "v": 78
    },
    {
      "midi": 82,
      "hit": false,
      "t": 29505,
      "d": 220,
      "v": 73
    },
    {
      "midi": 34,
      "hit": false,
      "t": 29530,
      "d": 475,
      "v": 65
    },
    {
      "midi": 73,
      "hit": false,
      "t": 29535,
      "d": 180,
      "v": 74
    },
    {
      "midi": 70,
      "hit": false,
      "t": 29535,
      "d": 200,
      "v": 47
    },
    {
      "midi": 77,
      "hit": false,
      "t": 30095,
      "d": 150,
      "v": 77
    },
    {
      "midi": 65,
      "hit": false,
      "t": 30105,
      "d": 115,
      "v": 71
    },
    {
      "midi": 80,
      "hit": false,
      "t": 30635,
      "d": 770,
      "v": 77
    },
    {
      "midi": 68,
      "hit": false,
      "t": 30650,
      "d": 785,
      "v": 67
    },
    {
      "midi": 37,
      "hit": false,
      "t": 31190,
      "d": 525,
      "v": 67
    },
    {
      "midi": 44,
      "hit": false,
      "t": 31195,
      "d": 535,
      "v": 66
    },
    {
      "midi": 77,
      "hit": false,
      "t": 31770,
      "d": 160,
      "v": 77
    },
    {
      "midi": 65,
      "hit": false,
      "t": 31785,
      "d": 280,
      "v": 61
    },
    {
      "midi": 48,
      "hit": false,
      "t": 32320,
      "d": 130,
      "v": 58
    },
    {
      "midi": 68,
      "hit": false,
      "t": 32325,
      "d": 165,
      "v": 67
    },
    {
      "midi": 72,
      "hit": false,
      "t": 32325,
      "d": 175,
      "v": 68
    },
    {
      "midi": 41,
      "hit": false,
      "t": 32335,
      "d": 100,
      "v": 58
    },
    {
      "midi": 67,
      "hit": false,
      "t": 32340,
      "d": 145,
      "v": 68
    },
    {
      "midi": 60,
      "hit": false,
      "t": 32350,
      "d": 155,
      "v": 55
    },
    {
      "midi": 56,
      "hit": false,
      "t": 32905,
      "d": 575,
      "v": 59
    },
    {
      "midi": 61,
      "hit": false,
      "t": 32915,
      "d": 195,
      "v": 71
    },
    {
      "midi": 46,
      "hit": false,
      "t": 32915,
      "d": 495,
      "v": 61
    },
    {
      "midi": 65,
      "hit": false,
      "t": 32920,
      "d": 770,
      "v": 69
    },
    {
      "midi": 70,
      "hit": false,
      "t": 33460,
      "d": 245,
      "v": 78
    },
    {
      "midi": 72,
      "hit": false,
      "t": 33690,
      "d": 80,
      "v": 81
    },
    {
      "midi": 73,
      "hit": false,
      "t": 33990,
      "d": 200,
      "v": 83
    },
    {
      "midi": 61,
      "hit": false,
      "t": 33995,
      "d": 90,
      "v": 59
    },
    {
      "midi": 51,
      "hit": false,
      "t": 34005,
      "d": 100,
      "v": 71
    },
    {
      "midi": 65,
      "hit": false,
      "t": 34010,
      "d": 145,
      "v": 64
    },
    {
      "midi": 67,
      "hit": false,
      "t": 34015,
      "d": 125,
      "v": 70
    },
    {
      "midi": 68,
      "hit": false,
      "t": 34550,
      "d": 220,
      "v": 73
    },
    {
      "midi": 79,
      "hit": false,
      "t": 34555,
      "d": 190,
      "v": 72
    },
    {
      "midi": 48,
      "hit": false,
      "t": 34560,
      "d": 975,
      "v": 52
    },
    {
      "midi": 41,
      "hit": false,
      "t": 34570,
      "d": 1010,
      "v": 56
    },
    {
      "midi": 77,
      "hit": false,
      "t": 35130,
      "d": 145,
      "v": 79
    },
    {
      "midi": 65,
      "hit": false,
      "t": 35135,
      "d": 250,
      "v": 71
    },
    {
      "midi": 72,
      "hit": false,
      "t": 35705,
      "d": 175,
      "v": 61
    },
    {
      "midi": 60,
      "hit": false,
      "t": 35705,
      "d": 180,
      "v": 60
    },
    {
      "midi": 68,
      "hit": false,
      "t": 35710,
      "d": 185,
      "v": 65
    },
    {
      "midi": 67,
      "hit": false,
      "t": 35715,
      "d": 160,
      "v": 66
    },
    {
      "midi": 56,
      "hit": false,
      "t": 36285,
      "d": 580,
      "v": 53
    },
    {
      "midi": 61,
      "hit": false,
      "t": 36295,
      "d": 340,
      "v": 67
    },
    {
      "midi": 65,
      "hit": false,
      "t": 36295,
      "d": 600,
      "v": 65
    },
    {
      "midi": 46,
      "hit": false,
      "t": 36300,
      "d": 490,
      "v": 47
    },
    {
      "midi": 70,
      "hit": false,
      "t": 36855,
      "d": 285,
      "v": 80
    },
    {
      "midi": 72,
      "hit": false,
      "t": 37110,
      "d": 160,
      "v": 76
    },
    {
      "midi": 65,
      "hit": false,
      "t": 37425,
      "d": 230,
      "v": 59
    },
    {
      "midi": 61,
      "hit": false,
      "t": 37430,
      "d": 120,
      "v": 51
    },
    {
      "midi": 67,
      "hit": false,
      "t": 37435,
      "d": 215,
      "v": 71
    },
    {
      "midi": 51,
      "hit": false,
      "t": 37445,
      "d": 120,
      "v": 64
    },
    {
      "midi": 44,
      "hit": false,
      "t": 38005,
      "d": 440,
      "v": 44
    },
    {
      "midi": 63,
      "hit": false,
      "t": 38020,
      "d": 650,
      "v": 71
    },
    {
      "midi": 55,
      "hit": false,
      "t": 38025,
      "d": 450,
      "v": 55
    },
    {
      "midi": 60,
      "hit": false,
      "t": 38025,
      "d": 585,
      "v": 66
    },
    {
      "midi": 68,
      "hit": false,
      "t": 38605,
      "d": 285,
      "v": 81
    },
    {
      "midi": 70,
      "hit": false,
      "t": 38850,
      "d": 170,
      "v": 81
    },
    {
      "midi": 68,
      "hit": false,
      "t": 39125,
      "d": 200,
      "v": 87
    },
    {
      "midi": 60,
      "hit": false,
      "t": 39130,
      "d": 85,
      "v": 65
    },
    {
      "midi": 61,
      "hit": false,
      "t": 39145,
      "d": 160,
      "v": 76
    },
    {
      "midi": 49,
      "hit": false,
      "t": 39150,
      "d": 100,
      "v": 58
    },
    {
      "midi": 67,
      "hit": false,
      "t": 39365,
      "d": 40,
      "v": 83
    },
    {
      "midi": 65,
      "hit": false,
      "t": 39650,
      "d": 245,
      "v": 78
    },
    {
      "midi": 43,
      "hit": false,
      "t": 39655,
      "d": 70,
      "v": 69
    },
    {
      "midi": 61,
      "hit": false,
      "t": 39660,
      "d": 235,
      "v": 67
    },
    {
      "midi": 58,
      "hit": false,
      "t": 39665,
      "d": 85,
      "v": 70
    },
    {
      "midi": 67,
      "hit": false,
      "t": 39890,
      "d": 115,
      "v": 81
    },
    {
      "midi": 48,
      "hit": false,
      "t": 40210,
      "d": 1170,
      "v": 62
    },
    {
      "midi": 63,
      "hit": false,
      "t": 40215,
      "d": 730,
      "v": 78
    },
    {
      "midi": 55,
      "hit": false,
      "t": 40225,
      "d": 990,
      "v": 58
    },
    {
      "midi": 60,
      "hit": false,
      "t": 40230,
      "d": 640,
      "v": 69
    },
    {
      "midi": 58,
      "hit": false,
      "t": 40820,
      "d": 150,
      "v": 76
    },
    {
      "midi": 56,
      "hit": false,
      "t": 41365,
      "d": 1055,
      "v": 68
    },
    {
      "midi": 65,
      "hit": false,
      "t": 41380,
      "d": 1120,
      "v": 59
    },
    {
      "midi": 60,
      "hit": false,
      "t": 41395,
      "d": 1055,
      "v": 67
    },
    {
      "midi": 36,
      "hit": false,
      "t": 41975,
      "d": 50,
      "v": 56
    },
    {
      "midi": 29,
      "hit": false,
      "t": 42590,
      "d": 50,
      "v": 71
    },
    {
      "midi": 91,
      "hit": false,
      "t": 43150,
      "d": 125,
      "v": 71
    },
    {
      "midi": 75,
      "hit": false,
      "t": 43170,
      "d": 525,
      "v": 46
    },
    {
      "midi": 89,
      "hit": false,
      "t": 43185,
      "d": 110,
      "v": 75
    },
    {
      "midi": 68,
      "hit": false,
      "t": 43190,
      "d": 570,
      "v": 66
    },
    {
      "midi": 65,
      "hit": false,
      "t": 43195,
      "d": 565,
      "v": 57
    },
    {
      "midi": 84,
      "hit": false,
      "t": 43735,
      "d": 620,
      "v": 76
    },
    {
      "midi": 53,
      "hit": false,
      "t": 44290,
      "d": 60,
      "v": 67
    },
    {
      "midi": 91,
      "hit": false,
      "t": 44735,
      "d": 115,
      "v": 65
    },
    {
      "midi": 89,
      "hit": false,
      "t": 44765,
      "d": 120,
      "v": 77
    },
    {
      "midi": 65,
      "hit": false,
      "t": 44800,
      "d": 750,
      "v": 53
    },
    {
      "midi": 80,
      "hit": false,
      "t": 44810,
      "d": 220,
      "v": 69
    },
    {
      "midi": 70,
      "hit": false,
      "t": 44815,
      "d": 790,
      "v": 65
    },
    {
      "midi": 74,
      "hit": false,
      "t": 44825,
      "d": 820,
      "v": 55
    },
    {
      "midi": 82,
      "hit": false,
      "t": 45060,
      "d": 135,
      "v": 80
    },
    {
      "midi": 84,
      "hit": false,
      "t": 45355,
      "d": 570,
      "v": 74
    },
    {
      "midi": 65,
      "hit": false,
      "t": 45885,
      "d": 125,
      "v": 78
    },
    {
      "midi": 78,
      "hit": false,
      "t": 46345,
      "d": 105,
      "v": 64
    },
    {
      "midi": 82,
      "hit": false,
      "t": 46405,
      "d": 165,
      "v": 74
    },
    {
      "midi": 63,
      "hit": false,
      "t": 46420,
      "d": 590,
      "v": 54
    },
    {
      "midi": 72,
      "hit": false,
      "t": 46430,
      "d": 455,
      "v": 57
    },
    {
      "midi": 89,
      "hit": false,
      "t": 46450,
      "d": 165,
      "v": 70
    },
    {
      "midi": 68,
      "hit": false,
      "t": 46455,
      "d": 510,
      "v": 65
    },
    {
      "midi": 89,
      "hit": false,
      "t": 47015,
      "d": 80,
      "v": 77
    },
    {
      "midi": 89,
      "hit": false,
      "t": 47245,
      "d": 100,
      "v": 79
    },
    {
      "midi": 53,
      "hit": false,
      "t": 47480,
      "d": 35,
      "v": 72
    },
    {
      "midi": 87,
      "hit": false,
      "t": 47505,
      "d": 200,
      "v": 78
    },
    {
      "midi": 89,
      "hit": false,
      "t": 47710,
      "d": 30,
      "v": 71
    },
    {
      "midi": 76,
      "hit": false,
      "t": 47990,
      "d": 190,
      "v": 63
    },
    {
      "midi": 70,
      "hit": false,
      "t": 48005,
      "d": 195,
      "v": 58
    },
    {
      "midi": 66,
      "hit": false,
      "t": 48010,
      "d": 180,
      "v": 70
    },
    {
      "midi": 61,
      "hit": false,
      "t": 48010,
      "d": 205,
      "v": 69
    },
    {
      "midi": 80,
      "hit": false,
      "t": 48020,
      "d": 190,
      "v": 77
    },
    {
      "midi": 85,
      "hit": false,
      "t": 48080,
      "d": 130,
      "v": 72
    },
    {
      "midi": 60,
      "hit": false,
      "t": 48470,
      "d": 240,
      "v": 67
    },
    {
      "midi": 75,
      "hit": false,
      "t": 48510,
      "d": 150,
      "v": 70
    },
    {
      "midi": 69,
      "hit": false,
      "t": 48510,
      "d": 665,
      "v": 65
    },
    {
      "midi": 65,
      "hit": false,
      "t": 48515,
      "d": 215,
      "v": 61
    },
    {
      "midi": 78,
      "hit": false,
      "t": 48550,
      "d": 155,
      "v": 73
    },
    {
      "midi": 84,
      "hit": false,
      "t": 48590,
      "d": 150,
      "v": 78
    },
    {
      "midi": 75,
      "hit": false,
      "t": 49025,
      "d": 140,
      "v": 77
    },
    {
      "midi": 63,
      "hit": false,
      "t": 49045,
      "d": 175,
      "v": 66
    },
    {
      "midi": 57,
      "hit": false,
      "t": 49050,
      "d": 180,
      "v": 70
    },
    {
      "midi": 78,
      "hit": false,
      "t": 49080,
      "d": 125,
      "v": 75
    },
    {
      "midi": 58,
      "hit": false,
      "t": 49595,
      "d": 210,
      "v": 59
    },
    {
      "midi": 72,
      "hit": false,
      "t": 49605,
      "d": 145,
      "v": 73
    },
    {
      "midi": 74,
      "hit": false,
      "t": 49615,
      "d": 145,
      "v": 68
    },
    {
      "midi": 68,
      "hit": false,
      "t": 49620,
      "d": 135,
      "v": 69
    },
    {
      "midi": 77,
      "hit": false,
      "t": 49630,
      "d": 160,
      "v": 73
    },
    {
      "midi": 62,
      "hit": false,
      "t": 49650,
      "d": 125,
      "v": 58
    },
    {
      "midi": 84,
      "hit": false,
      "t": 49655,
      "d": 235,
      "v": 74
    },
    {
      "midi": 82,
      "hit": false,
      "t": 50150,
      "d": 325,
      "v": 81
    },
    {
      "midi": 41,
      "hit": false,
      "t": 50165,
      "d": 360,
      "v": 63
    },
    {
      "midi": 84,
      "hit": false,
      "t": 50405,
      "d": 180,
      "v": 80
    },
    {
      "midi": 46,
      "hit": false,
      "t": 50660,
      "d": 50,
      "v": 78
    },
    {
      "midi": 80,
      "hit": false,
      "t": 50665,
      "d": 220,
      "v": 75
    },
    {
      "midi": 79,
      "hit": false,
      "t": 50895,
      "d": 25,
      "v": 80
    },
    {
      "midi": 71,
      "hit": false,
      "t": 51175,
      "d": 90,
      "v": 73
    },
    {
      "midi": 75,
      "hit": false,
      "t": 51220,
      "d": 200,
      "v": 84
    },
    {
      "midi": 59,
      "hit": false,
      "t": 51220,
      "d": 225,
      "v": 74
    },
    {
      "midi": 63,
      "hit": false,
      "t": 51225,
      "d": 230,
      "v": 73
    },
    {
      "midi": 82,
      "hit": false,
      "t": 51260,
      "d": 735,
      "v": 75
    },
    {
      "midi": 53,
      "hit": false,
      "t": 51790,
      "d": 260,
      "v": 67
    },
    {
      "midi": 65,
      "hit": false,
      "t": 51795,
      "d": 285,
      "v": 67
    },
    {
      "midi": 77,
      "hit": false,
      "t": 52330,
      "d": 260,
      "v": 70
    },
    {
      "midi": 80,
      "hit": false,
      "t": 52575,
      "d": 65,
      "v": 71
    },
    {
      "midi": 58,
      "hit": false,
      "t": 52705,
      "d": 280,
      "v": 71
    },
    {
      "midi": 68,
      "hit": false,
      "t": 52850,
      "d": 115,
      "v": 70
    },
    {
      "midi": 62,
      "hit": false,
      "t": 52855,
      "d": 130,
      "v": 47
    },
    {
      "midi": 72,
      "hit": false,
      "t": 52870,
      "d": 105,
      "v": 67
    },
    {
      "midi": 74,
      "hit": false,
      "t": 52870,
      "d": 110,
      "v": 63
    },
    {
      "midi": 77,
      "hit": false,
      "t": 52880,
      "d": 130,
      "v": 67
    },
    {
      "midi": 84,
      "hit": false,
      "t": 52895,
      "d": 195,
      "v": 72
    },
    {
      "midi": 41,
      "hit": false,
      "t": 53425,
      "d": 425,
      "v": 70
    },
    {
      "midi": 82,
      "hit": false,
      "t": 53435,
      "d": 325,
      "v": 78
    },
    {
      "midi": 84,
      "hit": false,
      "t": 53665,
      "d": 315,
      "v": 79
    },
    {
      "midi": 80,
      "hit": false,
      "t": 53925,
      "d": 230,
      "v": 75
    },
    {
      "midi": 46,
      "hit": false,
      "t": 53930,
      "d": 40,
      "v": 75
    },
    {
      "midi": 79,
      "hit": false,
      "t": 54165,
      "d": 30,
      "v": 77
    },
    {
      "midi": 75,
      "hit": false,
      "t": 54475,
      "d": 115,
      "v": 74
    },
    {
      "midi": 59,
      "hit": false,
      "t": 54490,
      "d": 185,
      "v": 66
    },
    {
      "midi": 63,
      "hit": false,
      "t": 54505,
      "d": 185,
      "v": 66
    },
    {
      "midi": 82,
      "hit": false,
      "t": 54525,
      "d": 595,
      "v": 74
    },
    {
      "midi": 53,
      "hit": false,
      "t": 55035,
      "d": 230,
      "v": 59
    },
    {
      "midi": 65,
      "hit": false,
      "t": 55045,
      "d": 310,
      "v": 55
    },
    {
      "midi": 77,
      "hit": false,
      "t": 55275,
      "d": 360,
      "v": 72
    },
    {
      "midi": 80,
      "hit": false,
      "t": 55530,
      "d": 265,
      "v": 81
    },
    {
      "midi": 82,
      "hit": false,
      "t": 55760,
      "d": 135,
      "v": 78
    },
    {
      "midi": 58,
      "hit": false,
      "t": 55905,
      "d": 245,
      "v": 70
    },
    {
      "midi": 62,
      "hit": false,
      "t": 56040,
      "d": 125,
      "v": 41
    },
    {
      "midi": 68,
      "hit": false,
      "t": 56045,
      "d": 115,
      "v": 65
    },
    {
      "midi": 84,
      "hit": false,
      "t": 56085,
      "d": 155,
      "v": 72
    },
    {
      "midi": 72,
      "hit": false,
      "t": 56100,
      "d": 225,
      "v": 60
    },
    {
      "midi": 74,
      "hit": false,
      "t": 56105,
      "d": 165,
      "v": 59
    },
    {
      "midi": 77,
      "hit": false,
      "t": 56105,
      "d": 170,
      "v": 62
    },
    {
      "midi": 70,
      "hit": false,
      "t": 56640,
      "d": 265,
      "v": 73
    },
    {
      "midi": 41,
      "hit": false,
      "t": 56670,
      "d": 375,
      "v": 34
    },
    {
      "midi": 72,
      "hit": false,
      "t": 56890,
      "d": 235,
      "v": 68
    },
    {
      "midi": 46,
      "hit": false,
      "t": 57145,
      "d": 75,
      "v": 71
    },
    {
      "midi": 68,
      "hit": false,
      "t": 57155,
      "d": 250,
      "v": 78
    },
    {
      "midi": 67,
      "hit": false,
      "t": 57385,
      "d": 35,
      "v": 78
    },
    {
      "midi": 53,
      "hit": false,
      "t": 57695,
      "d": 750,
      "v": 57
    },
    {
      "midi": 63,
      "hit": false,
      "t": 57705,
      "d": 140,
      "v": 57
    },
    {
      "midi": 70,
      "hit": false,
      "t": 57705,
      "d": 695,
      "v": 69
    },
    {
      "midi": 59,
      "hit": false,
      "t": 57705,
      "d": 720,
      "v": 57
    },
    {
      "midi": 58,
      "hit": false,
      "t": 58310,
      "d": 175,
      "v": 60
    },
    {
      "midi": 62,
      "hit": false,
      "t": 58315,
      "d": 240,
      "v": 63
    },
    {
      "midi": 68,
      "hit": false,
      "t": 58320,
      "d": 280,
      "v": 71
    },
    {
      "midi": 70,
      "hit": false,
      "t": 58610,
      "d": 35,
      "v": 71
    },
    {
      "midi": 46,
      "hit": false,
      "t": 58895,
      "d": 225,
      "v": 50
    },
    {
      "midi": 66,
      "hit": false,
      "t": 58925,
      "d": 290,
      "v": 66
    },
    {
      "midi": 56,
      "hit": false,
      "t": 58930,
      "d": 165,
      "v": 63
    },
    {
      "midi": 59,
      "hit": false,
      "t": 58940,
      "d": 365,
      "v": 56
    },
    {
      "midi": 65,
      "hit": false,
      "t": 59240,
      "d": 120,
      "v": 68
    },
    {
      "midi": 39,
      "hit": false,
      "t": 59405,
      "d": 110,
      "v": 68
    },
    {
      "midi": 46,
      "hit": false,
      "t": 59545,
      "d": 380,
      "v": 47
    },
    {
      "midi": 58,
      "hit": false,
      "t": 59700,
      "d": 210,
      "v": 63
    },
    {
      "midi": 54,
      "hit": false,
      "t": 59710,
      "d": 245,
      "v": 63
    },
    {
      "midi": 70,
      "hit": false,
      "t": 59710,
      "d": 270,
      "v": 66
    },
    {
      "midi": 65,
      "hit": false,
      "t": 59730,
      "d": 230,
      "v": 64
    },
    {
      "midi": 77,
      "hit": false,
      "t": 60360,
      "d": 1010,
      "v": 73
    },
    {
      "midi": 63,
      "hit": false,
      "t": 60390,
      "d": 1065,
      "v": 57
    },
    {
      "midi": 61,
      "hit": false,
      "t": 60920,
      "d": 590,
      "v": 65
    },
    {
      "midi": 73,
      "hit": false,
      "t": 61445,
      "d": 1100,
      "v": 73
    },
    {
      "midi": 66,
      "hit": false,
      "t": 61450,
      "d": 1155,
      "v": 57
    },
    {
      "midi": 58,
      "hit": false,
      "t": 61470,
      "d": 1235,
      "v": 66
    },
    {
      "midi": 75,
      "hit": false,
      "t": 61705,
      "d": 435,
      "v": 73
    },
    {
      "midi": 61,
      "hit": false,
      "t": 61990,
      "d": 680,
      "v": 71
    },
    {
      "midi": 77,
      "hit": false,
      "t": 62020,
      "d": 660,
      "v": 67
    },
    {
      "midi": 63,
      "hit": false,
      "t": 62555,
      "d": 100,
      "v": 75
    },
    {
      "midi": 51,
      "hit": false,
      "t": 62840,
      "d": 50,
      "v": 74
    },
    {
      "midi": 58,
      "hit": false,
      "t": 62930,
      "d": 285,
      "v": 65
    },
    {
      "midi": 65,
      "hit": false,
      "t": 63115,
      "d": 890,
      "v": 67
    },
    {
      "midi": 82,
      "hit": false,
      "t": 63125,
      "d": 465,
      "v": 74
    },
    {
      "midi": 70,
      "hit": false,
      "t": 63125,
      "d": 685,
      "v": 67
    },
    {
      "midi": 77,
      "hit": false,
      "t": 63160,
      "d": 620,
      "v": 64
    },
    {
      "midi": 63,
      "hit": false,
      "t": 63670,
      "d": 505,
      "v": 78
    },
    {
      "midi": 80,
      "hit": false,
      "t": 63680,
      "d": 270,
      "v": 78
    },
    {
      "midi": 82,
      "hit": false,
      "t": 63925,
      "d": 450,
      "v": 80
    },
    {
      "midi": 61,
      "hit": false,
      "t": 64165,
      "d": 40,
      "v": 84
    },
    {
      "midi": 78,
      "hit": false,
      "t": 64190,
      "d": 280,
      "v": 82
    },
    {
      "midi": 80,
      "hit": false,
      "t": 64410,
      "d": 85,
      "v": 80
    },
    {
      "midi": 44,
      "hit": false,
      "t": 64505,
      "d": 130,
      "v": 83
    },
    {
      "midi": 51,
      "hit": false,
      "t": 64675,
      "d": 235,
      "v": 63
    },
    {
      "midi": 66,
      "hit": false,
      "t": 64790,
      "d": 610,
      "v": 72
    },
    {
      "midi": 77,
      "hit": false,
      "t": 64805,
      "d": 685,
      "v": 29
    },
    {
      "midi": 58,
      "hit": false,
      "t": 64820,
      "d": 370,
      "v": 67
    },
    {
      "midi": 61,
      "hit": false,
      "t": 65390,
      "d": 390,
      "v": 77
    },
    {
      "midi": 75,
      "hit": false,
      "t": 65700,
      "d": 280,
      "v": 80
    },
    {
      "midi": 66,
      "hit": false,
      "t": 66140,
      "d": 400,
      "v": 52
    },
    {
      "midi": 70,
      "hit": false,
      "t": 66150,
      "d": 320,
      "v": 69
    },
    {
      "midi": 63,
      "hit": false,
      "t": 66165,
      "d": 225,
      "v": 35
    },
    {
      "midi": 60,
      "hit": false,
      "t": 66180,
      "d": 235,
      "v": 62
    },
    {
      "midi": 44,
      "hit": false,
      "t": 66975,
      "d": 270,
      "v": 63
    },
    {
      "midi": 68,
      "hit": false,
      "t": 66990,
      "d": 810,
      "v": 58
    },
    {
      "midi": 63,
      "hit": false,
      "t": 67005,
      "d": 595,
      "v": 61
    },
    {
      "midi": 65,
      "hit": false,
      "t": 67040,
      "d": 365,
      "v": 54
    },
    {
      "midi": 37,
      "hit": false,
      "t": 67080,
      "d": 125,
      "v": 35
    },
    {
      "midi": 46,
      "hit": false,
      "t": 67265,
      "d": 225,
      "v": 70
    },
    {
      "midi": 48,
      "hit": false,
      "t": 67545,
      "d": 805,
      "v": 75
    },
    {
      "midi": 56,
      "hit": false,
      "t": 67560,
      "d": 595,
      "v": 75
    },
    {
      "midi": 61,
      "hit": false,
      "t": 68065,
      "d": 385,
      "v": 77
    },
    {
      "midi": 49,
      "hit": false,
      "t": 68310,
      "d": 55,
      "v": 78
    },
    {
      "midi": 68,
      "hit": false,
      "t": 68600,
      "d": 1335,
      "v": 71
    },
    {
      "midi": 65,
      "hit": false,
      "t": 68605,
      "d": 680,
      "v": 60
    },
    {
      "midi": 60,
      "hit": false,
      "t": 68625,
      "d": 205,
      "v": 68
    },
    {
      "midi": 41,
      "hit": false,
      "t": 68625,
      "d": 265,
      "v": 56
    },
    {
      "midi": 51,
      "hit": false,
      "t": 68625,
      "d": 375,
      "v": 68
    },
    {
      "midi": 56,
      "hit": false,
      "t": 69125,
      "d": 185,
      "v": 79
    },
    {
      "midi": 53,
      "hit": false,
      "t": 69370,
      "d": 445,
      "v": 76
    },
    {
      "midi": 56,
      "hit": false,
      "t": 69625,
      "d": 220,
      "v": 78
    },
    {
      "midi": 60,
      "hit": false,
      "t": 69830,
      "d": 30,
      "v": 79
    },
    {
      "midi": 46,
      "hit": false,
      "t": 70045,
      "d": 160,
      "v": 74
    },
    {
      "midi": 58,
      "hit": false,
      "t": 70130,
      "d": 240,
      "v": 73
    },
    {
      "midi": 56,
      "hit": false,
      "t": 70340,
      "d": 65,
      "v": 83
    },
    {
      "midi": 53,
      "hit": false,
      "t": 70580,
      "d": 130,
      "v": 81
    },
    {
      "midi": 60,
      "hit": false,
      "t": 70600,
      "d": 120,
      "v": 75
    },
    {
      "midi": 62,
      "hit": false,
      "t": 70605,
      "d": 125,
      "v": 70
    },
    {
      "midi": 50,
      "hit": false,
      "t": 70825,
      "d": 235,
      "v": 69
    },
    {
      "midi": 46,
      "hit": false,
      "t": 71080,
      "d": 70,
      "v": 85
    },
    {
      "midi": 68,
      "hit": false,
      "t": 71090,
      "d": 45,
      "v": 62
    },
    {
      "midi": 70,
      "hit": false,
      "t": 71090,
      "d": 100,
      "v": 81
    },
    {
      "midi": 80,
      "hit": false,
      "t": 71590,
      "d": 530,
      "v": 80
    },
    {
      "midi": 56,
      "hit": false,
      "t": 71600,
      "d": 230,
      "v": 73
    },
    {
      "midi": 75,
      "hit": false,
      "t": 71605,
      "d": 535,
      "v": 72
    },
    {
      "midi": 49,
      "hit": false,
      "t": 71610,
      "d": 120,
      "v": 72
    },
    {
      "midi": 77,
      "hit": false,
      "t": 71610,
      "d": 410,
      "v": 77
    },
    {
      "midi": 58,
      "hit": false,
      "t": 71825,
      "d": 240,
      "v": 81
    },
    {
      "midi": 68,
      "hit": false,
      "t": 72110,
      "d": 555,
      "v": 81
    },
    {
      "midi": 60,
      "hit": false,
      "t": 72115,
      "d": 775,
      "v": 80
    },
    {
      "midi": 73,
      "hit": false,
      "t": 72610,
      "d": 325,
      "v": 85
    },
    {
      "midi": 61,
      "hit": false,
      "t": 72835,
      "d": 90,
      "v": 87
    },
    {
      "midi": 63,
      "hit": false,
      "t": 73110,
      "d": 325,
      "v": 80
    },
    {
      "midi": 80,
      "hit": false,
      "t": 73115,
      "d": 640,
      "v": 82
    },
    {
      "midi": 77,
      "hit": false,
      "t": 73120,
      "d": 610,
      "v": 79
    },
    {
      "midi": 72,
      "hit": false,
      "t": 73125,
      "d": 170,
      "v": 78
    },
    {
      "midi": 53,
      "hit": false,
      "t": 73125,
      "d": 205,
      "v": 71
    },
    {
      "midi": 68,
      "hit": false,
      "t": 73630,
      "d": 165,
      "v": 83
    },
    {
      "midi": 65,
      "hit": false,
      "t": 73865,
      "d": 400,
      "v": 81
    },
    {
      "midi": 68,
      "hit": false,
      "t": 74100,
      "d": 215,
      "v": 85
    },
    {
      "midi": 72,
      "hit": false,
      "t": 74290,
      "d": 40,
      "v": 82
    },
    {
      "midi": 58,
      "hit": false,
      "t": 74495,
      "d": 120,
      "v": 75
    },
    {
      "midi": 70,
      "hit": false,
      "t": 74605,
      "d": 225,
      "v": 93
    },
    {
      "midi": 68,
      "hit": false,
      "t": 74810,
      "d": 80,
      "v": 85
    },
    {
      "midi": 65,
      "hit": false,
      "t": 75045,
      "d": 100,
      "v": 92
    },
    {
      "midi": 72,
      "hit": false,
      "t": 75055,
      "d": 115,
      "v": 83
    },
    {
      "midi": 74,
      "hit": false,
      "t": 75060,
      "d": 120,
      "v": 75
    },
    {
      "midi": 62,
      "hit": false,
      "t": 75275,
      "d": 255,
      "v": 87
    },
    {
      "midi": 58,
      "hit": false,
      "t": 75520,
      "d": 80,
      "v": 89
    },
    {
      "midi": 80,
      "hit": false,
      "t": 75530,
      "d": 45,
      "v": 76
    },
    {
      "midi": 82,
      "hit": false,
      "t": 75540,
      "d": 50,
      "v": 81
    },
    {
      "midi": 92,
      "hit": false,
      "t": 75945,
      "d": 115,
      "v": 85
    },
    {
      "midi": 85,
      "hit": false,
      "t": 75990,
      "d": 90,
      "v": 82
    },
    {
      "midi": 44,
      "hit": false,
      "t": 76000,
      "d": 70,
      "v": 80
    },
    {
      "midi": 37,
      "hit": false,
      "t": 76005,
      "d": 35,
      "v": 80
    },
    {
      "midi": 87,
      "hit": false,
      "t": 76015,
      "d": 40,
      "v": 71
    },
    {
      "midi": 80,
      "hit": false,
      "t": 76030,
      "d": 125,
      "v": 72
    },
    {
      "midi": 82,
      "hit": false,
      "t": 76235,
      "d": 80,
      "v": 90
    },
    {
      "midi": 53,
      "hit": false,
      "t": 76470,
      "d": 60,
      "v": 68
    },
    {
      "midi": 56,
      "hit": false,
      "t": 76485,
      "d": 100,
      "v": 83
    },
    {
      "midi": 60,
      "hit": false,
      "t": 76490,
      "d": 85,
      "v": 82
    },
    {
      "midi": 65,
      "hit": false,
      "t": 76520,
      "d": 85,
      "v": 85
    },
    {
      "midi": 72,
      "hit": false,
      "t": 76535,
      "d": 115,
      "v": 83
    },
    {
      "midi": 84,
      "hit": false,
      "t": 76540,
      "d": 130,
      "v": 81
    },
    {
      "midi": 80,
      "hit": false,
      "t": 76550,
      "d": 200,
      "v": 64
    },
    {
      "midi": 77,
      "hit": false,
      "t": 76550,
      "d": 205,
      "v": 71
    },
    {
      "midi": 56,
      "hit": false,
      "t": 76900,
      "d": 100,
      "v": 81
    },
    {
      "midi": 65,
      "hit": false,
      "t": 76965,
      "d": 90,
      "v": 78
    },
    {
      "midi": 68,
      "hit": false,
      "t": 77015,
      "d": 105,
      "v": 87
    },
    {
      "midi": 85,
      "hit": false,
      "t": 77210,
      "d": 115,
      "v": 87
    },
    {
      "midi": 73,
      "hit": false,
      "t": 77235,
      "d": 35,
      "v": 75
    },
    {
      "midi": 61,
      "hit": false,
      "t": 77395,
      "d": 95,
      "v": 73
    },
    {
      "midi": 65,
      "hit": false,
      "t": 77405,
      "d": 110,
      "v": 72
    },
    {
      "midi": 68,
      "hit": false,
      "t": 77450,
      "d": 105,
      "v": 83
    },
    {
      "midi": 87,
      "hit": false,
      "t": 77495,
      "d": 165,
      "v": 83
    },
    {
      "midi": 80,
      "hit": false,
      "t": 77505,
      "d": 150,
      "v": 75
    },
    {
      "midi": 73,
      "hit": false,
      "t": 77515,
      "d": 75,
      "v": 87
    },
    {
      "midi": 75,
      "hit": false,
      "t": 77515,
      "d": 95,
      "v": 74
    },
    {
      "midi": 65,
      "hit": false,
      "t": 77875,
      "d": 170,
      "v": 71
    },
    {
      "midi": 68,
      "hit": false,
      "t": 77910,
      "d": 195,
      "v": 80
    },
    {
      "midi": 72,
      "hit": false,
      "t": 77965,
      "d": 130,
      "v": 80
    },
    {
      "midi": 77,
      "hit": false,
      "t": 78025,
      "d": 85,
      "v": 80
    },
    {
      "midi": 77,
      "hit": false,
      "t": 78230,
      "d": 75,
      "v": 81
    },
    {
      "midi": 89,
      "hit": false,
      "t": 78245,
      "d": 75,
      "v": 82
    },
    {
      "midi": 91,
      "hit": false,
      "t": 78475,
      "d": 90,
      "v": 93
    },
    {
      "midi": 79,
      "hit": false,
      "t": 78485,
      "d": 100,
      "v": 80
    },
    {
      "midi": 85,
      "hit": false,
      "t": 78505,
      "d": 115,
      "v": 83
    },
    {
      "midi": 80,
      "hit": false,
      "t": 78720,
      "d": 35,
      "v": 79
    },
    {
      "midi": 92,
      "hit": false,
      "t": 78730,
      "d": 55,
      "v": 81
    },
    {
      "midi": 34,
      "hit": false,
      "t": 79015,
      "d": 90,
      "v": 91
    },
    {
      "midi": 46,
      "hit": false,
      "t": 79020,
      "d": 135,
      "v": 77
    },
    {
      "midi": 84,
      "hit": false,
      "t": 79035,
      "d": 310,
      "v": 73
    },
    {
      "midi": 96,
      "hit": false,
      "t": 79040,
      "d": 290,
      "v": 79
    },
    {
      "midi": 89,
      "hit": false,
      "t": 79050,
      "d": 300,
      "v": 63
    },
    {
      "midi": 92,
      "hit": false,
      "t": 79280,
      "d": 80,
      "v": 80
    },
    {
      "midi": 53,
      "hit": false,
      "t": 79555,
      "d": 85,
      "v": 77
    },
    {
      "midi": 56,
      "hit": false,
      "t": 79565,
      "d": 80,
      "v": 65
    },
    {
      "midi": 60,
      "hit": false,
      "t": 79585,
      "d": 95,
      "v": 80
    },
    {
      "midi": 65,
      "hit": false,
      "t": 79630,
      "d": 110,
      "v": 83
    },
    {
      "midi": 96,
      "hit": false,
      "t": 79650,
      "d": 690,
      "v": 81
    },
    {
      "midi": 84,
      "hit": false,
      "t": 79665,
      "d": 785,
      "v": 76
    },
    {
      "midi": 89,
      "hit": false,
      "t": 79665,
      "d": 795,
      "v": 80
    },
    {
      "midi": 56,
      "hit": false,
      "t": 80065,
      "d": 135,
      "v": 74
    },
    {
      "midi": 60,
      "hit": false,
      "t": 80130,
      "d": 45,
      "v": 58
    },
    {
      "midi": 65,
      "hit": false,
      "t": 80145,
      "d": 70,
      "v": 77
    },
    {
      "midi": 68,
      "hit": false,
      "t": 80190,
      "d": 75,
      "v": 82
    },
    {
      "midi": 92,
      "hit": false,
      "t": 80410,
      "d": 75,
      "v": 82
    },
    {
      "midi": 65,
      "hit": false,
      "t": 80610,
      "d": 115,
      "v": 56
    },
    {
      "midi": 60,
      "hit": false,
      "t": 80615,
      "d": 85,
      "v": 68
    },
    {
      "midi": 68,
      "hit": false,
      "t": 80660,
      "d": 105,
      "v": 70
    },
    {
      "midi": 72,
      "hit": false,
      "t": 80715,
      "d": 105,
      "v": 69
    },
    {
      "midi": 89,
      "hit": false,
      "t": 80735,
      "d": 525,
      "v": 69
    },
    {
      "midi": 96,
      "hit": false,
      "t": 80740,
      "d": 530,
      "v": 69
    },
    {
      "midi": 84,
      "hit": false,
      "t": 80745,
      "d": 545,
      "v": 63
    },
    {
      "midi": 68,
      "hit": false,
      "t": 81165,
      "d": 380,
      "v": 74
    },
    {
      "midi": 65,
      "hit": false,
      "t": 81190,
      "d": 360,
      "v": 34
    },
    {
      "midi": 72,
      "hit": false,
      "t": 81280,
      "d": 330,
      "v": 55
    },
    {
      "midi": 77,
      "hit": false,
      "t": 81325,
      "d": 275,
      "v": 70
    },
    {
      "midi": 92,
      "hit": false,
      "t": 81550,
      "d": 100,
      "v": 76
    },
    {
      "midi": 96,
      "hit": false,
      "t": 81835,
      "d": 740,
      "v": 71
    },
    {
      "midi": 89,
      "hit": false,
      "t": 81845,
      "d": 720,
      "v": 61
    },
    {
      "midi": 84,
      "hit": false,
      "t": 81860,
      "d": 700,
      "v": 57
    },
    {
      "midi": 68,
      "hit": false,
      "t": 82230,
      "d": 200,
      "v": 53
    },
    {
      "midi": 72,
      "hit": false,
      "t": 82295,
      "d": 140,
      "v": 46
    },
    {
      "midi": 77,
      "hit": false,
      "t": 82350,
      "d": 270,
      "v": 64
    },
    {
      "midi": 80,
      "hit": false,
      "t": 82425,
      "d": 150,
      "v": 58
    },
    {
      "midi": 92,
      "hit": false,
      "t": 82715,
      "d": 125,
      "v": 69
    },
    {
      "midi": 96,
      "hit": false,
      "t": 83030,
      "d": 740,
      "v": 62
    },
    {
      "midi": 89,
      "hit": false,
      "t": 83035,
      "d": 680,
      "v": 57
    },
    {
      "midi": 84,
      "hit": false,
      "t": 83040,
      "d": 725,
      "v": 60
    },
    {
      "midi": 65,
      "hit": false,
      "t": 83445,
      "d": 530,
      "v": 58
    },
    {
      "midi": 68,
      "hit": false,
      "t": 83485,
      "d": 685,
      "v": 74
    },
    {
      "midi": 72,
      "hit": false,
      "t": 83620,
      "d": 500,
      "v": 51
    },
    {
      "midi": 77,
      "hit": false,
      "t": 83630,
      "d": 395,
      "v": 69
    },
    {
      "midi": 92,
      "hit": false,
      "t": 83910,
      "d": 135,
      "v": 74
    },
    {
      "midi": 96,
      "hit": false,
      "t": 84265,
      "d": 705,
      "v": 58
    },
    {
      "midi": 84,
      "hit": false,
      "t": 84270,
      "d": 710,
      "v": 57
    },
    {
      "midi": 89,
      "hit": false,
      "t": 84270,
      "d": 735,
      "v": 57
    },
    {
      "midi": 60,
      "hit": false,
      "t": 84725,
      "d": 1040,
      "v": 51
    },
    {
      "midi": 65,
      "hit": false,
      "t": 84775,
      "d": 820,
      "v": 62
    },
    {
      "midi": 68,
      "hit": false,
      "t": 84885,
      "d": 715,
      "v": 56
    },
    {
      "midi": 72,
      "hit": false,
      "t": 84955,
      "d": 550,
      "v": 50
    },
    {
      "midi": 92,
      "hit": false,
      "t": 85265,
      "d": 95,
      "v": 69
    },
    {
      "midi": 96,
      "hit": false,
      "t": 85660,
      "d": 175,
      "v": 67
    },
    {
      "midi": 89,
      "hit": false,
      "t": 85675,
      "d": 195,
      "v": 56
    },
    {
      "midi": 84,
      "hit": false,
      "t": 85685,
      "d": 180,
      "v": 63
    },
    {
      "midi": 92,
      "hit": false,
      "t": 86005,
      "d": 215,
      "v": 74
    },
    {
      "midi": 40,
      "hit": false,
      "t": 86430,
      "d": 140,
      "v": 55
    },
    {
      "midi": 85,
      "hit": false,
      "t": 86440,
      "d": 245,
      "v": 54
    },
    {
      "midi": 97,
      "hit": false,
      "t": 86465,
      "d": 180,
      "v": 73
    },
    {
      "midi": 90,
      "hit": false,
      "t": 86465,
      "d": 215,
      "v": 63
    },
    {
      "midi": 63,
      "hit": false,
      "t": 87090,
      "d": 580,
      "v": 53
    },
    {
      "midi": 64,
      "hit": false,
      "t": 87095,
      "d": 510,
      "v": 66
    },
    {
      "midi": 92,
      "hit": false,
      "t": 87145,
      "d": 445,
      "v": 67
    },
    {
      "midi": 68,
      "hit": false,
      "t": 87145,
      "d": 495,
      "v": 49
    },
    {
      "midi": 73,
      "hit": false,
      "t": 87160,
      "d": 415,
      "v": 67
    },
    {
      "midi": 80,
      "hit": false,
      "t": 87170,
      "d": 460,
      "v": 47
    },
    {
      "midi": 85,
      "hit": false,
      "t": 87170,
      "d": 855,
      "v": 68
    },
    {
      "midi": 88,
      "hit": false,
      "t": 87720,
      "d": 235,
      "v": 79
    },
    {
      "midi": 90,
      "hit": false,
      "t": 87965,
      "d": 185,
      "v": 83
    },
    {
      "midi": 58,
      "hit": false,
      "t": 88140,
      "d": 715,
      "v": 66
    },
    {
      "midi": 61,
      "hit": false,
      "t": 88200,
      "d": 495,
      "v": 60
    },
    {
      "midi": 92,
      "hit": false,
      "t": 88265,
      "d": 220,
      "v": 74
    },
    {
      "midi": 80,
      "hit": false,
      "t": 88275,
      "d": 170,
      "v": 69
    },
    {
      "midi": 68,
      "hit": false,
      "t": 88290,
      "d": 360,
      "v": 61
    },
    {
      "midi": 85,
      "hit": false,
      "t": 88295,
      "d": 180,
      "v": 56
    },
    {
      "midi": 64,
      "hit": false,
      "t": 88305,
      "d": 415,
      "v": 44
    },
    {
      "midi": 97,
      "hit": false,
      "t": 88825,
      "d": 260,
      "v": 81
    },
    {
      "midi": 100,
      "hit": false,
      "t": 89400,
      "d": 85,
      "v": 80
    },
    {
      "midi": 40,
      "hit": false,
      "t": 89405,
      "d": 45,
      "v": 63
    },
    {
      "midi": 97,
      "hit": false,
      "t": 89935,
      "d": 745,
      "v": 75
    },
    {
      "midi": 63,
      "hit": false,
      "t": 89950,
      "d": 715,
      "v": 46
    },
    {
      "midi": 92,
      "hit": false,
      "t": 89970,
      "d": 220,
      "v": 75
    },
    {
      "midi": 64,
      "hit": false,
      "t": 89975,
      "d": 255,
      "v": 65
    },
    {
      "midi": 85,
      "hit": false,
      "t": 89975,
      "d": 785,
      "v": 53
    },
    {
      "midi": 56,
      "hit": false,
      "t": 89980,
      "d": 665,
      "v": 67
    },
    {
      "midi": 92,
      "hit": false,
      "t": 90530,
      "d": 155,
      "v": 77
    },
    {
      "midi": 66,
      "hit": false,
      "t": 90545,
      "d": 185,
      "v": 65
    },
    {
      "midi": 58,
      "hit": false,
      "t": 90925,
      "d": 390,
      "v": 64
    },
    {
      "midi": 64,
      "hit": false,
      "t": 91025,
      "d": 330,
      "v": 67
    },
    {
      "midi": 88,
      "hit": false,
      "t": 91070,
      "d": 255,
      "v": 72
    },
    {
      "midi": 68,
      "hit": false,
      "t": 91105,
      "d": 320,
      "v": 58
    },
    {
      "midi": 90,
      "hit": false,
      "t": 91295,
      "d": 95,
      "v": 81
    },
    {
      "midi": 92,
      "hit": false,
      "t": 91605,
      "d": 160,
      "v": 73
    },
    {
      "midi": 80,
      "hit": false,
      "t": 91615,
      "d": 110,
      "v": 63
    },
    {
      "midi": 85,
      "hit": false,
      "t": 91630,
      "d": 115,
      "v": 62
    },
    {
      "midi": 64,
      "hit": false,
      "t": 92025,
      "d": 460,
      "v": 63
    },
    {
      "midi": 63,
      "hit": false,
      "t": 92105,
      "d": 370,
      "v": 16
    },
    {
      "midi": 68,
      "hit": false,
      "t": 92170,
      "d": 415,
      "v": 35
    },
    {
      "midi": 97,
      "hit": false,
      "t": 92180,
      "d": 225,
      "v": 71
    },
    {
      "midi": 85,
      "hit": false,
      "t": 92185,
      "d": 160,
      "v": 55
    },
    {
      "midi": 90,
      "hit": false,
      "t": 92190,
      "d": 170,
      "v": 62
    },
    {
      "midi": 73,
      "hit": false,
      "t": 92190,
      "d": 340,
      "v": 57
    },
    {
      "midi": 100,
      "hit": false,
      "t": 92765,
      "d": 105,
      "v": 75
    },
    {
      "midi": 70,
      "hit": false,
      "t": 93290,
      "d": 1400,
      "v": 59
    },
    {
      "midi": 85,
      "hit": false,
      "t": 93300,
      "d": 310,
      "v": 63
    },
    {
      "midi": 92,
      "hit": false,
      "t": 93350,
      "d": 135,
      "v": 59
    },
    {
      "midi": 68,
      "hit": false,
      "t": 93360,
      "d": 1340,
      "v": 15
    },
    {
      "midi": 97,
      "hit": false,
      "t": 93370,
      "d": 375,
      "v": 73
    },
    {
      "midi": 76,
      "hit": false,
      "t": 93380,
      "d": 610,
      "v": 44
    },
    {
      "midi": 73,
      "hit": false,
      "t": 93405,
      "d": 1235,
      "v": 21
    },
    {
      "midi": 92,
      "hit": false,
      "t": 93920,
      "d": 45,
      "v": 75
    },
    {
      "midi": 76,
      "hit": false,
      "t": 94435,
      "d": 305,
      "v": 53
    },
    {
      "midi": 85,
      "hit": false,
      "t": 94450,
      "d": 140,
      "v": 60
    },
    {
      "midi": 80,
      "hit": false,
      "t": 94465,
      "d": 140,
      "v": 64
    },
    {
      "midi": 88,
      "hit": false,
      "t": 94505,
      "d": 200,
      "v": 69
    },
    {
      "midi": 85,
      "hit": false,
      "t": 95035,
      "d": 40,
      "v": 69
    },
    {
      "midi": 68,
      "hit": false,
      "t": 95495,
      "d": 400,
      "v": 51
    },
    {
      "midi": 73,
      "hit": false,
      "t": 95550,
      "d": 155,
      "v": 56
    },
    {
      "midi": 76,
      "hit": false,
      "t": 95590,
      "d": 45,
      "v": 62
    },
    {
      "midi": 80,
      "hit": false,
      "t": 95630,
      "d": 320,
      "v": 71
    },
    {
      "midi": 76,
      "hit": false,
      "t": 96285,
      "d": 80,
      "v": 65
    },
    {
      "midi": 73,
      "hit": false,
      "t": 96965,
      "d": 1395,
      "v": 63
    },
    {
      "midi": 61,
      "hit": false,
      "t": 96995,
      "d": 1150,
      "v": 57
    },
    {
      "midi": 64,
      "hit": false,
      "t": 97000,
      "d": 1140,
      "v": 59
    },
    {
      "midi": 62,
      "hit": false,
      "t": 97005,
      "d": 1125,
      "v": 55
    },
    {
      "midi": 68,
      "hit": false,
      "t": 97545,
      "d": 1105,
      "v": 70
    },
    {
      "midi": 59,
      "hit": false,
      "t": 97575,
      "d": 555,
      "v": 62
    },
    {
      "midi": 56,
      "hit": false,
      "t": 98120,
      "d": 490,
      "v": 69
    },
    {
      "midi": 64,
      "hit": false,
      "t": 98645,
      "d": 960,
      "v": 64
    },
    {
      "midi": 62,
      "hit": false,
      "t": 98650,
      "d": 770,
      "v": 59
    },
    {
      "midi": 61,
      "hit": false,
      "t": 98655,
      "d": 290,
      "v": 53
    },
    {
      "midi": 66,
      "hit": false,
      "t": 98900,
      "d": 380,
      "v": 69
    },
    {
      "midi": 56,
      "hit": false,
      "t": 99190,
      "d": 65,
      "v": 64
    },
    {
      "midi": 68,
      "hit": false,
      "t": 99195,
      "d": 90,
      "v": 69
    },
    {
      "midi": 73,
      "hit": false,
      "t": 99710,
      "d": 295,
      "v": 73
    },
    {
      "midi": 40,
      "hit": false,
      "t": 99735,
      "d": 70,
      "v": 64
    },
    {
      "midi": 76,
      "hit": false,
      "t": 99960,
      "d": 40,
      "v": 73
    },
    {
      "midi": 73,
      "hit": false,
      "t": 100255,
      "d": 1220,
      "v": 73
    },
    {
      "midi": 61,
      "hit": false,
      "t": 100265,
      "d": 1085,
      "v": 56
    },
    {
      "midi": 64,
      "hit": false,
      "t": 100290,
      "d": 840,
      "v": 57
    },
    {
      "midi": 62,
      "hit": false,
      "t": 100295,
      "d": 820,
      "v": 56
    },
    {
      "midi": 68,
      "hit": false,
      "t": 100815,
      "d": 1090,
      "v": 74
    },
    {
      "midi": 59,
      "hit": false,
      "t": 100830,
      "d": 660,
      "v": 67
    },
    {
      "midi": 56,
      "hit": false,
      "t": 101370,
      "d": 605,
      "v": 69
    },
    {
      "midi": 61,
      "hit": false,
      "t": 101895,
      "d": 460,
      "v": 62
    },
    {
      "midi": 64,
      "hit": false,
      "t": 101900,
      "d": 1245,
      "v": 65
    },
    {
      "midi": 62,
      "hit": false,
      "t": 101905,
      "d": 1155,
      "v": 60
    },
    {
      "midi": 66,
      "hit": false,
      "t": 102170,
      "d": 375,
      "v": 67
    },
    {
      "midi": 68,
      "hit": false,
      "t": 102440,
      "d": 125,
      "v": 71
    },
    {
      "midi": 56,
      "hit": false,
      "t": 102450,
      "d": 85,
      "v": 63
    },
    {
      "midi": 73,
      "hit": false,
      "t": 102985,
      "d": 255,
      "v": 74
    },
    {
      "midi": 40,
      "hit": false,
      "t": 102990,
      "d": 50,
      "v": 61
    },
    {
      "midi": 76,
      "hit": false,
      "t": 103235,
      "d": 40,
      "v": 66
    },
    {
      "midi": 73,
      "hit": false,
      "t": 103510,
      "d": 1035,
      "v": 74
    },
    {
      "midi": 61,
      "hit": false,
      "t": 103530,
      "d": 1080,
      "v": 62
    },
    {
      "midi": 64,
      "hit": false,
      "t": 103550,
      "d": 1080,
      "v": 62
    },
    {
      "midi": 62,
      "hit": false,
      "t": 103555,
      "d": 1080,
      "v": 56
    },
    {
      "midi": 68,
      "hit": false,
      "t": 104075,
      "d": 685,
      "v": 72
    },
    {
      "midi": 59,
      "hit": false,
      "t": 104090,
      "d": 755,
      "v": 63
    },
    {
      "midi": 56,
      "hit": false,
      "t": 104645,
      "d": 255,
      "v": 71
    },
    {
      "midi": 73,
      "hit": false,
      "t": 105175,
      "d": 890,
      "v": 72
    },
    {
      "midi": 61,
      "hit": false,
      "t": 105190,
      "d": 830,
      "v": 73
    },
    {
      "midi": 62,
      "hit": false,
      "t": 105195,
      "d": 1035,
      "v": 63
    },
    {
      "midi": 65,
      "hit": false,
      "t": 105215,
      "d": 1040,
      "v": 72
    },
    {
      "midi": 68,
      "hit": false,
      "t": 105745,
      "d": 760,
      "v": 71
    },
    {
      "midi": 59,
      "hit": false,
      "t": 105765,
      "d": 565,
      "v": 63
    },
    {
      "midi": 56,
      "hit": false,
      "t": 106295,
      "d": 195,
      "v": 69
    },
    {
      "midi": 73,
      "hit": false,
      "t": 106845,
      "d": 895,
      "v": 79
    },
    {
      "midi": 61,
      "hit": false,
      "t": 106850,
      "d": 810,
      "v": 78
    },
    {
      "midi": 63,
      "hit": false,
      "t": 106850,
      "d": 1045,
      "v": 77
    },
    {
      "midi": 66,
      "hit": false,
      "t": 106855,
      "d": 935,
      "v": 82
    },
    {
      "midi": 59,
      "hit": false,
      "t": 107415,
      "d": 550,
      "v": 71
    },
    {
      "midi": 68,
      "hit": false,
      "t": 107425,
      "d": 520,
      "v": 70
    },
    {
      "midi": 56,
      "hit": false,
      "t": 107950,
      "d": 80,
      "v": 69
    },
    {
      "midi": 73,
      "hit": false,
      "t": 108520,
      "d": 1150,
      "v": 65
    },
    {
      "midi": 61,
      "hit": false,
      "t": 108530,
      "d": 685,
      "v": 63
    },
    {
      "midi": 64,
      "hit": false,
      "t": 108550,
      "d": 820,
      "v": 53
    },
    {
      "midi": 67,
      "hit": false,
      "t": 108555,
      "d": 870,
      "v": 63
    },
    {
      "midi": 59,
      "hit": false,
      "t": 109115,
      "d": 330,
      "v": 61
    },
    {
      "midi": 68,
      "hit": false,
      "t": 109120,
      "d": 455,
      "v": 71
    },
    {
      "midi": 56,
      "hit": false,
      "t": 109695,
      "d": 70,
      "v": 69
    },
    {
      "midi": 73,
      "hit": false,
      "t": 110245,
      "d": 270,
      "v": 69
    },
    {
      "midi": 68,
      "hit": false,
      "t": 110260,
      "d": 125,
      "v": 58
    },
    {
      "midi": 65,
      "hit": false,
      "t": 110265,
      "d": 120,
      "v": 64
    },
    {
      "midi": 61,
      "hit": false,
      "t": 110265,
      "d": 150,
      "v": 59
    },
    {
      "midi": 64,
      "hit": false,
      "t": 110805,
      "d": 205,
      "v": 62
    },
    {
      "midi": 80,
      "hit": false,
      "t": 110810,
      "d": 665,
      "v": 75
    },
    {
      "midi": 68,
      "hit": false,
      "t": 110815,
      "d": 660,
      "v": 66
    },
    {
      "midi": 59,
      "hit": false,
      "t": 110845,
      "d": 120,
      "v": 56
    },
    {
      "midi": 61,
      "hit": false,
      "t": 111360,
      "d": 155,
      "v": 64
    },
    {
      "midi": 56,
      "hit": false,
      "t": 111370,
      "d": 130,
      "v": 75
    },
    {
      "midi": 65,
      "hit": false,
      "t": 111895,
      "d": 75,
      "v": 73
    },
    {
      "midi": 68,
      "hit": false,
      "t": 111900,
      "d": 115,
      "v": 70
    },
    {
      "midi": 73,
      "hit": false,
      "t": 111905,
      "d": 240,
      "v": 81
    },
    {
      "midi": 61,
      "hit": false,
      "t": 111910,
      "d": 145,
      "v": 67
    },
    {
      "midi": 78,
      "hit": false,
      "t": 112150,
      "d": 120,
      "v": 78
    },
    {
      "midi": 64,
      "hit": false,
      "t": 112430,
      "d": 145,
      "v": 67
    },
    {
      "midi": 80,
      "hit": false,
      "t": 112430,
      "d": 360,
      "v": 78
    },
    {
      "midi": 68,
      "hit": false,
      "t": 112450,
      "d": 280,
      "v": 67
    },
    {
      "midi": 59,
      "hit": false,
      "t": 112455,
      "d": 115,
      "v": 68
    },
    {
      "midi": 61,
      "hit": false,
      "t": 112995,
      "d": 130,
      "v": 62
    },
    {
      "midi": 56,
      "hit": false,
      "t": 113010,
      "d": 100,
      "v": 81
    },
    {
      "midi": 85,
      "hit": false,
      "t": 113245,
      "d": 590,
      "v": 82
    },
    {
      "midi": 68,
      "hit": false,
      "t": 113555,
      "d": 240,
      "v": 53
    },
    {
      "midi": 73,
      "hit": false,
      "t": 113575,
      "d": 195,
      "v": 56
    },
    {
      "midi": 65,
      "hit": false,
      "t": 113585,
      "d": 200,
      "v": 57
    },
    {
      "midi": 77,
      "hit": false,
      "t": 113585,
      "d": 215,
      "v": 68
    },
    {
      "midi": 61,
      "hit": false,
      "t": 113590,
      "d": 170,
      "v": 59
    },
    {
      "midi": 68,
      "hit": false,
      "t": 114105,
      "d": 105,
      "v": 61
    },
    {
      "midi": 65,
      "hit": false,
      "t": 114120,
      "d": 115,
      "v": 57
    },
    {
      "midi": 84,
      "hit": false,
      "t": 114125,
      "d": 110,
      "v": 70
    },
    {
      "midi": 72,
      "hit": false,
      "t": 114130,
      "d": 65,
      "v": 74
    },
    {
      "midi": 60,
      "hit": false,
      "t": 114145,
      "d": 45,
      "v": 68
    },
    {
      "midi": 85,
      "hit": false,
      "t": 114360,
      "d": 100,
      "v": 79
    },
    {
      "midi": 68,
      "hit": false,
      "t": 114625,
      "d": 40,
      "v": 65
    },
    {
      "midi": 65,
      "hit": false,
      "t": 114635,
      "d": 40,
      "v": 66
    },
    {
      "midi": 70,
      "hit": false,
      "t": 114640,
      "d": 55,
      "v": 78
    },
    {
      "midi": 82,
      "hit": false,
      "t": 114645,
      "d": 170,
      "v": 82
    },
    {
      "midi": 58,
      "hit": false,
      "t": 114655,
      "d": 35,
      "v": 75
    },
    {
      "midi": 77,
      "hit": false,
      "t": 114660,
      "d": 95,
      "v": 28
    },
    {
      "midi": 84,
      "hit": false,
      "t": 114880,
      "d": 40,
      "v": 86
    },
    {
      "midi": 77,
      "hit": false,
      "t": 115220,
      "d": 215,
      "v": 75
    },
    {
      "midi": 65,
      "hit": false,
      "t": 115230,
      "d": 185,
      "v": 64
    },
    {
      "midi": 60,
      "hit": false,
      "t": 115230,
      "d": 230,
      "v": 58
    },
    {
      "midi": 63,
      "hit": false,
      "t": 115235,
      "d": 195,
      "v": 54
    },
    {
      "midi": 72,
      "hit": false,
      "t": 115240,
      "d": 265,
      "v": 78
    },
    {
      "midi": 53,
      "hit": false,
      "t": 115250,
      "d": 130,
      "v": 62
    },
    {
      "midi": 80,
      "hit": false,
      "t": 115830,
      "d": 675,
      "v": 69
    },
    {
      "midi": 68,
      "hit": false,
      "t": 115855,
      "d": 635,
      "v": 60
    },
    {
      "midi": 63,
      "hit": false,
      "t": 115870,
      "d": 130,
      "v": 29
    },
    {
      "midi": 75,
      "hit": false,
      "t": 115870,
      "d": 660,
      "v": 77
    },
    {
      "midi": 60,
      "hit": false,
      "t": 115885,
      "d": 155,
      "v": 53
    },
    {
      "midi": 56,
      "hit": false,
      "t": 115885,
      "d": 205,
      "v": 70
    },
    {
      "midi": 41,
      "hit": false,
      "t": 116410,
      "d": 130,
      "v": 80
    },
    {
      "midi": 82,
      "hit": false,
      "t": 116975,
      "d": 245,
      "v": 66
    },
    {
      "midi": 34,
      "hit": false,
      "t": 116990,
      "d": 340,
      "v": 70
    },
    {
      "midi": 70,
      "hit": false,
      "t": 117000,
      "d": 250,
      "v": 38
    },
    {
      "midi": 73,
      "hit": false,
      "t": 117010,
      "d": 205,
      "v": 73
    },
    {
      "midi": 77,
      "hit": false,
      "t": 117540,
      "d": 155,
      "v": 81
    },
    {
      "midi": 65,
      "hit": false,
      "t": 117550,
      "d": 125,
      "v": 73
    },
    {
      "midi": 80,
      "hit": false,
      "t": 118105,
      "d": 725,
      "v": 82
    },
    {
      "midi": 68,
      "hit": false,
      "t": 118125,
      "d": 790,
      "v": 75
    },
    {
      "midi": 44,
      "hit": false,
      "t": 118645,
      "d": 825,
      "v": 73
    },
    {
      "midi": 37,
      "hit": false,
      "t": 118660,
      "d": 805,
      "v": 73
    },
    {
      "midi": 71,
      "hit": false,
      "t": 118670,
      "d": 810,
      "v": 78
    },
    {
      "midi": 65,
      "hit": false,
      "t": 119240,
      "d": 635,
      "v": 74
    },
    {
      "midi": 77,
      "hit": false,
      "t": 119245,
      "d": 550,
      "v": 78
    },
    {
      "midi": 73,
      "hit": false,
      "t": 119785,
      "d": 125,
      "v": 80
    },
    {
      "midi": 58,
      "hit": false,
      "t": 120320,
      "d": 70,
      "v": 70
    },
    {
      "midi": 49,
      "hit": false,
      "t": 120330,
      "d": 450,
      "v": 53
    },
    {
      "midi": 66,
      "hit": false,
      "t": 120345,
      "d": 790,
      "v": 72
    },
    {
      "midi": 42,
      "hit": false,
      "t": 120355,
      "d": 375,
      "v": 69
    },
    {
      "midi": 70,
      "hit": false,
      "t": 120880,
      "d": 225,
      "v": 81
    },
    {
      "midi": 72,
      "hit": false,
      "t": 121110,
      "d": 75,
      "v": 80
    },
    {
      "midi": 73,
      "hit": false,
      "t": 121410,
      "d": 180,
      "v": 84
    },
    {
      "midi": 56,
      "hit": false,
      "t": 121415,
      "d": 60,
      "v": 74
    },
    {
      "midi": 65,
      "hit": false,
      "t": 121420,
      "d": 110,
      "v": 78
    },
    {
      "midi": 46,
      "hit": false,
      "t": 121440,
      "d": 85,
      "v": 75
    },
    {
      "midi": 80,
      "hit": false,
      "t": 121935,
      "d": 255,
      "v": 82
    },
    {
      "midi": 44,
      "hit": false,
      "t": 121945,
      "d": 1065,
      "v": 68
    },
    {
      "midi": 37,
      "hit": false,
      "t": 121950,
      "d": 1075,
      "v": 69
    },
    {
      "midi": 71,
      "hit": false,
      "t": 121960,
      "d": 665,
      "v": 81
    },
    {
      "midi": 68,
      "hit": false,
      "t": 121965,
      "d": 220,
      "v": 73
    },
    {
      "midi": 65,
      "hit": false,
      "t": 122510,
      "d": 605,
      "v": 79
    },
    {
      "midi": 77,
      "hit": false,
      "t": 122515,
      "d": 475,
      "v": 80
    },
    {
      "midi": 73,
      "hit": false,
      "t": 123065,
      "d": 95,
      "v": 86
    },
    {
      "midi": 58,
      "hit": false,
      "t": 123605,
      "d": 250,
      "v": 78
    },
    {
      "midi": 49,
      "hit": false,
      "t": 123610,
      "d": 705,
      "v": 53
    },
    {
      "midi": 66,
      "hit": false,
      "t": 123610,
      "d": 755,
      "v": 81
    },
    {
      "midi": 42,
      "hit": false,
      "t": 123615,
      "d": 690,
      "v": 57
    },
    {
      "midi": 70,
      "hit": false,
      "t": 124215,
      "d": 265,
      "v": 83
    },
    {
      "midi": 72,
      "hit": false,
      "t": 124490,
      "d": 155,
      "v": 80
    },
    {
      "midi": 65,
      "hit": false,
      "t": 124825,
      "d": 640,
      "v": 78
    },
    {
      "midi": 61,
      "hit": false,
      "t": 124830,
      "d": 205,
      "v": 78
    },
    {
      "midi": 56,
      "hit": false,
      "t": 124835,
      "d": 190,
      "v": 66
    },
    {
      "midi": 46,
      "hit": false,
      "t": 124835,
      "d": 395,
      "v": 71
    },
    {
      "midi": 60,
      "hit": false,
      "t": 125440,
      "d": 815,
      "v": 80
    },
    {
      "midi": 44,
      "hit": false,
      "t": 125450,
      "d": 810,
      "v": 58
    },
    {
      "midi": 54,
      "hit": false,
      "t": 125455,
      "d": 815,
      "v": 68
    },
    {
      "midi": 66,
      "hit": false,
      "t": 126085,
      "d": 335,
      "v": 80
    },
    {
      "midi": 68,
      "hit": false,
      "t": 126405,
      "d": 220,
      "v": 76
    },
    {
      "midi": 56,
      "hit": false,
      "t": 126680,
      "d": 105,
      "v": 74
    },
    {
      "midi": 66,
      "hit": false,
      "t": 126690,
      "d": 275,
      "v": 85
    },
    {
      "midi": 61,
      "hit": false,
      "t": 126690,
      "d": 300,
      "v": 80
    },
    {
      "midi": 46,
      "hit": false,
      "t": 126705,
      "d": 205,
      "v": 72
    },
    {
      "midi": 65,
      "hit": false,
      "t": 126935,
      "d": 40,
      "v": 77
    },
    {
      "midi": 42,
      "hit": false,
      "t": 127225,
      "d": 220,
      "v": 75
    },
    {
      "midi": 58,
      "hit": false,
      "t": 127230,
      "d": 315,
      "v": 74
    },
    {
      "midi": 63,
      "hit": false,
      "t": 127235,
      "d": 335,
      "v": 81
    },
    {
      "midi": 49,
      "hit": false,
      "t": 127245,
      "d": 250,
      "v": 72
    },
    {
      "midi": 65,
      "hit": false,
      "t": 127505,
      "d": 265,
      "v": 81
    },
    {
      "midi": 44,
      "hit": false,
      "t": 127845,
      "d": 835,
      "v": 64
    },
    {
      "midi": 54,
      "hit": false,
      "t": 127850,
      "d": 515,
      "v": 53
    },
    {
      "midi": 60,
      "hit": false,
      "t": 127875,
      "d": 770,
      "v": 80
    },
    {
      "midi": 56,
      "hit": false,
      "t": 128510,
      "d": 270,
      "v": 74
    },
    {
      "midi": 56,
      "hit": false,
      "t": 129155,
      "d": 1225,
      "v": 56
    },
    {
      "midi": 61,
      "hit": false,
      "t": 129165,
      "d": 1250,
      "v": 67
    },
    {
      "midi": 53,
      "hit": false,
      "t": 129180,
      "d": 1175,
      "v": 65
    },
    {
      "midi": 44,
      "hit": false,
      "t": 129760,
      "d": 70,
      "v": 69
    },
    {
      "midi": 37,
      "hit": false,
      "t": 130390,
      "d": 90,
      "v": 59
    },
    {
      "midi": 87,
      "hit": false,
      "t": 131005,
      "d": 205,
      "v": 83
    },
    {
      "midi": 73,
      "hit": false,
      "t": 131025,
      "d": 310,
      "v": 75
    },
    {
      "midi": 71,
      "hit": false,
      "t": 131045,
      "d": 410,
      "v": 58
    },
    {
      "midi": 61,
      "hit": false,
      "t": 131050,
      "d": 515,
      "v": 63
    },
    {
      "midi": 64,
      "hit": false,
      "t": 131060,
      "d": 455,
      "v": 63
    },
    {
      "midi": 85,
      "hit": false,
      "t": 131080,
      "d": 270,
      "v": 77
    },
    {
      "midi": 80,
      "hit": false,
      "t": 131605,
      "d": 230,
      "v": 75
    },
    {
      "midi": 49,
      "hit": false,
      "t": 132150,
      "d": 55,
      "v": 68
    },
    {
      "midi": 84,
      "hit": false,
      "t": 132630,
      "d": 280,
      "v": 77
    },
    {
      "midi": 82,
      "hit": false,
      "t": 132660,
      "d": 285,
      "v": 79
    },
    {
      "midi": 70,
      "hit": false,
      "t": 132680,
      "d": 390,
      "v": 50
    },
    {
      "midi": 61,
      "hit": false,
      "t": 132690,
      "d": 500,
      "v": 55
    },
    {
      "midi": 76,
      "hit": false,
      "t": 132705,
      "d": 335,
      "v": 72
    },
    {
      "midi": 66,
      "hit": false,
      "t": 132710,
      "d": 435,
      "v": 68
    },
    {
      "midi": 78,
      "hit": false,
      "t": 132965,
      "d": 230,
      "v": 78
    },
    {
      "midi": 80,
      "hit": false,
      "t": 133250,
      "d": 555,
      "v": 76
    },
    {
      "midi": 49,
      "hit": false,
      "t": 133800,
      "d": 125,
      "v": 75
    },
    {
      "midi": 74,
      "hit": false,
      "t": 134350,
      "d": 225,
      "v": 63
    },
    {
      "midi": 59,
      "hit": false,
      "t": 134355,
      "d": 470,
      "v": 59
    },
    {
      "midi": 64,
      "hit": false,
      "t": 134375,
      "d": 505,
      "v": 69
    },
    {
      "midi": 68,
      "hit": false,
      "t": 134405,
      "d": 385,
      "v": 64
    },
    {
      "midi": 78,
      "hit": false,
      "t": 134440,
      "d": 155,
      "v": 54
    },
    {
      "midi": 85,
      "hit": false,
      "t": 134450,
      "d": 165,
      "v": 75
    },
    {
      "midi": 85,
      "hit": false,
      "t": 135035,
      "d": 100,
      "v": 83
    },
    {
      "midi": 85,
      "hit": false,
      "t": 135300,
      "d": 135,
      "v": 83
    },
    {
      "midi": 49,
      "hit": false,
      "t": 135505,
      "d": 35,
      "v": 81
    },
    {
      "midi": 83,
      "hit": false,
      "t": 135545,
      "d": 245,
      "v": 82
    },
    {
      "midi": 85,
      "hit": false,
      "t": 135745,
      "d": 75,
      "v": 83
    },
    {
      "midi": 62,
      "hit": false,
      "t": 136060,
      "d": 550,
      "v": 72
    },
    {
      "midi": 65,
      "hit": false,
      "t": 136080,
      "d": 485,
      "v": 72
    },
    {
      "midi": 71,
      "hit": false,
      "t": 136095,
      "d": 1290,
      "v": 73
    },
    {
      "midi": 74,
      "hit": false,
      "t": 136160,
      "d": 1225,
      "v": 63
    },
    {
      "midi": 81,
      "hit": false,
      "t": 136190,
      "d": 1090,
      "v": 81
    },
    {
      "midi": 80,
      "hit": false,
      "t": 136710,
      "d": 705,
      "v": 81
    },
    {
      "midi": 49,
      "hit": false,
      "t": 137300,
      "d": 525,
      "v": 68
    },
    {
      "midi": 80,
      "hit": false,
      "t": 137865,
      "d": 375,
      "v": 72
    },
    {
      "midi": 42,
      "hit": false,
      "t": 137900,
      "d": 380,
      "v": 52
    },
    {
      "midi": 73,
      "hit": false,
      "t": 137910,
      "d": 240,
      "v": 69
    },
    {
      "midi": 70,
      "hit": false,
      "t": 137910,
      "d": 345,
      "v": 58
    },
    {
      "midi": 49,
      "hit": false,
      "t": 138450,
      "d": 55,
      "v": 67
    },
    {
      "midi": 78,
      "hit": false,
      "t": 138460,
      "d": 320,
      "v": 81
    },
    {
      "midi": 80,
      "hit": false,
      "t": 138690,
      "d": 190,
      "v": 81
    },
    {
      "midi": 61,
      "hit": false,
      "t": 138975,
      "d": 305,
      "v": 75
    },
    {
      "midi": 76,
      "hit": false,
      "t": 138985,
      "d": 265,
      "v": 75
    },
    {
      "midi": 75,
      "hit": false,
      "t": 139205,
      "d": 50,
      "v": 81
    },
    {
      "midi": 78,
      "hit": false,
      "t": 139515,
      "d": 1195,
      "v": 73
    },
    {
      "midi": 72,
      "hit": false,
      "t": 139525,
      "d": 740,
      "v": 72
    },
    {
      "midi": 69,
      "hit": false,
      "t": 139535,
      "d": 890,
      "v": 70
    },
    {
      "midi": 73,
      "hit": false,
      "t": 139545,
      "d": 310,
      "v": 63
    },
    {
      "midi": 61,
      "hit": false,
      "t": 140085,
      "d": 40,
      "v": 67
    },
    {
      "midi": 73,
      "hit": false,
      "t": 140650,
      "d": 320,
      "v": 73
    },
    {
      "midi": 49,
      "hit": false,
      "t": 140670,
      "d": 365,
      "v": 55
    },
    {
      "midi": 76,
      "hit": false,
      "t": 140920,
      "d": 45,
      "v": 77
    },
    {
      "midi": 80,
      "hit": false,
      "t": 141265,
      "d": 515,
      "v": 66
    },
    {
      "midi": 73,
      "hit": false,
      "t": 141265,
      "d": 760,
      "v": 63
    },
    {
      "midi": 70,
      "hit": false,
      "t": 141270,
      "d": 690,
      "v": 60
    },
    {
      "midi": 42,
      "hit": false,
      "t": 141275,
      "d": 585,
      "v": 54
    },
    {
      "midi": 78,
      "hit": false,
      "t": 141820,
      "d": 365,
      "v": 80
    },
    {
      "midi": 49,
      "hit": false,
      "t": 141825,
      "d": 60,
      "v": 68
    },
    {
      "midi": 80,
      "hit": false,
      "t": 142055,
      "d": 155,
      "v": 82
    },
    {
      "midi": 76,
      "hit": false,
      "t": 142330,
      "d": 210,
      "v": 79
    },
    {
      "midi": 61,
      "hit": false,
      "t": 142340,
      "d": 290,
      "v": 71
    },
    {
      "midi": 75,
      "hit": false,
      "t": 142560,
      "d": 40,
      "v": 79
    },
    {
      "midi": 78,
      "hit": false,
      "t": 142880,
      "d": 950,
      "v": 76
    },
    {
      "midi": 73,
      "hit": false,
      "t": 142885,
      "d": 335,
      "v": 64
    },
    {
      "midi": 69,
      "hit": false,
      "t": 142895,
      "d": 850,
      "v": 70
    },
    {
      "midi": 72,
      "hit": false,
      "t": 142905,
      "d": 695,
      "v": 73
    },
    {
      "midi": 61,
      "hit": false,
      "t": 143445,
      "d": 35,
      "v": 71
    },
    {
      "midi": 73,
      "hit": false,
      "t": 143985,
      "d": 220,
      "v": 75
    },
    {
      "midi": 49,
      "hit": false,
      "t": 144005,
      "d": 285,
      "v": 69
    },
    {
      "midi": 76,
      "hit": false,
      "t": 144245,
      "d": 110,
      "v": 74
    },
    {
      "midi": 80,
      "hit": false,
      "t": 144535,
      "d": 235,
      "v": 74
    },
    {
      "midi": 73,
      "hit": false,
      "t": 144545,
      "d": 210,
      "v": 69
    },
    {
      "midi": 76,
      "hit": false,
      "t": 144550,
      "d": 170,
      "v": 69
    },
    {
      "midi": 70,
      "hit": false,
      "t": 144565,
      "d": 215,
      "v": 57
    },
    {
      "midi": 68,
      "hit": false,
      "t": 144570,
      "d": 265,
      "v": 61
    },
    {
      "midi": 42,
      "hit": false,
      "t": 144595,
      "d": 435,
      "v": 55
    },
    {
      "midi": 66,
      "hit": false,
      "t": 145090,
      "d": 435,
      "v": 75
    },
    {
      "midi": 49,
      "hit": false,
      "t": 145105,
      "d": 50,
      "v": 73
    },
    {
      "midi": 68,
      "hit": false,
      "t": 145355,
      "d": 135,
      "v": 78
    },
    {
      "midi": 61,
      "hit": false,
      "t": 145630,
      "d": 125,
      "v": 71
    },
    {
      "midi": 64,
      "hit": false,
      "t": 145650,
      "d": 140,
      "v": 77
    },
    {
      "midi": 63,
      "hit": false,
      "t": 145885,
      "d": 45,
      "v": 75
    },
    {
      "midi": 66,
      "hit": false,
      "t": 146225,
      "d": 445,
      "v": 76
    },
    {
      "midi": 73,
      "hit": false,
      "t": 146245,
      "d": 625,
      "v": 63
    },
    {
      "midi": 57,
      "hit": false,
      "t": 146245,
      "d": 1000,
      "v": 67
    },
    {
      "midi": 60,
      "hit": false,
      "t": 146250,
      "d": 890,
      "v": 70
    },
    {
      "midi": 61,
      "hit": false,
      "t": 146825,
      "d": 55,
      "v": 54
    },
    {
      "midi": 64,
      "hit": false,
      "t": 146840,
      "d": 295,
      "v": 73
    },
    {
      "midi": 66,
      "hit": false,
      "t": 147110,
      "d": 235,
      "v": 76
    },
    {
      "midi": 62,
      "hit": false,
      "t": 147445,
      "d": 185,
      "v": 74
    },
    {
      "midi": 49,
      "hit": false,
      "t": 147465,
      "d": 465,
      "v": 56
    },
    {
      "midi": 61,
      "hit": false,
      "t": 147745,
      "d": 105,
      "v": 71
    },
    {
      "midi": 42,
      "hit": false,
      "t": 148130,
      "d": 745,
      "v": 54
    },
    {
      "midi": 60,
      "hit": false,
      "t": 148140,
      "d": 685,
      "v": 63
    },
    {
      "midi": 64,
      "hit": false,
      "t": 148145,
      "d": 690,
      "v": 62
    },
    {
      "midi": 57,
      "hit": false,
      "t": 148145,
      "d": 865,
      "v": 60
    },
    {
      "midi": 49,
      "hit": false,
      "t": 148830,
      "d": 65,
      "v": 63
    },
    {
      "midi": 62,
      "hit": false,
      "t": 148830,
      "d": 330,
      "v": 72
    },
    {
      "midi": 64,
      "hit": false,
      "t": 149165,
      "d": 320,
      "v": 64
    },
    {
      "midi": 61,
      "hit": false,
      "t": 149490,
      "d": 330,
      "v": 75
    },
    {
      "midi": 60,
      "hit": false,
      "t": 149810,
      "d": 40,
      "v": 71
    },
    {
      "midi": 54,
      "hit": false,
      "t": 150220,
      "d": 5425,
      "v": 69
    },
    {
      "midi": 73,
      "hit": false,
      "t": 150225,
      "d": 525,
      "v": 57
    },
    {
      "midi": 60,
      "hit": false,
      "t": 150225,
      "d": 5565,
      "v": 69
    },
    {
      "midi": 57,
      "hit": false,
      "t": 150230,
      "d": 5520,
      "v": 67
    },
    {
      "midi": 61,
      "hit": false,
      "t": 150955,
      "d": 80,
      "v": 66
    },
    {
      "midi": 49,
      "hit": false,
      "t": 151715,
      "d": 360,
      "v": 50
    },
    {
      "midi": 48,
      "hit": false,
      "t": 151725,
      "d": 3835,
      "v": 57
    },
    {
      "midi": 50,
      "hit": false,
      "t": 151725,
      "d": 3850,
      "v": 57
    },
    {
      "midi": 42,
      "hit": false,
      "t": 152540,
      "d": 3075,
      "v": 64
    },
    {
      "midi": 37,
      "hit": false,
      "t": 153405,
      "d": 2340,
      "v": 63
    },
    {
      "midi": 30,
      "hit": false,
      "t": 154625,
      "d": 1225,
      "v": 61
    },
    {
      "midi": 25,
      "hit": false,
      "t": 156605,
      "d": 395,
      "v": 90
    },
    {
      "midi": 61,
      "hit": false,
      "t": 157630,
      "d": 135,
      "v": 79
    },
    {
      "midi": 49,
      "hit": false,
      "t": 157635,
      "d": 290,
      "v": 67
    },
    {
      "midi": 68,
      "hit": false,
      "t": 157645,
      "d": 160,
      "v": 78
    },
    {
      "midi": 65,
      "hit": false,
      "t": 157650,
      "d": 110,
      "v": 67
    },
    {
      "midi": 56,
      "hit": false,
      "t": 157660,
      "d": 270,
      "v": 74
    },
    {
      "midi": 58,
      "hit": false,
      "t": 158015,
      "d": 75,
      "v": 89
    },
    {
      "midi": 70,
      "hit": false,
      "t": 158020,
      "d": 95,
      "v": 92
    },
    {
      "midi": 72,
      "hit": false,
      "t": 158390,
      "d": 295,
      "v": 96
    },
    {
      "midi": 65,
      "hit": false,
      "t": 158400,
      "d": 130,
      "v": 72
    },
    {
      "midi": 60,
      "hit": false,
      "t": 158405,
      "d": 215,
      "v": 81
    },
    {
      "midi": 61,
      "hit": false,
      "t": 158410,
      "d": 170,
      "v": 76
    },
    {
      "midi": 46,
      "hit": false,
      "t": 159040,
      "d": 195,
      "v": 95
    },
    {
      "midi": 53,
      "hit": false,
      "t": 159045,
      "d": 230,
      "v": 89
    },
    {
      "midi": 73,
      "hit": false,
      "t": 159345,
      "d": 95,
      "v": 93
    },
    {
      "midi": 61,
      "hit": false,
      "t": 159350,
      "d": 80,
      "v": 90
    },
    {
      "midi": 75,
      "hit": false,
      "t": 159710,
      "d": 355,
      "v": 90
    },
    {
      "midi": 63,
      "hit": false,
      "t": 159715,
      "d": 225,
      "v": 90
    },
    {
      "midi": 65,
      "hit": false,
      "t": 159720,
      "d": 105,
      "v": 89
    },
    {
      "midi": 61,
      "hit": false,
      "t": 159725,
      "d": 175,
      "v": 87
    },
    {
      "midi": 68,
      "hit": false,
      "t": 159730,
      "d": 305,
      "v": 89
    },
    {
      "midi": 48,
      "hit": false,
      "t": 160385,
      "d": 280,
      "v": 95
    },
    {
      "midi": 41,
      "hit": false,
      "t": 160395,
      "d": 230,
      "v": 91
    },
    {
      "midi": 77,
      "hit": false,
      "t": 160770,
      "d": 105,
      "v": 93
    },
    {
      "midi": 65,
      "hit": false,
      "t": 160775,
      "d": 95,
      "v": 88
    },
    {
      "midi": 68,
      "hit": false,
      "t": 161220,
      "d": 100,
      "v": 99
    },
    {
      "midi": 67,
      "hit": false,
      "t": 161225,
      "d": 95,
      "v": 93
    },
    {
      "midi": 79,
      "hit": false,
      "t": 161225,
      "d": 115,
      "v": 83
    },
    {
      "midi": 75,
      "hit": false,
      "t": 161230,
      "d": 155,
      "v": 90
    },
    {
      "midi": 63,
      "hit": false,
      "t": 161235,
      "d": 135,
      "v": 93
    },
    {
      "midi": 56,
      "hit": false,
      "t": 161245,
      "d": 180,
      "v": 74
    },
    {
      "midi": 60,
      "hit": false,
      "t": 161265,
      "d": 45,
      "v": 59
    },
    {
      "midi": 68,
      "hit": false,
      "t": 161685,
      "d": 155,
      "v": 92
    },
    {
      "midi": 80,
      "hit": false,
      "t": 161685,
      "d": 200,
      "v": 98
    },
    {
      "midi": 37,
      "hit": false,
      "t": 161865,
      "d": 75,
      "v": 100
    },
    {
      "midi": 44,
      "hit": false,
      "t": 161875,
      "d": 75,
      "v": 96
    },
    {
      "midi": 70,
      "hit": false,
      "t": 162415,
      "d": 1275,
      "v": 83
    },
    {
      "midi": 78,
      "hit": false,
      "t": 162425,
      "d": 1495,
      "v": 93
    },
    {
      "midi": 73,
      "hit": false,
      "t": 162425,
      "d": 1550,
      "v": 95
    },
    {
      "midi": 85,
      "hit": false,
      "t": 162425,
      "d": 2655,
      "v": 96
    },
    {
      "midi": 66,
      "hit": false,
      "t": 162430,
      "d": 1280,
      "v": 84
    },
    {
      "midi": 63,
      "hit": false,
      "t": 162440,
      "d": 1225,
      "v": 80
    },
    {
      "midi": 61,
      "hit": false,
      "t": 162440,
      "d": 1275,
      "v": 78
    },
    {
      "midi": 68,
      "hit": false,
      "t": 164425,
      "d": 515,
      "v": 50
    },
    {
      "midi": 73,
      "hit": false,
      "t": 164430,
      "d": 680,
      "v": 55
    },
    {
      "midi": 61,
      "hit": false,
      "t": 164445,
      "d": 625,
      "v": 45
    },
    {
      "midi": 77,
      "hit": false,
      "t": 164450,
      "d": 675,
      "v": 75
    },
    {
      "midi": 65,
      "hit": false,
      "t": 164485,
      "d": 560,
      "v": 50
    },
    {
      "midi": 60,
      "hit": false,
      "t": 164500,
      "d": 365,
      "v": 56
    },
    {
      "midi": 85,
      "hit": false,
      "t": 165775,
      "d": 3135,
      "v": 70
    },
    {
      "midi": 66,
      "hit": false,
      "t": 165795,
      "d": 810,
      "v": 43
    },
    {
      "midi": 63,
      "hit": false,
      "t": 165805,
      "d": 815,
      "v": 56
    },
    {
      "midi": 75,
      "hit": false,
      "t": 165805,
      "d": 920,
      "v": 73
    },
    {
      "midi": 73,
      "hit": false,
      "t": 165810,
      "d": 910,
      "v": 35
    },
    {
      "midi": 58,
      "hit": false,
      "t": 165815,
      "d": 790,
      "v": 55
    },
    {
      "midi": 61,
      "hit": false,
      "t": 165820,
      "d": 830,
      "v": 51
    },
    {
      "midi": 73,
      "hit": false,
      "t": 167535,
      "d": 1215,
      "v": 57
    },
    {
      "midi": 77,
      "hit": false,
      "t": 167550,
      "d": 1250,
      "v": 70
    },
    {
      "midi": 65,
      "hit": false,
      "t": 167550,
      "d": 1265,
      "v": 48
    },
    {
      "midi": 68,
      "hit": false,
      "t": 167555,
      "d": 1170,
      "v": 33
    },
    {
      "midi": 61,
      "hit": false,
      "t": 167560,
      "d": 1270,
      "v": 54
    },
    {
      "midi": 56,
      "hit": false,
      "t": 167585,
      "d": 1300,
      "v": 42
    },
    {
      "midi": 44,
      "hit": false,
      "t": 169750,
      "d": 1790,
      "v": 36
    },
    {
      "midi": 37,
      "hit": false,
      "t": 169755,
      "d": 1850,
      "v": 58
    }
  ]
}