{
  "jsonPath": "Rock/Art Rock/Frankie Goes To Hollywood/two-tribes.json",
  "path": "Rock\\Art Rock\\Frankie Goes To Hollywood\\Two Tribes.mid",
  "name": "Two Tribes",
  "difficulty": "Advanced",
  "bpm": 131.14180800839307,
  "notes": [
    {
      "midi": 38,
      "hit": false,
      "t": 3660.1600000000003,
      "d": 6163.413958333334,
      "v": 127
    },
    {
      "midi": 57,
      "hit": false,
      "t": 3660.1600000000003,
      "d": 6175.328541666668,
      "v": 127
    },
    {
      "midi": 53,
      "hit": false,
      "t": 3660.1600000000003,
      "d": 6192.008958333334,
      "v": 127
    },
    {
      "midi": 62,
      "hit": false,
      "t": 3660.1600000000003,
      "d": 6194.391875000001,
      "v": 127
    },
    {
      "midi": 36,
      "hit": false,
      "t": 10980.480000000001,
      "d": 84.59354166666708,
      "v": 127
    },
    {
      "midi": 38,
      "hit": false,
      "t": 11094.860000000002,
      "d": 101.27395833333321,
      "v": 108
    },
    {
      "midi": 38,
      "hit": false,
      "t": 11323.620000000003,
      "d": 67.91312499999913,
      "v": 117
    },
    {
      "midi": 26,
      "hit": false,
      "t": 11438.000000000002,
      "d": 249.0147916666665,
      "v": 127
    },
    {
      "midi": 36,
      "hit": false,
      "t": 11781.140000000001,
      "d": 82.21062499999971,
      "v": 127
    },
    {
      "midi": 38,
      "hit": false,
      "t": 12009.900000000001,
      "d": 89.359375,
      "v": 119
    },
    {
      "midi": 38,
      "hit": false,
      "t": 12238.660000000002,
      "d": 70.2960416666665,
      "v": 124
    },
    {
      "midi": 26,
      "hit": false,
      "t": 12353.04,
      "d": 263.3122916666671,
      "v": 127
    },
    {
      "midi": 36,
      "hit": false,
      "t": 12810.560000000001,
      "d": 77.44479166666679,
      "v": 127
    },
    {
      "midi": 38,
      "hit": false,
      "t": 12924.940000000002,
      "d": 84.59354166666708,
      "v": 117
    },
    {
      "midi": 38,
      "hit": false,
      "t": 13153.700000000003,
      "d": 67.91312499999913,
      "v": 115
    },
    {
      "midi": 26,
      "hit": false,
      "t": 13268.080000000002,
      "d": 229.951458333333,
      "v": 127
    },
    {
      "midi": 36,
      "hit": false,
      "t": 13611.220000000001,
      "d": 77.44479166666679,
      "v": 127
    },
    {
      "midi": 38,
      "hit": false,
      "t": 13839.980000000001,
      "d": 86.97645833333263,
      "v": 121
    },
    {
      "midi": 38,
      "hit": false,
      "t": 14068.740000000002,
      "d": 55.998541666665915,
      "v": 109
    },
    {
      "midi": 38,
      "hit": false,
      "t": 14183.12,
      "d": 94.12520833333292,
      "v": 111
    },
    {
      "midi": 36,
      "hit": false,
      "t": 14297.5,
      "d": 84.59354166666708,
      "v": 111
    },
    {
      "midi": 33,
      "hit": false,
      "t": 14411.880000000001,
      "d": 65.53020833333358,
      "v": 121
    },
    {
      "midi": 31,
      "hit": false,
      "t": 14526.260000000002,
      "d": 58.381458333333285,
      "v": 127
    },
    {
      "midi": 36,
      "hit": false,
      "t": 14640.640000000001,
      "d": 84.59354166666708,
      "v": 127
    },
    {
      "midi": 38,
      "hit": false,
      "t": 14755.020000000002,
      "d": 101.27395833333321,
      "v": 108
    },
    {
      "midi": 38,
      "hit": false,
      "t": 14983.780000000002,
      "d": 67.91312499999913,
      "v": 117
    },
    {
      "midi": 26,
      "hit": false,
      "t": 15098.160000000002,
      "d": 249.0147916666665,
      "v": 127
    },
    {
      "midi": 36,
      "hit": false,
      "t": 15441.300000000001,
      "d": 82.21062499999971,
      "v": 127
    },
    {
      "midi": 38,
      "hit": false,
      "t": 15670.060000000001,
      "d": 89.359375,
      "v": 119
    },
    {
      "midi": 38,
      "hit": false,
      "t": 15898.820000000002,
      "d": 70.2960416666665,
      "v": 124
    },
    {
      "midi": 26,
      "hit": false,
      "t": 16013.2,
      "d": 263.3122916666671,
      "v": 127
    },
    {
      "midi": 36,
      "hit": false,
      "t": 16470.72,
      "d": 77.44479166666497,
      "v": 127
    },
    {
      "midi": 38,
      "hit": false,
      "t": 16585.1,
      "d": 84.59354166666526,
      "v": 117
    },
    {
      "midi": 38,
      "hit": false,
      "t": 16813.859999999997,
      "d": 67.91312499999913,
      "v": 115
    },
    {
      "midi": 26,
      "hit": false,
      "t": 16928.239999999994,
      "d": 229.951458333333,
      "v": 127
    },
    {
      "midi": 36,
      "hit": false,
      "t": 17271.379999999994,
      "d": 77.44479166666497,
      "v": 127
    },
    {
      "midi": 38,
      "hit": false,
      "t": 17500.139999999992,
      "d": 86.97645833333445,
      "v": 121
    },
    {
      "midi": 38,
      "hit": false,
      "t": 17728.899999999994,
      "d": 55.998541666667734,
      "v": 109
    },
    {
      "midi": 38,
      "hit": false,
      "t": 17843.279999999995,
      "d": 94.12520833333474,
      "v": 111
    },
    {
      "midi": 36,
      "hit": false,
      "t": 17957.659999999996,
      "d": 84.59354166666526,
      "v": 111
    },
    {
      "midi": 33,
      "hit": false,
      "t": 18072.039999999994,
      "d": 65.53020833333358,
      "v": 121
    },
    {
      "midi": 31,
      "hit": false,
      "t": 18186.419999999995,
      "d": 58.381458333333285,
      "v": 127
    },
    {
      "midi": 36,
      "hit": false,
      "t": 18300.799999999996,
      "d": 84.59354166666526,
      "v": 127
    },
    {
      "midi": 38,
      "hit": false,
      "t": 18415.179999999993,
      "d": 101.27395833333503,
      "v": 108
    },
    {
      "midi": 38,
      "hit": false,
      "t": 18643.939999999995,
      "d": 67.91312499999913,
      "v": 117
    },
    {
      "midi": 26,
      "hit": false,
      "t": 18758.319999999992,
      "d": 249.01479166666832,
      "v": 127
    },
    {
      "midi": 36,
      "hit": false,
      "t": 19101.459999999995,
      "d": 82.21062499999971,
      "v": 127
    },
    {
      "midi": 38,
      "hit": false,
      "t": 19330.219999999994,
      "d": 89.359375,
      "v": 119
    },
    {
      "midi": 38,
      "hit": false,
      "t": 19558.979999999992,
      "d": 70.29604166666832,
      "v": 124
    },
    {
      "midi": 26,
      "hit": false,
      "t": 19673.359999999993,
      "d": 263.31229166666526,
      "v": 127
    },
    {
      "midi": 36,
      "hit": false,
      "t": 20130.87999999999,
      "d": 77.44479166666497,
      "v": 127
    },
    {
      "midi": 38,
      "hit": false,
      "t": 20245.259999999987,
      "d": 84.59354166666526,
      "v": 117
    },
    {
      "midi": 38,
      "hit": false,
      "t": 20474.019999999986,
      "d": 67.91312499999913,
      "v": 115
    },
    {
      "midi": 26,
      "hit": false,
      "t": 20588.399999999983,
      "d": 229.951458333333,
      "v": 127
    },
    {
      "midi": 36,
      "hit": false,
      "t": 20931.539999999983,
      "d": 77.44479166666497,
      "v": 127
    },
    {
      "midi": 38,
      "hit": false,
      "t": 21160.29999999998,
      "d": 86.97645833333445,
      "v": 121
    },
    {
      "midi": 38,
      "hit": false,
      "t": 21389.059999999983,
      "d": 55.998541666667734,
      "v": 109
    },
    {
      "midi": 38,
      "hit": false,
      "t": 21503.439999999984,
      "d": 94.12520833333474,
      "v": 111
    },
    {
      "midi": 36,
      "hit": false,
      "t": 21617.819999999985,
      "d": 84.59354166666526,
      "v": 111
    },
    {
      "midi": 33,
      "hit": false,
      "t": 21732.199999999983,
      "d": 65.53020833333358,
      "v": 121
    },
    {
      "midi": 31,
      "hit": false,
      "t": 21846.579999999984,
      "d": 58.381458333333285,
      "v": 127
    },
    {
      "midi": 36,
      "hit": false,
      "t": 21960.959999999985,
      "d": 84.59354166666526,
      "v": 127
    },
    {
      "midi": 38,
      "hit": false,
      "t": 22075.339999999982,
      "d": 101.27395833333503,
      "v": 108
    },
    {
      "midi": 38,
      "hit": false,
      "t": 22304.099999999984,
      "d": 67.91312499999913,
      "v": 117
    },
    {
      "midi": 26,
      "hit": false,
      "t": 22418.47999999998,
      "d": 249.01479166666832,
      "v": 127
    },
    {
      "midi": 36,
      "hit": false,
      "t": 22761.619999999984,
      "d": 82.21062499999971,
      "v": 127
    },
    {
      "midi": 38,
      "hit": false,
      "t": 22990.379999999983,
      "d": 89.359375,
      "v": 119
    },
    {
      "midi": 38,
      "hit": false,
      "t": 23219.13999999998,
      "d": 70.29604166666832,
      "v": 124
    },
    {
      "midi": 26,
      "hit": false,
      "t": 23333.519999999982,
      "d": 263.31229166666526,
      "v": 127
    },
    {
      "midi": 36,
      "hit": false,
      "t": 23791.03999999998,
      "d": 77.44479166666497,
      "v": 127
    },
    {
      "midi": 38,
      "hit": false,
      "t": 23905.419999999976,
      "d": 84.59354166666526,
      "v": 117
    },
    {
      "midi": 38,
      "hit": false,
      "t": 24134.179999999975,
      "d": 67.91312499999913,
      "v": 115
    },
    {
      "midi": 26,
      "hit": false,
      "t": 24248.559999999972,
      "d": 229.951458333333,
      "v": 127
    },
    {
      "midi": 36,
      "hit": false,
      "t": 24591.69999999997,
      "d": 77.44479166666497,
      "v": 127
    },
    {
      "midi": 38,
      "hit": false,
      "t": 24820.45999999997,
      "d": 86.97645833333445,
      "v": 121
    },
    {
      "midi": 38,
      "hit": false,
      "t": 25049.219999999972,
      "d": 55.998541666667734,
      "v": 109
    },
    {
      "midi": 38,
      "hit": false,
      "t": 25163.599999999973,
      "d": 94.12520833333474,
      "v": 111
    },
    {
      "midi": 36,
      "hit": false,
      "t": 25277.979999999974,
      "d": 84.59354166666526,
      "v": 111
    },
    {
      "midi": 33,
      "hit": false,
      "t": 25392.35999999997,
      "d": 65.53020833333358,
      "v": 121
    },
    {
      "midi": 31,
      "hit": false,
      "t": 25506.739999999972,
      "d": 58.381458333333285,
      "v": 127
    },
    {
      "midi": 36,
      "hit": false,
      "t": 25621.119999999974,
      "d": 84.59354166666526,
      "v": 127
    },
    {
      "midi": 38,
      "hit": false,
      "t": 25735.49999999997,
      "d": 101.27395833333503,
      "v": 108
    },
    {
      "midi": 38,
      "hit": false,
      "t": 25964.259999999973,
      "d": 67.91312499999913,
      "v": 117
    },
    {
      "midi": 26,
      "hit": false,
      "t": 26078.63999999997,
      "d": 249.01479166666832,
      "v": 127
    },
    {
      "midi": 36,
      "hit": false,
      "t": 26421.779999999973,
      "d": 82.21062499999971,
      "v": 127
    },
    {
      "midi": 38,
      "hit": false,
      "t": 26650.53999999997,
      "d": 89.359375,
      "v": 119
    },
    {
      "midi": 38,
      "hit": false,
      "t": 26879.29999999997,
      "d": 70.29604166666832,
      "v": 124
    },
    {
      "midi": 26,
      "hit": false,
      "t": 26993.67999999997,
      "d": 263.31229166666526,
      "v": 127
    },
    {
      "midi": 36,
      "hit": false,
      "t": 27451.199999999968,
      "d": 77.44479166666497,
      "v": 127
    },
    {
      "midi": 38,
      "hit": false,
      "t": 27565.579999999965,
      "d": 84.59354166666526,
      "v": 117
    },
    {
      "midi": 38,
      "hit": false,
      "t": 27794.339999999964,
      "d": 67.91312499999913,
      "v": 115
    },
    {
      "midi": 26,
      "hit": false,
      "t": 27908.71999999996,
      "d": 229.951458333333,
      "v": 127
    },
    {
      "midi": 36,
      "hit": false,
      "t": 28251.85999999996,
      "d": 77.44479166666497,
      "v": 127
    },
    {
      "midi": 38,
      "hit": false,
      "t": 28480.61999999996,
      "d": 86.97645833333445,
      "v": 121
    },
    {
      "midi": 38,
      "hit": false,
      "t": 28709.37999999996,
      "d": 55.998541666667734,
      "v": 109
    },
    {
      "midi": 38,
      "hit": false,
      "t": 28823.759999999962,
      "d": 94.12520833333474,
      "v": 111
    },
    {
      "midi": 36,
      "hit": false,
      "t": 28938.139999999963,
      "d": 84.59354166666526,
      "v": 111
    },
    {
      "midi": 33,
      "hit": false,
      "t": 29052.51999999996,
      "d": 65.53020833333358,
      "v": 121
    },
    {
      "midi": 31,
      "hit": false,
      "t": 29166.89999999996,
      "d": 58.381458333333285,
      "v": 127
    },
    {
      "midi": 36,
      "hit": false,
      "t": 29281.279999999962,
      "d": 84.59354166666526,
      "v": 127
    },
    {
      "midi": 38,
      "hit": false,
      "t": 29395.65999999996,
      "d": 101.27395833333503,
      "v": 108
    },
    {
      "midi": 38,
      "hit": false,
      "t": 29624.419999999962,
      "d": 67.91312499999913,
      "v": 117
    },
    {
      "midi": 26,
      "hit": false,
      "t": 29738.79999999996,
      "d": 249.01479166666832,
      "v": 127
    },
    {
      "midi": 36,
      "hit": false,
      "t": 30081.939999999962,
      "d": 82.21062499999971,
      "v": 127
    },
    {
      "midi": 38,
      "hit": false,
      "t": 30310.69999999996,
      "d": 89.359375,
      "v": 119
    },
    {
      "midi": 38,
      "hit": false,
      "t": 30539.45999999996,
      "d": 70.29604166666832,
      "v": 124
    },
    {
      "midi": 26,
      "hit": false,
      "t": 30653.83999999996,
      "d": 263.31229166666526,
      "v": 127
    },
    {
      "midi": 36,
      "hit": false,
      "t": 31111.359999999957,
      "d": 77.44479166666497,
      "v": 127
    },
    {
      "midi": 38,
      "hit": false,
      "t": 31225.739999999954,
      "d": 84.59354166666526,
      "v": 117
    },
    {
      "midi": 38,
      "hit": false,
      "t": 31454.499999999953,
      "d": 67.91312499999913,
      "v": 115
    },
    {
      "midi": 26,
      "hit": false,
      "t": 31568.87999999995,
      "d": 229.951458333333,
      "v": 127
    },
    {
      "midi": 36,
      "hit": false,
      "t": 31912.01999999995,
      "d": 77.44479166666497,
      "v": 127
    },
    {
      "midi": 38,
      "hit": false,
      "t": 32140.779999999948,
      "d": 86.97645833333445,
      "v": 121
    },
    {
      "midi": 38,
      "hit": false,
      "t": 32369.53999999995,
      "d": 55.998541666667734,
      "v": 109
    },
    {
      "midi": 38,
      "hit": false,
      "t": 32483.91999999995,
      "d": 94.12520833333474,
      "v": 111
    },
    {
      "midi": 36,
      "hit": false,
      "t": 32598.299999999952,
      "d": 84.59354166666526,
      "v": 111
    },
    {
      "midi": 33,
      "hit": false,
      "t": 32712.67999999995,
      "d": 65.53020833332994,
      "v": 121
    },
    {
      "midi": 31,
      "hit": false,
      "t": 32827.05999999995,
      "d": 58.38145833333692,
      "v": 127
    },
    {
      "midi": 36,
      "hit": false,
      "t": 32941.43999999995,
      "d": 84.5935416666689,
      "v": 127
    },
    {
      "midi": 38,
      "hit": false,
      "t": 33055.819999999956,
      "d": 101.2739583333314,
      "v": 108
    },
    {
      "midi": 38,
      "hit": false,
      "t": 33284.57999999995,
      "d": 67.91312499999913,
      "v": 117
    },
    {
      "midi": 26,
      "hit": false,
      "t": 33398.95999999995,
      "d": 249.01479166666832,
      "v": 127
    },
    {
      "midi": 36,
      "hit": false,
      "t": 33742.09999999995,
      "d": 82.21062499999971,
      "v": 127
    },
    {
      "midi": 38,
      "hit": false,
      "t": 33970.85999999995,
      "d": 89.359375,
      "v": 119
    },
    {
      "midi": 38,
      "hit": false,
      "t": 34199.61999999995,
      "d": 70.29604166666832,
      "v": 124
    },
    {
      "midi": 26,
      "hit": false,
      "t": 34313.999999999956,
      "d": 263.3122916666689,
      "v": 127
    },
    {
      "midi": 36,
      "hit": false,
      "t": 34771.51999999996,
      "d": 77.4447916666686,
      "v": 127
    },
    {
      "midi": 38,
      "hit": false,
      "t": 34885.899999999965,
      "d": 84.5935416666689,
      "v": 117
    },
    {
      "midi": 38,
      "hit": false,
      "t": 35114.65999999997,
      "d": 67.91312499999913,
      "v": 115
    },
    {
      "midi": 26,
      "hit": false,
      "t": 35229.039999999964,
      "d": 229.95145833333663,
      "v": 127
    },
    {
      "midi": 36,
      "hit": false,
      "t": 35572.17999999997,
      "d": 77.4447916666686,
      "v": 127
    },
    {
      "midi": 38,
      "hit": false,
      "t": 35800.93999999997,
      "d": 86.97645833333081,
      "v": 121
    },
    {
      "midi": 38,
      "hit": false,
      "t": 36029.69999999997,
      "d": 55.998541666667734,
      "v": 109
    },
    {
      "midi": 38,
      "hit": false,
      "t": 36144.07999999997,
      "d": 94.1252083333311,
      "v": 111
    },
    {
      "midi": 36,
      "hit": false,
      "t": 36258.45999999997,
      "d": 84.5935416666689,
      "v": 111
    },
    {
      "midi": 33,
      "hit": false,
      "t": 36372.839999999975,
      "d": 65.53020833332994,
      "v": 121
    },
    {
      "midi": 31,
      "hit": false,
      "t": 36487.21999999997,
      "d": 58.38145833333692,
      "v": 127
    },
    {
      "midi": 36,
      "hit": false,
      "t": 36601.59999999998,
      "d": 84.5935416666689,
      "v": 127
    },
    {
      "midi": 38,
      "hit": false,
      "t": 36715.97999999998,
      "d": 101.2739583333314,
      "v": 108
    },
    {
      "midi": 38,
      "hit": false,
      "t": 36944.739999999976,
      "d": 67.91312499999913,
      "v": 117
    },
    {
      "midi": 26,
      "hit": false,
      "t": 37059.11999999997,
      "d": 249.01479166666832,
      "v": 127
    },
    {
      "midi": 36,
      "hit": false,
      "t": 37402.25999999997,
      "d": 82.21062499999971,
      "v": 127
    },
    {
      "midi": 38,
      "hit": false,
      "t": 37631.019999999975,
      "d": 89.359375,
      "v": 119
    },
    {
      "midi": 38,
      "hit": false,
      "t": 37859.77999999998,
      "d": 70.29604166666832,
      "v": 124
    },
    {
      "midi": 26,
      "hit": false,
      "t": 37974.15999999998,
      "d": 263.3122916666689,
      "v": 127
    },
    {
      "midi": 36,
      "hit": false,
      "t": 38431.679999999986,
      "d": 77.4447916666686,
      "v": 127
    },
    {
      "midi": 38,
      "hit": false,
      "t": 38546.05999999999,
      "d": 84.5935416666689,
      "v": 117
    },
    {
      "midi": 38,
      "hit": false,
      "t": 38774.81999999999,
      "d": 67.91312499999913,
      "v": 115
    },
    {
      "midi": 26,
      "hit": false,
      "t": 38889.19999999999,
      "d": 229.95145833333663,
      "v": 127
    },
    {
      "midi": 36,
      "hit": false,
      "t": 39232.34,
      "d": 77.4447916666686,
      "v": 127
    },
    {
      "midi": 38,
      "hit": false,
      "t": 39461.1,
      "d": 86.97645833333081,
      "v": 121
    },
    {
      "midi": 38,
      "hit": false,
      "t": 39689.85999999999,
      "d": 55.998541666667734,
      "v": 109
    },
    {
      "midi": 38,
      "hit": false,
      "t": 39804.24,
      "d": 94.1252083333311,
      "v": 111
    },
    {
      "midi": 36,
      "hit": false,
      "t": 39918.619999999995,
      "d": 84.5935416666689,
      "v": 111
    },
    {
      "midi": 33,
      "hit": false,
      "t": 40033,
      "d": 65.53020833332994,
      "v": 121
    },
    {
      "midi": 31,
      "hit": false,
      "t": 40147.38,
      "d": 58.38145833333692,
      "v": 127
    },
    {
      "midi": 31,
      "hit": false,
      "t": 40261.76,
      "d": 167.9956250000032,
      "v": 110
    },
    {
      "midi": 31,
      "hit": false,
      "t": 40490.520000000004,
      "d": 179.9102083333346,
      "v": 110
    },
    {
      "midi": 33,
      "hit": false,
      "t": 40719.280000000006,
      "d": 177.5272916666654,
      "v": 110
    },
    {
      "midi": 33,
      "hit": false,
      "t": 40948.04000000001,
      "d": 75.06187499999942,
      "v": 110
    },
    {
      "midi": 36,
      "hit": false,
      "t": 41062.420000000006,
      "d": 134.63479166666366,
      "v": 110
    },
    {
      "midi": 36,
      "hit": false,
      "t": 41291.18,
      "d": 70.29604166666832,
      "v": 110
    },
    {
      "midi": 38,
      "hit": false,
      "t": 41405.560000000005,
      "d": 177.5272916666654,
      "v": 110
    },
    {
      "midi": 41,
      "hit": false,
      "t": 41634.32000000001,
      "d": 453.9456250000003,
      "v": 110
    },
    {
      "midi": 31,
      "hit": false,
      "t": 42091.840000000004,
      "d": 144.16645833333314,
      "v": 110
    },
    {
      "midi": 31,
      "hit": false,
      "t": 42320.600000000006,
      "d": 187.05895833333489,
      "v": 110
    },
    {
      "midi": 33,
      "hit": false,
      "t": 42549.36000000001,
      "d": 160.8468750000029,
      "v": 110
    },
    {
      "midi": 33,
      "hit": false,
      "t": 42778.12000000001,
      "d": 89.359375,
      "v": 110
    },
    {
      "midi": 43,
      "hit": false,
      "t": 42892.50000000001,
      "d": 129.86895833333256,
      "v": 110
    },
    {
      "midi": 43,
      "hit": false,
      "t": 43121.26000000001,
      "d": 91.74229166666919,
      "v": 110
    },
    {
      "midi": 41,
      "hit": false,
      "t": 43235.640000000014,
      "d": 86.97645833333081,
      "v": 110
    },
    {
      "midi": 38,
      "hit": false,
      "t": 43350.02000000001,
      "d": 122.72020833333227,
      "v": 110
    },
    {
      "midi": 40,
      "hit": false,
      "t": 43464.40000000001,
      "d": 318.11937500000204,
      "v": 110
    },
    {
      "midi": 31,
      "hit": false,
      "t": 43807.54000000001,
      "d": 89.359375,
      "v": 110
    },
    {
      "midi": 31,
      "hit": false,
      "t": 43921.920000000006,
      "d": 167.9956250000032,
      "v": 110
    },
    {
      "midi": 31,
      "hit": false,
      "t": 44150.68000000001,
      "d": 179.9102083333346,
      "v": 110
    },
    {
      "midi": 33,
      "hit": false,
      "t": 44379.44000000001,
      "d": 177.5272916666654,
      "v": 110
    },
    {
      "midi": 33,
      "hit": false,
      "t": 44608.20000000001,
      "d": 75.06187499999942,
      "v": 110
    },
    {
      "midi": 36,
      "hit": false,
      "t": 44722.58000000001,
      "d": 134.63479166666366,
      "v": 110
    },
    {
      "midi": 36,
      "hit": false,
      "t": 44951.340000000004,
      "d": 70.29604166666832,
      "v": 110
    },
    {
      "midi": 38,
      "hit": false,
      "t": 45065.72000000001,
      "d": 177.5272916666654,
      "v": 110
    },
    {
      "midi": 41,
      "hit": false,
      "t": 45294.48000000001,
      "d": 453.9456250000003,
      "v": 110
    },
    {
      "midi": 31,
      "hit": false,
      "t": 45752.00000000001,
      "d": 144.16645833333314,
      "v": 110
    },
    {
      "midi": 31,
      "hit": false,
      "t": 45980.76000000001,
      "d": 187.05895833333489,
      "v": 110
    },
    {
      "midi": 33,
      "hit": false,
      "t": 46209.52000000001,
      "d": 160.8468750000029,
      "v": 110
    },
    {
      "midi": 33,
      "hit": false,
      "t": 46438.28000000001,
      "d": 89.359375,
      "v": 110
    },
    {
      "midi": 43,
      "hit": false,
      "t": 46552.66000000001,
      "d": 129.86895833333256,
      "v": 110
    },
    {
      "midi": 43,
      "hit": false,
      "t": 46781.42000000001,
      "d": 91.74229166666919,
      "v": 110
    },
    {
      "midi": 41,
      "hit": false,
      "t": 46895.80000000002,
      "d": 86.97645833333081,
      "v": 110
    },
    {
      "midi": 38,
      "hit": false,
      "t": 47010.180000000015,
      "d": 122.72020833333227,
      "v": 110
    },
    {
      "midi": 40,
      "hit": false,
      "t": 47124.56000000001,
      "d": 318.11937500000204,
      "v": 110
    },
    {
      "midi": 31,
      "hit": false,
      "t": 47467.70000000001,
      "d": 89.359375,
      "v": 110
    },
    {
      "midi": 31,
      "hit": false,
      "t": 47582.08000000001,
      "d": 167.9956250000032,
      "v": 110
    },
    {
      "midi": 31,
      "hit": false,
      "t": 47810.84000000001,
      "d": 179.9102083333346,
      "v": 110
    },
    {
      "midi": 33,
      "hit": false,
      "t": 48039.60000000001,
      "d": 177.5272916666654,
      "v": 110
    },
    {
      "midi": 33,
      "hit": false,
      "t": 48268.360000000015,
      "d": 75.06187499999942,
      "v": 110
    },
    {
      "midi": 36,
      "hit": false,
      "t": 48382.74000000001,
      "d": 134.63479166666366,
      "v": 110
    },
    {
      "midi": 36,
      "hit": false,
      "t": 48611.50000000001,
      "d": 70.29604166666832,
      "v": 110
    },
    {
      "midi": 38,
      "hit": false,
      "t": 48725.88000000001,
      "d": 177.5272916666654,
      "v": 110
    },
    {
      "midi": 41,
      "hit": false,
      "t": 48954.640000000014,
      "d": 453.9456250000003,
      "v": 110
    },
    {
      "midi": 31,
      "hit": false,
      "t": 49412.16000000001,
      "d": 144.16645833333314,
      "v": 110
    },
    {
      "midi": 31,
      "hit": false,
      "t": 49640.92000000001,
      "d": 187.05895833333489,
      "v": 110
    },
    {
      "midi": 33,
      "hit": false,
      "t": 49869.680000000015,
      "d": 160.8468750000029,
      "v": 110
    },
    {
      "midi": 33,
      "hit": false,
      "t": 50098.44000000002,
      "d": 89.359375,
      "v": 110
    },
    {
      "midi": 43,
      "hit": false,
      "t": 50212.820000000014,
      "d": 129.86895833333256,
      "v": 110
    },
    {
      "midi": 43,
      "hit": false,
      "t": 50441.580000000016,
      "d": 91.74229166666919,
      "v": 110
    },
    {
      "midi": 41,
      "hit": false,
      "t": 50555.96000000002,
      "d": 86.97645833333081,
      "v": 110
    },
    {
      "midi": 38,
      "hit": false,
      "t": 50670.34000000002,
      "d": 122.72020833333227,
      "v": 110
    },
    {
      "midi": 40,
      "hit": false,
      "t": 50784.720000000016,
      "d": 318.11937500000204,
      "v": 110
    },
    {
      "midi": 31,
      "hit": false,
      "t": 51127.860000000015,
      "d": 89.359375,
      "v": 110
    },
    {
      "midi": 31,
      "hit": false,
      "t": 51242.24000000001,
      "d": 167.9956250000032,
      "v": 110
    },
    {
      "midi": 31,
      "hit": false,
      "t": 51471.000000000015,
      "d": 179.9102083333346,
      "v": 110
    },
    {
      "midi": 33,
      "hit": false,
      "t": 51699.76000000002,
      "d": 177.5272916666654,
      "v": 110
    },
    {
      "midi": 33,
      "hit": false,
      "t": 51928.52000000002,
      "d": 75.06187499999942,
      "v": 110
    },
    {
      "midi": 36,
      "hit": false,
      "t": 52042.900000000016,
      "d": 134.63479166666366,
      "v": 110
    },
    {
      "midi": 36,
      "hit": false,
      "t": 52271.66000000001,
      "d": 70.29604166666832,
      "v": 110
    },
    {
      "midi": 38,
      "hit": false,
      "t": 52386.040000000015,
      "d": 177.5272916666654,
      "v": 110
    },
    {
      "midi": 41,
      "hit": false,
      "t": 52614.80000000002,
      "d": 453.9456250000003,
      "v": 110
    },
    {
      "midi": 28,
      "hit": false,
      "t": 53072.320000000014,
      "d": 1826.505624999998,
      "v": 110
    },
    {
      "midi": 26,
      "hit": false,
      "t": 54902.40000000001,
      "d": 3656.5856249999997,
      "v": 110
    },
    {
      "midi": 36,
      "hit": false,
      "t": 58562.560000000005,
      "d": 84.5935416666689,
      "v": 127
    },
    {
      "midi": 38,
      "hit": false,
      "t": 58676.94000000001,
      "d": 101.2739583333314,
      "v": 108
    },
    {
      "midi": 38,
      "hit": false,
      "t": 58905.700000000004,
      "d": 67.91312499999913,
      "v": 117
    },
    {
      "midi": 26,
      "hit": false,
      "t": 59020.08,
      "d": 249.01479166666832,
      "v": 127
    },
    {
      "midi": 36,
      "hit": false,
      "t": 59363.22,
      "d": 82.21062499999971,
      "v": 127
    },
    {
      "midi": 38,
      "hit": false,
      "t": 59591.98,
      "d": 89.359375,
      "v": 119
    },
    {
      "midi": 38,
      "hit": false,
      "t": 59820.740000000005,
      "d": 70.29604166666832,
      "v": 124
    },
    {
      "midi": 26,
      "hit": false,
      "t": 59935.12000000001,
      "d": 263.3122916666689,
      "v": 127
    },
    {
      "midi": 36,
      "hit": false,
      "t": 60392.640000000014,
      "d": 77.4447916666686,
      "v": 127
    },
    {
      "midi": 38,
      "hit": false,
      "t": 60507.02000000002,
      "d": 84.5935416666689,
      "v": 117
    },
    {
      "midi": 38,
      "hit": false,
      "t": 60735.78000000002,
      "d": 67.91312499999913,
      "v": 115
    },
    {
      "midi": 26,
      "hit": false,
      "t": 60850.16000000002,
      "d": 229.95145833333663,
      "v": 127
    },
    {
      "midi": 36,
      "hit": false,
      "t": 61193.300000000025,
      "d": 77.4447916666686,
      "v": 127
    },
    {
      "midi": 38,
      "hit": false,
      "t": 61422.06000000003,
      "d": 86.97645833333081,
      "v": 121
    },
    {
      "midi": 38,
      "hit": false,
      "t": 61650.82000000002,
      "d": 55.998541666667734,
      "v": 109
    },
    {
      "midi": 38,
      "hit": false,
      "t": 61765.200000000026,
      "d": 94.1252083333311,
      "v": 111
    },
    {
      "midi": 36,
      "hit": false,
      "t": 61879.58000000002,
      "d": 84.5935416666689,
      "v": 111
    },
    {
      "midi": 33,
      "hit": false,
      "t": 61993.96000000003,
      "d": 65.53020833332994,
      "v": 121
    },
    {
      "midi": 31,
      "hit": false,
      "t": 62108.340000000026,
      "d": 58.38145833333692,
      "v": 127
    },
    {
      "midi": 36,
      "hit": false,
      "t": 62222.72000000003,
      "d": 84.5935416666689,
      "v": 127
    },
    {
      "midi": 38,
      "hit": false,
      "t": 62337.100000000035,
      "d": 101.2739583333314,
      "v": 108
    },
    {
      "midi": 38,
      "hit": false,
      "t": 62565.86000000003,
      "d": 67.91312499999913,
      "v": 117
    },
    {
      "midi": 26,
      "hit": false,
      "t": 62680.24000000003,
      "d": 249.01479166666832,
      "v": 127
    },
    {
      "midi": 36,
      "hit": false,
      "t": 63023.38000000003,
      "d": 82.21062499999971,
      "v": 127
    },
    {
      "midi": 38,
      "hit": false,
      "t": 63252.14000000003,
      "d": 89.359375,
      "v": 119
    },
    {
      "midi": 38,
      "hit": false,
      "t": 63480.90000000003,
      "d": 70.29604166666832,
      "v": 124
    },
    {
      "midi": 26,
      "hit": false,
      "t": 63595.280000000035,
      "d": 263.3122916666689,
      "v": 127
    },
    {
      "midi": 36,
      "hit": false,
      "t": 64052.80000000004,
      "d": 77.4447916666686,
      "v": 127
    },
    {
      "midi": 38,
      "hit": false,
      "t": 64167.180000000044,
      "d": 84.5935416666689,
      "v": 117
    },
    {
      "midi": 38,
      "hit": false,
      "t": 64395.940000000046,
      "d": 67.91312499999913,
      "v": 115
    },
    {
      "midi": 26,
      "hit": false,
      "t": 64510.32000000004,
      "d": 229.95145833333663,
      "v": 127
    },
    {
      "midi": 36,
      "hit": false,
      "t": 64853.46000000005,
      "d": 77.4447916666686,
      "v": 127
    },
    {
      "midi": 38,
      "hit": false,
      "t": 65082.22000000005,
      "d": 86.97645833333081,
      "v": 121
    },
    {
      "midi": 38,
      "hit": false,
      "t": 65310.98000000005,
      "d": 55.998541666667734,
      "v": 109
    },
    {
      "midi": 38,
      "hit": false,
      "t": 65425.36000000005,
      "d": 94.1252083333311,
      "v": 111
    },
    {
      "midi": 36,
      "hit": false,
      "t": 65539.74000000005,
      "d": 84.59354166666162,
      "v": 111
    },
    {
      "midi": 33,
      "hit": false,
      "t": 65654.12000000004,
      "d": 65.53020833333721,
      "v": 121
    },
    {
      "midi": 31,
      "hit": false,
      "t": 65768.50000000004,
      "d": 58.38145833332965,
      "v": 127
    },
    {
      "midi": 36,
      "hit": false,
      "t": 65882.88000000003,
      "d": 84.59354166666162,
      "v": 127
    },
    {
      "midi": 38,
      "hit": false,
      "t": 65997.26000000002,
      "d": 101.2739583333314,
      "v": 108
    },
    {
      "midi": 38,
      "hit": false,
      "t": 66226.02000000002,
      "d": 67.9131250000064,
      "v": 117
    },
    {
      "midi": 26,
      "hit": false,
      "t": 66340.40000000002,
      "d": 249.01479166666104,
      "v": 127
    },
    {
      "midi": 36,
      "hit": false,
      "t": 66683.54000000002,
      "d": 82.21062500000698,
      "v": 127
    },
    {
      "midi": 38,
      "hit": false,
      "t": 66912.30000000003,
      "d": 89.359375,
      "v": 119
    },
    {
      "midi": 38,
      "hit": false,
      "t": 67141.06000000003,
      "d": 70.29604166666104,
      "v": 124
    },
    {
      "midi": 26,
      "hit": false,
      "t": 67255.44000000002,
      "d": 263.3122916666616,
      "v": 127
    },
    {
      "midi": 36,
      "hit": false,
      "t": 67712.96,
      "d": 77.4447916666686,
      "v": 127
    },
    {
      "midi": 38,
      "hit": false,
      "t": 67827.34000000001,
      "d": 84.59354166666162,
      "v": 117
    },
    {
      "midi": 38,
      "hit": false,
      "t": 68056.1,
      "d": 67.9131250000064,
      "v": 115
    },
    {
      "midi": 26,
      "hit": false,
      "t": 68170.48000000001,
      "d": 229.95145833333663,
      "v": 127
    },
    {
      "midi": 36,
      "hit": false,
      "t": 68513.62000000001,
      "d": 77.4447916666686,
      "v": 127
    },
    {
      "midi": 38,
      "hit": false,
      "t": 68742.38,
      "d": 86.97645833333081,
      "v": 121
    },
    {
      "midi": 38,
      "hit": false,
      "t": 68971.14,
      "d": 55.99854166666046,
      "v": 109
    },
    {
      "midi": 38,
      "hit": false,
      "t": 69085.51999999999,
      "d": 94.12520833333838,
      "v": 111
    },
    {
      "midi": 36,
      "hit": false,
      "t": 69199.9,
      "d": 84.59354166666162,
      "v": 111
    },
    {
      "midi": 33,
      "hit": false,
      "t": 69314.27999999998,
      "d": 65.53020833333721,
      "v": 121
    },
    {
      "midi": 31,
      "hit": false,
      "t": 69428.65999999999,
      "d": 58.38145833332965,
      "v": 127
    },
    {
      "midi": 36,
      "hit": false,
      "t": 69543.03999999998,
      "d": 84.59354166666162,
      "v": 127
    },
    {
      "midi": 38,
      "hit": false,
      "t": 69657.41999999997,
      "d": 101.2739583333314,
      "v": 108
    },
    {
      "midi": 38,
      "hit": false,
      "t": 69886.17999999996,
      "d": 67.9131250000064,
      "v": 117
    },
    {
      "midi": 26,
      "hit": false,
      "t": 70000.55999999997,
      "d": 249.01479166666104,
      "v": 127
    },
    {
      "midi": 36,
      "hit": false,
      "t": 70343.69999999997,
      "d": 82.21062500000698,
      "v": 127
    },
    {
      "midi": 38,
      "hit": false,
      "t": 70572.45999999998,
      "d": 89.359375,
      "v": 119
    },
    {
      "midi": 38,
      "hit": false,
      "t": 70801.21999999997,
      "d": 70.29604166666104,
      "v": 124
    },
    {
      "midi": 26,
      "hit": false,
      "t": 70915.59999999996,
      "d": 263.3122916666616,
      "v": 127
    },
    {
      "midi": 36,
      "hit": false,
      "t": 71373.11999999995,
      "d": 77.4447916666686,
      "v": 127
    },
    {
      "midi": 38,
      "hit": false,
      "t": 71487.49999999996,
      "d": 84.59354166666162,
      "v": 117
    },
    {
      "midi": 38,
      "hit": false,
      "t": 71716.25999999995,
      "d": 67.9131250000064,
      "v": 115
    },
    {
      "midi": 26,
      "hit": false,
      "t": 71830.63999999996,
      "d": 229.95145833333663,
      "v": 127
    },
    {
      "midi": 36,
      "hit": false,
      "t": 72173.77999999996,
      "d": 77.4447916666686,
      "v": 127
    },
    {
      "midi": 38,
      "hit": false,
      "t": 72402.53999999995,
      "d": 86.97645833333081,
      "v": 121
    },
    {
      "midi": 38,
      "hit": false,
      "t": 72631.29999999994,
      "d": 55.99854166666046,
      "v": 109
    },
    {
      "midi": 38,
      "hit": false,
      "t": 72745.67999999993,
      "d": 94.12520833333838,
      "v": 111
    },
    {
      "midi": 36,
      "hit": false,
      "t": 72860.05999999994,
      "d": 84.59354166666162,
      "v": 111
    },
    {
      "midi": 33,
      "hit": false,
      "t": 72974.43999999993,
      "d": 65.53020833333721,
      "v": 121
    },
    {
      "midi": 31,
      "hit": false,
      "t": 73088.81999999993,
      "d": 58.38145833332965,
      "v": 127
    },
    {
      "midi": 36,
      "hit": false,
      "t": 73203.19999999992,
      "d": 84.59354166666162,
      "v": 127
    },
    {
      "midi": 38,
      "hit": false,
      "t": 73317.57999999991,
      "d": 101.2739583333314,
      "v": 108
    },
    {
      "midi": 38,
      "hit": false,
      "t": 73546.33999999991,
      "d": 67.9131250000064,
      "v": 117
    },
    {
      "midi": 26,
      "hit": false,
      "t": 73660.71999999991,
      "d": 249.01479166666104,
      "v": 127
    },
    {
      "midi": 36,
      "hit": false,
      "t": 74003.85999999991,
      "d": 82.21062500000698,
      "v": 127
    },
    {
      "midi": 38,
      "hit": false,
      "t": 74232.61999999992,
      "d": 89.359375,
      "v": 119
    },
    {
      "midi": 38,
      "hit": false,
      "t": 74461.37999999992,
      "d": 70.29604166666104,
      "v": 124
    },
    {
      "midi": 26,
      "hit": false,
      "t": 74575.75999999991,
      "d": 263.3122916666616,
      "v": 127
    },
    {
      "midi": 36,
      "hit": false,
      "t": 75033.2799999999,
      "d": 77.4447916666686,
      "v": 127
    },
    {
      "midi": 38,
      "hit": false,
      "t": 75147.6599999999,
      "d": 84.59354166666162,
      "v": 117
    },
    {
      "midi": 38,
      "hit": false,
      "t": 75376.4199999999,
      "d": 67.9131250000064,
      "v": 115
    },
    {
      "midi": 26,
      "hit": false,
      "t": 75490.7999999999,
      "d": 229.95145833333663,
      "v": 127
    },
    {
      "midi": 36,
      "hit": false,
      "t": 75833.9399999999,
      "d": 77.4447916666686,
      "v": 127
    },
    {
      "midi": 38,
      "hit": false,
      "t": 76062.6999999999,
      "d": 86.97645833333081,
      "v": 121
    },
    {
      "midi": 38,
      "hit": false,
      "t": 76291.45999999989,
      "d": 55.99854166666046,
      "v": 109
    },
    {
      "midi": 38,
      "hit": false,
      "t": 76405.83999999988,
      "d": 94.12520833333838,
      "v": 111
    },
    {
      "midi": 36,
      "hit": false,
      "t": 76520.21999999988,
      "d": 84.59354166666162,
      "v": 111
    },
    {
      "midi": 33,
      "hit": false,
      "t": 76634.59999999987,
      "d": 65.53020833333721,
      "v": 121
    },
    {
      "midi": 31,
      "hit": false,
      "t": 76748.97999999988,
      "d": 58.38145833332965,
      "v": 127
    },
    {
      "midi": 36,
      "hit": false,
      "t": 76863.35999999987,
      "d": 84.59354166666162,
      "v": 127
    },
    {
      "midi": 38,
      "hit": false,
      "t": 76977.73999999986,
      "d": 101.2739583333314,
      "v": 108
    },
    {
      "midi": 38,
      "hit": false,
      "t": 77206.49999999985,
      "d": 67.9131250000064,
      "v": 117
    },
    {
      "midi": 26,
      "hit": false,
      "t": 77320.87999999986,
      "d": 249.01479166666104,
      "v": 127
    },
    {
      "midi": 36,
      "hit": false,
      "t": 77664.01999999986,
      "d": 82.21062500000698,
      "v": 127
    },
    {
      "midi": 38,
      "hit": false,
      "t": 77892.77999999987,
      "d": 89.359375,
      "v": 119
    },
    {
      "midi": 38,
      "hit": false,
      "t": 78121.53999999986,
      "d": 70.29604166666104,
      "v": 124
    },
    {
      "midi": 26,
      "hit": false,
      "t": 78235.91999999985,
      "d": 263.3122916666616,
      "v": 127
    },
    {
      "midi": 36,
      "hit": false,
      "t": 78693.43999999984,
      "d": 77.4447916666686,
      "v": 127
    },
    {
      "midi": 38,
      "hit": false,
      "t": 78807.81999999985,
      "d": 84.59354166666162,
      "v": 117
    },
    {
      "midi": 38,
      "hit": false,
      "t": 79036.57999999984,
      "d": 67.9131250000064,
      "v": 115
    },
    {
      "midi": 26,
      "hit": false,
      "t": 79150.95999999985,
      "d": 229.95145833333663,
      "v": 127
    },
    {
      "midi": 36,
      "hit": false,
      "t": 79494.09999999985,
      "d": 77.4447916666686,
      "v": 127
    },
    {
      "midi": 38,
      "hit": false,
      "t": 79722.85999999984,
      "d": 86.97645833333081,
      "v": 121
    },
    {
      "midi": 38,
      "hit": false,
      "t": 79951.61999999984,
      "d": 55.99854166666046,
      "v": 109
    },
    {
      "midi": 38,
      "hit": false,
      "t": 80065.99999999983,
      "d": 94.12520833333838,
      "v": 111
    },
    {
      "midi": 36,
      "hit": false,
      "t": 80180.37999999983,
      "d": 84.59354166666162,
      "v": 111
    },
    {
      "midi": 33,
      "hit": false,
      "t": 80294.75999999982,
      "d": 65.53020833333721,
      "v": 121
    },
    {
      "midi": 31,
      "hit": false,
      "t": 80409.13999999982,
      "d": 58.38145833332965,
      "v": 127
    },
    {
      "midi": 36,
      "hit": false,
      "t": 80523.51999999981,
      "d": 84.59354166666162,
      "v": 127
    },
    {
      "midi": 38,
      "hit": false,
      "t": 80637.8999999998,
      "d": 101.2739583333314,
      "v": 108
    },
    {
      "midi": 38,
      "hit": false,
      "t": 80866.6599999998,
      "d": 67.9131250000064,
      "v": 117
    },
    {
      "midi": 26,
      "hit": false,
      "t": 80981.0399999998,
      "d": 249.01479166666104,
      "v": 127
    },
    {
      "midi": 36,
      "hit": false,
      "t": 81324.1799999998,
      "d": 82.21062500000698,
      "v": 127
    },
    {
      "midi": 38,
      "hit": false,
      "t": 81552.93999999981,
      "d": 89.359375,
      "v": 119
    },
    {
      "midi": 38,
      "hit": false,
      "t": 81781.69999999981,
      "d": 70.29604166666104,
      "v": 124
    },
    {
      "midi": 26,
      "hit": false,
      "t": 81896.0799999998,
      "d": 263.3122916666616,
      "v": 127
    },
    {
      "midi": 36,
      "hit": false,
      "t": 82353.59999999979,
      "d": 77.4447916666686,
      "v": 127
    },
    {
      "midi": 38,
      "hit": false,
      "t": 82467.97999999979,
      "d": 84.59354166666162,
      "v": 117
    },
    {
      "midi": 38,
      "hit": false,
      "t": 82696.73999999979,
      "d": 67.9131250000064,
      "v": 115
    },
    {
      "midi": 26,
      "hit": false,
      "t": 82811.11999999979,
      "d": 229.95145833333663,
      "v": 127
    },
    {
      "midi": 36,
      "hit": false,
      "t": 83154.25999999979,
      "d": 77.4447916666686,
      "v": 127
    },
    {
      "midi": 38,
      "hit": false,
      "t": 83383.01999999979,
      "d": 86.97645833333081,
      "v": 121
    },
    {
      "midi": 38,
      "hit": false,
      "t": 83611.77999999978,
      "d": 55.99854166666046,
      "v": 109
    },
    {
      "midi": 38,
      "hit": false,
      "t": 83726.15999999977,
      "d": 94.12520833333838,
      "v": 111
    },
    {
      "midi": 36,
      "hit": false,
      "t": 83840.53999999978,
      "d": 84.59354166666162,
      "v": 111
    },
    {
      "midi": 33,
      "hit": false,
      "t": 83954.91999999977,
      "d": 65.53020833333721,
      "v": 121
    },
    {
      "midi": 31,
      "hit": false,
      "t": 84069.29999999977,
      "d": 58.38145833332965,
      "v": 127
    },
    {
      "midi": 36,
      "hit": false,
      "t": 84183.67999999976,
      "d": 84.59354166666162,
      "v": 127
    },
    {
      "midi": 38,
      "hit": false,
      "t": 84298.05999999975,
      "d": 101.2739583333314,
      "v": 108
    },
    {
      "midi": 38,
      "hit": false,
      "t": 84526.81999999975,
      "d": 67.9131250000064,
      "v": 117
    },
    {
      "midi": 26,
      "hit": false,
      "t": 84641.19999999975,
      "d": 249.01479166666104,
      "v": 127
    },
    {
      "midi": 36,
      "hit": false,
      "t": 84984.33999999975,
      "d": 82.21062500000698,
      "v": 127
    },
    {
      "midi": 38,
      "hit": false,
      "t": 85213.09999999976,
      "d": 89.359375,
      "v": 119
    },
    {
      "midi": 38,
      "hit": false,
      "t": 85441.85999999975,
      "d": 70.29604166666104,
      "v": 124
    },
    {
      "midi": 26,
      "hit": false,
      "t": 85556.23999999974,
      "d": 263.3122916666616,
      "v": 127
    },
    {
      "midi": 36,
      "hit": false,
      "t": 86013.75999999973,
      "d": 77.4447916666686,
      "v": 127
    },
    {
      "midi": 38,
      "hit": false,
      "t": 86128.13999999974,
      "d": 84.59354166666162,
      "v": 117
    },
    {
      "midi": 38,
      "hit": false,
      "t": 86356.89999999973,
      "d": 67.9131250000064,
      "v": 115
    },
    {
      "midi": 26,
      "hit": false,
      "t": 86471.27999999974,
      "d": 229.95145833333663,
      "v": 127
    },
    {
      "midi": 36,
      "hit": false,
      "t": 86814.41999999974,
      "d": 77.4447916666686,
      "v": 127
    },
    {
      "midi": 38,
      "hit": false,
      "t": 87043.17999999973,
      "d": 86.97645833333081,
      "v": 121
    },
    {
      "midi": 38,
      "hit": false,
      "t": 87271.93999999973,
      "d": 55.99854166666046,
      "v": 109
    },
    {
      "midi": 38,
      "hit": false,
      "t": 87386.31999999972,
      "d": 94.12520833333838,
      "v": 111
    },
    {
      "midi": 36,
      "hit": false,
      "t": 87500.69999999972,
      "d": 84.59354166666162,
      "v": 111
    },
    {
      "midi": 33,
      "hit": false,
      "t": 87615.07999999971,
      "d": 65.53020833333721,
      "v": 121
    },
    {
      "midi": 31,
      "hit": false,
      "t": 87729.45999999972,
      "d": 58.38145833332965,
      "v": 127
    },
    {
      "midi": 36,
      "hit": false,
      "t": 87843.8399999997,
      "d": 84.59354166666162,
      "v": 127
    },
    {
      "midi": 38,
      "hit": false,
      "t": 87958.2199999997,
      "d": 101.2739583333314,
      "v": 108
    },
    {
      "midi": 38,
      "hit": false,
      "t": 88186.97999999969,
      "d": 67.9131250000064,
      "v": 117
    },
    {
      "midi": 26,
      "hit": false,
      "t": 88301.3599999997,
      "d": 249.01479166666104,
      "v": 127
    },
    {
      "midi": 36,
      "hit": false,
      "t": 88644.4999999997,
      "d": 82.21062500000698,
      "v": 127
    },
    {
      "midi": 38,
      "hit": false,
      "t": 88873.2599999997,
      "d": 89.359375,
      "v": 119
    },
    {
      "midi": 38,
      "hit": false,
      "t": 89102.0199999997,
      "d": 70.29604166666104,
      "v": 124
    },
    {
      "midi": 26,
      "hit": false,
      "t": 89216.39999999969,
      "d": 263.3122916666616,
      "v": 127
    },
    {
      "midi": 36,
      "hit": false,
      "t": 89673.91999999968,
      "d": 77.4447916666686,
      "v": 127
    },
    {
      "midi": 38,
      "hit": false,
      "t": 89788.29999999968,
      "d": 84.59354166666162,
      "v": 117
    },
    {
      "midi": 38,
      "hit": false,
      "t": 90017.05999999968,
      "d": 67.9131250000064,
      "v": 115
    },
    {
      "midi": 26,
      "hit": false,
      "t": 90131.43999999968,
      "d": 229.95145833333663,
      "v": 127
    },
    {
      "midi": 36,
      "hit": false,
      "t": 90474.57999999968,
      "d": 77.4447916666686,
      "v": 127
    },
    {
      "midi": 38,
      "hit": false,
      "t": 90703.33999999968,
      "d": 86.97645833333081,
      "v": 121
    },
    {
      "midi": 38,
      "hit": false,
      "t": 90932.09999999967,
      "d": 55.99854166666046,
      "v": 109
    },
    {
      "midi": 38,
      "hit": false,
      "t": 91046.47999999966,
      "d": 94.12520833333838,
      "v": 111
    },
    {
      "midi": 36,
      "hit": false,
      "t": 91160.85999999967,
      "d": 84.59354166666162,
      "v": 111
    },
    {
      "midi": 33,
      "hit": false,
      "t": 91275.23999999966,
      "d": 65.53020833333721,
      "v": 121
    },
    {
      "midi": 31,
      "hit": false,
      "t": 91389.61999999966,
      "d": 58.38145833332965,
      "v": 127
    },
    {
      "midi": 36,
      "hit": false,
      "t": 91503.99999999965,
      "d": 84.59354166666162,
      "v": 127
    },
    {
      "midi": 38,
      "hit": false,
      "t": 91618.37999999964,
      "d": 101.2739583333314,
      "v": 108
    },
    {
      "midi": 38,
      "hit": false,
      "t": 91847.13999999964,
      "d": 67.9131250000064,
      "v": 117
    },
    {
      "midi": 26,
      "hit": false,
      "t": 91961.51999999964,
      "d": 249.01479166666104,
      "v": 127
    },
    {
      "midi": 36,
      "hit": false,
      "t": 92304.65999999964,
      "d": 82.21062500000698,
      "v": 127
    },
    {
      "midi": 38,
      "hit": false,
      "t": 92533.41999999965,
      "d": 89.359375,
      "v": 119
    },
    {
      "midi": 38,
      "hit": false,
      "t": 92762.17999999964,
      "d": 70.29604166666104,
      "v": 124
    },
    {
      "midi": 26,
      "hit": false,
      "t": 92876.55999999963,
      "d": 263.3122916666616,
      "v": 127
    },
    {
      "midi": 36,
      "hit": false,
      "t": 93334.07999999962,
      "d": 77.4447916666686,
      "v": 127
    },
    {
      "midi": 38,
      "hit": false,
      "t": 93448.45999999963,
      "d": 84.59354166666162,
      "v": 117
    },
    {
      "midi": 38,
      "hit": false,
      "t": 93677.21999999962,
      "d": 67.9131250000064,
      "v": 115
    },
    {
      "midi": 26,
      "hit": false,
      "t": 93791.59999999963,
      "d": 229.95145833333663,
      "v": 127
    },
    {
      "midi": 36,
      "hit": false,
      "t": 94134.73999999963,
      "d": 77.4447916666686,
      "v": 127
    },
    {
      "midi": 38,
      "hit": false,
      "t": 94363.49999999962,
      "d": 86.97645833333081,
      "v": 121
    },
    {
      "midi": 38,
      "hit": false,
      "t": 94592.25999999962,
      "d": 55.99854166666046,
      "v": 109
    },
    {
      "midi": 38,
      "hit": false,
      "t": 94706.6399999996,
      "d": 94.12520833333838,
      "v": 111
    },
    {
      "midi": 36,
      "hit": false,
      "t": 94821.01999999961,
      "d": 84.59354166666162,
      "v": 111
    },
    {
      "midi": 33,
      "hit": false,
      "t": 94935.3999999996,
      "d": 65.53020833333721,
      "v": 121
    },
    {
      "midi": 31,
      "hit": false,
      "t": 95049.7799999996,
      "d": 58.38145833332965,
      "v": 127
    },
    {
      "midi": 31,
      "hit": false,
      "t": 95164.1599999996,
      "d": 167.99562499999593,
      "v": 110
    },
    {
      "midi": 31,
      "hit": false,
      "t": 95392.91999999959,
      "d": 179.91020833332732,
      "v": 110
    },
    {
      "midi": 33,
      "hit": false,
      "t": 95621.67999999959,
      "d": 177.52729166667268,
      "v": 110
    },
    {
      "midi": 33,
      "hit": false,
      "t": 95850.4399999996,
      "d": 75.06187499999942,
      "v": 110
    },
    {
      "midi": 36,
      "hit": false,
      "t": 95964.8199999996,
      "d": 134.63479166667094,
      "v": 110
    },
    {
      "midi": 36,
      "hit": false,
      "t": 96193.57999999961,
      "d": 70.29604166666104,
      "v": 110
    },
    {
      "midi": 38,
      "hit": false,
      "t": 96307.9599999996,
      "d": 177.52729166667268,
      "v": 110
    },
    {
      "midi": 41,
      "hit": false,
      "t": 96536.71999999961,
      "d": 453.945624999993,
      "v": 110
    },
    {
      "midi": 31,
      "hit": false,
      "t": 96994.2399999996,
      "d": 144.16645833333314,
      "v": 110
    },
    {
      "midi": 31,
      "hit": false,
      "t": 97222.99999999959,
      "d": 187.05895833333489,
      "v": 110
    },
    {
      "midi": 33,
      "hit": false,
      "t": 97451.75999999959,
      "d": 160.8468750000029,
      "v": 110
    },
    {
      "midi": 33,
      "hit": false,
      "t": 97680.5199999996,
      "d": 89.359375,
      "v": 110
    },
    {
      "midi": 43,
      "hit": false,
      "t": 97794.8999999996,
      "d": 129.86895833333256,
      "v": 110
    },
    {
      "midi": 43,
      "hit": false,
      "t": 98023.6599999996,
      "d": 91.74229166666919,
      "v": 110
    },
    {
      "midi": 41,
      "hit": false,
      "t": 98138.0399999996,
      "d": 86.97645833333081,
      "v": 110
    },
    {
      "midi": 38,
      "hit": false,
      "t": 98252.4199999996,
      "d": 122.72020833333954,
      "v": 110
    },
    {
      "midi": 40,
      "hit": false,
      "t": 98366.79999999961,
      "d": 318.11937499999476,
      "v": 110
    },
    {
      "midi": 31,
      "hit": false,
      "t": 98709.93999999961,
      "d": 89.359375,
      "v": 110
    },
    {
      "midi": 31,
      "hit": false,
      "t": 98824.31999999961,
      "d": 167.99562499999593,
      "v": 110
    },
    {
      "midi": 31,
      "hit": false,
      "t": 99053.07999999961,
      "d": 179.91020833332732,
      "v": 110
    },
    {
      "midi": 33,
      "hit": false,
      "t": 99281.8399999996,
      "d": 177.52729166667268,
      "v": 110
    },
    {
      "midi": 33,
      "hit": false,
      "t": 99510.59999999961,
      "d": 75.06187499999942,
      "v": 110
    },
    {
      "midi": 36,
      "hit": false,
      "t": 99624.97999999962,
      "d": 134.63479166667094,
      "v": 110
    },
    {
      "midi": 36,
      "hit": false,
      "t": 99853.73999999963,
      "d": 70.29604166666104,
      "v": 110
    },
    {
      "midi": 38,
      "hit": false,
      "t": 99968.11999999962,
      "d": 177.52729166667268,
      "v": 110
    },
    {
      "midi": 41,
      "hit": false,
      "t": 100196.87999999963,
      "d": 453.945624999993,
      "v": 110
    },
    {
      "midi": 31,
      "hit": false,
      "t": 100654.39999999962,
      "d": 144.16645833333314,
      "v": 110
    },
    {
      "midi": 31,
      "hit": false,
      "t": 100883.15999999961,
      "d": 187.05895833333489,
      "v": 110
    },
    {
      "midi": 33,
      "hit": false,
      "t": 101111.9199999996,
      "d": 160.8468750000029,
      "v": 110
    },
    {
      "midi": 33,
      "hit": false,
      "t": 101340.67999999961,
      "d": 89.359375,
      "v": 110
    },
    {
      "midi": 43,
      "hit": false,
      "t": 101455.05999999962,
      "d": 129.86895833333256,
      "v": 110
    },
    {
      "midi": 43,
      "hit": false,
      "t": 101683.81999999961,
      "d": 91.74229166666919,
      "v": 110
    },
    {
      "midi": 41,
      "hit": false,
      "t": 101798.19999999962,
      "d": 86.97645833333081,
      "v": 110
    },
    {
      "midi": 38,
      "hit": false,
      "t": 101912.57999999962,
      "d": 122.72020833333954,
      "v": 110
    },
    {
      "midi": 40,
      "hit": false,
      "t": 102026.95999999963,
      "d": 318.11937499999476,
      "v": 110
    },
    {
      "midi": 31,
      "hit": false,
      "t": 102370.09999999963,
      "d": 89.359375,
      "v": 110
    },
    {
      "midi": 31,
      "hit": false,
      "t": 102484.47999999963,
      "d": 167.99562499999593,
      "v": 110
    },
    {
      "midi": 31,
      "hit": false,
      "t": 102713.23999999963,
      "d": 179.91020833332732,
      "v": 110
    },
    {
      "midi": 33,
      "hit": false,
      "t": 102941.99999999962,
      "d": 177.52729166667268,
      "v": 110
    },
    {
      "midi": 33,
      "hit": false,
      "t": 103170.75999999963,
      "d": 75.06187499999942,
      "v": 110
    },
    {
      "midi": 36,
      "hit": false,
      "t": 103285.13999999964,
      "d": 134.63479166667094,
      "v": 110
    },
    {
      "midi": 36,
      "hit": false,
      "t": 103513.89999999964,
      "d": 70.29604166666104,
      "v": 110
    },
    {
      "midi": 38,
      "hit": false,
      "t": 103628.27999999964,
      "d": 177.52729166667268,
      "v": 110
    },
    {
      "midi": 41,
      "hit": false,
      "t": 103857.03999999964,
      "d": 453.945624999993,
      "v": 110
    },
    {
      "midi": 31,
      "hit": false,
      "t": 104314.55999999963,
      "d": 144.16645833333314,
      "v": 110
    },
    {
      "midi": 31,
      "hit": false,
      "t": 104543.31999999963,
      "d": 187.05895833333489,
      "v": 110
    },
    {
      "midi": 33,
      "hit": false,
      "t": 104772.07999999962,
      "d": 160.8468750000029,
      "v": 110
    },
    {
      "midi": 33,
      "hit": false,
      "t": 105000.83999999963,
      "d": 89.359375,
      "v": 110
    },
    {
      "midi": 43,
      "hit": false,
      "t": 105115.21999999964,
      "d": 129.86895833333256,
      "v": 110
    },
    {
      "midi": 43,
      "hit": false,
      "t": 105343.97999999963,
      "d": 91.74229166666919,
      "v": 110
    },
    {
      "midi": 41,
      "hit": false,
      "t": 105458.35999999964,
      "d": 86.97645833333081,
      "v": 110
    },
    {
      "midi": 38,
      "hit": false,
      "t": 105572.73999999964,
      "d": 122.72020833333954,
      "v": 110
    },
    {
      "midi": 40,
      "hit": false,
      "t": 105687.11999999965,
      "d": 318.11937499999476,
      "v": 110
    },
    {
      "midi": 31,
      "hit": false,
      "t": 106030.25999999965,
      "d": 89.359375,
      "v": 110
    },
    {
      "midi": 31,
      "hit": false,
      "t": 106144.63999999965,
      "d": 167.99562499999593,
      "v": 110
    },
    {
      "midi": 31,
      "hit": false,
      "t": 106373.39999999964,
      "d": 179.91020833332732,
      "v": 110
    },
    {
      "midi": 33,
      "hit": false,
      "t": 106602.15999999964,
      "d": 177.52729166667268,
      "v": 110
    },
    {
      "midi": 33,
      "hit": false,
      "t": 106830.91999999965,
      "d": 75.06187499999942,
      "v": 110
    },
    {
      "midi": 36,
      "hit": false,
      "t": 106945.29999999965,
      "d": 134.63479166667094,
      "v": 110
    },
    {
      "midi": 36,
      "hit": false,
      "t": 107174.05999999966,
      "d": 70.29604166666104,
      "v": 110
    },
    {
      "midi": 38,
      "hit": false,
      "t": 107288.43999999965,
      "d": 177.52729166667268,
      "v": 110
    },
    {
      "midi": 41,
      "hit": false,
      "t": 107517.19999999966,
      "d": 453.945624999993,
      "v": 110
    },
    {
      "midi": 38,
      "hit": false,
      "t": 109804.79999999965,
      "d": 6163.413958333331,
      "v": 127
    },
    {
      "midi": 57,
      "hit": false,
      "t": 109804.79999999965,
      "d": 6175.328541666662,
      "v": 127
    },
    {
      "midi": 53,
      "hit": false,
      "t": 109804.79999999965,
      "d": 6192.008958333332,
      "v": 127
    },
    {
      "midi": 62,
      "hit": false,
      "t": 109804.79999999965,
      "d": 6194.391875000001,
      "v": 127
    },
    {
      "midi": 36,
      "hit": false,
      "t": 117125.11999999966,
      "d": 84.59354166666162,
      "v": 127
    },
    {
      "midi": 38,
      "hit": false,
      "t": 117239.49999999965,
      "d": 101.2739583333314,
      "v": 108
    },
    {
      "midi": 38,
      "hit": false,
      "t": 117468.25999999965,
      "d": 67.9131250000064,
      "v": 117
    },
    {
      "midi": 26,
      "hit": false,
      "t": 117582.63999999965,
      "d": 249.01479166666104,
      "v": 127
    },
    {
      "midi": 36,
      "hit": false,
      "t": 117925.77999999965,
      "d": 82.21062500000698,
      "v": 127
    },
    {
      "midi": 38,
      "hit": false,
      "t": 118154.53999999966,
      "d": 89.359375,
      "v": 119
    },
    {
      "midi": 38,
      "hit": false,
      "t": 118383.29999999965,
      "d": 70.29604166666104,
      "v": 124
    },
    {
      "midi": 26,
      "hit": false,
      "t": 118497.67999999964,
      "d": 263.3122916666616,
      "v": 127
    },
    {
      "midi": 36,
      "hit": false,
      "t": 118955.19999999963,
      "d": 77.4447916666686,
      "v": 127
    },
    {
      "midi": 38,
      "hit": false,
      "t": 119069.57999999964,
      "d": 84.59354166666162,
      "v": 117
    },
    {
      "midi": 38,
      "hit": false,
      "t": 119298.33999999963,
      "d": 67.9131250000064,
      "v": 115
    },
    {
      "midi": 26,
      "hit": false,
      "t": 119412.71999999964,
      "d": 229.95145833333663,
      "v": 127
    },
    {
      "midi": 36,
      "hit": false,
      "t": 119755.85999999964,
      "d": 77.4447916666686,
      "v": 127
    },
    {
      "midi": 38,
      "hit": false,
      "t": 119984.61999999963,
      "d": 86.97645833333081,
      "v": 121
    },
    {
      "midi": 38,
      "hit": false,
      "t": 120213.37999999963,
      "d": 55.99854166666046,
      "v": 109
    },
    {
      "midi": 38,
      "hit": false,
      "t": 120327.75999999962,
      "d": 94.12520833333838,
      "v": 111
    },
    {
      "midi": 36,
      "hit": false,
      "t": 120442.13999999962,
      "d": 84.59354166666162,
      "v": 111
    },
    {
      "midi": 33,
      "hit": false,
      "t": 120556.51999999961,
      "d": 65.53020833333721,
      "v": 121
    },
    {
      "midi": 31,
      "hit": false,
      "t": 120670.89999999962,
      "d": 58.38145833332965,
      "v": 127
    },
    {
      "midi": 36,
      "hit": false,
      "t": 120785.2799999996,
      "d": 84.59354166666162,
      "v": 127
    },
    {
      "midi": 38,
      "hit": false,
      "t": 120899.6599999996,
      "d": 101.2739583333314,
      "v": 108
    },
    {
      "midi": 38,
      "hit": false,
      "t": 121128.41999999959,
      "d": 67.9131250000064,
      "v": 117
    },
    {
      "midi": 26,
      "hit": false,
      "t": 121242.7999999996,
      "d": 249.01479166666104,
      "v": 127
    },
    {
      "midi": 36,
      "hit": false,
      "t": 121585.9399999996,
      "d": 82.21062500000698,
      "v": 127
    },
    {
      "midi": 38,
      "hit": false,
      "t": 121814.6999999996,
      "d": 89.359375,
      "v": 119
    },
    {
      "midi": 38,
      "hit": false,
      "t": 122043.4599999996,
      "d": 70.29604166666104,
      "v": 124
    },
    {
      "midi": 26,
      "hit": false,
      "t": 122157.83999999959,
      "d": 263.3122916666616,
      "v": 127
    },
    {
      "midi": 36,
      "hit": false,
      "t": 122615.35999999958,
      "d": 77.4447916666686,
      "v": 127
    },
    {
      "midi": 38,
      "hit": false,
      "t": 122729.73999999958,
      "d": 84.59354166666162,
      "v": 117
    },
    {
      "midi": 38,
      "hit": false,
      "t": 122958.49999999958,
      "d": 67.9131250000064,
      "v": 115
    },
    {
      "midi": 26,
      "hit": false,
      "t": 123072.87999999958,
      "d": 229.95145833333663,
      "v": 127
    },
    {
      "midi": 36,
      "hit": false,
      "t": 123416.01999999958,
      "d": 77.4447916666686,
      "v": 127
    },
    {
      "midi": 38,
      "hit": false,
      "t": 123644.77999999958,
      "d": 86.97645833333081,
      "v": 121
    },
    {
      "midi": 38,
      "hit": false,
      "t": 123873.53999999957,
      "d": 55.99854166666046,
      "v": 109
    },
    {
      "midi": 38,
      "hit": false,
      "t": 123987.91999999956,
      "d": 94.12520833333838,
      "v": 111
    },
    {
      "midi": 36,
      "hit": false,
      "t": 124102.29999999957,
      "d": 84.59354166666162,
      "v": 111
    },
    {
      "midi": 33,
      "hit": false,
      "t": 124216.67999999956,
      "d": 65.53020833333721,
      "v": 121
    },
    {
      "midi": 31,
      "hit": false,
      "t": 124331.05999999956,
      "d": 58.38145833332965,
      "v": 127
    },
    {
      "midi": 36,
      "hit": false,
      "t": 124445.43999999955,
      "d": 84.59354166666162,
      "v": 127
    },
    {
      "midi": 38,
      "hit": false,
      "t": 124559.81999999954,
      "d": 101.2739583333314,
      "v": 108
    },
    {
      "midi": 38,
      "hit": false,
      "t": 124788.57999999954,
      "d": 67.9131250000064,
      "v": 117
    },
    {
      "midi": 26,
      "hit": false,
      "t": 124902.95999999954,
      "d": 249.01479166666104,
      "v": 127
    },
    {
      "midi": 36,
      "hit": false,
      "t": 125246.09999999954,
      "d": 82.21062500000698,
      "v": 127
    },
    {
      "midi": 38,
      "hit": false,
      "t": 125474.85999999955,
      "d": 89.359375,
      "v": 119
    },
    {
      "midi": 38,
      "hit": false,
      "t": 125703.61999999954,
      "d": 70.29604166666104,
      "v": 124
    },
    {
      "midi": 26,
      "hit": false,
      "t": 125817.99999999953,
      "d": 263.3122916666616,
      "v": 127
    },
    {
      "midi": 36,
      "hit": false,
      "t": 126275.51999999952,
      "d": 77.4447916666686,
      "v": 127
    },
    {
      "midi": 38,
      "hit": false,
      "t": 126389.89999999953,
      "d": 84.59354166666162,
      "v": 117
    },
    {
      "midi": 38,
      "hit": false,
      "t": 126618.65999999952,
      "d": 67.9131250000064,
      "v": 115
    },
    {
      "midi": 26,
      "hit": false,
      "t": 126733.03999999953,
      "d": 229.95145833333663,
      "v": 127
    },
    {
      "midi": 36,
      "hit": false,
      "t": 127076.17999999953,
      "d": 77.4447916666686,
      "v": 127
    },
    {
      "midi": 38,
      "hit": false,
      "t": 127304.93999999952,
      "d": 86.97645833333081,
      "v": 121
    },
    {
      "midi": 38,
      "hit": false,
      "t": 127533.69999999952,
      "d": 55.99854166666046,
      "v": 109
    },
    {
      "midi": 38,
      "hit": false,
      "t": 127648.0799999995,
      "d": 94.12520833333838,
      "v": 111
    },
    {
      "midi": 36,
      "hit": false,
      "t": 127762.45999999951,
      "d": 84.59354166666162,
      "v": 111
    },
    {
      "midi": 33,
      "hit": false,
      "t": 127876.8399999995,
      "d": 65.53020833333721,
      "v": 121
    },
    {
      "midi": 31,
      "hit": false,
      "t": 127991.2199999995,
      "d": 58.38145833332965,
      "v": 127
    },
    {
      "midi": 36,
      "hit": false,
      "t": 128105.5999999995,
      "d": 84.59354166666162,
      "v": 127
    },
    {
      "midi": 38,
      "hit": false,
      "t": 128219.97999999949,
      "d": 101.2739583333314,
      "v": 108
    },
    {
      "midi": 38,
      "hit": false,
      "t": 128448.73999999948,
      "d": 67.9131250000064,
      "v": 117
    },
    {
      "midi": 26,
      "hit": false,
      "t": 128563.11999999949,
      "d": 249.01479166666104,
      "v": 127
    },
    {
      "midi": 36,
      "hit": false,
      "t": 128906.25999999949,
      "d": 82.21062500000698,
      "v": 127
    },
    {
      "midi": 38,
      "hit": false,
      "t": 129135.0199999995,
      "d": 89.359375,
      "v": 119
    },
    {
      "midi": 38,
      "hit": false,
      "t": 129363.77999999949,
      "d": 70.29604166666104,
      "v": 124
    },
    {
      "midi": 26,
      "hit": false,
      "t": 129478.15999999948,
      "d": 263.3122916666616,
      "v": 127
    },
    {
      "midi": 36,
      "hit": false,
      "t": 129935.67999999947,
      "d": 77.4447916666686,
      "v": 127
    },
    {
      "midi": 38,
      "hit": false,
      "t": 130050.05999999947,
      "d": 84.59354166666162,
      "v": 117
    },
    {
      "midi": 38,
      "hit": false,
      "t": 130278.81999999947,
      "d": 67.9131250000064,
      "v": 115
    },
    {
      "midi": 26,
      "hit": false,
      "t": 130393.19999999947,
      "d": 229.95145833333663,
      "v": 127
    },
    {
      "midi": 36,
      "hit": false,
      "t": 130736.33999999947,
      "d": 77.4447916666686,
      "v": 127
    },
    {
      "midi": 38,
      "hit": false,
      "t": 130965.09999999947,
      "d": 86.97645833333081,
      "v": 121
    },
    {
      "midi": 38,
      "hit": false,
      "t": 131193.85999999946,
      "d": 55.99854166666046,
      "v": 109
    },
    {
      "midi": 38,
      "hit": false,
      "t": 131308.23999999947,
      "d": 94.12520833333838,
      "v": 111
    },
    {
      "midi": 36,
      "hit": false,
      "t": 131422.61999999947,
      "d": 84.59354166666162,
      "v": 111
    },
    {
      "midi": 33,
      "hit": false,
      "t": 131536.99999999948,
      "d": 65.53020833333721,
      "v": 121
    },
    {
      "midi": 31,
      "hit": false,
      "t": 131651.37999999948,
      "d": 58.3814583333442,
      "v": 127
    },
    {
      "midi": 36,
      "hit": false,
      "t": 131765.75999999949,
      "d": 84.59354166666162,
      "v": 127
    },
    {
      "midi": 38,
      "hit": false,
      "t": 131880.1399999995,
      "d": 101.2739583333314,
      "v": 108
    },
    {
      "midi": 38,
      "hit": false,
      "t": 132108.8999999995,
      "d": 67.91312499999185,
      "v": 117
    },
    {
      "midi": 26,
      "hit": false,
      "t": 132223.2799999995,
      "d": 249.0147916666756,
      "v": 127
    },
    {
      "midi": 36,
      "hit": false,
      "t": 132566.41999999952,
      "d": 82.21062500000698,
      "v": 127
    },
    {
      "midi": 38,
      "hit": false,
      "t": 132795.17999999953,
      "d": 89.359375,
      "v": 119
    },
    {
      "midi": 38,
      "hit": false,
      "t": 133023.93999999954,
      "d": 70.29604166667559,
      "v": 124
    },
    {
      "midi": 26,
      "hit": false,
      "t": 133138.31999999954,
      "d": 263.3122916666616,
      "v": 127
    },
    {
      "midi": 36,
      "hit": false,
      "t": 133595.83999999953,
      "d": 77.4447916666686,
      "v": 127
    },
    {
      "midi": 38,
      "hit": false,
      "t": 133710.21999999954,
      "d": 84.59354166666162,
      "v": 117
    },
    {
      "midi": 38,
      "hit": false,
      "t": 133938.97999999954,
      "d": 67.91312499999185,
      "v": 115
    },
    {
      "midi": 26,
      "hit": false,
      "t": 134053.35999999955,
      "d": 229.95145833332208,
      "v": 127
    },
    {
      "midi": 36,
      "hit": false,
      "t": 134396.49999999953,
      "d": 77.4447916666686,
      "v": 127
    },
    {
      "midi": 38,
      "hit": false,
      "t": 134625.25999999954,
      "d": 86.97645833334536,
      "v": 121
    },
    {
      "midi": 38,
      "hit": false,
      "t": 134854.01999999955,
      "d": 55.99854166666046,
      "v": 109
    },
    {
      "midi": 38,
      "hit": false,
      "t": 134968.39999999956,
      "d": 94.12520833333838,
      "v": 111
    },
    {
      "midi": 36,
      "hit": false,
      "t": 135082.77999999956,
      "d": 84.59354166666162,
      "v": 111
    },
    {
      "midi": 33,
      "hit": false,
      "t": 135197.15999999957,
      "d": 65.53020833333721,
      "v": 121
    },
    {
      "midi": 31,
      "hit": false,
      "t": 135311.53999999957,
      "d": 58.3814583333442,
      "v": 127
    },
    {
      "midi": 36,
      "hit": false,
      "t": 135425.91999999958,
      "d": 84.59354166666162,
      "v": 127
    },
    {
      "midi": 38,
      "hit": false,
      "t": 135540.29999999958,
      "d": 101.2739583333314,
      "v": 108
    },
    {
      "midi": 38,
      "hit": false,
      "t": 135769.0599999996,
      "d": 67.91312499999185,
      "v": 117
    },
    {
      "midi": 26,
      "hit": false,
      "t": 135883.4399999996,
      "d": 249.0147916666756,
      "v": 127
    },
    {
      "midi": 36,
      "hit": false,
      "t": 136226.5799999996,
      "d": 82.21062500000698,
      "v": 127
    },
    {
      "midi": 38,
      "hit": false,
      "t": 136455.33999999962,
      "d": 89.359375,
      "v": 119
    },
    {
      "midi": 38,
      "hit": false,
      "t": 136684.09999999963,
      "d": 70.29604166667559,
      "v": 124
    },
    {
      "midi": 26,
      "hit": false,
      "t": 136798.47999999963,
      "d": 263.3122916666616,
      "v": 127
    },
    {
      "midi": 36,
      "hit": false,
      "t": 137255.99999999962,
      "d": 77.4447916666686,
      "v": 127
    },
    {
      "midi": 38,
      "hit": false,
      "t": 137370.37999999963,
      "d": 84.59354166666162,
      "v": 117
    },
    {
      "midi": 38,
      "hit": false,
      "t": 137599.13999999964,
      "d": 67.91312499999185,
      "v": 115
    },
    {
      "midi": 26,
      "hit": false,
      "t": 137713.51999999964,
      "d": 229.95145833332208,
      "v": 127
    },
    {
      "midi": 36,
      "hit": false,
      "t": 138056.65999999963,
      "d": 77.4447916666686,
      "v": 127
    },
    {
      "midi": 38,
      "hit": false,
      "t": 138285.41999999963,
      "d": 86.97645833334536,
      "v": 121
    },
    {
      "midi": 38,
      "hit": false,
      "t": 138514.17999999964,
      "d": 55.99854166666046,
      "v": 109
    },
    {
      "midi": 38,
      "hit": false,
      "t": 138628.55999999965,
      "d": 94.12520833333838,
      "v": 111
    },
    {
      "midi": 36,
      "hit": false,
      "t": 138742.93999999965,
      "d": 84.59354166666162,
      "v": 111
    },
    {
      "midi": 33,
      "hit": false,
      "t": 138857.31999999966,
      "d": 65.53020833333721,
      "v": 121
    },
    {
      "midi": 31,
      "hit": false,
      "t": 138971.69999999966,
      "d": 58.3814583333442,
      "v": 127
    },
    {
      "midi": 36,
      "hit": false,
      "t": 139086.07999999967,
      "d": 84.59354166666162,
      "v": 127
    },
    {
      "midi": 38,
      "hit": false,
      "t": 139200.45999999967,
      "d": 101.2739583333314,
      "v": 108
    },
    {
      "midi": 38,
      "hit": false,
      "t": 139429.21999999968,
      "d": 67.91312499999185,
      "v": 117
    },
    {
      "midi": 26,
      "hit": false,
      "t": 139543.5999999997,
      "d": 249.0147916666756,
      "v": 127
    },
    {
      "midi": 36,
      "hit": false,
      "t": 139886.7399999997,
      "d": 82.21062500000698,
      "v": 127
    },
    {
      "midi": 38,
      "hit": false,
      "t": 140115.4999999997,
      "d": 89.359375,
      "v": 119
    },
    {
      "midi": 38,
      "hit": false,
      "t": 140344.25999999972,
      "d": 70.29604166667559,
      "v": 124
    },
    {
      "midi": 26,
      "hit": false,
      "t": 140458.63999999972,
      "d": 263.3122916666616,
      "v": 127
    },
    {
      "midi": 36,
      "hit": false,
      "t": 140916.1599999997,
      "d": 77.4447916666686,
      "v": 127
    },
    {
      "midi": 38,
      "hit": false,
      "t": 141030.53999999972,
      "d": 84.59354166666162,
      "v": 117
    },
    {
      "midi": 38,
      "hit": false,
      "t": 141259.29999999973,
      "d": 67.91312499999185,
      "v": 115
    },
    {
      "midi": 26,
      "hit": false,
      "t": 141373.67999999973,
      "d": 229.95145833332208,
      "v": 127
    },
    {
      "midi": 36,
      "hit": false,
      "t": 141716.81999999972,
      "d": 77.4447916666686,
      "v": 127
    },
    {
      "midi": 38,
      "hit": false,
      "t": 141945.57999999973,
      "d": 86.97645833334536,
      "v": 121
    },
    {
      "midi": 38,
      "hit": false,
      "t": 142174.33999999973,
      "d": 55.99854166666046,
      "v": 109
    },
    {
      "midi": 38,
      "hit": false,
      "t": 142288.71999999974,
      "d": 94.12520833333838,
      "v": 111
    },
    {
      "midi": 36,
      "hit": false,
      "t": 142403.09999999974,
      "d": 84.59354166666162,
      "v": 111
    },
    {
      "midi": 33,
      "hit": false,
      "t": 142517.47999999975,
      "d": 65.53020833333721,
      "v": 121
    },
    {
      "midi": 31,
      "hit": false,
      "t": 142631.85999999975,
      "d": 58.3814583333442,
      "v": 127
    },
    {
      "midi": 36,
      "hit": false,
      "t": 142746.23999999976,
      "d": 84.59354166666162,
      "v": 127
    },
    {
      "midi": 38,
      "hit": false,
      "t": 142860.61999999976,
      "d": 101.2739583333314,
      "v": 108
    },
    {
      "midi": 38,
      "hit": false,
      "t": 143089.37999999977,
      "d": 67.91312499999185,
      "v": 117
    },
    {
      "midi": 26,
      "hit": false,
      "t": 143203.75999999978,
      "d": 249.0147916666756,
      "v": 127
    },
    {
      "midi": 36,
      "hit": false,
      "t": 143546.8999999998,
      "d": 82.21062500000698,
      "v": 127
    },
    {
      "midi": 38,
      "hit": false,
      "t": 143775.6599999998,
      "d": 89.359375,
      "v": 119
    },
    {
      "midi": 38,
      "hit": false,
      "t": 144004.4199999998,
      "d": 70.29604166667559,
      "v": 124
    },
    {
      "midi": 26,
      "hit": false,
      "t": 144118.7999999998,
      "d": 263.3122916666616,
      "v": 127
    },
    {
      "midi": 36,
      "hit": false,
      "t": 144576.3199999998,
      "d": 77.4447916666686,
      "v": 127
    },
    {
      "midi": 38,
      "hit": false,
      "t": 144690.6999999998,
      "d": 84.59354166666162,
      "v": 117
    },
    {
      "midi": 38,
      "hit": false,
      "t": 144919.45999999982,
      "d": 67.91312499999185,
      "v": 115
    },
    {
      "midi": 26,
      "hit": false,
      "t": 145033.83999999982,
      "d": 229.95145833332208,
      "v": 127
    },
    {
      "midi": 36,
      "hit": false,
      "t": 145376.9799999998,
      "d": 77.4447916666686,
      "v": 127
    },
    {
      "midi": 38,
      "hit": false,
      "t": 145605.73999999982,
      "d": 86.97645833334536,
      "v": 121
    },
    {
      "midi": 38,
      "hit": false,
      "t": 145834.49999999983,
      "d": 55.99854166666046,
      "v": 109
    },
    {
      "midi": 38,
      "hit": false,
      "t": 145948.87999999983,
      "d": 94.12520833333838,
      "v": 111
    },
    {
      "midi": 36,
      "hit": false,
      "t": 146063.25999999983,
      "d": 84.59354166666162,
      "v": 111
    },
    {
      "midi": 33,
      "hit": false,
      "t": 146177.63999999984,
      "d": 65.53020833333721,
      "v": 121
    },
    {
      "midi": 31,
      "hit": false,
      "t": 146292.01999999984,
      "d": 58.3814583333442,
      "v": 127
    },
    {
      "midi": 36,
      "hit": false,
      "t": 161047.03999999986,
      "d": 84.59354166666162,
      "v": 127
    },
    {
      "midi": 38,
      "hit": false,
      "t": 161161.41999999987,
      "d": 101.2739583333314,
      "v": 108
    },
    {
      "midi": 38,
      "hit": false,
      "t": 161390.17999999988,
      "d": 67.91312499999185,
      "v": 117
    },
    {
      "midi": 26,
      "hit": false,
      "t": 161504.55999999988,
      "d": 249.0147916666756,
      "v": 127
    },
    {
      "midi": 36,
      "hit": false,
      "t": 161847.6999999999,
      "d": 82.21062500000698,
      "v": 127
    },
    {
      "midi": 38,
      "hit": false,
      "t": 162076.4599999999,
      "d": 89.359375,
      "v": 119
    },
    {
      "midi": 38,
      "hit": false,
      "t": 162305.2199999999,
      "d": 70.29604166667559,
      "v": 124
    },
    {
      "midi": 26,
      "hit": false,
      "t": 162419.59999999992,
      "d": 263.3122916666616,
      "v": 127
    },
    {
      "midi": 36,
      "hit": false,
      "t": 162877.1199999999,
      "d": 77.4447916666686,
      "v": 127
    },
    {
      "midi": 38,
      "hit": false,
      "t": 162991.4999999999,
      "d": 84.59354166666162,
      "v": 117
    },
    {
      "midi": 38,
      "hit": false,
      "t": 163220.25999999992,
      "d": 67.91312499999185,
      "v": 115
    },
    {
      "midi": 26,
      "hit": false,
      "t": 163334.63999999993,
      "d": 229.95145833332208,
      "v": 127
    },
    {
      "midi": 36,
      "hit": false,
      "t": 163677.7799999999,
      "d": 77.4447916666686,
      "v": 127
    },
    {
      "midi": 38,
      "hit": false,
      "t": 163906.53999999992,
      "d": 86.97645833334536,
      "v": 121
    },
    {
      "midi": 38,
      "hit": false,
      "t": 164135.29999999993,
      "d": 55.99854166666046,
      "v": 109
    },
    {
      "midi": 38,
      "hit": false,
      "t": 164249.67999999993,
      "d": 94.12520833333838,
      "v": 111
    },
    {
      "midi": 36,
      "hit": false,
      "t": 164364.05999999994,
      "d": 84.59354166666162,
      "v": 111
    },
    {
      "midi": 33,
      "hit": false,
      "t": 164478.43999999994,
      "d": 65.53020833333721,
      "v": 121
    },
    {
      "midi": 31,
      "hit": false,
      "t": 164592.81999999995,
      "d": 58.3814583333442,
      "v": 127
    },
    {
      "midi": 36,
      "hit": false,
      "t": 164707.19999999995,
      "d": 84.59354166666162,
      "v": 127
    },
    {
      "midi": 38,
      "hit": false,
      "t": 164821.57999999996,
      "d": 101.2739583333314,
      "v": 108
    },
    {
      "midi": 38,
      "hit": false,
      "t": 165050.33999999997,
      "d": 67.91312499999185,
      "v": 117
    },
    {
      "midi": 26,
      "hit": false,
      "t": 165164.71999999997,
      "d": 249.0147916666756,
      "v": 127
    },
    {
      "midi": 36,
      "hit": false,
      "t": 165507.86,
      "d": 82.21062500000698,
      "v": 127
    },
    {
      "midi": 38,
      "hit": false,
      "t": 165736.62,
      "d": 89.359375,
      "v": 119
    },
    {
      "midi": 38,
      "hit": false,
      "t": 165965.38,
      "d": 70.29604166667559,
      "v": 124
    },
    {
      "midi": 26,
      "hit": false,
      "t": 166079.76,
      "d": 263.3122916666616,
      "v": 127
    },
    {
      "midi": 36,
      "hit": false,
      "t": 166537.28,
      "d": 77.4447916666686,
      "v": 127
    },
    {
      "midi": 38,
      "hit": false,
      "t": 166651.66,
      "d": 84.59354166666162,
      "v": 117
    },
    {
      "midi": 38,
      "hit": false,
      "t": 166880.42,
      "d": 67.91312499999185,
      "v": 115
    },
    {
      "midi": 26,
      "hit": false,
      "t": 166994.80000000002,
      "d": 229.95145833332208,
      "v": 127
    },
    {
      "midi": 36,
      "hit": false,
      "t": 167337.94,
      "d": 77.4447916666686,
      "v": 127
    },
    {
      "midi": 38,
      "hit": false,
      "t": 167566.7,
      "d": 86.97645833334536,
      "v": 121
    },
    {
      "midi": 38,
      "hit": false,
      "t": 167795.46000000002,
      "d": 55.99854166666046,
      "v": 109
    },
    {
      "midi": 38,
      "hit": false,
      "t": 167909.84000000003,
      "d": 94.12520833333838,
      "v": 111
    },
    {
      "midi": 36,
      "hit": false,
      "t": 168024.22000000003,
      "d": 84.59354166666162,
      "v": 111
    },
    {
      "midi": 33,
      "hit": false,
      "t": 168138.60000000003,
      "d": 65.53020833333721,
      "v": 121
    },
    {
      "midi": 31,
      "hit": false,
      "t": 168252.98000000004,
      "d": 58.3814583333442,
      "v": 127
    },
    {
      "midi": 36,
      "hit": false,
      "t": 168367.36000000004,
      "d": 84.59354166666162,
      "v": 127
    },
    {
      "midi": 38,
      "hit": false,
      "t": 168481.74000000005,
      "d": 101.2739583333314,
      "v": 108
    },
    {
      "midi": 38,
      "hit": false,
      "t": 168710.50000000006,
      "d": 67.91312499999185,
      "v": 117
    },
    {
      "midi": 26,
      "hit": false,
      "t": 168824.88000000006,
      "d": 249.0147916666756,
      "v": 127
    },
    {
      "midi": 36,
      "hit": false,
      "t": 169168.02000000008,
      "d": 82.21062500000698,
      "v": 127
    },
    {
      "midi": 38,
      "hit": false,
      "t": 169396.7800000001,
      "d": 89.359375,
      "v": 119
    },
    {
      "midi": 38,
      "hit": false,
      "t": 169625.5400000001,
      "d": 70.29604166667559,
      "v": 124
    },
    {
      "midi": 26,
      "hit": false,
      "t": 169739.9200000001,
      "d": 263.3122916666616,
      "v": 127
    },
    {
      "midi": 36,
      "hit": false,
      "t": 170197.4400000001,
      "d": 77.4447916666686,
      "v": 127
    },
    {
      "midi": 38,
      "hit": false,
      "t": 170311.8200000001,
      "d": 84.59354166666162,
      "v": 117
    },
    {
      "midi": 38,
      "hit": false,
      "t": 170540.5800000001,
      "d": 67.91312499999185,
      "v": 115
    },
    {
      "midi": 26,
      "hit": false,
      "t": 170654.9600000001,
      "d": 229.95145833332208,
      "v": 127
    },
    {
      "midi": 36,
      "hit": false,
      "t": 170998.1000000001,
      "d": 77.4447916666686,
      "v": 127
    },
    {
      "midi": 38,
      "hit": false,
      "t": 171226.8600000001,
      "d": 86.97645833334536,
      "v": 121
    },
    {
      "midi": 38,
      "hit": false,
      "t": 171455.6200000001,
      "d": 55.99854166666046,
      "v": 109
    },
    {
      "midi": 38,
      "hit": false,
      "t": 171570.00000000012,
      "d": 94.12520833333838,
      "v": 111
    },
    {
      "midi": 36,
      "hit": false,
      "t": 171684.38000000012,
      "d": 84.59354166666162,
      "v": 111
    },
    {
      "midi": 33,
      "hit": false,
      "t": 171798.76000000013,
      "d": 65.53020833333721,
      "v": 121
    },
    {
      "midi": 31,
      "hit": false,
      "t": 171913.14000000013,
      "d": 58.3814583333442,
      "v": 127
    },
    {
      "midi": 36,
      "hit": false,
      "t": 172027.52000000014,
      "d": 84.59354166666162,
      "v": 127
    },
    {
      "midi": 38,
      "hit": false,
      "t": 172141.90000000014,
      "d": 101.2739583333314,
      "v": 108
    },
    {
      "midi": 38,
      "hit": false,
      "t": 172370.66000000015,
      "d": 67.91312499999185,
      "v": 117
    },
    {
      "midi": 26,
      "hit": false,
      "t": 172485.04000000015,
      "d": 249.0147916666756,
      "v": 127
    },
    {
      "midi": 36,
      "hit": false,
      "t": 172828.18000000017,
      "d": 82.21062500000698,
      "v": 127
    },
    {
      "midi": 38,
      "hit": false,
      "t": 173056.94000000018,
      "d": 89.359375,
      "v": 119
    },
    {
      "midi": 38,
      "hit": false,
      "t": 173285.7000000002,
      "d": 70.29604166667559,
      "v": 124
    },
    {
      "midi": 26,
      "hit": false,
      "t": 173400.0800000002,
      "d": 263.3122916666616,
      "v": 127
    },
    {
      "midi": 36,
      "hit": false,
      "t": 173857.60000000018,
      "d": 77.4447916666686,
      "v": 127
    },
    {
      "midi": 38,
      "hit": false,
      "t": 173971.98000000019,
      "d": 84.59354166666162,
      "v": 117
    },
    {
      "midi": 38,
      "hit": false,
      "t": 174200.7400000002,
      "d": 67.91312499999185,
      "v": 115
    },
    {
      "midi": 26,
      "hit": false,
      "t": 174315.1200000002,
      "d": 229.95145833332208,
      "v": 127
    },
    {
      "midi": 36,
      "hit": false,
      "t": 174658.26000000018,
      "d": 77.4447916666686,
      "v": 127
    },
    {
      "midi": 38,
      "hit": false,
      "t": 174887.0200000002,
      "d": 86.97645833334536,
      "v": 121
    },
    {
      "midi": 38,
      "hit": false,
      "t": 175115.7800000002,
      "d": 55.99854166666046,
      "v": 109
    },
    {
      "midi": 38,
      "hit": false,
      "t": 175230.1600000002,
      "d": 94.12520833333838,
      "v": 111
    },
    {
      "midi": 36,
      "hit": false,
      "t": 175344.5400000002,
      "d": 84.59354166666162,
      "v": 111
    },
    {
      "midi": 33,
      "hit": false,
      "t": 175458.92000000022,
      "d": 65.53020833333721,
      "v": 121
    },
    {
      "midi": 31,
      "hit": false,
      "t": 175573.30000000022,
      "d": 58.3814583333442,
      "v": 127
    }
  ]
}