{
  "jsonPath": "Jazz/Nu Jazz/Terranova/burbujas-de-amor.json",
  "path": "Jazz\\Nu Jazz\\Terranova\\Burbujas De Amor.mid",
  "name": "Burbujas De Amor",
  "difficulty": "Intermediate",
  "bpm": 120,
  "notes": [
    {
      "midi": 60,
      "hit": false,
      "t": 2005.2083333333335,
      "d": 2041.6666666666665,
      "v": 104
    },
    {
      "midi": 69,
      "hit": false,
      "t": 2005.2083333333335,
      "d": 2062.5,
      "v": 110
    },
    {
      "midi": 59,
      "hit": false,
      "t": 3963.541666666667,
      "d": 2062.5,
      "v": 95
    },
    {
      "midi": 67,
      "hit": false,
      "t": 4005.2083333333335,
      "d": 2041.6666666666665,
      "v": 105
    },
    {
      "midi": 57,
      "hit": false,
      "t": 5963.541666666667,
      "d": 1041.666666666666,
      "v": 100
    },
    {
      "midi": 65,
      "hit": false,
      "t": 5984.375,
      "d": 1041.666666666666,
      "v": 108
    },
    {
      "midi": 53,
      "hit": false,
      "t": 6963.541666666667,
      "d": 1020.8333333333321,
      "v": 104
    },
    {
      "midi": 62,
      "hit": false,
      "t": 6984.375,
      "d": 1020.8333333333321,
      "v": 103
    },
    {
      "midi": 52,
      "hit": false,
      "t": 7984.374999999999,
      "d": 1583.333333333333,
      "v": 109
    },
    {
      "midi": 60,
      "hit": false,
      "t": 7984.374999999999,
      "d": 1666.666666666667,
      "v": 93
    },
    {
      "midi": 64,
      "hit": false,
      "t": 40026.041666666664,
      "d": 3770.8333333333358,
      "v": 74
    },
    {
      "midi": 72,
      "hit": false,
      "t": 40026.041666666664,
      "d": 4000.0000000000073,
      "v": 80
    },
    {
      "midi": 62,
      "hit": false,
      "t": 44005.208333333336,
      "d": 3791.6666666666715,
      "v": 63
    },
    {
      "midi": 71,
      "hit": false,
      "t": 44005.208333333336,
      "d": 4041.6666666666715,
      "v": 72
    },
    {
      "midi": 60,
      "hit": false,
      "t": 48005.20833333334,
      "d": 3791.6666666666642,
      "v": 66
    },
    {
      "midi": 69,
      "hit": false,
      "t": 48005.20833333334,
      "d": 4041.6666666666642,
      "v": 77
    },
    {
      "midi": 62,
      "hit": false,
      "t": 52005.20833333334,
      "d": 1854.1666666666642,
      "v": 77
    },
    {
      "midi": 71,
      "hit": false,
      "t": 52005.20833333334,
      "d": 1895.8333333333285,
      "v": 76
    },
    {
      "midi": 64,
      "hit": false,
      "t": 54005.208333333336,
      "d": 854.1666666666642,
      "v": 91
    },
    {
      "midi": 72,
      "hit": false,
      "t": 54005.208333333336,
      "d": 1020.8333333333358,
      "v": 91
    },
    {
      "midi": 62,
      "hit": false,
      "t": 55005.208333333336,
      "d": 812.5,
      "v": 81
    },
    {
      "midi": 71,
      "hit": false,
      "t": 55005.208333333336,
      "d": 916.6666666666642,
      "v": 82
    },
    {
      "midi": 64,
      "hit": false,
      "t": 56026.041666666664,
      "d": 3770.8333333333358,
      "v": 74
    },
    {
      "midi": 72,
      "hit": false,
      "t": 56026.041666666664,
      "d": 4000.0000000000073,
      "v": 80
    },
    {
      "midi": 62,
      "hit": false,
      "t": 60005.208333333336,
      "d": 3791.6666666666715,
      "v": 63
    },
    {
      "midi": 71,
      "hit": false,
      "t": 60005.208333333336,
      "d": 4041.6666666666715,
      "v": 72
    },
    {
      "midi": 60,
      "hit": false,
      "t": 64005.20833333334,
      "d": 3791.666666666657,
      "v": 66
    },
    {
      "midi": 69,
      "hit": false,
      "t": 64005.20833333334,
      "d": 4041.666666666657,
      "v": 77
    },
    {
      "midi": 62,
      "hit": false,
      "t": 68005.20833333333,
      "d": 1875,
      "v": 77
    },
    {
      "midi": 71,
      "hit": false,
      "t": 68005.20833333333,
      "d": 1875,
      "v": 76
    },
    {
      "midi": 64,
      "hit": false,
      "t": 70005.20833333333,
      "d": 854.1666666666715,
      "v": 91
    },
    {
      "midi": 72,
      "hit": false,
      "t": 70005.20833333333,
      "d": 1020.8333333333285,
      "v": 91
    },
    {
      "midi": 62,
      "hit": false,
      "t": 71005.20833333333,
      "d": 812.5,
      "v": 81
    },
    {
      "midi": 71,
      "hit": false,
      "t": 71005.20833333333,
      "d": 916.6666666666715,
      "v": 82
    },
    {
      "midi": 55,
      "hit": false,
      "t": 72005.20833333333,
      "d": 8000,
      "v": 72
    },
    {
      "midi": 79,
      "hit": false,
      "t": 72005.20833333333,
      "d": 8041.6666666666715,
      "v": 74
    },
    {
      "midi": 77,
      "hit": false,
      "t": 79984.375,
      "d": 1062.4999999999854,
      "v": 90
    },
    {
      "midi": 53,
      "hit": false,
      "t": 80005.20833333333,
      "d": 1020.8333333333285,
      "v": 86
    },
    {
      "midi": 52,
      "hit": false,
      "t": 81005.20833333333,
      "d": 1062.4999999999854,
      "v": 84
    },
    {
      "midi": 76,
      "hit": false,
      "t": 81005.20833333333,
      "d": 1062.4999999999854,
      "v": 95
    },
    {
      "midi": 53,
      "hit": false,
      "t": 82005.20833333331,
      "d": 2020.8333333333285,
      "v": 83
    },
    {
      "midi": 77,
      "hit": false,
      "t": 82005.20833333331,
      "d": 2020.8333333333285,
      "v": 94
    },
    {
      "midi": 55,
      "hit": false,
      "t": 84005.20833333331,
      "d": 3687.5,
      "v": 88
    },
    {
      "midi": 79,
      "hit": false,
      "t": 84005.20833333331,
      "d": 3687.5,
      "v": 95
    },
    {
      "midi": 64,
      "hit": false,
      "t": 120026.04166666664,
      "d": 3770.8333333333285,
      "v": 74
    },
    {
      "midi": 72,
      "hit": false,
      "t": 120026.04166666664,
      "d": 3999.9999999999854,
      "v": 80
    },
    {
      "midi": 62,
      "hit": false,
      "t": 124005.2083333333,
      "d": 3791.666666666657,
      "v": 63
    },
    {
      "midi": 71,
      "hit": false,
      "t": 124005.2083333333,
      "d": 4041.666666666657,
      "v": 72
    },
    {
      "midi": 60,
      "hit": false,
      "t": 128005.20833333328,
      "d": 3791.666666666657,
      "v": 66
    },
    {
      "midi": 69,
      "hit": false,
      "t": 128005.20833333328,
      "d": 4041.666666666657,
      "v": 77
    },
    {
      "midi": 62,
      "hit": false,
      "t": 132005.20833333328,
      "d": 1875,
      "v": 77
    },
    {
      "midi": 71,
      "hit": false,
      "t": 132005.20833333328,
      "d": 1895.833333333343,
      "v": 76
    },
    {
      "midi": 64,
      "hit": false,
      "t": 133984.37499999997,
      "d": 875,
      "v": 91
    },
    {
      "midi": 72,
      "hit": false,
      "t": 133984.37499999997,
      "d": 1041.666666666686,
      "v": 91
    },
    {
      "midi": 62,
      "hit": false,
      "t": 134984.37499999997,
      "d": 833.333333333343,
      "v": 81
    },
    {
      "midi": 71,
      "hit": false,
      "t": 134989.5833333333,
      "d": 932.291666666657,
      "v": 82
    },
    {
      "midi": 64,
      "hit": false,
      "t": 136026.04166666663,
      "d": 3770.833333333343,
      "v": 74
    },
    {
      "midi": 72,
      "hit": false,
      "t": 136026.04166666663,
      "d": 4000,
      "v": 80
    },
    {
      "midi": 62,
      "hit": false,
      "t": 139984.37499999997,
      "d": 3791.666666666657,
      "v": 63
    },
    {
      "midi": 71,
      "hit": false,
      "t": 139984.37499999997,
      "d": 4062.5,
      "v": 72
    },
    {
      "midi": 60,
      "hit": false,
      "t": 143984.37499999997,
      "d": 3812.5,
      "v": 66
    },
    {
      "midi": 69,
      "hit": false,
      "t": 143984.37499999997,
      "d": 4041.666666666657,
      "v": 77
    },
    {
      "midi": 62,
      "hit": false,
      "t": 147984.37499999997,
      "d": 1875,
      "v": 77
    },
    {
      "midi": 71,
      "hit": false,
      "t": 147984.37499999997,
      "d": 1895.833333333343,
      "v": 76
    },
    {
      "midi": 64,
      "hit": false,
      "t": 149984.37499999997,
      "d": 875,
      "v": 91
    },
    {
      "midi": 72,
      "hit": false,
      "t": 149984.37499999997,
      "d": 1020.833333333343,
      "v": 91
    },
    {
      "midi": 62,
      "hit": false,
      "t": 150984.37499999997,
      "d": 812.5,
      "v": 81
    },
    {
      "midi": 71,
      "hit": false,
      "t": 150984.37499999997,
      "d": 916.666666666657,
      "v": 82
    },
    {
      "midi": 60,
      "hit": false,
      "t": 152109.37499999997,
      "d": 1729.166666666657,
      "v": 48
    },
    {
      "midi": 68,
      "hit": false,
      "t": 152109.37499999997,
      "d": 1937.5,
      "v": 75
    },
    {
      "midi": 62,
      "hit": false,
      "t": 153984.37499999997,
      "d": 3729.166666666657,
      "v": 57
    },
    {
      "midi": 70,
      "hit": false,
      "t": 153984.37499999997,
      "d": 4000,
      "v": 82
    },
    {
      "midi": 63,
      "hit": false,
      "t": 157984.37499999997,
      "d": 854.166666666657,
      "v": 80
    },
    {
      "midi": 72,
      "hit": false,
      "t": 157984.37499999997,
      "d": 1005.208333333343,
      "v": 83
    },
    {
      "midi": 62,
      "hit": false,
      "t": 158984.37499999997,
      "d": 812.5,
      "v": 75
    },
    {
      "midi": 70,
      "hit": false,
      "t": 158984.37499999997,
      "d": 1041.666666666657,
      "v": 92
    },
    {
      "midi": 60,
      "hit": false,
      "t": 159984.37499999997,
      "d": 1770.833333333314,
      "v": 65
    },
    {
      "midi": 68,
      "hit": false,
      "t": 159984.37499999997,
      "d": 2041.6666666666279,
      "v": 90
    },
    {
      "midi": 62,
      "hit": false,
      "t": 161984.37499999994,
      "d": 3791.666666666657,
      "v": 62
    },
    {
      "midi": 70,
      "hit": false,
      "t": 161984.37499999994,
      "d": 4020.833333333343,
      "v": 86
    },
    {
      "midi": 63,
      "hit": false,
      "t": 165984.37499999994,
      "d": 895.833333333343,
      "v": 92
    },
    {
      "midi": 72,
      "hit": false,
      "t": 165984.37499999994,
      "d": 1041.666666666657,
      "v": 85
    },
    {
      "midi": 62,
      "hit": false,
      "t": 166984.37499999994,
      "d": 812.5,
      "v": 74
    },
    {
      "midi": 70,
      "hit": false,
      "t": 166984.37499999994,
      "d": 1041.666666666657,
      "v": 89
    },
    {
      "midi": 60,
      "hit": false,
      "t": 167984.37499999994,
      "d": 1833.333333333314,
      "v": 69
    },
    {
      "midi": 68,
      "hit": false,
      "t": 167984.37499999994,
      "d": 2041.6666666666279,
      "v": 93
    },
    {
      "midi": 62,
      "hit": false,
      "t": 169984.3749999999,
      "d": 1854.166666666657,
      "v": 73
    },
    {
      "midi": 70,
      "hit": false,
      "t": 169984.3749999999,
      "d": 1958.333333333314,
      "v": 91
    },
    {
      "midi": 64,
      "hit": false,
      "t": 172026.04166666657,
      "d": 1979.166666666657,
      "v": 51
    },
    {
      "midi": 72,
      "hit": false,
      "t": 172026.04166666657,
      "d": 1979.166666666657,
      "v": 59
    },
    {
      "midi": 64,
      "hit": false,
      "t": 188026.04166666657,
      "d": 3770.833333333343,
      "v": 74
    },
    {
      "midi": 72,
      "hit": false,
      "t": 188026.04166666657,
      "d": 4000.000000000029,
      "v": 80
    },
    {
      "midi": 62,
      "hit": false,
      "t": 192005.20833333326,
      "d": 3791.666666666686,
      "v": 63
    },
    {
      "midi": 71,
      "hit": false,
      "t": 192005.20833333326,
      "d": 4041.666666666686,
      "v": 72
    },
    {
      "midi": 60,
      "hit": false,
      "t": 196005.20833333328,
      "d": 3791.666666666657,
      "v": 66
    },
    {
      "midi": 69,
      "hit": false,
      "t": 196005.20833333328,
      "d": 4041.666666666657,
      "v": 77
    },
    {
      "midi": 71,
      "hit": false,
      "t": 199984.37499999994,
      "d": 1916.666666666686,
      "v": 76
    },
    {
      "midi": 62,
      "hit": false,
      "t": 200005.20833333328,
      "d": 1875,
      "v": 77
    },
    {
      "midi": 64,
      "hit": false,
      "t": 201984.37499999997,
      "d": 875,
      "v": 91
    },
    {
      "midi": 72,
      "hit": false,
      "t": 201984.37499999997,
      "d": 1041.666666666657,
      "v": 91
    },
    {
      "midi": 62,
      "hit": false,
      "t": 202984.37499999997,
      "d": 833.3333333333139,
      "v": 81
    },
    {
      "midi": 71,
      "hit": false,
      "t": 202984.37499999997,
      "d": 937.4999999999709,
      "v": 82
    },
    {
      "midi": 64,
      "hit": false,
      "t": 204026.0416666666,
      "d": 3770.833333333343,
      "v": 74
    },
    {
      "midi": 72,
      "hit": false,
      "t": 204026.0416666666,
      "d": 4000.000000000029,
      "v": 80
    },
    {
      "midi": 62,
      "hit": false,
      "t": 207984.37499999994,
      "d": 3791.666666666686,
      "v": 63
    },
    {
      "midi": 71,
      "hit": false,
      "t": 208005.20833333328,
      "d": 4041.666666666686,
      "v": 72
    },
    {
      "midi": 60,
      "hit": false,
      "t": 211984.37499999997,
      "d": 3812.5,
      "v": 66
    },
    {
      "midi": 69,
      "hit": false,
      "t": 211984.37499999997,
      "d": 4041.666666666657,
      "v": 77
    },
    {
      "midi": 62,
      "hit": false,
      "t": 215984.37499999997,
      "d": 1875,
      "v": 77
    },
    {
      "midi": 71,
      "hit": false,
      "t": 215984.37499999997,
      "d": 1895.833333333343,
      "v": 76
    },
    {
      "midi": 64,
      "hit": false,
      "t": 217984.37499999997,
      "d": 875,
      "v": 91
    },
    {
      "midi": 72,
      "hit": false,
      "t": 217984.37499999997,
      "d": 1020.833333333343,
      "v": 91
    },
    {
      "midi": 62,
      "hit": false,
      "t": 218984.37499999997,
      "d": 812.5,
      "v": 81
    },
    {
      "midi": 71,
      "hit": false,
      "t": 218984.37499999997,
      "d": 916.666666666657,
      "v": 82
    },
    {
      "midi": 64,
      "hit": false,
      "t": 220005.20833333328,
      "d": 3791.666666666657,
      "v": 74
    },
    {
      "midi": 72,
      "hit": false,
      "t": 220005.20833333328,
      "d": 4020.833333333343,
      "v": 80
    },
    {
      "midi": 62,
      "hit": false,
      "t": 224005.20833333328,
      "d": 3791.666666666686,
      "v": 63
    },
    {
      "midi": 71,
      "hit": false,
      "t": 224005.20833333328,
      "d": 4041.666666666686,
      "v": 72
    },
    {
      "midi": 60,
      "hit": false,
      "t": 227984.37499999997,
      "d": 3812.5,
      "v": 66
    },
    {
      "midi": 69,
      "hit": false,
      "t": 227984.37499999997,
      "d": 4062.5,
      "v": 77
    },
    {
      "midi": 62,
      "hit": false,
      "t": 232005.2083333333,
      "d": 1875,
      "v": 77
    },
    {
      "midi": 71,
      "hit": false,
      "t": 232005.2083333333,
      "d": 1875,
      "v": 76
    },
    {
      "midi": 72,
      "hit": false,
      "t": 233984.37499999997,
      "d": 1041.666666666686,
      "v": 91
    },
    {
      "midi": 64,
      "hit": false,
      "t": 234005.2083333333,
      "d": 854.166666666657,
      "v": 91
    },
    {
      "midi": 62,
      "hit": false,
      "t": 235005.2083333333,
      "d": 812.5,
      "v": 81
    },
    {
      "midi": 71,
      "hit": false,
      "t": 235005.2083333333,
      "d": 916.666666666657,
      "v": 82
    },
    {
      "midi": 64,
      "hit": false,
      "t": 236005.2083333333,
      "d": 3791.666666666657,
      "v": 74
    },
    {
      "midi": 72,
      "hit": false,
      "t": 236005.2083333333,
      "d": 4020.833333333314,
      "v": 80
    },
    {
      "midi": 62,
      "hit": false,
      "t": 239984.37499999997,
      "d": 3791.666666666657,
      "v": 63
    },
    {
      "midi": 71,
      "hit": false,
      "t": 239984.37499999997,
      "d": 4062.5,
      "v": 72
    },
    {
      "midi": 60,
      "hit": false,
      "t": 243984.37499999997,
      "d": 3812.5,
      "v": 66
    },
    {
      "midi": 69,
      "hit": false,
      "t": 243984.37499999997,
      "d": 4041.666666666657,
      "v": 77
    },
    {
      "midi": 62,
      "hit": false,
      "t": 247984.37499999997,
      "d": 1875,
      "v": 77
    },
    {
      "midi": 71,
      "hit": false,
      "t": 247984.37499999997,
      "d": 1895.833333333343,
      "v": 76
    },
    {
      "midi": 64,
      "hit": false,
      "t": 249984.37499999997,
      "d": 875,
      "v": 91
    },
    {
      "midi": 72,
      "hit": false,
      "t": 249984.37499999997,
      "d": 1020.833333333343,
      "v": 91
    },
    {
      "midi": 62,
      "hit": false,
      "t": 250984.37499999997,
      "d": 812.5,
      "v": 81
    },
    {
      "midi": 71,
      "hit": false,
      "t": 250984.37499999997,
      "d": 916.666666666657,
      "v": 82
    },
    {
      "midi": 60,
      "hit": false,
      "t": 252005.20833333328,
      "d": 2000,
      "v": 48
    },
    {
      "midi": 68,
      "hit": false,
      "t": 252005.20833333328,
      "d": 2000,
      "v": 75
    },
    {
      "midi": 62,
      "hit": false,
      "t": 253984.37499999994,
      "d": 1950.520833333343,
      "v": 57
    },
    {
      "midi": 70,
      "hit": false,
      "t": 253984.37499999994,
      "d": 1960.9375,
      "v": 82
    },
    {
      "midi": 64,
      "hit": false,
      "t": 256026.0416666666,
      "d": 1848.958333333343,
      "v": 74
    },
    {
      "midi": 72,
      "hit": false,
      "t": 256026.0416666666,
      "d": 1848.958333333343,
      "v": 83
    }
  ]
}