{
  "jsonPath": "Rock/Argentine Rock/Memphis La Blusera/la-ultima-lagrima.json",
  "path": "Rock\\Argentine Rock\\Memphis La Blusera\\La Última Lagrima.mid",
  "name": "La Última Lagrima",
  "difficulty": "Advanced",
  "bpm": 80,
  "notes": [
    {
      "midi": 62,
      "hit": false,
      "t": 6012.5,
      "d": 1143.75,
      "v": 127
    },
    {
      "midi": 43,
      "hit": false,
      "t": 6012.5,
      "d": 1212.5,
      "v": 127
    },
    {
      "midi": 67,
      "hit": false,
      "t": 6281.25,
      "d": 562.5,
      "v": 127
    },
    {
      "midi": 71,
      "hit": false,
      "t": 6512.5,
      "d": 300,
      "v": 127
    },
    {
      "midi": 74,
      "hit": false,
      "t": 6762.5,
      "d": 256.25,
      "v": 127
    },
    {
      "midi": 71,
      "hit": false,
      "t": 7006.25,
      "d": 712.5,
      "v": 127
    },
    {
      "midi": 67,
      "hit": false,
      "t": 7256.25,
      "d": 387.5,
      "v": 127
    },
    {
      "midi": 43,
      "hit": false,
      "t": 7406.25,
      "d": 1512.5,
      "v": 127
    },
    {
      "midi": 62,
      "hit": false,
      "t": 7531.25,
      "d": 1062.5,
      "v": 127
    },
    {
      "midi": 67,
      "hit": false,
      "t": 7781.25,
      "d": 537.5,
      "v": 127
    },
    {
      "midi": 71,
      "hit": false,
      "t": 8000,
      "d": 306.25,
      "v": 127
    },
    {
      "midi": 74,
      "hit": false,
      "t": 8250,
      "d": 231.25,
      "v": 127
    },
    {
      "midi": 71,
      "hit": false,
      "t": 8518.75,
      "d": 250,
      "v": 127
    },
    {
      "midi": 67,
      "hit": false,
      "t": 8756.25,
      "d": 106.25,
      "v": 127
    },
    {
      "midi": 66,
      "hit": false,
      "t": 9000,
      "d": 1156.25,
      "v": 127
    },
    {
      "midi": 69,
      "hit": false,
      "t": 9262.5,
      "d": 581.25,
      "v": 127
    },
    {
      "midi": 71,
      "hit": false,
      "t": 9512.5,
      "d": 312.5,
      "v": 127
    },
    {
      "midi": 75,
      "hit": false,
      "t": 9762.5,
      "d": 350,
      "v": 127
    },
    {
      "midi": 71,
      "hit": false,
      "t": 10012.5,
      "d": 525,
      "v": 127
    },
    {
      "midi": 69,
      "hit": false,
      "t": 10250,
      "d": 268.75,
      "v": 127
    },
    {
      "midi": 47,
      "hit": false,
      "t": 10500,
      "d": 1275,
      "v": 127
    },
    {
      "midi": 66,
      "hit": false,
      "t": 10506.25,
      "d": 900,
      "v": 127
    },
    {
      "midi": 69,
      "hit": false,
      "t": 10793.75,
      "d": 531.25,
      "v": 127
    },
    {
      "midi": 71,
      "hit": false,
      "t": 11018.75,
      "d": 306.25,
      "v": 127
    },
    {
      "midi": 75,
      "hit": false,
      "t": 11268.75,
      "d": 300,
      "v": 127
    },
    {
      "midi": 71,
      "hit": false,
      "t": 11506.25,
      "d": 256.25,
      "v": 127
    },
    {
      "midi": 69,
      "hit": false,
      "t": 11781.25,
      "d": 131.25,
      "v": 127
    },
    {
      "midi": 59,
      "hit": false,
      "t": 12012.5,
      "d": 1143.75,
      "v": 127
    },
    {
      "midi": 40,
      "hit": false,
      "t": 12012.5,
      "d": 1212.5,
      "v": 127
    },
    {
      "midi": 64,
      "hit": false,
      "t": 12281.25,
      "d": 562.5,
      "v": 127
    },
    {
      "midi": 67,
      "hit": false,
      "t": 12512.5,
      "d": 300,
      "v": 127
    },
    {
      "midi": 71,
      "hit": false,
      "t": 12762.5,
      "d": 256.25,
      "v": 127
    },
    {
      "midi": 67,
      "hit": false,
      "t": 13006.25,
      "d": 712.5,
      "v": 127
    },
    {
      "midi": 64,
      "hit": false,
      "t": 13256.25,
      "d": 387.5,
      "v": 127
    },
    {
      "midi": 40,
      "hit": false,
      "t": 13406.25,
      "d": 1512.5,
      "v": 127
    },
    {
      "midi": 59,
      "hit": false,
      "t": 13531.25,
      "d": 1062.5,
      "v": 127
    },
    {
      "midi": 64,
      "hit": false,
      "t": 13781.25,
      "d": 537.5,
      "v": 127
    },
    {
      "midi": 67,
      "hit": false,
      "t": 14000,
      "d": 306.25,
      "v": 127
    },
    {
      "midi": 71,
      "hit": false,
      "t": 14250,
      "d": 231.25,
      "v": 127
    },
    {
      "midi": 67,
      "hit": false,
      "t": 14518.75,
      "d": 250,
      "v": 127
    },
    {
      "midi": 64,
      "hit": false,
      "t": 14756.25,
      "d": 106.25,
      "v": 127
    },
    {
      "midi": 50,
      "hit": false,
      "t": 15000,
      "d": 1450,
      "v": 127
    },
    {
      "midi": 62,
      "hit": false,
      "t": 15012.5,
      "d": 1068.75,
      "v": 127
    },
    {
      "midi": 65,
      "hit": false,
      "t": 15262.5,
      "d": 568.75,
      "v": 127
    },
    {
      "midi": 69,
      "hit": false,
      "t": 15506.25,
      "d": 337.5,
      "v": 127
    },
    {
      "midi": 72,
      "hit": false,
      "t": 15762.5,
      "d": 218.75,
      "v": 127
    },
    {
      "midi": 69,
      "hit": false,
      "t": 16012.5,
      "d": 362.5,
      "v": 127
    },
    {
      "midi": 65,
      "hit": false,
      "t": 16256.25,
      "d": 162.5,
      "v": 127
    },
    {
      "midi": 43,
      "hit": false,
      "t": 16500,
      "d": 743.75,
      "v": 127
    },
    {
      "midi": 62,
      "hit": false,
      "t": 16500,
      "d": 1100,
      "v": 127
    },
    {
      "midi": 65,
      "hit": false,
      "t": 16756.25,
      "d": 575,
      "v": 127
    },
    {
      "midi": 67,
      "hit": false,
      "t": 17012.5,
      "d": 237.5,
      "v": 127
    },
    {
      "midi": 71,
      "hit": false,
      "t": 17262.5,
      "d": 318.75,
      "v": 127
    },
    {
      "midi": 67,
      "hit": false,
      "t": 17506.25,
      "d": 412.5,
      "v": 127
    },
    {
      "midi": 43,
      "hit": false,
      "t": 17631.25,
      "d": 243.75,
      "v": 127
    },
    {
      "midi": 62,
      "hit": false,
      "t": 17750,
      "d": 156.25,
      "v": 127
    },
    {
      "midi": 60,
      "hit": false,
      "t": 18012.5,
      "d": 1006.25,
      "v": 127
    },
    {
      "midi": 48,
      "hit": false,
      "t": 18018.75,
      "d": 1375,
      "v": 127
    },
    {
      "midi": 64,
      "hit": false,
      "t": 18268.75,
      "d": 656.25,
      "v": 127
    },
    {
      "midi": 67,
      "hit": false,
      "t": 18500,
      "d": 368.75,
      "v": 127
    },
    {
      "midi": 72,
      "hit": false,
      "t": 18750,
      "d": 275,
      "v": 127
    },
    {
      "midi": 67,
      "hit": false,
      "t": 19012.5,
      "d": 343.75,
      "v": 127
    },
    {
      "midi": 64,
      "hit": false,
      "t": 19250,
      "d": 106.25,
      "v": 127
    },
    {
      "midi": 60,
      "hit": false,
      "t": 19500,
      "d": 600,
      "v": 127
    },
    {
      "midi": 63,
      "hit": false,
      "t": 19500,
      "d": 656.25,
      "v": 127
    },
    {
      "midi": 67,
      "hit": false,
      "t": 19500,
      "d": 787.5,
      "v": 127
    },
    {
      "midi": 72,
      "hit": false,
      "t": 19500,
      "d": 787.5,
      "v": 127
    },
    {
      "midi": 48,
      "hit": false,
      "t": 19500,
      "d": 937.5,
      "v": 127
    },
    {
      "midi": 36,
      "hit": false,
      "t": 19506.25,
      "d": 1318.75,
      "v": 127
    },
    {
      "midi": 60,
      "hit": false,
      "t": 20268.75,
      "d": 581.25,
      "v": 127
    },
    {
      "midi": 63,
      "hit": false,
      "t": 20506.25,
      "d": 225,
      "v": 127
    },
    {
      "midi": 48,
      "hit": false,
      "t": 20643.75,
      "d": 218.75,
      "v": 127
    },
    {
      "midi": 67,
      "hit": false,
      "t": 20756.25,
      "d": 131.25,
      "v": 127
    },
    {
      "midi": 63,
      "hit": false,
      "t": 20781.25,
      "d": 87.5,
      "v": 127
    },
    {
      "midi": 62,
      "hit": false,
      "t": 21012.5,
      "d": 1006.25,
      "v": 127
    },
    {
      "midi": 43,
      "hit": false,
      "t": 21018.75,
      "d": 1375,
      "v": 127
    },
    {
      "midi": 67,
      "hit": false,
      "t": 21268.75,
      "d": 656.25,
      "v": 127
    },
    {
      "midi": 71,
      "hit": false,
      "t": 21500,
      "d": 368.75,
      "v": 127
    },
    {
      "midi": 74,
      "hit": false,
      "t": 21750,
      "d": 275,
      "v": 127
    },
    {
      "midi": 71,
      "hit": false,
      "t": 22012.5,
      "d": 343.75,
      "v": 127
    },
    {
      "midi": 67,
      "hit": false,
      "t": 22250,
      "d": 106.25,
      "v": 127
    },
    {
      "midi": 59,
      "hit": false,
      "t": 22500,
      "d": 600,
      "v": 127
    },
    {
      "midi": 62,
      "hit": false,
      "t": 22500,
      "d": 656.25,
      "v": 127
    },
    {
      "midi": 64,
      "hit": false,
      "t": 22500,
      "d": 787.5,
      "v": 127
    },
    {
      "midi": 68,
      "hit": false,
      "t": 22500,
      "d": 787.5,
      "v": 127
    },
    {
      "midi": 40,
      "hit": false,
      "t": 22500,
      "d": 937.5,
      "v": 127
    },
    {
      "midi": 59,
      "hit": false,
      "t": 23268.75,
      "d": 581.25,
      "v": 127
    },
    {
      "midi": 62,
      "hit": false,
      "t": 23506.25,
      "d": 225,
      "v": 127
    },
    {
      "midi": 40,
      "hit": false,
      "t": 23643.75,
      "d": 181.25,
      "v": 127
    },
    {
      "midi": 64,
      "hit": false,
      "t": 23756.25,
      "d": 131.25,
      "v": 127
    },
    {
      "midi": 62,
      "hit": false,
      "t": 23781.25,
      "d": 87.5,
      "v": 127
    },
    {
      "midi": 64,
      "hit": false,
      "t": 24012.5,
      "d": 1143.75,
      "v": 127
    },
    {
      "midi": 45,
      "hit": false,
      "t": 24012.5,
      "d": 1212.5,
      "v": 127
    },
    {
      "midi": 67,
      "hit": false,
      "t": 24281.25,
      "d": 562.5,
      "v": 127
    },
    {
      "midi": 69,
      "hit": false,
      "t": 24512.5,
      "d": 300,
      "v": 127
    },
    {
      "midi": 73,
      "hit": false,
      "t": 24762.5,
      "d": 256.25,
      "v": 127
    },
    {
      "midi": 69,
      "hit": false,
      "t": 25006.25,
      "d": 712.5,
      "v": 127
    },
    {
      "midi": 67,
      "hit": false,
      "t": 25256.25,
      "d": 387.5,
      "v": 127
    },
    {
      "midi": 45,
      "hit": false,
      "t": 25406.25,
      "d": 1512.5,
      "v": 127
    },
    {
      "midi": 64,
      "hit": false,
      "t": 25531.25,
      "d": 1062.5,
      "v": 127
    },
    {
      "midi": 67,
      "hit": false,
      "t": 25781.25,
      "d": 537.5,
      "v": 127
    },
    {
      "midi": 69,
      "hit": false,
      "t": 26000,
      "d": 306.25,
      "v": 127
    },
    {
      "midi": 73,
      "hit": false,
      "t": 26250,
      "d": 231.25,
      "v": 127
    },
    {
      "midi": 69,
      "hit": false,
      "t": 26518.75,
      "d": 250,
      "v": 127
    },
    {
      "midi": 67,
      "hit": false,
      "t": 26756.25,
      "d": 106.25,
      "v": 127
    },
    {
      "midi": 62,
      "hit": false,
      "t": 27000,
      "d": 1156.25,
      "v": 127
    },
    {
      "midi": 66,
      "hit": false,
      "t": 27262.5,
      "d": 581.25,
      "v": 127
    },
    {
      "midi": 69,
      "hit": false,
      "t": 27512.5,
      "d": 312.5,
      "v": 127
    },
    {
      "midi": 72,
      "hit": false,
      "t": 27762.5,
      "d": 350,
      "v": 127
    },
    {
      "midi": 69,
      "hit": false,
      "t": 28012.5,
      "d": 525,
      "v": 127
    },
    {
      "midi": 66,
      "hit": false,
      "t": 28250,
      "d": 268.75,
      "v": 127
    },
    {
      "midi": 50,
      "hit": false,
      "t": 28500,
      "d": 1275,
      "v": 127
    },
    {
      "midi": 62,
      "hit": false,
      "t": 28506.25,
      "d": 900,
      "v": 127
    },
    {
      "midi": 66,
      "hit": false,
      "t": 28793.75,
      "d": 531.25,
      "v": 127
    },
    {
      "midi": 69,
      "hit": false,
      "t": 29018.75,
      "d": 306.25,
      "v": 127
    },
    {
      "midi": 72,
      "hit": false,
      "t": 29268.75,
      "d": 300,
      "v": 127
    },
    {
      "midi": 69,
      "hit": false,
      "t": 29506.25,
      "d": 256.25,
      "v": 127
    },
    {
      "midi": 66,
      "hit": false,
      "t": 29781.25,
      "d": 131.25,
      "v": 127
    },
    {
      "midi": 62,
      "hit": false,
      "t": 30012.5,
      "d": 1143.75,
      "v": 127
    },
    {
      "midi": 43,
      "hit": false,
      "t": 30012.5,
      "d": 1212.5,
      "v": 127
    },
    {
      "midi": 67,
      "hit": false,
      "t": 30281.25,
      "d": 562.5,
      "v": 127
    },
    {
      "midi": 71,
      "hit": false,
      "t": 30512.5,
      "d": 300,
      "v": 127
    },
    {
      "midi": 74,
      "hit": false,
      "t": 30762.5,
      "d": 256.25,
      "v": 127
    },
    {
      "midi": 71,
      "hit": false,
      "t": 31006.25,
      "d": 712.5,
      "v": 127
    },
    {
      "midi": 67,
      "hit": false,
      "t": 31256.25,
      "d": 387.5,
      "v": 127
    },
    {
      "midi": 43,
      "hit": false,
      "t": 31406.25,
      "d": 1512.5,
      "v": 127
    },
    {
      "midi": 62,
      "hit": false,
      "t": 31531.25,
      "d": 1062.5,
      "v": 127
    },
    {
      "midi": 67,
      "hit": false,
      "t": 31781.25,
      "d": 537.5,
      "v": 127
    },
    {
      "midi": 71,
      "hit": false,
      "t": 32000,
      "d": 306.25,
      "v": 127
    },
    {
      "midi": 74,
      "hit": false,
      "t": 32250,
      "d": 231.25,
      "v": 127
    },
    {
      "midi": 71,
      "hit": false,
      "t": 32518.75,
      "d": 250,
      "v": 127
    },
    {
      "midi": 67,
      "hit": false,
      "t": 32756.25,
      "d": 106.25,
      "v": 127
    },
    {
      "midi": 66,
      "hit": false,
      "t": 33000,
      "d": 1156.25,
      "v": 127
    },
    {
      "midi": 69,
      "hit": false,
      "t": 33262.5,
      "d": 581.25,
      "v": 127
    },
    {
      "midi": 71,
      "hit": false,
      "t": 33512.5,
      "d": 312.5,
      "v": 127
    },
    {
      "midi": 75,
      "hit": false,
      "t": 33762.5,
      "d": 350,
      "v": 127
    },
    {
      "midi": 71,
      "hit": false,
      "t": 34012.5,
      "d": 525,
      "v": 127
    },
    {
      "midi": 69,
      "hit": false,
      "t": 34250,
      "d": 268.75,
      "v": 127
    },
    {
      "midi": 47,
      "hit": false,
      "t": 34500,
      "d": 1275,
      "v": 127
    },
    {
      "midi": 66,
      "hit": false,
      "t": 34506.25,
      "d": 900,
      "v": 127
    },
    {
      "midi": 69,
      "hit": false,
      "t": 34793.75,
      "d": 531.25,
      "v": 127
    },
    {
      "midi": 71,
      "hit": false,
      "t": 35018.75,
      "d": 306.25,
      "v": 127
    },
    {
      "midi": 75,
      "hit": false,
      "t": 35268.75,
      "d": 300,
      "v": 127
    },
    {
      "midi": 71,
      "hit": false,
      "t": 35506.25,
      "d": 256.25,
      "v": 127
    },
    {
      "midi": 69,
      "hit": false,
      "t": 35781.25,
      "d": 131.25,
      "v": 127
    },
    {
      "midi": 59,
      "hit": false,
      "t": 36000,
      "d": 1156.25,
      "v": 127
    },
    {
      "midi": 64,
      "hit": false,
      "t": 36262.5,
      "d": 581.25,
      "v": 127
    },
    {
      "midi": 67,
      "hit": false,
      "t": 36512.5,
      "d": 312.5,
      "v": 127
    },
    {
      "midi": 71,
      "hit": false,
      "t": 36762.5,
      "d": 350,
      "v": 127
    },
    {
      "midi": 67,
      "hit": false,
      "t": 37012.5,
      "d": 525,
      "v": 127
    },
    {
      "midi": 64,
      "hit": false,
      "t": 37250,
      "d": 268.75,
      "v": 127
    },
    {
      "midi": 40,
      "hit": false,
      "t": 37500,
      "d": 1275,
      "v": 127
    },
    {
      "midi": 59,
      "hit": false,
      "t": 37506.25,
      "d": 900,
      "v": 127
    },
    {
      "midi": 64,
      "hit": false,
      "t": 37793.75,
      "d": 531.25,
      "v": 127
    },
    {
      "midi": 67,
      "hit": false,
      "t": 38018.75,
      "d": 306.25,
      "v": 127
    },
    {
      "midi": 71,
      "hit": false,
      "t": 38268.75,
      "d": 300,
      "v": 127
    },
    {
      "midi": 67,
      "hit": false,
      "t": 38506.25,
      "d": 256.25,
      "v": 127
    },
    {
      "midi": 64,
      "hit": false,
      "t": 38781.25,
      "d": 131.25,
      "v": 127
    },
    {
      "midi": 50,
      "hit": false,
      "t": 39000,
      "d": 1450,
      "v": 127
    },
    {
      "midi": 62,
      "hit": false,
      "t": 39012.5,
      "d": 1068.75,
      "v": 127
    },
    {
      "midi": 65,
      "hit": false,
      "t": 39262.5,
      "d": 568.75,
      "v": 127
    },
    {
      "midi": 69,
      "hit": false,
      "t": 39506.25,
      "d": 337.5,
      "v": 127
    },
    {
      "midi": 72,
      "hit": false,
      "t": 39762.5,
      "d": 218.75,
      "v": 127
    },
    {
      "midi": 69,
      "hit": false,
      "t": 40012.5,
      "d": 362.5,
      "v": 127
    },
    {
      "midi": 65,
      "hit": false,
      "t": 40256.25,
      "d": 162.5,
      "v": 127
    },
    {
      "midi": 43,
      "hit": false,
      "t": 40500,
      "d": 1450,
      "v": 127
    },
    {
      "midi": 62,
      "hit": false,
      "t": 40512.5,
      "d": 1068.75,
      "v": 127
    },
    {
      "midi": 65,
      "hit": false,
      "t": 40762.5,
      "d": 568.75,
      "v": 127
    },
    {
      "midi": 67,
      "hit": false,
      "t": 41006.25,
      "d": 337.5,
      "v": 127
    },
    {
      "midi": 71,
      "hit": false,
      "t": 41262.5,
      "d": 218.75,
      "v": 127
    },
    {
      "midi": 67,
      "hit": false,
      "t": 41512.5,
      "d": 362.5,
      "v": 127
    },
    {
      "midi": 65,
      "hit": false,
      "t": 41756.25,
      "d": 162.5,
      "v": 127
    },
    {
      "midi": 60,
      "hit": false,
      "t": 42000,
      "d": 600,
      "v": 127
    },
    {
      "midi": 64,
      "hit": false,
      "t": 42000,
      "d": 656.25,
      "v": 127
    },
    {
      "midi": 67,
      "hit": false,
      "t": 42000,
      "d": 787.5,
      "v": 127
    },
    {
      "midi": 72,
      "hit": false,
      "t": 42000,
      "d": 787.5,
      "v": 127
    },
    {
      "midi": 48,
      "hit": false,
      "t": 42000,
      "d": 937.5,
      "v": 127
    },
    {
      "midi": 36,
      "hit": false,
      "t": 42006.25,
      "d": 1318.75,
      "v": 127
    },
    {
      "midi": 60,
      "hit": false,
      "t": 42768.75,
      "d": 581.25,
      "v": 127
    },
    {
      "midi": 64,
      "hit": false,
      "t": 43006.25,
      "d": 225,
      "v": 127
    },
    {
      "midi": 48,
      "hit": false,
      "t": 43143.75,
      "d": 218.75,
      "v": 127
    },
    {
      "midi": 67,
      "hit": false,
      "t": 43256.25,
      "d": 131.25,
      "v": 127
    },
    {
      "midi": 64,
      "hit": false,
      "t": 43281.25,
      "d": 87.5,
      "v": 127
    },
    {
      "midi": 60,
      "hit": false,
      "t": 43512.5,
      "d": 1006.25,
      "v": 127
    },
    {
      "midi": 48,
      "hit": false,
      "t": 43518.75,
      "d": 1375,
      "v": 127
    },
    {
      "midi": 63,
      "hit": false,
      "t": 43768.75,
      "d": 656.25,
      "v": 127
    },
    {
      "midi": 67,
      "hit": false,
      "t": 44000,
      "d": 368.75,
      "v": 127
    },
    {
      "midi": 72,
      "hit": false,
      "t": 44250,
      "d": 275,
      "v": 127
    },
    {
      "midi": 67,
      "hit": false,
      "t": 44512.5,
      "d": 343.75,
      "v": 127
    },
    {
      "midi": 63,
      "hit": false,
      "t": 44750,
      "d": 106.25,
      "v": 127
    },
    {
      "midi": 62,
      "hit": false,
      "t": 45012.5,
      "d": 1006.25,
      "v": 127
    },
    {
      "midi": 43,
      "hit": false,
      "t": 45018.75,
      "d": 1375,
      "v": 127
    },
    {
      "midi": 67,
      "hit": false,
      "t": 45268.75,
      "d": 656.25,
      "v": 127
    },
    {
      "midi": 71,
      "hit": false,
      "t": 45500,
      "d": 368.75,
      "v": 127
    },
    {
      "midi": 74,
      "hit": false,
      "t": 45750,
      "d": 275,
      "v": 127
    },
    {
      "midi": 71,
      "hit": false,
      "t": 46012.5,
      "d": 343.75,
      "v": 127
    },
    {
      "midi": 67,
      "hit": false,
      "t": 46250,
      "d": 106.25,
      "v": 127
    },
    {
      "midi": 59,
      "hit": false,
      "t": 46512.5,
      "d": 1006.25,
      "v": 127
    },
    {
      "midi": 40,
      "hit": false,
      "t": 46518.75,
      "d": 1375,
      "v": 127
    },
    {
      "midi": 62,
      "hit": false,
      "t": 46768.75,
      "d": 656.25,
      "v": 127
    },
    {
      "midi": 64,
      "hit": false,
      "t": 47000,
      "d": 368.75,
      "v": 127
    },
    {
      "midi": 68,
      "hit": false,
      "t": 47250,
      "d": 275,
      "v": 127
    },
    {
      "midi": 64,
      "hit": false,
      "t": 47512.5,
      "d": 343.75,
      "v": 127
    },
    {
      "midi": 62,
      "hit": false,
      "t": 47750,
      "d": 106.25,
      "v": 127
    },
    {
      "midi": 64,
      "hit": false,
      "t": 48012.5,
      "d": 1006.25,
      "v": 127
    },
    {
      "midi": 45,
      "hit": false,
      "t": 48018.75,
      "d": 1375,
      "v": 127
    },
    {
      "midi": 67,
      "hit": false,
      "t": 48268.75,
      "d": 656.25,
      "v": 127
    },
    {
      "midi": 69,
      "hit": false,
      "t": 48500,
      "d": 368.75,
      "v": 127
    },
    {
      "midi": 73,
      "hit": false,
      "t": 48750,
      "d": 275,
      "v": 127
    },
    {
      "midi": 69,
      "hit": false,
      "t": 49012.5,
      "d": 343.75,
      "v": 127
    },
    {
      "midi": 67,
      "hit": false,
      "t": 49250,
      "d": 106.25,
      "v": 127
    },
    {
      "midi": 62,
      "hit": false,
      "t": 49500,
      "d": 600,
      "v": 127
    },
    {
      "midi": 66,
      "hit": false,
      "t": 49500,
      "d": 656.25,
      "v": 127
    },
    {
      "midi": 69,
      "hit": false,
      "t": 49500,
      "d": 787.5,
      "v": 127
    },
    {
      "midi": 72,
      "hit": false,
      "t": 49500,
      "d": 787.5,
      "v": 127
    },
    {
      "midi": 50,
      "hit": false,
      "t": 49500,
      "d": 937.5,
      "v": 127
    },
    {
      "midi": 38,
      "hit": false,
      "t": 49506.25,
      "d": 1318.75,
      "v": 127
    },
    {
      "midi": 62,
      "hit": false,
      "t": 50268.75,
      "d": 581.25,
      "v": 127
    },
    {
      "midi": 66,
      "hit": false,
      "t": 50506.25,
      "d": 225,
      "v": 127
    },
    {
      "midi": 50,
      "hit": false,
      "t": 50643.75,
      "d": 218.75,
      "v": 127
    },
    {
      "midi": 69,
      "hit": false,
      "t": 50756.25,
      "d": 131.25,
      "v": 127
    },
    {
      "midi": 66,
      "hit": false,
      "t": 50781.25,
      "d": 87.5,
      "v": 127
    },
    {
      "midi": 62,
      "hit": false,
      "t": 51012.5,
      "d": 1143.75,
      "v": 127
    },
    {
      "midi": 43,
      "hit": false,
      "t": 51012.5,
      "d": 1212.5,
      "v": 127
    },
    {
      "midi": 67,
      "hit": false,
      "t": 51281.25,
      "d": 562.5,
      "v": 127
    },
    {
      "midi": 71,
      "hit": false,
      "t": 51512.5,
      "d": 300,
      "v": 127
    },
    {
      "midi": 74,
      "hit": false,
      "t": 51762.5,
      "d": 256.25,
      "v": 127
    },
    {
      "midi": 71,
      "hit": false,
      "t": 52006.25,
      "d": 712.5,
      "v": 127
    },
    {
      "midi": 67,
      "hit": false,
      "t": 52256.25,
      "d": 387.5,
      "v": 127
    },
    {
      "midi": 43,
      "hit": false,
      "t": 52406.25,
      "d": 1512.5,
      "v": 127
    },
    {
      "midi": 62,
      "hit": false,
      "t": 52531.25,
      "d": 1062.5,
      "v": 127
    },
    {
      "midi": 67,
      "hit": false,
      "t": 52781.25,
      "d": 537.5,
      "v": 127
    },
    {
      "midi": 71,
      "hit": false,
      "t": 53000,
      "d": 306.25,
      "v": 127
    },
    {
      "midi": 74,
      "hit": false,
      "t": 53250,
      "d": 231.25,
      "v": 127
    },
    {
      "midi": 71,
      "hit": false,
      "t": 53518.75,
      "d": 250,
      "v": 127
    },
    {
      "midi": 67,
      "hit": false,
      "t": 53756.25,
      "d": 106.25,
      "v": 127
    },
    {
      "midi": 66,
      "hit": false,
      "t": 54018.75,
      "d": 1318.75,
      "v": 127
    },
    {
      "midi": 69,
      "hit": false,
      "t": 54312.5,
      "d": 525,
      "v": 127
    },
    {
      "midi": 71,
      "hit": false,
      "t": 54537.5,
      "d": 287.5,
      "v": 127
    },
    {
      "midi": 75,
      "hit": false,
      "t": 54787.5,
      "d": 268.75,
      "v": 127
    },
    {
      "midi": 71,
      "hit": false,
      "t": 55031.25,
      "d": 506.25,
      "v": 127
    },
    {
      "midi": 69,
      "hit": false,
      "t": 55256.25,
      "d": 300,
      "v": 127
    },
    {
      "midi": 66,
      "hit": false,
      "t": 55518.75,
      "d": 1100,
      "v": 127
    },
    {
      "midi": 69,
      "hit": false,
      "t": 55787.5,
      "d": 556.25,
      "v": 127
    },
    {
      "midi": 71,
      "hit": false,
      "t": 56018.75,
      "d": 325,
      "v": 127
    },
    {
      "midi": 75,
      "hit": false,
      "t": 56281.25,
      "d": 318.75,
      "v": 127
    },
    {
      "midi": 71,
      "hit": false,
      "t": 56518.75,
      "d": 506.25,
      "v": 127
    },
    {
      "midi": 69,
      "hit": false,
      "t": 56756.25,
      "d": 275,
      "v": 127
    },
    {
      "midi": 66,
      "hit": false,
      "t": 57006.25,
      "d": 1168.75,
      "v": 127
    },
    {
      "midi": 69,
      "hit": false,
      "t": 57268.75,
      "d": 606.25,
      "v": 127
    },
    {
      "midi": 71,
      "hit": false,
      "t": 57518.75,
      "d": 300,
      "v": 127
    },
    {
      "midi": 75,
      "hit": false,
      "t": 57750,
      "d": 356.25,
      "v": 127
    },
    {
      "midi": 71,
      "hit": false,
      "t": 58006.25,
      "d": 481.25,
      "v": 127
    },
    {
      "midi": 69,
      "hit": false,
      "t": 58231.25,
      "d": 281.25,
      "v": 127
    },
    {
      "midi": 66,
      "hit": false,
      "t": 58487.5,
      "d": 1050,
      "v": 127
    },
    {
      "midi": 69,
      "hit": false,
      "t": 58750,
      "d": 575,
      "v": 127
    },
    {
      "midi": 71,
      "hit": false,
      "t": 59006.25,
      "d": 293.75,
      "v": 127
    },
    {
      "midi": 75,
      "hit": false,
      "t": 59256.25,
      "d": 293.75,
      "v": 127
    },
    {
      "midi": 71,
      "hit": false,
      "t": 59506.25,
      "d": 237.5,
      "v": 127
    },
    {
      "midi": 69,
      "hit": false,
      "t": 59718.75,
      "d": 162.5,
      "v": 127
    },
    {
      "midi": 59,
      "hit": false,
      "t": 60018.75,
      "d": 1318.75,
      "v": 127
    },
    {
      "midi": 64,
      "hit": false,
      "t": 60312.5,
      "d": 525,
      "v": 127
    },
    {
      "midi": 67,
      "hit": false,
      "t": 60537.5,
      "d": 287.5,
      "v": 127
    },
    {
      "midi": 71,
      "hit": false,
      "t": 60787.5,
      "d": 268.75,
      "v": 127
    },
    {
      "midi": 67,
      "hit": false,
      "t": 61031.25,
      "d": 506.25,
      "v": 127
    },
    {
      "midi": 64,
      "hit": false,
      "t": 61256.25,
      "d": 300,
      "v": 127
    },
    {
      "midi": 59,
      "hit": false,
      "t": 61518.75,
      "d": 1100,
      "v": 127
    },
    {
      "midi": 64,
      "hit": false,
      "t": 61787.5,
      "d": 556.25,
      "v": 127
    },
    {
      "midi": 67,
      "hit": false,
      "t": 62018.75,
      "d": 325,
      "v": 127
    },
    {
      "midi": 71,
      "hit": false,
      "t": 62281.25,
      "d": 318.75,
      "v": 127
    },
    {
      "midi": 67,
      "hit": false,
      "t": 62518.75,
      "d": 506.25,
      "v": 127
    },
    {
      "midi": 64,
      "hit": false,
      "t": 62756.25,
      "d": 275,
      "v": 127
    },
    {
      "midi": 59,
      "hit": false,
      "t": 63006.25,
      "d": 1168.75,
      "v": 127
    },
    {
      "midi": 64,
      "hit": false,
      "t": 63268.75,
      "d": 606.25,
      "v": 127
    },
    {
      "midi": 67,
      "hit": false,
      "t": 63518.75,
      "d": 300,
      "v": 127
    },
    {
      "midi": 71,
      "hit": false,
      "t": 63750,
      "d": 356.25,
      "v": 127
    },
    {
      "midi": 67,
      "hit": false,
      "t": 64006.25,
      "d": 481.25,
      "v": 127
    },
    {
      "midi": 64,
      "hit": false,
      "t": 64231.25,
      "d": 281.25,
      "v": 127
    },
    {
      "midi": 59,
      "hit": false,
      "t": 64487.5,
      "d": 1050,
      "v": 127
    },
    {
      "midi": 64,
      "hit": false,
      "t": 64750,
      "d": 575,
      "v": 127
    },
    {
      "midi": 67,
      "hit": false,
      "t": 65006.25,
      "d": 293.75,
      "v": 127
    },
    {
      "midi": 71,
      "hit": false,
      "t": 65256.25,
      "d": 293.75,
      "v": 127
    },
    {
      "midi": 67,
      "hit": false,
      "t": 65506.25,
      "d": 237.5,
      "v": 127
    },
    {
      "midi": 64,
      "hit": false,
      "t": 65718.75,
      "d": 162.5,
      "v": 127
    },
    {
      "midi": 45,
      "hit": false,
      "t": 66000,
      "d": 956.25,
      "v": 127
    },
    {
      "midi": 64,
      "hit": false,
      "t": 66006.25,
      "d": 593.75,
      "v": 127
    },
    {
      "midi": 67,
      "hit": false,
      "t": 66287.5,
      "d": 1087.5,
      "v": 127
    },
    {
      "midi": 69,
      "hit": false,
      "t": 66562.5,
      "d": 825,
      "v": 127
    },
    {
      "midi": 64,
      "hit": false,
      "t": 66737.5,
      "d": 606.25,
      "v": 127
    },
    {
      "midi": 73,
      "hit": false,
      "t": 66750,
      "d": 662.5,
      "v": 127
    },
    {
      "midi": 45,
      "hit": false,
      "t": 67812.5,
      "d": 1037.5,
      "v": 127
    },
    {
      "midi": 67,
      "hit": false,
      "t": 68012.5,
      "d": 406.25,
      "v": 127
    },
    {
      "midi": 76,
      "hit": false,
      "t": 68506.25,
      "d": 143.75,
      "v": 127
    },
    {
      "midi": 73,
      "hit": false,
      "t": 68625,
      "d": 150,
      "v": 127
    },
    {
      "midi": 69,
      "hit": false,
      "t": 68731.25,
      "d": 118.75,
      "v": 127
    },
    {
      "midi": 67,
      "hit": false,
      "t": 68850,
      "d": 100,
      "v": 127
    },
    {
      "midi": 64,
      "hit": false,
      "t": 69000,
      "d": 281.25,
      "v": 127
    },
    {
      "midi": 45,
      "hit": false,
      "t": 69000,
      "d": 1506.25,
      "v": 127
    },
    {
      "midi": 61,
      "hit": false,
      "t": 69512.5,
      "d": 643.75,
      "v": 127
    },
    {
      "midi": 69,
      "hit": false,
      "t": 69750,
      "d": 1275,
      "v": 127
    },
    {
      "midi": 67,
      "hit": false,
      "t": 69750,
      "d": 1300,
      "v": 127
    },
    {
      "midi": 61,
      "hit": false,
      "t": 70231.25,
      "d": 831.25,
      "v": 127
    },
    {
      "midi": 45,
      "hit": false,
      "t": 70987.5,
      "d": 450,
      "v": 127
    },
    {
      "midi": 67,
      "hit": false,
      "t": 71262.5,
      "d": 218.75,
      "v": 127
    },
    {
      "midi": 61,
      "hit": false,
      "t": 71268.75,
      "d": 200,
      "v": 127
    },
    {
      "midi": 69,
      "hit": false,
      "t": 71268.75,
      "d": 225,
      "v": 127
    },
    {
      "midi": 64,
      "hit": false,
      "t": 72012.5,
      "d": 1143.75,
      "v": 127
    },
    {
      "midi": 45,
      "hit": false,
      "t": 72012.5,
      "d": 1212.5,
      "v": 127
    },
    {
      "midi": 67,
      "hit": false,
      "t": 72281.25,
      "d": 562.5,
      "v": 127
    },
    {
      "midi": 69,
      "hit": false,
      "t": 72512.5,
      "d": 300,
      "v": 127
    },
    {
      "midi": 72,
      "hit": false,
      "t": 72762.5,
      "d": 256.25,
      "v": 127
    },
    {
      "midi": 69,
      "hit": false,
      "t": 73006.25,
      "d": 712.5,
      "v": 127
    },
    {
      "midi": 67,
      "hit": false,
      "t": 73256.25,
      "d": 387.5,
      "v": 127
    },
    {
      "midi": 45,
      "hit": false,
      "t": 73406.25,
      "d": 1512.5,
      "v": 127
    },
    {
      "midi": 64,
      "hit": false,
      "t": 73531.25,
      "d": 1062.5,
      "v": 127
    },
    {
      "midi": 67,
      "hit": false,
      "t": 73781.25,
      "d": 537.5,
      "v": 127
    },
    {
      "midi": 69,
      "hit": false,
      "t": 74000,
      "d": 306.25,
      "v": 127
    },
    {
      "midi": 72,
      "hit": false,
      "t": 74250,
      "d": 231.25,
      "v": 127
    },
    {
      "midi": 69,
      "hit": false,
      "t": 74518.75,
      "d": 250,
      "v": 127
    },
    {
      "midi": 67,
      "hit": false,
      "t": 74756.25,
      "d": 106.25,
      "v": 127
    },
    {
      "midi": 62,
      "hit": false,
      "t": 75012.5,
      "d": 1006.25,
      "v": 127
    },
    {
      "midi": 50,
      "hit": false,
      "t": 75018.75,
      "d": 1375,
      "v": 127
    },
    {
      "midi": 66,
      "hit": false,
      "t": 75268.75,
      "d": 656.25,
      "v": 127
    },
    {
      "midi": 69,
      "hit": false,
      "t": 75500,
      "d": 368.75,
      "v": 127
    },
    {
      "midi": 72,
      "hit": false,
      "t": 75750,
      "d": 275,
      "v": 127
    },
    {
      "midi": 69,
      "hit": false,
      "t": 76012.5,
      "d": 343.75,
      "v": 127
    },
    {
      "midi": 66,
      "hit": false,
      "t": 76250,
      "d": 106.25,
      "v": 127
    },
    {
      "midi": 62,
      "hit": false,
      "t": 76512.5,
      "d": 1006.25,
      "v": 127
    },
    {
      "midi": 50,
      "hit": false,
      "t": 76518.75,
      "d": 1375,
      "v": 127
    },
    {
      "midi": 66,
      "hit": false,
      "t": 76768.75,
      "d": 656.25,
      "v": 127
    },
    {
      "midi": 70,
      "hit": false,
      "t": 77000,
      "d": 368.75,
      "v": 127
    },
    {
      "midi": 74,
      "hit": false,
      "t": 77250,
      "d": 275,
      "v": 127
    },
    {
      "midi": 70,
      "hit": false,
      "t": 77512.5,
      "d": 343.75,
      "v": 127
    },
    {
      "midi": 66,
      "hit": false,
      "t": 77750,
      "d": 106.25,
      "v": 127
    },
    {
      "midi": 62,
      "hit": false,
      "t": 78000,
      "d": 1156.25,
      "v": 127
    },
    {
      "midi": 67,
      "hit": false,
      "t": 78262.5,
      "d": 581.25,
      "v": 127
    },
    {
      "midi": 71,
      "hit": false,
      "t": 78512.5,
      "d": 312.5,
      "v": 127
    },
    {
      "midi": 74,
      "hit": false,
      "t": 78762.5,
      "d": 350,
      "v": 127
    },
    {
      "midi": 71,
      "hit": false,
      "t": 79012.5,
      "d": 525,
      "v": 127
    },
    {
      "midi": 67,
      "hit": false,
      "t": 79250,
      "d": 268.75,
      "v": 127
    },
    {
      "midi": 43,
      "hit": false,
      "t": 79500,
      "d": 1275,
      "v": 127
    },
    {
      "midi": 62,
      "hit": false,
      "t": 79506.25,
      "d": 900,
      "v": 127
    },
    {
      "midi": 67,
      "hit": false,
      "t": 79793.75,
      "d": 531.25,
      "v": 127
    },
    {
      "midi": 71,
      "hit": false,
      "t": 80018.75,
      "d": 306.25,
      "v": 127
    },
    {
      "midi": 74,
      "hit": false,
      "t": 80268.75,
      "d": 300,
      "v": 127
    },
    {
      "midi": 71,
      "hit": false,
      "t": 80506.25,
      "d": 256.25,
      "v": 127
    },
    {
      "midi": 67,
      "hit": false,
      "t": 80781.25,
      "d": 131.25,
      "v": 127
    },
    {
      "midi": 66,
      "hit": false,
      "t": 81000,
      "d": 1156.25,
      "v": 127
    },
    {
      "midi": 69,
      "hit": false,
      "t": 81262.5,
      "d": 581.25,
      "v": 127
    },
    {
      "midi": 71,
      "hit": false,
      "t": 81512.5,
      "d": 312.5,
      "v": 127
    },
    {
      "midi": 75,
      "hit": false,
      "t": 81762.5,
      "d": 350,
      "v": 127
    },
    {
      "midi": 71,
      "hit": false,
      "t": 82012.5,
      "d": 525,
      "v": 127
    },
    {
      "midi": 69,
      "hit": false,
      "t": 82250,
      "d": 268.75,
      "v": 127
    },
    {
      "midi": 47,
      "hit": false,
      "t": 82500,
      "d": 1275,
      "v": 127
    },
    {
      "midi": 66,
      "hit": false,
      "t": 82506.25,
      "d": 900,
      "v": 127
    },
    {
      "midi": 69,
      "hit": false,
      "t": 82793.75,
      "d": 531.25,
      "v": 127
    },
    {
      "midi": 71,
      "hit": false,
      "t": 83018.75,
      "d": 306.25,
      "v": 127
    },
    {
      "midi": 75,
      "hit": false,
      "t": 83268.75,
      "d": 300,
      "v": 127
    },
    {
      "midi": 71,
      "hit": false,
      "t": 83506.25,
      "d": 256.25,
      "v": 127
    },
    {
      "midi": 69,
      "hit": false,
      "t": 83781.25,
      "d": 131.25,
      "v": 127
    },
    {
      "midi": 59,
      "hit": false,
      "t": 84000,
      "d": 1156.25,
      "v": 127
    },
    {
      "midi": 64,
      "hit": false,
      "t": 84262.5,
      "d": 581.25,
      "v": 127
    },
    {
      "midi": 67,
      "hit": false,
      "t": 84512.5,
      "d": 312.5,
      "v": 127
    },
    {
      "midi": 71,
      "hit": false,
      "t": 84762.5,
      "d": 350,
      "v": 127
    },
    {
      "midi": 67,
      "hit": false,
      "t": 85012.5,
      "d": 525,
      "v": 127
    },
    {
      "midi": 64,
      "hit": false,
      "t": 85250,
      "d": 268.75,
      "v": 127
    },
    {
      "midi": 40,
      "hit": false,
      "t": 85500,
      "d": 1275,
      "v": 127
    },
    {
      "midi": 59,
      "hit": false,
      "t": 85506.25,
      "d": 900,
      "v": 127
    },
    {
      "midi": 64,
      "hit": false,
      "t": 85793.75,
      "d": 531.25,
      "v": 127
    },
    {
      "midi": 67,
      "hit": false,
      "t": 86018.75,
      "d": 306.25,
      "v": 127
    },
    {
      "midi": 71,
      "hit": false,
      "t": 86268.75,
      "d": 300,
      "v": 127
    },
    {
      "midi": 67,
      "hit": false,
      "t": 86506.25,
      "d": 256.25,
      "v": 127
    },
    {
      "midi": 64,
      "hit": false,
      "t": 86781.25,
      "d": 131.25,
      "v": 127
    },
    {
      "midi": 50,
      "hit": false,
      "t": 87000,
      "d": 1450,
      "v": 127
    },
    {
      "midi": 62,
      "hit": false,
      "t": 87012.5,
      "d": 1068.75,
      "v": 127
    },
    {
      "midi": 65,
      "hit": false,
      "t": 87262.5,
      "d": 568.75,
      "v": 127
    },
    {
      "midi": 69,
      "hit": false,
      "t": 87506.25,
      "d": 337.5,
      "v": 127
    },
    {
      "midi": 72,
      "hit": false,
      "t": 87762.5,
      "d": 218.75,
      "v": 127
    },
    {
      "midi": 69,
      "hit": false,
      "t": 88012.5,
      "d": 362.5,
      "v": 127
    },
    {
      "midi": 65,
      "hit": false,
      "t": 88256.25,
      "d": 162.5,
      "v": 127
    },
    {
      "midi": 43,
      "hit": false,
      "t": 88500,
      "d": 1450,
      "v": 127
    },
    {
      "midi": 62,
      "hit": false,
      "t": 88512.5,
      "d": 1068.75,
      "v": 127
    },
    {
      "midi": 65,
      "hit": false,
      "t": 88762.5,
      "d": 568.75,
      "v": 127
    },
    {
      "midi": 67,
      "hit": false,
      "t": 89006.25,
      "d": 337.5,
      "v": 127
    },
    {
      "midi": 71,
      "hit": false,
      "t": 89262.5,
      "d": 218.75,
      "v": 127
    },
    {
      "midi": 67,
      "hit": false,
      "t": 89512.5,
      "d": 362.5,
      "v": 127
    },
    {
      "midi": 65,
      "hit": false,
      "t": 89756.25,
      "d": 162.5,
      "v": 127
    },
    {
      "midi": 60,
      "hit": false,
      "t": 90000,
      "d": 600,
      "v": 127
    },
    {
      "midi": 64,
      "hit": false,
      "t": 90000,
      "d": 656.25,
      "v": 127
    },
    {
      "midi": 67,
      "hit": false,
      "t": 90000,
      "d": 787.5,
      "v": 127
    },
    {
      "midi": 72,
      "hit": false,
      "t": 90000,
      "d": 787.5,
      "v": 127
    },
    {
      "midi": 48,
      "hit": false,
      "t": 90000,
      "d": 937.5,
      "v": 127
    },
    {
      "midi": 36,
      "hit": false,
      "t": 90006.25,
      "d": 1318.75,
      "v": 127
    },
    {
      "midi": 60,
      "hit": false,
      "t": 90768.75,
      "d": 581.25,
      "v": 127
    },
    {
      "midi": 64,
      "hit": false,
      "t": 91006.25,
      "d": 225,
      "v": 127
    },
    {
      "midi": 48,
      "hit": false,
      "t": 91143.75,
      "d": 218.75,
      "v": 127
    },
    {
      "midi": 67,
      "hit": false,
      "t": 91256.25,
      "d": 131.25,
      "v": 127
    },
    {
      "midi": 64,
      "hit": false,
      "t": 91281.25,
      "d": 87.5,
      "v": 127
    },
    {
      "midi": 60,
      "hit": false,
      "t": 91500,
      "d": 600,
      "v": 127
    },
    {
      "midi": 63,
      "hit": false,
      "t": 91500,
      "d": 656.25,
      "v": 127
    },
    {
      "midi": 67,
      "hit": false,
      "t": 91500,
      "d": 787.5,
      "v": 127
    },
    {
      "midi": 72,
      "hit": false,
      "t": 91500,
      "d": 787.5,
      "v": 127
    },
    {
      "midi": 48,
      "hit": false,
      "t": 91500,
      "d": 937.5,
      "v": 127
    },
    {
      "midi": 36,
      "hit": false,
      "t": 91506.25,
      "d": 1318.75,
      "v": 127
    },
    {
      "midi": 60,
      "hit": false,
      "t": 92268.75,
      "d": 581.25,
      "v": 127
    },
    {
      "midi": 63,
      "hit": false,
      "t": 92506.25,
      "d": 225,
      "v": 127
    },
    {
      "midi": 48,
      "hit": false,
      "t": 92643.75,
      "d": 218.75,
      "v": 127
    },
    {
      "midi": 67,
      "hit": false,
      "t": 92756.25,
      "d": 131.25,
      "v": 127
    },
    {
      "midi": 63,
      "hit": false,
      "t": 92781.25,
      "d": 87.5,
      "v": 127
    },
    {
      "midi": 62,
      "hit": false,
      "t": 93000,
      "d": 600,
      "v": 127
    },
    {
      "midi": 67,
      "hit": false,
      "t": 93000,
      "d": 656.25,
      "v": 127
    },
    {
      "midi": 71,
      "hit": false,
      "t": 93000,
      "d": 787.5,
      "v": 127
    },
    {
      "midi": 74,
      "hit": false,
      "t": 93000,
      "d": 787.5,
      "v": 127
    },
    {
      "midi": 43,
      "hit": false,
      "t": 93000,
      "d": 937.5,
      "v": 127
    },
    {
      "midi": 62,
      "hit": false,
      "t": 93768.75,
      "d": 581.25,
      "v": 127
    },
    {
      "midi": 67,
      "hit": false,
      "t": 94006.25,
      "d": 225,
      "v": 127
    },
    {
      "midi": 43,
      "hit": false,
      "t": 94143.75,
      "d": 181.25,
      "v": 127
    },
    {
      "midi": 71,
      "hit": false,
      "t": 94256.25,
      "d": 131.25,
      "v": 127
    },
    {
      "midi": 67,
      "hit": false,
      "t": 94281.25,
      "d": 87.5,
      "v": 127
    },
    {
      "midi": 59,
      "hit": false,
      "t": 94500,
      "d": 600,
      "v": 127
    },
    {
      "midi": 62,
      "hit": false,
      "t": 94500,
      "d": 656.25,
      "v": 127
    },
    {
      "midi": 64,
      "hit": false,
      "t": 94500,
      "d": 787.5,
      "v": 127
    },
    {
      "midi": 68,
      "hit": false,
      "t": 94500,
      "d": 787.5,
      "v": 127
    },
    {
      "midi": 40,
      "hit": false,
      "t": 94500,
      "d": 937.5,
      "v": 127
    },
    {
      "midi": 59,
      "hit": false,
      "t": 95268.75,
      "d": 581.25,
      "v": 127
    },
    {
      "midi": 62,
      "hit": false,
      "t": 95506.25,
      "d": 225,
      "v": 127
    },
    {
      "midi": 40,
      "hit": false,
      "t": 95643.75,
      "d": 181.25,
      "v": 127
    },
    {
      "midi": 64,
      "hit": false,
      "t": 95756.25,
      "d": 131.25,
      "v": 127
    },
    {
      "midi": 62,
      "hit": false,
      "t": 95781.25,
      "d": 87.5,
      "v": 127
    },
    {
      "midi": 64,
      "hit": false,
      "t": 96000,
      "d": 600,
      "v": 127
    },
    {
      "midi": 67,
      "hit": false,
      "t": 96000,
      "d": 656.25,
      "v": 127
    },
    {
      "midi": 69,
      "hit": false,
      "t": 96000,
      "d": 787.5,
      "v": 127
    },
    {
      "midi": 73,
      "hit": false,
      "t": 96000,
      "d": 787.5,
      "v": 127
    },
    {
      "midi": 45,
      "hit": false,
      "t": 96000,
      "d": 937.5,
      "v": 127
    },
    {
      "midi": 64,
      "hit": false,
      "t": 96768.75,
      "d": 581.25,
      "v": 127
    },
    {
      "midi": 67,
      "hit": false,
      "t": 97006.25,
      "d": 225,
      "v": 127
    },
    {
      "midi": 45,
      "hit": false,
      "t": 97143.75,
      "d": 181.25,
      "v": 127
    },
    {
      "midi": 69,
      "hit": false,
      "t": 97256.25,
      "d": 131.25,
      "v": 127
    },
    {
      "midi": 67,
      "hit": false,
      "t": 97281.25,
      "d": 87.5,
      "v": 127
    },
    {
      "midi": 62,
      "hit": false,
      "t": 97500,
      "d": 600,
      "v": 127
    },
    {
      "midi": 66,
      "hit": false,
      "t": 97500,
      "d": 656.25,
      "v": 127
    },
    {
      "midi": 69,
      "hit": false,
      "t": 97500,
      "d": 787.5,
      "v": 127
    },
    {
      "midi": 72,
      "hit": false,
      "t": 97500,
      "d": 787.5,
      "v": 127
    },
    {
      "midi": 50,
      "hit": false,
      "t": 97500,
      "d": 937.5,
      "v": 127
    },
    {
      "midi": 38,
      "hit": false,
      "t": 97506.25,
      "d": 1318.75,
      "v": 127
    },
    {
      "midi": 62,
      "hit": false,
      "t": 98268.75,
      "d": 581.25,
      "v": 127
    },
    {
      "midi": 66,
      "hit": false,
      "t": 98506.25,
      "d": 225,
      "v": 127
    },
    {
      "midi": 50,
      "hit": false,
      "t": 98643.75,
      "d": 218.75,
      "v": 127
    },
    {
      "midi": 69,
      "hit": false,
      "t": 98756.25,
      "d": 131.25,
      "v": 127
    },
    {
      "midi": 66,
      "hit": false,
      "t": 98781.25,
      "d": 87.5,
      "v": 127
    },
    {
      "midi": 62,
      "hit": false,
      "t": 99000,
      "d": 600,
      "v": 127
    },
    {
      "midi": 67,
      "hit": false,
      "t": 99000,
      "d": 656.25,
      "v": 127
    },
    {
      "midi": 71,
      "hit": false,
      "t": 99000,
      "d": 787.5,
      "v": 127
    },
    {
      "midi": 74,
      "hit": false,
      "t": 99000,
      "d": 787.5,
      "v": 127
    },
    {
      "midi": 43,
      "hit": false,
      "t": 99000,
      "d": 937.5,
      "v": 127
    },
    {
      "midi": 62,
      "hit": false,
      "t": 99768.75,
      "d": 581.25,
      "v": 127
    },
    {
      "midi": 67,
      "hit": false,
      "t": 100006.25,
      "d": 225,
      "v": 127
    },
    {
      "midi": 43,
      "hit": false,
      "t": 100143.75,
      "d": 181.25,
      "v": 127
    },
    {
      "midi": 71,
      "hit": false,
      "t": 100256.25,
      "d": 131.25,
      "v": 127
    },
    {
      "midi": 67,
      "hit": false,
      "t": 100281.25,
      "d": 87.5,
      "v": 127
    },
    {
      "midi": 62,
      "hit": false,
      "t": 100512.5,
      "d": 1006.25,
      "v": 127
    },
    {
      "midi": 50,
      "hit": false,
      "t": 100518.75,
      "d": 1375,
      "v": 127
    },
    {
      "midi": 66,
      "hit": false,
      "t": 100768.75,
      "d": 656.25,
      "v": 127
    },
    {
      "midi": 70,
      "hit": false,
      "t": 101000,
      "d": 368.75,
      "v": 127
    },
    {
      "midi": 74,
      "hit": false,
      "t": 101250,
      "d": 275,
      "v": 127
    },
    {
      "midi": 70,
      "hit": false,
      "t": 101512.5,
      "d": 343.75,
      "v": 127
    },
    {
      "midi": 66,
      "hit": false,
      "t": 101750,
      "d": 106.25,
      "v": 127
    },
    {
      "midi": 62,
      "hit": false,
      "t": 102000,
      "d": 1156.25,
      "v": 127
    },
    {
      "midi": 67,
      "hit": false,
      "t": 102262.5,
      "d": 581.25,
      "v": 127
    },
    {
      "midi": 71,
      "hit": false,
      "t": 102512.5,
      "d": 312.5,
      "v": 127
    },
    {
      "midi": 74,
      "hit": false,
      "t": 102762.5,
      "d": 350,
      "v": 127
    },
    {
      "midi": 71,
      "hit": false,
      "t": 103012.5,
      "d": 525,
      "v": 127
    },
    {
      "midi": 67,
      "hit": false,
      "t": 103250,
      "d": 268.75,
      "v": 127
    },
    {
      "midi": 43,
      "hit": false,
      "t": 103500,
      "d": 1275,
      "v": 127
    },
    {
      "midi": 62,
      "hit": false,
      "t": 103506.25,
      "d": 900,
      "v": 127
    },
    {
      "midi": 67,
      "hit": false,
      "t": 103793.75,
      "d": 531.25,
      "v": 127
    },
    {
      "midi": 71,
      "hit": false,
      "t": 104018.75,
      "d": 306.25,
      "v": 127
    },
    {
      "midi": 74,
      "hit": false,
      "t": 104268.75,
      "d": 300,
      "v": 127
    },
    {
      "midi": 71,
      "hit": false,
      "t": 104506.25,
      "d": 256.25,
      "v": 127
    },
    {
      "midi": 67,
      "hit": false,
      "t": 104781.25,
      "d": 131.25,
      "v": 127
    },
    {
      "midi": 66,
      "hit": false,
      "t": 105000,
      "d": 1156.25,
      "v": 127
    },
    {
      "midi": 69,
      "hit": false,
      "t": 105262.5,
      "d": 581.25,
      "v": 127
    },
    {
      "midi": 71,
      "hit": false,
      "t": 105512.5,
      "d": 312.5,
      "v": 127
    },
    {
      "midi": 75,
      "hit": false,
      "t": 105762.5,
      "d": 350,
      "v": 127
    },
    {
      "midi": 71,
      "hit": false,
      "t": 106012.5,
      "d": 525,
      "v": 127
    },
    {
      "midi": 69,
      "hit": false,
      "t": 106250,
      "d": 268.75,
      "v": 127
    },
    {
      "midi": 47,
      "hit": false,
      "t": 106500,
      "d": 1275,
      "v": 127
    },
    {
      "midi": 66,
      "hit": false,
      "t": 106506.25,
      "d": 900,
      "v": 127
    },
    {
      "midi": 69,
      "hit": false,
      "t": 106793.75,
      "d": 531.25,
      "v": 127
    },
    {
      "midi": 71,
      "hit": false,
      "t": 107018.75,
      "d": 306.25,
      "v": 127
    },
    {
      "midi": 75,
      "hit": false,
      "t": 107268.75,
      "d": 300,
      "v": 127
    },
    {
      "midi": 71,
      "hit": false,
      "t": 107506.25,
      "d": 256.25,
      "v": 127
    },
    {
      "midi": 69,
      "hit": false,
      "t": 107781.25,
      "d": 131.25,
      "v": 127
    },
    {
      "midi": 59,
      "hit": false,
      "t": 108012.5,
      "d": 1143.75,
      "v": 127
    },
    {
      "midi": 40,
      "hit": false,
      "t": 108012.5,
      "d": 1212.5,
      "v": 127
    },
    {
      "midi": 64,
      "hit": false,
      "t": 108281.25,
      "d": 562.5,
      "v": 127
    },
    {
      "midi": 67,
      "hit": false,
      "t": 108512.5,
      "d": 300,
      "v": 127
    },
    {
      "midi": 71,
      "hit": false,
      "t": 108762.5,
      "d": 256.25,
      "v": 127
    },
    {
      "midi": 67,
      "hit": false,
      "t": 109006.25,
      "d": 712.5,
      "v": 127
    },
    {
      "midi": 64,
      "hit": false,
      "t": 109256.25,
      "d": 387.5,
      "v": 127
    },
    {
      "midi": 40,
      "hit": false,
      "t": 109406.25,
      "d": 1512.5,
      "v": 127
    },
    {
      "midi": 59,
      "hit": false,
      "t": 109531.25,
      "d": 1062.5,
      "v": 127
    },
    {
      "midi": 64,
      "hit": false,
      "t": 109781.25,
      "d": 537.5,
      "v": 127
    },
    {
      "midi": 67,
      "hit": false,
      "t": 110000,
      "d": 306.25,
      "v": 127
    },
    {
      "midi": 71,
      "hit": false,
      "t": 110250,
      "d": 231.25,
      "v": 127
    },
    {
      "midi": 67,
      "hit": false,
      "t": 110518.75,
      "d": 250,
      "v": 127
    },
    {
      "midi": 64,
      "hit": false,
      "t": 110756.25,
      "d": 106.25,
      "v": 127
    },
    {
      "midi": 50,
      "hit": false,
      "t": 111000,
      "d": 1450,
      "v": 127
    },
    {
      "midi": 62,
      "hit": false,
      "t": 111012.5,
      "d": 1068.75,
      "v": 127
    },
    {
      "midi": 65,
      "hit": false,
      "t": 111262.5,
      "d": 568.75,
      "v": 127
    },
    {
      "midi": 69,
      "hit": false,
      "t": 111506.25,
      "d": 337.5,
      "v": 127
    },
    {
      "midi": 72,
      "hit": false,
      "t": 111762.5,
      "d": 218.75,
      "v": 127
    },
    {
      "midi": 69,
      "hit": false,
      "t": 112012.5,
      "d": 362.5,
      "v": 127
    },
    {
      "midi": 65,
      "hit": false,
      "t": 112256.25,
      "d": 162.5,
      "v": 127
    },
    {
      "midi": 43,
      "hit": false,
      "t": 112500,
      "d": 1450,
      "v": 127
    },
    {
      "midi": 62,
      "hit": false,
      "t": 112512.5,
      "d": 1068.75,
      "v": 127
    },
    {
      "midi": 65,
      "hit": false,
      "t": 112762.5,
      "d": 568.75,
      "v": 127
    },
    {
      "midi": 67,
      "hit": false,
      "t": 113006.25,
      "d": 337.5,
      "v": 127
    },
    {
      "midi": 71,
      "hit": false,
      "t": 113262.5,
      "d": 218.75,
      "v": 127
    },
    {
      "midi": 67,
      "hit": false,
      "t": 113512.5,
      "d": 362.5,
      "v": 127
    },
    {
      "midi": 65,
      "hit": false,
      "t": 113756.25,
      "d": 162.5,
      "v": 127
    },
    {
      "midi": 60,
      "hit": false,
      "t": 114000,
      "d": 600,
      "v": 127
    },
    {
      "midi": 64,
      "hit": false,
      "t": 114000,
      "d": 656.25,
      "v": 127
    },
    {
      "midi": 67,
      "hit": false,
      "t": 114000,
      "d": 787.5,
      "v": 127
    },
    {
      "midi": 72,
      "hit": false,
      "t": 114000,
      "d": 787.5,
      "v": 127
    },
    {
      "midi": 48,
      "hit": false,
      "t": 114000,
      "d": 937.5,
      "v": 127
    },
    {
      "midi": 36,
      "hit": false,
      "t": 114006.25,
      "d": 1318.75,
      "v": 127
    },
    {
      "midi": 60,
      "hit": false,
      "t": 114768.75,
      "d": 581.25,
      "v": 127
    },
    {
      "midi": 64,
      "hit": false,
      "t": 115006.25,
      "d": 225,
      "v": 127
    },
    {
      "midi": 48,
      "hit": false,
      "t": 115143.75,
      "d": 218.75,
      "v": 127
    },
    {
      "midi": 67,
      "hit": false,
      "t": 115256.25,
      "d": 131.25,
      "v": 127
    },
    {
      "midi": 64,
      "hit": false,
      "t": 115281.25,
      "d": 87.5,
      "v": 127
    },
    {
      "midi": 60,
      "hit": false,
      "t": 115500,
      "d": 600,
      "v": 127
    },
    {
      "midi": 63,
      "hit": false,
      "t": 115500,
      "d": 656.25,
      "v": 127
    },
    {
      "midi": 67,
      "hit": false,
      "t": 115500,
      "d": 787.5,
      "v": 127
    },
    {
      "midi": 72,
      "hit": false,
      "t": 115500,
      "d": 787.5,
      "v": 127
    },
    {
      "midi": 48,
      "hit": false,
      "t": 115500,
      "d": 937.5,
      "v": 127
    },
    {
      "midi": 36,
      "hit": false,
      "t": 115506.25,
      "d": 1318.75,
      "v": 127
    },
    {
      "midi": 60,
      "hit": false,
      "t": 116268.75,
      "d": 581.25,
      "v": 127
    },
    {
      "midi": 63,
      "hit": false,
      "t": 116506.25,
      "d": 225,
      "v": 127
    },
    {
      "midi": 48,
      "hit": false,
      "t": 116643.75,
      "d": 218.75,
      "v": 127
    },
    {
      "midi": 67,
      "hit": false,
      "t": 116756.25,
      "d": 131.25,
      "v": 127
    },
    {
      "midi": 63,
      "hit": false,
      "t": 116781.25,
      "d": 87.5,
      "v": 127
    },
    {
      "midi": 62,
      "hit": false,
      "t": 117000,
      "d": 600,
      "v": 127
    },
    {
      "midi": 67,
      "hit": false,
      "t": 117000,
      "d": 656.25,
      "v": 127
    },
    {
      "midi": 71,
      "hit": false,
      "t": 117000,
      "d": 787.5,
      "v": 127
    },
    {
      "midi": 74,
      "hit": false,
      "t": 117000,
      "d": 787.5,
      "v": 127
    },
    {
      "midi": 43,
      "hit": false,
      "t": 117000,
      "d": 937.5,
      "v": 127
    },
    {
      "midi": 62,
      "hit": false,
      "t": 117768.75,
      "d": 581.25,
      "v": 127
    },
    {
      "midi": 67,
      "hit": false,
      "t": 118006.25,
      "d": 225,
      "v": 127
    },
    {
      "midi": 43,
      "hit": false,
      "t": 118143.75,
      "d": 181.25,
      "v": 127
    },
    {
      "midi": 71,
      "hit": false,
      "t": 118256.25,
      "d": 131.25,
      "v": 127
    },
    {
      "midi": 67,
      "hit": false,
      "t": 118281.25,
      "d": 87.5,
      "v": 127
    },
    {
      "midi": 59,
      "hit": false,
      "t": 118512.5,
      "d": 1006.25,
      "v": 127
    },
    {
      "midi": 40,
      "hit": false,
      "t": 118518.75,
      "d": 1375,
      "v": 127
    },
    {
      "midi": 62,
      "hit": false,
      "t": 118768.75,
      "d": 656.25,
      "v": 127
    },
    {
      "midi": 64,
      "hit": false,
      "t": 119000,
      "d": 368.75,
      "v": 127
    },
    {
      "midi": 68,
      "hit": false,
      "t": 119250,
      "d": 275,
      "v": 127
    },
    {
      "midi": 64,
      "hit": false,
      "t": 119512.5,
      "d": 343.75,
      "v": 127
    },
    {
      "midi": 62,
      "hit": false,
      "t": 119750,
      "d": 106.25,
      "v": 127
    },
    {
      "midi": 64,
      "hit": false,
      "t": 120012.5,
      "d": 1143.75,
      "v": 127
    },
    {
      "midi": 45,
      "hit": false,
      "t": 120012.5,
      "d": 1212.5,
      "v": 127
    },
    {
      "midi": 67,
      "hit": false,
      "t": 120281.25,
      "d": 562.5,
      "v": 127
    },
    {
      "midi": 69,
      "hit": false,
      "t": 120512.5,
      "d": 300,
      "v": 127
    },
    {
      "midi": 73,
      "hit": false,
      "t": 120762.5,
      "d": 256.25,
      "v": 127
    },
    {
      "midi": 69,
      "hit": false,
      "t": 121006.25,
      "d": 712.5,
      "v": 127
    },
    {
      "midi": 67,
      "hit": false,
      "t": 121256.25,
      "d": 387.5,
      "v": 127
    },
    {
      "midi": 45,
      "hit": false,
      "t": 121406.25,
      "d": 1512.5,
      "v": 127
    },
    {
      "midi": 64,
      "hit": false,
      "t": 121531.25,
      "d": 1062.5,
      "v": 127
    },
    {
      "midi": 67,
      "hit": false,
      "t": 121781.25,
      "d": 537.5,
      "v": 127
    },
    {
      "midi": 69,
      "hit": false,
      "t": 122000,
      "d": 306.25,
      "v": 127
    },
    {
      "midi": 73,
      "hit": false,
      "t": 122250,
      "d": 231.25,
      "v": 127
    },
    {
      "midi": 69,
      "hit": false,
      "t": 122518.75,
      "d": 250,
      "v": 127
    },
    {
      "midi": 67,
      "hit": false,
      "t": 122756.25,
      "d": 106.25,
      "v": 127
    },
    {
      "midi": 66,
      "hit": false,
      "t": 123000,
      "d": 331.25,
      "v": 127
    },
    {
      "midi": 50,
      "hit": false,
      "t": 123000,
      "d": 1881.25,
      "v": 127
    },
    {
      "midi": 38,
      "hit": false,
      "t": 123000,
      "d": 3000,
      "v": 127
    },
    {
      "midi": 62,
      "hit": false,
      "t": 123262.5,
      "d": 650,
      "v": 127
    },
    {
      "midi": 66,
      "hit": false,
      "t": 123481.25,
      "d": 412.5,
      "v": 127
    },
    {
      "midi": 72,
      "hit": false,
      "t": 123768.75,
      "d": 243.75,
      "v": 127
    },
    {
      "midi": 69,
      "hit": false,
      "t": 124031.25,
      "d": 1050,
      "v": 127
    },
    {
      "midi": 66,
      "hit": false,
      "t": 124250,
      "d": 825,
      "v": 127
    },
    {
      "midi": 62,
      "hit": false,
      "t": 124500,
      "d": 568.75,
      "v": 127
    },
    {
      "midi": 50,
      "hit": false,
      "t": 124981.25,
      "d": 800,
      "v": 127
    },
    {
      "midi": 62,
      "hit": false,
      "t": 125125,
      "d": 93.75,
      "v": 127
    },
    {
      "midi": 72,
      "hit": false,
      "t": 125231.25,
      "d": 243.75,
      "v": 127
    },
    {
      "midi": 69,
      "hit": false,
      "t": 125500,
      "d": 493.75,
      "v": 127
    },
    {
      "midi": 66,
      "hit": false,
      "t": 125731.25,
      "d": 268.75,
      "v": 127
    },
    {
      "midi": 62,
      "hit": false,
      "t": 126012.5,
      "d": 1143.75,
      "v": 127
    },
    {
      "midi": 43,
      "hit": false,
      "t": 126012.5,
      "d": 1212.5,
      "v": 127
    },
    {
      "midi": 67,
      "hit": false,
      "t": 126281.25,
      "d": 562.5,
      "v": 127
    },
    {
      "midi": 71,
      "hit": false,
      "t": 126512.5,
      "d": 300,
      "v": 127
    },
    {
      "midi": 74,
      "hit": false,
      "t": 126762.5,
      "d": 256.25,
      "v": 127
    },
    {
      "midi": 71,
      "hit": false,
      "t": 127006.25,
      "d": 712.5,
      "v": 127
    },
    {
      "midi": 67,
      "hit": false,
      "t": 127256.25,
      "d": 387.5,
      "v": 127
    },
    {
      "midi": 43,
      "hit": false,
      "t": 127406.25,
      "d": 1512.5,
      "v": 127
    },
    {
      "midi": 62,
      "hit": false,
      "t": 127531.25,
      "d": 1062.5,
      "v": 127
    },
    {
      "midi": 67,
      "hit": false,
      "t": 127781.25,
      "d": 537.5,
      "v": 127
    },
    {
      "midi": 71,
      "hit": false,
      "t": 128000,
      "d": 306.25,
      "v": 127
    },
    {
      "midi": 74,
      "hit": false,
      "t": 128250,
      "d": 231.25,
      "v": 127
    },
    {
      "midi": 71,
      "hit": false,
      "t": 128518.75,
      "d": 250,
      "v": 127
    },
    {
      "midi": 67,
      "hit": false,
      "t": 128756.25,
      "d": 106.25,
      "v": 127
    },
    {
      "midi": 66,
      "hit": false,
      "t": 129012.5,
      "d": 1143.75,
      "v": 127
    },
    {
      "midi": 47,
      "hit": false,
      "t": 129012.5,
      "d": 1212.5,
      "v": 127
    },
    {
      "midi": 69,
      "hit": false,
      "t": 129281.25,
      "d": 562.5,
      "v": 127
    },
    {
      "midi": 71,
      "hit": false,
      "t": 129512.5,
      "d": 300,
      "v": 127
    },
    {
      "midi": 75,
      "hit": false,
      "t": 129762.5,
      "d": 256.25,
      "v": 127
    },
    {
      "midi": 71,
      "hit": false,
      "t": 130006.25,
      "d": 712.5,
      "v": 127
    },
    {
      "midi": 69,
      "hit": false,
      "t": 130256.25,
      "d": 387.5,
      "v": 127
    },
    {
      "midi": 47,
      "hit": false,
      "t": 130406.25,
      "d": 1537.5,
      "v": 127
    },
    {
      "midi": 66,
      "hit": false,
      "t": 130531.25,
      "d": 1062.5,
      "v": 127
    },
    {
      "midi": 35,
      "hit": false,
      "t": 130531.25,
      "d": 1393.75,
      "v": 127
    },
    {
      "midi": 69,
      "hit": false,
      "t": 130781.25,
      "d": 537.5,
      "v": 127
    },
    {
      "midi": 71,
      "hit": false,
      "t": 131000,
      "d": 306.25,
      "v": 127
    },
    {
      "midi": 75,
      "hit": false,
      "t": 131250,
      "d": 231.25,
      "v": 127
    },
    {
      "midi": 71,
      "hit": false,
      "t": 131518.75,
      "d": 250,
      "v": 127
    },
    {
      "midi": 69,
      "hit": false,
      "t": 131756.25,
      "d": 106.25,
      "v": 127
    },
    {
      "midi": 59,
      "hit": false,
      "t": 132000,
      "d": 1156.25,
      "v": 127
    },
    {
      "midi": 64,
      "hit": false,
      "t": 132262.5,
      "d": 581.25,
      "v": 127
    },
    {
      "midi": 67,
      "hit": false,
      "t": 132512.5,
      "d": 312.5,
      "v": 127
    },
    {
      "midi": 71,
      "hit": false,
      "t": 132762.5,
      "d": 350,
      "v": 127
    },
    {
      "midi": 67,
      "hit": false,
      "t": 133012.5,
      "d": 525,
      "v": 127
    },
    {
      "midi": 64,
      "hit": false,
      "t": 133250,
      "d": 268.75,
      "v": 127
    },
    {
      "midi": 40,
      "hit": false,
      "t": 133500,
      "d": 1275,
      "v": 127
    },
    {
      "midi": 59,
      "hit": false,
      "t": 133506.25,
      "d": 900,
      "v": 127
    },
    {
      "midi": 64,
      "hit": false,
      "t": 133793.75,
      "d": 531.25,
      "v": 127
    },
    {
      "midi": 67,
      "hit": false,
      "t": 134018.75,
      "d": 306.25,
      "v": 127
    },
    {
      "midi": 71,
      "hit": false,
      "t": 134268.75,
      "d": 300,
      "v": 127
    },
    {
      "midi": 67,
      "hit": false,
      "t": 134506.25,
      "d": 256.25,
      "v": 127
    },
    {
      "midi": 64,
      "hit": false,
      "t": 134781.25,
      "d": 131.25,
      "v": 127
    },
    {
      "midi": 50,
      "hit": false,
      "t": 135000,
      "d": 1450,
      "v": 127
    },
    {
      "midi": 62,
      "hit": false,
      "t": 135012.5,
      "d": 1068.75,
      "v": 127
    },
    {
      "midi": 65,
      "hit": false,
      "t": 135262.5,
      "d": 568.75,
      "v": 127
    },
    {
      "midi": 69,
      "hit": false,
      "t": 135506.25,
      "d": 337.5,
      "v": 127
    },
    {
      "midi": 72,
      "hit": false,
      "t": 135762.5,
      "d": 218.75,
      "v": 127
    },
    {
      "midi": 69,
      "hit": false,
      "t": 136012.5,
      "d": 362.5,
      "v": 127
    },
    {
      "midi": 65,
      "hit": false,
      "t": 136256.25,
      "d": 162.5,
      "v": 127
    },
    {
      "midi": 43,
      "hit": false,
      "t": 136500,
      "d": 1450,
      "v": 127
    },
    {
      "midi": 62,
      "hit": false,
      "t": 136512.5,
      "d": 1068.75,
      "v": 127
    },
    {
      "midi": 65,
      "hit": false,
      "t": 136762.5,
      "d": 568.75,
      "v": 127
    },
    {
      "midi": 67,
      "hit": false,
      "t": 137006.25,
      "d": 337.5,
      "v": 127
    },
    {
      "midi": 71,
      "hit": false,
      "t": 137262.5,
      "d": 218.75,
      "v": 127
    },
    {
      "midi": 67,
      "hit": false,
      "t": 137512.5,
      "d": 362.5,
      "v": 127
    },
    {
      "midi": 65,
      "hit": false,
      "t": 137756.25,
      "d": 162.5,
      "v": 127
    },
    {
      "midi": 60,
      "hit": false,
      "t": 138012.5,
      "d": 1006.25,
      "v": 127
    },
    {
      "midi": 48,
      "hit": false,
      "t": 138018.75,
      "d": 1375,
      "v": 127
    },
    {
      "midi": 64,
      "hit": false,
      "t": 138268.75,
      "d": 656.25,
      "v": 127
    },
    {
      "midi": 67,
      "hit": false,
      "t": 138500,
      "d": 368.75,
      "v": 127
    },
    {
      "midi": 72,
      "hit": false,
      "t": 138750,
      "d": 275,
      "v": 127
    },
    {
      "midi": 67,
      "hit": false,
      "t": 139012.5,
      "d": 343.75,
      "v": 127
    },
    {
      "midi": 64,
      "hit": false,
      "t": 139250,
      "d": 106.25,
      "v": 127
    },
    {
      "midi": 60,
      "hit": false,
      "t": 139500,
      "d": 600,
      "v": 127
    },
    {
      "midi": 63,
      "hit": false,
      "t": 139500,
      "d": 656.25,
      "v": 127
    },
    {
      "midi": 67,
      "hit": false,
      "t": 139500,
      "d": 787.5,
      "v": 127
    },
    {
      "midi": 72,
      "hit": false,
      "t": 139500,
      "d": 787.5,
      "v": 127
    },
    {
      "midi": 48,
      "hit": false,
      "t": 139500,
      "d": 937.5,
      "v": 127
    },
    {
      "midi": 36,
      "hit": false,
      "t": 139506.25,
      "d": 1318.75,
      "v": 127
    },
    {
      "midi": 60,
      "hit": false,
      "t": 140268.75,
      "d": 581.25,
      "v": 127
    },
    {
      "midi": 63,
      "hit": false,
      "t": 140506.25,
      "d": 225,
      "v": 127
    },
    {
      "midi": 48,
      "hit": false,
      "t": 140643.75,
      "d": 218.75,
      "v": 127
    },
    {
      "midi": 67,
      "hit": false,
      "t": 140756.25,
      "d": 131.25,
      "v": 127
    },
    {
      "midi": 63,
      "hit": false,
      "t": 140781.25,
      "d": 87.5,
      "v": 127
    },
    {
      "midi": 62,
      "hit": false,
      "t": 141000,
      "d": 600,
      "v": 127
    },
    {
      "midi": 67,
      "hit": false,
      "t": 141000,
      "d": 656.25,
      "v": 127
    },
    {
      "midi": 71,
      "hit": false,
      "t": 141000,
      "d": 787.5,
      "v": 127
    },
    {
      "midi": 74,
      "hit": false,
      "t": 141000,
      "d": 787.5,
      "v": 127
    },
    {
      "midi": 43,
      "hit": false,
      "t": 141000,
      "d": 937.5,
      "v": 127
    },
    {
      "midi": 62,
      "hit": false,
      "t": 141768.75,
      "d": 581.25,
      "v": 127
    },
    {
      "midi": 67,
      "hit": false,
      "t": 142006.25,
      "d": 225,
      "v": 127
    },
    {
      "midi": 43,
      "hit": false,
      "t": 142143.75,
      "d": 181.25,
      "v": 127
    },
    {
      "midi": 71,
      "hit": false,
      "t": 142256.25,
      "d": 131.25,
      "v": 127
    },
    {
      "midi": 67,
      "hit": false,
      "t": 142281.25,
      "d": 87.5,
      "v": 127
    },
    {
      "midi": 59,
      "hit": false,
      "t": 142500,
      "d": 600,
      "v": 127
    },
    {
      "midi": 62,
      "hit": false,
      "t": 142500,
      "d": 656.25,
      "v": 127
    },
    {
      "midi": 64,
      "hit": false,
      "t": 142500,
      "d": 787.5,
      "v": 127
    },
    {
      "midi": 68,
      "hit": false,
      "t": 142500,
      "d": 787.5,
      "v": 127
    },
    {
      "midi": 40,
      "hit": false,
      "t": 142500,
      "d": 937.5,
      "v": 127
    },
    {
      "midi": 59,
      "hit": false,
      "t": 143268.75,
      "d": 581.25,
      "v": 127
    },
    {
      "midi": 62,
      "hit": false,
      "t": 143506.25,
      "d": 225,
      "v": 127
    },
    {
      "midi": 40,
      "hit": false,
      "t": 143643.75,
      "d": 181.25,
      "v": 127
    },
    {
      "midi": 64,
      "hit": false,
      "t": 143756.25,
      "d": 131.25,
      "v": 127
    },
    {
      "midi": 62,
      "hit": false,
      "t": 143781.25,
      "d": 87.5,
      "v": 127
    },
    {
      "midi": 64,
      "hit": false,
      "t": 144000,
      "d": 600,
      "v": 127
    },
    {
      "midi": 67,
      "hit": false,
      "t": 144000,
      "d": 656.25,
      "v": 127
    },
    {
      "midi": 69,
      "hit": false,
      "t": 144000,
      "d": 787.5,
      "v": 127
    },
    {
      "midi": 73,
      "hit": false,
      "t": 144000,
      "d": 787.5,
      "v": 127
    },
    {
      "midi": 45,
      "hit": false,
      "t": 144000,
      "d": 937.5,
      "v": 127
    },
    {
      "midi": 64,
      "hit": false,
      "t": 144768.75,
      "d": 581.25,
      "v": 127
    },
    {
      "midi": 67,
      "hit": false,
      "t": 145006.25,
      "d": 225,
      "v": 127
    },
    {
      "midi": 45,
      "hit": false,
      "t": 145143.75,
      "d": 181.25,
      "v": 127
    },
    {
      "midi": 69,
      "hit": false,
      "t": 145256.25,
      "d": 131.25,
      "v": 127
    },
    {
      "midi": 67,
      "hit": false,
      "t": 145281.25,
      "d": 87.5,
      "v": 127
    },
    {
      "midi": 62,
      "hit": false,
      "t": 145512.5,
      "d": 1006.25,
      "v": 127
    },
    {
      "midi": 50,
      "hit": false,
      "t": 145518.75,
      "d": 1375,
      "v": 127
    },
    {
      "midi": 66,
      "hit": false,
      "t": 145768.75,
      "d": 656.25,
      "v": 127
    },
    {
      "midi": 69,
      "hit": false,
      "t": 146000,
      "d": 368.75,
      "v": 127
    },
    {
      "midi": 72,
      "hit": false,
      "t": 146250,
      "d": 275,
      "v": 127
    },
    {
      "midi": 69,
      "hit": false,
      "t": 146512.5,
      "d": 343.75,
      "v": 127
    },
    {
      "midi": 66,
      "hit": false,
      "t": 146750,
      "d": 106.25,
      "v": 127
    },
    {
      "midi": 67,
      "hit": false,
      "t": 147000,
      "d": 331.25,
      "v": 127
    },
    {
      "midi": 43,
      "hit": false,
      "t": 147000,
      "d": 1881.25,
      "v": 127
    },
    {
      "midi": 62,
      "hit": false,
      "t": 147262.5,
      "d": 650,
      "v": 127
    },
    {
      "midi": 67,
      "hit": false,
      "t": 147481.25,
      "d": 412.5,
      "v": 127
    },
    {
      "midi": 74,
      "hit": false,
      "t": 147768.75,
      "d": 243.75,
      "v": 127
    },
    {
      "midi": 71,
      "hit": false,
      "t": 148031.25,
      "d": 1050,
      "v": 127
    },
    {
      "midi": 67,
      "hit": false,
      "t": 148250,
      "d": 825,
      "v": 127
    },
    {
      "midi": 62,
      "hit": false,
      "t": 148500,
      "d": 568.75,
      "v": 127
    },
    {
      "midi": 43,
      "hit": false,
      "t": 148981.25,
      "d": 800,
      "v": 127
    },
    {
      "midi": 62,
      "hit": false,
      "t": 149125,
      "d": 93.75,
      "v": 127
    },
    {
      "midi": 74,
      "hit": false,
      "t": 149231.25,
      "d": 243.75,
      "v": 127
    },
    {
      "midi": 71,
      "hit": false,
      "t": 149500,
      "d": 493.75,
      "v": 127
    },
    {
      "midi": 67,
      "hit": false,
      "t": 149731.25,
      "d": 268.75,
      "v": 127
    },
    {
      "midi": 66,
      "hit": false,
      "t": 150018.75,
      "d": 906.25,
      "v": 127
    },
    {
      "midi": 69,
      "hit": false,
      "t": 150268.75,
      "d": 575,
      "v": 127
    },
    {
      "midi": 71,
      "hit": false,
      "t": 150506.25,
      "d": 312.5,
      "v": 127
    },
    {
      "midi": 75,
      "hit": false,
      "t": 150756.25,
      "d": 231.25,
      "v": 127
    },
    {
      "midi": 71,
      "hit": false,
      "t": 151006.25,
      "d": 531.25,
      "v": 127
    },
    {
      "midi": 69,
      "hit": false,
      "t": 151250,
      "d": 281.25,
      "v": 127
    },
    {
      "midi": 66,
      "hit": false,
      "t": 151500,
      "d": 956.25,
      "v": 127
    },
    {
      "midi": 69,
      "hit": false,
      "t": 151750,
      "d": 618.75,
      "v": 127
    },
    {
      "midi": 71,
      "hit": false,
      "t": 152000,
      "d": 343.75,
      "v": 127
    },
    {
      "midi": 75,
      "hit": false,
      "t": 152250,
      "d": 231.25,
      "v": 127
    },
    {
      "midi": 71,
      "hit": false,
      "t": 152537.5,
      "d": 506.25,
      "v": 127
    },
    {
      "midi": 69,
      "hit": false,
      "t": 152756.25,
      "d": 250,
      "v": 127
    },
    {
      "midi": 47,
      "hit": false,
      "t": 152875,
      "d": 1393.75,
      "v": 127
    },
    {
      "midi": 66,
      "hit": false,
      "t": 153006.25,
      "d": 1131.25,
      "v": 127
    },
    {
      "midi": 35,
      "hit": false,
      "t": 153012.5,
      "d": 2818.75,
      "v": 127
    },
    {
      "midi": 69,
      "hit": false,
      "t": 153218.75,
      "d": 618.75,
      "v": 127
    },
    {
      "midi": 71,
      "hit": false,
      "t": 153475,
      "d": 325,
      "v": 127
    },
    {
      "midi": 75,
      "hit": false,
      "t": 153725,
      "d": 250,
      "v": 127
    },
    {
      "midi": 71,
      "hit": false,
      "t": 153981.25,
      "d": 212.5,
      "v": 127
    },
    {
      "midi": 71,
      "hit": false,
      "t": 154237.5,
      "d": 431.25,
      "v": 127
    },
    {
      "midi": 69,
      "hit": false,
      "t": 154250,
      "d": 306.25,
      "v": 127
    },
    {
      "midi": 42,
      "hit": false,
      "t": 154356.25,
      "d": 143.75,
      "v": 127
    },
    {
      "midi": 66,
      "hit": false,
      "t": 154481.25,
      "d": 956.25,
      "v": 127
    },
    {
      "midi": 47,
      "hit": false,
      "t": 154487.5,
      "d": 1387.5,
      "v": 127
    },
    {
      "midi": 69,
      "hit": false,
      "t": 154768.75,
      "d": 550,
      "v": 127
    },
    {
      "midi": 71,
      "hit": false,
      "t": 155000,
      "d": 306.25,
      "v": 127
    },
    {
      "midi": 75,
      "hit": false,
      "t": 155262.5,
      "d": 237.5,
      "v": 127
    },
    {
      "midi": 71,
      "hit": false,
      "t": 155518.75,
      "d": 237.5,
      "v": 127
    },
    {
      "midi": 69,
      "hit": false,
      "t": 155756.25,
      "d": 68.75,
      "v": 127
    },
    {
      "midi": 59,
      "hit": false,
      "t": 156018.75,
      "d": 1318.75,
      "v": 127
    },
    {
      "midi": 64,
      "hit": false,
      "t": 156312.5,
      "d": 525,
      "v": 127
    },
    {
      "midi": 67,
      "hit": false,
      "t": 156537.5,
      "d": 287.5,
      "v": 127
    },
    {
      "midi": 71,
      "hit": false,
      "t": 156787.5,
      "d": 268.75,
      "v": 127
    },
    {
      "midi": 67,
      "hit": false,
      "t": 157031.25,
      "d": 506.25,
      "v": 127
    },
    {
      "midi": 64,
      "hit": false,
      "t": 157256.25,
      "d": 300,
      "v": 127
    },
    {
      "midi": 59,
      "hit": false,
      "t": 157518.75,
      "d": 1100,
      "v": 127
    },
    {
      "midi": 64,
      "hit": false,
      "t": 157787.5,
      "d": 556.25,
      "v": 127
    },
    {
      "midi": 67,
      "hit": false,
      "t": 158018.75,
      "d": 325,
      "v": 127
    },
    {
      "midi": 71,
      "hit": false,
      "t": 158281.25,
      "d": 318.75,
      "v": 127
    },
    {
      "midi": 67,
      "hit": false,
      "t": 158518.75,
      "d": 506.25,
      "v": 127
    },
    {
      "midi": 64,
      "hit": false,
      "t": 158756.25,
      "d": 275,
      "v": 127
    },
    {
      "midi": 59,
      "hit": false,
      "t": 159006.25,
      "d": 1168.75,
      "v": 127
    },
    {
      "midi": 64,
      "hit": false,
      "t": 159268.75,
      "d": 606.25,
      "v": 127
    },
    {
      "midi": 67,
      "hit": false,
      "t": 159518.75,
      "d": 300,
      "v": 127
    },
    {
      "midi": 71,
      "hit": false,
      "t": 159750,
      "d": 356.25,
      "v": 127
    },
    {
      "midi": 67,
      "hit": false,
      "t": 160006.25,
      "d": 481.25,
      "v": 127
    },
    {
      "midi": 64,
      "hit": false,
      "t": 160231.25,
      "d": 281.25,
      "v": 127
    },
    {
      "midi": 59,
      "hit": false,
      "t": 160487.5,
      "d": 1050,
      "v": 127
    },
    {
      "midi": 64,
      "hit": false,
      "t": 160750,
      "d": 575,
      "v": 127
    },
    {
      "midi": 67,
      "hit": false,
      "t": 161006.25,
      "d": 293.75,
      "v": 127
    },
    {
      "midi": 71,
      "hit": false,
      "t": 161256.25,
      "d": 293.75,
      "v": 127
    },
    {
      "midi": 67,
      "hit": false,
      "t": 161506.25,
      "d": 237.5,
      "v": 127
    },
    {
      "midi": 64,
      "hit": false,
      "t": 161718.75,
      "d": 162.5,
      "v": 127
    },
    {
      "midi": 64,
      "hit": false,
      "t": 162018.75,
      "d": 1318.75,
      "v": 127
    },
    {
      "midi": 67,
      "hit": false,
      "t": 162312.5,
      "d": 525,
      "v": 127
    },
    {
      "midi": 69,
      "hit": false,
      "t": 162537.5,
      "d": 287.5,
      "v": 127
    },
    {
      "midi": 73,
      "hit": false,
      "t": 162787.5,
      "d": 268.75,
      "v": 127
    },
    {
      "midi": 69,
      "hit": false,
      "t": 163031.25,
      "d": 506.25,
      "v": 127
    },
    {
      "midi": 67,
      "hit": false,
      "t": 163256.25,
      "d": 300,
      "v": 127
    },
    {
      "midi": 64,
      "hit": false,
      "t": 163518.75,
      "d": 1100,
      "v": 127
    },
    {
      "midi": 67,
      "hit": false,
      "t": 163787.5,
      "d": 556.25,
      "v": 127
    },
    {
      "midi": 69,
      "hit": false,
      "t": 164018.75,
      "d": 325,
      "v": 127
    },
    {
      "midi": 73,
      "hit": false,
      "t": 164281.25,
      "d": 318.75,
      "v": 127
    },
    {
      "midi": 69,
      "hit": false,
      "t": 164518.75,
      "d": 506.25,
      "v": 127
    },
    {
      "midi": 67,
      "hit": false,
      "t": 164756.25,
      "d": 275,
      "v": 127
    },
    {
      "midi": 64,
      "hit": false,
      "t": 165006.25,
      "d": 1168.75,
      "v": 127
    },
    {
      "midi": 67,
      "hit": false,
      "t": 165268.75,
      "d": 606.25,
      "v": 127
    },
    {
      "midi": 69,
      "hit": false,
      "t": 165518.75,
      "d": 300,
      "v": 127
    },
    {
      "midi": 73,
      "hit": false,
      "t": 165750,
      "d": 356.25,
      "v": 127
    },
    {
      "midi": 69,
      "hit": false,
      "t": 166006.25,
      "d": 481.25,
      "v": 127
    },
    {
      "midi": 67,
      "hit": false,
      "t": 166231.25,
      "d": 281.25,
      "v": 127
    },
    {
      "midi": 64,
      "hit": false,
      "t": 166487.5,
      "d": 1050,
      "v": 127
    },
    {
      "midi": 67,
      "hit": false,
      "t": 166750,
      "d": 575,
      "v": 127
    },
    {
      "midi": 69,
      "hit": false,
      "t": 167006.25,
      "d": 293.75,
      "v": 127
    },
    {
      "midi": 73,
      "hit": false,
      "t": 167256.25,
      "d": 293.75,
      "v": 127
    },
    {
      "midi": 69,
      "hit": false,
      "t": 167506.25,
      "d": 237.5,
      "v": 127
    },
    {
      "midi": 67,
      "hit": false,
      "t": 167718.75,
      "d": 162.5,
      "v": 127
    },
    {
      "midi": 67,
      "hit": false,
      "t": 168000,
      "d": 331.25,
      "v": 127
    },
    {
      "midi": 45,
      "hit": false,
      "t": 168000,
      "d": 1881.25,
      "v": 127
    },
    {
      "midi": 64,
      "hit": false,
      "t": 168262.5,
      "d": 650,
      "v": 127
    },
    {
      "midi": 67,
      "hit": false,
      "t": 168481.25,
      "d": 412.5,
      "v": 127
    },
    {
      "midi": 72,
      "hit": false,
      "t": 168768.75,
      "d": 243.75,
      "v": 127
    },
    {
      "midi": 69,
      "hit": false,
      "t": 169031.25,
      "d": 1050,
      "v": 127
    },
    {
      "midi": 67,
      "hit": false,
      "t": 169250,
      "d": 825,
      "v": 127
    },
    {
      "midi": 64,
      "hit": false,
      "t": 169500,
      "d": 568.75,
      "v": 127
    },
    {
      "midi": 45,
      "hit": false,
      "t": 169981.25,
      "d": 800,
      "v": 127
    },
    {
      "midi": 64,
      "hit": false,
      "t": 170125,
      "d": 93.75,
      "v": 127
    },
    {
      "midi": 72,
      "hit": false,
      "t": 170231.25,
      "d": 243.75,
      "v": 127
    },
    {
      "midi": 69,
      "hit": false,
      "t": 170500,
      "d": 493.75,
      "v": 127
    },
    {
      "midi": 67,
      "hit": false,
      "t": 170731.25,
      "d": 268.75,
      "v": 127
    },
    {
      "midi": 62,
      "hit": false,
      "t": 171012.5,
      "d": 1006.25,
      "v": 127
    },
    {
      "midi": 50,
      "hit": false,
      "t": 171018.75,
      "d": 1375,
      "v": 127
    },
    {
      "midi": 66,
      "hit": false,
      "t": 171268.75,
      "d": 656.25,
      "v": 127
    },
    {
      "midi": 69,
      "hit": false,
      "t": 171500,
      "d": 368.75,
      "v": 127
    },
    {
      "midi": 72,
      "hit": false,
      "t": 171750,
      "d": 275,
      "v": 127
    },
    {
      "midi": 69,
      "hit": false,
      "t": 172012.5,
      "d": 343.75,
      "v": 127
    },
    {
      "midi": 66,
      "hit": false,
      "t": 172250,
      "d": 106.25,
      "v": 127
    },
    {
      "midi": 62,
      "hit": false,
      "t": 172500,
      "d": 600,
      "v": 127
    },
    {
      "midi": 66,
      "hit": false,
      "t": 172500,
      "d": 656.25,
      "v": 127
    },
    {
      "midi": 70,
      "hit": false,
      "t": 172500,
      "d": 787.5,
      "v": 127
    },
    {
      "midi": 74,
      "hit": false,
      "t": 172500,
      "d": 787.5,
      "v": 127
    },
    {
      "midi": 50,
      "hit": false,
      "t": 172500,
      "d": 937.5,
      "v": 127
    },
    {
      "midi": 38,
      "hit": false,
      "t": 172506.25,
      "d": 1318.75,
      "v": 127
    },
    {
      "midi": 62,
      "hit": false,
      "t": 173268.75,
      "d": 581.25,
      "v": 127
    },
    {
      "midi": 66,
      "hit": false,
      "t": 173506.25,
      "d": 225,
      "v": 127
    },
    {
      "midi": 50,
      "hit": false,
      "t": 173643.75,
      "d": 218.75,
      "v": 127
    },
    {
      "midi": 70,
      "hit": false,
      "t": 173756.25,
      "d": 131.25,
      "v": 127
    },
    {
      "midi": 66,
      "hit": false,
      "t": 173781.25,
      "d": 87.5,
      "v": 127
    },
    {
      "midi": 62,
      "hit": false,
      "t": 174012.5,
      "d": 1143.75,
      "v": 127
    },
    {
      "midi": 43,
      "hit": false,
      "t": 174012.5,
      "d": 1212.5,
      "v": 127
    },
    {
      "midi": 67,
      "hit": false,
      "t": 174281.25,
      "d": 562.5,
      "v": 127
    },
    {
      "midi": 71,
      "hit": false,
      "t": 174512.5,
      "d": 300,
      "v": 127
    },
    {
      "midi": 74,
      "hit": false,
      "t": 174762.5,
      "d": 256.25,
      "v": 127
    },
    {
      "midi": 71,
      "hit": false,
      "t": 175006.25,
      "d": 712.5,
      "v": 127
    },
    {
      "midi": 67,
      "hit": false,
      "t": 175256.25,
      "d": 387.5,
      "v": 127
    },
    {
      "midi": 43,
      "hit": false,
      "t": 175406.25,
      "d": 1512.5,
      "v": 127
    },
    {
      "midi": 62,
      "hit": false,
      "t": 175531.25,
      "d": 1062.5,
      "v": 127
    },
    {
      "midi": 67,
      "hit": false,
      "t": 175781.25,
      "d": 537.5,
      "v": 127
    },
    {
      "midi": 71,
      "hit": false,
      "t": 176000,
      "d": 306.25,
      "v": 127
    },
    {
      "midi": 74,
      "hit": false,
      "t": 176250,
      "d": 231.25,
      "v": 127
    },
    {
      "midi": 71,
      "hit": false,
      "t": 176518.75,
      "d": 250,
      "v": 127
    },
    {
      "midi": 67,
      "hit": false,
      "t": 176756.25,
      "d": 106.25,
      "v": 127
    },
    {
      "midi": 66,
      "hit": false,
      "t": 177000,
      "d": 1156.25,
      "v": 127
    },
    {
      "midi": 69,
      "hit": false,
      "t": 177262.5,
      "d": 581.25,
      "v": 127
    },
    {
      "midi": 71,
      "hit": false,
      "t": 177512.5,
      "d": 312.5,
      "v": 127
    },
    {
      "midi": 75,
      "hit": false,
      "t": 177762.5,
      "d": 350,
      "v": 127
    },
    {
      "midi": 71,
      "hit": false,
      "t": 178012.5,
      "d": 525,
      "v": 127
    },
    {
      "midi": 69,
      "hit": false,
      "t": 178250,
      "d": 268.75,
      "v": 127
    },
    {
      "midi": 47,
      "hit": false,
      "t": 178500,
      "d": 1275,
      "v": 127
    },
    {
      "midi": 66,
      "hit": false,
      "t": 178506.25,
      "d": 900,
      "v": 127
    },
    {
      "midi": 69,
      "hit": false,
      "t": 178793.75,
      "d": 531.25,
      "v": 127
    },
    {
      "midi": 71,
      "hit": false,
      "t": 179018.75,
      "d": 306.25,
      "v": 127
    },
    {
      "midi": 75,
      "hit": false,
      "t": 179268.75,
      "d": 300,
      "v": 127
    },
    {
      "midi": 71,
      "hit": false,
      "t": 179506.25,
      "d": 256.25,
      "v": 127
    },
    {
      "midi": 69,
      "hit": false,
      "t": 179781.25,
      "d": 131.25,
      "v": 127
    },
    {
      "midi": 59,
      "hit": false,
      "t": 180000,
      "d": 1156.25,
      "v": 127
    },
    {
      "midi": 64,
      "hit": false,
      "t": 180262.5,
      "d": 581.25,
      "v": 127
    },
    {
      "midi": 67,
      "hit": false,
      "t": 180512.5,
      "d": 312.5,
      "v": 127
    },
    {
      "midi": 71,
      "hit": false,
      "t": 180762.5,
      "d": 350,
      "v": 127
    },
    {
      "midi": 67,
      "hit": false,
      "t": 181012.5,
      "d": 525,
      "v": 127
    },
    {
      "midi": 64,
      "hit": false,
      "t": 181250,
      "d": 268.75,
      "v": 127
    },
    {
      "midi": 40,
      "hit": false,
      "t": 181500,
      "d": 1275,
      "v": 127
    },
    {
      "midi": 59,
      "hit": false,
      "t": 181506.25,
      "d": 900,
      "v": 127
    },
    {
      "midi": 64,
      "hit": false,
      "t": 181793.75,
      "d": 531.25,
      "v": 127
    },
    {
      "midi": 67,
      "hit": false,
      "t": 182018.75,
      "d": 306.25,
      "v": 127
    },
    {
      "midi": 71,
      "hit": false,
      "t": 182268.75,
      "d": 300,
      "v": 127
    },
    {
      "midi": 67,
      "hit": false,
      "t": 182506.25,
      "d": 256.25,
      "v": 127
    },
    {
      "midi": 64,
      "hit": false,
      "t": 182781.25,
      "d": 131.25,
      "v": 127
    },
    {
      "midi": 50,
      "hit": false,
      "t": 183000,
      "d": 743.75,
      "v": 127
    },
    {
      "midi": 62,
      "hit": false,
      "t": 183000,
      "d": 1100,
      "v": 127
    },
    {
      "midi": 38,
      "hit": false,
      "t": 183000,
      "d": 1381.25,
      "v": 127
    },
    {
      "midi": 65,
      "hit": false,
      "t": 183256.25,
      "d": 575,
      "v": 127
    },
    {
      "midi": 69,
      "hit": false,
      "t": 183512.5,
      "d": 237.5,
      "v": 127
    },
    {
      "midi": 72,
      "hit": false,
      "t": 183762.5,
      "d": 318.75,
      "v": 127
    },
    {
      "midi": 69,
      "hit": false,
      "t": 184006.25,
      "d": 412.5,
      "v": 127
    },
    {
      "midi": 50,
      "hit": false,
      "t": 184131.25,
      "d": 262.5,
      "v": 127
    },
    {
      "midi": 62,
      "hit": false,
      "t": 184250,
      "d": 156.25,
      "v": 127
    },
    {
      "midi": 43,
      "hit": false,
      "t": 184500,
      "d": 1450,
      "v": 127
    },
    {
      "midi": 62,
      "hit": false,
      "t": 184512.5,
      "d": 1068.75,
      "v": 127
    },
    {
      "midi": 65,
      "hit": false,
      "t": 184762.5,
      "d": 568.75,
      "v": 127
    },
    {
      "midi": 67,
      "hit": false,
      "t": 185006.25,
      "d": 337.5,
      "v": 127
    },
    {
      "midi": 71,
      "hit": false,
      "t": 185262.5,
      "d": 218.75,
      "v": 127
    },
    {
      "midi": 67,
      "hit": false,
      "t": 185512.5,
      "d": 362.5,
      "v": 127
    },
    {
      "midi": 65,
      "hit": false,
      "t": 185756.25,
      "d": 162.5,
      "v": 127
    },
    {
      "midi": 60,
      "hit": false,
      "t": 186000,
      "d": 600,
      "v": 127
    },
    {
      "midi": 64,
      "hit": false,
      "t": 186000,
      "d": 656.25,
      "v": 127
    },
    {
      "midi": 67,
      "hit": false,
      "t": 186000,
      "d": 787.5,
      "v": 127
    },
    {
      "midi": 72,
      "hit": false,
      "t": 186000,
      "d": 787.5,
      "v": 127
    },
    {
      "midi": 48,
      "hit": false,
      "t": 186000,
      "d": 937.5,
      "v": 127
    },
    {
      "midi": 36,
      "hit": false,
      "t": 186006.25,
      "d": 1318.75,
      "v": 127
    },
    {
      "midi": 60,
      "hit": false,
      "t": 186768.75,
      "d": 581.25,
      "v": 127
    },
    {
      "midi": 64,
      "hit": false,
      "t": 187006.25,
      "d": 225,
      "v": 127
    },
    {
      "midi": 48,
      "hit": false,
      "t": 187143.75,
      "d": 218.75,
      "v": 127
    },
    {
      "midi": 67,
      "hit": false,
      "t": 187256.25,
      "d": 131.25,
      "v": 127
    },
    {
      "midi": 64,
      "hit": false,
      "t": 187281.25,
      "d": 87.5,
      "v": 127
    },
    {
      "midi": 60,
      "hit": false,
      "t": 187500,
      "d": 600,
      "v": 127
    },
    {
      "midi": 63,
      "hit": false,
      "t": 187500,
      "d": 656.25,
      "v": 127
    },
    {
      "midi": 67,
      "hit": false,
      "t": 187500,
      "d": 787.5,
      "v": 127
    },
    {
      "midi": 72,
      "hit": false,
      "t": 187500,
      "d": 787.5,
      "v": 127
    },
    {
      "midi": 48,
      "hit": false,
      "t": 187500,
      "d": 937.5,
      "v": 127
    },
    {
      "midi": 36,
      "hit": false,
      "t": 187506.25,
      "d": 1318.75,
      "v": 127
    },
    {
      "midi": 60,
      "hit": false,
      "t": 188268.75,
      "d": 581.25,
      "v": 127
    },
    {
      "midi": 63,
      "hit": false,
      "t": 188506.25,
      "d": 225,
      "v": 127
    },
    {
      "midi": 48,
      "hit": false,
      "t": 188643.75,
      "d": 218.75,
      "v": 127
    },
    {
      "midi": 67,
      "hit": false,
      "t": 188756.25,
      "d": 131.25,
      "v": 127
    },
    {
      "midi": 63,
      "hit": false,
      "t": 188781.25,
      "d": 87.5,
      "v": 127
    },
    {
      "midi": 62,
      "hit": false,
      "t": 189012.5,
      "d": 1006.25,
      "v": 127
    },
    {
      "midi": 43,
      "hit": false,
      "t": 189018.75,
      "d": 1375,
      "v": 127
    },
    {
      "midi": 67,
      "hit": false,
      "t": 189268.75,
      "d": 656.25,
      "v": 127
    },
    {
      "midi": 71,
      "hit": false,
      "t": 189500,
      "d": 368.75,
      "v": 127
    },
    {
      "midi": 74,
      "hit": false,
      "t": 189750,
      "d": 275,
      "v": 127
    },
    {
      "midi": 71,
      "hit": false,
      "t": 190012.5,
      "d": 343.75,
      "v": 127
    },
    {
      "midi": 67,
      "hit": false,
      "t": 190250,
      "d": 106.25,
      "v": 127
    },
    {
      "midi": 59,
      "hit": false,
      "t": 190500,
      "d": 600,
      "v": 127
    },
    {
      "midi": 62,
      "hit": false,
      "t": 190500,
      "d": 656.25,
      "v": 127
    },
    {
      "midi": 64,
      "hit": false,
      "t": 190500,
      "d": 787.5,
      "v": 127
    },
    {
      "midi": 68,
      "hit": false,
      "t": 190500,
      "d": 787.5,
      "v": 127
    },
    {
      "midi": 40,
      "hit": false,
      "t": 190500,
      "d": 937.5,
      "v": 127
    },
    {
      "midi": 59,
      "hit": false,
      "t": 191268.75,
      "d": 581.25,
      "v": 127
    },
    {
      "midi": 62,
      "hit": false,
      "t": 191506.25,
      "d": 225,
      "v": 127
    },
    {
      "midi": 40,
      "hit": false,
      "t": 191643.75,
      "d": 181.25,
      "v": 127
    },
    {
      "midi": 64,
      "hit": false,
      "t": 191756.25,
      "d": 131.25,
      "v": 127
    },
    {
      "midi": 62,
      "hit": false,
      "t": 191781.25,
      "d": 87.5,
      "v": 127
    },
    {
      "midi": 64,
      "hit": false,
      "t": 192000,
      "d": 600,
      "v": 127
    },
    {
      "midi": 67,
      "hit": false,
      "t": 192000,
      "d": 656.25,
      "v": 127
    },
    {
      "midi": 69,
      "hit": false,
      "t": 192000,
      "d": 787.5,
      "v": 127
    },
    {
      "midi": 73,
      "hit": false,
      "t": 192000,
      "d": 787.5,
      "v": 127
    },
    {
      "midi": 45,
      "hit": false,
      "t": 192000,
      "d": 937.5,
      "v": 127
    },
    {
      "midi": 64,
      "hit": false,
      "t": 192768.75,
      "d": 581.25,
      "v": 127
    },
    {
      "midi": 67,
      "hit": false,
      "t": 193006.25,
      "d": 225,
      "v": 127
    },
    {
      "midi": 45,
      "hit": false,
      "t": 193143.75,
      "d": 181.25,
      "v": 127
    },
    {
      "midi": 69,
      "hit": false,
      "t": 193256.25,
      "d": 131.25,
      "v": 127
    },
    {
      "midi": 67,
      "hit": false,
      "t": 193281.25,
      "d": 87.5,
      "v": 127
    },
    {
      "midi": 62,
      "hit": false,
      "t": 193500,
      "d": 600,
      "v": 127
    },
    {
      "midi": 66,
      "hit": false,
      "t": 193500,
      "d": 656.25,
      "v": 127
    },
    {
      "midi": 69,
      "hit": false,
      "t": 193500,
      "d": 787.5,
      "v": 127
    },
    {
      "midi": 72,
      "hit": false,
      "t": 193500,
      "d": 787.5,
      "v": 127
    },
    {
      "midi": 50,
      "hit": false,
      "t": 193500,
      "d": 937.5,
      "v": 127
    },
    {
      "midi": 38,
      "hit": false,
      "t": 193506.25,
      "d": 1318.75,
      "v": 127
    },
    {
      "midi": 62,
      "hit": false,
      "t": 194268.75,
      "d": 581.25,
      "v": 127
    },
    {
      "midi": 66,
      "hit": false,
      "t": 194506.25,
      "d": 225,
      "v": 127
    },
    {
      "midi": 50,
      "hit": false,
      "t": 194643.75,
      "d": 218.75,
      "v": 127
    },
    {
      "midi": 69,
      "hit": false,
      "t": 194756.25,
      "d": 131.25,
      "v": 127
    },
    {
      "midi": 66,
      "hit": false,
      "t": 194781.25,
      "d": 87.5,
      "v": 127
    },
    {
      "midi": 43,
      "hit": false,
      "t": 195000,
      "d": 743.75,
      "v": 127
    },
    {
      "midi": 62,
      "hit": false,
      "t": 195000,
      "d": 1100,
      "v": 127
    },
    {
      "midi": 67,
      "hit": false,
      "t": 195256.25,
      "d": 575,
      "v": 127
    },
    {
      "midi": 71,
      "hit": false,
      "t": 195512.5,
      "d": 237.5,
      "v": 127
    },
    {
      "midi": 74,
      "hit": false,
      "t": 195762.5,
      "d": 318.75,
      "v": 127
    },
    {
      "midi": 71,
      "hit": false,
      "t": 196006.25,
      "d": 412.5,
      "v": 127
    },
    {
      "midi": 43,
      "hit": false,
      "t": 196131.25,
      "d": 243.75,
      "v": 127
    },
    {
      "midi": 62,
      "hit": false,
      "t": 196250,
      "d": 156.25,
      "v": 127
    },
    {
      "midi": 48,
      "hit": false,
      "t": 196500,
      "d": 1450,
      "v": 127
    },
    {
      "midi": 60,
      "hit": false,
      "t": 196512.5,
      "d": 1068.75,
      "v": 127
    },
    {
      "midi": 63,
      "hit": false,
      "t": 196762.5,
      "d": 568.75,
      "v": 127
    },
    {
      "midi": 67,
      "hit": false,
      "t": 197006.25,
      "d": 337.5,
      "v": 127
    },
    {
      "midi": 72,
      "hit": false,
      "t": 197262.5,
      "d": 218.75,
      "v": 127
    },
    {
      "midi": 67,
      "hit": false,
      "t": 197512.5,
      "d": 362.5,
      "v": 127
    },
    {
      "midi": 63,
      "hit": false,
      "t": 197756.25,
      "d": 162.5,
      "v": 127
    },
    {
      "midi": 62,
      "hit": false,
      "t": 198000,
      "d": 1156.25,
      "v": 127
    },
    {
      "midi": 67,
      "hit": false,
      "t": 198262.5,
      "d": 581.25,
      "v": 127
    },
    {
      "midi": 71,
      "hit": false,
      "t": 198512.5,
      "d": 312.5,
      "v": 127
    },
    {
      "midi": 74,
      "hit": false,
      "t": 198762.5,
      "d": 350,
      "v": 127
    },
    {
      "midi": 71,
      "hit": false,
      "t": 199012.5,
      "d": 525,
      "v": 127
    },
    {
      "midi": 67,
      "hit": false,
      "t": 199250,
      "d": 268.75,
      "v": 127
    },
    {
      "midi": 43,
      "hit": false,
      "t": 199500,
      "d": 1275,
      "v": 127
    },
    {
      "midi": 62,
      "hit": false,
      "t": 199506.25,
      "d": 900,
      "v": 127
    },
    {
      "midi": 67,
      "hit": false,
      "t": 199793.75,
      "d": 531.25,
      "v": 127
    },
    {
      "midi": 71,
      "hit": false,
      "t": 200018.75,
      "d": 306.25,
      "v": 127
    },
    {
      "midi": 74,
      "hit": false,
      "t": 200268.75,
      "d": 300,
      "v": 127
    },
    {
      "midi": 71,
      "hit": false,
      "t": 200506.25,
      "d": 256.25,
      "v": 127
    },
    {
      "midi": 67,
      "hit": false,
      "t": 200781.25,
      "d": 131.25,
      "v": 127
    },
    {
      "midi": 62,
      "hit": false,
      "t": 201018.75,
      "d": 1318.75,
      "v": 127
    },
    {
      "midi": 67,
      "hit": false,
      "t": 201312.5,
      "d": 525,
      "v": 127
    },
    {
      "midi": 71,
      "hit": false,
      "t": 201537.5,
      "d": 287.5,
      "v": 127
    },
    {
      "midi": 74,
      "hit": false,
      "t": 201787.5,
      "d": 268.75,
      "v": 127
    },
    {
      "midi": 71,
      "hit": false,
      "t": 202031.25,
      "d": 506.25,
      "v": 127
    },
    {
      "midi": 67,
      "hit": false,
      "t": 202256.25,
      "d": 300,
      "v": 127
    },
    {
      "midi": 62,
      "hit": false,
      "t": 202518.75,
      "d": 1100,
      "v": 127
    },
    {
      "midi": 67,
      "hit": false,
      "t": 202787.5,
      "d": 556.25,
      "v": 127
    },
    {
      "midi": 71,
      "hit": false,
      "t": 203018.75,
      "d": 325,
      "v": 127
    },
    {
      "midi": 74,
      "hit": false,
      "t": 203281.25,
      "d": 318.75,
      "v": 127
    },
    {
      "midi": 71,
      "hit": false,
      "t": 203518.75,
      "d": 506.25,
      "v": 127
    },
    {
      "midi": 67,
      "hit": false,
      "t": 203756.25,
      "d": 275,
      "v": 127
    }
  ]
}