{
  "jsonPath": "Unknown/Unknown/Maria Carey/fourth-of-july.json",
  "path": "Unknown\\Unknown\\Maria Carey\\Fourth of July.mid",
  "name": "Fourth of July",
  "difficulty": "Advanced",
  "bpm": 120,
  "notes": [
    {
      "midi": 66,
      "hit": false,
      "t": 0,
      "d": 250,
      "v": 100
    },
    {
      "midi": 69,
      "hit": false,
      "t": 0,
      "d": 250,
      "v": 100
    },
    {
      "midi": 73,
      "hit": false,
      "t": 0,
      "d": 250,
      "v": 100
    },
    {
      "midi": 50,
      "hit": false,
      "t": 0,
      "d": 2000,
      "v": 100
    },
    {
      "midi": 66,
      "hit": false,
      "t": 250,
      "d": 250,
      "v": 100
    },
    {
      "midi": 69,
      "hit": false,
      "t": 250,
      "d": 250,
      "v": 100
    },
    {
      "midi": 73,
      "hit": false,
      "t": 250,
      "d": 250,
      "v": 100
    },
    {
      "midi": 73,
      "hit": false,
      "t": 500,
      "d": 250,
      "v": 100
    },
    {
      "midi": 66,
      "hit": false,
      "t": 750,
      "d": 750,
      "v": 100
    },
    {
      "midi": 69,
      "hit": false,
      "t": 750,
      "d": 750,
      "v": 100
    },
    {
      "midi": 66,
      "hit": false,
      "t": 1750,
      "d": 125,
      "v": 100
    },
    {
      "midi": 69,
      "hit": false,
      "t": 1875,
      "d": 125,
      "v": 100
    },
    {
      "midi": 65,
      "hit": false,
      "t": 2000,
      "d": 250,
      "v": 100
    },
    {
      "midi": 69,
      "hit": false,
      "t": 2000,
      "d": 250,
      "v": 100
    },
    {
      "midi": 73,
      "hit": false,
      "t": 2000,
      "d": 250,
      "v": 100
    },
    {
      "midi": 49,
      "hit": false,
      "t": 2000,
      "d": 2000,
      "v": 100
    },
    {
      "midi": 59,
      "hit": false,
      "t": 2000,
      "d": 2000,
      "v": 100
    },
    {
      "midi": 73,
      "hit": false,
      "t": 2250,
      "d": 250,
      "v": 100
    },
    {
      "midi": 73,
      "hit": false,
      "t": 2500,
      "d": 250,
      "v": 100
    },
    {
      "midi": 65,
      "hit": false,
      "t": 2750,
      "d": 750,
      "v": 100
    },
    {
      "midi": 69,
      "hit": false,
      "t": 2750,
      "d": 750,
      "v": 100
    },
    {
      "midi": 69,
      "hit": false,
      "t": 4000,
      "d": 375,
      "v": 100
    },
    {
      "midi": 71,
      "hit": false,
      "t": 4000,
      "d": 375,
      "v": 100
    },
    {
      "midi": 54,
      "hit": false,
      "t": 4000,
      "d": 2000,
      "v": 100
    },
    {
      "midi": 64,
      "hit": false,
      "t": 4000,
      "d": 2000,
      "v": 100
    },
    {
      "midi": 68,
      "hit": false,
      "t": 4375,
      "d": 375,
      "v": 100
    },
    {
      "midi": 69,
      "hit": false,
      "t": 4750,
      "d": 250,
      "v": 100
    },
    {
      "midi": 69,
      "hit": false,
      "t": 5000,
      "d": 375,
      "v": 100
    },
    {
      "midi": 71,
      "hit": false,
      "t": 5000,
      "d": 375,
      "v": 100
    },
    {
      "midi": 68,
      "hit": false,
      "t": 5375,
      "d": 375,
      "v": 100
    },
    {
      "midi": 69,
      "hit": false,
      "t": 5750,
      "d": 250,
      "v": 100
    },
    {
      "midi": 62,
      "hit": false,
      "t": 6000,
      "d": 250,
      "v": 100
    },
    {
      "midi": 67,
      "hit": false,
      "t": 6000,
      "d": 250,
      "v": 100
    },
    {
      "midi": 52,
      "hit": false,
      "t": 6000,
      "d": 1500,
      "v": 100
    },
    {
      "midi": 58,
      "hit": false,
      "t": 6000,
      "d": 1500,
      "v": 100
    },
    {
      "midi": 67,
      "hit": false,
      "t": 6250,
      "d": 125,
      "v": 100
    },
    {
      "midi": 67,
      "hit": false,
      "t": 6375,
      "d": 375,
      "v": 100
    },
    {
      "midi": 67,
      "hit": false,
      "t": 6750,
      "d": 250,
      "v": 100
    },
    {
      "midi": 69,
      "hit": false,
      "t": 6750,
      "d": 250,
      "v": 100
    },
    {
      "midi": 62,
      "hit": false,
      "t": 7000,
      "d": 750,
      "v": 100
    },
    {
      "midi": 66,
      "hit": false,
      "t": 7000,
      "d": 750,
      "v": 100
    },
    {
      "midi": 52,
      "hit": false,
      "t": 7500,
      "d": 500,
      "v": 100
    },
    {
      "midi": 61,
      "hit": false,
      "t": 7500,
      "d": 500,
      "v": 100
    },
    {
      "midi": 66,
      "hit": false,
      "t": 7750,
      "d": 125,
      "v": 100
    },
    {
      "midi": 69,
      "hit": false,
      "t": 7875,
      "d": 125,
      "v": 100
    },
    {
      "midi": 66,
      "hit": false,
      "t": 8000,
      "d": 250,
      "v": 100
    },
    {
      "midi": 73,
      "hit": false,
      "t": 8000,
      "d": 250,
      "v": 100
    },
    {
      "midi": 50,
      "hit": false,
      "t": 8000,
      "d": 2000,
      "v": 100
    },
    {
      "midi": 57,
      "hit": false,
      "t": 8000,
      "d": 2000,
      "v": 100
    },
    {
      "midi": 74,
      "hit": false,
      "t": 8250,
      "d": 250,
      "v": 100
    },
    {
      "midi": 66,
      "hit": false,
      "t": 8500,
      "d": 250,
      "v": 100
    },
    {
      "midi": 73,
      "hit": false,
      "t": 8500,
      "d": 250,
      "v": 100
    },
    {
      "midi": 69,
      "hit": false,
      "t": 8750,
      "d": 500,
      "v": 100
    },
    {
      "midi": 71,
      "hit": false,
      "t": 9250,
      "d": 250,
      "v": 100
    },
    {
      "midi": 66,
      "hit": false,
      "t": 9750,
      "d": 125,
      "v": 100
    },
    {
      "midi": 69,
      "hit": false,
      "t": 9875,
      "d": 125,
      "v": 100
    },
    {
      "midi": 65,
      "hit": false,
      "t": 10000,
      "d": 250,
      "v": 100
    },
    {
      "midi": 69,
      "hit": false,
      "t": 10000,
      "d": 250,
      "v": 100
    },
    {
      "midi": 73,
      "hit": false,
      "t": 10000,
      "d": 250,
      "v": 100
    },
    {
      "midi": 49,
      "hit": false,
      "t": 10000,
      "d": 2000,
      "v": 100
    },
    {
      "midi": 59,
      "hit": false,
      "t": 10000,
      "d": 2000,
      "v": 100
    },
    {
      "midi": 74,
      "hit": false,
      "t": 10250,
      "d": 250,
      "v": 100
    },
    {
      "midi": 69,
      "hit": false,
      "t": 10500,
      "d": 250,
      "v": 100
    },
    {
      "midi": 73,
      "hit": false,
      "t": 10500,
      "d": 250,
      "v": 100
    },
    {
      "midi": 65,
      "hit": false,
      "t": 10750,
      "d": 750,
      "v": 100
    },
    {
      "midi": 68,
      "hit": false,
      "t": 10750,
      "d": 750,
      "v": 100
    },
    {
      "midi": 71,
      "hit": false,
      "t": 10750,
      "d": 750,
      "v": 100
    },
    {
      "midi": 69,
      "hit": false,
      "t": 12000,
      "d": 375,
      "v": 100
    },
    {
      "midi": 71,
      "hit": false,
      "t": 12000,
      "d": 375,
      "v": 100
    },
    {
      "midi": 54,
      "hit": false,
      "t": 12000,
      "d": 2000,
      "v": 100
    },
    {
      "midi": 64,
      "hit": false,
      "t": 12000,
      "d": 2000,
      "v": 100
    },
    {
      "midi": 68,
      "hit": false,
      "t": 12375,
      "d": 375,
      "v": 100
    },
    {
      "midi": 69,
      "hit": false,
      "t": 12750,
      "d": 250,
      "v": 100
    },
    {
      "midi": 69,
      "hit": false,
      "t": 13000,
      "d": 375,
      "v": 100
    },
    {
      "midi": 71,
      "hit": false,
      "t": 13000,
      "d": 375,
      "v": 100
    },
    {
      "midi": 68,
      "hit": false,
      "t": 13375,
      "d": 375,
      "v": 100
    },
    {
      "midi": 69,
      "hit": false,
      "t": 13750,
      "d": 250,
      "v": 100
    },
    {
      "midi": 67,
      "hit": false,
      "t": 14000,
      "d": 250,
      "v": 100
    },
    {
      "midi": 52,
      "hit": false,
      "t": 14000,
      "d": 1500,
      "v": 100
    },
    {
      "midi": 58,
      "hit": false,
      "t": 14000,
      "d": 1500,
      "v": 100
    },
    {
      "midi": 62,
      "hit": false,
      "t": 14000,
      "d": 1500,
      "v": 100
    },
    {
      "midi": 67,
      "hit": false,
      "t": 14250,
      "d": 125,
      "v": 100
    },
    {
      "midi": 67,
      "hit": false,
      "t": 14375,
      "d": 375,
      "v": 100
    },
    {
      "midi": 69,
      "hit": false,
      "t": 14750,
      "d": 250,
      "v": 100
    },
    {
      "midi": 66,
      "hit": false,
      "t": 15000,
      "d": 250,
      "v": 100
    },
    {
      "midi": 64,
      "hit": false,
      "t": 15250,
      "d": 250,
      "v": 100
    },
    {
      "midi": 62,
      "hit": false,
      "t": 15500,
      "d": 250,
      "v": 100
    },
    {
      "midi": 61,
      "hit": false,
      "t": 15750,
      "d": 250,
      "v": 100
    },
    {
      "midi": 59,
      "hit": false,
      "t": 16000,
      "d": 250,
      "v": 100
    },
    {
      "midi": 47,
      "hit": false,
      "t": 16000,
      "d": 1500,
      "v": 100
    },
    {
      "midi": 54,
      "hit": false,
      "t": 16000,
      "d": 1500,
      "v": 100
    },
    {
      "midi": 57,
      "hit": false,
      "t": 16000,
      "d": 1500,
      "v": 100
    },
    {
      "midi": 59,
      "hit": false,
      "t": 16250,
      "d": 125,
      "v": 100
    },
    {
      "midi": 62,
      "hit": false,
      "t": 16375,
      "d": 375,
      "v": 100
    },
    {
      "midi": 62,
      "hit": false,
      "t": 16750,
      "d": 250,
      "v": 100
    },
    {
      "midi": 62,
      "hit": false,
      "t": 17000,
      "d": 250,
      "v": 100
    },
    {
      "midi": 66,
      "hit": false,
      "t": 17000,
      "d": 250,
      "v": 100
    },
    {
      "midi": 62,
      "hit": false,
      "t": 17250,
      "d": 250,
      "v": 100
    },
    {
      "midi": 66,
      "hit": false,
      "t": 17250,
      "d": 250,
      "v": 100
    },
    {
      "midi": 69,
      "hit": false,
      "t": 17500,
      "d": 500,
      "v": 100
    },
    {
      "midi": 47,
      "hit": false,
      "t": 17500,
      "d": 500,
      "v": 100
    },
    {
      "midi": 47,
      "hit": false,
      "t": 18000,
      "d": 1000,
      "v": 100
    },
    {
      "midi": 54,
      "hit": false,
      "t": 18000,
      "d": 1000,
      "v": 100
    },
    {
      "midi": 57,
      "hit": false,
      "t": 18000,
      "d": 1000,
      "v": 100
    },
    {
      "midi": 62,
      "hit": false,
      "t": 19000,
      "d": 500,
      "v": 100
    },
    {
      "midi": 66,
      "hit": false,
      "t": 19000,
      "d": 500,
      "v": 100
    },
    {
      "midi": 71,
      "hit": false,
      "t": 19000,
      "d": 500,
      "v": 100
    },
    {
      "midi": 52,
      "hit": false,
      "t": 19000,
      "d": 500,
      "v": 100
    },
    {
      "midi": 62,
      "hit": false,
      "t": 19500,
      "d": 500,
      "v": 100
    },
    {
      "midi": 65,
      "hit": false,
      "t": 19500,
      "d": 500,
      "v": 100
    },
    {
      "midi": 69,
      "hit": false,
      "t": 19500,
      "d": 500,
      "v": 100
    },
    {
      "midi": 52,
      "hit": false,
      "t": 19500,
      "d": 500,
      "v": 100
    },
    {
      "midi": 61,
      "hit": false,
      "t": 20000,
      "d": 250,
      "v": 100
    },
    {
      "midi": 68,
      "hit": false,
      "t": 20000,
      "d": 250,
      "v": 100
    },
    {
      "midi": 45,
      "hit": false,
      "t": 20000,
      "d": 1500,
      "v": 100
    },
    {
      "midi": 69,
      "hit": false,
      "t": 20250,
      "d": 250,
      "v": 100
    },
    {
      "midi": 68,
      "hit": false,
      "t": 20500,
      "d": 250,
      "v": 100
    },
    {
      "midi": 64,
      "hit": false,
      "t": 20750,
      "d": 1000,
      "v": 100
    },
    {
      "midi": 45,
      "hit": false,
      "t": 21500,
      "d": 500,
      "v": 100
    },
    {
      "midi": 59,
      "hit": false,
      "t": 22000,
      "d": 1500,
      "v": 100
    },
    {
      "midi": 66,
      "hit": false,
      "t": 22000,
      "d": 1500,
      "v": 100
    },
    {
      "midi": 68,
      "hit": false,
      "t": 22000,
      "d": 1500,
      "v": 100
    },
    {
      "midi": 42,
      "hit": false,
      "t": 22000,
      "d": 1500,
      "v": 100
    },
    {
      "midi": 61,
      "hit": false,
      "t": 23500,
      "d": 500,
      "v": 100
    },
    {
      "midi": 66,
      "hit": false,
      "t": 23500,
      "d": 500,
      "v": 100
    },
    {
      "midi": 42,
      "hit": false,
      "t": 23500,
      "d": 500,
      "v": 100
    },
    {
      "midi": 59,
      "hit": false,
      "t": 24000,
      "d": 250,
      "v": 100
    },
    {
      "midi": 47,
      "hit": false,
      "t": 24000,
      "d": 2000,
      "v": 100
    },
    {
      "midi": 54,
      "hit": false,
      "t": 24000,
      "d": 2000,
      "v": 100
    },
    {
      "midi": 57,
      "hit": false,
      "t": 24000,
      "d": 2000,
      "v": 100
    },
    {
      "midi": 59,
      "hit": false,
      "t": 24250,
      "d": 125,
      "v": 100
    },
    {
      "midi": 62,
      "hit": false,
      "t": 24375,
      "d": 375,
      "v": 100
    },
    {
      "midi": 62,
      "hit": false,
      "t": 24750,
      "d": 250,
      "v": 100
    },
    {
      "midi": 66,
      "hit": false,
      "t": 25000,
      "d": 250,
      "v": 100
    },
    {
      "midi": 66,
      "hit": false,
      "t": 25250,
      "d": 250,
      "v": 100
    },
    {
      "midi": 69,
      "hit": false,
      "t": 25500,
      "d": 125,
      "v": 100
    },
    {
      "midi": 71,
      "hit": false,
      "t": 25625,
      "d": 125,
      "v": 100
    },
    {
      "midi": 69,
      "hit": false,
      "t": 25750,
      "d": 250,
      "v": 100
    },
    {
      "midi": 47,
      "hit": false,
      "t": 26000,
      "d": 1000,
      "v": 100
    },
    {
      "midi": 54,
      "hit": false,
      "t": 26000,
      "d": 1000,
      "v": 100
    },
    {
      "midi": 57,
      "hit": false,
      "t": 26000,
      "d": 1000,
      "v": 100
    },
    {
      "midi": 62,
      "hit": false,
      "t": 27000,
      "d": 500,
      "v": 100
    },
    {
      "midi": 66,
      "hit": false,
      "t": 27000,
      "d": 500,
      "v": 100
    },
    {
      "midi": 71,
      "hit": false,
      "t": 27000,
      "d": 500,
      "v": 100
    },
    {
      "midi": 52,
      "hit": false,
      "t": 27000,
      "d": 500,
      "v": 100
    },
    {
      "midi": 62,
      "hit": false,
      "t": 27500,
      "d": 500,
      "v": 100
    },
    {
      "midi": 65,
      "hit": false,
      "t": 27500,
      "d": 500,
      "v": 100
    },
    {
      "midi": 69,
      "hit": false,
      "t": 27500,
      "d": 500,
      "v": 100
    },
    {
      "midi": 52,
      "hit": false,
      "t": 27500,
      "d": 500,
      "v": 100
    },
    {
      "midi": 61,
      "hit": false,
      "t": 28000,
      "d": 250,
      "v": 100
    },
    {
      "midi": 68,
      "hit": false,
      "t": 28000,
      "d": 250,
      "v": 100
    },
    {
      "midi": 45,
      "hit": false,
      "t": 28000,
      "d": 1500,
      "v": 100
    },
    {
      "midi": 69,
      "hit": false,
      "t": 28250,
      "d": 250,
      "v": 100
    },
    {
      "midi": 61,
      "hit": false,
      "t": 28500,
      "d": 250,
      "v": 100
    },
    {
      "midi": 68,
      "hit": false,
      "t": 28500,
      "d": 250,
      "v": 100
    },
    {
      "midi": 64,
      "hit": false,
      "t": 28750,
      "d": 1000,
      "v": 100
    },
    {
      "midi": 40,
      "hit": false,
      "t": 29500,
      "d": 500,
      "v": 100
    },
    {
      "midi": 59,
      "hit": false,
      "t": 30000,
      "d": 1500,
      "v": 100
    },
    {
      "midi": 64,
      "hit": false,
      "t": 30000,
      "d": 1500,
      "v": 100
    },
    {
      "midi": 68,
      "hit": false,
      "t": 30000,
      "d": 1500,
      "v": 100
    },
    {
      "midi": 42,
      "hit": false,
      "t": 30000,
      "d": 1500,
      "v": 100
    },
    {
      "midi": 58,
      "hit": false,
      "t": 31500,
      "d": 500,
      "v": 100
    },
    {
      "midi": 61,
      "hit": false,
      "t": 31500,
      "d": 500,
      "v": 100
    },
    {
      "midi": 66,
      "hit": false,
      "t": 31500,
      "d": 500,
      "v": 100
    },
    {
      "midi": 42,
      "hit": false,
      "t": 31500,
      "d": 500,
      "v": 100
    },
    {
      "midi": 59,
      "hit": false,
      "t": 32000,
      "d": 250,
      "v": 100
    },
    {
      "midi": 47,
      "hit": false,
      "t": 32000,
      "d": 2000,
      "v": 100
    },
    {
      "midi": 54,
      "hit": false,
      "t": 32000,
      "d": 2000,
      "v": 100
    },
    {
      "midi": 57,
      "hit": false,
      "t": 32000,
      "d": 2000,
      "v": 100
    },
    {
      "midi": 59,
      "hit": false,
      "t": 32250,
      "d": 125,
      "v": 100
    },
    {
      "midi": 62,
      "hit": false,
      "t": 32375,
      "d": 375,
      "v": 100
    },
    {
      "midi": 62,
      "hit": false,
      "t": 32750,
      "d": 250,
      "v": 100
    },
    {
      "midi": 66,
      "hit": false,
      "t": 33000,
      "d": 250,
      "v": 100
    },
    {
      "midi": 66,
      "hit": false,
      "t": 33250,
      "d": 250,
      "v": 100
    },
    {
      "midi": 69,
      "hit": false,
      "t": 33500,
      "d": 250,
      "v": 100
    },
    {
      "midi": 69,
      "hit": false,
      "t": 33750,
      "d": 250,
      "v": 100
    },
    {
      "midi": 73,
      "hit": false,
      "t": 34000,
      "d": 250,
      "v": 100
    },
    {
      "midi": 47,
      "hit": false,
      "t": 34000,
      "d": 1000,
      "v": 100
    },
    {
      "midi": 54,
      "hit": false,
      "t": 34000,
      "d": 1000,
      "v": 100
    },
    {
      "midi": 57,
      "hit": false,
      "t": 34000,
      "d": 1000,
      "v": 100
    },
    {
      "midi": 73,
      "hit": false,
      "t": 34250,
      "d": 250,
      "v": 100
    },
    {
      "midi": 76,
      "hit": false,
      "t": 34500,
      "d": 500,
      "v": 100
    },
    {
      "midi": 62,
      "hit": false,
      "t": 35000,
      "d": 500,
      "v": 100
    },
    {
      "midi": 66,
      "hit": false,
      "t": 35000,
      "d": 500,
      "v": 100
    },
    {
      "midi": 71,
      "hit": false,
      "t": 35000,
      "d": 500,
      "v": 100
    },
    {
      "midi": 52,
      "hit": false,
      "t": 35000,
      "d": 500,
      "v": 100
    },
    {
      "midi": 62,
      "hit": false,
      "t": 35500,
      "d": 500,
      "v": 100
    },
    {
      "midi": 65,
      "hit": false,
      "t": 35500,
      "d": 500,
      "v": 100
    },
    {
      "midi": 69,
      "hit": false,
      "t": 35500,
      "d": 500,
      "v": 100
    },
    {
      "midi": 52,
      "hit": false,
      "t": 35500,
      "d": 500,
      "v": 100
    },
    {
      "midi": 61,
      "hit": false,
      "t": 36000,
      "d": 250,
      "v": 100
    },
    {
      "midi": 68,
      "hit": false,
      "t": 36000,
      "d": 250,
      "v": 100
    },
    {
      "midi": 45,
      "hit": false,
      "t": 36000,
      "d": 1500,
      "v": 100
    },
    {
      "midi": 69,
      "hit": false,
      "t": 36250,
      "d": 250,
      "v": 100
    },
    {
      "midi": 61,
      "hit": false,
      "t": 36500,
      "d": 250,
      "v": 100
    },
    {
      "midi": 68,
      "hit": false,
      "t": 36500,
      "d": 250,
      "v": 100
    },
    {
      "midi": 64,
      "hit": false,
      "t": 36750,
      "d": 1000,
      "v": 100
    },
    {
      "midi": 45,
      "hit": false,
      "t": 37500,
      "d": 500,
      "v": 100
    },
    {
      "midi": 61,
      "hit": false,
      "t": 38000,
      "d": 500,
      "v": 100
    },
    {
      "midi": 64,
      "hit": false,
      "t": 38000,
      "d": 500,
      "v": 100
    },
    {
      "midi": 45,
      "hit": false,
      "t": 38000,
      "d": 500,
      "v": 100
    },
    {
      "midi": 69,
      "hit": false,
      "t": 38500,
      "d": 500,
      "v": 100
    },
    {
      "midi": 73,
      "hit": false,
      "t": 38500,
      "d": 500,
      "v": 100
    },
    {
      "midi": 64,
      "hit": false,
      "t": 39000,
      "d": 500,
      "v": 100
    },
    {
      "midi": 71,
      "hit": false,
      "t": 39000,
      "d": 500,
      "v": 100
    },
    {
      "midi": 61,
      "hit": false,
      "t": 39500,
      "d": 500,
      "v": 100
    },
    {
      "midi": 69,
      "hit": false,
      "t": 39500,
      "d": 500,
      "v": 100
    },
    {
      "midi": 59,
      "hit": false,
      "t": 40000,
      "d": 1500,
      "v": 100
    },
    {
      "midi": 64,
      "hit": false,
      "t": 40000,
      "d": 1500,
      "v": 100
    },
    {
      "midi": 68,
      "hit": false,
      "t": 40000,
      "d": 1500,
      "v": 100
    },
    {
      "midi": 42,
      "hit": false,
      "t": 40000,
      "d": 1500,
      "v": 100
    },
    {
      "midi": 58,
      "hit": false,
      "t": 41500,
      "d": 500,
      "v": 100
    },
    {
      "midi": 61,
      "hit": false,
      "t": 41500,
      "d": 500,
      "v": 100
    },
    {
      "midi": 66,
      "hit": false,
      "t": 41500,
      "d": 500,
      "v": 100
    },
    {
      "midi": 42,
      "hit": false,
      "t": 41500,
      "d": 500,
      "v": 100
    },
    {
      "midi": 59,
      "hit": false,
      "t": 42000,
      "d": 250,
      "v": 100
    },
    {
      "midi": 47,
      "hit": false,
      "t": 42000,
      "d": 2000,
      "v": 100
    },
    {
      "midi": 54,
      "hit": false,
      "t": 42000,
      "d": 2000,
      "v": 100
    },
    {
      "midi": 57,
      "hit": false,
      "t": 42000,
      "d": 2000,
      "v": 100
    },
    {
      "midi": 59,
      "hit": false,
      "t": 42250,
      "d": 125,
      "v": 100
    },
    {
      "midi": 62,
      "hit": false,
      "t": 42375,
      "d": 375,
      "v": 100
    },
    {
      "midi": 62,
      "hit": false,
      "t": 42750,
      "d": 250,
      "v": 100
    },
    {
      "midi": 66,
      "hit": false,
      "t": 43000,
      "d": 250,
      "v": 100
    },
    {
      "midi": 66,
      "hit": false,
      "t": 43250,
      "d": 250,
      "v": 100
    },
    {
      "midi": 69,
      "hit": false,
      "t": 43500,
      "d": 250,
      "v": 100
    },
    {
      "midi": 69,
      "hit": false,
      "t": 43750,
      "d": 250,
      "v": 100
    },
    {
      "midi": 73,
      "hit": false,
      "t": 44000,
      "d": 250,
      "v": 100
    },
    {
      "midi": 47,
      "hit": false,
      "t": 44000,
      "d": 1000,
      "v": 100
    },
    {
      "midi": 54,
      "hit": false,
      "t": 44000,
      "d": 1000,
      "v": 100
    },
    {
      "midi": 57,
      "hit": false,
      "t": 44000,
      "d": 1000,
      "v": 100
    },
    {
      "midi": 73,
      "hit": false,
      "t": 44250,
      "d": 750,
      "v": 100
    },
    {
      "midi": 62,
      "hit": false,
      "t": 45000,
      "d": 500,
      "v": 100
    },
    {
      "midi": 66,
      "hit": false,
      "t": 45000,
      "d": 500,
      "v": 100
    },
    {
      "midi": 71,
      "hit": false,
      "t": 45000,
      "d": 500,
      "v": 100
    },
    {
      "midi": 52,
      "hit": false,
      "t": 45000,
      "d": 500,
      "v": 100
    },
    {
      "midi": 62,
      "hit": false,
      "t": 45500,
      "d": 500,
      "v": 100
    },
    {
      "midi": 65,
      "hit": false,
      "t": 45500,
      "d": 500,
      "v": 100
    },
    {
      "midi": 69,
      "hit": false,
      "t": 45500,
      "d": 500,
      "v": 100
    },
    {
      "midi": 52,
      "hit": false,
      "t": 45500,
      "d": 500,
      "v": 100
    },
    {
      "midi": 64,
      "hit": false,
      "t": 46000,
      "d": 250,
      "v": 100
    },
    {
      "midi": 71,
      "hit": false,
      "t": 46000,
      "d": 250,
      "v": 100
    },
    {
      "midi": 45,
      "hit": false,
      "t": 46000,
      "d": 1500,
      "v": 100
    },
    {
      "midi": 73,
      "hit": false,
      "t": 46250,
      "d": 250,
      "v": 100
    },
    {
      "midi": 64,
      "hit": false,
      "t": 46500,
      "d": 250,
      "v": 100
    },
    {
      "midi": 71,
      "hit": false,
      "t": 46500,
      "d": 250,
      "v": 100
    },
    {
      "midi": 69,
      "hit": false,
      "t": 46750,
      "d": 1000,
      "v": 100
    },
    {
      "midi": 45,
      "hit": false,
      "t": 47500,
      "d": 500,
      "v": 100
    },
    {
      "midi": 59,
      "hit": false,
      "t": 48000,
      "d": 1500,
      "v": 100
    },
    {
      "midi": 61,
      "hit": false,
      "t": 48000,
      "d": 1500,
      "v": 100
    },
    {
      "midi": 64,
      "hit": false,
      "t": 48000,
      "d": 1500,
      "v": 100
    },
    {
      "midi": 45,
      "hit": false,
      "t": 48000,
      "d": 1500,
      "v": 100
    },
    {
      "midi": 66,
      "hit": false,
      "t": 49500,
      "d": 250,
      "v": 100
    },
    {
      "midi": 45,
      "hit": false,
      "t": 49500,
      "d": 500,
      "v": 100
    },
    {
      "midi": 71,
      "hit": false,
      "t": 49750,
      "d": 250,
      "v": 100
    },
    {
      "midi": 62,
      "hit": false,
      "t": 50000,
      "d": 250,
      "v": 100
    },
    {
      "midi": 66,
      "hit": false,
      "t": 50000,
      "d": 250,
      "v": 100
    },
    {
      "midi": 69,
      "hit": false,
      "t": 50000,
      "d": 250,
      "v": 100
    },
    {
      "midi": 40,
      "hit": false,
      "t": 50000,
      "d": 750,
      "v": 100
    },
    {
      "midi": 71,
      "hit": false,
      "t": 50250,
      "d": 250,
      "v": 100
    },
    {
      "midi": 62,
      "hit": false,
      "t": 50500,
      "d": 1000,
      "v": 100
    },
    {
      "midi": 66,
      "hit": false,
      "t": 50500,
      "d": 1000,
      "v": 100
    },
    {
      "midi": 40,
      "hit": false,
      "t": 50750,
      "d": 250,
      "v": 100
    },
    {
      "midi": 40,
      "hit": false,
      "t": 51000,
      "d": 1000,
      "v": 100
    },
    {
      "midi": 62,
      "hit": false,
      "t": 51500,
      "d": 250,
      "v": 100
    },
    {
      "midi": 66,
      "hit": false,
      "t": 51500,
      "d": 250,
      "v": 100
    },
    {
      "midi": 71,
      "hit": false,
      "t": 51750,
      "d": 250,
      "v": 100
    },
    {
      "midi": 61,
      "hit": false,
      "t": 52000,
      "d": 250,
      "v": 100
    },
    {
      "midi": 66,
      "hit": false,
      "t": 52000,
      "d": 250,
      "v": 100
    },
    {
      "midi": 69,
      "hit": false,
      "t": 52000,
      "d": 250,
      "v": 100
    },
    {
      "midi": 38,
      "hit": false,
      "t": 52000,
      "d": 750,
      "v": 100
    },
    {
      "midi": 71,
      "hit": false,
      "t": 52250,
      "d": 250,
      "v": 100
    },
    {
      "midi": 61,
      "hit": false,
      "t": 52500,
      "d": 1000,
      "v": 100
    },
    {
      "midi": 66,
      "hit": false,
      "t": 52500,
      "d": 1000,
      "v": 100
    },
    {
      "midi": 45,
      "hit": false,
      "t": 52750,
      "d": 250,
      "v": 100
    },
    {
      "midi": 45,
      "hit": false,
      "t": 53000,
      "d": 1000,
      "v": 100
    },
    {
      "midi": 61,
      "hit": false,
      "t": 53500,
      "d": 500,
      "v": 100
    },
    {
      "midi": 66,
      "hit": false,
      "t": 53500,
      "d": 500,
      "v": 100
    },
    {
      "midi": 69,
      "hit": false,
      "t": 53500,
      "d": 500,
      "v": 100
    },
    {
      "midi": 66,
      "hit": false,
      "t": 54000,
      "d": 125,
      "v": 100
    },
    {
      "midi": 38,
      "hit": false,
      "t": 54000,
      "d": 750,
      "v": 100
    },
    {
      "midi": 66,
      "hit": false,
      "t": 54125,
      "d": 125,
      "v": 100
    },
    {
      "midi": 61,
      "hit": false,
      "t": 54250,
      "d": 250,
      "v": 100
    },
    {
      "midi": 66,
      "hit": false,
      "t": 54250,
      "d": 250,
      "v": 100
    },
    {
      "midi": 71,
      "hit": false,
      "t": 54250,
      "d": 250,
      "v": 100
    },
    {
      "midi": 71,
      "hit": false,
      "t": 54500,
      "d": 250,
      "v": 100
    },
    {
      "midi": 61,
      "hit": false,
      "t": 54750,
      "d": 1000,
      "v": 100
    },
    {
      "midi": 66,
      "hit": false,
      "t": 54750,
      "d": 1000,
      "v": 100
    },
    {
      "midi": 69,
      "hit": false,
      "t": 54750,
      "d": 1000,
      "v": 100
    },
    {
      "midi": 38,
      "hit": false,
      "t": 54750,
      "d": 250,
      "v": 100
    },
    {
      "midi": 38,
      "hit": false,
      "t": 55000,
      "d": 1000,
      "v": 100
    },
    {
      "midi": 59,
      "hit": false,
      "t": 56000,
      "d": 250,
      "v": 100
    },
    {
      "midi": 47,
      "hit": false,
      "t": 56000,
      "d": 2000,
      "v": 100
    },
    {
      "midi": 54,
      "hit": false,
      "t": 56000,
      "d": 2000,
      "v": 100
    },
    {
      "midi": 61,
      "hit": false,
      "t": 56250,
      "d": 125,
      "v": 100
    },
    {
      "midi": 59,
      "hit": false,
      "t": 56375,
      "d": 250,
      "v": 100
    },
    {
      "midi": 62,
      "hit": false,
      "t": 56375,
      "d": 375,
      "v": 100
    },
    {
      "midi": 64,
      "hit": false,
      "t": 56750,
      "d": 250,
      "v": 100
    },
    {
      "midi": 66,
      "hit": false,
      "t": 57000,
      "d": 250,
      "v": 100
    },
    {
      "midi": 62,
      "hit": false,
      "t": 57250,
      "d": 250,
      "v": 100
    },
    {
      "midi": 69,
      "hit": false,
      "t": 57250,
      "d": 250,
      "v": 100
    },
    {
      "midi": 66,
      "hit": false,
      "t": 57500,
      "d": 250,
      "v": 100
    },
    {
      "midi": 62,
      "hit": false,
      "t": 57750,
      "d": 250,
      "v": 100
    },
    {
      "midi": 69,
      "hit": false,
      "t": 57750,
      "d": 250,
      "v": 100
    },
    {
      "midi": 71,
      "hit": false,
      "t": 57750,
      "d": 250,
      "v": 100
    },
    {
      "midi": 62,
      "hit": false,
      "t": 58000,
      "d": 250,
      "v": 100
    },
    {
      "midi": 69,
      "hit": false,
      "t": 58000,
      "d": 250,
      "v": 100
    },
    {
      "midi": 52,
      "hit": false,
      "t": 58000,
      "d": 750,
      "v": 100
    },
    {
      "midi": 71,
      "hit": false,
      "t": 58250,
      "d": 250,
      "v": 100
    },
    {
      "midi": 52,
      "hit": false,
      "t": 58750,
      "d": 250,
      "v": 100
    },
    {
      "midi": 52,
      "hit": false,
      "t": 59000,
      "d": 1000,
      "v": 100
    },
    {
      "midi": 62,
      "hit": false,
      "t": 59500,
      "d": 250,
      "v": 100
    },
    {
      "midi": 71,
      "hit": false,
      "t": 59750,
      "d": 250,
      "v": 100
    },
    {
      "midi": 62,
      "hit": false,
      "t": 60000,
      "d": 500,
      "v": 100
    },
    {
      "midi": 66,
      "hit": false,
      "t": 60000,
      "d": 500,
      "v": 100
    },
    {
      "midi": 45,
      "hit": false,
      "t": 60000,
      "d": 750,
      "v": 100
    },
    {
      "midi": 71,
      "hit": false,
      "t": 60500,
      "d": 250,
      "v": 100
    },
    {
      "midi": 61,
      "hit": false,
      "t": 60750,
      "d": 750,
      "v": 100
    },
    {
      "midi": 66,
      "hit": false,
      "t": 60750,
      "d": 750,
      "v": 100
    },
    {
      "midi": 69,
      "hit": false,
      "t": 60750,
      "d": 750,
      "v": 100
    },
    {
      "midi": 45,
      "hit": false,
      "t": 60750,
      "d": 1000,
      "v": 100
    },
    {
      "midi": 66,
      "hit": false,
      "t": 62000,
      "d": 250,
      "v": 100
    },
    {
      "midi": 73,
      "hit": false,
      "t": 62000,
      "d": 250,
      "v": 100
    },
    {
      "midi": 50,
      "hit": false,
      "t": 62000,
      "d": 750,
      "v": 100
    },
    {
      "midi": 69,
      "hit": false,
      "t": 62250,
      "d": 250,
      "v": 100
    },
    {
      "midi": 71,
      "hit": false,
      "t": 62500,
      "d": 250,
      "v": 100
    },
    {
      "midi": 69,
      "hit": false,
      "t": 62750,
      "d": 750,
      "v": 100
    },
    {
      "midi": 50,
      "hit": false,
      "t": 62750,
      "d": 250,
      "v": 100
    },
    {
      "midi": 50,
      "hit": false,
      "t": 63000,
      "d": 1000,
      "v": 100
    },
    {
      "midi": 61,
      "hit": false,
      "t": 63500,
      "d": 250,
      "v": 100
    },
    {
      "midi": 64,
      "hit": false,
      "t": 63500,
      "d": 250,
      "v": 100
    },
    {
      "midi": 62,
      "hit": false,
      "t": 63750,
      "d": 250,
      "v": 100
    },
    {
      "midi": 57,
      "hit": false,
      "t": 64000,
      "d": 500,
      "v": 100
    },
    {
      "midi": 61,
      "hit": false,
      "t": 64000,
      "d": 500,
      "v": 100
    },
    {
      "midi": 38,
      "hit": false,
      "t": 64000,
      "d": 1500,
      "v": 100
    },
    {
      "midi": 64,
      "hit": false,
      "t": 64500,
      "d": 250,
      "v": 100
    },
    {
      "midi": 66,
      "hit": false,
      "t": 64750,
      "d": 125,
      "v": 100
    },
    {
      "midi": 61,
      "hit": false,
      "t": 64875,
      "d": 500,
      "v": 100
    },
    {
      "midi": 64,
      "hit": false,
      "t": 64875,
      "d": 500,
      "v": 100
    },
    {
      "midi": 38,
      "hit": false,
      "t": 65500,
      "d": 500,
      "v": 100
    },
    {
      "midi": 59,
      "hit": false,
      "t": 66000,
      "d": 250,
      "v": 100
    },
    {
      "midi": 47,
      "hit": false,
      "t": 66000,
      "d": 2000,
      "v": 100
    },
    {
      "midi": 54,
      "hit": false,
      "t": 66000,
      "d": 2000,
      "v": 100
    },
    {
      "midi": 57,
      "hit": false,
      "t": 66000,
      "d": 2000,
      "v": 100
    },
    {
      "midi": 59,
      "hit": false,
      "t": 66250,
      "d": 125,
      "v": 100
    },
    {
      "midi": 62,
      "hit": false,
      "t": 66375,
      "d": 375,
      "v": 100
    },
    {
      "midi": 62,
      "hit": false,
      "t": 66750,
      "d": 250,
      "v": 100
    },
    {
      "midi": 62,
      "hit": false,
      "t": 67000,
      "d": 250,
      "v": 100
    },
    {
      "midi": 66,
      "hit": false,
      "t": 67000,
      "d": 250,
      "v": 100
    },
    {
      "midi": 66,
      "hit": false,
      "t": 67250,
      "d": 250,
      "v": 100
    },
    {
      "midi": 62,
      "hit": false,
      "t": 67500,
      "d": 500,
      "v": 100
    },
    {
      "midi": 66,
      "hit": false,
      "t": 67500,
      "d": 500,
      "v": 100
    },
    {
      "midi": 69,
      "hit": false,
      "t": 67500,
      "d": 500,
      "v": 100
    },
    {
      "midi": 47,
      "hit": false,
      "t": 68000,
      "d": 1000,
      "v": 100
    },
    {
      "midi": 54,
      "hit": false,
      "t": 68000,
      "d": 1000,
      "v": 100
    },
    {
      "midi": 57,
      "hit": false,
      "t": 68000,
      "d": 1000,
      "v": 100
    },
    {
      "midi": 62,
      "hit": false,
      "t": 69000,
      "d": 500,
      "v": 100
    },
    {
      "midi": 66,
      "hit": false,
      "t": 69000,
      "d": 500,
      "v": 100
    },
    {
      "midi": 71,
      "hit": false,
      "t": 69000,
      "d": 500,
      "v": 100
    },
    {
      "midi": 52,
      "hit": false,
      "t": 69000,
      "d": 500,
      "v": 100
    },
    {
      "midi": 62,
      "hit": false,
      "t": 69500,
      "d": 500,
      "v": 100
    },
    {
      "midi": 65,
      "hit": false,
      "t": 69500,
      "d": 500,
      "v": 100
    },
    {
      "midi": 69,
      "hit": false,
      "t": 69500,
      "d": 500,
      "v": 100
    },
    {
      "midi": 52,
      "hit": false,
      "t": 69500,
      "d": 500,
      "v": 100
    },
    {
      "midi": 61,
      "hit": false,
      "t": 70000,
      "d": 250,
      "v": 100
    },
    {
      "midi": 68,
      "hit": false,
      "t": 70000,
      "d": 250,
      "v": 100
    },
    {
      "midi": 45,
      "hit": false,
      "t": 70000,
      "d": 1500,
      "v": 100
    },
    {
      "midi": 69,
      "hit": false,
      "t": 70250,
      "d": 250,
      "v": 100
    },
    {
      "midi": 61,
      "hit": false,
      "t": 70500,
      "d": 250,
      "v": 100
    },
    {
      "midi": 68,
      "hit": false,
      "t": 70500,
      "d": 250,
      "v": 100
    },
    {
      "midi": 61,
      "hit": false,
      "t": 70750,
      "d": 1000,
      "v": 100
    },
    {
      "midi": 64,
      "hit": false,
      "t": 70750,
      "d": 1000,
      "v": 100
    },
    {
      "midi": 45,
      "hit": false,
      "t": 71500,
      "d": 500,
      "v": 100
    },
    {
      "midi": 59,
      "hit": false,
      "t": 72000,
      "d": 1500,
      "v": 100
    },
    {
      "midi": 64,
      "hit": false,
      "t": 72000,
      "d": 1500,
      "v": 100
    },
    {
      "midi": 68,
      "hit": false,
      "t": 72000,
      "d": 1500,
      "v": 100
    },
    {
      "midi": 42,
      "hit": false,
      "t": 72000,
      "d": 1500,
      "v": 100
    },
    {
      "midi": 58,
      "hit": false,
      "t": 73500,
      "d": 500,
      "v": 100
    },
    {
      "midi": 61,
      "hit": false,
      "t": 73500,
      "d": 500,
      "v": 100
    },
    {
      "midi": 66,
      "hit": false,
      "t": 73500,
      "d": 500,
      "v": 100
    },
    {
      "midi": 42,
      "hit": false,
      "t": 73500,
      "d": 500,
      "v": 100
    },
    {
      "midi": 59,
      "hit": false,
      "t": 74000,
      "d": 250,
      "v": 100
    },
    {
      "midi": 47,
      "hit": false,
      "t": 74000,
      "d": 2000,
      "v": 100
    },
    {
      "midi": 54,
      "hit": false,
      "t": 74000,
      "d": 2000,
      "v": 100
    },
    {
      "midi": 57,
      "hit": false,
      "t": 74000,
      "d": 2000,
      "v": 100
    },
    {
      "midi": 59,
      "hit": false,
      "t": 74250,
      "d": 125,
      "v": 100
    },
    {
      "midi": 62,
      "hit": false,
      "t": 74375,
      "d": 375,
      "v": 100
    },
    {
      "midi": 62,
      "hit": false,
      "t": 74750,
      "d": 250,
      "v": 100
    },
    {
      "midi": 66,
      "hit": false,
      "t": 75000,
      "d": 250,
      "v": 100
    },
    {
      "midi": 66,
      "hit": false,
      "t": 75250,
      "d": 250,
      "v": 100
    },
    {
      "midi": 69,
      "hit": false,
      "t": 75500,
      "d": 125,
      "v": 100
    },
    {
      "midi": 71,
      "hit": false,
      "t": 75625,
      "d": 125,
      "v": 100
    },
    {
      "midi": 69,
      "hit": false,
      "t": 75750,
      "d": 250,
      "v": 100
    },
    {
      "midi": 47,
      "hit": false,
      "t": 76000,
      "d": 1000,
      "v": 100
    },
    {
      "midi": 54,
      "hit": false,
      "t": 76000,
      "d": 1000,
      "v": 100
    },
    {
      "midi": 57,
      "hit": false,
      "t": 76000,
      "d": 1000,
      "v": 100
    },
    {
      "midi": 62,
      "hit": false,
      "t": 77000,
      "d": 500,
      "v": 100
    },
    {
      "midi": 66,
      "hit": false,
      "t": 77000,
      "d": 500,
      "v": 100
    },
    {
      "midi": 71,
      "hit": false,
      "t": 77000,
      "d": 500,
      "v": 100
    },
    {
      "midi": 52,
      "hit": false,
      "t": 77000,
      "d": 500,
      "v": 100
    },
    {
      "midi": 62,
      "hit": false,
      "t": 77500,
      "d": 500,
      "v": 100
    },
    {
      "midi": 65,
      "hit": false,
      "t": 77500,
      "d": 500,
      "v": 100
    },
    {
      "midi": 69,
      "hit": false,
      "t": 77500,
      "d": 500,
      "v": 100
    },
    {
      "midi": 52,
      "hit": false,
      "t": 77500,
      "d": 500,
      "v": 100
    },
    {
      "midi": 61,
      "hit": false,
      "t": 78000,
      "d": 250,
      "v": 100
    },
    {
      "midi": 68,
      "hit": false,
      "t": 78000,
      "d": 250,
      "v": 100
    },
    {
      "midi": 45,
      "hit": false,
      "t": 78000,
      "d": 1500,
      "v": 100
    },
    {
      "midi": 69,
      "hit": false,
      "t": 78250,
      "d": 250,
      "v": 100
    },
    {
      "midi": 61,
      "hit": false,
      "t": 78500,
      "d": 250,
      "v": 100
    },
    {
      "midi": 68,
      "hit": false,
      "t": 78500,
      "d": 250,
      "v": 100
    },
    {
      "midi": 61,
      "hit": false,
      "t": 78750,
      "d": 1000,
      "v": 100
    },
    {
      "midi": 64,
      "hit": false,
      "t": 78750,
      "d": 1000,
      "v": 100
    },
    {
      "midi": 40,
      "hit": false,
      "t": 79500,
      "d": 500,
      "v": 100
    },
    {
      "midi": 59,
      "hit": false,
      "t": 80000,
      "d": 1500,
      "v": 100
    },
    {
      "midi": 64,
      "hit": false,
      "t": 80000,
      "d": 1500,
      "v": 100
    },
    {
      "midi": 68,
      "hit": false,
      "t": 80000,
      "d": 1500,
      "v": 100
    },
    {
      "midi": 42,
      "hit": false,
      "t": 80000,
      "d": 1500,
      "v": 100
    },
    {
      "midi": 58,
      "hit": false,
      "t": 81500,
      "d": 500,
      "v": 100
    },
    {
      "midi": 61,
      "hit": false,
      "t": 81500,
      "d": 500,
      "v": 100
    },
    {
      "midi": 66,
      "hit": false,
      "t": 81500,
      "d": 500,
      "v": 100
    },
    {
      "midi": 42,
      "hit": false,
      "t": 81500,
      "d": 500,
      "v": 100
    },
    {
      "midi": 59,
      "hit": false,
      "t": 82000,
      "d": 250,
      "v": 100
    },
    {
      "midi": 47,
      "hit": false,
      "t": 82000,
      "d": 2000,
      "v": 100
    },
    {
      "midi": 54,
      "hit": false,
      "t": 82000,
      "d": 2000,
      "v": 100
    },
    {
      "midi": 57,
      "hit": false,
      "t": 82000,
      "d": 2000,
      "v": 100
    },
    {
      "midi": 59,
      "hit": false,
      "t": 82250,
      "d": 125,
      "v": 100
    },
    {
      "midi": 62,
      "hit": false,
      "t": 82375,
      "d": 375,
      "v": 100
    },
    {
      "midi": 62,
      "hit": false,
      "t": 82750,
      "d": 250,
      "v": 100
    },
    {
      "midi": 66,
      "hit": false,
      "t": 83000,
      "d": 250,
      "v": 100
    },
    {
      "midi": 66,
      "hit": false,
      "t": 83250,
      "d": 250,
      "v": 100
    },
    {
      "midi": 69,
      "hit": false,
      "t": 83500,
      "d": 250,
      "v": 100
    },
    {
      "midi": 69,
      "hit": false,
      "t": 83750,
      "d": 250,
      "v": 100
    },
    {
      "midi": 73,
      "hit": false,
      "t": 84000,
      "d": 125,
      "v": 100
    },
    {
      "midi": 47,
      "hit": false,
      "t": 84000,
      "d": 1000,
      "v": 100
    },
    {
      "midi": 54,
      "hit": false,
      "t": 84000,
      "d": 1000,
      "v": 100
    },
    {
      "midi": 57,
      "hit": false,
      "t": 84000,
      "d": 1000,
      "v": 100
    },
    {
      "midi": 73,
      "hit": false,
      "t": 84125,
      "d": 125,
      "v": 100
    },
    {
      "midi": 71,
      "hit": false,
      "t": 84250,
      "d": 125,
      "v": 100
    },
    {
      "midi": 73,
      "hit": false,
      "t": 84375,
      "d": 500,
      "v": 100
    },
    {
      "midi": 62,
      "hit": false,
      "t": 85000,
      "d": 500,
      "v": 100
    },
    {
      "midi": 66,
      "hit": false,
      "t": 85000,
      "d": 500,
      "v": 100
    },
    {
      "midi": 71,
      "hit": false,
      "t": 85000,
      "d": 500,
      "v": 100
    },
    {
      "midi": 52,
      "hit": false,
      "t": 85000,
      "d": 500,
      "v": 100
    },
    {
      "midi": 62,
      "hit": false,
      "t": 85500,
      "d": 500,
      "v": 100
    },
    {
      "midi": 65,
      "hit": false,
      "t": 85500,
      "d": 500,
      "v": 100
    },
    {
      "midi": 69,
      "hit": false,
      "t": 85500,
      "d": 500,
      "v": 100
    },
    {
      "midi": 52,
      "hit": false,
      "t": 85500,
      "d": 500,
      "v": 100
    },
    {
      "midi": 68,
      "hit": false,
      "t": 86000,
      "d": 250,
      "v": 100
    },
    {
      "midi": 71,
      "hit": false,
      "t": 86000,
      "d": 250,
      "v": 100
    },
    {
      "midi": 45,
      "hit": false,
      "t": 86000,
      "d": 1500,
      "v": 100
    },
    {
      "midi": 73,
      "hit": false,
      "t": 86250,
      "d": 250,
      "v": 100
    },
    {
      "midi": 68,
      "hit": false,
      "t": 86500,
      "d": 250,
      "v": 100
    },
    {
      "midi": 71,
      "hit": false,
      "t": 86500,
      "d": 250,
      "v": 100
    },
    {
      "midi": 61,
      "hit": false,
      "t": 86750,
      "d": 1000,
      "v": 100
    },
    {
      "midi": 69,
      "hit": false,
      "t": 86750,
      "d": 1000,
      "v": 100
    },
    {
      "midi": 45,
      "hit": false,
      "t": 87500,
      "d": 500,
      "v": 100
    },
    {
      "midi": 64,
      "hit": false,
      "t": 88000,
      "d": 1000,
      "v": 100
    },
    {
      "midi": 68,
      "hit": false,
      "t": 88000,
      "d": 1000,
      "v": 100
    },
    {
      "midi": 42,
      "hit": false,
      "t": 88000,
      "d": 1000,
      "v": 100
    },
    {
      "midi": 61,
      "hit": false,
      "t": 89000,
      "d": 1000,
      "v": 100
    },
    {
      "midi": 70,
      "hit": false,
      "t": 89000,
      "d": 1000,
      "v": 100
    },
    {
      "midi": 42,
      "hit": false,
      "t": 89000,
      "d": 1000,
      "v": 100
    },
    {
      "midi": 59,
      "hit": false,
      "t": 90000,
      "d": 250,
      "v": 100
    },
    {
      "midi": 47,
      "hit": false,
      "t": 90000,
      "d": 2000,
      "v": 100
    },
    {
      "midi": 54,
      "hit": false,
      "t": 90000,
      "d": 2000,
      "v": 100
    },
    {
      "midi": 57,
      "hit": false,
      "t": 90000,
      "d": 2000,
      "v": 100
    },
    {
      "midi": 59,
      "hit": false,
      "t": 90250,
      "d": 125,
      "v": 100
    },
    {
      "midi": 62,
      "hit": false,
      "t": 90375,
      "d": 375,
      "v": 100
    },
    {
      "midi": 62,
      "hit": false,
      "t": 90750,
      "d": 250,
      "v": 100
    },
    {
      "midi": 66,
      "hit": false,
      "t": 91000,
      "d": 250,
      "v": 100
    },
    {
      "midi": 66,
      "hit": false,
      "t": 91250,
      "d": 250,
      "v": 100
    },
    {
      "midi": 66,
      "hit": false,
      "t": 91500,
      "d": 250,
      "v": 100
    },
    {
      "midi": 69,
      "hit": false,
      "t": 91500,
      "d": 250,
      "v": 100
    },
    {
      "midi": 62,
      "hit": false,
      "t": 91750,
      "d": 250,
      "v": 100
    },
    {
      "midi": 69,
      "hit": false,
      "t": 91750,
      "d": 250,
      "v": 100
    },
    {
      "midi": 73,
      "hit": false,
      "t": 92000,
      "d": 250,
      "v": 100
    },
    {
      "midi": 47,
      "hit": false,
      "t": 92000,
      "d": 1000,
      "v": 100
    },
    {
      "midi": 54,
      "hit": false,
      "t": 92000,
      "d": 1000,
      "v": 100
    },
    {
      "midi": 57,
      "hit": false,
      "t": 92000,
      "d": 1000,
      "v": 100
    },
    {
      "midi": 76,
      "hit": false,
      "t": 92250,
      "d": 250,
      "v": 100
    },
    {
      "midi": 73,
      "hit": false,
      "t": 92500,
      "d": 500,
      "v": 100
    },
    {
      "midi": 62,
      "hit": false,
      "t": 93000,
      "d": 500,
      "v": 100
    },
    {
      "midi": 66,
      "hit": false,
      "t": 93000,
      "d": 500,
      "v": 100
    },
    {
      "midi": 71,
      "hit": false,
      "t": 93000,
      "d": 500,
      "v": 100
    },
    {
      "midi": 52,
      "hit": false,
      "t": 93000,
      "d": 500,
      "v": 100
    },
    {
      "midi": 62,
      "hit": false,
      "t": 93500,
      "d": 500,
      "v": 100
    },
    {
      "midi": 65,
      "hit": false,
      "t": 93500,
      "d": 500,
      "v": 100
    },
    {
      "midi": 69,
      "hit": false,
      "t": 93500,
      "d": 500,
      "v": 100
    },
    {
      "midi": 52,
      "hit": false,
      "t": 93500,
      "d": 500,
      "v": 100
    },
    {
      "midi": 68,
      "hit": false,
      "t": 94000,
      "d": 250,
      "v": 100
    },
    {
      "midi": 71,
      "hit": false,
      "t": 94000,
      "d": 250,
      "v": 100
    },
    {
      "midi": 45,
      "hit": false,
      "t": 94000,
      "d": 1500,
      "v": 100
    },
    {
      "midi": 73,
      "hit": false,
      "t": 94250,
      "d": 250,
      "v": 100
    },
    {
      "midi": 68,
      "hit": false,
      "t": 94500,
      "d": 250,
      "v": 100
    },
    {
      "midi": 71,
      "hit": false,
      "t": 94500,
      "d": 250,
      "v": 100
    },
    {
      "midi": 61,
      "hit": false,
      "t": 94750,
      "d": 1000,
      "v": 100
    },
    {
      "midi": 69,
      "hit": false,
      "t": 94750,
      "d": 1000,
      "v": 100
    },
    {
      "midi": 40,
      "hit": false,
      "t": 95500,
      "d": 500,
      "v": 100
    },
    {
      "midi": 59,
      "hit": false,
      "t": 96000,
      "d": 1500,
      "v": 100
    },
    {
      "midi": 64,
      "hit": false,
      "t": 96000,
      "d": 1500,
      "v": 100
    },
    {
      "midi": 68,
      "hit": false,
      "t": 96000,
      "d": 1500,
      "v": 100
    },
    {
      "midi": 42,
      "hit": false,
      "t": 96000,
      "d": 1500,
      "v": 100
    },
    {
      "midi": 58,
      "hit": false,
      "t": 97500,
      "d": 500,
      "v": 100
    },
    {
      "midi": 61,
      "hit": false,
      "t": 97500,
      "d": 500,
      "v": 100
    },
    {
      "midi": 68,
      "hit": false,
      "t": 97500,
      "d": 500,
      "v": 100
    },
    {
      "midi": 42,
      "hit": false,
      "t": 97500,
      "d": 500,
      "v": 100
    },
    {
      "midi": 59,
      "hit": false,
      "t": 98000,
      "d": 250,
      "v": 100
    },
    {
      "midi": 47,
      "hit": false,
      "t": 98000,
      "d": 2000,
      "v": 100
    },
    {
      "midi": 54,
      "hit": false,
      "t": 98000,
      "d": 2000,
      "v": 100
    },
    {
      "midi": 57,
      "hit": false,
      "t": 98000,
      "d": 2000,
      "v": 100
    },
    {
      "midi": 59,
      "hit": false,
      "t": 98250,
      "d": 125,
      "v": 100
    },
    {
      "midi": 62,
      "hit": false,
      "t": 98375,
      "d": 375,
      "v": 100
    },
    {
      "midi": 62,
      "hit": false,
      "t": 98750,
      "d": 250,
      "v": 100
    },
    {
      "midi": 66,
      "hit": false,
      "t": 99000,
      "d": 250,
      "v": 100
    },
    {
      "midi": 66,
      "hit": false,
      "t": 99250,
      "d": 250,
      "v": 100
    },
    {
      "midi": 69,
      "hit": false,
      "t": 99500,
      "d": 250,
      "v": 100
    },
    {
      "midi": 69,
      "hit": false,
      "t": 99750,
      "d": 250,
      "v": 100
    },
    {
      "midi": 73,
      "hit": false,
      "t": 100000,
      "d": 250,
      "v": 100
    },
    {
      "midi": 47,
      "hit": false,
      "t": 100000,
      "d": 1000,
      "v": 100
    },
    {
      "midi": 54,
      "hit": false,
      "t": 100000,
      "d": 1000,
      "v": 100
    },
    {
      "midi": 57,
      "hit": false,
      "t": 100000,
      "d": 1000,
      "v": 100
    },
    {
      "midi": 73,
      "hit": false,
      "t": 100250,
      "d": 125,
      "v": 100
    },
    {
      "midi": 76,
      "hit": false,
      "t": 100375,
      "d": 375,
      "v": 100
    },
    {
      "midi": 73,
      "hit": false,
      "t": 100750,
      "d": 250,
      "v": 100
    },
    {
      "midi": 62,
      "hit": false,
      "t": 101000,
      "d": 500,
      "v": 100
    },
    {
      "midi": 66,
      "hit": false,
      "t": 101000,
      "d": 500,
      "v": 100
    },
    {
      "midi": 71,
      "hit": false,
      "t": 101000,
      "d": 500,
      "v": 100
    },
    {
      "midi": 52,
      "hit": false,
      "t": 101000,
      "d": 500,
      "v": 100
    },
    {
      "midi": 62,
      "hit": false,
      "t": 101500,
      "d": 500,
      "v": 100
    },
    {
      "midi": 65,
      "hit": false,
      "t": 101500,
      "d": 500,
      "v": 100
    },
    {
      "midi": 69,
      "hit": false,
      "t": 101500,
      "d": 500,
      "v": 100
    },
    {
      "midi": 52,
      "hit": false,
      "t": 101500,
      "d": 500,
      "v": 100
    },
    {
      "midi": 68,
      "hit": false,
      "t": 102000,
      "d": 250,
      "v": 100
    },
    {
      "midi": 71,
      "hit": false,
      "t": 102000,
      "d": 250,
      "v": 100
    },
    {
      "midi": 45,
      "hit": false,
      "t": 102000,
      "d": 1500,
      "v": 100
    },
    {
      "midi": 73,
      "hit": false,
      "t": 102250,
      "d": 250,
      "v": 100
    },
    {
      "midi": 68,
      "hit": false,
      "t": 102500,
      "d": 250,
      "v": 100
    },
    {
      "midi": 71,
      "hit": false,
      "t": 102500,
      "d": 250,
      "v": 100
    },
    {
      "midi": 61,
      "hit": false,
      "t": 102750,
      "d": 1000,
      "v": 100
    },
    {
      "midi": 69,
      "hit": false,
      "t": 102750,
      "d": 1000,
      "v": 100
    },
    {
      "midi": 45,
      "hit": false,
      "t": 103500,
      "d": 500,
      "v": 100
    },
    {
      "midi": 59,
      "hit": false,
      "t": 104000,
      "d": 2000,
      "v": 100
    },
    {
      "midi": 61,
      "hit": false,
      "t": 104000,
      "d": 2000,
      "v": 100
    },
    {
      "midi": 64,
      "hit": false,
      "t": 104000,
      "d": 2000,
      "v": 100
    },
    {
      "midi": 45,
      "hit": false,
      "t": 104000,
      "d": 2000,
      "v": 100
    }
  ]
}