{
  "jsonPath": "Unknown/Unknown/Brian Mcfadden/real-to-me.json",
  "path": "Unknown\\Unknown\\Brian Mcfadden\\Real To Me.mid",
  "name": "Real To Me",
  "difficulty": "Advanced",
  "bpm": 83.0000650167176,
  "notes": [
    {
      "midi": 43,
      "hit": false,
      "t": 5787.64606875,
      "d": 1518.0710999999992,
      "v": 116
    },
    {
      "midi": 48,
      "hit": false,
      "t": 5968.36881875,
      "d": 1343.3724416666664,
      "v": 102
    },
    {
      "midi": 51,
      "hit": false,
      "t": 6149.09156875,
      "d": 1171.6858291666667,
      "v": 82
    },
    {
      "midi": 55,
      "hit": false,
      "t": 6329.81431875,
      "d": 719.8789541666665,
      "v": 72
    },
    {
      "midi": 60,
      "hit": false,
      "t": 6510.53706875,
      "d": 406.6261875,
      "v": 114
    },
    {
      "midi": 63,
      "hit": false,
      "t": 6691.25981875,
      "d": 603.9151895833329,
      "v": 114
    },
    {
      "midi": 67,
      "hit": false,
      "t": 6871.98256875,
      "d": 429.2165312500001,
      "v": 112
    },
    {
      "midi": 55,
      "hit": false,
      "t": 7052.70531875,
      "d": 253.01184999999987,
      "v": 114
    },
    {
      "midi": 46,
      "hit": false,
      "t": 7233.4280687499995,
      "d": 1597.890314583332,
      "v": 98
    },
    {
      "midi": 51,
      "hit": false,
      "t": 7414.15081875,
      "d": 1423.1916562499973,
      "v": 92
    },
    {
      "midi": 55,
      "hit": false,
      "t": 7594.87356875,
      "d": 1209.3364020833314,
      "v": 86
    },
    {
      "midi": 58,
      "hit": false,
      "t": 7775.59631875,
      "d": 600.903143749998,
      "v": 88
    },
    {
      "midi": 63,
      "hit": false,
      "t": 7956.31906875,
      "d": 308.73469791666594,
      "v": 118
    },
    {
      "midi": 67,
      "hit": false,
      "t": 8137.04181875,
      "d": 643.0717854166651,
      "v": 100
    },
    {
      "midi": 70,
      "hit": false,
      "t": 8317.764568749999,
      "d": 521.0839291666653,
      "v": 104
    },
    {
      "midi": 58,
      "hit": false,
      "t": 8498.487318749998,
      "d": 311.74674374999995,
      "v": 114
    },
    {
      "midi": 41,
      "hit": false,
      "t": 8679.210068749999,
      "d": 1503.0108708333337,
      "v": 110
    },
    {
      "midi": 46,
      "hit": false,
      "t": 8859.932818749998,
      "d": 1305.7218687500026,
      "v": 102
    },
    {
      "midi": 50,
      "hit": false,
      "t": 9040.655568749999,
      "d": 1131.023210416668,
      "v": 100
    },
    {
      "midi": 53,
      "hit": false,
      "t": 9221.37831875,
      "d": 602.4091666666682,
      "v": 98
    },
    {
      "midi": 58,
      "hit": false,
      "t": 9402.10106875,
      "d": 365.9635687500013,
      "v": 116
    },
    {
      "midi": 62,
      "hit": false,
      "t": 9582.823818750001,
      "d": 561.7465479166658,
      "v": 88
    },
    {
      "midi": 65,
      "hit": false,
      "t": 9763.546568750002,
      "d": 424.6984624999968,
      "v": 94
    },
    {
      "midi": 53,
      "hit": false,
      "t": 9944.26931875,
      "d": 248.49378124999748,
      "v": 114
    },
    {
      "midi": 48,
      "hit": false,
      "t": 10124.99206875,
      "d": 1442.769954166668,
      "v": 114
    },
    {
      "midi": 53,
      "hit": false,
      "t": 10305.714818749999,
      "d": 1262.047204166669,
      "v": 110
    },
    {
      "midi": 56,
      "hit": false,
      "t": 10486.43756875,
      "d": 1081.3244541666681,
      "v": 92
    },
    {
      "midi": 60,
      "hit": false,
      "t": 10667.16031875,
      "d": 600.9031437499998,
      "v": 94
    },
    {
      "midi": 65,
      "hit": false,
      "t": 10847.88306875,
      "d": 719.8789541666683,
      "v": 114
    },
    {
      "midi": 68,
      "hit": false,
      "t": 11028.60581875,
      "d": 539.1562041666675,
      "v": 98
    },
    {
      "midi": 72,
      "hit": false,
      "t": 11209.328568750001,
      "d": 358.4334541666667,
      "v": 108
    },
    {
      "midi": 60,
      "hit": false,
      "t": 11390.05131875,
      "d": 177.7107041666677,
      "v": 102
    },
    {
      "midi": 43,
      "hit": false,
      "t": 11570.77406875,
      "d": 1518.0711000000065,
      "v": 116
    },
    {
      "midi": 48,
      "hit": false,
      "t": 11751.496818750002,
      "d": 1343.3724416666719,
      "v": 102
    },
    {
      "midi": 51,
      "hit": false,
      "t": 11932.219568750003,
      "d": 1171.6858291666704,
      "v": 82
    },
    {
      "midi": 55,
      "hit": false,
      "t": 12112.942318750003,
      "d": 719.8789541666702,
      "v": 72
    },
    {
      "midi": 60,
      "hit": false,
      "t": 12293.665068750004,
      "d": 406.62618750000183,
      "v": 114
    },
    {
      "midi": 63,
      "hit": false,
      "t": 12474.387818750005,
      "d": 603.9151895833365,
      "v": 114
    },
    {
      "midi": 67,
      "hit": false,
      "t": 12655.110568750006,
      "d": 429.21653125000194,
      "v": 112
    },
    {
      "midi": 55,
      "hit": false,
      "t": 12835.833318750007,
      "d": 253.01185000000078,
      "v": 114
    },
    {
      "midi": 46,
      "hit": false,
      "t": 13016.556068750007,
      "d": 1597.890314583332,
      "v": 98
    },
    {
      "midi": 51,
      "hit": false,
      "t": 13197.278818750006,
      "d": 1423.1916562499991,
      "v": 92
    },
    {
      "midi": 55,
      "hit": false,
      "t": 13378.001568750007,
      "d": 1209.3364020833324,
      "v": 86
    },
    {
      "midi": 58,
      "hit": false,
      "t": 13558.724318750008,
      "d": 600.903143749998,
      "v": 88
    },
    {
      "midi": 63,
      "hit": false,
      "t": 13739.447068750009,
      "d": 308.734697916665,
      "v": 118
    },
    {
      "midi": 67,
      "hit": false,
      "t": 13920.169818750008,
      "d": 643.0717854166651,
      "v": 100
    },
    {
      "midi": 70,
      "hit": false,
      "t": 14100.892568750007,
      "d": 521.0839291666653,
      "v": 104
    },
    {
      "midi": 58,
      "hit": false,
      "t": 14281.615318750006,
      "d": 311.74674374999995,
      "v": 114
    },
    {
      "midi": 41,
      "hit": false,
      "t": 14462.338068750007,
      "d": 1503.0108708333337,
      "v": 110
    },
    {
      "midi": 46,
      "hit": false,
      "t": 14643.060818750006,
      "d": 1305.7218687500026,
      "v": 102
    },
    {
      "midi": 50,
      "hit": false,
      "t": 14823.783568750006,
      "d": 1131.023210416668,
      "v": 100
    },
    {
      "midi": 53,
      "hit": false,
      "t": 15004.506318750007,
      "d": 602.4091666666682,
      "v": 98
    },
    {
      "midi": 58,
      "hit": false,
      "t": 15185.229068750008,
      "d": 365.9635687500013,
      "v": 116
    },
    {
      "midi": 62,
      "hit": false,
      "t": 15365.951818750009,
      "d": 561.7465479166658,
      "v": 88
    },
    {
      "midi": 65,
      "hit": false,
      "t": 15546.67456875001,
      "d": 424.6984624999968,
      "v": 94
    },
    {
      "midi": 53,
      "hit": false,
      "t": 15727.397318750009,
      "d": 248.49378124999748,
      "v": 114
    },
    {
      "midi": 48,
      "hit": false,
      "t": 15908.120068750008,
      "d": 1442.769954166668,
      "v": 114
    },
    {
      "midi": 53,
      "hit": false,
      "t": 16088.842818750007,
      "d": 1262.047204166669,
      "v": 110
    },
    {
      "midi": 56,
      "hit": false,
      "t": 16269.565568750008,
      "d": 1081.3244541666681,
      "v": 92
    },
    {
      "midi": 60,
      "hit": false,
      "t": 16450.28831875001,
      "d": 600.9031437500016,
      "v": 94
    },
    {
      "midi": 65,
      "hit": false,
      "t": 16631.01106875001,
      "d": 719.8789541666665,
      "v": 114
    },
    {
      "midi": 68,
      "hit": false,
      "t": 16811.73381875001,
      "d": 539.1562041666657,
      "v": 98
    },
    {
      "midi": 72,
      "hit": false,
      "t": 16992.45656875001,
      "d": 358.4334541666649,
      "v": 108
    },
    {
      "midi": 60,
      "hit": false,
      "t": 17173.17931875001,
      "d": 177.71070416666407,
      "v": 102
    },
    {
      "midi": 43,
      "hit": false,
      "t": 17353.90206875001,
      "d": 1518.071100000001,
      "v": 116
    },
    {
      "midi": 48,
      "hit": false,
      "t": 17534.624818750006,
      "d": 1343.37244166667,
      "v": 102
    },
    {
      "midi": 51,
      "hit": false,
      "t": 17715.347568750007,
      "d": 1171.6858291666686,
      "v": 82
    },
    {
      "midi": 55,
      "hit": false,
      "t": 17896.070318750008,
      "d": 719.8789541666702,
      "v": 72
    },
    {
      "midi": 60,
      "hit": false,
      "t": 18076.79306875001,
      "d": 406.62618750000183,
      "v": 114
    },
    {
      "midi": 63,
      "hit": false,
      "t": 18257.51581875001,
      "d": 603.9151895833347,
      "v": 114
    },
    {
      "midi": 67,
      "hit": false,
      "t": 18438.23856875001,
      "d": 429.2165312500001,
      "v": 112
    },
    {
      "midi": 55,
      "hit": false,
      "t": 18618.96131875001,
      "d": 253.01184999999896,
      "v": 114
    },
    {
      "midi": 46,
      "hit": false,
      "t": 18799.68406875001,
      "d": 1597.8903145833356,
      "v": 98
    },
    {
      "midi": 51,
      "hit": false,
      "t": 18980.40681875001,
      "d": 1423.1916562500046,
      "v": 92
    },
    {
      "midi": 55,
      "hit": false,
      "t": 19161.12956875001,
      "d": 1209.3364020833396,
      "v": 86
    },
    {
      "midi": 58,
      "hit": false,
      "t": 19341.85231875001,
      "d": 600.9031437500016,
      "v": 88
    },
    {
      "midi": 63,
      "hit": false,
      "t": 19522.57506875001,
      "d": 308.73469791666867,
      "v": 118
    },
    {
      "midi": 67,
      "hit": false,
      "t": 19703.297818750012,
      "d": 643.0717854166687,
      "v": 100
    },
    {
      "midi": 70,
      "hit": false,
      "t": 19884.020568750013,
      "d": 521.0839291666671,
      "v": 104
    },
    {
      "midi": 58,
      "hit": false,
      "t": 20064.743318750014,
      "d": 311.74674375000177,
      "v": 114
    },
    {
      "midi": 41,
      "hit": false,
      "t": 20245.466068750015,
      "d": 1503.0108708333282,
      "v": 110
    },
    {
      "midi": 46,
      "hit": false,
      "t": 20426.18881875001,
      "d": 1305.721868749999,
      "v": 102
    },
    {
      "midi": 50,
      "hit": false,
      "t": 20606.911568750013,
      "d": 1131.0232104166644,
      "v": 100
    },
    {
      "midi": 53,
      "hit": false,
      "t": 20787.634318750013,
      "d": 602.4091666666645,
      "v": 98
    },
    {
      "midi": 58,
      "hit": false,
      "t": 20968.357068750014,
      "d": 365.96356874999765,
      "v": 116
    },
    {
      "midi": 62,
      "hit": false,
      "t": 21149.07981875001,
      "d": 561.7465479166676,
      "v": 88
    },
    {
      "midi": 65,
      "hit": false,
      "t": 21329.802568750012,
      "d": 424.6984624999968,
      "v": 94
    },
    {
      "midi": 53,
      "hit": false,
      "t": 21510.525318750013,
      "d": 248.49378124999566,
      "v": 114
    },
    {
      "midi": 48,
      "hit": false,
      "t": 21691.248068750014,
      "d": 1442.7699541666625,
      "v": 114
    },
    {
      "midi": 53,
      "hit": false,
      "t": 21871.970818750007,
      "d": 1262.047204166669,
      "v": 110
    },
    {
      "midi": 56,
      "hit": false,
      "t": 22052.693568750008,
      "d": 1081.3244541666681,
      "v": 92
    },
    {
      "midi": 60,
      "hit": false,
      "t": 22233.41631875001,
      "d": 600.9031437500016,
      "v": 94
    },
    {
      "midi": 65,
      "hit": false,
      "t": 22414.13906875001,
      "d": 719.8789541666665,
      "v": 114
    },
    {
      "midi": 68,
      "hit": false,
      "t": 22594.86181875001,
      "d": 539.1562041666657,
      "v": 98
    },
    {
      "midi": 72,
      "hit": false,
      "t": 22775.58456875001,
      "d": 358.4334541666649,
      "v": 108
    },
    {
      "midi": 60,
      "hit": false,
      "t": 22956.307318750012,
      "d": 177.71070416666407,
      "v": 102
    },
    {
      "midi": 43,
      "hit": false,
      "t": 23137.03006875001,
      "d": 1518.071100000001,
      "v": 116
    },
    {
      "midi": 48,
      "hit": false,
      "t": 23317.752818750007,
      "d": 1343.37244166667,
      "v": 102
    },
    {
      "midi": 51,
      "hit": false,
      "t": 23498.475568750007,
      "d": 1171.6858291666686,
      "v": 82
    },
    {
      "midi": 55,
      "hit": false,
      "t": 23679.19831875001,
      "d": 719.8789541666702,
      "v": 72
    },
    {
      "midi": 60,
      "hit": false,
      "t": 23859.92106875001,
      "d": 406.62618750000183,
      "v": 114
    },
    {
      "midi": 63,
      "hit": false,
      "t": 24040.64381875001,
      "d": 603.9151895833347,
      "v": 114
    },
    {
      "midi": 67,
      "hit": false,
      "t": 24221.36656875001,
      "d": 429.2165312500001,
      "v": 112
    },
    {
      "midi": 55,
      "hit": false,
      "t": 24402.08931875001,
      "d": 253.01184999999896,
      "v": 114
    },
    {
      "midi": 46,
      "hit": false,
      "t": 24582.812068750012,
      "d": 1597.8903145833356,
      "v": 98
    },
    {
      "midi": 51,
      "hit": false,
      "t": 24763.53481875001,
      "d": 1423.1916562500046,
      "v": 92
    },
    {
      "midi": 55,
      "hit": false,
      "t": 24944.25756875001,
      "d": 1209.3364020833396,
      "v": 86
    },
    {
      "midi": 58,
      "hit": false,
      "t": 25124.98031875001,
      "d": 600.9031437500016,
      "v": 88
    },
    {
      "midi": 63,
      "hit": false,
      "t": 25305.703068750012,
      "d": 308.73469791666867,
      "v": 118
    },
    {
      "midi": 67,
      "hit": false,
      "t": 25486.425818750013,
      "d": 643.0717854166687,
      "v": 100
    },
    {
      "midi": 70,
      "hit": false,
      "t": 25667.148568750014,
      "d": 521.0839291666671,
      "v": 104
    },
    {
      "midi": 58,
      "hit": false,
      "t": 25847.871318750014,
      "d": 311.74674375000177,
      "v": 114
    },
    {
      "midi": 41,
      "hit": false,
      "t": 26028.594068750015,
      "d": 1503.0108708333282,
      "v": 110
    },
    {
      "midi": 46,
      "hit": false,
      "t": 26209.316818750012,
      "d": 1305.721868749999,
      "v": 102
    },
    {
      "midi": 50,
      "hit": false,
      "t": 26390.039568750013,
      "d": 1131.0232104166644,
      "v": 100
    },
    {
      "midi": 53,
      "hit": false,
      "t": 26570.762318750014,
      "d": 602.4091666666645,
      "v": 98
    },
    {
      "midi": 58,
      "hit": false,
      "t": 26751.485068750015,
      "d": 365.96356874999765,
      "v": 116
    },
    {
      "midi": 62,
      "hit": false,
      "t": 26932.207818750012,
      "d": 561.7465479166676,
      "v": 88
    },
    {
      "midi": 65,
      "hit": false,
      "t": 27112.930568750013,
      "d": 424.6984624999968,
      "v": 94
    },
    {
      "midi": 53,
      "hit": false,
      "t": 27293.653318750014,
      "d": 248.49378124999566,
      "v": 114
    },
    {
      "midi": 48,
      "hit": false,
      "t": 27474.376068750014,
      "d": 1442.7699541666625,
      "v": 114
    },
    {
      "midi": 53,
      "hit": false,
      "t": 27655.098818750008,
      "d": 1262.047204166669,
      "v": 110
    },
    {
      "midi": 56,
      "hit": false,
      "t": 27835.82156875001,
      "d": 1081.3244541666681,
      "v": 92
    },
    {
      "midi": 60,
      "hit": false,
      "t": 28016.54431875001,
      "d": 600.9031437500016,
      "v": 94
    },
    {
      "midi": 65,
      "hit": false,
      "t": 28197.26706875001,
      "d": 719.8789541666665,
      "v": 114
    },
    {
      "midi": 68,
      "hit": false,
      "t": 28377.98981875001,
      "d": 539.1562041666657,
      "v": 98
    },
    {
      "midi": 72,
      "hit": false,
      "t": 28558.712568750012,
      "d": 358.4334541666649,
      "v": 108
    },
    {
      "midi": 60,
      "hit": false,
      "t": 28739.435318750013,
      "d": 177.71070416666407,
      "v": 102
    },
    {
      "midi": 43,
      "hit": false,
      "t": 28920.15806875001,
      "d": 1518.071100000001,
      "v": 116
    },
    {
      "midi": 48,
      "hit": false,
      "t": 29100.880818750007,
      "d": 1343.37244166667,
      "v": 102
    },
    {
      "midi": 51,
      "hit": false,
      "t": 29281.603568750008,
      "d": 1171.6858291666686,
      "v": 82
    },
    {
      "midi": 55,
      "hit": false,
      "t": 29462.32631875001,
      "d": 719.8789541666702,
      "v": 72
    },
    {
      "midi": 60,
      "hit": false,
      "t": 29643.04906875001,
      "d": 406.62618750000183,
      "v": 114
    },
    {
      "midi": 63,
      "hit": false,
      "t": 29823.77181875001,
      "d": 603.9151895833347,
      "v": 114
    },
    {
      "midi": 67,
      "hit": false,
      "t": 30004.49456875001,
      "d": 429.2165312500001,
      "v": 112
    },
    {
      "midi": 55,
      "hit": false,
      "t": 30185.217318750012,
      "d": 253.01184999999896,
      "v": 114
    },
    {
      "midi": 46,
      "hit": false,
      "t": 30365.940068750013,
      "d": 1597.8903145833356,
      "v": 98
    },
    {
      "midi": 51,
      "hit": false,
      "t": 30546.66281875001,
      "d": 1423.1916562500046,
      "v": 92
    },
    {
      "midi": 55,
      "hit": false,
      "t": 30727.38556875001,
      "d": 1209.3364020833396,
      "v": 86
    },
    {
      "midi": 58,
      "hit": false,
      "t": 30908.10831875001,
      "d": 600.9031437500016,
      "v": 88
    },
    {
      "midi": 63,
      "hit": false,
      "t": 31088.831068750012,
      "d": 308.73469791666867,
      "v": 118
    },
    {
      "midi": 67,
      "hit": false,
      "t": 31269.553818750013,
      "d": 643.0717854166687,
      "v": 100
    },
    {
      "midi": 70,
      "hit": false,
      "t": 31450.276568750014,
      "d": 521.0839291666671,
      "v": 104
    },
    {
      "midi": 58,
      "hit": false,
      "t": 31630.999318750015,
      "d": 311.74674375000177,
      "v": 114
    },
    {
      "midi": 41,
      "hit": false,
      "t": 31811.722068750016,
      "d": 1503.0108708333355,
      "v": 110
    },
    {
      "midi": 46,
      "hit": false,
      "t": 31992.444818750013,
      "d": 1305.7218687500026,
      "v": 102
    },
    {
      "midi": 50,
      "hit": false,
      "t": 32173.167568750014,
      "d": 1131.023210416668,
      "v": 100
    },
    {
      "midi": 53,
      "hit": false,
      "t": 32353.890318750015,
      "d": 602.4091666666682,
      "v": 98
    },
    {
      "midi": 58,
      "hit": false,
      "t": 32534.613068750015,
      "d": 365.9635687500013,
      "v": 116
    },
    {
      "midi": 62,
      "hit": false,
      "t": 32715.335818750013,
      "d": 561.7465479166713,
      "v": 88
    },
    {
      "midi": 65,
      "hit": false,
      "t": 32896.05856875001,
      "d": 424.6984625000041,
      "v": 94
    },
    {
      "midi": 53,
      "hit": false,
      "t": 33076.781318750014,
      "d": 248.49378125000658,
      "v": 114
    },
    {
      "midi": 48,
      "hit": false,
      "t": 33257.504068750015,
      "d": 1442.7699541666807,
      "v": 114
    },
    {
      "midi": 53,
      "hit": false,
      "t": 33438.22681875002,
      "d": 1262.0472041666726,
      "v": 110
    },
    {
      "midi": 56,
      "hit": false,
      "t": 33618.949568750024,
      "d": 1081.3244541666718,
      "v": 92
    },
    {
      "midi": 60,
      "hit": false,
      "t": 33799.672318750025,
      "d": 600.9031437500016,
      "v": 94
    },
    {
      "midi": 65,
      "hit": false,
      "t": 33980.395068750026,
      "d": 719.8789541666702,
      "v": 114
    },
    {
      "midi": 68,
      "hit": false,
      "t": 34161.117818750026,
      "d": 539.1562041666693,
      "v": 98
    },
    {
      "midi": 72,
      "hit": false,
      "t": 34341.84056875003,
      "d": 358.4334541666685,
      "v": 108
    },
    {
      "midi": 60,
      "hit": false,
      "t": 34522.56331875003,
      "d": 177.7107041666677,
      "v": 102
    },
    {
      "midi": 44,
      "hit": false,
      "t": 34703.28606875003,
      "d": 1362.9507395833425,
      "v": 114
    },
    {
      "midi": 51,
      "hit": false,
      "t": 34884.00881875003,
      "d": 1265.0592500000057,
      "v": 88
    },
    {
      "midi": 56,
      "hit": false,
      "t": 35064.73156875003,
      "d": 73.7951229166647,
      "v": 102
    },
    {
      "midi": 56,
      "hit": false,
      "t": 35245.45431875003,
      "d": 600.9031437500016,
      "v": 108
    },
    {
      "midi": 60,
      "hit": false,
      "t": 35426.17706875003,
      "d": 834.3366958333354,
      "v": 120
    },
    {
      "midi": 63,
      "hit": false,
      "t": 35606.89981875003,
      "d": 641.5657625000022,
      "v": 114
    },
    {
      "midi": 68,
      "hit": false,
      "t": 35787.622568750034,
      "d": 545.1802958333355,
      "v": 112
    },
    {
      "midi": 56,
      "hit": false,
      "t": 35968.345318750034,
      "d": 192.77093333333323,
      "v": 78
    },
    {
      "midi": 44,
      "hit": false,
      "t": 36149.068068750035,
      "d": 1403.6133583333285,
      "v": 108
    },
    {
      "midi": 51,
      "hit": false,
      "t": 36329.790818750036,
      "d": 1225.9026541666608,
      "v": 104
    },
    {
      "midi": 56,
      "hit": false,
      "t": 36510.51356875004,
      "d": 94.87944374999643,
      "v": 110
    },
    {
      "midi": 56,
      "hit": false,
      "t": 36691.23631875003,
      "d": 171.6866125000015,
      "v": 104
    },
    {
      "midi": 60,
      "hit": false,
      "t": 36871.95906875003,
      "d": 641.5657625000022,
      "v": 112
    },
    {
      "midi": 63,
      "hit": false,
      "t": 37052.68181875003,
      "d": 466.86710416666756,
      "v": 92
    },
    {
      "midi": 68,
      "hit": false,
      "t": 37233.40456875003,
      "d": 329.8190187500004,
      "v": 100
    },
    {
      "midi": 56,
      "hit": false,
      "t": 37414.127318750034,
      "d": 194.27695625000342,
      "v": 86
    },
    {
      "midi": 43,
      "hit": false,
      "t": 37594.850068750035,
      "d": 1344.8784645833366,
      "v": 114
    },
    {
      "midi": 50,
      "hit": false,
      "t": 37775.572818750035,
      "d": 1304.215845833336,
      "v": 110
    },
    {
      "midi": 55,
      "hit": false,
      "t": 37956.295568750036,
      "d": 73.7951229166647,
      "v": 110
    },
    {
      "midi": 55,
      "hit": false,
      "t": 38137.01831875004,
      "d": 484.9393791666662,
      "v": 110
    },
    {
      "midi": 60,
      "hit": false,
      "t": 38317.74106875004,
      "d": 1186.746058333345,
      "v": 114
    },
    {
      "midi": 62,
      "hit": false,
      "t": 38498.46381875004,
      "d": 1246.9869750000144,
      "v": 110
    },
    {
      "midi": 67,
      "hit": false,
      "t": 38679.18656875004,
      "d": 1090.3605916666784,
      "v": 102
    },
    {
      "midi": 55,
      "hit": false,
      "t": 38859.90931875004,
      "d": 368.97561458333803,
      "v": 82
    },
    {
      "midi": 43,
      "hit": false,
      "t": 39040.63206875004,
      "d": 1432.2277937500112,
      "v": 110
    },
    {
      "midi": 50,
      "hit": false,
      "t": 39221.35481875004,
      "d": 1256.0231125000137,
      "v": 106
    },
    {
      "midi": 55,
      "hit": false,
      "t": 39402.07756875004,
      "d": 54.216825000003155,
      "v": 110
    },
    {
      "midi": 55,
      "hit": false,
      "t": 39582.80031875005,
      "d": 563.2525708333342,
      "v": 120
    },
    {
      "midi": 59,
      "hit": false,
      "t": 39763.52306875005,
      "d": 692.7705416666649,
      "v": 112
    },
    {
      "midi": 62,
      "hit": false,
      "t": 39944.24581875005,
      "d": 496.9875624999986,
      "v": 102
    },
    {
      "midi": 67,
      "hit": false,
      "t": 40124.96856875005,
      "d": 340.3611791666626,
      "v": 102
    },
    {
      "midi": 55,
      "hit": false,
      "t": 40305.691318750054,
      "d": 164.1564979166651,
      "v": 76
    },
    {
      "midi": 43,
      "hit": false,
      "t": 40486.414068750055,
      "d": 1518.071100000001,
      "v": 104
    },
    {
      "midi": 48,
      "hit": false,
      "t": 40667.136818750056,
      "d": 1343.3724416666664,
      "v": 90
    },
    {
      "midi": 51,
      "hit": false,
      "t": 40847.85956875006,
      "d": 1171.685829166665,
      "v": 70
    },
    {
      "midi": 55,
      "hit": false,
      "t": 41028.58231875006,
      "d": 719.8789541666629,
      "v": 60
    },
    {
      "midi": 60,
      "hit": false,
      "t": 41209.30506875006,
      "d": 406.6261874999982,
      "v": 102
    },
    {
      "midi": 63,
      "hit": false,
      "t": 41390.02781875006,
      "d": 603.9151895833274,
      "v": 102
    },
    {
      "midi": 67,
      "hit": false,
      "t": 41570.75056875006,
      "d": 429.21653124999284,
      "v": 100
    },
    {
      "midi": 55,
      "hit": false,
      "t": 41751.47331875005,
      "d": 253.0118500000026,
      "v": 102
    },
    {
      "midi": 46,
      "hit": false,
      "t": 41932.196068750054,
      "d": 1597.890314583332,
      "v": 86
    },
    {
      "midi": 51,
      "hit": false,
      "t": 42112.918818750055,
      "d": 1423.1916562499973,
      "v": 80
    },
    {
      "midi": 55,
      "hit": false,
      "t": 42293.641568750056,
      "d": 1209.3364020833324,
      "v": 74
    },
    {
      "midi": 58,
      "hit": false,
      "t": 42474.36431875006,
      "d": 600.9031437500016,
      "v": 76
    },
    {
      "midi": 63,
      "hit": false,
      "t": 42655.08706875006,
      "d": 308.73469791666867,
      "v": 106
    },
    {
      "midi": 67,
      "hit": false,
      "t": 42835.80981875006,
      "d": 643.0717854166651,
      "v": 88
    },
    {
      "midi": 70,
      "hit": false,
      "t": 43016.53256875006,
      "d": 521.0839291666634,
      "v": 92
    },
    {
      "midi": 58,
      "hit": false,
      "t": 43197.25531875006,
      "d": 311.7467437499945,
      "v": 102
    },
    {
      "midi": 41,
      "hit": false,
      "t": 43377.97806875005,
      "d": 1503.0108708333428,
      "v": 98
    },
    {
      "midi": 46,
      "hit": false,
      "t": 43558.700818750054,
      "d": 1305.7218687500063,
      "v": 90
    },
    {
      "midi": 50,
      "hit": false,
      "t": 43739.423568750055,
      "d": 1131.0232104166716,
      "v": 88
    },
    {
      "midi": 53,
      "hit": false,
      "t": 43920.146318750056,
      "d": 602.4091666666718,
      "v": 86
    },
    {
      "midi": 58,
      "hit": false,
      "t": 44100.86906875006,
      "d": 365.9635687500049,
      "v": 104
    },
    {
      "midi": 62,
      "hit": false,
      "t": 44281.59181875006,
      "d": 561.7465479166713,
      "v": 76
    },
    {
      "midi": 65,
      "hit": false,
      "t": 44462.31456875006,
      "d": 424.6984625000041,
      "v": 82
    },
    {
      "midi": 53,
      "hit": false,
      "t": 44643.03731875006,
      "d": 248.49378125000658,
      "v": 102
    },
    {
      "midi": 48,
      "hit": false,
      "t": 44823.76006875006,
      "d": 1442.7699541666807,
      "v": 102
    },
    {
      "midi": 53,
      "hit": false,
      "t": 45004.48281875007,
      "d": 1262.0472041666726,
      "v": 98
    },
    {
      "midi": 56,
      "hit": false,
      "t": 45185.20556875007,
      "d": 1081.3244541666718,
      "v": 80
    },
    {
      "midi": 60,
      "hit": false,
      "t": 45365.92831875007,
      "d": 600.9031437500016,
      "v": 82
    },
    {
      "midi": 65,
      "hit": false,
      "t": 45546.65106875007,
      "d": 719.8789541666702,
      "v": 102
    },
    {
      "midi": 68,
      "hit": false,
      "t": 45727.37381875007,
      "d": 539.1562041666693,
      "v": 86
    },
    {
      "midi": 72,
      "hit": false,
      "t": 45908.09656875007,
      "d": 358.4334541666685,
      "v": 96
    },
    {
      "midi": 60,
      "hit": false,
      "t": 46088.81931875007,
      "d": 177.7107041666677,
      "v": 90
    },
    {
      "midi": 43,
      "hit": false,
      "t": 46269.542068750074,
      "d": 1518.071100000001,
      "v": 104
    },
    {
      "midi": 48,
      "hit": false,
      "t": 46450.264818750074,
      "d": 1343.3724416666664,
      "v": 90
    },
    {
      "midi": 51,
      "hit": false,
      "t": 46630.987568750075,
      "d": 1171.685829166665,
      "v": 70
    },
    {
      "midi": 55,
      "hit": false,
      "t": 46811.710318750076,
      "d": 719.8789541666629,
      "v": 60
    },
    {
      "midi": 60,
      "hit": false,
      "t": 46992.43306875008,
      "d": 406.6261874999982,
      "v": 102
    },
    {
      "midi": 63,
      "hit": false,
      "t": 47173.15581875008,
      "d": 603.9151895833274,
      "v": 102
    },
    {
      "midi": 67,
      "hit": false,
      "t": 47353.87856875008,
      "d": 429.21653124999284,
      "v": 100
    },
    {
      "midi": 55,
      "hit": false,
      "t": 47534.60131875007,
      "d": 253.0118500000026,
      "v": 102
    },
    {
      "midi": 46,
      "hit": false,
      "t": 47715.32406875007,
      "d": 1597.890314583332,
      "v": 86
    },
    {
      "midi": 51,
      "hit": false,
      "t": 47896.046818750074,
      "d": 1423.1916562499973,
      "v": 80
    },
    {
      "midi": 55,
      "hit": false,
      "t": 48076.769568750075,
      "d": 1209.3364020833324,
      "v": 74
    },
    {
      "midi": 58,
      "hit": false,
      "t": 48257.492318750075,
      "d": 600.9031437500016,
      "v": 76
    },
    {
      "midi": 63,
      "hit": false,
      "t": 48438.215068750076,
      "d": 308.73469791666867,
      "v": 106
    },
    {
      "midi": 67,
      "hit": false,
      "t": 48618.93781875008,
      "d": 643.0717854166651,
      "v": 88
    },
    {
      "midi": 70,
      "hit": false,
      "t": 48799.66056875008,
      "d": 521.0839291666634,
      "v": 92
    },
    {
      "midi": 58,
      "hit": false,
      "t": 48980.38331875008,
      "d": 311.7467437499945,
      "v": 102
    },
    {
      "midi": 41,
      "hit": false,
      "t": 49161.10606875007,
      "d": 1503.0108708333428,
      "v": 98
    },
    {
      "midi": 46,
      "hit": false,
      "t": 49341.82881875007,
      "d": 1305.7218687500063,
      "v": 90
    },
    {
      "midi": 50,
      "hit": false,
      "t": 49522.551568750074,
      "d": 1131.0232104166716,
      "v": 88
    },
    {
      "midi": 53,
      "hit": false,
      "t": 49703.274318750075,
      "d": 602.4091666666718,
      "v": 86
    },
    {
      "midi": 58,
      "hit": false,
      "t": 49883.997068750075,
      "d": 365.9635687500049,
      "v": 104
    },
    {
      "midi": 62,
      "hit": false,
      "t": 50064.719818750076,
      "d": 561.7465479166713,
      "v": 76
    },
    {
      "midi": 65,
      "hit": false,
      "t": 50245.44256875008,
      "d": 424.6984625000041,
      "v": 82
    },
    {
      "midi": 53,
      "hit": false,
      "t": 50426.16531875008,
      "d": 248.49378125000658,
      "v": 102
    },
    {
      "midi": 48,
      "hit": false,
      "t": 50606.88806875008,
      "d": 1442.7699541666807,
      "v": 102
    },
    {
      "midi": 53,
      "hit": false,
      "t": 50787.61081875009,
      "d": 1262.0472041666726,
      "v": 98
    },
    {
      "midi": 56,
      "hit": false,
      "t": 50968.33356875009,
      "d": 1081.3244541666718,
      "v": 80
    },
    {
      "midi": 60,
      "hit": false,
      "t": 51149.05631875009,
      "d": 600.9031437500016,
      "v": 82
    },
    {
      "midi": 65,
      "hit": false,
      "t": 51329.77906875009,
      "d": 719.8789541666702,
      "v": 102
    },
    {
      "midi": 68,
      "hit": false,
      "t": 51510.50181875009,
      "d": 539.1562041666693,
      "v": 86
    },
    {
      "midi": 72,
      "hit": false,
      "t": 51691.22456875009,
      "d": 358.4334541666685,
      "v": 96
    },
    {
      "midi": 60,
      "hit": false,
      "t": 51871.94731875009,
      "d": 177.7107041666677,
      "v": 90
    },
    {
      "midi": 43,
      "hit": false,
      "t": 52052.67006875009,
      "d": 1518.071100000001,
      "v": 104
    },
    {
      "midi": 48,
      "hit": false,
      "t": 52233.39281875009,
      "d": 1343.3724416666664,
      "v": 90
    },
    {
      "midi": 51,
      "hit": false,
      "t": 52414.115568750094,
      "d": 1171.685829166665,
      "v": 70
    },
    {
      "midi": 55,
      "hit": false,
      "t": 52594.838318750095,
      "d": 719.8789541666629,
      "v": 60
    },
    {
      "midi": 60,
      "hit": false,
      "t": 52775.561068750096,
      "d": 406.6261874999982,
      "v": 102
    },
    {
      "midi": 63,
      "hit": false,
      "t": 52956.2838187501,
      "d": 603.9151895833274,
      "v": 102
    },
    {
      "midi": 67,
      "hit": false,
      "t": 53137.0065687501,
      "d": 429.21653124999284,
      "v": 100
    },
    {
      "midi": 55,
      "hit": false,
      "t": 53317.72931875009,
      "d": 253.0118500000026,
      "v": 102
    },
    {
      "midi": 46,
      "hit": false,
      "t": 53498.45206875009,
      "d": 1597.890314583332,
      "v": 86
    },
    {
      "midi": 51,
      "hit": false,
      "t": 53679.17481875009,
      "d": 1423.1916562499973,
      "v": 80
    },
    {
      "midi": 55,
      "hit": false,
      "t": 53859.89756875009,
      "d": 1209.3364020833324,
      "v": 74
    },
    {
      "midi": 58,
      "hit": false,
      "t": 54040.620318750094,
      "d": 600.9031437500016,
      "v": 76
    },
    {
      "midi": 63,
      "hit": false,
      "t": 54221.343068750095,
      "d": 308.73469791666867,
      "v": 106
    },
    {
      "midi": 67,
      "hit": false,
      "t": 54402.065818750096,
      "d": 643.0717854166651,
      "v": 88
    },
    {
      "midi": 70,
      "hit": false,
      "t": 54582.7885687501,
      "d": 521.0839291666634,
      "v": 92
    },
    {
      "midi": 58,
      "hit": false,
      "t": 54763.5113187501,
      "d": 311.7467437499945,
      "v": 102
    },
    {
      "midi": 41,
      "hit": false,
      "t": 54944.23406875009,
      "d": 1503.0108708333428,
      "v": 98
    },
    {
      "midi": 46,
      "hit": false,
      "t": 55124.95681875009,
      "d": 1305.7218687500063,
      "v": 90
    },
    {
      "midi": 50,
      "hit": false,
      "t": 55305.67956875009,
      "d": 1131.0232104166716,
      "v": 88
    },
    {
      "midi": 53,
      "hit": false,
      "t": 55486.40231875009,
      "d": 602.4091666666718,
      "v": 86
    },
    {
      "midi": 58,
      "hit": false,
      "t": 55667.125068750094,
      "d": 365.9635687500049,
      "v": 104
    },
    {
      "midi": 62,
      "hit": false,
      "t": 55847.847818750095,
      "d": 561.7465479166713,
      "v": 76
    },
    {
      "midi": 65,
      "hit": false,
      "t": 56028.570568750096,
      "d": 424.6984625000041,
      "v": 82
    },
    {
      "midi": 53,
      "hit": false,
      "t": 56209.2933187501,
      "d": 248.49378125000658,
      "v": 102
    },
    {
      "midi": 48,
      "hit": false,
      "t": 56390.0160687501,
      "d": 1442.7699541666807,
      "v": 102
    },
    {
      "midi": 53,
      "hit": false,
      "t": 56570.738818750106,
      "d": 1262.0472041666726,
      "v": 98
    },
    {
      "midi": 56,
      "hit": false,
      "t": 56751.46156875011,
      "d": 1081.3244541666718,
      "v": 80
    },
    {
      "midi": 60,
      "hit": false,
      "t": 56932.18431875011,
      "d": 600.9031437500016,
      "v": 82
    },
    {
      "midi": 65,
      "hit": false,
      "t": 57112.90706875011,
      "d": 719.8789541666702,
      "v": 102
    },
    {
      "midi": 68,
      "hit": false,
      "t": 57293.62981875011,
      "d": 539.1562041666693,
      "v": 86
    },
    {
      "midi": 72,
      "hit": false,
      "t": 57474.35256875011,
      "d": 358.4334541666685,
      "v": 96
    },
    {
      "midi": 60,
      "hit": false,
      "t": 57655.07531875011,
      "d": 177.7107041666677,
      "v": 90
    },
    {
      "midi": 44,
      "hit": false,
      "t": 57835.79806875011,
      "d": 1362.9507395833425,
      "v": 102
    },
    {
      "midi": 51,
      "hit": false,
      "t": 58016.52081875011,
      "d": 1265.0592500000057,
      "v": 76
    },
    {
      "midi": 56,
      "hit": false,
      "t": 58197.24356875011,
      "d": 73.7951229166647,
      "v": 90
    },
    {
      "midi": 56,
      "hit": false,
      "t": 58377.966318750114,
      "d": 600.9031437500016,
      "v": 96
    },
    {
      "midi": 60,
      "hit": false,
      "t": 58558.689068750115,
      "d": 834.3366958333354,
      "v": 108
    },
    {
      "midi": 63,
      "hit": false,
      "t": 58739.411818750115,
      "d": 641.5657625000022,
      "v": 102
    },
    {
      "midi": 68,
      "hit": false,
      "t": 58920.134568750116,
      "d": 545.1802958333355,
      "v": 100
    },
    {
      "midi": 56,
      "hit": false,
      "t": 59100.85731875012,
      "d": 192.77093333333323,
      "v": 66
    },
    {
      "midi": 44,
      "hit": false,
      "t": 59281.58006875012,
      "d": 1403.6133583333285,
      "v": 96
    },
    {
      "midi": 51,
      "hit": false,
      "t": 59462.30281875012,
      "d": 1225.9026541666608,
      "v": 92
    },
    {
      "midi": 56,
      "hit": false,
      "t": 59643.02556875012,
      "d": 94.87944374999643,
      "v": 98
    },
    {
      "midi": 56,
      "hit": false,
      "t": 59823.74831875011,
      "d": 171.6866125000015,
      "v": 92
    },
    {
      "midi": 60,
      "hit": false,
      "t": 60004.471068750114,
      "d": 641.5657625000022,
      "v": 100
    },
    {
      "midi": 63,
      "hit": false,
      "t": 60185.193818750115,
      "d": 466.86710416666756,
      "v": 80
    },
    {
      "midi": 68,
      "hit": false,
      "t": 60365.916568750115,
      "d": 329.8190187500004,
      "v": 88
    },
    {
      "midi": 56,
      "hit": false,
      "t": 60546.639318750116,
      "d": 194.27695625000342,
      "v": 74
    },
    {
      "midi": 43,
      "hit": false,
      "t": 60727.36206875012,
      "d": 1215.3604937500058,
      "v": 106
    },
    {
      "midi": 50,
      "hit": false,
      "t": 60908.08481875012,
      "d": 1249.9990208333402,
      "v": 98
    },
    {
      "midi": 55,
      "hit": false,
      "t": 61088.80756875012,
      "d": 1036.1437666666752,
      "v": 104
    },
    {
      "midi": 60,
      "hit": false,
      "t": 61269.53031875012,
      "d": 144.57820000000356,
      "v": 98
    },
    {
      "midi": 67,
      "hit": false,
      "t": 61450.25306875012,
      "d": 260.5419645833317,
      "v": 100
    },
    {
      "midi": 72,
      "hit": false,
      "t": 61630.97581875012,
      "d": 359.9394770833387,
      "v": 94
    },
    {
      "midi": 62,
      "hit": false,
      "t": 61811.69856875012,
      "d": 704.8187250000046,
      "v": 88
    },
    {
      "midi": 67,
      "hit": false,
      "t": 61992.42131875013,
      "d": 736.4452062499986,
      "v": 96
    },
    {
      "midi": 43,
      "hit": false,
      "t": 62173.14406875012,
      "d": 986.4450104166754,
      "v": 104
    },
    {
      "midi": 50,
      "hit": false,
      "t": 62353.866818750124,
      "d": 817.770443750007,
      "v": 98
    },
    {
      "midi": 55,
      "hit": false,
      "t": 62534.589568750125,
      "d": 81.3252375000011,
      "v": 102
    },
    {
      "midi": 59,
      "hit": false,
      "t": 62715.312318750126,
      "d": 111.44569583333941,
      "v": 88
    },
    {
      "midi": 67,
      "hit": false,
      "t": 62896.035068750134,
      "d": 408.1322104166611,
      "v": 106
    },
    {
      "midi": 71,
      "hit": false,
      "t": 63076.757818750135,
      "d": 456.3249437499908,
      "v": 102
    },
    {
      "midi": 62,
      "hit": false,
      "t": 63257.48056875013,
      "d": 355.4214083333354,
      "v": 86
    },
    {
      "midi": 67,
      "hit": false,
      "t": 63438.20331875013,
      "d": 146.08422291666648,
      "v": 84
    },
    {
      "midi": 48,
      "hit": false,
      "t": 63618.92606875013,
      "d": 1245.480952083337,
      "v": 120
    },
    {
      "midi": 60,
      "hit": false,
      "t": 63980.37156875013,
      "d": 424.6984625000041,
      "v": 110
    },
    {
      "midi": 72,
      "hit": false,
      "t": 64329.76888541666,
      "d": 719.8789541666702,
      "v": 1
    },
    {
      "midi": 63,
      "hit": false,
      "t": 64341.81706875013,
      "d": 775.6018020833362,
      "v": 120
    },
    {
      "midi": 67,
      "hit": false,
      "t": 64341.81706875013,
      "d": 798.1921458333381,
      "v": 122
    },
    {
      "midi": 60,
      "hit": false,
      "t": 64703.262568750135,
      "d": 387.04788958333666,
      "v": 104
    },
    {
      "midi": 70,
      "hit": false,
      "t": 65052.659885416666,
      "d": 1442.7699541666661,
      "v": 1
    },
    {
      "midi": 46,
      "hit": false,
      "t": 65064.70806875014,
      "d": 1323.7941437500049,
      "v": 114
    },
    {
      "midi": 58,
      "hit": false,
      "t": 65426.15356875014,
      "d": 621.9874645833261,
      "v": 122
    },
    {
      "midi": 67,
      "hit": false,
      "t": 65787.59906875013,
      "d": 835.8427187500056,
      "v": 120
    },
    {
      "midi": 63,
      "hit": false,
      "t": 65787.59906875013,
      "d": 873.493291666673,
      "v": 120
    },
    {
      "midi": 58,
      "hit": false,
      "t": 66149.04456875013,
      "d": 326.80697291667457,
      "v": 108
    },
    {
      "midi": 68,
      "hit": false,
      "t": 66498.44188541667,
      "d": 1081.3244541666645,
      "v": 1
    },
    {
      "midi": 44,
      "hit": false,
      "t": 66510.49006875014,
      "d": 1420.1796104166715,
      "v": 116
    },
    {
      "midi": 56,
      "hit": false,
      "t": 66871.93556875014,
      "d": 563.2525708333415,
      "v": 116
    },
    {
      "midi": 68,
      "hit": false,
      "t": 67233.38106875014,
      "d": 623.4934875000035,
      "v": 118
    },
    {
      "midi": 63,
      "hit": false,
      "t": 67233.38106875014,
      "d": 640.059739583332,
      "v": 122
    },
    {
      "midi": 60,
      "hit": false,
      "t": 67233.38106875014,
      "d": 643.0717854166724,
      "v": 118
    },
    {
      "midi": 67,
      "hit": false,
      "t": 67582.77838541668,
      "d": 2165.6609541666694,
      "v": 1
    },
    {
      "midi": 56,
      "hit": false,
      "t": 67594.82656875014,
      "d": 310.2407208333316,
      "v": 114
    },
    {
      "midi": 39,
      "hit": false,
      "t": 67956.27206875014,
      "d": 679.2163354166696,
      "v": 116
    },
    {
      "midi": 51,
      "hit": false,
      "t": 68317.71756875014,
      "d": 347.891293749999,
      "v": 120
    },
    {
      "midi": 59,
      "hit": false,
      "t": 68679.16306875015,
      "d": 641.5657625000022,
      "v": 116
    },
    {
      "midi": 67,
      "hit": false,
      "t": 68679.16306875015,
      "d": 659.6380375000008,
      "v": 114
    },
    {
      "midi": 62,
      "hit": false,
      "t": 68679.16306875015,
      "d": 661.144060416671,
      "v": 114
    },
    {
      "midi": 55,
      "hit": false,
      "t": 68679.16306875015,
      "d": 679.2163354166696,
      "v": 118
    },
    {
      "midi": 43,
      "hit": false,
      "t": 68679.16306875015,
      "d": 682.22838125001,
      "v": 104
    },
    {
      "midi": 48,
      "hit": false,
      "t": 69402.05406875015,
      "d": 1245.480952083337,
      "v": 120
    },
    {
      "midi": 67,
      "hit": false,
      "t": 69751.45138541669,
      "d": 358.43345416666125,
      "v": 1
    },
    {
      "midi": 60,
      "hit": false,
      "t": 69763.49956875015,
      "d": 424.6984625000041,
      "v": 110
    },
    {
      "midi": 72,
      "hit": false,
      "t": 70112.89688541669,
      "d": 719.8789541666629,
      "v": 1
    },
    {
      "midi": 63,
      "hit": false,
      "t": 70124.94506875015,
      "d": 775.6018020833435,
      "v": 120
    },
    {
      "midi": 67,
      "hit": false,
      "t": 70124.94506875015,
      "d": 798.1921458333381,
      "v": 122
    },
    {
      "midi": 60,
      "hit": false,
      "t": 70486.39056875015,
      "d": 387.04788958333666,
      "v": 104
    },
    {
      "midi": 70,
      "hit": false,
      "t": 70835.78788541669,
      "d": 1442.7699541666661,
      "v": 1
    },
    {
      "midi": 46,
      "hit": false,
      "t": 70847.83606875016,
      "d": 1323.7941437500122,
      "v": 114
    },
    {
      "midi": 58,
      "hit": false,
      "t": 71209.28156875016,
      "d": 621.9874645833333,
      "v": 122
    },
    {
      "midi": 67,
      "hit": false,
      "t": 71570.72706875016,
      "d": 835.8427187500056,
      "v": 120
    },
    {
      "midi": 63,
      "hit": false,
      "t": 71570.72706875016,
      "d": 873.493291666673,
      "v": 120
    },
    {
      "midi": 58,
      "hit": false,
      "t": 71932.17256875016,
      "d": 326.80697291667457,
      "v": 108
    },
    {
      "midi": 72,
      "hit": false,
      "t": 72281.5698854167,
      "d": 1081.3244541666645,
      "v": 1
    },
    {
      "midi": 75,
      "hit": false,
      "t": 72281.5698854167,
      "d": 1081.3244541666645,
      "v": 1
    },
    {
      "midi": 44,
      "hit": false,
      "t": 72293.61806875016,
      "d": 1420.1796104166715,
      "v": 116
    },
    {
      "midi": 56,
      "hit": false,
      "t": 72655.06356875016,
      "d": 563.2525708333415,
      "v": 116
    },
    {
      "midi": 68,
      "hit": false,
      "t": 73016.50906875017,
      "d": 623.4934875000035,
      "v": 118
    },
    {
      "midi": 63,
      "hit": false,
      "t": 73016.50906875017,
      "d": 640.059739583332,
      "v": 122
    },
    {
      "midi": 60,
      "hit": false,
      "t": 73016.50906875017,
      "d": 643.0717854166724,
      "v": 118
    },
    {
      "midi": 70,
      "hit": false,
      "t": 73365.9063854167,
      "d": 2165.6609541666694,
      "v": 1
    },
    {
      "midi": 75,
      "hit": false,
      "t": 73365.9063854167,
      "d": 2165.6609541666694,
      "v": 1
    },
    {
      "midi": 56,
      "hit": false,
      "t": 73377.95456875017,
      "d": 310.2407208333316,
      "v": 114
    },
    {
      "midi": 39,
      "hit": false,
      "t": 73739.40006875017,
      "d": 679.2163354166696,
      "v": 116
    },
    {
      "midi": 51,
      "hit": false,
      "t": 74100.84556875017,
      "d": 347.891293749999,
      "v": 120
    },
    {
      "midi": 59,
      "hit": false,
      "t": 74462.29106875017,
      "d": 641.5657625000022,
      "v": 116
    },
    {
      "midi": 67,
      "hit": false,
      "t": 74462.29106875017,
      "d": 659.6380375000008,
      "v": 114
    },
    {
      "midi": 62,
      "hit": false,
      "t": 74462.29106875017,
      "d": 661.144060416671,
      "v": 114
    },
    {
      "midi": 55,
      "hit": false,
      "t": 74462.29106875017,
      "d": 679.2163354166696,
      "v": 118
    },
    {
      "midi": 43,
      "hit": false,
      "t": 74462.29106875017,
      "d": 682.22838125001,
      "v": 104
    },
    {
      "midi": 48,
      "hit": false,
      "t": 75185.18206875017,
      "d": 1245.480952083337,
      "v": 120
    },
    {
      "midi": 67,
      "hit": false,
      "t": 75534.57938541671,
      "d": 358.43345416666125,
      "v": 1
    },
    {
      "midi": 60,
      "hit": false,
      "t": 75546.62756875018,
      "d": 424.6984625000041,
      "v": 110
    },
    {
      "midi": 72,
      "hit": false,
      "t": 75896.02488541671,
      "d": 719.8789541666629,
      "v": 1
    },
    {
      "midi": 63,
      "hit": false,
      "t": 75908.07306875018,
      "d": 775.6018020833435,
      "v": 120
    },
    {
      "midi": 67,
      "hit": false,
      "t": 75908.07306875018,
      "d": 798.1921458333381,
      "v": 122
    },
    {
      "midi": 60,
      "hit": false,
      "t": 76269.51856875018,
      "d": 387.04788958333666,
      "v": 104
    },
    {
      "midi": 70,
      "hit": false,
      "t": 76618.91588541672,
      "d": 1442.7699541666661,
      "v": 1
    },
    {
      "midi": 46,
      "hit": false,
      "t": 76630.96406875018,
      "d": 1323.7941437500122,
      "v": 114
    },
    {
      "midi": 58,
      "hit": false,
      "t": 76992.40956875018,
      "d": 621.9874645833333,
      "v": 122
    },
    {
      "midi": 67,
      "hit": false,
      "t": 77353.85506875018,
      "d": 835.8427187500056,
      "v": 120
    },
    {
      "midi": 63,
      "hit": false,
      "t": 77353.85506875018,
      "d": 873.493291666673,
      "v": 120
    },
    {
      "midi": 58,
      "hit": false,
      "t": 77715.30056875019,
      "d": 326.80697291667457,
      "v": 108
    },
    {
      "midi": 68,
      "hit": false,
      "t": 78064.69788541672,
      "d": 1081.3244541666645,
      "v": 1
    },
    {
      "midi": 44,
      "hit": false,
      "t": 78076.74606875019,
      "d": 1420.1796104166715,
      "v": 116
    },
    {
      "midi": 56,
      "hit": false,
      "t": 78438.19156875019,
      "d": 563.2525708333415,
      "v": 116
    },
    {
      "midi": 68,
      "hit": false,
      "t": 78799.63706875019,
      "d": 623.4934875000035,
      "v": 118
    },
    {
      "midi": 63,
      "hit": false,
      "t": 78799.63706875019,
      "d": 640.059739583332,
      "v": 122
    },
    {
      "midi": 60,
      "hit": false,
      "t": 78799.63706875019,
      "d": 643.0717854166724,
      "v": 118
    },
    {
      "midi": 67,
      "hit": false,
      "t": 79149.03438541673,
      "d": 1804.2154541666678,
      "v": 1
    },
    {
      "midi": 56,
      "hit": false,
      "t": 79161.0825687502,
      "d": 310.2407208333316,
      "v": 114
    },
    {
      "midi": 39,
      "hit": false,
      "t": 79522.5280687502,
      "d": 1424.697679166682,
      "v": 114
    },
    {
      "midi": 51,
      "hit": false,
      "t": 79883.9735687502,
      "d": 603.9151895833347,
      "v": 114
    },
    {
      "midi": 58,
      "hit": false,
      "t": 80245.4190687502,
      "d": 621.9874645833333,
      "v": 118
    },
    {
      "midi": 63,
      "hit": false,
      "t": 80245.4190687502,
      "d": 661.144060416671,
      "v": 118
    },
    {
      "midi": 67,
      "hit": false,
      "t": 80245.4190687502,
      "d": 662.6500833333412,
      "v": 116
    },
    {
      "midi": 51,
      "hit": false,
      "t": 80606.8645687502,
      "d": 326.80697291667457,
      "v": 116
    },
    {
      "midi": 65,
      "hit": false,
      "t": 80956.26188541674,
      "d": 2707.829204166672,
      "v": 1
    },
    {
      "midi": 70,
      "hit": false,
      "t": 80956.26188541674,
      "d": 2707.829204166672,
      "v": 1
    },
    {
      "midi": 46,
      "hit": false,
      "t": 80968.31006875022,
      "d": 1302.7098229166731,
      "v": 122
    },
    {
      "midi": 53,
      "hit": false,
      "t": 81329.75556875022,
      "d": 659.6380375000008,
      "v": 80
    },
    {
      "midi": 65,
      "hit": false,
      "t": 81691.20106875022,
      "d": 972.8908041666728,
      "v": 118
    },
    {
      "midi": 62,
      "hit": false,
      "t": 81691.20106875022,
      "d": 990.9630791666714,
      "v": 120
    },
    {
      "midi": 58,
      "hit": false,
      "t": 81691.20106875022,
      "d": 1012.0474000000104,
      "v": 118
    },
    {
      "midi": 53,
      "hit": false,
      "t": 82052.64656875022,
      "d": 542.1682500000024,
      "v": 110
    },
    {
      "midi": 46,
      "hit": false,
      "t": 82414.09206875022,
      "d": 1108.4328666666697,
      "v": 122
    },
    {
      "midi": 53,
      "hit": false,
      "t": 82775.53756875022,
      "d": 603.9151895833347,
      "v": 98
    },
    {
      "midi": 58,
      "hit": false,
      "t": 83136.98306875023,
      "d": 775.6018020833435,
      "v": 118
    },
    {
      "midi": 62,
      "hit": false,
      "t": 83136.98306875023,
      "d": 795.1801000000123,
      "v": 118
    },
    {
      "midi": 65,
      "hit": false,
      "t": 83136.98306875023,
      "d": 798.1921458333527,
      "v": 116
    },
    {
      "midi": 53,
      "hit": false,
      "t": 83498.42856875023,
      "d": 346.38527083332883,
      "v": 104
    },
    {
      "midi": 63,
      "hit": false,
      "t": 83667.10313541675,
      "d": 3076.8048187499953,
      "v": 1
    },
    {
      "midi": 68,
      "hit": false,
      "t": 83667.10313541675,
      "d": 3076.8048187499953,
      "v": 1
    },
    {
      "midi": 44,
      "hit": false,
      "t": 83859.87406875023,
      "d": 1152.107531250018,
      "v": 116
    },
    {
      "midi": 56,
      "hit": false,
      "t": 84221.31956875024,
      "d": 561.7465479166713,
      "v": 108
    },
    {
      "midi": 58,
      "hit": false,
      "t": 84582.76506875025,
      "d": 777.1078249999991,
      "v": 110
    },
    {
      "midi": 63,
      "hit": false,
      "t": 84582.76506875025,
      "d": 793.6740770833276,
      "v": 104
    },
    {
      "midi": 60,
      "hit": false,
      "t": 84582.76506875025,
      "d": 798.1921458333236,
      "v": 114
    },
    {
      "midi": 56,
      "hit": false,
      "t": 84944.21056875025,
      "d": 368.97561458333803,
      "v": 102
    },
    {
      "midi": 44,
      "hit": false,
      "t": 85305.65606875025,
      "d": 1365.962785416661,
      "v": 116
    },
    {
      "midi": 56,
      "hit": false,
      "t": 85667.10156875024,
      "d": 524.0959750000038,
      "v": 104
    },
    {
      "midi": 63,
      "hit": false,
      "t": 86028.54706875024,
      "d": 561.7465479166713,
      "v": 108
    },
    {
      "midi": 60,
      "hit": false,
      "t": 86028.54706875024,
      "d": 563.2525708333415,
      "v": 112
    },
    {
      "midi": 58,
      "hit": false,
      "t": 86028.54706875024,
      "d": 582.8308687500103,
      "v": 108
    },
    {
      "midi": 56,
      "hit": false,
      "t": 86389.99256875024,
      "d": 287.65037708333693,
      "v": 98
    },
    {
      "midi": 39,
      "hit": false,
      "t": 86752.94409166691,
      "d": 5152.104397916686,
      "v": 100
    },
    {
      "midi": 63,
      "hit": false,
      "t": 86787.58261875024,
      "d": 5112.9478020833485,
      "v": 116
    },
    {
      "midi": 55,
      "hit": false,
      "t": 86790.59466458358,
      "d": 2009.0345708333334,
      "v": 108
    },
    {
      "midi": 58,
      "hit": false,
      "t": 86811.67898541692,
      "d": 2066.263441666655,
      "v": 112
    },
    {
      "midi": 51,
      "hit": false,
      "t": 86811.67898541692,
      "d": 5132.526100000017,
      "v": 100
    },
    {
      "midi": 60,
      "hit": false,
      "t": 88896.01470208357,
      "d": 739.4572520833462,
      "v": 104
    },
    {
      "midi": 56,
      "hit": false,
      "t": 88915.59300000024,
      "d": 680.7223583333398,
      "v": 110
    },
    {
      "midi": 55,
      "hit": false,
      "t": 89620.41172500025,
      "d": 2281.624718750012,
      "v": 94
    },
    {
      "midi": 58,
      "hit": false,
      "t": 89638.48400000026,
      "d": 2243.97414583333,
      "v": 100
    },
    {
      "midi": 43,
      "hit": false,
      "t": 92534.56606875027,
      "d": 1518.0711000000156,
      "v": 104
    },
    {
      "midi": 48,
      "hit": false,
      "t": 92715.28881875027,
      "d": 1343.372441666681,
      "v": 90
    },
    {
      "midi": 51,
      "hit": false,
      "t": 92896.01156875027,
      "d": 1171.6858291666867,
      "v": 70
    },
    {
      "midi": 55,
      "hit": false,
      "t": 93076.73431875027,
      "d": 719.8789541666774,
      "v": 60
    },
    {
      "midi": 60,
      "hit": false,
      "t": 93257.45706875027,
      "d": 406.62618750000547,
      "v": 102
    },
    {
      "midi": 63,
      "hit": false,
      "t": 93438.17981875027,
      "d": 603.9151895833493,
      "v": 102
    },
    {
      "midi": 67,
      "hit": false,
      "t": 93618.90256875027,
      "d": 429.21653125001467,
      "v": 100
    },
    {
      "midi": 55,
      "hit": false,
      "t": 93799.62531875029,
      "d": 253.01184999999532,
      "v": 102
    },
    {
      "midi": 46,
      "hit": false,
      "t": 93980.34806875029,
      "d": 1597.8903145833465,
      "v": 86
    },
    {
      "midi": 51,
      "hit": false,
      "t": 94161.07081875029,
      "d": 1423.1916562500119,
      "v": 80
    },
    {
      "midi": 55,
      "hit": false,
      "t": 94341.79356875029,
      "d": 1209.3364020833396,
      "v": 74
    },
    {
      "midi": 58,
      "hit": false,
      "t": 94522.51631875029,
      "d": 600.9031437500089,
      "v": 76
    },
    {
      "midi": 63,
      "hit": false,
      "t": 94703.23906875029,
      "d": 308.7346979166614,
      "v": 106
    },
    {
      "midi": 67,
      "hit": false,
      "t": 94883.9618187503,
      "d": 643.0717854166724,
      "v": 88
    },
    {
      "midi": 70,
      "hit": false,
      "t": 95064.6845687503,
      "d": 521.083929166678,
      "v": 92
    },
    {
      "midi": 58,
      "hit": false,
      "t": 95245.4073187503,
      "d": 311.74674375000177,
      "v": 102
    },
    {
      "midi": 41,
      "hit": false,
      "t": 95426.1300687503,
      "d": 1503.0108708333573,
      "v": 98
    },
    {
      "midi": 46,
      "hit": false,
      "t": 95606.85281875031,
      "d": 1305.7218687500135,
      "v": 90
    },
    {
      "midi": 50,
      "hit": false,
      "t": 95787.57556875031,
      "d": 1131.023210416679,
      "v": 88
    },
    {
      "midi": 53,
      "hit": false,
      "t": 95968.29831875031,
      "d": 602.4091666666645,
      "v": 86
    },
    {
      "midi": 58,
      "hit": false,
      "t": 96149.02106875031,
      "d": 365.96356874999765,
      "v": 104
    },
    {
      "midi": 62,
      "hit": false,
      "t": 96329.74381875031,
      "d": 561.7465479166713,
      "v": 76
    },
    {
      "midi": 65,
      "hit": false,
      "t": 96510.46656875031,
      "d": 424.6984625000041,
      "v": 82
    },
    {
      "midi": 53,
      "hit": false,
      "t": 96691.18931875032,
      "d": 248.4937812499993,
      "v": 102
    },
    {
      "midi": 48,
      "hit": false,
      "t": 96871.91206875032,
      "d": 1442.7699541666807,
      "v": 102
    },
    {
      "midi": 53,
      "hit": false,
      "t": 97052.63481875032,
      "d": 1262.0472041666799,
      "v": 98
    },
    {
      "midi": 56,
      "hit": false,
      "t": 97233.35756875032,
      "d": 1081.324454166679,
      "v": 80
    },
    {
      "midi": 60,
      "hit": false,
      "t": 97414.08031875032,
      "d": 600.9031437500089,
      "v": 82
    },
    {
      "midi": 65,
      "hit": false,
      "t": 97594.80306875032,
      "d": 719.8789541666774,
      "v": 102
    },
    {
      "midi": 68,
      "hit": false,
      "t": 97775.52581875032,
      "d": 539.1562041666766,
      "v": 86
    },
    {
      "midi": 72,
      "hit": false,
      "t": 97956.24856875032,
      "d": 358.4334541666758,
      "v": 96
    },
    {
      "midi": 60,
      "hit": false,
      "t": 98136.97131875032,
      "d": 177.710704166675,
      "v": 90
    },
    {
      "midi": 43,
      "hit": false,
      "t": 98317.69406875034,
      "d": 1518.0711000000156,
      "v": 104
    },
    {
      "midi": 48,
      "hit": false,
      "t": 98498.41681875034,
      "d": 1343.372441666681,
      "v": 90
    },
    {
      "midi": 51,
      "hit": false,
      "t": 98679.13956875034,
      "d": 1171.6858291666867,
      "v": 70
    },
    {
      "midi": 55,
      "hit": false,
      "t": 98859.86231875034,
      "d": 719.8789541666774,
      "v": 60
    },
    {
      "midi": 60,
      "hit": false,
      "t": 99040.58506875034,
      "d": 406.62618750000547,
      "v": 102
    },
    {
      "midi": 63,
      "hit": false,
      "t": 99221.30781875034,
      "d": 603.9151895833493,
      "v": 102
    },
    {
      "midi": 67,
      "hit": false,
      "t": 99402.03056875034,
      "d": 429.21653125001467,
      "v": 100
    },
    {
      "midi": 55,
      "hit": false,
      "t": 99582.75331875036,
      "d": 253.01184999999532,
      "v": 102
    },
    {
      "midi": 46,
      "hit": false,
      "t": 99763.47606875036,
      "d": 1597.8903145833465,
      "v": 86
    },
    {
      "midi": 51,
      "hit": false,
      "t": 99944.19881875036,
      "d": 1423.1916562500119,
      "v": 80
    },
    {
      "midi": 55,
      "hit": false,
      "t": 100124.92156875036,
      "d": 1209.3364020833396,
      "v": 74
    },
    {
      "midi": 58,
      "hit": false,
      "t": 100305.64431875036,
      "d": 600.9031437500089,
      "v": 76
    },
    {
      "midi": 63,
      "hit": false,
      "t": 100486.36706875036,
      "d": 308.7346979166614,
      "v": 106
    },
    {
      "midi": 67,
      "hit": false,
      "t": 100667.08981875036,
      "d": 643.0717854166724,
      "v": 88
    },
    {
      "midi": 70,
      "hit": false,
      "t": 100847.81256875036,
      "d": 521.083929166678,
      "v": 92
    },
    {
      "midi": 58,
      "hit": false,
      "t": 101028.53531875036,
      "d": 311.74674375000177,
      "v": 102
    },
    {
      "midi": 41,
      "hit": false,
      "t": 101209.25806875037,
      "d": 1503.0108708333573,
      "v": 98
    },
    {
      "midi": 46,
      "hit": false,
      "t": 101389.98081875038,
      "d": 1305.7218687500135,
      "v": 90
    },
    {
      "midi": 50,
      "hit": false,
      "t": 101570.70356875038,
      "d": 1131.023210416679,
      "v": 88
    },
    {
      "midi": 53,
      "hit": false,
      "t": 101751.42631875038,
      "d": 602.4091666666645,
      "v": 86
    },
    {
      "midi": 58,
      "hit": false,
      "t": 101932.14906875038,
      "d": 365.96356874999765,
      "v": 104
    },
    {
      "midi": 62,
      "hit": false,
      "t": 102112.87181875038,
      "d": 561.7465479166713,
      "v": 76
    },
    {
      "midi": 65,
      "hit": false,
      "t": 102293.59456875038,
      "d": 424.6984625000041,
      "v": 82
    },
    {
      "midi": 53,
      "hit": false,
      "t": 102474.31731875039,
      "d": 248.4937812499993,
      "v": 102
    },
    {
      "midi": 48,
      "hit": false,
      "t": 102655.04006875039,
      "d": 1442.7699541666807,
      "v": 102
    },
    {
      "midi": 53,
      "hit": false,
      "t": 102835.76281875039,
      "d": 1262.0472041666799,
      "v": 98
    },
    {
      "midi": 56,
      "hit": false,
      "t": 103016.48556875039,
      "d": 1081.324454166679,
      "v": 80
    },
    {
      "midi": 60,
      "hit": false,
      "t": 103197.20831875039,
      "d": 600.9031437500089,
      "v": 82
    },
    {
      "midi": 65,
      "hit": false,
      "t": 103377.93106875039,
      "d": 719.8789541666774,
      "v": 102
    },
    {
      "midi": 68,
      "hit": false,
      "t": 103558.65381875039,
      "d": 539.1562041666766,
      "v": 86
    },
    {
      "midi": 72,
      "hit": false,
      "t": 103739.37656875039,
      "d": 358.4334541666758,
      "v": 96
    },
    {
      "midi": 60,
      "hit": false,
      "t": 103920.09931875039,
      "d": 177.710704166675,
      "v": 90
    },
    {
      "midi": 43,
      "hit": false,
      "t": 104100.8220687504,
      "d": 1518.0711000000156,
      "v": 104
    },
    {
      "midi": 48,
      "hit": false,
      "t": 104281.54481875041,
      "d": 1343.372441666681,
      "v": 90
    },
    {
      "midi": 51,
      "hit": false,
      "t": 104462.26756875041,
      "d": 1171.6858291666867,
      "v": 70
    },
    {
      "midi": 55,
      "hit": false,
      "t": 104642.99031875041,
      "d": 719.8789541666774,
      "v": 60
    },
    {
      "midi": 60,
      "hit": false,
      "t": 104823.71306875041,
      "d": 406.62618750000547,
      "v": 102
    },
    {
      "midi": 63,
      "hit": false,
      "t": 105004.43581875041,
      "d": 603.9151895833493,
      "v": 102
    },
    {
      "midi": 67,
      "hit": false,
      "t": 105185.15856875041,
      "d": 429.21653125001467,
      "v": 100
    },
    {
      "midi": 55,
      "hit": false,
      "t": 105365.88131875043,
      "d": 253.01184999999532,
      "v": 102
    },
    {
      "midi": 46,
      "hit": false,
      "t": 105546.60406875043,
      "d": 1597.8903145833465,
      "v": 86
    },
    {
      "midi": 51,
      "hit": false,
      "t": 105727.32681875043,
      "d": 1423.1916562500119,
      "v": 80
    },
    {
      "midi": 55,
      "hit": false,
      "t": 105908.04956875043,
      "d": 1209.3364020833396,
      "v": 74
    },
    {
      "midi": 58,
      "hit": false,
      "t": 106088.77231875043,
      "d": 600.9031437500089,
      "v": 76
    },
    {
      "midi": 63,
      "hit": false,
      "t": 106269.49506875043,
      "d": 308.7346979166614,
      "v": 106
    },
    {
      "midi": 67,
      "hit": false,
      "t": 106450.21781875043,
      "d": 643.0717854166724,
      "v": 88
    },
    {
      "midi": 70,
      "hit": false,
      "t": 106630.94056875043,
      "d": 521.083929166678,
      "v": 92
    },
    {
      "midi": 58,
      "hit": false,
      "t": 106811.66331875043,
      "d": 311.74674375000177,
      "v": 102
    },
    {
      "midi": 41,
      "hit": false,
      "t": 106992.38606875043,
      "d": 1503.0108708333573,
      "v": 98
    },
    {
      "midi": 46,
      "hit": false,
      "t": 107173.10881875045,
      "d": 1305.7218687500135,
      "v": 90
    },
    {
      "midi": 50,
      "hit": false,
      "t": 107353.83156875045,
      "d": 1131.023210416679,
      "v": 88
    },
    {
      "midi": 53,
      "hit": false,
      "t": 107534.55431875045,
      "d": 602.4091666666645,
      "v": 86
    },
    {
      "midi": 58,
      "hit": false,
      "t": 107715.27706875045,
      "d": 365.96356874999765,
      "v": 104
    },
    {
      "midi": 62,
      "hit": false,
      "t": 107895.99981875045,
      "d": 561.7465479166713,
      "v": 76
    },
    {
      "midi": 65,
      "hit": false,
      "t": 108076.72256875045,
      "d": 424.6984625000041,
      "v": 82
    },
    {
      "midi": 53,
      "hit": false,
      "t": 108257.44531875046,
      "d": 248.4937812499993,
      "v": 102
    },
    {
      "midi": 48,
      "hit": false,
      "t": 108438.16806875046,
      "d": 1442.7699541666807,
      "v": 102
    },
    {
      "midi": 53,
      "hit": false,
      "t": 108618.89081875046,
      "d": 1262.0472041666799,
      "v": 98
    },
    {
      "midi": 56,
      "hit": false,
      "t": 108799.61356875046,
      "d": 1081.324454166679,
      "v": 80
    },
    {
      "midi": 60,
      "hit": false,
      "t": 108980.33631875046,
      "d": 600.9031437500089,
      "v": 82
    },
    {
      "midi": 65,
      "hit": false,
      "t": 109161.05906875046,
      "d": 719.8789541666774,
      "v": 102
    },
    {
      "midi": 68,
      "hit": false,
      "t": 109341.78181875046,
      "d": 539.1562041666766,
      "v": 86
    },
    {
      "midi": 72,
      "hit": false,
      "t": 109522.50456875046,
      "d": 358.4334541666758,
      "v": 96
    },
    {
      "midi": 60,
      "hit": false,
      "t": 109703.22731875046,
      "d": 177.710704166675,
      "v": 90
    },
    {
      "midi": 72,
      "hit": false,
      "t": 109871.90188541675,
      "d": 2527.1064541666565,
      "v": 1
    },
    {
      "midi": 44,
      "hit": false,
      "t": 109883.95006875048,
      "d": 1362.9507395833352,
      "v": 102
    },
    {
      "midi": 51,
      "hit": false,
      "t": 110064.67281875048,
      "d": 1265.0592500000057,
      "v": 76
    },
    {
      "midi": 56,
      "hit": false,
      "t": 110245.39556875048,
      "d": 73.7951229166647,
      "v": 90
    },
    {
      "midi": 56,
      "hit": false,
      "t": 110426.11831875048,
      "d": 600.9031437500089,
      "v": 96
    },
    {
      "midi": 60,
      "hit": false,
      "t": 110606.84106875048,
      "d": 834.3366958333354,
      "v": 108
    },
    {
      "midi": 63,
      "hit": false,
      "t": 110787.56381875048,
      "d": 641.5657625000022,
      "v": 102
    },
    {
      "midi": 68,
      "hit": false,
      "t": 110968.28656875048,
      "d": 545.1802958333428,
      "v": 100
    },
    {
      "midi": 56,
      "hit": false,
      "t": 111149.00931875048,
      "d": 192.77093333333323,
      "v": 66
    },
    {
      "midi": 44,
      "hit": false,
      "t": 111329.73206875048,
      "d": 1403.6133583333576,
      "v": 96
    },
    {
      "midi": 51,
      "hit": false,
      "t": 111510.45481875048,
      "d": 1225.9026541666972,
      "v": 92
    },
    {
      "midi": 56,
      "hit": false,
      "t": 111691.1775687505,
      "d": 94.8794437500037,
      "v": 98
    },
    {
      "midi": 56,
      "hit": false,
      "t": 111871.9003187505,
      "d": 171.68661249999423,
      "v": 92
    },
    {
      "midi": 60,
      "hit": false,
      "t": 112052.6230687505,
      "d": 641.5657625000022,
      "v": 100
    },
    {
      "midi": 63,
      "hit": false,
      "t": 112233.3458187505,
      "d": 466.86710416666756,
      "v": 80
    },
    {
      "midi": 71,
      "hit": false,
      "t": 112402.02038541675,
      "d": 3249.9974541666743,
      "v": 1
    },
    {
      "midi": 68,
      "hit": false,
      "t": 112414.0685687505,
      "d": 329.81901875001495,
      "v": 88
    },
    {
      "midi": 56,
      "hit": false,
      "t": 112594.7913187505,
      "d": 194.27695625001797,
      "v": 74
    },
    {
      "midi": 43,
      "hit": false,
      "t": 112775.51406875052,
      "d": 1215.3604937500058,
      "v": 106
    },
    {
      "midi": 50,
      "hit": false,
      "t": 112956.23681875052,
      "d": 1249.9990208333475,
      "v": 98
    },
    {
      "midi": 55,
      "hit": false,
      "t": 113136.95956875052,
      "d": 1036.1437666666752,
      "v": 104
    },
    {
      "midi": 60,
      "hit": false,
      "t": 113317.68231875052,
      "d": 144.57820000000356,
      "v": 98
    },
    {
      "midi": 67,
      "hit": false,
      "t": 113498.40506875052,
      "d": 260.5419645833317,
      "v": 100
    },
    {
      "midi": 72,
      "hit": false,
      "t": 113679.12781875052,
      "d": 359.93947708333144,
      "v": 94
    },
    {
      "midi": 62,
      "hit": false,
      "t": 113859.85056875052,
      "d": 704.8187250000192,
      "v": 88
    },
    {
      "midi": 67,
      "hit": false,
      "t": 114040.57331875052,
      "d": 736.4452062500204,
      "v": 96
    },
    {
      "midi": 43,
      "hit": false,
      "t": 114221.29606875054,
      "d": 986.4450104166754,
      "v": 104
    },
    {
      "midi": 50,
      "hit": false,
      "t": 114402.01881875054,
      "d": 817.770443750007,
      "v": 98
    },
    {
      "midi": 55,
      "hit": false,
      "t": 114582.74156875054,
      "d": 81.3252375000011,
      "v": 102
    },
    {
      "midi": 59,
      "hit": false,
      "t": 114763.46431875054,
      "d": 111.44569583333214,
      "v": 88
    },
    {
      "midi": 67,
      "hit": false,
      "t": 114944.18706875054,
      "d": 408.1322104166611,
      "v": 106
    },
    {
      "midi": 71,
      "hit": false,
      "t": 115124.90981875054,
      "d": 456.3249437499908,
      "v": 102
    },
    {
      "midi": 62,
      "hit": false,
      "t": 115305.63256875055,
      "d": 355.4214083333063,
      "v": 86
    },
    {
      "midi": 67,
      "hit": false,
      "t": 115486.35531875053,
      "d": 146.0842229166592,
      "v": 84
    },
    {
      "midi": 60,
      "hit": false,
      "t": 115655.02988541676,
      "d": 1460.8422291666648,
      "v": 1
    },
    {
      "midi": 63,
      "hit": false,
      "t": 115655.02988541676,
      "d": 2828.311037499996,
      "v": 1
    },
    {
      "midi": 67,
      "hit": false,
      "t": 115655.02988541676,
      "d": 2828.311037499996,
      "v": 1
    },
    {
      "midi": 48,
      "hit": false,
      "t": 115667.07806875052,
      "d": 1245.480952083337,
      "v": 120
    },
    {
      "midi": 60,
      "hit": false,
      "t": 116028.52356875052,
      "d": 424.6984625000041,
      "v": 110
    },
    {
      "midi": 72,
      "hit": false,
      "t": 116377.92088541677,
      "d": 682.2283812499954,
      "v": 1
    },
    {
      "midi": 63,
      "hit": false,
      "t": 116389.96906875052,
      "d": 775.6018020833435,
      "v": 120
    },
    {
      "midi": 67,
      "hit": false,
      "t": 116389.96906875052,
      "d": 798.1921458333381,
      "v": 122
    },
    {
      "midi": 60,
      "hit": false,
      "t": 116751.41456875052,
      "d": 387.04788958333666,
      "v": 104
    },
    {
      "midi": 70,
      "hit": false,
      "t": 117100.81188541676,
      "d": 1359.9386937500094,
      "v": 1
    },
    {
      "midi": 58,
      "hit": false,
      "t": 117100.81188541676,
      "d": 1382.529037500004,
      "v": 1
    },
    {
      "midi": 46,
      "hit": false,
      "t": 117112.86006875052,
      "d": 1323.7941437499976,
      "v": 114
    },
    {
      "midi": 58,
      "hit": false,
      "t": 117474.30556875053,
      "d": 621.9874645833333,
      "v": 122
    },
    {
      "midi": 67,
      "hit": false,
      "t": 117835.75106875053,
      "d": 835.842718749991,
      "v": 120
    },
    {
      "midi": 63,
      "hit": false,
      "t": 117835.75106875053,
      "d": 873.4932916666585,
      "v": 120
    },
    {
      "midi": 58,
      "hit": false,
      "t": 118197.19656875053,
      "d": 326.80697291666,
      "v": 108
    },
    {
      "midi": 60,
      "hit": false,
      "t": 118546.59388541676,
      "d": 1081.3244541666645,
      "v": 1
    },
    {
      "midi": 63,
      "hit": false,
      "t": 118546.59388541676,
      "d": 1081.3244541666645,
      "v": 1
    },
    {
      "midi": 68,
      "hit": false,
      "t": 118546.59388541676,
      "d": 1081.3244541666645,
      "v": 1
    },
    {
      "midi": 44,
      "hit": false,
      "t": 118558.64206875052,
      "d": 1420.1796104166715,
      "v": 116
    },
    {
      "midi": 56,
      "hit": false,
      "t": 118920.08756875052,
      "d": 563.2525708333415,
      "v": 116
    },
    {
      "midi": 68,
      "hit": false,
      "t": 119281.53306875052,
      "d": 623.4934875000035,
      "v": 118
    },
    {
      "midi": 63,
      "hit": false,
      "t": 119281.53306875052,
      "d": 640.059739583332,
      "v": 122
    },
    {
      "midi": 60,
      "hit": false,
      "t": 119281.53306875052,
      "d": 643.0717854166724,
      "v": 118
    },
    {
      "midi": 58,
      "hit": false,
      "t": 119630.93038541677,
      "d": 1804.2154541666678,
      "v": 1
    },
    {
      "midi": 63,
      "hit": false,
      "t": 119630.93038541677,
      "d": 1804.2154541666678,
      "v": 1
    },
    {
      "midi": 67,
      "hit": false,
      "t": 119630.93038541677,
      "d": 1804.2154541666678,
      "v": 1
    },
    {
      "midi": 56,
      "hit": false,
      "t": 119642.97856875052,
      "d": 310.2407208333316,
      "v": 114
    },
    {
      "midi": 39,
      "hit": false,
      "t": 120004.42406875052,
      "d": 679.2163354166696,
      "v": 116
    },
    {
      "midi": 51,
      "hit": false,
      "t": 120365.86956875052,
      "d": 347.891293749999,
      "v": 120
    },
    {
      "midi": 59,
      "hit": false,
      "t": 120727.31506875053,
      "d": 641.5657625000022,
      "v": 116
    },
    {
      "midi": 67,
      "hit": false,
      "t": 120727.31506875053,
      "d": 659.6380375000008,
      "v": 114
    },
    {
      "midi": 62,
      "hit": false,
      "t": 120727.31506875053,
      "d": 661.144060416671,
      "v": 114
    },
    {
      "midi": 55,
      "hit": false,
      "t": 120727.31506875053,
      "d": 679.2163354166696,
      "v": 118
    },
    {
      "midi": 43,
      "hit": false,
      "t": 120727.31506875053,
      "d": 682.22838125001,
      "v": 104
    },
    {
      "midi": 67,
      "hit": false,
      "t": 121438.15788541677,
      "d": 628.0115562499996,
      "v": 1
    },
    {
      "midi": 60,
      "hit": false,
      "t": 121438.15788541677,
      "d": 1421.6856333333417,
      "v": 1
    },
    {
      "midi": 63,
      "hit": false,
      "t": 121438.15788541677,
      "d": 2749.9978458333353,
      "v": 1
    },
    {
      "midi": 48,
      "hit": false,
      "t": 121450.20606875053,
      "d": 1245.480952083337,
      "v": 120
    },
    {
      "midi": 60,
      "hit": false,
      "t": 121811.65156875053,
      "d": 424.6984625000041,
      "v": 110
    },
    {
      "midi": 72,
      "hit": false,
      "t": 122161.04888541678,
      "d": 772.5897562500031,
      "v": 1
    },
    {
      "midi": 63,
      "hit": false,
      "t": 122173.09706875053,
      "d": 775.6018020833435,
      "v": 120
    },
    {
      "midi": 67,
      "hit": false,
      "t": 122173.09706875053,
      "d": 798.1921458333381,
      "v": 122
    },
    {
      "midi": 60,
      "hit": false,
      "t": 122534.54256875053,
      "d": 387.04788958333666,
      "v": 104
    },
    {
      "midi": 58,
      "hit": false,
      "t": 122883.93988541678,
      "d": 1305.721868749999,
      "v": 1
    },
    {
      "midi": 70,
      "hit": false,
      "t": 122883.93988541678,
      "d": 1495.4807562499918,
      "v": 1
    },
    {
      "midi": 46,
      "hit": false,
      "t": 122895.98806875054,
      "d": 1323.7941437500122,
      "v": 114
    },
    {
      "midi": 58,
      "hit": false,
      "t": 123257.43356875054,
      "d": 621.9874645833333,
      "v": 122
    },
    {
      "midi": 67,
      "hit": false,
      "t": 123618.87906875054,
      "d": 835.8427187500056,
      "v": 120
    },
    {
      "midi": 63,
      "hit": false,
      "t": 123618.87906875054,
      "d": 873.493291666673,
      "v": 120
    },
    {
      "midi": 58,
      "hit": false,
      "t": 123980.32456875054,
      "d": 326.80697291667457,
      "v": 108
    },
    {
      "midi": 63,
      "hit": false,
      "t": 124329.72188541677,
      "d": 1081.3244541666645,
      "v": 1
    },
    {
      "midi": 68,
      "hit": false,
      "t": 124329.72188541677,
      "d": 1081.3244541666645,
      "v": 1
    },
    {
      "midi": 72,
      "hit": false,
      "t": 124329.72188541677,
      "d": 1081.3244541666645,
      "v": 1
    },
    {
      "midi": 75,
      "hit": false,
      "t": 124329.72188541677,
      "d": 1081.3244541666645,
      "v": 1
    },
    {
      "midi": 44,
      "hit": false,
      "t": 124341.77006875054,
      "d": 1420.1796104166715,
      "v": 116
    },
    {
      "midi": 56,
      "hit": false,
      "t": 124703.21556875054,
      "d": 563.2525708333415,
      "v": 116
    },
    {
      "midi": 68,
      "hit": false,
      "t": 125064.66106875055,
      "d": 623.4934875000035,
      "v": 118
    },
    {
      "midi": 63,
      "hit": false,
      "t": 125064.66106875055,
      "d": 640.059739583332,
      "v": 122
    },
    {
      "midi": 60,
      "hit": false,
      "t": 125064.66106875055,
      "d": 643.0717854166724,
      "v": 118
    },
    {
      "midi": 58,
      "hit": false,
      "t": 125414.05838541678,
      "d": 1804.2154541666678,
      "v": 1
    },
    {
      "midi": 63,
      "hit": false,
      "t": 125414.05838541678,
      "d": 1804.2154541666678,
      "v": 1
    },
    {
      "midi": 70,
      "hit": false,
      "t": 125414.05838541678,
      "d": 1804.2154541666678,
      "v": 1
    },
    {
      "midi": 75,
      "hit": false,
      "t": 125414.05838541678,
      "d": 1804.2154541666678,
      "v": 1
    },
    {
      "midi": 56,
      "hit": false,
      "t": 125426.10656875055,
      "d": 310.2407208333316,
      "v": 114
    },
    {
      "midi": 39,
      "hit": false,
      "t": 125787.55206875055,
      "d": 679.2163354166696,
      "v": 116
    },
    {
      "midi": 51,
      "hit": false,
      "t": 126148.99756875055,
      "d": 347.891293749999,
      "v": 120
    },
    {
      "midi": 59,
      "hit": false,
      "t": 126510.44306875055,
      "d": 641.5657625000022,
      "v": 116
    },
    {
      "midi": 67,
      "hit": false,
      "t": 126510.44306875055,
      "d": 659.6380375000008,
      "v": 114
    },
    {
      "midi": 62,
      "hit": false,
      "t": 126510.44306875055,
      "d": 661.144060416671,
      "v": 114
    },
    {
      "midi": 55,
      "hit": false,
      "t": 126510.44306875055,
      "d": 679.2163354166696,
      "v": 118
    },
    {
      "midi": 43,
      "hit": false,
      "t": 126510.44306875055,
      "d": 682.22838125001,
      "v": 104
    },
    {
      "midi": 60,
      "hit": false,
      "t": 127221.28588541679,
      "d": 1442.7699541666661,
      "v": 1
    },
    {
      "midi": 63,
      "hit": false,
      "t": 127221.28588541679,
      "d": 2790.660464583343,
      "v": 1
    },
    {
      "midi": 48,
      "hit": false,
      "t": 127233.33406875056,
      "d": 1245.480952083337,
      "v": 120
    },
    {
      "midi": 67,
      "hit": false,
      "t": 127582.73138541679,
      "d": 290.66242291666276,
      "v": 1
    },
    {
      "midi": 60,
      "hit": false,
      "t": 127594.77956875056,
      "d": 424.6984625000041,
      "v": 110
    },
    {
      "midi": 72,
      "hit": false,
      "t": 127944.17688541679,
      "d": 727.4090687499993,
      "v": 1
    },
    {
      "midi": 63,
      "hit": false,
      "t": 127956.22506875056,
      "d": 775.6018020833435,
      "v": 120
    },
    {
      "midi": 67,
      "hit": false,
      "t": 127956.22506875056,
      "d": 798.1921458333381,
      "v": 122
    },
    {
      "midi": 60,
      "hit": false,
      "t": 128317.67056875056,
      "d": 387.04788958333666,
      "v": 104
    },
    {
      "midi": 58,
      "hit": false,
      "t": 128667.06788541679,
      "d": 1442.7699541666661,
      "v": 1
    },
    {
      "midi": 70,
      "hit": false,
      "t": 128667.06788541679,
      "d": 1442.7699541666661,
      "v": 1
    },
    {
      "midi": 46,
      "hit": false,
      "t": 128679.11606875056,
      "d": 1323.7941437500122,
      "v": 114
    },
    {
      "midi": 58,
      "hit": false,
      "t": 129040.56156875056,
      "d": 621.9874645833333,
      "v": 122
    },
    {
      "midi": 67,
      "hit": false,
      "t": 129402.00706875056,
      "d": 835.8427187500056,
      "v": 120
    },
    {
      "midi": 63,
      "hit": false,
      "t": 129402.00706875056,
      "d": 873.493291666673,
      "v": 120
    },
    {
      "midi": 58,
      "hit": false,
      "t": 129763.45256875057,
      "d": 326.80697291667457,
      "v": 108
    },
    {
      "midi": 60,
      "hit": false,
      "t": 130112.8498854168,
      "d": 1081.3244541666645,
      "v": 1
    },
    {
      "midi": 63,
      "hit": false,
      "t": 130112.8498854168,
      "d": 1081.3244541666645,
      "v": 1
    },
    {
      "midi": 68,
      "hit": false,
      "t": 130112.8498854168,
      "d": 1081.3244541666645,
      "v": 1
    },
    {
      "midi": 44,
      "hit": false,
      "t": 130124.89806875057,
      "d": 1420.1796104167006,
      "v": 116
    },
    {
      "midi": 56,
      "hit": false,
      "t": 130486.34356875057,
      "d": 563.2525708333415,
      "v": 116
    },
    {
      "midi": 68,
      "hit": false,
      "t": 130847.78906875057,
      "d": 623.4934875000035,
      "v": 118
    },
    {
      "midi": 63,
      "hit": false,
      "t": 130847.78906875057,
      "d": 640.0597395833465,
      "v": 122
    },
    {
      "midi": 60,
      "hit": false,
      "t": 130847.78906875057,
      "d": 643.0717854166869,
      "v": 118
    },
    {
      "midi": 58,
      "hit": false,
      "t": 131197.1863854168,
      "d": 1804.2154541666678,
      "v": 1
    },
    {
      "midi": 63,
      "hit": false,
      "t": 131197.1863854168,
      "d": 1804.2154541666678,
      "v": 1
    },
    {
      "midi": 67,
      "hit": false,
      "t": 131197.1863854168,
      "d": 1804.2154541666678,
      "v": 1
    },
    {
      "midi": 56,
      "hit": false,
      "t": 131209.23456875057,
      "d": 310.2407208333607,
      "v": 114
    },
    {
      "midi": 39,
      "hit": false,
      "t": 131570.6800687506,
      "d": 1424.697679166682,
      "v": 114
    },
    {
      "midi": 51,
      "hit": false,
      "t": 131932.1255687506,
      "d": 603.9151895833493,
      "v": 114
    },
    {
      "midi": 58,
      "hit": false,
      "t": 132293.5710687506,
      "d": 621.9874645833333,
      "v": 118
    },
    {
      "midi": 63,
      "hit": false,
      "t": 132293.5710687506,
      "d": 661.144060416671,
      "v": 118
    },
    {
      "midi": 67,
      "hit": false,
      "t": 132293.5710687506,
      "d": 662.6500833333412,
      "v": 116
    },
    {
      "midi": 51,
      "hit": false,
      "t": 132655.0165687506,
      "d": 326.80697291667457,
      "v": 116
    },
    {
      "midi": 65,
      "hit": false,
      "t": 133004.4138854168,
      "d": 2707.8292041666573,
      "v": 1
    },
    {
      "midi": 70,
      "hit": false,
      "t": 133004.4138854168,
      "d": 2707.8292041666573,
      "v": 1
    },
    {
      "midi": 46,
      "hit": false,
      "t": 133016.4620687506,
      "d": 1302.7098229166586,
      "v": 122
    },
    {
      "midi": 53,
      "hit": false,
      "t": 133377.9075687506,
      "d": 659.6380375000008,
      "v": 80
    },
    {
      "midi": 65,
      "hit": false,
      "t": 133739.3530687506,
      "d": 972.8908041666145,
      "v": 118
    },
    {
      "midi": 62,
      "hit": false,
      "t": 133739.3530687506,
      "d": 990.9630791666277,
      "v": 120
    },
    {
      "midi": 58,
      "hit": false,
      "t": 133739.3530687506,
      "d": 1012.0473999999522,
      "v": 118
    },
    {
      "midi": 53,
      "hit": false,
      "t": 134100.79856875062,
      "d": 542.1682499999588,
      "v": 110
    },
    {
      "midi": 46,
      "hit": false,
      "t": 134462.2440687506,
      "d": 1108.4328666666406,
      "v": 122
    },
    {
      "midi": 53,
      "hit": false,
      "t": 134823.68956875056,
      "d": 603.9151895833493,
      "v": 98
    },
    {
      "midi": 58,
      "hit": false,
      "t": 135185.13506875056,
      "d": 775.6018020833435,
      "v": 118
    },
    {
      "midi": 62,
      "hit": false,
      "t": 135185.13506875056,
      "d": 795.1800999999978,
      "v": 118
    },
    {
      "midi": 65,
      "hit": false,
      "t": 135185.13506875056,
      "d": 798.1921458333381,
      "v": 116
    },
    {
      "midi": 53,
      "hit": false,
      "t": 135546.58056875056,
      "d": 346.38527083332883,
      "v": 104
    },
    {
      "midi": 63,
      "hit": false,
      "t": 135715.2551354168,
      "d": 3076.80481875001,
      "v": 1
    },
    {
      "midi": 68,
      "hit": false,
      "t": 135715.2551354168,
      "d": 3076.80481875001,
      "v": 1
    },
    {
      "midi": 44,
      "hit": false,
      "t": 135908.02606875057,
      "d": 1152.107531250018,
      "v": 116
    },
    {
      "midi": 56,
      "hit": false,
      "t": 136269.47156875057,
      "d": 561.7465479166713,
      "v": 108
    },
    {
      "midi": 58,
      "hit": false,
      "t": 136630.91706875057,
      "d": 777.1078249999846,
      "v": 110
    },
    {
      "midi": 63,
      "hit": false,
      "t": 136630.91706875057,
      "d": 793.6740770833276,
      "v": 104
    },
    {
      "midi": 60,
      "hit": false,
      "t": 136630.91706875057,
      "d": 798.1921458333381,
      "v": 114
    },
    {
      "midi": 56,
      "hit": false,
      "t": 136992.36256875057,
      "d": 368.9756145833235,
      "v": 102
    },
    {
      "midi": 44,
      "hit": false,
      "t": 137353.80806875057,
      "d": 1365.962785416661,
      "v": 116
    },
    {
      "midi": 56,
      "hit": false,
      "t": 137715.25356875057,
      "d": 524.0959750000038,
      "v": 104
    },
    {
      "midi": 63,
      "hit": false,
      "t": 138076.69906875057,
      "d": 561.7465479166713,
      "v": 108
    },
    {
      "midi": 60,
      "hit": false,
      "t": 138076.69906875057,
      "d": 563.2525708333415,
      "v": 112
    },
    {
      "midi": 58,
      "hit": false,
      "t": 138076.69906875057,
      "d": 582.8308687499957,
      "v": 108
    },
    {
      "midi": 56,
      "hit": false,
      "t": 138438.14456875058,
      "d": 287.65037708333693,
      "v": 98
    },
    {
      "midi": 70,
      "hit": false,
      "t": 150353.79788541683,
      "d": 1081.3244541666645,
      "v": 1
    },
    {
      "midi": 72,
      "hit": false,
      "t": 151438.13438541684,
      "d": 212.34923124997295,
      "v": 1
    },
    {
      "midi": 70,
      "hit": false,
      "t": 151618.85713541682,
      "d": 582.8308687499666,
      "v": 1
    },
    {
      "midi": 68,
      "hit": false,
      "t": 152161.02538541678,
      "d": 177.710704166675,
      "v": 1
    },
    {
      "midi": 67,
      "hit": false,
      "t": 152341.7481354168,
      "d": 540.6622270833468,
      "v": 1
    },
    {
      "midi": 68,
      "hit": false,
      "t": 152883.91638541681,
      "d": 192.77093333331868,
      "v": 1
    },
    {
      "midi": 70,
      "hit": false,
      "t": 153064.6391354168,
      "d": 1262.0472041666799,
      "v": 1
    },
    {
      "midi": 72,
      "hit": false,
      "t": 154329.69838541682,
      "d": 192.77093333331868,
      "v": 1
    },
    {
      "midi": 70,
      "hit": false,
      "t": 154510.4211354168,
      "d": 1631.0228187499742,
      "v": 1
    },
    {
      "midi": 56,
      "hit": false,
      "t": 159040.53806875058,
      "d": 637.0476937500061,
      "v": 120
    },
    {
      "midi": 60,
      "hit": false,
      "t": 159040.53806875058,
      "d": 638.5537166666763,
      "v": 118
    },
    {
      "midi": 51,
      "hit": false,
      "t": 159040.53806875058,
      "d": 659.6380375000008,
      "v": 120
    },
    {
      "midi": 62,
      "hit": false,
      "t": 159763.42906875059,
      "d": 582.8308687499957,
      "v": 116
    },
    {
      "midi": 58,
      "hit": false,
      "t": 159763.42906875059,
      "d": 603.9151895833202,
      "v": 116
    },
    {
      "midi": 53,
      "hit": false,
      "t": 159763.42906875059,
      "d": 623.4934874999744,
      "v": 120
    },
    {
      "midi": 55,
      "hit": false,
      "t": 160486.32006875056,
      "d": 600.9031437500089,
      "v": 118
    },
    {
      "midi": 60,
      "hit": false,
      "t": 160486.32006875056,
      "d": 621.9874645833333,
      "v": 118
    },
    {
      "midi": 63,
      "hit": false,
      "t": 160486.32006875056,
      "d": 659.6380375000008,
      "v": 118
    },
    {
      "midi": 58,
      "hit": false,
      "t": 161209.21106875056,
      "d": 617.4693958333228,
      "v": 114
    },
    {
      "midi": 53,
      "hit": false,
      "t": 161209.21106875056,
      "d": 621.9874645833333,
      "v": 120
    },
    {
      "midi": 62,
      "hit": false,
      "t": 161209.21106875056,
      "d": 637.0476937500061,
      "v": 114
    },
    {
      "midi": 65,
      "hit": false,
      "t": 161209.21106875056,
      "d": 640.0597395833465,
      "v": 114
    },
    {
      "midi": 48,
      "hit": false,
      "t": 161932.10206875057,
      "d": 1245.480952083337,
      "v": 111
    },
    {
      "midi": 60,
      "hit": false,
      "t": 162293.54756875057,
      "d": 424.6984625000041,
      "v": 101
    },
    {
      "midi": 63,
      "hit": false,
      "t": 162654.99306875057,
      "d": 775.6018020833435,
      "v": 111
    },
    {
      "midi": 67,
      "hit": false,
      "t": 162654.99306875057,
      "d": 798.1921458333381,
      "v": 113
    },
    {
      "midi": 60,
      "hit": false,
      "t": 163016.43856875057,
      "d": 387.04788958333666,
      "v": 95
    },
    {
      "midi": 46,
      "hit": false,
      "t": 163377.88406875057,
      "d": 1323.7941437500122,
      "v": 105
    },
    {
      "midi": 58,
      "hit": false,
      "t": 163739.32956875057,
      "d": 621.9874645833333,
      "v": 113
    },
    {
      "midi": 67,
      "hit": false,
      "t": 164100.77506875058,
      "d": 835.8427187500056,
      "v": 111
    },
    {
      "midi": 63,
      "hit": false,
      "t": 164100.77506875058,
      "d": 873.493291666673,
      "v": 111
    },
    {
      "midi": 58,
      "hit": false,
      "t": 164462.22056875058,
      "d": 326.80697291667457,
      "v": 99
    },
    {
      "midi": 44,
      "hit": false,
      "t": 164823.66606875058,
      "d": 1420.1796104167006,
      "v": 107
    },
    {
      "midi": 56,
      "hit": false,
      "t": 165185.11156875058,
      "d": 563.2525708333415,
      "v": 107
    },
    {
      "midi": 68,
      "hit": false,
      "t": 165546.55706875058,
      "d": 623.4934875000035,
      "v": 109
    },
    {
      "midi": 63,
      "hit": false,
      "t": 165546.55706875058,
      "d": 640.0597395833465,
      "v": 113
    },
    {
      "midi": 60,
      "hit": false,
      "t": 165546.55706875058,
      "d": 643.0717854166869,
      "v": 109
    },
    {
      "midi": 56,
      "hit": false,
      "t": 165908.00256875058,
      "d": 310.2407208333607,
      "v": 105
    },
    {
      "midi": 39,
      "hit": false,
      "t": 166269.44806875061,
      "d": 679.216335416655,
      "v": 107
    },
    {
      "midi": 51,
      "hit": false,
      "t": 166630.89356875062,
      "d": 347.891293749999,
      "v": 111
    },
    {
      "midi": 59,
      "hit": false,
      "t": 166992.33906875062,
      "d": 641.5657624999876,
      "v": 107
    },
    {
      "midi": 67,
      "hit": false,
      "t": 166992.33906875062,
      "d": 659.6380375000008,
      "v": 105
    },
    {
      "midi": 62,
      "hit": false,
      "t": 166992.33906875062,
      "d": 661.144060416671,
      "v": 105
    },
    {
      "midi": 55,
      "hit": false,
      "t": 166992.33906875062,
      "d": 679.2163354166842,
      "v": 109
    },
    {
      "midi": 43,
      "hit": false,
      "t": 166992.33906875062,
      "d": 682.2283812500245,
      "v": 95
    },
    {
      "midi": 48,
      "hit": false,
      "t": 167715.23006875065,
      "d": 1245.480952083337,
      "v": 111
    },
    {
      "midi": 60,
      "hit": false,
      "t": 168076.67556875065,
      "d": 424.6984625000041,
      "v": 101
    },
    {
      "midi": 63,
      "hit": false,
      "t": 168438.12106875065,
      "d": 775.6018020833435,
      "v": 111
    },
    {
      "midi": 67,
      "hit": false,
      "t": 168438.12106875065,
      "d": 798.1921458333381,
      "v": 113
    },
    {
      "midi": 60,
      "hit": false,
      "t": 168799.56656875066,
      "d": 387.04788958333666,
      "v": 95
    },
    {
      "midi": 46,
      "hit": false,
      "t": 169161.01206875066,
      "d": 1323.7941437500122,
      "v": 105
    },
    {
      "midi": 58,
      "hit": false,
      "t": 169522.45756875066,
      "d": 621.9874645833333,
      "v": 113
    },
    {
      "midi": 67,
      "hit": false,
      "t": 169883.90306875066,
      "d": 835.8427187500056,
      "v": 111
    },
    {
      "midi": 63,
      "hit": false,
      "t": 169883.90306875066,
      "d": 873.493291666673,
      "v": 111
    },
    {
      "midi": 58,
      "hit": false,
      "t": 170245.34856875066,
      "d": 326.80697291667457,
      "v": 99
    },
    {
      "midi": 44,
      "hit": false,
      "t": 170606.79406875066,
      "d": 1420.1796104167006,
      "v": 107
    },
    {
      "midi": 56,
      "hit": false,
      "t": 170968.23956875067,
      "d": 563.2525708333415,
      "v": 107
    },
    {
      "midi": 68,
      "hit": false,
      "t": 171329.68506875067,
      "d": 623.4934875000035,
      "v": 109
    },
    {
      "midi": 63,
      "hit": false,
      "t": 171329.68506875067,
      "d": 640.0597395833465,
      "v": 113
    },
    {
      "midi": 60,
      "hit": false,
      "t": 171329.68506875067,
      "d": 643.0717854166869,
      "v": 109
    },
    {
      "midi": 56,
      "hit": false,
      "t": 171691.13056875067,
      "d": 310.2407208333607,
      "v": 105
    },
    {
      "midi": 39,
      "hit": false,
      "t": 172052.5760687507,
      "d": 679.216335416655,
      "v": 107
    },
    {
      "midi": 51,
      "hit": false,
      "t": 172414.0215687507,
      "d": 347.891293749999,
      "v": 111
    },
    {
      "midi": 59,
      "hit": false,
      "t": 172775.4670687507,
      "d": 641.5657624999876,
      "v": 107
    },
    {
      "midi": 67,
      "hit": false,
      "t": 172775.4670687507,
      "d": 659.6380375000008,
      "v": 105
    },
    {
      "midi": 62,
      "hit": false,
      "t": 172775.4670687507,
      "d": 661.144060416671,
      "v": 105
    },
    {
      "midi": 55,
      "hit": false,
      "t": 172775.4670687507,
      "d": 679.2163354166842,
      "v": 109
    },
    {
      "midi": 43,
      "hit": false,
      "t": 172775.4670687507,
      "d": 682.2283812500245,
      "v": 95
    },
    {
      "midi": 48,
      "hit": false,
      "t": 173498.35806875073,
      "d": 1245.480952083337,
      "v": 111
    },
    {
      "midi": 60,
      "hit": false,
      "t": 173859.80356875074,
      "d": 424.6984625000041,
      "v": 101
    },
    {
      "midi": 63,
      "hit": false,
      "t": 174221.24906875074,
      "d": 775.6018020833435,
      "v": 111
    },
    {
      "midi": 67,
      "hit": false,
      "t": 174221.24906875074,
      "d": 798.1921458333381,
      "v": 113
    },
    {
      "midi": 60,
      "hit": false,
      "t": 174582.69456875074,
      "d": 387.04788958333666,
      "v": 95
    },
    {
      "midi": 46,
      "hit": false,
      "t": 174944.14006875074,
      "d": 1323.7941437500122,
      "v": 105
    },
    {
      "midi": 58,
      "hit": false,
      "t": 175305.58556875074,
      "d": 621.9874645833333,
      "v": 113
    },
    {
      "midi": 67,
      "hit": false,
      "t": 175667.03106875074,
      "d": 835.8427187500056,
      "v": 111
    },
    {
      "midi": 63,
      "hit": false,
      "t": 175667.03106875074,
      "d": 873.493291666673,
      "v": 111
    },
    {
      "midi": 58,
      "hit": false,
      "t": 176028.47656875075,
      "d": 326.80697291667457,
      "v": 99
    },
    {
      "midi": 44,
      "hit": false,
      "t": 176389.92206875075,
      "d": 1420.1796104167006,
      "v": 107
    },
    {
      "midi": 56,
      "hit": false,
      "t": 176751.36756875075,
      "d": 563.2525708333415,
      "v": 107
    },
    {
      "midi": 68,
      "hit": false,
      "t": 177112.81306875075,
      "d": 623.4934875000035,
      "v": 109
    },
    {
      "midi": 63,
      "hit": false,
      "t": 177112.81306875075,
      "d": 640.0597395833465,
      "v": 113
    },
    {
      "midi": 60,
      "hit": false,
      "t": 177112.81306875075,
      "d": 643.0717854166869,
      "v": 109
    },
    {
      "midi": 56,
      "hit": false,
      "t": 177474.25856875075,
      "d": 310.2407208333607,
      "v": 105
    },
    {
      "midi": 39,
      "hit": false,
      "t": 177835.70406875078,
      "d": 1424.697679166682,
      "v": 105
    },
    {
      "midi": 51,
      "hit": false,
      "t": 178197.14956875078,
      "d": 603.9151895833493,
      "v": 105
    },
    {
      "midi": 58,
      "hit": false,
      "t": 178558.5950687508,
      "d": 621.9874645833333,
      "v": 109
    },
    {
      "midi": 63,
      "hit": false,
      "t": 178558.5950687508,
      "d": 661.144060416671,
      "v": 109
    },
    {
      "midi": 67,
      "hit": false,
      "t": 178558.5950687508,
      "d": 662.6500833333412,
      "v": 107
    },
    {
      "midi": 51,
      "hit": false,
      "t": 178920.0405687508,
      "d": 326.80697291667457,
      "v": 107
    },
    {
      "midi": 65,
      "hit": false,
      "t": 179269.4378854168,
      "d": 2707.8292041666573,
      "v": 1
    },
    {
      "midi": 70,
      "hit": false,
      "t": 179269.4378854168,
      "d": 2707.8292041666573,
      "v": 1
    },
    {
      "midi": 46,
      "hit": false,
      "t": 179281.4860687508,
      "d": 1302.7098229166586,
      "v": 113
    },
    {
      "midi": 53,
      "hit": false,
      "t": 179642.9315687508,
      "d": 659.6380375000008,
      "v": 71
    },
    {
      "midi": 65,
      "hit": false,
      "t": 180004.3770687508,
      "d": 972.8908041666145,
      "v": 109
    },
    {
      "midi": 62,
      "hit": false,
      "t": 180004.3770687508,
      "d": 990.9630791666277,
      "v": 111
    },
    {
      "midi": 58,
      "hit": false,
      "t": 180004.3770687508,
      "d": 1012.0473999999522,
      "v": 109
    },
    {
      "midi": 53,
      "hit": false,
      "t": 180365.8225687508,
      "d": 542.1682499999588,
      "v": 101
    },
    {
      "midi": 46,
      "hit": false,
      "t": 180727.26806875077,
      "d": 1108.4328666666406,
      "v": 113
    },
    {
      "midi": 53,
      "hit": false,
      "t": 181088.71356875074,
      "d": 603.9151895833493,
      "v": 89
    },
    {
      "midi": 58,
      "hit": false,
      "t": 181450.15906875074,
      "d": 775.6018020833435,
      "v": 109
    },
    {
      "midi": 62,
      "hit": false,
      "t": 181450.15906875074,
      "d": 795.1800999999978,
      "v": 109
    },
    {
      "midi": 65,
      "hit": false,
      "t": 181450.15906875074,
      "d": 798.1921458333381,
      "v": 107
    },
    {
      "midi": 53,
      "hit": false,
      "t": 181811.60456875074,
      "d": 346.38527083332883,
      "v": 95
    },
    {
      "midi": 63,
      "hit": false,
      "t": 181980.2791354168,
      "d": 3069.27470416663,
      "v": 1
    },
    {
      "midi": 68,
      "hit": false,
      "t": 181980.2791354168,
      "d": 3069.27470416663,
      "v": 1
    },
    {
      "midi": 44,
      "hit": false,
      "t": 182173.05006875074,
      "d": 1152.107531250018,
      "v": 107
    },
    {
      "midi": 56,
      "hit": false,
      "t": 182534.49556875075,
      "d": 561.7465479166713,
      "v": 99
    },
    {
      "midi": 58,
      "hit": false,
      "t": 182895.94106875075,
      "d": 777.1078249999846,
      "v": 101
    },
    {
      "midi": 63,
      "hit": false,
      "t": 182895.94106875075,
      "d": 793.6740770833276,
      "v": 95
    },
    {
      "midi": 60,
      "hit": false,
      "t": 182895.94106875075,
      "d": 798.1921458333381,
      "v": 105
    },
    {
      "midi": 56,
      "hit": false,
      "t": 183257.38656875075,
      "d": 368.9756145833235,
      "v": 93
    },
    {
      "midi": 44,
      "hit": false,
      "t": 183618.83206875075,
      "d": 719.8789541666629,
      "v": 107
    },
    {
      "midi": 56,
      "hit": false,
      "t": 183980.27756875075,
      "d": 358.43345416666125,
      "v": 95
    },
    {
      "midi": 62,
      "hit": false,
      "t": 184341.72306875075,
      "d": 271.08412499999395,
      "v": 116
    },
    {
      "midi": 65,
      "hit": false,
      "t": 184341.72306875075,
      "d": 271.08412499999395,
      "v": 120
    },
    {
      "midi": 70,
      "hit": false,
      "t": 184341.72306875075,
      "d": 290.6624229166482,
      "v": 118
    },
    {
      "midi": 66,
      "hit": false,
      "t": 184703.16856875073,
      "d": 328.31299583334476,
      "v": 94
    },
    {
      "midi": 63,
      "hit": false,
      "t": 184703.16856875073,
      "d": 347.891293749999,
      "v": 114
    },
    {
      "midi": 71,
      "hit": false,
      "t": 184703.16856875073,
      "d": 365.9635687500122,
      "v": 112
    },
    {
      "midi": 60,
      "hit": false,
      "t": 185052.56588541676,
      "d": 1460.8422291666793,
      "v": 1
    },
    {
      "midi": 63,
      "hit": false,
      "t": 185052.56588541676,
      "d": 2828.3110375000106,
      "v": 1
    },
    {
      "midi": 67,
      "hit": false,
      "t": 185052.56588541676,
      "d": 2828.3110375000106,
      "v": 1
    },
    {
      "midi": 48,
      "hit": false,
      "t": 185064.61406875073,
      "d": 1245.480952083337,
      "v": 120
    },
    {
      "midi": 60,
      "hit": false,
      "t": 185426.05956875073,
      "d": 424.6984625000041,
      "v": 110
    },
    {
      "midi": 72,
      "hit": false,
      "t": 185775.45688541676,
      "d": 682.2283812499954,
      "v": 1
    },
    {
      "midi": 63,
      "hit": false,
      "t": 185787.50506875073,
      "d": 775.6018020833435,
      "v": 120
    },
    {
      "midi": 67,
      "hit": false,
      "t": 185787.50506875073,
      "d": 798.1921458333381,
      "v": 122
    },
    {
      "midi": 60,
      "hit": false,
      "t": 186148.95056875073,
      "d": 387.04788958333666,
      "v": 104
    },
    {
      "midi": 70,
      "hit": false,
      "t": 186498.34788541676,
      "d": 1359.9386937500094,
      "v": 1
    },
    {
      "midi": 58,
      "hit": false,
      "t": 186498.34788541676,
      "d": 1382.529037500004,
      "v": 1
    },
    {
      "midi": 46,
      "hit": false,
      "t": 186510.39606875074,
      "d": 1323.7941437500122,
      "v": 114
    },
    {
      "midi": 58,
      "hit": false,
      "t": 186871.84156875074,
      "d": 621.9874645833333,
      "v": 122
    },
    {
      "midi": 67,
      "hit": false,
      "t": 187233.28706875074,
      "d": 835.8427187500056,
      "v": 120
    },
    {
      "midi": 63,
      "hit": false,
      "t": 187233.28706875074,
      "d": 873.493291666673,
      "v": 120
    },
    {
      "midi": 58,
      "hit": false,
      "t": 187594.73256875074,
      "d": 326.80697291667457,
      "v": 108
    },
    {
      "midi": 60,
      "hit": false,
      "t": 187944.12988541677,
      "d": 1081.3244541666645,
      "v": 1
    },
    {
      "midi": 63,
      "hit": false,
      "t": 187944.12988541677,
      "d": 1081.3244541666645,
      "v": 1
    },
    {
      "midi": 68,
      "hit": false,
      "t": 187944.12988541677,
      "d": 1081.3244541666645,
      "v": 1
    },
    {
      "midi": 44,
      "hit": false,
      "t": 187956.17806875074,
      "d": 1420.1796104167006,
      "v": 116
    },
    {
      "midi": 56,
      "hit": false,
      "t": 188317.62356875074,
      "d": 563.2525708333415,
      "v": 116
    },
    {
      "midi": 68,
      "hit": false,
      "t": 188679.06906875074,
      "d": 623.4934875000035,
      "v": 118
    },
    {
      "midi": 63,
      "hit": false,
      "t": 188679.06906875074,
      "d": 640.0597395833465,
      "v": 122
    },
    {
      "midi": 60,
      "hit": false,
      "t": 188679.06906875074,
      "d": 643.0717854166869,
      "v": 118
    },
    {
      "midi": 58,
      "hit": false,
      "t": 189028.46638541677,
      "d": 1804.2154541666678,
      "v": 1
    },
    {
      "midi": 63,
      "hit": false,
      "t": 189028.46638541677,
      "d": 1804.2154541666678,
      "v": 1
    },
    {
      "midi": 67,
      "hit": false,
      "t": 189028.46638541677,
      "d": 1804.2154541666678,
      "v": 1
    },
    {
      "midi": 56,
      "hit": false,
      "t": 189040.51456875075,
      "d": 310.2407208333607,
      "v": 114
    },
    {
      "midi": 39,
      "hit": false,
      "t": 189401.96006875078,
      "d": 679.216335416655,
      "v": 116
    },
    {
      "midi": 51,
      "hit": false,
      "t": 189763.40556875078,
      "d": 347.891293749999,
      "v": 120
    },
    {
      "midi": 59,
      "hit": false,
      "t": 190124.85106875078,
      "d": 641.5657624999876,
      "v": 116
    },
    {
      "midi": 67,
      "hit": false,
      "t": 190124.85106875078,
      "d": 659.6380375000008,
      "v": 114
    },
    {
      "midi": 62,
      "hit": false,
      "t": 190124.85106875078,
      "d": 661.144060416671,
      "v": 114
    },
    {
      "midi": 55,
      "hit": false,
      "t": 190124.85106875078,
      "d": 679.2163354166842,
      "v": 118
    },
    {
      "midi": 43,
      "hit": false,
      "t": 190124.85106875078,
      "d": 682.2283812500245,
      "v": 104
    },
    {
      "midi": 60,
      "hit": false,
      "t": 190835.69388541678,
      "d": 1421.6856333333417,
      "v": 1
    },
    {
      "midi": 63,
      "hit": false,
      "t": 190835.69388541678,
      "d": 2749.9978458333353,
      "v": 1
    },
    {
      "midi": 48,
      "hit": false,
      "t": 190847.7420687508,
      "d": 1245.480952083337,
      "v": 120
    },
    {
      "midi": 67,
      "hit": false,
      "t": 191197.13938541678,
      "d": 266.5660562500125,
      "v": 1
    },
    {
      "midi": 60,
      "hit": false,
      "t": 191209.1875687508,
      "d": 424.6984625000041,
      "v": 110
    },
    {
      "midi": 72,
      "hit": false,
      "t": 191558.58488541679,
      "d": 772.5897562500031,
      "v": 1
    },
    {
      "midi": 63,
      "hit": false,
      "t": 191570.63306875082,
      "d": 775.6018020833435,
      "v": 120
    },
    {
      "midi": 67,
      "hit": false,
      "t": 191570.63306875082,
      "d": 798.1921458333381,
      "v": 122
    },
    {
      "midi": 60,
      "hit": false,
      "t": 191932.07856875082,
      "d": 387.04788958333666,
      "v": 104
    },
    {
      "midi": 58,
      "hit": false,
      "t": 192281.4758854168,
      "d": 1305.721868749999,
      "v": 1
    },
    {
      "midi": 70,
      "hit": false,
      "t": 192281.4758854168,
      "d": 1495.4807562500064,
      "v": 1
    },
    {
      "midi": 46,
      "hit": false,
      "t": 192293.52406875082,
      "d": 1323.7941437500122,
      "v": 114
    },
    {
      "midi": 58,
      "hit": false,
      "t": 192654.96956875082,
      "d": 621.9874645833333,
      "v": 122
    },
    {
      "midi": 67,
      "hit": false,
      "t": 193016.41506875082,
      "d": 835.8427187500056,
      "v": 120
    },
    {
      "midi": 63,
      "hit": false,
      "t": 193016.41506875082,
      "d": 873.493291666673,
      "v": 120
    },
    {
      "midi": 58,
      "hit": false,
      "t": 193377.86056875082,
      "d": 326.80697291667457,
      "v": 108
    },
    {
      "midi": 63,
      "hit": false,
      "t": 193727.2578854168,
      "d": 1081.3244541666645,
      "v": 1
    },
    {
      "midi": 68,
      "hit": false,
      "t": 193727.2578854168,
      "d": 1081.3244541666645,
      "v": 1
    },
    {
      "midi": 72,
      "hit": false,
      "t": 193727.2578854168,
      "d": 1081.3244541666645,
      "v": 1
    },
    {
      "midi": 75,
      "hit": false,
      "t": 193727.2578854168,
      "d": 1081.3244541666645,
      "v": 1
    },
    {
      "midi": 44,
      "hit": false,
      "t": 193739.30606875083,
      "d": 1420.1796104167006,
      "v": 116
    },
    {
      "midi": 56,
      "hit": false,
      "t": 194100.75156875083,
      "d": 563.2525708333415,
      "v": 116
    },
    {
      "midi": 68,
      "hit": false,
      "t": 194462.19706875083,
      "d": 623.4934875000035,
      "v": 118
    },
    {
      "midi": 63,
      "hit": false,
      "t": 194462.19706875083,
      "d": 640.0597395833465,
      "v": 122
    },
    {
      "midi": 60,
      "hit": false,
      "t": 194462.19706875083,
      "d": 643.0717854166869,
      "v": 118
    },
    {
      "midi": 58,
      "hit": false,
      "t": 194811.5943854168,
      "d": 1804.2154541666678,
      "v": 1
    },
    {
      "midi": 63,
      "hit": false,
      "t": 194811.5943854168,
      "d": 1804.2154541666678,
      "v": 1
    },
    {
      "midi": 70,
      "hit": false,
      "t": 194811.5943854168,
      "d": 1804.2154541666678,
      "v": 1
    },
    {
      "midi": 75,
      "hit": false,
      "t": 194811.5943854168,
      "d": 1804.2154541666678,
      "v": 1
    },
    {
      "midi": 56,
      "hit": false,
      "t": 194823.64256875083,
      "d": 310.2407208333607,
      "v": 114
    },
    {
      "midi": 39,
      "hit": false,
      "t": 195185.08806875086,
      "d": 679.216335416655,
      "v": 116
    },
    {
      "midi": 51,
      "hit": false,
      "t": 195546.53356875086,
      "d": 347.891293749999,
      "v": 120
    },
    {
      "midi": 59,
      "hit": false,
      "t": 195907.97906875086,
      "d": 641.5657624999876,
      "v": 116
    },
    {
      "midi": 67,
      "hit": false,
      "t": 195907.97906875086,
      "d": 659.6380375000008,
      "v": 114
    },
    {
      "midi": 62,
      "hit": false,
      "t": 195907.97906875086,
      "d": 661.144060416671,
      "v": 114
    },
    {
      "midi": 55,
      "hit": false,
      "t": 195907.97906875086,
      "d": 679.2163354166842,
      "v": 118
    },
    {
      "midi": 43,
      "hit": false,
      "t": 195907.97906875086,
      "d": 682.2283812500245,
      "v": 104
    },
    {
      "midi": 60,
      "hit": false,
      "t": 196618.8218854168,
      "d": 1442.7699541666661,
      "v": 1
    },
    {
      "midi": 63,
      "hit": false,
      "t": 196618.8218854168,
      "d": 2790.660464583343,
      "v": 1
    },
    {
      "midi": 48,
      "hit": false,
      "t": 196630.8700687509,
      "d": 1245.480952083337,
      "v": 120
    },
    {
      "midi": 67,
      "hit": false,
      "t": 196980.2673854168,
      "d": 290.6624229166773,
      "v": 1
    },
    {
      "midi": 60,
      "hit": false,
      "t": 196992.3155687509,
      "d": 424.6984625000041,
      "v": 110
    },
    {
      "midi": 72,
      "hit": false,
      "t": 197341.7128854168,
      "d": 727.4090687500138,
      "v": 1
    },
    {
      "midi": 63,
      "hit": false,
      "t": 197353.7610687509,
      "d": 775.6018020833435,
      "v": 120
    },
    {
      "midi": 67,
      "hit": false,
      "t": 197353.7610687509,
      "d": 798.1921458333381,
      "v": 122
    },
    {
      "midi": 60,
      "hit": false,
      "t": 197715.2065687509,
      "d": 387.04788958333666,
      "v": 104
    },
    {
      "midi": 58,
      "hit": false,
      "t": 198064.60388541681,
      "d": 1442.7699541666661,
      "v": 1
    },
    {
      "midi": 70,
      "hit": false,
      "t": 198064.60388541681,
      "d": 1442.7699541666661,
      "v": 1
    },
    {
      "midi": 46,
      "hit": false,
      "t": 198076.6520687509,
      "d": 1323.7941437500122,
      "v": 114
    },
    {
      "midi": 58,
      "hit": false,
      "t": 198438.0975687509,
      "d": 621.9874645833333,
      "v": 122
    },
    {
      "midi": 67,
      "hit": false,
      "t": 198799.5430687509,
      "d": 835.8427187500056,
      "v": 120
    },
    {
      "midi": 63,
      "hit": false,
      "t": 198799.5430687509,
      "d": 873.493291666673,
      "v": 120
    },
    {
      "midi": 58,
      "hit": false,
      "t": 199160.9885687509,
      "d": 326.80697291667457,
      "v": 108
    },
    {
      "midi": 60,
      "hit": false,
      "t": 199510.38588541682,
      "d": 1081.3244541666645,
      "v": 1
    },
    {
      "midi": 63,
      "hit": false,
      "t": 199510.38588541682,
      "d": 1081.3244541666645,
      "v": 1
    },
    {
      "midi": 68,
      "hit": false,
      "t": 199510.38588541682,
      "d": 1081.3244541666645,
      "v": 1
    },
    {
      "midi": 44,
      "hit": false,
      "t": 199522.4340687509,
      "d": 1420.1796104167006,
      "v": 116
    },
    {
      "midi": 56,
      "hit": false,
      "t": 199883.8795687509,
      "d": 563.2525708333415,
      "v": 116
    },
    {
      "midi": 68,
      "hit": false,
      "t": 200245.3250687509,
      "d": 623.4934875000035,
      "v": 118
    },
    {
      "midi": 63,
      "hit": false,
      "t": 200245.3250687509,
      "d": 640.0597395833465,
      "v": 122
    },
    {
      "midi": 60,
      "hit": false,
      "t": 200245.3250687509,
      "d": 643.0717854166869,
      "v": 118
    },
    {
      "midi": 58,
      "hit": false,
      "t": 200594.72238541683,
      "d": 1804.2154541666678,
      "v": 1
    },
    {
      "midi": 63,
      "hit": false,
      "t": 200594.72238541683,
      "d": 1804.2154541666678,
      "v": 1
    },
    {
      "midi": 67,
      "hit": false,
      "t": 200594.72238541683,
      "d": 1804.2154541666678,
      "v": 1
    },
    {
      "midi": 56,
      "hit": false,
      "t": 200606.77056875092,
      "d": 310.2407208333607,
      "v": 114
    },
    {
      "midi": 39,
      "hit": false,
      "t": 200968.21606875095,
      "d": 1424.697679166682,
      "v": 114
    },
    {
      "midi": 51,
      "hit": false,
      "t": 201329.66156875095,
      "d": 603.9151895833493,
      "v": 114
    },
    {
      "midi": 58,
      "hit": false,
      "t": 201691.10706875095,
      "d": 621.9874645833333,
      "v": 118
    },
    {
      "midi": 63,
      "hit": false,
      "t": 201691.10706875095,
      "d": 661.144060416671,
      "v": 118
    },
    {
      "midi": 67,
      "hit": false,
      "t": 201691.10706875095,
      "d": 662.6500833333412,
      "v": 116
    },
    {
      "midi": 51,
      "hit": false,
      "t": 202052.55256875095,
      "d": 326.80697291667457,
      "v": 116
    },
    {
      "midi": 65,
      "hit": false,
      "t": 202401.94988541683,
      "d": 2707.8292041666573,
      "v": 1
    },
    {
      "midi": 70,
      "hit": false,
      "t": 202401.94988541683,
      "d": 2707.8292041666573,
      "v": 1
    },
    {
      "midi": 46,
      "hit": false,
      "t": 202413.99806875095,
      "d": 1302.7098229166586,
      "v": 122
    },
    {
      "midi": 53,
      "hit": false,
      "t": 202775.44356875095,
      "d": 659.6380375000008,
      "v": 80
    },
    {
      "midi": 65,
      "hit": false,
      "t": 203136.88906875096,
      "d": 972.8908041666145,
      "v": 118
    },
    {
      "midi": 62,
      "hit": false,
      "t": 203136.88906875096,
      "d": 990.9630791666277,
      "v": 120
    },
    {
      "midi": 58,
      "hit": false,
      "t": 203136.88906875096,
      "d": 1012.0473999999522,
      "v": 118
    },
    {
      "midi": 53,
      "hit": false,
      "t": 203498.33456875096,
      "d": 542.1682499999588,
      "v": 110
    },
    {
      "midi": 46,
      "hit": false,
      "t": 203859.78006875093,
      "d": 1108.4328666666406,
      "v": 122
    },
    {
      "midi": 53,
      "hit": false,
      "t": 204221.2255687509,
      "d": 603.9151895833493,
      "v": 98
    },
    {
      "midi": 58,
      "hit": false,
      "t": 204582.6710687509,
      "d": 775.6018020833435,
      "v": 118
    },
    {
      "midi": 62,
      "hit": false,
      "t": 204582.6710687509,
      "d": 795.1800999999978,
      "v": 118
    },
    {
      "midi": 65,
      "hit": false,
      "t": 204582.6710687509,
      "d": 798.1921458333381,
      "v": 116
    },
    {
      "midi": 53,
      "hit": false,
      "t": 204944.1165687509,
      "d": 346.38527083332883,
      "v": 104
    },
    {
      "midi": 63,
      "hit": false,
      "t": 205112.79113541683,
      "d": 3076.80481875001,
      "v": 1
    },
    {
      "midi": 68,
      "hit": false,
      "t": 205112.79113541683,
      "d": 3076.80481875001,
      "v": 1
    },
    {
      "midi": 44,
      "hit": false,
      "t": 205305.5620687509,
      "d": 1152.107531250018,
      "v": 116
    },
    {
      "midi": 56,
      "hit": false,
      "t": 205667.0075687509,
      "d": 561.7465479166713,
      "v": 108
    },
    {
      "midi": 58,
      "hit": false,
      "t": 206028.4530687509,
      "d": 777.1078249999846,
      "v": 110
    },
    {
      "midi": 63,
      "hit": false,
      "t": 206028.4530687509,
      "d": 793.6740770833276,
      "v": 104
    },
    {
      "midi": 60,
      "hit": false,
      "t": 206028.4530687509,
      "d": 798.1921458333381,
      "v": 114
    },
    {
      "midi": 56,
      "hit": false,
      "t": 206389.8985687509,
      "d": 368.9756145833235,
      "v": 102
    },
    {
      "midi": 44,
      "hit": false,
      "t": 206751.3440687509,
      "d": 1365.962785416661,
      "v": 116
    },
    {
      "midi": 56,
      "hit": false,
      "t": 207112.78956875092,
      "d": 524.0959750000038,
      "v": 104
    },
    {
      "midi": 63,
      "hit": false,
      "t": 207474.23506875092,
      "d": 561.7465479166713,
      "v": 108
    },
    {
      "midi": 60,
      "hit": false,
      "t": 207474.23506875092,
      "d": 563.2525708333415,
      "v": 112
    },
    {
      "midi": 58,
      "hit": false,
      "t": 207474.23506875092,
      "d": 582.8308687499957,
      "v": 108
    },
    {
      "midi": 56,
      "hit": false,
      "t": 207835.68056875092,
      "d": 287.65037708333693,
      "v": 98
    },
    {
      "midi": 65,
      "hit": false,
      "t": 208185.07788541683,
      "d": 2707.8292041666864,
      "v": 1
    },
    {
      "midi": 70,
      "hit": false,
      "t": 208185.07788541683,
      "d": 2707.8292041666864,
      "v": 1
    },
    {
      "midi": 46,
      "hit": false,
      "t": 208197.12606875092,
      "d": 1302.7098229166586,
      "v": 122
    },
    {
      "midi": 53,
      "hit": false,
      "t": 208558.57156875092,
      "d": 659.6380375000008,
      "v": 80
    },
    {
      "midi": 65,
      "hit": false,
      "t": 208920.01706875092,
      "d": 972.8908041666145,
      "v": 118
    },
    {
      "midi": 62,
      "hit": false,
      "t": 208920.01706875092,
      "d": 990.9630791666277,
      "v": 120
    },
    {
      "midi": 58,
      "hit": false,
      "t": 208920.01706875092,
      "d": 1012.0473999999522,
      "v": 118
    },
    {
      "midi": 53,
      "hit": false,
      "t": 209281.46256875093,
      "d": 542.1682499999588,
      "v": 110
    },
    {
      "midi": 46,
      "hit": false,
      "t": 209642.9080687509,
      "d": 1108.4328666666406,
      "v": 122
    },
    {
      "midi": 53,
      "hit": false,
      "t": 210004.35356875087,
      "d": 603.9151895833493,
      "v": 98
    },
    {
      "midi": 58,
      "hit": false,
      "t": 210365.79906875087,
      "d": 775.6018020833435,
      "v": 118
    },
    {
      "midi": 62,
      "hit": false,
      "t": 210365.79906875087,
      "d": 795.1800999999978,
      "v": 118
    },
    {
      "midi": 65,
      "hit": false,
      "t": 210365.79906875087,
      "d": 798.1921458333381,
      "v": 116
    },
    {
      "midi": 53,
      "hit": false,
      "t": 210727.24456875087,
      "d": 346.38527083332883,
      "v": 104
    },
    {
      "midi": 63,
      "hit": false,
      "t": 210895.91913541686,
      "d": 3076.80481875001,
      "v": 1
    },
    {
      "midi": 68,
      "hit": false,
      "t": 210895.91913541686,
      "d": 3076.80481875001,
      "v": 1
    },
    {
      "midi": 44,
      "hit": false,
      "t": 211088.69006875088,
      "d": 1152.107531250018,
      "v": 116
    },
    {
      "midi": 56,
      "hit": false,
      "t": 211450.13556875088,
      "d": 561.7465479166713,
      "v": 108
    },
    {
      "midi": 58,
      "hit": false,
      "t": 211811.58106875088,
      "d": 777.1078249999846,
      "v": 110
    },
    {
      "midi": 63,
      "hit": false,
      "t": 211811.58106875088,
      "d": 793.6740770833276,
      "v": 104
    },
    {
      "midi": 60,
      "hit": false,
      "t": 211811.58106875088,
      "d": 798.1921458333381,
      "v": 114
    },
    {
      "midi": 56,
      "hit": false,
      "t": 212173.02656875088,
      "d": 368.9756145833235,
      "v": 102
    },
    {
      "midi": 44,
      "hit": false,
      "t": 212534.47206875088,
      "d": 1365.962785416661,
      "v": 116
    },
    {
      "midi": 56,
      "hit": false,
      "t": 212895.91756875088,
      "d": 524.0959750000038,
      "v": 104
    },
    {
      "midi": 63,
      "hit": false,
      "t": 213257.36306875088,
      "d": 561.7465479166713,
      "v": 108
    },
    {
      "midi": 60,
      "hit": false,
      "t": 213257.36306875088,
      "d": 563.2525708333415,
      "v": 112
    },
    {
      "midi": 58,
      "hit": false,
      "t": 213257.36306875088,
      "d": 582.8308687499957,
      "v": 108
    },
    {
      "midi": 56,
      "hit": false,
      "t": 213618.8085687509,
      "d": 287.65037708333693,
      "v": 98
    },
    {
      "midi": 63,
      "hit": false,
      "t": 214016.39861875089,
      "d": 2852.4074041667045,
      "v": 116
    },
    {
      "midi": 55,
      "hit": false,
      "t": 214019.41066458423,
      "d": 2009.0345708333189,
      "v": 108
    },
    {
      "midi": 58,
      "hit": false,
      "t": 214040.49498541755,
      "d": 2066.2634416666697,
      "v": 112
    },
    {
      "midi": 51,
      "hit": false,
      "t": 214040.49498541755,
      "d": 2828.3110375000397,
      "v": 100
    },
    {
      "midi": 60,
      "hit": false,
      "t": 216124.83070208423,
      "d": 739.4572520833462,
      "v": 104
    },
    {
      "midi": 56,
      "hit": false,
      "t": 216144.4090000009,
      "d": 680.7223583333544,
      "v": 110
    },
    {
      "midi": 39,
      "hit": false,
      "t": 216807.05908333423,
      "d": 61.74693958336138,
      "v": 78
    },
    {
      "midi": 55,
      "hit": false,
      "t": 216865.79397708425,
      "d": 2710.841250000027,
      "v": 90
    },
    {
      "midi": 58,
      "hit": false,
      "t": 216885.37227500093,
      "d": 2692.7689750000136,
      "v": 86
    },
    {
      "midi": 63,
      "hit": false,
      "t": 216963.6854666676,
      "d": 2652.106356250006,
      "v": 96
    }
  ]
}