{
  "jsonPath": "Unknown/Unknown/Rita LeeRoberto De Carvalho/caso-serio.json",
  "path": "Unknown\\Unknown\\Rita LeeRoberto De Carvalho\\Caso Serio.mid",
  "name": "Caso Serio",
  "difficulty": "Advanced",
  "bpm": 125,
  "notes": [
    {
      "midi": 66,
      "hit": false,
      "t": 1920,
      "d": 1796,
      "v": 89
    },
    {
      "midi": 47,
      "hit": false,
      "t": 1920,
      "d": 1916,
      "v": 89
    },
    {
      "midi": 57,
      "hit": false,
      "t": 1920,
      "d": 1916,
      "v": 89
    },
    {
      "midi": 62,
      "hit": false,
      "t": 1920,
      "d": 1916,
      "v": 89
    },
    {
      "midi": 47,
      "hit": false,
      "t": 3840,
      "d": 716,
      "v": 93
    },
    {
      "midi": 57,
      "hit": false,
      "t": 3844,
      "d": 552,
      "v": 93
    },
    {
      "midi": 62,
      "hit": false,
      "t": 3852,
      "d": 696,
      "v": 93
    },
    {
      "midi": 66,
      "hit": false,
      "t": 3856,
      "d": 656,
      "v": 93
    },
    {
      "midi": 49,
      "hit": false,
      "t": 4560,
      "d": 1096,
      "v": 93
    },
    {
      "midi": 59,
      "hit": false,
      "t": 4568,
      "d": 1076,
      "v": 93
    },
    {
      "midi": 64,
      "hit": false,
      "t": 4576,
      "d": 1196,
      "v": 93
    },
    {
      "midi": 68,
      "hit": false,
      "t": 4584,
      "d": 924,
      "v": 93
    },
    {
      "midi": 47,
      "hit": false,
      "t": 5760,
      "d": 1676,
      "v": 93
    },
    {
      "midi": 57,
      "hit": false,
      "t": 5760,
      "d": 1676,
      "v": 93
    },
    {
      "midi": 62,
      "hit": false,
      "t": 5760,
      "d": 1676,
      "v": 93
    },
    {
      "midi": 66,
      "hit": false,
      "t": 5760,
      "d": 1676,
      "v": 93
    },
    {
      "midi": 57,
      "hit": false,
      "t": 7680,
      "d": 596,
      "v": 92
    },
    {
      "midi": 66,
      "hit": false,
      "t": 7680,
      "d": 596,
      "v": 92
    },
    {
      "midi": 62,
      "hit": false,
      "t": 7680,
      "d": 600,
      "v": 92
    },
    {
      "midi": 47,
      "hit": false,
      "t": 7680,
      "d": 648,
      "v": 92
    },
    {
      "midi": 68,
      "hit": false,
      "t": 8400,
      "d": 808,
      "v": 93
    },
    {
      "midi": 59,
      "hit": false,
      "t": 8400,
      "d": 1076,
      "v": 93
    },
    {
      "midi": 64,
      "hit": false,
      "t": 8400,
      "d": 1108,
      "v": 93
    },
    {
      "midi": 49,
      "hit": false,
      "t": 8400,
      "d": 1148,
      "v": 93
    },
    {
      "midi": 47,
      "hit": false,
      "t": 9600,
      "d": 1676,
      "v": 93
    },
    {
      "midi": 57,
      "hit": false,
      "t": 9600,
      "d": 1676,
      "v": 93
    },
    {
      "midi": 62,
      "hit": false,
      "t": 9600,
      "d": 1676,
      "v": 93
    },
    {
      "midi": 66,
      "hit": false,
      "t": 9600,
      "d": 1676,
      "v": 93
    },
    {
      "midi": 69,
      "hit": false,
      "t": 9600,
      "d": 1676,
      "v": 93
    },
    {
      "midi": 66,
      "hit": false,
      "t": 11520,
      "d": 588,
      "v": 97
    },
    {
      "midi": 47,
      "hit": false,
      "t": 11520,
      "d": 596,
      "v": 97
    },
    {
      "midi": 62,
      "hit": false,
      "t": 11520,
      "d": 596,
      "v": 97
    },
    {
      "midi": 69,
      "hit": false,
      "t": 11520,
      "d": 612,
      "v": 97
    },
    {
      "midi": 49,
      "hit": false,
      "t": 12240,
      "d": 1128,
      "v": 57
    },
    {
      "midi": 64,
      "hit": false,
      "t": 12240,
      "d": 1196,
      "v": 78
    },
    {
      "midi": 68,
      "hit": false,
      "t": 12240,
      "d": 1196,
      "v": 85
    },
    {
      "midi": 71,
      "hit": false,
      "t": 12240,
      "d": 1196,
      "v": 76
    },
    {
      "midi": 47,
      "hit": false,
      "t": 13440,
      "d": 1676,
      "v": 93
    },
    {
      "midi": 62,
      "hit": false,
      "t": 13440,
      "d": 1676,
      "v": 93
    },
    {
      "midi": 66,
      "hit": false,
      "t": 13440,
      "d": 1676,
      "v": 93
    },
    {
      "midi": 69,
      "hit": false,
      "t": 13440,
      "d": 1676,
      "v": 93
    },
    {
      "midi": 47,
      "hit": false,
      "t": 15360,
      "d": 596,
      "v": 92
    },
    {
      "midi": 59,
      "hit": false,
      "t": 15360,
      "d": 596,
      "v": 92
    },
    {
      "midi": 62,
      "hit": false,
      "t": 15360,
      "d": 596,
      "v": 92
    },
    {
      "midi": 66,
      "hit": false,
      "t": 15360,
      "d": 596,
      "v": 92
    },
    {
      "midi": 69,
      "hit": false,
      "t": 15360,
      "d": 596,
      "v": 92
    },
    {
      "midi": 59,
      "hit": false,
      "t": 16080,
      "d": 1088,
      "v": 93
    },
    {
      "midi": 71,
      "hit": false,
      "t": 16080,
      "d": 1088,
      "v": 93
    },
    {
      "midi": 64,
      "hit": false,
      "t": 16080,
      "d": 1104,
      "v": 93
    },
    {
      "midi": 76,
      "hit": false,
      "t": 16080,
      "d": 1104,
      "v": 93
    },
    {
      "midi": 55,
      "hit": false,
      "t": 16080,
      "d": 1108,
      "v": 93
    },
    {
      "midi": 48,
      "hit": false,
      "t": 16080,
      "d": 1120,
      "v": 93
    },
    {
      "midi": 52,
      "hit": false,
      "t": 16080,
      "d": 1120,
      "v": 93
    },
    {
      "midi": 62,
      "hit": false,
      "t": 17280,
      "d": 1124,
      "v": 92
    },
    {
      "midi": 59,
      "hit": false,
      "t": 17280,
      "d": 1144,
      "v": 78
    },
    {
      "midi": 66,
      "hit": false,
      "t": 17280,
      "d": 1164,
      "v": 74
    },
    {
      "midi": 69,
      "hit": false,
      "t": 17280,
      "d": 1164,
      "v": 74
    },
    {
      "midi": 73,
      "hit": false,
      "t": 17280,
      "d": 1164,
      "v": 74
    },
    {
      "midi": 57,
      "hit": false,
      "t": 17280,
      "d": 1168,
      "v": 54
    },
    {
      "midi": 47,
      "hit": false,
      "t": 17280,
      "d": 2760,
      "v": 78
    },
    {
      "midi": 69,
      "hit": false,
      "t": 19200,
      "d": 84,
      "v": 92
    },
    {
      "midi": 81,
      "hit": false,
      "t": 21104,
      "d": 1480,
      "v": 89
    },
    {
      "midi": 47,
      "hit": false,
      "t": 21120,
      "d": 1000,
      "v": 92
    },
    {
      "midi": 78,
      "hit": false,
      "t": 21120,
      "d": 1504,
      "v": 71
    },
    {
      "midi": 76,
      "hit": false,
      "t": 21120,
      "d": 1512,
      "v": 86
    },
    {
      "midi": 73,
      "hit": false,
      "t": 21120,
      "d": 1544,
      "v": 67
    },
    {
      "midi": 69,
      "hit": false,
      "t": 21120,
      "d": 1588,
      "v": 70
    },
    {
      "midi": 57,
      "hit": false,
      "t": 21128,
      "d": 1068,
      "v": 92
    },
    {
      "midi": 61,
      "hit": false,
      "t": 21136,
      "d": 988,
      "v": 92
    },
    {
      "midi": 66,
      "hit": false,
      "t": 21148,
      "d": 952,
      "v": 92
    },
    {
      "midi": 57,
      "hit": false,
      "t": 23040,
      "d": 1676,
      "v": 83
    },
    {
      "midi": 59,
      "hit": false,
      "t": 23040,
      "d": 1676,
      "v": 86
    },
    {
      "midi": 61,
      "hit": false,
      "t": 23040,
      "d": 1676,
      "v": 85
    },
    {
      "midi": 65,
      "hit": false,
      "t": 23040,
      "d": 1676,
      "v": 92
    },
    {
      "midi": 77,
      "hit": false,
      "t": 23040,
      "d": 1676,
      "v": 92
    },
    {
      "midi": 59,
      "hit": false,
      "t": 24848,
      "d": 136,
      "v": 68
    },
    {
      "midi": 55,
      "hit": false,
      "t": 24868,
      "d": 188,
      "v": 68
    },
    {
      "midi": 52,
      "hit": false,
      "t": 24880,
      "d": 196,
      "v": 62
    },
    {
      "midi": 62,
      "hit": false,
      "t": 24912,
      "d": 124,
      "v": 76
    },
    {
      "midi": 66,
      "hit": false,
      "t": 24968,
      "d": 92,
      "v": 63
    },
    {
      "midi": 71,
      "hit": false,
      "t": 25012,
      "d": 100,
      "v": 86
    },
    {
      "midi": 86,
      "hit": false,
      "t": 26596,
      "d": 1312,
      "v": 79
    },
    {
      "midi": 83,
      "hit": false,
      "t": 26624,
      "d": 1268,
      "v": 79
    },
    {
      "midi": 81,
      "hit": false,
      "t": 26720,
      "d": 1176,
      "v": 81
    },
    {
      "midi": 79,
      "hit": false,
      "t": 26796,
      "d": 1112,
      "v": 82
    },
    {
      "midi": 78,
      "hit": false,
      "t": 26880,
      "d": 892,
      "v": 83
    },
    {
      "midi": 59,
      "hit": false,
      "t": 28800,
      "d": 1116,
      "v": 90
    },
    {
      "midi": 56,
      "hit": false,
      "t": 28800,
      "d": 1144,
      "v": 90
    },
    {
      "midi": 71,
      "hit": false,
      "t": 28800,
      "d": 1236,
      "v": 90
    },
    {
      "midi": 66,
      "hit": false,
      "t": 28800,
      "d": 1252,
      "v": 90
    },
    {
      "midi": 62,
      "hit": false,
      "t": 28800,
      "d": 1324,
      "v": 90
    },
    {
      "midi": 64,
      "hit": false,
      "t": 30720,
      "d": 1324,
      "v": 78
    },
    {
      "midi": 68,
      "hit": false,
      "t": 30720,
      "d": 1324,
      "v": 78
    },
    {
      "midi": 65,
      "hit": false,
      "t": 30720,
      "d": 1352,
      "v": 86
    },
    {
      "midi": 71,
      "hit": false,
      "t": 30720,
      "d": 1372,
      "v": 89
    },
    {
      "midi": 61,
      "hit": false,
      "t": 32640,
      "d": 960,
      "v": 71
    },
    {
      "midi": 64,
      "hit": false,
      "t": 32640,
      "d": 960,
      "v": 71
    },
    {
      "midi": 66,
      "hit": false,
      "t": 32640,
      "d": 976,
      "v": 78
    },
    {
      "midi": 71,
      "hit": false,
      "t": 32640,
      "d": 1004,
      "v": 83
    },
    {
      "midi": 54,
      "hit": false,
      "t": 34560,
      "d": 1556,
      "v": 88
    },
    {
      "midi": 66,
      "hit": false,
      "t": 34560,
      "d": 1556,
      "v": 88
    },
    {
      "midi": 70,
      "hit": false,
      "t": 34560,
      "d": 1556,
      "v": 88
    },
    {
      "midi": 74,
      "hit": false,
      "t": 34560,
      "d": 1556,
      "v": 88
    },
    {
      "midi": 78,
      "hit": false,
      "t": 34560,
      "d": 1556,
      "v": 88
    },
    {
      "midi": 62,
      "hit": false,
      "t": 36480,
      "d": 936,
      "v": 83
    },
    {
      "midi": 61,
      "hit": false,
      "t": 36480,
      "d": 964,
      "v": 74
    },
    {
      "midi": 66,
      "hit": false,
      "t": 36480,
      "d": 964,
      "v": 71
    },
    {
      "midi": 59,
      "hit": false,
      "t": 36480,
      "d": 1044,
      "v": 55
    },
    {
      "midi": 54,
      "hit": false,
      "t": 36480,
      "d": 1596,
      "v": 64
    },
    {
      "midi": 47,
      "hit": false,
      "t": 36480,
      "d": 3412,
      "v": 68
    },
    {
      "midi": 81,
      "hit": false,
      "t": 38400,
      "d": 124,
      "v": 90
    },
    {
      "midi": 78,
      "hit": false,
      "t": 38640,
      "d": 112,
      "v": 91
    },
    {
      "midi": 74,
      "hit": false,
      "t": 39120,
      "d": 80,
      "v": 89
    },
    {
      "midi": 57,
      "hit": false,
      "t": 40080,
      "d": 1228,
      "v": 90
    },
    {
      "midi": 59,
      "hit": false,
      "t": 40080,
      "d": 1228,
      "v": 90
    },
    {
      "midi": 66,
      "hit": false,
      "t": 40080,
      "d": 1232,
      "v": 90
    },
    {
      "midi": 61,
      "hit": false,
      "t": 40080,
      "d": 1236,
      "v": 90
    },
    {
      "midi": 68,
      "hit": false,
      "t": 42240,
      "d": 1592,
      "v": 78
    },
    {
      "midi": 72,
      "hit": false,
      "t": 42240,
      "d": 1596,
      "v": 96
    },
    {
      "midi": 63,
      "hit": false,
      "t": 42240,
      "d": 1600,
      "v": 78
    },
    {
      "midi": 57,
      "hit": false,
      "t": 42240,
      "d": 1616,
      "v": 70
    },
    {
      "midi": 47,
      "hit": false,
      "t": 42240,
      "d": 1632,
      "v": 70
    },
    {
      "midi": 52,
      "hit": false,
      "t": 44160,
      "d": 196,
      "v": 62
    },
    {
      "midi": 55,
      "hit": false,
      "t": 44168,
      "d": 188,
      "v": 68
    },
    {
      "midi": 59,
      "hit": false,
      "t": 44176,
      "d": 136,
      "v": 68
    },
    {
      "midi": 62,
      "hit": false,
      "t": 44184,
      "d": 124,
      "v": 76
    },
    {
      "midi": 66,
      "hit": false,
      "t": 44188,
      "d": 92,
      "v": 63
    },
    {
      "midi": 71,
      "hit": false,
      "t": 44196,
      "d": 100,
      "v": 86
    },
    {
      "midi": 86,
      "hit": false,
      "t": 45796,
      "d": 1312,
      "v": 79
    },
    {
      "midi": 83,
      "hit": false,
      "t": 45824,
      "d": 1268,
      "v": 79
    },
    {
      "midi": 81,
      "hit": false,
      "t": 45920,
      "d": 1176,
      "v": 81
    },
    {
      "midi": 79,
      "hit": false,
      "t": 45996,
      "d": 1112,
      "v": 82
    },
    {
      "midi": 78,
      "hit": false,
      "t": 46080,
      "d": 892,
      "v": 83
    },
    {
      "midi": 59,
      "hit": false,
      "t": 48000,
      "d": 1116,
      "v": 90
    },
    {
      "midi": 56,
      "hit": false,
      "t": 48000,
      "d": 1144,
      "v": 90
    },
    {
      "midi": 71,
      "hit": false,
      "t": 48000,
      "d": 1236,
      "v": 90
    },
    {
      "midi": 66,
      "hit": false,
      "t": 48000,
      "d": 1252,
      "v": 90
    },
    {
      "midi": 62,
      "hit": false,
      "t": 48000,
      "d": 1324,
      "v": 90
    },
    {
      "midi": 64,
      "hit": false,
      "t": 49920,
      "d": 1324,
      "v": 78
    },
    {
      "midi": 68,
      "hit": false,
      "t": 49920,
      "d": 1324,
      "v": 78
    },
    {
      "midi": 65,
      "hit": false,
      "t": 49920,
      "d": 1352,
      "v": 86
    },
    {
      "midi": 71,
      "hit": false,
      "t": 49920,
      "d": 1372,
      "v": 89
    },
    {
      "midi": 61,
      "hit": false,
      "t": 51840,
      "d": 960,
      "v": 71
    },
    {
      "midi": 64,
      "hit": false,
      "t": 51840,
      "d": 960,
      "v": 71
    },
    {
      "midi": 66,
      "hit": false,
      "t": 51840,
      "d": 976,
      "v": 78
    },
    {
      "midi": 71,
      "hit": false,
      "t": 51840,
      "d": 1004,
      "v": 83
    },
    {
      "midi": 54,
      "hit": false,
      "t": 53760,
      "d": 1676,
      "v": 88
    },
    {
      "midi": 66,
      "hit": false,
      "t": 53760,
      "d": 1676,
      "v": 88
    },
    {
      "midi": 70,
      "hit": false,
      "t": 53760,
      "d": 1676,
      "v": 88
    },
    {
      "midi": 74,
      "hit": false,
      "t": 53760,
      "d": 1676,
      "v": 88
    },
    {
      "midi": 78,
      "hit": false,
      "t": 53760,
      "d": 1676,
      "v": 88
    },
    {
      "midi": 57,
      "hit": false,
      "t": 55680,
      "d": 596,
      "v": 86
    },
    {
      "midi": 61,
      "hit": false,
      "t": 55680,
      "d": 596,
      "v": 78
    },
    {
      "midi": 66,
      "hit": false,
      "t": 55680,
      "d": 596,
      "v": 85
    },
    {
      "midi": 47,
      "hit": false,
      "t": 55680,
      "d": 1556,
      "v": 78
    },
    {
      "midi": 69,
      "hit": false,
      "t": 55688,
      "d": 596,
      "v": 78
    },
    {
      "midi": 73,
      "hit": false,
      "t": 55700,
      "d": 596,
      "v": 78
    },
    {
      "midi": 76,
      "hit": false,
      "t": 55712,
      "d": 596,
      "v": 78
    },
    {
      "midi": 61,
      "hit": false,
      "t": 56400,
      "d": 592,
      "v": 85
    },
    {
      "midi": 66,
      "hit": false,
      "t": 56400,
      "d": 604,
      "v": 93
    },
    {
      "midi": 57,
      "hit": false,
      "t": 56400,
      "d": 620,
      "v": 74
    },
    {
      "midi": 78,
      "hit": false,
      "t": 56484,
      "d": 44,
      "v": 58
    },
    {
      "midi": 80,
      "hit": false,
      "t": 56536,
      "d": 44,
      "v": 73
    },
    {
      "midi": 82,
      "hit": false,
      "t": 56580,
      "d": 36,
      "v": 77
    },
    {
      "midi": 85,
      "hit": false,
      "t": 56624,
      "d": 40,
      "v": 84
    },
    {
      "midi": 87,
      "hit": false,
      "t": 56664,
      "d": 24,
      "v": 88
    },
    {
      "midi": 90,
      "hit": false,
      "t": 56704,
      "d": 16,
      "v": 94
    },
    {
      "midi": 66,
      "hit": false,
      "t": 57120,
      "d": 120,
      "v": 93
    },
    {
      "midi": 61,
      "hit": false,
      "t": 57120,
      "d": 148,
      "v": 93
    },
    {
      "midi": 57,
      "hit": false,
      "t": 57120,
      "d": 160,
      "v": 72
    },
    {
      "midi": 61,
      "hit": false,
      "t": 57600,
      "d": 368,
      "v": 98
    },
    {
      "midi": 57,
      "hit": false,
      "t": 57600,
      "d": 384,
      "v": 99
    },
    {
      "midi": 64,
      "hit": false,
      "t": 57600,
      "d": 384,
      "v": 98
    },
    {
      "midi": 47,
      "hit": false,
      "t": 57600,
      "d": 396,
      "v": 95
    },
    {
      "midi": 63,
      "hit": false,
      "t": 58560,
      "d": 424,
      "v": 93
    },
    {
      "midi": 61,
      "hit": false,
      "t": 58560,
      "d": 428,
      "v": 85
    },
    {
      "midi": 57,
      "hit": false,
      "t": 58560,
      "d": 436,
      "v": 80
    },
    {
      "midi": 47,
      "hit": false,
      "t": 58560,
      "d": 504,
      "v": 78
    },
    {
      "midi": 62,
      "hit": false,
      "t": 59520,
      "d": 1800,
      "v": 80
    },
    {
      "midi": 66,
      "hit": false,
      "t": 59520,
      "d": 1800,
      "v": 85
    },
    {
      "midi": 71,
      "hit": false,
      "t": 59520,
      "d": 1800,
      "v": 80
    },
    {
      "midi": 52,
      "hit": false,
      "t": 59520,
      "d": 1920,
      "v": 63
    },
    {
      "midi": 55,
      "hit": false,
      "t": 59520,
      "d": 1920,
      "v": 72
    },
    {
      "midi": 59,
      "hit": false,
      "t": 59520,
      "d": 1920,
      "v": 65
    },
    {
      "midi": 74,
      "hit": false,
      "t": 59520,
      "d": 1012,
      "v": 89
    },
    {
      "midi": 86,
      "hit": false,
      "t": 59520,
      "d": 1048,
      "v": 92
    },
    {
      "midi": 90,
      "hit": false,
      "t": 60000,
      "d": 92,
      "v": 89
    },
    {
      "midi": 78,
      "hit": false,
      "t": 60000,
      "d": 112,
      "v": 89
    },
    {
      "midi": 95,
      "hit": false,
      "t": 60240,
      "d": 112,
      "v": 86
    },
    {
      "midi": 83,
      "hit": false,
      "t": 60240,
      "d": 132,
      "v": 92
    },
    {
      "midi": 74,
      "hit": false,
      "t": 60720,
      "d": 236,
      "v": 76
    },
    {
      "midi": 86,
      "hit": false,
      "t": 60720,
      "d": 236,
      "v": 86
    },
    {
      "midi": 85,
      "hit": false,
      "t": 61200,
      "d": 76,
      "v": 58
    },
    {
      "midi": 73,
      "hit": false,
      "t": 61200,
      "d": 156,
      "v": 67
    },
    {
      "midi": 85,
      "hit": false,
      "t": 61200,
      "d": 292,
      "v": 81
    },
    {
      "midi": 73,
      "hit": false,
      "t": 61200,
      "d": 320,
      "v": 81
    },
    {
      "midi": 55,
      "hit": false,
      "t": 61680,
      "d": 120,
      "v": 61
    },
    {
      "midi": 57,
      "hit": false,
      "t": 61680,
      "d": 120,
      "v": 68
    },
    {
      "midi": 61,
      "hit": false,
      "t": 61680,
      "d": 120,
      "v": 66
    },
    {
      "midi": 66,
      "hit": false,
      "t": 61680,
      "d": 120,
      "v": 74
    },
    {
      "midi": 71,
      "hit": false,
      "t": 61680,
      "d": 120,
      "v": 74
    },
    {
      "midi": 90,
      "hit": false,
      "t": 61680,
      "d": 96,
      "v": 78
    },
    {
      "midi": 78,
      "hit": false,
      "t": 61680,
      "d": 136,
      "v": 78
    },
    {
      "midi": 85,
      "hit": false,
      "t": 61920,
      "d": 76,
      "v": 78
    },
    {
      "midi": 73,
      "hit": false,
      "t": 61920,
      "d": 112,
      "v": 78
    },
    {
      "midi": 55,
      "hit": false,
      "t": 62160,
      "d": 1080,
      "v": 70
    },
    {
      "midi": 57,
      "hit": false,
      "t": 62160,
      "d": 1080,
      "v": 74
    },
    {
      "midi": 61,
      "hit": false,
      "t": 62160,
      "d": 1080,
      "v": 66
    },
    {
      "midi": 66,
      "hit": false,
      "t": 62160,
      "d": 1080,
      "v": 74
    },
    {
      "midi": 71,
      "hit": false,
      "t": 62160,
      "d": 1080,
      "v": 78
    },
    {
      "midi": 86,
      "hit": false,
      "t": 62400,
      "d": 124,
      "v": 74
    },
    {
      "midi": 74,
      "hit": false,
      "t": 62400,
      "d": 144,
      "v": 74
    },
    {
      "midi": 90,
      "hit": false,
      "t": 62640,
      "d": 104,
      "v": 74
    },
    {
      "midi": 78,
      "hit": false,
      "t": 62640,
      "d": 140,
      "v": 74
    },
    {
      "midi": 85,
      "hit": false,
      "t": 62880,
      "d": 104,
      "v": 67
    },
    {
      "midi": 73,
      "hit": false,
      "t": 62880,
      "d": 108,
      "v": 72
    },
    {
      "midi": 67,
      "hit": false,
      "t": 62880,
      "d": 84,
      "v": 76
    },
    {
      "midi": 71,
      "hit": false,
      "t": 62880,
      "d": 84,
      "v": 80
    },
    {
      "midi": 76,
      "hit": false,
      "t": 62880,
      "d": 124,
      "v": 92
    },
    {
      "midi": 62,
      "hit": false,
      "t": 63360,
      "d": 1800,
      "v": 80
    },
    {
      "midi": 52,
      "hit": false,
      "t": 63360,
      "d": 1920,
      "v": 68
    },
    {
      "midi": 55,
      "hit": false,
      "t": 63360,
      "d": 1920,
      "v": 70
    },
    {
      "midi": 66,
      "hit": false,
      "t": 63360,
      "d": 1920,
      "v": 67
    },
    {
      "midi": 71,
      "hit": false,
      "t": 63360,
      "d": 1920,
      "v": 76
    },
    {
      "midi": 59,
      "hit": false,
      "t": 63360,
      "d": 2040,
      "v": 70
    },
    {
      "midi": 86,
      "hit": false,
      "t": 63360,
      "d": 132,
      "v": 96
    },
    {
      "midi": 74,
      "hit": false,
      "t": 63360,
      "d": 156,
      "v": 92
    },
    {
      "midi": 67,
      "hit": false,
      "t": 63360,
      "d": 92,
      "v": 78
    },
    {
      "midi": 71,
      "hit": false,
      "t": 63360,
      "d": 128,
      "v": 80
    },
    {
      "midi": 74,
      "hit": false,
      "t": 63360,
      "d": 132,
      "v": 89
    },
    {
      "midi": 90,
      "hit": false,
      "t": 63840,
      "d": 92,
      "v": 89
    },
    {
      "midi": 78,
      "hit": false,
      "t": 63840,
      "d": 112,
      "v": 89
    },
    {
      "midi": 78,
      "hit": false,
      "t": 63840,
      "d": 284,
      "v": 91
    },
    {
      "midi": 74,
      "hit": false,
      "t": 63840,
      "d": 308,
      "v": 91
    },
    {
      "midi": 71,
      "hit": false,
      "t": 63840,
      "d": 336,
      "v": 91
    },
    {
      "midi": 95,
      "hit": false,
      "t": 64080,
      "d": 112,
      "v": 86
    },
    {
      "midi": 83,
      "hit": false,
      "t": 64080,
      "d": 132,
      "v": 92
    },
    {
      "midi": 74,
      "hit": false,
      "t": 64560,
      "d": 220,
      "v": 76
    },
    {
      "midi": 86,
      "hit": false,
      "t": 64560,
      "d": 236,
      "v": 86
    },
    {
      "midi": 71,
      "hit": false,
      "t": 64560,
      "d": 68,
      "v": 92
    },
    {
      "midi": 74,
      "hit": false,
      "t": 64560,
      "d": 84,
      "v": 100
    },
    {
      "midi": 67,
      "hit": false,
      "t": 64560,
      "d": 92,
      "v": 83
    },
    {
      "midi": 85,
      "hit": false,
      "t": 65040,
      "d": 76,
      "v": 58
    },
    {
      "midi": 73,
      "hit": false,
      "t": 65040,
      "d": 156,
      "v": 67
    },
    {
      "midi": 62,
      "hit": false,
      "t": 65040,
      "d": 1436,
      "v": 83
    },
    {
      "midi": 66,
      "hit": false,
      "t": 65040,
      "d": 1436,
      "v": 83
    },
    {
      "midi": 69,
      "hit": false,
      "t": 65040,
      "d": 1556,
      "v": 83
    },
    {
      "midi": 55,
      "hit": false,
      "t": 65520,
      "d": 120,
      "v": 78
    },
    {
      "midi": 57,
      "hit": false,
      "t": 65520,
      "d": 120,
      "v": 76
    },
    {
      "midi": 61,
      "hit": false,
      "t": 65520,
      "d": 120,
      "v": 74
    },
    {
      "midi": 66,
      "hit": false,
      "t": 65520,
      "d": 120,
      "v": 78
    },
    {
      "midi": 71,
      "hit": false,
      "t": 65520,
      "d": 120,
      "v": 80
    },
    {
      "midi": 90,
      "hit": false,
      "t": 65520,
      "d": 96,
      "v": 78
    },
    {
      "midi": 78,
      "hit": false,
      "t": 65520,
      "d": 136,
      "v": 78
    },
    {
      "midi": 85,
      "hit": false,
      "t": 65760,
      "d": 76,
      "v": 78
    },
    {
      "midi": 73,
      "hit": false,
      "t": 65760,
      "d": 112,
      "v": 78
    },
    {
      "midi": 61,
      "hit": false,
      "t": 66000,
      "d": 960,
      "v": 69
    },
    {
      "midi": 55,
      "hit": false,
      "t": 66000,
      "d": 1080,
      "v": 70
    },
    {
      "midi": 57,
      "hit": false,
      "t": 66000,
      "d": 1080,
      "v": 70
    },
    {
      "midi": 71,
      "hit": false,
      "t": 66000,
      "d": 1080,
      "v": 76
    },
    {
      "midi": 66,
      "hit": false,
      "t": 66000,
      "d": 1200,
      "v": 69
    },
    {
      "midi": 86,
      "hit": false,
      "t": 66240,
      "d": 124,
      "v": 74
    },
    {
      "midi": 74,
      "hit": false,
      "t": 66240,
      "d": 144,
      "v": 74
    },
    {
      "midi": 90,
      "hit": false,
      "t": 66480,
      "d": 104,
      "v": 74
    },
    {
      "midi": 78,
      "hit": false,
      "t": 66480,
      "d": 140,
      "v": 74
    },
    {
      "midi": 70,
      "hit": false,
      "t": 66712,
      "d": 72,
      "v": 55
    },
    {
      "midi": 85,
      "hit": false,
      "t": 66720,
      "d": 104,
      "v": 67
    },
    {
      "midi": 73,
      "hit": false,
      "t": 66720,
      "d": 108,
      "v": 72
    },
    {
      "midi": 67,
      "hit": false,
      "t": 66720,
      "d": 136,
      "v": 58
    },
    {
      "midi": 71,
      "hit": false,
      "t": 66720,
      "d": 140,
      "v": 83
    },
    {
      "midi": 76,
      "hit": false,
      "t": 66720,
      "d": 236,
      "v": 80
    },
    {
      "midi": 62,
      "hit": false,
      "t": 67200,
      "d": 1800,
      "v": 80
    },
    {
      "midi": 66,
      "hit": false,
      "t": 67200,
      "d": 1800,
      "v": 63
    },
    {
      "midi": 52,
      "hit": false,
      "t": 67200,
      "d": 1920,
      "v": 72
    },
    {
      "midi": 55,
      "hit": false,
      "t": 67200,
      "d": 1920,
      "v": 72
    },
    {
      "midi": 59,
      "hit": false,
      "t": 67200,
      "d": 1920,
      "v": 72
    },
    {
      "midi": 71,
      "hit": false,
      "t": 67200,
      "d": 1920,
      "v": 80
    },
    {
      "midi": 86,
      "hit": false,
      "t": 67200,
      "d": 132,
      "v": 96
    },
    {
      "midi": 74,
      "hit": false,
      "t": 67200,
      "d": 156,
      "v": 92
    },
    {
      "midi": 66,
      "hit": false,
      "t": 67200,
      "d": 96,
      "v": 77
    },
    {
      "midi": 71,
      "hit": false,
      "t": 67200,
      "d": 172,
      "v": 77
    },
    {
      "midi": 74,
      "hit": false,
      "t": 67200,
      "d": 172,
      "v": 77
    },
    {
      "midi": 90,
      "hit": false,
      "t": 67680,
      "d": 92,
      "v": 89
    },
    {
      "midi": 78,
      "hit": false,
      "t": 67680,
      "d": 112,
      "v": 89
    },
    {
      "midi": 78,
      "hit": false,
      "t": 67680,
      "d": 292,
      "v": 84
    },
    {
      "midi": 74,
      "hit": false,
      "t": 67680,
      "d": 332,
      "v": 84
    },
    {
      "midi": 71,
      "hit": false,
      "t": 67680,
      "d": 364,
      "v": 84
    },
    {
      "midi": 95,
      "hit": false,
      "t": 67920,
      "d": 112,
      "v": 86
    },
    {
      "midi": 83,
      "hit": false,
      "t": 67920,
      "d": 132,
      "v": 92
    },
    {
      "midi": 66,
      "hit": false,
      "t": 68376,
      "d": 24,
      "v": 66
    },
    {
      "midi": 74,
      "hit": false,
      "t": 68400,
      "d": 236,
      "v": 76
    },
    {
      "midi": 86,
      "hit": false,
      "t": 68400,
      "d": 236,
      "v": 86
    },
    {
      "midi": 62,
      "hit": false,
      "t": 68400,
      "d": 320,
      "v": 79
    },
    {
      "midi": 67,
      "hit": false,
      "t": 68400,
      "d": 376,
      "v": 79
    },
    {
      "midi": 71,
      "hit": false,
      "t": 68400,
      "d": 392,
      "v": 79
    },
    {
      "midi": 85,
      "hit": false,
      "t": 68880,
      "d": 76,
      "v": 58
    },
    {
      "midi": 73,
      "hit": false,
      "t": 68880,
      "d": 156,
      "v": 67
    },
    {
      "midi": 69,
      "hit": false,
      "t": 68880,
      "d": 980,
      "v": 76
    },
    {
      "midi": 66,
      "hit": false,
      "t": 68880,
      "d": 1028,
      "v": 78
    },
    {
      "midi": 61,
      "hit": false,
      "t": 68880,
      "d": 1040,
      "v": 78
    },
    {
      "midi": 55,
      "hit": false,
      "t": 69360,
      "d": 120,
      "v": 70
    },
    {
      "midi": 57,
      "hit": false,
      "t": 69360,
      "d": 120,
      "v": 66
    },
    {
      "midi": 61,
      "hit": false,
      "t": 69360,
      "d": 120,
      "v": 71
    },
    {
      "midi": 66,
      "hit": false,
      "t": 69360,
      "d": 120,
      "v": 78
    },
    {
      "midi": 71,
      "hit": false,
      "t": 69360,
      "d": 120,
      "v": 72
    },
    {
      "midi": 90,
      "hit": false,
      "t": 69360,
      "d": 96,
      "v": 78
    },
    {
      "midi": 78,
      "hit": false,
      "t": 69360,
      "d": 136,
      "v": 78
    },
    {
      "midi": 85,
      "hit": false,
      "t": 69600,
      "d": 76,
      "v": 78
    },
    {
      "midi": 73,
      "hit": false,
      "t": 69600,
      "d": 112,
      "v": 78
    },
    {
      "midi": 55,
      "hit": false,
      "t": 69840,
      "d": 600,
      "v": 70
    },
    {
      "midi": 57,
      "hit": false,
      "t": 69840,
      "d": 600,
      "v": 66
    },
    {
      "midi": 61,
      "hit": false,
      "t": 69840,
      "d": 840,
      "v": 71
    },
    {
      "midi": 66,
      "hit": false,
      "t": 69840,
      "d": 840,
      "v": 85
    },
    {
      "midi": 71,
      "hit": false,
      "t": 69840,
      "d": 960,
      "v": 80
    },
    {
      "midi": 86,
      "hit": false,
      "t": 70080,
      "d": 124,
      "v": 74
    },
    {
      "midi": 74,
      "hit": false,
      "t": 70080,
      "d": 144,
      "v": 74
    },
    {
      "midi": 90,
      "hit": false,
      "t": 70320,
      "d": 104,
      "v": 74
    },
    {
      "midi": 78,
      "hit": false,
      "t": 70320,
      "d": 140,
      "v": 74
    },
    {
      "midi": 85,
      "hit": false,
      "t": 70560,
      "d": 104,
      "v": 67
    },
    {
      "midi": 73,
      "hit": false,
      "t": 70560,
      "d": 108,
      "v": 72
    },
    {
      "midi": 62,
      "hit": false,
      "t": 71040,
      "d": 1800,
      "v": 80
    },
    {
      "midi": 66,
      "hit": false,
      "t": 71040,
      "d": 1800,
      "v": 63
    },
    {
      "midi": 52,
      "hit": false,
      "t": 71040,
      "d": 1920,
      "v": 72
    },
    {
      "midi": 55,
      "hit": false,
      "t": 71040,
      "d": 1920,
      "v": 72
    },
    {
      "midi": 59,
      "hit": false,
      "t": 71040,
      "d": 1920,
      "v": 72
    },
    {
      "midi": 71,
      "hit": false,
      "t": 71040,
      "d": 1920,
      "v": 80
    },
    {
      "midi": 86,
      "hit": false,
      "t": 71040,
      "d": 132,
      "v": 96
    },
    {
      "midi": 74,
      "hit": false,
      "t": 71040,
      "d": 156,
      "v": 92
    },
    {
      "midi": 66,
      "hit": false,
      "t": 71040,
      "d": 96,
      "v": 77
    },
    {
      "midi": 71,
      "hit": false,
      "t": 71040,
      "d": 172,
      "v": 77
    },
    {
      "midi": 74,
      "hit": false,
      "t": 71040,
      "d": 172,
      "v": 77
    },
    {
      "midi": 90,
      "hit": false,
      "t": 71520,
      "d": 92,
      "v": 89
    },
    {
      "midi": 78,
      "hit": false,
      "t": 71520,
      "d": 112,
      "v": 89
    },
    {
      "midi": 78,
      "hit": false,
      "t": 71520,
      "d": 292,
      "v": 84
    },
    {
      "midi": 74,
      "hit": false,
      "t": 71520,
      "d": 332,
      "v": 84
    },
    {
      "midi": 71,
      "hit": false,
      "t": 71520,
      "d": 364,
      "v": 84
    },
    {
      "midi": 95,
      "hit": false,
      "t": 71760,
      "d": 112,
      "v": 86
    },
    {
      "midi": 83,
      "hit": false,
      "t": 71760,
      "d": 132,
      "v": 92
    },
    {
      "midi": 66,
      "hit": false,
      "t": 72216,
      "d": 24,
      "v": 66
    },
    {
      "midi": 74,
      "hit": false,
      "t": 72240,
      "d": 236,
      "v": 76
    },
    {
      "midi": 86,
      "hit": false,
      "t": 72240,
      "d": 236,
      "v": 86
    },
    {
      "midi": 62,
      "hit": false,
      "t": 72240,
      "d": 320,
      "v": 79
    },
    {
      "midi": 67,
      "hit": false,
      "t": 72240,
      "d": 376,
      "v": 79
    },
    {
      "midi": 71,
      "hit": false,
      "t": 72240,
      "d": 392,
      "v": 79
    },
    {
      "midi": 85,
      "hit": false,
      "t": 72720,
      "d": 76,
      "v": 58
    },
    {
      "midi": 73,
      "hit": false,
      "t": 72720,
      "d": 156,
      "v": 67
    },
    {
      "midi": 69,
      "hit": false,
      "t": 72720,
      "d": 980,
      "v": 76
    },
    {
      "midi": 66,
      "hit": false,
      "t": 72720,
      "d": 1028,
      "v": 78
    },
    {
      "midi": 61,
      "hit": false,
      "t": 72720,
      "d": 1040,
      "v": 78
    },
    {
      "midi": 55,
      "hit": false,
      "t": 73200,
      "d": 120,
      "v": 70
    },
    {
      "midi": 57,
      "hit": false,
      "t": 73200,
      "d": 120,
      "v": 66
    },
    {
      "midi": 61,
      "hit": false,
      "t": 73200,
      "d": 120,
      "v": 71
    },
    {
      "midi": 66,
      "hit": false,
      "t": 73200,
      "d": 120,
      "v": 78
    },
    {
      "midi": 71,
      "hit": false,
      "t": 73200,
      "d": 120,
      "v": 72
    },
    {
      "midi": 90,
      "hit": false,
      "t": 73200,
      "d": 96,
      "v": 78
    },
    {
      "midi": 78,
      "hit": false,
      "t": 73200,
      "d": 136,
      "v": 78
    },
    {
      "midi": 85,
      "hit": false,
      "t": 73440,
      "d": 76,
      "v": 78
    },
    {
      "midi": 73,
      "hit": false,
      "t": 73440,
      "d": 112,
      "v": 78
    },
    {
      "midi": 55,
      "hit": false,
      "t": 73680,
      "d": 600,
      "v": 70
    },
    {
      "midi": 57,
      "hit": false,
      "t": 73680,
      "d": 600,
      "v": 66
    },
    {
      "midi": 61,
      "hit": false,
      "t": 73680,
      "d": 840,
      "v": 71
    },
    {
      "midi": 66,
      "hit": false,
      "t": 73680,
      "d": 840,
      "v": 85
    },
    {
      "midi": 71,
      "hit": false,
      "t": 73680,
      "d": 960,
      "v": 80
    },
    {
      "midi": 86,
      "hit": false,
      "t": 73920,
      "d": 124,
      "v": 74
    },
    {
      "midi": 74,
      "hit": false,
      "t": 73920,
      "d": 144,
      "v": 74
    },
    {
      "midi": 90,
      "hit": false,
      "t": 74160,
      "d": 104,
      "v": 74
    },
    {
      "midi": 78,
      "hit": false,
      "t": 74160,
      "d": 140,
      "v": 74
    },
    {
      "midi": 85,
      "hit": false,
      "t": 74400,
      "d": 104,
      "v": 67
    },
    {
      "midi": 73,
      "hit": false,
      "t": 74400,
      "d": 108,
      "v": 72
    },
    {
      "midi": 62,
      "hit": false,
      "t": 74880,
      "d": 1800,
      "v": 80
    },
    {
      "midi": 66,
      "hit": false,
      "t": 74880,
      "d": 1800,
      "v": 63
    },
    {
      "midi": 52,
      "hit": false,
      "t": 74880,
      "d": 1920,
      "v": 72
    },
    {
      "midi": 55,
      "hit": false,
      "t": 74880,
      "d": 1920,
      "v": 72
    },
    {
      "midi": 59,
      "hit": false,
      "t": 74880,
      "d": 1920,
      "v": 72
    },
    {
      "midi": 71,
      "hit": false,
      "t": 74880,
      "d": 1920,
      "v": 80
    },
    {
      "midi": 86,
      "hit": false,
      "t": 74880,
      "d": 132,
      "v": 96
    },
    {
      "midi": 74,
      "hit": false,
      "t": 74880,
      "d": 156,
      "v": 92
    },
    {
      "midi": 66,
      "hit": false,
      "t": 74880,
      "d": 96,
      "v": 77
    },
    {
      "midi": 71,
      "hit": false,
      "t": 74880,
      "d": 172,
      "v": 77
    },
    {
      "midi": 74,
      "hit": false,
      "t": 74880,
      "d": 172,
      "v": 77
    },
    {
      "midi": 90,
      "hit": false,
      "t": 75360,
      "d": 92,
      "v": 89
    },
    {
      "midi": 78,
      "hit": false,
      "t": 75360,
      "d": 112,
      "v": 89
    },
    {
      "midi": 78,
      "hit": false,
      "t": 75360,
      "d": 292,
      "v": 84
    },
    {
      "midi": 74,
      "hit": false,
      "t": 75360,
      "d": 332,
      "v": 84
    },
    {
      "midi": 71,
      "hit": false,
      "t": 75360,
      "d": 364,
      "v": 84
    },
    {
      "midi": 95,
      "hit": false,
      "t": 75600,
      "d": 112,
      "v": 86
    },
    {
      "midi": 83,
      "hit": false,
      "t": 75600,
      "d": 132,
      "v": 92
    },
    {
      "midi": 66,
      "hit": false,
      "t": 76056,
      "d": 24,
      "v": 66
    },
    {
      "midi": 74,
      "hit": false,
      "t": 76080,
      "d": 236,
      "v": 76
    },
    {
      "midi": 86,
      "hit": false,
      "t": 76080,
      "d": 236,
      "v": 86
    },
    {
      "midi": 62,
      "hit": false,
      "t": 76080,
      "d": 320,
      "v": 79
    },
    {
      "midi": 67,
      "hit": false,
      "t": 76080,
      "d": 376,
      "v": 79
    },
    {
      "midi": 71,
      "hit": false,
      "t": 76080,
      "d": 392,
      "v": 79
    },
    {
      "midi": 85,
      "hit": false,
      "t": 76560,
      "d": 76,
      "v": 58
    },
    {
      "midi": 73,
      "hit": false,
      "t": 76560,
      "d": 156,
      "v": 67
    },
    {
      "midi": 69,
      "hit": false,
      "t": 76560,
      "d": 980,
      "v": 76
    },
    {
      "midi": 66,
      "hit": false,
      "t": 76560,
      "d": 1028,
      "v": 78
    },
    {
      "midi": 61,
      "hit": false,
      "t": 76560,
      "d": 1040,
      "v": 78
    },
    {
      "midi": 55,
      "hit": false,
      "t": 77040,
      "d": 120,
      "v": 70
    },
    {
      "midi": 57,
      "hit": false,
      "t": 77040,
      "d": 120,
      "v": 66
    },
    {
      "midi": 61,
      "hit": false,
      "t": 77040,
      "d": 120,
      "v": 71
    },
    {
      "midi": 66,
      "hit": false,
      "t": 77040,
      "d": 120,
      "v": 78
    },
    {
      "midi": 71,
      "hit": false,
      "t": 77040,
      "d": 120,
      "v": 72
    },
    {
      "midi": 90,
      "hit": false,
      "t": 77040,
      "d": 96,
      "v": 78
    },
    {
      "midi": 78,
      "hit": false,
      "t": 77040,
      "d": 136,
      "v": 78
    },
    {
      "midi": 85,
      "hit": false,
      "t": 77280,
      "d": 76,
      "v": 78
    },
    {
      "midi": 73,
      "hit": false,
      "t": 77280,
      "d": 112,
      "v": 78
    },
    {
      "midi": 55,
      "hit": false,
      "t": 77520,
      "d": 600,
      "v": 70
    },
    {
      "midi": 57,
      "hit": false,
      "t": 77520,
      "d": 600,
      "v": 66
    },
    {
      "midi": 61,
      "hit": false,
      "t": 77520,
      "d": 840,
      "v": 71
    },
    {
      "midi": 66,
      "hit": false,
      "t": 77520,
      "d": 840,
      "v": 85
    },
    {
      "midi": 71,
      "hit": false,
      "t": 77520,
      "d": 960,
      "v": 80
    },
    {
      "midi": 86,
      "hit": false,
      "t": 77760,
      "d": 124,
      "v": 74
    },
    {
      "midi": 74,
      "hit": false,
      "t": 77760,
      "d": 144,
      "v": 74
    },
    {
      "midi": 90,
      "hit": false,
      "t": 78000,
      "d": 104,
      "v": 74
    },
    {
      "midi": 78,
      "hit": false,
      "t": 78000,
      "d": 140,
      "v": 74
    },
    {
      "midi": 85,
      "hit": false,
      "t": 78240,
      "d": 104,
      "v": 67
    },
    {
      "midi": 73,
      "hit": false,
      "t": 78240,
      "d": 108,
      "v": 72
    },
    {
      "midi": 59,
      "hit": false,
      "t": 78720,
      "d": 1560,
      "v": 62
    },
    {
      "midi": 63,
      "hit": false,
      "t": 78720,
      "d": 1560,
      "v": 78
    },
    {
      "midi": 49,
      "hit": false,
      "t": 78720,
      "d": 1920,
      "v": 58
    },
    {
      "midi": 52,
      "hit": false,
      "t": 78720,
      "d": 1920,
      "v": 80
    },
    {
      "midi": 56,
      "hit": false,
      "t": 78720,
      "d": 1920,
      "v": 71
    },
    {
      "midi": 66,
      "hit": false,
      "t": 78720,
      "d": 1920,
      "v": 85
    },
    {
      "midi": 54,
      "hit": false,
      "t": 80640,
      "d": 1560,
      "v": 74
    },
    {
      "midi": 58,
      "hit": false,
      "t": 80640,
      "d": 1560,
      "v": 71
    },
    {
      "midi": 62,
      "hit": false,
      "t": 80640,
      "d": 1560,
      "v": 96
    },
    {
      "midi": 66,
      "hit": false,
      "t": 80640,
      "d": 1560,
      "v": 86
    },
    {
      "midi": 69,
      "hit": false,
      "t": 80640,
      "d": 1560,
      "v": 86
    },
    {
      "midi": 57,
      "hit": false,
      "t": 82560,
      "d": 1440,
      "v": 76
    },
    {
      "midi": 59,
      "hit": false,
      "t": 82560,
      "d": 1440,
      "v": 76
    },
    {
      "midi": 62,
      "hit": false,
      "t": 82560,
      "d": 1440,
      "v": 83
    },
    {
      "midi": 66,
      "hit": false,
      "t": 82560,
      "d": 1440,
      "v": 78
    },
    {
      "midi": 57,
      "hit": false,
      "t": 84480,
      "d": 240,
      "v": 66
    },
    {
      "midi": 59,
      "hit": false,
      "t": 84480,
      "d": 240,
      "v": 76
    },
    {
      "midi": 62,
      "hit": false,
      "t": 84480,
      "d": 240,
      "v": 80
    },
    {
      "midi": 66,
      "hit": false,
      "t": 84480,
      "d": 240,
      "v": 71
    },
    {
      "midi": 56,
      "hit": false,
      "t": 85200,
      "d": 720,
      "v": 71
    },
    {
      "midi": 59,
      "hit": false,
      "t": 85200,
      "d": 720,
      "v": 83
    },
    {
      "midi": 61,
      "hit": false,
      "t": 85200,
      "d": 720,
      "v": 67
    },
    {
      "midi": 64,
      "hit": false,
      "t": 85200,
      "d": 720,
      "v": 86
    },
    {
      "midi": 57,
      "hit": false,
      "t": 86400,
      "d": 480,
      "v": 78
    },
    {
      "midi": 59,
      "hit": false,
      "t": 86400,
      "d": 480,
      "v": 80
    },
    {
      "midi": 62,
      "hit": false,
      "t": 86400,
      "d": 480,
      "v": 86
    },
    {
      "midi": 66,
      "hit": false,
      "t": 86400,
      "d": 480,
      "v": 78
    },
    {
      "midi": 59,
      "hit": false,
      "t": 88320,
      "d": 120,
      "v": 80
    },
    {
      "midi": 62,
      "hit": false,
      "t": 88320,
      "d": 120,
      "v": 86
    },
    {
      "midi": 66,
      "hit": false,
      "t": 88320,
      "d": 120,
      "v": 69
    },
    {
      "midi": 69,
      "hit": false,
      "t": 88320,
      "d": 120,
      "v": 86
    },
    {
      "midi": 61,
      "hit": false,
      "t": 89040,
      "d": 240,
      "v": 74
    },
    {
      "midi": 64,
      "hit": false,
      "t": 89040,
      "d": 240,
      "v": 100
    },
    {
      "midi": 68,
      "hit": false,
      "t": 89040,
      "d": 240,
      "v": 78
    },
    {
      "midi": 71,
      "hit": false,
      "t": 89040,
      "d": 360,
      "v": 86
    },
    {
      "midi": 62,
      "hit": false,
      "t": 90240,
      "d": 1320,
      "v": 80
    },
    {
      "midi": 66,
      "hit": false,
      "t": 90240,
      "d": 1320,
      "v": 71
    },
    {
      "midi": 69,
      "hit": false,
      "t": 90240,
      "d": 1320,
      "v": 80
    },
    {
      "midi": 73,
      "hit": false,
      "t": 90240,
      "d": 1320,
      "v": 71
    },
    {
      "midi": 62,
      "hit": false,
      "t": 92160,
      "d": 120,
      "v": 89
    },
    {
      "midi": 66,
      "hit": false,
      "t": 92160,
      "d": 120,
      "v": 74
    },
    {
      "midi": 69,
      "hit": false,
      "t": 92160,
      "d": 120,
      "v": 83
    },
    {
      "midi": 73,
      "hit": false,
      "t": 92160,
      "d": 120,
      "v": 69
    },
    {
      "midi": 61,
      "hit": false,
      "t": 92880,
      "d": 360,
      "v": 69
    },
    {
      "midi": 64,
      "hit": false,
      "t": 92880,
      "d": 360,
      "v": 86
    },
    {
      "midi": 68,
      "hit": false,
      "t": 92880,
      "d": 360,
      "v": 69
    },
    {
      "midi": 71,
      "hit": false,
      "t": 92880,
      "d": 360,
      "v": 80
    },
    {
      "midi": 69,
      "hit": false,
      "t": 94080,
      "d": 960,
      "v": 83
    },
    {
      "midi": 62,
      "hit": false,
      "t": 94080,
      "d": 1080,
      "v": 89
    },
    {
      "midi": 66,
      "hit": false,
      "t": 94080,
      "d": 1080,
      "v": 78
    },
    {
      "midi": 73,
      "hit": false,
      "t": 94080,
      "d": 1080,
      "v": 78
    },
    {
      "midi": 62,
      "hit": false,
      "t": 96000,
      "d": 120,
      "v": 80
    },
    {
      "midi": 66,
      "hit": false,
      "t": 96000,
      "d": 120,
      "v": 71
    },
    {
      "midi": 69,
      "hit": false,
      "t": 96000,
      "d": 120,
      "v": 76
    },
    {
      "midi": 73,
      "hit": false,
      "t": 96000,
      "d": 120,
      "v": 69
    },
    {
      "midi": 71,
      "hit": false,
      "t": 96720,
      "d": 1132,
      "v": 83
    },
    {
      "midi": 76,
      "hit": false,
      "t": 96720,
      "d": 1140,
      "v": 89
    },
    {
      "midi": 67,
      "hit": false,
      "t": 96720,
      "d": 1144,
      "v": 83
    },
    {
      "midi": 60,
      "hit": false,
      "t": 96720,
      "d": 1192,
      "v": 74
    },
    {
      "midi": 64,
      "hit": false,
      "t": 96720,
      "d": 1208,
      "v": 74
    },
    {
      "midi": 62,
      "hit": false,
      "t": 97920,
      "d": 1124,
      "v": 92
    },
    {
      "midi": 59,
      "hit": false,
      "t": 97920,
      "d": 1144,
      "v": 78
    },
    {
      "midi": 66,
      "hit": false,
      "t": 97920,
      "d": 1164,
      "v": 74
    },
    {
      "midi": 69,
      "hit": false,
      "t": 97920,
      "d": 1164,
      "v": 74
    },
    {
      "midi": 73,
      "hit": false,
      "t": 97920,
      "d": 1164,
      "v": 74
    },
    {
      "midi": 57,
      "hit": false,
      "t": 97920,
      "d": 1168,
      "v": 54
    },
    {
      "midi": 47,
      "hit": false,
      "t": 97920,
      "d": 2760,
      "v": 78
    },
    {
      "midi": 69,
      "hit": false,
      "t": 99840,
      "d": 84,
      "v": 92
    },
    {
      "midi": 81,
      "hit": false,
      "t": 101744,
      "d": 1480,
      "v": 89
    },
    {
      "midi": 47,
      "hit": false,
      "t": 101760,
      "d": 1000,
      "v": 92
    },
    {
      "midi": 78,
      "hit": false,
      "t": 101760,
      "d": 1504,
      "v": 71
    },
    {
      "midi": 76,
      "hit": false,
      "t": 101760,
      "d": 1512,
      "v": 86
    },
    {
      "midi": 73,
      "hit": false,
      "t": 101760,
      "d": 1544,
      "v": 67
    },
    {
      "midi": 69,
      "hit": false,
      "t": 101760,
      "d": 1588,
      "v": 70
    },
    {
      "midi": 57,
      "hit": false,
      "t": 101768,
      "d": 1068,
      "v": 92
    },
    {
      "midi": 61,
      "hit": false,
      "t": 101776,
      "d": 988,
      "v": 92
    },
    {
      "midi": 66,
      "hit": false,
      "t": 101788,
      "d": 952,
      "v": 92
    },
    {
      "midi": 57,
      "hit": false,
      "t": 103680,
      "d": 1676,
      "v": 83
    },
    {
      "midi": 59,
      "hit": false,
      "t": 103680,
      "d": 1676,
      "v": 86
    },
    {
      "midi": 61,
      "hit": false,
      "t": 103680,
      "d": 1676,
      "v": 85
    },
    {
      "midi": 65,
      "hit": false,
      "t": 103680,
      "d": 1676,
      "v": 92
    },
    {
      "midi": 77,
      "hit": false,
      "t": 103680,
      "d": 1676,
      "v": 92
    },
    {
      "midi": 59,
      "hit": false,
      "t": 105488,
      "d": 136,
      "v": 68
    },
    {
      "midi": 55,
      "hit": false,
      "t": 105508,
      "d": 188,
      "v": 68
    },
    {
      "midi": 52,
      "hit": false,
      "t": 105520,
      "d": 196,
      "v": 62
    },
    {
      "midi": 62,
      "hit": false,
      "t": 105552,
      "d": 124,
      "v": 76
    },
    {
      "midi": 66,
      "hit": false,
      "t": 105608,
      "d": 92,
      "v": 63
    },
    {
      "midi": 71,
      "hit": false,
      "t": 105652,
      "d": 100,
      "v": 86
    },
    {
      "midi": 86,
      "hit": false,
      "t": 107236,
      "d": 1312,
      "v": 79
    },
    {
      "midi": 83,
      "hit": false,
      "t": 107264,
      "d": 1268,
      "v": 79
    },
    {
      "midi": 81,
      "hit": false,
      "t": 107360,
      "d": 1176,
      "v": 81
    },
    {
      "midi": 79,
      "hit": false,
      "t": 107436,
      "d": 1112,
      "v": 82
    },
    {
      "midi": 78,
      "hit": false,
      "t": 107520,
      "d": 892,
      "v": 83
    },
    {
      "midi": 59,
      "hit": false,
      "t": 109440,
      "d": 1116,
      "v": 90
    },
    {
      "midi": 56,
      "hit": false,
      "t": 109440,
      "d": 1144,
      "v": 90
    },
    {
      "midi": 71,
      "hit": false,
      "t": 109440,
      "d": 1236,
      "v": 90
    },
    {
      "midi": 66,
      "hit": false,
      "t": 109440,
      "d": 1252,
      "v": 90
    },
    {
      "midi": 62,
      "hit": false,
      "t": 109440,
      "d": 1324,
      "v": 90
    },
    {
      "midi": 64,
      "hit": false,
      "t": 111360,
      "d": 1324,
      "v": 78
    },
    {
      "midi": 68,
      "hit": false,
      "t": 111360,
      "d": 1324,
      "v": 78
    },
    {
      "midi": 65,
      "hit": false,
      "t": 111360,
      "d": 1352,
      "v": 86
    },
    {
      "midi": 71,
      "hit": false,
      "t": 111360,
      "d": 1372,
      "v": 89
    },
    {
      "midi": 61,
      "hit": false,
      "t": 113280,
      "d": 960,
      "v": 71
    },
    {
      "midi": 64,
      "hit": false,
      "t": 113280,
      "d": 960,
      "v": 71
    },
    {
      "midi": 66,
      "hit": false,
      "t": 113280,
      "d": 976,
      "v": 78
    },
    {
      "midi": 71,
      "hit": false,
      "t": 113280,
      "d": 1004,
      "v": 83
    },
    {
      "midi": 74,
      "hit": false,
      "t": 115200,
      "d": 1240,
      "v": 88
    },
    {
      "midi": 78,
      "hit": false,
      "t": 115200,
      "d": 1240,
      "v": 88
    },
    {
      "midi": 70,
      "hit": false,
      "t": 115200,
      "d": 1256,
      "v": 88
    },
    {
      "midi": 66,
      "hit": false,
      "t": 115200,
      "d": 1336,
      "v": 88
    },
    {
      "midi": 54,
      "hit": false,
      "t": 115200,
      "d": 1344,
      "v": 88
    },
    {
      "midi": 62,
      "hit": false,
      "t": 117120,
      "d": 936,
      "v": 83
    },
    {
      "midi": 61,
      "hit": false,
      "t": 117120,
      "d": 964,
      "v": 74
    },
    {
      "midi": 66,
      "hit": false,
      "t": 117120,
      "d": 964,
      "v": 71
    },
    {
      "midi": 59,
      "hit": false,
      "t": 117120,
      "d": 1044,
      "v": 55
    },
    {
      "midi": 54,
      "hit": false,
      "t": 117120,
      "d": 1596,
      "v": 64
    },
    {
      "midi": 47,
      "hit": false,
      "t": 117120,
      "d": 3412,
      "v": 68
    },
    {
      "midi": 62,
      "hit": false,
      "t": 118560,
      "d": 264,
      "v": 76
    },
    {
      "midi": 74,
      "hit": false,
      "t": 118560,
      "d": 268,
      "v": 83
    },
    {
      "midi": 78,
      "hit": false,
      "t": 118800,
      "d": 916,
      "v": 78
    },
    {
      "midi": 66,
      "hit": false,
      "t": 118800,
      "d": 952,
      "v": 78
    },
    {
      "midi": 81,
      "hit": false,
      "t": 119040,
      "d": 124,
      "v": 90
    },
    {
      "midi": 78,
      "hit": false,
      "t": 119280,
      "d": 112,
      "v": 91
    },
    {
      "midi": 74,
      "hit": false,
      "t": 119760,
      "d": 80,
      "v": 89
    },
    {
      "midi": 57,
      "hit": false,
      "t": 120720,
      "d": 1228,
      "v": 90
    },
    {
      "midi": 59,
      "hit": false,
      "t": 120720,
      "d": 1228,
      "v": 90
    },
    {
      "midi": 66,
      "hit": false,
      "t": 120720,
      "d": 1232,
      "v": 90
    },
    {
      "midi": 61,
      "hit": false,
      "t": 120720,
      "d": 1236,
      "v": 90
    },
    {
      "midi": 57,
      "hit": false,
      "t": 122880,
      "d": 3544,
      "v": 55
    },
    {
      "midi": 63,
      "hit": false,
      "t": 122880,
      "d": 3584,
      "v": 66
    },
    {
      "midi": 68,
      "hit": false,
      "t": 122880,
      "d": 3592,
      "v": 74
    },
    {
      "midi": 72,
      "hit": false,
      "t": 122880,
      "d": 3600,
      "v": 86
    },
    {
      "midi": 47,
      "hit": false,
      "t": 122880,
      "d": 3624,
      "v": 49
    },
    {
      "midi": 59,
      "hit": false,
      "t": 122880,
      "d": 3624,
      "v": 57
    },
    {
      "midi": 52,
      "hit": false,
      "t": 126720,
      "d": 1768,
      "v": 44
    },
    {
      "midi": 55,
      "hit": false,
      "t": 126724,
      "d": 1736,
      "v": 68
    },
    {
      "midi": 59,
      "hit": false,
      "t": 126728,
      "d": 1736,
      "v": 68
    },
    {
      "midi": 62,
      "hit": false,
      "t": 126732,
      "d": 1732,
      "v": 70
    },
    {
      "midi": 67,
      "hit": false,
      "t": 126736,
      "d": 1720,
      "v": 62
    },
    {
      "midi": 71,
      "hit": false,
      "t": 126740,
      "d": 1716,
      "v": 66
    },
    {
      "midi": 74,
      "hit": false,
      "t": 126748,
      "d": 1668,
      "v": 70
    },
    {
      "midi": 78,
      "hit": false,
      "t": 126756,
      "d": 1672,
      "v": 78
    },
    {
      "midi": 86,
      "hit": false,
      "t": 128356,
      "d": 1312,
      "v": 79
    },
    {
      "midi": 83,
      "hit": false,
      "t": 128384,
      "d": 1268,
      "v": 79
    },
    {
      "midi": 81,
      "hit": false,
      "t": 128480,
      "d": 1176,
      "v": 81
    },
    {
      "midi": 79,
      "hit": false,
      "t": 128556,
      "d": 1112,
      "v": 82
    },
    {
      "midi": 78,
      "hit": false,
      "t": 128640,
      "d": 892,
      "v": 83
    },
    {
      "midi": 59,
      "hit": false,
      "t": 130560,
      "d": 1116,
      "v": 90
    },
    {
      "midi": 56,
      "hit": false,
      "t": 130560,
      "d": 1144,
      "v": 90
    },
    {
      "midi": 71,
      "hit": false,
      "t": 130560,
      "d": 1236,
      "v": 90
    },
    {
      "midi": 66,
      "hit": false,
      "t": 130560,
      "d": 1252,
      "v": 90
    },
    {
      "midi": 62,
      "hit": false,
      "t": 130560,
      "d": 1324,
      "v": 90
    },
    {
      "midi": 64,
      "hit": false,
      "t": 132480,
      "d": 1324,
      "v": 78
    },
    {
      "midi": 68,
      "hit": false,
      "t": 132480,
      "d": 1324,
      "v": 78
    },
    {
      "midi": 65,
      "hit": false,
      "t": 132480,
      "d": 1352,
      "v": 86
    },
    {
      "midi": 71,
      "hit": false,
      "t": 132480,
      "d": 1372,
      "v": 89
    },
    {
      "midi": 61,
      "hit": false,
      "t": 134400,
      "d": 960,
      "v": 71
    },
    {
      "midi": 64,
      "hit": false,
      "t": 134400,
      "d": 960,
      "v": 71
    },
    {
      "midi": 66,
      "hit": false,
      "t": 134400,
      "d": 976,
      "v": 78
    },
    {
      "midi": 71,
      "hit": false,
      "t": 134400,
      "d": 1004,
      "v": 83
    },
    {
      "midi": 70,
      "hit": false,
      "t": 136320,
      "d": 1516,
      "v": 88
    },
    {
      "midi": 54,
      "hit": false,
      "t": 136320,
      "d": 1596,
      "v": 88
    },
    {
      "midi": 66,
      "hit": false,
      "t": 136320,
      "d": 1596,
      "v": 88
    },
    {
      "midi": 74,
      "hit": false,
      "t": 136320,
      "d": 1596,
      "v": 88
    },
    {
      "midi": 78,
      "hit": false,
      "t": 136320,
      "d": 1596,
      "v": 88
    },
    {
      "midi": 57,
      "hit": false,
      "t": 138240,
      "d": 596,
      "v": 86
    },
    {
      "midi": 61,
      "hit": false,
      "t": 138240,
      "d": 596,
      "v": 78
    },
    {
      "midi": 66,
      "hit": false,
      "t": 138240,
      "d": 596,
      "v": 85
    },
    {
      "midi": 47,
      "hit": false,
      "t": 138240,
      "d": 1556,
      "v": 78
    },
    {
      "midi": 69,
      "hit": false,
      "t": 138248,
      "d": 596,
      "v": 78
    },
    {
      "midi": 73,
      "hit": false,
      "t": 138260,
      "d": 596,
      "v": 78
    },
    {
      "midi": 76,
      "hit": false,
      "t": 138272,
      "d": 596,
      "v": 78
    },
    {
      "midi": 61,
      "hit": false,
      "t": 138960,
      "d": 592,
      "v": 85
    },
    {
      "midi": 66,
      "hit": false,
      "t": 138960,
      "d": 604,
      "v": 93
    },
    {
      "midi": 57,
      "hit": false,
      "t": 138960,
      "d": 620,
      "v": 74
    },
    {
      "midi": 78,
      "hit": false,
      "t": 139044,
      "d": 44,
      "v": 58
    },
    {
      "midi": 80,
      "hit": false,
      "t": 139096,
      "d": 44,
      "v": 73
    },
    {
      "midi": 82,
      "hit": false,
      "t": 139140,
      "d": 36,
      "v": 77
    },
    {
      "midi": 85,
      "hit": false,
      "t": 139184,
      "d": 40,
      "v": 84
    },
    {
      "midi": 87,
      "hit": false,
      "t": 139224,
      "d": 24,
      "v": 88
    },
    {
      "midi": 90,
      "hit": false,
      "t": 139264,
      "d": 16,
      "v": 94
    },
    {
      "midi": 66,
      "hit": false,
      "t": 139680,
      "d": 120,
      "v": 93
    },
    {
      "midi": 61,
      "hit": false,
      "t": 139680,
      "d": 148,
      "v": 93
    },
    {
      "midi": 57,
      "hit": false,
      "t": 139680,
      "d": 160,
      "v": 72
    },
    {
      "midi": 61,
      "hit": false,
      "t": 140160,
      "d": 368,
      "v": 98
    },
    {
      "midi": 57,
      "hit": false,
      "t": 140160,
      "d": 384,
      "v": 99
    },
    {
      "midi": 64,
      "hit": false,
      "t": 140160,
      "d": 384,
      "v": 98
    },
    {
      "midi": 47,
      "hit": false,
      "t": 140160,
      "d": 396,
      "v": 95
    },
    {
      "midi": 63,
      "hit": false,
      "t": 141120,
      "d": 424,
      "v": 93
    },
    {
      "midi": 61,
      "hit": false,
      "t": 141120,
      "d": 428,
      "v": 85
    },
    {
      "midi": 57,
      "hit": false,
      "t": 141120,
      "d": 436,
      "v": 80
    },
    {
      "midi": 47,
      "hit": false,
      "t": 141120,
      "d": 504,
      "v": 78
    },
    {
      "midi": 62,
      "hit": false,
      "t": 142080,
      "d": 1800,
      "v": 80
    },
    {
      "midi": 66,
      "hit": false,
      "t": 142080,
      "d": 1800,
      "v": 85
    },
    {
      "midi": 71,
      "hit": false,
      "t": 142080,
      "d": 1800,
      "v": 80
    },
    {
      "midi": 52,
      "hit": false,
      "t": 142080,
      "d": 1920,
      "v": 63
    },
    {
      "midi": 55,
      "hit": false,
      "t": 142080,
      "d": 1920,
      "v": 72
    },
    {
      "midi": 59,
      "hit": false,
      "t": 142080,
      "d": 1920,
      "v": 65
    },
    {
      "midi": 74,
      "hit": false,
      "t": 142080,
      "d": 1012,
      "v": 89
    },
    {
      "midi": 86,
      "hit": false,
      "t": 142080,
      "d": 1048,
      "v": 92
    },
    {
      "midi": 90,
      "hit": false,
      "t": 142560,
      "d": 92,
      "v": 89
    },
    {
      "midi": 78,
      "hit": false,
      "t": 142560,
      "d": 112,
      "v": 89
    },
    {
      "midi": 95,
      "hit": false,
      "t": 142800,
      "d": 112,
      "v": 86
    },
    {
      "midi": 83,
      "hit": false,
      "t": 142800,
      "d": 132,
      "v": 92
    },
    {
      "midi": 74,
      "hit": false,
      "t": 143280,
      "d": 236,
      "v": 76
    },
    {
      "midi": 86,
      "hit": false,
      "t": 143280,
      "d": 236,
      "v": 86
    },
    {
      "midi": 85,
      "hit": false,
      "t": 143760,
      "d": 76,
      "v": 58
    },
    {
      "midi": 73,
      "hit": false,
      "t": 143760,
      "d": 156,
      "v": 67
    },
    {
      "midi": 85,
      "hit": false,
      "t": 143760,
      "d": 292,
      "v": 81
    },
    {
      "midi": 73,
      "hit": false,
      "t": 143760,
      "d": 320,
      "v": 81
    },
    {
      "midi": 55,
      "hit": false,
      "t": 144240,
      "d": 120,
      "v": 61
    },
    {
      "midi": 57,
      "hit": false,
      "t": 144240,
      "d": 120,
      "v": 68
    },
    {
      "midi": 61,
      "hit": false,
      "t": 144240,
      "d": 120,
      "v": 66
    },
    {
      "midi": 66,
      "hit": false,
      "t": 144240,
      "d": 120,
      "v": 74
    },
    {
      "midi": 71,
      "hit": false,
      "t": 144240,
      "d": 120,
      "v": 74
    },
    {
      "midi": 90,
      "hit": false,
      "t": 144240,
      "d": 96,
      "v": 78
    },
    {
      "midi": 78,
      "hit": false,
      "t": 144240,
      "d": 136,
      "v": 78
    },
    {
      "midi": 85,
      "hit": false,
      "t": 144480,
      "d": 76,
      "v": 78
    },
    {
      "midi": 73,
      "hit": false,
      "t": 144480,
      "d": 112,
      "v": 78
    },
    {
      "midi": 55,
      "hit": false,
      "t": 144720,
      "d": 1080,
      "v": 70
    },
    {
      "midi": 57,
      "hit": false,
      "t": 144720,
      "d": 1080,
      "v": 74
    },
    {
      "midi": 61,
      "hit": false,
      "t": 144720,
      "d": 1080,
      "v": 66
    },
    {
      "midi": 66,
      "hit": false,
      "t": 144720,
      "d": 1080,
      "v": 74
    },
    {
      "midi": 71,
      "hit": false,
      "t": 144720,
      "d": 1080,
      "v": 78
    },
    {
      "midi": 86,
      "hit": false,
      "t": 144960,
      "d": 124,
      "v": 74
    },
    {
      "midi": 74,
      "hit": false,
      "t": 144960,
      "d": 144,
      "v": 74
    },
    {
      "midi": 90,
      "hit": false,
      "t": 145200,
      "d": 104,
      "v": 74
    },
    {
      "midi": 78,
      "hit": false,
      "t": 145200,
      "d": 140,
      "v": 74
    },
    {
      "midi": 85,
      "hit": false,
      "t": 145440,
      "d": 104,
      "v": 67
    },
    {
      "midi": 73,
      "hit": false,
      "t": 145440,
      "d": 108,
      "v": 72
    },
    {
      "midi": 67,
      "hit": false,
      "t": 145440,
      "d": 84,
      "v": 76
    },
    {
      "midi": 71,
      "hit": false,
      "t": 145440,
      "d": 84,
      "v": 80
    },
    {
      "midi": 76,
      "hit": false,
      "t": 145440,
      "d": 124,
      "v": 92
    },
    {
      "midi": 62,
      "hit": false,
      "t": 145920,
      "d": 1800,
      "v": 80
    },
    {
      "midi": 52,
      "hit": false,
      "t": 145920,
      "d": 1920,
      "v": 68
    },
    {
      "midi": 55,
      "hit": false,
      "t": 145920,
      "d": 1920,
      "v": 70
    },
    {
      "midi": 66,
      "hit": false,
      "t": 145920,
      "d": 1920,
      "v": 67
    },
    {
      "midi": 71,
      "hit": false,
      "t": 145920,
      "d": 1920,
      "v": 76
    },
    {
      "midi": 59,
      "hit": false,
      "t": 145920,
      "d": 2040,
      "v": 70
    },
    {
      "midi": 86,
      "hit": false,
      "t": 145920,
      "d": 132,
      "v": 96
    },
    {
      "midi": 74,
      "hit": false,
      "t": 145920,
      "d": 156,
      "v": 92
    },
    {
      "midi": 67,
      "hit": false,
      "t": 145920,
      "d": 92,
      "v": 78
    },
    {
      "midi": 71,
      "hit": false,
      "t": 145920,
      "d": 128,
      "v": 80
    },
    {
      "midi": 74,
      "hit": false,
      "t": 145920,
      "d": 132,
      "v": 89
    },
    {
      "midi": 90,
      "hit": false,
      "t": 146400,
      "d": 92,
      "v": 89
    },
    {
      "midi": 78,
      "hit": false,
      "t": 146400,
      "d": 112,
      "v": 89
    },
    {
      "midi": 78,
      "hit": false,
      "t": 146400,
      "d": 284,
      "v": 91
    },
    {
      "midi": 74,
      "hit": false,
      "t": 146400,
      "d": 308,
      "v": 91
    },
    {
      "midi": 71,
      "hit": false,
      "t": 146400,
      "d": 336,
      "v": 91
    },
    {
      "midi": 95,
      "hit": false,
      "t": 146640,
      "d": 112,
      "v": 86
    },
    {
      "midi": 83,
      "hit": false,
      "t": 146640,
      "d": 132,
      "v": 92
    },
    {
      "midi": 74,
      "hit": false,
      "t": 147120,
      "d": 220,
      "v": 76
    },
    {
      "midi": 86,
      "hit": false,
      "t": 147120,
      "d": 236,
      "v": 86
    },
    {
      "midi": 71,
      "hit": false,
      "t": 147120,
      "d": 68,
      "v": 92
    },
    {
      "midi": 74,
      "hit": false,
      "t": 147120,
      "d": 84,
      "v": 100
    },
    {
      "midi": 67,
      "hit": false,
      "t": 147120,
      "d": 92,
      "v": 83
    },
    {
      "midi": 85,
      "hit": false,
      "t": 147600,
      "d": 76,
      "v": 58
    },
    {
      "midi": 73,
      "hit": false,
      "t": 147600,
      "d": 156,
      "v": 67
    },
    {
      "midi": 62,
      "hit": false,
      "t": 147600,
      "d": 1436,
      "v": 83
    },
    {
      "midi": 66,
      "hit": false,
      "t": 147600,
      "d": 1436,
      "v": 83
    },
    {
      "midi": 69,
      "hit": false,
      "t": 147600,
      "d": 1556,
      "v": 83
    },
    {
      "midi": 55,
      "hit": false,
      "t": 148080,
      "d": 120,
      "v": 78
    },
    {
      "midi": 57,
      "hit": false,
      "t": 148080,
      "d": 120,
      "v": 76
    },
    {
      "midi": 61,
      "hit": false,
      "t": 148080,
      "d": 120,
      "v": 74
    },
    {
      "midi": 66,
      "hit": false,
      "t": 148080,
      "d": 120,
      "v": 78
    },
    {
      "midi": 71,
      "hit": false,
      "t": 148080,
      "d": 120,
      "v": 80
    },
    {
      "midi": 90,
      "hit": false,
      "t": 148080,
      "d": 96,
      "v": 78
    },
    {
      "midi": 78,
      "hit": false,
      "t": 148080,
      "d": 136,
      "v": 78
    },
    {
      "midi": 85,
      "hit": false,
      "t": 148320,
      "d": 76,
      "v": 78
    },
    {
      "midi": 73,
      "hit": false,
      "t": 148320,
      "d": 112,
      "v": 78
    },
    {
      "midi": 61,
      "hit": false,
      "t": 148560,
      "d": 960,
      "v": 69
    },
    {
      "midi": 55,
      "hit": false,
      "t": 148560,
      "d": 1080,
      "v": 70
    },
    {
      "midi": 57,
      "hit": false,
      "t": 148560,
      "d": 1080,
      "v": 70
    },
    {
      "midi": 71,
      "hit": false,
      "t": 148560,
      "d": 1080,
      "v": 76
    },
    {
      "midi": 66,
      "hit": false,
      "t": 148560,
      "d": 1200,
      "v": 69
    },
    {
      "midi": 86,
      "hit": false,
      "t": 148800,
      "d": 124,
      "v": 74
    },
    {
      "midi": 74,
      "hit": false,
      "t": 148800,
      "d": 144,
      "v": 74
    },
    {
      "midi": 90,
      "hit": false,
      "t": 149040,
      "d": 104,
      "v": 74
    },
    {
      "midi": 78,
      "hit": false,
      "t": 149040,
      "d": 140,
      "v": 74
    },
    {
      "midi": 70,
      "hit": false,
      "t": 149272,
      "d": 72,
      "v": 55
    },
    {
      "midi": 85,
      "hit": false,
      "t": 149280,
      "d": 104,
      "v": 67
    },
    {
      "midi": 73,
      "hit": false,
      "t": 149280,
      "d": 108,
      "v": 72
    },
    {
      "midi": 67,
      "hit": false,
      "t": 149280,
      "d": 136,
      "v": 58
    },
    {
      "midi": 71,
      "hit": false,
      "t": 149280,
      "d": 140,
      "v": 83
    },
    {
      "midi": 76,
      "hit": false,
      "t": 149280,
      "d": 236,
      "v": 80
    },
    {
      "midi": 62,
      "hit": false,
      "t": 149760,
      "d": 1800,
      "v": 80
    },
    {
      "midi": 66,
      "hit": false,
      "t": 149760,
      "d": 1800,
      "v": 63
    },
    {
      "midi": 52,
      "hit": false,
      "t": 149760,
      "d": 1920,
      "v": 72
    },
    {
      "midi": 55,
      "hit": false,
      "t": 149760,
      "d": 1920,
      "v": 72
    },
    {
      "midi": 59,
      "hit": false,
      "t": 149760,
      "d": 1920,
      "v": 72
    },
    {
      "midi": 71,
      "hit": false,
      "t": 149760,
      "d": 1920,
      "v": 80
    },
    {
      "midi": 86,
      "hit": false,
      "t": 149760,
      "d": 132,
      "v": 96
    },
    {
      "midi": 74,
      "hit": false,
      "t": 149760,
      "d": 156,
      "v": 92
    },
    {
      "midi": 66,
      "hit": false,
      "t": 149760,
      "d": 96,
      "v": 77
    },
    {
      "midi": 71,
      "hit": false,
      "t": 149760,
      "d": 172,
      "v": 77
    },
    {
      "midi": 74,
      "hit": false,
      "t": 149760,
      "d": 172,
      "v": 77
    },
    {
      "midi": 90,
      "hit": false,
      "t": 150240,
      "d": 92,
      "v": 89
    },
    {
      "midi": 78,
      "hit": false,
      "t": 150240,
      "d": 112,
      "v": 89
    },
    {
      "midi": 78,
      "hit": false,
      "t": 150240,
      "d": 292,
      "v": 84
    },
    {
      "midi": 74,
      "hit": false,
      "t": 150240,
      "d": 332,
      "v": 84
    },
    {
      "midi": 71,
      "hit": false,
      "t": 150240,
      "d": 364,
      "v": 84
    },
    {
      "midi": 95,
      "hit": false,
      "t": 150480,
      "d": 112,
      "v": 86
    },
    {
      "midi": 83,
      "hit": false,
      "t": 150480,
      "d": 132,
      "v": 92
    },
    {
      "midi": 66,
      "hit": false,
      "t": 150936,
      "d": 24,
      "v": 66
    },
    {
      "midi": 74,
      "hit": false,
      "t": 150960,
      "d": 236,
      "v": 76
    },
    {
      "midi": 86,
      "hit": false,
      "t": 150960,
      "d": 236,
      "v": 86
    },
    {
      "midi": 62,
      "hit": false,
      "t": 150960,
      "d": 320,
      "v": 79
    },
    {
      "midi": 67,
      "hit": false,
      "t": 150960,
      "d": 376,
      "v": 79
    },
    {
      "midi": 71,
      "hit": false,
      "t": 150960,
      "d": 392,
      "v": 79
    },
    {
      "midi": 85,
      "hit": false,
      "t": 151440,
      "d": 76,
      "v": 58
    },
    {
      "midi": 73,
      "hit": false,
      "t": 151440,
      "d": 156,
      "v": 67
    },
    {
      "midi": 69,
      "hit": false,
      "t": 151440,
      "d": 980,
      "v": 76
    },
    {
      "midi": 66,
      "hit": false,
      "t": 151440,
      "d": 1028,
      "v": 78
    },
    {
      "midi": 61,
      "hit": false,
      "t": 151440,
      "d": 1040,
      "v": 78
    },
    {
      "midi": 55,
      "hit": false,
      "t": 151920,
      "d": 120,
      "v": 70
    },
    {
      "midi": 57,
      "hit": false,
      "t": 151920,
      "d": 120,
      "v": 66
    },
    {
      "midi": 61,
      "hit": false,
      "t": 151920,
      "d": 120,
      "v": 71
    },
    {
      "midi": 66,
      "hit": false,
      "t": 151920,
      "d": 120,
      "v": 78
    },
    {
      "midi": 71,
      "hit": false,
      "t": 151920,
      "d": 120,
      "v": 72
    },
    {
      "midi": 90,
      "hit": false,
      "t": 151920,
      "d": 96,
      "v": 78
    },
    {
      "midi": 78,
      "hit": false,
      "t": 151920,
      "d": 136,
      "v": 78
    },
    {
      "midi": 85,
      "hit": false,
      "t": 152160,
      "d": 76,
      "v": 78
    },
    {
      "midi": 73,
      "hit": false,
      "t": 152160,
      "d": 112,
      "v": 78
    },
    {
      "midi": 55,
      "hit": false,
      "t": 152400,
      "d": 600,
      "v": 70
    },
    {
      "midi": 57,
      "hit": false,
      "t": 152400,
      "d": 600,
      "v": 66
    },
    {
      "midi": 61,
      "hit": false,
      "t": 152400,
      "d": 840,
      "v": 71
    },
    {
      "midi": 66,
      "hit": false,
      "t": 152400,
      "d": 840,
      "v": 85
    },
    {
      "midi": 71,
      "hit": false,
      "t": 152400,
      "d": 960,
      "v": 80
    },
    {
      "midi": 86,
      "hit": false,
      "t": 152640,
      "d": 124,
      "v": 74
    },
    {
      "midi": 74,
      "hit": false,
      "t": 152640,
      "d": 144,
      "v": 74
    },
    {
      "midi": 90,
      "hit": false,
      "t": 152880,
      "d": 104,
      "v": 74
    },
    {
      "midi": 78,
      "hit": false,
      "t": 152880,
      "d": 140,
      "v": 74
    },
    {
      "midi": 85,
      "hit": false,
      "t": 153120,
      "d": 104,
      "v": 67
    },
    {
      "midi": 73,
      "hit": false,
      "t": 153120,
      "d": 108,
      "v": 72
    },
    {
      "midi": 62,
      "hit": false,
      "t": 153600,
      "d": 1800,
      "v": 80
    },
    {
      "midi": 66,
      "hit": false,
      "t": 153600,
      "d": 1800,
      "v": 63
    },
    {
      "midi": 52,
      "hit": false,
      "t": 153600,
      "d": 1920,
      "v": 72
    },
    {
      "midi": 55,
      "hit": false,
      "t": 153600,
      "d": 1920,
      "v": 72
    },
    {
      "midi": 59,
      "hit": false,
      "t": 153600,
      "d": 1920,
      "v": 72
    },
    {
      "midi": 71,
      "hit": false,
      "t": 153600,
      "d": 1920,
      "v": 80
    },
    {
      "midi": 86,
      "hit": false,
      "t": 153600,
      "d": 132,
      "v": 96
    },
    {
      "midi": 74,
      "hit": false,
      "t": 153600,
      "d": 156,
      "v": 92
    },
    {
      "midi": 66,
      "hit": false,
      "t": 153600,
      "d": 96,
      "v": 77
    },
    {
      "midi": 71,
      "hit": false,
      "t": 153600,
      "d": 172,
      "v": 77
    },
    {
      "midi": 74,
      "hit": false,
      "t": 153600,
      "d": 172,
      "v": 77
    },
    {
      "midi": 90,
      "hit": false,
      "t": 154080,
      "d": 92,
      "v": 89
    },
    {
      "midi": 78,
      "hit": false,
      "t": 154080,
      "d": 112,
      "v": 89
    },
    {
      "midi": 78,
      "hit": false,
      "t": 154080,
      "d": 292,
      "v": 84
    },
    {
      "midi": 74,
      "hit": false,
      "t": 154080,
      "d": 332,
      "v": 84
    },
    {
      "midi": 71,
      "hit": false,
      "t": 154080,
      "d": 364,
      "v": 84
    },
    {
      "midi": 95,
      "hit": false,
      "t": 154320,
      "d": 112,
      "v": 86
    },
    {
      "midi": 83,
      "hit": false,
      "t": 154320,
      "d": 132,
      "v": 92
    },
    {
      "midi": 66,
      "hit": false,
      "t": 154776,
      "d": 24,
      "v": 66
    },
    {
      "midi": 74,
      "hit": false,
      "t": 154800,
      "d": 236,
      "v": 76
    },
    {
      "midi": 86,
      "hit": false,
      "t": 154800,
      "d": 236,
      "v": 86
    },
    {
      "midi": 62,
      "hit": false,
      "t": 154800,
      "d": 320,
      "v": 79
    },
    {
      "midi": 67,
      "hit": false,
      "t": 154800,
      "d": 376,
      "v": 79
    },
    {
      "midi": 71,
      "hit": false,
      "t": 154800,
      "d": 392,
      "v": 79
    },
    {
      "midi": 85,
      "hit": false,
      "t": 155280,
      "d": 76,
      "v": 58
    },
    {
      "midi": 73,
      "hit": false,
      "t": 155280,
      "d": 156,
      "v": 67
    },
    {
      "midi": 69,
      "hit": false,
      "t": 155280,
      "d": 980,
      "v": 76
    },
    {
      "midi": 66,
      "hit": false,
      "t": 155280,
      "d": 1028,
      "v": 78
    },
    {
      "midi": 61,
      "hit": false,
      "t": 155280,
      "d": 1040,
      "v": 78
    },
    {
      "midi": 55,
      "hit": false,
      "t": 155760,
      "d": 120,
      "v": 70
    },
    {
      "midi": 57,
      "hit": false,
      "t": 155760,
      "d": 120,
      "v": 66
    },
    {
      "midi": 61,
      "hit": false,
      "t": 155760,
      "d": 120,
      "v": 71
    },
    {
      "midi": 66,
      "hit": false,
      "t": 155760,
      "d": 120,
      "v": 78
    },
    {
      "midi": 71,
      "hit": false,
      "t": 155760,
      "d": 120,
      "v": 72
    },
    {
      "midi": 90,
      "hit": false,
      "t": 155760,
      "d": 96,
      "v": 78
    },
    {
      "midi": 78,
      "hit": false,
      "t": 155760,
      "d": 136,
      "v": 78
    },
    {
      "midi": 85,
      "hit": false,
      "t": 156000,
      "d": 76,
      "v": 78
    },
    {
      "midi": 73,
      "hit": false,
      "t": 156000,
      "d": 112,
      "v": 78
    },
    {
      "midi": 55,
      "hit": false,
      "t": 156240,
      "d": 600,
      "v": 70
    },
    {
      "midi": 57,
      "hit": false,
      "t": 156240,
      "d": 600,
      "v": 66
    },
    {
      "midi": 61,
      "hit": false,
      "t": 156240,
      "d": 840,
      "v": 71
    },
    {
      "midi": 66,
      "hit": false,
      "t": 156240,
      "d": 840,
      "v": 85
    },
    {
      "midi": 71,
      "hit": false,
      "t": 156240,
      "d": 960,
      "v": 80
    },
    {
      "midi": 86,
      "hit": false,
      "t": 156480,
      "d": 124,
      "v": 74
    },
    {
      "midi": 74,
      "hit": false,
      "t": 156480,
      "d": 144,
      "v": 74
    },
    {
      "midi": 90,
      "hit": false,
      "t": 156720,
      "d": 104,
      "v": 74
    },
    {
      "midi": 78,
      "hit": false,
      "t": 156720,
      "d": 140,
      "v": 74
    },
    {
      "midi": 85,
      "hit": false,
      "t": 156960,
      "d": 104,
      "v": 67
    },
    {
      "midi": 73,
      "hit": false,
      "t": 156960,
      "d": 108,
      "v": 72
    },
    {
      "midi": 62,
      "hit": false,
      "t": 157440,
      "d": 1800,
      "v": 80
    },
    {
      "midi": 66,
      "hit": false,
      "t": 157440,
      "d": 1800,
      "v": 63
    },
    {
      "midi": 52,
      "hit": false,
      "t": 157440,
      "d": 1920,
      "v": 72
    },
    {
      "midi": 55,
      "hit": false,
      "t": 157440,
      "d": 1920,
      "v": 72
    },
    {
      "midi": 59,
      "hit": false,
      "t": 157440,
      "d": 1920,
      "v": 72
    },
    {
      "midi": 71,
      "hit": false,
      "t": 157440,
      "d": 1920,
      "v": 80
    },
    {
      "midi": 86,
      "hit": false,
      "t": 157440,
      "d": 132,
      "v": 96
    },
    {
      "midi": 74,
      "hit": false,
      "t": 157440,
      "d": 156,
      "v": 92
    },
    {
      "midi": 66,
      "hit": false,
      "t": 157440,
      "d": 96,
      "v": 77
    },
    {
      "midi": 71,
      "hit": false,
      "t": 157440,
      "d": 172,
      "v": 77
    },
    {
      "midi": 74,
      "hit": false,
      "t": 157440,
      "d": 172,
      "v": 77
    },
    {
      "midi": 90,
      "hit": false,
      "t": 157920,
      "d": 92,
      "v": 89
    },
    {
      "midi": 78,
      "hit": false,
      "t": 157920,
      "d": 112,
      "v": 89
    },
    {
      "midi": 78,
      "hit": false,
      "t": 157920,
      "d": 292,
      "v": 84
    },
    {
      "midi": 74,
      "hit": false,
      "t": 157920,
      "d": 332,
      "v": 84
    },
    {
      "midi": 71,
      "hit": false,
      "t": 157920,
      "d": 364,
      "v": 84
    },
    {
      "midi": 95,
      "hit": false,
      "t": 158160,
      "d": 112,
      "v": 86
    },
    {
      "midi": 83,
      "hit": false,
      "t": 158160,
      "d": 132,
      "v": 92
    },
    {
      "midi": 66,
      "hit": false,
      "t": 158616,
      "d": 24,
      "v": 66
    },
    {
      "midi": 74,
      "hit": false,
      "t": 158640,
      "d": 236,
      "v": 76
    },
    {
      "midi": 86,
      "hit": false,
      "t": 158640,
      "d": 236,
      "v": 86
    },
    {
      "midi": 62,
      "hit": false,
      "t": 158640,
      "d": 320,
      "v": 79
    },
    {
      "midi": 67,
      "hit": false,
      "t": 158640,
      "d": 376,
      "v": 79
    },
    {
      "midi": 71,
      "hit": false,
      "t": 158640,
      "d": 392,
      "v": 79
    },
    {
      "midi": 85,
      "hit": false,
      "t": 159120,
      "d": 76,
      "v": 58
    },
    {
      "midi": 73,
      "hit": false,
      "t": 159120,
      "d": 156,
      "v": 67
    },
    {
      "midi": 69,
      "hit": false,
      "t": 159120,
      "d": 980,
      "v": 76
    },
    {
      "midi": 66,
      "hit": false,
      "t": 159120,
      "d": 1028,
      "v": 78
    },
    {
      "midi": 61,
      "hit": false,
      "t": 159120,
      "d": 1040,
      "v": 78
    },
    {
      "midi": 55,
      "hit": false,
      "t": 159600,
      "d": 120,
      "v": 70
    },
    {
      "midi": 57,
      "hit": false,
      "t": 159600,
      "d": 120,
      "v": 66
    },
    {
      "midi": 61,
      "hit": false,
      "t": 159600,
      "d": 120,
      "v": 71
    },
    {
      "midi": 66,
      "hit": false,
      "t": 159600,
      "d": 120,
      "v": 78
    },
    {
      "midi": 71,
      "hit": false,
      "t": 159600,
      "d": 120,
      "v": 72
    },
    {
      "midi": 90,
      "hit": false,
      "t": 159600,
      "d": 96,
      "v": 78
    },
    {
      "midi": 78,
      "hit": false,
      "t": 159600,
      "d": 136,
      "v": 78
    },
    {
      "midi": 85,
      "hit": false,
      "t": 159840,
      "d": 76,
      "v": 78
    },
    {
      "midi": 73,
      "hit": false,
      "t": 159840,
      "d": 112,
      "v": 78
    },
    {
      "midi": 55,
      "hit": false,
      "t": 160080,
      "d": 600,
      "v": 70
    },
    {
      "midi": 57,
      "hit": false,
      "t": 160080,
      "d": 600,
      "v": 66
    },
    {
      "midi": 61,
      "hit": false,
      "t": 160080,
      "d": 840,
      "v": 71
    },
    {
      "midi": 66,
      "hit": false,
      "t": 160080,
      "d": 840,
      "v": 85
    },
    {
      "midi": 71,
      "hit": false,
      "t": 160080,
      "d": 960,
      "v": 80
    },
    {
      "midi": 86,
      "hit": false,
      "t": 160320,
      "d": 124,
      "v": 74
    },
    {
      "midi": 74,
      "hit": false,
      "t": 160320,
      "d": 144,
      "v": 74
    },
    {
      "midi": 90,
      "hit": false,
      "t": 160560,
      "d": 104,
      "v": 74
    },
    {
      "midi": 78,
      "hit": false,
      "t": 160560,
      "d": 140,
      "v": 74
    },
    {
      "midi": 85,
      "hit": false,
      "t": 160800,
      "d": 104,
      "v": 67
    },
    {
      "midi": 73,
      "hit": false,
      "t": 160800,
      "d": 108,
      "v": 72
    },
    {
      "midi": 59,
      "hit": false,
      "t": 161280,
      "d": 1560,
      "v": 62
    },
    {
      "midi": 63,
      "hit": false,
      "t": 161280,
      "d": 1560,
      "v": 78
    },
    {
      "midi": 49,
      "hit": false,
      "t": 161280,
      "d": 1920,
      "v": 58
    },
    {
      "midi": 52,
      "hit": false,
      "t": 161280,
      "d": 1920,
      "v": 80
    },
    {
      "midi": 56,
      "hit": false,
      "t": 161280,
      "d": 1920,
      "v": 71
    },
    {
      "midi": 66,
      "hit": false,
      "t": 161280,
      "d": 1920,
      "v": 85
    },
    {
      "midi": 54,
      "hit": false,
      "t": 163200,
      "d": 1560,
      "v": 74
    },
    {
      "midi": 58,
      "hit": false,
      "t": 163200,
      "d": 1560,
      "v": 71
    },
    {
      "midi": 62,
      "hit": false,
      "t": 163200,
      "d": 1560,
      "v": 96
    },
    {
      "midi": 66,
      "hit": false,
      "t": 163200,
      "d": 1560,
      "v": 86
    },
    {
      "midi": 69,
      "hit": false,
      "t": 163200,
      "d": 1560,
      "v": 86
    },
    {
      "midi": 57,
      "hit": false,
      "t": 165120,
      "d": 1440,
      "v": 76
    },
    {
      "midi": 59,
      "hit": false,
      "t": 165120,
      "d": 1440,
      "v": 76
    },
    {
      "midi": 62,
      "hit": false,
      "t": 165120,
      "d": 1440,
      "v": 83
    },
    {
      "midi": 66,
      "hit": false,
      "t": 165120,
      "d": 1440,
      "v": 78
    },
    {
      "midi": 66,
      "hit": false,
      "t": 165840,
      "d": 1316,
      "v": 85
    },
    {
      "midi": 78,
      "hit": false,
      "t": 165840,
      "d": 1324,
      "v": 85
    },
    {
      "midi": 57,
      "hit": false,
      "t": 167040,
      "d": 240,
      "v": 66
    },
    {
      "midi": 59,
      "hit": false,
      "t": 167040,
      "d": 240,
      "v": 76
    },
    {
      "midi": 62,
      "hit": false,
      "t": 167040,
      "d": 240,
      "v": 80
    },
    {
      "midi": 66,
      "hit": false,
      "t": 167040,
      "d": 240,
      "v": 71
    },
    {
      "midi": 56,
      "hit": false,
      "t": 167760,
      "d": 720,
      "v": 71
    },
    {
      "midi": 59,
      "hit": false,
      "t": 167760,
      "d": 720,
      "v": 83
    },
    {
      "midi": 61,
      "hit": false,
      "t": 167760,
      "d": 720,
      "v": 67
    },
    {
      "midi": 64,
      "hit": false,
      "t": 167760,
      "d": 720,
      "v": 86
    },
    {
      "midi": 57,
      "hit": false,
      "t": 168960,
      "d": 480,
      "v": 78
    },
    {
      "midi": 59,
      "hit": false,
      "t": 168960,
      "d": 480,
      "v": 80
    },
    {
      "midi": 62,
      "hit": false,
      "t": 168960,
      "d": 480,
      "v": 86
    },
    {
      "midi": 66,
      "hit": false,
      "t": 168960,
      "d": 480,
      "v": 78
    },
    {
      "midi": 59,
      "hit": false,
      "t": 169200,
      "d": 548,
      "v": 76
    },
    {
      "midi": 71,
      "hit": false,
      "t": 169200,
      "d": 1892,
      "v": 72
    },
    {
      "midi": 62,
      "hit": false,
      "t": 169440,
      "d": 272,
      "v": 66
    },
    {
      "midi": 74,
      "hit": false,
      "t": 169440,
      "d": 1600,
      "v": 86
    },
    {
      "midi": 78,
      "hit": false,
      "t": 169680,
      "d": 1396,
      "v": 71
    },
    {
      "midi": 66,
      "hit": false,
      "t": 169680,
      "d": 1412,
      "v": 69
    },
    {
      "midi": 59,
      "hit": false,
      "t": 170880,
      "d": 120,
      "v": 80
    },
    {
      "midi": 62,
      "hit": false,
      "t": 170880,
      "d": 120,
      "v": 86
    },
    {
      "midi": 66,
      "hit": false,
      "t": 170880,
      "d": 120,
      "v": 69
    },
    {
      "midi": 69,
      "hit": false,
      "t": 170880,
      "d": 120,
      "v": 86
    },
    {
      "midi": 61,
      "hit": false,
      "t": 171600,
      "d": 240,
      "v": 74
    },
    {
      "midi": 64,
      "hit": false,
      "t": 171600,
      "d": 240,
      "v": 100
    },
    {
      "midi": 68,
      "hit": false,
      "t": 171600,
      "d": 240,
      "v": 78
    },
    {
      "midi": 71,
      "hit": false,
      "t": 171600,
      "d": 360,
      "v": 86
    },
    {
      "midi": 62,
      "hit": false,
      "t": 172800,
      "d": 1320,
      "v": 80
    },
    {
      "midi": 66,
      "hit": false,
      "t": 172800,
      "d": 1320,
      "v": 71
    },
    {
      "midi": 69,
      "hit": false,
      "t": 172800,
      "d": 1320,
      "v": 80
    },
    {
      "midi": 73,
      "hit": false,
      "t": 172800,
      "d": 1320,
      "v": 71
    },
    {
      "midi": 59,
      "hit": false,
      "t": 173040,
      "d": 1716,
      "v": 74
    },
    {
      "midi": 71,
      "hit": false,
      "t": 173040,
      "d": 1768,
      "v": 72
    },
    {
      "midi": 74,
      "hit": false,
      "t": 173280,
      "d": 1504,
      "v": 80
    },
    {
      "midi": 66,
      "hit": false,
      "t": 173280,
      "d": 1508,
      "v": 66
    },
    {
      "midi": 78,
      "hit": false,
      "t": 173520,
      "d": 1216,
      "v": 85
    },
    {
      "midi": 62,
      "hit": false,
      "t": 174720,
      "d": 120,
      "v": 89
    },
    {
      "midi": 66,
      "hit": false,
      "t": 174720,
      "d": 120,
      "v": 74
    },
    {
      "midi": 69,
      "hit": false,
      "t": 174720,
      "d": 120,
      "v": 83
    },
    {
      "midi": 73,
      "hit": false,
      "t": 174720,
      "d": 120,
      "v": 69
    },
    {
      "midi": 61,
      "hit": false,
      "t": 175440,
      "d": 360,
      "v": 69
    },
    {
      "midi": 64,
      "hit": false,
      "t": 175440,
      "d": 360,
      "v": 86
    },
    {
      "midi": 68,
      "hit": false,
      "t": 175440,
      "d": 360,
      "v": 69
    },
    {
      "midi": 71,
      "hit": false,
      "t": 175440,
      "d": 360,
      "v": 80
    },
    {
      "midi": 69,
      "hit": false,
      "t": 176640,
      "d": 960,
      "v": 83
    },
    {
      "midi": 62,
      "hit": false,
      "t": 176640,
      "d": 1080,
      "v": 89
    },
    {
      "midi": 66,
      "hit": false,
      "t": 176640,
      "d": 1080,
      "v": 78
    },
    {
      "midi": 73,
      "hit": false,
      "t": 176640,
      "d": 1080,
      "v": 78
    },
    {
      "midi": 59,
      "hit": false,
      "t": 176880,
      "d": 1776,
      "v": 74
    },
    {
      "midi": 71,
      "hit": false,
      "t": 176880,
      "d": 1804,
      "v": 76
    },
    {
      "midi": 66,
      "hit": false,
      "t": 177120,
      "d": 1564,
      "v": 71
    },
    {
      "midi": 74,
      "hit": false,
      "t": 177120,
      "d": 1564,
      "v": 80
    },
    {
      "midi": 78,
      "hit": false,
      "t": 177480,
      "d": 1248,
      "v": 85
    },
    {
      "midi": 62,
      "hit": false,
      "t": 178560,
      "d": 120,
      "v": 80
    },
    {
      "midi": 66,
      "hit": false,
      "t": 178560,
      "d": 120,
      "v": 71
    },
    {
      "midi": 69,
      "hit": false,
      "t": 178560,
      "d": 120,
      "v": 76
    },
    {
      "midi": 73,
      "hit": false,
      "t": 178560,
      "d": 120,
      "v": 69
    },
    {
      "midi": 71,
      "hit": false,
      "t": 179280,
      "d": 1132,
      "v": 83
    },
    {
      "midi": 76,
      "hit": false,
      "t": 179280,
      "d": 1140,
      "v": 89
    },
    {
      "midi": 67,
      "hit": false,
      "t": 179280,
      "d": 1144,
      "v": 83
    },
    {
      "midi": 60,
      "hit": false,
      "t": 179280,
      "d": 1192,
      "v": 74
    },
    {
      "midi": 64,
      "hit": false,
      "t": 179280,
      "d": 1208,
      "v": 74
    },
    {
      "midi": 62,
      "hit": false,
      "t": 180480,
      "d": 1124,
      "v": 92
    },
    {
      "midi": 59,
      "hit": false,
      "t": 180480,
      "d": 1144,
      "v": 78
    },
    {
      "midi": 66,
      "hit": false,
      "t": 180480,
      "d": 1164,
      "v": 74
    },
    {
      "midi": 69,
      "hit": false,
      "t": 180480,
      "d": 1164,
      "v": 74
    },
    {
      "midi": 73,
      "hit": false,
      "t": 180480,
      "d": 1164,
      "v": 74
    },
    {
      "midi": 57,
      "hit": false,
      "t": 180480,
      "d": 1168,
      "v": 54
    },
    {
      "midi": 47,
      "hit": false,
      "t": 180480,
      "d": 2760,
      "v": 78
    },
    {
      "midi": 78,
      "hit": false,
      "t": 180480,
      "d": 1352,
      "v": 90
    },
    {
      "midi": 83,
      "hit": false,
      "t": 181864,
      "d": 264,
      "v": 90
    },
    {
      "midi": 85,
      "hit": false,
      "t": 182176,
      "d": 220,
      "v": 91
    },
    {
      "midi": 69,
      "hit": false,
      "t": 182400,
      "d": 84,
      "v": 92
    },
    {
      "midi": 85,
      "hit": false,
      "t": 182472,
      "d": 108,
      "v": 96
    },
    {
      "midi": 86,
      "hit": false,
      "t": 182476,
      "d": 300,
      "v": 96
    },
    {
      "midi": 71,
      "hit": false,
      "t": 182640,
      "d": 224,
      "v": 71
    },
    {
      "midi": 85,
      "hit": false,
      "t": 182812,
      "d": 308,
      "v": 97
    },
    {
      "midi": 73,
      "hit": false,
      "t": 182880,
      "d": 260,
      "v": 74
    },
    {
      "midi": 74,
      "hit": false,
      "t": 183120,
      "d": 472,
      "v": 83
    },
    {
      "midi": 83,
      "hit": false,
      "t": 183148,
      "d": 396,
      "v": 92
    },
    {
      "midi": 78,
      "hit": false,
      "t": 183580,
      "d": 464,
      "v": 92
    },
    {
      "midi": 73,
      "hit": false,
      "t": 183600,
      "d": 268,
      "v": 78
    },
    {
      "midi": 71,
      "hit": false,
      "t": 183840,
      "d": 68,
      "v": 86
    },
    {
      "midi": 80,
      "hit": false,
      "t": 184020,
      "d": 116,
      "v": 91
    },
    {
      "midi": 81,
      "hit": false,
      "t": 184096,
      "d": 2576,
      "v": 91
    },
    {
      "midi": 81,
      "hit": false,
      "t": 184304,
      "d": 1480,
      "v": 89
    },
    {
      "midi": 47,
      "hit": false,
      "t": 184320,
      "d": 1000,
      "v": 92
    },
    {
      "midi": 78,
      "hit": false,
      "t": 184320,
      "d": 1504,
      "v": 71
    },
    {
      "midi": 76,
      "hit": false,
      "t": 184320,
      "d": 1512,
      "v": 86
    },
    {
      "midi": 73,
      "hit": false,
      "t": 184320,
      "d": 1544,
      "v": 67
    },
    {
      "midi": 69,
      "hit": false,
      "t": 184320,
      "d": 1588,
      "v": 70
    },
    {
      "midi": 76,
      "hit": false,
      "t": 184320,
      "d": 1244,
      "v": 68
    },
    {
      "midi": 80,
      "hit": false,
      "t": 184320,
      "d": 1244,
      "v": 57
    },
    {
      "midi": 83,
      "hit": false,
      "t": 184320,
      "d": 1252,
      "v": 78
    },
    {
      "midi": 73,
      "hit": false,
      "t": 184320,
      "d": 1324,
      "v": 60
    },
    {
      "midi": 57,
      "hit": false,
      "t": 184328,
      "d": 1068,
      "v": 92
    },
    {
      "midi": 61,
      "hit": false,
      "t": 184336,
      "d": 988,
      "v": 92
    },
    {
      "midi": 66,
      "hit": false,
      "t": 184348,
      "d": 952,
      "v": 92
    },
    {
      "midi": 57,
      "hit": false,
      "t": 186240,
      "d": 1676,
      "v": 83
    },
    {
      "midi": 59,
      "hit": false,
      "t": 186240,
      "d": 1676,
      "v": 86
    },
    {
      "midi": 61,
      "hit": false,
      "t": 186240,
      "d": 1676,
      "v": 85
    },
    {
      "midi": 65,
      "hit": false,
      "t": 186240,
      "d": 1676,
      "v": 92
    },
    {
      "midi": 77,
      "hit": false,
      "t": 186240,
      "d": 1676,
      "v": 92
    },
    {
      "midi": 83,
      "hit": false,
      "t": 187056,
      "d": 104,
      "v": 91
    },
    {
      "midi": 84,
      "hit": false,
      "t": 187080,
      "d": 388,
      "v": 91
    },
    {
      "midi": 83,
      "hit": false,
      "t": 187440,
      "d": 252,
      "v": 91
    },
    {
      "midi": 81,
      "hit": false,
      "t": 187680,
      "d": 236,
      "v": 91
    },
    {
      "midi": 79,
      "hit": false,
      "t": 187936,
      "d": 252,
      "v": 91
    },
    {
      "midi": 59,
      "hit": false,
      "t": 188048,
      "d": 136,
      "v": 68
    },
    {
      "midi": 55,
      "hit": false,
      "t": 188068,
      "d": 188,
      "v": 68
    },
    {
      "midi": 52,
      "hit": false,
      "t": 188080,
      "d": 196,
      "v": 62
    },
    {
      "midi": 62,
      "hit": false,
      "t": 188112,
      "d": 124,
      "v": 76
    },
    {
      "midi": 77,
      "hit": false,
      "t": 188160,
      "d": 132,
      "v": 74
    },
    {
      "midi": 66,
      "hit": false,
      "t": 188168,
      "d": 92,
      "v": 63
    },
    {
      "midi": 71,
      "hit": false,
      "t": 188212,
      "d": 100,
      "v": 86
    },
    {
      "midi": 78,
      "hit": false,
      "t": 188280,
      "d": 640,
      "v": 74
    },
    {
      "midi": 77,
      "hit": false,
      "t": 188840,
      "d": 116,
      "v": 93
    },
    {
      "midi": 76,
      "hit": false,
      "t": 188964,
      "d": 2108,
      "v": 93
    },
    {
      "midi": 86,
      "hit": false,
      "t": 189796,
      "d": 1312,
      "v": 79
    },
    {
      "midi": 83,
      "hit": false,
      "t": 189824,
      "d": 1268,
      "v": 79
    },
    {
      "midi": 81,
      "hit": false,
      "t": 189920,
      "d": 1176,
      "v": 81
    },
    {
      "midi": 79,
      "hit": false,
      "t": 189996,
      "d": 1112,
      "v": 82
    },
    {
      "midi": 78,
      "hit": false,
      "t": 190080,
      "d": 892,
      "v": 83
    },
    {
      "midi": 76,
      "hit": false,
      "t": 191232,
      "d": 252,
      "v": 94
    },
    {
      "midi": 83,
      "hit": false,
      "t": 191520,
      "d": 188,
      "v": 94
    },
    {
      "midi": 85,
      "hit": false,
      "t": 191728,
      "d": 316,
      "v": 94
    },
    {
      "midi": 59,
      "hit": false,
      "t": 192000,
      "d": 1116,
      "v": 90
    },
    {
      "midi": 56,
      "hit": false,
      "t": 192000,
      "d": 1144,
      "v": 90
    },
    {
      "midi": 71,
      "hit": false,
      "t": 192000,
      "d": 1236,
      "v": 90
    },
    {
      "midi": 66,
      "hit": false,
      "t": 192000,
      "d": 1252,
      "v": 90
    },
    {
      "midi": 62,
      "hit": false,
      "t": 192000,
      "d": 1324,
      "v": 90
    },
    {
      "midi": 86,
      "hit": false,
      "t": 192000,
      "d": 1352,
      "v": 94
    },
    {
      "midi": 85,
      "hit": false,
      "t": 193364,
      "d": 476,
      "v": 86
    },
    {
      "midi": 87,
      "hit": false,
      "t": 193804,
      "d": 152,
      "v": 94
    },
    {
      "midi": 64,
      "hit": false,
      "t": 193920,
      "d": 1324,
      "v": 78
    },
    {
      "midi": 68,
      "hit": false,
      "t": 193920,
      "d": 1324,
      "v": 78
    },
    {
      "midi": 65,
      "hit": false,
      "t": 193920,
      "d": 1352,
      "v": 86
    },
    {
      "midi": 71,
      "hit": false,
      "t": 193920,
      "d": 1372,
      "v": 89
    },
    {
      "midi": 88,
      "hit": false,
      "t": 193920,
      "d": 1324,
      "v": 93
    },
    {
      "midi": 87,
      "hit": false,
      "t": 195200,
      "d": 412,
      "v": 92
    },
    {
      "midi": 84,
      "hit": false,
      "t": 195636,
      "d": 116,
      "v": 92
    },
    {
      "midi": 85,
      "hit": false,
      "t": 195696,
      "d": 140,
      "v": 92
    },
    {
      "midi": 61,
      "hit": false,
      "t": 195840,
      "d": 960,
      "v": 71
    },
    {
      "midi": 64,
      "hit": false,
      "t": 195840,
      "d": 960,
      "v": 71
    },
    {
      "midi": 66,
      "hit": false,
      "t": 195840,
      "d": 976,
      "v": 78
    },
    {
      "midi": 71,
      "hit": false,
      "t": 195840,
      "d": 1004,
      "v": 83
    },
    {
      "midi": 86,
      "hit": false,
      "t": 195840,
      "d": 1028,
      "v": 92
    },
    {
      "midi": 85,
      "hit": false,
      "t": 196800,
      "d": 1804,
      "v": 108
    },
    {
      "midi": 74,
      "hit": false,
      "t": 197760,
      "d": 1240,
      "v": 88
    },
    {
      "midi": 78,
      "hit": false,
      "t": 197760,
      "d": 1240,
      "v": 88
    },
    {
      "midi": 70,
      "hit": false,
      "t": 197760,
      "d": 1256,
      "v": 88
    },
    {
      "midi": 66,
      "hit": false,
      "t": 197760,
      "d": 1336,
      "v": 88
    },
    {
      "midi": 54,
      "hit": false,
      "t": 197760,
      "d": 1344,
      "v": 88
    },
    {
      "midi": 77,
      "hit": false,
      "t": 198980,
      "d": 104,
      "v": 93
    },
    {
      "midi": 78,
      "hit": false,
      "t": 199044,
      "d": 188,
      "v": 93
    },
    {
      "midi": 78,
      "hit": false,
      "t": 199340,
      "d": 128,
      "v": 93
    },
    {
      "midi": 79,
      "hit": false,
      "t": 199432,
      "d": 236,
      "v": 94
    },
    {
      "midi": 62,
      "hit": false,
      "t": 199680,
      "d": 936,
      "v": 83
    },
    {
      "midi": 61,
      "hit": false,
      "t": 199680,
      "d": 964,
      "v": 74
    },
    {
      "midi": 66,
      "hit": false,
      "t": 199680,
      "d": 964,
      "v": 71
    },
    {
      "midi": 59,
      "hit": false,
      "t": 199680,
      "d": 1044,
      "v": 55
    },
    {
      "midi": 54,
      "hit": false,
      "t": 199680,
      "d": 1596,
      "v": 64
    },
    {
      "midi": 47,
      "hit": false,
      "t": 199680,
      "d": 3412,
      "v": 68
    },
    {
      "midi": 78,
      "hit": false,
      "t": 199680,
      "d": 1364,
      "v": 95
    },
    {
      "midi": 83,
      "hit": false,
      "t": 201120,
      "d": 216,
      "v": 97
    },
    {
      "midi": 85,
      "hit": false,
      "t": 201352,
      "d": 320,
      "v": 97
    },
    {
      "midi": 81,
      "hit": false,
      "t": 201600,
      "d": 124,
      "v": 90
    },
    {
      "midi": 86,
      "hit": false,
      "t": 201600,
      "d": 284,
      "v": 97
    },
    {
      "midi": 78,
      "hit": false,
      "t": 201840,
      "d": 112,
      "v": 91
    },
    {
      "midi": 66,
      "hit": false,
      "t": 201840,
      "d": 228,
      "v": 85
    },
    {
      "midi": 85,
      "hit": false,
      "t": 201960,
      "d": 364,
      "v": 97
    },
    {
      "midi": 69,
      "hit": false,
      "t": 202080,
      "d": 232,
      "v": 78
    },
    {
      "midi": 74,
      "hit": false,
      "t": 202320,
      "d": 80,
      "v": 89
    },
    {
      "midi": 71,
      "hit": false,
      "t": 202320,
      "d": 204,
      "v": 86
    },
    {
      "midi": 83,
      "hit": false,
      "t": 202320,
      "d": 424,
      "v": 90
    },
    {
      "midi": 73,
      "hit": false,
      "t": 202560,
      "d": 220,
      "v": 67
    },
    {
      "midi": 78,
      "hit": false,
      "t": 202768,
      "d": 468,
      "v": 90
    },
    {
      "midi": 69,
      "hit": false,
      "t": 202800,
      "d": 160,
      "v": 86
    },
    {
      "midi": 66,
      "hit": false,
      "t": 203040,
      "d": 72,
      "v": 85
    },
    {
      "midi": 80,
      "hit": false,
      "t": 203228,
      "d": 120,
      "v": 91
    },
    {
      "midi": 81,
      "hit": false,
      "t": 203320,
      "d": 2708,
      "v": 91
    },
    {
      "midi": 61,
      "hit": false,
      "t": 203520,
      "d": 1376,
      "v": 91
    },
    {
      "midi": 64,
      "hit": false,
      "t": 203520,
      "d": 1376,
      "v": 91
    },
    {
      "midi": 68,
      "hit": false,
      "t": 203520,
      "d": 1376,
      "v": 91
    },
    {
      "midi": 71,
      "hit": false,
      "t": 203520,
      "d": 1388,
      "v": 91
    },
    {
      "midi": 57,
      "hit": false,
      "t": 205440,
      "d": 3544,
      "v": 55
    },
    {
      "midi": 63,
      "hit": false,
      "t": 205440,
      "d": 3584,
      "v": 66
    },
    {
      "midi": 68,
      "hit": false,
      "t": 205440,
      "d": 3592,
      "v": 74
    },
    {
      "midi": 72,
      "hit": false,
      "t": 205440,
      "d": 3600,
      "v": 86
    },
    {
      "midi": 47,
      "hit": false,
      "t": 205440,
      "d": 3624,
      "v": 49
    },
    {
      "midi": 83,
      "hit": false,
      "t": 206124,
      "d": 116,
      "v": 93
    },
    {
      "midi": 84,
      "hit": false,
      "t": 206160,
      "d": 476,
      "v": 93
    },
    {
      "midi": 83,
      "hit": false,
      "t": 206640,
      "d": 276,
      "v": 94
    },
    {
      "midi": 81,
      "hit": false,
      "t": 206880,
      "d": 224,
      "v": 94
    },
    {
      "midi": 79,
      "hit": false,
      "t": 207104,
      "d": 180,
      "v": 94
    },
    {
      "midi": 77,
      "hit": false,
      "t": 207336,
      "d": 140,
      "v": 94
    },
    {
      "midi": 52,
      "hit": false,
      "t": 207360,
      "d": 1768,
      "v": 44
    },
    {
      "midi": 78,
      "hit": false,
      "t": 207360,
      "d": 612,
      "v": 94
    },
    {
      "midi": 55,
      "hit": false,
      "t": 207364,
      "d": 1736,
      "v": 68
    },
    {
      "midi": 59,
      "hit": false,
      "t": 207368,
      "d": 1696,
      "v": 68
    },
    {
      "midi": 62,
      "hit": false,
      "t": 207372,
      "d": 1732,
      "v": 70
    },
    {
      "midi": 67,
      "hit": false,
      "t": 207376,
      "d": 1720,
      "v": 62
    },
    {
      "midi": 71,
      "hit": false,
      "t": 207380,
      "d": 1716,
      "v": 66
    },
    {
      "midi": 74,
      "hit": false,
      "t": 207388,
      "d": 1668,
      "v": 70
    },
    {
      "midi": 78,
      "hit": false,
      "t": 207396,
      "d": 1672,
      "v": 78
    },
    {
      "midi": 77,
      "hit": false,
      "t": 207988,
      "d": 108,
      "v": 93
    },
    {
      "midi": 76,
      "hit": false,
      "t": 208104,
      "d": 1388,
      "v": 93
    },
    {
      "midi": 86,
      "hit": false,
      "t": 208996,
      "d": 1312,
      "v": 79
    },
    {
      "midi": 83,
      "hit": false,
      "t": 209024,
      "d": 1268,
      "v": 79
    },
    {
      "midi": 81,
      "hit": false,
      "t": 209120,
      "d": 1176,
      "v": 81
    },
    {
      "midi": 79,
      "hit": false,
      "t": 209196,
      "d": 1112,
      "v": 82
    },
    {
      "midi": 78,
      "hit": false,
      "t": 209280,
      "d": 892,
      "v": 83
    },
    {
      "midi": 83,
      "hit": false,
      "t": 209520,
      "d": 96,
      "v": 111
    },
    {
      "midi": 83,
      "hit": false,
      "t": 209760,
      "d": 100,
      "v": 114
    },
    {
      "midi": 83,
      "hit": false,
      "t": 210000,
      "d": 104,
      "v": 108
    },
    {
      "midi": 83,
      "hit": false,
      "t": 210240,
      "d": 104,
      "v": 108
    },
    {
      "midi": 83,
      "hit": false,
      "t": 210480,
      "d": 108,
      "v": 108
    },
    {
      "midi": 83,
      "hit": false,
      "t": 210720,
      "d": 176,
      "v": 108
    },
    {
      "midi": 85,
      "hit": false,
      "t": 210960,
      "d": 200,
      "v": 89
    },
    {
      "midi": 59,
      "hit": false,
      "t": 211200,
      "d": 1116,
      "v": 90
    },
    {
      "midi": 56,
      "hit": false,
      "t": 211200,
      "d": 1144,
      "v": 90
    },
    {
      "midi": 71,
      "hit": false,
      "t": 211200,
      "d": 1236,
      "v": 90
    },
    {
      "midi": 66,
      "hit": false,
      "t": 211200,
      "d": 1252,
      "v": 90
    },
    {
      "midi": 62,
      "hit": false,
      "t": 211200,
      "d": 1324,
      "v": 90
    },
    {
      "midi": 86,
      "hit": false,
      "t": 211200,
      "d": 224,
      "v": 89
    },
    {
      "midi": 85,
      "hit": false,
      "t": 211464,
      "d": 696,
      "v": 89
    },
    {
      "midi": 80,
      "hit": false,
      "t": 212160,
      "d": 1204,
      "v": 89
    },
    {
      "midi": 64,
      "hit": false,
      "t": 213120,
      "d": 1324,
      "v": 78
    },
    {
      "midi": 68,
      "hit": false,
      "t": 213120,
      "d": 1324,
      "v": 78
    },
    {
      "midi": 65,
      "hit": false,
      "t": 213120,
      "d": 1352,
      "v": 86
    },
    {
      "midi": 71,
      "hit": false,
      "t": 213120,
      "d": 1372,
      "v": 89
    },
    {
      "midi": 87,
      "hit": false,
      "t": 213880,
      "d": 84,
      "v": 94
    },
    {
      "midi": 88,
      "hit": false,
      "t": 213904,
      "d": 308,
      "v": 94
    },
    {
      "midi": 87,
      "hit": false,
      "t": 214336,
      "d": 316,
      "v": 95
    },
    {
      "midi": 80,
      "hit": false,
      "t": 214752,
      "d": 240,
      "v": 96
    },
    {
      "midi": 61,
      "hit": false,
      "t": 215040,
      "d": 960,
      "v": 71
    },
    {
      "midi": 64,
      "hit": false,
      "t": 215040,
      "d": 960,
      "v": 71
    },
    {
      "midi": 66,
      "hit": false,
      "t": 215040,
      "d": 976,
      "v": 78
    },
    {
      "midi": 71,
      "hit": false,
      "t": 215040,
      "d": 1004,
      "v": 83
    },
    {
      "midi": 85,
      "hit": false,
      "t": 215040,
      "d": 100,
      "v": 98
    },
    {
      "midi": 86,
      "hit": false,
      "t": 215076,
      "d": 252,
      "v": 98
    },
    {
      "midi": 85,
      "hit": false,
      "t": 215324,
      "d": 2060,
      "v": 104
    },
    {
      "midi": 70,
      "hit": false,
      "t": 216960,
      "d": 1516,
      "v": 88
    },
    {
      "midi": 54,
      "hit": false,
      "t": 216960,
      "d": 1596,
      "v": 88
    },
    {
      "midi": 66,
      "hit": false,
      "t": 216960,
      "d": 1596,
      "v": 88
    },
    {
      "midi": 74,
      "hit": false,
      "t": 216960,
      "d": 1596,
      "v": 88
    },
    {
      "midi": 78,
      "hit": false,
      "t": 216960,
      "d": 1596,
      "v": 88
    },
    {
      "midi": 57,
      "hit": false,
      "t": 218880,
      "d": 596,
      "v": 86
    },
    {
      "midi": 61,
      "hit": false,
      "t": 218880,
      "d": 596,
      "v": 78
    },
    {
      "midi": 66,
      "hit": false,
      "t": 218880,
      "d": 596,
      "v": 85
    },
    {
      "midi": 47,
      "hit": false,
      "t": 218880,
      "d": 1556,
      "v": 78
    },
    {
      "midi": 69,
      "hit": false,
      "t": 218888,
      "d": 596,
      "v": 78
    },
    {
      "midi": 73,
      "hit": false,
      "t": 218900,
      "d": 596,
      "v": 78
    },
    {
      "midi": 76,
      "hit": false,
      "t": 218912,
      "d": 596,
      "v": 78
    },
    {
      "midi": 61,
      "hit": false,
      "t": 219600,
      "d": 592,
      "v": 85
    },
    {
      "midi": 66,
      "hit": false,
      "t": 219600,
      "d": 604,
      "v": 93
    },
    {
      "midi": 57,
      "hit": false,
      "t": 219600,
      "d": 620,
      "v": 74
    },
    {
      "midi": 78,
      "hit": false,
      "t": 219684,
      "d": 44,
      "v": 58
    },
    {
      "midi": 80,
      "hit": false,
      "t": 219736,
      "d": 44,
      "v": 73
    },
    {
      "midi": 82,
      "hit": false,
      "t": 219780,
      "d": 36,
      "v": 77
    },
    {
      "midi": 85,
      "hit": false,
      "t": 219824,
      "d": 40,
      "v": 84
    },
    {
      "midi": 87,
      "hit": false,
      "t": 219864,
      "d": 24,
      "v": 88
    },
    {
      "midi": 90,
      "hit": false,
      "t": 219904,
      "d": 16,
      "v": 94
    },
    {
      "midi": 66,
      "hit": false,
      "t": 220320,
      "d": 120,
      "v": 93
    },
    {
      "midi": 61,
      "hit": false,
      "t": 220320,
      "d": 148,
      "v": 93
    },
    {
      "midi": 57,
      "hit": false,
      "t": 220320,
      "d": 160,
      "v": 72
    },
    {
      "midi": 61,
      "hit": false,
      "t": 220800,
      "d": 368,
      "v": 98
    },
    {
      "midi": 57,
      "hit": false,
      "t": 220800,
      "d": 384,
      "v": 99
    },
    {
      "midi": 64,
      "hit": false,
      "t": 220800,
      "d": 384,
      "v": 98
    },
    {
      "midi": 47,
      "hit": false,
      "t": 220800,
      "d": 396,
      "v": 95
    },
    {
      "midi": 63,
      "hit": false,
      "t": 221760,
      "d": 424,
      "v": 93
    },
    {
      "midi": 61,
      "hit": false,
      "t": 221760,
      "d": 428,
      "v": 85
    },
    {
      "midi": 57,
      "hit": false,
      "t": 221760,
      "d": 436,
      "v": 80
    },
    {
      "midi": 47,
      "hit": false,
      "t": 221760,
      "d": 504,
      "v": 78
    },
    {
      "midi": 62,
      "hit": false,
      "t": 222720,
      "d": 1800,
      "v": 80
    },
    {
      "midi": 66,
      "hit": false,
      "t": 222720,
      "d": 1800,
      "v": 85
    },
    {
      "midi": 71,
      "hit": false,
      "t": 222720,
      "d": 1800,
      "v": 80
    },
    {
      "midi": 52,
      "hit": false,
      "t": 222720,
      "d": 1920,
      "v": 63
    },
    {
      "midi": 55,
      "hit": false,
      "t": 222720,
      "d": 1920,
      "v": 72
    },
    {
      "midi": 59,
      "hit": false,
      "t": 222720,
      "d": 1920,
      "v": 65
    },
    {
      "midi": 74,
      "hit": false,
      "t": 222720,
      "d": 1012,
      "v": 89
    },
    {
      "midi": 86,
      "hit": false,
      "t": 222720,
      "d": 1048,
      "v": 92
    },
    {
      "midi": 90,
      "hit": false,
      "t": 223200,
      "d": 92,
      "v": 89
    },
    {
      "midi": 78,
      "hit": false,
      "t": 223200,
      "d": 112,
      "v": 89
    },
    {
      "midi": 95,
      "hit": false,
      "t": 223440,
      "d": 112,
      "v": 86
    },
    {
      "midi": 83,
      "hit": false,
      "t": 223440,
      "d": 132,
      "v": 92
    },
    {
      "midi": 74,
      "hit": false,
      "t": 223920,
      "d": 236,
      "v": 76
    },
    {
      "midi": 86,
      "hit": false,
      "t": 223920,
      "d": 236,
      "v": 86
    },
    {
      "midi": 85,
      "hit": false,
      "t": 224400,
      "d": 76,
      "v": 58
    },
    {
      "midi": 73,
      "hit": false,
      "t": 224400,
      "d": 156,
      "v": 67
    },
    {
      "midi": 85,
      "hit": false,
      "t": 224400,
      "d": 292,
      "v": 81
    },
    {
      "midi": 73,
      "hit": false,
      "t": 224400,
      "d": 320,
      "v": 81
    },
    {
      "midi": 55,
      "hit": false,
      "t": 224880,
      "d": 120,
      "v": 61
    },
    {
      "midi": 57,
      "hit": false,
      "t": 224880,
      "d": 120,
      "v": 68
    },
    {
      "midi": 61,
      "hit": false,
      "t": 224880,
      "d": 120,
      "v": 66
    },
    {
      "midi": 66,
      "hit": false,
      "t": 224880,
      "d": 120,
      "v": 74
    },
    {
      "midi": 71,
      "hit": false,
      "t": 224880,
      "d": 120,
      "v": 74
    },
    {
      "midi": 90,
      "hit": false,
      "t": 224880,
      "d": 96,
      "v": 78
    },
    {
      "midi": 78,
      "hit": false,
      "t": 224880,
      "d": 136,
      "v": 78
    },
    {
      "midi": 85,
      "hit": false,
      "t": 225120,
      "d": 76,
      "v": 78
    },
    {
      "midi": 73,
      "hit": false,
      "t": 225120,
      "d": 112,
      "v": 78
    },
    {
      "midi": 55,
      "hit": false,
      "t": 225360,
      "d": 1080,
      "v": 70
    },
    {
      "midi": 57,
      "hit": false,
      "t": 225360,
      "d": 1080,
      "v": 74
    },
    {
      "midi": 61,
      "hit": false,
      "t": 225360,
      "d": 1080,
      "v": 66
    },
    {
      "midi": 66,
      "hit": false,
      "t": 225360,
      "d": 1080,
      "v": 74
    },
    {
      "midi": 71,
      "hit": false,
      "t": 225360,
      "d": 1080,
      "v": 78
    },
    {
      "midi": 86,
      "hit": false,
      "t": 225600,
      "d": 124,
      "v": 74
    },
    {
      "midi": 74,
      "hit": false,
      "t": 225600,
      "d": 144,
      "v": 74
    },
    {
      "midi": 90,
      "hit": false,
      "t": 225840,
      "d": 104,
      "v": 74
    },
    {
      "midi": 78,
      "hit": false,
      "t": 225840,
      "d": 140,
      "v": 74
    },
    {
      "midi": 85,
      "hit": false,
      "t": 226080,
      "d": 104,
      "v": 67
    },
    {
      "midi": 73,
      "hit": false,
      "t": 226080,
      "d": 108,
      "v": 72
    },
    {
      "midi": 67,
      "hit": false,
      "t": 226080,
      "d": 84,
      "v": 76
    },
    {
      "midi": 71,
      "hit": false,
      "t": 226080,
      "d": 84,
      "v": 80
    },
    {
      "midi": 76,
      "hit": false,
      "t": 226080,
      "d": 124,
      "v": 92
    },
    {
      "midi": 62,
      "hit": false,
      "t": 226560,
      "d": 1800,
      "v": 80
    },
    {
      "midi": 52,
      "hit": false,
      "t": 226560,
      "d": 1920,
      "v": 68
    },
    {
      "midi": 55,
      "hit": false,
      "t": 226560,
      "d": 1920,
      "v": 70
    },
    {
      "midi": 66,
      "hit": false,
      "t": 226560,
      "d": 1920,
      "v": 67
    },
    {
      "midi": 71,
      "hit": false,
      "t": 226560,
      "d": 1920,
      "v": 76
    },
    {
      "midi": 59,
      "hit": false,
      "t": 226560,
      "d": 2040,
      "v": 70
    },
    {
      "midi": 86,
      "hit": false,
      "t": 226560,
      "d": 132,
      "v": 96
    },
    {
      "midi": 74,
      "hit": false,
      "t": 226560,
      "d": 156,
      "v": 92
    },
    {
      "midi": 67,
      "hit": false,
      "t": 226560,
      "d": 92,
      "v": 78
    },
    {
      "midi": 71,
      "hit": false,
      "t": 226560,
      "d": 128,
      "v": 80
    },
    {
      "midi": 74,
      "hit": false,
      "t": 226560,
      "d": 132,
      "v": 89
    },
    {
      "midi": 90,
      "hit": false,
      "t": 227040,
      "d": 92,
      "v": 89
    },
    {
      "midi": 78,
      "hit": false,
      "t": 227040,
      "d": 112,
      "v": 89
    },
    {
      "midi": 78,
      "hit": false,
      "t": 227040,
      "d": 284,
      "v": 91
    },
    {
      "midi": 74,
      "hit": false,
      "t": 227040,
      "d": 308,
      "v": 91
    },
    {
      "midi": 71,
      "hit": false,
      "t": 227040,
      "d": 336,
      "v": 91
    },
    {
      "midi": 95,
      "hit": false,
      "t": 227280,
      "d": 112,
      "v": 86
    },
    {
      "midi": 83,
      "hit": false,
      "t": 227280,
      "d": 132,
      "v": 92
    },
    {
      "midi": 74,
      "hit": false,
      "t": 227760,
      "d": 220,
      "v": 76
    },
    {
      "midi": 86,
      "hit": false,
      "t": 227760,
      "d": 236,
      "v": 86
    },
    {
      "midi": 71,
      "hit": false,
      "t": 227760,
      "d": 68,
      "v": 92
    },
    {
      "midi": 74,
      "hit": false,
      "t": 227760,
      "d": 84,
      "v": 100
    },
    {
      "midi": 67,
      "hit": false,
      "t": 227760,
      "d": 92,
      "v": 83
    },
    {
      "midi": 85,
      "hit": false,
      "t": 228240,
      "d": 76,
      "v": 58
    },
    {
      "midi": 73,
      "hit": false,
      "t": 228240,
      "d": 156,
      "v": 67
    },
    {
      "midi": 62,
      "hit": false,
      "t": 228240,
      "d": 1436,
      "v": 83
    },
    {
      "midi": 66,
      "hit": false,
      "t": 228240,
      "d": 1436,
      "v": 83
    },
    {
      "midi": 69,
      "hit": false,
      "t": 228240,
      "d": 1556,
      "v": 83
    },
    {
      "midi": 55,
      "hit": false,
      "t": 228720,
      "d": 120,
      "v": 78
    },
    {
      "midi": 57,
      "hit": false,
      "t": 228720,
      "d": 120,
      "v": 76
    },
    {
      "midi": 61,
      "hit": false,
      "t": 228720,
      "d": 120,
      "v": 74
    },
    {
      "midi": 66,
      "hit": false,
      "t": 228720,
      "d": 120,
      "v": 78
    },
    {
      "midi": 71,
      "hit": false,
      "t": 228720,
      "d": 120,
      "v": 80
    },
    {
      "midi": 90,
      "hit": false,
      "t": 228720,
      "d": 96,
      "v": 78
    },
    {
      "midi": 78,
      "hit": false,
      "t": 228720,
      "d": 136,
      "v": 78
    },
    {
      "midi": 85,
      "hit": false,
      "t": 228960,
      "d": 76,
      "v": 78
    },
    {
      "midi": 73,
      "hit": false,
      "t": 228960,
      "d": 112,
      "v": 78
    },
    {
      "midi": 61,
      "hit": false,
      "t": 229200,
      "d": 960,
      "v": 69
    },
    {
      "midi": 55,
      "hit": false,
      "t": 229200,
      "d": 1080,
      "v": 70
    },
    {
      "midi": 57,
      "hit": false,
      "t": 229200,
      "d": 1080,
      "v": 70
    },
    {
      "midi": 71,
      "hit": false,
      "t": 229200,
      "d": 1080,
      "v": 76
    },
    {
      "midi": 66,
      "hit": false,
      "t": 229200,
      "d": 1200,
      "v": 69
    },
    {
      "midi": 86,
      "hit": false,
      "t": 229440,
      "d": 124,
      "v": 74
    },
    {
      "midi": 74,
      "hit": false,
      "t": 229440,
      "d": 144,
      "v": 74
    },
    {
      "midi": 90,
      "hit": false,
      "t": 229680,
      "d": 104,
      "v": 74
    },
    {
      "midi": 78,
      "hit": false,
      "t": 229680,
      "d": 140,
      "v": 74
    },
    {
      "midi": 70,
      "hit": false,
      "t": 229912,
      "d": 72,
      "v": 55
    },
    {
      "midi": 85,
      "hit": false,
      "t": 229920,
      "d": 104,
      "v": 67
    },
    {
      "midi": 73,
      "hit": false,
      "t": 229920,
      "d": 108,
      "v": 72
    },
    {
      "midi": 67,
      "hit": false,
      "t": 229920,
      "d": 136,
      "v": 58
    },
    {
      "midi": 71,
      "hit": false,
      "t": 229920,
      "d": 140,
      "v": 83
    },
    {
      "midi": 76,
      "hit": false,
      "t": 229920,
      "d": 236,
      "v": 80
    },
    {
      "midi": 62,
      "hit": false,
      "t": 230400,
      "d": 1800,
      "v": 80
    },
    {
      "midi": 66,
      "hit": false,
      "t": 230400,
      "d": 1800,
      "v": 63
    },
    {
      "midi": 52,
      "hit": false,
      "t": 230400,
      "d": 1920,
      "v": 72
    },
    {
      "midi": 55,
      "hit": false,
      "t": 230400,
      "d": 1920,
      "v": 72
    },
    {
      "midi": 59,
      "hit": false,
      "t": 230400,
      "d": 1920,
      "v": 72
    },
    {
      "midi": 71,
      "hit": false,
      "t": 230400,
      "d": 1920,
      "v": 80
    },
    {
      "midi": 86,
      "hit": false,
      "t": 230400,
      "d": 132,
      "v": 96
    },
    {
      "midi": 74,
      "hit": false,
      "t": 230400,
      "d": 156,
      "v": 92
    },
    {
      "midi": 66,
      "hit": false,
      "t": 230400,
      "d": 96,
      "v": 77
    },
    {
      "midi": 71,
      "hit": false,
      "t": 230400,
      "d": 172,
      "v": 77
    },
    {
      "midi": 74,
      "hit": false,
      "t": 230400,
      "d": 172,
      "v": 77
    },
    {
      "midi": 90,
      "hit": false,
      "t": 230880,
      "d": 92,
      "v": 89
    },
    {
      "midi": 78,
      "hit": false,
      "t": 230880,
      "d": 112,
      "v": 89
    },
    {
      "midi": 78,
      "hit": false,
      "t": 230880,
      "d": 292,
      "v": 84
    },
    {
      "midi": 74,
      "hit": false,
      "t": 230880,
      "d": 332,
      "v": 84
    },
    {
      "midi": 71,
      "hit": false,
      "t": 230880,
      "d": 364,
      "v": 84
    },
    {
      "midi": 95,
      "hit": false,
      "t": 231120,
      "d": 112,
      "v": 86
    },
    {
      "midi": 83,
      "hit": false,
      "t": 231120,
      "d": 132,
      "v": 92
    },
    {
      "midi": 66,
      "hit": false,
      "t": 231576,
      "d": 24,
      "v": 66
    },
    {
      "midi": 74,
      "hit": false,
      "t": 231600,
      "d": 236,
      "v": 76
    },
    {
      "midi": 86,
      "hit": false,
      "t": 231600,
      "d": 236,
      "v": 86
    },
    {
      "midi": 62,
      "hit": false,
      "t": 231600,
      "d": 320,
      "v": 79
    },
    {
      "midi": 67,
      "hit": false,
      "t": 231600,
      "d": 376,
      "v": 79
    },
    {
      "midi": 71,
      "hit": false,
      "t": 231600,
      "d": 392,
      "v": 79
    },
    {
      "midi": 85,
      "hit": false,
      "t": 232080,
      "d": 76,
      "v": 58
    },
    {
      "midi": 73,
      "hit": false,
      "t": 232080,
      "d": 156,
      "v": 67
    },
    {
      "midi": 69,
      "hit": false,
      "t": 232080,
      "d": 980,
      "v": 76
    },
    {
      "midi": 66,
      "hit": false,
      "t": 232080,
      "d": 1028,
      "v": 78
    },
    {
      "midi": 61,
      "hit": false,
      "t": 232080,
      "d": 1040,
      "v": 78
    },
    {
      "midi": 55,
      "hit": false,
      "t": 232560,
      "d": 120,
      "v": 70
    },
    {
      "midi": 57,
      "hit": false,
      "t": 232560,
      "d": 120,
      "v": 66
    },
    {
      "midi": 61,
      "hit": false,
      "t": 232560,
      "d": 120,
      "v": 71
    },
    {
      "midi": 66,
      "hit": false,
      "t": 232560,
      "d": 120,
      "v": 78
    },
    {
      "midi": 71,
      "hit": false,
      "t": 232560,
      "d": 120,
      "v": 72
    },
    {
      "midi": 90,
      "hit": false,
      "t": 232560,
      "d": 96,
      "v": 78
    },
    {
      "midi": 78,
      "hit": false,
      "t": 232560,
      "d": 136,
      "v": 78
    },
    {
      "midi": 85,
      "hit": false,
      "t": 232800,
      "d": 76,
      "v": 78
    },
    {
      "midi": 73,
      "hit": false,
      "t": 232800,
      "d": 112,
      "v": 78
    },
    {
      "midi": 55,
      "hit": false,
      "t": 233040,
      "d": 600,
      "v": 70
    },
    {
      "midi": 57,
      "hit": false,
      "t": 233040,
      "d": 600,
      "v": 66
    },
    {
      "midi": 61,
      "hit": false,
      "t": 233040,
      "d": 840,
      "v": 71
    },
    {
      "midi": 66,
      "hit": false,
      "t": 233040,
      "d": 840,
      "v": 85
    },
    {
      "midi": 71,
      "hit": false,
      "t": 233040,
      "d": 960,
      "v": 80
    },
    {
      "midi": 86,
      "hit": false,
      "t": 233280,
      "d": 124,
      "v": 74
    },
    {
      "midi": 74,
      "hit": false,
      "t": 233280,
      "d": 144,
      "v": 74
    },
    {
      "midi": 90,
      "hit": false,
      "t": 233520,
      "d": 104,
      "v": 74
    },
    {
      "midi": 78,
      "hit": false,
      "t": 233520,
      "d": 140,
      "v": 74
    },
    {
      "midi": 85,
      "hit": false,
      "t": 233760,
      "d": 104,
      "v": 67
    },
    {
      "midi": 73,
      "hit": false,
      "t": 233760,
      "d": 108,
      "v": 72
    },
    {
      "midi": 62,
      "hit": false,
      "t": 234240,
      "d": 1800,
      "v": 80
    },
    {
      "midi": 66,
      "hit": false,
      "t": 234240,
      "d": 1800,
      "v": 63
    },
    {
      "midi": 52,
      "hit": false,
      "t": 234240,
      "d": 1920,
      "v": 72
    },
    {
      "midi": 55,
      "hit": false,
      "t": 234240,
      "d": 1920,
      "v": 72
    },
    {
      "midi": 59,
      "hit": false,
      "t": 234240,
      "d": 1920,
      "v": 72
    },
    {
      "midi": 71,
      "hit": false,
      "t": 234240,
      "d": 1920,
      "v": 80
    },
    {
      "midi": 86,
      "hit": false,
      "t": 234240,
      "d": 132,
      "v": 96
    },
    {
      "midi": 74,
      "hit": false,
      "t": 234240,
      "d": 156,
      "v": 92
    },
    {
      "midi": 66,
      "hit": false,
      "t": 234240,
      "d": 96,
      "v": 77
    },
    {
      "midi": 71,
      "hit": false,
      "t": 234240,
      "d": 172,
      "v": 77
    },
    {
      "midi": 74,
      "hit": false,
      "t": 234240,
      "d": 172,
      "v": 77
    },
    {
      "midi": 90,
      "hit": false,
      "t": 234720,
      "d": 92,
      "v": 89
    },
    {
      "midi": 78,
      "hit": false,
      "t": 234720,
      "d": 112,
      "v": 89
    },
    {
      "midi": 78,
      "hit": false,
      "t": 234720,
      "d": 292,
      "v": 84
    },
    {
      "midi": 74,
      "hit": false,
      "t": 234720,
      "d": 332,
      "v": 84
    },
    {
      "midi": 71,
      "hit": false,
      "t": 234720,
      "d": 364,
      "v": 84
    },
    {
      "midi": 95,
      "hit": false,
      "t": 234960,
      "d": 112,
      "v": 86
    },
    {
      "midi": 83,
      "hit": false,
      "t": 234960,
      "d": 132,
      "v": 92
    },
    {
      "midi": 66,
      "hit": false,
      "t": 235416,
      "d": 24,
      "v": 66
    },
    {
      "midi": 74,
      "hit": false,
      "t": 235440,
      "d": 236,
      "v": 76
    },
    {
      "midi": 86,
      "hit": false,
      "t": 235440,
      "d": 236,
      "v": 86
    },
    {
      "midi": 62,
      "hit": false,
      "t": 235440,
      "d": 320,
      "v": 79
    },
    {
      "midi": 67,
      "hit": false,
      "t": 235440,
      "d": 376,
      "v": 79
    },
    {
      "midi": 71,
      "hit": false,
      "t": 235440,
      "d": 392,
      "v": 79
    },
    {
      "midi": 85,
      "hit": false,
      "t": 235920,
      "d": 76,
      "v": 58
    },
    {
      "midi": 73,
      "hit": false,
      "t": 235920,
      "d": 156,
      "v": 67
    },
    {
      "midi": 69,
      "hit": false,
      "t": 235920,
      "d": 980,
      "v": 76
    },
    {
      "midi": 66,
      "hit": false,
      "t": 235920,
      "d": 1028,
      "v": 78
    },
    {
      "midi": 61,
      "hit": false,
      "t": 235920,
      "d": 1040,
      "v": 78
    },
    {
      "midi": 55,
      "hit": false,
      "t": 236400,
      "d": 120,
      "v": 70
    },
    {
      "midi": 57,
      "hit": false,
      "t": 236400,
      "d": 120,
      "v": 66
    },
    {
      "midi": 61,
      "hit": false,
      "t": 236400,
      "d": 120,
      "v": 71
    },
    {
      "midi": 66,
      "hit": false,
      "t": 236400,
      "d": 120,
      "v": 78
    },
    {
      "midi": 71,
      "hit": false,
      "t": 236400,
      "d": 120,
      "v": 72
    },
    {
      "midi": 90,
      "hit": false,
      "t": 236400,
      "d": 96,
      "v": 78
    },
    {
      "midi": 78,
      "hit": false,
      "t": 236400,
      "d": 136,
      "v": 78
    },
    {
      "midi": 85,
      "hit": false,
      "t": 236640,
      "d": 76,
      "v": 78
    },
    {
      "midi": 73,
      "hit": false,
      "t": 236640,
      "d": 112,
      "v": 78
    },
    {
      "midi": 55,
      "hit": false,
      "t": 236880,
      "d": 600,
      "v": 70
    },
    {
      "midi": 57,
      "hit": false,
      "t": 236880,
      "d": 600,
      "v": 66
    },
    {
      "midi": 61,
      "hit": false,
      "t": 236880,
      "d": 840,
      "v": 71
    },
    {
      "midi": 66,
      "hit": false,
      "t": 236880,
      "d": 840,
      "v": 85
    },
    {
      "midi": 71,
      "hit": false,
      "t": 236880,
      "d": 960,
      "v": 80
    },
    {
      "midi": 86,
      "hit": false,
      "t": 237120,
      "d": 124,
      "v": 74
    },
    {
      "midi": 74,
      "hit": false,
      "t": 237120,
      "d": 144,
      "v": 74
    },
    {
      "midi": 90,
      "hit": false,
      "t": 237360,
      "d": 104,
      "v": 74
    },
    {
      "midi": 78,
      "hit": false,
      "t": 237360,
      "d": 140,
      "v": 74
    },
    {
      "midi": 85,
      "hit": false,
      "t": 237600,
      "d": 104,
      "v": 67
    },
    {
      "midi": 73,
      "hit": false,
      "t": 237600,
      "d": 108,
      "v": 72
    },
    {
      "midi": 62,
      "hit": false,
      "t": 238080,
      "d": 1800,
      "v": 80
    },
    {
      "midi": 66,
      "hit": false,
      "t": 238080,
      "d": 1800,
      "v": 63
    },
    {
      "midi": 52,
      "hit": false,
      "t": 238080,
      "d": 1920,
      "v": 72
    },
    {
      "midi": 55,
      "hit": false,
      "t": 238080,
      "d": 1920,
      "v": 72
    },
    {
      "midi": 59,
      "hit": false,
      "t": 238080,
      "d": 1920,
      "v": 72
    },
    {
      "midi": 71,
      "hit": false,
      "t": 238080,
      "d": 1920,
      "v": 80
    },
    {
      "midi": 86,
      "hit": false,
      "t": 238080,
      "d": 132,
      "v": 96
    },
    {
      "midi": 74,
      "hit": false,
      "t": 238080,
      "d": 156,
      "v": 92
    },
    {
      "midi": 66,
      "hit": false,
      "t": 238080,
      "d": 96,
      "v": 77
    },
    {
      "midi": 71,
      "hit": false,
      "t": 238080,
      "d": 172,
      "v": 77
    },
    {
      "midi": 74,
      "hit": false,
      "t": 238080,
      "d": 172,
      "v": 77
    },
    {
      "midi": 90,
      "hit": false,
      "t": 238560,
      "d": 92,
      "v": 89
    },
    {
      "midi": 78,
      "hit": false,
      "t": 238560,
      "d": 112,
      "v": 89
    },
    {
      "midi": 78,
      "hit": false,
      "t": 238560,
      "d": 292,
      "v": 84
    },
    {
      "midi": 74,
      "hit": false,
      "t": 238560,
      "d": 332,
      "v": 84
    },
    {
      "midi": 71,
      "hit": false,
      "t": 238560,
      "d": 364,
      "v": 84
    },
    {
      "midi": 95,
      "hit": false,
      "t": 238800,
      "d": 112,
      "v": 86
    },
    {
      "midi": 83,
      "hit": false,
      "t": 238800,
      "d": 132,
      "v": 92
    },
    {
      "midi": 66,
      "hit": false,
      "t": 239256,
      "d": 24,
      "v": 66
    },
    {
      "midi": 74,
      "hit": false,
      "t": 239280,
      "d": 236,
      "v": 76
    },
    {
      "midi": 86,
      "hit": false,
      "t": 239280,
      "d": 236,
      "v": 86
    },
    {
      "midi": 62,
      "hit": false,
      "t": 239280,
      "d": 320,
      "v": 79
    },
    {
      "midi": 67,
      "hit": false,
      "t": 239280,
      "d": 376,
      "v": 79
    },
    {
      "midi": 71,
      "hit": false,
      "t": 239280,
      "d": 392,
      "v": 79
    },
    {
      "midi": 85,
      "hit": false,
      "t": 239760,
      "d": 76,
      "v": 58
    },
    {
      "midi": 73,
      "hit": false,
      "t": 239760,
      "d": 156,
      "v": 67
    },
    {
      "midi": 69,
      "hit": false,
      "t": 239760,
      "d": 980,
      "v": 76
    },
    {
      "midi": 66,
      "hit": false,
      "t": 239760,
      "d": 1028,
      "v": 78
    },
    {
      "midi": 61,
      "hit": false,
      "t": 239760,
      "d": 1040,
      "v": 78
    },
    {
      "midi": 55,
      "hit": false,
      "t": 240240,
      "d": 120,
      "v": 70
    },
    {
      "midi": 57,
      "hit": false,
      "t": 240240,
      "d": 120,
      "v": 66
    },
    {
      "midi": 61,
      "hit": false,
      "t": 240240,
      "d": 120,
      "v": 71
    },
    {
      "midi": 66,
      "hit": false,
      "t": 240240,
      "d": 120,
      "v": 78
    },
    {
      "midi": 71,
      "hit": false,
      "t": 240240,
      "d": 120,
      "v": 72
    },
    {
      "midi": 90,
      "hit": false,
      "t": 240240,
      "d": 96,
      "v": 78
    },
    {
      "midi": 78,
      "hit": false,
      "t": 240240,
      "d": 136,
      "v": 78
    },
    {
      "midi": 85,
      "hit": false,
      "t": 240480,
      "d": 76,
      "v": 78
    },
    {
      "midi": 73,
      "hit": false,
      "t": 240480,
      "d": 112,
      "v": 78
    },
    {
      "midi": 55,
      "hit": false,
      "t": 240720,
      "d": 600,
      "v": 70
    },
    {
      "midi": 57,
      "hit": false,
      "t": 240720,
      "d": 600,
      "v": 66
    },
    {
      "midi": 61,
      "hit": false,
      "t": 240720,
      "d": 840,
      "v": 71
    },
    {
      "midi": 66,
      "hit": false,
      "t": 240720,
      "d": 840,
      "v": 85
    },
    {
      "midi": 71,
      "hit": false,
      "t": 240720,
      "d": 960,
      "v": 80
    },
    {
      "midi": 86,
      "hit": false,
      "t": 240960,
      "d": 124,
      "v": 74
    },
    {
      "midi": 74,
      "hit": false,
      "t": 240960,
      "d": 144,
      "v": 74
    },
    {
      "midi": 90,
      "hit": false,
      "t": 241200,
      "d": 104,
      "v": 74
    },
    {
      "midi": 78,
      "hit": false,
      "t": 241200,
      "d": 140,
      "v": 74
    },
    {
      "midi": 85,
      "hit": false,
      "t": 241440,
      "d": 104,
      "v": 67
    },
    {
      "midi": 73,
      "hit": false,
      "t": 241440,
      "d": 108,
      "v": 72
    },
    {
      "midi": 59,
      "hit": false,
      "t": 241920,
      "d": 1560,
      "v": 93
    },
    {
      "midi": 63,
      "hit": false,
      "t": 241920,
      "d": 1560,
      "v": 93
    },
    {
      "midi": 49,
      "hit": false,
      "t": 241920,
      "d": 1920,
      "v": 93
    },
    {
      "midi": 52,
      "hit": false,
      "t": 241920,
      "d": 1920,
      "v": 93
    },
    {
      "midi": 56,
      "hit": false,
      "t": 241920,
      "d": 1920,
      "v": 93
    },
    {
      "midi": 66,
      "hit": false,
      "t": 241920,
      "d": 1920,
      "v": 93
    },
    {
      "midi": 54,
      "hit": false,
      "t": 243840,
      "d": 1560,
      "v": 74
    },
    {
      "midi": 58,
      "hit": false,
      "t": 243840,
      "d": 1560,
      "v": 71
    },
    {
      "midi": 62,
      "hit": false,
      "t": 243840,
      "d": 1560,
      "v": 96
    },
    {
      "midi": 66,
      "hit": false,
      "t": 243840,
      "d": 1560,
      "v": 86
    },
    {
      "midi": 69,
      "hit": false,
      "t": 243840,
      "d": 1560,
      "v": 86
    },
    {
      "midi": 57,
      "hit": false,
      "t": 245760,
      "d": 1440,
      "v": 76
    },
    {
      "midi": 59,
      "hit": false,
      "t": 245760,
      "d": 1440,
      "v": 76
    },
    {
      "midi": 62,
      "hit": false,
      "t": 245760,
      "d": 1440,
      "v": 83
    },
    {
      "midi": 66,
      "hit": false,
      "t": 245760,
      "d": 1440,
      "v": 78
    },
    {
      "midi": 66,
      "hit": false,
      "t": 246480,
      "d": 1316,
      "v": 85
    },
    {
      "midi": 78,
      "hit": false,
      "t": 246480,
      "d": 1324,
      "v": 85
    },
    {
      "midi": 57,
      "hit": false,
      "t": 247680,
      "d": 240,
      "v": 66
    },
    {
      "midi": 59,
      "hit": false,
      "t": 247680,
      "d": 240,
      "v": 76
    },
    {
      "midi": 62,
      "hit": false,
      "t": 247680,
      "d": 240,
      "v": 80
    },
    {
      "midi": 66,
      "hit": false,
      "t": 247680,
      "d": 240,
      "v": 71
    },
    {
      "midi": 56,
      "hit": false,
      "t": 248400,
      "d": 720,
      "v": 71
    },
    {
      "midi": 59,
      "hit": false,
      "t": 248400,
      "d": 720,
      "v": 83
    },
    {
      "midi": 61,
      "hit": false,
      "t": 248400,
      "d": 720,
      "v": 67
    },
    {
      "midi": 64,
      "hit": false,
      "t": 248400,
      "d": 720,
      "v": 86
    },
    {
      "midi": 57,
      "hit": false,
      "t": 249600,
      "d": 480,
      "v": 78
    },
    {
      "midi": 59,
      "hit": false,
      "t": 249600,
      "d": 480,
      "v": 80
    },
    {
      "midi": 62,
      "hit": false,
      "t": 249600,
      "d": 480,
      "v": 86
    },
    {
      "midi": 66,
      "hit": false,
      "t": 249600,
      "d": 480,
      "v": 78
    },
    {
      "midi": 59,
      "hit": false,
      "t": 249840,
      "d": 548,
      "v": 76
    },
    {
      "midi": 71,
      "hit": false,
      "t": 249840,
      "d": 1892,
      "v": 72
    },
    {
      "midi": 62,
      "hit": false,
      "t": 250080,
      "d": 272,
      "v": 66
    },
    {
      "midi": 74,
      "hit": false,
      "t": 250080,
      "d": 1600,
      "v": 86
    },
    {
      "midi": 78,
      "hit": false,
      "t": 250320,
      "d": 1396,
      "v": 71
    },
    {
      "midi": 66,
      "hit": false,
      "t": 250320,
      "d": 1412,
      "v": 69
    },
    {
      "midi": 59,
      "hit": false,
      "t": 251520,
      "d": 120,
      "v": 80
    },
    {
      "midi": 62,
      "hit": false,
      "t": 251520,
      "d": 120,
      "v": 86
    },
    {
      "midi": 66,
      "hit": false,
      "t": 251520,
      "d": 120,
      "v": 69
    },
    {
      "midi": 69,
      "hit": false,
      "t": 251520,
      "d": 120,
      "v": 86
    },
    {
      "midi": 61,
      "hit": false,
      "t": 252240,
      "d": 240,
      "v": 74
    },
    {
      "midi": 64,
      "hit": false,
      "t": 252240,
      "d": 240,
      "v": 100
    },
    {
      "midi": 68,
      "hit": false,
      "t": 252240,
      "d": 240,
      "v": 78
    },
    {
      "midi": 71,
      "hit": false,
      "t": 252240,
      "d": 360,
      "v": 86
    },
    {
      "midi": 62,
      "hit": false,
      "t": 253440,
      "d": 1320,
      "v": 80
    },
    {
      "midi": 66,
      "hit": false,
      "t": 253440,
      "d": 1320,
      "v": 71
    },
    {
      "midi": 69,
      "hit": false,
      "t": 253440,
      "d": 1320,
      "v": 80
    },
    {
      "midi": 73,
      "hit": false,
      "t": 253440,
      "d": 1320,
      "v": 71
    },
    {
      "midi": 59,
      "hit": false,
      "t": 253680,
      "d": 1716,
      "v": 74
    },
    {
      "midi": 71,
      "hit": false,
      "t": 253680,
      "d": 1768,
      "v": 72
    },
    {
      "midi": 74,
      "hit": false,
      "t": 253920,
      "d": 1504,
      "v": 80
    },
    {
      "midi": 66,
      "hit": false,
      "t": 253920,
      "d": 1508,
      "v": 66
    },
    {
      "midi": 78,
      "hit": false,
      "t": 254160,
      "d": 1216,
      "v": 85
    },
    {
      "midi": 62,
      "hit": false,
      "t": 255360,
      "d": 120,
      "v": 89
    },
    {
      "midi": 66,
      "hit": false,
      "t": 255360,
      "d": 120,
      "v": 74
    },
    {
      "midi": 69,
      "hit": false,
      "t": 255360,
      "d": 120,
      "v": 83
    },
    {
      "midi": 73,
      "hit": false,
      "t": 255360,
      "d": 120,
      "v": 69
    },
    {
      "midi": 61,
      "hit": false,
      "t": 256080,
      "d": 360,
      "v": 69
    },
    {
      "midi": 64,
      "hit": false,
      "t": 256080,
      "d": 360,
      "v": 86
    },
    {
      "midi": 68,
      "hit": false,
      "t": 256080,
      "d": 360,
      "v": 69
    },
    {
      "midi": 71,
      "hit": false,
      "t": 256080,
      "d": 360,
      "v": 80
    },
    {
      "midi": 69,
      "hit": false,
      "t": 257280,
      "d": 960,
      "v": 83
    },
    {
      "midi": 62,
      "hit": false,
      "t": 257280,
      "d": 1080,
      "v": 89
    },
    {
      "midi": 66,
      "hit": false,
      "t": 257280,
      "d": 1080,
      "v": 78
    },
    {
      "midi": 73,
      "hit": false,
      "t": 257280,
      "d": 1080,
      "v": 78
    },
    {
      "midi": 59,
      "hit": false,
      "t": 257520,
      "d": 1776,
      "v": 74
    },
    {
      "midi": 71,
      "hit": false,
      "t": 257520,
      "d": 1804,
      "v": 76
    },
    {
      "midi": 66,
      "hit": false,
      "t": 257760,
      "d": 1564,
      "v": 71
    },
    {
      "midi": 74,
      "hit": false,
      "t": 257760,
      "d": 1564,
      "v": 80
    },
    {
      "midi": 78,
      "hit": false,
      "t": 258000,
      "d": 1248,
      "v": 85
    },
    {
      "midi": 62,
      "hit": false,
      "t": 259200,
      "d": 120,
      "v": 80
    },
    {
      "midi": 66,
      "hit": false,
      "t": 259200,
      "d": 120,
      "v": 71
    },
    {
      "midi": 69,
      "hit": false,
      "t": 259200,
      "d": 120,
      "v": 76
    },
    {
      "midi": 73,
      "hit": false,
      "t": 259200,
      "d": 120,
      "v": 69
    },
    {
      "midi": 71,
      "hit": false,
      "t": 259920,
      "d": 1132,
      "v": 83
    },
    {
      "midi": 76,
      "hit": false,
      "t": 259920,
      "d": 1140,
      "v": 89
    },
    {
      "midi": 67,
      "hit": false,
      "t": 259920,
      "d": 1144,
      "v": 83
    },
    {
      "midi": 60,
      "hit": false,
      "t": 259920,
      "d": 1192,
      "v": 74
    },
    {
      "midi": 64,
      "hit": false,
      "t": 259920,
      "d": 1208,
      "v": 74
    },
    {
      "midi": 57,
      "hit": false,
      "t": 261120,
      "d": 1440,
      "v": 76
    },
    {
      "midi": 59,
      "hit": false,
      "t": 261120,
      "d": 1440,
      "v": 76
    },
    {
      "midi": 62,
      "hit": false,
      "t": 261120,
      "d": 1440,
      "v": 83
    },
    {
      "midi": 66,
      "hit": false,
      "t": 261120,
      "d": 1440,
      "v": 78
    },
    {
      "midi": 57,
      "hit": false,
      "t": 263040,
      "d": 240,
      "v": 66
    },
    {
      "midi": 59,
      "hit": false,
      "t": 263040,
      "d": 240,
      "v": 76
    },
    {
      "midi": 62,
      "hit": false,
      "t": 263040,
      "d": 240,
      "v": 80
    },
    {
      "midi": 66,
      "hit": false,
      "t": 263040,
      "d": 240,
      "v": 71
    },
    {
      "midi": 56,
      "hit": false,
      "t": 263760,
      "d": 720,
      "v": 71
    },
    {
      "midi": 59,
      "hit": false,
      "t": 263760,
      "d": 720,
      "v": 83
    },
    {
      "midi": 61,
      "hit": false,
      "t": 263760,
      "d": 720,
      "v": 67
    },
    {
      "midi": 64,
      "hit": false,
      "t": 263760,
      "d": 720,
      "v": 86
    },
    {
      "midi": 57,
      "hit": false,
      "t": 264960,
      "d": 480,
      "v": 78
    },
    {
      "midi": 59,
      "hit": false,
      "t": 264960,
      "d": 480,
      "v": 80
    },
    {
      "midi": 62,
      "hit": false,
      "t": 264960,
      "d": 480,
      "v": 86
    },
    {
      "midi": 66,
      "hit": false,
      "t": 264960,
      "d": 480,
      "v": 78
    },
    {
      "midi": 59,
      "hit": false,
      "t": 266880,
      "d": 120,
      "v": 80
    },
    {
      "midi": 62,
      "hit": false,
      "t": 266880,
      "d": 120,
      "v": 86
    },
    {
      "midi": 66,
      "hit": false,
      "t": 266880,
      "d": 120,
      "v": 69
    },
    {
      "midi": 69,
      "hit": false,
      "t": 266880,
      "d": 120,
      "v": 86
    },
    {
      "midi": 61,
      "hit": false,
      "t": 267600,
      "d": 240,
      "v": 74
    },
    {
      "midi": 64,
      "hit": false,
      "t": 267600,
      "d": 240,
      "v": 100
    },
    {
      "midi": 68,
      "hit": false,
      "t": 267600,
      "d": 240,
      "v": 78
    },
    {
      "midi": 71,
      "hit": false,
      "t": 267600,
      "d": 360,
      "v": 86
    },
    {
      "midi": 62,
      "hit": false,
      "t": 268800,
      "d": 1320,
      "v": 80
    },
    {
      "midi": 66,
      "hit": false,
      "t": 268800,
      "d": 1320,
      "v": 71
    },
    {
      "midi": 69,
      "hit": false,
      "t": 268800,
      "d": 1320,
      "v": 80
    },
    {
      "midi": 73,
      "hit": false,
      "t": 268800,
      "d": 1320,
      "v": 71
    },
    {
      "midi": 62,
      "hit": false,
      "t": 270720,
      "d": 120,
      "v": 89
    },
    {
      "midi": 66,
      "hit": false,
      "t": 270720,
      "d": 120,
      "v": 74
    },
    {
      "midi": 69,
      "hit": false,
      "t": 270720,
      "d": 120,
      "v": 83
    },
    {
      "midi": 73,
      "hit": false,
      "t": 270720,
      "d": 120,
      "v": 69
    },
    {
      "midi": 61,
      "hit": false,
      "t": 271440,
      "d": 360,
      "v": 69
    },
    {
      "midi": 64,
      "hit": false,
      "t": 271440,
      "d": 360,
      "v": 86
    },
    {
      "midi": 68,
      "hit": false,
      "t": 271440,
      "d": 360,
      "v": 69
    },
    {
      "midi": 71,
      "hit": false,
      "t": 271440,
      "d": 360,
      "v": 80
    },
    {
      "midi": 69,
      "hit": false,
      "t": 272640,
      "d": 960,
      "v": 83
    },
    {
      "midi": 62,
      "hit": false,
      "t": 272640,
      "d": 1080,
      "v": 89
    },
    {
      "midi": 66,
      "hit": false,
      "t": 272640,
      "d": 1080,
      "v": 78
    },
    {
      "midi": 73,
      "hit": false,
      "t": 272640,
      "d": 1080,
      "v": 78
    },
    {
      "midi": 62,
      "hit": false,
      "t": 274560,
      "d": 120,
      "v": 80
    },
    {
      "midi": 66,
      "hit": false,
      "t": 274560,
      "d": 120,
      "v": 71
    },
    {
      "midi": 69,
      "hit": false,
      "t": 274560,
      "d": 120,
      "v": 76
    },
    {
      "midi": 73,
      "hit": false,
      "t": 274560,
      "d": 120,
      "v": 69
    },
    {
      "midi": 71,
      "hit": false,
      "t": 275280,
      "d": 1132,
      "v": 83
    },
    {
      "midi": 76,
      "hit": false,
      "t": 275280,
      "d": 1140,
      "v": 89
    },
    {
      "midi": 67,
      "hit": false,
      "t": 275280,
      "d": 1144,
      "v": 83
    },
    {
      "midi": 60,
      "hit": false,
      "t": 275280,
      "d": 1192,
      "v": 74
    },
    {
      "midi": 64,
      "hit": false,
      "t": 275280,
      "d": 1208,
      "v": 74
    },
    {
      "midi": 57,
      "hit": false,
      "t": 276480,
      "d": 1440,
      "v": 76
    },
    {
      "midi": 59,
      "hit": false,
      "t": 276480,
      "d": 1440,
      "v": 76
    },
    {
      "midi": 62,
      "hit": false,
      "t": 276480,
      "d": 1440,
      "v": 83
    },
    {
      "midi": 66,
      "hit": false,
      "t": 276480,
      "d": 1440,
      "v": 78
    },
    {
      "midi": 57,
      "hit": false,
      "t": 278400,
      "d": 240,
      "v": 66
    },
    {
      "midi": 59,
      "hit": false,
      "t": 278400,
      "d": 240,
      "v": 76
    },
    {
      "midi": 62,
      "hit": false,
      "t": 278400,
      "d": 240,
      "v": 80
    },
    {
      "midi": 66,
      "hit": false,
      "t": 278400,
      "d": 240,
      "v": 71
    },
    {
      "midi": 56,
      "hit": false,
      "t": 279120,
      "d": 720,
      "v": 71
    },
    {
      "midi": 59,
      "hit": false,
      "t": 279120,
      "d": 720,
      "v": 83
    },
    {
      "midi": 61,
      "hit": false,
      "t": 279120,
      "d": 720,
      "v": 67
    },
    {
      "midi": 64,
      "hit": false,
      "t": 279120,
      "d": 720,
      "v": 86
    },
    {
      "midi": 57,
      "hit": false,
      "t": 280320,
      "d": 480,
      "v": 78
    },
    {
      "midi": 59,
      "hit": false,
      "t": 280320,
      "d": 480,
      "v": 80
    },
    {
      "midi": 62,
      "hit": false,
      "t": 280320,
      "d": 480,
      "v": 86
    },
    {
      "midi": 66,
      "hit": false,
      "t": 280320,
      "d": 480,
      "v": 78
    },
    {
      "midi": 59,
      "hit": false,
      "t": 282240,
      "d": 120,
      "v": 80
    },
    {
      "midi": 62,
      "hit": false,
      "t": 282240,
      "d": 120,
      "v": 86
    },
    {
      "midi": 66,
      "hit": false,
      "t": 282240,
      "d": 120,
      "v": 69
    },
    {
      "midi": 69,
      "hit": false,
      "t": 282240,
      "d": 120,
      "v": 86
    },
    {
      "midi": 61,
      "hit": false,
      "t": 282960,
      "d": 240,
      "v": 74
    },
    {
      "midi": 64,
      "hit": false,
      "t": 282960,
      "d": 240,
      "v": 100
    },
    {
      "midi": 68,
      "hit": false,
      "t": 282960,
      "d": 240,
      "v": 78
    },
    {
      "midi": 71,
      "hit": false,
      "t": 282960,
      "d": 360,
      "v": 86
    },
    {
      "midi": 62,
      "hit": false,
      "t": 284160,
      "d": 1320,
      "v": 80
    },
    {
      "midi": 66,
      "hit": false,
      "t": 284160,
      "d": 1320,
      "v": 71
    },
    {
      "midi": 69,
      "hit": false,
      "t": 284160,
      "d": 1320,
      "v": 80
    },
    {
      "midi": 73,
      "hit": false,
      "t": 284160,
      "d": 1320,
      "v": 71
    },
    {
      "midi": 62,
      "hit": false,
      "t": 286080,
      "d": 120,
      "v": 89
    },
    {
      "midi": 66,
      "hit": false,
      "t": 286080,
      "d": 120,
      "v": 74
    },
    {
      "midi": 69,
      "hit": false,
      "t": 286080,
      "d": 120,
      "v": 83
    },
    {
      "midi": 73,
      "hit": false,
      "t": 286080,
      "d": 120,
      "v": 69
    },
    {
      "midi": 61,
      "hit": false,
      "t": 286800,
      "d": 360,
      "v": 69
    },
    {
      "midi": 64,
      "hit": false,
      "t": 286800,
      "d": 360,
      "v": 86
    },
    {
      "midi": 68,
      "hit": false,
      "t": 286800,
      "d": 360,
      "v": 69
    },
    {
      "midi": 71,
      "hit": false,
      "t": 286800,
      "d": 360,
      "v": 80
    },
    {
      "midi": 69,
      "hit": false,
      "t": 288000,
      "d": 960,
      "v": 83
    },
    {
      "midi": 62,
      "hit": false,
      "t": 288000,
      "d": 1080,
      "v": 89
    },
    {
      "midi": 66,
      "hit": false,
      "t": 288000,
      "d": 1080,
      "v": 78
    },
    {
      "midi": 73,
      "hit": false,
      "t": 288000,
      "d": 1080,
      "v": 78
    },
    {
      "midi": 62,
      "hit": false,
      "t": 289920,
      "d": 120,
      "v": 80
    },
    {
      "midi": 66,
      "hit": false,
      "t": 289920,
      "d": 120,
      "v": 71
    },
    {
      "midi": 69,
      "hit": false,
      "t": 289920,
      "d": 120,
      "v": 76
    },
    {
      "midi": 73,
      "hit": false,
      "t": 289920,
      "d": 120,
      "v": 69
    },
    {
      "midi": 71,
      "hit": false,
      "t": 290640,
      "d": 1132,
      "v": 83
    },
    {
      "midi": 76,
      "hit": false,
      "t": 290640,
      "d": 1140,
      "v": 89
    },
    {
      "midi": 67,
      "hit": false,
      "t": 290640,
      "d": 1144,
      "v": 83
    },
    {
      "midi": 60,
      "hit": false,
      "t": 290640,
      "d": 1192,
      "v": 74
    },
    {
      "midi": 64,
      "hit": false,
      "t": 290640,
      "d": 1208,
      "v": 74
    }
  ]
}