{
  "jsonPath": "Unknown/Unknown/Dave Grusin  Steve Gadd  Lee Ritenour/she-could-be-mine.json",
  "path": "Unknown\\Unknown\\Dave Grusin  Steve Gadd  Lee Ritenour\\She Could Be Mine.mid",
  "name": "She Could Be Mine",
  "difficulty": "Advanced",
  "bpm": 120,
  "notes": [
    {
      "midi": 55,
      "hit": false,
      "t": 5149.4493125,
      "d": 1520.3783062500015,
      "v": 98
    },
    {
      "midi": 63,
      "hit": false,
      "t": 5165.7536375,
      "d": 1438.8566812500003,
      "v": 77
    },
    {
      "midi": 67,
      "hit": false,
      "t": 5173.9057999999995,
      "d": 1480.9761875000013,
      "v": 84
    },
    {
      "midi": 70,
      "hit": false,
      "t": 5191.56881875,
      "d": 1467.389250000001,
      "v": 86
    },
    {
      "midi": 75,
      "hit": false,
      "t": 5199.72098125,
      "d": 1479.6174937500018,
      "v": 68
    },
    {
      "midi": 79,
      "hit": false,
      "t": 5217.384,
      "d": 1410.3241125000004,
      "v": 91
    },
    {
      "midi": 55,
      "hit": false,
      "t": 7658.956668750001,
      "d": 1961.953775,
      "v": 93
    },
    {
      "midi": 67,
      "hit": false,
      "t": 7686.130543750001,
      "d": 1974.1820187499998,
      "v": 84
    },
    {
      "midi": 58,
      "hit": false,
      "t": 7699.717481250002,
      "d": 1817.9322374999992,
      "v": 85
    },
    {
      "midi": 70,
      "hit": false,
      "t": 7740.478293750001,
      "d": 1922.5516562500006,
      "v": 87
    },
    {
      "midi": 61,
      "hit": false,
      "t": 7767.652168750001,
      "d": 1736.4106124999998,
      "v": 79
    },
    {
      "midi": 73,
      "hit": false,
      "t": 7769.010862500001,
      "d": 1983.6928750000006,
      "v": 91
    },
    {
      "midi": 77,
      "hit": false,
      "t": 7809.771675000001,
      "d": 1642.6607437499997,
      "v": 97
    },
    {
      "midi": 79,
      "hit": false,
      "t": 9796.181937500001,
      "d": 91.03248125000027,
      "v": 126
    },
    {
      "midi": 56,
      "hit": false,
      "t": 10281.235606250002,
      "d": 1883.1495375000031,
      "v": 81
    },
    {
      "midi": 67,
      "hit": false,
      "t": 10321.996418750003,
      "d": 1911.682106250004,
      "v": 90
    },
    {
      "midi": 60,
      "hit": false,
      "t": 10347.811600000003,
      "d": 1737.769306250002,
      "v": 88
    },
    {
      "midi": 68,
      "hit": false,
      "t": 10361.398537500003,
      "d": 1899.453862500004,
      "v": 96
    },
    {
      "midi": 72,
      "hit": false,
      "t": 10376.344168750004,
      "d": 1658.9650687500016,
      "v": 101
    },
    {
      "midi": 63,
      "hit": false,
      "t": 10456.507100000004,
      "d": 1736.4106125000017,
      "v": 76
    },
    {
      "midi": 75,
      "hit": false,
      "t": 10457.865793750005,
      "d": 1868.2039062500025,
      "v": 108
    },
    {
      "midi": 72,
      "hit": false,
      "t": 12406.232631250008,
      "d": 129.07590625000012,
      "v": 120
    },
    {
      "midi": 53,
      "hit": false,
      "t": 12877.699362500009,
      "d": 1692.932412500002,
      "v": 100
    },
    {
      "midi": 59,
      "hit": false,
      "t": 12918.46017500001,
      "d": 1654.8889875000023,
      "v": 91
    },
    {
      "midi": 68,
      "hit": false,
      "t": 12945.63405000001,
      "d": 1470.106637500001,
      "v": 80
    },
    {
      "midi": 71,
      "hit": false,
      "t": 12985.03616875001,
      "d": 1391.3024000000005,
      "v": 91
    },
    {
      "midi": 63,
      "hit": false,
      "t": 13038.02522500001,
      "d": 1561.1391187500012,
      "v": 85
    },
    {
      "midi": 75,
      "hit": false,
      "t": 13040.742612500011,
      "d": 1466.0305562499998,
      "v": 81
    },
    {
      "midi": 82,
      "hit": false,
      "t": 13118.188156250011,
      "d": 1192.933112499999,
      "v": 101
    },
    {
      "midi": 79,
      "hit": false,
      "t": 15195.630900000011,
      "d": 180.70626875000016,
      "v": 115
    },
    {
      "midi": 77,
      "hit": false,
      "t": 15324.706806250011,
      "d": 91.03248125000027,
      "v": 97
    },
    {
      "midi": 58,
      "hit": false,
      "t": 15692.912812500012,
      "d": 2217.3881999999994,
      "v": 81
    },
    {
      "midi": 74,
      "hit": false,
      "t": 15696.98889375001,
      "d": 1873.6386812499986,
      "v": 98
    },
    {
      "midi": 75,
      "hit": false,
      "t": 15698.347587500011,
      "d": 1885.8669249999984,
      "v": 82
    },
    {
      "midi": 67,
      "hit": false,
      "t": 15710.575831250011,
      "d": 1781.247506249998,
      "v": 83
    },
    {
      "midi": 63,
      "hit": false,
      "t": 15710.575831250011,
      "d": 2199.72518125,
      "v": 77
    },
    {
      "midi": 53,
      "hit": false,
      "t": 15864.10822500001,
      "d": 637.2273687499983,
      "v": 79
    },
    {
      "midi": 72,
      "hit": false,
      "t": 17597.80145000001,
      "d": 355.9777625000024,
      "v": 117
    },
    {
      "midi": 67,
      "hit": false,
      "t": 17611.38838750001,
      "d": 301.6300125000016,
      "v": 102
    },
    {
      "midi": 74,
      "hit": false,
      "t": 17938.83358125001,
      "d": 54.347750000000815,
      "v": 111
    },
    {
      "midi": 61,
      "hit": false,
      "t": 18311.115668750015,
      "d": 1998.6385062500049,
      "v": 81
    },
    {
      "midi": 67,
      "hit": false,
      "t": 18313.833056250016,
      "d": 2073.366662500004,
      "v": 91
    },
    {
      "midi": 70,
      "hit": false,
      "t": 18315.191750000016,
      "d": 2228.2577500000043,
      "v": 86
    },
    {
      "midi": 73,
      "hit": false,
      "t": 18317.909137500017,
      "d": 2226.899056250004,
      "v": 90
    },
    {
      "midi": 55,
      "hit": false,
      "t": 18893.995287500016,
      "d": 1399.4545625000028,
      "v": 102
    },
    {
      "midi": 79,
      "hit": false,
      "t": 19557.03783750002,
      "d": 740.488093750002,
      "v": 100
    },
    {
      "midi": 77,
      "hit": false,
      "t": 20586.927700000022,
      "d": 51.63036250000005,
      "v": 106
    },
    {
      "midi": 56,
      "hit": false,
      "t": 20808.394781250023,
      "d": 1341.0307312500045,
      "v": 77
    },
    {
      "midi": 60,
      "hit": false,
      "t": 20835.568656250023,
      "d": 1342.3894250000048,
      "v": 90
    },
    {
      "midi": 70,
      "hit": false,
      "t": 20864.101225000024,
      "d": 1354.6176687500047,
      "v": 82
    },
    {
      "midi": 63,
      "hit": false,
      "t": 20888.557712500024,
      "d": 1275.8134312500042,
      "v": 79
    },
    {
      "midi": 72,
      "hit": false,
      "t": 20891.275100000024,
      "d": 1445.650150000005,
      "v": 97
    },
    {
      "midi": 67,
      "hit": false,
      "t": 20956.492400000025,
      "d": 1222.8243750000038,
      "v": 81
    },
    {
      "midi": 75,
      "hit": false,
      "t": 20959.209787500025,
      "d": 1494.5631250000042,
      "v": 84
    },
    {
      "midi": 82,
      "hit": false,
      "t": 20972.796725000026,
      "d": 944.2921562500014,
      "v": 103
    },
    {
      "midi": 79,
      "hit": false,
      "t": 22467.35985000003,
      "d": 427.98853125000096,
      "v": 118
    },
    {
      "midi": 75,
      "hit": false,
      "t": 22842.35932500003,
      "d": 248.64095625000118,
      "v": 90
    },
    {
      "midi": 72,
      "hit": false,
      "t": 23143.989337500032,
      "d": 63.858606249999866,
      "v": 112
    },
    {
      "midi": 53,
      "hit": false,
      "t": 23300.239118750033,
      "d": 919.8356687500054,
      "v": 93
    },
    {
      "midi": 56,
      "hit": false,
      "t": 23327.412993750033,
      "d": 892.661793750005,
      "v": 76
    },
    {
      "midi": 59,
      "hit": false,
      "t": 23406.217231250033,
      "d": 830.1618812500055,
      "v": 97
    },
    {
      "midi": 68,
      "hit": false,
      "t": 23433.391106250034,
      "d": 773.096743750004,
      "v": 89
    },
    {
      "midi": 71,
      "hit": false,
      "t": 23448.336737500034,
      "d": 744.5641750000032,
      "v": 103
    },
    {
      "midi": 63,
      "hit": false,
      "t": 23487.738856250035,
      "d": 736.4120125000045,
      "v": 79
    },
    {
      "midi": 75,
      "hit": false,
      "t": 23516.271425000035,
      "d": 661.6838562500016,
      "v": 81
    },
    {
      "midi": 82,
      "hit": false,
      "t": 23555.673543750036,
      "d": 624.9991250000021,
      "v": 94
    },
    {
      "midi": 65,
      "hit": false,
      "t": 25434.74700000004,
      "d": 105.97811250000086,
      "v": 127
    },
    {
      "midi": 67,
      "hit": false,
      "t": 25597.790250000042,
      "d": 78.80423750000045,
      "v": 114
    },
    {
      "midi": 70,
      "hit": false,
      "t": 25760.83350000004,
      "d": 104.61941875000048,
      "v": 115
    },
    {
      "midi": 72,
      "hit": false,
      "t": 25923.87675000004,
      "d": 63.858606249999866,
      "v": 124
    },
    {
      "midi": 74,
      "hit": false,
      "t": 26086.92000000004,
      "d": 285.32568750000064,
      "v": 127
    },
    {
      "midi": 77,
      "hit": false,
      "t": 26086.92000000004,
      "d": 301.6300125000016,
      "v": 127
    },
    {
      "midi": 72,
      "hit": false,
      "t": 26413.00650000004,
      "d": 144.0215375000007,
      "v": 98
    },
    {
      "midi": 75,
      "hit": false,
      "t": 26413.00650000004,
      "d": 156.24978125000052,
      "v": 83
    },
    {
      "midi": 75,
      "hit": false,
      "t": 26576.04975000004,
      "d": 133.15198750000127,
      "v": 118
    },
    {
      "midi": 72,
      "hit": false,
      "t": 26576.04975000004,
      "d": 145.3802312500011,
      "v": 122
    },
    {
      "midi": 75,
      "hit": false,
      "t": 27880.39575000004,
      "d": 91.03248125000027,
      "v": 106
    },
    {
      "midi": 65,
      "hit": false,
      "t": 28043.43900000004,
      "d": 104.61941875000048,
      "v": 127
    },
    {
      "midi": 67,
      "hit": false,
      "t": 28206.482250000037,
      "d": 76.08684999999969,
      "v": 118
    },
    {
      "midi": 70,
      "hit": false,
      "t": 28369.525500000036,
      "d": 104.61941875000048,
      "v": 121
    },
    {
      "midi": 72,
      "hit": false,
      "t": 28532.568750000035,
      "d": 54.347750000000815,
      "v": 115
    },
    {
      "midi": 72,
      "hit": false,
      "t": 28695.612000000037,
      "d": 197.01059375000114,
      "v": 127
    },
    {
      "midi": 75,
      "hit": false,
      "t": 28695.612000000037,
      "d": 248.64095625000118,
      "v": 127
    },
    {
      "midi": 72,
      "hit": false,
      "t": 29021.69850000004,
      "d": 154.89108750000014,
      "v": 110
    },
    {
      "midi": 67,
      "hit": false,
      "t": 29184.741750000037,
      "d": 6.793468749998283,
      "v": 100
    },
    {
      "midi": 72,
      "hit": false,
      "t": 29184.741750000037,
      "d": 116.84766249999666,
      "v": 117
    },
    {
      "midi": 70,
      "hit": false,
      "t": 30652.131000000034,
      "d": 169.83671875000073,
      "v": 127
    },
    {
      "midi": 72,
      "hit": false,
      "t": 30978.217500000035,
      "d": 142.66284375000032,
      "v": 127
    },
    {
      "midi": 70,
      "hit": false,
      "t": 31304.304000000036,
      "d": 311.14086875000066,
      "v": 127
    },
    {
      "midi": 67,
      "hit": false,
      "t": 31793.433750000037,
      "d": 5.434775000001537,
      "v": 115
    },
    {
      "midi": 67,
      "hit": false,
      "t": 32934.736500000035,
      "d": 66.575993749997,
      "v": 127
    },
    {
      "midi": 79,
      "hit": false,
      "t": 32934.736500000035,
      "d": 146.73892499999783,
      "v": 127
    },
    {
      "midi": 70,
      "hit": false,
      "t": 33260.82300000003,
      "d": 92.39117499999702,
      "v": 106
    },
    {
      "midi": 82,
      "hit": false,
      "t": 33260.82300000003,
      "d": 130.4346000000005,
      "v": 110
    },
    {
      "midi": 84,
      "hit": false,
      "t": 33586.90950000003,
      "d": 67.93468749999738,
      "v": 122
    },
    {
      "midi": 72,
      "hit": false,
      "t": 33586.90950000003,
      "d": 96.46725624999817,
      "v": 114
    },
    {
      "midi": 75,
      "hit": false,
      "t": 33912.99600000003,
      "d": 1266.3025750000015,
      "v": 111
    },
    {
      "midi": 79,
      "hit": false,
      "t": 33912.99600000003,
      "d": 1293.476450000002,
      "v": 117
    },
    {
      "midi": 71,
      "hit": false,
      "t": 33912.99600000003,
      "d": 1301.6286125000042,
      "v": 92
    },
    {
      "midi": 65,
      "hit": false,
      "t": 33912.99600000003,
      "d": 1360.0524437500062,
      "v": 94
    },
    {
      "midi": 77,
      "hit": false,
      "t": 35543.42850000003,
      "d": 27.173875000000407,
      "v": 72
    },
    {
      "midi": 77,
      "hit": false,
      "t": 35706.47175000003,
      "d": 116.84766249999666,
      "v": 127
    },
    {
      "midi": 65,
      "hit": false,
      "t": 35869.51500000003,
      "d": 116.84766249999666,
      "v": 127
    },
    {
      "midi": 67,
      "hit": false,
      "t": 36032.558250000024,
      "d": 104.61941875000048,
      "v": 112
    },
    {
      "midi": 70,
      "hit": false,
      "t": 36195.601500000026,
      "d": 104.61941875000048,
      "v": 124
    },
    {
      "midi": 72,
      "hit": false,
      "t": 36358.64475000003,
      "d": 52.98905625000043,
      "v": 124
    },
    {
      "midi": 77,
      "hit": false,
      "t": 36521.68800000003,
      "d": 271.7387499999968,
      "v": 124
    },
    {
      "midi": 74,
      "hit": false,
      "t": 36521.68800000003,
      "d": 274.45613749999757,
      "v": 127
    },
    {
      "midi": 72,
      "hit": false,
      "t": 37010.81775000003,
      "d": 4.0760812500011525,
      "v": 114
    },
    {
      "midi": 75,
      "hit": false,
      "t": 37010.81775000003,
      "d": 5.434775000001537,
      "v": 127
    },
    {
      "midi": 72,
      "hit": false,
      "t": 38641.250250000034,
      "d": 65.21729999999661,
      "v": 127
    },
    {
      "midi": 75,
      "hit": false,
      "t": 38804.29350000003,
      "d": 119.56504999999743,
      "v": 127
    },
    {
      "midi": 72,
      "hit": false,
      "t": 39130.38000000003,
      "d": 338.31474375000107,
      "v": 127
    },
    {
      "midi": 70,
      "hit": false,
      "t": 39456.466500000024,
      "d": 157.6084750000009,
      "v": 121
    },
    {
      "midi": 70,
      "hit": false,
      "t": 39619.50975000003,
      "d": 167.1193312500036,
      "v": 115
    },
    {
      "midi": 72,
      "hit": false,
      "t": 39945.59625000003,
      "d": 156.24978125000052,
      "v": 127
    },
    {
      "midi": 74,
      "hit": false,
      "t": 41086.899000000034,
      "d": 27.173875000000407,
      "v": 111
    },
    {
      "midi": 70,
      "hit": false,
      "t": 41086.899000000034,
      "d": 145.38023124999745,
      "v": 127
    },
    {
      "midi": 82,
      "hit": false,
      "t": 41086.899000000034,
      "d": 169.8367187499971,
      "v": 118
    },
    {
      "midi": 84,
      "hit": false,
      "t": 41412.98550000003,
      "d": 77.44554375000007,
      "v": 127
    },
    {
      "midi": 72,
      "hit": false,
      "t": 41412.98550000003,
      "d": 107.33680625000125,
      "v": 120
    },
    {
      "midi": 75,
      "hit": false,
      "t": 41576.028750000034,
      "d": 131.79329375000088,
      "v": 112
    },
    {
      "midi": 82,
      "hit": false,
      "t": 41739.07200000004,
      "d": 197.0105937499975,
      "v": 104
    },
    {
      "midi": 70,
      "hit": false,
      "t": 41739.07200000004,
      "d": 210.59753124999406,
      "v": 127
    },
    {
      "midi": 67,
      "hit": false,
      "t": 42065.158500000034,
      "d": 131.79329375000088,
      "v": 106
    },
    {
      "midi": 79,
      "hit": false,
      "t": 42065.158500000034,
      "d": 172.55410624999786,
      "v": 107
    },
    {
      "midi": 79,
      "hit": false,
      "t": 42391.24500000003,
      "d": 543.4775000000009,
      "v": 122
    },
    {
      "midi": 67,
      "hit": false,
      "t": 42391.24500000003,
      "d": 597.8252500000017,
      "v": 114
    },
    {
      "midi": 67,
      "hit": false,
      "t": 43206.46125000004,
      "d": 286.684381250001,
      "v": 117
    },
    {
      "midi": 79,
      "hit": false,
      "t": 43206.46125000004,
      "d": 324.7278062500045,
      "v": 127
    },
    {
      "midi": 70,
      "hit": false,
      "t": 43695.591000000044,
      "d": 78.80423750000045,
      "v": 101
    },
    {
      "midi": 82,
      "hit": false,
      "t": 43695.591000000044,
      "d": 118.20635624999704,
      "v": 115
    },
    {
      "midi": 84,
      "hit": false,
      "t": 44021.67750000004,
      "d": 66.575993749997,
      "v": 115
    },
    {
      "midi": 72,
      "hit": false,
      "t": 44021.67750000004,
      "d": 78.80423750000045,
      "v": 107
    },
    {
      "midi": 75,
      "hit": false,
      "t": 44347.76400000004,
      "d": 1508.1500624999971,
      "v": 87
    },
    {
      "midi": 79,
      "hit": false,
      "t": 44347.76400000004,
      "d": 1533.9652437499972,
      "v": 102
    },
    {
      "midi": 67,
      "hit": false,
      "t": 44347.76400000004,
      "d": 1577.443443749995,
      "v": 90
    },
    {
      "midi": 66,
      "hit": false,
      "t": 46467.326250000035,
      "d": 326.0864999999976,
      "v": 121
    },
    {
      "midi": 78,
      "hit": false,
      "t": 46467.326250000035,
      "d": 365.4886187499942,
      "v": 115
    },
    {
      "midi": 65,
      "hit": false,
      "t": 46793.41275000003,
      "d": 66.575993749997,
      "v": 83
    },
    {
      "midi": 76,
      "hit": false,
      "t": 46956.45600000003,
      "d": 16.304324999997334,
      "v": 127
    },
    {
      "midi": 77,
      "hit": false,
      "t": 46956.45600000003,
      "d": 188.8584312499952,
      "v": 127
    },
    {
      "midi": 65,
      "hit": false,
      "t": 46956.45600000003,
      "d": 205.16275624999253,
      "v": 115
    },
    {
      "midi": 69,
      "hit": false,
      "t": 46956.45600000003,
      "d": 404.8907374999908,
      "v": 100
    },
    {
      "midi": 63,
      "hit": false,
      "t": 47282.54250000002,
      "d": 130.4346000000005,
      "v": 108
    },
    {
      "midi": 75,
      "hit": false,
      "t": 47282.54250000002,
      "d": 145.38023124999745,
      "v": 99
    },
    {
      "midi": 69,
      "hit": false,
      "t": 47445.58575000001,
      "d": 67.93468749999738,
      "v": 124
    },
    {
      "midi": 63,
      "hit": false,
      "t": 47445.58575000001,
      "d": 119.56504999999743,
      "v": 113
    },
    {
      "midi": 75,
      "hit": false,
      "t": 47445.58575000001,
      "d": 131.79329375000088,
      "v": 108
    },
    {
      "midi": 69,
      "hit": false,
      "t": 49565.148000000016,
      "d": 92.39117499999702,
      "v": 122
    },
    {
      "midi": 63,
      "hit": false,
      "t": 49565.148000000016,
      "d": 133.151987499994,
      "v": 121
    },
    {
      "midi": 75,
      "hit": false,
      "t": 49565.148000000016,
      "d": 134.51068124999438,
      "v": 106
    },
    {
      "midi": 63,
      "hit": false,
      "t": 49891.23450000001,
      "d": 131.79329375000088,
      "v": 124
    },
    {
      "midi": 75,
      "hit": false,
      "t": 49891.23450000001,
      "d": 169.83671875000437,
      "v": 118
    },
    {
      "midi": 65,
      "hit": false,
      "t": 50380.36425000002,
      "d": 21.73909999999887,
      "v": 111
    },
    {
      "midi": 77,
      "hit": false,
      "t": 50380.36425000002,
      "d": 21.73909999999887,
      "v": 115
    },
    {
      "midi": 65,
      "hit": false,
      "t": 50706.45075000002,
      "d": 69.29338124999776,
      "v": 127
    },
    {
      "midi": 77,
      "hit": false,
      "t": 50869.49400000001,
      "d": 81.52162500000122,
      "v": 127
    },
    {
      "midi": 73,
      "hit": false,
      "t": 51032.537250000016,
      "d": 52.98905625000043,
      "v": 98
    },
    {
      "midi": 65,
      "hit": false,
      "t": 51195.58050000002,
      "d": 354.6190687500057,
      "v": 127
    },
    {
      "midi": 77,
      "hit": false,
      "t": 51195.58050000002,
      "d": 383.1516375000065,
      "v": 127
    },
    {
      "midi": 66,
      "hit": false,
      "t": 51684.710250000026,
      "d": 302.98870625000563,
      "v": 124
    },
    {
      "midi": 78,
      "hit": false,
      "t": 51684.710250000026,
      "d": 327.4451937500053,
      "v": 121
    },
    {
      "midi": 69,
      "hit": false,
      "t": 52173.84000000003,
      "d": 67.93468749999738,
      "v": 124
    },
    {
      "midi": 77,
      "hit": false,
      "t": 52173.84000000003,
      "d": 93.7498687499974,
      "v": 127
    },
    {
      "midi": 65,
      "hit": false,
      "t": 52173.84000000003,
      "d": 95.10856249999779,
      "v": 117
    },
    {
      "midi": 75,
      "hit": false,
      "t": 52499.92650000003,
      "d": 118.20635624999704,
      "v": 71
    },
    {
      "midi": 63,
      "hit": false,
      "t": 52662.969750000026,
      "d": 119.5650500000047,
      "v": 88
    },
    {
      "midi": 67,
      "hit": false,
      "t": 52662.969750000026,
      "d": 119.5650500000047,
      "v": 98
    },
    {
      "midi": 63,
      "hit": false,
      "t": 52826.01300000003,
      "d": 92.39117499999702,
      "v": 104
    },
    {
      "midi": 67,
      "hit": false,
      "t": 52826.01300000003,
      "d": 93.7498687499974,
      "v": 115
    },
    {
      "midi": 75,
      "hit": false,
      "t": 52826.01300000003,
      "d": 104.61941875000048,
      "v": 103
    },
    {
      "midi": 63,
      "hit": false,
      "t": 55108.618500000026,
      "d": 131.79329375000088,
      "v": 127
    },
    {
      "midi": 75,
      "hit": false,
      "t": 55108.618500000026,
      "d": 144.02153750000434,
      "v": 124
    },
    {
      "midi": 63,
      "hit": false,
      "t": 55434.70500000003,
      "d": 158.9671687500013,
      "v": 118
    },
    {
      "midi": 75,
      "hit": false,
      "t": 55434.70500000003,
      "d": 158.9671687500013,
      "v": 113
    },
    {
      "midi": 65,
      "hit": false,
      "t": 55760.791500000036,
      "d": 92.39117499999702,
      "v": 105
    },
    {
      "midi": 77,
      "hit": false,
      "t": 55760.791500000036,
      "d": 92.39117499999702,
      "v": 120
    },
    {
      "midi": 79,
      "hit": false,
      "t": 56086.87800000003,
      "d": 244.5648749999964,
      "v": 127
    },
    {
      "midi": 87,
      "hit": false,
      "t": 56086.87800000003,
      "d": 259.51050624999334,
      "v": 110
    },
    {
      "midi": 75,
      "hit": false,
      "t": 56086.87800000003,
      "d": 290.7604624999949,
      "v": 90
    },
    {
      "midi": 84,
      "hit": false,
      "t": 56739.05100000003,
      "d": 206.5214500000002,
      "v": 126
    },
    {
      "midi": 72,
      "hit": false,
      "t": 56739.05100000003,
      "d": 249.99964999999793,
      "v": 118
    },
    {
      "midi": 70,
      "hit": false,
      "t": 57065.137500000026,
      "d": 39.40211874999659,
      "v": 69
    },
    {
      "midi": 73,
      "hit": false,
      "t": 57228.18075000002,
      "d": 80.16293125000084,
      "v": 104
    },
    {
      "midi": 77,
      "hit": false,
      "t": 57391.224000000024,
      "d": 85.59770625000237,
      "v": 127
    },
    {
      "midi": 65,
      "hit": false,
      "t": 57391.224000000024,
      "d": 145.38023125000473,
      "v": 127
    },
    {
      "midi": 75,
      "hit": false,
      "t": 57717.31050000003,
      "d": 131.79329375000088,
      "v": 94
    },
    {
      "midi": 63,
      "hit": false,
      "t": 57717.31050000003,
      "d": 144.02153750000434,
      "v": 86
    },
    {
      "midi": 63,
      "hit": false,
      "t": 57880.35375000003,
      "d": 122.28243750000547,
      "v": 113
    },
    {
      "midi": 75,
      "hit": false,
      "t": 57880.35375000003,
      "d": 134.51068125000893,
      "v": 103
    },
    {
      "midi": 77,
      "hit": false,
      "t": 58206.44025000004,
      "d": 158.9671687500013,
      "v": 124
    },
    {
      "midi": 65,
      "hit": false,
      "t": 58206.44025000004,
      "d": 160.32586250000168,
      "v": 107
    },
    {
      "midi": 76,
      "hit": false,
      "t": 59999.91600000005,
      "d": 27.173875000000407,
      "v": 100
    },
    {
      "midi": 65,
      "hit": false,
      "t": 59999.91600000005,
      "d": 69.29338124999776,
      "v": 124
    },
    {
      "midi": 68,
      "hit": false,
      "t": 59999.91600000005,
      "d": 82.88031874999433,
      "v": 124
    },
    {
      "midi": 72,
      "hit": false,
      "t": 59999.91600000005,
      "d": 95.10856249999779,
      "v": 127
    },
    {
      "midi": 77,
      "hit": false,
      "t": 59999.91600000005,
      "d": 100.54333749999932,
      "v": 127
    },
    {
      "midi": 63,
      "hit": false,
      "t": 60326.002500000046,
      "d": 96.46725624999817,
      "v": 104
    },
    {
      "midi": 75,
      "hit": false,
      "t": 60326.002500000046,
      "d": 120.92374374999781,
      "v": 96
    },
    {
      "midi": 68,
      "hit": false,
      "t": 60652.08900000004,
      "d": 40.76081249999697,
      "v": 99
    },
    {
      "midi": 72,
      "hit": false,
      "t": 60652.08900000004,
      "d": 104.61941875000048,
      "v": 102
    },
    {
      "midi": 63,
      "hit": false,
      "t": 60652.08900000004,
      "d": 134.51068125000165,
      "v": 110
    },
    {
      "midi": 75,
      "hit": false,
      "t": 60652.08900000004,
      "d": 134.51068125000165,
      "v": 99
    },
    {
      "midi": 68,
      "hit": false,
      "t": 60978.17550000005,
      "d": 52.98905625000043,
      "v": 86
    },
    {
      "midi": 77,
      "hit": false,
      "t": 60978.17550000005,
      "d": 92.39117499999702,
      "v": 126
    },
    {
      "midi": 65,
      "hit": false,
      "t": 60978.17550000005,
      "d": 95.10856249999779,
      "v": 104
    },
    {
      "midi": 82,
      "hit": false,
      "t": 61304.262000000046,
      "d": 169.8367187499971,
      "v": 127
    },
    {
      "midi": 74,
      "hit": false,
      "t": 61304.262000000046,
      "d": 172.55410624999786,
      "v": 127
    },
    {
      "midi": 70,
      "hit": false,
      "t": 61304.262000000046,
      "d": 186.14104374999442,
      "v": 127
    },
    {
      "midi": 74,
      "hit": false,
      "t": 61630.348500000044,
      "d": 486.4123624999993,
      "v": 127
    },
    {
      "midi": 70,
      "hit": false,
      "t": 61630.348500000044,
      "d": 495.923218750002,
      "v": 127
    },
    {
      "midi": 82,
      "hit": false,
      "t": 61630.348500000044,
      "d": 514.9449312500074,
      "v": 127
    },
    {
      "midi": 71,
      "hit": false,
      "t": 62119.478250000044,
      "d": 228.26054999999906,
      "v": 120
    },
    {
      "midi": 77,
      "hit": false,
      "t": 62119.478250000044,
      "d": 229.61924374999944,
      "v": 127
    },
    {
      "midi": 80,
      "hit": false,
      "t": 62119.478250000044,
      "d": 241.8474875000029,
      "v": 127
    },
    {
      "midi": 83,
      "hit": false,
      "t": 62119.478250000044,
      "d": 331.5212750000064,
      "v": 126
    },
    {
      "midi": 74,
      "hit": false,
      "t": 62282.521500000046,
      "d": 14.94563124999695,
      "v": 114
    },
    {
      "midi": 73,
      "hit": false,
      "t": 62608.60800000005,
      "d": 1048.9115750000055,
      "v": 111
    },
    {
      "midi": 77,
      "hit": false,
      "t": 62608.60800000005,
      "d": 1061.139818750009,
      "v": 106
    },
    {
      "midi": 84,
      "hit": false,
      "t": 62608.60800000005,
      "d": 1076.085450000006,
      "v": 124
    },
    {
      "midi": 80,
      "hit": false,
      "t": 62608.60800000005,
      "d": 1089.6723875000025,
      "v": 118
    },
    {
      "midi": 81,
      "hit": false,
      "t": 63749.910750000054,
      "d": 533.9666437499982,
      "v": 109
    },
    {
      "midi": 72,
      "hit": false,
      "t": 63749.910750000054,
      "d": 624.9991249999948,
      "v": 98
    },
    {
      "midi": 84,
      "hit": false,
      "t": 63749.910750000054,
      "d": 676.6294874999949,
      "v": 111
    },
    {
      "midi": 75,
      "hit": false,
      "t": 63749.910750000054,
      "d": 688.8577312499983,
      "v": 88
    },
    {
      "midi": 82,
      "hit": false,
      "t": 64565.12700000005,
      "d": 209.23883750000095,
      "v": 118
    },
    {
      "midi": 84,
      "hit": false,
      "t": 64891.21350000005,
      "d": 78.80423750000045,
      "v": 127
    },
    {
      "midi": 80,
      "hit": false,
      "t": 65217.300000000054,
      "d": 80.16293125000084,
      "v": 124
    },
    {
      "midi": 87,
      "hit": false,
      "t": 65217.300000000054,
      "d": 92.3911750000043,
      "v": 124
    },
    {
      "midi": 75,
      "hit": false,
      "t": 65217.300000000054,
      "d": 110.05419375000201,
      "v": 110
    },
    {
      "midi": 82,
      "hit": false,
      "t": 65543.38650000005,
      "d": 80.16293125000084,
      "v": 104
    },
    {
      "midi": 80,
      "hit": false,
      "t": 65706.42975000004,
      "d": 736.4120125000045,
      "v": 101
    },
    {
      "midi": 84,
      "hit": false,
      "t": 65706.42975000004,
      "d": 1305.7046937499981,
      "v": 115
    },
    {
      "midi": 72,
      "hit": false,
      "t": 65706.42975000004,
      "d": 1322.0090187500027,
      "v": 97
    },
    {
      "midi": 79,
      "hit": false,
      "t": 66521.64600000004,
      "d": 452.44501875000424,
      "v": 94
    },
    {
      "midi": 79,
      "hit": false,
      "t": 67010.77575000004,
      "d": 66.575993749997,
      "v": 118
    },
    {
      "midi": 70,
      "hit": false,
      "t": 67173.81900000003,
      "d": 161.68455625000934,
      "v": 127
    },
    {
      "midi": 82,
      "hit": false,
      "t": 67173.81900000003,
      "d": 198.36928750001243,
      "v": 108
    },
    {
      "midi": 72,
      "hit": false,
      "t": 67499.90550000005,
      "d": 67.93468750000466,
      "v": 114
    },
    {
      "midi": 84,
      "hit": false,
      "t": 67499.90550000005,
      "d": 80.16293125000084,
      "v": 127
    },
    {
      "midi": 82,
      "hit": false,
      "t": 67825.99200000006,
      "d": 1975.5407125000056,
      "v": 124
    },
    {
      "midi": 73,
      "hit": false,
      "t": 67825.99200000006,
      "d": 2084.2362125000072,
      "v": 115
    },
    {
      "midi": 78,
      "hit": false,
      "t": 67825.99200000006,
      "d": 2084.2362125000072,
      "v": 127
    },
    {
      "midi": 85,
      "hit": false,
      "t": 67825.99200000006,
      "d": 2099.181843750004,
      "v": 115
    },
    {
      "midi": 82,
      "hit": false,
      "t": 69945.55425000006,
      "d": 63.85860624999623,
      "v": 104
    },
    {
      "midi": 78,
      "hit": false,
      "t": 70108.59750000005,
      "d": 55.70644374999392,
      "v": 121
    },
    {
      "midi": 73,
      "hit": false,
      "t": 70108.59750000005,
      "d": 67.9346874999901,
      "v": 118
    },
    {
      "midi": 85,
      "hit": false,
      "t": 70108.59750000005,
      "d": 118.20635624999704,
      "v": 124
    },
    {
      "midi": 78,
      "hit": false,
      "t": 70271.64075000005,
      "d": 27.17387499999313,
      "v": 68
    },
    {
      "midi": 86,
      "hit": false,
      "t": 70434.68400000004,
      "d": 1047.5528812499979,
      "v": 127
    },
    {
      "midi": 79,
      "hit": false,
      "t": 70434.68400000004,
      "d": 1077.4441437499918,
      "v": 127
    },
    {
      "midi": 83,
      "hit": false,
      "t": 70434.68400000004,
      "d": 1077.4441437499918,
      "v": 127
    },
    {
      "midi": 74,
      "hit": false,
      "t": 70434.68400000004,
      "d": 1093.7484687499964,
      "v": 117
    },
    {
      "midi": 74,
      "hit": false,
      "t": 72065.11650000005,
      "d": 313.8582562500087,
      "v": 127
    },
    {
      "midi": 70,
      "hit": false,
      "t": 72065.11650000005,
      "d": 354.6190687500057,
      "v": 127
    },
    {
      "midi": 82,
      "hit": false,
      "t": 72065.11650000005,
      "d": 364.1299250000011,
      "v": 124
    },
    {
      "midi": 71,
      "hit": false,
      "t": 72554.24625000005,
      "d": 173.91279999999097,
      "v": 127
    },
    {
      "midi": 74,
      "hit": false,
      "t": 72554.24625000005,
      "d": 186.14104374998715,
      "v": 127
    },
    {
      "midi": 83,
      "hit": false,
      "t": 72554.24625000005,
      "d": 210.59753124999406,
      "v": 124
    },
    {
      "midi": 72,
      "hit": false,
      "t": 73043.37600000005,
      "d": 1152.1723000000056,
      "v": 99
    },
    {
      "midi": 84,
      "hit": false,
      "t": 73043.37600000005,
      "d": 1226.900456250005,
      "v": 117
    },
    {
      "midi": 80,
      "hit": false,
      "t": 73043.37600000005,
      "d": 1254.074331249998,
      "v": 115
    },
    {
      "midi": 81,
      "hit": false,
      "t": 74347.72200000004,
      "d": 338.31474375000107,
      "v": 101
    },
    {
      "midi": 84,
      "hit": false,
      "t": 74347.72200000004,
      "d": 339.6734374999942,
      "v": 105
    },
    {
      "midi": 72,
      "hit": false,
      "t": 74347.72200000004,
      "d": 368.20600624999497,
      "v": 98
    },
    {
      "midi": 76,
      "hit": false,
      "t": 74836.85175000003,
      "d": 119.5650500000047,
      "v": 101
    },
    {
      "midi": 70,
      "hit": false,
      "t": 74999.89500000003,
      "d": 133.15198750000854,
      "v": 127
    },
    {
      "midi": 82,
      "hit": false,
      "t": 74999.89500000003,
      "d": 158.96716875000857,
      "v": 104
    },
    {
      "midi": 72,
      "hit": false,
      "t": 75325.98150000004,
      "d": 27.17387499999313,
      "v": 78
    },
    {
      "midi": 84,
      "hit": false,
      "t": 75325.98150000004,
      "d": 66.575993749997,
      "v": 124
    },
    {
      "midi": 82,
      "hit": false,
      "t": 75489.02475000004,
      "d": 105.97811250000086,
      "v": 77
    },
    {
      "midi": 75,
      "hit": false,
      "t": 75652.06800000004,
      "d": 82.88031874998705,
      "v": 108
    },
    {
      "midi": 87,
      "hit": false,
      "t": 75652.06800000004,
      "d": 82.88031874998705,
      "v": 118
    },
    {
      "midi": 82,
      "hit": false,
      "t": 75978.15450000002,
      "d": 39.402118750003865,
      "v": 89
    },
    {
      "midi": 84,
      "hit": false,
      "t": 76141.19775000002,
      "d": 1088.3136937500094,
      "v": 110
    },
    {
      "midi": 80,
      "hit": false,
      "t": 76141.19775000002,
      "d": 1115.4875687500025,
      "v": 99
    },
    {
      "midi": 72,
      "hit": false,
      "t": 76141.19775000002,
      "d": 1129.0745062500064,
      "v": 100
    },
    {
      "midi": 78,
      "hit": false,
      "t": 77608.58700000003,
      "d": 81.52162499999395,
      "v": 91
    },
    {
      "midi": 70,
      "hit": false,
      "t": 77608.58700000003,
      "d": 157.60847499998636,
      "v": 101
    },
    {
      "midi": 82,
      "hit": false,
      "t": 77608.58700000003,
      "d": 169.83671874998254,
      "v": 115
    },
    {
      "midi": 72,
      "hit": false,
      "t": 77934.6735,
      "d": 144.02153749999707,
      "v": 107
    },
    {
      "midi": 84,
      "hit": false,
      "t": 77934.6735,
      "d": 144.02153749999707,
      "v": 118
    },
    {
      "midi": 82,
      "hit": false,
      "t": 78260.76,
      "d": 1985.051568750001,
      "v": 106
    },
    {
      "midi": 73,
      "hit": false,
      "t": 78260.76,
      "d": 2092.388374999995,
      "v": 101
    },
    {
      "midi": 78,
      "hit": false,
      "t": 78260.76,
      "d": 2092.388374999995,
      "v": 106
    },
    {
      "midi": 85,
      "hit": false,
      "t": 78260.76,
      "d": 2122.279637499989,
      "v": 108
    },
    {
      "midi": 73,
      "hit": false,
      "t": 80543.36549999999,
      "d": 51.63036250000005,
      "v": 99
    },
    {
      "midi": 82,
      "hit": false,
      "t": 80543.36549999999,
      "d": 63.85860624999623,
      "v": 104
    },
    {
      "midi": 85,
      "hit": false,
      "t": 80543.36549999999,
      "d": 93.74986874999013,
      "v": 115
    },
    {
      "midi": 74,
      "hit": false,
      "t": 80869.45199999998,
      "d": 817.9336374999984,
      "v": 122
    },
    {
      "midi": 86,
      "hit": false,
      "t": 80869.45199999998,
      "d": 826.0858000000007,
      "v": 126
    },
    {
      "midi": 83,
      "hit": false,
      "t": 80869.45199999998,
      "d": 841.0314312499977,
      "v": 126
    },
    {
      "midi": 79,
      "hit": false,
      "t": 80869.45199999998,
      "d": 908.9661187500024,
      "v": 127
    },
    {
      "midi": 87,
      "hit": false,
      "t": 82173.79799999998,
      "d": 399.45596249999653,
      "v": 103
    },
    {
      "midi": 80,
      "hit": false,
      "t": 82173.79799999998,
      "d": 403.5320437499904,
      "v": 99
    },
    {
      "midi": 77,
      "hit": false,
      "t": 82173.79799999998,
      "d": 432.0646124999912,
      "v": 87
    },
    {
      "midi": 83,
      "hit": false,
      "t": 82173.79799999998,
      "d": 444.2928562499874,
      "v": 104
    },
    {
      "midi": 85,
      "hit": false,
      "t": 83336.83985,
      "d": 108.69550000000163,
      "v": 127
    },
    {
      "midi": 86,
      "hit": false,
      "t": 83445.53535,
      "d": 304.34739999999874,
      "v": 126
    },
    {
      "midi": 88,
      "hit": false,
      "t": 83478.14399999997,
      "d": 146.73892499999783,
      "v": 100
    },
    {
      "midi": 74,
      "hit": false,
      "t": 83478.14399999997,
      "d": 1578.8021374999953,
      "v": 100
    },
    {
      "midi": 79,
      "hit": false,
      "t": 83478.14399999997,
      "d": 1627.7151124999946,
      "v": 94
    },
    {
      "midi": 82,
      "hit": false,
      "t": 83478.14399999997,
      "d": 1682.0628624999954,
      "v": 88
    },
    {
      "midi": 86,
      "hit": false,
      "t": 83478.14399999997,
      "d": 1711.9541249999893,
      "v": 94
    },
    {
      "midi": 58,
      "hit": false,
      "t": 83478.144,
      "d": 343.7495187500026,
      "v": 80
    },
    {
      "midi": 62,
      "hit": false,
      "t": 83478.144,
      "d": 355.9777624999988,
      "v": 81
    },
    {
      "midi": 63,
      "hit": false,
      "t": 83478.144,
      "d": 355.9777624999988,
      "v": 71
    },
    {
      "midi": 67,
      "hit": false,
      "t": 83478.144,
      "d": 381.7929437499988,
      "v": 74
    },
    {
      "midi": 84,
      "hit": false,
      "t": 83804.2305,
      "d": 105.97811250000086,
      "v": 105
    },
    {
      "midi": 86,
      "hit": false,
      "t": 83967.27375000001,
      "d": 142.66284375000396,
      "v": 111
    },
    {
      "midi": 84,
      "hit": false,
      "t": 84293.36025000001,
      "d": 103.2607250000001,
      "v": 122
    },
    {
      "midi": 79,
      "hit": false,
      "t": 84456.40350000001,
      "d": 103.2607250000001,
      "v": 105
    },
    {
      "midi": 75,
      "hit": false,
      "t": 84619.44675000002,
      "d": 65.21730000000389,
      "v": 93
    },
    {
      "midi": 73,
      "hit": false,
      "t": 84724.06616875003,
      "d": 77.44554375000007,
      "v": 106
    },
    {
      "midi": 74,
      "hit": false,
      "t": 84815.09865000003,
      "d": 118.20635624999704,
      "v": 89
    },
    {
      "midi": 79,
      "hit": false,
      "t": 85108.57650000002,
      "d": 141.3041499999963,
      "v": 100
    },
    {
      "midi": 72,
      "hit": false,
      "t": 85271.61975000003,
      "d": 366.84731250000186,
      "v": 90
    },
    {
      "midi": 67,
      "hit": false,
      "t": 85623.52143125003,
      "d": 54.347750000000815,
      "v": 77
    },
    {
      "midi": 63,
      "hit": false,
      "t": 85638.46706250003,
      "d": 39.402118750003865,
      "v": 60
    },
    {
      "midi": 72,
      "hit": false,
      "t": 85923.79275000004,
      "d": 92.39117499999702,
      "v": 127
    },
    {
      "midi": 73,
      "hit": false,
      "t": 86022.97739375003,
      "d": 63.85860624999623,
      "v": 98
    },
    {
      "midi": 75,
      "hit": false,
      "t": 86142.54244375002,
      "d": 39.402118750003865,
      "v": 57
    },
    {
      "midi": 73,
      "hit": false,
      "t": 86196.89019375002,
      "d": 39.402118750003865,
      "v": 91
    },
    {
      "midi": 72,
      "hit": false,
      "t": 86249.87925000003,
      "d": 65.21730000000389,
      "v": 101
    },
    {
      "midi": 73,
      "hit": false,
      "t": 86412.92250000003,
      "d": 142.66284375000396,
      "v": 127
    },
    {
      "midi": 75,
      "hit": false,
      "t": 86575.96575000003,
      "d": 163.04325000000244,
      "v": 110
    },
    {
      "midi": 76,
      "hit": false,
      "t": 86739.00900000003,
      "d": 163.04325000000244,
      "v": 104
    },
    {
      "midi": 79,
      "hit": false,
      "t": 86902.05225000004,
      "d": 163.04325000000244,
      "v": 124
    },
    {
      "midi": 82,
      "hit": false,
      "t": 87065.09550000004,
      "d": 163.04325000000244,
      "v": 118
    },
    {
      "midi": 84,
      "hit": false,
      "t": 87228.13875000004,
      "d": 163.04325000000244,
      "v": 117
    },
    {
      "midi": 85,
      "hit": false,
      "t": 87391.18200000004,
      "d": 163.04325000000244,
      "v": 127
    },
    {
      "midi": 87,
      "hit": false,
      "t": 87554.22525000005,
      "d": 163.04325000000244,
      "v": 98
    },
    {
      "midi": 84,
      "hit": false,
      "t": 87880.31175000005,
      "d": 163.04325000000244,
      "v": 122
    },
    {
      "midi": 82,
      "hit": false,
      "t": 88206.39825000006,
      "d": 163.04325000000244,
      "v": 124
    },
    {
      "midi": 80,
      "hit": false,
      "t": 88532.48475000006,
      "d": 163.04325000000244,
      "v": 127
    },
    {
      "midi": 77,
      "hit": false,
      "t": 88623.51723125007,
      "d": 72.01076874999853,
      "v": 88
    },
    {
      "midi": 78,
      "hit": false,
      "t": 88637.10416875007,
      "d": 58.42383124999469,
      "v": 118
    },
    {
      "midi": 56,
      "hit": false,
      "t": 88695.52800000006,
      "d": 42.11950625000463,
      "v": 48
    },
    {
      "midi": 60,
      "hit": false,
      "t": 88695.52800000006,
      "d": 74.7281562499993,
      "v": 80
    },
    {
      "midi": 63,
      "hit": false,
      "t": 88695.52800000006,
      "d": 89.67378749999625,
      "v": 81
    },
    {
      "midi": 55,
      "hit": false,
      "t": 88695.52800000006,
      "d": 103.2607250000001,
      "v": 69
    },
    {
      "midi": 79,
      "hit": false,
      "t": 88695.52800000006,
      "d": 104.6194187499932,
      "v": 102
    },
    {
      "midi": 75,
      "hit": false,
      "t": 88858.57125000005,
      "d": 65.21730000000389,
      "v": 99
    },
    {
      "midi": 72,
      "hit": false,
      "t": 89021.61450000005,
      "d": 163.04325000000244,
      "v": 89
    },
    {
      "midi": 73,
      "hit": false,
      "t": 89184.65775000006,
      "d": 163.04325000000244,
      "v": 101
    },
    {
      "midi": 75,
      "hit": false,
      "t": 89347.70100000006,
      "d": 163.04325000000244,
      "v": 127
    },
    {
      "midi": 72,
      "hit": false,
      "t": 89510.74425000006,
      "d": 163.04325000000244,
      "v": 107
    },
    {
      "midi": 68,
      "hit": false,
      "t": 89673.78750000006,
      "d": 163.04325000000244,
      "v": 96
    },
    {
      "midi": 70,
      "hit": false,
      "t": 89836.83075000007,
      "d": 163.04325000000244,
      "v": 108
    },
    {
      "midi": 72,
      "hit": false,
      "t": 89999.87400000007,
      "d": 163.04325000000244,
      "v": 127
    },
    {
      "midi": 68,
      "hit": false,
      "t": 90162.91725000007,
      "d": 163.04325000000244,
      "v": 95
    },
    {
      "midi": 65,
      "hit": false,
      "t": 90489.00375000008,
      "d": 163.04325000000244,
      "v": 107
    },
    {
      "midi": 67,
      "hit": false,
      "t": 90815.09025000008,
      "d": 163.04325000000244,
      "v": 118
    },
    {
      "midi": 68,
      "hit": false,
      "t": 90978.13350000008,
      "d": 163.04325000000244,
      "v": 118
    },
    {
      "midi": 70,
      "hit": false,
      "t": 91141.17675000009,
      "d": 163.04325000000244,
      "v": 121
    },
    {
      "midi": 53,
      "hit": false,
      "t": 91304.22000000009,
      "d": 82.88031874998705,
      "v": 85
    },
    {
      "midi": 70,
      "hit": false,
      "t": 91304.22000000009,
      "d": 100.54333749998477,
      "v": 118
    },
    {
      "midi": 56,
      "hit": false,
      "t": 91304.22000000009,
      "d": 107.33680624997942,
      "v": 81
    },
    {
      "midi": 63,
      "hit": false,
      "t": 91304.22000000009,
      "d": 107.33680624997942,
      "v": 81
    },
    {
      "midi": 59,
      "hit": false,
      "t": 91304.22000000009,
      "d": 108.69549999997253,
      "v": 91
    },
    {
      "midi": 71,
      "hit": false,
      "t": 91385.74162500008,
      "d": 129.07590624998556,
      "v": 101
    },
    {
      "midi": 70,
      "hit": false,
      "t": 91594.98046250007,
      "d": 144.02153749999707,
      "v": 118
    },
    {
      "midi": 68,
      "hit": false,
      "t": 91831.39317500006,
      "d": 260.869200000001,
      "v": 127
    },
    {
      "midi": 53,
      "hit": false,
      "t": 91986.28426250006,
      "d": 51.63036250000005,
      "v": 81
    },
    {
      "midi": 59,
      "hit": false,
      "t": 92133.02318750006,
      "d": 57.06513749998703,
      "v": 102
    },
    {
      "midi": 63,
      "hit": false,
      "t": 92134.38188125005,
      "d": 70.65207499999087,
      "v": 113
    },
    {
      "midi": 65,
      "hit": false,
      "t": 92135.74057500005,
      "d": 96.4672562499909,
      "v": 122
    },
    {
      "midi": 56,
      "hit": false,
      "t": 92147.96881875004,
      "d": 27.173875000007683,
      "v": 69
    },
    {
      "midi": 53,
      "hit": false,
      "t": 92161.55575625005,
      "d": 27.173875000007683,
      "v": 77
    },
    {
      "midi": 68,
      "hit": false,
      "t": 92219.97958750004,
      "d": 91.03248124998936,
      "v": 94
    },
    {
      "midi": 71,
      "hit": false,
      "t": 92312.37076250002,
      "d": 65.21730000000389,
      "v": 95
    },
    {
      "midi": 75,
      "hit": false,
      "t": 92378.94675625002,
      "d": 80.16293124998629,
      "v": 99
    },
    {
      "midi": 77,
      "hit": false,
      "t": 92431.93581250001,
      "d": 66.575993749997,
      "v": 84
    },
    {
      "midi": 77,
      "hit": false,
      "t": 92592.26167500002,
      "d": 28.53256874998624,
      "v": 100
    },
    {
      "midi": 79,
      "hit": false,
      "t": 92593.62036875001,
      "d": 92.39117499999702,
      "v": 124
    },
    {
      "midi": 82,
      "hit": false,
      "t": 92594.9790625,
      "d": 131.79329375000088,
      "v": 127
    },
    {
      "midi": 77,
      "hit": false,
      "t": 92779.7614125,
      "d": 65.21730000000389,
      "v": 93
    },
    {
      "midi": 82,
      "hit": false,
      "t": 92912.9134,
      "d": 171.19541250000475,
      "v": 127
    },
    {
      "midi": 79,
      "hit": false,
      "t": 92926.50033750001,
      "d": 142.66284375000396,
      "v": 122
    },
    {
      "midi": 77,
      "hit": false,
      "t": 93137.09786875,
      "d": 474.18411874999583,
      "v": 127
    },
    {
      "midi": 80,
      "hit": false,
      "t": 93139.81525625,
      "d": 538.0427249999921,
      "v": 127
    },
    {
      "midi": 59,
      "hit": false,
      "t": 93486.2821625,
      "d": 108.69549999998708,
      "v": 88
    },
    {
      "midi": 63,
      "hit": false,
      "t": 93487.64085625,
      "d": 175.27149374999863,
      "v": 96
    },
    {
      "midi": 53,
      "hit": false,
      "t": 93501.22779375,
      "d": 39.402118750003865,
      "v": 90
    },
    {
      "midi": 56,
      "hit": false,
      "t": 93501.22779375,
      "d": 66.575993749997,
      "v": 73
    },
    {
      "midi": 77,
      "hit": false,
      "t": 93730.84703749999,
      "d": 78.80423749999318,
      "v": 127
    },
    {
      "midi": 78,
      "hit": false,
      "t": 93836.82514999998,
      "d": 76.08685000000696,
      "v": 121
    },
    {
      "midi": 79,
      "hit": false,
      "t": 93927.85763124998,
      "d": 226.90185624999867,
      "v": 98
    },
    {
      "midi": 58,
      "hit": false,
      "t": 94124.86822499998,
      "d": 55.70644374999392,
      "v": 79
    },
    {
      "midi": 62,
      "hit": false,
      "t": 94126.22691874998,
      "d": 81.52162499999395,
      "v": 88
    },
    {
      "midi": 67,
      "hit": false,
      "t": 94128.94430624998,
      "d": 105.97811250000086,
      "v": 91
    },
    {
      "midi": 63,
      "hit": false,
      "t": 94141.17254999997,
      "d": 80.16293125000084,
      "v": 81
    },
    {
      "midi": 86,
      "hit": false,
      "t": 94238.99849999997,
      "d": 197.01059375000477,
      "v": 127
    },
    {
      "midi": 84,
      "hit": false,
      "t": 94565.08499999998,
      "d": 144.02153749999707,
      "v": 127
    },
    {
      "midi": 79,
      "hit": false,
      "t": 94728.12824999998,
      "d": 91.03248125000391,
      "v": 120
    },
    {
      "midi": 75,
      "hit": false,
      "t": 94891.17149999998,
      "d": 116.84766250000393,
      "v": 101
    },
    {
      "midi": 72,
      "hit": false,
      "t": 95054.21474999998,
      "d": 65.21730000000389,
      "v": 107
    },
    {
      "midi": 73,
      "hit": false,
      "t": 95147.96461874999,
      "d": 92.39117499999702,
      "v": 91
    },
    {
      "midi": 79,
      "hit": false,
      "t": 95149.32331249998,
      "d": 247.28226249999716,
      "v": 111
    },
    {
      "midi": 67,
      "hit": false,
      "t": 95217.25799999999,
      "d": 40.76081249999697,
      "v": 60
    },
    {
      "midi": 74,
      "hit": false,
      "t": 95255.30142499998,
      "d": 168.47802499998943,
      "v": 85
    },
    {
      "midi": 74,
      "hit": false,
      "t": 95502.58368749997,
      "d": 158.96716875000857,
      "v": 102
    },
    {
      "midi": 79,
      "hit": false,
      "t": 95505.30107499997,
      "d": 116.84766250000393,
      "v": 103
    },
    {
      "midi": 72,
      "hit": false,
      "t": 95700.95297499998,
      "d": 396.7385749999812,
      "v": 110
    },
    {
      "midi": 79,
      "hit": false,
      "t": 95741.71378749998,
      "d": 278.53221874998417,
      "v": 83
    },
    {
      "midi": 58,
      "hit": false,
      "t": 96010.73514999998,
      "d": 69.29338124998321,
      "v": 88
    },
    {
      "midi": 62,
      "hit": false,
      "t": 96012.09384374997,
      "d": 81.52162499999395,
      "v": 98
    },
    {
      "midi": 63,
      "hit": false,
      "t": 96013.45253749996,
      "d": 110.05419374999474,
      "v": 95
    },
    {
      "midi": 67,
      "hit": false,
      "t": 96016.16992499997,
      "d": 78.80423749999318,
      "v": 101
    },
    {
      "midi": 79,
      "hit": false,
      "t": 96358.56074999996,
      "d": 92.39117499999702,
      "v": 122
    },
    {
      "midi": 74,
      "hit": false,
      "t": 96358.56074999996,
      "d": 134.51068125000165,
      "v": 122
    },
    {
      "midi": 58,
      "hit": false,
      "t": 96521.60399999996,
      "d": 42.11950625000463,
      "v": 71
    },
    {
      "midi": 65,
      "hit": false,
      "t": 96521.60399999996,
      "d": 81.5216250000085,
      "v": 83
    },
    {
      "midi": 61,
      "hit": false,
      "t": 96521.60399999996,
      "d": 82.8803187500016,
      "v": 82
    },
    {
      "midi": 73,
      "hit": false,
      "t": 96521.60399999996,
      "d": 163.04325000000244,
      "v": 110
    },
    {
      "midi": 76,
      "hit": false,
      "t": 96847.69049999997,
      "d": 163.04325000000244,
      "v": 117
    },
    {
      "midi": 65,
      "hit": false,
      "t": 97010.73374999997,
      "d": 66.575993749997,
      "v": 72
    },
    {
      "midi": 79,
      "hit": false,
      "t": 97010.73374999997,
      "d": 163.04325000000244,
      "v": 124
    },
    {
      "midi": 82,
      "hit": false,
      "t": 97173.77699999997,
      "d": 163.04325000000244,
      "v": 127
    },
    {
      "midi": 79,
      "hit": false,
      "t": 97336.82024999998,
      "d": 163.04325000000244,
      "v": 100
    },
    {
      "midi": 82,
      "hit": false,
      "t": 97499.86349999998,
      "d": 163.04325000000244,
      "v": 124
    },
    {
      "midi": 85,
      "hit": false,
      "t": 97662.90674999998,
      "d": 652.1729999999952,
      "v": 127
    },
    {
      "midi": 84,
      "hit": false,
      "t": 98315.07974999998,
      "d": 163.04325000000244,
      "v": 105
    },
    {
      "midi": 87,
      "hit": false,
      "t": 98478.12299999998,
      "d": 163.04325000000244,
      "v": 127
    },
    {
      "midi": 85,
      "hit": false,
      "t": 98641.16624999998,
      "d": 163.04325000000244,
      "v": 127
    },
    {
      "midi": 84,
      "hit": false,
      "t": 98967.25274999999,
      "d": 652.1729999999952,
      "v": 127
    },
    {
      "midi": 67,
      "hit": false,
      "t": 99456.38249999998,
      "d": 65.21730000000389,
      "v": 82
    },
    {
      "midi": 79,
      "hit": false,
      "t": 99619.42574999998,
      "d": 163.04325000000244,
      "v": 98
    },
    {
      "midi": 82,
      "hit": false,
      "t": 99782.46899999998,
      "d": 163.04325000000244,
      "v": 115
    },
    {
      "midi": 80,
      "hit": false,
      "t": 99945.51224999999,
      "d": 163.04325000000244,
      "v": 127
    },
    {
      "midi": 75,
      "hit": false,
      "t": 100271.59874999999,
      "d": 652.1729999999952,
      "v": 121
    },
    {
      "midi": 67,
      "hit": false,
      "t": 100760.72849999998,
      "d": 38.043424999996205,
      "v": 61
    },
    {
      "midi": 72,
      "hit": false,
      "t": 100923.77174999999,
      "d": 163.04325000000244,
      "v": 98
    },
    {
      "midi": 77,
      "hit": false,
      "t": 101086.81499999999,
      "d": 163.04325000000244,
      "v": 112
    },
    {
      "midi": 75,
      "hit": false,
      "t": 101412.90149999999,
      "d": 163.04325000000244,
      "v": 108
    },
    {
      "midi": 71,
      "hit": false,
      "t": 101738.988,
      "d": 483.6949750000058,
      "v": 118
    },
    {
      "midi": 59,
      "hit": false,
      "t": 102065.0745,
      "d": 52.989056249993155,
      "v": 80
    },
    {
      "midi": 56,
      "hit": false,
      "t": 102065.0745,
      "d": 66.575993749997,
      "v": 73
    },
    {
      "midi": 63,
      "hit": false,
      "t": 102065.0745,
      "d": 95.10856249999779,
      "v": 79
    },
    {
      "midi": 70,
      "hit": false,
      "t": 102228.11775,
      "d": 52.989056249993155,
      "v": 101
    },
    {
      "midi": 73,
      "hit": false,
      "t": 102391.161,
      "d": 144.02153749999707,
      "v": 121
    },
    {
      "midi": 63,
      "hit": false,
      "t": 102554.20425,
      "d": 93.74986875000468,
      "v": 68
    },
    {
      "midi": 71,
      "hit": false,
      "t": 102717.2475,
      "d": 104.6194187499932,
      "v": 109
    },
    {
      "midi": 70,
      "hit": false,
      "t": 102880.29074999999,
      "d": 142.66284375000396,
      "v": 127
    },
    {
      "midi": 70,
      "hit": false,
      "t": 103206.37724999999,
      "d": 168.47802500000398,
      "v": 127
    },
    {
      "midi": 70,
      "hit": false,
      "t": 103695.507,
      "d": 180.70626875000016,
      "v": 127
    },
    {
      "midi": 63,
      "hit": false,
      "t": 103858.55025,
      "d": 195.6518999999971,
      "v": 77
    },
    {
      "midi": 68,
      "hit": false,
      "t": 104021.5935,
      "d": 221.46708124998258,
      "v": 127
    },
    {
      "midi": 65,
      "hit": false,
      "t": 104184.63674999999,
      "d": 582.8796187499975,
      "v": 110
    },
    {
      "midi": 61,
      "hit": false,
      "t": 104510.72324999998,
      "d": 39.402118750003865,
      "v": 61
    },
    {
      "midi": 62,
      "hit": false,
      "t": 104836.80974999999,
      "d": 52.989056249993155,
      "v": 103
    },
    {
      "midi": 57,
      "hit": false,
      "t": 104836.80974999999,
      "d": 69.29338124999776,
      "v": 107
    },
    {
      "midi": 63,
      "hit": false,
      "t": 104836.80974999999,
      "d": 70.65207499999087,
      "v": 106
    },
    {
      "midi": 69,
      "hit": false,
      "t": 104836.80974999999,
      "d": 163.0432499999879,
      "v": 127
    },
    {
      "midi": 72,
      "hit": false,
      "t": 104999.85299999997,
      "d": 163.04325000000244,
      "v": 111
    },
    {
      "midi": 62,
      "hit": false,
      "t": 104999.85299999997,
      "d": 313.8582562500087,
      "v": 75
    },
    {
      "midi": 77,
      "hit": false,
      "t": 105162.89624999998,
      "d": 163.04325000000244,
      "v": 124
    },
    {
      "midi": 81,
      "hit": false,
      "t": 105325.93949999998,
      "d": 163.04325000000244,
      "v": 115
    },
    {
      "midi": 84,
      "hit": false,
      "t": 105488.98274999998,
      "d": 163.04325000000244,
      "v": 122
    },
    {
      "midi": 77,
      "hit": false,
      "t": 105652.02599999998,
      "d": 163.04325000000244,
      "v": 127
    },
    {
      "midi": 89,
      "hit": false,
      "t": 105652.02599999998,
      "d": 163.04325000000244,
      "v": 127
    },
    {
      "midi": 57,
      "hit": false,
      "t": 105815.06924999999,
      "d": 40.76081249999697,
      "v": 83
    },
    {
      "midi": 62,
      "hit": false,
      "t": 105815.06924999999,
      "d": 55.70644374999392,
      "v": 90
    },
    {
      "midi": 67,
      "hit": false,
      "t": 105815.06924999999,
      "d": 80.16293125000084,
      "v": 83
    },
    {
      "midi": 63,
      "hit": false,
      "t": 105815.06924999999,
      "d": 82.8803187500016,
      "v": 80
    },
    {
      "midi": 75,
      "hit": false,
      "t": 105978.11249999999,
      "d": 163.04325000000244,
      "v": 110
    },
    {
      "midi": 87,
      "hit": false,
      "t": 105978.11249999999,
      "d": 163.04325000000244,
      "v": 104
    },
    {
      "midi": 74,
      "hit": false,
      "t": 106304.199,
      "d": 163.04325000000244,
      "v": 107
    },
    {
      "midi": 86,
      "hit": false,
      "t": 106304.199,
      "d": 163.04325000000244,
      "v": 114
    },
    {
      "midi": 63,
      "hit": false,
      "t": 106467.24225,
      "d": 66.575993749997,
      "v": 63
    },
    {
      "midi": 62,
      "hit": false,
      "t": 106467.24225,
      "d": 80.16293125000084,
      "v": 69
    },
    {
      "midi": 67,
      "hit": false,
      "t": 106467.24225,
      "d": 93.74986875000468,
      "v": 79
    },
    {
      "midi": 84,
      "hit": false,
      "t": 106467.24225,
      "d": 163.04325000000244,
      "v": 126
    },
    {
      "midi": 86,
      "hit": false,
      "t": 106793.32875,
      "d": 326.0865000000049,
      "v": 127
    },
    {
      "midi": 56,
      "hit": false,
      "t": 106956.372,
      "d": 65.21730000000389,
      "v": 75
    },
    {
      "midi": 84,
      "hit": false,
      "t": 107119.41525,
      "d": 163.0432499999879,
      "v": 127
    },
    {
      "midi": 56,
      "hit": false,
      "t": 107127.56741250001,
      "d": 69.29338124998321,
      "v": 88
    },
    {
      "midi": 60,
      "hit": false,
      "t": 107128.92610625,
      "d": 216.0323062499956,
      "v": 100
    },
    {
      "midi": 67,
      "hit": false,
      "t": 107131.64349375,
      "d": 120.92374374999781,
      "v": 98
    },
    {
      "midi": 58,
      "hit": false,
      "t": 107143.8717375,
      "d": 40.76081249999697,
      "v": 81
    },
    {
      "midi": 63,
      "hit": false,
      "t": 107145.23043124999,
      "d": 93.74986875000468,
      "v": 85
    },
    {
      "midi": 82,
      "hit": false,
      "t": 107281.09980625,
      "d": 163.04325000000244,
      "v": 106
    },
    {
      "midi": 79,
      "hit": false,
      "t": 107438.70828125,
      "d": 163.04325000000244,
      "v": 127
    },
    {
      "midi": 80,
      "hit": false,
      "t": 107585.44720625,
      "d": 154.89108750000014,
      "v": 99
    },
    {
      "midi": 82,
      "hit": false,
      "t": 107768.8708625,
      "d": 103.2607250000001,
      "v": 106
    },
    {
      "midi": 80,
      "hit": false,
      "t": 107842.240325,
      "d": 81.52162499999395,
      "v": 110
    },
    {
      "midi": 63,
      "hit": false,
      "t": 107911.53370625,
      "d": 78.80423749999318,
      "v": 42
    },
    {
      "midi": 79,
      "hit": false,
      "t": 107912.8924,
      "d": 105.97811250000086,
      "v": 122
    },
    {
      "midi": 77,
      "hit": false,
      "t": 108088.16389375,
      "d": 258.15181250000023,
      "v": 119
    },
    {
      "midi": 56,
      "hit": false,
      "t": 108097.67474999999,
      "d": 160.32586250000168,
      "v": 55
    },
    {
      "midi": 67,
      "hit": false,
      "t": 108097.67474999999,
      "d": 186.1410437500017,
      "v": 88
    },
    {
      "midi": 60,
      "hit": false,
      "t": 108097.67474999999,
      "d": 202.4453687500063,
      "v": 81
    },
    {
      "midi": 62,
      "hit": false,
      "t": 108097.67474999999,
      "d": 216.03230625001015,
      "v": 81
    },
    {
      "midi": 75,
      "hit": false,
      "t": 108370.77219375,
      "d": 66.575993749997,
      "v": 90
    },
    {
      "midi": 76,
      "hit": false,
      "t": 108544.68499375,
      "d": 105.97811250000086,
      "v": 126
    },
    {
      "midi": 73,
      "hit": false,
      "t": 108569.14148125,
      "d": 92.39117499999702,
      "v": 118
    },
    {
      "midi": 58,
      "hit": false,
      "t": 108755.282525,
      "d": 607.3361062499898,
      "v": 98
    },
    {
      "midi": 85,
      "hit": false,
      "t": 108757.9999125,
      "d": 235.05401875000098,
      "v": 124
    },
    {
      "midi": 64,
      "hit": false,
      "t": 108770.22815625,
      "d": 499.99929999999586,
      "v": 96
    },
    {
      "midi": 68,
      "hit": false,
      "t": 108772.94554375,
      "d": 298.9126249999972,
      "v": 118
    },
    {
      "midi": 84,
      "hit": false,
      "t": 109099.03204374999,
      "d": 119.5650500000047,
      "v": 127
    },
    {
      "midi": 68,
      "hit": false,
      "t": 109124.84722499999,
      "d": 224.1844687499979,
      "v": 81
    },
    {
      "midi": 82,
      "hit": false,
      "t": 109244.412275,
      "d": 107.33680624999397,
      "v": 101
    },
    {
      "midi": 80,
      "hit": false,
      "t": 109404.7381375,
      "d": 95.10856249998324,
      "v": 127
    },
    {
      "midi": 57,
      "hit": false,
      "t": 109416.96638125,
      "d": 1873.6386812499404,
      "v": 103
    },
    {
      "midi": 63,
      "hit": false,
      "t": 109418.32507499999,
      "d": 1808.421381249951,
      "v": 95
    },
    {
      "midi": 67,
      "hit": false,
      "t": 109433.27070624998,
      "d": 1201.0852749999613,
      "v": 100
    },
    {
      "midi": 81,
      "hit": false,
      "t": 109551.47706249998,
      "d": 118.20635624999704,
      "v": 103
    },
    {
      "midi": 84,
      "hit": false,
      "t": 109728.10724999997,
      "d": 116.84766250000393,
      "v": 127
    },
    {
      "midi": 81,
      "hit": false,
      "t": 109891.15049999997,
      "d": 104.6194187499932,
      "v": 90
    },
    {
      "midi": 77,
      "hit": false,
      "t": 110054.19374999996,
      "d": 91.03248125000391,
      "v": 98
    },
    {
      "midi": 72,
      "hit": false,
      "t": 110217.23699999996,
      "d": 130.43459999999322,
      "v": 106
    },
    {
      "midi": 70,
      "hit": false,
      "t": 110380.28024999995,
      "d": 78.80423749999318,
      "v": 85
    },
    {
      "midi": 68,
      "hit": false,
      "t": 110543.32349999994,
      "d": 130.43460000000778,
      "v": 82
    },
    {
      "midi": 69,
      "hit": false,
      "t": 110706.36674999994,
      "d": 52.989056249993155,
      "v": 80
    },
    {
      "midi": 77,
      "hit": false,
      "t": 110869.40999999993,
      "d": 169.8367187499971,
      "v": 127
    },
    {
      "midi": 69,
      "hit": false,
      "t": 111032.45324999993,
      "d": 51.63036250000005,
      "v": 91
    },
    {
      "midi": 79,
      "hit": false,
      "t": 111195.49649999994,
      "d": 211.95622500000172,
      "v": 127
    },
    {
      "midi": 77,
      "hit": false,
      "t": 111521.58299999994,
      "d": 131.79329375000088,
      "v": 127
    },
    {
      "midi": 57,
      "hit": false,
      "t": 111684.62624999994,
      "d": 93.74986875000468,
      "v": 90
    },
    {
      "midi": 63,
      "hit": false,
      "t": 111684.62624999994,
      "d": 118.2063562500116,
      "v": 80
    },
    {
      "midi": 67,
      "hit": false,
      "t": 111684.62624999994,
      "d": 133.15198750000854,
      "v": 86
    },
    {
      "midi": 75,
      "hit": false,
      "t": 111684.62624999994,
      "d": 249.99965000001248,
      "v": 124
    },
    {
      "midi": 77,
      "hit": false,
      "t": 112010.71274999996,
      "d": 91.03248125000391,
      "v": 93
    },
    {
      "midi": 75,
      "hit": false,
      "t": 112010.71274999996,
      "d": 92.39117499999702,
      "v": 103
    },
    {
      "midi": 72,
      "hit": false,
      "t": 112173.75599999996,
      "d": 116.84766250000393,
      "v": 112
    },
    {
      "midi": 56,
      "hit": false,
      "t": 112296.03843749997,
      "d": 278.53221874998417,
      "v": 87
    },
    {
      "midi": 67,
      "hit": false,
      "t": 112297.39713124996,
      "d": 278.53221874998417,
      "v": 100
    },
    {
      "midi": 63,
      "hit": false,
      "t": 112310.98406874997,
      "d": 278.5322187499696,
      "v": 96
    },
    {
      "midi": 60,
      "hit": false,
      "t": 112310.98406874997,
      "d": 1078.8028374999558,
      "v": 105
    },
    {
      "midi": 74,
      "hit": false,
      "t": 112315.06014999996,
      "d": 115.48896874999627,
      "v": 127
    },
    {
      "midi": 75,
      "hit": false,
      "t": 112457.72299374995,
      "d": 119.56504999999015,
      "v": 89
    },
    {
      "midi": 77,
      "hit": false,
      "t": 112604.46191874993,
      "d": 82.8803187500016,
      "v": 127
    },
    {
      "midi": 56,
      "hit": false,
      "t": 112643.86403749994,
      "d": 759.5098062499892,
      "v": 87
    },
    {
      "midi": 67,
      "hit": false,
      "t": 112646.58142499994,
      "d": 528.5318687499966,
      "v": 92
    },
    {
      "midi": 63,
      "hit": false,
      "t": 112658.80966874993,
      "d": 543.4774999999936,
      "v": 87
    },
    {
      "midi": 78,
      "hit": false,
      "t": 112714.51611249993,
      "d": 77.44554375000007,
      "v": 101
    },
    {
      "midi": 79,
      "hit": false,
      "t": 112805.54859374993,
      "d": 92.39117499999702,
      "v": 124
    },
    {
      "midi": 79,
      "hit": false,
      "t": 112912.88539999993,
      "d": 25.815181250000023,
      "v": 98
    },
    {
      "midi": 82,
      "hit": false,
      "t": 112953.64621249992,
      "d": 142.66284375000396,
      "v": 127
    },
    {
      "midi": 80,
      "hit": false,
      "t": 113109.89599374993,
      "d": 107.33680624999397,
      "v": 127
    },
    {
      "midi": 79,
      "hit": false,
      "t": 113256.63491874993,
      "d": 80.16293125000084,
      "v": 127
    },
    {
      "midi": 63,
      "hit": false,
      "t": 113282.45009999993,
      "d": 137.22806875000242,
      "v": 95
    },
    {
      "midi": 67,
      "hit": false,
      "t": 113296.03703749993,
      "d": 123.64113124999858,
      "v": 103
    },
    {
      "midi": 79,
      "hit": false,
      "t": 113362.61303124993,
      "d": 14.94563124999695,
      "v": 96
    },
    {
      "midi": 77,
      "hit": false,
      "t": 113406.09123124993,
      "d": 133.151987499994,
      "v": 115
    },
    {
      "midi": 79,
      "hit": false,
      "t": 113423.75424999993,
      "d": 77.44554375000007,
      "v": 75
    },
    {
      "midi": 75,
      "hit": false,
      "t": 113580.00403124992,
      "d": 77.44554375000007,
      "v": 118
    },
    {
      "midi": 76,
      "hit": false,
      "t": 113804.18849999992,
      "d": 130.43459999999322,
      "v": 126
    },
    {
      "midi": 85,
      "hit": false,
      "t": 113967.2317499999,
      "d": 93.74986875000468,
      "v": 127
    },
    {
      "midi": 68,
      "hit": false,
      "t": 113967.2317499999,
      "d": 249.99964999999793,
      "v": 124
    },
    {
      "midi": 58,
      "hit": false,
      "t": 113967.2317499999,
      "d": 251.35834374999104,
      "v": 101
    },
    {
      "midi": 64,
      "hit": false,
      "t": 113967.2317499999,
      "d": 264.9452812499949,
      "v": 111
    },
    {
      "midi": 84,
      "hit": false,
      "t": 114130.2749999999,
      "d": 116.84766249998938,
      "v": 126
    },
    {
      "midi": 82,
      "hit": false,
      "t": 114293.3182499999,
      "d": 96.46725625000545,
      "v": 127
    },
    {
      "midi": 64,
      "hit": false,
      "t": 114293.3182499999,
      "d": 251.3583437500056,
      "v": 111
    },
    {
      "midi": 68,
      "hit": false,
      "t": 114293.3182499999,
      "d": 301.6300125000125,
      "v": 121
    },
    {
      "midi": 58,
      "hit": false,
      "t": 114293.3182499999,
      "d": 400.81465625001874,
      "v": 108
    },
    {
      "midi": 80,
      "hit": false,
      "t": 114456.3614999999,
      "d": 104.61941875000775,
      "v": 127
    },
    {
      "midi": 80,
      "hit": false,
      "t": 114619.40474999991,
      "d": 95.10856249999779,
      "v": 127
    },
    {
      "midi": 67,
      "hit": false,
      "t": 114619.40474999991,
      "d": 680.7055687500106,
      "v": 100
    },
    {
      "midi": 63,
      "hit": false,
      "t": 114619.40474999991,
      "d": 1210.5961312500003,
      "v": 96
    },
    {
      "midi": 57,
      "hit": false,
      "t": 114619.40474999991,
      "d": 2404.887937499996,
      "v": 102
    },
    {
      "midi": 81,
      "hit": false,
      "t": 114782.44799999992,
      "d": 118.20635624999704,
      "v": 126
    },
    {
      "midi": 84,
      "hit": false,
      "t": 114945.49124999992,
      "d": 103.2607250000001,
      "v": 112
    },
    {
      "midi": 77,
      "hit": false,
      "t": 115108.53449999992,
      "d": 142.66284375000396,
      "v": 88
    },
    {
      "midi": 72,
      "hit": false,
      "t": 115271.57774999992,
      "d": 80.16293125000084,
      "v": 111
    },
    {
      "midi": 70,
      "hit": false,
      "t": 115434.62099999993,
      "d": 130.43459999999322,
      "v": 106
    },
    {
      "midi": 68,
      "hit": false,
      "t": 115597.66424999991,
      "d": 91.03248125000391,
      "v": 127
    },
    {
      "midi": 69,
      "hit": false,
      "t": 115760.70749999992,
      "d": 158.96716874999402,
      "v": 95
    },
    {
      "midi": 72,
      "hit": false,
      "t": 115923.7507499999,
      "d": 36.6847312500031,
      "v": 94
    },
    {
      "midi": 67,
      "hit": false,
      "t": 115923.7507499999,
      "d": 171.19541250000475,
      "v": 104
    },
    {
      "midi": 63,
      "hit": false,
      "t": 115923.7507499999,
      "d": 210.59753125000861,
      "v": 88
    },
    {
      "midi": 67,
      "hit": false,
      "t": 116249.83724999991,
      "d": 105.97811250000086,
      "v": 87
    },
    {
      "midi": 69,
      "hit": false,
      "t": 116249.83724999991,
      "d": 119.5650500000047,
      "v": 90
    },
    {
      "midi": 72,
      "hit": false,
      "t": 116412.88049999991,
      "d": 51.63036250000005,
      "v": 81
    },
    {
      "midi": 65,
      "hit": false,
      "t": 116412.88049999991,
      "d": 120.92374374999781,
      "v": 94
    },
    {
      "midi": 67,
      "hit": false,
      "t": 116575.92374999991,
      "d": 91.03248125000391,
      "v": 112
    },
    {
      "midi": 72,
      "hit": false,
      "t": 116738.96699999992,
      "d": 169.8367187499971,
      "v": 127
    },
    {
      "midi": 69,
      "hit": false,
      "t": 116738.96699999992,
      "d": 275.81483124999795,
      "v": 127
    },
    {
      "midi": 63,
      "hit": false,
      "t": 116902.01024999992,
      "d": 248.64095624999027,
      "v": 108
    },
    {
      "midi": 65,
      "hit": false,
      "t": 117065.0534999999,
      "d": 104.61941875000775,
      "v": 118
    },
    {
      "midi": 63,
      "hit": false,
      "t": 117228.09674999991,
      "d": 66.575993749997,
      "v": 106
    },
    {
      "midi": 56,
      "hit": false,
      "t": 117228.09674999991,
      "d": 80.16293125000084,
      "v": 96
    },
    {
      "midi": 60,
      "hit": false,
      "t": 117228.09674999991,
      "d": 82.8803187500016,
      "v": 109
    },
    {
      "midi": 67,
      "hit": false,
      "t": 117228.09674999991,
      "d": 97.82594999999856,
      "v": 120
    },
    {
      "midi": 68,
      "hit": false,
      "t": 117391.13999999991,
      "d": 51.63036250000005,
      "v": 89
    },
    {
      "midi": 70,
      "hit": false,
      "t": 117453.63991249992,
      "d": 77.44554375000007,
      "v": 98
    },
    {
      "midi": 68,
      "hit": false,
      "t": 117517.49851874991,
      "d": 40.76081249999697,
      "v": 83
    },
    {
      "midi": 67,
      "hit": false,
      "t": 117571.84626874991,
      "d": 65.21730000000389,
      "v": 100
    },
    {
      "midi": 68,
      "hit": false,
      "t": 117704.99825624992,
      "d": 131.79329375000088,
      "v": 127
    },
    {
      "midi": 70,
      "hit": false,
      "t": 117889.78060624991,
      "d": 77.44554375000007,
      "v": 115
    },
    {
      "midi": 72,
      "hit": false,
      "t": 118009.34565624992,
      "d": 115.48896874999627,
      "v": 110
    },
    {
      "midi": 74,
      "hit": false,
      "t": 118192.76931249992,
      "d": 84.23901249999471,
      "v": 105
    },
    {
      "midi": 56,
      "hit": false,
      "t": 118232.17143124992,
      "d": 81.52162499999395,
      "v": 77
    },
    {
      "midi": 60,
      "hit": false,
      "t": 118232.17143124992,
      "d": 217.39099999997416,
      "v": 98
    },
    {
      "midi": 63,
      "hit": false,
      "t": 118234.88881874993,
      "d": 146.73892499998328,
      "v": 89
    },
    {
      "midi": 67,
      "hit": false,
      "t": 118236.24751249992,
      "d": 172.5541062499833,
      "v": 98
    },
    {
      "midi": 58,
      "hit": false,
      "t": 118247.11706249992,
      "d": 27.17387499999313,
      "v": 74
    },
    {
      "midi": 75,
      "hit": false,
      "t": 118343.58431874991,
      "d": 92.39117499998247,
      "v": 108
    },
    {
      "midi": 77,
      "hit": false,
      "t": 118531.08405624989,
      "d": 78.80423749999318,
      "v": 117
    },
    {
      "midi": 79,
      "hit": false,
      "t": 118676.46428749988,
      "d": 92.39117499999702,
      "v": 127
    },
    {
      "midi": 72,
      "hit": false,
      "t": 118991.68123749988,
      "d": 413.04289999997127,
      "v": 97
    },
    {
      "midi": 68,
      "hit": false,
      "t": 119005.26817499989,
      "d": 286.6843812499865,
      "v": 127
    },
    {
      "midi": 82,
      "hit": false,
      "t": 119007.98556249989,
      "d": 297.553931249975,
      "v": 115
    },
    {
      "midi": 56,
      "hit": false,
      "t": 119020.21380624989,
      "d": 457.87979374997667,
      "v": 81
    },
    {
      "midi": 68,
      "hit": false,
      "t": 119021.57249999998,
      "d": 464.6732625000004,
      "v": 113
    },
    {
      "midi": 74,
      "hit": false,
      "t": 119021.57249999998,
      "d": 506.79276875000505,
      "v": 122
    },
    {
      "midi": 77,
      "hit": false,
      "t": 119021.57249999998,
      "d": 506.79276875000505,
      "v": 117
    },
    {
      "midi": 75,
      "hit": false,
      "t": 119022.93119374989,
      "d": 29.8912624999939,
      "v": 91
    },
    {
      "midi": 60,
      "hit": false,
      "t": 119035.15943749988,
      "d": 323.369112499975,
      "v": 94
    },
    {
      "midi": 63,
      "hit": false,
      "t": 119037.87682499988,
      "d": 385.86902499997814,
      "v": 79
    },
    {
      "midi": 75,
      "hit": false,
      "t": 119079.99633124987,
      "d": 39.402118750003865,
      "v": 64
    },
    {
      "midi": 75,
      "hit": false,
      "t": 119293.31124999987,
      "d": 52.989056249993155,
      "v": 81
    },
    {
      "midi": 73,
      "hit": false,
      "t": 119528.36526874987,
      "d": 278.53221874998417,
      "v": 127
    },
    {
      "midi": 83,
      "hit": false,
      "t": 119533.80004374987,
      "d": 346.4669062499743,
      "v": 124
    },
    {
      "midi": 70,
      "hit": false,
      "t": 119548.74567499987,
      "d": 27.17387499999313,
      "v": 115
    },
    {
      "midi": 71,
      "hit": false,
      "t": 119673.74549999999,
      "d": 326.0865000000049,
      "v": 117
    },
    {
      "midi": 74,
      "hit": false,
      "t": 119673.74549999999,
      "d": 326.0865000000049,
      "v": 101
    },
    {
      "midi": 68,
      "hit": false,
      "t": 119673.74549999999,
      "d": 415.76028750000114,
      "v": 95
    },
    {
      "midi": 63,
      "hit": false,
      "t": 119783.79969374985,
      "d": 81.52162499999395,
      "v": 80
    },
    {
      "midi": 67,
      "hit": false,
      "t": 119785.15838749985,
      "d": 39.402118750003865,
      "v": 88
    },
    {
      "midi": 78,
      "hit": false,
      "t": 119907.44082499984,
      "d": 52.989056249993155,
      "v": 104
    },
    {
      "midi": 84,
      "hit": false,
      "t": 119987.60375624982,
      "d": 410.32551250001416,
      "v": 127
    },
    {
      "midi": 72,
      "hit": false,
      "t": 120001.19069374983,
      "d": 394.02118750000955,
      "v": 127
    },
    {
      "midi": 68,
      "hit": false,
      "t": 120162.87525,
      "d": 698.3685874999937,
      "v": 83
    },
    {
      "midi": 75,
      "hit": false,
      "t": 120162.87525,
      "d": 1110.0527937499864,
      "v": 104
    },
    {
      "midi": 70,
      "hit": false,
      "t": 120162.87525,
      "d": 1150.8136062499834,
      "v": 95
    },
    {
      "midi": 80,
      "hit": false,
      "t": 120381.62494374983,
      "d": 29.89126250000845,
      "v": 71
    },
    {
      "midi": 73,
      "hit": false,
      "t": 120464.50526249984,
      "d": 210.59753124999406,
      "v": 121
    },
    {
      "midi": 85,
      "hit": false,
      "t": 120479.45089374983,
      "d": 222.82577499999024,
      "v": 127
    },
    {
      "midi": 75,
      "hit": false,
      "t": 120768.85266249982,
      "d": 183.42365625000093,
      "v": 110
    },
    {
      "midi": 87,
      "hit": false,
      "t": 120771.57004999982,
      "d": 195.6518999999971,
      "v": 124
    },
    {
      "midi": 68,
      "hit": false,
      "t": 120978.0915,
      "d": 156.24978124999325,
      "v": 57
    },
    {
      "midi": 77,
      "hit": false,
      "t": 120994.39582499981,
      "d": 197.01059374999022,
      "v": 110
    },
    {
      "midi": 89,
      "hit": false,
      "t": 121009.34145624981,
      "d": 209.2388374999864,
      "v": 126
    },
    {
      "midi": 79,
      "hit": false,
      "t": 121257.9824124998,
      "d": 183.42365625000093,
      "v": 112
    },
    {
      "midi": 91,
      "hit": false,
      "t": 121272.9280437498,
      "d": 171.19541250000475,
      "v": 127
    },
    {
      "midi": 69,
      "hit": false,
      "t": 121304.17799999999,
      "d": 993.2051312499971,
      "v": 98
    },
    {
      "midi": 73,
      "hit": false,
      "t": 121304.17799999999,
      "d": 994.5638249999902,
      "v": 79
    },
    {
      "midi": 75,
      "hit": false,
      "t": 121304.17799999999,
      "d": 1008.150762499994,
      "v": 85
    },
    {
      "midi": 80,
      "hit": false,
      "t": 121522.92769374979,
      "d": 131.79329375000088,
      "v": 115
    },
    {
      "midi": 92,
      "hit": false,
      "t": 121537.87332499979,
      "d": 145.38023125000473,
      "v": 127
    },
    {
      "midi": 82,
      "hit": false,
      "t": 121736.24261249979,
      "d": 130.43459999999322,
      "v": 98
    },
    {
      "midi": 94,
      "hit": false,
      "t": 121751.18824374978,
      "d": 142.6628437499894,
      "v": 124
    },
    {
      "midi": 84,
      "hit": false,
      "t": 121948.19883749977,
      "d": 157.6084750000009,
      "v": 114
    },
    {
      "midi": 96,
      "hit": false,
      "t": 121950.91622499978,
      "d": 157.6084750000009,
      "v": 127
    },
    {
      "midi": 85,
      "hit": false,
      "t": 122199.55718124978,
      "d": 145.38023124999017,
      "v": 115
    },
    {
      "midi": 97,
      "hit": false,
      "t": 122202.27456874978,
      "d": 130.43459999999322,
      "v": 121
    },
    {
      "midi": 86,
      "hit": false,
      "t": 122387.05691874977,
      "d": 104.61941875000775,
      "v": 109
    },
    {
      "midi": 98,
      "hit": false,
      "t": 122400.64385624978,
      "d": 107.33680625000852,
      "v": 120
    },
    {
      "midi": 87,
      "hit": false,
      "t": 122585.42620624979,
      "d": 326.0865000000049,
      "v": 104
    },
    {
      "midi": 99,
      "hit": false,
      "t": 122588.14359374979,
      "d": 194.293206250004,
      "v": 124
    },
    {
      "midi": 68,
      "hit": false,
      "t": 122608.52399999998,
      "d": 737.7707062499976,
      "v": 89
    },
    {
      "midi": 73,
      "hit": false,
      "t": 122608.52399999998,
      "d": 827.4444937499939,
      "v": 89
    },
    {
      "midi": 77,
      "hit": false,
      "t": 122608.52399999998,
      "d": 865.4879187499901,
      "v": 99
    },
    {
      "midi": 99,
      "hit": false,
      "t": 122873.4692812498,
      "d": 116.84766250000393,
      "v": 104
    },
    {
      "midi": 87,
      "hit": false,
      "t": 122976.7300062498,
      "d": 67.93468750000466,
      "v": 96
    },
    {
      "midi": 96,
      "hit": false,
      "t": 123084.0668124998,
      "d": 235.05401875000098,
      "v": 112
    },
    {
      "midi": 84,
      "hit": false,
      "t": 123097.65374999981,
      "d": 324.72780624999723,
      "v": 117
    },
    {
      "midi": 96,
      "hit": false,
      "t": 123423.7402499998,
      "d": 118.20635624999704,
      "v": 101
    },
    {
      "midi": 68,
      "hit": false,
      "t": 123423.74024999997,
      "d": 429.34722499999043,
      "v": 85
    },
    {
      "midi": 84,
      "hit": false,
      "t": 123501.1857937498,
      "d": 78.80423749999318,
      "v": 107
    },
    {
      "midi": 73,
      "hit": false,
      "t": 123586.78349999996,
      "d": 1283.9655937500065,
      "v": 90
    },
    {
      "midi": 82,
      "hit": false,
      "t": 123725.3702624998,
      "d": 67.9346874999901,
      "v": 103
    },
    {
      "midi": 94,
      "hit": false,
      "t": 123740.3158937498,
      "d": 66.575993749997,
      "v": 103
    },
    {
      "midi": 87,
      "hit": false,
      "t": 123912.86999999979,
      "d": 118.2063562500116,
      "v": 98
    },
    {
      "midi": 67,
      "hit": false,
      "t": 123912.86999999997,
      "d": 724.1837687499938,
      "v": 88
    },
    {
      "midi": 77,
      "hit": false,
      "t": 123912.86999999997,
      "d": 815.2162499999977,
      "v": 90
    },
    {
      "midi": 99,
      "hit": false,
      "t": 123929.1743249998,
      "d": 104.61941875000775,
      "v": 124
    },
    {
      "midi": 84,
      "hit": false,
      "t": 124150.64140624981,
      "d": 104.61941875000775,
      "v": 109
    },
    {
      "midi": 96,
      "hit": false,
      "t": 124153.35879374981,
      "d": 104.61941875000775,
      "v": 117
    },
    {
      "midi": 84,
      "hit": false,
      "t": 124376.18456874981,
      "d": 120.92374374999781,
      "v": 127
    },
    {
      "midi": 96,
      "hit": false,
      "t": 124378.90195624981,
      "d": 92.39117499999702,
      "v": 124
    },
    {
      "midi": 94,
      "hit": false,
      "t": 124656.0754812498,
      "d": 131.79329375000088,
      "v": 108
    },
    {
      "midi": 82,
      "hit": false,
      "t": 124669.66241874981,
      "d": 89.67378749999625,
      "v": 108
    },
    {
      "midi": 67,
      "hit": false,
      "t": 124728.08624999996,
      "d": 206.5214500000002,
      "v": 91
    },
    {
      "midi": 75,
      "hit": false,
      "t": 124728.08624999996,
      "d": 245.92356875000405,
      "v": 86
    },
    {
      "midi": 84,
      "hit": false,
      "t": 124868.0317062498,
      "d": 103.2607250000001,
      "v": 120
    },
    {
      "midi": 96,
      "hit": false,
      "t": 124881.61864374981,
      "d": 104.6194187499932,
      "v": 124
    },
    {
      "midi": 97,
      "hit": false,
      "t": 125217.21599999981,
      "d": 163.04325000000244,
      "v": 121
    },
    {
      "midi": 85,
      "hit": false,
      "t": 125217.21599999981,
      "d": 415.76028750000114,
      "v": 127
    },
    {
      "midi": 70,
      "hit": false,
      "t": 125217.21599999997,
      "d": 1255.4330250000057,
      "v": 89
    },
    {
      "midi": 73,
      "hit": false,
      "t": 125380.25924999997,
      "d": 1120.922343750004,
      "v": 96
    },
    {
      "midi": 66,
      "hit": false,
      "t": 125380.25924999997,
      "d": 1188.8570312500087,
      "v": 78
    },
    {
      "midi": 77,
      "hit": false,
      "t": 125380.25924999997,
      "d": 2080.160131249999,
      "v": 106
    },
    {
      "midi": 97,
      "hit": false,
      "t": 125543.30249999982,
      "d": 133.151987499994,
      "v": 104
    },
    {
      "midi": 85,
      "hit": false,
      "t": 125706.3457499998,
      "d": 163.04325000000244,
      "v": 121
    },
    {
      "midi": 82,
      "hit": false,
      "t": 125869.3889999998,
      "d": 163.04325000000244,
      "v": 118
    },
    {
      "midi": 80,
      "hit": false,
      "t": 126032.43224999981,
      "d": 163.04325000000244,
      "v": 118
    },
    {
      "midi": 78,
      "hit": false,
      "t": 126195.47549999981,
      "d": 163.04325000000244,
      "v": 85
    },
    {
      "midi": 77,
      "hit": false,
      "t": 126358.51874999981,
      "d": 163.04325000000244,
      "v": 122
    },
    {
      "midi": 80,
      "hit": false,
      "t": 126521.56199999982,
      "d": 163.04325000000244,
      "v": 127
    },
    {
      "midi": 73,
      "hit": false,
      "t": 126521.56199999998,
      "d": 826.0858000000007,
      "v": 96
    },
    {
      "midi": 80,
      "hit": false,
      "t": 126521.56199999998,
      "d": 841.0314312499977,
      "v": 103
    },
    {
      "midi": 78,
      "hit": false,
      "t": 126684.60524999982,
      "d": 163.04325000000244,
      "v": 124
    },
    {
      "midi": 77,
      "hit": false,
      "t": 126847.64849999982,
      "d": 163.04325000000244,
      "v": 107
    },
    {
      "midi": 75,
      "hit": false,
      "t": 127010.69174999982,
      "d": 163.04325000000244,
      "v": 127
    },
    {
      "midi": 73,
      "hit": false,
      "t": 127173.73499999983,
      "d": 163.04325000000244,
      "v": 101
    },
    {
      "midi": 75,
      "hit": false,
      "t": 127336.77824999983,
      "d": 163.04325000000244,
      "v": 86
    },
    {
      "midi": 73,
      "hit": false,
      "t": 127350.36518749983,
      "d": 163.04325000000244,
      "v": 85
    },
    {
      "midi": 72,
      "hit": false,
      "t": 127499.82149999983,
      "d": 163.04325000000244,
      "v": 124
    },
    {
      "midi": 73,
      "hit": false,
      "t": 127662.86474999983,
      "d": 163.04325000000244,
      "v": 127
    },
    {
      "midi": 74,
      "hit": false,
      "t": 127825.90799999984,
      "d": 163.04325000000244,
      "v": 117
    },
    {
      "midi": 83,
      "hit": false,
      "t": 127825.90799999997,
      "d": 1137.2266687499941,
      "v": 111
    },
    {
      "midi": 79,
      "hit": false,
      "t": 127825.90799999997,
      "d": 1190.2157249999873,
      "v": 87
    },
    {
      "midi": 74,
      "hit": false,
      "t": 127825.90799999997,
      "d": 1245.9221687499812,
      "v": 98
    },
    {
      "midi": 71,
      "hit": false,
      "t": 127825.90799999997,
      "d": 1271.7373499999812,
      "v": 104
    },
    {
      "midi": 86,
      "hit": false,
      "t": 127988.95124999984,
      "d": 163.04325000000244,
      "v": 127
    },
    {
      "midi": 83,
      "hit": false,
      "t": 128315.03774999984,
      "d": 163.04325000000244,
      "v": 127
    },
    {
      "midi": 79,
      "hit": false,
      "t": 128641.12424999985,
      "d": 163.04325000000244,
      "v": 127
    },
    {
      "midi": 74,
      "hit": false,
      "t": 128804.16749999985,
      "d": 163.04325000000244,
      "v": 127
    },
    {
      "midi": 75,
      "hit": false,
      "t": 129130.25399999986,
      "d": 163.04325000000244,
      "v": 127
    },
    {
      "midi": 74,
      "hit": false,
      "t": 129456.34049999995,
      "d": 414.4015937499935,
      "v": 124
    },
    {
      "midi": 79,
      "hit": false,
      "t": 129456.34049999995,
      "d": 415.7602874999866,
      "v": 120
    },
    {
      "midi": 68,
      "hit": false,
      "t": 129456.34049999995,
      "d": 442.9341624999797,
      "v": 121
    },
    {
      "midi": 77,
      "hit": false,
      "t": 129619.38374999986,
      "d": 163.0432499999879,
      "v": 99
    },
    {
      "midi": 75,
      "hit": false,
      "t": 129646.55762499986,
      "d": 163.0432499999879,
      "v": 106
    },
    {
      "midi": 72,
      "hit": false,
      "t": 129782.42699999985,
      "d": 163.0432499999879,
      "v": 127
    },
    {
      "midi": 73,
      "hit": false,
      "t": 129945.47024999984,
      "d": 163.04325000000244,
      "v": 127
    },
    {
      "midi": 78,
      "hit": false,
      "t": 129945.47024999993,
      "d": 309.7821750000003,
      "v": 106
    },
    {
      "midi": 68,
      "hit": false,
      "t": 129945.47024999993,
      "d": 323.3691125000041,
      "v": 115
    },
    {
      "midi": 73,
      "hit": false,
      "t": 129945.47024999993,
      "d": 338.31474375000107,
      "v": 106
    },
    {
      "midi": 75,
      "hit": false,
      "t": 130108.51349999984,
      "d": 163.04325000000244,
      "v": 115
    },
    {
      "midi": 77,
      "hit": false,
      "t": 130240.30679374984,
      "d": 326.0865000000049,
      "v": 127
    },
    {
      "midi": 68,
      "hit": false,
      "t": 130434.59999999993,
      "d": 1070.6506749999971,
      "v": 86
    },
    {
      "midi": 77,
      "hit": false,
      "t": 130434.59999999993,
      "d": 1133.1505875000003,
      "v": 98
    },
    {
      "midi": 73,
      "hit": false,
      "t": 130434.59999999993,
      "d": 1161.683156250001,
      "v": 91
    },
    {
      "midi": 78,
      "hit": false,
      "t": 130597.64324999985,
      "d": 163.04325000000244,
      "v": 127
    },
    {
      "midi": 78,
      "hit": false,
      "t": 130760.68649999985,
      "d": 163.04325000000244,
      "v": 81
    },
    {
      "midi": 79,
      "hit": false,
      "t": 130923.72974999985,
      "d": 163.0432499999879,
      "v": 127
    },
    {
      "midi": 80,
      "hit": false,
      "t": 131249.81624999983,
      "d": 163.0432499999879,
      "v": 127
    },
    {
      "midi": 82,
      "hit": false,
      "t": 131575.9027499998,
      "d": 163.0432499999879,
      "v": 127
    },
    {
      "midi": 68,
      "hit": false,
      "t": 131575.90274999992,
      "d": 104.6194187500223,
      "v": 121
    },
    {
      "midi": 84,
      "hit": false,
      "t": 131738.9459999998,
      "d": 163.0432499999879,
      "v": 118
    },
    {
      "midi": 69,
      "hit": false,
      "t": 131738.94599999994,
      "d": 1072.0093687500048,
      "v": 110
    },
    {
      "midi": 85,
      "hit": false,
      "t": 131901.98924999978,
      "d": 163.0432499999879,
      "v": 127
    },
    {
      "midi": 87,
      "hit": false,
      "t": 132065.03249999977,
      "d": 163.0432499999879,
      "v": 121
    },
    {
      "midi": 73,
      "hit": false,
      "t": 132065.03249999994,
      "d": 749.9989500000083,
      "v": 79
    },
    {
      "midi": 77,
      "hit": false,
      "t": 132065.03249999994,
      "d": 789.4010687500122,
      "v": 92
    },
    {
      "midi": 89,
      "hit": false,
      "t": 132228.07574999976,
      "d": 129.07590624998556,
      "v": 127
    },
    {
      "midi": 85,
      "hit": false,
      "t": 132391.11899999974,
      "d": 163.0432499999879,
      "v": 115
    },
    {
      "midi": 84,
      "hit": false,
      "t": 132554.16224999973,
      "d": 163.0432499999879,
      "v": 122
    },
    {
      "midi": 82,
      "hit": false,
      "t": 132717.20549999972,
      "d": 163.0432499999879,
      "v": 115
    },
    {
      "midi": 80,
      "hit": false,
      "t": 132880.2487499997,
      "d": 163.0432499999879,
      "v": 113
    },
    {
      "midi": 81,
      "hit": false,
      "t": 133043.2919999997,
      "d": 163.0432499999879,
      "v": 127
    },
    {
      "midi": 73,
      "hit": false,
      "t": 133043.29199999996,
      "d": 194.293206250004,
      "v": 85
    },
    {
      "midi": 68,
      "hit": false,
      "t": 133043.29199999996,
      "d": 197.01059374999022,
      "v": 79
    },
    {
      "midi": 77,
      "hit": false,
      "t": 133043.29199999996,
      "d": 207.8801437499933,
      "v": 93
    },
    {
      "midi": 84,
      "hit": false,
      "t": 133234.86781874968,
      "d": 326.0865000000049,
      "v": 118
    },
    {
      "midi": 82,
      "hit": false,
      "t": 133407.42192499968,
      "d": 67.93468750000466,
      "v": 103
    },
    {
      "midi": 77,
      "hit": false,
      "t": 133473.9979187497,
      "d": 54.34774999998626,
      "v": 112
    },
    {
      "midi": 73,
      "hit": false,
      "t": 133555.5195437497,
      "d": 66.57599375001155,
      "v": 127
    },
    {
      "midi": 72,
      "hit": false,
      "t": 133635.6824749997,
      "d": 145.38023124999017,
      "v": 126
    },
    {
      "midi": 70,
      "hit": false,
      "t": 133808.2365812497,
      "d": 118.2063562500116,
      "v": 127
    },
    {
      "midi": 68,
      "hit": false,
      "t": 133858.50824999996,
      "d": 91.03248125000391,
      "v": 96
    },
    {
      "midi": 69,
      "hit": false,
      "t": 133976.7146062497,
      "d": 130.43460000000778,
      "v": 95
    },
    {
      "midi": 68,
      "hit": false,
      "t": 134021.55149999997,
      "d": 157.60847499998636,
      "v": 63
    },
    {
      "midi": 73,
      "hit": false,
      "t": 134021.55149999997,
      "d": 169.83671874998254,
      "v": 113
    },
    {
      "midi": 77,
      "hit": false,
      "t": 134184.59474999996,
      "d": 144.02153749999707,
      "v": 115
    },
    {
      "midi": 70,
      "hit": false,
      "t": 134198.18168749972,
      "d": 78.80423750000773,
      "v": 103
    },
    {
      "midi": 72,
      "hit": false,
      "t": 134342.2032249997,
      "d": 145.38023124999017,
      "v": 127
    },
    {
      "midi": 67,
      "hit": false,
      "t": 134347.63799999995,
      "d": 740.4880937499984,
      "v": 98
    },
    {
      "midi": 70,
      "hit": false,
      "t": 134516.1160249997,
      "d": 91.03248125000391,
      "v": 121
    },
    {
      "midi": 65,
      "hit": false,
      "t": 134571.8224687497,
      "d": 129.07590624998556,
      "v": 91
    },
    {
      "midi": 70,
      "hit": false,
      "t": 134673.72449999995,
      "d": 453.80371249999735,
      "v": 85
    },
    {
      "midi": 73,
      "hit": false,
      "t": 134673.72449999995,
      "d": 453.80371249999735,
      "v": 85
    },
    {
      "midi": 75,
      "hit": false,
      "t": 134673.72449999995,
      "d": 466.0319562499935,
      "v": 83
    },
    {
      "midi": 61,
      "hit": false,
      "t": 134741.6591874997,
      "d": 235.05401875000098,
      "v": 127
    },
    {
      "midi": 60,
      "hit": false,
      "t": 135005.2457749997,
      "d": 118.2063562500116,
      "v": 99
    },
    {
      "midi": 58,
      "hit": false,
      "t": 135156.06078124972,
      "d": 279.8909124999773,
      "v": 83
    },
    {
      "midi": 67,
      "hit": false,
      "t": 135162.85424999995,
      "d": 157.60847499998636,
      "v": 94
    },
    {
      "midi": 73,
      "hit": false,
      "t": 135162.85424999995,
      "d": 157.60847499998636,
      "v": 95
    },
    {
      "midi": 70,
      "hit": false,
      "t": 135162.85424999995,
      "d": 158.96716874997946,
      "v": 94
    },
    {
      "midi": 75,
      "hit": false,
      "t": 135162.85424999995,
      "d": 169.83671874998254,
      "v": 85
    },
    {
      "midi": 60,
      "hit": false,
      "t": 135365.2996187497,
      "d": 142.66284375000396,
      "v": 109
    },
    {
      "midi": 61,
      "hit": false,
      "t": 135524.2667874997,
      "d": 127.71721249999246,
      "v": 127
    },
    {
      "midi": 80,
      "hit": false,
      "t": 135651.98399999994,
      "d": 932.063912499987,
      "v": 110
    },
    {
      "midi": 73,
      "hit": false,
      "t": 135651.98399999994,
      "d": 933.4226062499802,
      "v": 95
    },
    {
      "midi": 77,
      "hit": false,
      "t": 135651.98399999994,
      "d": 964.6725624999672,
      "v": 104
    },
    {
      "midi": 70,
      "hit": false,
      "t": 135651.98399999994,
      "d": 1001.3572937499557,
      "v": 93
    },
    {
      "midi": 66,
      "hit": false,
      "t": 135651.98399999994,
      "d": 1017.6616187499603,
      "v": 82
    },
    {
      "midi": 63,
      "hit": false,
      "t": 135658.7774687497,
      "d": 115.48896874999627,
      "v": 85
    },
    {
      "midi": 65,
      "hit": false,
      "t": 135815.0272499997,
      "d": 115.48896874999627,
      "v": 127
    },
    {
      "midi": 66,
      "hit": false,
      "t": 135978.07049999968,
      "d": 163.0432499999879,
      "v": 64
    },
    {
      "midi": 68,
      "hit": false,
      "t": 136141.11374999967,
      "d": 163.0432499999879,
      "v": 127
    },
    {
      "midi": 70,
      "hit": false,
      "t": 136304.15699999966,
      "d": 163.0432499999879,
      "v": 101
    },
    {
      "midi": 72,
      "hit": false,
      "t": 136467.20024999965,
      "d": 163.0432499999879,
      "v": 126
    },
    {
      "midi": 73,
      "hit": false,
      "t": 136630.24349999963,
      "d": 163.0432499999879,
      "v": 124
    },
    {
      "midi": 56,
      "hit": false,
      "t": 136793.28674999962,
      "d": 29.8912624999939,
      "v": 88
    },
    {
      "midi": 61,
      "hit": false,
      "t": 136793.28674999962,
      "d": 42.11950624999008,
      "v": 115
    },
    {
      "midi": 54,
      "hit": false,
      "t": 136793.28674999962,
      "d": 43.47819999998319,
      "v": 87
    },
    {
      "midi": 65,
      "hit": false,
      "t": 136793.28674999962,
      "d": 54.34774999998626,
      "v": 110
    },
    {
      "midi": 58,
      "hit": false,
      "t": 136793.28674999962,
      "d": 58.42383124999469,
      "v": 115
    },
    {
      "midi": 75,
      "hit": false,
      "t": 136793.28674999962,
      "d": 163.0432499999879,
      "v": 127
    },
    {
      "midi": 66,
      "hit": false,
      "t": 136793.2867499999,
      "d": 975.5421124999993,
      "v": 85
    },
    {
      "midi": 77,
      "hit": false,
      "t": 136956.3299999996,
      "d": 163.0432499999879,
      "v": 122
    },
    {
      "midi": 76,
      "hit": false,
      "t": 136956.3299999999,
      "d": 14.945631250011502,
      "v": 93
    },
    {
      "midi": 73,
      "hit": false,
      "t": 136956.3299999999,
      "d": 883.1509375000023,
      "v": 73
    },
    {
      "midi": 77,
      "hit": false,
      "t": 136956.3299999999,
      "d": 923.9117499999993,
      "v": 109
    },
    {
      "midi": 70,
      "hit": false,
      "t": 136956.3299999999,
      "d": 949.7269312499848,
      "v": 85
    },
    {
      "midi": 78,
      "hit": false,
      "t": 137119.3732499996,
      "d": 163.0432499999879,
      "v": 118
    },
    {
      "midi": 80,
      "hit": false,
      "t": 137282.41649999958,
      "d": 163.0432499999879,
      "v": 124
    },
    {
      "midi": 56,
      "hit": false,
      "t": 137445.45974999957,
      "d": 14.945631250011502,
      "v": 85
    },
    {
      "midi": 54,
      "hit": false,
      "t": 137445.45974999957,
      "d": 31.249956250016112,
      "v": 91
    },
    {
      "midi": 58,
      "hit": false,
      "t": 137445.45974999957,
      "d": 43.47820000001229,
      "v": 121
    },
    {
      "midi": 61,
      "hit": false,
      "t": 137445.45974999957,
      "d": 44.8368937500054,
      "v": 124
    },
    {
      "midi": 65,
      "hit": false,
      "t": 137445.45974999957,
      "d": 57.06513750000158,
      "v": 118
    },
    {
      "midi": 82,
      "hit": false,
      "t": 137445.45974999957,
      "d": 163.0432499999879,
      "v": 127
    },
    {
      "midi": 84,
      "hit": false,
      "t": 137608.50299999956,
      "d": 163.0432499999879,
      "v": 126
    },
    {
      "midi": 86,
      "hit": false,
      "t": 137771.54624999955,
      "d": 163.0432499999879,
      "v": 124
    },
    {
      "midi": 87,
      "hit": false,
      "t": 137934.58949999954,
      "d": 163.0432499999879,
      "v": 127
    },
    {
      "midi": 88,
      "hit": false,
      "t": 138097.63274999952,
      "d": 163.0432499999879,
      "v": 127
    },
    {
      "midi": 67,
      "hit": false,
      "t": 138097.63274999952,
      "d": 815.2162499999686,
      "v": 100
    },
    {
      "midi": 63,
      "hit": false,
      "t": 138097.63274999952,
      "d": 854.6183687499724,
      "v": 101
    },
    {
      "midi": 57,
      "hit": false,
      "t": 138097.63274999952,
      "d": 866.8466124999686,
      "v": 96
    },
    {
      "midi": 89,
      "hit": false,
      "t": 138260.6759999995,
      "d": 274.45613749997574,
      "v": 127
    },
    {
      "midi": 74,
      "hit": false,
      "t": 138260.6759999999,
      "d": 1050.2702687499986,
      "v": 90
    },
    {
      "midi": 79,
      "hit": false,
      "t": 138260.6759999999,
      "d": 1116.8462625000102,
      "v": 127
    },
    {
      "midi": 67,
      "hit": false,
      "t": 138260.6759999999,
      "d": 1127.7158125000133,
      "v": 109
    },
    {
      "midi": 71,
      "hit": false,
      "t": 138260.6759999999,
      "d": 1144.0201375000179,
      "v": 103
    },
    {
      "midi": 83,
      "hit": false,
      "t": 138423.7192499995,
      "d": 80.16293125000084,
      "v": 112
    },
    {
      "midi": 86,
      "hit": false,
      "t": 138423.7192499995,
      "d": 93.74986874999013,
      "v": 115
    },
    {
      "midi": 79,
      "hit": false,
      "t": 138586.7624999995,
      "d": 118.2063562500116,
      "v": 127
    },
    {
      "midi": 79,
      "hit": false,
      "t": 138749.8057499995,
      "d": 13.58693749998929,
      "v": 92
    },
    {
      "midi": 74,
      "hit": false,
      "t": 138749.8057499995,
      "d": 562.4992124999699,
      "v": 127
    },
    {
      "midi": 57,
      "hit": false,
      "t": 139075.89224999948,
      "d": 247.28226249999716,
      "v": 91
    },
    {
      "midi": 67,
      "hit": false,
      "t": 139075.89224999948,
      "d": 260.86919999998645,
      "v": 111
    },
    {
      "midi": 63,
      "hit": false,
      "t": 139075.89224999948,
      "d": 288.04307499999413,
      "v": 104
    },
    {
      "midi": 56,
      "hit": false,
      "t": 139401.97874999949,
      "d": 27.173875000007683,
      "v": 73
    },
    {
      "midi": 63,
      "hit": false,
      "t": 139401.97874999949,
      "d": 67.93468750000466,
      "v": 88
    },
    {
      "midi": 75,
      "hit": false,
      "t": 139401.97874999949,
      "d": 199.72798125000554,
      "v": 124
    },
    {
      "midi": 77,
      "hit": false,
      "t": 139565.0219999995,
      "d": 144.02153749999707,
      "v": 94
    },
    {
      "midi": 75,
      "hit": false,
      "t": 139728.0652499995,
      "d": 78.80423750000773,
      "v": 90
    },
    {
      "midi": 72,
      "hit": false,
      "t": 139749.8043499995,
      "d": 66.57599375001155,
      "v": 122
    },
    {
      "midi": 73,
      "hit": false,
      "t": 139870.7280937495,
      "d": 130.43460000000778,
      "v": 127
    },
    {
      "midi": 77,
      "hit": false,
      "t": 139891.10849999991,
      "d": 13.58693749998929,
      "v": 88
    },
    {
      "midi": 79,
      "hit": false,
      "t": 139891.10849999991,
      "d": 362.77123124999343,
      "v": 118
    },
    {
      "midi": 74,
      "hit": false,
      "t": 139891.10849999991,
      "d": 406.2494312500057,
      "v": 122
    },
    {
      "midi": 68,
      "hit": false,
      "t": 139891.10849999991,
      "d": 502.7166875000112,
      "v": 113
    },
    {
      "midi": 75,
      "hit": false,
      "t": 140069.0973812495,
      "d": 89.6737875000108,
      "v": 118
    },
    {
      "midi": 72,
      "hit": false,
      "t": 140217.1949999995,
      "d": 197.01059374996112,
      "v": 127
    },
    {
      "midi": 56,
      "hit": false,
      "t": 140380.2382499995,
      "d": 55.70644374997937,
      "v": 77
    },
    {
      "midi": 63,
      "hit": false,
      "t": 140382.9556374995,
      "d": 67.93468750000466,
      "v": 104
    },
    {
      "midi": 67,
      "hit": false,
      "t": 140384.31433124948,
      "d": 66.57599375001155,
      "v": 98
    },
    {
      "midi": 70,
      "hit": false,
      "t": 140543.2814999995,
      "d": 220.10838749998948,
      "v": 127
    },
    {
      "midi": 74,
      "hit": false,
      "t": 140543.28149999992,
      "d": 312.4995624999865,
      "v": 95
    },
    {
      "midi": 77,
      "hit": false,
      "t": 140543.28149999992,
      "d": 326.0864999999758,
      "v": 103
    },
    {
      "midi": 75,
      "hit": false,
      "t": 140869.36799999946,
      "d": 218.74969374999637,
      "v": 103
    },
    {
      "midi": 68,
      "hit": false,
      "t": 140869.3679999999,
      "d": 39.402118750003865,
      "v": 95
    },
    {
      "midi": 73,
      "hit": false,
      "t": 140869.3679999999,
      "d": 828.8031875000161,
      "v": 99
    },
    {
      "midi": 75,
      "hit": false,
      "t": 141032.41124999992,
      "d": 802.9880062500015,
      "v": 90
    },
    {
      "midi": 75,
      "hit": false,
      "t": 141195.45449999947,
      "d": 115.48896874999627,
      "v": 110
    },
    {
      "midi": 73,
      "hit": false,
      "t": 141358.49774999946,
      "d": 65.21729999998934,
      "v": 113
    },
    {
      "midi": 75,
      "hit": false,
      "t": 141521.54099999944,
      "d": 182.06496249997872,
      "v": 121
    },
    {
      "midi": 73,
      "hit": false,
      "t": 141684.58424999943,
      "d": 115.48896874999627,
      "v": 127
    },
    {
      "midi": 68,
      "hit": false,
      "t": 141684.58424999993,
      "d": 326.0864999999758,
      "v": 118
    },
    {
      "midi": 73,
      "hit": false,
      "t": 141847.62749999992,
      "d": 235.05401875000098,
      "v": 106
    },
    {
      "midi": 84,
      "hit": false,
      "t": 142010.67074999944,
      "d": 154.89108750000014,
      "v": 118
    },
    {
      "midi": 70,
      "hit": false,
      "t": 142173.71399999992,
      "d": 955.1617062499863,
      "v": 82
    },
    {
      "midi": 69,
      "hit": false,
      "t": 142173.71399999992,
      "d": 995.9225187499833,
      "v": 96
    },
    {
      "midi": 73,
      "hit": false,
      "t": 142173.71399999992,
      "d": 1010.8681499999948,
      "v": 81
    },
    {
      "midi": 75,
      "hit": false,
      "t": 142173.71399999992,
      "d": 1036.6833312499803,
      "v": 86
    },
    {
      "midi": 84,
      "hit": false,
      "t": 142336.75724999944,
      "d": 144.02153749999707,
      "v": 127
    },
    {
      "midi": 82,
      "hit": false,
      "t": 142662.84374999945,
      "d": 52.989056249993155,
      "v": 108
    },
    {
      "midi": 84,
      "hit": false,
      "t": 142825.88699999943,
      "d": 182.06496249997872,
      "v": 127
    },
    {
      "midi": 82,
      "hit": false,
      "t": 142988.93024999942,
      "d": 206.5214500000002,
      "v": 127
    },
    {
      "midi": 77,
      "hit": false,
      "t": 143315.01674999943,
      "d": 142.66284375000396,
      "v": 111
    },
    {
      "midi": 68,
      "hit": false,
      "t": 143478.0599999999,
      "d": 710.5968312500045,
      "v": 79
    },
    {
      "midi": 77,
      "hit": false,
      "t": 143478.0599999999,
      "d": 774.4554375000007,
      "v": 96
    },
    {
      "midi": 73,
      "hit": false,
      "t": 143478.0599999999,
      "d": 789.4010687500122,
      "v": 81
    },
    {
      "midi": 77,
      "hit": false,
      "t": 143641.10324999943,
      "d": 169.83671875001164,
      "v": 124
    },
    {
      "midi": 75,
      "hit": false,
      "t": 143967.18974999944,
      "d": 51.63036250000005,
      "v": 104
    },
    {
      "midi": 77,
      "hit": false,
      "t": 144130.23299999943,
      "d": 130.43460000000778,
      "v": 127
    },
    {
      "midi": 75,
      "hit": false,
      "t": 144293.27624999944,
      "d": 91.03248125000391,
      "v": 113
    },
    {
      "midi": 77,
      "hit": false,
      "t": 144293.2762499999,
      "d": 360.0538437499781,
      "v": 101
    },
    {
      "midi": 68,
      "hit": false,
      "t": 144293.2762499999,
      "d": 415.7602874999866,
      "v": 83
    },
    {
      "midi": 72,
      "hit": false,
      "t": 144456.31949999946,
      "d": 78.80423750000773,
      "v": 92
    },
    {
      "midi": 70,
      "hit": false,
      "t": 144619.36274999948,
      "d": 51.63036250000005,
      "v": 88
    },
    {
      "midi": 72,
      "hit": false,
      "t": 144782.40599999946,
      "d": 131.79329375000088,
      "v": 127
    },
    {
      "midi": 73,
      "hit": false,
      "t": 144782.4059999999,
      "d": 35.32603749999544,
      "v": 68
    },
    {
      "midi": 67,
      "hit": false,
      "t": 144782.4059999999,
      "d": 502.7166874999821,
      "v": 81
    },
    {
      "midi": 77,
      "hit": false,
      "t": 144782.4059999999,
      "d": 778.53151874998,
      "v": 85
    },
    {
      "midi": 70,
      "hit": false,
      "t": 144945.44924999945,
      "d": 91.03248125000391,
      "v": 110
    },
    {
      "midi": 65,
      "hit": false,
      "t": 145108.49249999947,
      "d": 77.44554374998552,
      "v": 96
    },
    {
      "midi": 60,
      "hit": false,
      "t": 145271.53574999946,
      "d": 52.989056249993155,
      "v": 78
    },
    {
      "midi": 67,
      "hit": false,
      "t": 145271.53574999946,
      "d": 163.0432499999879,
      "v": 118
    },
    {
      "midi": 68,
      "hit": false,
      "t": 145434.57899999944,
      "d": 163.0432499999879,
      "v": 86
    },
    {
      "midi": 63,
      "hit": false,
      "t": 145597.62224999943,
      "d": 39.402118750003865,
      "v": 66
    },
    {
      "midi": 56,
      "hit": false,
      "t": 145597.62224999943,
      "d": 69.29338124999776,
      "v": 55
    },
    {
      "midi": 70,
      "hit": false,
      "t": 145597.62224999943,
      "d": 163.0432499999879,
      "v": 110
    },
    {
      "midi": 75,
      "hit": false,
      "t": 145597.62224999987,
      "d": 142.66284375000396,
      "v": 104
    },
    {
      "midi": 72,
      "hit": false,
      "t": 145760.66549999942,
      "d": 163.0432499999879,
      "v": 111
    },
    {
      "midi": 77,
      "hit": false,
      "t": 145760.6654999999,
      "d": 105.97811249998631,
      "v": 104
    },
    {
      "midi": 56,
      "hit": false,
      "t": 145923.7087499994,
      "d": 39.402118750003865,
      "v": 74
    },
    {
      "midi": 60,
      "hit": false,
      "t": 145923.7087499994,
      "d": 66.57599375001155,
      "v": 95
    },
    {
      "midi": 73,
      "hit": false,
      "t": 145923.7087499994,
      "d": 163.043250000017,
      "v": 127
    },
    {
      "midi": 75,
      "hit": false,
      "t": 146086.75199999943,
      "d": 163.043250000017,
      "v": 85
    },
    {
      "midi": 73,
      "hit": false,
      "t": 146086.75199999986,
      "d": 786.6836812499969,
      "v": 86
    },
    {
      "midi": 80,
      "hit": false,
      "t": 146086.75199999986,
      "d": 877.7161625000008,
      "v": 85
    },
    {
      "midi": 77,
      "hit": false,
      "t": 146086.75199999986,
      "d": 904.8900375000085,
      "v": 104
    },
    {
      "midi": 70,
      "hit": false,
      "t": 146086.75199999986,
      "d": 934.7813000000024,
      "v": 86
    },
    {
      "midi": 66,
      "hit": false,
      "t": 146086.75199999986,
      "d": 975.5421124999993,
      "v": 68
    },
    {
      "midi": 73,
      "hit": false,
      "t": 146234.84961874943,
      "d": 163.043250000017,
      "v": 91
    },
    {
      "midi": 72,
      "hit": false,
      "t": 146412.83849999946,
      "d": 163.0432499999879,
      "v": 111
    },
    {
      "midi": 73,
      "hit": false,
      "t": 146575.88174999945,
      "d": 163.0432499999879,
      "v": 127
    },
    {
      "midi": 75,
      "hit": false,
      "t": 146738.92499999944,
      "d": 163.0432499999879,
      "v": 94
    },
    {
      "midi": 77,
      "hit": false,
      "t": 146901.96824999942,
      "d": 163.0432499999879,
      "v": 127
    },
    {
      "midi": 78,
      "hit": false,
      "t": 147065.0114999994,
      "d": 163.0432499999879,
      "v": 110
    },
    {
      "midi": 80,
      "hit": false,
      "t": 147228.0547499994,
      "d": 163.0432499999879,
      "v": 127
    },
    {
      "midi": 82,
      "hit": false,
      "t": 147391.0979999994,
      "d": 163.0432499999879,
      "v": 104
    },
    {
      "midi": 77,
      "hit": false,
      "t": 147391.09799999985,
      "d": 569.2926812499936,
      "v": 103
    },
    {
      "midi": 73,
      "hit": false,
      "t": 147391.09799999985,
      "d": 582.8796187499829,
      "v": 94
    },
    {
      "midi": 66,
      "hit": false,
      "t": 147391.09799999985,
      "d": 649.4556124999945,
      "v": 86
    },
    {
      "midi": 84,
      "hit": false,
      "t": 147554.14124999937,
      "d": 163.0432499999879,
      "v": 127
    },
    {
      "midi": 85,
      "hit": false,
      "t": 147717.18449999936,
      "d": 163.0432499999879,
      "v": 115
    },
    {
      "midi": 87,
      "hit": false,
      "t": 147880.22774999935,
      "d": 163.0432499999879,
      "v": 84
    },
    {
      "midi": 77,
      "hit": false,
      "t": 148043.27099999934,
      "d": 163.0432499999879,
      "v": 127
    },
    {
      "midi": 89,
      "hit": false,
      "t": 148043.27099999934,
      "d": 163.0432499999879,
      "v": 126
    },
    {
      "midi": 79,
      "hit": false,
      "t": 148206.31424999933,
      "d": 163.0432499999879,
      "v": 127
    },
    {
      "midi": 66,
      "hit": false,
      "t": 148206.31424999985,
      "d": 80.16293125000084,
      "v": 88
    },
    {
      "midi": 70,
      "hit": false,
      "t": 148206.31424999985,
      "d": 92.39117499999702,
      "v": 99
    },
    {
      "midi": 73,
      "hit": false,
      "t": 148206.31424999985,
      "d": 104.6194187499932,
      "v": 98
    },
    {
      "midi": 80,
      "hit": false,
      "t": 148206.31424999985,
      "d": 163.0432499999879,
      "v": 113
    },
    {
      "midi": 83,
      "hit": false,
      "t": 148532.4007499993,
      "d": 163.0432499999879,
      "v": 104
    },
    {
      "midi": 91,
      "hit": false,
      "t": 148695.4439999993,
      "d": 505.4340749999974,
      "v": 127
    },
    {
      "midi": 83,
      "hit": false,
      "t": 148695.44399999984,
      "d": 972.8247250000131,
      "v": 115
    },
    {
      "midi": 79,
      "hit": false,
      "t": 148695.44399999984,
      "d": 998.6399062499986,
      "v": 77
    },
    {
      "midi": 71,
      "hit": false,
      "t": 148695.44399999984,
      "d": 1024.455087499984,
      "v": 106
    },
    {
      "midi": 74,
      "hit": false,
      "t": 148695.44399999984,
      "d": 1036.6833312499803,
      "v": 104
    },
    {
      "midi": 86,
      "hit": false,
      "t": 149078.5956374993,
      "d": 80.16293125000084,
      "v": 99
    },
    {
      "midi": 83,
      "hit": false,
      "t": 149143.8129374993,
      "d": 67.93468750000466,
      "v": 114
    },
    {
      "midi": 79,
      "hit": false,
      "t": 149210.3889312493,
      "d": 40.76081249999697,
      "v": 127
    },
    {
      "midi": 79,
      "hit": false,
      "t": 149278.3236187493,
      "d": 13.58693749998929,
      "v": 94
    },
    {
      "midi": 74,
      "hit": false,
      "t": 149306.8561874993,
      "d": 195.6518999999971,
      "v": 127
    },
    {
      "midi": 71,
      "hit": false,
      "t": 149499.7906999993,
      "d": 119.5650499999756,
      "v": 124
    },
    {
      "midi": 67,
      "hit": false,
      "t": 149632.94268749928,
      "d": 154.89108750000014,
      "v": 111
    },
    {
      "midi": 63,
      "hit": false,
      "t": 149828.59458749928,
      "d": 54.34774999998626,
      "v": 89
    },
    {
      "midi": 56,
      "hit": false,
      "t": 149840.82283124927,
      "d": 39.402118750003865,
      "v": 71
    },
    {
      "midi": 68,
      "hit": false,
      "t": 149990.27914374927,
      "d": 298.9126249999681,
      "v": 127
    },
    {
      "midi": 75,
      "hit": false,
      "t": 150169.62671874926,
      "d": 55.70644374997937,
      "v": 78
    },
    {
      "midi": 73,
      "hit": false,
      "t": 150223.97446874925,
      "d": 52.989056249993155,
      "v": 71
    },
    {
      "midi": 72,
      "hit": false,
      "t": 150291.90915624922,
      "d": 38.04342500001076,
      "v": 118
    },
    {
      "midi": 75,
      "hit": false,
      "t": 150325.8764999998,
      "d": 336.95605000000796,
      "v": 93
    },
    {
      "midi": 80,
      "hit": false,
      "t": 150325.8764999998,
      "d": 362.77123124999343,
      "v": 127
    },
    {
      "midi": 68,
      "hit": false,
      "t": 150325.8764999998,
      "d": 394.02118749998044,
      "v": 99
    },
    {
      "midi": 72,
      "hit": false,
      "t": 150325.8764999998,
      "d": 433.4233062499843,
      "v": 120
    },
    {
      "midi": 68,
      "hit": false,
      "t": 150488.91974999924,
      "d": 78.80423750000773,
      "v": 121
    },
    {
      "midi": 70,
      "hit": false,
      "t": 150672.34340624925,
      "d": 119.5650500000047,
      "v": 127
    },
    {
      "midi": 74,
      "hit": false,
      "t": 150815.0062499998,
      "d": 300.2713187499903,
      "v": 122
    },
    {
      "midi": 79,
      "hit": false,
      "t": 150815.0062499998,
      "d": 300.2713187499903,
      "v": 109
    },
    {
      "midi": 68,
      "hit": false,
      "t": 150815.0062499998,
      "d": 353.26037499998347,
      "v": 118
    },
    {
      "midi": 71,
      "hit": false,
      "t": 150872.07138749925,
      "d": 156.24978124999325,
      "v": 127
    },
    {
      "midi": 72,
      "hit": false,
      "t": 151081.31022499924,
      "d": 145.38023124999017,
      "v": 120
    },
    {
      "midi": 68,
      "hit": false,
      "t": 151304.1359999998,
      "d": 813.8575562500046,
      "v": 94
    },
    {
      "midi": 73,
      "hit": false,
      "t": 151304.1359999998,
      "d": 1020.3790062500047,
      "v": 90
    },
    {
      "midi": 77,
      "hit": false,
      "t": 151304.1359999998,
      "d": 1057.0637374999933,
      "v": 101
    },
    {
      "midi": 73,
      "hit": false,
      "t": 151320.44032499922,
      "d": 275.81483124999795,
      "v": 127
    },
    {
      "midi": 75,
      "hit": false,
      "t": 151616.63556249923,
      "d": 130.43460000000778,
      "v": 110
    },
    {
      "midi": 77,
      "hit": false,
      "t": 151791.90705624924,
      "d": 180.7062687499856,
      "v": 124
    },
    {
      "midi": 77,
      "hit": false,
      "t": 152391.09099999923,
      "d": 107.33680625000852,
      "v": 127
    },
    {
      "midi": 77,
      "hit": false,
      "t": 152445.4387499998,
      "d": 27.173875000007683,
      "v": 88
    },
    {
      "midi": 68,
      "hit": false,
      "t": 152445.4387499998,
      "d": 105.97811250001541,
      "v": 106
    },
    {
      "midi": 79,
      "hit": false,
      "t": 152608.48199999923,
      "d": 168.47802499998943,
      "v": 117
    },
    {
      "midi": 69,
      "hit": false,
      "t": 152608.4819999998,
      "d": 763.5858874999976,
      "v": 104
    },
    {
      "midi": 81,
      "hit": false,
      "t": 152825.87299999924,
      "d": 144.02153749999707,
      "v": 127
    },
    {
      "midi": 73,
      "hit": false,
      "t": 152934.56849999982,
      "d": 400.8146562500042,
      "v": 87
    },
    {
      "midi": 77,
      "hit": false,
      "t": 152934.56849999982,
      "d": 442.9341624999943,
      "v": 98
    },
    {
      "midi": 82,
      "hit": false,
      "t": 153093.53566874925,
      "d": 547.5535812499875,
      "v": 127
    },
    {
      "midi": 69,
      "hit": false,
      "t": 153423.6982499998,
      "d": 285.3256875000079,
      "v": 98
    },
    {
      "midi": 73,
      "hit": false,
      "t": 153423.6982499998,
      "d": 311.1408687499934,
      "v": 91
    },
    {
      "midi": 77,
      "hit": false,
      "t": 153423.6982499998,
      "d": 353.26037499998347,
      "v": 93
    },
    {
      "midi": 84,
      "hit": false,
      "t": 153749.78474999923,
      "d": 93.74986874999013,
      "v": 127
    },
    {
      "midi": 85,
      "hit": false,
      "t": 153912.82799999922,
      "d": 163.0432499999879,
      "v": 127
    },
    {
      "midi": 77,
      "hit": false,
      "t": 153912.8279999998,
      "d": 91.03248125000391,
      "v": 77
    },
    {
      "midi": 68,
      "hit": false,
      "t": 153912.8279999998,
      "d": 107.33680625000852,
      "v": 68
    },
    {
      "midi": 70,
      "hit": false,
      "t": 153912.8279999998,
      "d": 107.33680625000852,
      "v": 72
    },
    {
      "midi": 73,
      "hit": false,
      "t": 153912.8279999998,
      "d": 122.28243750002002,
      "v": 83
    },
    {
      "midi": 87,
      "hit": false,
      "t": 154075.8712499992,
      "d": 163.0432499999879,
      "v": 121
    },
    {
      "midi": 60,
      "hit": false,
      "t": 154401.9577499992,
      "d": 67.93468750000466,
      "v": 93
    },
    {
      "midi": 61,
      "hit": false,
      "t": 154401.9577499992,
      "d": 69.29338124999776,
      "v": 96
    },
    {
      "midi": 65,
      "hit": false,
      "t": 154401.9577499992,
      "d": 81.52162499999395,
      "v": 90
    },
    {
      "midi": 84,
      "hit": false,
      "t": 154401.9577499992,
      "d": 163.0432499999879,
      "v": 126
    },
    {
      "midi": 73,
      "hit": false,
      "t": 154401.95774999983,
      "d": 118.2063562500116,
      "v": 85
    },
    {
      "midi": 70,
      "hit": false,
      "t": 154401.95774999983,
      "d": 130.43460000000778,
      "v": 82
    },
    {
      "midi": 77,
      "hit": false,
      "t": 154401.95774999983,
      "d": 144.02153749999707,
      "v": 96
    },
    {
      "midi": 68,
      "hit": false,
      "t": 154401.95774999983,
      "d": 148.0976187500055,
      "v": 85
    },
    {
      "midi": 82,
      "hit": false,
      "t": 154728.04424999916,
      "d": 163.0432499999879,
      "v": 127
    },
    {
      "midi": 80,
      "hit": false,
      "t": 154891.08749999915,
      "d": 163.0432499999879,
      "v": 106
    },
    {
      "midi": 77,
      "hit": false,
      "t": 155054.13074999914,
      "d": 163.0432499999879,
      "v": 105
    },
    {
      "midi": 82,
      "hit": false,
      "t": 155217.17399999913,
      "d": 163.0432499999879,
      "v": 124
    },
    {
      "midi": 67,
      "hit": false,
      "t": 155217.17399999982,
      "d": 657.6077750000113,
      "v": 86
    },
    {
      "midi": 77,
      "hit": false,
      "t": 155217.17399999982,
      "d": 777.172825000016,
      "v": 97
    },
    {
      "midi": 70,
      "hit": false,
      "t": 155217.17399999982,
      "d": 830.1618812500383,
      "v": 78
    },
    {
      "midi": 73,
      "hit": false,
      "t": 155217.17399999982,
      "d": 830.1618812500383,
      "v": 81
    },
    {
      "midi": 61,
      "hit": false,
      "t": 155380.2172499991,
      "d": 40.76081249999697,
      "v": 108
    },
    {
      "midi": 60,
      "hit": false,
      "t": 155380.2172499991,
      "d": 42.11950624999008,
      "v": 101
    },
    {
      "midi": 65,
      "hit": false,
      "t": 155380.2172499991,
      "d": 42.11950624999008,
      "v": 98
    },
    {
      "midi": 80,
      "hit": false,
      "t": 155380.2172499991,
      "d": 163.0432499999879,
      "v": 127
    },
    {
      "midi": 79,
      "hit": false,
      "t": 155706.3037499991,
      "d": 163.0432499999879,
      "v": 122
    },
    {
      "midi": 75,
      "hit": false,
      "t": 155869.34699999908,
      "d": 163.0432499999879,
      "v": 121
    },
    {
      "midi": 65,
      "hit": false,
      "t": 156032.39024999907,
      "d": 40.76081249999697,
      "v": 90
    },
    {
      "midi": 60,
      "hit": false,
      "t": 156032.39024999907,
      "d": 42.11950624999008,
      "v": 95
    },
    {
      "midi": 61,
      "hit": false,
      "t": 156032.39024999907,
      "d": 42.11950624999008,
      "v": 103
    },
    {
      "midi": 73,
      "hit": false,
      "t": 156032.39024999907,
      "d": 163.0432499999879,
      "v": 127
    },
    {
      "midi": 75,
      "hit": false,
      "t": 156032.39024999985,
      "d": 145.38023125001928,
      "v": 106
    },
    {
      "midi": 67,
      "hit": false,
      "t": 156032.39024999985,
      "d": 186.14104375001625,
      "v": 104
    },
    {
      "midi": 77,
      "hit": false,
      "t": 156195.43349999987,
      "d": 80.16293125000084,
      "v": 114
    },
    {
      "midi": 54,
      "hit": false,
      "t": 156358.47674999904,
      "d": 39.402118750003865,
      "v": 71
    },
    {
      "midi": 61,
      "hit": false,
      "t": 156358.47674999904,
      "d": 69.29338124999776,
      "v": 85
    },
    {
      "midi": 65,
      "hit": false,
      "t": 156358.47674999904,
      "d": 69.29338124999776,
      "v": 90
    },
    {
      "midi": 73,
      "hit": false,
      "t": 156358.47674999904,
      "d": 163.0432499999879,
      "v": 127
    },
    {
      "midi": 75,
      "hit": false,
      "t": 156521.51999999903,
      "d": 163.0432499999879,
      "v": 118
    },
    {
      "midi": 80,
      "hit": false,
      "t": 156521.51999999987,
      "d": 630.4339000000036,
      "v": 83
    },
    {
      "midi": 77,
      "hit": false,
      "t": 156521.51999999987,
      "d": 658.9664687500044,
      "v": 100
    },
    {
      "midi": 73,
      "hit": false,
      "t": 156521.51999999987,
      "d": 660.3251624999975,
      "v": 80
    },
    {
      "midi": 70,
      "hit": false,
      "t": 156521.51999999987,
      "d": 737.770706249983,
      "v": 77
    },
    {
      "midi": 66,
      "hit": false,
      "t": 156521.51999999987,
      "d": 820.6510249999701,
      "v": 70
    },
    {
      "midi": 78,
      "hit": false,
      "t": 156684.56324999902,
      "d": 163.0432499999879,
      "v": 98
    },
    {
      "midi": 77,
      "hit": false,
      "t": 157010.649749999,
      "d": 163.0432499999879,
      "v": 127
    },
    {
      "midi": 78,
      "hit": false,
      "t": 157336.73624999897,
      "d": 163.0432499999879,
      "v": 127
    },
    {
      "midi": 80,
      "hit": false,
      "t": 157499.77949999896,
      "d": 163.0432499999879,
      "v": 99
    },
    {
      "midi": 82,
      "hit": false,
      "t": 157662.82274999894,
      "d": 163.0432499999879,
      "v": 104
    },
    {
      "midi": 77,
      "hit": false,
      "t": 157825.86599999893,
      "d": 326.0864999999758,
      "v": 117
    },
    {
      "midi": 84,
      "hit": false,
      "t": 157825.86599999893,
      "d": 489.1297499999637,
      "v": 127
    },
    {
      "midi": 77,
      "hit": false,
      "t": 157825.86599999983,
      "d": 437.49938749999274,
      "v": 104
    },
    {
      "midi": 73,
      "hit": false,
      "t": 157825.86599999983,
      "d": 466.0319562499935,
      "v": 91
    },
    {
      "midi": 66,
      "hit": false,
      "t": 157825.86599999983,
      "d": 506.7927687499905,
      "v": 85
    },
    {
      "midi": 61,
      "hit": false,
      "t": 157988.90924999892,
      "d": 42.11950624999008,
      "v": 57
    },
    {
      "midi": 54,
      "hit": false,
      "t": 157988.90924999892,
      "d": 55.70644374997937,
      "v": 69
    },
    {
      "midi": 65,
      "hit": false,
      "t": 157988.90924999892,
      "d": 67.93468749997555,
      "v": 91
    },
    {
      "midi": 82,
      "hit": false,
      "t": 158151.9524999989,
      "d": 197.01059374999022,
      "v": 127
    },
    {
      "midi": 84,
      "hit": false,
      "t": 158478.03899999888,
      "d": 158.96716874997946,
      "v": 98
    },
    {
      "midi": 70,
      "hit": false,
      "t": 158478.03899999982,
      "d": 400.8146562500042,
      "v": 96
    },
    {
      "midi": 66,
      "hit": false,
      "t": 158478.03899999982,
      "d": 418.4776750000019,
      "v": 77
    },
    {
      "midi": 73,
      "hit": false,
      "t": 158478.03899999982,
      "d": 434.7820000000065,
      "v": 85
    },
    {
      "midi": 80,
      "hit": false,
      "t": 158478.03899999982,
      "d": 440.21677500000806,
      "v": 113
    },
    {
      "midi": 82,
      "hit": false,
      "t": 158532.38674999887,
      "d": 93.74986874999013,
      "v": 96
    },
    {
      "midi": 80,
      "hit": false,
      "t": 158571.78886874887,
      "d": 95.10856249995413,
      "v": 118
    },
    {
      "midi": 77,
      "hit": false,
      "t": 158639.72355624885,
      "d": 52.98905624996405,
      "v": 94
    },
    {
      "midi": 72,
      "hit": false,
      "t": 158641.08224999884,
      "d": 133.1519874999649,
      "v": 127
    },
    {
      "midi": 54,
      "hit": false,
      "t": 158745.7016687488,
      "d": 65.21729999998934,
      "v": 61
    },
    {
      "midi": 73,
      "hit": false,
      "t": 158804.1254999988,
      "d": 89.6737874999817,
      "v": 124
    },
    {
      "midi": 74,
      "hit": false,
      "t": 158967.1687499988,
      "d": 104.6194187499932,
      "v": 127
    },
    {
      "midi": 74,
      "hit": false,
      "t": 159130.21199999878,
      "d": 395.37988125000265,
      "v": 109
    },
    {
      "midi": 86,
      "hit": false,
      "t": 159130.21199999878,
      "d": 512.227543749992,
      "v": 127
    },
    {
      "midi": 83,
      "hit": false,
      "t": 159130.21199999878,
      "d": 552.988356249989,
      "v": 127
    },
    {
      "midi": 67,
      "hit": false,
      "t": 159130.21199999878,
      "d": 695.651199999993,
      "v": 103
    },
    {
      "midi": 63,
      "hit": false,
      "t": 159130.21199999878,
      "d": 831.5205750000023,
      "v": 113
    },
    {
      "midi": 57,
      "hit": false,
      "t": 159130.21199999878,
      "d": 913.0421999999962,
      "v": 115
    },
    {
      "midi": 83,
      "hit": false,
      "t": 159130.21199999982,
      "d": 504.0753812500043,
      "v": 117
    },
    {
      "midi": 79,
      "hit": false,
      "t": 159130.21199999982,
      "d": 1080.1615312499925,
      "v": 102
    },
    {
      "midi": 74,
      "hit": false,
      "t": 159130.21199999982,
      "d": 1105.976712499978,
      "v": 95
    },
    {
      "midi": 71,
      "hit": false,
      "t": 159130.21199999982,
      "d": 1134.5092812499788,
      "v": 99
    },
    {
      "midi": 74,
      "hit": false,
      "t": 159619.34174999877,
      "d": 148.0976187500055,
      "v": 118
    },
    {
      "midi": 74,
      "hit": false,
      "t": 159945.42824999877,
      "d": 27.173875000007683,
      "v": 81
    },
    {
      "midi": 67,
      "hit": false,
      "t": 159945.42824999877,
      "d": 95.10856250001234,
      "v": 90
    },
    {
      "midi": 79,
      "hit": false,
      "t": 159945.42824999877,
      "d": 107.33680625000852,
      "v": 127
    },
    {
      "midi": 86,
      "hit": false,
      "t": 159945.42824999877,
      "d": 120.92374374999781,
      "v": 127
    },
    {
      "midi": 56,
      "hit": false,
      "t": 160271.51474999878,
      "d": 27.173875000007683,
      "v": 62
    },
    {
      "midi": 62,
      "hit": false,
      "t": 160271.51474999878,
      "d": 40.76081249999697,
      "v": 84
    },
    {
      "midi": 82,
      "hit": false,
      "t": 160271.51474999878,
      "d": 148.0976187500055,
      "v": 118
    },
    {
      "midi": 75,
      "hit": false,
      "t": 160271.51474999878,
      "d": 256.7931187500071,
      "v": 127
    },
    {
      "midi": 79,
      "hit": false,
      "t": 160271.51474999878,
      "d": 269.0213625000033,
      "v": 126
    },
    {
      "midi": 87,
      "hit": false,
      "t": 160271.51474999878,
      "d": 320.65172500000335,
      "v": 124
    },
    {
      "midi": 56,
      "hit": false,
      "t": 160434.5579999988,
      "d": 120.92374374999781,
      "v": 71
    },
    {
      "midi": 65,
      "hit": false,
      "t": 160434.55799999982,
      "d": 788.04237499999,
      "v": 81
    },
    {
      "midi": 71,
      "hit": false,
      "t": 160434.55799999982,
      "d": 788.04237499999,
      "v": 99
    },
    {
      "midi": 75,
      "hit": false,
      "t": 160434.55799999982,
      "d": 788.04237499999,
      "v": 81
    },
    {
      "midi": 79,
      "hit": false,
      "t": 160434.55799999982,
      "d": 1138.5853624999872,
      "v": 92
    },
    {
      "midi": 82,
      "hit": false,
      "t": 160597.60124999878,
      "d": 66.57599375001155,
      "v": 110
    },
    {
      "midi": 77,
      "hit": false,
      "t": 160597.60124999878,
      "d": 144.02153749999707,
      "v": 112
    },
    {
      "midi": 85,
      "hit": false,
      "t": 160760.64449999877,
      "d": 91.03248125000391,
      "v": 73
    },
    {
      "midi": 89,
      "hit": false,
      "t": 160760.64449999877,
      "d": 158.96716875000857,
      "v": 127
    },
    {
      "midi": 90,
      "hit": false,
      "t": 160923.6877499988,
      "d": 182.06496250000782,
      "v": 110
    },
    {
      "midi": 78,
      "hit": false,
      "t": 160923.6877499988,
      "d": 194.293206250004,
      "v": 103
    },
    {
      "midi": 66,
      "hit": false,
      "t": 161249.7742499988,
      "d": 103.2607250000001,
      "v": 56
    },
    {
      "midi": 91,
      "hit": false,
      "t": 161249.7742499988,
      "d": 209.2388374999864,
      "v": 120
    },
    {
      "midi": 79,
      "hit": false,
      "t": 161249.7742499988,
      "d": 302.98870624997653,
      "v": 109
    },
    {
      "midi": 66,
      "hit": false,
      "t": 161575.86074999877,
      "d": 39.402118750003865,
      "v": 80
    },
    {
      "midi": 91,
      "hit": false,
      "t": 161575.86074999877,
      "d": 91.03248125000391,
      "v": 117
    },
    {
      "midi": 75,
      "hit": false,
      "t": 161738.9039999998,
      "d": 570.6513749999867,
      "v": 74
    },
    {
      "midi": 72,
      "hit": false,
      "t": 161738.9039999998,
      "d": 582.8796187499829,
      "v": 87
    },
    {
      "midi": 79,
      "hit": false,
      "t": 161738.9039999998,
      "d": 686.140343749983,
      "v": 87
    },
    {
      "midi": 75,
      "hit": false,
      "t": 162554.12024999977,
      "d": 77.44554374998552,
      "v": 74
    },
    {
      "midi": 72,
      "hit": false,
      "t": 162554.12024999977,
      "d": 93.74986874999013,
      "v": 85
    },
    {
      "midi": 79,
      "hit": false,
      "t": 162554.12024999977,
      "d": 134.5106812499871,
      "v": 87
    },
    {
      "midi": 75,
      "hit": false,
      "t": 163043.24999999977,
      "d": 130.43460000000778,
      "v": 59
    },
    {
      "midi": 79,
      "hit": false,
      "t": 163043.24999999977,
      "d": 144.02153749999707,
      "v": 79
    },
    {
      "midi": 71,
      "hit": false,
      "t": 163043.24999999977,
      "d": 184.78234999999404,
      "v": 79
    },
    {
      "midi": 71,
      "hit": false,
      "t": 163532.37974999976,
      "d": 273.09744375001173,
      "v": 90
    },
    {
      "midi": 75,
      "hit": false,
      "t": 163532.37974999976,
      "d": 286.684381250001,
      "v": 71
    },
    {
      "midi": 79,
      "hit": false,
      "t": 163532.37974999976,
      "d": 326.0865000000049,
      "v": 83
    },
    {
      "midi": 72,
      "hit": false,
      "t": 163858.46624999976,
      "d": 142.66284375000396,
      "v": 99
    },
    {
      "midi": 71,
      "hit": false,
      "t": 164021.50949999978,
      "d": 168.47802499998943,
      "v": 95
    },
    {
      "midi": 70,
      "hit": false,
      "t": 164673.68249999976,
      "d": 313.8582562500087,
      "v": 83
    },
    {
      "midi": 73,
      "hit": false,
      "t": 164673.68249999976,
      "d": 338.31474375000107,
      "v": 85
    },
    {
      "midi": 67,
      "hit": false,
      "t": 164673.68249999976,
      "d": 351.90168124999036,
      "v": 88
    },
    {
      "midi": 73,
      "hit": false,
      "t": 165162.81224999976,
      "d": 221.4670812500117,
      "v": 85
    },
    {
      "midi": 70,
      "hit": false,
      "t": 165162.81224999976,
      "d": 453.80371249999735,
      "v": 85
    },
    {
      "midi": 76,
      "hit": false,
      "t": 165162.81224999976,
      "d": 479.6188937499828,
      "v": 98
    },
    {
      "midi": 79,
      "hit": false,
      "t": 165651.94199999975,
      "d": 957.8790937500016,
      "v": 97
    },
    {
      "midi": 73,
      "hit": false,
      "t": 165651.94199999975,
      "d": 959.2377874999947,
      "v": 82
    },
    {
      "midi": 70,
      "hit": false,
      "t": 165651.94199999975,
      "d": 983.6942749999871,
      "v": 81
    },
    {
      "midi": 76,
      "hit": false,
      "t": 166304.11499999976,
      "d": 129.07590624998556,
      "v": 74
    },
    {
      "midi": 80,
      "hit": false,
      "t": 166793.24474999972,
      "d": 78.80423750000773,
      "v": 127
    },
    {
      "midi": 78,
      "hit": false,
      "t": 166956.28799999974,
      "d": 43.47820000001229,
      "v": 86
    },
    {
      "midi": 72,
      "hit": false,
      "t": 166956.28799999974,
      "d": 119.5650500000047,
      "v": 112
    },
    {
      "midi": 79,
      "hit": false,
      "t": 166956.28799999974,
      "d": 605.9774125000113,
      "v": 112
    },
    {
      "midi": 70,
      "hit": false,
      "t": 166956.28799999974,
      "d": 626.3578187500243,
      "v": 95
    },
    {
      "midi": 75,
      "hit": false,
      "t": 166956.28799999974,
      "d": 1184.7809500000149,
      "v": 86
    },
    {
      "midi": 72,
      "hit": false,
      "t": 167608.46099999975,
      "d": 374.9994749999896,
      "v": 73
    },
    {
      "midi": 68,
      "hit": false,
      "t": 167608.46099999975,
      "d": 441.57546875000116,
      "v": 86
    },
    {
      "midi": 67,
      "hit": false,
      "t": 168260.63399999976,
      "d": 489.1297499999928,
      "v": 90
    },
    {
      "midi": 68,
      "hit": false,
      "t": 168260.63399999976,
      "d": 508.1514624999836,
      "v": 78
    },
    {
      "midi": 72,
      "hit": false,
      "t": 168260.63399999976,
      "d": 846.4662062499847,
      "v": 97
    },
    {
      "midi": 75,
      "hit": false,
      "t": 168260.63399999976,
      "d": 885.8683249999885,
      "v": 81
    },
    {
      "midi": 67,
      "hit": false,
      "t": 168912.80699999974,
      "d": 39.402118750003865,
      "v": 75
    },
    {
      "midi": 65,
      "hit": false,
      "t": 168912.80699999974,
      "d": 301.6300125000125,
      "v": 86
    },
    {
      "midi": 68,
      "hit": false,
      "t": 168912.80699999974,
      "d": 301.6300125000125,
      "v": 81
    },
    {
      "midi": 70,
      "hit": false,
      "t": 169238.89349999974,
      "d": 91.03248125000391,
      "v": 48
    },
    {
      "midi": 79,
      "hit": false,
      "t": 169401.93674999976,
      "d": 77.44554374998552,
      "v": 74
    },
    {
      "midi": 79,
      "hit": false,
      "t": 169564.97999999975,
      "d": 739.1294000000053,
      "v": 109
    },
    {
      "midi": 75,
      "hit": false,
      "t": 169564.97999999975,
      "d": 751.3576437500014,
      "v": 86
    },
    {
      "midi": 65,
      "hit": false,
      "t": 169564.97999999975,
      "d": 831.5205750000023,
      "v": 87
    },
    {
      "midi": 71,
      "hit": false,
      "t": 169564.97999999975,
      "d": 832.8792687499954,
      "v": 87
    },
    {
      "midi": 79,
      "hit": false,
      "t": 170380.19624999975,
      "d": 27.173875000007683,
      "v": 91
    },
    {
      "midi": 71,
      "hit": false,
      "t": 170706.28274999975,
      "d": 1013.585537499981,
      "v": 86
    },
    {
      "midi": 68,
      "hit": false,
      "t": 170706.28274999975,
      "d": 1116.846262499981,
      "v": 72
    },
    {
      "midi": 82,
      "hit": false,
      "t": 170869.32599999974,
      "d": 777.1728249999869,
      "v": 103
    },
    {
      "midi": 75,
      "hit": false,
      "t": 170869.32599999974,
      "d": 1065.2159000000102,
      "v": 84
    },
    {
      "midi": 80,
      "hit": false,
      "t": 171684.54224999974,
      "d": 183.42365625000093,
      "v": 118
    },
    {
      "midi": 74,
      "hit": false,
      "t": 172173.67199999976,
      "d": 903.5313437499863,
      "v": 94
    },
    {
      "midi": 75,
      "hit": false,
      "t": 172173.67199999976,
      "d": 917.1182812499756,
      "v": 84
    },
    {
      "midi": 79,
      "hit": false,
      "t": 172173.67199999976,
      "d": 932.063912499987,
      "v": 96
    },
    {
      "midi": 74,
      "hit": false,
      "t": 173478.01799999975,
      "d": 180.7062687499856,
      "v": 83
    },
    {
      "midi": 75,
      "hit": false,
      "t": 173478.01799999975,
      "d": 194.2932062499749,
      "v": 71
    },
    {
      "midi": 79,
      "hit": false,
      "t": 173478.01799999975,
      "d": 210.5975312499795,
      "v": 94
    },
    {
      "midi": 72,
      "hit": false,
      "t": 173641.06124999974,
      "d": 156.24978124999325,
      "v": 84
    },
    {
      "midi": 75,
      "hit": false,
      "t": 173967.14774999974,
      "d": 142.66284375000396,
      "v": 79
    },
    {
      "midi": 72,
      "hit": false,
      "t": 173967.14774999974,
      "d": 156.24978124999325,
      "v": 92
    },
    {
      "midi": 79,
      "hit": false,
      "t": 173967.14774999974,
      "d": 198.36928749998333,
      "v": 90
    },
    {
      "midi": 70,
      "hit": false,
      "t": 174293.23424999972,
      "d": 130.43460000000778,
      "v": 86
    },
    {
      "midi": 75,
      "hit": false,
      "t": 174293.23424999972,
      "d": 183.42365625000093,
      "v": 85
    },
    {
      "midi": 79,
      "hit": false,
      "t": 174293.23424999972,
      "d": 220.10838749998948,
      "v": 94
    },
    {
      "midi": 76,
      "hit": false,
      "t": 174782.3639999997,
      "d": 914.4008937499893,
      "v": 91
    },
    {
      "midi": 73,
      "hit": false,
      "t": 174782.3639999997,
      "d": 994.5638249999902,
      "v": 79
    },
    {
      "midi": 69,
      "hit": false,
      "t": 174782.3639999997,
      "d": 1047.5528812499833,
      "v": 87
    },
    {
      "midi": 73,
      "hit": false,
      "t": 175923.66674999968,
      "d": 77.44554374998552,
      "v": 86
    },
    {
      "midi": 81,
      "hit": false,
      "t": 175923.66674999968,
      "d": 104.6194187499932,
      "v": 99
    },
    {
      "midi": 76,
      "hit": false,
      "t": 176249.7532499997,
      "d": 114.13027500000317,
      "v": 94
    },
    {
      "midi": 69,
      "hit": false,
      "t": 176249.7532499997,
      "d": 130.43460000000778,
      "v": 94
    },
    {
      "midi": 76,
      "hit": false,
      "t": 176738.8829999997,
      "d": 129.07590624998556,
      "v": 96
    },
    {
      "midi": 69,
      "hit": false,
      "t": 176738.8829999997,
      "d": 156.24978124999325,
      "v": 92
    },
    {
      "midi": 73,
      "hit": false,
      "t": 176901.9262499997,
      "d": 9.510856250009965,
      "v": 65
    },
    {
      "midi": 69,
      "hit": false,
      "t": 177064.96949999972,
      "d": 130.43460000000778,
      "v": 88
    },
    {
      "midi": 72,
      "hit": false,
      "t": 177391.05599999972,
      "d": 838.3140437499969,
      "v": 103
    },
    {
      "midi": 68,
      "hit": false,
      "t": 177391.05599999972,
      "d": 839.67273749999,
      "v": 77
    },
    {
      "midi": 75,
      "hit": false,
      "t": 178206.27224999972,
      "d": 374.9994749999896,
      "v": 89
    },
    {
      "midi": 67,
      "hit": false,
      "t": 178695.4019999997,
      "d": 748.6402562499861,
      "v": 87
    },
    {
      "midi": 72,
      "hit": false,
      "t": 178695.4019999997,
      "d": 800.2706187499862,
      "v": 92
    },
    {
      "midi": 72,
      "hit": false,
      "t": 179510.6182499997,
      "d": 25.81518124998547,
      "v": 91
    },
    {
      "midi": 68,
      "hit": false,
      "t": 179510.6182499997,
      "d": 81.52162499999395,
      "v": 89
    },
    {
      "midi": 75,
      "hit": false,
      "t": 179510.6182499997,
      "d": 120.92374374999781,
      "v": 101
    },
    {
      "midi": 71,
      "hit": false,
      "t": 179836.7047499997,
      "d": 790.7597624999762,
      "v": 101
    },
    {
      "midi": 68,
      "hit": false,
      "t": 179836.7047499997,
      "d": 857.3357562499878,
      "v": 86
    },
    {
      "midi": 82,
      "hit": false,
      "t": 179999.7479999997,
      "d": 673.9120999999868,
      "v": 93
    },
    {
      "midi": 75,
      "hit": false,
      "t": 179999.7479999997,
      "d": 711.9555249999976,
      "v": 77
    },
    {
      "midi": 71,
      "hit": false,
      "t": 181304.0939999997,
      "d": 505.4340749999974,
      "v": 83
    },
    {
      "midi": 75,
      "hit": false,
      "t": 181304.0939999997,
      "d": 505.4340749999974,
      "v": 79
    },
    {
      "midi": 65,
      "hit": false,
      "t": 181304.0939999997,
      "d": 584.2383125000051,
      "v": 98
    },
    {
      "midi": 68,
      "hit": false,
      "t": 181304.0939999997,
      "d": 597.8252499999944,
      "v": 94
    },
    {
      "midi": 69,
      "hit": false,
      "t": 182445.3967499997,
      "d": 813.8575562499755,
      "v": 97
    },
    {
      "midi": 75,
      "hit": false,
      "t": 182608.43999999968,
      "d": 724.1837687499938,
      "v": 62
    },
    {
      "midi": 79,
      "hit": false,
      "t": 182608.43999999968,
      "d": 739.1294000000053,
      "v": 95
    },
    {
      "midi": 75,
      "hit": false,
      "t": 183423.65624999968,
      "d": 104.6194187499932,
      "v": 77
    },
    {
      "midi": 69,
      "hit": false,
      "t": 183423.65624999968,
      "d": 118.20635624998249,
      "v": 81
    },
    {
      "midi": 79,
      "hit": false,
      "t": 183423.65624999968,
      "d": 198.36928749998333,
      "v": 85
    },
    {
      "midi": 79,
      "hit": false,
      "t": 184075.82924999966,
      "d": 129.07590624998556,
      "v": 88
    },
    {
      "midi": 69,
      "hit": false,
      "t": 184075.82924999966,
      "d": 144.02153749999707,
      "v": 89
    },
    {
      "midi": 75,
      "hit": false,
      "t": 184075.82924999966,
      "d": 144.02153749999707,
      "v": 81
    },
    {
      "midi": 69,
      "hit": false,
      "t": 184564.95899999965,
      "d": 182.06496250000782,
      "v": 87
    },
    {
      "midi": 79,
      "hit": false,
      "t": 184564.95899999965,
      "d": 283.9669937500148,
      "v": 88
    },
    {
      "midi": 71,
      "hit": false,
      "t": 184564.95899999965,
      "d": 313.8582562500087,
      "v": 98
    },
    {
      "midi": 72,
      "hit": false,
      "t": 184891.04549999966,
      "d": 77.44554374998552,
      "v": 99
    },
    {
      "midi": 69,
      "hit": false,
      "t": 184891.04549999966,
      "d": 95.10856249998324,
      "v": 79
    },
    {
      "midi": 75,
      "hit": false,
      "t": 185217.13199999963,
      "d": 540.7601124999928,
      "v": 76
    },
    {
      "midi": 68,
      "hit": false,
      "t": 185217.13199999963,
      "d": 570.6513749999867,
      "v": 77
    },
    {
      "midi": 72,
      "hit": false,
      "t": 185217.13199999963,
      "d": 596.4665562499722,
      "v": 84
    },
    {
      "midi": 74,
      "hit": false,
      "t": 185869.30499999961,
      "d": 387.2277187499858,
      "v": 102
    },
    {
      "midi": 68,
      "hit": false,
      "t": 185869.30499999961,
      "d": 402.1733499999973,
      "v": 90
    },
    {
      "midi": 72,
      "hit": false,
      "t": 185869.30499999961,
      "d": 427.98853124998277,
      "v": 88
    },
    {
      "midi": 70,
      "hit": false,
      "t": 186521.4779999996,
      "d": 1192.9331125000026,
      "v": 74
    },
    {
      "midi": 80,
      "hit": false,
      "t": 186847.5644999996,
      "d": 453.80371249999735,
      "v": 110
    },
    {
      "midi": 76,
      "hit": false,
      "t": 186847.5644999996,
      "d": 751.3576437500014,
      "v": 114
    },
    {
      "midi": 73,
      "hit": false,
      "t": 186847.5644999996,
      "d": 854.6183687500015,
      "v": 101
    },
    {
      "midi": 79,
      "hit": false,
      "t": 187336.6942499996,
      "d": 403.5320437499904,
      "v": 111
    },
    {
      "midi": 72,
      "hit": false,
      "t": 187825.8239999996,
      "d": 1057.0637374999933,
      "v": 82
    },
    {
      "midi": 69,
      "hit": false,
      "t": 187825.8239999996,
      "d": 1123.6397312500048,
      "v": 85
    },
    {
      "midi": 67,
      "hit": false,
      "t": 187825.8239999996,
      "d": 1124.998424999998,
      "v": 85
    },
    {
      "midi": 79,
      "hit": false,
      "t": 187825.8239999996,
      "d": 1229.6178437499912,
      "v": 89
    },
    {
      "midi": 75,
      "hit": false,
      "t": 187825.8239999996,
      "d": 1259.509106249985,
      "v": 76
    },
    {
      "midi": 69,
      "hit": false,
      "t": 189130.16999999958,
      "d": 569.2926812499936,
      "v": 91
    },
    {
      "midi": 72,
      "hit": false,
      "t": 189130.16999999958,
      "d": 697.0098937499861,
      "v": 87
    },
    {
      "midi": 77,
      "hit": false,
      "t": 189130.16999999958,
      "d": 805.7053937499877,
      "v": 96
    },
    {
      "midi": 72,
      "hit": false,
      "t": 189945.38624999957,
      "d": 167.11933124999632,
      "v": 46
    },
    {
      "midi": 69,
      "hit": false,
      "t": 189945.38624999957,
      "d": 298.9126249999972,
      "v": 91
    },
    {
      "midi": 75,
      "hit": false,
      "t": 189945.38624999957,
      "d": 379.07555624999804,
      "v": 82
    },
    {
      "midi": 75,
      "hit": false,
      "t": 190434.51599999957,
      "d": 400.8146562500042,
      "v": 85
    },
    {
      "midi": 68,
      "hit": false,
      "t": 190434.51599999957,
      "d": 415.7602875000157,
      "v": 93
    },
    {
      "midi": 72,
      "hit": false,
      "t": 190434.51599999957,
      "d": 480.97758750000503,
      "v": 100
    },
    {
      "midi": 74,
      "hit": false,
      "t": 190923.64574999956,
      "d": 438.85808124998584,
      "v": 106
    },
    {
      "midi": 68,
      "hit": false,
      "t": 190923.64574999956,
      "d": 466.0319562499935,
      "v": 93
    },
    {
      "midi": 79,
      "hit": false,
      "t": 191086.68899999955,
      "d": 491.8471375000081,
      "v": 103
    },
    {
      "midi": 83,
      "hit": false,
      "t": 191738.86199999956,
      "d": 73.3694625000062,
      "v": 101
    },
    {
      "midi": 84,
      "hit": false,
      "t": 191738.86199999956,
      "d": 391.3037999999942,
      "v": 114
    },
    {
      "midi": 76,
      "hit": false,
      "t": 191738.86199999956,
      "d": 415.7602874999866,
      "v": 99
    },
    {
      "midi": 70,
      "hit": false,
      "t": 191738.86199999956,
      "d": 483.69497499999125,
      "v": 70
    },
    {
      "midi": 70,
      "hit": false,
      "t": 192391.03499999954,
      "d": 414.4015937499935,
      "v": 91
    },
    {
      "midi": 75,
      "hit": false,
      "t": 192391.03499999954,
      "d": 414.4015937499935,
      "v": 90
    },
    {
      "midi": 80,
      "hit": false,
      "t": 192391.03499999954,
      "d": 468.74934374997974,
      "v": 101
    },
    {
      "midi": 67,
      "hit": false,
      "t": 193043.20799999952,
      "d": 980.9768875000009,
      "v": 79
    },
    {
      "midi": 69,
      "hit": false,
      "t": 193043.20799999952,
      "d": 982.335581249994,
      "v": 82
    },
    {
      "midi": 72,
      "hit": false,
      "t": 193043.20799999952,
      "d": 1063.857206249988,
      "v": 88
    },
    {
      "midi": 75,
      "hit": false,
      "t": 193043.20799999952,
      "d": 1091.0310812499956,
      "v": 80
    },
    {
      "midi": 79,
      "hit": false,
      "t": 193043.20799999952,
      "d": 1152.1723000000056,
      "v": 94
    },
    {
      "midi": 69,
      "hit": false,
      "t": 194347.55399999954,
      "d": 711.9555249999976,
      "v": 98
    },
    {
      "midi": 67,
      "hit": false,
      "t": 194347.55399999954,
      "d": 726.9011562500091,
      "v": 98
    },
    {
      "midi": 72,
      "hit": false,
      "t": 194347.55399999954,
      "d": 749.9989500000083,
      "v": 105
    },
    {
      "midi": 75,
      "hit": false,
      "t": 194347.55399999954,
      "d": 762.2271937500045,
      "v": 90
    },
    {
      "midi": 63,
      "hit": false,
      "t": 194347.55399999954,
      "d": 888.5857125000039,
      "v": 90
    },
    {
      "midi": 67,
      "hit": false,
      "t": 195162.77024999954,
      "d": 362.77123124999343,
      "v": 90
    },
    {
      "midi": 72,
      "hit": false,
      "t": 195162.77024999954,
      "d": 379.07555624999804,
      "v": 97
    },
    {
      "midi": 77,
      "hit": false,
      "t": 195162.77024999954,
      "d": 391.3037999999942,
      "v": 88
    },
    {
      "midi": 63,
      "hit": false,
      "t": 195651.89999999953,
      "d": 65.21729999998934,
      "v": 89
    },
    {
      "midi": 75,
      "hit": false,
      "t": 195977.9864999995,
      "d": 334.23866249999264,
      "v": 88
    },
    {
      "midi": 68,
      "hit": false,
      "t": 195977.9864999995,
      "d": 362.77123124999343,
      "v": 85
    },
    {
      "midi": 72,
      "hit": false,
      "t": 195977.9864999995,
      "d": 376.3581687499827,
      "v": 99
    },
    {
      "midi": 75,
      "hit": false,
      "t": 196467.1162499995,
      "d": 167.11933124999632,
      "v": 84
    },
    {
      "midi": 68,
      "hit": false,
      "t": 196467.1162499995,
      "d": 222.8257750000048,
      "v": 85
    },
    {
      "midi": 72,
      "hit": false,
      "t": 196467.1162499995,
      "d": 251.3583437500056,
      "v": 95
    },
    {
      "midi": 63,
      "hit": false,
      "t": 196630.15949999948,
      "d": 52.98905625002226,
      "v": 64
    },
    {
      "midi": 79,
      "hit": false,
      "t": 196956.2459999995,
      "d": 89.6737875000108,
      "v": 96
    },
    {
      "midi": 71,
      "hit": false,
      "t": 197282.3324999995,
      "d": 467.39064999998664,
      "v": 109
    },
    {
      "midi": 68,
      "hit": false,
      "t": 197282.3324999995,
      "d": 483.69497499999125,
      "v": 90
    },
    {
      "midi": 74,
      "hit": false,
      "t": 197282.3324999995,
      "d": 483.69497499999125,
      "v": 107
    },
    {
      "midi": 79,
      "hit": false,
      "t": 197282.3324999995,
      "d": 483.69497499999125,
      "v": 104
    },
    {
      "midi": 65,
      "hit": false,
      "t": 197441.29966874878,
      "d": 85.59770625000237,
      "v": 127
    },
    {
      "midi": 67,
      "hit": false,
      "t": 197558.14733124877,
      "d": 188.85843125000247,
      "v": 127
    },
    {
      "midi": 74,
      "hit": false,
      "t": 197771.4622499995,
      "d": 311.1408687499934,
      "v": 96
    },
    {
      "midi": 77,
      "hit": false,
      "t": 197771.4622499995,
      "d": 339.6734374999942,
      "v": 103
    },
    {
      "midi": 68,
      "hit": false,
      "t": 197771.4622499995,
      "d": 391.3037999999942,
      "v": 89
    },
    {
      "midi": 70,
      "hit": false,
      "t": 197893.74468749878,
      "d": 144.02153749999707,
      "v": 127
    },
    {
      "midi": 71,
      "hit": false,
      "t": 197934.50549999948,
      "d": 312.4995625000156,
      "v": 107
    },
    {
      "midi": 76,
      "hit": false,
      "t": 198172.27690624876,
      "d": 88.31509374998859,
      "v": 127
    },
    {
      "midi": 77,
      "hit": false,
      "t": 198259.23330624876,
      "d": 331.5212750000064,
      "v": 110
    },
    {
      "midi": 67,
      "hit": false,
      "t": 198260.59199999948,
      "d": 493.2058312500012,
      "v": 85
    },
    {
      "midi": 70,
      "hit": false,
      "t": 198260.59199999948,
      "d": 646.7382250000082,
      "v": 84
    },
    {
      "midi": 77,
      "hit": false,
      "t": 198260.59199999948,
      "d": 683.4229562499968,
      "v": 91
    },
    {
      "midi": 72,
      "hit": false,
      "t": 198260.59199999948,
      "d": 687.4990375000052,
      "v": 84
    },
    {
      "midi": 75,
      "hit": false,
      "t": 198586.67849999876,
      "d": 130.43460000000778,
      "v": 103
    },
    {
      "midi": 75,
      "hit": false,
      "t": 198749.72174999877,
      "d": 115.48896874999627,
      "v": 98
    },
    {
      "midi": 51,
      "hit": false,
      "t": 199075.80824999878,
      "d": 46.19558749999851,
      "v": 65
    },
    {
      "midi": 58,
      "hit": false,
      "t": 199075.80824999878,
      "d": 58.42383124999469,
      "v": 79
    },
    {
      "midi": 62,
      "hit": false,
      "t": 199075.80824999878,
      "d": 76.08684999999241,
      "v": 83
    },
    {
      "midi": 55,
      "hit": false,
      "t": 199075.80824999878,
      "d": 92.39117499999702,
      "v": 87
    },
    {
      "midi": 67,
      "hit": false,
      "t": 199075.80824999948,
      "d": 91.03248125000391,
      "v": 85
    },
    {
      "midi": 70,
      "hit": false,
      "t": 199238.8514999995,
      "d": 156.24978124999325,
      "v": 85
    },
    {
      "midi": 51,
      "hit": false,
      "t": 199564.93799999877,
      "d": 44.8368937500054,
      "v": 64
    },
    {
      "midi": 54,
      "hit": false,
      "t": 199564.93799999877,
      "d": 46.19558749999851,
      "v": 69
    },
    {
      "midi": 55,
      "hit": false,
      "t": 199564.93799999877,
      "d": 59.7825249999878,
      "v": 84
    },
    {
      "midi": 58,
      "hit": false,
      "t": 199564.93799999877,
      "d": 95.10856249998324,
      "v": 85
    },
    {
      "midi": 62,
      "hit": false,
      "t": 199564.93799999877,
      "d": 95.10856249998324,
      "v": 89
    },
    {
      "midi": 67,
      "hit": false,
      "t": 199564.9379999995,
      "d": 724.1837687499938,
      "v": 85
    },
    {
      "midi": 72,
      "hit": false,
      "t": 199564.9379999995,
      "d": 877.7161625000008,
      "v": 77
    },
    {
      "midi": 75,
      "hit": false,
      "t": 199564.9379999995,
      "d": 904.8900375000085,
      "v": 83
    },
    {
      "midi": 51,
      "hit": false,
      "t": 200217.11099999875,
      "d": 47.55428124999162,
      "v": 74
    },
    {
      "midi": 63,
      "hit": false,
      "t": 200217.11099999875,
      "d": 74.7281562499993,
      "v": 91
    },
    {
      "midi": 55,
      "hit": false,
      "t": 200217.11099999875,
      "d": 76.08684999999241,
      "v": 95
    },
    {
      "midi": 58,
      "hit": false,
      "t": 200217.11099999875,
      "d": 76.08684999999241,
      "v": 91
    },
    {
      "midi": 65,
      "hit": false,
      "t": 200380.15424999874,
      "d": 101.90203125000698,
      "v": 114
    },
    {
      "midi": 67,
      "hit": false,
      "t": 200543.19749999876,
      "d": 85.59770625000237,
      "v": 124
    },
    {
      "midi": 70,
      "hit": false,
      "t": 200706.24074999875,
      "d": 86.95639999999548,
      "v": 126
    },
    {
      "midi": 75,
      "hit": false,
      "t": 200869.28399999873,
      "d": 298.9126249999972,
      "v": 113
    },
    {
      "midi": 72,
      "hit": false,
      "t": 201195.37049999874,
      "d": 129.07590624998556,
      "v": 107
    },
    {
      "midi": 72,
      "hit": false,
      "t": 201358.41374999873,
      "d": 114.13027500000317,
      "v": 109
    },
    {
      "midi": 70,
      "hit": false,
      "t": 201847.5434999995,
      "d": 39.402118750003865,
      "v": 72
    },
    {
      "midi": 67,
      "hit": false,
      "t": 201847.5434999995,
      "d": 119.5650500000047,
      "v": 91
    },
    {
      "midi": 72,
      "hit": false,
      "t": 202662.75974999872,
      "d": 116.84766249998938,
      "v": 127
    },
    {
      "midi": 70,
      "hit": false,
      "t": 202825.8029999987,
      "d": 214.67361249998794,
      "v": 106
    },
    {
      "midi": 67,
      "hit": false,
      "t": 202988.8462499995,
      "d": 92.39117499999702,
      "v": 107
    },
    {
      "midi": 72,
      "hit": false,
      "t": 203151.88949999868,
      "d": 144.02153749999707,
      "v": 124
    },
    {
      "midi": 67,
      "hit": false,
      "t": 203151.8894999995,
      "d": 91.03248125000391,
      "v": 74
    },
    {
      "midi": 70,
      "hit": false,
      "t": 203151.8894999995,
      "d": 197.01059374999022,
      "v": 115
    },
    {
      "midi": 82,
      "hit": false,
      "t": 203477.97599999869,
      "d": 226.90185625001322,
      "v": 110
    },
    {
      "midi": 70,
      "hit": false,
      "t": 203477.97599999869,
      "d": 316.575643750024,
      "v": 115
    },
    {
      "midi": 68,
      "hit": false,
      "t": 203477.97599999947,
      "d": 1485.0522687500052,
      "v": 79
    },
    {
      "midi": 67,
      "hit": false,
      "t": 203477.97599999947,
      "d": 1548.9108750000014,
      "v": 76
    },
    {
      "midi": 75,
      "hit": false,
      "t": 203477.97599999947,
      "d": 1562.4978124999907,
      "v": 64
    },
    {
      "midi": 72,
      "hit": false,
      "t": 203477.97599999947,
      "d": 1563.8565062499838,
      "v": 87
    },
    {
      "midi": 79,
      "hit": false,
      "t": 203804.06249999872,
      "d": 85.59770625000237,
      "v": 103
    },
    {
      "midi": 67,
      "hit": false,
      "t": 203967.1057499987,
      "d": 44.8368937500054,
      "v": 82
    },
    {
      "midi": 79,
      "hit": false,
      "t": 203967.1057499987,
      "d": 144.02153749999707,
      "v": 106
    },
    {
      "midi": 79,
      "hit": false,
      "t": 205108.40849999947,
      "d": 413.0429000000004,
      "v": 98
    },
    {
      "midi": 75,
      "hit": false,
      "t": 205108.40849999947,
      "d": 456.52110000001267,
      "v": 62
    },
    {
      "midi": 72,
      "hit": false,
      "t": 205108.40849999947,
      "d": 688.8577312500274,
      "v": 93
    },
    {
      "midi": 75,
      "hit": false,
      "t": 205271.4517499987,
      "d": 163.0432499999879,
      "v": 127
    },
    {
      "midi": 79,
      "hit": false,
      "t": 205369.2776999987,
      "d": 163.0432499999879,
      "v": 127
    },
    {
      "midi": 67,
      "hit": false,
      "t": 205434.4949999987,
      "d": 160.32586250000168,
      "v": 64
    },
    {
      "midi": 77,
      "hit": false,
      "t": 205597.5382499995,
      "d": 209.2388375000155,
      "v": 109
    },
    {
      "midi": 82,
      "hit": false,
      "t": 205605.6904124987,
      "d": 163.0432499999879,
      "v": 121
    },
    {
      "midi": 70,
      "hit": false,
      "t": 205635.58167499868,
      "d": 163.0432499999879,
      "v": 72
    },
    {
      "midi": 72,
      "hit": false,
      "t": 205760.5814999987,
      "d": 160.32586249997257,
      "v": 64
    },
    {
      "midi": 84,
      "hit": false,
      "t": 205828.51618749867,
      "d": 163.0432499999879,
      "v": 127
    },
    {
      "midi": 75,
      "hit": false,
      "t": 206085.30930624864,
      "d": 1304.3459999999905,
      "v": 117
    },
    {
      "midi": 71,
      "hit": false,
      "t": 206086.6679999995,
      "d": 1615.4868687499838,
      "v": 94
    },
    {
      "midi": 75,
      "hit": false,
      "t": 206086.6679999995,
      "d": 1980.9754874999926,
      "v": 81
    },
    {
      "midi": 68,
      "hit": false,
      "t": 206086.6679999995,
      "d": 2005.431974999985,
      "v": 66
    },
    {
      "midi": 67,
      "hit": false,
      "t": 206092.10277499864,
      "d": 1304.3459999999905,
      "v": 102
    },
    {
      "midi": 79,
      "hit": false,
      "t": 206093.46146874863,
      "d": 1304.3459999999905,
      "v": 117
    },
    {
      "midi": 82,
      "hit": false,
      "t": 206249.7112499995,
      "d": 1304.3459999999905,
      "v": 90
    },
    {
      "midi": 79,
      "hit": false,
      "t": 207717.1004999995,
      "d": 402.1733499999973,
      "v": 112
    },
    {
      "midi": 65,
      "hit": false,
      "t": 207880.14374999862,
      "d": 163.0432499999879,
      "v": 127
    },
    {
      "midi": 67,
      "hit": false,
      "t": 208043.1869999986,
      "d": 163.0432499999879,
      "v": 115
    },
    {
      "midi": 70,
      "hit": false,
      "t": 208206.2302499986,
      "d": 163.0432499999879,
      "v": 115
    },
    {
      "midi": 77,
      "hit": false,
      "t": 208206.2302499995,
      "d": 207.8801437499933,
      "v": 101
    },
    {
      "midi": 72,
      "hit": false,
      "t": 208369.27349999858,
      "d": 163.0432499999879,
      "v": 114
    },
    {
      "midi": 79,
      "hit": false,
      "t": 208369.2734999995,
      "d": 89.6737875000108,
      "v": 66
    },
    {
      "midi": 75,
      "hit": false,
      "t": 208566.28409374857,
      "d": 74.7281562499993,
      "v": 106
    },
    {
      "midi": 76,
      "hit": false,
      "t": 208624.70792499857,
      "d": 91.03248125000391,
      "v": 124
    },
    {
      "midi": 77,
      "hit": false,
      "t": 208684.4904499986,
      "d": 331.5212750000064,
      "v": 120
    },
    {
      "midi": 79,
      "hit": false,
      "t": 208695.3599999995,
      "d": 2142.6600437499874,
      "v": 91
    },
    {
      "midi": 67,
      "hit": false,
      "t": 208695.3599999995,
      "d": 2194.2904062499874,
      "v": 99
    },
    {
      "midi": 75,
      "hit": false,
      "t": 208695.3599999995,
      "d": 2277.1707249999745,
      "v": 66
    },
    {
      "midi": 74,
      "hit": false,
      "t": 208695.3599999995,
      "d": 2300.2685187499737,
      "v": 92
    },
    {
      "midi": 63,
      "hit": false,
      "t": 208695.3599999995,
      "d": 2301.627212499967,
      "v": 68
    },
    {
      "midi": 75,
      "hit": false,
      "t": 209001.06609374858,
      "d": 115.48896875002538,
      "v": 103
    },
    {
      "midi": 75,
      "hit": false,
      "t": 209191.2832187486,
      "d": 129.07590624998556,
      "v": 118
    },
    {
      "midi": 72,
      "hit": false,
      "t": 210847.5308999986,
      "d": 42.11950624999008,
      "v": 127
    },
    {
      "midi": 75,
      "hit": false,
      "t": 210964.37856249858,
      "d": 158.96716875000857,
      "v": 118
    },
    {
      "midi": 67,
      "hit": false,
      "t": 210977.96549999947,
      "d": 80.16293125000084,
      "v": 106
    },
    {
      "midi": 79,
      "hit": false,
      "t": 210977.96549999947,
      "d": 232.33663125001476,
      "v": 112
    },
    {
      "midi": 75,
      "hit": false,
      "t": 211283.6715937486,
      "d": 316.5756437499949,
      "v": 127
    },
    {
      "midi": 67,
      "hit": false,
      "t": 211304.05199999947,
      "d": 1987.7689562499872,
      "v": 81
    },
    {
      "midi": 77,
      "hit": false,
      "t": 211304.05199999947,
      "d": 2101.8992312499904,
      "v": 80
    },
    {
      "midi": 73,
      "hit": false,
      "t": 211304.05199999947,
      "d": 2180.703468749998,
      "v": 78
    },
    {
      "midi": 70,
      "hit": false,
      "t": 211304.05199999947,
      "d": 2182.0621624999912,
      "v": 71
    },
    {
      "midi": 72,
      "hit": false,
      "t": 211630.13849999857,
      "d": 129.07590624998556,
      "v": 109
    },
    {
      "midi": 72,
      "hit": false,
      "t": 211817.63823749856,
      "d": 199.72798125000554,
      "v": 110
    },
    {
      "midi": 72,
      "hit": false,
      "t": 213109.75599374855,
      "d": 43.47820000001229,
      "v": 109
    },
    {
      "midi": 75,
      "hit": false,
      "t": 213226.60365624857,
      "d": 188.85843125000247,
      "v": 121
    },
    {
      "midi": 77,
      "hit": false,
      "t": 213430.40771874858,
      "d": 101.90203125000698,
      "v": 109
    },
    {
      "midi": 75,
      "hit": false,
      "t": 213502.4184874986,
      "d": 120.92374374999781,
      "v": 99
    },
    {
      "midi": 75,
      "hit": false,
      "t": 213586.65749999948,
      "d": 322.01041874999646,
      "v": 113
    },
    {
      "midi": 72,
      "hit": false,
      "t": 213590.73358124858,
      "d": 175.27149375001318,
      "v": 111
    },
    {
      "midi": 70,
      "hit": false,
      "t": 213897.7983687486,
      "d": 328.8038874999911,
      "v": 124
    },
    {
      "midi": 67,
      "hit": false,
      "t": 213912.74399999948,
      "d": 2001.3558937500056,
      "v": 88
    },
    {
      "midi": 68,
      "hit": false,
      "t": 213912.74399999948,
      "d": 2001.3558937500056,
      "v": 93
    },
    {
      "midi": 72,
      "hit": false,
      "t": 213912.74399999948,
      "d": 2080.1601312500134,
      "v": 105
    },
    {
      "midi": 60,
      "hit": false,
      "t": 213912.74399999948,
      "d": 2263.5837875000143,
      "v": 80
    },
    {
      "midi": 67,
      "hit": false,
      "t": 214256.49351874858,
      "d": 72.01076875001309,
      "v": 94
    },
    {
      "midi": 67,
      "hit": false,
      "t": 214416.81938124858,
      "d": 186.14104374998715,
      "v": 94
    },
    {
      "midi": 63,
      "hit": false,
      "t": 215388.28541249858,
      "d": 72.01076875001309,
      "v": 98
    },
    {
      "midi": 67,
      "hit": false,
      "t": 215520.07870624858,
      "d": 144.02153749999707,
      "v": 117
    },
    {
      "midi": 70,
      "hit": false,
      "t": 215854.31736874857,
      "d": 158.96716875000857,
      "v": 127
    },
    {
      "midi": 75,
      "hit": false,
      "t": 215869.26299999948,
      "d": 207.8801437500224,
      "v": 91
    },
    {
      "midi": 72,
      "hit": false,
      "t": 216174.96909374857,
      "d": 118.2063562500116,
      "v": 111
    },
    {
      "midi": 71,
      "hit": false,
      "t": 216358.3927499995,
      "d": 1963.3124687499658,
      "v": 109
    },
    {
      "midi": 68,
      "hit": false,
      "t": 216358.3927499995,
      "d": 2044.8340937499597,
      "v": 91
    },
    {
      "midi": 65,
      "hit": false,
      "t": 216358.3927499995,
      "d": 2058.421031249949,
      "v": 83
    },
    {
      "midi": 66,
      "hit": false,
      "t": 216423.6100499986,
      "d": 97.82594999999856,
      "v": 110
    },
    {
      "midi": 82,
      "hit": false,
      "t": 216521.4359999995,
      "d": 1781.247506249987,
      "v": 91
    },
    {
      "midi": 75,
      "hit": false,
      "t": 216521.4359999995,
      "d": 1926.6277374999481,
      "v": 81
    },
    {
      "midi": 67,
      "hit": false,
      "t": 216524.15338749858,
      "d": 1539.4000187499914,
      "v": 102
    },
    {
      "midi": 71,
      "hit": false,
      "t": 218312.19436249856,
      "d": 73.36946249997709,
      "v": 96
    },
    {
      "midi": 75,
      "hit": false,
      "t": 218354.31386874855,
      "d": 105.97811249998631,
      "v": 122
    },
    {
      "midi": 79,
      "hit": false,
      "t": 218429.04202499855,
      "d": 179.3475749999925,
      "v": 127
    },
    {
      "midi": 67,
      "hit": false,
      "t": 218457.57459374855,
      "d": 179.3475749999925,
      "v": 122
    },
    {
      "midi": 79,
      "hit": false,
      "t": 218640.99824999945,
      "d": 183.42365625000093,
      "v": 99
    },
    {
      "midi": 71,
      "hit": false,
      "t": 218695.34599999854,
      "d": 58.42383124999469,
      "v": 115
    },
    {
      "midi": 66,
      "hit": false,
      "t": 218755.12852499852,
      "d": 229.61924374999944,
      "v": 108
    },
    {
      "midi": 78,
      "hit": false,
      "t": 218757.8459124985,
      "d": 244.56487500001094,
      "v": 115
    },
    {
      "midi": 77,
      "hit": false,
      "t": 218804.04149999944,
      "d": 156.24978125002235,
      "v": 88
    },
    {
      "midi": 77,
      "hit": false,
      "t": 219130.1279999985,
      "d": 229.61924374999944,
      "v": 103
    },
    {
      "midi": 65,
      "hit": false,
      "t": 219130.1279999985,
      "d": 260.86919999998645,
      "v": 103
    },
    {
      "midi": 65,
      "hit": false,
      "t": 219130.12799999947,
      "d": 52.989056249993155,
      "v": 64
    },
    {
      "midi": 67,
      "hit": false,
      "t": 219130.12799999947,
      "d": 2014.942831249995,
      "v": 60
    },
    {
      "midi": 74,
      "hit": false,
      "t": 219130.12799999947,
      "d": 2157.605674999999,
      "v": 87
    },
    {
      "midi": 75,
      "hit": false,
      "t": 219130.12799999947,
      "d": 2157.605674999999,
      "v": 81
    },
    {
      "midi": 75,
      "hit": false,
      "t": 219456.2144999985,
      "d": 157.60847499998636,
      "v": 94
    },
    {
      "midi": 75,
      "hit": false,
      "t": 219619.25774999848,
      "d": 175.27149375001318,
      "v": 77
    },
    {
      "midi": 63,
      "hit": false,
      "t": 219619.25774999848,
      "d": 902.1726500000223,
      "v": 70
    },
    {
      "midi": 70,
      "hit": false,
      "t": 221249.6902499985,
      "d": 73.3694625000062,
      "v": 124
    },
    {
      "midi": 67,
      "hit": false,
      "t": 221249.69024999946,
      "d": 105.97811250001541,
      "v": 90
    },
    {
      "midi": 75,
      "hit": false,
      "t": 221412.73349999852,
      "d": 172.55410624999786,
      "v": 118
    },
    {
      "midi": 75,
      "hit": false,
      "t": 221412.73349999948,
      "d": 192.9345125000109,
      "v": 90
    },
    {
      "midi": 77,
      "hit": false,
      "t": 221738.81999999852,
      "d": 217.39100000000326,
      "v": 127
    },
    {
      "midi": 65,
      "hit": false,
      "t": 221738.81999999852,
      "d": 263.58658750000177,
      "v": 115
    },
    {
      "midi": 67,
      "hit": false,
      "t": 221738.81999999948,
      "d": 426.62983749998966,
      "v": 78
    },
    {
      "midi": 70,
      "hit": false,
      "t": 221738.81999999948,
      "d": 467.39064999998664,
      "v": 76
    },
    {
      "midi": 73,
      "hit": false,
      "t": 221738.81999999948,
      "d": 467.39064999998664,
      "v": 76
    },
    {
      "midi": 75,
      "hit": false,
      "t": 222064.90649999853,
      "d": 100.54333750001388,
      "v": 87
    },
    {
      "midi": 75,
      "hit": false,
      "t": 222227.94974999854,
      "d": 762.2271937500045,
      "v": 95
    },
    {
      "midi": 63,
      "hit": false,
      "t": 222227.94974999854,
      "d": 767.661968750006,
      "v": 77
    },
    {
      "midi": 79,
      "hit": false,
      "t": 223043.16599999947,
      "d": 957.8790937500016,
      "v": 100
    },
    {
      "midi": 76,
      "hit": false,
      "t": 223043.16599999947,
      "d": 959.2377874999947,
      "v": 91
    },
    {
      "midi": 84,
      "hit": false,
      "t": 223043.16599999947,
      "d": 959.2377874999947,
      "v": 105
    },
    {
      "midi": 73,
      "hit": false,
      "t": 223043.16599999947,
      "d": 1027.1724749999994,
      "v": 76
    },
    {
      "midi": 70,
      "hit": false,
      "t": 223043.16599999947,
      "d": 1116.8462625000102,
      "v": 76
    },
    {
      "midi": 72,
      "hit": false,
      "t": 223532.29574999856,
      "d": 72.01076875001309,
      "v": 118
    },
    {
      "midi": 77,
      "hit": false,
      "t": 223695.33899999858,
      "d": 122.28243749999092,
      "v": 127
    },
    {
      "midi": 78,
      "hit": false,
      "t": 224021.4254999986,
      "d": 187.49973750000936,
      "v": 121
    },
    {
      "midi": 72,
      "hit": false,
      "t": 224184.46874999948,
      "d": 869.5639999999839,
      "v": 100
    },
    {
      "midi": 77,
      "hit": false,
      "t": 224347.5119999986,
      "d": 186.14104374998715,
      "v": 118
    },
    {
      "midi": 65,
      "hit": false,
      "t": 224347.5119999986,
      "d": 232.33663124998566,
      "v": 115
    },
    {
      "midi": 82,
      "hit": false,
      "t": 224347.51199999946,
      "d": 711.9555249999976,
      "v": 96
    },
    {
      "midi": 79,
      "hit": false,
      "t": 224347.51199999946,
      "d": 801.6293125000084,
      "v": 95
    },
    {
      "midi": 75,
      "hit": false,
      "t": 224347.51199999946,
      "d": 857.3357562500169,
      "v": 78
    },
    {
      "midi": 68,
      "hit": false,
      "t": 224347.51199999946,
      "d": 936.1399937500246,
      "v": 93
    },
    {
      "midi": 75,
      "hit": false,
      "t": 224673.59849999857,
      "d": 101.90203125000698,
      "v": 88
    },
    {
      "midi": 75,
      "hit": false,
      "t": 224836.64174999858,
      "d": 754.0750312499877,
      "v": 84
    },
    {
      "midi": 63,
      "hit": false,
      "t": 224836.64174999858,
      "d": 788.04237499999,
      "v": 77
    },
    {
      "midi": 75,
      "hit": false,
      "t": 225651.85799999948,
      "d": 582.879618750012,
      "v": 69
    },
    {
      "midi": 79,
      "hit": false,
      "t": 225651.85799999948,
      "d": 614.129574999999,
      "v": 96
    },
    {
      "midi": 72,
      "hit": false,
      "t": 225651.85799999948,
      "d": 635.8686750000052,
      "v": 85
    },
    {
      "midi": 65,
      "hit": false,
      "t": 225651.85799999948,
      "d": 649.4556124999945,
      "v": 85
    },
    {
      "midi": 68,
      "hit": false,
      "t": 225651.85799999948,
      "d": 705.1620562500029,
      "v": 84
    },
    {
      "midi": 75,
      "hit": false,
      "t": 225814.90124999857,
      "d": 115.48896874999627,
      "v": 127
    },
    {
      "midi": 72,
      "hit": false,
      "t": 225977.94449999856,
      "d": 172.55410624999786,
      "v": 112
    },
    {
      "midi": 72,
      "hit": false,
      "t": 226304.03099999856,
      "d": 157.60847499998636,
      "v": 127
    },
    {
      "midi": 75,
      "hit": false,
      "t": 226467.07424999855,
      "d": 100.54333750001388,
      "v": 121
    },
    {
      "midi": 79,
      "hit": false,
      "t": 226630.11749999857,
      "d": 172.55410624999786,
      "v": 120
    },
    {
      "midi": 68,
      "hit": false,
      "t": 226793.1607499995,
      "d": 1645.3781312499777,
      "v": 94
    },
    {
      "midi": 65,
      "hit": false,
      "t": 226793.1607499995,
      "d": 1671.1933124999632,
      "v": 88
    },
    {
      "midi": 70,
      "hit": false,
      "t": 226956.20399999857,
      "d": 472.8254249999882,
      "v": 124
    },
    {
      "midi": 82,
      "hit": false,
      "t": 226956.20399999857,
      "d": 531.2492562499829,
      "v": 106
    },
    {
      "midi": 75,
      "hit": false,
      "t": 226956.20399999947,
      "d": 1540.7587124999845,
      "v": 70
    },
    {
      "midi": 71,
      "hit": false,
      "t": 226956.20399999947,
      "d": 1550.2695687499945,
      "v": 71
    },
    {
      "midi": 61,
      "hit": false,
      "t": 226956.20399999947,
      "d": 1657.606375000003,
      "v": 75
    },
    {
      "midi": 70,
      "hit": false,
      "t": 227475.22501249856,
      "d": 88.31509374998859,
      "v": 95
    },
    {
      "midi": 82,
      "hit": false,
      "t": 227566.25749374853,
      "d": 100.54333750001388,
      "v": 88
    },
    {
      "midi": 70,
      "hit": false,
      "t": 227621.96393749854,
      "d": 73.3694625000062,
      "v": 73
    },
    {
      "midi": 82,
      "hit": false,
      "t": 227726.58335624853,
      "d": 832.8792687499954,
      "v": 89
    },
    {
      "midi": 70,
      "hit": false,
      "t": 227783.64849374854,
      "d": 751.3576437500014,
      "v": 88
    },
    {
      "midi": 67,
      "hit": false,
      "t": 228912.72299999854,
      "d": 158.96716875000857,
      "v": 127
    },
    {
      "midi": 66,
      "hit": false,
      "t": 229401.85274999856,
      "d": 99.18464374999166,
      "v": 118
    },
    {
      "midi": 65,
      "hit": false,
      "t": 229564.89599999855,
      "d": 313.8582562500087,
      "v": 127
    },
    {
      "midi": 67,
      "hit": false,
      "t": 229564.89599999948,
      "d": 1563.856506250013,
      "v": 73
    },
    {
      "midi": 74,
      "hit": false,
      "t": 229564.89599999948,
      "d": 1823.3670125000062,
      "v": 80
    },
    {
      "midi": 75,
      "hit": false,
      "t": 229564.89599999948,
      "d": 1823.3670125000062,
      "v": 73
    },
    {
      "midi": 79,
      "hit": false,
      "t": 229564.89599999948,
      "d": 1823.3670125000062,
      "v": 79
    },
    {
      "midi": 63,
      "hit": false,
      "t": 229564.89599999948,
      "d": 1927.9864312499994,
      "v": 64
    },
    {
      "midi": 63,
      "hit": false,
      "t": 229890.98249999856,
      "d": 129.07590624998556,
      "v": 98
    },
    {
      "midi": 63,
      "hit": false,
      "t": 230054.02574999855,
      "d": 142.66284375000396,
      "v": 110
    },
    {
      "midi": 67,
      "hit": false,
      "t": 231358.3717499995,
      "d": 93.74986874999013,
      "v": 88
    },
    {
      "midi": 63,
      "hit": false,
      "t": 231521.41499999855,
      "d": 145.38023124999017,
      "v": 127
    },
    {
      "midi": 79,
      "hit": false,
      "t": 231521.41499999948,
      "d": 230.97793749999255,
      "v": 120
    },
    {
      "midi": 74,
      "hit": false,
      "t": 231521.41499999948,
      "d": 324.7278062499827,
      "v": 110
    },
    {
      "midi": 67,
      "hit": false,
      "t": 231521.41499999948,
      "d": 418.4776749999728,
      "v": 81
    },
    {
      "midi": 65,
      "hit": false,
      "t": 231684.45824999854,
      "d": 100.54333750001388,
      "v": 99
    },
    {
      "midi": 63,
      "hit": false,
      "t": 231684.45824999854,
      "d": 103.2607250000001,
      "v": 79
    },
    {
      "midi": 62,
      "hit": false,
      "t": 231847.50149999853,
      "d": 115.48896874999627,
      "v": 109
    },
    {
      "midi": 77,
      "hit": false,
      "t": 231847.50149999946,
      "d": 323.36911249998957,
      "v": 95
    },
    {
      "midi": 63,
      "hit": false,
      "t": 232010.54474999852,
      "d": 129.07590624998556,
      "v": 110
    },
    {
      "midi": 64,
      "hit": false,
      "t": 232173.5879999985,
      "d": 144.02153749999707,
      "v": 89
    },
    {
      "midi": 67,
      "hit": false,
      "t": 232173.58799999944,
      "d": 747.281562499993,
      "v": 76
    },
    {
      "midi": 75,
      "hit": false,
      "t": 232173.58799999944,
      "d": 849.18359375,
      "v": 70
    },
    {
      "midi": 70,
      "hit": false,
      "t": 232173.58799999944,
      "d": 855.9770624999946,
      "v": 72
    },
    {
      "midi": 73,
      "hit": false,
      "t": 232173.58799999944,
      "d": 857.3357562499878,
      "v": 77
    },
    {
      "midi": 65,
      "hit": false,
      "t": 232336.6312499985,
      "d": 258.15181250000023,
      "v": 118
    },
    {
      "midi": 63,
      "hit": false,
      "t": 232499.67449999848,
      "d": 100.54333750001388,
      "v": 110
    },
    {
      "midi": 63,
      "hit": false,
      "t": 232662.7177499985,
      "d": 156.24978124999325,
      "v": 113
    },
    {
      "midi": 63,
      "hit": false,
      "t": 233490.1622437485,
      "d": 116.84766249998938,
      "v": 127
    },
    {
      "midi": 65,
      "hit": false,
      "t": 233665.43373749848,
      "d": 100.54333750001388,
      "v": 127
    },
    {
      "midi": 67,
      "hit": false,
      "t": 233825.75959999848,
      "d": 86.95639999999548,
      "v": 110
    },
    {
      "midi": 68,
      "hit": false,
      "t": 233987.44415624847,
      "d": 141.30415000001085,
      "v": 113
    },
    {
      "midi": 81,
      "hit": false,
      "t": 234130.10699999944,
      "d": 338.31474375000107,
      "v": 103
    },
    {
      "midi": 76,
      "hit": false,
      "t": 234130.10699999944,
      "d": 444.2928562499874,
      "v": 90
    },
    {
      "midi": 84,
      "hit": false,
      "t": 234130.10699999944,
      "d": 457.87979374997667,
      "v": 117
    },
    {
      "midi": 70,
      "hit": false,
      "t": 234130.10699999944,
      "d": 471.46673124996596,
      "v": 83
    },
    {
      "midi": 67,
      "hit": false,
      "t": 234130.10699999944,
      "d": 472.82542499995907,
      "v": 83
    },
    {
      "midi": 70,
      "hit": false,
      "t": 234145.0526312485,
      "d": 101.90203125000698,
      "v": 115
    },
    {
      "midi": 72,
      "hit": false,
      "t": 234305.3784937485,
      "d": 100.54333750001388,
      "v": 127
    },
    {
      "midi": 72,
      "hit": false,
      "t": 234465.7043562485,
      "d": 74.7281562499993,
      "v": 75
    },
    {
      "midi": 73,
      "hit": false,
      "t": 234495.59561874848,
      "d": 86.95639999999548,
      "v": 104
    },
    {
      "midi": 75,
      "hit": false,
      "t": 234619.23674999847,
      "d": 86.95639999999548,
      "v": 118
    },
    {
      "midi": 82,
      "hit": false,
      "t": 234782.2799999994,
      "d": 800.2706187499862,
      "v": 81
    },
    {
      "midi": 79,
      "hit": false,
      "t": 234782.2799999994,
      "d": 827.4444937499939,
      "v": 88
    },
    {
      "midi": 75,
      "hit": false,
      "t": 234782.2799999994,
      "d": 866.8466124999977,
      "v": 65
    },
    {
      "midi": 72,
      "hit": false,
      "t": 234782.2799999994,
      "d": 934.7813000000024,
      "v": 81
    },
    {
      "midi": 68,
      "hit": false,
      "t": 234782.2799999994,
      "d": 961.9551750000101,
      "v": 85
    },
    {
      "midi": 77,
      "hit": false,
      "t": 234804.01909999846,
      "d": 273.09744375001173,
      "v": 127
    },
    {
      "midi": 75,
      "hit": false,
      "t": 235107.00780624847,
      "d": 114.13027500000317,
      "v": 103
    },
    {
      "midi": 75,
      "hit": false,
      "t": 235310.81186874848,
      "d": 142.66284375000396,
      "v": 124
    },
    {
      "midi": 77,
      "hit": false,
      "t": 235934.4522999985,
      "d": 101.90203125000698,
      "v": 127
    },
    {
      "midi": 75,
      "hit": false,
      "t": 236006.4630687485,
      "d": 89.6737875000108,
      "v": 99
    },
    {
      "midi": 72,
      "hit": false,
      "t": 236079.8325312485,
      "d": 273.09744375001173,
      "v": 127
    },
    {
      "midi": 70,
      "hit": false,
      "t": 236249.6692499994,
      "d": 377.71686250000494,
      "v": 87
    },
    {
      "midi": 63,
      "hit": false,
      "t": 236249.6692499994,
      "d": 389.9451062500011,
      "v": 77
    },
    {
      "midi": 75,
      "hit": false,
      "t": 236249.6692499994,
      "d": 391.3037999999942,
      "v": 89
    },
    {
      "midi": 79,
      "hit": false,
      "t": 236249.6692499994,
      "d": 441.57546875000116,
      "v": 106
    },
    {
      "midi": 75,
      "hit": false,
      "t": 236412.7124999985,
      "d": 145.38023124999017,
      "v": 127
    },
    {
      "midi": 79,
      "hit": false,
      "t": 236732.0055312485,
      "d": 131.79329375000088,
      "v": 127
    },
    {
      "midi": 77,
      "hit": false,
      "t": 236738.7989999994,
      "d": 154.89108750000014,
      "v": 89
    },
    {
      "midi": 75,
      "hit": false,
      "t": 236922.2226562485,
      "d": 129.07590624998556,
      "v": 104
    },
    {
      "midi": 79,
      "hit": false,
      "t": 237037.71162499848,
      "d": 100.54333749998477,
      "v": 126
    },
    {
      "midi": 75,
      "hit": false,
      "t": 237064.8854999994,
      "d": 65.21729999998934,
      "v": 81
    },
    {
      "midi": 81,
      "hit": false,
      "t": 237344.77641249847,
      "d": 116.84766249998938,
      "v": 110
    },
    {
      "midi": 65,
      "hit": false,
      "t": 237390.97199999937,
      "d": 1834.2365625000093,
      "v": 79
    },
    {
      "midi": 61,
      "hit": false,
      "t": 237390.97199999937,
      "d": 1847.8234999999986,
      "v": 77
    },
    {
      "midi": 68,
      "hit": false,
      "t": 237390.97199999937,
      "d": 1899.4538624999986,
      "v": 67
    },
    {
      "midi": 71,
      "hit": false,
      "t": 237390.97199999937,
      "d": 1911.6821062499948,
      "v": 86
    },
    {
      "midi": 75,
      "hit": false,
      "t": 237390.97199999937,
      "d": 1925.2690437499841,
      "v": 70
    },
    {
      "midi": 79,
      "hit": false,
      "t": 238369.23149999845,
      "d": 129.07590624998556,
      "v": 114
    },
    {
      "midi": 80,
      "hit": false,
      "t": 238532.27474999844,
      "d": 88.31509374998859,
      "v": 115
    },
    {
      "midi": 82,
      "hit": false,
      "t": 238695.31799999843,
      "d": 130.43460000000778,
      "v": 113
    },
    {
      "midi": 80,
      "hit": false,
      "t": 238858.36124999844,
      "d": 72.01076875001309,
      "v": 118
    },
    {
      "midi": 79,
      "hit": false,
      "t": 239184.44774999845,
      "d": 118.2063562500116,
      "v": 110
    },
    {
      "midi": 65,
      "hit": false,
      "t": 239347.49099999934,
      "d": 206.5214500000002,
      "v": 100
    },
    {
      "midi": 61,
      "hit": false,
      "t": 239347.49099999934,
      "d": 342.3908250000095,
      "v": 71
    },
    {
      "midi": 77,
      "hit": false,
      "t": 239510.53424999845,
      "d": 334.23866249999264,
      "v": 118
    },
    {
      "midi": 68,
      "hit": false,
      "t": 239510.53424999933,
      "d": 118.2063562500116,
      "v": 118
    },
    {
      "midi": 75,
      "hit": false,
      "t": 239673.57749999934,
      "d": 180.70626875001471,
      "v": 121
    },
    {
      "midi": 75,
      "hit": false,
      "t": 239999.66399999845,
      "d": 415.7602874999866,
      "v": 124
    },
    {
      "midi": 82,
      "hit": false,
      "t": 240488.79374999844,
      "d": 115.48896874999627,
      "v": 115
    },
    {
      "midi": 84,
      "hit": false,
      "t": 240651.83699999843,
      "d": 115.48896874999627,
      "v": 124
    },
    {
      "midi": 86,
      "hit": false,
      "t": 240814.88024999842,
      "d": 114.13027500000317,
      "v": 127
    },
    {
      "midi": 70,
      "hit": false,
      "t": 240977.92349999936,
      "d": 39.402118750003865,
      "v": 72
    },
    {
      "midi": 67,
      "hit": false,
      "t": 240977.92349999936,
      "d": 119.5650500000047,
      "v": 91
    },
    {
      "midi": 89,
      "hit": false,
      "t": 241140.96674999842,
      "d": 172.55410624999786,
      "v": 127
    },
    {
      "midi": 87,
      "hit": false,
      "t": 241467.05324999843,
      "d": 129.07590624998556,
      "v": 127
    },
    {
      "midi": 82,
      "hit": false,
      "t": 241630.0964999984,
      "d": 156.24978124999325,
      "v": 105
    },
    {
      "midi": 75,
      "hit": false,
      "t": 241956.18299999842,
      "d": 171.19541250000475,
      "v": 115
    },
    {
      "midi": 67,
      "hit": false,
      "t": 242119.22624999937,
      "d": 92.39117499999702,
      "v": 107
    },
    {
      "midi": 72,
      "hit": false,
      "t": 242282.26949999842,
      "d": 183.42365625000093,
      "v": 115
    },
    {
      "midi": 67,
      "hit": false,
      "t": 242282.26949999935,
      "d": 91.03248125000391,
      "v": 74
    },
    {
      "midi": 70,
      "hit": false,
      "t": 242282.26949999935,
      "d": 197.01059374999022,
      "v": 115
    },
    {
      "midi": 75,
      "hit": false,
      "t": 242608.35599999843,
      "d": 472.8254249999882,
      "v": 115
    },
    {
      "midi": 68,
      "hit": false,
      "t": 242608.35599999933,
      "d": 1485.0522687500052,
      "v": 79
    },
    {
      "midi": 67,
      "hit": false,
      "t": 242608.35599999933,
      "d": 1548.9108750000014,
      "v": 76
    },
    {
      "midi": 75,
      "hit": false,
      "t": 242608.35599999933,
      "d": 1562.4978124999907,
      "v": 64
    },
    {
      "midi": 72,
      "hit": false,
      "t": 242608.35599999933,
      "d": 1563.8565062499838,
      "v": 87
    },
    {
      "midi": 72,
      "hit": false,
      "t": 243097.48574999842,
      "d": 163.0432499999879,
      "v": 48
    },
    {
      "midi": 75,
      "hit": false,
      "t": 243260.5289999984,
      "d": 163.0432499999879,
      "v": 127
    },
    {
      "midi": 77,
      "hit": false,
      "t": 243423.5722499984,
      "d": 163.0432499999879,
      "v": 127
    },
    {
      "midi": 78,
      "hit": false,
      "t": 243749.65874999837,
      "d": 163.0432499999879,
      "v": 118
    },
    {
      "midi": 79,
      "hit": false,
      "t": 243912.70199999836,
      "d": 163.0432499999879,
      "v": 120
    },
    {
      "midi": 77,
      "hit": false,
      "t": 244075.74524999835,
      "d": 163.0432499999879,
      "v": 124
    },
    {
      "midi": 75,
      "hit": false,
      "t": 244238.78849999834,
      "d": 163.0432499999879,
      "v": 91
    },
    {
      "midi": 79,
      "hit": false,
      "t": 244238.78849999933,
      "d": 413.0429000000004,
      "v": 98
    },
    {
      "midi": 75,
      "hit": false,
      "t": 244238.78849999933,
      "d": 456.52110000001267,
      "v": 62
    },
    {
      "midi": 72,
      "hit": false,
      "t": 244238.78849999933,
      "d": 688.8577312500274,
      "v": 93
    },
    {
      "midi": 72,
      "hit": false,
      "t": 244401.83174999832,
      "d": 163.0432499999879,
      "v": 112
    },
    {
      "midi": 75,
      "hit": false,
      "t": 244564.8749999983,
      "d": 163.0432499999879,
      "v": 127
    },
    {
      "midi": 77,
      "hit": false,
      "t": 244727.9182499983,
      "d": 163.0432499999879,
      "v": 127
    },
    {
      "midi": 77,
      "hit": false,
      "t": 244727.91824999935,
      "d": 209.2388375000155,
      "v": 109
    },
    {
      "midi": 78,
      "hit": false,
      "t": 244987.4287562483,
      "d": 163.043250000017,
      "v": 127
    },
    {
      "midi": 79,
      "hit": false,
      "t": 245054.0047499983,
      "d": 163.043250000017,
      "v": 107
    },
    {
      "midi": 71,
      "hit": false,
      "t": 245217.04799999937,
      "d": 1615.4868687499838,
      "v": 94
    },
    {
      "midi": 75,
      "hit": false,
      "t": 245217.04799999937,
      "d": 1980.9754874999926,
      "v": 81
    },
    {
      "midi": 68,
      "hit": false,
      "t": 245217.04799999937,
      "d": 2005.431974999985,
      "v": 66
    },
    {
      "midi": 77,
      "hit": false,
      "t": 245380.0912499983,
      "d": 163.0432499999879,
      "v": 118
    },
    {
      "midi": 82,
      "hit": false,
      "t": 245380.09124999936,
      "d": 1304.3459999999905,
      "v": 90
    },
    {
      "midi": 75,
      "hit": false,
      "t": 245543.1344999983,
      "d": 163.0432499999879,
      "v": 124
    },
    {
      "midi": 71,
      "hit": false,
      "t": 245869.22099999827,
      "d": 326.0865000000049,
      "v": 123
    },
    {
      "midi": 70,
      "hit": false,
      "t": 246358.35074999827,
      "d": 163.0432499999879,
      "v": 127
    },
    {
      "midi": 73,
      "hit": false,
      "t": 246521.39399999825,
      "d": 163.0432499999879,
      "v": 127
    },
    {
      "midi": 71,
      "hit": false,
      "t": 246684.43724999824,
      "d": 163.0432499999879,
      "v": 102
    },
    {
      "midi": 79,
      "hit": false,
      "t": 246847.48049999936,
      "d": 402.1733499999973,
      "v": 112
    },
    {
      "midi": 70,
      "hit": false,
      "t": 247010.52374999822,
      "d": 163.0432499999879,
      "v": 127
    },
    {
      "midi": 68,
      "hit": false,
      "t": 247336.6102499982,
      "d": 326.0865000000049,
      "v": 127
    },
    {
      "midi": 77,
      "hit": false,
      "t": 247336.61024999936,
      "d": 207.8801437499933,
      "v": 101
    },
    {
      "midi": 70,
      "hit": false,
      "t": 247499.65349999818,
      "d": 100.54333750001388,
      "v": 104
    },
    {
      "midi": 79,
      "hit": false,
      "t": 247499.65349999935,
      "d": 89.6737875000108,
      "v": 66
    },
    {
      "midi": 66,
      "hit": false,
      "t": 247692.5880124982,
      "d": 72.01076875001309,
      "v": 95
    },
    {
      "midi": 67,
      "hit": false,
      "t": 247767.3161687482,
      "d": 1124.998424999998,
      "v": 94
    },
    {
      "midi": 79,
      "hit": false,
      "t": 247825.73999999935,
      "d": 2142.6600437499874,
      "v": 91
    },
    {
      "midi": 67,
      "hit": false,
      "t": 247825.73999999935,
      "d": 2194.2904062499874,
      "v": 99
    },
    {
      "midi": 75,
      "hit": false,
      "t": 247825.73999999935,
      "d": 2277.1707249999745,
      "v": 66
    },
    {
      "midi": 74,
      "hit": false,
      "t": 247825.73999999935,
      "d": 2300.2685187499737,
      "v": 92
    },
    {
      "midi": 63,
      "hit": false,
      "t": 247825.73999999935,
      "d": 2301.627212499967,
      "v": 68
    },
    {
      "midi": 67,
      "hit": false,
      "t": 248967.0427499982,
      "d": 163.0432499999879,
      "v": 117
    },
    {
      "midi": 72,
      "hit": false,
      "t": 249130.08599999818,
      "d": 163.0432499999879,
      "v": 114
    },
    {
      "midi": 74,
      "hit": false,
      "t": 249293.12924999816,
      "d": 163.0432499999879,
      "v": 106
    },
    {
      "midi": 75,
      "hit": false,
      "t": 249456.17249999815,
      "d": 163.0432499999879,
      "v": 103
    },
    {
      "midi": 77,
      "hit": false,
      "t": 249619.21574999814,
      "d": 163.0432499999879,
      "v": 124
    },
    {
      "midi": 78,
      "hit": false,
      "t": 249782.25899999813,
      "d": 163.0432499999879,
      "v": 118
    },
    {
      "midi": 79,
      "hit": false,
      "t": 249945.30224999812,
      "d": 163.0432499999879,
      "v": 124
    },
    {
      "midi": 84,
      "hit": false,
      "t": 250108.3454999981,
      "d": 163.0432499999879,
      "v": 127
    },
    {
      "midi": 67,
      "hit": false,
      "t": 250108.34549999933,
      "d": 80.16293125000084,
      "v": 106
    },
    {
      "midi": 79,
      "hit": false,
      "t": 250108.34549999933,
      "d": 232.33663125001476,
      "v": 112
    },
    {
      "midi": 82,
      "hit": false,
      "t": 250434.43199999808,
      "d": 163.0432499999879,
      "v": 121
    },
    {
      "midi": 67,
      "hit": false,
      "t": 250434.43199999933,
      "d": 1987.7689562499872,
      "v": 81
    },
    {
      "midi": 77,
      "hit": false,
      "t": 250434.43199999933,
      "d": 2101.8992312499904,
      "v": 80
    },
    {
      "midi": 73,
      "hit": false,
      "t": 250434.43199999933,
      "d": 2180.703468749998,
      "v": 78
    },
    {
      "midi": 70,
      "hit": false,
      "t": 250434.43199999933,
      "d": 2182.0621624999912,
      "v": 71
    },
    {
      "midi": 80,
      "hit": false,
      "t": 250597.47524999807,
      "d": 163.0432499999879,
      "v": 98
    },
    {
      "midi": 79,
      "hit": false,
      "t": 250923.56174999804,
      "d": 163.0432499999879,
      "v": 110
    },
    {
      "midi": 77,
      "hit": false,
      "t": 251249.64824999802,
      "d": 163.0432499999879,
      "v": 122
    },
    {
      "midi": 75,
      "hit": false,
      "t": 251412.691499998,
      "d": 163.0432499999879,
      "v": 101
    },
    {
      "midi": 73,
      "hit": false,
      "t": 251575.734749998,
      "d": 163.0432499999879,
      "v": 104
    },
    {
      "midi": 72,
      "hit": false,
      "t": 251738.77799999798,
      "d": 163.0432499999879,
      "v": 122
    },
    {
      "midi": 70,
      "hit": false,
      "t": 251901.82124999797,
      "d": 163.0432499999879,
      "v": 106
    },
    {
      "midi": 68,
      "hit": false,
      "t": 252064.86449999796,
      "d": 163.0432499999879,
      "v": 91
    },
    {
      "midi": 67,
      "hit": false,
      "t": 252227.90774999795,
      "d": 163.0432499999879,
      "v": 94
    },
    {
      "midi": 70,
      "hit": false,
      "t": 252390.95099999793,
      "d": 163.0432499999879,
      "v": 124
    },
    {
      "midi": 67,
      "hit": false,
      "t": 252553.99424999792,
      "d": 163.0432499999879,
      "v": 100
    },
    {
      "midi": 68,
      "hit": false,
      "t": 252717.0374999979,
      "d": 163.0432499999879,
      "v": 99
    },
    {
      "midi": 75,
      "hit": false,
      "t": 252717.03749999934,
      "d": 322.01041874999646,
      "v": 113
    },
    {
      "midi": 70,
      "hit": false,
      "t": 252880.0807499979,
      "d": 163.0432499999879,
      "v": 111
    },
    {
      "midi": 72,
      "hit": false,
      "t": 253043.1239999979,
      "d": 313.8582562500087,
      "v": 109
    },
    {
      "midi": 67,
      "hit": false,
      "t": 253043.12399999934,
      "d": 2001.3558937500056,
      "v": 88
    },
    {
      "midi": 68,
      "hit": false,
      "t": 253043.12399999934,
      "d": 2001.3558937500056,
      "v": 93
    },
    {
      "midi": 72,
      "hit": false,
      "t": 253043.12399999934,
      "d": 2080.1601312500134,
      "v": 105
    },
    {
      "midi": 60,
      "hit": false,
      "t": 253043.12399999934,
      "d": 2263.5837875000143,
      "v": 80
    },
    {
      "midi": 75,
      "hit": false,
      "t": 253369.2104999979,
      "d": 163.0432499999879,
      "v": 113
    },
    {
      "midi": 79,
      "hit": false,
      "t": 253532.25374999788,
      "d": 163.0432499999879,
      "v": 120
    },
    {
      "midi": 82,
      "hit": false,
      "t": 253695.29699999787,
      "d": 163.0432499999879,
      "v": 127
    },
    {
      "midi": 80,
      "hit": false,
      "t": 253858.34024999785,
      "d": 163.0432499999879,
      "v": 103
    },
    {
      "midi": 84,
      "hit": false,
      "t": 254021.38349999784,
      "d": 163.0432499999879,
      "v": 89
    },
    {
      "midi": 87,
      "hit": false,
      "t": 254184.42674999783,
      "d": 163.0432499999879,
      "v": 99
    },
    {
      "midi": 91,
      "hit": false,
      "t": 254323.01351249783,
      "d": 163.0432499999879,
      "v": 88
    },
    {
      "midi": 94,
      "hit": false,
      "t": 254528.1762687478,
      "d": 289.40176875001634,
      "v": 126
    },
    {
      "midi": 82,
      "hit": false,
      "t": 254548.55667499782,
      "d": 263.58658750000177,
      "v": 99
    },
    {
      "midi": 80,
      "hit": false,
      "t": 254793.12154999783,
      "d": 163.0432499999879,
      "v": 113
    },
    {
      "midi": 92,
      "hit": false,
      "t": 254795.8389374978,
      "d": 171.19541250000475,
      "v": 118
    },
    {
      "midi": 75,
      "hit": false,
      "t": 254999.64299999934,
      "d": 207.8801437500224,
      "v": 91
    },
    {
      "midi": 79,
      "hit": false,
      "t": 255086.59939999782,
      "d": 203.80406249998487,
      "v": 104
    },
    {
      "midi": 91,
      "hit": false,
      "t": 255104.26241874782,
      "d": 172.55410624999786,
      "v": 105
    },
    {
      "midi": 77,
      "hit": false,
      "t": 255312.14256249781,
      "d": 235.05401875000098,
      "v": 104
    },
    {
      "midi": 89,
      "hit": false,
      "t": 255329.8055812478,
      "d": 171.19541250000475,
      "v": 115
    },
    {
      "midi": 71,
      "hit": false,
      "t": 255488.77274999936,
      "d": 1963.3124687499658,
      "v": 109
    },
    {
      "midi": 68,
      "hit": false,
      "t": 255488.77274999936,
      "d": 2044.8340937499597,
      "v": 91
    },
    {
      "midi": 65,
      "hit": false,
      "t": 255488.77274999936,
      "d": 2058.421031249949,
      "v": 83
    },
    {
      "midi": 87,
      "hit": false,
      "t": 255601.5443312478,
      "d": 50.27166875000694,
      "v": 110
    },
    {
      "midi": 75,
      "hit": false,
      "t": 255628.7182062478,
      "d": 23.097793749999255,
      "v": 106
    },
    {
      "midi": 82,
      "hit": false,
      "t": 255651.81599999935,
      "d": 1781.247506249987,
      "v": 91
    },
    {
      "midi": 75,
      "hit": false,
      "t": 255651.81599999935,
      "d": 1926.6277374999481,
      "v": 81
    },
    {
      "midi": 75,
      "hit": false,
      "t": 255806.7070874978,
      "d": 85.59770625000237,
      "v": 104
    },
    {
      "midi": 87,
      "hit": false,
      "t": 255858.3374499978,
      "d": 89.6737874999817,
      "v": 94
    },
    {
      "midi": 75,
      "hit": false,
      "t": 255933.0656062478,
      "d": 43.47819999998319,
      "v": 104
    },
    {
      "midi": 85,
      "hit": false,
      "t": 255935.7829937478,
      "d": 171.19541250000475,
      "v": 110
    },
    {
      "midi": 73,
      "hit": false,
      "t": 255948.0112374978,
      "d": 188.85843125000247,
      "v": 118
    },
    {
      "midi": 71,
      "hit": false,
      "t": 256238.7716999978,
      "d": 116.84766250001849,
      "v": 100
    },
    {
      "midi": 83,
      "hit": false,
      "t": 256255.0760249978,
      "d": 72.01076875001309,
      "v": 89
    },
    {
      "midi": 83,
      "hit": false,
      "t": 256401.81494999782,
      "d": 101.90203125000698,
      "v": 84
    },
    {
      "midi": 71,
      "hit": false,
      "t": 256473.82571874783,
      "d": 58.42383124999469,
      "v": 115
    },
    {
      "midi": 82,
      "hit": false,
      "t": 256593.39076874783,
      "d": 199.72798124997644,
      "v": 103
    },
    {
      "midi": 70,
      "hit": false,
      "t": 256606.97770624782,
      "d": 214.67361249998794,
      "v": 106
    },
    {
      "midi": 68,
      "hit": false,
      "t": 256924.9120437478,
      "d": 89.6737875000108,
      "v": 104
    },
    {
      "midi": 80,
      "hit": false,
      "t": 256927.6294312478,
      "d": 72.01076875001309,
      "v": 85
    },
    {
      "midi": 80,
      "hit": false,
      "t": 257116.48786249783,
      "d": 150.8150062499917,
      "v": 85
    },
    {
      "midi": 68,
      "hit": false,
      "t": 257161.32475624784,
      "d": 72.01076875001309,
      "v": 101
    },
    {
      "midi": 67,
      "hit": false,
      "t": 257263.22678749784,
      "d": 217.39100000000326,
      "v": 83
    },
    {
      "midi": 79,
      "hit": false,
      "t": 257265.94417499783,
      "d": 199.72798125000554,
      "v": 95
    },
    {
      "midi": 65,
      "hit": false,
      "t": 257553.98724999785,
      "d": 145.38023124999017,
      "v": 100
    },
    {
      "midi": 77,
      "hit": false,
      "t": 257570.29157499786,
      "d": 244.56487499998184,
      "v": 102
    },
    {
      "midi": 79,
      "hit": false,
      "t": 257771.3782499993,
      "d": 183.42365625000093,
      "v": 99
    },
    {
      "midi": 77,
      "hit": false,
      "t": 257934.4214999993,
      "d": 156.24978125002235,
      "v": 88
    },
    {
      "midi": 75,
      "hit": false,
      "t": 257937.13888749783,
      "d": 80.16293125000084,
      "v": 115
    },
    {
      "midi": 77,
      "hit": false,
      "t": 258106.97560624784,
      "d": 86.95639999999548,
      "v": 107
    },
    {
      "midi": 73,
      "hit": false,
      "t": 258252.35583749783,
      "d": 86.95639999999548,
      "v": 118
    },
    {
      "midi": 65,
      "hit": false,
      "t": 258260.50799999933,
      "d": 52.989056249993155,
      "v": 64
    },
    {
      "midi": 67,
      "hit": false,
      "t": 258260.50799999933,
      "d": 2014.942831249995,
      "v": 60
    },
    {
      "midi": 74,
      "hit": false,
      "t": 258260.50799999933,
      "d": 2157.605674999999,
      "v": 87
    },
    {
      "midi": 75,
      "hit": false,
      "t": 258260.50799999933,
      "d": 2157.605674999999,
      "v": 81
    },
    {
      "midi": 74,
      "hit": false,
      "t": 258339.31223749783,
      "d": 357.3364562499919,
      "v": 104
    },
    {
      "midi": 72,
      "hit": false,
      "t": 258749.6377499978,
      "d": 163.0432499999879,
      "v": 127
    },
    {
      "midi": 70,
      "hit": false,
      "t": 258912.6809999978,
      "d": 163.0432499999879,
      "v": 98
    },
    {
      "midi": 72,
      "hit": false,
      "t": 259075.7242499978,
      "d": 163.0432499999879,
      "v": 103
    },
    {
      "midi": 74,
      "hit": false,
      "t": 259238.76749999778,
      "d": 163.0432499999879,
      "v": 91
    },
    {
      "midi": 75,
      "hit": false,
      "t": 259401.81074999776,
      "d": 163.0432499999879,
      "v": 115
    },
    {
      "midi": 77,
      "hit": false,
      "t": 259564.85399999775,
      "d": 163.0432499999879,
      "v": 118
    },
    {
      "midi": 74,
      "hit": false,
      "t": 259727.89724999774,
      "d": 163.0432499999879,
      "v": 102
    },
    {
      "midi": 75,
      "hit": false,
      "t": 259890.94049999773,
      "d": 163.0432499999879,
      "v": 95
    },
    {
      "midi": 86,
      "hit": false,
      "t": 260053.98374999771,
      "d": 489.1297499999928,
      "v": 127
    },
    {
      "midi": 67,
      "hit": false,
      "t": 260380.07024999932,
      "d": 105.97811250001541,
      "v": 90
    },
    {
      "midi": 75,
      "hit": false,
      "t": 260543.11349999934,
      "d": 192.9345125000109,
      "v": 90
    },
    {
      "midi": 84,
      "hit": false,
      "t": 260706.1567499977,
      "d": 163.0432499999879,
      "v": 127
    },
    {
      "midi": 85,
      "hit": false,
      "t": 260869.19999999768,
      "d": 163.0432499999879,
      "v": 127
    },
    {
      "midi": 67,
      "hit": false,
      "t": 260869.19999999934,
      "d": 426.62983749998966,
      "v": 78
    },
    {
      "midi": 70,
      "hit": false,
      "t": 260869.19999999934,
      "d": 467.39064999998664,
      "v": 76
    },
    {
      "midi": 73,
      "hit": false,
      "t": 260869.19999999934,
      "d": 467.39064999998664,
      "v": 76
    },
    {
      "midi": 87,
      "hit": false,
      "t": 261032.24324999767,
      "d": 163.0432499999879,
      "v": 113
    },
    {
      "midi": 82,
      "hit": false,
      "t": 261195.28649999766,
      "d": 163.0432499999879,
      "v": 103
    },
    {
      "midi": 79,
      "hit": false,
      "t": 261358.32974999765,
      "d": 163.0432499999879,
      "v": 122
    },
    {
      "midi": 75,
      "hit": false,
      "t": 261521.37299999763,
      "d": 163.0432499999879,
      "v": 121
    },
    {
      "midi": 79,
      "hit": false,
      "t": 261684.41624999762,
      "d": 163.0432499999879,
      "v": 114
    },
    {
      "midi": 73,
      "hit": false,
      "t": 261847.4594999976,
      "d": 163.0432499999879,
      "v": 91
    },
    {
      "midi": 72,
      "hit": false,
      "t": 262010.5027499976,
      "d": 326.0864999999758,
      "v": 109
    },
    {
      "midi": 79,
      "hit": false,
      "t": 262173.54599999933,
      "d": 957.8790937499725,
      "v": 100
    },
    {
      "midi": 76,
      "hit": false,
      "t": 262173.54599999933,
      "d": 959.2377874999656,
      "v": 91
    },
    {
      "midi": 84,
      "hit": false,
      "t": 262173.54599999933,
      "d": 959.2377874999656,
      "v": 105
    },
    {
      "midi": 73,
      "hit": false,
      "t": 262173.54599999933,
      "d": 1027.1724749999703,
      "v": 76
    },
    {
      "midi": 70,
      "hit": false,
      "t": 262173.54599999933,
      "d": 1116.846262499981,
      "v": 76
    },
    {
      "midi": 75,
      "hit": false,
      "t": 262336.5892499976,
      "d": 163.0432499999879,
      "v": 104
    },
    {
      "midi": 70,
      "hit": false,
      "t": 262499.63249999756,
      "d": 326.0864999999758,
      "v": 104
    },
    {
      "midi": 68,
      "hit": false,
      "t": 262825.71899999754,
      "d": 163.0432499999879,
      "v": 115
    },
    {
      "midi": 70,
      "hit": false,
      "t": 262988.7622499975,
      "d": 163.0432499999879,
      "v": 95
    },
    {
      "midi": 67,
      "hit": false,
      "t": 263151.8054999975,
      "d": 326.0864999999758,
      "v": 85
    },
    {
      "midi": 72,
      "hit": false,
      "t": 263314.8487499993,
      "d": 869.564000000013,
      "v": 100
    },
    {
      "midi": 70,
      "hit": false,
      "t": 263477.8919999975,
      "d": 489.1297500000219,
      "v": 127
    },
    {
      "midi": 82,
      "hit": false,
      "t": 263477.8919999993,
      "d": 711.9555249999976,
      "v": 96
    },
    {
      "midi": 79,
      "hit": false,
      "t": 263477.8919999993,
      "d": 801.6293125000084,
      "v": 95
    },
    {
      "midi": 75,
      "hit": false,
      "t": 263477.8919999993,
      "d": 857.3357562500169,
      "v": 78
    },
    {
      "midi": 68,
      "hit": false,
      "t": 263477.8919999993,
      "d": 936.1399937500246,
      "v": 93
    },
    {
      "midi": 67,
      "hit": false,
      "t": 263967.0217499975,
      "d": 115.48896874999627,
      "v": 127
    },
    {
      "midi": 68,
      "hit": false,
      "t": 264130.0649999975,
      "d": 144.02153750002617,
      "v": 89
    },
    {
      "midi": 70,
      "hit": false,
      "t": 264293.10824999755,
      "d": 72.01076874998398,
      "v": 104
    },
    {
      "midi": 72,
      "hit": false,
      "t": 264456.15149999753,
      "d": 144.02153750002617,
      "v": 100
    },
    {
      "midi": 73,
      "hit": false,
      "t": 264619.1947499976,
      "d": 144.02153750002617,
      "v": 121
    },
    {
      "midi": 75,
      "hit": false,
      "t": 264782.2379999976,
      "d": 86.95640000002459,
      "v": 88
    },
    {
      "midi": 75,
      "hit": false,
      "t": 264782.2379999993,
      "d": 582.879618750012,
      "v": 69
    },
    {
      "midi": 79,
      "hit": false,
      "t": 264782.2379999993,
      "d": 614.1295750000281,
      "v": 96
    },
    {
      "midi": 72,
      "hit": false,
      "t": 264782.2379999993,
      "d": 635.8686750000343,
      "v": 85
    },
    {
      "midi": 65,
      "hit": false,
      "t": 264782.2379999993,
      "d": 649.4556125000236,
      "v": 85
    },
    {
      "midi": 68,
      "hit": false,
      "t": 264782.2379999993,
      "d": 705.162056250032,
      "v": 84
    },
    {
      "midi": 77,
      "hit": false,
      "t": 264945.2812499977,
      "d": 84.23901249998016,
      "v": 122
    },
    {
      "midi": 79,
      "hit": false,
      "t": 265108.32449999766,
      "d": 100.54333750001388,
      "v": 100
    },
    {
      "midi": 80,
      "hit": false,
      "t": 265271.36774999765,
      "d": 58.42383124999469,
      "v": 115
    },
    {
      "midi": 82,
      "hit": false,
      "t": 265434.41099999764,
      "d": 114.13027500000317,
      "v": 127
    },
    {
      "midi": 79,
      "hit": false,
      "t": 265597.4542499976,
      "d": 85.59770624997327,
      "v": 98
    },
    {
      "midi": 80,
      "hit": false,
      "t": 265760.4974999976,
      "d": 100.54333750001388,
      "v": 124
    },
    {
      "midi": 82,
      "hit": false,
      "t": 265923.5407499976,
      "d": 44.8368937500054,
      "v": 113
    },
    {
      "midi": 68,
      "hit": false,
      "t": 265923.54074999935,
      "d": 1645.3781312499777,
      "v": 94
    },
    {
      "midi": 65,
      "hit": false,
      "t": 265923.54074999935,
      "d": 1671.1933124999632,
      "v": 88
    },
    {
      "midi": 83,
      "hit": false,
      "t": 266036.3123312476,
      "d": 317.93433750001714,
      "v": 104
    },
    {
      "midi": 75,
      "hit": false,
      "t": 266086.58399999933,
      "d": 1540.7587124999845,
      "v": 70
    },
    {
      "midi": 71,
      "hit": false,
      "t": 266086.58399999933,
      "d": 1550.2695687499945,
      "v": 71
    },
    {
      "midi": 61,
      "hit": false,
      "t": 266086.58399999933,
      "d": 1657.606374999974,
      "v": 75
    },
    {
      "midi": 82,
      "hit": false,
      "t": 266412.6704999976,
      "d": 115.48896874999627,
      "v": 98
    },
    {
      "midi": 80,
      "hit": false,
      "t": 266575.7137499976,
      "d": 201.08667500002775,
      "v": 127
    },
    {
      "midi": 80,
      "hit": false,
      "t": 266901.80024999764,
      "d": 44.8368937500054,
      "v": 104
    },
    {
      "midi": 75,
      "hit": false,
      "t": 267064.84349999763,
      "d": 142.66284374997485,
      "v": 99
    },
    {
      "midi": 73,
      "hit": false,
      "t": 267227.8867499976,
      "d": 130.43459999997867,
      "v": 93
    },
    {
      "midi": 71,
      "hit": false,
      "t": 267390.9299999976,
      "d": 171.19541250000475,
      "v": 90
    },
    {
      "midi": 70,
      "hit": false,
      "t": 267717.0164999976,
      "d": 156.24978125002235,
      "v": 104
    },
    {
      "midi": 68,
      "hit": false,
      "t": 267880.0597499976,
      "d": 256.793118749978,
      "v": 115
    },
    {
      "midi": 70,
      "hit": false,
      "t": 268206.1462499976,
      "d": 101.90203125000698,
      "v": 99
    },
    {
      "midi": 68,
      "hit": false,
      "t": 268369.1894999976,
      "d": 103.2607250000001,
      "v": 118
    },
    {
      "midi": 66,
      "hit": false,
      "t": 268532.2327499976,
      "d": 101.90203125000698,
      "v": 106
    },
    {
      "midi": 67,
      "hit": false,
      "t": 268695.27599999757,
      "d": 769.0206624999992,
      "v": 91
    },
    {
      "midi": 67,
      "hit": false,
      "t": 268695.2759999993,
      "d": 1563.8565062499838,
      "v": 73
    },
    {
      "midi": 74,
      "hit": false,
      "t": 268695.2759999993,
      "d": 1823.3670125000062,
      "v": 80
    },
    {
      "midi": 75,
      "hit": false,
      "t": 268695.2759999993,
      "d": 1823.3670125000062,
      "v": 73
    },
    {
      "midi": 79,
      "hit": false,
      "t": 268695.2759999993,
      "d": 1823.3670125000062,
      "v": 79
    },
    {
      "midi": 63,
      "hit": false,
      "t": 268695.2759999993,
      "d": 1927.9864312500576,
      "v": 64
    },
    {
      "midi": 67,
      "hit": false,
      "t": 269510.49224999757,
      "d": 73.36946249997709,
      "v": 104
    },
    {
      "midi": 72,
      "hit": false,
      "t": 269661.30725624756,
      "d": 44.8368937500054,
      "v": 88
    },
    {
      "midi": 67,
      "hit": false,
      "t": 269736.0354124976,
      "d": 86.95640000002459,
      "v": 93
    },
    {
      "midi": 72,
      "hit": false,
      "t": 269836.5787499976,
      "d": 58.42383124999469,
      "v": 94
    },
    {
      "midi": 75,
      "hit": false,
      "t": 269999.6219999976,
      "d": 70.65207499999087,
      "v": 115
    },
    {
      "midi": 72,
      "hit": false,
      "t": 270086.57839999755,
      "d": 72.01076874998398,
      "v": 99
    },
    {
      "midi": 75,
      "hit": false,
      "t": 270162.6652499975,
      "d": 57.06513750000158,
      "v": 104
    },
    {
      "midi": 79,
      "hit": false,
      "t": 270325.7084999975,
      "d": 144.02153750002617,
      "v": 115
    },
    {
      "midi": 67,
      "hit": false,
      "t": 270488.7517499993,
      "d": 93.74986875004834,
      "v": 88
    },
    {
      "midi": 84,
      "hit": false,
      "t": 270651.79499999754,
      "d": 271.7387500000186,
      "v": 127
    },
    {
      "midi": 79,
      "hit": false,
      "t": 270651.79499999934,
      "d": 230.97793749999255,
      "v": 120
    },
    {
      "midi": 74,
      "hit": false,
      "t": 270651.79499999934,
      "d": 324.7278062499827,
      "v": 110
    },
    {
      "midi": 67,
      "hit": false,
      "t": 270651.79499999934,
      "d": 418.4776749999728,
      "v": 81
    },
    {
      "midi": 77,
      "hit": false,
      "t": 270977.8814999993,
      "d": 323.36911249998957,
      "v": 95
    },
    {
      "midi": 86,
      "hit": false,
      "t": 271140.92474999756,
      "d": 100.54333750001388,
      "v": 127
    },
    {
      "midi": 87,
      "hit": false,
      "t": 271303.96799999755,
      "d": 142.66284374997485,
      "v": 95
    },
    {
      "midi": 67,
      "hit": false,
      "t": 271303.9679999993,
      "d": 747.281562499993,
      "v": 76
    },
    {
      "midi": 75,
      "hit": false,
      "t": 271303.9679999993,
      "d": 849.18359375,
      "v": 70
    },
    {
      "midi": 70,
      "hit": false,
      "t": 271303.9679999993,
      "d": 855.9770625000237,
      "v": 72
    },
    {
      "midi": 73,
      "hit": false,
      "t": 271303.9679999993,
      "d": 857.3357562500169,
      "v": 77
    },
    {
      "midi": 89,
      "hit": false,
      "t": 271467.01124999754,
      "d": 100.54333750001388,
      "v": 124
    },
    {
      "midi": 85,
      "hit": false,
      "t": 271630.0544999975,
      "d": 226.90185625001322,
      "v": 89
    },
    {
      "midi": 84,
      "hit": false,
      "t": 271956.14099999756,
      "d": 129.07590624998556,
      "v": 101
    },
    {
      "midi": 85,
      "hit": false,
      "t": 272119.18424999755,
      "d": 86.95640000002459,
      "v": 104
    },
    {
      "midi": 82,
      "hit": false,
      "t": 272282.2274999976,
      "d": 186.14104374998715,
      "v": 98
    },
    {
      "midi": 80,
      "hit": false,
      "t": 272608.31399999757,
      "d": 141.30414999998175,
      "v": 95
    },
    {
      "midi": 79,
      "hit": false,
      "t": 272771.35724999756,
      "d": 157.60847500001546,
      "v": 91
    },
    {
      "midi": 77,
      "hit": false,
      "t": 273097.4437499976,
      "d": 172.55410624999786,
      "v": 104
    },
    {
      "midi": 81,
      "hit": false,
      "t": 273260.4869999993,
      "d": 338.31474374997197,
      "v": 103
    },
    {
      "midi": 76,
      "hit": false,
      "t": 273260.4869999993,
      "d": 444.2928562499583,
      "v": 90
    },
    {
      "midi": 84,
      "hit": false,
      "t": 273260.4869999993,
      "d": 457.87979374994757,
      "v": 117
    },
    {
      "midi": 70,
      "hit": false,
      "t": 273260.4869999993,
      "d": 471.46673124993686,
      "v": 83
    },
    {
      "midi": 67,
      "hit": false,
      "t": 273260.4869999993,
      "d": 472.82542499992996,
      "v": 83
    },
    {
      "midi": 75,
      "hit": false,
      "t": 273423.53024999757,
      "d": 157.60847500001546,
      "v": 110
    },
    {
      "midi": 73,
      "hit": false,
      "t": 273749.6167499976,
      "d": 101.90203125000698,
      "v": 124
    },
    {
      "midi": 72,
      "hit": false,
      "t": 273912.6599999976,
      "d": 512.2275437500211,
      "v": 94
    },
    {
      "midi": 82,
      "hit": false,
      "t": 273912.6599999993,
      "d": 800.2706187500153,
      "v": 81
    },
    {
      "midi": 79,
      "hit": false,
      "t": 273912.6599999993,
      "d": 827.4444937499939,
      "v": 88
    },
    {
      "midi": 75,
      "hit": false,
      "t": 273912.6599999993,
      "d": 866.8466124999686,
      "v": 65
    },
    {
      "midi": 72,
      "hit": false,
      "t": 273912.6599999993,
      "d": 934.7812999999733,
      "v": 81
    },
    {
      "midi": 68,
      "hit": false,
      "t": 273912.6599999993,
      "d": 961.9551749999519,
      "v": 85
    },
    {
      "midi": 75,
      "hit": false,
      "t": 274401.7897499976,
      "d": 58.42383124999469,
      "v": 86
    },
    {
      "midi": 79,
      "hit": false,
      "t": 274564.8329999976,
      "d": 172.55410624999786,
      "v": 107
    },
    {
      "midi": 82,
      "hit": false,
      "t": 274727.8762499976,
      "d": 114.13027500000317,
      "v": 108
    },
    {
      "midi": 79,
      "hit": false,
      "t": 275053.96274999756,
      "d": 129.07590624998556,
      "v": 127
    },
    {
      "midi": 75,
      "hit": false,
      "t": 275380.04924999754,
      "d": 114.13027500000317,
      "v": 93
    },
    {
      "midi": 70,
      "hit": false,
      "t": 275380.0492499992,
      "d": 377.71686250000494,
      "v": 87
    },
    {
      "midi": 63,
      "hit": false,
      "t": 275380.0492499992,
      "d": 389.9451062500011,
      "v": 77
    },
    {
      "midi": 75,
      "hit": false,
      "t": 275380.0492499992,
      "d": 391.3037999999942,
      "v": 89
    },
    {
      "midi": 79,
      "hit": false,
      "t": 275380.0492499992,
      "d": 441.57546874997206,
      "v": 106
    },
    {
      "midi": 72,
      "hit": false,
      "t": 275706.1357499975,
      "d": 73.36946249997709,
      "v": 98
    },
    {
      "midi": 82,
      "hit": false,
      "t": 275869.1789999975,
      "d": 114.13027500000317,
      "v": 121
    },
    {
      "midi": 77,
      "hit": false,
      "t": 275869.1789999992,
      "d": 154.89108749997104,
      "v": 89
    },
    {
      "midi": 79,
      "hit": false,
      "t": 276032.2222499975,
      "d": 114.13027500000317,
      "v": 126
    },
    {
      "midi": 75,
      "hit": false,
      "t": 276195.2654999975,
      "d": 186.14104374998715,
      "v": 86
    },
    {
      "midi": 75,
      "hit": false,
      "t": 276195.26549999916,
      "d": 65.21730000001844,
      "v": 81
    },
    {
      "midi": 82,
      "hit": false,
      "t": 276521.35199999745,
      "d": 248.64095625001937,
      "v": 98
    },
    {
      "midi": 65,
      "hit": false,
      "t": 276521.3519999992,
      "d": 1834.2365625000093,
      "v": 79
    },
    {
      "midi": 61,
      "hit": false,
      "t": 276521.3519999992,
      "d": 1847.8234999999986,
      "v": 77
    },
    {
      "midi": 68,
      "hit": false,
      "t": 276521.3519999992,
      "d": 1899.4538624999695,
      "v": 67
    },
    {
      "midi": 71,
      "hit": false,
      "t": 276521.3519999992,
      "d": 1911.6821062499657,
      "v": 86
    },
    {
      "midi": 75,
      "hit": false,
      "t": 276521.3519999992,
      "d": 1925.269043749955,
      "v": 70
    },
    {
      "midi": 79,
      "hit": false,
      "t": 276847.4384999975,
      "d": 114.13027500000317,
      "v": 112
    },
    {
      "midi": 75,
      "hit": false,
      "t": 277010.4817499975,
      "d": 100.54333750001388,
      "v": 86
    },
    {
      "midi": 71,
      "hit": false,
      "t": 277173.52499999746,
      "d": 186.14104374998715,
      "v": 106
    },
    {
      "midi": 75,
      "hit": false,
      "t": 277336.56824999745,
      "d": 100.54333750001388,
      "v": 94
    },
    {
      "midi": 79,
      "hit": false,
      "t": 277662.6547499975,
      "d": 127.71721249999246,
      "v": 122
    },
    {
      "midi": 77,
      "hit": false,
      "t": 277988.74124999746,
      "d": 129.07590624998556,
      "v": 104
    },
    {
      "midi": 75,
      "hit": false,
      "t": 278314.82774999744,
      "d": 114.13027500000317,
      "v": 113
    },
    {
      "midi": 65,
      "hit": false,
      "t": 278477.87099999917,
      "d": 206.5214500000002,
      "v": 100
    },
    {
      "midi": 61,
      "hit": false,
      "t": 278477.87099999917,
      "d": 342.3908250000095,
      "v": 71
    },
    {
      "midi": 77,
      "hit": false,
      "t": 278640.9142499974,
      "d": 115.48896874999627,
      "v": 114
    },
    {
      "midi": 68,
      "hit": false,
      "t": 278640.91424999916,
      "d": 118.2063562500407,
      "v": 118
    },
    {
      "midi": 75,
      "hit": false,
      "t": 278803.9574999974,
      "d": 129.07590624998556,
      "v": 85
    },
    {
      "midi": 75,
      "hit": false,
      "t": 278803.9574999992,
      "d": 180.7062687499565,
      "v": 121
    },
    {
      "midi": 67,
      "hit": false,
      "t": 279130.0439999974,
      "d": 2910.3220124999643,
      "v": 89
    },
    {
      "midi": 70,
      "hit": false,
      "t": 279130.0439999992,
      "d": 2894.017687499989,
      "v": 86
    },
    {
      "midi": 67,
      "hit": false,
      "t": 279130.0439999992,
      "d": 2922.5502562499605,
      "v": 102
    },
    {
      "midi": 74,
      "hit": false,
      "t": 279143.63093749736,
      "d": 870.9226937499479,
      "v": 84
    },
    {
      "midi": 79,
      "hit": false,
      "t": 279146.34832499735,
      "d": 2895.376381249982,
      "v": 85
    },
    {
      "midi": 82,
      "hit": false,
      "t": 279147.70701874734,
      "d": 2895.376381249982,
      "v": 95
    },
    {
      "midi": 86,
      "hit": false,
      "t": 279150.42440624733,
      "d": 2895.376381249982,
      "v": 102
    },
    {
      "midi": 77,
      "hit": false,
      "t": 279293.08724999917,
      "d": 2782.604799999972,
      "v": 109
    },
    {
      "midi": 74,
      "hit": false,
      "t": 279293.08724999917,
      "d": 2826.082999999984,
      "v": 109
    }
  ]
}