{
  "jsonPath": "Unknown/Unknown/Peter Cornelius_/ein-ton.json",
  "path": "Unknown\\Unknown\\Peter Cornelius_\\Ein Ton.mid",
  "name": "Ein Ton",
  "difficulty": "Advanced",
  "bpm": 90.00009000009,
  "notes": [
    {
      "midi": 71,
      "hit": false,
      "t": 0,
      "d": 1333.3319999999999,
      "v": 127
    },
    {
      "midi": 71,
      "hit": false,
      "t": 1999.9979999999998,
      "d": 999.999,
      "v": 127
    },
    {
      "midi": 67,
      "hit": false,
      "t": 2999.997,
      "d": 333.3330000000001,
      "v": 127
    },
    {
      "midi": 67,
      "hit": false,
      "t": 3333.33,
      "d": 333.3330000000001,
      "v": 127
    },
    {
      "midi": 47,
      "hit": false,
      "t": 3333.33,
      "d": 666.6660000000002,
      "v": 127
    },
    {
      "midi": 57,
      "hit": false,
      "t": 3333.33,
      "d": 666.6660000000002,
      "v": 127
    },
    {
      "midi": 67,
      "hit": false,
      "t": 3666.663,
      "d": 333.3330000000001,
      "v": 127
    },
    {
      "midi": 63,
      "hit": false,
      "t": 3999.996,
      "d": 333.33299999999963,
      "v": 127
    },
    {
      "midi": 52,
      "hit": false,
      "t": 3999.996,
      "d": 1333.3319999999994,
      "v": 127
    },
    {
      "midi": 55,
      "hit": false,
      "t": 3999.996,
      "d": 1333.3319999999994,
      "v": 127
    },
    {
      "midi": 64,
      "hit": false,
      "t": 4333.329,
      "d": 333.33299999999963,
      "v": 127
    },
    {
      "midi": 67,
      "hit": false,
      "t": 4666.661999999999,
      "d": 333.33299999999963,
      "v": 127
    },
    {
      "midi": 71,
      "hit": false,
      "t": 4999.994999999999,
      "d": 333.33299999999963,
      "v": 127
    },
    {
      "midi": 78,
      "hit": false,
      "t": 5333.327999999999,
      "d": 333.33299999999963,
      "v": 127
    },
    {
      "midi": 61,
      "hit": false,
      "t": 5333.3279999999995,
      "d": 666.6660000000002,
      "v": 127
    },
    {
      "midi": 67,
      "hit": false,
      "t": 5333.3279999999995,
      "d": 666.6660000000002,
      "v": 127
    },
    {
      "midi": 76,
      "hit": false,
      "t": 5666.660999999998,
      "d": 333.33299999999963,
      "v": 127
    },
    {
      "midi": 76,
      "hit": false,
      "t": 5999.993999999998,
      "d": 333.33299999999963,
      "v": 127
    },
    {
      "midi": 62,
      "hit": false,
      "t": 5999.994,
      "d": 1333.3319999999994,
      "v": 127
    },
    {
      "midi": 67,
      "hit": false,
      "t": 5999.994,
      "d": 1333.3319999999994,
      "v": 127
    },
    {
      "midi": 74,
      "hit": false,
      "t": 6333.3269999999975,
      "d": 333.33299999999963,
      "v": 127
    },
    {
      "midi": 71,
      "hit": false,
      "t": 6666.659999999997,
      "d": 333.33299999999963,
      "v": 127
    },
    {
      "midi": 74,
      "hit": false,
      "t": 6999.992999999997,
      "d": 333.33299999999963,
      "v": 127
    },
    {
      "midi": 81,
      "hit": false,
      "t": 7333.325999999996,
      "d": 333.33299999999963,
      "v": 127
    },
    {
      "midi": 64,
      "hit": false,
      "t": 7333.325999999999,
      "d": 666.6660000000002,
      "v": 127
    },
    {
      "midi": 67,
      "hit": false,
      "t": 7333.325999999999,
      "d": 666.6660000000002,
      "v": 127
    },
    {
      "midi": 79,
      "hit": false,
      "t": 7666.658999999996,
      "d": 333.33299999999963,
      "v": 127
    },
    {
      "midi": 79,
      "hit": false,
      "t": 7999.991999999996,
      "d": 333.33299999999963,
      "v": 127
    },
    {
      "midi": 67,
      "hit": false,
      "t": 7999.991999999999,
      "d": 666.6660000000002,
      "v": 127
    },
    {
      "midi": 78,
      "hit": false,
      "t": 8333.324999999995,
      "d": 333.33300000000054,
      "v": 127
    },
    {
      "midi": 71,
      "hit": false,
      "t": 8666.657999999996,
      "d": 333.33300000000054,
      "v": 127
    },
    {
      "midi": 69,
      "hit": false,
      "t": 8666.658,
      "d": 666.6659999999993,
      "v": 127
    },
    {
      "midi": 81,
      "hit": false,
      "t": 8999.990999999996,
      "d": 333.33300000000054,
      "v": 127
    },
    {
      "midi": 81,
      "hit": false,
      "t": 9333.323999999997,
      "d": 333.33300000000054,
      "v": 127
    },
    {
      "midi": 64,
      "hit": false,
      "t": 9333.323999999999,
      "d": 666.6659999999993,
      "v": 127
    },
    {
      "midi": 67,
      "hit": false,
      "t": 9333.323999999999,
      "d": 666.6659999999993,
      "v": 127
    },
    {
      "midi": 79,
      "hit": false,
      "t": 9666.656999999997,
      "d": 333.33300000000054,
      "v": 127
    },
    {
      "midi": 79,
      "hit": false,
      "t": 9999.989999999998,
      "d": 333.33300000000054,
      "v": 127
    },
    {
      "midi": 63,
      "hit": false,
      "t": 9999.989999999998,
      "d": 666.6659999999993,
      "v": 127
    },
    {
      "midi": 69,
      "hit": false,
      "t": 9999.989999999998,
      "d": 666.6659999999993,
      "v": 127
    },
    {
      "midi": 78,
      "hit": false,
      "t": 10333.322999999999,
      "d": 333.33300000000054,
      "v": 127
    },
    {
      "midi": 64,
      "hit": false,
      "t": 10666.655999999997,
      "d": 666.6659999999993,
      "v": 127
    },
    {
      "midi": 67,
      "hit": false,
      "t": 10666.655999999997,
      "d": 666.6659999999993,
      "v": 127
    },
    {
      "midi": 78,
      "hit": false,
      "t": 10666.655999999999,
      "d": 333.33300000000054,
      "v": 127
    },
    {
      "midi": 76,
      "hit": false,
      "t": 10999.989,
      "d": 333.33300000000054,
      "v": 127
    },
    {
      "midi": 61,
      "hit": false,
      "t": 11333.321999999996,
      "d": 666.6659999999993,
      "v": 127
    },
    {
      "midi": 67,
      "hit": false,
      "t": 11333.321999999996,
      "d": 666.6659999999993,
      "v": 127
    },
    {
      "midi": 78,
      "hit": false,
      "t": 11333.322,
      "d": 333.33300000000054,
      "v": 127
    },
    {
      "midi": 79,
      "hit": false,
      "t": 11666.655,
      "d": 333.33300000000054,
      "v": 127
    },
    {
      "midi": 62,
      "hit": false,
      "t": 11999.987999999996,
      "d": 666.6659999999993,
      "v": 127
    },
    {
      "midi": 71,
      "hit": false,
      "t": 11999.988000000001,
      "d": 333.33300000000054,
      "v": 127
    },
    {
      "midi": 79,
      "hit": false,
      "t": 11999.988000000001,
      "d": 333.33300000000054,
      "v": 127
    },
    {
      "midi": 67,
      "hit": false,
      "t": 12333.321000000002,
      "d": 333.33300000000054,
      "v": 127
    },
    {
      "midi": 71,
      "hit": false,
      "t": 12333.321000000002,
      "d": 333.33300000000054,
      "v": 127
    },
    {
      "midi": 50,
      "hit": false,
      "t": 12666.653999999995,
      "d": 1333.3320000000003,
      "v": 127
    },
    {
      "midi": 67,
      "hit": false,
      "t": 12999.987000000003,
      "d": 333.33300000000054,
      "v": 127
    },
    {
      "midi": 71,
      "hit": false,
      "t": 12999.987000000003,
      "d": 333.33300000000054,
      "v": 127
    },
    {
      "midi": 67,
      "hit": false,
      "t": 13333.320000000003,
      "d": 333.33300000000054,
      "v": 127
    },
    {
      "midi": 71,
      "hit": false,
      "t": 13333.320000000003,
      "d": 333.33300000000054,
      "v": 127
    },
    {
      "midi": 59,
      "hit": false,
      "t": 13666.653000000004,
      "d": 333.33300000000054,
      "v": 127
    },
    {
      "midi": 67,
      "hit": false,
      "t": 13666.653000000004,
      "d": 333.33300000000054,
      "v": 127
    },
    {
      "midi": 59,
      "hit": false,
      "t": 13999.986000000004,
      "d": 333.33300000000054,
      "v": 127
    },
    {
      "midi": 67,
      "hit": false,
      "t": 13999.986000000004,
      "d": 333.33300000000054,
      "v": 127
    },
    {
      "midi": 55,
      "hit": false,
      "t": 14333.319000000005,
      "d": 333.33300000000054,
      "v": 127
    },
    {
      "midi": 59,
      "hit": false,
      "t": 14333.319000000005,
      "d": 333.33300000000054,
      "v": 127
    },
    {
      "midi": 38,
      "hit": false,
      "t": 14666.651999999995,
      "d": 666.6659999999993,
      "v": 127
    },
    {
      "midi": 59,
      "hit": false,
      "t": 14999.985000000006,
      "d": 333.33300000000054,
      "v": 127
    },
    {
      "midi": 67,
      "hit": false,
      "t": 14999.985000000006,
      "d": 333.33300000000054,
      "v": 127
    },
    {
      "midi": 39,
      "hit": false,
      "t": 15333.317999999994,
      "d": 666.6659999999993,
      "v": 127
    },
    {
      "midi": 51,
      "hit": false,
      "t": 15333.317999999994,
      "d": 666.6659999999993,
      "v": 127
    },
    {
      "midi": 59,
      "hit": false,
      "t": 15333.318000000007,
      "d": 333.33300000000054,
      "v": 127
    },
    {
      "midi": 67,
      "hit": false,
      "t": 15333.318000000007,
      "d": 333.33300000000054,
      "v": 127
    },
    {
      "midi": 57,
      "hit": false,
      "t": 15666.651000000007,
      "d": 333.33300000000054,
      "v": 127
    },
    {
      "midi": 66,
      "hit": false,
      "t": 15666.651000000007,
      "d": 333.33300000000054,
      "v": 127
    },
    {
      "midi": 40,
      "hit": false,
      "t": 15999.983999999993,
      "d": 666.6660000000011,
      "v": 127
    },
    {
      "midi": 52,
      "hit": false,
      "t": 15999.983999999993,
      "d": 666.6660000000011,
      "v": 127
    },
    {
      "midi": 62,
      "hit": false,
      "t": 15999.984000000008,
      "d": 333.33300000000054,
      "v": 127
    },
    {
      "midi": 64,
      "hit": false,
      "t": 16333.317000000008,
      "d": 333.33300000000054,
      "v": 127
    },
    {
      "midi": 67,
      "hit": false,
      "t": 16666.65000000001,
      "d": 333.3329999999987,
      "v": 127
    },
    {
      "midi": 71,
      "hit": false,
      "t": 16999.983000000007,
      "d": 333.3329999999987,
      "v": 127
    },
    {
      "midi": 61,
      "hit": false,
      "t": 17333.315999999995,
      "d": 666.6660000000011,
      "v": 127
    },
    {
      "midi": 67,
      "hit": false,
      "t": 17333.315999999995,
      "d": 666.6660000000011,
      "v": 127
    },
    {
      "midi": 78,
      "hit": false,
      "t": 17333.316000000006,
      "d": 333.3329999999987,
      "v": 127
    },
    {
      "midi": 76,
      "hit": false,
      "t": 17666.649000000005,
      "d": 333.3329999999987,
      "v": 127
    },
    {
      "midi": 62,
      "hit": false,
      "t": 17999.981999999996,
      "d": 1333.3319999999985,
      "v": 127
    },
    {
      "midi": 67,
      "hit": false,
      "t": 17999.981999999996,
      "d": 1333.3319999999985,
      "v": 127
    },
    {
      "midi": 76,
      "hit": false,
      "t": 17999.982000000004,
      "d": 333.3329999999987,
      "v": 127
    },
    {
      "midi": 74,
      "hit": false,
      "t": 18333.315000000002,
      "d": 333.3329999999987,
      "v": 127
    },
    {
      "midi": 71,
      "hit": false,
      "t": 18666.648,
      "d": 333.3329999999987,
      "v": 127
    },
    {
      "midi": 74,
      "hit": false,
      "t": 18999.981,
      "d": 333.3329999999987,
      "v": 127
    },
    {
      "midi": 64,
      "hit": false,
      "t": 19333.313999999995,
      "d": 666.6660000000011,
      "v": 127
    },
    {
      "midi": 67,
      "hit": false,
      "t": 19333.313999999995,
      "d": 666.6660000000011,
      "v": 127
    },
    {
      "midi": 81,
      "hit": false,
      "t": 19333.314,
      "d": 333.3329999999987,
      "v": 127
    },
    {
      "midi": 79,
      "hit": false,
      "t": 19666.646999999997,
      "d": 333.3329999999987,
      "v": 127
    },
    {
      "midi": 79,
      "hit": false,
      "t": 19999.979999999996,
      "d": 333.3329999999987,
      "v": 127
    },
    {
      "midi": 67,
      "hit": false,
      "t": 19999.979999999996,
      "d": 666.6660000000011,
      "v": 127
    },
    {
      "midi": 78,
      "hit": false,
      "t": 20333.312999999995,
      "d": 333.3329999999987,
      "v": 127
    },
    {
      "midi": 71,
      "hit": false,
      "t": 20666.645999999993,
      "d": 333.3329999999987,
      "v": 127
    },
    {
      "midi": 69,
      "hit": false,
      "t": 20666.645999999997,
      "d": 666.6660000000011,
      "v": 127
    },
    {
      "midi": 81,
      "hit": false,
      "t": 20999.978999999992,
      "d": 333.3329999999987,
      "v": 127
    },
    {
      "midi": 81,
      "hit": false,
      "t": 21333.31199999999,
      "d": 333.3329999999987,
      "v": 127
    },
    {
      "midi": 64,
      "hit": false,
      "t": 21333.311999999998,
      "d": 666.6660000000011,
      "v": 127
    },
    {
      "midi": 67,
      "hit": false,
      "t": 21333.311999999998,
      "d": 666.6660000000011,
      "v": 127
    },
    {
      "midi": 79,
      "hit": false,
      "t": 21666.64499999999,
      "d": 333.3329999999987,
      "v": 127
    },
    {
      "midi": 79,
      "hit": false,
      "t": 21999.97799999999,
      "d": 333.3329999999987,
      "v": 127
    },
    {
      "midi": 63,
      "hit": false,
      "t": 21999.978,
      "d": 666.6660000000011,
      "v": 127
    },
    {
      "midi": 67,
      "hit": false,
      "t": 21999.978,
      "d": 666.6660000000011,
      "v": 127
    },
    {
      "midi": 78,
      "hit": false,
      "t": 22333.310999999987,
      "d": 333.3329999999987,
      "v": 127
    },
    {
      "midi": 78,
      "hit": false,
      "t": 22666.643999999986,
      "d": 333.3329999999987,
      "v": 127
    },
    {
      "midi": 64,
      "hit": false,
      "t": 22666.644,
      "d": 666.6660000000011,
      "v": 127
    },
    {
      "midi": 67,
      "hit": false,
      "t": 22666.644,
      "d": 666.6660000000011,
      "v": 127
    },
    {
      "midi": 76,
      "hit": false,
      "t": 22999.976999999984,
      "d": 333.3329999999987,
      "v": 127
    },
    {
      "midi": 78,
      "hit": false,
      "t": 23333.309999999983,
      "d": 333.3329999999987,
      "v": 127
    },
    {
      "midi": 61,
      "hit": false,
      "t": 23333.31,
      "d": 666.6660000000011,
      "v": 127
    },
    {
      "midi": 67,
      "hit": false,
      "t": 23333.31,
      "d": 666.6660000000011,
      "v": 127
    },
    {
      "midi": 79,
      "hit": false,
      "t": 23666.642999999982,
      "d": 333.3329999999987,
      "v": 127
    },
    {
      "midi": 71,
      "hit": false,
      "t": 23999.97599999998,
      "d": 333.3329999999987,
      "v": 127
    },
    {
      "midi": 79,
      "hit": false,
      "t": 23999.97599999998,
      "d": 333.3329999999987,
      "v": 127
    },
    {
      "midi": 62,
      "hit": false,
      "t": 23999.976000000002,
      "d": 666.6660000000011,
      "v": 127
    },
    {
      "midi": 67,
      "hit": false,
      "t": 24333.30899999998,
      "d": 333.3329999999987,
      "v": 127
    },
    {
      "midi": 71,
      "hit": false,
      "t": 24333.30899999998,
      "d": 333.3329999999987,
      "v": 127
    },
    {
      "midi": 50,
      "hit": false,
      "t": 24666.642000000003,
      "d": 666.6660000000011,
      "v": 127
    },
    {
      "midi": 67,
      "hit": false,
      "t": 24999.974999999977,
      "d": 333.3329999999987,
      "v": 127
    },
    {
      "midi": 71,
      "hit": false,
      "t": 24999.974999999977,
      "d": 333.3329999999987,
      "v": 127
    },
    {
      "midi": 67,
      "hit": false,
      "t": 25333.307999999975,
      "d": 333.3329999999987,
      "v": 127
    },
    {
      "midi": 71,
      "hit": false,
      "t": 25333.307999999975,
      "d": 333.3329999999987,
      "v": 127
    },
    {
      "midi": 51,
      "hit": false,
      "t": 25333.308000000005,
      "d": 666.6660000000011,
      "v": 127
    },
    {
      "midi": 59,
      "hit": false,
      "t": 25666.640999999974,
      "d": 333.3329999999987,
      "v": 127
    },
    {
      "midi": 67,
      "hit": false,
      "t": 25666.640999999974,
      "d": 333.3329999999987,
      "v": 127
    },
    {
      "midi": 59,
      "hit": false,
      "t": 25999.973999999973,
      "d": 333.3329999999987,
      "v": 127
    },
    {
      "midi": 67,
      "hit": false,
      "t": 25999.973999999973,
      "d": 333.3329999999987,
      "v": 127
    },
    {
      "midi": 52,
      "hit": false,
      "t": 25999.974000000006,
      "d": 1333.3319999999985,
      "v": 127
    },
    {
      "midi": 55,
      "hit": false,
      "t": 26333.30699999997,
      "d": 333.3329999999987,
      "v": 127
    },
    {
      "midi": 64,
      "hit": false,
      "t": 26333.30699999997,
      "d": 333.3329999999987,
      "v": 127
    },
    {
      "midi": 55,
      "hit": false,
      "t": 26666.63999999997,
      "d": 333.3329999999987,
      "v": 127
    },
    {
      "midi": 67,
      "hit": false,
      "t": 26999.97299999997,
      "d": 333.3329999999987,
      "v": 127
    },
    {
      "midi": 59,
      "hit": false,
      "t": 27333.305999999968,
      "d": 333.3329999999987,
      "v": 127
    },
    {
      "midi": 67,
      "hit": false,
      "t": 27333.305999999968,
      "d": 333.3329999999987,
      "v": 127
    },
    {
      "midi": 47,
      "hit": false,
      "t": 27333.306000000004,
      "d": 666.6660000000011,
      "v": 127
    },
    {
      "midi": 57,
      "hit": false,
      "t": 27666.638999999966,
      "d": 333.3329999999987,
      "v": 127
    },
    {
      "midi": 66,
      "hit": false,
      "t": 27666.638999999966,
      "d": 333.3329999999987,
      "v": 127
    },
    {
      "midi": 64,
      "hit": false,
      "t": 27999.971999999965,
      "d": 333.3329999999987,
      "v": 127
    },
    {
      "midi": 40,
      "hit": false,
      "t": 27999.972000000005,
      "d": 666.6660000000011,
      "v": 127
    },
    {
      "midi": 52,
      "hit": false,
      "t": 27999.972000000005,
      "d": 666.6660000000011,
      "v": 127
    },
    {
      "midi": 67,
      "hit": false,
      "t": 28333.304999999964,
      "d": 333.3329999999987,
      "v": 127
    },
    {
      "midi": 71,
      "hit": false,
      "t": 28666.637999999963,
      "d": 333.3329999999987,
      "v": 127
    },
    {
      "midi": 76,
      "hit": false,
      "t": 28999.97099999996,
      "d": 333.3329999999987,
      "v": 127
    },
    {
      "midi": 76,
      "hit": false,
      "t": 29333.30399999996,
      "d": 333.3329999999987,
      "v": 127
    },
    {
      "midi": 55,
      "hit": false,
      "t": 29333.304000000007,
      "d": 666.6660000000011,
      "v": 127
    },
    {
      "midi": 65,
      "hit": false,
      "t": 29333.304000000007,
      "d": 666.6660000000011,
      "v": 127
    },
    {
      "midi": 74,
      "hit": false,
      "t": 29666.63699999996,
      "d": 333.3329999999987,
      "v": 127
    },
    {
      "midi": 73,
      "hit": false,
      "t": 29999.969999999958,
      "d": 333.3329999999987,
      "v": 127
    },
    {
      "midi": 56,
      "hit": false,
      "t": 29999.97000000001,
      "d": 1333.3319999999985,
      "v": 127
    },
    {
      "midi": 65,
      "hit": false,
      "t": 29999.97000000001,
      "d": 1333.3319999999985,
      "v": 127
    },
    {
      "midi": 74,
      "hit": false,
      "t": 30333.302999999956,
      "d": 333.3329999999987,
      "v": 127
    },
    {
      "midi": 74,
      "hit": false,
      "t": 30666.635999999955,
      "d": 333.3329999999987,
      "v": 127
    },
    {
      "midi": 76,
      "hit": false,
      "t": 30999.968999999954,
      "d": 333.3329999999987,
      "v": 127
    },
    {
      "midi": 77,
      "hit": false,
      "t": 31333.301999999952,
      "d": 333.3329999999987,
      "v": 127
    },
    {
      "midi": 55,
      "hit": false,
      "t": 31333.302000000007,
      "d": 666.6660000000011,
      "v": 127
    },
    {
      "midi": 65,
      "hit": false,
      "t": 31333.302000000007,
      "d": 666.6660000000011,
      "v": 127
    },
    {
      "midi": 74,
      "hit": false,
      "t": 31666.63499999995,
      "d": 333.3329999999987,
      "v": 127
    },
    {
      "midi": 79,
      "hit": false,
      "t": 31999.96799999995,
      "d": 333.3329999999987,
      "v": 127
    },
    {
      "midi": 54,
      "hit": false,
      "t": 31999.968000000008,
      "d": 1333.3320000000022,
      "v": 127
    },
    {
      "midi": 66,
      "hit": false,
      "t": 31999.968000000008,
      "d": 1333.3320000000022,
      "v": 127
    },
    {
      "midi": 78,
      "hit": false,
      "t": 32333.30099999995,
      "d": 333.3329999999987,
      "v": 127
    },
    {
      "midi": 74,
      "hit": false,
      "t": 32666.633999999947,
      "d": 333.3329999999987,
      "v": 127
    },
    {
      "midi": 78,
      "hit": false,
      "t": 32999.966999999946,
      "d": 333.3329999999987,
      "v": 127
    },
    {
      "midi": 79,
      "hit": false,
      "t": 33333.299999999945,
      "d": 333.3329999999987,
      "v": 127
    },
    {
      "midi": 53,
      "hit": false,
      "t": 33333.30000000001,
      "d": 666.6659999999974,
      "v": 127
    },
    {
      "midi": 65,
      "hit": false,
      "t": 33333.30000000001,
      "d": 666.6659999999974,
      "v": 127
    },
    {
      "midi": 78,
      "hit": false,
      "t": 33666.63299999994,
      "d": 333.3329999999987,
      "v": 127
    },
    {
      "midi": 81,
      "hit": false,
      "t": 33999.96599999994,
      "d": 333.3329999999987,
      "v": 127
    },
    {
      "midi": 52,
      "hit": false,
      "t": 33999.96600000001,
      "d": 1333.3320000000022,
      "v": 127
    },
    {
      "midi": 64,
      "hit": false,
      "t": 33999.96600000001,
      "d": 1333.3320000000022,
      "v": 127
    },
    {
      "midi": 80,
      "hit": false,
      "t": 34333.29899999994,
      "d": 333.3329999999987,
      "v": 127
    },
    {
      "midi": 80,
      "hit": false,
      "t": 34999.96499999994,
      "d": 333.3329999999987,
      "v": 127
    },
    {
      "midi": 81,
      "hit": false,
      "t": 35333.29799999994,
      "d": 333.3329999999987,
      "v": 127
    },
    {
      "midi": 52,
      "hit": false,
      "t": 35333.29800000001,
      "d": 666.6659999999974,
      "v": 127
    },
    {
      "midi": 64,
      "hit": false,
      "t": 35333.29800000001,
      "d": 666.6659999999974,
      "v": 127
    },
    {
      "midi": 80,
      "hit": false,
      "t": 35666.630999999936,
      "d": 333.3329999999987,
      "v": 127
    },
    {
      "midi": 83,
      "hit": false,
      "t": 35999.963999999934,
      "d": 333.3329999999987,
      "v": 127
    },
    {
      "midi": 51,
      "hit": false,
      "t": 35999.96400000001,
      "d": 666.6659999999974,
      "v": 127
    },
    {
      "midi": 63,
      "hit": false,
      "t": 35999.96400000001,
      "d": 666.6659999999974,
      "v": 127
    },
    {
      "midi": 80,
      "hit": false,
      "t": 36333.29699999993,
      "d": 333.3329999999987,
      "v": 127
    },
    {
      "midi": 80,
      "hit": false,
      "t": 36666.62999999993,
      "d": 333.3329999999987,
      "v": 127
    },
    {
      "midi": 47,
      "hit": false,
      "t": 36666.630000000005,
      "d": 1333.3320000000022,
      "v": 127
    },
    {
      "midi": 59,
      "hit": false,
      "t": 36666.630000000005,
      "d": 1333.3320000000022,
      "v": 127
    },
    {
      "midi": 75,
      "hit": false,
      "t": 36999.96299999993,
      "d": 333.3329999999987,
      "v": 127
    },
    {
      "midi": 71,
      "hit": false,
      "t": 37333.29599999993,
      "d": 666.6659999999974,
      "v": 127
    },
    {
      "midi": 68,
      "hit": false,
      "t": 37999.96199999993,
      "d": 333.3329999999987,
      "v": 127
    },
    {
      "midi": 47,
      "hit": false,
      "t": 37999.96200000001,
      "d": 1333.3320000000022,
      "v": 127
    },
    {
      "midi": 59,
      "hit": false,
      "t": 38333.294999999925,
      "d": 333.3329999999987,
      "v": 127
    },
    {
      "midi": 71,
      "hit": false,
      "t": 38666.627999999924,
      "d": 333.3329999999987,
      "v": 127
    },
    {
      "midi": 67,
      "hit": false,
      "t": 38999.96099999992,
      "d": 333.3329999999987,
      "v": 127
    },
    {
      "midi": 59,
      "hit": false,
      "t": 39333.29399999992,
      "d": 333.3329999999987,
      "v": 127
    },
    {
      "midi": 67,
      "hit": false,
      "t": 39333.29399999992,
      "d": 333.3329999999987,
      "v": 127
    },
    {
      "midi": 35,
      "hit": false,
      "t": 39333.29400000001,
      "d": 666.6659999999974,
      "v": 127
    },
    {
      "midi": 47,
      "hit": false,
      "t": 39333.29400000001,
      "d": 666.6659999999974,
      "v": 127
    },
    {
      "midi": 57,
      "hit": false,
      "t": 39666.62699999992,
      "d": 333.3329999999987,
      "v": 127
    },
    {
      "midi": 66,
      "hit": false,
      "t": 39666.62699999992,
      "d": 333.3329999999987,
      "v": 127
    },
    {
      "midi": 63,
      "hit": false,
      "t": 39999.95999999992,
      "d": 333.3329999999987,
      "v": 127
    },
    {
      "midi": 40,
      "hit": false,
      "t": 39999.96000000001,
      "d": 666.6659999999974,
      "v": 127
    },
    {
      "midi": 52,
      "hit": false,
      "t": 39999.96000000001,
      "d": 666.6659999999974,
      "v": 127
    },
    {
      "midi": 64,
      "hit": false,
      "t": 40333.29299999992,
      "d": 333.3329999999987,
      "v": 127
    },
    {
      "midi": 67,
      "hit": false,
      "t": 40666.62599999992,
      "d": 333.3329999999987,
      "v": 127
    },
    {
      "midi": 59,
      "hit": false,
      "t": 40999.958999999915,
      "d": 333.3329999999987,
      "v": 127
    },
    {
      "midi": 64,
      "hit": false,
      "t": 40999.958999999915,
      "d": 333.3329999999987,
      "v": 127
    },
    {
      "midi": 71,
      "hit": false,
      "t": 40999.958999999915,
      "d": 333.3329999999987,
      "v": 127
    },
    {
      "midi": 43,
      "hit": false,
      "t": 40999.959,
      "d": 333.3329999999987,
      "v": 127
    },
    {
      "midi": 55,
      "hit": false,
      "t": 40999.959,
      "d": 333.3329999999987,
      "v": 127
    },
    {
      "midi": 59,
      "hit": false,
      "t": 41333.291999999914,
      "d": 333.3329999999987,
      "v": 127
    },
    {
      "midi": 64,
      "hit": false,
      "t": 41333.291999999914,
      "d": 333.3329999999987,
      "v": 127
    },
    {
      "midi": 71,
      "hit": false,
      "t": 41333.291999999914,
      "d": 333.3329999999987,
      "v": 127
    },
    {
      "midi": 43,
      "hit": false,
      "t": 41333.292,
      "d": 333.3329999999987,
      "v": 127
    },
    {
      "midi": 55,
      "hit": false,
      "t": 41333.292,
      "d": 333.3329999999987,
      "v": 127
    },
    {
      "midi": 59,
      "hit": false,
      "t": 41666.62499999991,
      "d": 333.3329999999987,
      "v": 127
    },
    {
      "midi": 64,
      "hit": false,
      "t": 41666.62499999991,
      "d": 333.3329999999987,
      "v": 127
    },
    {
      "midi": 71,
      "hit": false,
      "t": 41666.62499999991,
      "d": 333.3329999999987,
      "v": 127
    },
    {
      "midi": 43,
      "hit": false,
      "t": 41666.625,
      "d": 333.3329999999987,
      "v": 127
    },
    {
      "midi": 55,
      "hit": false,
      "t": 41666.625,
      "d": 333.3329999999987,
      "v": 127
    },
    {
      "midi": 71,
      "hit": false,
      "t": 41999.95799999991,
      "d": 333.3329999999987,
      "v": 127
    },
    {
      "midi": 44,
      "hit": false,
      "t": 41999.958,
      "d": 999.9990000000034,
      "v": 127
    },
    {
      "midi": 56,
      "hit": false,
      "t": 41999.958,
      "d": 999.9990000000034,
      "v": 127
    },
    {
      "midi": 73,
      "hit": false,
      "t": 42333.29099999991,
      "d": 333.3329999999987,
      "v": 127
    },
    {
      "midi": 74,
      "hit": false,
      "t": 42666.62399999991,
      "d": 333.3329999999987,
      "v": 127
    },
    {
      "midi": 62,
      "hit": false,
      "t": 42999.95699999991,
      "d": 333.3329999999987,
      "v": 127
    },
    {
      "midi": 65,
      "hit": false,
      "t": 42999.95699999991,
      "d": 333.3329999999987,
      "v": 127
    },
    {
      "midi": 71,
      "hit": false,
      "t": 42999.95699999991,
      "d": 333.3329999999987,
      "v": 127
    },
    {
      "midi": 44,
      "hit": false,
      "t": 42999.957,
      "d": 333.3329999999987,
      "v": 127
    },
    {
      "midi": 53,
      "hit": false,
      "t": 42999.957,
      "d": 333.3329999999987,
      "v": 127
    },
    {
      "midi": 56,
      "hit": false,
      "t": 42999.957,
      "d": 333.3329999999987,
      "v": 127
    },
    {
      "midi": 62,
      "hit": false,
      "t": 43333.289999999906,
      "d": 333.3329999999987,
      "v": 127
    },
    {
      "midi": 65,
      "hit": false,
      "t": 43333.289999999906,
      "d": 333.3329999999987,
      "v": 127
    },
    {
      "midi": 71,
      "hit": false,
      "t": 43333.289999999906,
      "d": 333.3329999999987,
      "v": 127
    },
    {
      "midi": 44,
      "hit": false,
      "t": 43333.29,
      "d": 333.3329999999987,
      "v": 127
    },
    {
      "midi": 53,
      "hit": false,
      "t": 43333.29,
      "d": 333.3329999999987,
      "v": 127
    },
    {
      "midi": 56,
      "hit": false,
      "t": 43333.29,
      "d": 333.3329999999987,
      "v": 127
    },
    {
      "midi": 62,
      "hit": false,
      "t": 43666.622999999905,
      "d": 333.3329999999987,
      "v": 127
    },
    {
      "midi": 65,
      "hit": false,
      "t": 43666.622999999905,
      "d": 333.3329999999987,
      "v": 127
    },
    {
      "midi": 71,
      "hit": false,
      "t": 43666.622999999905,
      "d": 333.3329999999987,
      "v": 127
    },
    {
      "midi": 44,
      "hit": false,
      "t": 43666.623,
      "d": 333.3329999999987,
      "v": 127
    },
    {
      "midi": 53,
      "hit": false,
      "t": 43666.623,
      "d": 333.3329999999987,
      "v": 127
    },
    {
      "midi": 56,
      "hit": false,
      "t": 43666.623,
      "d": 333.3329999999987,
      "v": 127
    },
    {
      "midi": 71,
      "hit": false,
      "t": 43999.955999999904,
      "d": 333.3329999999987,
      "v": 127
    },
    {
      "midi": 45,
      "hit": false,
      "t": 43999.956,
      "d": 999.9990000000034,
      "v": 127
    },
    {
      "midi": 54,
      "hit": false,
      "t": 43999.956,
      "d": 999.9990000000034,
      "v": 127
    },
    {
      "midi": 57,
      "hit": false,
      "t": 43999.956,
      "d": 999.9990000000034,
      "v": 127
    },
    {
      "midi": 73,
      "hit": false,
      "t": 44333.2889999999,
      "d": 333.3329999999987,
      "v": 127
    },
    {
      "midi": 75,
      "hit": false,
      "t": 44666.6219999999,
      "d": 333.3329999999987,
      "v": 127
    },
    {
      "midi": 63,
      "hit": false,
      "t": 44999.9549999999,
      "d": 333.3329999999987,
      "v": 127
    },
    {
      "midi": 66,
      "hit": false,
      "t": 44999.9549999999,
      "d": 333.3329999999987,
      "v": 127
    },
    {
      "midi": 71,
      "hit": false,
      "t": 44999.9549999999,
      "d": 333.3329999999987,
      "v": 127
    },
    {
      "midi": 45,
      "hit": false,
      "t": 44999.955,
      "d": 333.3329999999987,
      "v": 127
    },
    {
      "midi": 54,
      "hit": false,
      "t": 44999.955,
      "d": 333.3329999999987,
      "v": 127
    },
    {
      "midi": 57,
      "hit": false,
      "t": 44999.955,
      "d": 333.3329999999987,
      "v": 127
    },
    {
      "midi": 63,
      "hit": false,
      "t": 45333.2879999999,
      "d": 333.3329999999987,
      "v": 127
    },
    {
      "midi": 66,
      "hit": false,
      "t": 45333.2879999999,
      "d": 333.3329999999987,
      "v": 127
    },
    {
      "midi": 71,
      "hit": false,
      "t": 45333.2879999999,
      "d": 333.3329999999987,
      "v": 127
    },
    {
      "midi": 45,
      "hit": false,
      "t": 45333.288,
      "d": 333.3329999999987,
      "v": 127
    },
    {
      "midi": 54,
      "hit": false,
      "t": 45333.288,
      "d": 333.3329999999987,
      "v": 127
    },
    {
      "midi": 57,
      "hit": false,
      "t": 45333.288,
      "d": 333.3329999999987,
      "v": 127
    },
    {
      "midi": 63,
      "hit": false,
      "t": 45666.6209999999,
      "d": 333.3329999999987,
      "v": 127
    },
    {
      "midi": 66,
      "hit": false,
      "t": 45666.6209999999,
      "d": 333.3329999999987,
      "v": 127
    },
    {
      "midi": 71,
      "hit": false,
      "t": 45666.6209999999,
      "d": 333.3329999999987,
      "v": 127
    },
    {
      "midi": 45,
      "hit": false,
      "t": 45666.621,
      "d": 333.3329999999987,
      "v": 127
    },
    {
      "midi": 54,
      "hit": false,
      "t": 45666.621,
      "d": 333.3329999999987,
      "v": 127
    },
    {
      "midi": 57,
      "hit": false,
      "t": 45666.621,
      "d": 333.3329999999987,
      "v": 127
    },
    {
      "midi": 71,
      "hit": false,
      "t": 45999.953999999896,
      "d": 333.3329999999987,
      "v": 127
    },
    {
      "midi": 46,
      "hit": false,
      "t": 45999.954,
      "d": 1999.9979999999996,
      "v": 127
    },
    {
      "midi": 53,
      "hit": false,
      "t": 45999.954,
      "d": 1999.9979999999996,
      "v": 127
    },
    {
      "midi": 56,
      "hit": false,
      "t": 45999.954,
      "d": 1999.9979999999996,
      "v": 127
    },
    {
      "midi": 68,
      "hit": false,
      "t": 46333.286999999895,
      "d": 333.3329999999987,
      "v": 127
    },
    {
      "midi": 65,
      "hit": false,
      "t": 46666.61999999989,
      "d": 333.3329999999987,
      "v": 127
    },
    {
      "midi": 62,
      "hit": false,
      "t": 46999.95299999989,
      "d": 333.3329999999987,
      "v": 127
    },
    {
      "midi": 66,
      "hit": false,
      "t": 47333.28599999989,
      "d": 333.3329999999987,
      "v": 127
    },
    {
      "midi": 68,
      "hit": false,
      "t": 47666.61899999989,
      "d": 333.3329999999987,
      "v": 127
    },
    {
      "midi": 71,
      "hit": false,
      "t": 47999.95199999989,
      "d": 333.3329999999987,
      "v": 127
    },
    {
      "midi": 74,
      "hit": false,
      "t": 48333.28499999989,
      "d": 333.3329999999987,
      "v": 127
    },
    {
      "midi": 77,
      "hit": false,
      "t": 48666.617999999886,
      "d": 333.3329999999987,
      "v": 127
    },
    {
      "midi": 80,
      "hit": false,
      "t": 48999.950999999885,
      "d": 333.3329999999987,
      "v": 127
    },
    {
      "midi": 83,
      "hit": false,
      "t": 49333.28399999988,
      "d": 333.3329999999987,
      "v": 127
    },
    {
      "midi": 80,
      "hit": false,
      "t": 49666.61699999988,
      "d": 333.3329999999987,
      "v": 127
    },
    {
      "midi": 83,
      "hit": false,
      "t": 49999.94999999988,
      "d": 1333.3320000000022,
      "v": 127
    },
    {
      "midi": 63,
      "hit": false,
      "t": 51999.94799999988,
      "d": 666.6659999999974,
      "v": 127
    },
    {
      "midi": 68,
      "hit": false,
      "t": 51999.94799999988,
      "d": 666.6659999999974,
      "v": 127
    },
    {
      "midi": 71,
      "hit": false,
      "t": 51999.94799999988,
      "d": 666.6659999999974,
      "v": 127
    },
    {
      "midi": 51,
      "hit": false,
      "t": 51999.948,
      "d": 666.6659999999974,
      "v": 127
    },
    {
      "midi": 63,
      "hit": false,
      "t": 52666.61399999988,
      "d": 666.6659999999974,
      "v": 127
    },
    {
      "midi": 68,
      "hit": false,
      "t": 52666.61399999988,
      "d": 666.6659999999974,
      "v": 127
    },
    {
      "midi": 71,
      "hit": false,
      "t": 52666.61399999988,
      "d": 666.6659999999974,
      "v": 127
    },
    {
      "midi": 51,
      "hit": false,
      "t": 52666.613999999994,
      "d": 666.6659999999974,
      "v": 127
    },
    {
      "midi": 63,
      "hit": false,
      "t": 53333.279999999875,
      "d": 666.6659999999974,
      "v": 127
    },
    {
      "midi": 68,
      "hit": false,
      "t": 53333.279999999875,
      "d": 666.6659999999974,
      "v": 127
    },
    {
      "midi": 71,
      "hit": false,
      "t": 53333.279999999875,
      "d": 666.6659999999974,
      "v": 127
    },
    {
      "midi": 51,
      "hit": false,
      "t": 53333.27999999999,
      "d": 666.6659999999974,
      "v": 127
    },
    {
      "midi": 71,
      "hit": false,
      "t": 53999.94599999987,
      "d": 333.3329999999987,
      "v": 127
    },
    {
      "midi": 47,
      "hit": false,
      "t": 53999.94599999999,
      "d": 999.9990000000034,
      "v": 127
    },
    {
      "midi": 57,
      "hit": false,
      "t": 53999.94599999999,
      "d": 999.9990000000034,
      "v": 127
    },
    {
      "midi": 66,
      "hit": false,
      "t": 54333.27899999987,
      "d": 333.3329999999987,
      "v": 127
    },
    {
      "midi": 63,
      "hit": false,
      "t": 54999.94499999987,
      "d": 333.3329999999987,
      "v": 127
    },
    {
      "midi": 68,
      "hit": false,
      "t": 54999.94499999987,
      "d": 333.3329999999987,
      "v": 127
    },
    {
      "midi": 71,
      "hit": false,
      "t": 54999.94499999987,
      "d": 333.3329999999987,
      "v": 127
    },
    {
      "midi": 47,
      "hit": false,
      "t": 54999.94499999999,
      "d": 333.3329999999987,
      "v": 127
    },
    {
      "midi": 59,
      "hit": false,
      "t": 54999.94499999999,
      "d": 333.3329999999987,
      "v": 127
    },
    {
      "midi": 63,
      "hit": false,
      "t": 55333.27799999987,
      "d": 333.3329999999987,
      "v": 127
    },
    {
      "midi": 68,
      "hit": false,
      "t": 55333.27799999987,
      "d": 333.3329999999987,
      "v": 127
    },
    {
      "midi": 71,
      "hit": false,
      "t": 55333.27799999987,
      "d": 333.3329999999987,
      "v": 127
    },
    {
      "midi": 47,
      "hit": false,
      "t": 55333.27799999999,
      "d": 333.3329999999987,
      "v": 127
    },
    {
      "midi": 59,
      "hit": false,
      "t": 55333.27799999999,
      "d": 333.3329999999987,
      "v": 127
    },
    {
      "midi": 63,
      "hit": false,
      "t": 55666.610999999866,
      "d": 333.3329999999987,
      "v": 127
    },
    {
      "midi": 68,
      "hit": false,
      "t": 55666.610999999866,
      "d": 333.3329999999987,
      "v": 127
    },
    {
      "midi": 71,
      "hit": false,
      "t": 55666.610999999866,
      "d": 333.3329999999987,
      "v": 127
    },
    {
      "midi": 47,
      "hit": false,
      "t": 55666.61099999999,
      "d": 333.3329999999987,
      "v": 127
    },
    {
      "midi": 59,
      "hit": false,
      "t": 55666.61099999999,
      "d": 333.3329999999987,
      "v": 127
    },
    {
      "midi": 71,
      "hit": false,
      "t": 55999.943999999865,
      "d": 333.3329999999987,
      "v": 127
    },
    {
      "midi": 40,
      "hit": false,
      "t": 55999.94399999999,
      "d": 999.9990000000034,
      "v": 127
    },
    {
      "midi": 47,
      "hit": false,
      "t": 55999.94399999999,
      "d": 999.9990000000034,
      "v": 127
    },
    {
      "midi": 56,
      "hit": false,
      "t": 55999.94399999999,
      "d": 999.9990000000034,
      "v": 127
    },
    {
      "midi": 73,
      "hit": false,
      "t": 56333.27699999986,
      "d": 333.3329999999987,
      "v": 127
    },
    {
      "midi": 71,
      "hit": false,
      "t": 56666.60999999986,
      "d": 333.3329999999987,
      "v": 127
    },
    {
      "midi": 59,
      "hit": false,
      "t": 56999.94299999986,
      "d": 333.3329999999987,
      "v": 127
    },
    {
      "midi": 64,
      "hit": false,
      "t": 56999.94299999986,
      "d": 333.3329999999987,
      "v": 127
    },
    {
      "midi": 71,
      "hit": false,
      "t": 56999.94299999986,
      "d": 333.3329999999987,
      "v": 127
    },
    {
      "midi": 40,
      "hit": false,
      "t": 56999.94299999999,
      "d": 333.3329999999987,
      "v": 127
    },
    {
      "midi": 47,
      "hit": false,
      "t": 56999.94299999999,
      "d": 333.3329999999987,
      "v": 127
    },
    {
      "midi": 56,
      "hit": false,
      "t": 56999.94299999999,
      "d": 333.3329999999987,
      "v": 127
    },
    {
      "midi": 59,
      "hit": false,
      "t": 57333.27599999986,
      "d": 333.3329999999987,
      "v": 127
    },
    {
      "midi": 64,
      "hit": false,
      "t": 57333.27599999986,
      "d": 333.3329999999987,
      "v": 127
    },
    {
      "midi": 71,
      "hit": false,
      "t": 57333.27599999986,
      "d": 333.3329999999987,
      "v": 127
    },
    {
      "midi": 40,
      "hit": false,
      "t": 57333.27599999999,
      "d": 333.3329999999987,
      "v": 127
    },
    {
      "midi": 47,
      "hit": false,
      "t": 57333.27599999999,
      "d": 333.3329999999987,
      "v": 127
    },
    {
      "midi": 56,
      "hit": false,
      "t": 57333.27599999999,
      "d": 333.3329999999987,
      "v": 127
    },
    {
      "midi": 59,
      "hit": false,
      "t": 57666.60899999986,
      "d": 333.3329999999987,
      "v": 127
    },
    {
      "midi": 64,
      "hit": false,
      "t": 57666.60899999986,
      "d": 333.3329999999987,
      "v": 127
    },
    {
      "midi": 71,
      "hit": false,
      "t": 57666.60899999986,
      "d": 333.3329999999987,
      "v": 127
    },
    {
      "midi": 40,
      "hit": false,
      "t": 57666.60899999999,
      "d": 333.3329999999987,
      "v": 127
    },
    {
      "midi": 47,
      "hit": false,
      "t": 57666.60899999999,
      "d": 333.3329999999987,
      "v": 127
    },
    {
      "midi": 56,
      "hit": false,
      "t": 57666.60899999999,
      "d": 333.3329999999987,
      "v": 127
    },
    {
      "midi": 71,
      "hit": false,
      "t": 57999.94199999986,
      "d": 333.3329999999987,
      "v": 127
    },
    {
      "midi": 39,
      "hit": false,
      "t": 57999.94199999999,
      "d": 1333.3320000000022,
      "v": 127
    },
    {
      "midi": 51,
      "hit": false,
      "t": 57999.94199999999,
      "d": 1333.3320000000022,
      "v": 127
    },
    {
      "midi": 73,
      "hit": false,
      "t": 58333.274999999856,
      "d": 333.3329999999987,
      "v": 127
    },
    {
      "midi": 75,
      "hit": false,
      "t": 58666.607999999855,
      "d": 333.3329999999987,
      "v": 127
    },
    {
      "midi": 71,
      "hit": false,
      "t": 58999.94099999985,
      "d": 333.3329999999987,
      "v": 127
    },
    {
      "midi": 63,
      "hit": false,
      "t": 59333.27399999985,
      "d": 333.3329999999987,
      "v": 127
    },
    {
      "midi": 68,
      "hit": false,
      "t": 59333.27399999985,
      "d": 333.3329999999987,
      "v": 127
    },
    {
      "midi": 71,
      "hit": false,
      "t": 59333.27399999985,
      "d": 333.3329999999987,
      "v": 127
    },
    {
      "midi": 47,
      "hit": false,
      "t": 59333.27399999999,
      "d": 333.3329999999987,
      "v": 127
    },
    {
      "midi": 57,
      "hit": false,
      "t": 59333.27399999999,
      "d": 333.3329999999987,
      "v": 127
    },
    {
      "midi": 63,
      "hit": false,
      "t": 59666.60699999985,
      "d": 333.3329999999987,
      "v": 127
    },
    {
      "midi": 66,
      "hit": false,
      "t": 59666.60699999985,
      "d": 333.3329999999987,
      "v": 127
    },
    {
      "midi": 71,
      "hit": false,
      "t": 59666.60699999985,
      "d": 333.3329999999987,
      "v": 127
    },
    {
      "midi": 47,
      "hit": false,
      "t": 59666.60699999999,
      "d": 333.3329999999987,
      "v": 127
    },
    {
      "midi": 57,
      "hit": false,
      "t": 59666.60699999999,
      "d": 333.3329999999987,
      "v": 127
    },
    {
      "midi": 71,
      "hit": false,
      "t": 59999.93999999985,
      "d": 333.3329999999987,
      "v": 127
    },
    {
      "midi": 40,
      "hit": false,
      "t": 59999.93999999999,
      "d": 1333.3320000000022,
      "v": 127
    },
    {
      "midi": 47,
      "hit": false,
      "t": 59999.93999999999,
      "d": 1333.3320000000022,
      "v": 127
    },
    {
      "midi": 56,
      "hit": false,
      "t": 59999.93999999999,
      "d": 1333.3320000000022,
      "v": 127
    },
    {
      "midi": 73,
      "hit": false,
      "t": 60333.27299999985,
      "d": 333.3329999999987,
      "v": 127
    },
    {
      "midi": 71,
      "hit": false,
      "t": 60666.60599999985,
      "d": 333.3329999999987,
      "v": 127
    },
    {
      "midi": 68,
      "hit": false,
      "t": 60999.938999999846,
      "d": 333.3329999999987,
      "v": 127
    },
    {
      "midi": 71,
      "hit": false,
      "t": 61333.271999999844,
      "d": 333.3329999999987,
      "v": 127
    },
    {
      "midi": 40,
      "hit": false,
      "t": 61333.27199999999,
      "d": 666.6659999999974,
      "v": 127
    },
    {
      "midi": 47,
      "hit": false,
      "t": 61333.27199999999,
      "d": 666.6659999999974,
      "v": 127
    },
    {
      "midi": 56,
      "hit": false,
      "t": 61333.27199999999,
      "d": 666.6659999999974,
      "v": 127
    },
    {
      "midi": 71,
      "hit": false,
      "t": 61666.60499999984,
      "d": 333.3329999999987,
      "v": 127
    },
    {
      "midi": 71,
      "hit": false,
      "t": 61999.93799999984,
      "d": 333.3329999999987,
      "v": 127
    },
    {
      "midi": 40,
      "hit": false,
      "t": 61999.93799999999,
      "d": 1333.3320000000022,
      "v": 127
    },
    {
      "midi": 47,
      "hit": false,
      "t": 61999.93799999999,
      "d": 1333.3320000000022,
      "v": 127
    },
    {
      "midi": 56,
      "hit": false,
      "t": 61999.93799999999,
      "d": 1333.3320000000022,
      "v": 127
    },
    {
      "midi": 73,
      "hit": false,
      "t": 62333.27099999984,
      "d": 333.3329999999987,
      "v": 127
    },
    {
      "midi": 71,
      "hit": false,
      "t": 62666.60399999984,
      "d": 333.3329999999987,
      "v": 127
    },
    {
      "midi": 68,
      "hit": false,
      "t": 62999.93699999984,
      "d": 333.3329999999987,
      "v": 127
    },
    {
      "midi": 71,
      "hit": false,
      "t": 63333.26999999984,
      "d": 333.3329999999987,
      "v": 127
    },
    {
      "midi": 40,
      "hit": false,
      "t": 63333.26999999999,
      "d": 666.6659999999974,
      "v": 127
    },
    {
      "midi": 47,
      "hit": false,
      "t": 63333.26999999999,
      "d": 666.6659999999974,
      "v": 127
    },
    {
      "midi": 56,
      "hit": false,
      "t": 63333.26999999999,
      "d": 666.6659999999974,
      "v": 127
    },
    {
      "midi": 71,
      "hit": false,
      "t": 63666.602999999835,
      "d": 333.3329999999987,
      "v": 127
    },
    {
      "midi": 71,
      "hit": false,
      "t": 63999.935999999834,
      "d": 333.3329999999987,
      "v": 127
    },
    {
      "midi": 40,
      "hit": false,
      "t": 63999.93599999999,
      "d": 1333.3320000000022,
      "v": 127
    },
    {
      "midi": 47,
      "hit": false,
      "t": 63999.93599999999,
      "d": 1333.3320000000022,
      "v": 127
    },
    {
      "midi": 55,
      "hit": false,
      "t": 63999.93599999999,
      "d": 1333.3320000000022,
      "v": 127
    },
    {
      "midi": 72,
      "hit": false,
      "t": 64333.26899999983,
      "d": 333.3329999999987,
      "v": 127
    },
    {
      "midi": 71,
      "hit": false,
      "t": 64666.60199999983,
      "d": 333.3329999999987,
      "v": 127
    },
    {
      "midi": 76,
      "hit": false,
      "t": 64999.93499999983,
      "d": 333.3329999999987,
      "v": 127
    },
    {
      "midi": 78,
      "hit": false,
      "t": 65333.26799999983,
      "d": 333.333000000006,
      "v": 127
    },
    {
      "midi": 61,
      "hit": false,
      "t": 65333.26799999999,
      "d": 666.6660000000047,
      "v": 127
    },
    {
      "midi": 67,
      "hit": false,
      "t": 65333.26799999999,
      "d": 666.6660000000047,
      "v": 127
    },
    {
      "midi": 76,
      "hit": false,
      "t": 65666.60099999984,
      "d": 333.3329999999987,
      "v": 127
    },
    {
      "midi": 76,
      "hit": false,
      "t": 65999.93399999983,
      "d": 333.3329999999987,
      "v": 127
    },
    {
      "midi": 62,
      "hit": false,
      "t": 65999.934,
      "d": 1333.3319999999949,
      "v": 127
    },
    {
      "midi": 67,
      "hit": false,
      "t": 65999.934,
      "d": 1333.3319999999949,
      "v": 127
    },
    {
      "midi": 74,
      "hit": false,
      "t": 66333.26699999983,
      "d": 333.3329999999987,
      "v": 127
    },
    {
      "midi": 71,
      "hit": false,
      "t": 66666.59999999983,
      "d": 333.3329999999987,
      "v": 127
    },
    {
      "midi": 74,
      "hit": false,
      "t": 66999.93299999983,
      "d": 333.3329999999987,
      "v": 127
    },
    {
      "midi": 81,
      "hit": false,
      "t": 67333.26599999983,
      "d": 333.3329999999987,
      "v": 127
    },
    {
      "midi": 64,
      "hit": false,
      "t": 67333.26599999999,
      "d": 666.6659999999974,
      "v": 127
    },
    {
      "midi": 67,
      "hit": false,
      "t": 67333.26599999999,
      "d": 666.6659999999974,
      "v": 127
    },
    {
      "midi": 79,
      "hit": false,
      "t": 67666.59899999983,
      "d": 333.3329999999987,
      "v": 127
    },
    {
      "midi": 79,
      "hit": false,
      "t": 67999.93199999983,
      "d": 333.3329999999987,
      "v": 127
    },
    {
      "midi": 67,
      "hit": false,
      "t": 67999.93199999999,
      "d": 666.6659999999974,
      "v": 127
    },
    {
      "midi": 78,
      "hit": false,
      "t": 68333.26499999982,
      "d": 333.3329999999987,
      "v": 127
    },
    {
      "midi": 71,
      "hit": false,
      "t": 68666.59799999982,
      "d": 333.3329999999987,
      "v": 127
    },
    {
      "midi": 69,
      "hit": false,
      "t": 68666.59799999998,
      "d": 666.6659999999974,
      "v": 127
    },
    {
      "midi": 81,
      "hit": false,
      "t": 68999.93099999982,
      "d": 333.3329999999987,
      "v": 127
    },
    {
      "midi": 81,
      "hit": false,
      "t": 69333.26399999982,
      "d": 333.3329999999987,
      "v": 127
    },
    {
      "midi": 64,
      "hit": false,
      "t": 69333.26399999998,
      "d": 666.6659999999974,
      "v": 127
    },
    {
      "midi": 67,
      "hit": false,
      "t": 69333.26399999998,
      "d": 666.6659999999974,
      "v": 127
    },
    {
      "midi": 79,
      "hit": false,
      "t": 69666.59699999982,
      "d": 333.3329999999987,
      "v": 127
    },
    {
      "midi": 79,
      "hit": false,
      "t": 69999.92999999982,
      "d": 333.3329999999987,
      "v": 127
    },
    {
      "midi": 63,
      "hit": false,
      "t": 69999.92999999998,
      "d": 666.6659999999974,
      "v": 127
    },
    {
      "midi": 69,
      "hit": false,
      "t": 69999.92999999998,
      "d": 666.6659999999974,
      "v": 127
    },
    {
      "midi": 78,
      "hit": false,
      "t": 70333.26299999982,
      "d": 333.3329999999987,
      "v": 127
    },
    {
      "midi": 78,
      "hit": false,
      "t": 70666.59599999982,
      "d": 333.3329999999987,
      "v": 127
    },
    {
      "midi": 64,
      "hit": false,
      "t": 70666.59599999998,
      "d": 666.6659999999974,
      "v": 127
    },
    {
      "midi": 67,
      "hit": false,
      "t": 70666.59599999998,
      "d": 666.6659999999974,
      "v": 127
    },
    {
      "midi": 76,
      "hit": false,
      "t": 70999.92899999981,
      "d": 333.3329999999987,
      "v": 127
    },
    {
      "midi": 78,
      "hit": false,
      "t": 71333.26199999981,
      "d": 333.3329999999987,
      "v": 127
    },
    {
      "midi": 61,
      "hit": false,
      "t": 71333.26199999997,
      "d": 666.6659999999974,
      "v": 127
    },
    {
      "midi": 67,
      "hit": false,
      "t": 71333.26199999997,
      "d": 666.6659999999974,
      "v": 127
    },
    {
      "midi": 79,
      "hit": false,
      "t": 71666.59499999981,
      "d": 333.3329999999987,
      "v": 127
    },
    {
      "midi": 71,
      "hit": false,
      "t": 71999.92799999981,
      "d": 333.3329999999987,
      "v": 127
    },
    {
      "midi": 79,
      "hit": false,
      "t": 71999.92799999981,
      "d": 333.3329999999987,
      "v": 127
    },
    {
      "midi": 62,
      "hit": false,
      "t": 71999.92799999997,
      "d": 666.6659999999974,
      "v": 127
    },
    {
      "midi": 67,
      "hit": false,
      "t": 72333.26099999981,
      "d": 333.3329999999987,
      "v": 127
    },
    {
      "midi": 71,
      "hit": false,
      "t": 72333.26099999981,
      "d": 333.3329999999987,
      "v": 127
    },
    {
      "midi": 50,
      "hit": false,
      "t": 72666.59399999997,
      "d": 666.6659999999974,
      "v": 127
    },
    {
      "midi": 67,
      "hit": false,
      "t": 72999.9269999998,
      "d": 333.3329999999987,
      "v": 127
    },
    {
      "midi": 71,
      "hit": false,
      "t": 72999.9269999998,
      "d": 333.3329999999987,
      "v": 127
    },
    {
      "midi": 67,
      "hit": false,
      "t": 73333.2599999998,
      "d": 333.3329999999987,
      "v": 127
    },
    {
      "midi": 71,
      "hit": false,
      "t": 73333.2599999998,
      "d": 333.3329999999987,
      "v": 127
    },
    {
      "midi": 51,
      "hit": false,
      "t": 73333.25999999997,
      "d": 666.6659999999974,
      "v": 127
    },
    {
      "midi": 59,
      "hit": false,
      "t": 73666.5929999998,
      "d": 333.3329999999987,
      "v": 127
    },
    {
      "midi": 67,
      "hit": false,
      "t": 73666.5929999998,
      "d": 333.3329999999987,
      "v": 127
    },
    {
      "midi": 67,
      "hit": false,
      "t": 73999.9259999998,
      "d": 333.3329999999987,
      "v": 127
    },
    {
      "midi": 52,
      "hit": false,
      "t": 73999.92599999996,
      "d": 1333.3319999999949,
      "v": 127
    },
    {
      "midi": 64,
      "hit": false,
      "t": 74333.2589999998,
      "d": 333.3329999999987,
      "v": 127
    },
    {
      "midi": 59,
      "hit": false,
      "t": 74666.5919999998,
      "d": 333.3329999999987,
      "v": 127
    },
    {
      "midi": 64,
      "hit": false,
      "t": 74999.9249999998,
      "d": 333.3329999999987,
      "v": 127
    },
    {
      "midi": 67,
      "hit": false,
      "t": 75333.2579999998,
      "d": 333.3329999999987,
      "v": 127
    },
    {
      "midi": 47,
      "hit": false,
      "t": 75333.25799999996,
      "d": 666.6659999999974,
      "v": 127
    },
    {
      "midi": 66,
      "hit": false,
      "t": 75666.5909999998,
      "d": 333.3329999999987,
      "v": 127
    },
    {
      "midi": 63,
      "hit": false,
      "t": 75999.9239999998,
      "d": 333.3329999999987,
      "v": 127
    },
    {
      "midi": 40,
      "hit": false,
      "t": 75999.92399999996,
      "d": 666.6659999999974,
      "v": 127
    },
    {
      "midi": 52,
      "hit": false,
      "t": 75999.92399999996,
      "d": 666.6659999999974,
      "v": 127
    },
    {
      "midi": 64,
      "hit": false,
      "t": 76333.2569999998,
      "d": 333.3329999999987,
      "v": 127
    },
    {
      "midi": 60,
      "hit": false,
      "t": 76666.5899999998,
      "d": 333.3329999999987,
      "v": 127
    },
    {
      "midi": 59,
      "hit": false,
      "t": 76999.92299999979,
      "d": 333.3329999999987,
      "v": 127
    },
    {
      "midi": 55,
      "hit": false,
      "t": 77333.25599999995,
      "d": 333.3329999999987,
      "v": 127
    },
    {
      "midi": 54,
      "hit": false,
      "t": 77666.58899999995,
      "d": 333.3329999999987,
      "v": 127
    },
    {
      "midi": 51,
      "hit": false,
      "t": 77999.92199999995,
      "d": 333.3329999999987,
      "v": 127
    },
    {
      "midi": 52,
      "hit": false,
      "t": 78333.25499999995,
      "d": 333.3329999999987,
      "v": 127
    },
    {
      "midi": 55,
      "hit": false,
      "t": 78666.58799999995,
      "d": 333.3329999999987,
      "v": 127
    },
    {
      "midi": 59,
      "hit": false,
      "t": 78999.92099999994,
      "d": 333.3329999999987,
      "v": 127
    },
    {
      "midi": 64,
      "hit": false,
      "t": 79333.2539999998,
      "d": 333.3329999999987,
      "v": 127
    },
    {
      "midi": 67,
      "hit": false,
      "t": 79666.5869999998,
      "d": 333.3329999999987,
      "v": 127
    },
    {
      "midi": 71,
      "hit": false,
      "t": 79999.9199999998,
      "d": 1333.3319999999949,
      "v": 127
    },
    {
      "midi": 71,
      "hit": false,
      "t": 81999.91799999979,
      "d": 1999.9980000000069,
      "v": 127
    }
  ]
}