{
  "jsonPath": "Classical/Classical/Joseph Haydn/28-nemet-tanc-deutscher-tanz.json",
  "path": "Classical\\Classical\\Joseph Haydn\\28 Nemet Tanc - Deutscher Tanz.mid",
  "name": "28 Nemet Tanc - Deutscher Tanz",
  "difficulty": "Advanced",
  "bpm": 120,
  "notes": [
    {
      "midi": 74,
      "hit": false,
      "t": 1000,
      "d": 500,
      "v": 100
    },
    {
      "midi": 78,
      "hit": false,
      "t": 1500,
      "d": 250,
      "v": 100
    },
    {
      "midi": 55,
      "hit": false,
      "t": 1500,
      "d": 500,
      "v": 100
    },
    {
      "midi": 79,
      "hit": false,
      "t": 1750,
      "d": 250,
      "v": 100
    },
    {
      "midi": 83,
      "hit": false,
      "t": 2000,
      "d": 250,
      "v": 100
    },
    {
      "midi": 59,
      "hit": false,
      "t": 2000,
      "d": 500,
      "v": 100
    },
    {
      "midi": 62,
      "hit": false,
      "t": 2000,
      "d": 500,
      "v": 100
    },
    {
      "midi": 79,
      "hit": false,
      "t": 2250,
      "d": 250,
      "v": 100
    },
    {
      "midi": 74,
      "hit": false,
      "t": 2500,
      "d": 250,
      "v": 100
    },
    {
      "midi": 59,
      "hit": false,
      "t": 2500,
      "d": 500,
      "v": 100
    },
    {
      "midi": 62,
      "hit": false,
      "t": 2500,
      "d": 500,
      "v": 100
    },
    {
      "midi": 74,
      "hit": false,
      "t": 3000,
      "d": 250,
      "v": 100
    },
    {
      "midi": 55,
      "hit": false,
      "t": 3000,
      "d": 500,
      "v": 100
    },
    {
      "midi": 72,
      "hit": false,
      "t": 3250,
      "d": 250,
      "v": 100
    },
    {
      "midi": 76,
      "hit": false,
      "t": 3500,
      "d": 250,
      "v": 100
    },
    {
      "midi": 60,
      "hit": false,
      "t": 3500,
      "d": 500,
      "v": 100
    },
    {
      "midi": 64,
      "hit": false,
      "t": 3500,
      "d": 500,
      "v": 100
    },
    {
      "midi": 72,
      "hit": false,
      "t": 3750,
      "d": 250,
      "v": 100
    },
    {
      "midi": 69,
      "hit": false,
      "t": 4000,
      "d": 250,
      "v": 100
    },
    {
      "midi": 60,
      "hit": false,
      "t": 4000,
      "d": 500,
      "v": 100
    },
    {
      "midi": 64,
      "hit": false,
      "t": 4000,
      "d": 500,
      "v": 100
    },
    {
      "midi": 67,
      "hit": false,
      "t": 4500,
      "d": 250,
      "v": 100
    },
    {
      "midi": 55,
      "hit": false,
      "t": 4500,
      "d": 500,
      "v": 100
    },
    {
      "midi": 66,
      "hit": false,
      "t": 4750,
      "d": 250,
      "v": 100
    },
    {
      "midi": 69,
      "hit": false,
      "t": 5000,
      "d": 250,
      "v": 100
    },
    {
      "midi": 57,
      "hit": false,
      "t": 5000,
      "d": 500,
      "v": 100
    },
    {
      "midi": 60,
      "hit": false,
      "t": 5000,
      "d": 500,
      "v": 100
    },
    {
      "midi": 66,
      "hit": false,
      "t": 5250,
      "d": 250,
      "v": 100
    },
    {
      "midi": 62,
      "hit": false,
      "t": 5500,
      "d": 250,
      "v": 100
    },
    {
      "midi": 57,
      "hit": false,
      "t": 5500,
      "d": 500,
      "v": 100
    },
    {
      "midi": 60,
      "hit": false,
      "t": 5500,
      "d": 500,
      "v": 100
    },
    {
      "midi": 67,
      "hit": false,
      "t": 6000,
      "d": 500,
      "v": 100
    },
    {
      "midi": 55,
      "hit": false,
      "t": 6000,
      "d": 500,
      "v": 100
    },
    {
      "midi": 71,
      "hit": false,
      "t": 6500,
      "d": 250,
      "v": 100
    },
    {
      "midi": 59,
      "hit": false,
      "t": 6500,
      "d": 500,
      "v": 100
    },
    {
      "midi": 62,
      "hit": false,
      "t": 6500,
      "d": 500,
      "v": 100
    },
    {
      "midi": 74,
      "hit": false,
      "t": 7000,
      "d": 500,
      "v": 100
    },
    {
      "midi": 59,
      "hit": false,
      "t": 7000,
      "d": 500,
      "v": 100
    },
    {
      "midi": 62,
      "hit": false,
      "t": 7000,
      "d": 500,
      "v": 100
    },
    {
      "midi": 78,
      "hit": false,
      "t": 7500,
      "d": 250,
      "v": 100
    },
    {
      "midi": 55,
      "hit": false,
      "t": 7500,
      "d": 500,
      "v": 100
    },
    {
      "midi": 79,
      "hit": false,
      "t": 7750,
      "d": 250,
      "v": 100
    },
    {
      "midi": 83,
      "hit": false,
      "t": 8000,
      "d": 250,
      "v": 100
    },
    {
      "midi": 59,
      "hit": false,
      "t": 8000,
      "d": 500,
      "v": 100
    },
    {
      "midi": 62,
      "hit": false,
      "t": 8000,
      "d": 500,
      "v": 100
    },
    {
      "midi": 79,
      "hit": false,
      "t": 8250,
      "d": 250,
      "v": 100
    },
    {
      "midi": 74,
      "hit": false,
      "t": 8500,
      "d": 250,
      "v": 100
    },
    {
      "midi": 59,
      "hit": false,
      "t": 8500,
      "d": 500,
      "v": 100
    },
    {
      "midi": 62,
      "hit": false,
      "t": 8500,
      "d": 500,
      "v": 100
    },
    {
      "midi": 74,
      "hit": false,
      "t": 9000,
      "d": 250,
      "v": 100
    },
    {
      "midi": 55,
      "hit": false,
      "t": 9000,
      "d": 500,
      "v": 100
    },
    {
      "midi": 72,
      "hit": false,
      "t": 9250,
      "d": 250,
      "v": 100
    },
    {
      "midi": 76,
      "hit": false,
      "t": 9500,
      "d": 250,
      "v": 100
    },
    {
      "midi": 60,
      "hit": false,
      "t": 9500,
      "d": 500,
      "v": 100
    },
    {
      "midi": 64,
      "hit": false,
      "t": 9500,
      "d": 500,
      "v": 100
    },
    {
      "midi": 72,
      "hit": false,
      "t": 9750,
      "d": 250,
      "v": 100
    },
    {
      "midi": 69,
      "hit": false,
      "t": 10000,
      "d": 250,
      "v": 100
    },
    {
      "midi": 60,
      "hit": false,
      "t": 10000,
      "d": 500,
      "v": 100
    },
    {
      "midi": 64,
      "hit": false,
      "t": 10000,
      "d": 500,
      "v": 100
    },
    {
      "midi": 68,
      "hit": false,
      "t": 10500,
      "d": 250,
      "v": 100
    },
    {
      "midi": 55,
      "hit": false,
      "t": 10500,
      "d": 500,
      "v": 100
    },
    {
      "midi": 69,
      "hit": false,
      "t": 10750,
      "d": 250,
      "v": 100
    },
    {
      "midi": 72,
      "hit": false,
      "t": 11000,
      "d": 250,
      "v": 100
    },
    {
      "midi": 57,
      "hit": false,
      "t": 11000,
      "d": 500,
      "v": 100
    },
    {
      "midi": 60,
      "hit": false,
      "t": 11000,
      "d": 500,
      "v": 100
    },
    {
      "midi": 69,
      "hit": false,
      "t": 11250,
      "d": 250,
      "v": 100
    },
    {
      "midi": 66,
      "hit": false,
      "t": 11500,
      "d": 250,
      "v": 100
    },
    {
      "midi": 57,
      "hit": false,
      "t": 11500,
      "d": 500,
      "v": 100
    },
    {
      "midi": 60,
      "hit": false,
      "t": 11500,
      "d": 500,
      "v": 100
    },
    {
      "midi": 62,
      "hit": false,
      "t": 11750,
      "d": 250,
      "v": 100
    },
    {
      "midi": 67,
      "hit": false,
      "t": 12000,
      "d": 500,
      "v": 100
    },
    {
      "midi": 55,
      "hit": false,
      "t": 12000,
      "d": 1000,
      "v": 100
    },
    {
      "midi": 59,
      "hit": false,
      "t": 12000,
      "d": 1000,
      "v": 100
    },
    {
      "midi": 74,
      "hit": false,
      "t": 13000,
      "d": 500,
      "v": 100
    },
    {
      "midi": 74,
      "hit": false,
      "t": 13500,
      "d": 500,
      "v": 100
    },
    {
      "midi": 50,
      "hit": false,
      "t": 13500,
      "d": 500,
      "v": 100
    },
    {
      "midi": 54,
      "hit": false,
      "t": 13500,
      "d": 500,
      "v": 100
    },
    {
      "midi": 74,
      "hit": false,
      "t": 14000,
      "d": 500,
      "v": 100
    },
    {
      "midi": 52,
      "hit": false,
      "t": 14000,
      "d": 500,
      "v": 100
    },
    {
      "midi": 55,
      "hit": false,
      "t": 14000,
      "d": 500,
      "v": 100
    },
    {
      "midi": 74,
      "hit": false,
      "t": 14500,
      "d": 500,
      "v": 100
    },
    {
      "midi": 54,
      "hit": false,
      "t": 14500,
      "d": 500,
      "v": 100
    },
    {
      "midi": 57,
      "hit": false,
      "t": 14500,
      "d": 500,
      "v": 100
    },
    {
      "midi": 73,
      "hit": false,
      "t": 15000,
      "d": 500,
      "v": 100
    },
    {
      "midi": 76,
      "hit": false,
      "t": 15000,
      "d": 500,
      "v": 100
    },
    {
      "midi": 57,
      "hit": false,
      "t": 15000,
      "d": 500,
      "v": 100
    },
    {
      "midi": 74,
      "hit": false,
      "t": 15500,
      "d": 500,
      "v": 100
    },
    {
      "midi": 54,
      "hit": false,
      "t": 15500,
      "d": 500,
      "v": 100
    },
    {
      "midi": 81,
      "hit": false,
      "t": 16000,
      "d": 500,
      "v": 100
    },
    {
      "midi": 54,
      "hit": false,
      "t": 16000,
      "d": 500,
      "v": 100
    },
    {
      "midi": 62,
      "hit": false,
      "t": 16000,
      "d": 500,
      "v": 100
    },
    {
      "midi": 81,
      "hit": false,
      "t": 16500,
      "d": 250,
      "v": 100
    },
    {
      "midi": 52,
      "hit": false,
      "t": 16500,
      "d": 1000,
      "v": 100
    },
    {
      "midi": 62,
      "hit": false,
      "t": 16500,
      "d": 1000,
      "v": 100
    },
    {
      "midi": 79,
      "hit": false,
      "t": 16750,
      "d": 250,
      "v": 100
    },
    {
      "midi": 79,
      "hit": false,
      "t": 17000,
      "d": 250,
      "v": 100
    },
    {
      "midi": 78,
      "hit": false,
      "t": 17250,
      "d": 250,
      "v": 100
    },
    {
      "midi": 79,
      "hit": false,
      "t": 17500,
      "d": 500,
      "v": 100
    },
    {
      "midi": 57,
      "hit": false,
      "t": 17500,
      "d": 500,
      "v": 100
    },
    {
      "midi": 61,
      "hit": false,
      "t": 17500,
      "d": 500,
      "v": 100
    },
    {
      "midi": 78,
      "hit": false,
      "t": 18000,
      "d": 1000,
      "v": 100
    },
    {
      "midi": 50,
      "hit": false,
      "t": 18000,
      "d": 1000,
      "v": 100
    },
    {
      "midi": 62,
      "hit": false,
      "t": 18000,
      "d": 1000,
      "v": 100
    },
    {
      "midi": 79,
      "hit": false,
      "t": 19000,
      "d": 500,
      "v": 100
    },
    {
      "midi": 79,
      "hit": false,
      "t": 19500,
      "d": 500,
      "v": 100
    },
    {
      "midi": 55,
      "hit": false,
      "t": 19500,
      "d": 500,
      "v": 100
    },
    {
      "midi": 59,
      "hit": false,
      "t": 19500,
      "d": 500,
      "v": 100
    },
    {
      "midi": 79,
      "hit": false,
      "t": 20000,
      "d": 500,
      "v": 100
    },
    {
      "midi": 57,
      "hit": false,
      "t": 20000,
      "d": 500,
      "v": 100
    },
    {
      "midi": 60,
      "hit": false,
      "t": 20000,
      "d": 500,
      "v": 100
    },
    {
      "midi": 79,
      "hit": false,
      "t": 20500,
      "d": 500,
      "v": 100
    },
    {
      "midi": 59,
      "hit": false,
      "t": 20500,
      "d": 500,
      "v": 100
    },
    {
      "midi": 62,
      "hit": false,
      "t": 20500,
      "d": 500,
      "v": 100
    },
    {
      "midi": 78,
      "hit": false,
      "t": 21000,
      "d": 500,
      "v": 100
    },
    {
      "midi": 81,
      "hit": false,
      "t": 21000,
      "d": 500,
      "v": 100
    },
    {
      "midi": 60,
      "hit": false,
      "t": 21000,
      "d": 500,
      "v": 100
    },
    {
      "midi": 62,
      "hit": false,
      "t": 21000,
      "d": 500,
      "v": 100
    },
    {
      "midi": 79,
      "hit": false,
      "t": 21500,
      "d": 500,
      "v": 100
    },
    {
      "midi": 59,
      "hit": false,
      "t": 21500,
      "d": 500,
      "v": 100
    },
    {
      "midi": 86,
      "hit": false,
      "t": 22000,
      "d": 500,
      "v": 100
    },
    {
      "midi": 59,
      "hit": false,
      "t": 22000,
      "d": 500,
      "v": 100
    },
    {
      "midi": 62,
      "hit": false,
      "t": 22000,
      "d": 500,
      "v": 100
    },
    {
      "midi": 84,
      "hit": false,
      "t": 22500,
      "d": 250,
      "v": 100
    },
    {
      "midi": 60,
      "hit": false,
      "t": 22500,
      "d": 1000,
      "v": 100
    },
    {
      "midi": 64,
      "hit": false,
      "t": 22500,
      "d": 1000,
      "v": 100
    },
    {
      "midi": 83,
      "hit": false,
      "t": 22750,
      "d": 250,
      "v": 100
    },
    {
      "midi": 84,
      "hit": false,
      "t": 23000,
      "d": 250,
      "v": 100
    },
    {
      "midi": 81,
      "hit": false,
      "t": 23250,
      "d": 250,
      "v": 100
    },
    {
      "midi": 78,
      "hit": false,
      "t": 23500,
      "d": 250,
      "v": 100
    },
    {
      "midi": 62,
      "hit": false,
      "t": 23500,
      "d": 500,
      "v": 100
    },
    {
      "midi": 69,
      "hit": false,
      "t": 23500,
      "d": 500,
      "v": 100
    },
    {
      "midi": 72,
      "hit": false,
      "t": 23500,
      "d": 500,
      "v": 100
    },
    {
      "midi": 74,
      "hit": false,
      "t": 23750,
      "d": 250,
      "v": 100
    },
    {
      "midi": 79,
      "hit": false,
      "t": 24000,
      "d": 500,
      "v": 100
    },
    {
      "midi": 67,
      "hit": false,
      "t": 24000,
      "d": 500,
      "v": 100
    },
    {
      "midi": 71,
      "hit": false,
      "t": 24000,
      "d": 500,
      "v": 100
    },
    {
      "midi": 79,
      "hit": false,
      "t": 25500,
      "d": 500,
      "v": 100
    },
    {
      "midi": 67,
      "hit": false,
      "t": 25500,
      "d": 500,
      "v": 100
    },
    {
      "midi": 71,
      "hit": false,
      "t": 25500,
      "d": 500,
      "v": 100
    }
  ]
}