{
  "jsonPath": "Classical/Classical/Joseph Haydn/3-nemet-3-deutsche-tanze.json",
  "path": "Classical\\Classical\\Joseph Haydn\\3 Nemet-3 Deutsche Tanze.mid",
  "name": "3 Nemet-3 Deutsche Tanze",
  "difficulty": "Advanced",
  "bpm": 120,
  "notes": [
    {
      "midi": 57,
      "hit": false,
      "t": 1000,
      "d": 250,
      "v": 100
    },
    {
      "midi": 62,
      "hit": false,
      "t": 1250,
      "d": 250,
      "v": 100
    },
    {
      "midi": 62,
      "hit": false,
      "t": 1500,
      "d": 1000,
      "v": 100
    },
    {
      "midi": 66,
      "hit": false,
      "t": 1500,
      "d": 1000,
      "v": 100
    },
    {
      "midi": 38,
      "hit": false,
      "t": 1500,
      "d": 500,
      "v": 100
    },
    {
      "midi": 50,
      "hit": false,
      "t": 2000,
      "d": 500,
      "v": 100
    },
    {
      "midi": 57,
      "hit": false,
      "t": 2500,
      "d": 500,
      "v": 100
    },
    {
      "midi": 64,
      "hit": false,
      "t": 2500,
      "d": 500,
      "v": 100
    },
    {
      "midi": 50,
      "hit": false,
      "t": 2500,
      "d": 500,
      "v": 100
    },
    {
      "midi": 57,
      "hit": false,
      "t": 3000,
      "d": 500,
      "v": 100
    },
    {
      "midi": 62,
      "hit": false,
      "t": 3000,
      "d": 500,
      "v": 100
    },
    {
      "midi": 38,
      "hit": false,
      "t": 3000,
      "d": 500,
      "v": 100
    },
    {
      "midi": 57,
      "hit": false,
      "t": 3500,
      "d": 500,
      "v": 100
    },
    {
      "midi": 50,
      "hit": false,
      "t": 3500,
      "d": 500,
      "v": 100
    },
    {
      "midi": 62,
      "hit": false,
      "t": 4000,
      "d": 250,
      "v": 100
    },
    {
      "midi": 50,
      "hit": false,
      "t": 4000,
      "d": 500,
      "v": 100
    },
    {
      "midi": 66,
      "hit": false,
      "t": 4250,
      "d": 250,
      "v": 100
    },
    {
      "midi": 57,
      "hit": false,
      "t": 4500,
      "d": 1000,
      "v": 100
    },
    {
      "midi": 66,
      "hit": false,
      "t": 4500,
      "d": 1000,
      "v": 100
    },
    {
      "midi": 38,
      "hit": false,
      "t": 4500,
      "d": 500,
      "v": 100
    },
    {
      "midi": 50,
      "hit": false,
      "t": 5000,
      "d": 500,
      "v": 100
    },
    {
      "midi": 57,
      "hit": false,
      "t": 5500,
      "d": 500,
      "v": 100
    },
    {
      "midi": 64,
      "hit": false,
      "t": 5500,
      "d": 500,
      "v": 100
    },
    {
      "midi": 67,
      "hit": false,
      "t": 5500,
      "d": 500,
      "v": 100
    },
    {
      "midi": 50,
      "hit": false,
      "t": 5500,
      "d": 500,
      "v": 100
    },
    {
      "midi": 57,
      "hit": false,
      "t": 6000,
      "d": 500,
      "v": 100
    },
    {
      "midi": 62,
      "hit": false,
      "t": 6000,
      "d": 500,
      "v": 100
    },
    {
      "midi": 66,
      "hit": false,
      "t": 6000,
      "d": 500,
      "v": 100
    },
    {
      "midi": 38,
      "hit": false,
      "t": 6000,
      "d": 500,
      "v": 100
    },
    {
      "midi": 62,
      "hit": false,
      "t": 6500,
      "d": 500,
      "v": 100
    },
    {
      "midi": 50,
      "hit": false,
      "t": 6500,
      "d": 500,
      "v": 100
    },
    {
      "midi": 62,
      "hit": false,
      "t": 7000,
      "d": 250,
      "v": 100
    },
    {
      "midi": 50,
      "hit": false,
      "t": 7000,
      "d": 500,
      "v": 100
    },
    {
      "midi": 66,
      "hit": false,
      "t": 7250,
      "d": 250,
      "v": 100
    },
    {
      "midi": 66,
      "hit": false,
      "t": 7500,
      "d": 250,
      "v": 100
    },
    {
      "midi": 38,
      "hit": false,
      "t": 7500,
      "d": 500,
      "v": 100
    },
    {
      "midi": 59,
      "hit": false,
      "t": 7750,
      "d": 250,
      "v": 100
    },
    {
      "midi": 66,
      "hit": false,
      "t": 8000,
      "d": 250,
      "v": 100
    },
    {
      "midi": 50,
      "hit": false,
      "t": 8000,
      "d": 500,
      "v": 100
    },
    {
      "midi": 59,
      "hit": false,
      "t": 8250,
      "d": 250,
      "v": 100
    },
    {
      "midi": 66,
      "hit": false,
      "t": 8500,
      "d": 250,
      "v": 100
    },
    {
      "midi": 50,
      "hit": false,
      "t": 8500,
      "d": 500,
      "v": 100
    },
    {
      "midi": 59,
      "hit": false,
      "t": 8750,
      "d": 250,
      "v": 100
    },
    {
      "midi": 66,
      "hit": false,
      "t": 9000,
      "d": 250,
      "v": 100
    },
    {
      "midi": 39,
      "hit": false,
      "t": 9000,
      "d": 500,
      "v": 100
    },
    {
      "midi": 57,
      "hit": false,
      "t": 9250,
      "d": 250,
      "v": 100
    },
    {
      "midi": 66,
      "hit": false,
      "t": 9500,
      "d": 250,
      "v": 100
    },
    {
      "midi": 51,
      "hit": false,
      "t": 9500,
      "d": 500,
      "v": 100
    },
    {
      "midi": 57,
      "hit": false,
      "t": 9750,
      "d": 250,
      "v": 100
    },
    {
      "midi": 66,
      "hit": false,
      "t": 10000,
      "d": 250,
      "v": 100
    },
    {
      "midi": 51,
      "hit": false,
      "t": 10000,
      "d": 500,
      "v": 100
    },
    {
      "midi": 57,
      "hit": false,
      "t": 10250,
      "d": 250,
      "v": 100
    },
    {
      "midi": 64,
      "hit": false,
      "t": 10500,
      "d": 250,
      "v": 100
    },
    {
      "midi": 40,
      "hit": false,
      "t": 10500,
      "d": 500,
      "v": 100
    },
    {
      "midi": 57,
      "hit": false,
      "t": 10750,
      "d": 250,
      "v": 100
    },
    {
      "midi": 64,
      "hit": false,
      "t": 11000,
      "d": 250,
      "v": 100
    },
    {
      "midi": 52,
      "hit": false,
      "t": 11000,
      "d": 500,
      "v": 100
    },
    {
      "midi": 57,
      "hit": false,
      "t": 11250,
      "d": 250,
      "v": 100
    },
    {
      "midi": 59,
      "hit": false,
      "t": 11500,
      "d": 250,
      "v": 100
    },
    {
      "midi": 62,
      "hit": false,
      "t": 11500,
      "d": 250,
      "v": 100
    },
    {
      "midi": 40,
      "hit": false,
      "t": 11500,
      "d": 500,
      "v": 100
    },
    {
      "midi": 56,
      "hit": false,
      "t": 11750,
      "d": 250,
      "v": 100
    },
    {
      "midi": 57,
      "hit": false,
      "t": 12000,
      "d": 500,
      "v": 100
    },
    {
      "midi": 33,
      "hit": false,
      "t": 12000,
      "d": 500,
      "v": 100
    },
    {
      "midi": 45,
      "hit": false,
      "t": 12500,
      "d": 500,
      "v": 100
    },
    {
      "midi": 57,
      "hit": false,
      "t": 13500,
      "d": 500,
      "v": 100
    },
    {
      "midi": 33,
      "hit": false,
      "t": 13500,
      "d": 500,
      "v": 100
    },
    {
      "midi": 57,
      "hit": false,
      "t": 15000,
      "d": 500,
      "v": 100
    },
    {
      "midi": 33,
      "hit": false,
      "t": 15000,
      "d": 500,
      "v": 100
    },
    {
      "midi": 57,
      "hit": false,
      "t": 16500,
      "d": 500,
      "v": 100
    },
    {
      "midi": 33,
      "hit": false,
      "t": 16500,
      "d": 500,
      "v": 100
    },
    {
      "midi": 57,
      "hit": false,
      "t": 18000,
      "d": 500,
      "v": 100
    },
    {
      "midi": 33,
      "hit": false,
      "t": 18000,
      "d": 500,
      "v": 100
    },
    {
      "midi": 57,
      "hit": false,
      "t": 19500,
      "d": 1000,
      "v": 100
    },
    {
      "midi": 62,
      "hit": false,
      "t": 19500,
      "d": 1000,
      "v": 100
    },
    {
      "midi": 66,
      "hit": false,
      "t": 19500,
      "d": 1000,
      "v": 100
    },
    {
      "midi": 38,
      "hit": false,
      "t": 19500,
      "d": 500,
      "v": 100
    },
    {
      "midi": 42,
      "hit": false,
      "t": 20000,
      "d": 500,
      "v": 100
    },
    {
      "midi": 61,
      "hit": false,
      "t": 20500,
      "d": 500,
      "v": 100
    },
    {
      "midi": 67,
      "hit": false,
      "t": 20500,
      "d": 500,
      "v": 100
    },
    {
      "midi": 45,
      "hit": false,
      "t": 20500,
      "d": 500,
      "v": 100
    },
    {
      "midi": 66,
      "hit": false,
      "t": 21000,
      "d": 250,
      "v": 100
    },
    {
      "midi": 47,
      "hit": false,
      "t": 21000,
      "d": 1000,
      "v": 100
    },
    {
      "midi": 62,
      "hit": false,
      "t": 21250,
      "d": 250,
      "v": 100
    },
    {
      "midi": 66,
      "hit": false,
      "t": 21500,
      "d": 250,
      "v": 100
    },
    {
      "midi": 62,
      "hit": false,
      "t": 21750,
      "d": 250,
      "v": 100
    },
    {
      "midi": 67,
      "hit": false,
      "t": 22000,
      "d": 250,
      "v": 100
    },
    {
      "midi": 43,
      "hit": false,
      "t": 22000,
      "d": 500,
      "v": 100
    },
    {
      "midi": 62,
      "hit": false,
      "t": 22250,
      "d": 250,
      "v": 100
    },
    {
      "midi": 66,
      "hit": false,
      "t": 22500,
      "d": 250,
      "v": 100
    },
    {
      "midi": 45,
      "hit": false,
      "t": 22500,
      "d": 500,
      "v": 100
    },
    {
      "midi": 62,
      "hit": false,
      "t": 22750,
      "d": 250,
      "v": 100
    },
    {
      "midi": 66,
      "hit": false,
      "t": 23000,
      "d": 250,
      "v": 100
    },
    {
      "midi": 45,
      "hit": false,
      "t": 23000,
      "d": 500,
      "v": 100
    },
    {
      "midi": 62,
      "hit": false,
      "t": 23250,
      "d": 250,
      "v": 100
    },
    {
      "midi": 64,
      "hit": false,
      "t": 23500,
      "d": 250,
      "v": 100
    },
    {
      "midi": 33,
      "hit": false,
      "t": 23500,
      "d": 500,
      "v": 100
    },
    {
      "midi": 67,
      "hit": false,
      "t": 23750,
      "d": 250,
      "v": 100
    },
    {
      "midi": 57,
      "hit": false,
      "t": 24000,
      "d": 500,
      "v": 100
    },
    {
      "midi": 62,
      "hit": false,
      "t": 24000,
      "d": 500,
      "v": 100
    },
    {
      "midi": 66,
      "hit": false,
      "t": 24000,
      "d": 500,
      "v": 100
    },
    {
      "midi": 38,
      "hit": false,
      "t": 24000,
      "d": 500,
      "v": 100
    },
    {
      "midi": 62,
      "hit": false,
      "t": 25000,
      "d": 500,
      "v": 100
    },
    {
      "midi": 59,
      "hit": false,
      "t": 25500,
      "d": 500,
      "v": 100
    },
    {
      "midi": 62,
      "hit": false,
      "t": 25500,
      "d": 500,
      "v": 100
    },
    {
      "midi": 43,
      "hit": false,
      "t": 25500,
      "d": 500,
      "v": 100
    },
    {
      "midi": 62,
      "hit": false,
      "t": 26000,
      "d": 500,
      "v": 100
    },
    {
      "midi": 43,
      "hit": false,
      "t": 26000,
      "d": 500,
      "v": 100
    },
    {
      "midi": 62,
      "hit": false,
      "t": 26500,
      "d": 500,
      "v": 100
    },
    {
      "midi": 43,
      "hit": false,
      "t": 26500,
      "d": 500,
      "v": 100
    },
    {
      "midi": 60,
      "hit": false,
      "t": 27000,
      "d": 500,
      "v": 100
    },
    {
      "midi": 62,
      "hit": false,
      "t": 27000,
      "d": 500,
      "v": 100
    },
    {
      "midi": 38,
      "hit": false,
      "t": 27000,
      "d": 1500,
      "v": 100
    },
    {
      "midi": 62,
      "hit": false,
      "t": 27500,
      "d": 500,
      "v": 100
    },
    {
      "midi": 62,
      "hit": false,
      "t": 28000,
      "d": 500,
      "v": 100
    },
    {
      "midi": 59,
      "hit": false,
      "t": 28500,
      "d": 500,
      "v": 100
    },
    {
      "midi": 62,
      "hit": false,
      "t": 28500,
      "d": 500,
      "v": 100
    },
    {
      "midi": 43,
      "hit": false,
      "t": 28500,
      "d": 500,
      "v": 100
    },
    {
      "midi": 62,
      "hit": false,
      "t": 29000,
      "d": 500,
      "v": 100
    },
    {
      "midi": 43,
      "hit": false,
      "t": 29000,
      "d": 500,
      "v": 100
    },
    {
      "midi": 62,
      "hit": false,
      "t": 29500,
      "d": 500,
      "v": 100
    },
    {
      "midi": 43,
      "hit": false,
      "t": 29500,
      "d": 500,
      "v": 100
    },
    {
      "midi": 57,
      "hit": false,
      "t": 30000,
      "d": 1000,
      "v": 100
    },
    {
      "midi": 62,
      "hit": false,
      "t": 30000,
      "d": 1000,
      "v": 100
    },
    {
      "midi": 38,
      "hit": false,
      "t": 30000,
      "d": 1000,
      "v": 100
    },
    {
      "midi": 62,
      "hit": false,
      "t": 31000,
      "d": 500,
      "v": 100
    },
    {
      "midi": 62,
      "hit": false,
      "t": 31500,
      "d": 500,
      "v": 100
    },
    {
      "midi": 67,
      "hit": false,
      "t": 31500,
      "d": 500,
      "v": 100
    },
    {
      "midi": 35,
      "hit": false,
      "t": 31500,
      "d": 1500,
      "v": 100
    },
    {
      "midi": 62,
      "hit": false,
      "t": 32000,
      "d": 500,
      "v": 100
    },
    {
      "midi": 67,
      "hit": false,
      "t": 32000,
      "d": 500,
      "v": 100
    },
    {
      "midi": 62,
      "hit": false,
      "t": 32500,
      "d": 500,
      "v": 100
    },
    {
      "midi": 64,
      "hit": false,
      "t": 33000,
      "d": 500,
      "v": 100
    },
    {
      "midi": 36,
      "hit": false,
      "t": 33000,
      "d": 1500,
      "v": 100
    },
    {
      "midi": 64,
      "hit": false,
      "t": 33500,
      "d": 500,
      "v": 100
    },
    {
      "midi": 67,
      "hit": false,
      "t": 33500,
      "d": 500,
      "v": 100
    },
    {
      "midi": 64,
      "hit": false,
      "t": 34000,
      "d": 250,
      "v": 100
    },
    {
      "midi": 60,
      "hit": false,
      "t": 34250,
      "d": 250,
      "v": 100
    },
    {
      "midi": 59,
      "hit": false,
      "t": 34500,
      "d": 250,
      "v": 100
    },
    {
      "midi": 38,
      "hit": false,
      "t": 34500,
      "d": 500,
      "v": 100
    },
    {
      "midi": 62,
      "hit": false,
      "t": 34750,
      "d": 250,
      "v": 100
    },
    {
      "midi": 59,
      "hit": false,
      "t": 35000,
      "d": 250,
      "v": 100
    },
    {
      "midi": 38,
      "hit": false,
      "t": 35000,
      "d": 500,
      "v": 100
    },
    {
      "midi": 62,
      "hit": false,
      "t": 35250,
      "d": 250,
      "v": 100
    },
    {
      "midi": 60,
      "hit": false,
      "t": 35500,
      "d": 250,
      "v": 100
    },
    {
      "midi": 38,
      "hit": false,
      "t": 35500,
      "d": 500,
      "v": 100
    },
    {
      "midi": 62,
      "hit": false,
      "t": 35750,
      "d": 250,
      "v": 100
    },
    {
      "midi": 59,
      "hit": false,
      "t": 36000,
      "d": 500,
      "v": 100
    },
    {
      "midi": 31,
      "hit": false,
      "t": 36000,
      "d": 500,
      "v": 100
    },
    {
      "midi": 43,
      "hit": false,
      "t": 36500,
      "d": 500,
      "v": 100
    },
    {
      "midi": 55,
      "hit": false,
      "t": 37500,
      "d": 500,
      "v": 100
    },
    {
      "midi": 61,
      "hit": false,
      "t": 37500,
      "d": 500,
      "v": 100
    },
    {
      "midi": 40,
      "hit": false,
      "t": 37500,
      "d": 500,
      "v": 100
    },
    {
      "midi": 55,
      "hit": false,
      "t": 38000,
      "d": 500,
      "v": 100
    },
    {
      "midi": 61,
      "hit": false,
      "t": 38000,
      "d": 500,
      "v": 100
    },
    {
      "midi": 40,
      "hit": false,
      "t": 38000,
      "d": 500,
      "v": 100
    },
    {
      "midi": 55,
      "hit": false,
      "t": 38500,
      "d": 500,
      "v": 100
    },
    {
      "midi": 61,
      "hit": false,
      "t": 38500,
      "d": 500,
      "v": 100
    },
    {
      "midi": 40,
      "hit": false,
      "t": 38500,
      "d": 500,
      "v": 100
    },
    {
      "midi": 54,
      "hit": false,
      "t": 39000,
      "d": 1500,
      "v": 100
    },
    {
      "midi": 62,
      "hit": false,
      "t": 39000,
      "d": 1500,
      "v": 100
    },
    {
      "midi": 38,
      "hit": false,
      "t": 39000,
      "d": 1500,
      "v": 100
    },
    {
      "midi": 55,
      "hit": false,
      "t": 40500,
      "d": 500,
      "v": 100
    },
    {
      "midi": 64,
      "hit": false,
      "t": 40500,
      "d": 500,
      "v": 100
    },
    {
      "midi": 48,
      "hit": false,
      "t": 40500,
      "d": 500,
      "v": 100
    },
    {
      "midi": 55,
      "hit": false,
      "t": 41000,
      "d": 500,
      "v": 100
    },
    {
      "midi": 64,
      "hit": false,
      "t": 41000,
      "d": 500,
      "v": 100
    },
    {
      "midi": 48,
      "hit": false,
      "t": 41000,
      "d": 500,
      "v": 100
    },
    {
      "midi": 55,
      "hit": false,
      "t": 41500,
      "d": 500,
      "v": 100
    },
    {
      "midi": 64,
      "hit": false,
      "t": 41500,
      "d": 500,
      "v": 100
    },
    {
      "midi": 48,
      "hit": false,
      "t": 41500,
      "d": 500,
      "v": 100
    },
    {
      "midi": 55,
      "hit": false,
      "t": 42000,
      "d": 1000,
      "v": 100
    },
    {
      "midi": 62,
      "hit": false,
      "t": 42000,
      "d": 1000,
      "v": 100
    },
    {
      "midi": 47,
      "hit": false,
      "t": 42000,
      "d": 1000,
      "v": 100
    },
    {
      "midi": 55,
      "hit": false,
      "t": 43000,
      "d": 500,
      "v": 100
    },
    {
      "midi": 43,
      "hit": false,
      "t": 43000,
      "d": 500,
      "v": 100
    },
    {
      "midi": 57,
      "hit": false,
      "t": 43500,
      "d": 500,
      "v": 100
    },
    {
      "midi": 45,
      "hit": false,
      "t": 43500,
      "d": 500,
      "v": 100
    },
    {
      "midi": 62,
      "hit": false,
      "t": 44000,
      "d": 500,
      "v": 100
    },
    {
      "midi": 42,
      "hit": false,
      "t": 44000,
      "d": 500,
      "v": 100
    },
    {
      "midi": 66,
      "hit": false,
      "t": 44500,
      "d": 500,
      "v": 100
    },
    {
      "midi": 38,
      "hit": false,
      "t": 44500,
      "d": 500,
      "v": 100
    },
    {
      "midi": 43,
      "hit": false,
      "t": 45000,
      "d": 500,
      "v": 100
    },
    {
      "midi": 62,
      "hit": false,
      "t": 45500,
      "d": 500,
      "v": 100
    },
    {
      "midi": 67,
      "hit": false,
      "t": 45500,
      "d": 500,
      "v": 100
    },
    {
      "midi": 38,
      "hit": false,
      "t": 45500,
      "d": 500,
      "v": 100
    },
    {
      "midi": 62,
      "hit": false,
      "t": 46000,
      "d": 500,
      "v": 100
    },
    {
      "midi": 67,
      "hit": false,
      "t": 46000,
      "d": 500,
      "v": 100
    },
    {
      "midi": 35,
      "hit": false,
      "t": 46000,
      "d": 500,
      "v": 100
    },
    {
      "midi": 64,
      "hit": false,
      "t": 46500,
      "d": 500,
      "v": 100
    },
    {
      "midi": 36,
      "hit": false,
      "t": 46500,
      "d": 1000,
      "v": 100
    },
    {
      "midi": 57,
      "hit": false,
      "t": 47000,
      "d": 500,
      "v": 100
    },
    {
      "midi": 60,
      "hit": false,
      "t": 47000,
      "d": 500,
      "v": 100
    },
    {
      "midi": 57,
      "hit": false,
      "t": 47500,
      "d": 500,
      "v": 100
    },
    {
      "midi": 60,
      "hit": false,
      "t": 47500,
      "d": 500,
      "v": 100
    },
    {
      "midi": 38,
      "hit": false,
      "t": 47500,
      "d": 500,
      "v": 100
    },
    {
      "midi": 55,
      "hit": false,
      "t": 48000,
      "d": 500,
      "v": 100
    },
    {
      "midi": 59,
      "hit": false,
      "t": 48000,
      "d": 500,
      "v": 100
    },
    {
      "midi": 31,
      "hit": false,
      "t": 48000,
      "d": 500,
      "v": 100
    }
  ]
}