{
  "jsonPath": "Classical/Classical/Joseph Haydn/sonate-ii-iii-presto.json",
  "path": "Classical\\Classical\\Joseph Haydn\\Sonate II, III - Presto.mid",
  "name": "Sonate II, III - Presto",
  "difficulty": "Advanced",
  "bpm": 140.00014000014,
  "notes": [
    {
      "midi": 70,
      "hit": false,
      "t": 0,
      "d": 214.2855,
      "v": 127
    },
    {
      "midi": 67,
      "hit": false,
      "t": 214.2855,
      "d": 214.2855,
      "v": 127
    },
    {
      "midi": 63,
      "hit": false,
      "t": 428.571,
      "d": 214.28550000000007,
      "v": 127
    },
    {
      "midi": 67,
      "hit": false,
      "t": 642.8565000000001,
      "d": 214.28549999999996,
      "v": 127
    },
    {
      "midi": 70,
      "hit": false,
      "t": 857.142,
      "d": 214.28549999999996,
      "v": 127
    },
    {
      "midi": 65,
      "hit": false,
      "t": 1071.4275,
      "d": 214.28549999999996,
      "v": 127
    },
    {
      "midi": 62,
      "hit": false,
      "t": 1285.7130000000002,
      "d": 214.28549999999996,
      "v": 127
    },
    {
      "midi": 65,
      "hit": false,
      "t": 1499.9985000000001,
      "d": 214.28549999999996,
      "v": 127
    },
    {
      "midi": 70,
      "hit": false,
      "t": 1714.284,
      "d": 214.28549999999996,
      "v": 127
    },
    {
      "midi": 75,
      "hit": false,
      "t": 1928.5695,
      "d": 214.28549999999996,
      "v": 127
    },
    {
      "midi": 68,
      "hit": false,
      "t": 2142.855,
      "d": 428.5709999999999,
      "v": 127
    },
    {
      "midi": 60,
      "hit": false,
      "t": 2142.855,
      "d": 214.28549999999996,
      "v": 127
    },
    {
      "midi": 58,
      "hit": false,
      "t": 2357.1405,
      "d": 214.28549999999996,
      "v": 127
    },
    {
      "midi": 67,
      "hit": false,
      "t": 2571.426,
      "d": 214.28549999999996,
      "v": 127
    },
    {
      "midi": 72,
      "hit": false,
      "t": 2785.7115,
      "d": 214.28549999999996,
      "v": 127
    },
    {
      "midi": 65,
      "hit": false,
      "t": 2999.997,
      "d": 428.5709999999999,
      "v": 127
    },
    {
      "midi": 56,
      "hit": false,
      "t": 2999.997,
      "d": 214.28549999999996,
      "v": 127
    },
    {
      "midi": 55,
      "hit": false,
      "t": 3214.2825,
      "d": 214.28549999999996,
      "v": 127
    },
    {
      "midi": 63,
      "hit": false,
      "t": 3428.5679999999998,
      "d": 214.28549999999996,
      "v": 127
    },
    {
      "midi": 62,
      "hit": false,
      "t": 3642.8534999999997,
      "d": 214.28549999999996,
      "v": 127
    },
    {
      "midi": 68,
      "hit": false,
      "t": 3857.1389999999997,
      "d": 428.57100000000037,
      "v": 127
    },
    {
      "midi": 53,
      "hit": false,
      "t": 3857.1389999999997,
      "d": 214.28549999999996,
      "v": 127
    },
    {
      "midi": 50,
      "hit": false,
      "t": 4071.4244999999996,
      "d": 214.2855000000004,
      "v": 127
    },
    {
      "midi": 67,
      "hit": false,
      "t": 4285.71,
      "d": 214.28549999999996,
      "v": 127
    },
    {
      "midi": 51,
      "hit": false,
      "t": 4285.71,
      "d": 214.28549999999996,
      "v": 127
    },
    {
      "midi": 67,
      "hit": false,
      "t": 4499.9955,
      "d": 214.28549999999996,
      "v": 127
    },
    {
      "midi": 46,
      "hit": false,
      "t": 4499.9955,
      "d": 214.28549999999996,
      "v": 127
    },
    {
      "midi": 65,
      "hit": false,
      "t": 4714.281,
      "d": 428.5709999999999,
      "v": 127
    },
    {
      "midi": 58,
      "hit": false,
      "t": 4714.281,
      "d": 214.28549999999996,
      "v": 127
    },
    {
      "midi": 46,
      "hit": false,
      "t": 4928.5665,
      "d": 214.28549999999996,
      "v": 127
    },
    {
      "midi": 70,
      "hit": false,
      "t": 5142.852,
      "d": 214.28549999999996,
      "v": 127
    },
    {
      "midi": 67,
      "hit": false,
      "t": 5357.1375,
      "d": 214.28549999999996,
      "v": 127
    },
    {
      "midi": 63,
      "hit": false,
      "t": 5571.423,
      "d": 214.28549999999996,
      "v": 127
    },
    {
      "midi": 67,
      "hit": false,
      "t": 5785.7085,
      "d": 214.28549999999996,
      "v": 127
    },
    {
      "midi": 70,
      "hit": false,
      "t": 5999.994,
      "d": 214.28549999999996,
      "v": 127
    },
    {
      "midi": 65,
      "hit": false,
      "t": 6214.2795,
      "d": 214.28549999999996,
      "v": 127
    },
    {
      "midi": 62,
      "hit": false,
      "t": 6428.565,
      "d": 214.28549999999996,
      "v": 127
    },
    {
      "midi": 65,
      "hit": false,
      "t": 6642.8505,
      "d": 214.28549999999996,
      "v": 127
    },
    {
      "midi": 70,
      "hit": false,
      "t": 6857.1359999999995,
      "d": 214.28549999999996,
      "v": 127
    },
    {
      "midi": 69,
      "hit": false,
      "t": 7071.4214999999995,
      "d": 214.28549999999996,
      "v": 127
    },
    {
      "midi": 75,
      "hit": false,
      "t": 7285.706999999999,
      "d": 428.5709999999999,
      "v": 127
    },
    {
      "midi": 60,
      "hit": false,
      "t": 7285.706999999999,
      "d": 214.28549999999996,
      "v": 127
    },
    {
      "midi": 58,
      "hit": false,
      "t": 7499.992499999999,
      "d": 214.28549999999996,
      "v": 127
    },
    {
      "midi": 74,
      "hit": false,
      "t": 7714.277999999999,
      "d": 214.28549999999996,
      "v": 127
    },
    {
      "midi": 67,
      "hit": false,
      "t": 7928.563499999999,
      "d": 214.28549999999996,
      "v": 127
    },
    {
      "midi": 72,
      "hit": false,
      "t": 8142.848999999999,
      "d": 428.5710000000008,
      "v": 127
    },
    {
      "midi": 63,
      "hit": false,
      "t": 8142.848999999999,
      "d": 214.28550000000087,
      "v": 127
    },
    {
      "midi": 62,
      "hit": false,
      "t": 8357.1345,
      "d": 214.28549999999996,
      "v": 127
    },
    {
      "midi": 70,
      "hit": false,
      "t": 8571.42,
      "d": 214.28549999999996,
      "v": 127
    },
    {
      "midi": 67,
      "hit": false,
      "t": 8785.7055,
      "d": 214.28549999999996,
      "v": 127
    },
    {
      "midi": 79,
      "hit": false,
      "t": 8999.991,
      "d": 428.5709999999999,
      "v": 127
    },
    {
      "midi": 63,
      "hit": false,
      "t": 8999.991,
      "d": 214.28549999999996,
      "v": 127
    },
    {
      "midi": 60,
      "hit": false,
      "t": 9214.2765,
      "d": 214.28549999999996,
      "v": 127
    },
    {
      "midi": 69,
      "hit": false,
      "t": 9428.562,
      "d": 214.28549999999996,
      "v": 127
    },
    {
      "midi": 65,
      "hit": false,
      "t": 9428.562,
      "d": 428.5709999999999,
      "v": 127
    },
    {
      "midi": 72,
      "hit": false,
      "t": 9642.8475,
      "d": 214.28549999999996,
      "v": 127
    },
    {
      "midi": 70,
      "hit": false,
      "t": 9857.133,
      "d": 428.5709999999999,
      "v": 127
    },
    {
      "midi": 58,
      "hit": false,
      "t": 9857.133,
      "d": 214.28549999999996,
      "v": 127
    },
    {
      "midi": 46,
      "hit": false,
      "t": 10071.4185,
      "d": 214.28549999999996,
      "v": 127
    },
    {
      "midi": 74,
      "hit": false,
      "t": 10285.704,
      "d": 214.28549999999996,
      "v": 127
    },
    {
      "midi": 77,
      "hit": false,
      "t": 10499.9895,
      "d": 214.28549999999996,
      "v": 127
    },
    {
      "midi": 58,
      "hit": false,
      "t": 10714.275,
      "d": 214.28549999999996,
      "v": 127
    },
    {
      "midi": 62,
      "hit": false,
      "t": 10928.5605,
      "d": 214.28549999999996,
      "v": 127
    },
    {
      "midi": 68,
      "hit": false,
      "t": 11142.846,
      "d": 214.28549999999996,
      "v": 127
    },
    {
      "midi": 67,
      "hit": false,
      "t": 11357.1315,
      "d": 214.28549999999996,
      "v": 127
    },
    {
      "midi": 63,
      "hit": false,
      "t": 11571.417,
      "d": 214.28549999999996,
      "v": 127
    },
    {
      "midi": 67,
      "hit": false,
      "t": 11785.7025,
      "d": 214.28549999999996,
      "v": 127
    },
    {
      "midi": 70,
      "hit": false,
      "t": 11999.988,
      "d": 214.28549999999996,
      "v": 127
    },
    {
      "midi": 72,
      "hit": false,
      "t": 12214.2735,
      "d": 214.28549999999996,
      "v": 127
    },
    {
      "midi": 56,
      "hit": false,
      "t": 12428.559,
      "d": 214.28549999999996,
      "v": 127
    },
    {
      "midi": 60,
      "hit": false,
      "t": 12642.8445,
      "d": 214.28549999999996,
      "v": 127
    },
    {
      "midi": 63,
      "hit": false,
      "t": 12857.13,
      "d": 214.28549999999996,
      "v": 127
    },
    {
      "midi": 62,
      "hit": false,
      "t": 13071.4155,
      "d": 214.28549999999996,
      "v": 127
    },
    {
      "midi": 58,
      "hit": false,
      "t": 13285.701,
      "d": 214.28549999999996,
      "v": 127
    },
    {
      "midi": 46,
      "hit": false,
      "t": 13499.986499999999,
      "d": 214.28549999999996,
      "v": 127
    },
    {
      "midi": 58,
      "hit": false,
      "t": 13714.271999999999,
      "d": 214.28549999999996,
      "v": 127
    },
    {
      "midi": 60,
      "hit": false,
      "t": 13928.557499999999,
      "d": 214.28549999999996,
      "v": 127
    },
    {
      "midi": 65,
      "hit": false,
      "t": 14142.842999999999,
      "d": 428.5709999999999,
      "v": 127
    },
    {
      "midi": 56,
      "hit": false,
      "t": 14142.842999999999,
      "d": 214.28549999999996,
      "v": 127
    },
    {
      "midi": 55,
      "hit": false,
      "t": 14357.128499999999,
      "d": 214.28549999999996,
      "v": 127
    },
    {
      "midi": 63,
      "hit": false,
      "t": 14571.413999999999,
      "d": 214.28549999999996,
      "v": 127
    },
    {
      "midi": 62,
      "hit": false,
      "t": 14785.699499999999,
      "d": 214.28549999999996,
      "v": 127
    },
    {
      "midi": 68,
      "hit": false,
      "t": 14999.984999999999,
      "d": 428.5709999999999,
      "v": 127
    },
    {
      "midi": 60,
      "hit": false,
      "t": 14999.984999999999,
      "d": 214.28549999999996,
      "v": 127
    },
    {
      "midi": 58,
      "hit": false,
      "t": 15214.270499999999,
      "d": 214.28549999999996,
      "v": 127
    },
    {
      "midi": 67,
      "hit": false,
      "t": 15428.555999999999,
      "d": 214.28549999999996,
      "v": 127
    },
    {
      "midi": 65,
      "hit": false,
      "t": 15642.841499999999,
      "d": 214.28549999999996,
      "v": 127
    },
    {
      "midi": 72,
      "hit": false,
      "t": 15857.126999999999,
      "d": 428.5709999999999,
      "v": 127
    },
    {
      "midi": 68,
      "hit": false,
      "t": 15857.126999999999,
      "d": 214.28549999999996,
      "v": 127
    },
    {
      "midi": 67,
      "hit": false,
      "t": 16071.412499999999,
      "d": 214.28549999999996,
      "v": 127
    },
    {
      "midi": 70,
      "hit": false,
      "t": 16285.697999999999,
      "d": 214.28549999999996,
      "v": 127
    },
    {
      "midi": 68,
      "hit": false,
      "t": 16499.9835,
      "d": 214.28550000000178,
      "v": 127
    },
    {
      "midi": 80,
      "hit": false,
      "t": 16714.269,
      "d": 428.5709999999999,
      "v": 127
    },
    {
      "midi": 65,
      "hit": false,
      "t": 16714.269,
      "d": 214.28550000000178,
      "v": 127
    },
    {
      "midi": 62,
      "hit": false,
      "t": 16928.554500000002,
      "d": 214.28550000000178,
      "v": 127
    },
    {
      "midi": 79,
      "hit": false,
      "t": 17142.84,
      "d": 214.28550000000178,
      "v": 127
    },
    {
      "midi": 63,
      "hit": false,
      "t": 17142.840000000004,
      "d": 214.28550000000178,
      "v": 127
    },
    {
      "midi": 79,
      "hit": false,
      "t": 17357.125500000002,
      "d": 214.28550000000178,
      "v": 127
    },
    {
      "midi": 56,
      "hit": false,
      "t": 17357.125500000006,
      "d": 428.5709999999999,
      "v": 127
    },
    {
      "midi": 77,
      "hit": false,
      "t": 17571.411000000004,
      "d": 214.28550000000178,
      "v": 127
    },
    {
      "midi": 80,
      "hit": false,
      "t": 17785.696500000005,
      "d": 214.28550000000178,
      "v": 127
    },
    {
      "midi": 74,
      "hit": false,
      "t": 17999.982000000007,
      "d": 214.28550000000178,
      "v": 127
    },
    {
      "midi": 58,
      "hit": false,
      "t": 17999.982000000007,
      "d": 214.28550000000178,
      "v": 127
    },
    {
      "midi": 77,
      "hit": false,
      "t": 18214.26750000001,
      "d": 214.28550000000178,
      "v": 127
    },
    {
      "midi": 51,
      "hit": false,
      "t": 18214.26750000001,
      "d": 214.28550000000178,
      "v": 127
    },
    {
      "midi": 75,
      "hit": false,
      "t": 18428.55300000001,
      "d": 428.5709999999999,
      "v": 127
    },
    {
      "midi": 63,
      "hit": false,
      "t": 18428.55300000001,
      "d": 214.28550000000178,
      "v": 127
    },
    {
      "midi": 51,
      "hit": false,
      "t": 18642.838500000013,
      "d": 214.28550000000178,
      "v": 127
    },
    {
      "midi": 70,
      "hit": false,
      "t": 18857.12400000001,
      "d": 214.28550000000178,
      "v": 127
    },
    {
      "midi": 75,
      "hit": false,
      "t": 19071.409500000012,
      "d": 107.14274999999907,
      "v": 127
    },
    {
      "midi": 70,
      "hit": false,
      "t": 19178.55225000001,
      "d": 107.14274999999907,
      "v": 127
    },
    {
      "midi": 67,
      "hit": false,
      "t": 19285.69500000001,
      "d": 428.5709999999999,
      "v": 127
    },
    {
      "midi": 63,
      "hit": false,
      "t": 19392.837750000013,
      "d": 107.14274999999907,
      "v": 127
    },
    {
      "midi": 51,
      "hit": false,
      "t": 19499.980500000012,
      "d": 214.28550000000178,
      "v": 127
    },
    {
      "midi": 67,
      "hit": false,
      "t": 19714.26600000001,
      "d": 214.28550000000178,
      "v": 127
    },
    {
      "midi": 70,
      "hit": false,
      "t": 19928.551500000012,
      "d": 107.14274999999907,
      "v": 127
    },
    {
      "midi": 68,
      "hit": false,
      "t": 20035.69425000001,
      "d": 107.14274999999907,
      "v": 127
    },
    {
      "midi": 65,
      "hit": false,
      "t": 20142.83700000001,
      "d": 428.5709999999999,
      "v": 127
    },
    {
      "midi": 62,
      "hit": false,
      "t": 20249.979750000013,
      "d": 107.14274999999907,
      "v": 127
    },
    {
      "midi": 58,
      "hit": false,
      "t": 20357.122500000012,
      "d": 214.28550000000178,
      "v": 127
    },
    {
      "midi": 70,
      "hit": false,
      "t": 20571.408000000014,
      "d": 214.28550000000178,
      "v": 127
    },
    {
      "midi": 72,
      "hit": false,
      "t": 20785.693500000016,
      "d": 428.5709999999999,
      "v": 127
    },
    {
      "midi": 75,
      "hit": false,
      "t": 20892.83625000001,
      "d": 107.14274999999907,
      "v": 127
    },
    {
      "midi": 80,
      "hit": false,
      "t": 20999.97900000001,
      "d": 107.14274999999907,
      "v": 127
    },
    {
      "midi": 87,
      "hit": false,
      "t": 21107.12175000001,
      "d": 107.14274999999907,
      "v": 127
    },
    {
      "midi": 80,
      "hit": false,
      "t": 21214.26450000001,
      "d": 214.28550000000178,
      "v": 127
    },
    {
      "midi": 70,
      "hit": false,
      "t": 21214.264500000016,
      "d": 214.28550000000178,
      "v": 127
    },
    {
      "midi": 79,
      "hit": false,
      "t": 21428.55000000001,
      "d": 321.42825000000084,
      "v": 127
    },
    {
      "midi": 68,
      "hit": false,
      "t": 21642.83550000002,
      "d": 428.5709999999999,
      "v": 127
    },
    {
      "midi": 72,
      "hit": false,
      "t": 21749.97825000001,
      "d": 107.14274999999907,
      "v": 127
    },
    {
      "midi": 77,
      "hit": false,
      "t": 21857.12100000001,
      "d": 107.14274999999907,
      "v": 127
    },
    {
      "midi": 84,
      "hit": false,
      "t": 21964.26375000001,
      "d": 107.14274999999907,
      "v": 127
    },
    {
      "midi": 77,
      "hit": false,
      "t": 22071.40650000001,
      "d": 214.28550000000178,
      "v": 127
    },
    {
      "midi": 67,
      "hit": false,
      "t": 22071.40650000002,
      "d": 214.28550000000178,
      "v": 127
    },
    {
      "midi": 75,
      "hit": false,
      "t": 22285.69200000001,
      "d": 321.42825000000084,
      "v": 127
    },
    {
      "midi": 65,
      "hit": false,
      "t": 22499.977500000023,
      "d": 642.8565000000017,
      "v": 127
    },
    {
      "midi": 68,
      "hit": false,
      "t": 22607.12025000001,
      "d": 107.14274999999907,
      "v": 127
    },
    {
      "midi": 74,
      "hit": false,
      "t": 22714.26300000001,
      "d": 107.14274999999907,
      "v": 127
    },
    {
      "midi": 80,
      "hit": false,
      "t": 22821.40575000001,
      "d": 107.14274999999907,
      "v": 127
    },
    {
      "midi": 74,
      "hit": false,
      "t": 22928.548500000008,
      "d": 214.28550000000178,
      "v": 127
    },
    {
      "midi": 75,
      "hit": false,
      "t": 23142.83400000001,
      "d": 214.28550000000178,
      "v": 127
    },
    {
      "midi": 63,
      "hit": false,
      "t": 23142.834000000024,
      "d": 214.28550000000178,
      "v": 127
    },
    {
      "midi": 76,
      "hit": false,
      "t": 23357.11950000001,
      "d": 214.28550000000178,
      "v": 127
    },
    {
      "midi": 58,
      "hit": false,
      "t": 23357.119500000026,
      "d": 428.5709999999999,
      "v": 127
    },
    {
      "midi": 62,
      "hit": false,
      "t": 23357.119500000026,
      "d": 428.5709999999999,
      "v": 127
    },
    {
      "midi": 77,
      "hit": false,
      "t": 23571.405000000013,
      "d": 428.5709999999999,
      "v": 127
    },
    {
      "midi": 70,
      "hit": false,
      "t": 23999.976000000013,
      "d": 214.28550000000178,
      "v": 127
    },
    {
      "midi": 75,
      "hit": false,
      "t": 24214.261500000015,
      "d": 107.14274999999907,
      "v": 127
    },
    {
      "midi": 70,
      "hit": false,
      "t": 24321.404250000014,
      "d": 107.14274999999907,
      "v": 127
    },
    {
      "midi": 67,
      "hit": false,
      "t": 24428.547000000013,
      "d": 428.5709999999999,
      "v": 127
    },
    {
      "midi": 63,
      "hit": false,
      "t": 24535.689750000027,
      "d": 107.14274999999907,
      "v": 127
    },
    {
      "midi": 51,
      "hit": false,
      "t": 24642.832500000026,
      "d": 214.28550000000178,
      "v": 127
    },
    {
      "midi": 67,
      "hit": false,
      "t": 24857.118000000013,
      "d": 214.28550000000178,
      "v": 127
    },
    {
      "midi": 70,
      "hit": false,
      "t": 25071.403500000015,
      "d": 107.14274999999907,
      "v": 127
    },
    {
      "midi": 68,
      "hit": false,
      "t": 25178.546250000014,
      "d": 107.14274999999907,
      "v": 127
    },
    {
      "midi": 65,
      "hit": false,
      "t": 25285.689000000013,
      "d": 428.5709999999999,
      "v": 127
    },
    {
      "midi": 62,
      "hit": false,
      "t": 25392.831750000027,
      "d": 107.14274999999907,
      "v": 127
    },
    {
      "midi": 58,
      "hit": false,
      "t": 25499.974500000026,
      "d": 214.28550000000178,
      "v": 127
    },
    {
      "midi": 70,
      "hit": false,
      "t": 25714.260000000013,
      "d": 214.28550000000178,
      "v": 127
    },
    {
      "midi": 75,
      "hit": false,
      "t": 25928.545500000015,
      "d": 107.14274999999907,
      "v": 127
    },
    {
      "midi": 69,
      "hit": false,
      "t": 26035.688250000014,
      "d": 107.14274999999907,
      "v": 127
    },
    {
      "midi": 63,
      "hit": false,
      "t": 26142.831000000013,
      "d": 428.5709999999999,
      "v": 127
    },
    {
      "midi": 60,
      "hit": false,
      "t": 26249.973750000026,
      "d": 107.14274999999907,
      "v": 127
    },
    {
      "midi": 53,
      "hit": false,
      "t": 26357.116500000026,
      "d": 214.28550000000178,
      "v": 127
    },
    {
      "midi": 70,
      "hit": false,
      "t": 26571.402000000013,
      "d": 214.28550000000178,
      "v": 127
    },
    {
      "midi": 74,
      "hit": false,
      "t": 26571.402000000013,
      "d": 214.28550000000178,
      "v": 127
    },
    {
      "midi": 75,
      "hit": false,
      "t": 26785.687500000015,
      "d": 107.14274999999907,
      "v": 127
    },
    {
      "midi": 69,
      "hit": false,
      "t": 26892.830250000014,
      "d": 107.14274999999907,
      "v": 127
    },
    {
      "midi": 63,
      "hit": false,
      "t": 26999.973000000013,
      "d": 428.5709999999999,
      "v": 127
    },
    {
      "midi": 60,
      "hit": false,
      "t": 27107.115750000026,
      "d": 107.14274999999907,
      "v": 127
    },
    {
      "midi": 53,
      "hit": false,
      "t": 27214.258500000025,
      "d": 214.28550000000178,
      "v": 127
    },
    {
      "midi": 70,
      "hit": false,
      "t": 27428.544000000013,
      "d": 428.5709999999999,
      "v": 127
    },
    {
      "midi": 74,
      "hit": false,
      "t": 27428.544000000013,
      "d": 428.5709999999999,
      "v": 127
    },
    {
      "midi": 51,
      "hit": false,
      "t": 27642.82950000003,
      "d": 107.14274999999907,
      "v": 127
    },
    {
      "midi": 63,
      "hit": false,
      "t": 27749.972250000028,
      "d": 107.14274999999907,
      "v": 127
    },
    {
      "midi": 67,
      "hit": false,
      "t": 27857.115000000013,
      "d": 107.14274999999907,
      "v": 127
    },
    {
      "midi": 72,
      "hit": false,
      "t": 27964.25775000001,
      "d": 107.14274999999907,
      "v": 127
    },
    {
      "midi": 79,
      "hit": false,
      "t": 28071.40050000001,
      "d": 214.28550000000178,
      "v": 127
    },
    {
      "midi": 63,
      "hit": false,
      "t": 28285.686000000012,
      "d": 214.28550000000178,
      "v": 127
    },
    {
      "midi": 69,
      "hit": false,
      "t": 28285.686000000012,
      "d": 214.28550000000178,
      "v": 127
    },
    {
      "midi": 53,
      "hit": false,
      "t": 28285.686000000027,
      "d": 214.28550000000178,
      "v": 127
    },
    {
      "midi": 62,
      "hit": false,
      "t": 28499.971500000014,
      "d": 428.5709999999999,
      "v": 127
    },
    {
      "midi": 70,
      "hit": false,
      "t": 28499.971500000014,
      "d": 428.5709999999999,
      "v": 127
    },
    {
      "midi": 46,
      "hit": false,
      "t": 28499.97150000003,
      "d": 214.28550000000178,
      "v": 127
    },
    {
      "midi": 58,
      "hit": false,
      "t": 28714.25700000003,
      "d": 214.28550000000178,
      "v": 127
    },
    {
      "midi": 46,
      "hit": false,
      "t": 28928.542500000032,
      "d": 214.28550000000178,
      "v": 127
    },
    {
      "midi": 74,
      "hit": false,
      "t": 29142.828000000016,
      "d": 107.14274999999907,
      "v": 127
    },
    {
      "midi": 68,
      "hit": false,
      "t": 29249.970750000015,
      "d": 107.14274999999907,
      "v": 127
    },
    {
      "midi": 77,
      "hit": false,
      "t": 29357.113500000014,
      "d": 107.14274999999907,
      "v": 127
    },
    {
      "midi": 74,
      "hit": false,
      "t": 29464.256250000013,
      "d": 107.14274999999907,
      "v": 127
    },
    {
      "midi": 68,
      "hit": false,
      "t": 29571.399000000012,
      "d": 428.5709999999999,
      "v": 127
    },
    {
      "midi": 62,
      "hit": false,
      "t": 29678.541750000033,
      "d": 107.14274999999907,
      "v": 127
    },
    {
      "midi": 58,
      "hit": false,
      "t": 29785.684500000032,
      "d": 214.28550000000178,
      "v": 127
    },
    {
      "midi": 68,
      "hit": false,
      "t": 29999.970000000012,
      "d": 107.14274999999907,
      "v": 127
    },
    {
      "midi": 65,
      "hit": false,
      "t": 30107.11275000001,
      "d": 107.14274999999907,
      "v": 127
    },
    {
      "midi": 67,
      "hit": false,
      "t": 30214.25550000001,
      "d": 107.14274999999907,
      "v": 127
    },
    {
      "midi": 63,
      "hit": false,
      "t": 30321.39825000001,
      "d": 107.14274999999907,
      "v": 127
    },
    {
      "midi": 58,
      "hit": false,
      "t": 30428.541000000034,
      "d": 107.14274999999907,
      "v": 127
    },
    {
      "midi": 55,
      "hit": false,
      "t": 30535.683750000033,
      "d": 107.14274999999907,
      "v": 127
    },
    {
      "midi": 51,
      "hit": false,
      "t": 30642.826500000032,
      "d": 214.28550000000178,
      "v": 127
    },
    {
      "midi": 70,
      "hit": false,
      "t": 30857.11200000001,
      "d": 107.14274999999907,
      "v": 127
    },
    {
      "midi": 67,
      "hit": false,
      "t": 30964.254750000007,
      "d": 107.14274999999907,
      "v": 127
    },
    {
      "midi": 72,
      "hit": false,
      "t": 31071.397500000006,
      "d": 107.14274999999907,
      "v": 127
    },
    {
      "midi": 68,
      "hit": false,
      "t": 31178.540250000005,
      "d": 107.14274999999907,
      "v": 127
    },
    {
      "midi": 65,
      "hit": false,
      "t": 31285.683000000005,
      "d": 428.5709999999999,
      "v": 127
    },
    {
      "midi": 60,
      "hit": false,
      "t": 31392.825750000033,
      "d": 107.14274999999907,
      "v": 127
    },
    {
      "midi": 56,
      "hit": false,
      "t": 31499.96850000003,
      "d": 214.28550000000178,
      "v": 127
    },
    {
      "midi": 63,
      "hit": false,
      "t": 31714.254000000004,
      "d": 107.14274999999907,
      "v": 127
    },
    {
      "midi": 60,
      "hit": false,
      "t": 31821.396750000004,
      "d": 107.14274999999907,
      "v": 127
    },
    {
      "midi": 62,
      "hit": false,
      "t": 31928.539500000003,
      "d": 107.14274999999907,
      "v": 127
    },
    {
      "midi": 58,
      "hit": false,
      "t": 32035.68225,
      "d": 107.14274999999907,
      "v": 127
    },
    {
      "midi": 53,
      "hit": false,
      "t": 32142.825000000033,
      "d": 107.14274999999907,
      "v": 127
    },
    {
      "midi": 50,
      "hit": false,
      "t": 32249.967750000033,
      "d": 107.14274999999907,
      "v": 127
    },
    {
      "midi": 46,
      "hit": false,
      "t": 32357.11050000003,
      "d": 214.28550000000178,
      "v": 127
    },
    {
      "midi": 55,
      "hit": false,
      "t": 32571.396000000033,
      "d": 214.28550000000178,
      "v": 127
    },
    {
      "midi": 56,
      "hit": false,
      "t": 32785.681500000035,
      "d": 642.8565000000017,
      "v": 127
    },
    {
      "midi": 60,
      "hit": false,
      "t": 32892.82425,
      "d": 107.14274999999907,
      "v": 127
    },
    {
      "midi": 65,
      "hit": false,
      "t": 32999.967,
      "d": 107.14274999999907,
      "v": 127
    },
    {
      "midi": 72,
      "hit": false,
      "t": 33107.109749999996,
      "d": 107.14274999999907,
      "v": 127
    },
    {
      "midi": 62,
      "hit": false,
      "t": 33214.252499999995,
      "d": 214.28549999999814,
      "v": 127
    },
    {
      "midi": 63,
      "hit": false,
      "t": 33428.53799999999,
      "d": 321.4282499999972,
      "v": 127
    },
    {
      "midi": 55,
      "hit": false,
      "t": 33428.53800000004,
      "d": 214.28549999999814,
      "v": 127
    },
    {
      "midi": 60,
      "hit": false,
      "t": 33642.823500000035,
      "d": 642.8565000000017,
      "v": 127
    },
    {
      "midi": 63,
      "hit": false,
      "t": 33749.96624999999,
      "d": 107.14274999999907,
      "v": 127
    },
    {
      "midi": 68,
      "hit": false,
      "t": 33857.10899999999,
      "d": 107.14274999999907,
      "v": 127
    },
    {
      "midi": 75,
      "hit": false,
      "t": 33964.25174999999,
      "d": 107.14274999999907,
      "v": 127
    },
    {
      "midi": 68,
      "hit": false,
      "t": 34071.39449999999,
      "d": 214.28549999999814,
      "v": 127
    },
    {
      "midi": 67,
      "hit": false,
      "t": 34285.679999999986,
      "d": 321.4282499999972,
      "v": 127
    },
    {
      "midi": 58,
      "hit": false,
      "t": 34285.68000000004,
      "d": 214.28549999999814,
      "v": 127
    },
    {
      "midi": 68,
      "hit": false,
      "t": 34499.965500000035,
      "d": 642.8565000000017,
      "v": 127
    },
    {
      "midi": 72,
      "hit": false,
      "t": 34607.10824999998,
      "d": 107.14274999999907,
      "v": 127
    },
    {
      "midi": 77,
      "hit": false,
      "t": 34714.25099999998,
      "d": 107.14274999999907,
      "v": 127
    },
    {
      "midi": 84,
      "hit": false,
      "t": 34821.39374999998,
      "d": 107.14274999999907,
      "v": 127
    },
    {
      "midi": 74,
      "hit": false,
      "t": 34928.53649999998,
      "d": 214.28549999999814,
      "v": 127
    },
    {
      "midi": 75,
      "hit": false,
      "t": 35142.82199999998,
      "d": 321.4282499999972,
      "v": 127
    },
    {
      "midi": 67,
      "hit": false,
      "t": 35142.82200000004,
      "d": 214.28549999999814,
      "v": 127
    },
    {
      "midi": 65,
      "hit": false,
      "t": 35357.107500000035,
      "d": 642.8565000000017,
      "v": 127
    },
    {
      "midi": 68,
      "hit": false,
      "t": 35464.250249999975,
      "d": 107.14274999999907,
      "v": 127
    },
    {
      "midi": 74,
      "hit": false,
      "t": 35571.392999999975,
      "d": 107.14274999999907,
      "v": 127
    },
    {
      "midi": 80,
      "hit": false,
      "t": 35678.53574999997,
      "d": 107.14274999999907,
      "v": 127
    },
    {
      "midi": 78,
      "hit": false,
      "t": 35785.67849999997,
      "d": 214.28549999999814,
      "v": 127
    },
    {
      "midi": 79,
      "hit": false,
      "t": 35999.96399999997,
      "d": 428.57100000000355,
      "v": 127
    },
    {
      "midi": 63,
      "hit": false,
      "t": 35999.964000000036,
      "d": 214.28549999999814,
      "v": 127
    },
    {
      "midi": 56,
      "hit": false,
      "t": 36214.249500000034,
      "d": 107.14274999999907,
      "v": 127
    },
    {
      "midi": 65,
      "hit": false,
      "t": 36321.39225000003,
      "d": 107.14274999999907,
      "v": 127
    },
    {
      "midi": 72,
      "hit": false,
      "t": 36428.534999999974,
      "d": 107.14274999999907,
      "v": 127
    },
    {
      "midi": 77,
      "hit": false,
      "t": 36535.67774999997,
      "d": 107.14274999999907,
      "v": 127
    },
    {
      "midi": 80,
      "hit": false,
      "t": 36642.82049999997,
      "d": 214.28549999999814,
      "v": 127
    },
    {
      "midi": 68,
      "hit": false,
      "t": 36857.10599999997,
      "d": 214.28549999999814,
      "v": 127
    },
    {
      "midi": 74,
      "hit": false,
      "t": 36857.10599999997,
      "d": 214.28549999999814,
      "v": 127
    },
    {
      "midi": 58,
      "hit": false,
      "t": 36857.106000000036,
      "d": 214.28549999999814,
      "v": 127
    },
    {
      "midi": 67,
      "hit": false,
      "t": 37071.39149999997,
      "d": 428.57100000000355,
      "v": 127
    },
    {
      "midi": 75,
      "hit": false,
      "t": 37071.39149999997,
      "d": 428.57100000000355,
      "v": 127
    },
    {
      "midi": 51,
      "hit": false,
      "t": 37071.391500000034,
      "d": 214.28549999999814,
      "v": 127
    },
    {
      "midi": 63,
      "hit": false,
      "t": 37285.67700000003,
      "d": 214.28549999999814,
      "v": 127
    },
    {
      "midi": 51,
      "hit": false,
      "t": 37499.96250000003,
      "d": 214.28549999999814,
      "v": 127
    },
    {
      "midi": 82,
      "hit": false,
      "t": 37714.24799999997,
      "d": 71.4285000000018,
      "v": 127
    },
    {
      "midi": 84,
      "hit": false,
      "t": 37785.67649999997,
      "d": 71.4285000000018,
      "v": 127
    },
    {
      "midi": 82,
      "hit": false,
      "t": 37857.104999999974,
      "d": 71.4285000000018,
      "v": 127
    },
    {
      "midi": 79,
      "hit": false,
      "t": 37928.533499999976,
      "d": 214.28549999999814,
      "v": 127
    },
    {
      "midi": 63,
      "hit": false,
      "t": 38142.81900000003,
      "d": 214.28549999999814,
      "v": 127
    },
    {
      "midi": 70,
      "hit": false,
      "t": 38142.81900000003,
      "d": 214.28549999999814,
      "v": 127
    },
    {
      "midi": 63,
      "hit": false,
      "t": 38357.10450000003,
      "d": 214.28549999999814,
      "v": 127
    },
    {
      "midi": 70,
      "hit": false,
      "t": 38357.10450000003,
      "d": 214.28549999999814,
      "v": 127
    },
    {
      "midi": 82,
      "hit": false,
      "t": 38571.38999999998,
      "d": 71.4285000000018,
      "v": 127
    },
    {
      "midi": 84,
      "hit": false,
      "t": 38642.81849999998,
      "d": 71.4285000000018,
      "v": 127
    },
    {
      "midi": 82,
      "hit": false,
      "t": 38714.24699999998,
      "d": 71.4285000000018,
      "v": 127
    },
    {
      "midi": 77,
      "hit": false,
      "t": 38785.67549999998,
      "d": 214.28549999999814,
      "v": 127
    },
    {
      "midi": 62,
      "hit": false,
      "t": 38999.96100000003,
      "d": 214.28549999999814,
      "v": 127
    },
    {
      "midi": 70,
      "hit": false,
      "t": 38999.96100000003,
      "d": 214.28549999999814,
      "v": 127
    },
    {
      "midi": 62,
      "hit": false,
      "t": 39214.24650000003,
      "d": 214.28549999999814,
      "v": 127
    },
    {
      "midi": 70,
      "hit": false,
      "t": 39214.24650000003,
      "d": 214.28549999999814,
      "v": 127
    },
    {
      "midi": 82,
      "hit": false,
      "t": 39428.531999999985,
      "d": 71.4285000000018,
      "v": 127
    },
    {
      "midi": 84,
      "hit": false,
      "t": 39499.96049999999,
      "d": 71.4285000000018,
      "v": 127
    },
    {
      "midi": 82,
      "hit": false,
      "t": 39571.38899999999,
      "d": 71.4285000000018,
      "v": 127
    },
    {
      "midi": 87,
      "hit": false,
      "t": 39642.81749999999,
      "d": 214.28549999999814,
      "v": 127
    },
    {
      "midi": 80,
      "hit": false,
      "t": 39857.10299999999,
      "d": 214.28549999999814,
      "v": 127
    },
    {
      "midi": 72,
      "hit": false,
      "t": 39857.10300000003,
      "d": 214.28549999999814,
      "v": 127
    },
    {
      "midi": 75,
      "hit": false,
      "t": 39857.10300000003,
      "d": 214.28549999999814,
      "v": 127
    },
    {
      "midi": 80,
      "hit": false,
      "t": 40071.38849999999,
      "d": 214.28549999999814,
      "v": 127
    },
    {
      "midi": 72,
      "hit": false,
      "t": 40071.38850000003,
      "d": 214.28549999999814,
      "v": 127
    },
    {
      "midi": 75,
      "hit": false,
      "t": 40071.38850000003,
      "d": 214.28549999999814,
      "v": 127
    },
    {
      "midi": 79,
      "hit": false,
      "t": 40285.673999999985,
      "d": 214.28549999999814,
      "v": 127
    },
    {
      "midi": 74,
      "hit": false,
      "t": 40285.67400000003,
      "d": 428.57100000000355,
      "v": 127
    },
    {
      "midi": 77,
      "hit": false,
      "t": 40285.67400000003,
      "d": 428.57100000000355,
      "v": 127
    },
    {
      "midi": 84,
      "hit": false,
      "t": 40499.95949999998,
      "d": 214.28549999999814,
      "v": 127
    },
    {
      "midi": 77,
      "hit": false,
      "t": 40714.24499999998,
      "d": 214.28549999999814,
      "v": 127
    },
    {
      "midi": 68,
      "hit": false,
      "t": 40714.24500000003,
      "d": 214.28549999999814,
      "v": 127
    },
    {
      "midi": 72,
      "hit": false,
      "t": 40714.24500000003,
      "d": 214.28549999999814,
      "v": 127
    },
    {
      "midi": 77,
      "hit": false,
      "t": 40928.53049999998,
      "d": 214.28549999999814,
      "v": 127
    },
    {
      "midi": 68,
      "hit": false,
      "t": 40928.53050000003,
      "d": 214.28549999999814,
      "v": 127
    },
    {
      "midi": 72,
      "hit": false,
      "t": 40928.53050000003,
      "d": 214.28549999999814,
      "v": 127
    },
    {
      "midi": 75,
      "hit": false,
      "t": 41142.81599999998,
      "d": 214.28549999999814,
      "v": 127
    },
    {
      "midi": 67,
      "hit": false,
      "t": 41142.81600000003,
      "d": 428.57100000000355,
      "v": 127
    },
    {
      "midi": 70,
      "hit": false,
      "t": 41142.81600000003,
      "d": 428.57100000000355,
      "v": 127
    },
    {
      "midi": 74,
      "hit": false,
      "t": 41357.101499999975,
      "d": 214.28549999999814,
      "v": 127
    },
    {
      "midi": 77,
      "hit": false,
      "t": 41571.38699999997,
      "d": 428.57100000000355,
      "v": 127
    },
    {
      "midi": 80,
      "hit": false,
      "t": 41571.38699999997,
      "d": 428.57100000000355,
      "v": 127
    },
    {
      "midi": 62,
      "hit": false,
      "t": 41571.38700000003,
      "d": 214.28549999999814,
      "v": 127
    },
    {
      "midi": 63,
      "hit": false,
      "t": 41785.67250000003,
      "d": 214.28549999999814,
      "v": 127
    },
    {
      "midi": 75,
      "hit": false,
      "t": 41999.95799999998,
      "d": 214.28549999999814,
      "v": 127
    },
    {
      "midi": 79,
      "hit": false,
      "t": 41999.95799999998,
      "d": 214.28549999999814,
      "v": 127
    },
    {
      "midi": 57,
      "hit": false,
      "t": 41999.95800000003,
      "d": 214.28549999999814,
      "v": 127
    },
    {
      "midi": 75,
      "hit": false,
      "t": 42214.243499999975,
      "d": 214.28549999999814,
      "v": 127
    },
    {
      "midi": 79,
      "hit": false,
      "t": 42214.243499999975,
      "d": 214.28549999999814,
      "v": 127
    },
    {
      "midi": 58,
      "hit": false,
      "t": 42214.243500000026,
      "d": 428.57100000000355,
      "v": 127
    },
    {
      "midi": 74,
      "hit": false,
      "t": 42428.52899999997,
      "d": 428.57100000000355,
      "v": 127
    },
    {
      "midi": 77,
      "hit": false,
      "t": 42428.52899999997,
      "d": 428.57100000000355,
      "v": 127
    },
    {
      "midi": 58,
      "hit": false,
      "t": 42857.09999999998,
      "d": 71.4285000000018,
      "v": 127
    },
    {
      "midi": 60,
      "hit": false,
      "t": 42928.52849999998,
      "d": 71.4285000000018,
      "v": 127
    },
    {
      "midi": 58,
      "hit": false,
      "t": 42999.95699999998,
      "d": 71.4285000000018,
      "v": 127
    },
    {
      "midi": 55,
      "hit": false,
      "t": 43071.38549999998,
      "d": 214.28549999999814,
      "v": 127
    },
    {
      "midi": 39,
      "hit": false,
      "t": 43285.67100000003,
      "d": 214.28549999999814,
      "v": 127
    },
    {
      "midi": 46,
      "hit": false,
      "t": 43285.67100000003,
      "d": 214.28549999999814,
      "v": 127
    },
    {
      "midi": 39,
      "hit": false,
      "t": 43499.95650000003,
      "d": 214.28549999999814,
      "v": 127
    },
    {
      "midi": 46,
      "hit": false,
      "t": 43499.95650000003,
      "d": 214.28549999999814,
      "v": 127
    },
    {
      "midi": 58,
      "hit": false,
      "t": 43714.241999999984,
      "d": 71.4285000000018,
      "v": 127
    },
    {
      "midi": 60,
      "hit": false,
      "t": 43785.670499999986,
      "d": 71.4285000000018,
      "v": 127
    },
    {
      "midi": 58,
      "hit": false,
      "t": 43857.09899999999,
      "d": 71.4285000000018,
      "v": 127
    },
    {
      "midi": 53,
      "hit": false,
      "t": 43928.52749999999,
      "d": 214.28549999999814,
      "v": 127
    },
    {
      "midi": 38,
      "hit": false,
      "t": 44142.81300000003,
      "d": 214.28549999999814,
      "v": 127
    },
    {
      "midi": 46,
      "hit": false,
      "t": 44142.81300000003,
      "d": 214.28549999999814,
      "v": 127
    },
    {
      "midi": 38,
      "hit": false,
      "t": 44357.09850000003,
      "d": 214.28549999999814,
      "v": 127
    },
    {
      "midi": 46,
      "hit": false,
      "t": 44357.09850000003,
      "d": 214.28549999999814,
      "v": 127
    },
    {
      "midi": 58,
      "hit": false,
      "t": 44571.38399999999,
      "d": 71.4285000000018,
      "v": 127
    },
    {
      "midi": 60,
      "hit": false,
      "t": 44642.81249999999,
      "d": 71.4285000000018,
      "v": 127
    },
    {
      "midi": 58,
      "hit": false,
      "t": 44714.240999999995,
      "d": 71.4285000000018,
      "v": 127
    },
    {
      "midi": 57,
      "hit": false,
      "t": 44785.669499999996,
      "d": 214.28549999999814,
      "v": 127
    },
    {
      "midi": 36,
      "hit": false,
      "t": 44785.669500000025,
      "d": 428.57100000000355,
      "v": 127
    },
    {
      "midi": 48,
      "hit": false,
      "t": 44785.669500000025,
      "d": 428.57100000000355,
      "v": 127
    },
    {
      "midi": 63,
      "hit": false,
      "t": 44999.954999999994,
      "d": 428.57100000000355,
      "v": 127
    },
    {
      "midi": 34,
      "hit": false,
      "t": 45214.24050000003,
      "d": 214.28549999999814,
      "v": 127
    },
    {
      "midi": 46,
      "hit": false,
      "t": 45214.24050000003,
      "d": 214.28549999999814,
      "v": 127
    },
    {
      "midi": 62,
      "hit": false,
      "t": 45428.526,
      "d": 214.28549999999814,
      "v": 127
    },
    {
      "midi": 60,
      "hit": false,
      "t": 45642.811499999996,
      "d": 214.28549999999814,
      "v": 127
    },
    {
      "midi": 39,
      "hit": false,
      "t": 45642.811500000025,
      "d": 428.57100000000355,
      "v": 127
    },
    {
      "midi": 51,
      "hit": false,
      "t": 45642.811500000025,
      "d": 428.57100000000355,
      "v": 127
    },
    {
      "midi": 67,
      "hit": false,
      "t": 45857.096999999994,
      "d": 428.57100000000355,
      "v": 127
    },
    {
      "midi": 38,
      "hit": false,
      "t": 46071.38250000003,
      "d": 214.28549999999814,
      "v": 127
    },
    {
      "midi": 50,
      "hit": false,
      "t": 46071.38250000003,
      "d": 214.28549999999814,
      "v": 127
    },
    {
      "midi": 65,
      "hit": false,
      "t": 46285.668,
      "d": 428.57100000000355,
      "v": 127
    },
    {
      "midi": 39,
      "hit": false,
      "t": 46499.953500000025,
      "d": 428.57100000000355,
      "v": 127
    },
    {
      "midi": 51,
      "hit": false,
      "t": 46499.953500000025,
      "d": 428.57100000000355,
      "v": 127
    },
    {
      "midi": 63,
      "hit": false,
      "t": 46714.239,
      "d": 214.28549999999814,
      "v": 127
    },
    {
      "midi": 62,
      "hit": false,
      "t": 46928.5245,
      "d": 214.28549999999814,
      "v": 127
    },
    {
      "midi": 41,
      "hit": false,
      "t": 46928.52450000003,
      "d": 214.28549999999814,
      "v": 127
    },
    {
      "midi": 53,
      "hit": false,
      "t": 46928.52450000003,
      "d": 214.28549999999814,
      "v": 127
    },
    {
      "midi": 60,
      "hit": false,
      "t": 47142.81,
      "d": 214.28549999999814,
      "v": 127
    },
    {
      "midi": 61,
      "hit": false,
      "t": 47357.095499999996,
      "d": 214.28549999999814,
      "v": 127
    },
    {
      "midi": 46,
      "hit": false,
      "t": 47357.095500000025,
      "d": 428.57100000000355,
      "v": 127
    },
    {
      "midi": 62,
      "hit": false,
      "t": 47571.380999999994,
      "d": 428.57100000000355,
      "v": 127
    },
    {
      "midi": 34,
      "hit": false,
      "t": 47785.66650000003,
      "d": 214.28549999999814,
      "v": 127
    },
    {
      "midi": 77,
      "hit": false,
      "t": 47999.952,
      "d": 71.4285000000018,
      "v": 127
    },
    {
      "midi": 79,
      "hit": false,
      "t": 48071.3805,
      "d": 71.4285000000018,
      "v": 127
    },
    {
      "midi": 77,
      "hit": false,
      "t": 48142.809,
      "d": 71.4285000000018,
      "v": 127
    },
    {
      "midi": 68,
      "hit": false,
      "t": 48214.2375,
      "d": 214.28549999999814,
      "v": 127
    },
    {
      "midi": 46,
      "hit": false,
      "t": 48428.52300000003,
      "d": 214.28549999999814,
      "v": 127
    },
    {
      "midi": 58,
      "hit": false,
      "t": 48428.52300000003,
      "d": 214.28549999999814,
      "v": 127
    },
    {
      "midi": 46,
      "hit": false,
      "t": 48642.80850000003,
      "d": 214.28549999999814,
      "v": 127
    },
    {
      "midi": 58,
      "hit": false,
      "t": 48642.80850000003,
      "d": 214.28549999999814,
      "v": 127
    },
    {
      "midi": 77,
      "hit": false,
      "t": 48857.094000000005,
      "d": 71.4285000000018,
      "v": 127
    },
    {
      "midi": 79,
      "hit": false,
      "t": 48928.52250000001,
      "d": 71.4285000000018,
      "v": 127
    },
    {
      "midi": 77,
      "hit": false,
      "t": 48999.95100000001,
      "d": 71.4285000000018,
      "v": 127
    },
    {
      "midi": 67,
      "hit": false,
      "t": 49071.37950000001,
      "d": 214.28549999999814,
      "v": 127
    },
    {
      "midi": 51,
      "hit": false,
      "t": 49285.66500000003,
      "d": 214.28549999999814,
      "v": 127
    },
    {
      "midi": 58,
      "hit": false,
      "t": 49285.66500000003,
      "d": 214.28549999999814,
      "v": 127
    },
    {
      "midi": 51,
      "hit": false,
      "t": 49499.95050000003,
      "d": 214.28549999999814,
      "v": 127
    },
    {
      "midi": 58,
      "hit": false,
      "t": 49499.95050000003,
      "d": 214.28549999999814,
      "v": 127
    },
    {
      "midi": 72,
      "hit": false,
      "t": 49714.23600000001,
      "d": 71.4285000000018,
      "v": 127
    },
    {
      "midi": 74,
      "hit": false,
      "t": 49785.66450000001,
      "d": 71.4285000000018,
      "v": 127
    },
    {
      "midi": 72,
      "hit": false,
      "t": 49857.093000000015,
      "d": 71.4285000000018,
      "v": 127
    },
    {
      "midi": 63,
      "hit": false,
      "t": 49928.52150000002,
      "d": 214.28549999999814,
      "v": 127
    },
    {
      "midi": 45,
      "hit": false,
      "t": 50142.80700000003,
      "d": 214.28549999999814,
      "v": 127
    },
    {
      "midi": 53,
      "hit": false,
      "t": 50142.80700000003,
      "d": 214.28549999999814,
      "v": 127
    },
    {
      "midi": 45,
      "hit": false,
      "t": 50357.09250000003,
      "d": 214.28549999999814,
      "v": 127
    },
    {
      "midi": 53,
      "hit": false,
      "t": 50357.09250000003,
      "d": 214.28549999999814,
      "v": 127
    },
    {
      "midi": 72,
      "hit": false,
      "t": 50571.37800000002,
      "d": 71.4285000000018,
      "v": 127
    },
    {
      "midi": 74,
      "hit": false,
      "t": 50642.80650000002,
      "d": 71.4285000000018,
      "v": 127
    },
    {
      "midi": 72,
      "hit": false,
      "t": 50714.23500000002,
      "d": 71.4285000000018,
      "v": 127
    },
    {
      "midi": 62,
      "hit": false,
      "t": 50785.663500000024,
      "d": 214.28549999999814,
      "v": 127
    },
    {
      "midi": 46,
      "hit": false,
      "t": 50999.94900000003,
      "d": 214.28549999999814,
      "v": 127
    },
    {
      "midi": 53,
      "hit": false,
      "t": 50999.94900000003,
      "d": 214.28549999999814,
      "v": 127
    },
    {
      "midi": 46,
      "hit": false,
      "t": 51214.23450000003,
      "d": 214.28549999999814,
      "v": 127
    },
    {
      "midi": 53,
      "hit": false,
      "t": 51214.23450000003,
      "d": 214.28549999999814,
      "v": 127
    },
    {
      "midi": 58,
      "hit": false,
      "t": 51428.520000000026,
      "d": 214.28549999999814,
      "v": 127
    },
    {
      "midi": 43,
      "hit": false,
      "t": 51428.520000000026,
      "d": 214.28549999999814,
      "v": 127
    },
    {
      "midi": 51,
      "hit": false,
      "t": 51428.520000000026,
      "d": 214.28549999999814,
      "v": 127
    },
    {
      "midi": 56,
      "hit": false,
      "t": 51642.805500000024,
      "d": 214.28549999999814,
      "v": 127
    },
    {
      "midi": 51,
      "hit": false,
      "t": 51642.805500000024,
      "d": 428.57100000000355,
      "v": 127
    },
    {
      "midi": 68,
      "hit": false,
      "t": 51857.09100000002,
      "d": 321.4282499999972,
      "v": 127
    },
    {
      "midi": 53,
      "hit": false,
      "t": 52071.37650000003,
      "d": 214.28549999999814,
      "v": 127
    },
    {
      "midi": 67,
      "hit": false,
      "t": 52178.51925000002,
      "d": 107.14274999999907,
      "v": 127
    },
    {
      "midi": 65,
      "hit": false,
      "t": 52285.66200000002,
      "d": 107.14274999999907,
      "v": 127
    },
    {
      "midi": 63,
      "hit": false,
      "t": 52392.80475000002,
      "d": 107.14274999999907,
      "v": 127
    },
    {
      "midi": 62,
      "hit": false,
      "t": 52499.94750000002,
      "d": 214.28549999999814,
      "v": 127
    },
    {
      "midi": 46,
      "hit": false,
      "t": 52499.947500000024,
      "d": 428.57100000000355,
      "v": 127
    },
    {
      "midi": 70,
      "hit": false,
      "t": 52714.233000000015,
      "d": 321.4282499999972,
      "v": 127
    },
    {
      "midi": 55,
      "hit": false,
      "t": 52928.51850000003,
      "d": 214.28549999999814,
      "v": 127
    },
    {
      "midi": 68,
      "hit": false,
      "t": 53035.66125000001,
      "d": 107.14274999999907,
      "v": 127
    },
    {
      "midi": 67,
      "hit": false,
      "t": 53142.80400000001,
      "d": 107.14274999999907,
      "v": 127
    },
    {
      "midi": 65,
      "hit": false,
      "t": 53249.94675000001,
      "d": 107.14274999999907,
      "v": 127
    },
    {
      "midi": 63,
      "hit": false,
      "t": 53357.08950000001,
      "d": 214.28549999999814,
      "v": 127
    },
    {
      "midi": 48,
      "hit": false,
      "t": 53357.089500000024,
      "d": 428.57100000000355,
      "v": 127
    },
    {
      "midi": 72,
      "hit": false,
      "t": 53571.37500000001,
      "d": 321.4282499999972,
      "v": 127
    },
    {
      "midi": 56,
      "hit": false,
      "t": 53785.66050000003,
      "d": 214.28549999999814,
      "v": 127
    },
    {
      "midi": 70,
      "hit": false,
      "t": 53892.803250000004,
      "d": 107.14274999999907,
      "v": 127
    },
    {
      "midi": 68,
      "hit": false,
      "t": 53999.946,
      "d": 107.14274999999907,
      "v": 127
    },
    {
      "midi": 67,
      "hit": false,
      "t": 54107.08875,
      "d": 107.14274999999907,
      "v": 127
    },
    {
      "midi": 65,
      "hit": false,
      "t": 54214.2315,
      "d": 214.28549999999814,
      "v": 127
    },
    {
      "midi": 50,
      "hit": false,
      "t": 54214.23150000002,
      "d": 214.28549999999814,
      "v": 127
    },
    {
      "midi": 77,
      "hit": false,
      "t": 54428.517,
      "d": 428.57100000000355,
      "v": 127
    },
    {
      "midi": 80,
      "hit": false,
      "t": 54428.517,
      "d": 428.57100000000355,
      "v": 127
    },
    {
      "midi": 58,
      "hit": false,
      "t": 54428.51700000002,
      "d": 214.28549999999814,
      "v": 127
    },
    {
      "midi": 51,
      "hit": false,
      "t": 54642.80250000002,
      "d": 214.28549999999814,
      "v": 127
    },
    {
      "midi": 75,
      "hit": false,
      "t": 54857.088,
      "d": 428.57100000000355,
      "v": 127
    },
    {
      "midi": 79,
      "hit": false,
      "t": 54857.088,
      "d": 428.57100000000355,
      "v": 127
    },
    {
      "midi": 56,
      "hit": false,
      "t": 55071.373500000016,
      "d": 428.57100000000355,
      "v": 127
    },
    {
      "midi": 68,
      "hit": false,
      "t": 55285.65900000001,
      "d": 214.28549999999814,
      "v": 127
    },
    {
      "midi": 77,
      "hit": false,
      "t": 55285.65900000001,
      "d": 214.28549999999814,
      "v": 127
    },
    {
      "midi": 67,
      "hit": false,
      "t": 55499.944500000005,
      "d": 214.28549999999814,
      "v": 127
    },
    {
      "midi": 75,
      "hit": false,
      "t": 55499.944500000005,
      "d": 214.28549999999814,
      "v": 127
    },
    {
      "midi": 65,
      "hit": false,
      "t": 55714.23,
      "d": 214.28549999999814,
      "v": 127
    },
    {
      "midi": 74,
      "hit": false,
      "t": 55714.23,
      "d": 214.28549999999814,
      "v": 127
    },
    {
      "midi": 58,
      "hit": false,
      "t": 55714.23000000002,
      "d": 214.28549999999814,
      "v": 127
    },
    {
      "midi": 67,
      "hit": false,
      "t": 55928.5155,
      "d": 428.57100000000355,
      "v": 127
    },
    {
      "midi": 75,
      "hit": false,
      "t": 55928.5155,
      "d": 428.57100000000355,
      "v": 127
    },
    {
      "midi": 51,
      "hit": false,
      "t": 55928.515500000016,
      "d": 214.28549999999814,
      "v": 127
    },
    {
      "midi": 46,
      "hit": false,
      "t": 56142.801000000014,
      "d": 214.28549999999814,
      "v": 127
    },
    {
      "midi": 39,
      "hit": false,
      "t": 56357.08650000001,
      "d": 214.28549999999814,
      "v": 127
    },
    {
      "midi": 70,
      "hit": false,
      "t": 56571.372,
      "d": 214.28549999999814,
      "v": 127
    },
    {
      "midi": 67,
      "hit": false,
      "t": 56785.6575,
      "d": 214.28549999999814,
      "v": 127
    },
    {
      "midi": 63,
      "hit": false,
      "t": 56999.943000000014,
      "d": 214.28549999999814,
      "v": 127
    },
    {
      "midi": 67,
      "hit": false,
      "t": 57214.22850000001,
      "d": 214.28549999999814,
      "v": 127
    },
    {
      "midi": 70,
      "hit": false,
      "t": 57428.514,
      "d": 214.28549999999814,
      "v": 127
    },
    {
      "midi": 65,
      "hit": false,
      "t": 57642.7995,
      "d": 214.28549999999814,
      "v": 127
    },
    {
      "midi": 62,
      "hit": false,
      "t": 57857.085000000014,
      "d": 214.28549999999814,
      "v": 127
    },
    {
      "midi": 65,
      "hit": false,
      "t": 58071.37050000001,
      "d": 214.28549999999814,
      "v": 127
    },
    {
      "midi": 70,
      "hit": false,
      "t": 58285.656,
      "d": 214.28549999999814,
      "v": 127
    },
    {
      "midi": 75,
      "hit": false,
      "t": 58499.9415,
      "d": 214.28549999999814,
      "v": 127
    },
    {
      "midi": 68,
      "hit": false,
      "t": 58714.227,
      "d": 428.57100000000355,
      "v": 127
    },
    {
      "midi": 60,
      "hit": false,
      "t": 58714.22700000001,
      "d": 214.28549999999814,
      "v": 127
    },
    {
      "midi": 58,
      "hit": false,
      "t": 58928.51250000001,
      "d": 214.28549999999814,
      "v": 127
    },
    {
      "midi": 67,
      "hit": false,
      "t": 59142.798,
      "d": 214.28549999999814,
      "v": 127
    },
    {
      "midi": 72,
      "hit": false,
      "t": 59357.0835,
      "d": 214.28549999999814,
      "v": 127
    },
    {
      "midi": 65,
      "hit": false,
      "t": 59571.369,
      "d": 428.57100000000355,
      "v": 127
    },
    {
      "midi": 56,
      "hit": false,
      "t": 59571.36900000001,
      "d": 214.28549999999814,
      "v": 127
    },
    {
      "midi": 55,
      "hit": false,
      "t": 59785.65450000001,
      "d": 214.28549999999814,
      "v": 127
    },
    {
      "midi": 63,
      "hit": false,
      "t": 59999.94,
      "d": 214.28549999999814,
      "v": 127
    },
    {
      "midi": 62,
      "hit": false,
      "t": 60214.2255,
      "d": 214.28549999999814,
      "v": 127
    },
    {
      "midi": 68,
      "hit": false,
      "t": 60428.511,
      "d": 428.57100000000355,
      "v": 127
    },
    {
      "midi": 53,
      "hit": false,
      "t": 60428.51100000001,
      "d": 214.28549999999814,
      "v": 127
    },
    {
      "midi": 50,
      "hit": false,
      "t": 60642.79650000001,
      "d": 214.28549999999814,
      "v": 127
    },
    {
      "midi": 67,
      "hit": false,
      "t": 60857.082,
      "d": 214.28549999999814,
      "v": 127
    },
    {
      "midi": 51,
      "hit": false,
      "t": 60857.08200000001,
      "d": 214.28549999999814,
      "v": 127
    },
    {
      "midi": 67,
      "hit": false,
      "t": 61071.3675,
      "d": 214.28549999999814,
      "v": 127
    },
    {
      "midi": 46,
      "hit": false,
      "t": 61071.36750000001,
      "d": 214.28549999999814,
      "v": 127
    },
    {
      "midi": 65,
      "hit": false,
      "t": 61285.653,
      "d": 428.57100000000355,
      "v": 127
    },
    {
      "midi": 58,
      "hit": false,
      "t": 61285.653000000006,
      "d": 214.28549999999814,
      "v": 127
    },
    {
      "midi": 46,
      "hit": false,
      "t": 61499.938500000004,
      "d": 214.28549999999814,
      "v": 127
    },
    {
      "midi": 70,
      "hit": false,
      "t": 61714.224,
      "d": 214.28549999999814,
      "v": 127
    },
    {
      "midi": 66,
      "hit": false,
      "t": 61928.5095,
      "d": 214.28549999999814,
      "v": 127
    },
    {
      "midi": 63,
      "hit": false,
      "t": 62142.795000000006,
      "d": 214.28549999999814,
      "v": 127
    },
    {
      "midi": 66,
      "hit": false,
      "t": 62357.080500000004,
      "d": 214.28549999999814,
      "v": 127
    },
    {
      "midi": 70,
      "hit": false,
      "t": 62571.366,
      "d": 214.28549999999814,
      "v": 127
    },
    {
      "midi": 65,
      "hit": false,
      "t": 62785.6515,
      "d": 214.28549999999814,
      "v": 127
    },
    {
      "midi": 61,
      "hit": false,
      "t": 62999.937000000005,
      "d": 214.28549999999814,
      "v": 127
    },
    {
      "midi": 65,
      "hit": false,
      "t": 63214.2225,
      "d": 214.28549999999814,
      "v": 127
    },
    {
      "midi": 70,
      "hit": false,
      "t": 63428.508,
      "d": 214.28549999999814,
      "v": 127
    },
    {
      "midi": 69,
      "hit": false,
      "t": 63642.7935,
      "d": 214.28549999999814,
      "v": 127
    },
    {
      "midi": 75,
      "hit": false,
      "t": 63857.079,
      "d": 428.57100000000355,
      "v": 127
    },
    {
      "midi": 60,
      "hit": false,
      "t": 63857.079000000005,
      "d": 214.28549999999814,
      "v": 127
    },
    {
      "midi": 58,
      "hit": false,
      "t": 64071.3645,
      "d": 214.28549999999814,
      "v": 127
    },
    {
      "midi": 73,
      "hit": false,
      "t": 64285.65,
      "d": 214.28549999999814,
      "v": 127
    },
    {
      "midi": 72,
      "hit": false,
      "t": 64499.9355,
      "d": 214.28549999999814,
      "v": 127
    },
    {
      "midi": 78,
      "hit": false,
      "t": 64714.221,
      "d": 428.57100000000355,
      "v": 127
    },
    {
      "midi": 63,
      "hit": false,
      "t": 64714.221000000005,
      "d": 214.28549999999814,
      "v": 127
    },
    {
      "midi": 61,
      "hit": false,
      "t": 64928.5065,
      "d": 214.28549999999814,
      "v": 127
    },
    {
      "midi": 77,
      "hit": false,
      "t": 65142.792,
      "d": 214.28549999999814,
      "v": 127
    },
    {
      "midi": 77,
      "hit": false,
      "t": 65357.0775,
      "d": 214.28549999999814,
      "v": 127
    },
    {
      "midi": 63,
      "hit": false,
      "t": 65357.0775,
      "d": 428.5709999999963,
      "v": 127
    },
    {
      "midi": 72,
      "hit": false,
      "t": 65571.363,
      "d": 214.28549999999814,
      "v": 127
    },
    {
      "midi": 75,
      "hit": false,
      "t": 65571.363,
      "d": 214.28549999999814,
      "v": 127
    },
    {
      "midi": 70,
      "hit": false,
      "t": 65785.6485,
      "d": 214.28549999999814,
      "v": 127
    },
    {
      "midi": 73,
      "hit": false,
      "t": 65785.6485,
      "d": 214.28549999999814,
      "v": 127
    },
    {
      "midi": 65,
      "hit": false,
      "t": 65785.6485,
      "d": 214.28549999999814,
      "v": 127
    },
    {
      "midi": 69,
      "hit": false,
      "t": 65999.934,
      "d": 214.28549999999814,
      "v": 127
    },
    {
      "midi": 72,
      "hit": false,
      "t": 65999.934,
      "d": 214.28549999999814,
      "v": 127
    },
    {
      "midi": 70,
      "hit": false,
      "t": 66214.21949999999,
      "d": 428.5709999999963,
      "v": 127
    },
    {
      "midi": 58,
      "hit": false,
      "t": 66428.50499999999,
      "d": 214.28549999999814,
      "v": 127
    },
    {
      "midi": 46,
      "hit": false,
      "t": 66642.79049999999,
      "d": 214.28549999999814,
      "v": 127
    },
    {
      "midi": 70,
      "hit": false,
      "t": 66857.07599999999,
      "d": 214.28549999999814,
      "v": 127
    },
    {
      "midi": 73,
      "hit": false,
      "t": 67071.36149999998,
      "d": 214.28549999999814,
      "v": 127
    },
    {
      "midi": 54,
      "hit": false,
      "t": 67285.64699999998,
      "d": 214.28549999999814,
      "v": 127
    },
    {
      "midi": 58,
      "hit": false,
      "t": 67499.93249999998,
      "d": 214.28549999999814,
      "v": 127
    },
    {
      "midi": 66,
      "hit": false,
      "t": 67714.21799999998,
      "d": 214.28549999999814,
      "v": 127
    },
    {
      "midi": 65,
      "hit": false,
      "t": 67928.50349999998,
      "d": 214.28549999999814,
      "v": 127
    },
    {
      "midi": 56,
      "hit": false,
      "t": 68142.78899999998,
      "d": 214.28549999999814,
      "v": 127
    },
    {
      "midi": 59,
      "hit": false,
      "t": 68357.07449999997,
      "d": 214.28549999999814,
      "v": 127
    },
    {
      "midi": 68,
      "hit": false,
      "t": 68571.35999999997,
      "d": 214.28549999999814,
      "v": 127
    },
    {
      "midi": 71,
      "hit": false,
      "t": 68785.64549999997,
      "d": 214.28549999999814,
      "v": 127
    },
    {
      "midi": 53,
      "hit": false,
      "t": 68999.93099999997,
      "d": 214.28549999999814,
      "v": 127
    },
    {
      "midi": 61,
      "hit": false,
      "t": 69214.21649999997,
      "d": 214.28549999999814,
      "v": 127
    },
    {
      "midi": 68,
      "hit": false,
      "t": 69428.50199999996,
      "d": 214.28549999999814,
      "v": 127
    },
    {
      "midi": 70,
      "hit": false,
      "t": 69642.78749999996,
      "d": 214.28549999999814,
      "v": 127
    },
    {
      "midi": 54,
      "hit": false,
      "t": 69857.07299999996,
      "d": 214.28549999999814,
      "v": 127
    },
    {
      "midi": 61,
      "hit": false,
      "t": 70071.35849999996,
      "d": 214.28549999999814,
      "v": 127
    },
    {
      "midi": 66,
      "hit": false,
      "t": 70285.64399999996,
      "d": 214.28549999999814,
      "v": 127
    },
    {
      "midi": 75,
      "hit": false,
      "t": 70499.92949999995,
      "d": 214.28549999999814,
      "v": 127
    },
    {
      "midi": 47,
      "hit": false,
      "t": 70714.21499999995,
      "d": 214.28549999999814,
      "v": 127
    },
    {
      "midi": 59,
      "hit": false,
      "t": 70928.50049999995,
      "d": 214.28549999999814,
      "v": 127
    },
    {
      "midi": 68,
      "hit": false,
      "t": 71142.78599999995,
      "d": 214.28549999999814,
      "v": 127
    },
    {
      "midi": 77,
      "hit": false,
      "t": 71142.78599999995,
      "d": 214.28549999999814,
      "v": 127
    },
    {
      "midi": 70,
      "hit": false,
      "t": 71357.07149999995,
      "d": 214.28549999999814,
      "v": 127
    },
    {
      "midi": 78,
      "hit": false,
      "t": 71357.07149999995,
      "d": 214.28549999999814,
      "v": 127
    },
    {
      "midi": 58,
      "hit": false,
      "t": 71571.35699999995,
      "d": 214.28549999999814,
      "v": 127
    },
    {
      "midi": 66,
      "hit": false,
      "t": 71785.64249999994,
      "d": 214.28549999999814,
      "v": 127
    },
    {
      "midi": 70,
      "hit": false,
      "t": 71999.92799999994,
      "d": 214.28549999999814,
      "v": 127
    },
    {
      "midi": 73,
      "hit": false,
      "t": 71999.92799999994,
      "d": 214.28549999999814,
      "v": 127
    },
    {
      "midi": 70,
      "hit": false,
      "t": 72214.21349999994,
      "d": 107.14274999999907,
      "v": 127
    },
    {
      "midi": 73,
      "hit": false,
      "t": 72214.21349999994,
      "d": 107.14274999999907,
      "v": 127
    },
    {
      "midi": 59,
      "hit": false,
      "t": 72214.21349999994,
      "d": 428.5709999999963,
      "v": 127
    },
    {
      "midi": 68,
      "hit": false,
      "t": 72321.35624999994,
      "d": 107.14274999999907,
      "v": 127
    },
    {
      "midi": 71,
      "hit": false,
      "t": 72321.35624999994,
      "d": 107.14274999999907,
      "v": 127
    },
    {
      "midi": 66,
      "hit": false,
      "t": 72428.49899999994,
      "d": 428.5709999999963,
      "v": 127
    },
    {
      "midi": 70,
      "hit": false,
      "t": 72428.49899999994,
      "d": 428.5709999999963,
      "v": 127
    },
    {
      "midi": 61,
      "hit": false,
      "t": 72642.78449999994,
      "d": 214.28549999999814,
      "v": 127
    },
    {
      "midi": 65,
      "hit": false,
      "t": 72857.06999999993,
      "d": 214.28549999999814,
      "v": 127
    },
    {
      "midi": 68,
      "hit": false,
      "t": 72857.06999999993,
      "d": 214.28549999999814,
      "v": 127
    },
    {
      "midi": 66,
      "hit": false,
      "t": 73071.35549999993,
      "d": 214.28549999999814,
      "v": 127
    },
    {
      "midi": 54,
      "hit": false,
      "t": 73285.64099999993,
      "d": 214.28549999999814,
      "v": 127
    },
    {
      "midi": 42,
      "hit": false,
      "t": 73499.92649999993,
      "d": 214.28549999999814,
      "v": 127
    },
    {
      "midi": 70,
      "hit": false,
      "t": 73714.21199999993,
      "d": 214.28549999999814,
      "v": 127
    },
    {
      "midi": 82,
      "hit": false,
      "t": 73928.49749999992,
      "d": 214.28549999999814,
      "v": 127
    },
    {
      "midi": 58,
      "hit": false,
      "t": 74142.78299999992,
      "d": 214.28549999999814,
      "v": 127
    },
    {
      "midi": 66,
      "hit": false,
      "t": 74357.06849999992,
      "d": 214.28549999999814,
      "v": 127
    },
    {
      "midi": 70,
      "hit": false,
      "t": 74571.35399999992,
      "d": 214.28549999999814,
      "v": 127
    },
    {
      "midi": 80,
      "hit": false,
      "t": 74785.63949999992,
      "d": 214.28549999999814,
      "v": 127
    },
    {
      "midi": 58,
      "hit": false,
      "t": 74999.92499999992,
      "d": 214.28549999999814,
      "v": 127
    },
    {
      "midi": 65,
      "hit": false,
      "t": 75214.21049999991,
      "d": 214.28549999999814,
      "v": 127
    },
    {
      "midi": 70,
      "hit": false,
      "t": 75428.49599999991,
      "d": 214.28549999999814,
      "v": 127
    },
    {
      "midi": 78,
      "hit": false,
      "t": 75642.78149999991,
      "d": 214.28549999999814,
      "v": 127
    },
    {
      "midi": 58,
      "hit": false,
      "t": 75857.06699999991,
      "d": 214.28549999999814,
      "v": 127
    },
    {
      "midi": 63,
      "hit": false,
      "t": 76071.3524999999,
      "d": 214.28549999999814,
      "v": 127
    },
    {
      "midi": 70,
      "hit": false,
      "t": 76285.6379999999,
      "d": 214.28549999999814,
      "v": 127
    },
    {
      "midi": 77,
      "hit": false,
      "t": 76499.9234999999,
      "d": 214.28549999999814,
      "v": 127
    },
    {
      "midi": 58,
      "hit": false,
      "t": 76714.2089999999,
      "d": 214.28549999999814,
      "v": 127
    },
    {
      "midi": 62,
      "hit": false,
      "t": 76928.4944999999,
      "d": 214.28549999999814,
      "v": 127
    },
    {
      "midi": 70,
      "hit": false,
      "t": 77142.7799999999,
      "d": 214.28549999999814,
      "v": 127
    },
    {
      "midi": 75,
      "hit": false,
      "t": 77357.0654999999,
      "d": 428.5709999999963,
      "v": 127
    },
    {
      "midi": 47,
      "hit": false,
      "t": 77571.3509999999,
      "d": 214.28549999999814,
      "v": 127
    },
    {
      "midi": 63,
      "hit": false,
      "t": 77785.63649999989,
      "d": 214.28549999999814,
      "v": 127
    },
    {
      "midi": 59,
      "hit": false,
      "t": 77785.63649999989,
      "d": 214.28549999999814,
      "v": 127
    },
    {
      "midi": 69,
      "hit": false,
      "t": 78214.20749999989,
      "d": 642.8564999999944,
      "v": 127
    },
    {
      "midi": 51,
      "hit": false,
      "t": 78428.49299999989,
      "d": 214.28549999999814,
      "v": 127
    },
    {
      "midi": 54,
      "hit": false,
      "t": 78642.77849999988,
      "d": 214.28549999999814,
      "v": 127
    },
    {
      "midi": 63,
      "hit": false,
      "t": 78857.06399999988,
      "d": 214.28549999999814,
      "v": 127
    },
    {
      "midi": 74,
      "hit": false,
      "t": 79071.34949999988,
      "d": 642.8564999999944,
      "v": 127
    },
    {
      "midi": 46,
      "hit": false,
      "t": 79285.63499999988,
      "d": 214.28549999999814,
      "v": 127
    },
    {
      "midi": 56,
      "hit": false,
      "t": 79499.92049999988,
      "d": 214.28549999999814,
      "v": 127
    },
    {
      "midi": 68,
      "hit": false,
      "t": 79714.20599999987,
      "d": 214.28549999999814,
      "v": 127
    },
    {
      "midi": 72,
      "hit": false,
      "t": 79928.49149999987,
      "d": 642.8564999999944,
      "v": 127
    },
    {
      "midi": 50,
      "hit": false,
      "t": 80142.77699999987,
      "d": 214.28549999999814,
      "v": 127
    },
    {
      "midi": 53,
      "hit": false,
      "t": 80357.06249999987,
      "d": 214.28549999999814,
      "v": 127
    },
    {
      "midi": 70,
      "hit": false,
      "t": 80571.34799999987,
      "d": 214.28549999999814,
      "v": 127
    },
    {
      "midi": 67,
      "hit": false,
      "t": 80785.63349999987,
      "d": 214.28549999999814,
      "v": 127
    },
    {
      "midi": 63,
      "hit": false,
      "t": 80999.91899999986,
      "d": 214.28549999999814,
      "v": 127
    },
    {
      "midi": 67,
      "hit": false,
      "t": 81214.20449999986,
      "d": 214.28549999999814,
      "v": 127
    },
    {
      "midi": 70,
      "hit": false,
      "t": 81428.48999999986,
      "d": 214.28549999999814,
      "v": 127
    },
    {
      "midi": 65,
      "hit": false,
      "t": 81642.77549999986,
      "d": 214.28549999999814,
      "v": 127
    },
    {
      "midi": 62,
      "hit": false,
      "t": 81857.06099999986,
      "d": 214.28549999999814,
      "v": 127
    },
    {
      "midi": 65,
      "hit": false,
      "t": 82071.34649999985,
      "d": 214.28549999999814,
      "v": 127
    },
    {
      "midi": 70,
      "hit": false,
      "t": 82285.63199999985,
      "d": 214.28549999999814,
      "v": 127
    },
    {
      "midi": 75,
      "hit": false,
      "t": 82499.91749999985,
      "d": 214.28549999999814,
      "v": 127
    },
    {
      "midi": 68,
      "hit": false,
      "t": 82714.20299999985,
      "d": 428.5709999999963,
      "v": 127
    },
    {
      "midi": 60,
      "hit": false,
      "t": 82714.20299999985,
      "d": 214.28549999999814,
      "v": 127
    },
    {
      "midi": 58,
      "hit": false,
      "t": 82928.48849999985,
      "d": 214.28549999999814,
      "v": 127
    },
    {
      "midi": 67,
      "hit": false,
      "t": 83142.77399999984,
      "d": 214.28549999999814,
      "v": 127
    },
    {
      "midi": 72,
      "hit": false,
      "t": 83357.05949999984,
      "d": 214.28549999999814,
      "v": 127
    },
    {
      "midi": 65,
      "hit": false,
      "t": 83571.34499999984,
      "d": 428.5709999999963,
      "v": 127
    },
    {
      "midi": 56,
      "hit": false,
      "t": 83571.34499999984,
      "d": 214.28549999999814,
      "v": 127
    },
    {
      "midi": 55,
      "hit": false,
      "t": 83785.63049999984,
      "d": 214.28549999999814,
      "v": 127
    },
    {
      "midi": 63,
      "hit": false,
      "t": 83999.91599999984,
      "d": 214.28549999999814,
      "v": 127
    },
    {
      "midi": 62,
      "hit": false,
      "t": 84214.20149999984,
      "d": 214.28549999999814,
      "v": 127
    },
    {
      "midi": 68,
      "hit": false,
      "t": 84428.48699999983,
      "d": 428.5709999999963,
      "v": 127
    },
    {
      "midi": 53,
      "hit": false,
      "t": 84428.48699999983,
      "d": 214.28549999999814,
      "v": 127
    },
    {
      "midi": 50,
      "hit": false,
      "t": 84642.77249999983,
      "d": 214.28549999999814,
      "v": 127
    },
    {
      "midi": 67,
      "hit": false,
      "t": 84857.05799999983,
      "d": 214.28549999999814,
      "v": 127
    },
    {
      "midi": 51,
      "hit": false,
      "t": 84857.05799999983,
      "d": 214.28549999999814,
      "v": 127
    },
    {
      "midi": 67,
      "hit": false,
      "t": 85071.34349999983,
      "d": 214.28549999999814,
      "v": 127
    },
    {
      "midi": 46,
      "hit": false,
      "t": 85071.34349999983,
      "d": 214.28549999999814,
      "v": 127
    },
    {
      "midi": 65,
      "hit": false,
      "t": 85285.62899999983,
      "d": 428.5709999999963,
      "v": 127
    },
    {
      "midi": 58,
      "hit": false,
      "t": 85285.62899999983,
      "d": 214.28549999999814,
      "v": 127
    },
    {
      "midi": 46,
      "hit": false,
      "t": 85499.91449999982,
      "d": 214.28549999999814,
      "v": 127
    },
    {
      "midi": 58,
      "hit": false,
      "t": 85714.19999999982,
      "d": 214.28549999999814,
      "v": 127
    },
    {
      "midi": 60,
      "hit": false,
      "t": 85928.48549999982,
      "d": 214.28549999999814,
      "v": 127
    },
    {
      "midi": 65,
      "hit": false,
      "t": 86142.77099999982,
      "d": 428.5709999999963,
      "v": 127
    },
    {
      "midi": 56,
      "hit": false,
      "t": 86142.77099999982,
      "d": 214.28549999999814,
      "v": 127
    },
    {
      "midi": 55,
      "hit": false,
      "t": 86357.05649999982,
      "d": 214.28549999999814,
      "v": 127
    },
    {
      "midi": 63,
      "hit": false,
      "t": 86571.34199999982,
      "d": 214.28549999999814,
      "v": 127
    },
    {
      "midi": 62,
      "hit": false,
      "t": 86785.62749999981,
      "d": 214.28549999999814,
      "v": 127
    },
    {
      "midi": 68,
      "hit": false,
      "t": 86999.91299999981,
      "d": 428.5709999999963,
      "v": 127
    },
    {
      "midi": 60,
      "hit": false,
      "t": 86999.91299999981,
      "d": 214.28549999999814,
      "v": 127
    },
    {
      "midi": 58,
      "hit": false,
      "t": 87214.19849999981,
      "d": 214.28549999999814,
      "v": 127
    },
    {
      "midi": 67,
      "hit": false,
      "t": 87428.48399999981,
      "d": 214.28549999999814,
      "v": 127
    },
    {
      "midi": 65,
      "hit": false,
      "t": 87642.7694999998,
      "d": 214.28549999999814,
      "v": 127
    },
    {
      "midi": 72,
      "hit": false,
      "t": 87857.0549999998,
      "d": 428.5709999999963,
      "v": 127
    },
    {
      "midi": 68,
      "hit": false,
      "t": 87857.0549999998,
      "d": 214.28549999999814,
      "v": 127
    },
    {
      "midi": 67,
      "hit": false,
      "t": 88071.3404999998,
      "d": 214.28549999999814,
      "v": 127
    },
    {
      "midi": 70,
      "hit": false,
      "t": 88285.6259999998,
      "d": 214.28549999999814,
      "v": 127
    },
    {
      "midi": 68,
      "hit": false,
      "t": 88499.9114999998,
      "d": 214.28549999999814,
      "v": 127
    },
    {
      "midi": 80,
      "hit": false,
      "t": 88714.1969999998,
      "d": 428.5709999999963,
      "v": 127
    },
    {
      "midi": 65,
      "hit": false,
      "t": 88714.1969999998,
      "d": 214.28549999999814,
      "v": 127
    },
    {
      "midi": 62,
      "hit": false,
      "t": 88928.4824999998,
      "d": 214.28549999999814,
      "v": 127
    },
    {
      "midi": 79,
      "hit": false,
      "t": 89142.76799999979,
      "d": 428.5709999999963,
      "v": 127
    },
    {
      "midi": 63,
      "hit": false,
      "t": 89142.76799999979,
      "d": 214.28549999999814,
      "v": 127
    },
    {
      "midi": 56,
      "hit": false,
      "t": 89357.05349999979,
      "d": 428.5709999999963,
      "v": 127
    },
    {
      "midi": 77,
      "hit": false,
      "t": 89571.33899999979,
      "d": 214.28549999999814,
      "v": 127
    },
    {
      "midi": 80,
      "hit": false,
      "t": 89785.62449999979,
      "d": 214.28549999999814,
      "v": 127
    },
    {
      "midi": 74,
      "hit": false,
      "t": 89999.90999999979,
      "d": 214.28549999999814,
      "v": 127
    },
    {
      "midi": 58,
      "hit": false,
      "t": 89999.90999999979,
      "d": 214.28549999999814,
      "v": 127
    },
    {
      "midi": 77,
      "hit": false,
      "t": 90214.19549999978,
      "d": 214.28549999999814,
      "v": 127
    },
    {
      "midi": 51,
      "hit": false,
      "t": 90214.19549999978,
      "d": 214.28549999999814,
      "v": 127
    },
    {
      "midi": 75,
      "hit": false,
      "t": 90428.48099999978,
      "d": 428.5709999999963,
      "v": 127
    },
    {
      "midi": 63,
      "hit": false,
      "t": 90428.48099999978,
      "d": 214.28549999999814,
      "v": 127
    },
    {
      "midi": 51,
      "hit": false,
      "t": 90642.76649999978,
      "d": 214.28549999999814,
      "v": 127
    },
    {
      "midi": 70,
      "hit": false,
      "t": 90857.05199999978,
      "d": 214.28549999999814,
      "v": 127
    },
    {
      "midi": 75,
      "hit": false,
      "t": 91071.33749999978,
      "d": 107.14274999999907,
      "v": 127
    },
    {
      "midi": 63,
      "hit": false,
      "t": 91071.33749999978,
      "d": 428.5709999999963,
      "v": 127
    },
    {
      "midi": 67,
      "hit": false,
      "t": 91071.33749999978,
      "d": 428.5709999999963,
      "v": 127
    },
    {
      "midi": 70,
      "hit": false,
      "t": 91178.48024999977,
      "d": 107.14274999999907,
      "v": 127
    },
    {
      "midi": 69,
      "hit": false,
      "t": 91285.62299999977,
      "d": 107.14274999999907,
      "v": 127
    },
    {
      "midi": 70,
      "hit": false,
      "t": 91392.76574999977,
      "d": 107.14274999999907,
      "v": 127
    },
    {
      "midi": 72,
      "hit": false,
      "t": 91499.90849999977,
      "d": 107.14274999999907,
      "v": 127
    },
    {
      "midi": 70,
      "hit": false,
      "t": 91607.05124999977,
      "d": 107.14274999999907,
      "v": 127
    },
    {
      "midi": 69,
      "hit": false,
      "t": 91714.19399999977,
      "d": 107.14274999999907,
      "v": 127
    },
    {
      "midi": 63,
      "hit": false,
      "t": 91714.19399999977,
      "d": 214.28549999999814,
      "v": 127
    },
    {
      "midi": 67,
      "hit": false,
      "t": 91714.19399999977,
      "d": 214.28549999999814,
      "v": 127
    },
    {
      "midi": 70,
      "hit": false,
      "t": 91821.33674999977,
      "d": 107.14274999999907,
      "v": 127
    },
    {
      "midi": 77,
      "hit": false,
      "t": 91928.47949999977,
      "d": 107.14274999999907,
      "v": 127
    },
    {
      "midi": 62,
      "hit": false,
      "t": 91928.47949999977,
      "d": 428.5709999999963,
      "v": 127
    },
    {
      "midi": 65,
      "hit": false,
      "t": 91928.47949999977,
      "d": 428.5709999999963,
      "v": 127
    },
    {
      "midi": 70,
      "hit": false,
      "t": 92035.62224999977,
      "d": 107.14274999999907,
      "v": 127
    },
    {
      "midi": 69,
      "hit": false,
      "t": 92142.76499999977,
      "d": 107.14274999999907,
      "v": 127
    },
    {
      "midi": 70,
      "hit": false,
      "t": 92249.90774999977,
      "d": 107.14274999999907,
      "v": 127
    },
    {
      "midi": 72,
      "hit": false,
      "t": 92357.05049999976,
      "d": 107.14274999999907,
      "v": 127
    },
    {
      "midi": 70,
      "hit": false,
      "t": 92464.19324999976,
      "d": 107.14274999999907,
      "v": 127
    },
    {
      "midi": 69,
      "hit": false,
      "t": 92571.33599999976,
      "d": 107.14274999999907,
      "v": 127
    },
    {
      "midi": 62,
      "hit": false,
      "t": 92571.33599999976,
      "d": 214.28549999999814,
      "v": 127
    },
    {
      "midi": 65,
      "hit": false,
      "t": 92571.33599999976,
      "d": 214.28549999999814,
      "v": 127
    },
    {
      "midi": 70,
      "hit": false,
      "t": 92678.47874999976,
      "d": 107.14274999999907,
      "v": 127
    },
    {
      "midi": 75,
      "hit": false,
      "t": 92785.62149999976,
      "d": 107.14274999999907,
      "v": 127
    },
    {
      "midi": 60,
      "hit": false,
      "t": 92785.62149999976,
      "d": 428.5709999999963,
      "v": 127
    },
    {
      "midi": 63,
      "hit": false,
      "t": 92785.62149999976,
      "d": 428.5709999999963,
      "v": 127
    },
    {
      "midi": 72,
      "hit": false,
      "t": 92892.76424999976,
      "d": 107.14274999999907,
      "v": 127
    },
    {
      "midi": 70,
      "hit": false,
      "t": 92999.90699999976,
      "d": 107.14274999999907,
      "v": 127
    },
    {
      "midi": 68,
      "hit": false,
      "t": 93107.04974999976,
      "d": 107.14274999999907,
      "v": 127
    },
    {
      "midi": 68,
      "hit": false,
      "t": 93214.19249999976,
      "d": 107.14274999999907,
      "v": 127
    },
    {
      "midi": 58,
      "hit": false,
      "t": 93214.19249999976,
      "d": 214.28549999999814,
      "v": 127
    },
    {
      "midi": 62,
      "hit": false,
      "t": 93214.19249999976,
      "d": 214.28549999999814,
      "v": 127
    },
    {
      "midi": 67,
      "hit": false,
      "t": 93321.33524999976,
      "d": 107.14274999999907,
      "v": 127
    },
    {
      "midi": 66,
      "hit": false,
      "t": 93428.47799999976,
      "d": 107.14274999999907,
      "v": 127
    },
    {
      "midi": 67,
      "hit": false,
      "t": 93535.62074999975,
      "d": 107.14274999999907,
      "v": 127
    },
    {
      "midi": 72,
      "hit": false,
      "t": 93642.76349999975,
      "d": 107.14274999999907,
      "v": 127
    },
    {
      "midi": 56,
      "hit": false,
      "t": 93642.76349999975,
      "d": 428.5709999999963,
      "v": 127
    },
    {
      "midi": 60,
      "hit": false,
      "t": 93642.76349999975,
      "d": 428.5709999999963,
      "v": 127
    },
    {
      "midi": 68,
      "hit": false,
      "t": 93749.90624999975,
      "d": 107.14274999999907,
      "v": 127
    },
    {
      "midi": 67,
      "hit": false,
      "t": 93857.04899999975,
      "d": 107.14274999999907,
      "v": 127
    },
    {
      "midi": 65,
      "hit": false,
      "t": 93964.19174999975,
      "d": 107.14274999999907,
      "v": 127
    },
    {
      "midi": 65,
      "hit": false,
      "t": 94071.33449999975,
      "d": 107.14274999999907,
      "v": 127
    },
    {
      "midi": 55,
      "hit": false,
      "t": 94071.33449999975,
      "d": 214.28549999999814,
      "v": 127
    },
    {
      "midi": 58,
      "hit": false,
      "t": 94071.33449999975,
      "d": 214.28549999999814,
      "v": 127
    },
    {
      "midi": 63,
      "hit": false,
      "t": 94178.47724999975,
      "d": 107.14274999999907,
      "v": 127
    },
    {
      "midi": 62,
      "hit": false,
      "t": 94285.61999999975,
      "d": 107.14274999999907,
      "v": 127
    },
    {
      "midi": 63,
      "hit": false,
      "t": 94392.76274999975,
      "d": 107.14274999999907,
      "v": 127
    },
    {
      "midi": 62,
      "hit": false,
      "t": 94499.90549999975,
      "d": 107.14274999999907,
      "v": 127
    },
    {
      "midi": 53,
      "hit": false,
      "t": 94499.90549999975,
      "d": 428.5709999999963,
      "v": 127
    },
    {
      "midi": 56,
      "hit": false,
      "t": 94499.90549999975,
      "d": 428.5709999999963,
      "v": 127
    },
    {
      "midi": 63,
      "hit": false,
      "t": 94607.04824999975,
      "d": 107.14274999999907,
      "v": 127
    },
    {
      "midi": 65,
      "hit": false,
      "t": 94714.19099999974,
      "d": 107.14274999999907,
      "v": 127
    },
    {
      "midi": 67,
      "hit": false,
      "t": 94821.33374999974,
      "d": 107.14274999999907,
      "v": 127
    },
    {
      "midi": 68,
      "hit": false,
      "t": 94928.47649999974,
      "d": 107.14274999999907,
      "v": 127
    },
    {
      "midi": 50,
      "hit": false,
      "t": 94928.47649999974,
      "d": 214.28549999999814,
      "v": 127
    },
    {
      "midi": 65,
      "hit": false,
      "t": 95035.61924999974,
      "d": 107.14274999999907,
      "v": 127
    },
    {
      "midi": 67,
      "hit": false,
      "t": 95142.76199999974,
      "d": 107.14274999999907,
      "v": 127
    },
    {
      "midi": 51,
      "hit": false,
      "t": 95142.76199999974,
      "d": 214.28549999999814,
      "v": 127
    },
    {
      "midi": 63,
      "hit": false,
      "t": 95249.90474999974,
      "d": 107.14274999999907,
      "v": 127
    },
    {
      "midi": 62,
      "hit": false,
      "t": 95357.04749999974,
      "d": 428.5709999999963,
      "v": 127
    },
    {
      "midi": 65,
      "hit": false,
      "t": 95357.04749999974,
      "d": 428.5709999999963,
      "v": 127
    },
    {
      "midi": 46,
      "hit": false,
      "t": 95357.04749999974,
      "d": 214.28549999999814,
      "v": 127
    },
    {
      "midi": 58,
      "hit": false,
      "t": 95571.33299999974,
      "d": 214.28549999999814,
      "v": 127
    },
    {
      "midi": 46,
      "hit": false,
      "t": 95785.61849999973,
      "d": 214.28549999999814,
      "v": 127
    },
    {
      "midi": 70,
      "hit": false,
      "t": 95999.90399999973,
      "d": 214.28549999999814,
      "v": 127
    },
    {
      "midi": 75,
      "hit": false,
      "t": 96214.18949999973,
      "d": 107.14274999999907,
      "v": 127
    },
    {
      "midi": 63,
      "hit": false,
      "t": 96214.18949999973,
      "d": 428.5709999999963,
      "v": 127
    },
    {
      "midi": 67,
      "hit": false,
      "t": 96214.18949999973,
      "d": 428.5709999999963,
      "v": 127
    },
    {
      "midi": 70,
      "hit": false,
      "t": 96321.33224999973,
      "d": 107.14274999999907,
      "v": 127
    },
    {
      "midi": 69,
      "hit": false,
      "t": 96428.47499999973,
      "d": 107.14274999999907,
      "v": 127
    },
    {
      "midi": 70,
      "hit": false,
      "t": 96535.61774999973,
      "d": 107.14274999999907,
      "v": 127
    },
    {
      "midi": 72,
      "hit": false,
      "t": 96642.76049999973,
      "d": 107.14274999999907,
      "v": 127
    },
    {
      "midi": 70,
      "hit": false,
      "t": 96749.90324999973,
      "d": 107.14274999999907,
      "v": 127
    },
    {
      "midi": 69,
      "hit": false,
      "t": 96857.04599999973,
      "d": 107.14274999999907,
      "v": 127
    },
    {
      "midi": 63,
      "hit": false,
      "t": 96857.04599999973,
      "d": 214.28549999999814,
      "v": 127
    },
    {
      "midi": 67,
      "hit": false,
      "t": 96857.04599999973,
      "d": 214.28549999999814,
      "v": 127
    },
    {
      "midi": 70,
      "hit": false,
      "t": 96964.18874999972,
      "d": 107.14274999999907,
      "v": 127
    },
    {
      "midi": 77,
      "hit": false,
      "t": 97071.33149999972,
      "d": 107.14274999999907,
      "v": 127
    },
    {
      "midi": 62,
      "hit": false,
      "t": 97071.33149999972,
      "d": 428.5709999999963,
      "v": 127
    },
    {
      "midi": 65,
      "hit": false,
      "t": 97071.33149999972,
      "d": 428.5709999999963,
      "v": 127
    },
    {
      "midi": 70,
      "hit": false,
      "t": 97178.47424999972,
      "d": 107.14274999999907,
      "v": 127
    },
    {
      "midi": 69,
      "hit": false,
      "t": 97285.61699999972,
      "d": 107.14274999999907,
      "v": 127
    },
    {
      "midi": 70,
      "hit": false,
      "t": 97392.75974999972,
      "d": 107.14274999999907,
      "v": 127
    },
    {
      "midi": 72,
      "hit": false,
      "t": 97499.90249999972,
      "d": 107.14274999999907,
      "v": 127
    },
    {
      "midi": 70,
      "hit": false,
      "t": 97607.04524999972,
      "d": 107.14274999999907,
      "v": 127
    },
    {
      "midi": 69,
      "hit": false,
      "t": 97714.18799999972,
      "d": 107.14274999999907,
      "v": 127
    },
    {
      "midi": 62,
      "hit": false,
      "t": 97714.18799999972,
      "d": 214.28549999999814,
      "v": 127
    },
    {
      "midi": 65,
      "hit": false,
      "t": 97714.18799999972,
      "d": 214.28549999999814,
      "v": 127
    },
    {
      "midi": 70,
      "hit": false,
      "t": 97821.33074999972,
      "d": 107.14274999999907,
      "v": 127
    },
    {
      "midi": 69,
      "hit": false,
      "t": 97928.47349999972,
      "d": 107.14274999999907,
      "v": 127
    },
    {
      "midi": 60,
      "hit": false,
      "t": 97928.47349999972,
      "d": 428.5709999999963,
      "v": 127
    },
    {
      "midi": 63,
      "hit": false,
      "t": 97928.47349999972,
      "d": 428.5709999999963,
      "v": 127
    },
    {
      "midi": 79,
      "hit": false,
      "t": 98035.61624999972,
      "d": 107.14274999999907,
      "v": 127
    },
    {
      "midi": 77,
      "hit": false,
      "t": 98142.75899999971,
      "d": 107.14274999999907,
      "v": 127
    },
    {
      "midi": 75,
      "hit": false,
      "t": 98249.90174999971,
      "d": 107.14274999999907,
      "v": 127
    },
    {
      "midi": 74,
      "hit": false,
      "t": 98357.04449999971,
      "d": 107.14274999999907,
      "v": 127
    },
    {
      "midi": 58,
      "hit": false,
      "t": 98357.04449999971,
      "d": 214.28549999999814,
      "v": 127
    },
    {
      "midi": 77,
      "hit": false,
      "t": 98464.18724999971,
      "d": 107.14274999999907,
      "v": 127
    },
    {
      "midi": 75,
      "hit": false,
      "t": 98571.32999999971,
      "d": 107.14274999999907,
      "v": 127
    },
    {
      "midi": 74,
      "hit": false,
      "t": 98678.47274999971,
      "d": 107.14274999999907,
      "v": 127
    },
    {
      "midi": 72,
      "hit": false,
      "t": 98785.61549999971,
      "d": 107.14274999999907,
      "v": 127
    },
    {
      "midi": 63,
      "hit": false,
      "t": 98785.61549999971,
      "d": 428.5709999999963,
      "v": 127
    },
    {
      "midi": 75,
      "hit": false,
      "t": 98892.75824999971,
      "d": 107.14274999999907,
      "v": 127
    },
    {
      "midi": 74,
      "hit": false,
      "t": 98999.9009999997,
      "d": 107.14274999999907,
      "v": 127
    },
    {
      "midi": 72,
      "hit": false,
      "t": 99107.0437499997,
      "d": 107.14274999999907,
      "v": 127
    },
    {
      "midi": 70,
      "hit": false,
      "t": 99214.1864999997,
      "d": 107.14274999999907,
      "v": 127
    },
    {
      "midi": 62,
      "hit": false,
      "t": 99214.1864999997,
      "d": 214.28549999999814,
      "v": 127
    },
    {
      "midi": 74,
      "hit": false,
      "t": 99321.3292499997,
      "d": 107.14274999999907,
      "v": 127
    },
    {
      "midi": 72,
      "hit": false,
      "t": 99428.4719999997,
      "d": 107.14274999999907,
      "v": 127
    },
    {
      "midi": 70,
      "hit": false,
      "t": 99535.6147499997,
      "d": 107.14274999999907,
      "v": 127
    },
    {
      "midi": 67,
      "hit": false,
      "t": 99642.7574999997,
      "d": 107.14274999999907,
      "v": 127
    },
    {
      "midi": 63,
      "hit": false,
      "t": 99642.7574999997,
      "d": 428.5709999999963,
      "v": 127
    },
    {
      "midi": 72,
      "hit": false,
      "t": 99749.9002499997,
      "d": 107.14274999999907,
      "v": 127
    },
    {
      "midi": 75,
      "hit": false,
      "t": 99857.0429999997,
      "d": 107.14274999999907,
      "v": 127
    },
    {
      "midi": 79,
      "hit": false,
      "t": 99964.1857499997,
      "d": 107.14274999999907,
      "v": 127
    },
    {
      "midi": 74,
      "hit": false,
      "t": 100071.3284999997,
      "d": 214.28549999999814,
      "v": 127
    },
    {
      "midi": 77,
      "hit": false,
      "t": 100071.3284999997,
      "d": 214.28549999999814,
      "v": 127
    },
    {
      "midi": 65,
      "hit": false,
      "t": 100071.3284999997,
      "d": 214.28549999999814,
      "v": 127
    },
    {
      "midi": 63,
      "hit": false,
      "t": 100285.6139999997,
      "d": 214.28549999999814,
      "v": 127
    },
    {
      "midi": 69,
      "hit": false,
      "t": 100285.6139999997,
      "d": 214.28549999999814,
      "v": 127
    },
    {
      "midi": 53,
      "hit": false,
      "t": 100285.6139999997,
      "d": 214.28549999999814,
      "v": 127
    },
    {
      "midi": 60,
      "hit": false,
      "t": 100285.6139999997,
      "d": 214.28549999999814,
      "v": 127
    },
    {
      "midi": 62,
      "hit": false,
      "t": 100499.8994999997,
      "d": 428.5709999999963,
      "v": 127
    },
    {
      "midi": 70,
      "hit": false,
      "t": 100499.8994999997,
      "d": 428.5709999999963,
      "v": 127
    },
    {
      "midi": 46,
      "hit": false,
      "t": 100499.8994999997,
      "d": 214.28549999999814,
      "v": 127
    },
    {
      "midi": 58,
      "hit": false,
      "t": 100714.18499999969,
      "d": 214.28549999999814,
      "v": 127
    },
    {
      "midi": 46,
      "hit": false,
      "t": 100928.47049999969,
      "d": 214.28549999999814,
      "v": 127
    },
    {
      "midi": 70,
      "hit": false,
      "t": 101142.75599999969,
      "d": 214.28549999999814,
      "v": 127
    },
    {
      "midi": 77,
      "hit": false,
      "t": 101357.04149999969,
      "d": 107.14274999999907,
      "v": 127
    },
    {
      "midi": 50,
      "hit": false,
      "t": 101357.04149999969,
      "d": 428.5709999999963,
      "v": 127
    },
    {
      "midi": 58,
      "hit": false,
      "t": 101357.04149999969,
      "d": 428.5709999999963,
      "v": 127
    },
    {
      "midi": 70,
      "hit": false,
      "t": 101464.18424999969,
      "d": 107.14274999999907,
      "v": 127
    },
    {
      "midi": 69,
      "hit": false,
      "t": 101571.32699999968,
      "d": 107.14274999999907,
      "v": 127
    },
    {
      "midi": 70,
      "hit": false,
      "t": 101678.46974999968,
      "d": 107.14274999999907,
      "v": 127
    },
    {
      "midi": 70,
      "hit": false,
      "t": 101785.61249999968,
      "d": 107.14274999999907,
      "v": 127
    },
    {
      "midi": 68,
      "hit": false,
      "t": 101892.75524999968,
      "d": 107.14274999999907,
      "v": 127
    },
    {
      "midi": 67,
      "hit": false,
      "t": 101999.89799999968,
      "d": 107.14274999999907,
      "v": 127
    },
    {
      "midi": 50,
      "hit": false,
      "t": 101999.89799999968,
      "d": 214.28549999999814,
      "v": 127
    },
    {
      "midi": 58,
      "hit": false,
      "t": 101999.89799999968,
      "d": 214.28549999999814,
      "v": 127
    },
    {
      "midi": 68,
      "hit": false,
      "t": 102107.04074999968,
      "d": 107.14274999999907,
      "v": 127
    },
    {
      "midi": 67,
      "hit": false,
      "t": 102214.18349999968,
      "d": 107.14274999999907,
      "v": 127
    },
    {
      "midi": 51,
      "hit": false,
      "t": 102214.18349999968,
      "d": 428.5709999999963,
      "v": 127
    },
    {
      "midi": 58,
      "hit": false,
      "t": 102214.18349999968,
      "d": 428.5709999999963,
      "v": 127
    },
    {
      "midi": 63,
      "hit": false,
      "t": 102321.32624999968,
      "d": 107.14274999999907,
      "v": 127
    },
    {
      "midi": 62,
      "hit": false,
      "t": 102428.46899999968,
      "d": 107.14274999999907,
      "v": 127
    },
    {
      "midi": 63,
      "hit": false,
      "t": 102535.61174999968,
      "d": 107.14274999999907,
      "v": 127
    },
    {
      "midi": 65,
      "hit": false,
      "t": 102642.75449999968,
      "d": 107.14274999999907,
      "v": 127
    },
    {
      "midi": 63,
      "hit": false,
      "t": 102749.89724999967,
      "d": 107.14274999999907,
      "v": 127
    },
    {
      "midi": 62,
      "hit": false,
      "t": 102857.03999999967,
      "d": 107.14274999999907,
      "v": 127
    },
    {
      "midi": 63,
      "hit": false,
      "t": 102964.18274999967,
      "d": 107.14274999999907,
      "v": 127
    },
    {
      "midi": 72,
      "hit": false,
      "t": 103071.32549999967,
      "d": 107.14274999999907,
      "v": 127
    },
    {
      "midi": 44,
      "hit": false,
      "t": 103071.32549999967,
      "d": 428.5709999999963,
      "v": 127
    },
    {
      "midi": 53,
      "hit": false,
      "t": 103071.32549999967,
      "d": 428.5709999999963,
      "v": 127
    },
    {
      "midi": 65,
      "hit": false,
      "t": 103178.46824999967,
      "d": 107.14274999999907,
      "v": 127
    },
    {
      "midi": 64,
      "hit": false,
      "t": 103285.61099999967,
      "d": 107.14274999999907,
      "v": 127
    },
    {
      "midi": 65,
      "hit": false,
      "t": 103392.75374999967,
      "d": 107.14274999999907,
      "v": 127
    },
    {
      "midi": 65,
      "hit": false,
      "t": 103499.89649999967,
      "d": 107.14274999999907,
      "v": 127
    },
    {
      "midi": 63,
      "hit": false,
      "t": 103607.03924999967,
      "d": 107.14274999999907,
      "v": 127
    },
    {
      "midi": 62,
      "hit": false,
      "t": 103714.18199999967,
      "d": 107.14274999999907,
      "v": 127
    },
    {
      "midi": 45,
      "hit": false,
      "t": 103714.18199999967,
      "d": 214.28549999999814,
      "v": 127
    },
    {
      "midi": 53,
      "hit": false,
      "t": 103714.18199999967,
      "d": 214.28549999999814,
      "v": 127
    },
    {
      "midi": 63,
      "hit": false,
      "t": 103821.32474999967,
      "d": 107.14274999999907,
      "v": 127
    },
    {
      "midi": 62,
      "hit": false,
      "t": 103928.46749999966,
      "d": 107.14274999999907,
      "v": 127
    },
    {
      "midi": 46,
      "hit": false,
      "t": 103928.46749999966,
      "d": 428.5709999999963,
      "v": 127
    },
    {
      "midi": 53,
      "hit": false,
      "t": 103928.46749999966,
      "d": 428.5709999999963,
      "v": 127
    },
    {
      "midi": 58,
      "hit": false,
      "t": 104035.61024999966,
      "d": 107.14274999999907,
      "v": 127
    },
    {
      "midi": 57,
      "hit": false,
      "t": 104142.75299999966,
      "d": 107.14274999999907,
      "v": 127
    },
    {
      "midi": 58,
      "hit": false,
      "t": 104249.89574999966,
      "d": 107.14274999999907,
      "v": 127
    },
    {
      "midi": 60,
      "hit": false,
      "t": 104357.03849999966,
      "d": 107.14274999999907,
      "v": 127
    },
    {
      "midi": 58,
      "hit": false,
      "t": 104464.18124999966,
      "d": 107.14274999999907,
      "v": 127
    },
    {
      "midi": 57,
      "hit": false,
      "t": 104571.32399999966,
      "d": 107.14274999999907,
      "v": 127
    },
    {
      "midi": 58,
      "hit": false,
      "t": 104678.46674999966,
      "d": 107.14274999999907,
      "v": 127
    },
    {
      "midi": 56,
      "hit": false,
      "t": 104785.60949999966,
      "d": 428.5709999999963,
      "v": 127
    },
    {
      "midi": 60,
      "hit": false,
      "t": 104892.75224999966,
      "d": 107.14274999999907,
      "v": 127
    },
    {
      "midi": 65,
      "hit": false,
      "t": 104999.89499999965,
      "d": 107.14274999999907,
      "v": 127
    },
    {
      "midi": 63,
      "hit": false,
      "t": 105107.03774999965,
      "d": 107.14274999999907,
      "v": 127
    },
    {
      "midi": 62,
      "hit": false,
      "t": 105214.18049999965,
      "d": 107.14274999999907,
      "v": 127
    },
    {
      "midi": 58,
      "hit": false,
      "t": 105214.18049999965,
      "d": 214.28549999999814,
      "v": 127
    },
    {
      "midi": 68,
      "hit": false,
      "t": 105321.32324999965,
      "d": 107.14274999999907,
      "v": 127
    },
    {
      "midi": 67,
      "hit": false,
      "t": 105428.46599999965,
      "d": 107.14274999999907,
      "v": 127
    },
    {
      "midi": 65,
      "hit": false,
      "t": 105535.60874999965,
      "d": 107.14274999999907,
      "v": 127
    },
    {
      "midi": 63,
      "hit": false,
      "t": 105642.75149999965,
      "d": 107.14274999999907,
      "v": 127
    },
    {
      "midi": 60,
      "hit": false,
      "t": 105642.75149999965,
      "d": 428.5709999999963,
      "v": 127
    },
    {
      "midi": 70,
      "hit": false,
      "t": 105749.89424999965,
      "d": 107.14274999999907,
      "v": 127
    },
    {
      "midi": 68,
      "hit": false,
      "t": 105857.03699999965,
      "d": 107.14274999999907,
      "v": 127
    },
    {
      "midi": 67,
      "hit": false,
      "t": 105964.17974999965,
      "d": 107.14274999999907,
      "v": 127
    },
    {
      "midi": 65,
      "hit": false,
      "t": 106071.32249999965,
      "d": 107.14274999999907,
      "v": 127
    },
    {
      "midi": 62,
      "hit": false,
      "t": 106071.32249999965,
      "d": 214.28549999999814,
      "v": 127
    },
    {
      "midi": 72,
      "hit": false,
      "t": 106178.46524999964,
      "d": 107.14274999999907,
      "v": 127
    },
    {
      "midi": 70,
      "hit": false,
      "t": 106285.60799999964,
      "d": 107.14274999999907,
      "v": 127
    },
    {
      "midi": 68,
      "hit": false,
      "t": 106392.75074999964,
      "d": 107.14274999999907,
      "v": 127
    },
    {
      "midi": 79,
      "hit": false,
      "t": 106499.89349999964,
      "d": 107.14274999999907,
      "v": 127
    },
    {
      "midi": 63,
      "hit": false,
      "t": 106499.89349999964,
      "d": 428.5709999999963,
      "v": 127
    },
    {
      "midi": 79,
      "hit": false,
      "t": 106607.03624999964,
      "d": 107.14274999999907,
      "v": 127
    },
    {
      "midi": 77,
      "hit": false,
      "t": 106714.17899999964,
      "d": 107.14274999999907,
      "v": 127
    },
    {
      "midi": 75,
      "hit": false,
      "t": 106821.32174999964,
      "d": 107.14274999999907,
      "v": 127
    },
    {
      "midi": 74,
      "hit": false,
      "t": 106928.46449999964,
      "d": 107.14274999999907,
      "v": 127
    },
    {
      "midi": 65,
      "hit": false,
      "t": 106928.46449999964,
      "d": 214.28549999999814,
      "v": 127
    },
    {
      "midi": 84,
      "hit": false,
      "t": 107035.60724999964,
      "d": 107.14274999999907,
      "v": 127
    },
    {
      "midi": 82,
      "hit": false,
      "t": 107142.74999999964,
      "d": 107.14274999999907,
      "v": 127
    },
    {
      "midi": 80,
      "hit": false,
      "t": 107249.89274999964,
      "d": 107.14274999999907,
      "v": 127
    },
    {
      "midi": 79,
      "hit": false,
      "t": 107357.03549999963,
      "d": 107.14274999999907,
      "v": 127
    },
    {
      "midi": 67,
      "hit": false,
      "t": 107357.03549999963,
      "d": 428.5709999999963,
      "v": 127
    },
    {
      "midi": 77,
      "hit": false,
      "t": 107464.17824999963,
      "d": 107.14274999999907,
      "v": 127
    },
    {
      "midi": 75,
      "hit": false,
      "t": 107571.32099999963,
      "d": 107.14274999999907,
      "v": 127
    },
    {
      "midi": 74,
      "hit": false,
      "t": 107678.46374999963,
      "d": 107.14274999999907,
      "v": 127
    },
    {
      "midi": 72,
      "hit": false,
      "t": 107785.60649999963,
      "d": 107.14274999999907,
      "v": 127
    },
    {
      "midi": 70,
      "hit": false,
      "t": 107892.74924999963,
      "d": 107.14274999999907,
      "v": 127
    },
    {
      "midi": 68,
      "hit": false,
      "t": 107999.89199999963,
      "d": 107.14274999999907,
      "v": 127
    },
    {
      "midi": 67,
      "hit": false,
      "t": 108107.03474999963,
      "d": 107.14274999999907,
      "v": 127
    },
    {
      "midi": 65,
      "hit": false,
      "t": 108214.17749999963,
      "d": 214.28549999999814,
      "v": 127
    },
    {
      "midi": 44,
      "hit": false,
      "t": 108214.17749999963,
      "d": 428.5709999999963,
      "v": 127
    },
    {
      "midi": 56,
      "hit": false,
      "t": 108214.17749999963,
      "d": 428.5709999999963,
      "v": 127
    },
    {
      "midi": 68,
      "hit": false,
      "t": 108428.46299999963,
      "d": 107.14274999999907,
      "v": 127
    },
    {
      "midi": 65,
      "hit": false,
      "t": 108535.60574999962,
      "d": 107.14274999999907,
      "v": 127
    },
    {
      "midi": 63,
      "hit": false,
      "t": 108642.74849999962,
      "d": 214.28549999999814,
      "v": 127
    },
    {
      "midi": 46,
      "hit": false,
      "t": 108642.74849999962,
      "d": 214.28549999999814,
      "v": 127
    },
    {
      "midi": 55,
      "hit": false,
      "t": 108642.74849999962,
      "d": 214.28549999999814,
      "v": 127
    },
    {
      "midi": 62,
      "hit": false,
      "t": 108857.03399999962,
      "d": 214.28549999999814,
      "v": 127
    },
    {
      "midi": 46,
      "hit": false,
      "t": 108857.03399999962,
      "d": 214.28549999999814,
      "v": 127
    },
    {
      "midi": 53,
      "hit": false,
      "t": 108857.03399999962,
      "d": 214.28549999999814,
      "v": 127
    },
    {
      "midi": 63,
      "hit": false,
      "t": 109071.31949999962,
      "d": 428.5709999999963,
      "v": 127
    },
    {
      "midi": 51,
      "hit": false,
      "t": 109071.31949999962,
      "d": 214.28549999999814,
      "v": 127
    },
    {
      "midi": 46,
      "hit": false,
      "t": 109285.60499999962,
      "d": 214.28549999999814,
      "v": 127
    },
    {
      "midi": 39,
      "hit": false,
      "t": 109499.89049999962,
      "d": 214.28549999999814,
      "v": 127
    },
    {
      "midi": 70,
      "hit": false,
      "t": 109714.17599999961,
      "d": 214.28549999999814,
      "v": 127
    },
    {
      "midi": 67,
      "hit": false,
      "t": 109928.46149999961,
      "d": 214.28549999999814,
      "v": 127
    },
    {
      "midi": 63,
      "hit": false,
      "t": 110142.74699999961,
      "d": 214.28549999999814,
      "v": 127
    },
    {
      "midi": 67,
      "hit": false,
      "t": 110357.03249999961,
      "d": 214.28549999999814,
      "v": 127
    },
    {
      "midi": 70,
      "hit": false,
      "t": 110571.3179999996,
      "d": 214.28549999999814,
      "v": 127
    },
    {
      "midi": 65,
      "hit": false,
      "t": 110785.6034999996,
      "d": 214.28549999999814,
      "v": 127
    },
    {
      "midi": 62,
      "hit": false,
      "t": 110999.8889999996,
      "d": 214.28549999999814,
      "v": 127
    },
    {
      "midi": 65,
      "hit": false,
      "t": 111214.1744999996,
      "d": 214.28549999999814,
      "v": 127
    },
    {
      "midi": 70,
      "hit": false,
      "t": 111428.4599999996,
      "d": 214.28549999999814,
      "v": 127
    },
    {
      "midi": 75,
      "hit": false,
      "t": 111642.7454999996,
      "d": 214.28549999999814,
      "v": 127
    },
    {
      "midi": 68,
      "hit": false,
      "t": 111857.0309999996,
      "d": 428.5709999999963,
      "v": 127
    },
    {
      "midi": 60,
      "hit": false,
      "t": 111857.0309999996,
      "d": 214.28549999999814,
      "v": 127
    },
    {
      "midi": 58,
      "hit": false,
      "t": 112071.3164999996,
      "d": 214.28549999999814,
      "v": 127
    },
    {
      "midi": 67,
      "hit": false,
      "t": 112285.60199999959,
      "d": 214.28549999999814,
      "v": 127
    },
    {
      "midi": 72,
      "hit": false,
      "t": 112499.88749999959,
      "d": 214.28549999999814,
      "v": 127
    },
    {
      "midi": 65,
      "hit": false,
      "t": 112714.17299999959,
      "d": 428.5709999999963,
      "v": 127
    },
    {
      "midi": 56,
      "hit": false,
      "t": 112714.17299999959,
      "d": 214.28549999999814,
      "v": 127
    },
    {
      "midi": 55,
      "hit": false,
      "t": 112928.45849999959,
      "d": 214.28549999999814,
      "v": 127
    },
    {
      "midi": 63,
      "hit": false,
      "t": 113142.74399999958,
      "d": 214.28549999999814,
      "v": 127
    },
    {
      "midi": 62,
      "hit": false,
      "t": 113357.02949999958,
      "d": 214.28549999999814,
      "v": 127
    },
    {
      "midi": 68,
      "hit": false,
      "t": 113571.31499999958,
      "d": 428.5709999999963,
      "v": 127
    },
    {
      "midi": 53,
      "hit": false,
      "t": 113571.31499999958,
      "d": 214.28549999999814,
      "v": 127
    },
    {
      "midi": 50,
      "hit": false,
      "t": 113785.60049999958,
      "d": 214.28549999999814,
      "v": 127
    },
    {
      "midi": 67,
      "hit": false,
      "t": 113999.88599999958,
      "d": 214.28549999999814,
      "v": 127
    },
    {
      "midi": 51,
      "hit": false,
      "t": 113999.88599999958,
      "d": 214.28549999999814,
      "v": 127
    },
    {
      "midi": 67,
      "hit": false,
      "t": 114214.17149999957,
      "d": 214.28549999999814,
      "v": 127
    },
    {
      "midi": 46,
      "hit": false,
      "t": 114214.17149999957,
      "d": 214.28549999999814,
      "v": 127
    },
    {
      "midi": 65,
      "hit": false,
      "t": 114428.45699999957,
      "d": 428.5709999999963,
      "v": 127
    },
    {
      "midi": 58,
      "hit": false,
      "t": 114428.45699999957,
      "d": 214.28549999999814,
      "v": 127
    },
    {
      "midi": 46,
      "hit": false,
      "t": 114642.74249999957,
      "d": 214.28549999999814,
      "v": 127
    },
    {
      "midi": 70,
      "hit": false,
      "t": 114857.02799999957,
      "d": 214.28549999999814,
      "v": 127
    },
    {
      "midi": 67,
      "hit": false,
      "t": 115071.31349999957,
      "d": 214.28549999999814,
      "v": 127
    },
    {
      "midi": 63,
      "hit": false,
      "t": 115285.59899999957,
      "d": 214.28549999999814,
      "v": 127
    },
    {
      "midi": 67,
      "hit": false,
      "t": 115499.88449999956,
      "d": 214.28549999999814,
      "v": 127
    },
    {
      "midi": 70,
      "hit": false,
      "t": 115714.16999999956,
      "d": 214.28549999999814,
      "v": 127
    },
    {
      "midi": 65,
      "hit": false,
      "t": 115928.45549999956,
      "d": 214.28549999999814,
      "v": 127
    },
    {
      "midi": 62,
      "hit": false,
      "t": 116142.74099999956,
      "d": 214.28549999999814,
      "v": 127
    },
    {
      "midi": 65,
      "hit": false,
      "t": 116357.02649999956,
      "d": 214.28549999999814,
      "v": 127
    },
    {
      "midi": 70,
      "hit": false,
      "t": 116571.31199999955,
      "d": 214.28549999999814,
      "v": 127
    },
    {
      "midi": 69,
      "hit": false,
      "t": 116785.59749999955,
      "d": 214.28549999999814,
      "v": 127
    },
    {
      "midi": 75,
      "hit": false,
      "t": 116999.88299999955,
      "d": 428.5709999999963,
      "v": 127
    },
    {
      "midi": 60,
      "hit": false,
      "t": 116999.88299999955,
      "d": 214.28549999999814,
      "v": 127
    },
    {
      "midi": 58,
      "hit": false,
      "t": 117214.16849999955,
      "d": 214.28549999999814,
      "v": 127
    },
    {
      "midi": 74,
      "hit": false,
      "t": 117428.45399999955,
      "d": 214.28549999999814,
      "v": 127
    },
    {
      "midi": 67,
      "hit": false,
      "t": 117642.73949999954,
      "d": 214.28549999999814,
      "v": 127
    },
    {
      "midi": 72,
      "hit": false,
      "t": 117857.02499999954,
      "d": 428.5709999999963,
      "v": 127
    },
    {
      "midi": 63,
      "hit": false,
      "t": 117857.02499999954,
      "d": 214.28549999999814,
      "v": 127
    },
    {
      "midi": 62,
      "hit": false,
      "t": 118071.31049999954,
      "d": 214.28549999999814,
      "v": 127
    },
    {
      "midi": 70,
      "hit": false,
      "t": 118285.59599999954,
      "d": 214.28549999999814,
      "v": 127
    },
    {
      "midi": 67,
      "hit": false,
      "t": 118499.88149999954,
      "d": 214.28549999999814,
      "v": 127
    },
    {
      "midi": 79,
      "hit": false,
      "t": 118714.16699999954,
      "d": 428.5709999999963,
      "v": 127
    },
    {
      "midi": 63,
      "hit": false,
      "t": 118714.16699999954,
      "d": 214.28549999999814,
      "v": 127
    },
    {
      "midi": 60,
      "hit": false,
      "t": 118928.45249999953,
      "d": 214.28549999999814,
      "v": 127
    },
    {
      "midi": 69,
      "hit": false,
      "t": 119142.73799999953,
      "d": 214.28549999999814,
      "v": 127
    },
    {
      "midi": 65,
      "hit": false,
      "t": 119142.73799999953,
      "d": 428.5709999999963,
      "v": 127
    },
    {
      "midi": 72,
      "hit": false,
      "t": 119357.02349999953,
      "d": 214.28549999999814,
      "v": 127
    },
    {
      "midi": 70,
      "hit": false,
      "t": 119571.30899999953,
      "d": 428.5709999999963,
      "v": 127
    },
    {
      "midi": 58,
      "hit": false,
      "t": 119571.30899999953,
      "d": 214.28549999999814,
      "v": 127
    },
    {
      "midi": 46,
      "hit": false,
      "t": 119785.59449999953,
      "d": 214.28549999999814,
      "v": 127
    },
    {
      "midi": 70,
      "hit": false,
      "t": 119999.87999999952,
      "d": 214.28549999999814,
      "v": 127
    },
    {
      "midi": 69,
      "hit": false,
      "t": 120214.16549999952,
      "d": 214.28549999999814,
      "v": 127
    },
    {
      "midi": 70,
      "hit": false,
      "t": 120428.45099999952,
      "d": 428.5709999999963,
      "v": 127
    },
    {
      "midi": 63,
      "hit": false,
      "t": 120428.45099999952,
      "d": 214.28549999999814,
      "v": 127
    },
    {
      "midi": 67,
      "hit": false,
      "t": 120428.45099999952,
      "d": 214.28549999999814,
      "v": 127
    },
    {
      "midi": 62,
      "hit": false,
      "t": 120642.73649999952,
      "d": 214.28549999999814,
      "v": 127
    },
    {
      "midi": 66,
      "hit": false,
      "t": 120642.73649999952,
      "d": 214.28549999999814,
      "v": 127
    },
    {
      "midi": 70,
      "hit": false,
      "t": 120857.02199999952,
      "d": 214.28549999999814,
      "v": 127
    },
    {
      "midi": 63,
      "hit": false,
      "t": 120857.02199999952,
      "d": 428.5709999999963,
      "v": 127
    },
    {
      "midi": 67,
      "hit": false,
      "t": 120857.02199999952,
      "d": 428.5709999999963,
      "v": 127
    },
    {
      "midi": 69,
      "hit": false,
      "t": 121071.30749999952,
      "d": 214.28549999999814,
      "v": 127
    },
    {
      "midi": 70,
      "hit": false,
      "t": 121285.59299999951,
      "d": 428.5709999999963,
      "v": 127
    },
    {
      "midi": 62,
      "hit": false,
      "t": 121285.59299999951,
      "d": 214.28549999999814,
      "v": 127
    },
    {
      "midi": 65,
      "hit": false,
      "t": 121285.59299999951,
      "d": 214.28549999999814,
      "v": 127
    },
    {
      "midi": 61,
      "hit": false,
      "t": 121499.87849999951,
      "d": 214.28549999999814,
      "v": 127
    },
    {
      "midi": 64,
      "hit": false,
      "t": 121499.87849999951,
      "d": 214.28549999999814,
      "v": 127
    },
    {
      "midi": 70,
      "hit": false,
      "t": 121714.16399999951,
      "d": 214.28549999999814,
      "v": 127
    },
    {
      "midi": 62,
      "hit": false,
      "t": 121714.16399999951,
      "d": 428.5709999999963,
      "v": 127
    },
    {
      "midi": 65,
      "hit": false,
      "t": 121714.16399999951,
      "d": 428.5709999999963,
      "v": 127
    },
    {
      "midi": 75,
      "hit": false,
      "t": 121928.44949999951,
      "d": 214.28549999999814,
      "v": 127
    },
    {
      "midi": 68,
      "hit": false,
      "t": 122142.7349999995,
      "d": 428.5709999999963,
      "v": 127
    },
    {
      "midi": 60,
      "hit": false,
      "t": 122142.7349999995,
      "d": 214.28549999999814,
      "v": 127
    },
    {
      "midi": 63,
      "hit": false,
      "t": 122142.7349999995,
      "d": 214.28549999999814,
      "v": 127
    },
    {
      "midi": 58,
      "hit": false,
      "t": 122357.0204999995,
      "d": 214.28549999999814,
      "v": 127
    },
    {
      "midi": 62,
      "hit": false,
      "t": 122357.0204999995,
      "d": 214.28549999999814,
      "v": 127
    },
    {
      "midi": 67,
      "hit": false,
      "t": 122571.3059999995,
      "d": 214.28549999999814,
      "v": 127
    },
    {
      "midi": 72,
      "hit": false,
      "t": 122785.5914999995,
      "d": 214.28549999999814,
      "v": 127
    },
    {
      "midi": 65,
      "hit": false,
      "t": 122999.8769999995,
      "d": 428.5709999999963,
      "v": 127
    },
    {
      "midi": 56,
      "hit": false,
      "t": 122999.8769999995,
      "d": 214.28549999999814,
      "v": 127
    },
    {
      "midi": 60,
      "hit": false,
      "t": 122999.8769999995,
      "d": 214.28549999999814,
      "v": 127
    },
    {
      "midi": 55,
      "hit": false,
      "t": 123214.1624999995,
      "d": 214.28549999999814,
      "v": 127
    },
    {
      "midi": 58,
      "hit": false,
      "t": 123214.1624999995,
      "d": 214.28549999999814,
      "v": 127
    },
    {
      "midi": 63,
      "hit": false,
      "t": 123428.4479999995,
      "d": 214.28549999999814,
      "v": 127
    },
    {
      "midi": 62,
      "hit": false,
      "t": 123642.7334999995,
      "d": 214.28549999999814,
      "v": 127
    },
    {
      "midi": 65,
      "hit": false,
      "t": 123857.01899999949,
      "d": 428.5709999999963,
      "v": 127
    },
    {
      "midi": 68,
      "hit": false,
      "t": 123857.01899999949,
      "d": 428.5709999999963,
      "v": 127
    },
    {
      "midi": 53,
      "hit": false,
      "t": 123857.01899999949,
      "d": 214.28549999999814,
      "v": 127
    },
    {
      "midi": 50,
      "hit": false,
      "t": 124071.30449999949,
      "d": 214.28549999999814,
      "v": 127
    },
    {
      "midi": 63,
      "hit": false,
      "t": 124285.58999999949,
      "d": 428.5709999999963,
      "v": 127
    },
    {
      "midi": 67,
      "hit": false,
      "t": 124285.58999999949,
      "d": 428.5709999999963,
      "v": 127
    },
    {
      "midi": 51,
      "hit": false,
      "t": 124285.58999999949,
      "d": 214.28549999999814,
      "v": 127
    },
    {
      "midi": 46,
      "hit": false,
      "t": 124499.87549999949,
      "d": 214.28549999999814,
      "v": 127
    },
    {
      "midi": 62,
      "hit": false,
      "t": 124714.16099999948,
      "d": 428.5709999999963,
      "v": 127
    },
    {
      "midi": 65,
      "hit": false,
      "t": 124714.16099999948,
      "d": 428.5709999999963,
      "v": 127
    },
    {
      "midi": 58,
      "hit": false,
      "t": 124714.16099999948,
      "d": 214.28549999999814,
      "v": 127
    },
    {
      "midi": 46,
      "hit": false,
      "t": 124928.44649999948,
      "d": 214.28549999999814,
      "v": 127
    },
    {
      "midi": 70,
      "hit": false,
      "t": 125142.73199999948,
      "d": 214.28549999999814,
      "v": 127
    },
    {
      "midi": 69,
      "hit": false,
      "t": 125357.01749999948,
      "d": 214.28549999999814,
      "v": 127
    },
    {
      "midi": 70,
      "hit": false,
      "t": 125571.30299999948,
      "d": 428.5709999999963,
      "v": 127
    },
    {
      "midi": 63,
      "hit": false,
      "t": 125571.30299999948,
      "d": 214.28549999999814,
      "v": 127
    },
    {
      "midi": 67,
      "hit": false,
      "t": 125571.30299999948,
      "d": 214.28549999999814,
      "v": 127
    },
    {
      "midi": 62,
      "hit": false,
      "t": 125785.58849999947,
      "d": 214.28549999999814,
      "v": 127
    },
    {
      "midi": 66,
      "hit": false,
      "t": 125785.58849999947,
      "d": 214.28549999999814,
      "v": 127
    },
    {
      "midi": 70,
      "hit": false,
      "t": 125999.87399999947,
      "d": 214.28549999999814,
      "v": 127
    },
    {
      "midi": 63,
      "hit": false,
      "t": 125999.87399999947,
      "d": 428.5709999999963,
      "v": 127
    },
    {
      "midi": 67,
      "hit": false,
      "t": 125999.87399999947,
      "d": 428.5709999999963,
      "v": 127
    },
    {
      "midi": 69,
      "hit": false,
      "t": 126214.15949999947,
      "d": 214.28549999999814,
      "v": 127
    },
    {
      "midi": 70,
      "hit": false,
      "t": 126428.44499999947,
      "d": 428.5709999999963,
      "v": 127
    },
    {
      "midi": 62,
      "hit": false,
      "t": 126428.44499999947,
      "d": 214.28549999999814,
      "v": 127
    },
    {
      "midi": 65,
      "hit": false,
      "t": 126428.44499999947,
      "d": 214.28549999999814,
      "v": 127
    },
    {
      "midi": 61,
      "hit": false,
      "t": 126642.73049999947,
      "d": 214.28549999999814,
      "v": 127
    },
    {
      "midi": 64,
      "hit": false,
      "t": 126642.73049999947,
      "d": 214.28549999999814,
      "v": 127
    },
    {
      "midi": 70,
      "hit": false,
      "t": 126857.01599999946,
      "d": 214.28549999999814,
      "v": 127
    },
    {
      "midi": 62,
      "hit": false,
      "t": 126857.01599999946,
      "d": 428.5709999999963,
      "v": 127
    },
    {
      "midi": 65,
      "hit": false,
      "t": 126857.01599999946,
      "d": 428.5709999999963,
      "v": 127
    },
    {
      "midi": 69,
      "hit": false,
      "t": 127071.30149999946,
      "d": 214.28549999999814,
      "v": 127
    },
    {
      "midi": 75,
      "hit": false,
      "t": 127285.58699999946,
      "d": 428.5709999999963,
      "v": 127
    },
    {
      "midi": 60,
      "hit": false,
      "t": 127285.58699999946,
      "d": 214.28549999999814,
      "v": 127
    },
    {
      "midi": 58,
      "hit": false,
      "t": 127499.87249999946,
      "d": 214.28549999999814,
      "v": 127
    },
    {
      "midi": 74,
      "hit": false,
      "t": 127714.15799999946,
      "d": 214.28549999999814,
      "v": 127
    },
    {
      "midi": 67,
      "hit": false,
      "t": 127928.44349999946,
      "d": 214.28549999999814,
      "v": 127
    },
    {
      "midi": 72,
      "hit": false,
      "t": 128142.72899999945,
      "d": 428.5709999999963,
      "v": 127
    },
    {
      "midi": 63,
      "hit": false,
      "t": 128142.72899999945,
      "d": 214.28549999999814,
      "v": 127
    },
    {
      "midi": 67,
      "hit": false,
      "t": 128142.72899999945,
      "d": 214.28549999999814,
      "v": 127
    },
    {
      "midi": 62,
      "hit": false,
      "t": 128357.01449999945,
      "d": 214.28549999999814,
      "v": 127
    },
    {
      "midi": 65,
      "hit": false,
      "t": 128357.01449999945,
      "d": 214.28549999999814,
      "v": 127
    },
    {
      "midi": 70,
      "hit": false,
      "t": 128571.29999999945,
      "d": 214.28549999999814,
      "v": 127
    },
    {
      "midi": 67,
      "hit": false,
      "t": 128785.58549999945,
      "d": 214.28549999999814,
      "v": 127
    },
    {
      "midi": 75,
      "hit": false,
      "t": 128999.87099999945,
      "d": 428.5709999999963,
      "v": 127
    },
    {
      "midi": 79,
      "hit": false,
      "t": 128999.87099999945,
      "d": 428.5709999999963,
      "v": 127
    },
    {
      "midi": 63,
      "hit": false,
      "t": 128999.87099999945,
      "d": 214.28549999999814,
      "v": 127
    },
    {
      "midi": 60,
      "hit": false,
      "t": 129214.15649999944,
      "d": 214.28549999999814,
      "v": 127
    },
    {
      "midi": 69,
      "hit": false,
      "t": 129428.44199999944,
      "d": 428.5709999999963,
      "v": 127
    },
    {
      "midi": 72,
      "hit": false,
      "t": 129428.44199999944,
      "d": 428.5709999999963,
      "v": 127
    },
    {
      "midi": 65,
      "hit": false,
      "t": 129428.44199999944,
      "d": 214.28549999999814,
      "v": 127
    },
    {
      "midi": 58,
      "hit": false,
      "t": 129642.72749999944,
      "d": 428.5709999999963,
      "v": 127
    },
    {
      "midi": 70,
      "hit": false,
      "t": 129857.01299999944,
      "d": 428.5709999999963,
      "v": 127
    },
    {
      "midi": 74,
      "hit": false,
      "t": 129857.01299999944,
      "d": 428.5709999999963,
      "v": 127
    },
    {
      "midi": 46,
      "hit": false,
      "t": 130071.29849999944,
      "d": 214.28549999999814,
      "v": 127
    },
    {
      "midi": 74,
      "hit": false,
      "t": 130285.58399999944,
      "d": 214.28549999999814,
      "v": 127
    },
    {
      "midi": 77,
      "hit": false,
      "t": 130499.86949999943,
      "d": 214.28549999999814,
      "v": 127
    },
    {
      "midi": 58,
      "hit": false,
      "t": 130714.15499999943,
      "d": 214.28549999999814,
      "v": 127
    },
    {
      "midi": 62,
      "hit": false,
      "t": 130928.44049999943,
      "d": 214.2855000000127,
      "v": 127
    },
    {
      "midi": 68,
      "hit": false,
      "t": 131142.72599999944,
      "d": 214.28549999999814,
      "v": 127
    },
    {
      "midi": 67,
      "hit": false,
      "t": 131357.01149999944,
      "d": 214.28549999999814,
      "v": 127
    },
    {
      "midi": 63,
      "hit": false,
      "t": 131571.29699999944,
      "d": 214.28549999999814,
      "v": 127
    },
    {
      "midi": 67,
      "hit": false,
      "t": 131785.58249999944,
      "d": 214.28549999999814,
      "v": 127
    },
    {
      "midi": 70,
      "hit": false,
      "t": 131999.86799999943,
      "d": 214.28549999999814,
      "v": 127
    },
    {
      "midi": 72,
      "hit": false,
      "t": 132214.15349999943,
      "d": 214.28549999999814,
      "v": 127
    },
    {
      "midi": 56,
      "hit": false,
      "t": 132428.43899999943,
      "d": 214.28549999999814,
      "v": 127
    },
    {
      "midi": 60,
      "hit": false,
      "t": 132642.72449999943,
      "d": 214.28549999999814,
      "v": 127
    },
    {
      "midi": 63,
      "hit": false,
      "t": 132857.00999999943,
      "d": 214.28549999999814,
      "v": 127
    },
    {
      "midi": 62,
      "hit": false,
      "t": 133071.29549999943,
      "d": 214.28549999999814,
      "v": 127
    },
    {
      "midi": 58,
      "hit": false,
      "t": 133285.58099999942,
      "d": 214.28549999999814,
      "v": 127
    },
    {
      "midi": 46,
      "hit": false,
      "t": 133499.86649999942,
      "d": 214.28549999999814,
      "v": 127
    },
    {
      "midi": 58,
      "hit": false,
      "t": 133714.15199999942,
      "d": 214.28549999999814,
      "v": 127
    },
    {
      "midi": 60,
      "hit": false,
      "t": 133928.43749999942,
      "d": 214.28549999999814,
      "v": 127
    },
    {
      "midi": 65,
      "hit": false,
      "t": 134142.72299999942,
      "d": 428.5709999999963,
      "v": 127
    },
    {
      "midi": 56,
      "hit": false,
      "t": 134142.72299999942,
      "d": 214.28549999999814,
      "v": 127
    },
    {
      "midi": 55,
      "hit": false,
      "t": 134357.0084999994,
      "d": 214.28549999999814,
      "v": 127
    },
    {
      "midi": 63,
      "hit": false,
      "t": 134571.2939999994,
      "d": 214.28549999999814,
      "v": 127
    },
    {
      "midi": 62,
      "hit": false,
      "t": 134785.5794999994,
      "d": 214.28549999999814,
      "v": 127
    },
    {
      "midi": 68,
      "hit": false,
      "t": 134999.8649999994,
      "d": 428.5709999999963,
      "v": 127
    },
    {
      "midi": 60,
      "hit": false,
      "t": 134999.8649999994,
      "d": 214.28549999999814,
      "v": 127
    },
    {
      "midi": 58,
      "hit": false,
      "t": 135214.1504999994,
      "d": 214.28549999999814,
      "v": 127
    },
    {
      "midi": 67,
      "hit": false,
      "t": 135428.4359999994,
      "d": 214.28549999999814,
      "v": 127
    },
    {
      "midi": 65,
      "hit": false,
      "t": 135642.7214999994,
      "d": 214.28549999999814,
      "v": 127
    },
    {
      "midi": 72,
      "hit": false,
      "t": 135857.0069999994,
      "d": 428.5709999999963,
      "v": 127
    },
    {
      "midi": 68,
      "hit": false,
      "t": 135857.0069999994,
      "d": 214.28549999999814,
      "v": 127
    },
    {
      "midi": 67,
      "hit": false,
      "t": 136071.2924999994,
      "d": 214.28549999999814,
      "v": 127
    },
    {
      "midi": 70,
      "hit": false,
      "t": 136285.5779999994,
      "d": 214.28549999999814,
      "v": 127
    },
    {
      "midi": 68,
      "hit": false,
      "t": 136499.8634999994,
      "d": 214.28549999999814,
      "v": 127
    },
    {
      "midi": 80,
      "hit": false,
      "t": 136714.1489999994,
      "d": 428.5709999999963,
      "v": 127
    },
    {
      "midi": 65,
      "hit": false,
      "t": 136714.1489999994,
      "d": 214.28549999999814,
      "v": 127
    },
    {
      "midi": 62,
      "hit": false,
      "t": 136928.4344999994,
      "d": 214.28549999999814,
      "v": 127
    },
    {
      "midi": 79,
      "hit": false,
      "t": 137142.7199999994,
      "d": 428.5709999999963,
      "v": 127
    },
    {
      "midi": 63,
      "hit": false,
      "t": 137142.7199999994,
      "d": 214.28549999999814,
      "v": 127
    },
    {
      "midi": 56,
      "hit": false,
      "t": 137357.0054999994,
      "d": 428.5709999999963,
      "v": 127
    },
    {
      "midi": 77,
      "hit": false,
      "t": 137571.2909999994,
      "d": 214.28549999999814,
      "v": 127
    },
    {
      "midi": 80,
      "hit": false,
      "t": 137785.57649999938,
      "d": 214.28549999999814,
      "v": 127
    },
    {
      "midi": 74,
      "hit": false,
      "t": 137999.86199999938,
      "d": 214.28549999999814,
      "v": 127
    },
    {
      "midi": 58,
      "hit": false,
      "t": 137999.86199999938,
      "d": 214.28549999999814,
      "v": 127
    },
    {
      "midi": 77,
      "hit": false,
      "t": 138214.14749999938,
      "d": 214.28549999999814,
      "v": 127
    },
    {
      "midi": 51,
      "hit": false,
      "t": 138214.14749999938,
      "d": 214.28549999999814,
      "v": 127
    },
    {
      "midi": 75,
      "hit": false,
      "t": 138428.43299999938,
      "d": 428.5709999999963,
      "v": 127
    },
    {
      "midi": 63,
      "hit": false,
      "t": 138428.43299999938,
      "d": 214.28549999999814,
      "v": 127
    },
    {
      "midi": 51,
      "hit": false,
      "t": 138642.71849999938,
      "d": 214.28549999999814,
      "v": 127
    },
    {
      "midi": 65,
      "hit": false,
      "t": 138857.00399999938,
      "d": 214.28549999999814,
      "v": 127
    },
    {
      "midi": 74,
      "hit": false,
      "t": 138857.00399999938,
      "d": 214.28549999999814,
      "v": 127
    },
    {
      "midi": 68,
      "hit": false,
      "t": 139071.28949999937,
      "d": 214.28549999999814,
      "v": 127
    },
    {
      "midi": 77,
      "hit": false,
      "t": 139071.28949999937,
      "d": 214.28549999999814,
      "v": 127
    },
    {
      "midi": 46,
      "hit": false,
      "t": 139285.57499999937,
      "d": 214.28549999999814,
      "v": 127
    },
    {
      "midi": 58,
      "hit": false,
      "t": 139499.86049999937,
      "d": 214.28549999999814,
      "v": 127
    },
    {
      "midi": 65,
      "hit": false,
      "t": 139714.14599999937,
      "d": 214.28549999999814,
      "v": 127
    },
    {
      "midi": 68,
      "hit": false,
      "t": 139714.14599999937,
      "d": 214.28549999999814,
      "v": 127
    },
    {
      "midi": 63,
      "hit": false,
      "t": 139928.43149999937,
      "d": 214.28549999999814,
      "v": 127
    },
    {
      "midi": 67,
      "hit": false,
      "t": 139928.43149999937,
      "d": 214.28549999999814,
      "v": 127
    },
    {
      "midi": 46,
      "hit": false,
      "t": 140142.71699999936,
      "d": 214.28549999999814,
      "v": 127
    },
    {
      "midi": 51,
      "hit": false,
      "t": 140357.00249999936,
      "d": 214.28549999999814,
      "v": 127
    },
    {
      "midi": 67,
      "hit": false,
      "t": 140571.28799999936,
      "d": 214.28549999999814,
      "v": 127
    },
    {
      "midi": 70,
      "hit": false,
      "t": 140571.28799999936,
      "d": 214.28549999999814,
      "v": 127
    },
    {
      "midi": 68,
      "hit": false,
      "t": 140785.57349999936,
      "d": 214.28549999999814,
      "v": 127
    },
    {
      "midi": 72,
      "hit": false,
      "t": 140785.57349999936,
      "d": 214.28549999999814,
      "v": 127
    },
    {
      "midi": 32,
      "hit": false,
      "t": 140999.85899999936,
      "d": 214.28549999999814,
      "v": 127
    },
    {
      "midi": 44,
      "hit": false,
      "t": 141214.14449999935,
      "d": 214.28549999999814,
      "v": 127
    },
    {
      "midi": 60,
      "hit": false,
      "t": 141428.42999999935,
      "d": 214.28549999999814,
      "v": 127
    },
    {
      "midi": 63,
      "hit": false,
      "t": 141428.42999999935,
      "d": 214.28549999999814,
      "v": 127
    },
    {
      "midi": 58,
      "hit": false,
      "t": 141642.71549999935,
      "d": 214.28549999999814,
      "v": 127
    },
    {
      "midi": 62,
      "hit": false,
      "t": 141642.71549999935,
      "d": 214.28549999999814,
      "v": 127
    },
    {
      "midi": 34,
      "hit": false,
      "t": 141857.00099999935,
      "d": 214.28549999999814,
      "v": 127
    },
    {
      "midi": 46,
      "hit": false,
      "t": 142071.28649999935,
      "d": 214.28549999999814,
      "v": 127
    },
    {
      "midi": 58,
      "hit": false,
      "t": 142285.57199999935,
      "d": 214.28549999999814,
      "v": 127
    },
    {
      "midi": 60,
      "hit": false,
      "t": 142499.85749999934,
      "d": 214.28549999999814,
      "v": 127
    },
    {
      "midi": 65,
      "hit": false,
      "t": 142714.14299999934,
      "d": 428.5709999999963,
      "v": 127
    },
    {
      "midi": 56,
      "hit": false,
      "t": 142714.14299999934,
      "d": 214.28549999999814,
      "v": 127
    },
    {
      "midi": 60,
      "hit": false,
      "t": 142714.14299999934,
      "d": 214.28549999999814,
      "v": 127
    },
    {
      "midi": 55,
      "hit": false,
      "t": 142928.42849999934,
      "d": 214.28549999999814,
      "v": 127
    },
    {
      "midi": 58,
      "hit": false,
      "t": 142928.42849999934,
      "d": 214.28549999999814,
      "v": 127
    },
    {
      "midi": 63,
      "hit": false,
      "t": 143142.71399999934,
      "d": 214.28549999999814,
      "v": 127
    },
    {
      "midi": 62,
      "hit": false,
      "t": 143356.99949999934,
      "d": 214.28549999999814,
      "v": 127
    },
    {
      "midi": 68,
      "hit": false,
      "t": 143571.28499999933,
      "d": 428.5709999999963,
      "v": 127
    },
    {
      "midi": 60,
      "hit": false,
      "t": 143571.28499999933,
      "d": 214.28549999999814,
      "v": 127
    },
    {
      "midi": 63,
      "hit": false,
      "t": 143571.28499999933,
      "d": 214.28549999999814,
      "v": 127
    },
    {
      "midi": 58,
      "hit": false,
      "t": 143785.57049999933,
      "d": 214.28549999999814,
      "v": 127
    },
    {
      "midi": 62,
      "hit": false,
      "t": 143785.57049999933,
      "d": 214.28549999999814,
      "v": 127
    },
    {
      "midi": 67,
      "hit": false,
      "t": 143999.85599999933,
      "d": 214.28549999999814,
      "v": 127
    },
    {
      "midi": 65,
      "hit": false,
      "t": 144214.14149999933,
      "d": 214.28549999999814,
      "v": 127
    },
    {
      "midi": 68,
      "hit": false,
      "t": 144428.42699999933,
      "d": 428.5709999999963,
      "v": 127
    },
    {
      "midi": 72,
      "hit": false,
      "t": 144428.42699999933,
      "d": 428.5709999999963,
      "v": 127
    },
    {
      "midi": 62,
      "hit": false,
      "t": 144428.42699999933,
      "d": 214.28549999999814,
      "v": 127
    },
    {
      "midi": 63,
      "hit": false,
      "t": 144642.71249999932,
      "d": 214.28549999999814,
      "v": 127
    },
    {
      "midi": 67,
      "hit": false,
      "t": 144856.99799999932,
      "d": 214.28549999999814,
      "v": 127
    },
    {
      "midi": 70,
      "hit": false,
      "t": 144856.99799999932,
      "d": 214.28549999999814,
      "v": 127
    },
    {
      "midi": 65,
      "hit": false,
      "t": 145071.28349999932,
      "d": 214.28549999999814,
      "v": 127
    },
    {
      "midi": 68,
      "hit": false,
      "t": 145071.28349999932,
      "d": 214.28549999999814,
      "v": 127
    },
    {
      "midi": 80,
      "hit": false,
      "t": 145285.56899999932,
      "d": 428.5709999999963,
      "v": 127
    },
    {
      "midi": 84,
      "hit": false,
      "t": 145285.56899999932,
      "d": 428.5709999999963,
      "v": 127
    },
    {
      "midi": 50,
      "hit": false,
      "t": 145285.56899999932,
      "d": 214.28549999999814,
      "v": 127
    },
    {
      "midi": 51,
      "hit": false,
      "t": 145499.85449999932,
      "d": 214.28549999999814,
      "v": 127
    },
    {
      "midi": 79,
      "hit": false,
      "t": 145714.13999999932,
      "d": 428.5709999999963,
      "v": 127
    },
    {
      "midi": 82,
      "hit": false,
      "t": 145714.13999999932,
      "d": 428.5709999999963,
      "v": 127
    },
    {
      "midi": 44,
      "hit": false,
      "t": 145928.4254999993,
      "d": 428.5709999999963,
      "v": 127
    },
    {
      "midi": 56,
      "hit": false,
      "t": 145928.4254999993,
      "d": 428.5709999999963,
      "v": 127
    },
    {
      "midi": 77,
      "hit": false,
      "t": 146142.7109999993,
      "d": 214.28549999999814,
      "v": 127
    },
    {
      "midi": 80,
      "hit": false,
      "t": 146142.7109999993,
      "d": 214.28549999999814,
      "v": 127
    },
    {
      "midi": 75,
      "hit": false,
      "t": 146356.9964999993,
      "d": 214.28549999999814,
      "v": 127
    },
    {
      "midi": 79,
      "hit": false,
      "t": 146356.9964999993,
      "d": 214.28549999999814,
      "v": 127
    },
    {
      "midi": 46,
      "hit": false,
      "t": 146356.9964999993,
      "d": 214.28549999999814,
      "v": 127
    },
    {
      "midi": 58,
      "hit": false,
      "t": 146356.9964999993,
      "d": 214.28549999999814,
      "v": 127
    },
    {
      "midi": 74,
      "hit": false,
      "t": 146571.2819999993,
      "d": 214.28549999999814,
      "v": 127
    },
    {
      "midi": 77,
      "hit": false,
      "t": 146571.2819999993,
      "d": 214.28549999999814,
      "v": 127
    },
    {
      "midi": 75,
      "hit": false,
      "t": 146785.5674999993,
      "d": 428.5709999999963,
      "v": 127
    },
    {
      "midi": 39,
      "hit": false,
      "t": 146785.5674999993,
      "d": 428.5709999999963,
      "v": 127
    },
    {
      "midi": 51,
      "hit": false,
      "t": 146785.5674999993,
      "d": 428.5709999999963,
      "v": 127
    }
  ]
}