{
  "jsonPath": "Pop/Comic/Bob Rivers/downtown-in-the-90s-lp-version.json",
  "path": "Pop\\Comic\\Bob Rivers\\Downtown In The 90s (LP Version).mid",
  "name": "Downtown In The 90s (LP Version)",
  "difficulty": "Advanced",
  "bpm": 117.000117000117,
  "notes": [
    {
      "midi": 40,
      "hit": false,
      "t": 2020.8333333333333,
      "d": 687.4999999999998,
      "v": 96
    },
    {
      "midi": 56,
      "hit": false,
      "t": 2520.833333333333,
      "d": 312.5,
      "v": 86
    },
    {
      "midi": 59,
      "hit": false,
      "t": 2520.833333333333,
      "d": 312.5,
      "v": 86
    },
    {
      "midi": 64,
      "hit": false,
      "t": 2520.833333333333,
      "d": 312.5,
      "v": 86
    },
    {
      "midi": 52,
      "hit": false,
      "t": 2770.833333333333,
      "d": 312.5,
      "v": 86
    },
    {
      "midi": 56,
      "hit": false,
      "t": 3270.833333333333,
      "d": 270.8333333333335,
      "v": 86
    },
    {
      "midi": 59,
      "hit": false,
      "t": 3270.833333333333,
      "d": 270.8333333333335,
      "v": 86
    },
    {
      "midi": 64,
      "hit": false,
      "t": 3270.833333333333,
      "d": 270.8333333333335,
      "v": 86
    },
    {
      "midi": 52,
      "hit": false,
      "t": 3520.833333333333,
      "d": 312.5,
      "v": 86
    },
    {
      "midi": 47,
      "hit": false,
      "t": 3770.833333333333,
      "d": 312.5,
      "v": 86
    },
    {
      "midi": 52,
      "hit": false,
      "t": 4020.833333333333,
      "d": 437.5,
      "v": 86
    },
    {
      "midi": 40,
      "hit": false,
      "t": 4020.833333333333,
      "d": 479.16666666666697,
      "v": 86
    },
    {
      "midi": 57,
      "hit": false,
      "t": 4020.833333333333,
      "d": 479.16666666666697,
      "v": 86
    },
    {
      "midi": 61,
      "hit": false,
      "t": 4020.833333333333,
      "d": 479.16666666666697,
      "v": 86
    },
    {
      "midi": 57,
      "hit": false,
      "t": 4520.833333333333,
      "d": 312.5,
      "v": 86
    },
    {
      "midi": 61,
      "hit": false,
      "t": 4520.833333333333,
      "d": 312.5,
      "v": 86
    },
    {
      "midi": 40,
      "hit": false,
      "t": 4770.833333333333,
      "d": 479.16666666666697,
      "v": 86
    },
    {
      "midi": 54,
      "hit": false,
      "t": 4770.833333333333,
      "d": 479.16666666666697,
      "v": 86
    },
    {
      "midi": 59,
      "hit": false,
      "t": 4770.833333333333,
      "d": 479.16666666666697,
      "v": 86
    },
    {
      "midi": 63,
      "hit": false,
      "t": 4770.833333333333,
      "d": 479.16666666666697,
      "v": 86
    },
    {
      "midi": 54,
      "hit": false,
      "t": 5270.833333333333,
      "d": 250,
      "v": 86
    },
    {
      "midi": 54,
      "hit": false,
      "t": 5520.833333333333,
      "d": 250,
      "v": 86
    },
    {
      "midi": 40,
      "hit": false,
      "t": 5520.833333333333,
      "d": 312.5,
      "v": 86
    },
    {
      "midi": 59,
      "hit": false,
      "t": 5520.833333333333,
      "d": 312.5,
      "v": 86
    },
    {
      "midi": 47,
      "hit": false,
      "t": 5770.833333333333,
      "d": 312.5,
      "v": 86
    },
    {
      "midi": 40,
      "hit": false,
      "t": 6020.833333333333,
      "d": 895.833333333333,
      "v": 106
    },
    {
      "midi": 56,
      "hit": false,
      "t": 6520.833333333333,
      "d": 520.833333333333,
      "v": 86
    },
    {
      "midi": 59,
      "hit": false,
      "t": 6520.833333333333,
      "d": 520.833333333333,
      "v": 86
    },
    {
      "midi": 64,
      "hit": false,
      "t": 6520.833333333333,
      "d": 520.833333333333,
      "v": 86
    },
    {
      "midi": 52,
      "hit": false,
      "t": 6770.833333333333,
      "d": 312.5,
      "v": 86
    },
    {
      "midi": 56,
      "hit": false,
      "t": 7270.833333333333,
      "d": 270.83333333333303,
      "v": 86
    },
    {
      "midi": 59,
      "hit": false,
      "t": 7270.833333333333,
      "d": 270.83333333333303,
      "v": 86
    },
    {
      "midi": 64,
      "hit": false,
      "t": 7270.833333333333,
      "d": 270.83333333333303,
      "v": 86
    },
    {
      "midi": 52,
      "hit": false,
      "t": 7520.833333333333,
      "d": 312.5,
      "v": 86
    },
    {
      "midi": 47,
      "hit": false,
      "t": 7770.833333333333,
      "d": 312.5,
      "v": 86
    },
    {
      "midi": 52,
      "hit": false,
      "t": 8020.833333333333,
      "d": 437.4999999999991,
      "v": 86
    },
    {
      "midi": 40,
      "hit": false,
      "t": 8020.833333333333,
      "d": 479.16666666666515,
      "v": 86
    },
    {
      "midi": 57,
      "hit": false,
      "t": 8020.833333333333,
      "d": 479.16666666666515,
      "v": 86
    },
    {
      "midi": 61,
      "hit": false,
      "t": 8020.833333333333,
      "d": 479.16666666666515,
      "v": 86
    },
    {
      "midi": 57,
      "hit": false,
      "t": 8520.833333333332,
      "d": 312.5,
      "v": 86
    },
    {
      "midi": 61,
      "hit": false,
      "t": 8520.833333333332,
      "d": 312.5,
      "v": 86
    },
    {
      "midi": 40,
      "hit": false,
      "t": 8770.833333333332,
      "d": 479.16666666666606,
      "v": 86
    },
    {
      "midi": 54,
      "hit": false,
      "t": 8770.833333333332,
      "d": 479.16666666666606,
      "v": 86
    },
    {
      "midi": 59,
      "hit": false,
      "t": 8770.833333333332,
      "d": 479.16666666666606,
      "v": 86
    },
    {
      "midi": 63,
      "hit": false,
      "t": 8770.833333333332,
      "d": 479.16666666666606,
      "v": 86
    },
    {
      "midi": 54,
      "hit": false,
      "t": 9270.833333333332,
      "d": 250,
      "v": 86
    },
    {
      "midi": 54,
      "hit": false,
      "t": 9520.833333333332,
      "d": 250,
      "v": 86
    },
    {
      "midi": 40,
      "hit": false,
      "t": 9520.833333333332,
      "d": 312.5,
      "v": 86
    },
    {
      "midi": 59,
      "hit": false,
      "t": 9520.833333333332,
      "d": 312.5,
      "v": 86
    },
    {
      "midi": 47,
      "hit": false,
      "t": 9770.833333333332,
      "d": 312.5,
      "v": 86
    },
    {
      "midi": 40,
      "hit": false,
      "t": 10020.833333333332,
      "d": 437.5,
      "v": 86
    },
    {
      "midi": 56,
      "hit": false,
      "t": 10520.833333333332,
      "d": 479.16666666666606,
      "v": 86
    },
    {
      "midi": 59,
      "hit": false,
      "t": 10520.833333333332,
      "d": 479.16666666666606,
      "v": 86
    },
    {
      "midi": 64,
      "hit": false,
      "t": 10520.833333333332,
      "d": 479.16666666666606,
      "v": 86
    },
    {
      "midi": 52,
      "hit": false,
      "t": 10770.833333333332,
      "d": 479.16666666666606,
      "v": 86
    },
    {
      "midi": 56,
      "hit": false,
      "t": 11270.833333333332,
      "d": 437.5,
      "v": 86
    },
    {
      "midi": 59,
      "hit": false,
      "t": 11270.833333333332,
      "d": 437.5,
      "v": 86
    },
    {
      "midi": 64,
      "hit": false,
      "t": 11270.833333333332,
      "d": 437.5,
      "v": 86
    },
    {
      "midi": 52,
      "hit": false,
      "t": 11520.833333333332,
      "d": 479.16666666666606,
      "v": 86
    },
    {
      "midi": 47,
      "hit": false,
      "t": 11770.833333333332,
      "d": 479.16666666666606,
      "v": 86
    },
    {
      "midi": 52,
      "hit": false,
      "t": 12020.833333333332,
      "d": 437.5,
      "v": 86
    },
    {
      "midi": 40,
      "hit": false,
      "t": 12020.833333333332,
      "d": 479.16666666666606,
      "v": 86
    },
    {
      "midi": 57,
      "hit": false,
      "t": 12020.833333333332,
      "d": 479.16666666666606,
      "v": 86
    },
    {
      "midi": 61,
      "hit": false,
      "t": 12020.833333333332,
      "d": 479.16666666666606,
      "v": 86
    },
    {
      "midi": 57,
      "hit": false,
      "t": 12520.833333333332,
      "d": 479.16666666666606,
      "v": 86
    },
    {
      "midi": 61,
      "hit": false,
      "t": 12520.833333333332,
      "d": 479.16666666666606,
      "v": 86
    },
    {
      "midi": 40,
      "hit": false,
      "t": 12770.833333333332,
      "d": 479.16666666666606,
      "v": 86
    },
    {
      "midi": 54,
      "hit": false,
      "t": 12770.833333333332,
      "d": 479.16666666666606,
      "v": 86
    },
    {
      "midi": 59,
      "hit": false,
      "t": 12770.833333333332,
      "d": 479.16666666666606,
      "v": 86
    },
    {
      "midi": 63,
      "hit": false,
      "t": 12770.833333333332,
      "d": 479.16666666666606,
      "v": 86
    },
    {
      "midi": 54,
      "hit": false,
      "t": 13270.833333333332,
      "d": 250,
      "v": 86
    },
    {
      "midi": 54,
      "hit": false,
      "t": 13520.833333333332,
      "d": 250,
      "v": 86
    },
    {
      "midi": 40,
      "hit": false,
      "t": 13520.833333333332,
      "d": 479.16666666666606,
      "v": 86
    },
    {
      "midi": 59,
      "hit": false,
      "t": 13520.833333333332,
      "d": 479.16666666666606,
      "v": 86
    },
    {
      "midi": 47,
      "hit": false,
      "t": 13770.833333333332,
      "d": 479.16666666666606,
      "v": 86
    },
    {
      "midi": 40,
      "hit": false,
      "t": 14020.833333333332,
      "d": 437.5,
      "v": 86
    },
    {
      "midi": 56,
      "hit": false,
      "t": 14520.833333333332,
      "d": 479.16666666666606,
      "v": 86
    },
    {
      "midi": 59,
      "hit": false,
      "t": 14520.833333333332,
      "d": 479.16666666666606,
      "v": 86
    },
    {
      "midi": 64,
      "hit": false,
      "t": 14520.833333333332,
      "d": 479.16666666666606,
      "v": 86
    },
    {
      "midi": 52,
      "hit": false,
      "t": 14770.833333333332,
      "d": 479.16666666666606,
      "v": 86
    },
    {
      "midi": 56,
      "hit": false,
      "t": 15270.833333333332,
      "d": 437.5,
      "v": 86
    },
    {
      "midi": 59,
      "hit": false,
      "t": 15270.833333333332,
      "d": 437.5,
      "v": 86
    },
    {
      "midi": 64,
      "hit": false,
      "t": 15270.833333333332,
      "d": 437.5,
      "v": 86
    },
    {
      "midi": 52,
      "hit": false,
      "t": 15520.833333333332,
      "d": 479.16666666666606,
      "v": 86
    },
    {
      "midi": 47,
      "hit": false,
      "t": 15770.833333333332,
      "d": 479.16666666666606,
      "v": 86
    },
    {
      "midi": 52,
      "hit": false,
      "t": 16020.833333333332,
      "d": 437.5,
      "v": 86
    },
    {
      "midi": 40,
      "hit": false,
      "t": 16020.833333333332,
      "d": 479.1666666666679,
      "v": 86
    },
    {
      "midi": 57,
      "hit": false,
      "t": 16020.833333333332,
      "d": 479.1666666666679,
      "v": 86
    },
    {
      "midi": 61,
      "hit": false,
      "t": 16020.833333333332,
      "d": 479.1666666666679,
      "v": 86
    },
    {
      "midi": 57,
      "hit": false,
      "t": 16520.833333333332,
      "d": 479.1666666666679,
      "v": 86
    },
    {
      "midi": 61,
      "hit": false,
      "t": 16520.833333333332,
      "d": 479.1666666666679,
      "v": 86
    },
    {
      "midi": 52,
      "hit": false,
      "t": 16770.833333333332,
      "d": 479.1666666666679,
      "v": 86
    },
    {
      "midi": 47,
      "hit": false,
      "t": 17020.833333333332,
      "d": 479.1666666666679,
      "v": 86
    },
    {
      "midi": 54,
      "hit": false,
      "t": 17020.833333333332,
      "d": 479.1666666666679,
      "v": 86
    },
    {
      "midi": 59,
      "hit": false,
      "t": 17020.833333333332,
      "d": 479.1666666666679,
      "v": 86
    },
    {
      "midi": 63,
      "hit": false,
      "t": 17020.833333333332,
      "d": 479.1666666666679,
      "v": 86
    },
    {
      "midi": 47,
      "hit": false,
      "t": 17520.833333333332,
      "d": 250,
      "v": 86
    },
    {
      "midi": 54,
      "hit": false,
      "t": 17520.833333333332,
      "d": 479.1666666666679,
      "v": 86
    },
    {
      "midi": 59,
      "hit": false,
      "t": 17520.833333333332,
      "d": 479.1666666666679,
      "v": 86
    },
    {
      "midi": 63,
      "hit": false,
      "t": 17520.833333333332,
      "d": 479.1666666666679,
      "v": 86
    },
    {
      "midi": 47,
      "hit": false,
      "t": 17770.833333333332,
      "d": 229.16666666666788,
      "v": 86
    },
    {
      "midi": 40,
      "hit": false,
      "t": 18020.833333333332,
      "d": 437.5,
      "v": 86
    },
    {
      "midi": 56,
      "hit": false,
      "t": 18520.833333333332,
      "d": 479.1666666666679,
      "v": 86
    },
    {
      "midi": 59,
      "hit": false,
      "t": 18520.833333333332,
      "d": 479.1666666666679,
      "v": 86
    },
    {
      "midi": 64,
      "hit": false,
      "t": 18520.833333333332,
      "d": 479.1666666666679,
      "v": 86
    },
    {
      "midi": 52,
      "hit": false,
      "t": 18770.833333333332,
      "d": 479.1666666666679,
      "v": 86
    },
    {
      "midi": 56,
      "hit": false,
      "t": 19270.833333333332,
      "d": 437.5,
      "v": 86
    },
    {
      "midi": 59,
      "hit": false,
      "t": 19270.833333333332,
      "d": 437.5,
      "v": 86
    },
    {
      "midi": 64,
      "hit": false,
      "t": 19270.833333333332,
      "d": 437.5,
      "v": 86
    },
    {
      "midi": 52,
      "hit": false,
      "t": 19520.833333333332,
      "d": 479.1666666666679,
      "v": 86
    },
    {
      "midi": 47,
      "hit": false,
      "t": 19770.833333333332,
      "d": 479.1666666666679,
      "v": 86
    },
    {
      "midi": 52,
      "hit": false,
      "t": 20020.833333333332,
      "d": 437.5,
      "v": 86
    },
    {
      "midi": 40,
      "hit": false,
      "t": 20020.833333333332,
      "d": 479.1666666666679,
      "v": 86
    },
    {
      "midi": 57,
      "hit": false,
      "t": 20020.833333333332,
      "d": 479.1666666666679,
      "v": 86
    },
    {
      "midi": 61,
      "hit": false,
      "t": 20020.833333333332,
      "d": 479.1666666666679,
      "v": 86
    },
    {
      "midi": 57,
      "hit": false,
      "t": 20520.833333333332,
      "d": 479.1666666666679,
      "v": 86
    },
    {
      "midi": 61,
      "hit": false,
      "t": 20520.833333333332,
      "d": 479.1666666666679,
      "v": 86
    },
    {
      "midi": 40,
      "hit": false,
      "t": 20770.833333333332,
      "d": 479.1666666666679,
      "v": 86
    },
    {
      "midi": 54,
      "hit": false,
      "t": 20770.833333333332,
      "d": 479.1666666666679,
      "v": 86
    },
    {
      "midi": 59,
      "hit": false,
      "t": 20770.833333333332,
      "d": 479.1666666666679,
      "v": 86
    },
    {
      "midi": 63,
      "hit": false,
      "t": 20770.833333333332,
      "d": 479.1666666666679,
      "v": 86
    },
    {
      "midi": 54,
      "hit": false,
      "t": 21270.833333333332,
      "d": 250,
      "v": 86
    },
    {
      "midi": 54,
      "hit": false,
      "t": 21520.833333333332,
      "d": 250,
      "v": 86
    },
    {
      "midi": 40,
      "hit": false,
      "t": 21520.833333333332,
      "d": 479.1666666666679,
      "v": 86
    },
    {
      "midi": 59,
      "hit": false,
      "t": 21520.833333333332,
      "d": 479.1666666666679,
      "v": 86
    },
    {
      "midi": 47,
      "hit": false,
      "t": 21770.833333333332,
      "d": 479.1666666666679,
      "v": 86
    },
    {
      "midi": 40,
      "hit": false,
      "t": 22020.833333333332,
      "d": 437.5,
      "v": 86
    },
    {
      "midi": 56,
      "hit": false,
      "t": 22520.833333333332,
      "d": 479.1666666666679,
      "v": 86
    },
    {
      "midi": 59,
      "hit": false,
      "t": 22520.833333333332,
      "d": 479.1666666666679,
      "v": 86
    },
    {
      "midi": 64,
      "hit": false,
      "t": 22520.833333333332,
      "d": 479.1666666666679,
      "v": 86
    },
    {
      "midi": 52,
      "hit": false,
      "t": 22770.833333333332,
      "d": 479.1666666666679,
      "v": 86
    },
    {
      "midi": 56,
      "hit": false,
      "t": 23270.833333333332,
      "d": 437.5,
      "v": 86
    },
    {
      "midi": 59,
      "hit": false,
      "t": 23270.833333333332,
      "d": 437.5,
      "v": 86
    },
    {
      "midi": 64,
      "hit": false,
      "t": 23270.833333333332,
      "d": 437.5,
      "v": 86
    },
    {
      "midi": 52,
      "hit": false,
      "t": 23520.833333333332,
      "d": 479.1666666666679,
      "v": 86
    },
    {
      "midi": 47,
      "hit": false,
      "t": 23770.833333333332,
      "d": 479.1666666666679,
      "v": 86
    },
    {
      "midi": 52,
      "hit": false,
      "t": 24020.833333333332,
      "d": 437.5,
      "v": 86
    },
    {
      "midi": 40,
      "hit": false,
      "t": 24020.833333333332,
      "d": 479.1666666666679,
      "v": 86
    },
    {
      "midi": 57,
      "hit": false,
      "t": 24020.833333333332,
      "d": 479.1666666666679,
      "v": 86
    },
    {
      "midi": 61,
      "hit": false,
      "t": 24020.833333333332,
      "d": 479.1666666666679,
      "v": 86
    },
    {
      "midi": 57,
      "hit": false,
      "t": 24520.833333333332,
      "d": 479.1666666666679,
      "v": 86
    },
    {
      "midi": 61,
      "hit": false,
      "t": 24520.833333333332,
      "d": 479.1666666666679,
      "v": 86
    },
    {
      "midi": 52,
      "hit": false,
      "t": 24770.833333333332,
      "d": 479.1666666666679,
      "v": 86
    },
    {
      "midi": 47,
      "hit": false,
      "t": 25020.833333333332,
      "d": 479.1666666666679,
      "v": 86
    },
    {
      "midi": 54,
      "hit": false,
      "t": 25020.833333333332,
      "d": 479.1666666666679,
      "v": 86
    },
    {
      "midi": 59,
      "hit": false,
      "t": 25020.833333333332,
      "d": 479.1666666666679,
      "v": 86
    },
    {
      "midi": 63,
      "hit": false,
      "t": 25020.833333333332,
      "d": 479.1666666666679,
      "v": 86
    },
    {
      "midi": 47,
      "hit": false,
      "t": 25520.833333333332,
      "d": 250,
      "v": 86
    },
    {
      "midi": 54,
      "hit": false,
      "t": 25520.833333333332,
      "d": 479.1666666666679,
      "v": 86
    },
    {
      "midi": 59,
      "hit": false,
      "t": 25520.833333333332,
      "d": 479.1666666666679,
      "v": 86
    },
    {
      "midi": 63,
      "hit": false,
      "t": 25520.833333333332,
      "d": 479.1666666666679,
      "v": 86
    },
    {
      "midi": 47,
      "hit": false,
      "t": 25770.833333333332,
      "d": 229.16666666666788,
      "v": 86
    },
    {
      "midi": 40,
      "hit": false,
      "t": 26020.833333333332,
      "d": 437.5,
      "v": 86
    },
    {
      "midi": 80,
      "hit": false,
      "t": 26020.833333333332,
      "d": 479.1666666666679,
      "v": 86
    },
    {
      "midi": 83,
      "hit": false,
      "t": 26020.833333333332,
      "d": 479.1666666666679,
      "v": 86
    },
    {
      "midi": 59,
      "hit": false,
      "t": 26520.833333333332,
      "d": 250,
      "v": 86
    },
    {
      "midi": 64,
      "hit": false,
      "t": 26520.833333333332,
      "d": 250,
      "v": 86
    },
    {
      "midi": 68,
      "hit": false,
      "t": 26520.833333333332,
      "d": 250,
      "v": 86
    },
    {
      "midi": 59,
      "hit": false,
      "t": 26770.833333333332,
      "d": 250,
      "v": 86
    },
    {
      "midi": 64,
      "hit": false,
      "t": 26770.833333333332,
      "d": 250,
      "v": 86
    },
    {
      "midi": 68,
      "hit": false,
      "t": 26770.833333333332,
      "d": 250,
      "v": 86
    },
    {
      "midi": 80,
      "hit": false,
      "t": 27520.833333333332,
      "d": 250,
      "v": 86
    },
    {
      "midi": 83,
      "hit": false,
      "t": 27520.833333333332,
      "d": 250,
      "v": 86
    },
    {
      "midi": 59,
      "hit": false,
      "t": 27520.833333333332,
      "d": 479.1666666666679,
      "v": 86
    },
    {
      "midi": 64,
      "hit": false,
      "t": 27520.833333333332,
      "d": 479.1666666666679,
      "v": 86
    },
    {
      "midi": 68,
      "hit": false,
      "t": 27520.833333333332,
      "d": 479.1666666666679,
      "v": 86
    },
    {
      "midi": 80,
      "hit": false,
      "t": 27770.833333333332,
      "d": 229.16666666666788,
      "v": 86
    },
    {
      "midi": 83,
      "hit": false,
      "t": 27770.833333333332,
      "d": 229.16666666666788,
      "v": 86
    },
    {
      "midi": 80,
      "hit": false,
      "t": 28020.833333333332,
      "d": 229.16666666666788,
      "v": 86
    },
    {
      "midi": 49,
      "hit": false,
      "t": 28020.833333333332,
      "d": 479.1666666666679,
      "v": 86
    },
    {
      "midi": 85,
      "hit": false,
      "t": 28020.833333333332,
      "d": 479.1666666666679,
      "v": 86
    },
    {
      "midi": 61,
      "hit": false,
      "t": 28520.833333333332,
      "d": 250,
      "v": 86
    },
    {
      "midi": 64,
      "hit": false,
      "t": 28520.833333333332,
      "d": 250,
      "v": 86
    },
    {
      "midi": 68,
      "hit": false,
      "t": 28520.833333333332,
      "d": 250,
      "v": 86
    },
    {
      "midi": 61,
      "hit": false,
      "t": 28770.833333333332,
      "d": 250,
      "v": 86
    },
    {
      "midi": 64,
      "hit": false,
      "t": 28770.833333333332,
      "d": 250,
      "v": 86
    },
    {
      "midi": 68,
      "hit": false,
      "t": 28770.833333333332,
      "d": 250,
      "v": 86
    },
    {
      "midi": 80,
      "hit": false,
      "t": 29520.833333333332,
      "d": 250,
      "v": 86
    },
    {
      "midi": 85,
      "hit": false,
      "t": 29520.833333333332,
      "d": 250,
      "v": 86
    },
    {
      "midi": 61,
      "hit": false,
      "t": 29520.833333333332,
      "d": 479.1666666666679,
      "v": 86
    },
    {
      "midi": 64,
      "hit": false,
      "t": 29520.833333333332,
      "d": 479.1666666666679,
      "v": 86
    },
    {
      "midi": 68,
      "hit": false,
      "t": 29520.833333333332,
      "d": 479.1666666666679,
      "v": 86
    },
    {
      "midi": 80,
      "hit": false,
      "t": 29770.833333333332,
      "d": 229.16666666666788,
      "v": 86
    },
    {
      "midi": 85,
      "hit": false,
      "t": 29770.833333333332,
      "d": 229.16666666666788,
      "v": 86
    },
    {
      "midi": 80,
      "hit": false,
      "t": 30020.833333333332,
      "d": 229.16666666666788,
      "v": 86
    },
    {
      "midi": 40,
      "hit": false,
      "t": 30020.833333333332,
      "d": 437.5,
      "v": 86
    },
    {
      "midi": 83,
      "hit": false,
      "t": 30020.833333333332,
      "d": 479.1666666666679,
      "v": 86
    },
    {
      "midi": 59,
      "hit": false,
      "t": 30520.833333333332,
      "d": 250,
      "v": 86
    },
    {
      "midi": 64,
      "hit": false,
      "t": 30520.833333333332,
      "d": 250,
      "v": 86
    },
    {
      "midi": 68,
      "hit": false,
      "t": 30520.833333333332,
      "d": 250,
      "v": 86
    },
    {
      "midi": 59,
      "hit": false,
      "t": 30770.833333333332,
      "d": 250,
      "v": 86
    },
    {
      "midi": 64,
      "hit": false,
      "t": 30770.833333333332,
      "d": 250,
      "v": 86
    },
    {
      "midi": 68,
      "hit": false,
      "t": 30770.833333333332,
      "d": 250,
      "v": 86
    },
    {
      "midi": 80,
      "hit": false,
      "t": 31520.833333333332,
      "d": 250,
      "v": 86
    },
    {
      "midi": 83,
      "hit": false,
      "t": 31520.833333333332,
      "d": 250,
      "v": 86
    },
    {
      "midi": 59,
      "hit": false,
      "t": 31520.833333333332,
      "d": 479.1666666666679,
      "v": 86
    },
    {
      "midi": 64,
      "hit": false,
      "t": 31520.833333333332,
      "d": 479.1666666666679,
      "v": 86
    },
    {
      "midi": 80,
      "hit": false,
      "t": 31770.833333333332,
      "d": 229.16666666666788,
      "v": 86
    },
    {
      "midi": 83,
      "hit": false,
      "t": 31770.833333333332,
      "d": 229.16666666666788,
      "v": 86
    },
    {
      "midi": 80,
      "hit": false,
      "t": 32020.833333333332,
      "d": 229.16666666666788,
      "v": 86
    },
    {
      "midi": 49,
      "hit": false,
      "t": 32020.833333333332,
      "d": 479.1666666666679,
      "v": 86
    },
    {
      "midi": 85,
      "hit": false,
      "t": 32020.833333333332,
      "d": 479.1666666666679,
      "v": 86
    },
    {
      "midi": 61,
      "hit": false,
      "t": 32520.833333333332,
      "d": 229.16666666666788,
      "v": 86
    },
    {
      "midi": 64,
      "hit": false,
      "t": 32520.833333333332,
      "d": 229.16666666666788,
      "v": 86
    },
    {
      "midi": 68,
      "hit": false,
      "t": 32520.833333333332,
      "d": 229.16666666666788,
      "v": 86
    },
    {
      "midi": 49,
      "hit": false,
      "t": 32770.833333333336,
      "d": 1104.1666666666642,
      "v": 86
    },
    {
      "midi": 61,
      "hit": false,
      "t": 32770.833333333336,
      "d": 1104.1666666666642,
      "v": 86
    },
    {
      "midi": 64,
      "hit": false,
      "t": 32770.833333333336,
      "d": 1104.1666666666642,
      "v": 86
    },
    {
      "midi": 68,
      "hit": false,
      "t": 32770.833333333336,
      "d": 1104.1666666666642,
      "v": 86
    },
    {
      "midi": 44,
      "hit": false,
      "t": 34020.833333333336,
      "d": 479.16666666666424,
      "v": 86
    },
    {
      "midi": 59,
      "hit": false,
      "t": 34020.833333333336,
      "d": 479.16666666666424,
      "v": 86
    },
    {
      "midi": 63,
      "hit": false,
      "t": 34020.833333333336,
      "d": 479.16666666666424,
      "v": 86
    },
    {
      "midi": 66,
      "hit": false,
      "t": 34020.833333333336,
      "d": 479.16666666666424,
      "v": 86
    },
    {
      "midi": 44,
      "hit": false,
      "t": 35020.833333333336,
      "d": 479.16666666666424,
      "v": 86
    },
    {
      "midi": 45,
      "hit": false,
      "t": 36020.833333333336,
      "d": 479.16666666666424,
      "v": 86
    },
    {
      "midi": 52,
      "hit": false,
      "t": 36520.833333333336,
      "d": 479.16666666666424,
      "v": 86
    },
    {
      "midi": 57,
      "hit": false,
      "t": 36520.833333333336,
      "d": 479.16666666666424,
      "v": 86
    },
    {
      "midi": 61,
      "hit": false,
      "t": 36520.833333333336,
      "d": 479.16666666666424,
      "v": 86
    },
    {
      "midi": 54,
      "hit": false,
      "t": 36770.833333333336,
      "d": 479.16666666666424,
      "v": 86
    },
    {
      "midi": 59,
      "hit": false,
      "t": 36770.833333333336,
      "d": 479.16666666666424,
      "v": 86
    },
    {
      "midi": 63,
      "hit": false,
      "t": 36770.833333333336,
      "d": 479.16666666666424,
      "v": 86
    },
    {
      "midi": 52,
      "hit": false,
      "t": 37270.833333333336,
      "d": 479.16666666666424,
      "v": 86
    },
    {
      "midi": 57,
      "hit": false,
      "t": 37270.833333333336,
      "d": 479.16666666666424,
      "v": 86
    },
    {
      "midi": 61,
      "hit": false,
      "t": 37270.833333333336,
      "d": 479.16666666666424,
      "v": 86
    },
    {
      "midi": 54,
      "hit": false,
      "t": 37520.833333333336,
      "d": 479.16666666666424,
      "v": 86
    },
    {
      "midi": 59,
      "hit": false,
      "t": 37520.833333333336,
      "d": 479.16666666666424,
      "v": 86
    },
    {
      "midi": 63,
      "hit": false,
      "t": 37520.833333333336,
      "d": 479.16666666666424,
      "v": 86
    },
    {
      "midi": 45,
      "hit": false,
      "t": 38020.833333333336,
      "d": 479.16666666666424,
      "v": 86
    },
    {
      "midi": 52,
      "hit": false,
      "t": 38020.833333333336,
      "d": 479.16666666666424,
      "v": 86
    },
    {
      "midi": 57,
      "hit": false,
      "t": 38020.833333333336,
      "d": 479.16666666666424,
      "v": 86
    },
    {
      "midi": 61,
      "hit": false,
      "t": 38020.833333333336,
      "d": 479.16666666666424,
      "v": 86
    },
    {
      "midi": 47,
      "hit": false,
      "t": 38270.833333333336,
      "d": 479.16666666666424,
      "v": 86
    },
    {
      "midi": 54,
      "hit": false,
      "t": 38270.833333333336,
      "d": 479.16666666666424,
      "v": 86
    },
    {
      "midi": 59,
      "hit": false,
      "t": 38270.833333333336,
      "d": 479.16666666666424,
      "v": 86
    },
    {
      "midi": 63,
      "hit": false,
      "t": 38270.833333333336,
      "d": 479.16666666666424,
      "v": 86
    },
    {
      "midi": 45,
      "hit": false,
      "t": 38770.833333333336,
      "d": 479.16666666666424,
      "v": 86
    },
    {
      "midi": 52,
      "hit": false,
      "t": 38770.833333333336,
      "d": 479.16666666666424,
      "v": 86
    },
    {
      "midi": 57,
      "hit": false,
      "t": 38770.833333333336,
      "d": 479.16666666666424,
      "v": 86
    },
    {
      "midi": 61,
      "hit": false,
      "t": 38770.833333333336,
      "d": 479.16666666666424,
      "v": 86
    },
    {
      "midi": 54,
      "hit": false,
      "t": 39270.833333333336,
      "d": 437.5,
      "v": 86
    },
    {
      "midi": 59,
      "hit": false,
      "t": 39270.833333333336,
      "d": 437.5,
      "v": 86
    },
    {
      "midi": 63,
      "hit": false,
      "t": 39270.833333333336,
      "d": 437.5,
      "v": 86
    },
    {
      "midi": 47,
      "hit": false,
      "t": 39270.833333333336,
      "d": 479.16666666666424,
      "v": 86
    },
    {
      "midi": 52,
      "hit": false,
      "t": 39520.833333333336,
      "d": 437.5,
      "v": 86
    },
    {
      "midi": 57,
      "hit": false,
      "t": 39520.833333333336,
      "d": 437.5,
      "v": 86
    },
    {
      "midi": 61,
      "hit": false,
      "t": 39520.833333333336,
      "d": 437.5,
      "v": 86
    },
    {
      "midi": 45,
      "hit": false,
      "t": 39520.833333333336,
      "d": 479.16666666666424,
      "v": 86
    },
    {
      "midi": 47,
      "hit": false,
      "t": 39770.833333333336,
      "d": 229.16666666666424,
      "v": 86
    },
    {
      "midi": 54,
      "hit": false,
      "t": 39770.833333333336,
      "d": 437.5,
      "v": 86
    },
    {
      "midi": 59,
      "hit": false,
      "t": 39770.833333333336,
      "d": 437.5,
      "v": 86
    },
    {
      "midi": 63,
      "hit": false,
      "t": 39770.833333333336,
      "d": 437.5,
      "v": 86
    },
    {
      "midi": 47,
      "hit": false,
      "t": 40020.833333333336,
      "d": 250,
      "v": 86
    },
    {
      "midi": 52,
      "hit": false,
      "t": 40020.833333333336,
      "d": 479.16666666666424,
      "v": 86
    },
    {
      "midi": 56,
      "hit": false,
      "t": 40020.833333333336,
      "d": 479.16666666666424,
      "v": 86
    },
    {
      "midi": 42,
      "hit": false,
      "t": 40020.833333333336,
      "d": 1750,
      "v": 86
    },
    {
      "midi": 58,
      "hit": false,
      "t": 40270.833333333336,
      "d": 437.5,
      "v": 86
    },
    {
      "midi": 49,
      "hit": false,
      "t": 40270.833333333336,
      "d": 479.16666666666424,
      "v": 86
    },
    {
      "midi": 54,
      "hit": false,
      "t": 40270.833333333336,
      "d": 479.16666666666424,
      "v": 86
    },
    {
      "midi": 47,
      "hit": false,
      "t": 40520.833333333336,
      "d": 479.16666666666424,
      "v": 86
    },
    {
      "midi": 52,
      "hit": false,
      "t": 40520.833333333336,
      "d": 479.16666666666424,
      "v": 86
    },
    {
      "midi": 56,
      "hit": false,
      "t": 40520.833333333336,
      "d": 479.16666666666424,
      "v": 86
    },
    {
      "midi": 49,
      "hit": false,
      "t": 40770.833333333336,
      "d": 479.16666666666424,
      "v": 86
    },
    {
      "midi": 54,
      "hit": false,
      "t": 40770.833333333336,
      "d": 479.16666666666424,
      "v": 86
    },
    {
      "midi": 58,
      "hit": false,
      "t": 40770.833333333336,
      "d": 479.16666666666424,
      "v": 86
    },
    {
      "midi": 54,
      "hit": false,
      "t": 41270.833333333336,
      "d": 437.5,
      "v": 86
    },
    {
      "midi": 58,
      "hit": false,
      "t": 41270.833333333336,
      "d": 437.5,
      "v": 86
    },
    {
      "midi": 49,
      "hit": false,
      "t": 41270.833333333336,
      "d": 479.16666666666424,
      "v": 86
    },
    {
      "midi": 42,
      "hit": false,
      "t": 41770.833333333336,
      "d": 229.16666666666424,
      "v": 86
    },
    {
      "midi": 49,
      "hit": false,
      "t": 41770.833333333336,
      "d": 229.16666666666424,
      "v": 86
    },
    {
      "midi": 54,
      "hit": false,
      "t": 41770.833333333336,
      "d": 479.16666666666424,
      "v": 86
    },
    {
      "midi": 58,
      "hit": false,
      "t": 41770.833333333336,
      "d": 479.16666666666424,
      "v": 86
    },
    {
      "midi": 49,
      "hit": false,
      "t": 42020.833333333336,
      "d": 250,
      "v": 86
    },
    {
      "midi": 59,
      "hit": false,
      "t": 42020.833333333336,
      "d": 250,
      "v": 86
    },
    {
      "midi": 52,
      "hit": false,
      "t": 42020.833333333336,
      "d": 479.16666666666424,
      "v": 86
    },
    {
      "midi": 42,
      "hit": false,
      "t": 42020.833333333336,
      "d": 1500,
      "v": 86
    },
    {
      "midi": 49,
      "hit": false,
      "t": 42270.833333333336,
      "d": 229.16666666666424,
      "v": 86
    },
    {
      "midi": 59,
      "hit": false,
      "t": 42270.833333333336,
      "d": 250,
      "v": 86
    },
    {
      "midi": 54,
      "hit": false,
      "t": 42270.833333333336,
      "d": 479.16666666666424,
      "v": 86
    },
    {
      "midi": 49,
      "hit": false,
      "t": 42520.833333333336,
      "d": 229.16666666666424,
      "v": 86
    },
    {
      "midi": 59,
      "hit": false,
      "t": 42520.833333333336,
      "d": 229.16666666666424,
      "v": 86
    },
    {
      "midi": 52,
      "hit": false,
      "t": 42520.833333333336,
      "d": 479.16666666666424,
      "v": 86
    },
    {
      "midi": 49,
      "hit": false,
      "t": 42770.833333333336,
      "d": 229.16666666666424,
      "v": 86
    },
    {
      "midi": 54,
      "hit": false,
      "t": 42770.833333333336,
      "d": 479.16666666666424,
      "v": 86
    },
    {
      "midi": 58,
      "hit": false,
      "t": 42770.833333333336,
      "d": 479.16666666666424,
      "v": 86
    },
    {
      "midi": 40,
      "hit": false,
      "t": 43270.833333333336,
      "d": 479.16666666666424,
      "v": 86
    },
    {
      "midi": 47,
      "hit": false,
      "t": 43270.833333333336,
      "d": 479.16666666666424,
      "v": 86
    },
    {
      "midi": 52,
      "hit": false,
      "t": 43270.833333333336,
      "d": 479.16666666666424,
      "v": 86
    },
    {
      "midi": 56,
      "hit": false,
      "t": 43270.833333333336,
      "d": 479.16666666666424,
      "v": 86
    },
    {
      "midi": 42,
      "hit": false,
      "t": 43520.833333333336,
      "d": 479.16666666666424,
      "v": 86
    },
    {
      "midi": 49,
      "hit": false,
      "t": 43520.833333333336,
      "d": 479.16666666666424,
      "v": 86
    },
    {
      "midi": 54,
      "hit": false,
      "t": 43520.833333333336,
      "d": 479.16666666666424,
      "v": 86
    },
    {
      "midi": 58,
      "hit": false,
      "t": 43520.833333333336,
      "d": 479.16666666666424,
      "v": 86
    },
    {
      "midi": 47,
      "hit": false,
      "t": 44020.833333333336,
      "d": 437.5,
      "v": 86
    },
    {
      "midi": 56,
      "hit": false,
      "t": 44020.833333333336,
      "d": 479.16666666666424,
      "v": 86
    },
    {
      "midi": 59,
      "hit": false,
      "t": 44020.833333333336,
      "d": 479.16666666666424,
      "v": 86
    },
    {
      "midi": 64,
      "hit": false,
      "t": 44020.833333333336,
      "d": 479.16666666666424,
      "v": 86
    },
    {
      "midi": 56,
      "hit": false,
      "t": 44520.833333333336,
      "d": 250,
      "v": 86
    },
    {
      "midi": 59,
      "hit": false,
      "t": 44520.833333333336,
      "d": 250,
      "v": 86
    },
    {
      "midi": 64,
      "hit": false,
      "t": 44520.833333333336,
      "d": 437.5,
      "v": 86
    },
    {
      "midi": 56,
      "hit": false,
      "t": 44770.833333333336,
      "d": 250,
      "v": 86
    },
    {
      "midi": 59,
      "hit": false,
      "t": 44770.833333333336,
      "d": 250,
      "v": 86
    },
    {
      "midi": 47,
      "hit": false,
      "t": 44770.833333333336,
      "d": 479.16666666666424,
      "v": 86
    },
    {
      "midi": 63,
      "hit": false,
      "t": 44770.833333333336,
      "d": 479.16666666666424,
      "v": 86
    },
    {
      "midi": 47,
      "hit": false,
      "t": 45270.833333333336,
      "d": 479.16666666666424,
      "v": 86
    },
    {
      "midi": 56,
      "hit": false,
      "t": 45520.833333333336,
      "d": 250,
      "v": 86
    },
    {
      "midi": 59,
      "hit": false,
      "t": 45520.833333333336,
      "d": 250,
      "v": 86
    },
    {
      "midi": 63,
      "hit": false,
      "t": 45520.833333333336,
      "d": 250,
      "v": 86
    },
    {
      "midi": 56,
      "hit": false,
      "t": 45770.833333333336,
      "d": 229.16666666666424,
      "v": 86
    },
    {
      "midi": 59,
      "hit": false,
      "t": 45770.833333333336,
      "d": 229.16666666666424,
      "v": 86
    },
    {
      "midi": 63,
      "hit": false,
      "t": 45770.833333333336,
      "d": 229.16666666666424,
      "v": 86
    },
    {
      "midi": 47,
      "hit": false,
      "t": 46020.833333333336,
      "d": 479.16666666666424,
      "v": 86
    },
    {
      "midi": 54,
      "hit": false,
      "t": 46020.833333333336,
      "d": 479.16666666666424,
      "v": 86
    },
    {
      "midi": 57,
      "hit": false,
      "t": 46020.833333333336,
      "d": 479.16666666666424,
      "v": 86
    },
    {
      "midi": 61,
      "hit": false,
      "t": 46020.833333333336,
      "d": 479.16666666666424,
      "v": 86
    },
    {
      "midi": 57,
      "hit": false,
      "t": 46520.833333333336,
      "d": 250,
      "v": 86
    },
    {
      "midi": 61,
      "hit": false,
      "t": 46520.833333333336,
      "d": 250,
      "v": 86
    },
    {
      "midi": 54,
      "hit": false,
      "t": 46520.833333333336,
      "d": 437.5,
      "v": 86
    },
    {
      "midi": 57,
      "hit": false,
      "t": 46770.833333333336,
      "d": 250,
      "v": 86
    },
    {
      "midi": 61,
      "hit": false,
      "t": 46770.833333333336,
      "d": 250,
      "v": 86
    },
    {
      "midi": 47,
      "hit": false,
      "t": 46770.833333333336,
      "d": 437.5,
      "v": 86
    },
    {
      "midi": 52,
      "hit": false,
      "t": 46770.833333333336,
      "d": 437.5,
      "v": 86
    },
    {
      "midi": 52,
      "hit": false,
      "t": 47270.833333333336,
      "d": 250,
      "v": 86
    },
    {
      "midi": 47,
      "hit": false,
      "t": 47270.833333333336,
      "d": 437.5,
      "v": 86
    },
    {
      "midi": 56,
      "hit": false,
      "t": 47270.833333333336,
      "d": 437.5,
      "v": 86
    },
    {
      "midi": 59,
      "hit": false,
      "t": 47270.833333333336,
      "d": 437.5,
      "v": 86
    },
    {
      "midi": 52,
      "hit": false,
      "t": 47520.833333333336,
      "d": 250,
      "v": 86
    },
    {
      "midi": 57,
      "hit": false,
      "t": 47520.833333333336,
      "d": 479.16666666666424,
      "v": 86
    },
    {
      "midi": 61,
      "hit": false,
      "t": 47520.833333333336,
      "d": 479.16666666666424,
      "v": 86
    },
    {
      "midi": 47,
      "hit": false,
      "t": 48020.833333333336,
      "d": 437.5,
      "v": 86
    },
    {
      "midi": 56,
      "hit": false,
      "t": 48020.833333333336,
      "d": 479.16666666666424,
      "v": 86
    },
    {
      "midi": 59,
      "hit": false,
      "t": 48020.833333333336,
      "d": 479.16666666666424,
      "v": 86
    },
    {
      "midi": 64,
      "hit": false,
      "t": 48020.833333333336,
      "d": 479.16666666666424,
      "v": 86
    },
    {
      "midi": 56,
      "hit": false,
      "t": 48520.833333333336,
      "d": 250,
      "v": 86
    },
    {
      "midi": 59,
      "hit": false,
      "t": 48520.833333333336,
      "d": 250,
      "v": 86
    },
    {
      "midi": 64,
      "hit": false,
      "t": 48520.833333333336,
      "d": 437.5,
      "v": 86
    },
    {
      "midi": 56,
      "hit": false,
      "t": 48770.833333333336,
      "d": 250,
      "v": 86
    },
    {
      "midi": 59,
      "hit": false,
      "t": 48770.833333333336,
      "d": 250,
      "v": 86
    },
    {
      "midi": 47,
      "hit": false,
      "t": 48770.833333333336,
      "d": 479.16666666666424,
      "v": 86
    },
    {
      "midi": 63,
      "hit": false,
      "t": 48770.833333333336,
      "d": 479.16666666666424,
      "v": 86
    },
    {
      "midi": 47,
      "hit": false,
      "t": 49270.833333333336,
      "d": 479.16666666666424,
      "v": 86
    },
    {
      "midi": 56,
      "hit": false,
      "t": 49520.833333333336,
      "d": 250,
      "v": 86
    },
    {
      "midi": 59,
      "hit": false,
      "t": 49520.833333333336,
      "d": 250,
      "v": 86
    },
    {
      "midi": 63,
      "hit": false,
      "t": 49520.833333333336,
      "d": 250,
      "v": 86
    },
    {
      "midi": 56,
      "hit": false,
      "t": 49770.833333333336,
      "d": 229.16666666666424,
      "v": 86
    },
    {
      "midi": 59,
      "hit": false,
      "t": 49770.833333333336,
      "d": 229.16666666666424,
      "v": 86
    },
    {
      "midi": 63,
      "hit": false,
      "t": 49770.833333333336,
      "d": 229.16666666666424,
      "v": 86
    },
    {
      "midi": 47,
      "hit": false,
      "t": 50020.833333333336,
      "d": 479.16666666666424,
      "v": 86
    },
    {
      "midi": 54,
      "hit": false,
      "t": 50020.833333333336,
      "d": 479.16666666666424,
      "v": 86
    },
    {
      "midi": 57,
      "hit": false,
      "t": 50020.833333333336,
      "d": 479.16666666666424,
      "v": 86
    },
    {
      "midi": 61,
      "hit": false,
      "t": 50020.833333333336,
      "d": 479.16666666666424,
      "v": 86
    },
    {
      "midi": 57,
      "hit": false,
      "t": 50520.833333333336,
      "d": 250,
      "v": 86
    },
    {
      "midi": 61,
      "hit": false,
      "t": 50520.833333333336,
      "d": 250,
      "v": 86
    },
    {
      "midi": 54,
      "hit": false,
      "t": 50520.833333333336,
      "d": 437.5,
      "v": 86
    },
    {
      "midi": 57,
      "hit": false,
      "t": 50770.833333333336,
      "d": 250,
      "v": 86
    },
    {
      "midi": 61,
      "hit": false,
      "t": 50770.833333333336,
      "d": 250,
      "v": 86
    },
    {
      "midi": 47,
      "hit": false,
      "t": 50770.833333333336,
      "d": 437.5,
      "v": 86
    },
    {
      "midi": 52,
      "hit": false,
      "t": 50770.833333333336,
      "d": 437.5,
      "v": 86
    },
    {
      "midi": 52,
      "hit": false,
      "t": 51270.833333333336,
      "d": 250,
      "v": 86
    },
    {
      "midi": 47,
      "hit": false,
      "t": 51270.833333333336,
      "d": 437.5,
      "v": 86
    },
    {
      "midi": 56,
      "hit": false,
      "t": 51270.833333333336,
      "d": 437.5,
      "v": 86
    },
    {
      "midi": 59,
      "hit": false,
      "t": 51270.833333333336,
      "d": 437.5,
      "v": 86
    },
    {
      "midi": 52,
      "hit": false,
      "t": 51520.833333333336,
      "d": 250,
      "v": 86
    },
    {
      "midi": 57,
      "hit": false,
      "t": 51520.833333333336,
      "d": 479.16666666666424,
      "v": 86
    },
    {
      "midi": 61,
      "hit": false,
      "t": 51520.833333333336,
      "d": 479.16666666666424,
      "v": 86
    },
    {
      "midi": 47,
      "hit": false,
      "t": 52020.833333333336,
      "d": 437.5,
      "v": 86
    },
    {
      "midi": 56,
      "hit": false,
      "t": 52020.833333333336,
      "d": 479.16666666666424,
      "v": 86
    },
    {
      "midi": 59,
      "hit": false,
      "t": 52020.833333333336,
      "d": 479.16666666666424,
      "v": 86
    },
    {
      "midi": 64,
      "hit": false,
      "t": 52020.833333333336,
      "d": 479.16666666666424,
      "v": 86
    },
    {
      "midi": 56,
      "hit": false,
      "t": 52520.833333333336,
      "d": 250,
      "v": 86
    },
    {
      "midi": 59,
      "hit": false,
      "t": 52520.833333333336,
      "d": 250,
      "v": 86
    },
    {
      "midi": 64,
      "hit": false,
      "t": 52520.833333333336,
      "d": 437.5,
      "v": 86
    },
    {
      "midi": 56,
      "hit": false,
      "t": 52770.833333333336,
      "d": 250,
      "v": 86
    },
    {
      "midi": 59,
      "hit": false,
      "t": 52770.833333333336,
      "d": 250,
      "v": 86
    },
    {
      "midi": 47,
      "hit": false,
      "t": 52770.833333333336,
      "d": 479.16666666666424,
      "v": 86
    },
    {
      "midi": 63,
      "hit": false,
      "t": 52770.833333333336,
      "d": 479.16666666666424,
      "v": 86
    },
    {
      "midi": 47,
      "hit": false,
      "t": 53270.833333333336,
      "d": 479.16666666666424,
      "v": 86
    },
    {
      "midi": 56,
      "hit": false,
      "t": 53520.833333333336,
      "d": 250,
      "v": 86
    },
    {
      "midi": 59,
      "hit": false,
      "t": 53520.833333333336,
      "d": 250,
      "v": 86
    },
    {
      "midi": 63,
      "hit": false,
      "t": 53520.833333333336,
      "d": 250,
      "v": 86
    },
    {
      "midi": 56,
      "hit": false,
      "t": 53770.833333333336,
      "d": 229.16666666666424,
      "v": 86
    },
    {
      "midi": 59,
      "hit": false,
      "t": 53770.833333333336,
      "d": 229.16666666666424,
      "v": 86
    },
    {
      "midi": 63,
      "hit": false,
      "t": 53770.833333333336,
      "d": 229.16666666666424,
      "v": 86
    },
    {
      "midi": 47,
      "hit": false,
      "t": 54020.833333333336,
      "d": 479.16666666666424,
      "v": 86
    },
    {
      "midi": 54,
      "hit": false,
      "t": 54020.833333333336,
      "d": 479.16666666666424,
      "v": 86
    },
    {
      "midi": 57,
      "hit": false,
      "t": 54020.833333333336,
      "d": 479.16666666666424,
      "v": 86
    },
    {
      "midi": 61,
      "hit": false,
      "t": 54020.833333333336,
      "d": 479.16666666666424,
      "v": 86
    },
    {
      "midi": 57,
      "hit": false,
      "t": 54520.833333333336,
      "d": 250,
      "v": 86
    },
    {
      "midi": 61,
      "hit": false,
      "t": 54520.833333333336,
      "d": 250,
      "v": 86
    },
    {
      "midi": 54,
      "hit": false,
      "t": 54520.833333333336,
      "d": 437.5,
      "v": 86
    },
    {
      "midi": 57,
      "hit": false,
      "t": 54770.833333333336,
      "d": 250,
      "v": 86
    },
    {
      "midi": 61,
      "hit": false,
      "t": 54770.833333333336,
      "d": 250,
      "v": 86
    },
    {
      "midi": 47,
      "hit": false,
      "t": 54770.833333333336,
      "d": 437.5,
      "v": 86
    },
    {
      "midi": 52,
      "hit": false,
      "t": 54770.833333333336,
      "d": 437.5,
      "v": 86
    },
    {
      "midi": 52,
      "hit": false,
      "t": 55270.833333333336,
      "d": 250,
      "v": 86
    },
    {
      "midi": 47,
      "hit": false,
      "t": 55270.833333333336,
      "d": 437.5,
      "v": 86
    },
    {
      "midi": 56,
      "hit": false,
      "t": 55270.833333333336,
      "d": 437.5,
      "v": 86
    },
    {
      "midi": 59,
      "hit": false,
      "t": 55270.833333333336,
      "d": 437.5,
      "v": 86
    },
    {
      "midi": 52,
      "hit": false,
      "t": 55520.833333333336,
      "d": 250,
      "v": 86
    },
    {
      "midi": 57,
      "hit": false,
      "t": 55520.833333333336,
      "d": 479.16666666666424,
      "v": 86
    },
    {
      "midi": 61,
      "hit": false,
      "t": 55520.833333333336,
      "d": 479.16666666666424,
      "v": 86
    },
    {
      "midi": 40,
      "hit": false,
      "t": 56020.833333333336,
      "d": 479.16666666666424,
      "v": 86
    },
    {
      "midi": 59,
      "hit": false,
      "t": 56020.833333333336,
      "d": 479.16666666666424,
      "v": 86
    },
    {
      "midi": 64,
      "hit": false,
      "t": 56020.833333333336,
      "d": 479.16666666666424,
      "v": 86
    },
    {
      "midi": 68,
      "hit": false,
      "t": 56020.833333333336,
      "d": 479.16666666666424,
      "v": 86
    },
    {
      "midi": 40,
      "hit": false,
      "t": 56520.833333333336,
      "d": 479.16666666666424,
      "v": 86
    },
    {
      "midi": 59,
      "hit": false,
      "t": 56770.833333333336,
      "d": 479.16666666666424,
      "v": 86
    },
    {
      "midi": 64,
      "hit": false,
      "t": 56770.833333333336,
      "d": 479.16666666666424,
      "v": 86
    },
    {
      "midi": 69,
      "hit": false,
      "t": 56770.833333333336,
      "d": 479.16666666666424,
      "v": 86
    },
    {
      "midi": 40,
      "hit": false,
      "t": 57270.833333333336,
      "d": 479.16666666666424,
      "v": 86
    },
    {
      "midi": 59,
      "hit": false,
      "t": 57520.833333333336,
      "d": 479.16666666666424,
      "v": 86
    },
    {
      "midi": 64,
      "hit": false,
      "t": 57520.833333333336,
      "d": 479.16666666666424,
      "v": 86
    },
    {
      "midi": 69,
      "hit": false,
      "t": 57520.833333333336,
      "d": 479.16666666666424,
      "v": 86
    },
    {
      "midi": 40,
      "hit": false,
      "t": 58020.833333333336,
      "d": 479.16666666666424,
      "v": 86
    },
    {
      "midi": 59,
      "hit": false,
      "t": 58020.833333333336,
      "d": 479.16666666666424,
      "v": 86
    },
    {
      "midi": 64,
      "hit": false,
      "t": 58020.833333333336,
      "d": 479.16666666666424,
      "v": 86
    },
    {
      "midi": 68,
      "hit": false,
      "t": 58020.833333333336,
      "d": 479.16666666666424,
      "v": 86
    },
    {
      "midi": 40,
      "hit": false,
      "t": 58520.833333333336,
      "d": 479.16666666666424,
      "v": 86
    },
    {
      "midi": 59,
      "hit": false,
      "t": 58770.833333333336,
      "d": 479.16666666666424,
      "v": 86
    },
    {
      "midi": 64,
      "hit": false,
      "t": 58770.833333333336,
      "d": 479.16666666666424,
      "v": 86
    },
    {
      "midi": 69,
      "hit": false,
      "t": 58770.833333333336,
      "d": 479.16666666666424,
      "v": 86
    },
    {
      "midi": 40,
      "hit": false,
      "t": 59270.833333333336,
      "d": 479.16666666666424,
      "v": 86
    },
    {
      "midi": 59,
      "hit": false,
      "t": 59520.833333333336,
      "d": 479.16666666666424,
      "v": 86
    },
    {
      "midi": 64,
      "hit": false,
      "t": 59520.833333333336,
      "d": 479.16666666666424,
      "v": 86
    },
    {
      "midi": 69,
      "hit": false,
      "t": 59520.833333333336,
      "d": 479.16666666666424,
      "v": 86
    },
    {
      "midi": 40,
      "hit": false,
      "t": 60020.833333333336,
      "d": 479.16666666666424,
      "v": 86
    },
    {
      "midi": 59,
      "hit": false,
      "t": 60020.833333333336,
      "d": 479.16666666666424,
      "v": 86
    },
    {
      "midi": 64,
      "hit": false,
      "t": 60020.833333333336,
      "d": 479.16666666666424,
      "v": 86
    },
    {
      "midi": 68,
      "hit": false,
      "t": 60020.833333333336,
      "d": 479.16666666666424,
      "v": 86
    },
    {
      "midi": 40,
      "hit": false,
      "t": 60520.833333333336,
      "d": 479.16666666666424,
      "v": 86
    },
    {
      "midi": 59,
      "hit": false,
      "t": 60770.833333333336,
      "d": 479.16666666666424,
      "v": 86
    },
    {
      "midi": 64,
      "hit": false,
      "t": 60770.833333333336,
      "d": 479.16666666666424,
      "v": 86
    },
    {
      "midi": 69,
      "hit": false,
      "t": 60770.833333333336,
      "d": 479.16666666666424,
      "v": 86
    },
    {
      "midi": 40,
      "hit": false,
      "t": 61270.833333333336,
      "d": 479.16666666666424,
      "v": 86
    },
    {
      "midi": 59,
      "hit": false,
      "t": 61520.833333333336,
      "d": 479.16666666666424,
      "v": 86
    },
    {
      "midi": 64,
      "hit": false,
      "t": 61520.833333333336,
      "d": 479.16666666666424,
      "v": 86
    },
    {
      "midi": 69,
      "hit": false,
      "t": 61520.833333333336,
      "d": 479.16666666666424,
      "v": 86
    },
    {
      "midi": 40,
      "hit": false,
      "t": 62020.833333333336,
      "d": 479.16666666666424,
      "v": 86
    },
    {
      "midi": 59,
      "hit": false,
      "t": 62020.833333333336,
      "d": 479.16666666666424,
      "v": 86
    },
    {
      "midi": 64,
      "hit": false,
      "t": 62020.833333333336,
      "d": 479.16666666666424,
      "v": 86
    },
    {
      "midi": 68,
      "hit": false,
      "t": 62020.833333333336,
      "d": 479.16666666666424,
      "v": 86
    },
    {
      "midi": 40,
      "hit": false,
      "t": 62520.833333333336,
      "d": 479.16666666666424,
      "v": 86
    },
    {
      "midi": 59,
      "hit": false,
      "t": 62770.833333333336,
      "d": 479.16666666666424,
      "v": 86
    },
    {
      "midi": 64,
      "hit": false,
      "t": 62770.833333333336,
      "d": 479.16666666666424,
      "v": 86
    },
    {
      "midi": 69,
      "hit": false,
      "t": 62770.833333333336,
      "d": 479.16666666666424,
      "v": 86
    },
    {
      "midi": 40,
      "hit": false,
      "t": 63270.833333333336,
      "d": 479.16666666666424,
      "v": 86
    },
    {
      "midi": 59,
      "hit": false,
      "t": 63520.833333333336,
      "d": 479.16666666666424,
      "v": 86
    },
    {
      "midi": 64,
      "hit": false,
      "t": 63520.833333333336,
      "d": 479.16666666666424,
      "v": 86
    },
    {
      "midi": 69,
      "hit": false,
      "t": 63520.833333333336,
      "d": 479.16666666666424,
      "v": 86
    },
    {
      "midi": 40,
      "hit": false,
      "t": 64020.833333333336,
      "d": 437.5,
      "v": 86
    },
    {
      "midi": 56,
      "hit": false,
      "t": 64520.833333333336,
      "d": 479.16666666666424,
      "v": 86
    },
    {
      "midi": 59,
      "hit": false,
      "t": 64520.833333333336,
      "d": 479.16666666666424,
      "v": 86
    },
    {
      "midi": 64,
      "hit": false,
      "t": 64520.833333333336,
      "d": 479.16666666666424,
      "v": 86
    },
    {
      "midi": 52,
      "hit": false,
      "t": 64770.833333333336,
      "d": 479.16666666666424,
      "v": 86
    },
    {
      "midi": 56,
      "hit": false,
      "t": 65270.833333333336,
      "d": 437.5000000000073,
      "v": 86
    },
    {
      "midi": 59,
      "hit": false,
      "t": 65270.833333333336,
      "d": 437.5000000000073,
      "v": 86
    },
    {
      "midi": 64,
      "hit": false,
      "t": 65270.833333333336,
      "d": 437.5000000000073,
      "v": 86
    },
    {
      "midi": 52,
      "hit": false,
      "t": 65520.833333333336,
      "d": 479.1666666666788,
      "v": 86
    },
    {
      "midi": 47,
      "hit": false,
      "t": 65770.83333333334,
      "d": 479.1666666666715,
      "v": 86
    },
    {
      "midi": 52,
      "hit": false,
      "t": 66020.83333333334,
      "d": 437.5,
      "v": 86
    },
    {
      "midi": 40,
      "hit": false,
      "t": 66020.83333333334,
      "d": 479.1666666666715,
      "v": 86
    },
    {
      "midi": 57,
      "hit": false,
      "t": 66020.83333333334,
      "d": 479.1666666666715,
      "v": 86
    },
    {
      "midi": 61,
      "hit": false,
      "t": 66020.83333333334,
      "d": 479.1666666666715,
      "v": 86
    },
    {
      "midi": 57,
      "hit": false,
      "t": 66520.83333333334,
      "d": 479.1666666666715,
      "v": 86
    },
    {
      "midi": 61,
      "hit": false,
      "t": 66520.83333333334,
      "d": 479.1666666666715,
      "v": 86
    },
    {
      "midi": 40,
      "hit": false,
      "t": 66770.83333333334,
      "d": 479.1666666666715,
      "v": 86
    },
    {
      "midi": 54,
      "hit": false,
      "t": 66770.83333333334,
      "d": 479.1666666666715,
      "v": 86
    },
    {
      "midi": 59,
      "hit": false,
      "t": 66770.83333333334,
      "d": 479.1666666666715,
      "v": 86
    },
    {
      "midi": 63,
      "hit": false,
      "t": 66770.83333333334,
      "d": 479.1666666666715,
      "v": 86
    },
    {
      "midi": 54,
      "hit": false,
      "t": 67270.83333333334,
      "d": 250,
      "v": 86
    },
    {
      "midi": 54,
      "hit": false,
      "t": 67520.83333333334,
      "d": 250,
      "v": 86
    },
    {
      "midi": 40,
      "hit": false,
      "t": 67520.83333333334,
      "d": 479.1666666666715,
      "v": 86
    },
    {
      "midi": 59,
      "hit": false,
      "t": 67520.83333333334,
      "d": 479.1666666666715,
      "v": 86
    },
    {
      "midi": 47,
      "hit": false,
      "t": 67770.83333333334,
      "d": 479.1666666666715,
      "v": 86
    },
    {
      "midi": 40,
      "hit": false,
      "t": 68020.83333333334,
      "d": 437.5,
      "v": 86
    },
    {
      "midi": 56,
      "hit": false,
      "t": 68520.83333333334,
      "d": 479.1666666666715,
      "v": 86
    },
    {
      "midi": 59,
      "hit": false,
      "t": 68520.83333333334,
      "d": 479.1666666666715,
      "v": 86
    },
    {
      "midi": 64,
      "hit": false,
      "t": 68520.83333333334,
      "d": 479.1666666666715,
      "v": 86
    },
    {
      "midi": 52,
      "hit": false,
      "t": 68770.83333333334,
      "d": 479.1666666666715,
      "v": 86
    },
    {
      "midi": 56,
      "hit": false,
      "t": 69270.83333333334,
      "d": 437.5,
      "v": 86
    },
    {
      "midi": 59,
      "hit": false,
      "t": 69270.83333333334,
      "d": 437.5,
      "v": 86
    },
    {
      "midi": 64,
      "hit": false,
      "t": 69270.83333333334,
      "d": 437.5,
      "v": 86
    },
    {
      "midi": 52,
      "hit": false,
      "t": 69520.83333333334,
      "d": 479.1666666666715,
      "v": 86
    },
    {
      "midi": 40,
      "hit": false,
      "t": 69770.83333333334,
      "d": 229.16666666667152,
      "v": 96
    },
    {
      "midi": 47,
      "hit": false,
      "t": 69770.83333333334,
      "d": 479.1666666666715,
      "v": 86
    },
    {
      "midi": 40,
      "hit": false,
      "t": 70020.83333333334,
      "d": 250,
      "v": 86
    },
    {
      "midi": 52,
      "hit": false,
      "t": 70020.83333333334,
      "d": 437.5,
      "v": 86
    },
    {
      "midi": 45,
      "hit": false,
      "t": 70020.83333333334,
      "d": 479.1666666666715,
      "v": 96
    },
    {
      "midi": 57,
      "hit": false,
      "t": 70020.83333333334,
      "d": 479.1666666666715,
      "v": 86
    },
    {
      "midi": 61,
      "hit": false,
      "t": 70020.83333333334,
      "d": 479.1666666666715,
      "v": 86
    },
    {
      "midi": 57,
      "hit": false,
      "t": 70520.83333333334,
      "d": 479.1666666666715,
      "v": 86
    },
    {
      "midi": 61,
      "hit": false,
      "t": 70520.83333333334,
      "d": 479.1666666666715,
      "v": 86
    },
    {
      "midi": 52,
      "hit": false,
      "t": 70770.83333333334,
      "d": 479.1666666666715,
      "v": 86
    },
    {
      "midi": 47,
      "hit": false,
      "t": 71020.83333333334,
      "d": 479.1666666666715,
      "v": 86
    },
    {
      "midi": 54,
      "hit": false,
      "t": 71020.83333333334,
      "d": 479.1666666666715,
      "v": 86
    },
    {
      "midi": 59,
      "hit": false,
      "t": 71020.83333333334,
      "d": 479.1666666666715,
      "v": 86
    },
    {
      "midi": 63,
      "hit": false,
      "t": 71020.83333333334,
      "d": 479.1666666666715,
      "v": 86
    },
    {
      "midi": 47,
      "hit": false,
      "t": 71520.83333333334,
      "d": 250,
      "v": 86
    },
    {
      "midi": 54,
      "hit": false,
      "t": 71520.83333333334,
      "d": 479.1666666666715,
      "v": 86
    },
    {
      "midi": 59,
      "hit": false,
      "t": 71520.83333333334,
      "d": 479.1666666666715,
      "v": 86
    },
    {
      "midi": 63,
      "hit": false,
      "t": 71520.83333333334,
      "d": 479.1666666666715,
      "v": 86
    },
    {
      "midi": 47,
      "hit": false,
      "t": 71770.83333333334,
      "d": 229.16666666667152,
      "v": 86
    },
    {
      "midi": 40,
      "hit": false,
      "t": 72020.83333333334,
      "d": 437.5,
      "v": 86
    },
    {
      "midi": 56,
      "hit": false,
      "t": 72520.83333333334,
      "d": 479.1666666666715,
      "v": 86
    },
    {
      "midi": 59,
      "hit": false,
      "t": 72520.83333333334,
      "d": 479.1666666666715,
      "v": 86
    },
    {
      "midi": 64,
      "hit": false,
      "t": 72520.83333333334,
      "d": 479.1666666666715,
      "v": 86
    },
    {
      "midi": 52,
      "hit": false,
      "t": 72770.83333333334,
      "d": 479.1666666666715,
      "v": 86
    },
    {
      "midi": 56,
      "hit": false,
      "t": 73270.83333333334,
      "d": 437.5,
      "v": 86
    },
    {
      "midi": 59,
      "hit": false,
      "t": 73270.83333333334,
      "d": 437.5,
      "v": 86
    },
    {
      "midi": 64,
      "hit": false,
      "t": 73270.83333333334,
      "d": 437.5,
      "v": 86
    },
    {
      "midi": 52,
      "hit": false,
      "t": 73520.83333333334,
      "d": 479.1666666666715,
      "v": 86
    },
    {
      "midi": 47,
      "hit": false,
      "t": 73770.83333333334,
      "d": 479.1666666666715,
      "v": 86
    },
    {
      "midi": 52,
      "hit": false,
      "t": 74020.83333333334,
      "d": 437.5,
      "v": 86
    },
    {
      "midi": 40,
      "hit": false,
      "t": 74020.83333333334,
      "d": 479.1666666666715,
      "v": 86
    },
    {
      "midi": 57,
      "hit": false,
      "t": 74020.83333333334,
      "d": 479.1666666666715,
      "v": 86
    },
    {
      "midi": 61,
      "hit": false,
      "t": 74020.83333333334,
      "d": 479.1666666666715,
      "v": 86
    },
    {
      "midi": 57,
      "hit": false,
      "t": 74520.83333333334,
      "d": 479.1666666666715,
      "v": 86
    },
    {
      "midi": 61,
      "hit": false,
      "t": 74520.83333333334,
      "d": 479.1666666666715,
      "v": 86
    },
    {
      "midi": 40,
      "hit": false,
      "t": 74770.83333333334,
      "d": 479.1666666666715,
      "v": 86
    },
    {
      "midi": 54,
      "hit": false,
      "t": 74770.83333333334,
      "d": 479.1666666666715,
      "v": 86
    },
    {
      "midi": 59,
      "hit": false,
      "t": 74770.83333333334,
      "d": 479.1666666666715,
      "v": 86
    },
    {
      "midi": 63,
      "hit": false,
      "t": 74770.83333333334,
      "d": 479.1666666666715,
      "v": 86
    },
    {
      "midi": 54,
      "hit": false,
      "t": 75270.83333333334,
      "d": 250,
      "v": 86
    },
    {
      "midi": 54,
      "hit": false,
      "t": 75520.83333333334,
      "d": 250,
      "v": 86
    },
    {
      "midi": 40,
      "hit": false,
      "t": 75520.83333333334,
      "d": 479.1666666666715,
      "v": 86
    },
    {
      "midi": 59,
      "hit": false,
      "t": 75520.83333333334,
      "d": 479.1666666666715,
      "v": 86
    },
    {
      "midi": 47,
      "hit": false,
      "t": 75770.83333333334,
      "d": 479.1666666666715,
      "v": 86
    },
    {
      "midi": 40,
      "hit": false,
      "t": 76020.83333333334,
      "d": 437.5,
      "v": 86
    },
    {
      "midi": 56,
      "hit": false,
      "t": 76520.83333333334,
      "d": 479.1666666666715,
      "v": 86
    },
    {
      "midi": 59,
      "hit": false,
      "t": 76520.83333333334,
      "d": 479.1666666666715,
      "v": 86
    },
    {
      "midi": 64,
      "hit": false,
      "t": 76520.83333333334,
      "d": 479.1666666666715,
      "v": 86
    },
    {
      "midi": 52,
      "hit": false,
      "t": 76770.83333333334,
      "d": 479.1666666666715,
      "v": 86
    },
    {
      "midi": 56,
      "hit": false,
      "t": 77270.83333333334,
      "d": 437.5,
      "v": 86
    },
    {
      "midi": 59,
      "hit": false,
      "t": 77270.83333333334,
      "d": 437.5,
      "v": 86
    },
    {
      "midi": 64,
      "hit": false,
      "t": 77270.83333333334,
      "d": 437.5,
      "v": 86
    },
    {
      "midi": 52,
      "hit": false,
      "t": 77520.83333333334,
      "d": 479.1666666666715,
      "v": 86
    },
    {
      "midi": 40,
      "hit": false,
      "t": 77770.83333333334,
      "d": 229.16666666667152,
      "v": 96
    },
    {
      "midi": 47,
      "hit": false,
      "t": 77770.83333333334,
      "d": 479.1666666666715,
      "v": 86
    },
    {
      "midi": 40,
      "hit": false,
      "t": 78020.83333333334,
      "d": 250,
      "v": 86
    },
    {
      "midi": 52,
      "hit": false,
      "t": 78020.83333333334,
      "d": 437.5,
      "v": 86
    },
    {
      "midi": 45,
      "hit": false,
      "t": 78020.83333333334,
      "d": 479.1666666666715,
      "v": 96
    },
    {
      "midi": 57,
      "hit": false,
      "t": 78020.83333333334,
      "d": 479.1666666666715,
      "v": 86
    },
    {
      "midi": 61,
      "hit": false,
      "t": 78020.83333333334,
      "d": 479.1666666666715,
      "v": 86
    },
    {
      "midi": 57,
      "hit": false,
      "t": 78520.83333333334,
      "d": 479.1666666666715,
      "v": 86
    },
    {
      "midi": 61,
      "hit": false,
      "t": 78520.83333333334,
      "d": 479.1666666666715,
      "v": 86
    },
    {
      "midi": 52,
      "hit": false,
      "t": 78770.83333333334,
      "d": 479.1666666666715,
      "v": 86
    },
    {
      "midi": 47,
      "hit": false,
      "t": 79020.83333333334,
      "d": 479.1666666666715,
      "v": 86
    },
    {
      "midi": 54,
      "hit": false,
      "t": 79020.83333333334,
      "d": 479.1666666666715,
      "v": 86
    },
    {
      "midi": 59,
      "hit": false,
      "t": 79020.83333333334,
      "d": 479.1666666666715,
      "v": 86
    },
    {
      "midi": 63,
      "hit": false,
      "t": 79020.83333333334,
      "d": 479.1666666666715,
      "v": 86
    },
    {
      "midi": 47,
      "hit": false,
      "t": 79520.83333333334,
      "d": 250,
      "v": 86
    },
    {
      "midi": 54,
      "hit": false,
      "t": 79520.83333333334,
      "d": 479.1666666666715,
      "v": 86
    },
    {
      "midi": 59,
      "hit": false,
      "t": 79520.83333333334,
      "d": 479.1666666666715,
      "v": 86
    },
    {
      "midi": 63,
      "hit": false,
      "t": 79520.83333333334,
      "d": 479.1666666666715,
      "v": 86
    },
    {
      "midi": 47,
      "hit": false,
      "t": 79770.83333333334,
      "d": 229.16666666667152,
      "v": 86
    },
    {
      "midi": 40,
      "hit": false,
      "t": 80020.83333333334,
      "d": 437.5,
      "v": 86
    },
    {
      "midi": 80,
      "hit": false,
      "t": 80020.83333333334,
      "d": 479.1666666666715,
      "v": 86
    },
    {
      "midi": 83,
      "hit": false,
      "t": 80020.83333333334,
      "d": 479.1666666666715,
      "v": 86
    },
    {
      "midi": 59,
      "hit": false,
      "t": 80520.83333333334,
      "d": 250,
      "v": 86
    },
    {
      "midi": 64,
      "hit": false,
      "t": 80520.83333333334,
      "d": 250,
      "v": 86
    },
    {
      "midi": 68,
      "hit": false,
      "t": 80520.83333333334,
      "d": 250,
      "v": 86
    },
    {
      "midi": 59,
      "hit": false,
      "t": 80770.83333333334,
      "d": 250,
      "v": 86
    },
    {
      "midi": 64,
      "hit": false,
      "t": 80770.83333333334,
      "d": 250,
      "v": 86
    },
    {
      "midi": 68,
      "hit": false,
      "t": 80770.83333333334,
      "d": 250,
      "v": 86
    },
    {
      "midi": 80,
      "hit": false,
      "t": 81520.83333333334,
      "d": 250,
      "v": 86
    },
    {
      "midi": 83,
      "hit": false,
      "t": 81520.83333333334,
      "d": 250,
      "v": 86
    },
    {
      "midi": 59,
      "hit": false,
      "t": 81520.83333333334,
      "d": 479.1666666666715,
      "v": 86
    },
    {
      "midi": 64,
      "hit": false,
      "t": 81520.83333333334,
      "d": 479.1666666666715,
      "v": 86
    },
    {
      "midi": 68,
      "hit": false,
      "t": 81520.83333333334,
      "d": 479.1666666666715,
      "v": 86
    },
    {
      "midi": 80,
      "hit": false,
      "t": 81770.83333333334,
      "d": 229.16666666667152,
      "v": 86
    },
    {
      "midi": 83,
      "hit": false,
      "t": 81770.83333333334,
      "d": 229.16666666667152,
      "v": 86
    },
    {
      "midi": 80,
      "hit": false,
      "t": 82020.83333333334,
      "d": 229.16666666667152,
      "v": 86
    },
    {
      "midi": 49,
      "hit": false,
      "t": 82020.83333333334,
      "d": 479.1666666666715,
      "v": 86
    },
    {
      "midi": 85,
      "hit": false,
      "t": 82020.83333333334,
      "d": 479.1666666666715,
      "v": 86
    },
    {
      "midi": 61,
      "hit": false,
      "t": 82520.83333333334,
      "d": 250,
      "v": 86
    },
    {
      "midi": 64,
      "hit": false,
      "t": 82520.83333333334,
      "d": 250,
      "v": 86
    },
    {
      "midi": 68,
      "hit": false,
      "t": 82520.83333333334,
      "d": 250,
      "v": 86
    },
    {
      "midi": 61,
      "hit": false,
      "t": 82770.83333333334,
      "d": 250,
      "v": 86
    },
    {
      "midi": 64,
      "hit": false,
      "t": 82770.83333333334,
      "d": 250,
      "v": 86
    },
    {
      "midi": 68,
      "hit": false,
      "t": 82770.83333333334,
      "d": 250,
      "v": 86
    },
    {
      "midi": 80,
      "hit": false,
      "t": 83520.83333333334,
      "d": 250,
      "v": 86
    },
    {
      "midi": 85,
      "hit": false,
      "t": 83520.83333333334,
      "d": 250,
      "v": 86
    },
    {
      "midi": 61,
      "hit": false,
      "t": 83520.83333333334,
      "d": 479.1666666666715,
      "v": 86
    },
    {
      "midi": 64,
      "hit": false,
      "t": 83520.83333333334,
      "d": 479.1666666666715,
      "v": 86
    },
    {
      "midi": 68,
      "hit": false,
      "t": 83520.83333333334,
      "d": 479.1666666666715,
      "v": 86
    },
    {
      "midi": 80,
      "hit": false,
      "t": 83770.83333333334,
      "d": 229.16666666667152,
      "v": 86
    },
    {
      "midi": 85,
      "hit": false,
      "t": 83770.83333333334,
      "d": 229.16666666667152,
      "v": 86
    },
    {
      "midi": 80,
      "hit": false,
      "t": 84020.83333333334,
      "d": 229.16666666667152,
      "v": 86
    },
    {
      "midi": 40,
      "hit": false,
      "t": 84020.83333333334,
      "d": 437.5,
      "v": 86
    },
    {
      "midi": 83,
      "hit": false,
      "t": 84020.83333333334,
      "d": 479.1666666666715,
      "v": 86
    },
    {
      "midi": 59,
      "hit": false,
      "t": 84520.83333333334,
      "d": 250,
      "v": 86
    },
    {
      "midi": 64,
      "hit": false,
      "t": 84520.83333333334,
      "d": 250,
      "v": 86
    },
    {
      "midi": 68,
      "hit": false,
      "t": 84520.83333333334,
      "d": 250,
      "v": 86
    },
    {
      "midi": 59,
      "hit": false,
      "t": 84770.83333333334,
      "d": 250,
      "v": 86
    },
    {
      "midi": 64,
      "hit": false,
      "t": 84770.83333333334,
      "d": 250,
      "v": 86
    },
    {
      "midi": 68,
      "hit": false,
      "t": 84770.83333333334,
      "d": 250,
      "v": 86
    },
    {
      "midi": 80,
      "hit": false,
      "t": 85520.83333333334,
      "d": 250,
      "v": 86
    },
    {
      "midi": 83,
      "hit": false,
      "t": 85520.83333333334,
      "d": 250,
      "v": 86
    },
    {
      "midi": 59,
      "hit": false,
      "t": 85520.83333333334,
      "d": 479.1666666666715,
      "v": 86
    },
    {
      "midi": 64,
      "hit": false,
      "t": 85520.83333333334,
      "d": 479.1666666666715,
      "v": 86
    },
    {
      "midi": 80,
      "hit": false,
      "t": 85770.83333333334,
      "d": 229.16666666667152,
      "v": 86
    },
    {
      "midi": 83,
      "hit": false,
      "t": 85770.83333333334,
      "d": 229.16666666667152,
      "v": 86
    },
    {
      "midi": 80,
      "hit": false,
      "t": 86020.83333333334,
      "d": 229.16666666667152,
      "v": 86
    },
    {
      "midi": 49,
      "hit": false,
      "t": 86020.83333333334,
      "d": 479.1666666666715,
      "v": 86
    },
    {
      "midi": 85,
      "hit": false,
      "t": 86020.83333333334,
      "d": 479.1666666666715,
      "v": 86
    },
    {
      "midi": 61,
      "hit": false,
      "t": 86520.83333333334,
      "d": 229.16666666667152,
      "v": 86
    },
    {
      "midi": 64,
      "hit": false,
      "t": 86520.83333333334,
      "d": 229.16666666667152,
      "v": 86
    },
    {
      "midi": 68,
      "hit": false,
      "t": 86520.83333333334,
      "d": 229.16666666667152,
      "v": 86
    },
    {
      "midi": 49,
      "hit": false,
      "t": 86770.83333333334,
      "d": 1104.1666666666715,
      "v": 86
    },
    {
      "midi": 61,
      "hit": false,
      "t": 86770.83333333334,
      "d": 1104.1666666666715,
      "v": 86
    },
    {
      "midi": 64,
      "hit": false,
      "t": 86770.83333333334,
      "d": 1104.1666666666715,
      "v": 86
    },
    {
      "midi": 68,
      "hit": false,
      "t": 86770.83333333334,
      "d": 1104.1666666666715,
      "v": 86
    },
    {
      "midi": 44,
      "hit": false,
      "t": 88020.83333333334,
      "d": 479.1666666666715,
      "v": 86
    },
    {
      "midi": 59,
      "hit": false,
      "t": 88020.83333333334,
      "d": 479.1666666666715,
      "v": 86
    },
    {
      "midi": 63,
      "hit": false,
      "t": 88020.83333333334,
      "d": 479.1666666666715,
      "v": 86
    },
    {
      "midi": 66,
      "hit": false,
      "t": 88020.83333333334,
      "d": 479.1666666666715,
      "v": 86
    },
    {
      "midi": 44,
      "hit": false,
      "t": 89020.83333333334,
      "d": 479.1666666666715,
      "v": 86
    },
    {
      "midi": 45,
      "hit": false,
      "t": 90020.83333333334,
      "d": 479.1666666666715,
      "v": 86
    },
    {
      "midi": 52,
      "hit": false,
      "t": 90520.83333333334,
      "d": 479.1666666666715,
      "v": 86
    },
    {
      "midi": 57,
      "hit": false,
      "t": 90520.83333333334,
      "d": 479.1666666666715,
      "v": 86
    },
    {
      "midi": 61,
      "hit": false,
      "t": 90520.83333333334,
      "d": 479.1666666666715,
      "v": 86
    },
    {
      "midi": 54,
      "hit": false,
      "t": 90770.83333333334,
      "d": 479.1666666666715,
      "v": 86
    },
    {
      "midi": 59,
      "hit": false,
      "t": 90770.83333333334,
      "d": 479.1666666666715,
      "v": 86
    },
    {
      "midi": 63,
      "hit": false,
      "t": 90770.83333333334,
      "d": 479.1666666666715,
      "v": 86
    },
    {
      "midi": 52,
      "hit": false,
      "t": 91270.83333333334,
      "d": 479.1666666666715,
      "v": 86
    },
    {
      "midi": 57,
      "hit": false,
      "t": 91270.83333333334,
      "d": 479.1666666666715,
      "v": 86
    },
    {
      "midi": 61,
      "hit": false,
      "t": 91270.83333333334,
      "d": 479.1666666666715,
      "v": 86
    },
    {
      "midi": 54,
      "hit": false,
      "t": 91520.83333333334,
      "d": 479.1666666666715,
      "v": 86
    },
    {
      "midi": 59,
      "hit": false,
      "t": 91520.83333333334,
      "d": 479.1666666666715,
      "v": 86
    },
    {
      "midi": 63,
      "hit": false,
      "t": 91520.83333333334,
      "d": 479.1666666666715,
      "v": 86
    },
    {
      "midi": 45,
      "hit": false,
      "t": 92020.83333333334,
      "d": 479.1666666666715,
      "v": 86
    },
    {
      "midi": 52,
      "hit": false,
      "t": 92020.83333333334,
      "d": 479.1666666666715,
      "v": 86
    },
    {
      "midi": 57,
      "hit": false,
      "t": 92020.83333333334,
      "d": 479.1666666666715,
      "v": 86
    },
    {
      "midi": 61,
      "hit": false,
      "t": 92020.83333333334,
      "d": 479.1666666666715,
      "v": 86
    },
    {
      "midi": 47,
      "hit": false,
      "t": 92270.83333333334,
      "d": 479.1666666666715,
      "v": 86
    },
    {
      "midi": 54,
      "hit": false,
      "t": 92270.83333333334,
      "d": 479.1666666666715,
      "v": 86
    },
    {
      "midi": 59,
      "hit": false,
      "t": 92270.83333333334,
      "d": 479.1666666666715,
      "v": 86
    },
    {
      "midi": 63,
      "hit": false,
      "t": 92270.83333333334,
      "d": 479.1666666666715,
      "v": 86
    },
    {
      "midi": 45,
      "hit": false,
      "t": 92770.83333333334,
      "d": 479.1666666666715,
      "v": 86
    },
    {
      "midi": 52,
      "hit": false,
      "t": 92770.83333333334,
      "d": 479.1666666666715,
      "v": 86
    },
    {
      "midi": 57,
      "hit": false,
      "t": 92770.83333333334,
      "d": 479.1666666666715,
      "v": 86
    },
    {
      "midi": 61,
      "hit": false,
      "t": 92770.83333333334,
      "d": 479.1666666666715,
      "v": 86
    },
    {
      "midi": 54,
      "hit": false,
      "t": 93270.83333333334,
      "d": 437.5,
      "v": 86
    },
    {
      "midi": 59,
      "hit": false,
      "t": 93270.83333333334,
      "d": 437.5,
      "v": 86
    },
    {
      "midi": 63,
      "hit": false,
      "t": 93270.83333333334,
      "d": 437.5,
      "v": 86
    },
    {
      "midi": 47,
      "hit": false,
      "t": 93270.83333333334,
      "d": 479.1666666666715,
      "v": 86
    },
    {
      "midi": 52,
      "hit": false,
      "t": 93520.83333333334,
      "d": 437.5,
      "v": 86
    },
    {
      "midi": 57,
      "hit": false,
      "t": 93520.83333333334,
      "d": 437.5,
      "v": 86
    },
    {
      "midi": 61,
      "hit": false,
      "t": 93520.83333333334,
      "d": 437.5,
      "v": 86
    },
    {
      "midi": 45,
      "hit": false,
      "t": 93520.83333333334,
      "d": 479.1666666666715,
      "v": 86
    },
    {
      "midi": 47,
      "hit": false,
      "t": 93770.83333333334,
      "d": 229.16666666667152,
      "v": 86
    },
    {
      "midi": 54,
      "hit": false,
      "t": 93770.83333333334,
      "d": 437.5,
      "v": 86
    },
    {
      "midi": 59,
      "hit": false,
      "t": 93770.83333333334,
      "d": 437.5,
      "v": 86
    },
    {
      "midi": 63,
      "hit": false,
      "t": 93770.83333333334,
      "d": 437.5,
      "v": 86
    },
    {
      "midi": 47,
      "hit": false,
      "t": 94020.83333333334,
      "d": 250,
      "v": 86
    },
    {
      "midi": 52,
      "hit": false,
      "t": 94020.83333333334,
      "d": 479.1666666666715,
      "v": 86
    },
    {
      "midi": 56,
      "hit": false,
      "t": 94020.83333333334,
      "d": 479.1666666666715,
      "v": 86
    },
    {
      "midi": 42,
      "hit": false,
      "t": 94020.83333333334,
      "d": 1750,
      "v": 86
    },
    {
      "midi": 58,
      "hit": false,
      "t": 94270.83333333334,
      "d": 437.5,
      "v": 86
    },
    {
      "midi": 49,
      "hit": false,
      "t": 94270.83333333334,
      "d": 479.1666666666715,
      "v": 86
    },
    {
      "midi": 54,
      "hit": false,
      "t": 94270.83333333334,
      "d": 479.1666666666715,
      "v": 86
    },
    {
      "midi": 47,
      "hit": false,
      "t": 94520.83333333334,
      "d": 479.1666666666715,
      "v": 86
    },
    {
      "midi": 52,
      "hit": false,
      "t": 94520.83333333334,
      "d": 479.1666666666715,
      "v": 86
    },
    {
      "midi": 56,
      "hit": false,
      "t": 94520.83333333334,
      "d": 479.1666666666715,
      "v": 86
    },
    {
      "midi": 49,
      "hit": false,
      "t": 94770.83333333334,
      "d": 479.1666666666715,
      "v": 86
    },
    {
      "midi": 54,
      "hit": false,
      "t": 94770.83333333334,
      "d": 479.1666666666715,
      "v": 86
    },
    {
      "midi": 58,
      "hit": false,
      "t": 94770.83333333334,
      "d": 479.1666666666715,
      "v": 86
    },
    {
      "midi": 54,
      "hit": false,
      "t": 95270.83333333334,
      "d": 437.5,
      "v": 86
    },
    {
      "midi": 58,
      "hit": false,
      "t": 95270.83333333334,
      "d": 437.5,
      "v": 86
    },
    {
      "midi": 49,
      "hit": false,
      "t": 95270.83333333334,
      "d": 479.1666666666715,
      "v": 86
    },
    {
      "midi": 42,
      "hit": false,
      "t": 95770.83333333334,
      "d": 229.16666666667152,
      "v": 86
    },
    {
      "midi": 49,
      "hit": false,
      "t": 95770.83333333334,
      "d": 229.16666666667152,
      "v": 86
    },
    {
      "midi": 54,
      "hit": false,
      "t": 95770.83333333334,
      "d": 479.1666666666715,
      "v": 86
    },
    {
      "midi": 58,
      "hit": false,
      "t": 95770.83333333334,
      "d": 479.1666666666715,
      "v": 86
    },
    {
      "midi": 49,
      "hit": false,
      "t": 96020.83333333334,
      "d": 250,
      "v": 86
    },
    {
      "midi": 59,
      "hit": false,
      "t": 96020.83333333334,
      "d": 250,
      "v": 86
    },
    {
      "midi": 52,
      "hit": false,
      "t": 96020.83333333334,
      "d": 479.1666666666715,
      "v": 86
    },
    {
      "midi": 42,
      "hit": false,
      "t": 96020.83333333334,
      "d": 1500,
      "v": 86
    },
    {
      "midi": 49,
      "hit": false,
      "t": 96270.83333333334,
      "d": 229.16666666667152,
      "v": 86
    },
    {
      "midi": 59,
      "hit": false,
      "t": 96270.83333333334,
      "d": 250,
      "v": 86
    },
    {
      "midi": 54,
      "hit": false,
      "t": 96270.83333333334,
      "d": 479.1666666666715,
      "v": 86
    },
    {
      "midi": 49,
      "hit": false,
      "t": 96520.83333333334,
      "d": 229.16666666667152,
      "v": 86
    },
    {
      "midi": 59,
      "hit": false,
      "t": 96520.83333333334,
      "d": 229.16666666667152,
      "v": 86
    },
    {
      "midi": 52,
      "hit": false,
      "t": 96520.83333333334,
      "d": 479.1666666666715,
      "v": 86
    },
    {
      "midi": 49,
      "hit": false,
      "t": 96770.83333333334,
      "d": 229.16666666667152,
      "v": 86
    },
    {
      "midi": 54,
      "hit": false,
      "t": 96770.83333333334,
      "d": 479.1666666666715,
      "v": 86
    },
    {
      "midi": 58,
      "hit": false,
      "t": 96770.83333333334,
      "d": 479.1666666666715,
      "v": 86
    },
    {
      "midi": 40,
      "hit": false,
      "t": 97270.83333333334,
      "d": 479.1666666666715,
      "v": 86
    },
    {
      "midi": 47,
      "hit": false,
      "t": 97270.83333333334,
      "d": 479.1666666666715,
      "v": 86
    },
    {
      "midi": 52,
      "hit": false,
      "t": 97270.83333333334,
      "d": 479.1666666666715,
      "v": 86
    },
    {
      "midi": 56,
      "hit": false,
      "t": 97270.83333333334,
      "d": 479.1666666666715,
      "v": 86
    },
    {
      "midi": 42,
      "hit": false,
      "t": 97520.83333333334,
      "d": 479.1666666666715,
      "v": 86
    },
    {
      "midi": 49,
      "hit": false,
      "t": 97520.83333333334,
      "d": 479.1666666666715,
      "v": 86
    },
    {
      "midi": 54,
      "hit": false,
      "t": 97520.83333333334,
      "d": 479.1666666666715,
      "v": 86
    },
    {
      "midi": 58,
      "hit": false,
      "t": 97520.83333333334,
      "d": 479.1666666666715,
      "v": 86
    },
    {
      "midi": 47,
      "hit": false,
      "t": 98020.83333333334,
      "d": 437.5,
      "v": 86
    },
    {
      "midi": 56,
      "hit": false,
      "t": 98020.83333333334,
      "d": 479.1666666666715,
      "v": 86
    },
    {
      "midi": 59,
      "hit": false,
      "t": 98020.83333333334,
      "d": 479.1666666666715,
      "v": 86
    },
    {
      "midi": 64,
      "hit": false,
      "t": 98020.83333333334,
      "d": 479.1666666666715,
      "v": 86
    },
    {
      "midi": 56,
      "hit": false,
      "t": 98520.83333333334,
      "d": 250,
      "v": 86
    },
    {
      "midi": 59,
      "hit": false,
      "t": 98520.83333333334,
      "d": 250,
      "v": 86
    },
    {
      "midi": 64,
      "hit": false,
      "t": 98520.83333333334,
      "d": 437.5,
      "v": 86
    },
    {
      "midi": 56,
      "hit": false,
      "t": 98770.83333333334,
      "d": 250,
      "v": 86
    },
    {
      "midi": 59,
      "hit": false,
      "t": 98770.83333333334,
      "d": 250,
      "v": 86
    },
    {
      "midi": 47,
      "hit": false,
      "t": 98770.83333333334,
      "d": 479.1666666666715,
      "v": 86
    },
    {
      "midi": 63,
      "hit": false,
      "t": 98770.83333333334,
      "d": 479.1666666666715,
      "v": 86
    },
    {
      "midi": 47,
      "hit": false,
      "t": 99270.83333333334,
      "d": 479.1666666666715,
      "v": 86
    },
    {
      "midi": 56,
      "hit": false,
      "t": 99520.83333333334,
      "d": 250,
      "v": 86
    },
    {
      "midi": 59,
      "hit": false,
      "t": 99520.83333333334,
      "d": 250,
      "v": 86
    },
    {
      "midi": 63,
      "hit": false,
      "t": 99520.83333333334,
      "d": 250,
      "v": 86
    },
    {
      "midi": 56,
      "hit": false,
      "t": 99770.83333333334,
      "d": 229.16666666667152,
      "v": 86
    },
    {
      "midi": 59,
      "hit": false,
      "t": 99770.83333333334,
      "d": 229.16666666667152,
      "v": 86
    },
    {
      "midi": 63,
      "hit": false,
      "t": 99770.83333333334,
      "d": 229.16666666667152,
      "v": 86
    },
    {
      "midi": 47,
      "hit": false,
      "t": 100020.83333333334,
      "d": 479.1666666666715,
      "v": 86
    },
    {
      "midi": 54,
      "hit": false,
      "t": 100020.83333333334,
      "d": 479.1666666666715,
      "v": 86
    },
    {
      "midi": 57,
      "hit": false,
      "t": 100020.83333333334,
      "d": 479.1666666666715,
      "v": 86
    },
    {
      "midi": 61,
      "hit": false,
      "t": 100020.83333333334,
      "d": 479.1666666666715,
      "v": 86
    },
    {
      "midi": 57,
      "hit": false,
      "t": 100520.83333333334,
      "d": 250,
      "v": 86
    },
    {
      "midi": 61,
      "hit": false,
      "t": 100520.83333333334,
      "d": 250,
      "v": 86
    },
    {
      "midi": 54,
      "hit": false,
      "t": 100520.83333333334,
      "d": 437.5,
      "v": 86
    },
    {
      "midi": 57,
      "hit": false,
      "t": 100770.83333333334,
      "d": 250,
      "v": 86
    },
    {
      "midi": 61,
      "hit": false,
      "t": 100770.83333333334,
      "d": 250,
      "v": 86
    },
    {
      "midi": 47,
      "hit": false,
      "t": 100770.83333333334,
      "d": 437.5,
      "v": 86
    },
    {
      "midi": 52,
      "hit": false,
      "t": 100770.83333333334,
      "d": 437.5,
      "v": 86
    },
    {
      "midi": 52,
      "hit": false,
      "t": 101270.83333333334,
      "d": 250,
      "v": 86
    },
    {
      "midi": 47,
      "hit": false,
      "t": 101270.83333333334,
      "d": 437.5,
      "v": 86
    },
    {
      "midi": 56,
      "hit": false,
      "t": 101270.83333333334,
      "d": 437.5,
      "v": 86
    },
    {
      "midi": 59,
      "hit": false,
      "t": 101270.83333333334,
      "d": 437.5,
      "v": 86
    },
    {
      "midi": 52,
      "hit": false,
      "t": 101520.83333333334,
      "d": 250,
      "v": 86
    },
    {
      "midi": 57,
      "hit": false,
      "t": 101520.83333333334,
      "d": 479.1666666666715,
      "v": 86
    },
    {
      "midi": 61,
      "hit": false,
      "t": 101520.83333333334,
      "d": 479.1666666666715,
      "v": 86
    },
    {
      "midi": 47,
      "hit": false,
      "t": 102020.83333333334,
      "d": 437.5,
      "v": 86
    },
    {
      "midi": 56,
      "hit": false,
      "t": 102020.83333333334,
      "d": 479.1666666666715,
      "v": 86
    },
    {
      "midi": 59,
      "hit": false,
      "t": 102020.83333333334,
      "d": 479.1666666666715,
      "v": 86
    },
    {
      "midi": 64,
      "hit": false,
      "t": 102020.83333333334,
      "d": 479.1666666666715,
      "v": 86
    },
    {
      "midi": 56,
      "hit": false,
      "t": 102520.83333333334,
      "d": 250,
      "v": 86
    },
    {
      "midi": 59,
      "hit": false,
      "t": 102520.83333333334,
      "d": 250,
      "v": 86
    },
    {
      "midi": 64,
      "hit": false,
      "t": 102520.83333333334,
      "d": 437.5,
      "v": 86
    },
    {
      "midi": 56,
      "hit": false,
      "t": 102770.83333333334,
      "d": 250,
      "v": 86
    },
    {
      "midi": 59,
      "hit": false,
      "t": 102770.83333333334,
      "d": 250,
      "v": 86
    },
    {
      "midi": 47,
      "hit": false,
      "t": 102770.83333333334,
      "d": 479.1666666666715,
      "v": 86
    },
    {
      "midi": 63,
      "hit": false,
      "t": 102770.83333333334,
      "d": 479.1666666666715,
      "v": 86
    },
    {
      "midi": 47,
      "hit": false,
      "t": 103270.83333333334,
      "d": 479.1666666666715,
      "v": 86
    },
    {
      "midi": 56,
      "hit": false,
      "t": 103520.83333333334,
      "d": 250,
      "v": 86
    },
    {
      "midi": 59,
      "hit": false,
      "t": 103520.83333333334,
      "d": 250,
      "v": 86
    },
    {
      "midi": 63,
      "hit": false,
      "t": 103520.83333333334,
      "d": 250,
      "v": 86
    },
    {
      "midi": 56,
      "hit": false,
      "t": 103770.83333333334,
      "d": 229.16666666667152,
      "v": 86
    },
    {
      "midi": 59,
      "hit": false,
      "t": 103770.83333333334,
      "d": 229.16666666667152,
      "v": 86
    },
    {
      "midi": 63,
      "hit": false,
      "t": 103770.83333333334,
      "d": 229.16666666667152,
      "v": 86
    },
    {
      "midi": 47,
      "hit": false,
      "t": 104020.83333333334,
      "d": 479.1666666666715,
      "v": 86
    },
    {
      "midi": 54,
      "hit": false,
      "t": 104020.83333333334,
      "d": 479.1666666666715,
      "v": 86
    },
    {
      "midi": 57,
      "hit": false,
      "t": 104020.83333333334,
      "d": 479.1666666666715,
      "v": 86
    },
    {
      "midi": 61,
      "hit": false,
      "t": 104020.83333333334,
      "d": 479.1666666666715,
      "v": 86
    },
    {
      "midi": 57,
      "hit": false,
      "t": 104520.83333333334,
      "d": 250,
      "v": 86
    },
    {
      "midi": 61,
      "hit": false,
      "t": 104520.83333333334,
      "d": 250,
      "v": 86
    },
    {
      "midi": 54,
      "hit": false,
      "t": 104520.83333333334,
      "d": 437.5,
      "v": 86
    },
    {
      "midi": 57,
      "hit": false,
      "t": 104770.83333333334,
      "d": 250,
      "v": 86
    },
    {
      "midi": 61,
      "hit": false,
      "t": 104770.83333333334,
      "d": 250,
      "v": 86
    },
    {
      "midi": 47,
      "hit": false,
      "t": 104770.83333333334,
      "d": 437.5,
      "v": 86
    },
    {
      "midi": 52,
      "hit": false,
      "t": 104770.83333333334,
      "d": 437.5,
      "v": 86
    },
    {
      "midi": 52,
      "hit": false,
      "t": 105270.83333333334,
      "d": 250,
      "v": 86
    },
    {
      "midi": 47,
      "hit": false,
      "t": 105270.83333333334,
      "d": 437.5,
      "v": 86
    },
    {
      "midi": 56,
      "hit": false,
      "t": 105270.83333333334,
      "d": 437.5,
      "v": 86
    },
    {
      "midi": 59,
      "hit": false,
      "t": 105270.83333333334,
      "d": 437.5,
      "v": 86
    },
    {
      "midi": 52,
      "hit": false,
      "t": 105520.83333333334,
      "d": 250,
      "v": 86
    },
    {
      "midi": 57,
      "hit": false,
      "t": 105520.83333333334,
      "d": 479.1666666666715,
      "v": 86
    },
    {
      "midi": 61,
      "hit": false,
      "t": 105520.83333333334,
      "d": 479.1666666666715,
      "v": 86
    },
    {
      "midi": 47,
      "hit": false,
      "t": 106020.83333333334,
      "d": 437.5,
      "v": 86
    },
    {
      "midi": 56,
      "hit": false,
      "t": 106020.83333333334,
      "d": 479.1666666666715,
      "v": 86
    },
    {
      "midi": 59,
      "hit": false,
      "t": 106020.83333333334,
      "d": 479.1666666666715,
      "v": 86
    },
    {
      "midi": 64,
      "hit": false,
      "t": 106020.83333333334,
      "d": 479.1666666666715,
      "v": 86
    },
    {
      "midi": 56,
      "hit": false,
      "t": 106520.83333333334,
      "d": 250,
      "v": 86
    },
    {
      "midi": 59,
      "hit": false,
      "t": 106520.83333333334,
      "d": 250,
      "v": 86
    },
    {
      "midi": 64,
      "hit": false,
      "t": 106520.83333333334,
      "d": 437.5,
      "v": 86
    },
    {
      "midi": 56,
      "hit": false,
      "t": 106770.83333333334,
      "d": 250,
      "v": 86
    },
    {
      "midi": 59,
      "hit": false,
      "t": 106770.83333333334,
      "d": 250,
      "v": 86
    },
    {
      "midi": 47,
      "hit": false,
      "t": 106770.83333333334,
      "d": 479.1666666666715,
      "v": 86
    },
    {
      "midi": 63,
      "hit": false,
      "t": 106770.83333333334,
      "d": 479.1666666666715,
      "v": 86
    },
    {
      "midi": 47,
      "hit": false,
      "t": 107270.83333333334,
      "d": 479.1666666666715,
      "v": 86
    },
    {
      "midi": 56,
      "hit": false,
      "t": 107520.83333333334,
      "d": 250,
      "v": 86
    },
    {
      "midi": 59,
      "hit": false,
      "t": 107520.83333333334,
      "d": 250,
      "v": 86
    },
    {
      "midi": 63,
      "hit": false,
      "t": 107520.83333333334,
      "d": 250,
      "v": 86
    },
    {
      "midi": 56,
      "hit": false,
      "t": 107770.83333333334,
      "d": 229.16666666667152,
      "v": 86
    },
    {
      "midi": 59,
      "hit": false,
      "t": 107770.83333333334,
      "d": 229.16666666667152,
      "v": 86
    },
    {
      "midi": 63,
      "hit": false,
      "t": 107770.83333333334,
      "d": 229.16666666667152,
      "v": 86
    },
    {
      "midi": 47,
      "hit": false,
      "t": 108020.83333333334,
      "d": 479.1666666666715,
      "v": 86
    },
    {
      "midi": 54,
      "hit": false,
      "t": 108020.83333333334,
      "d": 479.1666666666715,
      "v": 86
    },
    {
      "midi": 57,
      "hit": false,
      "t": 108020.83333333334,
      "d": 479.1666666666715,
      "v": 86
    },
    {
      "midi": 61,
      "hit": false,
      "t": 108020.83333333334,
      "d": 479.1666666666715,
      "v": 86
    },
    {
      "midi": 57,
      "hit": false,
      "t": 108520.83333333334,
      "d": 250,
      "v": 86
    },
    {
      "midi": 61,
      "hit": false,
      "t": 108520.83333333334,
      "d": 250,
      "v": 86
    },
    {
      "midi": 54,
      "hit": false,
      "t": 108520.83333333334,
      "d": 437.5,
      "v": 86
    },
    {
      "midi": 57,
      "hit": false,
      "t": 108770.83333333334,
      "d": 250,
      "v": 86
    },
    {
      "midi": 61,
      "hit": false,
      "t": 108770.83333333334,
      "d": 250,
      "v": 86
    },
    {
      "midi": 47,
      "hit": false,
      "t": 108770.83333333334,
      "d": 437.5,
      "v": 86
    },
    {
      "midi": 52,
      "hit": false,
      "t": 108770.83333333334,
      "d": 437.5,
      "v": 86
    },
    {
      "midi": 52,
      "hit": false,
      "t": 109270.83333333334,
      "d": 250,
      "v": 86
    },
    {
      "midi": 47,
      "hit": false,
      "t": 109270.83333333334,
      "d": 437.5,
      "v": 86
    },
    {
      "midi": 56,
      "hit": false,
      "t": 109270.83333333334,
      "d": 437.5,
      "v": 86
    },
    {
      "midi": 59,
      "hit": false,
      "t": 109270.83333333334,
      "d": 437.5,
      "v": 86
    },
    {
      "midi": 52,
      "hit": false,
      "t": 109520.83333333334,
      "d": 250,
      "v": 86
    },
    {
      "midi": 57,
      "hit": false,
      "t": 109520.83333333334,
      "d": 479.1666666666715,
      "v": 86
    },
    {
      "midi": 61,
      "hit": false,
      "t": 109520.83333333334,
      "d": 479.1666666666715,
      "v": 86
    },
    {
      "midi": 40,
      "hit": false,
      "t": 110020.83333333334,
      "d": 479.1666666666715,
      "v": 86
    },
    {
      "midi": 59,
      "hit": false,
      "t": 110020.83333333334,
      "d": 479.1666666666715,
      "v": 86
    },
    {
      "midi": 64,
      "hit": false,
      "t": 110020.83333333334,
      "d": 479.1666666666715,
      "v": 86
    },
    {
      "midi": 68,
      "hit": false,
      "t": 110020.83333333334,
      "d": 479.1666666666715,
      "v": 86
    },
    {
      "midi": 40,
      "hit": false,
      "t": 110520.83333333334,
      "d": 479.1666666666715,
      "v": 86
    },
    {
      "midi": 59,
      "hit": false,
      "t": 110770.83333333334,
      "d": 479.1666666666715,
      "v": 86
    },
    {
      "midi": 64,
      "hit": false,
      "t": 110770.83333333334,
      "d": 479.1666666666715,
      "v": 86
    },
    {
      "midi": 69,
      "hit": false,
      "t": 110770.83333333334,
      "d": 479.1666666666715,
      "v": 86
    },
    {
      "midi": 40,
      "hit": false,
      "t": 111270.83333333334,
      "d": 479.1666666666715,
      "v": 86
    },
    {
      "midi": 59,
      "hit": false,
      "t": 111520.83333333334,
      "d": 479.1666666666715,
      "v": 86
    },
    {
      "midi": 64,
      "hit": false,
      "t": 111520.83333333334,
      "d": 479.1666666666715,
      "v": 86
    },
    {
      "midi": 69,
      "hit": false,
      "t": 111520.83333333334,
      "d": 479.1666666666715,
      "v": 86
    },
    {
      "midi": 40,
      "hit": false,
      "t": 112020.83333333334,
      "d": 479.1666666666715,
      "v": 86
    },
    {
      "midi": 59,
      "hit": false,
      "t": 112020.83333333334,
      "d": 479.1666666666715,
      "v": 86
    },
    {
      "midi": 64,
      "hit": false,
      "t": 112020.83333333334,
      "d": 479.1666666666715,
      "v": 86
    },
    {
      "midi": 68,
      "hit": false,
      "t": 112020.83333333334,
      "d": 479.1666666666715,
      "v": 86
    },
    {
      "midi": 40,
      "hit": false,
      "t": 112520.83333333334,
      "d": 479.1666666666715,
      "v": 86
    },
    {
      "midi": 59,
      "hit": false,
      "t": 112770.83333333334,
      "d": 479.1666666666715,
      "v": 86
    },
    {
      "midi": 64,
      "hit": false,
      "t": 112770.83333333334,
      "d": 479.1666666666715,
      "v": 86
    },
    {
      "midi": 69,
      "hit": false,
      "t": 112770.83333333334,
      "d": 479.1666666666715,
      "v": 86
    },
    {
      "midi": 40,
      "hit": false,
      "t": 113270.83333333334,
      "d": 479.1666666666715,
      "v": 86
    },
    {
      "midi": 59,
      "hit": false,
      "t": 113520.83333333334,
      "d": 479.1666666666715,
      "v": 86
    },
    {
      "midi": 64,
      "hit": false,
      "t": 113520.83333333334,
      "d": 479.1666666666715,
      "v": 86
    },
    {
      "midi": 69,
      "hit": false,
      "t": 113520.83333333334,
      "d": 479.1666666666715,
      "v": 86
    },
    {
      "midi": 41,
      "hit": false,
      "t": 114020.83333333334,
      "d": 416.6666666666715,
      "v": 86
    },
    {
      "midi": 60,
      "hit": false,
      "t": 114020.83333333334,
      "d": 416.6666666666715,
      "v": 86
    },
    {
      "midi": 65,
      "hit": false,
      "t": 114020.83333333334,
      "d": 416.6666666666715,
      "v": 86
    },
    {
      "midi": 69,
      "hit": false,
      "t": 114020.83333333334,
      "d": 416.6666666666715,
      "v": 86
    },
    {
      "midi": 41,
      "hit": false,
      "t": 114520.83333333334,
      "d": 416.6666666666715,
      "v": 86
    },
    {
      "midi": 60,
      "hit": false,
      "t": 114770.83333333334,
      "d": 416.6666666666715,
      "v": 86
    },
    {
      "midi": 65,
      "hit": false,
      "t": 114770.83333333334,
      "d": 416.6666666666715,
      "v": 86
    },
    {
      "midi": 70,
      "hit": false,
      "t": 114770.83333333334,
      "d": 416.6666666666715,
      "v": 86
    },
    {
      "midi": 41,
      "hit": false,
      "t": 115270.83333333334,
      "d": 416.6666666666715,
      "v": 86
    },
    {
      "midi": 60,
      "hit": false,
      "t": 115520.83333333334,
      "d": 416.6666666666715,
      "v": 86
    },
    {
      "midi": 65,
      "hit": false,
      "t": 115520.83333333334,
      "d": 416.6666666666715,
      "v": 86
    },
    {
      "midi": 70,
      "hit": false,
      "t": 115520.83333333334,
      "d": 416.6666666666715,
      "v": 86
    },
    {
      "midi": 41,
      "hit": false,
      "t": 116020.83333333334,
      "d": 416.6666666666715,
      "v": 86
    },
    {
      "midi": 60,
      "hit": false,
      "t": 116020.83333333334,
      "d": 416.6666666666715,
      "v": 86
    },
    {
      "midi": 65,
      "hit": false,
      "t": 116020.83333333334,
      "d": 416.6666666666715,
      "v": 86
    },
    {
      "midi": 69,
      "hit": false,
      "t": 116020.83333333334,
      "d": 416.6666666666715,
      "v": 86
    },
    {
      "midi": 41,
      "hit": false,
      "t": 116520.83333333334,
      "d": 416.6666666666715,
      "v": 86
    },
    {
      "midi": 60,
      "hit": false,
      "t": 116770.83333333334,
      "d": 416.6666666666715,
      "v": 86
    },
    {
      "midi": 65,
      "hit": false,
      "t": 116770.83333333334,
      "d": 416.6666666666715,
      "v": 86
    },
    {
      "midi": 70,
      "hit": false,
      "t": 116770.83333333334,
      "d": 416.6666666666715,
      "v": 86
    },
    {
      "midi": 41,
      "hit": false,
      "t": 117270.83333333334,
      "d": 416.6666666666715,
      "v": 86
    },
    {
      "midi": 60,
      "hit": false,
      "t": 117520.83333333334,
      "d": 416.6666666666715,
      "v": 86
    },
    {
      "midi": 65,
      "hit": false,
      "t": 117520.83333333334,
      "d": 416.6666666666715,
      "v": 86
    },
    {
      "midi": 70,
      "hit": false,
      "t": 117520.83333333334,
      "d": 416.6666666666715,
      "v": 86
    },
    {
      "midi": 41,
      "hit": false,
      "t": 118020.83333333334,
      "d": 437.5,
      "v": 86
    },
    {
      "midi": 57,
      "hit": false,
      "t": 118520.83333333334,
      "d": 479.1666666666715,
      "v": 86
    },
    {
      "midi": 60,
      "hit": false,
      "t": 118520.83333333334,
      "d": 479.1666666666715,
      "v": 86
    },
    {
      "midi": 65,
      "hit": false,
      "t": 118520.83333333334,
      "d": 479.1666666666715,
      "v": 86
    },
    {
      "midi": 53,
      "hit": false,
      "t": 118770.83333333334,
      "d": 479.1666666666715,
      "v": 86
    },
    {
      "midi": 57,
      "hit": false,
      "t": 119270.83333333334,
      "d": 437.5,
      "v": 86
    },
    {
      "midi": 60,
      "hit": false,
      "t": 119270.83333333334,
      "d": 437.5,
      "v": 86
    },
    {
      "midi": 65,
      "hit": false,
      "t": 119270.83333333334,
      "d": 437.5,
      "v": 86
    },
    {
      "midi": 53,
      "hit": false,
      "t": 119520.83333333334,
      "d": 479.1666666666715,
      "v": 86
    },
    {
      "midi": 48,
      "hit": false,
      "t": 119770.83333333334,
      "d": 479.1666666666715,
      "v": 86
    },
    {
      "midi": 53,
      "hit": false,
      "t": 120020.83333333334,
      "d": 437.5,
      "v": 86
    },
    {
      "midi": 41,
      "hit": false,
      "t": 120020.83333333334,
      "d": 479.1666666666715,
      "v": 86
    },
    {
      "midi": 58,
      "hit": false,
      "t": 120020.83333333334,
      "d": 479.1666666666715,
      "v": 86
    },
    {
      "midi": 62,
      "hit": false,
      "t": 120020.83333333334,
      "d": 479.1666666666715,
      "v": 86
    },
    {
      "midi": 58,
      "hit": false,
      "t": 120520.83333333334,
      "d": 479.1666666666715,
      "v": 86
    },
    {
      "midi": 62,
      "hit": false,
      "t": 120520.83333333334,
      "d": 479.1666666666715,
      "v": 86
    },
    {
      "midi": 41,
      "hit": false,
      "t": 120770.83333333334,
      "d": 479.1666666666715,
      "v": 86
    },
    {
      "midi": 55,
      "hit": false,
      "t": 120770.83333333334,
      "d": 479.1666666666715,
      "v": 86
    },
    {
      "midi": 60,
      "hit": false,
      "t": 120770.83333333334,
      "d": 479.1666666666715,
      "v": 86
    },
    {
      "midi": 64,
      "hit": false,
      "t": 120770.83333333334,
      "d": 479.1666666666715,
      "v": 86
    },
    {
      "midi": 55,
      "hit": false,
      "t": 121270.83333333334,
      "d": 250,
      "v": 86
    },
    {
      "midi": 55,
      "hit": false,
      "t": 121520.83333333334,
      "d": 250,
      "v": 86
    },
    {
      "midi": 41,
      "hit": false,
      "t": 121520.83333333334,
      "d": 479.1666666666715,
      "v": 86
    },
    {
      "midi": 60,
      "hit": false,
      "t": 121520.83333333334,
      "d": 479.1666666666715,
      "v": 86
    },
    {
      "midi": 48,
      "hit": false,
      "t": 121770.83333333334,
      "d": 479.1666666666715,
      "v": 86
    },
    {
      "midi": 41,
      "hit": false,
      "t": 122020.83333333334,
      "d": 437.5,
      "v": 86
    },
    {
      "midi": 57,
      "hit": false,
      "t": 122520.83333333334,
      "d": 479.1666666666715,
      "v": 86
    },
    {
      "midi": 60,
      "hit": false,
      "t": 122520.83333333334,
      "d": 479.1666666666715,
      "v": 86
    },
    {
      "midi": 65,
      "hit": false,
      "t": 122520.83333333334,
      "d": 479.1666666666715,
      "v": 86
    },
    {
      "midi": 53,
      "hit": false,
      "t": 122770.83333333334,
      "d": 479.1666666666715,
      "v": 86
    },
    {
      "midi": 57,
      "hit": false,
      "t": 123270.83333333334,
      "d": 437.5,
      "v": 86
    },
    {
      "midi": 60,
      "hit": false,
      "t": 123270.83333333334,
      "d": 437.5,
      "v": 86
    },
    {
      "midi": 65,
      "hit": false,
      "t": 123270.83333333334,
      "d": 437.5,
      "v": 86
    },
    {
      "midi": 53,
      "hit": false,
      "t": 123520.83333333334,
      "d": 479.1666666666715,
      "v": 86
    },
    {
      "midi": 41,
      "hit": false,
      "t": 123770.83333333334,
      "d": 229.16666666667152,
      "v": 96
    },
    {
      "midi": 48,
      "hit": false,
      "t": 123770.83333333334,
      "d": 479.1666666666715,
      "v": 86
    },
    {
      "midi": 41,
      "hit": false,
      "t": 124020.83333333334,
      "d": 250,
      "v": 86
    },
    {
      "midi": 53,
      "hit": false,
      "t": 124020.83333333334,
      "d": 437.5,
      "v": 86
    },
    {
      "midi": 46,
      "hit": false,
      "t": 124020.83333333334,
      "d": 479.1666666666715,
      "v": 96
    },
    {
      "midi": 58,
      "hit": false,
      "t": 124020.83333333334,
      "d": 479.1666666666715,
      "v": 86
    },
    {
      "midi": 62,
      "hit": false,
      "t": 124020.83333333334,
      "d": 479.1666666666715,
      "v": 86
    },
    {
      "midi": 58,
      "hit": false,
      "t": 124520.83333333334,
      "d": 479.1666666666715,
      "v": 86
    },
    {
      "midi": 62,
      "hit": false,
      "t": 124520.83333333334,
      "d": 479.1666666666715,
      "v": 86
    },
    {
      "midi": 53,
      "hit": false,
      "t": 124770.83333333334,
      "d": 479.1666666666715,
      "v": 86
    },
    {
      "midi": 48,
      "hit": false,
      "t": 125020.83333333334,
      "d": 479.1666666666715,
      "v": 86
    },
    {
      "midi": 55,
      "hit": false,
      "t": 125020.83333333334,
      "d": 479.1666666666715,
      "v": 86
    },
    {
      "midi": 60,
      "hit": false,
      "t": 125020.83333333334,
      "d": 479.1666666666715,
      "v": 86
    },
    {
      "midi": 64,
      "hit": false,
      "t": 125020.83333333334,
      "d": 479.1666666666715,
      "v": 86
    },
    {
      "midi": 48,
      "hit": false,
      "t": 125520.83333333334,
      "d": 250,
      "v": 86
    },
    {
      "midi": 55,
      "hit": false,
      "t": 125520.83333333334,
      "d": 479.1666666666715,
      "v": 86
    },
    {
      "midi": 60,
      "hit": false,
      "t": 125520.83333333334,
      "d": 479.1666666666715,
      "v": 86
    },
    {
      "midi": 64,
      "hit": false,
      "t": 125520.83333333334,
      "d": 479.1666666666715,
      "v": 86
    },
    {
      "midi": 48,
      "hit": false,
      "t": 125770.83333333334,
      "d": 229.16666666667152,
      "v": 86
    },
    {
      "midi": 41,
      "hit": false,
      "t": 126020.83333333334,
      "d": 437.5,
      "v": 86
    },
    {
      "midi": 57,
      "hit": false,
      "t": 126520.83333333334,
      "d": 479.1666666666715,
      "v": 86
    },
    {
      "midi": 60,
      "hit": false,
      "t": 126520.83333333334,
      "d": 479.1666666666715,
      "v": 86
    },
    {
      "midi": 65,
      "hit": false,
      "t": 126520.83333333334,
      "d": 479.1666666666715,
      "v": 86
    },
    {
      "midi": 53,
      "hit": false,
      "t": 126770.83333333334,
      "d": 479.1666666666715,
      "v": 86
    },
    {
      "midi": 57,
      "hit": false,
      "t": 127270.83333333334,
      "d": 437.5,
      "v": 86
    },
    {
      "midi": 60,
      "hit": false,
      "t": 127270.83333333334,
      "d": 437.5,
      "v": 86
    },
    {
      "midi": 65,
      "hit": false,
      "t": 127270.83333333334,
      "d": 437.5,
      "v": 86
    },
    {
      "midi": 53,
      "hit": false,
      "t": 127520.83333333334,
      "d": 479.1666666666715,
      "v": 86
    },
    {
      "midi": 48,
      "hit": false,
      "t": 127770.83333333334,
      "d": 479.1666666666715,
      "v": 86
    },
    {
      "midi": 53,
      "hit": false,
      "t": 128020.83333333334,
      "d": 437.5,
      "v": 86
    },
    {
      "midi": 41,
      "hit": false,
      "t": 128020.83333333334,
      "d": 479.1666666666715,
      "v": 86
    },
    {
      "midi": 58,
      "hit": false,
      "t": 128020.83333333334,
      "d": 479.1666666666715,
      "v": 86
    },
    {
      "midi": 62,
      "hit": false,
      "t": 128020.83333333334,
      "d": 479.1666666666715,
      "v": 86
    },
    {
      "midi": 58,
      "hit": false,
      "t": 128520.83333333334,
      "d": 479.1666666666715,
      "v": 86
    },
    {
      "midi": 62,
      "hit": false,
      "t": 128520.83333333334,
      "d": 479.1666666666715,
      "v": 86
    },
    {
      "midi": 41,
      "hit": false,
      "t": 128770.83333333334,
      "d": 479.1666666666715,
      "v": 86
    },
    {
      "midi": 55,
      "hit": false,
      "t": 128770.83333333334,
      "d": 479.1666666666715,
      "v": 86
    },
    {
      "midi": 60,
      "hit": false,
      "t": 128770.83333333334,
      "d": 479.1666666666715,
      "v": 86
    },
    {
      "midi": 64,
      "hit": false,
      "t": 128770.83333333334,
      "d": 479.1666666666715,
      "v": 86
    },
    {
      "midi": 55,
      "hit": false,
      "t": 129270.83333333334,
      "d": 250,
      "v": 86
    },
    {
      "midi": 55,
      "hit": false,
      "t": 129520.83333333334,
      "d": 250,
      "v": 86
    },
    {
      "midi": 41,
      "hit": false,
      "t": 129520.83333333334,
      "d": 479.1666666666715,
      "v": 86
    },
    {
      "midi": 60,
      "hit": false,
      "t": 129520.83333333334,
      "d": 479.1666666666715,
      "v": 86
    },
    {
      "midi": 48,
      "hit": false,
      "t": 129770.83333333334,
      "d": 479.1666666666715,
      "v": 86
    },
    {
      "midi": 41,
      "hit": false,
      "t": 130020.83333333334,
      "d": 437.5,
      "v": 86
    },
    {
      "midi": 57,
      "hit": false,
      "t": 130520.83333333334,
      "d": 479.1666666666715,
      "v": 86
    },
    {
      "midi": 60,
      "hit": false,
      "t": 130520.83333333334,
      "d": 479.1666666666715,
      "v": 86
    },
    {
      "midi": 65,
      "hit": false,
      "t": 130520.83333333334,
      "d": 479.1666666666715,
      "v": 86
    },
    {
      "midi": 53,
      "hit": false,
      "t": 130770.83333333334,
      "d": 479.16666666665697,
      "v": 86
    },
    {
      "midi": 57,
      "hit": false,
      "t": 131270.83333333334,
      "d": 437.5,
      "v": 86
    },
    {
      "midi": 60,
      "hit": false,
      "t": 131270.83333333334,
      "d": 437.5,
      "v": 86
    },
    {
      "midi": 65,
      "hit": false,
      "t": 131270.83333333334,
      "d": 437.5,
      "v": 86
    },
    {
      "midi": 53,
      "hit": false,
      "t": 131520.83333333334,
      "d": 479.16666666665697,
      "v": 86
    },
    {
      "midi": 41,
      "hit": false,
      "t": 131770.83333333334,
      "d": 229.16666666665697,
      "v": 96
    },
    {
      "midi": 48,
      "hit": false,
      "t": 131770.83333333334,
      "d": 479.16666666665697,
      "v": 86
    },
    {
      "midi": 41,
      "hit": false,
      "t": 132020.83333333334,
      "d": 250,
      "v": 86
    },
    {
      "midi": 53,
      "hit": false,
      "t": 132020.83333333334,
      "d": 437.5,
      "v": 86
    },
    {
      "midi": 46,
      "hit": false,
      "t": 132020.83333333334,
      "d": 479.16666666665697,
      "v": 96
    },
    {
      "midi": 58,
      "hit": false,
      "t": 132020.83333333334,
      "d": 479.16666666665697,
      "v": 86
    },
    {
      "midi": 62,
      "hit": false,
      "t": 132020.83333333334,
      "d": 479.16666666665697,
      "v": 86
    },
    {
      "midi": 58,
      "hit": false,
      "t": 132520.83333333334,
      "d": 479.16666666665697,
      "v": 86
    },
    {
      "midi": 62,
      "hit": false,
      "t": 132520.83333333334,
      "d": 479.16666666665697,
      "v": 86
    },
    {
      "midi": 53,
      "hit": false,
      "t": 132770.83333333334,
      "d": 479.16666666665697,
      "v": 86
    },
    {
      "midi": 48,
      "hit": false,
      "t": 133020.83333333334,
      "d": 479.16666666665697,
      "v": 86
    },
    {
      "midi": 55,
      "hit": false,
      "t": 133020.83333333334,
      "d": 479.16666666665697,
      "v": 86
    },
    {
      "midi": 60,
      "hit": false,
      "t": 133020.83333333334,
      "d": 479.16666666665697,
      "v": 86
    },
    {
      "midi": 64,
      "hit": false,
      "t": 133020.83333333334,
      "d": 479.16666666665697,
      "v": 86
    },
    {
      "midi": 48,
      "hit": false,
      "t": 133520.83333333334,
      "d": 250,
      "v": 86
    },
    {
      "midi": 55,
      "hit": false,
      "t": 133520.83333333334,
      "d": 479.16666666665697,
      "v": 86
    },
    {
      "midi": 60,
      "hit": false,
      "t": 133520.83333333334,
      "d": 479.16666666665697,
      "v": 86
    },
    {
      "midi": 64,
      "hit": false,
      "t": 133520.83333333334,
      "d": 479.16666666665697,
      "v": 86
    },
    {
      "midi": 48,
      "hit": false,
      "t": 133770.83333333334,
      "d": 229.16666666665697,
      "v": 86
    },
    {
      "midi": 41,
      "hit": false,
      "t": 134020.83333333334,
      "d": 437.5,
      "v": 91
    },
    {
      "midi": 81,
      "hit": false,
      "t": 134020.83333333334,
      "d": 479.16666666665697,
      "v": 91
    },
    {
      "midi": 84,
      "hit": false,
      "t": 134020.83333333334,
      "d": 479.16666666665697,
      "v": 91
    },
    {
      "midi": 60,
      "hit": false,
      "t": 134520.83333333334,
      "d": 250,
      "v": 91
    },
    {
      "midi": 65,
      "hit": false,
      "t": 134520.83333333334,
      "d": 250,
      "v": 91
    },
    {
      "midi": 69,
      "hit": false,
      "t": 134520.83333333334,
      "d": 250,
      "v": 91
    },
    {
      "midi": 60,
      "hit": false,
      "t": 134770.83333333334,
      "d": 250,
      "v": 91
    },
    {
      "midi": 65,
      "hit": false,
      "t": 134770.83333333334,
      "d": 250,
      "v": 91
    },
    {
      "midi": 69,
      "hit": false,
      "t": 134770.83333333334,
      "d": 250,
      "v": 91
    },
    {
      "midi": 81,
      "hit": false,
      "t": 135520.83333333334,
      "d": 250,
      "v": 91
    },
    {
      "midi": 84,
      "hit": false,
      "t": 135520.83333333334,
      "d": 250,
      "v": 91
    },
    {
      "midi": 60,
      "hit": false,
      "t": 135520.83333333334,
      "d": 479.16666666665697,
      "v": 91
    },
    {
      "midi": 65,
      "hit": false,
      "t": 135520.83333333334,
      "d": 479.16666666665697,
      "v": 91
    },
    {
      "midi": 69,
      "hit": false,
      "t": 135520.83333333334,
      "d": 479.16666666665697,
      "v": 91
    },
    {
      "midi": 81,
      "hit": false,
      "t": 135770.83333333334,
      "d": 229.16666666665697,
      "v": 91
    },
    {
      "midi": 84,
      "hit": false,
      "t": 135770.83333333334,
      "d": 229.16666666665697,
      "v": 91
    },
    {
      "midi": 81,
      "hit": false,
      "t": 136020.83333333334,
      "d": 229.16666666665697,
      "v": 91
    },
    {
      "midi": 50,
      "hit": false,
      "t": 136020.83333333334,
      "d": 479.16666666665697,
      "v": 91
    },
    {
      "midi": 86,
      "hit": false,
      "t": 136020.83333333334,
      "d": 479.16666666665697,
      "v": 91
    },
    {
      "midi": 62,
      "hit": false,
      "t": 136520.83333333334,
      "d": 250,
      "v": 91
    },
    {
      "midi": 65,
      "hit": false,
      "t": 136520.83333333334,
      "d": 250,
      "v": 91
    },
    {
      "midi": 69,
      "hit": false,
      "t": 136520.83333333334,
      "d": 250,
      "v": 91
    },
    {
      "midi": 62,
      "hit": false,
      "t": 136770.83333333334,
      "d": 250,
      "v": 91
    },
    {
      "midi": 65,
      "hit": false,
      "t": 136770.83333333334,
      "d": 250,
      "v": 91
    },
    {
      "midi": 69,
      "hit": false,
      "t": 136770.83333333334,
      "d": 250,
      "v": 91
    },
    {
      "midi": 81,
      "hit": false,
      "t": 137520.83333333334,
      "d": 250,
      "v": 91
    },
    {
      "midi": 86,
      "hit": false,
      "t": 137520.83333333334,
      "d": 250,
      "v": 91
    },
    {
      "midi": 62,
      "hit": false,
      "t": 137520.83333333334,
      "d": 479.16666666665697,
      "v": 91
    },
    {
      "midi": 65,
      "hit": false,
      "t": 137520.83333333334,
      "d": 479.16666666665697,
      "v": 91
    },
    {
      "midi": 69,
      "hit": false,
      "t": 137520.83333333334,
      "d": 479.16666666665697,
      "v": 91
    },
    {
      "midi": 81,
      "hit": false,
      "t": 137770.83333333334,
      "d": 229.16666666665697,
      "v": 91
    },
    {
      "midi": 86,
      "hit": false,
      "t": 137770.83333333334,
      "d": 229.16666666665697,
      "v": 91
    },
    {
      "midi": 81,
      "hit": false,
      "t": 138020.83333333334,
      "d": 229.16666666665697,
      "v": 91
    },
    {
      "midi": 41,
      "hit": false,
      "t": 138020.83333333334,
      "d": 437.5,
      "v": 91
    },
    {
      "midi": 84,
      "hit": false,
      "t": 138020.83333333334,
      "d": 479.16666666665697,
      "v": 91
    },
    {
      "midi": 60,
      "hit": false,
      "t": 138520.83333333334,
      "d": 250,
      "v": 91
    },
    {
      "midi": 65,
      "hit": false,
      "t": 138520.83333333334,
      "d": 250,
      "v": 91
    },
    {
      "midi": 69,
      "hit": false,
      "t": 138520.83333333334,
      "d": 250,
      "v": 91
    },
    {
      "midi": 60,
      "hit": false,
      "t": 138770.83333333334,
      "d": 250,
      "v": 91
    },
    {
      "midi": 65,
      "hit": false,
      "t": 138770.83333333334,
      "d": 250,
      "v": 91
    },
    {
      "midi": 69,
      "hit": false,
      "t": 138770.83333333334,
      "d": 250,
      "v": 91
    },
    {
      "midi": 81,
      "hit": false,
      "t": 139520.83333333334,
      "d": 250,
      "v": 91
    },
    {
      "midi": 84,
      "hit": false,
      "t": 139520.83333333334,
      "d": 250,
      "v": 91
    },
    {
      "midi": 60,
      "hit": false,
      "t": 139520.83333333334,
      "d": 479.16666666665697,
      "v": 91
    },
    {
      "midi": 65,
      "hit": false,
      "t": 139520.83333333334,
      "d": 479.16666666665697,
      "v": 91
    },
    {
      "midi": 81,
      "hit": false,
      "t": 139770.83333333334,
      "d": 229.16666666665697,
      "v": 91
    },
    {
      "midi": 84,
      "hit": false,
      "t": 139770.83333333334,
      "d": 229.16666666665697,
      "v": 91
    },
    {
      "midi": 81,
      "hit": false,
      "t": 140020.83333333334,
      "d": 229.16666666665697,
      "v": 91
    },
    {
      "midi": 50,
      "hit": false,
      "t": 140020.83333333334,
      "d": 479.16666666665697,
      "v": 91
    },
    {
      "midi": 86,
      "hit": false,
      "t": 140020.83333333334,
      "d": 479.16666666665697,
      "v": 91
    },
    {
      "midi": 62,
      "hit": false,
      "t": 140520.83333333334,
      "d": 229.16666666665697,
      "v": 91
    },
    {
      "midi": 65,
      "hit": false,
      "t": 140520.83333333334,
      "d": 229.16666666665697,
      "v": 91
    },
    {
      "midi": 69,
      "hit": false,
      "t": 140520.83333333334,
      "d": 229.16666666665697,
      "v": 91
    },
    {
      "midi": 50,
      "hit": false,
      "t": 140770.83333333334,
      "d": 1104.166666666657,
      "v": 91
    },
    {
      "midi": 62,
      "hit": false,
      "t": 140770.83333333334,
      "d": 1104.166666666657,
      "v": 91
    },
    {
      "midi": 65,
      "hit": false,
      "t": 140770.83333333334,
      "d": 1104.166666666657,
      "v": 91
    },
    {
      "midi": 69,
      "hit": false,
      "t": 140770.83333333334,
      "d": 1104.166666666657,
      "v": 91
    },
    {
      "midi": 45,
      "hit": false,
      "t": 142020.83333333334,
      "d": 479.16666666665697,
      "v": 91
    },
    {
      "midi": 60,
      "hit": false,
      "t": 142020.83333333334,
      "d": 479.16666666665697,
      "v": 91
    },
    {
      "midi": 64,
      "hit": false,
      "t": 142020.83333333334,
      "d": 479.16666666665697,
      "v": 91
    },
    {
      "midi": 67,
      "hit": false,
      "t": 142020.83333333334,
      "d": 479.16666666665697,
      "v": 91
    },
    {
      "midi": 45,
      "hit": false,
      "t": 143020.83333333334,
      "d": 479.16666666665697,
      "v": 91
    },
    {
      "midi": 46,
      "hit": false,
      "t": 144020.83333333334,
      "d": 479.16666666665697,
      "v": 91
    },
    {
      "midi": 53,
      "hit": false,
      "t": 144520.83333333334,
      "d": 479.16666666665697,
      "v": 91
    },
    {
      "midi": 58,
      "hit": false,
      "t": 144520.83333333334,
      "d": 479.16666666665697,
      "v": 91
    },
    {
      "midi": 62,
      "hit": false,
      "t": 144520.83333333334,
      "d": 479.16666666665697,
      "v": 91
    },
    {
      "midi": 55,
      "hit": false,
      "t": 144770.83333333334,
      "d": 479.16666666665697,
      "v": 91
    },
    {
      "midi": 60,
      "hit": false,
      "t": 144770.83333333334,
      "d": 479.16666666665697,
      "v": 91
    },
    {
      "midi": 64,
      "hit": false,
      "t": 144770.83333333334,
      "d": 479.16666666665697,
      "v": 91
    },
    {
      "midi": 53,
      "hit": false,
      "t": 145270.83333333334,
      "d": 479.16666666665697,
      "v": 91
    },
    {
      "midi": 58,
      "hit": false,
      "t": 145270.83333333334,
      "d": 479.16666666665697,
      "v": 91
    },
    {
      "midi": 62,
      "hit": false,
      "t": 145270.83333333334,
      "d": 479.16666666665697,
      "v": 91
    },
    {
      "midi": 55,
      "hit": false,
      "t": 145520.83333333334,
      "d": 479.16666666665697,
      "v": 91
    },
    {
      "midi": 60,
      "hit": false,
      "t": 145520.83333333334,
      "d": 479.16666666665697,
      "v": 91
    },
    {
      "midi": 64,
      "hit": false,
      "t": 145520.83333333334,
      "d": 479.16666666665697,
      "v": 91
    },
    {
      "midi": 46,
      "hit": false,
      "t": 146020.83333333334,
      "d": 479.16666666665697,
      "v": 91
    },
    {
      "midi": 53,
      "hit": false,
      "t": 146020.83333333334,
      "d": 479.16666666665697,
      "v": 91
    },
    {
      "midi": 58,
      "hit": false,
      "t": 146020.83333333334,
      "d": 479.16666666665697,
      "v": 91
    },
    {
      "midi": 62,
      "hit": false,
      "t": 146020.83333333334,
      "d": 479.16666666665697,
      "v": 91
    },
    {
      "midi": 48,
      "hit": false,
      "t": 146270.83333333334,
      "d": 479.16666666665697,
      "v": 91
    },
    {
      "midi": 55,
      "hit": false,
      "t": 146270.83333333334,
      "d": 479.16666666665697,
      "v": 91
    },
    {
      "midi": 60,
      "hit": false,
      "t": 146270.83333333334,
      "d": 479.16666666665697,
      "v": 91
    },
    {
      "midi": 64,
      "hit": false,
      "t": 146270.83333333334,
      "d": 479.16666666665697,
      "v": 91
    },
    {
      "midi": 46,
      "hit": false,
      "t": 146770.83333333334,
      "d": 479.16666666665697,
      "v": 91
    },
    {
      "midi": 53,
      "hit": false,
      "t": 146770.83333333334,
      "d": 479.16666666665697,
      "v": 91
    },
    {
      "midi": 58,
      "hit": false,
      "t": 146770.83333333334,
      "d": 479.16666666665697,
      "v": 91
    },
    {
      "midi": 62,
      "hit": false,
      "t": 146770.83333333334,
      "d": 479.16666666665697,
      "v": 91
    },
    {
      "midi": 55,
      "hit": false,
      "t": 147270.83333333334,
      "d": 437.5,
      "v": 91
    },
    {
      "midi": 60,
      "hit": false,
      "t": 147270.83333333334,
      "d": 437.5,
      "v": 91
    },
    {
      "midi": 64,
      "hit": false,
      "t": 147270.83333333334,
      "d": 437.5,
      "v": 91
    },
    {
      "midi": 48,
      "hit": false,
      "t": 147270.83333333334,
      "d": 479.16666666665697,
      "v": 91
    },
    {
      "midi": 53,
      "hit": false,
      "t": 147520.83333333334,
      "d": 437.5,
      "v": 91
    },
    {
      "midi": 58,
      "hit": false,
      "t": 147520.83333333334,
      "d": 437.5,
      "v": 91
    },
    {
      "midi": 62,
      "hit": false,
      "t": 147520.83333333334,
      "d": 437.5,
      "v": 91
    },
    {
      "midi": 46,
      "hit": false,
      "t": 147520.83333333334,
      "d": 479.16666666665697,
      "v": 91
    },
    {
      "midi": 48,
      "hit": false,
      "t": 147770.83333333334,
      "d": 229.16666666665697,
      "v": 91
    },
    {
      "midi": 55,
      "hit": false,
      "t": 147770.83333333334,
      "d": 437.5,
      "v": 91
    },
    {
      "midi": 60,
      "hit": false,
      "t": 147770.83333333334,
      "d": 437.5,
      "v": 91
    },
    {
      "midi": 64,
      "hit": false,
      "t": 147770.83333333334,
      "d": 437.5,
      "v": 91
    },
    {
      "midi": 48,
      "hit": false,
      "t": 148020.83333333334,
      "d": 250,
      "v": 91
    },
    {
      "midi": 53,
      "hit": false,
      "t": 148020.83333333334,
      "d": 479.16666666665697,
      "v": 91
    },
    {
      "midi": 57,
      "hit": false,
      "t": 148020.83333333334,
      "d": 479.16666666665697,
      "v": 91
    },
    {
      "midi": 43,
      "hit": false,
      "t": 148020.83333333334,
      "d": 1750,
      "v": 91
    },
    {
      "midi": 59,
      "hit": false,
      "t": 148270.83333333334,
      "d": 437.5,
      "v": 91
    },
    {
      "midi": 50,
      "hit": false,
      "t": 148270.83333333334,
      "d": 479.16666666665697,
      "v": 91
    },
    {
      "midi": 55,
      "hit": false,
      "t": 148270.83333333334,
      "d": 479.16666666665697,
      "v": 91
    },
    {
      "midi": 48,
      "hit": false,
      "t": 148520.83333333334,
      "d": 479.16666666665697,
      "v": 91
    },
    {
      "midi": 53,
      "hit": false,
      "t": 148520.83333333334,
      "d": 479.16666666665697,
      "v": 91
    },
    {
      "midi": 57,
      "hit": false,
      "t": 148520.83333333334,
      "d": 479.16666666665697,
      "v": 91
    },
    {
      "midi": 50,
      "hit": false,
      "t": 148770.83333333334,
      "d": 479.16666666665697,
      "v": 91
    },
    {
      "midi": 55,
      "hit": false,
      "t": 148770.83333333334,
      "d": 479.16666666665697,
      "v": 91
    },
    {
      "midi": 59,
      "hit": false,
      "t": 148770.83333333334,
      "d": 479.16666666665697,
      "v": 91
    },
    {
      "midi": 55,
      "hit": false,
      "t": 149270.83333333334,
      "d": 437.5,
      "v": 91
    },
    {
      "midi": 59,
      "hit": false,
      "t": 149270.83333333334,
      "d": 437.5,
      "v": 91
    },
    {
      "midi": 50,
      "hit": false,
      "t": 149270.83333333334,
      "d": 479.16666666665697,
      "v": 91
    },
    {
      "midi": 43,
      "hit": false,
      "t": 149770.83333333334,
      "d": 229.16666666665697,
      "v": 91
    },
    {
      "midi": 50,
      "hit": false,
      "t": 149770.83333333334,
      "d": 229.16666666665697,
      "v": 91
    },
    {
      "midi": 55,
      "hit": false,
      "t": 149770.83333333334,
      "d": 479.16666666665697,
      "v": 91
    },
    {
      "midi": 59,
      "hit": false,
      "t": 149770.83333333334,
      "d": 479.16666666665697,
      "v": 91
    },
    {
      "midi": 50,
      "hit": false,
      "t": 150020.83333333334,
      "d": 250,
      "v": 91
    },
    {
      "midi": 60,
      "hit": false,
      "t": 150020.83333333334,
      "d": 250,
      "v": 91
    },
    {
      "midi": 53,
      "hit": false,
      "t": 150020.83333333334,
      "d": 479.16666666665697,
      "v": 91
    },
    {
      "midi": 43,
      "hit": false,
      "t": 150020.83333333334,
      "d": 1500,
      "v": 91
    },
    {
      "midi": 50,
      "hit": false,
      "t": 150270.83333333334,
      "d": 229.16666666665697,
      "v": 91
    },
    {
      "midi": 60,
      "hit": false,
      "t": 150270.83333333334,
      "d": 250,
      "v": 91
    },
    {
      "midi": 55,
      "hit": false,
      "t": 150270.83333333334,
      "d": 479.16666666665697,
      "v": 91
    },
    {
      "midi": 50,
      "hit": false,
      "t": 150520.83333333334,
      "d": 229.16666666665697,
      "v": 91
    },
    {
      "midi": 60,
      "hit": false,
      "t": 150520.83333333334,
      "d": 229.16666666665697,
      "v": 91
    },
    {
      "midi": 53,
      "hit": false,
      "t": 150520.83333333334,
      "d": 479.16666666665697,
      "v": 91
    },
    {
      "midi": 50,
      "hit": false,
      "t": 150770.83333333334,
      "d": 229.16666666665697,
      "v": 91
    },
    {
      "midi": 55,
      "hit": false,
      "t": 150770.83333333334,
      "d": 479.16666666665697,
      "v": 91
    },
    {
      "midi": 59,
      "hit": false,
      "t": 150770.83333333334,
      "d": 479.16666666665697,
      "v": 91
    },
    {
      "midi": 41,
      "hit": false,
      "t": 151270.83333333334,
      "d": 479.16666666665697,
      "v": 91
    },
    {
      "midi": 48,
      "hit": false,
      "t": 151270.83333333334,
      "d": 479.16666666665697,
      "v": 91
    },
    {
      "midi": 53,
      "hit": false,
      "t": 151270.83333333334,
      "d": 479.16666666665697,
      "v": 91
    },
    {
      "midi": 57,
      "hit": false,
      "t": 151270.83333333334,
      "d": 479.16666666665697,
      "v": 91
    },
    {
      "midi": 43,
      "hit": false,
      "t": 151520.83333333334,
      "d": 479.16666666665697,
      "v": 91
    },
    {
      "midi": 50,
      "hit": false,
      "t": 151520.83333333334,
      "d": 479.16666666665697,
      "v": 91
    },
    {
      "midi": 55,
      "hit": false,
      "t": 151520.83333333334,
      "d": 479.16666666665697,
      "v": 91
    },
    {
      "midi": 59,
      "hit": false,
      "t": 151520.83333333334,
      "d": 479.16666666665697,
      "v": 91
    },
    {
      "midi": 48,
      "hit": false,
      "t": 152020.83333333334,
      "d": 437.5,
      "v": 91
    },
    {
      "midi": 57,
      "hit": false,
      "t": 152020.83333333334,
      "d": 479.16666666665697,
      "v": 91
    },
    {
      "midi": 60,
      "hit": false,
      "t": 152020.83333333334,
      "d": 479.16666666665697,
      "v": 91
    },
    {
      "midi": 65,
      "hit": false,
      "t": 152020.83333333334,
      "d": 479.16666666665697,
      "v": 91
    },
    {
      "midi": 57,
      "hit": false,
      "t": 152520.83333333334,
      "d": 250,
      "v": 91
    },
    {
      "midi": 60,
      "hit": false,
      "t": 152520.83333333334,
      "d": 250,
      "v": 91
    },
    {
      "midi": 65,
      "hit": false,
      "t": 152520.83333333334,
      "d": 437.5,
      "v": 91
    },
    {
      "midi": 57,
      "hit": false,
      "t": 152770.83333333334,
      "d": 250,
      "v": 91
    },
    {
      "midi": 60,
      "hit": false,
      "t": 152770.83333333334,
      "d": 250,
      "v": 91
    },
    {
      "midi": 48,
      "hit": false,
      "t": 152770.83333333334,
      "d": 479.16666666665697,
      "v": 91
    },
    {
      "midi": 64,
      "hit": false,
      "t": 152770.83333333334,
      "d": 479.16666666665697,
      "v": 91
    },
    {
      "midi": 48,
      "hit": false,
      "t": 153270.83333333334,
      "d": 479.16666666665697,
      "v": 91
    },
    {
      "midi": 57,
      "hit": false,
      "t": 153520.83333333334,
      "d": 250,
      "v": 91
    },
    {
      "midi": 60,
      "hit": false,
      "t": 153520.83333333334,
      "d": 250,
      "v": 91
    },
    {
      "midi": 64,
      "hit": false,
      "t": 153520.83333333334,
      "d": 250,
      "v": 91
    },
    {
      "midi": 57,
      "hit": false,
      "t": 153770.83333333334,
      "d": 229.16666666665697,
      "v": 91
    },
    {
      "midi": 60,
      "hit": false,
      "t": 153770.83333333334,
      "d": 229.16666666665697,
      "v": 91
    },
    {
      "midi": 64,
      "hit": false,
      "t": 153770.83333333334,
      "d": 229.16666666665697,
      "v": 91
    },
    {
      "midi": 48,
      "hit": false,
      "t": 154020.83333333334,
      "d": 479.16666666665697,
      "v": 91
    },
    {
      "midi": 55,
      "hit": false,
      "t": 154020.83333333334,
      "d": 479.16666666665697,
      "v": 91
    },
    {
      "midi": 58,
      "hit": false,
      "t": 154020.83333333334,
      "d": 479.16666666665697,
      "v": 91
    },
    {
      "midi": 62,
      "hit": false,
      "t": 154020.83333333334,
      "d": 479.16666666665697,
      "v": 91
    },
    {
      "midi": 58,
      "hit": false,
      "t": 154520.83333333334,
      "d": 250,
      "v": 91
    },
    {
      "midi": 62,
      "hit": false,
      "t": 154520.83333333334,
      "d": 250,
      "v": 91
    },
    {
      "midi": 55,
      "hit": false,
      "t": 154520.83333333334,
      "d": 437.5,
      "v": 91
    },
    {
      "midi": 58,
      "hit": false,
      "t": 154770.83333333334,
      "d": 250,
      "v": 91
    },
    {
      "midi": 62,
      "hit": false,
      "t": 154770.83333333334,
      "d": 250,
      "v": 91
    },
    {
      "midi": 48,
      "hit": false,
      "t": 154770.83333333334,
      "d": 437.5,
      "v": 91
    },
    {
      "midi": 53,
      "hit": false,
      "t": 154770.83333333334,
      "d": 437.5,
      "v": 91
    },
    {
      "midi": 53,
      "hit": false,
      "t": 155270.83333333334,
      "d": 250,
      "v": 91
    },
    {
      "midi": 48,
      "hit": false,
      "t": 155270.83333333334,
      "d": 437.5,
      "v": 91
    },
    {
      "midi": 57,
      "hit": false,
      "t": 155270.83333333334,
      "d": 437.5,
      "v": 91
    },
    {
      "midi": 60,
      "hit": false,
      "t": 155270.83333333334,
      "d": 437.5,
      "v": 91
    },
    {
      "midi": 53,
      "hit": false,
      "t": 155520.83333333334,
      "d": 250,
      "v": 91
    },
    {
      "midi": 58,
      "hit": false,
      "t": 155520.83333333334,
      "d": 479.16666666665697,
      "v": 91
    },
    {
      "midi": 62,
      "hit": false,
      "t": 155520.83333333334,
      "d": 479.16666666665697,
      "v": 91
    },
    {
      "midi": 48,
      "hit": false,
      "t": 156020.83333333334,
      "d": 437.5,
      "v": 91
    },
    {
      "midi": 57,
      "hit": false,
      "t": 156020.83333333334,
      "d": 479.16666666665697,
      "v": 91
    },
    {
      "midi": 60,
      "hit": false,
      "t": 156020.83333333334,
      "d": 479.16666666665697,
      "v": 91
    },
    {
      "midi": 65,
      "hit": false,
      "t": 156020.83333333334,
      "d": 479.16666666665697,
      "v": 91
    },
    {
      "midi": 57,
      "hit": false,
      "t": 156520.83333333334,
      "d": 250,
      "v": 91
    },
    {
      "midi": 60,
      "hit": false,
      "t": 156520.83333333334,
      "d": 250,
      "v": 91
    },
    {
      "midi": 65,
      "hit": false,
      "t": 156520.83333333334,
      "d": 437.5,
      "v": 91
    },
    {
      "midi": 57,
      "hit": false,
      "t": 156770.83333333334,
      "d": 250,
      "v": 91
    },
    {
      "midi": 60,
      "hit": false,
      "t": 156770.83333333334,
      "d": 250,
      "v": 91
    },
    {
      "midi": 48,
      "hit": false,
      "t": 156770.83333333334,
      "d": 479.16666666665697,
      "v": 91
    },
    {
      "midi": 64,
      "hit": false,
      "t": 156770.83333333334,
      "d": 479.16666666665697,
      "v": 91
    },
    {
      "midi": 48,
      "hit": false,
      "t": 157270.83333333334,
      "d": 479.16666666665697,
      "v": 91
    },
    {
      "midi": 57,
      "hit": false,
      "t": 157520.83333333334,
      "d": 250,
      "v": 91
    },
    {
      "midi": 60,
      "hit": false,
      "t": 157520.83333333334,
      "d": 250,
      "v": 91
    },
    {
      "midi": 64,
      "hit": false,
      "t": 157520.83333333334,
      "d": 250,
      "v": 91
    },
    {
      "midi": 57,
      "hit": false,
      "t": 157770.83333333334,
      "d": 229.16666666665697,
      "v": 91
    },
    {
      "midi": 60,
      "hit": false,
      "t": 157770.83333333334,
      "d": 229.16666666665697,
      "v": 91
    },
    {
      "midi": 64,
      "hit": false,
      "t": 157770.83333333334,
      "d": 229.16666666665697,
      "v": 91
    },
    {
      "midi": 48,
      "hit": false,
      "t": 158020.83333333334,
      "d": 479.16666666665697,
      "v": 91
    },
    {
      "midi": 55,
      "hit": false,
      "t": 158020.83333333334,
      "d": 479.16666666665697,
      "v": 91
    },
    {
      "midi": 58,
      "hit": false,
      "t": 158020.83333333334,
      "d": 479.16666666665697,
      "v": 91
    },
    {
      "midi": 62,
      "hit": false,
      "t": 158020.83333333334,
      "d": 479.16666666665697,
      "v": 91
    },
    {
      "midi": 58,
      "hit": false,
      "t": 158520.83333333334,
      "d": 250,
      "v": 91
    },
    {
      "midi": 62,
      "hit": false,
      "t": 158520.83333333334,
      "d": 250,
      "v": 91
    },
    {
      "midi": 55,
      "hit": false,
      "t": 158520.83333333334,
      "d": 437.5,
      "v": 91
    },
    {
      "midi": 58,
      "hit": false,
      "t": 158770.83333333334,
      "d": 250,
      "v": 91
    },
    {
      "midi": 62,
      "hit": false,
      "t": 158770.83333333334,
      "d": 250,
      "v": 91
    },
    {
      "midi": 48,
      "hit": false,
      "t": 158770.83333333334,
      "d": 437.5,
      "v": 91
    },
    {
      "midi": 53,
      "hit": false,
      "t": 158770.83333333334,
      "d": 437.5,
      "v": 91
    },
    {
      "midi": 53,
      "hit": false,
      "t": 159270.83333333334,
      "d": 250,
      "v": 91
    },
    {
      "midi": 48,
      "hit": false,
      "t": 159270.83333333334,
      "d": 437.5,
      "v": 91
    },
    {
      "midi": 57,
      "hit": false,
      "t": 159270.83333333334,
      "d": 437.5,
      "v": 91
    },
    {
      "midi": 60,
      "hit": false,
      "t": 159270.83333333334,
      "d": 437.5,
      "v": 91
    },
    {
      "midi": 53,
      "hit": false,
      "t": 159520.83333333334,
      "d": 250,
      "v": 91
    },
    {
      "midi": 58,
      "hit": false,
      "t": 159520.83333333334,
      "d": 479.16666666665697,
      "v": 91
    },
    {
      "midi": 62,
      "hit": false,
      "t": 159520.83333333334,
      "d": 479.16666666665697,
      "v": 91
    },
    {
      "midi": 48,
      "hit": false,
      "t": 160020.83333333334,
      "d": 437.5,
      "v": 91
    },
    {
      "midi": 57,
      "hit": false,
      "t": 160020.83333333334,
      "d": 479.16666666665697,
      "v": 91
    },
    {
      "midi": 60,
      "hit": false,
      "t": 160020.83333333334,
      "d": 479.16666666665697,
      "v": 91
    },
    {
      "midi": 65,
      "hit": false,
      "t": 160020.83333333334,
      "d": 479.16666666665697,
      "v": 91
    },
    {
      "midi": 57,
      "hit": false,
      "t": 160520.83333333334,
      "d": 250,
      "v": 91
    },
    {
      "midi": 60,
      "hit": false,
      "t": 160520.83333333334,
      "d": 250,
      "v": 91
    },
    {
      "midi": 65,
      "hit": false,
      "t": 160520.83333333334,
      "d": 437.5,
      "v": 91
    },
    {
      "midi": 57,
      "hit": false,
      "t": 160770.83333333334,
      "d": 250,
      "v": 91
    },
    {
      "midi": 60,
      "hit": false,
      "t": 160770.83333333334,
      "d": 250,
      "v": 91
    },
    {
      "midi": 48,
      "hit": false,
      "t": 160770.83333333334,
      "d": 479.16666666665697,
      "v": 91
    },
    {
      "midi": 64,
      "hit": false,
      "t": 160770.83333333334,
      "d": 479.16666666665697,
      "v": 91
    },
    {
      "midi": 48,
      "hit": false,
      "t": 161270.83333333334,
      "d": 479.16666666665697,
      "v": 91
    },
    {
      "midi": 57,
      "hit": false,
      "t": 161520.83333333334,
      "d": 250,
      "v": 91
    },
    {
      "midi": 60,
      "hit": false,
      "t": 161520.83333333334,
      "d": 250,
      "v": 91
    },
    {
      "midi": 64,
      "hit": false,
      "t": 161520.83333333334,
      "d": 250,
      "v": 91
    },
    {
      "midi": 57,
      "hit": false,
      "t": 161770.83333333334,
      "d": 229.16666666665697,
      "v": 91
    },
    {
      "midi": 60,
      "hit": false,
      "t": 161770.83333333334,
      "d": 229.16666666665697,
      "v": 91
    },
    {
      "midi": 64,
      "hit": false,
      "t": 161770.83333333334,
      "d": 229.16666666665697,
      "v": 91
    },
    {
      "midi": 48,
      "hit": false,
      "t": 162020.83333333334,
      "d": 479.16666666665697,
      "v": 91
    },
    {
      "midi": 55,
      "hit": false,
      "t": 162020.83333333334,
      "d": 479.16666666665697,
      "v": 91
    },
    {
      "midi": 58,
      "hit": false,
      "t": 162020.83333333334,
      "d": 479.16666666665697,
      "v": 91
    },
    {
      "midi": 62,
      "hit": false,
      "t": 162020.83333333334,
      "d": 479.16666666665697,
      "v": 91
    },
    {
      "midi": 58,
      "hit": false,
      "t": 162520.83333333334,
      "d": 250,
      "v": 91
    },
    {
      "midi": 62,
      "hit": false,
      "t": 162520.83333333334,
      "d": 250,
      "v": 91
    },
    {
      "midi": 55,
      "hit": false,
      "t": 162520.83333333334,
      "d": 437.5,
      "v": 91
    },
    {
      "midi": 58,
      "hit": false,
      "t": 162770.83333333334,
      "d": 250,
      "v": 91
    },
    {
      "midi": 62,
      "hit": false,
      "t": 162770.83333333334,
      "d": 250,
      "v": 91
    },
    {
      "midi": 48,
      "hit": false,
      "t": 162770.83333333334,
      "d": 437.5,
      "v": 91
    },
    {
      "midi": 53,
      "hit": false,
      "t": 162770.83333333334,
      "d": 437.5,
      "v": 91
    },
    {
      "midi": 53,
      "hit": false,
      "t": 163270.83333333334,
      "d": 250,
      "v": 91
    },
    {
      "midi": 48,
      "hit": false,
      "t": 163270.83333333334,
      "d": 437.5,
      "v": 91
    },
    {
      "midi": 57,
      "hit": false,
      "t": 163270.83333333334,
      "d": 437.5,
      "v": 91
    },
    {
      "midi": 60,
      "hit": false,
      "t": 163270.83333333334,
      "d": 437.5,
      "v": 91
    },
    {
      "midi": 53,
      "hit": false,
      "t": 163520.83333333334,
      "d": 250,
      "v": 91
    },
    {
      "midi": 58,
      "hit": false,
      "t": 163520.83333333334,
      "d": 479.16666666665697,
      "v": 91
    },
    {
      "midi": 62,
      "hit": false,
      "t": 163520.83333333334,
      "d": 479.16666666665697,
      "v": 91
    },
    {
      "midi": 41,
      "hit": false,
      "t": 164020.83333333334,
      "d": 416.66666666665697,
      "v": 91
    },
    {
      "midi": 60,
      "hit": false,
      "t": 164020.83333333334,
      "d": 416.66666666665697,
      "v": 91
    },
    {
      "midi": 65,
      "hit": false,
      "t": 164020.83333333334,
      "d": 416.66666666665697,
      "v": 91
    },
    {
      "midi": 69,
      "hit": false,
      "t": 164020.83333333334,
      "d": 416.66666666665697,
      "v": 91
    },
    {
      "midi": 41,
      "hit": false,
      "t": 164520.83333333334,
      "d": 416.66666666665697,
      "v": 91
    },
    {
      "midi": 60,
      "hit": false,
      "t": 164770.83333333334,
      "d": 416.66666666665697,
      "v": 91
    },
    {
      "midi": 65,
      "hit": false,
      "t": 164770.83333333334,
      "d": 416.66666666665697,
      "v": 91
    },
    {
      "midi": 70,
      "hit": false,
      "t": 164770.83333333334,
      "d": 416.66666666665697,
      "v": 91
    },
    {
      "midi": 41,
      "hit": false,
      "t": 165270.83333333334,
      "d": 416.66666666665697,
      "v": 91
    },
    {
      "midi": 60,
      "hit": false,
      "t": 165520.83333333334,
      "d": 416.66666666665697,
      "v": 91
    },
    {
      "midi": 65,
      "hit": false,
      "t": 165520.83333333334,
      "d": 416.66666666665697,
      "v": 91
    },
    {
      "midi": 70,
      "hit": false,
      "t": 165520.83333333334,
      "d": 416.66666666665697,
      "v": 91
    },
    {
      "midi": 41,
      "hit": false,
      "t": 166020.83333333334,
      "d": 416.66666666665697,
      "v": 91
    },
    {
      "midi": 60,
      "hit": false,
      "t": 166020.83333333334,
      "d": 416.66666666665697,
      "v": 91
    },
    {
      "midi": 65,
      "hit": false,
      "t": 166020.83333333334,
      "d": 416.66666666665697,
      "v": 91
    },
    {
      "midi": 69,
      "hit": false,
      "t": 166020.83333333334,
      "d": 416.66666666665697,
      "v": 91
    },
    {
      "midi": 41,
      "hit": false,
      "t": 166520.83333333334,
      "d": 416.66666666665697,
      "v": 91
    },
    {
      "midi": 60,
      "hit": false,
      "t": 166770.83333333334,
      "d": 416.66666666665697,
      "v": 91
    },
    {
      "midi": 65,
      "hit": false,
      "t": 166770.83333333334,
      "d": 416.66666666665697,
      "v": 91
    },
    {
      "midi": 70,
      "hit": false,
      "t": 166770.83333333334,
      "d": 416.66666666665697,
      "v": 91
    },
    {
      "midi": 41,
      "hit": false,
      "t": 167270.83333333334,
      "d": 416.66666666665697,
      "v": 91
    },
    {
      "midi": 60,
      "hit": false,
      "t": 167520.83333333334,
      "d": 416.66666666665697,
      "v": 91
    },
    {
      "midi": 65,
      "hit": false,
      "t": 167520.83333333334,
      "d": 416.66666666665697,
      "v": 91
    },
    {
      "midi": 70,
      "hit": false,
      "t": 167520.83333333334,
      "d": 416.66666666665697,
      "v": 91
    },
    {
      "midi": 41,
      "hit": false,
      "t": 168020.83333333334,
      "d": 416.66666666665697,
      "v": 91
    },
    {
      "midi": 60,
      "hit": false,
      "t": 168020.83333333334,
      "d": 416.66666666665697,
      "v": 91
    },
    {
      "midi": 65,
      "hit": false,
      "t": 168020.83333333334,
      "d": 416.66666666665697,
      "v": 91
    },
    {
      "midi": 69,
      "hit": false,
      "t": 168020.83333333334,
      "d": 416.66666666665697,
      "v": 91
    },
    {
      "midi": 41,
      "hit": false,
      "t": 168520.83333333334,
      "d": 416.66666666665697,
      "v": 91
    },
    {
      "midi": 60,
      "hit": false,
      "t": 168770.83333333334,
      "d": 416.66666666665697,
      "v": 91
    },
    {
      "midi": 65,
      "hit": false,
      "t": 168770.83333333334,
      "d": 416.66666666665697,
      "v": 91
    },
    {
      "midi": 70,
      "hit": false,
      "t": 168770.83333333334,
      "d": 416.66666666665697,
      "v": 91
    },
    {
      "midi": 41,
      "hit": false,
      "t": 169270.83333333334,
      "d": 416.66666666665697,
      "v": 91
    },
    {
      "midi": 60,
      "hit": false,
      "t": 169520.83333333334,
      "d": 416.66666666665697,
      "v": 91
    },
    {
      "midi": 65,
      "hit": false,
      "t": 169520.83333333334,
      "d": 416.66666666665697,
      "v": 91
    },
    {
      "midi": 70,
      "hit": false,
      "t": 169520.83333333334,
      "d": 416.66666666665697,
      "v": 91
    },
    {
      "midi": 41,
      "hit": false,
      "t": 170020.83333333334,
      "d": 416.66666666665697,
      "v": 91
    },
    {
      "midi": 60,
      "hit": false,
      "t": 170020.83333333334,
      "d": 416.66666666665697,
      "v": 91
    },
    {
      "midi": 65,
      "hit": false,
      "t": 170020.83333333334,
      "d": 416.66666666665697,
      "v": 91
    },
    {
      "midi": 69,
      "hit": false,
      "t": 170020.83333333334,
      "d": 416.66666666665697,
      "v": 91
    },
    {
      "midi": 41,
      "hit": false,
      "t": 170520.83333333334,
      "d": 416.66666666665697,
      "v": 91
    },
    {
      "midi": 60,
      "hit": false,
      "t": 170770.83333333334,
      "d": 416.66666666665697,
      "v": 91
    },
    {
      "midi": 65,
      "hit": false,
      "t": 170770.83333333334,
      "d": 416.66666666665697,
      "v": 91
    },
    {
      "midi": 70,
      "hit": false,
      "t": 170770.83333333334,
      "d": 416.66666666665697,
      "v": 91
    },
    {
      "midi": 41,
      "hit": false,
      "t": 171270.83333333334,
      "d": 416.66666666665697,
      "v": 91
    },
    {
      "midi": 60,
      "hit": false,
      "t": 171520.83333333334,
      "d": 416.66666666665697,
      "v": 91
    },
    {
      "midi": 65,
      "hit": false,
      "t": 171520.83333333334,
      "d": 416.66666666665697,
      "v": 91
    },
    {
      "midi": 70,
      "hit": false,
      "t": 171520.83333333334,
      "d": 416.66666666665697,
      "v": 91
    },
    {
      "midi": 41,
      "hit": false,
      "t": 172020.83333333334,
      "d": 229.16666666665697,
      "v": 106
    },
    {
      "midi": 53,
      "hit": false,
      "t": 172020.83333333334,
      "d": 229.16666666665697,
      "v": 106
    },
    {
      "midi": 65,
      "hit": false,
      "t": 172520.83333333334,
      "d": 229.16666666665697,
      "v": 116
    },
    {
      "midi": 81,
      "hit": false,
      "t": 172520.83333333334,
      "d": 229.16666666665697,
      "v": 116
    },
    {
      "midi": 84,
      "hit": false,
      "t": 172520.83333333334,
      "d": 229.16666666665697,
      "v": 116
    },
    {
      "midi": 89,
      "hit": false,
      "t": 172520.83333333334,
      "d": 229.16666666665697,
      "v": 116
    }
  ]
}