{
  "jsonPath": "Electronic/Bubble Trance/Commander Tom/french-fiction.json",
  "path": "Electronic\\Bubble Trance\\Commander Tom\\French Fiction.mid",
  "name": "French Fiction",
  "difficulty": "Advanced",
  "bpm": 160,
  "notes": [
    {
      "midi": 66,
      "hit": false,
      "t": 1500,
      "d": 2869.140625,
      "v": 101
    },
    {
      "midi": 42,
      "hit": false,
      "t": 1500,
      "d": 2964.84375,
      "v": 123
    },
    {
      "midi": 61,
      "hit": false,
      "t": 1501.953125,
      "d": 2884.765625,
      "v": 100
    },
    {
      "midi": 40,
      "hit": false,
      "t": 4486.328125,
      "d": 2974.609375,
      "v": 123
    },
    {
      "midi": 68,
      "hit": false,
      "t": 4503.90625,
      "d": 2751.953125,
      "v": 103
    },
    {
      "midi": 64,
      "hit": false,
      "t": 4509.765625,
      "d": 2773.4375,
      "v": 99
    },
    {
      "midi": 37,
      "hit": false,
      "t": 7490.234375,
      "d": 2986.328125,
      "v": 123
    },
    {
      "midi": 69,
      "hit": false,
      "t": 7492.1875,
      "d": 2878.90625,
      "v": 102
    },
    {
      "midi": 64,
      "hit": false,
      "t": 7492.1875,
      "d": 2894.53125,
      "v": 101
    },
    {
      "midi": 35,
      "hit": false,
      "t": 10486.328125,
      "d": 2998.046875,
      "v": 124
    },
    {
      "midi": 71,
      "hit": false,
      "t": 10501.953125,
      "d": 2927.734375,
      "v": 96
    },
    {
      "midi": 66,
      "hit": false,
      "t": 10507.8125,
      "d": 2912.109375,
      "v": 99
    },
    {
      "midi": 66,
      "hit": false,
      "t": 13500,
      "d": 2869.140625,
      "v": 101
    },
    {
      "midi": 42,
      "hit": false,
      "t": 13500,
      "d": 2964.84375,
      "v": 123
    },
    {
      "midi": 61,
      "hit": false,
      "t": 13501.953125,
      "d": 2884.765625,
      "v": 100
    },
    {
      "midi": 78,
      "hit": false,
      "t": 15017.578125,
      "d": 1662.109375,
      "v": 96
    },
    {
      "midi": 40,
      "hit": false,
      "t": 16486.328125,
      "d": 2974.609375,
      "v": 123
    },
    {
      "midi": 68,
      "hit": false,
      "t": 16503.90625,
      "d": 2751.953125,
      "v": 103
    },
    {
      "midi": 64,
      "hit": false,
      "t": 16509.765625,
      "d": 2773.4375,
      "v": 99
    },
    {
      "midi": 80,
      "hit": false,
      "t": 17988.28125,
      "d": 1833.984375,
      "v": 105
    },
    {
      "midi": 37,
      "hit": false,
      "t": 19490.234375,
      "d": 2986.328125,
      "v": 123
    },
    {
      "midi": 69,
      "hit": false,
      "t": 19492.1875,
      "d": 2878.90625,
      "v": 102
    },
    {
      "midi": 64,
      "hit": false,
      "t": 19492.1875,
      "d": 2894.53125,
      "v": 101
    },
    {
      "midi": 76,
      "hit": false,
      "t": 21001.953125,
      "d": 1958.984375,
      "v": 105
    },
    {
      "midi": 35,
      "hit": false,
      "t": 22486.328125,
      "d": 2998.046875,
      "v": 124
    },
    {
      "midi": 71,
      "hit": false,
      "t": 22501.953125,
      "d": 2927.734375,
      "v": 96
    },
    {
      "midi": 66,
      "hit": false,
      "t": 22507.8125,
      "d": 2912.109375,
      "v": 99
    },
    {
      "midi": 78,
      "hit": false,
      "t": 23998.046875,
      "d": 1878.90625,
      "v": 96
    },
    {
      "midi": 66,
      "hit": false,
      "t": 25500,
      "d": 2869.140625,
      "v": 101
    },
    {
      "midi": 42,
      "hit": false,
      "t": 25500,
      "d": 2964.84375,
      "v": 123
    },
    {
      "midi": 61,
      "hit": false,
      "t": 25501.953125,
      "d": 2884.765625,
      "v": 100
    },
    {
      "midi": 78,
      "hit": false,
      "t": 27017.578125,
      "d": 1662.109375,
      "v": 96
    },
    {
      "midi": 40,
      "hit": false,
      "t": 28486.328125,
      "d": 2974.609375,
      "v": 123
    },
    {
      "midi": 68,
      "hit": false,
      "t": 28503.90625,
      "d": 2751.953125,
      "v": 103
    },
    {
      "midi": 64,
      "hit": false,
      "t": 28509.765625,
      "d": 2773.4375,
      "v": 99
    },
    {
      "midi": 80,
      "hit": false,
      "t": 29988.28125,
      "d": 1833.984375,
      "v": 105
    },
    {
      "midi": 37,
      "hit": false,
      "t": 31490.234375,
      "d": 2986.328125,
      "v": 123
    },
    {
      "midi": 69,
      "hit": false,
      "t": 31492.1875,
      "d": 2878.90625,
      "v": 102
    },
    {
      "midi": 64,
      "hit": false,
      "t": 31492.1875,
      "d": 2894.53125,
      "v": 101
    },
    {
      "midi": 76,
      "hit": false,
      "t": 33001.953125,
      "d": 1958.984375,
      "v": 105
    },
    {
      "midi": 35,
      "hit": false,
      "t": 34486.328125,
      "d": 2998.046875,
      "v": 124
    },
    {
      "midi": 71,
      "hit": false,
      "t": 34501.953125,
      "d": 2927.734375,
      "v": 96
    },
    {
      "midi": 66,
      "hit": false,
      "t": 34507.8125,
      "d": 2912.109375,
      "v": 99
    },
    {
      "midi": 78,
      "hit": false,
      "t": 35998.046875,
      "d": 1878.90625,
      "v": 96
    },
    {
      "midi": 66,
      "hit": false,
      "t": 97500,
      "d": 2869.140625,
      "v": 101
    },
    {
      "midi": 42,
      "hit": false,
      "t": 97500,
      "d": 2964.84375,
      "v": 123
    },
    {
      "midi": 61,
      "hit": false,
      "t": 97501.953125,
      "d": 2884.765625,
      "v": 100
    },
    {
      "midi": 78,
      "hit": false,
      "t": 99017.578125,
      "d": 1662.109375,
      "v": 96
    },
    {
      "midi": 40,
      "hit": false,
      "t": 100486.328125,
      "d": 2974.609375,
      "v": 123
    },
    {
      "midi": 68,
      "hit": false,
      "t": 100503.90625,
      "d": 2751.953125,
      "v": 103
    },
    {
      "midi": 64,
      "hit": false,
      "t": 100509.765625,
      "d": 2773.4375,
      "v": 99
    },
    {
      "midi": 80,
      "hit": false,
      "t": 101988.28125,
      "d": 1833.984375,
      "v": 105
    },
    {
      "midi": 37,
      "hit": false,
      "t": 103490.234375,
      "d": 2986.328125,
      "v": 123
    },
    {
      "midi": 69,
      "hit": false,
      "t": 103492.1875,
      "d": 2878.90625,
      "v": 102
    },
    {
      "midi": 64,
      "hit": false,
      "t": 103492.1875,
      "d": 2894.53125,
      "v": 101
    },
    {
      "midi": 76,
      "hit": false,
      "t": 105001.953125,
      "d": 1958.984375,
      "v": 105
    },
    {
      "midi": 35,
      "hit": false,
      "t": 106486.328125,
      "d": 2998.046875,
      "v": 124
    },
    {
      "midi": 71,
      "hit": false,
      "t": 106501.953125,
      "d": 2927.734375,
      "v": 96
    },
    {
      "midi": 66,
      "hit": false,
      "t": 106507.8125,
      "d": 2912.109375,
      "v": 99
    },
    {
      "midi": 78,
      "hit": false,
      "t": 107998.046875,
      "d": 1878.90625,
      "v": 96
    },
    {
      "midi": 66,
      "hit": false,
      "t": 109500,
      "d": 2869.140625,
      "v": 101
    },
    {
      "midi": 42,
      "hit": false,
      "t": 109500,
      "d": 2964.84375,
      "v": 123
    },
    {
      "midi": 61,
      "hit": false,
      "t": 109501.953125,
      "d": 2884.765625,
      "v": 100
    },
    {
      "midi": 78,
      "hit": false,
      "t": 111017.578125,
      "d": 1662.109375,
      "v": 96
    },
    {
      "midi": 40,
      "hit": false,
      "t": 112486.328125,
      "d": 2974.609375,
      "v": 123
    },
    {
      "midi": 68,
      "hit": false,
      "t": 112503.90625,
      "d": 2751.953125,
      "v": 103
    },
    {
      "midi": 64,
      "hit": false,
      "t": 112509.765625,
      "d": 2773.4375,
      "v": 99
    },
    {
      "midi": 80,
      "hit": false,
      "t": 113988.28125,
      "d": 1833.984375,
      "v": 105
    },
    {
      "midi": 37,
      "hit": false,
      "t": 115490.234375,
      "d": 2986.328125,
      "v": 123
    },
    {
      "midi": 69,
      "hit": false,
      "t": 115492.1875,
      "d": 2878.90625,
      "v": 102
    },
    {
      "midi": 64,
      "hit": false,
      "t": 115492.1875,
      "d": 2894.53125,
      "v": 101
    },
    {
      "midi": 76,
      "hit": false,
      "t": 117001.953125,
      "d": 1958.984375,
      "v": 105
    },
    {
      "midi": 35,
      "hit": false,
      "t": 118486.328125,
      "d": 2998.046875,
      "v": 124
    },
    {
      "midi": 71,
      "hit": false,
      "t": 118501.953125,
      "d": 2927.734375,
      "v": 96
    },
    {
      "midi": 66,
      "hit": false,
      "t": 118507.8125,
      "d": 2912.109375,
      "v": 99
    },
    {
      "midi": 78,
      "hit": false,
      "t": 119998.046875,
      "d": 1878.90625,
      "v": 96
    },
    {
      "midi": 66,
      "hit": false,
      "t": 121500,
      "d": 2869.140625,
      "v": 101
    },
    {
      "midi": 42,
      "hit": false,
      "t": 121500,
      "d": 2964.84375,
      "v": 123
    },
    {
      "midi": 61,
      "hit": false,
      "t": 121501.953125,
      "d": 2884.765625,
      "v": 100
    },
    {
      "midi": 78,
      "hit": false,
      "t": 123017.578125,
      "d": 1662.109375,
      "v": 96
    },
    {
      "midi": 40,
      "hit": false,
      "t": 124486.328125,
      "d": 2974.609375,
      "v": 123
    },
    {
      "midi": 68,
      "hit": false,
      "t": 124503.90625,
      "d": 2751.953125,
      "v": 103
    },
    {
      "midi": 64,
      "hit": false,
      "t": 124509.765625,
      "d": 2773.4375,
      "v": 99
    },
    {
      "midi": 80,
      "hit": false,
      "t": 125988.28125,
      "d": 1833.984375,
      "v": 105
    },
    {
      "midi": 37,
      "hit": false,
      "t": 127490.234375,
      "d": 2986.328125,
      "v": 123
    },
    {
      "midi": 69,
      "hit": false,
      "t": 127492.1875,
      "d": 2878.90625,
      "v": 102
    },
    {
      "midi": 64,
      "hit": false,
      "t": 127492.1875,
      "d": 2894.53125,
      "v": 101
    },
    {
      "midi": 76,
      "hit": false,
      "t": 129001.953125,
      "d": 1958.984375,
      "v": 105
    },
    {
      "midi": 35,
      "hit": false,
      "t": 130486.328125,
      "d": 2998.046875,
      "v": 124
    },
    {
      "midi": 71,
      "hit": false,
      "t": 130501.953125,
      "d": 2927.734375,
      "v": 96
    },
    {
      "midi": 66,
      "hit": false,
      "t": 130507.8125,
      "d": 2912.109375,
      "v": 99
    },
    {
      "midi": 78,
      "hit": false,
      "t": 131998.046875,
      "d": 1878.90625,
      "v": 96
    },
    {
      "midi": 66,
      "hit": false,
      "t": 133500,
      "d": 2869.140625,
      "v": 101
    },
    {
      "midi": 42,
      "hit": false,
      "t": 133500,
      "d": 2964.84375,
      "v": 123
    },
    {
      "midi": 61,
      "hit": false,
      "t": 133501.953125,
      "d": 2884.765625,
      "v": 100
    },
    {
      "midi": 78,
      "hit": false,
      "t": 135017.578125,
      "d": 1662.109375,
      "v": 96
    },
    {
      "midi": 40,
      "hit": false,
      "t": 136486.328125,
      "d": 2974.609375,
      "v": 123
    },
    {
      "midi": 68,
      "hit": false,
      "t": 136503.90625,
      "d": 2751.953125,
      "v": 103
    },
    {
      "midi": 64,
      "hit": false,
      "t": 136509.765625,
      "d": 2773.4375,
      "v": 99
    },
    {
      "midi": 80,
      "hit": false,
      "t": 137988.28125,
      "d": 1833.984375,
      "v": 105
    },
    {
      "midi": 37,
      "hit": false,
      "t": 139490.234375,
      "d": 2986.328125,
      "v": 123
    },
    {
      "midi": 69,
      "hit": false,
      "t": 139492.1875,
      "d": 2878.90625,
      "v": 102
    },
    {
      "midi": 64,
      "hit": false,
      "t": 139492.1875,
      "d": 2894.53125,
      "v": 101
    },
    {
      "midi": 76,
      "hit": false,
      "t": 141001.953125,
      "d": 1958.984375,
      "v": 105
    },
    {
      "midi": 35,
      "hit": false,
      "t": 142486.328125,
      "d": 2998.046875,
      "v": 124
    },
    {
      "midi": 71,
      "hit": false,
      "t": 142501.953125,
      "d": 2927.734375,
      "v": 96
    },
    {
      "midi": 66,
      "hit": false,
      "t": 142507.8125,
      "d": 2912.109375,
      "v": 99
    },
    {
      "midi": 78,
      "hit": false,
      "t": 143998.046875,
      "d": 1878.90625,
      "v": 96
    },
    {
      "midi": 42,
      "hit": false,
      "t": 163687.5,
      "d": 187.5,
      "v": 100
    },
    {
      "midi": 42,
      "hit": false,
      "t": 164250,
      "d": 187.5,
      "v": 100
    },
    {
      "midi": 42,
      "hit": false,
      "t": 164812.5,
      "d": 187.5,
      "v": 100
    },
    {
      "midi": 42,
      "hit": false,
      "t": 165187.5,
      "d": 187.5,
      "v": 100
    },
    {
      "midi": 42,
      "hit": false,
      "t": 165750,
      "d": 187.5,
      "v": 100
    },
    {
      "midi": 42,
      "hit": false,
      "t": 166312.5,
      "d": 187.5,
      "v": 100
    },
    {
      "midi": 42,
      "hit": false,
      "t": 166687.5,
      "d": 187.5,
      "v": 100
    },
    {
      "midi": 42,
      "hit": false,
      "t": 167250,
      "d": 187.5,
      "v": 100
    },
    {
      "midi": 42,
      "hit": false,
      "t": 167812.5,
      "d": 187.5,
      "v": 100
    },
    {
      "midi": 42,
      "hit": false,
      "t": 168187.5,
      "d": 187.5,
      "v": 100
    },
    {
      "midi": 42,
      "hit": false,
      "t": 168750,
      "d": 187.5,
      "v": 100
    },
    {
      "midi": 42,
      "hit": false,
      "t": 169687.5,
      "d": 187.5,
      "v": 100
    },
    {
      "midi": 42,
      "hit": false,
      "t": 170250,
      "d": 187.5,
      "v": 100
    },
    {
      "midi": 42,
      "hit": false,
      "t": 170812.5,
      "d": 187.5,
      "v": 100
    },
    {
      "midi": 42,
      "hit": false,
      "t": 171187.5,
      "d": 187.5,
      "v": 100
    },
    {
      "midi": 42,
      "hit": false,
      "t": 171750,
      "d": 187.5,
      "v": 100
    },
    {
      "midi": 42,
      "hit": false,
      "t": 172312.5,
      "d": 187.5,
      "v": 100
    },
    {
      "midi": 42,
      "hit": false,
      "t": 172687.5,
      "d": 187.5,
      "v": 100
    },
    {
      "midi": 42,
      "hit": false,
      "t": 173250,
      "d": 187.5,
      "v": 100
    },
    {
      "midi": 42,
      "hit": false,
      "t": 173812.5,
      "d": 187.5,
      "v": 100
    },
    {
      "midi": 42,
      "hit": false,
      "t": 174187.5,
      "d": 187.5,
      "v": 100
    },
    {
      "midi": 42,
      "hit": false,
      "t": 174750,
      "d": 187.5,
      "v": 100
    },
    {
      "midi": 66,
      "hit": false,
      "t": 187500,
      "d": 2869.140625,
      "v": 101
    },
    {
      "midi": 42,
      "hit": false,
      "t": 187500,
      "d": 2964.84375,
      "v": 123
    },
    {
      "midi": 61,
      "hit": false,
      "t": 187501.953125,
      "d": 2884.765625,
      "v": 100
    },
    {
      "midi": 40,
      "hit": false,
      "t": 190486.328125,
      "d": 2974.609375,
      "v": 123
    },
    {
      "midi": 68,
      "hit": false,
      "t": 190503.90625,
      "d": 2751.953125,
      "v": 103
    },
    {
      "midi": 64,
      "hit": false,
      "t": 190509.765625,
      "d": 2773.4375,
      "v": 99
    },
    {
      "midi": 37,
      "hit": false,
      "t": 193490.234375,
      "d": 2986.328125,
      "v": 123
    },
    {
      "midi": 69,
      "hit": false,
      "t": 193492.1875,
      "d": 2878.90625,
      "v": 102
    },
    {
      "midi": 64,
      "hit": false,
      "t": 193492.1875,
      "d": 2894.53125,
      "v": 101
    },
    {
      "midi": 35,
      "hit": false,
      "t": 196486.328125,
      "d": 2998.046875,
      "v": 124
    },
    {
      "midi": 71,
      "hit": false,
      "t": 196501.953125,
      "d": 2927.734375,
      "v": 96
    },
    {
      "midi": 66,
      "hit": false,
      "t": 196507.8125,
      "d": 2912.109375,
      "v": 99
    },
    {
      "midi": 66,
      "hit": false,
      "t": 199500,
      "d": 2869.140625,
      "v": 101
    },
    {
      "midi": 42,
      "hit": false,
      "t": 199500,
      "d": 2964.84375,
      "v": 123
    },
    {
      "midi": 61,
      "hit": false,
      "t": 199501.953125,
      "d": 2884.765625,
      "v": 100
    },
    {
      "midi": 78,
      "hit": false,
      "t": 201017.578125,
      "d": 1662.109375,
      "v": 96
    },
    {
      "midi": 40,
      "hit": false,
      "t": 202486.328125,
      "d": 2974.609375,
      "v": 123
    },
    {
      "midi": 68,
      "hit": false,
      "t": 202503.90625,
      "d": 2751.953125,
      "v": 103
    },
    {
      "midi": 64,
      "hit": false,
      "t": 202509.765625,
      "d": 2773.4375,
      "v": 99
    },
    {
      "midi": 80,
      "hit": false,
      "t": 203988.28125,
      "d": 1833.984375,
      "v": 105
    },
    {
      "midi": 37,
      "hit": false,
      "t": 205490.234375,
      "d": 2986.328125,
      "v": 123
    },
    {
      "midi": 69,
      "hit": false,
      "t": 205492.1875,
      "d": 2878.90625,
      "v": 102
    },
    {
      "midi": 64,
      "hit": false,
      "t": 205492.1875,
      "d": 2894.53125,
      "v": 101
    },
    {
      "midi": 76,
      "hit": false,
      "t": 207001.953125,
      "d": 1958.984375,
      "v": 105
    },
    {
      "midi": 35,
      "hit": false,
      "t": 208486.328125,
      "d": 2998.046875,
      "v": 124
    },
    {
      "midi": 71,
      "hit": false,
      "t": 208501.953125,
      "d": 2927.734375,
      "v": 96
    },
    {
      "midi": 66,
      "hit": false,
      "t": 208507.8125,
      "d": 2912.109375,
      "v": 99
    },
    {
      "midi": 78,
      "hit": false,
      "t": 209998.046875,
      "d": 1878.90625,
      "v": 96
    },
    {
      "midi": 42,
      "hit": false,
      "t": 247687.5,
      "d": 187.5,
      "v": 100
    },
    {
      "midi": 42,
      "hit": false,
      "t": 248250,
      "d": 187.5,
      "v": 100
    },
    {
      "midi": 42,
      "hit": false,
      "t": 248812.5,
      "d": 187.5,
      "v": 100
    },
    {
      "midi": 42,
      "hit": false,
      "t": 249187.5,
      "d": 187.5,
      "v": 100
    },
    {
      "midi": 42,
      "hit": false,
      "t": 249750,
      "d": 187.5,
      "v": 100
    },
    {
      "midi": 42,
      "hit": false,
      "t": 250312.5,
      "d": 187.5,
      "v": 100
    },
    {
      "midi": 42,
      "hit": false,
      "t": 250687.5,
      "d": 187.5,
      "v": 100
    },
    {
      "midi": 42,
      "hit": false,
      "t": 251250,
      "d": 187.5,
      "v": 100
    },
    {
      "midi": 42,
      "hit": false,
      "t": 251812.5,
      "d": 187.5,
      "v": 100
    },
    {
      "midi": 42,
      "hit": false,
      "t": 252187.5,
      "d": 187.5,
      "v": 100
    },
    {
      "midi": 42,
      "hit": false,
      "t": 252750,
      "d": 187.5,
      "v": 100
    },
    {
      "midi": 42,
      "hit": false,
      "t": 253687.5,
      "d": 187.5,
      "v": 100
    },
    {
      "midi": 42,
      "hit": false,
      "t": 254250,
      "d": 187.5,
      "v": 100
    },
    {
      "midi": 42,
      "hit": false,
      "t": 254812.5,
      "d": 187.5,
      "v": 100
    },
    {
      "midi": 42,
      "hit": false,
      "t": 255187.5,
      "d": 187.5,
      "v": 100
    },
    {
      "midi": 42,
      "hit": false,
      "t": 255750,
      "d": 187.5,
      "v": 100
    },
    {
      "midi": 42,
      "hit": false,
      "t": 256312.5,
      "d": 187.5,
      "v": 100
    },
    {
      "midi": 42,
      "hit": false,
      "t": 256687.5,
      "d": 187.5,
      "v": 100
    },
    {
      "midi": 42,
      "hit": false,
      "t": 257250,
      "d": 187.5,
      "v": 100
    },
    {
      "midi": 42,
      "hit": false,
      "t": 257812.5,
      "d": 187.5,
      "v": 100
    },
    {
      "midi": 42,
      "hit": false,
      "t": 258187.5,
      "d": 187.5,
      "v": 100
    },
    {
      "midi": 42,
      "hit": false,
      "t": 258750,
      "d": 187.5,
      "v": 100
    },
    {
      "midi": 42,
      "hit": false,
      "t": 259687.5,
      "d": 187.5,
      "v": 100
    },
    {
      "midi": 42,
      "hit": false,
      "t": 260250,
      "d": 187.5,
      "v": 100
    },
    {
      "midi": 42,
      "hit": false,
      "t": 260812.5,
      "d": 187.5,
      "v": 100
    },
    {
      "midi": 42,
      "hit": false,
      "t": 261187.5,
      "d": 187.5,
      "v": 100
    },
    {
      "midi": 42,
      "hit": false,
      "t": 261750,
      "d": 187.5,
      "v": 100
    },
    {
      "midi": 42,
      "hit": false,
      "t": 262312.5,
      "d": 187.5,
      "v": 100
    },
    {
      "midi": 42,
      "hit": false,
      "t": 262687.5,
      "d": 187.5,
      "v": 100
    },
    {
      "midi": 42,
      "hit": false,
      "t": 263250,
      "d": 187.5,
      "v": 100
    },
    {
      "midi": 42,
      "hit": false,
      "t": 263812.5,
      "d": 187.5,
      "v": 100
    },
    {
      "midi": 42,
      "hit": false,
      "t": 264187.5,
      "d": 187.5,
      "v": 100
    },
    {
      "midi": 42,
      "hit": false,
      "t": 264750,
      "d": 187.5,
      "v": 100
    },
    {
      "midi": 42,
      "hit": false,
      "t": 265687.5,
      "d": 187.5,
      "v": 100
    },
    {
      "midi": 42,
      "hit": false,
      "t": 266250,
      "d": 187.5,
      "v": 100
    },
    {
      "midi": 42,
      "hit": false,
      "t": 266812.5,
      "d": 187.5,
      "v": 100
    },
    {
      "midi": 42,
      "hit": false,
      "t": 267187.5,
      "d": 187.5,
      "v": 100
    },
    {
      "midi": 42,
      "hit": false,
      "t": 267750,
      "d": 187.5,
      "v": 100
    },
    {
      "midi": 42,
      "hit": false,
      "t": 268312.5,
      "d": 187.5,
      "v": 100
    },
    {
      "midi": 42,
      "hit": false,
      "t": 268687.5,
      "d": 187.5,
      "v": 100
    },
    {
      "midi": 42,
      "hit": false,
      "t": 269250,
      "d": 187.5,
      "v": 100
    },
    {
      "midi": 42,
      "hit": false,
      "t": 269812.5,
      "d": 187.5,
      "v": 100
    },
    {
      "midi": 42,
      "hit": false,
      "t": 270187.5,
      "d": 187.5,
      "v": 100
    },
    {
      "midi": 42,
      "hit": false,
      "t": 270750,
      "d": 187.5,
      "v": 100
    },
    {
      "midi": 57,
      "hit": false,
      "t": 307500,
      "d": 2869.140625,
      "v": 101
    },
    {
      "midi": 42,
      "hit": false,
      "t": 307500,
      "d": 2964.84375,
      "v": 123
    },
    {
      "midi": 52,
      "hit": false,
      "t": 307501.953125,
      "d": 2884.765625,
      "v": 100
    },
    {
      "midi": 61,
      "hit": false,
      "t": 307501.953125,
      "d": 2884.765625,
      "v": 100
    },
    {
      "midi": 40,
      "hit": false,
      "t": 310486.328125,
      "d": 2974.609375,
      "v": 123
    },
    {
      "midi": 52,
      "hit": false,
      "t": 310503.90625,
      "d": 2751.953125,
      "v": 103
    },
    {
      "midi": 56,
      "hit": false,
      "t": 310503.90625,
      "d": 2751.953125,
      "v": 103
    },
    {
      "midi": 61,
      "hit": false,
      "t": 310509.765625,
      "d": 2773.4375,
      "v": 99
    },
    {
      "midi": 45,
      "hit": false,
      "t": 313490.234375,
      "d": 2986.328125,
      "v": 123
    },
    {
      "midi": 52,
      "hit": false,
      "t": 313492.1875,
      "d": 2878.90625,
      "v": 102
    },
    {
      "midi": 57,
      "hit": false,
      "t": 313492.1875,
      "d": 2878.90625,
      "v": 102
    },
    {
      "midi": 61,
      "hit": false,
      "t": 313492.1875,
      "d": 2894.53125,
      "v": 101
    },
    {
      "midi": 47,
      "hit": false,
      "t": 316486.328125,
      "d": 2998.046875,
      "v": 124
    },
    {
      "midi": 54,
      "hit": false,
      "t": 316501.953125,
      "d": 2927.734375,
      "v": 96
    },
    {
      "midi": 63,
      "hit": false,
      "t": 316501.953125,
      "d": 2927.734375,
      "v": 96
    },
    {
      "midi": 57,
      "hit": false,
      "t": 316507.8125,
      "d": 2912.109375,
      "v": 99
    },
    {
      "midi": 66,
      "hit": false,
      "t": 319486.328125,
      "d": 148.4375,
      "v": 96
    },
    {
      "midi": 73,
      "hit": false,
      "t": 319486.328125,
      "d": 148.4375,
      "v": 116
    },
    {
      "midi": 54,
      "hit": false,
      "t": 319496.09375,
      "d": 138.671875,
      "v": 122
    },
    {
      "midi": 42,
      "hit": false,
      "t": 322482.421875,
      "d": 146.484375,
      "v": 114
    }
  ]
}