{
  "jsonPath": "Electronic/Diva House/Jeanie Tracy/rosabels-disco-diva-mix.json",
  "path": "Electronic\\Diva House\\Jeanie Tracy\\Rosabels Disco Diva Mix.mid",
  "name": "Rosabels Disco Diva Mix",
  "difficulty": "Advanced",
  "bpm": 120,
  "notes": [
    {
      "midi": 55,
      "hit": false,
      "t": 55859.375,
      "d": 122.39583333333576,
      "v": 120
    },
    {
      "midi": 63,
      "hit": false,
      "t": 55859.375,
      "d": 122.39583333333576,
      "v": 104
    },
    {
      "midi": 60,
      "hit": false,
      "t": 55859.375,
      "d": 135.41666666667152,
      "v": 120
    },
    {
      "midi": 84,
      "hit": false,
      "t": 56091.145833333336,
      "d": 67.70833333333576,
      "v": 110
    },
    {
      "midi": 91,
      "hit": false,
      "t": 56210.93750000001,
      "d": 85.9375,
      "v": 104
    },
    {
      "midi": 96,
      "hit": false,
      "t": 56210.93750000001,
      "d": 85.9375,
      "v": 104
    },
    {
      "midi": 89,
      "hit": false,
      "t": 56442.70833333334,
      "d": 33.85416666666424,
      "v": 112
    },
    {
      "midi": 93,
      "hit": false,
      "t": 56442.70833333334,
      "d": 187.49999999999272,
      "v": 104
    },
    {
      "midi": 87,
      "hit": false,
      "t": 56565.10416666667,
      "d": 65.10416666666424,
      "v": 88
    },
    {
      "midi": 91,
      "hit": false,
      "t": 56565.10416666667,
      "d": 75.52083333332848,
      "v": 90
    },
    {
      "midi": 84,
      "hit": false,
      "t": 56679.6875,
      "d": 65.10416666666424,
      "v": 90
    },
    {
      "midi": 82,
      "hit": false,
      "t": 56794.27083333333,
      "d": 122.39583333333576,
      "v": 91
    },
    {
      "midi": 60,
      "hit": false,
      "t": 56911.45833333333,
      "d": 44.27083333333576,
      "v": 84
    },
    {
      "midi": 63,
      "hit": false,
      "t": 56911.45833333333,
      "d": 44.27083333333576,
      "v": 71
    },
    {
      "midi": 81,
      "hit": false,
      "t": 56911.45833333333,
      "d": 80.72916666667152,
      "v": 93
    },
    {
      "midi": 79,
      "hit": false,
      "t": 57031.25,
      "d": 2.6041666666642413,
      "v": 99
    },
    {
      "midi": 55,
      "hit": false,
      "t": 57031.25,
      "d": 57.29166666666424,
      "v": 64
    },
    {
      "midi": 72,
      "hit": false,
      "t": 57148.4375,
      "d": 148.4375,
      "v": 104
    },
    {
      "midi": 78,
      "hit": false,
      "t": 57265.625,
      "d": 93.75,
      "v": 110
    },
    {
      "midi": 77,
      "hit": false,
      "t": 57380.208333333336,
      "d": 140.625,
      "v": 110
    },
    {
      "midi": 76,
      "hit": false,
      "t": 57497.395833333336,
      "d": 80.72916666666424,
      "v": 110
    },
    {
      "midi": 77,
      "hit": false,
      "t": 57614.583333333336,
      "d": 57.29166666666424,
      "v": 72
    },
    {
      "midi": 75,
      "hit": false,
      "t": 57734.375,
      "d": 114.58333333333576,
      "v": 110
    },
    {
      "midi": 72,
      "hit": false,
      "t": 57848.958333333336,
      "d": 93.75,
      "v": 110
    },
    {
      "midi": 70,
      "hit": false,
      "t": 57968.75,
      "d": 96.35416666666424,
      "v": 91
    },
    {
      "midi": 67,
      "hit": false,
      "t": 58085.9375,
      "d": 80.72916666666424,
      "v": 79
    },
    {
      "midi": 72,
      "hit": false,
      "t": 58203.125,
      "d": 164.0625,
      "v": 92
    },
    {
      "midi": 70,
      "hit": false,
      "t": 58320.3125,
      "d": 114.58333333333576,
      "v": 110
    },
    {
      "midi": 67,
      "hit": false,
      "t": 58437.5,
      "d": 78.125,
      "v": 104
    },
    {
      "midi": 66,
      "hit": false,
      "t": 58557.291666666664,
      "d": 96.35416666666424,
      "v": 110
    },
    {
      "midi": 65,
      "hit": false,
      "t": 58669.27083333333,
      "d": 156.25,
      "v": 110
    },
    {
      "midi": 63,
      "hit": false,
      "t": 58786.45833333333,
      "d": 140.625,
      "v": 92
    },
    {
      "midi": 60,
      "hit": false,
      "t": 58906.24999999999,
      "d": 85.9375,
      "v": 92
    },
    {
      "midi": 66,
      "hit": false,
      "t": 59023.43749999999,
      "d": 26.04166666666424,
      "v": 15
    },
    {
      "midi": 65,
      "hit": false,
      "t": 59023.43749999999,
      "d": 119.79166666666424,
      "v": 110
    },
    {
      "midi": 51,
      "hit": false,
      "t": 59143.22916666666,
      "d": 44.27083333333576,
      "v": 78
    },
    {
      "midi": 63,
      "hit": false,
      "t": 59143.22916666666,
      "d": 132.8125,
      "v": 125
    },
    {
      "midi": 60,
      "hit": false,
      "t": 59377.60416666666,
      "d": 106.77083333333576,
      "v": 127
    },
    {
      "midi": 55,
      "hit": false,
      "t": 59614.58333333333,
      "d": 46.875,
      "v": 88
    },
    {
      "midi": 60,
      "hit": false,
      "t": 59614.58333333333,
      "d": 62.5,
      "v": 92
    },
    {
      "midi": 58,
      "hit": false,
      "t": 59614.58333333333,
      "d": 72.91666666666424,
      "v": 84
    },
    {
      "midi": 51,
      "hit": false,
      "t": 59614.58333333333,
      "d": 78.125,
      "v": 88
    },
    {
      "midi": 58,
      "hit": false,
      "t": 59963.541666666664,
      "d": 72.91666666666424,
      "v": 104
    },
    {
      "midi": 51,
      "hit": false,
      "t": 59963.541666666664,
      "d": 75.52083333332848,
      "v": 95
    },
    {
      "midi": 62,
      "hit": false,
      "t": 60080.72916666666,
      "d": 59.89583333333576,
      "v": 95
    },
    {
      "midi": 67,
      "hit": false,
      "t": 60197.91666666666,
      "d": 98.95833333333576,
      "v": 127
    },
    {
      "midi": 70,
      "hit": false,
      "t": 60432.29166666666,
      "d": 98.95833333333576,
      "v": 110
    },
    {
      "midi": 72,
      "hit": false,
      "t": 60666.66666666666,
      "d": 88.54166666666424,
      "v": 110
    },
    {
      "midi": 75,
      "hit": false,
      "t": 60786.45833333332,
      "d": 65.10416666666424,
      "v": 80
    },
    {
      "midi": 76,
      "hit": false,
      "t": 60901.04166666665,
      "d": 93.75,
      "v": 91
    },
    {
      "midi": 60,
      "hit": false,
      "t": 61026.04166666665,
      "d": 52.08333333333576,
      "v": 63
    },
    {
      "midi": 51,
      "hit": false,
      "t": 61026.04166666665,
      "d": 75.52083333333576,
      "v": 88
    },
    {
      "midi": 78,
      "hit": false,
      "t": 61026.04166666665,
      "d": 101.5625,
      "v": 125
    },
    {
      "midi": 79,
      "hit": false,
      "t": 61138.020833333314,
      "d": 101.5625,
      "v": 92
    },
    {
      "midi": 78,
      "hit": false,
      "t": 61255.208333333314,
      "d": 98.95833333333576,
      "v": 110
    },
    {
      "midi": 79,
      "hit": false,
      "t": 61372.395833333314,
      "d": 164.0625,
      "v": 110
    },
    {
      "midi": 82,
      "hit": false,
      "t": 61492.18749999998,
      "d": 78.125,
      "v": 110
    },
    {
      "midi": 81,
      "hit": false,
      "t": 61606.770833333314,
      "d": 130.20833333333576,
      "v": 110
    },
    {
      "midi": 84,
      "hit": false,
      "t": 61843.749999999985,
      "d": 148.4375,
      "v": 92
    },
    {
      "midi": 82,
      "hit": false,
      "t": 61963.54166666665,
      "d": 93.75,
      "v": 110
    },
    {
      "midi": 84,
      "hit": false,
      "t": 62192.708333333314,
      "d": 98.95833333333576,
      "v": 90
    },
    {
      "midi": 51,
      "hit": false,
      "t": 62315.10416666665,
      "d": 106.77083333333576,
      "v": 41
    },
    {
      "midi": 57,
      "hit": false,
      "t": 62315.10416666665,
      "d": 148.4375,
      "v": 46
    },
    {
      "midi": 87,
      "hit": false,
      "t": 62315.10416666665,
      "d": 210.9375,
      "v": 92
    },
    {
      "midi": 86,
      "hit": false,
      "t": 62432.29166666665,
      "d": 109.375,
      "v": 117
    },
    {
      "midi": 82,
      "hit": false,
      "t": 62546.874999999985,
      "d": 190.10416666666424,
      "v": 99
    },
    {
      "midi": 83,
      "hit": false,
      "t": 62666.66666666665,
      "d": 158.85416666666424,
      "v": 97
    },
    {
      "midi": 48,
      "hit": false,
      "t": 62911.458333333314,
      "d": 62.5,
      "v": 92
    },
    {
      "midi": 84,
      "hit": false,
      "t": 62911.458333333314,
      "d": 98.95833333333576,
      "v": 110
    },
    {
      "midi": 87,
      "hit": false,
      "t": 63138.020833333314,
      "d": 88.54166666666424,
      "v": 125
    },
    {
      "midi": 51,
      "hit": false,
      "t": 63138.020833333314,
      "d": 96.35416666666424,
      "v": 104
    },
    {
      "midi": 55,
      "hit": false,
      "t": 63369.79166666664,
      "d": 85.9375,
      "v": 91
    },
    {
      "midi": 91,
      "hit": false,
      "t": 63369.79166666664,
      "d": 88.54166666666424,
      "v": 110
    },
    {
      "midi": 87,
      "hit": false,
      "t": 63489.58333333331,
      "d": 65.10416666666424,
      "v": 110
    },
    {
      "midi": 51,
      "hit": false,
      "t": 63489.58333333331,
      "d": 85.9375,
      "v": 92
    },
    {
      "midi": 94,
      "hit": false,
      "t": 63723.95833333331,
      "d": 54.6875,
      "v": 64
    },
    {
      "midi": 60,
      "hit": false,
      "t": 63723.95833333331,
      "d": 62.5,
      "v": 91
    },
    {
      "midi": 96,
      "hit": false,
      "t": 63723.95833333331,
      "d": 91.14583333333576,
      "v": 110
    },
    {
      "midi": 60,
      "hit": false,
      "t": 63958.33333333331,
      "d": 59.89583333333576,
      "v": 88
    },
    {
      "midi": 91,
      "hit": false,
      "t": 63958.33333333331,
      "d": 138.02083333333576,
      "v": 88
    },
    {
      "midi": 87,
      "hit": false,
      "t": 64078.12499999998,
      "d": 31.25,
      "v": 110
    },
    {
      "midi": 60,
      "hit": false,
      "t": 64078.12499999998,
      "d": 88.54166666666424,
      "v": 92
    },
    {
      "midi": 98,
      "hit": false,
      "t": 64192.70833333331,
      "d": 46.875,
      "v": 71
    },
    {
      "midi": 97,
      "hit": false,
      "t": 64192.70833333331,
      "d": 52.08333333333576,
      "v": 60
    },
    {
      "midi": 63,
      "hit": false,
      "t": 64429.68749999998,
      "d": 85.9375,
      "v": 110
    },
    {
      "midi": 99,
      "hit": false,
      "t": 64429.68749999998,
      "d": 101.5625,
      "v": 125
    },
    {
      "midi": 60,
      "hit": false,
      "t": 64546.87499999998,
      "d": 33.85416666666424,
      "v": 92
    },
    {
      "midi": 96,
      "hit": false,
      "t": 64546.87499999998,
      "d": 106.77083333332848,
      "v": 92
    },
    {
      "midi": 93,
      "hit": false,
      "t": 64661.45833333331,
      "d": 52.08333333333576,
      "v": 88
    },
    {
      "midi": 91,
      "hit": false,
      "t": 64661.45833333331,
      "d": 75.52083333333576,
      "v": 80
    },
    {
      "midi": 53,
      "hit": false,
      "t": 64786.45833333331,
      "d": 70.3125,
      "v": 94
    },
    {
      "midi": 53,
      "hit": false,
      "t": 65015.62499999997,
      "d": 88.54166666666424,
      "v": 127
    },
    {
      "midi": 77,
      "hit": false,
      "t": 65015.62499999997,
      "d": 98.95833333332848,
      "v": 110
    },
    {
      "midi": 81,
      "hit": false,
      "t": 65249.99999999996,
      "d": 65.10416666666424,
      "v": 110
    },
    {
      "midi": 57,
      "hit": false,
      "t": 65249.99999999996,
      "d": 85.9375,
      "v": 88
    },
    {
      "midi": 60,
      "hit": false,
      "t": 65364.5833333333,
      "d": 83.33333333333576,
      "v": 104
    },
    {
      "midi": 84,
      "hit": false,
      "t": 65364.5833333333,
      "d": 88.54166666667152,
      "v": 110
    },
    {
      "midi": 89,
      "hit": false,
      "t": 65598.9583333333,
      "d": 93.75000000001455,
      "v": 110
    },
    {
      "midi": 65,
      "hit": false,
      "t": 65601.56249999997,
      "d": 49.47916666667152,
      "v": 92
    },
    {
      "midi": 84,
      "hit": false,
      "t": 65835.93749999999,
      "d": 171.875,
      "v": 78
    },
    {
      "midi": 65,
      "hit": false,
      "t": 65838.54166666666,
      "d": 52.08333333332848,
      "v": 90
    },
    {
      "midi": 81,
      "hit": false,
      "t": 65958.33333333331,
      "d": 78.125,
      "v": 110
    },
    {
      "midi": 57,
      "hit": false,
      "t": 65958.33333333331,
      "d": 91.14583333332848,
      "v": 91
    },
    {
      "midi": 65,
      "hit": false,
      "t": 66070.31249999997,
      "d": 59.89583333332848,
      "v": 92
    },
    {
      "midi": 89,
      "hit": false,
      "t": 66070.31249999997,
      "d": 96.35416666665697,
      "v": 110
    },
    {
      "midi": 65,
      "hit": false,
      "t": 66307.29166666663,
      "d": 57.29166666667152,
      "v": 92
    },
    {
      "midi": 84,
      "hit": false,
      "t": 66307.29166666663,
      "d": 210.9375,
      "v": 110
    },
    {
      "midi": 81,
      "hit": false,
      "t": 66427.0833333333,
      "d": 85.9375,
      "v": 91
    },
    {
      "midi": 60,
      "hit": false,
      "t": 66427.0833333333,
      "d": 91.14583333332848,
      "v": 80
    },
    {
      "midi": 57,
      "hit": false,
      "t": 66539.06249999996,
      "d": 67.70833333332848,
      "v": 80
    },
    {
      "midi": 48,
      "hit": false,
      "t": 66661.45833333328,
      "d": 65.10416666667152,
      "v": 92
    },
    {
      "midi": 84,
      "hit": false,
      "t": 66661.45833333328,
      "d": 104.16666666667152,
      "v": 110
    },
    {
      "midi": 87,
      "hit": false,
      "t": 66890.62499999996,
      "d": 91.14583333332848,
      "v": 125
    },
    {
      "midi": 51,
      "hit": false,
      "t": 66890.62499999996,
      "d": 98.95833333332848,
      "v": 104
    },
    {
      "midi": 55,
      "hit": false,
      "t": 67122.39583333328,
      "d": 85.9375,
      "v": 91
    },
    {
      "midi": 91,
      "hit": false,
      "t": 67122.39583333328,
      "d": 85.9375,
      "v": 110
    },
    {
      "midi": 87,
      "hit": false,
      "t": 67242.18749999996,
      "d": 65.10416666667152,
      "v": 110
    },
    {
      "midi": 51,
      "hit": false,
      "t": 67242.18749999996,
      "d": 83.33333333334303,
      "v": 92
    },
    {
      "midi": 94,
      "hit": false,
      "t": 67473.9583333333,
      "d": 57.29166666667152,
      "v": 64
    },
    {
      "midi": 60,
      "hit": false,
      "t": 67473.9583333333,
      "d": 62.5,
      "v": 91
    },
    {
      "midi": 96,
      "hit": false,
      "t": 67473.9583333333,
      "d": 91.14583333332848,
      "v": 110
    },
    {
      "midi": 91,
      "hit": false,
      "t": 67708.3333333333,
      "d": 140.625,
      "v": 88
    },
    {
      "midi": 60,
      "hit": false,
      "t": 67710.93749999997,
      "d": 59.89583333332848,
      "v": 88
    },
    {
      "midi": 87,
      "hit": false,
      "t": 67830.72916666663,
      "d": 28.645833333343035,
      "v": 110
    },
    {
      "midi": 60,
      "hit": false,
      "t": 67830.72916666663,
      "d": 88.54166666667152,
      "v": 92
    },
    {
      "midi": 98,
      "hit": false,
      "t": 67945.31249999997,
      "d": 46.875,
      "v": 71
    },
    {
      "midi": 97,
      "hit": false,
      "t": 67945.31249999997,
      "d": 49.47916666667152,
      "v": 60
    },
    {
      "midi": 63,
      "hit": false,
      "t": 68182.29166666664,
      "d": 88.54166666667152,
      "v": 110
    },
    {
      "midi": 99,
      "hit": false,
      "t": 68182.29166666664,
      "d": 104.16666666667152,
      "v": 125
    },
    {
      "midi": 60,
      "hit": false,
      "t": 68302.08333333331,
      "d": 31.25,
      "v": 92
    },
    {
      "midi": 96,
      "hit": false,
      "t": 68302.08333333331,
      "d": 106.77083333332848,
      "v": 92
    },
    {
      "midi": 93,
      "hit": false,
      "t": 68416.66666666664,
      "d": 49.47916666667152,
      "v": 88
    },
    {
      "midi": 91,
      "hit": false,
      "t": 68416.66666666664,
      "d": 75.52083333334303,
      "v": 80
    },
    {
      "midi": 99,
      "hit": false,
      "t": 68539.06249999999,
      "d": 44.27083333332848,
      "v": 71
    },
    {
      "midi": 101,
      "hit": false,
      "t": 68539.06249999999,
      "d": 104.16666666665697,
      "v": 110
    },
    {
      "midi": 65,
      "hit": false,
      "t": 68539.06249999999,
      "d": 156.24999999998545,
      "v": 92
    },
    {
      "midi": 61,
      "hit": false,
      "t": 68770.8333333333,
      "d": 23.4375,
      "v": 91
    },
    {
      "midi": 60,
      "hit": false,
      "t": 68770.8333333333,
      "d": 36.45833333332848,
      "v": 88
    },
    {
      "midi": 96,
      "hit": false,
      "t": 68770.8333333333,
      "d": 88.54166666665697,
      "v": 110
    },
    {
      "midi": 57,
      "hit": false,
      "t": 68890.62499999996,
      "d": 75.52083333332848,
      "v": 91
    },
    {
      "midi": 93,
      "hit": false,
      "t": 68890.62499999996,
      "d": 91.14583333332848,
      "v": 90
    },
    {
      "midi": 89,
      "hit": false,
      "t": 69117.18749999996,
      "d": 93.75,
      "v": 125
    },
    {
      "midi": 65,
      "hit": false,
      "t": 69117.18749999996,
      "d": 111.97916666667152,
      "v": 90
    },
    {
      "midi": 84,
      "hit": false,
      "t": 69356.7708333333,
      "d": 78.125,
      "v": 110
    },
    {
      "midi": 60,
      "hit": false,
      "t": 69356.7708333333,
      "d": 83.33333333332848,
      "v": 88
    },
    {
      "midi": 57,
      "hit": false,
      "t": 69588.54166666663,
      "d": 67.70833333332848,
      "v": 92
    },
    {
      "midi": 84,
      "hit": false,
      "t": 69588.54166666663,
      "d": 177.08333333332848,
      "v": 110
    },
    {
      "midi": 60,
      "hit": false,
      "t": 69713.54166666663,
      "d": 93.75,
      "v": 104
    },
    {
      "midi": 81,
      "hit": false,
      "t": 69713.54166666663,
      "d": 109.375,
      "v": 90
    },
    {
      "midi": 77,
      "hit": false,
      "t": 69825.5208333333,
      "d": 96.35416666667152,
      "v": 91
    },
    {
      "midi": 65,
      "hit": false,
      "t": 69825.5208333333,
      "d": 98.95833333334303,
      "v": 92
    },
    {
      "midi": 89,
      "hit": false,
      "t": 69942.70833333331,
      "d": 151.04166666667152,
      "v": 104
    },
    {
      "midi": 57,
      "hit": false,
      "t": 70182.29166666666,
      "d": 70.3125,
      "v": 91
    },
    {
      "midi": 84,
      "hit": false,
      "t": 70182.29166666666,
      "d": 153.64583333334303,
      "v": 110
    },
    {
      "midi": 81,
      "hit": false,
      "t": 70294.27083333333,
      "d": 78.125,
      "v": 110
    },
    {
      "midi": 48,
      "hit": false,
      "t": 70421.875,
      "d": 85.9375,
      "v": 110
    },
    {
      "midi": 72,
      "hit": false,
      "t": 70421.875,
      "d": 98.95833333332848,
      "v": 104
    },
    {
      "midi": 73,
      "hit": false,
      "t": 70645.83333333333,
      "d": 85.9375,
      "v": 110
    },
    {
      "midi": 49,
      "hit": false,
      "t": 70645.83333333333,
      "d": 98.95833333332848,
      "v": 125
    },
    {
      "midi": 74,
      "hit": false,
      "t": 70882.81249999999,
      "d": 88.54166666667152,
      "v": 110
    },
    {
      "midi": 50,
      "hit": false,
      "t": 70882.81249999999,
      "d": 93.75,
      "v": 92
    },
    {
      "midi": 51,
      "hit": false,
      "t": 70997.39583333331,
      "d": 91.14583333332848,
      "v": 110
    },
    {
      "midi": 75,
      "hit": false,
      "t": 70997.39583333331,
      "d": 101.5625,
      "v": 110
    },
    {
      "midi": 52,
      "hit": false,
      "t": 71234.37499999999,
      "d": 80.72916666667152,
      "v": 110
    },
    {
      "midi": 76,
      "hit": false,
      "t": 71234.37499999999,
      "d": 98.95833333334303,
      "v": 110
    },
    {
      "midi": 53,
      "hit": false,
      "t": 71466.14583333333,
      "d": 80.72916666667152,
      "v": 90
    },
    {
      "midi": 77,
      "hit": false,
      "t": 71466.14583333333,
      "d": 88.54166666667152,
      "v": 104
    },
    {
      "midi": 53,
      "hit": false,
      "t": 71703.125,
      "d": 72.91666666667152,
      "v": 92
    },
    {
      "midi": 78,
      "hit": false,
      "t": 71703.125,
      "d": 85.9375,
      "v": 127
    },
    {
      "midi": 79,
      "hit": false,
      "t": 71937.5,
      "d": 78.125,
      "v": 110
    },
    {
      "midi": 55,
      "hit": false,
      "t": 71937.5,
      "d": 119.79166666667152,
      "v": 92
    },
    {
      "midi": 56,
      "hit": false,
      "t": 72057.29166666667,
      "d": 88.54166666667152,
      "v": 110
    },
    {
      "midi": 80,
      "hit": false,
      "t": 72057.29166666667,
      "d": 88.54166666667152,
      "v": 91
    },
    {
      "midi": 57,
      "hit": false,
      "t": 72169.27083333334,
      "d": 57.29166666667152,
      "v": 79
    },
    {
      "midi": 81,
      "hit": false,
      "t": 72169.27083333334,
      "d": 83.33333333334303,
      "v": 110
    },
    {
      "midi": 82,
      "hit": false,
      "t": 72294.27083333336,
      "d": 70.3125,
      "v": 92
    },
    {
      "midi": 58,
      "hit": false,
      "t": 72294.27083333336,
      "d": 85.9375,
      "v": 110
    },
    {
      "midi": 81,
      "hit": false,
      "t": 72526.04166666669,
      "d": 78.125,
      "v": 110
    },
    {
      "midi": 57,
      "hit": false,
      "t": 72526.04166666669,
      "d": 91.14583333332848,
      "v": 92
    },
    {
      "midi": 80,
      "hit": false,
      "t": 72640.62500000001,
      "d": 85.9375,
      "v": 110
    },
    {
      "midi": 56,
      "hit": false,
      "t": 72640.62500000001,
      "d": 93.75,
      "v": 92
    },
    {
      "midi": 82,
      "hit": false,
      "t": 72869.79166666669,
      "d": 78.125,
      "v": 110
    },
    {
      "midi": 58,
      "hit": false,
      "t": 72869.79166666669,
      "d": 111.97916666667152,
      "v": 125
    },
    {
      "midi": 57,
      "hit": false,
      "t": 73106.77083333336,
      "d": 96.35416666667152,
      "v": 88
    },
    {
      "midi": 81,
      "hit": false,
      "t": 73106.77083333336,
      "d": 96.35416666667152,
      "v": 125
    },
    {
      "midi": 58,
      "hit": false,
      "t": 73341.14583333336,
      "d": 75.52083333332848,
      "v": 110
    },
    {
      "midi": 82,
      "hit": false,
      "t": 73341.14583333336,
      "d": 85.9375,
      "v": 127
    },
    {
      "midi": 59,
      "hit": false,
      "t": 73463.54166666669,
      "d": 85.9375,
      "v": 92
    },
    {
      "midi": 83,
      "hit": false,
      "t": 73463.54166666669,
      "d": 85.9375,
      "v": 91
    },
    {
      "midi": 60,
      "hit": false,
      "t": 73578.12500000001,
      "d": 78.125,
      "v": 92
    },
    {
      "midi": 84,
      "hit": false,
      "t": 73578.12500000001,
      "d": 96.35416666667152,
      "v": 110
    },
    {
      "midi": 85,
      "hit": false,
      "t": 73695.31250000001,
      "d": 91.14583333332848,
      "v": 92
    },
    {
      "midi": 61,
      "hit": false,
      "t": 73695.31250000001,
      "d": 98.95833333332848,
      "v": 110
    },
    {
      "midi": 62,
      "hit": false,
      "t": 73812.50000000001,
      "d": 88.54166666667152,
      "v": 80
    },
    {
      "midi": 86,
      "hit": false,
      "t": 73812.50000000001,
      "d": 98.95833333334303,
      "v": 110
    },
    {
      "midi": 87,
      "hit": false,
      "t": 73932.29166666669,
      "d": 83.33333333332848,
      "v": 77
    },
    {
      "midi": 63,
      "hit": false,
      "t": 73932.29166666669,
      "d": 111.97916666665697,
      "v": 92
    },
    {
      "midi": 86,
      "hit": false,
      "t": 74046.87500000001,
      "d": 70.3125,
      "v": 91
    },
    {
      "midi": 63,
      "hit": false,
      "t": 74174.47916666669,
      "d": 91.14583333332848,
      "v": 110
    },
    {
      "midi": 87,
      "hit": false,
      "t": 74174.47916666669,
      "d": 96.35416666665697,
      "v": 110
    },
    {
      "midi": 84,
      "hit": false,
      "t": 74398.43750000001,
      "d": 57.29166666667152,
      "v": 88
    },
    {
      "midi": 60,
      "hit": false,
      "t": 74398.43750000001,
      "d": 96.35416666667152,
      "v": 110
    },
    {
      "midi": 79,
      "hit": false,
      "t": 74518.22916666669,
      "d": 36.45833333332848,
      "v": 90
    },
    {
      "midi": 55,
      "hit": false,
      "t": 74518.22916666669,
      "d": 80.72916666665697,
      "v": 110
    },
    {
      "midi": 84,
      "hit": false,
      "t": 74747.39583333334,
      "d": 85.9375,
      "v": 95
    },
    {
      "midi": 60,
      "hit": false,
      "t": 74747.39583333334,
      "d": 111.97916666667152,
      "v": 88
    },
    {
      "midi": 87,
      "hit": false,
      "t": 74981.77083333334,
      "d": 91.14583333332848,
      "v": 110
    },
    {
      "midi": 63,
      "hit": false,
      "t": 74981.77083333334,
      "d": 101.5625,
      "v": 110
    },
    {
      "midi": 60,
      "hit": false,
      "t": 75216.14583333334,
      "d": 91.14583333334303,
      "v": 110
    },
    {
      "midi": 84,
      "hit": false,
      "t": 75218.75000000001,
      "d": 65.10416666667152,
      "v": 104
    },
    {
      "midi": 63,
      "hit": false,
      "t": 75338.54166666669,
      "d": 93.75,
      "v": 110
    },
    {
      "midi": 87,
      "hit": false,
      "t": 75338.54166666669,
      "d": 93.75,
      "v": 125
    },
    {
      "midi": 67,
      "hit": false,
      "t": 75453.12500000001,
      "d": 83.33333333332848,
      "v": 110
    },
    {
      "midi": 91,
      "hit": false,
      "t": 75453.12500000001,
      "d": 96.35416666665697,
      "v": 110
    },
    {
      "midi": 87,
      "hit": false,
      "t": 75690.10416666667,
      "d": 85.9375,
      "v": 110
    },
    {
      "midi": 63,
      "hit": false,
      "t": 75690.10416666667,
      "d": 91.14583333332848,
      "v": 110
    },
    {
      "midi": 91,
      "hit": false,
      "t": 75807.29166666667,
      "d": 36.45833333332848,
      "v": 80
    },
    {
      "midi": 67,
      "hit": false,
      "t": 75807.29166666667,
      "d": 65.10416666665697,
      "v": 110
    },
    {
      "midi": 65,
      "hit": false,
      "t": 76046.875,
      "d": 106.77083333332848,
      "v": 110
    },
    {
      "midi": 89,
      "hit": false,
      "t": 76046.875,
      "d": 114.58333333332848,
      "v": 127
    },
    {
      "midi": 87,
      "hit": false,
      "t": 76153.64583333333,
      "d": 106.77083333332848,
      "v": 125
    },
    {
      "midi": 63,
      "hit": false,
      "t": 76153.64583333333,
      "d": 122.39583333332848,
      "v": 104
    },
    {
      "midi": 89,
      "hit": false,
      "t": 76393.22916666666,
      "d": 52.08333333332848,
      "v": 80
    },
    {
      "midi": 65,
      "hit": false,
      "t": 76393.22916666666,
      "d": 93.75,
      "v": 88
    },
    {
      "midi": 92,
      "hit": false,
      "t": 76507.81249999999,
      "d": 85.9375,
      "v": 110
    },
    {
      "midi": 68,
      "hit": false,
      "t": 76507.81249999999,
      "d": 91.14583333332848,
      "v": 110
    },
    {
      "midi": 89,
      "hit": false,
      "t": 76622.39583333331,
      "d": 83.33333333332848,
      "v": 110
    },
    {
      "midi": 65,
      "hit": false,
      "t": 76622.39583333331,
      "d": 101.5625,
      "v": 110
    },
    {
      "midi": 68,
      "hit": false,
      "t": 76744.79166666664,
      "d": 49.47916666667152,
      "v": 110
    },
    {
      "midi": 92,
      "hit": false,
      "t": 76744.79166666664,
      "d": 49.47916666667152,
      "v": 95
    },
    {
      "midi": 69,
      "hit": false,
      "t": 76859.37499999999,
      "d": 46.875,
      "v": 92
    },
    {
      "midi": 93,
      "hit": false,
      "t": 76859.37499999999,
      "d": 91.14583333332848,
      "v": 127
    },
    {
      "midi": 72,
      "hit": false,
      "t": 76979.16666666664,
      "d": 54.6875,
      "v": 64
    },
    {
      "midi": 96,
      "hit": false,
      "t": 76979.16666666664,
      "d": 78.125,
      "v": 110
    },
    {
      "midi": 69,
      "hit": false,
      "t": 77093.74999999997,
      "d": 52.08333333332848,
      "v": 78
    },
    {
      "midi": 93,
      "hit": false,
      "t": 77093.74999999997,
      "d": 80.72916666665697,
      "v": 104
    },
    {
      "midi": 96,
      "hit": false,
      "t": 77218.74999999996,
      "d": 78.125,
      "v": 110
    },
    {
      "midi": 72,
      "hit": false,
      "t": 77218.74999999996,
      "d": 85.9375,
      "v": 125
    },
    {
      "midi": 101,
      "hit": false,
      "t": 77330.72916666663,
      "d": 70.3125,
      "v": 72
    },
    {
      "midi": 77,
      "hit": false,
      "t": 77330.72916666663,
      "d": 85.9375,
      "v": 110
    },
    {
      "midi": 89,
      "hit": false,
      "t": 77330.72916666663,
      "d": 98.95833333332848,
      "v": 125
    },
    {
      "midi": 99,
      "hit": false,
      "t": 77453.12499999996,
      "d": 39.0625,
      "v": 88
    },
    {
      "midi": 75,
      "hit": false,
      "t": 77453.12499999996,
      "d": 83.33333333332848,
      "v": 100
    },
    {
      "midi": 100,
      "hit": false,
      "t": 77565.10416666661,
      "d": 93.75,
      "v": 104
    },
    {
      "midi": 76,
      "hit": false,
      "t": 77565.10416666661,
      "d": 106.77083333332848,
      "v": 104
    },
    {
      "midi": 77,
      "hit": false,
      "t": 77684.89583333327,
      "d": 91.14583333332848,
      "v": 91
    },
    {
      "midi": 101,
      "hit": false,
      "t": 77684.89583333327,
      "d": 91.14583333332848,
      "v": 110
    },
    {
      "midi": 84,
      "hit": false,
      "t": 77921.87499999993,
      "d": 72.91666666667152,
      "v": 78
    },
    {
      "midi": 60,
      "hit": false,
      "t": 77921.87499999993,
      "d": 83.33333333334303,
      "v": 125
    },
    {
      "midi": 63,
      "hit": false,
      "t": 78148.43749999994,
      "d": 70.3125,
      "v": 88
    },
    {
      "midi": 87,
      "hit": false,
      "t": 78148.43749999994,
      "d": 85.9375,
      "v": 110
    },
    {
      "midi": 67,
      "hit": false,
      "t": 78385.41666666661,
      "d": 78.125,
      "v": 90
    },
    {
      "midi": 91,
      "hit": false,
      "t": 78385.41666666661,
      "d": 88.54166666667152,
      "v": 104
    },
    {
      "midi": 87,
      "hit": false,
      "t": 78502.60416666661,
      "d": 59.89583333332848,
      "v": 110
    },
    {
      "midi": 63,
      "hit": false,
      "t": 78502.60416666661,
      "d": 96.35416666665697,
      "v": 110
    },
    {
      "midi": 72,
      "hit": false,
      "t": 78734.37499999994,
      "d": 57.29166666667152,
      "v": 76
    },
    {
      "midi": 96,
      "hit": false,
      "t": 78734.37499999994,
      "d": 57.29166666667152,
      "v": 80
    },
    {
      "midi": 108,
      "hit": false,
      "t": 78734.37499999994,
      "d": 62.5,
      "v": 125
    },
    {
      "midi": 72,
      "hit": false,
      "t": 78968.74999999994,
      "d": 72.91666666667152,
      "v": 71
    },
    {
      "midi": 96,
      "hit": false,
      "t": 78971.35416666661,
      "d": 75.52083333332848,
      "v": 104
    },
    {
      "midi": 67,
      "hit": false,
      "t": 79088.54166666661,
      "d": 138.02083333332848,
      "v": 80
    },
    {
      "midi": 103,
      "hit": false,
      "t": 79088.54166666661,
      "d": 148.4375,
      "v": 91
    },
    {
      "midi": 96,
      "hit": false,
      "t": 79328.12499999994,
      "d": 75.52083333332848,
      "v": 77
    },
    {
      "midi": 72,
      "hit": false,
      "t": 79328.12499999994,
      "d": 93.75,
      "v": 88
    },
    {
      "midi": 108,
      "hit": false,
      "t": 79328.12499999994,
      "d": 104.16666666667152,
      "v": 104
    },
    {
      "midi": 67,
      "hit": false,
      "t": 79562.49999999994,
      "d": 96.35416666667152,
      "v": 64
    },
    {
      "midi": 103,
      "hit": false,
      "t": 79562.49999999994,
      "d": 171.875,
      "v": 92
    },
    {
      "midi": 72,
      "hit": false,
      "t": 79671.87499999994,
      "d": 62.5,
      "v": 92
    },
    {
      "midi": 96,
      "hit": false,
      "t": 79674.47916666661,
      "d": 62.5,
      "v": 104
    },
    {
      "midi": 89,
      "hit": false,
      "t": 79799.47916666661,
      "d": 98.95833333332848,
      "v": 125
    },
    {
      "midi": 65,
      "hit": false,
      "t": 79911.45833333327,
      "d": 62.5,
      "v": 78
    },
    {
      "midi": 93,
      "hit": false,
      "t": 80031.24999999994,
      "d": 88.54166666667152,
      "v": 125
    },
    {
      "midi": 69,
      "hit": false,
      "t": 80031.24999999994,
      "d": 119.79166666667152,
      "v": 90
    },
    {
      "midi": 72,
      "hit": false,
      "t": 80265.62499999994,
      "d": 88.54166666667152,
      "v": 110
    },
    {
      "midi": 96,
      "hit": false,
      "t": 80265.62499999994,
      "d": 166.66666666667152,
      "v": 110
    },
    {
      "midi": 93,
      "hit": false,
      "t": 80380.20833333328,
      "d": 67.70833333332848,
      "v": 104
    },
    {
      "midi": 69,
      "hit": false,
      "t": 80380.20833333328,
      "d": 96.35416666665697,
      "v": 90
    },
    {
      "midi": 89,
      "hit": false,
      "t": 80614.58333333327,
      "d": 78.125,
      "v": 122
    },
    {
      "midi": 77,
      "hit": false,
      "t": 80614.58333333327,
      "d": 80.72916666667152,
      "v": 94
    },
    {
      "midi": 101,
      "hit": false,
      "t": 80617.18749999994,
      "d": 80.72916666667152,
      "v": 104
    },
    {
      "midi": 77,
      "hit": false,
      "t": 80848.95833333328,
      "d": 62.5,
      "v": 80
    },
    {
      "midi": 101,
      "hit": false,
      "t": 80848.95833333328,
      "d": 78.125,
      "v": 125
    },
    {
      "midi": 89,
      "hit": false,
      "t": 80848.95833333328,
      "d": 83.33333333332848,
      "v": 110
    },
    {
      "midi": 72,
      "hit": false,
      "t": 80973.95833333328,
      "d": 93.75,
      "v": 110
    },
    {
      "midi": 96,
      "hit": false,
      "t": 80973.95833333328,
      "d": 148.4375,
      "v": 70
    },
    {
      "midi": 93,
      "hit": false,
      "t": 81085.93749999996,
      "d": 75.52083333332848,
      "v": 110
    },
    {
      "midi": 69,
      "hit": false,
      "t": 81085.93749999996,
      "d": 117.1875,
      "v": 92
    },
    {
      "midi": 89,
      "hit": false,
      "t": 81203.12499999996,
      "d": 85.9375,
      "v": 110
    },
    {
      "midi": 101,
      "hit": false,
      "t": 81203.12499999996,
      "d": 111.97916666667152,
      "v": 110
    },
    {
      "midi": 72,
      "hit": false,
      "t": 81437.49999999996,
      "d": 109.375,
      "v": 110
    },
    {
      "midi": 96,
      "hit": false,
      "t": 81437.49999999996,
      "d": 179.6875,
      "v": 110
    },
    {
      "midi": 69,
      "hit": false,
      "t": 81554.68749999996,
      "d": 46.875,
      "v": 91
    },
    {
      "midi": 93,
      "hit": false,
      "t": 81554.68749999996,
      "d": 72.91666666667152,
      "v": 122
    },
    {
      "midi": 84,
      "hit": false,
      "t": 81682.29166666663,
      "d": 62.5,
      "v": 88
    },
    {
      "midi": 60,
      "hit": false,
      "t": 81682.29166666663,
      "d": 75.52083333332848,
      "v": 110
    },
    {
      "midi": 87,
      "hit": false,
      "t": 81911.45833333328,
      "d": 39.0625,
      "v": 110
    },
    {
      "midi": 63,
      "hit": false,
      "t": 81911.45833333328,
      "d": 106.77083333332848,
      "v": 88
    },
    {
      "midi": 91,
      "hit": false,
      "t": 82033.85416666661,
      "d": 78.125,
      "v": 110
    },
    {
      "midi": 67,
      "hit": false,
      "t": 82033.85416666661,
      "d": 85.9375,
      "v": 88
    },
    {
      "midi": 94,
      "hit": false,
      "t": 82263.02083333328,
      "d": 49.47916666667152,
      "v": 58
    },
    {
      "midi": 72,
      "hit": false,
      "t": 82263.02083333328,
      "d": 88.54166666667152,
      "v": 104
    },
    {
      "midi": 96,
      "hit": false,
      "t": 82263.02083333328,
      "d": 151.04166666667152,
      "v": 110
    },
    {
      "midi": 91,
      "hit": false,
      "t": 82382.81249999996,
      "d": 80.72916666667152,
      "v": 104
    },
    {
      "midi": 67,
      "hit": false,
      "t": 82382.81249999996,
      "d": 104.16666666667152,
      "v": 92
    },
    {
      "midi": 63,
      "hit": false,
      "t": 82614.5833333333,
      "d": 98.95833333332848,
      "v": 90
    },
    {
      "midi": 87,
      "hit": false,
      "t": 82614.5833333333,
      "d": 98.95833333332848,
      "v": 125
    },
    {
      "midi": 67,
      "hit": false,
      "t": 82848.9583333333,
      "d": 91.14583333332848,
      "v": 110
    },
    {
      "midi": 91,
      "hit": false,
      "t": 82848.9583333333,
      "d": 98.95833333332848,
      "v": 89
    },
    {
      "midi": 96,
      "hit": false,
      "t": 82966.1458333333,
      "d": 104.16666666667152,
      "v": 110
    },
    {
      "midi": 72,
      "hit": false,
      "t": 82966.1458333333,
      "d": 111.97916666667152,
      "v": 92
    },
    {
      "midi": 91,
      "hit": false,
      "t": 83200.5208333333,
      "d": 143.22916666665697,
      "v": 98
    },
    {
      "midi": 67,
      "hit": false,
      "t": 83200.5208333333,
      "d": 156.24999999998545,
      "v": 90
    },
    {
      "midi": 87,
      "hit": false,
      "t": 83322.91666666663,
      "d": 72.91666666665697,
      "v": 110
    },
    {
      "midi": 72,
      "hit": false,
      "t": 83322.91666666663,
      "d": 83.33333333332848,
      "v": 88
    },
    {
      "midi": 65,
      "hit": false,
      "t": 83557.29166666663,
      "d": 67.70833333332848,
      "v": 110
    },
    {
      "midi": 89,
      "hit": false,
      "t": 83557.29166666663,
      "d": 96.35416666665697,
      "v": 110
    },
    {
      "midi": 93,
      "hit": false,
      "t": 83786.45833333328,
      "d": 88.54166666667152,
      "v": 110
    },
    {
      "midi": 69,
      "hit": false,
      "t": 83786.45833333328,
      "d": 117.1875,
      "v": 110
    },
    {
      "midi": 72,
      "hit": false,
      "t": 84020.83333333328,
      "d": 75.52083333332848,
      "v": 110
    },
    {
      "midi": 96,
      "hit": false,
      "t": 84020.83333333328,
      "d": 151.04166666665697,
      "v": 80
    },
    {
      "midi": 93,
      "hit": false,
      "t": 84135.41666666661,
      "d": 78.125,
      "v": 104
    },
    {
      "midi": 69,
      "hit": false,
      "t": 84135.41666666661,
      "d": 88.54166666667152,
      "v": 104
    },
    {
      "midi": 77,
      "hit": false,
      "t": 84369.79166666661,
      "d": 52.08333333332848,
      "v": 88
    },
    {
      "midi": 101,
      "hit": false,
      "t": 84369.79166666661,
      "d": 83.33333333332848,
      "v": 110
    },
    {
      "midi": 77,
      "hit": false,
      "t": 84606.77083333327,
      "d": 62.5,
      "v": 104
    },
    {
      "midi": 89,
      "hit": false,
      "t": 84606.77083333327,
      "d": 91.14583333332848,
      "v": 110
    },
    {
      "midi": 101,
      "hit": false,
      "t": 84606.77083333327,
      "d": 122.39583333332848,
      "v": 100
    },
    {
      "midi": 96,
      "hit": false,
      "t": 84729.1666666666,
      "d": 88.54166666667152,
      "v": 110
    },
    {
      "midi": 72,
      "hit": false,
      "t": 84729.1666666666,
      "d": 104.16666666667152,
      "v": 78
    },
    {
      "midi": 93,
      "hit": false,
      "t": 84841.14583333327,
      "d": 83.33333333332848,
      "v": 110
    },
    {
      "midi": 69,
      "hit": false,
      "t": 84841.14583333327,
      "d": 104.16666666665697,
      "v": 104
    },
    {
      "midi": 72,
      "hit": false,
      "t": 85078.12499999993,
      "d": 104.16666666667152,
      "v": 110
    },
    {
      "midi": 96,
      "hit": false,
      "t": 85078.12499999993,
      "d": 145.83333333334303,
      "v": 110
    },
    {
      "midi": 81,
      "hit": false,
      "t": 85192.70833333327,
      "d": 67.70833333332848,
      "v": 104
    },
    {
      "midi": 93,
      "hit": false,
      "t": 85192.70833333327,
      "d": 88.54166666665697,
      "v": 100
    },
    {
      "midi": 60,
      "hit": false,
      "t": 85434.89583333326,
      "d": 70.3125,
      "v": 90
    },
    {
      "midi": 84,
      "hit": false,
      "t": 85434.89583333326,
      "d": 80.72916666667152,
      "v": 104
    },
    {
      "midi": 87,
      "hit": false,
      "t": 85661.45833333326,
      "d": 96.35416666667152,
      "v": 110
    },
    {
      "midi": 63,
      "hit": false,
      "t": 85661.45833333326,
      "d": 109.375,
      "v": 88
    },
    {
      "midi": 67,
      "hit": false,
      "t": 85895.83333333326,
      "d": 161.45833333334303,
      "v": 91
    },
    {
      "midi": 91,
      "hit": false,
      "t": 85895.83333333326,
      "d": 164.06250000001455,
      "v": 110
    },
    {
      "midi": 87,
      "hit": false,
      "t": 86015.62499999993,
      "d": 62.50000000001455,
      "v": 110
    },
    {
      "midi": 63,
      "hit": false,
      "t": 86015.62499999993,
      "d": 83.33333333334303,
      "v": 92
    },
    {
      "midi": 72,
      "hit": false,
      "t": 86244.7916666666,
      "d": 88.54166666667152,
      "v": 110
    },
    {
      "midi": 96,
      "hit": false,
      "t": 86244.7916666666,
      "d": 88.54166666667152,
      "v": 110
    },
    {
      "midi": 72,
      "hit": false,
      "t": 86481.77083333327,
      "d": 85.9375,
      "v": 90
    },
    {
      "midi": 96,
      "hit": false,
      "t": 86481.77083333327,
      "d": 119.79166666667152,
      "v": 125
    },
    {
      "midi": 67,
      "hit": false,
      "t": 86601.56249999994,
      "d": 93.75,
      "v": 104
    },
    {
      "midi": 91,
      "hit": false,
      "t": 86601.56249999994,
      "d": 143.22916666665697,
      "v": 91
    },
    {
      "midi": 63,
      "hit": false,
      "t": 86716.14583333327,
      "d": 72.91666666665697,
      "v": 92
    },
    {
      "midi": 87,
      "hit": false,
      "t": 86716.14583333327,
      "d": 88.54166666665697,
      "v": 110
    },
    {
      "midi": 72,
      "hit": false,
      "t": 86953.12499999993,
      "d": 80.72916666667152,
      "v": 88
    },
    {
      "midi": 96,
      "hit": false,
      "t": 86953.12499999993,
      "d": 171.875,
      "v": 110
    },
    {
      "midi": 67,
      "hit": false,
      "t": 87078.12499999993,
      "d": 83.33333333332848,
      "v": 92
    },
    {
      "midi": 91,
      "hit": false,
      "t": 87078.12499999993,
      "d": 135.41666666665697,
      "v": 92
    },
    {
      "midi": 87,
      "hit": false,
      "t": 87182.29166666658,
      "d": 72.91666666667152,
      "v": 92
    },
    {
      "midi": 65,
      "hit": false,
      "t": 87307.29166666658,
      "d": 111.97916666667152,
      "v": 104
    },
    {
      "midi": 89,
      "hit": false,
      "t": 87307.29166666658,
      "d": 119.79166666667152,
      "v": 110
    },
    {
      "midi": 93,
      "hit": false,
      "t": 87539.06249999993,
      "d": 91.14583333332848,
      "v": 110
    },
    {
      "midi": 69,
      "hit": false,
      "t": 87539.06249999993,
      "d": 104.16666666665697,
      "v": 88
    },
    {
      "midi": 72,
      "hit": false,
      "t": 87773.43749999991,
      "d": 106.77083333332848,
      "v": 110
    },
    {
      "midi": 96,
      "hit": false,
      "t": 87773.43749999991,
      "d": 169.27083333332848,
      "v": 110
    },
    {
      "midi": 77,
      "hit": false,
      "t": 87888.02083333324,
      "d": 72.91666666667152,
      "v": 68
    },
    {
      "midi": 101,
      "hit": false,
      "t": 87888.02083333324,
      "d": 93.75,
      "v": 90
    },
    {
      "midi": 77,
      "hit": false,
      "t": 88124.99999999991,
      "d": 80.72916666667152,
      "v": 110
    },
    {
      "midi": 101,
      "hit": false,
      "t": 88124.99999999991,
      "d": 91.14583333334303,
      "v": 91
    },
    {
      "midi": 77,
      "hit": false,
      "t": 88359.37499999993,
      "d": 83.33333333332848,
      "v": 110
    },
    {
      "midi": 101,
      "hit": false,
      "t": 88359.37499999993,
      "d": 164.0625,
      "v": 104
    },
    {
      "midi": 72,
      "hit": false,
      "t": 88484.37499999993,
      "d": 93.75,
      "v": 88
    },
    {
      "midi": 96,
      "hit": false,
      "t": 88484.37499999993,
      "d": 161.45833333332848,
      "v": 84
    },
    {
      "midi": 69,
      "hit": false,
      "t": 88593.74999999993,
      "d": 80.72916666665697,
      "v": 91
    },
    {
      "midi": 93,
      "hit": false,
      "t": 88593.74999999993,
      "d": 96.35416666665697,
      "v": 110
    },
    {
      "midi": 72,
      "hit": false,
      "t": 88830.72916666658,
      "d": 93.75,
      "v": 92
    },
    {
      "midi": 96,
      "hit": false,
      "t": 88830.72916666658,
      "d": 143.22916666667152,
      "v": 110
    },
    {
      "midi": 93,
      "hit": false,
      "t": 89057.29166666658,
      "d": 39.0625,
      "v": 94
    },
    {
      "midi": 69,
      "hit": false,
      "t": 89057.29166666658,
      "d": 93.75,
      "v": 88
    },
    {
      "midi": 84,
      "hit": false,
      "t": 89184.89583333326,
      "d": 111.97916666667152,
      "v": 77
    },
    {
      "midi": 60,
      "hit": false,
      "t": 89184.89583333326,
      "d": 117.1875,
      "v": 80
    },
    {
      "midi": 87,
      "hit": false,
      "t": 89411.45833333326,
      "d": 52.08333333332848,
      "v": 80
    },
    {
      "midi": 63,
      "hit": false,
      "t": 89411.45833333326,
      "d": 85.9375,
      "v": 80
    },
    {
      "midi": 91,
      "hit": false,
      "t": 89536.45833333326,
      "d": 70.3125,
      "v": 88
    },
    {
      "midi": 67,
      "hit": false,
      "t": 89536.45833333326,
      "d": 88.54166666667152,
      "v": 90
    },
    {
      "midi": 91,
      "hit": false,
      "t": 89765.62499999993,
      "d": 54.6875,
      "v": 80
    },
    {
      "midi": 67,
      "hit": false,
      "t": 89765.62499999993,
      "d": 88.54166666667152,
      "v": 80
    },
    {
      "midi": 96,
      "hit": false,
      "t": 89882.81249999993,
      "d": 96.35416666667152,
      "v": 91
    },
    {
      "midi": 72,
      "hit": false,
      "t": 89882.81249999993,
      "d": 101.5625,
      "v": 92
    },
    {
      "midi": 84,
      "hit": false,
      "t": 90119.7916666666,
      "d": 114.58333333332848,
      "v": 92
    },
    {
      "midi": 60,
      "hit": false,
      "t": 90119.7916666666,
      "d": 158.85416666665697,
      "v": 92
    },
    {
      "midi": 91,
      "hit": false,
      "t": 90351.56249999993,
      "d": 49.47916666667152,
      "v": 78
    },
    {
      "midi": 67,
      "hit": false,
      "t": 90351.56249999993,
      "d": 98.95833333334303,
      "v": 79
    },
    {
      "midi": 72,
      "hit": false,
      "t": 90471.3541666666,
      "d": 52.08333333332848,
      "v": 72
    },
    {
      "midi": 96,
      "hit": false,
      "t": 90471.3541666666,
      "d": 72.91666666665697,
      "v": 80
    },
    {
      "midi": 72,
      "hit": false,
      "t": 90703.12499999993,
      "d": 65.10416666667152,
      "v": 80
    },
    {
      "midi": 96,
      "hit": false,
      "t": 90703.12499999993,
      "d": 98.95833333334303,
      "v": 110
    },
    {
      "midi": 91,
      "hit": false,
      "t": 90822.9166666666,
      "d": 72.91666666667152,
      "v": 110
    },
    {
      "midi": 67,
      "hit": false,
      "t": 90822.9166666666,
      "d": 93.75,
      "v": 110
    },
    {
      "midi": 84,
      "hit": false,
      "t": 91059.89583333327,
      "d": 203.125,
      "v": 110
    },
    {
      "midi": 60,
      "hit": false,
      "t": 91059.89583333327,
      "d": 221.35416666667152,
      "v": 127
    },
    {
      "midi": 84,
      "hit": false,
      "t": 91411.45833333327,
      "d": 75.52083333332848,
      "v": 125
    },
    {
      "midi": 60,
      "hit": false,
      "t": 91411.45833333327,
      "d": 91.14583333332848,
      "v": 125
    }
  ]
}