{
  "jsonPath": "Rock/Pop Punk/Blink 182/dammit.json",
  "path": "Rock\\Pop Punk\\Blink 182\\Dammit.mid",
  "name": "Dammit",
  "difficulty": "Intermediate",
  "bpm": 214.99982083348263,
  "notes": [
    {
      "midi": 83,
      "hit": false,
      "t": 125023.36000000002,
      "d": 2232.560000000012,
      "v": 60
    },
    {
      "midi": 60,
      "hit": false,
      "t": 126976.85000000002,
      "d": 279.070000000007,
      "v": 100
    },
    {
      "midi": 62,
      "hit": false,
      "t": 127255.92000000003,
      "d": 418.6049999999959,
      "v": 100
    },
    {
      "midi": 84,
      "hit": false,
      "t": 127255.92000000003,
      "d": 418.6049999999959,
      "v": 60
    },
    {
      "midi": 64,
      "hit": false,
      "t": 127674.52500000002,
      "d": 418.6049999999959,
      "v": 100
    },
    {
      "midi": 83,
      "hit": false,
      "t": 127674.52500000002,
      "d": 418.6049999999959,
      "v": 60
    },
    {
      "midi": 60,
      "hit": false,
      "t": 128093.13000000002,
      "d": 1116.2799999999988,
      "v": 100
    },
    {
      "midi": 79,
      "hit": false,
      "t": 128093.13000000002,
      "d": 1395.3500000000058,
      "v": 100
    },
    {
      "midi": 60,
      "hit": false,
      "t": 129209.41000000002,
      "d": 279.070000000007,
      "v": 100
    },
    {
      "midi": 64,
      "hit": false,
      "t": 129488.48000000003,
      "d": 418.6049999999959,
      "v": 100
    },
    {
      "midi": 83,
      "hit": false,
      "t": 129488.48000000003,
      "d": 418.6049999999959,
      "v": 60
    },
    {
      "midi": 60,
      "hit": false,
      "t": 129907.08500000002,
      "d": 418.6049999999959,
      "v": 100
    },
    {
      "midi": 79,
      "hit": false,
      "t": 129907.08500000002,
      "d": 418.6049999999959,
      "v": 60
    },
    {
      "midi": 55,
      "hit": false,
      "t": 130325.69000000002,
      "d": 1116.2800000000134,
      "v": 100
    },
    {
      "midi": 79,
      "hit": false,
      "t": 130325.69000000002,
      "d": 1395.3500000000204,
      "v": 60
    },
    {
      "midi": 60,
      "hit": false,
      "t": 131441.97000000003,
      "d": 279.070000000007,
      "v": 100
    },
    {
      "midi": 62,
      "hit": false,
      "t": 131721.04000000004,
      "d": 418.6050000000105,
      "v": 100
    },
    {
      "midi": 79,
      "hit": false,
      "t": 131721.04000000004,
      "d": 418.6050000000105,
      "v": 60
    },
    {
      "midi": 64,
      "hit": false,
      "t": 132139.64500000005,
      "d": 418.6050000000105,
      "v": 100
    },
    {
      "midi": 83,
      "hit": false,
      "t": 132139.64500000005,
      "d": 418.6050000000105,
      "v": 60
    },
    {
      "midi": 60,
      "hit": false,
      "t": 132558.25000000006,
      "d": 279.070000000007,
      "v": 100
    },
    {
      "midi": 79,
      "hit": false,
      "t": 132558.25000000006,
      "d": 697.6750000000175,
      "v": 60
    },
    {
      "midi": 62,
      "hit": false,
      "t": 132837.32000000007,
      "d": 418.6050000000105,
      "v": 100
    },
    {
      "midi": 64,
      "hit": false,
      "t": 133255.92500000008,
      "d": 418.6050000000105,
      "v": 100
    },
    {
      "midi": 83,
      "hit": false,
      "t": 133255.92500000008,
      "d": 418.6050000000105,
      "v": 60
    },
    {
      "midi": 60,
      "hit": false,
      "t": 133674.5300000001,
      "d": 279.070000000007,
      "v": 100
    },
    {
      "midi": 79,
      "hit": false,
      "t": 133674.5300000001,
      "d": 279.070000000007,
      "v": 60
    },
    {
      "midi": 64,
      "hit": false,
      "t": 133953.6000000001,
      "d": 418.6050000000105,
      "v": 100
    },
    {
      "midi": 84,
      "hit": false,
      "t": 133953.6000000001,
      "d": 418.6050000000105,
      "v": 60
    },
    {
      "midi": 60,
      "hit": false,
      "t": 134372.2050000001,
      "d": 418.6050000000105,
      "v": 100
    },
    {
      "midi": 83,
      "hit": false,
      "t": 134372.2050000001,
      "d": 418.6050000000105,
      "v": 100
    },
    {
      "midi": 55,
      "hit": false,
      "t": 134790.8100000001,
      "d": 1116.2799999999988,
      "v": 100
    },
    {
      "midi": 83,
      "hit": false,
      "t": 134790.8100000001,
      "d": 1395.3500000000058,
      "v": 60
    },
    {
      "midi": 60,
      "hit": false,
      "t": 135907.0900000001,
      "d": 279.070000000007,
      "v": 100
    },
    {
      "midi": 62,
      "hit": false,
      "t": 136186.16000000012,
      "d": 418.6050000000105,
      "v": 100
    },
    {
      "midi": 79,
      "hit": false,
      "t": 136186.16000000012,
      "d": 418.6050000000105,
      "v": 100
    },
    {
      "midi": 64,
      "hit": false,
      "t": 136604.76500000013,
      "d": 418.6050000000105,
      "v": 100
    },
    {
      "midi": 83,
      "hit": false,
      "t": 136604.76500000013,
      "d": 418.6050000000105,
      "v": 60
    },
    {
      "midi": 60,
      "hit": false,
      "t": 137023.37000000014,
      "d": 1116.2799999999988,
      "v": 100
    },
    {
      "midi": 79,
      "hit": false,
      "t": 137023.37000000014,
      "d": 1395.3500000000058,
      "v": 60
    },
    {
      "midi": 60,
      "hit": false,
      "t": 138139.65000000014,
      "d": 279.070000000007,
      "v": 100
    },
    {
      "midi": 64,
      "hit": false,
      "t": 138418.72000000015,
      "d": 418.6050000000105,
      "v": 100
    },
    {
      "midi": 79,
      "hit": false,
      "t": 138418.72000000015,
      "d": 418.6050000000105,
      "v": 60
    },
    {
      "midi": 60,
      "hit": false,
      "t": 138837.32500000016,
      "d": 418.6050000000105,
      "v": 100
    },
    {
      "midi": 79,
      "hit": false,
      "t": 138837.32500000016,
      "d": 418.6050000000105,
      "v": 60
    },
    {
      "midi": 55,
      "hit": false,
      "t": 139255.93000000017,
      "d": 1116.2799999999988,
      "v": 100
    },
    {
      "midi": 79,
      "hit": false,
      "t": 139255.93000000017,
      "d": 1395.3500000000058,
      "v": 60
    },
    {
      "midi": 60,
      "hit": false,
      "t": 140372.21000000017,
      "d": 279.070000000007,
      "v": 100
    },
    {
      "midi": 62,
      "hit": false,
      "t": 140651.28000000017,
      "d": 418.6050000000105,
      "v": 100
    },
    {
      "midi": 79,
      "hit": false,
      "t": 140651.28000000017,
      "d": 418.6050000000105,
      "v": 60
    },
    {
      "midi": 64,
      "hit": false,
      "t": 141069.88500000018,
      "d": 418.6050000000105,
      "v": 100
    },
    {
      "midi": 79,
      "hit": false,
      "t": 141069.88500000018,
      "d": 418.6050000000105,
      "v": 60
    },
    {
      "midi": 60,
      "hit": false,
      "t": 141488.4900000002,
      "d": 279.070000000007,
      "v": 100
    },
    {
      "midi": 79,
      "hit": false,
      "t": 141488.4900000002,
      "d": 1395.350000000035,
      "v": 60
    },
    {
      "midi": 62,
      "hit": false,
      "t": 141767.5600000002,
      "d": 418.6050000000105,
      "v": 100
    },
    {
      "midi": 64,
      "hit": false,
      "t": 142186.1650000002,
      "d": 418.6050000000105,
      "v": 100
    },
    {
      "midi": 60,
      "hit": false,
      "t": 142604.77000000022,
      "d": 279.070000000007,
      "v": 100
    }
  ]
}