{
  "jsonPath": "Animes/Witch Hunter Robin MIDI Collection/opening.json",
  "path": "Animes\\Witch Hunter Robin MIDI Collection\\Opening.mid",
  "name": "Opening",
  "difficulty": "Advanced",
  "bpm": 160,
  "notes": [
    {
      "midi": 39,
      "hit": false,
      "t": 0,
      "d": 375,
      "v": 95
    },
    {
      "midi": 39,
      "hit": false,
      "t": 375,
      "d": 375,
      "v": 95
    },
    {
      "midi": 46,
      "hit": false,
      "t": 750,
      "d": 375,
      "v": 95
    },
    {
      "midi": 43,
      "hit": false,
      "t": 1125,
      "d": 15.625,
      "v": 127
    },
    {
      "midi": 38,
      "hit": false,
      "t": 1125,
      "d": 15.625,
      "v": 127
    },
    {
      "midi": 47,
      "hit": false,
      "t": 1875,
      "d": 750,
      "v": 95
    },
    {
      "midi": 46,
      "hit": false,
      "t": 2625,
      "d": 750,
      "v": 95
    },
    {
      "midi": 42,
      "hit": false,
      "t": 2625,
      "d": 750,
      "v": 95
    },
    {
      "midi": 46,
      "hit": false,
      "t": 3375,
      "d": 375,
      "v": 95
    },
    {
      "midi": 42,
      "hit": false,
      "t": 3375,
      "d": 375,
      "v": 95
    },
    {
      "midi": 46,
      "hit": false,
      "t": 3750,
      "d": 375,
      "v": 95
    },
    {
      "midi": 42,
      "hit": false,
      "t": 3750,
      "d": 375,
      "v": 95
    },
    {
      "midi": 43,
      "hit": false,
      "t": 4125,
      "d": 15.625,
      "v": 127
    },
    {
      "midi": 38,
      "hit": false,
      "t": 4125,
      "d": 15.625,
      "v": 127
    },
    {
      "midi": 37,
      "hit": false,
      "t": 4500,
      "d": 375,
      "v": 95
    },
    {
      "midi": 37,
      "hit": false,
      "t": 4875,
      "d": 375,
      "v": 95
    },
    {
      "midi": 49,
      "hit": false,
      "t": 5250,
      "d": 375,
      "v": 95
    },
    {
      "midi": 61,
      "hit": false,
      "t": 5250,
      "d": 375,
      "v": 95
    },
    {
      "midi": 39,
      "hit": false,
      "t": 6000,
      "d": 375,
      "v": 95
    },
    {
      "midi": 39,
      "hit": false,
      "t": 6375,
      "d": 375,
      "v": 95
    },
    {
      "midi": 46,
      "hit": false,
      "t": 6750,
      "d": 375,
      "v": 95
    },
    {
      "midi": 43,
      "hit": false,
      "t": 7125,
      "d": 15.625,
      "v": 127
    },
    {
      "midi": 38,
      "hit": false,
      "t": 7125,
      "d": 15.625,
      "v": 127
    },
    {
      "midi": 47,
      "hit": false,
      "t": 7875,
      "d": 750,
      "v": 95
    },
    {
      "midi": 46,
      "hit": false,
      "t": 8625,
      "d": 750,
      "v": 95
    },
    {
      "midi": 42,
      "hit": false,
      "t": 8625,
      "d": 750,
      "v": 95
    },
    {
      "midi": 37,
      "hit": false,
      "t": 8625,
      "d": 375,
      "v": 95
    },
    {
      "midi": 42,
      "hit": false,
      "t": 9000,
      "d": 1500,
      "v": 95
    },
    {
      "midi": 46,
      "hit": false,
      "t": 9375,
      "d": 375,
      "v": 95
    },
    {
      "midi": 42,
      "hit": false,
      "t": 9375,
      "d": 375,
      "v": 95
    },
    {
      "midi": 45,
      "hit": false,
      "t": 9375,
      "d": 375,
      "v": 95
    },
    {
      "midi": 46,
      "hit": false,
      "t": 9750,
      "d": 375,
      "v": 95
    },
    {
      "midi": 42,
      "hit": false,
      "t": 9750,
      "d": 375,
      "v": 95
    },
    {
      "midi": 47,
      "hit": false,
      "t": 9750,
      "d": 562.5,
      "v": 95
    },
    {
      "midi": 38,
      "hit": false,
      "t": 9750,
      "d": 562.5,
      "v": 95
    },
    {
      "midi": 46,
      "hit": false,
      "t": 9750,
      "d": 562.5,
      "v": 95
    },
    {
      "midi": 45,
      "hit": false,
      "t": 10312.5,
      "d": 187.5,
      "v": 95
    },
    {
      "midi": 37,
      "hit": false,
      "t": 10500,
      "d": 375,
      "v": 95
    },
    {
      "midi": 37,
      "hit": false,
      "t": 10500,
      "d": 375,
      "v": 95
    },
    {
      "midi": 38,
      "hit": false,
      "t": 10500,
      "d": 375,
      "v": 95
    },
    {
      "midi": 47,
      "hit": false,
      "t": 10500,
      "d": 375,
      "v": 95
    },
    {
      "midi": 41,
      "hit": false,
      "t": 10875,
      "d": 375,
      "v": 95
    },
    {
      "midi": 37,
      "hit": false,
      "t": 10875,
      "d": 375,
      "v": 95
    },
    {
      "midi": 41,
      "hit": false,
      "t": 10875,
      "d": 375,
      "v": 95
    },
    {
      "midi": 38,
      "hit": false,
      "t": 10875,
      "d": 375,
      "v": 95
    },
    {
      "midi": 47,
      "hit": false,
      "t": 10875,
      "d": 375,
      "v": 95
    },
    {
      "midi": 42,
      "hit": false,
      "t": 11250,
      "d": 187.5,
      "v": 95
    },
    {
      "midi": 42,
      "hit": false,
      "t": 11250,
      "d": 187.5,
      "v": 95
    },
    {
      "midi": 47,
      "hit": false,
      "t": 11250,
      "d": 187.5,
      "v": 95
    },
    {
      "midi": 41,
      "hit": false,
      "t": 11437.5,
      "d": 187.5,
      "v": 95
    },
    {
      "midi": 41,
      "hit": false,
      "t": 11437.5,
      "d": 187.5,
      "v": 95
    },
    {
      "midi": 47,
      "hit": false,
      "t": 11437.5,
      "d": 187.5,
      "v": 95
    },
    {
      "midi": 51,
      "hit": false,
      "t": 11625,
      "d": 187.5,
      "v": 127
    },
    {
      "midi": 37,
      "hit": false,
      "t": 11625,
      "d": 375,
      "v": 95
    },
    {
      "midi": 37,
      "hit": false,
      "t": 11625,
      "d": 375,
      "v": 95
    },
    {
      "midi": 45,
      "hit": false,
      "t": 11625,
      "d": 375,
      "v": 95
    },
    {
      "midi": 54,
      "hit": false,
      "t": 11812.5,
      "d": 187.5,
      "v": 127
    },
    {
      "midi": 56,
      "hit": false,
      "t": 12000,
      "d": 375,
      "v": 127
    },
    {
      "midi": 39,
      "hit": false,
      "t": 12000,
      "d": 375,
      "v": 95
    },
    {
      "midi": 39,
      "hit": false,
      "t": 12000,
      "d": 1500,
      "v": 95
    },
    {
      "midi": 42,
      "hit": false,
      "t": 12000,
      "d": 375,
      "v": 95
    },
    {
      "midi": 36,
      "hit": false,
      "t": 12000,
      "d": 375,
      "v": 95
    },
    {
      "midi": 66,
      "hit": false,
      "t": 12000,
      "d": 375,
      "v": 95
    },
    {
      "midi": 63,
      "hit": false,
      "t": 12000,
      "d": 375,
      "v": 95
    },
    {
      "midi": 58,
      "hit": false,
      "t": 12000,
      "d": 375,
      "v": 95
    },
    {
      "midi": 51,
      "hit": false,
      "t": 12000,
      "d": 375,
      "v": 95
    },
    {
      "midi": 54,
      "hit": false,
      "t": 12375,
      "d": 187.5,
      "v": 127
    },
    {
      "midi": 39,
      "hit": false,
      "t": 12375,
      "d": 375,
      "v": 95
    },
    {
      "midi": 42,
      "hit": false,
      "t": 12375,
      "d": 375,
      "v": 95
    },
    {
      "midi": 66,
      "hit": false,
      "t": 12375,
      "d": 375,
      "v": 95
    },
    {
      "midi": 63,
      "hit": false,
      "t": 12375,
      "d": 375,
      "v": 95
    },
    {
      "midi": 58,
      "hit": false,
      "t": 12375,
      "d": 375,
      "v": 95
    },
    {
      "midi": 51,
      "hit": false,
      "t": 12375,
      "d": 375,
      "v": 95
    },
    {
      "midi": 54,
      "hit": false,
      "t": 12562.5,
      "d": 187.5,
      "v": 127
    },
    {
      "midi": 56,
      "hit": false,
      "t": 12750,
      "d": 375,
      "v": 127
    },
    {
      "midi": 46,
      "hit": false,
      "t": 12750,
      "d": 375,
      "v": 95
    },
    {
      "midi": 42,
      "hit": false,
      "t": 12750,
      "d": 375,
      "v": 95
    },
    {
      "midi": 38,
      "hit": false,
      "t": 12750,
      "d": 375,
      "v": 95
    },
    {
      "midi": 66,
      "hit": false,
      "t": 12750,
      "d": 375,
      "v": 95
    },
    {
      "midi": 63,
      "hit": false,
      "t": 12750,
      "d": 375,
      "v": 95
    },
    {
      "midi": 58,
      "hit": false,
      "t": 12750,
      "d": 375,
      "v": 95
    },
    {
      "midi": 51,
      "hit": false,
      "t": 12750,
      "d": 375,
      "v": 95
    },
    {
      "midi": 54,
      "hit": false,
      "t": 13125,
      "d": 187.5,
      "v": 127
    },
    {
      "midi": 43,
      "hit": false,
      "t": 13125,
      "d": 15.625,
      "v": 127
    },
    {
      "midi": 38,
      "hit": false,
      "t": 13125,
      "d": 15.625,
      "v": 127
    },
    {
      "midi": 42,
      "hit": false,
      "t": 13125,
      "d": 375,
      "v": 95
    },
    {
      "midi": 66,
      "hit": false,
      "t": 13125,
      "d": 375,
      "v": 95
    },
    {
      "midi": 63,
      "hit": false,
      "t": 13125,
      "d": 375,
      "v": 95
    },
    {
      "midi": 58,
      "hit": false,
      "t": 13125,
      "d": 375,
      "v": 95
    },
    {
      "midi": 51,
      "hit": false,
      "t": 13125,
      "d": 375,
      "v": 95
    },
    {
      "midi": 54,
      "hit": false,
      "t": 13312.5,
      "d": 1312.5,
      "v": 127
    },
    {
      "midi": 35,
      "hit": false,
      "t": 13500,
      "d": 1500,
      "v": 95
    },
    {
      "midi": 42,
      "hit": false,
      "t": 13500,
      "d": 375,
      "v": 95
    },
    {
      "midi": 36,
      "hit": false,
      "t": 13500,
      "d": 375,
      "v": 95
    },
    {
      "midi": 66,
      "hit": false,
      "t": 13500,
      "d": 375,
      "v": 95
    },
    {
      "midi": 63,
      "hit": false,
      "t": 13500,
      "d": 375,
      "v": 95
    },
    {
      "midi": 59,
      "hit": false,
      "t": 13500,
      "d": 375,
      "v": 95
    },
    {
      "midi": 54,
      "hit": false,
      "t": 13500,
      "d": 375,
      "v": 95
    },
    {
      "midi": 47,
      "hit": false,
      "t": 13500,
      "d": 375,
      "v": 95
    },
    {
      "midi": 47,
      "hit": false,
      "t": 13875,
      "d": 750,
      "v": 95
    },
    {
      "midi": 42,
      "hit": false,
      "t": 13875,
      "d": 375,
      "v": 95
    },
    {
      "midi": 66,
      "hit": false,
      "t": 13875,
      "d": 375,
      "v": 95
    },
    {
      "midi": 63,
      "hit": false,
      "t": 13875,
      "d": 375,
      "v": 95
    },
    {
      "midi": 59,
      "hit": false,
      "t": 13875,
      "d": 375,
      "v": 95
    },
    {
      "midi": 54,
      "hit": false,
      "t": 13875,
      "d": 375,
      "v": 95
    },
    {
      "midi": 47,
      "hit": false,
      "t": 13875,
      "d": 375,
      "v": 95
    },
    {
      "midi": 42,
      "hit": false,
      "t": 14250,
      "d": 375,
      "v": 95
    },
    {
      "midi": 38,
      "hit": false,
      "t": 14250,
      "d": 375,
      "v": 95
    },
    {
      "midi": 66,
      "hit": false,
      "t": 14250,
      "d": 375,
      "v": 95
    },
    {
      "midi": 63,
      "hit": false,
      "t": 14250,
      "d": 375,
      "v": 95
    },
    {
      "midi": 59,
      "hit": false,
      "t": 14250,
      "d": 375,
      "v": 95
    },
    {
      "midi": 54,
      "hit": false,
      "t": 14250,
      "d": 375,
      "v": 95
    },
    {
      "midi": 47,
      "hit": false,
      "t": 14250,
      "d": 375,
      "v": 95
    },
    {
      "midi": 53,
      "hit": false,
      "t": 14625,
      "d": 187.5,
      "v": 127
    },
    {
      "midi": 46,
      "hit": false,
      "t": 14625,
      "d": 750,
      "v": 95
    },
    {
      "midi": 42,
      "hit": false,
      "t": 14625,
      "d": 750,
      "v": 95
    },
    {
      "midi": 42,
      "hit": false,
      "t": 14625,
      "d": 375,
      "v": 95
    },
    {
      "midi": 66,
      "hit": false,
      "t": 14625,
      "d": 375,
      "v": 95
    },
    {
      "midi": 63,
      "hit": false,
      "t": 14625,
      "d": 375,
      "v": 95
    },
    {
      "midi": 59,
      "hit": false,
      "t": 14625,
      "d": 375,
      "v": 95
    },
    {
      "midi": 54,
      "hit": false,
      "t": 14625,
      "d": 375,
      "v": 95
    },
    {
      "midi": 47,
      "hit": false,
      "t": 14625,
      "d": 375,
      "v": 95
    },
    {
      "midi": 54,
      "hit": false,
      "t": 14812.5,
      "d": 1312.5,
      "v": 127
    },
    {
      "midi": 42,
      "hit": false,
      "t": 15000,
      "d": 1500,
      "v": 95
    },
    {
      "midi": 42,
      "hit": false,
      "t": 15000,
      "d": 375,
      "v": 95
    },
    {
      "midi": 36,
      "hit": false,
      "t": 15000,
      "d": 375,
      "v": 95
    },
    {
      "midi": 66,
      "hit": false,
      "t": 15000,
      "d": 375,
      "v": 95
    },
    {
      "midi": 61,
      "hit": false,
      "t": 15000,
      "d": 375,
      "v": 95
    },
    {
      "midi": 58,
      "hit": false,
      "t": 15000,
      "d": 375,
      "v": 95
    },
    {
      "midi": 54,
      "hit": false,
      "t": 15000,
      "d": 375,
      "v": 95
    },
    {
      "midi": 49,
      "hit": false,
      "t": 15000,
      "d": 375,
      "v": 95
    },
    {
      "midi": 46,
      "hit": false,
      "t": 15375,
      "d": 375,
      "v": 95
    },
    {
      "midi": 42,
      "hit": false,
      "t": 15375,
      "d": 375,
      "v": 95
    },
    {
      "midi": 42,
      "hit": false,
      "t": 15375,
      "d": 375,
      "v": 95
    },
    {
      "midi": 66,
      "hit": false,
      "t": 15375,
      "d": 375,
      "v": 95
    },
    {
      "midi": 61,
      "hit": false,
      "t": 15375,
      "d": 375,
      "v": 95
    },
    {
      "midi": 58,
      "hit": false,
      "t": 15375,
      "d": 375,
      "v": 95
    },
    {
      "midi": 54,
      "hit": false,
      "t": 15375,
      "d": 375,
      "v": 95
    },
    {
      "midi": 49,
      "hit": false,
      "t": 15375,
      "d": 375,
      "v": 95
    },
    {
      "midi": 46,
      "hit": false,
      "t": 15750,
      "d": 375,
      "v": 95
    },
    {
      "midi": 42,
      "hit": false,
      "t": 15750,
      "d": 375,
      "v": 95
    },
    {
      "midi": 42,
      "hit": false,
      "t": 15750,
      "d": 375,
      "v": 95
    },
    {
      "midi": 38,
      "hit": false,
      "t": 15750,
      "d": 375,
      "v": 95
    },
    {
      "midi": 66,
      "hit": false,
      "t": 15750,
      "d": 375,
      "v": 95
    },
    {
      "midi": 61,
      "hit": false,
      "t": 15750,
      "d": 375,
      "v": 95
    },
    {
      "midi": 58,
      "hit": false,
      "t": 15750,
      "d": 375,
      "v": 95
    },
    {
      "midi": 54,
      "hit": false,
      "t": 15750,
      "d": 375,
      "v": 95
    },
    {
      "midi": 49,
      "hit": false,
      "t": 15750,
      "d": 375,
      "v": 95
    },
    {
      "midi": 54,
      "hit": false,
      "t": 16125,
      "d": 375,
      "v": 127
    },
    {
      "midi": 42,
      "hit": false,
      "t": 16125,
      "d": 375,
      "v": 95
    },
    {
      "midi": 66,
      "hit": false,
      "t": 16125,
      "d": 375,
      "v": 95
    },
    {
      "midi": 61,
      "hit": false,
      "t": 16125,
      "d": 375,
      "v": 95
    },
    {
      "midi": 58,
      "hit": false,
      "t": 16125,
      "d": 375,
      "v": 95
    },
    {
      "midi": 54,
      "hit": false,
      "t": 16125,
      "d": 375,
      "v": 95
    },
    {
      "midi": 49,
      "hit": false,
      "t": 16125,
      "d": 375,
      "v": 95
    },
    {
      "midi": 51,
      "hit": false,
      "t": 16500,
      "d": 375,
      "v": 127
    },
    {
      "midi": 49,
      "hit": false,
      "t": 16500,
      "d": 375,
      "v": 95
    },
    {
      "midi": 37,
      "hit": false,
      "t": 16500,
      "d": 375,
      "v": 95
    },
    {
      "midi": 37,
      "hit": false,
      "t": 16500,
      "d": 1500,
      "v": 95
    },
    {
      "midi": 42,
      "hit": false,
      "t": 16500,
      "d": 375,
      "v": 95
    },
    {
      "midi": 36,
      "hit": false,
      "t": 16500,
      "d": 375,
      "v": 95
    },
    {
      "midi": 65,
      "hit": false,
      "t": 16500,
      "d": 375,
      "v": 95
    },
    {
      "midi": 61,
      "hit": false,
      "t": 16500,
      "d": 375,
      "v": 95
    },
    {
      "midi": 56,
      "hit": false,
      "t": 16500,
      "d": 375,
      "v": 95
    },
    {
      "midi": 53,
      "hit": false,
      "t": 16500,
      "d": 375,
      "v": 95
    },
    {
      "midi": 49,
      "hit": false,
      "t": 16500,
      "d": 375,
      "v": 95
    },
    {
      "midi": 49,
      "hit": false,
      "t": 16875,
      "d": 187.5,
      "v": 127
    },
    {
      "midi": 49,
      "hit": false,
      "t": 16875,
      "d": 375,
      "v": 95
    },
    {
      "midi": 37,
      "hit": false,
      "t": 16875,
      "d": 375,
      "v": 95
    },
    {
      "midi": 42,
      "hit": false,
      "t": 16875,
      "d": 375,
      "v": 95
    },
    {
      "midi": 65,
      "hit": false,
      "t": 16875,
      "d": 375,
      "v": 95
    },
    {
      "midi": 61,
      "hit": false,
      "t": 16875,
      "d": 375,
      "v": 95
    },
    {
      "midi": 56,
      "hit": false,
      "t": 16875,
      "d": 375,
      "v": 95
    },
    {
      "midi": 53,
      "hit": false,
      "t": 16875,
      "d": 375,
      "v": 95
    },
    {
      "midi": 49,
      "hit": false,
      "t": 16875,
      "d": 375,
      "v": 95
    },
    {
      "midi": 51,
      "hit": false,
      "t": 17062.5,
      "d": 375,
      "v": 127
    },
    {
      "midi": 49,
      "hit": false,
      "t": 17250,
      "d": 375,
      "v": 95
    },
    {
      "midi": 37,
      "hit": false,
      "t": 17250,
      "d": 375,
      "v": 95
    },
    {
      "midi": 42,
      "hit": false,
      "t": 17250,
      "d": 375,
      "v": 95
    },
    {
      "midi": 38,
      "hit": false,
      "t": 17250,
      "d": 375,
      "v": 95
    },
    {
      "midi": 65,
      "hit": false,
      "t": 17250,
      "d": 375,
      "v": 95
    },
    {
      "midi": 61,
      "hit": false,
      "t": 17250,
      "d": 375,
      "v": 95
    },
    {
      "midi": 56,
      "hit": false,
      "t": 17250,
      "d": 375,
      "v": 95
    },
    {
      "midi": 53,
      "hit": false,
      "t": 17250,
      "d": 375,
      "v": 95
    },
    {
      "midi": 49,
      "hit": false,
      "t": 17250,
      "d": 375,
      "v": 95
    },
    {
      "midi": 49,
      "hit": false,
      "t": 17437.5,
      "d": 187.5,
      "v": 127
    },
    {
      "midi": 46,
      "hit": false,
      "t": 17625,
      "d": 375,
      "v": 127
    },
    {
      "midi": 42,
      "hit": false,
      "t": 17625,
      "d": 375,
      "v": 95
    },
    {
      "midi": 65,
      "hit": false,
      "t": 17625,
      "d": 375,
      "v": 95
    },
    {
      "midi": 61,
      "hit": false,
      "t": 17625,
      "d": 375,
      "v": 95
    },
    {
      "midi": 56,
      "hit": false,
      "t": 17625,
      "d": 375,
      "v": 95
    },
    {
      "midi": 53,
      "hit": false,
      "t": 17625,
      "d": 375,
      "v": 95
    },
    {
      "midi": 49,
      "hit": false,
      "t": 17625,
      "d": 375,
      "v": 95
    },
    {
      "midi": 39,
      "hit": false,
      "t": 18000,
      "d": 375,
      "v": 95
    },
    {
      "midi": 39,
      "hit": false,
      "t": 18000,
      "d": 1500,
      "v": 95
    },
    {
      "midi": 42,
      "hit": false,
      "t": 18000,
      "d": 375,
      "v": 95
    },
    {
      "midi": 36,
      "hit": false,
      "t": 18000,
      "d": 375,
      "v": 95
    },
    {
      "midi": 66,
      "hit": false,
      "t": 18000,
      "d": 375,
      "v": 95
    },
    {
      "midi": 63,
      "hit": false,
      "t": 18000,
      "d": 375,
      "v": 95
    },
    {
      "midi": 58,
      "hit": false,
      "t": 18000,
      "d": 375,
      "v": 95
    },
    {
      "midi": 51,
      "hit": false,
      "t": 18000,
      "d": 375,
      "v": 95
    },
    {
      "midi": 39,
      "hit": false,
      "t": 18375,
      "d": 375,
      "v": 95
    },
    {
      "midi": 42,
      "hit": false,
      "t": 18375,
      "d": 375,
      "v": 95
    },
    {
      "midi": 66,
      "hit": false,
      "t": 18375,
      "d": 375,
      "v": 95
    },
    {
      "midi": 63,
      "hit": false,
      "t": 18375,
      "d": 375,
      "v": 95
    },
    {
      "midi": 58,
      "hit": false,
      "t": 18375,
      "d": 375,
      "v": 95
    },
    {
      "midi": 51,
      "hit": false,
      "t": 18375,
      "d": 375,
      "v": 95
    },
    {
      "midi": 46,
      "hit": false,
      "t": 18750,
      "d": 375,
      "v": 127
    },
    {
      "midi": 46,
      "hit": false,
      "t": 18750,
      "d": 375,
      "v": 95
    },
    {
      "midi": 42,
      "hit": false,
      "t": 18750,
      "d": 375,
      "v": 95
    },
    {
      "midi": 38,
      "hit": false,
      "t": 18750,
      "d": 375,
      "v": 95
    },
    {
      "midi": 66,
      "hit": false,
      "t": 18750,
      "d": 375,
      "v": 95
    },
    {
      "midi": 63,
      "hit": false,
      "t": 18750,
      "d": 375,
      "v": 95
    },
    {
      "midi": 58,
      "hit": false,
      "t": 18750,
      "d": 375,
      "v": 95
    },
    {
      "midi": 51,
      "hit": false,
      "t": 18750,
      "d": 375,
      "v": 95
    },
    {
      "midi": 49,
      "hit": false,
      "t": 19125,
      "d": 187.5,
      "v": 127
    },
    {
      "midi": 43,
      "hit": false,
      "t": 19125,
      "d": 15.625,
      "v": 127
    },
    {
      "midi": 38,
      "hit": false,
      "t": 19125,
      "d": 15.625,
      "v": 127
    },
    {
      "midi": 42,
      "hit": false,
      "t": 19125,
      "d": 375,
      "v": 95
    },
    {
      "midi": 66,
      "hit": false,
      "t": 19125,
      "d": 375,
      "v": 95
    },
    {
      "midi": 63,
      "hit": false,
      "t": 19125,
      "d": 375,
      "v": 95
    },
    {
      "midi": 58,
      "hit": false,
      "t": 19125,
      "d": 375,
      "v": 95
    },
    {
      "midi": 51,
      "hit": false,
      "t": 19125,
      "d": 375,
      "v": 95
    },
    {
      "midi": 46,
      "hit": false,
      "t": 19312.5,
      "d": 187.5,
      "v": 127
    },
    {
      "midi": 35,
      "hit": false,
      "t": 19500,
      "d": 1500,
      "v": 95
    },
    {
      "midi": 42,
      "hit": false,
      "t": 19500,
      "d": 375,
      "v": 95
    },
    {
      "midi": 36,
      "hit": false,
      "t": 19500,
      "d": 375,
      "v": 95
    },
    {
      "midi": 66,
      "hit": false,
      "t": 19500,
      "d": 375,
      "v": 95
    },
    {
      "midi": 63,
      "hit": false,
      "t": 19500,
      "d": 375,
      "v": 95
    },
    {
      "midi": 59,
      "hit": false,
      "t": 19500,
      "d": 375,
      "v": 95
    },
    {
      "midi": 54,
      "hit": false,
      "t": 19500,
      "d": 375,
      "v": 95
    },
    {
      "midi": 47,
      "hit": false,
      "t": 19500,
      "d": 375,
      "v": 95
    },
    {
      "midi": 47,
      "hit": false,
      "t": 19875,
      "d": 750,
      "v": 95
    },
    {
      "midi": 42,
      "hit": false,
      "t": 19875,
      "d": 375,
      "v": 95
    },
    {
      "midi": 66,
      "hit": false,
      "t": 19875,
      "d": 375,
      "v": 95
    },
    {
      "midi": 63,
      "hit": false,
      "t": 19875,
      "d": 375,
      "v": 95
    },
    {
      "midi": 59,
      "hit": false,
      "t": 19875,
      "d": 375,
      "v": 95
    },
    {
      "midi": 54,
      "hit": false,
      "t": 19875,
      "d": 375,
      "v": 95
    },
    {
      "midi": 47,
      "hit": false,
      "t": 19875,
      "d": 375,
      "v": 95
    },
    {
      "midi": 42,
      "hit": false,
      "t": 20250,
      "d": 375,
      "v": 95
    },
    {
      "midi": 38,
      "hit": false,
      "t": 20250,
      "d": 375,
      "v": 95
    },
    {
      "midi": 66,
      "hit": false,
      "t": 20250,
      "d": 375,
      "v": 95
    },
    {
      "midi": 63,
      "hit": false,
      "t": 20250,
      "d": 375,
      "v": 95
    },
    {
      "midi": 59,
      "hit": false,
      "t": 20250,
      "d": 375,
      "v": 95
    },
    {
      "midi": 54,
      "hit": false,
      "t": 20250,
      "d": 375,
      "v": 95
    },
    {
      "midi": 47,
      "hit": false,
      "t": 20250,
      "d": 375,
      "v": 95
    },
    {
      "midi": 46,
      "hit": false,
      "t": 20625,
      "d": 750,
      "v": 95
    },
    {
      "midi": 42,
      "hit": false,
      "t": 20625,
      "d": 750,
      "v": 95
    },
    {
      "midi": 42,
      "hit": false,
      "t": 20625,
      "d": 375,
      "v": 95
    },
    {
      "midi": 66,
      "hit": false,
      "t": 20625,
      "d": 375,
      "v": 95
    },
    {
      "midi": 63,
      "hit": false,
      "t": 20625,
      "d": 375,
      "v": 95
    },
    {
      "midi": 59,
      "hit": false,
      "t": 20625,
      "d": 375,
      "v": 95
    },
    {
      "midi": 54,
      "hit": false,
      "t": 20625,
      "d": 375,
      "v": 95
    },
    {
      "midi": 47,
      "hit": false,
      "t": 20625,
      "d": 375,
      "v": 95
    },
    {
      "midi": 42,
      "hit": false,
      "t": 21000,
      "d": 1500,
      "v": 95
    },
    {
      "midi": 42,
      "hit": false,
      "t": 21000,
      "d": 375,
      "v": 95
    },
    {
      "midi": 36,
      "hit": false,
      "t": 21000,
      "d": 375,
      "v": 95
    },
    {
      "midi": 66,
      "hit": false,
      "t": 21000,
      "d": 375,
      "v": 95
    },
    {
      "midi": 61,
      "hit": false,
      "t": 21000,
      "d": 375,
      "v": 95
    },
    {
      "midi": 58,
      "hit": false,
      "t": 21000,
      "d": 375,
      "v": 95
    },
    {
      "midi": 54,
      "hit": false,
      "t": 21000,
      "d": 375,
      "v": 95
    },
    {
      "midi": 49,
      "hit": false,
      "t": 21000,
      "d": 375,
      "v": 95
    },
    {
      "midi": 46,
      "hit": false,
      "t": 21375,
      "d": 375,
      "v": 95
    },
    {
      "midi": 42,
      "hit": false,
      "t": 21375,
      "d": 375,
      "v": 95
    },
    {
      "midi": 42,
      "hit": false,
      "t": 21375,
      "d": 375,
      "v": 95
    },
    {
      "midi": 66,
      "hit": false,
      "t": 21375,
      "d": 375,
      "v": 95
    },
    {
      "midi": 61,
      "hit": false,
      "t": 21375,
      "d": 375,
      "v": 95
    },
    {
      "midi": 58,
      "hit": false,
      "t": 21375,
      "d": 375,
      "v": 95
    },
    {
      "midi": 54,
      "hit": false,
      "t": 21375,
      "d": 375,
      "v": 95
    },
    {
      "midi": 49,
      "hit": false,
      "t": 21375,
      "d": 375,
      "v": 95
    },
    {
      "midi": 46,
      "hit": false,
      "t": 21750,
      "d": 375,
      "v": 95
    },
    {
      "midi": 42,
      "hit": false,
      "t": 21750,
      "d": 375,
      "v": 95
    },
    {
      "midi": 42,
      "hit": false,
      "t": 21750,
      "d": 375,
      "v": 95
    },
    {
      "midi": 38,
      "hit": false,
      "t": 21750,
      "d": 375,
      "v": 95
    },
    {
      "midi": 66,
      "hit": false,
      "t": 21750,
      "d": 375,
      "v": 95
    },
    {
      "midi": 61,
      "hit": false,
      "t": 21750,
      "d": 375,
      "v": 95
    },
    {
      "midi": 58,
      "hit": false,
      "t": 21750,
      "d": 375,
      "v": 95
    },
    {
      "midi": 54,
      "hit": false,
      "t": 21750,
      "d": 375,
      "v": 95
    },
    {
      "midi": 49,
      "hit": false,
      "t": 21750,
      "d": 375,
      "v": 95
    },
    {
      "midi": 42,
      "hit": false,
      "t": 22125,
      "d": 375,
      "v": 95
    },
    {
      "midi": 66,
      "hit": false,
      "t": 22125,
      "d": 375,
      "v": 95
    },
    {
      "midi": 61,
      "hit": false,
      "t": 22125,
      "d": 375,
      "v": 95
    },
    {
      "midi": 58,
      "hit": false,
      "t": 22125,
      "d": 375,
      "v": 95
    },
    {
      "midi": 54,
      "hit": false,
      "t": 22125,
      "d": 375,
      "v": 95
    },
    {
      "midi": 49,
      "hit": false,
      "t": 22125,
      "d": 375,
      "v": 95
    },
    {
      "midi": 49,
      "hit": false,
      "t": 22500,
      "d": 750,
      "v": 95
    },
    {
      "midi": 37,
      "hit": false,
      "t": 22500,
      "d": 750,
      "v": 95
    },
    {
      "midi": 37,
      "hit": false,
      "t": 22500,
      "d": 1500,
      "v": 95
    },
    {
      "midi": 38,
      "hit": false,
      "t": 22500,
      "d": 375,
      "v": 95
    },
    {
      "midi": 42,
      "hit": false,
      "t": 22500,
      "d": 375,
      "v": 95
    },
    {
      "midi": 65,
      "hit": false,
      "t": 22500,
      "d": 375,
      "v": 95
    },
    {
      "midi": 61,
      "hit": false,
      "t": 22500,
      "d": 375,
      "v": 95
    },
    {
      "midi": 56,
      "hit": false,
      "t": 22500,
      "d": 375,
      "v": 95
    },
    {
      "midi": 53,
      "hit": false,
      "t": 22500,
      "d": 375,
      "v": 95
    },
    {
      "midi": 49,
      "hit": false,
      "t": 22500,
      "d": 375,
      "v": 95
    },
    {
      "midi": 36,
      "hit": false,
      "t": 22875,
      "d": 375,
      "v": 95
    },
    {
      "midi": 42,
      "hit": false,
      "t": 22875,
      "d": 375,
      "v": 95
    },
    {
      "midi": 65,
      "hit": false,
      "t": 22875,
      "d": 375,
      "v": 95
    },
    {
      "midi": 61,
      "hit": false,
      "t": 22875,
      "d": 375,
      "v": 95
    },
    {
      "midi": 56,
      "hit": false,
      "t": 22875,
      "d": 375,
      "v": 95
    },
    {
      "midi": 53,
      "hit": false,
      "t": 22875,
      "d": 375,
      "v": 95
    },
    {
      "midi": 49,
      "hit": false,
      "t": 22875,
      "d": 375,
      "v": 95
    },
    {
      "midi": 49,
      "hit": false,
      "t": 23250,
      "d": 375,
      "v": 95
    },
    {
      "midi": 37,
      "hit": false,
      "t": 23250,
      "d": 375,
      "v": 95
    },
    {
      "midi": 42,
      "hit": false,
      "t": 23250,
      "d": 375,
      "v": 95
    },
    {
      "midi": 38,
      "hit": false,
      "t": 23250,
      "d": 375,
      "v": 95
    },
    {
      "midi": 65,
      "hit": false,
      "t": 23250,
      "d": 375,
      "v": 95
    },
    {
      "midi": 61,
      "hit": false,
      "t": 23250,
      "d": 375,
      "v": 95
    },
    {
      "midi": 56,
      "hit": false,
      "t": 23250,
      "d": 375,
      "v": 95
    },
    {
      "midi": 53,
      "hit": false,
      "t": 23250,
      "d": 375,
      "v": 95
    },
    {
      "midi": 49,
      "hit": false,
      "t": 23250,
      "d": 375,
      "v": 95
    },
    {
      "midi": 51,
      "hit": false,
      "t": 23625,
      "d": 187.5,
      "v": 127
    },
    {
      "midi": 42,
      "hit": false,
      "t": 23625,
      "d": 187.5,
      "v": 95
    },
    {
      "midi": 38,
      "hit": false,
      "t": 23625,
      "d": 187.5,
      "v": 95
    },
    {
      "midi": 65,
      "hit": false,
      "t": 23625,
      "d": 375,
      "v": 95
    },
    {
      "midi": 61,
      "hit": false,
      "t": 23625,
      "d": 375,
      "v": 95
    },
    {
      "midi": 56,
      "hit": false,
      "t": 23625,
      "d": 375,
      "v": 95
    },
    {
      "midi": 53,
      "hit": false,
      "t": 23625,
      "d": 375,
      "v": 95
    },
    {
      "midi": 49,
      "hit": false,
      "t": 23625,
      "d": 375,
      "v": 95
    },
    {
      "midi": 54,
      "hit": false,
      "t": 23812.5,
      "d": 187.5,
      "v": 127
    },
    {
      "midi": 38,
      "hit": false,
      "t": 23812.5,
      "d": 187.5,
      "v": 95
    },
    {
      "midi": 56,
      "hit": false,
      "t": 24000,
      "d": 375,
      "v": 127
    },
    {
      "midi": 39,
      "hit": false,
      "t": 24000,
      "d": 375,
      "v": 95
    },
    {
      "midi": 39,
      "hit": false,
      "t": 24000,
      "d": 1500,
      "v": 95
    },
    {
      "midi": 42,
      "hit": false,
      "t": 24000,
      "d": 375,
      "v": 95
    },
    {
      "midi": 36,
      "hit": false,
      "t": 24000,
      "d": 375,
      "v": 95
    },
    {
      "midi": 66,
      "hit": false,
      "t": 24000,
      "d": 375,
      "v": 95
    },
    {
      "midi": 63,
      "hit": false,
      "t": 24000,
      "d": 375,
      "v": 95
    },
    {
      "midi": 58,
      "hit": false,
      "t": 24000,
      "d": 375,
      "v": 95
    },
    {
      "midi": 51,
      "hit": false,
      "t": 24000,
      "d": 375,
      "v": 95
    },
    {
      "midi": 63,
      "hit": false,
      "t": 24000,
      "d": 1500,
      "v": 95
    },
    {
      "midi": 58,
      "hit": false,
      "t": 24000,
      "d": 1500,
      "v": 95
    },
    {
      "midi": 54,
      "hit": false,
      "t": 24375,
      "d": 187.5,
      "v": 127
    },
    {
      "midi": 39,
      "hit": false,
      "t": 24375,
      "d": 375,
      "v": 95
    },
    {
      "midi": 42,
      "hit": false,
      "t": 24375,
      "d": 375,
      "v": 95
    },
    {
      "midi": 66,
      "hit": false,
      "t": 24375,
      "d": 375,
      "v": 95
    },
    {
      "midi": 63,
      "hit": false,
      "t": 24375,
      "d": 375,
      "v": 95
    },
    {
      "midi": 58,
      "hit": false,
      "t": 24375,
      "d": 375,
      "v": 95
    },
    {
      "midi": 51,
      "hit": false,
      "t": 24375,
      "d": 375,
      "v": 95
    },
    {
      "midi": 54,
      "hit": false,
      "t": 24562.5,
      "d": 187.5,
      "v": 127
    },
    {
      "midi": 56,
      "hit": false,
      "t": 24750,
      "d": 375,
      "v": 127
    },
    {
      "midi": 46,
      "hit": false,
      "t": 24750,
      "d": 375,
      "v": 95
    },
    {
      "midi": 42,
      "hit": false,
      "t": 24750,
      "d": 375,
      "v": 95
    },
    {
      "midi": 38,
      "hit": false,
      "t": 24750,
      "d": 375,
      "v": 95
    },
    {
      "midi": 66,
      "hit": false,
      "t": 24750,
      "d": 375,
      "v": 95
    },
    {
      "midi": 63,
      "hit": false,
      "t": 24750,
      "d": 375,
      "v": 95
    },
    {
      "midi": 58,
      "hit": false,
      "t": 24750,
      "d": 375,
      "v": 95
    },
    {
      "midi": 51,
      "hit": false,
      "t": 24750,
      "d": 375,
      "v": 95
    },
    {
      "midi": 54,
      "hit": false,
      "t": 25125,
      "d": 187.5,
      "v": 127
    },
    {
      "midi": 43,
      "hit": false,
      "t": 25125,
      "d": 15.625,
      "v": 127
    },
    {
      "midi": 38,
      "hit": false,
      "t": 25125,
      "d": 15.625,
      "v": 127
    },
    {
      "midi": 42,
      "hit": false,
      "t": 25125,
      "d": 375,
      "v": 95
    },
    {
      "midi": 66,
      "hit": false,
      "t": 25125,
      "d": 375,
      "v": 95
    },
    {
      "midi": 63,
      "hit": false,
      "t": 25125,
      "d": 375,
      "v": 95
    },
    {
      "midi": 58,
      "hit": false,
      "t": 25125,
      "d": 375,
      "v": 95
    },
    {
      "midi": 51,
      "hit": false,
      "t": 25125,
      "d": 375,
      "v": 95
    },
    {
      "midi": 54,
      "hit": false,
      "t": 25312.5,
      "d": 1312.5,
      "v": 127
    },
    {
      "midi": 35,
      "hit": false,
      "t": 25500,
      "d": 1500,
      "v": 95
    },
    {
      "midi": 42,
      "hit": false,
      "t": 25500,
      "d": 375,
      "v": 95
    },
    {
      "midi": 36,
      "hit": false,
      "t": 25500,
      "d": 375,
      "v": 95
    },
    {
      "midi": 66,
      "hit": false,
      "t": 25500,
      "d": 375,
      "v": 95
    },
    {
      "midi": 63,
      "hit": false,
      "t": 25500,
      "d": 375,
      "v": 95
    },
    {
      "midi": 59,
      "hit": false,
      "t": 25500,
      "d": 375,
      "v": 95
    },
    {
      "midi": 54,
      "hit": false,
      "t": 25500,
      "d": 375,
      "v": 95
    },
    {
      "midi": 47,
      "hit": false,
      "t": 25500,
      "d": 375,
      "v": 95
    },
    {
      "midi": 59,
      "hit": false,
      "t": 25500,
      "d": 1500,
      "v": 95
    },
    {
      "midi": 63,
      "hit": false,
      "t": 25500,
      "d": 1500,
      "v": 95
    },
    {
      "midi": 47,
      "hit": false,
      "t": 25875,
      "d": 750,
      "v": 95
    },
    {
      "midi": 42,
      "hit": false,
      "t": 25875,
      "d": 375,
      "v": 95
    },
    {
      "midi": 66,
      "hit": false,
      "t": 25875,
      "d": 375,
      "v": 95
    },
    {
      "midi": 63,
      "hit": false,
      "t": 25875,
      "d": 375,
      "v": 95
    },
    {
      "midi": 59,
      "hit": false,
      "t": 25875,
      "d": 375,
      "v": 95
    },
    {
      "midi": 54,
      "hit": false,
      "t": 25875,
      "d": 375,
      "v": 95
    },
    {
      "midi": 47,
      "hit": false,
      "t": 25875,
      "d": 375,
      "v": 95
    },
    {
      "midi": 42,
      "hit": false,
      "t": 26250,
      "d": 375,
      "v": 95
    },
    {
      "midi": 38,
      "hit": false,
      "t": 26250,
      "d": 375,
      "v": 95
    },
    {
      "midi": 66,
      "hit": false,
      "t": 26250,
      "d": 375,
      "v": 95
    },
    {
      "midi": 63,
      "hit": false,
      "t": 26250,
      "d": 375,
      "v": 95
    },
    {
      "midi": 59,
      "hit": false,
      "t": 26250,
      "d": 375,
      "v": 95
    },
    {
      "midi": 54,
      "hit": false,
      "t": 26250,
      "d": 375,
      "v": 95
    },
    {
      "midi": 47,
      "hit": false,
      "t": 26250,
      "d": 375,
      "v": 95
    },
    {
      "midi": 53,
      "hit": false,
      "t": 26625,
      "d": 187.5,
      "v": 127
    },
    {
      "midi": 46,
      "hit": false,
      "t": 26625,
      "d": 750,
      "v": 95
    },
    {
      "midi": 42,
      "hit": false,
      "t": 26625,
      "d": 750,
      "v": 95
    },
    {
      "midi": 42,
      "hit": false,
      "t": 26625,
      "d": 375,
      "v": 95
    },
    {
      "midi": 66,
      "hit": false,
      "t": 26625,
      "d": 375,
      "v": 95
    },
    {
      "midi": 63,
      "hit": false,
      "t": 26625,
      "d": 375,
      "v": 95
    },
    {
      "midi": 59,
      "hit": false,
      "t": 26625,
      "d": 375,
      "v": 95
    },
    {
      "midi": 54,
      "hit": false,
      "t": 26625,
      "d": 375,
      "v": 95
    },
    {
      "midi": 47,
      "hit": false,
      "t": 26625,
      "d": 375,
      "v": 95
    },
    {
      "midi": 54,
      "hit": false,
      "t": 26812.5,
      "d": 1312.5,
      "v": 127
    },
    {
      "midi": 42,
      "hit": false,
      "t": 27000,
      "d": 1500,
      "v": 95
    },
    {
      "midi": 42,
      "hit": false,
      "t": 27000,
      "d": 375,
      "v": 95
    },
    {
      "midi": 36,
      "hit": false,
      "t": 27000,
      "d": 375,
      "v": 95
    },
    {
      "midi": 66,
      "hit": false,
      "t": 27000,
      "d": 375,
      "v": 95
    },
    {
      "midi": 61,
      "hit": false,
      "t": 27000,
      "d": 375,
      "v": 95
    },
    {
      "midi": 58,
      "hit": false,
      "t": 27000,
      "d": 375,
      "v": 95
    },
    {
      "midi": 54,
      "hit": false,
      "t": 27000,
      "d": 375,
      "v": 95
    },
    {
      "midi": 49,
      "hit": false,
      "t": 27000,
      "d": 375,
      "v": 95
    },
    {
      "midi": 58,
      "hit": false,
      "t": 27000,
      "d": 1500,
      "v": 95
    },
    {
      "midi": 54,
      "hit": false,
      "t": 27000,
      "d": 1500,
      "v": 95
    },
    {
      "midi": 46,
      "hit": false,
      "t": 27375,
      "d": 375,
      "v": 95
    },
    {
      "midi": 42,
      "hit": false,
      "t": 27375,
      "d": 375,
      "v": 95
    },
    {
      "midi": 42,
      "hit": false,
      "t": 27375,
      "d": 375,
      "v": 95
    },
    {
      "midi": 66,
      "hit": false,
      "t": 27375,
      "d": 375,
      "v": 95
    },
    {
      "midi": 61,
      "hit": false,
      "t": 27375,
      "d": 375,
      "v": 95
    },
    {
      "midi": 58,
      "hit": false,
      "t": 27375,
      "d": 375,
      "v": 95
    },
    {
      "midi": 54,
      "hit": false,
      "t": 27375,
      "d": 375,
      "v": 95
    },
    {
      "midi": 49,
      "hit": false,
      "t": 27375,
      "d": 375,
      "v": 95
    },
    {
      "midi": 46,
      "hit": false,
      "t": 27750,
      "d": 375,
      "v": 95
    },
    {
      "midi": 42,
      "hit": false,
      "t": 27750,
      "d": 375,
      "v": 95
    },
    {
      "midi": 42,
      "hit": false,
      "t": 27750,
      "d": 375,
      "v": 95
    },
    {
      "midi": 38,
      "hit": false,
      "t": 27750,
      "d": 375,
      "v": 95
    },
    {
      "midi": 66,
      "hit": false,
      "t": 27750,
      "d": 375,
      "v": 95
    },
    {
      "midi": 61,
      "hit": false,
      "t": 27750,
      "d": 375,
      "v": 95
    },
    {
      "midi": 58,
      "hit": false,
      "t": 27750,
      "d": 375,
      "v": 95
    },
    {
      "midi": 54,
      "hit": false,
      "t": 27750,
      "d": 375,
      "v": 95
    },
    {
      "midi": 49,
      "hit": false,
      "t": 27750,
      "d": 375,
      "v": 95
    },
    {
      "midi": 54,
      "hit": false,
      "t": 28125,
      "d": 375,
      "v": 127
    },
    {
      "midi": 42,
      "hit": false,
      "t": 28125,
      "d": 375,
      "v": 95
    },
    {
      "midi": 66,
      "hit": false,
      "t": 28125,
      "d": 375,
      "v": 95
    },
    {
      "midi": 61,
      "hit": false,
      "t": 28125,
      "d": 375,
      "v": 95
    },
    {
      "midi": 58,
      "hit": false,
      "t": 28125,
      "d": 375,
      "v": 95
    },
    {
      "midi": 54,
      "hit": false,
      "t": 28125,
      "d": 375,
      "v": 95
    },
    {
      "midi": 49,
      "hit": false,
      "t": 28125,
      "d": 375,
      "v": 95
    },
    {
      "midi": 51,
      "hit": false,
      "t": 28500,
      "d": 375,
      "v": 127
    },
    {
      "midi": 49,
      "hit": false,
      "t": 28500,
      "d": 375,
      "v": 95
    },
    {
      "midi": 37,
      "hit": false,
      "t": 28500,
      "d": 375,
      "v": 95
    },
    {
      "midi": 37,
      "hit": false,
      "t": 28500,
      "d": 1500,
      "v": 95
    },
    {
      "midi": 42,
      "hit": false,
      "t": 28500,
      "d": 375,
      "v": 95
    },
    {
      "midi": 36,
      "hit": false,
      "t": 28500,
      "d": 375,
      "v": 95
    },
    {
      "midi": 65,
      "hit": false,
      "t": 28500,
      "d": 375,
      "v": 95
    },
    {
      "midi": 61,
      "hit": false,
      "t": 28500,
      "d": 375,
      "v": 95
    },
    {
      "midi": 56,
      "hit": false,
      "t": 28500,
      "d": 375,
      "v": 95
    },
    {
      "midi": 53,
      "hit": false,
      "t": 28500,
      "d": 375,
      "v": 95
    },
    {
      "midi": 49,
      "hit": false,
      "t": 28500,
      "d": 375,
      "v": 95
    },
    {
      "midi": 56,
      "hit": false,
      "t": 28500,
      "d": 1500,
      "v": 95
    },
    {
      "midi": 53,
      "hit": false,
      "t": 28500,
      "d": 1500,
      "v": 95
    },
    {
      "midi": 49,
      "hit": false,
      "t": 28875,
      "d": 187.5,
      "v": 127
    },
    {
      "midi": 49,
      "hit": false,
      "t": 28875,
      "d": 375,
      "v": 95
    },
    {
      "midi": 37,
      "hit": false,
      "t": 28875,
      "d": 375,
      "v": 95
    },
    {
      "midi": 42,
      "hit": false,
      "t": 28875,
      "d": 375,
      "v": 95
    },
    {
      "midi": 65,
      "hit": false,
      "t": 28875,
      "d": 375,
      "v": 95
    },
    {
      "midi": 61,
      "hit": false,
      "t": 28875,
      "d": 375,
      "v": 95
    },
    {
      "midi": 56,
      "hit": false,
      "t": 28875,
      "d": 375,
      "v": 95
    },
    {
      "midi": 53,
      "hit": false,
      "t": 28875,
      "d": 375,
      "v": 95
    },
    {
      "midi": 49,
      "hit": false,
      "t": 28875,
      "d": 375,
      "v": 95
    },
    {
      "midi": 51,
      "hit": false,
      "t": 29062.5,
      "d": 375,
      "v": 127
    },
    {
      "midi": 49,
      "hit": false,
      "t": 29250,
      "d": 375,
      "v": 95
    },
    {
      "midi": 37,
      "hit": false,
      "t": 29250,
      "d": 375,
      "v": 95
    },
    {
      "midi": 42,
      "hit": false,
      "t": 29250,
      "d": 375,
      "v": 95
    },
    {
      "midi": 38,
      "hit": false,
      "t": 29250,
      "d": 375,
      "v": 95
    },
    {
      "midi": 65,
      "hit": false,
      "t": 29250,
      "d": 375,
      "v": 95
    },
    {
      "midi": 61,
      "hit": false,
      "t": 29250,
      "d": 375,
      "v": 95
    },
    {
      "midi": 56,
      "hit": false,
      "t": 29250,
      "d": 375,
      "v": 95
    },
    {
      "midi": 53,
      "hit": false,
      "t": 29250,
      "d": 375,
      "v": 95
    },
    {
      "midi": 49,
      "hit": false,
      "t": 29250,
      "d": 375,
      "v": 95
    },
    {
      "midi": 54,
      "hit": false,
      "t": 29437.5,
      "d": 187.5,
      "v": 127
    },
    {
      "midi": 51,
      "hit": false,
      "t": 29625,
      "d": 375,
      "v": 127
    },
    {
      "midi": 42,
      "hit": false,
      "t": 29625,
      "d": 375,
      "v": 95
    },
    {
      "midi": 65,
      "hit": false,
      "t": 29625,
      "d": 375,
      "v": 95
    },
    {
      "midi": 61,
      "hit": false,
      "t": 29625,
      "d": 375,
      "v": 95
    },
    {
      "midi": 56,
      "hit": false,
      "t": 29625,
      "d": 375,
      "v": 95
    },
    {
      "midi": 53,
      "hit": false,
      "t": 29625,
      "d": 375,
      "v": 95
    },
    {
      "midi": 49,
      "hit": false,
      "t": 29625,
      "d": 375,
      "v": 95
    },
    {
      "midi": 39,
      "hit": false,
      "t": 30000,
      "d": 375,
      "v": 95
    },
    {
      "midi": 39,
      "hit": false,
      "t": 30000,
      "d": 1500,
      "v": 95
    },
    {
      "midi": 42,
      "hit": false,
      "t": 30000,
      "d": 375,
      "v": 95
    },
    {
      "midi": 36,
      "hit": false,
      "t": 30000,
      "d": 375,
      "v": 95
    },
    {
      "midi": 66,
      "hit": false,
      "t": 30000,
      "d": 375,
      "v": 95
    },
    {
      "midi": 63,
      "hit": false,
      "t": 30000,
      "d": 375,
      "v": 95
    },
    {
      "midi": 58,
      "hit": false,
      "t": 30000,
      "d": 375,
      "v": 95
    },
    {
      "midi": 51,
      "hit": false,
      "t": 30000,
      "d": 375,
      "v": 95
    },
    {
      "midi": 63,
      "hit": false,
      "t": 30000,
      "d": 1500,
      "v": 95
    },
    {
      "midi": 58,
      "hit": false,
      "t": 30000,
      "d": 1500,
      "v": 95
    },
    {
      "midi": 39,
      "hit": false,
      "t": 30375,
      "d": 375,
      "v": 95
    },
    {
      "midi": 42,
      "hit": false,
      "t": 30375,
      "d": 375,
      "v": 95
    },
    {
      "midi": 66,
      "hit": false,
      "t": 30375,
      "d": 375,
      "v": 95
    },
    {
      "midi": 63,
      "hit": false,
      "t": 30375,
      "d": 375,
      "v": 95
    },
    {
      "midi": 58,
      "hit": false,
      "t": 30375,
      "d": 375,
      "v": 95
    },
    {
      "midi": 51,
      "hit": false,
      "t": 30375,
      "d": 375,
      "v": 95
    },
    {
      "midi": 51,
      "hit": false,
      "t": 30750,
      "d": 375,
      "v": 127
    },
    {
      "midi": 46,
      "hit": false,
      "t": 30750,
      "d": 375,
      "v": 95
    },
    {
      "midi": 42,
      "hit": false,
      "t": 30750,
      "d": 375,
      "v": 95
    },
    {
      "midi": 38,
      "hit": false,
      "t": 30750,
      "d": 375,
      "v": 95
    },
    {
      "midi": 66,
      "hit": false,
      "t": 30750,
      "d": 375,
      "v": 95
    },
    {
      "midi": 63,
      "hit": false,
      "t": 30750,
      "d": 375,
      "v": 95
    },
    {
      "midi": 58,
      "hit": false,
      "t": 30750,
      "d": 375,
      "v": 95
    },
    {
      "midi": 51,
      "hit": false,
      "t": 30750,
      "d": 375,
      "v": 95
    },
    {
      "midi": 53,
      "hit": false,
      "t": 31125,
      "d": 187.5,
      "v": 127
    },
    {
      "midi": 43,
      "hit": false,
      "t": 31125,
      "d": 15.625,
      "v": 127
    },
    {
      "midi": 38,
      "hit": false,
      "t": 31125,
      "d": 15.625,
      "v": 127
    },
    {
      "midi": 42,
      "hit": false,
      "t": 31125,
      "d": 375,
      "v": 95
    },
    {
      "midi": 66,
      "hit": false,
      "t": 31125,
      "d": 375,
      "v": 95
    },
    {
      "midi": 63,
      "hit": false,
      "t": 31125,
      "d": 375,
      "v": 95
    },
    {
      "midi": 58,
      "hit": false,
      "t": 31125,
      "d": 375,
      "v": 95
    },
    {
      "midi": 51,
      "hit": false,
      "t": 31125,
      "d": 375,
      "v": 95
    },
    {
      "midi": 54,
      "hit": false,
      "t": 31312.5,
      "d": 1312.5,
      "v": 127
    },
    {
      "midi": 35,
      "hit": false,
      "t": 31500,
      "d": 1500,
      "v": 95
    },
    {
      "midi": 42,
      "hit": false,
      "t": 31500,
      "d": 375,
      "v": 95
    },
    {
      "midi": 36,
      "hit": false,
      "t": 31500,
      "d": 375,
      "v": 95
    },
    {
      "midi": 66,
      "hit": false,
      "t": 31500,
      "d": 375,
      "v": 95
    },
    {
      "midi": 63,
      "hit": false,
      "t": 31500,
      "d": 375,
      "v": 95
    },
    {
      "midi": 59,
      "hit": false,
      "t": 31500,
      "d": 375,
      "v": 95
    },
    {
      "midi": 54,
      "hit": false,
      "t": 31500,
      "d": 375,
      "v": 95
    },
    {
      "midi": 47,
      "hit": false,
      "t": 31500,
      "d": 375,
      "v": 95
    },
    {
      "midi": 59,
      "hit": false,
      "t": 31500,
      "d": 1500,
      "v": 95
    },
    {
      "midi": 63,
      "hit": false,
      "t": 31500,
      "d": 1500,
      "v": 95
    },
    {
      "midi": 47,
      "hit": false,
      "t": 31875,
      "d": 750,
      "v": 95
    },
    {
      "midi": 42,
      "hit": false,
      "t": 31875,
      "d": 375,
      "v": 95
    },
    {
      "midi": 66,
      "hit": false,
      "t": 31875,
      "d": 375,
      "v": 95
    },
    {
      "midi": 63,
      "hit": false,
      "t": 31875,
      "d": 375,
      "v": 95
    },
    {
      "midi": 59,
      "hit": false,
      "t": 31875,
      "d": 375,
      "v": 95
    },
    {
      "midi": 54,
      "hit": false,
      "t": 31875,
      "d": 375,
      "v": 95
    },
    {
      "midi": 47,
      "hit": false,
      "t": 31875,
      "d": 375,
      "v": 95
    },
    {
      "midi": 42,
      "hit": false,
      "t": 32250,
      "d": 375,
      "v": 95
    },
    {
      "midi": 38,
      "hit": false,
      "t": 32250,
      "d": 375,
      "v": 95
    },
    {
      "midi": 66,
      "hit": false,
      "t": 32250,
      "d": 375,
      "v": 95
    },
    {
      "midi": 63,
      "hit": false,
      "t": 32250,
      "d": 375,
      "v": 95
    },
    {
      "midi": 59,
      "hit": false,
      "t": 32250,
      "d": 375,
      "v": 95
    },
    {
      "midi": 54,
      "hit": false,
      "t": 32250,
      "d": 375,
      "v": 95
    },
    {
      "midi": 47,
      "hit": false,
      "t": 32250,
      "d": 375,
      "v": 95
    },
    {
      "midi": 56,
      "hit": false,
      "t": 32625,
      "d": 375,
      "v": 127
    },
    {
      "midi": 46,
      "hit": false,
      "t": 32625,
      "d": 750,
      "v": 95
    },
    {
      "midi": 42,
      "hit": false,
      "t": 32625,
      "d": 750,
      "v": 95
    },
    {
      "midi": 42,
      "hit": false,
      "t": 32625,
      "d": 375,
      "v": 95
    },
    {
      "midi": 66,
      "hit": false,
      "t": 32625,
      "d": 375,
      "v": 95
    },
    {
      "midi": 63,
      "hit": false,
      "t": 32625,
      "d": 375,
      "v": 95
    },
    {
      "midi": 59,
      "hit": false,
      "t": 32625,
      "d": 375,
      "v": 95
    },
    {
      "midi": 54,
      "hit": false,
      "t": 32625,
      "d": 375,
      "v": 95
    },
    {
      "midi": 47,
      "hit": false,
      "t": 32625,
      "d": 375,
      "v": 95
    },
    {
      "midi": 53,
      "hit": false,
      "t": 33000,
      "d": 1500,
      "v": 127
    },
    {
      "midi": 42,
      "hit": false,
      "t": 33000,
      "d": 1500,
      "v": 95
    },
    {
      "midi": 42,
      "hit": false,
      "t": 33000,
      "d": 375,
      "v": 95
    },
    {
      "midi": 36,
      "hit": false,
      "t": 33000,
      "d": 375,
      "v": 95
    },
    {
      "midi": 66,
      "hit": false,
      "t": 33000,
      "d": 375,
      "v": 95
    },
    {
      "midi": 61,
      "hit": false,
      "t": 33000,
      "d": 375,
      "v": 95
    },
    {
      "midi": 58,
      "hit": false,
      "t": 33000,
      "d": 375,
      "v": 95
    },
    {
      "midi": 54,
      "hit": false,
      "t": 33000,
      "d": 375,
      "v": 95
    },
    {
      "midi": 49,
      "hit": false,
      "t": 33000,
      "d": 375,
      "v": 95
    },
    {
      "midi": 58,
      "hit": false,
      "t": 33000,
      "d": 1500,
      "v": 95
    },
    {
      "midi": 54,
      "hit": false,
      "t": 33000,
      "d": 1500,
      "v": 95
    },
    {
      "midi": 46,
      "hit": false,
      "t": 33375,
      "d": 375,
      "v": 95
    },
    {
      "midi": 42,
      "hit": false,
      "t": 33375,
      "d": 375,
      "v": 95
    },
    {
      "midi": 42,
      "hit": false,
      "t": 33375,
      "d": 375,
      "v": 95
    },
    {
      "midi": 66,
      "hit": false,
      "t": 33375,
      "d": 375,
      "v": 95
    },
    {
      "midi": 61,
      "hit": false,
      "t": 33375,
      "d": 375,
      "v": 95
    },
    {
      "midi": 58,
      "hit": false,
      "t": 33375,
      "d": 375,
      "v": 95
    },
    {
      "midi": 54,
      "hit": false,
      "t": 33375,
      "d": 375,
      "v": 95
    },
    {
      "midi": 49,
      "hit": false,
      "t": 33375,
      "d": 375,
      "v": 95
    },
    {
      "midi": 70,
      "hit": false,
      "t": 33750,
      "d": 375,
      "v": 95
    },
    {
      "midi": 42,
      "hit": false,
      "t": 33750,
      "d": 562.5,
      "v": 95
    },
    {
      "midi": 38,
      "hit": false,
      "t": 33750,
      "d": 562.5,
      "v": 95
    },
    {
      "midi": 66,
      "hit": false,
      "t": 33750,
      "d": 375,
      "v": 95
    },
    {
      "midi": 61,
      "hit": false,
      "t": 33750,
      "d": 375,
      "v": 95
    },
    {
      "midi": 58,
      "hit": false,
      "t": 33750,
      "d": 375,
      "v": 95
    },
    {
      "midi": 54,
      "hit": false,
      "t": 33750,
      "d": 375,
      "v": 95
    },
    {
      "midi": 49,
      "hit": false,
      "t": 33750,
      "d": 375,
      "v": 95
    },
    {
      "midi": 66,
      "hit": false,
      "t": 34125,
      "d": 375,
      "v": 95
    },
    {
      "midi": 61,
      "hit": false,
      "t": 34125,
      "d": 375,
      "v": 95
    },
    {
      "midi": 58,
      "hit": false,
      "t": 34125,
      "d": 375,
      "v": 95
    },
    {
      "midi": 54,
      "hit": false,
      "t": 34125,
      "d": 375,
      "v": 95
    },
    {
      "midi": 49,
      "hit": false,
      "t": 34125,
      "d": 375,
      "v": 95
    },
    {
      "midi": 36,
      "hit": false,
      "t": 34312.5,
      "d": 187.5,
      "v": 95
    },
    {
      "midi": 68,
      "hit": false,
      "t": 34500,
      "d": 750,
      "v": 95
    },
    {
      "midi": 37,
      "hit": false,
      "t": 34500,
      "d": 1500,
      "v": 95
    },
    {
      "midi": 38,
      "hit": false,
      "t": 34500,
      "d": 375,
      "v": 95
    },
    {
      "midi": 42,
      "hit": false,
      "t": 34500,
      "d": 375,
      "v": 95
    },
    {
      "midi": 65,
      "hit": false,
      "t": 34500,
      "d": 375,
      "v": 95
    },
    {
      "midi": 61,
      "hit": false,
      "t": 34500,
      "d": 375,
      "v": 95
    },
    {
      "midi": 56,
      "hit": false,
      "t": 34500,
      "d": 375,
      "v": 95
    },
    {
      "midi": 53,
      "hit": false,
      "t": 34500,
      "d": 375,
      "v": 95
    },
    {
      "midi": 49,
      "hit": false,
      "t": 34500,
      "d": 375,
      "v": 95
    },
    {
      "midi": 56,
      "hit": false,
      "t": 34500,
      "d": 1500,
      "v": 95
    },
    {
      "midi": 53,
      "hit": false,
      "t": 34500,
      "d": 1500,
      "v": 95
    },
    {
      "midi": 36,
      "hit": false,
      "t": 34875,
      "d": 375,
      "v": 95
    },
    {
      "midi": 42,
      "hit": false,
      "t": 34875,
      "d": 375,
      "v": 95
    },
    {
      "midi": 65,
      "hit": false,
      "t": 34875,
      "d": 375,
      "v": 95
    },
    {
      "midi": 61,
      "hit": false,
      "t": 34875,
      "d": 375,
      "v": 95
    },
    {
      "midi": 56,
      "hit": false,
      "t": 34875,
      "d": 375,
      "v": 95
    },
    {
      "midi": 53,
      "hit": false,
      "t": 34875,
      "d": 375,
      "v": 95
    },
    {
      "midi": 49,
      "hit": false,
      "t": 34875,
      "d": 375,
      "v": 95
    },
    {
      "midi": 42,
      "hit": false,
      "t": 35250,
      "d": 375,
      "v": 95
    },
    {
      "midi": 38,
      "hit": false,
      "t": 35250,
      "d": 375,
      "v": 95
    },
    {
      "midi": 65,
      "hit": false,
      "t": 35250,
      "d": 375,
      "v": 95
    },
    {
      "midi": 61,
      "hit": false,
      "t": 35250,
      "d": 375,
      "v": 95
    },
    {
      "midi": 56,
      "hit": false,
      "t": 35250,
      "d": 375,
      "v": 95
    },
    {
      "midi": 53,
      "hit": false,
      "t": 35250,
      "d": 375,
      "v": 95
    },
    {
      "midi": 49,
      "hit": false,
      "t": 35250,
      "d": 375,
      "v": 95
    },
    {
      "midi": 46,
      "hit": false,
      "t": 35625,
      "d": 187.5,
      "v": 127
    },
    {
      "midi": 42,
      "hit": false,
      "t": 35625,
      "d": 187.5,
      "v": 95
    },
    {
      "midi": 38,
      "hit": false,
      "t": 35625,
      "d": 187.5,
      "v": 95
    },
    {
      "midi": 65,
      "hit": false,
      "t": 35625,
      "d": 375,
      "v": 95
    },
    {
      "midi": 61,
      "hit": false,
      "t": 35625,
      "d": 375,
      "v": 95
    },
    {
      "midi": 56,
      "hit": false,
      "t": 35625,
      "d": 375,
      "v": 95
    },
    {
      "midi": 53,
      "hit": false,
      "t": 35625,
      "d": 375,
      "v": 95
    },
    {
      "midi": 49,
      "hit": false,
      "t": 35625,
      "d": 375,
      "v": 95
    },
    {
      "midi": 47,
      "hit": false,
      "t": 35812.5,
      "d": 187.5,
      "v": 127
    },
    {
      "midi": 38,
      "hit": false,
      "t": 35812.5,
      "d": 187.5,
      "v": 95
    },
    {
      "midi": 49,
      "hit": false,
      "t": 36000,
      "d": 750,
      "v": 127
    },
    {
      "midi": 35,
      "hit": false,
      "t": 36000,
      "d": 3000,
      "v": 95
    },
    {
      "midi": 46,
      "hit": false,
      "t": 36000,
      "d": 375,
      "v": 95
    },
    {
      "midi": 66,
      "hit": false,
      "t": 36000,
      "d": 2625,
      "v": 95
    },
    {
      "midi": 63,
      "hit": false,
      "t": 36000,
      "d": 2625,
      "v": 95
    },
    {
      "midi": 59,
      "hit": false,
      "t": 36000,
      "d": 2625,
      "v": 95
    },
    {
      "midi": 54,
      "hit": false,
      "t": 36000,
      "d": 2625,
      "v": 95
    },
    {
      "midi": 47,
      "hit": false,
      "t": 36000,
      "d": 2625,
      "v": 95
    },
    {
      "midi": 49,
      "hit": false,
      "t": 36750,
      "d": 375,
      "v": 127
    },
    {
      "midi": 42,
      "hit": false,
      "t": 36750,
      "d": 375,
      "v": 95
    },
    {
      "midi": 51,
      "hit": false,
      "t": 37125,
      "d": 187.5,
      "v": 127
    },
    {
      "midi": 51,
      "hit": false,
      "t": 37312.5,
      "d": 1687.5,
      "v": 127
    },
    {
      "midi": 42,
      "hit": false,
      "t": 38250,
      "d": 375,
      "v": 95
    },
    {
      "midi": 66,
      "hit": false,
      "t": 38625,
      "d": 3375,
      "v": 95
    },
    {
      "midi": 63,
      "hit": false,
      "t": 38675,
      "d": 3325,
      "v": 95
    },
    {
      "midi": 59,
      "hit": false,
      "t": 38725,
      "d": 3275,
      "v": 95
    },
    {
      "midi": 54,
      "hit": false,
      "t": 38775,
      "d": 3225,
      "v": 95
    },
    {
      "midi": 47,
      "hit": false,
      "t": 38825,
      "d": 3175,
      "v": 95
    },
    {
      "midi": 54,
      "hit": false,
      "t": 39000,
      "d": 1875,
      "v": 127
    },
    {
      "midi": 35,
      "hit": false,
      "t": 39000,
      "d": 3000,
      "v": 95
    },
    {
      "midi": 38,
      "hit": false,
      "t": 39000,
      "d": 375,
      "v": 95
    },
    {
      "midi": 47,
      "hit": false,
      "t": 39375,
      "d": 375,
      "v": 95
    },
    {
      "midi": 45,
      "hit": false,
      "t": 40125,
      "d": 375,
      "v": 95
    },
    {
      "midi": 38,
      "hit": false,
      "t": 40500,
      "d": 375,
      "v": 95
    },
    {
      "midi": 42,
      "hit": false,
      "t": 40500,
      "d": 375,
      "v": 95
    },
    {
      "midi": 54,
      "hit": false,
      "t": 40875,
      "d": 375,
      "v": 127
    },
    {
      "midi": 36,
      "hit": false,
      "t": 40875,
      "d": 375,
      "v": 95
    },
    {
      "midi": 42,
      "hit": false,
      "t": 40875,
      "d": 375,
      "v": 95
    },
    {
      "midi": 54,
      "hit": false,
      "t": 41250,
      "d": 187.5,
      "v": 127
    },
    {
      "midi": 42,
      "hit": false,
      "t": 41250,
      "d": 375,
      "v": 95
    },
    {
      "midi": 38,
      "hit": false,
      "t": 41250,
      "d": 375,
      "v": 95
    },
    {
      "midi": 56,
      "hit": false,
      "t": 41437.5,
      "d": 375,
      "v": 127
    },
    {
      "midi": 42,
      "hit": false,
      "t": 41625,
      "d": 187.5,
      "v": 95
    },
    {
      "midi": 38,
      "hit": false,
      "t": 41625,
      "d": 187.5,
      "v": 95
    },
    {
      "midi": 58,
      "hit": false,
      "t": 41812.5,
      "d": 2062.5,
      "v": 127
    },
    {
      "midi": 38,
      "hit": false,
      "t": 41812.5,
      "d": 187.5,
      "v": 95
    },
    {
      "midi": 54,
      "hit": false,
      "t": 42000,
      "d": 1500,
      "v": 95
    },
    {
      "midi": 30,
      "hit": false,
      "t": 42000,
      "d": 375,
      "v": 95
    },
    {
      "midi": 36,
      "hit": false,
      "t": 42000,
      "d": 375,
      "v": 95
    },
    {
      "midi": 42,
      "hit": false,
      "t": 42000,
      "d": 375,
      "v": 95
    },
    {
      "midi": 66,
      "hit": false,
      "t": 42000,
      "d": 375,
      "v": 95
    },
    {
      "midi": 61,
      "hit": false,
      "t": 42000,
      "d": 375,
      "v": 95
    },
    {
      "midi": 58,
      "hit": false,
      "t": 42000,
      "d": 375,
      "v": 95
    },
    {
      "midi": 54,
      "hit": false,
      "t": 42000,
      "d": 375,
      "v": 95
    },
    {
      "midi": 49,
      "hit": false,
      "t": 42000,
      "d": 375,
      "v": 95
    },
    {
      "midi": 42,
      "hit": false,
      "t": 42000,
      "d": 375,
      "v": 95
    },
    {
      "midi": 70,
      "hit": false,
      "t": 42000,
      "d": 2250,
      "v": 95
    },
    {
      "midi": 70,
      "hit": false,
      "t": 42000,
      "d": 2250,
      "v": 95
    },
    {
      "midi": 30,
      "hit": false,
      "t": 42375,
      "d": 375,
      "v": 95
    },
    {
      "midi": 36,
      "hit": false,
      "t": 42375,
      "d": 375,
      "v": 95
    },
    {
      "midi": 42,
      "hit": false,
      "t": 42375,
      "d": 375,
      "v": 95
    },
    {
      "midi": 66,
      "hit": false,
      "t": 42375,
      "d": 375,
      "v": 95
    },
    {
      "midi": 61,
      "hit": false,
      "t": 42375,
      "d": 375,
      "v": 95
    },
    {
      "midi": 58,
      "hit": false,
      "t": 42375,
      "d": 375,
      "v": 95
    },
    {
      "midi": 54,
      "hit": false,
      "t": 42375,
      "d": 375,
      "v": 95
    },
    {
      "midi": 49,
      "hit": false,
      "t": 42375,
      "d": 375,
      "v": 95
    },
    {
      "midi": 42,
      "hit": false,
      "t": 42375,
      "d": 375,
      "v": 95
    },
    {
      "midi": 30,
      "hit": false,
      "t": 42750,
      "d": 375,
      "v": 95
    },
    {
      "midi": 38,
      "hit": false,
      "t": 42750,
      "d": 375,
      "v": 95
    },
    {
      "midi": 42,
      "hit": false,
      "t": 42750,
      "d": 375,
      "v": 95
    },
    {
      "midi": 66,
      "hit": false,
      "t": 42750,
      "d": 375,
      "v": 95
    },
    {
      "midi": 61,
      "hit": false,
      "t": 42750,
      "d": 375,
      "v": 95
    },
    {
      "midi": 58,
      "hit": false,
      "t": 42750,
      "d": 375,
      "v": 95
    },
    {
      "midi": 54,
      "hit": false,
      "t": 42750,
      "d": 375,
      "v": 95
    },
    {
      "midi": 49,
      "hit": false,
      "t": 42750,
      "d": 375,
      "v": 95
    },
    {
      "midi": 42,
      "hit": false,
      "t": 42750,
      "d": 375,
      "v": 95
    },
    {
      "midi": 30,
      "hit": false,
      "t": 43125,
      "d": 375,
      "v": 95
    },
    {
      "midi": 36,
      "hit": false,
      "t": 43125,
      "d": 375,
      "v": 95
    },
    {
      "midi": 42,
      "hit": false,
      "t": 43125,
      "d": 375,
      "v": 95
    },
    {
      "midi": 66,
      "hit": false,
      "t": 43125,
      "d": 375,
      "v": 95
    },
    {
      "midi": 61,
      "hit": false,
      "t": 43125,
      "d": 375,
      "v": 95
    },
    {
      "midi": 58,
      "hit": false,
      "t": 43125,
      "d": 375,
      "v": 95
    },
    {
      "midi": 54,
      "hit": false,
      "t": 43125,
      "d": 375,
      "v": 95
    },
    {
      "midi": 49,
      "hit": false,
      "t": 43125,
      "d": 375,
      "v": 95
    },
    {
      "midi": 42,
      "hit": false,
      "t": 43125,
      "d": 375,
      "v": 95
    },
    {
      "midi": 61,
      "hit": false,
      "t": 43500,
      "d": 1500,
      "v": 95
    },
    {
      "midi": 30,
      "hit": false,
      "t": 43500,
      "d": 375,
      "v": 95
    },
    {
      "midi": 42,
      "hit": false,
      "t": 43500,
      "d": 375,
      "v": 95
    },
    {
      "midi": 66,
      "hit": false,
      "t": 43500,
      "d": 375,
      "v": 95
    },
    {
      "midi": 61,
      "hit": false,
      "t": 43500,
      "d": 375,
      "v": 95
    },
    {
      "midi": 58,
      "hit": false,
      "t": 43500,
      "d": 375,
      "v": 95
    },
    {
      "midi": 54,
      "hit": false,
      "t": 43500,
      "d": 375,
      "v": 95
    },
    {
      "midi": 49,
      "hit": false,
      "t": 43500,
      "d": 375,
      "v": 95
    },
    {
      "midi": 42,
      "hit": false,
      "t": 43500,
      "d": 375,
      "v": 95
    },
    {
      "midi": 54,
      "hit": false,
      "t": 43875,
      "d": 375,
      "v": 127
    },
    {
      "midi": 30,
      "hit": false,
      "t": 43875,
      "d": 375,
      "v": 95
    },
    {
      "midi": 42,
      "hit": false,
      "t": 43875,
      "d": 375,
      "v": 95
    },
    {
      "midi": 36,
      "hit": false,
      "t": 43875,
      "d": 375,
      "v": 95
    },
    {
      "midi": 66,
      "hit": false,
      "t": 43875,
      "d": 375,
      "v": 95
    },
    {
      "midi": 61,
      "hit": false,
      "t": 43875,
      "d": 375,
      "v": 95
    },
    {
      "midi": 58,
      "hit": false,
      "t": 43875,
      "d": 375,
      "v": 95
    },
    {
      "midi": 54,
      "hit": false,
      "t": 43875,
      "d": 375,
      "v": 95
    },
    {
      "midi": 49,
      "hit": false,
      "t": 43875,
      "d": 375,
      "v": 95
    },
    {
      "midi": 42,
      "hit": false,
      "t": 43875,
      "d": 375,
      "v": 95
    },
    {
      "midi": 54,
      "hit": false,
      "t": 44250,
      "d": 375,
      "v": 127
    },
    {
      "midi": 30,
      "hit": false,
      "t": 44250,
      "d": 375,
      "v": 95
    },
    {
      "midi": 42,
      "hit": false,
      "t": 44250,
      "d": 375,
      "v": 95
    },
    {
      "midi": 38,
      "hit": false,
      "t": 44250,
      "d": 375,
      "v": 95
    },
    {
      "midi": 66,
      "hit": false,
      "t": 44250,
      "d": 375,
      "v": 95
    },
    {
      "midi": 61,
      "hit": false,
      "t": 44250,
      "d": 375,
      "v": 95
    },
    {
      "midi": 58,
      "hit": false,
      "t": 44250,
      "d": 375,
      "v": 95
    },
    {
      "midi": 54,
      "hit": false,
      "t": 44250,
      "d": 375,
      "v": 95
    },
    {
      "midi": 49,
      "hit": false,
      "t": 44250,
      "d": 375,
      "v": 95
    },
    {
      "midi": 42,
      "hit": false,
      "t": 44250,
      "d": 375,
      "v": 95
    },
    {
      "midi": 71,
      "hit": false,
      "t": 44250,
      "d": 750,
      "v": 95
    },
    {
      "midi": 71,
      "hit": false,
      "t": 44250,
      "d": 750,
      "v": 95
    },
    {
      "midi": 56,
      "hit": false,
      "t": 44625,
      "d": 187.5,
      "v": 127
    },
    {
      "midi": 30,
      "hit": false,
      "t": 44625,
      "d": 375,
      "v": 95
    },
    {
      "midi": 42,
      "hit": false,
      "t": 44625,
      "d": 375,
      "v": 95
    },
    {
      "midi": 66,
      "hit": false,
      "t": 44625,
      "d": 375,
      "v": 95
    },
    {
      "midi": 61,
      "hit": false,
      "t": 44625,
      "d": 375,
      "v": 95
    },
    {
      "midi": 58,
      "hit": false,
      "t": 44625,
      "d": 375,
      "v": 95
    },
    {
      "midi": 54,
      "hit": false,
      "t": 44625,
      "d": 375,
      "v": 95
    },
    {
      "midi": 49,
      "hit": false,
      "t": 44625,
      "d": 375,
      "v": 95
    },
    {
      "midi": 42,
      "hit": false,
      "t": 44625,
      "d": 375,
      "v": 95
    },
    {
      "midi": 58,
      "hit": false,
      "t": 44812.5,
      "d": 937.5,
      "v": 127
    },
    {
      "midi": 53,
      "hit": false,
      "t": 45000,
      "d": 1500,
      "v": 95
    },
    {
      "midi": 37,
      "hit": false,
      "t": 45000,
      "d": 375,
      "v": 95
    },
    {
      "midi": 36,
      "hit": false,
      "t": 45000,
      "d": 375,
      "v": 95
    },
    {
      "midi": 42,
      "hit": false,
      "t": 45000,
      "d": 375,
      "v": 95
    },
    {
      "midi": 65,
      "hit": false,
      "t": 45000,
      "d": 375,
      "v": 95
    },
    {
      "midi": 61,
      "hit": false,
      "t": 45000,
      "d": 375,
      "v": 95
    },
    {
      "midi": 56,
      "hit": false,
      "t": 45000,
      "d": 375,
      "v": 95
    },
    {
      "midi": 53,
      "hit": false,
      "t": 45000,
      "d": 375,
      "v": 95
    },
    {
      "midi": 49,
      "hit": false,
      "t": 45000,
      "d": 375,
      "v": 95
    },
    {
      "midi": 68,
      "hit": false,
      "t": 45000,
      "d": 2250,
      "v": 95
    },
    {
      "midi": 68,
      "hit": false,
      "t": 45000,
      "d": 2250,
      "v": 95
    },
    {
      "midi": 37,
      "hit": false,
      "t": 45375,
      "d": 375,
      "v": 95
    },
    {
      "midi": 36,
      "hit": false,
      "t": 45375,
      "d": 375,
      "v": 95
    },
    {
      "midi": 42,
      "hit": false,
      "t": 45375,
      "d": 375,
      "v": 95
    },
    {
      "midi": 65,
      "hit": false,
      "t": 45375,
      "d": 375,
      "v": 95
    },
    {
      "midi": 61,
      "hit": false,
      "t": 45375,
      "d": 375,
      "v": 95
    },
    {
      "midi": 56,
      "hit": false,
      "t": 45375,
      "d": 375,
      "v": 95
    },
    {
      "midi": 53,
      "hit": false,
      "t": 45375,
      "d": 375,
      "v": 95
    },
    {
      "midi": 49,
      "hit": false,
      "t": 45375,
      "d": 375,
      "v": 95
    },
    {
      "midi": 58,
      "hit": false,
      "t": 45750,
      "d": 375,
      "v": 127
    },
    {
      "midi": 37,
      "hit": false,
      "t": 45750,
      "d": 375,
      "v": 95
    },
    {
      "midi": 38,
      "hit": false,
      "t": 45750,
      "d": 375,
      "v": 95
    },
    {
      "midi": 42,
      "hit": false,
      "t": 45750,
      "d": 375,
      "v": 95
    },
    {
      "midi": 65,
      "hit": false,
      "t": 45750,
      "d": 375,
      "v": 95
    },
    {
      "midi": 61,
      "hit": false,
      "t": 45750,
      "d": 375,
      "v": 95
    },
    {
      "midi": 56,
      "hit": false,
      "t": 45750,
      "d": 375,
      "v": 95
    },
    {
      "midi": 53,
      "hit": false,
      "t": 45750,
      "d": 375,
      "v": 95
    },
    {
      "midi": 49,
      "hit": false,
      "t": 45750,
      "d": 375,
      "v": 95
    },
    {
      "midi": 59,
      "hit": false,
      "t": 46125,
      "d": 187.5,
      "v": 127
    },
    {
      "midi": 37,
      "hit": false,
      "t": 46125,
      "d": 375,
      "v": 95
    },
    {
      "midi": 36,
      "hit": false,
      "t": 46125,
      "d": 375,
      "v": 95
    },
    {
      "midi": 42,
      "hit": false,
      "t": 46125,
      "d": 375,
      "v": 95
    },
    {
      "midi": 65,
      "hit": false,
      "t": 46125,
      "d": 375,
      "v": 95
    },
    {
      "midi": 61,
      "hit": false,
      "t": 46125,
      "d": 375,
      "v": 95
    },
    {
      "midi": 56,
      "hit": false,
      "t": 46125,
      "d": 375,
      "v": 95
    },
    {
      "midi": 53,
      "hit": false,
      "t": 46125,
      "d": 375,
      "v": 95
    },
    {
      "midi": 49,
      "hit": false,
      "t": 46125,
      "d": 375,
      "v": 95
    },
    {
      "midi": 58,
      "hit": false,
      "t": 46312.5,
      "d": 937.5,
      "v": 127
    },
    {
      "midi": 61,
      "hit": false,
      "t": 46500,
      "d": 1500,
      "v": 95
    },
    {
      "midi": 37,
      "hit": false,
      "t": 46500,
      "d": 375,
      "v": 95
    },
    {
      "midi": 42,
      "hit": false,
      "t": 46500,
      "d": 375,
      "v": 95
    },
    {
      "midi": 65,
      "hit": false,
      "t": 46500,
      "d": 375,
      "v": 95
    },
    {
      "midi": 61,
      "hit": false,
      "t": 46500,
      "d": 375,
      "v": 95
    },
    {
      "midi": 56,
      "hit": false,
      "t": 46500,
      "d": 375,
      "v": 95
    },
    {
      "midi": 53,
      "hit": false,
      "t": 46500,
      "d": 375,
      "v": 95
    },
    {
      "midi": 49,
      "hit": false,
      "t": 46500,
      "d": 375,
      "v": 95
    },
    {
      "midi": 37,
      "hit": false,
      "t": 46875,
      "d": 375,
      "v": 95
    },
    {
      "midi": 42,
      "hit": false,
      "t": 46875,
      "d": 375,
      "v": 95
    },
    {
      "midi": 36,
      "hit": false,
      "t": 46875,
      "d": 375,
      "v": 95
    },
    {
      "midi": 65,
      "hit": false,
      "t": 46875,
      "d": 375,
      "v": 95
    },
    {
      "midi": 61,
      "hit": false,
      "t": 46875,
      "d": 375,
      "v": 95
    },
    {
      "midi": 56,
      "hit": false,
      "t": 46875,
      "d": 375,
      "v": 95
    },
    {
      "midi": 53,
      "hit": false,
      "t": 46875,
      "d": 375,
      "v": 95
    },
    {
      "midi": 49,
      "hit": false,
      "t": 46875,
      "d": 375,
      "v": 95
    },
    {
      "midi": 54,
      "hit": false,
      "t": 47250,
      "d": 375,
      "v": 127
    },
    {
      "midi": 37,
      "hit": false,
      "t": 47250,
      "d": 375,
      "v": 95
    },
    {
      "midi": 42,
      "hit": false,
      "t": 47250,
      "d": 375,
      "v": 95
    },
    {
      "midi": 38,
      "hit": false,
      "t": 47250,
      "d": 375,
      "v": 95
    },
    {
      "midi": 65,
      "hit": false,
      "t": 47250,
      "d": 375,
      "v": 95
    },
    {
      "midi": 61,
      "hit": false,
      "t": 47250,
      "d": 375,
      "v": 95
    },
    {
      "midi": 56,
      "hit": false,
      "t": 47250,
      "d": 375,
      "v": 95
    },
    {
      "midi": 53,
      "hit": false,
      "t": 47250,
      "d": 375,
      "v": 95
    },
    {
      "midi": 49,
      "hit": false,
      "t": 47250,
      "d": 375,
      "v": 95
    },
    {
      "midi": 70,
      "hit": false,
      "t": 47250,
      "d": 750,
      "v": 95
    },
    {
      "midi": 70,
      "hit": false,
      "t": 47250,
      "d": 750,
      "v": 95
    },
    {
      "midi": 56,
      "hit": false,
      "t": 47625,
      "d": 375,
      "v": 127
    },
    {
      "midi": 37,
      "hit": false,
      "t": 47625,
      "d": 375,
      "v": 95
    },
    {
      "midi": 42,
      "hit": false,
      "t": 47625,
      "d": 375,
      "v": 95
    },
    {
      "midi": 65,
      "hit": false,
      "t": 47625,
      "d": 375,
      "v": 95
    },
    {
      "midi": 61,
      "hit": false,
      "t": 47625,
      "d": 375,
      "v": 95
    },
    {
      "midi": 56,
      "hit": false,
      "t": 47625,
      "d": 375,
      "v": 95
    },
    {
      "midi": 53,
      "hit": false,
      "t": 47625,
      "d": 375,
      "v": 95
    },
    {
      "midi": 49,
      "hit": false,
      "t": 47625,
      "d": 375,
      "v": 95
    },
    {
      "midi": 56,
      "hit": false,
      "t": 48000,
      "d": 187.5,
      "v": 127
    },
    {
      "midi": 51,
      "hit": false,
      "t": 48000,
      "d": 1500,
      "v": 95
    },
    {
      "midi": 27,
      "hit": false,
      "t": 48000,
      "d": 375,
      "v": 95
    },
    {
      "midi": 36,
      "hit": false,
      "t": 48000,
      "d": 375,
      "v": 95
    },
    {
      "midi": 42,
      "hit": false,
      "t": 48000,
      "d": 375,
      "v": 95
    },
    {
      "midi": 66,
      "hit": false,
      "t": 48000,
      "d": 375,
      "v": 95
    },
    {
      "midi": 63,
      "hit": false,
      "t": 48000,
      "d": 375,
      "v": 95
    },
    {
      "midi": 58,
      "hit": false,
      "t": 48000,
      "d": 375,
      "v": 95
    },
    {
      "midi": 51,
      "hit": false,
      "t": 48000,
      "d": 375,
      "v": 95
    },
    {
      "midi": 46,
      "hit": false,
      "t": 48000,
      "d": 375,
      "v": 95
    },
    {
      "midi": 66,
      "hit": false,
      "t": 48000,
      "d": 3000,
      "v": 95
    },
    {
      "midi": 66,
      "hit": false,
      "t": 48000,
      "d": 3000,
      "v": 95
    },
    {
      "midi": 56,
      "hit": false,
      "t": 48187.5,
      "d": 375,
      "v": 127
    },
    {
      "midi": 27,
      "hit": false,
      "t": 48375,
      "d": 375,
      "v": 95
    },
    {
      "midi": 36,
      "hit": false,
      "t": 48375,
      "d": 375,
      "v": 95
    },
    {
      "midi": 42,
      "hit": false,
      "t": 48375,
      "d": 375,
      "v": 95
    },
    {
      "midi": 66,
      "hit": false,
      "t": 48375,
      "d": 375,
      "v": 95
    },
    {
      "midi": 63,
      "hit": false,
      "t": 48375,
      "d": 375,
      "v": 95
    },
    {
      "midi": 58,
      "hit": false,
      "t": 48375,
      "d": 375,
      "v": 95
    },
    {
      "midi": 51,
      "hit": false,
      "t": 48375,
      "d": 375,
      "v": 95
    },
    {
      "midi": 46,
      "hit": false,
      "t": 48375,
      "d": 375,
      "v": 95
    },
    {
      "midi": 54,
      "hit": false,
      "t": 48562.5,
      "d": 562.5,
      "v": 127
    },
    {
      "midi": 27,
      "hit": false,
      "t": 48750,
      "d": 375,
      "v": 95
    },
    {
      "midi": 38,
      "hit": false,
      "t": 48750,
      "d": 375,
      "v": 95
    },
    {
      "midi": 42,
      "hit": false,
      "t": 48750,
      "d": 375,
      "v": 95
    },
    {
      "midi": 66,
      "hit": false,
      "t": 48750,
      "d": 375,
      "v": 95
    },
    {
      "midi": 63,
      "hit": false,
      "t": 48750,
      "d": 375,
      "v": 95
    },
    {
      "midi": 58,
      "hit": false,
      "t": 48750,
      "d": 375,
      "v": 95
    },
    {
      "midi": 51,
      "hit": false,
      "t": 48750,
      "d": 375,
      "v": 95
    },
    {
      "midi": 46,
      "hit": false,
      "t": 48750,
      "d": 375,
      "v": 95
    },
    {
      "midi": 54,
      "hit": false,
      "t": 49125,
      "d": 375,
      "v": 127
    },
    {
      "midi": 27,
      "hit": false,
      "t": 49125,
      "d": 375,
      "v": 95
    },
    {
      "midi": 36,
      "hit": false,
      "t": 49125,
      "d": 375,
      "v": 95
    },
    {
      "midi": 42,
      "hit": false,
      "t": 49125,
      "d": 375,
      "v": 95
    },
    {
      "midi": 66,
      "hit": false,
      "t": 49125,
      "d": 375,
      "v": 95
    },
    {
      "midi": 63,
      "hit": false,
      "t": 49125,
      "d": 375,
      "v": 95
    },
    {
      "midi": 58,
      "hit": false,
      "t": 49125,
      "d": 375,
      "v": 95
    },
    {
      "midi": 51,
      "hit": false,
      "t": 49125,
      "d": 375,
      "v": 95
    },
    {
      "midi": 46,
      "hit": false,
      "t": 49125,
      "d": 375,
      "v": 95
    },
    {
      "midi": 56,
      "hit": false,
      "t": 49500,
      "d": 187.5,
      "v": 127
    },
    {
      "midi": 54,
      "hit": false,
      "t": 49500,
      "d": 1500,
      "v": 95
    },
    {
      "midi": 27,
      "hit": false,
      "t": 49500,
      "d": 375,
      "v": 95
    },
    {
      "midi": 42,
      "hit": false,
      "t": 49500,
      "d": 375,
      "v": 95
    },
    {
      "midi": 66,
      "hit": false,
      "t": 49500,
      "d": 375,
      "v": 95
    },
    {
      "midi": 63,
      "hit": false,
      "t": 49500,
      "d": 375,
      "v": 95
    },
    {
      "midi": 58,
      "hit": false,
      "t": 49500,
      "d": 375,
      "v": 95
    },
    {
      "midi": 51,
      "hit": false,
      "t": 49500,
      "d": 375,
      "v": 95
    },
    {
      "midi": 46,
      "hit": false,
      "t": 49500,
      "d": 375,
      "v": 95
    },
    {
      "midi": 56,
      "hit": false,
      "t": 49687.5,
      "d": 375,
      "v": 127
    },
    {
      "midi": 27,
      "hit": false,
      "t": 49875,
      "d": 375,
      "v": 95
    },
    {
      "midi": 42,
      "hit": false,
      "t": 49875,
      "d": 375,
      "v": 95
    },
    {
      "midi": 36,
      "hit": false,
      "t": 49875,
      "d": 375,
      "v": 95
    },
    {
      "midi": 66,
      "hit": false,
      "t": 49875,
      "d": 375,
      "v": 95
    },
    {
      "midi": 63,
      "hit": false,
      "t": 49875,
      "d": 375,
      "v": 95
    },
    {
      "midi": 58,
      "hit": false,
      "t": 49875,
      "d": 375,
      "v": 95
    },
    {
      "midi": 51,
      "hit": false,
      "t": 49875,
      "d": 375,
      "v": 95
    },
    {
      "midi": 46,
      "hit": false,
      "t": 49875,
      "d": 375,
      "v": 95
    },
    {
      "midi": 54,
      "hit": false,
      "t": 50062.5,
      "d": 562.5,
      "v": 127
    },
    {
      "midi": 27,
      "hit": false,
      "t": 50250,
      "d": 375,
      "v": 95
    },
    {
      "midi": 42,
      "hit": false,
      "t": 50250,
      "d": 375,
      "v": 95
    },
    {
      "midi": 38,
      "hit": false,
      "t": 50250,
      "d": 375,
      "v": 95
    },
    {
      "midi": 66,
      "hit": false,
      "t": 50250,
      "d": 375,
      "v": 95
    },
    {
      "midi": 63,
      "hit": false,
      "t": 50250,
      "d": 375,
      "v": 95
    },
    {
      "midi": 58,
      "hit": false,
      "t": 50250,
      "d": 375,
      "v": 95
    },
    {
      "midi": 51,
      "hit": false,
      "t": 50250,
      "d": 375,
      "v": 95
    },
    {
      "midi": 46,
      "hit": false,
      "t": 50250,
      "d": 375,
      "v": 95
    },
    {
      "midi": 54,
      "hit": false,
      "t": 50625,
      "d": 375,
      "v": 127
    },
    {
      "midi": 27,
      "hit": false,
      "t": 50625,
      "d": 375,
      "v": 95
    },
    {
      "midi": 42,
      "hit": false,
      "t": 50625,
      "d": 375,
      "v": 95
    },
    {
      "midi": 66,
      "hit": false,
      "t": 50625,
      "d": 375,
      "v": 95
    },
    {
      "midi": 63,
      "hit": false,
      "t": 50625,
      "d": 375,
      "v": 95
    },
    {
      "midi": 58,
      "hit": false,
      "t": 50625,
      "d": 375,
      "v": 95
    },
    {
      "midi": 51,
      "hit": false,
      "t": 50625,
      "d": 375,
      "v": 95
    },
    {
      "midi": 46,
      "hit": false,
      "t": 50625,
      "d": 375,
      "v": 95
    },
    {
      "midi": 49,
      "hit": false,
      "t": 51000,
      "d": 375,
      "v": 127
    },
    {
      "midi": 54,
      "hit": false,
      "t": 51000,
      "d": 1500,
      "v": 95
    },
    {
      "midi": 35,
      "hit": false,
      "t": 51000,
      "d": 375,
      "v": 95
    },
    {
      "midi": 36,
      "hit": false,
      "t": 51000,
      "d": 375,
      "v": 95
    },
    {
      "midi": 42,
      "hit": false,
      "t": 51000,
      "d": 375,
      "v": 95
    },
    {
      "midi": 66,
      "hit": false,
      "t": 51000,
      "d": 375,
      "v": 95
    },
    {
      "midi": 63,
      "hit": false,
      "t": 51000,
      "d": 375,
      "v": 95
    },
    {
      "midi": 59,
      "hit": false,
      "t": 51000,
      "d": 375,
      "v": 95
    },
    {
      "midi": 54,
      "hit": false,
      "t": 51000,
      "d": 375,
      "v": 95
    },
    {
      "midi": 47,
      "hit": false,
      "t": 51000,
      "d": 375,
      "v": 95
    },
    {
      "midi": 71,
      "hit": false,
      "t": 51000,
      "d": 2250,
      "v": 95
    },
    {
      "midi": 71,
      "hit": false,
      "t": 51000,
      "d": 2250,
      "v": 95
    },
    {
      "midi": 51,
      "hit": false,
      "t": 51375,
      "d": 187.5,
      "v": 127
    },
    {
      "midi": 35,
      "hit": false,
      "t": 51375,
      "d": 375,
      "v": 95
    },
    {
      "midi": 36,
      "hit": false,
      "t": 51375,
      "d": 375,
      "v": 95
    },
    {
      "midi": 42,
      "hit": false,
      "t": 51375,
      "d": 375,
      "v": 95
    },
    {
      "midi": 66,
      "hit": false,
      "t": 51375,
      "d": 375,
      "v": 95
    },
    {
      "midi": 63,
      "hit": false,
      "t": 51375,
      "d": 375,
      "v": 95
    },
    {
      "midi": 59,
      "hit": false,
      "t": 51375,
      "d": 375,
      "v": 95
    },
    {
      "midi": 54,
      "hit": false,
      "t": 51375,
      "d": 375,
      "v": 95
    },
    {
      "midi": 47,
      "hit": false,
      "t": 51375,
      "d": 375,
      "v": 95
    },
    {
      "midi": 51,
      "hit": false,
      "t": 51562.5,
      "d": 562.5,
      "v": 127
    },
    {
      "midi": 35,
      "hit": false,
      "t": 51750,
      "d": 375,
      "v": 95
    },
    {
      "midi": 38,
      "hit": false,
      "t": 51750,
      "d": 375,
      "v": 95
    },
    {
      "midi": 42,
      "hit": false,
      "t": 51750,
      "d": 375,
      "v": 95
    },
    {
      "midi": 66,
      "hit": false,
      "t": 51750,
      "d": 375,
      "v": 95
    },
    {
      "midi": 63,
      "hit": false,
      "t": 51750,
      "d": 375,
      "v": 95
    },
    {
      "midi": 59,
      "hit": false,
      "t": 51750,
      "d": 375,
      "v": 95
    },
    {
      "midi": 54,
      "hit": false,
      "t": 51750,
      "d": 375,
      "v": 95
    },
    {
      "midi": 47,
      "hit": false,
      "t": 51750,
      "d": 375,
      "v": 95
    },
    {
      "midi": 54,
      "hit": false,
      "t": 52125,
      "d": 375,
      "v": 127
    },
    {
      "midi": 35,
      "hit": false,
      "t": 52125,
      "d": 375,
      "v": 95
    },
    {
      "midi": 36,
      "hit": false,
      "t": 52125,
      "d": 375,
      "v": 95
    },
    {
      "midi": 42,
      "hit": false,
      "t": 52125,
      "d": 375,
      "v": 95
    },
    {
      "midi": 66,
      "hit": false,
      "t": 52125,
      "d": 375,
      "v": 95
    },
    {
      "midi": 63,
      "hit": false,
      "t": 52125,
      "d": 375,
      "v": 95
    },
    {
      "midi": 59,
      "hit": false,
      "t": 52125,
      "d": 375,
      "v": 95
    },
    {
      "midi": 54,
      "hit": false,
      "t": 52125,
      "d": 375,
      "v": 95
    },
    {
      "midi": 47,
      "hit": false,
      "t": 52125,
      "d": 375,
      "v": 95
    },
    {
      "midi": 59,
      "hit": false,
      "t": 52500,
      "d": 1500,
      "v": 95
    },
    {
      "midi": 35,
      "hit": false,
      "t": 52500,
      "d": 375,
      "v": 95
    },
    {
      "midi": 42,
      "hit": false,
      "t": 52500,
      "d": 375,
      "v": 95
    },
    {
      "midi": 66,
      "hit": false,
      "t": 52500,
      "d": 375,
      "v": 95
    },
    {
      "midi": 63,
      "hit": false,
      "t": 52500,
      "d": 375,
      "v": 95
    },
    {
      "midi": 59,
      "hit": false,
      "t": 52500,
      "d": 375,
      "v": 95
    },
    {
      "midi": 54,
      "hit": false,
      "t": 52500,
      "d": 375,
      "v": 95
    },
    {
      "midi": 47,
      "hit": false,
      "t": 52500,
      "d": 375,
      "v": 95
    },
    {
      "midi": 54,
      "hit": false,
      "t": 52875,
      "d": 375,
      "v": 127
    },
    {
      "midi": 35,
      "hit": false,
      "t": 52875,
      "d": 375,
      "v": 95
    },
    {
      "midi": 42,
      "hit": false,
      "t": 52875,
      "d": 375,
      "v": 95
    },
    {
      "midi": 36,
      "hit": false,
      "t": 52875,
      "d": 375,
      "v": 95
    },
    {
      "midi": 66,
      "hit": false,
      "t": 52875,
      "d": 375,
      "v": 95
    },
    {
      "midi": 63,
      "hit": false,
      "t": 52875,
      "d": 375,
      "v": 95
    },
    {
      "midi": 59,
      "hit": false,
      "t": 52875,
      "d": 375,
      "v": 95
    },
    {
      "midi": 54,
      "hit": false,
      "t": 52875,
      "d": 375,
      "v": 95
    },
    {
      "midi": 47,
      "hit": false,
      "t": 52875,
      "d": 375,
      "v": 95
    },
    {
      "midi": 54,
      "hit": false,
      "t": 53250,
      "d": 187.5,
      "v": 127
    },
    {
      "midi": 35,
      "hit": false,
      "t": 53250,
      "d": 375,
      "v": 95
    },
    {
      "midi": 42,
      "hit": false,
      "t": 53250,
      "d": 375,
      "v": 95
    },
    {
      "midi": 38,
      "hit": false,
      "t": 53250,
      "d": 375,
      "v": 95
    },
    {
      "midi": 66,
      "hit": false,
      "t": 53250,
      "d": 375,
      "v": 95
    },
    {
      "midi": 63,
      "hit": false,
      "t": 53250,
      "d": 375,
      "v": 95
    },
    {
      "midi": 59,
      "hit": false,
      "t": 53250,
      "d": 375,
      "v": 95
    },
    {
      "midi": 54,
      "hit": false,
      "t": 53250,
      "d": 375,
      "v": 95
    },
    {
      "midi": 47,
      "hit": false,
      "t": 53250,
      "d": 375,
      "v": 95
    },
    {
      "midi": 73,
      "hit": false,
      "t": 53250,
      "d": 750,
      "v": 95
    },
    {
      "midi": 73,
      "hit": false,
      "t": 53250,
      "d": 750,
      "v": 95
    },
    {
      "midi": 56,
      "hit": false,
      "t": 53437.5,
      "d": 375,
      "v": 127
    },
    {
      "midi": 35,
      "hit": false,
      "t": 53625,
      "d": 375,
      "v": 95
    },
    {
      "midi": 42,
      "hit": false,
      "t": 53625,
      "d": 375,
      "v": 95
    },
    {
      "midi": 66,
      "hit": false,
      "t": 53625,
      "d": 375,
      "v": 95
    },
    {
      "midi": 63,
      "hit": false,
      "t": 53625,
      "d": 375,
      "v": 95
    },
    {
      "midi": 59,
      "hit": false,
      "t": 53625,
      "d": 375,
      "v": 95
    },
    {
      "midi": 54,
      "hit": false,
      "t": 53625,
      "d": 375,
      "v": 95
    },
    {
      "midi": 47,
      "hit": false,
      "t": 53625,
      "d": 375,
      "v": 95
    },
    {
      "midi": 58,
      "hit": false,
      "t": 53812.5,
      "d": 1687.5,
      "v": 127
    },
    {
      "midi": 54,
      "hit": false,
      "t": 54000,
      "d": 1500,
      "v": 95
    },
    {
      "midi": 30,
      "hit": false,
      "t": 54000,
      "d": 375,
      "v": 95
    },
    {
      "midi": 36,
      "hit": false,
      "t": 54000,
      "d": 375,
      "v": 95
    },
    {
      "midi": 42,
      "hit": false,
      "t": 54000,
      "d": 375,
      "v": 95
    },
    {
      "midi": 66,
      "hit": false,
      "t": 54000,
      "d": 375,
      "v": 95
    },
    {
      "midi": 61,
      "hit": false,
      "t": 54000,
      "d": 375,
      "v": 95
    },
    {
      "midi": 58,
      "hit": false,
      "t": 54000,
      "d": 375,
      "v": 95
    },
    {
      "midi": 54,
      "hit": false,
      "t": 54000,
      "d": 375,
      "v": 95
    },
    {
      "midi": 49,
      "hit": false,
      "t": 54000,
      "d": 375,
      "v": 95
    },
    {
      "midi": 42,
      "hit": false,
      "t": 54000,
      "d": 375,
      "v": 95
    },
    {
      "midi": 70,
      "hit": false,
      "t": 54000,
      "d": 2250,
      "v": 95
    },
    {
      "midi": 70,
      "hit": false,
      "t": 54000,
      "d": 2250,
      "v": 95
    },
    {
      "midi": 30,
      "hit": false,
      "t": 54375,
      "d": 375,
      "v": 95
    },
    {
      "midi": 36,
      "hit": false,
      "t": 54375,
      "d": 375,
      "v": 95
    },
    {
      "midi": 42,
      "hit": false,
      "t": 54375,
      "d": 375,
      "v": 95
    },
    {
      "midi": 66,
      "hit": false,
      "t": 54375,
      "d": 375,
      "v": 95
    },
    {
      "midi": 61,
      "hit": false,
      "t": 54375,
      "d": 375,
      "v": 95
    },
    {
      "midi": 58,
      "hit": false,
      "t": 54375,
      "d": 375,
      "v": 95
    },
    {
      "midi": 54,
      "hit": false,
      "t": 54375,
      "d": 375,
      "v": 95
    },
    {
      "midi": 49,
      "hit": false,
      "t": 54375,
      "d": 375,
      "v": 95
    },
    {
      "midi": 42,
      "hit": false,
      "t": 54375,
      "d": 375,
      "v": 95
    },
    {
      "midi": 30,
      "hit": false,
      "t": 54750,
      "d": 375,
      "v": 95
    },
    {
      "midi": 38,
      "hit": false,
      "t": 54750,
      "d": 375,
      "v": 95
    },
    {
      "midi": 42,
      "hit": false,
      "t": 54750,
      "d": 375,
      "v": 95
    },
    {
      "midi": 66,
      "hit": false,
      "t": 54750,
      "d": 375,
      "v": 95
    },
    {
      "midi": 61,
      "hit": false,
      "t": 54750,
      "d": 375,
      "v": 95
    },
    {
      "midi": 58,
      "hit": false,
      "t": 54750,
      "d": 375,
      "v": 95
    },
    {
      "midi": 54,
      "hit": false,
      "t": 54750,
      "d": 375,
      "v": 95
    },
    {
      "midi": 49,
      "hit": false,
      "t": 54750,
      "d": 375,
      "v": 95
    },
    {
      "midi": 42,
      "hit": false,
      "t": 54750,
      "d": 375,
      "v": 95
    },
    {
      "midi": 30,
      "hit": false,
      "t": 55125,
      "d": 375,
      "v": 95
    },
    {
      "midi": 36,
      "hit": false,
      "t": 55125,
      "d": 375,
      "v": 95
    },
    {
      "midi": 42,
      "hit": false,
      "t": 55125,
      "d": 375,
      "v": 95
    },
    {
      "midi": 66,
      "hit": false,
      "t": 55125,
      "d": 375,
      "v": 95
    },
    {
      "midi": 61,
      "hit": false,
      "t": 55125,
      "d": 375,
      "v": 95
    },
    {
      "midi": 58,
      "hit": false,
      "t": 55125,
      "d": 375,
      "v": 95
    },
    {
      "midi": 54,
      "hit": false,
      "t": 55125,
      "d": 375,
      "v": 95
    },
    {
      "midi": 49,
      "hit": false,
      "t": 55125,
      "d": 375,
      "v": 95
    },
    {
      "midi": 42,
      "hit": false,
      "t": 55125,
      "d": 375,
      "v": 95
    },
    {
      "midi": 61,
      "hit": false,
      "t": 55500,
      "d": 1500,
      "v": 95
    },
    {
      "midi": 30,
      "hit": false,
      "t": 55500,
      "d": 375,
      "v": 95
    },
    {
      "midi": 42,
      "hit": false,
      "t": 55500,
      "d": 375,
      "v": 95
    },
    {
      "midi": 66,
      "hit": false,
      "t": 55500,
      "d": 375,
      "v": 95
    },
    {
      "midi": 61,
      "hit": false,
      "t": 55500,
      "d": 375,
      "v": 95
    },
    {
      "midi": 58,
      "hit": false,
      "t": 55500,
      "d": 375,
      "v": 95
    },
    {
      "midi": 54,
      "hit": false,
      "t": 55500,
      "d": 375,
      "v": 95
    },
    {
      "midi": 49,
      "hit": false,
      "t": 55500,
      "d": 375,
      "v": 95
    },
    {
      "midi": 42,
      "hit": false,
      "t": 55500,
      "d": 375,
      "v": 95
    },
    {
      "midi": 54,
      "hit": false,
      "t": 55875,
      "d": 375,
      "v": 127
    },
    {
      "midi": 30,
      "hit": false,
      "t": 55875,
      "d": 375,
      "v": 95
    },
    {
      "midi": 42,
      "hit": false,
      "t": 55875,
      "d": 375,
      "v": 95
    },
    {
      "midi": 36,
      "hit": false,
      "t": 55875,
      "d": 375,
      "v": 95
    },
    {
      "midi": 66,
      "hit": false,
      "t": 55875,
      "d": 375,
      "v": 95
    },
    {
      "midi": 61,
      "hit": false,
      "t": 55875,
      "d": 375,
      "v": 95
    },
    {
      "midi": 58,
      "hit": false,
      "t": 55875,
      "d": 375,
      "v": 95
    },
    {
      "midi": 54,
      "hit": false,
      "t": 55875,
      "d": 375,
      "v": 95
    },
    {
      "midi": 49,
      "hit": false,
      "t": 55875,
      "d": 375,
      "v": 95
    },
    {
      "midi": 42,
      "hit": false,
      "t": 55875,
      "d": 375,
      "v": 95
    },
    {
      "midi": 54,
      "hit": false,
      "t": 56250,
      "d": 375,
      "v": 127
    },
    {
      "midi": 30,
      "hit": false,
      "t": 56250,
      "d": 375,
      "v": 95
    },
    {
      "midi": 42,
      "hit": false,
      "t": 56250,
      "d": 375,
      "v": 95
    },
    {
      "midi": 38,
      "hit": false,
      "t": 56250,
      "d": 375,
      "v": 95
    },
    {
      "midi": 66,
      "hit": false,
      "t": 56250,
      "d": 375,
      "v": 95
    },
    {
      "midi": 61,
      "hit": false,
      "t": 56250,
      "d": 375,
      "v": 95
    },
    {
      "midi": 58,
      "hit": false,
      "t": 56250,
      "d": 375,
      "v": 95
    },
    {
      "midi": 54,
      "hit": false,
      "t": 56250,
      "d": 375,
      "v": 95
    },
    {
      "midi": 49,
      "hit": false,
      "t": 56250,
      "d": 375,
      "v": 95
    },
    {
      "midi": 42,
      "hit": false,
      "t": 56250,
      "d": 375,
      "v": 95
    },
    {
      "midi": 71,
      "hit": false,
      "t": 56250,
      "d": 750,
      "v": 95
    },
    {
      "midi": 71,
      "hit": false,
      "t": 56250,
      "d": 750,
      "v": 95
    },
    {
      "midi": 56,
      "hit": false,
      "t": 56625,
      "d": 375,
      "v": 127
    },
    {
      "midi": 30,
      "hit": false,
      "t": 56625,
      "d": 375,
      "v": 95
    },
    {
      "midi": 42,
      "hit": false,
      "t": 56625,
      "d": 375,
      "v": 95
    },
    {
      "midi": 66,
      "hit": false,
      "t": 56625,
      "d": 375,
      "v": 95
    },
    {
      "midi": 61,
      "hit": false,
      "t": 56625,
      "d": 375,
      "v": 95
    },
    {
      "midi": 58,
      "hit": false,
      "t": 56625,
      "d": 375,
      "v": 95
    },
    {
      "midi": 54,
      "hit": false,
      "t": 56625,
      "d": 375,
      "v": 95
    },
    {
      "midi": 49,
      "hit": false,
      "t": 56625,
      "d": 375,
      "v": 95
    },
    {
      "midi": 42,
      "hit": false,
      "t": 56625,
      "d": 375,
      "v": 95
    },
    {
      "midi": 58,
      "hit": false,
      "t": 57000,
      "d": 375,
      "v": 127
    },
    {
      "midi": 53,
      "hit": false,
      "t": 57000,
      "d": 1500,
      "v": 95
    },
    {
      "midi": 37,
      "hit": false,
      "t": 57000,
      "d": 375,
      "v": 95
    },
    {
      "midi": 36,
      "hit": false,
      "t": 57000,
      "d": 375,
      "v": 95
    },
    {
      "midi": 42,
      "hit": false,
      "t": 57000,
      "d": 375,
      "v": 95
    },
    {
      "midi": 65,
      "hit": false,
      "t": 57000,
      "d": 375,
      "v": 95
    },
    {
      "midi": 61,
      "hit": false,
      "t": 57000,
      "d": 375,
      "v": 95
    },
    {
      "midi": 56,
      "hit": false,
      "t": 57000,
      "d": 375,
      "v": 95
    },
    {
      "midi": 53,
      "hit": false,
      "t": 57000,
      "d": 375,
      "v": 95
    },
    {
      "midi": 49,
      "hit": false,
      "t": 57000,
      "d": 375,
      "v": 95
    },
    {
      "midi": 68,
      "hit": false,
      "t": 57000,
      "d": 2250,
      "v": 95
    },
    {
      "midi": 68,
      "hit": false,
      "t": 57000,
      "d": 2250,
      "v": 95
    },
    {
      "midi": 59,
      "hit": false,
      "t": 57375,
      "d": 187.5,
      "v": 127
    },
    {
      "midi": 37,
      "hit": false,
      "t": 57375,
      "d": 375,
      "v": 95
    },
    {
      "midi": 36,
      "hit": false,
      "t": 57375,
      "d": 375,
      "v": 95
    },
    {
      "midi": 42,
      "hit": false,
      "t": 57375,
      "d": 375,
      "v": 95
    },
    {
      "midi": 65,
      "hit": false,
      "t": 57375,
      "d": 375,
      "v": 95
    },
    {
      "midi": 61,
      "hit": false,
      "t": 57375,
      "d": 375,
      "v": 95
    },
    {
      "midi": 56,
      "hit": false,
      "t": 57375,
      "d": 375,
      "v": 95
    },
    {
      "midi": 53,
      "hit": false,
      "t": 57375,
      "d": 375,
      "v": 95
    },
    {
      "midi": 49,
      "hit": false,
      "t": 57375,
      "d": 375,
      "v": 95
    },
    {
      "midi": 58,
      "hit": false,
      "t": 57562.5,
      "d": 562.5,
      "v": 127
    },
    {
      "midi": 37,
      "hit": false,
      "t": 57750,
      "d": 375,
      "v": 95
    },
    {
      "midi": 38,
      "hit": false,
      "t": 57750,
      "d": 375,
      "v": 95
    },
    {
      "midi": 42,
      "hit": false,
      "t": 57750,
      "d": 375,
      "v": 95
    },
    {
      "midi": 65,
      "hit": false,
      "t": 57750,
      "d": 375,
      "v": 95
    },
    {
      "midi": 61,
      "hit": false,
      "t": 57750,
      "d": 375,
      "v": 95
    },
    {
      "midi": 56,
      "hit": false,
      "t": 57750,
      "d": 375,
      "v": 95
    },
    {
      "midi": 53,
      "hit": false,
      "t": 57750,
      "d": 375,
      "v": 95
    },
    {
      "midi": 49,
      "hit": false,
      "t": 57750,
      "d": 375,
      "v": 95
    },
    {
      "midi": 59,
      "hit": false,
      "t": 58125,
      "d": 375,
      "v": 127
    },
    {
      "midi": 37,
      "hit": false,
      "t": 58125,
      "d": 375,
      "v": 95
    },
    {
      "midi": 36,
      "hit": false,
      "t": 58125,
      "d": 375,
      "v": 95
    },
    {
      "midi": 42,
      "hit": false,
      "t": 58125,
      "d": 375,
      "v": 95
    },
    {
      "midi": 65,
      "hit": false,
      "t": 58125,
      "d": 375,
      "v": 95
    },
    {
      "midi": 61,
      "hit": false,
      "t": 58125,
      "d": 375,
      "v": 95
    },
    {
      "midi": 56,
      "hit": false,
      "t": 58125,
      "d": 375,
      "v": 95
    },
    {
      "midi": 53,
      "hit": false,
      "t": 58125,
      "d": 375,
      "v": 95
    },
    {
      "midi": 49,
      "hit": false,
      "t": 58125,
      "d": 375,
      "v": 95
    },
    {
      "midi": 56,
      "hit": false,
      "t": 58500,
      "d": 187.5,
      "v": 127
    },
    {
      "midi": 61,
      "hit": false,
      "t": 58500,
      "d": 1500,
      "v": 95
    },
    {
      "midi": 37,
      "hit": false,
      "t": 58500,
      "d": 375,
      "v": 95
    },
    {
      "midi": 42,
      "hit": false,
      "t": 58500,
      "d": 375,
      "v": 95
    },
    {
      "midi": 65,
      "hit": false,
      "t": 58500,
      "d": 375,
      "v": 95
    },
    {
      "midi": 61,
      "hit": false,
      "t": 58500,
      "d": 375,
      "v": 95
    },
    {
      "midi": 56,
      "hit": false,
      "t": 58500,
      "d": 375,
      "v": 95
    },
    {
      "midi": 53,
      "hit": false,
      "t": 58500,
      "d": 375,
      "v": 95
    },
    {
      "midi": 49,
      "hit": false,
      "t": 58500,
      "d": 375,
      "v": 95
    },
    {
      "midi": 54,
      "hit": false,
      "t": 58687.5,
      "d": 375,
      "v": 127
    },
    {
      "midi": 37,
      "hit": false,
      "t": 58875,
      "d": 375,
      "v": 95
    },
    {
      "midi": 42,
      "hit": false,
      "t": 58875,
      "d": 375,
      "v": 95
    },
    {
      "midi": 36,
      "hit": false,
      "t": 58875,
      "d": 375,
      "v": 95
    },
    {
      "midi": 65,
      "hit": false,
      "t": 58875,
      "d": 375,
      "v": 95
    },
    {
      "midi": 61,
      "hit": false,
      "t": 58875,
      "d": 375,
      "v": 95
    },
    {
      "midi": 56,
      "hit": false,
      "t": 58875,
      "d": 375,
      "v": 95
    },
    {
      "midi": 53,
      "hit": false,
      "t": 58875,
      "d": 375,
      "v": 95
    },
    {
      "midi": 49,
      "hit": false,
      "t": 58875,
      "d": 375,
      "v": 95
    },
    {
      "midi": 54,
      "hit": false,
      "t": 59250,
      "d": 375,
      "v": 127
    },
    {
      "midi": 37,
      "hit": false,
      "t": 59250,
      "d": 375,
      "v": 95
    },
    {
      "midi": 42,
      "hit": false,
      "t": 59250,
      "d": 375,
      "v": 95
    },
    {
      "midi": 38,
      "hit": false,
      "t": 59250,
      "d": 375,
      "v": 95
    },
    {
      "midi": 65,
      "hit": false,
      "t": 59250,
      "d": 375,
      "v": 95
    },
    {
      "midi": 61,
      "hit": false,
      "t": 59250,
      "d": 375,
      "v": 95
    },
    {
      "midi": 56,
      "hit": false,
      "t": 59250,
      "d": 375,
      "v": 95
    },
    {
      "midi": 53,
      "hit": false,
      "t": 59250,
      "d": 375,
      "v": 95
    },
    {
      "midi": 49,
      "hit": false,
      "t": 59250,
      "d": 375,
      "v": 95
    },
    {
      "midi": 70,
      "hit": false,
      "t": 59250,
      "d": 750,
      "v": 95
    },
    {
      "midi": 70,
      "hit": false,
      "t": 59250,
      "d": 750,
      "v": 95
    },
    {
      "midi": 56,
      "hit": false,
      "t": 59625,
      "d": 375,
      "v": 127
    },
    {
      "midi": 37,
      "hit": false,
      "t": 59625,
      "d": 375,
      "v": 95
    },
    {
      "midi": 42,
      "hit": false,
      "t": 59625,
      "d": 375,
      "v": 95
    },
    {
      "midi": 65,
      "hit": false,
      "t": 59625,
      "d": 375,
      "v": 95
    },
    {
      "midi": 61,
      "hit": false,
      "t": 59625,
      "d": 375,
      "v": 95
    },
    {
      "midi": 56,
      "hit": false,
      "t": 59625,
      "d": 375,
      "v": 95
    },
    {
      "midi": 53,
      "hit": false,
      "t": 59625,
      "d": 375,
      "v": 95
    },
    {
      "midi": 49,
      "hit": false,
      "t": 59625,
      "d": 375,
      "v": 95
    },
    {
      "midi": 56,
      "hit": false,
      "t": 60000,
      "d": 187.5,
      "v": 127
    },
    {
      "midi": 51,
      "hit": false,
      "t": 60000,
      "d": 1500,
      "v": 95
    },
    {
      "midi": 27,
      "hit": false,
      "t": 60000,
      "d": 375,
      "v": 95
    },
    {
      "midi": 36,
      "hit": false,
      "t": 60000,
      "d": 375,
      "v": 95
    },
    {
      "midi": 42,
      "hit": false,
      "t": 60000,
      "d": 375,
      "v": 95
    },
    {
      "midi": 66,
      "hit": false,
      "t": 60000,
      "d": 375,
      "v": 95
    },
    {
      "midi": 63,
      "hit": false,
      "t": 60000,
      "d": 375,
      "v": 95
    },
    {
      "midi": 58,
      "hit": false,
      "t": 60000,
      "d": 375,
      "v": 95
    },
    {
      "midi": 51,
      "hit": false,
      "t": 60000,
      "d": 375,
      "v": 95
    },
    {
      "midi": 46,
      "hit": false,
      "t": 60000,
      "d": 375,
      "v": 95
    },
    {
      "midi": 66,
      "hit": false,
      "t": 60000,
      "d": 3000,
      "v": 95
    },
    {
      "midi": 66,
      "hit": false,
      "t": 60000,
      "d": 3000,
      "v": 95
    },
    {
      "midi": 56,
      "hit": false,
      "t": 60187.5,
      "d": 375,
      "v": 127
    },
    {
      "midi": 27,
      "hit": false,
      "t": 60375,
      "d": 375,
      "v": 95
    },
    {
      "midi": 36,
      "hit": false,
      "t": 60375,
      "d": 375,
      "v": 95
    },
    {
      "midi": 42,
      "hit": false,
      "t": 60375,
      "d": 375,
      "v": 95
    },
    {
      "midi": 66,
      "hit": false,
      "t": 60375,
      "d": 375,
      "v": 95
    },
    {
      "midi": 63,
      "hit": false,
      "t": 60375,
      "d": 375,
      "v": 95
    },
    {
      "midi": 58,
      "hit": false,
      "t": 60375,
      "d": 375,
      "v": 95
    },
    {
      "midi": 51,
      "hit": false,
      "t": 60375,
      "d": 375,
      "v": 95
    },
    {
      "midi": 46,
      "hit": false,
      "t": 60375,
      "d": 375,
      "v": 95
    },
    {
      "midi": 54,
      "hit": false,
      "t": 60562.5,
      "d": 375,
      "v": 127
    },
    {
      "midi": 27,
      "hit": false,
      "t": 60750,
      "d": 375,
      "v": 95
    },
    {
      "midi": 38,
      "hit": false,
      "t": 60750,
      "d": 375,
      "v": 95
    },
    {
      "midi": 42,
      "hit": false,
      "t": 60750,
      "d": 375,
      "v": 95
    },
    {
      "midi": 66,
      "hit": false,
      "t": 60750,
      "d": 375,
      "v": 95
    },
    {
      "midi": 63,
      "hit": false,
      "t": 60750,
      "d": 375,
      "v": 95
    },
    {
      "midi": 58,
      "hit": false,
      "t": 60750,
      "d": 375,
      "v": 95
    },
    {
      "midi": 51,
      "hit": false,
      "t": 60750,
      "d": 375,
      "v": 95
    },
    {
      "midi": 46,
      "hit": false,
      "t": 60750,
      "d": 375,
      "v": 95
    },
    {
      "midi": 54,
      "hit": false,
      "t": 60937.5,
      "d": 187.5,
      "v": 127
    },
    {
      "midi": 54,
      "hit": false,
      "t": 61125,
      "d": 187.5,
      "v": 127
    },
    {
      "midi": 27,
      "hit": false,
      "t": 61125,
      "d": 375,
      "v": 95
    },
    {
      "midi": 36,
      "hit": false,
      "t": 61125,
      "d": 375,
      "v": 95
    },
    {
      "midi": 42,
      "hit": false,
      "t": 61125,
      "d": 375,
      "v": 95
    },
    {
      "midi": 66,
      "hit": false,
      "t": 61125,
      "d": 375,
      "v": 95
    },
    {
      "midi": 63,
      "hit": false,
      "t": 61125,
      "d": 375,
      "v": 95
    },
    {
      "midi": 58,
      "hit": false,
      "t": 61125,
      "d": 375,
      "v": 95
    },
    {
      "midi": 51,
      "hit": false,
      "t": 61125,
      "d": 375,
      "v": 95
    },
    {
      "midi": 46,
      "hit": false,
      "t": 61125,
      "d": 375,
      "v": 95
    },
    {
      "midi": 57,
      "hit": false,
      "t": 61500,
      "d": 187.5,
      "v": 127
    },
    {
      "midi": 54,
      "hit": false,
      "t": 61500,
      "d": 1500,
      "v": 95
    },
    {
      "midi": 27,
      "hit": false,
      "t": 61500,
      "d": 375,
      "v": 95
    },
    {
      "midi": 42,
      "hit": false,
      "t": 61500,
      "d": 375,
      "v": 95
    },
    {
      "midi": 66,
      "hit": false,
      "t": 61500,
      "d": 375,
      "v": 95
    },
    {
      "midi": 63,
      "hit": false,
      "t": 61500,
      "d": 375,
      "v": 95
    },
    {
      "midi": 58,
      "hit": false,
      "t": 61500,
      "d": 375,
      "v": 95
    },
    {
      "midi": 51,
      "hit": false,
      "t": 61500,
      "d": 375,
      "v": 95
    },
    {
      "midi": 46,
      "hit": false,
      "t": 61500,
      "d": 375,
      "v": 95
    },
    {
      "midi": 56,
      "hit": false,
      "t": 61687.5,
      "d": 375,
      "v": 127
    },
    {
      "midi": 27,
      "hit": false,
      "t": 61875,
      "d": 375,
      "v": 95
    },
    {
      "midi": 42,
      "hit": false,
      "t": 61875,
      "d": 375,
      "v": 95
    },
    {
      "midi": 36,
      "hit": false,
      "t": 61875,
      "d": 375,
      "v": 95
    },
    {
      "midi": 66,
      "hit": false,
      "t": 61875,
      "d": 375,
      "v": 95
    },
    {
      "midi": 63,
      "hit": false,
      "t": 61875,
      "d": 375,
      "v": 95
    },
    {
      "midi": 58,
      "hit": false,
      "t": 61875,
      "d": 375,
      "v": 95
    },
    {
      "midi": 51,
      "hit": false,
      "t": 61875,
      "d": 375,
      "v": 95
    },
    {
      "midi": 46,
      "hit": false,
      "t": 61875,
      "d": 375,
      "v": 95
    },
    {
      "midi": 54,
      "hit": false,
      "t": 62062.5,
      "d": 562.5,
      "v": 127
    },
    {
      "midi": 27,
      "hit": false,
      "t": 62250,
      "d": 375,
      "v": 95
    },
    {
      "midi": 42,
      "hit": false,
      "t": 62250,
      "d": 375,
      "v": 95
    },
    {
      "midi": 38,
      "hit": false,
      "t": 62250,
      "d": 375,
      "v": 95
    },
    {
      "midi": 66,
      "hit": false,
      "t": 62250,
      "d": 375,
      "v": 95
    },
    {
      "midi": 63,
      "hit": false,
      "t": 62250,
      "d": 375,
      "v": 95
    },
    {
      "midi": 58,
      "hit": false,
      "t": 62250,
      "d": 375,
      "v": 95
    },
    {
      "midi": 51,
      "hit": false,
      "t": 62250,
      "d": 375,
      "v": 95
    },
    {
      "midi": 46,
      "hit": false,
      "t": 62250,
      "d": 375,
      "v": 95
    },
    {
      "midi": 49,
      "hit": false,
      "t": 62625,
      "d": 375,
      "v": 127
    },
    {
      "midi": 27,
      "hit": false,
      "t": 62625,
      "d": 375,
      "v": 95
    },
    {
      "midi": 42,
      "hit": false,
      "t": 62625,
      "d": 375,
      "v": 95
    },
    {
      "midi": 66,
      "hit": false,
      "t": 62625,
      "d": 375,
      "v": 95
    },
    {
      "midi": 63,
      "hit": false,
      "t": 62625,
      "d": 375,
      "v": 95
    },
    {
      "midi": 58,
      "hit": false,
      "t": 62625,
      "d": 375,
      "v": 95
    },
    {
      "midi": 51,
      "hit": false,
      "t": 62625,
      "d": 375,
      "v": 95
    },
    {
      "midi": 46,
      "hit": false,
      "t": 62625,
      "d": 375,
      "v": 95
    },
    {
      "midi": 51,
      "hit": false,
      "t": 63000,
      "d": 750,
      "v": 127
    },
    {
      "midi": 54,
      "hit": false,
      "t": 63000,
      "d": 1500,
      "v": 95
    },
    {
      "midi": 35,
      "hit": false,
      "t": 63000,
      "d": 375,
      "v": 95
    },
    {
      "midi": 36,
      "hit": false,
      "t": 63000,
      "d": 375,
      "v": 95
    },
    {
      "midi": 42,
      "hit": false,
      "t": 63000,
      "d": 375,
      "v": 95
    },
    {
      "midi": 66,
      "hit": false,
      "t": 63000,
      "d": 375,
      "v": 95
    },
    {
      "midi": 63,
      "hit": false,
      "t": 63000,
      "d": 375,
      "v": 95
    },
    {
      "midi": 59,
      "hit": false,
      "t": 63000,
      "d": 375,
      "v": 95
    },
    {
      "midi": 54,
      "hit": false,
      "t": 63000,
      "d": 375,
      "v": 95
    },
    {
      "midi": 47,
      "hit": false,
      "t": 63000,
      "d": 375,
      "v": 95
    },
    {
      "midi": 71,
      "hit": false,
      "t": 63000,
      "d": 2250,
      "v": 95
    },
    {
      "midi": 71,
      "hit": false,
      "t": 63000,
      "d": 2250,
      "v": 95
    },
    {
      "midi": 35,
      "hit": false,
      "t": 63375,
      "d": 375,
      "v": 95
    },
    {
      "midi": 36,
      "hit": false,
      "t": 63375,
      "d": 375,
      "v": 95
    },
    {
      "midi": 42,
      "hit": false,
      "t": 63375,
      "d": 375,
      "v": 95
    },
    {
      "midi": 66,
      "hit": false,
      "t": 63375,
      "d": 375,
      "v": 95
    },
    {
      "midi": 63,
      "hit": false,
      "t": 63375,
      "d": 375,
      "v": 95
    },
    {
      "midi": 59,
      "hit": false,
      "t": 63375,
      "d": 375,
      "v": 95
    },
    {
      "midi": 54,
      "hit": false,
      "t": 63375,
      "d": 375,
      "v": 95
    },
    {
      "midi": 47,
      "hit": false,
      "t": 63375,
      "d": 375,
      "v": 95
    },
    {
      "midi": 54,
      "hit": false,
      "t": 63750,
      "d": 750,
      "v": 127
    },
    {
      "midi": 35,
      "hit": false,
      "t": 63750,
      "d": 375,
      "v": 95
    },
    {
      "midi": 38,
      "hit": false,
      "t": 63750,
      "d": 375,
      "v": 95
    },
    {
      "midi": 42,
      "hit": false,
      "t": 63750,
      "d": 375,
      "v": 95
    },
    {
      "midi": 66,
      "hit": false,
      "t": 63750,
      "d": 375,
      "v": 95
    },
    {
      "midi": 63,
      "hit": false,
      "t": 63750,
      "d": 375,
      "v": 95
    },
    {
      "midi": 59,
      "hit": false,
      "t": 63750,
      "d": 375,
      "v": 95
    },
    {
      "midi": 54,
      "hit": false,
      "t": 63750,
      "d": 375,
      "v": 95
    },
    {
      "midi": 47,
      "hit": false,
      "t": 63750,
      "d": 375,
      "v": 95
    },
    {
      "midi": 35,
      "hit": false,
      "t": 64125,
      "d": 375,
      "v": 95
    },
    {
      "midi": 36,
      "hit": false,
      "t": 64125,
      "d": 375,
      "v": 95
    },
    {
      "midi": 42,
      "hit": false,
      "t": 64125,
      "d": 375,
      "v": 95
    },
    {
      "midi": 66,
      "hit": false,
      "t": 64125,
      "d": 375,
      "v": 95
    },
    {
      "midi": 63,
      "hit": false,
      "t": 64125,
      "d": 375,
      "v": 95
    },
    {
      "midi": 59,
      "hit": false,
      "t": 64125,
      "d": 375,
      "v": 95
    },
    {
      "midi": 54,
      "hit": false,
      "t": 64125,
      "d": 375,
      "v": 95
    },
    {
      "midi": 47,
      "hit": false,
      "t": 64125,
      "d": 375,
      "v": 95
    },
    {
      "midi": 58,
      "hit": false,
      "t": 64500,
      "d": 562.5,
      "v": 127
    },
    {
      "midi": 59,
      "hit": false,
      "t": 64500,
      "d": 1500,
      "v": 95
    },
    {
      "midi": 35,
      "hit": false,
      "t": 64500,
      "d": 375,
      "v": 95
    },
    {
      "midi": 38,
      "hit": false,
      "t": 64500,
      "d": 375,
      "v": 95
    },
    {
      "midi": 42,
      "hit": false,
      "t": 64500,
      "d": 375,
      "v": 95
    },
    {
      "midi": 66,
      "hit": false,
      "t": 64500,
      "d": 375,
      "v": 95
    },
    {
      "midi": 63,
      "hit": false,
      "t": 64500,
      "d": 375,
      "v": 95
    },
    {
      "midi": 59,
      "hit": false,
      "t": 64500,
      "d": 375,
      "v": 95
    },
    {
      "midi": 54,
      "hit": false,
      "t": 64500,
      "d": 375,
      "v": 95
    },
    {
      "midi": 47,
      "hit": false,
      "t": 64500,
      "d": 375,
      "v": 95
    },
    {
      "midi": 35,
      "hit": false,
      "t": 64875,
      "d": 375,
      "v": 95
    },
    {
      "midi": 36,
      "hit": false,
      "t": 64875,
      "d": 375,
      "v": 95
    },
    {
      "midi": 42,
      "hit": false,
      "t": 64875,
      "d": 375,
      "v": 95
    },
    {
      "midi": 66,
      "hit": false,
      "t": 64875,
      "d": 375,
      "v": 95
    },
    {
      "midi": 63,
      "hit": false,
      "t": 64875,
      "d": 375,
      "v": 95
    },
    {
      "midi": 59,
      "hit": false,
      "t": 64875,
      "d": 375,
      "v": 95
    },
    {
      "midi": 54,
      "hit": false,
      "t": 64875,
      "d": 375,
      "v": 95
    },
    {
      "midi": 47,
      "hit": false,
      "t": 64875,
      "d": 375,
      "v": 95
    },
    {
      "midi": 58,
      "hit": false,
      "t": 65062.5,
      "d": 375,
      "v": 127
    },
    {
      "midi": 35,
      "hit": false,
      "t": 65250,
      "d": 375,
      "v": 95
    },
    {
      "midi": 42,
      "hit": false,
      "t": 65250,
      "d": 375,
      "v": 95
    },
    {
      "midi": 38,
      "hit": false,
      "t": 65250,
      "d": 375,
      "v": 95
    },
    {
      "midi": 66,
      "hit": false,
      "t": 65250,
      "d": 375,
      "v": 95
    },
    {
      "midi": 63,
      "hit": false,
      "t": 65250,
      "d": 375,
      "v": 95
    },
    {
      "midi": 59,
      "hit": false,
      "t": 65250,
      "d": 375,
      "v": 95
    },
    {
      "midi": 54,
      "hit": false,
      "t": 65250,
      "d": 375,
      "v": 95
    },
    {
      "midi": 47,
      "hit": false,
      "t": 65250,
      "d": 375,
      "v": 95
    },
    {
      "midi": 73,
      "hit": false,
      "t": 65250,
      "d": 750,
      "v": 95
    },
    {
      "midi": 73,
      "hit": false,
      "t": 65250,
      "d": 750,
      "v": 95
    },
    {
      "midi": 56,
      "hit": false,
      "t": 65437.5,
      "d": 187.5,
      "v": 127
    },
    {
      "midi": 58,
      "hit": false,
      "t": 65625,
      "d": 1125,
      "v": 127
    },
    {
      "midi": 35,
      "hit": false,
      "t": 65625,
      "d": 375,
      "v": 95
    },
    {
      "midi": 42,
      "hit": false,
      "t": 65625,
      "d": 187.5,
      "v": 95
    },
    {
      "midi": 38,
      "hit": false,
      "t": 65625,
      "d": 187.5,
      "v": 95
    },
    {
      "midi": 66,
      "hit": false,
      "t": 65625,
      "d": 375,
      "v": 95
    },
    {
      "midi": 63,
      "hit": false,
      "t": 65625,
      "d": 375,
      "v": 95
    },
    {
      "midi": 59,
      "hit": false,
      "t": 65625,
      "d": 375,
      "v": 95
    },
    {
      "midi": 54,
      "hit": false,
      "t": 65625,
      "d": 375,
      "v": 95
    },
    {
      "midi": 47,
      "hit": false,
      "t": 65625,
      "d": 375,
      "v": 95
    },
    {
      "midi": 38,
      "hit": false,
      "t": 65812.5,
      "d": 187.5,
      "v": 95
    },
    {
      "midi": 70,
      "hit": false,
      "t": 66000,
      "d": 1500,
      "v": 95
    },
    {
      "midi": 30,
      "hit": false,
      "t": 66000,
      "d": 1500,
      "v": 95
    },
    {
      "midi": 36,
      "hit": false,
      "t": 66000,
      "d": 375,
      "v": 95
    },
    {
      "midi": 42,
      "hit": false,
      "t": 66000,
      "d": 375,
      "v": 95
    },
    {
      "midi": 66,
      "hit": false,
      "t": 66000,
      "d": 1500,
      "v": 95
    },
    {
      "midi": 61,
      "hit": false,
      "t": 66000,
      "d": 1500,
      "v": 95
    },
    {
      "midi": 58,
      "hit": false,
      "t": 66000,
      "d": 1500,
      "v": 95
    },
    {
      "midi": 54,
      "hit": false,
      "t": 66000,
      "d": 1500,
      "v": 95
    },
    {
      "midi": 49,
      "hit": false,
      "t": 66000,
      "d": 1500,
      "v": 95
    },
    {
      "midi": 42,
      "hit": false,
      "t": 66000,
      "d": 1500,
      "v": 95
    },
    {
      "midi": 70,
      "hit": false,
      "t": 66000,
      "d": 1500,
      "v": 95
    },
    {
      "midi": 36,
      "hit": false,
      "t": 66375,
      "d": 375,
      "v": 95
    },
    {
      "midi": 42,
      "hit": false,
      "t": 66375,
      "d": 375,
      "v": 95
    },
    {
      "midi": 56,
      "hit": false,
      "t": 66750,
      "d": 187.5,
      "v": 127
    },
    {
      "midi": 38,
      "hit": false,
      "t": 66750,
      "d": 375,
      "v": 95
    },
    {
      "midi": 42,
      "hit": false,
      "t": 66750,
      "d": 375,
      "v": 95
    },
    {
      "midi": 54,
      "hit": false,
      "t": 66937.5,
      "d": 3187.5,
      "v": 127
    },
    {
      "midi": 36,
      "hit": false,
      "t": 67125,
      "d": 375,
      "v": 95
    },
    {
      "midi": 68,
      "hit": false,
      "t": 67500,
      "d": 750,
      "v": 95
    },
    {
      "midi": 37,
      "hit": false,
      "t": 67500,
      "d": 1500,
      "v": 95
    },
    {
      "midi": 42,
      "hit": false,
      "t": 67500,
      "d": 375,
      "v": 95
    },
    {
      "midi": 65,
      "hit": false,
      "t": 67500,
      "d": 1500,
      "v": 95
    },
    {
      "midi": 61,
      "hit": false,
      "t": 67500,
      "d": 1500,
      "v": 95
    },
    {
      "midi": 56,
      "hit": false,
      "t": 67500,
      "d": 1500,
      "v": 95
    },
    {
      "midi": 53,
      "hit": false,
      "t": 67500,
      "d": 1500,
      "v": 95
    },
    {
      "midi": 49,
      "hit": false,
      "t": 67500,
      "d": 1500,
      "v": 95
    },
    {
      "midi": 68,
      "hit": false,
      "t": 67500,
      "d": 1500,
      "v": 95
    },
    {
      "midi": 36,
      "hit": false,
      "t": 67875,
      "d": 375,
      "v": 95
    },
    {
      "midi": 42,
      "hit": false,
      "t": 67875,
      "d": 375,
      "v": 95
    },
    {
      "midi": 73,
      "hit": false,
      "t": 68250,
      "d": 750,
      "v": 95
    },
    {
      "midi": 38,
      "hit": false,
      "t": 68250,
      "d": 375,
      "v": 95
    },
    {
      "midi": 42,
      "hit": false,
      "t": 68250,
      "d": 375,
      "v": 95
    },
    {
      "midi": 66,
      "hit": false,
      "t": 69000,
      "d": 3000,
      "v": 95
    },
    {
      "midi": 70,
      "hit": false,
      "t": 69000,
      "d": 3000,
      "v": 95
    },
    {
      "midi": 27,
      "hit": false,
      "t": 69000,
      "d": 3000,
      "v": 95
    },
    {
      "midi": 36,
      "hit": false,
      "t": 69000,
      "d": 375,
      "v": 95
    },
    {
      "midi": 42,
      "hit": false,
      "t": 69000,
      "d": 375,
      "v": 95
    },
    {
      "midi": 66,
      "hit": false,
      "t": 69000,
      "d": 3000,
      "v": 95
    },
    {
      "midi": 63,
      "hit": false,
      "t": 69000,
      "d": 3000,
      "v": 95
    },
    {
      "midi": 58,
      "hit": false,
      "t": 69000,
      "d": 3000,
      "v": 95
    },
    {
      "midi": 51,
      "hit": false,
      "t": 69000,
      "d": 3000,
      "v": 95
    },
    {
      "midi": 46,
      "hit": false,
      "t": 69000,
      "d": 3000,
      "v": 95
    },
    {
      "midi": 66,
      "hit": false,
      "t": 69000,
      "d": 3000,
      "v": 95
    },
    {
      "midi": 36,
      "hit": false,
      "t": 69375,
      "d": 375,
      "v": 95
    },
    {
      "midi": 42,
      "hit": false,
      "t": 69375,
      "d": 375,
      "v": 95
    },
    {
      "midi": 38,
      "hit": false,
      "t": 69750,
      "d": 375,
      "v": 95
    },
    {
      "midi": 42,
      "hit": false,
      "t": 69750,
      "d": 375,
      "v": 95
    },
    {
      "midi": 49,
      "hit": false,
      "t": 70125,
      "d": 187.5,
      "v": 127
    },
    {
      "midi": 36,
      "hit": false,
      "t": 70125,
      "d": 375,
      "v": 95
    },
    {
      "midi": 49,
      "hit": false,
      "t": 70312.5,
      "d": 187.5,
      "v": 127
    },
    {
      "midi": 51,
      "hit": false,
      "t": 70500,
      "d": 375,
      "v": 127
    },
    {
      "midi": 42,
      "hit": false,
      "t": 70500,
      "d": 375,
      "v": 95
    },
    {
      "midi": 54,
      "hit": false,
      "t": 70875,
      "d": 375,
      "v": 127
    },
    {
      "midi": 36,
      "hit": false,
      "t": 70875,
      "d": 375,
      "v": 95
    },
    {
      "midi": 42,
      "hit": false,
      "t": 70875,
      "d": 375,
      "v": 95
    },
    {
      "midi": 56,
      "hit": false,
      "t": 71250,
      "d": 187.5,
      "v": 127
    },
    {
      "midi": 38,
      "hit": false,
      "t": 71250,
      "d": 375,
      "v": 95
    },
    {
      "midi": 42,
      "hit": false,
      "t": 71250,
      "d": 375,
      "v": 95
    },
    {
      "midi": 54,
      "hit": false,
      "t": 71437.5,
      "d": 375,
      "v": 127
    },
    {
      "midi": 56,
      "hit": false,
      "t": 71812.5,
      "d": 937.5,
      "v": 127
    },
    {
      "midi": 70,
      "hit": false,
      "t": 72000,
      "d": 1500,
      "v": 95
    },
    {
      "midi": 30,
      "hit": false,
      "t": 72000,
      "d": 1500,
      "v": 95
    },
    {
      "midi": 42,
      "hit": false,
      "t": 72000,
      "d": 375,
      "v": 95
    },
    {
      "midi": 36,
      "hit": false,
      "t": 72000,
      "d": 375,
      "v": 95
    },
    {
      "midi": 66,
      "hit": false,
      "t": 72000,
      "d": 1500,
      "v": 95
    },
    {
      "midi": 61,
      "hit": false,
      "t": 72000,
      "d": 1500,
      "v": 95
    },
    {
      "midi": 58,
      "hit": false,
      "t": 72000,
      "d": 1500,
      "v": 95
    },
    {
      "midi": 54,
      "hit": false,
      "t": 72000,
      "d": 1500,
      "v": 95
    },
    {
      "midi": 49,
      "hit": false,
      "t": 72000,
      "d": 1500,
      "v": 95
    },
    {
      "midi": 42,
      "hit": false,
      "t": 72000,
      "d": 1500,
      "v": 95
    },
    {
      "midi": 66,
      "hit": false,
      "t": 72000,
      "d": 1500,
      "v": 95
    },
    {
      "midi": 42,
      "hit": false,
      "t": 72375,
      "d": 375,
      "v": 95
    },
    {
      "midi": 59,
      "hit": false,
      "t": 72750,
      "d": 375,
      "v": 127
    },
    {
      "midi": 42,
      "hit": false,
      "t": 72750,
      "d": 562.5,
      "v": 95
    },
    {
      "midi": 38,
      "hit": false,
      "t": 72750,
      "d": 562.5,
      "v": 95
    },
    {
      "midi": 56,
      "hit": false,
      "t": 73125,
      "d": 187.5,
      "v": 127
    },
    {
      "midi": 54,
      "hit": false,
      "t": 73312.5,
      "d": 1687.5,
      "v": 127
    },
    {
      "midi": 36,
      "hit": false,
      "t": 73312.5,
      "d": 187.5,
      "v": 95
    },
    {
      "midi": 66,
      "hit": false,
      "t": 73500,
      "d": 750,
      "v": 95
    },
    {
      "midi": 37,
      "hit": false,
      "t": 73500,
      "d": 1500,
      "v": 95
    },
    {
      "midi": 38,
      "hit": false,
      "t": 73500,
      "d": 375,
      "v": 95
    },
    {
      "midi": 42,
      "hit": false,
      "t": 73500,
      "d": 375,
      "v": 95
    },
    {
      "midi": 65,
      "hit": false,
      "t": 73500,
      "d": 1500,
      "v": 95
    },
    {
      "midi": 61,
      "hit": false,
      "t": 73500,
      "d": 1500,
      "v": 95
    },
    {
      "midi": 56,
      "hit": false,
      "t": 73500,
      "d": 1500,
      "v": 95
    },
    {
      "midi": 53,
      "hit": false,
      "t": 73500,
      "d": 1500,
      "v": 95
    },
    {
      "midi": 49,
      "hit": false,
      "t": 73500,
      "d": 1500,
      "v": 95
    },
    {
      "midi": 65,
      "hit": false,
      "t": 73500,
      "d": 750,
      "v": 95
    },
    {
      "midi": 36,
      "hit": false,
      "t": 73875,
      "d": 375,
      "v": 95
    },
    {
      "midi": 42,
      "hit": false,
      "t": 73875,
      "d": 375,
      "v": 95
    },
    {
      "midi": 65,
      "hit": false,
      "t": 74250,
      "d": 750,
      "v": 95
    },
    {
      "midi": 42,
      "hit": false,
      "t": 74250,
      "d": 375,
      "v": 95
    },
    {
      "midi": 38,
      "hit": false,
      "t": 74250,
      "d": 375,
      "v": 95
    },
    {
      "midi": 66,
      "hit": false,
      "t": 74250,
      "d": 750,
      "v": 95
    },
    {
      "midi": 42,
      "hit": false,
      "t": 74625,
      "d": 187.5,
      "v": 95
    },
    {
      "midi": 38,
      "hit": false,
      "t": 74625,
      "d": 187.5,
      "v": 95
    },
    {
      "midi": 38,
      "hit": false,
      "t": 74812.5,
      "d": 187.5,
      "v": 95
    },
    {
      "midi": 63,
      "hit": false,
      "t": 75000,
      "d": 1500,
      "v": 95
    },
    {
      "midi": 35,
      "hit": false,
      "t": 75000,
      "d": 3000,
      "v": 95
    },
    {
      "midi": 46,
      "hit": false,
      "t": 75000,
      "d": 375,
      "v": 95
    },
    {
      "midi": 66,
      "hit": false,
      "t": 75000,
      "d": 2625,
      "v": 95
    },
    {
      "midi": 63,
      "hit": false,
      "t": 75000,
      "d": 2625,
      "v": 95
    },
    {
      "midi": 59,
      "hit": false,
      "t": 75000,
      "d": 2625,
      "v": 95
    },
    {
      "midi": 54,
      "hit": false,
      "t": 75000,
      "d": 2625,
      "v": 95
    },
    {
      "midi": 47,
      "hit": false,
      "t": 75000,
      "d": 2625,
      "v": 95
    },
    {
      "midi": 63,
      "hit": false,
      "t": 75000,
      "d": 6000,
      "v": 95
    },
    {
      "midi": 42,
      "hit": false,
      "t": 75750,
      "d": 375,
      "v": 95
    },
    {
      "midi": 49,
      "hit": false,
      "t": 76125,
      "d": 187.5,
      "v": 127
    },
    {
      "midi": 49,
      "hit": false,
      "t": 76312.5,
      "d": 187.5,
      "v": 127
    },
    {
      "midi": 51,
      "hit": false,
      "t": 76500,
      "d": 375,
      "v": 127
    },
    {
      "midi": 54,
      "hit": false,
      "t": 76875,
      "d": 375,
      "v": 127
    },
    {
      "midi": 56,
      "hit": false,
      "t": 77250,
      "d": 187.5,
      "v": 127
    },
    {
      "midi": 42,
      "hit": false,
      "t": 77250,
      "d": 375,
      "v": 95
    },
    {
      "midi": 53,
      "hit": false,
      "t": 77437.5,
      "d": 562.5,
      "v": 127
    },
    {
      "midi": 66,
      "hit": false,
      "t": 77625,
      "d": 3375,
      "v": 95
    },
    {
      "midi": 63,
      "hit": false,
      "t": 77675,
      "d": 3325,
      "v": 95
    },
    {
      "midi": 59,
      "hit": false,
      "t": 77725,
      "d": 3275,
      "v": 95
    },
    {
      "midi": 54,
      "hit": false,
      "t": 77775,
      "d": 3225,
      "v": 95
    },
    {
      "midi": 47,
      "hit": false,
      "t": 77825,
      "d": 3175,
      "v": 95
    },
    {
      "midi": 54,
      "hit": false,
      "t": 78000,
      "d": 2250,
      "v": 95
    },
    {
      "midi": 35,
      "hit": false,
      "t": 78000,
      "d": 3000,
      "v": 95
    },
    {
      "midi": 38,
      "hit": false,
      "t": 78000,
      "d": 375,
      "v": 95
    },
    {
      "midi": 47,
      "hit": false,
      "t": 78375,
      "d": 375,
      "v": 95
    },
    {
      "midi": 45,
      "hit": false,
      "t": 79125,
      "d": 375,
      "v": 95
    },
    {
      "midi": 38,
      "hit": false,
      "t": 79500,
      "d": 375,
      "v": 95
    },
    {
      "midi": 42,
      "hit": false,
      "t": 79500,
      "d": 375,
      "v": 95
    },
    {
      "midi": 36,
      "hit": false,
      "t": 79875,
      "d": 375,
      "v": 95
    },
    {
      "midi": 42,
      "hit": false,
      "t": 79875,
      "d": 375,
      "v": 95
    },
    {
      "midi": 49,
      "hit": false,
      "t": 80250,
      "d": 750,
      "v": 127
    },
    {
      "midi": 42,
      "hit": false,
      "t": 80250,
      "d": 375,
      "v": 95
    },
    {
      "midi": 38,
      "hit": false,
      "t": 80250,
      "d": 375,
      "v": 95
    },
    {
      "midi": 42,
      "hit": false,
      "t": 80625,
      "d": 187.5,
      "v": 95
    },
    {
      "midi": 38,
      "hit": false,
      "t": 80625,
      "d": 187.5,
      "v": 95
    },
    {
      "midi": 38,
      "hit": false,
      "t": 80812.5,
      "d": 187.5,
      "v": 95
    },
    {
      "midi": 39,
      "hit": false,
      "t": 81000,
      "d": 375,
      "v": 95
    },
    {
      "midi": 27,
      "hit": false,
      "t": 81000,
      "d": 1500,
      "v": 95
    },
    {
      "midi": 42,
      "hit": false,
      "t": 81000,
      "d": 375,
      "v": 95
    },
    {
      "midi": 36,
      "hit": false,
      "t": 81000,
      "d": 375,
      "v": 95
    },
    {
      "midi": 66,
      "hit": false,
      "t": 81000,
      "d": 375,
      "v": 95
    },
    {
      "midi": 63,
      "hit": false,
      "t": 81000,
      "d": 375,
      "v": 95
    },
    {
      "midi": 58,
      "hit": false,
      "t": 81000,
      "d": 375,
      "v": 95
    },
    {
      "midi": 51,
      "hit": false,
      "t": 81000,
      "d": 375,
      "v": 95
    },
    {
      "midi": 39,
      "hit": false,
      "t": 81375,
      "d": 375,
      "v": 95
    },
    {
      "midi": 42,
      "hit": false,
      "t": 81375,
      "d": 375,
      "v": 95
    },
    {
      "midi": 66,
      "hit": false,
      "t": 81375,
      "d": 375,
      "v": 95
    },
    {
      "midi": 63,
      "hit": false,
      "t": 81375,
      "d": 375,
      "v": 95
    },
    {
      "midi": 58,
      "hit": false,
      "t": 81375,
      "d": 375,
      "v": 95
    },
    {
      "midi": 51,
      "hit": false,
      "t": 81375,
      "d": 375,
      "v": 95
    },
    {
      "midi": 46,
      "hit": false,
      "t": 81750,
      "d": 375,
      "v": 95
    },
    {
      "midi": 42,
      "hit": false,
      "t": 81750,
      "d": 375,
      "v": 95
    },
    {
      "midi": 38,
      "hit": false,
      "t": 81750,
      "d": 375,
      "v": 95
    },
    {
      "midi": 66,
      "hit": false,
      "t": 81750,
      "d": 375,
      "v": 95
    },
    {
      "midi": 63,
      "hit": false,
      "t": 81750,
      "d": 375,
      "v": 95
    },
    {
      "midi": 58,
      "hit": false,
      "t": 81750,
      "d": 375,
      "v": 95
    },
    {
      "midi": 51,
      "hit": false,
      "t": 81750,
      "d": 375,
      "v": 95
    },
    {
      "midi": 61,
      "hit": false,
      "t": 81750,
      "d": 750,
      "v": 95
    },
    {
      "midi": 43,
      "hit": false,
      "t": 82125,
      "d": 15.625,
      "v": 127
    },
    {
      "midi": 38,
      "hit": false,
      "t": 82125,
      "d": 15.625,
      "v": 127
    },
    {
      "midi": 42,
      "hit": false,
      "t": 82125,
      "d": 375,
      "v": 95
    },
    {
      "midi": 66,
      "hit": false,
      "t": 82125,
      "d": 375,
      "v": 95
    },
    {
      "midi": 63,
      "hit": false,
      "t": 82125,
      "d": 375,
      "v": 95
    },
    {
      "midi": 58,
      "hit": false,
      "t": 82125,
      "d": 375,
      "v": 95
    },
    {
      "midi": 51,
      "hit": false,
      "t": 82125,
      "d": 375,
      "v": 95
    },
    {
      "midi": 35,
      "hit": false,
      "t": 82500,
      "d": 1500,
      "v": 95
    },
    {
      "midi": 42,
      "hit": false,
      "t": 82500,
      "d": 375,
      "v": 95
    },
    {
      "midi": 36,
      "hit": false,
      "t": 82500,
      "d": 375,
      "v": 95
    },
    {
      "midi": 66,
      "hit": false,
      "t": 82500,
      "d": 375,
      "v": 95
    },
    {
      "midi": 63,
      "hit": false,
      "t": 82500,
      "d": 375,
      "v": 95
    },
    {
      "midi": 59,
      "hit": false,
      "t": 82500,
      "d": 375,
      "v": 95
    },
    {
      "midi": 54,
      "hit": false,
      "t": 82500,
      "d": 375,
      "v": 95
    },
    {
      "midi": 47,
      "hit": false,
      "t": 82500,
      "d": 375,
      "v": 95
    },
    {
      "midi": 47,
      "hit": false,
      "t": 82875,
      "d": 750,
      "v": 95
    },
    {
      "midi": 42,
      "hit": false,
      "t": 82875,
      "d": 375,
      "v": 95
    },
    {
      "midi": 66,
      "hit": false,
      "t": 82875,
      "d": 375,
      "v": 95
    },
    {
      "midi": 63,
      "hit": false,
      "t": 82875,
      "d": 375,
      "v": 95
    },
    {
      "midi": 59,
      "hit": false,
      "t": 82875,
      "d": 375,
      "v": 95
    },
    {
      "midi": 54,
      "hit": false,
      "t": 82875,
      "d": 375,
      "v": 95
    },
    {
      "midi": 47,
      "hit": false,
      "t": 82875,
      "d": 375,
      "v": 95
    },
    {
      "midi": 42,
      "hit": false,
      "t": 83250,
      "d": 375,
      "v": 95
    },
    {
      "midi": 38,
      "hit": false,
      "t": 83250,
      "d": 375,
      "v": 95
    },
    {
      "midi": 66,
      "hit": false,
      "t": 83250,
      "d": 375,
      "v": 95
    },
    {
      "midi": 63,
      "hit": false,
      "t": 83250,
      "d": 375,
      "v": 95
    },
    {
      "midi": 59,
      "hit": false,
      "t": 83250,
      "d": 375,
      "v": 95
    },
    {
      "midi": 54,
      "hit": false,
      "t": 83250,
      "d": 375,
      "v": 95
    },
    {
      "midi": 47,
      "hit": false,
      "t": 83250,
      "d": 375,
      "v": 95
    },
    {
      "midi": 46,
      "hit": false,
      "t": 83625,
      "d": 750,
      "v": 95
    },
    {
      "midi": 42,
      "hit": false,
      "t": 83625,
      "d": 750,
      "v": 95
    },
    {
      "midi": 42,
      "hit": false,
      "t": 83625,
      "d": 375,
      "v": 95
    },
    {
      "midi": 66,
      "hit": false,
      "t": 83625,
      "d": 375,
      "v": 95
    },
    {
      "midi": 63,
      "hit": false,
      "t": 83625,
      "d": 375,
      "v": 95
    },
    {
      "midi": 59,
      "hit": false,
      "t": 83625,
      "d": 375,
      "v": 95
    },
    {
      "midi": 54,
      "hit": false,
      "t": 83625,
      "d": 375,
      "v": 95
    },
    {
      "midi": 47,
      "hit": false,
      "t": 83625,
      "d": 375,
      "v": 95
    },
    {
      "midi": 53,
      "hit": false,
      "t": 83625,
      "d": 187.5,
      "v": 95
    },
    {
      "midi": 54,
      "hit": false,
      "t": 83812.5,
      "d": 187.5,
      "v": 95
    },
    {
      "midi": 30,
      "hit": false,
      "t": 84000,
      "d": 1500,
      "v": 95
    },
    {
      "midi": 42,
      "hit": false,
      "t": 84000,
      "d": 375,
      "v": 95
    },
    {
      "midi": 36,
      "hit": false,
      "t": 84000,
      "d": 375,
      "v": 95
    },
    {
      "midi": 66,
      "hit": false,
      "t": 84000,
      "d": 375,
      "v": 95
    },
    {
      "midi": 61,
      "hit": false,
      "t": 84000,
      "d": 375,
      "v": 95
    },
    {
      "midi": 58,
      "hit": false,
      "t": 84000,
      "d": 375,
      "v": 95
    },
    {
      "midi": 54,
      "hit": false,
      "t": 84000,
      "d": 375,
      "v": 95
    },
    {
      "midi": 49,
      "hit": false,
      "t": 84000,
      "d": 375,
      "v": 95
    },
    {
      "midi": 46,
      "hit": false,
      "t": 84375,
      "d": 375,
      "v": 95
    },
    {
      "midi": 42,
      "hit": false,
      "t": 84375,
      "d": 375,
      "v": 95
    },
    {
      "midi": 42,
      "hit": false,
      "t": 84375,
      "d": 375,
      "v": 95
    },
    {
      "midi": 66,
      "hit": false,
      "t": 84375,
      "d": 375,
      "v": 95
    },
    {
      "midi": 61,
      "hit": false,
      "t": 84375,
      "d": 375,
      "v": 95
    },
    {
      "midi": 58,
      "hit": false,
      "t": 84375,
      "d": 375,
      "v": 95
    },
    {
      "midi": 54,
      "hit": false,
      "t": 84375,
      "d": 375,
      "v": 95
    },
    {
      "midi": 49,
      "hit": false,
      "t": 84375,
      "d": 375,
      "v": 95
    },
    {
      "midi": 46,
      "hit": false,
      "t": 84750,
      "d": 375,
      "v": 95
    },
    {
      "midi": 42,
      "hit": false,
      "t": 84750,
      "d": 375,
      "v": 95
    },
    {
      "midi": 42,
      "hit": false,
      "t": 84750,
      "d": 375,
      "v": 95
    },
    {
      "midi": 38,
      "hit": false,
      "t": 84750,
      "d": 375,
      "v": 95
    },
    {
      "midi": 66,
      "hit": false,
      "t": 84750,
      "d": 375,
      "v": 95
    },
    {
      "midi": 61,
      "hit": false,
      "t": 84750,
      "d": 375,
      "v": 95
    },
    {
      "midi": 58,
      "hit": false,
      "t": 84750,
      "d": 375,
      "v": 95
    },
    {
      "midi": 54,
      "hit": false,
      "t": 84750,
      "d": 375,
      "v": 95
    },
    {
      "midi": 49,
      "hit": false,
      "t": 84750,
      "d": 375,
      "v": 95
    },
    {
      "midi": 42,
      "hit": false,
      "t": 85125,
      "d": 375,
      "v": 95
    },
    {
      "midi": 66,
      "hit": false,
      "t": 85125,
      "d": 375,
      "v": 95
    },
    {
      "midi": 61,
      "hit": false,
      "t": 85125,
      "d": 375,
      "v": 95
    },
    {
      "midi": 58,
      "hit": false,
      "t": 85125,
      "d": 375,
      "v": 95
    },
    {
      "midi": 54,
      "hit": false,
      "t": 85125,
      "d": 375,
      "v": 95
    },
    {
      "midi": 49,
      "hit": false,
      "t": 85125,
      "d": 375,
      "v": 95
    },
    {
      "midi": 37,
      "hit": false,
      "t": 85500,
      "d": 375,
      "v": 95
    },
    {
      "midi": 37,
      "hit": false,
      "t": 85500,
      "d": 1500,
      "v": 95
    },
    {
      "midi": 42,
      "hit": false,
      "t": 85500,
      "d": 375,
      "v": 95
    },
    {
      "midi": 36,
      "hit": false,
      "t": 85500,
      "d": 375,
      "v": 95
    },
    {
      "midi": 65,
      "hit": false,
      "t": 85500,
      "d": 375,
      "v": 95
    },
    {
      "midi": 61,
      "hit": false,
      "t": 85500,
      "d": 375,
      "v": 95
    },
    {
      "midi": 56,
      "hit": false,
      "t": 85500,
      "d": 375,
      "v": 95
    },
    {
      "midi": 53,
      "hit": false,
      "t": 85500,
      "d": 375,
      "v": 95
    },
    {
      "midi": 49,
      "hit": false,
      "t": 85500,
      "d": 375,
      "v": 95
    },
    {
      "midi": 53,
      "hit": false,
      "t": 85500,
      "d": 187.5,
      "v": 95
    },
    {
      "midi": 54,
      "hit": false,
      "t": 85687.5,
      "d": 187.5,
      "v": 95
    },
    {
      "midi": 37,
      "hit": false,
      "t": 85875,
      "d": 375,
      "v": 95
    },
    {
      "midi": 42,
      "hit": false,
      "t": 85875,
      "d": 375,
      "v": 95
    },
    {
      "midi": 65,
      "hit": false,
      "t": 85875,
      "d": 375,
      "v": 95
    },
    {
      "midi": 61,
      "hit": false,
      "t": 85875,
      "d": 375,
      "v": 95
    },
    {
      "midi": 56,
      "hit": false,
      "t": 85875,
      "d": 375,
      "v": 95
    },
    {
      "midi": 53,
      "hit": false,
      "t": 85875,
      "d": 375,
      "v": 95
    },
    {
      "midi": 49,
      "hit": false,
      "t": 85875,
      "d": 375,
      "v": 95
    },
    {
      "midi": 53,
      "hit": false,
      "t": 85875,
      "d": 187.5,
      "v": 95
    },
    {
      "midi": 51,
      "hit": false,
      "t": 86062.5,
      "d": 187.5,
      "v": 95
    },
    {
      "midi": 49,
      "hit": false,
      "t": 86250,
      "d": 375,
      "v": 95
    },
    {
      "midi": 61,
      "hit": false,
      "t": 86250,
      "d": 375,
      "v": 95
    },
    {
      "midi": 42,
      "hit": false,
      "t": 86250,
      "d": 375,
      "v": 95
    },
    {
      "midi": 38,
      "hit": false,
      "t": 86250,
      "d": 375,
      "v": 95
    },
    {
      "midi": 65,
      "hit": false,
      "t": 86250,
      "d": 375,
      "v": 95
    },
    {
      "midi": 61,
      "hit": false,
      "t": 86250,
      "d": 375,
      "v": 95
    },
    {
      "midi": 56,
      "hit": false,
      "t": 86250,
      "d": 375,
      "v": 95
    },
    {
      "midi": 53,
      "hit": false,
      "t": 86250,
      "d": 375,
      "v": 95
    },
    {
      "midi": 49,
      "hit": false,
      "t": 86250,
      "d": 375,
      "v": 95
    },
    {
      "midi": 51,
      "hit": false,
      "t": 86250,
      "d": 187.5,
      "v": 95
    },
    {
      "midi": 49,
      "hit": false,
      "t": 86437.5,
      "d": 187.5,
      "v": 95
    },
    {
      "midi": 42,
      "hit": false,
      "t": 86625,
      "d": 375,
      "v": 95
    },
    {
      "midi": 65,
      "hit": false,
      "t": 86625,
      "d": 375,
      "v": 95
    },
    {
      "midi": 61,
      "hit": false,
      "t": 86625,
      "d": 375,
      "v": 95
    },
    {
      "midi": 56,
      "hit": false,
      "t": 86625,
      "d": 375,
      "v": 95
    },
    {
      "midi": 53,
      "hit": false,
      "t": 86625,
      "d": 375,
      "v": 95
    },
    {
      "midi": 49,
      "hit": false,
      "t": 86625,
      "d": 375,
      "v": 95
    },
    {
      "midi": 49,
      "hit": false,
      "t": 86625,
      "d": 187.5,
      "v": 95
    },
    {
      "midi": 46,
      "hit": false,
      "t": 86812.5,
      "d": 187.5,
      "v": 95
    },
    {
      "midi": 39,
      "hit": false,
      "t": 87000,
      "d": 375,
      "v": 95
    },
    {
      "midi": 27,
      "hit": false,
      "t": 87000,
      "d": 1500,
      "v": 95
    },
    {
      "midi": 42,
      "hit": false,
      "t": 87000,
      "d": 375,
      "v": 95
    },
    {
      "midi": 36,
      "hit": false,
      "t": 87000,
      "d": 375,
      "v": 95
    },
    {
      "midi": 66,
      "hit": false,
      "t": 87000,
      "d": 375,
      "v": 95
    },
    {
      "midi": 63,
      "hit": false,
      "t": 87000,
      "d": 375,
      "v": 95
    },
    {
      "midi": 58,
      "hit": false,
      "t": 87000,
      "d": 375,
      "v": 95
    },
    {
      "midi": 51,
      "hit": false,
      "t": 87000,
      "d": 375,
      "v": 95
    },
    {
      "midi": 49,
      "hit": false,
      "t": 87000,
      "d": 375,
      "v": 95
    },
    {
      "midi": 39,
      "hit": false,
      "t": 87375,
      "d": 375,
      "v": 95
    },
    {
      "midi": 42,
      "hit": false,
      "t": 87375,
      "d": 375,
      "v": 95
    },
    {
      "midi": 66,
      "hit": false,
      "t": 87375,
      "d": 375,
      "v": 95
    },
    {
      "midi": 63,
      "hit": false,
      "t": 87375,
      "d": 375,
      "v": 95
    },
    {
      "midi": 58,
      "hit": false,
      "t": 87375,
      "d": 375,
      "v": 95
    },
    {
      "midi": 51,
      "hit": false,
      "t": 87375,
      "d": 375,
      "v": 95
    },
    {
      "midi": 49,
      "hit": false,
      "t": 87375,
      "d": 375,
      "v": 95
    },
    {
      "midi": 46,
      "hit": false,
      "t": 87750,
      "d": 375,
      "v": 95
    },
    {
      "midi": 42,
      "hit": false,
      "t": 87750,
      "d": 375,
      "v": 95
    },
    {
      "midi": 38,
      "hit": false,
      "t": 87750,
      "d": 375,
      "v": 95
    },
    {
      "midi": 66,
      "hit": false,
      "t": 87750,
      "d": 375,
      "v": 95
    },
    {
      "midi": 63,
      "hit": false,
      "t": 87750,
      "d": 375,
      "v": 95
    },
    {
      "midi": 58,
      "hit": false,
      "t": 87750,
      "d": 375,
      "v": 95
    },
    {
      "midi": 51,
      "hit": false,
      "t": 87750,
      "d": 375,
      "v": 95
    },
    {
      "midi": 49,
      "hit": false,
      "t": 87750,
      "d": 375,
      "v": 95
    },
    {
      "midi": 43,
      "hit": false,
      "t": 88125,
      "d": 15.625,
      "v": 127
    },
    {
      "midi": 38,
      "hit": false,
      "t": 88125,
      "d": 15.625,
      "v": 127
    },
    {
      "midi": 42,
      "hit": false,
      "t": 88125,
      "d": 375,
      "v": 95
    },
    {
      "midi": 66,
      "hit": false,
      "t": 88125,
      "d": 375,
      "v": 95
    },
    {
      "midi": 63,
      "hit": false,
      "t": 88125,
      "d": 375,
      "v": 95
    },
    {
      "midi": 58,
      "hit": false,
      "t": 88125,
      "d": 375,
      "v": 95
    },
    {
      "midi": 51,
      "hit": false,
      "t": 88125,
      "d": 375,
      "v": 95
    },
    {
      "midi": 35,
      "hit": false,
      "t": 88500,
      "d": 1500,
      "v": 95
    },
    {
      "midi": 42,
      "hit": false,
      "t": 88500,
      "d": 375,
      "v": 95
    },
    {
      "midi": 36,
      "hit": false,
      "t": 88500,
      "d": 375,
      "v": 95
    },
    {
      "midi": 66,
      "hit": false,
      "t": 88500,
      "d": 375,
      "v": 95
    },
    {
      "midi": 63,
      "hit": false,
      "t": 88500,
      "d": 375,
      "v": 95
    },
    {
      "midi": 59,
      "hit": false,
      "t": 88500,
      "d": 375,
      "v": 95
    },
    {
      "midi": 54,
      "hit": false,
      "t": 88500,
      "d": 375,
      "v": 95
    },
    {
      "midi": 47,
      "hit": false,
      "t": 88500,
      "d": 375,
      "v": 95
    },
    {
      "midi": 47,
      "hit": false,
      "t": 88875,
      "d": 750,
      "v": 95
    },
    {
      "midi": 42,
      "hit": false,
      "t": 88875,
      "d": 375,
      "v": 95
    },
    {
      "midi": 66,
      "hit": false,
      "t": 88875,
      "d": 375,
      "v": 95
    },
    {
      "midi": 63,
      "hit": false,
      "t": 88875,
      "d": 375,
      "v": 95
    },
    {
      "midi": 59,
      "hit": false,
      "t": 88875,
      "d": 375,
      "v": 95
    },
    {
      "midi": 54,
      "hit": false,
      "t": 88875,
      "d": 375,
      "v": 95
    },
    {
      "midi": 47,
      "hit": false,
      "t": 88875,
      "d": 375,
      "v": 95
    },
    {
      "midi": 42,
      "hit": false,
      "t": 89250,
      "d": 375,
      "v": 95
    },
    {
      "midi": 38,
      "hit": false,
      "t": 89250,
      "d": 375,
      "v": 95
    },
    {
      "midi": 66,
      "hit": false,
      "t": 89250,
      "d": 375,
      "v": 95
    },
    {
      "midi": 63,
      "hit": false,
      "t": 89250,
      "d": 375,
      "v": 95
    },
    {
      "midi": 59,
      "hit": false,
      "t": 89250,
      "d": 375,
      "v": 95
    },
    {
      "midi": 54,
      "hit": false,
      "t": 89250,
      "d": 375,
      "v": 95
    },
    {
      "midi": 47,
      "hit": false,
      "t": 89250,
      "d": 375,
      "v": 95
    },
    {
      "midi": 46,
      "hit": false,
      "t": 89625,
      "d": 750,
      "v": 95
    },
    {
      "midi": 42,
      "hit": false,
      "t": 89625,
      "d": 750,
      "v": 95
    },
    {
      "midi": 42,
      "hit": false,
      "t": 89625,
      "d": 375,
      "v": 95
    },
    {
      "midi": 66,
      "hit": false,
      "t": 89625,
      "d": 375,
      "v": 95
    },
    {
      "midi": 63,
      "hit": false,
      "t": 89625,
      "d": 375,
      "v": 95
    },
    {
      "midi": 59,
      "hit": false,
      "t": 89625,
      "d": 375,
      "v": 95
    },
    {
      "midi": 54,
      "hit": false,
      "t": 89625,
      "d": 375,
      "v": 95
    },
    {
      "midi": 47,
      "hit": false,
      "t": 89625,
      "d": 375,
      "v": 95
    },
    {
      "midi": 30,
      "hit": false,
      "t": 90000,
      "d": 1500,
      "v": 95
    },
    {
      "midi": 42,
      "hit": false,
      "t": 90000,
      "d": 375,
      "v": 95
    },
    {
      "midi": 36,
      "hit": false,
      "t": 90000,
      "d": 375,
      "v": 95
    },
    {
      "midi": 66,
      "hit": false,
      "t": 90000,
      "d": 375,
      "v": 95
    },
    {
      "midi": 61,
      "hit": false,
      "t": 90000,
      "d": 375,
      "v": 95
    },
    {
      "midi": 58,
      "hit": false,
      "t": 90000,
      "d": 375,
      "v": 95
    },
    {
      "midi": 54,
      "hit": false,
      "t": 90000,
      "d": 375,
      "v": 95
    },
    {
      "midi": 49,
      "hit": false,
      "t": 90000,
      "d": 375,
      "v": 95
    },
    {
      "midi": 46,
      "hit": false,
      "t": 90375,
      "d": 375,
      "v": 95
    },
    {
      "midi": 42,
      "hit": false,
      "t": 90375,
      "d": 375,
      "v": 95
    },
    {
      "midi": 42,
      "hit": false,
      "t": 90375,
      "d": 375,
      "v": 95
    },
    {
      "midi": 66,
      "hit": false,
      "t": 90375,
      "d": 375,
      "v": 95
    },
    {
      "midi": 61,
      "hit": false,
      "t": 90375,
      "d": 375,
      "v": 95
    },
    {
      "midi": 58,
      "hit": false,
      "t": 90375,
      "d": 375,
      "v": 95
    },
    {
      "midi": 54,
      "hit": false,
      "t": 90375,
      "d": 375,
      "v": 95
    },
    {
      "midi": 49,
      "hit": false,
      "t": 90375,
      "d": 375,
      "v": 95
    },
    {
      "midi": 54,
      "hit": false,
      "t": 90375,
      "d": 187.5,
      "v": 95
    },
    {
      "midi": 58,
      "hit": false,
      "t": 90562.5,
      "d": 187.5,
      "v": 95
    },
    {
      "midi": 46,
      "hit": false,
      "t": 90750,
      "d": 375,
      "v": 95
    },
    {
      "midi": 42,
      "hit": false,
      "t": 90750,
      "d": 375,
      "v": 95
    },
    {
      "midi": 42,
      "hit": false,
      "t": 90750,
      "d": 375,
      "v": 95
    },
    {
      "midi": 38,
      "hit": false,
      "t": 90750,
      "d": 375,
      "v": 95
    },
    {
      "midi": 66,
      "hit": false,
      "t": 90750,
      "d": 375,
      "v": 95
    },
    {
      "midi": 61,
      "hit": false,
      "t": 90750,
      "d": 375,
      "v": 95
    },
    {
      "midi": 58,
      "hit": false,
      "t": 90750,
      "d": 375,
      "v": 95
    },
    {
      "midi": 54,
      "hit": false,
      "t": 90750,
      "d": 375,
      "v": 95
    },
    {
      "midi": 49,
      "hit": false,
      "t": 90750,
      "d": 375,
      "v": 95
    },
    {
      "midi": 58,
      "hit": false,
      "t": 90750,
      "d": 375,
      "v": 95
    },
    {
      "midi": 42,
      "hit": false,
      "t": 91125,
      "d": 375,
      "v": 95
    },
    {
      "midi": 66,
      "hit": false,
      "t": 91125,
      "d": 375,
      "v": 95
    },
    {
      "midi": 61,
      "hit": false,
      "t": 91125,
      "d": 375,
      "v": 95
    },
    {
      "midi": 58,
      "hit": false,
      "t": 91125,
      "d": 375,
      "v": 95
    },
    {
      "midi": 54,
      "hit": false,
      "t": 91125,
      "d": 375,
      "v": 95
    },
    {
      "midi": 49,
      "hit": false,
      "t": 91125,
      "d": 375,
      "v": 95
    },
    {
      "midi": 54,
      "hit": false,
      "t": 91125,
      "d": 187.5,
      "v": 95
    },
    {
      "midi": 58,
      "hit": false,
      "t": 91312.5,
      "d": 187.5,
      "v": 95
    },
    {
      "midi": 37,
      "hit": false,
      "t": 91500,
      "d": 375,
      "v": 95
    },
    {
      "midi": 37,
      "hit": false,
      "t": 91500,
      "d": 1500,
      "v": 95
    },
    {
      "midi": 38,
      "hit": false,
      "t": 91500,
      "d": 375,
      "v": 95
    },
    {
      "midi": 42,
      "hit": false,
      "t": 91500,
      "d": 375,
      "v": 95
    },
    {
      "midi": 65,
      "hit": false,
      "t": 91500,
      "d": 375,
      "v": 95
    },
    {
      "midi": 61,
      "hit": false,
      "t": 91500,
      "d": 375,
      "v": 95
    },
    {
      "midi": 56,
      "hit": false,
      "t": 91500,
      "d": 375,
      "v": 95
    },
    {
      "midi": 53,
      "hit": false,
      "t": 91500,
      "d": 375,
      "v": 95
    },
    {
      "midi": 49,
      "hit": false,
      "t": 91500,
      "d": 375,
      "v": 95
    },
    {
      "midi": 58,
      "hit": false,
      "t": 91500,
      "d": 375,
      "v": 95
    },
    {
      "midi": 37,
      "hit": false,
      "t": 91875,
      "d": 375,
      "v": 95
    },
    {
      "midi": 36,
      "hit": false,
      "t": 91875,
      "d": 375,
      "v": 95
    },
    {
      "midi": 42,
      "hit": false,
      "t": 91875,
      "d": 375,
      "v": 95
    },
    {
      "midi": 65,
      "hit": false,
      "t": 91875,
      "d": 375,
      "v": 95
    },
    {
      "midi": 61,
      "hit": false,
      "t": 91875,
      "d": 375,
      "v": 95
    },
    {
      "midi": 56,
      "hit": false,
      "t": 91875,
      "d": 375,
      "v": 95
    },
    {
      "midi": 53,
      "hit": false,
      "t": 91875,
      "d": 375,
      "v": 95
    },
    {
      "midi": 49,
      "hit": false,
      "t": 91875,
      "d": 375,
      "v": 95
    },
    {
      "midi": 61,
      "hit": false,
      "t": 91875,
      "d": 375,
      "v": 95
    },
    {
      "midi": 49,
      "hit": false,
      "t": 92250,
      "d": 375,
      "v": 95
    },
    {
      "midi": 61,
      "hit": false,
      "t": 92250,
      "d": 375,
      "v": 95
    },
    {
      "midi": 42,
      "hit": false,
      "t": 92250,
      "d": 375,
      "v": 95
    },
    {
      "midi": 38,
      "hit": false,
      "t": 92250,
      "d": 375,
      "v": 95
    },
    {
      "midi": 65,
      "hit": false,
      "t": 92250,
      "d": 375,
      "v": 95
    },
    {
      "midi": 61,
      "hit": false,
      "t": 92250,
      "d": 375,
      "v": 95
    },
    {
      "midi": 56,
      "hit": false,
      "t": 92250,
      "d": 375,
      "v": 95
    },
    {
      "midi": 53,
      "hit": false,
      "t": 92250,
      "d": 375,
      "v": 95
    },
    {
      "midi": 49,
      "hit": false,
      "t": 92250,
      "d": 375,
      "v": 95
    },
    {
      "midi": 56,
      "hit": false,
      "t": 92250,
      "d": 375,
      "v": 95
    },
    {
      "midi": 42,
      "hit": false,
      "t": 92625,
      "d": 187.5,
      "v": 95
    },
    {
      "midi": 38,
      "hit": false,
      "t": 92625,
      "d": 187.5,
      "v": 95
    },
    {
      "midi": 65,
      "hit": false,
      "t": 92625,
      "d": 375,
      "v": 95
    },
    {
      "midi": 61,
      "hit": false,
      "t": 92625,
      "d": 375,
      "v": 95
    },
    {
      "midi": 56,
      "hit": false,
      "t": 92625,
      "d": 375,
      "v": 95
    },
    {
      "midi": 53,
      "hit": false,
      "t": 92625,
      "d": 375,
      "v": 95
    },
    {
      "midi": 49,
      "hit": false,
      "t": 92625,
      "d": 375,
      "v": 95
    },
    {
      "midi": 54,
      "hit": false,
      "t": 92625,
      "d": 375,
      "v": 95
    },
    {
      "midi": 38,
      "hit": false,
      "t": 92812.5,
      "d": 187.5,
      "v": 95
    },
    {
      "midi": 46,
      "hit": false,
      "t": 93000,
      "d": 375,
      "v": 95
    },
    {
      "midi": 66,
      "hit": false,
      "t": 93000,
      "d": 6000,
      "v": 95
    },
    {
      "midi": 63,
      "hit": false,
      "t": 93000,
      "d": 6000,
      "v": 95
    },
    {
      "midi": 59,
      "hit": false,
      "t": 93000,
      "d": 6000,
      "v": 95
    },
    {
      "midi": 54,
      "hit": false,
      "t": 93000,
      "d": 6000,
      "v": 95
    },
    {
      "midi": 47,
      "hit": false,
      "t": 93000,
      "d": 6000,
      "v": 95
    },
    {
      "midi": 61,
      "hit": false,
      "t": 93000,
      "d": 562.5,
      "v": 95
    },
    {
      "midi": 61,
      "hit": false,
      "t": 93562.5,
      "d": 562.5,
      "v": 95
    },
    {
      "midi": 56,
      "hit": false,
      "t": 94125,
      "d": 562.5,
      "v": 95
    },
    {
      "midi": 56,
      "hit": false,
      "t": 94687.5,
      "d": 3375,
      "v": 95
    }
  ]
}