{
  "jsonPath": "Electronic/Disco House/Modjo/chillin.json",
  "path": "Electronic\\Disco House\\Modjo\\Chillin.mid",
  "name": "Chillin",
  "difficulty": "Advanced",
  "bpm": 120,
  "notes": [
    {
      "midi": 46,
      "hit": false,
      "t": 9875,
      "d": 119.79166666666606,
      "v": 82
    },
    {
      "midi": 58,
      "hit": false,
      "t": 9880.208333333334,
      "d": 302.08333333333394,
      "v": 90
    },
    {
      "midi": 46,
      "hit": false,
      "t": 9901.041666666666,
      "d": 119.79166666666606,
      "v": 65
    },
    {
      "midi": 61,
      "hit": false,
      "t": 10031.25,
      "d": 57.29166666666788,
      "v": 105
    },
    {
      "midi": 65,
      "hit": false,
      "t": 10036.458333333334,
      "d": 57.29166666666788,
      "v": 105
    },
    {
      "midi": 61,
      "hit": false,
      "t": 10057.291666666666,
      "d": 57.29166666666788,
      "v": 105
    },
    {
      "midi": 65,
      "hit": false,
      "t": 10062.5,
      "d": 57.29166666666788,
      "v": 105
    },
    {
      "midi": 73,
      "hit": false,
      "t": 10192.708333333334,
      "d": 67.70833333333394,
      "v": 83
    },
    {
      "midi": 77,
      "hit": false,
      "t": 10192.708333333334,
      "d": 72.91666666666788,
      "v": 83
    },
    {
      "midi": 53,
      "hit": false,
      "t": 10348.958333333336,
      "d": 88.54166666666606,
      "v": 82
    },
    {
      "midi": 65,
      "hit": false,
      "t": 10354.166666666668,
      "d": 229.16666666666606,
      "v": 90
    },
    {
      "midi": 53,
      "hit": false,
      "t": 10375.000000000002,
      "d": 88.54166666666606,
      "v": 65
    },
    {
      "midi": 61,
      "hit": false,
      "t": 10510.416666666668,
      "d": 151.04166666666606,
      "v": 105
    },
    {
      "midi": 65,
      "hit": false,
      "t": 10510.416666666668,
      "d": 151.04166666666606,
      "v": 105
    },
    {
      "midi": 73,
      "hit": false,
      "t": 10515.625000000002,
      "d": 145.83333333333394,
      "v": 83
    },
    {
      "midi": 77,
      "hit": false,
      "t": 10515.625000000002,
      "d": 145.83333333333394,
      "v": 83
    },
    {
      "midi": 61,
      "hit": false,
      "t": 10536.458333333334,
      "d": 151.04166666666606,
      "v": 105
    },
    {
      "midi": 65,
      "hit": false,
      "t": 10536.458333333334,
      "d": 151.04166666666606,
      "v": 105
    },
    {
      "midi": 46,
      "hit": false,
      "t": 10666.666666666668,
      "d": 57.29166666666606,
      "v": 82
    },
    {
      "midi": 58,
      "hit": false,
      "t": 10671.875,
      "d": 151.04166666666606,
      "v": 90
    },
    {
      "midi": 46,
      "hit": false,
      "t": 10697.916666666666,
      "d": 57.29166666666606,
      "v": 65
    },
    {
      "midi": 41,
      "hit": false,
      "t": 10828.125,
      "d": 119.79166666666606,
      "v": 82
    },
    {
      "midi": 53,
      "hit": false,
      "t": 10833.333333333332,
      "d": 307.29166666666606,
      "v": 90
    },
    {
      "midi": 41,
      "hit": false,
      "t": 10854.166666666666,
      "d": 119.79166666666606,
      "v": 65
    },
    {
      "midi": 60,
      "hit": false,
      "t": 10989.583333333332,
      "d": 57.29166666666606,
      "v": 105
    },
    {
      "midi": 65,
      "hit": false,
      "t": 10989.583333333332,
      "d": 57.29166666666606,
      "v": 105
    },
    {
      "midi": 60,
      "hit": false,
      "t": 11015.624999999998,
      "d": 57.29166666666606,
      "v": 105
    },
    {
      "midi": 65,
      "hit": false,
      "t": 11015.624999999998,
      "d": 57.29166666666606,
      "v": 105
    },
    {
      "midi": 68,
      "hit": false,
      "t": 11145.833333333336,
      "d": 151.04166666666788,
      "v": 83
    },
    {
      "midi": 72,
      "hit": false,
      "t": 11151.04166666667,
      "d": 145.83333333333394,
      "v": 83
    },
    {
      "midi": 48,
      "hit": false,
      "t": 11307.291666666664,
      "d": 88.54166666666606,
      "v": 82
    },
    {
      "midi": 60,
      "hit": false,
      "t": 11307.291666666664,
      "d": 229.16666666666606,
      "v": 90
    },
    {
      "midi": 48,
      "hit": false,
      "t": 11333.33333333333,
      "d": 88.54166666666606,
      "v": 65
    },
    {
      "midi": 60,
      "hit": false,
      "t": 11463.541666666664,
      "d": 151.04166666666788,
      "v": 105
    },
    {
      "midi": 65,
      "hit": false,
      "t": 11468.749999999998,
      "d": 145.83333333333394,
      "v": 105
    },
    {
      "midi": 68,
      "hit": false,
      "t": 11468.750000000004,
      "d": 145.83333333333394,
      "v": 83
    },
    {
      "midi": 72,
      "hit": false,
      "t": 11468.750000000004,
      "d": 145.83333333333394,
      "v": 83
    },
    {
      "midi": 60,
      "hit": false,
      "t": 11489.58333333333,
      "d": 151.04166666666788,
      "v": 105
    },
    {
      "midi": 65,
      "hit": false,
      "t": 11494.791666666664,
      "d": 145.83333333333394,
      "v": 105
    },
    {
      "midi": 53,
      "hit": false,
      "t": 11624.999999999996,
      "d": 151.04166666666606,
      "v": 90
    },
    {
      "midi": 41,
      "hit": false,
      "t": 11624.999999999998,
      "d": 57.29166666666606,
      "v": 82
    },
    {
      "midi": 41,
      "hit": false,
      "t": 11651.041666666664,
      "d": 57.29166666666606,
      "v": 65
    },
    {
      "midi": 42,
      "hit": false,
      "t": 11786.45833333333,
      "d": 119.79166666666606,
      "v": 82
    },
    {
      "midi": 54,
      "hit": false,
      "t": 11791.666666666662,
      "d": 302.08333333333394,
      "v": 90
    },
    {
      "midi": 42,
      "hit": false,
      "t": 11812.499999999996,
      "d": 119.79166666666606,
      "v": 65
    },
    {
      "midi": 61,
      "hit": false,
      "t": 11942.70833333333,
      "d": 57.29166666666606,
      "v": 105
    },
    {
      "midi": 66,
      "hit": false,
      "t": 11942.70833333333,
      "d": 57.29166666666606,
      "v": 105
    },
    {
      "midi": 61,
      "hit": false,
      "t": 11968.749999999996,
      "d": 57.29166666666788,
      "v": 105
    },
    {
      "midi": 66,
      "hit": false,
      "t": 11973.95833333333,
      "d": 57.29166666666788,
      "v": 105
    },
    {
      "midi": 70,
      "hit": false,
      "t": 12104.166666666672,
      "d": 67.70833333333394,
      "v": 83
    },
    {
      "midi": 73,
      "hit": false,
      "t": 12104.166666666672,
      "d": 151.04166666666788,
      "v": 83
    },
    {
      "midi": 49,
      "hit": false,
      "t": 12260.416666666662,
      "d": 88.54166666666606,
      "v": 82
    },
    {
      "midi": 61,
      "hit": false,
      "t": 12265.624999999996,
      "d": 229.16666666666606,
      "v": 90
    },
    {
      "midi": 49,
      "hit": false,
      "t": 12286.458333333332,
      "d": 88.54166666666606,
      "v": 65
    },
    {
      "midi": 61,
      "hit": false,
      "t": 12421.874999999995,
      "d": 151.04166666666606,
      "v": 105
    },
    {
      "midi": 66,
      "hit": false,
      "t": 12421.874999999995,
      "d": 151.04166666666606,
      "v": 105
    },
    {
      "midi": 70,
      "hit": false,
      "t": 12427.08333333334,
      "d": 145.83333333333394,
      "v": 83
    },
    {
      "midi": 73,
      "hit": false,
      "t": 12427.08333333334,
      "d": 145.83333333333394,
      "v": 83
    },
    {
      "midi": 61,
      "hit": false,
      "t": 12447.916666666664,
      "d": 151.04166666666606,
      "v": 105
    },
    {
      "midi": 66,
      "hit": false,
      "t": 12447.916666666664,
      "d": 151.04166666666606,
      "v": 105
    },
    {
      "midi": 54,
      "hit": false,
      "t": 12578.124999999995,
      "d": 57.29166666666606,
      "v": 82
    },
    {
      "midi": 66,
      "hit": false,
      "t": 12583.333333333328,
      "d": 151.04166666666606,
      "v": 90
    },
    {
      "midi": 54,
      "hit": false,
      "t": 12609.374999999996,
      "d": 57.29166666666606,
      "v": 65
    },
    {
      "midi": 53,
      "hit": false,
      "t": 12739.583333333327,
      "d": 88.54166666666606,
      "v": 82
    },
    {
      "midi": 65,
      "hit": false,
      "t": 12744.79166666666,
      "d": 229.16666666666606,
      "v": 90
    },
    {
      "midi": 53,
      "hit": false,
      "t": 12765.624999999996,
      "d": 88.54166666666606,
      "v": 65
    },
    {
      "midi": 61,
      "hit": false,
      "t": 12901.041666666659,
      "d": 57.29166666666606,
      "v": 105
    },
    {
      "midi": 65,
      "hit": false,
      "t": 12901.041666666659,
      "d": 57.29166666666606,
      "v": 105
    },
    {
      "midi": 61,
      "hit": false,
      "t": 12927.083333333328,
      "d": 57.29166666666606,
      "v": 105
    },
    {
      "midi": 65,
      "hit": false,
      "t": 12927.083333333328,
      "d": 57.29166666666606,
      "v": 105
    },
    {
      "midi": 51,
      "hit": false,
      "t": 13057.291666666659,
      "d": 88.54166666666606,
      "v": 82
    },
    {
      "midi": 63,
      "hit": false,
      "t": 13062.499999999993,
      "d": 229.16666666666606,
      "v": 90
    },
    {
      "midi": 65,
      "hit": false,
      "t": 13062.500000000007,
      "d": 145.83333333333394,
      "v": 83
    },
    {
      "midi": 68,
      "hit": false,
      "t": 13062.500000000007,
      "d": 145.83333333333394,
      "v": 83
    },
    {
      "midi": 51,
      "hit": false,
      "t": 13083.333333333328,
      "d": 88.54166666666606,
      "v": 65
    },
    {
      "midi": 61,
      "hit": false,
      "t": 13218.74999999999,
      "d": 57.29166666666606,
      "v": 105
    },
    {
      "midi": 65,
      "hit": false,
      "t": 13218.74999999999,
      "d": 57.29166666666606,
      "v": 105
    },
    {
      "midi": 61,
      "hit": false,
      "t": 13244.79166666666,
      "d": 57.29166666666606,
      "v": 105
    },
    {
      "midi": 65,
      "hit": false,
      "t": 13244.79166666666,
      "d": 57.29166666666606,
      "v": 105
    },
    {
      "midi": 49,
      "hit": false,
      "t": 13374.99999999999,
      "d": 88.54166666666606,
      "v": 82
    },
    {
      "midi": 61,
      "hit": false,
      "t": 13380.208333333325,
      "d": 229.16666666666606,
      "v": 90
    },
    {
      "midi": 65,
      "hit": false,
      "t": 13380.208333333341,
      "d": 145.83333333333394,
      "v": 83
    },
    {
      "midi": 68,
      "hit": false,
      "t": 13380.208333333341,
      "d": 145.83333333333394,
      "v": 83
    },
    {
      "midi": 49,
      "hit": false,
      "t": 13401.04166666666,
      "d": 88.54166666666606,
      "v": 65
    },
    {
      "midi": 61,
      "hit": false,
      "t": 13536.458333333323,
      "d": 57.29166666666606,
      "v": 105
    },
    {
      "midi": 65,
      "hit": false,
      "t": 13536.458333333323,
      "d": 57.29166666666606,
      "v": 105
    },
    {
      "midi": 61,
      "hit": false,
      "t": 13562.499999999993,
      "d": 57.29166666666606,
      "v": 105
    },
    {
      "midi": 65,
      "hit": false,
      "t": 13562.499999999993,
      "d": 57.29166666666606,
      "v": 105
    },
    {
      "midi": 48,
      "hit": false,
      "t": 13692.708333333323,
      "d": 88.54166666666606,
      "v": 82
    },
    {
      "midi": 60,
      "hit": false,
      "t": 13697.916666666657,
      "d": 229.16666666666606,
      "v": 90
    },
    {
      "midi": 48,
      "hit": false,
      "t": 13723.958333333325,
      "d": 88.54166666666606,
      "v": 65
    },
    {
      "midi": 61,
      "hit": false,
      "t": 13854.166666666655,
      "d": 57.29166666666606,
      "v": 105
    },
    {
      "midi": 65,
      "hit": false,
      "t": 13854.166666666655,
      "d": 57.29166666666606,
      "v": 105
    },
    {
      "midi": 61,
      "hit": false,
      "t": 13880.208333333325,
      "d": 57.29166666666788,
      "v": 105
    },
    {
      "midi": 65,
      "hit": false,
      "t": 13885.416666666659,
      "d": 57.29166666666788,
      "v": 105
    },
    {
      "midi": 46,
      "hit": false,
      "t": 14015.624999999987,
      "d": 119.79166666666606,
      "v": 82
    },
    {
      "midi": 58,
      "hit": false,
      "t": 14015.624999999989,
      "d": 307.29166666666606,
      "v": 90
    },
    {
      "midi": 46,
      "hit": false,
      "t": 14041.66666666666,
      "d": 119.79166666666606,
      "v": 65
    },
    {
      "midi": 61,
      "hit": false,
      "t": 14171.874999999987,
      "d": 57.29166666666788,
      "v": 105
    },
    {
      "midi": 65,
      "hit": false,
      "t": 14177.083333333321,
      "d": 57.29166666666788,
      "v": 105
    },
    {
      "midi": 61,
      "hit": false,
      "t": 14197.91666666666,
      "d": 57.29166666666788,
      "v": 105
    },
    {
      "midi": 65,
      "hit": false,
      "t": 14203.124999999995,
      "d": 57.29166666666788,
      "v": 105
    },
    {
      "midi": 73,
      "hit": false,
      "t": 14333.333333333341,
      "d": 151.04166666666606,
      "v": 83
    },
    {
      "midi": 77,
      "hit": false,
      "t": 14333.333333333341,
      "d": 151.04166666666606,
      "v": 83
    },
    {
      "midi": 53,
      "hit": false,
      "t": 14489.583333333323,
      "d": 88.54166666666606,
      "v": 82
    },
    {
      "midi": 65,
      "hit": false,
      "t": 14494.791666666655,
      "d": 229.16666666666606,
      "v": 90
    },
    {
      "midi": 53,
      "hit": false,
      "t": 14515.624999999996,
      "d": 88.54166666666606,
      "v": 65
    },
    {
      "midi": 61,
      "hit": false,
      "t": 14651.041666666655,
      "d": 151.04166666666606,
      "v": 105
    },
    {
      "midi": 65,
      "hit": false,
      "t": 14651.041666666655,
      "d": 151.04166666666606,
      "v": 105
    },
    {
      "midi": 73,
      "hit": false,
      "t": 14656.250000000007,
      "d": 145.83333333333394,
      "v": 83
    },
    {
      "midi": 77,
      "hit": false,
      "t": 14656.250000000007,
      "d": 145.83333333333394,
      "v": 83
    },
    {
      "midi": 61,
      "hit": false,
      "t": 14677.083333333328,
      "d": 151.04166666666606,
      "v": 105
    },
    {
      "midi": 65,
      "hit": false,
      "t": 14677.083333333328,
      "d": 151.04166666666606,
      "v": 105
    },
    {
      "midi": 46,
      "hit": false,
      "t": 14807.291666666655,
      "d": 57.29166666666606,
      "v": 82
    },
    {
      "midi": 58,
      "hit": false,
      "t": 14812.499999999987,
      "d": 151.04166666666606,
      "v": 90
    },
    {
      "midi": 46,
      "hit": false,
      "t": 14838.54166666666,
      "d": 57.29166666666606,
      "v": 65
    },
    {
      "midi": 41,
      "hit": false,
      "t": 14968.749999999987,
      "d": 119.79166666666606,
      "v": 82
    },
    {
      "midi": 53,
      "hit": false,
      "t": 14973.95833333332,
      "d": 307.29166666666606,
      "v": 90
    },
    {
      "midi": 41,
      "hit": false,
      "t": 14994.79166666666,
      "d": 119.79166666666606,
      "v": 65
    },
    {
      "midi": 60,
      "hit": false,
      "t": 15130.20833333332,
      "d": 57.29166666666606,
      "v": 105
    },
    {
      "midi": 65,
      "hit": false,
      "t": 15130.20833333332,
      "d": 57.29166666666606,
      "v": 105
    },
    {
      "midi": 60,
      "hit": false,
      "t": 15156.249999999993,
      "d": 57.29166666666606,
      "v": 105
    },
    {
      "midi": 65,
      "hit": false,
      "t": 15156.249999999993,
      "d": 57.29166666666606,
      "v": 105
    },
    {
      "midi": 68,
      "hit": false,
      "t": 15286.458333333341,
      "d": 151.04166666666788,
      "v": 83
    },
    {
      "midi": 72,
      "hit": false,
      "t": 15291.666666666675,
      "d": 145.83333333333394,
      "v": 83
    },
    {
      "midi": 48,
      "hit": false,
      "t": 15447.916666666652,
      "d": 88.54166666666606,
      "v": 82
    },
    {
      "midi": 60,
      "hit": false,
      "t": 15447.916666666652,
      "d": 229.16666666666606,
      "v": 90
    },
    {
      "midi": 48,
      "hit": false,
      "t": 15473.958333333325,
      "d": 88.54166666666606,
      "v": 65
    },
    {
      "midi": 60,
      "hit": false,
      "t": 15604.166666666652,
      "d": 151.04166666666788,
      "v": 105
    },
    {
      "midi": 65,
      "hit": false,
      "t": 15609.374999999985,
      "d": 145.83333333333394,
      "v": 105
    },
    {
      "midi": 68,
      "hit": false,
      "t": 15609.37500000001,
      "d": 145.83333333333394,
      "v": 83
    },
    {
      "midi": 72,
      "hit": false,
      "t": 15614.583333333343,
      "d": 140.625,
      "v": 83
    },
    {
      "midi": 60,
      "hit": false,
      "t": 15630.208333333325,
      "d": 151.04166666666788,
      "v": 105
    },
    {
      "midi": 65,
      "hit": false,
      "t": 15635.416666666659,
      "d": 145.83333333333394,
      "v": 105
    },
    {
      "midi": 53,
      "hit": false,
      "t": 15765.624999999984,
      "d": 151.04166666666606,
      "v": 90
    },
    {
      "midi": 41,
      "hit": false,
      "t": 15765.624999999985,
      "d": 57.29166666666606,
      "v": 82
    },
    {
      "midi": 41,
      "hit": false,
      "t": 15791.666666666659,
      "d": 57.29166666666606,
      "v": 65
    },
    {
      "midi": 42,
      "hit": false,
      "t": 15921.874999999985,
      "d": 119.79166666666606,
      "v": 82
    },
    {
      "midi": 54,
      "hit": false,
      "t": 15927.083333333316,
      "d": 307.29166666666606,
      "v": 90
    },
    {
      "midi": 42,
      "hit": false,
      "t": 15953.12499999999,
      "d": 119.79166666666606,
      "v": 65
    },
    {
      "midi": 61,
      "hit": false,
      "t": 16083.333333333318,
      "d": 57.29166666666788,
      "v": 105
    },
    {
      "midi": 66,
      "hit": false,
      "t": 16088.541666666652,
      "d": 57.29166666666788,
      "v": 105
    },
    {
      "midi": 61,
      "hit": false,
      "t": 16109.37499999999,
      "d": 57.29166666666788,
      "v": 105
    },
    {
      "midi": 66,
      "hit": false,
      "t": 16114.583333333325,
      "d": 57.29166666666788,
      "v": 105
    },
    {
      "midi": 70,
      "hit": false,
      "t": 16244.791666666677,
      "d": 151.04166666666606,
      "v": 83
    },
    {
      "midi": 73,
      "hit": false,
      "t": 16244.791666666677,
      "d": 151.04166666666606,
      "v": 83
    },
    {
      "midi": 49,
      "hit": false,
      "t": 16401.041666666653,
      "d": 88.54166666666788,
      "v": 82
    },
    {
      "midi": 61,
      "hit": false,
      "t": 16406.24999999998,
      "d": 229.16666666666788,
      "v": 90
    },
    {
      "midi": 49,
      "hit": false,
      "t": 16427.083333333325,
      "d": 88.54166666666788,
      "v": 65
    },
    {
      "midi": 61,
      "hit": false,
      "t": 16562.49999999999,
      "d": 151.04166666666788,
      "v": 105
    },
    {
      "midi": 66,
      "hit": false,
      "t": 16562.49999999999,
      "d": 151.04166666666788,
      "v": 105
    },
    {
      "midi": 70,
      "hit": false,
      "t": 16562.50000000001,
      "d": 229.16666666666424,
      "v": 83
    },
    {
      "midi": 73,
      "hit": false,
      "t": 16567.708333333343,
      "d": 223.95833333333212,
      "v": 83
    },
    {
      "midi": 61,
      "hit": false,
      "t": 16588.54166666666,
      "d": 151.04166666666788,
      "v": 105
    },
    {
      "midi": 66,
      "hit": false,
      "t": 16588.54166666666,
      "d": 151.04166666666788,
      "v": 105
    },
    {
      "midi": 54,
      "hit": false,
      "t": 16718.74999999999,
      "d": 57.29166666666788,
      "v": 82
    },
    {
      "midi": 66,
      "hit": false,
      "t": 16723.958333333318,
      "d": 145.83333333333212,
      "v": 90
    },
    {
      "midi": 54,
      "hit": false,
      "t": 16744.79166666666,
      "d": 57.29166666666788,
      "v": 65
    },
    {
      "midi": 53,
      "hit": false,
      "t": 16880.208333333325,
      "d": 88.54166666666788,
      "v": 82
    },
    {
      "midi": 65,
      "hit": false,
      "t": 16885.41666666665,
      "d": 223.95833333333212,
      "v": 90
    },
    {
      "midi": 53,
      "hit": false,
      "t": 16906.249999999996,
      "d": 88.54166666666788,
      "v": 65
    },
    {
      "midi": 61,
      "hit": false,
      "t": 17041.66666666666,
      "d": 57.29166666666788,
      "v": 105
    },
    {
      "midi": 65,
      "hit": false,
      "t": 17041.66666666666,
      "d": 57.29166666666788,
      "v": 105
    },
    {
      "midi": 61,
      "hit": false,
      "t": 17067.708333333332,
      "d": 57.29166666666788,
      "v": 105
    },
    {
      "midi": 65,
      "hit": false,
      "t": 17067.708333333332,
      "d": 57.29166666666788,
      "v": 105
    },
    {
      "midi": 63,
      "hit": false,
      "t": 17197.91666666665,
      "d": 234.375,
      "v": 90
    },
    {
      "midi": 51,
      "hit": false,
      "t": 17197.91666666666,
      "d": 88.54166666666788,
      "v": 82
    },
    {
      "midi": 65,
      "hit": false,
      "t": 17203.125000000007,
      "d": 145.83333333333212,
      "v": 83
    },
    {
      "midi": 68,
      "hit": false,
      "t": 17203.125000000007,
      "d": 145.83333333333212,
      "v": 83
    },
    {
      "midi": 51,
      "hit": false,
      "t": 17223.958333333332,
      "d": 88.54166666666788,
      "v": 65
    },
    {
      "midi": 61,
      "hit": false,
      "t": 17359.374999999996,
      "d": 57.29166666666788,
      "v": 105
    },
    {
      "midi": 65,
      "hit": false,
      "t": 17359.374999999996,
      "d": 57.29166666666788,
      "v": 105
    },
    {
      "midi": 61,
      "hit": false,
      "t": 17385.416666666668,
      "d": 57.29166666666788,
      "v": 105
    },
    {
      "midi": 65,
      "hit": false,
      "t": 17385.416666666668,
      "d": 57.29166666666788,
      "v": 105
    },
    {
      "midi": 49,
      "hit": false,
      "t": 17515.624999999996,
      "d": 88.54166666666788,
      "v": 82
    },
    {
      "midi": 61,
      "hit": false,
      "t": 17520.833333333318,
      "d": 229.16666666666788,
      "v": 90
    },
    {
      "midi": 65,
      "hit": false,
      "t": 17520.83333333334,
      "d": 229.16666666666788,
      "v": 83
    },
    {
      "midi": 68,
      "hit": false,
      "t": 17520.83333333334,
      "d": 229.16666666666788,
      "v": 83
    },
    {
      "midi": 49,
      "hit": false,
      "t": 17546.875000000004,
      "d": 88.54166666666788,
      "v": 65
    },
    {
      "midi": 61,
      "hit": false,
      "t": 17677.083333333332,
      "d": 57.29166666666788,
      "v": 105
    },
    {
      "midi": 65,
      "hit": false,
      "t": 17677.083333333332,
      "d": 57.29166666666788,
      "v": 105
    },
    {
      "midi": 61,
      "hit": false,
      "t": 17703.125000000004,
      "d": 57.29166666666788,
      "v": 105
    },
    {
      "midi": 65,
      "hit": false,
      "t": 17703.125000000004,
      "d": 57.29166666666788,
      "v": 105
    },
    {
      "midi": 48,
      "hit": false,
      "t": 17833.333333333332,
      "d": 88.54166666666788,
      "v": 82
    },
    {
      "midi": 60,
      "hit": false,
      "t": 17838.541666666653,
      "d": 229.16666666666788,
      "v": 90
    },
    {
      "midi": 48,
      "hit": false,
      "t": 17859.375000000004,
      "d": 88.54166666666788,
      "v": 65
    },
    {
      "midi": 61,
      "hit": false,
      "t": 17994.791666666668,
      "d": 57.29166666666788,
      "v": 105
    },
    {
      "midi": 65,
      "hit": false,
      "t": 17994.791666666668,
      "d": 57.29166666666788,
      "v": 105
    },
    {
      "midi": 61,
      "hit": false,
      "t": 18020.83333333334,
      "d": 57.29166666666788,
      "v": 105
    },
    {
      "midi": 65,
      "hit": false,
      "t": 18020.83333333334,
      "d": 57.29166666666788,
      "v": 105
    },
    {
      "midi": 58,
      "hit": false,
      "t": 18156.24999999999,
      "d": 307.2916666666679,
      "v": 90
    },
    {
      "midi": 46,
      "hit": false,
      "t": 18156.250000000004,
      "d": 119.79166666666788,
      "v": 82
    },
    {
      "midi": 46,
      "hit": false,
      "t": 18182.291666666675,
      "d": 119.79166666666788,
      "v": 65
    },
    {
      "midi": 61,
      "hit": false,
      "t": 18312.500000000004,
      "d": 57.29166666666424,
      "v": 105
    },
    {
      "midi": 65,
      "hit": false,
      "t": 18317.708333333336,
      "d": 57.29166666666424,
      "v": 105
    },
    {
      "midi": 61,
      "hit": false,
      "t": 18338.541666666675,
      "d": 57.29166666666424,
      "v": 105
    },
    {
      "midi": 65,
      "hit": false,
      "t": 18343.750000000007,
      "d": 57.29166666666424,
      "v": 105
    },
    {
      "midi": 73,
      "hit": false,
      "t": 18473.95833333334,
      "d": 151.04166666666788,
      "v": 83
    },
    {
      "midi": 77,
      "hit": false,
      "t": 18473.95833333334,
      "d": 151.04166666666788,
      "v": 83
    },
    {
      "midi": 53,
      "hit": false,
      "t": 18630.208333333332,
      "d": 88.54166666666788,
      "v": 82
    },
    {
      "midi": 65,
      "hit": false,
      "t": 18635.416666666657,
      "d": 229.16666666666788,
      "v": 90
    },
    {
      "midi": 53,
      "hit": false,
      "t": 18656.250000000004,
      "d": 88.54166666666788,
      "v": 65
    },
    {
      "midi": 61,
      "hit": false,
      "t": 18791.666666666668,
      "d": 151.04166666666788,
      "v": 105
    },
    {
      "midi": 65,
      "hit": false,
      "t": 18791.666666666668,
      "d": 151.04166666666788,
      "v": 105
    },
    {
      "midi": 77,
      "hit": false,
      "t": 18796.875000000007,
      "d": 145.83333333333212,
      "v": 83
    },
    {
      "midi": 73,
      "hit": false,
      "t": 18796.875000000007,
      "d": 223.95833333333212,
      "v": 83
    },
    {
      "midi": 61,
      "hit": false,
      "t": 18817.70833333334,
      "d": 151.04166666666788,
      "v": 105
    },
    {
      "midi": 65,
      "hit": false,
      "t": 18817.70833333334,
      "d": 151.04166666666788,
      "v": 105
    },
    {
      "midi": 46,
      "hit": false,
      "t": 18947.916666666668,
      "d": 57.29166666666788,
      "v": 82
    },
    {
      "midi": 58,
      "hit": false,
      "t": 18953.124999999993,
      "d": 151.04166666666788,
      "v": 90
    },
    {
      "midi": 46,
      "hit": false,
      "t": 18973.95833333334,
      "d": 57.29166666666788,
      "v": 65
    },
    {
      "midi": 41,
      "hit": false,
      "t": 19109.375000000004,
      "d": 88.54166666666788,
      "v": 82
    },
    {
      "midi": 53,
      "hit": false,
      "t": 19114.58333333333,
      "d": 223.95833333333212,
      "v": 90
    },
    {
      "midi": 41,
      "hit": false,
      "t": 19135.416666666675,
      "d": 88.54166666666788,
      "v": 65
    },
    {
      "midi": 60,
      "hit": false,
      "t": 19270.83333333334,
      "d": 57.29166666666788,
      "v": 105
    },
    {
      "midi": 65,
      "hit": false,
      "t": 19270.83333333334,
      "d": 57.29166666666788,
      "v": 105
    },
    {
      "midi": 60,
      "hit": false,
      "t": 19296.87500000001,
      "d": 57.29166666666788,
      "v": 105
    },
    {
      "midi": 65,
      "hit": false,
      "t": 19296.87500000001,
      "d": 57.29166666666788,
      "v": 105
    },
    {
      "midi": 68,
      "hit": false,
      "t": 19427.08333333334,
      "d": 229.16666666666788,
      "v": 83
    },
    {
      "midi": 72,
      "hit": false,
      "t": 19427.08333333334,
      "d": 229.16666666666788,
      "v": 83
    },
    {
      "midi": 60,
      "hit": false,
      "t": 19588.54166666666,
      "d": 229.16666666666788,
      "v": 90
    },
    {
      "midi": 48,
      "hit": false,
      "t": 19588.541666666675,
      "d": 88.54166666666788,
      "v": 82
    },
    {
      "midi": 48,
      "hit": false,
      "t": 19614.583333333347,
      "d": 88.54166666666788,
      "v": 65
    },
    {
      "midi": 60,
      "hit": false,
      "t": 19744.791666666675,
      "d": 151.04166666666424,
      "v": 105
    },
    {
      "midi": 65,
      "hit": false,
      "t": 19750.000000000007,
      "d": 145.83333333333212,
      "v": 105
    },
    {
      "midi": 68,
      "hit": false,
      "t": 19750.000000000007,
      "d": 223.95833333333212,
      "v": 83
    },
    {
      "midi": 72,
      "hit": false,
      "t": 19750.000000000007,
      "d": 229.16666666666424,
      "v": 83
    },
    {
      "midi": 60,
      "hit": false,
      "t": 19770.833333333347,
      "d": 151.04166666666424,
      "v": 105
    },
    {
      "midi": 65,
      "hit": false,
      "t": 19776.04166666668,
      "d": 145.83333333333212,
      "v": 105
    },
    {
      "midi": 53,
      "hit": false,
      "t": 19906.249999999996,
      "d": 151.04166666666788,
      "v": 90
    },
    {
      "midi": 41,
      "hit": false,
      "t": 19906.250000000007,
      "d": 57.29166666666788,
      "v": 82
    },
    {
      "midi": 41,
      "hit": false,
      "t": 19932.29166666668,
      "d": 57.29166666666788,
      "v": 65
    },
    {
      "midi": 42,
      "hit": false,
      "t": 20062.500000000007,
      "d": 119.79166666666788,
      "v": 82
    },
    {
      "midi": 54,
      "hit": false,
      "t": 20067.708333333332,
      "d": 307.2916666666679,
      "v": 90
    },
    {
      "midi": 42,
      "hit": false,
      "t": 20088.54166666668,
      "d": 119.79166666666788,
      "v": 65
    },
    {
      "midi": 61,
      "hit": false,
      "t": 20223.958333333343,
      "d": 57.29166666666788,
      "v": 105
    },
    {
      "midi": 66,
      "hit": false,
      "t": 20223.958333333343,
      "d": 57.29166666666788,
      "v": 105
    },
    {
      "midi": 61,
      "hit": false,
      "t": 20250.000000000015,
      "d": 57.29166666666788,
      "v": 105
    },
    {
      "midi": 66,
      "hit": false,
      "t": 20250.000000000015,
      "d": 57.29166666666788,
      "v": 105
    },
    {
      "midi": 70,
      "hit": false,
      "t": 20385.41666666667,
      "d": 145.83333333333212,
      "v": 83
    },
    {
      "midi": 73,
      "hit": false,
      "t": 20385.41666666667,
      "d": 151.04166666666424,
      "v": 83
    },
    {
      "midi": 61,
      "hit": false,
      "t": 20541.666666666668,
      "d": 229.16666666666788,
      "v": 90
    },
    {
      "midi": 49,
      "hit": false,
      "t": 20541.66666666668,
      "d": 88.54166666666788,
      "v": 82
    },
    {
      "midi": 49,
      "hit": false,
      "t": 20567.70833333335,
      "d": 88.54166666666788,
      "v": 65
    },
    {
      "midi": 70,
      "hit": false,
      "t": 20703.125000000004,
      "d": 229.16666666666424,
      "v": 83
    },
    {
      "midi": 61,
      "hit": false,
      "t": 20703.125000000015,
      "d": 145.83333333333212,
      "v": 105
    },
    {
      "midi": 66,
      "hit": false,
      "t": 20703.125000000015,
      "d": 151.04166666666424,
      "v": 105
    },
    {
      "midi": 73,
      "hit": false,
      "t": 20708.333333333336,
      "d": 223.95833333333212,
      "v": 83
    },
    {
      "midi": 61,
      "hit": false,
      "t": 20729.166666666686,
      "d": 151.04166666666788,
      "v": 105
    },
    {
      "midi": 66,
      "hit": false,
      "t": 20729.166666666686,
      "d": 151.04166666666788,
      "v": 105
    },
    {
      "midi": 54,
      "hit": false,
      "t": 20859.37500000001,
      "d": 57.29166666666788,
      "v": 82
    },
    {
      "midi": 66,
      "hit": false,
      "t": 20864.583333333336,
      "d": 145.83333333333212,
      "v": 90
    },
    {
      "midi": 54,
      "hit": false,
      "t": 20885.416666666686,
      "d": 57.29166666666788,
      "v": 65
    },
    {
      "midi": 65,
      "hit": false,
      "t": 21020.833333333336,
      "d": 229.16666666666788,
      "v": 90
    },
    {
      "midi": 53,
      "hit": false,
      "t": 21020.833333333347,
      "d": 88.54166666666788,
      "v": 82
    },
    {
      "midi": 53,
      "hit": false,
      "t": 21046.875000000022,
      "d": 88.54166666666788,
      "v": 65
    },
    {
      "midi": 61,
      "hit": false,
      "t": 21177.083333333347,
      "d": 57.29166666666424,
      "v": 105
    },
    {
      "midi": 65,
      "hit": false,
      "t": 21182.29166666668,
      "d": 57.29166666666424,
      "v": 105
    },
    {
      "midi": 61,
      "hit": false,
      "t": 21203.125000000022,
      "d": 57.29166666666424,
      "v": 105
    },
    {
      "midi": 65,
      "hit": false,
      "t": 21208.333333333354,
      "d": 57.29166666666424,
      "v": 105
    },
    {
      "midi": 63,
      "hit": false,
      "t": 21338.54166666667,
      "d": 229.16666666666788,
      "v": 90
    },
    {
      "midi": 51,
      "hit": false,
      "t": 21338.541666666675,
      "d": 88.54166666666788,
      "v": 82
    },
    {
      "midi": 65,
      "hit": false,
      "t": 21343.75,
      "d": 145.83333333333212,
      "v": 83
    },
    {
      "midi": 68,
      "hit": false,
      "t": 21343.75,
      "d": 145.83333333333212,
      "v": 83
    },
    {
      "midi": 51,
      "hit": false,
      "t": 21364.58333333335,
      "d": 88.54166666666788,
      "v": 65
    },
    {
      "midi": 61,
      "hit": false,
      "t": 21500.00000000001,
      "d": 57.29166666666788,
      "v": 105
    },
    {
      "midi": 65,
      "hit": false,
      "t": 21500.00000000001,
      "d": 57.29166666666788,
      "v": 105
    },
    {
      "midi": 61,
      "hit": false,
      "t": 21526.041666666686,
      "d": 57.29166666666788,
      "v": 105
    },
    {
      "midi": 65,
      "hit": false,
      "t": 21526.041666666686,
      "d": 57.29166666666788,
      "v": 105
    },
    {
      "midi": 49,
      "hit": false,
      "t": 21656.25000000001,
      "d": 88.54166666666788,
      "v": 82
    },
    {
      "midi": 68,
      "hit": false,
      "t": 21661.458333333332,
      "d": 145.83333333333212,
      "v": 83
    },
    {
      "midi": 65,
      "hit": false,
      "t": 21661.458333333332,
      "d": 229.16666666666424,
      "v": 83
    },
    {
      "midi": 61,
      "hit": false,
      "t": 21661.45833333334,
      "d": 229.16666666666788,
      "v": 90
    },
    {
      "midi": 49,
      "hit": false,
      "t": 21682.291666666686,
      "d": 88.54166666666788,
      "v": 65
    },
    {
      "midi": 61,
      "hit": false,
      "t": 21817.708333333347,
      "d": 57.29166666666788,
      "v": 105
    },
    {
      "midi": 65,
      "hit": false,
      "t": 21817.708333333347,
      "d": 57.29166666666788,
      "v": 105
    },
    {
      "midi": 61,
      "hit": false,
      "t": 21843.750000000022,
      "d": 57.29166666666788,
      "v": 105
    },
    {
      "midi": 65,
      "hit": false,
      "t": 21843.750000000022,
      "d": 57.29166666666788,
      "v": 105
    },
    {
      "midi": 48,
      "hit": false,
      "t": 21973.958333333347,
      "d": 88.54166666666788,
      "v": 82
    },
    {
      "midi": 60,
      "hit": false,
      "t": 21979.166666666675,
      "d": 229.16666666666788,
      "v": 90
    },
    {
      "midi": 48,
      "hit": false,
      "t": 22000.000000000022,
      "d": 88.54166666666788,
      "v": 65
    },
    {
      "midi": 61,
      "hit": false,
      "t": 22135.416666666682,
      "d": 57.29166666666788,
      "v": 105
    },
    {
      "midi": 65,
      "hit": false,
      "t": 22135.416666666682,
      "d": 57.29166666666788,
      "v": 105
    },
    {
      "midi": 61,
      "hit": false,
      "t": 22161.458333333358,
      "d": 57.29166666666788,
      "v": 105
    },
    {
      "midi": 65,
      "hit": false,
      "t": 22161.458333333358,
      "d": 57.29166666666788,
      "v": 105
    },
    {
      "midi": 46,
      "hit": false,
      "t": 22291.666666666682,
      "d": 119.79166666666788,
      "v": 82
    },
    {
      "midi": 58,
      "hit": false,
      "t": 22296.87500000001,
      "d": 307.2916666666679,
      "v": 90
    },
    {
      "midi": 46,
      "hit": false,
      "t": 22322.916666666693,
      "d": 119.79166666666788,
      "v": 65
    },
    {
      "midi": 61,
      "hit": false,
      "t": 22453.12500000002,
      "d": 57.29166666666788,
      "v": 105
    },
    {
      "midi": 65,
      "hit": false,
      "t": 22453.12500000002,
      "d": 57.29166666666788,
      "v": 105
    },
    {
      "midi": 61,
      "hit": false,
      "t": 22479.166666666693,
      "d": 57.29166666666788,
      "v": 105
    },
    {
      "midi": 65,
      "hit": false,
      "t": 22479.166666666693,
      "d": 57.29166666666788,
      "v": 105
    },
    {
      "midi": 73,
      "hit": false,
      "t": 22614.58333333333,
      "d": 145.83333333333212,
      "v": 83
    },
    {
      "midi": 77,
      "hit": false,
      "t": 22614.58333333333,
      "d": 151.04166666666424,
      "v": 83
    },
    {
      "midi": 65,
      "hit": false,
      "t": 22770.833333333347,
      "d": 234.375,
      "v": 90
    },
    {
      "midi": 53,
      "hit": false,
      "t": 22770.833333333354,
      "d": 88.54166666666788,
      "v": 82
    },
    {
      "midi": 53,
      "hit": false,
      "t": 22796.87500000003,
      "d": 88.54166666666788,
      "v": 65
    },
    {
      "midi": 73,
      "hit": false,
      "t": 22932.29166666666,
      "d": 151.04166666666424,
      "v": 83
    },
    {
      "midi": 61,
      "hit": false,
      "t": 22932.29166666669,
      "d": 145.83333333333212,
      "v": 105
    },
    {
      "midi": 65,
      "hit": false,
      "t": 22932.29166666669,
      "d": 151.04166666666424,
      "v": 105
    },
    {
      "midi": 77,
      "hit": false,
      "t": 22937.499999999993,
      "d": 145.83333333333212,
      "v": 83
    },
    {
      "midi": 61,
      "hit": false,
      "t": 22958.333333333365,
      "d": 151.04166666666788,
      "v": 105
    },
    {
      "midi": 65,
      "hit": false,
      "t": 22958.333333333365,
      "d": 151.04166666666788,
      "v": 105
    },
    {
      "midi": 46,
      "hit": false,
      "t": 23088.541666666686,
      "d": 57.29166666666788,
      "v": 82
    },
    {
      "midi": 58,
      "hit": false,
      "t": 23093.750000000015,
      "d": 145.83333333333212,
      "v": 90
    },
    {
      "midi": 46,
      "hit": false,
      "t": 23114.583333333365,
      "d": 57.29166666666788,
      "v": 65
    },
    {
      "midi": 41,
      "hit": false,
      "t": 23250.000000000022,
      "d": 119.79166666666788,
      "v": 82
    },
    {
      "midi": 53,
      "hit": false,
      "t": 23255.208333333347,
      "d": 307.2916666666679,
      "v": 90
    },
    {
      "midi": 41,
      "hit": false,
      "t": 23276.0416666667,
      "d": 119.79166666666788,
      "v": 65
    },
    {
      "midi": 60,
      "hit": false,
      "t": 23406.250000000022,
      "d": 57.29166666666424,
      "v": 105
    },
    {
      "midi": 65,
      "hit": false,
      "t": 23411.458333333354,
      "d": 57.29166666666424,
      "v": 105
    },
    {
      "midi": 60,
      "hit": false,
      "t": 23437.500000000036,
      "d": 57.29166666666788,
      "v": 105
    },
    {
      "midi": 65,
      "hit": false,
      "t": 23437.500000000036,
      "d": 57.29166666666788,
      "v": 105
    },
    {
      "midi": 68,
      "hit": false,
      "t": 23567.708333333325,
      "d": 151.04166666666788,
      "v": 83
    },
    {
      "midi": 72,
      "hit": false,
      "t": 23567.708333333325,
      "d": 151.04166666666788,
      "v": 83
    },
    {
      "midi": 60,
      "hit": false,
      "t": 23729.166666666682,
      "d": 229.16666666666788,
      "v": 90
    },
    {
      "midi": 48,
      "hit": false,
      "t": 23729.166666666686,
      "d": 88.54166666666788,
      "v": 82
    },
    {
      "midi": 48,
      "hit": false,
      "t": 23755.208333333372,
      "d": 88.54166666666788,
      "v": 65
    },
    {
      "midi": 60,
      "hit": false,
      "t": 23885.416666666686,
      "d": 151.04166666666424,
      "v": 105
    },
    {
      "midi": 68,
      "hit": false,
      "t": 23890.624999999993,
      "d": 223.95833333333212,
      "v": 83
    },
    {
      "midi": 72,
      "hit": false,
      "t": 23890.624999999993,
      "d": 229.16666666666424,
      "v": 83
    },
    {
      "midi": 65,
      "hit": false,
      "t": 23890.62500000002,
      "d": 145.83333333333212,
      "v": 105
    },
    {
      "midi": 60,
      "hit": false,
      "t": 23911.458333333372,
      "d": 151.04166666666424,
      "v": 105
    },
    {
      "midi": 65,
      "hit": false,
      "t": 23916.666666666704,
      "d": 145.83333333333212,
      "v": 105
    },
    {
      "midi": 41,
      "hit": false,
      "t": 24046.87500000002,
      "d": 57.29166666666788,
      "v": 82
    },
    {
      "midi": 53,
      "hit": false,
      "t": 24046.87500000002,
      "d": 151.04166666666788,
      "v": 90
    },
    {
      "midi": 41,
      "hit": false,
      "t": 24072.916666666704,
      "d": 57.29166666666788,
      "v": 65
    },
    {
      "midi": 44,
      "hit": false,
      "t": 24208.333333333354,
      "d": 119.79166666666788,
      "v": 82
    },
    {
      "midi": 56,
      "hit": false,
      "t": 24208.333333333354,
      "d": 307.2916666666679,
      "v": 90
    },
    {
      "midi": 44,
      "hit": false,
      "t": 24229.166666666704,
      "d": 119.79166666666788,
      "v": 65
    },
    {
      "midi": 60,
      "hit": false,
      "t": 24364.583333333354,
      "d": 57.29166666666788,
      "v": 105
    },
    {
      "midi": 63,
      "hit": false,
      "t": 24364.583333333354,
      "d": 57.29166666666788,
      "v": 105
    },
    {
      "midi": 60,
      "hit": false,
      "t": 24390.62500000004,
      "d": 57.29166666666788,
      "v": 105
    },
    {
      "midi": 63,
      "hit": false,
      "t": 24390.62500000004,
      "d": 57.29166666666788,
      "v": 105
    },
    {
      "midi": 72,
      "hit": false,
      "t": 24520.833333333325,
      "d": 151.04166666666424,
      "v": 83
    },
    {
      "midi": 75,
      "hit": false,
      "t": 24526.041666666657,
      "d": 151.04166666666424,
      "v": 83
    },
    {
      "midi": 51,
      "hit": false,
      "t": 24682.29166666669,
      "d": 88.54166666666788,
      "v": 82
    },
    {
      "midi": 63,
      "hit": false,
      "t": 24682.29166666669,
      "d": 229.16666666666788,
      "v": 90
    },
    {
      "midi": 51,
      "hit": false,
      "t": 24708.333333333376,
      "d": 88.54166666666788,
      "v": 65
    },
    {
      "midi": 72,
      "hit": false,
      "t": 24843.74999999999,
      "d": 229.16666666666424,
      "v": 83
    },
    {
      "midi": 60,
      "hit": false,
      "t": 24843.750000000025,
      "d": 145.83333333333212,
      "v": 105
    },
    {
      "midi": 63,
      "hit": false,
      "t": 24843.750000000025,
      "d": 151.04166666666424,
      "v": 105
    },
    {
      "midi": 75,
      "hit": false,
      "t": 24848.95833333332,
      "d": 140.625,
      "v": 83
    },
    {
      "midi": 60,
      "hit": false,
      "t": 24869.79166666671,
      "d": 151.04166666666788,
      "v": 105
    },
    {
      "midi": 63,
      "hit": false,
      "t": 24869.79166666671,
      "d": 151.04166666666788,
      "v": 105
    },
    {
      "midi": 44,
      "hit": false,
      "t": 25000.000000000022,
      "d": 57.29166666666788,
      "v": 82
    },
    {
      "midi": 56,
      "hit": false,
      "t": 25005.208333333358,
      "d": 151.04166666666788,
      "v": 90
    },
    {
      "midi": 44,
      "hit": false,
      "t": 25026.04166666671,
      "d": 57.29166666666788,
      "v": 65
    },
    {
      "midi": 42,
      "hit": false,
      "t": 25161.458333333358,
      "d": 88.54166666666788,
      "v": 82
    },
    {
      "midi": 54,
      "hit": false,
      "t": 25166.666666666693,
      "d": 223.95833333333212,
      "v": 90
    },
    {
      "midi": 42,
      "hit": false,
      "t": 25187.500000000047,
      "d": 88.54166666666788,
      "v": 65
    },
    {
      "midi": 58,
      "hit": false,
      "t": 25317.708333333358,
      "d": 57.29166666666424,
      "v": 105
    },
    {
      "midi": 61,
      "hit": false,
      "t": 25322.91666666669,
      "d": 57.29166666666424,
      "v": 105
    },
    {
      "midi": 58,
      "hit": false,
      "t": 25343.750000000047,
      "d": 57.29166666666424,
      "v": 105
    },
    {
      "midi": 61,
      "hit": false,
      "t": 25348.95833333338,
      "d": 57.29166666666424,
      "v": 105
    },
    {
      "midi": 41,
      "hit": false,
      "t": 25479.166666666686,
      "d": 88.54166666666788,
      "v": 82
    },
    {
      "midi": 53,
      "hit": false,
      "t": 25479.166666666693,
      "d": 229.16666666666788,
      "v": 90
    },
    {
      "midi": 70,
      "hit": false,
      "t": 25484.374999999985,
      "d": 62.5,
      "v": 83
    },
    {
      "midi": 73,
      "hit": false,
      "t": 25484.374999999985,
      "d": 145.83333333333212,
      "v": 83
    },
    {
      "midi": 41,
      "hit": false,
      "t": 25505.208333333376,
      "d": 88.54166666666788,
      "v": 65
    },
    {
      "midi": 58,
      "hit": false,
      "t": 25635.416666666686,
      "d": 57.29166666666424,
      "v": 105
    },
    {
      "midi": 61,
      "hit": false,
      "t": 25640.62500000002,
      "d": 57.29166666666424,
      "v": 105
    },
    {
      "midi": 58,
      "hit": false,
      "t": 25666.66666666671,
      "d": 57.29166666666788,
      "v": 105
    },
    {
      "midi": 61,
      "hit": false,
      "t": 25666.66666666671,
      "d": 57.29166666666788,
      "v": 105
    },
    {
      "midi": 39,
      "hit": false,
      "t": 25796.875000000015,
      "d": 88.54166666666788,
      "v": 82
    },
    {
      "midi": 51,
      "hit": false,
      "t": 25796.87500000003,
      "d": 229.16666666666788,
      "v": 90
    },
    {
      "midi": 70,
      "hit": false,
      "t": 25802.083333333318,
      "d": 145.83333333333212,
      "v": 83
    },
    {
      "midi": 73,
      "hit": false,
      "t": 25802.083333333318,
      "d": 145.83333333333212,
      "v": 83
    },
    {
      "midi": 39,
      "hit": false,
      "t": 25822.91666666671,
      "d": 88.54166666666788,
      "v": 65
    },
    {
      "midi": 58,
      "hit": false,
      "t": 25958.33333333335,
      "d": 57.29166666666788,
      "v": 105
    },
    {
      "midi": 61,
      "hit": false,
      "t": 25958.33333333335,
      "d": 57.29166666666788,
      "v": 105
    },
    {
      "midi": 58,
      "hit": false,
      "t": 25984.375000000047,
      "d": 57.29166666666788,
      "v": 105
    },
    {
      "midi": 61,
      "hit": false,
      "t": 25984.375000000047,
      "d": 57.29166666666788,
      "v": 105
    },
    {
      "midi": 37,
      "hit": false,
      "t": 26114.58333333335,
      "d": 88.54166666666788,
      "v": 82
    },
    {
      "midi": 49,
      "hit": false,
      "t": 26119.791666666697,
      "d": 229.16666666666788,
      "v": 90
    },
    {
      "midi": 37,
      "hit": false,
      "t": 26140.625000000047,
      "d": 88.54166666666788,
      "v": 65
    },
    {
      "midi": 58,
      "hit": false,
      "t": 26276.041666666686,
      "d": 57.29166666666788,
      "v": 105
    },
    {
      "midi": 61,
      "hit": false,
      "t": 26276.041666666686,
      "d": 57.29166666666788,
      "v": 105
    },
    {
      "midi": 58,
      "hit": false,
      "t": 26302.083333333383,
      "d": 57.29166666666788,
      "v": 105
    },
    {
      "midi": 61,
      "hit": false,
      "t": 26302.083333333383,
      "d": 57.29166666666788,
      "v": 105
    },
    {
      "midi": 39,
      "hit": false,
      "t": 26432.291666666686,
      "d": 119.79166666666788,
      "v": 82
    },
    {
      "midi": 51,
      "hit": false,
      "t": 26437.500000000033,
      "d": 307.2916666666679,
      "v": 90
    },
    {
      "midi": 39,
      "hit": false,
      "t": 26458.333333333383,
      "d": 119.79166666666788,
      "v": 65
    },
    {
      "midi": 54,
      "hit": false,
      "t": 26593.750000000022,
      "d": 57.29166666666788,
      "v": 105
    },
    {
      "midi": 58,
      "hit": false,
      "t": 26593.750000000022,
      "d": 57.29166666666788,
      "v": 105
    },
    {
      "midi": 54,
      "hit": false,
      "t": 26619.79166666672,
      "d": 57.29166666666788,
      "v": 105
    },
    {
      "midi": 58,
      "hit": false,
      "t": 26619.79166666672,
      "d": 57.29166666666788,
      "v": 105
    },
    {
      "midi": 78,
      "hit": false,
      "t": 26749.99999999998,
      "d": 151.04166666666424,
      "v": 83
    },
    {
      "midi": 82,
      "hit": false,
      "t": 26755.208333333314,
      "d": 151.04166666666424,
      "v": 83
    },
    {
      "midi": 42,
      "hit": false,
      "t": 26911.458333333358,
      "d": 88.54166666666788,
      "v": 82
    },
    {
      "midi": 54,
      "hit": false,
      "t": 26911.45833333337,
      "d": 546.875,
      "v": 90
    },
    {
      "midi": 42,
      "hit": false,
      "t": 26937.500000000055,
      "d": 88.54166666666788,
      "v": 65
    },
    {
      "midi": 78,
      "hit": false,
      "t": 27072.916666666646,
      "d": 145.83333333333212,
      "v": 83
    },
    {
      "midi": 54,
      "hit": false,
      "t": 27072.916666666693,
      "d": 151.04166666666788,
      "v": 105
    },
    {
      "midi": 58,
      "hit": false,
      "t": 27072.916666666693,
      "d": 151.04166666666788,
      "v": 105
    },
    {
      "midi": 82,
      "hit": false,
      "t": 27078.124999999978,
      "d": 145.83333333333212,
      "v": 83
    },
    {
      "midi": 54,
      "hit": false,
      "t": 27098.95833333339,
      "d": 145.83333333333212,
      "v": 105
    },
    {
      "midi": 58,
      "hit": false,
      "t": 27098.95833333339,
      "d": 151.04166666666424,
      "v": 105
    },
    {
      "midi": 46,
      "hit": false,
      "t": 27229.166666666693,
      "d": 57.29166666666788,
      "v": 82
    },
    {
      "midi": 58,
      "hit": false,
      "t": 27229.1666666667,
      "d": 151.04166666666788,
      "v": 90
    },
    {
      "midi": 46,
      "hit": false,
      "t": 27255.208333333387,
      "d": 57.29166666666788,
      "v": 65
    },
    {
      "midi": 44,
      "hit": false,
      "t": 27390.62500000003,
      "d": 119.79166666666788,
      "v": 82
    },
    {
      "midi": 56,
      "hit": false,
      "t": 27390.625000000036,
      "d": 307.29166666666424,
      "v": 90
    },
    {
      "midi": 44,
      "hit": false,
      "t": 27416.666666666722,
      "d": 119.79166666666788,
      "v": 65
    },
    {
      "midi": 41,
      "hit": false,
      "t": 27708.333333333365,
      "d": 119.79166666666788,
      "v": 82
    },
    {
      "midi": 53,
      "hit": false,
      "t": 27708.33333333337,
      "d": 312.5,
      "v": 90
    },
    {
      "midi": 77,
      "hit": false,
      "t": 27713.541666666642,
      "d": 145.83333333333212,
      "v": 83
    },
    {
      "midi": 53,
      "hit": false,
      "t": 27713.541666666697,
      "d": 57.29166666666788,
      "v": 105
    },
    {
      "midi": 56,
      "hit": false,
      "t": 27713.541666666697,
      "d": 57.29166666666788,
      "v": 105
    },
    {
      "midi": 80,
      "hit": false,
      "t": 27718.749999999975,
      "d": 140.625,
      "v": 83
    },
    {
      "midi": 53,
      "hit": false,
      "t": 27734.37500000006,
      "d": 57.29166666666424,
      "v": 105
    },
    {
      "midi": 41,
      "hit": false,
      "t": 27734.37500000006,
      "d": 119.79166666666424,
      "v": 65
    },
    {
      "midi": 56,
      "hit": false,
      "t": 27739.58333333339,
      "d": 57.29166666666424,
      "v": 105
    },
    {
      "midi": 37,
      "hit": false,
      "t": 28026.0416666667,
      "d": 119.79166666666424,
      "v": 82
    },
    {
      "midi": 49,
      "hit": false,
      "t": 28026.0416666667,
      "d": 312.5,
      "v": 90
    },
    {
      "midi": 77,
      "hit": false,
      "t": 28031.249999999975,
      "d": 145.83333333333212,
      "v": 83
    },
    {
      "midi": 53,
      "hit": false,
      "t": 28031.250000000033,
      "d": 119.79166666666424,
      "v": 105
    },
    {
      "midi": 56,
      "hit": false,
      "t": 28031.250000000033,
      "d": 119.79166666666424,
      "v": 105
    },
    {
      "midi": 80,
      "hit": false,
      "t": 28036.458333333307,
      "d": 140.625,
      "v": 83
    },
    {
      "midi": 37,
      "hit": false,
      "t": 28052.08333333339,
      "d": 119.79166666666424,
      "v": 65
    },
    {
      "midi": 53,
      "hit": false,
      "t": 28052.08333333339,
      "d": 119.79166666666424,
      "v": 105
    },
    {
      "midi": 56,
      "hit": false,
      "t": 28057.291666666722,
      "d": 119.79166666666424,
      "v": 105
    },
    {
      "midi": 39,
      "hit": false,
      "t": 28343.75000000003,
      "d": 119.79166666666788,
      "v": 82
    },
    {
      "midi": 51,
      "hit": false,
      "t": 28348.95833333337,
      "d": 307.2916666666679,
      "v": 90
    },
    {
      "midi": 39,
      "hit": false,
      "t": 28369.79166666672,
      "d": 119.79166666666788,
      "v": 65
    },
    {
      "midi": 54,
      "hit": false,
      "t": 28505.208333333365,
      "d": 57.29166666666788,
      "v": 105
    },
    {
      "midi": 58,
      "hit": false,
      "t": 28505.208333333365,
      "d": 57.29166666666788,
      "v": 105
    },
    {
      "midi": 54,
      "hit": false,
      "t": 28531.250000000055,
      "d": 57.29166666666788,
      "v": 105
    },
    {
      "midi": 58,
      "hit": false,
      "t": 28531.250000000055,
      "d": 57.29166666666788,
      "v": 105
    },
    {
      "midi": 78,
      "hit": false,
      "t": 28661.458333333307,
      "d": 151.04166666666424,
      "v": 83
    },
    {
      "midi": 82,
      "hit": false,
      "t": 28666.66666666664,
      "d": 145.83333333333212,
      "v": 83
    },
    {
      "midi": 42,
      "hit": false,
      "t": 28822.9166666667,
      "d": 119.79166666666788,
      "v": 82
    },
    {
      "midi": 54,
      "hit": false,
      "t": 28822.916666666704,
      "d": 546.875,
      "v": 90
    },
    {
      "midi": 42,
      "hit": false,
      "t": 28848.95833333339,
      "d": 119.79166666666788,
      "v": 65
    },
    {
      "midi": 54,
      "hit": false,
      "t": 28979.1666666667,
      "d": 151.04166666666424,
      "v": 105
    },
    {
      "midi": 78,
      "hit": false,
      "t": 28984.37499999997,
      "d": 151.04166666666424,
      "v": 83
    },
    {
      "midi": 58,
      "hit": false,
      "t": 28984.375000000033,
      "d": 151.04166666666424,
      "v": 105
    },
    {
      "midi": 82,
      "hit": false,
      "t": 28989.583333333303,
      "d": 145.83333333333212,
      "v": 83
    },
    {
      "midi": 54,
      "hit": false,
      "t": 29010.416666666726,
      "d": 145.83333333333212,
      "v": 105
    },
    {
      "midi": 58,
      "hit": false,
      "t": 29010.416666666726,
      "d": 151.04166666666424,
      "v": 105
    },
    {
      "midi": 46,
      "hit": false,
      "t": 29140.62500000003,
      "d": 57.29166666666788,
      "v": 82
    },
    {
      "midi": 58,
      "hit": false,
      "t": 29145.833333333372,
      "d": 145.83333333333212,
      "v": 90
    },
    {
      "midi": 46,
      "hit": false,
      "t": 29166.666666666722,
      "d": 57.29166666666788,
      "v": 65
    },
    {
      "midi": 44,
      "hit": false,
      "t": 29302.083333333365,
      "d": 119.79166666666788,
      "v": 82
    },
    {
      "midi": 56,
      "hit": false,
      "t": 29302.083333333372,
      "d": 307.29166666666424,
      "v": 90
    },
    {
      "midi": 44,
      "hit": false,
      "t": 29328.12500000006,
      "d": 119.79166666666788,
      "v": 67
    },
    {
      "midi": 53,
      "hit": false,
      "t": 29619.7916666667,
      "d": 57.29166666666424,
      "v": 105
    },
    {
      "midi": 41,
      "hit": false,
      "t": 29619.7916666667,
      "d": 119.79166666666424,
      "v": 82
    },
    {
      "midi": 53,
      "hit": false,
      "t": 29619.791666666704,
      "d": 307.2916666666679,
      "v": 90
    },
    {
      "midi": 77,
      "hit": false,
      "t": 29624.999999999967,
      "d": 145.83333333333212,
      "v": 83
    },
    {
      "midi": 56,
      "hit": false,
      "t": 29625.000000000033,
      "d": 57.29166666666424,
      "v": 105
    },
    {
      "midi": 80,
      "hit": false,
      "t": 29630.2083333333,
      "d": 140.625,
      "v": 83
    },
    {
      "midi": 53,
      "hit": false,
      "t": 29645.833333333394,
      "d": 57.29166666666424,
      "v": 105
    },
    {
      "midi": 41,
      "hit": false,
      "t": 29645.833333333394,
      "d": 119.79166666666424,
      "v": 65
    },
    {
      "midi": 56,
      "hit": false,
      "t": 29651.041666666726,
      "d": 57.29166666666424,
      "v": 105
    },
    {
      "midi": 37,
      "hit": false,
      "t": 29937.500000000033,
      "d": 119.79166666666424,
      "v": 82
    },
    {
      "midi": 49,
      "hit": false,
      "t": 29937.50000000004,
      "d": 312.5,
      "v": 90
    },
    {
      "midi": 77,
      "hit": false,
      "t": 29942.7083333333,
      "d": 223.95833333333212,
      "v": 83
    },
    {
      "midi": 53,
      "hit": false,
      "t": 29942.708333333365,
      "d": 119.79166666666424,
      "v": 105
    },
    {
      "midi": 56,
      "hit": false,
      "t": 29942.708333333365,
      "d": 119.79166666666424,
      "v": 105
    },
    {
      "midi": 80,
      "hit": false,
      "t": 29947.91666666663,
      "d": 140.625,
      "v": 83
    },
    {
      "midi": 37,
      "hit": false,
      "t": 29963.541666666726,
      "d": 119.79166666666424,
      "v": 65
    },
    {
      "midi": 53,
      "hit": false,
      "t": 29963.541666666726,
      "d": 119.79166666666424,
      "v": 105
    },
    {
      "midi": 56,
      "hit": false,
      "t": 29968.75000000006,
      "d": 119.79166666666424,
      "v": 105
    },
    {
      "midi": 39,
      "hit": false,
      "t": 30255.20833333336,
      "d": 119.79166666666788,
      "v": 82
    },
    {
      "midi": 51,
      "hit": false,
      "t": 30260.416666666708,
      "d": 307.2916666666679,
      "v": 90
    },
    {
      "midi": 39,
      "hit": false,
      "t": 30281.250000000055,
      "d": 119.79166666666788,
      "v": 65
    },
    {
      "midi": 54,
      "hit": false,
      "t": 30416.666666666697,
      "d": 57.29166666666788,
      "v": 105
    },
    {
      "midi": 58,
      "hit": false,
      "t": 30416.666666666697,
      "d": 57.29166666666788,
      "v": 105
    },
    {
      "midi": 54,
      "hit": false,
      "t": 30442.70833333339,
      "d": 57.29166666666788,
      "v": 105
    },
    {
      "midi": 58,
      "hit": false,
      "t": 30442.70833333339,
      "d": 57.29166666666788,
      "v": 105
    },
    {
      "midi": 78,
      "hit": false,
      "t": 30578.124999999964,
      "d": 145.83333333333212,
      "v": 83
    },
    {
      "midi": 82,
      "hit": false,
      "t": 30578.124999999964,
      "d": 145.83333333333212,
      "v": 83
    },
    {
      "midi": 42,
      "hit": false,
      "t": 30734.375000000033,
      "d": 119.79166666666788,
      "v": 82
    },
    {
      "midi": 54,
      "hit": false,
      "t": 30734.375000000044,
      "d": 546.875,
      "v": 90
    },
    {
      "midi": 42,
      "hit": false,
      "t": 30760.416666666726,
      "d": 119.79166666666788,
      "v": 65
    },
    {
      "midi": 54,
      "hit": false,
      "t": 30890.625000000033,
      "d": 151.04166666666424,
      "v": 105
    },
    {
      "midi": 78,
      "hit": false,
      "t": 30895.833333333296,
      "d": 151.04166666666424,
      "v": 83
    },
    {
      "midi": 58,
      "hit": false,
      "t": 30895.833333333365,
      "d": 151.04166666666424,
      "v": 105
    },
    {
      "midi": 82,
      "hit": false,
      "t": 30901.041666666628,
      "d": 145.83333333333212,
      "v": 83
    },
    {
      "midi": 54,
      "hit": false,
      "t": 30916.666666666726,
      "d": 151.04166666666424,
      "v": 105
    },
    {
      "midi": 58,
      "hit": false,
      "t": 30921.87500000006,
      "d": 145.83333333333212,
      "v": 105
    },
    {
      "midi": 46,
      "hit": false,
      "t": 31052.08333333336,
      "d": 57.29166666666788,
      "v": 82
    },
    {
      "midi": 58,
      "hit": false,
      "t": 31052.083333333376,
      "d": 151.04166666666788,
      "v": 90
    },
    {
      "midi": 46,
      "hit": false,
      "t": 31078.12500000006,
      "d": 57.29166666666788,
      "v": 65
    },
    {
      "midi": 44,
      "hit": false,
      "t": 31213.541666666697,
      "d": 119.79166666666788,
      "v": 82
    },
    {
      "midi": 56,
      "hit": false,
      "t": 31213.54166666671,
      "d": 307.29166666666424,
      "v": 90
    },
    {
      "midi": 44,
      "hit": false,
      "t": 31239.583333333394,
      "d": 119.79166666666788,
      "v": 65
    },
    {
      "midi": 53,
      "hit": false,
      "t": 31531.250000000033,
      "d": 57.29166666666424,
      "v": 105
    },
    {
      "midi": 41,
      "hit": false,
      "t": 31531.250000000033,
      "d": 119.79166666666424,
      "v": 82
    },
    {
      "midi": 53,
      "hit": false,
      "t": 31531.250000000044,
      "d": 307.2916666666679,
      "v": 90
    },
    {
      "midi": 77,
      "hit": false,
      "t": 31536.458333333292,
      "d": 145.83333333333212,
      "v": 83
    },
    {
      "midi": 80,
      "hit": false,
      "t": 31536.458333333292,
      "d": 145.83333333333212,
      "v": 83
    },
    {
      "midi": 56,
      "hit": false,
      "t": 31536.458333333365,
      "d": 57.29166666666424,
      "v": 105
    },
    {
      "midi": 53,
      "hit": false,
      "t": 31557.29166666673,
      "d": 57.29166666666788,
      "v": 105
    },
    {
      "midi": 56,
      "hit": false,
      "t": 31557.29166666673,
      "d": 57.29166666666788,
      "v": 105
    },
    {
      "midi": 41,
      "hit": false,
      "t": 31557.29166666673,
      "d": 119.79166666666788,
      "v": 65
    },
    {
      "midi": 37,
      "hit": false,
      "t": 31848.958333333365,
      "d": 119.79166666666424,
      "v": 82
    },
    {
      "midi": 49,
      "hit": false,
      "t": 31848.95833333338,
      "d": 307.2916666666679,
      "v": 90
    },
    {
      "midi": 77,
      "hit": false,
      "t": 31854.166666666624,
      "d": 145.83333333333212,
      "v": 83
    },
    {
      "midi": 53,
      "hit": false,
      "t": 31854.166666666697,
      "d": 145.83333333333212,
      "v": 105
    },
    {
      "midi": 56,
      "hit": false,
      "t": 31854.166666666697,
      "d": 145.83333333333212,
      "v": 105
    },
    {
      "midi": 80,
      "hit": false,
      "t": 31859.374999999956,
      "d": 140.625,
      "v": 83
    },
    {
      "midi": 37,
      "hit": false,
      "t": 31875.000000000065,
      "d": 119.79166666666424,
      "v": 65
    },
    {
      "midi": 53,
      "hit": false,
      "t": 31875.000000000065,
      "d": 151.04166666666424,
      "v": 105
    },
    {
      "midi": 56,
      "hit": false,
      "t": 31880.208333333398,
      "d": 145.83333333333212,
      "v": 105
    },
    {
      "midi": 39,
      "hit": false,
      "t": 32166.666666666697,
      "d": 119.79166666666788,
      "v": 82
    },
    {
      "midi": 51,
      "hit": false,
      "t": 32171.875000000047,
      "d": 307.2916666666679,
      "v": 90
    },
    {
      "midi": 39,
      "hit": false,
      "t": 32192.708333333398,
      "d": 119.79166666666788,
      "v": 65
    },
    {
      "midi": 54,
      "hit": false,
      "t": 32328.125000000033,
      "d": 57.29166666666788,
      "v": 105
    },
    {
      "midi": 58,
      "hit": false,
      "t": 32328.125000000033,
      "d": 57.29166666666788,
      "v": 105
    },
    {
      "midi": 54,
      "hit": false,
      "t": 32354.166666666733,
      "d": 57.29166666666788,
      "v": 105
    },
    {
      "midi": 58,
      "hit": false,
      "t": 32354.166666666733,
      "d": 57.29166666666788,
      "v": 105
    },
    {
      "midi": 78,
      "hit": false,
      "t": 32489.58333333329,
      "d": 67.70833333333212,
      "v": 83
    },
    {
      "midi": 82,
      "hit": false,
      "t": 32489.58333333329,
      "d": 67.70833333333212,
      "v": 83
    },
    {
      "midi": 42,
      "hit": false,
      "t": 32645.83333333337,
      "d": 119.79166666666788,
      "v": 82
    },
    {
      "midi": 54,
      "hit": false,
      "t": 32645.833333333383,
      "d": 546.8749999999964,
      "v": 90
    },
    {
      "midi": 42,
      "hit": false,
      "t": 32671.87500000007,
      "d": 119.79166666666788,
      "v": 65
    },
    {
      "midi": 54,
      "hit": false,
      "t": 32802.08333333337,
      "d": 151.04166666667152,
      "v": 105
    },
    {
      "midi": 78,
      "hit": false,
      "t": 32807.29166666662,
      "d": 145.83333333333576,
      "v": 83
    },
    {
      "midi": 82,
      "hit": false,
      "t": 32807.29166666662,
      "d": 151.04166666667152,
      "v": 83
    },
    {
      "midi": 58,
      "hit": false,
      "t": 32807.29166666671,
      "d": 151.04166666667152,
      "v": 105
    },
    {
      "midi": 54,
      "hit": false,
      "t": 32828.12500000007,
      "d": 151.04166666667152,
      "v": 105
    },
    {
      "midi": 58,
      "hit": false,
      "t": 32833.33333333341,
      "d": 151.04166666667152,
      "v": 105
    },
    {
      "midi": 46,
      "hit": false,
      "t": 32963.541666666715,
      "d": 57.29166666666424,
      "v": 82
    },
    {
      "midi": 58,
      "hit": false,
      "t": 32963.541666666715,
      "d": 151.04166666666424,
      "v": 90
    },
    {
      "midi": 46,
      "hit": false,
      "t": 32989.583333333416,
      "d": 57.29166666666424,
      "v": 65
    },
    {
      "midi": 44,
      "hit": false,
      "t": 33125.000000000044,
      "d": 119.79166666666424,
      "v": 82
    },
    {
      "midi": 56,
      "hit": false,
      "t": 33125.000000000044,
      "d": 307.2916666666715,
      "v": 90
    },
    {
      "midi": 44,
      "hit": false,
      "t": 33151.041666666744,
      "d": 119.79166666666424,
      "v": 65
    },
    {
      "midi": 53,
      "hit": false,
      "t": 33442.70833333337,
      "d": 57.29166666667152,
      "v": 105
    },
    {
      "midi": 41,
      "hit": false,
      "t": 33442.70833333337,
      "d": 119.79166666667152,
      "v": 82
    },
    {
      "midi": 53,
      "hit": false,
      "t": 33442.70833333338,
      "d": 307.29166666666424,
      "v": 90
    },
    {
      "midi": 77,
      "hit": false,
      "t": 33447.91666666663,
      "d": 145.83333333333576,
      "v": 83
    },
    {
      "midi": 80,
      "hit": false,
      "t": 33447.91666666663,
      "d": 145.83333333333576,
      "v": 83
    },
    {
      "midi": 56,
      "hit": false,
      "t": 33447.91666666671,
      "d": 57.29166666667152,
      "v": 105
    },
    {
      "midi": 53,
      "hit": false,
      "t": 33468.75000000007,
      "d": 57.29166666666424,
      "v": 105
    },
    {
      "midi": 56,
      "hit": false,
      "t": 33468.75000000007,
      "d": 57.29166666666424,
      "v": 105
    },
    {
      "midi": 41,
      "hit": false,
      "t": 33468.75000000007,
      "d": 119.79166666666424,
      "v": 65
    },
    {
      "midi": 37,
      "hit": false,
      "t": 33760.41666666671,
      "d": 119.79166666667152,
      "v": 82
    },
    {
      "midi": 53,
      "hit": false,
      "t": 33760.41666666671,
      "d": 145.83333333333576,
      "v": 105
    },
    {
      "midi": 49,
      "hit": false,
      "t": 33760.41666666671,
      "d": 307.29166666666424,
      "v": 90
    },
    {
      "midi": 77,
      "hit": false,
      "t": 33765.62499999996,
      "d": 145.83333333333576,
      "v": 83
    },
    {
      "midi": 56,
      "hit": false,
      "t": 33765.625000000044,
      "d": 145.83333333333576,
      "v": 105
    },
    {
      "midi": 80,
      "hit": false,
      "t": 33770.8333333333,
      "d": 140.625,
      "v": 83
    },
    {
      "midi": 37,
      "hit": false,
      "t": 33786.4583333334,
      "d": 119.79166666667152,
      "v": 65
    },
    {
      "midi": 53,
      "hit": false,
      "t": 33786.4583333334,
      "d": 151.04166666667152,
      "v": 105
    },
    {
      "midi": 56,
      "hit": false,
      "t": 33791.66666666674,
      "d": 145.83333333333576,
      "v": 105
    },
    {
      "midi": 39,
      "hit": false,
      "t": 34078.125000000044,
      "d": 119.79166666666424,
      "v": 82
    },
    {
      "midi": 51,
      "hit": false,
      "t": 34083.33333333337,
      "d": 307.29166666666424,
      "v": 90
    },
    {
      "midi": 39,
      "hit": false,
      "t": 34104.16666666674,
      "d": 119.79166666666424,
      "v": 65
    },
    {
      "midi": 54,
      "hit": false,
      "t": 34234.375000000044,
      "d": 57.29166666667152,
      "v": 105
    },
    {
      "midi": 58,
      "hit": false,
      "t": 34239.58333333338,
      "d": 57.29166666667152,
      "v": 105
    },
    {
      "midi": 54,
      "hit": false,
      "t": 34265.625000000065,
      "d": 57.29166666666424,
      "v": 105
    },
    {
      "midi": 58,
      "hit": false,
      "t": 34265.625000000065,
      "d": 57.29166666666424,
      "v": 105
    },
    {
      "midi": 78,
      "hit": false,
      "t": 34395.8333333333,
      "d": 151.04166666667152,
      "v": 83
    },
    {
      "midi": 82,
      "hit": false,
      "t": 34401.041666666635,
      "d": 145.83333333333576,
      "v": 83
    },
    {
      "midi": 54,
      "hit": false,
      "t": 34557.2916666667,
      "d": 546.875,
      "v": 90
    },
    {
      "midi": 42,
      "hit": false,
      "t": 34557.291666666715,
      "d": 119.79166666666424,
      "v": 82
    },
    {
      "midi": 42,
      "hit": false,
      "t": 34583.333333333394,
      "d": 119.79166666666424,
      "v": 65
    },
    {
      "midi": 54,
      "hit": false,
      "t": 34713.541666666715,
      "d": 151.04166666667152,
      "v": 105
    },
    {
      "midi": 78,
      "hit": false,
      "t": 34718.74999999997,
      "d": 145.83333333333576,
      "v": 83
    },
    {
      "midi": 58,
      "hit": false,
      "t": 34718.75000000005,
      "d": 145.83333333333576,
      "v": 105
    },
    {
      "midi": 82,
      "hit": false,
      "t": 34723.95833333331,
      "d": 145.83333333333576,
      "v": 83
    },
    {
      "midi": 54,
      "hit": false,
      "t": 34739.583333333394,
      "d": 151.04166666667152,
      "v": 105
    },
    {
      "midi": 58,
      "hit": false,
      "t": 34744.79166666673,
      "d": 145.83333333333576,
      "v": 105
    },
    {
      "midi": 58,
      "hit": false,
      "t": 34875.00000000004,
      "d": 151.04166666666424,
      "v": 90
    },
    {
      "midi": 46,
      "hit": false,
      "t": 34875.00000000005,
      "d": 57.29166666666424,
      "v": 82
    },
    {
      "midi": 46,
      "hit": false,
      "t": 34901.04166666673,
      "d": 57.29166666666424,
      "v": 65
    },
    {
      "midi": 56,
      "hit": false,
      "t": 35036.458333333365,
      "d": 307.2916666666715,
      "v": 90
    },
    {
      "midi": 44,
      "hit": false,
      "t": 35036.45833333338,
      "d": 119.79166666666424,
      "v": 82
    },
    {
      "midi": 44,
      "hit": false,
      "t": 35057.29166666673,
      "d": 119.79166666666424,
      "v": 65
    },
    {
      "midi": 41,
      "hit": false,
      "t": 35348.95833333338,
      "d": 119.7916666666788,
      "v": 82
    },
    {
      "midi": 53,
      "hit": false,
      "t": 35354.1666666667,
      "d": 307.29166666666424,
      "v": 90
    },
    {
      "midi": 53,
      "hit": false,
      "t": 35354.166666666715,
      "d": 57.29166666667152,
      "v": 105
    },
    {
      "midi": 77,
      "hit": false,
      "t": 35359.37499999998,
      "d": 145.83333333333576,
      "v": 83
    },
    {
      "midi": 80,
      "hit": false,
      "t": 35359.37499999998,
      "d": 145.83333333333576,
      "v": 83
    },
    {
      "midi": 56,
      "hit": false,
      "t": 35359.37500000005,
      "d": 57.29166666667152,
      "v": 105
    },
    {
      "midi": 53,
      "hit": false,
      "t": 35380.208333333394,
      "d": 57.29166666666424,
      "v": 105
    },
    {
      "midi": 56,
      "hit": false,
      "t": 35380.208333333394,
      "d": 57.29166666666424,
      "v": 105
    },
    {
      "midi": 41,
      "hit": false,
      "t": 35380.208333333394,
      "d": 119.79166666666424,
      "v": 65
    },
    {
      "midi": 49,
      "hit": false,
      "t": 35671.87500000003,
      "d": 307.29166666666424,
      "v": 90
    },
    {
      "midi": 37,
      "hit": false,
      "t": 35671.87500000006,
      "d": 119.79166666667152,
      "v": 82
    },
    {
      "midi": 53,
      "hit": false,
      "t": 35671.87500000006,
      "d": 145.83333333333576,
      "v": 105
    },
    {
      "midi": 77,
      "hit": false,
      "t": 35677.083333333314,
      "d": 145.83333333333576,
      "v": 83
    },
    {
      "midi": 80,
      "hit": false,
      "t": 35677.083333333314,
      "d": 145.83333333333576,
      "v": 83
    },
    {
      "midi": 56,
      "hit": false,
      "t": 35677.083333333394,
      "d": 145.83333333333576,
      "v": 105
    },
    {
      "midi": 37,
      "hit": false,
      "t": 35697.91666666672,
      "d": 119.79166666666424,
      "v": 65
    },
    {
      "midi": 53,
      "hit": false,
      "t": 35697.91666666672,
      "d": 145.83333333332848,
      "v": 105
    },
    {
      "midi": 56,
      "hit": false,
      "t": 35697.91666666672,
      "d": 151.04166666666424,
      "v": 105
    },
    {
      "midi": 51,
      "hit": false,
      "t": 35989.58333333336,
      "d": 307.29166666666424,
      "v": 90
    },
    {
      "midi": 39,
      "hit": false,
      "t": 35989.583333333394,
      "d": 119.79166666666424,
      "v": 82
    },
    {
      "midi": 39,
      "hit": false,
      "t": 36015.62500000005,
      "d": 119.79166666666424,
      "v": 65
    },
    {
      "midi": 54,
      "hit": false,
      "t": 36145.833333333394,
      "d": 57.29166666667152,
      "v": 105
    },
    {
      "midi": 58,
      "hit": false,
      "t": 36151.04166666673,
      "d": 57.29166666667152,
      "v": 105
    },
    {
      "midi": 54,
      "hit": false,
      "t": 36171.87500000005,
      "d": 57.29166666667152,
      "v": 105
    },
    {
      "midi": 58,
      "hit": false,
      "t": 36177.08333333339,
      "d": 57.29166666667152,
      "v": 105
    },
    {
      "midi": 78,
      "hit": false,
      "t": 36307.29166666665,
      "d": 72.91666666667152,
      "v": 83
    },
    {
      "midi": 82,
      "hit": false,
      "t": 36312.499999999985,
      "d": 67.70833333333576,
      "v": 83
    },
    {
      "midi": 42,
      "hit": false,
      "t": 36463.54166666674,
      "d": 119.79166666666424,
      "v": 82
    },
    {
      "midi": 54,
      "hit": false,
      "t": 36468.75000000002,
      "d": 546.875,
      "v": 90
    },
    {
      "midi": 42,
      "hit": false,
      "t": 36494.79166666672,
      "d": 119.79166666666424,
      "v": 65
    },
    {
      "midi": 54,
      "hit": false,
      "t": 36625.000000000065,
      "d": 151.04166666666424,
      "v": 105
    },
    {
      "midi": 58,
      "hit": false,
      "t": 36625.000000000065,
      "d": 151.04166666666424,
      "v": 105
    },
    {
      "midi": 78,
      "hit": false,
      "t": 36630.20833333332,
      "d": 145.83333333333576,
      "v": 83
    },
    {
      "midi": 82,
      "hit": false,
      "t": 36630.20833333332,
      "d": 145.83333333333576,
      "v": 83
    },
    {
      "midi": 54,
      "hit": false,
      "t": 36651.04166666672,
      "d": 151.04166666667152,
      "v": 105
    },
    {
      "midi": 58,
      "hit": false,
      "t": 36656.25000000006,
      "d": 145.83333333333576,
      "v": 105
    },
    {
      "midi": 58,
      "hit": false,
      "t": 36786.45833333336,
      "d": 151.04166666666424,
      "v": 90
    },
    {
      "midi": 46,
      "hit": false,
      "t": 36786.458333333394,
      "d": 57.29166666666424,
      "v": 82
    },
    {
      "midi": 46,
      "hit": false,
      "t": 36812.50000000006,
      "d": 57.29166666666424,
      "v": 65
    },
    {
      "midi": 56,
      "hit": false,
      "t": 36947.916666666686,
      "d": 307.2916666666715,
      "v": 90
    },
    {
      "midi": 44,
      "hit": false,
      "t": 36947.91666666672,
      "d": 119.79166666666424,
      "v": 82
    },
    {
      "midi": 44,
      "hit": false,
      "t": 36968.75000000006,
      "d": 119.79166666666424,
      "v": 65
    },
    {
      "midi": 41,
      "hit": false,
      "t": 37260.41666666672,
      "d": 119.79166666666424,
      "v": 82
    },
    {
      "midi": 53,
      "hit": false,
      "t": 37265.62500000002,
      "d": 307.29166666666424,
      "v": 90
    },
    {
      "midi": 53,
      "hit": false,
      "t": 37265.62500000006,
      "d": 57.29166666666424,
      "v": 105
    },
    {
      "midi": 56,
      "hit": false,
      "t": 37265.62500000006,
      "d": 57.29166666666424,
      "v": 105
    },
    {
      "midi": 77,
      "hit": false,
      "t": 37270.83333333332,
      "d": 145.83333333333576,
      "v": 83
    },
    {
      "midi": 80,
      "hit": false,
      "t": 37276.04166666666,
      "d": 140.625,
      "v": 83
    },
    {
      "midi": 41,
      "hit": false,
      "t": 37286.45833333339,
      "d": 119.79166666666424,
      "v": 65
    },
    {
      "midi": 53,
      "hit": false,
      "t": 37291.66666666672,
      "d": 57.29166666666424,
      "v": 105
    },
    {
      "midi": 56,
      "hit": false,
      "t": 37291.66666666672,
      "d": 57.29166666666424,
      "v": 105
    },
    {
      "midi": 49,
      "hit": false,
      "t": 37583.33333333335,
      "d": 307.29166666666424,
      "v": 90
    },
    {
      "midi": 37,
      "hit": false,
      "t": 37583.33333333339,
      "d": 119.79166666667152,
      "v": 82
    },
    {
      "midi": 53,
      "hit": false,
      "t": 37583.33333333339,
      "d": 145.83333333333576,
      "v": 105
    },
    {
      "midi": 77,
      "hit": false,
      "t": 37588.54166666666,
      "d": 140.625,
      "v": 83
    },
    {
      "midi": 80,
      "hit": false,
      "t": 37588.54166666666,
      "d": 145.83333333333576,
      "v": 83
    },
    {
      "midi": 56,
      "hit": false,
      "t": 37588.54166666672,
      "d": 145.83333333333576,
      "v": 105
    },
    {
      "midi": 37,
      "hit": false,
      "t": 37609.37500000005,
      "d": 119.79166666666424,
      "v": 65
    },
    {
      "midi": 53,
      "hit": false,
      "t": 37609.37500000005,
      "d": 145.83333333332848,
      "v": 105
    },
    {
      "midi": 56,
      "hit": false,
      "t": 37609.37500000005,
      "d": 151.04166666666424,
      "v": 105
    },
    {
      "midi": 51,
      "hit": false,
      "t": 37901.04166666668,
      "d": 307.29166666666424,
      "v": 90
    },
    {
      "midi": 39,
      "hit": false,
      "t": 37901.04166666672,
      "d": 119.79166666666424,
      "v": 82
    },
    {
      "midi": 39,
      "hit": false,
      "t": 37927.08333333338,
      "d": 119.79166666666424,
      "v": 65
    },
    {
      "midi": 54,
      "hit": false,
      "t": 38057.29166666672,
      "d": 57.29166666667152,
      "v": 105
    },
    {
      "midi": 58,
      "hit": false,
      "t": 38062.50000000006,
      "d": 57.29166666667152,
      "v": 105
    },
    {
      "midi": 54,
      "hit": false,
      "t": 38083.33333333338,
      "d": 57.29166666667152,
      "v": 105
    },
    {
      "midi": 58,
      "hit": false,
      "t": 38088.541666666715,
      "d": 57.29166666667152,
      "v": 105
    },
    {
      "midi": 78,
      "hit": false,
      "t": 38218.74999999999,
      "d": 151.04166666666424,
      "v": 83
    },
    {
      "midi": 82,
      "hit": false,
      "t": 38218.74999999999,
      "d": 151.04166666666424,
      "v": 83
    },
    {
      "midi": 42,
      "hit": false,
      "t": 38375.000000000065,
      "d": 119.79166666666424,
      "v": 82
    },
    {
      "midi": 54,
      "hit": false,
      "t": 38380.20833333334,
      "d": 546.875,
      "v": 90
    },
    {
      "midi": 42,
      "hit": false,
      "t": 38401.04166666672,
      "d": 119.79166666666424,
      "v": 65
    },
    {
      "midi": 54,
      "hit": false,
      "t": 38536.458333333394,
      "d": 151.04166666666424,
      "v": 105
    },
    {
      "midi": 58,
      "hit": false,
      "t": 38536.458333333394,
      "d": 151.04166666666424,
      "v": 105
    },
    {
      "midi": 78,
      "hit": false,
      "t": 38541.66666666666,
      "d": 145.83333333333576,
      "v": 83
    },
    {
      "midi": 82,
      "hit": false,
      "t": 38541.66666666666,
      "d": 145.83333333333576,
      "v": 83
    },
    {
      "midi": 54,
      "hit": false,
      "t": 38562.50000000005,
      "d": 151.04166666666424,
      "v": 105
    },
    {
      "midi": 58,
      "hit": false,
      "t": 38562.50000000005,
      "d": 151.04166666666424,
      "v": 105
    },
    {
      "midi": 46,
      "hit": false,
      "t": 38692.708333333394,
      "d": 57.29166666666424,
      "v": 82
    },
    {
      "midi": 58,
      "hit": false,
      "t": 38697.91666666668,
      "d": 151.04166666666424,
      "v": 90
    },
    {
      "midi": 46,
      "hit": false,
      "t": 38723.95833333338,
      "d": 57.29166666666424,
      "v": 65
    },
    {
      "midi": 44,
      "hit": false,
      "t": 38854.16666666672,
      "d": 119.79166666666424,
      "v": 82
    },
    {
      "midi": 56,
      "hit": false,
      "t": 38859.37500000001,
      "d": 307.2916666666715,
      "v": 90
    },
    {
      "midi": 44,
      "hit": false,
      "t": 38880.20833333338,
      "d": 119.79166666666424,
      "v": 65
    },
    {
      "midi": 41,
      "hit": false,
      "t": 39171.87500000005,
      "d": 119.79166666666424,
      "v": 82
    },
    {
      "midi": 53,
      "hit": false,
      "t": 39177.08333333334,
      "d": 307.29166666666424,
      "v": 90
    },
    {
      "midi": 53,
      "hit": false,
      "t": 39177.08333333339,
      "d": 57.29166666666424,
      "v": 105
    },
    {
      "midi": 56,
      "hit": false,
      "t": 39177.08333333339,
      "d": 57.29166666666424,
      "v": 105
    },
    {
      "midi": 77,
      "hit": false,
      "t": 39182.29166666666,
      "d": 145.83333333333576,
      "v": 83
    },
    {
      "midi": 80,
      "hit": false,
      "t": 39182.29166666666,
      "d": 145.83333333333576,
      "v": 83
    },
    {
      "midi": 41,
      "hit": false,
      "t": 39197.91666666671,
      "d": 119.79166666666424,
      "v": 65
    },
    {
      "midi": 53,
      "hit": false,
      "t": 39203.125000000044,
      "d": 57.29166666666424,
      "v": 105
    },
    {
      "midi": 56,
      "hit": false,
      "t": 39203.125000000044,
      "d": 57.29166666666424,
      "v": 105
    },
    {
      "midi": 37,
      "hit": false,
      "t": 39489.58333333338,
      "d": 119.79166666667152,
      "v": 82
    },
    {
      "midi": 49,
      "hit": false,
      "t": 39494.79166666667,
      "d": 307.29166666666424,
      "v": 90
    },
    {
      "midi": 53,
      "hit": false,
      "t": 39494.791666666715,
      "d": 145.83333333333576,
      "v": 105
    },
    {
      "midi": 56,
      "hit": false,
      "t": 39494.791666666715,
      "d": 145.83333333333576,
      "v": 105
    },
    {
      "midi": 77,
      "hit": false,
      "t": 39499.99999999999,
      "d": 140.625,
      "v": 83
    },
    {
      "midi": 80,
      "hit": false,
      "t": 39499.99999999999,
      "d": 140.625,
      "v": 83
    },
    {
      "midi": 37,
      "hit": false,
      "t": 39515.62500000004,
      "d": 119.79166666667152,
      "v": 65
    },
    {
      "midi": 53,
      "hit": false,
      "t": 39520.83333333337,
      "d": 145.83333333333576,
      "v": 105
    },
    {
      "midi": 56,
      "hit": false,
      "t": 39520.83333333337,
      "d": 145.83333333333576,
      "v": 105
    },
    {
      "midi": 39,
      "hit": false,
      "t": 39812.50000000005,
      "d": 119.79166666666424,
      "v": 82
    },
    {
      "midi": 51,
      "hit": false,
      "t": 39817.708333333336,
      "d": 302.08333333333576,
      "v": 90
    },
    {
      "midi": 39,
      "hit": false,
      "t": 39838.54166666671,
      "d": 119.79166666666424,
      "v": 65
    },
    {
      "midi": 54,
      "hit": false,
      "t": 39968.75000000005,
      "d": 57.29166666666424,
      "v": 105
    },
    {
      "midi": 58,
      "hit": false,
      "t": 39968.75000000005,
      "d": 57.29166666666424,
      "v": 105
    },
    {
      "midi": 54,
      "hit": false,
      "t": 39994.79166666671,
      "d": 57.29166666667152,
      "v": 105
    },
    {
      "midi": 58,
      "hit": false,
      "t": 40000.000000000044,
      "d": 57.29166666667152,
      "v": 105
    },
    {
      "midi": 78,
      "hit": false,
      "t": 40130.20833333333,
      "d": 67.70833333333576,
      "v": 83
    },
    {
      "midi": 82,
      "hit": false,
      "t": 40130.20833333333,
      "d": 67.70833333333576,
      "v": 83
    },
    {
      "midi": 42,
      "hit": false,
      "t": 40286.45833333338,
      "d": 119.79166666666424,
      "v": 82
    },
    {
      "midi": 54,
      "hit": false,
      "t": 40291.66666666667,
      "d": 546.8750000000073,
      "v": 90
    },
    {
      "midi": 42,
      "hit": false,
      "t": 40312.50000000005,
      "d": 119.79166666666424,
      "v": 65
    },
    {
      "midi": 54,
      "hit": false,
      "t": 40447.91666666671,
      "d": 151.04166666666424,
      "v": 105
    },
    {
      "midi": 58,
      "hit": false,
      "t": 40447.91666666671,
      "d": 151.04166666666424,
      "v": 105
    },
    {
      "midi": 78,
      "hit": false,
      "t": 40453.125,
      "d": 145.83333333333576,
      "v": 83
    },
    {
      "midi": 82,
      "hit": false,
      "t": 40453.125,
      "d": 145.83333333333576,
      "v": 83
    },
    {
      "midi": 54,
      "hit": false,
      "t": 40473.95833333338,
      "d": 151.04166666666424,
      "v": 105
    },
    {
      "midi": 58,
      "hit": false,
      "t": 40473.95833333338,
      "d": 151.04166666666424,
      "v": 105
    },
    {
      "midi": 46,
      "hit": false,
      "t": 40604.16666666671,
      "d": 57.29166666666424,
      "v": 82
    },
    {
      "midi": 58,
      "hit": false,
      "t": 40609.37500000001,
      "d": 145.83333333333576,
      "v": 90
    },
    {
      "midi": 46,
      "hit": false,
      "t": 40630.20833333338,
      "d": 57.29166666666424,
      "v": 65
    },
    {
      "midi": 44,
      "hit": false,
      "t": 40765.62500000004,
      "d": 119.79166666666424,
      "v": 82
    },
    {
      "midi": 56,
      "hit": false,
      "t": 40770.83333333334,
      "d": 307.2916666666715,
      "v": 90
    },
    {
      "midi": 44,
      "hit": false,
      "t": 40791.66666666671,
      "d": 119.79166666666424,
      "v": 65
    },
    {
      "midi": 53,
      "hit": false,
      "t": 41083.33333333335,
      "d": 312.5,
      "v": 90
    },
    {
      "midi": 41,
      "hit": false,
      "t": 41083.333333333365,
      "d": 119.79166666666424,
      "v": 82
    },
    {
      "midi": 77,
      "hit": false,
      "t": 41088.54166666667,
      "d": 145.83333333333576,
      "v": 83
    },
    {
      "midi": 53,
      "hit": false,
      "t": 41088.5416666667,
      "d": 57.29166666666424,
      "v": 105
    },
    {
      "midi": 56,
      "hit": false,
      "t": 41088.5416666667,
      "d": 57.29166666666424,
      "v": 105
    },
    {
      "midi": 80,
      "hit": false,
      "t": 41093.75000000001,
      "d": 145.83333333333576,
      "v": 83
    },
    {
      "midi": 41,
      "hit": false,
      "t": 41109.37500000004,
      "d": 119.79166666666424,
      "v": 65
    },
    {
      "midi": 53,
      "hit": false,
      "t": 41114.58333333337,
      "d": 57.29166666666424,
      "v": 105
    },
    {
      "midi": 56,
      "hit": false,
      "t": 41114.58333333337,
      "d": 57.29166666666424,
      "v": 105
    },
    {
      "midi": 37,
      "hit": false,
      "t": 41401.04166666669,
      "d": 119.79166666667152,
      "v": 82
    },
    {
      "midi": 49,
      "hit": false,
      "t": 41406.250000000015,
      "d": 307.29166666666424,
      "v": 90
    },
    {
      "midi": 53,
      "hit": false,
      "t": 41406.25000000003,
      "d": 145.83333333333576,
      "v": 105
    },
    {
      "midi": 56,
      "hit": false,
      "t": 41406.25000000003,
      "d": 145.83333333333576,
      "v": 105
    },
    {
      "midi": 77,
      "hit": false,
      "t": 41411.45833333334,
      "d": 140.625,
      "v": 83
    },
    {
      "midi": 80,
      "hit": false,
      "t": 41411.45833333334,
      "d": 140.625,
      "v": 83
    },
    {
      "midi": 37,
      "hit": false,
      "t": 41427.083333333365,
      "d": 119.79166666667152,
      "v": 65
    },
    {
      "midi": 53,
      "hit": false,
      "t": 41432.2916666667,
      "d": 145.83333333333576,
      "v": 105
    },
    {
      "midi": 56,
      "hit": false,
      "t": 41432.2916666667,
      "d": 145.83333333333576,
      "v": 105
    },
    {
      "midi": 39,
      "hit": false,
      "t": 41718.75000000003,
      "d": 119.79166666666424,
      "v": 82
    },
    {
      "midi": 51,
      "hit": false,
      "t": 41723.95833333334,
      "d": 307.29166666666424,
      "v": 90
    },
    {
      "midi": 39,
      "hit": false,
      "t": 41750.00000000004,
      "d": 119.79166666666424,
      "v": 65
    },
    {
      "midi": 54,
      "hit": false,
      "t": 41880.20833333336,
      "d": 57.29166666666424,
      "v": 105
    },
    {
      "midi": 58,
      "hit": false,
      "t": 41880.20833333336,
      "d": 57.29166666666424,
      "v": 105
    },
    {
      "midi": 54,
      "hit": false,
      "t": 41906.25000000004,
      "d": 57.29166666667152,
      "v": 105
    },
    {
      "midi": 58,
      "hit": false,
      "t": 41911.45833333337,
      "d": 57.29166666667152,
      "v": 105
    },
    {
      "midi": 78,
      "hit": false,
      "t": 42041.66666666668,
      "d": 145.83333333333576,
      "v": 83
    },
    {
      "midi": 82,
      "hit": false,
      "t": 42041.66666666668,
      "d": 151.04166666667152,
      "v": 83
    },
    {
      "midi": 42,
      "hit": false,
      "t": 42197.916666666686,
      "d": 119.79166666666424,
      "v": 82
    },
    {
      "midi": 54,
      "hit": false,
      "t": 42203.12500000001,
      "d": 541.6666666666715,
      "v": 90
    },
    {
      "midi": 42,
      "hit": false,
      "t": 42223.95833333338,
      "d": 119.79166666666424,
      "v": 65
    },
    {
      "midi": 54,
      "hit": false,
      "t": 42359.375000000015,
      "d": 151.04166666666424,
      "v": 105
    },
    {
      "midi": 58,
      "hit": false,
      "t": 42359.375000000015,
      "d": 151.04166666666424,
      "v": 105
    },
    {
      "midi": 78,
      "hit": false,
      "t": 42364.58333333335,
      "d": 145.83333333333576,
      "v": 83
    },
    {
      "midi": 82,
      "hit": false,
      "t": 42364.58333333335,
      "d": 145.83333333333576,
      "v": 83
    },
    {
      "midi": 54,
      "hit": false,
      "t": 42385.41666666671,
      "d": 151.04166666666424,
      "v": 105
    },
    {
      "midi": 58,
      "hit": false,
      "t": 42385.41666666671,
      "d": 151.04166666666424,
      "v": 105
    },
    {
      "midi": 46,
      "hit": false,
      "t": 42515.625000000015,
      "d": 57.29166666666424,
      "v": 82
    },
    {
      "midi": 58,
      "hit": false,
      "t": 42520.83333333334,
      "d": 145.83333333333576,
      "v": 90
    },
    {
      "midi": 46,
      "hit": false,
      "t": 42541.66666666671,
      "d": 57.29166666666424,
      "v": 65
    },
    {
      "midi": 44,
      "hit": false,
      "t": 42677.08333333334,
      "d": 119.79166666666424,
      "v": 82
    },
    {
      "midi": 56,
      "hit": false,
      "t": 42682.29166666668,
      "d": 307.29166666666424,
      "v": 90
    },
    {
      "midi": 44,
      "hit": false,
      "t": 42703.12500000004,
      "d": 119.79166666666424,
      "v": 65
    },
    {
      "midi": 41,
      "hit": false,
      "t": 42994.79166666667,
      "d": 119.79166666666424,
      "v": 82
    },
    {
      "midi": 53,
      "hit": false,
      "t": 42994.79166666668,
      "d": 312.5,
      "v": 90
    },
    {
      "midi": 53,
      "hit": false,
      "t": 43000.00000000001,
      "d": 57.29166666666424,
      "v": 105
    },
    {
      "midi": 56,
      "hit": false,
      "t": 43000.00000000001,
      "d": 57.29166666666424,
      "v": 105
    },
    {
      "midi": 77,
      "hit": false,
      "t": 43000.00000000002,
      "d": 145.83333333333576,
      "v": 83
    },
    {
      "midi": 80,
      "hit": false,
      "t": 43005.20833333336,
      "d": 145.83333333333576,
      "v": 83
    },
    {
      "midi": 41,
      "hit": false,
      "t": 43020.833333333365,
      "d": 119.79166666666424,
      "v": 65
    },
    {
      "midi": 53,
      "hit": false,
      "t": 43026.0416666667,
      "d": 57.29166666666424,
      "v": 105
    },
    {
      "midi": 56,
      "hit": false,
      "t": 43026.0416666667,
      "d": 57.29166666666424,
      "v": 105
    },
    {
      "midi": 37,
      "hit": false,
      "t": 43312.5,
      "d": 119.79166666667152,
      "v": 82
    },
    {
      "midi": 53,
      "hit": false,
      "t": 43317.708333333336,
      "d": 145.83333333333576,
      "v": 105
    },
    {
      "midi": 56,
      "hit": false,
      "t": 43317.708333333336,
      "d": 145.83333333333576,
      "v": 105
    },
    {
      "midi": 49,
      "hit": false,
      "t": 43317.70833333334,
      "d": 307.29166666666424,
      "v": 90
    },
    {
      "midi": 77,
      "hit": false,
      "t": 43322.91666666669,
      "d": 140.625,
      "v": 83
    },
    {
      "midi": 80,
      "hit": false,
      "t": 43322.91666666669,
      "d": 140.625,
      "v": 83
    },
    {
      "midi": 37,
      "hit": false,
      "t": 43338.54166666669,
      "d": 119.79166666667152,
      "v": 65
    },
    {
      "midi": 53,
      "hit": false,
      "t": 43343.75000000003,
      "d": 145.83333333333576,
      "v": 105
    },
    {
      "midi": 56,
      "hit": false,
      "t": 43343.75000000003,
      "d": 145.83333333333576,
      "v": 105
    },
    {
      "midi": 39,
      "hit": false,
      "t": 43630.208333333336,
      "d": 119.79166666666424,
      "v": 82
    },
    {
      "midi": 51,
      "hit": false,
      "t": 43635.41666666667,
      "d": 307.29166666666424,
      "v": 90
    },
    {
      "midi": 39,
      "hit": false,
      "t": 43656.25000000003,
      "d": 119.79166666666424,
      "v": 65
    },
    {
      "midi": 54,
      "hit": false,
      "t": 43791.666666666664,
      "d": 57.29166666666424,
      "v": 105
    },
    {
      "midi": 58,
      "hit": false,
      "t": 43791.666666666664,
      "d": 57.29166666666424,
      "v": 105
    },
    {
      "midi": 54,
      "hit": false,
      "t": 43817.70833333336,
      "d": 57.29166666666424,
      "v": 105
    },
    {
      "midi": 58,
      "hit": false,
      "t": 43817.70833333336,
      "d": 57.29166666666424,
      "v": 105
    },
    {
      "midi": 78,
      "hit": false,
      "t": 43953.12500000003,
      "d": 67.70833333333576,
      "v": 83
    },
    {
      "midi": 82,
      "hit": false,
      "t": 43953.12500000003,
      "d": 67.70833333333576,
      "v": 83
    },
    {
      "midi": 42,
      "hit": false,
      "t": 44114.58333333333,
      "d": 119.79166666666424,
      "v": 82
    },
    {
      "midi": 54,
      "hit": false,
      "t": 44114.583333333336,
      "d": 541.6666666666715,
      "v": 90
    },
    {
      "midi": 42,
      "hit": false,
      "t": 44135.416666666686,
      "d": 119.79166666666424,
      "v": 65
    },
    {
      "midi": 54,
      "hit": false,
      "t": 44270.83333333333,
      "d": 151.04166666667152,
      "v": 105
    },
    {
      "midi": 58,
      "hit": false,
      "t": 44276.041666666664,
      "d": 145.83333333333576,
      "v": 105
    },
    {
      "midi": 78,
      "hit": false,
      "t": 44276.0416666667,
      "d": 145.83333333333576,
      "v": 83
    },
    {
      "midi": 82,
      "hit": false,
      "t": 44276.0416666667,
      "d": 145.83333333333576,
      "v": 83
    },
    {
      "midi": 54,
      "hit": false,
      "t": 44296.875000000015,
      "d": 145.83333333333576,
      "v": 105
    },
    {
      "midi": 58,
      "hit": false,
      "t": 44296.875000000015,
      "d": 151.04166666667152,
      "v": 105
    },
    {
      "midi": 46,
      "hit": false,
      "t": 44427.083333333336,
      "d": 57.29166666666424,
      "v": 82
    },
    {
      "midi": 58,
      "hit": false,
      "t": 44432.29166666667,
      "d": 145.83333333333576,
      "v": 90
    },
    {
      "midi": 46,
      "hit": false,
      "t": 44453.12500000002,
      "d": 57.29166666666424,
      "v": 65
    },
    {
      "midi": 44,
      "hit": false,
      "t": 44588.541666666664,
      "d": 119.79166666666424,
      "v": 82
    },
    {
      "midi": 56,
      "hit": false,
      "t": 44588.54166666667,
      "d": 307.2916666666715,
      "v": 90
    },
    {
      "midi": 44,
      "hit": false,
      "t": 44614.58333333335,
      "d": 119.79166666666424,
      "v": 65
    },
    {
      "midi": 41,
      "hit": false,
      "t": 44906.24999999999,
      "d": 119.79166666666424,
      "v": 82
    },
    {
      "midi": 53,
      "hit": false,
      "t": 44906.25000000001,
      "d": 312.5,
      "v": 90
    },
    {
      "midi": 53,
      "hit": false,
      "t": 44911.45833333333,
      "d": 57.29166666666424,
      "v": 105
    },
    {
      "midi": 56,
      "hit": false,
      "t": 44911.45833333333,
      "d": 57.29166666666424,
      "v": 105
    },
    {
      "midi": 77,
      "hit": false,
      "t": 44911.45833333337,
      "d": 145.83333333333576,
      "v": 83
    },
    {
      "midi": 80,
      "hit": false,
      "t": 44916.66666666671,
      "d": 140.625,
      "v": 83
    },
    {
      "midi": 53,
      "hit": false,
      "t": 44932.29166666668,
      "d": 57.29166666667152,
      "v": 105
    },
    {
      "midi": 41,
      "hit": false,
      "t": 44932.29166666668,
      "d": 119.79166666667152,
      "v": 65
    },
    {
      "midi": 56,
      "hit": false,
      "t": 44937.500000000015,
      "d": 57.29166666667152,
      "v": 105
    },
    {
      "midi": 37,
      "hit": false,
      "t": 45223.95833333332,
      "d": 119.79166666667152,
      "v": 82
    },
    {
      "midi": 49,
      "hit": false,
      "t": 45223.95833333334,
      "d": 312.5,
      "v": 90
    },
    {
      "midi": 53,
      "hit": false,
      "t": 45229.16666666666,
      "d": 145.83333333333576,
      "v": 105
    },
    {
      "midi": 56,
      "hit": false,
      "t": 45229.16666666666,
      "d": 145.83333333333576,
      "v": 105
    },
    {
      "midi": 77,
      "hit": false,
      "t": 45229.16666666671,
      "d": 145.83333333333576,
      "v": 83
    },
    {
      "midi": 80,
      "hit": false,
      "t": 45234.375000000044,
      "d": 140.625,
      "v": 83
    },
    {
      "midi": 37,
      "hit": false,
      "t": 45250.000000000015,
      "d": 119.79166666667152,
      "v": 65
    },
    {
      "midi": 53,
      "hit": false,
      "t": 45255.20833333335,
      "d": 145.83333333333576,
      "v": 105
    },
    {
      "midi": 56,
      "hit": false,
      "t": 45255.20833333335,
      "d": 145.83333333333576,
      "v": 105
    },
    {
      "midi": 39,
      "hit": false,
      "t": 45541.66666666666,
      "d": 119.79166666666424,
      "v": 82
    },
    {
      "midi": 51,
      "hit": false,
      "t": 45546.87500000001,
      "d": 307.29166666666424,
      "v": 90
    },
    {
      "midi": 39,
      "hit": false,
      "t": 45567.70833333335,
      "d": 119.79166666666424,
      "v": 65
    },
    {
      "midi": 54,
      "hit": false,
      "t": 45703.124999999985,
      "d": 57.29166666666424,
      "v": 105
    },
    {
      "midi": 58,
      "hit": false,
      "t": 45703.124999999985,
      "d": 57.29166666666424,
      "v": 105
    },
    {
      "midi": 54,
      "hit": false,
      "t": 45729.16666666668,
      "d": 57.29166666666424,
      "v": 105
    },
    {
      "midi": 58,
      "hit": false,
      "t": 45729.16666666668,
      "d": 57.29166666666424,
      "v": 105
    },
    {
      "midi": 78,
      "hit": false,
      "t": 45859.375000000044,
      "d": 151.04166666667152,
      "v": 83
    },
    {
      "midi": 82,
      "hit": false,
      "t": 45864.58333333338,
      "d": 145.83333333333576,
      "v": 83
    },
    {
      "midi": 42,
      "hit": false,
      "t": 46020.833333333314,
      "d": 119.79166666666424,
      "v": 82
    },
    {
      "midi": 54,
      "hit": false,
      "t": 46020.833333333336,
      "d": 546.875,
      "v": 90
    },
    {
      "midi": 42,
      "hit": false,
      "t": 46046.87500000001,
      "d": 119.79166666666424,
      "v": 65
    },
    {
      "midi": 54,
      "hit": false,
      "t": 46177.083333333314,
      "d": 151.04166666667152,
      "v": 105
    },
    {
      "midi": 58,
      "hit": false,
      "t": 46182.29166666665,
      "d": 151.04166666667152,
      "v": 105
    },
    {
      "midi": 78,
      "hit": false,
      "t": 46182.291666666715,
      "d": 151.04166666667152,
      "v": 83
    },
    {
      "midi": 82,
      "hit": false,
      "t": 46187.50000000005,
      "d": 145.83333333333576,
      "v": 83
    },
    {
      "midi": 54,
      "hit": false,
      "t": 46208.333333333336,
      "d": 145.83333333333576,
      "v": 105
    },
    {
      "midi": 58,
      "hit": false,
      "t": 46208.333333333336,
      "d": 151.04166666667152,
      "v": 105
    },
    {
      "midi": 46,
      "hit": false,
      "t": 46338.54166666666,
      "d": 57.29166666666424,
      "v": 82
    },
    {
      "midi": 58,
      "hit": false,
      "t": 46338.54166666667,
      "d": 151.04166666666424,
      "v": 90
    },
    {
      "midi": 46,
      "hit": false,
      "t": 46364.58333333334,
      "d": 57.29166666666424,
      "v": 65
    },
    {
      "midi": 44,
      "hit": false,
      "t": 46499.999999999985,
      "d": 119.79166666666424,
      "v": 82
    },
    {
      "midi": 56,
      "hit": false,
      "t": 46500,
      "d": 307.2916666666715,
      "v": 90
    },
    {
      "midi": 44,
      "hit": false,
      "t": 46526.04166666667,
      "d": 119.79166666666424,
      "v": 65
    },
    {
      "midi": 53,
      "hit": false,
      "t": 46817.708333333314,
      "d": 57.29166666667152,
      "v": 105
    },
    {
      "midi": 41,
      "hit": false,
      "t": 46817.708333333314,
      "d": 119.79166666667152,
      "v": 82
    },
    {
      "midi": 53,
      "hit": false,
      "t": 46817.708333333336,
      "d": 307.29166666666424,
      "v": 90
    },
    {
      "midi": 56,
      "hit": false,
      "t": 46822.91666666665,
      "d": 57.29166666667152,
      "v": 105
    },
    {
      "midi": 77,
      "hit": false,
      "t": 46822.91666666672,
      "d": 145.83333333333576,
      "v": 83
    },
    {
      "midi": 80,
      "hit": false,
      "t": 46828.12500000006,
      "d": 140.625,
      "v": 83
    },
    {
      "midi": 53,
      "hit": false,
      "t": 46843.75,
      "d": 57.29166666667152,
      "v": 105
    },
    {
      "midi": 41,
      "hit": false,
      "t": 46843.75,
      "d": 119.79166666667152,
      "v": 65
    },
    {
      "midi": 56,
      "hit": false,
      "t": 46848.958333333336,
      "d": 57.29166666667152,
      "v": 105
    },
    {
      "midi": 37,
      "hit": false,
      "t": 47135.41666666665,
      "d": 119.79166666667152,
      "v": 82
    },
    {
      "midi": 49,
      "hit": false,
      "t": 47135.416666666664,
      "d": 312.5,
      "v": 90
    },
    {
      "midi": 53,
      "hit": false,
      "t": 47140.624999999985,
      "d": 145.83333333333576,
      "v": 105
    },
    {
      "midi": 56,
      "hit": false,
      "t": 47140.624999999985,
      "d": 145.83333333333576,
      "v": 105
    },
    {
      "midi": 77,
      "hit": false,
      "t": 47140.62500000006,
      "d": 145.83333333333576,
      "v": 83
    },
    {
      "midi": 80,
      "hit": false,
      "t": 47145.833333333394,
      "d": 140.625,
      "v": 83
    },
    {
      "midi": 37,
      "hit": false,
      "t": 47161.458333333336,
      "d": 119.79166666667152,
      "v": 65
    },
    {
      "midi": 53,
      "hit": false,
      "t": 47161.458333333336,
      "d": 151.04166666667152,
      "v": 105
    },
    {
      "midi": 56,
      "hit": false,
      "t": 47166.66666666667,
      "d": 145.83333333333576,
      "v": 105
    },
    {
      "midi": 39,
      "hit": false,
      "t": 47458.33333333332,
      "d": 119.79166666666424,
      "v": 82
    },
    {
      "midi": 51,
      "hit": false,
      "t": 47458.33333333333,
      "d": 307.29166666666424,
      "v": 90
    },
    {
      "midi": 39,
      "hit": false,
      "t": 47479.16666666667,
      "d": 119.79166666666424,
      "v": 65
    },
    {
      "midi": 54,
      "hit": false,
      "t": 47614.58333333332,
      "d": 57.29166666666424,
      "v": 105
    },
    {
      "midi": 58,
      "hit": false,
      "t": 47614.58333333332,
      "d": 57.29166666666424,
      "v": 105
    },
    {
      "midi": 54,
      "hit": false,
      "t": 47640.625,
      "d": 57.29166666666424,
      "v": 105
    },
    {
      "midi": 58,
      "hit": false,
      "t": 47640.625,
      "d": 57.29166666666424,
      "v": 105
    },
    {
      "midi": 78,
      "hit": false,
      "t": 47770.833333333394,
      "d": 72.91666666667152,
      "v": 83
    },
    {
      "midi": 82,
      "hit": false,
      "t": 47776.04166666673,
      "d": 67.70833333333576,
      "v": 83
    },
    {
      "midi": 42,
      "hit": false,
      "t": 47932.29166666665,
      "d": 119.79166666666424,
      "v": 82
    },
    {
      "midi": 54,
      "hit": false,
      "t": 47932.29166666666,
      "d": 546.875,
      "v": 90
    },
    {
      "midi": 42,
      "hit": false,
      "t": 47958.33333333333,
      "d": 119.79166666666424,
      "v": 65
    },
    {
      "midi": 54,
      "hit": false,
      "t": 48088.54166666665,
      "d": 151.04166666667152,
      "v": 105
    },
    {
      "midi": 58,
      "hit": false,
      "t": 48093.749999999985,
      "d": 151.04166666667152,
      "v": 105
    },
    {
      "midi": 78,
      "hit": false,
      "t": 48093.750000000065,
      "d": 145.83333333333576,
      "v": 83
    },
    {
      "midi": 82,
      "hit": false,
      "t": 48093.750000000065,
      "d": 151.04166666667152,
      "v": 83
    },
    {
      "midi": 54,
      "hit": false,
      "t": 48114.58333333333,
      "d": 151.04166666667152,
      "v": 105
    },
    {
      "midi": 58,
      "hit": false,
      "t": 48119.791666666664,
      "d": 145.83333333333576,
      "v": 105
    },
    {
      "midi": 46,
      "hit": false,
      "t": 48249.99999999999,
      "d": 57.29166666666424,
      "v": 82
    },
    {
      "midi": 58,
      "hit": false,
      "t": 48249.99999999999,
      "d": 151.04166666666424,
      "v": 90
    },
    {
      "midi": 46,
      "hit": false,
      "t": 48276.041666666664,
      "d": 57.29166666666424,
      "v": 65
    },
    {
      "midi": 44,
      "hit": false,
      "t": 48411.45833333332,
      "d": 119.79166666666424,
      "v": 82
    },
    {
      "midi": 56,
      "hit": false,
      "t": 48411.45833333332,
      "d": 307.2916666666715,
      "v": 90
    },
    {
      "midi": 44,
      "hit": false,
      "t": 48437.49999999999,
      "d": 119.79166666666424,
      "v": 65
    },
    {
      "midi": 53,
      "hit": false,
      "t": 48729.16666666665,
      "d": 57.29166666667152,
      "v": 105
    },
    {
      "midi": 41,
      "hit": false,
      "t": 48729.16666666665,
      "d": 119.79166666667152,
      "v": 82
    },
    {
      "midi": 53,
      "hit": false,
      "t": 48729.16666666666,
      "d": 307.29166666666424,
      "v": 90
    },
    {
      "midi": 56,
      "hit": false,
      "t": 48734.374999999985,
      "d": 57.29166666667152,
      "v": 105
    },
    {
      "midi": 77,
      "hit": false,
      "t": 48734.37500000007,
      "d": 145.83333333333576,
      "v": 83
    },
    {
      "midi": 80,
      "hit": false,
      "t": 48734.37500000007,
      "d": 145.83333333333576,
      "v": 83
    },
    {
      "midi": 53,
      "hit": false,
      "t": 48755.20833333332,
      "d": 57.29166666666424,
      "v": 105
    },
    {
      "midi": 56,
      "hit": false,
      "t": 48755.20833333332,
      "d": 57.29166666666424,
      "v": 105
    },
    {
      "midi": 41,
      "hit": false,
      "t": 48755.20833333332,
      "d": 119.79166666666424,
      "v": 65
    },
    {
      "midi": 37,
      "hit": false,
      "t": 49046.874999999985,
      "d": 119.79166666667152,
      "v": 82
    },
    {
      "midi": 53,
      "hit": false,
      "t": 49046.874999999985,
      "d": 119.79166666667152,
      "v": 105
    },
    {
      "midi": 49,
      "hit": false,
      "t": 49046.874999999985,
      "d": 307.29166666666424,
      "v": 90
    },
    {
      "midi": 56,
      "hit": false,
      "t": 49052.08333333332,
      "d": 119.79166666667152,
      "v": 105
    },
    {
      "midi": 77,
      "hit": false,
      "t": 49052.08333333341,
      "d": 145.83333333333576,
      "v": 83
    },
    {
      "midi": 80,
      "hit": false,
      "t": 49057.291666666744,
      "d": 140.625,
      "v": 83
    },
    {
      "midi": 37,
      "hit": false,
      "t": 49072.91666666665,
      "d": 119.79166666667152,
      "v": 65
    },
    {
      "midi": 53,
      "hit": false,
      "t": 49072.91666666665,
      "d": 119.79166666667152,
      "v": 105
    },
    {
      "midi": 56,
      "hit": false,
      "t": 49078.124999999985,
      "d": 119.79166666667152,
      "v": 105
    },
    {
      "midi": 39,
      "hit": false,
      "t": 49364.58333333333,
      "d": 119.79166666666424,
      "v": 82
    },
    {
      "midi": 51,
      "hit": false,
      "t": 49369.79166666665,
      "d": 307.29166666666424,
      "v": 90
    },
    {
      "midi": 39,
      "hit": false,
      "t": 49390.62499999999,
      "d": 119.79166666666424,
      "v": 65
    },
    {
      "midi": 54,
      "hit": false,
      "t": 49520.83333333333,
      "d": 57.29166666667152,
      "v": 105
    },
    {
      "midi": 58,
      "hit": false,
      "t": 49526.041666666664,
      "d": 57.29166666667152,
      "v": 105
    },
    {
      "midi": 54,
      "hit": false,
      "t": 49552.08333333332,
      "d": 57.29166666666424,
      "v": 105
    },
    {
      "midi": 58,
      "hit": false,
      "t": 49552.08333333332,
      "d": 57.29166666666424,
      "v": 105
    },
    {
      "midi": 78,
      "hit": false,
      "t": 49682.291666666744,
      "d": 151.04166666667152,
      "v": 83
    },
    {
      "midi": 82,
      "hit": false,
      "t": 49687.50000000008,
      "d": 145.83333333333576,
      "v": 83
    },
    {
      "midi": 54,
      "hit": false,
      "t": 49843.74999999998,
      "d": 546.875,
      "v": 90
    },
    {
      "midi": 42,
      "hit": false,
      "t": 49843.75,
      "d": 119.79166666666424,
      "v": 82
    },
    {
      "midi": 42,
      "hit": false,
      "t": 49869.79166666665,
      "d": 119.79166666666424,
      "v": 65
    },
    {
      "midi": 54,
      "hit": false,
      "t": 50000,
      "d": 151.04166666667152,
      "v": 105
    },
    {
      "midi": 58,
      "hit": false,
      "t": 50005.208333333336,
      "d": 145.83333333333576,
      "v": 105
    },
    {
      "midi": 78,
      "hit": false,
      "t": 50005.208333333416,
      "d": 145.83333333333576,
      "v": 83
    },
    {
      "midi": 82,
      "hit": false,
      "t": 50010.41666666675,
      "d": 145.83333333333576,
      "v": 83
    },
    {
      "midi": 54,
      "hit": false,
      "t": 50026.04166666665,
      "d": 151.04166666667152,
      "v": 105
    },
    {
      "midi": 58,
      "hit": false,
      "t": 50031.249999999985,
      "d": 145.83333333333576,
      "v": 105
    },
    {
      "midi": 58,
      "hit": false,
      "t": 50161.458333333314,
      "d": 151.04166666666424,
      "v": 90
    },
    {
      "midi": 46,
      "hit": false,
      "t": 50161.458333333336,
      "d": 57.29166666666424,
      "v": 82
    },
    {
      "midi": 46,
      "hit": false,
      "t": 50187.499999999985,
      "d": 57.29166666666424,
      "v": 65
    },
    {
      "midi": 56,
      "hit": false,
      "t": 50322.91666666664,
      "d": 307.2916666666715,
      "v": 90
    },
    {
      "midi": 44,
      "hit": false,
      "t": 50322.916666666664,
      "d": 119.79166666666424,
      "v": 82
    },
    {
      "midi": 44,
      "hit": false,
      "t": 50343.749999999985,
      "d": 119.79166666666424,
      "v": 65
    },
    {
      "midi": 41,
      "hit": false,
      "t": 50635.416666666664,
      "d": 119.7916666666788,
      "v": 82
    },
    {
      "midi": 53,
      "hit": false,
      "t": 50640.62499999998,
      "d": 307.29166666666424,
      "v": 90
    },
    {
      "midi": 53,
      "hit": false,
      "t": 50640.625,
      "d": 57.29166666667152,
      "v": 105
    },
    {
      "midi": 56,
      "hit": false,
      "t": 50645.833333333336,
      "d": 57.29166666667152,
      "v": 105
    },
    {
      "midi": 77,
      "hit": false,
      "t": 50645.83333333342,
      "d": 145.83333333333576,
      "v": 83
    },
    {
      "midi": 80,
      "hit": false,
      "t": 50645.83333333342,
      "d": 145.83333333333576,
      "v": 83
    },
    {
      "midi": 53,
      "hit": false,
      "t": 50666.66666666665,
      "d": 57.29166666666424,
      "v": 105
    },
    {
      "midi": 56,
      "hit": false,
      "t": 50666.66666666665,
      "d": 57.29166666666424,
      "v": 105
    },
    {
      "midi": 41,
      "hit": false,
      "t": 50666.66666666665,
      "d": 119.79166666666424,
      "v": 65
    },
    {
      "midi": 49,
      "hit": false,
      "t": 50958.33333333331,
      "d": 307.29166666666424,
      "v": 90
    },
    {
      "midi": 37,
      "hit": false,
      "t": 50958.33333333334,
      "d": 119.79166666667152,
      "v": 82
    },
    {
      "midi": 53,
      "hit": false,
      "t": 50958.33333333334,
      "d": 145.83333333333576,
      "v": 105
    },
    {
      "midi": 56,
      "hit": false,
      "t": 50963.54166666668,
      "d": 145.83333333333576,
      "v": 105
    },
    {
      "midi": 77,
      "hit": false,
      "t": 50963.54166666676,
      "d": 145.83333333333576,
      "v": 83
    },
    {
      "midi": 80,
      "hit": false,
      "t": 50963.54166666676,
      "d": 145.83333333333576,
      "v": 83
    },
    {
      "midi": 37,
      "hit": false,
      "t": 50984.37499999998,
      "d": 119.79166666666424,
      "v": 65
    },
    {
      "midi": 53,
      "hit": false,
      "t": 50984.37499999998,
      "d": 145.83333333332848,
      "v": 105
    },
    {
      "midi": 56,
      "hit": false,
      "t": 50984.37499999998,
      "d": 151.04166666666424,
      "v": 105
    },
    {
      "midi": 51,
      "hit": false,
      "t": 51276.041666666635,
      "d": 307.29166666666424,
      "v": 90
    },
    {
      "midi": 39,
      "hit": false,
      "t": 51276.04166666668,
      "d": 119.79166666666424,
      "v": 82
    },
    {
      "midi": 39,
      "hit": false,
      "t": 51302.08333333331,
      "d": 119.79166666666424,
      "v": 65
    },
    {
      "midi": 54,
      "hit": false,
      "t": 51432.29166666668,
      "d": 57.29166666667152,
      "v": 105
    },
    {
      "midi": 58,
      "hit": false,
      "t": 51437.500000000015,
      "d": 57.29166666667152,
      "v": 105
    },
    {
      "midi": 54,
      "hit": false,
      "t": 51458.33333333331,
      "d": 57.29166666667152,
      "v": 105
    },
    {
      "midi": 58,
      "hit": false,
      "t": 51463.54166666664,
      "d": 57.29166666667152,
      "v": 105
    },
    {
      "midi": 78,
      "hit": false,
      "t": 51593.750000000095,
      "d": 72.91666666667152,
      "v": 83
    },
    {
      "midi": 82,
      "hit": false,
      "t": 51598.95833333343,
      "d": 67.70833333333576,
      "v": 83
    },
    {
      "midi": 42,
      "hit": false,
      "t": 51750.00000000002,
      "d": 119.79166666666424,
      "v": 82
    },
    {
      "midi": 54,
      "hit": false,
      "t": 51755.2083333333,
      "d": 546.875,
      "v": 90
    },
    {
      "midi": 42,
      "hit": false,
      "t": 51781.24999999998,
      "d": 119.79166666666424,
      "v": 65
    },
    {
      "midi": 54,
      "hit": false,
      "t": 51911.45833333335,
      "d": 151.04166666667152,
      "v": 105
    },
    {
      "midi": 58,
      "hit": false,
      "t": 51916.666666666686,
      "d": 145.83333333333576,
      "v": 105
    },
    {
      "midi": 78,
      "hit": false,
      "t": 51916.666666666766,
      "d": 145.83333333333576,
      "v": 83
    },
    {
      "midi": 82,
      "hit": false,
      "t": 51921.8750000001,
      "d": 140.625,
      "v": 83
    },
    {
      "midi": 54,
      "hit": false,
      "t": 51937.49999999998,
      "d": 151.04166666667152,
      "v": 105
    },
    {
      "midi": 58,
      "hit": false,
      "t": 51942.708333333314,
      "d": 145.83333333333576,
      "v": 105
    },
    {
      "midi": 58,
      "hit": false,
      "t": 52072.916666666635,
      "d": 151.04166666666424,
      "v": 90
    },
    {
      "midi": 46,
      "hit": false,
      "t": 52072.916666666686,
      "d": 57.29166666666424,
      "v": 82
    },
    {
      "midi": 46,
      "hit": false,
      "t": 52098.958333333314,
      "d": 57.29166666666424,
      "v": 65
    },
    {
      "midi": 56,
      "hit": false,
      "t": 52234.37499999996,
      "d": 307.2916666666715,
      "v": 90
    },
    {
      "midi": 44,
      "hit": false,
      "t": 52234.375000000015,
      "d": 119.79166666666424,
      "v": 82
    },
    {
      "midi": 44,
      "hit": false,
      "t": 52255.208333333314,
      "d": 119.79166666666424,
      "v": 65
    },
    {
      "midi": 41,
      "hit": false,
      "t": 52546.875000000015,
      "d": 119.7916666666788,
      "v": 82
    },
    {
      "midi": 53,
      "hit": false,
      "t": 52552.0833333333,
      "d": 307.29166666666424,
      "v": 90
    },
    {
      "midi": 53,
      "hit": false,
      "t": 52552.08333333335,
      "d": 57.29166666667152,
      "v": 105
    },
    {
      "midi": 56,
      "hit": false,
      "t": 52557.291666666686,
      "d": 57.29166666667152,
      "v": 105
    },
    {
      "midi": 77,
      "hit": false,
      "t": 52557.291666666766,
      "d": 145.83333333333576,
      "v": 83
    },
    {
      "midi": 80,
      "hit": false,
      "t": 52557.291666666766,
      "d": 145.83333333333576,
      "v": 83
    },
    {
      "midi": 41,
      "hit": false,
      "t": 52572.91666666664,
      "d": 119.79166666666424,
      "v": 65
    },
    {
      "midi": 53,
      "hit": false,
      "t": 52578.12499999998,
      "d": 57.29166666666424,
      "v": 105
    },
    {
      "midi": 56,
      "hit": false,
      "t": 52578.12499999998,
      "d": 57.29166666666424,
      "v": 105
    },
    {
      "midi": 49,
      "hit": false,
      "t": 52869.79166666663,
      "d": 307.29166666666424,
      "v": 90
    },
    {
      "midi": 37,
      "hit": false,
      "t": 52869.79166666669,
      "d": 119.79166666667152,
      "v": 82
    },
    {
      "midi": 53,
      "hit": false,
      "t": 52869.79166666669,
      "d": 145.83333333333576,
      "v": 105
    },
    {
      "midi": 56,
      "hit": false,
      "t": 52875.00000000003,
      "d": 145.83333333333576,
      "v": 105
    },
    {
      "midi": 77,
      "hit": false,
      "t": 52875.0000000001,
      "d": 140.625,
      "v": 83
    },
    {
      "midi": 80,
      "hit": false,
      "t": 52875.0000000001,
      "d": 145.83333333333576,
      "v": 83
    },
    {
      "midi": 37,
      "hit": false,
      "t": 52895.83333333331,
      "d": 119.79166666666424,
      "v": 65
    },
    {
      "midi": 53,
      "hit": false,
      "t": 52895.83333333331,
      "d": 145.83333333332848,
      "v": 105
    },
    {
      "midi": 56,
      "hit": false,
      "t": 52895.83333333331,
      "d": 151.04166666666424,
      "v": 105
    },
    {
      "midi": 51,
      "hit": false,
      "t": 53187.499999999956,
      "d": 307.29166666666424,
      "v": 90
    },
    {
      "midi": 39,
      "hit": false,
      "t": 53187.50000000003,
      "d": 119.79166666666424,
      "v": 82
    },
    {
      "midi": 39,
      "hit": false,
      "t": 53213.541666666635,
      "d": 119.79166666666424,
      "v": 65
    },
    {
      "midi": 54,
      "hit": false,
      "t": 53343.75000000003,
      "d": 57.29166666667152,
      "v": 105
    },
    {
      "midi": 58,
      "hit": false,
      "t": 53348.958333333365,
      "d": 57.29166666667152,
      "v": 105
    },
    {
      "midi": 54,
      "hit": false,
      "t": 53369.791666666635,
      "d": 57.29166666667152,
      "v": 105
    },
    {
      "midi": 58,
      "hit": false,
      "t": 53374.99999999997,
      "d": 57.29166666667152,
      "v": 105
    },
    {
      "midi": 78,
      "hit": false,
      "t": 53505.20833333344,
      "d": 151.04166666667152,
      "v": 83
    },
    {
      "midi": 82,
      "hit": false,
      "t": 53510.41666666677,
      "d": 145.83333333333576,
      "v": 83
    },
    {
      "midi": 42,
      "hit": false,
      "t": 53661.45833333337,
      "d": 119.79166666666424,
      "v": 82
    },
    {
      "midi": 54,
      "hit": false,
      "t": 53666.66666666662,
      "d": 546.875,
      "v": 90
    },
    {
      "midi": 42,
      "hit": false,
      "t": 53692.70833333331,
      "d": 119.79166666666424,
      "v": 65
    },
    {
      "midi": 54,
      "hit": false,
      "t": 53822.9166666667,
      "d": 151.04166666666424,
      "v": 105
    },
    {
      "midi": 58,
      "hit": false,
      "t": 53822.9166666667,
      "d": 151.04166666666424,
      "v": 105
    },
    {
      "midi": 78,
      "hit": false,
      "t": 53828.12500000011,
      "d": 145.83333333333576,
      "v": 83
    },
    {
      "midi": 82,
      "hit": false,
      "t": 53828.12500000011,
      "d": 145.83333333333576,
      "v": 83
    },
    {
      "midi": 54,
      "hit": false,
      "t": 53848.95833333331,
      "d": 151.04166666666424,
      "v": 105
    },
    {
      "midi": 58,
      "hit": false,
      "t": 53848.95833333331,
      "d": 151.04166666666424,
      "v": 105
    },
    {
      "midi": 58,
      "hit": false,
      "t": 53984.374999999956,
      "d": 151.04166666666424,
      "v": 90
    },
    {
      "midi": 46,
      "hit": false,
      "t": 53984.37500000003,
      "d": 57.29166666666424,
      "v": 82
    },
    {
      "midi": 46,
      "hit": false,
      "t": 54010.416666666635,
      "d": 57.29166666666424,
      "v": 65
    },
    {
      "midi": 44,
      "hit": false,
      "t": 54140.62500000003,
      "d": 119.79166666666424,
      "v": 82
    },
    {
      "midi": 56,
      "hit": false,
      "t": 54145.833333333285,
      "d": 307.2916666666715,
      "v": 90
    },
    {
      "midi": 44,
      "hit": false,
      "t": 54166.666666666635,
      "d": 119.79166666666424,
      "v": 65
    },
    {
      "midi": 41,
      "hit": false,
      "t": 54458.33333333336,
      "d": 119.79166666666424,
      "v": 82
    },
    {
      "midi": 53,
      "hit": false,
      "t": 54463.54166666662,
      "d": 307.29166666666424,
      "v": 90
    },
    {
      "midi": 53,
      "hit": false,
      "t": 54463.54166666669,
      "d": 57.29166666666424,
      "v": 105
    },
    {
      "midi": 56,
      "hit": false,
      "t": 54463.54166666669,
      "d": 57.29166666666424,
      "v": 105
    },
    {
      "midi": 77,
      "hit": false,
      "t": 54468.75000000011,
      "d": 145.83333333333576,
      "v": 83
    },
    {
      "midi": 80,
      "hit": false,
      "t": 54468.75000000011,
      "d": 145.83333333333576,
      "v": 83
    },
    {
      "midi": 41,
      "hit": false,
      "t": 54484.37499999996,
      "d": 119.79166666666424,
      "v": 65
    },
    {
      "midi": 53,
      "hit": false,
      "t": 54489.5833333333,
      "d": 57.29166666666424,
      "v": 105
    },
    {
      "midi": 56,
      "hit": false,
      "t": 54489.5833333333,
      "d": 57.29166666666424,
      "v": 105
    },
    {
      "midi": 37,
      "hit": false,
      "t": 54776.041666666686,
      "d": 119.79166666667152,
      "v": 82
    },
    {
      "midi": 49,
      "hit": false,
      "t": 54781.24999999995,
      "d": 307.29166666666424,
      "v": 90
    },
    {
      "midi": 53,
      "hit": false,
      "t": 54781.25000000002,
      "d": 145.83333333333576,
      "v": 105
    },
    {
      "midi": 56,
      "hit": false,
      "t": 54781.25000000002,
      "d": 145.83333333333576,
      "v": 105
    },
    {
      "midi": 77,
      "hit": false,
      "t": 54786.458333333445,
      "d": 140.625,
      "v": 83
    },
    {
      "midi": 80,
      "hit": false,
      "t": 54786.458333333445,
      "d": 140.625,
      "v": 83
    },
    {
      "midi": 37,
      "hit": false,
      "t": 54802.08333333329,
      "d": 119.79166666667152,
      "v": 65
    },
    {
      "midi": 53,
      "hit": false,
      "t": 54807.29166666663,
      "d": 145.83333333333576,
      "v": 105
    },
    {
      "midi": 56,
      "hit": false,
      "t": 54807.29166666663,
      "d": 145.83333333333576,
      "v": 105
    },
    {
      "midi": 51,
      "hit": false,
      "t": 55098.95833333328,
      "d": 307.29166666666424,
      "v": 90
    },
    {
      "midi": 39,
      "hit": false,
      "t": 55098.95833333336,
      "d": 119.79166666666424,
      "v": 82
    },
    {
      "midi": 39,
      "hit": false,
      "t": 55124.99999999996,
      "d": 119.79166666666424,
      "v": 65
    },
    {
      "midi": 54,
      "hit": false,
      "t": 55255.20833333336,
      "d": 57.29166666666424,
      "v": 105
    },
    {
      "midi": 58,
      "hit": false,
      "t": 55255.20833333336,
      "d": 57.29166666666424,
      "v": 105
    },
    {
      "midi": 54,
      "hit": false,
      "t": 55281.24999999996,
      "d": 57.29166666667152,
      "v": 105
    },
    {
      "midi": 58,
      "hit": false,
      "t": 55286.4583333333,
      "d": 57.29166666667152,
      "v": 105
    },
    {
      "midi": 78,
      "hit": false,
      "t": 55416.66666666678,
      "d": 67.70833333333576,
      "v": 83
    },
    {
      "midi": 82,
      "hit": false,
      "t": 55416.66666666678,
      "d": 67.70833333333576,
      "v": 83
    },
    {
      "midi": 42,
      "hit": false,
      "t": 55572.916666666686,
      "d": 119.79166666666424,
      "v": 82
    },
    {
      "midi": 54,
      "hit": false,
      "t": 55578.12499999994,
      "d": 546.8750000000073,
      "v": 90
    },
    {
      "midi": 42,
      "hit": false,
      "t": 55598.95833333331,
      "d": 119.79166666666424,
      "v": 65
    },
    {
      "midi": 54,
      "hit": false,
      "t": 55734.375000000015,
      "d": 151.04166666666424,
      "v": 105
    },
    {
      "midi": 58,
      "hit": false,
      "t": 55734.375000000015,
      "d": 151.04166666666424,
      "v": 105
    },
    {
      "midi": 78,
      "hit": false,
      "t": 55739.58333333345,
      "d": 145.83333333333576,
      "v": 83
    },
    {
      "midi": 82,
      "hit": false,
      "t": 55739.58333333345,
      "d": 145.83333333333576,
      "v": 83
    },
    {
      "midi": 54,
      "hit": false,
      "t": 55760.416666666635,
      "d": 151.04166666666424,
      "v": 105
    },
    {
      "midi": 58,
      "hit": false,
      "t": 55760.416666666635,
      "d": 151.04166666666424,
      "v": 105
    },
    {
      "midi": 46,
      "hit": false,
      "t": 55890.625000000015,
      "d": 57.29166666666424,
      "v": 82
    },
    {
      "midi": 58,
      "hit": false,
      "t": 55895.83333333328,
      "d": 145.83333333333576,
      "v": 90
    },
    {
      "midi": 46,
      "hit": false,
      "t": 55916.666666666635,
      "d": 57.29166666666424,
      "v": 65
    },
    {
      "midi": 44,
      "hit": false,
      "t": 56052.08333333334,
      "d": 119.79166666666424,
      "v": 82
    },
    {
      "midi": 56,
      "hit": false,
      "t": 56057.29166666661,
      "d": 307.2916666666715,
      "v": 90
    },
    {
      "midi": 44,
      "hit": false,
      "t": 56078.12499999996,
      "d": 119.79166666666424,
      "v": 65
    },
    {
      "midi": 53,
      "hit": false,
      "t": 56369.79166666662,
      "d": 312.5,
      "v": 90
    },
    {
      "midi": 41,
      "hit": false,
      "t": 56369.79166666667,
      "d": 119.79166666666424,
      "v": 82
    },
    {
      "midi": 53,
      "hit": false,
      "t": 56375.00000000001,
      "d": 57.29166666666424,
      "v": 105
    },
    {
      "midi": 56,
      "hit": false,
      "t": 56375.00000000001,
      "d": 57.29166666666424,
      "v": 105
    },
    {
      "midi": 77,
      "hit": false,
      "t": 56375.000000000124,
      "d": 145.83333333333576,
      "v": 83
    },
    {
      "midi": 80,
      "hit": false,
      "t": 56380.20833333346,
      "d": 145.83333333333576,
      "v": 83
    },
    {
      "midi": 41,
      "hit": false,
      "t": 56395.83333333329,
      "d": 119.79166666666424,
      "v": 65
    },
    {
      "midi": 53,
      "hit": false,
      "t": 56401.04166666663,
      "d": 57.29166666666424,
      "v": 105
    },
    {
      "midi": 56,
      "hit": false,
      "t": 56401.04166666663,
      "d": 57.29166666666424,
      "v": 105
    },
    {
      "midi": 37,
      "hit": false,
      "t": 56687.5,
      "d": 119.79166666667152,
      "v": 82
    },
    {
      "midi": 49,
      "hit": false,
      "t": 56692.708333333285,
      "d": 307.29166666666424,
      "v": 90
    },
    {
      "midi": 53,
      "hit": false,
      "t": 56692.708333333336,
      "d": 145.83333333333576,
      "v": 105
    },
    {
      "midi": 56,
      "hit": false,
      "t": 56692.708333333336,
      "d": 145.83333333333576,
      "v": 105
    },
    {
      "midi": 77,
      "hit": false,
      "t": 56697.916666666795,
      "d": 140.625,
      "v": 83
    },
    {
      "midi": 80,
      "hit": false,
      "t": 56697.916666666795,
      "d": 140.625,
      "v": 83
    },
    {
      "midi": 37,
      "hit": false,
      "t": 56713.54166666662,
      "d": 119.79166666667152,
      "v": 65
    },
    {
      "midi": 53,
      "hit": false,
      "t": 56718.749999999956,
      "d": 145.83333333333576,
      "v": 105
    },
    {
      "midi": 56,
      "hit": false,
      "t": 56718.749999999956,
      "d": 145.83333333333576,
      "v": 105
    },
    {
      "midi": 39,
      "hit": false,
      "t": 57005.208333333336,
      "d": 119.79166666666424,
      "v": 82
    },
    {
      "midi": 51,
      "hit": false,
      "t": 57010.41666666661,
      "d": 307.29166666666424,
      "v": 90
    },
    {
      "midi": 39,
      "hit": false,
      "t": 57031.249999999956,
      "d": 119.79166666666424,
      "v": 65
    },
    {
      "midi": 54,
      "hit": false,
      "t": 57166.666666666664,
      "d": 57.29166666666424,
      "v": 105
    },
    {
      "midi": 58,
      "hit": false,
      "t": 57166.666666666664,
      "d": 57.29166666666424,
      "v": 105
    },
    {
      "midi": 54,
      "hit": false,
      "t": 57192.708333333285,
      "d": 57.29166666667152,
      "v": 105
    },
    {
      "midi": 58,
      "hit": false,
      "t": 57197.91666666662,
      "d": 57.29166666667152,
      "v": 105
    },
    {
      "midi": 78,
      "hit": false,
      "t": 57328.12500000013,
      "d": 145.83333333333576,
      "v": 83
    },
    {
      "midi": 82,
      "hit": false,
      "t": 57328.12500000013,
      "d": 151.04166666667152,
      "v": 83
    },
    {
      "midi": 42,
      "hit": false,
      "t": 57484.37499999999,
      "d": 119.79166666666424,
      "v": 82
    },
    {
      "midi": 54,
      "hit": false,
      "t": 57489.58333333328,
      "d": 541.6666666666715,
      "v": 90
    },
    {
      "midi": 42,
      "hit": false,
      "t": 57510.41666666663,
      "d": 119.79166666666424,
      "v": 65
    },
    {
      "midi": 54,
      "hit": false,
      "t": 57645.83333333332,
      "d": 151.04166666666424,
      "v": 105
    },
    {
      "midi": 58,
      "hit": false,
      "t": 57645.83333333332,
      "d": 151.04166666666424,
      "v": 105
    },
    {
      "midi": 78,
      "hit": false,
      "t": 57651.0416666668,
      "d": 145.83333333333576,
      "v": 83
    },
    {
      "midi": 82,
      "hit": false,
      "t": 57651.0416666668,
      "d": 145.83333333333576,
      "v": 83
    },
    {
      "midi": 54,
      "hit": false,
      "t": 57671.874999999956,
      "d": 151.04166666666424,
      "v": 105
    },
    {
      "midi": 58,
      "hit": false,
      "t": 57671.874999999956,
      "d": 151.04166666666424,
      "v": 105
    },
    {
      "midi": 46,
      "hit": false,
      "t": 57802.08333333332,
      "d": 57.29166666666424,
      "v": 82
    },
    {
      "midi": 58,
      "hit": false,
      "t": 57807.29166666661,
      "d": 145.83333333333576,
      "v": 90
    },
    {
      "midi": 46,
      "hit": false,
      "t": 57828.124999999956,
      "d": 57.29166666666424,
      "v": 65
    },
    {
      "midi": 44,
      "hit": false,
      "t": 57963.54166666665,
      "d": 119.79166666666424,
      "v": 82
    },
    {
      "midi": 56,
      "hit": false,
      "t": 57968.74999999995,
      "d": 307.29166666666424,
      "v": 90
    },
    {
      "midi": 44,
      "hit": false,
      "t": 57989.583333333285,
      "d": 119.79166666666424,
      "v": 65
    },
    {
      "midi": 53,
      "hit": false,
      "t": 58281.24999999995,
      "d": 312.5,
      "v": 90
    },
    {
      "midi": 41,
      "hit": false,
      "t": 58281.24999999998,
      "d": 119.79166666666424,
      "v": 82
    },
    {
      "midi": 53,
      "hit": false,
      "t": 58286.458333333314,
      "d": 57.29166666666424,
      "v": 105
    },
    {
      "midi": 56,
      "hit": false,
      "t": 58286.458333333314,
      "d": 57.29166666666424,
      "v": 105
    },
    {
      "midi": 77,
      "hit": false,
      "t": 58286.458333333474,
      "d": 145.83333333333576,
      "v": 83
    },
    {
      "midi": 80,
      "hit": false,
      "t": 58291.66666666681,
      "d": 145.83333333333576,
      "v": 83
    },
    {
      "midi": 41,
      "hit": false,
      "t": 58307.29166666661,
      "d": 119.79166666666424,
      "v": 65
    },
    {
      "midi": 53,
      "hit": false,
      "t": 58312.49999999995,
      "d": 57.29166666666424,
      "v": 105
    },
    {
      "midi": 56,
      "hit": false,
      "t": 58312.49999999995,
      "d": 57.29166666666424,
      "v": 105
    },
    {
      "midi": 37,
      "hit": false,
      "t": 58598.95833333331,
      "d": 119.79166666667152,
      "v": 82
    },
    {
      "midi": 49,
      "hit": false,
      "t": 58604.16666666661,
      "d": 307.29166666666424,
      "v": 90
    },
    {
      "midi": 53,
      "hit": false,
      "t": 58604.16666666664,
      "d": 145.83333333333576,
      "v": 105
    },
    {
      "midi": 56,
      "hit": false,
      "t": 58604.16666666664,
      "d": 145.83333333333576,
      "v": 105
    },
    {
      "midi": 77,
      "hit": false,
      "t": 58609.375000000146,
      "d": 140.625,
      "v": 83
    },
    {
      "midi": 80,
      "hit": false,
      "t": 58609.375000000146,
      "d": 140.625,
      "v": 83
    },
    {
      "midi": 37,
      "hit": false,
      "t": 58624.99999999994,
      "d": 119.79166666667152,
      "v": 65
    },
    {
      "midi": 53,
      "hit": false,
      "t": 58630.20833333328,
      "d": 145.83333333333576,
      "v": 105
    },
    {
      "midi": 56,
      "hit": false,
      "t": 58630.20833333328,
      "d": 145.83333333333576,
      "v": 105
    },
    {
      "midi": 39,
      "hit": false,
      "t": 58916.66666666664,
      "d": 119.79166666666424,
      "v": 82
    },
    {
      "midi": 51,
      "hit": false,
      "t": 58921.87499999994,
      "d": 307.29166666666424,
      "v": 90
    },
    {
      "midi": 39,
      "hit": false,
      "t": 58942.70833333328,
      "d": 119.79166666666424,
      "v": 65
    },
    {
      "midi": 54,
      "hit": false,
      "t": 59078.12499999997,
      "d": 57.29166666666424,
      "v": 105
    },
    {
      "midi": 58,
      "hit": false,
      "t": 59078.12499999997,
      "d": 57.29166666666424,
      "v": 105
    },
    {
      "midi": 54,
      "hit": false,
      "t": 59104.166666666606,
      "d": 57.29166666666424,
      "v": 105
    },
    {
      "midi": 58,
      "hit": false,
      "t": 59104.166666666606,
      "d": 57.29166666666424,
      "v": 105
    },
    {
      "midi": 78,
      "hit": false,
      "t": 59239.58333333348,
      "d": 67.70833333333576,
      "v": 83
    },
    {
      "midi": 82,
      "hit": false,
      "t": 59239.58333333348,
      "d": 67.70833333333576,
      "v": 83
    },
    {
      "midi": 54,
      "hit": false,
      "t": 59395.83333333327,
      "d": 546.875,
      "v": 90
    },
    {
      "midi": 42,
      "hit": false,
      "t": 59395.8333333333,
      "d": 119.79166666666424,
      "v": 82
    },
    {
      "midi": 42,
      "hit": false,
      "t": 59421.874999999935,
      "d": 119.79166666666424,
      "v": 65
    },
    {
      "midi": 54,
      "hit": false,
      "t": 59557.29166666663,
      "d": 151.04166666666424,
      "v": 105
    },
    {
      "midi": 58,
      "hit": false,
      "t": 59557.29166666663,
      "d": 151.04166666666424,
      "v": 105
    },
    {
      "midi": 78,
      "hit": false,
      "t": 59562.50000000015,
      "d": 145.83333333333576,
      "v": 83
    },
    {
      "midi": 82,
      "hit": false,
      "t": 59562.50000000015,
      "d": 145.83333333333576,
      "v": 83
    },
    {
      "midi": 54,
      "hit": false,
      "t": 59583.33333333326,
      "d": 145.83333333333576,
      "v": 105
    },
    {
      "midi": 58,
      "hit": false,
      "t": 59583.33333333326,
      "d": 151.04166666667152,
      "v": 105
    },
    {
      "midi": 46,
      "hit": false,
      "t": 59713.54166666663,
      "d": 57.29166666666424,
      "v": 82
    },
    {
      "midi": 58,
      "hit": false,
      "t": 59718.749999999935,
      "d": 145.83333333333576,
      "v": 90
    },
    {
      "midi": 46,
      "hit": false,
      "t": 59739.58333333327,
      "d": 57.29166666666424,
      "v": 65
    },
    {
      "midi": 56,
      "hit": false,
      "t": 59874.999999999935,
      "d": 307.2916666666715,
      "v": 90
    },
    {
      "midi": 44,
      "hit": false,
      "t": 59874.999999999956,
      "d": 119.79166666666424,
      "v": 82
    },
    {
      "midi": 44,
      "hit": false,
      "t": 59901.0416666666,
      "d": 119.79166666666424,
      "v": 65
    },
    {
      "midi": 53,
      "hit": false,
      "t": 60192.70833333327,
      "d": 312.5,
      "v": 90
    },
    {
      "midi": 41,
      "hit": false,
      "t": 60192.708333333285,
      "d": 119.79166666666424,
      "v": 82
    },
    {
      "midi": 53,
      "hit": false,
      "t": 60197.91666666662,
      "d": 57.29166666666424,
      "v": 105
    },
    {
      "midi": 56,
      "hit": false,
      "t": 60197.91666666662,
      "d": 57.29166666666424,
      "v": 105
    },
    {
      "midi": 77,
      "hit": false,
      "t": 60197.916666666824,
      "d": 145.83333333333576,
      "v": 83
    },
    {
      "midi": 80,
      "hit": false,
      "t": 60203.12500000016,
      "d": 140.625,
      "v": 83
    },
    {
      "midi": 53,
      "hit": false,
      "t": 60218.74999999993,
      "d": 57.29166666667152,
      "v": 105
    },
    {
      "midi": 41,
      "hit": false,
      "t": 60218.74999999993,
      "d": 119.79166666667152,
      "v": 65
    },
    {
      "midi": 56,
      "hit": false,
      "t": 60223.95833333326,
      "d": 57.29166666667152,
      "v": 105
    },
    {
      "midi": 49,
      "hit": false,
      "t": 60510.416666666606,
      "d": 312.5,
      "v": 90
    },
    {
      "midi": 37,
      "hit": false,
      "t": 60510.41666666661,
      "d": 119.79166666667152,
      "v": 82
    },
    {
      "midi": 53,
      "hit": false,
      "t": 60515.62499999995,
      "d": 145.83333333333576,
      "v": 105
    },
    {
      "midi": 56,
      "hit": false,
      "t": 60515.62499999995,
      "d": 145.83333333333576,
      "v": 105
    },
    {
      "midi": 77,
      "hit": false,
      "t": 60515.62500000016,
      "d": 145.83333333333576,
      "v": 83
    },
    {
      "midi": 80,
      "hit": false,
      "t": 60520.833333333496,
      "d": 140.625,
      "v": 83
    },
    {
      "midi": 37,
      "hit": false,
      "t": 60536.45833333326,
      "d": 119.79166666667152,
      "v": 65
    },
    {
      "midi": 53,
      "hit": false,
      "t": 60541.6666666666,
      "d": 145.83333333333576,
      "v": 105
    },
    {
      "midi": 56,
      "hit": false,
      "t": 60541.6666666666,
      "d": 145.83333333333576,
      "v": 105
    },
    {
      "midi": 39,
      "hit": false,
      "t": 60828.12499999995,
      "d": 119.79166666666424,
      "v": 82
    },
    {
      "midi": 51,
      "hit": false,
      "t": 60833.33333333327,
      "d": 307.29166666666424,
      "v": 90
    },
    {
      "midi": 39,
      "hit": false,
      "t": 60854.1666666666,
      "d": 119.79166666666424,
      "v": 65
    },
    {
      "midi": 54,
      "hit": false,
      "t": 60989.58333333328,
      "d": 57.29166666666424,
      "v": 105
    },
    {
      "midi": 58,
      "hit": false,
      "t": 60989.58333333328,
      "d": 57.29166666666424,
      "v": 105
    },
    {
      "midi": 54,
      "hit": false,
      "t": 61015.62499999993,
      "d": 57.29166666666424,
      "v": 105
    },
    {
      "midi": 58,
      "hit": false,
      "t": 61015.62499999993,
      "d": 57.29166666666424,
      "v": 105
    },
    {
      "midi": 78,
      "hit": false,
      "t": 61151.04166666683,
      "d": 145.83333333333576,
      "v": 83
    },
    {
      "midi": 82,
      "hit": false,
      "t": 61151.04166666683,
      "d": 145.83333333333576,
      "v": 83
    },
    {
      "midi": 54,
      "hit": false,
      "t": 61307.2916666666,
      "d": 546.875,
      "v": 90
    },
    {
      "midi": 42,
      "hit": false,
      "t": 61307.291666666606,
      "d": 119.79166666666424,
      "v": 82
    },
    {
      "midi": 42,
      "hit": false,
      "t": 61333.333333333256,
      "d": 119.79166666666424,
      "v": 65
    },
    {
      "midi": 54,
      "hit": false,
      "t": 61463.541666666606,
      "d": 151.04166666667152,
      "v": 105
    },
    {
      "midi": 58,
      "hit": false,
      "t": 61468.74999999994,
      "d": 151.04166666667152,
      "v": 105
    },
    {
      "midi": 78,
      "hit": false,
      "t": 61473.9583333335,
      "d": 145.83333333333576,
      "v": 83
    },
    {
      "midi": 82,
      "hit": false,
      "t": 61473.9583333335,
      "d": 145.83333333333576,
      "v": 83
    },
    {
      "midi": 54,
      "hit": false,
      "t": 61494.791666666584,
      "d": 145.83333333333576,
      "v": 105
    },
    {
      "midi": 58,
      "hit": false,
      "t": 61494.791666666584,
      "d": 151.04166666667152,
      "v": 105
    },
    {
      "midi": 58,
      "hit": false,
      "t": 61624.999999999935,
      "d": 151.04166666666424,
      "v": 90
    },
    {
      "midi": 46,
      "hit": false,
      "t": 61624.99999999995,
      "d": 57.29166666666424,
      "v": 82
    },
    {
      "midi": 46,
      "hit": false,
      "t": 61651.04166666659,
      "d": 57.29166666666424,
      "v": 65
    },
    {
      "midi": 56,
      "hit": false,
      "t": 61786.45833333326,
      "d": 307.2916666666715,
      "v": 90
    },
    {
      "midi": 44,
      "hit": false,
      "t": 61786.45833333328,
      "d": 119.79166666666424,
      "v": 82
    },
    {
      "midi": 44,
      "hit": false,
      "t": 61812.49999999992,
      "d": 119.79166666666424,
      "v": 65
    },
    {
      "midi": 53,
      "hit": false,
      "t": 62104.1666666666,
      "d": 312.5,
      "v": 90
    },
    {
      "midi": 41,
      "hit": false,
      "t": 62104.166666666606,
      "d": 119.79166666666424,
      "v": 82
    },
    {
      "midi": 53,
      "hit": false,
      "t": 62109.37499999994,
      "d": 57.29166666666424,
      "v": 105
    },
    {
      "midi": 56,
      "hit": false,
      "t": 62109.37499999994,
      "d": 57.29166666666424,
      "v": 105
    },
    {
      "midi": 77,
      "hit": false,
      "t": 62109.375000000175,
      "d": 145.83333333333576,
      "v": 83
    },
    {
      "midi": 80,
      "hit": false,
      "t": 62114.58333333351,
      "d": 140.625,
      "v": 83
    },
    {
      "midi": 53,
      "hit": false,
      "t": 62130.20833333325,
      "d": 57.29166666667152,
      "v": 105
    },
    {
      "midi": 41,
      "hit": false,
      "t": 62130.20833333325,
      "d": 119.79166666667152,
      "v": 65
    },
    {
      "midi": 56,
      "hit": false,
      "t": 62135.416666666584,
      "d": 57.29166666667152,
      "v": 105
    },
    {
      "midi": 37,
      "hit": false,
      "t": 62421.874999999935,
      "d": 119.79166666667152,
      "v": 82
    },
    {
      "midi": 49,
      "hit": false,
      "t": 62421.874999999935,
      "d": 312.5,
      "v": 90
    },
    {
      "midi": 53,
      "hit": false,
      "t": 62427.08333333327,
      "d": 151.04166666667152,
      "v": 105
    },
    {
      "midi": 56,
      "hit": false,
      "t": 62427.08333333327,
      "d": 151.04166666667152,
      "v": 105
    },
    {
      "midi": 77,
      "hit": false,
      "t": 62427.08333333351,
      "d": 145.83333333333576,
      "v": 83
    },
    {
      "midi": 80,
      "hit": false,
      "t": 62432.291666666846,
      "d": 140.625,
      "v": 83
    },
    {
      "midi": 37,
      "hit": false,
      "t": 62447.916666666584,
      "d": 119.79166666667152,
      "v": 65
    },
    {
      "midi": 53,
      "hit": false,
      "t": 62447.916666666584,
      "d": 151.04166666667152,
      "v": 105
    },
    {
      "midi": 56,
      "hit": false,
      "t": 62453.12499999992,
      "d": 145.83333333333576,
      "v": 105
    },
    {
      "midi": 39,
      "hit": false,
      "t": 62739.58333333328,
      "d": 119.79166666666424,
      "v": 82
    },
    {
      "midi": 51,
      "hit": false,
      "t": 62744.7916666666,
      "d": 312.5,
      "v": 90
    },
    {
      "midi": 39,
      "hit": false,
      "t": 62765.62499999992,
      "d": 119.79166666666424,
      "v": 65
    },
    {
      "midi": 54,
      "hit": false,
      "t": 62911.45833333328,
      "d": 57.29166666666424,
      "v": 105
    },
    {
      "midi": 58,
      "hit": false,
      "t": 62911.45833333328,
      "d": 57.29166666666424,
      "v": 105
    },
    {
      "midi": 54,
      "hit": false,
      "t": 62927.08333333325,
      "d": 57.29166666666424,
      "v": 105
    },
    {
      "midi": 58,
      "hit": false,
      "t": 62927.08333333325,
      "d": 57.29166666666424,
      "v": 105
    },
    {
      "midi": 78,
      "hit": false,
      "t": 63067.70833333351,
      "d": 62.5,
      "v": 83
    },
    {
      "midi": 82,
      "hit": false,
      "t": 63067.70833333351,
      "d": 62.5,
      "v": 83
    },
    {
      "midi": 54,
      "hit": false,
      "t": 63218.749999999935,
      "d": 546.875,
      "v": 90
    },
    {
      "midi": 42,
      "hit": false,
      "t": 63218.74999999994,
      "d": 119.79166666666424,
      "v": 82
    },
    {
      "midi": 42,
      "hit": false,
      "t": 63244.79166666658,
      "d": 119.79166666666424,
      "v": 65
    },
    {
      "midi": 54,
      "hit": false,
      "t": 63380.20833333327,
      "d": 151.04166666666424,
      "v": 105
    },
    {
      "midi": 58,
      "hit": false,
      "t": 63380.20833333327,
      "d": 151.04166666666424,
      "v": 105
    },
    {
      "midi": 78,
      "hit": false,
      "t": 63385.416666666846,
      "d": 145.83333333333576,
      "v": 83
    },
    {
      "midi": 82,
      "hit": false,
      "t": 63385.416666666846,
      "d": 145.83333333333576,
      "v": 83
    },
    {
      "midi": 54,
      "hit": false,
      "t": 63406.249999999905,
      "d": 145.83333333333576,
      "v": 105
    },
    {
      "midi": 58,
      "hit": false,
      "t": 63406.249999999905,
      "d": 151.04166666667152,
      "v": 105
    },
    {
      "midi": 46,
      "hit": false,
      "t": 63536.45833333327,
      "d": 57.29166666666424,
      "v": 82
    },
    {
      "midi": 58,
      "hit": false,
      "t": 63541.6666666666,
      "d": 145.83333333333576,
      "v": 90
    },
    {
      "midi": 46,
      "hit": false,
      "t": 63562.49999999991,
      "d": 57.29166666666424,
      "v": 65
    },
    {
      "midi": 44,
      "hit": false,
      "t": 63697.9166666666,
      "d": 119.79166666666424,
      "v": 82
    },
    {
      "midi": 56,
      "hit": false,
      "t": 63697.9166666666,
      "d": 307.2916666666715,
      "v": 90
    },
    {
      "midi": 44,
      "hit": false,
      "t": 63723.95833333324,
      "d": 119.79166666666424,
      "v": 65
    },
    {
      "midi": 41,
      "hit": false,
      "t": 64015.62499999993,
      "d": 119.79166666666424,
      "v": 82
    },
    {
      "midi": 53,
      "hit": false,
      "t": 64015.624999999935,
      "d": 312.5,
      "v": 90
    },
    {
      "midi": 53,
      "hit": false,
      "t": 64020.83333333326,
      "d": 57.29166666666424,
      "v": 105
    },
    {
      "midi": 56,
      "hit": false,
      "t": 64020.83333333326,
      "d": 57.29166666666424,
      "v": 105
    },
    {
      "midi": 77,
      "hit": false,
      "t": 64020.83333333352,
      "d": 145.83333333333576,
      "v": 83
    },
    {
      "midi": 80,
      "hit": false,
      "t": 64026.04166666685,
      "d": 140.625,
      "v": 83
    },
    {
      "midi": 53,
      "hit": false,
      "t": 64041.66666666657,
      "d": 57.29166666667152,
      "v": 105
    },
    {
      "midi": 41,
      "hit": false,
      "t": 64041.66666666657,
      "d": 119.79166666667152,
      "v": 65
    },
    {
      "midi": 56,
      "hit": false,
      "t": 64046.874999999905,
      "d": 57.29166666667152,
      "v": 105
    },
    {
      "midi": 37,
      "hit": false,
      "t": 64333.333333333256,
      "d": 119.79166666667152,
      "v": 82
    },
    {
      "midi": 49,
      "hit": false,
      "t": 64333.33333333327,
      "d": 312.5,
      "v": 90
    },
    {
      "midi": 53,
      "hit": false,
      "t": 64338.54166666659,
      "d": 145.83333333333576,
      "v": 105
    },
    {
      "midi": 56,
      "hit": false,
      "t": 64338.54166666659,
      "d": 145.83333333333576,
      "v": 105
    },
    {
      "midi": 77,
      "hit": false,
      "t": 64338.54166666685,
      "d": 145.83333333333576,
      "v": 83
    },
    {
      "midi": 80,
      "hit": false,
      "t": 64343.75000000019,
      "d": 140.625,
      "v": 83
    },
    {
      "midi": 37,
      "hit": false,
      "t": 64359.374999999905,
      "d": 119.79166666667152,
      "v": 65
    },
    {
      "midi": 53,
      "hit": false,
      "t": 64364.58333333324,
      "d": 145.83333333333576,
      "v": 105
    },
    {
      "midi": 56,
      "hit": false,
      "t": 64364.58333333324,
      "d": 145.83333333333576,
      "v": 105
    },
    {
      "midi": 46,
      "hit": false,
      "t": 64656.24999999993,
      "d": 119.79166666666424,
      "v": 82
    },
    {
      "midi": 58,
      "hit": false,
      "t": 64656.24999999994,
      "d": 307.29166666666424,
      "v": 90
    },
    {
      "midi": 46,
      "hit": false,
      "t": 64677.08333333324,
      "d": 119.79166666666424,
      "v": 65
    },
    {
      "midi": 61,
      "hit": false,
      "t": 64812.49999999993,
      "d": 57.29166666666424,
      "v": 105
    },
    {
      "midi": 65,
      "hit": false,
      "t": 64812.49999999993,
      "d": 57.29166666666424,
      "v": 105
    },
    {
      "midi": 61,
      "hit": false,
      "t": 64838.54166666657,
      "d": 57.29166666666424,
      "v": 105
    },
    {
      "midi": 65,
      "hit": false,
      "t": 64838.54166666657,
      "d": 57.29166666666424,
      "v": 105
    },
    {
      "midi": 73,
      "hit": false,
      "t": 64968.75000000019,
      "d": 72.91666666667152,
      "v": 83
    },
    {
      "midi": 77,
      "hit": false,
      "t": 64973.958333333525,
      "d": 67.70833333333576,
      "v": 83
    },
    {
      "midi": 53,
      "hit": false,
      "t": 65130.208333333256,
      "d": 88.54166666666424,
      "v": 82
    },
    {
      "midi": 65,
      "hit": false,
      "t": 65130.20833333327,
      "d": 229.16666666666424,
      "v": 90
    },
    {
      "midi": 53,
      "hit": false,
      "t": 65156.2499999999,
      "d": 88.54166666666424,
      "v": 65
    },
    {
      "midi": 61,
      "hit": false,
      "t": 65291.666666666584,
      "d": 145.83333333333576,
      "v": 105
    },
    {
      "midi": 65,
      "hit": false,
      "t": 65291.666666666584,
      "d": 145.83333333333576,
      "v": 105
    },
    {
      "midi": 73,
      "hit": false,
      "t": 65291.66666666686,
      "d": 145.83333333333576,
      "v": 83
    },
    {
      "midi": 77,
      "hit": false,
      "t": 65296.8750000002,
      "d": 145.83333333333576,
      "v": 83
    },
    {
      "midi": 61,
      "hit": false,
      "t": 65317.70833333323,
      "d": 145.83333333333576,
      "v": 105
    },
    {
      "midi": 65,
      "hit": false,
      "t": 65317.70833333323,
      "d": 151.04166666667152,
      "v": 105
    },
    {
      "midi": 46,
      "hit": false,
      "t": 65447.916666666584,
      "d": 57.29166666666424,
      "v": 82
    },
    {
      "midi": 58,
      "hit": false,
      "t": 65447.9166666666,
      "d": 151.04166666667152,
      "v": 90
    },
    {
      "midi": 46,
      "hit": false,
      "t": 65473.958333333234,
      "d": 57.29166666666424,
      "v": 65
    },
    {
      "midi": 41,
      "hit": false,
      "t": 65609.37499999991,
      "d": 119.79166666667152,
      "v": 82
    },
    {
      "midi": 53,
      "hit": false,
      "t": 65609.37499999994,
      "d": 307.2916666666715,
      "v": 90
    },
    {
      "midi": 41,
      "hit": false,
      "t": 65635.41666666657,
      "d": 119.79166666667152,
      "v": 65
    },
    {
      "midi": 60,
      "hit": false,
      "t": 65765.62499999991,
      "d": 57.291666666656965,
      "v": 105
    },
    {
      "midi": 65,
      "hit": false,
      "t": 65770.83333333324,
      "d": 57.291666666656965,
      "v": 105
    },
    {
      "midi": 60,
      "hit": false,
      "t": 65791.66666666657,
      "d": 57.291666666656965,
      "v": 105
    },
    {
      "midi": 65,
      "hit": false,
      "t": 65796.8749999999,
      "d": 57.291666666656965,
      "v": 105
    },
    {
      "midi": 68,
      "hit": false,
      "t": 65927.08333333353,
      "d": 151.04166666667152,
      "v": 83
    },
    {
      "midi": 72,
      "hit": false,
      "t": 65927.08333333353,
      "d": 151.04166666667152,
      "v": 83
    },
    {
      "midi": 48,
      "hit": false,
      "t": 66083.33333333323,
      "d": 88.54166666667152,
      "v": 82
    },
    {
      "midi": 60,
      "hit": false,
      "t": 66088.54166666661,
      "d": 229.16666666667152,
      "v": 90
    },
    {
      "midi": 48,
      "hit": false,
      "t": 66109.37499999988,
      "d": 88.54166666667152,
      "v": 65
    },
    {
      "midi": 60,
      "hit": false,
      "t": 66244.79166666657,
      "d": 151.04166666667152,
      "v": 105
    },
    {
      "midi": 65,
      "hit": false,
      "t": 66244.79166666657,
      "d": 151.04166666667152,
      "v": 105
    },
    {
      "midi": 68,
      "hit": false,
      "t": 66250.0000000002,
      "d": 145.83333333332848,
      "v": 83
    },
    {
      "midi": 72,
      "hit": false,
      "t": 66250.0000000002,
      "d": 145.83333333332848,
      "v": 83
    },
    {
      "midi": 60,
      "hit": false,
      "t": 66270.83333333323,
      "d": 151.04166666667152,
      "v": 105
    },
    {
      "midi": 65,
      "hit": false,
      "t": 66270.83333333323,
      "d": 151.04166666667152,
      "v": 105
    },
    {
      "midi": 41,
      "hit": false,
      "t": 66401.04166666657,
      "d": 57.29166666667152,
      "v": 82
    },
    {
      "midi": 53,
      "hit": false,
      "t": 66406.24999999996,
      "d": 151.04166666667152,
      "v": 90
    },
    {
      "midi": 41,
      "hit": false,
      "t": 66432.29166666657,
      "d": 57.29166666667152,
      "v": 65
    },
    {
      "midi": 42,
      "hit": false,
      "t": 66562.49999999991,
      "d": 119.79166666667152,
      "v": 82
    },
    {
      "midi": 54,
      "hit": false,
      "t": 66567.7083333333,
      "d": 307.2916666666715,
      "v": 90
    },
    {
      "midi": 42,
      "hit": false,
      "t": 66588.54166666657,
      "d": 119.79166666667152,
      "v": 65
    },
    {
      "midi": 61,
      "hit": false,
      "t": 66723.95833333326,
      "d": 57.29166666667152,
      "v": 105
    },
    {
      "midi": 66,
      "hit": false,
      "t": 66723.95833333326,
      "d": 57.29166666667152,
      "v": 105
    },
    {
      "midi": 61,
      "hit": false,
      "t": 66749.99999999991,
      "d": 57.29166666667152,
      "v": 105
    },
    {
      "midi": 66,
      "hit": false,
      "t": 66749.99999999991,
      "d": 57.29166666667152,
      "v": 105
    },
    {
      "midi": 70,
      "hit": false,
      "t": 66880.20833333353,
      "d": 72.91666666665697,
      "v": 83
    },
    {
      "midi": 73,
      "hit": false,
      "t": 66885.41666666686,
      "d": 145.83333333332848,
      "v": 83
    },
    {
      "midi": 49,
      "hit": false,
      "t": 67041.6666666666,
      "d": 88.54166666667152,
      "v": 82
    },
    {
      "midi": 61,
      "hit": false,
      "t": 67041.66666666664,
      "d": 229.16666666667152,
      "v": 90
    },
    {
      "midi": 49,
      "hit": false,
      "t": 67067.70833333326,
      "d": 88.54166666667152,
      "v": 65
    },
    {
      "midi": 61,
      "hit": false,
      "t": 67197.9166666666,
      "d": 151.04166666665697,
      "v": 105
    },
    {
      "midi": 66,
      "hit": false,
      "t": 67203.12499999993,
      "d": 145.83333333332848,
      "v": 105
    },
    {
      "midi": 70,
      "hit": false,
      "t": 67203.12500000019,
      "d": 145.83333333332848,
      "v": 83
    },
    {
      "midi": 73,
      "hit": false,
      "t": 67203.12500000019,
      "d": 145.83333333332848,
      "v": 83
    },
    {
      "midi": 61,
      "hit": false,
      "t": 67223.95833333326,
      "d": 151.04166666665697,
      "v": 105
    },
    {
      "midi": 66,
      "hit": false,
      "t": 67229.16666666658,
      "d": 145.83333333332848,
      "v": 105
    },
    {
      "midi": 54,
      "hit": false,
      "t": 67359.37499999993,
      "d": 57.29166666667152,
      "v": 82
    },
    {
      "midi": 66,
      "hit": false,
      "t": 67359.37499999999,
      "d": 151.04166666667152,
      "v": 90
    },
    {
      "midi": 54,
      "hit": false,
      "t": 67385.41666666658,
      "d": 57.29166666667152,
      "v": 65
    },
    {
      "midi": 53,
      "hit": false,
      "t": 67520.83333333327,
      "d": 88.54166666667152,
      "v": 82
    },
    {
      "midi": 65,
      "hit": false,
      "t": 67520.83333333333,
      "d": 229.16666666667152,
      "v": 90
    },
    {
      "midi": 53,
      "hit": false,
      "t": 67546.87499999993,
      "d": 88.54166666667152,
      "v": 65
    },
    {
      "midi": 61,
      "hit": false,
      "t": 67677.08333333327,
      "d": 57.29166666667152,
      "v": 105
    },
    {
      "midi": 65,
      "hit": false,
      "t": 67677.08333333327,
      "d": 57.29166666667152,
      "v": 105
    },
    {
      "midi": 61,
      "hit": false,
      "t": 67703.12499999993,
      "d": 57.291666666656965,
      "v": 105
    },
    {
      "midi": 65,
      "hit": false,
      "t": 67708.33333333326,
      "d": 57.291666666656965,
      "v": 105
    },
    {
      "midi": 51,
      "hit": false,
      "t": 67838.54166666661,
      "d": 88.54166666667152,
      "v": 82
    },
    {
      "midi": 63,
      "hit": false,
      "t": 67838.54166666667,
      "d": 229.16666666667152,
      "v": 90
    },
    {
      "midi": 65,
      "hit": false,
      "t": 67838.54166666685,
      "d": 151.04166666665697,
      "v": 83
    },
    {
      "midi": 68,
      "hit": false,
      "t": 67843.75000000017,
      "d": 145.83333333332848,
      "v": 83
    },
    {
      "midi": 51,
      "hit": false,
      "t": 67864.58333333324,
      "d": 88.54166666667152,
      "v": 65
    },
    {
      "midi": 61,
      "hit": false,
      "t": 67994.79166666661,
      "d": 57.291666666656965,
      "v": 105
    },
    {
      "midi": 65,
      "hit": false,
      "t": 67999.99999999994,
      "d": 57.291666666656965,
      "v": 105
    },
    {
      "midi": 61,
      "hit": false,
      "t": 68020.83333333324,
      "d": 57.291666666656965,
      "v": 105
    },
    {
      "midi": 65,
      "hit": false,
      "t": 68026.04166666657,
      "d": 57.291666666656965,
      "v": 105
    },
    {
      "midi": 49,
      "hit": false,
      "t": 68156.24999999993,
      "d": 88.54166666667152,
      "v": 82
    },
    {
      "midi": 61,
      "hit": false,
      "t": 68156.25000000001,
      "d": 229.16666666667152,
      "v": 90
    },
    {
      "midi": 65,
      "hit": false,
      "t": 68156.25000000017,
      "d": 151.04166666665697,
      "v": 83
    },
    {
      "midi": 68,
      "hit": false,
      "t": 68161.4583333335,
      "d": 145.83333333332848,
      "v": 83
    },
    {
      "midi": 49,
      "hit": false,
      "t": 68182.29166666656,
      "d": 88.54166666667152,
      "v": 65
    },
    {
      "midi": 61,
      "hit": false,
      "t": 68312.49999999993,
      "d": 57.291666666656965,
      "v": 105
    },
    {
      "midi": 65,
      "hit": false,
      "t": 68317.70833333326,
      "d": 57.291666666656965,
      "v": 105
    },
    {
      "midi": 61,
      "hit": false,
      "t": 68338.54166666656,
      "d": 57.291666666656965,
      "v": 105
    },
    {
      "midi": 65,
      "hit": false,
      "t": 68343.74999999988,
      "d": 57.291666666656965,
      "v": 105
    },
    {
      "midi": 48,
      "hit": false,
      "t": 68473.95833333324,
      "d": 88.54166666667152,
      "v": 82
    },
    {
      "midi": 60,
      "hit": false,
      "t": 68473.95833333336,
      "d": 229.16666666667152,
      "v": 90
    },
    {
      "midi": 48,
      "hit": false,
      "t": 68499.99999999987,
      "d": 88.54166666667152,
      "v": 65
    },
    {
      "midi": 61,
      "hit": false,
      "t": 68630.20833333324,
      "d": 57.291666666656965,
      "v": 105
    },
    {
      "midi": 65,
      "hit": false,
      "t": 68635.41666666657,
      "d": 57.291666666656965,
      "v": 105
    },
    {
      "midi": 61,
      "hit": false,
      "t": 68661.45833333321,
      "d": 57.29166666667152,
      "v": 105
    },
    {
      "midi": 65,
      "hit": false,
      "t": 68661.45833333321,
      "d": 57.29166666667152,
      "v": 105
    },
    {
      "midi": 46,
      "hit": false,
      "t": 68791.66666666656,
      "d": 119.79166666667152,
      "v": 82
    },
    {
      "midi": 58,
      "hit": false,
      "t": 68796.87500000003,
      "d": 307.2916666666715,
      "v": 90
    },
    {
      "midi": 46,
      "hit": false,
      "t": 68817.70833333321,
      "d": 119.79166666667152,
      "v": 65
    },
    {
      "midi": 61,
      "hit": false,
      "t": 68953.1249999999,
      "d": 57.29166666667152,
      "v": 105
    },
    {
      "midi": 65,
      "hit": false,
      "t": 68953.1249999999,
      "d": 57.29166666667152,
      "v": 105
    },
    {
      "midi": 61,
      "hit": false,
      "t": 68979.16666666656,
      "d": 57.29166666667152,
      "v": 105
    },
    {
      "midi": 65,
      "hit": false,
      "t": 68979.16666666656,
      "d": 57.29166666667152,
      "v": 105
    },
    {
      "midi": 73,
      "hit": false,
      "t": 69109.37500000016,
      "d": 151.04166666665697,
      "v": 83
    },
    {
      "midi": 77,
      "hit": false,
      "t": 69114.58333333349,
      "d": 145.83333333332848,
      "v": 83
    },
    {
      "midi": 53,
      "hit": false,
      "t": 69270.83333333324,
      "d": 88.54166666667152,
      "v": 82
    },
    {
      "midi": 65,
      "hit": false,
      "t": 69270.83333333337,
      "d": 229.16666666667152,
      "v": 90
    },
    {
      "midi": 53,
      "hit": false,
      "t": 69296.8749999999,
      "d": 88.54166666667152,
      "v": 65
    },
    {
      "midi": 61,
      "hit": false,
      "t": 69427.08333333324,
      "d": 151.04166666665697,
      "v": 105
    },
    {
      "midi": 65,
      "hit": false,
      "t": 69432.29166666657,
      "d": 145.83333333332848,
      "v": 105
    },
    {
      "midi": 73,
      "hit": false,
      "t": 69432.29166666682,
      "d": 145.83333333332848,
      "v": 83
    },
    {
      "midi": 77,
      "hit": false,
      "t": 69432.29166666682,
      "d": 145.83333333332848,
      "v": 83
    },
    {
      "midi": 61,
      "hit": false,
      "t": 69453.1249999999,
      "d": 151.04166666665697,
      "v": 105
    },
    {
      "midi": 65,
      "hit": false,
      "t": 69458.33333333323,
      "d": 145.83333333332848,
      "v": 105
    },
    {
      "midi": 46,
      "hit": false,
      "t": 69588.54166666657,
      "d": 57.29166666667152,
      "v": 82
    },
    {
      "midi": 58,
      "hit": false,
      "t": 69588.54166666672,
      "d": 151.04166666667152,
      "v": 90
    },
    {
      "midi": 46,
      "hit": false,
      "t": 69614.58333333323,
      "d": 57.29166666667152,
      "v": 65
    },
    {
      "midi": 41,
      "hit": false,
      "t": 69744.79166666657,
      "d": 119.79166666667152,
      "v": 82
    },
    {
      "midi": 53,
      "hit": false,
      "t": 69750.00000000006,
      "d": 307.2916666666715,
      "v": 90
    },
    {
      "midi": 41,
      "hit": false,
      "t": 69776.04166666657,
      "d": 119.79166666667152,
      "v": 65
    },
    {
      "midi": 60,
      "hit": false,
      "t": 69906.24999999991,
      "d": 57.29166666667152,
      "v": 105
    },
    {
      "midi": 65,
      "hit": false,
      "t": 69906.24999999991,
      "d": 57.29166666667152,
      "v": 105
    },
    {
      "midi": 60,
      "hit": false,
      "t": 69932.29166666657,
      "d": 57.291666666656965,
      "v": 105
    },
    {
      "midi": 65,
      "hit": false,
      "t": 69937.4999999999,
      "d": 57.291666666656965,
      "v": 105
    },
    {
      "midi": 68,
      "hit": false,
      "t": 70067.70833333347,
      "d": 151.04166666667152,
      "v": 83
    },
    {
      "midi": 72,
      "hit": false,
      "t": 70067.70833333347,
      "d": 151.04166666667152,
      "v": 83
    },
    {
      "midi": 48,
      "hit": false,
      "t": 70223.95833333326,
      "d": 88.54166666667152,
      "v": 82
    },
    {
      "midi": 60,
      "hit": false,
      "t": 70229.16666666673,
      "d": 229.16666666667152,
      "v": 90
    },
    {
      "midi": 48,
      "hit": false,
      "t": 70249.99999999988,
      "d": 88.54166666667152,
      "v": 65
    },
    {
      "midi": 60,
      "hit": false,
      "t": 70385.4166666666,
      "d": 151.04166666667152,
      "v": 105
    },
    {
      "midi": 65,
      "hit": false,
      "t": 70385.4166666666,
      "d": 151.04166666667152,
      "v": 105
    },
    {
      "midi": 68,
      "hit": false,
      "t": 70385.41666666682,
      "d": 151.04166666665697,
      "v": 83
    },
    {
      "midi": 72,
      "hit": false,
      "t": 70390.62500000015,
      "d": 145.83333333332848,
      "v": 83
    },
    {
      "midi": 60,
      "hit": false,
      "t": 70411.45833333323,
      "d": 151.04166666667152,
      "v": 105
    },
    {
      "midi": 65,
      "hit": false,
      "t": 70411.45833333323,
      "d": 151.04166666667152,
      "v": 105
    },
    {
      "midi": 41,
      "hit": false,
      "t": 70541.6666666666,
      "d": 57.29166666667152,
      "v": 82
    },
    {
      "midi": 53,
      "hit": false,
      "t": 70546.87500000007,
      "d": 145.83333333332848,
      "v": 90
    },
    {
      "midi": 41,
      "hit": false,
      "t": 70567.70833333323,
      "d": 57.29166666667152,
      "v": 65
    },
    {
      "midi": 42,
      "hit": false,
      "t": 70703.12499999994,
      "d": 119.79166666667152,
      "v": 82
    },
    {
      "midi": 54,
      "hit": false,
      "t": 70708.3333333334,
      "d": 307.2916666666715,
      "v": 90
    },
    {
      "midi": 42,
      "hit": false,
      "t": 70729.16666666657,
      "d": 119.79166666667152,
      "v": 65
    },
    {
      "midi": 61,
      "hit": false,
      "t": 70864.58333333328,
      "d": 57.29166666667152,
      "v": 105
    },
    {
      "midi": 66,
      "hit": false,
      "t": 70864.58333333328,
      "d": 57.29166666667152,
      "v": 105
    },
    {
      "midi": 61,
      "hit": false,
      "t": 70890.62499999991,
      "d": 57.29166666667152,
      "v": 105
    },
    {
      "midi": 66,
      "hit": false,
      "t": 70890.62499999991,
      "d": 57.29166666667152,
      "v": 105
    },
    {
      "midi": 70,
      "hit": false,
      "t": 71020.83333333347,
      "d": 151.04166666667152,
      "v": 83
    },
    {
      "midi": 73,
      "hit": false,
      "t": 71020.83333333347,
      "d": 151.04166666667152,
      "v": 83
    },
    {
      "midi": 49,
      "hit": false,
      "t": 71182.29166666663,
      "d": 88.54166666667152,
      "v": 82
    },
    {
      "midi": 61,
      "hit": false,
      "t": 71182.29166666674,
      "d": 229.16666666667152,
      "v": 90
    },
    {
      "midi": 49,
      "hit": false,
      "t": 71208.33333333326,
      "d": 88.54166666667152,
      "v": 65
    },
    {
      "midi": 61,
      "hit": false,
      "t": 71338.54166666663,
      "d": 151.04166666665697,
      "v": 105
    },
    {
      "midi": 66,
      "hit": false,
      "t": 71343.74999999996,
      "d": 145.83333333332848,
      "v": 105
    },
    {
      "midi": 70,
      "hit": false,
      "t": 71343.75000000015,
      "d": 223.95833333332848,
      "v": 83
    },
    {
      "midi": 73,
      "hit": false,
      "t": 71343.75000000015,
      "d": 229.16666666665697,
      "v": 83
    },
    {
      "midi": 61,
      "hit": false,
      "t": 71364.58333333326,
      "d": 151.04166666665697,
      "v": 105
    },
    {
      "midi": 66,
      "hit": false,
      "t": 71369.79166666658,
      "d": 145.83333333332848,
      "v": 105
    },
    {
      "midi": 54,
      "hit": false,
      "t": 71499.99999999996,
      "d": 57.29166666667152,
      "v": 82
    },
    {
      "midi": 66,
      "hit": false,
      "t": 71500.00000000009,
      "d": 151.04166666667152,
      "v": 90
    },
    {
      "midi": 54,
      "hit": false,
      "t": 71526.04166666658,
      "d": 57.29166666667152,
      "v": 65
    },
    {
      "midi": 53,
      "hit": false,
      "t": 71661.4583333333,
      "d": 88.54166666667152,
      "v": 82
    },
    {
      "midi": 65,
      "hit": false,
      "t": 71661.45833333343,
      "d": 229.16666666667152,
      "v": 90
    },
    {
      "midi": 53,
      "hit": false,
      "t": 71682.29166666658,
      "d": 88.54166666667152,
      "v": 65
    },
    {
      "midi": 61,
      "hit": false,
      "t": 71817.7083333333,
      "d": 57.29166666667152,
      "v": 105
    },
    {
      "midi": 65,
      "hit": false,
      "t": 71817.7083333333,
      "d": 57.29166666667152,
      "v": 105
    },
    {
      "midi": 61,
      "hit": false,
      "t": 71843.74999999993,
      "d": 57.29166666667152,
      "v": 105
    },
    {
      "midi": 65,
      "hit": false,
      "t": 71843.74999999993,
      "d": 57.29166666667152,
      "v": 105
    },
    {
      "midi": 51,
      "hit": false,
      "t": 71979.16666666664,
      "d": 88.54166666667152,
      "v": 82
    },
    {
      "midi": 63,
      "hit": false,
      "t": 71979.16666666677,
      "d": 229.16666666667152,
      "v": 90
    },
    {
      "midi": 65,
      "hit": false,
      "t": 71979.1666666668,
      "d": 145.83333333332848,
      "v": 83
    },
    {
      "midi": 68,
      "hit": false,
      "t": 71984.37500000013,
      "d": 145.83333333332848,
      "v": 83
    },
    {
      "midi": 51,
      "hit": false,
      "t": 72005.20833333327,
      "d": 88.54166666667152,
      "v": 65
    },
    {
      "midi": 61,
      "hit": false,
      "t": 72135.41666666664,
      "d": 57.29166666667152,
      "v": 105
    },
    {
      "midi": 65,
      "hit": false,
      "t": 72135.41666666664,
      "d": 57.29166666667152,
      "v": 105
    },
    {
      "midi": 61,
      "hit": false,
      "t": 72161.45833333327,
      "d": 57.291666666656965,
      "v": 105
    },
    {
      "midi": 65,
      "hit": false,
      "t": 72166.6666666666,
      "d": 57.291666666656965,
      "v": 105
    },
    {
      "midi": 49,
      "hit": false,
      "t": 72296.87499999999,
      "d": 88.54166666667152,
      "v": 82
    },
    {
      "midi": 61,
      "hit": false,
      "t": 72296.87500000012,
      "d": 229.16666666667152,
      "v": 90
    },
    {
      "midi": 65,
      "hit": false,
      "t": 72296.87500000013,
      "d": 229.16666666665697,
      "v": 83
    },
    {
      "midi": 68,
      "hit": false,
      "t": 72302.08333333346,
      "d": 229.16666666665697,
      "v": 83
    },
    {
      "midi": 49,
      "hit": false,
      "t": 72322.91666666658,
      "d": 88.54166666667152,
      "v": 65
    },
    {
      "midi": 61,
      "hit": false,
      "t": 72453.12499999999,
      "d": 57.291666666656965,
      "v": 105
    },
    {
      "midi": 65,
      "hit": false,
      "t": 72458.33333333331,
      "d": 57.291666666656965,
      "v": 105
    },
    {
      "midi": 61,
      "hit": false,
      "t": 72479.16666666658,
      "d": 57.291666666656965,
      "v": 105
    },
    {
      "midi": 65,
      "hit": false,
      "t": 72484.37499999991,
      "d": 57.291666666656965,
      "v": 105
    },
    {
      "midi": 48,
      "hit": false,
      "t": 72614.5833333333,
      "d": 88.54166666667152,
      "v": 82
    },
    {
      "midi": 60,
      "hit": false,
      "t": 72614.58333333346,
      "d": 229.16666666667152,
      "v": 90
    },
    {
      "midi": 48,
      "hit": false,
      "t": 72640.6249999999,
      "d": 88.54166666667152,
      "v": 65
    },
    {
      "midi": 61,
      "hit": false,
      "t": 72770.8333333333,
      "d": 57.291666666656965,
      "v": 105
    },
    {
      "midi": 65,
      "hit": false,
      "t": 72776.04166666663,
      "d": 57.291666666656965,
      "v": 105
    },
    {
      "midi": 61,
      "hit": false,
      "t": 72796.8749999999,
      "d": 57.291666666656965,
      "v": 105
    },
    {
      "midi": 65,
      "hit": false,
      "t": 72802.08333333323,
      "d": 57.291666666656965,
      "v": 105
    },
    {
      "midi": 46,
      "hit": false,
      "t": 72932.29166666661,
      "d": 119.79166666667152,
      "v": 82
    },
    {
      "midi": 58,
      "hit": false,
      "t": 72937.50000000013,
      "d": 307.2916666666715,
      "v": 90
    },
    {
      "midi": 46,
      "hit": false,
      "t": 72958.33333333321,
      "d": 119.79166666667152,
      "v": 65
    },
    {
      "midi": 61,
      "hit": false,
      "t": 73093.74999999996,
      "d": 57.29166666667152,
      "v": 105
    },
    {
      "midi": 65,
      "hit": false,
      "t": 73093.74999999996,
      "d": 57.29166666667152,
      "v": 105
    },
    {
      "midi": 61,
      "hit": false,
      "t": 73119.79166666656,
      "d": 57.29166666667152,
      "v": 105
    },
    {
      "midi": 65,
      "hit": false,
      "t": 73119.79166666656,
      "d": 57.29166666667152,
      "v": 105
    },
    {
      "midi": 73,
      "hit": false,
      "t": 73250.00000000012,
      "d": 151.04166666665697,
      "v": 83
    },
    {
      "midi": 77,
      "hit": false,
      "t": 73255.20833333344,
      "d": 145.83333333332848,
      "v": 83
    },
    {
      "midi": 53,
      "hit": false,
      "t": 73411.4583333333,
      "d": 88.54166666667152,
      "v": 82
    },
    {
      "midi": 65,
      "hit": false,
      "t": 73411.45833333347,
      "d": 229.16666666667152,
      "v": 90
    },
    {
      "midi": 53,
      "hit": false,
      "t": 73437.4999999999,
      "d": 88.54166666667152,
      "v": 65
    },
    {
      "midi": 61,
      "hit": false,
      "t": 73567.7083333333,
      "d": 151.04166666665697,
      "v": 105
    },
    {
      "midi": 65,
      "hit": false,
      "t": 73572.91666666663,
      "d": 145.83333333332848,
      "v": 105
    },
    {
      "midi": 77,
      "hit": false,
      "t": 73572.91666666677,
      "d": 145.83333333332848,
      "v": 83
    },
    {
      "midi": 73,
      "hit": false,
      "t": 73572.91666666677,
      "d": 223.95833333332848,
      "v": 83
    },
    {
      "midi": 61,
      "hit": false,
      "t": 73593.7499999999,
      "d": 151.04166666665697,
      "v": 105
    },
    {
      "midi": 65,
      "hit": false,
      "t": 73598.95833333323,
      "d": 145.83333333332848,
      "v": 105
    },
    {
      "midi": 46,
      "hit": false,
      "t": 73729.16666666663,
      "d": 57.29166666667152,
      "v": 82
    },
    {
      "midi": 58,
      "hit": false,
      "t": 73729.16666666682,
      "d": 151.04166666667152,
      "v": 90
    },
    {
      "midi": 46,
      "hit": false,
      "t": 73755.20833333323,
      "d": 57.29166666667152,
      "v": 65
    },
    {
      "midi": 41,
      "hit": false,
      "t": 73885.41666666663,
      "d": 88.54166666667152,
      "v": 82
    },
    {
      "midi": 53,
      "hit": false,
      "t": 73890.62500000016,
      "d": 229.16666666667152,
      "v": 90
    },
    {
      "midi": 41,
      "hit": false,
      "t": 73911.45833333323,
      "d": 88.54166666667152,
      "v": 65
    },
    {
      "midi": 60,
      "hit": false,
      "t": 74046.87499999997,
      "d": 57.29166666667152,
      "v": 105
    },
    {
      "midi": 65,
      "hit": false,
      "t": 74046.87499999997,
      "d": 57.29166666667152,
      "v": 105
    },
    {
      "midi": 60,
      "hit": false,
      "t": 74072.91666666657,
      "d": 57.29166666667152,
      "v": 105
    },
    {
      "midi": 65,
      "hit": false,
      "t": 74072.91666666657,
      "d": 57.29166666667152,
      "v": 105
    },
    {
      "midi": 68,
      "hit": false,
      "t": 74208.33333333343,
      "d": 229.16666666667152,
      "v": 83
    },
    {
      "midi": 72,
      "hit": false,
      "t": 74208.33333333343,
      "d": 229.16666666667152,
      "v": 83
    },
    {
      "midi": 48,
      "hit": false,
      "t": 74364.58333333331,
      "d": 88.54166666667152,
      "v": 82
    },
    {
      "midi": 60,
      "hit": false,
      "t": 74364.5833333335,
      "d": 229.16666666667152,
      "v": 90
    },
    {
      "midi": 48,
      "hit": false,
      "t": 74390.62499999991,
      "d": 88.54166666667152,
      "v": 65
    },
    {
      "midi": 60,
      "hit": false,
      "t": 74526.04166666666,
      "d": 145.83333333332848,
      "v": 105
    },
    {
      "midi": 65,
      "hit": false,
      "t": 74526.04166666666,
      "d": 151.04166666665697,
      "v": 105
    },
    {
      "midi": 68,
      "hit": false,
      "t": 74526.04166666677,
      "d": 229.16666666665697,
      "v": 83
    },
    {
      "midi": 72,
      "hit": false,
      "t": 74531.2500000001,
      "d": 223.95833333332848,
      "v": 83
    },
    {
      "midi": 60,
      "hit": false,
      "t": 74552.08333333326,
      "d": 151.04166666667152,
      "v": 105
    },
    {
      "midi": 65,
      "hit": false,
      "t": 74552.08333333326,
      "d": 151.04166666667152,
      "v": 105
    },
    {
      "midi": 41,
      "hit": false,
      "t": 74682.29166666664,
      "d": 57.29166666667152,
      "v": 82
    },
    {
      "midi": 53,
      "hit": false,
      "t": 74687.50000000017,
      "d": 145.83333333332848,
      "v": 90
    },
    {
      "midi": 41,
      "hit": false,
      "t": 74708.33333333326,
      "d": 57.29166666667152,
      "v": 65
    },
    {
      "midi": 42,
      "hit": false,
      "t": 74843.74999999999,
      "d": 119.79166666667152,
      "v": 82
    },
    {
      "midi": 54,
      "hit": false,
      "t": 74843.75000000017,
      "d": 307.2916666666715,
      "v": 90
    },
    {
      "midi": 42,
      "hit": false,
      "t": 74869.7916666666,
      "d": 119.79166666667152,
      "v": 65
    },
    {
      "midi": 61,
      "hit": false,
      "t": 74999.99999999999,
      "d": 57.291666666656965,
      "v": 105
    },
    {
      "midi": 66,
      "hit": false,
      "t": 75005.20833333331,
      "d": 57.291666666656965,
      "v": 105
    },
    {
      "midi": 61,
      "hit": false,
      "t": 75026.0416666666,
      "d": 57.291666666656965,
      "v": 105
    },
    {
      "midi": 66,
      "hit": false,
      "t": 75031.24999999993,
      "d": 57.291666666656965,
      "v": 105
    },
    {
      "midi": 70,
      "hit": false,
      "t": 75161.45833333343,
      "d": 151.04166666667152,
      "v": 83
    },
    {
      "midi": 73,
      "hit": false,
      "t": 75161.45833333343,
      "d": 151.04166666667152,
      "v": 83
    },
    {
      "midi": 49,
      "hit": false,
      "t": 75322.91666666664,
      "d": 88.54166666667152,
      "v": 82
    },
    {
      "midi": 61,
      "hit": false,
      "t": 75322.91666666685,
      "d": 229.16666666667152,
      "v": 90
    },
    {
      "midi": 49,
      "hit": false,
      "t": 75348.95833333326,
      "d": 88.54166666667152,
      "v": 65
    },
    {
      "midi": 61,
      "hit": false,
      "t": 75479.16666666664,
      "d": 151.04166666667152,
      "v": 105
    },
    {
      "midi": 66,
      "hit": false,
      "t": 75479.16666666664,
      "d": 151.04166666667152,
      "v": 105
    },
    {
      "midi": 70,
      "hit": false,
      "t": 75484.3750000001,
      "d": 223.95833333332848,
      "v": 83
    },
    {
      "midi": 73,
      "hit": false,
      "t": 75484.3750000001,
      "d": 223.95833333332848,
      "v": 83
    },
    {
      "midi": 61,
      "hit": false,
      "t": 75505.20833333326,
      "d": 151.04166666665697,
      "v": 105
    },
    {
      "midi": 66,
      "hit": false,
      "t": 75510.41666666658,
      "d": 145.83333333332848,
      "v": 105
    },
    {
      "midi": 54,
      "hit": false,
      "t": 75640.62499999999,
      "d": 57.29166666667152,
      "v": 82
    },
    {
      "midi": 66,
      "hit": false,
      "t": 75640.62500000019,
      "d": 151.04166666667152,
      "v": 90
    },
    {
      "midi": 54,
      "hit": false,
      "t": 75666.66666666658,
      "d": 57.29166666667152,
      "v": 65
    },
    {
      "midi": 53,
      "hit": false,
      "t": 75802.08333333333,
      "d": 88.54166666667152,
      "v": 82
    },
    {
      "midi": 65,
      "hit": false,
      "t": 75802.08333333353,
      "d": 229.16666666667152,
      "v": 90
    },
    {
      "midi": 53,
      "hit": false,
      "t": 75822.91666666658,
      "d": 88.54166666667152,
      "v": 65
    },
    {
      "midi": 61,
      "hit": false,
      "t": 75958.33333333333,
      "d": 57.29166666667152,
      "v": 105
    },
    {
      "midi": 65,
      "hit": false,
      "t": 75958.33333333333,
      "d": 57.29166666667152,
      "v": 105
    },
    {
      "midi": 61,
      "hit": false,
      "t": 75984.37499999993,
      "d": 57.29166666667152,
      "v": 105
    },
    {
      "midi": 65,
      "hit": false,
      "t": 75984.37499999993,
      "d": 57.29166666667152,
      "v": 105
    },
    {
      "midi": 51,
      "hit": false,
      "t": 76114.58333333333,
      "d": 88.54166666667152,
      "v": 82
    },
    {
      "midi": 65,
      "hit": false,
      "t": 76119.79166666676,
      "d": 145.83333333332848,
      "v": 83
    },
    {
      "midi": 68,
      "hit": false,
      "t": 76119.79166666676,
      "d": 145.83333333332848,
      "v": 83
    },
    {
      "midi": 63,
      "hit": false,
      "t": 76119.79166666688,
      "d": 229.16666666667152,
      "v": 90
    },
    {
      "midi": 51,
      "hit": false,
      "t": 76140.62499999993,
      "d": 88.54166666667152,
      "v": 65
    },
    {
      "midi": 61,
      "hit": false,
      "t": 76276.04166666667,
      "d": 57.29166666667152,
      "v": 105
    },
    {
      "midi": 65,
      "hit": false,
      "t": 76276.04166666667,
      "d": 57.29166666667152,
      "v": 105
    },
    {
      "midi": 61,
      "hit": false,
      "t": 76302.08333333327,
      "d": 57.29166666667152,
      "v": 105
    },
    {
      "midi": 65,
      "hit": false,
      "t": 76302.08333333327,
      "d": 57.29166666667152,
      "v": 105
    },
    {
      "midi": 49,
      "hit": false,
      "t": 76437.50000000001,
      "d": 88.54166666667152,
      "v": 82
    },
    {
      "midi": 65,
      "hit": false,
      "t": 76437.50000000009,
      "d": 229.16666666665697,
      "v": 83
    },
    {
      "midi": 61,
      "hit": false,
      "t": 76437.50000000022,
      "d": 229.16666666667152,
      "v": 90
    },
    {
      "midi": 68,
      "hit": false,
      "t": 76442.70833333342,
      "d": 140.625,
      "v": 83
    },
    {
      "midi": 49,
      "hit": false,
      "t": 76463.54166666661,
      "d": 88.54166666667152,
      "v": 65
    },
    {
      "midi": 61,
      "hit": false,
      "t": 76593.75000000001,
      "d": 57.291666666656965,
      "v": 105
    },
    {
      "midi": 65,
      "hit": false,
      "t": 76598.95833333334,
      "d": 57.291666666656965,
      "v": 105
    },
    {
      "midi": 61,
      "hit": false,
      "t": 76619.79166666661,
      "d": 57.291666666656965,
      "v": 105
    },
    {
      "midi": 65,
      "hit": false,
      "t": 76624.99999999994,
      "d": 57.291666666656965,
      "v": 105
    },
    {
      "midi": 48,
      "hit": false,
      "t": 76755.20833333333,
      "d": 88.54166666667152,
      "v": 82
    },
    {
      "midi": 60,
      "hit": false,
      "t": 76755.20833333356,
      "d": 229.16666666667152,
      "v": 90
    },
    {
      "midi": 48,
      "hit": false,
      "t": 76781.24999999993,
      "d": 88.54166666667152,
      "v": 65
    },
    {
      "midi": 61,
      "hit": false,
      "t": 76911.45833333333,
      "d": 57.291666666656965,
      "v": 105
    },
    {
      "midi": 65,
      "hit": false,
      "t": 76916.66666666666,
      "d": 57.291666666656965,
      "v": 105
    },
    {
      "midi": 61,
      "hit": false,
      "t": 76937.49999999993,
      "d": 57.291666666656965,
      "v": 105
    },
    {
      "midi": 65,
      "hit": false,
      "t": 76942.70833333326,
      "d": 57.291666666656965,
      "v": 105
    },
    {
      "midi": 46,
      "hit": false,
      "t": 77072.91666666664,
      "d": 119.79166666667152,
      "v": 82
    },
    {
      "midi": 58,
      "hit": false,
      "t": 77078.12500000023,
      "d": 302.0833333333285,
      "v": 90
    },
    {
      "midi": 46,
      "hit": false,
      "t": 77098.95833333324,
      "d": 119.79166666667152,
      "v": 65
    },
    {
      "midi": 61,
      "hit": false,
      "t": 77229.16666666664,
      "d": 57.291666666656965,
      "v": 105
    },
    {
      "midi": 65,
      "hit": false,
      "t": 77234.37499999997,
      "d": 57.291666666656965,
      "v": 105
    },
    {
      "midi": 61,
      "hit": false,
      "t": 77260.41666666658,
      "d": 57.29166666667152,
      "v": 105
    },
    {
      "midi": 65,
      "hit": false,
      "t": 77260.41666666658,
      "d": 57.29166666667152,
      "v": 105
    },
    {
      "midi": 73,
      "hit": false,
      "t": 77390.62500000007,
      "d": 151.04166666667152,
      "v": 83
    },
    {
      "midi": 77,
      "hit": false,
      "t": 77390.62500000007,
      "d": 151.04166666667152,
      "v": 83
    },
    {
      "midi": 53,
      "hit": false,
      "t": 77552.0833333333,
      "d": 88.54166666667152,
      "v": 82
    },
    {
      "midi": 65,
      "hit": false,
      "t": 77552.08333333356,
      "d": 229.16666666667152,
      "v": 90
    },
    {
      "midi": 53,
      "hit": false,
      "t": 77578.12499999993,
      "d": 88.54166666667152,
      "v": 65
    },
    {
      "midi": 61,
      "hit": false,
      "t": 77708.3333333333,
      "d": 151.04166666667152,
      "v": 105
    },
    {
      "midi": 65,
      "hit": false,
      "t": 77708.3333333333,
      "d": 151.04166666667152,
      "v": 105
    },
    {
      "midi": 73,
      "hit": false,
      "t": 77713.54166666674,
      "d": 145.83333333332848,
      "v": 83
    },
    {
      "midi": 77,
      "hit": false,
      "t": 77713.54166666674,
      "d": 145.83333333332848,
      "v": 83
    },
    {
      "midi": 61,
      "hit": false,
      "t": 77734.37499999993,
      "d": 151.04166666665697,
      "v": 105
    },
    {
      "midi": 65,
      "hit": false,
      "t": 77739.58333333326,
      "d": 145.83333333332848,
      "v": 105
    },
    {
      "midi": 46,
      "hit": false,
      "t": 77869.79166666664,
      "d": 57.29166666667152,
      "v": 82
    },
    {
      "midi": 58,
      "hit": false,
      "t": 77869.7916666669,
      "d": 151.04166666667152,
      "v": 90
    },
    {
      "midi": 46,
      "hit": false,
      "t": 77895.83333333326,
      "d": 57.29166666667152,
      "v": 65
    },
    {
      "midi": 41,
      "hit": false,
      "t": 78026.04166666664,
      "d": 119.79166666667152,
      "v": 82
    },
    {
      "midi": 53,
      "hit": false,
      "t": 78031.25000000025,
      "d": 307.2916666666715,
      "v": 90
    },
    {
      "midi": 41,
      "hit": false,
      "t": 78052.08333333326,
      "d": 119.79166666667152,
      "v": 65
    },
    {
      "midi": 60,
      "hit": false,
      "t": 78187.49999999999,
      "d": 57.29166666667152,
      "v": 105
    },
    {
      "midi": 65,
      "hit": false,
      "t": 78187.49999999999,
      "d": 57.29166666667152,
      "v": 105
    },
    {
      "midi": 60,
      "hit": false,
      "t": 78213.5416666666,
      "d": 57.291666666656965,
      "v": 105
    },
    {
      "midi": 65,
      "hit": false,
      "t": 78218.74999999993,
      "d": 57.291666666656965,
      "v": 105
    },
    {
      "midi": 68,
      "hit": false,
      "t": 78348.9583333334,
      "d": 145.83333333332848,
      "v": 83
    },
    {
      "midi": 72,
      "hit": false,
      "t": 78348.9583333334,
      "d": 151.04166666665697,
      "v": 83
    },
    {
      "midi": 48,
      "hit": false,
      "t": 78505.20833333333,
      "d": 88.54166666667152,
      "v": 82
    },
    {
      "midi": 60,
      "hit": false,
      "t": 78505.20833333359,
      "d": 234.375,
      "v": 90
    },
    {
      "midi": 48,
      "hit": false,
      "t": 78531.24999999991,
      "d": 88.54166666667152,
      "v": 65
    },
    {
      "midi": 60,
      "hit": false,
      "t": 78666.66666666667,
      "d": 145.83333333332848,
      "v": 105
    },
    {
      "midi": 65,
      "hit": false,
      "t": 78666.66666666667,
      "d": 151.04166666665697,
      "v": 105
    },
    {
      "midi": 68,
      "hit": false,
      "t": 78666.66666666673,
      "d": 229.16666666665697,
      "v": 83
    },
    {
      "midi": 72,
      "hit": false,
      "t": 78671.87500000006,
      "d": 223.95833333332848,
      "v": 83
    },
    {
      "midi": 60,
      "hit": false,
      "t": 78692.70833333326,
      "d": 151.04166666667152,
      "v": 105
    },
    {
      "midi": 65,
      "hit": false,
      "t": 78692.70833333326,
      "d": 151.04166666667152,
      "v": 105
    },
    {
      "midi": 41,
      "hit": false,
      "t": 78822.91666666666,
      "d": 57.29166666667152,
      "v": 82
    },
    {
      "midi": 53,
      "hit": false,
      "t": 78828.12500000026,
      "d": 145.83333333332848,
      "v": 90
    },
    {
      "midi": 41,
      "hit": false,
      "t": 78848.95833333326,
      "d": 57.29166666667152,
      "v": 65
    },
    {
      "midi": 44,
      "hit": false,
      "t": 78984.375,
      "d": 119.79166666667152,
      "v": 82
    },
    {
      "midi": 56,
      "hit": false,
      "t": 78989.58333333359,
      "d": 307.2916666666715,
      "v": 90
    },
    {
      "midi": 44,
      "hit": false,
      "t": 79010.4166666666,
      "d": 119.79166666667152,
      "v": 65
    },
    {
      "midi": 60,
      "hit": false,
      "t": 79140.625,
      "d": 57.291666666656965,
      "v": 105
    },
    {
      "midi": 63,
      "hit": false,
      "t": 79145.83333333333,
      "d": 57.291666666656965,
      "v": 105
    },
    {
      "midi": 60,
      "hit": false,
      "t": 79171.87499999994,
      "d": 57.29166666667152,
      "v": 105
    },
    {
      "midi": 63,
      "hit": false,
      "t": 79171.87499999994,
      "d": 57.29166666667152,
      "v": 105
    },
    {
      "midi": 72,
      "hit": false,
      "t": 79302.08333333339,
      "d": 151.04166666667152,
      "v": 83
    },
    {
      "midi": 75,
      "hit": false,
      "t": 79302.08333333339,
      "d": 151.04166666667152,
      "v": 83
    },
    {
      "midi": 51,
      "hit": false,
      "t": 79463.54166666666,
      "d": 88.54166666667152,
      "v": 82
    },
    {
      "midi": 63,
      "hit": false,
      "t": 79463.54166666693,
      "d": 229.16666666667152,
      "v": 90
    },
    {
      "midi": 51,
      "hit": false,
      "t": 79489.58333333328,
      "d": 88.54166666667152,
      "v": 65
    },
    {
      "midi": 60,
      "hit": false,
      "t": 79619.79166666666,
      "d": 151.04166666667152,
      "v": 105
    },
    {
      "midi": 63,
      "hit": false,
      "t": 79619.79166666666,
      "d": 151.04166666667152,
      "v": 105
    },
    {
      "midi": 75,
      "hit": false,
      "t": 79625.00000000006,
      "d": 145.83333333332848,
      "v": 83
    },
    {
      "midi": 72,
      "hit": false,
      "t": 79625.00000000006,
      "d": 223.95833333332848,
      "v": 83
    },
    {
      "midi": 60,
      "hit": false,
      "t": 79645.83333333328,
      "d": 151.04166666665697,
      "v": 105
    },
    {
      "midi": 63,
      "hit": false,
      "t": 79651.04166666661,
      "d": 145.83333333332848,
      "v": 105
    },
    {
      "midi": 44,
      "hit": false,
      "t": 79781.25,
      "d": 57.29166666667152,
      "v": 82
    },
    {
      "midi": 56,
      "hit": false,
      "t": 79781.25000000028,
      "d": 151.04166666667152,
      "v": 90
    },
    {
      "midi": 44,
      "hit": false,
      "t": 79807.29166666661,
      "d": 57.29166666667152,
      "v": 65
    },
    {
      "midi": 42,
      "hit": false,
      "t": 79937.5,
      "d": 88.54166666667152,
      "v": 82
    },
    {
      "midi": 54,
      "hit": false,
      "t": 79942.70833333362,
      "d": 229.16666666667152,
      "v": 90
    },
    {
      "midi": 42,
      "hit": false,
      "t": 79963.54166666661,
      "d": 88.54166666667152,
      "v": 65
    },
    {
      "midi": 58,
      "hit": false,
      "t": 80098.95833333334,
      "d": 57.29166666667152,
      "v": 105
    },
    {
      "midi": 61,
      "hit": false,
      "t": 80098.95833333334,
      "d": 57.29166666667152,
      "v": 105
    },
    {
      "midi": 58,
      "hit": false,
      "t": 80124.99999999996,
      "d": 57.29166666667152,
      "v": 105
    },
    {
      "midi": 61,
      "hit": false,
      "t": 80124.99999999996,
      "d": 57.29166666667152,
      "v": 105
    },
    {
      "midi": 41,
      "hit": false,
      "t": 80255.20833333334,
      "d": 88.54166666667152,
      "v": 82
    },
    {
      "midi": 70,
      "hit": false,
      "t": 80260.41666666672,
      "d": 67.70833333332848,
      "v": 83
    },
    {
      "midi": 73,
      "hit": false,
      "t": 80260.41666666672,
      "d": 145.83333333332848,
      "v": 83
    },
    {
      "midi": 53,
      "hit": false,
      "t": 80260.41666666696,
      "d": 229.16666666667152,
      "v": 90
    },
    {
      "midi": 41,
      "hit": false,
      "t": 80286.4583333333,
      "d": 88.54166666667152,
      "v": 65
    },
    {
      "midi": 58,
      "hit": false,
      "t": 80416.66666666669,
      "d": 57.29166666667152,
      "v": 105
    },
    {
      "midi": 61,
      "hit": false,
      "t": 80416.66666666669,
      "d": 57.29166666667152,
      "v": 105
    },
    {
      "midi": 58,
      "hit": false,
      "t": 80442.7083333333,
      "d": 57.29166666667152,
      "v": 105
    },
    {
      "midi": 61,
      "hit": false,
      "t": 80442.7083333333,
      "d": 57.29166666667152,
      "v": 105
    },
    {
      "midi": 39,
      "hit": false,
      "t": 80578.12500000003,
      "d": 88.54166666667152,
      "v": 82
    },
    {
      "midi": 70,
      "hit": false,
      "t": 80578.12500000004,
      "d": 145.83333333332848,
      "v": 83
    },
    {
      "midi": 51,
      "hit": false,
      "t": 80578.1250000003,
      "d": 229.16666666667152,
      "v": 90
    },
    {
      "midi": 73,
      "hit": false,
      "t": 80583.33333333337,
      "d": 145.83333333332848,
      "v": 83
    },
    {
      "midi": 39,
      "hit": false,
      "t": 80604.16666666664,
      "d": 88.54166666667152,
      "v": 65
    },
    {
      "midi": 58,
      "hit": false,
      "t": 80734.37500000003,
      "d": 57.291666666656965,
      "v": 105
    },
    {
      "midi": 61,
      "hit": false,
      "t": 80739.58333333336,
      "d": 57.291666666656965,
      "v": 105
    },
    {
      "midi": 58,
      "hit": false,
      "t": 80760.41666666664,
      "d": 57.291666666656965,
      "v": 105
    },
    {
      "midi": 61,
      "hit": false,
      "t": 80765.62499999997,
      "d": 57.291666666656965,
      "v": 105
    },
    {
      "midi": 37,
      "hit": false,
      "t": 80895.83333333334,
      "d": 88.54166666667152,
      "v": 82
    },
    {
      "midi": 49,
      "hit": false,
      "t": 80895.83333333365,
      "d": 229.16666666667152,
      "v": 90
    },
    {
      "midi": 37,
      "hit": false,
      "t": 80921.87499999996,
      "d": 88.54166666667152,
      "v": 65
    },
    {
      "midi": 58,
      "hit": false,
      "t": 81052.08333333334,
      "d": 57.291666666656965,
      "v": 105
    },
    {
      "midi": 61,
      "hit": false,
      "t": 81057.29166666667,
      "d": 57.291666666656965,
      "v": 105
    },
    {
      "midi": 58,
      "hit": false,
      "t": 81078.12499999996,
      "d": 57.291666666656965,
      "v": 105
    },
    {
      "midi": 61,
      "hit": false,
      "t": 81083.33333333328,
      "d": 57.291666666656965,
      "v": 105
    },
    {
      "midi": 39,
      "hit": false,
      "t": 81213.54166666666,
      "d": 119.79166666667152,
      "v": 82
    },
    {
      "midi": 51,
      "hit": false,
      "t": 81218.75000000032,
      "d": 307.2916666666715,
      "v": 90
    },
    {
      "midi": 39,
      "hit": false,
      "t": 81239.58333333327,
      "d": 119.79166666667152,
      "v": 65
    },
    {
      "midi": 54,
      "hit": false,
      "t": 81369.79166666666,
      "d": 57.291666666656965,
      "v": 105
    },
    {
      "midi": 58,
      "hit": false,
      "t": 81374.99999999999,
      "d": 57.291666666656965,
      "v": 105
    },
    {
      "midi": 54,
      "hit": false,
      "t": 81401.04166666661,
      "d": 57.29166666667152,
      "v": 105
    },
    {
      "midi": 58,
      "hit": false,
      "t": 81401.04166666661,
      "d": 57.29166666667152,
      "v": 105
    },
    {
      "midi": 78,
      "hit": false,
      "t": 81536.45833333337,
      "d": 145.83333333332848,
      "v": 83
    },
    {
      "midi": 82,
      "hit": false,
      "t": 81536.45833333337,
      "d": 145.83333333332848,
      "v": 83
    },
    {
      "midi": 42,
      "hit": false,
      "t": 81692.70833333331,
      "d": 88.54166666667152,
      "v": 82
    },
    {
      "midi": 54,
      "hit": false,
      "t": 81692.70833333366,
      "d": 546.875,
      "v": 90
    },
    {
      "midi": 42,
      "hit": false,
      "t": 81718.74999999996,
      "d": 88.54166666667152,
      "v": 65
    },
    {
      "midi": 54,
      "hit": false,
      "t": 81854.16666666666,
      "d": 145.83333333332848,
      "v": 105
    },
    {
      "midi": 58,
      "hit": false,
      "t": 81854.16666666666,
      "d": 145.83333333332848,
      "v": 105
    },
    {
      "midi": 78,
      "hit": false,
      "t": 81859.37500000003,
      "d": 140.625,
      "v": 83
    },
    {
      "midi": 82,
      "hit": false,
      "t": 81859.37500000003,
      "d": 140.625,
      "v": 83
    },
    {
      "midi": 54,
      "hit": false,
      "t": 81874.99999999996,
      "d": 151.04166666665697,
      "v": 105
    },
    {
      "midi": 58,
      "hit": false,
      "t": 81880.20833333328,
      "d": 145.83333333332848,
      "v": 105
    },
    {
      "midi": 46,
      "hit": false,
      "t": 82010.41666666666,
      "d": 57.29166666667152,
      "v": 82
    },
    {
      "midi": 58,
      "hit": false,
      "t": 82010.41666666699,
      "d": 151.04166666667152,
      "v": 90
    },
    {
      "midi": 46,
      "hit": false,
      "t": 82036.45833333328,
      "d": 57.29166666667152,
      "v": 65
    },
    {
      "midi": 44,
      "hit": false,
      "t": 82171.875,
      "d": 119.79166666667152,
      "v": 82
    },
    {
      "midi": 56,
      "hit": false,
      "t": 82177.08333333366,
      "d": 302.0833333333285,
      "v": 90
    },
    {
      "midi": 44,
      "hit": false,
      "t": 82192.70833333328,
      "d": 119.79166666667152,
      "v": 65
    },
    {
      "midi": 41,
      "hit": false,
      "t": 82489.58333333334,
      "d": 119.79166666667152,
      "v": 82
    },
    {
      "midi": 53,
      "hit": false,
      "t": 82494.79166666667,
      "d": 57.29166666667152,
      "v": 105
    },
    {
      "midi": 56,
      "hit": false,
      "t": 82494.79166666667,
      "d": 57.29166666667152,
      "v": 105
    },
    {
      "midi": 53,
      "hit": false,
      "t": 82494.79166666699,
      "d": 302.0833333333285,
      "v": 90
    },
    {
      "midi": 77,
      "hit": false,
      "t": 82500.00000000003,
      "d": 140.625,
      "v": 83
    },
    {
      "midi": 80,
      "hit": false,
      "t": 82500.00000000003,
      "d": 140.625,
      "v": 83
    },
    {
      "midi": 53,
      "hit": false,
      "t": 82515.62499999996,
      "d": 57.29166666667152,
      "v": 105
    },
    {
      "midi": 56,
      "hit": false,
      "t": 82515.62499999996,
      "d": 57.29166666667152,
      "v": 105
    },
    {
      "midi": 41,
      "hit": false,
      "t": 82515.62499999996,
      "d": 119.79166666667152,
      "v": 65
    },
    {
      "midi": 37,
      "hit": false,
      "t": 82807.29166666669,
      "d": 119.79166666665697,
      "v": 82
    },
    {
      "midi": 53,
      "hit": false,
      "t": 82812.50000000001,
      "d": 114.58333333332848,
      "v": 105
    },
    {
      "midi": 56,
      "hit": false,
      "t": 82812.50000000001,
      "d": 119.79166666665697,
      "v": 105
    },
    {
      "midi": 49,
      "hit": false,
      "t": 82812.50000000032,
      "d": 302.0833333333285,
      "v": 90
    },
    {
      "midi": 77,
      "hit": false,
      "t": 82817.70833333336,
      "d": 135.41666666667152,
      "v": 83
    },
    {
      "midi": 80,
      "hit": false,
      "t": 82817.70833333336,
      "d": 140.625,
      "v": 83
    },
    {
      "midi": 37,
      "hit": false,
      "t": 82833.3333333333,
      "d": 119.79166666667152,
      "v": 65
    },
    {
      "midi": 53,
      "hit": false,
      "t": 82833.3333333333,
      "d": 119.79166666667152,
      "v": 105
    },
    {
      "midi": 56,
      "hit": false,
      "t": 82833.3333333333,
      "d": 119.79166666667152,
      "v": 105
    },
    {
      "midi": 39,
      "hit": false,
      "t": 83125,
      "d": 119.79166666667152,
      "v": 82
    },
    {
      "midi": 51,
      "hit": false,
      "t": 83130.20833333365,
      "d": 302.0833333333285,
      "v": 90
    },
    {
      "midi": 39,
      "hit": false,
      "t": 83151.04166666664,
      "d": 119.79166666667152,
      "v": 65
    },
    {
      "midi": 54,
      "hit": false,
      "t": 83281.25,
      "d": 57.291666666656965,
      "v": 105
    },
    {
      "midi": 58,
      "hit": false,
      "t": 83286.45833333333,
      "d": 57.291666666656965,
      "v": 105
    },
    {
      "midi": 54,
      "hit": false,
      "t": 83307.29166666664,
      "d": 57.291666666656965,
      "v": 105
    },
    {
      "midi": 58,
      "hit": false,
      "t": 83312.49999999997,
      "d": 57.291666666656965,
      "v": 105
    },
    {
      "midi": 78,
      "hit": false,
      "t": 83447.91666666669,
      "d": 145.83333333332848,
      "v": 83
    },
    {
      "midi": 82,
      "hit": false,
      "t": 83447.91666666669,
      "d": 145.83333333332848,
      "v": 83
    },
    {
      "midi": 42,
      "hit": false,
      "t": 83598.95833333331,
      "d": 119.79166666667152,
      "v": 82
    },
    {
      "midi": 54,
      "hit": false,
      "t": 83604.16666666698,
      "d": 546.875,
      "v": 90
    },
    {
      "midi": 42,
      "hit": false,
      "t": 83630.2083333333,
      "d": 119.79166666667152,
      "v": 65
    },
    {
      "midi": 54,
      "hit": false,
      "t": 83765.62499999999,
      "d": 145.83333333332848,
      "v": 105
    },
    {
      "midi": 58,
      "hit": false,
      "t": 83765.62499999999,
      "d": 145.83333333332848,
      "v": 105
    },
    {
      "midi": 78,
      "hit": false,
      "t": 83765.62500000001,
      "d": 145.83333333332848,
      "v": 83
    },
    {
      "midi": 82,
      "hit": false,
      "t": 83770.83333333334,
      "d": 140.625,
      "v": 83
    },
    {
      "midi": 54,
      "hit": false,
      "t": 83786.4583333333,
      "d": 151.04166666667152,
      "v": 105
    },
    {
      "midi": 58,
      "hit": false,
      "t": 83786.4583333333,
      "d": 151.04166666667152,
      "v": 105
    },
    {
      "midi": 46,
      "hit": false,
      "t": 83921.87499999999,
      "d": 57.29166666667152,
      "v": 82
    },
    {
      "midi": 58,
      "hit": false,
      "t": 83921.8750000003,
      "d": 151.04166666667152,
      "v": 90
    },
    {
      "midi": 46,
      "hit": false,
      "t": 83947.91666666664,
      "d": 57.29166666667152,
      "v": 65
    },
    {
      "midi": 44,
      "hit": false,
      "t": 84083.33333333333,
      "d": 119.79166666667152,
      "v": 82
    },
    {
      "midi": 56,
      "hit": false,
      "t": 84088.54166666698,
      "d": 302.0833333333285,
      "v": 90
    },
    {
      "midi": 44,
      "hit": false,
      "t": 84104.16666666664,
      "d": 119.79166666667152,
      "v": 67
    },
    {
      "midi": 41,
      "hit": false,
      "t": 84401.04166666667,
      "d": 119.79166666667152,
      "v": 82
    },
    {
      "midi": 53,
      "hit": false,
      "t": 84401.04166666698,
      "d": 307.2916666666715,
      "v": 90
    },
    {
      "midi": 53,
      "hit": false,
      "t": 84406.25,
      "d": 57.29166666667152,
      "v": 105
    },
    {
      "midi": 56,
      "hit": false,
      "t": 84406.25,
      "d": 57.29166666667152,
      "v": 105
    },
    {
      "midi": 77,
      "hit": false,
      "t": 84406.25000000001,
      "d": 145.83333333332848,
      "v": 83
    },
    {
      "midi": 80,
      "hit": false,
      "t": 84411.45833333334,
      "d": 140.625,
      "v": 83
    },
    {
      "midi": 41,
      "hit": false,
      "t": 84421.87499999999,
      "d": 119.79166666667152,
      "v": 65
    },
    {
      "midi": 53,
      "hit": false,
      "t": 84427.08333333331,
      "d": 57.29166666667152,
      "v": 105
    },
    {
      "midi": 56,
      "hit": false,
      "t": 84427.08333333331,
      "d": 57.29166666667152,
      "v": 105
    },
    {
      "midi": 37,
      "hit": false,
      "t": 84718.75000000001,
      "d": 119.79166666665697,
      "v": 82
    },
    {
      "midi": 53,
      "hit": false,
      "t": 84723.95833333334,
      "d": 114.58333333332848,
      "v": 105
    },
    {
      "midi": 56,
      "hit": false,
      "t": 84723.95833333334,
      "d": 119.79166666665697,
      "v": 105
    },
    {
      "midi": 49,
      "hit": false,
      "t": 84723.95833333365,
      "d": 302.0833333333285,
      "v": 90
    },
    {
      "midi": 80,
      "hit": false,
      "t": 84729.16666666667,
      "d": 135.41666666667152,
      "v": 83
    },
    {
      "midi": 77,
      "hit": false,
      "t": 84729.16666666667,
      "d": 218.75,
      "v": 83
    },
    {
      "midi": 37,
      "hit": false,
      "t": 84744.79166666666,
      "d": 119.79166666667152,
      "v": 65
    },
    {
      "midi": 53,
      "hit": false,
      "t": 84744.79166666666,
      "d": 119.79166666667152,
      "v": 105
    },
    {
      "midi": 56,
      "hit": false,
      "t": 84744.79166666666,
      "d": 119.79166666667152,
      "v": 105
    },
    {
      "midi": 39,
      "hit": false,
      "t": 85036.45833333333,
      "d": 119.79166666667152,
      "v": 82
    },
    {
      "midi": 51,
      "hit": false,
      "t": 85041.66666666698,
      "d": 302.0833333333285,
      "v": 90
    },
    {
      "midi": 39,
      "hit": false,
      "t": 85062.5,
      "d": 119.79166666667152,
      "v": 65
    },
    {
      "midi": 54,
      "hit": false,
      "t": 85192.70833333333,
      "d": 57.291666666656965,
      "v": 105
    },
    {
      "midi": 58,
      "hit": false,
      "t": 85197.91666666666,
      "d": 57.291666666656965,
      "v": 105
    },
    {
      "midi": 54,
      "hit": false,
      "t": 85218.75,
      "d": 57.291666666656965,
      "v": 105
    },
    {
      "midi": 58,
      "hit": false,
      "t": 85223.95833333333,
      "d": 57.291666666656965,
      "v": 105
    },
    {
      "midi": 78,
      "hit": false,
      "t": 85359.375,
      "d": 145.83333333332848,
      "v": 83
    },
    {
      "midi": 82,
      "hit": false,
      "t": 85359.375,
      "d": 145.83333333332848,
      "v": 83
    },
    {
      "midi": 42,
      "hit": false,
      "t": 85510.41666666664,
      "d": 119.79166666667152,
      "v": 82
    },
    {
      "midi": 54,
      "hit": false,
      "t": 85515.6250000003,
      "d": 546.875,
      "v": 90
    },
    {
      "midi": 42,
      "hit": false,
      "t": 85536.45833333331,
      "d": 119.79166666667152,
      "v": 65
    },
    {
      "midi": 54,
      "hit": false,
      "t": 85677.08333333331,
      "d": 145.83333333332848,
      "v": 105
    },
    {
      "midi": 58,
      "hit": false,
      "t": 85677.08333333331,
      "d": 145.83333333332848,
      "v": 105
    },
    {
      "midi": 78,
      "hit": false,
      "t": 85682.29166666666,
      "d": 140.625,
      "v": 83
    },
    {
      "midi": 82,
      "hit": false,
      "t": 85682.29166666666,
      "d": 140.625,
      "v": 83
    },
    {
      "midi": 54,
      "hit": false,
      "t": 85697.91666666666,
      "d": 151.04166666667152,
      "v": 105
    },
    {
      "midi": 58,
      "hit": false,
      "t": 85697.91666666666,
      "d": 151.04166666667152,
      "v": 105
    },
    {
      "midi": 46,
      "hit": false,
      "t": 85828.12499999997,
      "d": 57.29166666667152,
      "v": 82
    },
    {
      "midi": 58,
      "hit": false,
      "t": 85833.33333333363,
      "d": 151.04166666667152,
      "v": 90
    },
    {
      "midi": 46,
      "hit": false,
      "t": 85859.375,
      "d": 57.29166666667152,
      "v": 65
    },
    {
      "midi": 44,
      "hit": false,
      "t": 85994.79166666664,
      "d": 119.79166666667152,
      "v": 82
    },
    {
      "midi": 56,
      "hit": false,
      "t": 86000.0000000003,
      "d": 302.0833333333285,
      "v": 90
    },
    {
      "midi": 44,
      "hit": false,
      "t": 86015.625,
      "d": 119.79166666667152,
      "v": 65
    },
    {
      "midi": 41,
      "hit": false,
      "t": 86312.49999999999,
      "d": 119.79166666667152,
      "v": 82
    },
    {
      "midi": 53,
      "hit": false,
      "t": 86312.5000000003,
      "d": 307.2916666666715,
      "v": 90
    },
    {
      "midi": 53,
      "hit": false,
      "t": 86317.70833333331,
      "d": 57.29166666667152,
      "v": 105
    },
    {
      "midi": 56,
      "hit": false,
      "t": 86317.70833333331,
      "d": 57.29166666667152,
      "v": 105
    },
    {
      "midi": 77,
      "hit": false,
      "t": 86317.70833333333,
      "d": 145.83333333332848,
      "v": 83
    },
    {
      "midi": 80,
      "hit": false,
      "t": 86322.91666666666,
      "d": 140.625,
      "v": 83
    },
    {
      "midi": 41,
      "hit": false,
      "t": 86333.33333333334,
      "d": 119.79166666667152,
      "v": 65
    },
    {
      "midi": 53,
      "hit": false,
      "t": 86338.54166666667,
      "d": 57.29166666667152,
      "v": 105
    },
    {
      "midi": 56,
      "hit": false,
      "t": 86338.54166666667,
      "d": 57.29166666667152,
      "v": 105
    },
    {
      "midi": 37,
      "hit": false,
      "t": 86624.99999999999,
      "d": 119.79166666667152,
      "v": 82
    },
    {
      "midi": 49,
      "hit": false,
      "t": 86630.20833333365,
      "d": 307.2916666666715,
      "v": 90
    },
    {
      "midi": 53,
      "hit": false,
      "t": 86635.41666666666,
      "d": 145.83333333332848,
      "v": 105
    },
    {
      "midi": 56,
      "hit": false,
      "t": 86635.41666666666,
      "d": 145.83333333332848,
      "v": 105
    },
    {
      "midi": 77,
      "hit": false,
      "t": 86635.41666666666,
      "d": 140.625,
      "v": 83
    },
    {
      "midi": 80,
      "hit": false,
      "t": 86640.62499999999,
      "d": 135.41666666667152,
      "v": 83
    },
    {
      "midi": 37,
      "hit": false,
      "t": 86651.04166666669,
      "d": 119.79166666665697,
      "v": 65
    },
    {
      "midi": 53,
      "hit": false,
      "t": 86656.25000000001,
      "d": 145.83333333332848,
      "v": 105
    },
    {
      "midi": 56,
      "hit": false,
      "t": 86656.25000000001,
      "d": 145.83333333332848,
      "v": 105
    },
    {
      "midi": 39,
      "hit": false,
      "t": 86947.91666666666,
      "d": 119.79166666667152,
      "v": 82
    },
    {
      "midi": 51,
      "hit": false,
      "t": 86953.12500000032,
      "d": 302.0833333333285,
      "v": 90
    },
    {
      "midi": 39,
      "hit": false,
      "t": 86973.95833333334,
      "d": 119.79166666667152,
      "v": 65
    },
    {
      "midi": 54,
      "hit": false,
      "t": 87104.16666666666,
      "d": 57.29166666667152,
      "v": 105
    },
    {
      "midi": 58,
      "hit": false,
      "t": 87104.16666666666,
      "d": 57.29166666667152,
      "v": 105
    },
    {
      "midi": 54,
      "hit": false,
      "t": 87130.20833333334,
      "d": 57.291666666656965,
      "v": 105
    },
    {
      "midi": 58,
      "hit": false,
      "t": 87135.41666666667,
      "d": 57.291666666656965,
      "v": 105
    },
    {
      "midi": 78,
      "hit": false,
      "t": 87270.83333333333,
      "d": 62.5,
      "v": 83
    },
    {
      "midi": 82,
      "hit": false,
      "t": 87270.83333333333,
      "d": 62.5,
      "v": 83
    },
    {
      "midi": 42,
      "hit": false,
      "t": 87421.875,
      "d": 119.79166666667152,
      "v": 82
    },
    {
      "midi": 54,
      "hit": false,
      "t": 87427.08333333365,
      "d": 546.8749999999854,
      "v": 90
    },
    {
      "midi": 42,
      "hit": false,
      "t": 87447.91666666666,
      "d": 119.79166666667152,
      "v": 65
    },
    {
      "midi": 78,
      "hit": false,
      "t": 87588.54166666666,
      "d": 145.83333333332848,
      "v": 83
    },
    {
      "midi": 54,
      "hit": false,
      "t": 87588.54166666667,
      "d": 145.83333333332848,
      "v": 105
    },
    {
      "midi": 58,
      "hit": false,
      "t": 87588.54166666667,
      "d": 145.83333333332848,
      "v": 105
    },
    {
      "midi": 82,
      "hit": false,
      "t": 87593.74999999999,
      "d": 140.625,
      "v": 83
    },
    {
      "midi": 54,
      "hit": false,
      "t": 87609.375,
      "d": 151.04166666667152,
      "v": 105
    },
    {
      "midi": 58,
      "hit": false,
      "t": 87609.375,
      "d": 151.04166666667152,
      "v": 105
    },
    {
      "midi": 46,
      "hit": false,
      "t": 87739.58333333333,
      "d": 57.29166666667152,
      "v": 82
    },
    {
      "midi": 58,
      "hit": false,
      "t": 87744.79166666698,
      "d": 145.83333333332848,
      "v": 90
    },
    {
      "midi": 46,
      "hit": false,
      "t": 87765.625,
      "d": 57.29166666667152,
      "v": 65
    },
    {
      "midi": 44,
      "hit": false,
      "t": 87906.25,
      "d": 114.58333333332848,
      "v": 82
    },
    {
      "midi": 56,
      "hit": false,
      "t": 87906.2500000003,
      "d": 307.29166666665697,
      "v": 90
    },
    {
      "midi": 44,
      "hit": false,
      "t": 87927.08333333334,
      "d": 119.79166666667152,
      "v": 65
    },
    {
      "midi": 41,
      "hit": false,
      "t": 88223.95833333333,
      "d": 119.79166666667152,
      "v": 82
    },
    {
      "midi": 53,
      "hit": false,
      "t": 88223.95833333363,
      "d": 307.2916666666715,
      "v": 90
    },
    {
      "midi": 53,
      "hit": false,
      "t": 88229.16666666666,
      "d": 57.29166666667152,
      "v": 105
    },
    {
      "midi": 56,
      "hit": false,
      "t": 88229.16666666666,
      "d": 57.29166666667152,
      "v": 105
    },
    {
      "midi": 77,
      "hit": false,
      "t": 88229.16666666666,
      "d": 140.625,
      "v": 83
    },
    {
      "midi": 80,
      "hit": false,
      "t": 88234.37499999999,
      "d": 140.625,
      "v": 83
    },
    {
      "midi": 53,
      "hit": false,
      "t": 88244.79166666669,
      "d": 57.291666666656965,
      "v": 105
    },
    {
      "midi": 41,
      "hit": false,
      "t": 88244.79166666669,
      "d": 119.79166666665697,
      "v": 65
    },
    {
      "midi": 56,
      "hit": false,
      "t": 88250.00000000001,
      "d": 57.291666666656965,
      "v": 105
    },
    {
      "midi": 37,
      "hit": false,
      "t": 88536.45833333333,
      "d": 119.79166666667152,
      "v": 82
    },
    {
      "midi": 49,
      "hit": false,
      "t": 88541.66666666698,
      "d": 307.2916666666715,
      "v": 90
    },
    {
      "midi": 77,
      "hit": false,
      "t": 88546.87499999999,
      "d": 140.625,
      "v": 83
    },
    {
      "midi": 53,
      "hit": false,
      "t": 88546.875,
      "d": 145.83333333332848,
      "v": 105
    },
    {
      "midi": 56,
      "hit": false,
      "t": 88546.875,
      "d": 145.83333333332848,
      "v": 105
    },
    {
      "midi": 80,
      "hit": false,
      "t": 88552.08333333331,
      "d": 135.41666666667152,
      "v": 83
    },
    {
      "midi": 37,
      "hit": false,
      "t": 88562.50000000001,
      "d": 119.79166666665697,
      "v": 65
    },
    {
      "midi": 53,
      "hit": false,
      "t": 88567.70833333334,
      "d": 145.83333333332848,
      "v": 105
    },
    {
      "midi": 56,
      "hit": false,
      "t": 88567.70833333334,
      "d": 145.83333333332848,
      "v": 105
    },
    {
      "midi": 39,
      "hit": false,
      "t": 88859.375,
      "d": 119.79166666667152,
      "v": 82
    },
    {
      "midi": 51,
      "hit": false,
      "t": 88864.58333333365,
      "d": 302.0833333333285,
      "v": 90
    },
    {
      "midi": 39,
      "hit": false,
      "t": 88880.20833333334,
      "d": 119.79166666667152,
      "v": 65
    },
    {
      "midi": 54,
      "hit": false,
      "t": 89015.625,
      "d": 57.29166666667152,
      "v": 105
    },
    {
      "midi": 58,
      "hit": false,
      "t": 89015.625,
      "d": 57.29166666667152,
      "v": 105
    },
    {
      "midi": 54,
      "hit": false,
      "t": 89041.66666666669,
      "d": 57.29166666667152,
      "v": 105
    },
    {
      "midi": 58,
      "hit": false,
      "t": 89041.66666666669,
      "d": 57.29166666667152,
      "v": 105
    },
    {
      "midi": 78,
      "hit": false,
      "t": 89182.29166666666,
      "d": 140.625,
      "v": 83
    },
    {
      "midi": 82,
      "hit": false,
      "t": 89182.29166666666,
      "d": 145.83333333332848,
      "v": 83
    },
    {
      "midi": 42,
      "hit": false,
      "t": 89333.33333333334,
      "d": 119.79166666667152,
      "v": 82
    },
    {
      "midi": 54,
      "hit": false,
      "t": 89333.33333333365,
      "d": 546.875,
      "v": 90
    },
    {
      "midi": 42,
      "hit": false,
      "t": 89359.37500000003,
      "d": 119.79166666667152,
      "v": 65
    },
    {
      "midi": 54,
      "hit": false,
      "t": 89494.79166666669,
      "d": 151.04166666665697,
      "v": 105
    },
    {
      "midi": 78,
      "hit": false,
      "t": 89499.99999999999,
      "d": 145.83333333332848,
      "v": 83
    },
    {
      "midi": 58,
      "hit": false,
      "t": 89500.00000000001,
      "d": 145.83333333332848,
      "v": 105
    },
    {
      "midi": 82,
      "hit": false,
      "t": 89505.20833333331,
      "d": 140.625,
      "v": 83
    },
    {
      "midi": 54,
      "hit": false,
      "t": 89520.83333333337,
      "d": 151.04166666667152,
      "v": 105
    },
    {
      "midi": 58,
      "hit": false,
      "t": 89520.83333333337,
      "d": 151.04166666667152,
      "v": 105
    },
    {
      "midi": 46,
      "hit": false,
      "t": 89651.04166666667,
      "d": 57.29166666667152,
      "v": 82
    },
    {
      "midi": 58,
      "hit": false,
      "t": 89656.25000000032,
      "d": 145.83333333332848,
      "v": 90
    },
    {
      "midi": 46,
      "hit": false,
      "t": 89677.08333333337,
      "d": 57.29166666667152,
      "v": 65
    },
    {
      "midi": 44,
      "hit": false,
      "t": 89817.70833333334,
      "d": 114.58333333332848,
      "v": 82
    },
    {
      "midi": 56,
      "hit": false,
      "t": 89817.70833333365,
      "d": 307.2916666666715,
      "v": 90
    },
    {
      "midi": 44,
      "hit": false,
      "t": 89838.54166666672,
      "d": 119.79166666667152,
      "v": 65
    },
    {
      "midi": 41,
      "hit": false,
      "t": 90130.20833333334,
      "d": 119.79166666664241,
      "v": 82
    },
    {
      "midi": 53,
      "hit": false,
      "t": 90135.41666666667,
      "d": 57.291666666656965,
      "v": 105
    },
    {
      "midi": 53,
      "hit": false,
      "t": 90135.41666666699,
      "d": 307.2916666666715,
      "v": 90
    },
    {
      "midi": 77,
      "hit": false,
      "t": 90140.62499999999,
      "d": 140.625,
      "v": 83
    },
    {
      "midi": 80,
      "hit": false,
      "t": 90140.62499999999,
      "d": 145.83333333332848,
      "v": 83
    },
    {
      "midi": 56,
      "hit": false,
      "t": 90140.625,
      "d": 57.291666666656965,
      "v": 105
    },
    {
      "midi": 53,
      "hit": false,
      "t": 90156.25000000006,
      "d": 57.291666666656965,
      "v": 105
    },
    {
      "midi": 41,
      "hit": false,
      "t": 90156.25000000006,
      "d": 119.79166666665697,
      "v": 65
    },
    {
      "midi": 56,
      "hit": false,
      "t": 90161.45833333339,
      "d": 57.291666666656965,
      "v": 105
    },
    {
      "midi": 37,
      "hit": false,
      "t": 90447.91666666666,
      "d": 119.79166666667152,
      "v": 82
    },
    {
      "midi": 49,
      "hit": false,
      "t": 90453.12500000033,
      "d": 307.2916666666715,
      "v": 90
    },
    {
      "midi": 53,
      "hit": false,
      "t": 90458.33333333333,
      "d": 145.83333333332848,
      "v": 105
    },
    {
      "midi": 56,
      "hit": false,
      "t": 90458.33333333333,
      "d": 145.83333333332848,
      "v": 105
    },
    {
      "midi": 77,
      "hit": false,
      "t": 90463.54166666664,
      "d": 135.41666666667152,
      "v": 83
    },
    {
      "midi": 80,
      "hit": false,
      "t": 90463.54166666664,
      "d": 135.41666666667152,
      "v": 83
    },
    {
      "midi": 37,
      "hit": false,
      "t": 90473.95833333339,
      "d": 119.79166666665697,
      "v": 65
    },
    {
      "midi": 53,
      "hit": false,
      "t": 90479.16666666672,
      "d": 145.83333333332848,
      "v": 105
    },
    {
      "midi": 56,
      "hit": false,
      "t": 90479.16666666672,
      "d": 145.83333333332848,
      "v": 105
    },
    {
      "midi": 39,
      "hit": false,
      "t": 90770.83333333333,
      "d": 119.79166666667152,
      "v": 82
    },
    {
      "midi": 51,
      "hit": false,
      "t": 90776.041666667,
      "d": 302.0833333333285,
      "v": 90
    },
    {
      "midi": 39,
      "hit": false,
      "t": 90791.66666666672,
      "d": 119.79166666667152,
      "v": 65
    },
    {
      "midi": 54,
      "hit": false,
      "t": 90927.08333333333,
      "d": 57.29166666667152,
      "v": 105
    },
    {
      "midi": 58,
      "hit": false,
      "t": 90927.08333333333,
      "d": 57.29166666667152,
      "v": 105
    },
    {
      "midi": 54,
      "hit": false,
      "t": 90953.12500000006,
      "d": 57.29166666667152,
      "v": 105
    },
    {
      "midi": 58,
      "hit": false,
      "t": 90953.12500000006,
      "d": 57.29166666667152,
      "v": 105
    },
    {
      "midi": 78,
      "hit": false,
      "t": 91088.54166666664,
      "d": 67.70833333332848,
      "v": 83
    },
    {
      "midi": 82,
      "hit": false,
      "t": 91093.74999999997,
      "d": 62.5,
      "v": 83
    },
    {
      "midi": 42,
      "hit": false,
      "t": 91244.79166666667,
      "d": 119.79166666667152,
      "v": 82
    },
    {
      "midi": 54,
      "hit": false,
      "t": 91244.791666667,
      "d": 546.875,
      "v": 90
    },
    {
      "midi": 42,
      "hit": false,
      "t": 91270.8333333334,
      "d": 119.79166666667152,
      "v": 65
    },
    {
      "midi": 54,
      "hit": false,
      "t": 91406.25000000001,
      "d": 151.04166666665697,
      "v": 105
    },
    {
      "midi": 78,
      "hit": false,
      "t": 91411.4583333333,
      "d": 145.83333333332848,
      "v": 83
    },
    {
      "midi": 82,
      "hit": false,
      "t": 91411.4583333333,
      "d": 145.83333333332848,
      "v": 83
    },
    {
      "midi": 58,
      "hit": false,
      "t": 91411.45833333334,
      "d": 145.83333333332848,
      "v": 105
    },
    {
      "midi": 54,
      "hit": false,
      "t": 91432.29166666674,
      "d": 145.83333333332848,
      "v": 105
    },
    {
      "midi": 58,
      "hit": false,
      "t": 91432.29166666674,
      "d": 151.04166666665697,
      "v": 105
    },
    {
      "midi": 46,
      "hit": false,
      "t": 91562.5,
      "d": 57.29166666667152,
      "v": 82
    },
    {
      "midi": 58,
      "hit": false,
      "t": 91562.50000000033,
      "d": 151.04166666667152,
      "v": 90
    },
    {
      "midi": 46,
      "hit": false,
      "t": 91588.54166666673,
      "d": 57.29166666667152,
      "v": 65
    },
    {
      "midi": 44,
      "hit": false,
      "t": 91729.16666666667,
      "d": 114.58333333332848,
      "v": 82
    },
    {
      "midi": 56,
      "hit": false,
      "t": 91729.166666667,
      "d": 302.0833333333285,
      "v": 90
    },
    {
      "midi": 44,
      "hit": false,
      "t": 91750.00000000007,
      "d": 119.79166666667152,
      "v": 65
    },
    {
      "midi": 41,
      "hit": false,
      "t": 92041.66666666667,
      "d": 119.79166666664241,
      "v": 82
    },
    {
      "midi": 53,
      "hit": false,
      "t": 92046.875,
      "d": 57.291666666656965,
      "v": 105
    },
    {
      "midi": 53,
      "hit": false,
      "t": 92046.87500000033,
      "d": 307.2916666666715,
      "v": 90
    },
    {
      "midi": 77,
      "hit": false,
      "t": 92052.0833333333,
      "d": 140.625,
      "v": 83
    },
    {
      "midi": 80,
      "hit": false,
      "t": 92052.0833333333,
      "d": 140.625,
      "v": 83
    },
    {
      "midi": 56,
      "hit": false,
      "t": 92052.08333333333,
      "d": 57.291666666656965,
      "v": 105
    },
    {
      "midi": 53,
      "hit": false,
      "t": 92067.70833333342,
      "d": 57.291666666656965,
      "v": 105
    },
    {
      "midi": 41,
      "hit": false,
      "t": 92067.70833333342,
      "d": 119.79166666665697,
      "v": 65
    },
    {
      "midi": 56,
      "hit": false,
      "t": 92072.91666666674,
      "d": 57.291666666656965,
      "v": 105
    },
    {
      "midi": 37,
      "hit": false,
      "t": 92359.37499999999,
      "d": 119.79166666665697,
      "v": 82
    },
    {
      "midi": 53,
      "hit": false,
      "t": 92364.58333333331,
      "d": 145.83333333332848,
      "v": 105
    },
    {
      "midi": 49,
      "hit": false,
      "t": 92364.58333333368,
      "d": 307.2916666666715,
      "v": 90
    },
    {
      "midi": 77,
      "hit": false,
      "t": 92369.79166666663,
      "d": 140.625,
      "v": 83
    },
    {
      "midi": 80,
      "hit": false,
      "t": 92369.79166666663,
      "d": 140.625,
      "v": 83
    },
    {
      "midi": 56,
      "hit": false,
      "t": 92369.79166666664,
      "d": 145.83333333332848,
      "v": 105
    },
    {
      "midi": 37,
      "hit": false,
      "t": 92385.41666666674,
      "d": 119.79166666665697,
      "v": 65
    },
    {
      "midi": 53,
      "hit": false,
      "t": 92385.41666666674,
      "d": 151.04166666665697,
      "v": 105
    },
    {
      "midi": 56,
      "hit": false,
      "t": 92390.62500000007,
      "d": 145.83333333332848,
      "v": 105
    },
    {
      "midi": 39,
      "hit": false,
      "t": 92682.29166666664,
      "d": 119.79166666667152,
      "v": 82
    },
    {
      "midi": 51,
      "hit": false,
      "t": 92687.50000000035,
      "d": 302.0833333333285,
      "v": 90
    },
    {
      "midi": 39,
      "hit": false,
      "t": 92703.12500000007,
      "d": 119.79166666667152,
      "v": 65
    },
    {
      "midi": 54,
      "hit": false,
      "t": 92838.54166666664,
      "d": 57.29166666667152,
      "v": 105
    },
    {
      "midi": 58,
      "hit": false,
      "t": 92838.54166666664,
      "d": 57.29166666667152,
      "v": 105
    },
    {
      "midi": 54,
      "hit": false,
      "t": 92864.58333333342,
      "d": 57.29166666667152,
      "v": 105
    },
    {
      "midi": 58,
      "hit": false,
      "t": 92864.58333333342,
      "d": 57.29166666667152,
      "v": 105
    },
    {
      "midi": 78,
      "hit": false,
      "t": 92999.99999999996,
      "d": 145.83333333332848,
      "v": 83
    },
    {
      "midi": 82,
      "hit": false,
      "t": 93005.20833333328,
      "d": 140.625,
      "v": 83
    },
    {
      "midi": 42,
      "hit": false,
      "t": 93156.24999999999,
      "d": 119.79166666667152,
      "v": 82
    },
    {
      "midi": 54,
      "hit": false,
      "t": 93156.25000000035,
      "d": 546.875,
      "v": 90
    },
    {
      "midi": 42,
      "hit": false,
      "t": 93182.29166666676,
      "d": 119.79166666667152,
      "v": 65
    },
    {
      "midi": 54,
      "hit": false,
      "t": 93317.70833333333,
      "d": 145.83333333332848,
      "v": 105
    },
    {
      "midi": 78,
      "hit": false,
      "t": 93322.91666666661,
      "d": 145.83333333332848,
      "v": 83
    },
    {
      "midi": 58,
      "hit": false,
      "t": 93322.91666666666,
      "d": 145.83333333332848,
      "v": 105
    },
    {
      "midi": 82,
      "hit": false,
      "t": 93328.12499999994,
      "d": 140.625,
      "v": 83
    },
    {
      "midi": 54,
      "hit": false,
      "t": 93343.7500000001,
      "d": 145.83333333332848,
      "v": 105
    },
    {
      "midi": 58,
      "hit": false,
      "t": 93343.7500000001,
      "d": 151.04166666665697,
      "v": 105
    },
    {
      "midi": 46,
      "hit": false,
      "t": 93473.95833333331,
      "d": 57.29166666667152,
      "v": 82
    },
    {
      "midi": 58,
      "hit": false,
      "t": 93473.95833333368,
      "d": 151.04166666667152,
      "v": 90
    },
    {
      "midi": 46,
      "hit": false,
      "t": 93500.00000000009,
      "d": 57.29166666667152,
      "v": 65
    },
    {
      "midi": 44,
      "hit": false,
      "t": 93640.62499999999,
      "d": 114.58333333332848,
      "v": 82
    },
    {
      "midi": 56,
      "hit": false,
      "t": 93640.62500000035,
      "d": 302.0833333333285,
      "v": 90
    },
    {
      "midi": 44,
      "hit": false,
      "t": 93661.45833333343,
      "d": 119.79166666667152,
      "v": 65
    },
    {
      "midi": 41,
      "hit": false,
      "t": 93953.12499999999,
      "d": 119.79166666664241,
      "v": 82
    },
    {
      "midi": 53,
      "hit": false,
      "t": 93958.33333333331,
      "d": 57.291666666656965,
      "v": 105
    },
    {
      "midi": 53,
      "hit": false,
      "t": 93958.33333333368,
      "d": 302.0833333333285,
      "v": 90
    },
    {
      "midi": 77,
      "hit": false,
      "t": 93963.54166666661,
      "d": 140.625,
      "v": 83
    },
    {
      "midi": 80,
      "hit": false,
      "t": 93963.54166666661,
      "d": 140.625,
      "v": 83
    },
    {
      "midi": 56,
      "hit": false,
      "t": 93963.54166666664,
      "d": 57.291666666656965,
      "v": 105
    },
    {
      "midi": 53,
      "hit": false,
      "t": 93979.16666666677,
      "d": 57.291666666656965,
      "v": 105
    },
    {
      "midi": 41,
      "hit": false,
      "t": 93979.16666666677,
      "d": 119.79166666665697,
      "v": 65
    },
    {
      "midi": 56,
      "hit": false,
      "t": 93984.3750000001,
      "d": 57.291666666656965,
      "v": 105
    },
    {
      "midi": 37,
      "hit": false,
      "t": 94270.8333333333,
      "d": 119.79166666665697,
      "v": 82
    },
    {
      "midi": 53,
      "hit": false,
      "t": 94276.04166666663,
      "d": 145.83333333332848,
      "v": 105
    },
    {
      "midi": 49,
      "hit": false,
      "t": 94276.041666667,
      "d": 307.2916666666715,
      "v": 90
    },
    {
      "midi": 77,
      "hit": false,
      "t": 94281.24999999994,
      "d": 140.625,
      "v": 83
    },
    {
      "midi": 80,
      "hit": false,
      "t": 94281.24999999994,
      "d": 140.625,
      "v": 83
    },
    {
      "midi": 56,
      "hit": false,
      "t": 94281.24999999996,
      "d": 145.83333333332848,
      "v": 105
    },
    {
      "midi": 37,
      "hit": false,
      "t": 94296.8750000001,
      "d": 119.79166666665697,
      "v": 65
    },
    {
      "midi": 53,
      "hit": false,
      "t": 94296.8750000001,
      "d": 151.04166666665697,
      "v": 105
    },
    {
      "midi": 56,
      "hit": false,
      "t": 94302.08333333343,
      "d": 145.83333333332848,
      "v": 105
    },
    {
      "midi": 39,
      "hit": false,
      "t": 94588.54166666661,
      "d": 119.79166666667152,
      "v": 82
    },
    {
      "midi": 51,
      "hit": false,
      "t": 94598.95833333368,
      "d": 302.0833333333285,
      "v": 90
    },
    {
      "midi": 39,
      "hit": false,
      "t": 94614.58333333343,
      "d": 119.79166666667152,
      "v": 65
    },
    {
      "midi": 54,
      "hit": false,
      "t": 94749.99999999996,
      "d": 57.29166666667152,
      "v": 105
    },
    {
      "midi": 58,
      "hit": false,
      "t": 94749.99999999996,
      "d": 57.29166666667152,
      "v": 105
    },
    {
      "midi": 54,
      "hit": false,
      "t": 94776.04166666677,
      "d": 57.29166666667152,
      "v": 105
    },
    {
      "midi": 58,
      "hit": false,
      "t": 94776.04166666677,
      "d": 57.29166666667152,
      "v": 105
    },
    {
      "midi": 78,
      "hit": false,
      "t": 94911.45833333327,
      "d": 67.70833333332848,
      "v": 83
    },
    {
      "midi": 82,
      "hit": false,
      "t": 94916.6666666666,
      "d": 62.5,
      "v": 83
    },
    {
      "midi": 42,
      "hit": false,
      "t": 95067.7083333333,
      "d": 119.79166666667152,
      "v": 82
    },
    {
      "midi": 54,
      "hit": false,
      "t": 95067.70833333368,
      "d": 546.875,
      "v": 90
    },
    {
      "midi": 42,
      "hit": false,
      "t": 95093.75000000012,
      "d": 119.79166666667152,
      "v": 65
    },
    {
      "midi": 54,
      "hit": false,
      "t": 95229.16666666664,
      "d": 145.83333333332848,
      "v": 105
    },
    {
      "midi": 58,
      "hit": false,
      "t": 95229.16666666664,
      "d": 151.04166666665697,
      "v": 105
    },
    {
      "midi": 78,
      "hit": false,
      "t": 95234.37499999993,
      "d": 140.625,
      "v": 83
    },
    {
      "midi": 82,
      "hit": false,
      "t": 95234.37499999993,
      "d": 145.83333333332848,
      "v": 83
    },
    {
      "midi": 54,
      "hit": false,
      "t": 95250.00000000012,
      "d": 151.04166666665697,
      "v": 105
    },
    {
      "midi": 58,
      "hit": false,
      "t": 95255.20833333344,
      "d": 145.83333333332848,
      "v": 105
    },
    {
      "midi": 46,
      "hit": false,
      "t": 95385.41666666663,
      "d": 57.29166666667152,
      "v": 82
    },
    {
      "midi": 58,
      "hit": false,
      "t": 95385.416666667,
      "d": 151.04166666667152,
      "v": 90
    },
    {
      "midi": 46,
      "hit": false,
      "t": 95411.45833333344,
      "d": 57.29166666667152,
      "v": 65
    },
    {
      "midi": 44,
      "hit": false,
      "t": 95546.87499999997,
      "d": 119.79166666667152,
      "v": 82
    },
    {
      "midi": 56,
      "hit": false,
      "t": 95552.08333333368,
      "d": 302.0833333333285,
      "v": 90
    },
    {
      "midi": 44,
      "hit": false,
      "t": 95572.91666666679,
      "d": 119.79166666667152,
      "v": 65
    },
    {
      "midi": 41,
      "hit": false,
      "t": 95864.58333333331,
      "d": 119.79166666667152,
      "v": 82
    },
    {
      "midi": 53,
      "hit": false,
      "t": 95869.79166666664,
      "d": 57.29166666667152,
      "v": 105
    },
    {
      "midi": 56,
      "hit": false,
      "t": 95869.79166666664,
      "d": 57.29166666667152,
      "v": 105
    },
    {
      "midi": 53,
      "hit": false,
      "t": 95869.791666667,
      "d": 302.0833333333285,
      "v": 90
    },
    {
      "midi": 77,
      "hit": false,
      "t": 95874.99999999993,
      "d": 140.625,
      "v": 83
    },
    {
      "midi": 80,
      "hit": false,
      "t": 95874.99999999993,
      "d": 140.625,
      "v": 83
    },
    {
      "midi": 53,
      "hit": false,
      "t": 95890.62500000013,
      "d": 57.29166666667152,
      "v": 105
    },
    {
      "midi": 56,
      "hit": false,
      "t": 95890.62500000013,
      "d": 57.29166666667152,
      "v": 105
    },
    {
      "midi": 41,
      "hit": false,
      "t": 95890.62500000013,
      "d": 119.79166666667152,
      "v": 65
    },
    {
      "midi": 37,
      "hit": false,
      "t": 96182.29166666666,
      "d": 119.79166666665697,
      "v": 82
    },
    {
      "midi": 53,
      "hit": false,
      "t": 96187.49999999999,
      "d": 145.83333333332848,
      "v": 105
    },
    {
      "midi": 49,
      "hit": false,
      "t": 96187.50000000033,
      "d": 302.0833333333285,
      "v": 90
    },
    {
      "midi": 77,
      "hit": false,
      "t": 96192.70833333326,
      "d": 140.625,
      "v": 83
    },
    {
      "midi": 80,
      "hit": false,
      "t": 96192.70833333326,
      "d": 140.625,
      "v": 83
    },
    {
      "midi": 56,
      "hit": false,
      "t": 96192.70833333331,
      "d": 145.83333333332848,
      "v": 105
    },
    {
      "midi": 37,
      "hit": false,
      "t": 96208.33333333347,
      "d": 119.79166666665697,
      "v": 65
    },
    {
      "midi": 53,
      "hit": false,
      "t": 96208.33333333347,
      "d": 151.04166666665697,
      "v": 105
    },
    {
      "midi": 56,
      "hit": false,
      "t": 96213.5416666668,
      "d": 145.83333333332848,
      "v": 105
    },
    {
      "midi": 39,
      "hit": false,
      "t": 96499.99999999997,
      "d": 119.79166666667152,
      "v": 82
    },
    {
      "midi": 51,
      "hit": false,
      "t": 96505.20833333366,
      "d": 307.2916666666715,
      "v": 90
    },
    {
      "midi": 39,
      "hit": false,
      "t": 96526.0416666668,
      "d": 119.79166666667152,
      "v": 65
    },
    {
      "midi": 54,
      "hit": false,
      "t": 96661.45833333331,
      "d": 57.29166666667152,
      "v": 105
    },
    {
      "midi": 58,
      "hit": false,
      "t": 96661.45833333331,
      "d": 57.29166666667152,
      "v": 105
    },
    {
      "midi": 54,
      "hit": false,
      "t": 96687.50000000015,
      "d": 57.29166666667152,
      "v": 105
    },
    {
      "midi": 58,
      "hit": false,
      "t": 96687.50000000015,
      "d": 57.29166666667152,
      "v": 105
    },
    {
      "midi": 78,
      "hit": false,
      "t": 96822.91666666658,
      "d": 145.83333333332848,
      "v": 83
    },
    {
      "midi": 82,
      "hit": false,
      "t": 96828.12499999991,
      "d": 140.625,
      "v": 83
    },
    {
      "midi": 42,
      "hit": false,
      "t": 96979.16666666666,
      "d": 119.79166666667152,
      "v": 82
    },
    {
      "midi": 54,
      "hit": false,
      "t": 96979.166666667,
      "d": 546.875,
      "v": 90
    },
    {
      "midi": 42,
      "hit": false,
      "t": 97005.20833333349,
      "d": 119.79166666667152,
      "v": 65
    },
    {
      "midi": 54,
      "hit": false,
      "t": 97140.625,
      "d": 145.83333333332848,
      "v": 105
    },
    {
      "midi": 58,
      "hit": false,
      "t": 97140.625,
      "d": 145.83333333332848,
      "v": 105
    },
    {
      "midi": 78,
      "hit": false,
      "t": 97145.83333333324,
      "d": 140.625,
      "v": 83
    },
    {
      "midi": 82,
      "hit": false,
      "t": 97145.83333333324,
      "d": 145.83333333332848,
      "v": 83
    },
    {
      "midi": 54,
      "hit": false,
      "t": 97161.45833333349,
      "d": 151.04166666665697,
      "v": 105
    },
    {
      "midi": 58,
      "hit": false,
      "t": 97166.66666666682,
      "d": 145.83333333332848,
      "v": 105
    },
    {
      "midi": 46,
      "hit": false,
      "t": 97296.875,
      "d": 57.29166666667152,
      "v": 82
    },
    {
      "midi": 58,
      "hit": false,
      "t": 97296.87500000033,
      "d": 151.04166666667152,
      "v": 90
    },
    {
      "midi": 46,
      "hit": false,
      "t": 97322.91666666682,
      "d": 57.29166666667152,
      "v": 65
    },
    {
      "midi": 44,
      "hit": false,
      "t": 97463.54166666667,
      "d": 114.58333333332848,
      "v": 82
    },
    {
      "midi": 56,
      "hit": false,
      "t": 97463.541666667,
      "d": 302.0833333333285,
      "v": 90
    },
    {
      "midi": 44,
      "hit": false,
      "t": 97479.16666666682,
      "d": 119.79166666667152,
      "v": 65
    },
    {
      "midi": 41,
      "hit": false,
      "t": 97776.04166666667,
      "d": 119.79166666667152,
      "v": 82
    },
    {
      "midi": 53,
      "hit": false,
      "t": 97781.25,
      "d": 57.29166666667152,
      "v": 105
    },
    {
      "midi": 56,
      "hit": false,
      "t": 97781.25,
      "d": 57.29166666667152,
      "v": 105
    },
    {
      "midi": 53,
      "hit": false,
      "t": 97781.25000000033,
      "d": 302.0833333333285,
      "v": 90
    },
    {
      "midi": 77,
      "hit": false,
      "t": 97786.45833333324,
      "d": 140.625,
      "v": 83
    },
    {
      "midi": 80,
      "hit": false,
      "t": 97786.45833333324,
      "d": 140.625,
      "v": 83
    },
    {
      "midi": 53,
      "hit": false,
      "t": 97802.08333333349,
      "d": 57.29166666667152,
      "v": 105
    },
    {
      "midi": 56,
      "hit": false,
      "t": 97802.08333333349,
      "d": 57.29166666667152,
      "v": 105
    },
    {
      "midi": 41,
      "hit": false,
      "t": 97802.08333333349,
      "d": 119.79166666667152,
      "v": 65
    },
    {
      "midi": 37,
      "hit": false,
      "t": 98093.75000000001,
      "d": 119.79166666665697,
      "v": 82
    },
    {
      "midi": 53,
      "hit": false,
      "t": 98098.95833333334,
      "d": 145.83333333332848,
      "v": 105
    },
    {
      "midi": 56,
      "hit": false,
      "t": 98098.95833333334,
      "d": 145.83333333332848,
      "v": 105
    },
    {
      "midi": 49,
      "hit": false,
      "t": 98098.95833333366,
      "d": 302.0833333333285,
      "v": 90
    },
    {
      "midi": 77,
      "hit": false,
      "t": 98104.16666666657,
      "d": 140.625,
      "v": 83
    },
    {
      "midi": 80,
      "hit": false,
      "t": 98104.16666666657,
      "d": 140.625,
      "v": 83
    },
    {
      "midi": 37,
      "hit": false,
      "t": 98119.79166666683,
      "d": 119.79166666667152,
      "v": 65
    },
    {
      "midi": 53,
      "hit": false,
      "t": 98119.79166666683,
      "d": 151.04166666667152,
      "v": 105
    },
    {
      "midi": 56,
      "hit": false,
      "t": 98119.79166666683,
      "d": 151.04166666667152,
      "v": 105
    },
    {
      "midi": 39,
      "hit": false,
      "t": 98411.45833333334,
      "d": 119.79166666667152,
      "v": 82
    },
    {
      "midi": 51,
      "hit": false,
      "t": 98416.66666666699,
      "d": 307.2916666666715,
      "v": 90
    },
    {
      "midi": 39,
      "hit": false,
      "t": 98437.50000000017,
      "d": 119.79166666667152,
      "v": 65
    },
    {
      "midi": 54,
      "hit": false,
      "t": 98567.70833333334,
      "d": 57.291666666656965,
      "v": 105
    },
    {
      "midi": 58,
      "hit": false,
      "t": 98572.91666666667,
      "d": 57.291666666656965,
      "v": 105
    },
    {
      "midi": 54,
      "hit": false,
      "t": 98598.95833333352,
      "d": 57.29166666667152,
      "v": 105
    },
    {
      "midi": 58,
      "hit": false,
      "t": 98598.95833333352,
      "d": 57.29166666667152,
      "v": 105
    },
    {
      "midi": 78,
      "hit": false,
      "t": 98734.3749999999,
      "d": 67.70833333332848,
      "v": 83
    },
    {
      "midi": 82,
      "hit": false,
      "t": 98734.3749999999,
      "d": 67.70833333332848,
      "v": 83
    },
    {
      "midi": 42,
      "hit": false,
      "t": 98890.625,
      "d": 119.79166666667152,
      "v": 82
    },
    {
      "midi": 54,
      "hit": false,
      "t": 98890.62500000033,
      "d": 546.875,
      "v": 90
    },
    {
      "midi": 42,
      "hit": false,
      "t": 98916.66666666686,
      "d": 119.79166666667152,
      "v": 65
    },
    {
      "midi": 54,
      "hit": false,
      "t": 99052.08333333334,
      "d": 145.83333333332848,
      "v": 105
    },
    {
      "midi": 78,
      "hit": false,
      "t": 99057.29166666656,
      "d": 140.625,
      "v": 83
    },
    {
      "midi": 82,
      "hit": false,
      "t": 99057.29166666656,
      "d": 140.625,
      "v": 83
    },
    {
      "midi": 58,
      "hit": false,
      "t": 99057.29166666667,
      "d": 145.83333333332848,
      "v": 105
    },
    {
      "midi": 54,
      "hit": false,
      "t": 99072.91666666686,
      "d": 151.04166666665697,
      "v": 105
    },
    {
      "midi": 58,
      "hit": false,
      "t": 99078.12500000019,
      "d": 145.83333333332848,
      "v": 105
    },
    {
      "midi": 46,
      "hit": false,
      "t": 99208.33333333333,
      "d": 57.29166666667152,
      "v": 82
    },
    {
      "midi": 58,
      "hit": false,
      "t": 99208.33333333366,
      "d": 151.04166666667152,
      "v": 90
    },
    {
      "midi": 46,
      "hit": false,
      "t": 99234.37500000019,
      "d": 57.29166666667152,
      "v": 65
    },
    {
      "midi": 44,
      "hit": false,
      "t": 99369.79166666667,
      "d": 119.79166666667152,
      "v": 82
    },
    {
      "midi": 56,
      "hit": false,
      "t": 99375.00000000033,
      "d": 302.0833333333285,
      "v": 90
    },
    {
      "midi": 44,
      "hit": false,
      "t": 99390.62500000019,
      "d": 119.79166666667152,
      "v": 65
    },
    {
      "midi": 41,
      "hit": false,
      "t": 99687.50000000001,
      "d": 119.79166666667152,
      "v": 82
    },
    {
      "midi": 53,
      "hit": false,
      "t": 99687.50000000033,
      "d": 307.2916666666715,
      "v": 90
    },
    {
      "midi": 53,
      "hit": false,
      "t": 99692.70833333334,
      "d": 57.29166666667152,
      "v": 105
    },
    {
      "midi": 56,
      "hit": false,
      "t": 99692.70833333334,
      "d": 57.29166666667152,
      "v": 105
    },
    {
      "midi": 77,
      "hit": false,
      "t": 99697.91666666656,
      "d": 140.625,
      "v": 83
    },
    {
      "midi": 80,
      "hit": false,
      "t": 99697.91666666656,
      "d": 140.625,
      "v": 83
    },
    {
      "midi": 53,
      "hit": false,
      "t": 99713.54166666686,
      "d": 57.29166666667152,
      "v": 105
    },
    {
      "midi": 56,
      "hit": false,
      "t": 99713.54166666686,
      "d": 57.29166666667152,
      "v": 105
    },
    {
      "midi": 41,
      "hit": false,
      "t": 99713.54166666686,
      "d": 119.79166666667152,
      "v": 65
    },
    {
      "midi": 37,
      "hit": false,
      "t": 100005.20833333336,
      "d": 119.79166666665697,
      "v": 82
    },
    {
      "midi": 53,
      "hit": false,
      "t": 100010.41666666669,
      "d": 145.83333333332848,
      "v": 105
    },
    {
      "midi": 56,
      "hit": false,
      "t": 100010.41666666669,
      "d": 145.83333333332848,
      "v": 105
    },
    {
      "midi": 49,
      "hit": false,
      "t": 100010.416666667,
      "d": 302.0833333333285,
      "v": 90
    },
    {
      "midi": 77,
      "hit": false,
      "t": 100015.62499999988,
      "d": 135.41666666667152,
      "v": 83
    },
    {
      "midi": 37,
      "hit": false,
      "t": 100031.2500000002,
      "d": 119.79166666667152,
      "v": 65
    },
    {
      "midi": 53,
      "hit": false,
      "t": 100031.2500000002,
      "d": 145.83333333334303,
      "v": 105
    },
    {
      "midi": 56,
      "hit": false,
      "t": 100031.2500000002,
      "d": 151.04166666667152,
      "v": 105
    },
    {
      "midi": 46,
      "hit": false,
      "t": 100322.91666666669,
      "d": 119.79166666667152,
      "v": 82
    },
    {
      "midi": 58,
      "hit": false,
      "t": 100328.12500000033,
      "d": 302.0833333333285,
      "v": 90
    },
    {
      "midi": 46,
      "hit": false,
      "t": 100348.95833333355,
      "d": 119.79166666667152,
      "v": 65
    },
    {
      "midi": 61,
      "hit": false,
      "t": 100479.16666666669,
      "d": 57.291666666656965,
      "v": 105
    },
    {
      "midi": 65,
      "hit": false,
      "t": 100484.37500000001,
      "d": 57.291666666656965,
      "v": 105
    },
    {
      "midi": 61,
      "hit": false,
      "t": 100505.20833333355,
      "d": 57.291666666656965,
      "v": 105
    },
    {
      "midi": 65,
      "hit": false,
      "t": 100510.41666666688,
      "d": 57.291666666656965,
      "v": 105
    },
    {
      "midi": 73,
      "hit": false,
      "t": 100645.83333333323,
      "d": 62.5,
      "v": 83
    },
    {
      "midi": 77,
      "hit": false,
      "t": 100645.83333333323,
      "d": 67.70833333332848,
      "v": 83
    },
    {
      "midi": 53,
      "hit": false,
      "t": 100796.875,
      "d": 88.54166666667152,
      "v": 82
    },
    {
      "midi": 65,
      "hit": false,
      "t": 100802.08333333366,
      "d": 229.16666666667152,
      "v": 90
    },
    {
      "midi": 53,
      "hit": false,
      "t": 100828.1250000002,
      "d": 88.54166666667152,
      "v": 65
    },
    {
      "midi": 73,
      "hit": false,
      "t": 100963.54166666656,
      "d": 145.83333333332848,
      "v": 83
    },
    {
      "midi": 61,
      "hit": false,
      "t": 100963.54166666667,
      "d": 145.83333333332848,
      "v": 105
    },
    {
      "midi": 65,
      "hit": false,
      "t": 100963.54166666667,
      "d": 145.83333333332848,
      "v": 105
    },
    {
      "midi": 77,
      "hit": false,
      "t": 100968.74999999988,
      "d": 140.625,
      "v": 83
    },
    {
      "midi": 61,
      "hit": false,
      "t": 100984.3750000002,
      "d": 151.04166666665697,
      "v": 105
    },
    {
      "midi": 65,
      "hit": false,
      "t": 100989.58333333353,
      "d": 145.83333333332848,
      "v": 105
    },
    {
      "midi": 46,
      "hit": false,
      "t": 101119.79166666667,
      "d": 57.29166666667152,
      "v": 82
    },
    {
      "midi": 58,
      "hit": false,
      "t": 101119.791666667,
      "d": 151.04166666667152,
      "v": 90
    },
    {
      "midi": 46,
      "hit": false,
      "t": 101145.83333333353,
      "d": 57.29166666667152,
      "v": 65
    },
    {
      "midi": 41,
      "hit": false,
      "t": 101281.25000000001,
      "d": 119.79166666667152,
      "v": 82
    },
    {
      "midi": 53,
      "hit": false,
      "t": 101281.25000000035,
      "d": 307.2916666666715,
      "v": 90
    },
    {
      "midi": 41,
      "hit": false,
      "t": 101302.08333333353,
      "d": 119.79166666667152,
      "v": 65
    },
    {
      "midi": 60,
      "hit": false,
      "t": 101437.50000000001,
      "d": 57.29166666667152,
      "v": 105
    },
    {
      "midi": 65,
      "hit": false,
      "t": 101437.50000000001,
      "d": 57.29166666667152,
      "v": 105
    },
    {
      "midi": 60,
      "hit": false,
      "t": 101463.54166666688,
      "d": 57.29166666667152,
      "v": 105
    },
    {
      "midi": 65,
      "hit": false,
      "t": 101463.54166666688,
      "d": 57.29166666667152,
      "v": 105
    },
    {
      "midi": 68,
      "hit": false,
      "t": 101598.95833333321,
      "d": 145.83333333332848,
      "v": 83
    },
    {
      "midi": 72,
      "hit": false,
      "t": 101598.95833333321,
      "d": 145.83333333332848,
      "v": 83
    },
    {
      "midi": 48,
      "hit": false,
      "t": 101755.20833333336,
      "d": 88.54166666667152,
      "v": 82
    },
    {
      "midi": 60,
      "hit": false,
      "t": 101755.20833333369,
      "d": 229.16666666667152,
      "v": 90
    },
    {
      "midi": 48,
      "hit": false,
      "t": 101781.25000000022,
      "d": 88.54166666667152,
      "v": 65
    },
    {
      "midi": 60,
      "hit": false,
      "t": 101916.6666666667,
      "d": 145.83333333332848,
      "v": 105
    },
    {
      "midi": 68,
      "hit": false,
      "t": 101921.87499999987,
      "d": 140.625,
      "v": 83
    },
    {
      "midi": 72,
      "hit": false,
      "t": 101921.87499999987,
      "d": 145.83333333332848,
      "v": 83
    },
    {
      "midi": 65,
      "hit": false,
      "t": 101921.87500000003,
      "d": 145.83333333332848,
      "v": 105
    },
    {
      "midi": 60,
      "hit": false,
      "t": 101942.70833333356,
      "d": 145.83333333332848,
      "v": 105
    },
    {
      "midi": 65,
      "hit": false,
      "t": 101942.70833333356,
      "d": 151.04166666665697,
      "v": 105
    },
    {
      "midi": 41,
      "hit": false,
      "t": 102072.91666666669,
      "d": 57.29166666667152,
      "v": 82
    },
    {
      "midi": 53,
      "hit": false,
      "t": 102072.91666666704,
      "d": 151.04166666667152,
      "v": 90
    },
    {
      "midi": 41,
      "hit": false,
      "t": 102098.95833333355,
      "d": 57.29166666667152,
      "v": 65
    },
    {
      "midi": 42,
      "hit": false,
      "t": 102234.37500000003,
      "d": 119.79166666667152,
      "v": 82
    },
    {
      "midi": 54,
      "hit": false,
      "t": 102239.5833333337,
      "d": 302.0833333333285,
      "v": 90
    },
    {
      "midi": 42,
      "hit": false,
      "t": 102260.41666666689,
      "d": 119.79166666667152,
      "v": 65
    },
    {
      "midi": 61,
      "hit": false,
      "t": 102390.62500000003,
      "d": 57.291666666656965,
      "v": 105
    },
    {
      "midi": 66,
      "hit": false,
      "t": 102395.83333333336,
      "d": 57.291666666656965,
      "v": 105
    },
    {
      "midi": 61,
      "hit": false,
      "t": 102416.66666666689,
      "d": 57.291666666656965,
      "v": 105
    },
    {
      "midi": 66,
      "hit": false,
      "t": 102421.87500000022,
      "d": 57.291666666656965,
      "v": 105
    },
    {
      "midi": 70,
      "hit": false,
      "t": 102552.0833333332,
      "d": 67.70833333332848,
      "v": 83
    },
    {
      "midi": 73,
      "hit": false,
      "t": 102557.29166666653,
      "d": 145.83333333332848,
      "v": 83
    },
    {
      "midi": 49,
      "hit": false,
      "t": 102708.33333333334,
      "d": 88.54166666667152,
      "v": 82
    },
    {
      "midi": 61,
      "hit": false,
      "t": 102713.54166666704,
      "d": 229.16666666667152,
      "v": 90
    },
    {
      "midi": 49,
      "hit": false,
      "t": 102734.3750000002,
      "d": 88.54166666667152,
      "v": 65
    },
    {
      "midi": 70,
      "hit": false,
      "t": 102874.99999999985,
      "d": 145.83333333332848,
      "v": 83
    },
    {
      "midi": 61,
      "hit": false,
      "t": 102875.00000000001,
      "d": 145.83333333332848,
      "v": 105
    },
    {
      "midi": 66,
      "hit": false,
      "t": 102875.00000000001,
      "d": 145.83333333332848,
      "v": 105
    },
    {
      "midi": 73,
      "hit": false,
      "t": 102880.20833333318,
      "d": 140.625,
      "v": 83
    },
    {
      "midi": 61,
      "hit": false,
      "t": 102895.83333333355,
      "d": 151.04166666667152,
      "v": 105
    },
    {
      "midi": 66,
      "hit": false,
      "t": 102895.83333333355,
      "d": 151.04166666667152,
      "v": 105
    },
    {
      "midi": 54,
      "hit": false,
      "t": 103026.04166666667,
      "d": 57.29166666667152,
      "v": 82
    },
    {
      "midi": 66,
      "hit": false,
      "t": 103031.25000000038,
      "d": 151.04166666667152,
      "v": 90
    },
    {
      "midi": 54,
      "hit": false,
      "t": 103057.29166666689,
      "d": 57.29166666667152,
      "v": 65
    },
    {
      "midi": 53,
      "hit": false,
      "t": 103192.70833333334,
      "d": 88.54166666667152,
      "v": 82
    },
    {
      "midi": 65,
      "hit": false,
      "t": 103192.70833333372,
      "d": 223.95833333332848,
      "v": 90
    },
    {
      "midi": 53,
      "hit": false,
      "t": 103213.54166666689,
      "d": 88.54166666667152,
      "v": 65
    },
    {
      "midi": 61,
      "hit": false,
      "t": 103348.95833333334,
      "d": 57.29166666667152,
      "v": 105
    },
    {
      "midi": 65,
      "hit": false,
      "t": 103348.95833333334,
      "d": 57.29166666667152,
      "v": 105
    },
    {
      "midi": 61,
      "hit": false,
      "t": 103375.00000000023,
      "d": 57.29166666667152,
      "v": 105
    },
    {
      "midi": 65,
      "hit": false,
      "t": 103375.00000000023,
      "d": 57.29166666667152,
      "v": 105
    },
    {
      "midi": 51,
      "hit": false,
      "t": 103510.41666666669,
      "d": 88.54166666667152,
      "v": 82
    },
    {
      "midi": 63,
      "hit": false,
      "t": 103510.41666666705,
      "d": 229.16666666667152,
      "v": 90
    },
    {
      "midi": 65,
      "hit": false,
      "t": 103515.62499999985,
      "d": 140.625,
      "v": 83
    },
    {
      "midi": 68,
      "hit": false,
      "t": 103515.62499999985,
      "d": 140.625,
      "v": 83
    },
    {
      "midi": 51,
      "hit": false,
      "t": 103531.25000000023,
      "d": 88.54166666667152,
      "v": 65
    },
    {
      "midi": 61,
      "hit": false,
      "t": 103666.66666666669,
      "d": 57.29166666667152,
      "v": 105
    },
    {
      "midi": 65,
      "hit": false,
      "t": 103666.66666666669,
      "d": 57.29166666667152,
      "v": 105
    },
    {
      "midi": 61,
      "hit": false,
      "t": 103692.70833333358,
      "d": 57.29166666667152,
      "v": 105
    },
    {
      "midi": 65,
      "hit": false,
      "t": 103692.70833333358,
      "d": 57.29166666667152,
      "v": 105
    },
    {
      "midi": 65,
      "hit": false,
      "t": 103828.12499999985,
      "d": 145.83333333332848,
      "v": 83
    },
    {
      "midi": 49,
      "hit": false,
      "t": 103828.12500000003,
      "d": 88.54166666667152,
      "v": 82
    },
    {
      "midi": 61,
      "hit": false,
      "t": 103828.1250000004,
      "d": 229.16666666667152,
      "v": 90
    },
    {
      "midi": 68,
      "hit": false,
      "t": 103833.33333333318,
      "d": 140.625,
      "v": 83
    },
    {
      "midi": 49,
      "hit": false,
      "t": 103848.95833333358,
      "d": 88.54166666667152,
      "v": 65
    },
    {
      "midi": 61,
      "hit": false,
      "t": 103984.37500000003,
      "d": 57.29166666667152,
      "v": 105
    },
    {
      "midi": 65,
      "hit": false,
      "t": 103984.37500000003,
      "d": 57.29166666667152,
      "v": 105
    },
    {
      "midi": 61,
      "hit": false,
      "t": 104010.41666666692,
      "d": 57.29166666667152,
      "v": 105
    },
    {
      "midi": 65,
      "hit": false,
      "t": 104010.41666666692,
      "d": 57.29166666667152,
      "v": 105
    },
    {
      "midi": 48,
      "hit": false,
      "t": 104145.83333333337,
      "d": 88.54166666667152,
      "v": 82
    },
    {
      "midi": 60,
      "hit": false,
      "t": 104145.83333333374,
      "d": 229.16666666667152,
      "v": 90
    },
    {
      "midi": 48,
      "hit": false,
      "t": 104171.87500000026,
      "d": 88.54166666667152,
      "v": 65
    },
    {
      "midi": 61,
      "hit": false,
      "t": 104302.08333333337,
      "d": 57.29166666667152,
      "v": 105
    },
    {
      "midi": 65,
      "hit": false,
      "t": 104302.08333333337,
      "d": 57.29166666667152,
      "v": 105
    },
    {
      "midi": 61,
      "hit": false,
      "t": 104328.12500000026,
      "d": 57.291666666656965,
      "v": 105
    },
    {
      "midi": 65,
      "hit": false,
      "t": 104333.33333333359,
      "d": 57.291666666656965,
      "v": 105
    },
    {
      "midi": 46,
      "hit": false,
      "t": 104463.54166666672,
      "d": 119.79166666667152,
      "v": 82
    },
    {
      "midi": 58,
      "hit": false,
      "t": 104468.75000000041,
      "d": 302.0833333333285,
      "v": 90
    },
    {
      "midi": 46,
      "hit": false,
      "t": 104489.58333333358,
      "d": 119.79166666667152,
      "v": 65
    },
    {
      "midi": 61,
      "hit": false,
      "t": 104619.79166666672,
      "d": 57.291666666656965,
      "v": 105
    },
    {
      "midi": 65,
      "hit": false,
      "t": 104625.00000000004,
      "d": 57.291666666656965,
      "v": 105
    },
    {
      "midi": 61,
      "hit": false,
      "t": 104645.83333333358,
      "d": 57.291666666656965,
      "v": 105
    },
    {
      "midi": 65,
      "hit": false,
      "t": 104651.0416666669,
      "d": 57.291666666656965,
      "v": 105
    },
    {
      "midi": 73,
      "hit": false,
      "t": 104781.24999999985,
      "d": 151.04166666665697,
      "v": 83
    },
    {
      "midi": 77,
      "hit": false,
      "t": 104786.45833333318,
      "d": 145.83333333332848,
      "v": 83
    },
    {
      "midi": 53,
      "hit": false,
      "t": 104937.50000000003,
      "d": 88.54166666667152,
      "v": 82
    },
    {
      "midi": 65,
      "hit": false,
      "t": 104942.70833333374,
      "d": 229.16666666667152,
      "v": 90
    },
    {
      "midi": 53,
      "hit": false,
      "t": 104963.54166666689,
      "d": 88.54166666667152,
      "v": 65
    },
    {
      "midi": 73,
      "hit": false,
      "t": 105104.16666666651,
      "d": 145.83333333332848,
      "v": 83
    },
    {
      "midi": 61,
      "hit": false,
      "t": 105104.1666666667,
      "d": 145.83333333332848,
      "v": 105
    },
    {
      "midi": 65,
      "hit": false,
      "t": 105104.1666666667,
      "d": 145.83333333332848,
      "v": 105
    },
    {
      "midi": 77,
      "hit": false,
      "t": 105109.37499999984,
      "d": 140.625,
      "v": 83
    },
    {
      "midi": 61,
      "hit": false,
      "t": 105125.00000000023,
      "d": 151.04166666667152,
      "v": 105
    },
    {
      "midi": 65,
      "hit": false,
      "t": 105125.00000000023,
      "d": 151.04166666667152,
      "v": 105
    },
    {
      "midi": 46,
      "hit": false,
      "t": 105255.20833333336,
      "d": 57.29166666667152,
      "v": 82
    },
    {
      "midi": 58,
      "hit": false,
      "t": 105260.41666666708,
      "d": 151.04166666667152,
      "v": 90
    },
    {
      "midi": 46,
      "hit": false,
      "t": 105286.45833333358,
      "d": 57.29166666667152,
      "v": 65
    },
    {
      "midi": 41,
      "hit": false,
      "t": 105416.6666666667,
      "d": 119.79166666667152,
      "v": 82
    },
    {
      "midi": 53,
      "hit": false,
      "t": 105421.87500000042,
      "d": 307.2916666666715,
      "v": 90
    },
    {
      "midi": 41,
      "hit": false,
      "t": 105442.70833333358,
      "d": 119.79166666667152,
      "v": 65
    },
    {
      "midi": 60,
      "hit": false,
      "t": 105578.12500000004,
      "d": 57.29166666667152,
      "v": 105
    },
    {
      "midi": 65,
      "hit": false,
      "t": 105578.12500000004,
      "d": 57.29166666667152,
      "v": 105
    },
    {
      "midi": 60,
      "hit": false,
      "t": 105604.16666666692,
      "d": 57.29166666667152,
      "v": 105
    },
    {
      "midi": 65,
      "hit": false,
      "t": 105604.16666666692,
      "d": 57.29166666667152,
      "v": 105
    },
    {
      "midi": 68,
      "hit": false,
      "t": 105739.58333333317,
      "d": 145.83333333332848,
      "v": 83
    },
    {
      "midi": 72,
      "hit": false,
      "t": 105739.58333333317,
      "d": 145.83333333332848,
      "v": 83
    },
    {
      "midi": 48,
      "hit": false,
      "t": 105895.83333333339,
      "d": 88.54166666667152,
      "v": 82
    },
    {
      "midi": 60,
      "hit": false,
      "t": 105895.83333333377,
      "d": 229.16666666667152,
      "v": 90
    },
    {
      "midi": 48,
      "hit": false,
      "t": 105921.87500000026,
      "d": 88.54166666667152,
      "v": 65
    },
    {
      "midi": 60,
      "hit": false,
      "t": 106057.29166666673,
      "d": 145.83333333332848,
      "v": 105
    },
    {
      "midi": 65,
      "hit": false,
      "t": 106057.29166666673,
      "d": 145.83333333332848,
      "v": 105
    },
    {
      "midi": 68,
      "hit": false,
      "t": 106062.49999999983,
      "d": 140.625,
      "v": 83
    },
    {
      "midi": 72,
      "hit": false,
      "t": 106062.49999999983,
      "d": 140.625,
      "v": 83
    },
    {
      "midi": 60,
      "hit": false,
      "t": 106078.12500000026,
      "d": 151.04166666665697,
      "v": 105
    },
    {
      "midi": 65,
      "hit": false,
      "t": 106083.33333333359,
      "d": 145.83333333332848,
      "v": 105
    },
    {
      "midi": 41,
      "hit": false,
      "t": 106213.54166666673,
      "d": 57.29166666667152,
      "v": 82
    },
    {
      "midi": 53,
      "hit": false,
      "t": 106213.54166666711,
      "d": 151.04166666667152,
      "v": 90
    },
    {
      "midi": 41,
      "hit": false,
      "t": 106239.58333333359,
      "d": 57.29166666667152,
      "v": 65
    },
    {
      "midi": 42,
      "hit": false,
      "t": 106375.00000000007,
      "d": 119.79166666667152,
      "v": 82
    },
    {
      "midi": 54,
      "hit": false,
      "t": 106380.20833333378,
      "d": 302.0833333333285,
      "v": 90
    },
    {
      "midi": 42,
      "hit": false,
      "t": 106401.04166666693,
      "d": 119.79166666667152,
      "v": 65
    },
    {
      "midi": 61,
      "hit": false,
      "t": 106531.25000000007,
      "d": 57.29166666667152,
      "v": 105
    },
    {
      "midi": 66,
      "hit": false,
      "t": 106531.25000000007,
      "d": 57.29166666667152,
      "v": 105
    },
    {
      "midi": 61,
      "hit": false,
      "t": 106557.29166666693,
      "d": 57.291666666656965,
      "v": 105
    },
    {
      "midi": 66,
      "hit": false,
      "t": 106562.50000000026,
      "d": 57.291666666656965,
      "v": 105
    },
    {
      "midi": 70,
      "hit": false,
      "t": 106692.70833333315,
      "d": 151.04166666665697,
      "v": 83
    },
    {
      "midi": 73,
      "hit": false,
      "t": 106697.91666666648,
      "d": 145.83333333332848,
      "v": 83
    },
    {
      "midi": 49,
      "hit": false,
      "t": 106848.95833333342,
      "d": 88.54166666667152,
      "v": 82
    },
    {
      "midi": 61,
      "hit": false,
      "t": 106854.16666666711,
      "d": 229.16666666667152,
      "v": 90
    },
    {
      "midi": 49,
      "hit": false,
      "t": 106875.00000000025,
      "d": 88.54166666667152,
      "v": 65
    },
    {
      "midi": 61,
      "hit": false,
      "t": 107010.41666666676,
      "d": 151.04166666665697,
      "v": 105
    },
    {
      "midi": 70,
      "hit": false,
      "t": 107015.62499999981,
      "d": 223.95833333332848,
      "v": 83
    },
    {
      "midi": 66,
      "hit": false,
      "t": 107015.62500000009,
      "d": 145.83333333332848,
      "v": 105
    },
    {
      "midi": 73,
      "hit": false,
      "t": 107020.83333333314,
      "d": 218.75,
      "v": 83
    },
    {
      "midi": 61,
      "hit": false,
      "t": 107036.45833333359,
      "d": 151.04166666667152,
      "v": 105
    },
    {
      "midi": 66,
      "hit": false,
      "t": 107036.45833333359,
      "d": 151.04166666667152,
      "v": 105
    },
    {
      "midi": 54,
      "hit": false,
      "t": 107166.66666666674,
      "d": 57.29166666667152,
      "v": 82
    },
    {
      "midi": 66,
      "hit": false,
      "t": 107171.87500000045,
      "d": 145.83333333332848,
      "v": 90
    },
    {
      "midi": 54,
      "hit": false,
      "t": 107192.70833333359,
      "d": 57.29166666667152,
      "v": 65
    },
    {
      "midi": 53,
      "hit": false,
      "t": 107333.33333333342,
      "d": 88.54166666667152,
      "v": 82
    },
    {
      "midi": 65,
      "hit": false,
      "t": 107333.33333333378,
      "d": 223.95833333332848,
      "v": 90
    },
    {
      "midi": 53,
      "hit": false,
      "t": 107354.16666666693,
      "d": 88.54166666667152,
      "v": 65
    },
    {
      "midi": 61,
      "hit": false,
      "t": 107484.37500000009,
      "d": 57.291666666656965,
      "v": 105
    },
    {
      "midi": 65,
      "hit": false,
      "t": 107489.58333333342,
      "d": 57.291666666656965,
      "v": 105
    },
    {
      "midi": 61,
      "hit": false,
      "t": 107515.62500000028,
      "d": 57.29166666667152,
      "v": 105
    },
    {
      "midi": 65,
      "hit": false,
      "t": 107515.62500000028,
      "d": 57.29166666667152,
      "v": 105
    },
    {
      "midi": 65,
      "hit": false,
      "t": 107651.04166666647,
      "d": 145.83333333332848,
      "v": 83
    },
    {
      "midi": 51,
      "hit": false,
      "t": 107651.04166666674,
      "d": 88.54166666667152,
      "v": 82
    },
    {
      "midi": 63,
      "hit": false,
      "t": 107651.04166666711,
      "d": 229.16666666667152,
      "v": 90
    },
    {
      "midi": 68,
      "hit": false,
      "t": 107656.2499999998,
      "d": 140.625,
      "v": 83
    },
    {
      "midi": 51,
      "hit": false,
      "t": 107671.87500000028,
      "d": 88.54166666667152,
      "v": 65
    },
    {
      "midi": 61,
      "hit": false,
      "t": 107807.29166666674,
      "d": 57.29166666667152,
      "v": 105
    },
    {
      "midi": 65,
      "hit": false,
      "t": 107807.29166666674,
      "d": 57.29166666667152,
      "v": 105
    },
    {
      "midi": 61,
      "hit": false,
      "t": 107833.33333333362,
      "d": 57.29166666667152,
      "v": 105
    },
    {
      "midi": 65,
      "hit": false,
      "t": 107833.33333333362,
      "d": 57.29166666667152,
      "v": 105
    },
    {
      "midi": 65,
      "hit": false,
      "t": 107968.7499999998,
      "d": 229.16666666665697,
      "v": 83
    },
    {
      "midi": 49,
      "hit": false,
      "t": 107968.75000000009,
      "d": 88.54166666667152,
      "v": 82
    },
    {
      "midi": 61,
      "hit": false,
      "t": 107968.75000000045,
      "d": 229.16666666667152,
      "v": 90
    },
    {
      "midi": 68,
      "hit": false,
      "t": 107973.95833333312,
      "d": 223.95833333332848,
      "v": 83
    },
    {
      "midi": 49,
      "hit": false,
      "t": 107989.58333333362,
      "d": 88.54166666667152,
      "v": 65
    },
    {
      "midi": 61,
      "hit": false,
      "t": 108125.00000000009,
      "d": 57.29166666667152,
      "v": 105
    },
    {
      "midi": 65,
      "hit": false,
      "t": 108125.00000000009,
      "d": 57.29166666667152,
      "v": 105
    },
    {
      "midi": 61,
      "hit": false,
      "t": 108151.04166666696,
      "d": 57.29166666667152,
      "v": 105
    },
    {
      "midi": 65,
      "hit": false,
      "t": 108151.04166666696,
      "d": 57.29166666667152,
      "v": 105
    },
    {
      "midi": 48,
      "hit": false,
      "t": 108286.45833333343,
      "d": 88.54166666667152,
      "v": 82
    },
    {
      "midi": 60,
      "hit": false,
      "t": 108286.4583333338,
      "d": 229.16666666667152,
      "v": 90
    },
    {
      "midi": 48,
      "hit": false,
      "t": 108307.29166666696,
      "d": 88.54166666667152,
      "v": 65
    },
    {
      "midi": 61,
      "hit": false,
      "t": 108442.70833333343,
      "d": 57.29166666667152,
      "v": 105
    },
    {
      "midi": 65,
      "hit": false,
      "t": 108442.70833333343,
      "d": 57.29166666667152,
      "v": 105
    },
    {
      "midi": 61,
      "hit": false,
      "t": 108468.7500000003,
      "d": 57.29166666667152,
      "v": 105
    },
    {
      "midi": 65,
      "hit": false,
      "t": 108468.7500000003,
      "d": 57.29166666667152,
      "v": 105
    },
    {
      "midi": 46,
      "hit": false,
      "t": 108604.16666666677,
      "d": 119.79166666667152,
      "v": 82
    },
    {
      "midi": 58,
      "hit": false,
      "t": 108609.37500000047,
      "d": 302.0833333333285,
      "v": 90
    },
    {
      "midi": 46,
      "hit": false,
      "t": 108630.20833333365,
      "d": 119.79166666667152,
      "v": 65
    },
    {
      "midi": 61,
      "hit": false,
      "t": 108760.41666666677,
      "d": 57.291666666656965,
      "v": 105
    },
    {
      "midi": 65,
      "hit": false,
      "t": 108765.6250000001,
      "d": 57.291666666656965,
      "v": 105
    },
    {
      "midi": 61,
      "hit": false,
      "t": 108786.45833333365,
      "d": 57.291666666656965,
      "v": 105
    },
    {
      "midi": 65,
      "hit": false,
      "t": 108791.66666666698,
      "d": 57.291666666656965,
      "v": 105
    },
    {
      "midi": 73,
      "hit": false,
      "t": 108921.87499999978,
      "d": 151.04166666665697,
      "v": 83
    },
    {
      "midi": 77,
      "hit": false,
      "t": 108927.08333333311,
      "d": 145.83333333332848,
      "v": 83
    },
    {
      "midi": 53,
      "hit": false,
      "t": 109078.12500000009,
      "d": 88.54166666667152,
      "v": 82
    },
    {
      "midi": 65,
      "hit": false,
      "t": 109083.3333333338,
      "d": 229.16666666667152,
      "v": 90
    },
    {
      "midi": 53,
      "hit": false,
      "t": 109104.16666666696,
      "d": 88.54166666667152,
      "v": 65
    },
    {
      "midi": 73,
      "hit": false,
      "t": 109244.79166666644,
      "d": 223.95833333332848,
      "v": 83
    },
    {
      "midi": 61,
      "hit": false,
      "t": 109244.79166666676,
      "d": 145.83333333332848,
      "v": 105
    },
    {
      "midi": 65,
      "hit": false,
      "t": 109244.79166666676,
      "d": 145.83333333332848,
      "v": 105
    },
    {
      "midi": 77,
      "hit": false,
      "t": 109249.99999999977,
      "d": 140.625,
      "v": 83
    },
    {
      "midi": 61,
      "hit": false,
      "t": 109265.6250000003,
      "d": 151.04166666667152,
      "v": 105
    },
    {
      "midi": 65,
      "hit": false,
      "t": 109265.6250000003,
      "d": 151.04166666667152,
      "v": 105
    },
    {
      "midi": 46,
      "hit": false,
      "t": 109395.83333333342,
      "d": 57.29166666667152,
      "v": 82
    },
    {
      "midi": 58,
      "hit": false,
      "t": 109401.04166666714,
      "d": 151.04166666667152,
      "v": 90
    },
    {
      "midi": 46,
      "hit": false,
      "t": 109427.08333333365,
      "d": 57.29166666667152,
      "v": 65
    },
    {
      "midi": 41,
      "hit": false,
      "t": 109557.29166666676,
      "d": 88.54166666667152,
      "v": 82
    },
    {
      "midi": 53,
      "hit": false,
      "t": 109562.50000000048,
      "d": 223.95833333332848,
      "v": 90
    },
    {
      "midi": 41,
      "hit": false,
      "t": 109583.33333333365,
      "d": 88.54166666667152,
      "v": 65
    },
    {
      "midi": 60,
      "hit": false,
      "t": 109718.7500000001,
      "d": 57.29166666667152,
      "v": 105
    },
    {
      "midi": 65,
      "hit": false,
      "t": 109718.7500000001,
      "d": 57.29166666667152,
      "v": 105
    },
    {
      "midi": 60,
      "hit": false,
      "t": 109744.79166666699,
      "d": 57.29166666667152,
      "v": 105
    },
    {
      "midi": 65,
      "hit": false,
      "t": 109744.79166666699,
      "d": 57.29166666667152,
      "v": 105
    },
    {
      "midi": 68,
      "hit": false,
      "t": 109880.2083333331,
      "d": 223.95833333332848,
      "v": 83
    },
    {
      "midi": 72,
      "hit": false,
      "t": 109880.2083333331,
      "d": 229.16666666665697,
      "v": 83
    },
    {
      "midi": 48,
      "hit": false,
      "t": 110036.45833333344,
      "d": 88.54166666667152,
      "v": 82
    },
    {
      "midi": 60,
      "hit": false,
      "t": 110036.45833333381,
      "d": 229.16666666667152,
      "v": 90
    },
    {
      "midi": 48,
      "hit": false,
      "t": 110062.50000000033,
      "d": 88.54166666667152,
      "v": 65
    },
    {
      "midi": 60,
      "hit": false,
      "t": 110197.91666666679,
      "d": 145.83333333332848,
      "v": 105
    },
    {
      "midi": 65,
      "hit": false,
      "t": 110197.91666666679,
      "d": 145.83333333332848,
      "v": 105
    },
    {
      "midi": 68,
      "hit": false,
      "t": 110203.12499999975,
      "d": 218.75,
      "v": 83
    },
    {
      "midi": 72,
      "hit": false,
      "t": 110203.12499999975,
      "d": 223.95833333332848,
      "v": 83
    },
    {
      "midi": 60,
      "hit": false,
      "t": 110218.75000000033,
      "d": 151.04166666665697,
      "v": 105
    },
    {
      "midi": 65,
      "hit": false,
      "t": 110223.95833333366,
      "d": 145.83333333332848,
      "v": 105
    },
    {
      "midi": 41,
      "hit": false,
      "t": 110354.16666666679,
      "d": 57.29166666667152,
      "v": 82
    },
    {
      "midi": 53,
      "hit": false,
      "t": 110354.16666666715,
      "d": 151.04166666667152,
      "v": 90
    },
    {
      "midi": 41,
      "hit": false,
      "t": 110380.20833333366,
      "d": 57.29166666667152,
      "v": 65
    },
    {
      "midi": 42,
      "hit": false,
      "t": 110515.62500000013,
      "d": 119.79166666667152,
      "v": 82
    },
    {
      "midi": 54,
      "hit": false,
      "t": 110515.6250000005,
      "d": 307.2916666666715,
      "v": 90
    },
    {
      "midi": 42,
      "hit": false,
      "t": 110536.45833333366,
      "d": 119.79166666667152,
      "v": 65
    },
    {
      "midi": 61,
      "hit": false,
      "t": 110671.87500000013,
      "d": 57.29166666667152,
      "v": 105
    },
    {
      "midi": 66,
      "hit": false,
      "t": 110671.87500000013,
      "d": 57.29166666667152,
      "v": 105
    },
    {
      "midi": 61,
      "hit": false,
      "t": 110697.916666667,
      "d": 57.29166666667152,
      "v": 105
    },
    {
      "midi": 66,
      "hit": false,
      "t": 110697.916666667,
      "d": 57.29166666667152,
      "v": 105
    },
    {
      "midi": 70,
      "hit": false,
      "t": 110833.33333333308,
      "d": 145.83333333332848,
      "v": 83
    },
    {
      "midi": 73,
      "hit": false,
      "t": 110838.54166666641,
      "d": 145.83333333332848,
      "v": 83
    },
    {
      "midi": 49,
      "hit": false,
      "t": 110989.58333333347,
      "d": 88.54166666667152,
      "v": 82
    },
    {
      "midi": 61,
      "hit": false,
      "t": 110989.58333333384,
      "d": 234.375,
      "v": 90
    },
    {
      "midi": 49,
      "hit": false,
      "t": 111015.62500000035,
      "d": 88.54166666667152,
      "v": 65
    },
    {
      "midi": 61,
      "hit": false,
      "t": 111151.04166666682,
      "d": 145.83333333332848,
      "v": 105
    },
    {
      "midi": 70,
      "hit": false,
      "t": 111156.24999999974,
      "d": 223.95833333332848,
      "v": 83
    },
    {
      "midi": 73,
      "hit": false,
      "t": 111156.24999999974,
      "d": 223.95833333332848,
      "v": 83
    },
    {
      "midi": 66,
      "hit": false,
      "t": 111156.25000000015,
      "d": 145.83333333332848,
      "v": 105
    },
    {
      "midi": 61,
      "hit": false,
      "t": 111177.08333333369,
      "d": 151.04166666667152,
      "v": 105
    },
    {
      "midi": 66,
      "hit": false,
      "t": 111177.08333333369,
      "d": 151.04166666667152,
      "v": 105
    },
    {
      "midi": 54,
      "hit": false,
      "t": 111307.2916666668,
      "d": 57.29166666667152,
      "v": 82
    },
    {
      "midi": 66,
      "hit": false,
      "t": 111312.50000000051,
      "d": 145.83333333332848,
      "v": 90
    },
    {
      "midi": 54,
      "hit": false,
      "t": 111333.33333333369,
      "d": 57.29166666667152,
      "v": 65
    },
    {
      "midi": 53,
      "hit": false,
      "t": 111473.95833333347,
      "d": 88.54166666667152,
      "v": 82
    },
    {
      "midi": 65,
      "hit": false,
      "t": 111473.95833333384,
      "d": 223.95833333332848,
      "v": 90
    },
    {
      "midi": 53,
      "hit": false,
      "t": 111494.79166666704,
      "d": 88.54166666667152,
      "v": 65
    },
    {
      "midi": 61,
      "hit": false,
      "t": 111625.00000000015,
      "d": 57.291666666656965,
      "v": 105
    },
    {
      "midi": 65,
      "hit": false,
      "t": 111630.20833333347,
      "d": 57.291666666656965,
      "v": 105
    },
    {
      "midi": 61,
      "hit": false,
      "t": 111656.25000000038,
      "d": 57.29166666667152,
      "v": 105
    },
    {
      "midi": 65,
      "hit": false,
      "t": 111656.25000000038,
      "d": 57.29166666667152,
      "v": 105
    },
    {
      "midi": 65,
      "hit": false,
      "t": 111791.6666666664,
      "d": 145.83333333332848,
      "v": 83
    },
    {
      "midi": 51,
      "hit": false,
      "t": 111791.6666666668,
      "d": 88.54166666667152,
      "v": 82
    },
    {
      "midi": 63,
      "hit": false,
      "t": 111791.66666666717,
      "d": 223.95833333332848,
      "v": 90
    },
    {
      "midi": 68,
      "hit": false,
      "t": 111796.87499999972,
      "d": 140.625,
      "v": 83
    },
    {
      "midi": 51,
      "hit": false,
      "t": 111812.50000000038,
      "d": 88.54166666667152,
      "v": 65
    },
    {
      "midi": 61,
      "hit": false,
      "t": 111947.9166666668,
      "d": 57.29166666667152,
      "v": 105
    },
    {
      "midi": 65,
      "hit": false,
      "t": 111947.9166666668,
      "d": 57.29166666667152,
      "v": 105
    },
    {
      "midi": 61,
      "hit": false,
      "t": 111973.95833333372,
      "d": 57.29166666667152,
      "v": 105
    },
    {
      "midi": 65,
      "hit": false,
      "t": 111973.95833333372,
      "d": 57.29166666667152,
      "v": 105
    },
    {
      "midi": 65,
      "hit": false,
      "t": 112109.37499999972,
      "d": 229.16666666665697,
      "v": 83
    },
    {
      "midi": 49,
      "hit": false,
      "t": 112109.37500000015,
      "d": 88.54166666667152,
      "v": 82
    },
    {
      "midi": 61,
      "hit": false,
      "t": 112109.3750000005,
      "d": 229.16666666667152,
      "v": 90
    },
    {
      "midi": 68,
      "hit": false,
      "t": 112114.58333333305,
      "d": 140.625,
      "v": 83
    },
    {
      "midi": 49,
      "hit": false,
      "t": 112130.20833333372,
      "d": 88.54166666667152,
      "v": 65
    },
    {
      "midi": 61,
      "hit": false,
      "t": 112265.62500000015,
      "d": 57.29166666667152,
      "v": 105
    },
    {
      "midi": 65,
      "hit": false,
      "t": 112265.62500000015,
      "d": 57.29166666667152,
      "v": 105
    },
    {
      "midi": 61,
      "hit": false,
      "t": 112291.66666666706,
      "d": 57.29166666667152,
      "v": 105
    },
    {
      "midi": 65,
      "hit": false,
      "t": 112291.66666666706,
      "d": 57.29166666667152,
      "v": 105
    },
    {
      "midi": 48,
      "hit": false,
      "t": 112427.08333333349,
      "d": 88.54166666667152,
      "v": 82
    },
    {
      "midi": 60,
      "hit": false,
      "t": 112427.08333333384,
      "d": 229.16666666667152,
      "v": 90
    },
    {
      "midi": 48,
      "hit": false,
      "t": 112447.91666666706,
      "d": 88.54166666667152,
      "v": 65
    },
    {
      "midi": 61,
      "hit": false,
      "t": 112583.33333333349,
      "d": 57.29166666667152,
      "v": 105
    },
    {
      "midi": 65,
      "hit": false,
      "t": 112583.33333333349,
      "d": 57.29166666667152,
      "v": 105
    },
    {
      "midi": 61,
      "hit": false,
      "t": 112609.37500000041,
      "d": 57.29166666667152,
      "v": 105
    },
    {
      "midi": 65,
      "hit": false,
      "t": 112609.37500000041,
      "d": 57.29166666667152,
      "v": 105
    },
    {
      "midi": 46,
      "hit": false,
      "t": 112744.79166666683,
      "d": 119.79166666667152,
      "v": 82
    },
    {
      "midi": 58,
      "hit": false,
      "t": 112750.00000000051,
      "d": 302.0833333333285,
      "v": 90
    },
    {
      "midi": 46,
      "hit": false,
      "t": 112770.83333333375,
      "d": 119.79166666667152,
      "v": 65
    },
    {
      "midi": 61,
      "hit": false,
      "t": 112901.04166666683,
      "d": 57.29166666667152,
      "v": 105
    },
    {
      "midi": 65,
      "hit": false,
      "t": 112901.04166666683,
      "d": 57.29166666667152,
      "v": 105
    },
    {
      "midi": 61,
      "hit": false,
      "t": 112927.08333333375,
      "d": 57.291666666656965,
      "v": 105
    },
    {
      "midi": 65,
      "hit": false,
      "t": 112932.29166666708,
      "d": 57.291666666656965,
      "v": 105
    },
    {
      "midi": 73,
      "hit": false,
      "t": 113062.49999999971,
      "d": 145.83333333332848,
      "v": 83
    },
    {
      "midi": 77,
      "hit": false,
      "t": 113067.70833333304,
      "d": 145.83333333332848,
      "v": 83
    },
    {
      "midi": 53,
      "hit": false,
      "t": 113218.75000000017,
      "d": 88.54166666667152,
      "v": 82
    },
    {
      "midi": 65,
      "hit": false,
      "t": 113223.95833333384,
      "d": 229.16666666667152,
      "v": 90
    },
    {
      "midi": 53,
      "hit": false,
      "t": 113244.79166666706,
      "d": 88.54166666667152,
      "v": 65
    },
    {
      "midi": 61,
      "hit": false,
      "t": 113380.20833333352,
      "d": 145.83333333332848,
      "v": 105
    },
    {
      "midi": 73,
      "hit": false,
      "t": 113385.41666666637,
      "d": 145.83333333332848,
      "v": 83
    },
    {
      "midi": 77,
      "hit": false,
      "t": 113385.41666666637,
      "d": 145.83333333332848,
      "v": 83
    },
    {
      "midi": 65,
      "hit": false,
      "t": 113385.41666666685,
      "d": 145.83333333332848,
      "v": 105
    },
    {
      "midi": 61,
      "hit": false,
      "t": 113406.25000000041,
      "d": 151.04166666667152,
      "v": 105
    },
    {
      "midi": 65,
      "hit": false,
      "t": 113406.25000000041,
      "d": 151.04166666667152,
      "v": 105
    },
    {
      "midi": 46,
      "hit": false,
      "t": 113536.4583333335,
      "d": 57.29166666667152,
      "v": 82
    },
    {
      "midi": 58,
      "hit": false,
      "t": 113541.66666666718,
      "d": 145.83333333332848,
      "v": 90
    },
    {
      "midi": 46,
      "hit": false,
      "t": 113562.50000000041,
      "d": 57.29166666667152,
      "v": 65
    },
    {
      "midi": 41,
      "hit": false,
      "t": 113703.12500000017,
      "d": 114.58333333332848,
      "v": 82
    },
    {
      "midi": 53,
      "hit": false,
      "t": 113703.12500000051,
      "d": 307.2916666666715,
      "v": 90
    },
    {
      "midi": 41,
      "hit": false,
      "t": 113723.95833333375,
      "d": 119.79166666667152,
      "v": 65
    },
    {
      "midi": 60,
      "hit": false,
      "t": 113854.16666666683,
      "d": 57.291666666656965,
      "v": 105
    },
    {
      "midi": 65,
      "hit": false,
      "t": 113859.37500000016,
      "d": 57.291666666656965,
      "v": 105
    },
    {
      "midi": 60,
      "hit": false,
      "t": 113885.4166666671,
      "d": 57.29166666667152,
      "v": 105
    },
    {
      "midi": 65,
      "hit": false,
      "t": 113885.4166666671,
      "d": 57.29166666667152,
      "v": 105
    },
    {
      "midi": 68,
      "hit": false,
      "t": 114020.83333333302,
      "d": 145.83333333332848,
      "v": 83
    },
    {
      "midi": 72,
      "hit": false,
      "t": 114020.83333333302,
      "d": 145.83333333332848,
      "v": 83
    },
    {
      "midi": 48,
      "hit": false,
      "t": 114177.08333333349,
      "d": 88.54166666667152,
      "v": 82
    },
    {
      "midi": 60,
      "hit": false,
      "t": 114177.08333333385,
      "d": 229.16666666667152,
      "v": 90
    },
    {
      "midi": 48,
      "hit": false,
      "t": 114203.12500000044,
      "d": 88.54166666667152,
      "v": 65
    },
    {
      "midi": 60,
      "hit": false,
      "t": 114338.54166666683,
      "d": 145.83333333332848,
      "v": 105
    },
    {
      "midi": 65,
      "hit": false,
      "t": 114338.54166666683,
      "d": 145.83333333332848,
      "v": 105
    },
    {
      "midi": 68,
      "hit": false,
      "t": 114343.74999999968,
      "d": 218.75,
      "v": 83
    },
    {
      "midi": 72,
      "hit": false,
      "t": 114343.74999999968,
      "d": 223.95833333332848,
      "v": 83
    },
    {
      "midi": 60,
      "hit": false,
      "t": 114359.37500000044,
      "d": 151.04166666665697,
      "v": 105
    },
    {
      "midi": 65,
      "hit": false,
      "t": 114364.58333333377,
      "d": 145.83333333332848,
      "v": 105
    },
    {
      "midi": 41,
      "hit": false,
      "t": 114494.79166666683,
      "d": 57.29166666667152,
      "v": 82
    },
    {
      "midi": 53,
      "hit": false,
      "t": 114494.7916666672,
      "d": 151.04166666667152,
      "v": 90
    },
    {
      "midi": 41,
      "hit": false,
      "t": 114520.83333333377,
      "d": 57.29166666667152,
      "v": 65
    },
    {
      "midi": 44,
      "hit": false,
      "t": 114656.25000000017,
      "d": 119.79166666667152,
      "v": 82
    },
    {
      "midi": 56,
      "hit": false,
      "t": 114656.25000000054,
      "d": 307.2916666666715,
      "v": 90
    },
    {
      "midi": 44,
      "hit": false,
      "t": 114677.08333333377,
      "d": 119.79166666667152,
      "v": 65
    },
    {
      "midi": 60,
      "hit": false,
      "t": 114812.50000000017,
      "d": 57.29166666667152,
      "v": 105
    },
    {
      "midi": 63,
      "hit": false,
      "t": 114812.50000000017,
      "d": 57.29166666667152,
      "v": 105
    },
    {
      "midi": 60,
      "hit": false,
      "t": 114838.54166666711,
      "d": 57.29166666667152,
      "v": 105
    },
    {
      "midi": 63,
      "hit": false,
      "t": 114838.54166666711,
      "d": 57.29166666667152,
      "v": 105
    },
    {
      "midi": 72,
      "hit": false,
      "t": 114973.95833333301,
      "d": 145.83333333332848,
      "v": 83
    },
    {
      "midi": 75,
      "hit": false,
      "t": 114973.95833333301,
      "d": 151.04166666665697,
      "v": 83
    },
    {
      "midi": 51,
      "hit": false,
      "t": 115130.20833333352,
      "d": 88.54166666667152,
      "v": 82
    },
    {
      "midi": 63,
      "hit": false,
      "t": 115130.20833333388,
      "d": 229.16666666667152,
      "v": 90
    },
    {
      "midi": 51,
      "hit": false,
      "t": 115156.25000000045,
      "d": 88.54166666667152,
      "v": 65
    },
    {
      "midi": 60,
      "hit": false,
      "t": 115291.66666666686,
      "d": 145.83333333332848,
      "v": 105
    },
    {
      "midi": 75,
      "hit": false,
      "t": 115296.87499999967,
      "d": 145.83333333332848,
      "v": 83
    },
    {
      "midi": 72,
      "hit": false,
      "t": 115296.87499999967,
      "d": 223.95833333332848,
      "v": 83
    },
    {
      "midi": 63,
      "hit": false,
      "t": 115296.87500000019,
      "d": 145.83333333332848,
      "v": 105
    },
    {
      "midi": 60,
      "hit": false,
      "t": 115317.7083333338,
      "d": 145.83333333332848,
      "v": 105
    },
    {
      "midi": 63,
      "hit": false,
      "t": 115317.7083333338,
      "d": 151.04166666665697,
      "v": 105
    },
    {
      "midi": 44,
      "hit": false,
      "t": 115447.91666666685,
      "d": 57.29166666667152,
      "v": 82
    },
    {
      "midi": 56,
      "hit": false,
      "t": 115453.12500000055,
      "d": 145.83333333332848,
      "v": 90
    },
    {
      "midi": 44,
      "hit": false,
      "t": 115473.95833333378,
      "d": 57.29166666667152,
      "v": 65
    },
    {
      "midi": 42,
      "hit": false,
      "t": 115609.37500000019,
      "d": 88.54166666667152,
      "v": 82
    },
    {
      "midi": 54,
      "hit": false,
      "t": 115614.58333333388,
      "d": 223.95833333332848,
      "v": 90
    },
    {
      "midi": 42,
      "hit": false,
      "t": 115635.41666666712,
      "d": 88.54166666667152,
      "v": 65
    },
    {
      "midi": 58,
      "hit": false,
      "t": 115765.62500000019,
      "d": 57.291666666656965,
      "v": 105
    },
    {
      "midi": 61,
      "hit": false,
      "t": 115770.83333333352,
      "d": 57.291666666656965,
      "v": 105
    },
    {
      "midi": 58,
      "hit": false,
      "t": 115791.66666666712,
      "d": 57.291666666656965,
      "v": 105
    },
    {
      "midi": 61,
      "hit": false,
      "t": 115796.87500000045,
      "d": 57.291666666656965,
      "v": 105
    },
    {
      "midi": 41,
      "hit": false,
      "t": 115927.0833333335,
      "d": 88.54166666667152,
      "v": 82
    },
    {
      "midi": 70,
      "hit": false,
      "t": 115932.29166666632,
      "d": 67.70833333332848,
      "v": 83
    },
    {
      "midi": 53,
      "hit": false,
      "t": 115932.29166666721,
      "d": 223.95833333332848,
      "v": 90
    },
    {
      "midi": 73,
      "hit": false,
      "t": 115937.49999999965,
      "d": 140.625,
      "v": 83
    },
    {
      "midi": 41,
      "hit": false,
      "t": 115953.12500000044,
      "d": 88.54166666667152,
      "v": 65
    },
    {
      "midi": 58,
      "hit": false,
      "t": 116088.54166666685,
      "d": 57.29166666667152,
      "v": 105
    },
    {
      "midi": 61,
      "hit": false,
      "t": 116088.54166666685,
      "d": 57.29166666667152,
      "v": 105
    },
    {
      "midi": 58,
      "hit": false,
      "t": 116114.58333333378,
      "d": 57.29166666667152,
      "v": 105
    },
    {
      "midi": 61,
      "hit": false,
      "t": 116114.58333333378,
      "d": 57.29166666667152,
      "v": 105
    },
    {
      "midi": 39,
      "hit": false,
      "t": 116244.79166666685,
      "d": 88.54166666667152,
      "v": 82
    },
    {
      "midi": 70,
      "hit": false,
      "t": 116249.99999999965,
      "d": 145.83333333332848,
      "v": 83
    },
    {
      "midi": 51,
      "hit": false,
      "t": 116250.00000000054,
      "d": 223.95833333332848,
      "v": 90
    },
    {
      "midi": 73,
      "hit": false,
      "t": 116255.20833333298,
      "d": 140.625,
      "v": 83
    },
    {
      "midi": 39,
      "hit": false,
      "t": 116270.83333333378,
      "d": 88.54166666667152,
      "v": 65
    },
    {
      "midi": 58,
      "hit": false,
      "t": 116406.25000000019,
      "d": 57.29166666667152,
      "v": 105
    },
    {
      "midi": 61,
      "hit": false,
      "t": 116406.25000000019,
      "d": 57.29166666667152,
      "v": 105
    },
    {
      "midi": 58,
      "hit": false,
      "t": 116432.29166666712,
      "d": 57.29166666667152,
      "v": 105
    },
    {
      "midi": 61,
      "hit": false,
      "t": 116432.29166666712,
      "d": 57.29166666667152,
      "v": 105
    },
    {
      "midi": 37,
      "hit": false,
      "t": 116562.50000000019,
      "d": 88.54166666667152,
      "v": 82
    },
    {
      "midi": 49,
      "hit": false,
      "t": 116572.9166666672,
      "d": 223.95833333332848,
      "v": 90
    },
    {
      "midi": 37,
      "hit": false,
      "t": 116588.54166666712,
      "d": 88.54166666667152,
      "v": 65
    },
    {
      "midi": 58,
      "hit": false,
      "t": 116723.95833333353,
      "d": 57.29166666667152,
      "v": 105
    },
    {
      "midi": 61,
      "hit": false,
      "t": 116723.95833333353,
      "d": 57.29166666667152,
      "v": 105
    },
    {
      "midi": 58,
      "hit": false,
      "t": 116750.00000000047,
      "d": 57.29166666667152,
      "v": 105
    },
    {
      "midi": 61,
      "hit": false,
      "t": 116750.00000000047,
      "d": 57.29166666667152,
      "v": 105
    },
    {
      "midi": 39,
      "hit": false,
      "t": 116885.41666666688,
      "d": 119.79166666667152,
      "v": 82
    },
    {
      "midi": 51,
      "hit": false,
      "t": 116885.4166666672,
      "d": 307.2916666666715,
      "v": 90
    },
    {
      "midi": 39,
      "hit": false,
      "t": 116906.25000000047,
      "d": 119.79166666667152,
      "v": 65
    },
    {
      "midi": 54,
      "hit": false,
      "t": 117041.66666666688,
      "d": 57.29166666667152,
      "v": 105
    },
    {
      "midi": 58,
      "hit": false,
      "t": 117041.66666666688,
      "d": 57.29166666667152,
      "v": 105
    },
    {
      "midi": 54,
      "hit": false,
      "t": 117067.70833333381,
      "d": 57.29166666667152,
      "v": 105
    },
    {
      "midi": 58,
      "hit": false,
      "t": 117067.70833333381,
      "d": 57.29166666667152,
      "v": 105
    },
    {
      "midi": 78,
      "hit": false,
      "t": 117203.12499999965,
      "d": 145.83333333332848,
      "v": 83
    },
    {
      "midi": 82,
      "hit": false,
      "t": 117208.33333333298,
      "d": 145.83333333332848,
      "v": 83
    },
    {
      "midi": 42,
      "hit": false,
      "t": 117359.37500000022,
      "d": 88.54166666667152,
      "v": 82
    },
    {
      "midi": 54,
      "hit": false,
      "t": 117359.37500000054,
      "d": 546.875,
      "v": 90
    },
    {
      "midi": 42,
      "hit": false,
      "t": 117385.41666666715,
      "d": 88.54166666667152,
      "v": 65
    },
    {
      "midi": 54,
      "hit": false,
      "t": 117520.83333333356,
      "d": 151.04166666665697,
      "v": 105
    },
    {
      "midi": 78,
      "hit": false,
      "t": 117526.04166666631,
      "d": 145.83333333332848,
      "v": 83
    },
    {
      "midi": 82,
      "hit": false,
      "t": 117526.04166666631,
      "d": 145.83333333332848,
      "v": 83
    },
    {
      "midi": 58,
      "hit": false,
      "t": 117526.04166666689,
      "d": 145.83333333332848,
      "v": 105
    },
    {
      "midi": 54,
      "hit": false,
      "t": 117546.8750000005,
      "d": 151.04166666667152,
      "v": 105
    },
    {
      "midi": 58,
      "hit": false,
      "t": 117546.8750000005,
      "d": 151.04166666667152,
      "v": 105
    },
    {
      "midi": 46,
      "hit": false,
      "t": 117677.08333333355,
      "d": 57.29166666667152,
      "v": 82
    },
    {
      "midi": 58,
      "hit": false,
      "t": 117682.29166666721,
      "d": 145.83333333332848,
      "v": 90
    },
    {
      "midi": 46,
      "hit": false,
      "t": 117703.1250000005,
      "d": 57.29166666667152,
      "v": 65
    },
    {
      "midi": 44,
      "hit": false,
      "t": 117838.54166666689,
      "d": 119.79166666667152,
      "v": 82
    },
    {
      "midi": 56,
      "hit": false,
      "t": 117843.75000000054,
      "d": 302.0833333333285,
      "v": 90
    },
    {
      "midi": 44,
      "hit": false,
      "t": 117864.58333333384,
      "d": 119.79166666667152,
      "v": 65
    },
    {
      "midi": 41,
      "hit": false,
      "t": 118156.25000000023,
      "d": 119.79166666664241,
      "v": 82
    },
    {
      "midi": 53,
      "hit": false,
      "t": 118161.45833333356,
      "d": 57.291666666656965,
      "v": 105
    },
    {
      "midi": 53,
      "hit": false,
      "t": 118161.45833333387,
      "d": 307.2916666666715,
      "v": 90
    },
    {
      "midi": 77,
      "hit": false,
      "t": 118166.66666666631,
      "d": 140.625,
      "v": 83
    },
    {
      "midi": 80,
      "hit": false,
      "t": 118166.66666666631,
      "d": 145.83333333332848,
      "v": 83
    },
    {
      "midi": 56,
      "hit": false,
      "t": 118166.66666666689,
      "d": 57.291666666656965,
      "v": 105
    },
    {
      "midi": 53,
      "hit": false,
      "t": 118182.29166666718,
      "d": 57.291666666656965,
      "v": 105
    },
    {
      "midi": 41,
      "hit": false,
      "t": 118182.29166666718,
      "d": 119.79166666665697,
      "v": 65
    },
    {
      "midi": 56,
      "hit": false,
      "t": 118187.50000000051,
      "d": 57.291666666656965,
      "v": 105
    },
    {
      "midi": 37,
      "hit": false,
      "t": 118473.95833333355,
      "d": 119.79166666667152,
      "v": 82
    },
    {
      "midi": 49,
      "hit": false,
      "t": 118479.16666666721,
      "d": 307.2916666666715,
      "v": 90
    },
    {
      "midi": 77,
      "hit": false,
      "t": 118484.37499999964,
      "d": 140.625,
      "v": 83
    },
    {
      "midi": 53,
      "hit": false,
      "t": 118484.37500000022,
      "d": 114.58333333332848,
      "v": 105
    },
    {
      "midi": 56,
      "hit": false,
      "t": 118484.37500000022,
      "d": 114.58333333332848,
      "v": 105
    },
    {
      "midi": 80,
      "hit": false,
      "t": 118489.58333333296,
      "d": 135.41666666667152,
      "v": 83
    },
    {
      "midi": 37,
      "hit": false,
      "t": 118500.00000000051,
      "d": 119.79166666665697,
      "v": 65
    },
    {
      "midi": 53,
      "hit": false,
      "t": 118505.20833333384,
      "d": 119.79166666665697,
      "v": 105
    },
    {
      "midi": 56,
      "hit": false,
      "t": 118505.20833333384,
      "d": 119.79166666665697,
      "v": 105
    },
    {
      "midi": 39,
      "hit": false,
      "t": 118796.87500000022,
      "d": 119.79166666667152,
      "v": 82
    },
    {
      "midi": 51,
      "hit": false,
      "t": 118796.87500000055,
      "d": 307.2916666666715,
      "v": 90
    },
    {
      "midi": 39,
      "hit": false,
      "t": 118817.70833333382,
      "d": 119.79166666667152,
      "v": 65
    },
    {
      "midi": 54,
      "hit": false,
      "t": 118953.12500000022,
      "d": 57.29166666667152,
      "v": 105
    },
    {
      "midi": 58,
      "hit": false,
      "t": 118953.12500000022,
      "d": 57.29166666667152,
      "v": 105
    },
    {
      "midi": 54,
      "hit": false,
      "t": 118979.16666666717,
      "d": 57.29166666667152,
      "v": 105
    },
    {
      "midi": 58,
      "hit": false,
      "t": 118979.16666666717,
      "d": 57.29166666667152,
      "v": 105
    },
    {
      "midi": 78,
      "hit": false,
      "t": 119114.58333333296,
      "d": 145.83333333332848,
      "v": 83
    },
    {
      "midi": 82,
      "hit": false,
      "t": 119114.58333333296,
      "d": 151.04166666665697,
      "v": 83
    },
    {
      "midi": 42,
      "hit": false,
      "t": 119270.83333333356,
      "d": 119.79166666667152,
      "v": 82
    },
    {
      "midi": 54,
      "hit": false,
      "t": 119270.8333333339,
      "d": 546.875,
      "v": 90
    },
    {
      "midi": 42,
      "hit": false,
      "t": 119296.87500000051,
      "d": 119.79166666667152,
      "v": 65
    },
    {
      "midi": 54,
      "hit": false,
      "t": 119432.2916666669,
      "d": 151.04166666665697,
      "v": 105
    },
    {
      "midi": 78,
      "hit": false,
      "t": 119437.49999999962,
      "d": 145.83333333332848,
      "v": 83
    },
    {
      "midi": 82,
      "hit": false,
      "t": 119437.49999999962,
      "d": 145.83333333332848,
      "v": 83
    },
    {
      "midi": 58,
      "hit": false,
      "t": 119437.50000000023,
      "d": 145.83333333332848,
      "v": 105
    },
    {
      "midi": 54,
      "hit": false,
      "t": 119458.33333333385,
      "d": 145.83333333332848,
      "v": 105
    },
    {
      "midi": 58,
      "hit": false,
      "t": 119458.33333333385,
      "d": 151.04166666665697,
      "v": 105
    },
    {
      "midi": 46,
      "hit": false,
      "t": 119588.54166666689,
      "d": 57.29166666667152,
      "v": 82
    },
    {
      "midi": 58,
      "hit": false,
      "t": 119593.75000000057,
      "d": 145.83333333332848,
      "v": 90
    },
    {
      "midi": 46,
      "hit": false,
      "t": 119614.58333333384,
      "d": 57.29166666667152,
      "v": 65
    },
    {
      "midi": 44,
      "hit": false,
      "t": 119755.20833333356,
      "d": 114.58333333332848,
      "v": 82
    },
    {
      "midi": 56,
      "hit": false,
      "t": 119755.2083333339,
      "d": 302.0833333333285,
      "v": 90
    },
    {
      "midi": 44,
      "hit": false,
      "t": 119776.04166666718,
      "d": 119.79166666667152,
      "v": 67
    },
    {
      "midi": 41,
      "hit": false,
      "t": 120067.70833333356,
      "d": 119.79166666664241,
      "v": 82
    },
    {
      "midi": 53,
      "hit": false,
      "t": 120072.91666666689,
      "d": 57.291666666656965,
      "v": 105
    },
    {
      "midi": 53,
      "hit": false,
      "t": 120072.91666666722,
      "d": 307.2916666666715,
      "v": 90
    },
    {
      "midi": 77,
      "hit": false,
      "t": 120078.12499999962,
      "d": 140.625,
      "v": 83
    },
    {
      "midi": 80,
      "hit": false,
      "t": 120078.12499999962,
      "d": 140.625,
      "v": 83
    },
    {
      "midi": 56,
      "hit": false,
      "t": 120078.12500000022,
      "d": 57.291666666656965,
      "v": 105
    },
    {
      "midi": 53,
      "hit": false,
      "t": 120093.75000000052,
      "d": 57.291666666656965,
      "v": 105
    },
    {
      "midi": 41,
      "hit": false,
      "t": 120093.75000000052,
      "d": 119.79166666665697,
      "v": 65
    },
    {
      "midi": 56,
      "hit": false,
      "t": 120098.95833333385,
      "d": 57.291666666656965,
      "v": 105
    },
    {
      "midi": 37,
      "hit": false,
      "t": 120385.41666666688,
      "d": 119.79166666665697,
      "v": 82
    },
    {
      "midi": 53,
      "hit": false,
      "t": 120390.6250000002,
      "d": 119.79166666665697,
      "v": 105
    },
    {
      "midi": 49,
      "hit": false,
      "t": 120390.62500000057,
      "d": 307.2916666666715,
      "v": 90
    },
    {
      "midi": 77,
      "hit": false,
      "t": 120395.83333333295,
      "d": 218.75,
      "v": 83
    },
    {
      "midi": 56,
      "hit": false,
      "t": 120395.83333333353,
      "d": 114.58333333332848,
      "v": 105
    },
    {
      "midi": 80,
      "hit": false,
      "t": 120401.04166666628,
      "d": 135.41666666667152,
      "v": 83
    },
    {
      "midi": 37,
      "hit": false,
      "t": 120411.45833333385,
      "d": 119.79166666665697,
      "v": 65
    },
    {
      "midi": 53,
      "hit": false,
      "t": 120416.66666666718,
      "d": 119.79166666665697,
      "v": 105
    },
    {
      "midi": 56,
      "hit": false,
      "t": 120416.66666666718,
      "d": 119.79166666665697,
      "v": 105
    },
    {
      "midi": 39,
      "hit": false,
      "t": 120708.33333333353,
      "d": 119.79166666667152,
      "v": 82
    },
    {
      "midi": 51,
      "hit": false,
      "t": 120708.33333333391,
      "d": 307.2916666666715,
      "v": 90
    },
    {
      "midi": 39,
      "hit": false,
      "t": 120729.16666666717,
      "d": 119.79166666667152,
      "v": 65
    },
    {
      "midi": 54,
      "hit": false,
      "t": 120864.58333333353,
      "d": 57.29166666667152,
      "v": 105
    },
    {
      "midi": 58,
      "hit": false,
      "t": 120864.58333333353,
      "d": 57.29166666667152,
      "v": 105
    },
    {
      "midi": 54,
      "hit": false,
      "t": 120890.62500000051,
      "d": 57.29166666667152,
      "v": 105
    },
    {
      "midi": 58,
      "hit": false,
      "t": 120890.62500000051,
      "d": 57.29166666667152,
      "v": 105
    },
    {
      "midi": 78,
      "hit": false,
      "t": 121026.04166666628,
      "d": 145.83333333332848,
      "v": 83
    },
    {
      "midi": 82,
      "hit": false,
      "t": 121026.04166666628,
      "d": 145.83333333332848,
      "v": 83
    },
    {
      "midi": 42,
      "hit": false,
      "t": 121182.29166666688,
      "d": 119.79166666667152,
      "v": 82
    },
    {
      "midi": 54,
      "hit": false,
      "t": 121182.29166666725,
      "d": 546.875,
      "v": 90
    },
    {
      "midi": 42,
      "hit": false,
      "t": 121208.33333333385,
      "d": 119.79166666667152,
      "v": 65
    },
    {
      "midi": 54,
      "hit": false,
      "t": 121343.75000000022,
      "d": 145.83333333332848,
      "v": 105
    },
    {
      "midi": 78,
      "hit": false,
      "t": 121348.95833333294,
      "d": 145.83333333332848,
      "v": 83
    },
    {
      "midi": 82,
      "hit": false,
      "t": 121348.95833333294,
      "d": 145.83333333332848,
      "v": 83
    },
    {
      "midi": 58,
      "hit": false,
      "t": 121348.95833333355,
      "d": 145.83333333332848,
      "v": 105
    },
    {
      "midi": 54,
      "hit": false,
      "t": 121369.7916666672,
      "d": 145.83333333332848,
      "v": 105
    },
    {
      "midi": 58,
      "hit": false,
      "t": 121369.7916666672,
      "d": 151.04166666665697,
      "v": 105
    },
    {
      "midi": 46,
      "hit": false,
      "t": 121500.0000000002,
      "d": 57.29166666667152,
      "v": 82
    },
    {
      "midi": 58,
      "hit": false,
      "t": 121500.00000000058,
      "d": 151.04166666667152,
      "v": 90
    },
    {
      "midi": 46,
      "hit": false,
      "t": 121526.04166666718,
      "d": 57.29166666667152,
      "v": 65
    },
    {
      "midi": 44,
      "hit": false,
      "t": 121661.45833333355,
      "d": 119.79166666667152,
      "v": 82
    },
    {
      "midi": 56,
      "hit": false,
      "t": 121666.66666666725,
      "d": 302.0833333333285,
      "v": 90
    },
    {
      "midi": 44,
      "hit": false,
      "t": 121687.50000000052,
      "d": 119.79166666667152,
      "v": 65
    },
    {
      "midi": 41,
      "hit": false,
      "t": 121979.16666666689,
      "d": 119.79166666664241,
      "v": 82
    },
    {
      "midi": 53,
      "hit": false,
      "t": 121984.37500000022,
      "d": 57.291666666656965,
      "v": 105
    },
    {
      "midi": 53,
      "hit": false,
      "t": 121984.37500000058,
      "d": 302.0833333333285,
      "v": 90
    },
    {
      "midi": 77,
      "hit": false,
      "t": 121989.58333333294,
      "d": 140.625,
      "v": 83
    },
    {
      "midi": 80,
      "hit": false,
      "t": 121989.58333333294,
      "d": 140.625,
      "v": 83
    },
    {
      "midi": 56,
      "hit": false,
      "t": 121989.58333333355,
      "d": 57.291666666656965,
      "v": 105
    },
    {
      "midi": 53,
      "hit": false,
      "t": 122005.20833333387,
      "d": 57.291666666656965,
      "v": 105
    },
    {
      "midi": 41,
      "hit": false,
      "t": 122005.20833333387,
      "d": 119.79166666665697,
      "v": 65
    },
    {
      "midi": 56,
      "hit": false,
      "t": 122010.4166666672,
      "d": 57.291666666656965,
      "v": 105
    },
    {
      "midi": 37,
      "hit": false,
      "t": 122296.8750000002,
      "d": 119.79166666665697,
      "v": 82
    },
    {
      "midi": 53,
      "hit": false,
      "t": 122302.08333333353,
      "d": 145.83333333332848,
      "v": 105
    },
    {
      "midi": 49,
      "hit": false,
      "t": 122302.08333333391,
      "d": 307.2916666666715,
      "v": 90
    },
    {
      "midi": 77,
      "hit": false,
      "t": 122307.29166666626,
      "d": 140.625,
      "v": 83
    },
    {
      "midi": 80,
      "hit": false,
      "t": 122307.29166666626,
      "d": 140.625,
      "v": 83
    },
    {
      "midi": 56,
      "hit": false,
      "t": 122307.29166666686,
      "d": 145.83333333332848,
      "v": 105
    },
    {
      "midi": 37,
      "hit": false,
      "t": 122322.9166666672,
      "d": 119.79166666665697,
      "v": 65
    },
    {
      "midi": 53,
      "hit": false,
      "t": 122322.9166666672,
      "d": 151.04166666665697,
      "v": 105
    },
    {
      "midi": 56,
      "hit": false,
      "t": 122328.12500000052,
      "d": 145.83333333332848,
      "v": 105
    },
    {
      "midi": 39,
      "hit": false,
      "t": 122614.58333333352,
      "d": 119.79166666667152,
      "v": 82
    },
    {
      "midi": 51,
      "hit": false,
      "t": 122619.79166666725,
      "d": 307.2916666666715,
      "v": 90
    },
    {
      "midi": 39,
      "hit": false,
      "t": 122640.62500000052,
      "d": 119.79166666667152,
      "v": 65
    },
    {
      "midi": 54,
      "hit": false,
      "t": 122776.04166666686,
      "d": 57.29166666667152,
      "v": 105
    },
    {
      "midi": 58,
      "hit": false,
      "t": 122776.04166666686,
      "d": 57.29166666667152,
      "v": 105
    },
    {
      "midi": 54,
      "hit": false,
      "t": 122802.08333333387,
      "d": 57.29166666667152,
      "v": 105
    },
    {
      "midi": 58,
      "hit": false,
      "t": 122802.08333333387,
      "d": 57.29166666667152,
      "v": 105
    },
    {
      "midi": 78,
      "hit": false,
      "t": 122937.49999999959,
      "d": 67.70833333332848,
      "v": 83
    },
    {
      "midi": 82,
      "hit": false,
      "t": 122937.49999999959,
      "d": 67.70833333332848,
      "v": 83
    },
    {
      "midi": 42,
      "hit": false,
      "t": 123093.7500000002,
      "d": 119.79166666667152,
      "v": 82
    },
    {
      "midi": 54,
      "hit": false,
      "t": 123093.7500000006,
      "d": 546.875,
      "v": 90
    },
    {
      "midi": 42,
      "hit": false,
      "t": 123119.79166666721,
      "d": 119.79166666667152,
      "v": 65
    },
    {
      "midi": 54,
      "hit": false,
      "t": 123255.20833333355,
      "d": 145.83333333332848,
      "v": 105
    },
    {
      "midi": 58,
      "hit": false,
      "t": 123255.20833333355,
      "d": 151.04166666665697,
      "v": 105
    },
    {
      "midi": 78,
      "hit": false,
      "t": 123260.41666666625,
      "d": 140.625,
      "v": 83
    },
    {
      "midi": 82,
      "hit": false,
      "t": 123260.41666666625,
      "d": 145.83333333332848,
      "v": 83
    },
    {
      "midi": 54,
      "hit": false,
      "t": 123276.04166666721,
      "d": 151.04166666665697,
      "v": 105
    },
    {
      "midi": 58,
      "hit": false,
      "t": 123281.25000000054,
      "d": 145.83333333332848,
      "v": 105
    },
    {
      "midi": 46,
      "hit": false,
      "t": 123411.45833333353,
      "d": 57.29166666667152,
      "v": 82
    },
    {
      "midi": 58,
      "hit": false,
      "t": 123411.45833333393,
      "d": 151.04166666667152,
      "v": 90
    },
    {
      "midi": 46,
      "hit": false,
      "t": 123437.50000000054,
      "d": 57.29166666667152,
      "v": 65
    },
    {
      "midi": 44,
      "hit": false,
      "t": 123572.91666666688,
      "d": 119.79166666667152,
      "v": 82
    },
    {
      "midi": 56,
      "hit": false,
      "t": 123578.1250000006,
      "d": 302.0833333333285,
      "v": 90
    },
    {
      "midi": 44,
      "hit": false,
      "t": 123598.95833333388,
      "d": 119.79166666667152,
      "v": 65
    },
    {
      "midi": 41,
      "hit": false,
      "t": 123890.62500000022,
      "d": 119.79166666667152,
      "v": 82
    },
    {
      "midi": 53,
      "hit": false,
      "t": 123895.83333333355,
      "d": 57.29166666667152,
      "v": 105
    },
    {
      "midi": 56,
      "hit": false,
      "t": 123895.83333333355,
      "d": 57.29166666667152,
      "v": 105
    },
    {
      "midi": 53,
      "hit": false,
      "t": 123895.83333333393,
      "d": 302.0833333333285,
      "v": 90
    },
    {
      "midi": 77,
      "hit": false,
      "t": 123901.04166666625,
      "d": 140.625,
      "v": 83
    },
    {
      "midi": 80,
      "hit": false,
      "t": 123901.04166666625,
      "d": 140.625,
      "v": 83
    },
    {
      "midi": 53,
      "hit": false,
      "t": 123916.66666666722,
      "d": 57.29166666667152,
      "v": 105
    },
    {
      "midi": 56,
      "hit": false,
      "t": 123916.66666666722,
      "d": 57.29166666667152,
      "v": 105
    },
    {
      "midi": 41,
      "hit": false,
      "t": 123916.66666666722,
      "d": 119.79166666667152,
      "v": 65
    },
    {
      "midi": 37,
      "hit": false,
      "t": 124208.33333333356,
      "d": 119.79166666665697,
      "v": 82
    },
    {
      "midi": 53,
      "hit": false,
      "t": 124213.54166666689,
      "d": 145.83333333332848,
      "v": 105
    },
    {
      "midi": 49,
      "hit": false,
      "t": 124213.54166666725,
      "d": 307.2916666666715,
      "v": 90
    },
    {
      "midi": 77,
      "hit": false,
      "t": 124218.74999999958,
      "d": 140.625,
      "v": 83
    },
    {
      "midi": 80,
      "hit": false,
      "t": 124218.74999999958,
      "d": 140.625,
      "v": 83
    },
    {
      "midi": 56,
      "hit": false,
      "t": 124218.75000000022,
      "d": 145.83333333332848,
      "v": 105
    },
    {
      "midi": 37,
      "hit": false,
      "t": 124234.37500000057,
      "d": 119.79166666665697,
      "v": 65
    },
    {
      "midi": 53,
      "hit": false,
      "t": 124234.37500000057,
      "d": 151.04166666665697,
      "v": 105
    },
    {
      "midi": 56,
      "hit": false,
      "t": 124239.5833333339,
      "d": 145.83333333332848,
      "v": 105
    },
    {
      "midi": 39,
      "hit": false,
      "t": 124526.04166666688,
      "d": 119.79166666667152,
      "v": 82
    },
    {
      "midi": 51,
      "hit": false,
      "t": 124531.2500000006,
      "d": 307.2916666666715,
      "v": 90
    },
    {
      "midi": 39,
      "hit": false,
      "t": 124552.0833333339,
      "d": 119.79166666667152,
      "v": 65
    },
    {
      "midi": 54,
      "hit": false,
      "t": 124687.50000000022,
      "d": 57.29166666667152,
      "v": 105
    },
    {
      "midi": 58,
      "hit": false,
      "t": 124687.50000000022,
      "d": 57.29166666667152,
      "v": 105
    },
    {
      "midi": 54,
      "hit": false,
      "t": 124713.54166666724,
      "d": 57.29166666667152,
      "v": 105
    },
    {
      "midi": 58,
      "hit": false,
      "t": 124713.54166666724,
      "d": 57.29166666667152,
      "v": 105
    },
    {
      "midi": 78,
      "hit": false,
      "t": 124848.9583333329,
      "d": 145.83333333332848,
      "v": 83
    },
    {
      "midi": 82,
      "hit": false,
      "t": 124854.16666666623,
      "d": 140.625,
      "v": 83
    },
    {
      "midi": 42,
      "hit": false,
      "t": 125005.20833333356,
      "d": 119.79166666667152,
      "v": 82
    },
    {
      "midi": 54,
      "hit": false,
      "t": 125005.20833333394,
      "d": 546.875,
      "v": 90
    },
    {
      "midi": 42,
      "hit": false,
      "t": 125031.25000000058,
      "d": 119.79166666667152,
      "v": 65
    },
    {
      "midi": 54,
      "hit": false,
      "t": 125166.6666666669,
      "d": 145.83333333332848,
      "v": 105
    },
    {
      "midi": 58,
      "hit": false,
      "t": 125166.6666666669,
      "d": 145.83333333332848,
      "v": 105
    },
    {
      "midi": 78,
      "hit": false,
      "t": 125171.87499999956,
      "d": 140.625,
      "v": 83
    },
    {
      "midi": 82,
      "hit": false,
      "t": 125171.87499999956,
      "d": 145.83333333332848,
      "v": 83
    },
    {
      "midi": 54,
      "hit": false,
      "t": 125187.50000000058,
      "d": 151.04166666665697,
      "v": 105
    },
    {
      "midi": 58,
      "hit": false,
      "t": 125192.70833333391,
      "d": 145.83333333332848,
      "v": 105
    },
    {
      "midi": 46,
      "hit": false,
      "t": 125322.9166666669,
      "d": 57.29166666667152,
      "v": 82
    },
    {
      "midi": 58,
      "hit": false,
      "t": 125322.91666666727,
      "d": 151.04166666667152,
      "v": 90
    },
    {
      "midi": 46,
      "hit": false,
      "t": 125348.95833333391,
      "d": 57.29166666667152,
      "v": 65
    },
    {
      "midi": 44,
      "hit": false,
      "t": 125484.37500000025,
      "d": 119.79166666667152,
      "v": 82
    },
    {
      "midi": 56,
      "hit": false,
      "t": 125489.58333333394,
      "d": 302.0833333333285,
      "v": 90
    },
    {
      "midi": 44,
      "hit": false,
      "t": 125510.41666666725,
      "d": 119.79166666667152,
      "v": 65
    },
    {
      "midi": 41,
      "hit": false,
      "t": 125802.08333333359,
      "d": 119.79166666667152,
      "v": 82
    },
    {
      "midi": 53,
      "hit": false,
      "t": 125807.29166666692,
      "d": 57.29166666667152,
      "v": 105
    },
    {
      "midi": 56,
      "hit": false,
      "t": 125807.29166666692,
      "d": 57.29166666667152,
      "v": 105
    },
    {
      "midi": 53,
      "hit": false,
      "t": 125807.29166666727,
      "d": 302.0833333333285,
      "v": 90
    },
    {
      "midi": 77,
      "hit": false,
      "t": 125812.49999999956,
      "d": 140.625,
      "v": 83
    },
    {
      "midi": 80,
      "hit": false,
      "t": 125812.49999999956,
      "d": 140.625,
      "v": 83
    },
    {
      "midi": 53,
      "hit": false,
      "t": 125828.1250000006,
      "d": 57.29166666667152,
      "v": 105
    },
    {
      "midi": 56,
      "hit": false,
      "t": 125828.1250000006,
      "d": 57.29166666667152,
      "v": 105
    },
    {
      "midi": 41,
      "hit": false,
      "t": 125828.1250000006,
      "d": 119.79166666667152,
      "v": 65
    },
    {
      "midi": 37,
      "hit": false,
      "t": 126119.79166666693,
      "d": 119.79166666665697,
      "v": 82
    },
    {
      "midi": 53,
      "hit": false,
      "t": 126125.00000000026,
      "d": 145.83333333332848,
      "v": 105
    },
    {
      "midi": 56,
      "hit": false,
      "t": 126125.00000000026,
      "d": 145.83333333332848,
      "v": 105
    },
    {
      "midi": 49,
      "hit": false,
      "t": 126125.0000000006,
      "d": 302.0833333333285,
      "v": 90
    },
    {
      "midi": 77,
      "hit": false,
      "t": 126130.20833333289,
      "d": 140.625,
      "v": 83
    },
    {
      "midi": 80,
      "hit": false,
      "t": 126135.41666666622,
      "d": 135.41666666667152,
      "v": 83
    },
    {
      "midi": 37,
      "hit": false,
      "t": 126145.83333333394,
      "d": 119.79166666667152,
      "v": 65
    },
    {
      "midi": 53,
      "hit": false,
      "t": 126145.83333333394,
      "d": 151.04166666667152,
      "v": 105
    },
    {
      "midi": 56,
      "hit": false,
      "t": 126145.83333333394,
      "d": 151.04166666667152,
      "v": 105
    },
    {
      "midi": 39,
      "hit": false,
      "t": 126437.50000000026,
      "d": 119.79166666667152,
      "v": 82
    },
    {
      "midi": 51,
      "hit": false,
      "t": 126442.70833333393,
      "d": 307.2916666666715,
      "v": 90
    },
    {
      "midi": 39,
      "hit": false,
      "t": 126463.54166666728,
      "d": 119.79166666667152,
      "v": 65
    },
    {
      "midi": 54,
      "hit": false,
      "t": 126593.75000000026,
      "d": 57.291666666656965,
      "v": 105
    },
    {
      "midi": 58,
      "hit": false,
      "t": 126598.95833333359,
      "d": 57.291666666656965,
      "v": 105
    },
    {
      "midi": 54,
      "hit": false,
      "t": 126625.00000000063,
      "d": 57.29166666667152,
      "v": 105
    },
    {
      "midi": 58,
      "hit": false,
      "t": 126625.00000000063,
      "d": 57.29166666667152,
      "v": 105
    },
    {
      "midi": 78,
      "hit": false,
      "t": 126760.41666666622,
      "d": 67.70833333332848,
      "v": 83
    },
    {
      "midi": 82,
      "hit": false,
      "t": 126760.41666666622,
      "d": 67.70833333332848,
      "v": 83
    },
    {
      "midi": 42,
      "hit": false,
      "t": 126916.66666666692,
      "d": 119.79166666667152,
      "v": 82
    },
    {
      "midi": 54,
      "hit": false,
      "t": 126916.66666666727,
      "d": 546.875,
      "v": 90
    },
    {
      "midi": 42,
      "hit": false,
      "t": 126942.70833333397,
      "d": 119.79166666667152,
      "v": 65
    },
    {
      "midi": 54,
      "hit": false,
      "t": 127078.12500000026,
      "d": 145.83333333332848,
      "v": 105
    },
    {
      "midi": 58,
      "hit": false,
      "t": 127078.12500000026,
      "d": 145.83333333332848,
      "v": 105
    },
    {
      "midi": 78,
      "hit": false,
      "t": 127083.33333333288,
      "d": 140.625,
      "v": 83
    },
    {
      "midi": 82,
      "hit": false,
      "t": 127083.33333333288,
      "d": 145.83333333332848,
      "v": 83
    },
    {
      "midi": 54,
      "hit": false,
      "t": 127098.95833333397,
      "d": 151.04166666665697,
      "v": 105
    },
    {
      "midi": 58,
      "hit": false,
      "t": 127104.1666666673,
      "d": 145.83333333332848,
      "v": 105
    },
    {
      "midi": 46,
      "hit": false,
      "t": 127234.37500000026,
      "d": 57.29166666667152,
      "v": 82
    },
    {
      "midi": 58,
      "hit": false,
      "t": 127234.3750000006,
      "d": 151.04166666667152,
      "v": 90
    },
    {
      "midi": 46,
      "hit": false,
      "t": 127260.4166666673,
      "d": 57.29166666667152,
      "v": 65
    },
    {
      "midi": 44,
      "hit": false,
      "t": 127395.8333333336,
      "d": 119.79166666667152,
      "v": 82
    },
    {
      "midi": 56,
      "hit": false,
      "t": 127395.83333333394,
      "d": 307.29166666665697,
      "v": 90
    },
    {
      "midi": 44,
      "hit": false,
      "t": 127416.6666666673,
      "d": 119.79166666667152,
      "v": 65
    },
    {
      "midi": 41,
      "hit": false,
      "t": 127713.54166666695,
      "d": 119.79166666667152,
      "v": 82
    },
    {
      "midi": 53,
      "hit": false,
      "t": 127713.54166666727,
      "d": 307.2916666666715,
      "v": 90
    },
    {
      "midi": 53,
      "hit": false,
      "t": 127718.75000000028,
      "d": 57.29166666667152,
      "v": 105
    },
    {
      "midi": 56,
      "hit": false,
      "t": 127718.75000000028,
      "d": 57.29166666667152,
      "v": 105
    },
    {
      "midi": 77,
      "hit": false,
      "t": 127723.95833333288,
      "d": 140.625,
      "v": 83
    },
    {
      "midi": 80,
      "hit": false,
      "t": 127723.95833333288,
      "d": 140.625,
      "v": 83
    },
    {
      "midi": 53,
      "hit": false,
      "t": 127739.58333333397,
      "d": 57.29166666667152,
      "v": 105
    },
    {
      "midi": 56,
      "hit": false,
      "t": 127739.58333333397,
      "d": 57.29166666667152,
      "v": 105
    },
    {
      "midi": 41,
      "hit": false,
      "t": 127739.58333333397,
      "d": 119.79166666667152,
      "v": 65
    },
    {
      "midi": 37,
      "hit": false,
      "t": 128031.25000000029,
      "d": 119.79166666665697,
      "v": 82
    },
    {
      "midi": 53,
      "hit": false,
      "t": 128036.45833333362,
      "d": 145.83333333332848,
      "v": 105
    },
    {
      "midi": 56,
      "hit": false,
      "t": 128036.45833333362,
      "d": 145.83333333332848,
      "v": 105
    },
    {
      "midi": 49,
      "hit": false,
      "t": 128036.45833333394,
      "d": 302.0833333333285,
      "v": 90
    },
    {
      "midi": 77,
      "hit": false,
      "t": 128041.6666666662,
      "d": 140.625,
      "v": 83
    },
    {
      "midi": 80,
      "hit": false,
      "t": 128041.6666666662,
      "d": 140.625,
      "v": 83
    },
    {
      "midi": 37,
      "hit": false,
      "t": 128057.29166666731,
      "d": 119.79166666667152,
      "v": 65
    },
    {
      "midi": 53,
      "hit": false,
      "t": 128057.29166666731,
      "d": 145.83333333334303,
      "v": 105
    },
    {
      "midi": 56,
      "hit": false,
      "t": 128057.29166666731,
      "d": 151.04166666667152,
      "v": 105
    },
    {
      "midi": 39,
      "hit": false,
      "t": 128348.95833333362,
      "d": 119.79166666667152,
      "v": 82
    },
    {
      "midi": 51,
      "hit": false,
      "t": 128354.16666666727,
      "d": 302.0833333333285,
      "v": 90
    },
    {
      "midi": 39,
      "hit": false,
      "t": 128375.00000000065,
      "d": 119.79166666667152,
      "v": 65
    },
    {
      "midi": 54,
      "hit": false,
      "t": 128505.20833333362,
      "d": 57.291666666656965,
      "v": 105
    },
    {
      "midi": 58,
      "hit": false,
      "t": 128510.41666666695,
      "d": 57.291666666656965,
      "v": 105
    },
    {
      "midi": 54,
      "hit": false,
      "t": 128531.25000000065,
      "d": 57.291666666656965,
      "v": 105
    },
    {
      "midi": 58,
      "hit": false,
      "t": 128536.45833333398,
      "d": 57.291666666656965,
      "v": 105
    },
    {
      "midi": 78,
      "hit": false,
      "t": 128671.87499999953,
      "d": 145.83333333332848,
      "v": 83
    },
    {
      "midi": 82,
      "hit": false,
      "t": 128671.87499999953,
      "d": 145.83333333332848,
      "v": 83
    },
    {
      "midi": 42,
      "hit": false,
      "t": 128822.91666666693,
      "d": 119.79166666667152,
      "v": 82
    },
    {
      "midi": 54,
      "hit": false,
      "t": 128828.1250000006,
      "d": 546.875,
      "v": 90
    },
    {
      "midi": 42,
      "hit": false,
      "t": 128854.16666666731,
      "d": 119.79166666667152,
      "v": 65
    },
    {
      "midi": 54,
      "hit": false,
      "t": 128989.5833333336,
      "d": 145.83333333332848,
      "v": 105
    },
    {
      "midi": 58,
      "hit": false,
      "t": 128989.5833333336,
      "d": 145.83333333332848,
      "v": 105
    },
    {
      "midi": 78,
      "hit": false,
      "t": 128994.79166666619,
      "d": 140.625,
      "v": 83
    },
    {
      "midi": 82,
      "hit": false,
      "t": 128994.79166666619,
      "d": 140.625,
      "v": 83
    },
    {
      "midi": 54,
      "hit": false,
      "t": 129010.41666666731,
      "d": 151.04166666665697,
      "v": 105
    },
    {
      "midi": 58,
      "hit": false,
      "t": 129015.62500000064,
      "d": 145.83333333332848,
      "v": 105
    },
    {
      "midi": 46,
      "hit": false,
      "t": 129145.8333333336,
      "d": 57.29166666667152,
      "v": 82
    },
    {
      "midi": 58,
      "hit": false,
      "t": 129145.83333333393,
      "d": 151.04166666667152,
      "v": 90
    },
    {
      "midi": 46,
      "hit": false,
      "t": 129171.87500000064,
      "d": 57.29166666667152,
      "v": 65
    },
    {
      "midi": 44,
      "hit": false,
      "t": 129307.29166666695,
      "d": 119.79166666667152,
      "v": 82
    },
    {
      "midi": 56,
      "hit": false,
      "t": 129307.29166666727,
      "d": 307.29166666665697,
      "v": 90
    },
    {
      "midi": 44,
      "hit": false,
      "t": 129328.12500000064,
      "d": 119.79166666667152,
      "v": 65
    },
    {
      "midi": 41,
      "hit": false,
      "t": 129625.00000000029,
      "d": 119.79166666667152,
      "v": 82
    },
    {
      "midi": 53,
      "hit": false,
      "t": 129625.0000000006,
      "d": 307.2916666666715,
      "v": 90
    },
    {
      "midi": 53,
      "hit": false,
      "t": 129630.20833333362,
      "d": 57.29166666667152,
      "v": 105
    },
    {
      "midi": 56,
      "hit": false,
      "t": 129630.20833333362,
      "d": 57.29166666667152,
      "v": 105
    },
    {
      "midi": 77,
      "hit": false,
      "t": 129635.41666666619,
      "d": 140.625,
      "v": 83
    },
    {
      "midi": 80,
      "hit": false,
      "t": 129635.41666666619,
      "d": 140.625,
      "v": 83
    },
    {
      "midi": 41,
      "hit": false,
      "t": 129645.83333333398,
      "d": 119.79166666667152,
      "v": 65
    },
    {
      "midi": 53,
      "hit": false,
      "t": 129651.04166666731,
      "d": 57.29166666667152,
      "v": 105
    },
    {
      "midi": 56,
      "hit": false,
      "t": 129651.04166666731,
      "d": 57.29166666667152,
      "v": 105
    },
    {
      "midi": 37,
      "hit": false,
      "t": 129937.50000000029,
      "d": 119.79166666667152,
      "v": 82
    },
    {
      "midi": 53,
      "hit": false,
      "t": 129947.91666666696,
      "d": 145.83333333332848,
      "v": 105
    },
    {
      "midi": 56,
      "hit": false,
      "t": 129947.91666666696,
      "d": 145.83333333332848,
      "v": 105
    },
    {
      "midi": 49,
      "hit": false,
      "t": 129947.91666666727,
      "d": 302.0833333333285,
      "v": 90
    },
    {
      "midi": 77,
      "hit": false,
      "t": 129953.12499999952,
      "d": 135.41666666667152,
      "v": 83
    },
    {
      "midi": 80,
      "hit": false,
      "t": 129953.12499999952,
      "d": 140.625,
      "v": 83
    },
    {
      "midi": 37,
      "hit": false,
      "t": 129968.75000000065,
      "d": 119.79166666667152,
      "v": 65
    },
    {
      "midi": 53,
      "hit": false,
      "t": 129968.75000000065,
      "d": 145.83333333334303,
      "v": 105
    },
    {
      "midi": 56,
      "hit": false,
      "t": 129968.75000000065,
      "d": 151.04166666667152,
      "v": 105
    },
    {
      "midi": 39,
      "hit": false,
      "t": 130260.41666666696,
      "d": 119.79166666667152,
      "v": 82
    },
    {
      "midi": 51,
      "hit": false,
      "t": 130265.6250000006,
      "d": 302.0833333333285,
      "v": 90
    },
    {
      "midi": 39,
      "hit": false,
      "t": 130286.458333334,
      "d": 119.79166666667152,
      "v": 65
    },
    {
      "midi": 54,
      "hit": false,
      "t": 130416.66666666696,
      "d": 57.291666666656965,
      "v": 105
    },
    {
      "midi": 58,
      "hit": false,
      "t": 130421.87500000029,
      "d": 57.291666666656965,
      "v": 105
    },
    {
      "midi": 54,
      "hit": false,
      "t": 130447.91666666734,
      "d": 57.29166666667152,
      "v": 105
    },
    {
      "midi": 58,
      "hit": false,
      "t": 130447.91666666734,
      "d": 57.29166666667152,
      "v": 105
    },
    {
      "midi": 78,
      "hit": false,
      "t": 130578.12499999952,
      "d": 67.70833333332848,
      "v": 83
    },
    {
      "midi": 82,
      "hit": false,
      "t": 130583.33333333285,
      "d": 67.70833333332848,
      "v": 83
    },
    {
      "midi": 42,
      "hit": false,
      "t": 130734.37500000028,
      "d": 119.79166666667152,
      "v": 82
    },
    {
      "midi": 54,
      "hit": false,
      "t": 130739.58333333393,
      "d": 546.875,
      "v": 90
    },
    {
      "midi": 42,
      "hit": false,
      "t": 130760.41666666734,
      "d": 119.79166666667152,
      "v": 65
    },
    {
      "midi": 78,
      "hit": false,
      "t": 130901.04166666618,
      "d": 145.83333333332848,
      "v": 83
    },
    {
      "midi": 54,
      "hit": false,
      "t": 130901.04166666695,
      "d": 145.83333333332848,
      "v": 105
    },
    {
      "midi": 58,
      "hit": false,
      "t": 130901.04166666695,
      "d": 145.83333333332848,
      "v": 105
    },
    {
      "midi": 82,
      "hit": false,
      "t": 130906.2499999995,
      "d": 140.625,
      "v": 83
    },
    {
      "midi": 54,
      "hit": false,
      "t": 130921.87500000068,
      "d": 151.04166666667152,
      "v": 105
    },
    {
      "midi": 58,
      "hit": false,
      "t": 130927.08333333401,
      "d": 145.83333333334303,
      "v": 105
    },
    {
      "midi": 46,
      "hit": false,
      "t": 131057.29166666695,
      "d": 57.291666666656965,
      "v": 82
    },
    {
      "midi": 58,
      "hit": false,
      "t": 131057.29166666725,
      "d": 151.04166666667152,
      "v": 90
    },
    {
      "midi": 46,
      "hit": false,
      "t": 131083.333333334,
      "d": 57.291666666656965,
      "v": 65
    },
    {
      "midi": 44,
      "hit": false,
      "t": 131218.75000000026,
      "d": 119.79166666665697,
      "v": 82
    },
    {
      "midi": 56,
      "hit": false,
      "t": 131218.75000000058,
      "d": 307.29166666668607,
      "v": 90
    },
    {
      "midi": 44,
      "hit": false,
      "t": 131239.583333334,
      "d": 119.79166666665697,
      "v": 65
    },
    {
      "midi": 41,
      "hit": false,
      "t": 131536.45833333358,
      "d": 119.79166666665697,
      "v": 82
    },
    {
      "midi": 53,
      "hit": false,
      "t": 131536.45833333393,
      "d": 307.29166666665697,
      "v": 90
    },
    {
      "midi": 77,
      "hit": false,
      "t": 131541.66666666616,
      "d": 145.83333333334303,
      "v": 83
    },
    {
      "midi": 53,
      "hit": false,
      "t": 131541.66666666692,
      "d": 57.291666666656965,
      "v": 105
    },
    {
      "midi": 56,
      "hit": false,
      "t": 131541.66666666692,
      "d": 57.291666666656965,
      "v": 105
    },
    {
      "midi": 80,
      "hit": false,
      "t": 131546.8749999995,
      "d": 140.625,
      "v": 83
    },
    {
      "midi": 41,
      "hit": false,
      "t": 131557.29166666733,
      "d": 119.79166666665697,
      "v": 65
    },
    {
      "midi": 53,
      "hit": false,
      "t": 131562.50000000067,
      "d": 57.291666666656965,
      "v": 105
    },
    {
      "midi": 56,
      "hit": false,
      "t": 131562.50000000067,
      "d": 57.291666666656965,
      "v": 105
    },
    {
      "midi": 37,
      "hit": false,
      "t": 131848.95833333358,
      "d": 119.79166666665697,
      "v": 82
    },
    {
      "midi": 49,
      "hit": false,
      "t": 131854.16666666724,
      "d": 307.29166666665697,
      "v": 90
    },
    {
      "midi": 53,
      "hit": false,
      "t": 131859.37500000023,
      "d": 145.83333333334303,
      "v": 105
    },
    {
      "midi": 56,
      "hit": false,
      "t": 131859.37500000023,
      "d": 145.83333333334303,
      "v": 105
    },
    {
      "midi": 77,
      "hit": false,
      "t": 131864.58333333285,
      "d": 135.41666666665697,
      "v": 83
    },
    {
      "midi": 80,
      "hit": false,
      "t": 131864.58333333285,
      "d": 140.625,
      "v": 83
    },
    {
      "midi": 37,
      "hit": false,
      "t": 131880.20833333398,
      "d": 119.79166666665697,
      "v": 65
    },
    {
      "midi": 53,
      "hit": false,
      "t": 131880.20833333398,
      "d": 145.83333333331393,
      "v": 105
    },
    {
      "midi": 56,
      "hit": false,
      "t": 131880.20833333398,
      "d": 145.83333333331393,
      "v": 105
    },
    {
      "midi": 39,
      "hit": false,
      "t": 132171.87500000023,
      "d": 119.79166666665697,
      "v": 82
    },
    {
      "midi": 51,
      "hit": false,
      "t": 132177.0833333339,
      "d": 302.08333333334303,
      "v": 90
    },
    {
      "midi": 39,
      "hit": false,
      "t": 132197.9166666673,
      "d": 119.79166666665697,
      "v": 65
    },
    {
      "midi": 54,
      "hit": false,
      "t": 132328.12500000023,
      "d": 57.29166666668607,
      "v": 105
    },
    {
      "midi": 58,
      "hit": false,
      "t": 132333.33333333358,
      "d": 57.29166666668607,
      "v": 105
    },
    {
      "midi": 54,
      "hit": false,
      "t": 132354.1666666673,
      "d": 57.29166666668607,
      "v": 105
    },
    {
      "midi": 58,
      "hit": false,
      "t": 132359.37500000064,
      "d": 57.29166666668607,
      "v": 105
    },
    {
      "midi": 78,
      "hit": false,
      "t": 132494.7916666662,
      "d": 145.83333333334303,
      "v": 83
    },
    {
      "midi": 82,
      "hit": false,
      "t": 132494.7916666662,
      "d": 145.83333333334303,
      "v": 83
    },
    {
      "midi": 42,
      "hit": false,
      "t": 132645.8333333336,
      "d": 119.79166666665697,
      "v": 82
    },
    {
      "midi": 54,
      "hit": false,
      "t": 132651.04166666724,
      "d": 546.875,
      "v": 90
    },
    {
      "midi": 42,
      "hit": false,
      "t": 132671.87500000067,
      "d": 119.79166666665697,
      "v": 65
    },
    {
      "midi": 54,
      "hit": false,
      "t": 132812.50000000026,
      "d": 145.83333333334303,
      "v": 105
    },
    {
      "midi": 58,
      "hit": false,
      "t": 132812.50000000026,
      "d": 145.83333333334303,
      "v": 105
    },
    {
      "midi": 78,
      "hit": false,
      "t": 132817.70833333288,
      "d": 140.625,
      "v": 83
    },
    {
      "midi": 82,
      "hit": false,
      "t": 132817.70833333288,
      "d": 140.625,
      "v": 83
    },
    {
      "midi": 54,
      "hit": false,
      "t": 132833.33333333398,
      "d": 151.04166666665697,
      "v": 105
    },
    {
      "midi": 58,
      "hit": false,
      "t": 132833.33333333398,
      "d": 151.04166666665697,
      "v": 105
    },
    {
      "midi": 46,
      "hit": false,
      "t": 132963.54166666695,
      "d": 57.291666666656965,
      "v": 82
    },
    {
      "midi": 58,
      "hit": false,
      "t": 132968.75000000058,
      "d": 151.04166666665697,
      "v": 90
    },
    {
      "midi": 46,
      "hit": false,
      "t": 132994.7916666673,
      "d": 57.291666666656965,
      "v": 65
    },
    {
      "midi": 44,
      "hit": false,
      "t": 133130.2083333336,
      "d": 114.58333333334303,
      "v": 82
    },
    {
      "midi": 56,
      "hit": false,
      "t": 133130.2083333339,
      "d": 307.29166666668607,
      "v": 90
    },
    {
      "midi": 44,
      "hit": false,
      "t": 133151.0416666673,
      "d": 119.79166666665697,
      "v": 65
    },
    {
      "midi": 41,
      "hit": false,
      "t": 133447.91666666695,
      "d": 119.79166666665697,
      "v": 82
    },
    {
      "midi": 53,
      "hit": false,
      "t": 133447.91666666724,
      "d": 307.29166666665697,
      "v": 90
    },
    {
      "midi": 53,
      "hit": false,
      "t": 133453.1250000003,
      "d": 57.291666666656965,
      "v": 105
    },
    {
      "midi": 56,
      "hit": false,
      "t": 133453.1250000003,
      "d": 57.291666666656965,
      "v": 105
    },
    {
      "midi": 77,
      "hit": false,
      "t": 133458.33333333288,
      "d": 135.41666666665697,
      "v": 83
    },
    {
      "midi": 80,
      "hit": false,
      "t": 133458.33333333288,
      "d": 140.625,
      "v": 83
    },
    {
      "midi": 41,
      "hit": false,
      "t": 133468.7500000006,
      "d": 119.79166666665697,
      "v": 65
    },
    {
      "midi": 53,
      "hit": false,
      "t": 133473.95833333395,
      "d": 57.291666666656965,
      "v": 105
    },
    {
      "midi": 56,
      "hit": false,
      "t": 133473.95833333395,
      "d": 57.291666666656965,
      "v": 105
    },
    {
      "midi": 37,
      "hit": false,
      "t": 133760.41666666695,
      "d": 119.79166666665697,
      "v": 82
    },
    {
      "midi": 49,
      "hit": false,
      "t": 133765.62500000055,
      "d": 307.29166666665697,
      "v": 90
    },
    {
      "midi": 53,
      "hit": false,
      "t": 133770.8333333336,
      "d": 145.83333333334303,
      "v": 105
    },
    {
      "midi": 56,
      "hit": false,
      "t": 133770.8333333336,
      "d": 145.83333333334303,
      "v": 105
    },
    {
      "midi": 77,
      "hit": false,
      "t": 133776.04166666622,
      "d": 135.41666666665697,
      "v": 83
    },
    {
      "midi": 80,
      "hit": false,
      "t": 133776.04166666622,
      "d": 135.41666666665697,
      "v": 83
    },
    {
      "midi": 37,
      "hit": false,
      "t": 133786.45833333393,
      "d": 119.79166666668607,
      "v": 65
    },
    {
      "midi": 53,
      "hit": false,
      "t": 133791.66666666727,
      "d": 145.83333333334303,
      "v": 105
    },
    {
      "midi": 56,
      "hit": false,
      "t": 133791.66666666727,
      "d": 145.83333333334303,
      "v": 105
    },
    {
      "midi": 39,
      "hit": false,
      "t": 134083.3333333336,
      "d": 119.79166666665697,
      "v": 82
    },
    {
      "midi": 51,
      "hit": false,
      "t": 134088.5416666672,
      "d": 302.08333333334303,
      "v": 90
    },
    {
      "midi": 39,
      "hit": false,
      "t": 134109.3750000006,
      "d": 119.79166666665697,
      "v": 65
    },
    {
      "midi": 54,
      "hit": false,
      "t": 134239.5833333336,
      "d": 57.291666666656965,
      "v": 105
    },
    {
      "midi": 58,
      "hit": false,
      "t": 134239.5833333336,
      "d": 57.291666666656965,
      "v": 105
    },
    {
      "midi": 54,
      "hit": false,
      "t": 134265.6250000006,
      "d": 57.29166666668607,
      "v": 105
    },
    {
      "midi": 58,
      "hit": false,
      "t": 134270.83333333395,
      "d": 57.29166666668607,
      "v": 105
    },
    {
      "midi": 78,
      "hit": false,
      "t": 134406.24999999953,
      "d": 62.5,
      "v": 83
    },
    {
      "midi": 82,
      "hit": false,
      "t": 134406.24999999953,
      "d": 62.5,
      "v": 83
    },
    {
      "midi": 42,
      "hit": false,
      "t": 134557.29166666692,
      "d": 119.79166666665697,
      "v": 82
    },
    {
      "midi": 54,
      "hit": false,
      "t": 134562.50000000055,
      "d": 546.8750000000291,
      "v": 90
    },
    {
      "midi": 42,
      "hit": false,
      "t": 134583.33333333398,
      "d": 119.79166666665697,
      "v": 65
    },
    {
      "midi": 54,
      "hit": false,
      "t": 134723.95833333358,
      "d": 145.83333333334303,
      "v": 105
    },
    {
      "midi": 58,
      "hit": false,
      "t": 134723.95833333358,
      "d": 145.83333333334303,
      "v": 105
    },
    {
      "midi": 78,
      "hit": false,
      "t": 134729.1666666662,
      "d": 140.625,
      "v": 83
    },
    {
      "midi": 82,
      "hit": false,
      "t": 134729.1666666662,
      "d": 140.625,
      "v": 83
    },
    {
      "midi": 54,
      "hit": false,
      "t": 134744.7916666673,
      "d": 151.04166666665697,
      "v": 105
    },
    {
      "midi": 58,
      "hit": false,
      "t": 134744.7916666673,
      "d": 151.04166666665697,
      "v": 105
    },
    {
      "midi": 46,
      "hit": false,
      "t": 134875.00000000026,
      "d": 57.291666666656965,
      "v": 82
    },
    {
      "midi": 58,
      "hit": false,
      "t": 134880.2083333339,
      "d": 145.83333333334303,
      "v": 90
    },
    {
      "midi": 46,
      "hit": false,
      "t": 134901.0416666673,
      "d": 57.291666666656965,
      "v": 65
    },
    {
      "midi": 44,
      "hit": false,
      "t": 135041.66666666692,
      "d": 114.58333333334303,
      "v": 82
    },
    {
      "midi": 56,
      "hit": false,
      "t": 135041.66666666724,
      "d": 307.29166666668607,
      "v": 90
    },
    {
      "midi": 44,
      "hit": false,
      "t": 135062.5000000006,
      "d": 119.79166666665697,
      "v": 65
    },
    {
      "midi": 41,
      "hit": false,
      "t": 135354.16666666692,
      "d": 119.79166666671517,
      "v": 82
    },
    {
      "midi": 53,
      "hit": false,
      "t": 135359.37500000026,
      "d": 57.29166666668607,
      "v": 105
    },
    {
      "midi": 53,
      "hit": false,
      "t": 135359.37500000058,
      "d": 307.29166666665697,
      "v": 90
    },
    {
      "midi": 77,
      "hit": false,
      "t": 135364.58333333285,
      "d": 140.625,
      "v": 83
    },
    {
      "midi": 56,
      "hit": false,
      "t": 135364.5833333336,
      "d": 57.29166666668607,
      "v": 105
    },
    {
      "midi": 80,
      "hit": false,
      "t": 135369.7916666662,
      "d": 140.625,
      "v": 83
    },
    {
      "midi": 53,
      "hit": false,
      "t": 135380.20833333393,
      "d": 57.29166666668607,
      "v": 105
    },
    {
      "midi": 41,
      "hit": false,
      "t": 135380.20833333393,
      "d": 119.79166666668607,
      "v": 65
    },
    {
      "midi": 56,
      "hit": false,
      "t": 135385.41666666727,
      "d": 57.29166666668607,
      "v": 105
    },
    {
      "midi": 37,
      "hit": false,
      "t": 135671.8750000003,
      "d": 119.79166666665697,
      "v": 82
    },
    {
      "midi": 49,
      "hit": false,
      "t": 135677.0833333339,
      "d": 307.29166666665697,
      "v": 90
    },
    {
      "midi": 77,
      "hit": false,
      "t": 135682.2916666662,
      "d": 140.625,
      "v": 83
    },
    {
      "midi": 53,
      "hit": false,
      "t": 135682.29166666695,
      "d": 145.83333333334303,
      "v": 105
    },
    {
      "midi": 56,
      "hit": false,
      "t": 135682.29166666695,
      "d": 145.83333333334303,
      "v": 105
    },
    {
      "midi": 80,
      "hit": false,
      "t": 135687.49999999953,
      "d": 135.41666666665697,
      "v": 83
    },
    {
      "midi": 37,
      "hit": false,
      "t": 135697.91666666727,
      "d": 119.79166666668607,
      "v": 65
    },
    {
      "midi": 53,
      "hit": false,
      "t": 135703.1250000006,
      "d": 145.83333333334303,
      "v": 105
    },
    {
      "midi": 56,
      "hit": false,
      "t": 135703.1250000006,
      "d": 145.83333333334303,
      "v": 105
    },
    {
      "midi": 39,
      "hit": false,
      "t": 135994.79166666695,
      "d": 119.79166666665697,
      "v": 82
    },
    {
      "midi": 51,
      "hit": false,
      "t": 135994.7916666672,
      "d": 307.29166666665697,
      "v": 90
    },
    {
      "midi": 39,
      "hit": false,
      "t": 136015.6250000006,
      "d": 119.79166666665697,
      "v": 65
    },
    {
      "midi": 54,
      "hit": false,
      "t": 136151.04166666695,
      "d": 57.291666666656965,
      "v": 105
    },
    {
      "midi": 58,
      "hit": false,
      "t": 136151.04166666695,
      "d": 57.291666666656965,
      "v": 105
    },
    {
      "midi": 54,
      "hit": false,
      "t": 136177.08333333393,
      "d": 57.291666666656965,
      "v": 105
    },
    {
      "midi": 58,
      "hit": false,
      "t": 136177.08333333393,
      "d": 57.291666666656965,
      "v": 105
    },
    {
      "midi": 78,
      "hit": false,
      "t": 136317.70833333285,
      "d": 140.625,
      "v": 83
    },
    {
      "midi": 82,
      "hit": false,
      "t": 136317.70833333285,
      "d": 145.83333333334303,
      "v": 83
    },
    {
      "midi": 42,
      "hit": false,
      "t": 136468.75000000026,
      "d": 119.79166666665697,
      "v": 82
    },
    {
      "midi": 54,
      "hit": false,
      "t": 136468.75000000052,
      "d": 546.875,
      "v": 90
    },
    {
      "midi": 42,
      "hit": false,
      "t": 136494.79166666724,
      "d": 119.79166666665697,
      "v": 65
    },
    {
      "midi": 54,
      "hit": false,
      "t": 136630.20833333358,
      "d": 151.04166666668607,
      "v": 105
    },
    {
      "midi": 78,
      "hit": false,
      "t": 136635.4166666662,
      "d": 145.83333333334303,
      "v": 83
    },
    {
      "midi": 82,
      "hit": false,
      "t": 136635.4166666662,
      "d": 145.83333333334303,
      "v": 83
    },
    {
      "midi": 58,
      "hit": false,
      "t": 136635.41666666692,
      "d": 145.83333333334303,
      "v": 105
    },
    {
      "midi": 54,
      "hit": false,
      "t": 136656.25000000055,
      "d": 151.04166666665697,
      "v": 105
    },
    {
      "midi": 58,
      "hit": false,
      "t": 136656.25000000055,
      "d": 151.04166666665697,
      "v": 105
    },
    {
      "midi": 46,
      "hit": false,
      "t": 136786.4583333336,
      "d": 57.291666666656965,
      "v": 82
    },
    {
      "midi": 58,
      "hit": false,
      "t": 136791.66666666718,
      "d": 145.83333333334303,
      "v": 90
    },
    {
      "midi": 46,
      "hit": false,
      "t": 136812.50000000055,
      "d": 57.291666666656965,
      "v": 65
    },
    {
      "midi": 44,
      "hit": false,
      "t": 136947.91666666692,
      "d": 119.79166666665697,
      "v": 82
    },
    {
      "midi": 56,
      "hit": false,
      "t": 136953.12500000052,
      "d": 302.08333333334303,
      "v": 90
    },
    {
      "midi": 44,
      "hit": false,
      "t": 136973.95833333387,
      "d": 119.79166666665697,
      "v": 65
    },
    {
      "midi": 41,
      "hit": false,
      "t": 137265.62500000023,
      "d": 119.79166666671517,
      "v": 82
    },
    {
      "midi": 53,
      "hit": false,
      "t": 137270.83333333358,
      "d": 57.29166666668607,
      "v": 105
    },
    {
      "midi": 53,
      "hit": false,
      "t": 137270.83333333387,
      "d": 307.29166666665697,
      "v": 90
    },
    {
      "midi": 77,
      "hit": false,
      "t": 137276.0416666662,
      "d": 140.625,
      "v": 83
    },
    {
      "midi": 56,
      "hit": false,
      "t": 137276.04166666692,
      "d": 57.29166666668607,
      "v": 105
    },
    {
      "midi": 80,
      "hit": false,
      "t": 137281.24999999953,
      "d": 140.625,
      "v": 83
    },
    {
      "midi": 53,
      "hit": false,
      "t": 137291.66666666718,
      "d": 57.29166666668607,
      "v": 105
    },
    {
      "midi": 41,
      "hit": false,
      "t": 137291.66666666718,
      "d": 119.79166666668607,
      "v": 65
    },
    {
      "midi": 56,
      "hit": false,
      "t": 137296.87500000052,
      "d": 57.29166666668607,
      "v": 105
    },
    {
      "midi": 37,
      "hit": false,
      "t": 137583.3333333336,
      "d": 119.79166666665697,
      "v": 82
    },
    {
      "midi": 49,
      "hit": false,
      "t": 137588.54166666718,
      "d": 307.29166666665697,
      "v": 90
    },
    {
      "midi": 77,
      "hit": false,
      "t": 137593.74999999953,
      "d": 140.625,
      "v": 83
    },
    {
      "midi": 53,
      "hit": false,
      "t": 137593.75000000026,
      "d": 145.83333333334303,
      "v": 105
    },
    {
      "midi": 56,
      "hit": false,
      "t": 137593.75000000026,
      "d": 145.83333333334303,
      "v": 105
    },
    {
      "midi": 80,
      "hit": false,
      "t": 137598.95833333288,
      "d": 135.41666666665697,
      "v": 83
    },
    {
      "midi": 37,
      "hit": false,
      "t": 137609.37500000052,
      "d": 119.79166666668607,
      "v": 65
    },
    {
      "midi": 53,
      "hit": false,
      "t": 137614.58333333387,
      "d": 145.83333333334303,
      "v": 105
    },
    {
      "midi": 56,
      "hit": false,
      "t": 137614.58333333387,
      "d": 145.83333333334303,
      "v": 105
    },
    {
      "midi": 39,
      "hit": false,
      "t": 137906.25000000026,
      "d": 119.79166666665697,
      "v": 82
    },
    {
      "midi": 51,
      "hit": false,
      "t": 137906.2500000005,
      "d": 307.29166666665697,
      "v": 90
    },
    {
      "midi": 39,
      "hit": false,
      "t": 137927.08333333387,
      "d": 119.79166666665697,
      "v": 65
    },
    {
      "midi": 54,
      "hit": false,
      "t": 138062.50000000026,
      "d": 57.291666666656965,
      "v": 105
    },
    {
      "midi": 58,
      "hit": false,
      "t": 138062.50000000026,
      "d": 57.291666666656965,
      "v": 105
    },
    {
      "midi": 54,
      "hit": false,
      "t": 138088.54166666718,
      "d": 57.291666666656965,
      "v": 105
    },
    {
      "midi": 58,
      "hit": false,
      "t": 138088.54166666718,
      "d": 57.291666666656965,
      "v": 105
    },
    {
      "midi": 78,
      "hit": false,
      "t": 138223.95833333288,
      "d": 67.70833333334303,
      "v": 83
    },
    {
      "midi": 82,
      "hit": false,
      "t": 138229.16666666622,
      "d": 62.5,
      "v": 83
    },
    {
      "midi": 42,
      "hit": false,
      "t": 138380.20833333358,
      "d": 119.79166666665697,
      "v": 82
    },
    {
      "midi": 54,
      "hit": false,
      "t": 138380.2083333338,
      "d": 546.875,
      "v": 90
    },
    {
      "midi": 42,
      "hit": false,
      "t": 138406.2500000005,
      "d": 119.79166666665697,
      "v": 65
    },
    {
      "midi": 54,
      "hit": false,
      "t": 138541.6666666669,
      "d": 151.04166666668607,
      "v": 105
    },
    {
      "midi": 78,
      "hit": false,
      "t": 138546.87499999956,
      "d": 145.83333333334303,
      "v": 83
    },
    {
      "midi": 82,
      "hit": false,
      "t": 138546.87499999956,
      "d": 145.83333333334303,
      "v": 83
    },
    {
      "midi": 58,
      "hit": false,
      "t": 138546.87500000023,
      "d": 145.83333333334303,
      "v": 105
    },
    {
      "midi": 54,
      "hit": false,
      "t": 138567.7083333338,
      "d": 145.83333333334303,
      "v": 105
    },
    {
      "midi": 58,
      "hit": false,
      "t": 138567.7083333338,
      "d": 151.04166666668607,
      "v": 105
    },
    {
      "midi": 46,
      "hit": false,
      "t": 138697.91666666692,
      "d": 57.291666666656965,
      "v": 82
    },
    {
      "midi": 58,
      "hit": false,
      "t": 138703.12500000047,
      "d": 145.83333333334303,
      "v": 90
    },
    {
      "midi": 46,
      "hit": false,
      "t": 138723.95833333384,
      "d": 57.291666666656965,
      "v": 65
    },
    {
      "midi": 44,
      "hit": false,
      "t": 138859.37500000023,
      "d": 119.79166666665697,
      "v": 82
    },
    {
      "midi": 56,
      "hit": false,
      "t": 138864.5833333338,
      "d": 302.08333333334303,
      "v": 90
    },
    {
      "midi": 44,
      "hit": false,
      "t": 138885.41666666715,
      "d": 119.79166666665697,
      "v": 65
    },
    {
      "midi": 41,
      "hit": false,
      "t": 139177.08333333355,
      "d": 119.79166666671517,
      "v": 82
    },
    {
      "midi": 53,
      "hit": false,
      "t": 139182.2916666669,
      "d": 57.29166666668607,
      "v": 105
    },
    {
      "midi": 53,
      "hit": false,
      "t": 139182.29166666715,
      "d": 307.29166666665697,
      "v": 90
    },
    {
      "midi": 77,
      "hit": false,
      "t": 139187.49999999956,
      "d": 140.625,
      "v": 83
    },
    {
      "midi": 56,
      "hit": false,
      "t": 139187.50000000023,
      "d": 57.29166666668607,
      "v": 105
    },
    {
      "midi": 80,
      "hit": false,
      "t": 139192.7083333329,
      "d": 135.41666666665697,
      "v": 83
    },
    {
      "midi": 53,
      "hit": false,
      "t": 139203.12500000047,
      "d": 57.29166666668607,
      "v": 105
    },
    {
      "midi": 41,
      "hit": false,
      "t": 139203.12500000047,
      "d": 119.79166666668607,
      "v": 65
    },
    {
      "midi": 56,
      "hit": false,
      "t": 139208.3333333338,
      "d": 57.29166666668607,
      "v": 105
    },
    {
      "midi": 37,
      "hit": false,
      "t": 139494.79166666692,
      "d": 119.79166666668607,
      "v": 82
    },
    {
      "midi": 53,
      "hit": false,
      "t": 139500.00000000026,
      "d": 145.83333333334303,
      "v": 105
    },
    {
      "midi": 49,
      "hit": false,
      "t": 139500.00000000047,
      "d": 307.29166666665697,
      "v": 90
    },
    {
      "midi": 77,
      "hit": false,
      "t": 139505.2083333329,
      "d": 140.625,
      "v": 83
    },
    {
      "midi": 56,
      "hit": false,
      "t": 139505.2083333336,
      "d": 145.83333333334303,
      "v": 105
    },
    {
      "midi": 37,
      "hit": false,
      "t": 139520.8333333338,
      "d": 119.79166666668607,
      "v": 65
    },
    {
      "midi": 53,
      "hit": false,
      "t": 139520.8333333338,
      "d": 151.04166666668607,
      "v": 105
    },
    {
      "midi": 56,
      "hit": false,
      "t": 139526.04166666715,
      "d": 145.83333333334303,
      "v": 105
    },
    {
      "midi": 46,
      "hit": false,
      "t": 139817.7083333336,
      "d": 119.79166666665697,
      "v": 82
    },
    {
      "midi": 58,
      "hit": false,
      "t": 139822.91666666712,
      "d": 302.08333333334303,
      "v": 90
    },
    {
      "midi": 46,
      "hit": false,
      "t": 139838.54166666715,
      "d": 119.79166666665697,
      "v": 65
    },
    {
      "midi": 61,
      "hit": false,
      "t": 139973.9583333336,
      "d": 57.291666666656965,
      "v": 105
    },
    {
      "midi": 65,
      "hit": false,
      "t": 139973.9583333336,
      "d": 57.291666666656965,
      "v": 105
    },
    {
      "midi": 61,
      "hit": false,
      "t": 140000.00000000047,
      "d": 57.291666666656965,
      "v": 105
    },
    {
      "midi": 65,
      "hit": false,
      "t": 140000.00000000047,
      "d": 57.291666666656965,
      "v": 105
    },
    {
      "midi": 73,
      "hit": false,
      "t": 140135.41666666625,
      "d": 67.70833333334303,
      "v": 83
    },
    {
      "midi": 77,
      "hit": false,
      "t": 140140.6249999996,
      "d": 62.5,
      "v": 83
    },
    {
      "midi": 53,
      "hit": false,
      "t": 140291.66666666692,
      "d": 88.54166666665697,
      "v": 82
    },
    {
      "midi": 65,
      "hit": false,
      "t": 140296.87500000047,
      "d": 223.95833333334303,
      "v": 90
    },
    {
      "midi": 53,
      "hit": false,
      "t": 140317.70833333378,
      "d": 88.54166666665697,
      "v": 65
    },
    {
      "midi": 61,
      "hit": false,
      "t": 140453.12500000023,
      "d": 145.83333333334303,
      "v": 105
    },
    {
      "midi": 73,
      "hit": false,
      "t": 140458.33333333294,
      "d": 140.625,
      "v": 83
    },
    {
      "midi": 65,
      "hit": false,
      "t": 140458.33333333358,
      "d": 145.83333333334303,
      "v": 105
    },
    {
      "midi": 77,
      "hit": false,
      "t": 140463.54166666628,
      "d": 140.625,
      "v": 83
    },
    {
      "midi": 61,
      "hit": false,
      "t": 140479.1666666671,
      "d": 145.83333333334303,
      "v": 105
    },
    {
      "midi": 65,
      "hit": false,
      "t": 140479.1666666671,
      "d": 145.83333333334303,
      "v": 105
    },
    {
      "midi": 46,
      "hit": false,
      "t": 140609.37500000026,
      "d": 57.291666666656965,
      "v": 82
    },
    {
      "midi": 58,
      "hit": false,
      "t": 140609.37500000047,
      "d": 151.04166666665697,
      "v": 90
    },
    {
      "midi": 46,
      "hit": false,
      "t": 140635.4166666671,
      "d": 57.291666666656965,
      "v": 65
    },
    {
      "midi": 41,
      "hit": false,
      "t": 140770.83333333358,
      "d": 119.79166666665697,
      "v": 82
    },
    {
      "midi": 53,
      "hit": false,
      "t": 140776.04166666712,
      "d": 302.08333333334303,
      "v": 90
    },
    {
      "midi": 41,
      "hit": false,
      "t": 140796.8750000004,
      "d": 119.79166666665697,
      "v": 65
    },
    {
      "midi": 60,
      "hit": false,
      "t": 140927.08333333358,
      "d": 57.29166666668607,
      "v": 105
    },
    {
      "midi": 65,
      "hit": false,
      "t": 140932.29166666692,
      "d": 57.29166666668607,
      "v": 105
    },
    {
      "midi": 60,
      "hit": false,
      "t": 140953.1250000004,
      "d": 57.29166666668607,
      "v": 105
    },
    {
      "midi": 65,
      "hit": false,
      "t": 140958.33333333375,
      "d": 57.29166666668607,
      "v": 105
    },
    {
      "midi": 68,
      "hit": false,
      "t": 141093.74999999962,
      "d": 145.83333333334303,
      "v": 83
    },
    {
      "midi": 72,
      "hit": false,
      "t": 141093.74999999962,
      "d": 145.83333333334303,
      "v": 83
    },
    {
      "midi": 48,
      "hit": false,
      "t": 141244.79166666695,
      "d": 88.54166666665697,
      "v": 82
    },
    {
      "midi": 60,
      "hit": false,
      "t": 141250.00000000047,
      "d": 229.16666666665697,
      "v": 90
    },
    {
      "midi": 48,
      "hit": false,
      "t": 141270.83333333378,
      "d": 88.54166666665697,
      "v": 65
    },
    {
      "midi": 60,
      "hit": false,
      "t": 141411.4583333336,
      "d": 145.83333333334303,
      "v": 105
    },
    {
      "midi": 65,
      "hit": false,
      "t": 141411.4583333336,
      "d": 145.83333333334303,
      "v": 105
    },
    {
      "midi": 68,
      "hit": false,
      "t": 141416.6666666663,
      "d": 140.625,
      "v": 83
    },
    {
      "midi": 72,
      "hit": false,
      "t": 141416.6666666663,
      "d": 140.625,
      "v": 83
    },
    {
      "midi": 60,
      "hit": false,
      "t": 141432.2916666671,
      "d": 151.04166666665697,
      "v": 105
    },
    {
      "midi": 65,
      "hit": false,
      "t": 141432.2916666671,
      "d": 151.04166666665697,
      "v": 105
    },
    {
      "midi": 41,
      "hit": false,
      "t": 141562.5000000003,
      "d": 57.291666666656965,
      "v": 82
    },
    {
      "midi": 53,
      "hit": false,
      "t": 141567.70833333378,
      "d": 151.04166666665697,
      "v": 90
    },
    {
      "midi": 41,
      "hit": false,
      "t": 141593.7500000004,
      "d": 57.291666666656965,
      "v": 65
    },
    {
      "midi": 42,
      "hit": false,
      "t": 141723.9583333336,
      "d": 119.79166666665697,
      "v": 82
    },
    {
      "midi": 54,
      "hit": false,
      "t": 141729.1666666671,
      "d": 307.29166666665697,
      "v": 90
    },
    {
      "midi": 42,
      "hit": false,
      "t": 141750.0000000004,
      "d": 119.79166666665697,
      "v": 65
    },
    {
      "midi": 61,
      "hit": false,
      "t": 141885.41666666692,
      "d": 57.291666666656965,
      "v": 105
    },
    {
      "midi": 66,
      "hit": false,
      "t": 141885.41666666692,
      "d": 57.291666666656965,
      "v": 105
    },
    {
      "midi": 61,
      "hit": false,
      "t": 141911.45833333372,
      "d": 57.291666666656965,
      "v": 105
    },
    {
      "midi": 66,
      "hit": false,
      "t": 141911.45833333372,
      "d": 57.291666666656965,
      "v": 105
    },
    {
      "midi": 70,
      "hit": false,
      "t": 142046.87499999965,
      "d": 67.70833333334303,
      "v": 83
    },
    {
      "midi": 73,
      "hit": false,
      "t": 142052.083333333,
      "d": 140.625,
      "v": 83
    },
    {
      "midi": 49,
      "hit": false,
      "t": 142203.12500000023,
      "d": 88.54166666665697,
      "v": 82
    },
    {
      "midi": 61,
      "hit": false,
      "t": 142203.1250000004,
      "d": 229.16666666665697,
      "v": 90
    },
    {
      "midi": 49,
      "hit": false,
      "t": 142229.16666666704,
      "d": 88.54166666665697,
      "v": 65
    },
    {
      "midi": 61,
      "hit": false,
      "t": 142364.58333333355,
      "d": 145.83333333334303,
      "v": 105
    },
    {
      "midi": 66,
      "hit": false,
      "t": 142364.58333333355,
      "d": 145.83333333334303,
      "v": 105
    },
    {
      "midi": 70,
      "hit": false,
      "t": 142369.79166666634,
      "d": 140.625,
      "v": 83
    },
    {
      "midi": 73,
      "hit": false,
      "t": 142369.79166666634,
      "d": 140.625,
      "v": 83
    },
    {
      "midi": 61,
      "hit": false,
      "t": 142385.41666666704,
      "d": 151.04166666668607,
      "v": 105
    },
    {
      "midi": 66,
      "hit": false,
      "t": 142390.62500000038,
      "d": 145.83333333334303,
      "v": 105
    },
    {
      "midi": 54,
      "hit": false,
      "t": 142520.83333333355,
      "d": 57.291666666656965,
      "v": 82
    },
    {
      "midi": 66,
      "hit": false,
      "t": 142520.83333333372,
      "d": 151.04166666665697,
      "v": 90
    },
    {
      "midi": 54,
      "hit": false,
      "t": 142546.87500000038,
      "d": 57.291666666656965,
      "v": 65
    },
    {
      "midi": 53,
      "hit": false,
      "t": 142682.29166666686,
      "d": 88.54166666665697,
      "v": 82
    },
    {
      "midi": 65,
      "hit": false,
      "t": 142687.50000000038,
      "d": 223.95833333334303,
      "v": 90
    },
    {
      "midi": 53,
      "hit": false,
      "t": 142708.3333333337,
      "d": 88.54166666665697,
      "v": 65
    },
    {
      "midi": 61,
      "hit": false,
      "t": 142838.54166666686,
      "d": 57.291666666656965,
      "v": 105
    },
    {
      "midi": 65,
      "hit": false,
      "t": 142838.54166666686,
      "d": 57.291666666656965,
      "v": 105
    },
    {
      "midi": 61,
      "hit": false,
      "t": 142864.5833333337,
      "d": 57.291666666656965,
      "v": 105
    },
    {
      "midi": 65,
      "hit": false,
      "t": 142864.5833333337,
      "d": 57.291666666656965,
      "v": 105
    },
    {
      "midi": 51,
      "hit": false,
      "t": 143000.00000000017,
      "d": 88.54166666665697,
      "v": 82
    },
    {
      "midi": 65,
      "hit": false,
      "t": 143005.208333333,
      "d": 140.625,
      "v": 83
    },
    {
      "midi": 68,
      "hit": false,
      "t": 143005.208333333,
      "d": 145.83333333334303,
      "v": 83
    },
    {
      "midi": 63,
      "hit": false,
      "t": 143005.20833333372,
      "d": 223.95833333334303,
      "v": 90
    },
    {
      "midi": 51,
      "hit": false,
      "t": 143026.041666667,
      "d": 88.54166666665697,
      "v": 65
    },
    {
      "midi": 61,
      "hit": false,
      "t": 143156.25000000017,
      "d": 57.29166666668607,
      "v": 105
    },
    {
      "midi": 65,
      "hit": false,
      "t": 143161.45833333352,
      "d": 57.29166666668607,
      "v": 105
    },
    {
      "midi": 61,
      "hit": false,
      "t": 143182.291666667,
      "d": 57.29166666668607,
      "v": 105
    },
    {
      "midi": 65,
      "hit": false,
      "t": 143187.50000000035,
      "d": 57.29166666668607,
      "v": 105
    },
    {
      "midi": 49,
      "hit": false,
      "t": 143317.70833333355,
      "d": 88.54166666665697,
      "v": 82
    },
    {
      "midi": 61,
      "hit": false,
      "t": 143317.70833333372,
      "d": 229.16666666665697,
      "v": 90
    },
    {
      "midi": 65,
      "hit": false,
      "t": 143322.91666666634,
      "d": 145.83333333334303,
      "v": 83
    },
    {
      "midi": 68,
      "hit": false,
      "t": 143322.91666666634,
      "d": 145.83333333334303,
      "v": 83
    },
    {
      "midi": 49,
      "hit": false,
      "t": 143343.75000000038,
      "d": 88.54166666665697,
      "v": 65
    },
    {
      "midi": 61,
      "hit": false,
      "t": 143473.95833333355,
      "d": 57.29166666668607,
      "v": 105
    },
    {
      "midi": 65,
      "hit": false,
      "t": 143479.1666666669,
      "d": 57.29166666668607,
      "v": 105
    },
    {
      "midi": 61,
      "hit": false,
      "t": 143500.00000000038,
      "d": 57.29166666668607,
      "v": 105
    },
    {
      "midi": 65,
      "hit": false,
      "t": 143505.20833333372,
      "d": 57.29166666668607,
      "v": 105
    },
    {
      "midi": 48,
      "hit": false,
      "t": 143640.62500000023,
      "d": 88.54166666665697,
      "v": 82
    },
    {
      "midi": 60,
      "hit": false,
      "t": 143640.62500000038,
      "d": 223.95833333334303,
      "v": 90
    },
    {
      "midi": 48,
      "hit": false,
      "t": 143661.45833333375,
      "d": 88.54166666665697,
      "v": 65
    },
    {
      "midi": 61,
      "hit": false,
      "t": 143791.6666666669,
      "d": 57.29166666668607,
      "v": 105
    },
    {
      "midi": 65,
      "hit": false,
      "t": 143796.87500000023,
      "d": 57.29166666668607,
      "v": 105
    },
    {
      "midi": 61,
      "hit": false,
      "t": 143822.91666666706,
      "d": 57.291666666656965,
      "v": 105
    },
    {
      "midi": 65,
      "hit": false,
      "t": 143822.91666666706,
      "d": 57.291666666656965,
      "v": 105
    },
    {
      "midi": 46,
      "hit": false,
      "t": 143958.33333333358,
      "d": 119.79166666665697,
      "v": 82
    },
    {
      "midi": 58,
      "hit": false,
      "t": 143963.54166666706,
      "d": 302.08333333334303,
      "v": 90
    },
    {
      "midi": 46,
      "hit": false,
      "t": 143984.37500000038,
      "d": 119.79166666665697,
      "v": 65
    },
    {
      "midi": 61,
      "hit": false,
      "t": 144114.58333333358,
      "d": 57.29166666668607,
      "v": 105
    },
    {
      "midi": 65,
      "hit": false,
      "t": 144119.79166666692,
      "d": 57.29166666668607,
      "v": 105
    },
    {
      "midi": 61,
      "hit": false,
      "t": 144140.62500000038,
      "d": 57.29166666668607,
      "v": 105
    },
    {
      "midi": 65,
      "hit": false,
      "t": 144145.83333333372,
      "d": 57.29166666668607,
      "v": 105
    },
    {
      "midi": 73,
      "hit": false,
      "t": 144276.04166666634,
      "d": 145.83333333334303,
      "v": 83
    },
    {
      "midi": 77,
      "hit": false,
      "t": 144281.24999999968,
      "d": 140.625,
      "v": 83
    },
    {
      "midi": 53,
      "hit": false,
      "t": 144432.29166666695,
      "d": 88.54166666665697,
      "v": 82
    },
    {
      "midi": 65,
      "hit": false,
      "t": 144437.5000000004,
      "d": 223.95833333334303,
      "v": 90
    },
    {
      "midi": 53,
      "hit": false,
      "t": 144458.33333333375,
      "d": 88.54166666665697,
      "v": 65
    },
    {
      "midi": 61,
      "hit": false,
      "t": 144593.75000000026,
      "d": 145.83333333334303,
      "v": 105
    },
    {
      "midi": 73,
      "hit": false,
      "t": 144598.95833333302,
      "d": 140.625,
      "v": 83
    },
    {
      "midi": 77,
      "hit": false,
      "t": 144598.95833333302,
      "d": 145.83333333334303,
      "v": 83
    },
    {
      "midi": 65,
      "hit": false,
      "t": 144598.9583333336,
      "d": 145.83333333334303,
      "v": 105
    },
    {
      "midi": 61,
      "hit": false,
      "t": 144614.58333333375,
      "d": 151.04166666668607,
      "v": 105
    },
    {
      "midi": 65,
      "hit": false,
      "t": 144619.7916666671,
      "d": 145.83333333334303,
      "v": 105
    },
    {
      "midi": 46,
      "hit": false,
      "t": 144750.0000000003,
      "d": 57.291666666656965,
      "v": 82
    },
    {
      "midi": 58,
      "hit": false,
      "t": 144750.0000000004,
      "d": 151.04166666665697,
      "v": 90
    },
    {
      "midi": 46,
      "hit": false,
      "t": 144776.0416666671,
      "d": 57.291666666656965,
      "v": 65
    },
    {
      "midi": 41,
      "hit": false,
      "t": 144911.4583333336,
      "d": 119.79166666665697,
      "v": 82
    },
    {
      "midi": 53,
      "hit": false,
      "t": 144916.66666666706,
      "d": 302.08333333334303,
      "v": 90
    },
    {
      "midi": 41,
      "hit": false,
      "t": 144937.5000000004,
      "d": 119.79166666665697,
      "v": 65
    },
    {
      "midi": 60,
      "hit": false,
      "t": 145067.7083333336,
      "d": 57.291666666656965,
      "v": 105
    },
    {
      "midi": 65,
      "hit": false,
      "t": 145067.7083333336,
      "d": 57.291666666656965,
      "v": 105
    },
    {
      "midi": 60,
      "hit": false,
      "t": 145093.7500000004,
      "d": 57.29166666668607,
      "v": 105
    },
    {
      "midi": 65,
      "hit": false,
      "t": 145098.95833333375,
      "d": 57.29166666668607,
      "v": 105
    },
    {
      "midi": 68,
      "hit": false,
      "t": 145229.16666666637,
      "d": 151.04166666668607,
      "v": 83
    },
    {
      "midi": 72,
      "hit": false,
      "t": 145234.3749999997,
      "d": 145.83333333334303,
      "v": 83
    },
    {
      "midi": 48,
      "hit": false,
      "t": 145385.41666666692,
      "d": 88.54166666665697,
      "v": 82
    },
    {
      "midi": 60,
      "hit": false,
      "t": 145390.6250000004,
      "d": 229.16666666665697,
      "v": 90
    },
    {
      "midi": 48,
      "hit": false,
      "t": 145411.45833333378,
      "d": 88.54166666665697,
      "v": 65
    },
    {
      "midi": 60,
      "hit": false,
      "t": 145546.87500000023,
      "d": 151.04166666668607,
      "v": 105
    },
    {
      "midi": 68,
      "hit": false,
      "t": 145552.08333333305,
      "d": 145.83333333334303,
      "v": 83
    },
    {
      "midi": 65,
      "hit": false,
      "t": 145552.08333333358,
      "d": 145.83333333334303,
      "v": 105
    },
    {
      "midi": 72,
      "hit": false,
      "t": 145557.2916666664,
      "d": 140.625,
      "v": 83
    },
    {
      "midi": 60,
      "hit": false,
      "t": 145572.9166666671,
      "d": 151.04166666665697,
      "v": 105
    },
    {
      "midi": 65,
      "hit": false,
      "t": 145572.9166666671,
      "d": 151.04166666665697,
      "v": 105
    },
    {
      "midi": 41,
      "hit": false,
      "t": 145703.12500000026,
      "d": 57.291666666656965,
      "v": 82
    },
    {
      "midi": 53,
      "hit": false,
      "t": 145708.33333333372,
      "d": 145.83333333334303,
      "v": 90
    },
    {
      "midi": 41,
      "hit": false,
      "t": 145729.1666666671,
      "d": 57.291666666656965,
      "v": 65
    },
    {
      "midi": 42,
      "hit": false,
      "t": 145864.58333333358,
      "d": 119.79166666665697,
      "v": 82
    },
    {
      "midi": 54,
      "hit": false,
      "t": 145869.79166666706,
      "d": 307.29166666665697,
      "v": 90
    },
    {
      "midi": 42,
      "hit": false,
      "t": 145890.6250000004,
      "d": 119.79166666665697,
      "v": 65
    },
    {
      "midi": 61,
      "hit": false,
      "t": 146026.0416666669,
      "d": 57.291666666656965,
      "v": 105
    },
    {
      "midi": 66,
      "hit": false,
      "t": 146026.0416666669,
      "d": 57.291666666656965,
      "v": 105
    },
    {
      "midi": 61,
      "hit": false,
      "t": 146052.08333333372,
      "d": 57.291666666656965,
      "v": 105
    },
    {
      "midi": 66,
      "hit": false,
      "t": 146052.08333333372,
      "d": 57.291666666656965,
      "v": 105
    },
    {
      "midi": 70,
      "hit": false,
      "t": 146187.49999999974,
      "d": 145.83333333334303,
      "v": 83
    },
    {
      "midi": 73,
      "hit": false,
      "t": 146187.49999999974,
      "d": 145.83333333334303,
      "v": 83
    },
    {
      "midi": 49,
      "hit": false,
      "t": 146343.7500000002,
      "d": 88.54166666665697,
      "v": 82
    },
    {
      "midi": 61,
      "hit": false,
      "t": 146343.75000000038,
      "d": 229.16666666665697,
      "v": 90
    },
    {
      "midi": 49,
      "hit": false,
      "t": 146369.79166666704,
      "d": 88.54166666665697,
      "v": 65
    },
    {
      "midi": 61,
      "hit": false,
      "t": 146505.20833333352,
      "d": 145.83333333334303,
      "v": 105
    },
    {
      "midi": 66,
      "hit": false,
      "t": 146505.20833333352,
      "d": 145.83333333334303,
      "v": 105
    },
    {
      "midi": 70,
      "hit": false,
      "t": 146510.41666666642,
      "d": 218.75,
      "v": 83
    },
    {
      "midi": 73,
      "hit": false,
      "t": 146510.41666666642,
      "d": 223.95833333334303,
      "v": 83
    },
    {
      "midi": 61,
      "hit": false,
      "t": 146526.04166666704,
      "d": 151.04166666668607,
      "v": 105
    },
    {
      "midi": 66,
      "hit": false,
      "t": 146531.25000000038,
      "d": 145.83333333334303,
      "v": 105
    },
    {
      "midi": 54,
      "hit": false,
      "t": 146661.45833333352,
      "d": 57.291666666656965,
      "v": 82
    },
    {
      "midi": 66,
      "hit": false,
      "t": 146661.4583333337,
      "d": 151.04166666665697,
      "v": 90
    },
    {
      "midi": 54,
      "hit": false,
      "t": 146687.50000000038,
      "d": 57.291666666656965,
      "v": 65
    },
    {
      "midi": 53,
      "hit": false,
      "t": 146822.91666666683,
      "d": 88.54166666665697,
      "v": 82
    },
    {
      "midi": 65,
      "hit": false,
      "t": 146828.12500000035,
      "d": 223.95833333334303,
      "v": 90
    },
    {
      "midi": 53,
      "hit": false,
      "t": 146843.75000000038,
      "d": 88.54166666665697,
      "v": 65
    },
    {
      "midi": 61,
      "hit": false,
      "t": 146979.16666666683,
      "d": 57.291666666656965,
      "v": 105
    },
    {
      "midi": 65,
      "hit": false,
      "t": 146979.16666666683,
      "d": 57.291666666656965,
      "v": 105
    },
    {
      "midi": 61,
      "hit": false,
      "t": 147005.2083333337,
      "d": 57.291666666656965,
      "v": 105
    },
    {
      "midi": 65,
      "hit": false,
      "t": 147005.2083333337,
      "d": 57.291666666656965,
      "v": 105
    },
    {
      "midi": 51,
      "hit": false,
      "t": 147140.62500000015,
      "d": 88.54166666665697,
      "v": 82
    },
    {
      "midi": 65,
      "hit": false,
      "t": 147145.8333333331,
      "d": 140.625,
      "v": 83
    },
    {
      "midi": 68,
      "hit": false,
      "t": 147145.8333333331,
      "d": 145.83333333334303,
      "v": 83
    },
    {
      "midi": 63,
      "hit": false,
      "t": 147145.8333333337,
      "d": 223.95833333334303,
      "v": 90
    },
    {
      "midi": 51,
      "hit": false,
      "t": 147166.666666667,
      "d": 88.54166666665697,
      "v": 65
    },
    {
      "midi": 61,
      "hit": false,
      "t": 147296.87500000015,
      "d": 57.291666666656965,
      "v": 105
    },
    {
      "midi": 65,
      "hit": false,
      "t": 147296.87500000015,
      "d": 57.291666666656965,
      "v": 105
    },
    {
      "midi": 61,
      "hit": false,
      "t": 147322.916666667,
      "d": 57.29166666668607,
      "v": 105
    },
    {
      "midi": 65,
      "hit": false,
      "t": 147328.12500000035,
      "d": 57.29166666668607,
      "v": 105
    },
    {
      "midi": 49,
      "hit": false,
      "t": 147458.33333333346,
      "d": 88.54166666665697,
      "v": 82
    },
    {
      "midi": 61,
      "hit": false,
      "t": 147458.3333333337,
      "d": 229.16666666665697,
      "v": 90
    },
    {
      "midi": 65,
      "hit": false,
      "t": 147463.54166666645,
      "d": 223.95833333334303,
      "v": 83
    },
    {
      "midi": 68,
      "hit": false,
      "t": 147463.54166666645,
      "d": 229.16666666668607,
      "v": 83
    },
    {
      "midi": 49,
      "hit": false,
      "t": 147484.37500000038,
      "d": 88.54166666665697,
      "v": 65
    },
    {
      "midi": 61,
      "hit": false,
      "t": 147614.58333333346,
      "d": 57.29166666668607,
      "v": 105
    },
    {
      "midi": 65,
      "hit": false,
      "t": 147619.7916666668,
      "d": 57.29166666668607,
      "v": 105
    },
    {
      "midi": 61,
      "hit": false,
      "t": 147640.62500000038,
      "d": 57.29166666668607,
      "v": 105
    },
    {
      "midi": 65,
      "hit": false,
      "t": 147645.83333333372,
      "d": 57.29166666668607,
      "v": 105
    },
    {
      "midi": 48,
      "hit": false,
      "t": 147776.04166666683,
      "d": 88.54166666665697,
      "v": 82
    },
    {
      "midi": 60,
      "hit": false,
      "t": 147781.25000000035,
      "d": 223.95833333334303,
      "v": 90
    },
    {
      "midi": 48,
      "hit": false,
      "t": 147802.08333333375,
      "d": 88.54166666665697,
      "v": 65
    },
    {
      "midi": 61,
      "hit": false,
      "t": 147932.29166666683,
      "d": 57.29166666668607,
      "v": 105
    },
    {
      "midi": 65,
      "hit": false,
      "t": 147937.50000000017,
      "d": 57.29166666668607,
      "v": 105
    },
    {
      "midi": 61,
      "hit": false,
      "t": 147963.54166666706,
      "d": 57.291666666656965,
      "v": 105
    },
    {
      "midi": 65,
      "hit": false,
      "t": 147963.54166666706,
      "d": 57.291666666656965,
      "v": 105
    },
    {
      "midi": 46,
      "hit": false,
      "t": 148093.7500000002,
      "d": 119.79166666665697,
      "v": 82
    },
    {
      "midi": 58,
      "hit": false,
      "t": 148098.9583333337,
      "d": 307.29166666665697,
      "v": 90
    },
    {
      "midi": 46,
      "hit": false,
      "t": 148119.79166666706,
      "d": 119.79166666665697,
      "v": 65
    },
    {
      "midi": 61,
      "hit": false,
      "t": 148255.20833333352,
      "d": 57.291666666656965,
      "v": 105
    },
    {
      "midi": 65,
      "hit": false,
      "t": 148255.20833333352,
      "d": 57.291666666656965,
      "v": 105
    },
    {
      "midi": 61,
      "hit": false,
      "t": 148281.25000000038,
      "d": 57.291666666656965,
      "v": 105
    },
    {
      "midi": 65,
      "hit": false,
      "t": 148281.25000000038,
      "d": 57.291666666656965,
      "v": 105
    },
    {
      "midi": 73,
      "hit": false,
      "t": 148416.66666666648,
      "d": 145.83333333334303,
      "v": 83
    },
    {
      "midi": 77,
      "hit": false,
      "t": 148416.66666666648,
      "d": 145.83333333334303,
      "v": 83
    },
    {
      "midi": 53,
      "hit": false,
      "t": 148572.91666666683,
      "d": 88.54166666665697,
      "v": 82
    },
    {
      "midi": 65,
      "hit": false,
      "t": 148572.916666667,
      "d": 229.16666666665697,
      "v": 90
    },
    {
      "midi": 53,
      "hit": false,
      "t": 148598.9583333337,
      "d": 88.54166666665697,
      "v": 65
    },
    {
      "midi": 61,
      "hit": false,
      "t": 148734.37500000015,
      "d": 145.83333333334303,
      "v": 105
    },
    {
      "midi": 65,
      "hit": false,
      "t": 148734.37500000015,
      "d": 145.83333333334303,
      "v": 105
    },
    {
      "midi": 77,
      "hit": false,
      "t": 148739.58333333317,
      "d": 140.625,
      "v": 83
    },
    {
      "midi": 73,
      "hit": false,
      "t": 148739.58333333317,
      "d": 218.75,
      "v": 83
    },
    {
      "midi": 61,
      "hit": false,
      "t": 148755.2083333337,
      "d": 151.04166666668607,
      "v": 105
    },
    {
      "midi": 65,
      "hit": false,
      "t": 148760.41666666704,
      "d": 145.83333333334303,
      "v": 105
    },
    {
      "midi": 46,
      "hit": false,
      "t": 148890.62500000015,
      "d": 57.291666666656965,
      "v": 82
    },
    {
      "midi": 58,
      "hit": false,
      "t": 148890.62500000032,
      "d": 151.04166666665697,
      "v": 90
    },
    {
      "midi": 46,
      "hit": false,
      "t": 148916.66666666704,
      "d": 57.291666666656965,
      "v": 65
    },
    {
      "midi": 41,
      "hit": false,
      "t": 149052.08333333346,
      "d": 88.54166666665697,
      "v": 82
    },
    {
      "midi": 53,
      "hit": false,
      "t": 149052.08333333363,
      "d": 229.16666666665697,
      "v": 90
    },
    {
      "midi": 41,
      "hit": false,
      "t": 149072.91666666704,
      "d": 88.54166666665697,
      "v": 65
    },
    {
      "midi": 60,
      "hit": false,
      "t": 149208.33333333346,
      "d": 57.291666666656965,
      "v": 105
    },
    {
      "midi": 65,
      "hit": false,
      "t": 149208.33333333346,
      "d": 57.291666666656965,
      "v": 105
    },
    {
      "midi": 60,
      "hit": false,
      "t": 149234.37500000035,
      "d": 57.291666666656965,
      "v": 105
    },
    {
      "midi": 65,
      "hit": false,
      "t": 149234.37500000035,
      "d": 57.291666666656965,
      "v": 105
    },
    {
      "midi": 68,
      "hit": false,
      "t": 149369.7916666665,
      "d": 229.16666666668607,
      "v": 83
    },
    {
      "midi": 72,
      "hit": false,
      "t": 149374.99999999985,
      "d": 223.95833333334303,
      "v": 83
    },
    {
      "midi": 48,
      "hit": false,
      "t": 149526.04166666677,
      "d": 88.54166666665697,
      "v": 82
    },
    {
      "midi": 60,
      "hit": false,
      "t": 149526.04166666695,
      "d": 234.375,
      "v": 90
    },
    {
      "midi": 48,
      "hit": false,
      "t": 149552.08333333366,
      "d": 88.54166666665697,
      "v": 65
    },
    {
      "midi": 60,
      "hit": false,
      "t": 149687.5000000001,
      "d": 145.83333333334303,
      "v": 105
    },
    {
      "midi": 68,
      "hit": false,
      "t": 149692.7083333332,
      "d": 223.95833333334303,
      "v": 83
    },
    {
      "midi": 72,
      "hit": false,
      "t": 149692.7083333332,
      "d": 223.95833333334303,
      "v": 83
    },
    {
      "midi": 65,
      "hit": false,
      "t": 149692.70833333343,
      "d": 145.83333333334303,
      "v": 105
    },
    {
      "midi": 60,
      "hit": false,
      "t": 149713.54166666698,
      "d": 151.04166666665697,
      "v": 105
    },
    {
      "midi": 65,
      "hit": false,
      "t": 149713.54166666698,
      "d": 151.04166666665697,
      "v": 105
    },
    {
      "midi": 41,
      "hit": false,
      "t": 149843.75000000012,
      "d": 57.291666666656965,
      "v": 82
    },
    {
      "midi": 53,
      "hit": false,
      "t": 149848.9583333336,
      "d": 145.83333333334303,
      "v": 90
    },
    {
      "midi": 41,
      "hit": false,
      "t": 149869.79166666698,
      "d": 57.291666666656965,
      "v": 65
    },
    {
      "midi": 42,
      "hit": false,
      "t": 150005.20833333343,
      "d": 119.79166666665697,
      "v": 82
    },
    {
      "midi": 54,
      "hit": false,
      "t": 150010.41666666695,
      "d": 307.29166666665697,
      "v": 90
    },
    {
      "midi": 42,
      "hit": false,
      "t": 150031.2500000003,
      "d": 119.79166666665697,
      "v": 65
    },
    {
      "midi": 61,
      "hit": false,
      "t": 150161.45833333343,
      "d": 57.29166666668607,
      "v": 105
    },
    {
      "midi": 66,
      "hit": false,
      "t": 150166.66666666677,
      "d": 57.29166666668607,
      "v": 105
    },
    {
      "midi": 61,
      "hit": false,
      "t": 150187.5000000003,
      "d": 57.29166666668607,
      "v": 105
    },
    {
      "midi": 66,
      "hit": false,
      "t": 150192.70833333363,
      "d": 57.29166666668607,
      "v": 105
    },
    {
      "midi": 70,
      "hit": false,
      "t": 150328.12499999988,
      "d": 145.83333333334303,
      "v": 83
    },
    {
      "midi": 73,
      "hit": false,
      "t": 150328.12499999988,
      "d": 145.83333333334303,
      "v": 83
    },
    {
      "midi": 49,
      "hit": false,
      "t": 150484.37500000012,
      "d": 88.54166666665697,
      "v": 82
    },
    {
      "midi": 61,
      "hit": false,
      "t": 150484.37500000026,
      "d": 229.16666666665697,
      "v": 90
    },
    {
      "midi": 49,
      "hit": false,
      "t": 150510.41666666698,
      "d": 88.54166666665697,
      "v": 65
    },
    {
      "midi": 70,
      "hit": false,
      "t": 150645.83333333323,
      "d": 223.95833333334303,
      "v": 83
    },
    {
      "midi": 61,
      "hit": false,
      "t": 150645.83333333343,
      "d": 145.83333333334303,
      "v": 105
    },
    {
      "midi": 66,
      "hit": false,
      "t": 150645.83333333343,
      "d": 145.83333333334303,
      "v": 105
    },
    {
      "midi": 73,
      "hit": false,
      "t": 150651.04166666657,
      "d": 223.95833333334303,
      "v": 83
    },
    {
      "midi": 61,
      "hit": false,
      "t": 150666.66666666698,
      "d": 151.04166666668607,
      "v": 105
    },
    {
      "midi": 66,
      "hit": false,
      "t": 150671.87500000032,
      "d": 145.83333333334303,
      "v": 105
    },
    {
      "midi": 54,
      "hit": false,
      "t": 150802.08333333343,
      "d": 57.291666666656965,
      "v": 82
    },
    {
      "midi": 66,
      "hit": false,
      "t": 150802.08333333358,
      "d": 151.04166666665697,
      "v": 90
    },
    {
      "midi": 54,
      "hit": false,
      "t": 150828.12500000032,
      "d": 57.291666666656965,
      "v": 65
    },
    {
      "midi": 53,
      "hit": false,
      "t": 150963.54166666674,
      "d": 88.54166666665697,
      "v": 82
    },
    {
      "midi": 65,
      "hit": false,
      "t": 150968.75000000023,
      "d": 223.95833333334303,
      "v": 90
    },
    {
      "midi": 53,
      "hit": false,
      "t": 150984.37500000032,
      "d": 88.54166666665697,
      "v": 65
    },
    {
      "midi": 61,
      "hit": false,
      "t": 151119.79166666674,
      "d": 57.291666666656965,
      "v": 105
    },
    {
      "midi": 65,
      "hit": false,
      "t": 151119.79166666674,
      "d": 57.291666666656965,
      "v": 105
    },
    {
      "midi": 61,
      "hit": false,
      "t": 151145.83333333363,
      "d": 57.291666666656965,
      "v": 105
    },
    {
      "midi": 65,
      "hit": false,
      "t": 151145.83333333363,
      "d": 57.291666666656965,
      "v": 105
    },
    {
      "midi": 51,
      "hit": false,
      "t": 151281.25000000006,
      "d": 88.54166666665697,
      "v": 82
    },
    {
      "midi": 63,
      "hit": false,
      "t": 151281.25000000023,
      "d": 229.16666666665697,
      "v": 90
    },
    {
      "midi": 65,
      "hit": false,
      "t": 151286.45833333326,
      "d": 140.625,
      "v": 83
    },
    {
      "midi": 68,
      "hit": false,
      "t": 151286.45833333326,
      "d": 145.83333333334303,
      "v": 83
    },
    {
      "midi": 51,
      "hit": false,
      "t": 151302.08333333363,
      "d": 88.54166666665697,
      "v": 65
    },
    {
      "midi": 61,
      "hit": false,
      "t": 151437.50000000006,
      "d": 57.291666666656965,
      "v": 105
    },
    {
      "midi": 65,
      "hit": false,
      "t": 151437.50000000006,
      "d": 57.291666666656965,
      "v": 105
    },
    {
      "midi": 61,
      "hit": false,
      "t": 151463.54166666695,
      "d": 57.291666666656965,
      "v": 105
    },
    {
      "midi": 65,
      "hit": false,
      "t": 151463.54166666695,
      "d": 57.291666666656965,
      "v": 105
    },
    {
      "midi": 49,
      "hit": false,
      "t": 151598.95833333337,
      "d": 88.54166666665697,
      "v": 82
    },
    {
      "midi": 61,
      "hit": false,
      "t": 151598.95833333355,
      "d": 229.16666666665697,
      "v": 90
    },
    {
      "midi": 68,
      "hit": false,
      "t": 151604.1666666666,
      "d": 140.625,
      "v": 83
    },
    {
      "midi": 65,
      "hit": false,
      "t": 151604.1666666666,
      "d": 223.95833333334303,
      "v": 83
    },
    {
      "midi": 49,
      "hit": false,
      "t": 151625.00000000026,
      "d": 88.54166666665697,
      "v": 65
    },
    {
      "midi": 61,
      "hit": false,
      "t": 151755.20833333337,
      "d": 57.29166666668607,
      "v": 105
    },
    {
      "midi": 65,
      "hit": false,
      "t": 151760.41666666672,
      "d": 57.29166666668607,
      "v": 105
    },
    {
      "midi": 61,
      "hit": false,
      "t": 151781.25000000026,
      "d": 57.29166666668607,
      "v": 105
    },
    {
      "midi": 65,
      "hit": false,
      "t": 151786.4583333336,
      "d": 57.29166666668607,
      "v": 105
    },
    {
      "midi": 48,
      "hit": false,
      "t": 151916.66666666674,
      "d": 88.54166666665697,
      "v": 82
    },
    {
      "midi": 60,
      "hit": false,
      "t": 151921.8750000002,
      "d": 223.95833333334303,
      "v": 90
    },
    {
      "midi": 48,
      "hit": false,
      "t": 151942.70833333363,
      "d": 88.54166666665697,
      "v": 65
    },
    {
      "midi": 61,
      "hit": false,
      "t": 152072.91666666674,
      "d": 57.29166666668607,
      "v": 105
    },
    {
      "midi": 65,
      "hit": false,
      "t": 152078.1250000001,
      "d": 57.29166666668607,
      "v": 105
    },
    {
      "midi": 61,
      "hit": false,
      "t": 152104.16666666695,
      "d": 57.291666666656965,
      "v": 105
    },
    {
      "midi": 65,
      "hit": false,
      "t": 152104.16666666695,
      "d": 57.291666666656965,
      "v": 105
    },
    {
      "midi": 46,
      "hit": false,
      "t": 152234.37500000012,
      "d": 119.79166666665697,
      "v": 82
    },
    {
      "midi": 58,
      "hit": false,
      "t": 152239.58333333355,
      "d": 307.29166666665697,
      "v": 90
    },
    {
      "midi": 46,
      "hit": false,
      "t": 152260.41666666695,
      "d": 119.79166666665697,
      "v": 65
    },
    {
      "midi": 61,
      "hit": false,
      "t": 152390.62500000012,
      "d": 57.29166666668607,
      "v": 105
    },
    {
      "midi": 65,
      "hit": false,
      "t": 152395.83333333346,
      "d": 57.29166666668607,
      "v": 105
    },
    {
      "midi": 61,
      "hit": false,
      "t": 152421.87500000026,
      "d": 57.291666666656965,
      "v": 105
    },
    {
      "midi": 65,
      "hit": false,
      "t": 152421.87500000026,
      "d": 57.291666666656965,
      "v": 105
    },
    {
      "midi": 73,
      "hit": false,
      "t": 152562.49999999994,
      "d": 140.625,
      "v": 83
    },
    {
      "midi": 77,
      "hit": false,
      "t": 152562.49999999994,
      "d": 140.625,
      "v": 83
    },
    {
      "midi": 53,
      "hit": false,
      "t": 152713.5416666668,
      "d": 88.54166666665697,
      "v": 82
    },
    {
      "midi": 65,
      "hit": false,
      "t": 152713.54166666686,
      "d": 229.16666666665697,
      "v": 90
    },
    {
      "midi": 53,
      "hit": false,
      "t": 152739.58333333358,
      "d": 88.54166666665697,
      "v": 65
    },
    {
      "midi": 61,
      "hit": false,
      "t": 152875.00000000012,
      "d": 145.83333333334303,
      "v": 105
    },
    {
      "midi": 65,
      "hit": false,
      "t": 152875.00000000012,
      "d": 145.83333333334303,
      "v": 105
    },
    {
      "midi": 73,
      "hit": false,
      "t": 152880.20833333328,
      "d": 140.625,
      "v": 83
    },
    {
      "midi": 77,
      "hit": false,
      "t": 152880.20833333328,
      "d": 140.625,
      "v": 83
    },
    {
      "midi": 61,
      "hit": false,
      "t": 152895.83333333358,
      "d": 151.04166666668607,
      "v": 105
    },
    {
      "midi": 65,
      "hit": false,
      "t": 152901.04166666692,
      "d": 145.83333333334303,
      "v": 105
    },
    {
      "midi": 46,
      "hit": false,
      "t": 153031.25000000012,
      "d": 57.291666666656965,
      "v": 82
    },
    {
      "midi": 58,
      "hit": false,
      "t": 153031.25000000017,
      "d": 151.04166666665697,
      "v": 90
    },
    {
      "midi": 46,
      "hit": false,
      "t": 153057.29166666692,
      "d": 57.291666666656965,
      "v": 65
    },
    {
      "midi": 41,
      "hit": false,
      "t": 153192.70833333343,
      "d": 119.79166666665697,
      "v": 82
    },
    {
      "midi": 53,
      "hit": false,
      "t": 153192.7083333335,
      "d": 307.29166666665697,
      "v": 90
    },
    {
      "midi": 41,
      "hit": false,
      "t": 153213.54166666692,
      "d": 119.79166666665697,
      "v": 65
    },
    {
      "midi": 60,
      "hit": false,
      "t": 153348.95833333343,
      "d": 57.291666666656965,
      "v": 105
    },
    {
      "midi": 65,
      "hit": false,
      "t": 153348.95833333343,
      "d": 57.291666666656965,
      "v": 105
    },
    {
      "midi": 60,
      "hit": false,
      "t": 153375.00000000023,
      "d": 57.29166666668607,
      "v": 105
    },
    {
      "midi": 65,
      "hit": false,
      "t": 153380.20833333358,
      "d": 57.29166666668607,
      "v": 105
    },
    {
      "midi": 68,
      "hit": false,
      "t": 153510.41666666663,
      "d": 145.83333333334303,
      "v": 83
    },
    {
      "midi": 72,
      "hit": false,
      "t": 153515.62499999997,
      "d": 145.83333333334303,
      "v": 83
    },
    {
      "midi": 48,
      "hit": false,
      "t": 153666.66666666674,
      "d": 88.54166666665697,
      "v": 82
    },
    {
      "midi": 60,
      "hit": false,
      "t": 153666.6666666668,
      "d": 234.375,
      "v": 90
    },
    {
      "midi": 48,
      "hit": false,
      "t": 153692.7083333336,
      "d": 88.54166666665697,
      "v": 65
    },
    {
      "midi": 60,
      "hit": false,
      "t": 153828.12500000006,
      "d": 145.83333333334303,
      "v": 105
    },
    {
      "midi": 68,
      "hit": false,
      "t": 153833.3333333333,
      "d": 223.95833333334303,
      "v": 83
    },
    {
      "midi": 72,
      "hit": false,
      "t": 153833.3333333333,
      "d": 223.95833333334303,
      "v": 83
    },
    {
      "midi": 65,
      "hit": false,
      "t": 153833.3333333334,
      "d": 145.83333333334303,
      "v": 105
    },
    {
      "midi": 60,
      "hit": false,
      "t": 153854.16666666692,
      "d": 151.04166666665697,
      "v": 105
    },
    {
      "midi": 65,
      "hit": false,
      "t": 153854.16666666692,
      "d": 151.04166666665697,
      "v": 105
    },
    {
      "midi": 41,
      "hit": false,
      "t": 153984.3750000001,
      "d": 57.291666666656965,
      "v": 82
    },
    {
      "midi": 53,
      "hit": false,
      "t": 153989.58333333346,
      "d": 145.83333333334303,
      "v": 90
    },
    {
      "midi": 41,
      "hit": false,
      "t": 154010.41666666692,
      "d": 57.291666666656965,
      "v": 65
    },
    {
      "midi": 44,
      "hit": false,
      "t": 154145.8333333334,
      "d": 119.79166666665697,
      "v": 82
    },
    {
      "midi": 56,
      "hit": false,
      "t": 154151.0416666668,
      "d": 307.29166666665697,
      "v": 90
    },
    {
      "midi": 44,
      "hit": false,
      "t": 154171.87500000023,
      "d": 119.79166666665697,
      "v": 65
    },
    {
      "midi": 60,
      "hit": false,
      "t": 154302.0833333334,
      "d": 57.29166666668607,
      "v": 105
    },
    {
      "midi": 63,
      "hit": false,
      "t": 154307.29166666674,
      "d": 57.29166666668607,
      "v": 105
    },
    {
      "midi": 60,
      "hit": false,
      "t": 154333.33333333355,
      "d": 57.291666666656965,
      "v": 105
    },
    {
      "midi": 63,
      "hit": false,
      "t": 154333.33333333355,
      "d": 57.291666666656965,
      "v": 105
    },
    {
      "midi": 72,
      "hit": false,
      "t": 154468.75,
      "d": 145.83333333334303,
      "v": 83
    },
    {
      "midi": 75,
      "hit": false,
      "t": 154468.75,
      "d": 145.83333333334303,
      "v": 83
    },
    {
      "midi": 51,
      "hit": false,
      "t": 154625.0000000001,
      "d": 88.54166666665697,
      "v": 82
    },
    {
      "midi": 63,
      "hit": false,
      "t": 154625.00000000012,
      "d": 229.16666666665697,
      "v": 90
    },
    {
      "midi": 51,
      "hit": false,
      "t": 154651.04166666686,
      "d": 88.54166666665697,
      "v": 65
    },
    {
      "midi": 60,
      "hit": false,
      "t": 154786.4583333334,
      "d": 145.83333333334303,
      "v": 105
    },
    {
      "midi": 63,
      "hit": false,
      "t": 154786.4583333334,
      "d": 145.83333333334303,
      "v": 105
    },
    {
      "midi": 75,
      "hit": false,
      "t": 154791.6666666667,
      "d": 140.625,
      "v": 83
    },
    {
      "midi": 72,
      "hit": false,
      "t": 154791.6666666667,
      "d": 218.75,
      "v": 83
    },
    {
      "midi": 60,
      "hit": false,
      "t": 154807.29166666686,
      "d": 151.04166666668607,
      "v": 105
    },
    {
      "midi": 63,
      "hit": false,
      "t": 154812.5000000002,
      "d": 145.83333333334303,
      "v": 105
    },
    {
      "midi": 44,
      "hit": false,
      "t": 154942.7083333334,
      "d": 57.291666666656965,
      "v": 82
    },
    {
      "midi": 56,
      "hit": false,
      "t": 154942.70833333343,
      "d": 151.04166666665697,
      "v": 90
    },
    {
      "midi": 44,
      "hit": false,
      "t": 154968.7500000002,
      "d": 57.291666666656965,
      "v": 65
    },
    {
      "midi": 42,
      "hit": false,
      "t": 155104.16666666672,
      "d": 88.54166666665697,
      "v": 82
    },
    {
      "midi": 54,
      "hit": false,
      "t": 155104.16666666674,
      "d": 229.16666666665697,
      "v": 90
    },
    {
      "midi": 42,
      "hit": false,
      "t": 155125.0000000002,
      "d": 88.54166666665697,
      "v": 65
    },
    {
      "midi": 58,
      "hit": false,
      "t": 155260.41666666672,
      "d": 57.291666666656965,
      "v": 105
    },
    {
      "midi": 61,
      "hit": false,
      "t": 155260.41666666672,
      "d": 57.291666666656965,
      "v": 105
    },
    {
      "midi": 58,
      "hit": false,
      "t": 155286.45833333352,
      "d": 57.291666666656965,
      "v": 105
    },
    {
      "midi": 61,
      "hit": false,
      "t": 155286.45833333352,
      "d": 57.291666666656965,
      "v": 105
    },
    {
      "midi": 41,
      "hit": false,
      "t": 155421.87500000003,
      "d": 88.54166666665697,
      "v": 82
    },
    {
      "midi": 70,
      "hit": false,
      "t": 155427.08333333334,
      "d": 62.5,
      "v": 83
    },
    {
      "midi": 73,
      "hit": false,
      "t": 155427.08333333334,
      "d": 140.625,
      "v": 83
    },
    {
      "midi": 53,
      "hit": false,
      "t": 155427.0833333334,
      "d": 223.95833333334303,
      "v": 90
    },
    {
      "midi": 41,
      "hit": false,
      "t": 155447.91666666683,
      "d": 88.54166666665697,
      "v": 65
    },
    {
      "midi": 58,
      "hit": false,
      "t": 155578.12500000003,
      "d": 57.291666666656965,
      "v": 105
    },
    {
      "midi": 61,
      "hit": false,
      "t": 155578.12500000003,
      "d": 57.291666666656965,
      "v": 105
    },
    {
      "midi": 58,
      "hit": false,
      "t": 155604.16666666683,
      "d": 57.29166666668607,
      "v": 105
    },
    {
      "midi": 61,
      "hit": false,
      "t": 155609.37500000017,
      "d": 57.29166666668607,
      "v": 105
    },
    {
      "midi": 39,
      "hit": false,
      "t": 155739.58333333334,
      "d": 88.54166666665697,
      "v": 82
    },
    {
      "midi": 51,
      "hit": false,
      "t": 155739.5833333334,
      "d": 229.16666666665697,
      "v": 90
    },
    {
      "midi": 70,
      "hit": false,
      "t": 155744.7916666667,
      "d": 145.83333333334303,
      "v": 83
    },
    {
      "midi": 73,
      "hit": false,
      "t": 155744.7916666667,
      "d": 145.83333333334303,
      "v": 83
    },
    {
      "midi": 39,
      "hit": false,
      "t": 155765.6250000002,
      "d": 88.54166666665697,
      "v": 65
    },
    {
      "midi": 58,
      "hit": false,
      "t": 155895.83333333334,
      "d": 57.29166666668607,
      "v": 105
    },
    {
      "midi": 61,
      "hit": false,
      "t": 155901.0416666667,
      "d": 57.29166666668607,
      "v": 105
    },
    {
      "midi": 58,
      "hit": false,
      "t": 155921.8750000002,
      "d": 57.29166666668607,
      "v": 105
    },
    {
      "midi": 61,
      "hit": false,
      "t": 155927.08333333355,
      "d": 57.29166666668607,
      "v": 105
    },
    {
      "midi": 37,
      "hit": false,
      "t": 156057.29166666672,
      "d": 88.54166666665697,
      "v": 82
    },
    {
      "midi": 49,
      "hit": false,
      "t": 156062.50000000006,
      "d": 223.95833333334303,
      "v": 90
    },
    {
      "midi": 37,
      "hit": false,
      "t": 156083.33333333358,
      "d": 88.54166666665697,
      "v": 65
    },
    {
      "midi": 58,
      "hit": false,
      "t": 156213.54166666672,
      "d": 57.29166666668607,
      "v": 105
    },
    {
      "midi": 61,
      "hit": false,
      "t": 156218.75000000006,
      "d": 57.29166666668607,
      "v": 105
    },
    {
      "midi": 58,
      "hit": false,
      "t": 156239.58333333358,
      "d": 57.29166666668607,
      "v": 105
    },
    {
      "midi": 61,
      "hit": false,
      "t": 156244.79166666692,
      "d": 57.29166666668607,
      "v": 105
    },
    {
      "midi": 39,
      "hit": false,
      "t": 156375.0000000001,
      "d": 119.79166666665697,
      "v": 82
    },
    {
      "midi": 51,
      "hit": false,
      "t": 156380.2083333334,
      "d": 307.29166666665697,
      "v": 90
    },
    {
      "midi": 39,
      "hit": false,
      "t": 156401.04166666695,
      "d": 119.79166666665697,
      "v": 65
    },
    {
      "midi": 54,
      "hit": false,
      "t": 156531.2500000001,
      "d": 57.29166666668607,
      "v": 105
    },
    {
      "midi": 58,
      "hit": false,
      "t": 156536.45833333343,
      "d": 57.29166666668607,
      "v": 105
    },
    {
      "midi": 54,
      "hit": false,
      "t": 156562.50000000026,
      "d": 57.291666666656965,
      "v": 105
    },
    {
      "midi": 58,
      "hit": false,
      "t": 156562.50000000026,
      "d": 57.291666666656965,
      "v": 105
    },
    {
      "midi": 78,
      "hit": false,
      "t": 156697.9166666667,
      "d": 145.83333333334303,
      "v": 83
    },
    {
      "midi": 82,
      "hit": false,
      "t": 156697.9166666667,
      "d": 145.83333333334303,
      "v": 83
    },
    {
      "midi": 54,
      "hit": false,
      "t": 156854.16666666672,
      "d": 546.875,
      "v": 90
    },
    {
      "midi": 42,
      "hit": false,
      "t": 156854.16666666677,
      "d": 88.54166666665697,
      "v": 82
    },
    {
      "midi": 42,
      "hit": false,
      "t": 156880.20833333358,
      "d": 88.54166666665697,
      "v": 65
    },
    {
      "midi": 54,
      "hit": false,
      "t": 157015.6250000001,
      "d": 145.83333333334303,
      "v": 105
    },
    {
      "midi": 58,
      "hit": false,
      "t": 157015.6250000001,
      "d": 145.83333333334303,
      "v": 105
    },
    {
      "midi": 78,
      "hit": false,
      "t": 157020.83333333337,
      "d": 140.625,
      "v": 83
    },
    {
      "midi": 82,
      "hit": false,
      "t": 157020.83333333337,
      "d": 140.625,
      "v": 83
    },
    {
      "midi": 54,
      "hit": false,
      "t": 157036.45833333358,
      "d": 151.04166666668607,
      "v": 105
    },
    {
      "midi": 58,
      "hit": false,
      "t": 157041.66666666692,
      "d": 145.83333333334303,
      "v": 105
    },
    {
      "midi": 58,
      "hit": false,
      "t": 157171.87500000006,
      "d": 151.04166666665697,
      "v": 90
    },
    {
      "midi": 46,
      "hit": false,
      "t": 157171.8750000001,
      "d": 57.291666666656965,
      "v": 82
    },
    {
      "midi": 46,
      "hit": false,
      "t": 157197.91666666692,
      "d": 57.291666666656965,
      "v": 65
    },
    {
      "midi": 56,
      "hit": false,
      "t": 157333.33333333337,
      "d": 307.29166666668607,
      "v": 90
    },
    {
      "midi": 44,
      "hit": false,
      "t": 157333.3333333334,
      "d": 119.79166666665697,
      "v": 82
    },
    {
      "midi": 44,
      "hit": false,
      "t": 157354.16666666692,
      "d": 119.79166666665697,
      "v": 65
    },
    {
      "midi": 41,
      "hit": false,
      "t": 157651.04166666672,
      "d": 119.79166666665697,
      "v": 82
    },
    {
      "midi": 53,
      "hit": false,
      "t": 157656.25000000006,
      "d": 57.291666666656965,
      "v": 105
    },
    {
      "midi": 56,
      "hit": false,
      "t": 157656.25000000006,
      "d": 57.291666666656965,
      "v": 105
    },
    {
      "midi": 53,
      "hit": false,
      "t": 157656.25000000006,
      "d": 302.08333333334303,
      "v": 90
    },
    {
      "midi": 77,
      "hit": false,
      "t": 157661.45833333337,
      "d": 140.625,
      "v": 83
    },
    {
      "midi": 80,
      "hit": false,
      "t": 157661.45833333337,
      "d": 140.625,
      "v": 83
    },
    {
      "midi": 53,
      "hit": false,
      "t": 157677.08333333358,
      "d": 57.291666666656965,
      "v": 105
    },
    {
      "midi": 56,
      "hit": false,
      "t": 157677.08333333358,
      "d": 57.291666666656965,
      "v": 105
    },
    {
      "midi": 41,
      "hit": false,
      "t": 157677.08333333358,
      "d": 119.79166666665697,
      "v": 65
    },
    {
      "midi": 37,
      "hit": false,
      "t": 157968.75000000003,
      "d": 119.79166666668607,
      "v": 82
    },
    {
      "midi": 53,
      "hit": false,
      "t": 157973.95833333337,
      "d": 119.79166666668607,
      "v": 105
    },
    {
      "midi": 56,
      "hit": false,
      "t": 157973.95833333337,
      "d": 119.79166666668607,
      "v": 105
    },
    {
      "midi": 49,
      "hit": false,
      "t": 157973.9583333334,
      "d": 302.08333333334303,
      "v": 90
    },
    {
      "midi": 77,
      "hit": false,
      "t": 157979.16666666672,
      "d": 140.625,
      "v": 83
    },
    {
      "midi": 80,
      "hit": false,
      "t": 157979.16666666672,
      "d": 140.625,
      "v": 83
    },
    {
      "midi": 37,
      "hit": false,
      "t": 157994.7916666669,
      "d": 119.79166666665697,
      "v": 65
    },
    {
      "midi": 53,
      "hit": false,
      "t": 157994.7916666669,
      "d": 119.79166666665697,
      "v": 105
    },
    {
      "midi": 56,
      "hit": false,
      "t": 157994.7916666669,
      "d": 119.79166666665697,
      "v": 105
    },
    {
      "midi": 39,
      "hit": false,
      "t": 158286.4583333334,
      "d": 119.79166666665697,
      "v": 82
    },
    {
      "midi": 51,
      "hit": false,
      "t": 158291.66666666674,
      "d": 302.08333333334303,
      "v": 90
    },
    {
      "midi": 39,
      "hit": false,
      "t": 158312.5000000002,
      "d": 119.79166666665697,
      "v": 65
    },
    {
      "midi": 54,
      "hit": false,
      "t": 158442.7083333334,
      "d": 57.29166666668607,
      "v": 105
    },
    {
      "midi": 58,
      "hit": false,
      "t": 158447.91666666674,
      "d": 57.29166666668607,
      "v": 105
    },
    {
      "midi": 54,
      "hit": false,
      "t": 158468.7500000002,
      "d": 57.29166666668607,
      "v": 105
    },
    {
      "midi": 58,
      "hit": false,
      "t": 158473.95833333355,
      "d": 57.29166666668607,
      "v": 105
    },
    {
      "midi": 78,
      "hit": false,
      "t": 158609.37500000006,
      "d": 145.83333333334303,
      "v": 83
    },
    {
      "midi": 82,
      "hit": false,
      "t": 158609.37500000006,
      "d": 145.83333333334303,
      "v": 83
    },
    {
      "midi": 42,
      "hit": false,
      "t": 158765.6250000001,
      "d": 119.79166666665697,
      "v": 82
    },
    {
      "midi": 54,
      "hit": false,
      "t": 158765.6250000001,
      "d": 546.875,
      "v": 90
    },
    {
      "midi": 42,
      "hit": false,
      "t": 158791.6666666669,
      "d": 119.79166666665697,
      "v": 65
    },
    {
      "midi": 54,
      "hit": false,
      "t": 158927.0833333334,
      "d": 145.83333333334303,
      "v": 105
    },
    {
      "midi": 58,
      "hit": false,
      "t": 158927.0833333334,
      "d": 145.83333333334303,
      "v": 105
    },
    {
      "midi": 78,
      "hit": false,
      "t": 158932.29166666674,
      "d": 140.625,
      "v": 83
    },
    {
      "midi": 82,
      "hit": false,
      "t": 158932.29166666674,
      "d": 145.83333333334303,
      "v": 83
    },
    {
      "midi": 54,
      "hit": false,
      "t": 158947.9166666669,
      "d": 151.04166666668607,
      "v": 105
    },
    {
      "midi": 58,
      "hit": false,
      "t": 158953.12500000023,
      "d": 145.83333333334303,
      "v": 105
    },
    {
      "midi": 46,
      "hit": false,
      "t": 159083.3333333334,
      "d": 57.291666666656965,
      "v": 82
    },
    {
      "midi": 58,
      "hit": false,
      "t": 159083.33333333343,
      "d": 151.04166666665697,
      "v": 90
    },
    {
      "midi": 46,
      "hit": false,
      "t": 159109.37500000023,
      "d": 57.291666666656965,
      "v": 65
    },
    {
      "midi": 44,
      "hit": false,
      "t": 159244.79166666672,
      "d": 119.79166666665697,
      "v": 82
    },
    {
      "midi": 56,
      "hit": false,
      "t": 159244.79166666674,
      "d": 307.29166666668607,
      "v": 90
    },
    {
      "midi": 44,
      "hit": false,
      "t": 159265.62500000023,
      "d": 119.79166666665697,
      "v": 67
    },
    {
      "midi": 41,
      "hit": false,
      "t": 159562.50000000003,
      "d": 119.79166666665697,
      "v": 82
    },
    {
      "midi": 53,
      "hit": false,
      "t": 159562.5000000001,
      "d": 307.29166666665697,
      "v": 90
    },
    {
      "midi": 53,
      "hit": false,
      "t": 159567.70833333337,
      "d": 57.291666666656965,
      "v": 105
    },
    {
      "midi": 56,
      "hit": false,
      "t": 159567.70833333337,
      "d": 57.291666666656965,
      "v": 105
    },
    {
      "midi": 77,
      "hit": false,
      "t": 159572.91666666674,
      "d": 140.625,
      "v": 83
    },
    {
      "midi": 80,
      "hit": false,
      "t": 159572.91666666674,
      "d": 140.625,
      "v": 83
    },
    {
      "midi": 53,
      "hit": false,
      "t": 159588.5416666669,
      "d": 57.291666666656965,
      "v": 105
    },
    {
      "midi": 56,
      "hit": false,
      "t": 159588.5416666669,
      "d": 57.291666666656965,
      "v": 105
    },
    {
      "midi": 41,
      "hit": false,
      "t": 159588.5416666669,
      "d": 119.79166666665697,
      "v": 65
    },
    {
      "midi": 37,
      "hit": false,
      "t": 159880.20833333334,
      "d": 119.79166666668607,
      "v": 82
    },
    {
      "midi": 53,
      "hit": false,
      "t": 159885.4166666667,
      "d": 114.58333333334303,
      "v": 105
    },
    {
      "midi": 56,
      "hit": false,
      "t": 159885.4166666667,
      "d": 119.79166666668607,
      "v": 105
    },
    {
      "midi": 49,
      "hit": false,
      "t": 159885.41666666674,
      "d": 302.08333333334303,
      "v": 90
    },
    {
      "midi": 80,
      "hit": false,
      "t": 159890.6250000001,
      "d": 140.625,
      "v": 83
    },
    {
      "midi": 77,
      "hit": false,
      "t": 159890.6250000001,
      "d": 218.75,
      "v": 83
    },
    {
      "midi": 37,
      "hit": false,
      "t": 159906.2500000002,
      "d": 119.79166666665697,
      "v": 65
    },
    {
      "midi": 53,
      "hit": false,
      "t": 159906.2500000002,
      "d": 119.79166666665697,
      "v": 105
    },
    {
      "midi": 56,
      "hit": false,
      "t": 159906.2500000002,
      "d": 119.79166666665697,
      "v": 105
    },
    {
      "midi": 39,
      "hit": false,
      "t": 160197.91666666672,
      "d": 119.79166666665697,
      "v": 82
    },
    {
      "midi": 51,
      "hit": false,
      "t": 160203.1250000001,
      "d": 302.08333333334303,
      "v": 90
    },
    {
      "midi": 39,
      "hit": false,
      "t": 160223.95833333352,
      "d": 119.79166666665697,
      "v": 65
    },
    {
      "midi": 54,
      "hit": false,
      "t": 160354.16666666672,
      "d": 57.29166666668607,
      "v": 105
    },
    {
      "midi": 58,
      "hit": false,
      "t": 160359.37500000006,
      "d": 57.29166666668607,
      "v": 105
    },
    {
      "midi": 54,
      "hit": false,
      "t": 160380.20833333352,
      "d": 57.29166666668607,
      "v": 105
    },
    {
      "midi": 58,
      "hit": false,
      "t": 160385.41666666686,
      "d": 57.29166666668607,
      "v": 105
    },
    {
      "midi": 78,
      "hit": false,
      "t": 160520.83333333343,
      "d": 145.83333333334303,
      "v": 83
    },
    {
      "midi": 82,
      "hit": false,
      "t": 160520.83333333343,
      "d": 145.83333333334303,
      "v": 83
    },
    {
      "midi": 42,
      "hit": false,
      "t": 160671.8750000001,
      "d": 119.79166666665697,
      "v": 82
    },
    {
      "midi": 54,
      "hit": false,
      "t": 160677.08333333343,
      "d": 546.875,
      "v": 90
    },
    {
      "midi": 42,
      "hit": false,
      "t": 160703.1250000002,
      "d": 119.79166666665697,
      "v": 65
    },
    {
      "midi": 54,
      "hit": false,
      "t": 160838.54166666674,
      "d": 145.83333333334303,
      "v": 105
    },
    {
      "midi": 58,
      "hit": false,
      "t": 160838.54166666674,
      "d": 145.83333333334303,
      "v": 105
    },
    {
      "midi": 78,
      "hit": false,
      "t": 160843.75000000012,
      "d": 140.625,
      "v": 83
    },
    {
      "midi": 82,
      "hit": false,
      "t": 160843.75000000012,
      "d": 140.625,
      "v": 83
    },
    {
      "midi": 54,
      "hit": false,
      "t": 160859.3750000002,
      "d": 151.04166666668607,
      "v": 105
    },
    {
      "midi": 58,
      "hit": false,
      "t": 160864.58333333355,
      "d": 145.83333333334303,
      "v": 105
    },
    {
      "midi": 46,
      "hit": false,
      "t": 160994.79166666674,
      "d": 57.291666666656965,
      "v": 82
    },
    {
      "midi": 58,
      "hit": false,
      "t": 160994.79166666677,
      "d": 151.04166666665697,
      "v": 90
    },
    {
      "midi": 46,
      "hit": false,
      "t": 161020.83333333355,
      "d": 57.291666666656965,
      "v": 65
    },
    {
      "midi": 44,
      "hit": false,
      "t": 161156.25000000006,
      "d": 119.79166666665697,
      "v": 82
    },
    {
      "midi": 56,
      "hit": false,
      "t": 161161.45833333343,
      "d": 302.08333333334303,
      "v": 90
    },
    {
      "midi": 44,
      "hit": false,
      "t": 161177.08333333355,
      "d": 119.79166666665697,
      "v": 65
    },
    {
      "midi": 41,
      "hit": false,
      "t": 161473.95833333337,
      "d": 119.79166666665697,
      "v": 82
    },
    {
      "midi": 53,
      "hit": false,
      "t": 161479.16666666672,
      "d": 57.291666666656965,
      "v": 105
    },
    {
      "midi": 56,
      "hit": false,
      "t": 161479.16666666672,
      "d": 57.291666666656965,
      "v": 105
    },
    {
      "midi": 53,
      "hit": false,
      "t": 161479.16666666677,
      "d": 302.08333333334303,
      "v": 90
    },
    {
      "midi": 77,
      "hit": false,
      "t": 161484.37500000012,
      "d": 140.625,
      "v": 83
    },
    {
      "midi": 80,
      "hit": false,
      "t": 161484.37500000012,
      "d": 140.625,
      "v": 83
    },
    {
      "midi": 41,
      "hit": false,
      "t": 161500.0000000002,
      "d": 119.79166666665697,
      "v": 65
    },
    {
      "midi": 53,
      "hit": false,
      "t": 161505.20833333355,
      "d": 57.291666666656965,
      "v": 105
    },
    {
      "midi": 56,
      "hit": false,
      "t": 161505.20833333355,
      "d": 57.291666666656965,
      "v": 105
    },
    {
      "midi": 37,
      "hit": false,
      "t": 161791.6666666667,
      "d": 119.79166666668607,
      "v": 82
    },
    {
      "midi": 53,
      "hit": false,
      "t": 161796.87500000003,
      "d": 145.83333333334303,
      "v": 105
    },
    {
      "midi": 56,
      "hit": false,
      "t": 161796.87500000003,
      "d": 145.83333333334303,
      "v": 105
    },
    {
      "midi": 49,
      "hit": false,
      "t": 161796.87500000012,
      "d": 302.08333333334303,
      "v": 90
    },
    {
      "midi": 77,
      "hit": false,
      "t": 161802.08333333346,
      "d": 135.41666666665697,
      "v": 83
    },
    {
      "midi": 80,
      "hit": false,
      "t": 161802.08333333346,
      "d": 140.625,
      "v": 83
    },
    {
      "midi": 37,
      "hit": false,
      "t": 161817.70833333352,
      "d": 119.79166666665697,
      "v": 65
    },
    {
      "midi": 53,
      "hit": false,
      "t": 161817.70833333352,
      "d": 145.83333333331393,
      "v": 105
    },
    {
      "midi": 56,
      "hit": false,
      "t": 161817.70833333352,
      "d": 151.04166666665697,
      "v": 105
    },
    {
      "midi": 39,
      "hit": false,
      "t": 162109.37500000003,
      "d": 119.79166666665697,
      "v": 82
    },
    {
      "midi": 51,
      "hit": false,
      "t": 162114.58333333346,
      "d": 302.08333333334303,
      "v": 90
    },
    {
      "midi": 39,
      "hit": false,
      "t": 162135.41666666683,
      "d": 119.79166666665697,
      "v": 65
    },
    {
      "midi": 54,
      "hit": false,
      "t": 162270.83333333334,
      "d": 57.291666666656965,
      "v": 105
    },
    {
      "midi": 58,
      "hit": false,
      "t": 162270.83333333334,
      "d": 57.291666666656965,
      "v": 105
    },
    {
      "midi": 54,
      "hit": false,
      "t": 162291.66666666683,
      "d": 57.29166666668607,
      "v": 105
    },
    {
      "midi": 58,
      "hit": false,
      "t": 162296.87500000017,
      "d": 57.29166666668607,
      "v": 105
    },
    {
      "midi": 78,
      "hit": false,
      "t": 162432.2916666668,
      "d": 67.70833333334303,
      "v": 83
    },
    {
      "midi": 82,
      "hit": false,
      "t": 162432.2916666668,
      "d": 67.70833333334303,
      "v": 83
    },
    {
      "midi": 42,
      "hit": false,
      "t": 162588.54166666666,
      "d": 119.79166666665697,
      "v": 82
    },
    {
      "midi": 54,
      "hit": false,
      "t": 162588.5416666668,
      "d": 546.875,
      "v": 90
    },
    {
      "midi": 42,
      "hit": false,
      "t": 162614.58333333352,
      "d": 119.79166666665697,
      "v": 65
    },
    {
      "midi": 54,
      "hit": false,
      "t": 162755.2083333333,
      "d": 145.83333333334303,
      "v": 105
    },
    {
      "midi": 58,
      "hit": false,
      "t": 162755.2083333333,
      "d": 145.83333333334303,
      "v": 105
    },
    {
      "midi": 78,
      "hit": false,
      "t": 162760.4166666668,
      "d": 135.41666666665697,
      "v": 83
    },
    {
      "midi": 82,
      "hit": false,
      "t": 162760.4166666668,
      "d": 135.41666666665697,
      "v": 83
    },
    {
      "midi": 54,
      "hit": false,
      "t": 162770.83333333352,
      "d": 151.04166666668607,
      "v": 105
    },
    {
      "midi": 58,
      "hit": false,
      "t": 162776.04166666686,
      "d": 145.83333333334303,
      "v": 105
    },
    {
      "midi": 46,
      "hit": false,
      "t": 162906.25,
      "d": 57.291666666656965,
      "v": 82
    },
    {
      "midi": 58,
      "hit": false,
      "t": 162906.25000000015,
      "d": 151.04166666665697,
      "v": 90
    },
    {
      "midi": 46,
      "hit": false,
      "t": 162932.29166666686,
      "d": 57.291666666656965,
      "v": 65
    },
    {
      "midi": 44,
      "hit": false,
      "t": 163067.7083333333,
      "d": 119.79166666665697,
      "v": 82
    },
    {
      "midi": 56,
      "hit": false,
      "t": 163067.70833333346,
      "d": 307.29166666668607,
      "v": 90
    },
    {
      "midi": 44,
      "hit": false,
      "t": 163088.54166666686,
      "d": 119.79166666665697,
      "v": 65
    },
    {
      "midi": 41,
      "hit": false,
      "t": 163385.41666666663,
      "d": 119.79166666665697,
      "v": 82
    },
    {
      "midi": 53,
      "hit": false,
      "t": 163390.62499999997,
      "d": 57.291666666656965,
      "v": 105
    },
    {
      "midi": 56,
      "hit": false,
      "t": 163390.62499999997,
      "d": 57.291666666656965,
      "v": 105
    },
    {
      "midi": 53,
      "hit": false,
      "t": 163390.62500000015,
      "d": 302.08333333334303,
      "v": 90
    },
    {
      "midi": 77,
      "hit": false,
      "t": 163395.83333333346,
      "d": 140.625,
      "v": 83
    },
    {
      "midi": 80,
      "hit": false,
      "t": 163395.83333333346,
      "d": 140.625,
      "v": 83
    },
    {
      "midi": 53,
      "hit": false,
      "t": 163411.45833333352,
      "d": 57.291666666656965,
      "v": 105
    },
    {
      "midi": 56,
      "hit": false,
      "t": 163411.45833333352,
      "d": 57.291666666656965,
      "v": 105
    },
    {
      "midi": 41,
      "hit": false,
      "t": 163411.45833333352,
      "d": 119.79166666665697,
      "v": 65
    },
    {
      "midi": 37,
      "hit": false,
      "t": 163703.12499999994,
      "d": 119.79166666668607,
      "v": 82
    },
    {
      "midi": 53,
      "hit": false,
      "t": 163708.33333333328,
      "d": 145.83333333334303,
      "v": 105
    },
    {
      "midi": 56,
      "hit": false,
      "t": 163708.33333333328,
      "d": 145.83333333334303,
      "v": 105
    },
    {
      "midi": 49,
      "hit": false,
      "t": 163708.3333333335,
      "d": 302.08333333334303,
      "v": 90
    },
    {
      "midi": 77,
      "hit": false,
      "t": 163713.5416666668,
      "d": 135.41666666665697,
      "v": 83
    },
    {
      "midi": 80,
      "hit": false,
      "t": 163713.5416666668,
      "d": 140.625,
      "v": 83
    },
    {
      "midi": 37,
      "hit": false,
      "t": 163729.16666666683,
      "d": 119.79166666665697,
      "v": 65
    },
    {
      "midi": 53,
      "hit": false,
      "t": 163729.16666666683,
      "d": 145.83333333331393,
      "v": 105
    },
    {
      "midi": 56,
      "hit": false,
      "t": 163729.16666666683,
      "d": 151.04166666665697,
      "v": 105
    },
    {
      "midi": 39,
      "hit": false,
      "t": 164026.04166666663,
      "d": 114.58333333334303,
      "v": 82
    },
    {
      "midi": 51,
      "hit": false,
      "t": 164026.04166666683,
      "d": 302.08333333334303,
      "v": 90
    },
    {
      "midi": 39,
      "hit": false,
      "t": 164046.87500000015,
      "d": 119.79166666665697,
      "v": 65
    },
    {
      "midi": 54,
      "hit": false,
      "t": 164177.0833333333,
      "d": 57.29166666668607,
      "v": 105
    },
    {
      "midi": 58,
      "hit": false,
      "t": 164182.29166666666,
      "d": 57.29166666668607,
      "v": 105
    },
    {
      "midi": 54,
      "hit": false,
      "t": 164203.12500000015,
      "d": 57.29166666668607,
      "v": 105
    },
    {
      "midi": 58,
      "hit": false,
      "t": 164208.3333333335,
      "d": 57.29166666668607,
      "v": 105
    },
    {
      "midi": 78,
      "hit": false,
      "t": 164343.75000000015,
      "d": 145.83333333334303,
      "v": 83
    },
    {
      "midi": 82,
      "hit": false,
      "t": 164343.75000000015,
      "d": 145.83333333334303,
      "v": 83
    },
    {
      "midi": 42,
      "hit": false,
      "t": 164494.7916666667,
      "d": 119.79166666665697,
      "v": 82
    },
    {
      "midi": 54,
      "hit": false,
      "t": 164500.00000000017,
      "d": 546.875,
      "v": 90
    },
    {
      "midi": 42,
      "hit": false,
      "t": 164526.04166666683,
      "d": 119.79166666665697,
      "v": 65
    },
    {
      "midi": 54,
      "hit": false,
      "t": 164661.45833333334,
      "d": 145.83333333334303,
      "v": 105
    },
    {
      "midi": 58,
      "hit": false,
      "t": 164661.45833333334,
      "d": 145.83333333334303,
      "v": 105
    },
    {
      "midi": 78,
      "hit": false,
      "t": 164666.66666666683,
      "d": 140.625,
      "v": 83
    },
    {
      "midi": 82,
      "hit": false,
      "t": 164666.66666666683,
      "d": 140.625,
      "v": 83
    },
    {
      "midi": 54,
      "hit": false,
      "t": 164682.29166666683,
      "d": 151.04166666668607,
      "v": 105
    },
    {
      "midi": 58,
      "hit": false,
      "t": 164687.50000000017,
      "d": 145.83333333334303,
      "v": 105
    },
    {
      "midi": 46,
      "hit": false,
      "t": 164817.70833333334,
      "d": 57.291666666656965,
      "v": 82
    },
    {
      "midi": 58,
      "hit": false,
      "t": 164817.70833333352,
      "d": 151.04166666665697,
      "v": 90
    },
    {
      "midi": 46,
      "hit": false,
      "t": 164843.75000000017,
      "d": 57.291666666656965,
      "v": 65
    },
    {
      "midi": 44,
      "hit": false,
      "t": 164979.16666666666,
      "d": 119.79166666665697,
      "v": 82
    },
    {
      "midi": 56,
      "hit": false,
      "t": 164979.16666666683,
      "d": 307.29166666668607,
      "v": 90
    },
    {
      "midi": 44,
      "hit": false,
      "t": 165000.00000000017,
      "d": 119.79166666665697,
      "v": 65
    },
    {
      "midi": 41,
      "hit": false,
      "t": 165296.87499999997,
      "d": 119.79166666665697,
      "v": 82
    },
    {
      "midi": 53,
      "hit": false,
      "t": 165296.87500000017,
      "d": 307.29166666665697,
      "v": 90
    },
    {
      "midi": 53,
      "hit": false,
      "t": 165302.0833333333,
      "d": 57.291666666656965,
      "v": 105
    },
    {
      "midi": 56,
      "hit": false,
      "t": 165302.0833333333,
      "d": 57.291666666656965,
      "v": 105
    },
    {
      "midi": 77,
      "hit": false,
      "t": 165307.29166666683,
      "d": 140.625,
      "v": 83
    },
    {
      "midi": 80,
      "hit": false,
      "t": 165307.29166666683,
      "d": 140.625,
      "v": 83
    },
    {
      "midi": 41,
      "hit": false,
      "t": 165317.7083333335,
      "d": 119.79166666665697,
      "v": 65
    },
    {
      "midi": 53,
      "hit": false,
      "t": 165322.91666666683,
      "d": 57.291666666656965,
      "v": 105
    },
    {
      "midi": 56,
      "hit": false,
      "t": 165322.91666666683,
      "d": 57.291666666656965,
      "v": 105
    },
    {
      "midi": 37,
      "hit": false,
      "t": 165609.37499999997,
      "d": 119.79166666665697,
      "v": 82
    },
    {
      "midi": 49,
      "hit": false,
      "t": 165614.5833333335,
      "d": 307.29166666665697,
      "v": 90
    },
    {
      "midi": 53,
      "hit": false,
      "t": 165619.79166666663,
      "d": 145.83333333334303,
      "v": 105
    },
    {
      "midi": 56,
      "hit": false,
      "t": 165619.79166666663,
      "d": 145.83333333334303,
      "v": 105
    },
    {
      "midi": 77,
      "hit": false,
      "t": 165625.00000000017,
      "d": 135.41666666665697,
      "v": 83
    },
    {
      "midi": 80,
      "hit": false,
      "t": 165625.00000000017,
      "d": 140.625,
      "v": 83
    },
    {
      "midi": 37,
      "hit": false,
      "t": 165640.62500000015,
      "d": 119.79166666665697,
      "v": 65
    },
    {
      "midi": 53,
      "hit": false,
      "t": 165640.62500000015,
      "d": 145.83333333331393,
      "v": 105
    },
    {
      "midi": 56,
      "hit": false,
      "t": 165640.62500000015,
      "d": 151.04166666665697,
      "v": 105
    },
    {
      "midi": 39,
      "hit": false,
      "t": 165932.29166666663,
      "d": 119.79166666665697,
      "v": 82
    },
    {
      "midi": 51,
      "hit": false,
      "t": 165937.50000000015,
      "d": 302.08333333334303,
      "v": 90
    },
    {
      "midi": 39,
      "hit": false,
      "t": 165958.33333333346,
      "d": 119.79166666665697,
      "v": 65
    },
    {
      "midi": 54,
      "hit": false,
      "t": 166088.54166666663,
      "d": 57.29166666668607,
      "v": 105
    },
    {
      "midi": 58,
      "hit": false,
      "t": 166093.74999999997,
      "d": 57.29166666668607,
      "v": 105
    },
    {
      "midi": 54,
      "hit": false,
      "t": 166119.79166666677,
      "d": 57.291666666656965,
      "v": 105
    },
    {
      "midi": 58,
      "hit": false,
      "t": 166119.79166666677,
      "d": 57.291666666656965,
      "v": 105
    },
    {
      "midi": 78,
      "hit": false,
      "t": 166250.00000000017,
      "d": 67.70833333334303,
      "v": 83
    },
    {
      "midi": 82,
      "hit": false,
      "t": 166255.20833333352,
      "d": 67.70833333334303,
      "v": 83
    },
    {
      "midi": 42,
      "hit": false,
      "t": 166406.25,
      "d": 119.79166666665697,
      "v": 82
    },
    {
      "midi": 54,
      "hit": false,
      "t": 166411.4583333335,
      "d": 546.875,
      "v": 90
    },
    {
      "midi": 42,
      "hit": false,
      "t": 166432.29166666677,
      "d": 119.79166666665697,
      "v": 65
    },
    {
      "midi": 54,
      "hit": false,
      "t": 166572.91666666666,
      "d": 145.83333333334303,
      "v": 105
    },
    {
      "midi": 58,
      "hit": false,
      "t": 166572.91666666666,
      "d": 145.83333333334303,
      "v": 105
    },
    {
      "midi": 78,
      "hit": false,
      "t": 166572.91666666686,
      "d": 145.83333333334303,
      "v": 83
    },
    {
      "midi": 82,
      "hit": false,
      "t": 166578.1250000002,
      "d": 140.625,
      "v": 83
    },
    {
      "midi": 54,
      "hit": false,
      "t": 166593.7500000001,
      "d": 151.04166666665697,
      "v": 105
    },
    {
      "midi": 58,
      "hit": false,
      "t": 166593.7500000001,
      "d": 151.04166666665697,
      "v": 105
    },
    {
      "midi": 46,
      "hit": false,
      "t": 166729.16666666666,
      "d": 57.291666666656965,
      "v": 82
    },
    {
      "midi": 58,
      "hit": false,
      "t": 166729.16666666683,
      "d": 151.04166666665697,
      "v": 90
    },
    {
      "midi": 46,
      "hit": false,
      "t": 166755.2083333334,
      "d": 57.291666666656965,
      "v": 65
    },
    {
      "midi": 44,
      "hit": false,
      "t": 166890.62499999997,
      "d": 119.79166666665697,
      "v": 82
    },
    {
      "midi": 56,
      "hit": false,
      "t": 166890.62500000015,
      "d": 307.29166666668607,
      "v": 90
    },
    {
      "midi": 44,
      "hit": false,
      "t": 166911.4583333334,
      "d": 119.79166666665697,
      "v": 65
    },
    {
      "midi": 41,
      "hit": false,
      "t": 167208.33333333328,
      "d": 119.79166666665697,
      "v": 82
    },
    {
      "midi": 53,
      "hit": false,
      "t": 167208.3333333335,
      "d": 307.29166666665697,
      "v": 90
    },
    {
      "midi": 53,
      "hit": false,
      "t": 167213.54166666663,
      "d": 57.291666666656965,
      "v": 105
    },
    {
      "midi": 56,
      "hit": false,
      "t": 167213.54166666663,
      "d": 57.291666666656965,
      "v": 105
    },
    {
      "midi": 77,
      "hit": false,
      "t": 167213.54166666686,
      "d": 140.625,
      "v": 83
    },
    {
      "midi": 80,
      "hit": false,
      "t": 167218.7500000002,
      "d": 140.625,
      "v": 83
    },
    {
      "midi": 41,
      "hit": false,
      "t": 167229.16666666672,
      "d": 119.79166666665697,
      "v": 65
    },
    {
      "midi": 53,
      "hit": false,
      "t": 167234.37500000006,
      "d": 57.291666666656965,
      "v": 105
    },
    {
      "midi": 56,
      "hit": false,
      "t": 167234.37500000006,
      "d": 57.291666666656965,
      "v": 105
    },
    {
      "midi": 37,
      "hit": false,
      "t": 167520.83333333328,
      "d": 119.79166666665697,
      "v": 82
    },
    {
      "midi": 49,
      "hit": false,
      "t": 167526.0416666668,
      "d": 307.29166666665697,
      "v": 90
    },
    {
      "midi": 53,
      "hit": false,
      "t": 167531.24999999994,
      "d": 145.83333333334303,
      "v": 105
    },
    {
      "midi": 56,
      "hit": false,
      "t": 167531.24999999994,
      "d": 145.83333333334303,
      "v": 105
    },
    {
      "midi": 77,
      "hit": false,
      "t": 167531.2500000002,
      "d": 140.625,
      "v": 83
    },
    {
      "midi": 80,
      "hit": false,
      "t": 167536.45833333355,
      "d": 135.41666666665697,
      "v": 83
    },
    {
      "midi": 37,
      "hit": false,
      "t": 167546.87500000003,
      "d": 119.79166666668607,
      "v": 65
    },
    {
      "midi": 53,
      "hit": false,
      "t": 167552.08333333337,
      "d": 145.83333333334303,
      "v": 105
    },
    {
      "midi": 56,
      "hit": false,
      "t": 167552.08333333337,
      "d": 145.83333333334303,
      "v": 105
    },
    {
      "midi": 39,
      "hit": false,
      "t": 167843.74999999994,
      "d": 119.79166666665697,
      "v": 82
    },
    {
      "midi": 51,
      "hit": false,
      "t": 167848.95833333346,
      "d": 302.08333333334303,
      "v": 90
    },
    {
      "midi": 39,
      "hit": false,
      "t": 167869.79166666672,
      "d": 119.79166666665697,
      "v": 65
    },
    {
      "midi": 54,
      "hit": false,
      "t": 167999.99999999994,
      "d": 57.291666666656965,
      "v": 105
    },
    {
      "midi": 58,
      "hit": false,
      "t": 167999.99999999994,
      "d": 57.291666666656965,
      "v": 105
    },
    {
      "midi": 54,
      "hit": false,
      "t": 168026.04166666672,
      "d": 57.29166666668607,
      "v": 105
    },
    {
      "midi": 58,
      "hit": false,
      "t": 168031.25000000006,
      "d": 57.29166666668607,
      "v": 105
    },
    {
      "midi": 78,
      "hit": false,
      "t": 168166.66666666686,
      "d": 145.83333333334303,
      "v": 83
    },
    {
      "midi": 82,
      "hit": false,
      "t": 168166.66666666686,
      "d": 145.83333333334303,
      "v": 83
    },
    {
      "midi": 42,
      "hit": false,
      "t": 168317.70833333326,
      "d": 119.79166666665697,
      "v": 82
    },
    {
      "midi": 54,
      "hit": false,
      "t": 168322.9166666668,
      "d": 546.875,
      "v": 90
    },
    {
      "midi": 42,
      "hit": false,
      "t": 168343.7500000001,
      "d": 119.79166666665697,
      "v": 65
    },
    {
      "midi": 54,
      "hit": false,
      "t": 168479.16666666657,
      "d": 151.04166666668607,
      "v": 105
    },
    {
      "midi": 58,
      "hit": false,
      "t": 168484.3749999999,
      "d": 145.83333333334303,
      "v": 105
    },
    {
      "midi": 78,
      "hit": false,
      "t": 168489.58333333355,
      "d": 140.625,
      "v": 83
    },
    {
      "midi": 82,
      "hit": false,
      "t": 168489.58333333355,
      "d": 140.625,
      "v": 83
    },
    {
      "midi": 54,
      "hit": false,
      "t": 168505.2083333334,
      "d": 151.04166666665697,
      "v": 105
    },
    {
      "midi": 58,
      "hit": false,
      "t": 168505.2083333334,
      "d": 151.04166666665697,
      "v": 105
    },
    {
      "midi": 46,
      "hit": false,
      "t": 168635.4166666666,
      "d": 57.291666666656965,
      "v": 82
    },
    {
      "midi": 58,
      "hit": false,
      "t": 168640.62500000015,
      "d": 151.04166666665697,
      "v": 90
    },
    {
      "midi": 46,
      "hit": false,
      "t": 168661.4583333334,
      "d": 57.291666666656965,
      "v": 65
    },
    {
      "midi": 44,
      "hit": false,
      "t": 168802.08333333326,
      "d": 114.58333333334303,
      "v": 82
    },
    {
      "midi": 56,
      "hit": false,
      "t": 168802.08333333346,
      "d": 307.29166666668607,
      "v": 90
    },
    {
      "midi": 44,
      "hit": false,
      "t": 168822.91666666672,
      "d": 119.79166666665697,
      "v": 65
    },
    {
      "midi": 41,
      "hit": false,
      "t": 169114.58333333326,
      "d": 119.79166666665697,
      "v": 82
    },
    {
      "midi": 53,
      "hit": false,
      "t": 169119.7916666668,
      "d": 307.29166666665697,
      "v": 90
    },
    {
      "midi": 53,
      "hit": false,
      "t": 169124.9999999999,
      "d": 57.291666666656965,
      "v": 105
    },
    {
      "midi": 56,
      "hit": false,
      "t": 169124.9999999999,
      "d": 57.291666666656965,
      "v": 105
    },
    {
      "midi": 77,
      "hit": false,
      "t": 169130.20833333355,
      "d": 135.41666666665697,
      "v": 83
    },
    {
      "midi": 80,
      "hit": false,
      "t": 169130.20833333355,
      "d": 140.625,
      "v": 83
    },
    {
      "midi": 53,
      "hit": false,
      "t": 169145.83333333337,
      "d": 57.29166666668607,
      "v": 105
    },
    {
      "midi": 41,
      "hit": false,
      "t": 169145.83333333337,
      "d": 119.79166666668607,
      "v": 65
    },
    {
      "midi": 56,
      "hit": false,
      "t": 169151.04166666672,
      "d": 57.29166666668607,
      "v": 105
    },
    {
      "midi": 37,
      "hit": false,
      "t": 169432.29166666657,
      "d": 119.79166666665697,
      "v": 82
    },
    {
      "midi": 49,
      "hit": false,
      "t": 169437.50000000012,
      "d": 307.29166666665697,
      "v": 90
    },
    {
      "midi": 53,
      "hit": false,
      "t": 169442.70833333323,
      "d": 145.83333333334303,
      "v": 105
    },
    {
      "midi": 56,
      "hit": false,
      "t": 169442.70833333323,
      "d": 145.83333333334303,
      "v": 105
    },
    {
      "midi": 77,
      "hit": false,
      "t": 169447.9166666669,
      "d": 135.41666666665697,
      "v": 83
    },
    {
      "midi": 80,
      "hit": false,
      "t": 169447.9166666669,
      "d": 135.41666666665697,
      "v": 83
    },
    {
      "midi": 37,
      "hit": false,
      "t": 169458.3333333334,
      "d": 119.79166666668607,
      "v": 65
    },
    {
      "midi": 53,
      "hit": false,
      "t": 169463.54166666674,
      "d": 145.83333333334303,
      "v": 105
    },
    {
      "midi": 56,
      "hit": false,
      "t": 169463.54166666674,
      "d": 145.83333333334303,
      "v": 105
    },
    {
      "midi": 39,
      "hit": false,
      "t": 169755.20833333323,
      "d": 119.79166666665697,
      "v": 82
    },
    {
      "midi": 51,
      "hit": false,
      "t": 169755.20833333343,
      "d": 307.29166666665697,
      "v": 90
    },
    {
      "midi": 39,
      "hit": false,
      "t": 169776.04166666674,
      "d": 119.79166666665697,
      "v": 65
    },
    {
      "midi": 54,
      "hit": false,
      "t": 169911.45833333323,
      "d": 57.291666666656965,
      "v": 105
    },
    {
      "midi": 58,
      "hit": false,
      "t": 169911.45833333323,
      "d": 57.291666666656965,
      "v": 105
    },
    {
      "midi": 54,
      "hit": false,
      "t": 169937.50000000006,
      "d": 57.291666666656965,
      "v": 105
    },
    {
      "midi": 58,
      "hit": false,
      "t": 169937.50000000006,
      "d": 57.291666666656965,
      "v": 105
    },
    {
      "midi": 78,
      "hit": false,
      "t": 170072.9166666669,
      "d": 67.70833333334303,
      "v": 83
    },
    {
      "midi": 82,
      "hit": false,
      "t": 170078.12500000023,
      "d": 62.5,
      "v": 83
    },
    {
      "midi": 42,
      "hit": false,
      "t": 170229.16666666654,
      "d": 119.79166666665697,
      "v": 82
    },
    {
      "midi": 54,
      "hit": false,
      "t": 170229.16666666674,
      "d": 546.875,
      "v": 90
    },
    {
      "midi": 42,
      "hit": false,
      "t": 170255.20833333337,
      "d": 119.79166666665697,
      "v": 65
    },
    {
      "midi": 54,
      "hit": false,
      "t": 170390.62499999985,
      "d": 151.04166666668607,
      "v": 105
    },
    {
      "midi": 58,
      "hit": false,
      "t": 170395.8333333332,
      "d": 145.83333333334303,
      "v": 105
    },
    {
      "midi": 78,
      "hit": false,
      "t": 170395.83333333358,
      "d": 145.83333333334303,
      "v": 83
    },
    {
      "midi": 82,
      "hit": false,
      "t": 170401.04166666692,
      "d": 140.625,
      "v": 83
    },
    {
      "midi": 54,
      "hit": false,
      "t": 170416.6666666667,
      "d": 151.04166666665697,
      "v": 105
    },
    {
      "midi": 58,
      "hit": false,
      "t": 170416.6666666667,
      "d": 151.04166666665697,
      "v": 105
    },
    {
      "midi": 46,
      "hit": false,
      "t": 170546.87499999988,
      "d": 57.291666666656965,
      "v": 82
    },
    {
      "midi": 58,
      "hit": false,
      "t": 170552.0833333334,
      "d": 145.83333333334303,
      "v": 90
    },
    {
      "midi": 46,
      "hit": false,
      "t": 170572.9166666667,
      "d": 57.291666666656965,
      "v": 65
    },
    {
      "midi": 44,
      "hit": false,
      "t": 170713.54166666654,
      "d": 114.58333333334303,
      "v": 82
    },
    {
      "midi": 56,
      "hit": false,
      "t": 170713.54166666674,
      "d": 307.29166666665697,
      "v": 90
    },
    {
      "midi": 44,
      "hit": false,
      "t": 170734.375,
      "d": 119.79166666665697,
      "v": 65
    },
    {
      "midi": 41,
      "hit": false,
      "t": 171026.04166666654,
      "d": 119.79166666671517,
      "v": 82
    },
    {
      "midi": 53,
      "hit": false,
      "t": 171031.24999999988,
      "d": 57.29166666668607,
      "v": 105
    },
    {
      "midi": 53,
      "hit": false,
      "t": 171031.25000000006,
      "d": 307.29166666665697,
      "v": 90
    },
    {
      "midi": 56,
      "hit": false,
      "t": 171036.45833333323,
      "d": 57.29166666668607,
      "v": 105
    },
    {
      "midi": 77,
      "hit": false,
      "t": 171036.45833333358,
      "d": 140.625,
      "v": 83
    },
    {
      "midi": 80,
      "hit": false,
      "t": 171041.66666666692,
      "d": 140.625,
      "v": 83
    },
    {
      "midi": 53,
      "hit": false,
      "t": 171052.0833333333,
      "d": 57.29166666668607,
      "v": 105
    },
    {
      "midi": 41,
      "hit": false,
      "t": 171052.0833333333,
      "d": 119.79166666668607,
      "v": 65
    },
    {
      "midi": 56,
      "hit": false,
      "t": 171057.29166666666,
      "d": 57.29166666668607,
      "v": 105
    },
    {
      "midi": 37,
      "hit": false,
      "t": 171343.7499999999,
      "d": 119.79166666665697,
      "v": 82
    },
    {
      "midi": 49,
      "hit": false,
      "t": 171348.95833333337,
      "d": 307.29166666665697,
      "v": 90
    },
    {
      "midi": 53,
      "hit": false,
      "t": 171354.16666666657,
      "d": 145.83333333334303,
      "v": 105
    },
    {
      "midi": 56,
      "hit": false,
      "t": 171354.16666666657,
      "d": 145.83333333334303,
      "v": 105
    },
    {
      "midi": 77,
      "hit": false,
      "t": 171354.16666666692,
      "d": 140.625,
      "v": 83
    },
    {
      "midi": 80,
      "hit": false,
      "t": 171359.37500000026,
      "d": 135.41666666665697,
      "v": 83
    },
    {
      "midi": 37,
      "hit": false,
      "t": 171369.79166666666,
      "d": 119.79166666668607,
      "v": 65
    },
    {
      "midi": 53,
      "hit": false,
      "t": 171375,
      "d": 145.83333333334303,
      "v": 105
    },
    {
      "midi": 56,
      "hit": false,
      "t": 171375,
      "d": 145.83333333334303,
      "v": 105
    },
    {
      "midi": 39,
      "hit": false,
      "t": 171666.66666666657,
      "d": 119.79166666665697,
      "v": 82
    },
    {
      "midi": 51,
      "hit": false,
      "t": 171666.6666666667,
      "d": 307.29166666665697,
      "v": 90
    },
    {
      "midi": 39,
      "hit": false,
      "t": 171687.5,
      "d": 119.79166666665697,
      "v": 65
    },
    {
      "midi": 54,
      "hit": false,
      "t": 171822.91666666657,
      "d": 57.291666666656965,
      "v": 105
    },
    {
      "midi": 58,
      "hit": false,
      "t": 171822.91666666657,
      "d": 57.291666666656965,
      "v": 105
    },
    {
      "midi": 54,
      "hit": false,
      "t": 171848.9583333333,
      "d": 57.291666666656965,
      "v": 105
    },
    {
      "midi": 58,
      "hit": false,
      "t": 171848.9583333333,
      "d": 57.291666666656965,
      "v": 105
    },
    {
      "midi": 78,
      "hit": false,
      "t": 171989.58333333358,
      "d": 140.625,
      "v": 83
    },
    {
      "midi": 82,
      "hit": false,
      "t": 171989.58333333358,
      "d": 145.83333333334303,
      "v": 83
    },
    {
      "midi": 42,
      "hit": false,
      "t": 172140.62499999988,
      "d": 119.79166666665697,
      "v": 82
    },
    {
      "midi": 54,
      "hit": false,
      "t": 172140.625,
      "d": 546.875,
      "v": 90
    },
    {
      "midi": 42,
      "hit": false,
      "t": 172166.66666666663,
      "d": 119.79166666665697,
      "v": 65
    },
    {
      "midi": 54,
      "hit": false,
      "t": 172302.0833333332,
      "d": 151.04166666668607,
      "v": 105
    },
    {
      "midi": 58,
      "hit": false,
      "t": 172307.29166666654,
      "d": 145.83333333334303,
      "v": 105
    },
    {
      "midi": 78,
      "hit": false,
      "t": 172307.29166666692,
      "d": 145.83333333334303,
      "v": 83
    },
    {
      "midi": 82,
      "hit": false,
      "t": 172307.29166666692,
      "d": 145.83333333334303,
      "v": 83
    },
    {
      "midi": 54,
      "hit": false,
      "t": 172328.12499999994,
      "d": 145.83333333334303,
      "v": 105
    },
    {
      "midi": 58,
      "hit": false,
      "t": 172328.12499999994,
      "d": 151.04166666668607,
      "v": 105
    },
    {
      "midi": 46,
      "hit": false,
      "t": 172458.33333333323,
      "d": 57.291666666656965,
      "v": 82
    },
    {
      "midi": 58,
      "hit": false,
      "t": 172463.54166666666,
      "d": 145.83333333334303,
      "v": 90
    },
    {
      "midi": 46,
      "hit": false,
      "t": 172484.37499999997,
      "d": 57.291666666656965,
      "v": 65
    },
    {
      "midi": 44,
      "hit": false,
      "t": 172619.79166666654,
      "d": 119.79166666665697,
      "v": 82
    },
    {
      "midi": 56,
      "hit": false,
      "t": 172625,
      "d": 302.08333333334303,
      "v": 90
    },
    {
      "midi": 44,
      "hit": false,
      "t": 172645.83333333328,
      "d": 119.79166666665697,
      "v": 65
    },
    {
      "midi": 41,
      "hit": false,
      "t": 172937.49999999985,
      "d": 119.79166666671517,
      "v": 82
    },
    {
      "midi": 53,
      "hit": false,
      "t": 172942.7083333332,
      "d": 57.29166666668607,
      "v": 105
    },
    {
      "midi": 53,
      "hit": false,
      "t": 172942.70833333334,
      "d": 307.29166666665697,
      "v": 90
    },
    {
      "midi": 56,
      "hit": false,
      "t": 172947.91666666654,
      "d": 57.29166666668607,
      "v": 105
    },
    {
      "midi": 77,
      "hit": false,
      "t": 172947.91666666692,
      "d": 140.625,
      "v": 83
    },
    {
      "midi": 80,
      "hit": false,
      "t": 172953.12500000026,
      "d": 135.41666666665697,
      "v": 83
    },
    {
      "midi": 53,
      "hit": false,
      "t": 172963.5416666666,
      "d": 57.29166666668607,
      "v": 105
    },
    {
      "midi": 41,
      "hit": false,
      "t": 172963.5416666666,
      "d": 119.79166666668607,
      "v": 65
    },
    {
      "midi": 56,
      "hit": false,
      "t": 172968.74999999994,
      "d": 57.29166666668607,
      "v": 105
    },
    {
      "midi": 37,
      "hit": false,
      "t": 173255.20833333323,
      "d": 119.79166666668607,
      "v": 82
    },
    {
      "midi": 53,
      "hit": false,
      "t": 173260.41666666657,
      "d": 145.83333333334303,
      "v": 105
    },
    {
      "midi": 49,
      "hit": false,
      "t": 173260.41666666666,
      "d": 307.29166666665697,
      "v": 90
    },
    {
      "midi": 56,
      "hit": false,
      "t": 173265.6249999999,
      "d": 145.83333333334303,
      "v": 105
    },
    {
      "midi": 77,
      "hit": false,
      "t": 173265.62500000026,
      "d": 140.625,
      "v": 83
    },
    {
      "midi": 80,
      "hit": false,
      "t": 173270.8333333336,
      "d": 135.41666666665697,
      "v": 83
    },
    {
      "midi": 37,
      "hit": false,
      "t": 173281.24999999994,
      "d": 119.79166666668607,
      "v": 65
    },
    {
      "midi": 53,
      "hit": false,
      "t": 173286.45833333328,
      "d": 145.83333333334303,
      "v": 105
    },
    {
      "midi": 56,
      "hit": false,
      "t": 173286.45833333328,
      "d": 145.83333333334303,
      "v": 105
    },
    {
      "midi": 39,
      "hit": false,
      "t": 173578.1249999999,
      "d": 119.79166666665697,
      "v": 82
    },
    {
      "midi": 51,
      "hit": false,
      "t": 173578.12499999997,
      "d": 307.29166666665697,
      "v": 90
    },
    {
      "midi": 39,
      "hit": false,
      "t": 173598.95833333328,
      "d": 119.79166666665697,
      "v": 65
    },
    {
      "midi": 54,
      "hit": false,
      "t": 173734.3749999999,
      "d": 57.291666666656965,
      "v": 105
    },
    {
      "midi": 58,
      "hit": false,
      "t": 173734.3749999999,
      "d": 57.291666666656965,
      "v": 105
    },
    {
      "midi": 54,
      "hit": false,
      "t": 173760.4166666666,
      "d": 57.291666666656965,
      "v": 105
    },
    {
      "midi": 58,
      "hit": false,
      "t": 173760.4166666666,
      "d": 57.291666666656965,
      "v": 105
    },
    {
      "midi": 78,
      "hit": false,
      "t": 173895.8333333336,
      "d": 67.70833333334303,
      "v": 83
    },
    {
      "midi": 82,
      "hit": false,
      "t": 173901.04166666695,
      "d": 62.5,
      "v": 83
    },
    {
      "midi": 42,
      "hit": false,
      "t": 174052.08333333323,
      "d": 119.79166666665697,
      "v": 82
    },
    {
      "midi": 54,
      "hit": false,
      "t": 174052.08333333328,
      "d": 546.875,
      "v": 90
    },
    {
      "midi": 42,
      "hit": false,
      "t": 174078.1249999999,
      "d": 119.79166666665697,
      "v": 65
    },
    {
      "midi": 54,
      "hit": false,
      "t": 174218.74999999988,
      "d": 145.83333333334303,
      "v": 105
    },
    {
      "midi": 58,
      "hit": false,
      "t": 174218.74999999988,
      "d": 145.83333333334303,
      "v": 105
    },
    {
      "midi": 78,
      "hit": false,
      "t": 174223.9583333336,
      "d": 140.625,
      "v": 83
    },
    {
      "midi": 82,
      "hit": false,
      "t": 174223.9583333336,
      "d": 140.625,
      "v": 83
    },
    {
      "midi": 54,
      "hit": false,
      "t": 174239.58333333323,
      "d": 145.83333333334303,
      "v": 105
    },
    {
      "midi": 58,
      "hit": false,
      "t": 174239.58333333323,
      "d": 151.04166666668607,
      "v": 105
    },
    {
      "midi": 46,
      "hit": false,
      "t": 174369.79166666657,
      "d": 57.291666666656965,
      "v": 82
    },
    {
      "midi": 58,
      "hit": false,
      "t": 174369.79166666663,
      "d": 151.04166666665697,
      "v": 90
    },
    {
      "midi": 46,
      "hit": false,
      "t": 174395.83333333326,
      "d": 57.291666666656965,
      "v": 65
    },
    {
      "midi": 44,
      "hit": false,
      "t": 174531.24999999988,
      "d": 119.79166666665697,
      "v": 82
    },
    {
      "midi": 56,
      "hit": false,
      "t": 174536.45833333328,
      "d": 302.08333333334303,
      "v": 90
    },
    {
      "midi": 44,
      "hit": false,
      "t": 174557.29166666657,
      "d": 119.79166666665697,
      "v": 65
    },
    {
      "midi": 41,
      "hit": false,
      "t": 174848.9583333332,
      "d": 119.79166666671517,
      "v": 82
    },
    {
      "midi": 53,
      "hit": false,
      "t": 174854.16666666654,
      "d": 57.29166666668607,
      "v": 105
    },
    {
      "midi": 53,
      "hit": false,
      "t": 174854.16666666663,
      "d": 302.08333333334303,
      "v": 90
    },
    {
      "midi": 56,
      "hit": false,
      "t": 174859.37499999988,
      "d": 57.29166666668607,
      "v": 105
    },
    {
      "midi": 77,
      "hit": false,
      "t": 174859.37500000026,
      "d": 140.625,
      "v": 83
    },
    {
      "midi": 80,
      "hit": false,
      "t": 174864.5833333336,
      "d": 135.41666666665697,
      "v": 83
    },
    {
      "midi": 53,
      "hit": false,
      "t": 174874.99999999988,
      "d": 57.29166666668607,
      "v": 105
    },
    {
      "midi": 41,
      "hit": false,
      "t": 174874.99999999988,
      "d": 119.79166666668607,
      "v": 65
    },
    {
      "midi": 56,
      "hit": false,
      "t": 174880.20833333323,
      "d": 57.29166666668607,
      "v": 105
    },
    {
      "midi": 37,
      "hit": false,
      "t": 175166.66666666657,
      "d": 119.79166666668607,
      "v": 82
    },
    {
      "midi": 53,
      "hit": false,
      "t": 175171.8749999999,
      "d": 145.83333333334303,
      "v": 105
    },
    {
      "midi": 49,
      "hit": false,
      "t": 175171.87499999997,
      "d": 307.29166666665697,
      "v": 90
    },
    {
      "midi": 56,
      "hit": false,
      "t": 175177.08333333326,
      "d": 145.83333333334303,
      "v": 105
    },
    {
      "midi": 77,
      "hit": false,
      "t": 175177.0833333336,
      "d": 140.625,
      "v": 83
    },
    {
      "midi": 37,
      "hit": false,
      "t": 175192.70833333323,
      "d": 119.79166666668607,
      "v": 65
    },
    {
      "midi": 53,
      "hit": false,
      "t": 175192.70833333323,
      "d": 151.04166666668607,
      "v": 105
    },
    {
      "midi": 56,
      "hit": false,
      "t": 175197.91666666657,
      "d": 145.83333333334303,
      "v": 105
    },
    {
      "midi": 46,
      "hit": false,
      "t": 175489.58333333326,
      "d": 119.79166666665697,
      "v": 82
    },
    {
      "midi": 58,
      "hit": false,
      "t": 175489.5833333333,
      "d": 307.29166666665697,
      "v": 90
    },
    {
      "midi": 46,
      "hit": false,
      "t": 175510.41666666657,
      "d": 119.79166666665697,
      "v": 65
    },
    {
      "midi": 61,
      "hit": false,
      "t": 175645.83333333326,
      "d": 57.291666666656965,
      "v": 105
    },
    {
      "midi": 65,
      "hit": false,
      "t": 175645.83333333326,
      "d": 57.291666666656965,
      "v": 105
    },
    {
      "midi": 61,
      "hit": false,
      "t": 175671.87499999988,
      "d": 57.291666666656965,
      "v": 105
    },
    {
      "midi": 65,
      "hit": false,
      "t": 175671.87499999988,
      "d": 57.291666666656965,
      "v": 105
    },
    {
      "midi": 73,
      "hit": false,
      "t": 175807.29166666695,
      "d": 67.70833333334303,
      "v": 83
    },
    {
      "midi": 77,
      "hit": false,
      "t": 175807.29166666695,
      "d": 67.70833333334303,
      "v": 83
    },
    {
      "midi": 49,
      "hit": false,
      "t": 175963.54166666657,
      "d": 88.54166666665697,
      "v": 82
    },
    {
      "midi": 61,
      "hit": false,
      "t": 175963.54166666663,
      "d": 229.16666666665697,
      "v": 90
    },
    {
      "midi": 49,
      "hit": false,
      "t": 175989.5833333332,
      "d": 88.54166666665697,
      "v": 65
    },
    {
      "midi": 61,
      "hit": false,
      "t": 176124.99999999988,
      "d": 145.83333333334303,
      "v": 105
    },
    {
      "midi": 65,
      "hit": false,
      "t": 176124.99999999988,
      "d": 145.83333333334303,
      "v": 105
    },
    {
      "midi": 73,
      "hit": false,
      "t": 176130.20833333363,
      "d": 140.625,
      "v": 83
    },
    {
      "midi": 77,
      "hit": false,
      "t": 176130.20833333363,
      "d": 140.625,
      "v": 83
    },
    {
      "midi": 61,
      "hit": false,
      "t": 176145.8333333332,
      "d": 151.04166666668607,
      "v": 105
    },
    {
      "midi": 65,
      "hit": false,
      "t": 176151.04166666654,
      "d": 145.83333333334303,
      "v": 105
    },
    {
      "midi": 46,
      "hit": false,
      "t": 176281.24999999988,
      "d": 57.291666666656965,
      "v": 82
    },
    {
      "midi": 58,
      "hit": false,
      "t": 176281.24999999994,
      "d": 151.04166666665697,
      "v": 90
    },
    {
      "midi": 46,
      "hit": false,
      "t": 176307.29166666654,
      "d": 57.291666666656965,
      "v": 65
    },
    {
      "midi": 41,
      "hit": false,
      "t": 176442.7083333332,
      "d": 119.79166666665697,
      "v": 82
    },
    {
      "midi": 53,
      "hit": false,
      "t": 176447.9166666666,
      "d": 302.08333333334303,
      "v": 90
    },
    {
      "midi": 41,
      "hit": false,
      "t": 176468.74999999985,
      "d": 119.79166666665697,
      "v": 65
    },
    {
      "midi": 48,
      "hit": false,
      "t": 176760.4166666665,
      "d": 88.54166666665697,
      "v": 82
    },
    {
      "midi": 60,
      "hit": false,
      "t": 176765.62499999985,
      "d": 57.291666666656965,
      "v": 105
    },
    {
      "midi": 65,
      "hit": false,
      "t": 176765.62499999985,
      "d": 57.291666666656965,
      "v": 105
    },
    {
      "midi": 60,
      "hit": false,
      "t": 176765.62499999994,
      "d": 223.95833333334303,
      "v": 90
    },
    {
      "midi": 68,
      "hit": false,
      "t": 176770.83333333363,
      "d": 140.625,
      "v": 83
    },
    {
      "midi": 72,
      "hit": false,
      "t": 176770.83333333363,
      "d": 140.625,
      "v": 83
    },
    {
      "midi": 60,
      "hit": false,
      "t": 176786.45833333317,
      "d": 57.291666666656965,
      "v": 105
    },
    {
      "midi": 65,
      "hit": false,
      "t": 176786.45833333317,
      "d": 57.291666666656965,
      "v": 105
    },
    {
      "midi": 48,
      "hit": false,
      "t": 176786.45833333317,
      "d": 119.79166666665697,
      "v": 65
    },
    {
      "midi": 44,
      "hit": false,
      "t": 177078.12499999983,
      "d": 57.29166666668607,
      "v": 82
    },
    {
      "midi": 60,
      "hit": false,
      "t": 177083.33333333317,
      "d": 145.83333333334303,
      "v": 105
    },
    {
      "midi": 56,
      "hit": false,
      "t": 177083.33333333328,
      "d": 145.83333333334303,
      "v": 90
    },
    {
      "midi": 65,
      "hit": false,
      "t": 177088.5416666665,
      "d": 145.83333333334303,
      "v": 105
    },
    {
      "midi": 68,
      "hit": false,
      "t": 177088.54166666698,
      "d": 140.625,
      "v": 83
    },
    {
      "midi": 72,
      "hit": false,
      "t": 177088.54166666698,
      "d": 140.625,
      "v": 83
    },
    {
      "midi": 44,
      "hit": false,
      "t": 177104.16666666648,
      "d": 57.29166666668607,
      "v": 65
    },
    {
      "midi": 60,
      "hit": false,
      "t": 177104.16666666648,
      "d": 151.04166666668607,
      "v": 105
    },
    {
      "midi": 65,
      "hit": false,
      "t": 177109.37499999983,
      "d": 145.83333333334303,
      "v": 105
    },
    {
      "midi": 42,
      "hit": false,
      "t": 177395.8333333332,
      "d": 119.79166666665697,
      "v": 82
    },
    {
      "midi": 54,
      "hit": false,
      "t": 177401.04166666663,
      "d": 307.29166666665697,
      "v": 90
    },
    {
      "midi": 42,
      "hit": false,
      "t": 177421.87499999983,
      "d": 119.79166666665697,
      "v": 65
    },
    {
      "midi": 58,
      "hit": false,
      "t": 177557.2916666665,
      "d": 57.291666666656965,
      "v": 105
    },
    {
      "midi": 61,
      "hit": false,
      "t": 177557.2916666665,
      "d": 57.291666666656965,
      "v": 105
    },
    {
      "midi": 58,
      "hit": false,
      "t": 177583.33333333314,
      "d": 57.291666666656965,
      "v": 105
    },
    {
      "midi": 61,
      "hit": false,
      "t": 177583.33333333314,
      "d": 57.291666666656965,
      "v": 105
    },
    {
      "midi": 70,
      "hit": false,
      "t": 177718.75000000032,
      "d": 67.70833333334303,
      "v": 83
    },
    {
      "midi": 73,
      "hit": false,
      "t": 177718.75000000032,
      "d": 145.83333333334303,
      "v": 83
    },
    {
      "midi": 49,
      "hit": false,
      "t": 177874.99999999983,
      "d": 88.54166666665697,
      "v": 82
    },
    {
      "midi": 61,
      "hit": false,
      "t": 177874.99999999994,
      "d": 229.16666666665697,
      "v": 90
    },
    {
      "midi": 49,
      "hit": false,
      "t": 177901.04166666645,
      "d": 88.54166666665697,
      "v": 65
    },
    {
      "midi": 58,
      "hit": false,
      "t": 178036.45833333314,
      "d": 145.83333333334303,
      "v": 105
    },
    {
      "midi": 61,
      "hit": false,
      "t": 178036.45833333314,
      "d": 145.83333333334303,
      "v": 105
    },
    {
      "midi": 70,
      "hit": false,
      "t": 178041.666666667,
      "d": 140.625,
      "v": 83
    },
    {
      "midi": 73,
      "hit": false,
      "t": 178041.666666667,
      "d": 140.625,
      "v": 83
    },
    {
      "midi": 58,
      "hit": false,
      "t": 178062.49999999977,
      "d": 145.83333333334303,
      "v": 105
    },
    {
      "midi": 61,
      "hit": false,
      "t": 178062.49999999977,
      "d": 145.83333333334303,
      "v": 105
    },
    {
      "midi": 46,
      "hit": false,
      "t": 178192.70833333314,
      "d": 57.291666666656965,
      "v": 82
    },
    {
      "midi": 58,
      "hit": false,
      "t": 178192.70833333326,
      "d": 151.04166666665697,
      "v": 90
    },
    {
      "midi": 46,
      "hit": false,
      "t": 178218.74999999977,
      "d": 57.291666666656965,
      "v": 65
    },
    {
      "midi": 44,
      "hit": false,
      "t": 178354.16666666645,
      "d": 119.79166666665697,
      "v": 82
    },
    {
      "midi": 56,
      "hit": false,
      "t": 178359.3749999999,
      "d": 223.95833333334303,
      "v": 90
    },
    {
      "midi": 44,
      "hit": false,
      "t": 178374.99999999977,
      "d": 119.79166666665697,
      "v": 65
    },
    {
      "midi": 61,
      "hit": false,
      "t": 178510.41666666645,
      "d": 57.291666666656965,
      "v": 105
    },
    {
      "midi": 63,
      "hit": false,
      "t": 178510.41666666645,
      "d": 57.291666666656965,
      "v": 105
    },
    {
      "midi": 61,
      "hit": false,
      "t": 178536.45833333308,
      "d": 57.291666666656965,
      "v": 105
    },
    {
      "midi": 63,
      "hit": false,
      "t": 178536.45833333308,
      "d": 57.291666666656965,
      "v": 105
    },
    {
      "midi": 73,
      "hit": false,
      "t": 178671.87500000035,
      "d": 145.83333333334303,
      "v": 83
    },
    {
      "midi": 75,
      "hit": false,
      "t": 178677.0833333337,
      "d": 145.83333333334303,
      "v": 83
    },
    {
      "midi": 51,
      "hit": false,
      "t": 178828.12499999977,
      "d": 88.54166666665697,
      "v": 82
    },
    {
      "midi": 63,
      "hit": false,
      "t": 178833.33333333326,
      "d": 229.16666666665697,
      "v": 90
    },
    {
      "midi": 51,
      "hit": false,
      "t": 178854.1666666664,
      "d": 88.54166666665697,
      "v": 65
    },
    {
      "midi": 60,
      "hit": false,
      "t": 178989.58333333308,
      "d": 145.83333333334303,
      "v": 105
    },
    {
      "midi": 63,
      "hit": false,
      "t": 178994.79166666642,
      "d": 145.83333333334303,
      "v": 105
    },
    {
      "midi": 72,
      "hit": false,
      "t": 178994.79166666704,
      "d": 145.83333333334303,
      "v": 83
    },
    {
      "midi": 75,
      "hit": false,
      "t": 178994.79166666704,
      "d": 145.83333333334303,
      "v": 83
    },
    {
      "midi": 60,
      "hit": false,
      "t": 179015.6249999997,
      "d": 151.04166666665697,
      "v": 105
    },
    {
      "midi": 63,
      "hit": false,
      "t": 179015.6249999997,
      "d": 151.04166666665697,
      "v": 105
    },
    {
      "midi": 48,
      "hit": false,
      "t": 179145.8333333331,
      "d": 57.291666666656965,
      "v": 82
    },
    {
      "midi": 60,
      "hit": false,
      "t": 179151.04166666657,
      "d": 385.41666666668607,
      "v": 90
    },
    {
      "midi": 48,
      "hit": false,
      "t": 179171.8749999997,
      "d": 57.291666666656965,
      "v": 65
    },
    {
      "midi": 46,
      "hit": false,
      "t": 179312.49999999977,
      "d": 114.58333333334303,
      "v": 82
    },
    {
      "midi": 58,
      "hit": false,
      "t": 179312.4999999999,
      "d": 307.29166666668607,
      "v": 90
    },
    {
      "midi": 46,
      "hit": false,
      "t": 179333.33333333302,
      "d": 119.79166666665697,
      "v": 65
    },
    {
      "midi": 61,
      "hit": false,
      "t": 179463.54166666645,
      "d": 57.29166666668607,
      "v": 105
    },
    {
      "midi": 65,
      "hit": false,
      "t": 179468.7499999998,
      "d": 57.29166666668607,
      "v": 105
    },
    {
      "midi": 61,
      "hit": false,
      "t": 179494.79166666634,
      "d": 57.291666666656965,
      "v": 105
    },
    {
      "midi": 65,
      "hit": false,
      "t": 179494.79166666634,
      "d": 57.291666666656965,
      "v": 105
    },
    {
      "midi": 73,
      "hit": false,
      "t": 179630.20833333372,
      "d": 67.70833333334303,
      "v": 83
    },
    {
      "midi": 77,
      "hit": false,
      "t": 179630.20833333372,
      "d": 67.70833333334303,
      "v": 83
    },
    {
      "midi": 49,
      "hit": false,
      "t": 179786.45833333314,
      "d": 88.54166666665697,
      "v": 82
    },
    {
      "midi": 61,
      "hit": false,
      "t": 179786.45833333326,
      "d": 229.16666666665697,
      "v": 90
    },
    {
      "midi": 49,
      "hit": false,
      "t": 179812.49999999965,
      "d": 88.54166666665697,
      "v": 65
    },
    {
      "midi": 61,
      "hit": false,
      "t": 179947.91666666645,
      "d": 145.83333333334303,
      "v": 105
    },
    {
      "midi": 65,
      "hit": false,
      "t": 179947.91666666645,
      "d": 145.83333333334303,
      "v": 105
    },
    {
      "midi": 73,
      "hit": false,
      "t": 179953.1250000004,
      "d": 140.625,
      "v": 83
    },
    {
      "midi": 77,
      "hit": false,
      "t": 179953.1250000004,
      "d": 140.625,
      "v": 83
    },
    {
      "midi": 61,
      "hit": false,
      "t": 179968.74999999965,
      "d": 151.04166666668607,
      "v": 105
    },
    {
      "midi": 65,
      "hit": false,
      "t": 179973.958333333,
      "d": 145.83333333334303,
      "v": 105
    },
    {
      "midi": 46,
      "hit": false,
      "t": 180104.16666666645,
      "d": 57.291666666656965,
      "v": 82
    },
    {
      "midi": 58,
      "hit": false,
      "t": 180104.16666666657,
      "d": 151.04166666665697,
      "v": 90
    },
    {
      "midi": 46,
      "hit": false,
      "t": 180130.208333333,
      "d": 57.291666666656965,
      "v": 65
    },
    {
      "midi": 41,
      "hit": false,
      "t": 180265.62499999977,
      "d": 119.79166666665697,
      "v": 82
    },
    {
      "midi": 53,
      "hit": false,
      "t": 180265.62499999988,
      "d": 307.29166666665697,
      "v": 90
    },
    {
      "midi": 41,
      "hit": false,
      "t": 180286.458333333,
      "d": 119.79166666665697,
      "v": 65
    },
    {
      "midi": 48,
      "hit": false,
      "t": 180583.33333333308,
      "d": 88.54166666665697,
      "v": 82
    },
    {
      "midi": 60,
      "hit": false,
      "t": 180583.3333333332,
      "d": 229.16666666665697,
      "v": 90
    },
    {
      "midi": 60,
      "hit": false,
      "t": 180588.54166666642,
      "d": 57.291666666656965,
      "v": 105
    },
    {
      "midi": 65,
      "hit": false,
      "t": 180588.54166666642,
      "d": 57.291666666656965,
      "v": 105
    },
    {
      "midi": 68,
      "hit": false,
      "t": 180593.7500000004,
      "d": 140.625,
      "v": 83
    },
    {
      "midi": 72,
      "hit": false,
      "t": 180593.7500000004,
      "d": 140.625,
      "v": 83
    },
    {
      "midi": 60,
      "hit": false,
      "t": 180609.37499999965,
      "d": 57.291666666656965,
      "v": 105
    },
    {
      "midi": 65,
      "hit": false,
      "t": 180609.37499999965,
      "d": 57.291666666656965,
      "v": 105
    },
    {
      "midi": 48,
      "hit": false,
      "t": 180609.37499999965,
      "d": 119.79166666665697,
      "v": 65
    },
    {
      "midi": 44,
      "hit": false,
      "t": 180901.0416666664,
      "d": 57.29166666668607,
      "v": 82
    },
    {
      "midi": 60,
      "hit": false,
      "t": 180906.24999999974,
      "d": 145.83333333334303,
      "v": 105
    },
    {
      "midi": 65,
      "hit": false,
      "t": 180906.24999999974,
      "d": 145.83333333334303,
      "v": 105
    },
    {
      "midi": 56,
      "hit": false,
      "t": 180906.24999999985,
      "d": 145.83333333334303,
      "v": 90
    },
    {
      "midi": 68,
      "hit": false,
      "t": 180911.45833333375,
      "d": 140.625,
      "v": 83
    },
    {
      "midi": 72,
      "hit": false,
      "t": 180911.45833333375,
      "d": 140.625,
      "v": 83
    },
    {
      "midi": 44,
      "hit": false,
      "t": 180927.08333333296,
      "d": 57.291666666656965,
      "v": 65
    },
    {
      "midi": 60,
      "hit": false,
      "t": 180927.08333333296,
      "d": 145.83333333331393,
      "v": 105
    },
    {
      "midi": 65,
      "hit": false,
      "t": 180927.08333333296,
      "d": 151.04166666665697,
      "v": 105
    },
    {
      "midi": 42,
      "hit": false,
      "t": 181218.74999999974,
      "d": 119.79166666665697,
      "v": 82
    },
    {
      "midi": 54,
      "hit": false,
      "t": 181223.9583333332,
      "d": 302.08333333334303,
      "v": 90
    },
    {
      "midi": 42,
      "hit": false,
      "t": 181244.79166666628,
      "d": 119.79166666665697,
      "v": 65
    },
    {
      "midi": 58,
      "hit": false,
      "t": 181374.99999999974,
      "d": 57.29166666668607,
      "v": 105
    },
    {
      "midi": 61,
      "hit": false,
      "t": 181380.20833333308,
      "d": 57.29166666668607,
      "v": 105
    },
    {
      "midi": 58,
      "hit": false,
      "t": 181401.04166666628,
      "d": 57.29166666668607,
      "v": 105
    },
    {
      "midi": 61,
      "hit": false,
      "t": 181406.24999999962,
      "d": 57.29166666668607,
      "v": 105
    },
    {
      "midi": 70,
      "hit": false,
      "t": 181541.6666666671,
      "d": 67.70833333334303,
      "v": 83
    },
    {
      "midi": 73,
      "hit": false,
      "t": 181541.6666666671,
      "d": 145.83333333334303,
      "v": 83
    },
    {
      "midi": 49,
      "hit": false,
      "t": 181692.7083333331,
      "d": 88.54166666665697,
      "v": 82
    },
    {
      "midi": 61,
      "hit": false,
      "t": 181697.91666666654,
      "d": 229.16666666665697,
      "v": 90
    },
    {
      "midi": 49,
      "hit": false,
      "t": 181723.95833333296,
      "d": 88.54166666665697,
      "v": 65
    },
    {
      "midi": 58,
      "hit": false,
      "t": 181859.37499999977,
      "d": 145.83333333334303,
      "v": 105
    },
    {
      "midi": 61,
      "hit": false,
      "t": 181859.37499999977,
      "d": 145.83333333334303,
      "v": 105
    },
    {
      "midi": 70,
      "hit": false,
      "t": 181859.37500000044,
      "d": 145.83333333334303,
      "v": 83
    },
    {
      "midi": 73,
      "hit": false,
      "t": 181864.58333333378,
      "d": 140.625,
      "v": 83
    },
    {
      "midi": 58,
      "hit": false,
      "t": 181885.41666666628,
      "d": 145.83333333334303,
      "v": 105
    },
    {
      "midi": 61,
      "hit": false,
      "t": 181885.41666666628,
      "d": 145.83333333334303,
      "v": 105
    },
    {
      "midi": 46,
      "hit": false,
      "t": 182015.62499999977,
      "d": 57.291666666656965,
      "v": 82
    },
    {
      "midi": 58,
      "hit": false,
      "t": 182015.62499999985,
      "d": 151.04166666665697,
      "v": 90
    },
    {
      "midi": 46,
      "hit": false,
      "t": 182041.66666666628,
      "d": 57.291666666656965,
      "v": 65
    },
    {
      "midi": 44,
      "hit": false,
      "t": 182177.08333333308,
      "d": 119.79166666665697,
      "v": 82
    },
    {
      "midi": 56,
      "hit": false,
      "t": 182177.08333333317,
      "d": 223.95833333334303,
      "v": 90
    },
    {
      "midi": 44,
      "hit": false,
      "t": 182197.91666666628,
      "d": 119.79166666665697,
      "v": 65
    },
    {
      "midi": 61,
      "hit": false,
      "t": 182333.33333333308,
      "d": 57.291666666656965,
      "v": 105
    },
    {
      "midi": 63,
      "hit": false,
      "t": 182333.33333333308,
      "d": 57.291666666656965,
      "v": 105
    },
    {
      "midi": 61,
      "hit": false,
      "t": 182359.3749999996,
      "d": 57.291666666656965,
      "v": 105
    },
    {
      "midi": 63,
      "hit": false,
      "t": 182359.3749999996,
      "d": 57.291666666656965,
      "v": 105
    },
    {
      "midi": 73,
      "hit": false,
      "t": 182494.79166666712,
      "d": 145.83333333334303,
      "v": 83
    },
    {
      "midi": 75,
      "hit": false,
      "t": 182494.79166666712,
      "d": 145.83333333334303,
      "v": 83
    },
    {
      "midi": 51,
      "hit": false,
      "t": 182651.0416666664,
      "d": 88.54166666665697,
      "v": 82
    },
    {
      "midi": 63,
      "hit": false,
      "t": 182651.0416666665,
      "d": 229.16666666665697,
      "v": 90
    },
    {
      "midi": 51,
      "hit": false,
      "t": 182677.0833333329,
      "d": 88.54166666665697,
      "v": 65
    },
    {
      "midi": 60,
      "hit": false,
      "t": 182812.4999999997,
      "d": 145.83333333334303,
      "v": 105
    },
    {
      "midi": 63,
      "hit": false,
      "t": 182812.4999999997,
      "d": 145.83333333334303,
      "v": 105
    },
    {
      "midi": 72,
      "hit": false,
      "t": 182817.7083333338,
      "d": 140.625,
      "v": 83
    },
    {
      "midi": 75,
      "hit": false,
      "t": 182817.7083333338,
      "d": 145.83333333334303,
      "v": 83
    },
    {
      "midi": 60,
      "hit": false,
      "t": 182838.54166666622,
      "d": 145.83333333334303,
      "v": 105
    },
    {
      "midi": 63,
      "hit": false,
      "t": 182838.54166666622,
      "d": 151.04166666668607,
      "v": 105
    },
    {
      "midi": 48,
      "hit": false,
      "t": 182968.7499999997,
      "d": 57.291666666656965,
      "v": 82
    },
    {
      "midi": 60,
      "hit": false,
      "t": 182968.74999999983,
      "d": 390.6250000000291,
      "v": 90
    },
    {
      "midi": 48,
      "hit": false,
      "t": 182994.79166666625,
      "d": 57.291666666656965,
      "v": 65
    },
    {
      "midi": 46,
      "hit": false,
      "t": 183135.41666666637,
      "d": 114.58333333334303,
      "v": 82
    },
    {
      "midi": 58,
      "hit": false,
      "t": 183135.4166666665,
      "d": 302.08333333334303,
      "v": 90
    },
    {
      "midi": 46,
      "hit": false,
      "t": 183156.24999999956,
      "d": 119.79166666665697,
      "v": 65
    },
    {
      "midi": 61,
      "hit": false,
      "t": 183286.45833333305,
      "d": 57.29166666668607,
      "v": 105
    },
    {
      "midi": 65,
      "hit": false,
      "t": 183291.6666666664,
      "d": 57.29166666668607,
      "v": 105
    },
    {
      "midi": 61,
      "hit": false,
      "t": 183312.49999999956,
      "d": 57.29166666668607,
      "v": 105
    },
    {
      "midi": 65,
      "hit": false,
      "t": 183317.7083333329,
      "d": 57.29166666668607,
      "v": 105
    },
    {
      "midi": 73,
      "hit": false,
      "t": 183447.91666666715,
      "d": 67.70833333334303,
      "v": 83
    },
    {
      "midi": 77,
      "hit": false,
      "t": 183453.1250000005,
      "d": 67.70833333334303,
      "v": 83
    },
    {
      "midi": 49,
      "hit": false,
      "t": 183604.16666666642,
      "d": 88.54166666665697,
      "v": 82
    },
    {
      "midi": 61,
      "hit": false,
      "t": 183609.37499999985,
      "d": 229.16666666665697,
      "v": 90
    },
    {
      "midi": 49,
      "hit": false,
      "t": 183630.20833333294,
      "d": 88.54166666665697,
      "v": 65
    },
    {
      "midi": 61,
      "hit": false,
      "t": 183770.83333333308,
      "d": 145.83333333334303,
      "v": 105
    },
    {
      "midi": 65,
      "hit": false,
      "t": 183770.83333333308,
      "d": 145.83333333334303,
      "v": 105
    },
    {
      "midi": 73,
      "hit": false,
      "t": 183770.83333333384,
      "d": 145.83333333334303,
      "v": 83
    },
    {
      "midi": 77,
      "hit": false,
      "t": 183776.04166666718,
      "d": 140.625,
      "v": 83
    },
    {
      "midi": 61,
      "hit": false,
      "t": 183791.66666666625,
      "d": 151.04166666665697,
      "v": 105
    },
    {
      "midi": 65,
      "hit": false,
      "t": 183791.66666666625,
      "d": 151.04166666665697,
      "v": 105
    },
    {
      "midi": 46,
      "hit": false,
      "t": 183927.08333333308,
      "d": 57.291666666656965,
      "v": 82
    },
    {
      "midi": 58,
      "hit": false,
      "t": 183927.08333333317,
      "d": 151.04166666665697,
      "v": 90
    },
    {
      "midi": 46,
      "hit": false,
      "t": 183953.12499999956,
      "d": 57.291666666656965,
      "v": 65
    },
    {
      "midi": 41,
      "hit": false,
      "t": 184083.33333333308,
      "d": 119.79166666665697,
      "v": 82
    },
    {
      "midi": 53,
      "hit": false,
      "t": 184088.54166666648,
      "d": 307.29166666665697,
      "v": 90
    },
    {
      "midi": 41,
      "hit": false,
      "t": 184109.37499999956,
      "d": 119.79166666665697,
      "v": 65
    },
    {
      "midi": 48,
      "hit": false,
      "t": 184406.24999999974,
      "d": 88.54166666665697,
      "v": 82
    },
    {
      "midi": 60,
      "hit": false,
      "t": 184406.2499999998,
      "d": 229.16666666665697,
      "v": 90
    },
    {
      "midi": 60,
      "hit": false,
      "t": 184411.45833333308,
      "d": 57.291666666656965,
      "v": 105
    },
    {
      "midi": 65,
      "hit": false,
      "t": 184411.45833333308,
      "d": 57.291666666656965,
      "v": 105
    },
    {
      "midi": 68,
      "hit": false,
      "t": 184411.45833333384,
      "d": 145.83333333334303,
      "v": 83
    },
    {
      "midi": 72,
      "hit": false,
      "t": 184416.66666666718,
      "d": 140.625,
      "v": 83
    },
    {
      "midi": 60,
      "hit": false,
      "t": 184432.29166666622,
      "d": 57.291666666656965,
      "v": 105
    },
    {
      "midi": 65,
      "hit": false,
      "t": 184432.29166666622,
      "d": 57.291666666656965,
      "v": 105
    },
    {
      "midi": 48,
      "hit": false,
      "t": 184432.29166666622,
      "d": 119.79166666665697,
      "v": 65
    },
    {
      "midi": 44,
      "hit": false,
      "t": 184723.95833333305,
      "d": 57.29166666668607,
      "v": 82
    },
    {
      "midi": 56,
      "hit": false,
      "t": 184723.9583333331,
      "d": 145.83333333334303,
      "v": 90
    },
    {
      "midi": 60,
      "hit": false,
      "t": 184729.1666666664,
      "d": 145.83333333334303,
      "v": 105
    },
    {
      "midi": 65,
      "hit": false,
      "t": 184729.1666666664,
      "d": 145.83333333334303,
      "v": 105
    },
    {
      "midi": 68,
      "hit": false,
      "t": 184734.37500000052,
      "d": 140.625,
      "v": 83
    },
    {
      "midi": 72,
      "hit": false,
      "t": 184734.37500000052,
      "d": 140.625,
      "v": 83
    },
    {
      "midi": 44,
      "hit": false,
      "t": 184749.99999999953,
      "d": 57.291666666656965,
      "v": 65
    },
    {
      "midi": 60,
      "hit": false,
      "t": 184749.99999999953,
      "d": 145.83333333331393,
      "v": 105
    },
    {
      "midi": 65,
      "hit": false,
      "t": 184749.99999999953,
      "d": 145.83333333331393,
      "v": 105
    },
    {
      "midi": 42,
      "hit": false,
      "t": 185041.6666666664,
      "d": 119.79166666665697,
      "v": 82
    },
    {
      "midi": 54,
      "hit": false,
      "t": 185046.8749999998,
      "d": 302.08333333334303,
      "v": 90
    },
    {
      "midi": 42,
      "hit": false,
      "t": 185067.70833333285,
      "d": 119.79166666665697,
      "v": 65
    },
    {
      "midi": 58,
      "hit": false,
      "t": 185197.9166666664,
      "d": 57.29166666668607,
      "v": 105
    },
    {
      "midi": 61,
      "hit": false,
      "t": 185203.12499999974,
      "d": 57.29166666668607,
      "v": 105
    },
    {
      "midi": 58,
      "hit": false,
      "t": 185223.95833333285,
      "d": 57.29166666668607,
      "v": 105
    },
    {
      "midi": 61,
      "hit": false,
      "t": 185229.1666666662,
      "d": 57.29166666668607,
      "v": 105
    },
    {
      "midi": 70,
      "hit": false,
      "t": 185359.37500000052,
      "d": 67.70833333334303,
      "v": 83
    },
    {
      "midi": 73,
      "hit": false,
      "t": 185364.58333333387,
      "d": 145.83333333334303,
      "v": 83
    },
    {
      "midi": 49,
      "hit": false,
      "t": 185515.62499999977,
      "d": 88.54166666665697,
      "v": 82
    },
    {
      "midi": 61,
      "hit": false,
      "t": 185520.83333333314,
      "d": 229.16666666665697,
      "v": 90
    },
    {
      "midi": 49,
      "hit": false,
      "t": 185541.66666666622,
      "d": 88.54166666665697,
      "v": 65
    },
    {
      "midi": 58,
      "hit": false,
      "t": 185677.08333333308,
      "d": 151.04166666668607,
      "v": 105
    },
    {
      "midi": 61,
      "hit": false,
      "t": 185682.29166666642,
      "d": 145.83333333334303,
      "v": 105
    },
    {
      "midi": 70,
      "hit": false,
      "t": 185682.2916666672,
      "d": 145.83333333334303,
      "v": 83
    },
    {
      "midi": 73,
      "hit": false,
      "t": 185687.50000000055,
      "d": 140.625,
      "v": 83
    },
    {
      "midi": 58,
      "hit": false,
      "t": 185703.12499999953,
      "d": 151.04166666665697,
      "v": 105
    },
    {
      "midi": 61,
      "hit": false,
      "t": 185703.12499999953,
      "d": 151.04166666665697,
      "v": 105
    },
    {
      "midi": 46,
      "hit": false,
      "t": 185833.3333333331,
      "d": 57.291666666656965,
      "v": 82
    },
    {
      "midi": 58,
      "hit": false,
      "t": 185838.54166666645,
      "d": 151.04166666665697,
      "v": 90
    },
    {
      "midi": 46,
      "hit": false,
      "t": 185864.58333333285,
      "d": 57.291666666656965,
      "v": 65
    },
    {
      "midi": 44,
      "hit": false,
      "t": 185994.79166666642,
      "d": 119.79166666665697,
      "v": 82
    },
    {
      "midi": 56,
      "hit": false,
      "t": 185999.99999999977,
      "d": 223.95833333334303,
      "v": 90
    },
    {
      "midi": 44,
      "hit": false,
      "t": 186020.83333333285,
      "d": 119.79166666665697,
      "v": 65
    },
    {
      "midi": 61,
      "hit": false,
      "t": 186156.24999999974,
      "d": 57.291666666656965,
      "v": 105
    },
    {
      "midi": 63,
      "hit": false,
      "t": 186156.24999999974,
      "d": 57.291666666656965,
      "v": 105
    },
    {
      "midi": 61,
      "hit": false,
      "t": 186182.29166666616,
      "d": 57.291666666656965,
      "v": 105
    },
    {
      "midi": 63,
      "hit": false,
      "t": 186182.29166666616,
      "d": 57.291666666656965,
      "v": 105
    },
    {
      "midi": 73,
      "hit": false,
      "t": 186317.7083333339,
      "d": 145.83333333334303,
      "v": 83
    },
    {
      "midi": 75,
      "hit": false,
      "t": 186322.91666666724,
      "d": 140.625,
      "v": 83
    },
    {
      "midi": 51,
      "hit": false,
      "t": 186473.95833333305,
      "d": 88.54166666665697,
      "v": 82
    },
    {
      "midi": 63,
      "hit": false,
      "t": 186473.9583333331,
      "d": 229.16666666665697,
      "v": 90
    },
    {
      "midi": 51,
      "hit": false,
      "t": 186499.99999999948,
      "d": 88.54166666665697,
      "v": 65
    },
    {
      "midi": 60,
      "hit": false,
      "t": 186635.41666666637,
      "d": 145.83333333334303,
      "v": 105
    },
    {
      "midi": 63,
      "hit": false,
      "t": 186640.6249999997,
      "d": 145.83333333334303,
      "v": 105
    },
    {
      "midi": 72,
      "hit": false,
      "t": 186640.62500000058,
      "d": 140.625,
      "v": 83
    },
    {
      "midi": 75,
      "hit": false,
      "t": 186640.62500000058,
      "d": 140.625,
      "v": 83
    },
    {
      "midi": 60,
      "hit": false,
      "t": 186656.24999999948,
      "d": 151.04166666668607,
      "v": 105
    },
    {
      "midi": 63,
      "hit": false,
      "t": 186661.45833333282,
      "d": 145.83333333334303,
      "v": 105
    },
    {
      "midi": 48,
      "hit": false,
      "t": 186791.6666666664,
      "d": 57.291666666656965,
      "v": 82
    },
    {
      "midi": 60,
      "hit": false,
      "t": 186791.66666666642,
      "d": 390.625,
      "v": 90
    },
    {
      "midi": 48,
      "hit": false,
      "t": 186817.70833333282,
      "d": 57.291666666656965,
      "v": 65
    },
    {
      "midi": 46,
      "hit": false,
      "t": 186958.33333333305,
      "d": 114.58333333334303,
      "v": 82
    },
    {
      "midi": 58,
      "hit": false,
      "t": 186963.54166666642,
      "d": 296.875,
      "v": 90
    },
    {
      "midi": 46,
      "hit": false,
      "t": 186979.16666666613,
      "d": 119.79166666665697,
      "v": 65
    },
    {
      "midi": 61,
      "hit": false,
      "t": 187109.37499999974,
      "d": 57.291666666656965,
      "v": 105
    },
    {
      "midi": 65,
      "hit": false,
      "t": 187109.37499999974,
      "d": 57.291666666656965,
      "v": 105
    },
    {
      "midi": 61,
      "hit": false,
      "t": 187135.41666666613,
      "d": 57.29166666668607,
      "v": 105
    },
    {
      "midi": 65,
      "hit": false,
      "t": 187140.62499999948,
      "d": 57.29166666668607,
      "v": 105
    },
    {
      "midi": 73,
      "hit": false,
      "t": 187276.04166666724,
      "d": 62.5,
      "v": 83
    },
    {
      "midi": 77,
      "hit": false,
      "t": 187276.04166666724,
      "d": 62.5,
      "v": 83
    },
    {
      "midi": 49,
      "hit": false,
      "t": 187427.08333333305,
      "d": 88.54166666665697,
      "v": 82
    },
    {
      "midi": 61,
      "hit": false,
      "t": 187432.29166666642,
      "d": 229.16666666665697,
      "v": 90
    },
    {
      "midi": 49,
      "hit": false,
      "t": 187453.1249999995,
      "d": 88.54166666665697,
      "v": 65
    },
    {
      "midi": 61,
      "hit": false,
      "t": 187593.7499999997,
      "d": 145.83333333334303,
      "v": 105
    },
    {
      "midi": 65,
      "hit": false,
      "t": 187593.7499999997,
      "d": 145.83333333334303,
      "v": 105
    },
    {
      "midi": 73,
      "hit": false,
      "t": 187598.9583333339,
      "d": 140.625,
      "v": 83
    },
    {
      "midi": 77,
      "hit": false,
      "t": 187598.9583333339,
      "d": 140.625,
      "v": 83
    },
    {
      "midi": 61,
      "hit": false,
      "t": 187614.58333333282,
      "d": 151.04166666665697,
      "v": 105
    },
    {
      "midi": 65,
      "hit": false,
      "t": 187614.58333333282,
      "d": 151.04166666665697,
      "v": 105
    },
    {
      "midi": 46,
      "hit": false,
      "t": 187744.7916666664,
      "d": 57.291666666656965,
      "v": 82
    },
    {
      "midi": 58,
      "hit": false,
      "t": 187749.99999999974,
      "d": 151.04166666665697,
      "v": 90
    },
    {
      "midi": 46,
      "hit": false,
      "t": 187770.83333333282,
      "d": 57.291666666656965,
      "v": 65
    },
    {
      "midi": 41,
      "hit": false,
      "t": 187906.2499999997,
      "d": 119.79166666665697,
      "v": 82
    },
    {
      "midi": 53,
      "hit": false,
      "t": 187911.45833333305,
      "d": 307.29166666665697,
      "v": 90
    },
    {
      "midi": 41,
      "hit": false,
      "t": 187932.29166666613,
      "d": 119.79166666665697,
      "v": 65
    },
    {
      "midi": 60,
      "hit": false,
      "t": 188229.16666666637,
      "d": 57.29166666668607,
      "v": 105
    },
    {
      "midi": 48,
      "hit": false,
      "t": 188229.16666666637,
      "d": 88.54166666668607,
      "v": 82
    },
    {
      "midi": 60,
      "hit": false,
      "t": 188229.16666666637,
      "d": 223.95833333334303,
      "v": 90
    },
    {
      "midi": 65,
      "hit": false,
      "t": 188234.3749999997,
      "d": 57.29166666668607,
      "v": 105
    },
    {
      "midi": 68,
      "hit": false,
      "t": 188234.37500000055,
      "d": 140.625,
      "v": 83
    },
    {
      "midi": 72,
      "hit": false,
      "t": 188239.5833333339,
      "d": 140.625,
      "v": 83
    },
    {
      "midi": 48,
      "hit": false,
      "t": 188249.99999999945,
      "d": 119.79166666665697,
      "v": 65
    },
    {
      "midi": 60,
      "hit": false,
      "t": 188255.2083333328,
      "d": 57.291666666656965,
      "v": 105
    },
    {
      "midi": 65,
      "hit": false,
      "t": 188255.2083333328,
      "d": 57.291666666656965,
      "v": 105
    },
    {
      "midi": 44,
      "hit": false,
      "t": 188546.8749999997,
      "d": 57.29166666668607,
      "v": 82
    },
    {
      "midi": 56,
      "hit": false,
      "t": 188546.8749999997,
      "d": 145.83333333334303,
      "v": 90
    },
    {
      "midi": 60,
      "hit": false,
      "t": 188552.08333333305,
      "d": 145.83333333334303,
      "v": 105
    },
    {
      "midi": 65,
      "hit": false,
      "t": 188552.08333333305,
      "d": 145.83333333334303,
      "v": 105
    },
    {
      "midi": 68,
      "hit": false,
      "t": 188552.0833333339,
      "d": 145.83333333334303,
      "v": 83
    },
    {
      "midi": 72,
      "hit": false,
      "t": 188557.29166666724,
      "d": 140.625,
      "v": 83
    },
    {
      "midi": 44,
      "hit": false,
      "t": 188567.70833333276,
      "d": 57.29166666668607,
      "v": 65
    },
    {
      "midi": 60,
      "hit": false,
      "t": 188572.9166666661,
      "d": 145.83333333334303,
      "v": 105
    },
    {
      "midi": 65,
      "hit": false,
      "t": 188572.9166666661,
      "d": 145.83333333334303,
      "v": 105
    },
    {
      "midi": 42,
      "hit": false,
      "t": 188869.7916666664,
      "d": 114.58333333334303,
      "v": 82
    },
    {
      "midi": 54,
      "hit": false,
      "t": 188874.9999999997,
      "d": 296.875,
      "v": 90
    },
    {
      "midi": 42,
      "hit": false,
      "t": 188890.62499999945,
      "d": 119.79166666665697,
      "v": 65
    },
    {
      "midi": 58,
      "hit": false,
      "t": 189020.83333333308,
      "d": 57.291666666656965,
      "v": 105
    },
    {
      "midi": 61,
      "hit": false,
      "t": 189020.83333333308,
      "d": 57.291666666656965,
      "v": 105
    },
    {
      "midi": 58,
      "hit": false,
      "t": 189046.87499999945,
      "d": 57.29166666668607,
      "v": 105
    },
    {
      "midi": 61,
      "hit": false,
      "t": 189052.0833333328,
      "d": 57.29166666668607,
      "v": 105
    },
    {
      "midi": 70,
      "hit": false,
      "t": 189182.29166666724,
      "d": 67.70833333334303,
      "v": 83
    },
    {
      "midi": 73,
      "hit": false,
      "t": 189187.50000000058,
      "d": 145.83333333334303,
      "v": 83
    },
    {
      "midi": 49,
      "hit": false,
      "t": 189338.5416666664,
      "d": 88.54166666665697,
      "v": 82
    },
    {
      "midi": 61,
      "hit": false,
      "t": 189343.7499999997,
      "d": 229.16666666665697,
      "v": 90
    },
    {
      "midi": 49,
      "hit": false,
      "t": 189364.58333333282,
      "d": 88.54166666665697,
      "v": 65
    },
    {
      "midi": 58,
      "hit": false,
      "t": 189505.20833333305,
      "d": 145.83333333334303,
      "v": 105
    },
    {
      "midi": 61,
      "hit": false,
      "t": 189505.20833333305,
      "d": 145.83333333334303,
      "v": 105
    },
    {
      "midi": 70,
      "hit": false,
      "t": 189505.20833333393,
      "d": 145.83333333334303,
      "v": 83
    },
    {
      "midi": 73,
      "hit": false,
      "t": 189510.41666666727,
      "d": 140.625,
      "v": 83
    },
    {
      "midi": 58,
      "hit": false,
      "t": 189526.04166666613,
      "d": 151.04166666665697,
      "v": 105
    },
    {
      "midi": 61,
      "hit": false,
      "t": 189526.04166666613,
      "d": 151.04166666665697,
      "v": 105
    },
    {
      "midi": 58,
      "hit": false,
      "t": 189661.45833333302,
      "d": 151.04166666665697,
      "v": 90
    },
    {
      "midi": 46,
      "hit": false,
      "t": 189661.45833333305,
      "d": 57.291666666656965,
      "v": 82
    },
    {
      "midi": 46,
      "hit": false,
      "t": 189687.49999999945,
      "d": 57.291666666656965,
      "v": 65
    },
    {
      "midi": 44,
      "hit": false,
      "t": 189817.70833333305,
      "d": 119.79166666665697,
      "v": 82
    },
    {
      "midi": 56,
      "hit": false,
      "t": 189822.91666666634,
      "d": 223.95833333334303,
      "v": 90
    },
    {
      "midi": 44,
      "hit": false,
      "t": 189843.74999999945,
      "d": 119.79166666665697,
      "v": 65
    },
    {
      "midi": 61,
      "hit": false,
      "t": 189979.16666666637,
      "d": 57.291666666656965,
      "v": 105
    },
    {
      "midi": 63,
      "hit": false,
      "t": 189979.16666666637,
      "d": 57.291666666656965,
      "v": 105
    },
    {
      "midi": 61,
      "hit": false,
      "t": 190005.20833333276,
      "d": 57.291666666656965,
      "v": 105
    },
    {
      "midi": 63,
      "hit": false,
      "t": 190005.20833333276,
      "d": 57.291666666656965,
      "v": 105
    },
    {
      "midi": 73,
      "hit": false,
      "t": 190140.6250000006,
      "d": 145.83333333334303,
      "v": 83
    },
    {
      "midi": 75,
      "hit": false,
      "t": 190145.83333333395,
      "d": 140.625,
      "v": 83
    },
    {
      "midi": 51,
      "hit": false,
      "t": 190296.87499999968,
      "d": 88.54166666665697,
      "v": 82
    },
    {
      "midi": 63,
      "hit": false,
      "t": 190296.87499999968,
      "d": 229.16666666665697,
      "v": 90
    },
    {
      "midi": 51,
      "hit": false,
      "t": 190322.91666666607,
      "d": 88.54166666665697,
      "v": 65
    },
    {
      "midi": 60,
      "hit": false,
      "t": 190458.333333333,
      "d": 145.83333333334303,
      "v": 105
    },
    {
      "midi": 63,
      "hit": false,
      "t": 190463.54166666634,
      "d": 145.83333333334303,
      "v": 105
    },
    {
      "midi": 72,
      "hit": false,
      "t": 190463.5416666673,
      "d": 140.625,
      "v": 83
    },
    {
      "midi": 75,
      "hit": false,
      "t": 190463.5416666673,
      "d": 140.625,
      "v": 83
    },
    {
      "midi": 60,
      "hit": false,
      "t": 190479.16666666607,
      "d": 151.04166666668607,
      "v": 105
    },
    {
      "midi": 63,
      "hit": false,
      "t": 190484.37499999942,
      "d": 145.83333333334303,
      "v": 105
    },
    {
      "midi": 60,
      "hit": false,
      "t": 190614.583333333,
      "d": 390.625,
      "v": 90
    },
    {
      "midi": 48,
      "hit": false,
      "t": 190614.58333333302,
      "d": 57.291666666656965,
      "v": 82
    },
    {
      "midi": 48,
      "hit": false,
      "t": 190640.62499999942,
      "d": 57.291666666656965,
      "v": 65
    },
    {
      "midi": 46,
      "hit": false,
      "t": 190781.24999999968,
      "d": 114.58333333334303,
      "v": 82
    },
    {
      "midi": 58,
      "hit": false,
      "t": 190786.458333333,
      "d": 296.875,
      "v": 90
    },
    {
      "midi": 46,
      "hit": false,
      "t": 190802.08333333273,
      "d": 119.79166666665697,
      "v": 65
    },
    {
      "midi": 61,
      "hit": false,
      "t": 190932.29166666637,
      "d": 57.291666666656965,
      "v": 105
    },
    {
      "midi": 65,
      "hit": false,
      "t": 190932.29166666637,
      "d": 57.291666666656965,
      "v": 105
    },
    {
      "midi": 61,
      "hit": false,
      "t": 190958.33333333273,
      "d": 57.29166666668607,
      "v": 105
    },
    {
      "midi": 65,
      "hit": false,
      "t": 190963.54166666607,
      "d": 57.29166666668607,
      "v": 105
    },
    {
      "midi": 73,
      "hit": false,
      "t": 191093.75000000064,
      "d": 67.70833333334303,
      "v": 83
    },
    {
      "midi": 77,
      "hit": false,
      "t": 191098.95833333398,
      "d": 67.70833333334303,
      "v": 83
    },
    {
      "midi": 49,
      "hit": false,
      "t": 191249.99999999968,
      "d": 88.54166666665697,
      "v": 82
    },
    {
      "midi": 61,
      "hit": false,
      "t": 191255.208333333,
      "d": 229.16666666665697,
      "v": 90
    },
    {
      "midi": 49,
      "hit": false,
      "t": 191276.0416666661,
      "d": 88.54166666665697,
      "v": 65
    },
    {
      "midi": 61,
      "hit": false,
      "t": 191416.66666666634,
      "d": 145.83333333334303,
      "v": 105
    },
    {
      "midi": 65,
      "hit": false,
      "t": 191416.66666666634,
      "d": 145.83333333334303,
      "v": 105
    },
    {
      "midi": 73,
      "hit": false,
      "t": 191416.66666666733,
      "d": 145.83333333334303,
      "v": 83
    },
    {
      "midi": 77,
      "hit": false,
      "t": 191421.87500000067,
      "d": 140.625,
      "v": 83
    },
    {
      "midi": 61,
      "hit": false,
      "t": 191437.49999999942,
      "d": 151.04166666665697,
      "v": 105
    },
    {
      "midi": 65,
      "hit": false,
      "t": 191437.49999999942,
      "d": 151.04166666665697,
      "v": 105
    },
    {
      "midi": 46,
      "hit": false,
      "t": 191567.70833333302,
      "d": 57.291666666656965,
      "v": 82
    },
    {
      "midi": 58,
      "hit": false,
      "t": 191572.9166666663,
      "d": 151.04166666665697,
      "v": 90
    },
    {
      "midi": 46,
      "hit": false,
      "t": 191593.74999999942,
      "d": 57.291666666656965,
      "v": 65
    },
    {
      "midi": 41,
      "hit": false,
      "t": 191729.16666666634,
      "d": 119.79166666665697,
      "v": 82
    },
    {
      "midi": 53,
      "hit": false,
      "t": 191734.37499999962,
      "d": 307.29166666665697,
      "v": 90
    },
    {
      "midi": 41,
      "hit": false,
      "t": 191755.20833333273,
      "d": 119.79166666665697,
      "v": 65
    },
    {
      "midi": 60,
      "hit": false,
      "t": 192052.08333333294,
      "d": 229.16666666665697,
      "v": 90
    },
    {
      "midi": 48,
      "hit": false,
      "t": 192052.083333333,
      "d": 88.54166666665697,
      "v": 82
    },
    {
      "midi": 60,
      "hit": false,
      "t": 192057.29166666634,
      "d": 57.291666666656965,
      "v": 105
    },
    {
      "midi": 65,
      "hit": false,
      "t": 192057.29166666634,
      "d": 57.291666666656965,
      "v": 105
    },
    {
      "midi": 68,
      "hit": false,
      "t": 192057.29166666733,
      "d": 140.625,
      "v": 83
    },
    {
      "midi": 72,
      "hit": false,
      "t": 192062.50000000067,
      "d": 140.625,
      "v": 83
    },
    {
      "midi": 48,
      "hit": false,
      "t": 192072.91666666605,
      "d": 119.79166666665697,
      "v": 65
    },
    {
      "midi": 60,
      "hit": false,
      "t": 192078.1249999994,
      "d": 57.291666666656965,
      "v": 105
    },
    {
      "midi": 65,
      "hit": false,
      "t": 192078.1249999994,
      "d": 57.291666666656965,
      "v": 105
    },
    {
      "midi": 56,
      "hit": false,
      "t": 192369.79166666625,
      "d": 145.83333333334303,
      "v": 90
    },
    {
      "midi": 44,
      "hit": false,
      "t": 192369.7916666663,
      "d": 57.29166666668607,
      "v": 82
    },
    {
      "midi": 60,
      "hit": false,
      "t": 192374.99999999965,
      "d": 145.83333333334303,
      "v": 105
    },
    {
      "midi": 65,
      "hit": false,
      "t": 192374.99999999965,
      "d": 145.83333333334303,
      "v": 105
    },
    {
      "midi": 68,
      "hit": false,
      "t": 192375.00000000067,
      "d": 145.83333333334303,
      "v": 83
    },
    {
      "midi": 72,
      "hit": false,
      "t": 192380.208333334,
      "d": 140.625,
      "v": 83
    },
    {
      "midi": 44,
      "hit": false,
      "t": 192390.62499999936,
      "d": 57.29166666668607,
      "v": 65
    },
    {
      "midi": 60,
      "hit": false,
      "t": 192395.8333333327,
      "d": 145.83333333334303,
      "v": 105
    },
    {
      "midi": 65,
      "hit": false,
      "t": 192395.8333333327,
      "d": 145.83333333334303,
      "v": 105
    },
    {
      "midi": 54,
      "hit": false,
      "t": 192687.4999999996,
      "d": 307.29166666665697,
      "v": 90
    },
    {
      "midi": 42,
      "hit": false,
      "t": 192687.49999999965,
      "d": 119.79166666665697,
      "v": 82
    },
    {
      "midi": 42,
      "hit": false,
      "t": 192708.3333333327,
      "d": 119.79166666665697,
      "v": 65
    },
    {
      "midi": 58,
      "hit": false,
      "t": 192843.74999999965,
      "d": 57.291666666656965,
      "v": 105
    },
    {
      "midi": 61,
      "hit": false,
      "t": 192843.74999999965,
      "d": 57.291666666656965,
      "v": 105
    },
    {
      "midi": 58,
      "hit": false,
      "t": 192869.79166666602,
      "d": 57.291666666656965,
      "v": 105
    },
    {
      "midi": 61,
      "hit": false,
      "t": 192869.79166666602,
      "d": 57.291666666656965,
      "v": 105
    },
    {
      "midi": 70,
      "hit": false,
      "t": 193005.208333334,
      "d": 67.70833333334303,
      "v": 83
    },
    {
      "midi": 73,
      "hit": false,
      "t": 193010.41666666736,
      "d": 140.625,
      "v": 83
    },
    {
      "midi": 61,
      "hit": false,
      "t": 193161.4583333329,
      "d": 234.375,
      "v": 90
    },
    {
      "midi": 49,
      "hit": false,
      "t": 193161.45833333296,
      "d": 88.54166666665697,
      "v": 82
    },
    {
      "midi": 49,
      "hit": false,
      "t": 193187.49999999933,
      "d": 88.54166666665697,
      "v": 65
    },
    {
      "midi": 58,
      "hit": false,
      "t": 193322.91666666628,
      "d": 145.83333333334303,
      "v": 105
    },
    {
      "midi": 61,
      "hit": false,
      "t": 193328.12499999962,
      "d": 145.83333333334303,
      "v": 105
    },
    {
      "midi": 70,
      "hit": false,
      "t": 193328.1250000007,
      "d": 145.83333333334303,
      "v": 83
    },
    {
      "midi": 73,
      "hit": false,
      "t": 193328.1250000007,
      "d": 145.83333333334303,
      "v": 83
    },
    {
      "midi": 58,
      "hit": false,
      "t": 193348.95833333264,
      "d": 151.04166666665697,
      "v": 105
    },
    {
      "midi": 61,
      "hit": false,
      "t": 193348.95833333264,
      "d": 151.04166666665697,
      "v": 105
    },
    {
      "midi": 46,
      "hit": false,
      "t": 193479.1666666663,
      "d": 57.291666666656965,
      "v": 82
    },
    {
      "midi": 58,
      "hit": false,
      "t": 193484.37499999956,
      "d": 145.83333333334303,
      "v": 90
    },
    {
      "midi": 46,
      "hit": false,
      "t": 193505.20833333264,
      "d": 57.291666666656965,
      "v": 65
    },
    {
      "midi": 44,
      "hit": false,
      "t": 193640.62499999962,
      "d": 119.79166666665697,
      "v": 82
    },
    {
      "midi": 56,
      "hit": false,
      "t": 193645.8333333329,
      "d": 223.95833333334303,
      "v": 90
    },
    {
      "midi": 44,
      "hit": false,
      "t": 193666.66666666596,
      "d": 119.79166666665697,
      "v": 65
    },
    {
      "midi": 61,
      "hit": false,
      "t": 193796.87499999962,
      "d": 57.29166666668607,
      "v": 105
    },
    {
      "midi": 63,
      "hit": false,
      "t": 193802.08333333296,
      "d": 57.29166666668607,
      "v": 105
    },
    {
      "midi": 61,
      "hit": false,
      "t": 193828.12499999927,
      "d": 57.291666666656965,
      "v": 105
    },
    {
      "midi": 63,
      "hit": false,
      "t": 193828.12499999927,
      "d": 57.291666666656965,
      "v": 105
    },
    {
      "midi": 73,
      "hit": false,
      "t": 193963.54166666738,
      "d": 145.83333333334303,
      "v": 83
    },
    {
      "midi": 75,
      "hit": false,
      "t": 193963.54166666738,
      "d": 145.83333333334303,
      "v": 83
    },
    {
      "midi": 63,
      "hit": false,
      "t": 194119.79166666625,
      "d": 229.16666666665697,
      "v": 90
    },
    {
      "midi": 51,
      "hit": false,
      "t": 194119.7916666663,
      "d": 88.54166666665697,
      "v": 82
    },
    {
      "midi": 51,
      "hit": false,
      "t": 194145.8333333326,
      "d": 88.54166666665697,
      "v": 65
    },
    {
      "midi": 60,
      "hit": false,
      "t": 194281.24999999962,
      "d": 145.83333333334303,
      "v": 105
    },
    {
      "midi": 63,
      "hit": false,
      "t": 194286.45833333296,
      "d": 145.83333333334303,
      "v": 105
    },
    {
      "midi": 72,
      "hit": false,
      "t": 194286.45833333407,
      "d": 140.625,
      "v": 83
    },
    {
      "midi": 75,
      "hit": false,
      "t": 194286.45833333407,
      "d": 140.625,
      "v": 83
    },
    {
      "midi": 60,
      "hit": false,
      "t": 194302.0833333326,
      "d": 151.04166666668607,
      "v": 105
    },
    {
      "midi": 63,
      "hit": false,
      "t": 194307.29166666593,
      "d": 145.83333333334303,
      "v": 105
    },
    {
      "midi": 60,
      "hit": false,
      "t": 194437.49999999956,
      "d": 385.41666666665697,
      "v": 90
    },
    {
      "midi": 48,
      "hit": false,
      "t": 194437.49999999965,
      "d": 57.291666666656965,
      "v": 82
    },
    {
      "midi": 48,
      "hit": false,
      "t": 194463.54166666593,
      "d": 57.291666666656965,
      "v": 65
    },
    {
      "midi": 46,
      "hit": false,
      "t": 194604.1666666663,
      "d": 114.58333333334303,
      "v": 82
    },
    {
      "midi": 58,
      "hit": false,
      "t": 194609.37499999956,
      "d": 296.875,
      "v": 90
    },
    {
      "midi": 46,
      "hit": false,
      "t": 194619.79166666593,
      "d": 119.79166666665697,
      "v": 65
    },
    {
      "midi": 61,
      "hit": false,
      "t": 194755.208333333,
      "d": 57.291666666656965,
      "v": 105
    },
    {
      "midi": 65,
      "hit": false,
      "t": 194755.208333333,
      "d": 57.291666666656965,
      "v": 105
    },
    {
      "midi": 61,
      "hit": false,
      "t": 194781.24999999924,
      "d": 57.291666666656965,
      "v": 105
    },
    {
      "midi": 65,
      "hit": false,
      "t": 194781.24999999924,
      "d": 57.291666666656965,
      "v": 105
    },
    {
      "midi": 73,
      "hit": false,
      "t": 194921.87500000073,
      "d": 62.5,
      "v": 83
    },
    {
      "midi": 77,
      "hit": false,
      "t": 194921.87500000073,
      "d": 62.5,
      "v": 83
    },
    {
      "midi": 61,
      "hit": false,
      "t": 195072.91666666622,
      "d": 229.16666666665697,
      "v": 90
    },
    {
      "midi": 49,
      "hit": false,
      "t": 195072.9166666663,
      "d": 88.54166666665697,
      "v": 82
    },
    {
      "midi": 49,
      "hit": false,
      "t": 195098.95833333256,
      "d": 88.54166666665697,
      "v": 65
    },
    {
      "midi": 61,
      "hit": false,
      "t": 195239.58333333296,
      "d": 145.83333333334303,
      "v": 105
    },
    {
      "midi": 65,
      "hit": false,
      "t": 195239.58333333296,
      "d": 145.83333333334303,
      "v": 105
    },
    {
      "midi": 73,
      "hit": false,
      "t": 195244.79166666738,
      "d": 135.41666666665697,
      "v": 83
    },
    {
      "midi": 77,
      "hit": false,
      "t": 195244.79166666738,
      "d": 140.625,
      "v": 83
    },
    {
      "midi": 61,
      "hit": false,
      "t": 195260.41666666587,
      "d": 145.83333333334303,
      "v": 105
    },
    {
      "midi": 65,
      "hit": false,
      "t": 195260.41666666587,
      "d": 151.04166666668607,
      "v": 105
    },
    {
      "midi": 46,
      "hit": false,
      "t": 195390.62499999965,
      "d": 57.291666666656965,
      "v": 82
    },
    {
      "midi": 58,
      "hit": false,
      "t": 195395.83333333288,
      "d": 145.83333333334303,
      "v": 90
    },
    {
      "midi": 46,
      "hit": false,
      "t": 195416.6666666659,
      "d": 57.291666666656965,
      "v": 65
    },
    {
      "midi": 41,
      "hit": false,
      "t": 195552.08333333296,
      "d": 119.79166666665697,
      "v": 82
    },
    {
      "midi": 53,
      "hit": false,
      "t": 195557.29166666622,
      "d": 302.08333333334303,
      "v": 90
    },
    {
      "midi": 41,
      "hit": false,
      "t": 195578.1249999992,
      "d": 119.79166666665697,
      "v": 65
    },
    {
      "midi": 60,
      "hit": false,
      "t": 195874.99999999956,
      "d": 223.95833333334303,
      "v": 90
    },
    {
      "midi": 60,
      "hit": false,
      "t": 195874.99999999962,
      "d": 57.29166666668607,
      "v": 105
    },
    {
      "midi": 48,
      "hit": false,
      "t": 195874.99999999962,
      "d": 88.54166666668607,
      "v": 82
    },
    {
      "midi": 65,
      "hit": false,
      "t": 195880.20833333296,
      "d": 57.29166666668607,
      "v": 105
    },
    {
      "midi": 68,
      "hit": false,
      "t": 195880.20833333404,
      "d": 140.625,
      "v": 83
    },
    {
      "midi": 72,
      "hit": false,
      "t": 195880.20833333404,
      "d": 140.625,
      "v": 83
    },
    {
      "midi": 60,
      "hit": false,
      "t": 195895.83333333253,
      "d": 57.29166666668607,
      "v": 105
    },
    {
      "midi": 48,
      "hit": false,
      "t": 195895.83333333253,
      "d": 119.79166666668607,
      "v": 65
    },
    {
      "midi": 65,
      "hit": false,
      "t": 195901.04166666587,
      "d": 57.29166666668607,
      "v": 105
    },
    {
      "midi": 44,
      "hit": false,
      "t": 196187.49999999965,
      "d": 57.29166666668607,
      "v": 82
    },
    {
      "midi": 56,
      "hit": false,
      "t": 196192.7083333329,
      "d": 145.83333333334303,
      "v": 90
    },
    {
      "midi": 60,
      "hit": false,
      "t": 196192.708333333,
      "d": 145.83333333334303,
      "v": 105
    },
    {
      "midi": 65,
      "hit": false,
      "t": 196197.91666666634,
      "d": 145.83333333334303,
      "v": 105
    },
    {
      "midi": 68,
      "hit": false,
      "t": 196197.91666666738,
      "d": 140.625,
      "v": 83
    },
    {
      "midi": 72,
      "hit": false,
      "t": 196203.12500000073,
      "d": 140.625,
      "v": 83
    },
    {
      "midi": 44,
      "hit": false,
      "t": 196213.54166666587,
      "d": 57.29166666668607,
      "v": 65
    },
    {
      "midi": 60,
      "hit": false,
      "t": 196218.7499999992,
      "d": 145.83333333334303,
      "v": 105
    },
    {
      "midi": 65,
      "hit": false,
      "t": 196218.7499999992,
      "d": 145.83333333334303,
      "v": 105
    },
    {
      "midi": 42,
      "hit": false,
      "t": 196510.41666666634,
      "d": 119.79166666665697,
      "v": 82
    },
    {
      "midi": 54,
      "hit": false,
      "t": 196515.6249999996,
      "d": 302.08333333334303,
      "v": 90
    },
    {
      "midi": 42,
      "hit": false,
      "t": 196531.2499999992,
      "d": 119.79166666665697,
      "v": 65
    },
    {
      "midi": 58,
      "hit": false,
      "t": 196666.66666666634,
      "d": 57.291666666656965,
      "v": 105
    },
    {
      "midi": 61,
      "hit": false,
      "t": 196666.66666666634,
      "d": 57.291666666656965,
      "v": 105
    },
    {
      "midi": 58,
      "hit": false,
      "t": 196692.70833333253,
      "d": 57.291666666656965,
      "v": 105
    },
    {
      "midi": 61,
      "hit": false,
      "t": 196692.70833333253,
      "d": 57.291666666656965,
      "v": 105
    },
    {
      "midi": 70,
      "hit": false,
      "t": 196828.12500000073,
      "d": 67.70833333334303,
      "v": 83
    },
    {
      "midi": 73,
      "hit": false,
      "t": 196828.12500000073,
      "d": 145.83333333334303,
      "v": 83
    },
    {
      "midi": 61,
      "hit": false,
      "t": 196984.3749999996,
      "d": 229.16666666665697,
      "v": 90
    },
    {
      "midi": 49,
      "hit": false,
      "t": 196984.37499999965,
      "d": 88.54166666665697,
      "v": 82
    },
    {
      "midi": 49,
      "hit": false,
      "t": 197010.41666666584,
      "d": 88.54166666665697,
      "v": 65
    },
    {
      "midi": 58,
      "hit": false,
      "t": 197145.83333333296,
      "d": 145.83333333334303,
      "v": 105
    },
    {
      "midi": 61,
      "hit": false,
      "t": 197151.0416666663,
      "d": 145.83333333334303,
      "v": 105
    },
    {
      "midi": 70,
      "hit": false,
      "t": 197151.0416666674,
      "d": 140.625,
      "v": 83
    },
    {
      "midi": 73,
      "hit": false,
      "t": 197151.0416666674,
      "d": 145.83333333334303,
      "v": 83
    },
    {
      "midi": 58,
      "hit": false,
      "t": 197171.87499999916,
      "d": 145.83333333334303,
      "v": 105
    },
    {
      "midi": 61,
      "hit": false,
      "t": 197171.87499999916,
      "d": 151.04166666668607,
      "v": 105
    },
    {
      "midi": 58,
      "hit": false,
      "t": 197302.0833333329,
      "d": 151.04166666665697,
      "v": 90
    },
    {
      "midi": 46,
      "hit": false,
      "t": 197302.083333333,
      "d": 57.291666666656965,
      "v": 82
    },
    {
      "midi": 46,
      "hit": false,
      "t": 197328.12499999919,
      "d": 57.291666666656965,
      "v": 65
    },
    {
      "midi": 44,
      "hit": false,
      "t": 197463.5416666663,
      "d": 119.79166666665697,
      "v": 82
    },
    {
      "midi": 56,
      "hit": false,
      "t": 197468.74999999956,
      "d": 223.95833333334303,
      "v": 90
    },
    {
      "midi": 44,
      "hit": false,
      "t": 197489.5833333325,
      "d": 119.79166666665697,
      "v": 65
    },
    {
      "midi": 61,
      "hit": false,
      "t": 197619.7916666663,
      "d": 57.29166666668607,
      "v": 105
    },
    {
      "midi": 63,
      "hit": false,
      "t": 197624.99999999965,
      "d": 57.29166666668607,
      "v": 105
    },
    {
      "midi": 61,
      "hit": false,
      "t": 197645.8333333325,
      "d": 57.29166666668607,
      "v": 105
    },
    {
      "midi": 63,
      "hit": false,
      "t": 197651.04166666584,
      "d": 57.29166666668607,
      "v": 105
    },
    {
      "midi": 73,
      "hit": false,
      "t": 197786.4583333341,
      "d": 145.83333333334303,
      "v": 83
    },
    {
      "midi": 75,
      "hit": false,
      "t": 197786.4583333341,
      "d": 145.83333333334303,
      "v": 83
    },
    {
      "midi": 51,
      "hit": false,
      "t": 197937.49999999968,
      "d": 88.54166666665697,
      "v": 82
    },
    {
      "midi": 63,
      "hit": false,
      "t": 197942.7083333329,
      "d": 229.16666666665697,
      "v": 90
    },
    {
      "midi": 51,
      "hit": false,
      "t": 197963.54166666587,
      "d": 88.54166666665697,
      "v": 65
    },
    {
      "midi": 60,
      "hit": false,
      "t": 198104.16666666634,
      "d": 145.83333333334303,
      "v": 105
    },
    {
      "midi": 63,
      "hit": false,
      "t": 198104.16666666634,
      "d": 145.83333333334303,
      "v": 105
    },
    {
      "midi": 72,
      "hit": false,
      "t": 198109.3750000008,
      "d": 140.625,
      "v": 83
    },
    {
      "midi": 75,
      "hit": false,
      "t": 198109.3750000008,
      "d": 140.625,
      "v": 83
    },
    {
      "midi": 60,
      "hit": false,
      "t": 198124.99999999919,
      "d": 151.04166666665697,
      "v": 105
    },
    {
      "midi": 63,
      "hit": false,
      "t": 198124.99999999919,
      "d": 151.04166666665697,
      "v": 105
    },
    {
      "midi": 48,
      "hit": false,
      "t": 198255.20833333302,
      "d": 57.291666666656965,
      "v": 82
    },
    {
      "midi": 60,
      "hit": false,
      "t": 198260.41666666622,
      "d": 385.41666666668607,
      "v": 90
    },
    {
      "midi": 48,
      "hit": false,
      "t": 198286.4583333325,
      "d": 57.291666666656965,
      "v": 65
    },
    {
      "midi": 58,
      "hit": false,
      "t": 198427.0833333329,
      "d": 302.08333333334303,
      "v": 90
    },
    {
      "midi": 46,
      "hit": false,
      "t": 198427.08333333302,
      "d": 114.58333333334303,
      "v": 82
    },
    {
      "midi": 46,
      "hit": false,
      "t": 198442.7083333325,
      "d": 119.79166666665697,
      "v": 65
    },
    {
      "midi": 61,
      "hit": false,
      "t": 198578.1249999997,
      "d": 57.291666666656965,
      "v": 105
    },
    {
      "midi": 65,
      "hit": false,
      "t": 198578.1249999997,
      "d": 57.291666666656965,
      "v": 105
    },
    {
      "midi": 61,
      "hit": false,
      "t": 198604.1666666658,
      "d": 57.291666666656965,
      "v": 105
    },
    {
      "midi": 65,
      "hit": false,
      "t": 198604.1666666658,
      "d": 57.291666666656965,
      "v": 105
    },
    {
      "midi": 73,
      "hit": false,
      "t": 198739.58333333413,
      "d": 67.70833333334303,
      "v": 83
    },
    {
      "midi": 77,
      "hit": false,
      "t": 198739.58333333413,
      "d": 67.70833333334303,
      "v": 83
    },
    {
      "midi": 61,
      "hit": false,
      "t": 198895.8333333329,
      "d": 229.16666666665697,
      "v": 90
    },
    {
      "midi": 49,
      "hit": false,
      "t": 198895.83333333302,
      "d": 88.54166666665697,
      "v": 82
    },
    {
      "midi": 49,
      "hit": false,
      "t": 198921.87499999913,
      "d": 88.54166666665697,
      "v": 65
    },
    {
      "midi": 61,
      "hit": false,
      "t": 199057.29166666634,
      "d": 145.83333333334303,
      "v": 105
    },
    {
      "midi": 65,
      "hit": false,
      "t": 199057.29166666634,
      "d": 145.83333333334303,
      "v": 105
    },
    {
      "midi": 73,
      "hit": false,
      "t": 199062.50000000081,
      "d": 145.83333333334303,
      "v": 83
    },
    {
      "midi": 77,
      "hit": false,
      "t": 199062.50000000081,
      "d": 145.83333333334303,
      "v": 83
    },
    {
      "midi": 61,
      "hit": false,
      "t": 199078.12499999913,
      "d": 151.04166666668607,
      "v": 105
    },
    {
      "midi": 65,
      "hit": false,
      "t": 199083.33333333247,
      "d": 145.83333333334303,
      "v": 105
    },
    {
      "midi": 58,
      "hit": false,
      "t": 199213.54166666622,
      "d": 151.04166666665697,
      "v": 90
    },
    {
      "midi": 46,
      "hit": false,
      "t": 199213.54166666634,
      "d": 57.291666666656965,
      "v": 82
    },
    {
      "midi": 46,
      "hit": false,
      "t": 199239.58333333247,
      "d": 57.291666666656965,
      "v": 65
    },
    {
      "midi": 41,
      "hit": false,
      "t": 199374.99999999965,
      "d": 119.79166666665697,
      "v": 82
    },
    {
      "midi": 53,
      "hit": false,
      "t": 199380.20833333288,
      "d": 302.08333333334303,
      "v": 90
    },
    {
      "midi": 41,
      "hit": false,
      "t": 199401.04166666578,
      "d": 119.79166666665697,
      "v": 65
    },
    {
      "midi": 48,
      "hit": false,
      "t": 199692.70833333296,
      "d": 88.54166666665697,
      "v": 82
    },
    {
      "midi": 60,
      "hit": false,
      "t": 199697.91666666622,
      "d": 223.95833333334303,
      "v": 90
    },
    {
      "midi": 60,
      "hit": false,
      "t": 199697.9166666663,
      "d": 57.291666666656965,
      "v": 105
    },
    {
      "midi": 65,
      "hit": false,
      "t": 199697.9166666663,
      "d": 57.291666666656965,
      "v": 105
    },
    {
      "midi": 68,
      "hit": false,
      "t": 199703.12500000081,
      "d": 140.625,
      "v": 83
    },
    {
      "midi": 72,
      "hit": false,
      "t": 199703.12500000081,
      "d": 140.625,
      "v": 83
    },
    {
      "midi": 60,
      "hit": false,
      "t": 199718.7499999991,
      "d": 57.291666666656965,
      "v": 105
    },
    {
      "midi": 65,
      "hit": false,
      "t": 199718.7499999991,
      "d": 57.291666666656965,
      "v": 105
    },
    {
      "midi": 48,
      "hit": false,
      "t": 199718.7499999991,
      "d": 119.79166666665697,
      "v": 65
    },
    {
      "midi": 44,
      "hit": false,
      "t": 200010.41666666628,
      "d": 57.29166666668607,
      "v": 82
    },
    {
      "midi": 56,
      "hit": false,
      "t": 200015.62499999956,
      "d": 145.83333333334303,
      "v": 90
    },
    {
      "midi": 60,
      "hit": false,
      "t": 200015.62499999962,
      "d": 145.83333333334303,
      "v": 105
    },
    {
      "midi": 65,
      "hit": false,
      "t": 200020.83333333296,
      "d": 145.83333333334303,
      "v": 105
    },
    {
      "midi": 68,
      "hit": false,
      "t": 200020.83333333416,
      "d": 140.625,
      "v": 83
    },
    {
      "midi": 72,
      "hit": false,
      "t": 200020.83333333416,
      "d": 140.625,
      "v": 83
    },
    {
      "midi": 44,
      "hit": false,
      "t": 200036.4583333324,
      "d": 57.29166666668607,
      "v": 65
    },
    {
      "midi": 60,
      "hit": false,
      "t": 200036.4583333324,
      "d": 151.04166666668607,
      "v": 105
    },
    {
      "midi": 65,
      "hit": false,
      "t": 200041.66666666575,
      "d": 145.83333333334303,
      "v": 105
    },
    {
      "midi": 42,
      "hit": false,
      "t": 200328.12499999965,
      "d": 119.79166666665697,
      "v": 82
    },
    {
      "midi": 54,
      "hit": false,
      "t": 200333.3333333329,
      "d": 307.29166666665697,
      "v": 90
    },
    {
      "midi": 42,
      "hit": false,
      "t": 200354.16666666575,
      "d": 119.79166666665697,
      "v": 65
    },
    {
      "midi": 58,
      "hit": false,
      "t": 200484.37499999965,
      "d": 57.29166666668607,
      "v": 105
    },
    {
      "midi": 61,
      "hit": false,
      "t": 200489.583333333,
      "d": 57.29166666668607,
      "v": 105
    },
    {
      "midi": 58,
      "hit": false,
      "t": 200515.62499999907,
      "d": 57.291666666656965,
      "v": 105
    },
    {
      "midi": 61,
      "hit": false,
      "t": 200515.62499999907,
      "d": 57.291666666656965,
      "v": 105
    },
    {
      "midi": 70,
      "hit": false,
      "t": 200651.0416666675,
      "d": 67.70833333334303,
      "v": 83
    },
    {
      "midi": 73,
      "hit": false,
      "t": 200651.0416666675,
      "d": 145.83333333334303,
      "v": 83
    },
    {
      "midi": 61,
      "hit": false,
      "t": 200807.29166666622,
      "d": 229.16666666665697,
      "v": 90
    },
    {
      "midi": 49,
      "hit": false,
      "t": 200807.29166666634,
      "d": 88.54166666665697,
      "v": 82
    },
    {
      "midi": 49,
      "hit": false,
      "t": 200833.33333333238,
      "d": 88.54166666665697,
      "v": 65
    },
    {
      "midi": 58,
      "hit": false,
      "t": 200968.74999999965,
      "d": 145.83333333334303,
      "v": 105
    },
    {
      "midi": 61,
      "hit": false,
      "t": 200968.74999999965,
      "d": 145.83333333334303,
      "v": 105
    },
    {
      "midi": 70,
      "hit": false,
      "t": 200973.9583333342,
      "d": 140.625,
      "v": 83
    },
    {
      "midi": 73,
      "hit": false,
      "t": 200973.9583333342,
      "d": 140.625,
      "v": 83
    },
    {
      "midi": 58,
      "hit": false,
      "t": 200989.58333333238,
      "d": 151.04166666668607,
      "v": 105
    },
    {
      "midi": 61,
      "hit": false,
      "t": 200994.79166666573,
      "d": 145.83333333334303,
      "v": 105
    },
    {
      "midi": 58,
      "hit": false,
      "t": 201124.99999999953,
      "d": 151.04166666665697,
      "v": 90
    },
    {
      "midi": 46,
      "hit": false,
      "t": 201124.99999999965,
      "d": 57.291666666656965,
      "v": 82
    },
    {
      "midi": 46,
      "hit": false,
      "t": 201151.04166666573,
      "d": 57.291666666656965,
      "v": 65
    },
    {
      "midi": 56,
      "hit": false,
      "t": 201286.45833333285,
      "d": 229.16666666665697,
      "v": 90
    },
    {
      "midi": 44,
      "hit": false,
      "t": 201286.45833333296,
      "d": 119.79166666665697,
      "v": 82
    },
    {
      "midi": 44,
      "hit": false,
      "t": 201307.29166666573,
      "d": 119.79166666665697,
      "v": 65
    },
    {
      "midi": 61,
      "hit": false,
      "t": 201442.70833333296,
      "d": 57.291666666656965,
      "v": 105
    },
    {
      "midi": 63,
      "hit": false,
      "t": 201442.70833333296,
      "d": 57.291666666656965,
      "v": 105
    },
    {
      "midi": 61,
      "hit": false,
      "t": 201468.74999999904,
      "d": 57.291666666656965,
      "v": 105
    },
    {
      "midi": 63,
      "hit": false,
      "t": 201468.74999999904,
      "d": 57.291666666656965,
      "v": 105
    },
    {
      "midi": 73,
      "hit": false,
      "t": 201609.37500000084,
      "d": 140.625,
      "v": 83
    },
    {
      "midi": 75,
      "hit": false,
      "t": 201609.37500000084,
      "d": 145.83333333334303,
      "v": 83
    },
    {
      "midi": 63,
      "hit": false,
      "t": 201760.41666666616,
      "d": 229.16666666665697,
      "v": 90
    },
    {
      "midi": 51,
      "hit": false,
      "t": 201760.41666666628,
      "d": 88.54166666665697,
      "v": 82
    },
    {
      "midi": 51,
      "hit": false,
      "t": 201786.45833333235,
      "d": 88.54166666665697,
      "v": 65
    },
    {
      "midi": 60,
      "hit": false,
      "t": 201921.8749999996,
      "d": 151.04166666668607,
      "v": 105
    },
    {
      "midi": 63,
      "hit": false,
      "t": 201927.08333333294,
      "d": 145.83333333334303,
      "v": 105
    },
    {
      "midi": 72,
      "hit": false,
      "t": 201927.0833333342,
      "d": 145.83333333334303,
      "v": 83
    },
    {
      "midi": 75,
      "hit": false,
      "t": 201932.29166666753,
      "d": 140.625,
      "v": 83
    },
    {
      "midi": 60,
      "hit": false,
      "t": 201947.91666666567,
      "d": 145.83333333334303,
      "v": 105
    },
    {
      "midi": 63,
      "hit": false,
      "t": 201947.91666666567,
      "d": 151.04166666668607,
      "v": 105
    },
    {
      "midi": 48,
      "hit": false,
      "t": 202078.12499999962,
      "d": 57.291666666656965,
      "v": 82
    },
    {
      "midi": 60,
      "hit": false,
      "t": 202083.33333333282,
      "d": 385.41666666668607,
      "v": 90
    },
    {
      "midi": 48,
      "hit": false,
      "t": 202104.1666666657,
      "d": 57.291666666656965,
      "v": 65
    },
    {
      "midi": 58,
      "hit": false,
      "t": 202249.9999999995,
      "d": 296.875,
      "v": 90
    },
    {
      "midi": 46,
      "hit": false,
      "t": 202249.99999999962,
      "d": 114.58333333334303,
      "v": 82
    },
    {
      "midi": 46,
      "hit": false,
      "t": 202265.624999999,
      "d": 119.79166666665697,
      "v": 65
    },
    {
      "midi": 61,
      "hit": false,
      "t": 202395.83333333296,
      "d": 57.29166666668607,
      "v": 105
    },
    {
      "midi": 65,
      "hit": false,
      "t": 202401.0416666663,
      "d": 57.29166666668607,
      "v": 105
    },
    {
      "midi": 61,
      "hit": false,
      "t": 202421.874999999,
      "d": 57.29166666668607,
      "v": 105
    },
    {
      "midi": 65,
      "hit": false,
      "t": 202427.08333333235,
      "d": 57.29166666668607,
      "v": 105
    },
    {
      "midi": 73,
      "hit": false,
      "t": 202562.50000000087,
      "d": 67.70833333334303,
      "v": 83
    },
    {
      "midi": 77,
      "hit": false,
      "t": 202567.70833333422,
      "d": 62.5,
      "v": 83
    },
    {
      "midi": 61,
      "hit": false,
      "t": 202718.7499999995,
      "d": 229.16666666665697,
      "v": 90
    },
    {
      "midi": 49,
      "hit": false,
      "t": 202718.74999999965,
      "d": 88.54166666665697,
      "v": 82
    },
    {
      "midi": 49,
      "hit": false,
      "t": 202744.7916666657,
      "d": 88.54166666665697,
      "v": 65
    },
    {
      "midi": 61,
      "hit": false,
      "t": 202880.20833333296,
      "d": 145.83333333334303,
      "v": 105
    },
    {
      "midi": 65,
      "hit": false,
      "t": 202885.4166666663,
      "d": 145.83333333334303,
      "v": 105
    },
    {
      "midi": 73,
      "hit": false,
      "t": 202890.62500000087,
      "d": 135.41666666665697,
      "v": 83
    },
    {
      "midi": 77,
      "hit": false,
      "t": 202890.62500000087,
      "d": 135.41666666665697,
      "v": 83
    },
    {
      "midi": 61,
      "hit": false,
      "t": 202901.0416666657,
      "d": 151.04166666668607,
      "v": 105
    },
    {
      "midi": 65,
      "hit": false,
      "t": 202906.24999999904,
      "d": 145.83333333334303,
      "v": 105
    },
    {
      "midi": 58,
      "hit": false,
      "t": 203036.45833333282,
      "d": 151.04166666665697,
      "v": 90
    },
    {
      "midi": 46,
      "hit": false,
      "t": 203036.458333333,
      "d": 57.291666666656965,
      "v": 82
    },
    {
      "midi": 46,
      "hit": false,
      "t": 203062.49999999904,
      "d": 57.291666666656965,
      "v": 65
    },
    {
      "midi": 41,
      "hit": false,
      "t": 203197.9166666663,
      "d": 119.79166666665697,
      "v": 82
    },
    {
      "midi": 53,
      "hit": false,
      "t": 203203.12499999948,
      "d": 302.08333333334303,
      "v": 90
    },
    {
      "midi": 41,
      "hit": false,
      "t": 203218.74999999904,
      "d": 119.79166666665697,
      "v": 65
    },
    {
      "midi": 60,
      "hit": false,
      "t": 203515.62499999948,
      "d": 229.16666666665697,
      "v": 90
    },
    {
      "midi": 48,
      "hit": false,
      "t": 203515.62499999962,
      "d": 88.54166666665697,
      "v": 82
    },
    {
      "midi": 60,
      "hit": false,
      "t": 203520.83333333296,
      "d": 57.291666666656965,
      "v": 105
    },
    {
      "midi": 65,
      "hit": false,
      "t": 203520.83333333296,
      "d": 57.291666666656965,
      "v": 105
    },
    {
      "midi": 68,
      "hit": false,
      "t": 203520.8333333342,
      "d": 145.83333333334303,
      "v": 83
    },
    {
      "midi": 72,
      "hit": false,
      "t": 203526.04166666753,
      "d": 140.625,
      "v": 83
    },
    {
      "midi": 48,
      "hit": false,
      "t": 203536.45833333235,
      "d": 119.79166666665697,
      "v": 65
    },
    {
      "midi": 60,
      "hit": false,
      "t": 203541.6666666657,
      "d": 57.291666666656965,
      "v": 105
    },
    {
      "midi": 65,
      "hit": false,
      "t": 203541.6666666657,
      "d": 57.291666666656965,
      "v": 105
    },
    {
      "midi": 44,
      "hit": false,
      "t": 203833.33333333294,
      "d": 57.29166666668607,
      "v": 82
    },
    {
      "midi": 56,
      "hit": false,
      "t": 203838.54166666613,
      "d": 145.83333333334303,
      "v": 90
    },
    {
      "midi": 60,
      "hit": false,
      "t": 203838.54166666628,
      "d": 145.83333333334303,
      "v": 105
    },
    {
      "midi": 65,
      "hit": false,
      "t": 203838.54166666628,
      "d": 145.83333333334303,
      "v": 105
    },
    {
      "midi": 68,
      "hit": false,
      "t": 203843.75000000087,
      "d": 140.625,
      "v": 83
    },
    {
      "midi": 72,
      "hit": false,
      "t": 203843.75000000087,
      "d": 140.625,
      "v": 83
    },
    {
      "midi": 44,
      "hit": false,
      "t": 203859.374999999,
      "d": 57.291666666656965,
      "v": 65
    },
    {
      "midi": 60,
      "hit": false,
      "t": 203859.374999999,
      "d": 145.83333333331393,
      "v": 105
    },
    {
      "midi": 65,
      "hit": false,
      "t": 203859.374999999,
      "d": 151.04166666665697,
      "v": 105
    },
    {
      "midi": 42,
      "hit": false,
      "t": 204151.04166666628,
      "d": 119.79166666665697,
      "v": 82
    },
    {
      "midi": 54,
      "hit": false,
      "t": 204156.24999999948,
      "d": 302.08333333334303,
      "v": 90
    },
    {
      "midi": 42,
      "hit": false,
      "t": 204177.08333333232,
      "d": 119.79166666665697,
      "v": 65
    },
    {
      "midi": 58,
      "hit": false,
      "t": 204307.29166666628,
      "d": 57.29166666668607,
      "v": 105
    },
    {
      "midi": 61,
      "hit": false,
      "t": 204312.49999999962,
      "d": 57.29166666668607,
      "v": 105
    },
    {
      "midi": 58,
      "hit": false,
      "t": 204333.33333333232,
      "d": 57.29166666668607,
      "v": 105
    },
    {
      "midi": 61,
      "hit": false,
      "t": 204338.54166666567,
      "d": 57.29166666668607,
      "v": 105
    },
    {
      "midi": 70,
      "hit": false,
      "t": 204473.95833333422,
      "d": 62.5,
      "v": 83
    },
    {
      "midi": 73,
      "hit": false,
      "t": 204473.95833333422,
      "d": 145.83333333334303,
      "v": 83
    },
    {
      "midi": 49,
      "hit": false,
      "t": 204624.99999999965,
      "d": 88.54166666665697,
      "v": 82
    },
    {
      "midi": 61,
      "hit": false,
      "t": 204630.20833333282,
      "d": 229.16666666665697,
      "v": 90
    },
    {
      "midi": 49,
      "hit": false,
      "t": 204656.249999999,
      "d": 88.54166666665697,
      "v": 65
    },
    {
      "midi": 58,
      "hit": false,
      "t": 204791.6666666663,
      "d": 145.83333333334303,
      "v": 105
    },
    {
      "midi": 61,
      "hit": false,
      "t": 204791.6666666663,
      "d": 145.83333333334303,
      "v": 105
    },
    {
      "midi": 70,
      "hit": false,
      "t": 204791.66666666756,
      "d": 145.83333333334303,
      "v": 83
    },
    {
      "midi": 73,
      "hit": false,
      "t": 204796.8750000009,
      "d": 140.625,
      "v": 83
    },
    {
      "midi": 58,
      "hit": false,
      "t": 204812.499999999,
      "d": 151.04166666665697,
      "v": 105
    },
    {
      "midi": 61,
      "hit": false,
      "t": 204812.499999999,
      "d": 151.04166666665697,
      "v": 105
    },
    {
      "midi": 58,
      "hit": false,
      "t": 204947.91666666613,
      "d": 151.04166666665697,
      "v": 90
    },
    {
      "midi": 46,
      "hit": false,
      "t": 204947.9166666663,
      "d": 57.291666666656965,
      "v": 82
    },
    {
      "midi": 46,
      "hit": false,
      "t": 204973.95833333232,
      "d": 57.291666666656965,
      "v": 65
    },
    {
      "midi": 44,
      "hit": false,
      "t": 205104.1666666663,
      "d": 119.79166666665697,
      "v": 82
    },
    {
      "midi": 56,
      "hit": false,
      "t": 205109.37499999945,
      "d": 223.95833333334303,
      "v": 90
    },
    {
      "midi": 44,
      "hit": false,
      "t": 205130.20833333232,
      "d": 119.79166666665697,
      "v": 65
    },
    {
      "midi": 61,
      "hit": false,
      "t": 205265.62499999962,
      "d": 57.291666666656965,
      "v": 105
    },
    {
      "midi": 63,
      "hit": false,
      "t": 205265.62499999962,
      "d": 57.291666666656965,
      "v": 105
    },
    {
      "midi": 61,
      "hit": false,
      "t": 205291.66666666564,
      "d": 57.291666666656965,
      "v": 105
    },
    {
      "midi": 63,
      "hit": false,
      "t": 205291.66666666564,
      "d": 57.291666666656965,
      "v": 105
    },
    {
      "midi": 73,
      "hit": false,
      "t": 205427.08333333425,
      "d": 145.83333333334303,
      "v": 83
    },
    {
      "midi": 75,
      "hit": false,
      "t": 205432.2916666676,
      "d": 140.625,
      "v": 83
    },
    {
      "midi": 63,
      "hit": false,
      "t": 205583.3333333328,
      "d": 229.16666666665697,
      "v": 90
    },
    {
      "midi": 51,
      "hit": false,
      "t": 205583.33333333294,
      "d": 88.54166666665697,
      "v": 82
    },
    {
      "midi": 51,
      "hit": false,
      "t": 205609.37499999895,
      "d": 88.54166666665697,
      "v": 65
    },
    {
      "midi": 60,
      "hit": false,
      "t": 205744.79166666625,
      "d": 145.83333333334303,
      "v": 105
    },
    {
      "midi": 63,
      "hit": false,
      "t": 205749.9999999996,
      "d": 145.83333333334303,
      "v": 105
    },
    {
      "midi": 72,
      "hit": false,
      "t": 205750.00000000093,
      "d": 140.625,
      "v": 83
    },
    {
      "midi": 75,
      "hit": false,
      "t": 205755.20833333427,
      "d": 140.625,
      "v": 83
    },
    {
      "midi": 60,
      "hit": false,
      "t": 205770.83333333227,
      "d": 145.83333333334303,
      "v": 105
    },
    {
      "midi": 63,
      "hit": false,
      "t": 205770.83333333227,
      "d": 151.04166666668607,
      "v": 105
    },
    {
      "midi": 60,
      "hit": false,
      "t": 205901.0416666661,
      "d": 390.625,
      "v": 90
    },
    {
      "midi": 48,
      "hit": false,
      "t": 205901.04166666628,
      "d": 57.291666666656965,
      "v": 82
    },
    {
      "midi": 48,
      "hit": false,
      "t": 205927.0833333323,
      "d": 57.291666666656965,
      "v": 65
    },
    {
      "midi": 46,
      "hit": false,
      "t": 206067.70833333294,
      "d": 114.58333333334303,
      "v": 82
    },
    {
      "midi": 58,
      "hit": false,
      "t": 206072.9166666661,
      "d": 296.875,
      "v": 90
    },
    {
      "midi": 46,
      "hit": false,
      "t": 206088.5416666656,
      "d": 119.79166666665697,
      "v": 65
    },
    {
      "midi": 61,
      "hit": false,
      "t": 206218.74999999962,
      "d": 57.29166666668607,
      "v": 105
    },
    {
      "midi": 65,
      "hit": false,
      "t": 206223.95833333296,
      "d": 57.29166666668607,
      "v": 105
    },
    {
      "midi": 61,
      "hit": false,
      "t": 206244.7916666656,
      "d": 57.29166666668607,
      "v": 105
    },
    {
      "midi": 65,
      "hit": false,
      "t": 206249.99999999895,
      "d": 57.29166666668607,
      "v": 105
    },
    {
      "midi": 73,
      "hit": false,
      "t": 206380.20833333427,
      "d": 67.70833333334303,
      "v": 83
    },
    {
      "midi": 77,
      "hit": false,
      "t": 206385.41666666762,
      "d": 67.70833333334303,
      "v": 83
    },
    {
      "midi": 49,
      "hit": false,
      "t": 206536.458333333,
      "d": 88.54166666665697,
      "v": 82
    },
    {
      "midi": 61,
      "hit": false,
      "t": 206541.6666666661,
      "d": 229.16666666665697,
      "v": 90
    },
    {
      "midi": 49,
      "hit": false,
      "t": 206562.49999999898,
      "d": 88.54166666665697,
      "v": 65
    },
    {
      "midi": 61,
      "hit": false,
      "t": 206703.12499999965,
      "d": 145.83333333334303,
      "v": 105
    },
    {
      "midi": 65,
      "hit": false,
      "t": 206703.12499999965,
      "d": 145.83333333334303,
      "v": 105
    },
    {
      "midi": 73,
      "hit": false,
      "t": 206703.12500000096,
      "d": 145.83333333334303,
      "v": 83
    },
    {
      "midi": 77,
      "hit": false,
      "t": 206708.3333333343,
      "d": 140.625,
      "v": 83
    },
    {
      "midi": 61,
      "hit": false,
      "t": 206723.9583333323,
      "d": 151.04166666665697,
      "v": 105
    },
    {
      "midi": 65,
      "hit": false,
      "t": 206723.9583333323,
      "d": 151.04166666665697,
      "v": 105
    },
    {
      "midi": 58,
      "hit": false,
      "t": 206859.37499999942,
      "d": 151.04166666665697,
      "v": 90
    },
    {
      "midi": 46,
      "hit": false,
      "t": 206859.37499999965,
      "d": 57.291666666656965,
      "v": 82
    },
    {
      "midi": 46,
      "hit": false,
      "t": 206885.4166666656,
      "d": 57.291666666656965,
      "v": 65
    },
    {
      "midi": 41,
      "hit": false,
      "t": 207015.62499999965,
      "d": 119.79166666665697,
      "v": 82
    },
    {
      "midi": 53,
      "hit": false,
      "t": 207020.83333333273,
      "d": 307.29166666665697,
      "v": 90
    },
    {
      "midi": 41,
      "hit": false,
      "t": 207041.6666666656,
      "d": 119.79166666665697,
      "v": 65
    },
    {
      "midi": 60,
      "hit": false,
      "t": 207338.54166666605,
      "d": 229.16666666665697,
      "v": 90
    },
    {
      "midi": 48,
      "hit": false,
      "t": 207338.5416666663,
      "d": 88.54166666665697,
      "v": 82
    },
    {
      "midi": 60,
      "hit": false,
      "t": 207343.74999999965,
      "d": 57.291666666656965,
      "v": 105
    },
    {
      "midi": 65,
      "hit": false,
      "t": 207343.74999999965,
      "d": 57.291666666656965,
      "v": 105
    },
    {
      "midi": 68,
      "hit": false,
      "t": 207343.75000000096,
      "d": 140.625,
      "v": 83
    },
    {
      "midi": 72,
      "hit": false,
      "t": 207348.9583333343,
      "d": 140.625,
      "v": 83
    },
    {
      "midi": 48,
      "hit": false,
      "t": 207359.37499999892,
      "d": 119.79166666665697,
      "v": 65
    },
    {
      "midi": 60,
      "hit": false,
      "t": 207364.58333333227,
      "d": 57.291666666656965,
      "v": 105
    },
    {
      "midi": 65,
      "hit": false,
      "t": 207364.58333333227,
      "d": 57.291666666656965,
      "v": 105
    },
    {
      "midi": 56,
      "hit": false,
      "t": 207656.24999999936,
      "d": 145.83333333334303,
      "v": 90
    },
    {
      "midi": 44,
      "hit": false,
      "t": 207656.24999999962,
      "d": 57.29166666668607,
      "v": 82
    },
    {
      "midi": 60,
      "hit": false,
      "t": 207661.45833333296,
      "d": 145.83333333334303,
      "v": 105
    },
    {
      "midi": 65,
      "hit": false,
      "t": 207661.45833333296,
      "d": 145.83333333334303,
      "v": 105
    },
    {
      "midi": 68,
      "hit": false,
      "t": 207661.4583333343,
      "d": 145.83333333334303,
      "v": 83
    },
    {
      "midi": 72,
      "hit": false,
      "t": 207666.66666666765,
      "d": 140.625,
      "v": 83
    },
    {
      "midi": 44,
      "hit": false,
      "t": 207677.08333333224,
      "d": 57.29166666668607,
      "v": 65
    },
    {
      "midi": 60,
      "hit": false,
      "t": 207682.29166666558,
      "d": 145.83333333334303,
      "v": 105
    },
    {
      "midi": 65,
      "hit": false,
      "t": 207682.29166666558,
      "d": 145.83333333334303,
      "v": 105
    },
    {
      "midi": 42,
      "hit": false,
      "t": 207973.95833333296,
      "d": 119.79166666665697,
      "v": 82
    },
    {
      "midi": 54,
      "hit": false,
      "t": 207979.16666666605,
      "d": 302.08333333334303,
      "v": 90
    },
    {
      "midi": 42,
      "hit": false,
      "t": 207999.99999999892,
      "d": 119.79166666665697,
      "v": 65
    },
    {
      "midi": 58,
      "hit": false,
      "t": 208130.20833333296,
      "d": 57.291666666656965,
      "v": 105
    },
    {
      "midi": 61,
      "hit": false,
      "t": 208130.20833333296,
      "d": 57.291666666656965,
      "v": 105
    },
    {
      "midi": 58,
      "hit": false,
      "t": 208156.24999999892,
      "d": 57.29166666668607,
      "v": 105
    },
    {
      "midi": 61,
      "hit": false,
      "t": 208161.45833333227,
      "d": 57.29166666668607,
      "v": 105
    },
    {
      "midi": 70,
      "hit": false,
      "t": 208291.66666666765,
      "d": 67.70833333334303,
      "v": 83
    },
    {
      "midi": 73,
      "hit": false,
      "t": 208296.875000001,
      "d": 145.83333333334303,
      "v": 83
    },
    {
      "midi": 49,
      "hit": false,
      "t": 208447.91666666628,
      "d": 88.54166666665697,
      "v": 82
    },
    {
      "midi": 61,
      "hit": false,
      "t": 208453.1249999994,
      "d": 229.16666666665697,
      "v": 90
    },
    {
      "midi": 49,
      "hit": false,
      "t": 208473.9583333323,
      "d": 88.54166666665697,
      "v": 65
    },
    {
      "midi": 58,
      "hit": false,
      "t": 208609.3749999996,
      "d": 151.04166666668607,
      "v": 105
    },
    {
      "midi": 61,
      "hit": false,
      "t": 208614.58333333294,
      "d": 145.83333333334303,
      "v": 105
    },
    {
      "midi": 70,
      "hit": false,
      "t": 208614.58333333433,
      "d": 145.83333333334303,
      "v": 83
    },
    {
      "midi": 73,
      "hit": false,
      "t": 208619.79166666768,
      "d": 140.625,
      "v": 83
    },
    {
      "midi": 58,
      "hit": false,
      "t": 208635.4166666656,
      "d": 151.04166666665697,
      "v": 105
    },
    {
      "midi": 61,
      "hit": false,
      "t": 208635.4166666656,
      "d": 151.04166666665697,
      "v": 105
    },
    {
      "midi": 46,
      "hit": false,
      "t": 208765.62499999962,
      "d": 57.291666666656965,
      "v": 82
    },
    {
      "midi": 58,
      "hit": false,
      "t": 208770.8333333327,
      "d": 151.04166666665697,
      "v": 90
    },
    {
      "midi": 46,
      "hit": false,
      "t": 208791.6666666656,
      "d": 57.291666666656965,
      "v": 65
    },
    {
      "midi": 44,
      "hit": false,
      "t": 208927.08333333294,
      "d": 119.79166666665697,
      "v": 82
    },
    {
      "midi": 56,
      "hit": false,
      "t": 208932.29166666602,
      "d": 223.95833333334303,
      "v": 90
    },
    {
      "midi": 44,
      "hit": false,
      "t": 208953.12499999892,
      "d": 119.79166666665697,
      "v": 65
    },
    {
      "midi": 61,
      "hit": false,
      "t": 209088.54166666625,
      "d": 57.291666666656965,
      "v": 105
    },
    {
      "midi": 63,
      "hit": false,
      "t": 209088.54166666625,
      "d": 57.291666666656965,
      "v": 105
    },
    {
      "midi": 61,
      "hit": false,
      "t": 209114.58333333224,
      "d": 57.291666666656965,
      "v": 105
    },
    {
      "midi": 63,
      "hit": false,
      "t": 209114.58333333224,
      "d": 57.291666666656965,
      "v": 105
    },
    {
      "midi": 73,
      "hit": false,
      "t": 209250.00000000102,
      "d": 145.83333333334303,
      "v": 83
    },
    {
      "midi": 75,
      "hit": false,
      "t": 209255.20833333436,
      "d": 140.625,
      "v": 83
    },
    {
      "midi": 63,
      "hit": false,
      "t": 209406.24999999936,
      "d": 229.16666666665697,
      "v": 90
    },
    {
      "midi": 51,
      "hit": false,
      "t": 209406.24999999956,
      "d": 88.54166666665697,
      "v": 82
    },
    {
      "midi": 51,
      "hit": false,
      "t": 209432.29166666555,
      "d": 88.54166666665697,
      "v": 65
    },
    {
      "midi": 60,
      "hit": false,
      "t": 209567.70833333288,
      "d": 145.83333333334303,
      "v": 105
    },
    {
      "midi": 63,
      "hit": false,
      "t": 209572.91666666622,
      "d": 145.83333333334303,
      "v": 105
    },
    {
      "midi": 72,
      "hit": false,
      "t": 209572.9166666677,
      "d": 140.625,
      "v": 83
    },
    {
      "midi": 75,
      "hit": false,
      "t": 209572.9166666677,
      "d": 140.625,
      "v": 83
    },
    {
      "midi": 60,
      "hit": false,
      "t": 209588.54166666555,
      "d": 151.04166666668607,
      "v": 105
    },
    {
      "midi": 63,
      "hit": false,
      "t": 209593.7499999989,
      "d": 145.83333333334303,
      "v": 105
    },
    {
      "midi": 60,
      "hit": false,
      "t": 209723.95833333267,
      "d": 390.625,
      "v": 90
    },
    {
      "midi": 48,
      "hit": false,
      "t": 209723.9583333329,
      "d": 57.291666666656965,
      "v": 82
    },
    {
      "midi": 48,
      "hit": false,
      "t": 209749.9999999989,
      "d": 57.291666666656965,
      "v": 65
    },
    {
      "midi": 46,
      "hit": false,
      "t": 209890.62499999956,
      "d": 114.58333333334303,
      "v": 82
    },
    {
      "midi": 58,
      "hit": false,
      "t": 209895.83333333267,
      "d": 296.875,
      "v": 90
    },
    {
      "midi": 46,
      "hit": false,
      "t": 209911.4583333322,
      "d": 119.79166666665697,
      "v": 65
    },
    {
      "midi": 61,
      "hit": false,
      "t": 210041.66666666625,
      "d": 57.291666666656965,
      "v": 105
    },
    {
      "midi": 65,
      "hit": false,
      "t": 210041.66666666625,
      "d": 57.291666666656965,
      "v": 105
    },
    {
      "midi": 61,
      "hit": false,
      "t": 210067.7083333322,
      "d": 57.291666666656965,
      "v": 105
    },
    {
      "midi": 65,
      "hit": false,
      "t": 210067.7083333322,
      "d": 57.291666666656965,
      "v": 105
    },
    {
      "midi": 73,
      "hit": false,
      "t": 210208.33333333436,
      "d": 62.5,
      "v": 83
    },
    {
      "midi": 77,
      "hit": false,
      "t": 210208.33333333436,
      "d": 62.5,
      "v": 83
    },
    {
      "midi": 61,
      "hit": false,
      "t": 210359.37499999933,
      "d": 234.375,
      "v": 90
    },
    {
      "midi": 49,
      "hit": false,
      "t": 210359.37499999956,
      "d": 88.54166666665697,
      "v": 82
    },
    {
      "midi": 49,
      "hit": false,
      "t": 210385.41666666552,
      "d": 88.54166666665697,
      "v": 65
    },
    {
      "midi": 61,
      "hit": false,
      "t": 210526.04166666622,
      "d": 145.83333333334303,
      "v": 105
    },
    {
      "midi": 65,
      "hit": false,
      "t": 210526.04166666622,
      "d": 145.83333333334303,
      "v": 105
    },
    {
      "midi": 73,
      "hit": false,
      "t": 210531.25000000102,
      "d": 140.625,
      "v": 83
    },
    {
      "midi": 77,
      "hit": false,
      "t": 210531.25000000102,
      "d": 140.625,
      "v": 83
    },
    {
      "midi": 61,
      "hit": false,
      "t": 210546.87499999884,
      "d": 151.04166666665697,
      "v": 105
    },
    {
      "midi": 65,
      "hit": false,
      "t": 210546.87499999884,
      "d": 151.04166666665697,
      "v": 105
    },
    {
      "midi": 46,
      "hit": false,
      "t": 210677.0833333329,
      "d": 57.291666666656965,
      "v": 82
    },
    {
      "midi": 58,
      "hit": false,
      "t": 210682.291666666,
      "d": 151.04166666665697,
      "v": 90
    },
    {
      "midi": 46,
      "hit": false,
      "t": 210703.12499999884,
      "d": 57.291666666656965,
      "v": 65
    },
    {
      "midi": 41,
      "hit": false,
      "t": 210838.54166666622,
      "d": 119.79166666665697,
      "v": 82
    },
    {
      "midi": 53,
      "hit": false,
      "t": 210843.7499999993,
      "d": 307.29166666665697,
      "v": 90
    },
    {
      "midi": 41,
      "hit": false,
      "t": 210864.58333333215,
      "d": 119.79166666665697,
      "v": 65
    },
    {
      "midi": 60,
      "hit": false,
      "t": 211161.45833333262,
      "d": 223.95833333334303,
      "v": 90
    },
    {
      "midi": 60,
      "hit": false,
      "t": 211161.45833333288,
      "d": 57.29166666668607,
      "v": 105
    },
    {
      "midi": 48,
      "hit": false,
      "t": 211161.45833333288,
      "d": 88.54166666668607,
      "v": 82
    },
    {
      "midi": 65,
      "hit": false,
      "t": 211166.66666666622,
      "d": 57.29166666668607,
      "v": 105
    },
    {
      "midi": 68,
      "hit": false,
      "t": 211166.66666666768,
      "d": 140.625,
      "v": 83
    },
    {
      "midi": 72,
      "hit": false,
      "t": 211171.87500000102,
      "d": 140.625,
      "v": 83
    },
    {
      "midi": 60,
      "hit": false,
      "t": 211182.29166666546,
      "d": 57.29166666668607,
      "v": 105
    },
    {
      "midi": 48,
      "hit": false,
      "t": 211182.29166666546,
      "d": 119.79166666668607,
      "v": 65
    },
    {
      "midi": 65,
      "hit": false,
      "t": 211187.4999999988,
      "d": 57.29166666668607,
      "v": 105
    },
    {
      "midi": 56,
      "hit": false,
      "t": 211479.16666666596,
      "d": 145.83333333334303,
      "v": 90
    },
    {
      "midi": 44,
      "hit": false,
      "t": 211479.16666666622,
      "d": 57.29166666668607,
      "v": 82
    },
    {
      "midi": 60,
      "hit": false,
      "t": 211484.37499999956,
      "d": 145.83333333334303,
      "v": 105
    },
    {
      "midi": 65,
      "hit": false,
      "t": 211484.37499999956,
      "d": 145.83333333334303,
      "v": 105
    },
    {
      "midi": 68,
      "hit": false,
      "t": 211484.37500000102,
      "d": 140.625,
      "v": 83
    },
    {
      "midi": 72,
      "hit": false,
      "t": 211489.58333333436,
      "d": 140.625,
      "v": 83
    },
    {
      "midi": 44,
      "hit": false,
      "t": 211499.9999999988,
      "d": 57.29166666668607,
      "v": 65
    },
    {
      "midi": 60,
      "hit": false,
      "t": 211505.20833333215,
      "d": 145.83333333334303,
      "v": 105
    },
    {
      "midi": 65,
      "hit": false,
      "t": 211505.20833333215,
      "d": 145.83333333334303,
      "v": 105
    },
    {
      "midi": 42,
      "hit": false,
      "t": 211796.87499999956,
      "d": 119.79166666665697,
      "v": 82
    },
    {
      "midi": 54,
      "hit": false,
      "t": 211802.08333333264,
      "d": 302.08333333334303,
      "v": 90
    },
    {
      "midi": 42,
      "hit": false,
      "t": 211817.70833333215,
      "d": 119.79166666665697,
      "v": 65
    },
    {
      "midi": 58,
      "hit": false,
      "t": 211953.12499999956,
      "d": 57.291666666656965,
      "v": 105
    },
    {
      "midi": 61,
      "hit": false,
      "t": 211953.12499999956,
      "d": 57.291666666656965,
      "v": 105
    },
    {
      "midi": 58,
      "hit": false,
      "t": 211979.16666666546,
      "d": 57.291666666656965,
      "v": 105
    },
    {
      "midi": 61,
      "hit": false,
      "t": 211979.16666666546,
      "d": 57.291666666656965,
      "v": 105
    },
    {
      "midi": 70,
      "hit": false,
      "t": 212114.58333333436,
      "d": 67.70833333334303,
      "v": 83
    },
    {
      "midi": 73,
      "hit": false,
      "t": 212119.7916666677,
      "d": 140.625,
      "v": 83
    },
    {
      "midi": 61,
      "hit": false,
      "t": 212270.83333333264,
      "d": 229.16666666665697,
      "v": 90
    },
    {
      "midi": 49,
      "hit": false,
      "t": 212270.83333333288,
      "d": 88.54166666665697,
      "v": 82
    },
    {
      "midi": 49,
      "hit": false,
      "t": 212296.87499999878,
      "d": 88.54166666665697,
      "v": 65
    },
    {
      "midi": 58,
      "hit": false,
      "t": 212432.2916666662,
      "d": 145.83333333334303,
      "v": 105
    },
    {
      "midi": 61,
      "hit": false,
      "t": 212437.49999999953,
      "d": 145.83333333334303,
      "v": 105
    },
    {
      "midi": 70,
      "hit": false,
      "t": 212437.50000000105,
      "d": 145.83333333334303,
      "v": 83
    },
    {
      "midi": 73,
      "hit": false,
      "t": 212437.50000000105,
      "d": 145.83333333334303,
      "v": 83
    },
    {
      "midi": 58,
      "hit": false,
      "t": 212458.3333333321,
      "d": 145.83333333334303,
      "v": 105
    },
    {
      "midi": 61,
      "hit": false,
      "t": 212458.3333333321,
      "d": 151.04166666668607,
      "v": 105
    },
    {
      "midi": 46,
      "hit": false,
      "t": 212588.54166666622,
      "d": 57.291666666656965,
      "v": 82
    },
    {
      "midi": 58,
      "hit": false,
      "t": 212593.7499999993,
      "d": 145.83333333334303,
      "v": 90
    },
    {
      "midi": 46,
      "hit": false,
      "t": 212614.58333333212,
      "d": 57.291666666656965,
      "v": 65
    },
    {
      "midi": 44,
      "hit": false,
      "t": 212749.99999999953,
      "d": 119.79166666665697,
      "v": 82
    },
    {
      "midi": 56,
      "hit": false,
      "t": 212755.20833333264,
      "d": 223.95833333334303,
      "v": 90
    },
    {
      "midi": 44,
      "hit": false,
      "t": 212776.04166666543,
      "d": 119.79166666665697,
      "v": 65
    },
    {
      "midi": 61,
      "hit": false,
      "t": 212906.24999999953,
      "d": 57.29166666668607,
      "v": 105
    },
    {
      "midi": 63,
      "hit": false,
      "t": 212911.45833333288,
      "d": 57.29166666668607,
      "v": 105
    },
    {
      "midi": 61,
      "hit": false,
      "t": 212932.29166666543,
      "d": 57.29166666668607,
      "v": 105
    },
    {
      "midi": 63,
      "hit": false,
      "t": 212937.49999999878,
      "d": 57.29166666668607,
      "v": 105
    },
    {
      "midi": 73,
      "hit": false,
      "t": 213072.91666666773,
      "d": 145.83333333334303,
      "v": 83
    },
    {
      "midi": 75,
      "hit": false,
      "t": 213072.91666666773,
      "d": 145.83333333334303,
      "v": 83
    },
    {
      "midi": 51,
      "hit": false,
      "t": 213223.9583333329,
      "d": 88.54166666665697,
      "v": 82
    },
    {
      "midi": 63,
      "hit": false,
      "t": 213229.166666666,
      "d": 229.16666666665697,
      "v": 90
    },
    {
      "midi": 51,
      "hit": false,
      "t": 213255.20833333212,
      "d": 88.54166666665697,
      "v": 65
    },
    {
      "midi": 60,
      "hit": false,
      "t": 213390.62499999956,
      "d": 145.83333333334303,
      "v": 105
    },
    {
      "midi": 63,
      "hit": false,
      "t": 213390.62499999956,
      "d": 145.83333333334303,
      "v": 105
    },
    {
      "midi": 72,
      "hit": false,
      "t": 213395.83333333442,
      "d": 140.625,
      "v": 83
    },
    {
      "midi": 75,
      "hit": false,
      "t": 213395.83333333442,
      "d": 140.625,
      "v": 83
    },
    {
      "midi": 60,
      "hit": false,
      "t": 213411.45833333212,
      "d": 151.04166666668607,
      "v": 105
    },
    {
      "midi": 63,
      "hit": false,
      "t": 213416.66666666546,
      "d": 145.83333333334303,
      "v": 105
    },
    {
      "midi": 60,
      "hit": false,
      "t": 213546.8749999993,
      "d": 385.41666666665697,
      "v": 90
    },
    {
      "midi": 48,
      "hit": false,
      "t": 213546.87499999956,
      "d": 57.291666666656965,
      "v": 82
    },
    {
      "midi": 48,
      "hit": false,
      "t": 213572.91666666546,
      "d": 57.291666666656965,
      "v": 65
    },
    {
      "midi": 46,
      "hit": false,
      "t": 213713.54166666622,
      "d": 114.58333333334303,
      "v": 82
    },
    {
      "midi": 58,
      "hit": false,
      "t": 213718.7499999993,
      "d": 296.875,
      "v": 90
    },
    {
      "midi": 46,
      "hit": false,
      "t": 213729.16666666546,
      "d": 119.79166666665697,
      "v": 65
    },
    {
      "midi": 61,
      "hit": false,
      "t": 213864.5833333329,
      "d": 57.291666666656965,
      "v": 105
    },
    {
      "midi": 65,
      "hit": false,
      "t": 213864.5833333329,
      "d": 57.291666666656965,
      "v": 105
    },
    {
      "midi": 61,
      "hit": false,
      "t": 213890.62499999878,
      "d": 57.291666666656965,
      "v": 105
    },
    {
      "midi": 65,
      "hit": false,
      "t": 213890.62499999878,
      "d": 57.291666666656965,
      "v": 105
    },
    {
      "midi": 73,
      "hit": false,
      "t": 214026.04166666776,
      "d": 67.70833333334303,
      "v": 83
    },
    {
      "midi": 77,
      "hit": false,
      "t": 214026.04166666776,
      "d": 67.70833333334303,
      "v": 83
    },
    {
      "midi": 61,
      "hit": false,
      "t": 214182.29166666596,
      "d": 229.16666666665697,
      "v": 90
    },
    {
      "midi": 49,
      "hit": false,
      "t": 214182.29166666622,
      "d": 88.54166666665697,
      "v": 82
    },
    {
      "midi": 49,
      "hit": false,
      "t": 214208.3333333321,
      "d": 88.54166666665697,
      "v": 65
    },
    {
      "midi": 61,
      "hit": false,
      "t": 214343.74999999953,
      "d": 145.83333333334303,
      "v": 105
    },
    {
      "midi": 65,
      "hit": false,
      "t": 214348.95833333288,
      "d": 145.83333333334303,
      "v": 105
    },
    {
      "midi": 73,
      "hit": false,
      "t": 214348.95833333445,
      "d": 140.625,
      "v": 83
    },
    {
      "midi": 77,
      "hit": false,
      "t": 214348.95833333445,
      "d": 145.83333333334303,
      "v": 83
    },
    {
      "midi": 61,
      "hit": false,
      "t": 214369.7916666654,
      "d": 145.83333333334303,
      "v": 105
    },
    {
      "midi": 65,
      "hit": false,
      "t": 214369.7916666654,
      "d": 151.04166666668607,
      "v": 105
    },
    {
      "midi": 58,
      "hit": false,
      "t": 214499.99999999927,
      "d": 151.04166666665697,
      "v": 90
    },
    {
      "midi": 46,
      "hit": false,
      "t": 214499.99999999956,
      "d": 57.291666666656965,
      "v": 82
    },
    {
      "midi": 46,
      "hit": false,
      "t": 214526.04166666543,
      "d": 57.291666666656965,
      "v": 65
    },
    {
      "midi": 41,
      "hit": false,
      "t": 214661.45833333288,
      "d": 119.79166666665697,
      "v": 82
    },
    {
      "midi": 53,
      "hit": false,
      "t": 214666.66666666593,
      "d": 302.08333333334303,
      "v": 90
    },
    {
      "midi": 41,
      "hit": false,
      "t": 214687.49999999875,
      "d": 119.79166666665697,
      "v": 65
    },
    {
      "midi": 48,
      "hit": false,
      "t": 214979.1666666662,
      "d": 88.54166666671517,
      "v": 82
    },
    {
      "midi": 60,
      "hit": false,
      "t": 214984.37499999927,
      "d": 223.95833333334303,
      "v": 90
    },
    {
      "midi": 60,
      "hit": false,
      "t": 214984.37499999953,
      "d": 57.29166666668607,
      "v": 105
    },
    {
      "midi": 65,
      "hit": false,
      "t": 214989.58333333288,
      "d": 57.29166666668607,
      "v": 105
    },
    {
      "midi": 68,
      "hit": false,
      "t": 214989.58333333445,
      "d": 140.625,
      "v": 83
    },
    {
      "midi": 72,
      "hit": false,
      "t": 214989.58333333445,
      "d": 140.625,
      "v": 83
    },
    {
      "midi": 60,
      "hit": false,
      "t": 215005.20833333206,
      "d": 57.29166666668607,
      "v": 105
    },
    {
      "midi": 48,
      "hit": false,
      "t": 215005.20833333206,
      "d": 119.79166666668607,
      "v": 65
    },
    {
      "midi": 65,
      "hit": false,
      "t": 215010.4166666654,
      "d": 57.29166666668607,
      "v": 105
    },
    {
      "midi": 44,
      "hit": false,
      "t": 215296.87499999956,
      "d": 57.29166666668607,
      "v": 82
    },
    {
      "midi": 56,
      "hit": false,
      "t": 215302.08333333262,
      "d": 145.83333333334303,
      "v": 90
    },
    {
      "midi": 60,
      "hit": false,
      "t": 215302.0833333329,
      "d": 145.83333333334303,
      "v": 105
    },
    {
      "midi": 65,
      "hit": false,
      "t": 215307.29166666625,
      "d": 145.83333333334303,
      "v": 105
    },
    {
      "midi": 68,
      "hit": false,
      "t": 215307.2916666678,
      "d": 140.625,
      "v": 83
    },
    {
      "midi": 72,
      "hit": false,
      "t": 215312.50000000114,
      "d": 140.625,
      "v": 83
    },
    {
      "midi": 44,
      "hit": false,
      "t": 215322.9166666654,
      "d": 57.29166666668607,
      "v": 65
    },
    {
      "midi": 60,
      "hit": false,
      "t": 215322.9166666654,
      "d": 151.04166666668607,
      "v": 105
    },
    {
      "midi": 65,
      "hit": false,
      "t": 215328.12499999875,
      "d": 145.83333333334303,
      "v": 105
    },
    {
      "midi": 54,
      "hit": false,
      "t": 215619.79166666596,
      "d": 307.29166666665697,
      "v": 90
    },
    {
      "midi": 42,
      "hit": false,
      "t": 215619.79166666625,
      "d": 119.79166666665697,
      "v": 82
    },
    {
      "midi": 42,
      "hit": false,
      "t": 215640.62499999875,
      "d": 119.79166666665697,
      "v": 65
    },
    {
      "midi": 58,
      "hit": false,
      "t": 215776.04166666625,
      "d": 57.291666666656965,
      "v": 105
    },
    {
      "midi": 61,
      "hit": false,
      "t": 215776.04166666625,
      "d": 57.291666666656965,
      "v": 105
    },
    {
      "midi": 58,
      "hit": false,
      "t": 215802.08333333206,
      "d": 57.291666666656965,
      "v": 105
    },
    {
      "midi": 61,
      "hit": false,
      "t": 215802.08333333206,
      "d": 57.291666666656965,
      "v": 105
    },
    {
      "midi": 70,
      "hit": false,
      "t": 215937.50000000114,
      "d": 67.70833333334303,
      "v": 83
    },
    {
      "midi": 73,
      "hit": false,
      "t": 215937.50000000114,
      "d": 145.83333333334303,
      "v": 83
    },
    {
      "midi": 61,
      "hit": false,
      "t": 216093.74999999927,
      "d": 229.16666666665697,
      "v": 90
    },
    {
      "midi": 49,
      "hit": false,
      "t": 216093.74999999956,
      "d": 88.54166666665697,
      "v": 82
    },
    {
      "midi": 49,
      "hit": false,
      "t": 216119.79166666538,
      "d": 88.54166666665697,
      "v": 65
    },
    {
      "midi": 58,
      "hit": false,
      "t": 216255.20833333288,
      "d": 145.83333333334303,
      "v": 105
    },
    {
      "midi": 61,
      "hit": false,
      "t": 216255.20833333288,
      "d": 145.83333333334303,
      "v": 105
    },
    {
      "midi": 70,
      "hit": false,
      "t": 216260.41666666782,
      "d": 140.625,
      "v": 83
    },
    {
      "midi": 73,
      "hit": false,
      "t": 216260.41666666782,
      "d": 145.83333333334303,
      "v": 83
    },
    {
      "midi": 58,
      "hit": false,
      "t": 216281.2499999987,
      "d": 145.83333333334303,
      "v": 105
    },
    {
      "midi": 61,
      "hit": false,
      "t": 216281.2499999987,
      "d": 145.83333333334303,
      "v": 105
    },
    {
      "midi": 58,
      "hit": false,
      "t": 216411.4583333326,
      "d": 151.04166666665697,
      "v": 90
    },
    {
      "midi": 46,
      "hit": false,
      "t": 216411.45833333288,
      "d": 57.291666666656965,
      "v": 82
    },
    {
      "midi": 46,
      "hit": false,
      "t": 216437.4999999987,
      "d": 57.291666666656965,
      "v": 65
    },
    {
      "midi": 44,
      "hit": false,
      "t": 216572.9166666662,
      "d": 119.79166666665697,
      "v": 82
    },
    {
      "midi": 56,
      "hit": false,
      "t": 216578.12499999924,
      "d": 223.95833333334303,
      "v": 90
    },
    {
      "midi": 44,
      "hit": false,
      "t": 216598.958333332,
      "d": 119.79166666665697,
      "v": 65
    },
    {
      "midi": 61,
      "hit": false,
      "t": 216729.1666666662,
      "d": 57.29166666668607,
      "v": 105
    },
    {
      "midi": 63,
      "hit": false,
      "t": 216734.37499999953,
      "d": 57.29166666668607,
      "v": 105
    },
    {
      "midi": 61,
      "hit": false,
      "t": 216755.208333332,
      "d": 57.29166666668607,
      "v": 105
    },
    {
      "midi": 63,
      "hit": false,
      "t": 216760.41666666535,
      "d": 57.29166666668607,
      "v": 105
    },
    {
      "midi": 73,
      "hit": false,
      "t": 216895.8333333345,
      "d": 145.83333333334303,
      "v": 83
    },
    {
      "midi": 75,
      "hit": false,
      "t": 216895.8333333345,
      "d": 145.83333333334303,
      "v": 83
    },
    {
      "midi": 51,
      "hit": false,
      "t": 217046.87499999956,
      "d": 88.54166666665697,
      "v": 82
    },
    {
      "midi": 63,
      "hit": false,
      "t": 217052.0833333326,
      "d": 229.16666666665697,
      "v": 90
    },
    {
      "midi": 51,
      "hit": false,
      "t": 217072.91666666538,
      "d": 88.54166666665697,
      "v": 65
    },
    {
      "midi": 60,
      "hit": false,
      "t": 217213.54166666622,
      "d": 145.83333333334303,
      "v": 105
    },
    {
      "midi": 63,
      "hit": false,
      "t": 217213.54166666622,
      "d": 145.83333333334303,
      "v": 105
    },
    {
      "midi": 72,
      "hit": false,
      "t": 217218.7500000012,
      "d": 140.625,
      "v": 83
    },
    {
      "midi": 75,
      "hit": false,
      "t": 217218.7500000012,
      "d": 140.625,
      "v": 83
    },
    {
      "midi": 60,
      "hit": false,
      "t": 217234.3749999987,
      "d": 151.04166666665697,
      "v": 105
    },
    {
      "midi": 63,
      "hit": false,
      "t": 217234.3749999987,
      "d": 151.04166666665697,
      "v": 105
    },
    {
      "midi": 48,
      "hit": false,
      "t": 217364.5833333329,
      "d": 57.291666666656965,
      "v": 82
    },
    {
      "midi": 60,
      "hit": false,
      "t": 217369.7916666659,
      "d": 385.41666666665697,
      "v": 90
    },
    {
      "midi": 48,
      "hit": false,
      "t": 217395.833333332,
      "d": 57.291666666656965,
      "v": 65
    },
    {
      "midi": 46,
      "hit": false,
      "t": 217536.4583333329,
      "d": 114.58333333334303,
      "v": 82
    },
    {
      "midi": 58,
      "hit": false,
      "t": 217541.6666666659,
      "d": 296.875,
      "v": 90
    },
    {
      "midi": 46,
      "hit": false,
      "t": 217552.083333332,
      "d": 119.79166666665697,
      "v": 65
    },
    {
      "midi": 61,
      "hit": false,
      "t": 217687.4999999996,
      "d": 57.291666666656965,
      "v": 105
    },
    {
      "midi": 65,
      "hit": false,
      "t": 217687.4999999996,
      "d": 57.291666666656965,
      "v": 105
    },
    {
      "midi": 61,
      "hit": false,
      "t": 217713.54166666532,
      "d": 57.291666666656965,
      "v": 105
    },
    {
      "midi": 65,
      "hit": false,
      "t": 217713.54166666532,
      "d": 57.291666666656965,
      "v": 105
    },
    {
      "midi": 73,
      "hit": false,
      "t": 217848.95833333454,
      "d": 67.70833333334303,
      "v": 83
    },
    {
      "midi": 77,
      "hit": false,
      "t": 217854.16666666788,
      "d": 62.5,
      "v": 83
    },
    {
      "midi": 61,
      "hit": false,
      "t": 218005.20833333256,
      "d": 229.16666666665697,
      "v": 90
    },
    {
      "midi": 49,
      "hit": false,
      "t": 218005.2083333329,
      "d": 88.54166666665697,
      "v": 82
    },
    {
      "midi": 49,
      "hit": false,
      "t": 218031.24999999863,
      "d": 88.54166666665697,
      "v": 65
    },
    {
      "midi": 61,
      "hit": false,
      "t": 218166.66666666622,
      "d": 145.83333333334303,
      "v": 105
    },
    {
      "midi": 65,
      "hit": false,
      "t": 218171.87499999956,
      "d": 145.83333333334303,
      "v": 105
    },
    {
      "midi": 73,
      "hit": false,
      "t": 218171.87500000122,
      "d": 140.625,
      "v": 83
    },
    {
      "midi": 77,
      "hit": false,
      "t": 218177.08333333457,
      "d": 135.41666666665697,
      "v": 83
    },
    {
      "midi": 61,
      "hit": false,
      "t": 218187.49999999863,
      "d": 151.04166666668607,
      "v": 105
    },
    {
      "midi": 65,
      "hit": false,
      "t": 218192.70833333198,
      "d": 145.83333333334303,
      "v": 105
    },
    {
      "midi": 58,
      "hit": false,
      "t": 218322.91666666587,
      "d": 151.04166666665697,
      "v": 90
    },
    {
      "midi": 46,
      "hit": false,
      "t": 218322.91666666625,
      "d": 57.291666666656965,
      "v": 82
    },
    {
      "midi": 46,
      "hit": false,
      "t": 218348.95833333198,
      "d": 57.291666666656965,
      "v": 65
    },
    {
      "midi": 41,
      "hit": false,
      "t": 218484.37499999956,
      "d": 119.79166666665697,
      "v": 82
    },
    {
      "midi": 53,
      "hit": false,
      "t": 218489.58333333253,
      "d": 302.08333333334303,
      "v": 90
    },
    {
      "midi": 41,
      "hit": false,
      "t": 218510.4166666653,
      "d": 119.79166666665697,
      "v": 65
    },
    {
      "midi": 48,
      "hit": false,
      "t": 218802.08333333288,
      "d": 88.54166666665697,
      "v": 82
    },
    {
      "midi": 60,
      "hit": false,
      "t": 218807.29166666587,
      "d": 223.95833333334303,
      "v": 90
    },
    {
      "midi": 60,
      "hit": false,
      "t": 218807.29166666622,
      "d": 57.291666666656965,
      "v": 105
    },
    {
      "midi": 65,
      "hit": false,
      "t": 218807.29166666622,
      "d": 57.291666666656965,
      "v": 105
    },
    {
      "midi": 68,
      "hit": false,
      "t": 218812.50000000122,
      "d": 140.625,
      "v": 83
    },
    {
      "midi": 72,
      "hit": false,
      "t": 218812.50000000122,
      "d": 140.625,
      "v": 83
    },
    {
      "midi": 60,
      "hit": false,
      "t": 218828.1249999986,
      "d": 57.291666666656965,
      "v": 105
    },
    {
      "midi": 65,
      "hit": false,
      "t": 218828.1249999986,
      "d": 57.291666666656965,
      "v": 105
    },
    {
      "midi": 48,
      "hit": false,
      "t": 218828.1249999986,
      "d": 119.79166666665697,
      "v": 65
    },
    {
      "midi": 44,
      "hit": false,
      "t": 219119.7916666662,
      "d": 57.29166666668607,
      "v": 82
    },
    {
      "midi": 56,
      "hit": false,
      "t": 219124.9999999992,
      "d": 145.83333333334303,
      "v": 90
    },
    {
      "midi": 60,
      "hit": false,
      "t": 219124.99999999953,
      "d": 145.83333333334303,
      "v": 105
    },
    {
      "midi": 65,
      "hit": false,
      "t": 219130.20833333288,
      "d": 145.83333333334303,
      "v": 105
    },
    {
      "midi": 68,
      "hit": false,
      "t": 219130.20833333457,
      "d": 140.625,
      "v": 83
    },
    {
      "midi": 72,
      "hit": false,
      "t": 219130.20833333457,
      "d": 140.625,
      "v": 83
    },
    {
      "midi": 44,
      "hit": false,
      "t": 219145.83333333192,
      "d": 57.291666666656965,
      "v": 65
    },
    {
      "midi": 60,
      "hit": false,
      "t": 219145.83333333192,
      "d": 151.04166666665697,
      "v": 105
    },
    {
      "midi": 65,
      "hit": false,
      "t": 219145.83333333192,
      "d": 151.04166666665697,
      "v": 105
    },
    {
      "midi": 42,
      "hit": false,
      "t": 219437.49999999956,
      "d": 119.79166666665697,
      "v": 82
    },
    {
      "midi": 54,
      "hit": false,
      "t": 219442.70833333256,
      "d": 307.29166666665697,
      "v": 90
    },
    {
      "midi": 42,
      "hit": false,
      "t": 219463.54166666523,
      "d": 119.79166666665697,
      "v": 65
    },
    {
      "midi": 58,
      "hit": false,
      "t": 219593.74999999956,
      "d": 57.29166666668607,
      "v": 105
    },
    {
      "midi": 61,
      "hit": false,
      "t": 219598.9583333329,
      "d": 57.29166666668607,
      "v": 105
    },
    {
      "midi": 58,
      "hit": false,
      "t": 219624.99999999854,
      "d": 57.291666666656965,
      "v": 105
    },
    {
      "midi": 61,
      "hit": false,
      "t": 219624.99999999854,
      "d": 57.291666666656965,
      "v": 105
    },
    {
      "midi": 70,
      "hit": false,
      "t": 219760.4166666679,
      "d": 67.70833333334303,
      "v": 83
    },
    {
      "midi": 73,
      "hit": false,
      "t": 219760.4166666679,
      "d": 145.83333333334303,
      "v": 83
    },
    {
      "midi": 61,
      "hit": false,
      "t": 219916.66666666587,
      "d": 229.16666666665697,
      "v": 90
    },
    {
      "midi": 49,
      "hit": false,
      "t": 219916.66666666625,
      "d": 88.54166666665697,
      "v": 82
    },
    {
      "midi": 49,
      "hit": false,
      "t": 219942.70833333186,
      "d": 88.54166666665697,
      "v": 65
    },
    {
      "midi": 58,
      "hit": false,
      "t": 220078.12499999956,
      "d": 145.83333333334303,
      "v": 105
    },
    {
      "midi": 61,
      "hit": false,
      "t": 220078.12499999956,
      "d": 145.83333333334303,
      "v": 105
    },
    {
      "midi": 70,
      "hit": false,
      "t": 220083.3333333346,
      "d": 140.625,
      "v": 83
    },
    {
      "midi": 73,
      "hit": false,
      "t": 220083.3333333346,
      "d": 140.625,
      "v": 83
    },
    {
      "midi": 58,
      "hit": false,
      "t": 220098.95833333186,
      "d": 151.04166666668607,
      "v": 105
    },
    {
      "midi": 61,
      "hit": false,
      "t": 220104.1666666652,
      "d": 145.83333333334303,
      "v": 105
    },
    {
      "midi": 58,
      "hit": false,
      "t": 220234.37499999919,
      "d": 151.04166666665697,
      "v": 90
    },
    {
      "midi": 46,
      "hit": false,
      "t": 220234.37499999956,
      "d": 57.291666666656965,
      "v": 82
    },
    {
      "midi": 46,
      "hit": false,
      "t": 220260.4166666652,
      "d": 57.291666666656965,
      "v": 65
    },
    {
      "midi": 56,
      "hit": false,
      "t": 220395.8333333325,
      "d": 229.16666666665697,
      "v": 90
    },
    {
      "midi": 44,
      "hit": false,
      "t": 220395.83333333288,
      "d": 119.79166666665697,
      "v": 82
    },
    {
      "midi": 44,
      "hit": false,
      "t": 220416.6666666652,
      "d": 119.79166666665697,
      "v": 65
    },
    {
      "midi": 61,
      "hit": false,
      "t": 220552.08333333288,
      "d": 57.291666666656965,
      "v": 105
    },
    {
      "midi": 63,
      "hit": false,
      "t": 220552.08333333288,
      "d": 57.291666666656965,
      "v": 105
    },
    {
      "midi": 61,
      "hit": false,
      "t": 220578.12499999852,
      "d": 57.291666666656965,
      "v": 105
    },
    {
      "midi": 63,
      "hit": false,
      "t": 220578.12499999852,
      "d": 57.291666666656965,
      "v": 105
    },
    {
      "midi": 73,
      "hit": false,
      "t": 220718.75000000125,
      "d": 140.625,
      "v": 83
    },
    {
      "midi": 75,
      "hit": false,
      "t": 220718.75000000125,
      "d": 145.83333333334303,
      "v": 83
    },
    {
      "midi": 63,
      "hit": false,
      "t": 220869.7916666658,
      "d": 229.16666666665697,
      "v": 90
    },
    {
      "midi": 51,
      "hit": false,
      "t": 220869.7916666662,
      "d": 88.54166666665697,
      "v": 82
    },
    {
      "midi": 51,
      "hit": false,
      "t": 220895.83333333183,
      "d": 88.54166666665697,
      "v": 65
    },
    {
      "midi": 60,
      "hit": false,
      "t": 221036.45833333285,
      "d": 145.83333333334303,
      "v": 105
    },
    {
      "midi": 63,
      "hit": false,
      "t": 221036.45833333285,
      "d": 145.83333333334303,
      "v": 105
    },
    {
      "midi": 72,
      "hit": false,
      "t": 221036.4583333346,
      "d": 145.83333333334303,
      "v": 83
    },
    {
      "midi": 75,
      "hit": false,
      "t": 221041.66666666794,
      "d": 140.625,
      "v": 83
    },
    {
      "midi": 60,
      "hit": false,
      "t": 221057.29166666514,
      "d": 151.04166666665697,
      "v": 105
    },
    {
      "midi": 63,
      "hit": false,
      "t": 221057.29166666514,
      "d": 151.04166666665697,
      "v": 105
    },
    {
      "midi": 48,
      "hit": false,
      "t": 221187.49999999953,
      "d": 57.291666666656965,
      "v": 82
    },
    {
      "midi": 60,
      "hit": false,
      "t": 221192.70833333247,
      "d": 385.41666666668607,
      "v": 90
    },
    {
      "midi": 48,
      "hit": false,
      "t": 221213.54166666514,
      "d": 57.291666666656965,
      "v": 65
    },
    {
      "midi": 46,
      "hit": false,
      "t": 221354.1666666662,
      "d": 114.58333333334303,
      "v": 82
    },
    {
      "midi": 58,
      "hit": false,
      "t": 221359.37499999916,
      "d": 296.875,
      "v": 60
    },
    {
      "midi": 46,
      "hit": false,
      "t": 221374.99999999846,
      "d": 119.79166666665697,
      "v": 65
    },
    {
      "midi": 61,
      "hit": false,
      "t": 221505.20833333288,
      "d": 57.29166666668607,
      "v": 105
    },
    {
      "midi": 65,
      "hit": false,
      "t": 221510.41666666622,
      "d": 57.29166666668607,
      "v": 105
    },
    {
      "midi": 61,
      "hit": false,
      "t": 221531.24999999846,
      "d": 57.29166666668607,
      "v": 105
    },
    {
      "midi": 65,
      "hit": false,
      "t": 221536.4583333318,
      "d": 57.29166666668607,
      "v": 105
    },
    {
      "midi": 73,
      "hit": false,
      "t": 221671.87500000128,
      "d": 67.70833333334303,
      "v": 55
    },
    {
      "midi": 77,
      "hit": false,
      "t": 221671.87500000128,
      "d": 67.70833333334303,
      "v": 55
    },
    {
      "midi": 61,
      "hit": false,
      "t": 221828.12499999916,
      "d": 229.16666666665697,
      "v": 60
    },
    {
      "midi": 49,
      "hit": false,
      "t": 221828.12499999956,
      "d": 88.54166666665697,
      "v": 82
    },
    {
      "midi": 49,
      "hit": false,
      "t": 221854.16666666514,
      "d": 88.54166666665697,
      "v": 65
    },
    {
      "midi": 61,
      "hit": false,
      "t": 221989.58333333288,
      "d": 145.83333333334303,
      "v": 105
    },
    {
      "midi": 65,
      "hit": false,
      "t": 221989.58333333288,
      "d": 145.83333333334303,
      "v": 105
    },
    {
      "midi": 73,
      "hit": false,
      "t": 221989.58333333462,
      "d": 145.83333333334303,
      "v": 55
    },
    {
      "midi": 77,
      "hit": false,
      "t": 221994.79166666797,
      "d": 140.625,
      "v": 55
    },
    {
      "midi": 61,
      "hit": false,
      "t": 222010.41666666514,
      "d": 151.04166666668607,
      "v": 105
    },
    {
      "midi": 65,
      "hit": false,
      "t": 222015.6249999985,
      "d": 145.83333333334303,
      "v": 105
    },
    {
      "midi": 58,
      "hit": false,
      "t": 222145.83333333247,
      "d": 151.04166666665697,
      "v": 60
    },
    {
      "midi": 46,
      "hit": false,
      "t": 222145.83333333288,
      "d": 57.291666666656965,
      "v": 82
    },
    {
      "midi": 46,
      "hit": false,
      "t": 222171.8749999985,
      "d": 57.291666666656965,
      "v": 65
    },
    {
      "midi": 53,
      "hit": false,
      "t": 222307.29166666578,
      "d": 307.29166666665697,
      "v": 60
    },
    {
      "midi": 41,
      "hit": false,
      "t": 222307.2916666662,
      "d": 119.79166666665697,
      "v": 82
    },
    {
      "midi": 41,
      "hit": false,
      "t": 222328.1249999985,
      "d": 119.79166666665697,
      "v": 65
    },
    {
      "midi": 48,
      "hit": false,
      "t": 222624.9999999995,
      "d": 88.54166666668607,
      "v": 82
    },
    {
      "midi": 60,
      "hit": false,
      "t": 222630.20833333244,
      "d": 223.95833333334303,
      "v": 60
    },
    {
      "midi": 60,
      "hit": false,
      "t": 222630.20833333285,
      "d": 57.29166666668607,
      "v": 105
    },
    {
      "midi": 65,
      "hit": false,
      "t": 222635.4166666662,
      "d": 52.083333333343035,
      "v": 105
    },
    {
      "midi": 68,
      "hit": false,
      "t": 222635.41666666797,
      "d": 140.625,
      "v": 55
    },
    {
      "midi": 72,
      "hit": false,
      "t": 222635.41666666797,
      "d": 140.625,
      "v": 55
    },
    {
      "midi": 48,
      "hit": false,
      "t": 222645.8333333318,
      "d": 119.79166666665697,
      "v": 65
    },
    {
      "midi": 60,
      "hit": false,
      "t": 222651.04166666514,
      "d": 57.291666666656965,
      "v": 105
    },
    {
      "midi": 65,
      "hit": false,
      "t": 222651.04166666514,
      "d": 57.291666666656965,
      "v": 105
    },
    {
      "midi": 44,
      "hit": false,
      "t": 222942.70833333285,
      "d": 57.29166666668607,
      "v": 82
    },
    {
      "midi": 56,
      "hit": false,
      "t": 222947.91666666578,
      "d": 145.83333333334303,
      "v": 60
    },
    {
      "midi": 60,
      "hit": false,
      "t": 222947.9166666662,
      "d": 145.83333333334303,
      "v": 105
    },
    {
      "midi": 65,
      "hit": false,
      "t": 222947.9166666662,
      "d": 145.83333333334303,
      "v": 105
    },
    {
      "midi": 68,
      "hit": false,
      "t": 222953.1250000013,
      "d": 140.625,
      "v": 55
    },
    {
      "midi": 72,
      "hit": false,
      "t": 222953.1250000013,
      "d": 140.625,
      "v": 55
    },
    {
      "midi": 44,
      "hit": false,
      "t": 222968.74999999846,
      "d": 57.291666666656965,
      "v": 65
    },
    {
      "midi": 60,
      "hit": false,
      "t": 222968.74999999846,
      "d": 145.83333333331393,
      "v": 105
    },
    {
      "midi": 65,
      "hit": false,
      "t": 222968.74999999846,
      "d": 151.04166666665697,
      "v": 105
    },
    {
      "midi": 42,
      "hit": false,
      "t": 223260.4166666662,
      "d": 119.79166666665697,
      "v": 82
    },
    {
      "midi": 54,
      "hit": false,
      "t": 223265.62499999913,
      "d": 302.08333333334303,
      "v": 60
    },
    {
      "midi": 42,
      "hit": false,
      "t": 223286.45833333177,
      "d": 119.79166666665697,
      "v": 65
    },
    {
      "midi": 58,
      "hit": false,
      "t": 223416.6666666662,
      "d": 57.29166666668607,
      "v": 105
    },
    {
      "midi": 61,
      "hit": false,
      "t": 223421.87499999953,
      "d": 57.29166666668607,
      "v": 105
    },
    {
      "midi": 58,
      "hit": false,
      "t": 223442.70833333177,
      "d": 57.29166666668607,
      "v": 105
    },
    {
      "midi": 61,
      "hit": false,
      "t": 223447.9166666651,
      "d": 57.29166666668607,
      "v": 105
    },
    {
      "midi": 70,
      "hit": false,
      "t": 223578.1250000013,
      "d": 67.70833333334303,
      "v": 55
    },
    {
      "midi": 73,
      "hit": false,
      "t": 223583.33333333465,
      "d": 145.83333333334303,
      "v": 55
    },
    {
      "midi": 49,
      "hit": false,
      "t": 223734.37499999956,
      "d": 88.54166666665697,
      "v": 82
    },
    {
      "midi": 61,
      "hit": false,
      "t": 223739.58333333247,
      "d": 229.16666666665697,
      "v": 60
    },
    {
      "midi": 49,
      "hit": false,
      "t": 223765.62499999846,
      "d": 88.54166666665697,
      "v": 65
    },
    {
      "midi": 58,
      "hit": false,
      "t": 223901.04166666622,
      "d": 145.83333333334303,
      "v": 105
    },
    {
      "midi": 61,
      "hit": false,
      "t": 223901.04166666622,
      "d": 145.83333333334303,
      "v": 105
    },
    {
      "midi": 70,
      "hit": false,
      "t": 223901.041666668,
      "d": 145.83333333334303,
      "v": 55
    },
    {
      "midi": 73,
      "hit": false,
      "t": 223906.25000000134,
      "d": 140.625,
      "v": 55
    },
    {
      "midi": 58,
      "hit": false,
      "t": 223921.87499999846,
      "d": 151.04166666665697,
      "v": 105
    },
    {
      "midi": 61,
      "hit": false,
      "t": 223921.87499999846,
      "d": 151.04166666665697,
      "v": 105
    },
    {
      "midi": 58,
      "hit": false,
      "t": 224057.29166666578,
      "d": 151.04166666665697,
      "v": 60
    },
    {
      "midi": 46,
      "hit": false,
      "t": 224057.29166666622,
      "d": 57.291666666656965,
      "v": 82
    },
    {
      "midi": 46,
      "hit": false,
      "t": 224083.33333333177,
      "d": 57.291666666656965,
      "v": 65
    },
    {
      "midi": 44,
      "hit": false,
      "t": 224213.54166666622,
      "d": 119.79166666665697,
      "v": 82
    },
    {
      "midi": 56,
      "hit": false,
      "t": 224218.7499999991,
      "d": 223.95833333334303,
      "v": 60
    },
    {
      "midi": 44,
      "hit": false,
      "t": 224239.58333333177,
      "d": 119.79166666665697,
      "v": 65
    },
    {
      "midi": 61,
      "hit": false,
      "t": 224374.99999999953,
      "d": 57.291666666656965,
      "v": 105
    },
    {
      "midi": 63,
      "hit": false,
      "t": 224374.99999999953,
      "d": 57.291666666656965,
      "v": 105
    },
    {
      "midi": 61,
      "hit": false,
      "t": 224401.04166666509,
      "d": 57.291666666656965,
      "v": 105
    },
    {
      "midi": 63,
      "hit": false,
      "t": 224401.04166666509,
      "d": 57.291666666656965,
      "v": 105
    },
    {
      "midi": 73,
      "hit": false,
      "t": 224536.45833333468,
      "d": 151.04166666665697,
      "v": 55
    },
    {
      "midi": 75,
      "hit": false,
      "t": 224536.45833333468,
      "d": 156.25,
      "v": 55
    },
    {
      "midi": 51,
      "hit": false,
      "t": 224697.9166666662,
      "d": 98.95833333334303,
      "v": 82
    },
    {
      "midi": 63,
      "hit": false,
      "t": 224703.1249999991,
      "d": 255.20833333334303,
      "v": 60
    },
    {
      "midi": 51,
      "hit": false,
      "t": 224729.16666666509,
      "d": 104.16666666665697,
      "v": 65
    },
    {
      "midi": 60,
      "hit": false,
      "t": 224869.7916666662,
      "d": 208.33333333334303,
      "v": 105
    },
    {
      "midi": 63,
      "hit": false,
      "t": 224869.7916666662,
      "d": 208.33333333334303,
      "v": 105
    },
    {
      "midi": 72,
      "hit": false,
      "t": 224875.00000000134,
      "d": 192.70833333334303,
      "v": 55
    },
    {
      "midi": 75,
      "hit": false,
      "t": 224875.00000000134,
      "d": 192.70833333334303,
      "v": 55
    },
    {
      "midi": 60,
      "hit": false,
      "t": 224895.83333333174,
      "d": 213.54166666668607,
      "v": 105
    },
    {
      "midi": 63,
      "hit": false,
      "t": 224901.04166666509,
      "d": 213.54166666668607,
      "v": 105
    },
    {
      "midi": 60,
      "hit": false,
      "t": 225078.1249999991,
      "d": 645.833333333343,
      "v": 60
    },
    {
      "midi": 48,
      "hit": false,
      "t": 225078.12499999953,
      "d": 78.125,
      "v": 82
    },
    {
      "midi": 48,
      "hit": false,
      "t": 225114.58333333177,
      "d": 78.125,
      "v": 65
    },
    {
      "midi": 46,
      "hit": false,
      "t": 225296.87499999953,
      "d": 1348.958333333314,
      "v": 82
    },
    {
      "midi": 58,
      "hit": false,
      "t": 225302.08333333244,
      "d": 3593.75,
      "v": 60
    },
    {
      "midi": 61,
      "hit": false,
      "t": 225307.2916666662,
      "d": 1348.958333333314,
      "v": 105
    },
    {
      "midi": 65,
      "hit": false,
      "t": 225307.2916666662,
      "d": 1348.958333333314,
      "v": 105
    },
    {
      "midi": 73,
      "hit": false,
      "t": 225312.50000000134,
      "d": 3583.333333333343,
      "v": 55
    },
    {
      "midi": 77,
      "hit": false,
      "t": 225312.50000000134,
      "d": 3583.333333333343,
      "v": 55
    },
    {
      "midi": 46,
      "hit": false,
      "t": 225338.5416666651,
      "d": 1296.875,
      "v": 65
    },
    {
      "midi": 61,
      "hit": false,
      "t": 225338.5416666651,
      "d": 1296.875,
      "v": 105
    },
    {
      "midi": 65,
      "hit": false,
      "t": 225338.5416666651,
      "d": 1296.875,
      "v": 105
    }
  ]
}