{
  "jsonPath": "Unknown/Unknown/N Von Wim/gavotte-wim.json",
  "path": "Unknown\\Unknown\\N Von Wim\\Gavotte Wim.mid",
  "name": "Gavotte Wim",
  "difficulty": "Advanced",
  "bpm": 100,
  "notes": [
    {
      "midi": 62,
      "hit": false,
      "t": 1200,
      "d": 600,
      "v": 100
    },
    {
      "midi": 66,
      "hit": false,
      "t": 1200,
      "d": 600,
      "v": 100
    },
    {
      "midi": 64,
      "hit": false,
      "t": 1800,
      "d": 600,
      "v": 100
    },
    {
      "midi": 67,
      "hit": false,
      "t": 1800,
      "d": 600,
      "v": 100
    },
    {
      "midi": 66,
      "hit": false,
      "t": 2400,
      "d": 600,
      "v": 100
    },
    {
      "midi": 69,
      "hit": false,
      "t": 2400,
      "d": 600,
      "v": 100
    },
    {
      "midi": 50,
      "hit": false,
      "t": 2400,
      "d": 1200,
      "v": 100
    },
    {
      "midi": 74,
      "hit": false,
      "t": 3000,
      "d": 300,
      "v": 100
    },
    {
      "midi": 69,
      "hit": false,
      "t": 3600,
      "d": 600,
      "v": 100
    },
    {
      "midi": 73,
      "hit": false,
      "t": 3600,
      "d": 600,
      "v": 100
    },
    {
      "midi": 43,
      "hit": false,
      "t": 3600,
      "d": 600,
      "v": 100
    },
    {
      "midi": 67,
      "hit": false,
      "t": 4200,
      "d": 600,
      "v": 100
    },
    {
      "midi": 71,
      "hit": false,
      "t": 4200,
      "d": 600,
      "v": 100
    },
    {
      "midi": 47,
      "hit": false,
      "t": 4200,
      "d": 600,
      "v": 100
    },
    {
      "midi": 66,
      "hit": false,
      "t": 4800,
      "d": 1200,
      "v": 100
    },
    {
      "midi": 69,
      "hit": false,
      "t": 4800,
      "d": 1200,
      "v": 100
    },
    {
      "midi": 50,
      "hit": false,
      "t": 4800,
      "d": 1200,
      "v": 100
    },
    {
      "midi": 62,
      "hit": false,
      "t": 6000,
      "d": 300,
      "v": 100
    },
    {
      "midi": 66,
      "hit": false,
      "t": 6000,
      "d": 300,
      "v": 100
    },
    {
      "midi": 69,
      "hit": false,
      "t": 6300,
      "d": 300,
      "v": 100
    },
    {
      "midi": 64,
      "hit": false,
      "t": 6600,
      "d": 300,
      "v": 100
    },
    {
      "midi": 67,
      "hit": false,
      "t": 6600,
      "d": 300,
      "v": 100
    },
    {
      "midi": 62,
      "hit": false,
      "t": 6900,
      "d": 300,
      "v": 100
    },
    {
      "midi": 66,
      "hit": false,
      "t": 6900,
      "d": 300,
      "v": 100
    },
    {
      "midi": 62,
      "hit": false,
      "t": 7200,
      "d": 600,
      "v": 100
    },
    {
      "midi": 66,
      "hit": false,
      "t": 7200,
      "d": 600,
      "v": 100
    },
    {
      "midi": 45,
      "hit": false,
      "t": 7200,
      "d": 600,
      "v": 100
    },
    {
      "midi": 61,
      "hit": false,
      "t": 7800,
      "d": 300,
      "v": 100
    },
    {
      "midi": 64,
      "hit": false,
      "t": 7800,
      "d": 300,
      "v": 100
    },
    {
      "midi": 57,
      "hit": false,
      "t": 7800,
      "d": 300,
      "v": 100
    },
    {
      "midi": 67,
      "hit": false,
      "t": 8400,
      "d": 300,
      "v": 100
    },
    {
      "midi": 59,
      "hit": false,
      "t": 8400,
      "d": 300,
      "v": 100
    },
    {
      "midi": 71,
      "hit": false,
      "t": 8700,
      "d": 300,
      "v": 100
    },
    {
      "midi": 62,
      "hit": false,
      "t": 8700,
      "d": 300,
      "v": 100
    },
    {
      "midi": 69,
      "hit": false,
      "t": 9000,
      "d": 300,
      "v": 100
    },
    {
      "midi": 61,
      "hit": false,
      "t": 9000,
      "d": 300,
      "v": 100
    },
    {
      "midi": 67,
      "hit": false,
      "t": 9300,
      "d": 300,
      "v": 100
    },
    {
      "midi": 59,
      "hit": false,
      "t": 9300,
      "d": 300,
      "v": 100
    },
    {
      "midi": 67,
      "hit": false,
      "t": 9600,
      "d": 600,
      "v": 100
    },
    {
      "midi": 50,
      "hit": false,
      "t": 9600,
      "d": 600,
      "v": 100
    },
    {
      "midi": 59,
      "hit": false,
      "t": 9600,
      "d": 600,
      "v": 100
    },
    {
      "midi": 66,
      "hit": false,
      "t": 10200,
      "d": 300,
      "v": 100
    },
    {
      "midi": 57,
      "hit": false,
      "t": 10200,
      "d": 300,
      "v": 100
    },
    {
      "midi": 66,
      "hit": false,
      "t": 10800,
      "d": 600,
      "v": 100
    },
    {
      "midi": 74,
      "hit": false,
      "t": 10800,
      "d": 600,
      "v": 100
    },
    {
      "midi": 47,
      "hit": false,
      "t": 10800,
      "d": 600,
      "v": 100
    },
    {
      "midi": 66,
      "hit": false,
      "t": 11400,
      "d": 600,
      "v": 100
    },
    {
      "midi": 71,
      "hit": false,
      "t": 11400,
      "d": 600,
      "v": 100
    },
    {
      "midi": 50,
      "hit": false,
      "t": 11400,
      "d": 600,
      "v": 100
    },
    {
      "midi": 64,
      "hit": false,
      "t": 12000,
      "d": 300,
      "v": 100
    },
    {
      "midi": 68,
      "hit": false,
      "t": 12000,
      "d": 300,
      "v": 100
    },
    {
      "midi": 52,
      "hit": false,
      "t": 12000,
      "d": 600,
      "v": 100
    },
    {
      "midi": 66,
      "hit": false,
      "t": 12300,
      "d": 300,
      "v": 100
    },
    {
      "midi": 64,
      "hit": false,
      "t": 12600,
      "d": 300,
      "v": 100
    },
    {
      "midi": 50,
      "hit": false,
      "t": 12600,
      "d": 300,
      "v": 100
    },
    {
      "midi": 64,
      "hit": false,
      "t": 13200,
      "d": 600,
      "v": 100
    },
    {
      "midi": 69,
      "hit": false,
      "t": 13200,
      "d": 600,
      "v": 100
    },
    {
      "midi": 49,
      "hit": false,
      "t": 13200,
      "d": 600,
      "v": 100
    },
    {
      "midi": 64,
      "hit": false,
      "t": 13800,
      "d": 600,
      "v": 100
    },
    {
      "midi": 67,
      "hit": false,
      "t": 13800,
      "d": 600,
      "v": 100
    },
    {
      "midi": 71,
      "hit": false,
      "t": 13800,
      "d": 600,
      "v": 100
    },
    {
      "midi": 47,
      "hit": false,
      "t": 13800,
      "d": 600,
      "v": 100
    },
    {
      "midi": 64,
      "hit": false,
      "t": 14400,
      "d": 1200,
      "v": 100
    },
    {
      "midi": 69,
      "hit": false,
      "t": 14400,
      "d": 1200,
      "v": 100
    },
    {
      "midi": 73,
      "hit": false,
      "t": 14400,
      "d": 1200,
      "v": 100
    },
    {
      "midi": 45,
      "hit": false,
      "t": 14400,
      "d": 1200,
      "v": 100
    },
    {
      "midi": 69,
      "hit": false,
      "t": 15600,
      "d": 300,
      "v": 100
    },
    {
      "midi": 54,
      "hit": false,
      "t": 15600,
      "d": 600,
      "v": 100
    },
    {
      "midi": 71,
      "hit": false,
      "t": 15900,
      "d": 300,
      "v": 100
    },
    {
      "midi": 73,
      "hit": false,
      "t": 16200,
      "d": 300,
      "v": 100
    },
    {
      "midi": 52,
      "hit": false,
      "t": 16200,
      "d": 300,
      "v": 100
    },
    {
      "midi": 74,
      "hit": false,
      "t": 16500,
      "d": 300,
      "v": 100
    },
    {
      "midi": 50,
      "hit": false,
      "t": 16500,
      "d": 300,
      "v": 100
    },
    {
      "midi": 76,
      "hit": false,
      "t": 16800,
      "d": 600,
      "v": 100
    },
    {
      "midi": 49,
      "hit": false,
      "t": 16800,
      "d": 600,
      "v": 100
    },
    {
      "midi": 69,
      "hit": false,
      "t": 17400,
      "d": 600,
      "v": 100
    },
    {
      "midi": 73,
      "hit": false,
      "t": 17400,
      "d": 600,
      "v": 100
    },
    {
      "midi": 54,
      "hit": false,
      "t": 17400,
      "d": 600,
      "v": 100
    },
    {
      "midi": 69,
      "hit": false,
      "t": 18000,
      "d": 600,
      "v": 100
    },
    {
      "midi": 74,
      "hit": false,
      "t": 18000,
      "d": 600,
      "v": 100
    },
    {
      "midi": 47,
      "hit": false,
      "t": 18000,
      "d": 600,
      "v": 100
    },
    {
      "midi": 64,
      "hit": false,
      "t": 18600,
      "d": 600,
      "v": 100
    },
    {
      "midi": 68,
      "hit": false,
      "t": 18600,
      "d": 600,
      "v": 100
    },
    {
      "midi": 71,
      "hit": false,
      "t": 18600,
      "d": 600,
      "v": 100
    },
    {
      "midi": 52,
      "hit": false,
      "t": 18600,
      "d": 300,
      "v": 100
    },
    {
      "midi": 50,
      "hit": false,
      "t": 18900,
      "d": 300,
      "v": 100
    },
    {
      "midi": 64,
      "hit": false,
      "t": 19200,
      "d": 1200,
      "v": 100
    },
    {
      "midi": 69,
      "hit": false,
      "t": 19200,
      "d": 1200,
      "v": 100
    },
    {
      "midi": 76,
      "hit": false,
      "t": 19200,
      "d": 1200,
      "v": 100
    },
    {
      "midi": 49,
      "hit": false,
      "t": 19200,
      "d": 1200,
      "v": 100
    },
    {
      "midi": 69,
      "hit": false,
      "t": 20400,
      "d": 300,
      "v": 100
    },
    {
      "midi": 54,
      "hit": false,
      "t": 20400,
      "d": 600,
      "v": 100
    },
    {
      "midi": 71,
      "hit": false,
      "t": 20700,
      "d": 300,
      "v": 100
    },
    {
      "midi": 73,
      "hit": false,
      "t": 21000,
      "d": 300,
      "v": 100
    },
    {
      "midi": 52,
      "hit": false,
      "t": 21000,
      "d": 300,
      "v": 100
    },
    {
      "midi": 74,
      "hit": false,
      "t": 21300,
      "d": 300,
      "v": 100
    },
    {
      "midi": 50,
      "hit": false,
      "t": 21300,
      "d": 300,
      "v": 100
    },
    {
      "midi": 76,
      "hit": false,
      "t": 21600,
      "d": 300,
      "v": 100
    },
    {
      "midi": 49,
      "hit": false,
      "t": 21600,
      "d": 600,
      "v": 100
    },
    {
      "midi": 78,
      "hit": false,
      "t": 21900,
      "d": 300,
      "v": 100
    },
    {
      "midi": 76,
      "hit": false,
      "t": 22200,
      "d": 300,
      "v": 100
    },
    {
      "midi": 74,
      "hit": false,
      "t": 22500,
      "d": 300,
      "v": 100
    },
    {
      "midi": 54,
      "hit": false,
      "t": 22500,
      "d": 300,
      "v": 100
    },
    {
      "midi": 73,
      "hit": false,
      "t": 22800,
      "d": 300,
      "v": 100
    },
    {
      "midi": 52,
      "hit": false,
      "t": 22800,
      "d": 300,
      "v": 100
    },
    {
      "midi": 62,
      "hit": false,
      "t": 23400,
      "d": 600,
      "v": 100
    },
    {
      "midi": 68,
      "hit": false,
      "t": 23400,
      "d": 600,
      "v": 100
    },
    {
      "midi": 71,
      "hit": false,
      "t": 23400,
      "d": 600,
      "v": 100
    },
    {
      "midi": 40,
      "hit": false,
      "t": 23400,
      "d": 600,
      "v": 100
    },
    {
      "midi": 52,
      "hit": false,
      "t": 23400,
      "d": 600,
      "v": 100
    },
    {
      "midi": 61,
      "hit": false,
      "t": 24000,
      "d": 1200,
      "v": 100
    },
    {
      "midi": 64,
      "hit": false,
      "t": 24000,
      "d": 1200,
      "v": 100
    },
    {
      "midi": 69,
      "hit": false,
      "t": 24000,
      "d": 1200,
      "v": 100
    },
    {
      "midi": 45,
      "hit": false,
      "t": 24000,
      "d": 600,
      "v": 100
    },
    {
      "midi": 57,
      "hit": false,
      "t": 24600,
      "d": 300,
      "v": 100
    },
    {
      "midi": 62,
      "hit": false,
      "t": 25200,
      "d": 600,
      "v": 100
    },
    {
      "midi": 66,
      "hit": false,
      "t": 25200,
      "d": 600,
      "v": 100
    },
    {
      "midi": 64,
      "hit": false,
      "t": 25800,
      "d": 600,
      "v": 100
    },
    {
      "midi": 67,
      "hit": false,
      "t": 25800,
      "d": 600,
      "v": 100
    },
    {
      "midi": 61,
      "hit": false,
      "t": 26400,
      "d": 1200,
      "v": 100
    },
    {
      "midi": 64,
      "hit": false,
      "t": 26400,
      "d": 1200,
      "v": 100
    },
    {
      "midi": 69,
      "hit": false,
      "t": 26400,
      "d": 1200,
      "v": 100
    },
    {
      "midi": 45,
      "hit": false,
      "t": 26400,
      "d": 600,
      "v": 100
    },
    {
      "midi": 57,
      "hit": false,
      "t": 27000,
      "d": 300,
      "v": 100
    },
    {
      "midi": 61,
      "hit": false,
      "t": 27600,
      "d": 600,
      "v": 100
    },
    {
      "midi": 69,
      "hit": false,
      "t": 27600,
      "d": 600,
      "v": 100
    },
    {
      "midi": 57,
      "hit": false,
      "t": 27600,
      "d": 600,
      "v": 100
    },
    {
      "midi": 61,
      "hit": false,
      "t": 28200,
      "d": 600,
      "v": 100
    },
    {
      "midi": 69,
      "hit": false,
      "t": 28200,
      "d": 600,
      "v": 100
    },
    {
      "midi": 55,
      "hit": false,
      "t": 28200,
      "d": 600,
      "v": 100
    },
    {
      "midi": 62,
      "hit": false,
      "t": 28800,
      "d": 600,
      "v": 100
    },
    {
      "midi": 69,
      "hit": false,
      "t": 28800,
      "d": 600,
      "v": 100
    },
    {
      "midi": 53,
      "hit": false,
      "t": 28800,
      "d": 900,
      "v": 100
    },
    {
      "midi": 74,
      "hit": false,
      "t": 29400,
      "d": 300,
      "v": 100
    },
    {
      "midi": 62,
      "hit": false,
      "t": 30000,
      "d": 600,
      "v": 100
    },
    {
      "midi": 67,
      "hit": false,
      "t": 30000,
      "d": 600,
      "v": 100
    },
    {
      "midi": 70,
      "hit": false,
      "t": 30000,
      "d": 600,
      "v": 100
    },
    {
      "midi": 52,
      "hit": false,
      "t": 30000,
      "d": 900,
      "v": 100
    },
    {
      "midi": 74,
      "hit": false,
      "t": 30600,
      "d": 300,
      "v": 100
    },
    {
      "midi": 62,
      "hit": false,
      "t": 31200,
      "d": 600,
      "v": 100
    },
    {
      "midi": 69,
      "hit": false,
      "t": 31200,
      "d": 600,
      "v": 100
    },
    {
      "midi": 53,
      "hit": false,
      "t": 31200,
      "d": 900,
      "v": 100
    },
    {
      "midi": 74,
      "hit": false,
      "t": 31800,
      "d": 300,
      "v": 100
    },
    {
      "midi": 65,
      "hit": false,
      "t": 32400,
      "d": 300,
      "v": 100
    },
    {
      "midi": 50,
      "hit": false,
      "t": 32400,
      "d": 600,
      "v": 100
    },
    {
      "midi": 67,
      "hit": false,
      "t": 32700,
      "d": 300,
      "v": 100
    },
    {
      "midi": 69,
      "hit": false,
      "t": 33000,
      "d": 300,
      "v": 100
    },
    {
      "midi": 49,
      "hit": false,
      "t": 33000,
      "d": 600,
      "v": 100
    },
    {
      "midi": 70,
      "hit": false,
      "t": 33300,
      "d": 300,
      "v": 100
    },
    {
      "midi": 69,
      "hit": false,
      "t": 33600,
      "d": 300,
      "v": 100
    },
    {
      "midi": 72,
      "hit": false,
      "t": 33600,
      "d": 300,
      "v": 100
    },
    {
      "midi": 48,
      "hit": false,
      "t": 33600,
      "d": 600,
      "v": 100
    },
    {
      "midi": 74,
      "hit": false,
      "t": 33900,
      "d": 300,
      "v": 100
    },
    {
      "midi": 69,
      "hit": false,
      "t": 34200,
      "d": 300,
      "v": 100
    },
    {
      "midi": 72,
      "hit": false,
      "t": 34200,
      "d": 300,
      "v": 100
    },
    {
      "midi": 60,
      "hit": false,
      "t": 34200,
      "d": 300,
      "v": 100
    },
    {
      "midi": 67,
      "hit": false,
      "t": 34800,
      "d": 300,
      "v": 100
    },
    {
      "midi": 70,
      "hit": false,
      "t": 34800,
      "d": 300,
      "v": 100
    },
    {
      "midi": 48,
      "hit": false,
      "t": 34800,
      "d": 600,
      "v": 100
    },
    {
      "midi": 72,
      "hit": false,
      "t": 35100,
      "d": 300,
      "v": 100
    },
    {
      "midi": 67,
      "hit": false,
      "t": 35400,
      "d": 300,
      "v": 100
    },
    {
      "midi": 70,
      "hit": false,
      "t": 35400,
      "d": 300,
      "v": 100
    },
    {
      "midi": 60,
      "hit": false,
      "t": 35400,
      "d": 300,
      "v": 100
    },
    {
      "midi": 65,
      "hit": false,
      "t": 36000,
      "d": 1200,
      "v": 100
    },
    {
      "midi": 69,
      "hit": false,
      "t": 36000,
      "d": 1200,
      "v": 100
    },
    {
      "midi": 53,
      "hit": false,
      "t": 36000,
      "d": 600,
      "v": 100
    },
    {
      "midi": 60,
      "hit": false,
      "t": 36600,
      "d": 300,
      "v": 100
    },
    {
      "midi": 69,
      "hit": false,
      "t": 37200,
      "d": 600,
      "v": 100
    },
    {
      "midi": 74,
      "hit": false,
      "t": 37200,
      "d": 600,
      "v": 100
    },
    {
      "midi": 77,
      "hit": false,
      "t": 37200,
      "d": 600,
      "v": 100
    },
    {
      "midi": 50,
      "hit": false,
      "t": 37200,
      "d": 600,
      "v": 100
    },
    {
      "midi": 69,
      "hit": false,
      "t": 37800,
      "d": 600,
      "v": 100
    },
    {
      "midi": 72,
      "hit": false,
      "t": 37800,
      "d": 600,
      "v": 100
    },
    {
      "midi": 77,
      "hit": false,
      "t": 37800,
      "d": 600,
      "v": 100
    },
    {
      "midi": 62,
      "hit": false,
      "t": 37800,
      "d": 600,
      "v": 100
    },
    {
      "midi": 71,
      "hit": false,
      "t": 38400,
      "d": 300,
      "v": 100
    },
    {
      "midi": 77,
      "hit": false,
      "t": 38400,
      "d": 300,
      "v": 100
    },
    {
      "midi": 55,
      "hit": false,
      "t": 38400,
      "d": 1200,
      "v": 100
    },
    {
      "midi": 76,
      "hit": false,
      "t": 38700,
      "d": 300,
      "v": 100
    },
    {
      "midi": 74,
      "hit": false,
      "t": 39000,
      "d": 600,
      "v": 100
    },
    {
      "midi": 67,
      "hit": false,
      "t": 39600,
      "d": 600,
      "v": 100
    },
    {
      "midi": 72,
      "hit": false,
      "t": 39600,
      "d": 600,
      "v": 100
    },
    {
      "midi": 76,
      "hit": false,
      "t": 39600,
      "d": 600,
      "v": 100
    },
    {
      "midi": 48,
      "hit": false,
      "t": 39600,
      "d": 600,
      "v": 100
    },
    {
      "midi": 67,
      "hit": false,
      "t": 40200,
      "d": 600,
      "v": 100
    },
    {
      "midi": 71,
      "hit": false,
      "t": 40200,
      "d": 600,
      "v": 100
    },
    {
      "midi": 76,
      "hit": false,
      "t": 40200,
      "d": 600,
      "v": 100
    },
    {
      "midi": 60,
      "hit": false,
      "t": 40200,
      "d": 600,
      "v": 100
    },
    {
      "midi": 69,
      "hit": false,
      "t": 40800,
      "d": 300,
      "v": 100
    },
    {
      "midi": 76,
      "hit": false,
      "t": 40800,
      "d": 300,
      "v": 100
    },
    {
      "midi": 53,
      "hit": false,
      "t": 40800,
      "d": 1200,
      "v": 100
    },
    {
      "midi": 74,
      "hit": false,
      "t": 41100,
      "d": 300,
      "v": 100
    },
    {
      "midi": 72,
      "hit": false,
      "t": 41400,
      "d": 600,
      "v": 100
    },
    {
      "midi": 65,
      "hit": false,
      "t": 42000,
      "d": 600,
      "v": 100
    },
    {
      "midi": 69,
      "hit": false,
      "t": 42000,
      "d": 600,
      "v": 100
    },
    {
      "midi": 74,
      "hit": false,
      "t": 42000,
      "d": 600,
      "v": 100
    },
    {
      "midi": 47,
      "hit": false,
      "t": 42000,
      "d": 600,
      "v": 100
    },
    {
      "midi": 65,
      "hit": false,
      "t": 42600,
      "d": 600,
      "v": 100
    },
    {
      "midi": 69,
      "hit": false,
      "t": 42600,
      "d": 600,
      "v": 100
    },
    {
      "midi": 59,
      "hit": false,
      "t": 42600,
      "d": 600,
      "v": 100
    },
    {
      "midi": 64,
      "hit": false,
      "t": 43200,
      "d": 600,
      "v": 100
    },
    {
      "midi": 69,
      "hit": false,
      "t": 43200,
      "d": 600,
      "v": 100
    },
    {
      "midi": 72,
      "hit": false,
      "t": 43200,
      "d": 600,
      "v": 100
    },
    {
      "midi": 52,
      "hit": false,
      "t": 43200,
      "d": 600,
      "v": 100
    },
    {
      "midi": 69,
      "hit": false,
      "t": 43800,
      "d": 300,
      "v": 100
    },
    {
      "midi": 60,
      "hit": false,
      "t": 43800,
      "d": 300,
      "v": 100
    },
    {
      "midi": 71,
      "hit": false,
      "t": 44100,
      "d": 300,
      "v": 100
    },
    {
      "midi": 62,
      "hit": false,
      "t": 44100,
      "d": 300,
      "v": 100
    },
    {
      "midi": 72,
      "hit": false,
      "t": 44400,
      "d": 300,
      "v": 100
    },
    {
      "midi": 64,
      "hit": false,
      "t": 44400,
      "d": 300,
      "v": 100
    },
    {
      "midi": 69,
      "hit": false,
      "t": 45000,
      "d": 600,
      "v": 100
    },
    {
      "midi": 71,
      "hit": false,
      "t": 45000,
      "d": 600,
      "v": 100
    },
    {
      "midi": 53,
      "hit": false,
      "t": 45000,
      "d": 600,
      "v": 100
    },
    {
      "midi": 62,
      "hit": false,
      "t": 45000,
      "d": 600,
      "v": 100
    },
    {
      "midi": 69,
      "hit": false,
      "t": 45600,
      "d": 600,
      "v": 100
    },
    {
      "midi": 72,
      "hit": false,
      "t": 45600,
      "d": 600,
      "v": 100
    },
    {
      "midi": 52,
      "hit": false,
      "t": 45600,
      "d": 600,
      "v": 100
    },
    {
      "midi": 64,
      "hit": false,
      "t": 45600,
      "d": 600,
      "v": 100
    },
    {
      "midi": 69,
      "hit": false,
      "t": 46200,
      "d": 300,
      "v": 100
    },
    {
      "midi": 60,
      "hit": false,
      "t": 46200,
      "d": 300,
      "v": 100
    },
    {
      "midi": 71,
      "hit": false,
      "t": 46500,
      "d": 300,
      "v": 100
    },
    {
      "midi": 62,
      "hit": false,
      "t": 46500,
      "d": 300,
      "v": 100
    },
    {
      "midi": 72,
      "hit": false,
      "t": 46800,
      "d": 300,
      "v": 100
    },
    {
      "midi": 64,
      "hit": false,
      "t": 46800,
      "d": 300,
      "v": 100
    },
    {
      "midi": 69,
      "hit": false,
      "t": 47400,
      "d": 600,
      "v": 100
    },
    {
      "midi": 71,
      "hit": false,
      "t": 47400,
      "d": 600,
      "v": 100
    },
    {
      "midi": 53,
      "hit": false,
      "t": 47400,
      "d": 600,
      "v": 100
    },
    {
      "midi": 62,
      "hit": false,
      "t": 47400,
      "d": 600,
      "v": 100
    },
    {
      "midi": 69,
      "hit": false,
      "t": 48000,
      "d": 600,
      "v": 100
    },
    {
      "midi": 72,
      "hit": false,
      "t": 48000,
      "d": 600,
      "v": 100
    },
    {
      "midi": 52,
      "hit": false,
      "t": 48000,
      "d": 600,
      "v": 100
    },
    {
      "midi": 64,
      "hit": false,
      "t": 48000,
      "d": 600,
      "v": 100
    },
    {
      "midi": 69,
      "hit": false,
      "t": 48600,
      "d": 300,
      "v": 100
    },
    {
      "midi": 71,
      "hit": false,
      "t": 48900,
      "d": 300,
      "v": 100
    },
    {
      "midi": 72,
      "hit": false,
      "t": 49200,
      "d": 300,
      "v": 100
    },
    {
      "midi": 74,
      "hit": false,
      "t": 49500,
      "d": 300,
      "v": 100
    },
    {
      "midi": 76,
      "hit": false,
      "t": 49800,
      "d": 300,
      "v": 100
    },
    {
      "midi": 77,
      "hit": false,
      "t": 50100,
      "d": 300,
      "v": 100
    },
    {
      "midi": 76,
      "hit": false,
      "t": 50400,
      "d": 300,
      "v": 100
    },
    {
      "midi": 57,
      "hit": false,
      "t": 51000,
      "d": 300,
      "v": 100
    },
    {
      "midi": 59,
      "hit": false,
      "t": 51300,
      "d": 300,
      "v": 100
    },
    {
      "midi": 72,
      "hit": false,
      "t": 51600,
      "d": 900,
      "v": 100
    },
    {
      "midi": 76,
      "hit": false,
      "t": 51600,
      "d": 900,
      "v": 100
    },
    {
      "midi": 60,
      "hit": false,
      "t": 51600,
      "d": 300,
      "v": 100
    },
    {
      "midi": 62,
      "hit": false,
      "t": 51900,
      "d": 300,
      "v": 100
    },
    {
      "midi": 64,
      "hit": false,
      "t": 52200,
      "d": 300,
      "v": 100
    },
    {
      "midi": 71,
      "hit": false,
      "t": 52500,
      "d": 300,
      "v": 100
    },
    {
      "midi": 74,
      "hit": false,
      "t": 52500,
      "d": 300,
      "v": 100
    },
    {
      "midi": 65,
      "hit": false,
      "t": 52500,
      "d": 300,
      "v": 100
    },
    {
      "midi": 69,
      "hit": false,
      "t": 52800,
      "d": 600,
      "v": 100
    },
    {
      "midi": 72,
      "hit": false,
      "t": 52800,
      "d": 600,
      "v": 100
    },
    {
      "midi": 64,
      "hit": false,
      "t": 52800,
      "d": 300,
      "v": 100
    },
    {
      "midi": 62,
      "hit": false,
      "t": 54000,
      "d": 600,
      "v": 100
    },
    {
      "midi": 68,
      "hit": false,
      "t": 54000,
      "d": 600,
      "v": 100
    },
    {
      "midi": 71,
      "hit": false,
      "t": 54000,
      "d": 600,
      "v": 100
    },
    {
      "midi": 52,
      "hit": false,
      "t": 54000,
      "d": 600,
      "v": 100
    },
    {
      "midi": 61,
      "hit": false,
      "t": 55200,
      "d": 1200,
      "v": 100
    },
    {
      "midi": 64,
      "hit": false,
      "t": 55200,
      "d": 1200,
      "v": 100
    },
    {
      "midi": 69,
      "hit": false,
      "t": 55200,
      "d": 1200,
      "v": 100
    },
    {
      "midi": 45,
      "hit": false,
      "t": 55200,
      "d": 1200,
      "v": 100
    },
    {
      "midi": 62,
      "hit": false,
      "t": 56400,
      "d": 600,
      "v": 100
    },
    {
      "midi": 66,
      "hit": false,
      "t": 56400,
      "d": 600,
      "v": 100
    },
    {
      "midi": 64,
      "hit": false,
      "t": 57000,
      "d": 600,
      "v": 100
    },
    {
      "midi": 67,
      "hit": false,
      "t": 57000,
      "d": 600,
      "v": 100
    },
    {
      "midi": 66,
      "hit": false,
      "t": 57600,
      "d": 600,
      "v": 100
    },
    {
      "midi": 69,
      "hit": false,
      "t": 57600,
      "d": 600,
      "v": 100
    },
    {
      "midi": 50,
      "hit": false,
      "t": 57600,
      "d": 1200,
      "v": 100
    },
    {
      "midi": 74,
      "hit": false,
      "t": 58200,
      "d": 300,
      "v": 100
    },
    {
      "midi": 69,
      "hit": false,
      "t": 58800,
      "d": 600,
      "v": 100
    },
    {
      "midi": 73,
      "hit": false,
      "t": 58800,
      "d": 600,
      "v": 100
    },
    {
      "midi": 43,
      "hit": false,
      "t": 58800,
      "d": 600,
      "v": 100
    },
    {
      "midi": 67,
      "hit": false,
      "t": 59400,
      "d": 600,
      "v": 100
    },
    {
      "midi": 71,
      "hit": false,
      "t": 59400,
      "d": 600,
      "v": 100
    },
    {
      "midi": 47,
      "hit": false,
      "t": 59400,
      "d": 600,
      "v": 100
    },
    {
      "midi": 66,
      "hit": false,
      "t": 60000,
      "d": 1200,
      "v": 100
    },
    {
      "midi": 69,
      "hit": false,
      "t": 60000,
      "d": 1200,
      "v": 100
    },
    {
      "midi": 50,
      "hit": false,
      "t": 60000,
      "d": 1200,
      "v": 100
    },
    {
      "midi": 62,
      "hit": false,
      "t": 61200,
      "d": 300,
      "v": 100
    },
    {
      "midi": 66,
      "hit": false,
      "t": 61200,
      "d": 300,
      "v": 100
    },
    {
      "midi": 69,
      "hit": false,
      "t": 61500,
      "d": 300,
      "v": 100
    },
    {
      "midi": 64,
      "hit": false,
      "t": 61800,
      "d": 300,
      "v": 100
    },
    {
      "midi": 67,
      "hit": false,
      "t": 61800,
      "d": 300,
      "v": 100
    },
    {
      "midi": 62,
      "hit": false,
      "t": 62100,
      "d": 300,
      "v": 100
    },
    {
      "midi": 66,
      "hit": false,
      "t": 62100,
      "d": 300,
      "v": 100
    },
    {
      "midi": 62,
      "hit": false,
      "t": 62400,
      "d": 600,
      "v": 100
    },
    {
      "midi": 66,
      "hit": false,
      "t": 62400,
      "d": 600,
      "v": 100
    },
    {
      "midi": 45,
      "hit": false,
      "t": 62400,
      "d": 600,
      "v": 100
    },
    {
      "midi": 61,
      "hit": false,
      "t": 63000,
      "d": 300,
      "v": 100
    },
    {
      "midi": 64,
      "hit": false,
      "t": 63000,
      "d": 300,
      "v": 100
    },
    {
      "midi": 57,
      "hit": false,
      "t": 63000,
      "d": 300,
      "v": 100
    },
    {
      "midi": 67,
      "hit": false,
      "t": 63600,
      "d": 300,
      "v": 100
    },
    {
      "midi": 59,
      "hit": false,
      "t": 63600,
      "d": 300,
      "v": 100
    },
    {
      "midi": 71,
      "hit": false,
      "t": 63900,
      "d": 300,
      "v": 100
    },
    {
      "midi": 62,
      "hit": false,
      "t": 63900,
      "d": 300,
      "v": 100
    },
    {
      "midi": 69,
      "hit": false,
      "t": 64200,
      "d": 300,
      "v": 100
    },
    {
      "midi": 61,
      "hit": false,
      "t": 64200,
      "d": 300,
      "v": 100
    },
    {
      "midi": 67,
      "hit": false,
      "t": 64500,
      "d": 300,
      "v": 100
    },
    {
      "midi": 59,
      "hit": false,
      "t": 64500,
      "d": 300,
      "v": 100
    },
    {
      "midi": 67,
      "hit": false,
      "t": 64800,
      "d": 600,
      "v": 100
    },
    {
      "midi": 50,
      "hit": false,
      "t": 64800,
      "d": 600,
      "v": 100
    },
    {
      "midi": 59,
      "hit": false,
      "t": 64800,
      "d": 600,
      "v": 100
    },
    {
      "midi": 66,
      "hit": false,
      "t": 65400,
      "d": 300,
      "v": 100
    },
    {
      "midi": 57,
      "hit": false,
      "t": 65400,
      "d": 300,
      "v": 100
    },
    {
      "midi": 66,
      "hit": false,
      "t": 66000,
      "d": 600,
      "v": 100
    },
    {
      "midi": 74,
      "hit": false,
      "t": 66000,
      "d": 600,
      "v": 100
    },
    {
      "midi": 47,
      "hit": false,
      "t": 66000,
      "d": 600,
      "v": 100
    },
    {
      "midi": 66,
      "hit": false,
      "t": 66600,
      "d": 600,
      "v": 100
    },
    {
      "midi": 71,
      "hit": false,
      "t": 66600,
      "d": 600,
      "v": 100
    },
    {
      "midi": 50,
      "hit": false,
      "t": 66600,
      "d": 600,
      "v": 100
    },
    {
      "midi": 64,
      "hit": false,
      "t": 67200,
      "d": 300,
      "v": 100
    },
    {
      "midi": 67,
      "hit": false,
      "t": 67200,
      "d": 300,
      "v": 100
    },
    {
      "midi": 52,
      "hit": false,
      "t": 67200,
      "d": 900,
      "v": 100
    },
    {
      "midi": 63,
      "hit": false,
      "t": 67500,
      "d": 300,
      "v": 100
    },
    {
      "midi": 66,
      "hit": false,
      "t": 67500,
      "d": 300,
      "v": 100
    },
    {
      "midi": 64,
      "hit": false,
      "t": 67800,
      "d": 300,
      "v": 100
    },
    {
      "midi": 67,
      "hit": false,
      "t": 67800,
      "d": 300,
      "v": 100
    },
    {
      "midi": 67,
      "hit": false,
      "t": 68400,
      "d": 600,
      "v": 100
    },
    {
      "midi": 76,
      "hit": false,
      "t": 68400,
      "d": 600,
      "v": 100
    },
    {
      "midi": 49,
      "hit": false,
      "t": 68400,
      "d": 600,
      "v": 100
    },
    {
      "midi": 67,
      "hit": false,
      "t": 69000,
      "d": 600,
      "v": 100
    },
    {
      "midi": 73,
      "hit": false,
      "t": 69000,
      "d": 600,
      "v": 100
    },
    {
      "midi": 52,
      "hit": false,
      "t": 69000,
      "d": 600,
      "v": 100
    },
    {
      "midi": 66,
      "hit": false,
      "t": 69600,
      "d": 300,
      "v": 100
    },
    {
      "midi": 69,
      "hit": false,
      "t": 69600,
      "d": 300,
      "v": 100
    },
    {
      "midi": 54,
      "hit": false,
      "t": 69600,
      "d": 900,
      "v": 100
    },
    {
      "midi": 65,
      "hit": false,
      "t": 69900,
      "d": 300,
      "v": 100
    },
    {
      "midi": 68,
      "hit": false,
      "t": 69900,
      "d": 300,
      "v": 100
    },
    {
      "midi": 66,
      "hit": false,
      "t": 70200,
      "d": 300,
      "v": 100
    },
    {
      "midi": 69,
      "hit": false,
      "t": 70200,
      "d": 300,
      "v": 100
    },
    {
      "midi": 74,
      "hit": false,
      "t": 70800,
      "d": 300,
      "v": 100
    },
    {
      "midi": 47,
      "hit": false,
      "t": 70800,
      "d": 600,
      "v": 100
    },
    {
      "midi": 59,
      "hit": false,
      "t": 70800,
      "d": 600,
      "v": 100
    },
    {
      "midi": 76,
      "hit": false,
      "t": 71100,
      "d": 300,
      "v": 100
    },
    {
      "midi": 78,
      "hit": false,
      "t": 71400,
      "d": 300,
      "v": 100
    },
    {
      "midi": 57,
      "hit": false,
      "t": 71400,
      "d": 300,
      "v": 100
    },
    {
      "midi": 79,
      "hit": false,
      "t": 71700,
      "d": 300,
      "v": 100
    },
    {
      "midi": 55,
      "hit": false,
      "t": 71700,
      "d": 300,
      "v": 100
    },
    {
      "midi": 81,
      "hit": false,
      "t": 72000,
      "d": 300,
      "v": 100
    },
    {
      "midi": 54,
      "hit": false,
      "t": 72000,
      "d": 300,
      "v": 100
    },
    {
      "midi": 74,
      "hit": false,
      "t": 72600,
      "d": 600,
      "v": 100
    },
    {
      "midi": 78,
      "hit": false,
      "t": 72600,
      "d": 600,
      "v": 100
    },
    {
      "midi": 59,
      "hit": false,
      "t": 72600,
      "d": 600,
      "v": 100
    },
    {
      "midi": 74,
      "hit": false,
      "t": 73200,
      "d": 600,
      "v": 100
    },
    {
      "midi": 79,
      "hit": false,
      "t": 73200,
      "d": 600,
      "v": 100
    },
    {
      "midi": 52,
      "hit": false,
      "t": 73200,
      "d": 600,
      "v": 100
    },
    {
      "midi": 69,
      "hit": false,
      "t": 73800,
      "d": 600,
      "v": 100
    },
    {
      "midi": 73,
      "hit": false,
      "t": 73800,
      "d": 600,
      "v": 100
    },
    {
      "midi": 76,
      "hit": false,
      "t": 73800,
      "d": 600,
      "v": 100
    },
    {
      "midi": 57,
      "hit": false,
      "t": 73800,
      "d": 300,
      "v": 100
    },
    {
      "midi": 55,
      "hit": false,
      "t": 74100,
      "d": 300,
      "v": 100
    },
    {
      "midi": 69,
      "hit": false,
      "t": 74400,
      "d": 1200,
      "v": 100
    },
    {
      "midi": 74,
      "hit": false,
      "t": 74400,
      "d": 1200,
      "v": 100
    },
    {
      "midi": 81,
      "hit": false,
      "t": 74400,
      "d": 1200,
      "v": 100
    },
    {
      "midi": 54,
      "hit": false,
      "t": 74400,
      "d": 1200,
      "v": 100
    },
    {
      "midi": 74,
      "hit": false,
      "t": 75600,
      "d": 300,
      "v": 100
    },
    {
      "midi": 47,
      "hit": false,
      "t": 75600,
      "d": 600,
      "v": 100
    },
    {
      "midi": 76,
      "hit": false,
      "t": 75900,
      "d": 300,
      "v": 100
    },
    {
      "midi": 78,
      "hit": false,
      "t": 76200,
      "d": 300,
      "v": 100
    },
    {
      "midi": 45,
      "hit": false,
      "t": 76200,
      "d": 300,
      "v": 100
    },
    {
      "midi": 79,
      "hit": false,
      "t": 76500,
      "d": 300,
      "v": 100
    },
    {
      "midi": 43,
      "hit": false,
      "t": 76500,
      "d": 300,
      "v": 100
    },
    {
      "midi": 81,
      "hit": false,
      "t": 76800,
      "d": 300,
      "v": 100
    },
    {
      "midi": 42,
      "hit": false,
      "t": 76800,
      "d": 600,
      "v": 100
    },
    {
      "midi": 83,
      "hit": false,
      "t": 77100,
      "d": 300,
      "v": 100
    },
    {
      "midi": 81,
      "hit": false,
      "t": 77400,
      "d": 300,
      "v": 100
    },
    {
      "midi": 79,
      "hit": false,
      "t": 77700,
      "d": 300,
      "v": 100
    },
    {
      "midi": 59,
      "hit": false,
      "t": 77700,
      "d": 300,
      "v": 100
    },
    {
      "midi": 78,
      "hit": false,
      "t": 78000,
      "d": 300,
      "v": 100
    },
    {
      "midi": 57,
      "hit": false,
      "t": 78000,
      "d": 300,
      "v": 100
    },
    {
      "midi": 67,
      "hit": false,
      "t": 78600,
      "d": 600,
      "v": 100
    },
    {
      "midi": 73,
      "hit": false,
      "t": 78600,
      "d": 600,
      "v": 100
    },
    {
      "midi": 76,
      "hit": false,
      "t": 78600,
      "d": 600,
      "v": 100
    },
    {
      "midi": 45,
      "hit": false,
      "t": 78600,
      "d": 600,
      "v": 100
    },
    {
      "midi": 57,
      "hit": false,
      "t": 78600,
      "d": 600,
      "v": 100
    },
    {
      "midi": 66,
      "hit": false,
      "t": 79200,
      "d": 1200,
      "v": 100
    },
    {
      "midi": 69,
      "hit": false,
      "t": 79200,
      "d": 1200,
      "v": 100
    },
    {
      "midi": 74,
      "hit": false,
      "t": 79200,
      "d": 1200,
      "v": 100
    },
    {
      "midi": 50,
      "hit": false,
      "t": 79200,
      "d": 1200,
      "v": 100
    },
    {
      "midi": 61,
      "hit": false,
      "t": 80400,
      "d": 600,
      "v": 100
    },
    {
      "midi": 69,
      "hit": false,
      "t": 80400,
      "d": 600,
      "v": 100
    },
    {
      "midi": 57,
      "hit": false,
      "t": 80400,
      "d": 600,
      "v": 100
    },
    {
      "midi": 61,
      "hit": false,
      "t": 81000,
      "d": 600,
      "v": 100
    },
    {
      "midi": 69,
      "hit": false,
      "t": 81000,
      "d": 600,
      "v": 100
    },
    {
      "midi": 55,
      "hit": false,
      "t": 81000,
      "d": 600,
      "v": 100
    },
    {
      "midi": 66,
      "hit": false,
      "t": 81600,
      "d": 1200,
      "v": 100
    },
    {
      "midi": 69,
      "hit": false,
      "t": 81600,
      "d": 1200,
      "v": 100
    },
    {
      "midi": 74,
      "hit": false,
      "t": 81600,
      "d": 1200,
      "v": 100
    },
    {
      "midi": 50,
      "hit": false,
      "t": 81600,
      "d": 1200,
      "v": 100
    },
    {
      "midi": 57,
      "hit": false,
      "t": 81600,
      "d": 1200,
      "v": 100
    }
  ]
}