{
  "jsonPath": "Rock/Merseybeat/Vanity Fare/oh-jane.json",
  "path": "Rock\\Merseybeat\\Vanity Fare\\Oh Jane.mid",
  "name": "Oh Jane",
  "difficulty": "Advanced",
  "bpm": 90.00103501190263,
  "notes": [
    {
      "midi": 1,
      "hit": false,
      "t": 0,
      "d": 2666.636,
      "v": 1
    },
    {
      "midi": 1,
      "hit": false,
      "t": 0,
      "d": 2611.0810833333335,
      "v": 1
    },
    {
      "midi": 69,
      "hit": false,
      "t": 5298.550177083333,
      "d": 124.99856249999993,
      "v": 82
    },
    {
      "midi": 77,
      "hit": false,
      "t": 5298.550177083333,
      "d": 124.99856249999993,
      "v": 82
    },
    {
      "midi": 60,
      "hit": false,
      "t": 5298.550177083333,
      "d": 159.72038541666643,
      "v": 82
    },
    {
      "midi": 60,
      "hit": false,
      "t": 5298.550177083333,
      "d": 2229.141031250001,
      "v": 63
    },
    {
      "midi": 65,
      "hit": false,
      "t": 5305.494541666667,
      "d": 2166.6417500000007,
      "v": 63
    },
    {
      "midi": 57,
      "hit": false,
      "t": 5305.494541666667,
      "d": 2222.1966666666676,
      "v": 63
    },
    {
      "midi": 77,
      "hit": false,
      "t": 5965.209177083333,
      "d": 138.8872916666669,
      "v": 82
    },
    {
      "midi": 60,
      "hit": false,
      "t": 5965.209177083333,
      "d": 152.77602083333386,
      "v": 82
    },
    {
      "midi": 69,
      "hit": false,
      "t": 5965.209177083333,
      "d": 152.77602083333386,
      "v": 82
    },
    {
      "midi": 69,
      "hit": false,
      "t": 6631.868177083334,
      "d": 138.8872916666669,
      "v": 82
    },
    {
      "midi": 77,
      "hit": false,
      "t": 6631.868177083334,
      "d": 138.8872916666669,
      "v": 82
    },
    {
      "midi": 60,
      "hit": false,
      "t": 6631.868177083334,
      "d": 180.55347916666688,
      "v": 82
    },
    {
      "midi": 77,
      "hit": false,
      "t": 7298.527177083334,
      "d": 138.8872916666669,
      "v": 82
    },
    {
      "midi": 69,
      "hit": false,
      "t": 7298.527177083334,
      "d": 159.72038541666734,
      "v": 82
    },
    {
      "midi": 60,
      "hit": false,
      "t": 7298.527177083334,
      "d": 180.55347916666778,
      "v": 82
    },
    {
      "midi": 55,
      "hit": false,
      "t": 7965.186177083335,
      "d": 2409.694510416666,
      "v": 63
    },
    {
      "midi": 60,
      "hit": false,
      "t": 7965.186177083335,
      "d": 2437.47196875,
      "v": 63
    },
    {
      "midi": 67,
      "hit": false,
      "t": 7965.186177083336,
      "d": 152.77602083333295,
      "v": 82
    },
    {
      "midi": 76,
      "hit": false,
      "t": 7965.186177083336,
      "d": 152.77602083333295,
      "v": 82
    },
    {
      "midi": 60,
      "hit": false,
      "t": 7965.186177083336,
      "d": 166.6647499999999,
      "v": 82
    },
    {
      "midi": 64,
      "hit": false,
      "t": 7972.130541666668,
      "d": 2312.47340625,
      "v": 63
    },
    {
      "midi": 76,
      "hit": false,
      "t": 8631.845177083336,
      "d": 124.99856250000084,
      "v": 82
    },
    {
      "midi": 60,
      "hit": false,
      "t": 8631.845177083336,
      "d": 145.83165625000038,
      "v": 82
    },
    {
      "midi": 67,
      "hit": false,
      "t": 8631.845177083336,
      "d": 152.77602083333295,
      "v": 82
    },
    {
      "midi": 67,
      "hit": false,
      "t": 9298.504177083336,
      "d": 138.887291666666,
      "v": 82
    },
    {
      "midi": 76,
      "hit": false,
      "t": 9298.504177083336,
      "d": 138.887291666666,
      "v": 82
    },
    {
      "midi": 60,
      "hit": false,
      "t": 9298.504177083336,
      "d": 152.77602083333295,
      "v": 82
    },
    {
      "midi": 60,
      "hit": false,
      "t": 9965.163177083336,
      "d": 131.94292708333342,
      "v": 82
    },
    {
      "midi": 67,
      "hit": false,
      "t": 9965.163177083336,
      "d": 138.887291666666,
      "v": 82
    },
    {
      "midi": 76,
      "hit": false,
      "t": 9965.163177083336,
      "d": 159.72038541666552,
      "v": 82
    },
    {
      "midi": 75,
      "hit": false,
      "t": 10631.822177083335,
      "d": 138.887291666666,
      "v": 82
    },
    {
      "midi": 67,
      "hit": false,
      "t": 10631.822177083335,
      "d": 152.77602083333295,
      "v": 82
    },
    {
      "midi": 60,
      "hit": false,
      "t": 10631.822177083335,
      "d": 166.6647499999999,
      "v": 82
    },
    {
      "midi": 55,
      "hit": false,
      "t": 10631.822177083335,
      "d": 1104.153968749999,
      "v": 63
    },
    {
      "midi": 63,
      "hit": false,
      "t": 10631.822177083335,
      "d": 1208.3194375000003,
      "v": 63
    },
    {
      "midi": 60,
      "hit": false,
      "t": 10638.766541666668,
      "d": 1159.7088854166668,
      "v": 63
    },
    {
      "midi": 75,
      "hit": false,
      "t": 11298.481177083335,
      "d": 124.99856250000084,
      "v": 82
    },
    {
      "midi": 60,
      "hit": false,
      "t": 11298.481177083335,
      "d": 138.8872916666678,
      "v": 82
    },
    {
      "midi": 67,
      "hit": false,
      "t": 11298.481177083335,
      "d": 194.44220833333384,
      "v": 82
    },
    {
      "midi": 66,
      "hit": false,
      "t": 11965.140177083334,
      "d": 159.72038541666734,
      "v": 82
    },
    {
      "midi": 74,
      "hit": false,
      "t": 11965.140177083334,
      "d": 159.72038541666734,
      "v": 82
    },
    {
      "midi": 57,
      "hit": false,
      "t": 11965.140177083334,
      "d": 201.38657291666823,
      "v": 82
    },
    {
      "midi": 57,
      "hit": false,
      "t": 11965.140177083336,
      "d": 1083.3208749999994,
      "v": 63
    },
    {
      "midi": 54,
      "hit": false,
      "t": 11972.084541666669,
      "d": 1090.2652395833338,
      "v": 63
    },
    {
      "midi": 62,
      "hit": false,
      "t": 11972.084541666669,
      "d": 1104.1539687500008,
      "v": 63
    },
    {
      "midi": 57,
      "hit": false,
      "t": 12631.799177083336,
      "d": 152.77602083333295,
      "v": 82
    },
    {
      "midi": 66,
      "hit": false,
      "t": 12631.799177083336,
      "d": 166.6647499999999,
      "v": 82
    },
    {
      "midi": 74,
      "hit": false,
      "t": 12631.799177083336,
      "d": 166.6647499999999,
      "v": 82
    },
    {
      "midi": 58,
      "hit": false,
      "t": 13298.458177083336,
      "d": 138.887291666666,
      "v": 82
    },
    {
      "midi": 73,
      "hit": false,
      "t": 13298.458177083336,
      "d": 152.77602083333295,
      "v": 82
    },
    {
      "midi": 65,
      "hit": false,
      "t": 13298.458177083336,
      "d": 180.55347916666688,
      "v": 82
    },
    {
      "midi": 53,
      "hit": false,
      "t": 13298.458177083336,
      "d": 1090.2652395833338,
      "v": 63
    },
    {
      "midi": 61,
      "hit": false,
      "t": 13305.402541666668,
      "d": 1055.5434166666673,
      "v": 63
    },
    {
      "midi": 58,
      "hit": false,
      "t": 13305.402541666668,
      "d": 1194.4307083333351,
      "v": 63
    },
    {
      "midi": 73,
      "hit": false,
      "t": 13965.117177083335,
      "d": 152.77602083333295,
      "v": 82
    },
    {
      "midi": 58,
      "hit": false,
      "t": 13965.117177083335,
      "d": 180.55347916666688,
      "v": 82
    },
    {
      "midi": 65,
      "hit": false,
      "t": 13965.117177083335,
      "d": 180.55347916666688,
      "v": 82
    },
    {
      "midi": 72,
      "hit": false,
      "t": 14631.776177083335,
      "d": 145.83165625000038,
      "v": 82
    },
    {
      "midi": 64,
      "hit": false,
      "t": 14631.776177083335,
      "d": 166.6647499999999,
      "v": 82
    },
    {
      "midi": 55,
      "hit": false,
      "t": 14631.776177083335,
      "d": 180.55347916666688,
      "v": 82
    },
    {
      "midi": 55,
      "hit": false,
      "t": 14631.776177083337,
      "d": 937.489218749999,
      "v": 63
    },
    {
      "midi": 60,
      "hit": false,
      "t": 14631.776177083337,
      "d": 979.1554062499999,
      "v": 63
    },
    {
      "midi": 64,
      "hit": false,
      "t": 14638.72054166667,
      "d": 972.2110416666674,
      "v": 63
    },
    {
      "midi": 64,
      "hit": false,
      "t": 15298.435177083335,
      "d": 284.71894791666637,
      "v": 82
    },
    {
      "midi": 72,
      "hit": false,
      "t": 15298.435177083335,
      "d": 284.71894791666637,
      "v": 82
    },
    {
      "midi": 55,
      "hit": false,
      "t": 15298.435177083335,
      "d": 312.4964062500003,
      "v": 82
    },
    {
      "midi": 71,
      "hit": false,
      "t": 15965.094177083334,
      "d": 104.16546874999949,
      "v": 76
    },
    {
      "midi": 60,
      "hit": false,
      "t": 15965.094177083334,
      "d": 111.10983333333206,
      "v": 82
    },
    {
      "midi": 77,
      "hit": false,
      "t": 15965.094177083334,
      "d": 111.10983333333206,
      "v": 82
    },
    {
      "midi": 69,
      "hit": false,
      "t": 15965.094177083334,
      "d": 118.05419791666463,
      "v": 82
    },
    {
      "midi": 57,
      "hit": false,
      "t": 15965.094177083336,
      "d": 2402.75014583333,
      "v": 63
    },
    {
      "midi": 65,
      "hit": false,
      "t": 15972.038541666669,
      "d": 2333.306499999999,
      "v": 63
    },
    {
      "midi": 60,
      "hit": false,
      "t": 15972.038541666669,
      "d": 2395.8057812499974,
      "v": 63
    },
    {
      "midi": 77,
      "hit": false,
      "t": 16631.753177083334,
      "d": 124.99856250000084,
      "v": 82
    },
    {
      "midi": 60,
      "hit": false,
      "t": 16631.753177083334,
      "d": 138.887291666666,
      "v": 82
    },
    {
      "midi": 69,
      "hit": false,
      "t": 16631.753177083334,
      "d": 138.887291666666,
      "v": 82
    },
    {
      "midi": 77,
      "hit": false,
      "t": 17298.412177083334,
      "d": 124.99856250000084,
      "v": 82
    },
    {
      "midi": 60,
      "hit": false,
      "t": 17298.412177083334,
      "d": 131.94292708333523,
      "v": 82
    },
    {
      "midi": 69,
      "hit": false,
      "t": 17298.412177083334,
      "d": 131.94292708333523,
      "v": 82
    },
    {
      "midi": 60,
      "hit": false,
      "t": 17965.071177083337,
      "d": 118.05419791666645,
      "v": 82
    },
    {
      "midi": 77,
      "hit": false,
      "t": 17965.071177083337,
      "d": 118.05419791666645,
      "v": 82
    },
    {
      "midi": 69,
      "hit": false,
      "t": 17965.071177083337,
      "d": 131.9429270833316,
      "v": 82
    },
    {
      "midi": 64,
      "hit": false,
      "t": 18631.730177083333,
      "d": 2138.8642916666686,
      "v": 63
    },
    {
      "midi": 60,
      "hit": false,
      "t": 18631.730177083336,
      "d": 124.99856250000084,
      "v": 82
    },
    {
      "midi": 76,
      "hit": false,
      "t": 18631.730177083336,
      "d": 124.99856250000084,
      "v": 82
    },
    {
      "midi": 69,
      "hit": false,
      "t": 18631.730177083336,
      "d": 145.83165625000038,
      "v": 82
    },
    {
      "midi": 55,
      "hit": false,
      "t": 18638.674541666667,
      "d": 2159.697385416668,
      "v": 63
    },
    {
      "midi": 57,
      "hit": false,
      "t": 18638.674541666667,
      "d": 2159.697385416668,
      "v": 63
    },
    {
      "midi": 60,
      "hit": false,
      "t": 18638.674541666667,
      "d": 2194.4192083333364,
      "v": 63
    },
    {
      "midi": 60,
      "hit": false,
      "t": 19298.389177083336,
      "d": 152.77602083333477,
      "v": 82
    },
    {
      "midi": 76,
      "hit": false,
      "t": 19298.389177083336,
      "d": 152.77602083333477,
      "v": 82
    },
    {
      "midi": 69,
      "hit": false,
      "t": 19298.389177083336,
      "d": 166.6647499999999,
      "v": 82
    },
    {
      "midi": 60,
      "hit": false,
      "t": 19965.048177083336,
      "d": 124.99856250000084,
      "v": 82
    },
    {
      "midi": 76,
      "hit": false,
      "t": 19965.048177083336,
      "d": 138.887291666666,
      "v": 82
    },
    {
      "midi": 69,
      "hit": false,
      "t": 19965.048177083336,
      "d": 152.77602083333113,
      "v": 82
    },
    {
      "midi": 69,
      "hit": false,
      "t": 20631.707177083335,
      "d": 111.10983333333206,
      "v": 82
    },
    {
      "midi": 60,
      "hit": false,
      "t": 20631.707177083335,
      "d": 124.9985624999972,
      "v": 82
    },
    {
      "midi": 76,
      "hit": false,
      "t": 20631.707177083335,
      "d": 124.9985624999972,
      "v": 82
    },
    {
      "midi": 75,
      "hit": false,
      "t": 21298.36617708333,
      "d": 118.05419791666645,
      "v": 82
    },
    {
      "midi": 60,
      "hit": false,
      "t": 21298.36617708333,
      "d": 131.9429270833316,
      "v": 82
    },
    {
      "midi": 67,
      "hit": false,
      "t": 21298.36617708333,
      "d": 131.9429270833316,
      "v": 82
    },
    {
      "midi": 55,
      "hit": false,
      "t": 21298.36617708334,
      "d": 2444.4163333333345,
      "v": 63
    },
    {
      "midi": 58,
      "hit": false,
      "t": 21298.36617708334,
      "d": 2472.1937916666684,
      "v": 63
    },
    {
      "midi": 60,
      "hit": false,
      "t": 21305.310541666673,
      "d": 2472.1937916666684,
      "v": 63
    },
    {
      "midi": 63,
      "hit": false,
      "t": 21305.310541666673,
      "d": 2486.0825208333335,
      "v": 63
    },
    {
      "midi": 75,
      "hit": false,
      "t": 21965.02517708333,
      "d": 118.05419791666645,
      "v": 82
    },
    {
      "midi": 60,
      "hit": false,
      "t": 21965.02517708333,
      "d": 124.99856250000084,
      "v": 82
    },
    {
      "midi": 67,
      "hit": false,
      "t": 21965.02517708333,
      "d": 138.887291666666,
      "v": 82
    },
    {
      "midi": 75,
      "hit": false,
      "t": 22631.68417708333,
      "d": 104.16546875000131,
      "v": 82
    },
    {
      "midi": 67,
      "hit": false,
      "t": 22631.68417708333,
      "d": 118.05419791666645,
      "v": 82
    },
    {
      "midi": 60,
      "hit": false,
      "t": 22631.68417708333,
      "d": 131.9429270833316,
      "v": 82
    },
    {
      "midi": 75,
      "hit": false,
      "t": 23298.34317708333,
      "d": 90.27673958333253,
      "v": 82
    },
    {
      "midi": 60,
      "hit": false,
      "t": 23298.34317708333,
      "d": 111.10983333333206,
      "v": 82
    },
    {
      "midi": 67,
      "hit": false,
      "t": 23298.34317708333,
      "d": 124.9985624999972,
      "v": 82
    },
    {
      "midi": 66,
      "hit": false,
      "t": 23965.002177083326,
      "d": 131.9429270833316,
      "v": 82
    },
    {
      "midi": 74,
      "hit": false,
      "t": 23965.002177083326,
      "d": 131.9429270833316,
      "v": 82
    },
    {
      "midi": 57,
      "hit": false,
      "t": 23965.002177083326,
      "d": 145.83165624999674,
      "v": 82
    },
    {
      "midi": 62,
      "hit": false,
      "t": 23965.00217708334,
      "d": 2166.641749999999,
      "v": 63
    },
    {
      "midi": 57,
      "hit": false,
      "t": 23971.946541666675,
      "d": 2131.919927083334,
      "v": 63
    },
    {
      "midi": 54,
      "hit": false,
      "t": 23971.946541666675,
      "d": 2145.8086562499993,
      "v": 63
    },
    {
      "midi": 74,
      "hit": false,
      "t": 24631.661177083322,
      "d": 104.16546875000131,
      "v": 82
    },
    {
      "midi": 66,
      "hit": false,
      "t": 24631.661177083322,
      "d": 118.05419791666645,
      "v": 82
    },
    {
      "midi": 57,
      "hit": false,
      "t": 24631.661177083322,
      "d": 145.83165625000038,
      "v": 82
    },
    {
      "midi": 57,
      "hit": false,
      "t": 25298.320177083322,
      "d": 138.887291666666,
      "v": 82
    },
    {
      "midi": 66,
      "hit": false,
      "t": 25298.320177083322,
      "d": 138.887291666666,
      "v": 82
    },
    {
      "midi": 74,
      "hit": false,
      "t": 25298.320177083322,
      "d": 138.887291666666,
      "v": 82
    },
    {
      "midi": 57,
      "hit": false,
      "t": 25964.97917708332,
      "d": 118.05419791666645,
      "v": 82
    },
    {
      "midi": 66,
      "hit": false,
      "t": 25964.97917708332,
      "d": 118.05419791666645,
      "v": 82
    },
    {
      "midi": 74,
      "hit": false,
      "t": 25964.97917708332,
      "d": 131.9429270833316,
      "v": 82
    },
    {
      "midi": 74,
      "hit": false,
      "t": 26631.63817708332,
      "d": 83.33237500000178,
      "v": 82
    },
    {
      "midi": 58,
      "hit": false,
      "t": 26631.63817708332,
      "d": 111.1098333333357,
      "v": 82
    },
    {
      "midi": 67,
      "hit": false,
      "t": 26631.63817708332,
      "d": 131.94292708333523,
      "v": 82
    },
    {
      "midi": 62,
      "hit": false,
      "t": 26631.63817708334,
      "d": 2513.859979166671,
      "v": 63
    },
    {
      "midi": 58,
      "hit": false,
      "t": 26631.63817708334,
      "d": 2520.8043437500055,
      "v": 63
    },
    {
      "midi": 55,
      "hit": false,
      "t": 26638.582541666674,
      "d": 2472.1937916666684,
      "v": 63
    },
    {
      "midi": 58,
      "hit": false,
      "t": 27298.297177083325,
      "d": 131.9429270833316,
      "v": 82
    },
    {
      "midi": 67,
      "hit": false,
      "t": 27298.297177083325,
      "d": 138.887291666666,
      "v": 82
    },
    {
      "midi": 74,
      "hit": false,
      "t": 27298.297177083325,
      "d": 138.887291666666,
      "v": 82
    },
    {
      "midi": 58,
      "hit": false,
      "t": 27964.956177083324,
      "d": 124.99856250000084,
      "v": 82
    },
    {
      "midi": 67,
      "hit": false,
      "t": 27964.956177083324,
      "d": 124.99856250000084,
      "v": 82
    },
    {
      "midi": 74,
      "hit": false,
      "t": 27964.956177083324,
      "d": 124.99856250000084,
      "v": 82
    },
    {
      "midi": 58,
      "hit": false,
      "t": 28631.615177083324,
      "d": 111.10983333333206,
      "v": 82
    },
    {
      "midi": 67,
      "hit": false,
      "t": 28631.615177083324,
      "d": 124.9985624999972,
      "v": 82
    },
    {
      "midi": 74,
      "hit": false,
      "t": 28631.615177083324,
      "d": 124.9985624999972,
      "v": 82
    },
    {
      "midi": 58,
      "hit": false,
      "t": 29298.27417708332,
      "d": 124.99856250000084,
      "v": 82
    },
    {
      "midi": 73,
      "hit": false,
      "t": 29298.27417708332,
      "d": 124.99856250000084,
      "v": 82
    },
    {
      "midi": 65,
      "hit": false,
      "t": 29298.27417708332,
      "d": 152.77602083333477,
      "v": 82
    },
    {
      "midi": 58,
      "hit": false,
      "t": 29298.274177083345,
      "d": 2291.6403125000033,
      "v": 63
    },
    {
      "midi": 53,
      "hit": false,
      "t": 29305.21854166668,
      "d": 2229.141031250001,
      "v": 63
    },
    {
      "midi": 61,
      "hit": false,
      "t": 29305.21854166668,
      "d": 2263.8628541666694,
      "v": 63
    },
    {
      "midi": 73,
      "hit": false,
      "t": 29964.933177083323,
      "d": 97.22110416666692,
      "v": 82
    },
    {
      "midi": 58,
      "hit": false,
      "t": 29964.933177083323,
      "d": 104.16546875000131,
      "v": 82
    },
    {
      "midi": 65,
      "hit": false,
      "t": 29964.933177083323,
      "d": 138.88729166666963,
      "v": 82
    },
    {
      "midi": 73,
      "hit": false,
      "t": 30631.592177083327,
      "d": 97.22110416666692,
      "v": 82
    },
    {
      "midi": 65,
      "hit": false,
      "t": 30631.592177083327,
      "d": 111.10983333333206,
      "v": 82
    },
    {
      "midi": 58,
      "hit": false,
      "t": 30631.592177083327,
      "d": 118.05419791666645,
      "v": 82
    },
    {
      "midi": 73,
      "hit": false,
      "t": 31298.251177083326,
      "d": 97.22110416666692,
      "v": 82
    },
    {
      "midi": 58,
      "hit": false,
      "t": 31298.251177083326,
      "d": 111.10983333333206,
      "v": 82
    },
    {
      "midi": 65,
      "hit": false,
      "t": 31298.251177083326,
      "d": 118.05419791666645,
      "v": 82
    },
    {
      "midi": 57,
      "hit": false,
      "t": 31964.910177083326,
      "d": 118.05419791666645,
      "v": 82
    },
    {
      "midi": 64,
      "hit": false,
      "t": 31964.910177083326,
      "d": 124.99856250000084,
      "v": 82
    },
    {
      "midi": 72,
      "hit": false,
      "t": 31964.910177083326,
      "d": 145.83165625000038,
      "v": 82
    },
    {
      "midi": 60,
      "hit": false,
      "t": 31964.910177083348,
      "d": 1104.1539687500008,
      "v": 63
    },
    {
      "midi": 57,
      "hit": false,
      "t": 31964.910177083348,
      "d": 1118.0426979166696,
      "v": 63
    },
    {
      "midi": 64,
      "hit": false,
      "t": 31964.910177083348,
      "d": 1152.7645208333379,
      "v": 63
    },
    {
      "midi": 55,
      "hit": false,
      "t": 31971.854541666682,
      "d": 1097.2096041666664,
      "v": 63
    },
    {
      "midi": 57,
      "hit": false,
      "t": 32631.569177083325,
      "d": 131.9429270833316,
      "v": 82
    },
    {
      "midi": 64,
      "hit": false,
      "t": 32631.569177083325,
      "d": 131.9429270833316,
      "v": 82
    },
    {
      "midi": 72,
      "hit": false,
      "t": 32631.569177083325,
      "d": 145.83165625000038,
      "v": 82
    },
    {
      "midi": 57,
      "hit": false,
      "t": 33298.22817708333,
      "d": 118.05419791666645,
      "v": 82
    },
    {
      "midi": 74,
      "hit": false,
      "t": 33298.22817708333,
      "d": 124.9985624999972,
      "v": 82
    },
    {
      "midi": 65,
      "hit": false,
      "t": 33298.22817708333,
      "d": 138.887291666666,
      "v": 82
    },
    {
      "midi": 62,
      "hit": false,
      "t": 33298.22817708335,
      "d": 1173.5976145833338,
      "v": 63
    },
    {
      "midi": 53,
      "hit": false,
      "t": 33305.17254166668,
      "d": 1166.653250000003,
      "v": 63
    },
    {
      "midi": 57,
      "hit": false,
      "t": 33305.17254166668,
      "d": 1166.653250000003,
      "v": 63
    },
    {
      "midi": 57,
      "hit": false,
      "t": 33964.88717708333,
      "d": 111.1098333333357,
      "v": 82
    },
    {
      "midi": 65,
      "hit": false,
      "t": 33964.88717708333,
      "d": 131.94292708333523,
      "v": 82
    },
    {
      "midi": 74,
      "hit": false,
      "t": 33964.88717708333,
      "d": 131.94292708333523,
      "v": 82
    },
    {
      "midi": 67,
      "hit": false,
      "t": 34631.54617708333,
      "d": 90.27673958333617,
      "v": 82
    },
    {
      "midi": 62,
      "hit": false,
      "t": 34631.54617708333,
      "d": 104.16546875000495,
      "v": 82
    },
    {
      "midi": 74,
      "hit": false,
      "t": 34631.54617708333,
      "d": 118.05419791667373,
      "v": 82
    },
    {
      "midi": 55,
      "hit": false,
      "t": 34631.54617708335,
      "d": 1208.3194374999948,
      "v": 63
    },
    {
      "midi": 62,
      "hit": false,
      "t": 34631.54617708335,
      "d": 1263.8743541666554,
      "v": 63
    },
    {
      "midi": 59,
      "hit": false,
      "t": 34638.49054166668,
      "d": 1229.1525312499944,
      "v": 63
    },
    {
      "midi": 62,
      "hit": false,
      "t": 35298.205177083335,
      "d": 97.22110416666692,
      "v": 82
    },
    {
      "midi": 67,
      "hit": false,
      "t": 35298.205177083335,
      "d": 97.22110416666692,
      "v": 82
    },
    {
      "midi": 71,
      "hit": false,
      "t": 35298.205177083335,
      "d": 118.05419791666645,
      "v": 82
    },
    {
      "midi": 74,
      "hit": false,
      "t": 35298.205177083335,
      "d": 118.05419791666645,
      "v": 82
    },
    {
      "midi": 72,
      "hit": false,
      "t": 35964.864177083335,
      "d": 118.05419791666645,
      "v": 82
    },
    {
      "midi": 60,
      "hit": false,
      "t": 35964.864177083335,
      "d": 124.9985624999972,
      "v": 82
    },
    {
      "midi": 67,
      "hit": false,
      "t": 35964.864177083335,
      "d": 131.94292708332796,
      "v": 82
    },
    {
      "midi": 76,
      "hit": false,
      "t": 35964.864177083335,
      "d": 131.94292708332796,
      "v": 82
    },
    {
      "midi": 60,
      "hit": false,
      "t": 35964.86417708334,
      "d": 1006.9328645833302,
      "v": 63
    },
    {
      "midi": 55,
      "hit": false,
      "t": 35971.80854166667,
      "d": 986.0997708333307,
      "v": 63
    },
    {
      "midi": 64,
      "hit": false,
      "t": 35971.80854166667,
      "d": 1013.8772291666683,
      "v": 63
    },
    {
      "midi": 60,
      "hit": false,
      "t": 36631.52317708333,
      "d": 104.16546874999767,
      "v": 82
    },
    {
      "midi": 70,
      "hit": false,
      "t": 36631.52317708333,
      "d": 111.10983333332842,
      "v": 82
    },
    {
      "midi": 72,
      "hit": false,
      "t": 36631.52317708333,
      "d": 138.8872916666587,
      "v": 82
    },
    {
      "midi": 76,
      "hit": false,
      "t": 36631.52317708333,
      "d": 145.83165624998946,
      "v": 82
    },
    {
      "midi": 65,
      "hit": false,
      "t": 37298.18217708334,
      "d": 2201.3635729166635,
      "v": 63
    },
    {
      "midi": 60,
      "hit": false,
      "t": 37298.18217708334,
      "d": 2236.085395833332,
      "v": 63
    },
    {
      "midi": 57,
      "hit": false,
      "t": 37298.18217708334,
      "d": 2277.751583333331,
      "v": 63
    },
    {
      "midi": 53,
      "hit": false,
      "t": 37298.18217708334,
      "d": 2347.1952291666676,
      "v": 63
    },
    {
      "midi": 55,
      "hit": false,
      "t": 39964.81817708334,
      "d": 2312.4734062499992,
      "v": 63
    },
    {
      "midi": 57,
      "hit": false,
      "t": 39964.81817708334,
      "d": 2326.362135416668,
      "v": 63
    },
    {
      "midi": 61,
      "hit": false,
      "t": 39964.81817708334,
      "d": 2340.250864583337,
      "v": 63
    },
    {
      "midi": 64,
      "hit": false,
      "t": 39964.81817708334,
      "d": 2340.250864583337,
      "v": 63
    },
    {
      "midi": 57,
      "hit": false,
      "t": 42631.454177083346,
      "d": 659.7146354166689,
      "v": 63
    },
    {
      "midi": 65,
      "hit": false,
      "t": 42631.454177083346,
      "d": 673.6033645833377,
      "v": 63
    },
    {
      "midi": 62,
      "hit": false,
      "t": 42631.454177083346,
      "d": 694.4364583333372,
      "v": 63
    },
    {
      "midi": 50,
      "hit": false,
      "t": 42631.454177083346,
      "d": 874.9899375000023,
      "v": 63
    },
    {
      "midi": 76,
      "hit": false,
      "t": 43964.772177083345,
      "d": 874.9899375000023,
      "v": 63
    },
    {
      "midi": 69,
      "hit": false,
      "t": 43964.772177083345,
      "d": 1069.432145833336,
      "v": 63
    },
    {
      "midi": 65,
      "hit": false,
      "t": 43964.772177083345,
      "d": 1215.2638020833328,
      "v": 63
    },
    {
      "midi": 74,
      "hit": false,
      "t": 44964.760677083344,
      "d": 361.1069583333301,
      "v": 63
    },
    {
      "midi": 65,
      "hit": false,
      "t": 45298.090177083344,
      "d": 1833.3122499999954,
      "v": 63
    },
    {
      "midi": 69,
      "hit": false,
      "t": 45298.090177083344,
      "d": 1833.3122499999954,
      "v": 63
    },
    {
      "midi": 53,
      "hit": false,
      "t": 47964.72617708334,
      "d": 1152.7645208333342,
      "v": 63
    },
    {
      "midi": 58,
      "hit": false,
      "t": 47964.72617708334,
      "d": 1201.375072916664,
      "v": 63
    },
    {
      "midi": 62,
      "hit": false,
      "t": 47964.72617708334,
      "d": 1201.375072916664,
      "v": 63
    },
    {
      "midi": 55,
      "hit": false,
      "t": 49298.04417708334,
      "d": 1215.2638020833328,
      "v": 63
    },
    {
      "midi": 60,
      "hit": false,
      "t": 49298.04417708334,
      "d": 1215.2638020833328,
      "v": 63
    },
    {
      "midi": 64,
      "hit": false,
      "t": 49298.04417708334,
      "d": 1215.2638020833328,
      "v": 63
    },
    {
      "midi": 64,
      "hit": false,
      "t": 50631.36217708334,
      "d": 1131.9314270833347,
      "v": 63
    },
    {
      "midi": 60,
      "hit": false,
      "t": 50631.36217708334,
      "d": 1145.8201562500035,
      "v": 63
    },
    {
      "midi": 57,
      "hit": false,
      "t": 50631.36217708334,
      "d": 1173.5976145833338,
      "v": 63
    },
    {
      "midi": 57,
      "hit": false,
      "t": 51964.68017708334,
      "d": 999.9884999999995,
      "v": 63
    },
    {
      "midi": 62,
      "hit": false,
      "t": 51964.68017708334,
      "d": 1097.2096041666664,
      "v": 63
    },
    {
      "midi": 54,
      "hit": false,
      "t": 51964.68017708334,
      "d": 1111.0983333333352,
      "v": 63
    },
    {
      "midi": 55,
      "hit": false,
      "t": 53297.99817708334,
      "d": 2451.3606979166652,
      "v": 63
    },
    {
      "midi": 62,
      "hit": false,
      "t": 53297.99817708334,
      "d": 2472.1937916666648,
      "v": 63
    },
    {
      "midi": 58,
      "hit": false,
      "t": 53297.99817708334,
      "d": 2479.1381562499955,
      "v": 63
    },
    {
      "midi": 58,
      "hit": false,
      "t": 55964.63417708334,
      "d": 979.1554062499999,
      "v": 57
    },
    {
      "midi": 51,
      "hit": false,
      "t": 55964.63417708334,
      "d": 1020.821593749999,
      "v": 57
    },
    {
      "midi": 55,
      "hit": false,
      "t": 55964.63417708334,
      "d": 1159.708885416665,
      "v": 57
    },
    {
      "midi": 52,
      "hit": false,
      "t": 57297.95217708334,
      "d": 1187.4863437500026,
      "v": 57
    },
    {
      "midi": 55,
      "hit": false,
      "t": 57297.95217708334,
      "d": 1201.3750729166713,
      "v": 57
    },
    {
      "midi": 60,
      "hit": false,
      "t": 57297.95217708334,
      "d": 1201.3750729166713,
      "v": 57
    },
    {
      "midi": 65,
      "hit": false,
      "t": 58631.270177083345,
      "d": 2243.02976041667,
      "v": 63
    },
    {
      "midi": 60,
      "hit": false,
      "t": 58631.270177083345,
      "d": 2256.9184895833387,
      "v": 63
    },
    {
      "midi": 57,
      "hit": false,
      "t": 58631.270177083345,
      "d": 2284.695947916669,
      "v": 63
    },
    {
      "midi": 53,
      "hit": false,
      "t": 58631.270177083345,
      "d": 2465.249427083334,
      "v": 63
    },
    {
      "midi": 55,
      "hit": false,
      "t": 61297.90617708334,
      "d": 2291.6403124999997,
      "v": 63
    },
    {
      "midi": 57,
      "hit": false,
      "t": 61297.90617708334,
      "d": 2291.6403124999997,
      "v": 63
    },
    {
      "midi": 61,
      "hit": false,
      "t": 61297.90617708334,
      "d": 2305.5290416666685,
      "v": 63
    },
    {
      "midi": 64,
      "hit": false,
      "t": 61297.90617708334,
      "d": 2305.5290416666685,
      "v": 63
    },
    {
      "midi": 57,
      "hit": false,
      "t": 63964.54217708334,
      "d": 1152.7645208333342,
      "v": 63
    },
    {
      "midi": 62,
      "hit": false,
      "t": 63964.54217708334,
      "d": 1166.653250000003,
      "v": 63
    },
    {
      "midi": 65,
      "hit": false,
      "t": 63964.54217708334,
      "d": 1187.4863437500026,
      "v": 63
    },
    {
      "midi": 74,
      "hit": false,
      "t": 65297.86017708334,
      "d": 6.944364583330753,
      "v": 63
    },
    {
      "midi": 65,
      "hit": false,
      "t": 65297.86017708334,
      "d": 729.158281249991,
      "v": 63
    },
    {
      "midi": 76,
      "hit": false,
      "t": 65297.86017708334,
      "d": 736.102645833329,
      "v": 63
    },
    {
      "midi": 69,
      "hit": false,
      "t": 65297.86017708334,
      "d": 749.9913749999905,
      "v": 63
    },
    {
      "midi": 65,
      "hit": false,
      "t": 66297.84867708333,
      "d": 249.9971249999944,
      "v": 63
    },
    {
      "midi": 69,
      "hit": false,
      "t": 66297.84867708333,
      "d": 249.9971249999944,
      "v": 63
    },
    {
      "midi": 74,
      "hit": false,
      "t": 66297.84867708333,
      "d": 270.83021874999395,
      "v": 63
    },
    {
      "midi": 65,
      "hit": false,
      "t": 66631.17817708332,
      "d": 1520.815843749995,
      "v": 63
    },
    {
      "midi": 69,
      "hit": false,
      "t": 66631.17817708332,
      "d": 1534.7045729166566,
      "v": 63
    },
    {
      "midi": 53,
      "hit": false,
      "t": 69297.8141770833,
      "d": 1145.8201562500035,
      "v": 63
    },
    {
      "midi": 58,
      "hit": false,
      "t": 69297.8141770833,
      "d": 1208.319437500002,
      "v": 63
    },
    {
      "midi": 62,
      "hit": false,
      "t": 69297.8141770833,
      "d": 1249.9856250000012,
      "v": 63
    },
    {
      "midi": 58,
      "hit": false,
      "t": 70631.1321770833,
      "d": 48.6105520833371,
      "v": 63
    },
    {
      "midi": 64,
      "hit": false,
      "t": 70631.1321770833,
      "d": 1124.987062500004,
      "v": 63
    },
    {
      "midi": 55,
      "hit": false,
      "t": 70631.1321770833,
      "d": 1138.8757916666655,
      "v": 63
    },
    {
      "midi": 60,
      "hit": false,
      "t": 70631.1321770833,
      "d": 1180.5419791666645,
      "v": 63
    },
    {
      "midi": 60,
      "hit": false,
      "t": 71964.4501770833,
      "d": 1152.764520833327,
      "v": 63
    },
    {
      "midi": 55,
      "hit": false,
      "t": 71964.4501770833,
      "d": 1187.486343749988,
      "v": 63
    },
    {
      "midi": 57,
      "hit": false,
      "t": 71964.4501770833,
      "d": 1208.3194374999875,
      "v": 63
    },
    {
      "midi": 64,
      "hit": false,
      "t": 71964.4501770833,
      "d": 1208.3194374999875,
      "v": 63
    },
    {
      "midi": 57,
      "hit": false,
      "t": 73297.76817708329,
      "d": 1034.7103229166678,
      "v": 63
    },
    {
      "midi": 62,
      "hit": false,
      "t": 73297.76817708329,
      "d": 1048.5990520833293,
      "v": 63
    },
    {
      "midi": 54,
      "hit": false,
      "t": 73297.76817708329,
      "d": 1076.3765104166669,
      "v": 63
    },
    {
      "midi": 55,
      "hit": false,
      "t": 74631.08617708329,
      "d": 1152.764520833327,
      "v": 63
    },
    {
      "midi": 62,
      "hit": false,
      "t": 74631.08617708329,
      "d": 1305.5405416666617,
      "v": 63
    },
    {
      "midi": 58,
      "hit": false,
      "t": 74631.08617708329,
      "d": 1319.4292708333232,
      "v": 63
    },
    {
      "midi": 58,
      "hit": false,
      "t": 75964.40417708327,
      "d": 6.944364583338029,
      "v": 63
    },
    {
      "midi": 60,
      "hit": false,
      "t": 75964.40417708327,
      "d": 1055.5434166666673,
      "v": 63
    },
    {
      "midi": 55,
      "hit": false,
      "t": 75964.40417708327,
      "d": 1069.4321458333288,
      "v": 63
    },
    {
      "midi": 64,
      "hit": false,
      "t": 75964.40417708327,
      "d": 1083.3208749999903,
      "v": 63
    },
    {
      "midi": 58,
      "hit": false,
      "t": 77297.72217708325,
      "d": 1291.6518125000002,
      "v": 63
    },
    {
      "midi": 62,
      "hit": false,
      "t": 77297.72217708325,
      "d": 1374.9841874999984,
      "v": 63
    },
    {
      "midi": 53,
      "hit": false,
      "t": 77297.72217708325,
      "d": 2374.972687500005,
      "v": 63
    },
    {
      "midi": 57,
      "hit": false,
      "t": 78631.04017708325,
      "d": 1048.5990520833438,
      "v": 63
    },
    {
      "midi": 60,
      "hit": false,
      "t": 78631.04017708325,
      "d": 1083.320875000005,
      "v": 63
    },
    {
      "midi": 57,
      "hit": false,
      "t": 79964.35817708325,
      "d": 2388.8614166666666,
      "v": 63
    },
    {
      "midi": 60,
      "hit": false,
      "t": 79964.35817708325,
      "d": 2402.750145833328,
      "v": 63
    },
    {
      "midi": 77,
      "hit": false,
      "t": 79964.35817708331,
      "d": 131.94292708333523,
      "v": 82
    },
    {
      "midi": 69,
      "hit": false,
      "t": 79964.35817708331,
      "d": 152.77602083333477,
      "v": 82
    },
    {
      "midi": 60,
      "hit": false,
      "t": 79964.35817708331,
      "d": 166.66474999999627,
      "v": 82
    },
    {
      "midi": 65,
      "hit": false,
      "t": 79971.30254166659,
      "d": 2298.5846770833305,
      "v": 63
    },
    {
      "midi": 77,
      "hit": false,
      "t": 80631.01717708331,
      "d": 131.94292708333523,
      "v": 82
    },
    {
      "midi": 60,
      "hit": false,
      "t": 80631.01717708331,
      "d": 145.83165624999674,
      "v": 82
    },
    {
      "midi": 69,
      "hit": false,
      "t": 80631.01717708331,
      "d": 152.77602083333477,
      "v": 82
    },
    {
      "midi": 77,
      "hit": false,
      "t": 81297.67617708331,
      "d": 118.05419791667373,
      "v": 82
    },
    {
      "midi": 60,
      "hit": false,
      "t": 81297.67617708331,
      "d": 152.77602083333477,
      "v": 82
    },
    {
      "midi": 69,
      "hit": false,
      "t": 81297.67617708331,
      "d": 152.77602083333477,
      "v": 82
    },
    {
      "midi": 77,
      "hit": false,
      "t": 81964.33517708331,
      "d": 118.05419791667373,
      "v": 82
    },
    {
      "midi": 60,
      "hit": false,
      "t": 81964.33517708331,
      "d": 124.99856250001176,
      "v": 82
    },
    {
      "midi": 69,
      "hit": false,
      "t": 81964.33517708331,
      "d": 166.66475000001083,
      "v": 82
    },
    {
      "midi": 64,
      "hit": false,
      "t": 82630.99417708325,
      "d": 2437.4719687500037,
      "v": 63
    },
    {
      "midi": 60,
      "hit": false,
      "t": 82630.99417708325,
      "d": 2444.4163333333418,
      "v": 63
    },
    {
      "midi": 55,
      "hit": false,
      "t": 82630.99417708325,
      "d": 2479.138156250003,
      "v": 63
    },
    {
      "midi": 60,
      "hit": false,
      "t": 82630.99417708332,
      "d": 118.05419791667373,
      "v": 82
    },
    {
      "midi": 76,
      "hit": false,
      "t": 82630.99417708332,
      "d": 152.77602083333477,
      "v": 82
    },
    {
      "midi": 67,
      "hit": false,
      "t": 82630.99417708332,
      "d": 166.66474999999627,
      "v": 82
    },
    {
      "midi": 58,
      "hit": false,
      "t": 82637.93854166659,
      "d": 41.66618749999907,
      "v": 63
    },
    {
      "midi": 60,
      "hit": false,
      "t": 83297.65317708332,
      "d": 124.9985624999972,
      "v": 82
    },
    {
      "midi": 67,
      "hit": false,
      "t": 83297.65317708332,
      "d": 159.72038541665825,
      "v": 82
    },
    {
      "midi": 76,
      "hit": false,
      "t": 83297.65317708332,
      "d": 159.72038541665825,
      "v": 82
    },
    {
      "midi": 67,
      "hit": false,
      "t": 83964.31217708331,
      "d": 118.05419791667373,
      "v": 82
    },
    {
      "midi": 76,
      "hit": false,
      "t": 83964.31217708331,
      "d": 118.05419791667373,
      "v": 82
    },
    {
      "midi": 60,
      "hit": false,
      "t": 83964.31217708331,
      "d": 131.94292708333523,
      "v": 82
    },
    {
      "midi": 67,
      "hit": false,
      "t": 84630.97117708331,
      "d": 118.05419791667373,
      "v": 82
    },
    {
      "midi": 60,
      "hit": false,
      "t": 84630.97117708331,
      "d": 131.94292708333523,
      "v": 82
    },
    {
      "midi": 76,
      "hit": false,
      "t": 84630.97117708331,
      "d": 131.94292708333523,
      "v": 82
    },
    {
      "midi": 55,
      "hit": false,
      "t": 85297.63017708325,
      "d": 1131.9314270833274,
      "v": 63
    },
    {
      "midi": 63,
      "hit": false,
      "t": 85297.63017708325,
      "d": 1187.486343749988,
      "v": 63
    },
    {
      "midi": 75,
      "hit": false,
      "t": 85297.63017708331,
      "d": 138.88729166667326,
      "v": 82
    },
    {
      "midi": 60,
      "hit": false,
      "t": 85297.63017708331,
      "d": 166.66475000001083,
      "v": 82
    },
    {
      "midi": 67,
      "hit": false,
      "t": 85297.63017708331,
      "d": 166.66475000001083,
      "v": 82
    },
    {
      "midi": 60,
      "hit": false,
      "t": 85304.57454166659,
      "d": 1111.098333333328,
      "v": 63
    },
    {
      "midi": 60,
      "hit": false,
      "t": 85964.28917708332,
      "d": 124.9985624999972,
      "v": 82
    },
    {
      "midi": 75,
      "hit": false,
      "t": 85964.28917708332,
      "d": 124.9985624999972,
      "v": 82
    },
    {
      "midi": 67,
      "hit": false,
      "t": 85964.28917708332,
      "d": 159.72038541665825,
      "v": 82
    },
    {
      "midi": 57,
      "hit": false,
      "t": 86630.94817708324,
      "d": 1090.265239583343,
      "v": 63
    },
    {
      "midi": 54,
      "hit": false,
      "t": 86630.94817708324,
      "d": 1152.7645208333415,
      "v": 63
    },
    {
      "midi": 57,
      "hit": false,
      "t": 86630.94817708331,
      "d": 138.88729166667326,
      "v": 82
    },
    {
      "midi": 66,
      "hit": false,
      "t": 86630.94817708331,
      "d": 138.88729166667326,
      "v": 82
    },
    {
      "midi": 74,
      "hit": false,
      "t": 86630.94817708331,
      "d": 145.8316562500113,
      "v": 82
    },
    {
      "midi": 62,
      "hit": false,
      "t": 86637.89254166657,
      "d": 1145.8201562500035,
      "v": 63
    },
    {
      "midi": 57,
      "hit": false,
      "t": 87297.60717708332,
      "d": 145.83165624999674,
      "v": 82
    },
    {
      "midi": 66,
      "hit": false,
      "t": 87297.60717708332,
      "d": 145.83165624999674,
      "v": 82
    },
    {
      "midi": 74,
      "hit": false,
      "t": 87297.60717708332,
      "d": 152.77602083333477,
      "v": 82
    },
    {
      "midi": 61,
      "hit": false,
      "t": 87964.26617708325,
      "d": 1131.931427083342,
      "v": 63
    },
    {
      "midi": 58,
      "hit": false,
      "t": 87964.26617708325,
      "d": 1229.1525312500016,
      "v": 63
    },
    {
      "midi": 58,
      "hit": false,
      "t": 87964.26617708332,
      "d": 138.88729166667326,
      "v": 82
    },
    {
      "midi": 73,
      "hit": false,
      "t": 87964.26617708332,
      "d": 152.77602083333477,
      "v": 82
    },
    {
      "midi": 65,
      "hit": false,
      "t": 87964.26617708332,
      "d": 180.55347916667233,
      "v": 82
    },
    {
      "midi": 53,
      "hit": false,
      "t": 87971.21054166659,
      "d": 1124.987062500004,
      "v": 63
    },
    {
      "midi": 58,
      "hit": false,
      "t": 88630.92517708332,
      "d": 131.94292708333523,
      "v": 82
    },
    {
      "midi": 73,
      "hit": false,
      "t": 88630.92517708332,
      "d": 131.94292708333523,
      "v": 82
    },
    {
      "midi": 65,
      "hit": false,
      "t": 88630.92517708332,
      "d": 152.77602083333477,
      "v": 82
    },
    {
      "midi": 55,
      "hit": false,
      "t": 89297.58417708325,
      "d": 937.4892187499936,
      "v": 63
    },
    {
      "midi": 64,
      "hit": false,
      "t": 89297.58417708325,
      "d": 965.2666770833312,
      "v": 63
    },
    {
      "midi": 60,
      "hit": false,
      "t": 89297.58417708325,
      "d": 1006.9328645833302,
      "v": 63
    },
    {
      "midi": 55,
      "hit": false,
      "t": 89297.58417708332,
      "d": 124.9985624999972,
      "v": 82
    },
    {
      "midi": 64,
      "hit": false,
      "t": 89297.58417708332,
      "d": 152.77602083333477,
      "v": 82
    },
    {
      "midi": 72,
      "hit": false,
      "t": 89297.58417708332,
      "d": 152.77602083333477,
      "v": 82
    },
    {
      "midi": 55,
      "hit": false,
      "t": 89964.24317708332,
      "d": 194.44220833333384,
      "v": 82
    },
    {
      "midi": 64,
      "hit": false,
      "t": 89964.24317708332,
      "d": 201.38657291667187,
      "v": 82
    },
    {
      "midi": 72,
      "hit": false,
      "t": 89964.24317708332,
      "d": 222.2196666666714,
      "v": 82
    },
    {
      "midi": 57,
      "hit": false,
      "t": 90630.90217708325,
      "d": 2354.1395937500056,
      "v": 63
    },
    {
      "midi": 60,
      "hit": false,
      "t": 90630.90217708325,
      "d": 2381.917052083343,
      "v": 63
    },
    {
      "midi": 69,
      "hit": false,
      "t": 90630.90217708332,
      "d": 97.22110416665964,
      "v": 82
    },
    {
      "midi": 77,
      "hit": false,
      "t": 90630.90217708332,
      "d": 97.22110416665964,
      "v": 82
    },
    {
      "midi": 65,
      "hit": false,
      "t": 90630.90217708332,
      "d": 118.05419791665918,
      "v": 82
    },
    {
      "midi": 65,
      "hit": false,
      "t": 90637.84654166659,
      "d": 2284.695947916669,
      "v": 63
    },
    {
      "midi": 69,
      "hit": false,
      "t": 91297.56117708332,
      "d": 124.9985624999972,
      "v": 82
    },
    {
      "midi": 77,
      "hit": false,
      "t": 91297.56117708332,
      "d": 124.9985624999972,
      "v": 82
    },
    {
      "midi": 65,
      "hit": false,
      "t": 91297.56117708332,
      "d": 145.83165624999674,
      "v": 82
    },
    {
      "midi": 77,
      "hit": false,
      "t": 91964.22017708332,
      "d": 111.1098333333357,
      "v": 82
    },
    {
      "midi": 65,
      "hit": false,
      "t": 91964.22017708332,
      "d": 131.94292708333523,
      "v": 82
    },
    {
      "midi": 69,
      "hit": false,
      "t": 91964.22017708332,
      "d": 131.94292708333523,
      "v": 82
    },
    {
      "midi": 77,
      "hit": false,
      "t": 92630.87917708332,
      "d": 111.1098333333357,
      "v": 82
    },
    {
      "midi": 65,
      "hit": false,
      "t": 92630.87917708332,
      "d": 118.05419791667373,
      "v": 82
    },
    {
      "midi": 69,
      "hit": false,
      "t": 92630.87917708332,
      "d": 124.99856250001176,
      "v": 82
    },
    {
      "midi": 64,
      "hit": false,
      "t": 93297.53817708326,
      "d": 2354.1395937500056,
      "v": 63
    },
    {
      "midi": 57,
      "hit": false,
      "t": 93297.53817708326,
      "d": 2395.8057812500047,
      "v": 63
    },
    {
      "midi": 55,
      "hit": false,
      "t": 93297.53817708326,
      "d": 2409.694510416666,
      "v": 63
    },
    {
      "midi": 65,
      "hit": false,
      "t": 93297.53817708333,
      "d": 118.05419791667373,
      "v": 82
    },
    {
      "midi": 69,
      "hit": false,
      "t": 93297.53817708333,
      "d": 131.94292708333523,
      "v": 82
    },
    {
      "midi": 76,
      "hit": false,
      "t": 93297.53817708333,
      "d": 131.94292708333523,
      "v": 82
    },
    {
      "midi": 60,
      "hit": false,
      "t": 93304.4825416666,
      "d": 2430.5276041666657,
      "v": 63
    },
    {
      "midi": 76,
      "hit": false,
      "t": 93964.19717708333,
      "d": 111.1098333333357,
      "v": 82
    },
    {
      "midi": 69,
      "hit": false,
      "t": 93964.19717708333,
      "d": 124.9985624999972,
      "v": 82
    },
    {
      "midi": 60,
      "hit": false,
      "t": 93964.19717708333,
      "d": 131.94292708333523,
      "v": 82
    },
    {
      "midi": 76,
      "hit": false,
      "t": 94630.85617708333,
      "d": 131.94292708333523,
      "v": 82
    },
    {
      "midi": 60,
      "hit": false,
      "t": 94630.85617708333,
      "d": 145.83165624999674,
      "v": 82
    },
    {
      "midi": 69,
      "hit": false,
      "t": 94630.85617708333,
      "d": 152.77602083333477,
      "v": 82
    },
    {
      "midi": 76,
      "hit": false,
      "t": 95297.51517708333,
      "d": 118.05419791667373,
      "v": 82
    },
    {
      "midi": 69,
      "hit": false,
      "t": 95297.51517708333,
      "d": 131.94292708333523,
      "v": 82
    },
    {
      "midi": 60,
      "hit": false,
      "t": 95297.51517708333,
      "d": 138.88729166667326,
      "v": 82
    },
    {
      "midi": 60,
      "hit": false,
      "t": 95964.17417708326,
      "d": 2361.0839583333436,
      "v": 63
    },
    {
      "midi": 58,
      "hit": false,
      "t": 95964.17417708326,
      "d": 2409.6945104166807,
      "v": 63
    },
    {
      "midi": 63,
      "hit": false,
      "t": 95964.17417708326,
      "d": 2513.8599791666784,
      "v": 63
    },
    {
      "midi": 75,
      "hit": false,
      "t": 95964.17417708333,
      "d": 111.1098333333357,
      "v": 82
    },
    {
      "midi": 60,
      "hit": false,
      "t": 95964.17417708333,
      "d": 124.9985624999972,
      "v": 82
    },
    {
      "midi": 67,
      "hit": false,
      "t": 95964.17417708333,
      "d": 131.94292708333523,
      "v": 82
    },
    {
      "midi": 55,
      "hit": false,
      "t": 95971.1185416666,
      "d": 2409.6945104166807,
      "v": 63
    },
    {
      "midi": 67,
      "hit": false,
      "t": 96630.83317708333,
      "d": 111.1098333333357,
      "v": 82
    },
    {
      "midi": 75,
      "hit": false,
      "t": 96630.83317708333,
      "d": 111.1098333333357,
      "v": 82
    },
    {
      "midi": 60,
      "hit": false,
      "t": 96630.83317708333,
      "d": 131.94292708333523,
      "v": 82
    },
    {
      "midi": 67,
      "hit": false,
      "t": 97297.49217708333,
      "d": 111.1098333333357,
      "v": 82
    },
    {
      "midi": 75,
      "hit": false,
      "t": 97297.49217708333,
      "d": 111.1098333333357,
      "v": 82
    },
    {
      "midi": 60,
      "hit": false,
      "t": 97297.49217708333,
      "d": 131.94292708333523,
      "v": 82
    },
    {
      "midi": 60,
      "hit": false,
      "t": 97964.15117708333,
      "d": 111.1098333333357,
      "v": 82
    },
    {
      "midi": 67,
      "hit": false,
      "t": 97964.15117708333,
      "d": 124.9985624999972,
      "v": 82
    },
    {
      "midi": 75,
      "hit": false,
      "t": 97964.15117708333,
      "d": 124.9985624999972,
      "v": 82
    },
    {
      "midi": 62,
      "hit": false,
      "t": 98630.81017708327,
      "d": 2354.1395937500056,
      "v": 63
    },
    {
      "midi": 54,
      "hit": false,
      "t": 98630.81017708327,
      "d": 2388.8614166666666,
      "v": 63
    },
    {
      "midi": 66,
      "hit": false,
      "t": 98630.81017708333,
      "d": 97.22110416665964,
      "v": 82
    },
    {
      "midi": 74,
      "hit": false,
      "t": 98630.81017708333,
      "d": 97.22110416665964,
      "v": 82
    },
    {
      "midi": 57,
      "hit": false,
      "t": 98630.81017708333,
      "d": 138.8872916666587,
      "v": 82
    },
    {
      "midi": 57,
      "hit": false,
      "t": 98637.75454166661,
      "d": 2263.8628541666694,
      "v": 63
    },
    {
      "midi": 66,
      "hit": false,
      "t": 99297.46917708332,
      "d": 97.22110416665964,
      "v": 82
    },
    {
      "midi": 74,
      "hit": false,
      "t": 99297.46917708332,
      "d": 97.22110416665964,
      "v": 82
    },
    {
      "midi": 57,
      "hit": false,
      "t": 99297.46917708332,
      "d": 124.9985624999972,
      "v": 82
    },
    {
      "midi": 74,
      "hit": false,
      "t": 99964.12817708332,
      "d": 83.33237499999814,
      "v": 82
    },
    {
      "midi": 66,
      "hit": false,
      "t": 99964.12817708332,
      "d": 97.22110416665964,
      "v": 82
    },
    {
      "midi": 57,
      "hit": false,
      "t": 99964.12817708332,
      "d": 118.05419791665918,
      "v": 82
    },
    {
      "midi": 74,
      "hit": false,
      "t": 100630.78717708332,
      "d": 104.16546874999767,
      "v": 82
    },
    {
      "midi": 66,
      "hit": false,
      "t": 100630.78717708332,
      "d": 118.05419791665918,
      "v": 82
    },
    {
      "midi": 57,
      "hit": false,
      "t": 100630.78717708332,
      "d": 124.9985624999972,
      "v": 82
    },
    {
      "midi": 55,
      "hit": false,
      "t": 101297.44617708327,
      "d": 2409.694510416666,
      "v": 63
    },
    {
      "midi": 58,
      "hit": false,
      "t": 101297.44617708327,
      "d": 2423.5832395833277,
      "v": 63
    },
    {
      "midi": 58,
      "hit": false,
      "t": 101297.44617708331,
      "d": 138.88729166667326,
      "v": 82
    },
    {
      "midi": 67,
      "hit": false,
      "t": 101297.44617708331,
      "d": 145.8316562500113,
      "v": 82
    },
    {
      "midi": 74,
      "hit": false,
      "t": 101297.44617708331,
      "d": 145.8316562500113,
      "v": 82
    },
    {
      "midi": 62,
      "hit": false,
      "t": 101304.39054166661,
      "d": 2402.750145833328,
      "v": 63
    },
    {
      "midi": 74,
      "hit": false,
      "t": 101964.10517708333,
      "d": 145.83165624999674,
      "v": 82
    },
    {
      "midi": 67,
      "hit": false,
      "t": 101964.10517708333,
      "d": 159.72038541665825,
      "v": 82
    },
    {
      "midi": 58,
      "hit": false,
      "t": 101964.10517708333,
      "d": 173.60911458331975,
      "v": 82
    },
    {
      "midi": 74,
      "hit": false,
      "t": 102630.76417708331,
      "d": 145.83165624999674,
      "v": 82
    },
    {
      "midi": 67,
      "hit": false,
      "t": 102630.76417708331,
      "d": 159.72038541665825,
      "v": 82
    },
    {
      "midi": 58,
      "hit": false,
      "t": 102630.76417708331,
      "d": 166.66474999999627,
      "v": 82
    },
    {
      "midi": 74,
      "hit": false,
      "t": 103297.42317708331,
      "d": 131.94292708333523,
      "v": 82
    },
    {
      "midi": 58,
      "hit": false,
      "t": 103297.42317708331,
      "d": 138.88729166667326,
      "v": 82
    },
    {
      "midi": 67,
      "hit": false,
      "t": 103297.42317708331,
      "d": 145.8316562500113,
      "v": 82
    },
    {
      "midi": 53,
      "hit": false,
      "t": 103964.08217708327,
      "d": 2361.0839583333436,
      "v": 63
    },
    {
      "midi": 58,
      "hit": false,
      "t": 103964.08217708327,
      "d": 2374.972687500005,
      "v": 63
    },
    {
      "midi": 73,
      "hit": false,
      "t": 103964.08217708333,
      "d": 131.94292708333523,
      "v": 82
    },
    {
      "midi": 58,
      "hit": false,
      "t": 103964.08217708333,
      "d": 152.77602083333477,
      "v": 82
    },
    {
      "midi": 65,
      "hit": false,
      "t": 103964.08217708333,
      "d": 152.77602083333477,
      "v": 82
    },
    {
      "midi": 61,
      "hit": false,
      "t": 103971.02654166661,
      "d": 2381.9170520833286,
      "v": 63
    },
    {
      "midi": 73,
      "hit": false,
      "t": 104630.74117708333,
      "d": 104.16546874999767,
      "v": 82
    },
    {
      "midi": 65,
      "hit": false,
      "t": 104630.74117708333,
      "d": 131.94292708333523,
      "v": 82
    },
    {
      "midi": 58,
      "hit": false,
      "t": 104630.74117708333,
      "d": 180.55347916667233,
      "v": 82
    },
    {
      "midi": 73,
      "hit": false,
      "t": 105297.40017708333,
      "d": 124.9985624999972,
      "v": 82
    },
    {
      "midi": 65,
      "hit": false,
      "t": 105297.40017708333,
      "d": 159.72038541665825,
      "v": 82
    },
    {
      "midi": 58,
      "hit": false,
      "t": 105297.40017708333,
      "d": 180.55347916665778,
      "v": 82
    },
    {
      "midi": 58,
      "hit": false,
      "t": 105964.05917708331,
      "d": 138.88729166667326,
      "v": 82
    },
    {
      "midi": 65,
      "hit": false,
      "t": 105964.05917708331,
      "d": 173.6091145833343,
      "v": 82
    },
    {
      "midi": 73,
      "hit": false,
      "t": 105964.05917708331,
      "d": 173.6091145833343,
      "v": 82
    },
    {
      "midi": 64,
      "hit": false,
      "t": 106630.71817708327,
      "d": 1159.708885416665,
      "v": 63
    },
    {
      "midi": 57,
      "hit": false,
      "t": 106630.71817708331,
      "d": 152.77602083333477,
      "v": 82
    },
    {
      "midi": 72,
      "hit": false,
      "t": 106630.71817708331,
      "d": 180.55347916667233,
      "v": 82
    },
    {
      "midi": 64,
      "hit": false,
      "t": 106630.71817708331,
      "d": 194.44220833333384,
      "v": 82
    },
    {
      "midi": 60,
      "hit": false,
      "t": 106637.6625416666,
      "d": 1152.764520833327,
      "v": 63
    },
    {
      "midi": 55,
      "hit": false,
      "t": 106637.6625416666,
      "d": 1173.5976145833265,
      "v": 63
    },
    {
      "midi": 57,
      "hit": false,
      "t": 106637.6625416666,
      "d": 1173.5976145833265,
      "v": 63
    },
    {
      "midi": 64,
      "hit": false,
      "t": 107297.37717708331,
      "d": 152.77602083333477,
      "v": 82
    },
    {
      "midi": 72,
      "hit": false,
      "t": 107297.37717708331,
      "d": 187.4978437499958,
      "v": 82
    },
    {
      "midi": 57,
      "hit": false,
      "t": 107297.37717708331,
      "d": 222.21966666665685,
      "v": 82
    },
    {
      "midi": 53,
      "hit": false,
      "t": 107964.03617708327,
      "d": 1111.0983333333425,
      "v": 63
    },
    {
      "midi": 62,
      "hit": false,
      "t": 107964.03617708327,
      "d": 1166.653250000003,
      "v": 63
    },
    {
      "midi": 65,
      "hit": false,
      "t": 107964.0361770833,
      "d": 131.94292708333523,
      "v": 82
    },
    {
      "midi": 74,
      "hit": false,
      "t": 107964.0361770833,
      "d": 131.94292708333523,
      "v": 82
    },
    {
      "midi": 62,
      "hit": false,
      "t": 107964.0361770833,
      "d": 138.88729166667326,
      "v": 82
    },
    {
      "midi": 57,
      "hit": false,
      "t": 107970.9805416666,
      "d": 1118.042697916666,
      "v": 63
    },
    {
      "midi": 65,
      "hit": false,
      "t": 108630.6951770833,
      "d": 118.05419791667373,
      "v": 82
    },
    {
      "midi": 62,
      "hit": false,
      "t": 108630.6951770833,
      "d": 131.94292708333523,
      "v": 82
    },
    {
      "midi": 74,
      "hit": false,
      "t": 108630.6951770833,
      "d": 138.88729166667326,
      "v": 82
    },
    {
      "midi": 62,
      "hit": false,
      "t": 109297.35417708327,
      "d": 1256.9299895833392,
      "v": 63
    },
    {
      "midi": 71,
      "hit": false,
      "t": 109297.3541770833,
      "d": 118.05419791667373,
      "v": 82
    },
    {
      "midi": 62,
      "hit": false,
      "t": 109297.3541770833,
      "d": 131.94292708333523,
      "v": 82
    },
    {
      "midi": 67,
      "hit": false,
      "t": 109297.3541770833,
      "d": 131.94292708333523,
      "v": 82
    },
    {
      "midi": 74,
      "hit": false,
      "t": 109297.3541770833,
      "d": 131.94292708333523,
      "v": 82
    },
    {
      "midi": 55,
      "hit": false,
      "t": 109304.2985416666,
      "d": 1180.5419791666645,
      "v": 63
    },
    {
      "midi": 59,
      "hit": false,
      "t": 109304.2985416666,
      "d": 1249.9856250000012,
      "v": 63
    },
    {
      "midi": 62,
      "hit": false,
      "t": 109964.0131770833,
      "d": 104.16546874999767,
      "v": 82
    },
    {
      "midi": 71,
      "hit": false,
      "t": 109964.0131770833,
      "d": 118.05419791665918,
      "v": 82
    },
    {
      "midi": 67,
      "hit": false,
      "t": 109964.0131770833,
      "d": 131.94292708332068,
      "v": 82
    },
    {
      "midi": 74,
      "hit": false,
      "t": 109964.0131770833,
      "d": 138.8872916666587,
      "v": 82
    },
    {
      "midi": 60,
      "hit": false,
      "t": 110630.67217708327,
      "d": 1256.9299895833537,
      "v": 63
    },
    {
      "midi": 60,
      "hit": false,
      "t": 110630.67217708328,
      "d": 131.94292708333523,
      "v": 82
    },
    {
      "midi": 67,
      "hit": false,
      "t": 110630.67217708328,
      "d": 138.88729166667326,
      "v": 82
    },
    {
      "midi": 72,
      "hit": false,
      "t": 110630.67217708328,
      "d": 145.8316562500113,
      "v": 82
    },
    {
      "midi": 76,
      "hit": false,
      "t": 110630.67217708328,
      "d": 166.66475000001083,
      "v": 82
    },
    {
      "midi": 59,
      "hit": false,
      "t": 110637.6165416666,
      "d": 1.7360911458381452,
      "v": 63
    },
    {
      "midi": 55,
      "hit": false,
      "t": 110637.6165416666,
      "d": 1173.597614583341,
      "v": 63
    },
    {
      "midi": 64,
      "hit": false,
      "t": 110637.6165416666,
      "d": 1173.597614583341,
      "v": 63
    },
    {
      "midi": 70,
      "hit": false,
      "t": 111297.3311770833,
      "d": 124.9985624999972,
      "v": 82
    },
    {
      "midi": 72,
      "hit": false,
      "t": 111297.3311770833,
      "d": 124.9985624999972,
      "v": 82
    },
    {
      "midi": 76,
      "hit": false,
      "t": 111297.3311770833,
      "d": 124.9985624999972,
      "v": 82
    },
    {
      "midi": 60,
      "hit": false,
      "t": 111297.3311770833,
      "d": 131.94292708333523,
      "v": 82
    },
    {
      "midi": 58,
      "hit": false,
      "t": 111463.99592708328,
      "d": 395.8287812500057,
      "v": 63
    },
    {
      "midi": 65,
      "hit": false,
      "t": 111963.99017708328,
      "d": 2354.1395937500056,
      "v": 63
    },
    {
      "midi": 60,
      "hit": false,
      "t": 111963.99017708328,
      "d": 2368.028322916667,
      "v": 63
    },
    {
      "midi": 57,
      "hit": false,
      "t": 111963.99017708328,
      "d": 2499.9712500000023,
      "v": 63
    },
    {
      "midi": 57,
      "hit": false,
      "t": 114630.62617708328,
      "d": 2381.9170520833286,
      "v": 63
    },
    {
      "midi": 64,
      "hit": false,
      "t": 114630.62617708328,
      "d": 2381.9170520833286,
      "v": 63
    },
    {
      "midi": 55,
      "hit": false,
      "t": 114630.62617708328,
      "d": 2395.80578124999,
      "v": 63
    },
    {
      "midi": 61,
      "hit": false,
      "t": 114630.62617708328,
      "d": 2395.80578124999,
      "v": 63
    },
    {
      "midi": 57,
      "hit": false,
      "t": 117297.26217708326,
      "d": 888.878666666671,
      "v": 63
    },
    {
      "midi": 62,
      "hit": false,
      "t": 117297.26217708326,
      "d": 916.6561250000086,
      "v": 63
    },
    {
      "midi": 65,
      "hit": false,
      "t": 117297.26217708326,
      "d": 930.5448541666701,
      "v": 63
    },
    {
      "midi": 76,
      "hit": false,
      "t": 118630.58017708326,
      "d": 979.1554062500072,
      "v": 63
    },
    {
      "midi": 69,
      "hit": false,
      "t": 118630.58017708326,
      "d": 1215.2638020833401,
      "v": 63
    },
    {
      "midi": 65,
      "hit": false,
      "t": 118630.58017708326,
      "d": 1243.0412604166777,
      "v": 63
    },
    {
      "midi": 74,
      "hit": false,
      "t": 119630.56867708327,
      "d": 249.99712500000896,
      "v": 63
    },
    {
      "midi": 65,
      "hit": false,
      "t": 119963.89817708328,
      "d": 1527.7602083333331,
      "v": 63
    },
    {
      "midi": 69,
      "hit": false,
      "t": 119963.89817708328,
      "d": 1555.5376666666707,
      "v": 63
    },
    {
      "midi": 53,
      "hit": false,
      "t": 122630.53417708327,
      "d": 1166.653250000003,
      "v": 63
    },
    {
      "midi": 58,
      "hit": false,
      "t": 122630.53417708327,
      "d": 1243.0412604166631,
      "v": 63
    },
    {
      "midi": 62,
      "hit": false,
      "t": 122630.53417708327,
      "d": 1284.7074479166622,
      "v": 63
    },
    {
      "midi": 60,
      "hit": false,
      "t": 123963.85217708327,
      "d": 1152.764520833327,
      "v": 63
    },
    {
      "midi": 64,
      "hit": false,
      "t": 123963.85217708327,
      "d": 1152.764520833327,
      "v": 63
    },
    {
      "midi": 55,
      "hit": false,
      "t": 123963.85217708327,
      "d": 1166.6532499999885,
      "v": 63
    },
    {
      "midi": 55,
      "hit": false,
      "t": 125297.17017708326,
      "d": 1131.9314270833274,
      "v": 63
    },
    {
      "midi": 57,
      "hit": false,
      "t": 125297.17017708326,
      "d": 1201.375072916664,
      "v": 63
    },
    {
      "midi": 60,
      "hit": false,
      "t": 125297.17017708326,
      "d": 1215.2638020833256,
      "v": 63
    },
    {
      "midi": 64,
      "hit": false,
      "t": 125297.17017708326,
      "d": 1256.9299895833246,
      "v": 63
    },
    {
      "midi": 57,
      "hit": false,
      "t": 126630.48817708324,
      "d": 986.0997708333307,
      "v": 63
    },
    {
      "midi": 54,
      "hit": false,
      "t": 126630.48817708324,
      "d": 1076.3765104166669,
      "v": 63
    },
    {
      "midi": 62,
      "hit": false,
      "t": 126630.48817708324,
      "d": 1076.3765104166669,
      "v": 63
    },
    {
      "midi": 55,
      "hit": false,
      "t": 127963.80617708324,
      "d": 2479.138156250003,
      "v": 63
    },
    {
      "midi": 62,
      "hit": false,
      "t": 127963.80617708324,
      "d": 2479.138156250003,
      "v": 63
    },
    {
      "midi": 58,
      "hit": false,
      "t": 127963.80617708324,
      "d": 2513.859979166664,
      "v": 63
    },
    {
      "midi": 58,
      "hit": false,
      "t": 130630.44217708324,
      "d": 1027.7659583333443,
      "v": 57
    },
    {
      "midi": 55,
      "hit": false,
      "t": 130630.44217708324,
      "d": 1201.375072916664,
      "v": 57
    },
    {
      "midi": 52,
      "hit": false,
      "t": 131963.76017708323,
      "d": 1277.7630833333242,
      "v": 57
    },
    {
      "midi": 55,
      "hit": false,
      "t": 131963.76017708323,
      "d": 1291.6518125000002,
      "v": 57
    },
    {
      "midi": 60,
      "hit": false,
      "t": 131963.76017708323,
      "d": 1291.6518125000002,
      "v": 57
    },
    {
      "midi": 60,
      "hit": false,
      "t": 133297.07817708323,
      "d": 2243.0297604166553,
      "v": 63
    },
    {
      "midi": 65,
      "hit": false,
      "t": 133297.07817708323,
      "d": 2243.0297604166553,
      "v": 63
    },
    {
      "midi": 57,
      "hit": false,
      "t": 133297.07817708323,
      "d": 2368.0283229166525,
      "v": 63
    },
    {
      "midi": 57,
      "hit": false,
      "t": 135963.71417708322,
      "d": 2444.416333333327,
      "v": 63
    },
    {
      "midi": 61,
      "hit": false,
      "t": 135963.71417708322,
      "d": 2451.3606979166507,
      "v": 63
    },
    {
      "midi": 55,
      "hit": false,
      "t": 135963.71417708322,
      "d": 2465.2494270833267,
      "v": 63
    },
    {
      "midi": 64,
      "hit": false,
      "t": 135963.71417708322,
      "d": 2493.0268854166497,
      "v": 63
    },
    {
      "midi": 53,
      "hit": false,
      "t": 138630.3501770832,
      "d": 777.7688333333354,
      "v": 63
    },
    {
      "midi": 57,
      "hit": false,
      "t": 138630.3501770832,
      "d": 791.6575625000114,
      "v": 63
    },
    {
      "midi": 62,
      "hit": false,
      "t": 138630.3501770832,
      "d": 833.3237500000105,
      "v": 63
    },
    {
      "midi": 76,
      "hit": false,
      "t": 139963.6681770832,
      "d": 1062.4877812500054,
      "v": 63
    },
    {
      "midi": 69,
      "hit": false,
      "t": 139963.6681770832,
      "d": 1159.7088854166795,
      "v": 63
    },
    {
      "midi": 65,
      "hit": false,
      "t": 139963.6681770832,
      "d": 1236.0968958333542,
      "v": 63
    },
    {
      "midi": 74,
      "hit": false,
      "t": 140963.6566770832,
      "d": 361.10695833334466,
      "v": 63
    },
    {
      "midi": 65,
      "hit": false,
      "t": 141296.98617708322,
      "d": 1680.536229166668,
      "v": 63
    },
    {
      "midi": 69,
      "hit": false,
      "t": 141296.98617708322,
      "d": 1680.536229166668,
      "v": 63
    },
    {
      "midi": 53,
      "hit": false,
      "t": 143963.62217708322,
      "d": 1152.764520833327,
      "v": 63
    },
    {
      "midi": 58,
      "hit": false,
      "t": 143963.62217708322,
      "d": 1270.8187187500007,
      "v": 63
    },
    {
      "midi": 62,
      "hit": false,
      "t": 143963.62217708322,
      "d": 1319.4292708333232,
      "v": 63
    },
    {
      "midi": 58,
      "hit": false,
      "t": 145296.94017708322,
      "d": 6.944364583323477,
      "v": 63
    },
    {
      "midi": 55,
      "hit": false,
      "t": 145296.94017708322,
      "d": 1090.2652395833284,
      "v": 63
    },
    {
      "midi": 64,
      "hit": false,
      "t": 145296.94017708322,
      "d": 1090.2652395833284,
      "v": 63
    },
    {
      "midi": 60,
      "hit": false,
      "t": 145296.94017708322,
      "d": 1104.1539687500044,
      "v": 63
    },
    {
      "midi": 55,
      "hit": false,
      "t": 146630.25817708322,
      "d": 1076.3765104166523,
      "v": 63
    },
    {
      "midi": 60,
      "hit": false,
      "t": 146630.25817708322,
      "d": 1118.0426979166514,
      "v": 63
    },
    {
      "midi": 57,
      "hit": false,
      "t": 146630.25817708322,
      "d": 1145.8201562499744,
      "v": 63
    },
    {
      "midi": 64,
      "hit": false,
      "t": 146630.25817708322,
      "d": 1159.7088854166504,
      "v": 63
    },
    {
      "midi": 57,
      "hit": false,
      "t": 147963.5761770832,
      "d": 972.2110416666546,
      "v": 63
    },
    {
      "midi": 54,
      "hit": false,
      "t": 147963.5761770832,
      "d": 986.0997708333307,
      "v": 63
    },
    {
      "midi": 62,
      "hit": false,
      "t": 147963.5761770832,
      "d": 986.0997708333307,
      "v": 63
    },
    {
      "midi": 55,
      "hit": false,
      "t": 149296.8941770832,
      "d": 1111.098333333328,
      "v": 63
    },
    {
      "midi": 58,
      "hit": false,
      "t": 149296.8941770832,
      "d": 1263.8743541666481,
      "v": 63
    },
    {
      "midi": 62,
      "hit": false,
      "t": 149296.8941770832,
      "d": 1277.7630833333242,
      "v": 63
    },
    {
      "midi": 60,
      "hit": false,
      "t": 150630.2121770832,
      "d": 1180.541979166679,
      "v": 63
    },
    {
      "midi": 55,
      "hit": false,
      "t": 150630.2121770832,
      "d": 1215.2638020833547,
      "v": 63
    },
    {
      "midi": 64,
      "hit": false,
      "t": 150630.2121770832,
      "d": 1215.2638020833547,
      "v": 63
    },
    {
      "midi": 53,
      "hit": false,
      "t": 151963.53017708322,
      "d": 1118.0426979166805,
      "v": 63
    },
    {
      "midi": 62,
      "hit": false,
      "t": 151963.53017708322,
      "d": 1131.9314270833565,
      "v": 63
    },
    {
      "midi": 58,
      "hit": false,
      "t": 151963.53017708322,
      "d": 1208.3194375000312,
      "v": 63
    },
    {
      "midi": 65,
      "hit": false,
      "t": 153296.84817708324,
      "d": 1048.5990520833293,
      "v": 63
    },
    {
      "midi": 60,
      "hit": false,
      "t": 153296.84817708324,
      "d": 1076.3765104166523,
      "v": 63
    },
    {
      "midi": 57,
      "hit": false,
      "t": 153296.84817708324,
      "d": 1111.098333333328,
      "v": 63
    },
    {
      "midi": 60,
      "hit": false,
      "t": 154630.16617708324,
      "d": 2465.2494270833267,
      "v": 63
    },
    {
      "midi": 57,
      "hit": false,
      "t": 154630.16617708324,
      "d": 2472.19379166665,
      "v": 63
    },
    {
      "midi": 60,
      "hit": false,
      "t": 154630.1661770833,
      "d": 187.4978437499958,
      "v": 82
    },
    {
      "midi": 69,
      "hit": false,
      "t": 154630.1661770833,
      "d": 187.4978437499958,
      "v": 82
    },
    {
      "midi": 77,
      "hit": false,
      "t": 154630.1661770833,
      "d": 187.4978437499958,
      "v": 82
    },
    {
      "midi": 65,
      "hit": false,
      "t": 154637.11054166657,
      "d": 2423.5832395833277,
      "v": 63
    },
    {
      "midi": 60,
      "hit": false,
      "t": 155296.8251770833,
      "d": 124.9985624999972,
      "v": 82
    },
    {
      "midi": 69,
      "hit": false,
      "t": 155296.8251770833,
      "d": 138.88729166667326,
      "v": 82
    },
    {
      "midi": 77,
      "hit": false,
      "t": 155296.8251770833,
      "d": 138.88729166667326,
      "v": 82
    },
    {
      "midi": 60,
      "hit": false,
      "t": 155963.4841770833,
      "d": 111.10983333332115,
      "v": 82
    },
    {
      "midi": 69,
      "hit": false,
      "t": 155963.4841770833,
      "d": 118.05419791664463,
      "v": 82
    },
    {
      "midi": 77,
      "hit": false,
      "t": 155963.4841770833,
      "d": 131.94292708332068,
      "v": 82
    },
    {
      "midi": 60,
      "hit": false,
      "t": 156630.1431770833,
      "d": 124.9985624999972,
      "v": 82
    },
    {
      "midi": 69,
      "hit": false,
      "t": 156630.1431770833,
      "d": 124.9985624999972,
      "v": 82
    },
    {
      "midi": 77,
      "hit": false,
      "t": 156630.1431770833,
      "d": 124.9985624999972,
      "v": 82
    },
    {
      "midi": 64,
      "hit": false,
      "t": 157296.8021770832,
      "d": 2381.9170520833286,
      "v": 63
    },
    {
      "midi": 55,
      "hit": false,
      "t": 157296.8021770832,
      "d": 2451.36069791668,
      "v": 63
    },
    {
      "midi": 67,
      "hit": false,
      "t": 157296.80217708327,
      "d": 131.94292708332068,
      "v": 82
    },
    {
      "midi": 76,
      "hit": false,
      "t": 157296.80217708327,
      "d": 145.83165624999674,
      "v": 82
    },
    {
      "midi": 60,
      "hit": false,
      "t": 157296.80217708327,
      "d": 159.7203854166728,
      "v": 82
    },
    {
      "midi": 60,
      "hit": false,
      "t": 157303.74654166654,
      "d": 2430.5276041666802,
      "v": 63
    },
    {
      "midi": 67,
      "hit": false,
      "t": 157963.46117708329,
      "d": 104.16546874999767,
      "v": 82
    },
    {
      "midi": 76,
      "hit": false,
      "t": 157963.46117708329,
      "d": 118.05419791667373,
      "v": 82
    },
    {
      "midi": 60,
      "hit": false,
      "t": 157963.46117708329,
      "d": 138.88729166667326,
      "v": 82
    },
    {
      "midi": 67,
      "hit": false,
      "t": 158630.1201770833,
      "d": 138.88729166667326,
      "v": 82
    },
    {
      "midi": 60,
      "hit": false,
      "t": 158630.1201770833,
      "d": 152.77602083334932,
      "v": 82
    },
    {
      "midi": 76,
      "hit": false,
      "t": 158630.1201770833,
      "d": 159.7203854166728,
      "v": 82
    },
    {
      "midi": 67,
      "hit": false,
      "t": 159296.7791770833,
      "d": 124.9985624999972,
      "v": 82
    },
    {
      "midi": 76,
      "hit": false,
      "t": 159296.7791770833,
      "d": 124.9985624999972,
      "v": 82
    },
    {
      "midi": 60,
      "hit": false,
      "t": 159296.7791770833,
      "d": 131.94292708332068,
      "v": 82
    },
    {
      "midi": 63,
      "hit": false,
      "t": 159963.4381770832,
      "d": 1236.096895833325,
      "v": 63
    },
    {
      "midi": 60,
      "hit": false,
      "t": 159963.4381770833,
      "d": 131.94292708332068,
      "v": 82
    },
    {
      "midi": 67,
      "hit": false,
      "t": 159963.4381770833,
      "d": 131.94292708332068,
      "v": 82
    },
    {
      "midi": 75,
      "hit": false,
      "t": 159963.4381770833,
      "d": 131.94292708332068,
      "v": 82
    },
    {
      "midi": 55,
      "hit": false,
      "t": 159970.38254166653,
      "d": 1208.319437500002,
      "v": 63
    },
    {
      "midi": 60,
      "hit": false,
      "t": 159970.38254166653,
      "d": 1249.9856250000012,
      "v": 63
    },
    {
      "midi": 60,
      "hit": false,
      "t": 160630.09717708328,
      "d": 124.9985624999972,
      "v": 82
    },
    {
      "midi": 75,
      "hit": false,
      "t": 160630.09717708328,
      "d": 124.9985624999972,
      "v": 82
    },
    {
      "midi": 67,
      "hit": false,
      "t": 160630.09717708328,
      "d": 138.88729166667326,
      "v": 82
    },
    {
      "midi": 57,
      "hit": false,
      "t": 161296.7561770832,
      "d": 1034.7103229166532,
      "v": 63
    },
    {
      "midi": 66,
      "hit": false,
      "t": 161296.7561770833,
      "d": 131.94292708332068,
      "v": 82
    },
    {
      "midi": 74,
      "hit": false,
      "t": 161296.7561770833,
      "d": 131.94292708332068,
      "v": 82
    },
    {
      "midi": 57,
      "hit": false,
      "t": 161296.7561770833,
      "d": 152.77602083332022,
      "v": 82
    },
    {
      "midi": 54,
      "hit": false,
      "t": 161303.70054166653,
      "d": 1062.4877812500054,
      "v": 63
    },
    {
      "midi": 62,
      "hit": false,
      "t": 161303.70054166653,
      "d": 1062.4877812500054,
      "v": 63
    },
    {
      "midi": 66,
      "hit": false,
      "t": 161963.41517708328,
      "d": 131.94292708332068,
      "v": 82
    },
    {
      "midi": 57,
      "hit": false,
      "t": 161963.41517708328,
      "d": 152.77602083332022,
      "v": 82
    },
    {
      "midi": 74,
      "hit": false,
      "t": 161963.41517708328,
      "d": 152.77602083332022,
      "v": 82
    },
    {
      "midi": 53,
      "hit": false,
      "t": 162630.0741770832,
      "d": 1208.319437500002,
      "v": 63
    },
    {
      "midi": 58,
      "hit": false,
      "t": 162630.0741770832,
      "d": 1298.5961770833237,
      "v": 63
    },
    {
      "midi": 58,
      "hit": false,
      "t": 162630.07417708327,
      "d": 131.94292708332068,
      "v": 82
    },
    {
      "midi": 73,
      "hit": false,
      "t": 162630.07417708327,
      "d": 131.94292708332068,
      "v": 82
    },
    {
      "midi": 65,
      "hit": false,
      "t": 162630.07417708327,
      "d": 159.7203854166437,
      "v": 82
    },
    {
      "midi": 61,
      "hit": false,
      "t": 162637.01854166653,
      "d": 1249.9856250000012,
      "v": 63
    },
    {
      "midi": 58,
      "hit": false,
      "t": 163296.73317708325,
      "d": 131.94292708332068,
      "v": 82
    },
    {
      "midi": 73,
      "hit": false,
      "t": 163296.73317708325,
      "d": 131.94292708332068,
      "v": 82
    },
    {
      "midi": 65,
      "hit": false,
      "t": 163296.73317708325,
      "d": 173.60911458331975,
      "v": 82
    },
    {
      "midi": 60,
      "hit": false,
      "t": 163963.3921770832,
      "d": 1048.5990520833293,
      "v": 63
    },
    {
      "midi": 64,
      "hit": false,
      "t": 163963.3921770832,
      "d": 1062.4877812500054,
      "v": 63
    },
    {
      "midi": 55,
      "hit": false,
      "t": 163963.39217708324,
      "d": 166.66474999999627,
      "v": 82
    },
    {
      "midi": 64,
      "hit": false,
      "t": 163963.39217708324,
      "d": 166.66474999999627,
      "v": 82
    },
    {
      "midi": 72,
      "hit": false,
      "t": 163963.39217708324,
      "d": 187.4978437499958,
      "v": 82
    },
    {
      "midi": 55,
      "hit": false,
      "t": 163970.33654166653,
      "d": 1027.7659583333298,
      "v": 63
    },
    {
      "midi": 55,
      "hit": false,
      "t": 164630.05117708322,
      "d": 138.88729166667326,
      "v": 82
    },
    {
      "midi": 64,
      "hit": false,
      "t": 164630.05117708322,
      "d": 159.7203854166728,
      "v": 82
    },
    {
      "midi": 72,
      "hit": false,
      "t": 164630.05117708322,
      "d": 187.4978437499958,
      "v": 82
    },
    {
      "midi": 77,
      "hit": false,
      "t": 165296.7101770832,
      "d": 118.05419791667373,
      "v": 82
    },
    {
      "midi": 60,
      "hit": false,
      "t": 165296.7101770832,
      "d": 124.9985624999972,
      "v": 82
    },
    {
      "midi": 69,
      "hit": false,
      "t": 165296.7101770832,
      "d": 138.88729166667326,
      "v": 82
    },
    {
      "midi": 57,
      "hit": false,
      "t": 165296.7101770832,
      "d": 2437.4719687499746,
      "v": 63
    },
    {
      "midi": 65,
      "hit": false,
      "t": 165303.65454166653,
      "d": 2368.0283229166525,
      "v": 63
    },
    {
      "midi": 60,
      "hit": false,
      "t": 165303.65454166653,
      "d": 2465.2494270833267,
      "v": 63
    },
    {
      "midi": 77,
      "hit": false,
      "t": 165963.36917708322,
      "d": 111.10983333332115,
      "v": 82
    },
    {
      "midi": 60,
      "hit": false,
      "t": 165963.36917708322,
      "d": 118.05419791664463,
      "v": 82
    },
    {
      "midi": 69,
      "hit": false,
      "t": 165963.36917708322,
      "d": 138.88729166664416,
      "v": 82
    },
    {
      "midi": 60,
      "hit": false,
      "t": 166630.0281770832,
      "d": 138.88729166667326,
      "v": 82
    },
    {
      "midi": 77,
      "hit": false,
      "t": 166630.0281770832,
      "d": 138.88729166667326,
      "v": 82
    },
    {
      "midi": 69,
      "hit": false,
      "t": 166630.0281770832,
      "d": 152.77602083334932,
      "v": 82
    },
    {
      "midi": 60,
      "hit": false,
      "t": 167296.68717708322,
      "d": 104.16546874999767,
      "v": 82
    },
    {
      "midi": 69,
      "hit": false,
      "t": 167296.68717708322,
      "d": 118.05419791667373,
      "v": 82
    },
    {
      "midi": 77,
      "hit": false,
      "t": 167296.68717708322,
      "d": 118.05419791667373,
      "v": 82
    },
    {
      "midi": 64,
      "hit": false,
      "t": 167963.34617708318,
      "d": 2152.7530208333337,
      "v": 63
    },
    {
      "midi": 60,
      "hit": false,
      "t": 167963.34617708324,
      "d": 104.16546874999767,
      "v": 82
    },
    {
      "midi": 69,
      "hit": false,
      "t": 167963.34617708324,
      "d": 145.83165624999674,
      "v": 82
    },
    {
      "midi": 76,
      "hit": false,
      "t": 167963.34617708324,
      "d": 145.83165624999674,
      "v": 82
    },
    {
      "midi": 55,
      "hit": false,
      "t": 167970.2905416665,
      "d": 2381.9170520833577,
      "v": 63
    },
    {
      "midi": 57,
      "hit": false,
      "t": 167970.2905416665,
      "d": 2381.9170520833577,
      "v": 63
    },
    {
      "midi": 60,
      "hit": false,
      "t": 167970.2905416665,
      "d": 2395.8057812500338,
      "v": 63
    },
    {
      "midi": 60,
      "hit": false,
      "t": 168630.00517708322,
      "d": 111.10983333332115,
      "v": 82
    },
    {
      "midi": 69,
      "hit": false,
      "t": 168630.00517708322,
      "d": 145.83165624999674,
      "v": 82
    },
    {
      "midi": 76,
      "hit": false,
      "t": 168630.00517708322,
      "d": 145.83165624999674,
      "v": 82
    },
    {
      "midi": 60,
      "hit": false,
      "t": 169296.6641770832,
      "d": 124.9985624999972,
      "v": 82
    },
    {
      "midi": 69,
      "hit": false,
      "t": 169296.6641770832,
      "d": 124.9985624999972,
      "v": 82
    },
    {
      "midi": 76,
      "hit": false,
      "t": 169296.6641770832,
      "d": 124.9985624999972,
      "v": 82
    },
    {
      "midi": 60,
      "hit": false,
      "t": 169963.3231770832,
      "d": 145.83165624999674,
      "v": 82
    },
    {
      "midi": 69,
      "hit": false,
      "t": 169963.3231770832,
      "d": 152.77602083332022,
      "v": 82
    },
    {
      "midi": 76,
      "hit": false,
      "t": 169963.3231770832,
      "d": 152.77602083332022,
      "v": 82
    },
    {
      "midi": 60,
      "hit": false,
      "t": 170629.98217708318,
      "d": 138.88729166667326,
      "v": 82
    },
    {
      "midi": 67,
      "hit": false,
      "t": 170629.98217708318,
      "d": 138.88729166667326,
      "v": 82
    },
    {
      "midi": 75,
      "hit": false,
      "t": 170629.98217708318,
      "d": 159.7203854166728,
      "v": 82
    },
    {
      "midi": 55,
      "hit": false,
      "t": 170629.9821770832,
      "d": 2416.638875000004,
      "v": 63
    },
    {
      "midi": 58,
      "hit": false,
      "t": 170636.92654166653,
      "d": 2361.083958333329,
      "v": 63
    },
    {
      "midi": 60,
      "hit": false,
      "t": 170636.92654166653,
      "d": 2374.972687500005,
      "v": 63
    },
    {
      "midi": 63,
      "hit": false,
      "t": 170636.92654166653,
      "d": 2499.9712500000023,
      "v": 63
    },
    {
      "midi": 67,
      "hit": false,
      "t": 171296.6411770832,
      "d": 118.05419791667373,
      "v": 82
    },
    {
      "midi": 60,
      "hit": false,
      "t": 171296.6411770832,
      "d": 131.9429270833498,
      "v": 82
    },
    {
      "midi": 75,
      "hit": false,
      "t": 171296.6411770832,
      "d": 138.88729166667326,
      "v": 82
    },
    {
      "midi": 60,
      "hit": false,
      "t": 171963.3001770832,
      "d": 138.88729166667326,
      "v": 82
    },
    {
      "midi": 75,
      "hit": false,
      "t": 171963.3001770832,
      "d": 138.88729166667326,
      "v": 82
    },
    {
      "midi": 67,
      "hit": false,
      "t": 171963.3001770832,
      "d": 152.77602083334932,
      "v": 82
    },
    {
      "midi": 75,
      "hit": false,
      "t": 172629.95917708322,
      "d": 111.10983333332115,
      "v": 82
    },
    {
      "midi": 60,
      "hit": false,
      "t": 172629.95917708322,
      "d": 131.94292708332068,
      "v": 82
    },
    {
      "midi": 67,
      "hit": false,
      "t": 172629.95917708322,
      "d": 187.4978437499958,
      "v": 82
    },
    {
      "midi": 66,
      "hit": false,
      "t": 173296.6181770832,
      "d": 124.9985624999972,
      "v": 82
    },
    {
      "midi": 74,
      "hit": false,
      "t": 173296.6181770832,
      "d": 124.9985624999972,
      "v": 82
    },
    {
      "midi": 57,
      "hit": false,
      "t": 173296.6181770832,
      "d": 145.83165624999674,
      "v": 82
    },
    {
      "midi": 54,
      "hit": false,
      "t": 173296.6181770832,
      "d": 2159.697385416657,
      "v": 63
    },
    {
      "midi": 62,
      "hit": false,
      "t": 173296.6181770832,
      "d": 2173.5861145833333,
      "v": 63
    },
    {
      "midi": 57,
      "hit": false,
      "t": 173303.56254166653,
      "d": 2152.7530208333337,
      "v": 63
    },
    {
      "midi": 66,
      "hit": false,
      "t": 173963.2771770832,
      "d": 104.16546874999767,
      "v": 82
    },
    {
      "midi": 57,
      "hit": false,
      "t": 173963.2771770832,
      "d": 124.9985624999972,
      "v": 82
    },
    {
      "midi": 74,
      "hit": false,
      "t": 173963.2771770832,
      "d": 131.94292708332068,
      "v": 82
    },
    {
      "midi": 57,
      "hit": false,
      "t": 174629.93617708317,
      "d": 104.16546874999767,
      "v": 82
    },
    {
      "midi": 66,
      "hit": false,
      "t": 174629.93617708317,
      "d": 131.94292708332068,
      "v": 82
    },
    {
      "midi": 74,
      "hit": false,
      "t": 174629.93617708317,
      "d": 145.83165624999674,
      "v": 82
    },
    {
      "midi": 57,
      "hit": false,
      "t": 175296.59517708316,
      "d": 145.83165624999674,
      "v": 82
    },
    {
      "midi": 74,
      "hit": false,
      "t": 175296.59517708316,
      "d": 145.83165624999674,
      "v": 82
    },
    {
      "midi": 66,
      "hit": false,
      "t": 175296.59517708316,
      "d": 159.7203854166728,
      "v": 82
    },
    {
      "midi": 58,
      "hit": false,
      "t": 175963.25417708317,
      "d": 6.944364583323477,
      "v": 82
    },
    {
      "midi": 73,
      "hit": false,
      "t": 175963.25417708317,
      "d": 111.10983333332115,
      "v": 76
    },
    {
      "midi": 67,
      "hit": false,
      "t": 175963.25417708317,
      "d": 118.05419791664463,
      "v": 82
    },
    {
      "midi": 65,
      "hit": false,
      "t": 175963.25417708317,
      "d": 124.9985624999681,
      "v": 76
    },
    {
      "midi": 74,
      "hit": false,
      "t": 175963.25417708317,
      "d": 131.94292708329158,
      "v": 82
    },
    {
      "midi": 58,
      "hit": false,
      "t": 175970.19854166653,
      "d": 2361.083958333329,
      "v": 63
    },
    {
      "midi": 55,
      "hit": false,
      "t": 175970.19854166653,
      "d": 2444.416333333327,
      "v": 63
    },
    {
      "midi": 62,
      "hit": false,
      "t": 175970.19854166653,
      "d": 2472.19379166665,
      "v": 63
    },
    {
      "midi": 58,
      "hit": false,
      "t": 176629.91317708313,
      "d": 97.2211041666742,
      "v": 82
    },
    {
      "midi": 74,
      "hit": false,
      "t": 176629.91317708313,
      "d": 104.16546874999767,
      "v": 82
    },
    {
      "midi": 67,
      "hit": false,
      "t": 176629.91317708313,
      "d": 131.94292708332068,
      "v": 82
    },
    {
      "midi": 58,
      "hit": false,
      "t": 177296.57217708312,
      "d": 124.9985624999972,
      "v": 82
    },
    {
      "midi": 67,
      "hit": false,
      "t": 177296.57217708312,
      "d": 131.94292708332068,
      "v": 82
    },
    {
      "midi": 74,
      "hit": false,
      "t": 177296.57217708312,
      "d": 131.94292708332068,
      "v": 82
    },
    {
      "midi": 58,
      "hit": false,
      "t": 177963.2311770831,
      "d": 104.16546874999767,
      "v": 82
    },
    {
      "midi": 74,
      "hit": false,
      "t": 177963.2311770831,
      "d": 124.9985624999972,
      "v": 82
    },
    {
      "midi": 67,
      "hit": false,
      "t": 177963.2311770831,
      "d": 138.88729166667326,
      "v": 82
    },
    {
      "midi": 73,
      "hit": false,
      "t": 178629.8901770831,
      "d": 118.05419791667373,
      "v": 82
    },
    {
      "midi": 58,
      "hit": false,
      "t": 178629.8901770831,
      "d": 131.9429270833498,
      "v": 82
    },
    {
      "midi": 65,
      "hit": false,
      "t": 178629.8901770831,
      "d": 145.83165625002584,
      "v": 82
    },
    {
      "midi": 61,
      "hit": false,
      "t": 178629.89017708317,
      "d": 2236.085395833332,
      "v": 63
    },
    {
      "midi": 53,
      "hit": false,
      "t": 178629.89017708317,
      "d": 2249.974125000008,
      "v": 63
    },
    {
      "midi": 58,
      "hit": false,
      "t": 178629.89017708317,
      "d": 2263.862854166684,
      "v": 63
    },
    {
      "midi": 58,
      "hit": false,
      "t": 179296.54917708313,
      "d": 111.10983333332115,
      "v": 82
    },
    {
      "midi": 65,
      "hit": false,
      "t": 179296.54917708313,
      "d": 118.05419791664463,
      "v": 82
    },
    {
      "midi": 73,
      "hit": false,
      "t": 179296.54917708313,
      "d": 118.05419791664463,
      "v": 82
    },
    {
      "midi": 73,
      "hit": false,
      "t": 179963.2081770831,
      "d": 97.2211041666742,
      "v": 82
    },
    {
      "midi": 58,
      "hit": false,
      "t": 179963.2081770831,
      "d": 124.9985624999972,
      "v": 82
    },
    {
      "midi": 65,
      "hit": false,
      "t": 179963.2081770831,
      "d": 131.94292708332068,
      "v": 82
    },
    {
      "midi": 58,
      "hit": false,
      "t": 180629.8671770831,
      "d": 104.16546874999767,
      "v": 82
    },
    {
      "midi": 73,
      "hit": false,
      "t": 180629.8671770831,
      "d": 104.16546874999767,
      "v": 82
    },
    {
      "midi": 65,
      "hit": false,
      "t": 180629.8671770831,
      "d": 180.55347916667233,
      "v": 82
    },
    {
      "midi": 72,
      "hit": false,
      "t": 181296.5261770831,
      "d": 97.2211041666742,
      "v": 82
    },
    {
      "midi": 57,
      "hit": false,
      "t": 181296.5261770831,
      "d": 118.05419791667373,
      "v": 82
    },
    {
      "midi": 64,
      "hit": false,
      "t": 181296.5261770831,
      "d": 118.05419791667373,
      "v": 82
    },
    {
      "midi": 57,
      "hit": false,
      "t": 181296.5261770832,
      "d": 6.944364583323477,
      "v": 63
    },
    {
      "midi": 64,
      "hit": false,
      "t": 181296.5261770832,
      "d": 1138.875791666651,
      "v": 63
    },
    {
      "midi": 52,
      "hit": false,
      "t": 181303.47054166652,
      "d": 1041.6546875000058,
      "v": 63
    },
    {
      "midi": 55,
      "hit": false,
      "t": 181303.47054166652,
      "d": 1111.098333333328,
      "v": 63
    },
    {
      "midi": 60,
      "hit": false,
      "t": 181303.47054166652,
      "d": 1111.098333333328,
      "v": 63
    },
    {
      "midi": 64,
      "hit": false,
      "t": 181963.18517708313,
      "d": 131.94292708332068,
      "v": 82
    },
    {
      "midi": 72,
      "hit": false,
      "t": 181963.18517708313,
      "d": 131.94292708332068,
      "v": 82
    },
    {
      "midi": 57,
      "hit": false,
      "t": 181963.18517708313,
      "d": 152.77602083332022,
      "v": 82
    },
    {
      "midi": 62,
      "hit": false,
      "t": 182629.8441770831,
      "d": 118.05419791667373,
      "v": 82
    },
    {
      "midi": 65,
      "hit": false,
      "t": 182629.8441770831,
      "d": 118.05419791667373,
      "v": 82
    },
    {
      "midi": 74,
      "hit": false,
      "t": 182629.8441770831,
      "d": 124.9985624999972,
      "v": 82
    },
    {
      "midi": 62,
      "hit": false,
      "t": 182629.84417708317,
      "d": 1020.8215937500063,
      "v": 63
    },
    {
      "midi": 53,
      "hit": false,
      "t": 182636.7885416665,
      "d": 979.1554062500072,
      "v": 63
    },
    {
      "midi": 57,
      "hit": false,
      "t": 182636.7885416665,
      "d": 979.1554062500072,
      "v": 63
    },
    {
      "midi": 65,
      "hit": false,
      "t": 183296.5031770831,
      "d": 104.16546874999767,
      "v": 82
    },
    {
      "midi": 62,
      "hit": false,
      "t": 183296.5031770831,
      "d": 118.05419791667373,
      "v": 82
    },
    {
      "midi": 74,
      "hit": false,
      "t": 183296.5031770831,
      "d": 131.9429270833498,
      "v": 82
    },
    {
      "midi": 71,
      "hit": false,
      "t": 183963.1621770831,
      "d": 97.2211041666742,
      "v": 82
    },
    {
      "midi": 67,
      "hit": false,
      "t": 183963.1621770831,
      "d": 111.10983333335025,
      "v": 82
    },
    {
      "midi": 74,
      "hit": false,
      "t": 183963.1621770831,
      "d": 111.10983333335025,
      "v": 82
    },
    {
      "midi": 62,
      "hit": false,
      "t": 183963.1621770831,
      "d": 131.9429270833498,
      "v": 82
    },
    {
      "midi": 55,
      "hit": false,
      "t": 183963.16217708317,
      "d": 1173.5976145833265,
      "v": 63
    },
    {
      "midi": 62,
      "hit": false,
      "t": 183963.16217708317,
      "d": 1249.985624999972,
      "v": 63
    },
    {
      "midi": 59,
      "hit": false,
      "t": 183970.1065416665,
      "d": 1215.2638020833256,
      "v": 63
    },
    {
      "midi": 71,
      "hit": false,
      "t": 184629.82117708313,
      "d": 104.16546874999767,
      "v": 82
    },
    {
      "midi": 62,
      "hit": false,
      "t": 184629.82117708313,
      "d": 111.10983333332115,
      "v": 82
    },
    {
      "midi": 67,
      "hit": false,
      "t": 184629.82117708313,
      "d": 111.10983333332115,
      "v": 82
    },
    {
      "midi": 74,
      "hit": false,
      "t": 184629.82117708313,
      "d": 124.9985624999972,
      "v": 82
    },
    {
      "midi": 62,
      "hit": false,
      "t": 185296.4801770831,
      "d": 90.27673958332161,
      "v": 82
    },
    {
      "midi": 70,
      "hit": false,
      "t": 185296.4801770831,
      "d": 111.10983333332115,
      "v": 82
    },
    {
      "midi": 76,
      "hit": false,
      "t": 185296.4801770831,
      "d": 118.05419791664463,
      "v": 82
    },
    {
      "midi": 72,
      "hit": false,
      "t": 185296.4801770831,
      "d": 124.9985624999681,
      "v": 82
    },
    {
      "midi": 55,
      "hit": false,
      "t": 185296.48017708314,
      "d": 888.8786666666565,
      "v": 63
    },
    {
      "midi": 60,
      "hit": false,
      "t": 185296.48017708314,
      "d": 923.6004895833321,
      "v": 63
    },
    {
      "midi": 64,
      "hit": false,
      "t": 185303.42454166646,
      "d": 916.6561250000086,
      "v": 63
    },
    {
      "midi": 64,
      "hit": false,
      "t": 185963.13917708307,
      "d": 97.2211041666742,
      "v": 82
    },
    {
      "midi": 70,
      "hit": false,
      "t": 185963.13917708307,
      "d": 97.2211041666742,
      "v": 82
    },
    {
      "midi": 76,
      "hit": false,
      "t": 185963.13917708307,
      "d": 138.88729166667326,
      "v": 82
    },
    {
      "midi": 72,
      "hit": false,
      "t": 185963.13917708307,
      "d": 145.83165624999674,
      "v": 82
    },
    {
      "midi": 53,
      "hit": false,
      "t": 186629.79817708314,
      "d": 6.944364583323477,
      "v": 63
    },
    {
      "midi": 60,
      "hit": false,
      "t": 186629.79817708314,
      "d": 6.944364583323477,
      "v": 63
    },
    {
      "midi": 65,
      "hit": false,
      "t": 186629.79817708314,
      "d": 6.944364583323477,
      "v": 63
    },
    {
      "midi": 57,
      "hit": false,
      "t": 186629.79817708314,
      "d": 2298.5846770833305,
      "v": 63
    },
    {
      "midi": 57,
      "hit": false,
      "t": 189296.43417708314,
      "d": 2374.972687500005,
      "v": 63
    },
    {
      "midi": 61,
      "hit": false,
      "t": 189296.43417708314,
      "d": 2388.861416666681,
      "v": 63
    },
    {
      "midi": 55,
      "hit": false,
      "t": 189296.43417708314,
      "d": 2451.36069791668,
      "v": 63
    },
    {
      "midi": 64,
      "hit": false,
      "t": 189296.43417708314,
      "d": 2479.138156250003,
      "v": 63
    },
    {
      "midi": 53,
      "hit": false,
      "t": 191963.07017708314,
      "d": 763.8801041666593,
      "v": 63
    },
    {
      "midi": 57,
      "hit": false,
      "t": 191963.07017708314,
      "d": 784.7131979166588,
      "v": 63
    },
    {
      "midi": 62,
      "hit": false,
      "t": 191963.07017708314,
      "d": 812.4906562499818,
      "v": 63
    },
    {
      "midi": 76,
      "hit": false,
      "t": 193296.3881770831,
      "d": 840.268114583334,
      "v": 63
    },
    {
      "midi": 69,
      "hit": false,
      "t": 193296.3881770831,
      "d": 1083.320875000005,
      "v": 63
    },
    {
      "midi": 65,
      "hit": false,
      "t": 193296.3881770831,
      "d": 1118.0426979166805,
      "v": 63
    },
    {
      "midi": 74,
      "hit": false,
      "t": 194296.3766770831,
      "d": 312.496406249993,
      "v": 63
    },
    {
      "midi": 65,
      "hit": false,
      "t": 194629.7061770831,
      "d": 1416.6503749999974,
      "v": 63
    },
    {
      "midi": 69,
      "hit": false,
      "t": 194629.7061770831,
      "d": 1430.5391041666735,
      "v": 63
    },
    {
      "midi": 58,
      "hit": false,
      "t": 197296.3421770831,
      "d": 1013.8772291666537,
      "v": 63
    },
    {
      "midi": 62,
      "hit": false,
      "t": 197296.3421770831,
      "d": 1013.8772291666537,
      "v": 63
    },
    {
      "midi": 53,
      "hit": false,
      "t": 197296.3421770831,
      "d": 1034.7103229166532,
      "v": 63
    },
    {
      "midi": 64,
      "hit": false,
      "t": 198629.6601770831,
      "d": 1166.653250000003,
      "v": 63
    },
    {
      "midi": 55,
      "hit": false,
      "t": 198629.6601770831,
      "d": 1180.541979166679,
      "v": 63
    },
    {
      "midi": 60,
      "hit": false,
      "t": 198629.6601770831,
      "d": 1180.541979166679,
      "v": 63
    },
    {
      "midi": 60,
      "hit": false,
      "t": 199962.9781770831,
      "d": 1131.9314270833274,
      "v": 63
    },
    {
      "midi": 64,
      "hit": false,
      "t": 199962.9781770831,
      "d": 1201.3750729166495,
      "v": 63
    },
    {
      "midi": 57,
      "hit": false,
      "t": 199962.9781770831,
      "d": 1215.2638020833256,
      "v": 63
    },
    {
      "midi": 57,
      "hit": false,
      "t": 201296.2961770831,
      "d": 999.9885000000068,
      "v": 63
    },
    {
      "midi": 54,
      "hit": false,
      "t": 201296.2961770831,
      "d": 1041.6546875000058,
      "v": 63
    },
    {
      "midi": 62,
      "hit": false,
      "t": 201296.2961770831,
      "d": 1069.4321458333288,
      "v": 63
    },
    {
      "midi": 55,
      "hit": false,
      "t": 202629.6141770831,
      "d": 2499.9712500000023,
      "v": 63
    },
    {
      "midi": 62,
      "hit": false,
      "t": 202629.6141770831,
      "d": 2499.9712500000023,
      "v": 63
    },
    {
      "midi": 58,
      "hit": false,
      "t": 202629.6141770831,
      "d": 2520.804343750002,
      "v": 63
    },
    {
      "midi": 58,
      "hit": false,
      "t": 205296.2501770831,
      "d": 986.0997708333307,
      "v": 57
    },
    {
      "midi": 51,
      "hit": false,
      "t": 205296.2501770831,
      "d": 1020.8215937500063,
      "v": 57
    },
    {
      "midi": 55,
      "hit": false,
      "t": 205296.2501770831,
      "d": 1020.8215937500063,
      "v": 57
    },
    {
      "midi": 55,
      "hit": false,
      "t": 206629.5681770831,
      "d": 1277.7630833333242,
      "v": 57
    },
    {
      "midi": 52,
      "hit": false,
      "t": 206629.5681770831,
      "d": 1298.5961770833237,
      "v": 57
    },
    {
      "midi": 60,
      "hit": false,
      "t": 206629.5681770831,
      "d": 1298.5961770833237,
      "v": 57
    },
    {
      "midi": 65,
      "hit": false,
      "t": 207962.8861770831,
      "d": 2305.529041666654,
      "v": 63
    },
    {
      "midi": 60,
      "hit": false,
      "t": 207962.8861770831,
      "d": 2319.41777083333,
      "v": 63
    },
    {
      "midi": 57,
      "hit": false,
      "t": 207962.8861770831,
      "d": 2395.8057812500047,
      "v": 63
    },
    {
      "midi": 57,
      "hit": false,
      "t": 210629.5221770831,
      "d": 2354.1395937500056,
      "v": 63
    },
    {
      "midi": 61,
      "hit": false,
      "t": 210629.5221770831,
      "d": 2361.083958333329,
      "v": 63
    },
    {
      "midi": 55,
      "hit": false,
      "t": 210629.5221770831,
      "d": 2374.972687500005,
      "v": 63
    },
    {
      "midi": 64,
      "hit": false,
      "t": 210629.5221770831,
      "d": 2402.750145833328,
      "v": 63
    },
    {
      "midi": 53,
      "hit": false,
      "t": 213296.1581770831,
      "d": 694.4364583333372,
      "v": 63
    },
    {
      "midi": 57,
      "hit": false,
      "t": 213296.1581770831,
      "d": 722.2139166666602,
      "v": 63
    },
    {
      "midi": 62,
      "hit": false,
      "t": 213296.1581770831,
      "d": 749.9913749999832,
      "v": 63
    },
    {
      "midi": 76,
      "hit": false,
      "t": 214629.47617708307,
      "d": 1076.3765104166814,
      "v": 63
    },
    {
      "midi": 69,
      "hit": false,
      "t": 214629.47617708307,
      "d": 1145.8201562500035,
      "v": 63
    },
    {
      "midi": 65,
      "hit": false,
      "t": 214629.47617708307,
      "d": 1201.3750729166786,
      "v": 63
    },
    {
      "midi": 74,
      "hit": false,
      "t": 215629.46467708307,
      "d": 381.9400520833151,
      "v": 63
    },
    {
      "midi": 65,
      "hit": false,
      "t": 215962.79417708307,
      "d": 1430.5391041666444,
      "v": 63
    },
    {
      "midi": 69,
      "hit": false,
      "t": 215962.79417708307,
      "d": 1444.4278333333205,
      "v": 63
    },
    {
      "midi": 53,
      "hit": false,
      "t": 218629.43017708306,
      "d": 1159.7088854166795,
      "v": 63
    },
    {
      "midi": 58,
      "hit": false,
      "t": 218629.43017708306,
      "d": 1208.319437500002,
      "v": 63
    },
    {
      "midi": 62,
      "hit": false,
      "t": 218629.43017708306,
      "d": 1256.9299895833246,
      "v": 63
    },
    {
      "midi": 60,
      "hit": false,
      "t": 219962.74817708306,
      "d": 1069.4321458333288,
      "v": 63
    },
    {
      "midi": 64,
      "hit": false,
      "t": 219962.74817708306,
      "d": 1090.2652395833284,
      "v": 63
    },
    {
      "midi": 55,
      "hit": false,
      "t": 219962.74817708306,
      "d": 1131.9314270833274,
      "v": 63
    },
    {
      "midi": 60,
      "hit": false,
      "t": 221296.06617708306,
      "d": 1055.5434166666528,
      "v": 63
    },
    {
      "midi": 57,
      "hit": false,
      "t": 221296.06617708306,
      "d": 1145.8201562499744,
      "v": 63
    },
    {
      "midi": 64,
      "hit": false,
      "t": 221296.06617708306,
      "d": 1145.8201562499744,
      "v": 63
    },
    {
      "midi": 57,
      "hit": false,
      "t": 222629.38417708303,
      "d": 937.4892187500081,
      "v": 63
    },
    {
      "midi": 54,
      "hit": false,
      "t": 222629.38417708303,
      "d": 972.2110416666837,
      "v": 63
    },
    {
      "midi": 62,
      "hit": false,
      "t": 222629.38417708303,
      "d": 999.9885000000068,
      "v": 63
    },
    {
      "midi": 55,
      "hit": false,
      "t": 223962.70217708303,
      "d": 1166.653250000003,
      "v": 63
    },
    {
      "midi": 62,
      "hit": false,
      "t": 223962.70217708303,
      "d": 1180.541979166679,
      "v": 63
    },
    {
      "midi": 58,
      "hit": false,
      "t": 223962.70217708303,
      "d": 1215.2638020833547,
      "v": 63
    },
    {
      "midi": 60,
      "hit": false,
      "t": 225296.02017708306,
      "d": 1159.7088854166795,
      "v": 63
    },
    {
      "midi": 55,
      "hit": false,
      "t": 225296.02017708306,
      "d": 1166.653250000003,
      "v": 63
    },
    {
      "midi": 64,
      "hit": false,
      "t": 225296.02017708306,
      "d": 1166.653250000003,
      "v": 63
    },
    {
      "midi": 53,
      "hit": false,
      "t": 226629.33817708306,
      "d": 1826.3678854166646,
      "v": 63
    },
    {
      "midi": 58,
      "hit": false,
      "t": 226629.33817708306,
      "d": 1840.2566145833407,
      "v": 63
    },
    {
      "midi": 62,
      "hit": false,
      "t": 226629.33817708306,
      "d": 1840.2566145833407,
      "v": 63
    },
    {
      "midi": 58,
      "hit": false,
      "t": 228795.97992708307,
      "d": 347.2182291666686,
      "v": 63
    },
    {
      "midi": 62,
      "hit": false,
      "t": 228795.97992708307,
      "d": 368.05132291666814,
      "v": 63
    },
    {
      "midi": 65,
      "hit": false,
      "t": 228795.97992708307,
      "d": 402.77314583334373,
      "v": 63
    },
    {
      "midi": 74,
      "hit": false,
      "t": 228795.97992708307,
      "d": 402.77314583334373,
      "v": 63
    },
    {
      "midi": 70,
      "hit": false,
      "t": 228795.97992708307,
      "d": 423.60623958334327,
      "v": 63
    },
    {
      "midi": 53,
      "hit": false,
      "t": 228802.9242916664,
      "d": 347.2182291666686,
      "v": 63
    },
    {
      "midi": 53,
      "hit": false,
      "t": 229295.9741770831,
      "d": 1416.6503749999974,
      "v": 63
    },
    {
      "midi": 57,
      "hit": false,
      "t": 229295.9741770831,
      "d": 1437.483468749997,
      "v": 63
    },
    {
      "midi": 65,
      "hit": false,
      "t": 229295.9741770831,
      "d": 1444.4278333333205,
      "v": 63
    },
    {
      "midi": 60,
      "hit": false,
      "t": 229295.9741770831,
      "d": 1472.2052916666435,
      "v": 63
    },
    {
      "midi": 69,
      "hit": false,
      "t": 229295.9741770831,
      "d": 1472.2052916666435,
      "v": 63
    },
    {
      "midi": 72,
      "hit": false,
      "t": 229295.9741770831,
      "d": 1472.2052916666435,
      "v": 63
    }
  ]
}