{
  "jsonPath": "Rock/Malaysian Indie/Jamal Abdillah/kasih-ibu.json",
  "path": "Rock\\Malaysian Indie\\Jamal Abdillah\\Kasih Ibu.mid",
  "name": "Kasih Ibu",
  "difficulty": "Advanced",
  "bpm": 80,
  "notes": [
    {
      "midi": 82,
      "hit": false,
      "t": 9000,
      "d": 375,
      "v": 107
    },
    {
      "midi": 74,
      "hit": false,
      "t": 9375,
      "d": 375,
      "v": 107
    },
    {
      "midi": 74,
      "hit": false,
      "t": 9750,
      "d": 375,
      "v": 107
    },
    {
      "midi": 82,
      "hit": false,
      "t": 10125,
      "d": 375,
      "v": 121
    },
    {
      "midi": 82,
      "hit": false,
      "t": 10500,
      "d": 1867.1875,
      "v": 121
    },
    {
      "midi": 74,
      "hit": false,
      "t": 12375,
      "d": 375,
      "v": 107
    },
    {
      "midi": 74,
      "hit": false,
      "t": 12750,
      "d": 375,
      "v": 107
    },
    {
      "midi": 82,
      "hit": false,
      "t": 13125,
      "d": 375,
      "v": 118
    },
    {
      "midi": 82,
      "hit": false,
      "t": 13500,
      "d": 375,
      "v": 121
    },
    {
      "midi": 74,
      "hit": false,
      "t": 13875,
      "d": 375,
      "v": 107
    },
    {
      "midi": 75,
      "hit": false,
      "t": 14250,
      "d": 375,
      "v": 107
    },
    {
      "midi": 74,
      "hit": false,
      "t": 14625,
      "d": 375,
      "v": 107
    },
    {
      "midi": 72,
      "hit": false,
      "t": 15000,
      "d": 375,
      "v": 107
    },
    {
      "midi": 72,
      "hit": false,
      "t": 15375,
      "d": 375,
      "v": 107
    },
    {
      "midi": 72,
      "hit": false,
      "t": 15750,
      "d": 375,
      "v": 107
    },
    {
      "midi": 81,
      "hit": false,
      "t": 16125,
      "d": 375,
      "v": 115
    },
    {
      "midi": 81,
      "hit": false,
      "t": 16500,
      "d": 1867.1875,
      "v": 121
    },
    {
      "midi": 72,
      "hit": false,
      "t": 18375,
      "d": 375,
      "v": 107
    },
    {
      "midi": 72,
      "hit": false,
      "t": 18750,
      "d": 375,
      "v": 107
    },
    {
      "midi": 81,
      "hit": false,
      "t": 19125,
      "d": 375,
      "v": 115
    },
    {
      "midi": 81,
      "hit": false,
      "t": 19500,
      "d": 375,
      "v": 121
    },
    {
      "midi": 72,
      "hit": false,
      "t": 19875,
      "d": 375,
      "v": 107
    },
    {
      "midi": 74,
      "hit": false,
      "t": 20250,
      "d": 375,
      "v": 107
    },
    {
      "midi": 72,
      "hit": false,
      "t": 20625,
      "d": 375,
      "v": 107
    },
    {
      "midi": 70,
      "hit": false,
      "t": 21000,
      "d": 375,
      "v": 107
    },
    {
      "midi": 70,
      "hit": false,
      "t": 21375,
      "d": 375,
      "v": 107
    },
    {
      "midi": 70,
      "hit": false,
      "t": 21750,
      "d": 375,
      "v": 107
    },
    {
      "midi": 79,
      "hit": false,
      "t": 22125,
      "d": 375,
      "v": 121
    },
    {
      "midi": 79,
      "hit": false,
      "t": 22500,
      "d": 1500,
      "v": 121
    },
    {
      "midi": 70,
      "hit": false,
      "t": 24375,
      "d": 375,
      "v": 107
    },
    {
      "midi": 70,
      "hit": false,
      "t": 24750,
      "d": 375,
      "v": 107
    },
    {
      "midi": 79,
      "hit": false,
      "t": 25125,
      "d": 375,
      "v": 118
    },
    {
      "midi": 79,
      "hit": false,
      "t": 25500,
      "d": 375,
      "v": 115
    },
    {
      "midi": 70,
      "hit": false,
      "t": 25875,
      "d": 375,
      "v": 107
    },
    {
      "midi": 72,
      "hit": false,
      "t": 26250,
      "d": 375,
      "v": 107
    },
    {
      "midi": 70,
      "hit": false,
      "t": 26625,
      "d": 375,
      "v": 107
    },
    {
      "midi": 69,
      "hit": false,
      "t": 27000,
      "d": 375,
      "v": 107
    },
    {
      "midi": 69,
      "hit": false,
      "t": 27375,
      "d": 375,
      "v": 107
    },
    {
      "midi": 69,
      "hit": false,
      "t": 27750,
      "d": 375,
      "v": 107
    },
    {
      "midi": 78,
      "hit": false,
      "t": 28125,
      "d": 375,
      "v": 118
    },
    {
      "midi": 78,
      "hit": false,
      "t": 28500,
      "d": 2250,
      "v": 121
    },
    {
      "midi": 76,
      "hit": false,
      "t": 30750,
      "d": 750,
      "v": 107
    },
    {
      "midi": 79,
      "hit": false,
      "t": 30750,
      "d": 750,
      "v": 107
    },
    {
      "midi": 74,
      "hit": false,
      "t": 31500,
      "d": 750,
      "v": 107
    },
    {
      "midi": 78,
      "hit": false,
      "t": 31500,
      "d": 750,
      "v": 107
    },
    {
      "midi": 81,
      "hit": false,
      "t": 31500,
      "d": 750,
      "v": 107
    },
    {
      "midi": 72,
      "hit": false,
      "t": 32250,
      "d": 750,
      "v": 107
    },
    {
      "midi": 75,
      "hit": false,
      "t": 32250,
      "d": 750,
      "v": 107
    },
    {
      "midi": 70,
      "hit": false,
      "t": 33000,
      "d": 5242.1875,
      "v": 115
    },
    {
      "midi": 74,
      "hit": false,
      "t": 33000,
      "d": 5242.1875,
      "v": 115
    },
    {
      "midi": 79,
      "hit": false,
      "t": 39000,
      "d": 375,
      "v": 124
    },
    {
      "midi": 82,
      "hit": false,
      "t": 39000,
      "d": 375,
      "v": 124
    },
    {
      "midi": 74,
      "hit": false,
      "t": 39375,
      "d": 375,
      "v": 107
    },
    {
      "midi": 74,
      "hit": false,
      "t": 39750,
      "d": 375,
      "v": 107
    },
    {
      "midi": 79,
      "hit": false,
      "t": 40125,
      "d": 375,
      "v": 121
    },
    {
      "midi": 82,
      "hit": false,
      "t": 40125,
      "d": 375,
      "v": 121
    },
    {
      "midi": 79,
      "hit": false,
      "t": 40500,
      "d": 1867.1875,
      "v": 118
    },
    {
      "midi": 82,
      "hit": false,
      "t": 40500,
      "d": 1867.1875,
      "v": 118
    },
    {
      "midi": 74,
      "hit": false,
      "t": 42375,
      "d": 375,
      "v": 107
    },
    {
      "midi": 74,
      "hit": false,
      "t": 42750,
      "d": 375,
      "v": 107
    },
    {
      "midi": 79,
      "hit": false,
      "t": 43125,
      "d": 375,
      "v": 121
    },
    {
      "midi": 82,
      "hit": false,
      "t": 43125,
      "d": 375,
      "v": 121
    },
    {
      "midi": 79,
      "hit": false,
      "t": 43500,
      "d": 375,
      "v": 115
    },
    {
      "midi": 82,
      "hit": false,
      "t": 43500,
      "d": 375,
      "v": 115
    },
    {
      "midi": 74,
      "hit": false,
      "t": 43875,
      "d": 375,
      "v": 107
    },
    {
      "midi": 75,
      "hit": false,
      "t": 44250,
      "d": 375,
      "v": 107
    },
    {
      "midi": 74,
      "hit": false,
      "t": 44625,
      "d": 375,
      "v": 107
    },
    {
      "midi": 72,
      "hit": false,
      "t": 45000,
      "d": 375,
      "v": 107
    },
    {
      "midi": 72,
      "hit": false,
      "t": 45375,
      "d": 375,
      "v": 107
    },
    {
      "midi": 72,
      "hit": false,
      "t": 45750,
      "d": 375,
      "v": 107
    },
    {
      "midi": 78,
      "hit": false,
      "t": 46125,
      "d": 375,
      "v": 124
    },
    {
      "midi": 81,
      "hit": false,
      "t": 46125,
      "d": 375,
      "v": 124
    },
    {
      "midi": 78,
      "hit": false,
      "t": 46500,
      "d": 1867.1875,
      "v": 124
    },
    {
      "midi": 81,
      "hit": false,
      "t": 46500,
      "d": 1867.1875,
      "v": 124
    },
    {
      "midi": 72,
      "hit": false,
      "t": 48375,
      "d": 375,
      "v": 107
    },
    {
      "midi": 72,
      "hit": false,
      "t": 48750,
      "d": 375,
      "v": 107
    },
    {
      "midi": 78,
      "hit": false,
      "t": 49125,
      "d": 375,
      "v": 121
    },
    {
      "midi": 81,
      "hit": false,
      "t": 49125,
      "d": 375,
      "v": 121
    },
    {
      "midi": 78,
      "hit": false,
      "t": 49500,
      "d": 375,
      "v": 121
    },
    {
      "midi": 81,
      "hit": false,
      "t": 49500,
      "d": 375,
      "v": 121
    },
    {
      "midi": 72,
      "hit": false,
      "t": 49875,
      "d": 375,
      "v": 107
    },
    {
      "midi": 74,
      "hit": false,
      "t": 50250,
      "d": 375,
      "v": 107
    },
    {
      "midi": 72,
      "hit": false,
      "t": 50625,
      "d": 375,
      "v": 107
    },
    {
      "midi": 70,
      "hit": false,
      "t": 51000,
      "d": 375,
      "v": 107
    },
    {
      "midi": 70,
      "hit": false,
      "t": 51375,
      "d": 375,
      "v": 107
    },
    {
      "midi": 70,
      "hit": false,
      "t": 51750,
      "d": 375,
      "v": 107
    },
    {
      "midi": 70,
      "hit": false,
      "t": 52125,
      "d": 375,
      "v": 118
    },
    {
      "midi": 79,
      "hit": false,
      "t": 52125,
      "d": 375,
      "v": 118
    },
    {
      "midi": 70,
      "hit": false,
      "t": 52500,
      "d": 1867.1875,
      "v": 121
    },
    {
      "midi": 79,
      "hit": false,
      "t": 52500,
      "d": 1867.1875,
      "v": 121
    },
    {
      "midi": 70,
      "hit": false,
      "t": 54375,
      "d": 375,
      "v": 107
    },
    {
      "midi": 70,
      "hit": false,
      "t": 54750,
      "d": 1125,
      "v": 107
    },
    {
      "midi": 79,
      "hit": false,
      "t": 55125,
      "d": 375,
      "v": 115
    },
    {
      "midi": 79,
      "hit": false,
      "t": 55500,
      "d": 375,
      "v": 118
    },
    {
      "midi": 70,
      "hit": false,
      "t": 55875,
      "d": 375,
      "v": 107
    },
    {
      "midi": 72,
      "hit": false,
      "t": 56250,
      "d": 375,
      "v": 107
    },
    {
      "midi": 70,
      "hit": false,
      "t": 56625,
      "d": 375,
      "v": 107
    },
    {
      "midi": 69,
      "hit": false,
      "t": 57000,
      "d": 375,
      "v": 107
    },
    {
      "midi": 69,
      "hit": false,
      "t": 57375,
      "d": 375,
      "v": 107
    },
    {
      "midi": 69,
      "hit": false,
      "t": 57750,
      "d": 375,
      "v": 107
    },
    {
      "midi": 72,
      "hit": false,
      "t": 58125,
      "d": 375,
      "v": 115
    },
    {
      "midi": 78,
      "hit": false,
      "t": 58125,
      "d": 375,
      "v": 115
    },
    {
      "midi": 72,
      "hit": false,
      "t": 58500,
      "d": 2234.375,
      "v": 112
    },
    {
      "midi": 78,
      "hit": false,
      "t": 58500,
      "d": 2234.375,
      "v": 112
    },
    {
      "midi": 72,
      "hit": false,
      "t": 60750,
      "d": 750,
      "v": 107
    },
    {
      "midi": 76,
      "hit": false,
      "t": 60750,
      "d": 750,
      "v": 107
    },
    {
      "midi": 79,
      "hit": false,
      "t": 60750,
      "d": 750,
      "v": 107
    },
    {
      "midi": 72,
      "hit": false,
      "t": 61500,
      "d": 750,
      "v": 112
    },
    {
      "midi": 76,
      "hit": false,
      "t": 61500,
      "d": 750,
      "v": 112
    },
    {
      "midi": 78,
      "hit": false,
      "t": 61500,
      "d": 750,
      "v": 112
    },
    {
      "midi": 81,
      "hit": false,
      "t": 61500,
      "d": 750,
      "v": 112
    },
    {
      "midi": 72,
      "hit": false,
      "t": 62250,
      "d": 750,
      "v": 107
    },
    {
      "midi": 74,
      "hit": false,
      "t": 62250,
      "d": 750,
      "v": 107
    },
    {
      "midi": 78,
      "hit": false,
      "t": 62250,
      "d": 750,
      "v": 107
    },
    {
      "midi": 71,
      "hit": false,
      "t": 63000,
      "d": 2250,
      "v": 121
    },
    {
      "midi": 74,
      "hit": false,
      "t": 63000,
      "d": 2250,
      "v": 121
    },
    {
      "midi": 78,
      "hit": false,
      "t": 63000,
      "d": 2250,
      "v": 121
    },
    {
      "midi": 83,
      "hit": false,
      "t": 63000,
      "d": 2250,
      "v": 121
    },
    {
      "midi": 71,
      "hit": false,
      "t": 65250,
      "d": 750,
      "v": 107
    },
    {
      "midi": 71,
      "hit": false,
      "t": 66000,
      "d": 750,
      "v": 107
    },
    {
      "midi": 72,
      "hit": false,
      "t": 66750,
      "d": 750,
      "v": 112
    },
    {
      "midi": 74,
      "hit": false,
      "t": 67500,
      "d": 750,
      "v": 118
    },
    {
      "midi": 67,
      "hit": false,
      "t": 68250,
      "d": 750,
      "v": 107
    },
    {
      "midi": 75,
      "hit": false,
      "t": 69000,
      "d": 1867.1875,
      "v": 112
    },
    {
      "midi": 67,
      "hit": false,
      "t": 70875,
      "d": 375,
      "v": 107
    },
    {
      "midi": 75,
      "hit": false,
      "t": 71250,
      "d": 375,
      "v": 107
    },
    {
      "midi": 67,
      "hit": false,
      "t": 71625,
      "d": 375,
      "v": 107
    },
    {
      "midi": 67,
      "hit": false,
      "t": 72000,
      "d": 375,
      "v": 115
    },
    {
      "midi": 69,
      "hit": false,
      "t": 72375,
      "d": 375,
      "v": 107
    },
    {
      "midi": 69,
      "hit": false,
      "t": 72750,
      "d": 1125,
      "v": 112
    },
    {
      "midi": 72,
      "hit": false,
      "t": 73875,
      "d": 375,
      "v": 107
    },
    {
      "midi": 75,
      "hit": false,
      "t": 74250,
      "d": 375,
      "v": 107
    },
    {
      "midi": 72,
      "hit": false,
      "t": 74625,
      "d": 375,
      "v": 107
    },
    {
      "midi": 74,
      "hit": false,
      "t": 75000,
      "d": 1875,
      "v": 118
    },
    {
      "midi": 65,
      "hit": false,
      "t": 76875,
      "d": 375,
      "v": 107
    },
    {
      "midi": 74,
      "hit": false,
      "t": 77250,
      "d": 375,
      "v": 107
    },
    {
      "midi": 65,
      "hit": false,
      "t": 77625,
      "d": 375,
      "v": 107
    },
    {
      "midi": 65,
      "hit": false,
      "t": 78000,
      "d": 375,
      "v": 115
    },
    {
      "midi": 67,
      "hit": false,
      "t": 78375,
      "d": 375,
      "v": 107
    },
    {
      "midi": 67,
      "hit": false,
      "t": 78750,
      "d": 1125,
      "v": 107
    },
    {
      "midi": 70,
      "hit": false,
      "t": 79875,
      "d": 375,
      "v": 107
    },
    {
      "midi": 74,
      "hit": false,
      "t": 80250,
      "d": 375,
      "v": 107
    },
    {
      "midi": 70,
      "hit": false,
      "t": 80625,
      "d": 375,
      "v": 107
    },
    {
      "midi": 72,
      "hit": false,
      "t": 81000,
      "d": 1875,
      "v": 121
    },
    {
      "midi": 69,
      "hit": false,
      "t": 82875,
      "d": 375,
      "v": 107
    },
    {
      "midi": 72,
      "hit": false,
      "t": 83250,
      "d": 375,
      "v": 107
    },
    {
      "midi": 69,
      "hit": false,
      "t": 83625,
      "d": 375,
      "v": 107
    },
    {
      "midi": 70,
      "hit": false,
      "t": 84000,
      "d": 1125,
      "v": 115
    },
    {
      "midi": 72,
      "hit": false,
      "t": 85125,
      "d": 375,
      "v": 107
    },
    {
      "midi": 74,
      "hit": false,
      "t": 85500,
      "d": 375,
      "v": 107
    },
    {
      "midi": 67,
      "hit": false,
      "t": 85875,
      "d": 375,
      "v": 107
    },
    {
      "midi": 70,
      "hit": false,
      "t": 86250,
      "d": 375,
      "v": 107
    },
    {
      "midi": 74,
      "hit": false,
      "t": 86625,
      "d": 375,
      "v": 107
    },
    {
      "midi": 75,
      "hit": false,
      "t": 87000,
      "d": 1875,
      "v": 118
    },
    {
      "midi": 65,
      "hit": false,
      "t": 88875,
      "d": 375,
      "v": 107
    },
    {
      "midi": 67,
      "hit": false,
      "t": 89250,
      "d": 375,
      "v": 107
    },
    {
      "midi": 70,
      "hit": false,
      "t": 89625,
      "d": 375,
      "v": 107
    },
    {
      "midi": 70,
      "hit": false,
      "t": 90000,
      "d": 750,
      "v": 115
    },
    {
      "midi": 69,
      "hit": false,
      "t": 90750,
      "d": 1125,
      "v": 107
    },
    {
      "midi": 70,
      "hit": false,
      "t": 91875,
      "d": 375,
      "v": 107
    },
    {
      "midi": 72,
      "hit": false,
      "t": 92250,
      "d": 375,
      "v": 118
    },
    {
      "midi": 63,
      "hit": false,
      "t": 92625,
      "d": 375,
      "v": 107
    },
    {
      "midi": 62,
      "hit": false,
      "t": 93000,
      "d": 1875,
      "v": 112
    },
    {
      "midi": 62,
      "hit": false,
      "t": 94875,
      "d": 375,
      "v": 107
    },
    {
      "midi": 63,
      "hit": false,
      "t": 95250,
      "d": 375,
      "v": 107
    },
    {
      "midi": 65,
      "hit": false,
      "t": 95625,
      "d": 375,
      "v": 107
    },
    {
      "midi": 69,
      "hit": false,
      "t": 96000,
      "d": 750,
      "v": 115
    },
    {
      "midi": 67,
      "hit": false,
      "t": 96750,
      "d": 1125,
      "v": 107
    },
    {
      "midi": 67,
      "hit": false,
      "t": 97875,
      "d": 375,
      "v": 107
    },
    {
      "midi": 65,
      "hit": false,
      "t": 98250,
      "d": 281.25,
      "v": 107
    },
    {
      "midi": 63,
      "hit": false,
      "t": 98484.375,
      "d": 281.25,
      "v": 107
    },
    {
      "midi": 62,
      "hit": false,
      "t": 98718.75,
      "d": 281.25,
      "v": 107
    },
    {
      "midi": 61,
      "hit": false,
      "t": 99000,
      "d": 1875,
      "v": 121
    },
    {
      "midi": 64,
      "hit": false,
      "t": 100875,
      "d": 375,
      "v": 107
    },
    {
      "midi": 67,
      "hit": false,
      "t": 101250,
      "d": 375,
      "v": 107
    },
    {
      "midi": 64,
      "hit": false,
      "t": 101625,
      "d": 375,
      "v": 107
    },
    {
      "midi": 66,
      "hit": false,
      "t": 102000,
      "d": 3000,
      "v": 118
    },
    {
      "midi": 73,
      "hit": false,
      "t": 102375,
      "d": 375,
      "v": 115
    },
    {
      "midi": 78,
      "hit": false,
      "t": 102375,
      "d": 375,
      "v": 115
    },
    {
      "midi": 73,
      "hit": false,
      "t": 102750,
      "d": 2250,
      "v": 118
    },
    {
      "midi": 78,
      "hit": false,
      "t": 102750,
      "d": 2250,
      "v": 118
    },
    {
      "midi": 66,
      "hit": false,
      "t": 105000,
      "d": 375,
      "v": 107
    },
    {
      "midi": 74,
      "hit": false,
      "t": 105375,
      "d": 375,
      "v": 115
    },
    {
      "midi": 78,
      "hit": false,
      "t": 105375,
      "d": 375,
      "v": 115
    },
    {
      "midi": 74,
      "hit": false,
      "t": 105750,
      "d": 1500,
      "v": 115
    },
    {
      "midi": 78,
      "hit": false,
      "t": 105750,
      "d": 1500,
      "v": 115
    },
    {
      "midi": 74,
      "hit": false,
      "t": 107250,
      "d": 750,
      "v": 107
    },
    {
      "midi": 79,
      "hit": false,
      "t": 108000,
      "d": 375,
      "v": 112
    },
    {
      "midi": 82,
      "hit": false,
      "t": 108000,
      "d": 375,
      "v": 112
    },
    {
      "midi": 74,
      "hit": false,
      "t": 108375,
      "d": 375,
      "v": 107
    },
    {
      "midi": 74,
      "hit": false,
      "t": 108750,
      "d": 375,
      "v": 107
    },
    {
      "midi": 79,
      "hit": false,
      "t": 109125,
      "d": 375,
      "v": 112
    },
    {
      "midi": 82,
      "hit": false,
      "t": 109125,
      "d": 375,
      "v": 112
    },
    {
      "midi": 79,
      "hit": false,
      "t": 109500,
      "d": 1875,
      "v": 121
    },
    {
      "midi": 82,
      "hit": false,
      "t": 109500,
      "d": 1875,
      "v": 121
    },
    {
      "midi": 74,
      "hit": false,
      "t": 111375,
      "d": 375,
      "v": 107
    },
    {
      "midi": 74,
      "hit": false,
      "t": 111750,
      "d": 375,
      "v": 107
    },
    {
      "midi": 79,
      "hit": false,
      "t": 112125,
      "d": 375,
      "v": 115
    },
    {
      "midi": 82,
      "hit": false,
      "t": 112125,
      "d": 375,
      "v": 115
    },
    {
      "midi": 79,
      "hit": false,
      "t": 112500,
      "d": 375,
      "v": 115
    },
    {
      "midi": 82,
      "hit": false,
      "t": 112500,
      "d": 375,
      "v": 115
    },
    {
      "midi": 74,
      "hit": false,
      "t": 112875,
      "d": 375,
      "v": 107
    },
    {
      "midi": 75,
      "hit": false,
      "t": 113250,
      "d": 375,
      "v": 107
    },
    {
      "midi": 74,
      "hit": false,
      "t": 113625,
      "d": 375,
      "v": 107
    },
    {
      "midi": 72,
      "hit": false,
      "t": 114000,
      "d": 375,
      "v": 107
    },
    {
      "midi": 72,
      "hit": false,
      "t": 114375,
      "d": 375,
      "v": 107
    },
    {
      "midi": 72,
      "hit": false,
      "t": 114750,
      "d": 375,
      "v": 107
    },
    {
      "midi": 78,
      "hit": false,
      "t": 115125,
      "d": 375,
      "v": 112
    },
    {
      "midi": 81,
      "hit": false,
      "t": 115125,
      "d": 375,
      "v": 112
    },
    {
      "midi": 78,
      "hit": false,
      "t": 115500,
      "d": 1875,
      "v": 115
    },
    {
      "midi": 81,
      "hit": false,
      "t": 115500,
      "d": 1875,
      "v": 115
    },
    {
      "midi": 72,
      "hit": false,
      "t": 117375,
      "d": 375,
      "v": 107
    },
    {
      "midi": 72,
      "hit": false,
      "t": 117750,
      "d": 375,
      "v": 107
    },
    {
      "midi": 78,
      "hit": false,
      "t": 118125,
      "d": 375,
      "v": 115
    },
    {
      "midi": 81,
      "hit": false,
      "t": 118125,
      "d": 375,
      "v": 115
    },
    {
      "midi": 78,
      "hit": false,
      "t": 118500,
      "d": 375,
      "v": 115
    },
    {
      "midi": 81,
      "hit": false,
      "t": 118500,
      "d": 375,
      "v": 115
    },
    {
      "midi": 72,
      "hit": false,
      "t": 118875,
      "d": 375,
      "v": 107
    },
    {
      "midi": 74,
      "hit": false,
      "t": 119250,
      "d": 375,
      "v": 107
    },
    {
      "midi": 72,
      "hit": false,
      "t": 119625,
      "d": 375,
      "v": 107
    },
    {
      "midi": 70,
      "hit": false,
      "t": 120000,
      "d": 375,
      "v": 107
    },
    {
      "midi": 70,
      "hit": false,
      "t": 120375,
      "d": 375,
      "v": 107
    },
    {
      "midi": 70,
      "hit": false,
      "t": 120750,
      "d": 375,
      "v": 107
    },
    {
      "midi": 70,
      "hit": false,
      "t": 121125,
      "d": 375,
      "v": 115
    },
    {
      "midi": 74,
      "hit": false,
      "t": 121125,
      "d": 375,
      "v": 115
    },
    {
      "midi": 79,
      "hit": false,
      "t": 121125,
      "d": 375,
      "v": 115
    },
    {
      "midi": 70,
      "hit": false,
      "t": 121500,
      "d": 1875,
      "v": 115
    },
    {
      "midi": 74,
      "hit": false,
      "t": 121500,
      "d": 1875,
      "v": 115
    },
    {
      "midi": 79,
      "hit": false,
      "t": 121500,
      "d": 1875,
      "v": 115
    },
    {
      "midi": 70,
      "hit": false,
      "t": 123375,
      "d": 375,
      "v": 107
    },
    {
      "midi": 70,
      "hit": false,
      "t": 123750,
      "d": 375,
      "v": 107
    },
    {
      "midi": 70,
      "hit": false,
      "t": 124125,
      "d": 375,
      "v": 118
    },
    {
      "midi": 74,
      "hit": false,
      "t": 124125,
      "d": 375,
      "v": 118
    },
    {
      "midi": 79,
      "hit": false,
      "t": 124125,
      "d": 375,
      "v": 118
    },
    {
      "midi": 70,
      "hit": false,
      "t": 124500,
      "d": 375,
      "v": 118
    },
    {
      "midi": 74,
      "hit": false,
      "t": 124500,
      "d": 375,
      "v": 118
    },
    {
      "midi": 79,
      "hit": false,
      "t": 124500,
      "d": 375,
      "v": 118
    },
    {
      "midi": 70,
      "hit": false,
      "t": 124875,
      "d": 375,
      "v": 107
    },
    {
      "midi": 72,
      "hit": false,
      "t": 125250,
      "d": 375,
      "v": 107
    },
    {
      "midi": 70,
      "hit": false,
      "t": 125625,
      "d": 375,
      "v": 107
    },
    {
      "midi": 69,
      "hit": false,
      "t": 126000,
      "d": 375,
      "v": 107
    },
    {
      "midi": 69,
      "hit": false,
      "t": 126375,
      "d": 375,
      "v": 107
    },
    {
      "midi": 69,
      "hit": false,
      "t": 126750,
      "d": 375,
      "v": 107
    },
    {
      "midi": 69,
      "hit": false,
      "t": 127125,
      "d": 375,
      "v": 115
    },
    {
      "midi": 72,
      "hit": false,
      "t": 127125,
      "d": 375,
      "v": 115
    },
    {
      "midi": 78,
      "hit": false,
      "t": 127125,
      "d": 375,
      "v": 115
    },
    {
      "midi": 69,
      "hit": false,
      "t": 127500,
      "d": 2250,
      "v": 115
    },
    {
      "midi": 72,
      "hit": false,
      "t": 127500,
      "d": 2250,
      "v": 115
    },
    {
      "midi": 78,
      "hit": false,
      "t": 127500,
      "d": 2250,
      "v": 115
    },
    {
      "midi": 67,
      "hit": false,
      "t": 129750,
      "d": 750,
      "v": 107
    },
    {
      "midi": 72,
      "hit": false,
      "t": 129750,
      "d": 750,
      "v": 107
    },
    {
      "midi": 76,
      "hit": false,
      "t": 129750,
      "d": 750,
      "v": 107
    },
    {
      "midi": 79,
      "hit": false,
      "t": 129750,
      "d": 750,
      "v": 107
    },
    {
      "midi": 66,
      "hit": false,
      "t": 130500,
      "d": 750,
      "v": 118
    },
    {
      "midi": 72,
      "hit": false,
      "t": 130500,
      "d": 750,
      "v": 118
    },
    {
      "midi": 75,
      "hit": false,
      "t": 130500,
      "d": 750,
      "v": 118
    },
    {
      "midi": 81,
      "hit": false,
      "t": 130500,
      "d": 750,
      "v": 118
    },
    {
      "midi": 69,
      "hit": false,
      "t": 131250,
      "d": 750,
      "v": 107
    },
    {
      "midi": 72,
      "hit": false,
      "t": 131250,
      "d": 750,
      "v": 107
    },
    {
      "midi": 74,
      "hit": false,
      "t": 131250,
      "d": 750,
      "v": 107
    },
    {
      "midi": 78,
      "hit": false,
      "t": 131250,
      "d": 750,
      "v": 107
    },
    {
      "midi": 67,
      "hit": false,
      "t": 132000,
      "d": 3000,
      "v": 127
    },
    {
      "midi": 70,
      "hit": false,
      "t": 132000,
      "d": 3000,
      "v": 127
    },
    {
      "midi": 74,
      "hit": false,
      "t": 132000,
      "d": 3000,
      "v": 127
    },
    {
      "midi": 79,
      "hit": false,
      "t": 132000,
      "d": 3000,
      "v": 127
    },
    {
      "midi": 67,
      "hit": false,
      "t": 135000,
      "d": 3000,
      "v": 124
    },
    {
      "midi": 70,
      "hit": false,
      "t": 135000,
      "d": 3000,
      "v": 124
    },
    {
      "midi": 74,
      "hit": false,
      "t": 135000,
      "d": 3000,
      "v": 124
    },
    {
      "midi": 77,
      "hit": false,
      "t": 135000,
      "d": 3000,
      "v": 124
    },
    {
      "midi": 63,
      "hit": false,
      "t": 138000,
      "d": 3000,
      "v": 124
    },
    {
      "midi": 67,
      "hit": false,
      "t": 138000,
      "d": 3000,
      "v": 124
    },
    {
      "midi": 70,
      "hit": false,
      "t": 138000,
      "d": 3000,
      "v": 124
    },
    {
      "midi": 74,
      "hit": false,
      "t": 138000,
      "d": 3000,
      "v": 124
    },
    {
      "midi": 67,
      "hit": false,
      "t": 141000,
      "d": 1500,
      "v": 127
    },
    {
      "midi": 70,
      "hit": false,
      "t": 141000,
      "d": 1500,
      "v": 127
    },
    {
      "midi": 62,
      "hit": false,
      "t": 141000,
      "d": 3000,
      "v": 127
    },
    {
      "midi": 74,
      "hit": false,
      "t": 141000,
      "d": 3000,
      "v": 127
    },
    {
      "midi": 66,
      "hit": false,
      "t": 142500,
      "d": 1500,
      "v": 118
    },
    {
      "midi": 69,
      "hit": false,
      "t": 142500,
      "d": 1500,
      "v": 118
    },
    {
      "midi": 82,
      "hit": false,
      "t": 144000,
      "d": 375,
      "v": 107
    },
    {
      "midi": 74,
      "hit": false,
      "t": 144375,
      "d": 375,
      "v": 107
    },
    {
      "midi": 74,
      "hit": false,
      "t": 144750,
      "d": 375,
      "v": 107
    },
    {
      "midi": 82,
      "hit": false,
      "t": 145125,
      "d": 375,
      "v": 118
    },
    {
      "midi": 82,
      "hit": false,
      "t": 145500,
      "d": 1867.1875,
      "v": 118
    },
    {
      "midi": 74,
      "hit": false,
      "t": 147375,
      "d": 375,
      "v": 107
    },
    {
      "midi": 74,
      "hit": false,
      "t": 147750,
      "d": 375,
      "v": 107
    },
    {
      "midi": 82,
      "hit": false,
      "t": 148125,
      "d": 375,
      "v": 118
    },
    {
      "midi": 82,
      "hit": false,
      "t": 148500,
      "d": 375,
      "v": 115
    },
    {
      "midi": 74,
      "hit": false,
      "t": 148875,
      "d": 375,
      "v": 107
    },
    {
      "midi": 75,
      "hit": false,
      "t": 149250,
      "d": 375,
      "v": 107
    },
    {
      "midi": 74,
      "hit": false,
      "t": 149625,
      "d": 375,
      "v": 107
    },
    {
      "midi": 72,
      "hit": false,
      "t": 150000,
      "d": 375,
      "v": 121
    },
    {
      "midi": 72,
      "hit": false,
      "t": 150375,
      "d": 375,
      "v": 107
    },
    {
      "midi": 72,
      "hit": false,
      "t": 150750,
      "d": 375,
      "v": 107
    },
    {
      "midi": 81,
      "hit": false,
      "t": 151125,
      "d": 375,
      "v": 121
    },
    {
      "midi": 81,
      "hit": false,
      "t": 151500,
      "d": 1867.1875,
      "v": 121
    },
    {
      "midi": 72,
      "hit": false,
      "t": 153375,
      "d": 375,
      "v": 107
    },
    {
      "midi": 72,
      "hit": false,
      "t": 153750,
      "d": 375,
      "v": 107
    },
    {
      "midi": 81,
      "hit": false,
      "t": 154125,
      "d": 375,
      "v": 118
    },
    {
      "midi": 81,
      "hit": false,
      "t": 154500,
      "d": 375,
      "v": 118
    },
    {
      "midi": 72,
      "hit": false,
      "t": 154875,
      "d": 375,
      "v": 107
    },
    {
      "midi": 74,
      "hit": false,
      "t": 155250,
      "d": 375,
      "v": 107
    },
    {
      "midi": 72,
      "hit": false,
      "t": 155625,
      "d": 375,
      "v": 107
    },
    {
      "midi": 70,
      "hit": false,
      "t": 156000,
      "d": 375,
      "v": 112
    },
    {
      "midi": 70,
      "hit": false,
      "t": 156375,
      "d": 375,
      "v": 107
    },
    {
      "midi": 70,
      "hit": false,
      "t": 156750,
      "d": 375,
      "v": 107
    },
    {
      "midi": 79,
      "hit": false,
      "t": 157125,
      "d": 375,
      "v": 118
    },
    {
      "midi": 79,
      "hit": false,
      "t": 157500,
      "d": 1500,
      "v": 118
    },
    {
      "midi": 70,
      "hit": false,
      "t": 159375,
      "d": 375,
      "v": 107
    },
    {
      "midi": 70,
      "hit": false,
      "t": 159750,
      "d": 375,
      "v": 107
    },
    {
      "midi": 79,
      "hit": false,
      "t": 160125,
      "d": 375,
      "v": 118
    },
    {
      "midi": 79,
      "hit": false,
      "t": 160500,
      "d": 375,
      "v": 118
    },
    {
      "midi": 70,
      "hit": false,
      "t": 160875,
      "d": 375,
      "v": 107
    },
    {
      "midi": 72,
      "hit": false,
      "t": 161250,
      "d": 375,
      "v": 107
    },
    {
      "midi": 70,
      "hit": false,
      "t": 161625,
      "d": 375,
      "v": 107
    },
    {
      "midi": 69,
      "hit": false,
      "t": 162000,
      "d": 375,
      "v": 118
    },
    {
      "midi": 69,
      "hit": false,
      "t": 162375,
      "d": 375,
      "v": 107
    },
    {
      "midi": 69,
      "hit": false,
      "t": 162750,
      "d": 375,
      "v": 107
    },
    {
      "midi": 78,
      "hit": false,
      "t": 163125,
      "d": 375,
      "v": 118
    },
    {
      "midi": 78,
      "hit": false,
      "t": 163500,
      "d": 2250,
      "v": 124
    },
    {
      "midi": 76,
      "hit": false,
      "t": 165750,
      "d": 750,
      "v": 118
    },
    {
      "midi": 79,
      "hit": false,
      "t": 165750,
      "d": 750,
      "v": 118
    },
    {
      "midi": 74,
      "hit": false,
      "t": 166500,
      "d": 750,
      "v": 121
    },
    {
      "midi": 78,
      "hit": false,
      "t": 166500,
      "d": 750,
      "v": 121
    },
    {
      "midi": 81,
      "hit": false,
      "t": 166500,
      "d": 750,
      "v": 121
    },
    {
      "midi": 72,
      "hit": false,
      "t": 167250,
      "d": 750,
      "v": 127
    },
    {
      "midi": 75,
      "hit": false,
      "t": 167250,
      "d": 750,
      "v": 127
    },
    {
      "midi": 70,
      "hit": false,
      "t": 168000,
      "d": 5242.1875,
      "v": 124
    },
    {
      "midi": 74,
      "hit": false,
      "t": 168000,
      "d": 5242.1875,
      "v": 124
    },
    {
      "midi": 79,
      "hit": false,
      "t": 174000,
      "d": 375,
      "v": 127
    },
    {
      "midi": 82,
      "hit": false,
      "t": 174000,
      "d": 375,
      "v": 127
    },
    {
      "midi": 74,
      "hit": false,
      "t": 174375,
      "d": 375,
      "v": 107
    },
    {
      "midi": 74,
      "hit": false,
      "t": 174750,
      "d": 375,
      "v": 107
    },
    {
      "midi": 79,
      "hit": false,
      "t": 175125,
      "d": 375,
      "v": 121
    },
    {
      "midi": 82,
      "hit": false,
      "t": 175125,
      "d": 375,
      "v": 121
    },
    {
      "midi": 79,
      "hit": false,
      "t": 175500,
      "d": 1867.1875,
      "v": 124
    },
    {
      "midi": 82,
      "hit": false,
      "t": 175500,
      "d": 1867.1875,
      "v": 124
    },
    {
      "midi": 74,
      "hit": false,
      "t": 177375,
      "d": 375,
      "v": 107
    },
    {
      "midi": 74,
      "hit": false,
      "t": 177750,
      "d": 375,
      "v": 107
    },
    {
      "midi": 79,
      "hit": false,
      "t": 178125,
      "d": 375,
      "v": 118
    },
    {
      "midi": 82,
      "hit": false,
      "t": 178125,
      "d": 375,
      "v": 118
    },
    {
      "midi": 79,
      "hit": false,
      "t": 178500,
      "d": 375,
      "v": 121
    },
    {
      "midi": 82,
      "hit": false,
      "t": 178500,
      "d": 375,
      "v": 121
    },
    {
      "midi": 74,
      "hit": false,
      "t": 178875,
      "d": 375,
      "v": 107
    },
    {
      "midi": 75,
      "hit": false,
      "t": 179250,
      "d": 375,
      "v": 107
    },
    {
      "midi": 74,
      "hit": false,
      "t": 179625,
      "d": 375,
      "v": 107
    },
    {
      "midi": 72,
      "hit": false,
      "t": 180000,
      "d": 375,
      "v": 115
    },
    {
      "midi": 72,
      "hit": false,
      "t": 180375,
      "d": 375,
      "v": 107
    },
    {
      "midi": 72,
      "hit": false,
      "t": 180750,
      "d": 375,
      "v": 107
    },
    {
      "midi": 78,
      "hit": false,
      "t": 181125,
      "d": 375,
      "v": 118
    },
    {
      "midi": 81,
      "hit": false,
      "t": 181125,
      "d": 375,
      "v": 118
    },
    {
      "midi": 78,
      "hit": false,
      "t": 181500,
      "d": 1867.1875,
      "v": 121
    },
    {
      "midi": 81,
      "hit": false,
      "t": 181500,
      "d": 1867.1875,
      "v": 121
    },
    {
      "midi": 72,
      "hit": false,
      "t": 183375,
      "d": 375,
      "v": 107
    },
    {
      "midi": 72,
      "hit": false,
      "t": 183750,
      "d": 375,
      "v": 107
    },
    {
      "midi": 78,
      "hit": false,
      "t": 184125,
      "d": 375,
      "v": 124
    },
    {
      "midi": 81,
      "hit": false,
      "t": 184125,
      "d": 375,
      "v": 124
    },
    {
      "midi": 78,
      "hit": false,
      "t": 184500,
      "d": 375,
      "v": 107
    },
    {
      "midi": 81,
      "hit": false,
      "t": 184500,
      "d": 375,
      "v": 107
    },
    {
      "midi": 72,
      "hit": false,
      "t": 184875,
      "d": 375,
      "v": 107
    },
    {
      "midi": 74,
      "hit": false,
      "t": 185250,
      "d": 375,
      "v": 107
    },
    {
      "midi": 72,
      "hit": false,
      "t": 185625,
      "d": 375,
      "v": 107
    },
    {
      "midi": 70,
      "hit": false,
      "t": 186000,
      "d": 375,
      "v": 121
    },
    {
      "midi": 70,
      "hit": false,
      "t": 186375,
      "d": 375,
      "v": 107
    },
    {
      "midi": 70,
      "hit": false,
      "t": 186750,
      "d": 375,
      "v": 107
    },
    {
      "midi": 70,
      "hit": false,
      "t": 187125,
      "d": 375,
      "v": 121
    },
    {
      "midi": 79,
      "hit": false,
      "t": 187125,
      "d": 375,
      "v": 121
    },
    {
      "midi": 70,
      "hit": false,
      "t": 187500,
      "d": 1867.1875,
      "v": 118
    },
    {
      "midi": 79,
      "hit": false,
      "t": 187500,
      "d": 1867.1875,
      "v": 118
    },
    {
      "midi": 70,
      "hit": false,
      "t": 189375,
      "d": 375,
      "v": 107
    },
    {
      "midi": 70,
      "hit": false,
      "t": 189750,
      "d": 1125,
      "v": 107
    },
    {
      "midi": 79,
      "hit": false,
      "t": 190125,
      "d": 375,
      "v": 121
    },
    {
      "midi": 79,
      "hit": false,
      "t": 190500,
      "d": 375,
      "v": 118
    },
    {
      "midi": 70,
      "hit": false,
      "t": 190875,
      "d": 375,
      "v": 107
    },
    {
      "midi": 72,
      "hit": false,
      "t": 191250,
      "d": 375,
      "v": 107
    },
    {
      "midi": 70,
      "hit": false,
      "t": 191625,
      "d": 375,
      "v": 107
    },
    {
      "midi": 69,
      "hit": false,
      "t": 192000,
      "d": 375,
      "v": 115
    },
    {
      "midi": 69,
      "hit": false,
      "t": 192375,
      "d": 375,
      "v": 107
    },
    {
      "midi": 69,
      "hit": false,
      "t": 192750,
      "d": 375,
      "v": 107
    },
    {
      "midi": 72,
      "hit": false,
      "t": 193125,
      "d": 375,
      "v": 124
    },
    {
      "midi": 78,
      "hit": false,
      "t": 193125,
      "d": 375,
      "v": 124
    },
    {
      "midi": 72,
      "hit": false,
      "t": 193500,
      "d": 2234.375,
      "v": 118
    },
    {
      "midi": 78,
      "hit": false,
      "t": 193500,
      "d": 2234.375,
      "v": 118
    },
    {
      "midi": 72,
      "hit": false,
      "t": 195750,
      "d": 750,
      "v": 121
    },
    {
      "midi": 76,
      "hit": false,
      "t": 195750,
      "d": 750,
      "v": 121
    },
    {
      "midi": 79,
      "hit": false,
      "t": 195750,
      "d": 750,
      "v": 121
    },
    {
      "midi": 72,
      "hit": false,
      "t": 196500,
      "d": 750,
      "v": 124
    },
    {
      "midi": 76,
      "hit": false,
      "t": 196500,
      "d": 750,
      "v": 124
    },
    {
      "midi": 78,
      "hit": false,
      "t": 196500,
      "d": 750,
      "v": 124
    },
    {
      "midi": 81,
      "hit": false,
      "t": 196500,
      "d": 750,
      "v": 124
    },
    {
      "midi": 72,
      "hit": false,
      "t": 197250,
      "d": 750,
      "v": 124
    },
    {
      "midi": 74,
      "hit": false,
      "t": 197250,
      "d": 750,
      "v": 124
    },
    {
      "midi": 78,
      "hit": false,
      "t": 197250,
      "d": 750,
      "v": 124
    },
    {
      "midi": 71,
      "hit": false,
      "t": 198000,
      "d": 2250,
      "v": 121
    },
    {
      "midi": 74,
      "hit": false,
      "t": 198000,
      "d": 2250,
      "v": 121
    },
    {
      "midi": 78,
      "hit": false,
      "t": 198000,
      "d": 2250,
      "v": 121
    },
    {
      "midi": 83,
      "hit": false,
      "t": 198000,
      "d": 2250,
      "v": 121
    },
    {
      "midi": 71,
      "hit": false,
      "t": 200250,
      "d": 750,
      "v": 107
    },
    {
      "midi": 71,
      "hit": false,
      "t": 201000,
      "d": 750,
      "v": 121
    },
    {
      "midi": 72,
      "hit": false,
      "t": 201750,
      "d": 750,
      "v": 124
    },
    {
      "midi": 74,
      "hit": false,
      "t": 202500,
      "d": 750,
      "v": 115
    },
    {
      "midi": 67,
      "hit": false,
      "t": 203250,
      "d": 750,
      "v": 112
    },
    {
      "midi": 75,
      "hit": false,
      "t": 204000,
      "d": 1867.1875,
      "v": 124
    },
    {
      "midi": 67,
      "hit": false,
      "t": 205875,
      "d": 375,
      "v": 107
    },
    {
      "midi": 75,
      "hit": false,
      "t": 206250,
      "d": 375,
      "v": 124
    },
    {
      "midi": 67,
      "hit": false,
      "t": 206625,
      "d": 375,
      "v": 107
    },
    {
      "midi": 67,
      "hit": false,
      "t": 207000,
      "d": 1.953125,
      "v": 112
    },
    {
      "midi": 69,
      "hit": false,
      "t": 207375,
      "d": 1.953125,
      "v": 107
    },
    {
      "midi": 69,
      "hit": false,
      "t": 207750,
      "d": 1.953125,
      "v": 118
    },
    {
      "midi": 72,
      "hit": false,
      "t": 208875,
      "d": 1.953125,
      "v": 107
    },
    {
      "midi": 75,
      "hit": false,
      "t": 209250,
      "d": 1.953125,
      "v": 112
    },
    {
      "midi": 72,
      "hit": false,
      "t": 209625,
      "d": 1.953125,
      "v": 107
    },
    {
      "midi": 74,
      "hit": false,
      "t": 210000,
      "d": 1875,
      "v": 115
    },
    {
      "midi": 65,
      "hit": false,
      "t": 211875,
      "d": 375,
      "v": 107
    },
    {
      "midi": 74,
      "hit": false,
      "t": 212250,
      "d": 375,
      "v": 118
    },
    {
      "midi": 65,
      "hit": false,
      "t": 212625,
      "d": 375,
      "v": 107
    },
    {
      "midi": 65,
      "hit": false,
      "t": 213000,
      "d": 375,
      "v": 109
    },
    {
      "midi": 67,
      "hit": false,
      "t": 213375,
      "d": 375,
      "v": 107
    },
    {
      "midi": 67,
      "hit": false,
      "t": 213750,
      "d": 1125,
      "v": 115
    },
    {
      "midi": 70,
      "hit": false,
      "t": 214875,
      "d": 375,
      "v": 107
    },
    {
      "midi": 74,
      "hit": false,
      "t": 215250,
      "d": 375,
      "v": 115
    },
    {
      "midi": 70,
      "hit": false,
      "t": 215625,
      "d": 375,
      "v": 107
    },
    {
      "midi": 72,
      "hit": false,
      "t": 216000,
      "d": 1875,
      "v": 112
    },
    {
      "midi": 69,
      "hit": false,
      "t": 217875,
      "d": 375,
      "v": 107
    },
    {
      "midi": 72,
      "hit": false,
      "t": 218250,
      "d": 375,
      "v": 112
    },
    {
      "midi": 69,
      "hit": false,
      "t": 218625,
      "d": 375,
      "v": 107
    },
    {
      "midi": 70,
      "hit": false,
      "t": 219000,
      "d": 1125,
      "v": 115
    },
    {
      "midi": 72,
      "hit": false,
      "t": 220125,
      "d": 375,
      "v": 107
    },
    {
      "midi": 74,
      "hit": false,
      "t": 220500,
      "d": 375,
      "v": 107
    },
    {
      "midi": 67,
      "hit": false,
      "t": 220875,
      "d": 375,
      "v": 107
    },
    {
      "midi": 70,
      "hit": false,
      "t": 221250,
      "d": 375,
      "v": 118
    },
    {
      "midi": 74,
      "hit": false,
      "t": 221625,
      "d": 375,
      "v": 107
    },
    {
      "midi": 75,
      "hit": false,
      "t": 222000,
      "d": 1875,
      "v": 118
    },
    {
      "midi": 65,
      "hit": false,
      "t": 223875,
      "d": 375,
      "v": 107
    },
    {
      "midi": 67,
      "hit": false,
      "t": 224250,
      "d": 375,
      "v": 107
    },
    {
      "midi": 70,
      "hit": false,
      "t": 224625,
      "d": 375,
      "v": 107
    },
    {
      "midi": 70,
      "hit": false,
      "t": 225000,
      "d": 750,
      "v": 118
    },
    {
      "midi": 69,
      "hit": false,
      "t": 225750,
      "d": 1125,
      "v": 107
    },
    {
      "midi": 70,
      "hit": false,
      "t": 226875,
      "d": 375,
      "v": 107
    },
    {
      "midi": 72,
      "hit": false,
      "t": 227250,
      "d": 375,
      "v": 107
    },
    {
      "midi": 63,
      "hit": false,
      "t": 227625,
      "d": 375,
      "v": 107
    },
    {
      "midi": 62,
      "hit": false,
      "t": 228000,
      "d": 1875,
      "v": 118
    },
    {
      "midi": 62,
      "hit": false,
      "t": 229875,
      "d": 375,
      "v": 107
    },
    {
      "midi": 63,
      "hit": false,
      "t": 230250,
      "d": 375,
      "v": 107
    },
    {
      "midi": 65,
      "hit": false,
      "t": 230625,
      "d": 375,
      "v": 107
    },
    {
      "midi": 69,
      "hit": false,
      "t": 231000,
      "d": 750,
      "v": 124
    },
    {
      "midi": 67,
      "hit": false,
      "t": 231750,
      "d": 1125,
      "v": 112
    },
    {
      "midi": 67,
      "hit": false,
      "t": 232875,
      "d": 375,
      "v": 107
    },
    {
      "midi": 65,
      "hit": false,
      "t": 233250,
      "d": 281.25,
      "v": 107
    },
    {
      "midi": 63,
      "hit": false,
      "t": 233484.375,
      "d": 281.25,
      "v": 107
    },
    {
      "midi": 62,
      "hit": false,
      "t": 233718.75,
      "d": 281.25,
      "v": 107
    },
    {
      "midi": 61,
      "hit": false,
      "t": 234000,
      "d": 1875,
      "v": 121
    },
    {
      "midi": 64,
      "hit": false,
      "t": 235875,
      "d": 375,
      "v": 107
    },
    {
      "midi": 67,
      "hit": false,
      "t": 236250,
      "d": 375,
      "v": 107
    },
    {
      "midi": 64,
      "hit": false,
      "t": 236625,
      "d": 375,
      "v": 107
    },
    {
      "midi": 66,
      "hit": false,
      "t": 237000,
      "d": 3000,
      "v": 124
    },
    {
      "midi": 73,
      "hit": false,
      "t": 237750,
      "d": 375,
      "v": 127
    },
    {
      "midi": 78,
      "hit": false,
      "t": 237750,
      "d": 375,
      "v": 127
    },
    {
      "midi": 73,
      "hit": false,
      "t": 238125,
      "d": 1875,
      "v": 121
    },
    {
      "midi": 78,
      "hit": false,
      "t": 238125,
      "d": 1875,
      "v": 121
    },
    {
      "midi": 66,
      "hit": false,
      "t": 240000,
      "d": 375,
      "v": 121
    },
    {
      "midi": 74,
      "hit": false,
      "t": 240375,
      "d": 375,
      "v": 124
    },
    {
      "midi": 78,
      "hit": false,
      "t": 240375,
      "d": 375,
      "v": 124
    },
    {
      "midi": 74,
      "hit": false,
      "t": 240750,
      "d": 1500,
      "v": 127
    },
    {
      "midi": 78,
      "hit": false,
      "t": 240750,
      "d": 1500,
      "v": 127
    },
    {
      "midi": 78,
      "hit": false,
      "t": 242250,
      "d": 750,
      "v": 107
    },
    {
      "midi": 79,
      "hit": false,
      "t": 243000,
      "d": 375,
      "v": 107
    },
    {
      "midi": 82,
      "hit": false,
      "t": 243000,
      "d": 375,
      "v": 107
    },
    {
      "midi": 74,
      "hit": false,
      "t": 243375,
      "d": 375,
      "v": 107
    },
    {
      "midi": 74,
      "hit": false,
      "t": 243750,
      "d": 375,
      "v": 107
    },
    {
      "midi": 79,
      "hit": false,
      "t": 244125,
      "d": 375,
      "v": 121
    },
    {
      "midi": 82,
      "hit": false,
      "t": 244125,
      "d": 375,
      "v": 121
    },
    {
      "midi": 79,
      "hit": false,
      "t": 244500,
      "d": 1875,
      "v": 121
    },
    {
      "midi": 82,
      "hit": false,
      "t": 244500,
      "d": 1875,
      "v": 121
    },
    {
      "midi": 74,
      "hit": false,
      "t": 246375,
      "d": 375,
      "v": 107
    },
    {
      "midi": 74,
      "hit": false,
      "t": 246750,
      "d": 375,
      "v": 107
    },
    {
      "midi": 79,
      "hit": false,
      "t": 247125,
      "d": 375,
      "v": 121
    },
    {
      "midi": 82,
      "hit": false,
      "t": 247125,
      "d": 375,
      "v": 121
    },
    {
      "midi": 79,
      "hit": false,
      "t": 247500,
      "d": 375,
      "v": 107
    },
    {
      "midi": 82,
      "hit": false,
      "t": 247500,
      "d": 375,
      "v": 107
    },
    {
      "midi": 74,
      "hit": false,
      "t": 247875,
      "d": 375,
      "v": 107
    },
    {
      "midi": 75,
      "hit": false,
      "t": 248250,
      "d": 375,
      "v": 107
    },
    {
      "midi": 74,
      "hit": false,
      "t": 248625,
      "d": 375,
      "v": 107
    },
    {
      "midi": 72,
      "hit": false,
      "t": 249000,
      "d": 375,
      "v": 107
    },
    {
      "midi": 72,
      "hit": false,
      "t": 249375,
      "d": 375,
      "v": 107
    },
    {
      "midi": 72,
      "hit": false,
      "t": 249750,
      "d": 375,
      "v": 107
    },
    {
      "midi": 78,
      "hit": false,
      "t": 250125,
      "d": 375,
      "v": 121
    },
    {
      "midi": 81,
      "hit": false,
      "t": 250125,
      "d": 375,
      "v": 121
    },
    {
      "midi": 78,
      "hit": false,
      "t": 250500,
      "d": 1875,
      "v": 118
    },
    {
      "midi": 81,
      "hit": false,
      "t": 250500,
      "d": 1875,
      "v": 118
    },
    {
      "midi": 72,
      "hit": false,
      "t": 252375,
      "d": 375,
      "v": 107
    },
    {
      "midi": 72,
      "hit": false,
      "t": 252750,
      "d": 375,
      "v": 112
    },
    {
      "midi": 78,
      "hit": false,
      "t": 253125,
      "d": 375,
      "v": 124
    },
    {
      "midi": 81,
      "hit": false,
      "t": 253125,
      "d": 375,
      "v": 124
    },
    {
      "midi": 78,
      "hit": false,
      "t": 253500,
      "d": 375,
      "v": 107
    },
    {
      "midi": 81,
      "hit": false,
      "t": 253500,
      "d": 375,
      "v": 107
    },
    {
      "midi": 72,
      "hit": false,
      "t": 253875,
      "d": 375,
      "v": 107
    },
    {
      "midi": 74,
      "hit": false,
      "t": 254250,
      "d": 375,
      "v": 107
    },
    {
      "midi": 72,
      "hit": false,
      "t": 254625,
      "d": 375,
      "v": 107
    },
    {
      "midi": 70,
      "hit": false,
      "t": 255000,
      "d": 375,
      "v": 107
    },
    {
      "midi": 70,
      "hit": false,
      "t": 255375,
      "d": 375,
      "v": 107
    },
    {
      "midi": 70,
      "hit": false,
      "t": 255750,
      "d": 375,
      "v": 107
    },
    {
      "midi": 70,
      "hit": false,
      "t": 256125,
      "d": 375,
      "v": 118
    },
    {
      "midi": 74,
      "hit": false,
      "t": 256125,
      "d": 375,
      "v": 118
    },
    {
      "midi": 79,
      "hit": false,
      "t": 256125,
      "d": 375,
      "v": 118
    },
    {
      "midi": 70,
      "hit": false,
      "t": 256500,
      "d": 1875,
      "v": 115
    },
    {
      "midi": 74,
      "hit": false,
      "t": 256500,
      "d": 1875,
      "v": 115
    },
    {
      "midi": 79,
      "hit": false,
      "t": 256500,
      "d": 1875,
      "v": 115
    },
    {
      "midi": 70,
      "hit": false,
      "t": 258375,
      "d": 375,
      "v": 107
    },
    {
      "midi": 70,
      "hit": false,
      "t": 258750,
      "d": 375,
      "v": 107
    },
    {
      "midi": 70,
      "hit": false,
      "t": 259125,
      "d": 375,
      "v": 118
    },
    {
      "midi": 74,
      "hit": false,
      "t": 259125,
      "d": 375,
      "v": 118
    },
    {
      "midi": 79,
      "hit": false,
      "t": 259125,
      "d": 375,
      "v": 118
    },
    {
      "midi": 70,
      "hit": false,
      "t": 259500,
      "d": 375,
      "v": 115
    },
    {
      "midi": 74,
      "hit": false,
      "t": 259500,
      "d": 375,
      "v": 115
    },
    {
      "midi": 79,
      "hit": false,
      "t": 259500,
      "d": 375,
      "v": 115
    },
    {
      "midi": 70,
      "hit": false,
      "t": 259875,
      "d": 375,
      "v": 107
    },
    {
      "midi": 72,
      "hit": false,
      "t": 260250,
      "d": 375,
      "v": 107
    },
    {
      "midi": 70,
      "hit": false,
      "t": 260625,
      "d": 375,
      "v": 107
    },
    {
      "midi": 69,
      "hit": false,
      "t": 261000,
      "d": 375,
      "v": 107
    },
    {
      "midi": 69,
      "hit": false,
      "t": 261375,
      "d": 375,
      "v": 107
    },
    {
      "midi": 69,
      "hit": false,
      "t": 261750,
      "d": 375,
      "v": 107
    },
    {
      "midi": 69,
      "hit": false,
      "t": 262125,
      "d": 375,
      "v": 118
    },
    {
      "midi": 72,
      "hit": false,
      "t": 262125,
      "d": 375,
      "v": 118
    },
    {
      "midi": 78,
      "hit": false,
      "t": 262125,
      "d": 375,
      "v": 118
    },
    {
      "midi": 69,
      "hit": false,
      "t": 262500,
      "d": 2250,
      "v": 121
    },
    {
      "midi": 72,
      "hit": false,
      "t": 262500,
      "d": 2250,
      "v": 121
    },
    {
      "midi": 78,
      "hit": false,
      "t": 262500,
      "d": 2250,
      "v": 121
    },
    {
      "midi": 67,
      "hit": false,
      "t": 264750,
      "d": 750,
      "v": 118
    },
    {
      "midi": 72,
      "hit": false,
      "t": 264750,
      "d": 750,
      "v": 118
    },
    {
      "midi": 76,
      "hit": false,
      "t": 264750,
      "d": 750,
      "v": 118
    },
    {
      "midi": 79,
      "hit": false,
      "t": 264750,
      "d": 750,
      "v": 118
    },
    {
      "midi": 66,
      "hit": false,
      "t": 265500,
      "d": 750,
      "v": 118
    },
    {
      "midi": 72,
      "hit": false,
      "t": 265500,
      "d": 750,
      "v": 118
    },
    {
      "midi": 75,
      "hit": false,
      "t": 265500,
      "d": 750,
      "v": 118
    },
    {
      "midi": 81,
      "hit": false,
      "t": 265500,
      "d": 750,
      "v": 118
    },
    {
      "midi": 69,
      "hit": false,
      "t": 266250,
      "d": 750,
      "v": 121
    },
    {
      "midi": 72,
      "hit": false,
      "t": 266250,
      "d": 750,
      "v": 121
    },
    {
      "midi": 74,
      "hit": false,
      "t": 266250,
      "d": 750,
      "v": 121
    },
    {
      "midi": 78,
      "hit": false,
      "t": 266250,
      "d": 750,
      "v": 121
    },
    {
      "midi": 67,
      "hit": false,
      "t": 267000,
      "d": 3000,
      "v": 127
    },
    {
      "midi": 70,
      "hit": false,
      "t": 267000,
      "d": 3000,
      "v": 127
    },
    {
      "midi": 74,
      "hit": false,
      "t": 267000,
      "d": 3000,
      "v": 127
    },
    {
      "midi": 79,
      "hit": false,
      "t": 267000,
      "d": 3000,
      "v": 127
    },
    {
      "midi": 67,
      "hit": false,
      "t": 270000,
      "d": 3000,
      "v": 124
    },
    {
      "midi": 70,
      "hit": false,
      "t": 270000,
      "d": 3000,
      "v": 124
    },
    {
      "midi": 74,
      "hit": false,
      "t": 270000,
      "d": 3000,
      "v": 124
    },
    {
      "midi": 77,
      "hit": false,
      "t": 270000,
      "d": 3000,
      "v": 124
    },
    {
      "midi": 63,
      "hit": false,
      "t": 273000,
      "d": 3000,
      "v": 124
    },
    {
      "midi": 67,
      "hit": false,
      "t": 273000,
      "d": 3000,
      "v": 124
    },
    {
      "midi": 70,
      "hit": false,
      "t": 273000,
      "d": 3000,
      "v": 124
    },
    {
      "midi": 74,
      "hit": false,
      "t": 273000,
      "d": 3000,
      "v": 124
    },
    {
      "midi": 62,
      "hit": false,
      "t": 276000,
      "d": 3000,
      "v": 127
    },
    {
      "midi": 66,
      "hit": false,
      "t": 276000,
      "d": 3000,
      "v": 127
    },
    {
      "midi": 70,
      "hit": false,
      "t": 276000,
      "d": 3000,
      "v": 127
    },
    {
      "midi": 74,
      "hit": false,
      "t": 276000,
      "d": 3000,
      "v": 127
    },
    {
      "midi": 62,
      "hit": false,
      "t": 279000,
      "d": 4500,
      "v": 101
    },
    {
      "midi": 67,
      "hit": false,
      "t": 279187.5,
      "d": 4500,
      "v": 102
    },
    {
      "midi": 70,
      "hit": false,
      "t": 279375,
      "d": 4500,
      "v": 104
    },
    {
      "midi": 74,
      "hit": false,
      "t": 279562.5,
      "d": 4500,
      "v": 106
    },
    {
      "midi": 79,
      "hit": false,
      "t": 279750,
      "d": 4500,
      "v": 107
    },
    {
      "midi": 82,
      "hit": false,
      "t": 279937.5,
      "d": 4500,
      "v": 109
    },
    {
      "midi": 86,
      "hit": false,
      "t": 280125,
      "d": 4500,
      "v": 110
    },
    {
      "midi": 91,
      "hit": false,
      "t": 280312.5,
      "d": 4500,
      "v": 112
    },
    {
      "midi": 94,
      "hit": false,
      "t": 280500,
      "d": 4500,
      "v": 114
    },
    {
      "midi": 98,
      "hit": false,
      "t": 280687.5,
      "d": 4500,
      "v": 115
    },
    {
      "midi": 103,
      "hit": false,
      "t": 280875,
      "d": 4500,
      "v": 117
    }
  ]
}