{
  "jsonPath": "Rock/Progressive House/Menno de Jong/magma.json",
  "path": "Rock\\Progressive House\\Menno de Jong\\Magma.mid",
  "name": "Magma",
  "difficulty": "Advanced",
  "bpm": 137.99987580011177,
  "notes": [
    {
      "midi": 60,
      "hit": false,
      "t": 0,
      "d": 212.8625104166667,
      "v": 100
    },
    {
      "midi": 72,
      "hit": false,
      "t": 0,
      "d": 208.33352083333338,
      "v": 99
    },
    {
      "midi": 41,
      "hit": false,
      "t": 108.69575000000002,
      "d": 99.63777083333333,
      "v": 99
    },
    {
      "midi": 41,
      "hit": false,
      "t": 217.3915,
      "d": 99.63777083333338,
      "v": 99
    },
    {
      "midi": 72,
      "hit": false,
      "t": 326.08725000000004,
      "d": 208.3335208333334,
      "v": 99
    },
    {
      "midi": 41,
      "hit": false,
      "t": 326.08725000000004,
      "d": 99.63777083333332,
      "v": 99
    },
    {
      "midi": 60,
      "hit": false,
      "t": 434.7830000000001,
      "d": 212.86251041666668,
      "v": 100
    },
    {
      "midi": 41,
      "hit": false,
      "t": 543.47875,
      "d": 99.63777083333332,
      "v": 99
    },
    {
      "midi": 41,
      "hit": false,
      "t": 652.1745,
      "d": 99.63777083333332,
      "v": 99
    },
    {
      "midi": 72,
      "hit": false,
      "t": 652.1745000000001,
      "d": 208.3335208333334,
      "v": 99
    },
    {
      "midi": 41,
      "hit": false,
      "t": 760.8702499999999,
      "d": 99.63777083333332,
      "v": 99
    },
    {
      "midi": 60,
      "hit": false,
      "t": 869.5660000000001,
      "d": 212.86251041666662,
      "v": 100
    },
    {
      "midi": 41,
      "hit": false,
      "t": 978.2617499999999,
      "d": 99.63777083333343,
      "v": 99
    },
    {
      "midi": 72,
      "hit": false,
      "t": 978.2617500000001,
      "d": 208.3335208333333,
      "v": 99
    },
    {
      "midi": 41,
      "hit": false,
      "t": 1086.9575,
      "d": 99.63777083333343,
      "v": 99
    },
    {
      "midi": 41,
      "hit": false,
      "t": 1195.65325,
      "d": 99.63777083333343,
      "v": 99
    },
    {
      "midi": 60,
      "hit": false,
      "t": 1304.3490000000002,
      "d": 212.86251041666674,
      "v": 100
    },
    {
      "midi": 72,
      "hit": false,
      "t": 1304.3490000000002,
      "d": 99.63777083333343,
      "v": 99
    },
    {
      "midi": 41,
      "hit": false,
      "t": 1413.0447500000002,
      "d": 99.63777083333343,
      "v": 99
    },
    {
      "midi": 69,
      "hit": false,
      "t": 1521.7405000000003,
      "d": 208.3335208333333,
      "v": 99
    },
    {
      "midi": 41,
      "hit": false,
      "t": 1521.7405000000003,
      "d": 99.63777083333343,
      "v": 99
    },
    {
      "midi": 41,
      "hit": false,
      "t": 1630.4362500000004,
      "d": 99.63777083333343,
      "v": 99
    },
    {
      "midi": 60,
      "hit": false,
      "t": 1739.1320000000003,
      "d": 212.86251041666674,
      "v": 100
    },
    {
      "midi": 65,
      "hit": false,
      "t": 1739.1320000000003,
      "d": 208.3335208333333,
      "v": 99
    },
    {
      "midi": 41,
      "hit": false,
      "t": 1847.8277500000006,
      "d": 99.63777083333343,
      "v": 99
    },
    {
      "midi": 41,
      "hit": false,
      "t": 1956.5235000000007,
      "d": 99.63777083333343,
      "v": 99
    },
    {
      "midi": 65,
      "hit": false,
      "t": 2065.21925,
      "d": 208.3335208333333,
      "v": 99
    },
    {
      "midi": 41,
      "hit": false,
      "t": 2065.219250000001,
      "d": 99.63777083333343,
      "v": 99
    },
    {
      "midi": 60,
      "hit": false,
      "t": 2173.9150000000004,
      "d": 212.86251041666674,
      "v": 100
    },
    {
      "midi": 41,
      "hit": false,
      "t": 2282.610750000001,
      "d": 99.63777083333343,
      "v": 99
    },
    {
      "midi": 65,
      "hit": false,
      "t": 2391.3065,
      "d": 208.3335208333333,
      "v": 99
    },
    {
      "midi": 41,
      "hit": false,
      "t": 2391.3065000000015,
      "d": 99.63777083333343,
      "v": 99
    },
    {
      "midi": 41,
      "hit": false,
      "t": 2500.002250000002,
      "d": 99.63777083333343,
      "v": 99
    },
    {
      "midi": 60,
      "hit": false,
      "t": 2608.6980000000003,
      "d": 212.86251041666674,
      "v": 100
    },
    {
      "midi": 65,
      "hit": false,
      "t": 2717.39375,
      "d": 208.3335208333333,
      "v": 99
    },
    {
      "midi": 41,
      "hit": false,
      "t": 2717.393750000002,
      "d": 99.63777083333343,
      "v": 99
    },
    {
      "midi": 41,
      "hit": false,
      "t": 2826.0895000000023,
      "d": 99.63777083333343,
      "v": 99
    },
    {
      "midi": 41,
      "hit": false,
      "t": 2934.7852500000026,
      "d": 99.63777083333343,
      "v": 99
    },
    {
      "midi": 60,
      "hit": false,
      "t": 3043.481,
      "d": 212.86251041666674,
      "v": 100
    },
    {
      "midi": 65,
      "hit": false,
      "t": 3043.481,
      "d": 99.63777083333343,
      "v": 99
    },
    {
      "midi": 41,
      "hit": false,
      "t": 3152.176750000003,
      "d": 99.63777083333343,
      "v": 99
    },
    {
      "midi": 67,
      "hit": false,
      "t": 3260.8725000000004,
      "d": 208.3335208333333,
      "v": 99
    },
    {
      "midi": 41,
      "hit": false,
      "t": 3260.872500000003,
      "d": 99.63777083333343,
      "v": 99
    },
    {
      "midi": 41,
      "hit": false,
      "t": 3369.5682500000034,
      "d": 99.63777083333343,
      "v": 99
    },
    {
      "midi": 60,
      "hit": false,
      "t": 3478.264,
      "d": 212.86251041666674,
      "v": 100
    },
    {
      "midi": 64,
      "hit": false,
      "t": 3478.2640000000006,
      "d": 208.3335208333333,
      "v": 99
    },
    {
      "midi": 45,
      "hit": false,
      "t": 3586.9597500000036,
      "d": 99.63777083333343,
      "v": 99
    },
    {
      "midi": 45,
      "hit": false,
      "t": 3695.655500000004,
      "d": 99.63777083333343,
      "v": 99
    },
    {
      "midi": 64,
      "hit": false,
      "t": 3804.3512500000006,
      "d": 208.3335208333333,
      "v": 99
    },
    {
      "midi": 45,
      "hit": false,
      "t": 3804.3512500000043,
      "d": 99.63777083333343,
      "v": 99
    },
    {
      "midi": 60,
      "hit": false,
      "t": 3913.047,
      "d": 212.86251041666628,
      "v": 100
    },
    {
      "midi": 45,
      "hit": false,
      "t": 4021.7427500000044,
      "d": 99.63777083333343,
      "v": 99
    },
    {
      "midi": 64,
      "hit": false,
      "t": 4130.4385,
      "d": 208.33352083333375,
      "v": 99
    },
    {
      "midi": 45,
      "hit": false,
      "t": 4130.438500000005,
      "d": 99.63777083333298,
      "v": 99
    },
    {
      "midi": 45,
      "hit": false,
      "t": 4239.134250000005,
      "d": 99.63777083333298,
      "v": 99
    },
    {
      "midi": 60,
      "hit": false,
      "t": 4347.83,
      "d": 212.86251041666674,
      "v": 100
    },
    {
      "midi": 64,
      "hit": false,
      "t": 4456.525750000001,
      "d": 208.33352083333375,
      "v": 99
    },
    {
      "midi": 45,
      "hit": false,
      "t": 4456.525750000004,
      "d": 99.63777083333298,
      "v": 99
    },
    {
      "midi": 45,
      "hit": false,
      "t": 4565.221500000004,
      "d": 99.63777083333298,
      "v": 99
    },
    {
      "midi": 45,
      "hit": false,
      "t": 4673.917250000004,
      "d": 99.63777083333298,
      "v": 99
    },
    {
      "midi": 60,
      "hit": false,
      "t": 4782.613,
      "d": 212.86251041666674,
      "v": 100
    },
    {
      "midi": 64,
      "hit": false,
      "t": 4782.613000000001,
      "d": 208.33352083333375,
      "v": 99
    },
    {
      "midi": 45,
      "hit": false,
      "t": 4891.308750000004,
      "d": 99.63777083333298,
      "v": 99
    },
    {
      "midi": 69,
      "hit": false,
      "t": 5000.004500000002,
      "d": 208.33352083333375,
      "v": 99
    },
    {
      "midi": 45,
      "hit": false,
      "t": 5000.004500000004,
      "d": 99.63777083333298,
      "v": 99
    },
    {
      "midi": 45,
      "hit": false,
      "t": 5108.7002500000035,
      "d": 99.63777083333298,
      "v": 99
    },
    {
      "midi": 60,
      "hit": false,
      "t": 5217.396000000001,
      "d": 212.86251041666674,
      "v": 100
    },
    {
      "midi": 69,
      "hit": false,
      "t": 5326.091750000002,
      "d": 208.33352083333375,
      "v": 99
    },
    {
      "midi": 45,
      "hit": false,
      "t": 5326.091750000003,
      "d": 99.63777083333298,
      "v": 99
    },
    {
      "midi": 45,
      "hit": false,
      "t": 5434.787500000003,
      "d": 99.63777083333298,
      "v": 99
    },
    {
      "midi": 45,
      "hit": false,
      "t": 5543.483250000003,
      "d": 99.63777083333298,
      "v": 99
    },
    {
      "midi": 60,
      "hit": false,
      "t": 5652.179000000001,
      "d": 212.86251041666674,
      "v": 100
    },
    {
      "midi": 69,
      "hit": false,
      "t": 5652.179000000003,
      "d": 208.33352083333375,
      "v": 99
    },
    {
      "midi": 45,
      "hit": false,
      "t": 5760.874750000003,
      "d": 99.63777083333298,
      "v": 99
    },
    {
      "midi": 45,
      "hit": false,
      "t": 5869.5705000000025,
      "d": 99.63777083333298,
      "v": 99
    },
    {
      "midi": 45,
      "hit": false,
      "t": 5978.266250000002,
      "d": 99.63777083333298,
      "v": 99
    },
    {
      "midi": 69,
      "hit": false,
      "t": 5978.266250000003,
      "d": 208.33352083333375,
      "v": 99
    },
    {
      "midi": 60,
      "hit": false,
      "t": 6086.962000000001,
      "d": 212.86251041666674,
      "v": 100
    },
    {
      "midi": 45,
      "hit": false,
      "t": 6195.657750000002,
      "d": 99.63777083333298,
      "v": 99
    },
    {
      "midi": 45,
      "hit": false,
      "t": 6304.353500000002,
      "d": 99.63777083333298,
      "v": 99
    },
    {
      "midi": 69,
      "hit": false,
      "t": 6304.353500000004,
      "d": 208.33352083333375,
      "v": 99
    },
    {
      "midi": 45,
      "hit": false,
      "t": 6413.049250000002,
      "d": 99.63777083333298,
      "v": 99
    },
    {
      "midi": 60,
      "hit": false,
      "t": 6521.745000000002,
      "d": 212.86251041666674,
      "v": 100
    },
    {
      "midi": 67,
      "hit": false,
      "t": 6521.745000000004,
      "d": 99.63777083333298,
      "v": 99
    },
    {
      "midi": 45,
      "hit": false,
      "t": 6630.440750000002,
      "d": 99.63777083333298,
      "v": 99
    },
    {
      "midi": 69,
      "hit": false,
      "t": 6630.440750000004,
      "d": 99.63777083333298,
      "v": 99
    },
    {
      "midi": 45,
      "hit": false,
      "t": 6739.136500000001,
      "d": 99.63777083333298,
      "v": 99
    },
    {
      "midi": 71,
      "hit": false,
      "t": 6739.136500000004,
      "d": 99.63777083333298,
      "v": 99
    },
    {
      "midi": 45,
      "hit": false,
      "t": 6847.832250000001,
      "d": 99.63777083333298,
      "v": 99
    },
    {
      "midi": 72,
      "hit": false,
      "t": 6847.832250000004,
      "d": 99.63777083333298,
      "v": 99
    },
    {
      "midi": 60,
      "hit": false,
      "t": 6956.528000000002,
      "d": 212.86251041666674,
      "v": 100
    },
    {
      "midi": 64,
      "hit": false,
      "t": 6956.528000000004,
      "d": 208.33352083333375,
      "v": 99
    },
    {
      "midi": 40,
      "hit": false,
      "t": 7065.223750000001,
      "d": 99.63777083333298,
      "v": 99
    },
    {
      "midi": 40,
      "hit": false,
      "t": 7173.919500000001,
      "d": 99.63777083333298,
      "v": 99
    },
    {
      "midi": 40,
      "hit": false,
      "t": 7282.615250000001,
      "d": 99.63777083333298,
      "v": 99
    },
    {
      "midi": 64,
      "hit": false,
      "t": 7282.615250000004,
      "d": 208.33352083333375,
      "v": 99
    },
    {
      "midi": 60,
      "hit": false,
      "t": 7391.311000000002,
      "d": 212.86251041666674,
      "v": 100
    },
    {
      "midi": 40,
      "hit": false,
      "t": 7500.0067500000005,
      "d": 99.63777083333298,
      "v": 99
    },
    {
      "midi": 40,
      "hit": false,
      "t": 7608.7025,
      "d": 99.63777083333298,
      "v": 99
    },
    {
      "midi": 64,
      "hit": false,
      "t": 7608.702500000005,
      "d": 208.33352083333375,
      "v": 99
    },
    {
      "midi": 40,
      "hit": false,
      "t": 7717.39825,
      "d": 99.63777083333298,
      "v": 99
    },
    {
      "midi": 60,
      "hit": false,
      "t": 7826.094000000003,
      "d": 212.86251041666674,
      "v": 100
    },
    {
      "midi": 40,
      "hit": false,
      "t": 7934.78975,
      "d": 99.63777083333298,
      "v": 99
    },
    {
      "midi": 64,
      "hit": false,
      "t": 7934.789750000005,
      "d": 208.33352083333375,
      "v": 99
    },
    {
      "midi": 40,
      "hit": false,
      "t": 8043.4855,
      "d": 99.63777083333298,
      "v": 99
    },
    {
      "midi": 40,
      "hit": false,
      "t": 8152.18125,
      "d": 99.63777083333298,
      "v": 99
    },
    {
      "midi": 60,
      "hit": false,
      "t": 8260.877000000002,
      "d": 212.86251041666583,
      "v": 100
    },
    {
      "midi": 64,
      "hit": false,
      "t": 8260.877000000006,
      "d": 99.63777083333298,
      "v": 99
    },
    {
      "midi": 40,
      "hit": false,
      "t": 8369.57275,
      "d": 99.63777083333298,
      "v": 99
    },
    {
      "midi": 40,
      "hit": false,
      "t": 8478.268499999998,
      "d": 99.63777083333298,
      "v": 99
    },
    {
      "midi": 62,
      "hit": false,
      "t": 8478.268500000006,
      "d": 208.33352083333375,
      "v": 99
    },
    {
      "midi": 40,
      "hit": false,
      "t": 8586.964249999997,
      "d": 99.63777083333298,
      "v": 99
    },
    {
      "midi": 60,
      "hit": false,
      "t": 8695.660000000002,
      "d": 212.86251041666583,
      "v": 100
    },
    {
      "midi": 67,
      "hit": false,
      "t": 8695.660000000005,
      "d": 208.33352083333375,
      "v": 99
    },
    {
      "midi": 40,
      "hit": false,
      "t": 8804.355749999997,
      "d": 99.63777083333298,
      "v": 99
    },
    {
      "midi": 40,
      "hit": false,
      "t": 8913.051499999996,
      "d": 99.63777083333298,
      "v": 99
    },
    {
      "midi": 40,
      "hit": false,
      "t": 9021.747249999995,
      "d": 99.63777083333298,
      "v": 99
    },
    {
      "midi": 67,
      "hit": false,
      "t": 9021.747250000006,
      "d": 208.33352083333375,
      "v": 99
    },
    {
      "midi": 60,
      "hit": false,
      "t": 9130.443000000001,
      "d": 212.86251041666583,
      "v": 100
    },
    {
      "midi": 40,
      "hit": false,
      "t": 9239.138749999995,
      "d": 99.63777083333298,
      "v": 99
    },
    {
      "midi": 40,
      "hit": false,
      "t": 9347.834499999994,
      "d": 99.63777083333298,
      "v": 99
    },
    {
      "midi": 67,
      "hit": false,
      "t": 9347.834500000006,
      "d": 208.33352083333375,
      "v": 99
    },
    {
      "midi": 40,
      "hit": false,
      "t": 9456.530249999993,
      "d": 99.63777083333298,
      "v": 99
    },
    {
      "midi": 60,
      "hit": false,
      "t": 9565.226,
      "d": 212.86251041666583,
      "v": 100
    },
    {
      "midi": 40,
      "hit": false,
      "t": 9673.921749999992,
      "d": 99.63777083333298,
      "v": 99
    },
    {
      "midi": 67,
      "hit": false,
      "t": 9673.921750000007,
      "d": 208.33352083333375,
      "v": 99
    },
    {
      "midi": 40,
      "hit": false,
      "t": 9782.617499999991,
      "d": 99.63777083333298,
      "v": 99
    },
    {
      "midi": 40,
      "hit": false,
      "t": 9891.31324999999,
      "d": 99.63777083333298,
      "v": 99
    },
    {
      "midi": 60,
      "hit": false,
      "t": 10000.009,
      "d": 212.86251041666583,
      "v": 100
    },
    {
      "midi": 72,
      "hit": false,
      "t": 10000.009000000007,
      "d": 208.33352083333375,
      "v": 99
    },
    {
      "midi": 40,
      "hit": false,
      "t": 10108.70474999999,
      "d": 99.63777083333298,
      "v": 99
    },
    {
      "midi": 40,
      "hit": false,
      "t": 10217.400499999989,
      "d": 99.63777083333298,
      "v": 99
    },
    {
      "midi": 71,
      "hit": false,
      "t": 10217.400500000007,
      "d": 208.33352083333375,
      "v": 99
    },
    {
      "midi": 40,
      "hit": false,
      "t": 10326.096249999988,
      "d": 99.63777083333298,
      "v": 99
    },
    {
      "midi": 60,
      "hit": false,
      "t": 10434.792,
      "d": 212.86251041666583,
      "v": 100
    },
    {
      "midi": 69,
      "hit": false,
      "t": 10434.792000000007,
      "d": 208.33352083333375,
      "v": 99
    },
    {
      "midi": 41,
      "hit": false,
      "t": 10543.487749999987,
      "d": 99.63777083333298,
      "v": 99
    },
    {
      "midi": 41,
      "hit": false,
      "t": 10652.183499999986,
      "d": 99.63777083333298,
      "v": 99
    },
    {
      "midi": 41,
      "hit": false,
      "t": 10760.879249999985,
      "d": 99.63777083333298,
      "v": 99
    },
    {
      "midi": 69,
      "hit": false,
      "t": 10760.879250000007,
      "d": 208.33352083333375,
      "v": 99
    },
    {
      "midi": 60,
      "hit": false,
      "t": 10869.574999999999,
      "d": 212.86251041666583,
      "v": 100
    },
    {
      "midi": 41,
      "hit": false,
      "t": 10978.270749999985,
      "d": 99.63777083333298,
      "v": 99
    },
    {
      "midi": 41,
      "hit": false,
      "t": 11086.966499999984,
      "d": 99.63777083333298,
      "v": 99
    },
    {
      "midi": 69,
      "hit": false,
      "t": 11086.966500000008,
      "d": 208.33352083333375,
      "v": 99
    },
    {
      "midi": 41,
      "hit": false,
      "t": 11195.662249999983,
      "d": 99.63777083333298,
      "v": 99
    },
    {
      "midi": 60,
      "hit": false,
      "t": 11304.357999999998,
      "d": 212.86251041666583,
      "v": 100
    },
    {
      "midi": 41,
      "hit": false,
      "t": 11413.053749999983,
      "d": 99.63777083333298,
      "v": 99
    },
    {
      "midi": 69,
      "hit": false,
      "t": 11413.053750000008,
      "d": 208.33352083333375,
      "v": 99
    },
    {
      "midi": 41,
      "hit": false,
      "t": 11521.749499999982,
      "d": 99.63777083333298,
      "v": 99
    },
    {
      "midi": 41,
      "hit": false,
      "t": 11630.44524999998,
      "d": 99.63777083333298,
      "v": 99
    },
    {
      "midi": 60,
      "hit": false,
      "t": 11739.140999999998,
      "d": 212.86251041666583,
      "v": 100
    },
    {
      "midi": 69,
      "hit": false,
      "t": 11739.141000000009,
      "d": 99.63777083333298,
      "v": 99
    },
    {
      "midi": 41,
      "hit": false,
      "t": 11847.83674999998,
      "d": 99.63777083333298,
      "v": 99
    },
    {
      "midi": 41,
      "hit": false,
      "t": 11956.53249999998,
      "d": 99.63777083333298,
      "v": 99
    },
    {
      "midi": 76,
      "hit": false,
      "t": 11956.532500000008,
      "d": 208.33352083333375,
      "v": 99
    },
    {
      "midi": 41,
      "hit": false,
      "t": 12065.228249999978,
      "d": 99.63777083333298,
      "v": 99
    },
    {
      "midi": 60,
      "hit": false,
      "t": 12173.923999999997,
      "d": 212.86251041666583,
      "v": 100
    },
    {
      "midi": 74,
      "hit": false,
      "t": 12173.924000000008,
      "d": 208.33352083333375,
      "v": 99
    },
    {
      "midi": 38,
      "hit": false,
      "t": 12282.619749999978,
      "d": 99.63777083333298,
      "v": 99
    },
    {
      "midi": 38,
      "hit": false,
      "t": 12391.315499999977,
      "d": 99.63777083333298,
      "v": 99
    },
    {
      "midi": 38,
      "hit": false,
      "t": 12500.011249999976,
      "d": 99.63777083333298,
      "v": 99
    },
    {
      "midi": 74,
      "hit": false,
      "t": 12500.011250000009,
      "d": 208.33352083333375,
      "v": 99
    },
    {
      "midi": 60,
      "hit": false,
      "t": 12608.706999999997,
      "d": 212.86251041666583,
      "v": 100
    },
    {
      "midi": 38,
      "hit": false,
      "t": 12717.402749999976,
      "d": 99.63777083333298,
      "v": 99
    },
    {
      "midi": 38,
      "hit": false,
      "t": 12826.098499999975,
      "d": 99.63777083333298,
      "v": 99
    },
    {
      "midi": 72,
      "hit": false,
      "t": 12826.09850000001,
      "d": 208.33352083333375,
      "v": 99
    },
    {
      "midi": 38,
      "hit": false,
      "t": 12934.794249999974,
      "d": 99.63777083333298,
      "v": 99
    },
    {
      "midi": 60,
      "hit": false,
      "t": 13043.489999999996,
      "d": 212.86251041666583,
      "v": 100
    },
    {
      "midi": 77,
      "hit": false,
      "t": 13043.490000000009,
      "d": 208.33352083333375,
      "v": 99
    },
    {
      "midi": 38,
      "hit": false,
      "t": 13152.185749999973,
      "d": 99.63777083333298,
      "v": 99
    },
    {
      "midi": 38,
      "hit": false,
      "t": 13260.881499999972,
      "d": 99.63777083333298,
      "v": 99
    },
    {
      "midi": 38,
      "hit": false,
      "t": 13369.577249999971,
      "d": 99.63777083333298,
      "v": 99
    },
    {
      "midi": 76,
      "hit": false,
      "t": 13369.57725000001,
      "d": 208.33352083333375,
      "v": 99
    },
    {
      "midi": 60,
      "hit": false,
      "t": 13478.272999999996,
      "d": 212.86251041666583,
      "v": 100
    },
    {
      "midi": 38,
      "hit": false,
      "t": 13586.96874999997,
      "d": 99.63777083333298,
      "v": 99
    },
    {
      "midi": 38,
      "hit": false,
      "t": 13695.66449999997,
      "d": 99.63777083333298,
      "v": 99
    },
    {
      "midi": 71,
      "hit": false,
      "t": 13695.66450000001,
      "d": 99.63777083333298,
      "v": 99
    },
    {
      "midi": 38,
      "hit": false,
      "t": 13804.360249999969,
      "d": 99.63777083333298,
      "v": 99
    },
    {
      "midi": 69,
      "hit": false,
      "t": 13804.360250000009,
      "d": 99.63777083333298,
      "v": 99
    },
    {
      "midi": 41,
      "hit": false,
      "t": 13913.056000000002,
      "d": 3469.2060208333332,
      "v": 99
    },
    {
      "midi": 60,
      "hit": false,
      "t": 13913.056000000002,
      "d": 1730.0740208333336,
      "v": 99
    },
    {
      "midi": 53,
      "hit": false,
      "t": 13913.056000000002,
      "d": 3469.2060208333332,
      "v": 99
    },
    {
      "midi": 72,
      "hit": false,
      "t": 13913.056000000008,
      "d": 208.33352083333375,
      "v": 99
    },
    {
      "midi": 72,
      "hit": false,
      "t": 14239.143250000008,
      "d": 208.33352083333375,
      "v": 99
    },
    {
      "midi": 72,
      "hit": false,
      "t": 14565.230500000009,
      "d": 208.33352083333375,
      "v": 99
    },
    {
      "midi": 72,
      "hit": false,
      "t": 14891.31775000001,
      "d": 208.33352083333375,
      "v": 99
    },
    {
      "midi": 72,
      "hit": false,
      "t": 15217.40500000001,
      "d": 99.63777083333298,
      "v": 99
    },
    {
      "midi": 62,
      "hit": false,
      "t": 15652.188000000002,
      "d": 1730.0740208333336,
      "v": 99
    },
    {
      "midi": 72,
      "hit": false,
      "t": 15652.18800000001,
      "d": 208.33352083333375,
      "v": 99
    },
    {
      "midi": 72,
      "hit": false,
      "t": 15978.27525000001,
      "d": 208.33352083333375,
      "v": 99
    },
    {
      "midi": 72,
      "hit": false,
      "t": 16304.36250000001,
      "d": 208.33352083333375,
      "v": 99
    },
    {
      "midi": 72,
      "hit": false,
      "t": 16630.44975000001,
      "d": 208.33352083333375,
      "v": 99
    },
    {
      "midi": 72,
      "hit": false,
      "t": 16956.53700000001,
      "d": 99.6377708333348,
      "v": 99
    },
    {
      "midi": 45,
      "hit": false,
      "t": 17391.320000000003,
      "d": 3469.206020833335,
      "v": 99
    },
    {
      "midi": 57,
      "hit": false,
      "t": 17391.320000000003,
      "d": 3469.206020833335,
      "v": 99
    },
    {
      "midi": 64,
      "hit": false,
      "t": 17391.320000000003,
      "d": 3469.206020833335,
      "v": 99
    },
    {
      "midi": 72,
      "hit": false,
      "t": 17391.320000000014,
      "d": 208.33352083333375,
      "v": 99
    },
    {
      "midi": 72,
      "hit": false,
      "t": 17717.407250000015,
      "d": 208.33352083333375,
      "v": 99
    },
    {
      "midi": 72,
      "hit": false,
      "t": 18043.494500000015,
      "d": 208.33352083333375,
      "v": 99
    },
    {
      "midi": 72,
      "hit": false,
      "t": 18369.581750000016,
      "d": 208.33352083333375,
      "v": 99
    },
    {
      "midi": 72,
      "hit": false,
      "t": 18695.669000000016,
      "d": 99.6377708333348,
      "v": 99
    },
    {
      "midi": 72,
      "hit": false,
      "t": 19130.45200000002,
      "d": 208.33352083333375,
      "v": 99
    },
    {
      "midi": 72,
      "hit": false,
      "t": 19456.53925000002,
      "d": 208.33352083333375,
      "v": 99
    },
    {
      "midi": 72,
      "hit": false,
      "t": 19782.62650000002,
      "d": 208.33352083333375,
      "v": 99
    },
    {
      "midi": 72,
      "hit": false,
      "t": 20108.71375000002,
      "d": 208.33352083333375,
      "v": 99
    },
    {
      "midi": 72,
      "hit": false,
      "t": 20434.80100000002,
      "d": 99.6377708333348,
      "v": 99
    },
    {
      "midi": 40,
      "hit": false,
      "t": 20869.584000000006,
      "d": 3469.206020833335,
      "v": 99
    },
    {
      "midi": 67,
      "hit": false,
      "t": 20869.584000000006,
      "d": 1730.0740208333336,
      "v": 99
    },
    {
      "midi": 52,
      "hit": false,
      "t": 20869.584000000006,
      "d": 3469.206020833335,
      "v": 99
    },
    {
      "midi": 72,
      "hit": false,
      "t": 20869.584000000024,
      "d": 208.33352083333375,
      "v": 99
    },
    {
      "midi": 72,
      "hit": false,
      "t": 21195.671250000025,
      "d": 208.33352083333375,
      "v": 99
    },
    {
      "midi": 72,
      "hit": false,
      "t": 21521.758500000025,
      "d": 208.33352083333375,
      "v": 99
    },
    {
      "midi": 72,
      "hit": false,
      "t": 21847.845750000026,
      "d": 208.33352083333375,
      "v": 99
    },
    {
      "midi": 72,
      "hit": false,
      "t": 22173.933000000026,
      "d": 99.6377708333348,
      "v": 99
    },
    {
      "midi": 62,
      "hit": false,
      "t": 22608.716000000008,
      "d": 1730.0740208333336,
      "v": 99
    },
    {
      "midi": 72,
      "hit": false,
      "t": 22608.71600000003,
      "d": 208.33352083333375,
      "v": 99
    },
    {
      "midi": 72,
      "hit": false,
      "t": 22934.80325000003,
      "d": 208.33352083333375,
      "v": 99
    },
    {
      "midi": 72,
      "hit": false,
      "t": 23260.89050000003,
      "d": 208.33352083333375,
      "v": 99
    },
    {
      "midi": 72,
      "hit": false,
      "t": 23586.97775000003,
      "d": 208.33352083333375,
      "v": 99
    },
    {
      "midi": 72,
      "hit": false,
      "t": 23913.06500000003,
      "d": 99.6377708333348,
      "v": 99
    },
    {
      "midi": 41,
      "hit": false,
      "t": 24347.84800000001,
      "d": 1730.0740208333336,
      "v": 99
    },
    {
      "midi": 53,
      "hit": false,
      "t": 24347.84800000001,
      "d": 1730.0740208333336,
      "v": 99
    },
    {
      "midi": 69,
      "hit": false,
      "t": 24347.84800000001,
      "d": 3469.206020833335,
      "v": 99
    },
    {
      "midi": 72,
      "hit": false,
      "t": 24347.848000000035,
      "d": 208.33352083333375,
      "v": 99
    },
    {
      "midi": 72,
      "hit": false,
      "t": 24673.935250000035,
      "d": 208.33352083333375,
      "v": 99
    },
    {
      "midi": 72,
      "hit": false,
      "t": 25000.022500000036,
      "d": 208.33352083333375,
      "v": 99
    },
    {
      "midi": 72,
      "hit": false,
      "t": 25326.109750000036,
      "d": 208.33352083333375,
      "v": 99
    },
    {
      "midi": 72,
      "hit": false,
      "t": 25652.197000000036,
      "d": 99.6377708333348,
      "v": 99
    },
    {
      "midi": 38,
      "hit": false,
      "t": 26086.98000000001,
      "d": 1730.0740208333336,
      "v": 99
    },
    {
      "midi": 50,
      "hit": false,
      "t": 26086.98000000001,
      "d": 1730.0740208333336,
      "v": 99
    },
    {
      "midi": 72,
      "hit": false,
      "t": 26086.98000000004,
      "d": 208.33352083333375,
      "v": 99
    },
    {
      "midi": 72,
      "hit": false,
      "t": 26413.06725000004,
      "d": 208.33352083333375,
      "v": 99
    },
    {
      "midi": 72,
      "hit": false,
      "t": 26739.15450000004,
      "d": 208.33352083333375,
      "v": 99
    },
    {
      "midi": 72,
      "hit": false,
      "t": 27065.24175000004,
      "d": 208.33352083333375,
      "v": 99
    },
    {
      "midi": 72,
      "hit": false,
      "t": 27391.32900000004,
      "d": 99.6377708333348,
      "v": 99
    },
    {
      "midi": 60,
      "hit": false,
      "t": 27826.111999999997,
      "d": 212.86251041666765,
      "v": 100
    },
    {
      "midi": 60,
      "hit": false,
      "t": 27826.112000000012,
      "d": 1730.0740208333336,
      "v": 99
    },
    {
      "midi": 53,
      "hit": false,
      "t": 27826.112000000012,
      "d": 3469.206020833335,
      "v": 99
    },
    {
      "midi": 72,
      "hit": false,
      "t": 27826.112000000045,
      "d": 208.33352083333375,
      "v": 99
    },
    {
      "midi": 41,
      "hit": false,
      "t": 27934.80774999997,
      "d": 99.6377708333348,
      "v": 99
    },
    {
      "midi": 41,
      "hit": false,
      "t": 28043.503499999973,
      "d": 99.6377708333348,
      "v": 99
    },
    {
      "midi": 41,
      "hit": false,
      "t": 28152.199249999976,
      "d": 99.6377708333348,
      "v": 99
    },
    {
      "midi": 72,
      "hit": false,
      "t": 28152.199250000045,
      "d": 208.33352083333375,
      "v": 99
    },
    {
      "midi": 60,
      "hit": false,
      "t": 28260.894999999997,
      "d": 212.86251041666765,
      "v": 100
    },
    {
      "midi": 41,
      "hit": false,
      "t": 28369.590749999978,
      "d": 99.6377708333348,
      "v": 99
    },
    {
      "midi": 41,
      "hit": false,
      "t": 28478.28649999998,
      "d": 99.6377708333348,
      "v": 99
    },
    {
      "midi": 72,
      "hit": false,
      "t": 28478.286500000046,
      "d": 208.33352083333375,
      "v": 99
    },
    {
      "midi": 41,
      "hit": false,
      "t": 28586.982249999983,
      "d": 99.6377708333348,
      "v": 99
    },
    {
      "midi": 60,
      "hit": false,
      "t": 28695.677999999996,
      "d": 212.86251041666765,
      "v": 100
    },
    {
      "midi": 41,
      "hit": false,
      "t": 28804.373749999984,
      "d": 99.6377708333348,
      "v": 99
    },
    {
      "midi": 72,
      "hit": false,
      "t": 28804.373750000046,
      "d": 208.33352083333375,
      "v": 99
    },
    {
      "midi": 41,
      "hit": false,
      "t": 28913.069499999987,
      "d": 99.6377708333348,
      "v": 99
    },
    {
      "midi": 41,
      "hit": false,
      "t": 29021.76524999999,
      "d": 99.6377708333348,
      "v": 99
    },
    {
      "midi": 60,
      "hit": false,
      "t": 29130.460999999996,
      "d": 212.86251041666765,
      "v": 100
    },
    {
      "midi": 72,
      "hit": false,
      "t": 29130.461000000047,
      "d": 99.6377708333348,
      "v": 99
    },
    {
      "midi": 41,
      "hit": false,
      "t": 29239.15674999999,
      "d": 99.6377708333348,
      "v": 99
    },
    {
      "midi": 41,
      "hit": false,
      "t": 29347.852499999994,
      "d": 99.6377708333348,
      "v": 99
    },
    {
      "midi": 69,
      "hit": false,
      "t": 29347.852500000048,
      "d": 208.33352083333375,
      "v": 99
    },
    {
      "midi": 41,
      "hit": false,
      "t": 29456.548249999996,
      "d": 99.6377708333348,
      "v": 99
    },
    {
      "midi": 60,
      "hit": false,
      "t": 29565.243999999995,
      "d": 212.86251041666765,
      "v": 100
    },
    {
      "midi": 62,
      "hit": false,
      "t": 29565.244000000013,
      "d": 1730.0740208333336,
      "v": 99
    },
    {
      "midi": 65,
      "hit": false,
      "t": 29565.24400000005,
      "d": 208.33352083333375,
      "v": 99
    },
    {
      "midi": 41,
      "hit": false,
      "t": 29673.939749999998,
      "d": 99.6377708333348,
      "v": 99
    },
    {
      "midi": 41,
      "hit": false,
      "t": 29782.6355,
      "d": 99.6377708333348,
      "v": 99
    },
    {
      "midi": 41,
      "hit": false,
      "t": 29891.331250000003,
      "d": 99.6377708333348,
      "v": 99
    },
    {
      "midi": 65,
      "hit": false,
      "t": 29891.33125000005,
      "d": 208.33352083333375,
      "v": 99
    },
    {
      "midi": 60,
      "hit": false,
      "t": 30000.026999999995,
      "d": 212.86251041666765,
      "v": 100
    },
    {
      "midi": 41,
      "hit": false,
      "t": 30108.722750000004,
      "d": 99.6377708333348,
      "v": 99
    },
    {
      "midi": 41,
      "hit": false,
      "t": 30217.418500000007,
      "d": 99.6377708333348,
      "v": 99
    },
    {
      "midi": 65,
      "hit": false,
      "t": 30217.41850000005,
      "d": 208.33352083333375,
      "v": 99
    },
    {
      "midi": 41,
      "hit": false,
      "t": 30326.11425000001,
      "d": 99.6377708333348,
      "v": 99
    },
    {
      "midi": 60,
      "hit": false,
      "t": 30434.809999999994,
      "d": 212.86251041666765,
      "v": 100
    },
    {
      "midi": 41,
      "hit": false,
      "t": 30543.50575000001,
      "d": 99.6377708333348,
      "v": 99
    },
    {
      "midi": 65,
      "hit": false,
      "t": 30543.50575000005,
      "d": 208.33352083333375,
      "v": 99
    },
    {
      "midi": 41,
      "hit": false,
      "t": 30652.201500000014,
      "d": 99.6377708333348,
      "v": 99
    },
    {
      "midi": 41,
      "hit": false,
      "t": 30760.897250000016,
      "d": 99.6377708333348,
      "v": 99
    },
    {
      "midi": 60,
      "hit": false,
      "t": 30869.592999999993,
      "d": 212.86251041666765,
      "v": 100
    },
    {
      "midi": 65,
      "hit": false,
      "t": 30869.59300000005,
      "d": 99.6377708333348,
      "v": 99
    },
    {
      "midi": 41,
      "hit": false,
      "t": 30978.288750000018,
      "d": 99.6377708333348,
      "v": 99
    },
    {
      "midi": 41,
      "hit": false,
      "t": 31086.98450000002,
      "d": 99.6377708333348,
      "v": 99
    },
    {
      "midi": 67,
      "hit": false,
      "t": 31086.984500000053,
      "d": 208.33352083333375,
      "v": 99
    },
    {
      "midi": 41,
      "hit": false,
      "t": 31195.680250000023,
      "d": 99.6377708333348,
      "v": 99
    },
    {
      "midi": 60,
      "hit": false,
      "t": 31304.375999999993,
      "d": 212.86251041666765,
      "v": 100
    },
    {
      "midi": 57,
      "hit": false,
      "t": 31304.376000000015,
      "d": 3469.2060208333314,
      "v": 99
    },
    {
      "midi": 64,
      "hit": false,
      "t": 31304.376000000015,
      "d": 3469.2060208333314,
      "v": 99
    },
    {
      "midi": 64,
      "hit": false,
      "t": 31304.376000000055,
      "d": 208.33352083333375,
      "v": 99
    },
    {
      "midi": 45,
      "hit": false,
      "t": 31413.071750000025,
      "d": 99.6377708333348,
      "v": 99
    },
    {
      "midi": 45,
      "hit": false,
      "t": 31521.767500000027,
      "d": 99.6377708333348,
      "v": 99
    },
    {
      "midi": 45,
      "hit": false,
      "t": 31630.46325000003,
      "d": 99.6377708333348,
      "v": 99
    },
    {
      "midi": 64,
      "hit": false,
      "t": 31630.463250000055,
      "d": 208.33352083333375,
      "v": 99
    },
    {
      "midi": 60,
      "hit": false,
      "t": 31739.158999999992,
      "d": 212.86251041666765,
      "v": 100
    },
    {
      "midi": 45,
      "hit": false,
      "t": 31847.85475000003,
      "d": 99.6377708333348,
      "v": 99
    },
    {
      "midi": 45,
      "hit": false,
      "t": 31956.550500000034,
      "d": 99.6377708333348,
      "v": 99
    },
    {
      "midi": 64,
      "hit": false,
      "t": 31956.550500000056,
      "d": 208.33352083333375,
      "v": 99
    },
    {
      "midi": 45,
      "hit": false,
      "t": 32065.246250000037,
      "d": 99.6377708333348,
      "v": 99
    },
    {
      "midi": 60,
      "hit": false,
      "t": 32173.941999999992,
      "d": 212.86251041666765,
      "v": 100
    },
    {
      "midi": 45,
      "hit": false,
      "t": 32282.637750000038,
      "d": 99.6377708333348,
      "v": 99
    },
    {
      "midi": 64,
      "hit": false,
      "t": 32282.637750000056,
      "d": 208.33352083333375,
      "v": 99
    },
    {
      "midi": 45,
      "hit": false,
      "t": 32391.33350000004,
      "d": 99.6377708333348,
      "v": 99
    },
    {
      "midi": 45,
      "hit": false,
      "t": 32500.029250000043,
      "d": 99.6377708333348,
      "v": 99
    },
    {
      "midi": 60,
      "hit": false,
      "t": 32608.72499999999,
      "d": 212.862510416664,
      "v": 100
    },
    {
      "midi": 64,
      "hit": false,
      "t": 32608.725000000057,
      "d": 208.3335208333301,
      "v": 99
    },
    {
      "midi": 45,
      "hit": false,
      "t": 32717.420750000045,
      "d": 99.6377708333348,
      "v": 99
    },
    {
      "midi": 45,
      "hit": false,
      "t": 32826.11650000005,
      "d": 99.63777083333116,
      "v": 99
    },
    {
      "midi": 69,
      "hit": false,
      "t": 32826.116500000055,
      "d": 208.3335208333301,
      "v": 99
    },
    {
      "midi": 45,
      "hit": false,
      "t": 32934.812250000046,
      "d": 99.63777083333116,
      "v": 99
    },
    {
      "midi": 60,
      "hit": false,
      "t": 33043.50799999999,
      "d": 212.862510416664,
      "v": 100
    },
    {
      "midi": 45,
      "hit": false,
      "t": 33152.203750000044,
      "d": 99.63777083333116,
      "v": 99
    },
    {
      "midi": 69,
      "hit": false,
      "t": 33152.20375000005,
      "d": 208.3335208333301,
      "v": 99
    },
    {
      "midi": 45,
      "hit": false,
      "t": 33260.89950000004,
      "d": 99.63777083333116,
      "v": 99
    },
    {
      "midi": 45,
      "hit": false,
      "t": 33369.59525000004,
      "d": 99.63777083333116,
      "v": 99
    },
    {
      "midi": 60,
      "hit": false,
      "t": 33478.29099999998,
      "d": 212.862510416664,
      "v": 100
    },
    {
      "midi": 69,
      "hit": false,
      "t": 33478.29100000005,
      "d": 208.3335208333301,
      "v": 99
    },
    {
      "midi": 45,
      "hit": false,
      "t": 33586.98675000004,
      "d": 99.63777083333116,
      "v": 99
    },
    {
      "midi": 45,
      "hit": false,
      "t": 33695.68250000004,
      "d": 99.63777083333116,
      "v": 99
    },
    {
      "midi": 45,
      "hit": false,
      "t": 33804.37825000004,
      "d": 99.63777083333116,
      "v": 99
    },
    {
      "midi": 69,
      "hit": false,
      "t": 33804.378250000045,
      "d": 208.3335208333301,
      "v": 99
    },
    {
      "midi": 60,
      "hit": false,
      "t": 33913.07399999998,
      "d": 212.862510416664,
      "v": 100
    },
    {
      "midi": 45,
      "hit": false,
      "t": 34021.769750000036,
      "d": 99.63777083333116,
      "v": 99
    },
    {
      "midi": 45,
      "hit": false,
      "t": 34130.465500000035,
      "d": 99.63777083333116,
      "v": 99
    },
    {
      "midi": 69,
      "hit": false,
      "t": 34130.46550000004,
      "d": 208.3335208333301,
      "v": 99
    },
    {
      "midi": 45,
      "hit": false,
      "t": 34239.161250000034,
      "d": 99.63777083333116,
      "v": 99
    },
    {
      "midi": 60,
      "hit": false,
      "t": 34347.856999999975,
      "d": 212.862510416664,
      "v": 100
    },
    {
      "midi": 67,
      "hit": false,
      "t": 34347.85700000004,
      "d": 99.63777083333116,
      "v": 99
    },
    {
      "midi": 45,
      "hit": false,
      "t": 34456.55275000003,
      "d": 99.63777083333116,
      "v": 99
    },
    {
      "midi": 69,
      "hit": false,
      "t": 34456.55275000004,
      "d": 99.63777083333116,
      "v": 99
    },
    {
      "midi": 45,
      "hit": false,
      "t": 34565.24850000003,
      "d": 99.63777083333116,
      "v": 99
    },
    {
      "midi": 71,
      "hit": false,
      "t": 34565.24850000004,
      "d": 99.63777083333116,
      "v": 99
    },
    {
      "midi": 45,
      "hit": false,
      "t": 34673.94425000003,
      "d": 99.63777083333116,
      "v": 99
    },
    {
      "midi": 72,
      "hit": false,
      "t": 34673.94425000004,
      "d": 99.63777083333116,
      "v": 99
    },
    {
      "midi": 60,
      "hit": false,
      "t": 34782.63999999997,
      "d": 212.862510416664,
      "v": 100
    },
    {
      "midi": 67,
      "hit": false,
      "t": 34782.640000000014,
      "d": 1730.07402083333,
      "v": 99
    },
    {
      "midi": 52,
      "hit": false,
      "t": 34782.640000000014,
      "d": 3469.206020833328,
      "v": 99
    },
    {
      "midi": 64,
      "hit": false,
      "t": 34782.640000000036,
      "d": 208.3335208333301,
      "v": 99
    },
    {
      "midi": 40,
      "hit": false,
      "t": 34891.33575000003,
      "d": 99.63777083333116,
      "v": 99
    },
    {
      "midi": 40,
      "hit": false,
      "t": 35000.03150000003,
      "d": 99.63777083333116,
      "v": 99
    },
    {
      "midi": 40,
      "hit": false,
      "t": 35108.727250000025,
      "d": 99.63777083333116,
      "v": 99
    },
    {
      "midi": 64,
      "hit": false,
      "t": 35108.72725000003,
      "d": 208.3335208333301,
      "v": 99
    },
    {
      "midi": 60,
      "hit": false,
      "t": 35217.422999999966,
      "d": 212.862510416664,
      "v": 100
    },
    {
      "midi": 40,
      "hit": false,
      "t": 35326.11875000002,
      "d": 99.63777083333116,
      "v": 99
    },
    {
      "midi": 40,
      "hit": false,
      "t": 35434.81450000002,
      "d": 99.63777083333116,
      "v": 99
    },
    {
      "midi": 64,
      "hit": false,
      "t": 35434.81450000003,
      "d": 208.3335208333301,
      "v": 99
    },
    {
      "midi": 40,
      "hit": false,
      "t": 35543.51025000002,
      "d": 99.63777083333116,
      "v": 99
    },
    {
      "midi": 60,
      "hit": false,
      "t": 35652.20599999996,
      "d": 212.862510416664,
      "v": 100
    },
    {
      "midi": 40,
      "hit": false,
      "t": 35760.90175000002,
      "d": 99.63777083333116,
      "v": 99
    },
    {
      "midi": 64,
      "hit": false,
      "t": 35760.90175000003,
      "d": 208.3335208333301,
      "v": 99
    },
    {
      "midi": 40,
      "hit": false,
      "t": 35869.59750000002,
      "d": 99.63777083333116,
      "v": 99
    },
    {
      "midi": 40,
      "hit": false,
      "t": 35978.29325000002,
      "d": 99.63777083333116,
      "v": 99
    },
    {
      "midi": 60,
      "hit": false,
      "t": 36086.98899999996,
      "d": 212.862510416664,
      "v": 100
    },
    {
      "midi": 64,
      "hit": false,
      "t": 36086.98900000002,
      "d": 99.63777083333116,
      "v": 99
    },
    {
      "midi": 40,
      "hit": false,
      "t": 36195.684750000015,
      "d": 99.63777083333116,
      "v": 99
    },
    {
      "midi": 40,
      "hit": false,
      "t": 36304.380500000014,
      "d": 99.63777083333116,
      "v": 99
    },
    {
      "midi": 62,
      "hit": false,
      "t": 36304.38050000002,
      "d": 208.3335208333301,
      "v": 99
    },
    {
      "midi": 40,
      "hit": false,
      "t": 36413.07625000001,
      "d": 99.63777083333116,
      "v": 99
    },
    {
      "midi": 60,
      "hit": false,
      "t": 36521.77199999995,
      "d": 212.862510416664,
      "v": 100
    },
    {
      "midi": 62,
      "hit": false,
      "t": 36521.77200000001,
      "d": 1730.07402083333,
      "v": 99
    },
    {
      "midi": 67,
      "hit": false,
      "t": 36521.77200000002,
      "d": 208.3335208333301,
      "v": 99
    },
    {
      "midi": 40,
      "hit": false,
      "t": 36630.46775000001,
      "d": 99.63777083333116,
      "v": 99
    },
    {
      "midi": 40,
      "hit": false,
      "t": 36739.16350000001,
      "d": 99.63777083333116,
      "v": 99
    },
    {
      "midi": 40,
      "hit": false,
      "t": 36847.85925000001,
      "d": 99.63777083333116,
      "v": 99
    },
    {
      "midi": 67,
      "hit": false,
      "t": 36847.859250000016,
      "d": 208.3335208333301,
      "v": 99
    },
    {
      "midi": 60,
      "hit": false,
      "t": 36956.55499999995,
      "d": 212.862510416664,
      "v": 100
    },
    {
      "midi": 40,
      "hit": false,
      "t": 37065.25075000001,
      "d": 99.63777083333116,
      "v": 99
    },
    {
      "midi": 40,
      "hit": false,
      "t": 37173.946500000005,
      "d": 99.63777083333116,
      "v": 99
    },
    {
      "midi": 67,
      "hit": false,
      "t": 37173.94650000001,
      "d": 208.3335208333301,
      "v": 99
    },
    {
      "midi": 40,
      "hit": false,
      "t": 37282.642250000004,
      "d": 99.63777083333116,
      "v": 99
    },
    {
      "midi": 60,
      "hit": false,
      "t": 37391.337999999945,
      "d": 212.862510416664,
      "v": 100
    },
    {
      "midi": 40,
      "hit": false,
      "t": 37500.03375,
      "d": 99.63777083333116,
      "v": 99
    },
    {
      "midi": 67,
      "hit": false,
      "t": 37500.03375000001,
      "d": 208.3335208333301,
      "v": 99
    },
    {
      "midi": 40,
      "hit": false,
      "t": 37608.7295,
      "d": 99.63777083333116,
      "v": 99
    },
    {
      "midi": 40,
      "hit": false,
      "t": 37717.42525,
      "d": 99.63777083333116,
      "v": 99
    },
    {
      "midi": 60,
      "hit": false,
      "t": 37826.12099999994,
      "d": 212.862510416664,
      "v": 100
    },
    {
      "midi": 72,
      "hit": false,
      "t": 37826.12100000001,
      "d": 208.3335208333301,
      "v": 99
    },
    {
      "midi": 40,
      "hit": false,
      "t": 37934.81675,
      "d": 99.63777083333116,
      "v": 99
    },
    {
      "midi": 40,
      "hit": false,
      "t": 38043.5125,
      "d": 99.63777083333116,
      "v": 99
    },
    {
      "midi": 71,
      "hit": false,
      "t": 38043.512500000004,
      "d": 208.3335208333301,
      "v": 99
    },
    {
      "midi": 40,
      "hit": false,
      "t": 38152.208249999996,
      "d": 99.63777083333116,
      "v": 99
    },
    {
      "midi": 60,
      "hit": false,
      "t": 38260.90399999994,
      "d": 212.862510416664,
      "v": 100
    },
    {
      "midi": 69,
      "hit": false,
      "t": 38260.904,
      "d": 208.3335208333301,
      "v": 99
    },
    {
      "midi": 53,
      "hit": false,
      "t": 38260.90400000001,
      "d": 1730.07402083333,
      "v": 99
    },
    {
      "midi": 69,
      "hit": false,
      "t": 38260.90400000001,
      "d": 3469.206020833328,
      "v": 99
    },
    {
      "midi": 41,
      "hit": false,
      "t": 38369.599749999994,
      "d": 99.63777083333116,
      "v": 99
    },
    {
      "midi": 41,
      "hit": false,
      "t": 38478.29549999999,
      "d": 99.63777083333116,
      "v": 99
    },
    {
      "midi": 41,
      "hit": false,
      "t": 38586.99124999999,
      "d": 99.63777083333116,
      "v": 99
    },
    {
      "midi": 69,
      "hit": false,
      "t": 38586.99125,
      "d": 208.3335208333301,
      "v": 99
    },
    {
      "midi": 60,
      "hit": false,
      "t": 38695.68699999993,
      "d": 212.862510416664,
      "v": 100
    },
    {
      "midi": 41,
      "hit": false,
      "t": 38804.38274999999,
      "d": 99.63777083333116,
      "v": 99
    },
    {
      "midi": 41,
      "hit": false,
      "t": 38913.07849999999,
      "d": 99.63777083333116,
      "v": 99
    },
    {
      "midi": 69,
      "hit": false,
      "t": 38913.078499999996,
      "d": 208.3335208333301,
      "v": 99
    },
    {
      "midi": 41,
      "hit": false,
      "t": 39021.77424999999,
      "d": 99.63777083333116,
      "v": 99
    },
    {
      "midi": 60,
      "hit": false,
      "t": 39130.46999999993,
      "d": 212.862510416664,
      "v": 100
    },
    {
      "midi": 41,
      "hit": false,
      "t": 39239.165749999986,
      "d": 99.63777083333116,
      "v": 99
    },
    {
      "midi": 69,
      "hit": false,
      "t": 39239.16574999999,
      "d": 208.3335208333301,
      "v": 99
    },
    {
      "midi": 41,
      "hit": false,
      "t": 39347.861499999985,
      "d": 99.63777083333116,
      "v": 99
    },
    {
      "midi": 41,
      "hit": false,
      "t": 39456.55724999998,
      "d": 99.63777083333116,
      "v": 99
    },
    {
      "midi": 60,
      "hit": false,
      "t": 39565.252999999924,
      "d": 212.862510416664,
      "v": 100
    },
    {
      "midi": 69,
      "hit": false,
      "t": 39565.25299999999,
      "d": 99.63777083333116,
      "v": 99
    },
    {
      "midi": 41,
      "hit": false,
      "t": 39673.94874999998,
      "d": 99.63777083333116,
      "v": 99
    },
    {
      "midi": 41,
      "hit": false,
      "t": 39782.64449999998,
      "d": 99.63777083333116,
      "v": 99
    },
    {
      "midi": 76,
      "hit": false,
      "t": 39782.64449999999,
      "d": 208.3335208333301,
      "v": 99
    },
    {
      "midi": 41,
      "hit": false,
      "t": 39891.34024999998,
      "d": 99.63777083333116,
      "v": 99
    },
    {
      "midi": 60,
      "hit": false,
      "t": 40000.03599999992,
      "d": 212.862510416664,
      "v": 100
    },
    {
      "midi": 74,
      "hit": false,
      "t": 40000.035999999986,
      "d": 208.3335208333301,
      "v": 99
    },
    {
      "midi": 50,
      "hit": false,
      "t": 40000.03600000001,
      "d": 1730.07402083333,
      "v": 99
    },
    {
      "midi": 38,
      "hit": false,
      "t": 40108.73174999998,
      "d": 99.63777083333116,
      "v": 99
    },
    {
      "midi": 38,
      "hit": false,
      "t": 40217.427499999976,
      "d": 99.63777083333116,
      "v": 99
    },
    {
      "midi": 38,
      "hit": false,
      "t": 40326.123249999975,
      "d": 99.63777083333116,
      "v": 99
    },
    {
      "midi": 74,
      "hit": false,
      "t": 40326.12324999998,
      "d": 208.3335208333301,
      "v": 99
    },
    {
      "midi": 60,
      "hit": false,
      "t": 40434.818999999916,
      "d": 212.862510416664,
      "v": 100
    },
    {
      "midi": 38,
      "hit": false,
      "t": 40543.51474999997,
      "d": 99.63777083333116,
      "v": 99
    },
    {
      "midi": 38,
      "hit": false,
      "t": 40652.21049999997,
      "d": 99.63777083333116,
      "v": 99
    },
    {
      "midi": 72,
      "hit": false,
      "t": 40652.21049999998,
      "d": 208.3335208333301,
      "v": 99
    },
    {
      "midi": 38,
      "hit": false,
      "t": 40760.90624999997,
      "d": 99.63777083333116,
      "v": 99
    },
    {
      "midi": 60,
      "hit": false,
      "t": 40869.60199999991,
      "d": 212.862510416664,
      "v": 100
    },
    {
      "midi": 77,
      "hit": false,
      "t": 40869.60199999998,
      "d": 208.3335208333301,
      "v": 99
    },
    {
      "midi": 38,
      "hit": false,
      "t": 40978.29774999997,
      "d": 99.63777083333116,
      "v": 99
    },
    {
      "midi": 38,
      "hit": false,
      "t": 41086.99349999997,
      "d": 99.63777083333116,
      "v": 99
    },
    {
      "midi": 38,
      "hit": false,
      "t": 41195.68924999997,
      "d": 99.63777083333116,
      "v": 99
    },
    {
      "midi": 76,
      "hit": false,
      "t": 41195.689249999974,
      "d": 208.3335208333301,
      "v": 99
    },
    {
      "midi": 60,
      "hit": false,
      "t": 41304.38499999991,
      "d": 212.862510416664,
      "v": 100
    },
    {
      "midi": 38,
      "hit": false,
      "t": 41413.080749999965,
      "d": 99.63777083333116,
      "v": 99
    },
    {
      "midi": 38,
      "hit": false,
      "t": 41521.77649999996,
      "d": 99.63777083333116,
      "v": 99
    },
    {
      "midi": 71,
      "hit": false,
      "t": 41521.77649999997,
      "d": 99.63777083333116,
      "v": 99
    },
    {
      "midi": 38,
      "hit": false,
      "t": 41630.47224999996,
      "d": 99.63777083333116,
      "v": 99
    },
    {
      "midi": 69,
      "hit": false,
      "t": 41630.47224999997,
      "d": 99.63777083333116,
      "v": 99
    }
  ]
}