{
  "jsonPath": "Rap/Pop Rap/Fergie/blackeye-p.json",
  "path": "Rap\\Pop Rap\\Fergie\\Blackeye-P.mid",
  "name": "Blackeye-P",
  "difficulty": "Advanced",
  "bpm": 124.49992530004482,
  "notes": [
    {
      "midi": 27,
      "hit": false,
      "t": 0,
      "d": 86.34543333333333,
      "v": 92
    },
    {
      "midi": 39,
      "hit": false,
      "t": 120.482,
      "d": 230.92383333333336,
      "v": 79
    },
    {
      "midi": 27,
      "hit": false,
      "t": 361.446,
      "d": 76.30526666666668,
      "v": 81
    },
    {
      "midi": 39,
      "hit": false,
      "t": 481.92800000000005,
      "d": 257.02826666666664,
      "v": 106
    },
    {
      "midi": 27,
      "hit": false,
      "t": 722.892,
      "d": 83.33338333333336,
      "v": 92
    },
    {
      "midi": 39,
      "hit": false,
      "t": 843.374,
      "d": 247.99211666666656,
      "v": 75
    },
    {
      "midi": 27,
      "hit": false,
      "t": 1084.338,
      "d": 100.40166666666664,
      "v": 89
    },
    {
      "midi": 39,
      "hit": false,
      "t": 1204.82,
      "d": 246.98810000000003,
      "v": 89
    },
    {
      "midi": 25,
      "hit": false,
      "t": 1445.7839999999999,
      "d": 233.93588333333332,
      "v": 89
    },
    {
      "midi": 37,
      "hit": false,
      "t": 1686.7479999999998,
      "d": 272.0885166666667,
      "v": 92
    },
    {
      "midi": 27,
      "hit": false,
      "t": 1927.7119999999998,
      "d": 113.45388333333335,
      "v": 92
    },
    {
      "midi": 39,
      "hit": false,
      "t": 2048.194,
      "d": 261.04433333333327,
      "v": 95
    },
    {
      "midi": 27,
      "hit": false,
      "t": 2289.158,
      "d": 92.3695333333335,
      "v": 84
    },
    {
      "midi": 39,
      "hit": false,
      "t": 2409.64,
      "d": 256.02424999999994,
      "v": 86
    },
    {
      "midi": 27,
      "hit": false,
      "t": 2650.604,
      "d": 104.41773333333322,
      "v": 89
    },
    {
      "midi": 39,
      "hit": false,
      "t": 2771.086,
      "d": 272.0885166666667,
      "v": 89
    },
    {
      "midi": 27,
      "hit": false,
      "t": 3012.0499999999997,
      "d": 91.36551666666674,
      "v": 95
    },
    {
      "midi": 39,
      "hit": false,
      "t": 3132.5319999999997,
      "d": 261.04433333333327,
      "v": 92
    },
    {
      "midi": 25,
      "hit": false,
      "t": 3373.4959999999996,
      "d": 220.8836666666666,
      "v": 98
    },
    {
      "midi": 37,
      "hit": false,
      "t": 3614.4599999999996,
      "d": 177.71095000000014,
      "v": 84
    },
    {
      "midi": 27,
      "hit": false,
      "t": 3855.4239999999995,
      "d": 86.3454333333334,
      "v": 92
    },
    {
      "midi": 39,
      "hit": false,
      "t": 3975.9059999999995,
      "d": 230.92383333333373,
      "v": 79
    },
    {
      "midi": 27,
      "hit": false,
      "t": 4216.87,
      "d": 76.30526666666628,
      "v": 81
    },
    {
      "midi": 39,
      "hit": false,
      "t": 4337.352,
      "d": 257.02826666666624,
      "v": 106
    },
    {
      "midi": 27,
      "hit": false,
      "t": 4578.316,
      "d": 83.33338333333268,
      "v": 92
    },
    {
      "midi": 39,
      "hit": false,
      "t": 4698.797999999999,
      "d": 247.99211666666633,
      "v": 75
    },
    {
      "midi": 27,
      "hit": false,
      "t": 4939.761999999999,
      "d": 100.40166666666664,
      "v": 89
    },
    {
      "midi": 39,
      "hit": false,
      "t": 5060.243999999999,
      "d": 246.98809999999958,
      "v": 89
    },
    {
      "midi": 25,
      "hit": false,
      "t": 5301.207999999999,
      "d": 233.93588333333264,
      "v": 89
    },
    {
      "midi": 37,
      "hit": false,
      "t": 5542.171999999998,
      "d": 272.0885166666667,
      "v": 92
    },
    {
      "midi": 27,
      "hit": false,
      "t": 5783.135999999998,
      "d": 113.45388333333358,
      "v": 92
    },
    {
      "midi": 39,
      "hit": false,
      "t": 5903.617999999998,
      "d": 261.04433333333327,
      "v": 95
    },
    {
      "midi": 27,
      "hit": false,
      "t": 6144.581999999998,
      "d": 92.3695333333335,
      "v": 84
    },
    {
      "midi": 39,
      "hit": false,
      "t": 6265.063999999998,
      "d": 256.0242500000004,
      "v": 86
    },
    {
      "midi": 27,
      "hit": false,
      "t": 6506.0279999999975,
      "d": 104.41773333333367,
      "v": 89
    },
    {
      "midi": 39,
      "hit": false,
      "t": 6626.5099999999975,
      "d": 272.0885166666667,
      "v": 89
    },
    {
      "midi": 27,
      "hit": false,
      "t": 6867.473999999997,
      "d": 91.36551666666674,
      "v": 95
    },
    {
      "midi": 39,
      "hit": false,
      "t": 6987.955999999997,
      "d": 261.04433333333327,
      "v": 92
    },
    {
      "midi": 25,
      "hit": false,
      "t": 7228.919999999997,
      "d": 220.8836666666666,
      "v": 98
    },
    {
      "midi": 37,
      "hit": false,
      "t": 7469.883999999997,
      "d": 177.71094999999968,
      "v": 84
    },
    {
      "midi": 27,
      "hit": false,
      "t": 7710.847999999997,
      "d": 86.34543333333295,
      "v": 92
    },
    {
      "midi": 39,
      "hit": false,
      "t": 7831.329999999997,
      "d": 230.92383333333328,
      "v": 79
    },
    {
      "midi": 70,
      "hit": false,
      "t": 7951.811999999997,
      "d": 99.39764999999989,
      "v": 69
    },
    {
      "midi": 68,
      "hit": false,
      "t": 7951.811999999997,
      "d": 111.44585000000006,
      "v": 58
    },
    {
      "midi": 75,
      "hit": false,
      "t": 7951.811999999997,
      "d": 118.47396666666646,
      "v": 69
    },
    {
      "midi": 27,
      "hit": false,
      "t": 8072.293999999997,
      "d": 76.30526666666628,
      "v": 81
    },
    {
      "midi": 39,
      "hit": false,
      "t": 8192.775999999996,
      "d": 257.02826666666806,
      "v": 106
    },
    {
      "midi": 70,
      "hit": false,
      "t": 8313.257999999996,
      "d": 110.44183333333422,
      "v": 58
    },
    {
      "midi": 75,
      "hit": false,
      "t": 8313.257999999996,
      "d": 110.44183333333422,
      "v": 40
    },
    {
      "midi": 68,
      "hit": false,
      "t": 8313.257999999996,
      "d": 118.47396666666828,
      "v": 45
    },
    {
      "midi": 27,
      "hit": false,
      "t": 8433.739999999998,
      "d": 83.33338333333268,
      "v": 92
    },
    {
      "midi": 39,
      "hit": false,
      "t": 8554.221999999998,
      "d": 247.99211666666451,
      "v": 75
    },
    {
      "midi": 70,
      "hit": false,
      "t": 8674.703999999998,
      "d": 116.46593333333294,
      "v": 67
    },
    {
      "midi": 68,
      "hit": false,
      "t": 8674.703999999998,
      "d": 117.46994999999879,
      "v": 57
    },
    {
      "midi": 75,
      "hit": false,
      "t": 8674.703999999998,
      "d": 117.46994999999879,
      "v": 60
    },
    {
      "midi": 27,
      "hit": false,
      "t": 8795.185999999996,
      "d": 100.40166666666664,
      "v": 89
    },
    {
      "midi": 39,
      "hit": false,
      "t": 8915.667999999996,
      "d": 246.9881000000005,
      "v": 89
    },
    {
      "midi": 68,
      "hit": false,
      "t": 9036.149999999996,
      "d": 113.45388333333358,
      "v": 50
    },
    {
      "midi": 70,
      "hit": false,
      "t": 9036.149999999996,
      "d": 117.46995000000061,
      "v": 54
    },
    {
      "midi": 75,
      "hit": false,
      "t": 9036.149999999996,
      "d": 134.53823333333457,
      "v": 53
    },
    {
      "midi": 25,
      "hit": false,
      "t": 9156.631999999996,
      "d": 233.93588333333537,
      "v": 89
    },
    {
      "midi": 37,
      "hit": false,
      "t": 9397.595999999998,
      "d": 272.0885166666667,
      "v": 92
    },
    {
      "midi": 66,
      "hit": false,
      "t": 9397.595999999998,
      "d": 2165.66395,
      "v": 62
    },
    {
      "midi": 73,
      "hit": false,
      "t": 9397.595999999998,
      "d": 2174.7001,
      "v": 74
    },
    {
      "midi": 68,
      "hit": false,
      "t": 9397.595999999998,
      "d": 2180.7242000000006,
      "v": 69
    },
    {
      "midi": 27,
      "hit": false,
      "t": 9638.559999999998,
      "d": 113.45388333333358,
      "v": 92
    },
    {
      "midi": 39,
      "hit": false,
      "t": 9759.041999999998,
      "d": 261.04433333333327,
      "v": 95
    },
    {
      "midi": 27,
      "hit": false,
      "t": 10000.005999999998,
      "d": 92.36953333333258,
      "v": 84
    },
    {
      "midi": 39,
      "hit": false,
      "t": 10120.487999999998,
      "d": 256.0242500000004,
      "v": 86
    },
    {
      "midi": 27,
      "hit": false,
      "t": 10361.451999999997,
      "d": 104.41773333333367,
      "v": 89
    },
    {
      "midi": 39,
      "hit": false,
      "t": 10481.933999999997,
      "d": 272.0885166666667,
      "v": 89
    },
    {
      "midi": 27,
      "hit": false,
      "t": 10722.897999999997,
      "d": 91.36551666666674,
      "v": 95
    },
    {
      "midi": 39,
      "hit": false,
      "t": 10843.379999999997,
      "d": 261.04433333333327,
      "v": 92
    },
    {
      "midi": 25,
      "hit": false,
      "t": 11084.343999999997,
      "d": 220.8836666666666,
      "v": 98
    },
    {
      "midi": 37,
      "hit": false,
      "t": 11325.307999999997,
      "d": 177.7109500000006,
      "v": 84
    },
    {
      "midi": 27,
      "hit": false,
      "t": 11566.271999999997,
      "d": 86.34543333333386,
      "v": 92
    },
    {
      "midi": 63,
      "hit": false,
      "t": 11566.271999999997,
      "d": 3615.464016666667,
      "v": 69
    },
    {
      "midi": 39,
      "hit": false,
      "t": 11686.753999999997,
      "d": 230.9238333333342,
      "v": 79
    },
    {
      "midi": 80,
      "hit": false,
      "t": 11686.753999999997,
      "d": 3487.9539000000004,
      "v": 55
    },
    {
      "midi": 87,
      "hit": false,
      "t": 11686.753999999997,
      "d": 3502.010133333333,
      "v": 51
    },
    {
      "midi": 78,
      "hit": false,
      "t": 11686.753999999997,
      "d": 3516.066366666666,
      "v": 50
    },
    {
      "midi": 27,
      "hit": false,
      "t": 11927.717999999999,
      "d": 76.30526666666628,
      "v": 81
    },
    {
      "midi": 39,
      "hit": false,
      "t": 12048.199999999999,
      "d": 257.02826666666624,
      "v": 106
    },
    {
      "midi": 27,
      "hit": false,
      "t": 12289.163999999999,
      "d": 83.33338333333268,
      "v": 92
    },
    {
      "midi": 39,
      "hit": false,
      "t": 12409.645999999999,
      "d": 247.99211666666633,
      "v": 75
    },
    {
      "midi": 27,
      "hit": false,
      "t": 12650.609999999999,
      "d": 100.40166666666664,
      "v": 89
    },
    {
      "midi": 39,
      "hit": false,
      "t": 12771.091999999999,
      "d": 246.9881000000005,
      "v": 89
    },
    {
      "midi": 25,
      "hit": false,
      "t": 13012.055999999999,
      "d": 233.93588333333355,
      "v": 89
    },
    {
      "midi": 37,
      "hit": false,
      "t": 13253.019999999999,
      "d": 272.0885166666667,
      "v": 92
    },
    {
      "midi": 27,
      "hit": false,
      "t": 13493.983999999999,
      "d": 113.45388333333358,
      "v": 92
    },
    {
      "midi": 39,
      "hit": false,
      "t": 13614.465999999999,
      "d": 261.04433333333327,
      "v": 95
    },
    {
      "midi": 27,
      "hit": false,
      "t": 13855.429999999998,
      "d": 92.36953333333258,
      "v": 84
    },
    {
      "midi": 39,
      "hit": false,
      "t": 13975.911999999998,
      "d": 256.0242500000004,
      "v": 86
    },
    {
      "midi": 27,
      "hit": false,
      "t": 14216.875999999998,
      "d": 104.41773333333367,
      "v": 89
    },
    {
      "midi": 39,
      "hit": false,
      "t": 14337.357999999998,
      "d": 272.0885166666667,
      "v": 89
    },
    {
      "midi": 27,
      "hit": false,
      "t": 14578.321999999998,
      "d": 91.36551666666674,
      "v": 95
    },
    {
      "midi": 39,
      "hit": false,
      "t": 14698.803999999998,
      "d": 261.04433333333327,
      "v": 92
    },
    {
      "midi": 25,
      "hit": false,
      "t": 14939.767999999998,
      "d": 220.8836666666666,
      "v": 98
    },
    {
      "midi": 37,
      "hit": false,
      "t": 15180.731999999998,
      "d": 177.71094999999877,
      "v": 84
    },
    {
      "midi": 27,
      "hit": false,
      "t": 15421.695999999996,
      "d": 86.34543333333386,
      "v": 92
    },
    {
      "midi": 39,
      "hit": false,
      "t": 15542.177999999996,
      "d": 230.9238333333342,
      "v": 79
    },
    {
      "midi": 27,
      "hit": false,
      "t": 15783.141999999998,
      "d": 76.30526666666628,
      "v": 81
    },
    {
      "midi": 39,
      "hit": false,
      "t": 15903.623999999998,
      "d": 257.02826666666624,
      "v": 106
    },
    {
      "midi": 27,
      "hit": false,
      "t": 16144.587999999998,
      "d": 83.33338333333268,
      "v": 92
    },
    {
      "midi": 39,
      "hit": false,
      "t": 16265.069999999998,
      "d": 247.99211666666997,
      "v": 75
    },
    {
      "midi": 27,
      "hit": false,
      "t": 16506.034,
      "d": 100.40166666666846,
      "v": 89
    },
    {
      "midi": 39,
      "hit": false,
      "t": 16626.516000000003,
      "d": 246.98809999999867,
      "v": 89
    },
    {
      "midi": 25,
      "hit": false,
      "t": 16867.480000000003,
      "d": 233.93588333333173,
      "v": 89
    },
    {
      "midi": 37,
      "hit": false,
      "t": 17108.444000000003,
      "d": 272.0885166666667,
      "v": 92
    },
    {
      "midi": 27,
      "hit": false,
      "t": 17349.408000000003,
      "d": 113.45388333333176,
      "v": 92
    },
    {
      "midi": 39,
      "hit": false,
      "t": 17469.890000000003,
      "d": 261.0443333333351,
      "v": 95
    },
    {
      "midi": 27,
      "hit": false,
      "t": 17710.854000000003,
      "d": 92.3695333333344,
      "v": 84
    },
    {
      "midi": 39,
      "hit": false,
      "t": 17831.336000000003,
      "d": 256.0242499999986,
      "v": 86
    },
    {
      "midi": 27,
      "hit": false,
      "t": 18072.300000000003,
      "d": 104.41773333333185,
      "v": 89
    },
    {
      "midi": 39,
      "hit": false,
      "t": 18192.782000000003,
      "d": 272.0885166666667,
      "v": 89
    },
    {
      "midi": 27,
      "hit": false,
      "t": 18433.746000000003,
      "d": 91.36551666666855,
      "v": 95
    },
    {
      "midi": 39,
      "hit": false,
      "t": 18554.228000000006,
      "d": 261.0443333333351,
      "v": 92
    },
    {
      "midi": 25,
      "hit": false,
      "t": 18795.192000000006,
      "d": 220.88366666666843,
      "v": 98
    },
    {
      "midi": 37,
      "hit": false,
      "t": 19036.15600000001,
      "d": 177.7109500000006,
      "v": 84
    },
    {
      "midi": 27,
      "hit": false,
      "t": 19277.12000000001,
      "d": 86.34543333333204,
      "v": 92
    },
    {
      "midi": 39,
      "hit": false,
      "t": 19397.60200000001,
      "d": 230.9238333333342,
      "v": 79
    },
    {
      "midi": 27,
      "hit": false,
      "t": 19638.56600000001,
      "d": 76.30526666666628,
      "v": 81
    },
    {
      "midi": 39,
      "hit": false,
      "t": 19759.04800000001,
      "d": 257.02826666666806,
      "v": 106
    },
    {
      "midi": 27,
      "hit": false,
      "t": 20000.01200000001,
      "d": 83.3333833333345,
      "v": 92
    },
    {
      "midi": 39,
      "hit": false,
      "t": 20120.49400000001,
      "d": 247.99211666666815,
      "v": 75
    },
    {
      "midi": 27,
      "hit": false,
      "t": 20361.45800000001,
      "d": 100.40166666666846,
      "v": 89
    },
    {
      "midi": 39,
      "hit": false,
      "t": 20481.940000000013,
      "d": 246.98809999999867,
      "v": 89
    },
    {
      "midi": 25,
      "hit": false,
      "t": 20722.904000000013,
      "d": 233.93588333333173,
      "v": 89
    },
    {
      "midi": 37,
      "hit": false,
      "t": 20963.868000000013,
      "d": 272.0885166666667,
      "v": 92
    },
    {
      "midi": 27,
      "hit": false,
      "t": 21204.832000000013,
      "d": 113.45388333333176,
      "v": 92
    },
    {
      "midi": 39,
      "hit": false,
      "t": 21325.314000000013,
      "d": 261.0443333333351,
      "v": 95
    },
    {
      "midi": 27,
      "hit": false,
      "t": 21566.278000000013,
      "d": 92.3695333333344,
      "v": 84
    },
    {
      "midi": 39,
      "hit": false,
      "t": 21686.760000000013,
      "d": 256.0242499999986,
      "v": 86
    },
    {
      "midi": 27,
      "hit": false,
      "t": 21927.724000000013,
      "d": 104.41773333333185,
      "v": 89
    },
    {
      "midi": 39,
      "hit": false,
      "t": 22048.206000000013,
      "d": 272.0885166666667,
      "v": 89
    },
    {
      "midi": 27,
      "hit": false,
      "t": 22289.170000000013,
      "d": 91.36551666666855,
      "v": 95
    },
    {
      "midi": 39,
      "hit": false,
      "t": 22409.652000000016,
      "d": 261.0443333333351,
      "v": 92
    },
    {
      "midi": 25,
      "hit": false,
      "t": 22650.616000000016,
      "d": 220.88366666666843,
      "v": 98
    },
    {
      "midi": 37,
      "hit": false,
      "t": 22891.58000000002,
      "d": 177.7109500000006,
      "v": 84
    }
  ]
}