{
  "jsonPath": "Classical/Classical Piano/Janusz Olejniczak/nocturne-in-c-minor-op-48-no-1.json",
  "path": "Classical\\Classical Piano\\Janusz Olejniczak\\Nocturne in C minor_ Op 48_ No 1.mid",
  "name": "Nocturne in C minor_ Op 48_ No 1",
  "difficulty": "Advanced",
  "bpm": 120,
  "notes": [
    {
      "midi": 48,
      "hit": false,
      "t": 3700.520833333333,
      "d": 554.6875,
      "v": 44
    },
    {
      "midi": 36,
      "hit": false,
      "t": 3703.1249999999995,
      "d": 458.3333333333335,
      "v": 43
    },
    {
      "midi": 79,
      "hit": false,
      "t": 4833.333333333333,
      "d": 1388.020833333333,
      "v": 91
    },
    {
      "midi": 63,
      "hit": false,
      "t": 4864.583333333333,
      "d": 528.645833333333,
      "v": 37
    },
    {
      "midi": 67,
      "hit": false,
      "t": 4869.791666666666,
      "d": 320.3125,
      "v": 40
    },
    {
      "midi": 55,
      "hit": false,
      "t": 4888.020833333333,
      "d": 617.1875,
      "v": 32
    },
    {
      "midi": 36,
      "hit": false,
      "t": 6052.083333333333,
      "d": 562.4999999999991,
      "v": 53
    },
    {
      "midi": 48,
      "hit": false,
      "t": 6052.083333333333,
      "d": 640.6249999999991,
      "v": 58
    },
    {
      "midi": 68,
      "hit": false,
      "t": 7291.666666666665,
      "d": 322.91666666666697,
      "v": 50
    },
    {
      "midi": 80,
      "hit": false,
      "t": 7291.666666666665,
      "d": 1218.749999999999,
      "v": 84
    },
    {
      "midi": 56,
      "hit": false,
      "t": 7317.708333333332,
      "d": 690.1041666666661,
      "v": 27
    },
    {
      "midi": 63,
      "hit": false,
      "t": 7338.541666666665,
      "d": 476.5625,
      "v": 38
    },
    {
      "midi": 47,
      "hit": false,
      "t": 8468.749999999998,
      "d": 742.1875,
      "v": 48
    },
    {
      "midi": 35,
      "hit": false,
      "t": 8471.354166666664,
      "d": 661.4583333333339,
      "v": 35
    },
    {
      "midi": 79,
      "hit": false,
      "t": 9088.541666666664,
      "d": 1830.7291666666679,
      "v": 97
    },
    {
      "midi": 65,
      "hit": false,
      "t": 9846.354166666664,
      "d": 325.52083333333394,
      "v": 43
    },
    {
      "midi": 67,
      "hit": false,
      "t": 9848.95833333333,
      "d": 283.8541666666679,
      "v": 50
    },
    {
      "midi": 55,
      "hit": false,
      "t": 9869.791666666664,
      "d": 546.875,
      "v": 38
    },
    {
      "midi": 62,
      "hit": false,
      "t": 9898.437499999998,
      "d": 361.97916666666606,
      "v": 27
    },
    {
      "midi": 74,
      "hit": false,
      "t": 10539.062499999998,
      "d": 898.4375000000018,
      "v": 79
    },
    {
      "midi": 48,
      "hit": false,
      "t": 11075.520833333332,
      "d": 528.6458333333339,
      "v": 56
    },
    {
      "midi": 36,
      "hit": false,
      "t": 11078.124999999998,
      "d": 421.8750000000018,
      "v": 49
    },
    {
      "midi": 75,
      "hit": false,
      "t": 11341.145833333332,
      "d": 364.58333333333394,
      "v": 76
    },
    {
      "midi": 77,
      "hit": false,
      "t": 11656.25,
      "d": 343.75,
      "v": 94
    },
    {
      "midi": 75,
      "hit": false,
      "t": 11908.854166666666,
      "d": 312.5,
      "v": 92
    },
    {
      "midi": 74,
      "hit": false,
      "t": 12151.041666666666,
      "d": 322.9166666666679,
      "v": 100
    },
    {
      "midi": 63,
      "hit": false,
      "t": 12164.0625,
      "d": 330.7291666666679,
      "v": 39
    },
    {
      "midi": 67,
      "hit": false,
      "t": 12166.666666666666,
      "d": 195.3125,
      "v": 47
    },
    {
      "midi": 55,
      "hit": false,
      "t": 12190.104166666666,
      "d": 377.6041666666697,
      "v": 27
    },
    {
      "midi": 60,
      "hit": false,
      "t": 12195.3125,
      "d": 320.3125000000018,
      "v": 27
    },
    {
      "midi": 75,
      "hit": false,
      "t": 12398.4375,
      "d": 317.70833333333576,
      "v": 91
    },
    {
      "midi": 77,
      "hit": false,
      "t": 12625.000000000002,
      "d": 307.29166666666606,
      "v": 97
    },
    {
      "midi": 79,
      "hit": false,
      "t": 12875.000000000002,
      "d": 552.0833333333339,
      "v": 97
    },
    {
      "midi": 72,
      "hit": false,
      "t": 13132.812500000002,
      "d": 1070.3125,
      "v": 96
    },
    {
      "midi": 44,
      "hit": false,
      "t": 13145.833333333336,
      "d": 546.875,
      "v": 55
    },
    {
      "midi": 32,
      "hit": false,
      "t": 13148.437500000002,
      "d": 479.1666666666679,
      "v": 65
    },
    {
      "midi": 72,
      "hit": false,
      "t": 14260.416666666668,
      "d": 463.5416666666679,
      "v": 107
    },
    {
      "midi": 68,
      "hit": false,
      "t": 14265.625000000002,
      "d": 223.95833333333394,
      "v": 43
    },
    {
      "midi": 63,
      "hit": false,
      "t": 14278.645833333336,
      "d": 377.60416666666606,
      "v": 36
    },
    {
      "midi": 60,
      "hit": false,
      "t": 14307.29166666667,
      "d": 325.5208333333321,
      "v": 31
    },
    {
      "midi": 72,
      "hit": false,
      "t": 14986.97916666667,
      "d": 166.66666666666606,
      "v": 94
    },
    {
      "midi": 74,
      "hit": false,
      "t": 15210.937500000002,
      "d": 1268.2291666666697,
      "v": 91
    },
    {
      "midi": 41,
      "hit": false,
      "t": 15223.958333333336,
      "d": 463.5416666666679,
      "v": 48
    },
    {
      "midi": 29,
      "hit": false,
      "t": 15234.375000000002,
      "d": 330.7291666666679,
      "v": 38
    },
    {
      "midi": 72,
      "hit": false,
      "t": 16226.562500000004,
      "d": 929.6875000000036,
      "v": 78
    },
    {
      "midi": 62,
      "hit": false,
      "t": 16255.208333333338,
      "d": 375.0000000000018,
      "v": 28
    },
    {
      "midi": 53,
      "hit": false,
      "t": 16273.437500000004,
      "d": 539.0625000000036,
      "v": 28
    },
    {
      "midi": 60,
      "hit": false,
      "t": 16296.875000000004,
      "d": 421.87500000000364,
      "v": 33
    },
    {
      "midi": 68,
      "hit": false,
      "t": 17041.666666666675,
      "d": 453.125,
      "v": 68
    },
    {
      "midi": 67,
      "hit": false,
      "t": 17338.541666666675,
      "d": 1479.1666666666679,
      "v": 72
    },
    {
      "midi": 43,
      "hit": false,
      "t": 17361.979166666675,
      "d": 611.9791666666679,
      "v": 46
    },
    {
      "midi": 31,
      "hit": false,
      "t": 17380.208333333343,
      "d": 484.375,
      "v": 37
    },
    {
      "midi": 59,
      "hit": false,
      "t": 18408.854166666675,
      "d": 518.2291666666715,
      "v": 28
    },
    {
      "midi": 53,
      "hit": false,
      "t": 18432.291666666675,
      "d": 541.6666666666715,
      "v": 31
    },
    {
      "midi": 70,
      "hit": false,
      "t": 18815.104166666675,
      "d": 101.56250000000364,
      "v": 46
    },
    {
      "midi": 68,
      "hit": false,
      "t": 18875.00000000001,
      "d": 322.9166666666715,
      "v": 56
    },
    {
      "midi": 67,
      "hit": false,
      "t": 19171.875000000015,
      "d": 252.60416666666788,
      "v": 52
    },
    {
      "midi": 62,
      "hit": false,
      "t": 19471.354166666682,
      "d": 200.52083333333212,
      "v": 37
    },
    {
      "midi": 63,
      "hit": false,
      "t": 19838.541666666682,
      "d": 354.1666666666679,
      "v": 36
    },
    {
      "midi": 36,
      "hit": false,
      "t": 19859.375000000015,
      "d": 598.9583333333358,
      "v": 16
    },
    {
      "midi": 24,
      "hit": false,
      "t": 19861.979166666682,
      "d": 507.8125,
      "v": 28
    },
    {
      "midi": 60,
      "hit": false,
      "t": 20244.791666666682,
      "d": 1578.1250000000036,
      "v": 35
    },
    {
      "midi": 55,
      "hit": false,
      "t": 21244.791666666682,
      "d": 231.77083333333576,
      "v": 9
    },
    {
      "midi": 51,
      "hit": false,
      "t": 21255.20833333335,
      "d": 125,
      "v": 16
    },
    {
      "midi": 27,
      "hit": false,
      "t": 22500.00000000002,
      "d": 398.4375,
      "v": 42
    },
    {
      "midi": 39,
      "hit": false,
      "t": 22510.416666666686,
      "d": 434.8958333333321,
      "v": 23
    },
    {
      "midi": 79,
      "hit": false,
      "t": 23494.791666666686,
      "d": 1078.1250000000036,
      "v": 75
    },
    {
      "midi": 58,
      "hit": false,
      "t": 23505.208333333354,
      "d": 414.06250000000364,
      "v": 24
    },
    {
      "midi": 63,
      "hit": false,
      "t": 23523.437500000022,
      "d": 283.8541666666679,
      "v": 35
    },
    {
      "midi": 67,
      "hit": false,
      "t": 23526.04166666669,
      "d": 161.45833333333212,
      "v": 35
    },
    {
      "midi": 55,
      "hit": false,
      "t": 23541.66666666669,
      "d": 385.4166666666679,
      "v": 29
    },
    {
      "midi": 44,
      "hit": false,
      "t": 24518.22916666669,
      "d": 500,
      "v": 40
    },
    {
      "midi": 32,
      "hit": false,
      "t": 24523.437500000022,
      "d": 432.2916666666679,
      "v": 41
    },
    {
      "midi": 80,
      "hit": false,
      "t": 25473.958333333358,
      "d": 1005.2083333333358,
      "v": 80
    },
    {
      "midi": 63,
      "hit": false,
      "t": 25484.375000000025,
      "d": 255.20833333333576,
      "v": 48
    },
    {
      "midi": 53,
      "hit": false,
      "t": 25531.250000000025,
      "d": 388.02083333333576,
      "v": 26
    },
    {
      "midi": 60,
      "hit": false,
      "t": 25549.479166666693,
      "d": 328.125,
      "v": 37
    },
    {
      "midi": 46,
      "hit": false,
      "t": 26375.00000000003,
      "d": 624.9999999999964,
      "v": 57
    },
    {
      "midi": 34,
      "hit": false,
      "t": 26388.02083333336,
      "d": 562.4999999999964,
      "v": 58
    },
    {
      "midi": 79,
      "hit": false,
      "t": 26820.312500000025,
      "d": 1460.9375,
      "v": 90
    },
    {
      "midi": 68,
      "hit": false,
      "t": 27466.145833333358,
      "d": 148.4375,
      "v": 34
    },
    {
      "midi": 62,
      "hit": false,
      "t": 27466.145833333358,
      "d": 255.20833333333212,
      "v": 35
    },
    {
      "midi": 58,
      "hit": false,
      "t": 27476.562500000025,
      "d": 348.9583333333321,
      "v": 49
    },
    {
      "midi": 77,
      "hit": false,
      "t": 28138.020833333358,
      "d": 812.5000000000073,
      "v": 67
    },
    {
      "midi": 47,
      "hit": false,
      "t": 28369.791666666693,
      "d": 111.97916666666788,
      "v": 40
    },
    {
      "midi": 35,
      "hit": false,
      "t": 28377.604166666693,
      "d": 65.10416666666788,
      "v": 33
    },
    {
      "midi": 48,
      "hit": false,
      "t": 28625.00000000003,
      "d": 570.3125,
      "v": 41
    },
    {
      "midi": 36,
      "hit": false,
      "t": 28643.229166666697,
      "d": 471.3541666666679,
      "v": 33
    },
    {
      "midi": 75,
      "hit": false,
      "t": 28919.270833333365,
      "d": 255.20833333333212,
      "v": 52
    },
    {
      "midi": 77,
      "hit": false,
      "t": 29161.458333333365,
      "d": 88.54166666666424,
      "v": 87
    },
    {
      "midi": 75,
      "hit": false,
      "t": 29338.541666666697,
      "d": 52.08333333333576,
      "v": 58
    },
    {
      "midi": 77,
      "hit": false,
      "t": 29388.020833333365,
      "d": 85.93750000000364,
      "v": 83
    },
    {
      "midi": 75,
      "hit": false,
      "t": 29455.7291666667,
      "d": 226.5625,
      "v": 87
    },
    {
      "midi": 67,
      "hit": false,
      "t": 29643.2291666667,
      "d": 164.0625,
      "v": 45
    },
    {
      "midi": 74,
      "hit": false,
      "t": 29651.0416666667,
      "d": 307.2916666666679,
      "v": 88
    },
    {
      "midi": 63,
      "hit": false,
      "t": 29661.45833333337,
      "d": 302.0833333333321,
      "v": 37
    },
    {
      "midi": 57,
      "hit": false,
      "t": 29690.1041666667,
      "d": 398.4375,
      "v": 39
    },
    {
      "midi": 75,
      "hit": false,
      "t": 29893.2291666667,
      "d": 289.0625,
      "v": 83
    },
    {
      "midi": 77,
      "hit": false,
      "t": 30114.58333333337,
      "d": 263.0208333333321,
      "v": 94
    },
    {
      "midi": 79,
      "hit": false,
      "t": 30341.14583333337,
      "d": 299.47916666666424,
      "v": 92
    },
    {
      "midi": 74,
      "hit": false,
      "t": 30588.5416666667,
      "d": 252.60416666666424,
      "v": 85
    },
    {
      "midi": 50,
      "hit": false,
      "t": 30609.375000000033,
      "d": 601.5625,
      "v": 45
    },
    {
      "midi": 38,
      "hit": false,
      "t": 30619.7916666667,
      "d": 513.0208333333321,
      "v": 28
    },
    {
      "midi": 62,
      "hit": false,
      "t": 31250.000000000033,
      "d": 544.2708333333321,
      "v": 79
    },
    {
      "midi": 67,
      "hit": false,
      "t": 31888.020833333365,
      "d": 158.85416666666788,
      "v": 58
    },
    {
      "midi": 58,
      "hit": false,
      "t": 31895.833333333365,
      "d": 369.7916666666679,
      "v": 64
    },
    {
      "midi": 67,
      "hit": false,
      "t": 32161.458333333365,
      "d": 283.8541666666679,
      "v": 82
    },
    {
      "midi": 72,
      "hit": false,
      "t": 32408.8541666667,
      "d": 302.0833333333321,
      "v": 100
    },
    {
      "midi": 74,
      "hit": false,
      "t": 32656.250000000033,
      "d": 395.8333333333321,
      "v": 96
    },
    {
      "midi": 38,
      "hit": false,
      "t": 32958.333333333365,
      "d": 453.125,
      "v": 38
    },
    {
      "midi": 26,
      "hit": false,
      "t": 32968.75000000003,
      "d": 343.75,
      "v": 46
    },
    {
      "midi": 75,
      "hit": false,
      "t": 32973.958333333365,
      "d": 1992.1875,
      "v": 80
    },
    {
      "midi": 60,
      "hit": false,
      "t": 34023.43750000003,
      "d": 520.8333333333358,
      "v": 36
    },
    {
      "midi": 57,
      "hit": false,
      "t": 34044.270833333365,
      "d": 598.9583333333358,
      "v": 26
    },
    {
      "midi": 66,
      "hit": false,
      "t": 34966.145833333365,
      "d": 171.875,
      "v": 49
    },
    {
      "midi": 66,
      "hit": false,
      "t": 35221.3541666667,
      "d": 2354.1666666666715,
      "v": 58
    },
    {
      "midi": 43,
      "hit": false,
      "t": 35263.020833333365,
      "d": 559.8958333333358,
      "v": 31
    },
    {
      "midi": 31,
      "hit": false,
      "t": 35286.458333333365,
      "d": 419.27083333333576,
      "v": 30
    },
    {
      "midi": 58,
      "hit": false,
      "t": 36500.00000000004,
      "d": 343.75,
      "v": 36
    },
    {
      "midi": 62,
      "hit": false,
      "t": 36520.83333333337,
      "d": 200.52083333332848,
      "v": 31
    },
    {
      "midi": 50,
      "hit": false,
      "t": 36546.87500000004,
      "d": 414.0625,
      "v": 24
    },
    {
      "midi": 67,
      "hit": false,
      "t": 37343.75000000004,
      "d": 244.79166666667152,
      "v": 32
    },
    {
      "midi": 70,
      "hit": false,
      "t": 37567.70833333337,
      "d": 213.54166666667152,
      "v": 50
    },
    {
      "midi": 38,
      "hit": false,
      "t": 37604.16666666671,
      "d": 221.35416666666424,
      "v": 27
    },
    {
      "midi": 69,
      "hit": false,
      "t": 37783.85416666671,
      "d": 127.60416666666424,
      "v": 47
    },
    {
      "midi": 31,
      "hit": false,
      "t": 37979.16666666671,
      "d": 307.29166666666424,
      "v": 30
    },
    {
      "midi": 67,
      "hit": false,
      "t": 37979.16666666671,
      "d": 1351.5625,
      "v": 48
    },
    {
      "midi": 43,
      "hit": false,
      "t": 37986.97916666671,
      "d": 390.625,
      "v": 12
    },
    {
      "midi": 58,
      "hit": false,
      "t": 39020.83333333337,
      "d": 252.60416666667152,
      "v": 32
    },
    {
      "midi": 62,
      "hit": false,
      "t": 39044.27083333337,
      "d": 192.70833333333576,
      "v": 20
    },
    {
      "midi": 50,
      "hit": false,
      "t": 39052.08333333337,
      "d": 325.52083333333576,
      "v": 24
    },
    {
      "midi": 42,
      "hit": false,
      "t": 40169.27083333337,
      "d": 536.4583333333285,
      "v": 60
    },
    {
      "midi": 30,
      "hit": false,
      "t": 40187.50000000004,
      "d": 416.66666666666424,
      "v": 54
    },
    {
      "midi": 68,
      "hit": false,
      "t": 41177.083333333365,
      "d": 1749.9999999999927,
      "v": 89
    },
    {
      "midi": 63,
      "hit": false,
      "t": 41182.2916666667,
      "d": 317.70833333333576,
      "v": 42
    },
    {
      "midi": 54,
      "hit": false,
      "t": 41210.93750000004,
      "d": 539.0625,
      "v": 35
    },
    {
      "midi": 60,
      "hit": false,
      "t": 41213.5416666667,
      "d": 401.0416666666715,
      "v": 32
    },
    {
      "midi": 56,
      "hit": false,
      "t": 41229.1666666667,
      "d": 572.9166666666715,
      "v": 35
    },
    {
      "midi": 29,
      "hit": false,
      "t": 42210.93750000004,
      "d": 484.3749999999927,
      "v": 87
    },
    {
      "midi": 41,
      "hit": false,
      "t": 42213.5416666667,
      "d": 585.9374999999927,
      "v": 84
    },
    {
      "midi": 73,
      "hit": false,
      "t": 42802.08333333336,
      "d": 580.7291666666715,
      "v": 97
    },
    {
      "midi": 77,
      "hit": false,
      "t": 43312.50000000002,
      "d": 533.8541666666715,
      "v": 107
    },
    {
      "midi": 65,
      "hit": false,
      "t": 43325.52083333336,
      "d": 190.10416666667152,
      "v": 91
    },
    {
      "midi": 53,
      "hit": false,
      "t": 43330.72916666669,
      "d": 320.3125,
      "v": 78
    },
    {
      "midi": 61,
      "hit": false,
      "t": 43330.72916666669,
      "d": 325.52083333333576,
      "v": 70
    },
    {
      "midi": 56,
      "hit": false,
      "t": 43351.56250000003,
      "d": 375,
      "v": 54
    },
    {
      "midi": 82,
      "hit": false,
      "t": 43750.00000000003,
      "d": 739.5833333333285,
      "v": 112
    },
    {
      "midi": 24,
      "hit": false,
      "t": 44283.85416666669,
      "d": 541.6666666666642,
      "v": 101
    },
    {
      "midi": 80,
      "hit": false,
      "t": 44283.85416666669,
      "d": 1111.9791666666715,
      "v": 100
    },
    {
      "midi": 36,
      "hit": false,
      "t": 44289.06250000003,
      "d": 614.5833333333285,
      "v": 81
    },
    {
      "midi": 63,
      "hit": false,
      "t": 45325.52083333336,
      "d": 489.58333333334303,
      "v": 68
    },
    {
      "midi": 51,
      "hit": false,
      "t": 45346.35416666669,
      "d": 632.8125,
      "v": 53
    },
    {
      "midi": 56,
      "hit": false,
      "t": 45351.56250000003,
      "d": 562.5,
      "v": 59
    },
    {
      "midi": 66,
      "hit": false,
      "t": 45557.2916666667,
      "d": 213.54166666666424,
      "v": 90
    },
    {
      "midi": 68,
      "hit": false,
      "t": 45739.583333333365,
      "d": 164.0625,
      "v": 92
    },
    {
      "midi": 75,
      "hit": false,
      "t": 45885.4166666667,
      "d": 119.79166666665697,
      "v": 88
    },
    {
      "midi": 80,
      "hit": false,
      "t": 46036.45833333336,
      "d": 338.54166666666424,
      "v": 95
    },
    {
      "midi": 78,
      "hit": false,
      "t": 46312.50000000002,
      "d": 177.08333333333576,
      "v": 86
    },
    {
      "midi": 77,
      "hit": false,
      "t": 46507.81250000002,
      "d": 197.91666666666424,
      "v": 98
    },
    {
      "midi": 37,
      "hit": false,
      "t": 46611.979166666686,
      "d": 653.6458333333358,
      "v": 37
    },
    {
      "midi": 25,
      "hit": false,
      "t": 46625.00000000002,
      "d": 570.3125,
      "v": 40
    },
    {
      "midi": 65,
      "hit": false,
      "t": 46635.416666666686,
      "d": 52.08333333333576,
      "v": 75
    },
    {
      "midi": 68,
      "hit": false,
      "t": 46708.33333333335,
      "d": 2190.1041666666715,
      "v": 67
    },
    {
      "midi": 73,
      "hit": false,
      "t": 46783.854166666686,
      "d": 2174.4791666666715,
      "v": 61
    },
    {
      "midi": 65,
      "hit": false,
      "t": 46851.56250000002,
      "d": 1960.9375,
      "v": 5
    },
    {
      "midi": 77,
      "hit": false,
      "t": 46875.00000000002,
      "d": 2046.875,
      "v": 86
    },
    {
      "midi": 61,
      "hit": false,
      "t": 47786.45833333336,
      "d": 223.95833333332848,
      "v": 48
    },
    {
      "midi": 56,
      "hit": false,
      "t": 47789.06250000002,
      "d": 257.8125,
      "v": 38
    },
    {
      "midi": 53,
      "hit": false,
      "t": 47830.729166666686,
      "d": 309.89583333333576,
      "v": 36
    },
    {
      "midi": 48,
      "hit": false,
      "t": 48677.08333333336,
      "d": 111.97916666666424,
      "v": 57
    },
    {
      "midi": 36,
      "hit": false,
      "t": 48687.50000000002,
      "d": 52.08333333333576,
      "v": 54
    },
    {
      "midi": 47,
      "hit": false,
      "t": 48875.00000000002,
      "d": 632.8125,
      "v": 68
    },
    {
      "midi": 35,
      "hit": false,
      "t": 48890.62500000002,
      "d": 546.875,
      "v": 34
    },
    {
      "midi": 67,
      "hit": false,
      "t": 49807.291666666686,
      "d": 864.583333333343,
      "v": 85
    },
    {
      "midi": 65,
      "hit": false,
      "t": 49851.56250000002,
      "d": 309.89583333333576,
      "v": 44
    },
    {
      "midi": 62,
      "hit": false,
      "t": 49864.58333333336,
      "d": 398.4375,
      "v": 50
    },
    {
      "midi": 55,
      "hit": false,
      "t": 49869.79166666669,
      "d": 518.2291666666642,
      "v": 32
    },
    {
      "midi": 68,
      "hit": false,
      "t": 50651.04166666669,
      "d": 49.47916666667152,
      "v": 72
    },
    {
      "midi": 70,
      "hit": false,
      "t": 50708.333333333365,
      "d": 132.8125,
      "v": 82
    },
    {
      "midi": 68,
      "hit": false,
      "t": 50773.43750000003,
      "d": 393.2291666666788,
      "v": 76
    },
    {
      "midi": 36,
      "hit": false,
      "t": 50820.31250000003,
      "d": 367.18750000001455,
      "v": 50
    },
    {
      "midi": 48,
      "hit": false,
      "t": 50825.520833333365,
      "d": 455.7291666666788,
      "v": 41
    },
    {
      "midi": 67,
      "hit": false,
      "t": 51130.20833333337,
      "d": 257.8125,
      "v": 76
    },
    {
      "midi": 71,
      "hit": false,
      "t": 51377.60416666671,
      "d": 231.77083333332848,
      "v": 73
    },
    {
      "midi": 72,
      "hit": false,
      "t": 51575.52083333337,
      "d": 208.33333333332848,
      "v": 105
    },
    {
      "midi": 67,
      "hit": false,
      "t": 51770.83333333337,
      "d": 523.4375,
      "v": 42
    },
    {
      "midi": 63,
      "hit": false,
      "t": 51773.43750000004,
      "d": 565.1041666666715,
      "v": 29
    },
    {
      "midi": 55,
      "hit": false,
      "t": 51781.25000000004,
      "d": 627.6041666666715,
      "v": 29
    },
    {
      "midi": 74,
      "hit": false,
      "t": 51783.8541666667,
      "d": 242.1875,
      "v": 103
    },
    {
      "midi": 60,
      "hit": false,
      "t": 51791.6666666667,
      "d": 541.6666666666715,
      "v": 28
    },
    {
      "midi": 75,
      "hit": false,
      "t": 51989.583333333365,
      "d": 260.4166666666715,
      "v": 94
    },
    {
      "midi": 84,
      "hit": false,
      "t": 52218.75000000004,
      "d": 424.4791666666715,
      "v": 92
    },
    {
      "midi": 80,
      "hit": false,
      "t": 52528.64583333337,
      "d": 408.8541666666715,
      "v": 88
    },
    {
      "midi": 79,
      "hit": false,
      "t": 52854.16666666671,
      "d": 1348.9583333333358,
      "v": 81
    },
    {
      "midi": 38,
      "hit": false,
      "t": 52882.812500000044,
      "d": 401.0416666666715,
      "v": 37
    },
    {
      "midi": 50,
      "hit": false,
      "t": 52888.02083333338,
      "d": 497.39583333333576,
      "v": 17
    },
    {
      "midi": 55,
      "hit": false,
      "t": 53856.77083333338,
      "d": 783.8541666666715,
      "v": 41
    },
    {
      "midi": 65,
      "hit": false,
      "t": 53869.791666666715,
      "d": 549.4791666666642,
      "v": 21
    },
    {
      "midi": 67,
      "hit": false,
      "t": 53877.604166666715,
      "d": 502.60416666666424,
      "v": 34
    },
    {
      "midi": 59,
      "hit": false,
      "t": 53895.83333333338,
      "d": 708.3333333333358,
      "v": 25
    },
    {
      "midi": 73,
      "hit": false,
      "t": 54153.64583333338,
      "d": 278.64583333333576,
      "v": 66
    },
    {
      "midi": 74,
      "hit": false,
      "t": 54432.291666666715,
      "d": 213.54166666667152,
      "v": 73
    },
    {
      "midi": 79,
      "hit": false,
      "t": 54674.47916666672,
      "d": 205.72916666667152,
      "v": 77
    },
    {
      "midi": 77,
      "hit": false,
      "t": 54875.00000000006,
      "d": 85.9375,
      "v": 65
    },
    {
      "midi": 75,
      "hit": false,
      "t": 55007.81250000006,
      "d": 54.6875,
      "v": 64
    },
    {
      "midi": 51,
      "hit": false,
      "t": 55138.020833333394,
      "d": 481.7708333333285,
      "v": 36
    },
    {
      "midi": 39,
      "hit": false,
      "t": 55140.62500000006,
      "d": 437.5,
      "v": 26
    },
    {
      "midi": 75,
      "hit": false,
      "t": 55145.833333333394,
      "d": 2072.916666666679,
      "v": 56
    },
    {
      "midi": 67,
      "hit": false,
      "t": 56143.22916666672,
      "d": 187.5,
      "v": 30
    },
    {
      "midi": 60,
      "hit": false,
      "t": 56177.08333333339,
      "d": 203.12500000000728,
      "v": 18
    },
    {
      "midi": 55,
      "hit": false,
      "t": 56190.10416666672,
      "d": 184.89583333333576,
      "v": 25
    },
    {
      "midi": 39,
      "hit": false,
      "t": 56986.97916666673,
      "d": 127.60416666667152,
      "v": 40
    },
    {
      "midi": 51,
      "hit": false,
      "t": 56994.79166666673,
      "d": 91.14583333333576,
      "v": 36
    },
    {
      "midi": 53,
      "hit": false,
      "t": 57190.10416666674,
      "d": 486.9791666666715,
      "v": 56
    },
    {
      "midi": 41,
      "hit": false,
      "t": 57195.31250000007,
      "d": 403.64583333333576,
      "v": 60
    },
    {
      "midi": 68,
      "hit": false,
      "t": 58062.50000000007,
      "d": 328.125,
      "v": 44
    },
    {
      "midi": 71,
      "hit": false,
      "t": 58065.10416666674,
      "d": 1492.1874999999927,
      "v": 80
    },
    {
      "midi": 56,
      "hit": false,
      "t": 58096.35416666674,
      "d": 580.7291666666642,
      "v": 30
    },
    {
      "midi": 62,
      "hit": false,
      "t": 58132.81250000007,
      "d": 369.79166666666424,
      "v": 29
    },
    {
      "midi": 51,
      "hit": false,
      "t": 59000.000000000065,
      "d": 518.2291666666642,
      "v": 48
    },
    {
      "midi": 39,
      "hit": false,
      "t": 59018.22916666673,
      "d": 424.47916666666424,
      "v": 47
    },
    {
      "midi": 72,
      "hit": false,
      "t": 59427.083333333394,
      "d": 645.8333333333358,
      "v": 89
    },
    {
      "midi": 67,
      "hit": false,
      "t": 59864.583333333394,
      "d": 197.91666666667152,
      "v": 51
    },
    {
      "midi": 60,
      "hit": false,
      "t": 59880.208333333394,
      "d": 309.89583333333576,
      "v": 45
    },
    {
      "midi": 55,
      "hit": false,
      "t": 59888.020833333394,
      "d": 348.95833333333576,
      "v": 39
    },
    {
      "midi": 74,
      "hit": false,
      "t": 59932.29166666673,
      "d": 562.5,
      "v": 88
    },
    {
      "midi": 75,
      "hit": false,
      "t": 60398.437500000065,
      "d": 390.625,
      "v": 62
    },
    {
      "midi": 48,
      "hit": false,
      "t": 60601.562500000065,
      "d": 75.52083333333576,
      "v": 74
    },
    {
      "midi": 36,
      "hit": false,
      "t": 60614.5833333334,
      "d": 59.89583333333576,
      "v": 67
    },
    {
      "midi": 47,
      "hit": false,
      "t": 60835.937500000065,
      "d": 554.6875,
      "v": 53
    },
    {
      "midi": 35,
      "hit": false,
      "t": 60851.562500000065,
      "d": 473.95833333333576,
      "v": 44
    },
    {
      "midi": 67,
      "hit": false,
      "t": 61773.437500000065,
      "d": 307.2916666666715,
      "v": 37
    },
    {
      "midi": 65,
      "hit": false,
      "t": 61786.4583333334,
      "d": 320.3125,
      "v": 24
    },
    {
      "midi": 62,
      "hit": false,
      "t": 61799.47916666674,
      "d": 408.85416666666424,
      "v": 31
    },
    {
      "midi": 55,
      "hit": false,
      "t": 61799.47916666674,
      "d": 484.375,
      "v": 25
    },
    {
      "midi": 74,
      "hit": false,
      "t": 61843.75000000007,
      "d": 1549.4791666666715,
      "v": 86
    },
    {
      "midi": 36,
      "hit": false,
      "t": 62705.72916666674,
      "d": 518.2291666666715,
      "v": 63
    },
    {
      "midi": 48,
      "hit": false,
      "t": 62705.72916666674,
      "d": 609.3750000000073,
      "v": 64
    },
    {
      "midi": 75,
      "hit": false,
      "t": 63283.854166666744,
      "d": 593.7499999999927,
      "v": 82
    },
    {
      "midi": 77,
      "hit": false,
      "t": 63744.791666666744,
      "d": 567.7083333333285,
      "v": 104
    },
    {
      "midi": 67,
      "hit": false,
      "t": 63755.20833333341,
      "d": 145.83333333332848,
      "v": 52
    },
    {
      "midi": 63,
      "hit": false,
      "t": 63786.45833333341,
      "d": 218.74999999999272,
      "v": 42
    },
    {
      "midi": 60,
      "hit": false,
      "t": 63789.06250000007,
      "d": 221.35416666666424,
      "v": 35
    },
    {
      "midi": 55,
      "hit": false,
      "t": 63791.66666666674,
      "d": 257.8125,
      "v": 47
    },
    {
      "midi": 79,
      "hit": false,
      "t": 64203.12500000007,
      "d": 489.5833333333285,
      "v": 96
    },
    {
      "midi": 36,
      "hit": false,
      "t": 64445.31250000007,
      "d": 416.66666666666424,
      "v": 65
    },
    {
      "midi": 79,
      "hit": false,
      "t": 64906.25000000007,
      "d": 703.1249999999854,
      "v": 69
    },
    {
      "midi": 41,
      "hit": false,
      "t": 64984.37500000007,
      "d": 643.229166666657,
      "v": 29
    },
    {
      "midi": 29,
      "hit": false,
      "t": 64994.79166666674,
      "d": 515.6249999999927,
      "v": 31
    },
    {
      "midi": 77,
      "hit": false,
      "t": 65593.75000000006,
      "d": 651.0416666666861,
      "v": 71
    },
    {
      "midi": 80,
      "hit": false,
      "t": 66138.0208333334,
      "d": 794.270833333343,
      "v": 59
    },
    {
      "midi": 60,
      "hit": false,
      "t": 66177.0833333334,
      "d": 328.12500000001455,
      "v": 24
    },
    {
      "midi": 53,
      "hit": false,
      "t": 66177.0833333334,
      "d": 458.33333333334303,
      "v": 26
    },
    {
      "midi": 68,
      "hit": false,
      "t": 66187.50000000007,
      "d": 752.6041666666715,
      "v": 12
    },
    {
      "midi": 72,
      "hit": false,
      "t": 66739.58333333342,
      "d": 484.375,
      "v": 64
    },
    {
      "midi": 74,
      "hit": false,
      "t": 67145.83333333342,
      "d": 322.91666666665697,
      "v": 73
    },
    {
      "midi": 32,
      "hit": false,
      "t": 67169.27083333342,
      "d": 200.52083333332848,
      "v": 34
    },
    {
      "midi": 44,
      "hit": false,
      "t": 67174.47916666674,
      "d": 234.375,
      "v": 25
    },
    {
      "midi": 75,
      "hit": false,
      "t": 67471.35416666674,
      "d": 41.66666666667152,
      "v": 71
    },
    {
      "midi": 75,
      "hit": false,
      "t": 67588.54166666674,
      "d": 127.60416666667152,
      "v": 65
    },
    {
      "midi": 77,
      "hit": false,
      "t": 67726.56250000009,
      "d": 65.10416666665697,
      "v": 66
    },
    {
      "midi": 75,
      "hit": false,
      "t": 67786.45833333342,
      "d": 119.79166666665697,
      "v": 76
    },
    {
      "midi": 74,
      "hit": false,
      "t": 67919.2708333334,
      "d": 145.83333333334303,
      "v": 77
    },
    {
      "midi": 75,
      "hit": false,
      "t": 68007.81250000007,
      "d": 221.35416666667152,
      "v": 56
    },
    {
      "midi": 79,
      "hit": false,
      "t": 68177.08333333342,
      "d": 924.4791666666715,
      "v": 72
    },
    {
      "midi": 68,
      "hit": false,
      "t": 68177.08333333342,
      "d": 1054.6875,
      "v": 52
    },
    {
      "midi": 60,
      "hit": false,
      "t": 68200.52083333342,
      "d": 510.4166666666715,
      "v": 30
    },
    {
      "midi": 53,
      "hit": false,
      "t": 68216.14583333342,
      "d": 630.208333333343,
      "v": 28
    },
    {
      "midi": 77,
      "hit": false,
      "t": 68893.22916666676,
      "d": 721.354166666657,
      "v": 63
    },
    {
      "midi": 74,
      "hit": false,
      "t": 69533.85416666674,
      "d": 2531.25,
      "v": 61
    },
    {
      "midi": 46,
      "hit": false,
      "t": 69544.27083333342,
      "d": 541.6666666666715,
      "v": 29
    },
    {
      "midi": 34,
      "hit": false,
      "t": 69562.50000000009,
      "d": 447.9166666666715,
      "v": 32
    },
    {
      "midi": 68,
      "hit": false,
      "t": 70632.81250000009,
      "d": 169.27083333332848,
      "v": 33
    },
    {
      "midi": 62,
      "hit": false,
      "t": 70635.41666666676,
      "d": 304.68749999998545,
      "v": 29
    },
    {
      "midi": 58,
      "hit": false,
      "t": 70640.62500000009,
      "d": 416.66666666665697,
      "v": 37
    },
    {
      "midi": 53,
      "hit": false,
      "t": 70648.43750000009,
      "d": 471.35416666665697,
      "v": 24
    },
    {
      "midi": 46,
      "hit": false,
      "t": 71604.16666666674,
      "d": 145.83333333332848,
      "v": 62
    },
    {
      "midi": 34,
      "hit": false,
      "t": 71619.79166666674,
      "d": 158.85416666665697,
      "v": 55
    },
    {
      "midi": 47,
      "hit": false,
      "t": 71822.91666666673,
      "d": 638.020833333343,
      "v": 63
    },
    {
      "midi": 35,
      "hit": false,
      "t": 71841.1458333334,
      "d": 539.0625000000146,
      "v": 45
    },
    {
      "midi": 65,
      "hit": false,
      "t": 73026.04166666674,
      "d": 140.625,
      "v": 39
    },
    {
      "midi": 67,
      "hit": false,
      "t": 73028.64583333342,
      "d": 135.41666666665697,
      "v": 46
    },
    {
      "midi": 55,
      "hit": false,
      "t": 73028.64583333342,
      "d": 278.6458333333285,
      "v": 39
    },
    {
      "midi": 62,
      "hit": false,
      "t": 73049.47916666674,
      "d": 252.60416666667152,
      "v": 39
    },
    {
      "midi": 43,
      "hit": false,
      "t": 74065.10416666674,
      "d": 59.89583333332848,
      "v": 54
    },
    {
      "midi": 31,
      "hit": false,
      "t": 74067.70833333342,
      "d": 52.08333333332848,
      "v": 51
    },
    {
      "midi": 48,
      "hit": false,
      "t": 74320.31250000007,
      "d": 471.3541666666715,
      "v": 57
    },
    {
      "midi": 36,
      "hit": false,
      "t": 74322.91666666674,
      "d": 380.2083333333285,
      "v": 50
    },
    {
      "midi": 79,
      "hit": false,
      "t": 75570.31250000007,
      "d": 1106.770833333343,
      "v": 81
    },
    {
      "midi": 70,
      "hit": false,
      "t": 75578.12500000007,
      "d": 312.5,
      "v": 50
    },
    {
      "midi": 60,
      "hit": false,
      "t": 75625.00000000007,
      "d": 291.6666666666715,
      "v": 36
    },
    {
      "midi": 64,
      "hit": false,
      "t": 75630.2083333334,
      "d": 359.37500000001455,
      "v": 40
    },
    {
      "midi": 29,
      "hit": false,
      "t": 76523.43750000009,
      "d": 453.125,
      "v": 58
    },
    {
      "midi": 41,
      "hit": false,
      "t": 76528.64583333342,
      "d": 515.625,
      "v": 58
    },
    {
      "midi": 80,
      "hit": false,
      "t": 77481.77083333342,
      "d": 1013.0208333333285,
      "v": 87
    },
    {
      "midi": 68,
      "hit": false,
      "t": 77494.79166666674,
      "d": 174.47916666667152,
      "v": 41
    },
    {
      "midi": 63,
      "hit": false,
      "t": 77502.60416666674,
      "d": 408.8541666666715,
      "v": 45
    },
    {
      "midi": 60,
      "hit": false,
      "t": 77557.29166666674,
      "d": 354.1666666666715,
      "v": 41
    },
    {
      "midi": 46,
      "hit": false,
      "t": 78489.58333333342,
      "d": 916.6666666666715,
      "v": 63
    },
    {
      "midi": 34,
      "hit": false,
      "t": 78494.79166666674,
      "d": 875,
      "v": 66
    },
    {
      "midi": 79,
      "hit": false,
      "t": 79135.41666666674,
      "d": 1304.6875000000146,
      "v": 93
    },
    {
      "midi": 68,
      "hit": false,
      "t": 79739.58333333342,
      "d": 609.3750000000146,
      "v": 59
    },
    {
      "midi": 53,
      "hit": false,
      "t": 79750.00000000009,
      "d": 432.2916666666715,
      "v": 38
    },
    {
      "midi": 62,
      "hit": false,
      "t": 79752.60416666676,
      "d": 343.75,
      "v": 34
    },
    {
      "midi": 58,
      "hit": false,
      "t": 79755.20833333343,
      "d": 442.7083333333285,
      "v": 53
    },
    {
      "midi": 77,
      "hit": false,
      "t": 80229.16666666676,
      "d": 799.479166666657,
      "v": 85
    },
    {
      "midi": 39,
      "hit": false,
      "t": 80687.50000000009,
      "d": 531.25,
      "v": 61
    },
    {
      "midi": 51,
      "hit": false,
      "t": 80695.31250000009,
      "d": 585.9375,
      "v": 48
    },
    {
      "midi": 75,
      "hit": false,
      "t": 80984.37500000009,
      "d": 322.9166666666715,
      "v": 74
    },
    {
      "midi": 77,
      "hit": false,
      "t": 81312.50000000009,
      "d": 104.16666666667152,
      "v": 87
    },
    {
      "midi": 75,
      "hit": false,
      "t": 81507.81250000009,
      "d": 49.47916666667152,
      "v": 57
    },
    {
      "midi": 77,
      "hit": false,
      "t": 81562.50000000009,
      "d": 109.375,
      "v": 84
    },
    {
      "midi": 75,
      "hit": false,
      "t": 81619.79166666676,
      "d": 270.83333333331393,
      "v": 86
    },
    {
      "midi": 67,
      "hit": false,
      "t": 81820.31250000009,
      "d": 195.31249999998545,
      "v": 41
    },
    {
      "midi": 63,
      "hit": false,
      "t": 81833.33333333342,
      "d": 291.66666666665697,
      "v": 44
    },
    {
      "midi": 55,
      "hit": false,
      "t": 81833.33333333342,
      "d": 372.3958333333285,
      "v": 32
    },
    {
      "midi": 58,
      "hit": false,
      "t": 81833.33333333342,
      "d": 375,
      "v": 39
    },
    {
      "midi": 74,
      "hit": false,
      "t": 81861.97916666674,
      "d": 325.5208333333285,
      "v": 92
    },
    {
      "midi": 75,
      "hit": false,
      "t": 82111.97916666674,
      "d": 257.81250000001455,
      "v": 82
    },
    {
      "midi": 77,
      "hit": false,
      "t": 82312.50000000009,
      "d": 218.75000000001455,
      "v": 95
    },
    {
      "midi": 79,
      "hit": false,
      "t": 82520.83333333343,
      "d": 36.458333333343035,
      "v": 89
    },
    {
      "midi": 79,
      "hit": false,
      "t": 82721.35416666677,
      "d": 260.4166666666715,
      "v": 93
    },
    {
      "midi": 32,
      "hit": false,
      "t": 82755.20833333344,
      "d": 494.7916666666715,
      "v": 43
    },
    {
      "midi": 44,
      "hit": false,
      "t": 82755.20833333344,
      "d": 536.4583333333285,
      "v": 44
    },
    {
      "midi": 72,
      "hit": false,
      "t": 82882.81250000012,
      "d": 2294.2708333333285,
      "v": 89
    },
    {
      "midi": 67,
      "hit": false,
      "t": 83708.33333333344,
      "d": 312.5,
      "v": 56
    },
    {
      "midi": 56,
      "hit": false,
      "t": 83721.35416666677,
      "d": 585.9375,
      "v": 39
    },
    {
      "midi": 60,
      "hit": false,
      "t": 83739.58333333344,
      "d": 528.6458333333285,
      "v": 39
    },
    {
      "midi": 38,
      "hit": false,
      "t": 84638.02083333344,
      "d": 403.6458333333285,
      "v": 55
    },
    {
      "midi": 50,
      "hit": false,
      "t": 84643.22916666677,
      "d": 486.9791666666715,
      "v": 48
    },
    {
      "midi": 77,
      "hit": false,
      "t": 85481.77083333344,
      "d": 1143.229166666686,
      "v": 100
    },
    {
      "midi": 56,
      "hit": false,
      "t": 85505.20833333344,
      "d": 528.645833333343,
      "v": 51
    },
    {
      "midi": 65,
      "hit": false,
      "t": 85513.02083333344,
      "d": 265.625,
      "v": 52
    },
    {
      "midi": 60,
      "hit": false,
      "t": 85531.25000000012,
      "d": 406.25,
      "v": 37
    },
    {
      "midi": 71,
      "hit": false,
      "t": 86255.20833333346,
      "d": 901.0416666666715,
      "v": 62
    },
    {
      "midi": 31,
      "hit": false,
      "t": 86479.16666666679,
      "d": 429.68750000001455,
      "v": 68
    },
    {
      "midi": 75,
      "hit": false,
      "t": 86479.16666666679,
      "d": 1773.4375000000146,
      "v": 88
    },
    {
      "midi": 43,
      "hit": false,
      "t": 86481.77083333346,
      "d": 546.875,
      "v": 54
    },
    {
      "midi": 65,
      "hit": false,
      "t": 87570.31250000013,
      "d": 476.5625,
      "v": 72
    },
    {
      "midi": 59,
      "hit": false,
      "t": 87588.5416666668,
      "d": 570.3125,
      "v": 47
    },
    {
      "midi": 55,
      "hit": false,
      "t": 87601.56250000013,
      "d": 502.6041666666715,
      "v": 41
    },
    {
      "midi": 74,
      "hit": false,
      "t": 88156.25000000013,
      "d": 765.625,
      "v": 77
    },
    {
      "midi": 32,
      "hit": false,
      "t": 88604.1666666668,
      "d": 500,
      "v": 82
    },
    {
      "midi": 44,
      "hit": false,
      "t": 88606.77083333347,
      "d": 601.5624999999854,
      "v": 67
    },
    {
      "midi": 72,
      "hit": false,
      "t": 88877.6041666668,
      "d": 273.4375,
      "v": 95
    },
    {
      "midi": 74,
      "hit": false,
      "t": 89171.87500000013,
      "d": 44.27083333332848,
      "v": 89
    },
    {
      "midi": 72,
      "hit": false,
      "t": 89296.87500000013,
      "d": 44.27083333332848,
      "v": 82
    },
    {
      "midi": 74,
      "hit": false,
      "t": 89364.58333333346,
      "d": 135.41666666667152,
      "v": 91
    },
    {
      "midi": 72,
      "hit": false,
      "t": 89427.08333333346,
      "d": 250,
      "v": 92
    },
    {
      "midi": 63,
      "hit": false,
      "t": 89625.00000000013,
      "d": 239.58333333332848,
      "v": 69
    },
    {
      "midi": 71,
      "hit": false,
      "t": 89645.83333333346,
      "d": 281.25,
      "v": 84
    },
    {
      "midi": 56,
      "hit": false,
      "t": 89651.04166666679,
      "d": 507.8125,
      "v": 55
    },
    {
      "midi": 51,
      "hit": false,
      "t": 89651.04166666679,
      "d": 585.9375,
      "v": 46
    },
    {
      "midi": 72,
      "hit": false,
      "t": 89869.79166666679,
      "d": 281.25,
      "v": 103
    },
    {
      "midi": 74,
      "hit": false,
      "t": 90080.72916666679,
      "d": 197.91666666667152,
      "v": 100
    },
    {
      "midi": 75,
      "hit": false,
      "t": 90276.04166666679,
      "d": 372.39583333334303,
      "v": 90
    },
    {
      "midi": 39,
      "hit": false,
      "t": 90562.50000000013,
      "d": 499.99999999998545,
      "v": 76
    },
    {
      "midi": 27,
      "hit": false,
      "t": 90565.1041666668,
      "d": 429.68749999998545,
      "v": 82
    },
    {
      "midi": 67,
      "hit": false,
      "t": 90565.1041666668,
      "d": 554.6874999999854,
      "v": 93
    },
    {
      "midi": 84,
      "hit": false,
      "t": 91658.85416666679,
      "d": 1536.458333333343,
      "v": 112
    },
    {
      "midi": 60,
      "hit": false,
      "t": 91674.47916666679,
      "d": 549.4791666666715,
      "v": 67
    },
    {
      "midi": 48,
      "hit": false,
      "t": 91692.70833333346,
      "d": 697.9166666666715,
      "v": 53
    },
    {
      "midi": 55,
      "hit": false,
      "t": 91703.12500000013,
      "d": 653.6458333333285,
      "v": 56
    },
    {
      "midi": 29,
      "hit": false,
      "t": 92718.75000000013,
      "d": 749.9999999999854,
      "v": 88
    },
    {
      "midi": 41,
      "hit": false,
      "t": 92718.75000000013,
      "d": 838.541666666657,
      "v": 79
    },
    {
      "midi": 83,
      "hit": false,
      "t": 93067.70833333346,
      "d": 416.66666666665697,
      "v": 87
    },
    {
      "midi": 82,
      "hit": false,
      "t": 93416.66666666679,
      "d": 343.75,
      "v": 105
    },
    {
      "midi": 81,
      "hit": false,
      "t": 93700.52083333346,
      "d": 320.3125,
      "v": 101
    },
    {
      "midi": 61,
      "hit": false,
      "t": 93932.29166666679,
      "d": 351.56250000001455,
      "v": 62
    },
    {
      "midi": 80,
      "hit": false,
      "t": 93947.91666666679,
      "d": 312.50000000001455,
      "v": 94
    },
    {
      "midi": 56,
      "hit": false,
      "t": 93950.52083333346,
      "d": 533.8541666666715,
      "v": 58
    },
    {
      "midi": 49,
      "hit": false,
      "t": 93960.93750000013,
      "d": 565.1041666666715,
      "v": 41
    },
    {
      "midi": 77,
      "hit": false,
      "t": 94210.93750000013,
      "d": 213.54166666667152,
      "v": 102
    },
    {
      "midi": 68,
      "hit": false,
      "t": 94440.1041666668,
      "d": 377.6041666666715,
      "v": 96
    },
    {
      "midi": 73,
      "hit": false,
      "t": 94721.3541666668,
      "d": 757.8125,
      "v": 92
    },
    {
      "midi": 31,
      "hit": false,
      "t": 95041.6666666668,
      "d": 697.916666666657,
      "v": 60
    },
    {
      "midi": 43,
      "hit": false,
      "t": 95041.6666666668,
      "d": 789.0624999999854,
      "v": 55
    },
    {
      "midi": 64,
      "hit": false,
      "t": 95132.81250000013,
      "d": 934.8958333333285,
      "v": 96
    },
    {
      "midi": 72,
      "hit": false,
      "t": 95460.93750000013,
      "d": 335.93749999998545,
      "v": 95
    },
    {
      "midi": 75,
      "hit": false,
      "t": 95760.41666666679,
      "d": 67.70833333332848,
      "v": 79
    },
    {
      "midi": 73,
      "hit": false,
      "t": 95796.87500000012,
      "d": 283.8541666666715,
      "v": 90
    },
    {
      "midi": 72,
      "hit": false,
      "t": 96026.04166666679,
      "d": 367.18749999998545,
      "v": 95
    },
    {
      "midi": 75,
      "hit": false,
      "t": 96283.85416666679,
      "d": 304.68749999998545,
      "v": 85
    },
    {
      "midi": 58,
      "hit": false,
      "t": 96289.06250000012,
      "d": 497.3958333333285,
      "v": 56
    },
    {
      "midi": 60,
      "hit": false,
      "t": 96296.87500000012,
      "d": 421.87499999998545,
      "v": 50
    },
    {
      "midi": 52,
      "hit": false,
      "t": 96317.70833333344,
      "d": 466.1458333333285,
      "v": 41
    },
    {
      "midi": 76,
      "hit": false,
      "t": 96539.0625000001,
      "d": 356.77083333334303,
      "v": 97
    },
    {
      "midi": 80,
      "hit": false,
      "t": 96776.04166666677,
      "d": 192.70833333334303,
      "v": 89
    },
    {
      "midi": 79,
      "hit": false,
      "t": 97015.62500000012,
      "d": 138.02083333332848,
      "v": 94
    },
    {
      "midi": 32,
      "hit": false,
      "t": 97174.47916666677,
      "d": 460.93749999998545,
      "v": 62
    },
    {
      "midi": 44,
      "hit": false,
      "t": 97234.3750000001,
      "d": 505.20833333331393,
      "v": 71
    },
    {
      "midi": 65,
      "hit": false,
      "t": 97257.8125000001,
      "d": 268.22916666665697,
      "v": 98
    },
    {
      "midi": 72,
      "hit": false,
      "t": 97502.60416666676,
      "d": 127.60416666667152,
      "v": 102
    },
    {
      "midi": 77,
      "hit": false,
      "t": 97726.56250000009,
      "d": 317.7083333333285,
      "v": 108
    },
    {
      "midi": 79,
      "hit": false,
      "t": 97976.56250000009,
      "d": 351.5625,
      "v": 102
    },
    {
      "midi": 82,
      "hit": false,
      "t": 98255.20833333342,
      "d": 432.2916666666715,
      "v": 103
    },
    {
      "midi": 53,
      "hit": false,
      "t": 98255.20833333342,
      "d": 489.5833333333285,
      "v": 66
    },
    {
      "midi": 60,
      "hit": false,
      "t": 98257.81250000009,
      "d": 434.8958333333285,
      "v": 75
    },
    {
      "midi": 80,
      "hit": false,
      "t": 98549.47916666676,
      "d": 315.10416666665697,
      "v": 96
    },
    {
      "midi": 72,
      "hit": false,
      "t": 98822.91666666674,
      "d": 354.1666666666715,
      "v": 103
    },
    {
      "midi": 74,
      "hit": false,
      "t": 99125.00000000009,
      "d": 479.1666666666715,
      "v": 105
    },
    {
      "midi": 43,
      "hit": false,
      "t": 99481.77083333342,
      "d": 671.8750000000146,
      "v": 72
    },
    {
      "midi": 31,
      "hit": false,
      "t": 99484.37500000009,
      "d": 544.270833333343,
      "v": 90
    },
    {
      "midi": 75,
      "hit": false,
      "t": 99486.97916666676,
      "d": 1075.520833333343,
      "v": 92
    },
    {
      "midi": 51,
      "hit": false,
      "t": 100570.3125000001,
      "d": 747.395833333343,
      "v": 73
    },
    {
      "midi": 60,
      "hit": false,
      "t": 100575.52083333343,
      "d": 627.6041666666715,
      "v": 78
    },
    {
      "midi": 55,
      "hit": false,
      "t": 100588.54166666676,
      "d": 656.2500000000146,
      "v": 69
    },
    {
      "midi": 72,
      "hit": false,
      "t": 101192.70833333343,
      "d": 208.33333333334303,
      "v": 96
    },
    {
      "midi": 74,
      "hit": false,
      "t": 101388.02083333344,
      "d": 205.72916666667152,
      "v": 96
    },
    {
      "midi": 72,
      "hit": false,
      "t": 101544.27083333344,
      "d": 268.22916666665697,
      "v": 103
    },
    {
      "midi": 67,
      "hit": false,
      "t": 101695.31250000012,
      "d": 1705.729166666657,
      "v": 95
    },
    {
      "midi": 31,
      "hit": false,
      "t": 101700.52083333344,
      "d": 697.916666666657,
      "v": 85
    },
    {
      "midi": 43,
      "hit": false,
      "t": 101700.52083333344,
      "d": 789.0624999999854,
      "v": 81
    },
    {
      "midi": 59,
      "hit": false,
      "t": 102968.7500000001,
      "d": 669.270833333343,
      "v": 57
    },
    {
      "midi": 55,
      "hit": false,
      "t": 102976.5625000001,
      "d": 705.7291666666715,
      "v": 49
    },
    {
      "midi": 50,
      "hit": false,
      "t": 102984.3750000001,
      "d": 716.145833333343,
      "v": 51
    },
    {
      "midi": 67,
      "hit": false,
      "t": 103614.58333333344,
      "d": 174.47916666667152,
      "v": 86
    },
    {
      "midi": 68,
      "hit": false,
      "t": 103825.52083333344,
      "d": 203.125,
      "v": 85
    },
    {
      "midi": 67,
      "hit": false,
      "t": 104036.45833333344,
      "d": 49.47916666667152,
      "v": 98
    },
    {
      "midi": 60,
      "hit": false,
      "t": 104375.00000000012,
      "d": 4523.437500000029,
      "v": 101
    },
    {
      "midi": 36,
      "hit": false,
      "t": 104388.02083333344,
      "d": 369.7916666666715,
      "v": 64
    },
    {
      "midi": 24,
      "hit": false,
      "t": 104393.22916666677,
      "d": 302.08333333334303,
      "v": 63
    },
    {
      "midi": 55,
      "hit": false,
      "t": 105510.41666666679,
      "d": 1296.8750000000146,
      "v": 34
    },
    {
      "midi": 58,
      "hit": false,
      "t": 105528.64583333346,
      "d": 835.9375,
      "v": 73
    },
    {
      "midi": 54,
      "hit": false,
      "t": 106781.25000000013,
      "d": 1281.2500000000146,
      "v": 39
    },
    {
      "midi": 57,
      "hit": false,
      "t": 106789.06250000013,
      "d": 1372.395833333343,
      "v": 32
    },
    {
      "midi": 24,
      "hit": false,
      "t": 107250.00000000013,
      "d": 1484.3750000000146,
      "v": 9
    },
    {
      "midi": 36,
      "hit": false,
      "t": 107364.58333333347,
      "d": 1458.333333333343,
      "v": 2
    },
    {
      "midi": 56,
      "hit": false,
      "t": 107953.12500000015,
      "d": 945.3125,
      "v": 33
    },
    {
      "midi": 53,
      "hit": false,
      "t": 107986.97916666682,
      "d": 916.666666666657,
      "v": 32
    },
    {
      "midi": 64,
      "hit": false,
      "t": 109937.50000000015,
      "d": 2197.916666666657,
      "v": 31
    },
    {
      "midi": 36,
      "hit": false,
      "t": 109955.72916666682,
      "d": 1624.9999999999854,
      "v": 15
    },
    {
      "midi": 48,
      "hit": false,
      "t": 109958.33333333349,
      "d": 1473.958333333314,
      "v": 11
    },
    {
      "midi": 60,
      "hit": false,
      "t": 109963.54166666682,
      "d": 1656.2499999999854,
      "v": 10
    },
    {
      "midi": 52,
      "hit": false,
      "t": 109976.56250000015,
      "d": 1143.229166666657,
      "v": 18
    },
    {
      "midi": 43,
      "hit": false,
      "t": 109981.77083333347,
      "d": 1580.729166666657,
      "v": 16
    },
    {
      "midi": 55,
      "hit": false,
      "t": 109989.58333333347,
      "d": 1505.2083333333285,
      "v": 5
    },
    {
      "midi": 62,
      "hit": false,
      "t": 112317.70833333347,
      "d": 1372.3958333333285,
      "v": 36
    },
    {
      "midi": 43,
      "hit": false,
      "t": 112351.56250000015,
      "d": 697.9166666666715,
      "v": 19
    },
    {
      "midi": 59,
      "hit": false,
      "t": 112354.16666666682,
      "d": 739.5833333333285,
      "v": 17
    },
    {
      "midi": 53,
      "hit": false,
      "t": 112369.79166666682,
      "d": 734.375,
      "v": 21
    },
    {
      "midi": 55,
      "hit": false,
      "t": 112375.00000000015,
      "d": 713.5416666666715,
      "v": 18
    },
    {
      "midi": 31,
      "hit": false,
      "t": 112398.43750000015,
      "d": 1528.6458333333285,
      "v": 22
    },
    {
      "midi": 64,
      "hit": false,
      "t": 113578.12500000015,
      "d": 401.0416666666715,
      "v": 47
    },
    {
      "midi": 43,
      "hit": false,
      "t": 113604.16666666682,
      "d": 401.0416666666715,
      "v": 28
    },
    {
      "midi": 59,
      "hit": false,
      "t": 113625.00000000015,
      "d": 330.7291666666715,
      "v": 23
    },
    {
      "midi": 53,
      "hit": false,
      "t": 113630.20833333347,
      "d": 307.2916666666715,
      "v": 26
    },
    {
      "midi": 55,
      "hit": false,
      "t": 113638.02083333347,
      "d": 278.6458333333285,
      "v": 26
    },
    {
      "midi": 65,
      "hit": false,
      "t": 114348.95833333349,
      "d": 52.083333333343035,
      "v": 70
    },
    {
      "midi": 43,
      "hit": false,
      "t": 114382.81250000016,
      "d": 70.3125,
      "v": 34
    },
    {
      "midi": 59,
      "hit": false,
      "t": 114385.41666666683,
      "d": 52.08333333332848,
      "v": 30
    },
    {
      "midi": 53,
      "hit": false,
      "t": 114398.43750000016,
      "d": 78.125,
      "v": 10
    },
    {
      "midi": 64,
      "hit": false,
      "t": 114729.16666666683,
      "d": 380.2083333333285,
      "v": 58
    },
    {
      "midi": 60,
      "hit": false,
      "t": 114757.81250000016,
      "d": 453.125,
      "v": 18
    },
    {
      "midi": 48,
      "hit": false,
      "t": 114783.85416666683,
      "d": 367.1875,
      "v": 20
    },
    {
      "midi": 36,
      "hit": false,
      "t": 114789.06250000016,
      "d": 372.39583333334303,
      "v": 34
    },
    {
      "midi": 52,
      "hit": false,
      "t": 114864.58333333349,
      "d": 317.70833333334303,
      "v": 2
    },
    {
      "midi": 55,
      "hit": false,
      "t": 114958.33333333349,
      "d": 255.20833333334303,
      "v": 2
    },
    {
      "midi": 43,
      "hit": false,
      "t": 114973.95833333349,
      "d": 216.14583333334303,
      "v": 8
    },
    {
      "midi": 55,
      "hit": false,
      "t": 115682.29166666683,
      "d": 1114.583333333343,
      "v": 57
    },
    {
      "midi": 48,
      "hit": false,
      "t": 115721.35416666683,
      "d": 437.50000000001455,
      "v": 29
    },
    {
      "midi": 52,
      "hit": false,
      "t": 115726.56250000016,
      "d": 406.25000000001455,
      "v": 25
    },
    {
      "midi": 36,
      "hit": false,
      "t": 115739.58333333349,
      "d": 375.00000000001455,
      "v": 28
    },
    {
      "midi": 43,
      "hit": false,
      "t": 115739.58333333349,
      "d": 429.6875000000291,
      "v": 19
    },
    {
      "midi": 60,
      "hit": false,
      "t": 116661.45833333352,
      "d": 674.479166666657,
      "v": 57
    },
    {
      "midi": 52,
      "hit": false,
      "t": 116682.29166666685,
      "d": 552.0833333333285,
      "v": 47
    },
    {
      "midi": 43,
      "hit": false,
      "t": 116690.10416666685,
      "d": 583.3333333333285,
      "v": 33
    },
    {
      "midi": 48,
      "hit": false,
      "t": 116718.75000000017,
      "d": 348.9583333333285,
      "v": 17
    },
    {
      "midi": 36,
      "hit": false,
      "t": 116734.37500000017,
      "d": 312.5,
      "v": 30
    },
    {
      "midi": 64,
      "hit": false,
      "t": 117690.10416666685,
      "d": 786.4583333333285,
      "v": 67
    },
    {
      "midi": 55,
      "hit": false,
      "t": 117726.56250000017,
      "d": 330.7291666666715,
      "v": 23
    },
    {
      "midi": 48,
      "hit": false,
      "t": 117726.56250000017,
      "d": 351.5625,
      "v": 34
    },
    {
      "midi": 60,
      "hit": false,
      "t": 117726.56250000017,
      "d": 382.8125,
      "v": 32
    },
    {
      "midi": 43,
      "hit": false,
      "t": 117744.79166666685,
      "d": 304.6875,
      "v": 24
    },
    {
      "midi": 36,
      "hit": false,
      "t": 117755.20833333352,
      "d": 239.58333333332848,
      "v": 18
    },
    {
      "midi": 67,
      "hit": false,
      "t": 118848.9583333335,
      "d": 1986.979166666686,
      "v": 64
    },
    {
      "midi": 36,
      "hit": false,
      "t": 118875.00000000017,
      "d": 2075.5208333333576,
      "v": 29
    },
    {
      "midi": 55,
      "hit": false,
      "t": 118882.81250000017,
      "d": 1023.4375,
      "v": 22
    },
    {
      "midi": 60,
      "hit": false,
      "t": 118906.25000000017,
      "d": 1156.25,
      "v": 36
    },
    {
      "midi": 43,
      "hit": false,
      "t": 118914.06250000017,
      "d": 1479.1666666666715,
      "v": 20
    },
    {
      "midi": 52,
      "hit": false,
      "t": 118945.31250000017,
      "d": 1236.9791666666715,
      "v": 21
    },
    {
      "midi": 64,
      "hit": false,
      "t": 120752.60416666685,
      "d": 533.8541666667006,
      "v": 57
    },
    {
      "midi": 57,
      "hit": false,
      "t": 120776.04166666685,
      "d": 453.1250000000291,
      "v": 23
    },
    {
      "midi": 45,
      "hit": false,
      "t": 120778.64583333352,
      "d": 424.47916666668607,
      "v": 28
    },
    {
      "midi": 60,
      "hit": false,
      "t": 120783.85416666685,
      "d": 492.1875000000291,
      "v": 19
    },
    {
      "midi": 52,
      "hit": false,
      "t": 120817.70833333352,
      "d": 338.54166666668607,
      "v": 13
    },
    {
      "midi": 33,
      "hit": false,
      "t": 121494.79166666688,
      "d": 760.416666666657,
      "v": 27
    },
    {
      "midi": 45,
      "hit": false,
      "t": 121572.91666666688,
      "d": 598.9583333333285,
      "v": 48
    },
    {
      "midi": 52,
      "hit": false,
      "t": 121658.85416666688,
      "d": 80.72916666667152,
      "v": 28
    },
    {
      "midi": 57,
      "hit": false,
      "t": 121739.58333333355,
      "d": 447.91666666665697,
      "v": 38
    },
    {
      "midi": 64,
      "hit": false,
      "t": 121830.72916666688,
      "d": 57.29166666667152,
      "v": 54
    },
    {
      "midi": 62,
      "hit": false,
      "t": 121963.54166666688,
      "d": 229.16666666665697,
      "v": 62
    },
    {
      "midi": 60,
      "hit": false,
      "t": 122723.95833333353,
      "d": 1734.375000000029,
      "v": 69
    },
    {
      "midi": 45,
      "hit": false,
      "t": 122750.0000000002,
      "d": 52.083333333343035,
      "v": 44
    },
    {
      "midi": 52,
      "hit": false,
      "t": 122752.60416666688,
      "d": 70.31250000001455,
      "v": 52
    },
    {
      "midi": 33,
      "hit": false,
      "t": 122760.41666666688,
      "d": 52.083333333343035,
      "v": 47
    },
    {
      "midi": 57,
      "hit": false,
      "t": 122979.16666666689,
      "d": 1549.4791666666715,
      "v": 2
    },
    {
      "midi": 62,
      "hit": false,
      "t": 123062.50000000022,
      "d": 1471.3541666666715,
      "v": 47
    },
    {
      "midi": 54,
      "hit": false,
      "t": 123078.12500000022,
      "d": 1388.020833333343,
      "v": 42
    },
    {
      "midi": 50,
      "hit": false,
      "t": 123104.16666666689,
      "d": 1307.2916666666715,
      "v": 29
    },
    {
      "midi": 26,
      "hit": false,
      "t": 123114.58333333356,
      "d": 1177.083333333343,
      "v": 42
    },
    {
      "midi": 38,
      "hit": false,
      "t": 123125.00000000023,
      "d": 1265.625,
      "v": 34
    },
    {
      "midi": 62,
      "hit": false,
      "t": 125028.64583333356,
      "d": 674.4791666666424,
      "v": 40
    },
    {
      "midi": 50,
      "hit": false,
      "t": 125044.27083333356,
      "d": 552.0833333333139,
      "v": 25
    },
    {
      "midi": 59,
      "hit": false,
      "t": 125049.47916666689,
      "d": 664.0624999999854,
      "v": 39
    },
    {
      "midi": 55,
      "hit": false,
      "t": 125062.50000000022,
      "d": 614.5833333333285,
      "v": 29
    },
    {
      "midi": 43,
      "hit": false,
      "t": 125062.50000000022,
      "d": 619.791666666657,
      "v": 24
    },
    {
      "midi": 31,
      "hit": false,
      "t": 125114.58333333355,
      "d": 471.35416666665697,
      "v": 27
    },
    {
      "midi": 67,
      "hit": false,
      "t": 126268.22916666688,
      "d": 851.5625000000291,
      "v": 61
    },
    {
      "midi": 55,
      "hit": false,
      "t": 126283.85416666688,
      "d": 341.1458333333576,
      "v": 40
    },
    {
      "midi": 59,
      "hit": false,
      "t": 126286.45833333355,
      "d": 419.2708333333576,
      "v": 33
    },
    {
      "midi": 53,
      "hit": false,
      "t": 126312.50000000022,
      "d": 302.08333333334303,
      "v": 29
    },
    {
      "midi": 63,
      "hit": false,
      "t": 126312.50000000022,
      "d": 500.00000000001455,
      "v": 34
    },
    {
      "midi": 43,
      "hit": false,
      "t": 126330.72916666689,
      "d": 283.8541666666715,
      "v": 25
    },
    {
      "midi": 36,
      "hit": false,
      "t": 126937.50000000023,
      "d": 52.08333333332848,
      "v": 61
    },
    {
      "midi": 43,
      "hit": false,
      "t": 127046.87500000023,
      "d": 52.083333333343035,
      "v": 61
    },
    {
      "midi": 48,
      "hit": false,
      "t": 127132.81250000023,
      "d": 1414.0625000000146,
      "v": 57
    },
    {
      "midi": 55,
      "hit": false,
      "t": 127268.2291666669,
      "d": 1213.5416666666715,
      "v": 54
    },
    {
      "midi": 64,
      "hit": false,
      "t": 127364.58333333358,
      "d": 716.1458333333285,
      "v": 59
    },
    {
      "midi": 67,
      "hit": false,
      "t": 127447.9166666669,
      "d": 971.3541666666715,
      "v": 62
    },
    {
      "midi": 76,
      "hit": false,
      "t": 127583.33333333358,
      "d": 1841.145833333343,
      "v": 88
    },
    {
      "midi": 36,
      "hit": false,
      "t": 129197.91666666692,
      "d": 161.45833333332848,
      "v": 44
    },
    {
      "midi": 43,
      "hit": false,
      "t": 129369.79166666692,
      "d": 72.91666666667152,
      "v": 52
    },
    {
      "midi": 53,
      "hit": false,
      "t": 129557.29166666692,
      "d": 658.8541666666861,
      "v": 45
    },
    {
      "midi": 74,
      "hit": false,
      "t": 129770.83333333359,
      "d": 791.6666666666715,
      "v": 71
    },
    {
      "midi": 62,
      "hit": false,
      "t": 129802.08333333359,
      "d": 684.895833333343,
      "v": 25
    },
    {
      "midi": 55,
      "hit": false,
      "t": 129812.50000000026,
      "d": 244.79166666667152,
      "v": 41
    },
    {
      "midi": 67,
      "hit": false,
      "t": 129812.50000000026,
      "d": 596.3541666666715,
      "v": 36
    },
    {
      "midi": 36,
      "hit": false,
      "t": 130468.75000000026,
      "d": 41.66666666667152,
      "v": 61
    },
    {
      "midi": 43,
      "hit": false,
      "t": 130578.12500000026,
      "d": 67.70833333332848,
      "v": 63
    },
    {
      "midi": 48,
      "hit": false,
      "t": 130664.06250000026,
      "d": 190.1041666666424,
      "v": 57
    },
    {
      "midi": 43,
      "hit": false,
      "t": 130739.58333333359,
      "d": 166.6666666666424,
      "v": 32
    },
    {
      "midi": 55,
      "hit": false,
      "t": 130799.47916666692,
      "d": 54.68749999998545,
      "v": 57
    },
    {
      "midi": 76,
      "hit": false,
      "t": 130807.29166666692,
      "d": 302.08333333334303,
      "v": 91
    },
    {
      "midi": 67,
      "hit": false,
      "t": 130820.31250000025,
      "d": 190.10416666665697,
      "v": 43
    },
    {
      "midi": 64,
      "hit": false,
      "t": 130833.33333333358,
      "d": 200.52083333332848,
      "v": 45
    },
    {
      "midi": 36,
      "hit": false,
      "t": 131013.02083333358,
      "d": 75.52083333334303,
      "v": 60
    },
    {
      "midi": 43,
      "hit": false,
      "t": 131135.41666666692,
      "d": 65.10416666668607,
      "v": 39
    },
    {
      "midi": 50,
      "hit": false,
      "t": 131195.31250000026,
      "d": 140.6250000000291,
      "v": 68
    },
    {
      "midi": 55,
      "hit": false,
      "t": 131322.91666666695,
      "d": 41.66666666668607,
      "v": 83
    },
    {
      "midi": 77,
      "hit": false,
      "t": 131322.91666666695,
      "d": 247.39583333334303,
      "v": 89
    },
    {
      "midi": 71,
      "hit": false,
      "t": 131351.5625000003,
      "d": 85.9375,
      "v": 37
    },
    {
      "midi": 67,
      "hit": false,
      "t": 131356.77083333363,
      "d": 221.35416666665697,
      "v": 30
    },
    {
      "midi": 65,
      "hit": false,
      "t": 131364.58333333363,
      "d": 208.33333333331393,
      "v": 25
    },
    {
      "midi": 36,
      "hit": false,
      "t": 131601.5625000003,
      "d": 54.6875,
      "v": 63
    },
    {
      "midi": 43,
      "hit": false,
      "t": 131716.14583333363,
      "d": 567.708333333343,
      "v": 58
    },
    {
      "midi": 64,
      "hit": false,
      "t": 131750.0000000003,
      "d": 494.79166666668607,
      "v": 52
    },
    {
      "midi": 67,
      "hit": false,
      "t": 131786.45833333363,
      "d": 526.0416666666861,
      "v": 54
    },
    {
      "midi": 48,
      "hit": false,
      "t": 131807.29166666698,
      "d": 432.29166666665697,
      "v": 51
    },
    {
      "midi": 72,
      "hit": false,
      "t": 131851.56250000032,
      "d": 463.54166666665697,
      "v": 68
    },
    {
      "midi": 76,
      "hit": false,
      "t": 131911.45833333366,
      "d": 281.2499999999709,
      "v": 76
    },
    {
      "midi": 55,
      "hit": false,
      "t": 131940.10416666698,
      "d": 260.41666666665697,
      "v": 66
    },
    {
      "midi": 67,
      "hit": false,
      "t": 132942.70833333363,
      "d": 489.58333333331393,
      "v": 71
    },
    {
      "midi": 55,
      "hit": false,
      "t": 132945.3125000003,
      "d": 367.1874999999709,
      "v": 57
    },
    {
      "midi": 36,
      "hit": false,
      "t": 132955.72916666695,
      "d": 307.29166666665697,
      "v": 44
    },
    {
      "midi": 60,
      "hit": false,
      "t": 132955.72916666695,
      "d": 481.77083333334303,
      "v": 54
    },
    {
      "midi": 64,
      "hit": false,
      "t": 132963.54166666695,
      "d": 523.4375,
      "v": 61
    },
    {
      "midi": 52,
      "hit": false,
      "t": 132989.5833333336,
      "d": 442.70833333334303,
      "v": 41
    },
    {
      "midi": 43,
      "hit": false,
      "t": 133010.41666666695,
      "d": 401.04166666665697,
      "v": 31
    },
    {
      "midi": 72,
      "hit": false,
      "t": 133947.91666666695,
      "d": 911.4583333332848,
      "v": 95
    },
    {
      "midi": 64,
      "hit": false,
      "t": 133953.1250000003,
      "d": 518.2291666666279,
      "v": 60
    },
    {
      "midi": 60,
      "hit": false,
      "t": 133955.72916666695,
      "d": 419.27083333331393,
      "v": 61
    },
    {
      "midi": 57,
      "hit": false,
      "t": 133958.3333333336,
      "d": 424.47916666665697,
      "v": 62
    },
    {
      "midi": 45,
      "hit": false,
      "t": 133958.3333333336,
      "d": 463.54166666665697,
      "v": 64
    },
    {
      "midi": 69,
      "hit": false,
      "t": 133960.93750000026,
      "d": 552.0833333333139,
      "v": 74
    },
    {
      "midi": 52,
      "hit": false,
      "t": 133979.16666666692,
      "d": 395.83333333334303,
      "v": 49
    },
    {
      "midi": 40,
      "hit": false,
      "t": 134700.52083333358,
      "d": 132.8125,
      "v": 72
    },
    {
      "midi": 64,
      "hit": false,
      "t": 134825.52083333358,
      "d": 187.4999999999709,
      "v": 68
    },
    {
      "midi": 52,
      "hit": false,
      "t": 134825.52083333358,
      "d": 447.91666666665697,
      "v": 66
    },
    {
      "midi": 67,
      "hit": false,
      "t": 134901.0416666669,
      "d": 117.1875,
      "v": 65
    },
    {
      "midi": 55,
      "hit": false,
      "t": 134971.3541666669,
      "d": 195.3125,
      "v": 75
    },
    {
      "midi": 71,
      "hit": false,
      "t": 134971.3541666669,
      "d": 539.0625000000291,
      "v": 62
    },
    {
      "midi": 76,
      "hit": false,
      "t": 135036.45833333355,
      "d": 645.8333333333721,
      "v": 98
    },
    {
      "midi": 36,
      "hit": false,
      "t": 135473.95833333358,
      "d": 127.60416666668607,
      "v": 83
    },
    {
      "midi": 43,
      "hit": false,
      "t": 135578.12500000026,
      "d": 46.875,
      "v": 82
    },
    {
      "midi": 48,
      "hit": false,
      "t": 135666.66666666692,
      "d": 41.666666666656965,
      "v": 66
    },
    {
      "midi": 52,
      "hit": false,
      "t": 135807.29166666692,
      "d": 62.5,
      "v": 55
    },
    {
      "midi": 55,
      "hit": false,
      "t": 135861.97916666692,
      "d": 1617.1875,
      "v": 77
    },
    {
      "midi": 60,
      "hit": false,
      "t": 135971.35416666692,
      "d": 1416.666666666657,
      "v": 57
    },
    {
      "midi": 64,
      "hit": false,
      "t": 136010.41666666692,
      "d": 39.0625,
      "v": 70
    },
    {
      "midi": 67,
      "hit": false,
      "t": 136088.54166666692,
      "d": 65.10416666665697,
      "v": 88
    },
    {
      "midi": 72,
      "hit": false,
      "t": 136187.50000000023,
      "d": 1471.354166666686,
      "v": 89
    },
    {
      "midi": 76,
      "hit": false,
      "t": 136302.08333333358,
      "d": 1408.854166666686,
      "v": 68
    },
    {
      "midi": 79,
      "hit": false,
      "t": 136382.81250000023,
      "d": 1731.7708333333721,
      "v": 101
    },
    {
      "midi": 40,
      "hit": false,
      "t": 138026.04166666695,
      "d": 161.45833333331393,
      "v": 62
    },
    {
      "midi": 47,
      "hit": false,
      "t": 138177.0833333336,
      "d": 54.6875,
      "v": 56
    },
    {
      "midi": 76,
      "hit": false,
      "t": 138348.9583333336,
      "d": 770.833333333343,
      "v": 97
    },
    {
      "midi": 68,
      "hit": false,
      "t": 138359.37500000026,
      "d": 734.3750000000291,
      "v": 58
    },
    {
      "midi": 64,
      "hit": false,
      "t": 138359.37500000026,
      "d": 869.7916666666861,
      "v": 69
    },
    {
      "midi": 71,
      "hit": false,
      "t": 138380.2083333336,
      "d": 1263.020833333343,
      "v": 32
    },
    {
      "midi": 56,
      "hit": false,
      "t": 138385.41666666695,
      "d": 513.020833333343,
      "v": 70
    },
    {
      "midi": 41,
      "hit": false,
      "t": 139239.5833333336,
      "d": 697.9166666666861,
      "v": 53
    },
    {
      "midi": 50,
      "hit": false,
      "t": 139359.37500000026,
      "d": 515.6250000000291,
      "v": 51
    },
    {
      "midi": 74,
      "hit": false,
      "t": 139518.22916666692,
      "d": 388.02083333337214,
      "v": 76
    },
    {
      "midi": 62,
      "hit": false,
      "t": 139539.06250000026,
      "d": 361.97916666668607,
      "v": 42
    },
    {
      "midi": 57,
      "hit": false,
      "t": 139539.06250000026,
      "d": 367.1875000000291,
      "v": 60
    },
    {
      "midi": 60,
      "hit": false,
      "t": 139544.2708333336,
      "d": 338.54166666668607,
      "v": 51
    },
    {
      "midi": 69,
      "hit": false,
      "t": 139549.47916666695,
      "d": 377.60416666668607,
      "v": 50
    },
    {
      "midi": 55,
      "hit": false,
      "t": 140427.08333333363,
      "d": 67.70833333334303,
      "v": 34
    },
    {
      "midi": 67,
      "hit": false,
      "t": 140427.08333333363,
      "d": 419.27083333331393,
      "v": 72
    },
    {
      "midi": 43,
      "hit": false,
      "t": 140432.29166666698,
      "d": 67.70833333334303,
      "v": 29
    },
    {
      "midi": 50,
      "hit": false,
      "t": 140447.91666666698,
      "d": 62.5,
      "v": 32
    },
    {
      "midi": 59,
      "hit": false,
      "t": 140455.72916666698,
      "d": 57.291666666656965,
      "v": 35
    },
    {
      "midi": 43,
      "hit": false,
      "t": 140601.5625000003,
      "d": 1419.270833333314,
      "v": 53
    },
    {
      "midi": 50,
      "hit": false,
      "t": 140611.97916666695,
      "d": 1296.875,
      "v": 54
    },
    {
      "midi": 59,
      "hit": false,
      "t": 140697.91666666695,
      "d": 41.666666666656965,
      "v": 51
    },
    {
      "midi": 55,
      "hit": false,
      "t": 140697.91666666695,
      "d": 1151.041666666657,
      "v": 41
    },
    {
      "midi": 59,
      "hit": false,
      "t": 140822.91666666695,
      "d": 223.95833333334303,
      "v": 58
    },
    {
      "midi": 65,
      "hit": false,
      "t": 140947.91666666695,
      "d": 2291.666666666657,
      "v": 56
    },
    {
      "midi": 67,
      "hit": false,
      "t": 141065.10416666695,
      "d": 2223.958333333314,
      "v": 44
    },
    {
      "midi": 74,
      "hit": false,
      "t": 141229.16666666695,
      "d": 416.66666666665697,
      "v": 35
    },
    {
      "midi": 72,
      "hit": false,
      "t": 141260.41666666695,
      "d": 65.10416666665697,
      "v": 37
    },
    {
      "midi": 74,
      "hit": false,
      "t": 141726.56250000026,
      "d": 2210.937499999971,
      "v": 84
    },
    {
      "midi": 43,
      "hit": false,
      "t": 142625.00000000026,
      "d": 710.9375,
      "v": 26
    },
    {
      "midi": 31,
      "hit": false,
      "t": 142630.2083333336,
      "d": 473.95833333334303,
      "v": 39
    },
    {
      "midi": 36,
      "hit": false,
      "t": 143731.77083333358,
      "d": 179.6875,
      "v": 36
    },
    {
      "midi": 43,
      "hit": false,
      "t": 143843.75000000023,
      "d": 80.72916666665697,
      "v": 37
    },
    {
      "midi": 48,
      "hit": false,
      "t": 143981.77083333358,
      "d": 67.70833333334303,
      "v": 40
    },
    {
      "midi": 55,
      "hit": false,
      "t": 144200.52083333358,
      "d": 200.52083333334303,
      "v": 26
    },
    {
      "midi": 60,
      "hit": false,
      "t": 144299.47916666692,
      "d": 1596.354166666657,
      "v": 38
    },
    {
      "midi": 64,
      "hit": false,
      "t": 144432.29166666692,
      "d": 1609.374999999971,
      "v": 38
    },
    {
      "midi": 55,
      "hit": false,
      "t": 144528.64583333358,
      "d": 1653.645833333314,
      "v": 2
    },
    {
      "midi": 72,
      "hit": false,
      "t": 144627.60416666692,
      "d": 1609.374999999971,
      "v": 60
    },
    {
      "midi": 48,
      "hit": false,
      "t": 144817.70833333358,
      "d": 1213.541666666657,
      "v": 2
    },
    {
      "midi": 41,
      "hit": false,
      "t": 146479.1666666669,
      "d": 52.083333333343035,
      "v": 59
    },
    {
      "midi": 48,
      "hit": false,
      "t": 146588.5416666669,
      "d": 52.083333333343035,
      "v": 60
    },
    {
      "midi": 53,
      "hit": false,
      "t": 146682.2916666669,
      "d": 1005.208333333343,
      "v": 39
    },
    {
      "midi": 81,
      "hit": false,
      "t": 146781.25000000023,
      "d": 1377.604166666657,
      "v": 102
    },
    {
      "midi": 72,
      "hit": false,
      "t": 146796.87500000023,
      "d": 1143.229166666657,
      "v": 76
    },
    {
      "midi": 69,
      "hit": false,
      "t": 146799.4791666669,
      "d": 1101.5625,
      "v": 71
    },
    {
      "midi": 60,
      "hit": false,
      "t": 146807.2916666669,
      "d": 835.9375,
      "v": 69
    },
    {
      "midi": 40,
      "hit": false,
      "t": 148286.45833333355,
      "d": 486.97916666662786,
      "v": 59
    },
    {
      "midi": 48,
      "hit": false,
      "t": 148348.95833333355,
      "d": 598.9583333332848,
      "v": 57
    },
    {
      "midi": 55,
      "hit": false,
      "t": 148419.27083333355,
      "d": 471.35416666662786,
      "v": 74
    },
    {
      "midi": 79,
      "hit": false,
      "t": 148421.8750000002,
      "d": 773.4374999999709,
      "v": 99
    },
    {
      "midi": 67,
      "hit": false,
      "t": 148432.29166666686,
      "d": 729.166666666657,
      "v": 58
    },
    {
      "midi": 72,
      "hit": false,
      "t": 148442.70833333352,
      "d": 658.854166666657,
      "v": 73
    },
    {
      "midi": 39,
      "hit": false,
      "t": 149062.50000000017,
      "d": 161.45833333334303,
      "v": 78
    },
    {
      "midi": 48,
      "hit": false,
      "t": 149200.52083333352,
      "d": 49.479166666656965,
      "v": 74
    },
    {
      "midi": 72,
      "hit": false,
      "t": 149307.29166666683,
      "d": 432.29166666665697,
      "v": 83
    },
    {
      "midi": 81,
      "hit": false,
      "t": 149307.29166666683,
      "d": 432.29166666665697,
      "v": 105
    },
    {
      "midi": 67,
      "hit": false,
      "t": 149335.93750000017,
      "d": 78.125,
      "v": 68
    },
    {
      "midi": 57,
      "hit": false,
      "t": 149335.93750000017,
      "d": 164.0625,
      "v": 81
    },
    {
      "midi": 69,
      "hit": false,
      "t": 149335.93750000017,
      "d": 322.91666666665697,
      "v": 52
    },
    {
      "midi": 38,
      "hit": false,
      "t": 149835.93750000015,
      "d": 140.625,
      "v": 74
    },
    {
      "midi": 45,
      "hit": false,
      "t": 149937.50000000015,
      "d": 57.291666666656965,
      "v": 71
    },
    {
      "midi": 50,
      "hit": false,
      "t": 150000.00000000015,
      "d": 39.0625,
      "v": 80
    },
    {
      "midi": 78,
      "hit": false,
      "t": 150125.00000000015,
      "d": 513.020833333343,
      "v": 86
    },
    {
      "midi": 66,
      "hit": false,
      "t": 150130.2083333335,
      "d": 531.25,
      "v": 68
    },
    {
      "midi": 69,
      "hit": false,
      "t": 150138.0208333335,
      "d": 434.89583333334303,
      "v": 68
    },
    {
      "midi": 74,
      "hit": false,
      "t": 150138.0208333335,
      "d": 500,
      "v": 79
    },
    {
      "midi": 57,
      "hit": false,
      "t": 150182.29166666683,
      "d": 432.29166666665697,
      "v": 69
    },
    {
      "midi": 45,
      "hit": false,
      "t": 150200.5208333335,
      "d": 414.0625,
      "v": 37
    },
    {
      "midi": 42,
      "hit": false,
      "t": 150757.81250000015,
      "d": 49.479166666656965,
      "v": 72
    },
    {
      "midi": 50,
      "hit": false,
      "t": 150859.37500000015,
      "d": 322.91666666665697,
      "v": 60
    },
    {
      "midi": 74,
      "hit": false,
      "t": 150895.8333333335,
      "d": 341.14583333331393,
      "v": 92
    },
    {
      "midi": 60,
      "hit": false,
      "t": 150903.6458333335,
      "d": 184.89583333331393,
      "v": 88
    },
    {
      "midi": 57,
      "hit": false,
      "t": 150903.6458333335,
      "d": 203.1249999999709,
      "v": 87
    },
    {
      "midi": 62,
      "hit": false,
      "t": 150903.6458333335,
      "d": 208.33333333331393,
      "v": 54
    },
    {
      "midi": 69,
      "hit": false,
      "t": 150906.25000000015,
      "d": 322.91666666665697,
      "v": 80
    },
    {
      "midi": 42,
      "hit": false,
      "t": 151283.8541666668,
      "d": 57.291666666656965,
      "v": 64
    },
    {
      "midi": 50,
      "hit": false,
      "t": 151364.58333333346,
      "d": 122.39583333334303,
      "v": 72
    },
    {
      "midi": 58,
      "hit": false,
      "t": 151432.2916666668,
      "d": 41.666666666656965,
      "v": 95
    },
    {
      "midi": 74,
      "hit": false,
      "t": 151450.52083333346,
      "d": 161.45833333334303,
      "v": 96
    },
    {
      "midi": 62,
      "hit": false,
      "t": 151455.7291666668,
      "d": 96.35416666665697,
      "v": 75
    },
    {
      "midi": 70,
      "hit": false,
      "t": 151455.7291666668,
      "d": 390.6249999999709,
      "v": 84
    },
    {
      "midi": 43,
      "hit": false,
      "t": 151572.9166666668,
      "d": 604.1666666666279,
      "v": 82
    },
    {
      "midi": 50,
      "hit": false,
      "t": 151606.77083333346,
      "d": 622.3958333332848,
      "v": 44
    },
    {
      "midi": 74,
      "hit": false,
      "t": 151770.83333333346,
      "d": 518.2291666666279,
      "v": 95
    },
    {
      "midi": 62,
      "hit": false,
      "t": 151773.43750000012,
      "d": 588.5416666666279,
      "v": 67
    },
    {
      "midi": 71,
      "hit": false,
      "t": 151773.43750000012,
      "d": 921.8749999999709,
      "v": 78
    },
    {
      "midi": 59,
      "hit": false,
      "t": 151781.25000000012,
      "d": 549.4791666666279,
      "v": 77
    },
    {
      "midi": 74,
      "hit": false,
      "t": 152625.0000000001,
      "d": 460.9374999999709,
      "v": 96
    },
    {
      "midi": 62,
      "hit": false,
      "t": 152627.60416666674,
      "d": 372.39583333331393,
      "v": 80
    },
    {
      "midi": 66,
      "hit": false,
      "t": 152627.60416666674,
      "d": 429.6874999999709,
      "v": 75
    },
    {
      "midi": 60,
      "hit": false,
      "t": 152643.22916666674,
      "d": 335.9375,
      "v": 66
    },
    {
      "midi": 45,
      "hit": false,
      "t": 152674.47916666674,
      "d": 341.14583333331393,
      "v": 51
    },
    {
      "midi": 50,
      "hit": false,
      "t": 152718.7500000001,
      "d": 296.8749999999709,
      "v": 36
    },
    {
      "midi": 43,
      "hit": false,
      "t": 153114.5833333334,
      "d": 169.27083333334303,
      "v": 93
    },
    {
      "midi": 50,
      "hit": false,
      "t": 153200.5208333334,
      "d": 111.97916666668607,
      "v": 84
    },
    {
      "midi": 55,
      "hit": false,
      "t": 153291.66666666674,
      "d": 130.20833333337214,
      "v": 88
    },
    {
      "midi": 83,
      "hit": false,
      "t": 153416.66666666677,
      "d": 1421.875,
      "v": 100
    },
    {
      "midi": 74,
      "hit": false,
      "t": 153424.47916666677,
      "d": 1393.229166666686,
      "v": 100
    },
    {
      "midi": 71,
      "hit": false,
      "t": 153424.47916666677,
      "d": 1395.833333333343,
      "v": 87
    },
    {
      "midi": 62,
      "hit": false,
      "t": 153453.12500000012,
      "d": 854.166666666657,
      "v": 94
    },
    {
      "midi": 42,
      "hit": false,
      "t": 154697.91666666677,
      "d": 187.5,
      "v": 87
    },
    {
      "midi": 50,
      "hit": false,
      "t": 154817.70833333346,
      "d": 627.6041666666861,
      "v": 88
    },
    {
      "midi": 57,
      "hit": false,
      "t": 154937.50000000012,
      "d": 322.91666666668607,
      "v": 95
    },
    {
      "midi": 81,
      "hit": false,
      "t": 154942.70833333346,
      "d": 744.7916666666861,
      "v": 112
    },
    {
      "midi": 69,
      "hit": false,
      "t": 154950.52083333346,
      "d": 705.7291666666861,
      "v": 90
    },
    {
      "midi": 74,
      "hit": false,
      "t": 154955.7291666668,
      "d": 669.270833333343,
      "v": 84
    },
    {
      "midi": 41,
      "hit": false,
      "t": 155500.00000000015,
      "d": 158.85416666665697,
      "v": 92
    },
    {
      "midi": 47,
      "hit": false,
      "t": 155604.1666666668,
      "d": 119.79166666668607,
      "v": 75
    },
    {
      "midi": 51,
      "hit": false,
      "t": 155674.4791666668,
      "d": 109.375,
      "v": 80
    },
    {
      "midi": 83,
      "hit": false,
      "t": 155773.43750000015,
      "d": 763.020833333343,
      "v": 101
    },
    {
      "midi": 81,
      "hit": false,
      "t": 155794.27083333346,
      "d": 39.0625,
      "v": 89
    },
    {
      "midi": 75,
      "hit": false,
      "t": 155796.87500000012,
      "d": 760.4166666667152,
      "v": 73
    },
    {
      "midi": 71,
      "hit": false,
      "t": 155796.87500000012,
      "d": 778.6458333333721,
      "v": 54
    },
    {
      "midi": 69,
      "hit": false,
      "t": 155796.87500000012,
      "d": 781.2500000000291,
      "v": 82
    },
    {
      "midi": 59,
      "hit": false,
      "t": 155802.08333333346,
      "d": 231.77083333334303,
      "v": 88
    },
    {
      "midi": 40,
      "hit": false,
      "t": 156380.20833333346,
      "d": 216.14583333337214,
      "v": 97
    },
    {
      "midi": 47,
      "hit": false,
      "t": 156507.81250000015,
      "d": 132.8125000000291,
      "v": 73
    },
    {
      "midi": 52,
      "hit": false,
      "t": 156625.00000000017,
      "d": 44.270833333343035,
      "v": 87
    },
    {
      "midi": 80,
      "hit": false,
      "t": 156781.25000000017,
      "d": 1416.666666666686,
      "v": 103
    },
    {
      "midi": 76,
      "hit": false,
      "t": 156786.45833333352,
      "d": 1388.020833333343,
      "v": 94
    },
    {
      "midi": 71,
      "hit": false,
      "t": 156796.87500000017,
      "d": 1346.354166666686,
      "v": 76
    },
    {
      "midi": 68,
      "hit": false,
      "t": 156796.87500000017,
      "d": 1393.229166666686,
      "v": 73
    },
    {
      "midi": 59,
      "hit": false,
      "t": 156815.10416666683,
      "d": 848.958333333343,
      "v": 73
    },
    {
      "midi": 40,
      "hit": false,
      "t": 157989.58333333352,
      "d": 145.83333333334303,
      "v": 78
    },
    {
      "midi": 47,
      "hit": false,
      "t": 158114.58333333352,
      "d": 778.6458333333139,
      "v": 72
    },
    {
      "midi": 52,
      "hit": false,
      "t": 158263.02083333352,
      "d": 684.8958333333139,
      "v": 79
    },
    {
      "midi": 79,
      "hit": false,
      "t": 158419.27083333352,
      "d": 692.7083333333139,
      "v": 102
    },
    {
      "midi": 67,
      "hit": false,
      "t": 158427.08333333352,
      "d": 783.854166666657,
      "v": 76
    },
    {
      "midi": 71,
      "hit": false,
      "t": 158437.50000000017,
      "d": 463.54166666665697,
      "v": 65
    },
    {
      "midi": 76,
      "hit": false,
      "t": 158437.50000000017,
      "d": 1002.604166666657,
      "v": 90
    },
    {
      "midi": 59,
      "hit": false,
      "t": 158460.93750000017,
      "d": 346.35416666665697,
      "v": 55
    },
    {
      "midi": 43,
      "hit": false,
      "t": 159257.81250000017,
      "d": 997.3958333333139,
      "v": 51
    },
    {
      "midi": 50,
      "hit": false,
      "t": 159343.75000000017,
      "d": 851.5624999999709,
      "v": 48
    },
    {
      "midi": 79,
      "hit": false,
      "t": 159414.06250000017,
      "d": 1460.9374999999418,
      "v": 91
    },
    {
      "midi": 74,
      "hit": false,
      "t": 159419.27083333352,
      "d": 450.52083333331393,
      "v": 77
    },
    {
      "midi": 65,
      "hit": false,
      "t": 159424.47916666686,
      "d": 700.5208333332848,
      "v": 71
    },
    {
      "midi": 67,
      "hit": false,
      "t": 159427.08333333352,
      "d": 739.5833333332848,
      "v": 77
    },
    {
      "midi": 59,
      "hit": false,
      "t": 159437.50000000017,
      "d": 645.8333333333139,
      "v": 52
    },
    {
      "midi": 77,
      "hit": false,
      "t": 159815.10416666683,
      "d": 890.6249999999709,
      "v": 91
    },
    {
      "midi": 36,
      "hit": false,
      "t": 160570.31250000015,
      "d": 135.41666666665697,
      "v": 48
    },
    {
      "midi": 76,
      "hit": false,
      "t": 160705.7291666668,
      "d": 158.85416666665697,
      "v": 78
    },
    {
      "midi": 43,
      "hit": false,
      "t": 160723.95833333346,
      "d": 114.58333333334303,
      "v": 59
    },
    {
      "midi": 48,
      "hit": false,
      "t": 160861.9791666668,
      "d": 1499.999999999971,
      "v": 51
    },
    {
      "midi": 55,
      "hit": false,
      "t": 161002.60416666677,
      "d": 1257.8125,
      "v": 47
    },
    {
      "midi": 64,
      "hit": false,
      "t": 161093.75000000012,
      "d": 49.479166666656965,
      "v": 53
    },
    {
      "midi": 72,
      "hit": false,
      "t": 161192.70833333343,
      "d": 1544.270833333343,
      "v": 61
    },
    {
      "midi": 76,
      "hit": false,
      "t": 161268.22916666677,
      "d": 1731.770833333314,
      "v": 45
    },
    {
      "midi": 79,
      "hit": false,
      "t": 161395.83333333343,
      "d": 1526.041666666657,
      "v": 75
    },
    {
      "midi": 36,
      "hit": false,
      "t": 162838.54166666677,
      "d": 195.3125,
      "v": 39
    },
    {
      "midi": 43,
      "hit": false,
      "t": 163028.64583333343,
      "d": 59.895833333343035,
      "v": 44
    },
    {
      "midi": 74,
      "hit": false,
      "t": 163302.08333333343,
      "d": 1156.25,
      "v": 59
    },
    {
      "midi": 79,
      "hit": false,
      "t": 163307.29166666677,
      "d": 471.35416666668607,
      "v": 60
    },
    {
      "midi": 67,
      "hit": false,
      "t": 163312.50000000012,
      "d": 432.29166666668607,
      "v": 36
    },
    {
      "midi": 65,
      "hit": false,
      "t": 163317.70833333346,
      "d": 341.14583333334303,
      "v": 44
    },
    {
      "midi": 71,
      "hit": false,
      "t": 163330.7291666668,
      "d": 468.75,
      "v": 29
    },
    {
      "midi": 55,
      "hit": false,
      "t": 163356.77083333346,
      "d": 200.52083333334303,
      "v": 33
    },
    {
      "midi": 36,
      "hit": false,
      "t": 164057.2916666668,
      "d": 179.6875,
      "v": 35
    },
    {
      "midi": 43,
      "hit": false,
      "t": 164213.5416666668,
      "d": 57.291666666656965,
      "v": 44
    },
    {
      "midi": 76,
      "hit": false,
      "t": 164453.12500000012,
      "d": 307.29166666665697,
      "v": 76
    },
    {
      "midi": 55,
      "hit": false,
      "t": 164455.72916666677,
      "d": 57.29166666668607,
      "v": 50
    },
    {
      "midi": 79,
      "hit": false,
      "t": 164471.35416666677,
      "d": 247.39583333334303,
      "v": 55
    },
    {
      "midi": 67,
      "hit": false,
      "t": 164486.97916666677,
      "d": 291.66666666665697,
      "v": 28
    },
    {
      "midi": 65,
      "hit": false,
      "t": 164494.79166666677,
      "d": 257.8125,
      "v": 35
    },
    {
      "midi": 71,
      "hit": false,
      "t": 164500.00000000012,
      "d": 260.41666666665697,
      "v": 24
    },
    {
      "midi": 36,
      "hit": false,
      "t": 164802.08333333343,
      "d": 67.70833333334303,
      "v": 47
    },
    {
      "midi": 43,
      "hit": false,
      "t": 164916.66666666677,
      "d": 59.895833333343035,
      "v": 25
    },
    {
      "midi": 77,
      "hit": false,
      "t": 165023.43750000012,
      "d": 278.64583333331393,
      "v": 74
    },
    {
      "midi": 67,
      "hit": false,
      "t": 165062.50000000012,
      "d": 145.83333333331393,
      "v": 19
    },
    {
      "midi": 71,
      "hit": false,
      "t": 165065.10416666677,
      "d": 208.33333333331393,
      "v": 29
    },
    {
      "midi": 79,
      "hit": false,
      "t": 165080.72916666677,
      "d": 226.5625,
      "v": 36
    },
    {
      "midi": 65,
      "hit": false,
      "t": 165088.54166666677,
      "d": 72.91666666665697,
      "v": 22
    },
    {
      "midi": 36,
      "hit": false,
      "t": 165351.56250000012,
      "d": 138.02083333334303,
      "v": 60
    },
    {
      "midi": 64,
      "hit": false,
      "t": 165500.00000000012,
      "d": 119.79166666665697,
      "v": 55
    },
    {
      "midi": 43,
      "hit": false,
      "t": 165502.60416666677,
      "d": 111.97916666665697,
      "v": 62
    },
    {
      "midi": 72,
      "hit": false,
      "t": 165606.77083333343,
      "d": 554.6875,
      "v": 52
    },
    {
      "midi": 48,
      "hit": false,
      "t": 165632.81250000012,
      "d": 132.8125,
      "v": 54
    },
    {
      "midi": 76,
      "hit": false,
      "t": 165682.29166666677,
      "d": 507.8125,
      "v": 69
    },
    {
      "midi": 79,
      "hit": false,
      "t": 165807.29166666677,
      "d": 343.75,
      "v": 77
    },
    {
      "midi": 55,
      "hit": false,
      "t": 165812.50000000012,
      "d": 315.10416666665697,
      "v": 50
    },
    {
      "midi": 36,
      "hit": false,
      "t": 166687.50000000012,
      "d": 91.14583333331393,
      "v": 38
    },
    {
      "midi": 43,
      "hit": false,
      "t": 166739.58333333346,
      "d": 398.4375,
      "v": 39
    },
    {
      "midi": 67,
      "hit": false,
      "t": 166773.43750000012,
      "d": 424.47916666668607,
      "v": 79
    },
    {
      "midi": 60,
      "hit": false,
      "t": 166776.04166666677,
      "d": 393.22916666668607,
      "v": 59
    },
    {
      "midi": 55,
      "hit": false,
      "t": 166778.64583333343,
      "d": 205.72916666668607,
      "v": 59
    },
    {
      "midi": 64,
      "hit": false,
      "t": 166786.45833333343,
      "d": 434.89583333337214,
      "v": 63
    },
    {
      "midi": 52,
      "hit": false,
      "t": 166807.29166666677,
      "d": 403.64583333337214,
      "v": 45
    },
    {
      "midi": 72,
      "hit": false,
      "t": 167687.50000000015,
      "d": 705.7291666667152,
      "v": 104
    },
    {
      "midi": 60,
      "hit": false,
      "t": 167695.31250000015,
      "d": 617.1875000000291,
      "v": 71
    },
    {
      "midi": 64,
      "hit": false,
      "t": 167697.9166666668,
      "d": 604.1666666666861,
      "v": 71
    },
    {
      "midi": 69,
      "hit": false,
      "t": 167700.52083333346,
      "d": 645.8333333334012,
      "v": 80
    },
    {
      "midi": 57,
      "hit": false,
      "t": 167705.7291666668,
      "d": 619.7916666667152,
      "v": 79
    },
    {
      "midi": 45,
      "hit": false,
      "t": 167710.93750000015,
      "d": 596.3541666666861,
      "v": 78
    },
    {
      "midi": 52,
      "hit": false,
      "t": 167723.9583333335,
      "d": 565.104166666657,
      "v": 63
    },
    {
      "midi": 43,
      "hit": false,
      "t": 168489.58333333352,
      "d": 143.22916666665697,
      "v": 71
    },
    {
      "midi": 52,
      "hit": false,
      "t": 168591.14583333352,
      "d": 117.1875,
      "v": 83
    },
    {
      "midi": 76,
      "hit": false,
      "t": 168653.64583333352,
      "d": 585.9375000000291,
      "v": 113
    },
    {
      "midi": 67,
      "hit": false,
      "t": 168664.06250000017,
      "d": 406.2500000000291,
      "v": 83
    },
    {
      "midi": 72,
      "hit": false,
      "t": 168664.06250000017,
      "d": 492.1875000000291,
      "v": 100
    },
    {
      "midi": 64,
      "hit": false,
      "t": 168671.87500000017,
      "d": 369.79166666668607,
      "v": 89
    },
    {
      "midi": 60,
      "hit": false,
      "t": 168692.70833333352,
      "d": 46.875,
      "v": 106
    },
    {
      "midi": 79,
      "hit": false,
      "t": 169546.8750000002,
      "d": 401.04166666662786,
      "v": 111
    },
    {
      "midi": 72,
      "hit": false,
      "t": 169549.47916666686,
      "d": 421.8749999999709,
      "v": 105
    },
    {
      "midi": 67,
      "hit": false,
      "t": 169549.47916666686,
      "d": 471.35416666662786,
      "v": 105
    },
    {
      "midi": 76,
      "hit": false,
      "t": 169552.08333333352,
      "d": 403.64583333331393,
      "v": 100
    },
    {
      "midi": 43,
      "hit": false,
      "t": 169562.50000000017,
      "d": 151.04166666665697,
      "v": 92
    },
    {
      "midi": 31,
      "hit": false,
      "t": 169562.50000000017,
      "d": 661.4583333333139,
      "v": 94
    },
    {
      "midi": 54,
      "hit": false,
      "t": 170513.0208333335,
      "d": 93.7499999999709,
      "v": 38
    },
    {
      "midi": 66,
      "hit": false,
      "t": 170520.8333333335,
      "d": 78.1249999999709,
      "v": 46
    },
    {
      "midi": 42,
      "hit": false,
      "t": 170531.25000000015,
      "d": 98.95833333331393,
      "v": 32
    },
    {
      "midi": 30,
      "hit": false,
      "t": 170549.4791666668,
      "d": 75.52083333331393,
      "v": 33
    },
    {
      "midi": 55,
      "hit": false,
      "t": 170763.02083333346,
      "d": 62.5,
      "v": 48
    },
    {
      "midi": 31,
      "hit": false,
      "t": 170770.83333333346,
      "d": 52.083333333343035,
      "v": 54
    },
    {
      "midi": 43,
      "hit": false,
      "t": 170773.43750000012,
      "d": 72.91666666668607,
      "v": 30
    },
    {
      "midi": 67,
      "hit": false,
      "t": 170778.64583333346,
      "d": 54.6875,
      "v": 50
    },
    {
      "midi": 67,
      "hit": false,
      "t": 170942.70833333346,
      "d": 72.91666666668607,
      "v": 63
    },
    {
      "midi": 55,
      "hit": false,
      "t": 170947.9166666668,
      "d": 72.91666666665697,
      "v": 57
    },
    {
      "midi": 43,
      "hit": false,
      "t": 170947.9166666668,
      "d": 75.52083333331393,
      "v": 56
    },
    {
      "midi": 31,
      "hit": false,
      "t": 170960.93750000015,
      "d": 57.291666666656965,
      "v": 59
    },
    {
      "midi": 43,
      "hit": false,
      "t": 171151.04166666677,
      "d": 72.91666666665697,
      "v": 64
    },
    {
      "midi": 67,
      "hit": false,
      "t": 171158.85416666677,
      "d": 91.14583333331393,
      "v": 97
    },
    {
      "midi": 55,
      "hit": false,
      "t": 171164.06250000012,
      "d": 59.89583333331393,
      "v": 62
    },
    {
      "midi": 31,
      "hit": false,
      "t": 171166.66666666677,
      "d": 164.0624999999709,
      "v": 72
    },
    {
      "midi": 44,
      "hit": false,
      "t": 171375.0000000001,
      "d": 93.7500000000291,
      "v": 86
    },
    {
      "midi": 68,
      "hit": false,
      "t": 171375.0000000001,
      "d": 98.95833333337214,
      "v": 95
    },
    {
      "midi": 32,
      "hit": false,
      "t": 171375.0000000001,
      "d": 106.77083333337214,
      "v": 83
    },
    {
      "midi": 56,
      "hit": false,
      "t": 171380.20833333343,
      "d": 52.083333333343035,
      "v": 87
    },
    {
      "midi": 44,
      "hit": false,
      "t": 171539.06250000012,
      "d": 88.54166666665697,
      "v": 83
    },
    {
      "midi": 68,
      "hit": false,
      "t": 171539.06250000012,
      "d": 91.14583333331393,
      "v": 97
    },
    {
      "midi": 32,
      "hit": false,
      "t": 171546.87500000012,
      "d": 119.79166666665697,
      "v": 88
    },
    {
      "midi": 56,
      "hit": false,
      "t": 171549.47916666677,
      "d": 70.3125,
      "v": 76
    },
    {
      "midi": 44,
      "hit": false,
      "t": 171721.35416666677,
      "d": 111.97916666665697,
      "v": 65
    },
    {
      "midi": 68,
      "hit": false,
      "t": 171721.35416666677,
      "d": 135.41666666665697,
      "v": 84
    },
    {
      "midi": 56,
      "hit": false,
      "t": 171729.16666666677,
      "d": 111.97916666665697,
      "v": 74
    },
    {
      "midi": 32,
      "hit": false,
      "t": 171731.77083333343,
      "d": 117.1875,
      "v": 85
    },
    {
      "midi": 67,
      "hit": false,
      "t": 171914.0625000001,
      "d": 98.95833333334303,
      "v": 98
    },
    {
      "midi": 55,
      "hit": false,
      "t": 171921.8750000001,
      "d": 52.083333333343035,
      "v": 88
    },
    {
      "midi": 43,
      "hit": false,
      "t": 171924.47916666674,
      "d": 39.0625,
      "v": 89
    },
    {
      "midi": 31,
      "hit": false,
      "t": 171932.29166666674,
      "d": 36.458333333343035,
      "v": 89
    },
    {
      "midi": 67,
      "hit": false,
      "t": 172104.16666666677,
      "d": 91.14583333334303,
      "v": 94
    },
    {
      "midi": 55,
      "hit": false,
      "t": 172114.58333333343,
      "d": 46.875,
      "v": 65
    },
    {
      "midi": 43,
      "hit": false,
      "t": 172130.20833333343,
      "d": 44.270833333343035,
      "v": 65
    },
    {
      "midi": 43,
      "hit": false,
      "t": 172364.58333333346,
      "d": 85.9374999999709,
      "v": 85
    },
    {
      "midi": 50,
      "hit": false,
      "t": 172432.29166666677,
      "d": 83.33333333334303,
      "v": 94
    },
    {
      "midi": 53,
      "hit": false,
      "t": 172471.35416666677,
      "d": 67.70833333334303,
      "v": 84
    },
    {
      "midi": 76,
      "hit": false,
      "t": 172510.41666666677,
      "d": 1145.8333333333721,
      "v": 119
    },
    {
      "midi": 67,
      "hit": false,
      "t": 172518.22916666677,
      "d": 908.8541666666861,
      "v": 92
    },
    {
      "midi": 64,
      "hit": false,
      "t": 172526.04166666677,
      "d": 1169.2708333333721,
      "v": 95
    },
    {
      "midi": 60,
      "hit": false,
      "t": 172533.85416666677,
      "d": 39.062500000029104,
      "v": 106
    },
    {
      "midi": 43,
      "hit": false,
      "t": 173549.4791666668,
      "d": 783.8541666667152,
      "v": 69
    },
    {
      "midi": 50,
      "hit": false,
      "t": 173643.2291666668,
      "d": 515.6250000000291,
      "v": 64
    },
    {
      "midi": 53,
      "hit": false,
      "t": 173721.3541666668,
      "d": 398.4375000000291,
      "v": 58
    },
    {
      "midi": 74,
      "hit": false,
      "t": 173812.50000000015,
      "d": 283.85416666668607,
      "v": 109
    },
    {
      "midi": 62,
      "hit": false,
      "t": 173820.31250000015,
      "d": 375.0000000000291,
      "v": 92
    },
    {
      "midi": 59,
      "hit": false,
      "t": 173825.5208333335,
      "d": 252.60416666668607,
      "v": 85
    },
    {
      "midi": 67,
      "hit": false,
      "t": 173835.93750000015,
      "d": 263.02083333334303,
      "v": 81
    },
    {
      "midi": 67,
      "hit": false,
      "t": 174536.45833333352,
      "d": 484.375,
      "v": 108
    },
    {
      "midi": 55,
      "hit": false,
      "t": 174552.08333333352,
      "d": 104.16666666668607,
      "v": 75
    },
    {
      "midi": 59,
      "hit": false,
      "t": 174557.29166666686,
      "d": 187.5,
      "v": 66
    },
    {
      "midi": 65,
      "hit": false,
      "t": 174557.29166666686,
      "d": 346.35416666665697,
      "v": 78
    },
    {
      "midi": 31,
      "hit": false,
      "t": 174565.10416666686,
      "d": 33.85416666668607,
      "v": 92
    },
    {
      "midi": 43,
      "hit": false,
      "t": 174570.3125000002,
      "d": 44.270833333343035,
      "v": 76
    },
    {
      "midi": 43,
      "hit": false,
      "t": 175010.41666666686,
      "d": 945.3125,
      "v": 60
    },
    {
      "midi": 50,
      "hit": false,
      "t": 175096.35416666686,
      "d": 705.729166666657,
      "v": 74
    },
    {
      "midi": 53,
      "hit": false,
      "t": 175226.5625000002,
      "d": 539.0625,
      "v": 54
    },
    {
      "midi": 74,
      "hit": false,
      "t": 175416.66666666686,
      "d": 375,
      "v": 105
    },
    {
      "midi": 67,
      "hit": false,
      "t": 175427.08333333352,
      "d": 372.39583333334303,
      "v": 79
    },
    {
      "midi": 62,
      "hit": false,
      "t": 175427.08333333352,
      "d": 437.5,
      "v": 83
    },
    {
      "midi": 65,
      "hit": false,
      "t": 175432.29166666686,
      "d": 385.41666666665697,
      "v": 78
    },
    {
      "midi": 59,
      "hit": false,
      "t": 175455.72916666686,
      "d": 273.4375,
      "v": 64
    },
    {
      "midi": 66,
      "hit": false,
      "t": 176273.4375000002,
      "d": 192.70833333331393,
      "v": 47
    },
    {
      "midi": 30,
      "hit": false,
      "t": 176291.66666666686,
      "d": 135.41666666665697,
      "v": 40
    },
    {
      "midi": 54,
      "hit": false,
      "t": 176299.47916666686,
      "d": 75.52083333334303,
      "v": 19
    },
    {
      "midi": 42,
      "hit": false,
      "t": 176307.29166666686,
      "d": 93.75,
      "v": 30
    },
    {
      "midi": 67,
      "hit": false,
      "t": 176494.79166666686,
      "d": 57.29166666668607,
      "v": 66
    },
    {
      "midi": 55,
      "hit": false,
      "t": 176500.0000000002,
      "d": 62.5,
      "v": 47
    },
    {
      "midi": 31,
      "hit": false,
      "t": 176513.02083333355,
      "d": 52.08333333331393,
      "v": 54
    },
    {
      "midi": 43,
      "hit": false,
      "t": 176523.4375000002,
      "d": 65.10416666665697,
      "v": 23
    },
    {
      "midi": 31,
      "hit": false,
      "t": 176669.27083333352,
      "d": 195.3125000000291,
      "v": 47
    },
    {
      "midi": 67,
      "hit": false,
      "t": 176677.08333333352,
      "d": 208.33333333340124,
      "v": 76
    },
    {
      "midi": 55,
      "hit": false,
      "t": 176682.29166666686,
      "d": 57.29166666668607,
      "v": 27
    },
    {
      "midi": 43,
      "hit": false,
      "t": 176703.1250000002,
      "d": 65.10416666668607,
      "v": 32
    },
    {
      "midi": 68,
      "hit": false,
      "t": 176864.58333333355,
      "d": 197.91666666668607,
      "v": 78
    },
    {
      "midi": 44,
      "hit": false,
      "t": 176869.7916666669,
      "d": 135.41666666668607,
      "v": 68
    },
    {
      "midi": 56,
      "hit": false,
      "t": 176875.00000000023,
      "d": 72.91666666668607,
      "v": 58
    },
    {
      "midi": 32,
      "hit": false,
      "t": 176880.20833333358,
      "d": 132.8125,
      "v": 59
    },
    {
      "midi": 69,
      "hit": false,
      "t": 177052.08333333358,
      "d": 52.08333333331393,
      "v": 75
    },
    {
      "midi": 45,
      "hit": false,
      "t": 177070.31250000023,
      "d": 44.27083333331393,
      "v": 74
    },
    {
      "midi": 33,
      "hit": false,
      "t": 177078.12500000023,
      "d": 46.874999999970896,
      "v": 73
    },
    {
      "midi": 57,
      "hit": false,
      "t": 177096.3541666669,
      "d": 54.687499999970896,
      "v": 24
    },
    {
      "midi": 33,
      "hit": false,
      "t": 177218.7500000002,
      "d": 65.10416666668607,
      "v": 66
    },
    {
      "midi": 45,
      "hit": false,
      "t": 177223.95833333355,
      "d": 46.875,
      "v": 55
    },
    {
      "midi": 69,
      "hit": false,
      "t": 177223.95833333355,
      "d": 70.3125000000291,
      "v": 74
    },
    {
      "midi": 57,
      "hit": false,
      "t": 177239.58333333355,
      "d": 49.47916666668607,
      "v": 60
    },
    {
      "midi": 46,
      "hit": false,
      "t": 177393.22916666692,
      "d": 85.9374999999709,
      "v": 95
    },
    {
      "midi": 70,
      "hit": false,
      "t": 177395.83333333358,
      "d": 156.2499999999709,
      "v": 98
    },
    {
      "midi": 58,
      "hit": false,
      "t": 177406.25000000023,
      "d": 88.54166666665697,
      "v": 81
    },
    {
      "midi": 34,
      "hit": false,
      "t": 177408.8541666669,
      "d": 65.10416666665697,
      "v": 72
    },
    {
      "midi": 71,
      "hit": false,
      "t": 177565.1041666669,
      "d": 49.479166666656965,
      "v": 79
    },
    {
      "midi": 35,
      "hit": false,
      "t": 177567.70833333355,
      "d": 46.875,
      "v": 64
    },
    {
      "midi": 47,
      "hit": false,
      "t": 177580.7291666669,
      "d": 52.08333333331393,
      "v": 45
    },
    {
      "midi": 59,
      "hit": false,
      "t": 177583.33333333355,
      "d": 41.666666666656965,
      "v": 54
    },
    {
      "midi": 47,
      "hit": false,
      "t": 177744.79166666686,
      "d": 57.291666666656965,
      "v": 43
    },
    {
      "midi": 59,
      "hit": false,
      "t": 177750.0000000002,
      "d": 49.479166666656965,
      "v": 58
    },
    {
      "midi": 71,
      "hit": false,
      "t": 177750.0000000002,
      "d": 114.58333333331393,
      "v": 75
    },
    {
      "midi": 35,
      "hit": false,
      "t": 177776.04166666686,
      "d": 46.875,
      "v": 40
    },
    {
      "midi": 72,
      "hit": false,
      "t": 177979.16666666686,
      "d": 1747.3958333332848,
      "v": 108
    },
    {
      "midi": 60,
      "hit": false,
      "t": 177986.97916666686,
      "d": 1291.6666666666279,
      "v": 87
    },
    {
      "midi": 64,
      "hit": false,
      "t": 177989.58333333352,
      "d": 1408.8541666666279,
      "v": 74
    },
    {
      "midi": 48,
      "hit": false,
      "t": 177989.58333333352,
      "d": 1541.6666666666279,
      "v": 79
    },
    {
      "midi": 36,
      "hit": false,
      "t": 178000.00000000017,
      "d": 1411.458333333314,
      "v": 66
    },
    {
      "midi": 41,
      "hit": false,
      "t": 179958.3333333335,
      "d": 104.16666666665697,
      "v": 79
    },
    {
      "midi": 48,
      "hit": false,
      "t": 180028.6458333335,
      "d": 85.9375,
      "v": 86
    },
    {
      "midi": 53,
      "hit": false,
      "t": 180132.81250000015,
      "d": 44.270833333343035,
      "v": 70
    },
    {
      "midi": 81,
      "hit": false,
      "t": 180140.62500000015,
      "d": 286.45833333334303,
      "v": 117
    },
    {
      "midi": 69,
      "hit": false,
      "t": 180151.0416666668,
      "d": 361.97916666668607,
      "v": 99
    },
    {
      "midi": 72,
      "hit": false,
      "t": 180156.25000000015,
      "d": 291.66666666668607,
      "v": 97
    },
    {
      "midi": 60,
      "hit": false,
      "t": 180190.10416666683,
      "d": 54.6875,
      "v": 99
    },
    {
      "midi": 35,
      "hit": false,
      "t": 180864.5833333335,
      "d": 62.5,
      "v": 41
    },
    {
      "midi": 71,
      "hit": false,
      "t": 180869.79166666683,
      "d": 57.291666666656965,
      "v": 41
    },
    {
      "midi": 59,
      "hit": false,
      "t": 180869.79166666683,
      "d": 62.5,
      "v": 23
    },
    {
      "midi": 72,
      "hit": false,
      "t": 181062.50000000017,
      "d": 49.479166666656965,
      "v": 73
    },
    {
      "midi": 36,
      "hit": false,
      "t": 181075.52083333352,
      "d": 44.27083333331393,
      "v": 69
    },
    {
      "midi": 60,
      "hit": false,
      "t": 181085.93750000017,
      "d": 67.70833333331393,
      "v": 36
    },
    {
      "midi": 72,
      "hit": false,
      "t": 181221.35416666683,
      "d": 57.291666666656965,
      "v": 74
    },
    {
      "midi": 36,
      "hit": false,
      "t": 181231.7708333335,
      "d": 52.083333333343035,
      "v": 49
    },
    {
      "midi": 60,
      "hit": false,
      "t": 181231.7708333335,
      "d": 52.083333333343035,
      "v": 74
    },
    {
      "midi": 48,
      "hit": false,
      "t": 181234.37500000015,
      "d": 57.29166666668607,
      "v": 71
    },
    {
      "midi": 48,
      "hit": false,
      "t": 181385.41666666683,
      "d": 62.5,
      "v": 80
    },
    {
      "midi": 72,
      "hit": false,
      "t": 181393.22916666683,
      "d": 65.10416666668607,
      "v": 101
    },
    {
      "midi": 36,
      "hit": false,
      "t": 181393.22916666683,
      "d": 80.72916666668607,
      "v": 62
    },
    {
      "midi": 60,
      "hit": false,
      "t": 181395.8333333335,
      "d": 57.29166666668607,
      "v": 64
    },
    {
      "midi": 62,
      "hit": false,
      "t": 181440.10416666683,
      "d": 65.10416666668607,
      "v": 36
    },
    {
      "midi": 37,
      "hit": false,
      "t": 181552.08333333352,
      "d": 57.29166666668607,
      "v": 86
    },
    {
      "midi": 49,
      "hit": false,
      "t": 181552.08333333352,
      "d": 101.5625,
      "v": 90
    },
    {
      "midi": 73,
      "hit": false,
      "t": 181565.10416666686,
      "d": 54.6875,
      "v": 95
    },
    {
      "midi": 61,
      "hit": false,
      "t": 181572.91666666686,
      "d": 46.875,
      "v": 86
    },
    {
      "midi": 61,
      "hit": false,
      "t": 181729.16666666686,
      "d": 85.9375,
      "v": 86
    },
    {
      "midi": 73,
      "hit": false,
      "t": 181729.16666666686,
      "d": 88.54166666665697,
      "v": 94
    },
    {
      "midi": 49,
      "hit": false,
      "t": 181731.77083333352,
      "d": 268.22916666665697,
      "v": 84
    },
    {
      "midi": 37,
      "hit": false,
      "t": 181750.00000000017,
      "d": 44.270833333343035,
      "v": 69
    },
    {
      "midi": 37,
      "hit": false,
      "t": 181877.60416666686,
      "d": 104.16666666665697,
      "v": 66
    },
    {
      "midi": 73,
      "hit": false,
      "t": 181885.41666666686,
      "d": 124.9999999999709,
      "v": 94
    },
    {
      "midi": 61,
      "hit": false,
      "t": 181888.02083333352,
      "d": 101.5625,
      "v": 83
    },
    {
      "midi": 50,
      "hit": false,
      "t": 182057.29166666683,
      "d": 41.666666666656965,
      "v": 98
    },
    {
      "midi": 74,
      "hit": false,
      "t": 182057.29166666683,
      "d": 41.666666666656965,
      "v": 107
    },
    {
      "midi": 38,
      "hit": false,
      "t": 182062.50000000017,
      "d": 33.854166666656965,
      "v": 97
    },
    {
      "midi": 62,
      "hit": false,
      "t": 182062.50000000017,
      "d": 36.45833333331393,
      "v": 92
    },
    {
      "midi": 75,
      "hit": false,
      "t": 182221.35416666683,
      "d": 93.7500000000291,
      "v": 101
    },
    {
      "midi": 63,
      "hit": false,
      "t": 182226.56250000017,
      "d": 36.458333333343035,
      "v": 84
    },
    {
      "midi": 51,
      "hit": false,
      "t": 182231.77083333352,
      "d": 39.0625,
      "v": 90
    },
    {
      "midi": 39,
      "hit": false,
      "t": 182234.37500000017,
      "d": 33.85416666668607,
      "v": 83
    },
    {
      "midi": 79,
      "hit": false,
      "t": 182481.77083333352,
      "d": 320.3125,
      "v": 116
    },
    {
      "midi": 67,
      "hit": false,
      "t": 182481.77083333352,
      "d": 395.83333333334303,
      "v": 110
    },
    {
      "midi": 72,
      "hit": false,
      "t": 182489.58333333352,
      "d": 312.5,
      "v": 96
    },
    {
      "midi": 75,
      "hit": false,
      "t": 182489.58333333352,
      "d": 333.33333333334303,
      "v": 88
    },
    {
      "midi": 63,
      "hit": false,
      "t": 182489.58333333352,
      "d": 343.75,
      "v": 88
    },
    {
      "midi": 51,
      "hit": false,
      "t": 182507.81250000017,
      "d": 419.27083333334303,
      "v": 48
    },
    {
      "midi": 55,
      "hit": false,
      "t": 182528.64583333352,
      "d": 335.9375,
      "v": 68
    },
    {
      "midi": 60,
      "hit": false,
      "t": 182546.87500000017,
      "d": 307.29166666668607,
      "v": 39
    },
    {
      "midi": 60,
      "hit": false,
      "t": 183127.60416666686,
      "d": 46.874999999970896,
      "v": 75
    },
    {
      "midi": 72,
      "hit": false,
      "t": 183135.41666666686,
      "d": 52.08333333331393,
      "v": 75
    },
    {
      "midi": 36,
      "hit": false,
      "t": 183153.64583333352,
      "d": 44.27083333331393,
      "v": 71
    },
    {
      "midi": 48,
      "hit": false,
      "t": 183156.25000000017,
      "d": 46.875,
      "v": 58
    },
    {
      "midi": 73,
      "hit": false,
      "t": 183312.50000000017,
      "d": 46.875,
      "v": 79
    },
    {
      "midi": 61,
      "hit": false,
      "t": 183315.10416666683,
      "d": 46.875,
      "v": 79
    },
    {
      "midi": 37,
      "hit": false,
      "t": 183320.31250000017,
      "d": 44.27083333331393,
      "v": 68
    },
    {
      "midi": 49,
      "hit": false,
      "t": 183320.31250000017,
      "d": 49.479166666656965,
      "v": 72
    },
    {
      "midi": 49,
      "hit": false,
      "t": 183455.72916666683,
      "d": 59.895833333343035,
      "v": 64
    },
    {
      "midi": 73,
      "hit": false,
      "t": 183460.93750000017,
      "d": 52.083333333343035,
      "v": 84
    },
    {
      "midi": 37,
      "hit": false,
      "t": 183460.93750000017,
      "d": 54.6875,
      "v": 61
    },
    {
      "midi": 61,
      "hit": false,
      "t": 183466.14583333352,
      "d": 52.08333333331393,
      "v": 77
    },
    {
      "midi": 49,
      "hit": false,
      "t": 183591.1458333335,
      "d": 104.16666666665697,
      "v": 82
    },
    {
      "midi": 37,
      "hit": false,
      "t": 183601.56250000015,
      "d": 85.9375,
      "v": 70
    },
    {
      "midi": 61,
      "hit": false,
      "t": 183609.37500000015,
      "d": 98.95833333334303,
      "v": 79
    },
    {
      "midi": 73,
      "hit": false,
      "t": 183609.37500000015,
      "d": 106.77083333334303,
      "v": 89
    },
    {
      "midi": 74,
      "hit": false,
      "t": 183755.2083333335,
      "d": 36.458333333343035,
      "v": 106
    },
    {
      "midi": 62,
      "hit": false,
      "t": 183760.41666666683,
      "d": 46.875,
      "v": 91
    },
    {
      "midi": 50,
      "hit": false,
      "t": 183763.0208333335,
      "d": 39.0625,
      "v": 94
    },
    {
      "midi": 38,
      "hit": false,
      "t": 183778.6458333335,
      "d": 36.458333333343035,
      "v": 72
    },
    {
      "midi": 74,
      "hit": false,
      "t": 183908.85416666683,
      "d": 49.479166666656965,
      "v": 103
    },
    {
      "midi": 62,
      "hit": false,
      "t": 183911.4583333335,
      "d": 59.895833333343035,
      "v": 79
    },
    {
      "midi": 50,
      "hit": false,
      "t": 183919.2708333335,
      "d": 75.52083333334303,
      "v": 73
    },
    {
      "midi": 38,
      "hit": false,
      "t": 183921.87500000015,
      "d": 59.895833333343035,
      "v": 63
    },
    {
      "midi": 62,
      "hit": false,
      "t": 184057.29166666683,
      "d": 72.91666666668607,
      "v": 85
    },
    {
      "midi": 74,
      "hit": false,
      "t": 184062.50000000017,
      "d": 57.29166666668607,
      "v": 103
    },
    {
      "midi": 39,
      "hit": false,
      "t": 184083.33333333352,
      "d": 52.083333333343035,
      "v": 94
    },
    {
      "midi": 75,
      "hit": false,
      "t": 184231.77083333352,
      "d": 49.479166666656965,
      "v": 98
    },
    {
      "midi": 63,
      "hit": false,
      "t": 184234.37500000017,
      "d": 39.0625,
      "v": 89
    },
    {
      "midi": 51,
      "hit": false,
      "t": 184260.41666666683,
      "d": 46.875,
      "v": 81
    },
    {
      "midi": 81,
      "hit": false,
      "t": 184502.60416666683,
      "d": 23.4375,
      "v": 119
    },
    {
      "midi": 72,
      "hit": false,
      "t": 184507.81250000017,
      "d": 54.687499999970896,
      "v": 105
    },
    {
      "midi": 69,
      "hit": false,
      "t": 184507.81250000017,
      "d": 98.95833333328483,
      "v": 101
    },
    {
      "midi": 67,
      "hit": false,
      "t": 184526.04166666683,
      "d": 36.45833333331393,
      "v": 100
    },
    {
      "midi": 60,
      "hit": false,
      "t": 184528.6458333335,
      "d": 85.9374999999709,
      "v": 100
    },
    {
      "midi": 51,
      "hit": false,
      "t": 184539.06250000015,
      "d": 80.72916666665697,
      "v": 74
    },
    {
      "midi": 55,
      "hit": false,
      "t": 184546.87500000015,
      "d": 46.875,
      "v": 78
    },
    {
      "midi": 73,
      "hit": false,
      "t": 184552.0833333335,
      "d": 52.08333333331393,
      "v": 23
    },
    {
      "midi": 57,
      "hit": false,
      "t": 184552.0833333335,
      "d": 54.687499999970896,
      "v": 68
    },
    {
      "midi": 78,
      "hit": false,
      "t": 184750.00000000015,
      "d": 317.70833333337214,
      "v": 109
    },
    {
      "midi": 66,
      "hit": false,
      "t": 184755.2083333335,
      "d": 348.95833333334303,
      "v": 101
    },
    {
      "midi": 69,
      "hit": false,
      "t": 184755.2083333335,
      "d": 502.60416666668607,
      "v": 93
    },
    {
      "midi": 74,
      "hit": false,
      "t": 184760.41666666683,
      "d": 307.29166666668607,
      "v": 99
    },
    {
      "midi": 62,
      "hit": false,
      "t": 184773.43750000017,
      "d": 216.14583333334303,
      "v": 87
    },
    {
      "midi": 57,
      "hit": false,
      "t": 184773.43750000017,
      "d": 270.83333333334303,
      "v": 76
    },
    {
      "midi": 50,
      "hit": false,
      "t": 184773.43750000017,
      "d": 312.5,
      "v": 79
    },
    {
      "midi": 54,
      "hit": false,
      "t": 184783.85416666683,
      "d": 59.895833333343035,
      "v": 66
    },
    {
      "midi": 54,
      "hit": false,
      "t": 184973.95833333352,
      "d": 83.33333333334303,
      "v": 10
    },
    {
      "midi": 61,
      "hit": false,
      "t": 185265.62500000017,
      "d": 70.3125,
      "v": 68
    },
    {
      "midi": 73,
      "hit": false,
      "t": 185283.85416666683,
      "d": 59.895833333343035,
      "v": 58
    },
    {
      "midi": 37,
      "hit": false,
      "t": 185291.66666666683,
      "d": 65.10416666668607,
      "v": 35
    },
    {
      "midi": 38,
      "hit": false,
      "t": 185432.29166666686,
      "d": 41.666666666656965,
      "v": 72
    },
    {
      "midi": 62,
      "hit": false,
      "t": 185450.52083333352,
      "d": 62.5,
      "v": 46
    },
    {
      "midi": 74,
      "hit": false,
      "t": 185473.95833333352,
      "d": 52.083333333343035,
      "v": 21
    },
    {
      "midi": 38,
      "hit": false,
      "t": 185601.5625000002,
      "d": 52.08333333331393,
      "v": 42
    },
    {
      "midi": 50,
      "hit": false,
      "t": 185601.5625000002,
      "d": 52.08333333331393,
      "v": 65
    },
    {
      "midi": 62,
      "hit": false,
      "t": 185604.16666666686,
      "d": 57.291666666656965,
      "v": 51
    },
    {
      "midi": 74,
      "hit": false,
      "t": 185627.60416666686,
      "d": 65.10416666665697,
      "v": 39
    },
    {
      "midi": 50,
      "hit": false,
      "t": 185776.04166666686,
      "d": 83.33333333331393,
      "v": 63
    },
    {
      "midi": 74,
      "hit": false,
      "t": 185776.04166666686,
      "d": 234.3750000000291,
      "v": 75
    },
    {
      "midi": 62,
      "hit": false,
      "t": 185778.64583333352,
      "d": 96.35416666665697,
      "v": 60
    },
    {
      "midi": 38,
      "hit": false,
      "t": 185778.64583333352,
      "d": 203.125,
      "v": 62
    },
    {
      "midi": 39,
      "hit": false,
      "t": 185994.79166666686,
      "d": 52.08333333337214,
      "v": 78
    },
    {
      "midi": 63,
      "hit": false,
      "t": 186000.0000000002,
      "d": 46.875000000029104,
      "v": 72
    },
    {
      "midi": 75,
      "hit": false,
      "t": 186000.0000000002,
      "d": 46.875000000029104,
      "v": 79
    },
    {
      "midi": 51,
      "hit": false,
      "t": 186005.20833333355,
      "d": 57.29166666668607,
      "v": 70
    },
    {
      "midi": 63,
      "hit": false,
      "t": 186153.64583333358,
      "d": 57.291666666656965,
      "v": 54
    },
    {
      "midi": 75,
      "hit": false,
      "t": 186156.25000000023,
      "d": 49.479166666656965,
      "v": 64
    },
    {
      "midi": 51,
      "hit": false,
      "t": 186156.25000000023,
      "d": 59.895833333343035,
      "v": 51
    },
    {
      "midi": 39,
      "hit": false,
      "t": 186171.87500000023,
      "d": 52.083333333343035,
      "v": 58
    },
    {
      "midi": 51,
      "hit": false,
      "t": 186296.87500000023,
      "d": 88.54166666665697,
      "v": 70
    },
    {
      "midi": 63,
      "hit": false,
      "t": 186307.2916666669,
      "d": 52.083333333343035,
      "v": 72
    },
    {
      "midi": 75,
      "hit": false,
      "t": 186307.2916666669,
      "d": 67.70833333334303,
      "v": 67
    },
    {
      "midi": 39,
      "hit": false,
      "t": 186312.50000000023,
      "d": 70.3125,
      "v": 67
    },
    {
      "midi": 76,
      "hit": false,
      "t": 186458.33333333355,
      "d": 41.666666666656965,
      "v": 89
    },
    {
      "midi": 40,
      "hit": false,
      "t": 186466.14583333355,
      "d": 36.45833333331393,
      "v": 73
    },
    {
      "midi": 52,
      "hit": false,
      "t": 186468.7500000002,
      "d": 41.666666666656965,
      "v": 71
    },
    {
      "midi": 64,
      "hit": false,
      "t": 186473.95833333355,
      "d": 46.874999999970896,
      "v": 54
    },
    {
      "midi": 40,
      "hit": false,
      "t": 186593.75000000017,
      "d": 70.3125,
      "v": 70
    },
    {
      "midi": 52,
      "hit": false,
      "t": 186598.95833333352,
      "d": 67.70833333331393,
      "v": 63
    },
    {
      "midi": 76,
      "hit": false,
      "t": 186609.37500000017,
      "d": 44.270833333343035,
      "v": 84
    },
    {
      "midi": 64,
      "hit": false,
      "t": 186609.37500000017,
      "d": 54.6875,
      "v": 77
    },
    {
      "midi": 40,
      "hit": false,
      "t": 186763.0208333335,
      "d": 44.27083333331393,
      "v": 73
    },
    {
      "midi": 64,
      "hit": false,
      "t": 186763.0208333335,
      "d": 44.27083333331393,
      "v": 83
    },
    {
      "midi": 52,
      "hit": false,
      "t": 186763.0208333335,
      "d": 75.52083333331393,
      "v": 66
    },
    {
      "midi": 76,
      "hit": false,
      "t": 186765.62500000015,
      "d": 54.6875,
      "v": 89
    },
    {
      "midi": 77,
      "hit": false,
      "t": 186927.08333333346,
      "d": 33.85416666668607,
      "v": 98
    },
    {
      "midi": 65,
      "hit": false,
      "t": 186932.2916666668,
      "d": 44.270833333343035,
      "v": 83
    },
    {
      "midi": 41,
      "hit": false,
      "t": 186932.2916666668,
      "d": 46.875,
      "v": 75
    },
    {
      "midi": 53,
      "hit": false,
      "t": 186932.2916666668,
      "d": 46.875,
      "v": 74
    },
    {
      "midi": 41,
      "hit": false,
      "t": 187062.50000000015,
      "d": 70.3125,
      "v": 70
    },
    {
      "midi": 53,
      "hit": false,
      "t": 187062.50000000015,
      "d": 78.125,
      "v": 68
    },
    {
      "midi": 65,
      "hit": false,
      "t": 187062.50000000015,
      "d": 83.33333333334303,
      "v": 84
    },
    {
      "midi": 77,
      "hit": false,
      "t": 187065.1041666668,
      "d": 85.9375000000291,
      "v": 92
    },
    {
      "midi": 41,
      "hit": false,
      "t": 187203.12500000017,
      "d": 96.35416666662786,
      "v": 95
    },
    {
      "midi": 53,
      "hit": false,
      "t": 187205.72916666683,
      "d": 57.291666666656965,
      "v": 93
    },
    {
      "midi": 65,
      "hit": false,
      "t": 187208.3333333335,
      "d": 65.10416666665697,
      "v": 101
    },
    {
      "midi": 77,
      "hit": false,
      "t": 187210.93750000015,
      "d": 166.66666666665697,
      "v": 110
    },
    {
      "midi": 78,
      "hit": false,
      "t": 187351.56250000015,
      "d": 57.291666666656965,
      "v": 92
    },
    {
      "midi": 66,
      "hit": false,
      "t": 187354.1666666668,
      "d": 57.291666666656965,
      "v": 86
    },
    {
      "midi": 42,
      "hit": false,
      "t": 187359.37500000015,
      "d": 52.08333333331393,
      "v": 87
    },
    {
      "midi": 54,
      "hit": false,
      "t": 187359.37500000015,
      "d": 80.72916666665697,
      "v": 92
    },
    {
      "midi": 78,
      "hit": false,
      "t": 187494.7916666668,
      "d": 96.35416666668607,
      "v": 94
    },
    {
      "midi": 66,
      "hit": false,
      "t": 187500.00000000015,
      "d": 62.5,
      "v": 87
    },
    {
      "midi": 54,
      "hit": false,
      "t": 187513.0208333335,
      "d": 93.75,
      "v": 86
    },
    {
      "midi": 42,
      "hit": false,
      "t": 187523.43750000015,
      "d": 46.875,
      "v": 81
    },
    {
      "midi": 78,
      "hit": false,
      "t": 187645.8333333335,
      "d": 104.16666666665697,
      "v": 103
    },
    {
      "midi": 66,
      "hit": false,
      "t": 187648.43750000015,
      "d": 101.5625,
      "v": 81
    },
    {
      "midi": 54,
      "hit": false,
      "t": 187661.4583333335,
      "d": 117.1875,
      "v": 98
    },
    {
      "midi": 42,
      "hit": false,
      "t": 187671.87500000015,
      "d": 83.33333333334303,
      "v": 78
    },
    {
      "midi": 79,
      "hit": false,
      "t": 187802.0833333335,
      "d": 67.70833333331393,
      "v": 103
    },
    {
      "midi": 67,
      "hit": false,
      "t": 187807.29166666683,
      "d": 36.45833333331393,
      "v": 94
    },
    {
      "midi": 55,
      "hit": false,
      "t": 187815.10416666683,
      "d": 36.45833333331393,
      "v": 90
    },
    {
      "midi": 43,
      "hit": false,
      "t": 187817.7083333335,
      "d": 36.45833333331393,
      "v": 89
    },
    {
      "midi": 56,
      "hit": false,
      "t": 187942.70833333346,
      "d": 70.3125,
      "v": 99
    },
    {
      "midi": 44,
      "hit": false,
      "t": 187950.52083333346,
      "d": 39.0625,
      "v": 88
    },
    {
      "midi": 68,
      "hit": false,
      "t": 187950.52083333346,
      "d": 59.895833333343035,
      "v": 103
    },
    {
      "midi": 80,
      "hit": false,
      "t": 187953.12500000012,
      "d": 41.66666666668607,
      "v": 102
    },
    {
      "midi": 68,
      "hit": false,
      "t": 188098.95833333346,
      "d": 98.95833333334303,
      "v": 79
    },
    {
      "midi": 80,
      "hit": false,
      "t": 188098.95833333346,
      "d": 98.95833333334303,
      "v": 98
    },
    {
      "midi": 56,
      "hit": false,
      "t": 188101.56250000012,
      "d": 111.97916666668607,
      "v": 88
    },
    {
      "midi": 70,
      "hit": false,
      "t": 188114.58333333346,
      "d": 52.083333333343035,
      "v": 83
    },
    {
      "midi": 44,
      "hit": false,
      "t": 188119.7916666668,
      "d": 41.666666666656965,
      "v": 79
    },
    {
      "midi": 69,
      "hit": false,
      "t": 188244.7916666668,
      "d": 46.875,
      "v": 102
    },
    {
      "midi": 81,
      "hit": false,
      "t": 188244.7916666668,
      "d": 54.6875,
      "v": 105
    },
    {
      "midi": 57,
      "hit": false,
      "t": 188250.00000000015,
      "d": 39.0625,
      "v": 97
    },
    {
      "midi": 45,
      "hit": false,
      "t": 188255.2083333335,
      "d": 36.45833333331393,
      "v": 93
    },
    {
      "midi": 58,
      "hit": false,
      "t": 188398.43750000015,
      "d": 88.54166666665697,
      "v": 109
    },
    {
      "midi": 82,
      "hit": false,
      "t": 188398.43750000015,
      "d": 138.02083333331393,
      "v": 113
    },
    {
      "midi": 46,
      "hit": false,
      "t": 188401.0416666668,
      "d": 80.72916666665697,
      "v": 108
    },
    {
      "midi": 70,
      "hit": false,
      "t": 188401.0416666668,
      "d": 104.16666666665697,
      "v": 105
    },
    {
      "midi": 43,
      "hit": false,
      "t": 188598.95833333346,
      "d": 26.041666666656965,
      "v": 106
    },
    {
      "midi": 83,
      "hit": false,
      "t": 188609.37500000012,
      "d": 192.70833333331393,
      "v": 115
    },
    {
      "midi": 71,
      "hit": false,
      "t": 188611.97916666677,
      "d": 283.85416666665697,
      "v": 116
    },
    {
      "midi": 74,
      "hit": false,
      "t": 188614.58333333343,
      "d": 208.33333333334303,
      "v": 114
    },
    {
      "midi": 50,
      "hit": false,
      "t": 188619.79166666677,
      "d": 36.458333333343035,
      "v": 86
    },
    {
      "midi": 59,
      "hit": false,
      "t": 188661.45833333346,
      "d": 26.041666666656965,
      "v": 102
    },
    {
      "midi": 73,
      "hit": false,
      "t": 189223.95833333343,
      "d": 52.083333333343035,
      "v": 64
    },
    {
      "midi": 61,
      "hit": false,
      "t": 189236.97916666677,
      "d": 62.5,
      "v": 51
    },
    {
      "midi": 37,
      "hit": false,
      "t": 189239.58333333343,
      "d": 49.47916666668607,
      "v": 53
    },
    {
      "midi": 49,
      "hit": false,
      "t": 189239.58333333343,
      "d": 67.70833333334303,
      "v": 44
    },
    {
      "midi": 38,
      "hit": false,
      "t": 189369.79166666677,
      "d": 44.270833333343035,
      "v": 72
    },
    {
      "midi": 50,
      "hit": false,
      "t": 189377.60416666677,
      "d": 49.47916666668607,
      "v": 63
    },
    {
      "midi": 62,
      "hit": false,
      "t": 189408.85416666677,
      "d": 70.3125000000291,
      "v": 40
    },
    {
      "midi": 38,
      "hit": false,
      "t": 189505.20833333346,
      "d": 72.91666666668607,
      "v": 57
    },
    {
      "midi": 50,
      "hit": false,
      "t": 189510.4166666668,
      "d": 54.6875,
      "v": 68
    },
    {
      "midi": 74,
      "hit": false,
      "t": 189523.43750000015,
      "d": 39.0625,
      "v": 78
    },
    {
      "midi": 62,
      "hit": false,
      "t": 189533.8541666668,
      "d": 70.3125,
      "v": 32
    },
    {
      "midi": 50,
      "hit": false,
      "t": 189638.02083333346,
      "d": 44.27083333337214,
      "v": 85
    },
    {
      "midi": 74,
      "hit": false,
      "t": 189643.2291666668,
      "d": 46.875000000029104,
      "v": 90
    },
    {
      "midi": 38,
      "hit": false,
      "t": 189656.25000000015,
      "d": 36.458333333343035,
      "v": 76
    },
    {
      "midi": 62,
      "hit": false,
      "t": 189677.0833333335,
      "d": 62.5,
      "v": 48
    },
    {
      "midi": 51,
      "hit": false,
      "t": 189789.06250000015,
      "d": 57.29166666668607,
      "v": 95
    },
    {
      "midi": 39,
      "hit": false,
      "t": 189794.2708333335,
      "d": 44.270833333343035,
      "v": 86
    },
    {
      "midi": 63,
      "hit": false,
      "t": 189802.0833333335,
      "d": 36.458333333343035,
      "v": 95
    },
    {
      "midi": 75,
      "hit": false,
      "t": 189802.0833333335,
      "d": 39.0625,
      "v": 88
    },
    {
      "midi": 75,
      "hit": false,
      "t": 189921.87500000017,
      "d": 57.291666666656965,
      "v": 73
    },
    {
      "midi": 63,
      "hit": false,
      "t": 189940.10416666683,
      "d": 54.6875,
      "v": 49
    },
    {
      "midi": 51,
      "hit": false,
      "t": 189942.7083333335,
      "d": 52.083333333343035,
      "v": 69
    },
    {
      "midi": 39,
      "hit": false,
      "t": 189958.3333333335,
      "d": 49.47916666668607,
      "v": 53
    },
    {
      "midi": 75,
      "hit": false,
      "t": 190062.50000000017,
      "d": 114.58333333337214,
      "v": 81
    },
    {
      "midi": 63,
      "hit": false,
      "t": 190067.70833333352,
      "d": 114.58333333337214,
      "v": 78
    },
    {
      "midi": 51,
      "hit": false,
      "t": 190072.91666666686,
      "d": 122.39583333337214,
      "v": 76
    },
    {
      "midi": 39,
      "hit": false,
      "t": 190078.1250000002,
      "d": 98.95833333334303,
      "v": 76
    },
    {
      "midi": 76,
      "hit": false,
      "t": 190213.5416666669,
      "d": 36.458333333343035,
      "v": 92
    },
    {
      "midi": 64,
      "hit": false,
      "t": 190226.56250000023,
      "d": 41.666666666656965,
      "v": 70
    },
    {
      "midi": 52,
      "hit": false,
      "t": 190234.37500000023,
      "d": 39.0625,
      "v": 77
    },
    {
      "midi": 40,
      "hit": false,
      "t": 190236.9791666669,
      "d": 39.0625,
      "v": 68
    },
    {
      "midi": 65,
      "hit": false,
      "t": 190354.1666666669,
      "d": 33.854166666656965,
      "v": 98
    },
    {
      "midi": 77,
      "hit": false,
      "t": 190354.1666666669,
      "d": 33.854166666656965,
      "v": 106
    },
    {
      "midi": 53,
      "hit": false,
      "t": 190361.9791666669,
      "d": 41.666666666656965,
      "v": 95
    },
    {
      "midi": 41,
      "hit": false,
      "t": 190390.6250000002,
      "d": 62.5,
      "v": 31
    },
    {
      "midi": 81,
      "hit": false,
      "t": 190632.8125000002,
      "d": 273.4374999999709,
      "v": 123
    },
    {
      "midi": 74,
      "hit": false,
      "t": 190640.6250000002,
      "d": 36.45833333331393,
      "v": 110
    },
    {
      "midi": 71,
      "hit": false,
      "t": 190640.6250000002,
      "d": 296.8749999999709,
      "v": 100
    },
    {
      "midi": 69,
      "hit": false,
      "t": 190643.22916666686,
      "d": 317.70833333331393,
      "v": 110
    },
    {
      "midi": 53,
      "hit": false,
      "t": 190643.22916666686,
      "d": 320.3124999999709,
      "v": 93
    },
    {
      "midi": 62,
      "hit": false,
      "t": 190648.4375000002,
      "d": 255.20833333331393,
      "v": 97
    },
    {
      "midi": 57,
      "hit": false,
      "t": 190666.66666666686,
      "d": 260.41666666665697,
      "v": 89
    },
    {
      "midi": 59,
      "hit": false,
      "t": 190677.08333333352,
      "d": 236.97916666665697,
      "v": 69
    },
    {
      "midi": 74,
      "hit": false,
      "t": 190734.37500000017,
      "d": 153.64583333334303,
      "v": 21
    },
    {
      "midi": 74,
      "hit": false,
      "t": 191177.0833333335,
      "d": 36.458333333343035,
      "v": 92
    },
    {
      "midi": 62,
      "hit": false,
      "t": 191177.0833333335,
      "d": 46.875,
      "v": 70
    },
    {
      "midi": 50,
      "hit": false,
      "t": 191205.72916666683,
      "d": 62.5,
      "v": 33
    },
    {
      "midi": 63,
      "hit": false,
      "t": 191322.91666666683,
      "d": 39.0625,
      "v": 88
    },
    {
      "midi": 39,
      "hit": false,
      "t": 191325.5208333335,
      "d": 36.458333333343035,
      "v": 85
    },
    {
      "midi": 75,
      "hit": false,
      "t": 191325.5208333335,
      "d": 39.0625,
      "v": 77
    },
    {
      "midi": 51,
      "hit": false,
      "t": 191330.72916666683,
      "d": 44.27083333331393,
      "v": 88
    },
    {
      "midi": 75,
      "hit": false,
      "t": 191437.50000000015,
      "d": 57.291666666656965,
      "v": 78
    },
    {
      "midi": 51,
      "hit": false,
      "t": 191442.7083333335,
      "d": 75.52083333331393,
      "v": 78
    },
    {
      "midi": 63,
      "hit": false,
      "t": 191445.31250000015,
      "d": 49.479166666656965,
      "v": 72
    },
    {
      "midi": 39,
      "hit": false,
      "t": 191453.12500000015,
      "d": 46.875,
      "v": 61
    },
    {
      "midi": 63,
      "hit": false,
      "t": 191575.52083333346,
      "d": 122.39583333331393,
      "v": 74
    },
    {
      "midi": 75,
      "hit": false,
      "t": 191575.52083333346,
      "d": 140.6249999999709,
      "v": 84
    },
    {
      "midi": 51,
      "hit": false,
      "t": 191578.12500000012,
      "d": 119.79166666665697,
      "v": 93
    },
    {
      "midi": 39,
      "hit": false,
      "t": 191580.72916666677,
      "d": 125,
      "v": 68
    },
    {
      "midi": 52,
      "hit": false,
      "t": 191716.14583333343,
      "d": 44.27083333331393,
      "v": 84
    },
    {
      "midi": 40,
      "hit": false,
      "t": 191718.7500000001,
      "d": 31.25,
      "v": 91
    },
    {
      "midi": 76,
      "hit": false,
      "t": 191723.95833333343,
      "d": 33.854166666656965,
      "v": 97
    },
    {
      "midi": 64,
      "hit": false,
      "t": 191726.5625000001,
      "d": 33.854166666656965,
      "v": 88
    },
    {
      "midi": 52,
      "hit": false,
      "t": 191835.9375000001,
      "d": 54.6875,
      "v": 91
    },
    {
      "midi": 40,
      "hit": false,
      "t": 191838.54166666674,
      "d": 39.0625,
      "v": 71
    },
    {
      "midi": 76,
      "hit": false,
      "t": 191841.1458333334,
      "d": 49.47916666668607,
      "v": 92
    },
    {
      "midi": 64,
      "hit": false,
      "t": 191848.9583333334,
      "d": 44.270833333343035,
      "v": 63
    },
    {
      "midi": 40,
      "hit": false,
      "t": 191984.3750000001,
      "d": 33.854166666656965,
      "v": 76
    },
    {
      "midi": 76,
      "hit": false,
      "t": 191989.58333333343,
      "d": 36.45833333331393,
      "v": 96
    },
    {
      "midi": 64,
      "hit": false,
      "t": 192000.0000000001,
      "d": 49.479166666656965,
      "v": 54
    },
    {
      "midi": 53,
      "hit": false,
      "t": 192119.79166666674,
      "d": 98.95833333337214,
      "v": 97
    },
    {
      "midi": 77,
      "hit": false,
      "t": 192132.8125000001,
      "d": 36.458333333343035,
      "v": 110
    },
    {
      "midi": 65,
      "hit": false,
      "t": 192138.02083333343,
      "d": 36.458333333343035,
      "v": 94
    },
    {
      "midi": 41,
      "hit": false,
      "t": 192148.4375000001,
      "d": 70.3125000000291,
      "v": 38
    },
    {
      "midi": 63,
      "hit": false,
      "t": 192437.50000000012,
      "d": 140.6249999999709,
      "v": 106
    },
    {
      "midi": 83,
      "hit": false,
      "t": 192445.31250000012,
      "d": 23.4375,
      "v": 113
    },
    {
      "midi": 71,
      "hit": false,
      "t": 192450.52083333346,
      "d": 39.062499999970896,
      "v": 103
    },
    {
      "midi": 75,
      "hit": false,
      "t": 192453.12500000012,
      "d": 31.25,
      "v": 104
    },
    {
      "midi": 53,
      "hit": false,
      "t": 192453.12500000012,
      "d": 98.95833333331393,
      "v": 86
    },
    {
      "midi": 69,
      "hit": false,
      "t": 192458.33333333346,
      "d": 26.041666666656965,
      "v": 113
    },
    {
      "midi": 57,
      "hit": false,
      "t": 192466.14583333346,
      "d": 49.47916666662786,
      "v": 77
    },
    {
      "midi": 59,
      "hit": false,
      "t": 192486.97916666677,
      "d": 49.479166666656965,
      "v": 55
    },
    {
      "midi": 80,
      "hit": false,
      "t": 192690.10416666674,
      "d": 320.3124999999709,
      "v": 112
    },
    {
      "midi": 64,
      "hit": false,
      "t": 192695.3125000001,
      "d": 249.9999999999709,
      "v": 112
    },
    {
      "midi": 68,
      "hit": false,
      "t": 192695.3125000001,
      "d": 361.97916666662786,
      "v": 112
    },
    {
      "midi": 76,
      "hit": false,
      "t": 192697.91666666674,
      "d": 335.9374999999709,
      "v": 106
    },
    {
      "midi": 71,
      "hit": false,
      "t": 192703.1250000001,
      "d": 523.4374999999418,
      "v": 97
    },
    {
      "midi": 52,
      "hit": false,
      "t": 192708.3333333334,
      "d": 333.33333333331393,
      "v": 94
    },
    {
      "midi": 56,
      "hit": false,
      "t": 192718.75000000006,
      "d": 52.08333333331393,
      "v": 74
    },
    {
      "midi": 59,
      "hit": false,
      "t": 192721.35416666672,
      "d": 250,
      "v": 74
    },
    {
      "midi": 56,
      "hit": false,
      "t": 192861.97916666672,
      "d": 166.66666666665697,
      "v": 42
    },
    {
      "midi": 63,
      "hit": false,
      "t": 193216.14583333337,
      "d": 57.29166666662786,
      "v": 71
    },
    {
      "midi": 75,
      "hit": false,
      "t": 193218.75000000003,
      "d": 83.33333333331393,
      "v": 68
    },
    {
      "midi": 39,
      "hit": false,
      "t": 193229.1666666667,
      "d": 52.08333333331393,
      "v": 54
    },
    {
      "midi": 51,
      "hit": false,
      "t": 193239.58333333334,
      "d": 75.52083333334303,
      "v": 34
    },
    {
      "midi": 40,
      "hit": false,
      "t": 193390.62500000003,
      "d": 41.666666666656965,
      "v": 71
    },
    {
      "midi": 76,
      "hit": false,
      "t": 193390.62500000003,
      "d": 46.875,
      "v": 79
    },
    {
      "midi": 64,
      "hit": false,
      "t": 193393.2291666667,
      "d": 44.270833333343035,
      "v": 70
    },
    {
      "midi": 52,
      "hit": false,
      "t": 193393.2291666667,
      "d": 46.875,
      "v": 63
    },
    {
      "midi": 40,
      "hit": false,
      "t": 193523.43750000003,
      "d": 57.29166666668607,
      "v": 61
    },
    {
      "midi": 52,
      "hit": false,
      "t": 193523.43750000003,
      "d": 70.3125000000291,
      "v": 68
    },
    {
      "midi": 76,
      "hit": false,
      "t": 193528.64583333337,
      "d": 46.875,
      "v": 73
    },
    {
      "midi": 64,
      "hit": false,
      "t": 193539.06250000003,
      "d": 46.875000000029104,
      "v": 63
    },
    {
      "midi": 40,
      "hit": false,
      "t": 193677.0833333334,
      "d": 39.062500000029104,
      "v": 74
    },
    {
      "midi": 52,
      "hit": false,
      "t": 193677.0833333334,
      "d": 62.50000000005821,
      "v": 81
    },
    {
      "midi": 64,
      "hit": false,
      "t": 193682.29166666674,
      "d": 39.062500000029104,
      "v": 82
    },
    {
      "midi": 76,
      "hit": false,
      "t": 193687.5000000001,
      "d": 39.062500000029104,
      "v": 80
    },
    {
      "midi": 77,
      "hit": false,
      "t": 193825.52083333346,
      "d": 39.0625,
      "v": 90
    },
    {
      "midi": 41,
      "hit": false,
      "t": 193830.7291666668,
      "d": 44.27083333331393,
      "v": 76
    },
    {
      "midi": 53,
      "hit": false,
      "t": 193835.93750000015,
      "d": 46.874999999970896,
      "v": 75
    },
    {
      "midi": 65,
      "hit": false,
      "t": 193838.5416666668,
      "d": 46.874999999970896,
      "v": 64
    },
    {
      "midi": 41,
      "hit": false,
      "t": 193966.14583333343,
      "d": 44.27083333331393,
      "v": 70
    },
    {
      "midi": 53,
      "hit": false,
      "t": 193968.7500000001,
      "d": 46.875,
      "v": 72
    },
    {
      "midi": 65,
      "hit": false,
      "t": 193973.95833333343,
      "d": 46.875,
      "v": 83
    },
    {
      "midi": 77,
      "hit": false,
      "t": 193976.5625000001,
      "d": 31.25,
      "v": 89
    },
    {
      "midi": 53,
      "hit": false,
      "t": 194096.35416666677,
      "d": 67.70833333331393,
      "v": 72
    },
    {
      "midi": 41,
      "hit": false,
      "t": 194104.16666666677,
      "d": 41.666666666656965,
      "v": 69
    },
    {
      "midi": 65,
      "hit": false,
      "t": 194109.37500000012,
      "d": 78.1249999999709,
      "v": 95
    },
    {
      "midi": 77,
      "hit": false,
      "t": 194111.97916666677,
      "d": 44.27083333331393,
      "v": 91
    },
    {
      "midi": 66,
      "hit": false,
      "t": 194255.20833333343,
      "d": 52.08333333331393,
      "v": 99
    },
    {
      "midi": 78,
      "hit": false,
      "t": 194263.02083333343,
      "d": 39.062499999970896,
      "v": 97
    },
    {
      "midi": 54,
      "hit": false,
      "t": 194273.4375000001,
      "d": 39.0625,
      "v": 88
    },
    {
      "midi": 42,
      "hit": false,
      "t": 194276.04166666674,
      "d": 36.458333333343035,
      "v": 84
    },
    {
      "midi": 78,
      "hit": false,
      "t": 194395.83333333343,
      "d": 83.33333333334303,
      "v": 84
    },
    {
      "midi": 66,
      "hit": false,
      "t": 194395.83333333343,
      "d": 98.95833333334303,
      "v": 93
    },
    {
      "midi": 54,
      "hit": false,
      "t": 194398.4375000001,
      "d": 83.33333333334303,
      "v": 63
    },
    {
      "midi": 42,
      "hit": false,
      "t": 194406.2500000001,
      "d": 52.083333333343035,
      "v": 55
    },
    {
      "midi": 54,
      "hit": false,
      "t": 194539.06250000012,
      "d": 98.95833333331393,
      "v": 94
    },
    {
      "midi": 42,
      "hit": false,
      "t": 194541.66666666677,
      "d": 93.75,
      "v": 76
    },
    {
      "midi": 78,
      "hit": false,
      "t": 194546.87500000012,
      "d": 91.14583333331393,
      "v": 97
    },
    {
      "midi": 66,
      "hit": false,
      "t": 194549.47916666677,
      "d": 96.35416666665697,
      "v": 97
    },
    {
      "midi": 43,
      "hit": false,
      "t": 194682.29166666677,
      "d": 46.875,
      "v": 83
    },
    {
      "midi": 55,
      "hit": false,
      "t": 194682.29166666677,
      "d": 49.479166666656965,
      "v": 82
    },
    {
      "midi": 79,
      "hit": false,
      "t": 194682.29166666677,
      "d": 62.5,
      "v": 106
    },
    {
      "midi": 67,
      "hit": false,
      "t": 194687.50000000012,
      "d": 52.08333333331393,
      "v": 99
    },
    {
      "midi": 67,
      "hit": false,
      "t": 194822.91666666677,
      "d": 96.35416666668607,
      "v": 102
    },
    {
      "midi": 43,
      "hit": false,
      "t": 194828.12500000012,
      "d": 46.875,
      "v": 87
    },
    {
      "midi": 55,
      "hit": false,
      "t": 194828.12500000012,
      "d": 67.70833333334303,
      "v": 88
    },
    {
      "midi": 79,
      "hit": false,
      "t": 194830.72916666677,
      "d": 52.083333333343035,
      "v": 106
    },
    {
      "midi": 55,
      "hit": false,
      "t": 194960.93750000012,
      "d": 80.72916666665697,
      "v": 106
    },
    {
      "midi": 43,
      "hit": false,
      "t": 194963.54166666677,
      "d": 75.52083333334303,
      "v": 94
    },
    {
      "midi": 79,
      "hit": false,
      "t": 194976.56250000012,
      "d": 85.9375,
      "v": 104
    },
    {
      "midi": 67,
      "hit": false,
      "t": 194979.16666666677,
      "d": 91.14583333334303,
      "v": 113
    },
    {
      "midi": 44,
      "hit": false,
      "t": 195114.58333333346,
      "d": 72.91666666668607,
      "v": 98
    },
    {
      "midi": 56,
      "hit": false,
      "t": 195114.58333333346,
      "d": 104.16666666668607,
      "v": 103
    },
    {
      "midi": 67,
      "hit": false,
      "t": 195119.7916666668,
      "d": 67.70833333334303,
      "v": 94
    },
    {
      "midi": 77,
      "hit": false,
      "t": 195119.7916666668,
      "d": 88.54166666668607,
      "v": 92
    },
    {
      "midi": 79,
      "hit": false,
      "t": 195132.81250000015,
      "d": 39.0625,
      "v": 85
    },
    {
      "midi": 79,
      "hit": false,
      "t": 195252.6041666668,
      "d": 54.687500000029104,
      "v": 78
    },
    {
      "midi": 67,
      "hit": false,
      "t": 195252.6041666668,
      "d": 80.72916666668607,
      "v": 107
    },
    {
      "midi": 57,
      "hit": false,
      "t": 195260.4166666668,
      "d": 36.458333333343035,
      "v": 105
    },
    {
      "midi": 45,
      "hit": false,
      "t": 195263.02083333346,
      "d": 28.645833333343035,
      "v": 105
    },
    {
      "midi": 77,
      "hit": false,
      "t": 195268.2291666668,
      "d": 33.85416666668607,
      "v": 109
    },
    {
      "midi": 67,
      "hit": false,
      "t": 195395.8333333335,
      "d": 78.125,
      "v": 105
    },
    {
      "midi": 46,
      "hit": false,
      "t": 195398.43750000015,
      "d": 54.6875,
      "v": 115
    },
    {
      "midi": 79,
      "hit": false,
      "t": 195398.43750000015,
      "d": 88.54166666668607,
      "v": 93
    },
    {
      "midi": 58,
      "hit": false,
      "t": 195398.43750000015,
      "d": 109.3750000000291,
      "v": 115
    },
    {
      "midi": 77,
      "hit": false,
      "t": 195401.0416666668,
      "d": 85.9375000000291,
      "v": 95
    },
    {
      "midi": 67,
      "hit": false,
      "t": 195544.27083333352,
      "d": 75.52083333334303,
      "v": 105
    },
    {
      "midi": 59,
      "hit": false,
      "t": 195544.27083333352,
      "d": 96.35416666665697,
      "v": 104
    },
    {
      "midi": 47,
      "hit": false,
      "t": 195549.47916666686,
      "d": 33.854166666656965,
      "v": 96
    },
    {
      "midi": 79,
      "hit": false,
      "t": 195552.08333333352,
      "d": 39.0625,
      "v": 102
    },
    {
      "midi": 77,
      "hit": false,
      "t": 195552.08333333352,
      "d": 78.125,
      "v": 103
    },
    {
      "midi": 48,
      "hit": false,
      "t": 195682.29166666683,
      "d": 72.91666666665697,
      "v": 111
    },
    {
      "midi": 60,
      "hit": false,
      "t": 195682.29166666683,
      "d": 78.125,
      "v": 112
    },
    {
      "midi": 79,
      "hit": false,
      "t": 195687.50000000017,
      "d": 85.9375,
      "v": 94
    },
    {
      "midi": 67,
      "hit": false,
      "t": 195687.50000000017,
      "d": 93.75,
      "v": 100
    },
    {
      "midi": 77,
      "hit": false,
      "t": 195697.91666666683,
      "d": 104.16666666668607,
      "v": 111
    },
    {
      "midi": 61,
      "hit": false,
      "t": 195833.33333333352,
      "d": 70.3125,
      "v": 113
    },
    {
      "midi": 49,
      "hit": false,
      "t": 195838.54166666686,
      "d": 80.72916666665697,
      "v": 108
    },
    {
      "midi": 79,
      "hit": false,
      "t": 195841.14583333352,
      "d": 91.14583333334303,
      "v": 99
    },
    {
      "midi": 67,
      "hit": false,
      "t": 195846.35416666686,
      "d": 104.16666666665697,
      "v": 100
    },
    {
      "midi": 77,
      "hit": false,
      "t": 195856.77083333352,
      "d": 104.16666666665697,
      "v": 97
    },
    {
      "midi": 71,
      "hit": false,
      "t": 195859.37500000017,
      "d": 88.54166666668607,
      "v": 88
    },
    {
      "midi": 62,
      "hit": false,
      "t": 195994.79166666683,
      "d": 91.14583333334303,
      "v": 111
    },
    {
      "midi": 50,
      "hit": false,
      "t": 196000.00000000017,
      "d": 39.0625,
      "v": 113
    },
    {
      "midi": 79,
      "hit": false,
      "t": 196005.20833333352,
      "d": 70.3125,
      "v": 86
    },
    {
      "midi": 67,
      "hit": false,
      "t": 196013.02083333352,
      "d": 91.14583333331393,
      "v": 100
    },
    {
      "midi": 77,
      "hit": false,
      "t": 196020.83333333352,
      "d": 98.95833333331393,
      "v": 92
    },
    {
      "midi": 71,
      "hit": false,
      "t": 196023.43750000017,
      "d": 96.35416666665697,
      "v": 79
    },
    {
      "midi": 63,
      "hit": false,
      "t": 196166.66666666683,
      "d": 70.3125,
      "v": 114
    },
    {
      "midi": 51,
      "hit": false,
      "t": 196174.47916666683,
      "d": 46.875,
      "v": 109
    },
    {
      "midi": 67,
      "hit": false,
      "t": 196177.0833333335,
      "d": 39.0625,
      "v": 87
    },
    {
      "midi": 79,
      "hit": false,
      "t": 196182.29166666683,
      "d": 109.375,
      "v": 76
    },
    {
      "midi": 77,
      "hit": false,
      "t": 196200.5208333335,
      "d": 44.270833333343035,
      "v": 88
    },
    {
      "midi": 71,
      "hit": false,
      "t": 196203.12500000015,
      "d": 36.458333333343035,
      "v": 67
    },
    {
      "midi": 48,
      "hit": false,
      "t": 196351.56250000017,
      "d": 143.22916666668607,
      "v": 115
    },
    {
      "midi": 80,
      "hit": false,
      "t": 196411.45833333352,
      "d": 78.125,
      "v": 27
    },
    {
      "midi": 55,
      "hit": false,
      "t": 196427.08333333352,
      "d": 218.75,
      "v": 85
    },
    {
      "midi": 60,
      "hit": false,
      "t": 196536.45833333352,
      "d": 140.625,
      "v": 103
    },
    {
      "midi": 76,
      "hit": false,
      "t": 196591.14583333352,
      "d": 114.58333333334303,
      "v": 125
    },
    {
      "midi": 88,
      "hit": false,
      "t": 196593.75000000017,
      "d": 59.895833333343035,
      "v": 122
    },
    {
      "midi": 79,
      "hit": false,
      "t": 196596.35416666683,
      "d": 104.16666666668607,
      "v": 117
    },
    {
      "midi": 64,
      "hit": false,
      "t": 196609.37500000017,
      "d": 88.54166666668607,
      "v": 125
    },
    {
      "midi": 54,
      "hit": false,
      "t": 196989.58333333352,
      "d": 88.54166666668607,
      "v": 80
    },
    {
      "midi": 42,
      "hit": false,
      "t": 197005.20833333352,
      "d": 67.70833333334303,
      "v": 71
    },
    {
      "midi": 43,
      "hit": false,
      "t": 197078.1250000002,
      "d": 96.35416666668607,
      "v": 86
    },
    {
      "midi": 55,
      "hit": false,
      "t": 197083.33333333355,
      "d": 114.58333333334303,
      "v": 94
    },
    {
      "midi": 57,
      "hit": false,
      "t": 197166.6666666669,
      "d": 44.270833333343035,
      "v": 95
    },
    {
      "midi": 45,
      "hit": false,
      "t": 197169.27083333355,
      "d": 36.458333333343035,
      "v": 99
    },
    {
      "midi": 43,
      "hit": false,
      "t": 197252.6041666669,
      "d": 93.7499999999709,
      "v": 96
    },
    {
      "midi": 55,
      "hit": false,
      "t": 197263.02083333355,
      "d": 91.14583333331393,
      "v": 105
    },
    {
      "midi": 57,
      "hit": false,
      "t": 197341.14583333355,
      "d": 65.10416666665697,
      "v": 95
    },
    {
      "midi": 45,
      "hit": false,
      "t": 197343.7500000002,
      "d": 80.72916666668607,
      "v": 95
    },
    {
      "midi": 43,
      "hit": false,
      "t": 197419.27083333355,
      "d": 65.10416666665697,
      "v": 97
    },
    {
      "midi": 55,
      "hit": false,
      "t": 197427.08333333355,
      "d": 67.70833333331393,
      "v": 94
    },
    {
      "midi": 45,
      "hit": false,
      "t": 197507.8125000002,
      "d": 75.52083333331393,
      "v": 91
    },
    {
      "midi": 57,
      "hit": false,
      "t": 197510.41666666686,
      "d": 46.875,
      "v": 72
    },
    {
      "midi": 43,
      "hit": false,
      "t": 197585.93750000017,
      "d": 41.666666666656965,
      "v": 86
    },
    {
      "midi": 55,
      "hit": false,
      "t": 197585.93750000017,
      "d": 59.89583333331393,
      "v": 83
    },
    {
      "midi": 45,
      "hit": false,
      "t": 197666.66666666683,
      "d": 85.9375,
      "v": 97
    },
    {
      "midi": 57,
      "hit": false,
      "t": 197671.87500000017,
      "d": 41.666666666656965,
      "v": 64
    },
    {
      "midi": 55,
      "hit": false,
      "t": 197739.5833333335,
      "d": 52.083333333343035,
      "v": 78
    },
    {
      "midi": 43,
      "hit": false,
      "t": 197770.8333333335,
      "d": 111.97916666665697,
      "v": 72
    },
    {
      "midi": 57,
      "hit": false,
      "t": 197815.10416666683,
      "d": 91.14583333331393,
      "v": 62
    },
    {
      "midi": 45,
      "hit": false,
      "t": 197864.5833333335,
      "d": 109.375,
      "v": 75
    },
    {
      "midi": 55,
      "hit": false,
      "t": 197882.81250000015,
      "d": 67.70833333334303,
      "v": 71
    },
    {
      "midi": 57,
      "hit": false,
      "t": 197973.9583333335,
      "d": 127.60416666665697,
      "v": 100
    },
    {
      "midi": 43,
      "hit": false,
      "t": 197976.56250000015,
      "d": 132.8125,
      "v": 74
    },
    {
      "midi": 55,
      "hit": false,
      "t": 198041.6666666668,
      "d": 171.875,
      "v": 97
    },
    {
      "midi": 45,
      "hit": false,
      "t": 198057.2916666668,
      "d": 114.58333333334303,
      "v": 91
    },
    {
      "midi": 42,
      "hit": false,
      "t": 198197.9166666668,
      "d": 119.79166666665697,
      "v": 98
    },
    {
      "midi": 54,
      "hit": false,
      "t": 198197.9166666668,
      "d": 132.8125,
      "v": 102
    },
    {
      "midi": 55,
      "hit": false,
      "t": 198354.1666666668,
      "d": 41.66666666668607,
      "v": 111
    },
    {
      "midi": 43,
      "hit": false,
      "t": 198375.00000000015,
      "d": 442.70833333331393,
      "v": 108
    },
    {
      "midi": 76,
      "hit": false,
      "t": 198716.1458333335,
      "d": 335.9374999999709,
      "v": 115
    },
    {
      "midi": 88,
      "hit": false,
      "t": 198716.1458333335,
      "d": 348.95833333331393,
      "v": 116
    },
    {
      "midi": 79,
      "hit": false,
      "t": 198718.75000000015,
      "d": 299.47916666665697,
      "v": 109
    },
    {
      "midi": 31,
      "hit": false,
      "t": 198723.9583333335,
      "d": 93.7499999999709,
      "v": 121
    },
    {
      "midi": 41,
      "hit": false,
      "t": 198760.4166666668,
      "d": 65.10416666665697,
      "v": 47
    },
    {
      "midi": 55,
      "hit": false,
      "t": 199148.43750000015,
      "d": 62.5,
      "v": 92
    },
    {
      "midi": 62,
      "hit": false,
      "t": 199203.12500000015,
      "d": 203.1249999999709,
      "v": 87
    },
    {
      "midi": 65,
      "hit": false,
      "t": 199257.81250000015,
      "d": 151.04166666662786,
      "v": 93
    },
    {
      "midi": 86,
      "hit": false,
      "t": 199338.5416666668,
      "d": 380.20833333331393,
      "v": 115
    },
    {
      "midi": 74,
      "hit": false,
      "t": 199341.14583333346,
      "d": 361.97916666665697,
      "v": 115
    },
    {
      "midi": 79,
      "hit": false,
      "t": 199343.75000000012,
      "d": 304.6875,
      "v": 103
    },
    {
      "midi": 71,
      "hit": false,
      "t": 199364.58333333346,
      "d": 91.14583333331393,
      "v": 97
    },
    {
      "midi": 55,
      "hit": false,
      "t": 199619.79166666677,
      "d": 119.79166666668607,
      "v": 95
    },
    {
      "midi": 64,
      "hit": false,
      "t": 199718.75000000012,
      "d": 93.7500000000291,
      "v": 96
    },
    {
      "midi": 79,
      "hit": false,
      "t": 199807.2916666668,
      "d": 346.35416666668607,
      "v": 105
    },
    {
      "midi": 88,
      "hit": false,
      "t": 199807.2916666668,
      "d": 513.0208333333721,
      "v": 119
    },
    {
      "midi": 76,
      "hit": false,
      "t": 199812.50000000015,
      "d": 424.47916666668607,
      "v": 115
    },
    {
      "midi": 72,
      "hit": false,
      "t": 199820.31250000015,
      "d": 78.125,
      "v": 117
    },
    {
      "midi": 55,
      "hit": false,
      "t": 200114.5833333335,
      "d": 161.45833333334303,
      "v": 107
    },
    {
      "midi": 62,
      "hit": false,
      "t": 200182.29166666683,
      "d": 119.79166666668607,
      "v": 81
    },
    {
      "midi": 67,
      "hit": false,
      "t": 200281.25000000017,
      "d": 83.33333333334303,
      "v": 103
    },
    {
      "midi": 74,
      "hit": false,
      "t": 200427.08333333352,
      "d": 26.041666666656965,
      "v": 95
    },
    {
      "midi": 72,
      "hit": false,
      "t": 200427.08333333352,
      "d": 41.666666666656965,
      "v": 111
    },
    {
      "midi": 89,
      "hit": false,
      "t": 200432.29166666686,
      "d": 557.2916666666279,
      "v": 117
    },
    {
      "midi": 79,
      "hit": false,
      "t": 200442.70833333352,
      "d": 552.0833333333139,
      "v": 108
    },
    {
      "midi": 77,
      "hit": false,
      "t": 200442.70833333352,
      "d": 614.583333333343,
      "v": 109
    },
    {
      "midi": 83,
      "hit": false,
      "t": 200445.31250000017,
      "d": 434.89583333334303,
      "v": 92
    },
    {
      "midi": 48,
      "hit": false,
      "t": 200802.08333333352,
      "d": 177.08333333331393,
      "v": 106
    },
    {
      "midi": 55,
      "hit": false,
      "t": 200890.62500000017,
      "d": 109.375,
      "v": 91
    },
    {
      "midi": 60,
      "hit": false,
      "t": 200971.35416666683,
      "d": 41.66666666668607,
      "v": 105
    },
    {
      "midi": 67,
      "hit": false,
      "t": 201111.97916666686,
      "d": 236.97916666659876,
      "v": 103
    },
    {
      "midi": 88,
      "hit": false,
      "t": 201223.95833333352,
      "d": 130.20833333328483,
      "v": 115
    },
    {
      "midi": 76,
      "hit": false,
      "t": 201226.56250000017,
      "d": 85.9374999999709,
      "v": 120
    },
    {
      "midi": 79,
      "hit": false,
      "t": 201229.16666666683,
      "d": 88.54166666662786,
      "v": 108
    },
    {
      "midi": 84,
      "hit": false,
      "t": 201231.7708333335,
      "d": 83.33333333331393,
      "v": 106
    },
    {
      "midi": 72,
      "hit": false,
      "t": 201239.5833333335,
      "d": 169.27083333331393,
      "v": 112
    },
    {
      "midi": 96,
      "hit": false,
      "t": 201598.95833333346,
      "d": 132.8125,
      "v": 113
    },
    {
      "midi": 84,
      "hit": false,
      "t": 201601.56250000012,
      "d": 104.16666666665697,
      "v": 116
    },
    {
      "midi": 72,
      "hit": false,
      "t": 201604.16666666677,
      "d": 106.77083333334303,
      "v": 113
    },
    {
      "midi": 60,
      "hit": false,
      "t": 201609.37500000012,
      "d": 62.5,
      "v": 100
    },
    {
      "midi": 98,
      "hit": false,
      "t": 201812.50000000012,
      "d": 83.33333333331393,
      "v": 111
    },
    {
      "midi": 86,
      "hit": false,
      "t": 201815.10416666677,
      "d": 78.125,
      "v": 110
    },
    {
      "midi": 74,
      "hit": false,
      "t": 201820.31250000012,
      "d": 98.95833333331393,
      "v": 110
    },
    {
      "midi": 62,
      "hit": false,
      "t": 201828.12500000012,
      "d": 49.479166666656965,
      "v": 101
    },
    {
      "midi": 84,
      "hit": false,
      "t": 202015.6250000001,
      "d": 62.49999999994179,
      "v": 119
    },
    {
      "midi": 96,
      "hit": false,
      "t": 202018.22916666674,
      "d": 96.35416666662786,
      "v": 115
    },
    {
      "midi": 72,
      "hit": false,
      "t": 202036.4583333334,
      "d": 39.062499999970896,
      "v": 83
    },
    {
      "midi": 74,
      "hit": false,
      "t": 202039.06250000006,
      "d": 26.041666666656965,
      "v": 96
    },
    {
      "midi": 60,
      "hit": false,
      "t": 202039.06250000006,
      "d": 52.08333333331393,
      "v": 92
    },
    {
      "midi": 62,
      "hit": false,
      "t": 202049.47916666672,
      "d": 33.854166666656965,
      "v": 86
    },
    {
      "midi": 79,
      "hit": false,
      "t": 202213.54166666672,
      "d": 46.875,
      "v": 114
    },
    {
      "midi": 91,
      "hit": false,
      "t": 202216.14583333337,
      "d": 85.9375,
      "v": 106
    },
    {
      "midi": 55,
      "hit": false,
      "t": 202218.75000000003,
      "d": 26.04166666668607,
      "v": 105
    },
    {
      "midi": 67,
      "hit": false,
      "t": 202223.95833333337,
      "d": 39.0625,
      "v": 97
    },
    {
      "midi": 93,
      "hit": false,
      "t": 202380.20833333337,
      "d": 52.083333333343035,
      "v": 111
    },
    {
      "midi": 81,
      "hit": false,
      "t": 202382.81250000003,
      "d": 75.52083333334303,
      "v": 109
    },
    {
      "midi": 69,
      "hit": false,
      "t": 202388.02083333337,
      "d": 52.083333333343035,
      "v": 105
    },
    {
      "midi": 57,
      "hit": false,
      "t": 202395.83333333337,
      "d": 41.66666666668607,
      "v": 99
    },
    {
      "midi": 91,
      "hit": false,
      "t": 202557.29166666672,
      "d": 33.854166666656965,
      "v": 112
    },
    {
      "midi": 67,
      "hit": false,
      "t": 202557.29166666672,
      "d": 36.45833333331393,
      "v": 99
    },
    {
      "midi": 55,
      "hit": false,
      "t": 202557.29166666672,
      "d": 39.062499999970896,
      "v": 101
    },
    {
      "midi": 79,
      "hit": false,
      "t": 202557.29166666672,
      "d": 54.687499999970896,
      "v": 113
    },
    {
      "midi": 76,
      "hit": false,
      "t": 202718.75000000003,
      "d": 39.0625,
      "v": 109
    },
    {
      "midi": 88,
      "hit": false,
      "t": 202718.75000000003,
      "d": 49.479166666656965,
      "v": 105
    },
    {
      "midi": 64,
      "hit": false,
      "t": 202726.56250000003,
      "d": 33.854166666656965,
      "v": 98
    },
    {
      "midi": 52,
      "hit": false,
      "t": 202734.37500000003,
      "d": 28.64583333331393,
      "v": 96
    },
    {
      "midi": 89,
      "hit": false,
      "t": 202869.7916666667,
      "d": 33.85416666668607,
      "v": 112
    },
    {
      "midi": 77,
      "hit": false,
      "t": 202875.00000000003,
      "d": 52.083333333343035,
      "v": 109
    },
    {
      "midi": 65,
      "hit": false,
      "t": 202880.20833333337,
      "d": 31.25,
      "v": 103
    },
    {
      "midi": 53,
      "hit": false,
      "t": 202888.02083333337,
      "d": 39.0625,
      "v": 93
    },
    {
      "midi": 88,
      "hit": false,
      "t": 203031.25000000003,
      "d": 36.45833333331393,
      "v": 113
    },
    {
      "midi": 76,
      "hit": false,
      "t": 203033.8541666667,
      "d": 54.6875,
      "v": 112
    },
    {
      "midi": 64,
      "hit": false,
      "t": 203046.87500000003,
      "d": 31.249999999970896,
      "v": 98
    },
    {
      "midi": 52,
      "hit": false,
      "t": 203049.4791666667,
      "d": 33.854166666656965,
      "v": 103
    },
    {
      "midi": 72,
      "hit": false,
      "t": 203197.9166666667,
      "d": 36.458333333343035,
      "v": 104
    },
    {
      "midi": 84,
      "hit": false,
      "t": 203197.9166666667,
      "d": 52.083333333343035,
      "v": 96
    },
    {
      "midi": 60,
      "hit": false,
      "t": 203208.33333333334,
      "d": 41.66666666668607,
      "v": 99
    },
    {
      "midi": 48,
      "hit": false,
      "t": 203213.5416666667,
      "d": 31.25,
      "v": 99
    },
    {
      "midi": 83,
      "hit": false,
      "t": 203229.1666666667,
      "d": 36.458333333343035,
      "v": 57
    },
    {
      "midi": 86,
      "hit": false,
      "t": 203354.1666666667,
      "d": 36.458333333343035,
      "v": 110
    },
    {
      "midi": 74,
      "hit": false,
      "t": 203359.37500000003,
      "d": 62.500000000029104,
      "v": 106
    },
    {
      "midi": 62,
      "hit": false,
      "t": 203361.9791666667,
      "d": 41.66666666668607,
      "v": 100
    },
    {
      "midi": 50,
      "hit": false,
      "t": 203369.7916666667,
      "d": 39.062500000029104,
      "v": 100
    },
    {
      "midi": 84,
      "hit": false,
      "t": 203528.6458333334,
      "d": 28.64583333331393,
      "v": 110
    },
    {
      "midi": 60,
      "hit": false,
      "t": 203528.6458333334,
      "d": 33.854166666656965,
      "v": 102
    },
    {
      "midi": 72,
      "hit": false,
      "t": 203528.6458333334,
      "d": 57.291666666656965,
      "v": 113
    },
    {
      "midi": 48,
      "hit": false,
      "t": 203531.25000000006,
      "d": 44.270833333343035,
      "v": 100
    },
    {
      "midi": 67,
      "hit": false,
      "t": 203692.7083333334,
      "d": 46.874999999970896,
      "v": 110
    },
    {
      "midi": 55,
      "hit": false,
      "t": 203695.31250000006,
      "d": 33.854166666656965,
      "v": 103
    },
    {
      "midi": 79,
      "hit": false,
      "t": 203695.31250000006,
      "d": 44.27083333331393,
      "v": 105
    },
    {
      "midi": 43,
      "hit": false,
      "t": 203697.91666666672,
      "d": 28.645833333343035,
      "v": 100
    },
    {
      "midi": 81,
      "hit": false,
      "t": 203838.54166666672,
      "d": 31.25,
      "v": 110
    },
    {
      "midi": 57,
      "hit": false,
      "t": 203846.35416666672,
      "d": 33.854166666656965,
      "v": 102
    },
    {
      "midi": 69,
      "hit": false,
      "t": 203846.35416666672,
      "d": 49.479166666656965,
      "v": 99
    },
    {
      "midi": 45,
      "hit": false,
      "t": 203856.77083333337,
      "d": 31.25,
      "v": 99
    },
    {
      "midi": 79,
      "hit": false,
      "t": 203989.58333333337,
      "d": 33.85416666668607,
      "v": 109
    },
    {
      "midi": 67,
      "hit": false,
      "t": 203989.58333333337,
      "d": 78.125,
      "v": 111
    },
    {
      "midi": 55,
      "hit": false,
      "t": 203994.79166666672,
      "d": 36.458333333343035,
      "v": 102
    },
    {
      "midi": 43,
      "hit": false,
      "t": 203994.79166666672,
      "d": 54.6875,
      "v": 100
    },
    {
      "midi": 76,
      "hit": false,
      "t": 204145.83333333337,
      "d": 36.45833333331393,
      "v": 101
    },
    {
      "midi": 64,
      "hit": false,
      "t": 204145.83333333337,
      "d": 41.666666666656965,
      "v": 94
    },
    {
      "midi": 52,
      "hit": false,
      "t": 204145.83333333337,
      "d": 54.6875,
      "v": 108
    },
    {
      "midi": 40,
      "hit": false,
      "t": 204148.43750000003,
      "d": 26.041666666656965,
      "v": 107
    },
    {
      "midi": 65,
      "hit": false,
      "t": 204177.08333333334,
      "d": 67.70833333337214,
      "v": 47
    },
    {
      "midi": 53,
      "hit": false,
      "t": 204291.66666666672,
      "d": 41.66666666668607,
      "v": 104
    },
    {
      "midi": 77,
      "hit": false,
      "t": 204296.87500000006,
      "d": 41.66666666668607,
      "v": 94
    },
    {
      "midi": 41,
      "hit": false,
      "t": 204299.47916666672,
      "d": 39.062500000029104,
      "v": 98
    },
    {
      "midi": 79,
      "hit": false,
      "t": 204312.50000000006,
      "d": 41.66666666668607,
      "v": 89
    },
    {
      "midi": 65,
      "hit": false,
      "t": 204312.50000000006,
      "d": 44.270833333343035,
      "v": 76
    },
    {
      "midi": 76,
      "hit": false,
      "t": 204437.50000000006,
      "d": 70.31249999994179,
      "v": 110
    },
    {
      "midi": 64,
      "hit": false,
      "t": 204440.10416666672,
      "d": 78.12499999994179,
      "v": 101
    },
    {
      "midi": 52,
      "hit": false,
      "t": 204450.52083333337,
      "d": 36.45833333331393,
      "v": 106
    },
    {
      "midi": 40,
      "hit": false,
      "t": 204453.12500000003,
      "d": 36.45833333331393,
      "v": 106
    },
    {
      "midi": 65,
      "hit": false,
      "t": 204471.3541666667,
      "d": 65.10416666662786,
      "v": 49
    },
    {
      "midi": 60,
      "hit": false,
      "t": 204606.7708333333,
      "d": 52.083333333343035,
      "v": 105
    },
    {
      "midi": 72,
      "hit": false,
      "t": 204609.37499999997,
      "d": 62.500000000029104,
      "v": 101
    },
    {
      "midi": 48,
      "hit": false,
      "t": 204609.37499999997,
      "d": 91.14583333337214,
      "v": 108
    },
    {
      "midi": 36,
      "hit": false,
      "t": 204614.5833333333,
      "d": 31.25,
      "v": 104
    },
    {
      "midi": 74,
      "hit": false,
      "t": 204773.4375,
      "d": 33.85416666668607,
      "v": 105
    },
    {
      "midi": 62,
      "hit": false,
      "t": 204773.4375,
      "d": 62.500000000029104,
      "v": 92
    },
    {
      "midi": 50,
      "hit": false,
      "t": 204781.25,
      "d": 33.85416666668607,
      "v": 94
    },
    {
      "midi": 38,
      "hit": false,
      "t": 204802.08333333334,
      "d": 49.47916666668607,
      "v": 49
    },
    {
      "midi": 40,
      "hit": false,
      "t": 204812.50000000003,
      "d": 52.083333333343035,
      "v": 50
    },
    {
      "midi": 48,
      "hit": false,
      "t": 204937.50000000003,
      "d": 39.062499999970896,
      "v": 103
    },
    {
      "midi": 36,
      "hit": false,
      "t": 204940.1041666667,
      "d": 49.47916666662786,
      "v": 102
    },
    {
      "midi": 60,
      "hit": false,
      "t": 204942.70833333334,
      "d": 70.3124999999709,
      "v": 103
    },
    {
      "midi": 72,
      "hit": false,
      "t": 204945.3125,
      "d": 33.854166666656965,
      "v": 106
    },
    {
      "midi": 45,
      "hit": false,
      "t": 205119.79166666666,
      "d": 33.854166666656965,
      "v": 100
    },
    {
      "midi": 33,
      "hit": false,
      "t": 205119.79166666666,
      "d": 36.45833333331393,
      "v": 97
    },
    {
      "midi": 57,
      "hit": false,
      "t": 205135.41666666666,
      "d": 46.875,
      "v": 75
    },
    {
      "midi": 69,
      "hit": false,
      "t": 205138.0208333333,
      "d": 39.0625,
      "v": 83
    },
    {
      "midi": 28,
      "hit": false,
      "t": 205302.0833333333,
      "d": 31.250000000029104,
      "v": 110
    },
    {
      "midi": 40,
      "hit": false,
      "t": 205302.0833333333,
      "d": 41.66666666668607,
      "v": 99
    },
    {
      "midi": 52,
      "hit": false,
      "t": 205315.10416666666,
      "d": 54.6875,
      "v": 98
    },
    {
      "midi": 64,
      "hit": false,
      "t": 205320.3125,
      "d": 91.14583333331393,
      "v": 89
    },
    {
      "midi": 38,
      "hit": false,
      "t": 205346.35416666666,
      "d": 62.5,
      "v": 33
    },
    {
      "midi": 67,
      "hit": false,
      "t": 205614.5833333333,
      "d": 192.70833333328483,
      "v": 117
    },
    {
      "midi": 55,
      "hit": false,
      "t": 205619.79166666666,
      "d": 124.9999999999709,
      "v": 117
    },
    {
      "midi": 60,
      "hit": false,
      "t": 205619.79166666666,
      "d": 135.41666666662786,
      "v": 103
    },
    {
      "midi": 63,
      "hit": false,
      "t": 205627.60416666666,
      "d": 70.3124999999709,
      "v": 43
    },
    {
      "midi": 64,
      "hit": false,
      "t": 205630.2083333333,
      "d": 158.85416666662786,
      "v": 110
    },
    {
      "midi": 43,
      "hit": false,
      "t": 205632.81249999997,
      "d": 75.52083333331393,
      "v": 113
    },
    {
      "midi": 31,
      "hit": false,
      "t": 205635.41666666663,
      "d": 70.3125,
      "v": 115
    },
    {
      "midi": 75,
      "hit": false,
      "t": 206018.2291666666,
      "d": 72.91666666665697,
      "v": 103
    },
    {
      "midi": 87,
      "hit": false,
      "t": 206018.2291666666,
      "d": 101.5625,
      "v": 104
    },
    {
      "midi": 63,
      "hit": false,
      "t": 206033.8541666666,
      "d": 127.60416666668607,
      "v": 90
    },
    {
      "midi": 51,
      "hit": false,
      "t": 206049.4791666666,
      "d": 91.14583333334303,
      "v": 73
    },
    {
      "midi": 85,
      "hit": false,
      "t": 206065.1041666666,
      "d": 59.895833333343035,
      "v": 33
    },
    {
      "midi": 86,
      "hit": false,
      "t": 206223.95833333328,
      "d": 93.75,
      "v": 108
    },
    {
      "midi": 74,
      "hit": false,
      "t": 206229.16666666663,
      "d": 83.33333333331393,
      "v": 108
    },
    {
      "midi": 62,
      "hit": false,
      "t": 206239.58333333328,
      "d": 41.666666666656965,
      "v": 95
    },
    {
      "midi": 50,
      "hit": false,
      "t": 206249.99999999994,
      "d": 33.854166666656965,
      "v": 93
    },
    {
      "midi": 61,
      "hit": false,
      "t": 206411.45833333328,
      "d": 57.29166666668607,
      "v": 90
    },
    {
      "midi": 73,
      "hit": false,
      "t": 206411.45833333328,
      "d": 101.5625000000291,
      "v": 106
    },
    {
      "midi": 85,
      "hit": false,
      "t": 206414.06249999994,
      "d": 106.77083333337214,
      "v": 104
    },
    {
      "midi": 49,
      "hit": false,
      "t": 206419.27083333328,
      "d": 44.270833333343035,
      "v": 90
    },
    {
      "midi": 60,
      "hit": false,
      "t": 206552.0833333333,
      "d": 41.66666666668607,
      "v": 100
    },
    {
      "midi": 48,
      "hit": false,
      "t": 206557.29166666666,
      "d": 39.0625,
      "v": 100
    },
    {
      "midi": 84,
      "hit": false,
      "t": 206557.29166666666,
      "d": 39.0625,
      "v": 102
    },
    {
      "midi": 72,
      "hit": false,
      "t": 206562.5,
      "d": 39.0625,
      "v": 106
    },
    {
      "midi": 59,
      "hit": false,
      "t": 206708.33333333334,
      "d": 36.45833333331393,
      "v": 82
    },
    {
      "midi": 71,
      "hit": false,
      "t": 206710.9375,
      "d": 41.666666666656965,
      "v": 102
    },
    {
      "midi": 47,
      "hit": false,
      "t": 206716.14583333334,
      "d": 33.854166666656965,
      "v": 76
    },
    {
      "midi": 83,
      "hit": false,
      "t": 206718.75,
      "d": 26.041666666656965,
      "v": 86
    },
    {
      "midi": 58,
      "hit": false,
      "t": 206859.375,
      "d": 80.72916666665697,
      "v": 98
    },
    {
      "midi": 82,
      "hit": false,
      "t": 206859.375,
      "d": 101.5625,
      "v": 116
    },
    {
      "midi": 70,
      "hit": false,
      "t": 206859.375,
      "d": 104.16666666665697,
      "v": 117
    },
    {
      "midi": 46,
      "hit": false,
      "t": 206869.79166666666,
      "d": 39.0625,
      "v": 103
    },
    {
      "midi": 69,
      "hit": false,
      "t": 207013.0208333333,
      "d": 54.687499999970896,
      "v": 109
    },
    {
      "midi": 81,
      "hit": false,
      "t": 207015.62499999997,
      "d": 31.25,
      "v": 108
    },
    {
      "midi": 57,
      "hit": false,
      "t": 207015.62499999997,
      "d": 33.854166666656965,
      "v": 98
    },
    {
      "midi": 45,
      "hit": false,
      "t": 207018.22916666663,
      "d": 28.645833333343035,
      "v": 98
    },
    {
      "midi": 56,
      "hit": false,
      "t": 207169.27083333328,
      "d": 54.6875,
      "v": 94
    },
    {
      "midi": 80,
      "hit": false,
      "t": 207169.27083333328,
      "d": 98.95833333334303,
      "v": 105
    },
    {
      "midi": 68,
      "hit": false,
      "t": 207171.87499999994,
      "d": 101.5625000000291,
      "v": 105
    },
    {
      "midi": 44,
      "hit": false,
      "t": 207177.08333333328,
      "d": 33.854166666656965,
      "v": 88
    },
    {
      "midi": 55,
      "hit": false,
      "t": 207315.10416666663,
      "d": 41.66666666662786,
      "v": 94
    },
    {
      "midi": 43,
      "hit": false,
      "t": 207317.70833333328,
      "d": 36.45833333331393,
      "v": 92
    },
    {
      "midi": 79,
      "hit": false,
      "t": 207328.12499999994,
      "d": 36.45833333331393,
      "v": 105
    },
    {
      "midi": 67,
      "hit": false,
      "t": 207328.12499999994,
      "d": 46.874999999970896,
      "v": 106
    },
    {
      "midi": 54,
      "hit": false,
      "t": 207476.5624999999,
      "d": 59.89583333331393,
      "v": 91
    },
    {
      "midi": 42,
      "hit": false,
      "t": 207486.97916666657,
      "d": 41.666666666656965,
      "v": 88
    },
    {
      "midi": 66,
      "hit": false,
      "t": 207494.79166666657,
      "d": 67.70833333331393,
      "v": 98
    },
    {
      "midi": 78,
      "hit": false,
      "t": 207494.79166666657,
      "d": 117.1874999999709,
      "v": 98
    },
    {
      "midi": 53,
      "hit": false,
      "t": 207635.41666666654,
      "d": 65.10416666665697,
      "v": 101
    },
    {
      "midi": 77,
      "hit": false,
      "t": 207638.0208333332,
      "d": 91.14583333334303,
      "v": 103
    },
    {
      "midi": 65,
      "hit": false,
      "t": 207643.22916666654,
      "d": 39.0625,
      "v": 84
    },
    {
      "midi": 41,
      "hit": false,
      "t": 207643.22916666654,
      "d": 49.479166666656965,
      "v": 101
    },
    {
      "midi": 40,
      "hit": false,
      "t": 207880.20833333323,
      "d": 80.72916666662786,
      "v": 111
    },
    {
      "midi": 52,
      "hit": false,
      "t": 207882.81249999988,
      "d": 80.72916666662786,
      "v": 113
    },
    {
      "midi": 88,
      "hit": false,
      "t": 207885.41666666654,
      "d": 645.8333333333721,
      "v": 119
    },
    {
      "midi": 80,
      "hit": false,
      "t": 207888.0208333332,
      "d": 645.8333333333721,
      "v": 106
    },
    {
      "midi": 76,
      "hit": false,
      "t": 207888.0208333332,
      "d": 703.1250000000582,
      "v": 118
    },
    {
      "midi": 51,
      "hit": false,
      "t": 208070.31249999985,
      "d": 83.33333333334303,
      "v": 96
    },
    {
      "midi": 39,
      "hit": false,
      "t": 208078.12499999985,
      "d": 80.72916666668607,
      "v": 93
    },
    {
      "midi": 50,
      "hit": false,
      "t": 208221.35416666654,
      "d": 39.0625,
      "v": 100
    },
    {
      "midi": 38,
      "hit": false,
      "t": 208226.56249999988,
      "d": 39.0625,
      "v": 93
    },
    {
      "midi": 49,
      "hit": false,
      "t": 208364.58333333323,
      "d": 85.9375000000291,
      "v": 101
    },
    {
      "midi": 37,
      "hit": false,
      "t": 208369.79166666657,
      "d": 36.458333333343035,
      "v": 97
    },
    {
      "midi": 48,
      "hit": false,
      "t": 208520.83333333326,
      "d": 41.666666666656965,
      "v": 102
    },
    {
      "midi": 36,
      "hit": false,
      "t": 208520.83333333326,
      "d": 80.72916666665697,
      "v": 96
    },
    {
      "midi": 35,
      "hit": false,
      "t": 208674.47916666657,
      "d": 36.458333333343035,
      "v": 78
    },
    {
      "midi": 48,
      "hit": false,
      "t": 208677.08333333323,
      "d": 41.66666666668607,
      "v": 90
    },
    {
      "midi": 36,
      "hit": false,
      "t": 208682.29166666657,
      "d": 33.85416666668607,
      "v": 81
    },
    {
      "midi": 47,
      "hit": false,
      "t": 208682.29166666657,
      "d": 33.85416666668607,
      "v": 53
    },
    {
      "midi": 86,
      "hit": false,
      "t": 208828.1249999999,
      "d": 221.35416666662786,
      "v": 117
    },
    {
      "midi": 77,
      "hit": false,
      "t": 208828.1249999999,
      "d": 265.6249999999418,
      "v": 111
    },
    {
      "midi": 74,
      "hit": false,
      "t": 208833.33333333326,
      "d": 286.4583333332557,
      "v": 110
    },
    {
      "midi": 46,
      "hit": false,
      "t": 208835.9374999999,
      "d": 80.72916666665697,
      "v": 115
    },
    {
      "midi": 34,
      "hit": false,
      "t": 208841.14583333326,
      "d": 49.479166666656965,
      "v": 113
    },
    {
      "midi": 45,
      "hit": false,
      "t": 208986.97916666657,
      "d": 65.10416666662786,
      "v": 107
    },
    {
      "midi": 33,
      "hit": false,
      "t": 208989.58333333323,
      "d": 57.291666666656965,
      "v": 101
    },
    {
      "midi": 44,
      "hit": false,
      "t": 209174.4791666665,
      "d": 54.6875,
      "v": 97
    },
    {
      "midi": 32,
      "hit": false,
      "t": 209177.08333333317,
      "d": 46.875,
      "v": 98
    },
    {
      "midi": 79,
      "hit": false,
      "t": 209380.20833333317,
      "d": 364.5833333332848,
      "v": 111
    },
    {
      "midi": 71,
      "hit": false,
      "t": 209382.81249999983,
      "d": 263.02083333331393,
      "v": 91
    },
    {
      "midi": 67,
      "hit": false,
      "t": 209385.41666666648,
      "d": 234.3749999999709,
      "v": 102
    },
    {
      "midi": 74,
      "hit": false,
      "t": 209385.41666666648,
      "d": 296.8749999999709,
      "v": 104
    },
    {
      "midi": 43,
      "hit": false,
      "t": 209388.02083333314,
      "d": 91.14583333331393,
      "v": 108
    },
    {
      "midi": 65,
      "hit": false,
      "t": 209388.02083333314,
      "d": 187.4999999999709,
      "v": 111
    },
    {
      "midi": 31,
      "hit": false,
      "t": 209390.6249999998,
      "d": 70.3125,
      "v": 114
    },
    {
      "midi": 42,
      "hit": false,
      "t": 209580.72916666645,
      "d": 91.14583333334303,
      "v": 99
    },
    {
      "midi": 30,
      "hit": false,
      "t": 209585.9374999998,
      "d": 39.0625,
      "v": 98
    },
    {
      "midi": 45,
      "hit": false,
      "t": 209791.66666666645,
      "d": 54.6875,
      "v": 114
    },
    {
      "midi": 33,
      "hit": false,
      "t": 209799.47916666645,
      "d": 26.041666666656965,
      "v": 105
    },
    {
      "midi": 43,
      "hit": false,
      "t": 210158.85416666645,
      "d": 59.89583333331393,
      "v": 110
    },
    {
      "midi": 79,
      "hit": false,
      "t": 210177.0833333331,
      "d": 226.5625000000291,
      "v": 105
    },
    {
      "midi": 86,
      "hit": false,
      "t": 210177.0833333331,
      "d": 328.1250000000291,
      "v": 117
    },
    {
      "midi": 77,
      "hit": false,
      "t": 210182.29166666645,
      "d": 218.7500000000291,
      "v": 104
    },
    {
      "midi": 74,
      "hit": false,
      "t": 210182.29166666645,
      "d": 226.5625000000291,
      "v": 111
    },
    {
      "midi": 50,
      "hit": false,
      "t": 210192.7083333331,
      "d": 39.0625,
      "v": 95
    },
    {
      "midi": 53,
      "hit": false,
      "t": 210216.1458333331,
      "d": 44.270833333343035,
      "v": 95
    },
    {
      "midi": 59,
      "hit": false,
      "t": 210252.60416666645,
      "d": 36.458333333343035,
      "v": 97
    },
    {
      "midi": 88,
      "hit": false,
      "t": 211078.1249999998,
      "d": 218.75,
      "v": 111
    },
    {
      "midi": 100,
      "hit": false,
      "t": 211080.72916666645,
      "d": 218.75,
      "v": 112
    },
    {
      "midi": 76,
      "hit": false,
      "t": 211098.9583333331,
      "d": 161.45833333334303,
      "v": 113
    },
    {
      "midi": 64,
      "hit": false,
      "t": 211104.16666666645,
      "d": 177.08333333334303,
      "v": 102
    },
    {
      "midi": 86,
      "hit": false,
      "t": 211447.91666666645,
      "d": 70.3125,
      "v": 110
    },
    {
      "midi": 98,
      "hit": false,
      "t": 211450.5208333331,
      "d": 33.85416666668607,
      "v": 93
    },
    {
      "midi": 74,
      "hit": false,
      "t": 211455.72916666645,
      "d": 33.85416666668607,
      "v": 103
    },
    {
      "midi": 62,
      "hit": false,
      "t": 211460.9374999998,
      "d": 39.0625,
      "v": 100
    },
    {
      "midi": 93,
      "hit": false,
      "t": 211739.5833333331,
      "d": 135.41666666665697,
      "v": 106
    },
    {
      "midi": 81,
      "hit": false,
      "t": 211744.79166666645,
      "d": 106.77083333331393,
      "v": 105
    },
    {
      "midi": 69,
      "hit": false,
      "t": 211752.60416666645,
      "d": 41.666666666656965,
      "v": 101
    },
    {
      "midi": 57,
      "hit": false,
      "t": 211755.2083333331,
      "d": 36.458333333343035,
      "v": 105
    },
    {
      "midi": 67,
      "hit": false,
      "t": 211999.99999999977,
      "d": 44.27083333331393,
      "v": 101
    },
    {
      "midi": 79,
      "hit": false,
      "t": 211999.99999999977,
      "d": 96.35416666662786,
      "v": 108
    },
    {
      "midi": 55,
      "hit": false,
      "t": 212002.60416666642,
      "d": 44.27083333331393,
      "v": 106
    },
    {
      "midi": 91,
      "hit": false,
      "t": 212002.60416666642,
      "d": 59.89583333331393,
      "v": 103
    },
    {
      "midi": 76,
      "hit": false,
      "t": 212223.95833333305,
      "d": 70.3125,
      "v": 105
    },
    {
      "midi": 88,
      "hit": false,
      "t": 212223.95833333305,
      "d": 88.54166666665697,
      "v": 101
    },
    {
      "midi": 52,
      "hit": false,
      "t": 212226.5624999997,
      "d": 39.0625,
      "v": 105
    },
    {
      "midi": 64,
      "hit": false,
      "t": 212229.16666666637,
      "d": 36.458333333343035,
      "v": 100
    },
    {
      "midi": 86,
      "hit": false,
      "t": 212432.29166666637,
      "d": 31.25,
      "v": 105
    },
    {
      "midi": 50,
      "hit": false,
      "t": 212432.29166666637,
      "d": 33.854166666656965,
      "v": 105
    },
    {
      "midi": 62,
      "hit": false,
      "t": 212432.29166666637,
      "d": 33.854166666656965,
      "v": 92
    },
    {
      "midi": 74,
      "hit": false,
      "t": 212432.29166666637,
      "d": 36.45833333331393,
      "v": 98
    },
    {
      "midi": 81,
      "hit": false,
      "t": 212640.62499999968,
      "d": 65.10416666662786,
      "v": 104
    },
    {
      "midi": 69,
      "hit": false,
      "t": 212643.22916666634,
      "d": 44.27083333331393,
      "v": 96
    },
    {
      "midi": 45,
      "hit": false,
      "t": 212645.833333333,
      "d": 31.25,
      "v": 109
    },
    {
      "midi": 57,
      "hit": false,
      "t": 212648.43749999965,
      "d": 39.0625,
      "v": 98
    },
    {
      "midi": 67,
      "hit": false,
      "t": 212893.2291666663,
      "d": 44.270833333343035,
      "v": 101
    },
    {
      "midi": 79,
      "hit": false,
      "t": 212898.43749999965,
      "d": 33.854166666656965,
      "v": 95
    },
    {
      "midi": 43,
      "hit": false,
      "t": 212901.0416666663,
      "d": 36.458333333343035,
      "v": 101
    },
    {
      "midi": 55,
      "hit": false,
      "t": 212901.0416666663,
      "d": 36.458333333343035,
      "v": 90
    },
    {
      "midi": 55,
      "hit": false,
      "t": 213208.333333333,
      "d": 114.58333333334303,
      "v": 97
    },
    {
      "midi": 65,
      "hit": false,
      "t": 213208.333333333,
      "d": 174.47916666668607,
      "v": 92
    },
    {
      "midi": 67,
      "hit": false,
      "t": 213213.54166666634,
      "d": 223.95833333334303,
      "v": 98
    },
    {
      "midi": 31,
      "hit": false,
      "t": 213218.74999999968,
      "d": 26.041666666656965,
      "v": 110
    },
    {
      "midi": 43,
      "hit": false,
      "t": 213221.35416666634,
      "d": 28.645833333343035,
      "v": 97
    },
    {
      "midi": 59,
      "hit": false,
      "t": 213223.958333333,
      "d": 96.35416666668607,
      "v": 69
    },
    {
      "midi": 64,
      "hit": false,
      "t": 213705.72916666634,
      "d": 1958.333333333314,
      "v": 97
    },
    {
      "midi": 60,
      "hit": false,
      "t": 213705.72916666634,
      "d": 2002.604166666657,
      "v": 88
    },
    {
      "midi": 72,
      "hit": false,
      "t": 213708.333333333,
      "d": 2263.020833333343,
      "v": 105
    },
    {
      "midi": 24,
      "hit": false,
      "t": 213716.145833333,
      "d": 164.0625,
      "v": 106
    },
    {
      "midi": 36,
      "hit": false,
      "t": 213716.145833333,
      "d": 216.14583333334303,
      "v": 104
    },
    {
      "midi": 62,
      "hit": false,
      "t": 213755.208333333,
      "d": 44.270833333343035,
      "v": 32
    },
    {
      "midi": 43,
      "hit": false,
      "t": 214124.99999999965,
      "d": 114.58333333334303,
      "v": 75
    },
    {
      "midi": 31,
      "hit": false,
      "t": 214132.81249999965,
      "d": 93.75,
      "v": 70
    },
    {
      "midi": 43,
      "hit": false,
      "t": 214369.79166666634,
      "d": 114.58333333331393,
      "v": 63
    },
    {
      "midi": 31,
      "hit": false,
      "t": 214388.020833333,
      "d": 57.291666666656965,
      "v": 83
    },
    {
      "midi": 43,
      "hit": false,
      "t": 214656.24999999965,
      "d": 49.479166666656965,
      "v": 80
    },
    {
      "midi": 31,
      "hit": false,
      "t": 214671.87499999965,
      "d": 39.0625,
      "v": 75
    },
    {
      "midi": 36,
      "hit": false,
      "t": 214890.62499999965,
      "d": 49.47916666668607,
      "v": 76
    },
    {
      "midi": 48,
      "hit": false,
      "t": 214895.833333333,
      "d": 70.3125,
      "v": 62
    },
    {
      "midi": 48,
      "hit": false,
      "t": 215083.333333333,
      "d": 91.14583333334303,
      "v": 70
    },
    {
      "midi": 36,
      "hit": false,
      "t": 215111.97916666634,
      "d": 46.875,
      "v": 57
    },
    {
      "midi": 48,
      "hit": false,
      "t": 215286.458333333,
      "d": 67.70833333331393,
      "v": 81
    },
    {
      "midi": 36,
      "hit": false,
      "t": 215302.083333333,
      "d": 41.666666666656965,
      "v": 65
    },
    {
      "midi": 55,
      "hit": false,
      "t": 215515.62499999965,
      "d": 49.479166666656965,
      "v": 76
    },
    {
      "midi": 43,
      "hit": false,
      "t": 215523.43749999965,
      "d": 49.479166666656965,
      "v": 67
    },
    {
      "midi": 55,
      "hit": false,
      "t": 215739.583333333,
      "d": 75.52083333334303,
      "v": 68
    },
    {
      "midi": 43,
      "hit": false,
      "t": 215752.60416666634,
      "d": 70.3125,
      "v": 56
    },
    {
      "midi": 55,
      "hit": false,
      "t": 215989.583333333,
      "d": 109.3749999999709,
      "v": 66
    },
    {
      "midi": 43,
      "hit": false,
      "t": 216002.6041666663,
      "d": 54.6875,
      "v": 54
    },
    {
      "midi": 60,
      "hit": false,
      "t": 216239.58333333296,
      "d": 62.5,
      "v": 51
    },
    {
      "midi": 48,
      "hit": false,
      "t": 216273.43749999962,
      "d": 65.10416666668607,
      "v": 25
    },
    {
      "midi": 60,
      "hit": false,
      "t": 216489.58333333296,
      "d": 88.54166666668607,
      "v": 46
    },
    {
      "midi": 48,
      "hit": false,
      "t": 216502.6041666663,
      "d": 67.70833333334303,
      "v": 43
    },
    {
      "midi": 60,
      "hit": false,
      "t": 216807.2916666663,
      "d": 130.20833333331393,
      "v": 63
    },
    {
      "midi": 48,
      "hit": false,
      "t": 216825.52083333296,
      "d": 101.5625,
      "v": 52
    },
    {
      "midi": 72,
      "hit": false,
      "t": 217132.81249999962,
      "d": 75.52083333334303,
      "v": 47
    },
    {
      "midi": 75,
      "hit": false,
      "t": 217132.81249999962,
      "d": 85.9375,
      "v": 41
    },
    {
      "midi": 67,
      "hit": false,
      "t": 217143.22916666628,
      "d": 78.125,
      "v": 35
    },
    {
      "midi": 60,
      "hit": false,
      "t": 217148.43749999962,
      "d": 85.9375,
      "v": 32
    },
    {
      "midi": 51,
      "hit": false,
      "t": 217169.27083333296,
      "d": 83.33333333331393,
      "v": 31
    },
    {
      "midi": 63,
      "hit": false,
      "t": 217455.72916666628,
      "d": 62.5,
      "v": 40
    },
    {
      "midi": 75,
      "hit": false,
      "t": 217458.33333333294,
      "d": 65.10416666668607,
      "v": 50
    },
    {
      "midi": 67,
      "hit": false,
      "t": 217466.14583333294,
      "d": 62.500000000029104,
      "v": 41
    },
    {
      "midi": 72,
      "hit": false,
      "t": 217489.58333333294,
      "d": 72.91666666668607,
      "v": 29
    },
    {
      "midi": 55,
      "hit": false,
      "t": 217494.79166666628,
      "d": 70.3125,
      "v": 27
    },
    {
      "midi": 79,
      "hit": false,
      "t": 217760.41666666628,
      "d": 955.7291666667152,
      "v": 84
    },
    {
      "midi": 67,
      "hit": false,
      "t": 217783.85416666628,
      "d": 75.52083333337214,
      "v": 37
    },
    {
      "midi": 72,
      "hit": false,
      "t": 217794.27083333294,
      "d": 59.89583333337214,
      "v": 55
    },
    {
      "midi": 51,
      "hit": false,
      "t": 217807.29166666628,
      "d": 78.1250000000291,
      "v": 34
    },
    {
      "midi": 75,
      "hit": false,
      "t": 217812.49999999962,
      "d": 65.10416666668607,
      "v": 26
    },
    {
      "midi": 60,
      "hit": false,
      "t": 217848.95833333296,
      "d": 75.52083333334303,
      "v": 9
    },
    {
      "midi": 67,
      "hit": false,
      "t": 218057.2916666663,
      "d": 85.9375000000291,
      "v": 39
    },
    {
      "midi": 75,
      "hit": false,
      "t": 218065.1041666663,
      "d": 72.91666666668607,
      "v": 44
    },
    {
      "midi": 63,
      "hit": false,
      "t": 218070.31249999965,
      "d": 67.70833333334303,
      "v": 31
    },
    {
      "midi": 55,
      "hit": false,
      "t": 218088.5416666663,
      "d": 88.54166666668607,
      "v": 34
    },
    {
      "midi": 72,
      "hit": false,
      "t": 218101.56249999965,
      "d": 65.10416666668607,
      "v": 18
    },
    {
      "midi": 51,
      "hit": false,
      "t": 218369.79166666634,
      "d": 75.52083333334303,
      "v": 41
    },
    {
      "midi": 67,
      "hit": false,
      "t": 218369.79166666634,
      "d": 75.52083333334303,
      "v": 39
    },
    {
      "midi": 60,
      "hit": false,
      "t": 218374.99999999968,
      "d": 62.5,
      "v": 41
    },
    {
      "midi": 75,
      "hit": false,
      "t": 218374.99999999968,
      "d": 80.72916666665697,
      "v": 38
    },
    {
      "midi": 72,
      "hit": false,
      "t": 218734.37499999965,
      "d": 119.79166666665697,
      "v": 57
    },
    {
      "midi": 68,
      "hit": false,
      "t": 218734.37499999965,
      "d": 156.2499999999709,
      "v": 48
    },
    {
      "midi": 75,
      "hit": false,
      "t": 218736.9791666663,
      "d": 182.29166666665697,
      "v": 47
    },
    {
      "midi": 41,
      "hit": false,
      "t": 218755.20833333296,
      "d": 101.5625,
      "v": 42
    },
    {
      "midi": 53,
      "hit": false,
      "t": 218755.20833333296,
      "d": 135.41666666665697,
      "v": 46
    },
    {
      "midi": 75,
      "hit": false,
      "t": 219028.64583333296,
      "d": 132.8125000000291,
      "v": 42
    },
    {
      "midi": 60,
      "hit": false,
      "t": 219041.6666666663,
      "d": 67.70833333334303,
      "v": 68
    },
    {
      "midi": 68,
      "hit": false,
      "t": 219046.87499999965,
      "d": 67.70833333334303,
      "v": 49
    },
    {
      "midi": 53,
      "hit": false,
      "t": 219062.49999999965,
      "d": 70.3125,
      "v": 27
    },
    {
      "midi": 72,
      "hit": false,
      "t": 219067.708333333,
      "d": 65.10416666665697,
      "v": 44
    },
    {
      "midi": 75,
      "hit": false,
      "t": 219263.020833333,
      "d": 101.5625,
      "v": 49
    },
    {
      "midi": 63,
      "hit": false,
      "t": 219268.22916666634,
      "d": 59.895833333343035,
      "v": 67
    },
    {
      "midi": 68,
      "hit": false,
      "t": 219281.24999999968,
      "d": 54.6875,
      "v": 56
    },
    {
      "midi": 56,
      "hit": false,
      "t": 219283.85416666634,
      "d": 62.5,
      "v": 54
    },
    {
      "midi": 72,
      "hit": false,
      "t": 219289.06249999968,
      "d": 57.291666666656965,
      "v": 52
    },
    {
      "midi": 80,
      "hit": false,
      "t": 219489.583333333,
      "d": 700.520833333343,
      "v": 88
    },
    {
      "midi": 53,
      "hit": false,
      "t": 219513.020833333,
      "d": 72.91666666665697,
      "v": 55
    },
    {
      "midi": 68,
      "hit": false,
      "t": 219513.020833333,
      "d": 72.91666666665697,
      "v": 42
    },
    {
      "midi": 60,
      "hit": false,
      "t": 219528.645833333,
      "d": 67.70833333331393,
      "v": 48
    },
    {
      "midi": 63,
      "hit": false,
      "t": 219739.58333333296,
      "d": 57.29166666668607,
      "v": 52
    },
    {
      "midi": 68,
      "hit": false,
      "t": 219739.58333333296,
      "d": 62.500000000029104,
      "v": 46
    },
    {
      "midi": 75,
      "hit": false,
      "t": 219744.7916666663,
      "d": 62.500000000029104,
      "v": 51
    },
    {
      "midi": 56,
      "hit": false,
      "t": 219763.02083333296,
      "d": 62.500000000029104,
      "v": 44
    },
    {
      "midi": 72,
      "hit": false,
      "t": 219768.2291666663,
      "d": 67.70833333334303,
      "v": 33
    },
    {
      "midi": 72,
      "hit": false,
      "t": 219966.145833333,
      "d": 91.14583333334303,
      "v": 31
    },
    {
      "midi": 68,
      "hit": false,
      "t": 219973.958333333,
      "d": 93.75,
      "v": 57
    },
    {
      "midi": 75,
      "hit": false,
      "t": 219979.16666666634,
      "d": 65.10416666665697,
      "v": 53
    },
    {
      "midi": 53,
      "hit": false,
      "t": 219989.583333333,
      "d": 52.083333333343035,
      "v": 48
    },
    {
      "midi": 60,
      "hit": false,
      "t": 219989.583333333,
      "d": 67.70833333334303,
      "v": 36
    },
    {
      "midi": 74,
      "hit": false,
      "t": 220294.27083333302,
      "d": 145.83333333337214,
      "v": 61
    },
    {
      "midi": 65,
      "hit": false,
      "t": 220302.08333333302,
      "d": 88.54166666668607,
      "v": 41
    },
    {
      "midi": 35,
      "hit": false,
      "t": 220307.29166666637,
      "d": 78.125,
      "v": 42
    },
    {
      "midi": 67,
      "hit": false,
      "t": 220312.4999999997,
      "d": 91.14583333334303,
      "v": 37
    },
    {
      "midi": 47,
      "hit": false,
      "t": 220312.4999999997,
      "d": 119.79166666668607,
      "v": 37
    },
    {
      "midi": 74,
      "hit": false,
      "t": 220609.37499999974,
      "d": 104.16666666665697,
      "v": 58
    },
    {
      "midi": 55,
      "hit": false,
      "t": 220619.7916666664,
      "d": 156.25,
      "v": 37
    },
    {
      "midi": 67,
      "hit": false,
      "t": 220632.81249999974,
      "d": 93.75,
      "v": 30
    },
    {
      "midi": 65,
      "hit": false,
      "t": 220638.02083333308,
      "d": 80.72916666665697,
      "v": 32
    },
    {
      "midi": 47,
      "hit": false,
      "t": 220648.43749999974,
      "d": 65.10416666665697,
      "v": 29
    },
    {
      "midi": 79,
      "hit": false,
      "t": 220908.8541666664,
      "d": 533.8541666666861,
      "v": 93
    },
    {
      "midi": 62,
      "hit": false,
      "t": 220921.87499999974,
      "d": 93.75,
      "v": 39
    },
    {
      "midi": 67,
      "hit": false,
      "t": 220937.49999999974,
      "d": 114.58333333331393,
      "v": 34
    },
    {
      "midi": 50,
      "hit": false,
      "t": 220940.1041666664,
      "d": 62.5,
      "v": 51
    },
    {
      "midi": 65,
      "hit": false,
      "t": 220947.9166666664,
      "d": 78.125,
      "v": 54
    },
    {
      "midi": 74,
      "hit": false,
      "t": 220953.12499999974,
      "d": 62.5,
      "v": 32
    },
    {
      "midi": 65,
      "hit": false,
      "t": 221187.4999999997,
      "d": 57.29166666668607,
      "v": 61
    },
    {
      "midi": 67,
      "hit": false,
      "t": 221187.4999999997,
      "d": 70.3125000000291,
      "v": 18
    },
    {
      "midi": 47,
      "hit": false,
      "t": 221192.70833333305,
      "d": 52.083333333343035,
      "v": 37
    },
    {
      "midi": 74,
      "hit": false,
      "t": 221208.33333333305,
      "d": 52.083333333343035,
      "v": 50
    },
    {
      "midi": 55,
      "hit": false,
      "t": 221216.14583333305,
      "d": 205.72916666668607,
      "v": 50
    },
    {
      "midi": 62,
      "hit": false,
      "t": 221453.12499999974,
      "d": 72.91666666665697,
      "v": 43
    },
    {
      "midi": 74,
      "hit": false,
      "t": 221468.74999999974,
      "d": 59.89583333331393,
      "v": 38
    },
    {
      "midi": 65,
      "hit": false,
      "t": 221486.9791666664,
      "d": 117.1874999999709,
      "v": 31
    },
    {
      "midi": 67,
      "hit": false,
      "t": 221499.99999999974,
      "d": 62.499999999970896,
      "v": 11
    },
    {
      "midi": 50,
      "hit": false,
      "t": 221528.64583333305,
      "d": 104.16666666665697,
      "v": 5
    },
    {
      "midi": 74,
      "hit": false,
      "t": 221807.29166666637,
      "d": 624.9999999999709,
      "v": 80
    },
    {
      "midi": 47,
      "hit": false,
      "t": 221856.77083333302,
      "d": 57.291666666656965,
      "v": 30
    },
    {
      "midi": 55,
      "hit": false,
      "t": 221859.37499999968,
      "d": 65.10416666665697,
      "v": 31
    },
    {
      "midi": 65,
      "hit": false,
      "t": 221861.97916666634,
      "d": 70.3125,
      "v": 30
    },
    {
      "midi": 67,
      "hit": false,
      "t": 222218.74999999968,
      "d": 143.22916666665697,
      "v": 51
    },
    {
      "midi": 48,
      "hit": false,
      "t": 222226.56249999968,
      "d": 182.29166666665697,
      "v": 55
    },
    {
      "midi": 63,
      "hit": false,
      "t": 222229.16666666634,
      "d": 140.625,
      "v": 40
    },
    {
      "midi": 36,
      "hit": false,
      "t": 222244.79166666634,
      "d": 117.1875,
      "v": 39
    },
    {
      "midi": 75,
      "hit": false,
      "t": 222627.60416666634,
      "d": 164.0625,
      "v": 71
    },
    {
      "midi": 67,
      "hit": false,
      "t": 222653.645833333,
      "d": 65.10416666668607,
      "v": 41
    },
    {
      "midi": 72,
      "hit": false,
      "t": 222666.66666666634,
      "d": 70.3125,
      "v": 36
    },
    {
      "midi": 48,
      "hit": false,
      "t": 222781.24999999968,
      "d": 93.75,
      "v": 42
    },
    {
      "midi": 55,
      "hit": false,
      "t": 222781.24999999968,
      "d": 234.375,
      "v": 35
    },
    {
      "midi": 77,
      "hit": false,
      "t": 222940.10416666634,
      "d": 223.95833333331393,
      "v": 80
    },
    {
      "midi": 67,
      "hit": false,
      "t": 222960.93749999968,
      "d": 57.291666666656965,
      "v": 57
    },
    {
      "midi": 72,
      "hit": false,
      "t": 222984.37499999968,
      "d": 65.10416666665697,
      "v": 40
    },
    {
      "midi": 63,
      "hit": false,
      "t": 223091.145833333,
      "d": 125,
      "v": 45
    },
    {
      "midi": 51,
      "hit": false,
      "t": 223124.99999999965,
      "d": 78.125,
      "v": 39
    },
    {
      "midi": 75,
      "hit": false,
      "t": 223169.270833333,
      "d": 132.8125000000291,
      "v": 78
    },
    {
      "midi": 72,
      "hit": false,
      "t": 223171.87499999965,
      "d": 78.1250000000291,
      "v": 50
    },
    {
      "midi": 67,
      "hit": false,
      "t": 223195.31249999965,
      "d": 49.47916666668607,
      "v": 57
    },
    {
      "midi": 74,
      "hit": false,
      "t": 223403.64583333302,
      "d": 296.875,
      "v": 90
    },
    {
      "midi": 48,
      "hit": false,
      "t": 223419.27083333302,
      "d": 145.83333333334303,
      "v": 29
    },
    {
      "midi": 67,
      "hit": false,
      "t": 223424.47916666637,
      "d": 52.083333333343035,
      "v": 62
    },
    {
      "midi": 55,
      "hit": false,
      "t": 223424.47916666637,
      "d": 268.22916666665697,
      "v": 39
    },
    {
      "midi": 72,
      "hit": false,
      "t": 223440.10416666637,
      "d": 54.6875,
      "v": 55
    },
    {
      "midi": 75,
      "hit": false,
      "t": 223653.64583333302,
      "d": 119.79166666668607,
      "v": 83
    },
    {
      "midi": 67,
      "hit": false,
      "t": 223674.47916666637,
      "d": 54.6875,
      "v": 55
    },
    {
      "midi": 63,
      "hit": false,
      "t": 223760.41666666637,
      "d": 54.687500000029104,
      "v": 43
    },
    {
      "midi": 51,
      "hit": false,
      "t": 223778.64583333305,
      "d": 72.91666666668607,
      "v": 46
    },
    {
      "midi": 77,
      "hit": false,
      "t": 223856.77083333308,
      "d": 98.95833333331393,
      "v": 90
    },
    {
      "midi": 67,
      "hit": false,
      "t": 223874.99999999974,
      "d": 57.291666666656965,
      "v": 49
    },
    {
      "midi": 72,
      "hit": false,
      "t": 223874.99999999974,
      "d": 62.5,
      "v": 36
    },
    {
      "midi": 55,
      "hit": false,
      "t": 224018.2291666664,
      "d": 49.479166666656965,
      "v": 60
    },
    {
      "midi": 48,
      "hit": false,
      "t": 224026.0416666664,
      "d": 93.7499999999709,
      "v": 44
    },
    {
      "midi": 79,
      "hit": false,
      "t": 224085.9374999997,
      "d": 106.77083333331393,
      "v": 95
    },
    {
      "midi": 67,
      "hit": false,
      "t": 224130.20833333302,
      "d": 328.1250000000291,
      "v": 23
    },
    {
      "midi": 72,
      "hit": false,
      "t": 224432.29166666637,
      "d": 718.7500000000291,
      "v": 89
    },
    {
      "midi": 68,
      "hit": false,
      "t": 224437.4999999997,
      "d": 187.5,
      "v": 60
    },
    {
      "midi": 44,
      "hit": false,
      "t": 224440.10416666637,
      "d": 174.47916666668607,
      "v": 56
    },
    {
      "midi": 32,
      "hit": false,
      "t": 224445.3124999997,
      "d": 145.83333333334303,
      "v": 59
    },
    {
      "midi": 63,
      "hit": false,
      "t": 224835.9374999997,
      "d": 85.9375,
      "v": 52
    },
    {
      "midi": 56,
      "hit": false,
      "t": 224846.35416666637,
      "d": 106.77083333337214,
      "v": 63
    },
    {
      "midi": 68,
      "hit": false,
      "t": 224851.5624999997,
      "d": 75.52083333334303,
      "v": 50
    },
    {
      "midi": 48,
      "hit": false,
      "t": 224869.79166666637,
      "d": 62.500000000029104,
      "v": 46
    },
    {
      "midi": 51,
      "hit": false,
      "t": 225132.81249999974,
      "d": 138.02083333331393,
      "v": 62
    },
    {
      "midi": 60,
      "hit": false,
      "t": 225140.62499999974,
      "d": 104.16666666665697,
      "v": 57
    },
    {
      "midi": 63,
      "hit": false,
      "t": 225151.0416666664,
      "d": 57.291666666656965,
      "v": 55
    },
    {
      "midi": 68,
      "hit": false,
      "t": 225151.0416666664,
      "d": 57.291666666656965,
      "v": 61
    },
    {
      "midi": 72,
      "hit": false,
      "t": 225364.58333333305,
      "d": 492.1874999999709,
      "v": 100
    },
    {
      "midi": 56,
      "hit": false,
      "t": 225377.6041666664,
      "d": 67.70833333331393,
      "v": 67
    },
    {
      "midi": 63,
      "hit": false,
      "t": 225380.20833333305,
      "d": 52.083333333343035,
      "v": 54
    },
    {
      "midi": 68,
      "hit": false,
      "t": 225385.4166666664,
      "d": 57.291666666656965,
      "v": 46
    },
    {
      "midi": 48,
      "hit": false,
      "t": 225390.62499999974,
      "d": 93.7499999999709,
      "v": 54
    },
    {
      "midi": 63,
      "hit": false,
      "t": 225611.97916666637,
      "d": 75.52083333334303,
      "v": 55
    },
    {
      "midi": 68,
      "hit": false,
      "t": 225619.79166666637,
      "d": 57.29166666668607,
      "v": 59
    },
    {
      "midi": 60,
      "hit": false,
      "t": 225624.9999999997,
      "d": 72.91666666665697,
      "v": 61
    },
    {
      "midi": 51,
      "hit": false,
      "t": 225630.20833333305,
      "d": 109.3749999999709,
      "v": 58
    },
    {
      "midi": 63,
      "hit": false,
      "t": 225859.37499999968,
      "d": 62.499999999970896,
      "v": 47
    },
    {
      "midi": 68,
      "hit": false,
      "t": 225861.97916666634,
      "d": 65.10416666665697,
      "v": 44
    },
    {
      "midi": 56,
      "hit": false,
      "t": 225919.270833333,
      "d": 41.666666666656965,
      "v": 72
    },
    {
      "midi": 48,
      "hit": false,
      "t": 225945.31249999965,
      "d": 44.270833333343035,
      "v": 65
    },
    {
      "midi": 72,
      "hit": false,
      "t": 226023.43749999965,
      "d": 390.6250000000291,
      "v": 98
    },
    {
      "midi": 63,
      "hit": false,
      "t": 226031.24999999965,
      "d": 62.5,
      "v": 57
    },
    {
      "midi": 68,
      "hit": false,
      "t": 226046.87499999965,
      "d": 67.70833333334303,
      "v": 31
    },
    {
      "midi": 74,
      "hit": false,
      "t": 226388.020833333,
      "d": 799.479166666657,
      "v": 91
    },
    {
      "midi": 68,
      "hit": false,
      "t": 226395.833333333,
      "d": 200.52083333334303,
      "v": 61
    },
    {
      "midi": 29,
      "hit": false,
      "t": 226401.04166666634,
      "d": 122.39583333334303,
      "v": 60
    },
    {
      "midi": 41,
      "hit": false,
      "t": 226403.645833333,
      "d": 164.0625,
      "v": 59
    },
    {
      "midi": 62,
      "hit": false,
      "t": 226408.85416666634,
      "d": 182.29166666665697,
      "v": 33
    },
    {
      "midi": 68,
      "hit": false,
      "t": 226768.22916666634,
      "d": 70.3125,
      "v": 56
    },
    {
      "midi": 62,
      "hit": false,
      "t": 226773.43749999968,
      "d": 72.91666666665697,
      "v": 46
    },
    {
      "midi": 50,
      "hit": false,
      "t": 226791.66666666634,
      "d": 218.75,
      "v": 43
    },
    {
      "midi": 56,
      "hit": false,
      "t": 226802.083333333,
      "d": 78.125,
      "v": 33
    },
    {
      "midi": 60,
      "hit": false,
      "t": 227075.520833333,
      "d": 75.52083333334303,
      "v": 57
    },
    {
      "midi": 62,
      "hit": false,
      "t": 227078.12499999965,
      "d": 98.95833333334303,
      "v": 41
    },
    {
      "midi": 68,
      "hit": false,
      "t": 227083.333333333,
      "d": 78.125,
      "v": 43
    },
    {
      "midi": 56,
      "hit": false,
      "t": 227111.97916666634,
      "d": 75.52083333331393,
      "v": 22
    },
    {
      "midi": 53,
      "hit": false,
      "t": 227114.583333333,
      "d": 75.52083333331393,
      "v": 29
    },
    {
      "midi": 72,
      "hit": false,
      "t": 227351.56249999965,
      "d": 554.6875000000291,
      "v": 84
    },
    {
      "midi": 56,
      "hit": false,
      "t": 227374.99999999965,
      "d": 119.79166666665697,
      "v": 44
    },
    {
      "midi": 68,
      "hit": false,
      "t": 227380.208333333,
      "d": 72.91666666665697,
      "v": 32
    },
    {
      "midi": 50,
      "hit": false,
      "t": 227382.81249999965,
      "d": 101.5625,
      "v": 45
    },
    {
      "midi": 62,
      "hit": false,
      "t": 227406.24999999965,
      "d": 44.270833333343035,
      "v": 10
    },
    {
      "midi": 62,
      "hit": false,
      "t": 227601.56249999965,
      "d": 75.52083333334303,
      "v": 32
    },
    {
      "midi": 68,
      "hit": false,
      "t": 227619.7916666663,
      "d": 72.91666666668607,
      "v": 43
    },
    {
      "midi": 60,
      "hit": false,
      "t": 227624.99999999965,
      "d": 65.10416666668607,
      "v": 61
    },
    {
      "midi": 53,
      "hit": false,
      "t": 227664.06249999965,
      "d": 59.895833333343035,
      "v": 41
    },
    {
      "midi": 56,
      "hit": false,
      "t": 227664.06249999965,
      "d": 80.72916666668607,
      "v": 13
    },
    {
      "midi": 62,
      "hit": false,
      "t": 227888.020833333,
      "d": 75.52083333337214,
      "v": 39
    },
    {
      "midi": 68,
      "hit": false,
      "t": 227893.22916666634,
      "d": 75.52083333334303,
      "v": 33
    },
    {
      "midi": 56,
      "hit": false,
      "t": 227958.33333333302,
      "d": 62.5,
      "v": 44
    },
    {
      "midi": 53,
      "hit": false,
      "t": 227966.14583333302,
      "d": 78.125,
      "v": 27
    },
    {
      "midi": 50,
      "hit": false,
      "t": 228007.81249999968,
      "d": 67.70833333334303,
      "v": 29
    },
    {
      "midi": 68,
      "hit": false,
      "t": 228177.08333333302,
      "d": 135.41666666665697,
      "v": 68
    },
    {
      "midi": 60,
      "hit": false,
      "t": 228216.14583333302,
      "d": 70.3125,
      "v": 50
    },
    {
      "midi": 67,
      "hit": false,
      "t": 228531.24999999968,
      "d": 1265.6250000000582,
      "v": 81
    },
    {
      "midi": 60,
      "hit": false,
      "t": 228546.87499999968,
      "d": 242.1875000000582,
      "v": 35
    },
    {
      "midi": 31,
      "hit": false,
      "t": 228557.29166666637,
      "d": 164.0625000000291,
      "v": 36
    },
    {
      "midi": 43,
      "hit": false,
      "t": 228570.3124999997,
      "d": 192.70833333337214,
      "v": 29
    },
    {
      "midi": 62,
      "hit": false,
      "t": 228591.14583333305,
      "d": 205.72916666668607,
      "v": 28
    },
    {
      "midi": 60,
      "hit": false,
      "t": 228981.77083333308,
      "d": 83.33333333331393,
      "v": 51
    },
    {
      "midi": 43,
      "hit": false,
      "t": 228999.99999999974,
      "d": 171.875,
      "v": 22
    },
    {
      "midi": 50,
      "hit": false,
      "t": 229002.6041666664,
      "d": 54.6875,
      "v": 43
    },
    {
      "midi": 65,
      "hit": false,
      "t": 229013.02083333305,
      "d": 80.72916666668607,
      "v": 25
    },
    {
      "midi": 60,
      "hit": false,
      "t": 229270.83333333308,
      "d": 67.70833333331393,
      "v": 50
    },
    {
      "midi": 50,
      "hit": false,
      "t": 229289.06249999974,
      "d": 62.5,
      "v": 35
    },
    {
      "midi": 55,
      "hit": false,
      "t": 229296.87499999974,
      "d": 65.10416666665697,
      "v": 39
    },
    {
      "midi": 59,
      "hit": false,
      "t": 229578.12499999974,
      "d": 260.41666666665697,
      "v": 50
    },
    {
      "midi": 50,
      "hit": false,
      "t": 229596.3541666664,
      "d": 177.08333333334303,
      "v": 33
    },
    {
      "midi": 65,
      "hit": false,
      "t": 229598.95833333305,
      "d": 427.08333333334303,
      "v": 36
    },
    {
      "midi": 43,
      "hit": false,
      "t": 229611.9791666664,
      "d": 273.4375,
      "v": 42
    },
    {
      "midi": 62,
      "hit": false,
      "t": 229619.7916666664,
      "d": 442.70833333334303,
      "v": 22
    },
    {
      "midi": 70,
      "hit": false,
      "t": 229874.99999999974,
      "d": 96.35416666665697,
      "v": 64
    },
    {
      "midi": 68,
      "hit": false,
      "t": 229981.77083333305,
      "d": 67.70833333334303,
      "v": 59
    },
    {
      "midi": 59,
      "hit": false,
      "t": 230013.02083333305,
      "d": 54.687500000029104,
      "v": 11
    },
    {
      "midi": 55,
      "hit": false,
      "t": 230044.27083333305,
      "d": 67.70833333337214,
      "v": 44
    },
    {
      "midi": 50,
      "hit": false,
      "t": 230049.4791666664,
      "d": 65.10416666668607,
      "v": 38
    },
    {
      "midi": 67,
      "hit": false,
      "t": 230239.58333333308,
      "d": 41.66666666668607,
      "v": 75
    },
    {
      "midi": 59,
      "hit": false,
      "t": 230276.04166666642,
      "d": 59.895833333343035,
      "v": 15
    },
    {
      "midi": 50,
      "hit": false,
      "t": 230427.0833333331,
      "d": 54.6875,
      "v": 46
    },
    {
      "midi": 43,
      "hit": false,
      "t": 230440.10416666645,
      "d": 91.14583333331393,
      "v": 34
    },
    {
      "midi": 62,
      "hit": false,
      "t": 230507.81249999977,
      "d": 93.75,
      "v": 71
    },
    {
      "midi": 63,
      "hit": false,
      "t": 230859.37499999977,
      "d": 393.22916666668607,
      "v": 61
    },
    {
      "midi": 51,
      "hit": false,
      "t": 230864.5833333331,
      "d": 101.5625,
      "v": 41
    },
    {
      "midi": 36,
      "hit": false,
      "t": 230911.4583333331,
      "d": 221.35416666668607,
      "v": 39
    },
    {
      "midi": 48,
      "hit": false,
      "t": 230950.5208333331,
      "d": 236.97916666668607,
      "v": 33
    },
    {
      "midi": 43,
      "hit": false,
      "t": 230958.3333333331,
      "d": 148.4375,
      "v": 37
    },
    {
      "midi": 60,
      "hit": false,
      "t": 231210.9374999998,
      "d": 317.70833333331393,
      "v": 61
    },
    {
      "midi": 51,
      "hit": false,
      "t": 231213.54166666645,
      "d": 70.3125,
      "v": 32
    },
    {
      "midi": 51,
      "hit": false,
      "t": 231481.7708333331,
      "d": 70.3125,
      "v": 39
    },
    {
      "midi": 48,
      "hit": false,
      "t": 231523.43749999977,
      "d": 70.3125,
      "v": 16
    },
    {
      "midi": 43,
      "hit": false,
      "t": 231528.6458333331,
      "d": 67.70833333331393,
      "v": 36
    },
    {
      "midi": 51,
      "hit": false,
      "t": 231822.91666666642,
      "d": 78.125,
      "v": 48
    },
    {
      "midi": 55,
      "hit": false,
      "t": 231822.91666666642,
      "d": 91.14583333331393,
      "v": 38
    },
    {
      "midi": 48,
      "hit": false,
      "t": 231825.52083333308,
      "d": 78.125,
      "v": 30
    },
    {
      "midi": 48,
      "hit": false,
      "t": 232111.9791666664,
      "d": 70.3125,
      "v": 46
    },
    {
      "midi": 51,
      "hit": false,
      "t": 232119.7916666664,
      "d": 111.97916666665697,
      "v": 51
    },
    {
      "midi": 43,
      "hit": false,
      "t": 232161.45833333305,
      "d": 203.125,
      "v": 45
    },
    {
      "midi": 51,
      "hit": false,
      "t": 232414.0624999997,
      "d": 101.5625,
      "v": 53
    },
    {
      "midi": 55,
      "hit": false,
      "t": 232416.66666666637,
      "d": 125,
      "v": 48
    },
    {
      "midi": 48,
      "hit": false,
      "t": 232437.4999999997,
      "d": 65.10416666665697,
      "v": 47
    },
    {
      "midi": 43,
      "hit": false,
      "t": 232846.35416666637,
      "d": 52.083333333343035,
      "v": 51
    },
    {
      "midi": 48,
      "hit": false,
      "t": 232846.35416666637,
      "d": 54.6875,
      "v": 41
    },
    {
      "midi": 51,
      "hit": false,
      "t": 232846.35416666637,
      "d": 59.895833333343035,
      "v": 50
    },
    {
      "midi": 51,
      "hit": false,
      "t": 233273.4374999997,
      "d": 101.5624999999709,
      "v": 53
    },
    {
      "midi": 58,
      "hit": false,
      "t": 233276.04166666637,
      "d": 151.04166666662786,
      "v": 71
    },
    {
      "midi": 27,
      "hit": false,
      "t": 233286.45833333302,
      "d": 65.10416666665697,
      "v": 65
    },
    {
      "midi": 55,
      "hit": false,
      "t": 233291.66666666637,
      "d": 67.70833333331393,
      "v": 48
    },
    {
      "midi": 39,
      "hit": false,
      "t": 233302.08333333302,
      "d": 62.5,
      "v": 42
    },
    {
      "midi": 67,
      "hit": false,
      "t": 233716.145833333,
      "d": 62.5,
      "v": 59
    },
    {
      "midi": 75,
      "hit": false,
      "t": 233718.74999999965,
      "d": 65.10416666668607,
      "v": 50
    },
    {
      "midi": 70,
      "hit": false,
      "t": 233723.958333333,
      "d": 75.52083333334303,
      "v": 55
    },
    {
      "midi": 58,
      "hit": false,
      "t": 233731.770833333,
      "d": 80.72916666668607,
      "v": 51
    },
    {
      "midi": 51,
      "hit": false,
      "t": 233739.583333333,
      "d": 75.52083333334303,
      "v": 41
    },
    {
      "midi": 75,
      "hit": false,
      "t": 234026.04166666634,
      "d": 59.89583333331393,
      "v": 64
    },
    {
      "midi": 63,
      "hit": false,
      "t": 234028.645833333,
      "d": 59.89583333331393,
      "v": 50
    },
    {
      "midi": 70,
      "hit": false,
      "t": 234028.645833333,
      "d": 65.10416666665697,
      "v": 62
    },
    {
      "midi": 55,
      "hit": false,
      "t": 234049.47916666634,
      "d": 59.89583333331393,
      "v": 49
    },
    {
      "midi": 67,
      "hit": false,
      "t": 234052.083333333,
      "d": 59.89583333331393,
      "v": 39
    },
    {
      "midi": 79,
      "hit": false,
      "t": 234296.87499999965,
      "d": 1039.0624999999127,
      "v": 95
    },
    {
      "midi": 75,
      "hit": false,
      "t": 234302.083333333,
      "d": 62.499999999970896,
      "v": 55
    },
    {
      "midi": 67,
      "hit": false,
      "t": 234312.49999999965,
      "d": 93.7499999999709,
      "v": 53
    },
    {
      "midi": 58,
      "hit": false,
      "t": 234315.1041666663,
      "d": 59.89583333331393,
      "v": 63
    },
    {
      "midi": 70,
      "hit": false,
      "t": 234322.9166666663,
      "d": 72.91666666665697,
      "v": 39
    },
    {
      "midi": 51,
      "hit": false,
      "t": 234325.52083333296,
      "d": 80.72916666665697,
      "v": 45
    },
    {
      "midi": 75,
      "hit": false,
      "t": 234580.72916666628,
      "d": 65.10416666665697,
      "v": 52
    },
    {
      "midi": 70,
      "hit": false,
      "t": 234580.72916666628,
      "d": 67.70833333331393,
      "v": 57
    },
    {
      "midi": 67,
      "hit": false,
      "t": 234583.33333333294,
      "d": 65.10416666665697,
      "v": 52
    },
    {
      "midi": 63,
      "hit": false,
      "t": 234596.35416666628,
      "d": 62.499999999970896,
      "v": 47
    },
    {
      "midi": 55,
      "hit": false,
      "t": 234619.79166666628,
      "d": 75.52083333331393,
      "v": 38
    },
    {
      "midi": 67,
      "hit": false,
      "t": 234859.3749999996,
      "d": 104.16666666665697,
      "v": 41
    },
    {
      "midi": 75,
      "hit": false,
      "t": 234861.97916666625,
      "d": 140.625,
      "v": 47
    },
    {
      "midi": 58,
      "hit": false,
      "t": 234869.79166666625,
      "d": 54.6875,
      "v": 76
    },
    {
      "midi": 70,
      "hit": false,
      "t": 234877.60416666625,
      "d": 75.52083333334303,
      "v": 54
    },
    {
      "midi": 51,
      "hit": false,
      "t": 234906.2499999996,
      "d": 65.10416666665697,
      "v": 43
    },
    {
      "midi": 68,
      "hit": false,
      "t": 235252.60416666625,
      "d": 218.7499999999709,
      "v": 47
    },
    {
      "midi": 32,
      "hit": false,
      "t": 235270.8333333329,
      "d": 140.625,
      "v": 60
    },
    {
      "midi": 44,
      "hit": false,
      "t": 235270.8333333329,
      "d": 166.66666666665697,
      "v": 48
    },
    {
      "midi": 72,
      "hit": false,
      "t": 235283.85416666622,
      "d": 179.6875,
      "v": 55
    },
    {
      "midi": 75,
      "hit": false,
      "t": 235283.85416666622,
      "d": 184.89583333334303,
      "v": 47
    },
    {
      "midi": 68,
      "hit": false,
      "t": 235632.81249999956,
      "d": 101.5624999999709,
      "v": 34
    },
    {
      "midi": 75,
      "hit": false,
      "t": 235643.22916666622,
      "d": 80.72916666665697,
      "v": 42
    },
    {
      "midi": 72,
      "hit": false,
      "t": 235664.06249999956,
      "d": 70.3124999999709,
      "v": 29
    },
    {
      "midi": 60,
      "hit": false,
      "t": 235666.66666666622,
      "d": 104.16666666665697,
      "v": 42
    },
    {
      "midi": 53,
      "hit": false,
      "t": 235682.29166666622,
      "d": 91.14583333331393,
      "v": 35
    },
    {
      "midi": 63,
      "hit": false,
      "t": 235916.6666666662,
      "d": 72.91666666665697,
      "v": 44
    },
    {
      "midi": 75,
      "hit": false,
      "t": 235937.49999999953,
      "d": 83.33333333331393,
      "v": 39
    },
    {
      "midi": 68,
      "hit": false,
      "t": 235940.1041666662,
      "d": 70.3125,
      "v": 39
    },
    {
      "midi": 72,
      "hit": false,
      "t": 235947.9166666662,
      "d": 62.5,
      "v": 51
    },
    {
      "midi": 56,
      "hit": false,
      "t": 235947.9166666662,
      "d": 78.125,
      "v": 40
    },
    {
      "midi": 80,
      "hit": false,
      "t": 236249.99999999953,
      "d": 1036.458333333343,
      "v": 73
    },
    {
      "midi": 68,
      "hit": false,
      "t": 236286.45833333288,
      "d": 83.33333333334303,
      "v": 19
    },
    {
      "midi": 53,
      "hit": false,
      "t": 236312.49999999953,
      "d": 109.375,
      "v": 19
    },
    {
      "midi": 72,
      "hit": false,
      "t": 236320.31249999953,
      "d": 67.70833333334303,
      "v": 29
    },
    {
      "midi": 60,
      "hit": false,
      "t": 236348.95833333288,
      "d": 78.125,
      "v": 6
    },
    {
      "midi": 72,
      "hit": false,
      "t": 236515.62499999953,
      "d": 93.7500000000291,
      "v": 27
    },
    {
      "midi": 68,
      "hit": false,
      "t": 236523.43749999953,
      "d": 101.56250000005821,
      "v": 34
    },
    {
      "midi": 56,
      "hit": false,
      "t": 236544.27083333288,
      "d": 101.56250000005821,
      "v": 44
    },
    {
      "midi": 75,
      "hit": false,
      "t": 236549.47916666622,
      "d": 65.10416666668607,
      "v": 38
    },
    {
      "midi": 63,
      "hit": false,
      "t": 236549.47916666622,
      "d": 70.3125000000291,
      "v": 31
    },
    {
      "midi": 68,
      "hit": false,
      "t": 236799.47916666628,
      "d": 101.5624999999709,
      "v": 54
    },
    {
      "midi": 75,
      "hit": false,
      "t": 236802.08333333294,
      "d": 72.91666666665697,
      "v": 42
    },
    {
      "midi": 72,
      "hit": false,
      "t": 236812.4999999996,
      "d": 62.5,
      "v": 44
    },
    {
      "midi": 53,
      "hit": false,
      "t": 236828.1249999996,
      "d": 65.10416666665697,
      "v": 30
    },
    {
      "midi": 60,
      "hit": false,
      "t": 236830.72916666625,
      "d": 62.5,
      "v": 32
    },
    {
      "midi": 68,
      "hit": false,
      "t": 237083.3333333329,
      "d": 151.04166666665697,
      "v": 64
    },
    {
      "midi": 46,
      "hit": false,
      "t": 237088.54166666625,
      "d": 127.60416666665697,
      "v": 73
    },
    {
      "midi": 34,
      "hit": false,
      "t": 237096.35416666625,
      "d": 122.39583333331393,
      "v": 74
    },
    {
      "midi": 74,
      "hit": false,
      "t": 237106.7708333329,
      "d": 164.0624999999709,
      "v": 57
    },
    {
      "midi": 70,
      "hit": false,
      "t": 237114.5833333329,
      "d": 153.64583333331393,
      "v": 49
    },
    {
      "midi": 74,
      "hit": false,
      "t": 237390.62499999953,
      "d": 80.72916666665697,
      "v": 47
    },
    {
      "midi": 46,
      "hit": false,
      "t": 237393.2291666662,
      "d": 96.35416666665697,
      "v": 59
    },
    {
      "midi": 68,
      "hit": false,
      "t": 237398.43749999953,
      "d": 54.6875,
      "v": 64
    },
    {
      "midi": 56,
      "hit": false,
      "t": 237406.24999999953,
      "d": 109.3749999999709,
      "v": 53
    },
    {
      "midi": 70,
      "hit": false,
      "t": 237408.8541666662,
      "d": 62.5,
      "v": 50
    },
    {
      "midi": 79,
      "hit": false,
      "t": 237624.9999999995,
      "d": 627.604166666657,
      "v": 95
    },
    {
      "midi": 68,
      "hit": false,
      "t": 237651.04166666616,
      "d": 62.5,
      "v": 29
    },
    {
      "midi": 62,
      "hit": false,
      "t": 237705.72916666616,
      "d": 49.479166666656965,
      "v": 68
    },
    {
      "midi": 53,
      "hit": false,
      "t": 237744.79166666616,
      "d": 49.479166666656965,
      "v": 68
    },
    {
      "midi": 74,
      "hit": false,
      "t": 237885.41666666616,
      "d": 59.895833333343035,
      "v": 68
    },
    {
      "midi": 68,
      "hit": false,
      "t": 237888.02083333282,
      "d": 85.9375000000291,
      "v": 57
    },
    {
      "midi": 46,
      "hit": false,
      "t": 237932.29166666616,
      "d": 57.29166666668607,
      "v": 79
    },
    {
      "midi": 56,
      "hit": false,
      "t": 237940.10416666616,
      "d": 195.3125000000291,
      "v": 64
    },
    {
      "midi": 68,
      "hit": false,
      "t": 238166.6666666662,
      "d": 72.91666666665697,
      "v": 52
    },
    {
      "midi": 74,
      "hit": false,
      "t": 238171.87499999953,
      "d": 114.58333333328483,
      "v": 61
    },
    {
      "midi": 62,
      "hit": false,
      "t": 238174.4791666662,
      "d": 41.666666666656965,
      "v": 67
    },
    {
      "midi": 53,
      "hit": false,
      "t": 238205.7291666662,
      "d": 44.27083333331393,
      "v": 68
    },
    {
      "midi": 68,
      "hit": false,
      "t": 238427.08333333282,
      "d": 75.52083333334303,
      "v": 75
    },
    {
      "midi": 77,
      "hit": false,
      "t": 238427.08333333282,
      "d": 817.7083333333721,
      "v": 91
    },
    {
      "midi": 74,
      "hit": false,
      "t": 238450.52083333282,
      "d": 88.54166666668607,
      "v": 38
    },
    {
      "midi": 35,
      "hit": false,
      "t": 238489.58333333282,
      "d": 109.3750000000291,
      "v": 54
    },
    {
      "midi": 47,
      "hit": false,
      "t": 238489.58333333282,
      "d": 125.0000000000291,
      "v": 49
    },
    {
      "midi": 72,
      "hit": false,
      "t": 238820.3124999995,
      "d": 203.125,
      "v": 61
    },
    {
      "midi": 67,
      "hit": false,
      "t": 238825.52083333285,
      "d": 203.125,
      "v": 63
    },
    {
      "midi": 48,
      "hit": false,
      "t": 238828.1249999995,
      "d": 221.35416666668607,
      "v": 53
    },
    {
      "midi": 36,
      "hit": false,
      "t": 238846.35416666616,
      "d": 148.4375,
      "v": 51
    },
    {
      "midi": 67,
      "hit": false,
      "t": 239164.06249999953,
      "d": 125,
      "v": 47
    },
    {
      "midi": 75,
      "hit": false,
      "t": 239166.6666666662,
      "d": 260.41666666665697,
      "v": 69
    },
    {
      "midi": 72,
      "hit": false,
      "t": 239174.4791666662,
      "d": 75.52083333334303,
      "v": 41
    },
    {
      "midi": 48,
      "hit": false,
      "t": 239291.6666666662,
      "d": 125,
      "v": 50
    },
    {
      "midi": 55,
      "hit": false,
      "t": 239291.6666666662,
      "d": 239.58333333331393,
      "v": 51
    },
    {
      "midi": 77,
      "hit": false,
      "t": 239440.1041666662,
      "d": 221.35416666665697,
      "v": 91
    },
    {
      "midi": 67,
      "hit": false,
      "t": 239473.95833333285,
      "d": 54.6875,
      "v": 59
    },
    {
      "midi": 72,
      "hit": false,
      "t": 239476.5624999995,
      "d": 57.291666666656965,
      "v": 54
    },
    {
      "midi": 63,
      "hit": false,
      "t": 239572.91666666616,
      "d": 88.54166666668607,
      "v": 48
    },
    {
      "midi": 51,
      "hit": false,
      "t": 239593.7499999995,
      "d": 88.54166666668607,
      "v": 41
    },
    {
      "midi": 75,
      "hit": false,
      "t": 239656.2499999995,
      "d": 140.6250000000291,
      "v": 95
    },
    {
      "midi": 67,
      "hit": false,
      "t": 239682.2916666662,
      "d": 52.083333333343035,
      "v": 68
    },
    {
      "midi": 72,
      "hit": false,
      "t": 239682.2916666662,
      "d": 57.29166666668607,
      "v": 59
    },
    {
      "midi": 48,
      "hit": false,
      "t": 239854.1666666662,
      "d": 78.1250000000291,
      "v": 67
    },
    {
      "midi": 55,
      "hit": false,
      "t": 239869.7916666662,
      "d": 221.35416666668607,
      "v": 51
    },
    {
      "midi": 74,
      "hit": false,
      "t": 239877.6041666662,
      "d": 171.8750000000291,
      "v": 100
    },
    {
      "midi": 67,
      "hit": false,
      "t": 239914.06249999953,
      "d": 57.29166666668607,
      "v": 48
    },
    {
      "midi": 72,
      "hit": false,
      "t": 239919.27083333288,
      "d": 62.5,
      "v": 27
    },
    {
      "midi": 75,
      "hit": false,
      "t": 240101.56249999953,
      "d": 138.02083333334303,
      "v": 91
    },
    {
      "midi": 67,
      "hit": false,
      "t": 240119.7916666662,
      "d": 52.083333333343035,
      "v": 65
    },
    {
      "midi": 72,
      "hit": false,
      "t": 240119.7916666662,
      "d": 57.29166666668607,
      "v": 37
    },
    {
      "midi": 63,
      "hit": false,
      "t": 240177.08333333288,
      "d": 67.70833333334303,
      "v": 56
    },
    {
      "midi": 51,
      "hit": false,
      "t": 240213.54166666622,
      "d": 70.3125,
      "v": 37
    },
    {
      "midi": 77,
      "hit": false,
      "t": 240315.10416666622,
      "d": 127.60416666665697,
      "v": 100
    },
    {
      "midi": 67,
      "hit": false,
      "t": 240320.31249999956,
      "d": 75.52083333331393,
      "v": 80
    },
    {
      "midi": 69,
      "hit": false,
      "t": 240369.79166666622,
      "d": 67.70833333331393,
      "v": 37
    },
    {
      "midi": 55,
      "hit": false,
      "t": 240468.74999999953,
      "d": 44.270833333343035,
      "v": 61
    },
    {
      "midi": 48,
      "hit": false,
      "t": 240476.56249999953,
      "d": 52.083333333343035,
      "v": 53
    },
    {
      "midi": 69,
      "hit": false,
      "t": 240567.70833333288,
      "d": 104.16666666665697,
      "v": 49
    },
    {
      "midi": 79,
      "hit": false,
      "t": 240570.31249999953,
      "d": 49.479166666656965,
      "v": 94
    },
    {
      "midi": 67,
      "hit": false,
      "t": 240578.12499999953,
      "d": 109.375,
      "v": 72
    },
    {
      "midi": 75,
      "hit": false,
      "t": 240596.3541666662,
      "d": 46.875,
      "v": 57
    },
    {
      "midi": 72,
      "hit": false,
      "t": 240604.1666666662,
      "d": 67.70833333334303,
      "v": 43
    },
    {
      "midi": 38,
      "hit": false,
      "t": 240791.6666666662,
      "d": 72.91666666665697,
      "v": 64
    },
    {
      "midi": 74,
      "hit": false,
      "t": 240921.8749999995,
      "d": 385.41666666662786,
      "v": 86
    },
    {
      "midi": 62,
      "hit": false,
      "t": 240932.29166666616,
      "d": 210.9374999999709,
      "v": 54
    },
    {
      "midi": 70,
      "hit": false,
      "t": 240966.14583333282,
      "d": 161.45833333331393,
      "v": 48
    },
    {
      "midi": 50,
      "hit": false,
      "t": 240989.58333333282,
      "d": 122.39583333331393,
      "v": 45
    },
    {
      "midi": 67,
      "hit": false,
      "t": 240989.58333333282,
      "d": 140.6249999999709,
      "v": 17
    },
    {
      "midi": 67,
      "hit": false,
      "t": 241286.4583333328,
      "d": 140.6250000000291,
      "v": 42
    },
    {
      "midi": 70,
      "hit": false,
      "t": 241299.47916666613,
      "d": 226.5625000000291,
      "v": 63
    },
    {
      "midi": 62,
      "hit": false,
      "t": 241302.0833333328,
      "d": 72.91666666668607,
      "v": 34
    },
    {
      "midi": 46,
      "hit": false,
      "t": 241312.49999999948,
      "d": 85.9375,
      "v": 49
    },
    {
      "midi": 55,
      "hit": false,
      "t": 241317.70833333282,
      "d": 85.9375,
      "v": 44
    },
    {
      "midi": 62,
      "hit": false,
      "t": 241565.10416666616,
      "d": 492.1875000000291,
      "v": 82
    },
    {
      "midi": 50,
      "hit": false,
      "t": 241588.54166666616,
      "d": 127.60416666668607,
      "v": 44
    },
    {
      "midi": 58,
      "hit": false,
      "t": 241601.5624999995,
      "d": 75.52083333334303,
      "v": 61
    },
    {
      "midi": 46,
      "hit": false,
      "t": 241869.7916666662,
      "d": 138.02083333334303,
      "v": 65
    },
    {
      "midi": 55,
      "hit": false,
      "t": 241874.99999999953,
      "d": 276.04166666665697,
      "v": 59
    },
    {
      "midi": 58,
      "hit": false,
      "t": 242151.0416666662,
      "d": 65.10416666668607,
      "v": 78
    },
    {
      "midi": 50,
      "hit": false,
      "t": 242187.49999999953,
      "d": 75.52083333331393,
      "v": 45
    },
    {
      "midi": 67,
      "hit": false,
      "t": 242218.74999999953,
      "d": 132.8124999999709,
      "v": 92
    },
    {
      "midi": 62,
      "hit": false,
      "t": 242236.9791666662,
      "d": 52.08333333331393,
      "v": 56
    },
    {
      "midi": 72,
      "hit": false,
      "t": 242406.2499999995,
      "d": 151.04166666665697,
      "v": 94
    },
    {
      "midi": 50,
      "hit": false,
      "t": 242518.22916666616,
      "d": 46.875,
      "v": 65
    },
    {
      "midi": 38,
      "hit": false,
      "t": 242536.45833333282,
      "d": 106.77083333334303,
      "v": 55
    },
    {
      "midi": 74,
      "hit": false,
      "t": 242630.20833333282,
      "d": 187.5000000000582,
      "v": 103
    },
    {
      "midi": 62,
      "hit": false,
      "t": 242648.4374999995,
      "d": 65.10416666668607,
      "v": 66
    },
    {
      "midi": 67,
      "hit": false,
      "t": 242692.70833333285,
      "d": 80.72916666668607,
      "v": 26
    },
    {
      "midi": 26,
      "hit": false,
      "t": 242924.47916666622,
      "d": 145.83333333331393,
      "v": 58
    },
    {
      "midi": 75,
      "hit": false,
      "t": 242955.72916666622,
      "d": 1260.416666666657,
      "v": 90
    },
    {
      "midi": 63,
      "hit": false,
      "t": 242984.37499999953,
      "d": 171.875,
      "v": 41
    },
    {
      "midi": 67,
      "hit": false,
      "t": 243007.81249999953,
      "d": 158.85416666665697,
      "v": 41
    },
    {
      "midi": 38,
      "hit": false,
      "t": 243026.0416666662,
      "d": 93.75,
      "v": 47
    },
    {
      "midi": 57,
      "hit": false,
      "t": 243385.4166666662,
      "d": 117.1875,
      "v": 54
    },
    {
      "midi": 67,
      "hit": false,
      "t": 243398.43749999953,
      "d": 80.72916666665697,
      "v": 48
    },
    {
      "midi": 63,
      "hit": false,
      "t": 243398.43749999953,
      "d": 96.35416666665697,
      "v": 50
    },
    {
      "midi": 50,
      "hit": false,
      "t": 243432.2916666662,
      "d": 57.291666666656965,
      "v": 59
    },
    {
      "midi": 63,
      "hit": false,
      "t": 243661.45833333285,
      "d": 62.5,
      "v": 65
    },
    {
      "midi": 57,
      "hit": false,
      "t": 243669.27083333285,
      "d": 80.72916666665697,
      "v": 30
    },
    {
      "midi": 67,
      "hit": false,
      "t": 243674.4791666662,
      "d": 54.6875,
      "v": 60
    },
    {
      "midi": 60,
      "hit": false,
      "t": 243677.08333333285,
      "d": 62.5,
      "v": 46
    },
    {
      "midi": 63,
      "hit": false,
      "t": 243903.64583333285,
      "d": 177.08333333334303,
      "v": 57
    },
    {
      "midi": 66,
      "hit": false,
      "t": 243919.27083333285,
      "d": 125.0000000000291,
      "v": 57
    },
    {
      "midi": 57,
      "hit": false,
      "t": 243932.2916666662,
      "d": 138.02083333334303,
      "v": 37
    },
    {
      "midi": 50,
      "hit": false,
      "t": 243940.1041666662,
      "d": 289.0625000000291,
      "v": 47
    },
    {
      "midi": 63,
      "hit": false,
      "t": 244164.06249999953,
      "d": 130.20833333334303,
      "v": 55
    },
    {
      "midi": 57,
      "hit": false,
      "t": 244171.87499999953,
      "d": 104.16666666668607,
      "v": 35
    },
    {
      "midi": 66,
      "hit": false,
      "t": 244177.08333333288,
      "d": 62.5,
      "v": 48
    },
    {
      "midi": 60,
      "hit": false,
      "t": 244182.29166666622,
      "d": 57.291666666656965,
      "v": 54
    },
    {
      "midi": 50,
      "hit": false,
      "t": 244455.72916666622,
      "d": 88.54166666668607,
      "v": 44
    },
    {
      "midi": 66,
      "hit": false,
      "t": 244468.74999999956,
      "d": 250,
      "v": 87
    },
    {
      "midi": 60,
      "hit": false,
      "t": 244489.5833333329,
      "d": 140.625,
      "v": 44
    },
    {
      "midi": 63,
      "hit": false,
      "t": 244494.79166666625,
      "d": 174.47916666665697,
      "v": 40
    },
    {
      "midi": 66,
      "hit": false,
      "t": 244830.72916666622,
      "d": 841.1458333333139,
      "v": 55
    },
    {
      "midi": 58,
      "hit": false,
      "t": 244846.35416666622,
      "d": 192.70833333334303,
      "v": 57
    },
    {
      "midi": 62,
      "hit": false,
      "t": 244848.95833333288,
      "d": 200.52083333334303,
      "v": 55
    },
    {
      "midi": 43,
      "hit": false,
      "t": 244856.77083333288,
      "d": 182.29166666668607,
      "v": 47
    },
    {
      "midi": 31,
      "hit": false,
      "t": 244869.79166666622,
      "d": 125,
      "v": 45
    },
    {
      "midi": 58,
      "hit": false,
      "t": 245236.97916666622,
      "d": 138.02083333331393,
      "v": 49
    },
    {
      "midi": 50,
      "hit": false,
      "t": 245239.58333333288,
      "d": 72.91666666665697,
      "v": 29
    },
    {
      "midi": 62,
      "hit": false,
      "t": 245252.60416666622,
      "d": 138.02083333331393,
      "v": 47
    },
    {
      "midi": 43,
      "hit": false,
      "t": 245263.02083333288,
      "d": 85.9375,
      "v": 37
    },
    {
      "midi": 67,
      "hit": false,
      "t": 245593.74999999953,
      "d": 1695.3125,
      "v": 68
    },
    {
      "midi": 50,
      "hit": false,
      "t": 245596.3541666662,
      "d": 62.5,
      "v": 41
    },
    {
      "midi": 55,
      "hit": false,
      "t": 245598.95833333285,
      "d": 67.70833333334303,
      "v": 43
    },
    {
      "midi": 58,
      "hit": false,
      "t": 245619.7916666662,
      "d": 75.52083333334303,
      "v": 54
    },
    {
      "midi": 62,
      "hit": false,
      "t": 245648.43749999953,
      "d": 75.52083333334303,
      "v": 27
    },
    {
      "midi": 58,
      "hit": false,
      "t": 245877.60416666622,
      "d": 138.02083333331393,
      "v": 52
    },
    {
      "midi": 43,
      "hit": false,
      "t": 245895.83333333288,
      "d": 356.77083333331393,
      "v": 42
    },
    {
      "midi": 50,
      "hit": false,
      "t": 245919.27083333288,
      "d": 75.52083333331393,
      "v": 45
    },
    {
      "midi": 62,
      "hit": false,
      "t": 245921.87499999953,
      "d": 88.54166666665697,
      "v": 34
    },
    {
      "midi": 58,
      "hit": false,
      "t": 246132.81249999953,
      "d": 93.7499999999709,
      "v": 49
    },
    {
      "midi": 62,
      "hit": false,
      "t": 246138.02083333288,
      "d": 101.5624999999709,
      "v": 36
    },
    {
      "midi": 55,
      "hit": false,
      "t": 246164.06249999953,
      "d": 59.89583333331393,
      "v": 28
    },
    {
      "midi": 50,
      "hit": false,
      "t": 246182.2916666662,
      "d": 62.5,
      "v": 29
    },
    {
      "midi": 38,
      "hit": false,
      "t": 246390.62499999953,
      "d": 122.39583333331393,
      "v": 60
    },
    {
      "midi": 58,
      "hit": false,
      "t": 246393.2291666662,
      "d": 80.72916666665697,
      "v": 69
    },
    {
      "midi": 62,
      "hit": false,
      "t": 246403.64583333285,
      "d": 98.95833333334303,
      "v": 39
    },
    {
      "midi": 31,
      "hit": false,
      "t": 246640.6249999995,
      "d": 46.875,
      "v": 72
    },
    {
      "midi": 43,
      "hit": false,
      "t": 246643.22916666616,
      "d": 83.33333333334303,
      "v": 53
    },
    {
      "midi": 58,
      "hit": false,
      "t": 246643.22916666616,
      "d": 143.22916666665697,
      "v": 81
    },
    {
      "midi": 62,
      "hit": false,
      "t": 246690.10416666616,
      "d": 62.5,
      "v": 41
    },
    {
      "midi": 50,
      "hit": false,
      "t": 246893.22916666616,
      "d": 72.91666666665697,
      "v": 71
    },
    {
      "midi": 59,
      "hit": false,
      "t": 246895.83333333282,
      "d": 114.58333333334303,
      "v": 67
    },
    {
      "midi": 43,
      "hit": false,
      "t": 246911.45833333282,
      "d": 270.83333333334303,
      "v": 56
    },
    {
      "midi": 62,
      "hit": false,
      "t": 246932.29166666616,
      "d": 57.291666666656965,
      "v": 52
    },
    {
      "midi": 59,
      "hit": false,
      "t": 247135.41666666616,
      "d": 109.3750000000291,
      "v": 55
    },
    {
      "midi": 55,
      "hit": false,
      "t": 247138.02083333282,
      "d": 67.70833333334303,
      "v": 66
    },
    {
      "midi": 50,
      "hit": false,
      "t": 247158.85416666616,
      "d": 52.083333333343035,
      "v": 58
    },
    {
      "midi": 62,
      "hit": false,
      "t": 247158.85416666616,
      "d": 65.10416666668607,
      "v": 64
    },
    {
      "midi": 67,
      "hit": false,
      "t": 247385.4166666662,
      "d": 1812.5,
      "v": 79
    },
    {
      "midi": 50,
      "hit": false,
      "t": 247427.08333333285,
      "d": 78.125,
      "v": 35
    },
    {
      "midi": 59,
      "hit": false,
      "t": 247432.2916666662,
      "d": 75.52083333331393,
      "v": 58
    },
    {
      "midi": 62,
      "hit": false,
      "t": 247432.2916666662,
      "d": 75.52083333331393,
      "v": 27
    },
    {
      "midi": 43,
      "hit": false,
      "t": 247432.2916666662,
      "d": 330.72916666668607,
      "v": 45
    },
    {
      "midi": 55,
      "hit": false,
      "t": 247666.6666666662,
      "d": 44.270833333343035,
      "v": 66
    },
    {
      "midi": 62,
      "hit": false,
      "t": 247682.2916666662,
      "d": 57.29166666668607,
      "v": 59
    },
    {
      "midi": 50,
      "hit": false,
      "t": 247687.49999999953,
      "d": 52.083333333343035,
      "v": 50
    },
    {
      "midi": 59,
      "hit": false,
      "t": 247692.70833333288,
      "d": 46.875,
      "v": 50
    },
    {
      "midi": 62,
      "hit": false,
      "t": 247919.27083333288,
      "d": 114.58333333334303,
      "v": 57
    },
    {
      "midi": 59,
      "hit": false,
      "t": 247927.08333333288,
      "d": 111.97916666668607,
      "v": 66
    },
    {
      "midi": 43,
      "hit": false,
      "t": 247932.29166666622,
      "d": 130.20833333334303,
      "v": 65
    },
    {
      "midi": 31,
      "hit": false,
      "t": 247932.29166666622,
      "d": 132.8125,
      "v": 65
    },
    {
      "midi": 59,
      "hit": false,
      "t": 248286.45833333288,
      "d": 177.08333333334303,
      "v": 76
    },
    {
      "midi": 30,
      "hit": false,
      "t": 248294.27083333288,
      "d": 158.85416666668607,
      "v": 76
    },
    {
      "midi": 62,
      "hit": false,
      "t": 248299.47916666622,
      "d": 244.79166666665697,
      "v": 63
    },
    {
      "midi": 42,
      "hit": false,
      "t": 248302.08333333288,
      "d": 174.47916666668607,
      "v": 55
    },
    {
      "midi": 60,
      "hit": false,
      "t": 248598.95833333288,
      "d": 106.77083333331393,
      "v": 76
    },
    {
      "midi": 63,
      "hit": false,
      "t": 248601.56249999953,
      "d": 91.14583333331393,
      "v": 63
    },
    {
      "midi": 42,
      "hit": false,
      "t": 248619.7916666662,
      "d": 143.22916666665697,
      "v": 47
    },
    {
      "midi": 51,
      "hit": false,
      "t": 248619.7916666662,
      "d": 158.85416666665697,
      "v": 71
    },
    {
      "midi": 60,
      "hit": false,
      "t": 248841.14583333285,
      "d": 197.91666666668607,
      "v": 65
    },
    {
      "midi": 56,
      "hit": false,
      "t": 248846.3541666662,
      "d": 127.60416666668607,
      "v": 70
    },
    {
      "midi": 63,
      "hit": false,
      "t": 248851.56249999953,
      "d": 164.0625,
      "v": 81
    },
    {
      "midi": 48,
      "hit": false,
      "t": 248890.62499999953,
      "d": 85.9375,
      "v": 36
    },
    {
      "midi": 68,
      "hit": false,
      "t": 249140.62499999953,
      "d": 1122.3958333333721,
      "v": 100
    },
    {
      "midi": 60,
      "hit": false,
      "t": 249158.8541666662,
      "d": 153.64583333331393,
      "v": 53
    },
    {
      "midi": 51,
      "hit": false,
      "t": 249174.4791666662,
      "d": 333.33333333331393,
      "v": 64
    },
    {
      "midi": 63,
      "hit": false,
      "t": 249177.08333333285,
      "d": 93.75,
      "v": 36
    },
    {
      "midi": 42,
      "hit": false,
      "t": 249182.2916666662,
      "d": 138.02083333331393,
      "v": 58
    },
    {
      "midi": 56,
      "hit": false,
      "t": 249440.10416666616,
      "d": 44.270833333343035,
      "v": 73
    },
    {
      "midi": 63,
      "hit": false,
      "t": 249458.33333333282,
      "d": 111.97916666671517,
      "v": 63
    },
    {
      "midi": 60,
      "hit": false,
      "t": 249466.14583333282,
      "d": 83.33333333337214,
      "v": 66
    },
    {
      "midi": 48,
      "hit": false,
      "t": 249471.35416666616,
      "d": 41.66666666668607,
      "v": 75
    },
    {
      "midi": 42,
      "hit": false,
      "t": 249705.7291666662,
      "d": 67.70833333334303,
      "v": 83
    },
    {
      "midi": 30,
      "hit": false,
      "t": 249710.93749999953,
      "d": 91.14583333334303,
      "v": 82
    },
    {
      "midi": 60,
      "hit": false,
      "t": 249718.74999999953,
      "d": 46.875,
      "v": 69
    },
    {
      "midi": 63,
      "hit": false,
      "t": 249723.95833333288,
      "d": 49.479166666656965,
      "v": 70
    },
    {
      "midi": 56,
      "hit": false,
      "t": 249963.54166666622,
      "d": 166.66666666668607,
      "v": 86
    },
    {
      "midi": 41,
      "hit": false,
      "t": 249981.7708333329,
      "d": 174.47916666665697,
      "v": 93
    },
    {
      "midi": 29,
      "hit": false,
      "t": 249986.97916666625,
      "d": 111.97916666665697,
      "v": 95
    },
    {
      "midi": 61,
      "hit": false,
      "t": 249989.5833333329,
      "d": 62.5,
      "v": 69
    },
    {
      "midi": 56,
      "hit": false,
      "t": 250223.9583333329,
      "d": 52.083333333343035,
      "v": 74
    },
    {
      "midi": 61,
      "hit": false,
      "t": 250244.79166666625,
      "d": 41.666666666656965,
      "v": 69
    },
    {
      "midi": 49,
      "hit": false,
      "t": 250294.2708333329,
      "d": 62.5,
      "v": 60
    },
    {
      "midi": 41,
      "hit": false,
      "t": 250325.5208333329,
      "d": 65.10416666665697,
      "v": 38
    },
    {
      "midi": 73,
      "hit": false,
      "t": 250380.2083333329,
      "d": 234.375,
      "v": 108
    },
    {
      "midi": 61,
      "hit": false,
      "t": 250539.06249999956,
      "d": 70.3125,
      "v": 86
    },
    {
      "midi": 56,
      "hit": false,
      "t": 250549.47916666622,
      "d": 59.895833333343035,
      "v": 79
    },
    {
      "midi": 68,
      "hit": false,
      "t": 250549.47916666622,
      "d": 75.52083333334303,
      "v": 84
    },
    {
      "midi": 49,
      "hit": false,
      "t": 250570.31249999956,
      "d": 57.291666666656965,
      "v": 65
    },
    {
      "midi": 77,
      "hit": false,
      "t": 250820.31249999956,
      "d": 351.5625000000291,
      "v": 117
    },
    {
      "midi": 41,
      "hit": false,
      "t": 250835.93749999956,
      "d": 85.9375000000291,
      "v": 73
    },
    {
      "midi": 49,
      "hit": false,
      "t": 250848.9583333329,
      "d": 65.10416666668607,
      "v": 65
    },
    {
      "midi": 73,
      "hit": false,
      "t": 250854.16666666625,
      "d": 62.5,
      "v": 29
    },
    {
      "midi": 65,
      "hit": false,
      "t": 250869.79166666625,
      "d": 85.9375,
      "v": 29
    },
    {
      "midi": 65,
      "hit": false,
      "t": 251104.16666666625,
      "d": 44.270833333343035,
      "v": 85
    },
    {
      "midi": 73,
      "hit": false,
      "t": 251119.79166666625,
      "d": 91.14583333334303,
      "v": 76
    },
    {
      "midi": 56,
      "hit": false,
      "t": 251153.64583333294,
      "d": 57.291666666656965,
      "v": 76
    },
    {
      "midi": 49,
      "hit": false,
      "t": 251177.08333333294,
      "d": 59.89583333331393,
      "v": 73
    },
    {
      "midi": 82,
      "hit": false,
      "t": 251335.9374999996,
      "d": 260.41666666665697,
      "v": 118
    },
    {
      "midi": 70,
      "hit": false,
      "t": 251523.4374999996,
      "d": 132.8125,
      "v": 95
    },
    {
      "midi": 73,
      "hit": false,
      "t": 251528.64583333294,
      "d": 335.9375,
      "v": 81
    },
    {
      "midi": 41,
      "hit": false,
      "t": 251533.85416666628,
      "d": 91.14583333331393,
      "v": 99
    },
    {
      "midi": 29,
      "hit": false,
      "t": 251536.45833333294,
      "d": 33.854166666656965,
      "v": 98
    },
    {
      "midi": 80,
      "hit": false,
      "t": 251914.0624999996,
      "d": 1403.6458333332848,
      "v": 112
    },
    {
      "midi": 68,
      "hit": false,
      "t": 251919.27083333294,
      "d": 257.8125,
      "v": 95
    },
    {
      "midi": 36,
      "hit": false,
      "t": 251927.08333333294,
      "d": 130.20833333334303,
      "v": 106
    },
    {
      "midi": 48,
      "hit": false,
      "t": 251927.08333333294,
      "d": 171.875,
      "v": 104
    },
    {
      "midi": 75,
      "hit": false,
      "t": 251932.29166666628,
      "d": 221.35416666665697,
      "v": 78
    },
    {
      "midi": 68,
      "hit": false,
      "t": 252307.29166666628,
      "d": 153.64583333331393,
      "v": 54
    },
    {
      "midi": 56,
      "hit": false,
      "t": 252312.49999999962,
      "d": 317.70833333331393,
      "v": 81
    },
    {
      "midi": 48,
      "hit": false,
      "t": 252315.10416666628,
      "d": 145.83333333331393,
      "v": 57
    },
    {
      "midi": 75,
      "hit": false,
      "t": 252315.10416666628,
      "d": 174.47916666665697,
      "v": 62
    },
    {
      "midi": 66,
      "hit": false,
      "t": 252317.70833333294,
      "d": 119.79166666665697,
      "v": 88
    },
    {
      "midi": 68,
      "hit": false,
      "t": 252682.29166666628,
      "d": 151.04166666665697,
      "v": 44
    },
    {
      "midi": 63,
      "hit": false,
      "t": 252690.10416666628,
      "d": 156.2499999999709,
      "v": 76
    },
    {
      "midi": 66,
      "hit": false,
      "t": 252692.70833333294,
      "d": 114.58333333334303,
      "v": 83
    },
    {
      "midi": 51,
      "hit": false,
      "t": 252697.91666666628,
      "d": 145.83333333331393,
      "v": 64
    },
    {
      "midi": 75,
      "hit": false,
      "t": 252703.12499999962,
      "d": 111.97916666665697,
      "v": 64
    },
    {
      "midi": 68,
      "hit": false,
      "t": 252958.3333333329,
      "d": 156.25,
      "v": 34
    },
    {
      "midi": 66,
      "hit": false,
      "t": 252979.16666666625,
      "d": 106.77083333334303,
      "v": 65
    },
    {
      "midi": 56,
      "hit": false,
      "t": 252986.97916666625,
      "d": 320.3124999999709,
      "v": 75
    },
    {
      "midi": 75,
      "hit": false,
      "t": 252994.79166666625,
      "d": 93.75,
      "v": 57
    },
    {
      "midi": 48,
      "hit": false,
      "t": 252999.9999999996,
      "d": 72.91666666665697,
      "v": 69
    },
    {
      "midi": 63,
      "hit": false,
      "t": 253249.99999999956,
      "d": 41.666666666656965,
      "v": 70
    },
    {
      "midi": 68,
      "hit": false,
      "t": 253249.99999999956,
      "d": 104.16666666665697,
      "v": 16
    },
    {
      "midi": 75,
      "hit": false,
      "t": 253263.0208333329,
      "d": 75.52083333331393,
      "v": 66
    },
    {
      "midi": 66,
      "hit": false,
      "t": 253273.43749999956,
      "d": 140.625,
      "v": 47
    },
    {
      "midi": 51,
      "hit": false,
      "t": 253289.06249999956,
      "d": 57.291666666656965,
      "v": 47
    },
    {
      "midi": 78,
      "hit": false,
      "t": 253580.72916666622,
      "d": 145.83333333331393,
      "v": 79
    },
    {
      "midi": 75,
      "hit": false,
      "t": 253609.37499999956,
      "d": 205.72916666662786,
      "v": 58
    },
    {
      "midi": 68,
      "hit": false,
      "t": 253619.79166666622,
      "d": 67.70833333331393,
      "v": 28
    },
    {
      "midi": 66,
      "hit": false,
      "t": 253635.41666666622,
      "d": 57.291666666656965,
      "v": 48
    },
    {
      "midi": 36,
      "hit": false,
      "t": 253643.22916666622,
      "d": 91.14583333331393,
      "v": 59
    },
    {
      "midi": 48,
      "hit": false,
      "t": 253645.83333333288,
      "d": 93.75,
      "v": 59
    },
    {
      "midi": 77,
      "hit": false,
      "t": 253812.49999999953,
      "d": 98.95833333331393,
      "v": 88
    },
    {
      "midi": 37,
      "hit": false,
      "t": 253968.7499999995,
      "d": 203.1249999999709,
      "v": 31
    },
    {
      "midi": 77,
      "hit": false,
      "t": 254018.22916666616,
      "d": 2221.3541666665406,
      "v": 81
    },
    {
      "midi": 73,
      "hit": false,
      "t": 254046.87499999948,
      "d": 140.625,
      "v": 42
    },
    {
      "midi": 65,
      "hit": false,
      "t": 254049.47916666613,
      "d": 114.58333333334303,
      "v": 59
    },
    {
      "midi": 68,
      "hit": false,
      "t": 254062.49999999948,
      "d": 80.72916666665697,
      "v": 43
    },
    {
      "midi": 49,
      "hit": false,
      "t": 254065.10416666613,
      "d": 117.1875,
      "v": 50
    },
    {
      "midi": 65,
      "hit": false,
      "t": 254325.52083333282,
      "d": 85.9374999999709,
      "v": 52
    },
    {
      "midi": 73,
      "hit": false,
      "t": 254330.72916666616,
      "d": 106.77083333328483,
      "v": 49
    },
    {
      "midi": 68,
      "hit": false,
      "t": 254333.33333333282,
      "d": 70.3124999999709,
      "v": 54
    },
    {
      "midi": 49,
      "hit": false,
      "t": 254351.56249999948,
      "d": 182.29166666662786,
      "v": 48
    },
    {
      "midi": 56,
      "hit": false,
      "t": 254369.79166666613,
      "d": 67.70833333331393,
      "v": 50
    },
    {
      "midi": 65,
      "hit": false,
      "t": 254588.5416666661,
      "d": 109.375,
      "v": 62
    },
    {
      "midi": 61,
      "hit": false,
      "t": 254596.3541666661,
      "d": 122.39583333331393,
      "v": 62
    },
    {
      "midi": 73,
      "hit": false,
      "t": 254601.56249999945,
      "d": 85.9375,
      "v": 59
    },
    {
      "midi": 68,
      "hit": false,
      "t": 254604.1666666661,
      "d": 78.125,
      "v": 54
    },
    {
      "midi": 53,
      "hit": false,
      "t": 254614.58333333276,
      "d": 85.9375,
      "v": 48
    },
    {
      "midi": 68,
      "hit": false,
      "t": 254846.35416666607,
      "d": 101.5624999999709,
      "v": 65
    },
    {
      "midi": 73,
      "hit": false,
      "t": 254846.35416666607,
      "d": 124.9999999999709,
      "v": 70
    },
    {
      "midi": 56,
      "hit": false,
      "t": 254854.16666666607,
      "d": 96.35416666662786,
      "v": 76
    },
    {
      "midi": 65,
      "hit": false,
      "t": 254856.77083333273,
      "d": 88.54166666665697,
      "v": 72
    },
    {
      "midi": 49,
      "hit": false,
      "t": 254864.58333333273,
      "d": 153.64583333331393,
      "v": 68
    },
    {
      "midi": 73,
      "hit": false,
      "t": 255093.7499999994,
      "d": 132.8125,
      "v": 62
    },
    {
      "midi": 61,
      "hit": false,
      "t": 255096.35416666605,
      "d": 39.0625,
      "v": 76
    },
    {
      "midi": 65,
      "hit": false,
      "t": 255109.3749999994,
      "d": 78.125,
      "v": 56
    },
    {
      "midi": 68,
      "hit": false,
      "t": 255114.58333333273,
      "d": 59.89583333331393,
      "v": 63
    },
    {
      "midi": 53,
      "hit": false,
      "t": 255124.9999999994,
      "d": 49.479166666656965,
      "v": 61
    },
    {
      "midi": 73,
      "hit": false,
      "t": 255341.14583333273,
      "d": 135.41666666665697,
      "v": 69
    },
    {
      "midi": 65,
      "hit": false,
      "t": 255343.7499999994,
      "d": 130.20833333334303,
      "v": 88
    },
    {
      "midi": 48,
      "hit": false,
      "t": 255346.35416666605,
      "d": 153.64583333334303,
      "v": 97
    },
    {
      "midi": 36,
      "hit": false,
      "t": 255346.35416666605,
      "d": 187.5,
      "v": 90
    },
    {
      "midi": 68,
      "hit": false,
      "t": 255359.3749999994,
      "d": 135.41666666665697,
      "v": 67
    },
    {
      "midi": 47,
      "hit": false,
      "t": 255648.4374999994,
      "d": 195.3124999999709,
      "v": 86
    },
    {
      "midi": 65,
      "hit": false,
      "t": 255651.04166666605,
      "d": 197.91666666665697,
      "v": 75
    },
    {
      "midi": 35,
      "hit": false,
      "t": 255653.6458333327,
      "d": 145.83333333334303,
      "v": 75
    },
    {
      "midi": 74,
      "hit": false,
      "t": 255653.6458333327,
      "d": 148.4375,
      "v": 85
    },
    {
      "midi": 67,
      "hit": false,
      "t": 255653.6458333327,
      "d": 200.52083333334303,
      "v": 63
    },
    {
      "midi": 67,
      "hit": false,
      "t": 255973.9583333327,
      "d": 117.1875,
      "v": 31
    },
    {
      "midi": 65,
      "hit": false,
      "t": 255976.56249999936,
      "d": 109.375,
      "v": 65
    },
    {
      "midi": 74,
      "hit": false,
      "t": 255981.7708333327,
      "d": 70.3125,
      "v": 66
    },
    {
      "midi": 55,
      "hit": false,
      "t": 255999.99999999936,
      "d": 62.5,
      "v": 75
    },
    {
      "midi": 62,
      "hit": false,
      "t": 256226.56249999936,
      "d": 52.08333333331393,
      "v": 73
    },
    {
      "midi": 74,
      "hit": false,
      "t": 256231.7708333327,
      "d": 36.45833333331393,
      "v": 79
    },
    {
      "midi": 50,
      "hit": false,
      "t": 256249.99999999936,
      "d": 93.7499999999709,
      "v": 55
    },
    {
      "midi": 67,
      "hit": false,
      "t": 256557.291666666,
      "d": 687.5000000000291,
      "v": 110
    },
    {
      "midi": 65,
      "hit": false,
      "t": 256580.729166666,
      "d": 49.47916666668607,
      "v": 66
    },
    {
      "midi": 62,
      "hit": false,
      "t": 256583.33333333264,
      "d": 57.29166666668607,
      "v": 63
    },
    {
      "midi": 55,
      "hit": false,
      "t": 256604.166666666,
      "d": 67.70833333334303,
      "v": 52
    },
    {
      "midi": 47,
      "hit": false,
      "t": 256624.99999999933,
      "d": 153.64583333334303,
      "v": 31
    },
    {
      "midi": 62,
      "hit": false,
      "t": 256895.83333333267,
      "d": 59.895833333343035,
      "v": 54
    },
    {
      "midi": 65,
      "hit": false,
      "t": 256895.83333333267,
      "d": 67.70833333334303,
      "v": 54
    },
    {
      "midi": 55,
      "hit": false,
      "t": 256908.85416666602,
      "d": 46.875,
      "v": 58
    },
    {
      "midi": 47,
      "hit": false,
      "t": 257174.47916666602,
      "d": 98.95833333334303,
      "v": 54
    },
    {
      "midi": 65,
      "hit": false,
      "t": 257182.29166666602,
      "d": 62.5,
      "v": 74
    },
    {
      "midi": 62,
      "hit": false,
      "t": 257190.10416666602,
      "d": 54.6875,
      "v": 55
    },
    {
      "midi": 68,
      "hit": false,
      "t": 257580.72916666602,
      "d": 346.35416666665697,
      "v": 98
    },
    {
      "midi": 63,
      "hit": false,
      "t": 257596.35416666602,
      "d": 148.4375,
      "v": 68
    },
    {
      "midi": 36,
      "hit": false,
      "t": 257624.99999999936,
      "d": 151.04166666665697,
      "v": 51
    },
    {
      "midi": 48,
      "hit": false,
      "t": 257627.60416666602,
      "d": 205.72916666665697,
      "v": 57
    },
    {
      "midi": 67,
      "hit": false,
      "t": 257919.27083333267,
      "d": 177.08333333334303,
      "v": 95
    },
    {
      "midi": 63,
      "hit": false,
      "t": 257937.49999999933,
      "d": 65.10416666668607,
      "v": 66
    },
    {
      "midi": 55,
      "hit": false,
      "t": 257989.58333333267,
      "d": 67.70833333334303,
      "v": 64
    },
    {
      "midi": 71,
      "hit": false,
      "t": 258187.49999999936,
      "d": 174.47916666665697,
      "v": 95
    },
    {
      "midi": 67,
      "hit": false,
      "t": 258195.31249999936,
      "d": 54.6875,
      "v": 63
    },
    {
      "midi": 63,
      "hit": false,
      "t": 258205.72916666602,
      "d": 57.29166666668607,
      "v": 61
    },
    {
      "midi": 60,
      "hit": false,
      "t": 258317.7083333327,
      "d": 106.77083333331393,
      "v": 63
    },
    {
      "midi": 51,
      "hit": false,
      "t": 258328.12499999936,
      "d": 80.72916666665697,
      "v": 56
    },
    {
      "midi": 72,
      "hit": false,
      "t": 258411.45833333267,
      "d": 96.35416666665697,
      "v": 106
    },
    {
      "midi": 63,
      "hit": false,
      "t": 258427.08333333267,
      "d": 67.70833333331393,
      "v": 73
    },
    {
      "midi": 67,
      "hit": false,
      "t": 258468.74999999933,
      "d": 54.6875,
      "v": 55
    },
    {
      "midi": 67,
      "hit": false,
      "t": 258624.99999999933,
      "d": 49.479166666656965,
      "v": 63
    },
    {
      "midi": 48,
      "hit": false,
      "t": 258624.99999999933,
      "d": 70.3125,
      "v": 61
    },
    {
      "midi": 74,
      "hit": false,
      "t": 258624.99999999933,
      "d": 114.58333333334303,
      "v": 111
    },
    {
      "midi": 55,
      "hit": false,
      "t": 258624.99999999933,
      "d": 177.08333333334303,
      "v": 64
    },
    {
      "midi": 63,
      "hit": false,
      "t": 258643.229166666,
      "d": 52.083333333343035,
      "v": 61
    },
    {
      "midi": 75,
      "hit": false,
      "t": 258830.72916666602,
      "d": 101.5624999999709,
      "v": 102
    },
    {
      "midi": 67,
      "hit": false,
      "t": 258848.95833333267,
      "d": 41.666666666656965,
      "v": 75
    },
    {
      "midi": 72,
      "hit": false,
      "t": 258851.56249999933,
      "d": 57.291666666656965,
      "v": 60
    },
    {
      "midi": 63,
      "hit": false,
      "t": 258932.291666666,
      "d": 46.875,
      "v": 64
    },
    {
      "midi": 51,
      "hit": false,
      "t": 258947.916666666,
      "d": 75.52083333334303,
      "v": 50
    },
    {
      "midi": 84,
      "hit": false,
      "t": 259046.87499999933,
      "d": 125,
      "v": 116
    },
    {
      "midi": 72,
      "hit": false,
      "t": 259083.33333333267,
      "d": 78.125,
      "v": 36
    },
    {
      "midi": 48,
      "hit": false,
      "t": 259182.291666666,
      "d": 57.291666666656965,
      "v": 77
    },
    {
      "midi": 55,
      "hit": false,
      "t": 259195.31249999933,
      "d": 41.666666666656965,
      "v": 76
    },
    {
      "midi": 80,
      "hit": false,
      "t": 259291.666666666,
      "d": 117.1875,
      "v": 99
    },
    {
      "midi": 72,
      "hit": false,
      "t": 259294.27083333264,
      "d": 52.083333333343035,
      "v": 100
    },
    {
      "midi": 75,
      "hit": false,
      "t": 259296.8749999993,
      "d": 44.270833333343035,
      "v": 76
    },
    {
      "midi": 38,
      "hit": false,
      "t": 259505.20833333264,
      "d": 216.14583333334303,
      "v": 79
    },
    {
      "midi": 79,
      "hit": false,
      "t": 259567.70833333264,
      "d": 911.458333333343,
      "v": 109
    },
    {
      "midi": 71,
      "hit": false,
      "t": 259585.9374999993,
      "d": 117.1875000000291,
      "v": 62
    },
    {
      "midi": 50,
      "hit": false,
      "t": 259596.354166666,
      "d": 182.29166666665697,
      "v": 84
    },
    {
      "midi": 65,
      "hit": false,
      "t": 259604.166666666,
      "d": 148.4375,
      "v": 92
    },
    {
      "midi": 67,
      "hit": false,
      "t": 259604.166666666,
      "d": 151.04166666665697,
      "v": 53
    },
    {
      "midi": 65,
      "hit": false,
      "t": 259901.041666666,
      "d": 88.54166666665697,
      "v": 80
    },
    {
      "midi": 67,
      "hit": false,
      "t": 259903.64583333264,
      "d": 96.35416666665697,
      "v": 64
    },
    {
      "midi": 71,
      "hit": false,
      "t": 259903.64583333264,
      "d": 117.1875,
      "v": 64
    },
    {
      "midi": 55,
      "hit": false,
      "t": 259908.854166666,
      "d": 106.77083333331393,
      "v": 76
    },
    {
      "midi": 50,
      "hit": false,
      "t": 259932.291666666,
      "d": 255.20833333334303,
      "v": 39
    },
    {
      "midi": 71,
      "hit": false,
      "t": 260177.08333333264,
      "d": 130.20833333334303,
      "v": 59
    },
    {
      "midi": 65,
      "hit": false,
      "t": 260182.291666666,
      "d": 67.70833333334303,
      "v": 76
    },
    {
      "midi": 67,
      "hit": false,
      "t": 260182.291666666,
      "d": 70.3125,
      "v": 43
    },
    {
      "midi": 62,
      "hit": false,
      "t": 260187.49999999933,
      "d": 91.14583333331393,
      "v": 60
    },
    {
      "midi": 55,
      "hit": false,
      "t": 260208.33333333267,
      "d": 62.499999999970896,
      "v": 52
    },
    {
      "midi": 71,
      "hit": false,
      "t": 260476.56249999933,
      "d": 171.875,
      "v": 67
    },
    {
      "midi": 65,
      "hit": false,
      "t": 260486.979166666,
      "d": 127.60416666665697,
      "v": 67
    },
    {
      "midi": 55,
      "hit": false,
      "t": 260486.979166666,
      "d": 195.3125,
      "v": 46
    },
    {
      "midi": 67,
      "hit": false,
      "t": 260489.58333333264,
      "d": 130.20833333334303,
      "v": 43
    },
    {
      "midi": 50,
      "hit": false,
      "t": 260510.416666666,
      "d": 78.125,
      "v": 57
    },
    {
      "midi": 73,
      "hit": false,
      "t": 260763.02083333264,
      "d": 203.1249999999709,
      "v": 88
    },
    {
      "midi": 71,
      "hit": false,
      "t": 260765.6249999993,
      "d": 59.89583333331393,
      "v": 50
    },
    {
      "midi": 67,
      "hit": false,
      "t": 260796.8749999993,
      "d": 62.499999999970896,
      "v": 43
    },
    {
      "midi": 65,
      "hit": false,
      "t": 260799.47916666596,
      "d": 57.291666666656965,
      "v": 46
    },
    {
      "midi": 62,
      "hit": false,
      "t": 260927.08333333262,
      "d": 67.70833333334303,
      "v": 48
    },
    {
      "midi": 55,
      "hit": false,
      "t": 260932.29166666596,
      "d": 117.1875,
      "v": 63
    },
    {
      "midi": 74,
      "hit": false,
      "t": 261031.2499999993,
      "d": 93.7500000000291,
      "v": 98
    },
    {
      "midi": 65,
      "hit": false,
      "t": 261052.08333333262,
      "d": 67.70833333337214,
      "v": 49
    },
    {
      "midi": 71,
      "hit": false,
      "t": 261057.29166666596,
      "d": 44.270833333343035,
      "v": 60
    },
    {
      "midi": 67,
      "hit": false,
      "t": 261062.4999999993,
      "d": 52.083333333343035,
      "v": 54
    },
    {
      "midi": 79,
      "hit": false,
      "t": 261255.20833333267,
      "d": 104.16666666665697,
      "v": 105
    },
    {
      "midi": 67,
      "hit": false,
      "t": 261265.62499999933,
      "d": 78.125,
      "v": 53
    },
    {
      "midi": 65,
      "hit": false,
      "t": 261278.64583333267,
      "d": 46.875,
      "v": 78
    },
    {
      "midi": 71,
      "hit": false,
      "t": 261286.45833333267,
      "d": 54.6875,
      "v": 40
    },
    {
      "midi": 50,
      "hit": false,
      "t": 261338.54166666602,
      "d": 164.0624999999709,
      "v": 58
    },
    {
      "midi": 38,
      "hit": false,
      "t": 261385.416666666,
      "d": 125,
      "v": 19
    },
    {
      "midi": 77,
      "hit": false,
      "t": 261471.354166666,
      "d": 44.270833333343035,
      "v": 104
    },
    {
      "midi": 71,
      "hit": false,
      "t": 261489.58333333264,
      "d": 44.270833333343035,
      "v": 40
    },
    {
      "midi": 65,
      "hit": false,
      "t": 261489.58333333264,
      "d": 62.5,
      "v": 50
    },
    {
      "midi": 67,
      "hit": false,
      "t": 261505.20833333264,
      "d": 67.70833333334303,
      "v": 42
    },
    {
      "midi": 71,
      "hit": false,
      "t": 261624.99999999933,
      "d": 75.52083333331393,
      "v": 58
    },
    {
      "midi": 75,
      "hit": false,
      "t": 261627.604166666,
      "d": 117.1875,
      "v": 94
    },
    {
      "midi": 65,
      "hit": false,
      "t": 261635.416666666,
      "d": 54.6875,
      "v": 58
    },
    {
      "midi": 39,
      "hit": false,
      "t": 261677.08333333264,
      "d": 281.25,
      "v": 57
    },
    {
      "midi": 72,
      "hit": false,
      "t": 261796.87499999933,
      "d": 114.58333333331393,
      "v": 89
    },
    {
      "midi": 75,
      "hit": false,
      "t": 261799.479166666,
      "d": 1494.7916666665697,
      "v": 97
    },
    {
      "midi": 67,
      "hit": false,
      "t": 261817.70833333264,
      "d": 182.29166666665697,
      "v": 50
    },
    {
      "midi": 51,
      "hit": false,
      "t": 261854.166666666,
      "d": 117.1875,
      "v": 59
    },
    {
      "midi": 67,
      "hit": false,
      "t": 262124.9999999993,
      "d": 83.33333333331393,
      "v": 64
    },
    {
      "midi": 72,
      "hit": false,
      "t": 262143.22916666596,
      "d": 59.895833333343035,
      "v": 66
    },
    {
      "midi": 51,
      "hit": false,
      "t": 262145.8333333326,
      "d": 200.52083333331393,
      "v": 49
    },
    {
      "midi": 60,
      "hit": false,
      "t": 262148.4374999993,
      "d": 96.35416666662786,
      "v": 50
    },
    {
      "midi": 63,
      "hit": false,
      "t": 262414.06249999924,
      "d": 59.89583333331393,
      "v": 51
    },
    {
      "midi": 72,
      "hit": false,
      "t": 262419.27083333256,
      "d": 54.6875,
      "v": 69
    },
    {
      "midi": 67,
      "hit": false,
      "t": 262432.2916666659,
      "d": 67.70833333337214,
      "v": 39
    },
    {
      "midi": 55,
      "hit": false,
      "t": 262432.2916666659,
      "d": 70.31250000005821,
      "v": 50
    },
    {
      "midi": 72,
      "hit": false,
      "t": 262677.0833333326,
      "d": 62.49999999994179,
      "v": 63
    },
    {
      "midi": 67,
      "hit": false,
      "t": 262682.29166666593,
      "d": 67.70833333331393,
      "v": 50
    },
    {
      "midi": 60,
      "hit": false,
      "t": 262687.49999999924,
      "d": 65.10416666668607,
      "v": 59
    },
    {
      "midi": 51,
      "hit": false,
      "t": 262687.49999999924,
      "d": 93.75,
      "v": 52
    },
    {
      "midi": 67,
      "hit": false,
      "t": 262940.10416666593,
      "d": 70.31249999994179,
      "v": 52
    },
    {
      "midi": 63,
      "hit": false,
      "t": 262945.31249999924,
      "d": 44.27083333331393,
      "v": 61
    },
    {
      "midi": 72,
      "hit": false,
      "t": 262955.72916666593,
      "d": 57.29166666662786,
      "v": 55
    },
    {
      "midi": 55,
      "hit": false,
      "t": 262976.56249999924,
      "d": 49.47916666662786,
      "v": 52
    },
    {
      "midi": 51,
      "hit": false,
      "t": 263182.2916666659,
      "d": 239.58333333331393,
      "v": 76
    },
    {
      "midi": 39,
      "hit": false,
      "t": 263192.70833333256,
      "d": 177.08333333331393,
      "v": 72
    },
    {
      "midi": 72,
      "hit": false,
      "t": 263216.14583333256,
      "d": 62.5,
      "v": 58
    },
    {
      "midi": 67,
      "hit": false,
      "t": 263229.1666666659,
      "d": 72.91666666668607,
      "v": 54
    },
    {
      "midi": 41,
      "hit": false,
      "t": 263499.9999999992,
      "d": 197.91666666662786,
      "v": 85
    },
    {
      "midi": 53,
      "hit": false,
      "t": 263507.8124999992,
      "d": 229.16666666662786,
      "v": 75
    },
    {
      "midi": 68,
      "hit": false,
      "t": 263513.0208333325,
      "d": 236.97916666662786,
      "v": 64
    },
    {
      "midi": 62,
      "hit": false,
      "t": 263549.4791666658,
      "d": 153.64583333331393,
      "v": 42
    },
    {
      "midi": 68,
      "hit": false,
      "t": 263861.9791666658,
      "d": 96.35416666668607,
      "v": 42
    },
    {
      "midi": 59,
      "hit": false,
      "t": 263885.4166666658,
      "d": 54.6875,
      "v": 40
    },
    {
      "midi": 62,
      "hit": false,
      "t": 263888.0208333325,
      "d": 59.89583333331393,
      "v": 49
    },
    {
      "midi": 53,
      "hit": false,
      "t": 263932.2916666658,
      "d": 182.29166666668607,
      "v": 42
    },
    {
      "midi": 65,
      "hit": false,
      "t": 264166.6666666658,
      "d": 65.10416666668607,
      "v": 58
    },
    {
      "midi": 68,
      "hit": false,
      "t": 264169.2708333325,
      "d": 85.9375,
      "v": 58
    },
    {
      "midi": 62,
      "hit": false,
      "t": 264177.0833333325,
      "d": 72.91666666668607,
      "v": 55
    },
    {
      "midi": 59,
      "hit": false,
      "t": 264205.7291666658,
      "d": 49.47916666668607,
      "v": 43
    },
    {
      "midi": 71,
      "hit": false,
      "t": 264484.3749999992,
      "d": 1328.1249999998836,
      "v": 68
    },
    {
      "midi": 53,
      "hit": false,
      "t": 264499.9999999992,
      "d": 67.70833333331393,
      "v": 52
    },
    {
      "midi": 59,
      "hit": false,
      "t": 264507.8124999992,
      "d": 83.33333333331393,
      "v": 20
    },
    {
      "midi": 62,
      "hit": false,
      "t": 264536.4583333325,
      "d": 62.5,
      "v": 17
    },
    {
      "midi": 68,
      "hit": false,
      "t": 264539.0624999992,
      "d": 59.89583333331393,
      "v": 22
    },
    {
      "midi": 65,
      "hit": false,
      "t": 264773.4374999992,
      "d": 59.89583333331393,
      "v": 52
    },
    {
      "midi": 68,
      "hit": false,
      "t": 264786.4583333325,
      "d": 59.89583333331393,
      "v": 53
    },
    {
      "midi": 62,
      "hit": false,
      "t": 264799.4791666658,
      "d": 70.3125,
      "v": 33
    },
    {
      "midi": 59,
      "hit": false,
      "t": 264833.3333333325,
      "d": 41.66666666662786,
      "v": 9
    },
    {
      "midi": 53,
      "hit": false,
      "t": 265044.27083333244,
      "d": 59.89583333331393,
      "v": 55
    },
    {
      "midi": 62,
      "hit": false,
      "t": 265044.27083333244,
      "d": 67.70833333331393,
      "v": 48
    },
    {
      "midi": 68,
      "hit": false,
      "t": 265057.29166666575,
      "d": 67.70833333331393,
      "v": 36
    },
    {
      "midi": 41,
      "hit": false,
      "t": 265065.10416666575,
      "d": 67.70833333331393,
      "v": 37
    },
    {
      "midi": 51,
      "hit": false,
      "t": 265320.31249999907,
      "d": 192.70833333331393,
      "v": 67
    },
    {
      "midi": 39,
      "hit": false,
      "t": 265322.91666666575,
      "d": 166.66666666662786,
      "v": 67
    },
    {
      "midi": 63,
      "hit": false,
      "t": 265335.93749999907,
      "d": 153.64583333331393,
      "v": 55
    },
    {
      "midi": 67,
      "hit": false,
      "t": 265359.37499999907,
      "d": 125,
      "v": 48
    },
    {
      "midi": 63,
      "hit": false,
      "t": 265627.60416666575,
      "d": 80.72916666662786,
      "v": 41
    },
    {
      "midi": 67,
      "hit": false,
      "t": 265632.81249999907,
      "d": 93.75,
      "v": 51
    },
    {
      "midi": 55,
      "hit": false,
      "t": 265645.8333333324,
      "d": 62.5,
      "v": 51
    },
    {
      "midi": 48,
      "hit": false,
      "t": 265666.6666666657,
      "d": 140.6250000000582,
      "v": 62
    },
    {
      "midi": 72,
      "hit": false,
      "t": 265776.04166666575,
      "d": 484.3749999998836,
      "v": 89
    },
    {
      "midi": 60,
      "hit": false,
      "t": 265911.4583333324,
      "d": 65.10416666662786,
      "v": 63
    },
    {
      "midi": 63,
      "hit": false,
      "t": 265924.4791666657,
      "d": 65.10416666662786,
      "v": 57
    },
    {
      "midi": 55,
      "hit": false,
      "t": 265927.0833333324,
      "d": 80.72916666656965,
      "v": 46
    },
    {
      "midi": 67,
      "hit": false,
      "t": 265932.2916666657,
      "d": 70.31249999994179,
      "v": 57
    },
    {
      "midi": 74,
      "hit": false,
      "t": 266218.74999999895,
      "d": 359.375,
      "v": 88
    },
    {
      "midi": 63,
      "hit": false,
      "t": 266234.37499999895,
      "d": 65.10416666668607,
      "v": 39
    },
    {
      "midi": 48,
      "hit": false,
      "t": 266265.62499999895,
      "d": 135.41666666668607,
      "v": 50
    },
    {
      "midi": 55,
      "hit": false,
      "t": 266268.22916666564,
      "d": 59.89583333331393,
      "v": 43
    },
    {
      "midi": 63,
      "hit": false,
      "t": 266531.24999999895,
      "d": 83.33333333331393,
      "v": 50
    },
    {
      "midi": 67,
      "hit": false,
      "t": 266546.87499999895,
      "d": 67.70833333331393,
      "v": 41
    },
    {
      "midi": 60,
      "hit": false,
      "t": 266572.91666666564,
      "d": 59.89583333331393,
      "v": 47
    },
    {
      "midi": 55,
      "hit": false,
      "t": 266585.93749999895,
      "d": 65.10416666668607,
      "v": 45
    },
    {
      "midi": 75,
      "hit": false,
      "t": 266773.43749999895,
      "d": 518.2291666667443,
      "v": 57
    },
    {
      "midi": 48,
      "hit": false,
      "t": 266921.87499999895,
      "d": 203.1250000000582,
      "v": 61
    },
    {
      "midi": 63,
      "hit": false,
      "t": 266932.29166666564,
      "d": 143.22916666668607,
      "v": 52
    },
    {
      "midi": 36,
      "hit": false,
      "t": 266937.49999999895,
      "d": 203.1250000000582,
      "v": 37
    },
    {
      "midi": 67,
      "hit": false,
      "t": 266968.74999999895,
      "d": 72.91666666668607,
      "v": 42
    },
    {
      "midi": 47,
      "hit": false,
      "t": 267263.0208333323,
      "d": 200.52083333337214,
      "v": 57
    },
    {
      "midi": 35,
      "hit": false,
      "t": 267265.624999999,
      "d": 161.45833333337214,
      "v": 49
    },
    {
      "midi": 65,
      "hit": false,
      "t": 267265.624999999,
      "d": 229.16666666674428,
      "v": 59
    },
    {
      "midi": 67,
      "hit": false,
      "t": 267273.437499999,
      "d": 192.70833333337214,
      "v": 55
    },
    {
      "midi": 67,
      "hit": false,
      "t": 267588.54166666575,
      "d": 119.79166666668607,
      "v": 47
    },
    {
      "midi": 65,
      "hit": false,
      "t": 267588.54166666575,
      "d": 138.02083333337214,
      "v": 54
    },
    {
      "midi": 47,
      "hit": false,
      "t": 267658.85416666575,
      "d": 57.29166666668607,
      "v": 23
    },
    {
      "midi": 55,
      "hit": false,
      "t": 267669.27083333244,
      "d": 182.29166666668607,
      "v": 13
    },
    {
      "midi": 67,
      "hit": false,
      "t": 267861.9791666658,
      "d": 106.77083333331393,
      "v": 47
    },
    {
      "midi": 65,
      "hit": false,
      "t": 267874.9999999991,
      "d": 72.91666666668607,
      "v": 45
    },
    {
      "midi": 50,
      "hit": false,
      "t": 267893.2291666658,
      "d": 119.79166666662786,
      "v": 49
    },
    {
      "midi": 74,
      "hit": false,
      "t": 268098.95833333244,
      "d": 1145.8333333332557,
      "v": 105
    },
    {
      "midi": 55,
      "hit": false,
      "t": 268119.79166666575,
      "d": 291.66666666668607,
      "v": 51
    },
    {
      "midi": 47,
      "hit": false,
      "t": 268130.20833333244,
      "d": 52.08333333337214,
      "v": 32
    },
    {
      "midi": 65,
      "hit": false,
      "t": 268130.20833333244,
      "d": 75.52083333337214,
      "v": 42
    },
    {
      "midi": 67,
      "hit": false,
      "t": 268132.8124999991,
      "d": 72.91666666668607,
      "v": 31
    },
    {
      "midi": 62,
      "hit": false,
      "t": 268359.3749999991,
      "d": 44.27083333331393,
      "v": 63
    },
    {
      "midi": 65,
      "hit": false,
      "t": 268374.9999999991,
      "d": 62.5,
      "v": 62
    },
    {
      "midi": 67,
      "hit": false,
      "t": 268374.9999999991,
      "d": 104.16666666662786,
      "v": 58
    },
    {
      "midi": 50,
      "hit": false,
      "t": 268382.8124999991,
      "d": 67.70833333331393,
      "v": 55
    },
    {
      "midi": 65,
      "hit": false,
      "t": 268635.41666666575,
      "d": 57.29166666662786,
      "v": 54
    },
    {
      "midi": 35,
      "hit": false,
      "t": 268640.62499999907,
      "d": 109.375,
      "v": 55
    },
    {
      "midi": 67,
      "hit": false,
      "t": 268651.04166666575,
      "d": 57.29166666662786,
      "v": 59
    },
    {
      "midi": 47,
      "hit": false,
      "t": 268664.06249999907,
      "d": 114.58333333331393,
      "v": 22
    },
    {
      "midi": 63,
      "hit": false,
      "t": 268916.6666666657,
      "d": 164.0625,
      "v": 54
    },
    {
      "midi": 67,
      "hit": false,
      "t": 268924.4791666657,
      "d": 117.1875,
      "v": 67
    },
    {
      "midi": 48,
      "hit": false,
      "t": 268927.0833333324,
      "d": 145.83333333331393,
      "v": 83
    },
    {
      "midi": 36,
      "hit": false,
      "t": 268932.2916666657,
      "d": 101.5625,
      "v": 79
    },
    {
      "midi": 63,
      "hit": false,
      "t": 269249.999999999,
      "d": 72.91666666662786,
      "v": 54
    },
    {
      "midi": 55,
      "hit": false,
      "t": 269249.999999999,
      "d": 80.72916666662786,
      "v": 54
    },
    {
      "midi": 72,
      "hit": false,
      "t": 269255.2083333323,
      "d": 114.58333333331393,
      "v": 72
    },
    {
      "midi": 67,
      "hit": false,
      "t": 269270.8333333323,
      "d": 65.10416666662786,
      "v": 41
    },
    {
      "midi": 48,
      "hit": false,
      "t": 269278.6458333323,
      "d": 109.375,
      "v": 44
    },
    {
      "midi": 75,
      "hit": false,
      "t": 269411.4583333323,
      "d": 260.41666666668607,
      "v": 99
    },
    {
      "midi": 51,
      "hit": false,
      "t": 269546.874999999,
      "d": 156.25,
      "v": 66
    },
    {
      "midi": 60,
      "hit": false,
      "t": 269552.0833333323,
      "d": 72.91666666668607,
      "v": 70
    },
    {
      "midi": 63,
      "hit": false,
      "t": 269585.937499999,
      "d": 54.6875,
      "v": 66
    },
    {
      "midi": 72,
      "hit": false,
      "t": 269604.1666666657,
      "d": 46.875,
      "v": 74
    },
    {
      "midi": 77,
      "hit": false,
      "t": 269861.9791666657,
      "d": 377.60416666668607,
      "v": 110
    },
    {
      "midi": 67,
      "hit": false,
      "t": 269874.999999999,
      "d": 52.08333333331393,
      "v": 75
    },
    {
      "midi": 75,
      "hit": false,
      "t": 269874.999999999,
      "d": 52.08333333331393,
      "v": 65
    },
    {
      "midi": 48,
      "hit": false,
      "t": 269874.999999999,
      "d": 78.125,
      "v": 70
    },
    {
      "midi": 55,
      "hit": false,
      "t": 269877.6041666657,
      "d": 161.45833333331393,
      "v": 76
    },
    {
      "midi": 72,
      "hit": false,
      "t": 269914.062499999,
      "d": 59.89583333331393,
      "v": 29
    },
    {
      "midi": 67,
      "hit": false,
      "t": 270158.8541666657,
      "d": 85.9375,
      "v": 57
    },
    {
      "midi": 75,
      "hit": false,
      "t": 270158.8541666657,
      "d": 96.35416666668607,
      "v": 68
    },
    {
      "midi": 72,
      "hit": false,
      "t": 270166.6666666657,
      "d": 65.10416666668607,
      "v": 56
    },
    {
      "midi": 63,
      "hit": false,
      "t": 270174.4791666657,
      "d": 46.875,
      "v": 61
    },
    {
      "midi": 55,
      "hit": false,
      "t": 270177.0833333324,
      "d": 80.72916666668607,
      "v": 27
    },
    {
      "midi": 51,
      "hit": false,
      "t": 270200.5208333324,
      "d": 72.91666666668607,
      "v": 46
    },
    {
      "midi": 79,
      "hit": false,
      "t": 270335.93749999907,
      "d": 416.66666666668607,
      "v": 107
    },
    {
      "midi": 67,
      "hit": false,
      "t": 270533.85416666575,
      "d": 171.875,
      "v": 52
    },
    {
      "midi": 48,
      "hit": false,
      "t": 270536.45833333244,
      "d": 161.45833333331393,
      "v": 81
    },
    {
      "midi": 36,
      "hit": false,
      "t": 270536.45833333244,
      "d": 250,
      "v": 78
    },
    {
      "midi": 75,
      "hit": false,
      "t": 270546.8749999991,
      "d": 174.47916666662786,
      "v": 60
    },
    {
      "midi": 72,
      "hit": false,
      "t": 270567.70833333244,
      "d": 67.70833333331393,
      "v": 52
    },
    {
      "midi": 79,
      "hit": false,
      "t": 271119.79166666575,
      "d": 653.6458333333721,
      "v": 75
    },
    {
      "midi": 68,
      "hit": false,
      "t": 271135.41666666575,
      "d": 257.8125,
      "v": 40
    },
    {
      "midi": 29,
      "hit": false,
      "t": 271145.83333333244,
      "d": 187.5,
      "v": 48
    },
    {
      "midi": 41,
      "hit": false,
      "t": 271156.2499999991,
      "d": 223.95833333331393,
      "v": 33
    },
    {
      "midi": 72,
      "hit": false,
      "t": 271156.2499999991,
      "d": 268.22916666662786,
      "v": 45
    },
    {
      "midi": 75,
      "hit": false,
      "t": 271161.45833333244,
      "d": 208.33333333331393,
      "v": 40
    },
    {
      "midi": 68,
      "hit": false,
      "t": 271658.85416666575,
      "d": 91.14583333337214,
      "v": 34
    },
    {
      "midi": 72,
      "hit": false,
      "t": 271677.08333333244,
      "d": 75.52083333337214,
      "v": 35
    },
    {
      "midi": 75,
      "hit": false,
      "t": 271677.08333333244,
      "d": 88.54166666668607,
      "v": 25
    },
    {
      "midi": 53,
      "hit": false,
      "t": 271692.70833333244,
      "d": 80.72916666668607,
      "v": 21
    },
    {
      "midi": 60,
      "hit": false,
      "t": 271723.95833333244,
      "d": 75.52083333337214,
      "v": 31
    },
    {
      "midi": 77,
      "hit": false,
      "t": 271859.3749999991,
      "d": 523.4375,
      "v": 72
    },
    {
      "midi": 63,
      "hit": false,
      "t": 272036.45833333244,
      "d": 75.52083333337214,
      "v": 28
    },
    {
      "midi": 56,
      "hit": false,
      "t": 272046.8749999991,
      "d": 93.75,
      "v": 40
    },
    {
      "midi": 68,
      "hit": false,
      "t": 272057.2916666658,
      "d": 91.14583333331393,
      "v": 40
    },
    {
      "midi": 75,
      "hit": false,
      "t": 272093.7499999991,
      "d": 83.33333333331393,
      "v": 32
    },
    {
      "midi": 72,
      "hit": false,
      "t": 272104.1666666658,
      "d": 72.91666666662786,
      "v": 38
    },
    {
      "midi": 80,
      "hit": false,
      "t": 272364.58333333244,
      "d": 359.375,
      "v": 74
    },
    {
      "midi": 75,
      "hit": false,
      "t": 272393.2291666658,
      "d": 67.70833333331393,
      "v": 31
    },
    {
      "midi": 68,
      "hit": false,
      "t": 272398.4374999991,
      "d": 75.52083333331393,
      "v": 28
    },
    {
      "midi": 60,
      "hit": false,
      "t": 272411.45833333244,
      "d": 91.14583333331393,
      "v": 28
    },
    {
      "midi": 53,
      "hit": false,
      "t": 272419.27083333244,
      "d": 65.10416666668607,
      "v": 27
    },
    {
      "midi": 72,
      "hit": false,
      "t": 272421.8749999991,
      "d": 67.70833333331393,
      "v": 14
    },
    {
      "midi": 63,
      "hit": false,
      "t": 272677.08333333244,
      "d": 67.70833333331393,
      "v": 40
    },
    {
      "midi": 56,
      "hit": false,
      "t": 272713.54166666575,
      "d": 52.08333333331393,
      "v": 40
    },
    {
      "midi": 75,
      "hit": false,
      "t": 272729.16666666575,
      "d": 70.3125,
      "v": 30
    },
    {
      "midi": 72,
      "hit": false,
      "t": 272731.77083333244,
      "d": 59.89583333331393,
      "v": 15
    },
    {
      "midi": 68,
      "hit": false,
      "t": 272749.99999999907,
      "d": 96.35416666668607,
      "v": 36
    },
    {
      "midi": 72,
      "hit": false,
      "t": 272981.77083333244,
      "d": 325.5208333332557,
      "v": 79
    },
    {
      "midi": 68,
      "hit": false,
      "t": 273158.85416666575,
      "d": 127.60416666662786,
      "v": 51
    },
    {
      "midi": 41,
      "hit": false,
      "t": 273164.06249999907,
      "d": 72.91666666662786,
      "v": 45
    },
    {
      "midi": 29,
      "hit": false,
      "t": 273169.2708333324,
      "d": 59.89583333331393,
      "v": 53
    },
    {
      "midi": 65,
      "hit": false,
      "t": 273182.2916666657,
      "d": 104.16666666668607,
      "v": 44
    },
    {
      "midi": 44,
      "hit": false,
      "t": 273486.9791666657,
      "d": 177.08333333331393,
      "v": 45
    },
    {
      "midi": 32,
      "hit": false,
      "t": 273494.7916666657,
      "d": 140.625,
      "v": 54
    },
    {
      "midi": 74,
      "hit": false,
      "t": 273494.7916666657,
      "d": 341.14583333337214,
      "v": 79
    },
    {
      "midi": 65,
      "hit": false,
      "t": 273499.999999999,
      "d": 143.22916666668607,
      "v": 42
    },
    {
      "midi": 72,
      "hit": false,
      "t": 273510.4166666657,
      "d": 83.33333333331393,
      "v": 49
    },
    {
      "midi": 68,
      "hit": false,
      "t": 273510.4166666657,
      "d": 130.20833333331393,
      "v": 38
    },
    {
      "midi": 68,
      "hit": false,
      "t": 273799.4791666657,
      "d": 75.52083333337214,
      "v": 38
    },
    {
      "midi": 65,
      "hit": false,
      "t": 273815.1041666657,
      "d": 72.91666666668607,
      "v": 37
    },
    {
      "midi": 72,
      "hit": false,
      "t": 273825.5208333324,
      "d": 88.54166666668607,
      "v": 35
    },
    {
      "midi": 60,
      "hit": false,
      "t": 273843.74999999907,
      "d": 70.3125,
      "v": 60
    },
    {
      "midi": 53,
      "hit": false,
      "t": 273854.16666666575,
      "d": 62.5,
      "v": 49
    },
    {
      "midi": 75,
      "hit": false,
      "t": 273958.33333333244,
      "d": 208.33333333325572,
      "v": 79
    },
    {
      "midi": 63,
      "hit": false,
      "t": 274104.16666666575,
      "d": 62.49999999994179,
      "v": 58
    },
    {
      "midi": 72,
      "hit": false,
      "t": 274109.37499999907,
      "d": 41.66666666662786,
      "v": 77
    },
    {
      "midi": 65,
      "hit": false,
      "t": 274114.5833333324,
      "d": 52.08333333331393,
      "v": 60
    },
    {
      "midi": 68,
      "hit": false,
      "t": 274114.5833333324,
      "d": 54.6875,
      "v": 51
    },
    {
      "midi": 56,
      "hit": false,
      "t": 274114.5833333324,
      "d": 140.625,
      "v": 50
    },
    {
      "midi": 75,
      "hit": false,
      "t": 274374.99999999907,
      "d": 119.79166666662786,
      "v": 79
    },
    {
      "midi": 68,
      "hit": false,
      "t": 274388.0208333324,
      "d": 62.5,
      "v": 70
    },
    {
      "midi": 53,
      "hit": false,
      "t": 274395.8333333324,
      "d": 72.91666666662786,
      "v": 55
    },
    {
      "midi": 72,
      "hit": false,
      "t": 274401.0416666657,
      "d": 54.6875,
      "v": 72
    },
    {
      "midi": 60,
      "hit": false,
      "t": 274401.0416666657,
      "d": 111.97916666668607,
      "v": 51
    },
    {
      "midi": 77,
      "hit": false,
      "t": 274596.3541666657,
      "d": 114.58333333337214,
      "v": 91
    },
    {
      "midi": 68,
      "hit": false,
      "t": 274614.5833333324,
      "d": 54.6875,
      "v": 62
    },
    {
      "midi": 72,
      "hit": false,
      "t": 274640.62499999907,
      "d": 59.89583333331393,
      "v": 47
    },
    {
      "midi": 72,
      "hit": false,
      "t": 274773.43749999907,
      "d": 62.5,
      "v": 88
    },
    {
      "midi": 75,
      "hit": false,
      "t": 274776.04166666575,
      "d": 114.58333333331393,
      "v": 87
    },
    {
      "midi": 68,
      "hit": false,
      "t": 274781.24999999907,
      "d": 54.6875,
      "v": 48
    },
    {
      "midi": 63,
      "hit": false,
      "t": 274851.56249999907,
      "d": 72.91666666668607,
      "v": 43
    },
    {
      "midi": 60,
      "hit": false,
      "t": 274882.81249999907,
      "d": 65.10416666668607,
      "v": 37
    },
    {
      "midi": 56,
      "hit": false,
      "t": 274885.41666666575,
      "d": 91.14583333331393,
      "v": 44
    },
    {
      "midi": 68,
      "hit": false,
      "t": 274953.12499999907,
      "d": 57.29166666668607,
      "v": 55
    },
    {
      "midi": 74,
      "hit": false,
      "t": 274953.12499999907,
      "d": 72.91666666668607,
      "v": 91
    },
    {
      "midi": 72,
      "hit": false,
      "t": 274968.74999999907,
      "d": 62.5,
      "v": 37
    },
    {
      "midi": 75,
      "hit": false,
      "t": 275111.97916666575,
      "d": 80.72916666674428,
      "v": 88
    },
    {
      "midi": 72,
      "hit": false,
      "t": 275114.58333333244,
      "d": 52.08333333337214,
      "v": 71
    },
    {
      "midi": 68,
      "hit": false,
      "t": 275156.2499999991,
      "d": 59.89583333337214,
      "v": 27
    },
    {
      "midi": 44,
      "hit": false,
      "t": 275234.3749999992,
      "d": 145.83333333331393,
      "v": 48
    },
    {
      "midi": 32,
      "hit": false,
      "t": 275239.5833333325,
      "d": 125,
      "v": 52
    },
    {
      "midi": 79,
      "hit": false,
      "t": 275317.7083333325,
      "d": 143.22916666662786,
      "v": 93
    },
    {
      "midi": 68,
      "hit": false,
      "t": 275322.9166666658,
      "d": 57.29166666668607,
      "v": 58
    },
    {
      "midi": 72,
      "hit": false,
      "t": 275333.3333333325,
      "d": 70.3125,
      "v": 32
    },
    {
      "midi": 75,
      "hit": false,
      "t": 275359.3749999992,
      "d": 57.29166666662786,
      "v": 50
    },
    {
      "midi": 68,
      "hit": false,
      "t": 275531.2499999991,
      "d": 62.5,
      "v": 73
    },
    {
      "midi": 77,
      "hit": false,
      "t": 275536.45833333244,
      "d": 46.875,
      "v": 90
    },
    {
      "midi": 72,
      "hit": false,
      "t": 275562.4999999991,
      "d": 67.70833333331393,
      "v": 37
    },
    {
      "midi": 46,
      "hit": false,
      "t": 275783.85416666575,
      "d": 192.70833333331393,
      "v": 64
    },
    {
      "midi": 74,
      "hit": false,
      "t": 275786.45833333244,
      "d": 3401.041666666919,
      "v": 92
    },
    {
      "midi": 68,
      "hit": false,
      "t": 275789.0624999991,
      "d": 218.7499999999418,
      "v": 63
    },
    {
      "midi": 34,
      "hit": false,
      "t": 275802.08333333244,
      "d": 164.0624999999418,
      "v": 49
    },
    {
      "midi": 65,
      "hit": false,
      "t": 275802.08333333244,
      "d": 184.89583333331393,
      "v": 63
    },
    {
      "midi": 70,
      "hit": false,
      "t": 275851.56249999907,
      "d": 151.04166666668607,
      "v": 31
    },
    {
      "midi": 68,
      "hit": false,
      "t": 276127.60416666575,
      "d": 98.95833333337214,
      "v": 48
    },
    {
      "midi": 56,
      "hit": false,
      "t": 276135.41666666575,
      "d": 143.22916666674428,
      "v": 73
    },
    {
      "midi": 70,
      "hit": false,
      "t": 276138.02083333244,
      "d": 91.14583333337214,
      "v": 65
    },
    {
      "midi": 65,
      "hit": false,
      "t": 276153.64583333244,
      "d": 65.10416666668607,
      "v": 47
    },
    {
      "midi": 46,
      "hit": false,
      "t": 276169.27083333244,
      "d": 67.70833333337214,
      "v": 44
    },
    {
      "midi": 62,
      "hit": false,
      "t": 276427.0833333325,
      "d": 62.5,
      "v": 64
    },
    {
      "midi": 70,
      "hit": false,
      "t": 276432.2916666658,
      "d": 164.0625000000582,
      "v": 76
    },
    {
      "midi": 68,
      "hit": false,
      "t": 276440.1041666658,
      "d": 98.95833333337214,
      "v": 54
    },
    {
      "midi": 65,
      "hit": false,
      "t": 276442.7083333325,
      "d": 85.9375,
      "v": 61
    },
    {
      "midi": 53,
      "hit": false,
      "t": 276450.5208333325,
      "d": 153.64583333337214,
      "v": 69
    },
    {
      "midi": 70,
      "hit": false,
      "t": 276697.9166666659,
      "d": 148.4374999999418,
      "v": 57
    },
    {
      "midi": 68,
      "hit": false,
      "t": 276713.5416666659,
      "d": 88.54166666662786,
      "v": 59
    },
    {
      "midi": 56,
      "hit": false,
      "t": 276713.5416666659,
      "d": 242.1874999999418,
      "v": 81
    },
    {
      "midi": 65,
      "hit": false,
      "t": 276718.7499999992,
      "d": 83.33333333331393,
      "v": 57
    },
    {
      "midi": 46,
      "hit": false,
      "t": 276723.9583333325,
      "d": 44.27083333331393,
      "v": 77
    },
    {
      "midi": 62,
      "hit": false,
      "t": 276971.3541666658,
      "d": 39.0625,
      "v": 80
    },
    {
      "midi": 70,
      "hit": false,
      "t": 276981.7708333325,
      "d": 528.6458333333139,
      "v": 83
    },
    {
      "midi": 68,
      "hit": false,
      "t": 276989.5833333325,
      "d": 83.33333333331393,
      "v": 61
    },
    {
      "midi": 53,
      "hit": false,
      "t": 276989.5833333325,
      "d": 98.95833333331393,
      "v": 63
    },
    {
      "midi": 65,
      "hit": false,
      "t": 276994.7916666658,
      "d": 80.72916666668607,
      "v": 68
    },
    {
      "midi": 56,
      "hit": false,
      "t": 277015.6249999991,
      "d": 65.10416666668607,
      "v": 11
    },
    {
      "midi": 68,
      "hit": false,
      "t": 277231.7708333325,
      "d": 145.83333333331393,
      "v": 77
    },
    {
      "midi": 46,
      "hit": false,
      "t": 277234.3749999992,
      "d": 135.41666666662786,
      "v": 92
    },
    {
      "midi": 65,
      "hit": false,
      "t": 277244.7916666659,
      "d": 109.37499999994179,
      "v": 73
    },
    {
      "midi": 34,
      "hit": false,
      "t": 277249.9999999992,
      "d": 67.70833333331393,
      "v": 76
    },
    {
      "midi": 67,
      "hit": false,
      "t": 277510.4166666658,
      "d": 197.91666666674428,
      "v": 81
    },
    {
      "midi": 47,
      "hit": false,
      "t": 277518.2291666658,
      "d": 192.70833333343035,
      "v": 90
    },
    {
      "midi": 65,
      "hit": false,
      "t": 277520.8333333325,
      "d": 161.45833333337214,
      "v": 73
    },
    {
      "midi": 35,
      "hit": false,
      "t": 277523.4374999992,
      "d": 148.4375,
      "v": 84
    },
    {
      "midi": 67,
      "hit": false,
      "t": 277807.29166666593,
      "d": 156.2500000000582,
      "v": 66
    },
    {
      "midi": 65,
      "hit": false,
      "t": 277825.5208333326,
      "d": 111.97916666668607,
      "v": 53
    },
    {
      "midi": 55,
      "hit": false,
      "t": 277841.1458333326,
      "d": 252.60416666668607,
      "v": 96
    },
    {
      "midi": 47,
      "hit": false,
      "t": 277874.9999999993,
      "d": 46.875,
      "v": 42
    },
    {
      "midi": 62,
      "hit": false,
      "t": 278078.1249999993,
      "d": 111.97916666668607,
      "v": 85
    },
    {
      "midi": 67,
      "hit": false,
      "t": 278080.729166666,
      "d": 111.97916666668607,
      "v": 78
    },
    {
      "midi": 65,
      "hit": false,
      "t": 278098.9583333326,
      "d": 52.08333333337214,
      "v": 80
    },
    {
      "midi": 50,
      "hit": false,
      "t": 278101.5624999993,
      "d": 164.0625000000582,
      "v": 70
    },
    {
      "midi": 67,
      "hit": false,
      "t": 278296.87499999936,
      "d": 119.79166666662786,
      "v": 79
    },
    {
      "midi": 65,
      "hit": false,
      "t": 278312.49999999936,
      "d": 46.87499999994179,
      "v": 88
    },
    {
      "midi": 55,
      "hit": false,
      "t": 278317.7083333327,
      "d": 380.20833333337214,
      "v": 88
    },
    {
      "midi": 47,
      "hit": false,
      "t": 278330.729166666,
      "d": 54.6875,
      "v": 72
    },
    {
      "midi": 70,
      "hit": false,
      "t": 278473.9583333327,
      "d": 270.83333333337214,
      "v": 94
    },
    {
      "midi": 68,
      "hit": false,
      "t": 278575.5208333327,
      "d": 361.97916666668607,
      "v": 95
    },
    {
      "midi": 65,
      "hit": false,
      "t": 278601.56249999936,
      "d": 127.60416666668607,
      "v": 66
    },
    {
      "midi": 62,
      "hit": false,
      "t": 278624.99999999936,
      "d": 46.875,
      "v": 78
    },
    {
      "midi": 50,
      "hit": false,
      "t": 278632.81249999936,
      "d": 106.77083333337214,
      "v": 79
    },
    {
      "midi": 67,
      "hit": false,
      "t": 278940.10416666605,
      "d": 130.20833333337214,
      "v": 98
    },
    {
      "midi": 65,
      "hit": false,
      "t": 278947.91666666605,
      "d": 41.66666666668607,
      "v": 90
    },
    {
      "midi": 35,
      "hit": false,
      "t": 278968.74999999936,
      "d": 114.58333333337214,
      "v": 74
    },
    {
      "midi": 47,
      "hit": false,
      "t": 278971.35416666605,
      "d": 132.8125,
      "v": 71
    },
    {
      "midi": 64,
      "hit": false,
      "t": 279140.62499999936,
      "d": 343.75,
      "v": 85
    },
    {
      "midi": 36,
      "hit": false,
      "t": 279208.3333333327,
      "d": 229.16666666668607,
      "v": 92
    },
    {
      "midi": 67,
      "hit": false,
      "t": 279210.93749999936,
      "d": 164.0625,
      "v": 81
    },
    {
      "midi": 43,
      "hit": false,
      "t": 279255.2083333327,
      "d": 177.08333333337214,
      "v": 83
    },
    {
      "midi": 70,
      "hit": false,
      "t": 279307.29166666605,
      "d": 174.47916666662786,
      "v": 94
    },
    {
      "midi": 48,
      "hit": false,
      "t": 279348.95833333273,
      "d": 135.41666666662786,
      "v": 78
    },
    {
      "midi": 72,
      "hit": false,
      "t": 279361.97916666605,
      "d": 138.02083333331393,
      "v": 87
    },
    {
      "midi": 76,
      "hit": false,
      "t": 279442.7083333327,
      "d": 80.72916666668607,
      "v": 105
    },
    {
      "midi": 70,
      "hit": false,
      "t": 279739.5833333327,
      "d": 148.4375000000582,
      "v": 90
    },
    {
      "midi": 76,
      "hit": false,
      "t": 279749.99999999936,
      "d": 161.45833333337214,
      "v": 100
    },
    {
      "midi": 72,
      "hit": false,
      "t": 279755.2083333327,
      "d": 156.2500000000582,
      "v": 85
    },
    {
      "midi": 55,
      "hit": false,
      "t": 279770.8333333327,
      "d": 322.91666666668607,
      "v": 75
    },
    {
      "midi": 60,
      "hit": false,
      "t": 279789.06249999936,
      "d": 75.52083333337214,
      "v": 34
    },
    {
      "midi": 62,
      "hit": false,
      "t": 279807.29166666605,
      "d": 70.3125,
      "v": 37
    },
    {
      "midi": 70,
      "hit": false,
      "t": 280046.8749999994,
      "d": 119.79166666662786,
      "v": 98
    },
    {
      "midi": 76,
      "hit": false,
      "t": 280052.08333333273,
      "d": 169.27083333331393,
      "v": 99
    },
    {
      "midi": 72,
      "hit": false,
      "t": 280057.29166666605,
      "d": 138.02083333331393,
      "v": 97
    },
    {
      "midi": 64,
      "hit": false,
      "t": 280062.49999999936,
      "d": 57.29166666668607,
      "v": 92
    },
    {
      "midi": 60,
      "hit": false,
      "t": 280067.7083333327,
      "d": 83.33333333337214,
      "v": 60
    },
    {
      "midi": 58,
      "hit": false,
      "t": 280075.5208333327,
      "d": 70.31250000005821,
      "v": 79
    },
    {
      "midi": 70,
      "hit": false,
      "t": 280335.93749999936,
      "d": 127.60416666668607,
      "v": 78
    },
    {
      "midi": 79,
      "hit": false,
      "t": 280335.93749999936,
      "d": 1447.9166666664532,
      "v": 108
    },
    {
      "midi": 58,
      "hit": false,
      "t": 280346.35416666605,
      "d": 93.75,
      "v": 78
    },
    {
      "midi": 72,
      "hit": false,
      "t": 280351.56249999936,
      "d": 125,
      "v": 79
    },
    {
      "midi": 60,
      "hit": false,
      "t": 280359.37499999936,
      "d": 88.54166666668607,
      "v": 77
    },
    {
      "midi": 55,
      "hit": false,
      "t": 280361.97916666605,
      "d": 138.02083333331393,
      "v": 84
    },
    {
      "midi": 76,
      "hit": false,
      "t": 280369.79166666605,
      "d": 57.29166666668607,
      "v": 45
    },
    {
      "midi": 70,
      "hit": false,
      "t": 280606.7708333327,
      "d": 109.37499999994179,
      "v": 91
    },
    {
      "midi": 76,
      "hit": false,
      "t": 280614.5833333327,
      "d": 143.22916666656965,
      "v": 88
    },
    {
      "midi": 64,
      "hit": false,
      "t": 280619.791666666,
      "d": 33.85416666662786,
      "v": 92
    },
    {
      "midi": 72,
      "hit": false,
      "t": 280619.791666666,
      "d": 117.18749999994179,
      "v": 81
    },
    {
      "midi": 58,
      "hit": false,
      "t": 280627.604166666,
      "d": 46.87499999994179,
      "v": 96
    },
    {
      "midi": 60,
      "hit": false,
      "t": 280632.8124999993,
      "d": 41.66666666662786,
      "v": 77
    },
    {
      "midi": 70,
      "hit": false,
      "t": 280864.58333333256,
      "d": 130.20833333325572,
      "v": 95
    },
    {
      "midi": 76,
      "hit": false,
      "t": 280864.58333333256,
      "d": 187.4999999999418,
      "v": 81
    },
    {
      "midi": 72,
      "hit": false,
      "t": 280869.7916666659,
      "d": 124.99999999994179,
      "v": 85
    },
    {
      "midi": 36,
      "hit": false,
      "t": 280874.9999999992,
      "d": 28.64583333331393,
      "v": 103
    },
    {
      "midi": 48,
      "hit": false,
      "t": 280880.2083333325,
      "d": 44.27083333331393,
      "v": 97
    },
    {
      "midi": 76,
      "hit": false,
      "t": 281143.2291666658,
      "d": 187.5,
      "v": 87
    },
    {
      "midi": 72,
      "hit": false,
      "t": 281145.8333333325,
      "d": 166.66666666662786,
      "v": 101
    },
    {
      "midi": 68,
      "hit": false,
      "t": 281151.0416666658,
      "d": 122.39583333331393,
      "v": 89
    },
    {
      "midi": 53,
      "hit": false,
      "t": 281158.8541666658,
      "d": 140.625,
      "v": 97
    },
    {
      "midi": 41,
      "hit": false,
      "t": 281161.4583333325,
      "d": 106.77083333331393,
      "v": 94
    },
    {
      "midi": 72,
      "hit": false,
      "t": 281406.2499999991,
      "d": 127.60416666668607,
      "v": 81
    },
    {
      "midi": 76,
      "hit": false,
      "t": 281406.2499999991,
      "d": 164.0625,
      "v": 97
    },
    {
      "midi": 53,
      "hit": false,
      "t": 281411.45833333244,
      "d": 187.5,
      "v": 64
    },
    {
      "midi": 68,
      "hit": false,
      "t": 281421.8749999991,
      "d": 72.91666666668607,
      "v": 84
    },
    {
      "midi": 60,
      "hit": false,
      "t": 281424.4791666658,
      "d": 96.35416666668607,
      "v": 88
    },
    {
      "midi": 76,
      "hit": false,
      "t": 281692.70833333244,
      "d": 161.45833333337214,
      "v": 96
    },
    {
      "midi": 64,
      "hit": false,
      "t": 281695.3124999991,
      "d": 127.60416666668607,
      "v": 89
    },
    {
      "midi": 56,
      "hit": false,
      "t": 281697.9166666658,
      "d": 187.5,
      "v": 82
    },
    {
      "midi": 68,
      "hit": false,
      "t": 281700.5208333325,
      "d": 114.58333333331393,
      "v": 86
    },
    {
      "midi": 72,
      "hit": false,
      "t": 281708.3333333325,
      "d": 132.8125,
      "v": 82
    },
    {
      "midi": 60,
      "hit": false,
      "t": 281723.9583333325,
      "d": 67.70833333331393,
      "v": 46
    },
    {
      "midi": 80,
      "hit": false,
      "t": 282002.6041666658,
      "d": 1473.9583333333721,
      "v": 111
    },
    {
      "midi": 60,
      "hit": false,
      "t": 282015.6249999991,
      "d": 291.66666666668607,
      "v": 86
    },
    {
      "midi": 56,
      "hit": false,
      "t": 282018.2291666658,
      "d": 273.4375,
      "v": 47
    },
    {
      "midi": 68,
      "hit": false,
      "t": 282023.4374999991,
      "d": 257.8125,
      "v": 89
    },
    {
      "midi": 72,
      "hit": false,
      "t": 282028.64583333244,
      "d": 278.64583333337214,
      "v": 87
    },
    {
      "midi": 77,
      "hit": false,
      "t": 282031.2499999991,
      "d": 242.1875,
      "v": 85
    },
    {
      "midi": 53,
      "hit": false,
      "t": 282031.2499999991,
      "d": 572.9166666666861,
      "v": 75
    },
    {
      "midi": 68,
      "hit": false,
      "t": 282414.0624999991,
      "d": 164.0625,
      "v": 71
    },
    {
      "midi": 72,
      "hit": false,
      "t": 282421.8749999991,
      "d": 179.6875,
      "v": 60
    },
    {
      "midi": 77,
      "hit": false,
      "t": 282424.4791666658,
      "d": 151.04166666662786,
      "v": 86
    },
    {
      "midi": 65,
      "hit": false,
      "t": 282437.4999999991,
      "d": 70.3125,
      "v": 78
    },
    {
      "midi": 60,
      "hit": false,
      "t": 282442.70833333244,
      "d": 143.22916666668607,
      "v": 39
    },
    {
      "midi": 56,
      "hit": false,
      "t": 282450.52083333244,
      "d": 164.0625000000582,
      "v": 62
    },
    {
      "midi": 68,
      "hit": false,
      "t": 282760.4166666658,
      "d": 135.41666666668607,
      "v": 80
    },
    {
      "midi": 77,
      "hit": false,
      "t": 282763.0208333325,
      "d": 184.89583333337214,
      "v": 91
    },
    {
      "midi": 72,
      "hit": false,
      "t": 282765.6249999992,
      "d": 158.85416666668607,
      "v": 78
    },
    {
      "midi": 53,
      "hit": false,
      "t": 282773.4374999992,
      "d": 57.29166666662786,
      "v": 86
    },
    {
      "midi": 41,
      "hit": false,
      "t": 282778.6458333325,
      "d": 143.22916666668607,
      "v": 87
    },
    {
      "midi": 68,
      "hit": false,
      "t": 283078.1249999992,
      "d": 161.45833333331393,
      "v": 86
    },
    {
      "midi": 34,
      "hit": false,
      "t": 283080.7291666659,
      "d": 54.6875,
      "v": 107
    },
    {
      "midi": 46,
      "hit": false,
      "t": 283080.7291666659,
      "d": 67.70833333331393,
      "v": 109
    },
    {
      "midi": 72,
      "hit": false,
      "t": 283083.33333333256,
      "d": 171.8749999999418,
      "v": 92
    },
    {
      "midi": 75,
      "hit": false,
      "t": 283088.5416666659,
      "d": 151.04166666662786,
      "v": 76
    },
    {
      "midi": 68,
      "hit": false,
      "t": 283408.8541666658,
      "d": 111.97916666668607,
      "v": 76
    },
    {
      "midi": 75,
      "hit": false,
      "t": 283411.4583333325,
      "d": 145.83333333337214,
      "v": 74
    },
    {
      "midi": 53,
      "hit": false,
      "t": 283414.0624999992,
      "d": 106.77083333331393,
      "v": 83
    },
    {
      "midi": 72,
      "hit": false,
      "t": 283421.8749999992,
      "d": 67.70833333331393,
      "v": 87
    },
    {
      "midi": 60,
      "hit": false,
      "t": 283421.8749999992,
      "d": 117.1875,
      "v": 92
    },
    {
      "midi": 56,
      "hit": false,
      "t": 283445.3124999992,
      "d": 57.29166666662786,
      "v": 51
    },
    {
      "midi": 79,
      "hit": false,
      "t": 283674.4791666659,
      "d": 763.0208333332557,
      "v": 110
    },
    {
      "midi": 68,
      "hit": false,
      "t": 283687.4999999992,
      "d": 101.56249999994179,
      "v": 84
    },
    {
      "midi": 63,
      "hit": false,
      "t": 283695.3124999992,
      "d": 111.97916666662786,
      "v": 72
    },
    {
      "midi": 56,
      "hit": false,
      "t": 283708.3333333325,
      "d": 80.72916666662786,
      "v": 64
    },
    {
      "midi": 75,
      "hit": false,
      "t": 283716.1458333325,
      "d": 59.89583333331393,
      "v": 46
    },
    {
      "midi": 72,
      "hit": false,
      "t": 283739.5833333325,
      "d": 49.47916666662786,
      "v": 16
    },
    {
      "midi": 68,
      "hit": false,
      "t": 283950.5208333325,
      "d": 125.00000000005821,
      "v": 72
    },
    {
      "midi": 72,
      "hit": false,
      "t": 283963.5416666658,
      "d": 93.75000000005821,
      "v": 73
    },
    {
      "midi": 75,
      "hit": false,
      "t": 283966.1458333325,
      "d": 125.00000000005821,
      "v": 69
    },
    {
      "midi": 56,
      "hit": false,
      "t": 283973.9583333325,
      "d": 67.70833333337214,
      "v": 66
    },
    {
      "midi": 60,
      "hit": false,
      "t": 283973.9583333325,
      "d": 83.33333333337214,
      "v": 64
    },
    {
      "midi": 53,
      "hit": false,
      "t": 283999.9999999992,
      "d": 403.64583333331393,
      "v": 69
    },
    {
      "midi": 68,
      "hit": false,
      "t": 284249.9999999992,
      "d": 197.91666666662786,
      "v": 70
    },
    {
      "midi": 62,
      "hit": false,
      "t": 284255.2083333325,
      "d": 98.95833333331393,
      "v": 81
    },
    {
      "midi": 56,
      "hit": false,
      "t": 284255.2083333325,
      "d": 169.27083333331393,
      "v": 77
    },
    {
      "midi": 70,
      "hit": false,
      "t": 284255.2083333325,
      "d": 229.16666666668607,
      "v": 79
    },
    {
      "midi": 74,
      "hit": false,
      "t": 284257.8124999992,
      "d": 208.33333333331393,
      "v": 75
    },
    {
      "midi": 58,
      "hit": false,
      "t": 284278.6458333325,
      "d": 132.8125,
      "v": 81
    },
    {
      "midi": 77,
      "hit": false,
      "t": 284614.5833333325,
      "d": 739.5833333333721,
      "v": 103
    },
    {
      "midi": 68,
      "hit": false,
      "t": 284619.7916666658,
      "d": 125,
      "v": 83
    },
    {
      "midi": 70,
      "hit": false,
      "t": 284635.4166666658,
      "d": 59.89583333337214,
      "v": 69
    },
    {
      "midi": 34,
      "hit": false,
      "t": 284635.4166666658,
      "d": 132.8125,
      "v": 86
    },
    {
      "midi": 74,
      "hit": false,
      "t": 284645.8333333325,
      "d": 54.6875,
      "v": 81
    },
    {
      "midi": 46,
      "hit": false,
      "t": 284648.4374999992,
      "d": 96.35416666662786,
      "v": 69
    },
    {
      "midi": 67,
      "hit": false,
      "t": 284968.7499999991,
      "d": 182.29166666668607,
      "v": 80
    },
    {
      "midi": 70,
      "hit": false,
      "t": 284971.3541666658,
      "d": 153.64583333331393,
      "v": 74
    },
    {
      "midi": 51,
      "hit": false,
      "t": 284986.9791666658,
      "d": 190.10416666668607,
      "v": 81
    },
    {
      "midi": 74,
      "hit": false,
      "t": 284986.9791666658,
      "d": 348.95833333337214,
      "v": 74
    },
    {
      "midi": 39,
      "hit": false,
      "t": 285002.6041666658,
      "d": 151.04166666668607,
      "v": 67
    },
    {
      "midi": 75,
      "hit": false,
      "t": 285255.2083333325,
      "d": 234.3750000000582,
      "v": 90
    },
    {
      "midi": 70,
      "hit": false,
      "t": 285257.8124999992,
      "d": 93.75,
      "v": 86
    },
    {
      "midi": 67,
      "hit": false,
      "t": 285257.8124999992,
      "d": 98.95833333337214,
      "v": 66
    },
    {
      "midi": 51,
      "hit": false,
      "t": 285380.20833333256,
      "d": 208.33333333337214,
      "v": 59
    },
    {
      "midi": 58,
      "hit": false,
      "t": 285395.83333333256,
      "d": 106.77083333331393,
      "v": 55
    },
    {
      "midi": 77,
      "hit": false,
      "t": 285552.08333333256,
      "d": 197.91666666668607,
      "v": 109
    },
    {
      "midi": 67,
      "hit": false,
      "t": 285585.93749999924,
      "d": 72.91666666668607,
      "v": 70
    },
    {
      "midi": 70,
      "hit": false,
      "t": 285593.74999999924,
      "d": 65.10416666668607,
      "v": 53
    },
    {
      "midi": 62,
      "hit": false,
      "t": 285687.49999999924,
      "d": 62.5,
      "v": 66
    },
    {
      "midi": 55,
      "hit": false,
      "t": 285713.54166666593,
      "d": 88.54166666668607,
      "v": 49
    },
    {
      "midi": 75,
      "hit": false,
      "t": 285799.47916666593,
      "d": 164.0625000000582,
      "v": 100
    },
    {
      "midi": 67,
      "hit": false,
      "t": 285820.3124999993,
      "d": 59.89583333337214,
      "v": 76
    },
    {
      "midi": 70,
      "hit": false,
      "t": 285822.916666666,
      "d": 65.10416666668607,
      "v": 67
    },
    {
      "midi": 58,
      "hit": false,
      "t": 285976.5624999993,
      "d": 70.3125,
      "v": 76
    },
    {
      "midi": 51,
      "hit": false,
      "t": 285989.5833333326,
      "d": 98.95833333331393,
      "v": 52
    },
    {
      "midi": 74,
      "hit": false,
      "t": 286036.4583333326,
      "d": 192.70833333337214,
      "v": 106
    },
    {
      "midi": 67,
      "hit": false,
      "t": 286052.0833333326,
      "d": 72.91666666668607,
      "v": 76
    },
    {
      "midi": 70,
      "hit": false,
      "t": 286057.29166666593,
      "d": 57.29166666668607,
      "v": 69
    },
    {
      "midi": 75,
      "hit": false,
      "t": 286263.0208333327,
      "d": 190.10416666668607,
      "v": 95
    },
    {
      "midi": 62,
      "hit": false,
      "t": 286278.6458333327,
      "d": 46.875,
      "v": 59
    },
    {
      "midi": 70,
      "hit": false,
      "t": 286281.24999999936,
      "d": 62.5,
      "v": 63
    },
    {
      "midi": 67,
      "hit": false,
      "t": 286286.4583333327,
      "d": 54.6875,
      "v": 69
    },
    {
      "midi": 55,
      "hit": false,
      "t": 286299.479166666,
      "d": 49.47916666668607,
      "v": 51
    },
    {
      "midi": 77,
      "hit": false,
      "t": 286463.54166666605,
      "d": 98.95833333331393,
      "v": 105
    },
    {
      "midi": 67,
      "hit": false,
      "t": 286494.79166666605,
      "d": 54.6875,
      "v": 65
    },
    {
      "midi": 70,
      "hit": false,
      "t": 286499.99999999936,
      "d": 70.3125,
      "v": 47
    },
    {
      "midi": 51,
      "hit": false,
      "t": 286598.9583333327,
      "d": 46.875,
      "v": 72
    },
    {
      "midi": 39,
      "hit": false,
      "t": 286609.37499999936,
      "d": 46.875,
      "v": 66
    },
    {
      "midi": 79,
      "hit": false,
      "t": 286656.24999999936,
      "d": 41.66666666668607,
      "v": 108
    },
    {
      "midi": 67,
      "hit": false,
      "t": 286690.10416666605,
      "d": 67.70833333331393,
      "v": 43
    },
    {
      "midi": 70,
      "hit": false,
      "t": 286695.31249999936,
      "d": 335.9374999999418,
      "v": 27
    },
    {
      "midi": 79,
      "hit": false,
      "t": 286794.2708333327,
      "d": 205.72916666662786,
      "v": 102
    },
    {
      "midi": 67,
      "hit": false,
      "t": 286830.729166666,
      "d": 343.7499999998836,
      "v": 84
    },
    {
      "midi": 32,
      "hit": false,
      "t": 286921.8749999993,
      "d": 197.91666666662786,
      "v": 86
    },
    {
      "midi": 44,
      "hit": false,
      "t": 286999.9999999993,
      "d": 161.45833333325572,
      "v": 79
    },
    {
      "midi": 72,
      "hit": false,
      "t": 287036.4583333326,
      "d": 690.1041666665114,
      "v": 108
    },
    {
      "midi": 68,
      "hit": false,
      "t": 287322.9166666659,
      "d": 125,
      "v": 80
    },
    {
      "midi": 56,
      "hit": false,
      "t": 287330.7291666659,
      "d": 101.5625,
      "v": 77
    },
    {
      "midi": 48,
      "hit": false,
      "t": 287343.7499999992,
      "d": 132.8125,
      "v": 73
    },
    {
      "midi": 67,
      "hit": false,
      "t": 287346.3541666659,
      "d": 98.95833333331393,
      "v": 78
    },
    {
      "midi": 68,
      "hit": false,
      "t": 287575.5208333325,
      "d": 135.41666666662786,
      "v": 63
    },
    {
      "midi": 60,
      "hit": false,
      "t": 287578.1249999992,
      "d": 111.97916666662786,
      "v": 74
    },
    {
      "midi": 67,
      "hit": false,
      "t": 287578.1249999992,
      "d": 127.60416666662786,
      "v": 68
    },
    {
      "midi": 51,
      "hit": false,
      "t": 287583.3333333325,
      "d": 216.14583333331393,
      "v": 68
    },
    {
      "midi": 72,
      "hit": false,
      "t": 287820.3124999991,
      "d": 343.75,
      "v": 103
    },
    {
      "midi": 56,
      "hit": false,
      "t": 287830.7291666658,
      "d": 200.52083333331393,
      "v": 71
    },
    {
      "midi": 48,
      "hit": false,
      "t": 287841.1458333325,
      "d": 143.22916666662786,
      "v": 53
    },
    {
      "midi": 67,
      "hit": false,
      "t": 287861.9791666658,
      "d": 88.54166666662786,
      "v": 87
    },
    {
      "midi": 68,
      "hit": false,
      "t": 287869.7916666658,
      "d": 67.70833333331393,
      "v": 45
    },
    {
      "midi": 68,
      "hit": false,
      "t": 288111.9791666658,
      "d": 75.52083333337214,
      "v": 73
    },
    {
      "midi": 67,
      "hit": false,
      "t": 288119.7916666658,
      "d": 54.6875,
      "v": 76
    },
    {
      "midi": 60,
      "hit": false,
      "t": 288135.4166666658,
      "d": 41.66666666668607,
      "v": 75
    },
    {
      "midi": 51,
      "hit": false,
      "t": 288143.2291666658,
      "d": 101.56250000005821,
      "v": 69
    },
    {
      "midi": 72,
      "hit": false,
      "t": 288255.20833333256,
      "d": 390.625,
      "v": 105
    },
    {
      "midi": 32,
      "hit": false,
      "t": 288388.02083333256,
      "d": 44.27083333331393,
      "v": 95
    },
    {
      "midi": 44,
      "hit": false,
      "t": 288401.0416666659,
      "d": 41.66666666662786,
      "v": 79
    },
    {
      "midi": 68,
      "hit": false,
      "t": 288432.2916666659,
      "d": 187.5,
      "v": 83
    },
    {
      "midi": 67,
      "hit": false,
      "t": 288437.4999999992,
      "d": 164.0625,
      "v": 81
    },
    {
      "midi": 72,
      "hit": false,
      "t": 288708.33333333256,
      "d": 619.7916666666279,
      "v": 116
    },
    {
      "midi": 38,
      "hit": false,
      "t": 288739.58333333256,
      "d": 164.0625000000582,
      "v": 105
    },
    {
      "midi": 68,
      "hit": false,
      "t": 288744.7916666659,
      "d": 83.33333333337214,
      "v": 50
    },
    {
      "midi": 65,
      "hit": false,
      "t": 288744.7916666659,
      "d": 117.18750000005821,
      "v": 83
    },
    {
      "midi": 50,
      "hit": false,
      "t": 288763.02083333256,
      "d": 169.27083333337214,
      "v": 77
    },
    {
      "midi": 68,
      "hit": false,
      "t": 289031.24999999924,
      "d": 114.58333333331393,
      "v": 70
    },
    {
      "midi": 50,
      "hit": false,
      "t": 289036.45833333256,
      "d": 218.75,
      "v": 66
    },
    {
      "midi": 65,
      "hit": false,
      "t": 289041.6666666659,
      "d": 72.91666666668607,
      "v": 72
    },
    {
      "midi": 56,
      "hit": false,
      "t": 289052.08333333256,
      "d": 130.20833333331393,
      "v": 67
    },
    {
      "midi": 68,
      "hit": false,
      "t": 289302.08333333256,
      "d": 62.49999999994179,
      "v": 79
    },
    {
      "midi": 60,
      "hit": false,
      "t": 289315.1041666659,
      "d": 161.45833333325572,
      "v": 67
    },
    {
      "midi": 53,
      "hit": false,
      "t": 289317.70833333256,
      "d": 268.22916666656965,
      "v": 69
    },
    {
      "midi": 65,
      "hit": false,
      "t": 289322.9166666659,
      "d": 62.49999999994179,
      "v": 63
    },
    {
      "midi": 77,
      "hit": false,
      "t": 289570.3124999991,
      "d": 356.77083333331393,
      "v": 117
    },
    {
      "midi": 50,
      "hit": false,
      "t": 289578.1249999991,
      "d": 151.04166666662786,
      "v": 83
    },
    {
      "midi": 56,
      "hit": false,
      "t": 289583.33333333244,
      "d": 247.39583333331393,
      "v": 79
    },
    {
      "midi": 68,
      "hit": false,
      "t": 289585.9374999991,
      "d": 49.47916666662786,
      "v": 63
    },
    {
      "midi": 72,
      "hit": false,
      "t": 289593.7499999991,
      "d": 49.47916666662786,
      "v": 81
    },
    {
      "midi": 65,
      "hit": false,
      "t": 289598.95833333244,
      "d": 83.33333333331393,
      "v": 89
    },
    {
      "midi": 65,
      "hit": false,
      "t": 289942.70833333244,
      "d": 106.77083333331393,
      "v": 77
    },
    {
      "midi": 60,
      "hit": false,
      "t": 289953.1249999991,
      "d": 41.66666666662786,
      "v": 76
    },
    {
      "midi": 72,
      "hit": false,
      "t": 289953.1249999991,
      "d": 49.47916666662786,
      "v": 67
    },
    {
      "midi": 68,
      "hit": false,
      "t": 289958.33333333244,
      "d": 59.89583333331393,
      "v": 48
    },
    {
      "midi": 53,
      "hit": false,
      "t": 289966.14583333244,
      "d": 72.91666666662786,
      "v": 73
    },
    {
      "midi": 75,
      "hit": false,
      "t": 290096.35416666575,
      "d": 393.22916666668607,
      "v": 108
    },
    {
      "midi": 65,
      "hit": false,
      "t": 290109.37499999907,
      "d": 54.6875,
      "v": 72
    },
    {
      "midi": 68,
      "hit": false,
      "t": 290124.99999999907,
      "d": 62.5,
      "v": 38
    },
    {
      "midi": 38,
      "hit": false,
      "t": 290257.81249999907,
      "d": 197.91666666668607,
      "v": 95
    },
    {
      "midi": 50,
      "hit": false,
      "t": 290260.41666666575,
      "d": 119.79166666662786,
      "v": 92
    },
    {
      "midi": 68,
      "hit": false,
      "t": 290291.66666666575,
      "d": 153.64583333331393,
      "v": 61
    },
    {
      "midi": 72,
      "hit": false,
      "t": 290296.87499999907,
      "d": 145.83333333331393,
      "v": 94
    },
    {
      "midi": 65,
      "hit": false,
      "t": 290320.31249999907,
      "d": 65.10416666662786,
      "v": 61
    },
    {
      "midi": 75,
      "hit": false,
      "t": 290619.79166666575,
      "d": 1481.770833333605,
      "v": 109
    },
    {
      "midi": 68,
      "hit": false,
      "t": 290630.20833333244,
      "d": 203.1250000000582,
      "v": 69
    },
    {
      "midi": 31,
      "hit": false,
      "t": 290632.8124999991,
      "d": 145.83333333337214,
      "v": 113
    },
    {
      "midi": 43,
      "hit": false,
      "t": 290632.8124999991,
      "d": 182.29166666668607,
      "v": 107
    },
    {
      "midi": 65,
      "hit": false,
      "t": 290632.8124999991,
      "d": 184.89583333337214,
      "v": 85
    },
    {
      "midi": 72,
      "hit": false,
      "t": 290640.6249999991,
      "d": 135.41666666668607,
      "v": 78
    },
    {
      "midi": 65,
      "hit": false,
      "t": 290986.9791666658,
      "d": 111.97916666668607,
      "v": 78
    },
    {
      "midi": 68,
      "hit": false,
      "t": 290989.5833333325,
      "d": 85.9375,
      "v": 67
    },
    {
      "midi": 56,
      "hit": false,
      "t": 290989.5833333325,
      "d": 119.79166666668607,
      "v": 88
    },
    {
      "midi": 72,
      "hit": false,
      "t": 290989.5833333325,
      "d": 151.04166666668607,
      "v": 85
    },
    {
      "midi": 54,
      "hit": false,
      "t": 291005.2083333325,
      "d": 72.91666666668607,
      "v": 31
    },
    {
      "midi": 50,
      "hit": false,
      "t": 291028.6458333325,
      "d": 273.4375,
      "v": 57
    },
    {
      "midi": 72,
      "hit": false,
      "t": 291315.1041666658,
      "d": 127.60416666662786,
      "v": 86
    },
    {
      "midi": 65,
      "hit": false,
      "t": 291320.3124999991,
      "d": 70.3125,
      "v": 85
    },
    {
      "midi": 68,
      "hit": false,
      "t": 291320.3124999991,
      "d": 75.52083333331393,
      "v": 72
    },
    {
      "midi": 60,
      "hit": false,
      "t": 291320.3124999991,
      "d": 122.39583333331393,
      "v": 79
    },
    {
      "midi": 56,
      "hit": false,
      "t": 291325.52083333244,
      "d": 151.04166666668607,
      "v": 73
    },
    {
      "midi": 53,
      "hit": false,
      "t": 291328.1249999991,
      "d": 151.04166666668607,
      "v": 74
    },
    {
      "midi": 55,
      "hit": false,
      "t": 291606.7708333325,
      "d": 195.3125000000582,
      "v": 89
    },
    {
      "midi": 71,
      "hit": false,
      "t": 291609.3749999992,
      "d": 221.35416666674428,
      "v": 72
    },
    {
      "midi": 65,
      "hit": false,
      "t": 291611.9791666659,
      "d": 200.52083333337214,
      "v": 83
    },
    {
      "midi": 67,
      "hit": false,
      "t": 291614.58333333256,
      "d": 205.72916666668607,
      "v": 81
    },
    {
      "midi": 50,
      "hit": false,
      "t": 291614.58333333256,
      "d": 333.33333333337214,
      "v": 83
    },
    {
      "midi": 71,
      "hit": false,
      "t": 292013.0208333326,
      "d": 161.45833333337214,
      "v": 65
    },
    {
      "midi": 59,
      "hit": false,
      "t": 292015.6249999993,
      "d": 36.45833333337214,
      "v": 68
    },
    {
      "midi": 67,
      "hit": false,
      "t": 292018.229166666,
      "d": 119.79166666668607,
      "v": 73
    },
    {
      "midi": 65,
      "hit": false,
      "t": 292023.4374999993,
      "d": 75.52083333337214,
      "v": 78
    },
    {
      "midi": 55,
      "hit": false,
      "t": 292026.041666666,
      "d": 39.0625,
      "v": 76
    },
    {
      "midi": 74,
      "hit": false,
      "t": 292320.3124999993,
      "d": 880.2083333331975,
      "v": 101
    },
    {
      "midi": 65,
      "hit": false,
      "t": 292341.1458333326,
      "d": 54.68749999994179,
      "v": 76
    },
    {
      "midi": 67,
      "hit": false,
      "t": 292354.16666666593,
      "d": 52.08333333331393,
      "v": 64
    },
    {
      "midi": 43,
      "hit": false,
      "t": 292364.5833333326,
      "d": 130.20833333325572,
      "v": 59
    },
    {
      "midi": 31,
      "hit": false,
      "t": 292369.79166666593,
      "d": 119.79166666662786,
      "v": 66
    },
    {
      "midi": 71,
      "hit": false,
      "t": 292374.99999999924,
      "d": 312.4999999999418,
      "v": 28
    },
    {
      "midi": 63,
      "hit": false,
      "t": 292692.7083333325,
      "d": 273.4374999999418,
      "v": 62
    },
    {
      "midi": 68,
      "hit": false,
      "t": 292695.3124999992,
      "d": 190.10416666662786,
      "v": 76
    },
    {
      "midi": 32,
      "hit": false,
      "t": 292708.3333333325,
      "d": 190.10416666662786,
      "v": 73
    },
    {
      "midi": 44,
      "hit": false,
      "t": 292708.3333333325,
      "d": 229.16666666662786,
      "v": 70
    },
    {
      "midi": 72,
      "hit": false,
      "t": 293130.20833333244,
      "d": 325.52083333337214,
      "v": 99
    },
    {
      "midi": 68,
      "hit": false,
      "t": 293140.6249999991,
      "d": 75.52083333337214,
      "v": 60
    },
    {
      "midi": 63,
      "hit": false,
      "t": 293143.2291666658,
      "d": 80.72916666668607,
      "v": 44
    },
    {
      "midi": 56,
      "hit": false,
      "t": 293315.1041666658,
      "d": 151.04166666668607,
      "v": 67
    },
    {
      "midi": 48,
      "hit": false,
      "t": 293333.3333333325,
      "d": 59.89583333331393,
      "v": 63
    },
    {
      "midi": 74,
      "hit": false,
      "t": 293471.3541666658,
      "d": 229.16666666668607,
      "v": 101
    },
    {
      "midi": 63,
      "hit": false,
      "t": 293479.1666666658,
      "d": 67.70833333331393,
      "v": 69
    },
    {
      "midi": 68,
      "hit": false,
      "t": 293499.9999999991,
      "d": 57.29166666668607,
      "v": 53
    },
    {
      "midi": 60,
      "hit": false,
      "t": 293658.8541666658,
      "d": 78.12500000005821,
      "v": 59
    },
    {
      "midi": 51,
      "hit": false,
      "t": 293666.6666666658,
      "d": 85.93750000005821,
      "v": 54
    },
    {
      "midi": 72,
      "hit": false,
      "t": 293710.9374999992,
      "d": 197.91666666668607,
      "v": 106
    },
    {
      "midi": 63,
      "hit": false,
      "t": 293726.5624999992,
      "d": 62.5,
      "v": 55
    },
    {
      "midi": 68,
      "hit": false,
      "t": 293734.3749999992,
      "d": 57.29166666668607,
      "v": 50
    },
    {
      "midi": 56,
      "hit": false,
      "t": 293924.4791666659,
      "d": 190.10416666680248,
      "v": 72
    },
    {
      "midi": 48,
      "hit": false,
      "t": 293942.70833333256,
      "d": 57.29166666674428,
      "v": 58
    },
    {
      "midi": 63,
      "hit": false,
      "t": 293953.12499999924,
      "d": 54.68750000005821,
      "v": 77
    },
    {
      "midi": 71,
      "hit": false,
      "t": 293955.72916666593,
      "d": 276.0416666667443,
      "v": 86
    },
    {
      "midi": 68,
      "hit": false,
      "t": 293966.1458333326,
      "d": 52.08333333337214,
      "v": 60
    },
    {
      "midi": 63,
      "hit": false,
      "t": 294169.2708333327,
      "d": 83.33333333331393,
      "v": 83
    },
    {
      "midi": 72,
      "hit": false,
      "t": 294171.87499999936,
      "d": 187.4999999999418,
      "v": 104
    },
    {
      "midi": 68,
      "hit": false,
      "t": 294187.49999999936,
      "d": 52.08333333331393,
      "v": 59
    },
    {
      "midi": 60,
      "hit": false,
      "t": 294263.0208333327,
      "d": 44.27083333331393,
      "v": 73
    },
    {
      "midi": 51,
      "hit": false,
      "t": 294278.6458333327,
      "d": 96.35416666662786,
      "v": 75
    },
    {
      "midi": 74,
      "hit": false,
      "t": 294388.0208333326,
      "d": 122.39583333337214,
      "v": 110
    },
    {
      "midi": 63,
      "hit": false,
      "t": 294406.2499999993,
      "d": 52.08333333337214,
      "v": 65
    },
    {
      "midi": 68,
      "hit": false,
      "t": 294455.729166666,
      "d": 49.47916666668607,
      "v": 14
    },
    {
      "midi": 44,
      "hit": false,
      "t": 294539.0624999993,
      "d": 148.4375,
      "v": 76
    },
    {
      "midi": 32,
      "hit": false,
      "t": 294541.666666666,
      "d": 177.08333333331393,
      "v": 78
    },
    {
      "midi": 75,
      "hit": false,
      "t": 294619.791666666,
      "d": 85.9375,
      "v": 103
    },
    {
      "midi": 68,
      "hit": false,
      "t": 294651.041666666,
      "d": 54.6875,
      "v": 51
    },
    {
      "midi": 63,
      "hit": false,
      "t": 294656.2499999993,
      "d": 80.72916666668607,
      "v": 46
    },
    {
      "midi": 67,
      "hit": false,
      "t": 294976.5624999993,
      "d": 372.39583333337214,
      "v": 113
    },
    {
      "midi": 60,
      "hit": false,
      "t": 294994.791666666,
      "d": 57.29166666662786,
      "v": 73
    },
    {
      "midi": 39,
      "hit": false,
      "t": 294994.791666666,
      "d": 148.4375,
      "v": 102
    },
    {
      "midi": 55,
      "hit": false,
      "t": 294994.791666666,
      "d": 171.875,
      "v": 85
    },
    {
      "midi": 27,
      "hit": false,
      "t": 294999.9999999993,
      "d": 125,
      "v": 103
    },
    {
      "midi": 55,
      "hit": false,
      "t": 295333.3333333327,
      "d": 46.875,
      "v": 78
    },
    {
      "midi": 60,
      "hit": false,
      "t": 295348.9583333327,
      "d": 57.29166666668607,
      "v": 58
    },
    {
      "midi": 51,
      "hit": false,
      "t": 295354.166666666,
      "d": 203.1250000000582,
      "v": 92
    },
    {
      "midi": 60,
      "hit": false,
      "t": 295591.14583333273,
      "d": 33.85416666662786,
      "v": 89
    },
    {
      "midi": 63,
      "hit": false,
      "t": 295619.79166666605,
      "d": 125,
      "v": 89
    },
    {
      "midi": 55,
      "hit": false,
      "t": 295630.2083333327,
      "d": 57.29166666668607,
      "v": 71
    },
    {
      "midi": 84,
      "hit": false,
      "t": 295882.81249999936,
      "d": 1164.0624999998836,
      "v": 121
    },
    {
      "midi": 72,
      "hit": false,
      "t": 295895.8333333327,
      "d": 83.33333333331393,
      "v": 111
    },
    {
      "midi": 51,
      "hit": false,
      "t": 295903.6458333327,
      "d": 44.27083333331393,
      "v": 78
    },
    {
      "midi": 60,
      "hit": false,
      "t": 295903.6458333327,
      "d": 52.08333333331393,
      "v": 79
    },
    {
      "midi": 67,
      "hit": false,
      "t": 296226.5624999993,
      "d": 33.85416666662786,
      "v": 93
    },
    {
      "midi": 79,
      "hit": false,
      "t": 296249.9999999993,
      "d": 104.16666666662786,
      "v": 81
    },
    {
      "midi": 72,
      "hit": false,
      "t": 296249.9999999993,
      "d": 109.37499999994179,
      "v": 81
    },
    {
      "midi": 55,
      "hit": false,
      "t": 296255.2083333326,
      "d": 59.89583333331393,
      "v": 59
    },
    {
      "midi": 60,
      "hit": false,
      "t": 296278.6458333326,
      "d": 52.08333333331393,
      "v": 53
    },
    {
      "midi": 72,
      "hit": false,
      "t": 296570.31249999924,
      "d": 140.625,
      "v": 95
    },
    {
      "midi": 39,
      "hit": false,
      "t": 296575.52083333256,
      "d": 125,
      "v": 94
    },
    {
      "midi": 79,
      "hit": false,
      "t": 296575.52083333256,
      "d": 208.33333333337214,
      "v": 88
    },
    {
      "midi": 27,
      "hit": false,
      "t": 296580.7291666659,
      "d": 33.85416666668607,
      "v": 97
    },
    {
      "midi": 72,
      "hit": false,
      "t": 296874.99999999924,
      "d": 161.45833333331393,
      "v": 105
    },
    {
      "midi": 74,
      "hit": false,
      "t": 296874.99999999924,
      "d": 164.0625,
      "v": 97
    },
    {
      "midi": 29,
      "hit": false,
      "t": 296880.20833333256,
      "d": 101.5625,
      "v": 110
    },
    {
      "midi": 41,
      "hit": false,
      "t": 296880.20833333256,
      "d": 138.02083333331393,
      "v": 106
    },
    {
      "midi": 74,
      "hit": false,
      "t": 297130.20833333256,
      "d": 67.70833333331393,
      "v": 68
    },
    {
      "midi": 83,
      "hit": false,
      "t": 297130.20833333256,
      "d": 307.2916666667443,
      "v": 102
    },
    {
      "midi": 72,
      "hit": false,
      "t": 297132.81249999924,
      "d": 44.27083333331393,
      "v": 68
    },
    {
      "midi": 62,
      "hit": false,
      "t": 297216.14583333256,
      "d": 140.625,
      "v": 80
    },
    {
      "midi": 53,
      "hit": false,
      "t": 297231.77083333256,
      "d": 114.58333333331393,
      "v": 65
    },
    {
      "midi": 82,
      "hit": false,
      "t": 297374.99999999924,
      "d": 190.10416666674428,
      "v": 115
    },
    {
      "midi": 74,
      "hit": false,
      "t": 297401.04166666593,
      "d": 49.47916666674428,
      "v": 69
    },
    {
      "midi": 72,
      "hit": false,
      "t": 297403.6458333326,
      "d": 44.27083333337214,
      "v": 87
    },
    {
      "midi": 65,
      "hit": false,
      "t": 297502.604166666,
      "d": 111.97916666668607,
      "v": 89
    },
    {
      "midi": 60,
      "hit": false,
      "t": 297536.4583333327,
      "d": 62.5,
      "v": 59
    },
    {
      "midi": 81,
      "hit": false,
      "t": 297611.979166666,
      "d": 236.97916666674428,
      "v": 112
    },
    {
      "midi": 72,
      "hit": false,
      "t": 297638.0208333327,
      "d": 75.52083333337214,
      "v": 65
    },
    {
      "midi": 74,
      "hit": false,
      "t": 297640.62499999936,
      "d": 65.10416666668607,
      "v": 68
    },
    {
      "midi": 60,
      "hit": false,
      "t": 297796.87499999936,
      "d": 151.04166666674428,
      "v": 62
    },
    {
      "midi": 62,
      "hit": false,
      "t": 297799.47916666605,
      "d": 156.2500000000582,
      "v": 75
    },
    {
      "midi": 53,
      "hit": false,
      "t": 297802.08333333273,
      "d": 72.91666666668607,
      "v": 74
    },
    {
      "midi": 80,
      "hit": false,
      "t": 297885.4166666661,
      "d": 138.02083333337214,
      "v": 101
    },
    {
      "midi": 72,
      "hit": false,
      "t": 297895.8333333328,
      "d": 62.5,
      "v": 76
    },
    {
      "midi": 74,
      "hit": false,
      "t": 297927.0833333328,
      "d": 62.5,
      "v": 47
    },
    {
      "midi": 77,
      "hit": false,
      "t": 298153.6458333328,
      "d": 96.35416666668607,
      "v": 103
    },
    {
      "midi": 72,
      "hit": false,
      "t": 298177.0833333328,
      "d": 41.66666666668607,
      "v": 76
    },
    {
      "midi": 68,
      "hit": false,
      "t": 298226.5624999995,
      "d": 46.875,
      "v": 58
    },
    {
      "midi": 60,
      "hit": false,
      "t": 298289.0624999995,
      "d": 65.10416666668607,
      "v": 30
    },
    {
      "midi": 62,
      "hit": false,
      "t": 298296.8749999995,
      "d": 62.5,
      "v": 27
    },
    {
      "midi": 72,
      "hit": false,
      "t": 298380.2083333328,
      "d": 156.25,
      "v": 106
    },
    {
      "midi": 65,
      "hit": false,
      "t": 298393.2291666661,
      "d": 49.47916666668607,
      "v": 91
    },
    {
      "midi": 68,
      "hit": false,
      "t": 298403.6458333328,
      "d": 67.70833333331393,
      "v": 68
    },
    {
      "midi": 41,
      "hit": false,
      "t": 298567.7083333328,
      "d": 80.72916666668607,
      "v": 71
    },
    {
      "midi": 29,
      "hit": false,
      "t": 298570.3124999995,
      "d": 91.14583333331393,
      "v": 79
    },
    {
      "midi": 74,
      "hit": false,
      "t": 298596.35416666616,
      "d": 166.66666666662786,
      "v": 105
    },
    {
      "midi": 65,
      "hit": false,
      "t": 298601.5624999995,
      "d": 75.52083333331393,
      "v": 87
    },
    {
      "midi": 68,
      "hit": false,
      "t": 298614.5833333328,
      "d": 49.47916666668607,
      "v": 76
    },
    {
      "midi": 76,
      "hit": false,
      "t": 298828.1249999995,
      "d": 166.66666666662786,
      "v": 111
    },
    {
      "midi": 72,
      "hit": false,
      "t": 298833.3333333328,
      "d": 109.375,
      "v": 72
    },
    {
      "midi": 31,
      "hit": false,
      "t": 298835.9374999995,
      "d": 41.66666666662786,
      "v": 102
    },
    {
      "midi": 43,
      "hit": false,
      "t": 298838.54166666616,
      "d": 101.56249999994179,
      "v": 98
    },
    {
      "midi": 64,
      "hit": false,
      "t": 298843.7499999995,
      "d": 117.1875,
      "v": 93
    },
    {
      "midi": 70,
      "hit": false,
      "t": 298856.7708333328,
      "d": 67.70833333331393,
      "v": 66
    },
    {
      "midi": 77,
      "hit": false,
      "t": 299083.3333333328,
      "d": 88.54166666668607,
      "v": 110
    },
    {
      "midi": 65,
      "hit": false,
      "t": 299093.7499999995,
      "d": 88.54166666668607,
      "v": 91
    },
    {
      "midi": 70,
      "hit": false,
      "t": 299098.9583333328,
      "d": 67.70833333337214,
      "v": 75
    },
    {
      "midi": 72,
      "hit": false,
      "t": 299101.5624999995,
      "d": 127.60416666674428,
      "v": 87
    },
    {
      "midi": 60,
      "hit": false,
      "t": 299192.70833333285,
      "d": 109.375,
      "v": 71
    },
    {
      "midi": 58,
      "hit": false,
      "t": 299203.12499999953,
      "d": 54.6875,
      "v": 74
    },
    {
      "midi": 55,
      "hit": false,
      "t": 299221.3541666662,
      "d": 57.29166666662786,
      "v": 67
    },
    {
      "midi": 72,
      "hit": false,
      "t": 299302.08333333285,
      "d": 145.83333333337214,
      "v": 97
    },
    {
      "midi": 76,
      "hit": false,
      "t": 299315.10416666616,
      "d": 96.35416666668607,
      "v": 105
    },
    {
      "midi": 64,
      "hit": false,
      "t": 299335.9374999995,
      "d": 44.27083333337214,
      "v": 83
    },
    {
      "midi": 70,
      "hit": false,
      "t": 299346.35416666616,
      "d": 67.70833333337214,
      "v": 57
    },
    {
      "midi": 67,
      "hit": false,
      "t": 299453.12499999953,
      "d": 46.875,
      "v": 81
    },
    {
      "midi": 58,
      "hit": false,
      "t": 299476.56249999953,
      "d": 75.52083333331393,
      "v": 65
    },
    {
      "midi": 60,
      "hit": false,
      "t": 299494.7916666662,
      "d": 72.91666666662786,
      "v": 24
    },
    {
      "midi": 72,
      "hit": false,
      "t": 299523.43749999953,
      "d": 143.22916666662786,
      "v": 74
    },
    {
      "midi": 74,
      "hit": false,
      "t": 299528.64583333285,
      "d": 98.95833333331393,
      "v": 102
    },
    {
      "midi": 62,
      "hit": false,
      "t": 299533.85416666616,
      "d": 62.5,
      "v": 96
    },
    {
      "midi": 70,
      "hit": false,
      "t": 299541.66666666616,
      "d": 67.70833333331393,
      "v": 62
    },
    {
      "midi": 71,
      "hit": false,
      "t": 299567.70833333285,
      "d": 57.29166666662786,
      "v": 22
    },
    {
      "midi": 58,
      "hit": false,
      "t": 299723.95833333285,
      "d": 140.625,
      "v": 80
    },
    {
      "midi": 64,
      "hit": false,
      "t": 299736.97916666616,
      "d": 36.45833333331393,
      "v": 76
    },
    {
      "midi": 76,
      "hit": false,
      "t": 299736.97916666616,
      "d": 62.5,
      "v": 107
    },
    {
      "midi": 60,
      "hit": false,
      "t": 299739.58333333285,
      "d": 122.39583333331393,
      "v": 67
    },
    {
      "midi": 70,
      "hit": false,
      "t": 299744.79166666616,
      "d": 57.29166666668607,
      "v": 63
    },
    {
      "midi": 55,
      "hit": false,
      "t": 299749.9999999995,
      "d": 52.08333333337214,
      "v": 75
    },
    {
      "midi": 72,
      "hit": false,
      "t": 299927.08333333285,
      "d": 106.77083333337214,
      "v": 73
    },
    {
      "midi": 77,
      "hit": false,
      "t": 299942.70833333285,
      "d": 239.58333333343035,
      "v": 108
    },
    {
      "midi": 70,
      "hit": false,
      "t": 299945.31249999953,
      "d": 54.6875,
      "v": 99
    },
    {
      "midi": 67,
      "hit": false,
      "t": 300007.81249999953,
      "d": 41.66666666668607,
      "v": 82
    },
    {
      "midi": 60,
      "hit": false,
      "t": 300026.0416666662,
      "d": 54.6875,
      "v": 65
    },
    {
      "midi": 58,
      "hit": false,
      "t": 300039.06249999953,
      "d": 59.89583333337214,
      "v": 94
    },
    {
      "midi": 80,
      "hit": false,
      "t": 300135.4166666662,
      "d": 148.4375000000582,
      "v": 103
    },
    {
      "midi": 72,
      "hit": false,
      "t": 300138.0208333329,
      "d": 122.39583333337214,
      "v": 74
    },
    {
      "midi": 70,
      "hit": false,
      "t": 300140.6249999996,
      "d": 85.9375,
      "v": 94
    },
    {
      "midi": 31,
      "hit": false,
      "t": 300320.3124999996,
      "d": 93.75000000005821,
      "v": 94
    },
    {
      "midi": 43,
      "hit": false,
      "t": 300325.5208333329,
      "d": 111.97916666674428,
      "v": 69
    },
    {
      "midi": 79,
      "hit": false,
      "t": 300348.9583333329,
      "d": 145.83333333343035,
      "v": 106
    },
    {
      "midi": 72,
      "hit": false,
      "t": 300351.5624999996,
      "d": 59.89583333337214,
      "v": 81
    },
    {
      "midi": 70,
      "hit": false,
      "t": 300354.1666666663,
      "d": 62.50000000005821,
      "v": 94
    },
    {
      "midi": 32,
      "hit": false,
      "t": 300533.85416666634,
      "d": 119.79166666668607,
      "v": 100
    },
    {
      "midi": 44,
      "hit": false,
      "t": 300591.145833333,
      "d": 78.125,
      "v": 97
    },
    {
      "midi": 72,
      "hit": false,
      "t": 300598.958333333,
      "d": 179.6875,
      "v": 113
    },
    {
      "midi": 65,
      "hit": false,
      "t": 300606.770833333,
      "d": 65.10416666668607,
      "v": 102
    },
    {
      "midi": 76,
      "hit": false,
      "t": 300838.54166666634,
      "d": 161.45833333331393,
      "v": 110
    },
    {
      "midi": 72,
      "hit": false,
      "t": 300856.770833333,
      "d": 44.27083333331393,
      "v": 105
    },
    {
      "midi": 65,
      "hit": false,
      "t": 300856.770833333,
      "d": 98.95833333331393,
      "v": 89
    },
    {
      "midi": 53,
      "hit": false,
      "t": 300916.66666666634,
      "d": 125,
      "v": 83
    },
    {
      "midi": 60,
      "hit": false,
      "t": 300937.49999999965,
      "d": 72.91666666668607,
      "v": 76
    },
    {
      "midi": 77,
      "hit": false,
      "t": 301075.520833333,
      "d": 158.85416666668607,
      "v": 110
    },
    {
      "midi": 65,
      "hit": false,
      "t": 301078.1249999997,
      "d": 78.125,
      "v": 91
    },
    {
      "midi": 72,
      "hit": false,
      "t": 301080.7291666664,
      "d": 59.89583333331393,
      "v": 95
    },
    {
      "midi": 60,
      "hit": false,
      "t": 301218.7499999997,
      "d": 67.70833333331393,
      "v": 85
    },
    {
      "midi": 65,
      "hit": false,
      "t": 301231.770833333,
      "d": 143.22916666668607,
      "v": 96
    },
    {
      "midi": 79,
      "hit": false,
      "t": 301322.91666666634,
      "d": 122.39583333337214,
      "v": 111
    },
    {
      "midi": 72,
      "hit": false,
      "t": 301325.520833333,
      "d": 80.72916666668607,
      "v": 108
    },
    {
      "midi": 60,
      "hit": false,
      "t": 301588.5416666664,
      "d": 169.27083333331393,
      "v": 62
    },
    {
      "midi": 62,
      "hit": false,
      "t": 301593.7499999997,
      "d": 190.10416666668607,
      "v": 70
    },
    {
      "midi": 53,
      "hit": false,
      "t": 301619.7916666664,
      "d": 221.35416666668607,
      "v": 69
    },
    {
      "midi": 82,
      "hit": false,
      "t": 301643.2291666664,
      "d": 250,
      "v": 118
    },
    {
      "midi": 74,
      "hit": false,
      "t": 301669.2708333331,
      "d": 59.89583333331393,
      "v": 72
    },
    {
      "midi": 72,
      "hit": false,
      "t": 301677.0833333331,
      "d": 46.875,
      "v": 81
    },
    {
      "midi": 80,
      "hit": false,
      "t": 302002.6041666664,
      "d": 91.14583333337214,
      "v": 105
    },
    {
      "midi": 72,
      "hit": false,
      "t": 302013.0208333331,
      "d": 49.47916666668607,
      "v": 88
    },
    {
      "midi": 74,
      "hit": false,
      "t": 302015.62499999977,
      "d": 36.45833333331393,
      "v": 85
    },
    {
      "midi": 68,
      "hit": false,
      "t": 302130.2083333331,
      "d": 46.875,
      "v": 81
    },
    {
      "midi": 62,
      "hit": false,
      "t": 302164.06249999977,
      "d": 49.47916666662786,
      "v": 59
    },
    {
      "midi": 60,
      "hit": false,
      "t": 302169.2708333331,
      "d": 57.29166666662786,
      "v": 48
    },
    {
      "midi": 72,
      "hit": false,
      "t": 302281.2499999997,
      "d": 151.04166666668607,
      "v": 111
    },
    {
      "midi": 65,
      "hit": false,
      "t": 302294.270833333,
      "d": 65.10416666668607,
      "v": 98
    },
    {
      "midi": 44,
      "hit": false,
      "t": 302458.3333333331,
      "d": 260.41666666668607,
      "v": 79
    },
    {
      "midi": 32,
      "hit": false,
      "t": 302486.9791666664,
      "d": 257.8125000000582,
      "v": 60
    },
    {
      "midi": 74,
      "hit": false,
      "t": 302552.0833333331,
      "d": 169.27083333337214,
      "v": 109
    },
    {
      "midi": 72,
      "hit": false,
      "t": 302575.5208333331,
      "d": 78.125,
      "v": 74
    },
    {
      "midi": 65,
      "hit": false,
      "t": 302583.3333333331,
      "d": 46.875,
      "v": 78
    },
    {
      "midi": 75,
      "hit": false,
      "t": 302851.56249999977,
      "d": 1408.8541666668025,
      "v": 107
    },
    {
      "midi": 31,
      "hit": false,
      "t": 302864.58333333314,
      "d": 145.83333333331393,
      "v": 95
    },
    {
      "midi": 63,
      "hit": false,
      "t": 302864.58333333314,
      "d": 177.08333333331393,
      "v": 88
    },
    {
      "midi": 43,
      "hit": false,
      "t": 302869.79166666645,
      "d": 195.3125,
      "v": 88
    },
    {
      "midi": 67,
      "hit": false,
      "t": 302869.79166666645,
      "d": 229.16666666668607,
      "v": 78
    },
    {
      "midi": 72,
      "hit": false,
      "t": 302874.99999999977,
      "d": 205.72916666668607,
      "v": 85
    },
    {
      "midi": 63,
      "hit": false,
      "t": 303249.9999999998,
      "d": 145.83333333337214,
      "v": 63
    },
    {
      "midi": 48,
      "hit": false,
      "t": 303252.6041666665,
      "d": 346.35416666668607,
      "v": 75
    },
    {
      "midi": 55,
      "hit": false,
      "t": 303255.2083333332,
      "d": 169.27083333331393,
      "v": 69
    },
    {
      "midi": 72,
      "hit": false,
      "t": 303257.8124999999,
      "d": 182.29166666662786,
      "v": 78
    },
    {
      "midi": 67,
      "hit": false,
      "t": 303263.0208333332,
      "d": 187.5,
      "v": 56
    },
    {
      "midi": 63,
      "hit": false,
      "t": 303609.3749999999,
      "d": 119.79166666668607,
      "v": 65
    },
    {
      "midi": 60,
      "hit": false,
      "t": 303619.79166666657,
      "d": 145.83333333331393,
      "v": 71
    },
    {
      "midi": 55,
      "hit": false,
      "t": 303619.79166666657,
      "d": 174.47916666662786,
      "v": 59
    },
    {
      "midi": 67,
      "hit": false,
      "t": 303619.79166666657,
      "d": 174.47916666662786,
      "v": 65
    },
    {
      "midi": 72,
      "hit": false,
      "t": 303624.9999999999,
      "d": 169.27083333331393,
      "v": 75
    },
    {
      "midi": 67,
      "hit": false,
      "t": 303919.2708333332,
      "d": 143.22916666662786,
      "v": 58
    },
    {
      "midi": 63,
      "hit": false,
      "t": 303921.8749999999,
      "d": 67.70833333331393,
      "v": 70
    },
    {
      "midi": 72,
      "hit": false,
      "t": 303927.0833333332,
      "d": 161.45833333331393,
      "v": 59
    },
    {
      "midi": 55,
      "hit": false,
      "t": 303937.4999999999,
      "d": 111.97916666662786,
      "v": 67
    },
    {
      "midi": 48,
      "hit": false,
      "t": 303937.4999999999,
      "d": 153.64583333331393,
      "v": 68
    },
    {
      "midi": 72,
      "hit": false,
      "t": 304216.1458333332,
      "d": 83.33333333337214,
      "v": 54
    },
    {
      "midi": 60,
      "hit": false,
      "t": 304218.7499999999,
      "d": 78.125,
      "v": 72
    },
    {
      "midi": 63,
      "hit": false,
      "t": 304221.35416666657,
      "d": 67.70833333331393,
      "v": 52
    },
    {
      "midi": 67,
      "hit": false,
      "t": 304223.95833333326,
      "d": 91.14583333331393,
      "v": 53
    },
    {
      "midi": 55,
      "hit": false,
      "t": 304244.79166666657,
      "d": 62.5,
      "v": 59
    },
    {
      "midi": 72,
      "hit": false,
      "t": 304520.83333333326,
      "d": 111.97916666662786,
      "v": 105
    },
    {
      "midi": 63,
      "hit": false,
      "t": 304526.04166666657,
      "d": 46.875,
      "v": 72
    },
    {
      "midi": 67,
      "hit": false,
      "t": 304544.27083333326,
      "d": 49.47916666662786,
      "v": 67
    },
    {
      "midi": 55,
      "hit": false,
      "t": 304588.54166666657,
      "d": 75.52083333331393,
      "v": 79
    },
    {
      "midi": 48,
      "hit": false,
      "t": 304598.9583333332,
      "d": 93.75,
      "v": 56
    },
    {
      "midi": 74,
      "hit": false,
      "t": 304705.7291666665,
      "d": 101.56250000005821,
      "v": 105
    },
    {
      "midi": 63,
      "hit": false,
      "t": 304721.3541666665,
      "d": 44.27083333337214,
      "v": 76
    },
    {
      "midi": 67,
      "hit": false,
      "t": 304739.5833333332,
      "d": 72.91666666668607,
      "v": 34
    },
    {
      "midi": 72,
      "hit": false,
      "t": 304864.5833333332,
      "d": 98.95833333331393,
      "v": 108
    },
    {
      "midi": 63,
      "hit": false,
      "t": 304877.6041666665,
      "d": 96.35416666668607,
      "v": 66
    },
    {
      "midi": 67,
      "hit": false,
      "t": 304901.0416666665,
      "d": 44.27083333331393,
      "v": 74
    },
    {
      "midi": 31,
      "hit": false,
      "t": 304994.7916666665,
      "d": 221.35416666668607,
      "v": 92
    },
    {
      "midi": 43,
      "hit": false,
      "t": 305114.5833333332,
      "d": 182.29166666668607,
      "v": 84
    },
    {
      "midi": 69,
      "hit": false,
      "t": 305114.5833333332,
      "d": 213.54166666668607,
      "v": 94
    },
    {
      "midi": 67,
      "hit": false,
      "t": 305119.7916666665,
      "d": 1531.2500000001164,
      "v": 110
    },
    {
      "midi": 60,
      "hit": false,
      "t": 305124.9999999998,
      "d": 268.2291666667443,
      "v": 97
    },
    {
      "midi": 62,
      "hit": false,
      "t": 305135.4166666665,
      "d": 257.8125000000582,
      "v": 75
    },
    {
      "midi": 64,
      "hit": false,
      "t": 305151.0416666665,
      "d": 54.6875,
      "v": 44
    },
    {
      "midi": 62,
      "hit": false,
      "t": 305484.3749999999,
      "d": 161.45833333343035,
      "v": 64
    },
    {
      "midi": 60,
      "hit": false,
      "t": 305486.97916666657,
      "d": 156.2500000000582,
      "v": 64
    },
    {
      "midi": 43,
      "hit": false,
      "t": 305489.58333333326,
      "d": 322.9166666667443,
      "v": 59
    },
    {
      "midi": 50,
      "hit": false,
      "t": 305499.99999999994,
      "d": 119.79166666668607,
      "v": 71
    },
    {
      "midi": 60,
      "hit": false,
      "t": 305799.4791666666,
      "d": 161.45833333337214,
      "v": 85
    },
    {
      "midi": 62,
      "hit": false,
      "t": 305802.0833333333,
      "d": 166.66666666668607,
      "v": 75
    },
    {
      "midi": 50,
      "hit": false,
      "t": 305812.5,
      "d": 143.22916666668607,
      "v": 65
    },
    {
      "midi": 55,
      "hit": false,
      "t": 305812.5,
      "d": 148.4375,
      "v": 77
    },
    {
      "midi": 62,
      "hit": false,
      "t": 306106.7708333333,
      "d": 231.77083333331393,
      "v": 65
    },
    {
      "midi": 59,
      "hit": false,
      "t": 306106.7708333333,
      "d": 234.375,
      "v": 74
    },
    {
      "midi": 43,
      "hit": false,
      "t": 306114.5833333333,
      "d": 528.6458333333139,
      "v": 77
    },
    {
      "midi": 50,
      "hit": false,
      "t": 306119.7916666666,
      "d": 195.3125,
      "v": 81
    },
    {
      "midi": 62,
      "hit": false,
      "t": 306432.2916666666,
      "d": 177.08333333331393,
      "v": 67
    },
    {
      "midi": 59,
      "hit": false,
      "t": 306440.1041666666,
      "d": 190.10416666668607,
      "v": 56
    },
    {
      "midi": 50,
      "hit": false,
      "t": 306455.7291666666,
      "d": 171.875,
      "v": 50
    },
    {
      "midi": 55,
      "hit": false,
      "t": 306460.93749999994,
      "d": 164.0625,
      "v": 79
    },
    {
      "midi": 67,
      "hit": false,
      "t": 306822.9166666666,
      "d": 229.16666666674428,
      "v": 106
    },
    {
      "midi": 43,
      "hit": false,
      "t": 306841.1458333333,
      "d": 190.10416666674428,
      "v": 67
    },
    {
      "midi": 59,
      "hit": false,
      "t": 306843.75,
      "d": 67.70833333337214,
      "v": 73
    },
    {
      "midi": 62,
      "hit": false,
      "t": 306846.3541666667,
      "d": 57.29166666668607,
      "v": 78
    },
    {
      "midi": 50,
      "hit": false,
      "t": 306848.9583333334,
      "d": 140.625,
      "v": 85
    },
    {
      "midi": 68,
      "hit": false,
      "t": 307143.2291666667,
      "d": 174.47916666668607,
      "v": 106
    },
    {
      "midi": 62,
      "hit": false,
      "t": 307158.8541666667,
      "d": 65.10416666668607,
      "v": 85
    },
    {
      "midi": 59,
      "hit": false,
      "t": 307169.2708333334,
      "d": 49.47916666668607,
      "v": 68
    },
    {
      "midi": 67,
      "hit": false,
      "t": 307403.6458333334,
      "d": 83.33333333337214,
      "v": 111
    },
    {
      "midi": 62,
      "hit": false,
      "t": 307414.06250000006,
      "d": 39.0625,
      "v": 87
    },
    {
      "midi": 59,
      "hit": false,
      "t": 307421.87500000006,
      "d": 39.0625,
      "v": 78
    },
    {
      "midi": 31,
      "hit": false,
      "t": 307531.25000000006,
      "d": 36.45833333331393,
      "v": 97
    },
    {
      "midi": 43,
      "hit": false,
      "t": 307531.25000000006,
      "d": 41.66666666662786,
      "v": 98
    },
    {
      "midi": 60,
      "hit": false,
      "t": 307989.5833333334,
      "d": 3041.666666666686,
      "v": 115
    },
    {
      "midi": 51,
      "hit": false,
      "t": 308000.00000000006,
      "d": 393.22916666668607,
      "v": 100
    },
    {
      "midi": 42,
      "hit": false,
      "t": 308002.60416666674,
      "d": 333.33333333331393,
      "v": 103
    },
    {
      "midi": 30,
      "hit": false,
      "t": 308010.41666666674,
      "d": 296.875,
      "v": 98
    },
    {
      "midi": 56,
      "hit": false,
      "t": 308013.02083333343,
      "d": 419.27083333331393,
      "v": 77
    },
    {
      "midi": 51,
      "hit": false,
      "t": 308513.02083333343,
      "d": 192.70833333331393,
      "v": 78
    },
    {
      "midi": 42,
      "hit": false,
      "t": 308518.22916666674,
      "d": 200.52083333331393,
      "v": 83
    },
    {
      "midi": 56,
      "hit": false,
      "t": 308950.5208333334,
      "d": 140.625,
      "v": 81
    },
    {
      "midi": 51,
      "hit": false,
      "t": 308960.93750000006,
      "d": 85.9375,
      "v": 81
    },
    {
      "midi": 42,
      "hit": false,
      "t": 309302.0833333334,
      "d": 98.95833333337214,
      "v": 78
    },
    {
      "midi": 51,
      "hit": false,
      "t": 309312.50000000006,
      "d": 127.60416666668607,
      "v": 76
    },
    {
      "midi": 56,
      "hit": false,
      "t": 309625.00000000006,
      "d": 111.97916666668607,
      "v": 78
    },
    {
      "midi": 51,
      "hit": false,
      "t": 309640.62500000006,
      "d": 72.91666666668607,
      "v": 70
    },
    {
      "midi": 51,
      "hit": false,
      "t": 309919.27083333343,
      "d": 46.875,
      "v": 78
    },
    {
      "midi": 42,
      "hit": false,
      "t": 309924.47916666674,
      "d": 52.08333333337214,
      "v": 75
    },
    {
      "midi": 42,
      "hit": false,
      "t": 310140.6250000001,
      "d": 75.52083333331393,
      "v": 48
    },
    {
      "midi": 32,
      "hit": false,
      "t": 310151.0416666668,
      "d": 93.74999999994179,
      "v": 57
    },
    {
      "midi": 44,
      "hit": false,
      "t": 310156.2500000001,
      "d": 44.27083333331393,
      "v": 61
    },
    {
      "midi": 30,
      "hit": false,
      "t": 310171.8750000001,
      "d": 57.29166666662786,
      "v": 24
    },
    {
      "midi": 41,
      "hit": false,
      "t": 310398.43750000006,
      "d": 270.83333333331393,
      "v": 103
    },
    {
      "midi": 29,
      "hit": false,
      "t": 310406.25000000006,
      "d": 205.72916666662786,
      "v": 102
    },
    {
      "midi": 61,
      "hit": false,
      "t": 310927.0833333334,
      "d": 166.66666666668607,
      "v": 99
    },
    {
      "midi": 41,
      "hit": false,
      "t": 311109.37500000006,
      "d": 135.41666666668607,
      "v": 66
    },
    {
      "midi": 49,
      "hit": false,
      "t": 311111.97916666674,
      "d": 242.1875,
      "v": 65
    },
    {
      "midi": 65,
      "hit": false,
      "t": 311307.29166666674,
      "d": 369.79166666668607,
      "v": 110
    },
    {
      "midi": 56,
      "hit": false,
      "t": 311473.95833333343,
      "d": 132.8125,
      "v": 74
    },
    {
      "midi": 49,
      "hit": false,
      "t": 311476.5625000001,
      "d": 85.9375,
      "v": 53
    },
    {
      "midi": 68,
      "hit": false,
      "t": 311601.5625000001,
      "d": 239.58333333325572,
      "v": 108
    },
    {
      "midi": 41,
      "hit": false,
      "t": 311807.29166666674,
      "d": 62.5,
      "v": 65
    },
    {
      "midi": 49,
      "hit": false,
      "t": 311812.50000000006,
      "d": 158.85416666668607,
      "v": 73
    },
    {
      "midi": 73,
      "hit": false,
      "t": 311859.37500000006,
      "d": 140.625,
      "v": 108
    },
    {
      "midi": 76,
      "hit": false,
      "t": 312093.75000000006,
      "d": 213.54166666668607,
      "v": 110
    },
    {
      "midi": 56,
      "hit": false,
      "t": 312166.66666666674,
      "d": 125,
      "v": 62
    },
    {
      "midi": 49,
      "hit": false,
      "t": 312177.08333333343,
      "d": 52.08333333331393,
      "v": 64
    },
    {
      "midi": 77,
      "hit": false,
      "t": 312341.14583333343,
      "d": 203.125,
      "v": 112
    },
    {
      "midi": 49,
      "hit": false,
      "t": 312471.35416666674,
      "d": 39.0625,
      "v": 78
    },
    {
      "midi": 41,
      "hit": false,
      "t": 312479.16666666674,
      "d": 41.66666666668607,
      "v": 66
    },
    {
      "midi": 80,
      "hit": false,
      "t": 312591.14583333343,
      "d": 80.72916666668607,
      "v": 106
    },
    {
      "midi": 41,
      "hit": false,
      "t": 312768.2291666668,
      "d": 117.1875,
      "v": 92
    },
    {
      "midi": 29,
      "hit": false,
      "t": 312770.8333333335,
      "d": 67.70833333331393,
      "v": 92
    },
    {
      "midi": 31,
      "hit": false,
      "t": 312937.5000000001,
      "d": 294.27083333337214,
      "v": 99
    },
    {
      "midi": 43,
      "hit": false,
      "t": 313023.4375000001,
      "d": 276.04166666668607,
      "v": 87
    },
    {
      "midi": 59,
      "hit": false,
      "t": 313026.0416666668,
      "d": 2942.708333333372,
      "v": 103
    },
    {
      "midi": 50,
      "hit": false,
      "t": 313440.1041666668,
      "d": 151.04166666668607,
      "v": 77
    },
    {
      "midi": 43,
      "hit": false,
      "t": 313455.7291666668,
      "d": 200.52083333337214,
      "v": 65
    },
    {
      "midi": 53,
      "hit": false,
      "t": 313812.5000000002,
      "d": 78.125,
      "v": 70
    },
    {
      "midi": 50,
      "hit": false,
      "t": 313822.91666666686,
      "d": 83.33333333331393,
      "v": 40
    },
    {
      "midi": 56,
      "hit": false,
      "t": 314169.2708333335,
      "d": 132.8125,
      "v": 59
    },
    {
      "midi": 53,
      "hit": false,
      "t": 314182.2916666668,
      "d": 62.5,
      "v": 56
    },
    {
      "midi": 56,
      "hit": false,
      "t": 314484.3750000002,
      "d": 101.5625,
      "v": 51
    },
    {
      "midi": 53,
      "hit": false,
      "t": 314520.8333333335,
      "d": 70.3125,
      "v": 39
    },
    {
      "midi": 56,
      "hit": false,
      "t": 314820.3125000002,
      "d": 72.91666666668607,
      "v": 47
    },
    {
      "midi": 53,
      "hit": false,
      "t": 314851.5625000002,
      "d": 57.29166666668607,
      "v": 44
    },
    {
      "midi": 43,
      "hit": false,
      "t": 315260.41666666686,
      "d": 273.4375,
      "v": 67
    },
    {
      "midi": 31,
      "hit": false,
      "t": 315278.64583333355,
      "d": 190.10416666662786,
      "v": 59
    },
    {
      "midi": 68,
      "hit": false,
      "t": 315846.35416666686,
      "d": 528.6458333333139,
      "v": 93
    },
    {
      "midi": 43,
      "hit": false,
      "t": 316057.29166666686,
      "d": 898.4374999999418,
      "v": 39
    },
    {
      "midi": 50,
      "hit": false,
      "t": 316062.5000000002,
      "d": 75.52083333331393,
      "v": 52
    },
    {
      "midi": 67,
      "hit": false,
      "t": 316302.0833333335,
      "d": 416.66666666662786,
      "v": 95
    },
    {
      "midi": 53,
      "hit": false,
      "t": 316489.5833333335,
      "d": 88.54166666662786,
      "v": 41
    },
    {
      "midi": 50,
      "hit": false,
      "t": 316502.6041666668,
      "d": 54.6875,
      "v": 53
    },
    {
      "midi": 66,
      "hit": false,
      "t": 316638.02083333343,
      "d": 338.5416666667443,
      "v": 97
    },
    {
      "midi": 65,
      "hit": false,
      "t": 316919.27083333343,
      "d": 343.7500000000582,
      "v": 97
    },
    {
      "midi": 53,
      "hit": false,
      "t": 316942.70833333343,
      "d": 221.35416666674428,
      "v": 51
    },
    {
      "midi": 59,
      "hit": false,
      "t": 316953.1250000001,
      "d": 208.33333333337214,
      "v": 52
    },
    {
      "midi": 55,
      "hit": false,
      "t": 317210.9375000002,
      "d": 294.2708333332557,
      "v": 96
    },
    {
      "midi": 53,
      "hit": false,
      "t": 317369.7916666668,
      "d": 119.79166666662786,
      "v": 45
    },
    {
      "midi": 59,
      "hit": false,
      "t": 317375.0000000001,
      "d": 138.02083333331393,
      "v": 48
    },
    {
      "midi": 65,
      "hit": false,
      "t": 317510.41666666674,
      "d": 494.79166666668607,
      "v": 101
    },
    {
      "midi": 59,
      "hit": false,
      "t": 317750.0000000001,
      "d": 65.10416666668607,
      "v": 65
    },
    {
      "midi": 53,
      "hit": false,
      "t": 317750.0000000001,
      "d": 72.91666666668607,
      "v": 61
    },
    {
      "midi": 63,
      "hit": false,
      "t": 317914.0625000001,
      "d": 611.9791666666279,
      "v": 97
    },
    {
      "midi": 60,
      "hit": false,
      "t": 318471.35416666674,
      "d": 6611.979166666861,
      "v": 110
    },
    {
      "midi": 24,
      "hit": false,
      "t": 318489.58333333343,
      "d": 270.83333333331393,
      "v": 77
    },
    {
      "midi": 43,
      "hit": false,
      "t": 319138.02083333343,
      "d": 187.5,
      "v": 45
    },
    {
      "midi": 43,
      "hit": false,
      "t": 319611.97916666674,
      "d": 161.45833333337214,
      "v": 31
    },
    {
      "midi": 51,
      "hit": false,
      "t": 319638.02083333343,
      "d": 117.1875,
      "v": 34
    },
    {
      "midi": 55,
      "hit": false,
      "t": 320052.08333333343,
      "d": 151.04166666668607,
      "v": 39
    },
    {
      "midi": 51,
      "hit": false,
      "t": 320065.10416666674,
      "d": 88.54166666668607,
      "v": 36
    },
    {
      "midi": 51,
      "hit": false,
      "t": 320453.1250000001,
      "d": 65.10416666668607,
      "v": 36
    },
    {
      "midi": 55,
      "hit": false,
      "t": 320453.1250000001,
      "d": 65.10416666668607,
      "v": 32
    },
    {
      "midi": 31,
      "hit": false,
      "t": 320817.7083333335,
      "d": 151.04166666668607,
      "v": 56
    },
    {
      "midi": 36,
      "hit": false,
      "t": 321250.0000000002,
      "d": 161.45833333331393,
      "v": 50
    },
    {
      "midi": 43,
      "hit": false,
      "t": 321632.8125000001,
      "d": 93.75,
      "v": 48
    },
    {
      "midi": 51,
      "hit": false,
      "t": 321986.9791666668,
      "d": 101.5625,
      "v": 36
    },
    {
      "midi": 43,
      "hit": false,
      "t": 321989.5833333335,
      "d": 109.375,
      "v": 27
    },
    {
      "midi": 55,
      "hit": false,
      "t": 322398.4375000002,
      "d": 125.00000000005821,
      "v": 36
    },
    {
      "midi": 51,
      "hit": false,
      "t": 322401.04166666686,
      "d": 88.54166666668607,
      "v": 31
    },
    {
      "midi": 55,
      "hit": false,
      "t": 322916.6666666669,
      "d": 83.33333333331393,
      "v": 26
    },
    {
      "midi": 51,
      "hit": false,
      "t": 322932.2916666669,
      "d": 83.33333333331393,
      "v": 21
    },
    {
      "midi": 31,
      "hit": false,
      "t": 323505.20833333355,
      "d": 148.4375,
      "v": 36
    },
    {
      "midi": 24,
      "hit": false,
      "t": 324453.12500000023,
      "d": 2213.5416666667443,
      "v": 33
    },
    {
      "midi": 36,
      "hit": false,
      "t": 324466.14583333355,
      "d": 460.9375000000582,
      "v": 24
    },
    {
      "midi": 55,
      "hit": false,
      "t": 324979.1666666669,
      "d": 578.125,
      "v": 43
    },
    {
      "midi": 60,
      "hit": false,
      "t": 325536.4583333336,
      "d": 442.70833333331393,
      "v": 60
    },
    {
      "midi": 62,
      "hit": false,
      "t": 325921.87500000023,
      "d": 335.9375000000582,
      "v": 57
    },
    {
      "midi": 63,
      "hit": false,
      "t": 326239.5833333336,
      "d": 359.3750000000582,
      "v": 56
    },
    {
      "midi": 66,
      "hit": false,
      "t": 326544.27083333366,
      "d": 309.89583333331393,
      "v": 64
    },
    {
      "midi": 68,
      "hit": false,
      "t": 326822.916666667,
      "d": 278.64583333337214,
      "v": 71
    },
    {
      "midi": 67,
      "hit": false,
      "t": 327083.33333333366,
      "d": 299.47916666668607,
      "v": 69
    },
    {
      "midi": 71,
      "hit": false,
      "t": 327369.79166666704,
      "d": 302.08333333331393,
      "v": 50
    },
    {
      "midi": 74,
      "hit": false,
      "t": 327669.27083333366,
      "d": 333.33333333337214,
      "v": 71
    },
    {
      "midi": 72,
      "hit": false,
      "t": 327971.35416666704,
      "d": 322.91666666662786,
      "v": 73
    },
    {
      "midi": 75,
      "hit": false,
      "t": 328265.62500000035,
      "d": 427.08333333331393,
      "v": 69
    },
    {
      "midi": 78,
      "hit": false,
      "t": 328585.93750000035,
      "d": 526.0416666666279,
      "v": 72
    },
    {
      "midi": 79,
      "hit": false,
      "t": 328921.8750000003,
      "d": 416.66666666668607,
      "v": 80
    },
    {
      "midi": 82,
      "hit": false,
      "t": 329257.8125000003,
      "d": 221.35416666668607,
      "v": 58
    },
    {
      "midi": 80,
      "hit": false,
      "t": 329338.541666667,
      "d": 648.4375,
      "v": 58
    },
    {
      "midi": 79,
      "hit": false,
      "t": 329796.8750000003,
      "d": 1083.3333333333721,
      "v": 46
    },
    {
      "midi": 84,
      "hit": false,
      "t": 330716.14583333366,
      "d": 1242.1875,
      "v": 42
    },
    {
      "midi": 63,
      "hit": false,
      "t": 333510.416666667,
      "d": 828.1250000001164,
      "v": 25
    },
    {
      "midi": 60,
      "hit": false,
      "t": 333513.02083333366,
      "d": 898.4375000001164,
      "v": 29
    },
    {
      "midi": 51,
      "hit": false,
      "t": 333531.25000000035,
      "d": 614.5833333333721,
      "v": 23
    },
    {
      "midi": 36,
      "hit": false,
      "t": 333531.25000000035,
      "d": 911.4583333334303,
      "v": 32
    },
    {
      "midi": 48,
      "hit": false,
      "t": 333541.66666666704,
      "d": 611.9791666666861,
      "v": 24
    },
    {
      "midi": 55,
      "hit": false,
      "t": 333552.0833333337,
      "d": 736.9791666666861,
      "v": 37
    },
    {
      "midi": 51,
      "hit": false,
      "t": 335570.31250000047,
      "d": 307.29166666668607,
      "v": 24
    },
    {
      "midi": 63,
      "hit": false,
      "t": 335575.5208333338,
      "d": 3158.854166666686,
      "v": 30
    },
    {
      "midi": 60,
      "hit": false,
      "t": 335598.9583333338,
      "d": 403.64583333337214,
      "v": 33
    },
    {
      "midi": 48,
      "hit": false,
      "t": 335619.7916666671,
      "d": 255.20833333337214,
      "v": 23
    },
    {
      "midi": 55,
      "hit": false,
      "t": 335619.7916666671,
      "d": 643.2291666667443,
      "v": 30
    },
    {
      "midi": 36,
      "hit": false,
      "t": 335630.2083333338,
      "d": 1671.8750000000582,
      "v": 19
    },
    {
      "midi": 36,
      "hit": false,
      "t": 338518.22916666715,
      "d": 1320.3125,
      "v": 41
    },
    {
      "midi": 43,
      "hit": false,
      "t": 338768.22916666715,
      "d": 1322.916666666686,
      "v": 39
    },
    {
      "midi": 48,
      "hit": false,
      "t": 338960.93750000047,
      "d": 9401.041666666744,
      "v": 50
    },
    {
      "midi": 51,
      "hit": false,
      "t": 339140.62500000047,
      "d": 6536.458333333372,
      "v": 51
    },
    {
      "midi": 55,
      "hit": false,
      "t": 339390.62500000047,
      "d": 1325.5208333333721,
      "v": 42
    },
    {
      "midi": 60,
      "hit": false,
      "t": 339682.29166666715,
      "d": 8677.083333333372,
      "v": 47
    },
    {
      "midi": 63,
      "hit": false,
      "t": 340330.72916666715,
      "d": 1328.125,
      "v": 42
    }
  ]
}