{
  "jsonPath": "World/Swedish Pop/Abba/felicidad.json",
  "path": "World\\Swedish Pop\\Abba\\Felicidad.mid",
  "name": "Felicidad",
  "difficulty": "Advanced",
  "bpm": 66.000066000066,
  "notes": [
    {
      "midi": 57,
      "hit": false,
      "t": 4000,
      "d": 1000,
      "v": 50
    },
    {
      "midi": 88,
      "hit": false,
      "t": 7881.25,
      "d": 58.33333333333303,
      "v": 80
    },
    {
      "midi": 92,
      "hit": false,
      "t": 7934.375,
      "d": 66.66666666666606,
      "v": 80
    },
    {
      "midi": 95,
      "hit": false,
      "t": 7986.458333333333,
      "d": 67.70833333333303,
      "v": 80
    },
    {
      "midi": 100,
      "hit": false,
      "t": 8036.458333333333,
      "d": 721.8749999999991,
      "v": 80
    },
    {
      "midi": 88,
      "hit": false,
      "t": 9891.666666666666,
      "d": 72.91666666666788,
      "v": 54
    },
    {
      "midi": 92,
      "hit": false,
      "t": 9934.375,
      "d": 70.83333333333394,
      "v": 62
    },
    {
      "midi": 95,
      "hit": false,
      "t": 9973.958333333334,
      "d": 69.79166666666606,
      "v": 51
    },
    {
      "midi": 100,
      "hit": false,
      "t": 10015.625,
      "d": 654.1666666666661,
      "v": 68
    },
    {
      "midi": 45,
      "hit": false,
      "t": 11875,
      "d": 1062.5,
      "v": 76
    },
    {
      "midi": 61,
      "hit": false,
      "t": 11953.125,
      "d": 1088.541666666666,
      "v": 77
    },
    {
      "midi": 64,
      "hit": false,
      "t": 11960.416666666666,
      "d": 1039.5833333333321,
      "v": 83
    },
    {
      "midi": 69,
      "hit": false,
      "t": 11987.5,
      "d": 1012.4999999999982,
      "v": 76
    },
    {
      "midi": 73,
      "hit": false,
      "t": 12012.5,
      "d": 987.4999999999982,
      "v": 87
    },
    {
      "midi": 59,
      "hit": false,
      "t": 12937.5,
      "d": 1062.5,
      "v": 91
    },
    {
      "midi": 62,
      "hit": false,
      "t": 12969.791666666666,
      "d": 1030.208333333334,
      "v": 93
    },
    {
      "midi": 65,
      "hit": false,
      "t": 12977.083333333332,
      "d": 1022.9166666666679,
      "v": 89
    },
    {
      "midi": 71,
      "hit": false,
      "t": 13011.458333333332,
      "d": 988.5416666666679,
      "v": 96
    },
    {
      "midi": 64,
      "hit": false,
      "t": 13955.208333333332,
      "d": 1919.7916666666679,
      "v": 91
    },
    {
      "midi": 69,
      "hit": false,
      "t": 13991.666666666666,
      "d": 1883.333333333334,
      "v": 99
    },
    {
      "midi": 73,
      "hit": false,
      "t": 14006.25,
      "d": 1868.75,
      "v": 85
    },
    {
      "midi": 76,
      "hit": false,
      "t": 14038.541666666666,
      "d": 1836.458333333334,
      "v": 100
    },
    {
      "midi": 66,
      "hit": false,
      "t": 16000,
      "d": 875,
      "v": 87
    },
    {
      "midi": 74,
      "hit": false,
      "t": 16000,
      "d": 875,
      "v": 100
    },
    {
      "midi": 78,
      "hit": false,
      "t": 16000,
      "d": 875,
      "v": 99
    },
    {
      "midi": 69,
      "hit": false,
      "t": 16000,
      "d": 897.9166666666679,
      "v": 99
    },
    {
      "midi": 80,
      "hit": false,
      "t": 16750,
      "d": 246.875,
      "v": 107
    },
    {
      "midi": 69,
      "hit": false,
      "t": 16937.5,
      "d": 562.5,
      "v": 95
    },
    {
      "midi": 73,
      "hit": false,
      "t": 16969.791666666668,
      "d": 530.2083333333321,
      "v": 100
    },
    {
      "midi": 76,
      "hit": false,
      "t": 17000,
      "d": 500,
      "v": 105
    },
    {
      "midi": 64,
      "hit": false,
      "t": 17250,
      "d": 265.625,
      "v": 74
    },
    {
      "midi": 76,
      "hit": false,
      "t": 17500,
      "d": 152.08333333333212,
      "v": 70
    },
    {
      "midi": 81,
      "hit": false,
      "t": 17500,
      "d": 125,
      "v": 107
    },
    {
      "midi": 73,
      "hit": false,
      "t": 17625,
      "d": 152.08333333333212,
      "v": 68
    },
    {
      "midi": 69,
      "hit": false,
      "t": 17750,
      "d": 122.91666666666424,
      "v": 71
    },
    {
      "midi": 80,
      "hit": false,
      "t": 17860.416666666668,
      "d": 58.33333333333576,
      "v": 97
    },
    {
      "midi": 68,
      "hit": false,
      "t": 17867.708333333336,
      "d": 55.20833333333576,
      "v": 107
    },
    {
      "midi": 64,
      "hit": false,
      "t": 17874.999999999996,
      "d": 55.20833333333212,
      "v": 72
    },
    {
      "midi": 68,
      "hit": false,
      "t": 17981.250000000004,
      "d": 365.625,
      "v": 107
    },
    {
      "midi": 80,
      "hit": false,
      "t": 17985.41666666667,
      "d": 361.4583333333321,
      "v": 102
    },
    {
      "midi": 78,
      "hit": false,
      "t": 18367.708333333336,
      "d": 62.5,
      "v": 100
    },
    {
      "midi": 66,
      "hit": false,
      "t": 18369.791666666668,
      "d": 60.41666666666788,
      "v": 97
    },
    {
      "midi": 78,
      "hit": false,
      "t": 18491.666666666668,
      "d": 369.79166666666424,
      "v": 107
    },
    {
      "midi": 66,
      "hit": false,
      "t": 18497.916666666668,
      "d": 420.8333333333321,
      "v": 107
    },
    {
      "midi": 64,
      "hit": false,
      "t": 18500,
      "d": 407.2916666666679,
      "v": 105
    },
    {
      "midi": 69,
      "hit": false,
      "t": 18625,
      "d": 250,
      "v": 105
    },
    {
      "midi": 71,
      "hit": false,
      "t": 18750,
      "d": 146.875,
      "v": 105
    },
    {
      "midi": 76,
      "hit": false,
      "t": 18865.625,
      "d": 77.08333333333212,
      "v": 102
    },
    {
      "midi": 64,
      "hit": false,
      "t": 18991.666666666664,
      "d": 1000.0000000000036,
      "v": 105
    },
    {
      "midi": 76,
      "hit": false,
      "t": 18992.708333333332,
      "d": 998.9583333333358,
      "v": 105
    },
    {
      "midi": 68,
      "hit": false,
      "t": 19000,
      "d": 987.5,
      "v": 105
    },
    {
      "midi": 71,
      "hit": false,
      "t": 19000,
      "d": 991.6666666666679,
      "v": 105
    },
    {
      "midi": 69,
      "hit": false,
      "t": 20000,
      "d": 31.25,
      "v": 63
    },
    {
      "midi": 73,
      "hit": false,
      "t": 20000,
      "d": 31.25,
      "v": 57
    },
    {
      "midi": 76,
      "hit": false,
      "t": 20000,
      "d": 31.25,
      "v": 68
    },
    {
      "midi": 81,
      "hit": false,
      "t": 20000,
      "d": 31.25,
      "v": 66
    },
    {
      "midi": 69,
      "hit": false,
      "t": 20125,
      "d": 31.25,
      "v": 47
    },
    {
      "midi": 73,
      "hit": false,
      "t": 20125,
      "d": 31.25,
      "v": 51
    },
    {
      "midi": 76,
      "hit": false,
      "t": 20125,
      "d": 31.25,
      "v": 63
    },
    {
      "midi": 81,
      "hit": false,
      "t": 20125,
      "d": 31.25,
      "v": 39
    },
    {
      "midi": 69,
      "hit": false,
      "t": 20250,
      "d": 31.25,
      "v": 74
    },
    {
      "midi": 73,
      "hit": false,
      "t": 20250,
      "d": 31.25,
      "v": 74
    },
    {
      "midi": 76,
      "hit": false,
      "t": 20250,
      "d": 31.25,
      "v": 81
    },
    {
      "midi": 81,
      "hit": false,
      "t": 20250,
      "d": 31.25,
      "v": 73
    },
    {
      "midi": 69,
      "hit": false,
      "t": 20500,
      "d": 31.25,
      "v": 96
    },
    {
      "midi": 73,
      "hit": false,
      "t": 20500,
      "d": 31.25,
      "v": 96
    },
    {
      "midi": 76,
      "hit": false,
      "t": 20500,
      "d": 31.25,
      "v": 96
    },
    {
      "midi": 81,
      "hit": false,
      "t": 20500,
      "d": 31.25,
      "v": 96
    },
    {
      "midi": 73,
      "hit": false,
      "t": 20750,
      "d": 31.25,
      "v": 39
    },
    {
      "midi": 76,
      "hit": false,
      "t": 20750,
      "d": 31.25,
      "v": 41
    },
    {
      "midi": 73,
      "hit": false,
      "t": 20875,
      "d": 31.25,
      "v": 44
    },
    {
      "midi": 76,
      "hit": false,
      "t": 20875,
      "d": 31.25,
      "v": 51
    },
    {
      "midi": 81,
      "hit": false,
      "t": 20875,
      "d": 31.25,
      "v": 27
    },
    {
      "midi": 65,
      "hit": false,
      "t": 21000,
      "d": 31.25,
      "v": 63
    },
    {
      "midi": 74,
      "hit": false,
      "t": 21000,
      "d": 31.25,
      "v": 52
    },
    {
      "midi": 77,
      "hit": false,
      "t": 21000,
      "d": 31.25,
      "v": 43
    },
    {
      "midi": 65,
      "hit": false,
      "t": 21125,
      "d": 31.25,
      "v": 57
    },
    {
      "midi": 71,
      "hit": false,
      "t": 21125,
      "d": 31.25,
      "v": 39
    },
    {
      "midi": 74,
      "hit": false,
      "t": 21125,
      "d": 31.25,
      "v": 49
    },
    {
      "midi": 77,
      "hit": false,
      "t": 21125,
      "d": 31.25,
      "v": 46
    },
    {
      "midi": 83,
      "hit": false,
      "t": 21125,
      "d": 31.25,
      "v": 47
    },
    {
      "midi": 65,
      "hit": false,
      "t": 21250,
      "d": 31.25,
      "v": 64
    },
    {
      "midi": 71,
      "hit": false,
      "t": 21250,
      "d": 31.25,
      "v": 61
    },
    {
      "midi": 74,
      "hit": false,
      "t": 21250,
      "d": 31.25,
      "v": 75
    },
    {
      "midi": 77,
      "hit": false,
      "t": 21250,
      "d": 31.25,
      "v": 73
    },
    {
      "midi": 81,
      "hit": false,
      "t": 21250,
      "d": 31.25,
      "v": 75
    },
    {
      "midi": 83,
      "hit": false,
      "t": 21250,
      "d": 31.25,
      "v": 65
    },
    {
      "midi": 65,
      "hit": false,
      "t": 21500,
      "d": 31.25,
      "v": 66
    },
    {
      "midi": 71,
      "hit": false,
      "t": 21500,
      "d": 31.25,
      "v": 87
    },
    {
      "midi": 74,
      "hit": false,
      "t": 21500,
      "d": 31.25,
      "v": 97
    },
    {
      "midi": 77,
      "hit": false,
      "t": 21500,
      "d": 31.25,
      "v": 81
    },
    {
      "midi": 81,
      "hit": false,
      "t": 21500,
      "d": 31.25,
      "v": 78
    },
    {
      "midi": 83,
      "hit": false,
      "t": 21500,
      "d": 31.25,
      "v": 84
    },
    {
      "midi": 74,
      "hit": false,
      "t": 21750,
      "d": 31.25,
      "v": 44
    },
    {
      "midi": 77,
      "hit": false,
      "t": 21750,
      "d": 31.25,
      "v": 41
    },
    {
      "midi": 81,
      "hit": false,
      "t": 21750,
      "d": 31.25,
      "v": 43
    },
    {
      "midi": 71,
      "hit": false,
      "t": 21875,
      "d": 31.25,
      "v": 48
    },
    {
      "midi": 74,
      "hit": false,
      "t": 21875,
      "d": 31.25,
      "v": 63
    },
    {
      "midi": 77,
      "hit": false,
      "t": 21875,
      "d": 31.25,
      "v": 63
    },
    {
      "midi": 81,
      "hit": false,
      "t": 21875,
      "d": 31.25,
      "v": 58
    },
    {
      "midi": 83,
      "hit": false,
      "t": 21875,
      "d": 31.25,
      "v": 50
    },
    {
      "midi": 64,
      "hit": false,
      "t": 22000,
      "d": 31.25,
      "v": 36
    },
    {
      "midi": 69,
      "hit": false,
      "t": 22000,
      "d": 31.25,
      "v": 55
    },
    {
      "midi": 73,
      "hit": false,
      "t": 22000,
      "d": 31.25,
      "v": 38
    },
    {
      "midi": 76,
      "hit": false,
      "t": 22000,
      "d": 31.25,
      "v": 36
    },
    {
      "midi": 64,
      "hit": false,
      "t": 22125,
      "d": 31.25,
      "v": 46
    },
    {
      "midi": 69,
      "hit": false,
      "t": 22125,
      "d": 31.25,
      "v": 59
    },
    {
      "midi": 73,
      "hit": false,
      "t": 22125,
      "d": 31.25,
      "v": 48
    },
    {
      "midi": 76,
      "hit": false,
      "t": 22125,
      "d": 31.25,
      "v": 46
    },
    {
      "midi": 64,
      "hit": false,
      "t": 22250,
      "d": 31.25,
      "v": 68
    },
    {
      "midi": 69,
      "hit": false,
      "t": 22250,
      "d": 31.25,
      "v": 68
    },
    {
      "midi": 73,
      "hit": false,
      "t": 22250,
      "d": 31.25,
      "v": 56
    },
    {
      "midi": 76,
      "hit": false,
      "t": 22250,
      "d": 31.25,
      "v": 72
    },
    {
      "midi": 64,
      "hit": false,
      "t": 22500,
      "d": 31.25,
      "v": 95
    },
    {
      "midi": 69,
      "hit": false,
      "t": 22500,
      "d": 31.25,
      "v": 95
    },
    {
      "midi": 73,
      "hit": false,
      "t": 22500,
      "d": 31.25,
      "v": 95
    },
    {
      "midi": 76,
      "hit": false,
      "t": 22500,
      "d": 31.25,
      "v": 95
    },
    {
      "midi": 64,
      "hit": false,
      "t": 22750,
      "d": 31.25,
      "v": 29
    },
    {
      "midi": 69,
      "hit": false,
      "t": 22750,
      "d": 31.25,
      "v": 60
    },
    {
      "midi": 73,
      "hit": false,
      "t": 22750,
      "d": 31.25,
      "v": 45
    },
    {
      "midi": 76,
      "hit": false,
      "t": 22750,
      "d": 31.25,
      "v": 46
    },
    {
      "midi": 64,
      "hit": false,
      "t": 22875,
      "d": 31.25,
      "v": 51
    },
    {
      "midi": 69,
      "hit": false,
      "t": 22875,
      "d": 31.25,
      "v": 67
    },
    {
      "midi": 73,
      "hit": false,
      "t": 22875,
      "d": 31.25,
      "v": 57
    },
    {
      "midi": 76,
      "hit": false,
      "t": 22875,
      "d": 31.25,
      "v": 49
    },
    {
      "midi": 64,
      "hit": false,
      "t": 23000,
      "d": 31.25,
      "v": 57
    },
    {
      "midi": 68,
      "hit": false,
      "t": 23000,
      "d": 31.25,
      "v": 54
    },
    {
      "midi": 73,
      "hit": false,
      "t": 23000,
      "d": 31.25,
      "v": 58
    },
    {
      "midi": 76,
      "hit": false,
      "t": 23000,
      "d": 31.25,
      "v": 66
    },
    {
      "midi": 64,
      "hit": false,
      "t": 23125,
      "d": 31.25,
      "v": 45
    },
    {
      "midi": 68,
      "hit": false,
      "t": 23125,
      "d": 31.25,
      "v": 49
    },
    {
      "midi": 73,
      "hit": false,
      "t": 23125,
      "d": 31.25,
      "v": 54
    },
    {
      "midi": 76,
      "hit": false,
      "t": 23125,
      "d": 31.25,
      "v": 51
    },
    {
      "midi": 64,
      "hit": false,
      "t": 23250,
      "d": 31.25,
      "v": 68
    },
    {
      "midi": 68,
      "hit": false,
      "t": 23250,
      "d": 31.25,
      "v": 75
    },
    {
      "midi": 73,
      "hit": false,
      "t": 23250,
      "d": 31.25,
      "v": 67
    },
    {
      "midi": 76,
      "hit": false,
      "t": 23250,
      "d": 31.25,
      "v": 65
    },
    {
      "midi": 64,
      "hit": false,
      "t": 23500,
      "d": 31.25,
      "v": 97
    },
    {
      "midi": 68,
      "hit": false,
      "t": 23500,
      "d": 31.25,
      "v": 94
    },
    {
      "midi": 73,
      "hit": false,
      "t": 23500,
      "d": 31.25,
      "v": 92
    },
    {
      "midi": 76,
      "hit": false,
      "t": 23500,
      "d": 31.25,
      "v": 89
    },
    {
      "midi": 64,
      "hit": false,
      "t": 23750,
      "d": 31.25,
      "v": 43
    },
    {
      "midi": 68,
      "hit": false,
      "t": 23750,
      "d": 31.25,
      "v": 50
    },
    {
      "midi": 73,
      "hit": false,
      "t": 23750,
      "d": 31.25,
      "v": 58
    },
    {
      "midi": 76,
      "hit": false,
      "t": 23750,
      "d": 31.25,
      "v": 59
    },
    {
      "midi": 64,
      "hit": false,
      "t": 23875,
      "d": 31.25,
      "v": 66
    },
    {
      "midi": 68,
      "hit": false,
      "t": 23875,
      "d": 31.25,
      "v": 59
    },
    {
      "midi": 73,
      "hit": false,
      "t": 23875,
      "d": 31.25,
      "v": 64
    },
    {
      "midi": 76,
      "hit": false,
      "t": 23875,
      "d": 31.25,
      "v": 65
    },
    {
      "midi": 66,
      "hit": false,
      "t": 24000,
      "d": 31.25,
      "v": 36
    },
    {
      "midi": 69,
      "hit": false,
      "t": 24000,
      "d": 31.25,
      "v": 60
    },
    {
      "midi": 74,
      "hit": false,
      "t": 24000,
      "d": 31.25,
      "v": 50
    },
    {
      "midi": 78,
      "hit": false,
      "t": 24000,
      "d": 31.25,
      "v": 36
    },
    {
      "midi": 66,
      "hit": false,
      "t": 24125,
      "d": 31.25,
      "v": 36
    },
    {
      "midi": 69,
      "hit": false,
      "t": 24125,
      "d": 31.25,
      "v": 61
    },
    {
      "midi": 74,
      "hit": false,
      "t": 24125,
      "d": 31.25,
      "v": 63
    },
    {
      "midi": 78,
      "hit": false,
      "t": 24125,
      "d": 31.25,
      "v": 46
    },
    {
      "midi": 66,
      "hit": false,
      "t": 24250,
      "d": 31.25,
      "v": 69
    },
    {
      "midi": 69,
      "hit": false,
      "t": 24250,
      "d": 31.25,
      "v": 73
    },
    {
      "midi": 74,
      "hit": false,
      "t": 24250,
      "d": 31.25,
      "v": 73
    },
    {
      "midi": 78,
      "hit": false,
      "t": 24250,
      "d": 31.25,
      "v": 62
    },
    {
      "midi": 66,
      "hit": false,
      "t": 24500,
      "d": 31.25,
      "v": 95
    },
    {
      "midi": 69,
      "hit": false,
      "t": 24500,
      "d": 31.25,
      "v": 95
    },
    {
      "midi": 74,
      "hit": false,
      "t": 24500,
      "d": 31.25,
      "v": 95
    },
    {
      "midi": 78,
      "hit": false,
      "t": 24500,
      "d": 31.25,
      "v": 95
    },
    {
      "midi": 66,
      "hit": false,
      "t": 24750,
      "d": 31.25,
      "v": 49
    },
    {
      "midi": 69,
      "hit": false,
      "t": 24750,
      "d": 31.25,
      "v": 59
    },
    {
      "midi": 74,
      "hit": false,
      "t": 24750,
      "d": 31.25,
      "v": 63
    },
    {
      "midi": 78,
      "hit": false,
      "t": 24750,
      "d": 31.25,
      "v": 44
    },
    {
      "midi": 66,
      "hit": false,
      "t": 24875,
      "d": 31.25,
      "v": 49
    },
    {
      "midi": 69,
      "hit": false,
      "t": 24875,
      "d": 31.25,
      "v": 75
    },
    {
      "midi": 74,
      "hit": false,
      "t": 24875,
      "d": 31.25,
      "v": 75
    },
    {
      "midi": 78,
      "hit": false,
      "t": 24875,
      "d": 31.25,
      "v": 51
    },
    {
      "midi": 64,
      "hit": false,
      "t": 25000,
      "d": 31.25,
      "v": 44
    },
    {
      "midi": 69,
      "hit": false,
      "t": 25000,
      "d": 31.25,
      "v": 56
    },
    {
      "midi": 73,
      "hit": false,
      "t": 25000,
      "d": 31.25,
      "v": 49
    },
    {
      "midi": 76,
      "hit": false,
      "t": 25000,
      "d": 31.25,
      "v": 43
    },
    {
      "midi": 64,
      "hit": false,
      "t": 25125,
      "d": 31.25,
      "v": 37
    },
    {
      "midi": 69,
      "hit": false,
      "t": 25125,
      "d": 31.25,
      "v": 61
    },
    {
      "midi": 73,
      "hit": false,
      "t": 25125,
      "d": 31.25,
      "v": 53
    },
    {
      "midi": 76,
      "hit": false,
      "t": 25125,
      "d": 31.25,
      "v": 33
    },
    {
      "midi": 64,
      "hit": false,
      "t": 25250,
      "d": 31.25,
      "v": 68
    },
    {
      "midi": 69,
      "hit": false,
      "t": 25250,
      "d": 31.25,
      "v": 75
    },
    {
      "midi": 73,
      "hit": false,
      "t": 25250,
      "d": 31.25,
      "v": 62
    },
    {
      "midi": 76,
      "hit": false,
      "t": 25250,
      "d": 31.25,
      "v": 65
    },
    {
      "midi": 64,
      "hit": false,
      "t": 25500,
      "d": 31.25,
      "v": 88
    },
    {
      "midi": 69,
      "hit": false,
      "t": 25500,
      "d": 31.25,
      "v": 90
    },
    {
      "midi": 73,
      "hit": false,
      "t": 25500,
      "d": 31.25,
      "v": 85
    },
    {
      "midi": 76,
      "hit": false,
      "t": 25500,
      "d": 31.25,
      "v": 82
    },
    {
      "midi": 64,
      "hit": false,
      "t": 25750,
      "d": 31.25,
      "v": 49
    },
    {
      "midi": 69,
      "hit": false,
      "t": 25750,
      "d": 31.25,
      "v": 62
    },
    {
      "midi": 73,
      "hit": false,
      "t": 25750,
      "d": 31.25,
      "v": 48
    },
    {
      "midi": 76,
      "hit": false,
      "t": 25750,
      "d": 31.25,
      "v": 38
    },
    {
      "midi": 64,
      "hit": false,
      "t": 25875,
      "d": 31.25,
      "v": 35
    },
    {
      "midi": 69,
      "hit": false,
      "t": 25875,
      "d": 31.25,
      "v": 60
    },
    {
      "midi": 73,
      "hit": false,
      "t": 25875,
      "d": 31.25,
      "v": 56
    },
    {
      "midi": 76,
      "hit": false,
      "t": 25875,
      "d": 31.25,
      "v": 45
    },
    {
      "midi": 69,
      "hit": false,
      "t": 26000,
      "d": 31.25,
      "v": 45
    },
    {
      "midi": 71,
      "hit": false,
      "t": 26000,
      "d": 31.25,
      "v": 32
    },
    {
      "midi": 74,
      "hit": false,
      "t": 26000,
      "d": 31.25,
      "v": 70
    },
    {
      "midi": 64,
      "hit": false,
      "t": 26125,
      "d": 31.25,
      "v": 43
    },
    {
      "midi": 69,
      "hit": false,
      "t": 26125,
      "d": 31.25,
      "v": 58
    },
    {
      "midi": 71,
      "hit": false,
      "t": 26125,
      "d": 31.25,
      "v": 56
    },
    {
      "midi": 74,
      "hit": false,
      "t": 26125,
      "d": 31.25,
      "v": 67
    },
    {
      "midi": 76,
      "hit": false,
      "t": 26125,
      "d": 31.25,
      "v": 44
    },
    {
      "midi": 64,
      "hit": false,
      "t": 26250,
      "d": 31.25,
      "v": 55
    },
    {
      "midi": 69,
      "hit": false,
      "t": 26250,
      "d": 31.25,
      "v": 62
    },
    {
      "midi": 71,
      "hit": false,
      "t": 26250,
      "d": 31.25,
      "v": 56
    },
    {
      "midi": 74,
      "hit": false,
      "t": 26250,
      "d": 31.25,
      "v": 66
    },
    {
      "midi": 76,
      "hit": false,
      "t": 26250,
      "d": 31.25,
      "v": 38
    },
    {
      "midi": 64,
      "hit": false,
      "t": 26500,
      "d": 31.25,
      "v": 84
    },
    {
      "midi": 69,
      "hit": false,
      "t": 26500,
      "d": 31.25,
      "v": 89
    },
    {
      "midi": 71,
      "hit": false,
      "t": 26500,
      "d": 31.25,
      "v": 84
    },
    {
      "midi": 74,
      "hit": false,
      "t": 26500,
      "d": 31.25,
      "v": 81
    },
    {
      "midi": 76,
      "hit": false,
      "t": 26500,
      "d": 31.25,
      "v": 81
    },
    {
      "midi": 64,
      "hit": false,
      "t": 26750,
      "d": 31.25,
      "v": 61
    },
    {
      "midi": 69,
      "hit": false,
      "t": 26750,
      "d": 31.25,
      "v": 54
    },
    {
      "midi": 71,
      "hit": false,
      "t": 26750,
      "d": 31.25,
      "v": 66
    },
    {
      "midi": 74,
      "hit": false,
      "t": 26750,
      "d": 31.25,
      "v": 81
    },
    {
      "midi": 76,
      "hit": false,
      "t": 26750,
      "d": 31.25,
      "v": 65
    },
    {
      "midi": 64,
      "hit": false,
      "t": 26875,
      "d": 31.25,
      "v": 42
    },
    {
      "midi": 69,
      "hit": false,
      "t": 26875,
      "d": 31.25,
      "v": 31
    },
    {
      "midi": 71,
      "hit": false,
      "t": 26875,
      "d": 31.25,
      "v": 44
    },
    {
      "midi": 76,
      "hit": false,
      "t": 26875,
      "d": 31.25,
      "v": 51
    },
    {
      "midi": 69,
      "hit": false,
      "t": 27125,
      "d": 31.25,
      "v": 44
    },
    {
      "midi": 71,
      "hit": false,
      "t": 27125,
      "d": 31.25,
      "v": 40
    },
    {
      "midi": 64,
      "hit": false,
      "t": 27250,
      "d": 31.25,
      "v": 55
    },
    {
      "midi": 69,
      "hit": false,
      "t": 27250,
      "d": 31.25,
      "v": 65
    },
    {
      "midi": 71,
      "hit": false,
      "t": 27250,
      "d": 31.25,
      "v": 65
    },
    {
      "midi": 76,
      "hit": false,
      "t": 27250,
      "d": 31.25,
      "v": 76
    },
    {
      "midi": 69,
      "hit": false,
      "t": 27500,
      "d": 28.125,
      "v": 75
    },
    {
      "midi": 71,
      "hit": false,
      "t": 27500,
      "d": 34.375,
      "v": 72
    },
    {
      "midi": 64,
      "hit": false,
      "t": 27500,
      "d": 41.66666666666788,
      "v": 66
    },
    {
      "midi": 76,
      "hit": false,
      "t": 27500,
      "d": 41.66666666666788,
      "v": 70
    },
    {
      "midi": 68,
      "hit": false,
      "t": 27961.458333333332,
      "d": 1039.5833333333321,
      "v": 84
    },
    {
      "midi": 71,
      "hit": false,
      "t": 27976.041666666664,
      "d": 1036.4583333333321,
      "v": 91
    },
    {
      "midi": 76,
      "hit": false,
      "t": 28026.041666666664,
      "d": 989.5833333333321,
      "v": 97
    },
    {
      "midi": 64,
      "hit": false,
      "t": 28999.999999999996,
      "d": 1.0416666666678793,
      "v": 95
    },
    {
      "midi": 61,
      "hit": false,
      "t": 28999.999999999996,
      "d": 442.7083333333321,
      "v": 95
    },
    {
      "midi": 73,
      "hit": false,
      "t": 28999.999999999996,
      "d": 484.375,
      "v": 95
    },
    {
      "midi": 69,
      "hit": false,
      "t": 28999.999999999996,
      "d": 487.5,
      "v": 95
    },
    {
      "midi": 61,
      "hit": false,
      "t": 29499.999999999996,
      "d": 477.0833333333321,
      "v": 95
    },
    {
      "midi": 64,
      "hit": false,
      "t": 29624.999999999996,
      "d": 340.625,
      "v": 95
    },
    {
      "midi": 69,
      "hit": false,
      "t": 29749.999999999996,
      "d": 215.625,
      "v": 95
    },
    {
      "midi": 71,
      "hit": false,
      "t": 29999.999999999996,
      "d": 438.5416666666679,
      "v": 95
    },
    {
      "midi": 68,
      "hit": false,
      "t": 29999.999999999996,
      "d": 469.7916666666679,
      "v": 95
    },
    {
      "midi": 61,
      "hit": false,
      "t": 29999.999999999996,
      "d": 479.1666666666679,
      "v": 95
    },
    {
      "midi": 65,
      "hit": false,
      "t": 29999.999999999996,
      "d": 479.1666666666679,
      "v": 95
    },
    {
      "midi": 71,
      "hit": false,
      "t": 30499.999999999996,
      "d": 229.16666666666788,
      "v": 95
    },
    {
      "midi": 68,
      "hit": false,
      "t": 30624.999999999996,
      "d": 270.8333333333321,
      "v": 95
    },
    {
      "midi": 65,
      "hit": false,
      "t": 30749.999999999996,
      "d": 152.08333333333212,
      "v": 95
    },
    {
      "midi": 61,
      "hit": false,
      "t": 30874.999999999996,
      "d": 81.24999999999636,
      "v": 95
    },
    {
      "midi": 66,
      "hit": false,
      "t": 30999.999999999993,
      "d": 750,
      "v": 95
    },
    {
      "midi": 57,
      "hit": false,
      "t": 30999.999999999993,
      "d": 1000,
      "v": 95
    },
    {
      "midi": 61,
      "hit": false,
      "t": 30999.999999999993,
      "d": 1000,
      "v": 95
    },
    {
      "midi": 69,
      "hit": false,
      "t": 30999.999999999993,
      "d": 1000,
      "v": 95
    },
    {
      "midi": 64,
      "hit": false,
      "t": 31749.999999999993,
      "d": 250,
      "v": 95
    },
    {
      "midi": 57,
      "hit": false,
      "t": 31999.999999999993,
      "d": 1000,
      "v": 95
    },
    {
      "midi": 62,
      "hit": false,
      "t": 31999.999999999993,
      "d": 1000,
      "v": 95
    },
    {
      "midi": 66,
      "hit": false,
      "t": 31999.999999999993,
      "d": 1000,
      "v": 95
    },
    {
      "midi": 69,
      "hit": false,
      "t": 31999.999999999993,
      "d": 1000,
      "v": 95
    },
    {
      "midi": 58,
      "hit": false,
      "t": 32999.99999999999,
      "d": 125,
      "v": 80
    },
    {
      "midi": 61,
      "hit": false,
      "t": 32999.99999999999,
      "d": 125,
      "v": 80
    },
    {
      "midi": 66,
      "hit": false,
      "t": 32999.99999999999,
      "d": 125,
      "v": 80
    },
    {
      "midi": 70,
      "hit": false,
      "t": 32999.99999999999,
      "d": 125,
      "v": 80
    },
    {
      "midi": 58,
      "hit": false,
      "t": 33499.99999999999,
      "d": 125,
      "v": 80
    },
    {
      "midi": 61,
      "hit": false,
      "t": 33499.99999999999,
      "d": 125,
      "v": 80
    },
    {
      "midi": 66,
      "hit": false,
      "t": 33499.99999999999,
      "d": 125,
      "v": 80
    },
    {
      "midi": 70,
      "hit": false,
      "t": 33499.99999999999,
      "d": 125,
      "v": 80
    },
    {
      "midi": 58,
      "hit": false,
      "t": 33999.99999999999,
      "d": 125,
      "v": 80
    },
    {
      "midi": 61,
      "hit": false,
      "t": 33999.99999999999,
      "d": 125,
      "v": 80
    },
    {
      "midi": 66,
      "hit": false,
      "t": 33999.99999999999,
      "d": 125,
      "v": 80
    },
    {
      "midi": 70,
      "hit": false,
      "t": 33999.99999999999,
      "d": 125,
      "v": 80
    },
    {
      "midi": 58,
      "hit": false,
      "t": 34499.99999999999,
      "d": 125,
      "v": 80
    },
    {
      "midi": 61,
      "hit": false,
      "t": 34499.99999999999,
      "d": 125,
      "v": 80
    },
    {
      "midi": 66,
      "hit": false,
      "t": 34499.99999999999,
      "d": 125,
      "v": 80
    },
    {
      "midi": 70,
      "hit": false,
      "t": 34499.99999999999,
      "d": 125,
      "v": 80
    },
    {
      "midi": 58,
      "hit": false,
      "t": 34999.99999999999,
      "d": 125,
      "v": 80
    },
    {
      "midi": 61,
      "hit": false,
      "t": 34999.99999999999,
      "d": 125,
      "v": 80
    },
    {
      "midi": 66,
      "hit": false,
      "t": 34999.99999999999,
      "d": 125,
      "v": 80
    },
    {
      "midi": 70,
      "hit": false,
      "t": 34999.99999999999,
      "d": 125,
      "v": 80
    },
    {
      "midi": 58,
      "hit": false,
      "t": 35499.99999999999,
      "d": 125,
      "v": 80
    },
    {
      "midi": 61,
      "hit": false,
      "t": 35499.99999999999,
      "d": 125,
      "v": 80
    },
    {
      "midi": 66,
      "hit": false,
      "t": 35499.99999999999,
      "d": 125,
      "v": 80
    },
    {
      "midi": 70,
      "hit": false,
      "t": 35499.99999999999,
      "d": 125,
      "v": 80
    },
    {
      "midi": 59,
      "hit": false,
      "t": 35999.99999999999,
      "d": 1000,
      "v": 95
    },
    {
      "midi": 62,
      "hit": false,
      "t": 35999.99999999999,
      "d": 1000,
      "v": 95
    },
    {
      "midi": 66,
      "hit": false,
      "t": 35999.99999999999,
      "d": 1000,
      "v": 95
    },
    {
      "midi": 71,
      "hit": false,
      "t": 35999.99999999999,
      "d": 1000,
      "v": 95
    },
    {
      "midi": 59,
      "hit": false,
      "t": 36999.99999999999,
      "d": 1000,
      "v": 95
    },
    {
      "midi": 64,
      "hit": false,
      "t": 36999.99999999999,
      "d": 1000,
      "v": 95
    },
    {
      "midi": 68,
      "hit": false,
      "t": 36999.99999999999,
      "d": 1000,
      "v": 95
    },
    {
      "midi": 71,
      "hit": false,
      "t": 36999.99999999999,
      "d": 1000,
      "v": 95
    },
    {
      "midi": 61,
      "hit": false,
      "t": 37999.99999999999,
      "d": 442.70833333333576,
      "v": 95
    },
    {
      "midi": 73,
      "hit": false,
      "t": 37999.99999999999,
      "d": 484.375,
      "v": 95
    },
    {
      "midi": 69,
      "hit": false,
      "t": 37999.99999999999,
      "d": 487.5,
      "v": 95
    },
    {
      "midi": 64,
      "hit": false,
      "t": 37999.99999999999,
      "d": 490.625,
      "v": 95
    },
    {
      "midi": 61,
      "hit": false,
      "t": 38499.99999999999,
      "d": 477.08333333333576,
      "v": 95
    },
    {
      "midi": 64,
      "hit": false,
      "t": 38624.99999999999,
      "d": 340.625,
      "v": 95
    },
    {
      "midi": 69,
      "hit": false,
      "t": 38749.99999999999,
      "d": 215.625,
      "v": 95
    },
    {
      "midi": 71,
      "hit": false,
      "t": 38999.99999999999,
      "d": 438.54166666666424,
      "v": 95
    },
    {
      "midi": 68,
      "hit": false,
      "t": 38999.99999999999,
      "d": 469.79166666666424,
      "v": 95
    },
    {
      "midi": 61,
      "hit": false,
      "t": 38999.99999999999,
      "d": 479.16666666666424,
      "v": 95
    },
    {
      "midi": 65,
      "hit": false,
      "t": 38999.99999999999,
      "d": 479.16666666666424,
      "v": 95
    },
    {
      "midi": 71,
      "hit": false,
      "t": 39499.99999999999,
      "d": 229.16666666666424,
      "v": 95
    },
    {
      "midi": 68,
      "hit": false,
      "t": 39624.99999999999,
      "d": 270.83333333333576,
      "v": 95
    },
    {
      "midi": 65,
      "hit": false,
      "t": 39749.99999999999,
      "d": 152.08333333333576,
      "v": 95
    },
    {
      "midi": 61,
      "hit": false,
      "t": 39874.99999999999,
      "d": 81.25,
      "v": 95
    },
    {
      "midi": 66,
      "hit": false,
      "t": 39999.99999999999,
      "d": 750,
      "v": 95
    },
    {
      "midi": 57,
      "hit": false,
      "t": 39999.99999999999,
      "d": 1000,
      "v": 95
    },
    {
      "midi": 61,
      "hit": false,
      "t": 39999.99999999999,
      "d": 1000,
      "v": 95
    },
    {
      "midi": 69,
      "hit": false,
      "t": 39999.99999999999,
      "d": 1000,
      "v": 95
    },
    {
      "midi": 64,
      "hit": false,
      "t": 40749.99999999999,
      "d": 250,
      "v": 95
    },
    {
      "midi": 57,
      "hit": false,
      "t": 40999.99999999999,
      "d": 1000,
      "v": 95
    },
    {
      "midi": 62,
      "hit": false,
      "t": 40999.99999999999,
      "d": 1000,
      "v": 95
    },
    {
      "midi": 66,
      "hit": false,
      "t": 40999.99999999999,
      "d": 1000,
      "v": 95
    },
    {
      "midi": 69,
      "hit": false,
      "t": 40999.99999999999,
      "d": 1000,
      "v": 95
    },
    {
      "midi": 58,
      "hit": false,
      "t": 41999.99999999999,
      "d": 125,
      "v": 80
    },
    {
      "midi": 61,
      "hit": false,
      "t": 41999.99999999999,
      "d": 125,
      "v": 80
    },
    {
      "midi": 66,
      "hit": false,
      "t": 41999.99999999999,
      "d": 125,
      "v": 80
    },
    {
      "midi": 70,
      "hit": false,
      "t": 41999.99999999999,
      "d": 125,
      "v": 80
    },
    {
      "midi": 58,
      "hit": false,
      "t": 42499.99999999999,
      "d": 125,
      "v": 80
    },
    {
      "midi": 61,
      "hit": false,
      "t": 42499.99999999999,
      "d": 125,
      "v": 80
    },
    {
      "midi": 66,
      "hit": false,
      "t": 42499.99999999999,
      "d": 125,
      "v": 80
    },
    {
      "midi": 70,
      "hit": false,
      "t": 42499.99999999999,
      "d": 125,
      "v": 80
    },
    {
      "midi": 58,
      "hit": false,
      "t": 42999.99999999999,
      "d": 125,
      "v": 80
    },
    {
      "midi": 61,
      "hit": false,
      "t": 42999.99999999999,
      "d": 125,
      "v": 80
    },
    {
      "midi": 66,
      "hit": false,
      "t": 42999.99999999999,
      "d": 125,
      "v": 80
    },
    {
      "midi": 70,
      "hit": false,
      "t": 42999.99999999999,
      "d": 125,
      "v": 80
    },
    {
      "midi": 58,
      "hit": false,
      "t": 43499.99999999999,
      "d": 125,
      "v": 80
    },
    {
      "midi": 61,
      "hit": false,
      "t": 43499.99999999999,
      "d": 125,
      "v": 80
    },
    {
      "midi": 66,
      "hit": false,
      "t": 43499.99999999999,
      "d": 125,
      "v": 80
    },
    {
      "midi": 70,
      "hit": false,
      "t": 43499.99999999999,
      "d": 125,
      "v": 80
    },
    {
      "midi": 58,
      "hit": false,
      "t": 43999.99999999999,
      "d": 125,
      "v": 80
    },
    {
      "midi": 61,
      "hit": false,
      "t": 43999.99999999999,
      "d": 125,
      "v": 80
    },
    {
      "midi": 66,
      "hit": false,
      "t": 43999.99999999999,
      "d": 125,
      "v": 80
    },
    {
      "midi": 70,
      "hit": false,
      "t": 43999.99999999999,
      "d": 125,
      "v": 80
    },
    {
      "midi": 58,
      "hit": false,
      "t": 44499.99999999999,
      "d": 125,
      "v": 80
    },
    {
      "midi": 61,
      "hit": false,
      "t": 44499.99999999999,
      "d": 125,
      "v": 80
    },
    {
      "midi": 66,
      "hit": false,
      "t": 44499.99999999999,
      "d": 125,
      "v": 80
    },
    {
      "midi": 70,
      "hit": false,
      "t": 44499.99999999999,
      "d": 125,
      "v": 80
    },
    {
      "midi": 71,
      "hit": false,
      "t": 44999.99999999999,
      "d": 250,
      "v": 95
    },
    {
      "midi": 66,
      "hit": false,
      "t": 45249.99999999999,
      "d": 250,
      "v": 95
    },
    {
      "midi": 71,
      "hit": false,
      "t": 45499.99999999999,
      "d": 250,
      "v": 95
    },
    {
      "midi": 66,
      "hit": false,
      "t": 45749.99999999999,
      "d": 250,
      "v": 95
    },
    {
      "midi": 68,
      "hit": false,
      "t": 45999.99999999999,
      "d": 250,
      "v": 95
    },
    {
      "midi": 64,
      "hit": false,
      "t": 46249.99999999999,
      "d": 250,
      "v": 95
    },
    {
      "midi": 68,
      "hit": false,
      "t": 46499.99999999999,
      "d": 250,
      "v": 95
    },
    {
      "midi": 64,
      "hit": false,
      "t": 46749.99999999999,
      "d": 250,
      "v": 95
    },
    {
      "midi": 71,
      "hit": false,
      "t": 46999.99999999999,
      "d": 250,
      "v": 95
    },
    {
      "midi": 66,
      "hit": false,
      "t": 47249.99999999999,
      "d": 250,
      "v": 95
    },
    {
      "midi": 71,
      "hit": false,
      "t": 47499.99999999999,
      "d": 250,
      "v": 95
    },
    {
      "midi": 66,
      "hit": false,
      "t": 47749.99999999999,
      "d": 250,
      "v": 95
    },
    {
      "midi": 68,
      "hit": false,
      "t": 47999.99999999999,
      "d": 250,
      "v": 95
    },
    {
      "midi": 64,
      "hit": false,
      "t": 48249.99999999999,
      "d": 250,
      "v": 95
    },
    {
      "midi": 68,
      "hit": false,
      "t": 48499.99999999999,
      "d": 250,
      "v": 95
    },
    {
      "midi": 71,
      "hit": false,
      "t": 48749.99999999999,
      "d": 250,
      "v": 95
    },
    {
      "midi": 69,
      "hit": false,
      "t": 48999.99999999999,
      "d": 31.25,
      "v": 68
    },
    {
      "midi": 73,
      "hit": false,
      "t": 48999.99999999999,
      "d": 31.25,
      "v": 62
    },
    {
      "midi": 76,
      "hit": false,
      "t": 48999.99999999999,
      "d": 31.25,
      "v": 73
    },
    {
      "midi": 81,
      "hit": false,
      "t": 48999.99999999999,
      "d": 31.25,
      "v": 71
    },
    {
      "midi": 69,
      "hit": false,
      "t": 49124.99999999999,
      "d": 31.25,
      "v": 52
    },
    {
      "midi": 73,
      "hit": false,
      "t": 49124.99999999999,
      "d": 31.25,
      "v": 56
    },
    {
      "midi": 76,
      "hit": false,
      "t": 49124.99999999999,
      "d": 31.25,
      "v": 68
    },
    {
      "midi": 81,
      "hit": false,
      "t": 49124.99999999999,
      "d": 31.25,
      "v": 44
    },
    {
      "midi": 69,
      "hit": false,
      "t": 49249.99999999999,
      "d": 31.25,
      "v": 79
    },
    {
      "midi": 73,
      "hit": false,
      "t": 49249.99999999999,
      "d": 31.25,
      "v": 79
    },
    {
      "midi": 76,
      "hit": false,
      "t": 49249.99999999999,
      "d": 31.25,
      "v": 86
    },
    {
      "midi": 81,
      "hit": false,
      "t": 49249.99999999999,
      "d": 31.25,
      "v": 78
    },
    {
      "midi": 69,
      "hit": false,
      "t": 49499.99999999999,
      "d": 31.25,
      "v": 97
    },
    {
      "midi": 73,
      "hit": false,
      "t": 49499.99999999999,
      "d": 31.25,
      "v": 97
    },
    {
      "midi": 76,
      "hit": false,
      "t": 49499.99999999999,
      "d": 31.25,
      "v": 97
    },
    {
      "midi": 81,
      "hit": false,
      "t": 49499.99999999999,
      "d": 31.25,
      "v": 97
    },
    {
      "midi": 73,
      "hit": false,
      "t": 49749.99999999999,
      "d": 31.25,
      "v": 44
    },
    {
      "midi": 76,
      "hit": false,
      "t": 49749.99999999999,
      "d": 31.25,
      "v": 46
    },
    {
      "midi": 73,
      "hit": false,
      "t": 49874.99999999999,
      "d": 31.25,
      "v": 49
    },
    {
      "midi": 76,
      "hit": false,
      "t": 49874.99999999999,
      "d": 31.25,
      "v": 56
    },
    {
      "midi": 81,
      "hit": false,
      "t": 49874.99999999999,
      "d": 31.25,
      "v": 32
    },
    {
      "midi": 65,
      "hit": false,
      "t": 49999.99999999999,
      "d": 31.25,
      "v": 68
    },
    {
      "midi": 74,
      "hit": false,
      "t": 49999.99999999999,
      "d": 31.25,
      "v": 57
    },
    {
      "midi": 77,
      "hit": false,
      "t": 49999.99999999999,
      "d": 31.25,
      "v": 48
    },
    {
      "midi": 65,
      "hit": false,
      "t": 50124.99999999999,
      "d": 31.25,
      "v": 62
    },
    {
      "midi": 71,
      "hit": false,
      "t": 50124.99999999999,
      "d": 31.25,
      "v": 44
    },
    {
      "midi": 74,
      "hit": false,
      "t": 50124.99999999999,
      "d": 31.25,
      "v": 54
    },
    {
      "midi": 77,
      "hit": false,
      "t": 50124.99999999999,
      "d": 31.25,
      "v": 51
    },
    {
      "midi": 83,
      "hit": false,
      "t": 50124.99999999999,
      "d": 31.25,
      "v": 52
    },
    {
      "midi": 65,
      "hit": false,
      "t": 50249.99999999999,
      "d": 31.25,
      "v": 69
    },
    {
      "midi": 71,
      "hit": false,
      "t": 50249.99999999999,
      "d": 31.25,
      "v": 66
    },
    {
      "midi": 74,
      "hit": false,
      "t": 50249.99999999999,
      "d": 31.25,
      "v": 80
    },
    {
      "midi": 77,
      "hit": false,
      "t": 50249.99999999999,
      "d": 31.25,
      "v": 78
    },
    {
      "midi": 81,
      "hit": false,
      "t": 50249.99999999999,
      "d": 31.25,
      "v": 80
    },
    {
      "midi": 83,
      "hit": false,
      "t": 50249.99999999999,
      "d": 31.25,
      "v": 70
    },
    {
      "midi": 65,
      "hit": false,
      "t": 50499.99999999999,
      "d": 31.25,
      "v": 71
    },
    {
      "midi": 71,
      "hit": false,
      "t": 50499.99999999999,
      "d": 31.25,
      "v": 92
    },
    {
      "midi": 74,
      "hit": false,
      "t": 50499.99999999999,
      "d": 31.25,
      "v": 97
    },
    {
      "midi": 77,
      "hit": false,
      "t": 50499.99999999999,
      "d": 31.25,
      "v": 86
    },
    {
      "midi": 81,
      "hit": false,
      "t": 50499.99999999999,
      "d": 31.25,
      "v": 83
    },
    {
      "midi": 83,
      "hit": false,
      "t": 50499.99999999999,
      "d": 31.25,
      "v": 89
    },
    {
      "midi": 74,
      "hit": false,
      "t": 50749.99999999999,
      "d": 31.25,
      "v": 49
    },
    {
      "midi": 77,
      "hit": false,
      "t": 50749.99999999999,
      "d": 31.25,
      "v": 46
    },
    {
      "midi": 81,
      "hit": false,
      "t": 50749.99999999999,
      "d": 31.25,
      "v": 48
    },
    {
      "midi": 71,
      "hit": false,
      "t": 50874.99999999999,
      "d": 31.25,
      "v": 53
    },
    {
      "midi": 74,
      "hit": false,
      "t": 50874.99999999999,
      "d": 31.25,
      "v": 68
    },
    {
      "midi": 77,
      "hit": false,
      "t": 50874.99999999999,
      "d": 31.25,
      "v": 68
    },
    {
      "midi": 81,
      "hit": false,
      "t": 50874.99999999999,
      "d": 31.25,
      "v": 63
    },
    {
      "midi": 83,
      "hit": false,
      "t": 50874.99999999999,
      "d": 31.25,
      "v": 55
    },
    {
      "midi": 64,
      "hit": false,
      "t": 50999.99999999999,
      "d": 31.25,
      "v": 41
    },
    {
      "midi": 69,
      "hit": false,
      "t": 50999.99999999999,
      "d": 31.25,
      "v": 60
    },
    {
      "midi": 73,
      "hit": false,
      "t": 50999.99999999999,
      "d": 31.25,
      "v": 43
    },
    {
      "midi": 76,
      "hit": false,
      "t": 50999.99999999999,
      "d": 31.25,
      "v": 41
    },
    {
      "midi": 64,
      "hit": false,
      "t": 51124.99999999999,
      "d": 31.25,
      "v": 51
    },
    {
      "midi": 69,
      "hit": false,
      "t": 51124.99999999999,
      "d": 31.25,
      "v": 64
    },
    {
      "midi": 73,
      "hit": false,
      "t": 51124.99999999999,
      "d": 31.25,
      "v": 53
    },
    {
      "midi": 76,
      "hit": false,
      "t": 51124.99999999999,
      "d": 31.25,
      "v": 51
    },
    {
      "midi": 64,
      "hit": false,
      "t": 51249.99999999999,
      "d": 31.25,
      "v": 73
    },
    {
      "midi": 69,
      "hit": false,
      "t": 51249.99999999999,
      "d": 31.25,
      "v": 73
    },
    {
      "midi": 73,
      "hit": false,
      "t": 51249.99999999999,
      "d": 31.25,
      "v": 61
    },
    {
      "midi": 76,
      "hit": false,
      "t": 51249.99999999999,
      "d": 31.25,
      "v": 77
    },
    {
      "midi": 64,
      "hit": false,
      "t": 51499.99999999999,
      "d": 31.25,
      "v": 97
    },
    {
      "midi": 69,
      "hit": false,
      "t": 51499.99999999999,
      "d": 31.25,
      "v": 97
    },
    {
      "midi": 73,
      "hit": false,
      "t": 51499.99999999999,
      "d": 31.25,
      "v": 97
    },
    {
      "midi": 76,
      "hit": false,
      "t": 51499.99999999999,
      "d": 31.25,
      "v": 97
    },
    {
      "midi": 64,
      "hit": false,
      "t": 51749.99999999999,
      "d": 31.25,
      "v": 34
    },
    {
      "midi": 69,
      "hit": false,
      "t": 51749.99999999999,
      "d": 31.25,
      "v": 65
    },
    {
      "midi": 73,
      "hit": false,
      "t": 51749.99999999999,
      "d": 31.25,
      "v": 50
    },
    {
      "midi": 76,
      "hit": false,
      "t": 51749.99999999999,
      "d": 31.25,
      "v": 51
    },
    {
      "midi": 64,
      "hit": false,
      "t": 51874.99999999999,
      "d": 31.25,
      "v": 56
    },
    {
      "midi": 69,
      "hit": false,
      "t": 51874.99999999999,
      "d": 31.25,
      "v": 72
    },
    {
      "midi": 73,
      "hit": false,
      "t": 51874.99999999999,
      "d": 31.25,
      "v": 62
    },
    {
      "midi": 76,
      "hit": false,
      "t": 51874.99999999999,
      "d": 31.25,
      "v": 54
    },
    {
      "midi": 64,
      "hit": false,
      "t": 51999.99999999999,
      "d": 31.25,
      "v": 62
    },
    {
      "midi": 68,
      "hit": false,
      "t": 51999.99999999999,
      "d": 31.25,
      "v": 59
    },
    {
      "midi": 73,
      "hit": false,
      "t": 51999.99999999999,
      "d": 31.25,
      "v": 63
    },
    {
      "midi": 76,
      "hit": false,
      "t": 51999.99999999999,
      "d": 31.25,
      "v": 71
    },
    {
      "midi": 64,
      "hit": false,
      "t": 52124.99999999999,
      "d": 31.25,
      "v": 50
    },
    {
      "midi": 68,
      "hit": false,
      "t": 52124.99999999999,
      "d": 31.25,
      "v": 54
    },
    {
      "midi": 73,
      "hit": false,
      "t": 52124.99999999999,
      "d": 31.25,
      "v": 59
    },
    {
      "midi": 76,
      "hit": false,
      "t": 52124.99999999999,
      "d": 31.25,
      "v": 56
    },
    {
      "midi": 64,
      "hit": false,
      "t": 52249.99999999999,
      "d": 31.25,
      "v": 73
    },
    {
      "midi": 68,
      "hit": false,
      "t": 52249.99999999999,
      "d": 31.25,
      "v": 80
    },
    {
      "midi": 73,
      "hit": false,
      "t": 52249.99999999999,
      "d": 31.25,
      "v": 72
    },
    {
      "midi": 76,
      "hit": false,
      "t": 52249.99999999999,
      "d": 31.25,
      "v": 70
    },
    {
      "midi": 64,
      "hit": false,
      "t": 52499.99999999999,
      "d": 31.25,
      "v": 97
    },
    {
      "midi": 68,
      "hit": false,
      "t": 52499.99999999999,
      "d": 31.25,
      "v": 97
    },
    {
      "midi": 73,
      "hit": false,
      "t": 52499.99999999999,
      "d": 31.25,
      "v": 97
    },
    {
      "midi": 76,
      "hit": false,
      "t": 52499.99999999999,
      "d": 31.25,
      "v": 94
    },
    {
      "midi": 64,
      "hit": false,
      "t": 52749.99999999999,
      "d": 31.25,
      "v": 48
    },
    {
      "midi": 68,
      "hit": false,
      "t": 52749.99999999999,
      "d": 31.25,
      "v": 55
    },
    {
      "midi": 73,
      "hit": false,
      "t": 52749.99999999999,
      "d": 31.25,
      "v": 63
    },
    {
      "midi": 76,
      "hit": false,
      "t": 52749.99999999999,
      "d": 31.25,
      "v": 64
    },
    {
      "midi": 64,
      "hit": false,
      "t": 52874.99999999999,
      "d": 31.25,
      "v": 71
    },
    {
      "midi": 68,
      "hit": false,
      "t": 52874.99999999999,
      "d": 31.25,
      "v": 64
    },
    {
      "midi": 73,
      "hit": false,
      "t": 52874.99999999999,
      "d": 31.25,
      "v": 69
    },
    {
      "midi": 76,
      "hit": false,
      "t": 52874.99999999999,
      "d": 31.25,
      "v": 70
    },
    {
      "midi": 66,
      "hit": false,
      "t": 52999.99999999999,
      "d": 31.25,
      "v": 41
    },
    {
      "midi": 69,
      "hit": false,
      "t": 52999.99999999999,
      "d": 31.25,
      "v": 65
    },
    {
      "midi": 74,
      "hit": false,
      "t": 52999.99999999999,
      "d": 31.25,
      "v": 55
    },
    {
      "midi": 78,
      "hit": false,
      "t": 52999.99999999999,
      "d": 31.25,
      "v": 41
    },
    {
      "midi": 66,
      "hit": false,
      "t": 53124.99999999999,
      "d": 31.25,
      "v": 41
    },
    {
      "midi": 69,
      "hit": false,
      "t": 53124.99999999999,
      "d": 31.25,
      "v": 66
    },
    {
      "midi": 74,
      "hit": false,
      "t": 53124.99999999999,
      "d": 31.25,
      "v": 68
    },
    {
      "midi": 78,
      "hit": false,
      "t": 53124.99999999999,
      "d": 31.25,
      "v": 51
    },
    {
      "midi": 66,
      "hit": false,
      "t": 53249.99999999999,
      "d": 31.25,
      "v": 74
    },
    {
      "midi": 69,
      "hit": false,
      "t": 53249.99999999999,
      "d": 31.25,
      "v": 78
    },
    {
      "midi": 74,
      "hit": false,
      "t": 53249.99999999999,
      "d": 31.25,
      "v": 78
    },
    {
      "midi": 78,
      "hit": false,
      "t": 53249.99999999999,
      "d": 31.25,
      "v": 67
    },
    {
      "midi": 66,
      "hit": false,
      "t": 53499.99999999999,
      "d": 31.25,
      "v": 97
    },
    {
      "midi": 69,
      "hit": false,
      "t": 53499.99999999999,
      "d": 31.25,
      "v": 97
    },
    {
      "midi": 74,
      "hit": false,
      "t": 53499.99999999999,
      "d": 31.25,
      "v": 97
    },
    {
      "midi": 78,
      "hit": false,
      "t": 53499.99999999999,
      "d": 31.25,
      "v": 97
    },
    {
      "midi": 66,
      "hit": false,
      "t": 53749.99999999999,
      "d": 31.25,
      "v": 54
    },
    {
      "midi": 69,
      "hit": false,
      "t": 53749.99999999999,
      "d": 31.25,
      "v": 64
    },
    {
      "midi": 74,
      "hit": false,
      "t": 53749.99999999999,
      "d": 31.25,
      "v": 68
    },
    {
      "midi": 78,
      "hit": false,
      "t": 53749.99999999999,
      "d": 31.25,
      "v": 49
    },
    {
      "midi": 66,
      "hit": false,
      "t": 53874.99999999999,
      "d": 31.25,
      "v": 54
    },
    {
      "midi": 69,
      "hit": false,
      "t": 53874.99999999999,
      "d": 31.25,
      "v": 80
    },
    {
      "midi": 74,
      "hit": false,
      "t": 53874.99999999999,
      "d": 31.25,
      "v": 80
    },
    {
      "midi": 78,
      "hit": false,
      "t": 53874.99999999999,
      "d": 31.25,
      "v": 56
    },
    {
      "midi": 64,
      "hit": false,
      "t": 53999.99999999999,
      "d": 31.25,
      "v": 49
    },
    {
      "midi": 69,
      "hit": false,
      "t": 53999.99999999999,
      "d": 31.25,
      "v": 61
    },
    {
      "midi": 73,
      "hit": false,
      "t": 53999.99999999999,
      "d": 31.25,
      "v": 54
    },
    {
      "midi": 76,
      "hit": false,
      "t": 53999.99999999999,
      "d": 31.25,
      "v": 48
    },
    {
      "midi": 64,
      "hit": false,
      "t": 54124.99999999999,
      "d": 31.25,
      "v": 42
    },
    {
      "midi": 69,
      "hit": false,
      "t": 54124.99999999999,
      "d": 31.25,
      "v": 66
    },
    {
      "midi": 73,
      "hit": false,
      "t": 54124.99999999999,
      "d": 31.25,
      "v": 58
    },
    {
      "midi": 76,
      "hit": false,
      "t": 54124.99999999999,
      "d": 31.25,
      "v": 38
    },
    {
      "midi": 64,
      "hit": false,
      "t": 54249.99999999999,
      "d": 31.25,
      "v": 73
    },
    {
      "midi": 69,
      "hit": false,
      "t": 54249.99999999999,
      "d": 31.25,
      "v": 80
    },
    {
      "midi": 73,
      "hit": false,
      "t": 54249.99999999999,
      "d": 31.25,
      "v": 67
    },
    {
      "midi": 76,
      "hit": false,
      "t": 54249.99999999999,
      "d": 31.25,
      "v": 70
    },
    {
      "midi": 64,
      "hit": false,
      "t": 54499.99999999999,
      "d": 31.25,
      "v": 93
    },
    {
      "midi": 69,
      "hit": false,
      "t": 54499.99999999999,
      "d": 31.25,
      "v": 95
    },
    {
      "midi": 73,
      "hit": false,
      "t": 54499.99999999999,
      "d": 31.25,
      "v": 90
    },
    {
      "midi": 76,
      "hit": false,
      "t": 54499.99999999999,
      "d": 31.25,
      "v": 87
    },
    {
      "midi": 64,
      "hit": false,
      "t": 54749.99999999999,
      "d": 31.25,
      "v": 54
    },
    {
      "midi": 69,
      "hit": false,
      "t": 54749.99999999999,
      "d": 31.25,
      "v": 67
    },
    {
      "midi": 73,
      "hit": false,
      "t": 54749.99999999999,
      "d": 31.25,
      "v": 53
    },
    {
      "midi": 76,
      "hit": false,
      "t": 54749.99999999999,
      "d": 31.25,
      "v": 43
    },
    {
      "midi": 64,
      "hit": false,
      "t": 54874.99999999999,
      "d": 31.25,
      "v": 40
    },
    {
      "midi": 69,
      "hit": false,
      "t": 54874.99999999999,
      "d": 31.25,
      "v": 65
    },
    {
      "midi": 73,
      "hit": false,
      "t": 54874.99999999999,
      "d": 31.25,
      "v": 61
    },
    {
      "midi": 76,
      "hit": false,
      "t": 54874.99999999999,
      "d": 31.25,
      "v": 50
    },
    {
      "midi": 69,
      "hit": false,
      "t": 54999.99999999999,
      "d": 31.25,
      "v": 50
    },
    {
      "midi": 71,
      "hit": false,
      "t": 54999.99999999999,
      "d": 31.25,
      "v": 37
    },
    {
      "midi": 74,
      "hit": false,
      "t": 54999.99999999999,
      "d": 31.25,
      "v": 75
    },
    {
      "midi": 64,
      "hit": false,
      "t": 55124.99999999999,
      "d": 31.25,
      "v": 48
    },
    {
      "midi": 69,
      "hit": false,
      "t": 55124.99999999999,
      "d": 31.25,
      "v": 63
    },
    {
      "midi": 71,
      "hit": false,
      "t": 55124.99999999999,
      "d": 31.25,
      "v": 61
    },
    {
      "midi": 74,
      "hit": false,
      "t": 55124.99999999999,
      "d": 31.25,
      "v": 72
    },
    {
      "midi": 76,
      "hit": false,
      "t": 55124.99999999999,
      "d": 31.25,
      "v": 49
    },
    {
      "midi": 64,
      "hit": false,
      "t": 55249.99999999999,
      "d": 31.25,
      "v": 60
    },
    {
      "midi": 69,
      "hit": false,
      "t": 55249.99999999999,
      "d": 31.25,
      "v": 67
    },
    {
      "midi": 71,
      "hit": false,
      "t": 55249.99999999999,
      "d": 31.25,
      "v": 61
    },
    {
      "midi": 74,
      "hit": false,
      "t": 55249.99999999999,
      "d": 31.25,
      "v": 71
    },
    {
      "midi": 76,
      "hit": false,
      "t": 55249.99999999999,
      "d": 31.25,
      "v": 43
    },
    {
      "midi": 64,
      "hit": false,
      "t": 55499.99999999999,
      "d": 31.25,
      "v": 89
    },
    {
      "midi": 69,
      "hit": false,
      "t": 55499.99999999999,
      "d": 31.25,
      "v": 94
    },
    {
      "midi": 71,
      "hit": false,
      "t": 55499.99999999999,
      "d": 31.25,
      "v": 89
    },
    {
      "midi": 74,
      "hit": false,
      "t": 55499.99999999999,
      "d": 31.25,
      "v": 86
    },
    {
      "midi": 76,
      "hit": false,
      "t": 55499.99999999999,
      "d": 31.25,
      "v": 86
    },
    {
      "midi": 64,
      "hit": false,
      "t": 55749.99999999999,
      "d": 31.25,
      "v": 66
    },
    {
      "midi": 69,
      "hit": false,
      "t": 55749.99999999999,
      "d": 31.25,
      "v": 59
    },
    {
      "midi": 71,
      "hit": false,
      "t": 55749.99999999999,
      "d": 31.25,
      "v": 71
    },
    {
      "midi": 74,
      "hit": false,
      "t": 55749.99999999999,
      "d": 31.25,
      "v": 86
    },
    {
      "midi": 76,
      "hit": false,
      "t": 55749.99999999999,
      "d": 31.25,
      "v": 70
    },
    {
      "midi": 64,
      "hit": false,
      "t": 55874.99999999999,
      "d": 31.25,
      "v": 47
    },
    {
      "midi": 69,
      "hit": false,
      "t": 55874.99999999999,
      "d": 31.25,
      "v": 36
    },
    {
      "midi": 71,
      "hit": false,
      "t": 55874.99999999999,
      "d": 31.25,
      "v": 49
    },
    {
      "midi": 76,
      "hit": false,
      "t": 55874.99999999999,
      "d": 31.25,
      "v": 56
    },
    {
      "midi": 69,
      "hit": false,
      "t": 56124.99999999999,
      "d": 31.25,
      "v": 49
    },
    {
      "midi": 71,
      "hit": false,
      "t": 56124.99999999999,
      "d": 31.25,
      "v": 45
    },
    {
      "midi": 64,
      "hit": false,
      "t": 56249.99999999999,
      "d": 31.25,
      "v": 60
    },
    {
      "midi": 69,
      "hit": false,
      "t": 56249.99999999999,
      "d": 31.25,
      "v": 70
    },
    {
      "midi": 71,
      "hit": false,
      "t": 56249.99999999999,
      "d": 31.25,
      "v": 70
    },
    {
      "midi": 76,
      "hit": false,
      "t": 56249.99999999999,
      "d": 31.25,
      "v": 81
    },
    {
      "midi": 64,
      "hit": false,
      "t": 56499.99999999999,
      "d": 31.25,
      "v": 64
    },
    {
      "midi": 69,
      "hit": false,
      "t": 56499.99999999999,
      "d": 31.25,
      "v": 71
    },
    {
      "midi": 71,
      "hit": false,
      "t": 56499.99999999999,
      "d": 31.25,
      "v": 78
    },
    {
      "midi": 76,
      "hit": false,
      "t": 56499.99999999999,
      "d": 31.25,
      "v": 79
    },
    {
      "midi": 64,
      "hit": false,
      "t": 56624.99999999999,
      "d": 31.25,
      "v": 80
    },
    {
      "midi": 69,
      "hit": false,
      "t": 56624.99999999999,
      "d": 31.25,
      "v": 80
    },
    {
      "midi": 71,
      "hit": false,
      "t": 56624.99999999999,
      "d": 31.25,
      "v": 86
    },
    {
      "midi": 76,
      "hit": false,
      "t": 56624.99999999999,
      "d": 31.25,
      "v": 81
    },
    {
      "midi": 64,
      "hit": false,
      "t": 56749.99999999999,
      "d": 31.25,
      "v": 87
    },
    {
      "midi": 69,
      "hit": false,
      "t": 56749.99999999999,
      "d": 31.25,
      "v": 86
    },
    {
      "midi": 71,
      "hit": false,
      "t": 56749.99999999999,
      "d": 31.25,
      "v": 88
    },
    {
      "midi": 76,
      "hit": false,
      "t": 56749.99999999999,
      "d": 31.25,
      "v": 97
    },
    {
      "midi": 64,
      "hit": false,
      "t": 56874.99999999999,
      "d": 31.25,
      "v": 88
    },
    {
      "midi": 69,
      "hit": false,
      "t": 56874.99999999999,
      "d": 31.25,
      "v": 87
    },
    {
      "midi": 71,
      "hit": false,
      "t": 56874.99999999999,
      "d": 31.25,
      "v": 87
    },
    {
      "midi": 76,
      "hit": false,
      "t": 56874.99999999999,
      "d": 31.25,
      "v": 97
    },
    {
      "midi": 64,
      "hit": false,
      "t": 57249.99999999999,
      "d": 36.45833333333576,
      "v": 17
    },
    {
      "midi": 69,
      "hit": false,
      "t": 57249.99999999999,
      "d": 37.5,
      "v": 46
    },
    {
      "midi": 73,
      "hit": false,
      "t": 57249.99999999999,
      "d": 42.70833333333576,
      "v": 36
    },
    {
      "midi": 76,
      "hit": false,
      "t": 57249.99999999999,
      "d": 46.875,
      "v": 41
    },
    {
      "midi": 64,
      "hit": false,
      "t": 57499.99999999999,
      "d": 54.16666666666424,
      "v": 72
    },
    {
      "midi": 69,
      "hit": false,
      "t": 57499.99999999999,
      "d": 57.29166666666424,
      "v": 71
    },
    {
      "midi": 73,
      "hit": false,
      "t": 57499.99999999999,
      "d": 67.70833333332848,
      "v": 69
    },
    {
      "midi": 76,
      "hit": false,
      "t": 57499.99999999999,
      "d": 69.79166666666424,
      "v": 69
    },
    {
      "midi": 69,
      "hit": false,
      "t": 58249.99999999999,
      "d": 44.79166666666424,
      "v": 61
    },
    {
      "midi": 71,
      "hit": false,
      "t": 58249.99999999999,
      "d": 44.79166666666424,
      "v": 54
    },
    {
      "midi": 74,
      "hit": false,
      "t": 58249.99999999999,
      "d": 44.79166666666424,
      "v": 54
    },
    {
      "midi": 65,
      "hit": false,
      "t": 58249.99999999999,
      "d": 47.91666666666424,
      "v": 39
    },
    {
      "midi": 65,
      "hit": false,
      "t": 58499.99999999999,
      "d": 50,
      "v": 80
    },
    {
      "midi": 69,
      "hit": false,
      "t": 58499.99999999999,
      "d": 50,
      "v": 83
    },
    {
      "midi": 74,
      "hit": false,
      "t": 58499.99999999999,
      "d": 58.33333333333576,
      "v": 83
    },
    {
      "midi": 71,
      "hit": false,
      "t": 58499.99999999999,
      "d": 59.375,
      "v": 89
    },
    {
      "midi": 64,
      "hit": false,
      "t": 59249.99999999999,
      "d": 47.91666666666424,
      "v": 48
    },
    {
      "midi": 69,
      "hit": false,
      "t": 59249.99999999999,
      "d": 48.95833333332848,
      "v": 59
    },
    {
      "midi": 73,
      "hit": false,
      "t": 59249.99999999999,
      "d": 53.124999999992724,
      "v": 48
    },
    {
      "midi": 76,
      "hit": false,
      "t": 59249.99999999999,
      "d": 53.124999999992724,
      "v": 50
    },
    {
      "midi": 69,
      "hit": false,
      "t": 59499.999999999985,
      "d": 43.75,
      "v": 86
    },
    {
      "midi": 64,
      "hit": false,
      "t": 59499.999999999985,
      "d": 44.79166666666424,
      "v": 86
    },
    {
      "midi": 73,
      "hit": false,
      "t": 59499.999999999985,
      "d": 46.875,
      "v": 79
    },
    {
      "midi": 76,
      "hit": false,
      "t": 59499.999999999985,
      "d": 46.875,
      "v": 82
    },
    {
      "midi": 68,
      "hit": false,
      "t": 60124.999999999985,
      "d": 20.83333333333576,
      "v": 39
    },
    {
      "midi": 64,
      "hit": false,
      "t": 60124.999999999985,
      "d": 21.875,
      "v": 59
    },
    {
      "midi": 61,
      "hit": false,
      "t": 60124.999999999985,
      "d": 31.25,
      "v": 33
    },
    {
      "midi": 71,
      "hit": false,
      "t": 60124.999999999985,
      "d": 37.5,
      "v": 51
    },
    {
      "midi": 68,
      "hit": false,
      "t": 60249.999999999985,
      "d": 37.5,
      "v": 60
    },
    {
      "midi": 64,
      "hit": false,
      "t": 60249.999999999985,
      "d": 38.54166666666424,
      "v": 78
    },
    {
      "midi": 61,
      "hit": false,
      "t": 60249.999999999985,
      "d": 39.58333333332848,
      "v": 59
    },
    {
      "midi": 71,
      "hit": false,
      "t": 60249.999999999985,
      "d": 44.79166666666424,
      "v": 63
    },
    {
      "midi": 64,
      "hit": false,
      "t": 60499.999999999985,
      "d": 53.125,
      "v": 87
    },
    {
      "midi": 61,
      "hit": false,
      "t": 60499.999999999985,
      "d": 55.20833333333576,
      "v": 88
    },
    {
      "midi": 68,
      "hit": false,
      "t": 60499.999999999985,
      "d": 60.41666666667152,
      "v": 76
    },
    {
      "midi": 71,
      "hit": false,
      "t": 60499.999999999985,
      "d": 64.58333333333576,
      "v": 82
    },
    {
      "midi": 62,
      "hit": false,
      "t": 60999.999999999985,
      "d": 28.125,
      "v": 40
    },
    {
      "midi": 74,
      "hit": false,
      "t": 60999.999999999985,
      "d": 32.29166666666424,
      "v": 39
    },
    {
      "midi": 69,
      "hit": false,
      "t": 60999.999999999985,
      "d": 33.33333333332848,
      "v": 54
    },
    {
      "midi": 66,
      "hit": false,
      "t": 60999.999999999985,
      "d": 34.374999999992724,
      "v": 44
    },
    {
      "midi": 74,
      "hit": false,
      "t": 61124.99999999998,
      "d": 21.875,
      "v": 30
    },
    {
      "midi": 62,
      "hit": false,
      "t": 61124.99999999998,
      "d": 29.16666666666424,
      "v": 48
    },
    {
      "midi": 69,
      "hit": false,
      "t": 61124.99999999998,
      "d": 29.16666666666424,
      "v": 60
    },
    {
      "midi": 66,
      "hit": false,
      "t": 61124.99999999998,
      "d": 34.375,
      "v": 49
    },
    {
      "midi": 62,
      "hit": false,
      "t": 61249.99999999998,
      "d": 31.25,
      "v": 68
    },
    {
      "midi": 74,
      "hit": false,
      "t": 61249.99999999998,
      "d": 33.33333333333576,
      "v": 65
    },
    {
      "midi": 69,
      "hit": false,
      "t": 61249.99999999998,
      "d": 36.45833333333576,
      "v": 75
    },
    {
      "midi": 66,
      "hit": false,
      "t": 61249.99999999998,
      "d": 38.54166666667152,
      "v": 74
    },
    {
      "midi": 62,
      "hit": false,
      "t": 61499.999999999985,
      "d": 37.5,
      "v": 83
    },
    {
      "midi": 66,
      "hit": false,
      "t": 61499.999999999985,
      "d": 39.58333333333576,
      "v": 82
    },
    {
      "midi": 74,
      "hit": false,
      "t": 61499.999999999985,
      "d": 41.66666666667152,
      "v": 80
    },
    {
      "midi": 69,
      "hit": false,
      "t": 61499.999999999985,
      "d": 43.750000000007276,
      "v": 87
    },
    {
      "midi": 64,
      "hit": false,
      "t": 61749.99999999999,
      "d": 28.125,
      "v": 29
    },
    {
      "midi": 76,
      "hit": false,
      "t": 61749.99999999999,
      "d": 28.125,
      "v": 36
    },
    {
      "midi": 69,
      "hit": false,
      "t": 61749.99999999999,
      "d": 29.16666666666424,
      "v": 55
    },
    {
      "midi": 73,
      "hit": false,
      "t": 61749.99999999999,
      "d": 32.29166666666424,
      "v": 44
    },
    {
      "midi": 76,
      "hit": false,
      "t": 61874.99999999999,
      "d": 26.04166666666424,
      "v": 39
    },
    {
      "midi": 64,
      "hit": false,
      "t": 61874.99999999999,
      "d": 27.083333333328483,
      "v": 40
    },
    {
      "midi": 73,
      "hit": false,
      "t": 61874.99999999999,
      "d": 29.16666666666424,
      "v": 40
    },
    {
      "midi": 69,
      "hit": false,
      "t": 61874.99999999999,
      "d": 31.25,
      "v": 56
    },
    {
      "midi": 64,
      "hit": false,
      "t": 61999.99999999999,
      "d": 38.54166666666424,
      "v": 69
    },
    {
      "midi": 69,
      "hit": false,
      "t": 61999.99999999999,
      "d": 38.54166666666424,
      "v": 73
    },
    {
      "midi": 73,
      "hit": false,
      "t": 61999.99999999999,
      "d": 38.54166666666424,
      "v": 61
    },
    {
      "midi": 76,
      "hit": false,
      "t": 61999.99999999999,
      "d": 42.70833333332848,
      "v": 68
    },
    {
      "midi": 73,
      "hit": false,
      "t": 62124.999999999985,
      "d": 33.33333333333576,
      "v": 54
    },
    {
      "midi": 64,
      "hit": false,
      "t": 62124.999999999985,
      "d": 34.375,
      "v": 63
    },
    {
      "midi": 69,
      "hit": false,
      "t": 62124.999999999985,
      "d": 34.375,
      "v": 68
    },
    {
      "midi": 76,
      "hit": false,
      "t": 62124.999999999985,
      "d": 36.45833333333576,
      "v": 61
    },
    {
      "midi": 73,
      "hit": false,
      "t": 62249.999999999985,
      "d": 32.29166666666424,
      "v": 62
    },
    {
      "midi": 64,
      "hit": false,
      "t": 62249.999999999985,
      "d": 33.33333333332848,
      "v": 73
    },
    {
      "midi": 69,
      "hit": false,
      "t": 62249.999999999985,
      "d": 33.33333333332848,
      "v": 73
    },
    {
      "midi": 76,
      "hit": false,
      "t": 62249.999999999985,
      "d": 38.54166666666424,
      "v": 73
    },
    {
      "midi": 64,
      "hit": false,
      "t": 62499.999999999985,
      "d": 39.58333333333576,
      "v": 87
    },
    {
      "midi": 76,
      "hit": false,
      "t": 62499.999999999985,
      "d": 39.58333333333576,
      "v": 79
    },
    {
      "midi": 69,
      "hit": false,
      "t": 62499.999999999985,
      "d": 41.66666666667152,
      "v": 90
    },
    {
      "midi": 73,
      "hit": false,
      "t": 62499.999999999985,
      "d": 43.750000000007276,
      "v": 82
    },
    {
      "midi": 62,
      "hit": false,
      "t": 62999.99999999999,
      "d": 31.25,
      "v": 47
    },
    {
      "midi": 66,
      "hit": false,
      "t": 62999.99999999999,
      "d": 39.58333333333576,
      "v": 50
    },
    {
      "midi": 69,
      "hit": false,
      "t": 62999.99999999999,
      "d": 41.66666666667152,
      "v": 60
    },
    {
      "midi": 74,
      "hit": false,
      "t": 62999.99999999999,
      "d": 42.70833333333576,
      "v": 55
    },
    {
      "midi": 62,
      "hit": false,
      "t": 63124.99999999999,
      "d": 17.70833333333576,
      "v": 40
    },
    {
      "midi": 74,
      "hit": false,
      "t": 63124.99999999999,
      "d": 18.75,
      "v": 37
    },
    {
      "midi": 66,
      "hit": false,
      "t": 63124.99999999999,
      "d": 34.375,
      "v": 52
    },
    {
      "midi": 69,
      "hit": false,
      "t": 63124.99999999999,
      "d": 37.5,
      "v": 66
    },
    {
      "midi": 62,
      "hit": false,
      "t": 63249.99999999999,
      "d": 17.70833333333576,
      "v": 40
    },
    {
      "midi": 74,
      "hit": false,
      "t": 63249.99999999999,
      "d": 18.75,
      "v": 37
    },
    {
      "midi": 66,
      "hit": false,
      "t": 63249.99999999999,
      "d": 34.375,
      "v": 52
    },
    {
      "midi": 69,
      "hit": false,
      "t": 63249.99999999999,
      "d": 37.5,
      "v": 66
    },
    {
      "midi": 62,
      "hit": false,
      "t": 63499.99999999999,
      "d": 250,
      "v": 90
    },
    {
      "midi": 66,
      "hit": false,
      "t": 63499.99999999999,
      "d": 250,
      "v": 90
    },
    {
      "midi": 69,
      "hit": false,
      "t": 63499.99999999999,
      "d": 250,
      "v": 90
    },
    {
      "midi": 74,
      "hit": false,
      "t": 63499.99999999999,
      "d": 250,
      "v": 90
    },
    {
      "midi": 61,
      "hit": false,
      "t": 63749.99999999999,
      "d": 250,
      "v": 90
    },
    {
      "midi": 64,
      "hit": false,
      "t": 63749.99999999999,
      "d": 250,
      "v": 90
    },
    {
      "midi": 69,
      "hit": false,
      "t": 63749.99999999999,
      "d": 250,
      "v": 90
    },
    {
      "midi": 73,
      "hit": false,
      "t": 63749.99999999999,
      "d": 250,
      "v": 90
    },
    {
      "midi": 64,
      "hit": false,
      "t": 63999.99999999999,
      "d": 1000,
      "v": 90
    },
    {
      "midi": 69,
      "hit": false,
      "t": 63999.99999999999,
      "d": 1000,
      "v": 90
    },
    {
      "midi": 73,
      "hit": false,
      "t": 63999.99999999999,
      "d": 1000,
      "v": 90
    },
    {
      "midi": 76,
      "hit": false,
      "t": 63999.99999999999,
      "d": 1000,
      "v": 90
    },
    {
      "midi": 64,
      "hit": false,
      "t": 64250,
      "d": 253.125,
      "v": 60
    },
    {
      "midi": 73,
      "hit": false,
      "t": 64500,
      "d": 245.83333333333576,
      "v": 60
    },
    {
      "midi": 69,
      "hit": false,
      "t": 64500,
      "d": 286.45833333333576,
      "v": 60
    },
    {
      "midi": 64,
      "hit": false,
      "t": 64750,
      "d": 250,
      "v": 60
    },
    {
      "midi": 66,
      "hit": false,
      "t": 65250,
      "d": 253.125,
      "v": 60
    },
    {
      "midi": 69,
      "hit": false,
      "t": 65500,
      "d": 247.91666666667152,
      "v": 60
    },
    {
      "midi": 74,
      "hit": false,
      "t": 65500,
      "d": 255.20833333332848,
      "v": 60
    },
    {
      "midi": 66,
      "hit": false,
      "t": 65750,
      "d": 388.54166666665697,
      "v": 60
    },
    {
      "midi": 66,
      "hit": false,
      "t": 66249.99999999999,
      "d": 237.5,
      "v": 60
    },
    {
      "midi": 69,
      "hit": false,
      "t": 66499.99999999999,
      "d": 253.125,
      "v": 60
    },
    {
      "midi": 74,
      "hit": false,
      "t": 66499.99999999999,
      "d": 263.5416666666715,
      "v": 60
    },
    {
      "midi": 66,
      "hit": false,
      "t": 66749.99999999999,
      "d": 198.95833333334303,
      "v": 60
    },
    {
      "midi": 52,
      "hit": false,
      "t": 67001.04166666666,
      "d": 2022.916666666686,
      "v": 85
    },
    {
      "midi": 64,
      "hit": false,
      "t": 67250,
      "d": 251.04166666667152,
      "v": 60
    },
    {
      "midi": 57,
      "hit": false,
      "t": 67261.45833333333,
      "d": 1761.458333333343,
      "v": 85
    },
    {
      "midi": 69,
      "hit": false,
      "t": 67500,
      "d": 260.4166666666715,
      "v": 60
    },
    {
      "midi": 71,
      "hit": false,
      "t": 67500,
      "d": 270.83333333334303,
      "v": 60
    },
    {
      "midi": 62,
      "hit": false,
      "t": 67742.70833333333,
      "d": 275,
      "v": 85
    },
    {
      "midi": 64,
      "hit": false,
      "t": 67750,
      "d": 1244.7916666666715,
      "v": 60
    },
    {
      "midi": 59,
      "hit": false,
      "t": 67908.33333333333,
      "d": 1114.583333333343,
      "v": 85
    },
    {
      "midi": 68,
      "hit": false,
      "t": 67980.20833333333,
      "d": 1041.6666666666715,
      "v": 85
    },
    {
      "midi": 71,
      "hit": false,
      "t": 68000.00000000001,
      "d": 990.625,
      "v": 60
    },
    {
      "midi": 76,
      "hit": false,
      "t": 68000.00000000001,
      "d": 990.625,
      "v": 60
    },
    {
      "midi": 68,
      "hit": false,
      "t": 68000.00000000001,
      "d": 992.7083333333285,
      "v": 60
    },
    {
      "midi": 71,
      "hit": false,
      "t": 68042.70833333333,
      "d": 986.458333333343,
      "v": 85
    },
    {
      "midi": 64,
      "hit": false,
      "t": 69000,
      "d": 5.208333333328483,
      "v": 85
    },
    {
      "midi": 61,
      "hit": false,
      "t": 69000,
      "d": 442.7083333333285,
      "v": 85
    },
    {
      "midi": 73,
      "hit": false,
      "t": 69000,
      "d": 484.375,
      "v": 85
    },
    {
      "midi": 69,
      "hit": false,
      "t": 69000,
      "d": 487.5,
      "v": 85
    },
    {
      "midi": 61,
      "hit": false,
      "t": 69500,
      "d": 477.0833333333285,
      "v": 85
    },
    {
      "midi": 64,
      "hit": false,
      "t": 69625,
      "d": 340.625,
      "v": 85
    },
    {
      "midi": 69,
      "hit": false,
      "t": 69750,
      "d": 215.625,
      "v": 85
    },
    {
      "midi": 71,
      "hit": false,
      "t": 70000,
      "d": 438.5416666666715,
      "v": 85
    },
    {
      "midi": 68,
      "hit": false,
      "t": 70000,
      "d": 469.7916666666715,
      "v": 85
    },
    {
      "midi": 61,
      "hit": false,
      "t": 70000,
      "d": 479.1666666666715,
      "v": 85
    },
    {
      "midi": 65,
      "hit": false,
      "t": 70000,
      "d": 479.1666666666715,
      "v": 85
    },
    {
      "midi": 71,
      "hit": false,
      "t": 70500,
      "d": 229.16666666667152,
      "v": 85
    },
    {
      "midi": 68,
      "hit": false,
      "t": 70625,
      "d": 270.8333333333285,
      "v": 85
    },
    {
      "midi": 65,
      "hit": false,
      "t": 70750,
      "d": 152.08333333332848,
      "v": 85
    },
    {
      "midi": 61,
      "hit": false,
      "t": 70875,
      "d": 81.24999999998545,
      "v": 85
    },
    {
      "midi": 66,
      "hit": false,
      "t": 70999.99999999999,
      "d": 750,
      "v": 85
    },
    {
      "midi": 57,
      "hit": false,
      "t": 70999.99999999999,
      "d": 1000,
      "v": 85
    },
    {
      "midi": 61,
      "hit": false,
      "t": 70999.99999999999,
      "d": 1000,
      "v": 85
    },
    {
      "midi": 69,
      "hit": false,
      "t": 70999.99999999999,
      "d": 1000,
      "v": 85
    },
    {
      "midi": 64,
      "hit": false,
      "t": 71749.99999999999,
      "d": 250,
      "v": 85
    },
    {
      "midi": 57,
      "hit": false,
      "t": 71999.99999999999,
      "d": 1000,
      "v": 85
    },
    {
      "midi": 62,
      "hit": false,
      "t": 71999.99999999999,
      "d": 1000,
      "v": 85
    },
    {
      "midi": 66,
      "hit": false,
      "t": 71999.99999999999,
      "d": 1000,
      "v": 85
    },
    {
      "midi": 69,
      "hit": false,
      "t": 71999.99999999999,
      "d": 1000,
      "v": 85
    },
    {
      "midi": 58,
      "hit": false,
      "t": 72999.99999999999,
      "d": 125,
      "v": 80
    },
    {
      "midi": 61,
      "hit": false,
      "t": 72999.99999999999,
      "d": 125,
      "v": 80
    },
    {
      "midi": 66,
      "hit": false,
      "t": 72999.99999999999,
      "d": 125,
      "v": 80
    },
    {
      "midi": 70,
      "hit": false,
      "t": 72999.99999999999,
      "d": 125,
      "v": 80
    },
    {
      "midi": 58,
      "hit": false,
      "t": 73499.99999999999,
      "d": 125,
      "v": 80
    },
    {
      "midi": 61,
      "hit": false,
      "t": 73499.99999999999,
      "d": 125,
      "v": 80
    },
    {
      "midi": 66,
      "hit": false,
      "t": 73499.99999999999,
      "d": 125,
      "v": 80
    },
    {
      "midi": 70,
      "hit": false,
      "t": 73499.99999999999,
      "d": 125,
      "v": 80
    },
    {
      "midi": 58,
      "hit": false,
      "t": 73999.99999999999,
      "d": 125,
      "v": 80
    },
    {
      "midi": 61,
      "hit": false,
      "t": 73999.99999999999,
      "d": 125,
      "v": 80
    },
    {
      "midi": 66,
      "hit": false,
      "t": 73999.99999999999,
      "d": 125,
      "v": 80
    },
    {
      "midi": 70,
      "hit": false,
      "t": 73999.99999999999,
      "d": 125,
      "v": 80
    },
    {
      "midi": 58,
      "hit": false,
      "t": 74499.99999999999,
      "d": 125,
      "v": 80
    },
    {
      "midi": 61,
      "hit": false,
      "t": 74499.99999999999,
      "d": 125,
      "v": 80
    },
    {
      "midi": 66,
      "hit": false,
      "t": 74499.99999999999,
      "d": 125,
      "v": 80
    },
    {
      "midi": 70,
      "hit": false,
      "t": 74499.99999999999,
      "d": 125,
      "v": 80
    },
    {
      "midi": 58,
      "hit": false,
      "t": 74999.99999999999,
      "d": 125,
      "v": 80
    },
    {
      "midi": 61,
      "hit": false,
      "t": 74999.99999999999,
      "d": 125,
      "v": 80
    },
    {
      "midi": 66,
      "hit": false,
      "t": 74999.99999999999,
      "d": 125,
      "v": 80
    },
    {
      "midi": 70,
      "hit": false,
      "t": 74999.99999999999,
      "d": 125,
      "v": 80
    },
    {
      "midi": 58,
      "hit": false,
      "t": 75499.99999999999,
      "d": 125,
      "v": 80
    },
    {
      "midi": 61,
      "hit": false,
      "t": 75499.99999999999,
      "d": 125,
      "v": 80
    },
    {
      "midi": 66,
      "hit": false,
      "t": 75499.99999999999,
      "d": 125,
      "v": 80
    },
    {
      "midi": 70,
      "hit": false,
      "t": 75499.99999999999,
      "d": 125,
      "v": 80
    },
    {
      "midi": 59,
      "hit": false,
      "t": 75999.99999999999,
      "d": 1000,
      "v": 95
    },
    {
      "midi": 62,
      "hit": false,
      "t": 75999.99999999999,
      "d": 1000,
      "v": 95
    },
    {
      "midi": 66,
      "hit": false,
      "t": 75999.99999999999,
      "d": 1000,
      "v": 95
    },
    {
      "midi": 71,
      "hit": false,
      "t": 75999.99999999999,
      "d": 1000,
      "v": 95
    },
    {
      "midi": 59,
      "hit": false,
      "t": 76999.99999999999,
      "d": 1000,
      "v": 95
    },
    {
      "midi": 64,
      "hit": false,
      "t": 76999.99999999999,
      "d": 1000,
      "v": 95
    },
    {
      "midi": 68,
      "hit": false,
      "t": 76999.99999999999,
      "d": 1000,
      "v": 95
    },
    {
      "midi": 71,
      "hit": false,
      "t": 76999.99999999999,
      "d": 1000,
      "v": 95
    },
    {
      "midi": 61,
      "hit": false,
      "t": 77999.99999999999,
      "d": 442.7083333333285,
      "v": 95
    },
    {
      "midi": 73,
      "hit": false,
      "t": 77999.99999999999,
      "d": 484.375,
      "v": 95
    },
    {
      "midi": 69,
      "hit": false,
      "t": 77999.99999999999,
      "d": 487.5,
      "v": 95
    },
    {
      "midi": 64,
      "hit": false,
      "t": 77999.99999999999,
      "d": 490.625,
      "v": 95
    },
    {
      "midi": 61,
      "hit": false,
      "t": 78499.99999999999,
      "d": 477.0833333333285,
      "v": 95
    },
    {
      "midi": 64,
      "hit": false,
      "t": 78624.99999999999,
      "d": 340.625,
      "v": 95
    },
    {
      "midi": 69,
      "hit": false,
      "t": 78749.99999999999,
      "d": 215.625,
      "v": 95
    },
    {
      "midi": 71,
      "hit": false,
      "t": 78999.99999999999,
      "d": 438.5416666666715,
      "v": 95
    },
    {
      "midi": 68,
      "hit": false,
      "t": 78999.99999999999,
      "d": 469.7916666666715,
      "v": 95
    },
    {
      "midi": 61,
      "hit": false,
      "t": 78999.99999999999,
      "d": 479.1666666666715,
      "v": 95
    },
    {
      "midi": 65,
      "hit": false,
      "t": 78999.99999999999,
      "d": 479.1666666666715,
      "v": 95
    },
    {
      "midi": 71,
      "hit": false,
      "t": 79499.99999999999,
      "d": 229.16666666667152,
      "v": 95
    },
    {
      "midi": 68,
      "hit": false,
      "t": 79624.99999999999,
      "d": 270.8333333333285,
      "v": 95
    },
    {
      "midi": 65,
      "hit": false,
      "t": 79749.99999999999,
      "d": 152.08333333332848,
      "v": 95
    },
    {
      "midi": 61,
      "hit": false,
      "t": 79874.99999999999,
      "d": 81.25,
      "v": 95
    },
    {
      "midi": 66,
      "hit": false,
      "t": 79999.99999999999,
      "d": 750,
      "v": 95
    },
    {
      "midi": 57,
      "hit": false,
      "t": 79999.99999999999,
      "d": 1000,
      "v": 95
    },
    {
      "midi": 61,
      "hit": false,
      "t": 79999.99999999999,
      "d": 1000,
      "v": 95
    },
    {
      "midi": 69,
      "hit": false,
      "t": 79999.99999999999,
      "d": 1000,
      "v": 95
    },
    {
      "midi": 64,
      "hit": false,
      "t": 80749.99999999999,
      "d": 250,
      "v": 95
    },
    {
      "midi": 57,
      "hit": false,
      "t": 80999.99999999999,
      "d": 1000,
      "v": 95
    },
    {
      "midi": 62,
      "hit": false,
      "t": 80999.99999999999,
      "d": 1000,
      "v": 95
    },
    {
      "midi": 66,
      "hit": false,
      "t": 80999.99999999999,
      "d": 1000,
      "v": 95
    },
    {
      "midi": 69,
      "hit": false,
      "t": 80999.99999999999,
      "d": 1000,
      "v": 95
    },
    {
      "midi": 58,
      "hit": false,
      "t": 81999.99999999999,
      "d": 125,
      "v": 80
    },
    {
      "midi": 61,
      "hit": false,
      "t": 81999.99999999999,
      "d": 125,
      "v": 80
    },
    {
      "midi": 66,
      "hit": false,
      "t": 81999.99999999999,
      "d": 125,
      "v": 80
    },
    {
      "midi": 70,
      "hit": false,
      "t": 81999.99999999999,
      "d": 125,
      "v": 80
    },
    {
      "midi": 58,
      "hit": false,
      "t": 82499.99999999999,
      "d": 125,
      "v": 80
    },
    {
      "midi": 61,
      "hit": false,
      "t": 82499.99999999999,
      "d": 125,
      "v": 80
    },
    {
      "midi": 66,
      "hit": false,
      "t": 82499.99999999999,
      "d": 125,
      "v": 80
    },
    {
      "midi": 70,
      "hit": false,
      "t": 82499.99999999999,
      "d": 125,
      "v": 80
    },
    {
      "midi": 58,
      "hit": false,
      "t": 82999.99999999999,
      "d": 125,
      "v": 80
    },
    {
      "midi": 61,
      "hit": false,
      "t": 82999.99999999999,
      "d": 125,
      "v": 80
    },
    {
      "midi": 66,
      "hit": false,
      "t": 82999.99999999999,
      "d": 125,
      "v": 80
    },
    {
      "midi": 70,
      "hit": false,
      "t": 82999.99999999999,
      "d": 125,
      "v": 80
    },
    {
      "midi": 58,
      "hit": false,
      "t": 83499.99999999999,
      "d": 125,
      "v": 80
    },
    {
      "midi": 61,
      "hit": false,
      "t": 83499.99999999999,
      "d": 125,
      "v": 80
    },
    {
      "midi": 66,
      "hit": false,
      "t": 83499.99999999999,
      "d": 125,
      "v": 80
    },
    {
      "midi": 70,
      "hit": false,
      "t": 83499.99999999999,
      "d": 125,
      "v": 80
    },
    {
      "midi": 58,
      "hit": false,
      "t": 83999.99999999999,
      "d": 125,
      "v": 80
    },
    {
      "midi": 61,
      "hit": false,
      "t": 83999.99999999999,
      "d": 125,
      "v": 80
    },
    {
      "midi": 66,
      "hit": false,
      "t": 83999.99999999999,
      "d": 125,
      "v": 80
    },
    {
      "midi": 70,
      "hit": false,
      "t": 83999.99999999999,
      "d": 125,
      "v": 80
    },
    {
      "midi": 58,
      "hit": false,
      "t": 84499.99999999999,
      "d": 125,
      "v": 80
    },
    {
      "midi": 61,
      "hit": false,
      "t": 84499.99999999999,
      "d": 125,
      "v": 80
    },
    {
      "midi": 66,
      "hit": false,
      "t": 84499.99999999999,
      "d": 125,
      "v": 80
    },
    {
      "midi": 70,
      "hit": false,
      "t": 84499.99999999999,
      "d": 125,
      "v": 80
    },
    {
      "midi": 71,
      "hit": false,
      "t": 84999.99999999999,
      "d": 250,
      "v": 95
    },
    {
      "midi": 66,
      "hit": false,
      "t": 85249.99999999999,
      "d": 250,
      "v": 95
    },
    {
      "midi": 71,
      "hit": false,
      "t": 85499.99999999999,
      "d": 250,
      "v": 95
    },
    {
      "midi": 66,
      "hit": false,
      "t": 85749.99999999999,
      "d": 250,
      "v": 95
    },
    {
      "midi": 68,
      "hit": false,
      "t": 85999.99999999999,
      "d": 250,
      "v": 95
    },
    {
      "midi": 64,
      "hit": false,
      "t": 86249.99999999999,
      "d": 250,
      "v": 95
    },
    {
      "midi": 68,
      "hit": false,
      "t": 86499.99999999999,
      "d": 250,
      "v": 95
    },
    {
      "midi": 64,
      "hit": false,
      "t": 86749.99999999999,
      "d": 250,
      "v": 95
    },
    {
      "midi": 71,
      "hit": false,
      "t": 86999.99999999999,
      "d": 250,
      "v": 95
    },
    {
      "midi": 66,
      "hit": false,
      "t": 87249.99999999999,
      "d": 250,
      "v": 95
    },
    {
      "midi": 71,
      "hit": false,
      "t": 87499.99999999999,
      "d": 250,
      "v": 95
    },
    {
      "midi": 66,
      "hit": false,
      "t": 87749.99999999999,
      "d": 250,
      "v": 95
    },
    {
      "midi": 68,
      "hit": false,
      "t": 87999.99999999999,
      "d": 250,
      "v": 95
    },
    {
      "midi": 64,
      "hit": false,
      "t": 88249.99999999999,
      "d": 250,
      "v": 95
    },
    {
      "midi": 68,
      "hit": false,
      "t": 88499.99999999999,
      "d": 250,
      "v": 95
    },
    {
      "midi": 71,
      "hit": false,
      "t": 88749.99999999999,
      "d": 250,
      "v": 95
    },
    {
      "midi": 57,
      "hit": false,
      "t": 89000,
      "d": 1000,
      "v": 50
    },
    {
      "midi": 88,
      "hit": false,
      "t": 92881.25,
      "d": 58.33333333332848,
      "v": 80
    },
    {
      "midi": 92,
      "hit": false,
      "t": 92934.375,
      "d": 66.66666666665697,
      "v": 80
    },
    {
      "midi": 95,
      "hit": false,
      "t": 92986.45833333333,
      "d": 67.70833333332848,
      "v": 80
    },
    {
      "midi": 100,
      "hit": false,
      "t": 93036.45833333333,
      "d": 721.875,
      "v": 80
    },
    {
      "midi": 88,
      "hit": false,
      "t": 94891.66666666666,
      "d": 72.91666666665697,
      "v": 54
    },
    {
      "midi": 92,
      "hit": false,
      "t": 94934.37499999999,
      "d": 70.83333333332848,
      "v": 62
    },
    {
      "midi": 95,
      "hit": false,
      "t": 94973.95833333331,
      "d": 69.79166666667152,
      "v": 51
    },
    {
      "midi": 100,
      "hit": false,
      "t": 95015.62499999999,
      "d": 654.1666666666715,
      "v": 68
    },
    {
      "midi": 45,
      "hit": false,
      "t": 96874.99999999999,
      "d": 1062.5,
      "v": 76
    },
    {
      "midi": 61,
      "hit": false,
      "t": 96953.12499999999,
      "d": 546.875,
      "v": 77
    },
    {
      "midi": 64,
      "hit": false,
      "t": 96960.41666666666,
      "d": 539.5833333333285,
      "v": 83
    },
    {
      "midi": 69,
      "hit": false,
      "t": 96987.49999999999,
      "d": 512.5,
      "v": 76
    },
    {
      "midi": 57,
      "hit": false,
      "t": 97000,
      "d": 1000,
      "v": 60
    },
    {
      "midi": 61,
      "hit": false,
      "t": 97000,
      "d": 1000,
      "v": 60
    },
    {
      "midi": 64,
      "hit": false,
      "t": 97000,
      "d": 1000,
      "v": 60
    },
    {
      "midi": 69,
      "hit": false,
      "t": 97000,
      "d": 1000,
      "v": 60
    },
    {
      "midi": 69,
      "hit": false,
      "t": 97499.99999999999,
      "d": 31.25,
      "v": 80
    },
    {
      "midi": 73,
      "hit": false,
      "t": 97499.99999999999,
      "d": 31.25,
      "v": 80
    },
    {
      "midi": 76,
      "hit": false,
      "t": 97499.99999999999,
      "d": 31.25,
      "v": 80
    },
    {
      "midi": 81,
      "hit": false,
      "t": 97499.99999999999,
      "d": 31.25,
      "v": 80
    },
    {
      "midi": 57,
      "hit": false,
      "t": 98000,
      "d": 1000,
      "v": 60
    },
    {
      "midi": 62,
      "hit": false,
      "t": 98000,
      "d": 1000,
      "v": 60
    },
    {
      "midi": 66,
      "hit": false,
      "t": 98000,
      "d": 1000,
      "v": 60
    },
    {
      "midi": 69,
      "hit": false,
      "t": 98000,
      "d": 1000,
      "v": 60
    },
    {
      "midi": 69,
      "hit": false,
      "t": 98499.99999999999,
      "d": 31.25,
      "v": 80
    },
    {
      "midi": 74,
      "hit": false,
      "t": 98499.99999999999,
      "d": 31.25,
      "v": 80
    },
    {
      "midi": 76,
      "hit": false,
      "t": 98499.99999999999,
      "d": 31.25,
      "v": 80
    },
    {
      "midi": 81,
      "hit": false,
      "t": 98499.99999999999,
      "d": 31.25,
      "v": 80
    },
    {
      "midi": 61,
      "hit": false,
      "t": 99000,
      "d": 1000,
      "v": 60
    },
    {
      "midi": 64,
      "hit": false,
      "t": 99000,
      "d": 1000,
      "v": 60
    },
    {
      "midi": 69,
      "hit": false,
      "t": 99000,
      "d": 1000,
      "v": 60
    },
    {
      "midi": 73,
      "hit": false,
      "t": 99000,
      "d": 1000,
      "v": 60
    },
    {
      "midi": 64,
      "hit": false,
      "t": 99499.99999999999,
      "d": 31.25,
      "v": 80
    },
    {
      "midi": 69,
      "hit": false,
      "t": 99499.99999999999,
      "d": 31.25,
      "v": 80
    },
    {
      "midi": 71,
      "hit": false,
      "t": 99499.99999999999,
      "d": 31.25,
      "v": 80
    },
    {
      "midi": 76,
      "hit": false,
      "t": 99499.99999999999,
      "d": 31.25,
      "v": 80
    },
    {
      "midi": 64,
      "hit": false,
      "t": 100000,
      "d": 997.9166666666715,
      "v": 60
    },
    {
      "midi": 68,
      "hit": false,
      "t": 100000,
      "d": 1012.5,
      "v": 60
    },
    {
      "midi": 61,
      "hit": false,
      "t": 100000,
      "d": 1018.75,
      "v": 60
    },
    {
      "midi": 73,
      "hit": false,
      "t": 100000,
      "d": 1023.9583333333285,
      "v": 60
    },
    {
      "midi": 68,
      "hit": false,
      "t": 100499.99999999999,
      "d": 31.25,
      "v": 80
    },
    {
      "midi": 71,
      "hit": false,
      "t": 100499.99999999999,
      "d": 31.25,
      "v": 80
    },
    {
      "midi": 76,
      "hit": false,
      "t": 100499.99999999999,
      "d": 31.25,
      "v": 80
    },
    {
      "midi": 80,
      "hit": false,
      "t": 100499.99999999999,
      "d": 31.25,
      "v": 80
    },
    {
      "midi": 57,
      "hit": false,
      "t": 101000,
      "d": 1250,
      "v": 60
    },
    {
      "midi": 62,
      "hit": false,
      "t": 101000,
      "d": 1250,
      "v": 60
    },
    {
      "midi": 66,
      "hit": false,
      "t": 101000,
      "d": 1250,
      "v": 60
    },
    {
      "midi": 69,
      "hit": false,
      "t": 101000,
      "d": 1250,
      "v": 60
    },
    {
      "midi": 69,
      "hit": false,
      "t": 101499.99999999999,
      "d": 31.25,
      "v": 80
    },
    {
      "midi": 74,
      "hit": false,
      "t": 101499.99999999999,
      "d": 31.25,
      "v": 80
    },
    {
      "midi": 78,
      "hit": false,
      "t": 101499.99999999999,
      "d": 31.25,
      "v": 80
    },
    {
      "midi": 81,
      "hit": false,
      "t": 101499.99999999999,
      "d": 31.25,
      "v": 80
    },
    {
      "midi": 64,
      "hit": false,
      "t": 102250,
      "d": 265.625,
      "v": 74
    },
    {
      "midi": 69,
      "hit": false,
      "t": 102499.99999999999,
      "d": 31.25,
      "v": 80
    },
    {
      "midi": 73,
      "hit": false,
      "t": 102499.99999999999,
      "d": 31.25,
      "v": 80
    },
    {
      "midi": 76,
      "hit": false,
      "t": 102499.99999999999,
      "d": 31.25,
      "v": 80
    },
    {
      "midi": 81,
      "hit": false,
      "t": 102499.99999999999,
      "d": 31.25,
      "v": 80
    },
    {
      "midi": 76,
      "hit": false,
      "t": 102500,
      "d": 152.08333333332848,
      "v": 70
    },
    {
      "midi": 73,
      "hit": false,
      "t": 102625,
      "d": 152.08333333332848,
      "v": 68
    },
    {
      "midi": 69,
      "hit": false,
      "t": 102750,
      "d": 122.91666666665697,
      "v": 71
    },
    {
      "midi": 64,
      "hit": false,
      "t": 102874.99999999999,
      "d": 55.20833333332848,
      "v": 72
    },
    {
      "midi": 66,
      "hit": false,
      "t": 103499.99999999999,
      "d": 31.25,
      "v": 80
    },
    {
      "midi": 69,
      "hit": false,
      "t": 103499.99999999999,
      "d": 31.25,
      "v": 80
    },
    {
      "midi": 74,
      "hit": false,
      "t": 103499.99999999999,
      "d": 31.25,
      "v": 80
    },
    {
      "midi": 76,
      "hit": false,
      "t": 103499.99999999999,
      "d": 31.25,
      "v": 80
    },
    {
      "midi": 64,
      "hit": false,
      "t": 104249.99999999999,
      "d": 31.25,
      "v": 72
    },
    {
      "midi": 69,
      "hit": false,
      "t": 104249.99999999999,
      "d": 31.25,
      "v": 72
    },
    {
      "midi": 71,
      "hit": false,
      "t": 104249.99999999999,
      "d": 31.25,
      "v": 69
    },
    {
      "midi": 76,
      "hit": false,
      "t": 104249.99999999999,
      "d": 31.25,
      "v": 67
    },
    {
      "midi": 64,
      "hit": false,
      "t": 104624.99999999999,
      "d": 31.25,
      "v": 65
    },
    {
      "midi": 69,
      "hit": false,
      "t": 104624.99999999999,
      "d": 31.25,
      "v": 68
    },
    {
      "midi": 71,
      "hit": false,
      "t": 104624.99999999999,
      "d": 31.25,
      "v": 64
    },
    {
      "midi": 76,
      "hit": false,
      "t": 104624.99999999999,
      "d": 31.25,
      "v": 63
    },
    {
      "midi": 64,
      "hit": false,
      "t": 104749.99999999999,
      "d": 31.25,
      "v": 75
    },
    {
      "midi": 69,
      "hit": false,
      "t": 104749.99999999999,
      "d": 31.25,
      "v": 68
    },
    {
      "midi": 71,
      "hit": false,
      "t": 104749.99999999999,
      "d": 31.25,
      "v": 74
    },
    {
      "midi": 76,
      "hit": false,
      "t": 104749.99999999999,
      "d": 31.25,
      "v": 69
    },
    {
      "midi": 64,
      "hit": false,
      "t": 104874.99999999999,
      "d": 31.25,
      "v": 83
    },
    {
      "midi": 69,
      "hit": false,
      "t": 104874.99999999999,
      "d": 31.25,
      "v": 83
    },
    {
      "midi": 71,
      "hit": false,
      "t": 104874.99999999999,
      "d": 31.25,
      "v": 80
    },
    {
      "midi": 76,
      "hit": false,
      "t": 104874.99999999999,
      "d": 31.25,
      "v": 78
    },
    {
      "midi": 69,
      "hit": false,
      "t": 104999.99999999999,
      "d": 31.25,
      "v": 63
    },
    {
      "midi": 73,
      "hit": false,
      "t": 104999.99999999999,
      "d": 31.25,
      "v": 57
    },
    {
      "midi": 76,
      "hit": false,
      "t": 104999.99999999999,
      "d": 31.25,
      "v": 68
    },
    {
      "midi": 81,
      "hit": false,
      "t": 104999.99999999999,
      "d": 31.25,
      "v": 66
    },
    {
      "midi": 69,
      "hit": false,
      "t": 105124.99999999999,
      "d": 31.25,
      "v": 47
    },
    {
      "midi": 73,
      "hit": false,
      "t": 105124.99999999999,
      "d": 31.25,
      "v": 51
    },
    {
      "midi": 76,
      "hit": false,
      "t": 105124.99999999999,
      "d": 31.25,
      "v": 63
    },
    {
      "midi": 81,
      "hit": false,
      "t": 105124.99999999999,
      "d": 31.25,
      "v": 39
    },
    {
      "midi": 69,
      "hit": false,
      "t": 105249.99999999999,
      "d": 31.25,
      "v": 74
    },
    {
      "midi": 73,
      "hit": false,
      "t": 105249.99999999999,
      "d": 31.25,
      "v": 74
    },
    {
      "midi": 76,
      "hit": false,
      "t": 105249.99999999999,
      "d": 31.25,
      "v": 81
    },
    {
      "midi": 81,
      "hit": false,
      "t": 105249.99999999999,
      "d": 31.25,
      "v": 73
    },
    {
      "midi": 69,
      "hit": false,
      "t": 105499.99999999999,
      "d": 31.25,
      "v": 96
    },
    {
      "midi": 73,
      "hit": false,
      "t": 105499.99999999999,
      "d": 31.25,
      "v": 96
    },
    {
      "midi": 76,
      "hit": false,
      "t": 105499.99999999999,
      "d": 31.25,
      "v": 96
    },
    {
      "midi": 81,
      "hit": false,
      "t": 105499.99999999999,
      "d": 31.25,
      "v": 96
    },
    {
      "midi": 73,
      "hit": false,
      "t": 105749.99999999999,
      "d": 31.25,
      "v": 39
    },
    {
      "midi": 76,
      "hit": false,
      "t": 105749.99999999999,
      "d": 31.25,
      "v": 41
    },
    {
      "midi": 73,
      "hit": false,
      "t": 105874.99999999999,
      "d": 31.25,
      "v": 44
    },
    {
      "midi": 76,
      "hit": false,
      "t": 105874.99999999999,
      "d": 31.25,
      "v": 51
    },
    {
      "midi": 81,
      "hit": false,
      "t": 105874.99999999999,
      "d": 31.25,
      "v": 27
    },
    {
      "midi": 65,
      "hit": false,
      "t": 105999.99999999999,
      "d": 31.25,
      "v": 63
    },
    {
      "midi": 74,
      "hit": false,
      "t": 105999.99999999999,
      "d": 31.25,
      "v": 52
    },
    {
      "midi": 77,
      "hit": false,
      "t": 105999.99999999999,
      "d": 31.25,
      "v": 43
    },
    {
      "midi": 65,
      "hit": false,
      "t": 106124.99999999999,
      "d": 31.25,
      "v": 57
    },
    {
      "midi": 71,
      "hit": false,
      "t": 106124.99999999999,
      "d": 31.25,
      "v": 39
    },
    {
      "midi": 74,
      "hit": false,
      "t": 106124.99999999999,
      "d": 31.25,
      "v": 49
    },
    {
      "midi": 77,
      "hit": false,
      "t": 106124.99999999999,
      "d": 31.25,
      "v": 46
    },
    {
      "midi": 83,
      "hit": false,
      "t": 106124.99999999999,
      "d": 31.25,
      "v": 47
    },
    {
      "midi": 65,
      "hit": false,
      "t": 106249.99999999999,
      "d": 31.25,
      "v": 64
    },
    {
      "midi": 71,
      "hit": false,
      "t": 106249.99999999999,
      "d": 31.25,
      "v": 61
    },
    {
      "midi": 74,
      "hit": false,
      "t": 106249.99999999999,
      "d": 31.25,
      "v": 75
    },
    {
      "midi": 77,
      "hit": false,
      "t": 106249.99999999999,
      "d": 31.25,
      "v": 73
    },
    {
      "midi": 81,
      "hit": false,
      "t": 106249.99999999999,
      "d": 31.25,
      "v": 75
    },
    {
      "midi": 83,
      "hit": false,
      "t": 106249.99999999999,
      "d": 31.25,
      "v": 65
    },
    {
      "midi": 65,
      "hit": false,
      "t": 106499.99999999999,
      "d": 31.25,
      "v": 66
    },
    {
      "midi": 71,
      "hit": false,
      "t": 106499.99999999999,
      "d": 31.25,
      "v": 87
    },
    {
      "midi": 74,
      "hit": false,
      "t": 106499.99999999999,
      "d": 31.25,
      "v": 97
    },
    {
      "midi": 77,
      "hit": false,
      "t": 106499.99999999999,
      "d": 31.25,
      "v": 81
    },
    {
      "midi": 81,
      "hit": false,
      "t": 106499.99999999999,
      "d": 31.25,
      "v": 78
    },
    {
      "midi": 83,
      "hit": false,
      "t": 106499.99999999999,
      "d": 31.25,
      "v": 84
    },
    {
      "midi": 74,
      "hit": false,
      "t": 106749.99999999999,
      "d": 31.25,
      "v": 44
    },
    {
      "midi": 77,
      "hit": false,
      "t": 106749.99999999999,
      "d": 31.25,
      "v": 41
    },
    {
      "midi": 81,
      "hit": false,
      "t": 106749.99999999999,
      "d": 31.25,
      "v": 43
    },
    {
      "midi": 71,
      "hit": false,
      "t": 106874.99999999999,
      "d": 31.25,
      "v": 48
    },
    {
      "midi": 74,
      "hit": false,
      "t": 106874.99999999999,
      "d": 31.25,
      "v": 63
    },
    {
      "midi": 77,
      "hit": false,
      "t": 106874.99999999999,
      "d": 31.25,
      "v": 63
    },
    {
      "midi": 81,
      "hit": false,
      "t": 106874.99999999999,
      "d": 31.25,
      "v": 58
    },
    {
      "midi": 83,
      "hit": false,
      "t": 106874.99999999999,
      "d": 31.25,
      "v": 50
    },
    {
      "midi": 64,
      "hit": false,
      "t": 106999.99999999999,
      "d": 31.25,
      "v": 36
    },
    {
      "midi": 69,
      "hit": false,
      "t": 106999.99999999999,
      "d": 31.25,
      "v": 55
    },
    {
      "midi": 73,
      "hit": false,
      "t": 106999.99999999999,
      "d": 31.25,
      "v": 38
    },
    {
      "midi": 76,
      "hit": false,
      "t": 106999.99999999999,
      "d": 31.25,
      "v": 36
    },
    {
      "midi": 64,
      "hit": false,
      "t": 107124.99999999999,
      "d": 31.25,
      "v": 46
    },
    {
      "midi": 69,
      "hit": false,
      "t": 107124.99999999999,
      "d": 31.25,
      "v": 59
    },
    {
      "midi": 73,
      "hit": false,
      "t": 107124.99999999999,
      "d": 31.25,
      "v": 48
    },
    {
      "midi": 76,
      "hit": false,
      "t": 107124.99999999999,
      "d": 31.25,
      "v": 46
    },
    {
      "midi": 64,
      "hit": false,
      "t": 107249.99999999999,
      "d": 31.25,
      "v": 68
    },
    {
      "midi": 69,
      "hit": false,
      "t": 107249.99999999999,
      "d": 31.25,
      "v": 68
    },
    {
      "midi": 73,
      "hit": false,
      "t": 107249.99999999999,
      "d": 31.25,
      "v": 56
    },
    {
      "midi": 76,
      "hit": false,
      "t": 107249.99999999999,
      "d": 31.25,
      "v": 72
    },
    {
      "midi": 64,
      "hit": false,
      "t": 107499.99999999999,
      "d": 31.25,
      "v": 95
    },
    {
      "midi": 69,
      "hit": false,
      "t": 107499.99999999999,
      "d": 31.25,
      "v": 95
    },
    {
      "midi": 73,
      "hit": false,
      "t": 107499.99999999999,
      "d": 31.25,
      "v": 95
    },
    {
      "midi": 76,
      "hit": false,
      "t": 107499.99999999999,
      "d": 31.25,
      "v": 95
    },
    {
      "midi": 64,
      "hit": false,
      "t": 107749.99999999999,
      "d": 31.25,
      "v": 29
    },
    {
      "midi": 69,
      "hit": false,
      "t": 107749.99999999999,
      "d": 31.25,
      "v": 60
    },
    {
      "midi": 73,
      "hit": false,
      "t": 107749.99999999999,
      "d": 31.25,
      "v": 45
    },
    {
      "midi": 76,
      "hit": false,
      "t": 107749.99999999999,
      "d": 31.25,
      "v": 46
    },
    {
      "midi": 64,
      "hit": false,
      "t": 107874.99999999999,
      "d": 31.25,
      "v": 51
    },
    {
      "midi": 69,
      "hit": false,
      "t": 107874.99999999999,
      "d": 31.25,
      "v": 67
    },
    {
      "midi": 73,
      "hit": false,
      "t": 107874.99999999999,
      "d": 31.25,
      "v": 57
    },
    {
      "midi": 76,
      "hit": false,
      "t": 107874.99999999999,
      "d": 31.25,
      "v": 49
    },
    {
      "midi": 64,
      "hit": false,
      "t": 107999.99999999999,
      "d": 31.25,
      "v": 57
    },
    {
      "midi": 68,
      "hit": false,
      "t": 107999.99999999999,
      "d": 31.25,
      "v": 54
    },
    {
      "midi": 73,
      "hit": false,
      "t": 107999.99999999999,
      "d": 31.25,
      "v": 58
    },
    {
      "midi": 76,
      "hit": false,
      "t": 107999.99999999999,
      "d": 31.25,
      "v": 66
    },
    {
      "midi": 64,
      "hit": false,
      "t": 108124.99999999999,
      "d": 31.25,
      "v": 45
    },
    {
      "midi": 68,
      "hit": false,
      "t": 108124.99999999999,
      "d": 31.25,
      "v": 49
    },
    {
      "midi": 73,
      "hit": false,
      "t": 108124.99999999999,
      "d": 31.25,
      "v": 54
    },
    {
      "midi": 76,
      "hit": false,
      "t": 108124.99999999999,
      "d": 31.25,
      "v": 51
    },
    {
      "midi": 64,
      "hit": false,
      "t": 108249.99999999999,
      "d": 31.25,
      "v": 68
    },
    {
      "midi": 68,
      "hit": false,
      "t": 108249.99999999999,
      "d": 31.25,
      "v": 75
    },
    {
      "midi": 73,
      "hit": false,
      "t": 108249.99999999999,
      "d": 31.25,
      "v": 67
    },
    {
      "midi": 76,
      "hit": false,
      "t": 108249.99999999999,
      "d": 31.25,
      "v": 65
    },
    {
      "midi": 64,
      "hit": false,
      "t": 108499.99999999999,
      "d": 31.25,
      "v": 97
    },
    {
      "midi": 68,
      "hit": false,
      "t": 108499.99999999999,
      "d": 31.25,
      "v": 94
    },
    {
      "midi": 73,
      "hit": false,
      "t": 108499.99999999999,
      "d": 31.25,
      "v": 92
    },
    {
      "midi": 76,
      "hit": false,
      "t": 108499.99999999999,
      "d": 31.25,
      "v": 89
    },
    {
      "midi": 64,
      "hit": false,
      "t": 108749.99999999999,
      "d": 31.25,
      "v": 43
    },
    {
      "midi": 68,
      "hit": false,
      "t": 108749.99999999999,
      "d": 31.25,
      "v": 50
    },
    {
      "midi": 73,
      "hit": false,
      "t": 108749.99999999999,
      "d": 31.25,
      "v": 58
    },
    {
      "midi": 76,
      "hit": false,
      "t": 108749.99999999999,
      "d": 31.25,
      "v": 59
    },
    {
      "midi": 64,
      "hit": false,
      "t": 108874.99999999999,
      "d": 31.25,
      "v": 66
    },
    {
      "midi": 68,
      "hit": false,
      "t": 108874.99999999999,
      "d": 31.25,
      "v": 59
    },
    {
      "midi": 73,
      "hit": false,
      "t": 108874.99999999999,
      "d": 31.25,
      "v": 64
    },
    {
      "midi": 76,
      "hit": false,
      "t": 108874.99999999999,
      "d": 31.25,
      "v": 65
    },
    {
      "midi": 66,
      "hit": false,
      "t": 108999.99999999999,
      "d": 31.25,
      "v": 36
    },
    {
      "midi": 69,
      "hit": false,
      "t": 108999.99999999999,
      "d": 31.25,
      "v": 60
    },
    {
      "midi": 74,
      "hit": false,
      "t": 108999.99999999999,
      "d": 31.25,
      "v": 50
    },
    {
      "midi": 78,
      "hit": false,
      "t": 108999.99999999999,
      "d": 31.25,
      "v": 36
    },
    {
      "midi": 66,
      "hit": false,
      "t": 109124.99999999999,
      "d": 31.25,
      "v": 36
    },
    {
      "midi": 69,
      "hit": false,
      "t": 109124.99999999999,
      "d": 31.25,
      "v": 61
    },
    {
      "midi": 74,
      "hit": false,
      "t": 109124.99999999999,
      "d": 31.25,
      "v": 63
    },
    {
      "midi": 78,
      "hit": false,
      "t": 109124.99999999999,
      "d": 31.25,
      "v": 46
    },
    {
      "midi": 66,
      "hit": false,
      "t": 109249.99999999999,
      "d": 31.25,
      "v": 69
    },
    {
      "midi": 69,
      "hit": false,
      "t": 109249.99999999999,
      "d": 31.25,
      "v": 73
    },
    {
      "midi": 74,
      "hit": false,
      "t": 109249.99999999999,
      "d": 31.25,
      "v": 73
    },
    {
      "midi": 78,
      "hit": false,
      "t": 109249.99999999999,
      "d": 31.25,
      "v": 62
    },
    {
      "midi": 66,
      "hit": false,
      "t": 109499.99999999999,
      "d": 31.25,
      "v": 95
    },
    {
      "midi": 69,
      "hit": false,
      "t": 109499.99999999999,
      "d": 31.25,
      "v": 95
    },
    {
      "midi": 74,
      "hit": false,
      "t": 109499.99999999999,
      "d": 31.25,
      "v": 95
    },
    {
      "midi": 78,
      "hit": false,
      "t": 109499.99999999999,
      "d": 31.25,
      "v": 95
    },
    {
      "midi": 66,
      "hit": false,
      "t": 109749.99999999999,
      "d": 31.25,
      "v": 49
    },
    {
      "midi": 69,
      "hit": false,
      "t": 109749.99999999999,
      "d": 31.25,
      "v": 59
    },
    {
      "midi": 74,
      "hit": false,
      "t": 109749.99999999999,
      "d": 31.25,
      "v": 63
    },
    {
      "midi": 78,
      "hit": false,
      "t": 109749.99999999999,
      "d": 31.25,
      "v": 44
    },
    {
      "midi": 66,
      "hit": false,
      "t": 109874.99999999999,
      "d": 31.25,
      "v": 49
    },
    {
      "midi": 69,
      "hit": false,
      "t": 109874.99999999999,
      "d": 31.25,
      "v": 75
    },
    {
      "midi": 74,
      "hit": false,
      "t": 109874.99999999999,
      "d": 31.25,
      "v": 75
    },
    {
      "midi": 78,
      "hit": false,
      "t": 109874.99999999999,
      "d": 31.25,
      "v": 51
    },
    {
      "midi": 64,
      "hit": false,
      "t": 109999.99999999999,
      "d": 31.25,
      "v": 44
    },
    {
      "midi": 69,
      "hit": false,
      "t": 109999.99999999999,
      "d": 31.25,
      "v": 56
    },
    {
      "midi": 73,
      "hit": false,
      "t": 109999.99999999999,
      "d": 31.25,
      "v": 49
    },
    {
      "midi": 76,
      "hit": false,
      "t": 109999.99999999999,
      "d": 31.25,
      "v": 43
    },
    {
      "midi": 64,
      "hit": false,
      "t": 110124.99999999999,
      "d": 31.25,
      "v": 37
    },
    {
      "midi": 69,
      "hit": false,
      "t": 110124.99999999999,
      "d": 31.25,
      "v": 61
    },
    {
      "midi": 73,
      "hit": false,
      "t": 110124.99999999999,
      "d": 31.25,
      "v": 53
    },
    {
      "midi": 76,
      "hit": false,
      "t": 110124.99999999999,
      "d": 31.25,
      "v": 33
    },
    {
      "midi": 64,
      "hit": false,
      "t": 110249.99999999999,
      "d": 31.25,
      "v": 68
    },
    {
      "midi": 69,
      "hit": false,
      "t": 110249.99999999999,
      "d": 31.25,
      "v": 75
    },
    {
      "midi": 73,
      "hit": false,
      "t": 110249.99999999999,
      "d": 31.25,
      "v": 62
    },
    {
      "midi": 76,
      "hit": false,
      "t": 110249.99999999999,
      "d": 31.25,
      "v": 65
    },
    {
      "midi": 64,
      "hit": false,
      "t": 110499.99999999999,
      "d": 31.25,
      "v": 88
    },
    {
      "midi": 69,
      "hit": false,
      "t": 110499.99999999999,
      "d": 31.25,
      "v": 90
    },
    {
      "midi": 73,
      "hit": false,
      "t": 110499.99999999999,
      "d": 31.25,
      "v": 85
    },
    {
      "midi": 76,
      "hit": false,
      "t": 110499.99999999999,
      "d": 31.25,
      "v": 82
    },
    {
      "midi": 64,
      "hit": false,
      "t": 110749.99999999999,
      "d": 31.25,
      "v": 49
    },
    {
      "midi": 69,
      "hit": false,
      "t": 110749.99999999999,
      "d": 31.25,
      "v": 62
    },
    {
      "midi": 73,
      "hit": false,
      "t": 110749.99999999999,
      "d": 31.25,
      "v": 48
    },
    {
      "midi": 76,
      "hit": false,
      "t": 110749.99999999999,
      "d": 31.25,
      "v": 38
    },
    {
      "midi": 64,
      "hit": false,
      "t": 110874.99999999999,
      "d": 31.25,
      "v": 35
    },
    {
      "midi": 69,
      "hit": false,
      "t": 110874.99999999999,
      "d": 31.25,
      "v": 60
    },
    {
      "midi": 73,
      "hit": false,
      "t": 110874.99999999999,
      "d": 31.25,
      "v": 56
    },
    {
      "midi": 76,
      "hit": false,
      "t": 110874.99999999999,
      "d": 31.25,
      "v": 45
    },
    {
      "midi": 69,
      "hit": false,
      "t": 110999.99999999999,
      "d": 31.25,
      "v": 45
    },
    {
      "midi": 71,
      "hit": false,
      "t": 110999.99999999999,
      "d": 31.25,
      "v": 32
    },
    {
      "midi": 74,
      "hit": false,
      "t": 110999.99999999999,
      "d": 31.25,
      "v": 70
    },
    {
      "midi": 64,
      "hit": false,
      "t": 111124.99999999999,
      "d": 31.25,
      "v": 43
    },
    {
      "midi": 69,
      "hit": false,
      "t": 111124.99999999999,
      "d": 31.25,
      "v": 58
    },
    {
      "midi": 71,
      "hit": false,
      "t": 111124.99999999999,
      "d": 31.25,
      "v": 56
    },
    {
      "midi": 74,
      "hit": false,
      "t": 111124.99999999999,
      "d": 31.25,
      "v": 67
    },
    {
      "midi": 76,
      "hit": false,
      "t": 111124.99999999999,
      "d": 31.25,
      "v": 44
    },
    {
      "midi": 64,
      "hit": false,
      "t": 111249.99999999999,
      "d": 31.25,
      "v": 55
    },
    {
      "midi": 69,
      "hit": false,
      "t": 111249.99999999999,
      "d": 31.25,
      "v": 62
    },
    {
      "midi": 71,
      "hit": false,
      "t": 111249.99999999999,
      "d": 31.25,
      "v": 56
    },
    {
      "midi": 74,
      "hit": false,
      "t": 111249.99999999999,
      "d": 31.25,
      "v": 66
    },
    {
      "midi": 76,
      "hit": false,
      "t": 111249.99999999999,
      "d": 31.25,
      "v": 38
    },
    {
      "midi": 62,
      "hit": false,
      "t": 111499.99999999999,
      "d": 250,
      "v": 90
    },
    {
      "midi": 66,
      "hit": false,
      "t": 111499.99999999999,
      "d": 250,
      "v": 90
    },
    {
      "midi": 69,
      "hit": false,
      "t": 111499.99999999999,
      "d": 250,
      "v": 90
    },
    {
      "midi": 74,
      "hit": false,
      "t": 111499.99999999999,
      "d": 250,
      "v": 90
    },
    {
      "midi": 61,
      "hit": false,
      "t": 111749.99999999999,
      "d": 250,
      "v": 90
    },
    {
      "midi": 64,
      "hit": false,
      "t": 111749.99999999999,
      "d": 250,
      "v": 90
    },
    {
      "midi": 69,
      "hit": false,
      "t": 111749.99999999999,
      "d": 250,
      "v": 90
    },
    {
      "midi": 73,
      "hit": false,
      "t": 111749.99999999999,
      "d": 250,
      "v": 90
    },
    {
      "midi": 64,
      "hit": false,
      "t": 111999.99999999999,
      "d": 1000,
      "v": 90
    },
    {
      "midi": 69,
      "hit": false,
      "t": 111999.99999999999,
      "d": 1000,
      "v": 90
    },
    {
      "midi": 73,
      "hit": false,
      "t": 111999.99999999999,
      "d": 1000,
      "v": 90
    },
    {
      "midi": 76,
      "hit": false,
      "t": 111999.99999999999,
      "d": 1000,
      "v": 90
    },
    {
      "midi": 64,
      "hit": false,
      "t": 112258.33333333331,
      "d": 254.16666666665697,
      "v": 60
    },
    {
      "midi": 69,
      "hit": false,
      "t": 112510.41666666664,
      "d": 286.4583333333285,
      "v": 60
    },
    {
      "midi": 73,
      "hit": false,
      "t": 112518.74999999997,
      "d": 246.875,
      "v": 60
    },
    {
      "midi": 64,
      "hit": false,
      "t": 112771.87499999997,
      "d": 250,
      "v": 60
    },
    {
      "midi": 66,
      "hit": false,
      "t": 113251.04166666664,
      "d": 254.16666666667152,
      "v": 60
    },
    {
      "midi": 69,
      "hit": false,
      "t": 113515.62499999999,
      "d": 247.91666666667152,
      "v": 60
    },
    {
      "midi": 74,
      "hit": false,
      "t": 113515.62499999999,
      "d": 255.20833333334303,
      "v": 60
    },
    {
      "midi": 66,
      "hit": false,
      "t": 113763.54166666666,
      "d": 389.58333333334303,
      "v": 60
    },
    {
      "midi": 66,
      "hit": false,
      "t": 114262.5,
      "d": 238.54166666667152,
      "v": 60
    },
    {
      "midi": 74,
      "hit": false,
      "t": 114507.29166666667,
      "d": 264.5833333333285,
      "v": 60
    },
    {
      "midi": 69,
      "hit": false,
      "t": 114508.33333333334,
      "d": 254.16666666665697,
      "v": 60
    },
    {
      "midi": 66,
      "hit": false,
      "t": 114757.29166666667,
      "d": 198.95833333332848,
      "v": 60
    },
    {
      "midi": 52,
      "hit": false,
      "t": 115001.04166666666,
      "d": 2022.916666666686,
      "v": 85
    },
    {
      "midi": 64,
      "hit": false,
      "t": 115235.41666666667,
      "d": 251.04166666667152,
      "v": 60
    },
    {
      "midi": 57,
      "hit": false,
      "t": 115261.45833333333,
      "d": 1761.458333333343,
      "v": 85
    },
    {
      "midi": 69,
      "hit": false,
      "t": 115485.41666666667,
      "d": 260.4166666666715,
      "v": 60
    },
    {
      "midi": 71,
      "hit": false,
      "t": 115485.41666666667,
      "d": 270.83333333334303,
      "v": 60
    },
    {
      "midi": 64,
      "hit": false,
      "t": 115741.66666666667,
      "d": 1244.7916666666715,
      "v": 60
    },
    {
      "midi": 62,
      "hit": false,
      "t": 115742.70833333333,
      "d": 275,
      "v": 85
    },
    {
      "midi": 59,
      "hit": false,
      "t": 115908.33333333333,
      "d": 1114.583333333343,
      "v": 85
    },
    {
      "midi": 68,
      "hit": false,
      "t": 115980.20833333333,
      "d": 1041.6666666666715,
      "v": 85
    },
    {
      "midi": 68,
      "hit": false,
      "t": 115987.50000000001,
      "d": 993.75,
      "v": 60
    },
    {
      "midi": 71,
      "hit": false,
      "t": 115989.58333333334,
      "d": 990.625,
      "v": 60
    },
    {
      "midi": 76,
      "hit": false,
      "t": 115997.91666666667,
      "d": 991.6666666666715,
      "v": 60
    },
    {
      "midi": 71,
      "hit": false,
      "t": 116042.70833333333,
      "d": 986.458333333343,
      "v": 85
    },
    {
      "midi": 64,
      "hit": false,
      "t": 117000,
      "d": 5.208333333328483,
      "v": 85
    },
    {
      "midi": 61,
      "hit": false,
      "t": 117000,
      "d": 442.7083333333285,
      "v": 85
    },
    {
      "midi": 73,
      "hit": false,
      "t": 117000,
      "d": 484.375,
      "v": 85
    },
    {
      "midi": 69,
      "hit": false,
      "t": 117000,
      "d": 487.5,
      "v": 85
    },
    {
      "midi": 61,
      "hit": false,
      "t": 117500,
      "d": 477.0833333333285,
      "v": 85
    },
    {
      "midi": 64,
      "hit": false,
      "t": 117625,
      "d": 340.625,
      "v": 85
    },
    {
      "midi": 69,
      "hit": false,
      "t": 117750,
      "d": 215.625,
      "v": 85
    },
    {
      "midi": 71,
      "hit": false,
      "t": 118000,
      "d": 438.5416666666715,
      "v": 85
    },
    {
      "midi": 68,
      "hit": false,
      "t": 118000,
      "d": 469.7916666666715,
      "v": 85
    },
    {
      "midi": 61,
      "hit": false,
      "t": 118000,
      "d": 479.1666666666715,
      "v": 85
    },
    {
      "midi": 65,
      "hit": false,
      "t": 118000,
      "d": 479.1666666666715,
      "v": 85
    },
    {
      "midi": 71,
      "hit": false,
      "t": 118500,
      "d": 229.16666666667152,
      "v": 85
    },
    {
      "midi": 68,
      "hit": false,
      "t": 118625,
      "d": 270.8333333333285,
      "v": 85
    },
    {
      "midi": 65,
      "hit": false,
      "t": 118750,
      "d": 152.08333333332848,
      "v": 85
    },
    {
      "midi": 61,
      "hit": false,
      "t": 118875,
      "d": 81.24999999998545,
      "v": 85
    },
    {
      "midi": 66,
      "hit": false,
      "t": 118999.99999999999,
      "d": 750,
      "v": 85
    },
    {
      "midi": 57,
      "hit": false,
      "t": 118999.99999999999,
      "d": 1000,
      "v": 85
    },
    {
      "midi": 61,
      "hit": false,
      "t": 118999.99999999999,
      "d": 1000,
      "v": 85
    },
    {
      "midi": 69,
      "hit": false,
      "t": 118999.99999999999,
      "d": 1000,
      "v": 85
    },
    {
      "midi": 64,
      "hit": false,
      "t": 119749.99999999999,
      "d": 250,
      "v": 85
    },
    {
      "midi": 57,
      "hit": false,
      "t": 119999.99999999999,
      "d": 1000,
      "v": 85
    },
    {
      "midi": 62,
      "hit": false,
      "t": 119999.99999999999,
      "d": 1000,
      "v": 85
    },
    {
      "midi": 66,
      "hit": false,
      "t": 119999.99999999999,
      "d": 1000,
      "v": 85
    },
    {
      "midi": 69,
      "hit": false,
      "t": 119999.99999999999,
      "d": 1000,
      "v": 85
    },
    {
      "midi": 58,
      "hit": false,
      "t": 120999.99999999999,
      "d": 125,
      "v": 80
    },
    {
      "midi": 61,
      "hit": false,
      "t": 120999.99999999999,
      "d": 125,
      "v": 80
    },
    {
      "midi": 66,
      "hit": false,
      "t": 120999.99999999999,
      "d": 125,
      "v": 80
    },
    {
      "midi": 70,
      "hit": false,
      "t": 120999.99999999999,
      "d": 125,
      "v": 80
    },
    {
      "midi": 58,
      "hit": false,
      "t": 121499.99999999999,
      "d": 125,
      "v": 80
    },
    {
      "midi": 61,
      "hit": false,
      "t": 121499.99999999999,
      "d": 125,
      "v": 80
    },
    {
      "midi": 66,
      "hit": false,
      "t": 121499.99999999999,
      "d": 125,
      "v": 80
    },
    {
      "midi": 70,
      "hit": false,
      "t": 121499.99999999999,
      "d": 125,
      "v": 80
    },
    {
      "midi": 58,
      "hit": false,
      "t": 121999.99999999999,
      "d": 125,
      "v": 80
    },
    {
      "midi": 61,
      "hit": false,
      "t": 121999.99999999999,
      "d": 125,
      "v": 80
    },
    {
      "midi": 66,
      "hit": false,
      "t": 121999.99999999999,
      "d": 125,
      "v": 80
    },
    {
      "midi": 70,
      "hit": false,
      "t": 121999.99999999999,
      "d": 125,
      "v": 80
    },
    {
      "midi": 58,
      "hit": false,
      "t": 122499.99999999999,
      "d": 125,
      "v": 80
    },
    {
      "midi": 61,
      "hit": false,
      "t": 122499.99999999999,
      "d": 125,
      "v": 80
    },
    {
      "midi": 66,
      "hit": false,
      "t": 122499.99999999999,
      "d": 125,
      "v": 80
    },
    {
      "midi": 70,
      "hit": false,
      "t": 122499.99999999999,
      "d": 125,
      "v": 80
    },
    {
      "midi": 58,
      "hit": false,
      "t": 122999.99999999999,
      "d": 125,
      "v": 80
    },
    {
      "midi": 61,
      "hit": false,
      "t": 122999.99999999999,
      "d": 125,
      "v": 80
    },
    {
      "midi": 66,
      "hit": false,
      "t": 122999.99999999999,
      "d": 125,
      "v": 80
    },
    {
      "midi": 70,
      "hit": false,
      "t": 122999.99999999999,
      "d": 125,
      "v": 80
    },
    {
      "midi": 58,
      "hit": false,
      "t": 123499.99999999999,
      "d": 125,
      "v": 80
    },
    {
      "midi": 61,
      "hit": false,
      "t": 123499.99999999999,
      "d": 125,
      "v": 80
    },
    {
      "midi": 66,
      "hit": false,
      "t": 123499.99999999999,
      "d": 125,
      "v": 80
    },
    {
      "midi": 70,
      "hit": false,
      "t": 123499.99999999999,
      "d": 125,
      "v": 80
    },
    {
      "midi": 59,
      "hit": false,
      "t": 123999.99999999999,
      "d": 1000,
      "v": 95
    },
    {
      "midi": 62,
      "hit": false,
      "t": 123999.99999999999,
      "d": 1000,
      "v": 95
    },
    {
      "midi": 66,
      "hit": false,
      "t": 123999.99999999999,
      "d": 1000,
      "v": 95
    },
    {
      "midi": 71,
      "hit": false,
      "t": 123999.99999999999,
      "d": 1000,
      "v": 95
    },
    {
      "midi": 59,
      "hit": false,
      "t": 124999.99999999999,
      "d": 1000,
      "v": 95
    },
    {
      "midi": 64,
      "hit": false,
      "t": 124999.99999999999,
      "d": 1000,
      "v": 95
    },
    {
      "midi": 68,
      "hit": false,
      "t": 124999.99999999999,
      "d": 1000,
      "v": 95
    },
    {
      "midi": 71,
      "hit": false,
      "t": 124999.99999999999,
      "d": 1000,
      "v": 95
    },
    {
      "midi": 61,
      "hit": false,
      "t": 125999.99999999999,
      "d": 442.7083333333285,
      "v": 95
    },
    {
      "midi": 73,
      "hit": false,
      "t": 125999.99999999999,
      "d": 484.375,
      "v": 95
    },
    {
      "midi": 69,
      "hit": false,
      "t": 125999.99999999999,
      "d": 487.5,
      "v": 95
    },
    {
      "midi": 64,
      "hit": false,
      "t": 125999.99999999999,
      "d": 490.625,
      "v": 95
    },
    {
      "midi": 61,
      "hit": false,
      "t": 126499.99999999999,
      "d": 477.0833333333285,
      "v": 95
    },
    {
      "midi": 64,
      "hit": false,
      "t": 126624.99999999999,
      "d": 340.625,
      "v": 95
    },
    {
      "midi": 69,
      "hit": false,
      "t": 126749.99999999999,
      "d": 215.625,
      "v": 95
    },
    {
      "midi": 71,
      "hit": false,
      "t": 126999.99999999999,
      "d": 438.5416666666715,
      "v": 95
    },
    {
      "midi": 68,
      "hit": false,
      "t": 126999.99999999999,
      "d": 469.7916666666715,
      "v": 95
    },
    {
      "midi": 61,
      "hit": false,
      "t": 126999.99999999999,
      "d": 479.1666666666715,
      "v": 95
    },
    {
      "midi": 65,
      "hit": false,
      "t": 126999.99999999999,
      "d": 479.1666666666715,
      "v": 95
    },
    {
      "midi": 71,
      "hit": false,
      "t": 127499.99999999999,
      "d": 229.16666666667152,
      "v": 95
    },
    {
      "midi": 68,
      "hit": false,
      "t": 127624.99999999999,
      "d": 270.8333333333285,
      "v": 95
    },
    {
      "midi": 65,
      "hit": false,
      "t": 127749.99999999999,
      "d": 152.08333333332848,
      "v": 95
    },
    {
      "midi": 61,
      "hit": false,
      "t": 127874.99999999999,
      "d": 81.25,
      "v": 95
    },
    {
      "midi": 66,
      "hit": false,
      "t": 127999.99999999999,
      "d": 750,
      "v": 95
    },
    {
      "midi": 57,
      "hit": false,
      "t": 127999.99999999999,
      "d": 1000,
      "v": 95
    },
    {
      "midi": 61,
      "hit": false,
      "t": 127999.99999999999,
      "d": 1000,
      "v": 95
    },
    {
      "midi": 69,
      "hit": false,
      "t": 127999.99999999999,
      "d": 1000,
      "v": 95
    },
    {
      "midi": 64,
      "hit": false,
      "t": 128749.99999999999,
      "d": 250,
      "v": 95
    },
    {
      "midi": 57,
      "hit": false,
      "t": 128999.99999999999,
      "d": 1000,
      "v": 95
    },
    {
      "midi": 62,
      "hit": false,
      "t": 128999.99999999999,
      "d": 1000,
      "v": 95
    },
    {
      "midi": 66,
      "hit": false,
      "t": 128999.99999999999,
      "d": 1000,
      "v": 95
    },
    {
      "midi": 69,
      "hit": false,
      "t": 128999.99999999999,
      "d": 1000,
      "v": 95
    },
    {
      "midi": 58,
      "hit": false,
      "t": 129999.99999999999,
      "d": 125,
      "v": 80
    },
    {
      "midi": 61,
      "hit": false,
      "t": 129999.99999999999,
      "d": 125,
      "v": 80
    },
    {
      "midi": 66,
      "hit": false,
      "t": 129999.99999999999,
      "d": 125,
      "v": 80
    },
    {
      "midi": 70,
      "hit": false,
      "t": 129999.99999999999,
      "d": 125,
      "v": 80
    },
    {
      "midi": 58,
      "hit": false,
      "t": 130499.99999999999,
      "d": 125,
      "v": 80
    },
    {
      "midi": 61,
      "hit": false,
      "t": 130499.99999999999,
      "d": 125,
      "v": 80
    },
    {
      "midi": 66,
      "hit": false,
      "t": 130499.99999999999,
      "d": 125,
      "v": 80
    },
    {
      "midi": 70,
      "hit": false,
      "t": 130499.99999999999,
      "d": 125,
      "v": 80
    },
    {
      "midi": 58,
      "hit": false,
      "t": 130999.99999999999,
      "d": 125.00000000001455,
      "v": 80
    },
    {
      "midi": 61,
      "hit": false,
      "t": 130999.99999999999,
      "d": 125.00000000001455,
      "v": 80
    },
    {
      "midi": 66,
      "hit": false,
      "t": 130999.99999999999,
      "d": 125.00000000001455,
      "v": 80
    },
    {
      "midi": 70,
      "hit": false,
      "t": 130999.99999999999,
      "d": 125.00000000001455,
      "v": 80
    },
    {
      "midi": 58,
      "hit": false,
      "t": 131500,
      "d": 125,
      "v": 80
    },
    {
      "midi": 61,
      "hit": false,
      "t": 131500,
      "d": 125,
      "v": 80
    },
    {
      "midi": 66,
      "hit": false,
      "t": 131500,
      "d": 125,
      "v": 80
    },
    {
      "midi": 70,
      "hit": false,
      "t": 131500,
      "d": 125,
      "v": 80
    },
    {
      "midi": 58,
      "hit": false,
      "t": 132000,
      "d": 125,
      "v": 80
    },
    {
      "midi": 61,
      "hit": false,
      "t": 132000,
      "d": 125,
      "v": 80
    },
    {
      "midi": 66,
      "hit": false,
      "t": 132000,
      "d": 125,
      "v": 80
    },
    {
      "midi": 70,
      "hit": false,
      "t": 132000,
      "d": 125,
      "v": 80
    },
    {
      "midi": 58,
      "hit": false,
      "t": 132500,
      "d": 125,
      "v": 80
    },
    {
      "midi": 61,
      "hit": false,
      "t": 132500,
      "d": 125,
      "v": 80
    },
    {
      "midi": 66,
      "hit": false,
      "t": 132500,
      "d": 125,
      "v": 80
    },
    {
      "midi": 70,
      "hit": false,
      "t": 132500,
      "d": 125,
      "v": 80
    },
    {
      "midi": 71,
      "hit": false,
      "t": 133000,
      "d": 250,
      "v": 95
    },
    {
      "midi": 66,
      "hit": false,
      "t": 133250,
      "d": 250,
      "v": 95
    },
    {
      "midi": 71,
      "hit": false,
      "t": 133500,
      "d": 250,
      "v": 95
    },
    {
      "midi": 66,
      "hit": false,
      "t": 133750,
      "d": 250,
      "v": 95
    },
    {
      "midi": 68,
      "hit": false,
      "t": 134000,
      "d": 250,
      "v": 95
    },
    {
      "midi": 64,
      "hit": false,
      "t": 134250,
      "d": 250,
      "v": 95
    },
    {
      "midi": 68,
      "hit": false,
      "t": 134500,
      "d": 250,
      "v": 95
    },
    {
      "midi": 64,
      "hit": false,
      "t": 134750,
      "d": 250,
      "v": 95
    },
    {
      "midi": 71,
      "hit": false,
      "t": 135000,
      "d": 250,
      "v": 95
    },
    {
      "midi": 66,
      "hit": false,
      "t": 135250,
      "d": 250,
      "v": 95
    },
    {
      "midi": 71,
      "hit": false,
      "t": 135500,
      "d": 250,
      "v": 95
    },
    {
      "midi": 66,
      "hit": false,
      "t": 135750,
      "d": 250,
      "v": 95
    },
    {
      "midi": 68,
      "hit": false,
      "t": 136000,
      "d": 250,
      "v": 95
    },
    {
      "midi": 64,
      "hit": false,
      "t": 136250,
      "d": 250,
      "v": 95
    },
    {
      "midi": 68,
      "hit": false,
      "t": 136500,
      "d": 250,
      "v": 95
    },
    {
      "midi": 71,
      "hit": false,
      "t": 136750,
      "d": 250,
      "v": 95
    },
    {
      "midi": 57,
      "hit": false,
      "t": 137010.4166666667,
      "d": 1000,
      "v": 50
    },
    {
      "midi": 88,
      "hit": false,
      "t": 140881.25000000003,
      "d": 58.333333333343035,
      "v": 80
    },
    {
      "midi": 92,
      "hit": false,
      "t": 140934.37500000003,
      "d": 66.66666666668607,
      "v": 80
    },
    {
      "midi": 95,
      "hit": false,
      "t": 140986.45833333337,
      "d": 67.70833333334303,
      "v": 80
    },
    {
      "midi": 100,
      "hit": false,
      "t": 141036.45833333337,
      "d": 721.875,
      "v": 80
    },
    {
      "midi": 88,
      "hit": false,
      "t": 142891.66666666666,
      "d": 104.16666666668607,
      "v": 54
    },
    {
      "midi": 92,
      "hit": false,
      "t": 142934.375,
      "d": 102.08333333334303,
      "v": 62
    },
    {
      "midi": 95,
      "hit": false,
      "t": 142973.95833333334,
      "d": 101.04166666665697,
      "v": 51
    },
    {
      "midi": 100,
      "hit": false,
      "t": 143015.625,
      "d": 685.416666666657,
      "v": 68
    },
    {
      "midi": 49,
      "hit": false,
      "t": 144963.54166666672,
      "d": 1070.833333333343,
      "v": 66
    },
    {
      "midi": 52,
      "hit": false,
      "t": 144992.70833333337,
      "d": 1033.333333333343,
      "v": 80
    },
    {
      "midi": 57,
      "hit": false,
      "t": 145018.75000000003,
      "d": 1009.3750000000291,
      "v": 75
    },
    {
      "midi": 61,
      "hit": false,
      "t": 145048.95833333337,
      "d": 990.6250000000291,
      "v": 79
    },
    {
      "midi": 69,
      "hit": false,
      "t": 145625,
      "d": 187.4999999999709,
      "v": 35
    },
    {
      "midi": 73,
      "hit": false,
      "t": 145651.04166666666,
      "d": 187.4999999999709,
      "v": 35
    },
    {
      "midi": 76,
      "hit": false,
      "t": 145680.2083333333,
      "d": 187.4999999999709,
      "v": 35
    },
    {
      "midi": 81,
      "hit": false,
      "t": 145709.37499999997,
      "d": 187.4999999999709,
      "v": 35
    },
    {
      "midi": 85,
      "hit": false,
      "t": 145726.04166666663,
      "d": 187.4999999999709,
      "v": 35
    },
    {
      "midi": 88,
      "hit": false,
      "t": 145757.29166666663,
      "d": 187.4999999999709,
      "v": 35
    },
    {
      "midi": 93,
      "hit": false,
      "t": 145793.74999999997,
      "d": 156.2499999999709,
      "v": 35
    }
  ]
}