{
  "jsonPath": "Rock/Pop Rock/Maroon 5/wont-go-home-without-you.json",
  "path": "Rock\\Pop Rock\\Maroon 5\\Wont Go Home Without You.mid",
  "name": "Wont Go Home Without You",
  "difficulty": "Advanced",
  "bpm": 110.00011000011,
  "notes": [
    {
      "midi": 87,
      "hit": false,
      "t": 44181.774000000005,
      "d": 763.6356000000014,
      "v": 109
    },
    {
      "midi": 75,
      "hit": false,
      "t": 44181.774000000005,
      "d": 773.8628624999983,
      "v": 99
    },
    {
      "midi": 63,
      "hit": false,
      "t": 44181.774000000005,
      "d": 796.5901125000019,
      "v": 99
    },
    {
      "midi": 75,
      "hit": false,
      "t": 45272.68200000001,
      "d": 773.8628624999983,
      "v": 96
    },
    {
      "midi": 87,
      "hit": false,
      "t": 45272.68200000001,
      "d": 788.6355750000002,
      "v": 102
    },
    {
      "midi": 63,
      "hit": false,
      "t": 45272.68200000001,
      "d": 804.5446500000035,
      "v": 98
    },
    {
      "midi": 63,
      "hit": false,
      "t": 46363.59000000001,
      "d": 809.0901000000013,
      "v": 92
    },
    {
      "midi": 75,
      "hit": false,
      "t": 46363.59000000001,
      "d": 813.6355499999991,
      "v": 96
    },
    {
      "midi": 87,
      "hit": false,
      "t": 46363.59000000001,
      "d": 821.5900875000007,
      "v": 99
    },
    {
      "midi": 75,
      "hit": false,
      "t": 47454.498000000014,
      "d": 638.6357250000001,
      "v": 97
    },
    {
      "midi": 87,
      "hit": false,
      "t": 47454.498000000014,
      "d": 638.6357250000001,
      "v": 104
    },
    {
      "midi": 63,
      "hit": false,
      "t": 47454.498000000014,
      "d": 669.317512499998,
      "v": 98
    },
    {
      "midi": 75,
      "hit": false,
      "t": 48545.40600000001,
      "d": 802.2719250000009,
      "v": 97
    },
    {
      "midi": 87,
      "hit": false,
      "t": 48545.40600000001,
      "d": 802.2719250000009,
      "v": 104
    },
    {
      "midi": 63,
      "hit": false,
      "t": 48545.40600000001,
      "d": 813.6355499999991,
      "v": 96
    },
    {
      "midi": 75,
      "hit": false,
      "t": 49636.314000000006,
      "d": 798.8628374999971,
      "v": 98
    },
    {
      "midi": 87,
      "hit": false,
      "t": 49636.314000000006,
      "d": 803.4082874999949,
      "v": 98
    },
    {
      "midi": 63,
      "hit": false,
      "t": 49636.314000000006,
      "d": 819.3173624999981,
      "v": 104
    },
    {
      "midi": 75,
      "hit": false,
      "t": 50727.222,
      "d": 842.0446125000017,
      "v": 99
    },
    {
      "midi": 63,
      "hit": false,
      "t": 50727.222,
      "d": 856.8173250000036,
      "v": 99
    },
    {
      "midi": 87,
      "hit": false,
      "t": 50727.222,
      "d": 857.9536875000049,
      "v": 98
    },
    {
      "midi": 75,
      "hit": false,
      "t": 51818.130000000005,
      "d": 809.0901000000013,
      "v": 96
    },
    {
      "midi": 87,
      "hit": false,
      "t": 51818.130000000005,
      "d": 812.4991874999978,
      "v": 95
    },
    {
      "midi": 63,
      "hit": false,
      "t": 51818.130000000005,
      "d": 827.2718999999997,
      "v": 95
    },
    {
      "midi": 63,
      "hit": false,
      "t": 52909.03800000001,
      "d": 810.2264625000025,
      "v": 97
    },
    {
      "midi": 87,
      "hit": false,
      "t": 52909.03800000001,
      "d": 813.6355499999991,
      "v": 98
    },
    {
      "midi": 75,
      "hit": false,
      "t": 52909.03800000001,
      "d": 814.7719125000003,
      "v": 93
    },
    {
      "midi": 63,
      "hit": false,
      "t": 53999.94600000001,
      "d": 812.4991874999978,
      "v": 94
    },
    {
      "midi": 75,
      "hit": false,
      "t": 53999.94600000001,
      "d": 815.9082749999943,
      "v": 94
    },
    {
      "midi": 87,
      "hit": false,
      "t": 53999.94600000001,
      "d": 828.4082624999937,
      "v": 94
    },
    {
      "midi": 75,
      "hit": false,
      "t": 55090.85400000001,
      "d": 903.4081874999974,
      "v": 98
    },
    {
      "midi": 87,
      "hit": false,
      "t": 55090.85400000001,
      "d": 905.6809125,
      "v": 102
    },
    {
      "midi": 63,
      "hit": false,
      "t": 55090.85400000001,
      "d": 920.4536250000019,
      "v": 90
    },
    {
      "midi": 87,
      "hit": false,
      "t": 56181.76200000001,
      "d": 852.2718749999985,
      "v": 103
    },
    {
      "midi": 75,
      "hit": false,
      "t": 56181.76200000001,
      "d": 859.0900499999989,
      "v": 104
    },
    {
      "midi": 63,
      "hit": false,
      "t": 56181.76200000001,
      "d": 871.5900374999983,
      "v": 94
    },
    {
      "midi": 75,
      "hit": false,
      "t": 57272.670000000006,
      "d": 820.4537249999994,
      "v": 94
    },
    {
      "midi": 63,
      "hit": false,
      "t": 57272.670000000006,
      "d": 829.5446250000023,
      "v": 93
    },
    {
      "midi": 87,
      "hit": false,
      "t": 57272.670000000006,
      "d": 846.5900624999995,
      "v": 99
    },
    {
      "midi": 75,
      "hit": false,
      "t": 58363.57800000001,
      "d": 540.9085500000001,
      "v": 97
    },
    {
      "midi": 87,
      "hit": false,
      "t": 58363.57800000001,
      "d": 544.3176374999966,
      "v": 96
    },
    {
      "midi": 63,
      "hit": false,
      "t": 58363.57800000001,
      "d": 555.6812624999948,
      "v": 96
    },
    {
      "midi": 27,
      "hit": false,
      "t": 61090.848000000005,
      "d": 1744.3164374999978,
      "v": 103
    },
    {
      "midi": 39,
      "hit": false,
      "t": 61363.575000000004,
      "d": 609.0902999999962,
      "v": 86
    },
    {
      "midi": 51,
      "hit": false,
      "t": 61636.302,
      "d": 734.0901749999975,
      "v": 84
    },
    {
      "midi": 46,
      "hit": false,
      "t": 61909.029,
      "d": 599.9994000000006,
      "v": 67
    },
    {
      "midi": 39,
      "hit": false,
      "t": 62181.756,
      "d": 915.9081750000041,
      "v": 80
    },
    {
      "midi": 51,
      "hit": false,
      "t": 62454.483,
      "d": 1012.4989875000028,
      "v": 94
    },
    {
      "midi": 46,
      "hit": false,
      "t": 62727.21000000001,
      "d": 714.7720124999978,
      "v": 52
    },
    {
      "midi": 27,
      "hit": false,
      "t": 62999.937000000005,
      "d": 1977.270749999996,
      "v": 81
    },
    {
      "midi": 39,
      "hit": false,
      "t": 63272.664000000004,
      "d": 677.2720499999996,
      "v": 79
    },
    {
      "midi": 46,
      "hit": false,
      "t": 63545.391,
      "d": 723.8629125000007,
      "v": 71
    },
    {
      "midi": 51,
      "hit": false,
      "t": 63818.118,
      "d": 614.7721125000025,
      "v": 103
    },
    {
      "midi": 39,
      "hit": false,
      "t": 64090.845,
      "d": 630.6811875000058,
      "v": 89
    },
    {
      "midi": 46,
      "hit": false,
      "t": 64363.57200000001,
      "d": 569.3176124999954,
      "v": 56
    },
    {
      "midi": 51,
      "hit": false,
      "t": 64636.299000000006,
      "d": 897.7263749999911,
      "v": 94
    },
    {
      "midi": 39,
      "hit": false,
      "t": 64909.026000000005,
      "d": 331.81784999999945,
      "v": 69
    },
    {
      "midi": 46,
      "hit": false,
      "t": 65181.753000000004,
      "d": 315.90877499999624,
      "v": 75
    },
    {
      "midi": 41,
      "hit": false,
      "t": 65454.48,
      "d": 1490.907599999984,
      "v": 99
    },
    {
      "midi": 48,
      "hit": false,
      "t": 65727.207,
      "d": 654.5448000000033,
      "v": 70
    },
    {
      "midi": 53,
      "hit": false,
      "t": 65999.934,
      "d": 594.3175875000015,
      "v": 94
    },
    {
      "midi": 29,
      "hit": false,
      "t": 66272.661,
      "d": 1210.2260624999908,
      "v": 76
    },
    {
      "midi": 48,
      "hit": false,
      "t": 66545.38799999999,
      "d": 672.7265999999945,
      "v": 61
    },
    {
      "midi": 53,
      "hit": false,
      "t": 66818.11499999999,
      "d": 605.6812124999997,
      "v": 90
    },
    {
      "midi": 41,
      "hit": false,
      "t": 67090.84199999999,
      "d": 1157.9533874999906,
      "v": 72
    },
    {
      "midi": 48,
      "hit": false,
      "t": 67363.56899999999,
      "d": 501.13586249999935,
      "v": 69
    },
    {
      "midi": 29,
      "hit": false,
      "t": 67636.29599999999,
      "d": 1419.3167624999915,
      "v": 76
    },
    {
      "midi": 48,
      "hit": false,
      "t": 67909.02299999999,
      "d": 732.9538124999963,
      "v": 62
    },
    {
      "midi": 53,
      "hit": false,
      "t": 68181.74999999999,
      "d": 596.5903125000041,
      "v": 90
    },
    {
      "midi": 41,
      "hit": false,
      "t": 68454.47699999998,
      "d": 1180.6806375000015,
      "v": 89
    },
    {
      "midi": 48,
      "hit": false,
      "t": 68727.20399999998,
      "d": 1072.7262000000046,
      "v": 70
    },
    {
      "midi": 53,
      "hit": false,
      "t": 68999.93099999998,
      "d": 912.4990875000076,
      "v": 88
    },
    {
      "midi": 29,
      "hit": false,
      "t": 69272.65799999998,
      "d": 292.0451624999987,
      "v": 80
    },
    {
      "midi": 31,
      "hit": false,
      "t": 69545.38499999998,
      "d": 293.18152500000724,
      "v": 88
    },
    {
      "midi": 32,
      "hit": false,
      "t": 69818.112,
      "d": 997.7262749999936,
      "v": 99
    },
    {
      "midi": 51,
      "hit": false,
      "t": 70090.83899999999,
      "d": 684.0902249999926,
      "v": 78
    },
    {
      "midi": 56,
      "hit": false,
      "t": 70363.56599999999,
      "d": 580.6812375000009,
      "v": 85
    },
    {
      "midi": 44,
      "hit": false,
      "t": 70636.29299999999,
      "d": 1354.5441000000137,
      "v": 79
    },
    {
      "midi": 51,
      "hit": false,
      "t": 70909.01999999999,
      "d": 629.5448250000045,
      "v": 74
    },
    {
      "midi": 32,
      "hit": false,
      "t": 71181.74699999999,
      "d": 324.9996749999991,
      "v": 97
    },
    {
      "midi": 56,
      "hit": false,
      "t": 71454.47399999999,
      "d": 651.1357125000068,
      "v": 111
    },
    {
      "midi": 51,
      "hit": false,
      "t": 71727.201,
      "d": 271.59063750000496,
      "v": 79
    },
    {
      "midi": 34,
      "hit": false,
      "t": 71999.928,
      "d": 578.4085124999983,
      "v": 94
    },
    {
      "midi": 46,
      "hit": false,
      "t": 72272.655,
      "d": 613.6357500000013,
      "v": 78
    },
    {
      "midi": 58,
      "hit": false,
      "t": 72545.382,
      "d": 868.1809499999945,
      "v": 94
    },
    {
      "midi": 34,
      "hit": false,
      "t": 72818.109,
      "d": 905.6809125,
      "v": 98
    },
    {
      "midi": 46,
      "hit": false,
      "t": 73090.836,
      "d": 418.1814000000013,
      "v": 82
    },
    {
      "midi": 53,
      "hit": false,
      "t": 73363.563,
      "d": 463.6359000000084,
      "v": 78
    },
    {
      "midi": 58,
      "hit": false,
      "t": 73636.29,
      "d": 621.5902875000174,
      "v": 88
    },
    {
      "midi": 53,
      "hit": false,
      "t": 73909.017,
      "d": 365.90872500000114,
      "v": 58
    },
    {
      "midi": 39,
      "hit": false,
      "t": 73909.017,
      "d": 848.8627874999947,
      "v": 86
    },
    {
      "midi": 27,
      "hit": false,
      "t": 74181.744,
      "d": 897.7263749999984,
      "v": 91
    },
    {
      "midi": 46,
      "hit": false,
      "t": 74454.471,
      "d": 567.0448875000002,
      "v": 85
    },
    {
      "midi": 51,
      "hit": false,
      "t": 74727.198,
      "d": 564.7721624999976,
      "v": 90
    },
    {
      "midi": 39,
      "hit": false,
      "t": 74999.925,
      "d": 1062.4989375000005,
      "v": 103
    },
    {
      "midi": 46,
      "hit": false,
      "t": 75272.652,
      "d": 385.2268875000009,
      "v": 66
    },
    {
      "midi": 51,
      "hit": false,
      "t": 75545.379,
      "d": 1120.4534249999997,
      "v": 99
    },
    {
      "midi": 46,
      "hit": false,
      "t": 75818.106,
      "d": 712.4992875000025,
      "v": 62
    },
    {
      "midi": 27,
      "hit": false,
      "t": 76090.833,
      "d": 821.5900874999934,
      "v": 91
    },
    {
      "midi": 39,
      "hit": false,
      "t": 76363.56,
      "d": 894.3172875000018,
      "v": 104
    },
    {
      "midi": 46,
      "hit": false,
      "t": 76636.287,
      "d": 919.3172625000007,
      "v": 62
    },
    {
      "midi": 51,
      "hit": false,
      "t": 76909.014,
      "d": 884.0900249999977,
      "v": 99
    },
    {
      "midi": 27,
      "hit": false,
      "t": 77181.741,
      "d": 629.5448250000045,
      "v": 102
    },
    {
      "midi": 39,
      "hit": false,
      "t": 77454.468,
      "d": 1074.9989250000217,
      "v": 90
    },
    {
      "midi": 46,
      "hit": false,
      "t": 77727.19499999999,
      "d": 786.3628500000195,
      "v": 84
    },
    {
      "midi": 51,
      "hit": false,
      "t": 77999.922,
      "d": 495.4540500000003,
      "v": 93
    },
    {
      "midi": 27,
      "hit": false,
      "t": 78272.649,
      "d": 263.63610000000335,
      "v": 91
    },
    {
      "midi": 87,
      "hit": false,
      "t": 113999.886,
      "d": 763.6355999999942,
      "v": 109
    },
    {
      "midi": 75,
      "hit": false,
      "t": 113999.886,
      "d": 773.8628624999983,
      "v": 99
    },
    {
      "midi": 63,
      "hit": false,
      "t": 113999.886,
      "d": 796.5901124999946,
      "v": 99
    },
    {
      "midi": 75,
      "hit": false,
      "t": 115090.794,
      "d": 773.8628624999983,
      "v": 96
    },
    {
      "midi": 87,
      "hit": false,
      "t": 115090.794,
      "d": 788.635574999993,
      "v": 103
    },
    {
      "midi": 63,
      "hit": false,
      "t": 115090.794,
      "d": 804.5446499999962,
      "v": 98
    },
    {
      "midi": 63,
      "hit": false,
      "t": 116181.70199999999,
      "d": 809.0901000000013,
      "v": 92
    },
    {
      "midi": 75,
      "hit": false,
      "t": 116181.70199999999,
      "d": 813.6355500000063,
      "v": 97
    },
    {
      "midi": 87,
      "hit": false,
      "t": 116181.70199999999,
      "d": 821.5900875000079,
      "v": 99
    },
    {
      "midi": 75,
      "hit": false,
      "t": 117272.61,
      "d": 638.6357250000001,
      "v": 96
    },
    {
      "midi": 87,
      "hit": false,
      "t": 117272.61,
      "d": 638.6357250000001,
      "v": 104
    },
    {
      "midi": 63,
      "hit": false,
      "t": 117272.61,
      "d": 669.317512499998,
      "v": 99
    },
    {
      "midi": 75,
      "hit": false,
      "t": 118363.518,
      "d": 802.2719249999936,
      "v": 97
    },
    {
      "midi": 87,
      "hit": false,
      "t": 118363.518,
      "d": 802.2719249999936,
      "v": 104
    },
    {
      "midi": 63,
      "hit": false,
      "t": 118363.518,
      "d": 813.6355499999918,
      "v": 96
    },
    {
      "midi": 75,
      "hit": false,
      "t": 119454.42599999999,
      "d": 798.8628374999971,
      "v": 98
    },
    {
      "midi": 87,
      "hit": false,
      "t": 119454.42599999999,
      "d": 803.4082875000022,
      "v": 98
    },
    {
      "midi": 63,
      "hit": false,
      "t": 119454.42599999999,
      "d": 819.3173625000054,
      "v": 104
    },
    {
      "midi": 75,
      "hit": false,
      "t": 120545.334,
      "d": 842.0446125000017,
      "v": 98
    },
    {
      "midi": 63,
      "hit": false,
      "t": 120545.334,
      "d": 856.8173249999963,
      "v": 99
    },
    {
      "midi": 87,
      "hit": false,
      "t": 120545.334,
      "d": 857.9536874999903,
      "v": 98
    },
    {
      "midi": 75,
      "hit": false,
      "t": 121636.242,
      "d": 809.0901000000013,
      "v": 96
    },
    {
      "midi": 87,
      "hit": false,
      "t": 121636.242,
      "d": 812.4991874999978,
      "v": 95
    },
    {
      "midi": 63,
      "hit": false,
      "t": 121636.242,
      "d": 827.2718999999925,
      "v": 94
    },
    {
      "midi": 63,
      "hit": false,
      "t": 122727.15,
      "d": 810.2264624999953,
      "v": 97
    },
    {
      "midi": 87,
      "hit": false,
      "t": 122727.15,
      "d": 813.6355499999918,
      "v": 98
    },
    {
      "midi": 75,
      "hit": false,
      "t": 122727.15,
      "d": 814.7719124999858,
      "v": 93
    },
    {
      "midi": 63,
      "hit": false,
      "t": 123818.05799999998,
      "d": 812.4991874999978,
      "v": 94
    },
    {
      "midi": 75,
      "hit": false,
      "t": 123818.05799999998,
      "d": 815.9082749999943,
      "v": 95
    },
    {
      "midi": 87,
      "hit": false,
      "t": 123818.05799999998,
      "d": 828.408262500001,
      "v": 95
    },
    {
      "midi": 75,
      "hit": false,
      "t": 124908.96599999997,
      "d": 903.4081874999974,
      "v": 98
    },
    {
      "midi": 87,
      "hit": false,
      "t": 124908.96599999997,
      "d": 905.6809125,
      "v": 102
    },
    {
      "midi": 63,
      "hit": false,
      "t": 124908.96599999997,
      "d": 920.4536249999946,
      "v": 91
    },
    {
      "midi": 87,
      "hit": false,
      "t": 125999.87399999997,
      "d": 852.2718750000058,
      "v": 102
    },
    {
      "midi": 75,
      "hit": false,
      "t": 125999.87399999997,
      "d": 859.0900499999989,
      "v": 104
    },
    {
      "midi": 63,
      "hit": false,
      "t": 125999.87399999997,
      "d": 871.5900375000056,
      "v": 94
    },
    {
      "midi": 75,
      "hit": false,
      "t": 127090.78199999998,
      "d": 820.4537249999994,
      "v": 94
    },
    {
      "midi": 63,
      "hit": false,
      "t": 127090.78199999998,
      "d": 829.544624999995,
      "v": 92
    },
    {
      "midi": 87,
      "hit": false,
      "t": 127090.78199999998,
      "d": 846.5900624999922,
      "v": 98
    },
    {
      "midi": 75,
      "hit": false,
      "t": 128181.68999999997,
      "d": 540.9085499999928,
      "v": 97
    },
    {
      "midi": 87,
      "hit": false,
      "t": 128181.68999999997,
      "d": 544.3176374999894,
      "v": 96
    },
    {
      "midi": 63,
      "hit": false,
      "t": 128181.68999999997,
      "d": 555.6812624999875,
      "v": 97
    },
    {
      "midi": 27,
      "hit": false,
      "t": 130908.95999999996,
      "d": 1744.3164375000633,
      "v": 102
    },
    {
      "midi": 39,
      "hit": false,
      "t": 131181.68699999998,
      "d": 609.0903000000399,
      "v": 87
    },
    {
      "midi": 51,
      "hit": false,
      "t": 131454.414,
      "d": 734.0901750000194,
      "v": 84
    },
    {
      "midi": 46,
      "hit": false,
      "t": 131727.141,
      "d": 599.9994000000006,
      "v": 67
    },
    {
      "midi": 39,
      "hit": false,
      "t": 131999.86800000002,
      "d": 915.9081750000187,
      "v": 80
    },
    {
      "midi": 51,
      "hit": false,
      "t": 132272.595,
      "d": 1012.498987500061,
      "v": 95
    },
    {
      "midi": 46,
      "hit": false,
      "t": 132545.32200000001,
      "d": 714.7720125000342,
      "v": 52
    },
    {
      "midi": 27,
      "hit": false,
      "t": 132818.04900000003,
      "d": 1977.2707500000251,
      "v": 80
    },
    {
      "midi": 39,
      "hit": false,
      "t": 133090.77600000004,
      "d": 677.2720500000287,
      "v": 79
    },
    {
      "midi": 46,
      "hit": false,
      "t": 133363.50300000006,
      "d": 723.8629125000152,
      "v": 70
    },
    {
      "midi": 51,
      "hit": false,
      "t": 133636.23000000007,
      "d": 614.7721125000098,
      "v": 102
    },
    {
      "midi": 39,
      "hit": false,
      "t": 133908.95700000008,
      "d": 630.6811874999839,
      "v": 88
    },
    {
      "midi": 46,
      "hit": false,
      "t": 134181.68400000007,
      "d": 569.3176124999882,
      "v": 57
    },
    {
      "midi": 51,
      "hit": false,
      "t": 134454.41100000008,
      "d": 897.7263749999984,
      "v": 95
    },
    {
      "midi": 39,
      "hit": false,
      "t": 134727.13800000006,
      "d": 331.8178499999922,
      "v": 69
    },
    {
      "midi": 46,
      "hit": false,
      "t": 134999.86500000005,
      "d": 315.90877500001807,
      "v": 75
    },
    {
      "midi": 41,
      "hit": false,
      "t": 135272.59200000006,
      "d": 1490.9076000000641,
      "v": 99
    },
    {
      "midi": 48,
      "hit": false,
      "t": 135545.31900000008,
      "d": 654.5448000000324,
      "v": 70
    },
    {
      "midi": 53,
      "hit": false,
      "t": 135818.0460000001,
      "d": 594.3175875000306,
      "v": 94
    },
    {
      "midi": 29,
      "hit": false,
      "t": 136090.7730000001,
      "d": 1210.2260625000054,
      "v": 77
    },
    {
      "midi": 48,
      "hit": false,
      "t": 136363.50000000012,
      "d": 672.7265999999945,
      "v": 61
    },
    {
      "midi": 53,
      "hit": false,
      "t": 136636.22700000013,
      "d": 605.6812124999706,
      "v": 91
    },
    {
      "midi": 41,
      "hit": false,
      "t": 136908.9540000001,
      "d": 1157.9533874999906,
      "v": 72
    },
    {
      "midi": 48,
      "hit": false,
      "t": 137181.6810000001,
      "d": 501.13586249999935,
      "v": 68
    },
    {
      "midi": 29,
      "hit": false,
      "t": 137454.4080000001,
      "d": 1419.3167624999478,
      "v": 76
    },
    {
      "midi": 48,
      "hit": false,
      "t": 137727.1350000001,
      "d": 732.9538124999963,
      "v": 63
    },
    {
      "midi": 53,
      "hit": false,
      "t": 137999.8620000001,
      "d": 596.5903124999604,
      "v": 90
    },
    {
      "midi": 41,
      "hit": false,
      "t": 138272.5890000001,
      "d": 1180.680637499987,
      "v": 88
    },
    {
      "midi": 48,
      "hit": false,
      "t": 138545.31600000008,
      "d": 1072.7262000000046,
      "v": 71
    },
    {
      "midi": 53,
      "hit": false,
      "t": 138818.04300000006,
      "d": 912.4990875000076,
      "v": 88
    },
    {
      "midi": 29,
      "hit": false,
      "t": 139090.77000000005,
      "d": 292.0451625000278,
      "v": 80
    },
    {
      "midi": 31,
      "hit": false,
      "t": 139363.49700000006,
      "d": 293.1815250000218,
      "v": 88
    },
    {
      "midi": 32,
      "hit": false,
      "t": 139636.22400000007,
      "d": 997.7262749999936,
      "v": 99
    },
    {
      "midi": 51,
      "hit": false,
      "t": 139908.95100000006,
      "d": 684.0902250000217,
      "v": 78
    },
    {
      "midi": 56,
      "hit": false,
      "t": 140181.67800000007,
      "d": 580.6812374999863,
      "v": 84
    },
    {
      "midi": 44,
      "hit": false,
      "t": 140454.4050000001,
      "d": 1354.54409999997,
      "v": 78
    },
    {
      "midi": 51,
      "hit": false,
      "t": 140727.13200000007,
      "d": 629.5448249999899,
      "v": 74
    },
    {
      "midi": 32,
      "hit": false,
      "t": 140999.85900000005,
      "d": 324.9996749999991,
      "v": 97
    },
    {
      "midi": 56,
      "hit": false,
      "t": 141272.58600000007,
      "d": 651.1357124999631,
      "v": 110
    },
    {
      "midi": 51,
      "hit": false,
      "t": 141545.31300000005,
      "d": 271.5906374999904,
      "v": 79
    },
    {
      "midi": 34,
      "hit": false,
      "t": 141818.04000000004,
      "d": 578.4085124999983,
      "v": 95
    },
    {
      "midi": 46,
      "hit": false,
      "t": 142090.76700000002,
      "d": 613.6357500000158,
      "v": 78
    },
    {
      "midi": 58,
      "hit": false,
      "t": 142363.49400000004,
      "d": 868.180950000009,
      "v": 95
    },
    {
      "midi": 34,
      "hit": false,
      "t": 142636.22100000005,
      "d": 905.6809124999854,
      "v": 99
    },
    {
      "midi": 46,
      "hit": false,
      "t": 142908.94800000003,
      "d": 418.1814000000013,
      "v": 83
    },
    {
      "midi": 53,
      "hit": false,
      "t": 143181.67500000005,
      "d": 463.63589999999385,
      "v": 78
    },
    {
      "midi": 58,
      "hit": false,
      "t": 143454.40200000003,
      "d": 621.590287500032,
      "v": 88
    },
    {
      "midi": 53,
      "hit": false,
      "t": 143727.12900000004,
      "d": 365.9087250000157,
      "v": 58
    },
    {
      "midi": 39,
      "hit": false,
      "t": 143727.12900000004,
      "d": 848.862787500053,
      "v": 86
    },
    {
      "midi": 27,
      "hit": false,
      "t": 143999.85600000006,
      "d": 897.7263750000566,
      "v": 90
    },
    {
      "midi": 46,
      "hit": false,
      "t": 144272.58300000007,
      "d": 567.0448875000293,
      "v": 84
    },
    {
      "midi": 51,
      "hit": false,
      "t": 144545.31000000008,
      "d": 564.7721625000413,
      "v": 90
    },
    {
      "midi": 39,
      "hit": false,
      "t": 144818.0370000001,
      "d": 1062.4989375000005,
      "v": 102
    },
    {
      "midi": 46,
      "hit": false,
      "t": 145090.7640000001,
      "d": 385.2268875000009,
      "v": 66
    },
    {
      "midi": 51,
      "hit": false,
      "t": 145363.49100000013,
      "d": 1120.453424999956,
      "v": 99
    },
    {
      "midi": 46,
      "hit": false,
      "t": 145636.2180000001,
      "d": 712.499287499988,
      "v": 63
    },
    {
      "midi": 27,
      "hit": false,
      "t": 145908.9450000001,
      "d": 821.5900874999934,
      "v": 90
    },
    {
      "midi": 39,
      "hit": false,
      "t": 146181.6720000001,
      "d": 894.3172874999873,
      "v": 105
    },
    {
      "midi": 46,
      "hit": false,
      "t": 146454.3990000001,
      "d": 919.3172625000007,
      "v": 62
    },
    {
      "midi": 51,
      "hit": false,
      "t": 146727.12600000008,
      "d": 884.0900250000122,
      "v": 99
    },
    {
      "midi": 27,
      "hit": false,
      "t": 146999.8530000001,
      "d": 629.5448249999899,
      "v": 102
    },
    {
      "midi": 39,
      "hit": false,
      "t": 147272.5800000001,
      "d": 1074.9989249999635,
      "v": 91
    },
    {
      "midi": 46,
      "hit": false,
      "t": 147545.3070000001,
      "d": 786.3628499999759,
      "v": 84
    },
    {
      "midi": 51,
      "hit": false,
      "t": 147818.03400000007,
      "d": 495.4540500000003,
      "v": 92
    },
    {
      "midi": 27,
      "hit": false,
      "t": 148090.7610000001,
      "d": 232.95431249999092,
      "v": 91
    },
    {
      "midi": 27,
      "hit": false,
      "t": 148362.35163750008,
      "d": 1059.0898500000476,
      "v": 90
    },
    {
      "midi": 39,
      "hit": false,
      "t": 148636.21500000008,
      "d": 609.0903000000399,
      "v": 86
    },
    {
      "midi": 51,
      "hit": false,
      "t": 148908.9420000001,
      "d": 734.0901750000194,
      "v": 84
    },
    {
      "midi": 46,
      "hit": false,
      "t": 149181.6690000001,
      "d": 599.9994000000006,
      "v": 67
    },
    {
      "midi": 39,
      "hit": false,
      "t": 149454.39600000012,
      "d": 915.9081750000187,
      "v": 81
    },
    {
      "midi": 51,
      "hit": false,
      "t": 149727.1230000001,
      "d": 1012.498987500061,
      "v": 95
    },
    {
      "midi": 46,
      "hit": false,
      "t": 149999.85000000012,
      "d": 714.7720125000342,
      "v": 53
    },
    {
      "midi": 27,
      "hit": false,
      "t": 150272.57700000014,
      "d": 1977.2707500000251,
      "v": 81
    },
    {
      "midi": 39,
      "hit": false,
      "t": 150545.30400000015,
      "d": 677.2720500000287,
      "v": 78
    },
    {
      "midi": 46,
      "hit": false,
      "t": 150818.03100000016,
      "d": 723.8629125000152,
      "v": 70
    },
    {
      "midi": 51,
      "hit": false,
      "t": 151090.75800000018,
      "d": 614.7721125000098,
      "v": 103
    },
    {
      "midi": 39,
      "hit": false,
      "t": 151363.4850000002,
      "d": 630.6811874999839,
      "v": 89
    },
    {
      "midi": 46,
      "hit": false,
      "t": 151636.21200000017,
      "d": 569.3176124999882,
      "v": 57
    },
    {
      "midi": 51,
      "hit": false,
      "t": 151908.9390000002,
      "d": 897.7263749999984,
      "v": 94
    },
    {
      "midi": 39,
      "hit": false,
      "t": 152181.66600000017,
      "d": 331.8178499999922,
      "v": 68
    },
    {
      "midi": 46,
      "hit": false,
      "t": 152454.39300000016,
      "d": 315.90877500001807,
      "v": 74
    },
    {
      "midi": 41,
      "hit": false,
      "t": 152727.12000000017,
      "d": 1490.9076000000641,
      "v": 99
    },
    {
      "midi": 48,
      "hit": false,
      "t": 152999.84700000018,
      "d": 654.5448000000324,
      "v": 70
    },
    {
      "midi": 53,
      "hit": false,
      "t": 153272.5740000002,
      "d": 594.3175875000306,
      "v": 94
    },
    {
      "midi": 29,
      "hit": false,
      "t": 153545.3010000002,
      "d": 1210.2260625000054,
      "v": 77
    },
    {
      "midi": 48,
      "hit": false,
      "t": 153818.02800000022,
      "d": 672.7265999999945,
      "v": 60
    },
    {
      "midi": 53,
      "hit": false,
      "t": 154090.75500000024,
      "d": 605.6812124999706,
      "v": 90
    },
    {
      "midi": 41,
      "hit": false,
      "t": 154363.48200000022,
      "d": 1157.9533874999906,
      "v": 72
    },
    {
      "midi": 48,
      "hit": false,
      "t": 154636.2090000002,
      "d": 501.13586249999935,
      "v": 69
    },
    {
      "midi": 29,
      "hit": false,
      "t": 154908.93600000022,
      "d": 1419.3167624999478,
      "v": 76
    },
    {
      "midi": 48,
      "hit": false,
      "t": 155181.6630000002,
      "d": 732.9538124999963,
      "v": 62
    },
    {
      "midi": 53,
      "hit": false,
      "t": 155454.39000000022,
      "d": 596.5903124999604,
      "v": 90
    },
    {
      "midi": 41,
      "hit": false,
      "t": 155727.1170000002,
      "d": 1180.680637499987,
      "v": 88
    },
    {
      "midi": 48,
      "hit": false,
      "t": 155999.8440000002,
      "d": 1072.7262000000046,
      "v": 71
    },
    {
      "midi": 53,
      "hit": false,
      "t": 156272.57100000017,
      "d": 912.4990875000076,
      "v": 88
    },
    {
      "midi": 29,
      "hit": false,
      "t": 156545.29800000016,
      "d": 292.0451625000278,
      "v": 81
    },
    {
      "midi": 31,
      "hit": false,
      "t": 156818.02500000017,
      "d": 293.1815250000218,
      "v": 89
    },
    {
      "midi": 32,
      "hit": false,
      "t": 157090.75200000018,
      "d": 997.7262749999936,
      "v": 98
    },
    {
      "midi": 51,
      "hit": false,
      "t": 157363.47900000017,
      "d": 684.0902250000217,
      "v": 79
    },
    {
      "midi": 56,
      "hit": false,
      "t": 157636.20600000018,
      "d": 580.6812374999863,
      "v": 85
    },
    {
      "midi": 44,
      "hit": false,
      "t": 157908.9330000002,
      "d": 1354.54409999997,
      "v": 79
    },
    {
      "midi": 51,
      "hit": false,
      "t": 158181.66000000018,
      "d": 629.5448249999899,
      "v": 74
    },
    {
      "midi": 32,
      "hit": false,
      "t": 158454.38700000016,
      "d": 324.9996749999991,
      "v": 96
    },
    {
      "midi": 56,
      "hit": false,
      "t": 158727.11400000018,
      "d": 651.1357124999631,
      "v": 110
    },
    {
      "midi": 51,
      "hit": false,
      "t": 158999.84100000016,
      "d": 271.5906374999904,
      "v": 78
    },
    {
      "midi": 34,
      "hit": false,
      "t": 159272.56800000014,
      "d": 578.4085124999983,
      "v": 94
    },
    {
      "midi": 46,
      "hit": false,
      "t": 159545.29500000013,
      "d": 613.6357500000158,
      "v": 78
    },
    {
      "midi": 58,
      "hit": false,
      "t": 159818.02200000014,
      "d": 868.180950000009,
      "v": 94
    },
    {
      "midi": 34,
      "hit": false,
      "t": 160090.74900000016,
      "d": 905.6809124999854,
      "v": 98
    },
    {
      "midi": 46,
      "hit": false,
      "t": 160363.47600000014,
      "d": 418.1814000000013,
      "v": 82
    },
    {
      "midi": 53,
      "hit": false,
      "t": 160636.20300000015,
      "d": 463.63589999999385,
      "v": 79
    },
    {
      "midi": 58,
      "hit": false,
      "t": 160908.93000000014,
      "d": 621.590287500032,
      "v": 89
    },
    {
      "midi": 53,
      "hit": false,
      "t": 161181.65700000015,
      "d": 365.9087250000157,
      "v": 59
    },
    {
      "midi": 39,
      "hit": false,
      "t": 161181.65700000015,
      "d": 848.862787500053,
      "v": 86
    },
    {
      "midi": 27,
      "hit": false,
      "t": 161454.38400000017,
      "d": 897.7263750000566,
      "v": 90
    },
    {
      "midi": 46,
      "hit": false,
      "t": 161727.11100000018,
      "d": 567.0448875000293,
      "v": 85
    },
    {
      "midi": 51,
      "hit": false,
      "t": 161999.8380000002,
      "d": 564.7721625000413,
      "v": 90
    },
    {
      "midi": 39,
      "hit": false,
      "t": 162272.5650000002,
      "d": 1062.4989375000005,
      "v": 103
    },
    {
      "midi": 46,
      "hit": false,
      "t": 162545.29200000022,
      "d": 385.2268875000009,
      "v": 66
    },
    {
      "midi": 51,
      "hit": false,
      "t": 162818.01900000023,
      "d": 1120.453424999956,
      "v": 98
    },
    {
      "midi": 46,
      "hit": false,
      "t": 163090.74600000022,
      "d": 712.499287499988,
      "v": 63
    },
    {
      "midi": 27,
      "hit": false,
      "t": 163363.4730000002,
      "d": 821.5900874999934,
      "v": 90
    },
    {
      "midi": 39,
      "hit": false,
      "t": 163636.20000000022,
      "d": 894.3172874999873,
      "v": 104
    },
    {
      "midi": 46,
      "hit": false,
      "t": 163908.9270000002,
      "d": 919.3172625000007,
      "v": 62
    },
    {
      "midi": 51,
      "hit": false,
      "t": 164181.65400000018,
      "d": 884.0900250000122,
      "v": 99
    },
    {
      "midi": 27,
      "hit": false,
      "t": 164454.3810000002,
      "d": 629.5448249999899,
      "v": 103
    },
    {
      "midi": 39,
      "hit": false,
      "t": 164727.1080000002,
      "d": 1074.9989249999635,
      "v": 91
    },
    {
      "midi": 46,
      "hit": false,
      "t": 164999.8350000002,
      "d": 786.3628499999759,
      "v": 85
    },
    {
      "midi": 51,
      "hit": false,
      "t": 165272.56200000018,
      "d": 495.4540500000003,
      "v": 93
    },
    {
      "midi": 27,
      "hit": false,
      "t": 165545.2890000002,
      "d": 263.63609999997425,
      "v": 90
    },
    {
      "midi": 37,
      "hit": false,
      "t": 165818.01600000018,
      "d": 548.8630875000381,
      "v": 82
    },
    {
      "midi": 49,
      "hit": false,
      "t": 166366.87908750022,
      "d": 1606.8165750000626,
      "v": 71
    },
    {
      "midi": 56,
      "hit": false,
      "t": 166633.92427500023,
      "d": 1295.4532500000496,
      "v": 95
    },
    {
      "midi": 37,
      "hit": false,
      "t": 167187.33281250024,
      "d": 737.4992625000305,
      "v": 73
    },
    {
      "midi": 61,
      "hit": false,
      "t": 167460.05981250026,
      "d": 507.9540375000215,
      "v": 100
    },
    {
      "midi": 32,
      "hit": false,
      "t": 168005.51381250028,
      "d": 562.4994374999951,
      "v": 88
    },
    {
      "midi": 44,
      "hit": false,
      "t": 168543.0132750003,
      "d": 1603.4074874999933,
      "v": 70
    },
    {
      "midi": 51,
      "hit": false,
      "t": 168820.28572500026,
      "d": 1272.7260000000242,
      "v": 89
    },
    {
      "midi": 32,
      "hit": false,
      "t": 169371.42153750025,
      "d": 711.3629250000231,
      "v": 70
    },
    {
      "midi": 56,
      "hit": false,
      "t": 169631.64855000025,
      "d": 503.40858750004554,
      "v": 96
    },
    {
      "midi": 39,
      "hit": false,
      "t": 170183.92072500027,
      "d": 810.2264624999953,
      "v": 81
    },
    {
      "midi": 51,
      "hit": false,
      "t": 170728.23836250027,
      "d": 1535.2257374999754,
      "v": 70
    },
    {
      "midi": 58,
      "hit": false,
      "t": 171007.78353750025,
      "d": 1259.089650000009,
      "v": 96
    },
    {
      "midi": 39,
      "hit": false,
      "t": 171547.55572500025,
      "d": 702.272025000013,
      "v": 72
    },
    {
      "midi": 63,
      "hit": false,
      "t": 171822.55545000025,
      "d": 426.13593750001746,
      "v": 85
    },
    {
      "midi": 34,
      "hit": false,
      "t": 172356.64582500025,
      "d": 834.0900750000146,
      "v": 88
    },
    {
      "midi": 46,
      "hit": false,
      "t": 172630.50918750025,
      "d": 363.6359999999986,
      "v": 88
    },
    {
      "midi": 58,
      "hit": false,
      "t": 172915.73617500026,
      "d": 815.9082750000234,
      "v": 96
    },
    {
      "midi": 46,
      "hit": false,
      "t": 173179.37227500026,
      "d": 1482.9530625000189,
      "v": 78
    },
    {
      "midi": 62,
      "hit": false,
      "t": 173450.96291250025,
      "d": 1071.5898375000397,
      "v": 97
    },
    {
      "midi": 34,
      "hit": false,
      "t": 173721.41718750028,
      "d": 603.4084875000117,
      "v": 62
    },
    {
      "midi": 58,
      "hit": false,
      "t": 173995.2805500003,
      "d": 511.3631250000035,
      "v": 103
    },
    {
      "midi": 42,
      "hit": false,
      "t": 174539.5981875003,
      "d": 1782.9527624999755,
      "v": 81
    },
    {
      "midi": 49,
      "hit": false,
      "t": 174812.32518750028,
      "d": 399.999599999981,
      "v": 72
    },
    {
      "midi": 61,
      "hit": false,
      "t": 175088.46127500027,
      "d": 919.3172625000007,
      "v": 103
    },
    {
      "midi": 49,
      "hit": false,
      "t": 175358.91555000027,
      "d": 388.63597499998286,
      "v": 61
    },
    {
      "midi": 54,
      "hit": false,
      "t": 175628.23346250027,
      "d": 682.9538624999986,
      "v": 95
    },
    {
      "midi": 49,
      "hit": false,
      "t": 175905.50591250026,
      "d": 363.6359999999986,
      "v": 74
    },
    {
      "midi": 61,
      "hit": false,
      "t": 176183.91472500027,
      "d": 597.7266749999835,
      "v": 100
    },
    {
      "midi": 54,
      "hit": false,
      "t": 176449.82355000026,
      "d": 318.18150000000605,
      "v": 66
    },
    {
      "midi": 37,
      "hit": false,
      "t": 176733.91417500027,
      "d": 1663.634699999995,
      "v": 84
    },
    {
      "midi": 44,
      "hit": false,
      "t": 176994.14118750027,
      "d": 593.1812250000366,
      "v": 70
    },
    {
      "midi": 56,
      "hit": false,
      "t": 177278.23181250028,
      "d": 814.7719125000003,
      "v": 100
    },
    {
      "midi": 61,
      "hit": false,
      "t": 177818.0040000003,
      "d": 572.7266999999702,
      "v": 102
    },
    {
      "midi": 49,
      "hit": false,
      "t": 178088.4582750003,
      "d": 762.4992374999565,
      "v": 88
    },
    {
      "midi": 56,
      "hit": false,
      "t": 178357.77618750028,
      "d": 490.9085999999952,
      "v": 100
    },
    {
      "midi": 32,
      "hit": false,
      "t": 178907.77563750025,
      "d": 589.7721375000256,
      "v": 91
    },
    {
      "midi": 44,
      "hit": false,
      "t": 179188.45717500025,
      "d": 926.1354375000228,
      "v": 71
    },
    {
      "midi": 56,
      "hit": false,
      "t": 179450.95691250026,
      "d": 607.9539375000168,
      "v": 96
    },
    {
      "midi": 32,
      "hit": false,
      "t": 179730.5020875003,
      "d": 1032.953512499982,
      "v": 71
    },
    {
      "midi": 60,
      "hit": false,
      "t": 180002.0927250003,
      "d": 561.3630750000011,
      "v": 70
    },
    {
      "midi": 44,
      "hit": false,
      "t": 180275.9560875003,
      "d": 790.908299999981,
      "v": 73
    },
    {
      "midi": 56,
      "hit": false,
      "t": 180538.4558250003,
      "d": 448.86318749998463,
      "v": 88
    },
    {
      "midi": 34,
      "hit": false,
      "t": 181097.54617500026,
      "d": 935.2263374999457,
      "v": 87
    },
    {
      "midi": 46,
      "hit": false,
      "t": 181368.00045000025,
      "d": 353.40873749996535,
      "v": 84
    },
    {
      "midi": 58,
      "hit": false,
      "t": 181629.36382500024,
      "d": 1112.498887499969,
      "v": 110
    },
    {
      "midi": 46,
      "hit": false,
      "t": 181902.09082500022,
      "d": 1323.8623124999867,
      "v": 77
    },
    {
      "midi": 53,
      "hit": false,
      "t": 182186.1814500002,
      "d": 1044.3171375000093,
      "v": 78
    },
    {
      "midi": 34,
      "hit": false,
      "t": 182456.6357250002,
      "d": 743.1810750000004,
      "v": 76
    },
    {
      "midi": 62,
      "hit": false,
      "t": 182724.8172750002,
      "d": 522.7267500000016,
      "v": 92
    },
    {
      "midi": 58,
      "hit": false,
      "t": 183002.0897250002,
      "d": 259.0906499999983,
      "v": 73
    },
    {
      "midi": 46,
      "hit": false,
      "t": 183267.9985500002,
      "d": 327.2723999999871,
      "v": 95
    },
    {
      "midi": 58,
      "hit": false,
      "t": 183271.4076375002,
      "d": 315.90877499998896,
      "v": 85
    },
    {
      "midi": 27,
      "hit": false,
      "t": 185454.3600000002,
      "d": 609.0903000000399,
      "v": 87
    },
    {
      "midi": 39,
      "hit": false,
      "t": 185727.0870000002,
      "d": 609.0903000000399,
      "v": 87
    },
    {
      "midi": 51,
      "hit": false,
      "t": 185999.81400000022,
      "d": 734.0901750000194,
      "v": 84
    },
    {
      "midi": 46,
      "hit": false,
      "t": 186272.54100000023,
      "d": 599.9994000000006,
      "v": 66
    },
    {
      "midi": 39,
      "hit": false,
      "t": 186545.26800000024,
      "d": 915.9081750000187,
      "v": 81
    },
    {
      "midi": 51,
      "hit": false,
      "t": 186817.99500000023,
      "d": 1012.498987500061,
      "v": 95
    },
    {
      "midi": 46,
      "hit": false,
      "t": 187090.72200000024,
      "d": 714.7720125000342,
      "v": 53
    },
    {
      "midi": 27,
      "hit": false,
      "t": 187363.44900000026,
      "d": 1977.2707500000251,
      "v": 80
    },
    {
      "midi": 39,
      "hit": false,
      "t": 187636.17600000027,
      "d": 677.2720500000287,
      "v": 78
    },
    {
      "midi": 46,
      "hit": false,
      "t": 187908.90300000028,
      "d": 723.8629125000152,
      "v": 70
    },
    {
      "midi": 51,
      "hit": false,
      "t": 188181.6300000003,
      "d": 614.7721125000098,
      "v": 103
    },
    {
      "midi": 39,
      "hit": false,
      "t": 188454.3570000003,
      "d": 630.6811874999839,
      "v": 88
    },
    {
      "midi": 46,
      "hit": false,
      "t": 188727.0840000003,
      "d": 569.3176124999882,
      "v": 56
    },
    {
      "midi": 51,
      "hit": false,
      "t": 188999.8110000003,
      "d": 897.7263749999984,
      "v": 95
    },
    {
      "midi": 39,
      "hit": false,
      "t": 189272.5380000003,
      "d": 331.8178499999922,
      "v": 68
    },
    {
      "midi": 46,
      "hit": false,
      "t": 189550.94681250027,
      "d": 315.90877500001807,
      "v": 74
    },
    {
      "midi": 41,
      "hit": false,
      "t": 189821.4010875003,
      "d": 1490.907600000035,
      "v": 98
    },
    {
      "midi": 48,
      "hit": false,
      "t": 190083.9008250003,
      "d": 654.5448000000033,
      "v": 71
    },
    {
      "midi": 53,
      "hit": false,
      "t": 190357.76418750032,
      "d": 594.3175875000015,
      "v": 94
    },
    {
      "midi": 29,
      "hit": false,
      "t": 190642.99117500032,
      "d": 1210.2260625000345,
      "v": 76
    },
    {
      "midi": 48,
      "hit": false,
      "t": 190910.0363625003,
      "d": 672.7266000000236,
      "v": 60
    },
    {
      "midi": 53,
      "hit": false,
      "t": 191181.62700000033,
      "d": 604.5448500000348,
      "v": 90
    },
    {
      "midi": 41,
      "hit": false,
      "t": 191450.94491250033,
      "d": 1159.0897500000137,
      "v": 73
    },
    {
      "midi": 48,
      "hit": false,
      "t": 191723.67191250034,
      "d": 501.13586249999935,
      "v": 68
    },
    {
      "midi": 29,
      "hit": false,
      "t": 191991.85346250035,
      "d": 1419.316762500006,
      "v": 77
    },
    {
      "midi": 48,
      "hit": false,
      "t": 192279.35317500035,
      "d": 734.0901750000194,
      "v": 63
    },
    {
      "midi": 53,
      "hit": false,
      "t": 192538.44382500034,
      "d": 596.5903125000186,
      "v": 90
    },
    {
      "midi": 41,
      "hit": false,
      "t": 192816.85263750036,
      "d": 1181.81700000001,
      "v": 89
    },
    {
      "midi": 48,
      "hit": false,
      "t": 193094.12508750038,
      "d": 1072.7262000000046,
      "v": 71
    },
    {
      "midi": 53,
      "hit": false,
      "t": 193362.30663750035,
      "d": 912.4990875000367,
      "v": 89
    },
    {
      "midi": 31,
      "hit": false,
      "t": 193630.48818750036,
      "d": 493.1813250000123,
      "v": 80
    },
    {
      "midi": 32,
      "hit": false,
      "t": 194186.1694500004,
      "d": 997.7262749999936,
      "v": 98
    },
    {
      "midi": 51,
      "hit": false,
      "t": 194460.0328125004,
      "d": 684.0902249999926,
      "v": 78
    },
    {
      "midi": 56,
      "hit": false,
      "t": 194728.2143625004,
      "d": 581.8175999999803,
      "v": 84
    },
    {
      "midi": 44,
      "hit": false,
      "t": 195006.6231750004,
      "d": 1353.4077375000052,
      "v": 78
    },
    {
      "midi": 51,
      "hit": false,
      "t": 195271.3956375004,
      "d": 628.408462499996,
      "v": 74
    },
    {
      "midi": 32,
      "hit": false,
      "t": 195545.2590000004,
      "d": 324.9996749999991,
      "v": 96
    },
    {
      "midi": 56,
      "hit": false,
      "t": 195817.9860000004,
      "d": 651.1357124999631,
      "v": 110
    },
    {
      "midi": 51,
      "hit": false,
      "t": 196090.7130000004,
      "d": 271.5906374999904,
      "v": 78
    },
    {
      "midi": 34,
      "hit": false,
      "t": 196363.44000000038,
      "d": 578.4085124999983,
      "v": 95
    },
    {
      "midi": 46,
      "hit": false,
      "t": 196636.16700000037,
      "d": 613.6357500000158,
      "v": 79
    },
    {
      "midi": 58,
      "hit": false,
      "t": 196908.89400000038,
      "d": 868.180950000009,
      "v": 94
    },
    {
      "midi": 34,
      "hit": false,
      "t": 197181.6210000004,
      "d": 905.6809124999854,
      "v": 99
    },
    {
      "midi": 46,
      "hit": false,
      "t": 197454.34800000038,
      "d": 418.1814000000013,
      "v": 82
    },
    {
      "midi": 53,
      "hit": false,
      "t": 197727.0750000004,
      "d": 463.63589999999385,
      "v": 79
    },
    {
      "midi": 58,
      "hit": false,
      "t": 197999.80200000037,
      "d": 621.590287500032,
      "v": 88
    },
    {
      "midi": 53,
      "hit": false,
      "t": 198272.5290000004,
      "d": 365.9087250000157,
      "v": 58
    },
    {
      "midi": 39,
      "hit": false,
      "t": 198272.5290000004,
      "d": 848.862787500053,
      "v": 87
    },
    {
      "midi": 27,
      "hit": false,
      "t": 198545.2560000004,
      "d": 897.7263750000566,
      "v": 90
    },
    {
      "midi": 46,
      "hit": false,
      "t": 198817.98300000041,
      "d": 567.0448875000293,
      "v": 85
    },
    {
      "midi": 51,
      "hit": false,
      "t": 199090.71000000043,
      "d": 564.7721625000413,
      "v": 90
    },
    {
      "midi": 39,
      "hit": false,
      "t": 199363.43700000044,
      "d": 1062.4989375000005,
      "v": 102
    },
    {
      "midi": 46,
      "hit": false,
      "t": 199636.16400000046,
      "d": 385.2268875000009,
      "v": 66
    },
    {
      "midi": 51,
      "hit": false,
      "t": 199908.89100000047,
      "d": 1120.453424999956,
      "v": 99
    },
    {
      "midi": 46,
      "hit": false,
      "t": 200181.61800000045,
      "d": 712.499287499988,
      "v": 63
    },
    {
      "midi": 27,
      "hit": false,
      "t": 200454.34500000044,
      "d": 821.5900874999934,
      "v": 91
    },
    {
      "midi": 39,
      "hit": false,
      "t": 200727.07200000045,
      "d": 894.3172874999873,
      "v": 105
    },
    {
      "midi": 46,
      "hit": false,
      "t": 200999.79900000044,
      "d": 919.3172625000007,
      "v": 63
    },
    {
      "midi": 51,
      "hit": false,
      "t": 201272.52600000042,
      "d": 884.0900250000122,
      "v": 98
    },
    {
      "midi": 27,
      "hit": false,
      "t": 201545.25300000043,
      "d": 629.5448249999899,
      "v": 102
    },
    {
      "midi": 39,
      "hit": false,
      "t": 201817.98000000045,
      "d": 1074.9989249999635,
      "v": 91
    },
    {
      "midi": 46,
      "hit": false,
      "t": 202090.70700000043,
      "d": 447.72682499999064,
      "v": 85
    },
    {
      "midi": 51,
      "hit": false,
      "t": 202363.43400000042,
      "d": 495.4540500000003,
      "v": 93
    },
    {
      "midi": 46,
      "hit": false,
      "t": 202636.16100000043,
      "d": 265.90882499999134,
      "v": 90
    },
    {
      "midi": 27,
      "hit": false,
      "t": 202912.29708750042,
      "d": 1060.2262125000125,
      "v": 90
    },
    {
      "midi": 39,
      "hit": false,
      "t": 203174.79682500043,
      "d": 609.0903000000108,
      "v": 86
    },
    {
      "midi": 51,
      "hit": false,
      "t": 203455.47836250043,
      "d": 734.0901749999903,
      "v": 85
    },
    {
      "midi": 46,
      "hit": false,
      "t": 203730.47808750044,
      "d": 601.1357624999946,
      "v": 66
    },
    {
      "midi": 39,
      "hit": false,
      "t": 203996.38691250043,
      "d": 914.7718124999956,
      "v": 80
    },
    {
      "midi": 51,
      "hit": false,
      "t": 204271.38663750043,
      "d": 1012.4989875000028,
      "v": 95
    },
    {
      "midi": 46,
      "hit": false,
      "t": 204542.97727500042,
      "d": 715.9083749999991,
      "v": 52
    },
    {
      "midi": 27,
      "hit": false,
      "t": 204820.2497250004,
      "d": 1977.270749999967,
      "v": 80
    },
    {
      "midi": 39,
      "hit": false,
      "t": 205092.97672500042,
      "d": 677.2720499999705,
      "v": 78
    },
    {
      "midi": 46,
      "hit": false,
      "t": 205370.2491750004,
      "d": 723.8629124999861,
      "v": 71
    },
    {
      "midi": 51,
      "hit": false,
      "t": 205628.20346250042,
      "d": 614.7721124999807,
      "v": 102
    },
    {
      "midi": 39,
      "hit": false,
      "t": 205906.6122750004,
      "d": 629.5448249999608,
      "v": 88
    },
    {
      "midi": 46,
      "hit": false,
      "t": 206174.7938250004,
      "d": 569.3176124999591,
      "v": 56
    },
    {
      "midi": 51,
      "hit": false,
      "t": 206462.29353750037,
      "d": 897.7263750000275,
      "v": 94
    },
    {
      "midi": 39,
      "hit": false,
      "t": 206728.20236250036,
      "d": 331.8178500000213,
      "v": 69
    },
    {
      "midi": 46,
      "hit": false,
      "t": 207006.61117500038,
      "d": 315.90877500001807,
      "v": 74
    },
    {
      "midi": 41,
      "hit": false,
      "t": 207277.0654500004,
      "d": 1492.043962500029,
      "v": 99
    },
    {
      "midi": 48,
      "hit": false,
      "t": 207550.9288125004,
      "d": 653.4084375000093,
      "v": 71
    },
    {
      "midi": 53,
      "hit": false,
      "t": 207820.2467250004,
      "d": 594.3175875000015,
      "v": 94
    },
    {
      "midi": 29,
      "hit": false,
      "t": 208086.1555500004,
      "d": 1210.2260625000345,
      "v": 77
    },
    {
      "midi": 48,
      "hit": false,
      "t": 208364.56436250042,
      "d": 673.8629625000176,
      "v": 61
    },
    {
      "midi": 53,
      "hit": false,
      "t": 208632.74591250042,
      "d": 605.6812124999997,
      "v": 91
    },
    {
      "midi": 41,
      "hit": false,
      "t": 208907.74563750043,
      "d": 1157.9533875000197,
      "v": 72
    },
    {
      "midi": 48,
      "hit": false,
      "t": 209177.06355000043,
      "d": 501.13586250002845,
      "v": 68
    },
    {
      "midi": 29,
      "hit": false,
      "t": 209449.79055000044,
      "d": 1419.316762500006,
      "v": 76
    },
    {
      "midi": 48,
      "hit": false,
      "t": 209720.24482500047,
      "d": 732.9538124999963,
      "v": 62
    },
    {
      "midi": 53,
      "hit": false,
      "t": 209998.65363750045,
      "d": 596.5903125000186,
      "v": 90
    },
    {
      "midi": 41,
      "hit": false,
      "t": 210279.33517500045,
      "d": 1180.680637499987,
      "v": 88
    },
    {
      "midi": 48,
      "hit": false,
      "t": 210544.10763750048,
      "d": 1072.7261999999464,
      "v": 70
    },
    {
      "midi": 53,
      "hit": false,
      "t": 210825.92553750044,
      "d": 912.4990874999785,
      "v": 88
    },
    {
      "midi": 29,
      "hit": false,
      "t": 211090.69800000044,
      "d": 292.0451624999987,
      "v": 80
    },
    {
      "midi": 31,
      "hit": false,
      "t": 211361.15227500044,
      "d": 293.1815249999927,
      "v": 89
    },
    {
      "midi": 32,
      "hit": false,
      "t": 211632.74291250043,
      "d": 998.8626374999876,
      "v": 99
    },
    {
      "midi": 51,
      "hit": false,
      "t": 211904.33355000042,
      "d": 684.0902249999926,
      "v": 78
    },
    {
      "midi": 56,
      "hit": false,
      "t": 212182.74236250043,
      "d": 581.8175999999803,
      "v": 85
    },
    {
      "midi": 44,
      "hit": false,
      "t": 212460.01481250042,
      "d": 1354.54409999997,
      "v": 78
    },
    {
      "midi": 51,
      "hit": false,
      "t": 212731.6054500004,
      "d": 629.5448249999899,
      "v": 75
    },
    {
      "midi": 32,
      "hit": false,
      "t": 212994.10518750042,
      "d": 324.99967499997,
      "v": 96
    },
    {
      "midi": 56,
      "hit": false,
      "t": 213271.3776375004,
      "d": 651.1357124999922,
      "v": 111
    },
    {
      "midi": 51,
      "hit": false,
      "t": 213553.19553750037,
      "d": 270.4542750000255,
      "v": 78
    },
    {
      "midi": 34,
      "hit": false,
      "t": 213811.14982500038,
      "d": 578.4085125000274,
      "v": 94
    },
    {
      "midi": 46,
      "hit": false,
      "t": 214082.7404625004,
      "d": 613.6357500000158,
      "v": 79
    },
    {
      "midi": 58,
      "hit": false,
      "t": 214360.0129125004,
      "d": 868.1809500000381,
      "v": 94
    },
    {
      "midi": 34,
      "hit": false,
      "t": 214638.4217250004,
      "d": 905.6809125000145,
      "v": 98
    },
    {
      "midi": 46,
      "hit": false,
      "t": 214908.87600000043,
      "d": 418.1814000000013,
      "v": 82
    },
    {
      "midi": 53,
      "hit": false,
      "t": 215181.60300000044,
      "d": 463.63589999996475,
      "v": 79
    },
    {
      "midi": 58,
      "hit": false,
      "t": 215454.33000000042,
      "d": 621.5902875000029,
      "v": 89
    },
    {
      "midi": 53,
      "hit": false,
      "t": 215727.0570000004,
      "d": 365.9087250000157,
      "v": 59
    },
    {
      "midi": 27,
      "hit": false,
      "t": 215999.78400000042,
      "d": 897.7263750000566,
      "v": 91
    },
    {
      "midi": 46,
      "hit": false,
      "t": 216272.51100000044,
      "d": 567.0448875000293,
      "v": 85
    },
    {
      "midi": 51,
      "hit": false,
      "t": 216545.23800000045,
      "d": 564.7721625000413,
      "v": 90
    },
    {
      "midi": 39,
      "hit": false,
      "t": 216817.96500000046,
      "d": 1062.4989375000005,
      "v": 102
    },
    {
      "midi": 46,
      "hit": false,
      "t": 217090.69200000048,
      "d": 385.2268875000009,
      "v": 67
    },
    {
      "midi": 51,
      "hit": false,
      "t": 217363.4190000005,
      "d": 1120.453424999956,
      "v": 99
    },
    {
      "midi": 46,
      "hit": false,
      "t": 217636.14600000047,
      "d": 712.499287499988,
      "v": 63
    },
    {
      "midi": 27,
      "hit": false,
      "t": 217908.87300000046,
      "d": 821.5900874999934,
      "v": 90
    },
    {
      "midi": 39,
      "hit": false,
      "t": 218181.60000000047,
      "d": 894.3172874999873,
      "v": 104
    },
    {
      "midi": 46,
      "hit": false,
      "t": 218454.32700000046,
      "d": 919.3172625000007,
      "v": 62
    },
    {
      "midi": 51,
      "hit": false,
      "t": 218727.05400000044,
      "d": 884.0900250000122,
      "v": 99
    },
    {
      "midi": 27,
      "hit": false,
      "t": 218999.78100000045,
      "d": 629.5448249999899,
      "v": 102
    },
    {
      "midi": 39,
      "hit": false,
      "t": 219272.50800000047,
      "d": 897.7263749999402,
      "v": 90
    },
    {
      "midi": 46,
      "hit": false,
      "t": 219545.23500000045,
      "d": 493.1813249999832,
      "v": 85
    },
    {
      "midi": 51,
      "hit": false,
      "t": 219817.96200000044,
      "d": 495.4540499999712,
      "v": 92
    },
    {
      "midi": 46,
      "hit": false,
      "t": 220090.68900000042,
      "d": 263.63609999997425,
      "v": 90
    },
    {
      "midi": 39,
      "hit": false,
      "t": 220363.4160000004,
      "d": 720.4538250000332,
      "v": 90
    },
    {
      "midi": 46,
      "hit": false,
      "t": 220636.14300000042,
      "d": 567.0448875000002,
      "v": 85
    },
    {
      "midi": 51,
      "hit": false,
      "t": 220903.18818750043,
      "d": 563.6357999999891,
      "v": 90
    },
    {
      "midi": 39,
      "hit": false,
      "t": 221179.32427500043,
      "d": 1061.3625750000065,
      "v": 102
    },
    {
      "midi": 46,
      "hit": false,
      "t": 221450.91491250042,
      "d": 385.2268875000009,
      "v": 66
    },
    {
      "midi": 51,
      "hit": false,
      "t": 221725.91463750042,
      "d": 1120.4534249999851,
      "v": 98
    },
    {
      "midi": 46,
      "hit": false,
      "t": 222005.45981250043,
      "d": 712.499287499988,
      "v": 63
    },
    {
      "midi": 27,
      "hit": false,
      "t": 222270.23227500042,
      "d": 822.7264499999583,
      "v": 90
    },
    {
      "midi": 39,
      "hit": false,
      "t": 222541.8229125004,
      "d": 894.3172874999582,
      "v": 105
    },
    {
      "midi": 46,
      "hit": false,
      "t": 222822.50445000042,
      "d": 919.3172624999715,
      "v": 63
    },
    {
      "midi": 51,
      "hit": false,
      "t": 223091.8223625004,
      "d": 884.0900249999831,
      "v": 98
    },
    {
      "midi": 27,
      "hit": false,
      "t": 223371.36753750037,
      "d": 628.408462499996,
      "v": 103
    },
    {
      "midi": 39,
      "hit": false,
      "t": 223639.54908750037,
      "d": 1074.9989249999926,
      "v": 91
    },
    {
      "midi": 46,
      "hit": false,
      "t": 223903.18518750038,
      "d": 493.1813249999832,
      "v": 85
    },
    {
      "midi": 51,
      "hit": false,
      "t": 224187.27581250036,
      "d": 495.4540500000003,
      "v": 92
    },
    {
      "midi": 46,
      "hit": false,
      "t": 224456.59372500036,
      "d": 263.63610000000335,
      "v": 90
    },
    {
      "midi": 36,
      "hit": false,
      "t": 224722.50255000035,
      "d": 2053.407037499972,
      "v": 70
    },
    {
      "midi": 48,
      "hit": false,
      "t": 225006.59317500037,
      "d": 290.9087999999756,
      "v": 54
    },
    {
      "midi": 58,
      "hit": false,
      "t": 225274.77472500034,
      "d": 634.090274999995,
      "v": 100
    },
    {
      "midi": 48,
      "hit": false,
      "t": 225550.91081250034,
      "d": 477.2722500000091,
      "v": 76
    },
    {
      "midi": 51,
      "hit": false,
      "t": 225819.09236250035,
      "d": 334.09057499998016,
      "v": 78
    },
    {
      "midi": 58,
      "hit": false,
      "t": 226097.50117500033,
      "d": 819.3173625000054,
      "v": 100
    },
    {
      "midi": 51,
      "hit": false,
      "t": 226355.45546250034,
      "d": 521.5903874999785,
      "v": 80
    },
    {
      "midi": 48,
      "hit": false,
      "t": 226641.81881250034,
      "d": 295.4542500000098,
      "v": 87
    },
    {
      "midi": 56,
      "hit": false,
      "t": 226913.40945000033,
      "d": 1063.6353000000527,
      "v": 107
    },
    {
      "midi": 32,
      "hit": false,
      "t": 227175.90918750034,
      "d": 565.9085250000353,
      "v": 78
    },
    {
      "midi": 51,
      "hit": false,
      "t": 227450.90891250034,
      "d": 1010.2262625000149,
      "v": 91
    },
    {
      "midi": 44,
      "hit": false,
      "t": 227722.49955000036,
      "d": 846.5900624999776,
      "v": 88
    },
    {
      "midi": 60,
      "hit": false,
      "t": 228007.72653750036,
      "d": 443.18137499998556,
      "v": 71
    },
    {
      "midi": 32,
      "hit": false,
      "t": 228270.22627500037,
      "d": 798.862837499968,
      "v": 66
    },
    {
      "midi": 56,
      "hit": false,
      "t": 228539.54418750035,
      "d": 555.681262499973,
      "v": 97
    },
    {
      "midi": 44,
      "hit": false,
      "t": 228817.95300000033,
      "d": 260.2270125000214,
      "v": 96
    },
    {
      "midi": 39,
      "hit": false,
      "t": 229086.13455000034,
      "d": 7620.446924999735,
      "v": 76
    },
    {
      "midi": 27,
      "hit": false,
      "t": 229091.81636250034,
      "d": 7614.765112499736,
      "v": 85
    },
    {
      "midi": 51,
      "hit": false,
      "t": 229092.95272500033,
      "d": 7613.628749999742,
      "v": 100
    }
  ]
}