{
  "jsonPath": "Unknown/Unknown/Martha Argerich  Mikhail Pletnev/5-le-jardin-feerique.json",
  "path": "Unknown\\Unknown\\Martha Argerich  Mikhail Pletnev\\5 Le jardin féerique.mid",
  "name": "5 Le jardin féerique",
  "difficulty": "Advanced",
  "bpm": 120,
  "notes": [
    {
      "midi": 36,
      "hit": false,
      "t": 2602.8645833333335,
      "d": 1799.4791666666665,
      "v": 28
    },
    {
      "midi": 60,
      "hit": false,
      "t": 2614.5833333333335,
      "d": 950.5208333333335,
      "v": 41
    },
    {
      "midi": 52,
      "hit": false,
      "t": 2614.5833333333335,
      "d": 2624.9999999999995,
      "v": 15
    },
    {
      "midi": 62,
      "hit": false,
      "t": 3574.2187500000005,
      "d": 1399.7395833333326,
      "v": 30
    },
    {
      "midi": 59,
      "hit": false,
      "t": 3598.958333333334,
      "d": 1192.7083333333321,
      "v": 22
    },
    {
      "midi": 55,
      "hit": false,
      "t": 4427.083333333333,
      "d": 609.375,
      "v": 20
    },
    {
      "midi": 40,
      "hit": false,
      "t": 4427.083333333333,
      "d": 1084.635416666667,
      "v": 26
    },
    {
      "midi": 60,
      "hit": false,
      "t": 4842.447916666666,
      "d": 742.1875,
      "v": 41
    },
    {
      "midi": 64,
      "hit": false,
      "t": 5373.697916666666,
      "d": 1204.4270833333321,
      "v": 36
    },
    {
      "midi": 53,
      "hit": false,
      "t": 5427.083333333333,
      "d": 667.9687499999991,
      "v": 21
    },
    {
      "midi": 57,
      "hit": false,
      "t": 5427.083333333333,
      "d": 1018.2291666666652,
      "v": 24
    },
    {
      "midi": 38,
      "hit": false,
      "t": 5454.427083333333,
      "d": 1082.0312499999982,
      "v": 23
    },
    {
      "midi": 55,
      "hit": false,
      "t": 6427.083333333332,
      "d": 627.6041666666652,
      "v": 23
    },
    {
      "midi": 40,
      "hit": false,
      "t": 6432.291666666665,
      "d": 617.1874999999991,
      "v": 22
    },
    {
      "midi": 62,
      "hit": false,
      "t": 6437.499999999998,
      "d": 641.9270833333321,
      "v": 29
    },
    {
      "midi": 59,
      "hit": false,
      "t": 6473.958333333331,
      "d": 550.78125,
      "v": 21
    },
    {
      "midi": 60,
      "hit": false,
      "t": 7367.187499999997,
      "d": 610.6770833333339,
      "v": 25
    },
    {
      "midi": 67,
      "hit": false,
      "t": 7367.187499999997,
      "d": 625.0000000000009,
      "v": 53
    },
    {
      "midi": 57,
      "hit": false,
      "t": 7377.604166666664,
      "d": 750.0000000000009,
      "v": 34
    },
    {
      "midi": 41,
      "hit": false,
      "t": 7380.208333333331,
      "d": 574.21875,
      "v": 28
    },
    {
      "midi": 67,
      "hit": false,
      "t": 8234.374999999998,
      "d": 1180.989583333334,
      "v": 55
    },
    {
      "midi": 59,
      "hit": false,
      "t": 8244.791666666664,
      "d": 1072.9166666666679,
      "v": 24
    },
    {
      "midi": 43,
      "hit": false,
      "t": 8247.39583333333,
      "d": 1106.7708333333358,
      "v": 30
    },
    {
      "midi": 53,
      "hit": false,
      "t": 8252.604166666664,
      "d": 1634.1145833333358,
      "v": 28
    },
    {
      "midi": 60,
      "hit": false,
      "t": 9209.635416666664,
      "d": 1029.9479166666697,
      "v": 33
    },
    {
      "midi": 65,
      "hit": false,
      "t": 9214.843749999998,
      "d": 1457.0312500000036,
      "v": 48
    },
    {
      "midi": 45,
      "hit": false,
      "t": 9255.208333333332,
      "d": 1005.2083333333358,
      "v": 37
    },
    {
      "midi": 55,
      "hit": false,
      "t": 10125,
      "d": 2036.458333333334,
      "v": 14
    },
    {
      "midi": 62,
      "hit": false,
      "t": 10141.927083333334,
      "d": 950.5208333333339,
      "v": 37
    },
    {
      "midi": 47,
      "hit": false,
      "t": 10154.947916666668,
      "d": 1057.291666666666,
      "v": 35
    },
    {
      "midi": 67,
      "hit": false,
      "t": 10572.916666666668,
      "d": 764.3229166666661,
      "v": 63
    },
    {
      "midi": 69,
      "hit": false,
      "t": 11104.166666666668,
      "d": 1180.9895833333321,
      "v": 54
    },
    {
      "midi": 64,
      "hit": false,
      "t": 11170.572916666668,
      "d": 658.8541666666661,
      "v": 27
    },
    {
      "midi": 48,
      "hit": false,
      "t": 11170.572916666668,
      "d": 1609.3749999999982,
      "v": 29
    },
    {
      "midi": 64,
      "hit": false,
      "t": 12119.791666666668,
      "d": 1567.7083333333321,
      "v": 40
    },
    {
      "midi": 57,
      "hit": false,
      "t": 12135.416666666668,
      "d": 847.6562499999982,
      "v": 32
    },
    {
      "midi": 59,
      "hit": false,
      "t": 13045.572916666666,
      "d": 628.90625,
      "v": 26
    },
    {
      "midi": 43,
      "hit": false,
      "t": 13067.708333333332,
      "d": 589.84375,
      "v": 35
    },
    {
      "midi": 71,
      "hit": false,
      "t": 14184.895833333334,
      "d": 1075.520833333334,
      "v": 51
    },
    {
      "midi": 64,
      "hit": false,
      "t": 14192.708333333334,
      "d": 1682.2916666666679,
      "v": 30
    },
    {
      "midi": 45,
      "hit": false,
      "t": 14213.541666666668,
      "d": 2449.2187499999964,
      "v": 38
    },
    {
      "midi": 60,
      "hit": false,
      "t": 14217.447916666668,
      "d": 1829.427083333334,
      "v": 33
    },
    {
      "midi": 69,
      "hit": false,
      "t": 15166.666666666668,
      "d": 1072.916666666666,
      "v": 63
    },
    {
      "midi": 55,
      "hit": false,
      "t": 16072.916666666668,
      "d": 636.7187499999964,
      "v": 38
    },
    {
      "midi": 64,
      "hit": false,
      "t": 16597.65625,
      "d": 554.6874999999964,
      "v": 59
    },
    {
      "midi": 60,
      "hit": false,
      "t": 16602.864583333332,
      "d": 154.94791666666424,
      "v": 38
    },
    {
      "midi": 54,
      "hit": false,
      "t": 17072.916666666664,
      "d": 2016.9270833333321,
      "v": 32
    },
    {
      "midi": 62,
      "hit": false,
      "t": 17079.427083333332,
      "d": 1037.7604166666679,
      "v": 49
    },
    {
      "midi": 59,
      "hit": false,
      "t": 17087.239583333332,
      "d": 2246.0937499999964,
      "v": 37
    },
    {
      "midi": 40,
      "hit": false,
      "t": 17108.072916666664,
      "d": 2312.4999999999964,
      "v": 35
    },
    {
      "midi": 64,
      "hit": false,
      "t": 17973.958333333332,
      "d": 1473.9583333333285,
      "v": 49
    },
    {
      "midi": 55,
      "hit": false,
      "t": 18984.374999999996,
      "d": 811.1979166666642,
      "v": 19
    },
    {
      "midi": 71,
      "hit": false,
      "t": 19848.95833333333,
      "d": 1010.4166666666642,
      "v": 59
    },
    {
      "midi": 60,
      "hit": false,
      "t": 19869.79166666666,
      "d": 1992.1874999999964,
      "v": 37
    },
    {
      "midi": 64,
      "hit": false,
      "t": 19871.093749999993,
      "d": 2042.9687499999964,
      "v": 35
    },
    {
      "midi": 45,
      "hit": false,
      "t": 19873.69791666666,
      "d": 881.5104166666642,
      "v": 38
    },
    {
      "midi": 69,
      "hit": false,
      "t": 20679.687499999993,
      "d": 1312.4999999999964,
      "v": 70
    },
    {
      "midi": 47,
      "hit": false,
      "t": 20704.427083333325,
      "d": 842.4479166666679,
      "v": 41
    },
    {
      "midi": 59,
      "hit": false,
      "t": 21492.187499999993,
      "d": 619.7916666666642,
      "v": 63
    },
    {
      "midi": 48,
      "hit": false,
      "t": 21516.927083333325,
      "d": 932.2916666666642,
      "v": 63
    },
    {
      "midi": 67,
      "hit": false,
      "t": 21927.08333333332,
      "d": 272.1354166666679,
      "v": 84
    },
    {
      "midi": 50,
      "hit": false,
      "t": 22334.635416666657,
      "d": 2332.0312500000036,
      "v": 46
    },
    {
      "midi": 57,
      "hit": false,
      "t": 22385.416666666657,
      "d": 1848.9583333333358,
      "v": 50
    },
    {
      "midi": 76,
      "hit": false,
      "t": 22386.71874999999,
      "d": 1096.3541666666679,
      "v": 97
    },
    {
      "midi": 65,
      "hit": false,
      "t": 22421.87499999999,
      "d": 1828.1250000000036,
      "v": 41
    },
    {
      "midi": 74,
      "hit": false,
      "t": 23382.81249999999,
      "d": 1257.8125000000036,
      "v": 73
    },
    {
      "midi": 67,
      "hit": false,
      "t": 24154.947916666657,
      "d": 444.0104166666679,
      "v": 66
    },
    {
      "midi": 59,
      "hit": false,
      "t": 24157.552083333325,
      "d": 540.3645833333358,
      "v": 46
    },
    {
      "midi": 77,
      "hit": false,
      "t": 25152.343749999993,
      "d": 1307.2916666666642,
      "v": 65
    },
    {
      "midi": 69,
      "hit": false,
      "t": 25170.57291666666,
      "d": 1479.1666666666642,
      "v": 32
    },
    {
      "midi": 65,
      "hit": false,
      "t": 25199.218749999993,
      "d": 1388.0208333333321,
      "v": 25
    },
    {
      "midi": 60,
      "hit": false,
      "t": 25214.843749999993,
      "d": 812.4999999999964,
      "v": 27
    },
    {
      "midi": 50,
      "hit": false,
      "t": 25242.187499999993,
      "d": 2255.208333333332,
      "v": 21
    },
    {
      "midi": 72,
      "hit": false,
      "t": 26184.89583333332,
      "d": 1769.5312500000036,
      "v": 57
    },
    {
      "midi": 62,
      "hit": false,
      "t": 26214.84374999999,
      "d": 618.4895833333358,
      "v": 28
    },
    {
      "midi": 64,
      "hit": false,
      "t": 27059.895833333325,
      "d": 367.1875,
      "v": 70
    },
    {
      "midi": 69,
      "hit": false,
      "t": 27454.427083333325,
      "d": 654.9479166666642,
      "v": 85
    },
    {
      "midi": 67,
      "hit": false,
      "t": 27949.218749999993,
      "d": 1024.7395833333285,
      "v": 73
    },
    {
      "midi": 64,
      "hit": false,
      "t": 27967.447916666657,
      "d": 2100.2604166666642,
      "v": 52
    },
    {
      "midi": 59,
      "hit": false,
      "t": 27977.864583333325,
      "d": 1412.7604166666642,
      "v": 46
    },
    {
      "midi": 45,
      "hit": false,
      "t": 27994.791666666657,
      "d": 2032.5520833333321,
      "v": 31
    },
    {
      "midi": 69,
      "hit": false,
      "t": 28829.42708333332,
      "d": 1298.1770833333321,
      "v": 66
    },
    {
      "midi": 60,
      "hit": false,
      "t": 29640.62499999999,
      "d": 799.4791666666642,
      "v": 79
    },
    {
      "midi": 50,
      "hit": false,
      "t": 30333.33333333332,
      "d": 2052.0833333333394,
      "v": 50
    },
    {
      "midi": 57,
      "hit": false,
      "t": 30459.635416666653,
      "d": 524.7395833333358,
      "v": 63
    },
    {
      "midi": 77,
      "hit": false,
      "t": 30470.05208333332,
      "d": 1165.3645833333358,
      "v": 101
    },
    {
      "midi": 69,
      "hit": false,
      "t": 30489.58333333332,
      "d": 1839.8437500000036,
      "v": 58
    },
    {
      "midi": 65,
      "hit": false,
      "t": 30494.791666666653,
      "d": 1776.0416666666715,
      "v": 55
    },
    {
      "midi": 59,
      "hit": false,
      "t": 30902.34374999999,
      "d": 625,
      "v": 71
    },
    {
      "midi": 72,
      "hit": false,
      "t": 31453.12499999999,
      "d": 1361.9791666666679,
      "v": 90
    },
    {
      "midi": 60,
      "hit": false,
      "t": 31464.84374999999,
      "d": 902.3437500000036,
      "v": 75
    },
    {
      "midi": 62,
      "hit": false,
      "t": 32295.572916666657,
      "d": 449.21875000000364,
      "v": 75
    },
    {
      "midi": 64,
      "hit": false,
      "t": 32722.656249999993,
      "d": 510.41666666666424,
      "v": 88
    },
    {
      "midi": 69,
      "hit": false,
      "t": 32729.16666666666,
      "d": 828.1249999999964,
      "v": 94
    },
    {
      "midi": 55,
      "hit": false,
      "t": 32994.79166666666,
      "d": 2817.7083333333285,
      "v": 62
    },
    {
      "midi": 79,
      "hit": false,
      "t": 33217.44791666666,
      "d": 2678.3854166666642,
      "v": 97
    },
    {
      "midi": 65,
      "hit": false,
      "t": 33223.95833333332,
      "d": 2166.6666666666642,
      "v": 84
    },
    {
      "midi": 71,
      "hit": false,
      "t": 33690.10416666666,
      "d": 375,
      "v": 71
    },
    {
      "midi": 67,
      "hit": false,
      "t": 33695.31249999999,
      "d": 351.5625,
      "v": 63
    },
    {
      "midi": 72,
      "hit": false,
      "t": 34244.79166666666,
      "d": 977.8645833333285,
      "v": 75
    },
    {
      "midi": 69,
      "hit": false,
      "t": 34260.41666666666,
      "d": 601.5625,
      "v": 57
    },
    {
      "midi": 74,
      "hit": false,
      "t": 35208.33333333332,
      "d": 489.5833333333285,
      "v": 48
    },
    {
      "midi": 71,
      "hit": false,
      "t": 35236.97916666665,
      "d": 447.91666666666424,
      "v": 30
    },
    {
      "midi": 76,
      "hit": false,
      "t": 35703.124999999985,
      "d": 614.5833333333358,
      "v": 44
    },
    {
      "midi": 72,
      "hit": false,
      "t": 35708.33333333332,
      "d": 781.25,
      "v": 39
    },
    {
      "midi": 79,
      "hit": false,
      "t": 36277.343749999985,
      "d": 562.5,
      "v": 36
    },
    {
      "midi": 74,
      "hit": false,
      "t": 36290.36458333332,
      "d": 592.4479166666642,
      "v": 26
    },
    {
      "midi": 71,
      "hit": false,
      "t": 36291.66666666666,
      "d": 572.9166666666642,
      "v": 24
    },
    {
      "midi": 55,
      "hit": false,
      "t": 36354.16666666666,
      "d": 1138.0208333333285,
      "v": 10
    },
    {
      "midi": 79,
      "hit": false,
      "t": 37410.156249999985,
      "d": 1552.0833333333358,
      "v": 45
    },
    {
      "midi": 67,
      "hit": false,
      "t": 38809.89583333332,
      "d": 2135.4166666666642,
      "v": 50
    },
    {
      "midi": 57,
      "hit": false,
      "t": 39867.187499999985,
      "d": 1975.2604166666715,
      "v": 31
    },
    {
      "midi": 41,
      "hit": false,
      "t": 39872.39583333332,
      "d": 2072.9166666666715,
      "v": 32
    },
    {
      "midi": 52,
      "hit": false,
      "t": 39874.999999999985,
      "d": 989.5833333333358,
      "v": 31
    },
    {
      "midi": 65,
      "hit": false,
      "t": 40774.73958333332,
      "d": 1000,
      "v": 54
    },
    {
      "midi": 50,
      "hit": false,
      "t": 40790.36458333332,
      "d": 1179.6875000000073,
      "v": 42
    },
    {
      "midi": 60,
      "hit": false,
      "t": 41622.39583333332,
      "d": 970.052083333343,
      "v": 50
    },
    {
      "midi": 53,
      "hit": false,
      "t": 42032.55208333333,
      "d": 488.28125,
      "v": 57
    },
    {
      "midi": 59,
      "hit": false,
      "t": 42484.37499999999,
      "d": 1075.5208333333358,
      "v": 45
    },
    {
      "midi": 50,
      "hit": false,
      "t": 42492.18749999999,
      "d": 822.9166666666715,
      "v": 52
    },
    {
      "midi": 55,
      "hit": false,
      "t": 42516.92708333333,
      "d": 988.28125,
      "v": 24
    },
    {
      "midi": 41,
      "hit": false,
      "t": 42524.73958333333,
      "d": 1837.2395833333285,
      "v": 29
    },
    {
      "midi": 57,
      "hit": false,
      "t": 43317.70833333333,
      "d": 944.0104166666642,
      "v": 51
    },
    {
      "midi": 48,
      "hit": false,
      "t": 43347.65624999999,
      "d": 1044.2708333333285,
      "v": 39
    },
    {
      "midi": 60,
      "hit": false,
      "t": 44114.58333333333,
      "d": 345.0520833333285,
      "v": 50
    },
    {
      "midi": 64,
      "hit": false,
      "t": 44954.42708333332,
      "d": 1078.125,
      "v": 45
    },
    {
      "midi": 55,
      "hit": false,
      "t": 44973.95833333332,
      "d": 643.2291666666642,
      "v": 30
    },
    {
      "midi": 41,
      "hit": false,
      "t": 44992.187499999985,
      "d": 2015.625,
      "v": 29
    },
    {
      "midi": 57,
      "hit": false,
      "t": 44994.79166666665,
      "d": 2046.875,
      "v": 21
    },
    {
      "midi": 53,
      "hit": false,
      "t": 45828.124999999985,
      "d": 781.25,
      "v": 39
    },
    {
      "midi": 62,
      "hit": false,
      "t": 45837.23958333332,
      "d": 1817.7083333333212,
      "v": 39
    },
    {
      "midi": 48,
      "hit": false,
      "t": 46652.343749999985,
      "d": 930.9895833333212,
      "v": 51
    },
    {
      "midi": 65,
      "hit": false,
      "t": 47083.333333333314,
      "d": 587.2395833333285,
      "v": 59
    },
    {
      "midi": 67,
      "hit": false,
      "t": 47510.41666666665,
      "d": 914.0625,
      "v": 62
    },
    {
      "midi": 50,
      "hit": false,
      "t": 47532.552083333314,
      "d": 700.5208333333285,
      "v": 49
    },
    {
      "midi": 59,
      "hit": false,
      "t": 47546.87499999998,
      "d": 555.9895833333285,
      "v": 17
    },
    {
      "midi": 41,
      "hit": false,
      "t": 47549.47916666664,
      "d": 1937.5000000000146,
      "v": 34
    },
    {
      "midi": 69,
      "hit": false,
      "t": 48315.10416666664,
      "d": 632.8125000000146,
      "v": 70
    },
    {
      "midi": 48,
      "hit": false,
      "t": 48328.12499999998,
      "d": 1114.583333333343,
      "v": 46
    },
    {
      "midi": 57,
      "hit": false,
      "t": 48329.427083333314,
      "d": 1187.5000000000073,
      "v": 31
    },
    {
      "midi": 72,
      "hit": false,
      "t": 49102.86458333332,
      "d": 1011.7187499999854,
      "v": 85
    },
    {
      "midi": 76,
      "hit": false,
      "t": 49867.187499999985,
      "d": 986.9791666666497,
      "v": 68
    },
    {
      "midi": 69,
      "hit": false,
      "t": 49904.94791666665,
      "d": 1511.7187499999854,
      "v": 33
    },
    {
      "midi": 67,
      "hit": false,
      "t": 49907.552083333314,
      "d": 604.166666666657,
      "v": 36
    },
    {
      "midi": 48,
      "hit": false,
      "t": 49910.15624999998,
      "d": 1037.760416666657,
      "v": 27
    },
    {
      "midi": 41,
      "hit": false,
      "t": 49940.10416666664,
      "d": 1005.2083333333285,
      "v": 28
    },
    {
      "midi": 74,
      "hit": false,
      "t": 50717.447916666635,
      "d": 774.7395833333358,
      "v": 63
    },
    {
      "midi": 65,
      "hit": false,
      "t": 50723.9583333333,
      "d": 553.3854166666715,
      "v": 42
    },
    {
      "midi": 60,
      "hit": false,
      "t": 51429.68749999997,
      "d": 250,
      "v": 74
    },
    {
      "midi": 77,
      "hit": false,
      "t": 51864.58333333331,
      "d": 459.63541666666424,
      "v": 87
    },
    {
      "midi": 41,
      "hit": false,
      "t": 51953.12499999997,
      "d": 174.47916666666424,
      "v": 51
    },
    {
      "midi": 79,
      "hit": false,
      "t": 52291.666666666635,
      "d": 1055.9895833333358,
      "v": 98
    },
    {
      "midi": 71,
      "hit": false,
      "t": 52312.49999999997,
      "d": 497.39583333333576,
      "v": 52
    },
    {
      "midi": 76,
      "hit": false,
      "t": 52312.49999999997,
      "d": 1020.8333333333358,
      "v": 74
    },
    {
      "midi": 59,
      "hit": false,
      "t": 52317.70833333331,
      "d": 250,
      "v": 65
    },
    {
      "midi": 50,
      "hit": false,
      "t": 52320.31249999997,
      "d": 320.3125,
      "v": 56
    },
    {
      "midi": 81,
      "hit": false,
      "t": 53190.10416666664,
      "d": 576.822916666657,
      "v": 92
    },
    {
      "midi": 69,
      "hit": false,
      "t": 53220.05208333331,
      "d": 509.1145833333285,
      "v": 46
    },
    {
      "midi": 57,
      "hit": false,
      "t": 53222.65624999997,
      "d": 714.8437499999927,
      "v": 34
    },
    {
      "midi": 74,
      "hit": false,
      "t": 53227.86458333331,
      "d": 496.0937499999927,
      "v": 54
    },
    {
      "midi": 48,
      "hit": false,
      "t": 53239.58333333331,
      "d": 839.8437499999854,
      "v": 33
    },
    {
      "midi": 41,
      "hit": false,
      "t": 53270.83333333331,
      "d": 697.916666666657,
      "v": 11
    },
    {
      "midi": 84,
      "hit": false,
      "t": 54002.60416666663,
      "d": 505.2083333333285,
      "v": 83
    },
    {
      "midi": 77,
      "hit": false,
      "t": 54449.218749999956,
      "d": 91.14583333333576,
      "v": 58
    },
    {
      "midi": 88,
      "hit": false,
      "t": 55184.89583333329,
      "d": 505.2083333333212,
      "v": 49
    },
    {
      "midi": 76,
      "hit": false,
      "t": 55203.124999999956,
      "d": 463.54166666665697,
      "v": 31
    },
    {
      "midi": 83,
      "hit": false,
      "t": 55209.63541666662,
      "d": 437.5,
      "v": 28
    },
    {
      "midi": 79,
      "hit": false,
      "t": 55209.63541666662,
      "d": 447.91666666666424,
      "v": 24
    },
    {
      "midi": 55,
      "hit": false,
      "t": 55229.16666666662,
      "d": 430.9895833333285,
      "v": 11
    },
    {
      "midi": 47,
      "hit": false,
      "t": 55236.97916666662,
      "d": 398.4375,
      "v": 14
    },
    {
      "midi": 40,
      "hit": false,
      "t": 55260.41666666662,
      "d": 337.23958333333576,
      "v": 22
    },
    {
      "midi": 88,
      "hit": false,
      "t": 56179.68749999995,
      "d": 393.2291666666715,
      "v": 50
    },
    {
      "midi": 40,
      "hit": false,
      "t": 56195.31249999995,
      "d": 291.6666666666715,
      "v": 31
    },
    {
      "midi": 79,
      "hit": false,
      "t": 56197.91666666661,
      "d": 437.5000000000073,
      "v": 26
    },
    {
      "midi": 76,
      "hit": false,
      "t": 56199.21874999995,
      "d": 347.65625,
      "v": 31
    },
    {
      "midi": 55,
      "hit": false,
      "t": 56220.052083333285,
      "d": 339.84375,
      "v": 10
    },
    {
      "midi": 83,
      "hit": false,
      "t": 56222.65624999995,
      "d": 355.4687500000073,
      "v": 21
    },
    {
      "midi": 47,
      "hit": false,
      "t": 56223.958333333285,
      "d": 300.78125,
      "v": 16
    },
    {
      "midi": 86,
      "hit": false,
      "t": 57244.79166666662,
      "d": 519.5312499999927,
      "v": 51
    },
    {
      "midi": 59,
      "hit": false,
      "t": 57247.395833333285,
      "d": 449.2187499999927,
      "v": 32
    },
    {
      "midi": 74,
      "hit": false,
      "t": 57261.71874999995,
      "d": 450.5208333333285,
      "v": 44
    },
    {
      "midi": 77,
      "hit": false,
      "t": 57265.62499999995,
      "d": 526.0416666666642,
      "v": 40
    },
    {
      "midi": 81,
      "hit": false,
      "t": 57279.94791666661,
      "d": 457.03125,
      "v": 44
    },
    {
      "midi": 43,
      "hit": false,
      "t": 57282.55208333328,
      "d": 394.53125,
      "v": 33
    },
    {
      "midi": 50,
      "hit": false,
      "t": 57282.55208333328,
      "d": 419.27083333333576,
      "v": 28
    },
    {
      "midi": 79,
      "hit": false,
      "t": 58604.16666666661,
      "d": 1145.8333333333285,
      "v": 31
    },
    {
      "midi": 47,
      "hit": false,
      "t": 58608.07291666661,
      "d": 419.2708333333285,
      "v": 23
    },
    {
      "midi": 40,
      "hit": false,
      "t": 58609.37499999995,
      "d": 355.4687499999927,
      "v": 32
    },
    {
      "midi": 88,
      "hit": false,
      "t": 58609.37499999995,
      "d": 1118.4895833333285,
      "v": 50
    },
    {
      "midi": 76,
      "hit": false,
      "t": 58617.18749999995,
      "d": 1024.7395833333285,
      "v": 44
    },
    {
      "midi": 83,
      "hit": false,
      "t": 58632.81249999995,
      "d": 1037.7604166666642,
      "v": 40
    },
    {
      "midi": 55,
      "hit": false,
      "t": 58636.71874999995,
      "d": 462.2395833333285,
      "v": 18
    },
    {
      "midi": 64,
      "hit": false,
      "t": 59666.66666666661,
      "d": 110.67708333332848,
      "v": 33
    },
    {
      "midi": 67,
      "hit": false,
      "t": 60541.666666666606,
      "d": 148.4375,
      "v": 32
    },
    {
      "midi": 71,
      "hit": false,
      "t": 61359.37499999994,
      "d": 113.28125,
      "v": 18
    },
    {
      "midi": 76,
      "hit": false,
      "t": 62192.70833333328,
      "d": 147.13541666666424,
      "v": 21
    },
    {
      "midi": 79,
      "hit": false,
      "t": 63045.572916666606,
      "d": 174.47916666666424,
      "v": 21
    },
    {
      "midi": 76,
      "hit": false,
      "t": 63874.999999999935,
      "d": 574.21875,
      "v": 36
    },
    {
      "midi": 79,
      "hit": false,
      "t": 63962.23958333327,
      "d": 360.6770833333285,
      "v": 15
    },
    {
      "midi": 83,
      "hit": false,
      "t": 64020.83333333327,
      "d": 503.90625,
      "v": 31
    },
    {
      "midi": 88,
      "hit": false,
      "t": 64089.843749999935,
      "d": 82.03125,
      "v": 31
    },
    {
      "midi": 91,
      "hit": false,
      "t": 64149.73958333327,
      "d": 299.47916666666424,
      "v": 48
    },
    {
      "midi": 100,
      "hit": false,
      "t": 64257.812499999935,
      "d": 600.2604166666715,
      "v": 47
    },
    {
      "midi": 76,
      "hit": false,
      "t": 64852.86458333327,
      "d": 533.8541666666642,
      "v": 17
    },
    {
      "midi": 77,
      "hit": false,
      "t": 64886.71874999994,
      "d": 430.9895833333285,
      "v": 37
    },
    {
      "midi": 81,
      "hit": false,
      "t": 64962.23958333328,
      "d": 386.7187499999927,
      "v": 24
    },
    {
      "midi": 84,
      "hit": false,
      "t": 65015.62499999994,
      "d": 481.7708333333285,
      "v": 40
    },
    {
      "midi": 89,
      "hit": false,
      "t": 65027.34374999994,
      "d": 570.3125,
      "v": 36
    },
    {
      "midi": 93,
      "hit": false,
      "t": 65127.604166666606,
      "d": 700.5208333333358,
      "v": 31
    },
    {
      "midi": 100,
      "hit": false,
      "t": 65147.135416666606,
      "d": 1268.2291666666642,
      "v": 44
    },
    {
      "midi": 76,
      "hit": false,
      "t": 65824.21874999994,
      "d": 446.6145833333285,
      "v": 9
    },
    {
      "midi": 79,
      "hit": false,
      "t": 65833.33333333327,
      "d": 408.8541666666715,
      "v": 27
    },
    {
      "midi": 83,
      "hit": false,
      "t": 65891.92708333327,
      "d": 394.53125,
      "v": 16
    },
    {
      "midi": 91,
      "hit": false,
      "t": 65927.08333333327,
      "d": 459.6354166666715,
      "v": 29
    },
    {
      "midi": 86,
      "hit": false,
      "t": 65937.49999999994,
      "d": 317.7083333333285,
      "v": 37
    },
    {
      "midi": 95,
      "hit": false,
      "t": 66010.41666666661,
      "d": 279.94791666665697,
      "v": 32
    },
    {
      "midi": 98,
      "hit": false,
      "t": 66442.70833333327,
      "d": 57.29166666667152,
      "v": 41
    },
    {
      "midi": 76,
      "hit": false,
      "t": 66647.13541666661,
      "d": 562.4999999999709,
      "v": 22
    },
    {
      "midi": 79,
      "hit": false,
      "t": 66699.21874999994,
      "d": 509.11458333331393,
      "v": 15
    },
    {
      "midi": 83,
      "hit": false,
      "t": 66790.36458333327,
      "d": 376.3020833333285,
      "v": 22
    },
    {
      "midi": 91,
      "hit": false,
      "t": 66834.6354166666,
      "d": 110.67708333334303,
      "v": 36
    },
    {
      "midi": 88,
      "hit": false,
      "t": 66911.45833333327,
      "d": 171.875,
      "v": 28
    },
    {
      "midi": 100,
      "hit": false,
      "t": 66970.05208333327,
      "d": 233.07291666665697,
      "v": 50
    },
    {
      "midi": 102,
      "hit": false,
      "t": 67299.47916666658,
      "d": 70.3125,
      "v": 40
    },
    {
      "midi": 103,
      "hit": false,
      "t": 67595.05208333326,
      "d": 50.78125,
      "v": 54
    },
    {
      "midi": 76,
      "hit": false,
      "t": 67640.62499999993,
      "d": 449.21875,
      "v": 31
    },
    {
      "midi": 77,
      "hit": false,
      "t": 67747.39583333326,
      "d": 432.2916666666715,
      "v": 35
    },
    {
      "midi": 81,
      "hit": false,
      "t": 67848.95833333326,
      "d": 373.6979166666715,
      "v": 22
    },
    {
      "midi": 89,
      "hit": false,
      "t": 67858.07291666658,
      "d": 444.0104166666715,
      "v": 35
    },
    {
      "midi": 93,
      "hit": false,
      "t": 67880.20833333326,
      "d": 497.3958333333285,
      "v": 54
    },
    {
      "midi": 84,
      "hit": false,
      "t": 67921.87499999993,
      "d": 352.8645833333285,
      "v": 48
    },
    {
      "midi": 95,
      "hit": false,
      "t": 68372.39583333326,
      "d": 417.96874999998545,
      "v": 62
    },
    {
      "midi": 74,
      "hit": false,
      "t": 68570.31249999991,
      "d": 611.9791666666424,
      "v": 43
    },
    {
      "midi": 77,
      "hit": false,
      "t": 68619.79166666658,
      "d": 540.3645833333139,
      "v": 39
    },
    {
      "midi": 89,
      "hit": false,
      "t": 68671.87499999991,
      "d": 643.2291666666424,
      "v": 42
    },
    {
      "midi": 81,
      "hit": false,
      "t": 68712.23958333324,
      "d": 412.76041666665697,
      "v": 37
    },
    {
      "midi": 93,
      "hit": false,
      "t": 68770.83333333324,
      "d": 406.24999999998545,
      "v": 44
    },
    {
      "midi": 84,
      "hit": false,
      "t": 68786.45833333324,
      "d": 360.6770833333285,
      "v": 54
    },
    {
      "midi": 96,
      "hit": false,
      "t": 68817.70833333324,
      "d": 385.4166666666424,
      "v": 62
    },
    {
      "midi": 98,
      "hit": false,
      "t": 69377.60416666656,
      "d": 283.8541666666715,
      "v": 58
    },
    {
      "midi": 73,
      "hit": false,
      "t": 69541.66666666656,
      "d": 744.7916666666861,
      "v": 30
    },
    {
      "midi": 76,
      "hit": false,
      "t": 69622.39583333323,
      "d": 537.7604166666715,
      "v": 29
    },
    {
      "midi": 80,
      "hit": false,
      "t": 69695.3124999999,
      "d": 522.1354166666715,
      "v": 32
    },
    {
      "midi": 88,
      "hit": false,
      "t": 69727.86458333323,
      "d": 871.0937500000146,
      "v": 29
    },
    {
      "midi": 92,
      "hit": false,
      "t": 69779.94791666656,
      "d": 679.6875000000146,
      "v": 40
    },
    {
      "midi": 85,
      "hit": false,
      "t": 69829.42708333323,
      "d": 385.4166666666715,
      "v": 36
    },
    {
      "midi": 97,
      "hit": false,
      "t": 69839.8437499999,
      "d": 988.2812500000146,
      "v": 41
    },
    {
      "midi": 100,
      "hit": false,
      "t": 69945.3124999999,
      "d": 541.6666666666715,
      "v": 65
    },
    {
      "midi": 71,
      "hit": false,
      "t": 70565.10416666657,
      "d": 518.229166666657,
      "v": 33
    },
    {
      "midi": 74,
      "hit": false,
      "t": 70630.20833333324,
      "d": 410.15624999998545,
      "v": 35
    },
    {
      "midi": 78,
      "hit": false,
      "t": 70660.15624999991,
      "d": 380.20833333331393,
      "v": 41
    },
    {
      "midi": 83,
      "hit": false,
      "t": 70729.16666666658,
      "d": 220.05208333331393,
      "v": 41
    },
    {
      "midi": 86,
      "hit": false,
      "t": 70757.81249999991,
      "d": 75.52083333332848,
      "v": 57
    },
    {
      "midi": 90,
      "hit": false,
      "t": 70809.89583333324,
      "d": 67.70833333332848,
      "v": 63
    },
    {
      "midi": 95,
      "hit": false,
      "t": 70902.3437499999,
      "d": 200.52083333332848,
      "v": 49
    },
    {
      "midi": 100,
      "hit": false,
      "t": 70989.58333333323,
      "d": 200.52083333332848,
      "v": 69
    },
    {
      "midi": 64,
      "hit": false,
      "t": 71541.66666666656,
      "d": 216.14583333331393,
      "v": 54
    },
    {
      "midi": 68,
      "hit": false,
      "t": 71562.49999999988,
      "d": 364.58333333331393,
      "v": 44
    },
    {
      "midi": 71,
      "hit": false,
      "t": 71630.20833333321,
      "d": 239.58333333331393,
      "v": 41
    },
    {
      "midi": 80,
      "hit": false,
      "t": 71632.81249999988,
      "d": 95.05208333332848,
      "v": 46
    },
    {
      "midi": 76,
      "hit": false,
      "t": 71684.89583333321,
      "d": 167.96874999998545,
      "v": 65
    },
    {
      "midi": 83,
      "hit": false,
      "t": 71733.07291666654,
      "d": 49.479166666656965,
      "v": 47
    },
    {
      "midi": 88,
      "hit": false,
      "t": 71795.57291666653,
      "d": 37.76041666667152,
      "v": 74
    },
    {
      "midi": 98,
      "hit": false,
      "t": 72166.66666666653,
      "d": 363.28125,
      "v": 92
    },
    {
      "midi": 61,
      "hit": false,
      "t": 72328.12499999985,
      "d": 234.375,
      "v": 49
    },
    {
      "midi": 68,
      "hit": false,
      "t": 72404.94791666653,
      "d": 494.7916666666715,
      "v": 56
    },
    {
      "midi": 88,
      "hit": false,
      "t": 72424.47916666653,
      "d": 210.9375,
      "v": 58
    },
    {
      "midi": 92,
      "hit": false,
      "t": 72532.5520833332,
      "d": 144.53125,
      "v": 69
    },
    {
      "midi": 100,
      "hit": false,
      "t": 72679.68749999987,
      "d": 62.5,
      "v": 92
    },
    {
      "midi": 76,
      "hit": false,
      "t": 72755.2083333332,
      "d": 312.5,
      "v": 69
    },
    {
      "midi": 102,
      "hit": false,
      "t": 73045.57291666653,
      "d": 158.85416666667152,
      "v": 79
    },
    {
      "midi": 104,
      "hit": false,
      "t": 73386.71874999987,
      "d": 35.15625,
      "v": 85
    },
    {
      "midi": 66,
      "hit": false,
      "t": 73565.10416666654,
      "d": 605.4687500000291,
      "v": 38
    },
    {
      "midi": 85,
      "hit": false,
      "t": 73652.34374999987,
      "d": 410.1562500000291,
      "v": 55
    },
    {
      "midi": 69,
      "hit": false,
      "t": 73727.8645833332,
      "d": 567.7083333333867,
      "v": 35
    },
    {
      "midi": 88,
      "hit": false,
      "t": 73749.99999999987,
      "d": 266.9270833333576,
      "v": 49
    },
    {
      "midi": 73,
      "hit": false,
      "t": 73777.34374999987,
      "d": 507.81250000004366,
      "v": 31
    },
    {
      "midi": 92,
      "hit": false,
      "t": 73845.05208333321,
      "d": 76.82291666667152,
      "v": 52
    },
    {
      "midi": 80,
      "hit": false,
      "t": 73872.39583333321,
      "d": 527.3437500000437,
      "v": 58
    },
    {
      "midi": 93,
      "hit": false,
      "t": 73899.73958333321,
      "d": 208.3333333333576,
      "v": 87
    },
    {
      "midi": 95,
      "hit": false,
      "t": 74282.55208333324,
      "d": 177.08333333334303,
      "v": 79
    },
    {
      "midi": 97,
      "hit": false,
      "t": 74552.08333333326,
      "d": 260.41666666665697,
      "v": 85
    },
    {
      "midi": 71,
      "hit": false,
      "t": 74622.39583333326,
      "d": 872.3958333333139,
      "v": 43
    },
    {
      "midi": 74,
      "hit": false,
      "t": 74684.89583333326,
      "d": 572.9166666666424,
      "v": 39
    },
    {
      "midi": 78,
      "hit": false,
      "t": 74703.12499999993,
      "d": 569.0104166666424,
      "v": 58
    },
    {
      "midi": 86,
      "hit": false,
      "t": 74712.23958333326,
      "d": 480.46874999998545,
      "v": 33
    },
    {
      "midi": 90,
      "hit": false,
      "t": 74744.79166666658,
      "d": 550.7812499999854,
      "v": 61
    },
    {
      "midi": 81,
      "hit": false,
      "t": 74824.21874999991,
      "d": 425.78124999998545,
      "v": 44
    },
    {
      "midi": 83,
      "hit": false,
      "t": 74828.12499999991,
      "d": 416.66666666665697,
      "v": 40
    },
    {
      "midi": 100,
      "hit": false,
      "t": 74864.58333333324,
      "d": 177.08333333332848,
      "v": 64
    },
    {
      "midi": 98,
      "hit": false,
      "t": 75174.47916666657,
      "d": 125,
      "v": 80
    },
    {
      "midi": 93,
      "hit": false,
      "t": 75552.08333333324,
      "d": 40.36458333332848,
      "v": 84
    },
    {
      "midi": 74,
      "hit": false,
      "t": 75779.94791666657,
      "d": 704.427083333343,
      "v": 50
    },
    {
      "midi": 78,
      "hit": false,
      "t": 75848.95833333324,
      "d": 686.1979166666715,
      "v": 61
    },
    {
      "midi": 81,
      "hit": false,
      "t": 75859.37499999991,
      "d": 645.8333333333285,
      "v": 63
    },
    {
      "midi": 85,
      "hit": false,
      "t": 75899.73958333324,
      "d": 684.895833333343,
      "v": 51
    },
    {
      "midi": 90,
      "hit": false,
      "t": 75949.21874999991,
      "d": 738.28125,
      "v": 93
    },
    {
      "midi": 73,
      "hit": false,
      "t": 76695.31249999991,
      "d": 546.875,
      "v": 55
    },
    {
      "midi": 80,
      "hit": false,
      "t": 76761.71874999991,
      "d": 505.2083333333285,
      "v": 52
    },
    {
      "midi": 76,
      "hit": false,
      "t": 76774.73958333324,
      "d": 511.71875,
      "v": 75
    },
    {
      "midi": 83,
      "hit": false,
      "t": 76848.95833333324,
      "d": 471.3541666666715,
      "v": 54
    },
    {
      "midi": 92,
      "hit": false,
      "t": 76882.81249999991,
      "d": 638.0208333333285,
      "v": 88
    },
    {
      "midi": 88,
      "hit": false,
      "t": 77352.86458333324,
      "d": 144.53125,
      "v": 100
    },
    {
      "midi": 71,
      "hit": false,
      "t": 77554.68749999991,
      "d": 1350.260416666657,
      "v": 56
    },
    {
      "midi": 74,
      "hit": false,
      "t": 77614.58333333324,
      "d": 540.364583333343,
      "v": 59
    },
    {
      "midi": 78,
      "hit": false,
      "t": 77670.57291666657,
      "d": 532.552083333343,
      "v": 63
    },
    {
      "midi": 85,
      "hit": false,
      "t": 77747.39583333324,
      "d": 462.23958333334303,
      "v": 72
    },
    {
      "midi": 81,
      "hit": false,
      "t": 77749.99999999991,
      "d": 492.1875,
      "v": 78
    },
    {
      "midi": 90,
      "hit": false,
      "t": 77820.31249999991,
      "d": 471.3541666666715,
      "v": 90
    },
    {
      "midi": 95,
      "hit": false,
      "t": 78222.65624999991,
      "d": 207.03125,
      "v": 90
    },
    {
      "midi": 93,
      "hit": false,
      "t": 78473.95833333324,
      "d": 50.78125,
      "v": 97
    },
    {
      "midi": 74,
      "hit": false,
      "t": 78660.15624999991,
      "d": 567.7083333333139,
      "v": 63
    },
    {
      "midi": 81,
      "hit": false,
      "t": 78720.05208333324,
      "d": 550.7812499999854,
      "v": 44
    },
    {
      "midi": 78,
      "hit": false,
      "t": 78777.34374999991,
      "d": 475.2604166666424,
      "v": 59
    },
    {
      "midi": 85,
      "hit": false,
      "t": 78802.08333333324,
      "d": 420.57291666665697,
      "v": 66
    },
    {
      "midi": 92,
      "hit": false,
      "t": 78864.58333333324,
      "d": 382.81249999998545,
      "v": 78
    },
    {
      "midi": 90,
      "hit": false,
      "t": 79227.86458333323,
      "d": 251.30208333332848,
      "v": 81
    },
    {
      "midi": 88,
      "hit": false,
      "t": 79467.44791666656,
      "d": 423.17708333334303,
      "v": 92
    },
    {
      "midi": 73,
      "hit": false,
      "t": 79614.58333333323,
      "d": 727.8645833333285,
      "v": 58
    },
    {
      "midi": 80,
      "hit": false,
      "t": 79666.66666666656,
      "d": 880.2083333333285,
      "v": 46
    },
    {
      "midi": 76,
      "hit": false,
      "t": 79712.23958333323,
      "d": 632.8125,
      "v": 61
    },
    {
      "midi": 83,
      "hit": false,
      "t": 79766.92708333323,
      "d": 548.1770833333285,
      "v": 52
    },
    {
      "midi": 92,
      "hit": false,
      "t": 79859.3749999999,
      "d": 643.229166666657,
      "v": 79
    },
    {
      "midi": 71,
      "hit": false,
      "t": 80549.47916666656,
      "d": 333.3333333333285,
      "v": 38
    },
    {
      "midi": 74,
      "hit": false,
      "t": 80640.62499999988,
      "d": 270.83333333334303,
      "v": 48
    },
    {
      "midi": 78,
      "hit": false,
      "t": 80712.23958333321,
      "d": 217.44791666668607,
      "v": 50
    },
    {
      "midi": 81,
      "hit": false,
      "t": 80757.81249999988,
      "d": 609.3750000000146,
      "v": 59
    },
    {
      "midi": 85,
      "hit": false,
      "t": 80845.05208333321,
      "d": 117.18750000001455,
      "v": 48
    },
    {
      "midi": 90,
      "hit": false,
      "t": 80927.08333333323,
      "d": 410.15625,
      "v": 64
    },
    {
      "midi": 86,
      "hit": false,
      "t": 81307.29166666656,
      "d": 187.50000000001455,
      "v": 71
    },
    {
      "midi": 85,
      "hit": false,
      "t": 81630.20833333324,
      "d": 44.27083333332848,
      "v": 65
    },
    {
      "midi": 83,
      "hit": false,
      "t": 82059.89583333324,
      "d": 731.770833333343,
      "v": 58
    },
    {
      "midi": 80,
      "hit": false,
      "t": 82059.89583333324,
      "d": 807.2916666666715,
      "v": 49
    },
    {
      "midi": 76,
      "hit": false,
      "t": 82089.84374999991,
      "d": 592.4479166666715,
      "v": 41
    },
    {
      "midi": 80,
      "hit": false,
      "t": 83145.83333333324,
      "d": 1208.333333333314,
      "v": 42
    },
    {
      "midi": 76,
      "hit": false,
      "t": 83147.13541666657,
      "d": 552.0833333333285,
      "v": 29
    },
    {
      "midi": 73,
      "hit": false,
      "t": 83160.1562499999,
      "d": 567.7083333333285,
      "v": 23
    },
    {
      "midi": 83,
      "hit": false,
      "t": 83192.70833333323,
      "d": 1593.75,
      "v": 43
    },
    {
      "midi": 78,
      "hit": false,
      "t": 84177.08333333323,
      "d": 484.375,
      "v": 29
    },
    {
      "midi": 74,
      "hit": false,
      "t": 84212.23958333323,
      "d": 386.71875,
      "v": 29
    },
    {
      "midi": 71,
      "hit": false,
      "t": 84214.8437499999,
      "d": 384.1145833333285,
      "v": 28
    },
    {
      "midi": 81,
      "hit": false,
      "t": 84671.8749999999,
      "d": 281.25,
      "v": 58
    },
    {
      "midi": 76,
      "hit": false,
      "t": 85062.4999999999,
      "d": 524.7395833333285,
      "v": 29
    },
    {
      "midi": 80,
      "hit": false,
      "t": 85127.60416666657,
      "d": 427.0833333333285,
      "v": 42
    },
    {
      "midi": 83,
      "hit": false,
      "t": 85154.94791666657,
      "d": 709.635416666657,
      "v": 49
    },
    {
      "midi": 73,
      "hit": false,
      "t": 85937.4999999999,
      "d": 587.2395833333285,
      "v": 29
    },
    {
      "midi": 76,
      "hit": false,
      "t": 86015.6249999999,
      "d": 342.44791666665697,
      "v": 43
    },
    {
      "midi": 80,
      "hit": false,
      "t": 86140.6249999999,
      "d": 321.6145833333285,
      "v": 32
    },
    {
      "midi": 83,
      "hit": false,
      "t": 86141.92708333323,
      "d": 1553.385416666657,
      "v": 45
    },
    {
      "midi": 71,
      "hit": false,
      "t": 86994.79166666656,
      "d": 401.0416666666715,
      "v": 23
    },
    {
      "midi": 74,
      "hit": false,
      "t": 87108.07291666656,
      "d": 378.90625,
      "v": 10
    },
    {
      "midi": 78,
      "hit": false,
      "t": 87145.83333333323,
      "d": 389.32291666665697,
      "v": 33
    },
    {
      "midi": 81,
      "hit": false,
      "t": 87679.68749999988,
      "d": 390.625,
      "v": 32
    },
    {
      "midi": 68,
      "hit": false,
      "t": 88124.99999999988,
      "d": 597.6562500000146,
      "v": 14
    },
    {
      "midi": 71,
      "hit": false,
      "t": 88174.47916666656,
      "d": 483.0729166666715,
      "v": 31
    },
    {
      "midi": 75,
      "hit": false,
      "t": 88309.89583333323,
      "d": 417.96875,
      "v": 21
    },
    {
      "midi": 83,
      "hit": false,
      "t": 88337.23958333323,
      "d": 442.7083333333285,
      "v": 33
    },
    {
      "midi": 85,
      "hit": false,
      "t": 88695.3124999999,
      "d": 315.10416666665697,
      "v": 41
    },
    {
      "midi": 87,
      "hit": false,
      "t": 89007.81249999988,
      "d": 266.92708333334303,
      "v": 43
    },
    {
      "midi": 66,
      "hit": false,
      "t": 89165.36458333323,
      "d": 669.2708333333285,
      "v": 20
    },
    {
      "midi": 69,
      "hit": false,
      "t": 89227.86458333323,
      "d": 421.87499999998545,
      "v": 31
    },
    {
      "midi": 73,
      "hit": false,
      "t": 89272.13541666656,
      "d": 550.78125,
      "v": 34
    },
    {
      "midi": 76,
      "hit": false,
      "t": 89279.94791666656,
      "d": 578.125,
      "v": 54
    },
    {
      "midi": 78,
      "hit": false,
      "t": 89757.81249999988,
      "d": 549.479166666657,
      "v": 56
    },
    {
      "midi": 63,
      "hit": false,
      "t": 90070.31249999988,
      "d": 320.31249999998545,
      "v": 13
    },
    {
      "midi": 66,
      "hit": false,
      "t": 90102.86458333321,
      "d": 82.03125,
      "v": 31
    },
    {
      "midi": 69,
      "hit": false,
      "t": 90177.08333333321,
      "d": 234.37499999998545,
      "v": 32
    },
    {
      "midi": 80,
      "hit": false,
      "t": 90190.10416666654,
      "d": 519.5312499999854,
      "v": 65
    },
    {
      "midi": 73,
      "hit": false,
      "t": 90220.05208333321,
      "d": 295.57291666665697,
      "v": 37
    },
    {
      "midi": 81,
      "hit": false,
      "t": 90649.7395833332,
      "d": 520.8333333333285,
      "v": 75
    },
    {
      "midi": 68,
      "hit": false,
      "t": 90885.41666666653,
      "d": 682.2916666666715,
      "v": 25
    },
    {
      "midi": 71,
      "hit": false,
      "t": 90962.2395833332,
      "d": 527.34375,
      "v": 27
    },
    {
      "midi": 75,
      "hit": false,
      "t": 91041.66666666653,
      "d": 436.1979166666715,
      "v": 39
    },
    {
      "midi": 83,
      "hit": false,
      "t": 91154.94791666653,
      "d": 828.125,
      "v": 54
    },
    {
      "midi": 80,
      "hit": false,
      "t": 91170.57291666653,
      "d": 369.7916666666715,
      "v": 45
    },
    {
      "midi": 66,
      "hit": false,
      "t": 92011.71874999985,
      "d": 493.48958333334303,
      "v": 23
    },
    {
      "midi": 69,
      "hit": false,
      "t": 92046.87499999985,
      "d": 432.2916666666715,
      "v": 31
    },
    {
      "midi": 73,
      "hit": false,
      "t": 92124.99999999985,
      "d": 295.5729166666715,
      "v": 33
    },
    {
      "midi": 78,
      "hit": false,
      "t": 92214.84374999985,
      "d": 321.61458333334303,
      "v": 31
    },
    {
      "midi": 83,
      "hit": false,
      "t": 92227.86458333318,
      "d": 1407.552083333343,
      "v": 50
    },
    {
      "midi": 63,
      "hit": false,
      "t": 93029.94791666653,
      "d": 342.44791666665697,
      "v": 14
    },
    {
      "midi": 66,
      "hit": false,
      "t": 93035.15624999985,
      "d": 404.9479166666715,
      "v": 28
    },
    {
      "midi": 69,
      "hit": false,
      "t": 93124.99999999985,
      "d": 277.34375,
      "v": 32
    },
    {
      "midi": 73,
      "hit": false,
      "t": 93171.87499999985,
      "d": 345.05208333334303,
      "v": 33
    },
    {
      "midi": 81,
      "hit": false,
      "t": 93657.5520833332,
      "d": 71.61458333332848,
      "v": 54
    },
    {
      "midi": 71,
      "hit": false,
      "t": 94049.47916666653,
      "d": 750,
      "v": 34
    },
    {
      "midi": 67,
      "hit": false,
      "t": 94052.0833333332,
      "d": 770.8333333333285,
      "v": 37
    },
    {
      "midi": 74,
      "hit": false,
      "t": 94166.66666666653,
      "d": 648.4375,
      "v": 34
    },
    {
      "midi": 79,
      "hit": false,
      "t": 94270.8333333332,
      "d": 546.875,
      "v": 43
    },
    {
      "midi": 83,
      "hit": false,
      "t": 94302.0833333332,
      "d": 200.52083333332848,
      "v": 39
    },
    {
      "midi": 86,
      "hit": false,
      "t": 94377.60416666653,
      "d": 184.89583333332848,
      "v": 46
    },
    {
      "midi": 91,
      "hit": false,
      "t": 94464.84374999985,
      "d": 175.78125,
      "v": 34
    },
    {
      "midi": 95,
      "hit": false,
      "t": 94549.47916666653,
      "d": 167.96875,
      "v": 37
    },
    {
      "midi": 96,
      "hit": false,
      "t": 94924.47916666653,
      "d": 58.59375,
      "v": 60
    },
    {
      "midi": 98,
      "hit": false,
      "t": 95266.9270833332,
      "d": 40.36458333332848,
      "v": 62
    },
    {
      "midi": 65,
      "hit": false,
      "t": 95377.60416666653,
      "d": 587.2395833333139,
      "v": 31
    },
    {
      "midi": 69,
      "hit": false,
      "t": 95429.68749999985,
      "d": 523.4374999999854,
      "v": 35
    },
    {
      "midi": 72,
      "hit": false,
      "t": 95502.60416666653,
      "d": 442.70833333331393,
      "v": 46
    },
    {
      "midi": 81,
      "hit": false,
      "t": 95572.91666666653,
      "d": 391.92708333331393,
      "v": 50
    },
    {
      "midi": 77,
      "hit": false,
      "t": 95598.9583333332,
      "d": 317.70833333331393,
      "v": 52
    },
    {
      "midi": 84,
      "hit": false,
      "t": 95641.9270833332,
      "d": 67.70833333332848,
      "v": 44
    },
    {
      "midi": 88,
      "hit": false,
      "t": 95645.8333333332,
      "d": 389.3229166666424,
      "v": 78
    },
    {
      "midi": 89,
      "hit": false,
      "t": 96141.92708333317,
      "d": 393.22916666668607,
      "v": 84
    },
    {
      "midi": 62,
      "hit": false,
      "t": 96282.55208333317,
      "d": 201.82291666667152,
      "v": 44
    },
    {
      "midi": 81,
      "hit": false,
      "t": 96361.9791666665,
      "d": 347.6562500000291,
      "v": 51
    },
    {
      "midi": 69,
      "hit": false,
      "t": 96397.1354166665,
      "d": 127.60416666668607,
      "v": 49
    },
    {
      "midi": 86,
      "hit": false,
      "t": 96486.97916666651,
      "d": 496.09375000001455,
      "v": 54
    },
    {
      "midi": 91,
      "hit": false,
      "t": 96622.39583333318,
      "d": 462.23958333334303,
      "v": 87
    },
    {
      "midi": 79,
      "hit": false,
      "t": 96699.21874999985,
      "d": 55.989583333343035,
      "v": 20
    },
    {
      "midi": 77,
      "hit": false,
      "t": 96727.8645833332,
      "d": 74.21875,
      "v": 10
    },
    {
      "midi": 93,
      "hit": false,
      "t": 97089.84374999985,
      "d": 451.8229166666715,
      "v": 78
    },
    {
      "midi": 55,
      "hit": false,
      "t": 97320.31249999985,
      "d": 649.7395833333576,
      "v": 30
    },
    {
      "midi": 62,
      "hit": false,
      "t": 97402.34374999985,
      "d": 507.8125000000291,
      "v": 37
    },
    {
      "midi": 83,
      "hit": false,
      "t": 97502.60416666653,
      "d": 721.3541666666861,
      "v": 33
    },
    {
      "midi": 86,
      "hit": false,
      "t": 97587.2395833332,
      "d": 714.8437500000146,
      "v": 52
    },
    {
      "midi": 91,
      "hit": false,
      "t": 97660.15624999987,
      "d": 582.0312500000146,
      "v": 41
    },
    {
      "midi": 71,
      "hit": false,
      "t": 97674.47916666654,
      "d": 170.57291666667152,
      "v": 28
    },
    {
      "midi": 95,
      "hit": false,
      "t": 97744.79166666654,
      "d": 415.36458333334303,
      "v": 53
    },
    {
      "midi": 52,
      "hit": false,
      "t": 98364.58333333321,
      "d": 613.28125,
      "v": 51
    },
    {
      "midi": 59,
      "hit": false,
      "t": 98434.89583333321,
      "d": 510.4166666666715,
      "v": 42
    },
    {
      "midi": 79,
      "hit": false,
      "t": 98520.83333333321,
      "d": 104.16666666667152,
      "v": 45
    },
    {
      "midi": 67,
      "hit": false,
      "t": 98554.68749999988,
      "d": 367.1875,
      "v": 39
    },
    {
      "midi": 88,
      "hit": false,
      "t": 98654.94791666656,
      "d": 535.15625,
      "v": 59
    },
    {
      "midi": 95,
      "hit": false,
      "t": 98795.57291666656,
      "d": 329.4270833333285,
      "v": 66
    },
    {
      "midi": 50,
      "hit": false,
      "t": 99367.18749999988,
      "d": 466.1458333333285,
      "v": 65
    },
    {
      "midi": 57,
      "hit": false,
      "t": 99434.89583333321,
      "d": 467.4479166666715,
      "v": 40
    },
    {
      "midi": 77,
      "hit": false,
      "t": 99483.07291666654,
      "d": 82.03125,
      "v": 73
    },
    {
      "midi": 65,
      "hit": false,
      "t": 99499.99999999987,
      "d": 497.39583333334303,
      "v": 75
    },
    {
      "midi": 81,
      "hit": false,
      "t": 99604.16666666654,
      "d": 53.38541666667152,
      "v": 57
    },
    {
      "midi": 86,
      "hit": false,
      "t": 99647.13541666654,
      "d": 52.083333333343035,
      "v": 83
    },
    {
      "midi": 93,
      "hit": false,
      "t": 100040.36458333321,
      "d": 52.083333333343035,
      "v": 80
    },
    {
      "midi": 91,
      "hit": false,
      "t": 100074.21874999988,
      "d": 61.19791666667152,
      "v": 32
    },
    {
      "midi": 55,
      "hit": false,
      "t": 100222.65624999988,
      "d": 647.1354166667006,
      "v": 72
    },
    {
      "midi": 59,
      "hit": false,
      "t": 100320.31249999988,
      "d": 546.8750000000291,
      "v": 53
    },
    {
      "midi": 62,
      "hit": false,
      "t": 100367.18749999988,
      "d": 455.72916666668607,
      "v": 61
    },
    {
      "midi": 71,
      "hit": false,
      "t": 100397.13541666656,
      "d": 605.4687500000291,
      "v": 57
    },
    {
      "midi": 67,
      "hit": false,
      "t": 100429.68749999988,
      "d": 419.2708333333576,
      "v": 70
    },
    {
      "midi": 74,
      "hit": false,
      "t": 100467.44791666656,
      "d": 694.0104166666861,
      "v": 68
    },
    {
      "midi": 79,
      "hit": false,
      "t": 100505.20833333323,
      "d": 674.4791666666715,
      "v": 71
    },
    {
      "midi": 83,
      "hit": false,
      "t": 100570.3124999999,
      "d": 500.00000000001455,
      "v": 91
    },
    {
      "midi": 52,
      "hit": false,
      "t": 101166.66666666657,
      "d": 557.291666666657,
      "v": 61
    },
    {
      "midi": 55,
      "hit": false,
      "t": 101199.2187499999,
      "d": 480.46875,
      "v": 60
    },
    {
      "midi": 59,
      "hit": false,
      "t": 101265.6249999999,
      "d": 389.3229166666715,
      "v": 58
    },
    {
      "midi": 64,
      "hit": false,
      "t": 101307.29166666657,
      "d": 429.68749999998545,
      "v": 69
    },
    {
      "midi": 67,
      "hit": false,
      "t": 101337.23958333324,
      "d": 72.91666666667152,
      "v": 84
    },
    {
      "midi": 76,
      "hit": false,
      "t": 101437.49999999991,
      "d": 458.33333333331393,
      "v": 95
    },
    {
      "midi": 83,
      "hit": false,
      "t": 101520.83333333324,
      "d": 441.40624999998545,
      "v": 88
    },
    {
      "midi": 50,
      "hit": false,
      "t": 102057.29166666656,
      "d": 1338.5416666666715,
      "v": 69
    },
    {
      "midi": 53,
      "hit": false,
      "t": 102098.95833333323,
      "d": 1113.28125,
      "v": 63
    },
    {
      "midi": 57,
      "hit": false,
      "t": 102184.89583333323,
      "d": 755.208333333343,
      "v": 70
    },
    {
      "midi": 65,
      "hit": false,
      "t": 102217.44791666656,
      "d": 119.79166666667152,
      "v": 75
    },
    {
      "midi": 62,
      "hit": false,
      "t": 102247.39583333323,
      "d": 768.2291666666715,
      "v": 69
    },
    {
      "midi": 69,
      "hit": false,
      "t": 102315.10416666656,
      "d": 106.77083333334303,
      "v": 71
    },
    {
      "midi": 74,
      "hit": false,
      "t": 102372.39583333323,
      "d": 85.9375,
      "v": 91
    },
    {
      "midi": 81,
      "hit": false,
      "t": 102765.6249999999,
      "d": 54.6875,
      "v": 103
    },
    {
      "midi": 62,
      "hit": false,
      "t": 103114.58333333323,
      "d": 684.8958333333285,
      "v": 52
    },
    {
      "midi": 67,
      "hit": false,
      "t": 103234.3749999999,
      "d": 1065.104166666657,
      "v": 68
    },
    {
      "midi": 55,
      "hit": false,
      "t": 103261.7187499999,
      "d": 596.354166666657,
      "v": 94
    },
    {
      "midi": 71,
      "hit": false,
      "t": 103290.36458333323,
      "d": 667.96875,
      "v": 86
    },
    {
      "midi": 57,
      "hit": false,
      "t": 103720.05208333323,
      "d": 421.875,
      "v": 93
    },
    {
      "midi": 52,
      "hit": false,
      "t": 104005.20833333323,
      "d": 929.6875000000146,
      "v": 51
    },
    {
      "midi": 59,
      "hit": false,
      "t": 104079.42708333323,
      "d": 760.4166666666715,
      "v": 84
    },
    {
      "midi": 64,
      "hit": false,
      "t": 104132.8124999999,
      "d": 1027.3437500000146,
      "v": 81
    },
    {
      "midi": 71,
      "hit": false,
      "t": 104233.07291666656,
      "d": 1371.0937500000146,
      "v": 92
    },
    {
      "midi": 50,
      "hit": false,
      "t": 104869.79166666657,
      "d": 584.6354166666715,
      "v": 77
    },
    {
      "midi": 60,
      "hit": false,
      "t": 104970.05208333324,
      "d": 397.1354166666715,
      "v": 87
    },
    {
      "midi": 65,
      "hit": false,
      "t": 105054.68749999991,
      "d": 602.8645833333285,
      "v": 88
    },
    {
      "midi": 69,
      "hit": false,
      "t": 105464.84374999991,
      "d": 622.3958333333139,
      "v": 103
    },
    {
      "midi": 62,
      "hit": false,
      "t": 105473.95833333324,
      "d": 393.22916666665697,
      "v": 87
    },
    {
      "midi": 55,
      "hit": false,
      "t": 105770.83333333324,
      "d": 895.8333333333285,
      "v": 73
    },
    {
      "midi": 64,
      "hit": false,
      "t": 105815.10416666657,
      "d": 649.7395833333285,
      "v": 84
    },
    {
      "midi": 59,
      "hit": false,
      "t": 105904.94791666657,
      "d": 584.635416666657,
      "v": 76
    },
    {
      "midi": 71,
      "hit": false,
      "t": 105910.1562499999,
      "d": 782.552083333343,
      "v": 93
    },
    {
      "midi": 65,
      "hit": false,
      "t": 106399.73958333323,
      "d": 565.1041666666861,
      "v": 92
    },
    {
      "midi": 52,
      "hit": false,
      "t": 106660.1562499999,
      "d": 994.7916666666861,
      "v": 72
    },
    {
      "midi": 59,
      "hit": false,
      "t": 106777.34374999991,
      "d": 738.28125,
      "v": 67
    },
    {
      "midi": 67,
      "hit": false,
      "t": 106842.44791666658,
      "d": 907.552083333343,
      "v": 87
    },
    {
      "midi": 71,
      "hit": false,
      "t": 106947.91666666658,
      "d": 1572.9166666666715,
      "v": 84
    },
    {
      "midi": 50,
      "hit": false,
      "t": 107627.60416666658,
      "d": 1009.114583333343,
      "v": 56
    },
    {
      "midi": 57,
      "hit": false,
      "t": 107704.42708333326,
      "d": 608.0729166666715,
      "v": 49
    },
    {
      "midi": 60,
      "hit": false,
      "t": 107760.4166666666,
      "d": 751.3020833333285,
      "v": 57
    },
    {
      "midi": 65,
      "hit": false,
      "t": 107807.2916666666,
      "d": 733.072916666657,
      "v": 66
    },
    {
      "midi": 69,
      "hit": false,
      "t": 108342.4479166666,
      "d": 236.97916666665697,
      "v": 91
    },
    {
      "midi": 55,
      "hit": false,
      "t": 108584.63541666658,
      "d": 514.3229166666861,
      "v": 51
    },
    {
      "midi": 59,
      "hit": false,
      "t": 108622.39583333326,
      "d": 567.708333333343,
      "v": 54
    },
    {
      "midi": 67,
      "hit": false,
      "t": 108677.08333333326,
      "d": 692.708333333343,
      "v": 86
    },
    {
      "midi": 62,
      "hit": false,
      "t": 108714.84374999993,
      "d": 714.84375,
      "v": 57
    },
    {
      "midi": 71,
      "hit": false,
      "t": 108761.71874999993,
      "d": 533.8541666666715,
      "v": 86
    },
    {
      "midi": 72,
      "hit": false,
      "t": 109195.31249999993,
      "d": 579.4270833333285,
      "v": 103
    },
    {
      "midi": 52,
      "hit": false,
      "t": 109432.2916666666,
      "d": 796.875,
      "v": 36
    },
    {
      "midi": 55,
      "hit": false,
      "t": 109454.42708333327,
      "d": 760.416666666657,
      "v": 56
    },
    {
      "midi": 67,
      "hit": false,
      "t": 109557.2916666666,
      "d": 729.1666666666715,
      "v": 54
    },
    {
      "midi": 59,
      "hit": false,
      "t": 109565.1041666666,
      "d": 622.3958333333285,
      "v": 43
    },
    {
      "midi": 64,
      "hit": false,
      "t": 109674.4791666666,
      "d": 554.6875,
      "v": 49
    },
    {
      "midi": 71,
      "hit": false,
      "t": 109674.4791666666,
      "d": 933.59375,
      "v": 61
    },
    {
      "midi": 74,
      "hit": false,
      "t": 109742.18749999993,
      "d": 778.645833333343,
      "v": 93
    },
    {
      "midi": 50,
      "hit": false,
      "t": 110411.45833333327,
      "d": 605.46875,
      "v": 52
    },
    {
      "midi": 53,
      "hit": false,
      "t": 110470.05208333327,
      "d": 500,
      "v": 42
    },
    {
      "midi": 65,
      "hit": false,
      "t": 110489.58333333327,
      "d": 537.7604166666715,
      "v": 46
    },
    {
      "midi": 57,
      "hit": false,
      "t": 110549.4791666666,
      "d": 412.7604166666715,
      "v": 46
    },
    {
      "midi": 69,
      "hit": false,
      "t": 110562.49999999993,
      "d": 447.9166666666715,
      "v": 59
    },
    {
      "midi": 72,
      "hit": false,
      "t": 110635.4166666666,
      "d": 401.0416666666715,
      "v": 72
    },
    {
      "midi": 62,
      "hit": false,
      "t": 110708.33333333327,
      "d": 234.375,
      "v": 50
    },
    {
      "midi": 76,
      "hit": false,
      "t": 110736.9791666666,
      "d": 346.3541666666715,
      "v": 91
    },
    {
      "midi": 77,
      "hit": false,
      "t": 111244.7916666666,
      "d": 325.5208333333285,
      "v": 87
    },
    {
      "midi": 43,
      "hit": false,
      "t": 111421.87499999993,
      "d": 578.1250000000146,
      "v": 44
    },
    {
      "midi": 67,
      "hit": false,
      "t": 111507.81249999993,
      "d": 440.10416666668607,
      "v": 49
    },
    {
      "midi": 50,
      "hit": false,
      "t": 111511.71874999993,
      "d": 472.65625000001455,
      "v": 43
    },
    {
      "midi": 71,
      "hit": false,
      "t": 111592.4479166666,
      "d": 394.53125000001455,
      "v": 32
    },
    {
      "midi": 59,
      "hit": false,
      "t": 111692.70833333327,
      "d": 252.60416666667152,
      "v": 41
    },
    {
      "midi": 74,
      "hit": false,
      "t": 111703.12499999994,
      "d": 302.0833333333285,
      "v": 41
    },
    {
      "midi": 79,
      "hit": false,
      "t": 111790.36458333327,
      "d": 251.30208333332848,
      "v": 80
    },
    {
      "midi": 81,
      "hit": false,
      "t": 112274.73958333327,
      "d": 304.68750000001455,
      "v": 68
    },
    {
      "midi": 40,
      "hit": false,
      "t": 112421.87499999994,
      "d": 763.020833333343,
      "v": 46
    },
    {
      "midi": 47,
      "hit": false,
      "t": 112515.62499999994,
      "d": 683.5937500000146,
      "v": 44
    },
    {
      "midi": 71,
      "hit": false,
      "t": 112572.91666666661,
      "d": 962.239583333343,
      "v": 29
    },
    {
      "midi": 76,
      "hit": false,
      "t": 112670.57291666661,
      "d": 566.4062500000146,
      "v": 36
    },
    {
      "midi": 55,
      "hit": false,
      "t": 112677.08333333328,
      "d": 493.4895833333285,
      "v": 25
    },
    {
      "midi": 79,
      "hit": false,
      "t": 112752.60416666661,
      "d": 658.8541666666861,
      "v": 39
    },
    {
      "midi": 83,
      "hit": false,
      "t": 112880.20833333328,
      "d": 602.864583333343,
      "v": 59
    },
    {
      "midi": 38,
      "hit": false,
      "t": 113583.33333333328,
      "d": 878.9062499999563,
      "v": 38
    },
    {
      "midi": 45,
      "hit": false,
      "t": 113697.91666666661,
      "d": 747.3958333332994,
      "v": 45
    },
    {
      "midi": 69,
      "hit": false,
      "t": 113812.49999999994,
      "d": 89.84375,
      "v": 41
    },
    {
      "midi": 53,
      "hit": false,
      "t": 113829.42708333327,
      "d": 575.5208333333139,
      "v": 22
    },
    {
      "midi": 74,
      "hit": false,
      "t": 113915.36458333327,
      "d": 95.05208333332848,
      "v": 41
    },
    {
      "midi": 77,
      "hit": false,
      "t": 114027.34374999993,
      "d": 149.73958333332848,
      "v": 37
    },
    {
      "midi": 84,
      "hit": false,
      "t": 114130.20833333326,
      "d": 546.8749999999854,
      "v": 60
    },
    {
      "midi": 86,
      "hit": false,
      "t": 114807.29166666657,
      "d": 138.02083333332848,
      "v": 54
    },
    {
      "midi": 36,
      "hit": false,
      "t": 115736.97916666657,
      "d": 1733.0729166666715,
      "v": 24
    },
    {
      "midi": 43,
      "hit": false,
      "t": 115815.10416666657,
      "d": 1669.270833333343,
      "v": 21
    },
    {
      "midi": 52,
      "hit": false,
      "t": 115937.4999999999,
      "d": 1602.864583333343,
      "v": 25
    },
    {
      "midi": 86,
      "hit": false,
      "t": 115949.2187499999,
      "d": 846.3541666666715,
      "v": 47
    },
    {
      "midi": 74,
      "hit": false,
      "t": 115983.07291666657,
      "d": 808.59375,
      "v": 26
    },
    {
      "midi": 79,
      "hit": false,
      "t": 115983.07291666657,
      "d": 1764.3229166666715,
      "v": 19
    },
    {
      "midi": 76,
      "hit": false,
      "t": 115986.97916666657,
      "d": 765.625,
      "v": 29
    },
    {
      "midi": 84,
      "hit": false,
      "t": 117195.3124999999,
      "d": 1272.1354166666715,
      "v": 48
    },
    {
      "midi": 72,
      "hit": false,
      "t": 117217.44791666657,
      "d": 627.6041666666715,
      "v": 31
    },
    {
      "midi": 55,
      "hit": false,
      "t": 118257.81249999991,
      "d": 466.14583333331393,
      "v": 31
    },
    {
      "midi": 79,
      "hit": false,
      "t": 118270.83333333324,
      "d": 593.7499999999709,
      "v": 40
    },
    {
      "midi": 74,
      "hit": false,
      "t": 118286.45833333324,
      "d": 248.69791666665697,
      "v": 24
    },
    {
      "midi": 47,
      "hit": false,
      "t": 118286.45833333324,
      "d": 458.33333333331393,
      "v": 20
    },
    {
      "midi": 40,
      "hit": false,
      "t": 118299.47916666657,
      "d": 360.6770833333285,
      "v": 40
    },
    {
      "midi": 83,
      "hit": false,
      "t": 118791.66666666656,
      "d": 138.02083333332848,
      "v": 57
    },
    {
      "midi": 71,
      "hit": false,
      "t": 118812.49999999988,
      "d": 179.6875,
      "v": 33
    },
    {
      "midi": 81,
      "hit": false,
      "t": 119312.49999999988,
      "d": 492.1875,
      "v": 65
    },
    {
      "midi": 72,
      "hit": false,
      "t": 119320.31249999988,
      "d": 486.9791666666715,
      "v": 46
    },
    {
      "midi": 69,
      "hit": false,
      "t": 119328.12499999988,
      "d": 511.71875,
      "v": 44
    },
    {
      "midi": 76,
      "hit": false,
      "t": 119337.23958333321,
      "d": 402.34375,
      "v": 56
    },
    {
      "midi": 57,
      "hit": false,
      "t": 119337.23958333321,
      "d": 429.6875,
      "v": 34
    },
    {
      "midi": 41,
      "hit": false,
      "t": 119339.84374999988,
      "d": 382.8125,
      "v": 30
    },
    {
      "midi": 48,
      "hit": false,
      "t": 119347.65624999988,
      "d": 399.7395833333285,
      "v": 24
    },
    {
      "midi": 79,
      "hit": false,
      "t": 120345.05208333321,
      "d": 437.5,
      "v": 54
    },
    {
      "midi": 67,
      "hit": false,
      "t": 120348.95833333321,
      "d": 428.3854166666715,
      "v": 40
    },
    {
      "midi": 71,
      "hit": false,
      "t": 120348.95833333321,
      "d": 479.16666666665697,
      "v": 31
    },
    {
      "midi": 43,
      "hit": false,
      "t": 120361.97916666654,
      "d": 393.2291666666715,
      "v": 20
    },
    {
      "midi": 50,
      "hit": false,
      "t": 120364.58333333321,
      "d": 388.0208333333285,
      "v": 33
    },
    {
      "midi": 74,
      "hit": false,
      "t": 120367.18749999988,
      "d": 440.10416666665697,
      "v": 45
    },
    {
      "midi": 59,
      "hit": false,
      "t": 120372.39583333321,
      "d": 419.2708333333285,
      "v": 26
    },
    {
      "midi": 72,
      "hit": false,
      "t": 121361.97916666654,
      "d": 565.1041666666715,
      "v": 52
    },
    {
      "midi": 64,
      "hit": false,
      "t": 121380.20833333321,
      "d": 415.36458333334303,
      "v": 33
    },
    {
      "midi": 69,
      "hit": false,
      "t": 121395.83333333321,
      "d": 486.9791666666715,
      "v": 36
    },
    {
      "midi": 60,
      "hit": false,
      "t": 121397.13541666654,
      "d": 311.1979166666715,
      "v": 19
    },
    {
      "midi": 45,
      "hit": false,
      "t": 121415.36458333321,
      "d": 438.80208333334303,
      "v": 21
    },
    {
      "midi": 52,
      "hit": false,
      "t": 121416.66666666654,
      "d": 368.48958333334303,
      "v": 24
    },
    {
      "midi": 79,
      "hit": false,
      "t": 122458.33333333321,
      "d": 1011.71875,
      "v": 68
    },
    {
      "midi": 72,
      "hit": false,
      "t": 122470.05208333321,
      "d": 1654.9479166666715,
      "v": 45
    },
    {
      "midi": 69,
      "hit": false,
      "t": 122472.65624999988,
      "d": 1010.416666666657,
      "v": 31
    },
    {
      "midi": 45,
      "hit": false,
      "t": 122473.95833333321,
      "d": 1523.4375,
      "v": 31
    },
    {
      "midi": 53,
      "hit": false,
      "t": 122477.86458333321,
      "d": 1558.59375,
      "v": 26
    },
    {
      "midi": 67,
      "hit": false,
      "t": 122479.16666666654,
      "d": 990.8854166666715,
      "v": 34
    },
    {
      "midi": 38,
      "hit": false,
      "t": 122494.79166666654,
      "d": 1458.333333333343,
      "v": 18
    },
    {
      "midi": 77,
      "hit": false,
      "t": 123622.39583333321,
      "d": 1239.5833333333285,
      "v": 71
    },
    {
      "midi": 65,
      "hit": false,
      "t": 123630.20833333321,
      "d": 640.625,
      "v": 37
    },
    {
      "midi": 67,
      "hit": false,
      "t": 124545.57291666654,
      "d": 294.2708333333285,
      "v": 48
    },
    {
      "midi": 71,
      "hit": false,
      "t": 124557.29166666654,
      "d": 554.6875,
      "v": 47
    },
    {
      "midi": 40,
      "hit": false,
      "t": 124570.31249999987,
      "d": 481.77083333334303,
      "v": 40
    },
    {
      "midi": 55,
      "hit": false,
      "t": 124574.21874999987,
      "d": 524.739583333343,
      "v": 30
    },
    {
      "midi": 47,
      "hit": false,
      "t": 124589.84374999987,
      "d": 513.020833333343,
      "v": 29
    },
    {
      "midi": 76,
      "hit": false,
      "t": 125029.94791666654,
      "d": 165.36458333332848,
      "v": 95
    },
    {
      "midi": 64,
      "hit": false,
      "t": 125036.45833333321,
      "d": 253.90624999998545,
      "v": 55
    },
    {
      "midi": 72,
      "hit": false,
      "t": 125589.84374999987,
      "d": 652.34375,
      "v": 97
    },
    {
      "midi": 60,
      "hit": false,
      "t": 125595.0520833332,
      "d": 709.6354166666715,
      "v": 71
    },
    {
      "midi": 41,
      "hit": false,
      "t": 125598.9583333332,
      "d": 542.96875,
      "v": 50
    },
    {
      "midi": 69,
      "hit": false,
      "t": 125611.97916666653,
      "d": 977.864583333343,
      "v": 67
    },
    {
      "midi": 57,
      "hit": false,
      "t": 125617.18749999985,
      "d": 554.6875000000146,
      "v": 49
    },
    {
      "midi": 48,
      "hit": false,
      "t": 125627.60416666653,
      "d": 492.1875,
      "v": 45
    },
    {
      "midi": 71,
      "hit": false,
      "t": 126579.4270833332,
      "d": 1157.5520833333285,
      "v": 79
    },
    {
      "midi": 62,
      "hit": false,
      "t": 126589.84374999987,
      "d": 915.3645833333285,
      "v": 54
    },
    {
      "midi": 43,
      "hit": false,
      "t": 126595.0520833332,
      "d": 592.447916666657,
      "v": 46
    },
    {
      "midi": 59,
      "hit": false,
      "t": 126608.07291666653,
      "d": 606.7708333333285,
      "v": 48
    },
    {
      "midi": 50,
      "hit": false,
      "t": 126617.18749999985,
      "d": 562.5,
      "v": 49
    },
    {
      "midi": 67,
      "hit": false,
      "t": 126622.39583333318,
      "d": 537.7604166666715,
      "v": 52
    },
    {
      "midi": 67,
      "hit": false,
      "t": 127494.79166666653,
      "d": 510.4166666666715,
      "v": 88
    },
    {
      "midi": 64,
      "hit": false,
      "t": 127497.3958333332,
      "d": 539.0625,
      "v": 70
    },
    {
      "midi": 59,
      "hit": false,
      "t": 127505.2083333332,
      "d": 489.5833333333285,
      "v": 53
    },
    {
      "midi": 45,
      "hit": false,
      "t": 127522.13541666653,
      "d": 550.78125,
      "v": 38
    },
    {
      "midi": 52,
      "hit": false,
      "t": 127532.5520833332,
      "d": 451.82291666665697,
      "v": 61
    },
    {
      "midi": 64,
      "hit": false,
      "t": 128477.8645833332,
      "d": 1326.822916666657,
      "v": 65
    },
    {
      "midi": 57,
      "hit": false,
      "t": 128479.16666666653,
      "d": 604.1666666666715,
      "v": 45
    },
    {
      "midi": 48,
      "hit": false,
      "t": 128483.07291666653,
      "d": 720.0520833333285,
      "v": 43
    },
    {
      "midi": 41,
      "hit": false,
      "t": 128492.18749999985,
      "d": 705.7291666666715,
      "v": 39
    },
    {
      "midi": 62,
      "hit": false,
      "t": 129703.12499999985,
      "d": 911.4583333333285,
      "v": 44
    },
    {
      "midi": 60,
      "hit": false,
      "t": 129722.65624999985,
      "d": 595.0520833333285,
      "v": 55
    },
    {
      "midi": 57,
      "hit": false,
      "t": 129729.16666666653,
      "d": 365.88541666665697,
      "v": 20
    },
    {
      "midi": 60,
      "hit": false,
      "t": 130447.91666666651,
      "d": 82.03125,
      "v": 9
    },
    {
      "midi": 55,
      "hit": false,
      "t": 130714.84374999985,
      "d": 747.395833333343,
      "v": 60
    },
    {
      "midi": 65,
      "hit": false,
      "t": 131192.7083333332,
      "d": 510.41666666665697,
      "v": 72
    },
    {
      "midi": 48,
      "hit": false,
      "t": 131677.0833333332,
      "d": 458.33333333331393,
      "v": 49
    },
    {
      "midi": 67,
      "hit": false,
      "t": 131677.0833333332,
      "d": 927.083333333343,
      "v": 80
    },
    {
      "midi": 64,
      "hit": false,
      "t": 131684.8958333332,
      "d": 799.479166666657,
      "v": 52
    },
    {
      "midi": 59,
      "hit": false,
      "t": 131687.49999999985,
      "d": 445.3125,
      "v": 43
    },
    {
      "midi": 41,
      "hit": false,
      "t": 131703.12499999985,
      "d": 401.04166666665697,
      "v": 39
    },
    {
      "midi": 69,
      "hit": false,
      "t": 132520.8333333332,
      "d": 558.59375,
      "v": 76
    },
    {
      "midi": 60,
      "hit": false,
      "t": 132532.5520833332,
      "d": 957.03125,
      "v": 74
    },
    {
      "midi": 62,
      "hit": false,
      "t": 132536.4583333332,
      "d": 360.67708333334303,
      "v": 37
    },
    {
      "midi": 65,
      "hit": false,
      "t": 132536.4583333332,
      "d": 386.71875,
      "v": 37
    },
    {
      "midi": 72,
      "hit": false,
      "t": 133410.15624999985,
      "d": 442.70833333334303,
      "v": 88
    },
    {
      "midi": 65,
      "hit": false,
      "t": 133427.0833333332,
      "d": 355.46875,
      "v": 46
    },
    {
      "midi": 69,
      "hit": false,
      "t": 133445.31249999985,
      "d": 282.55208333334303,
      "v": 39
    },
    {
      "midi": 55,
      "hit": false,
      "t": 133470.0520833332,
      "d": 684.895833333343,
      "v": 66
    },
    {
      "midi": 76,
      "hit": false,
      "t": 134312.49999999988,
      "d": 489.58333333334303,
      "v": 93
    },
    {
      "midi": 72,
      "hit": false,
      "t": 134337.23958333323,
      "d": 429.6875,
      "v": 69
    },
    {
      "midi": 64,
      "hit": false,
      "t": 134337.23958333323,
      "d": 562.5,
      "v": 39
    },
    {
      "midi": 48,
      "hit": false,
      "t": 134345.05208333323,
      "d": 399.73958333334303,
      "v": 66
    },
    {
      "midi": 69,
      "hit": false,
      "t": 134345.05208333323,
      "d": 440.10416666665697,
      "v": 52
    },
    {
      "midi": 41,
      "hit": false,
      "t": 134347.65624999988,
      "d": 356.77083333334303,
      "v": 53
    },
    {
      "midi": 74,
      "hit": false,
      "t": 135223.95833333323,
      "d": 871.09375,
      "v": 82
    },
    {
      "midi": 65,
      "hit": false,
      "t": 135227.86458333323,
      "d": 414.0625,
      "v": 55
    },
    {
      "midi": 62,
      "hit": false,
      "t": 135236.97916666657,
      "d": 303.38541666665697,
      "v": 49
    },
    {
      "midi": 69,
      "hit": false,
      "t": 135236.97916666657,
      "d": 654.947916666657,
      "v": 65
    },
    {
      "midi": 60,
      "hit": false,
      "t": 135260.41666666657,
      "d": 851.5625,
      "v": 91
    },
    {
      "midi": 55,
      "hit": false,
      "t": 136203.1249999999,
      "d": 617.1875000000291,
      "v": 94
    },
    {
      "midi": 77,
      "hit": false,
      "t": 136627.60416666657,
      "d": 234.3750000000291,
      "v": 101
    },
    {
      "midi": 69,
      "hit": false,
      "t": 136636.7187499999,
      "d": 140.6250000000291,
      "v": 70
    },
    {
      "midi": 65,
      "hit": false,
      "t": 136641.92708333326,
      "d": 175.7812500000291,
      "v": 75
    },
    {
      "midi": 74,
      "hit": false,
      "t": 136647.1354166666,
      "d": 180.98958333334303,
      "v": 73
    },
    {
      "midi": 79,
      "hit": false,
      "t": 137114.58333333326,
      "d": 484.3749999999709,
      "v": 106
    },
    {
      "midi": 67,
      "hit": false,
      "t": 137122.39583333326,
      "d": 345.05208333331393,
      "v": 94
    },
    {
      "midi": 48,
      "hit": false,
      "t": 137124.9999999999,
      "d": 296.875,
      "v": 92
    },
    {
      "midi": 41,
      "hit": false,
      "t": 137130.20833333326,
      "d": 269.53125,
      "v": 87
    },
    {
      "midi": 76,
      "hit": false,
      "t": 137130.20833333326,
      "d": 381.51041666662786,
      "v": 95
    },
    {
      "midi": 71,
      "hit": false,
      "t": 137132.8124999999,
      "d": 337.23958333331393,
      "v": 68
    },
    {
      "midi": 81,
      "hit": false,
      "t": 137986.97916666657,
      "d": 466.14583333334303,
      "v": 103
    },
    {
      "midi": 69,
      "hit": false,
      "t": 137992.1874999999,
      "d": 325.52083333331393,
      "v": 94
    },
    {
      "midi": 77,
      "hit": false,
      "t": 137992.1874999999,
      "d": 377.60416666665697,
      "v": 96
    },
    {
      "midi": 74,
      "hit": false,
      "t": 138002.60416666657,
      "d": 346.35416666665697,
      "v": 85
    },
    {
      "midi": 60,
      "hit": false,
      "t": 138002.60416666657,
      "d": 861.9791666666861,
      "v": 103
    },
    {
      "midi": 84,
      "hit": false,
      "t": 138820.3124999999,
      "d": 481.77083333334303,
      "v": 111
    },
    {
      "midi": 72,
      "hit": false,
      "t": 138822.91666666657,
      "d": 309.89583333334303,
      "v": 105
    },
    {
      "midi": 81,
      "hit": false,
      "t": 138822.91666666657,
      "d": 438.80208333334303,
      "v": 103
    },
    {
      "midi": 77,
      "hit": false,
      "t": 138828.1249999999,
      "d": 380.20833333334303,
      "v": 95
    },
    {
      "midi": 55,
      "hit": false,
      "t": 138839.8437499999,
      "d": 363.28125,
      "v": 105
    },
    {
      "midi": 88,
      "hit": false,
      "t": 139677.08333333326,
      "d": 453.1249999999709,
      "v": 113
    },
    {
      "midi": 76,
      "hit": false,
      "t": 139677.08333333326,
      "d": 540.3645833333139,
      "v": 115
    },
    {
      "midi": 41,
      "hit": false,
      "t": 139679.6874999999,
      "d": 372.39583333331393,
      "v": 103
    },
    {
      "midi": 81,
      "hit": false,
      "t": 139679.6874999999,
      "d": 462.23958333331393,
      "v": 106
    },
    {
      "midi": 84,
      "hit": false,
      "t": 139679.6874999999,
      "d": 485.67708333331393,
      "v": 108
    },
    {
      "midi": 48,
      "hit": false,
      "t": 139682.29166666657,
      "d": 395.83333333331393,
      "v": 105
    },
    {
      "midi": 86,
      "hit": false,
      "t": 140473.95833333323,
      "d": 885.416666666657,
      "v": 113
    },
    {
      "midi": 74,
      "hit": false,
      "t": 140479.16666666657,
      "d": 750,
      "v": 108
    },
    {
      "midi": 81,
      "hit": false,
      "t": 140479.16666666657,
      "d": 869.791666666657,
      "v": 104
    },
    {
      "midi": 77,
      "hit": false,
      "t": 140483.07291666657,
      "d": 787.760416666657,
      "v": 103
    },
    {
      "midi": 60,
      "hit": false,
      "t": 140486.97916666657,
      "d": 768.229166666657,
      "v": 108
    },
    {
      "midi": 55,
      "hit": false,
      "t": 141380.20833333323,
      "d": 361.97916666665697,
      "v": 113
    },
    {
      "midi": 89,
      "hit": false,
      "t": 141774.73958333323,
      "d": 265.625,
      "v": 111
    },
    {
      "midi": 81,
      "hit": false,
      "t": 141779.94791666657,
      "d": 167.96875,
      "v": 100
    },
    {
      "midi": 77,
      "hit": false,
      "t": 141779.94791666657,
      "d": 214.84375,
      "v": 103
    },
    {
      "midi": 86,
      "hit": false,
      "t": 141782.55208333323,
      "d": 222.65625,
      "v": 98
    },
    {
      "midi": 83,
      "hit": false,
      "t": 142239.58333333323,
      "d": 328.125,
      "v": 94
    },
    {
      "midi": 91,
      "hit": false,
      "t": 142239.58333333323,
      "d": 440.10416666668607,
      "v": 113
    },
    {
      "midi": 41,
      "hit": false,
      "t": 142242.18749999988,
      "d": 304.6875,
      "v": 102
    },
    {
      "midi": 79,
      "hit": false,
      "t": 142242.18749999988,
      "d": 350.26041666668607,
      "v": 110
    },
    {
      "midi": 88,
      "hit": false,
      "t": 142242.18749999988,
      "d": 394.5312500000291,
      "v": 108
    },
    {
      "midi": 48,
      "hit": false,
      "t": 142244.79166666654,
      "d": 326.82291666668607,
      "v": 104
    },
    {
      "midi": 93,
      "hit": false,
      "t": 143065.10416666657,
      "d": 399.7395833332848,
      "v": 111
    },
    {
      "midi": 81,
      "hit": false,
      "t": 143067.70833333323,
      "d": 203.1249999999709,
      "v": 108
    },
    {
      "midi": 86,
      "hit": false,
      "t": 143070.31249999988,
      "d": 264.32291666662786,
      "v": 98
    },
    {
      "midi": 89,
      "hit": false,
      "t": 143070.31249999988,
      "d": 359.3749999999709,
      "v": 105
    },
    {
      "midi": 60,
      "hit": false,
      "t": 143072.91666666654,
      "d": 223.95833333331393,
      "v": 118
    },
    {
      "midi": 96,
      "hit": false,
      "t": 143962.2395833332,
      "d": 402.34375,
      "v": 115
    },
    {
      "midi": 84,
      "hit": false,
      "t": 143967.44791666654,
      "d": 203.125,
      "v": 112
    },
    {
      "midi": 93,
      "hit": false,
      "t": 143967.44791666654,
      "d": 312.5,
      "v": 110
    },
    {
      "midi": 89,
      "hit": false,
      "t": 143972.65624999988,
      "d": 247.39583333331393,
      "v": 105
    },
    {
      "midi": 55,
      "hit": false,
      "t": 143973.95833333323,
      "d": 88.54166666665697,
      "v": 106
    },
    {
      "midi": 36,
      "hit": false,
      "t": 144739.5833333332,
      "d": 166.66666666665697,
      "v": 119
    },
    {
      "midi": 103,
      "hit": false,
      "t": 145223.9583333332,
      "d": 421.875,
      "v": 117
    },
    {
      "midi": 91,
      "hit": false,
      "t": 145229.16666666654,
      "d": 276.04166666665697,
      "v": 115
    },
    {
      "midi": 100,
      "hit": false,
      "t": 145229.16666666654,
      "d": 373.69791666665697,
      "v": 111
    },
    {
      "midi": 79,
      "hit": false,
      "t": 145233.07291666654,
      "d": 62.5,
      "v": 122
    },
    {
      "midi": 96,
      "hit": false,
      "t": 145234.37499999988,
      "d": 302.08333333331393,
      "v": 102
    },
    {
      "midi": 76,
      "hit": false,
      "t": 145242.18749999988,
      "d": 29.947916666656965,
      "v": 115
    },
    {
      "midi": 72,
      "hit": false,
      "t": 145244.79166666654,
      "d": 32.552083333343035,
      "v": 111
    },
    {
      "midi": 103,
      "hit": false,
      "t": 145854.16666666654,
      "d": 57.291666666656965,
      "v": 98
    },
    {
      "midi": 101,
      "hit": false,
      "t": 145885.41666666654,
      "d": 69.01041666665697,
      "v": 88
    },
    {
      "midi": 100,
      "hit": false,
      "t": 145954.4270833332,
      "d": 67.70833333331393,
      "v": 86
    },
    {
      "midi": 98,
      "hit": false,
      "t": 145999.99999999985,
      "d": 46.875,
      "v": 87
    },
    {
      "midi": 96,
      "hit": false,
      "t": 146045.5729166665,
      "d": 49.47916666668607,
      "v": 94
    },
    {
      "midi": 95,
      "hit": false,
      "t": 146089.84374999985,
      "d": 42.96875,
      "v": 77
    },
    {
      "midi": 93,
      "hit": false,
      "t": 146130.2083333332,
      "d": 31.25,
      "v": 97
    },
    {
      "midi": 91,
      "hit": false,
      "t": 146170.57291666654,
      "d": 28.645833333343035,
      "v": 94
    },
    {
      "midi": 89,
      "hit": false,
      "t": 146208.33333333323,
      "d": 33.854166666656965,
      "v": 99
    },
    {
      "midi": 88,
      "hit": false,
      "t": 146242.18749999988,
      "d": 40.36458333331393,
      "v": 98
    },
    {
      "midi": 86,
      "hit": false,
      "t": 146279.94791666654,
      "d": 24.73958333331393,
      "v": 102
    },
    {
      "midi": 84,
      "hit": false,
      "t": 146317.7083333332,
      "d": 31.25,
      "v": 100
    },
    {
      "midi": 79,
      "hit": false,
      "t": 146399.7395833332,
      "d": 203.125,
      "v": 121
    },
    {
      "midi": 69,
      "hit": false,
      "t": 146407.5520833332,
      "d": 600.2604166666861,
      "v": 121
    },
    {
      "midi": 60,
      "hit": false,
      "t": 146420.57291666654,
      "d": 476.5625,
      "v": 103
    },
    {
      "midi": 65,
      "hit": false,
      "t": 146420.57291666654,
      "d": 496.09375,
      "v": 106
    },
    {
      "midi": 62,
      "hit": false,
      "t": 146421.87499999988,
      "d": 498.69791666665697,
      "v": 99
    },
    {
      "midi": 81,
      "hit": false,
      "t": 146429.68749999988,
      "d": 37.760416666656965,
      "v": 84
    },
    {
      "midi": 79,
      "hit": false,
      "t": 146842.44791666654,
      "d": 111.97916666665697,
      "v": 96
    },
    {
      "midi": 81,
      "hit": false,
      "t": 146916.66666666654,
      "d": 83.33333333334303,
      "v": 83
    },
    {
      "midi": 83,
      "hit": false,
      "t": 146986.97916666654,
      "d": 29.94791666668607,
      "v": 80
    },
    {
      "midi": 84,
      "hit": false,
      "t": 147036.45833333323,
      "d": 96.35416666668607,
      "v": 81
    },
    {
      "midi": 86,
      "hit": false,
      "t": 147092.44791666657,
      "d": 97.6562500000291,
      "v": 70
    },
    {
      "midi": 88,
      "hit": false,
      "t": 147141.92708333326,
      "d": 35.15625,
      "v": 74
    },
    {
      "midi": 89,
      "hit": false,
      "t": 147203.12499999994,
      "d": 338.54166666665697,
      "v": 80
    },
    {
      "midi": 91,
      "hit": false,
      "t": 147247.39583333328,
      "d": 173.17708333331393,
      "v": 82
    },
    {
      "midi": 55,
      "hit": false,
      "t": 147257.81249999994,
      "d": 76.82291666665697,
      "v": 117
    },
    {
      "midi": 72,
      "hit": false,
      "t": 147670.5729166666,
      "d": 119.79166666665697,
      "v": 114
    },
    {
      "midi": 69,
      "hit": false,
      "t": 147679.68749999994,
      "d": 140.6249999999709,
      "v": 103
    },
    {
      "midi": 91,
      "hit": false,
      "t": 147690.1041666666,
      "d": 80.72916666665697,
      "v": 77
    },
    {
      "midi": 65,
      "hit": false,
      "t": 147690.1041666666,
      "d": 139.32291666665697,
      "v": 94
    },
    {
      "midi": 89,
      "hit": false,
      "t": 147708.33333333326,
      "d": 41.666666666656965,
      "v": 72
    },
    {
      "midi": 93,
      "hit": false,
      "t": 147777.3437499999,
      "d": 59.895833333343035,
      "v": 92
    },
    {
      "midi": 95,
      "hit": false,
      "t": 147833.33333333326,
      "d": 28.645833333343035,
      "v": 76
    },
    {
      "midi": 96,
      "hit": false,
      "t": 147891.92708333326,
      "d": 37.760416666656965,
      "v": 86
    },
    {
      "midi": 98,
      "hit": false,
      "t": 147934.89583333326,
      "d": 87.23958333331393,
      "v": 90
    },
    {
      "midi": 100,
      "hit": false,
      "t": 148007.8124999999,
      "d": 33.854166666656965,
      "v": 89
    },
    {
      "midi": 101,
      "hit": false,
      "t": 148072.91666666657,
      "d": 114.58333333334303,
      "v": 72
    },
    {
      "midi": 103,
      "hit": false,
      "t": 148140.6249999999,
      "d": 83.33333333334303,
      "v": 44
    },
    {
      "midi": 103,
      "hit": false,
      "t": 148279.9479166666,
      "d": 329.42708333334303,
      "v": 119
    },
    {
      "midi": 76,
      "hit": false,
      "t": 148295.5729166666,
      "d": 131.51041666665697,
      "v": 113
    },
    {
      "midi": 79,
      "hit": false,
      "t": 148302.08333333326,
      "d": 100.26041666665697,
      "v": 115
    },
    {
      "midi": 72,
      "hit": false,
      "t": 148312.4999999999,
      "d": 154.94791666668607,
      "v": 108
    },
    {
      "midi": 105,
      "hit": false,
      "t": 148324.2187499999,
      "d": 58.59375,
      "v": 33
    },
    {
      "midi": 103,
      "hit": false,
      "t": 148791.6666666666,
      "d": 50.781250000029104,
      "v": 100
    },
    {
      "midi": 36,
      "hit": false,
      "t": 148804.68749999994,
      "d": 44.270833333343035,
      "v": 118
    },
    {
      "midi": 101,
      "hit": false,
      "t": 148817.70833333328,
      "d": 67.70833333334303,
      "v": 105
    },
    {
      "midi": 100,
      "hit": false,
      "t": 148872.39583333328,
      "d": 32.552083333343035,
      "v": 87
    },
    {
      "midi": 98,
      "hit": false,
      "t": 148907.55208333328,
      "d": 32.55208333331393,
      "v": 92
    },
    {
      "midi": 96,
      "hit": false,
      "t": 148937.49999999994,
      "d": 29.947916666656965,
      "v": 106
    },
    {
      "midi": 95,
      "hit": false,
      "t": 148973.95833333326,
      "d": 28.645833333343035,
      "v": 88
    },
    {
      "midi": 93,
      "hit": false,
      "t": 149005.20833333326,
      "d": 31.25,
      "v": 108
    },
    {
      "midi": 91,
      "hit": false,
      "t": 149041.6666666666,
      "d": 28.645833333343035,
      "v": 103
    },
    {
      "midi": 89,
      "hit": false,
      "t": 149078.12499999994,
      "d": 26.041666666656965,
      "v": 104
    },
    {
      "midi": 88,
      "hit": false,
      "t": 149111.9791666666,
      "d": 28.645833333343035,
      "v": 105
    },
    {
      "midi": 86,
      "hit": false,
      "t": 149145.83333333328,
      "d": 31.25,
      "v": 106
    },
    {
      "midi": 84,
      "hit": false,
      "t": 149179.68749999994,
      "d": 35.15625,
      "v": 106
    },
    {
      "midi": 83,
      "hit": false,
      "t": 149222.65624999994,
      "d": 27.34375,
      "v": 83
    },
    {
      "midi": 81,
      "hit": false,
      "t": 149266.92708333328,
      "d": 40.364583333343035,
      "v": 75
    },
    {
      "midi": 79,
      "hit": false,
      "t": 149334.63541666663,
      "d": 230.4687500000291,
      "v": 105
    },
    {
      "midi": 69,
      "hit": false,
      "t": 149342.44791666663,
      "d": 694.0104166667152,
      "v": 120
    },
    {
      "midi": 60,
      "hit": false,
      "t": 149347.65624999997,
      "d": 576.8229166667152,
      "v": 108
    },
    {
      "midi": 65,
      "hit": false,
      "t": 149348.9583333333,
      "d": 571.6145833333721,
      "v": 110
    },
    {
      "midi": 62,
      "hit": false,
      "t": 149354.16666666666,
      "d": 572.9166666666861,
      "v": 100
    },
    {
      "midi": 79,
      "hit": false,
      "t": 149828.125,
      "d": 83.33333333334303,
      "v": 106
    },
    {
      "midi": 81,
      "hit": false,
      "t": 149902.34375,
      "d": 67.70833333334303,
      "v": 78
    },
    {
      "midi": 83,
      "hit": false,
      "t": 149970.05208333334,
      "d": 32.552083333343035,
      "v": 83
    },
    {
      "midi": 84,
      "hit": false,
      "t": 150024.73958333334,
      "d": 29.947916666656965,
      "v": 95
    },
    {
      "midi": 86,
      "hit": false,
      "t": 150079.42708333334,
      "d": 35.15625,
      "v": 79
    },
    {
      "midi": 88,
      "hit": false,
      "t": 150136.71875,
      "d": 33.854166666656965,
      "v": 85
    },
    {
      "midi": 89,
      "hit": false,
      "t": 150187.5,
      "d": 345.05208333331393,
      "v": 69
    },
    {
      "midi": 91,
      "hit": false,
      "t": 150217.44791666666,
      "d": 319.01041666665697,
      "v": 106
    },
    {
      "midi": 55,
      "hit": false,
      "t": 150239.5833333333,
      "d": 102.86458333334303,
      "v": 114
    },
    {
      "midi": 72,
      "hit": false,
      "t": 150649.7395833333,
      "d": 111.97916666659876,
      "v": 118
    },
    {
      "midi": 65,
      "hit": false,
      "t": 150657.5520833333,
      "d": 46.874999999970896,
      "v": 106
    },
    {
      "midi": 69,
      "hit": false,
      "t": 150660.15624999997,
      "d": 95.05208333328483,
      "v": 103
    },
    {
      "midi": 91,
      "hit": false,
      "t": 150674.47916666663,
      "d": 75.52083333331393,
      "v": 85
    },
    {
      "midi": 93,
      "hit": false,
      "t": 150752.6041666666,
      "d": 46.874999999970896,
      "v": 97
    },
    {
      "midi": 95,
      "hit": false,
      "t": 150809.89583333323,
      "d": 29.947916666656965,
      "v": 83
    },
    {
      "midi": 96,
      "hit": false,
      "t": 150859.37499999988,
      "d": 78.125,
      "v": 91
    },
    {
      "midi": 98,
      "hit": false,
      "t": 150916.66666666654,
      "d": 67.70833333334303,
      "v": 92
    },
    {
      "midi": 100,
      "hit": false,
      "t": 150972.65624999988,
      "d": 72.91666666665697,
      "v": 102
    },
    {
      "midi": 101,
      "hit": false,
      "t": 151027.34374999988,
      "d": 29.947916666656965,
      "v": 95
    },
    {
      "midi": 105,
      "hit": false,
      "t": 151136.71874999988,
      "d": 398.4375000000291,
      "v": 108
    },
    {
      "midi": 103,
      "hit": false,
      "t": 151140.62499999988,
      "d": 414.0625000000291,
      "v": 116
    },
    {
      "midi": 79,
      "hit": false,
      "t": 151141.92708333323,
      "d": 115.88541666665697,
      "v": 121
    },
    {
      "midi": 72,
      "hit": false,
      "t": 151147.13541666657,
      "d": 144.53125,
      "v": 113
    },
    {
      "midi": 76,
      "hit": false,
      "t": 151149.73958333323,
      "d": 117.1875,
      "v": 115
    },
    {
      "midi": 36,
      "hit": false,
      "t": 151630.20833333326,
      "d": 65.10416666665697,
      "v": 112
    },
    {
      "midi": 103,
      "hit": false,
      "t": 151679.6874999999,
      "d": 40.364583333343035,
      "v": 75
    },
    {
      "midi": 101,
      "hit": false,
      "t": 151692.70833333326,
      "d": 31.25,
      "v": 105
    },
    {
      "midi": 100,
      "hit": false,
      "t": 151733.0729166666,
      "d": 27.34375,
      "v": 97
    },
    {
      "midi": 98,
      "hit": false,
      "t": 151765.62499999994,
      "d": 29.947916666656965,
      "v": 99
    },
    {
      "midi": 96,
      "hit": false,
      "t": 151796.87499999994,
      "d": 31.25,
      "v": 106
    },
    {
      "midi": 95,
      "hit": false,
      "t": 151833.33333333328,
      "d": 24.739583333343035,
      "v": 92
    },
    {
      "midi": 93,
      "hit": false,
      "t": 151861.97916666663,
      "d": 28.645833333343035,
      "v": 109
    },
    {
      "midi": 91,
      "hit": false,
      "t": 151895.8333333333,
      "d": 26.041666666656965,
      "v": 106
    },
    {
      "midi": 89,
      "hit": false,
      "t": 151927.0833333333,
      "d": 26.041666666656965,
      "v": 111
    },
    {
      "midi": 88,
      "hit": false,
      "t": 151958.3333333333,
      "d": 24.739583333343035,
      "v": 111
    },
    {
      "midi": 86,
      "hit": false,
      "t": 151984.375,
      "d": 31.25,
      "v": 112
    },
    {
      "midi": 84,
      "hit": false,
      "t": 152020.83333333334,
      "d": 33.854166666656965,
      "v": 110
    },
    {
      "midi": 83,
      "hit": false,
      "t": 152057.29166666666,
      "d": 29.947916666656965,
      "v": 90
    },
    {
      "midi": 81,
      "hit": false,
      "t": 152092.44791666666,
      "d": 37.760416666656965,
      "v": 96
    },
    {
      "midi": 79,
      "hit": false,
      "t": 152157.5520833333,
      "d": 332.03125,
      "v": 41
    },
    {
      "midi": 69,
      "hit": false,
      "t": 152220.0520833333,
      "d": 614.583333333343,
      "v": 123
    },
    {
      "midi": 65,
      "hit": false,
      "t": 152223.9583333333,
      "d": 561.197916666657,
      "v": 113
    },
    {
      "midi": 60,
      "hit": false,
      "t": 152227.8645833333,
      "d": 562.5,
      "v": 110
    },
    {
      "midi": 62,
      "hit": false,
      "t": 152234.37499999997,
      "d": 550.78125,
      "v": 101
    },
    {
      "midi": 79,
      "hit": false,
      "t": 152660.15624999997,
      "d": 126.30208333334303,
      "v": 114
    },
    {
      "midi": 81,
      "hit": false,
      "t": 152799.47916666666,
      "d": 29.947916666656965,
      "v": 85
    },
    {
      "midi": 83,
      "hit": false,
      "t": 152852.8645833333,
      "d": 29.947916666656965,
      "v": 85
    },
    {
      "midi": 84,
      "hit": false,
      "t": 152907.5520833333,
      "d": 29.947916666656965,
      "v": 98
    },
    {
      "midi": 86,
      "hit": false,
      "t": 152959.63541666663,
      "d": 37.760416666656965,
      "v": 92
    },
    {
      "midi": 88,
      "hit": false,
      "t": 153016.92708333328,
      "d": 28.645833333343035,
      "v": 94
    },
    {
      "midi": 89,
      "hit": false,
      "t": 153067.70833333328,
      "d": 44.270833333343035,
      "v": 70
    },
    {
      "midi": 91,
      "hit": false,
      "t": 153114.58333333328,
      "d": 352.86458333331393,
      "v": 112
    },
    {
      "midi": 55,
      "hit": false,
      "t": 153132.81249999994,
      "d": 70.3125,
      "v": 113
    },
    {
      "midi": 72,
      "hit": false,
      "t": 153535.15624999994,
      "d": 97.6562499999709,
      "v": 122
    },
    {
      "midi": 65,
      "hit": false,
      "t": 153545.5729166666,
      "d": 37.760416666656965,
      "v": 100
    },
    {
      "midi": 69,
      "hit": false,
      "t": 153552.08333333326,
      "d": 37.760416666656965,
      "v": 107
    },
    {
      "midi": 91,
      "hit": false,
      "t": 153595.05208333326,
      "d": 79.42708333331393,
      "v": 108
    },
    {
      "midi": 93,
      "hit": false,
      "t": 153666.66666666657,
      "d": 36.458333333343035,
      "v": 79
    },
    {
      "midi": 95,
      "hit": false,
      "t": 153717.44791666657,
      "d": 27.34375,
      "v": 81
    },
    {
      "midi": 96,
      "hit": false,
      "t": 153765.6249999999,
      "d": 29.947916666656965,
      "v": 96
    },
    {
      "midi": 98,
      "hit": false,
      "t": 153804.6874999999,
      "d": 92.44791666665697,
      "v": 94
    },
    {
      "midi": 100,
      "hit": false,
      "t": 153861.97916666657,
      "d": 80.72916666665697,
      "v": 100
    },
    {
      "midi": 101,
      "hit": false,
      "t": 153920.57291666657,
      "d": 27.34375,
      "v": 94
    },
    {
      "midi": 103,
      "hit": false,
      "t": 154006.51041666657,
      "d": 78.125,
      "v": 118
    },
    {
      "midi": 79,
      "hit": false,
      "t": 154024.73958333323,
      "d": 147.13541666668607,
      "v": 121
    },
    {
      "midi": 72,
      "hit": false,
      "t": 154024.73958333323,
      "d": 195.3125,
      "v": 113
    },
    {
      "midi": 76,
      "hit": false,
      "t": 154029.94791666657,
      "d": 152.34375,
      "v": 115
    },
    {
      "midi": 36,
      "hit": false,
      "t": 154567.70833333323,
      "d": 194.01041666668607,
      "v": 115
    },
    {
      "midi": 79,
      "hit": false,
      "t": 154595.05208333323,
      "d": 141.92708333334303,
      "v": 96
    },
    {
      "midi": 81,
      "hit": false,
      "t": 154760.41666666657,
      "d": 36.458333333343035,
      "v": 89
    },
    {
      "midi": 83,
      "hit": false,
      "t": 154791.66666666657,
      "d": 31.25,
      "v": 80
    },
    {
      "midi": 84,
      "hit": false,
      "t": 154824.2187499999,
      "d": 37.76041666668607,
      "v": 85
    },
    {
      "midi": 86,
      "hit": false,
      "t": 154848.95833333326,
      "d": 33.85416666668607,
      "v": 87
    },
    {
      "midi": 88,
      "hit": false,
      "t": 154869.7916666666,
      "d": 27.343750000029104,
      "v": 103
    },
    {
      "midi": 89,
      "hit": false,
      "t": 154895.83333333328,
      "d": 26.04166666668607,
      "v": 105
    },
    {
      "midi": 91,
      "hit": false,
      "t": 154924.47916666663,
      "d": 24.739583333343035,
      "v": 105
    },
    {
      "midi": 93,
      "hit": false,
      "t": 154954.4270833333,
      "d": 29.947916666656965,
      "v": 107
    },
    {
      "midi": 95,
      "hit": false,
      "t": 154994.79166666663,
      "d": 27.34375,
      "v": 85
    },
    {
      "midi": 96,
      "hit": false,
      "t": 155032.55208333328,
      "d": 32.552083333343035,
      "v": 100
    },
    {
      "midi": 98,
      "hit": false,
      "t": 155072.91666666663,
      "d": 31.25,
      "v": 89
    },
    {
      "midi": 100,
      "hit": false,
      "t": 155117.18749999997,
      "d": 62.5,
      "v": 42
    },
    {
      "midi": 31,
      "hit": false,
      "t": 155140.62499999997,
      "d": 109.375,
      "v": 119
    },
    {
      "midi": 101,
      "hit": false,
      "t": 155144.53124999997,
      "d": 49.47916666668607,
      "v": 49
    },
    {
      "midi": 103,
      "hit": false,
      "t": 155184.8958333333,
      "d": 62.5,
      "v": 85
    },
    {
      "midi": 79,
      "hit": false,
      "t": 155833.3333333333,
      "d": 26.04166666668607,
      "v": 112
    },
    {
      "midi": 72,
      "hit": false,
      "t": 155833.3333333333,
      "d": 33.85416666668607,
      "v": 110
    },
    {
      "midi": 76,
      "hit": false,
      "t": 155842.44791666666,
      "d": 29.94791666668607,
      "v": 98
    },
    {
      "midi": 79,
      "hit": false,
      "t": 155942.70833333334,
      "d": 46.875,
      "v": 100
    },
    {
      "midi": 72,
      "hit": false,
      "t": 155942.70833333334,
      "d": 65.10416666665697,
      "v": 103
    },
    {
      "midi": 76,
      "hit": false,
      "t": 155947.9166666667,
      "d": 35.15625,
      "v": 85
    },
    {
      "midi": 79,
      "hit": false,
      "t": 156059.89583333334,
      "d": 132.8124999999709,
      "v": 117
    },
    {
      "midi": 72,
      "hit": false,
      "t": 156062.5,
      "d": 122.39583333331393,
      "v": 123
    },
    {
      "midi": 36,
      "hit": false,
      "t": 156065.10416666666,
      "d": 484.375,
      "v": 121
    },
    {
      "midi": 76,
      "hit": false,
      "t": 156067.7083333333,
      "d": 122.39583333334303,
      "v": 100
    },
    {
      "midi": 67,
      "hit": false,
      "t": 156502.60416666666,
      "d": 87.23958333334303,
      "v": 111
    },
    {
      "midi": 69,
      "hit": false,
      "t": 156554.6875,
      "d": 72.91666666668607,
      "v": 63
    },
    {
      "midi": 71,
      "hit": false,
      "t": 156622.39583333334,
      "d": 27.34375,
      "v": 87
    },
    {
      "midi": 72,
      "hit": false,
      "t": 156666.6666666667,
      "d": 31.25,
      "v": 100
    },
    {
      "midi": 74,
      "hit": false,
      "t": 156708.33333333334,
      "d": 24.739583333343035,
      "v": 102
    },
    {
      "midi": 76,
      "hit": false,
      "t": 156747.39583333334,
      "d": 24.739583333343035,
      "v": 107
    },
    {
      "midi": 77,
      "hit": false,
      "t": 156782.55208333334,
      "d": 24.739583333343035,
      "v": 106
    },
    {
      "midi": 79,
      "hit": false,
      "t": 156820.31250000003,
      "d": 27.34375,
      "v": 100
    },
    {
      "midi": 81,
      "hit": false,
      "t": 156858.0729166667,
      "d": 27.34375,
      "v": 101
    },
    {
      "midi": 83,
      "hit": false,
      "t": 156899.73958333334,
      "d": 24.739583333343035,
      "v": 86
    },
    {
      "midi": 84,
      "hit": false,
      "t": 156934.89583333334,
      "d": 24.739583333343035,
      "v": 105
    },
    {
      "midi": 86,
      "hit": false,
      "t": 156973.95833333334,
      "d": 26.041666666656965,
      "v": 101
    },
    {
      "midi": 88,
      "hit": false,
      "t": 157016.92708333334,
      "d": 37.760416666656965,
      "v": 79
    },
    {
      "midi": 89,
      "hit": false,
      "t": 157052.08333333334,
      "d": 26.041666666656965,
      "v": 101
    },
    {
      "midi": 91,
      "hit": false,
      "t": 157072.91666666666,
      "d": 104.16666666668607,
      "v": 120
    },
    {
      "midi": 31,
      "hit": false,
      "t": 157095.05208333334,
      "d": 108.07291666665697,
      "v": 121
    },
    {
      "midi": 78,
      "hit": false,
      "t": 157399.73958333334,
      "d": 110.67708333334303,
      "v": 25
    },
    {
      "midi": 72,
      "hit": false,
      "t": 157752.6041666667,
      "d": 32.552083333343035,
      "v": 110
    },
    {
      "midi": 79,
      "hit": false,
      "t": 157752.6041666667,
      "d": 39.062500000029104,
      "v": 101
    },
    {
      "midi": 76,
      "hit": false,
      "t": 157757.81250000003,
      "d": 28.645833333343035,
      "v": 101
    },
    {
      "midi": 77,
      "hit": false,
      "t": 157786.45833333337,
      "d": 55.989583333343035,
      "v": 56
    },
    {
      "midi": 79,
      "hit": false,
      "t": 157852.86458333337,
      "d": 71.61458333334303,
      "v": 105
    },
    {
      "midi": 72,
      "hit": false,
      "t": 157854.16666666672,
      "d": 83.33333333334303,
      "v": 100
    },
    {
      "midi": 76,
      "hit": false,
      "t": 157859.37500000006,
      "d": 42.96875,
      "v": 87
    },
    {
      "midi": 79,
      "hit": false,
      "t": 157992.18750000006,
      "d": 195.3125,
      "v": 114
    },
    {
      "midi": 72,
      "hit": false,
      "t": 157994.79166666672,
      "d": 147.13541666668607,
      "v": 121
    },
    {
      "midi": 76,
      "hit": false,
      "t": 158000.00000000006,
      "d": 165.36458333334303,
      "v": 109
    },
    {
      "midi": 36,
      "hit": false,
      "t": 158007.81250000006,
      "d": 462.23958333334303,
      "v": 121
    },
    {
      "midi": 79,
      "hit": false,
      "t": 158429.68750000006,
      "d": 91.14583333337214,
      "v": 118
    },
    {
      "midi": 81,
      "hit": false,
      "t": 158483.07291666674,
      "d": 32.552083333343035,
      "v": 87
    },
    {
      "midi": 83,
      "hit": false,
      "t": 158532.55208333343,
      "d": 24.739583333343035,
      "v": 92
    },
    {
      "midi": 84,
      "hit": false,
      "t": 158578.12500000012,
      "d": 24.739583333343035,
      "v": 95
    },
    {
      "midi": 86,
      "hit": false,
      "t": 158617.18750000012,
      "d": 28.645833333343035,
      "v": 95
    },
    {
      "midi": 88,
      "hit": false,
      "t": 158666.6666666668,
      "d": 31.25,
      "v": 90
    },
    {
      "midi": 89,
      "hit": false,
      "t": 158708.33333333346,
      "d": 24.739583333343035,
      "v": 101
    },
    {
      "midi": 91,
      "hit": false,
      "t": 158755.20833333346,
      "d": 27.34375,
      "v": 93
    },
    {
      "midi": 93,
      "hit": false,
      "t": 158791.6666666668,
      "d": 26.041666666656965,
      "v": 103
    },
    {
      "midi": 95,
      "hit": false,
      "t": 158834.6354166668,
      "d": 27.34375,
      "v": 84
    },
    {
      "midi": 96,
      "hit": false,
      "t": 158875.00000000015,
      "d": 29.947916666656965,
      "v": 100
    },
    {
      "midi": 98,
      "hit": false,
      "t": 158920.5729166668,
      "d": 32.552083333343035,
      "v": 85
    },
    {
      "midi": 100,
      "hit": false,
      "t": 158966.1458333335,
      "d": 39.0625,
      "v": 85
    },
    {
      "midi": 101,
      "hit": false,
      "t": 159014.32291666683,
      "d": 32.552083333343035,
      "v": 85
    },
    {
      "midi": 103,
      "hit": false,
      "t": 159055.98958333352,
      "d": 201.82291666665697,
      "v": 111
    },
    {
      "midi": 24,
      "hit": false,
      "t": 159059.89583333352,
      "d": 407.55208333331393,
      "v": 124
    },
    {
      "midi": 25,
      "hit": false,
      "t": 159111.97916666686,
      "d": 45.572916666656965,
      "v": 67
    },
    {
      "midi": 72,
      "hit": false,
      "t": 160108.07291666683,
      "d": 53.385416666656965,
      "v": 108
    },
    {
      "midi": 79,
      "hit": false,
      "t": 160108.07291666683,
      "d": 100.26041666665697,
      "v": 115
    },
    {
      "midi": 76,
      "hit": false,
      "t": 160111.97916666683,
      "d": 33.854166666656965,
      "v": 107
    },
    {
      "midi": 79,
      "hit": false,
      "t": 160282.5520833335,
      "d": 75.52083333334303,
      "v": 110
    },
    {
      "midi": 76,
      "hit": false,
      "t": 160295.57291666683,
      "d": 33.854166666656965,
      "v": 108
    },
    {
      "midi": 72,
      "hit": false,
      "t": 160295.57291666683,
      "d": 41.666666666656965,
      "v": 106
    },
    {
      "midi": 79,
      "hit": false,
      "t": 160449.21875000017,
      "d": 2898.4375,
      "v": 113
    },
    {
      "midi": 36,
      "hit": false,
      "t": 160458.33333333352,
      "d": 2841.145833333343,
      "v": 119
    },
    {
      "midi": 72,
      "hit": false,
      "t": 160459.63541666686,
      "d": 2805.989583333343,
      "v": 118
    },
    {
      "midi": 76,
      "hit": false,
      "t": 160459.63541666686,
      "d": 2885.416666666657,
      "v": 122
    }
  ]
}