{
  "jsonPath": "Pop/Bubblegum Pop/Davy Jones/daydream-believer-1994-video-soundtrack.json",
  "path": "Pop\\Bubblegum Pop\\Davy Jones\\Daydream Believer (1994 Video Soundtrack).mid",
  "name": "Daydream Believer (1994 Video Soundtrack)",
  "difficulty": "Advanced",
  "bpm": 125,
  "notes": [
    {
      "midi": 74,
      "hit": false,
      "t": 1920,
      "d": 330,
      "v": 98
    },
    {
      "midi": 71,
      "hit": false,
      "t": 1925,
      "d": 305,
      "v": 105
    },
    {
      "midi": 67,
      "hit": false,
      "t": 2230,
      "d": 135,
      "v": 94
    },
    {
      "midi": 71,
      "hit": false,
      "t": 2405,
      "d": 290,
      "v": 103
    },
    {
      "midi": 74,
      "hit": false,
      "t": 2405,
      "d": 305,
      "v": 98
    },
    {
      "midi": 67,
      "hit": false,
      "t": 2715,
      "d": 105,
      "v": 93
    },
    {
      "midi": 71,
      "hit": false,
      "t": 2875,
      "d": 315,
      "v": 102
    },
    {
      "midi": 74,
      "hit": false,
      "t": 2875,
      "d": 320,
      "v": 96
    },
    {
      "midi": 67,
      "hit": false,
      "t": 3195,
      "d": 110,
      "v": 89
    },
    {
      "midi": 71,
      "hit": false,
      "t": 3345,
      "d": 355,
      "v": 102
    },
    {
      "midi": 74,
      "hit": false,
      "t": 3365,
      "d": 340,
      "v": 97
    },
    {
      "midi": 67,
      "hit": false,
      "t": 3655,
      "d": 210,
      "v": 92
    },
    {
      "midi": 69,
      "hit": false,
      "t": 3825,
      "d": 290,
      "v": 98
    },
    {
      "midi": 74,
      "hit": false,
      "t": 3825,
      "d": 330,
      "v": 96
    },
    {
      "midi": 72,
      "hit": false,
      "t": 3830,
      "d": 325,
      "v": 99
    },
    {
      "midi": 67,
      "hit": false,
      "t": 4130,
      "d": 150,
      "v": 94
    },
    {
      "midi": 69,
      "hit": false,
      "t": 4300,
      "d": 310,
      "v": 96
    },
    {
      "midi": 72,
      "hit": false,
      "t": 4300,
      "d": 315,
      "v": 100
    },
    {
      "midi": 74,
      "hit": false,
      "t": 4325,
      "d": 290,
      "v": 96
    },
    {
      "midi": 67,
      "hit": false,
      "t": 4610,
      "d": 130,
      "v": 92
    },
    {
      "midi": 69,
      "hit": false,
      "t": 4780,
      "d": 310,
      "v": 97
    },
    {
      "midi": 72,
      "hit": false,
      "t": 4780,
      "d": 330,
      "v": 102
    },
    {
      "midi": 74,
      "hit": false,
      "t": 4785,
      "d": 330,
      "v": 96
    },
    {
      "midi": 67,
      "hit": false,
      "t": 5090,
      "d": 125,
      "v": 92
    },
    {
      "midi": 69,
      "hit": false,
      "t": 5270,
      "d": 355,
      "v": 99
    },
    {
      "midi": 72,
      "hit": false,
      "t": 5270,
      "d": 380,
      "v": 102
    },
    {
      "midi": 74,
      "hit": false,
      "t": 5300,
      "d": 350,
      "v": 97
    },
    {
      "midi": 67,
      "hit": false,
      "t": 5580,
      "d": 170,
      "v": 92
    },
    {
      "midi": 71,
      "hit": false,
      "t": 5755,
      "d": 340,
      "v": 105
    },
    {
      "midi": 74,
      "hit": false,
      "t": 5760,
      "d": 350,
      "v": 99
    },
    {
      "midi": 67,
      "hit": false,
      "t": 6060,
      "d": 115,
      "v": 93
    },
    {
      "midi": 71,
      "hit": false,
      "t": 6235,
      "d": 335,
      "v": 102
    },
    {
      "midi": 74,
      "hit": false,
      "t": 6235,
      "d": 355,
      "v": 96
    },
    {
      "midi": 67,
      "hit": false,
      "t": 6550,
      "d": 110,
      "v": 91
    },
    {
      "midi": 71,
      "hit": false,
      "t": 6725,
      "d": 340,
      "v": 102
    },
    {
      "midi": 74,
      "hit": false,
      "t": 6730,
      "d": 335,
      "v": 96
    },
    {
      "midi": 67,
      "hit": false,
      "t": 7045,
      "d": 100,
      "v": 92
    },
    {
      "midi": 71,
      "hit": false,
      "t": 7200,
      "d": 385,
      "v": 102
    },
    {
      "midi": 74,
      "hit": false,
      "t": 7200,
      "d": 400,
      "v": 96
    },
    {
      "midi": 67,
      "hit": false,
      "t": 7505,
      "d": 220,
      "v": 96
    },
    {
      "midi": 69,
      "hit": false,
      "t": 7690,
      "d": 335,
      "v": 96
    },
    {
      "midi": 72,
      "hit": false,
      "t": 7695,
      "d": 330,
      "v": 100
    },
    {
      "midi": 74,
      "hit": false,
      "t": 7695,
      "d": 335,
      "v": 98
    },
    {
      "midi": 67,
      "hit": false,
      "t": 8005,
      "d": 110,
      "v": 93
    },
    {
      "midi": 69,
      "hit": false,
      "t": 8160,
      "d": 315,
      "v": 95
    },
    {
      "midi": 72,
      "hit": false,
      "t": 8160,
      "d": 340,
      "v": 97
    },
    {
      "midi": 74,
      "hit": false,
      "t": 8160,
      "d": 340,
      "v": 94
    },
    {
      "midi": 67,
      "hit": false,
      "t": 8455,
      "d": 115,
      "v": 92
    },
    {
      "midi": 69,
      "hit": false,
      "t": 8635,
      "d": 315,
      "v": 96
    },
    {
      "midi": 72,
      "hit": false,
      "t": 8640,
      "d": 330,
      "v": 100
    },
    {
      "midi": 74,
      "hit": false,
      "t": 8640,
      "d": 330,
      "v": 96
    },
    {
      "midi": 67,
      "hit": false,
      "t": 8945,
      "d": 115,
      "v": 95
    },
    {
      "midi": 69,
      "hit": false,
      "t": 9100,
      "d": 345,
      "v": 96
    },
    {
      "midi": 72,
      "hit": false,
      "t": 9125,
      "d": 325,
      "v": 99
    },
    {
      "midi": 74,
      "hit": false,
      "t": 9125,
      "d": 325,
      "v": 95
    },
    {
      "midi": 67,
      "hit": false,
      "t": 9425,
      "d": 90,
      "v": 98
    },
    {
      "midi": 71,
      "hit": false,
      "t": 9600,
      "d": 305,
      "v": 99
    },
    {
      "midi": 74,
      "hit": false,
      "t": 9600,
      "d": 310,
      "v": 95
    },
    {
      "midi": 67,
      "hit": false,
      "t": 9925,
      "d": 115,
      "v": 91
    },
    {
      "midi": 71,
      "hit": false,
      "t": 10085,
      "d": 300,
      "v": 98
    },
    {
      "midi": 74,
      "hit": false,
      "t": 10085,
      "d": 305,
      "v": 93
    },
    {
      "midi": 67,
      "hit": false,
      "t": 10395,
      "d": 145,
      "v": 91
    },
    {
      "midi": 74,
      "hit": false,
      "t": 10555,
      "d": 295,
      "v": 95
    },
    {
      "midi": 71,
      "hit": false,
      "t": 10560,
      "d": 275,
      "v": 99
    },
    {
      "midi": 67,
      "hit": false,
      "t": 10855,
      "d": 135,
      "v": 90
    },
    {
      "midi": 71,
      "hit": false,
      "t": 11020,
      "d": 335,
      "v": 100
    },
    {
      "midi": 74,
      "hit": false,
      "t": 11020,
      "d": 335,
      "v": 96
    },
    {
      "midi": 67,
      "hit": false,
      "t": 11315,
      "d": 250,
      "v": 93
    },
    {
      "midi": 69,
      "hit": false,
      "t": 11485,
      "d": 305,
      "v": 96
    },
    {
      "midi": 72,
      "hit": false,
      "t": 11490,
      "d": 320,
      "v": 99
    },
    {
      "midi": 74,
      "hit": false,
      "t": 11490,
      "d": 320,
      "v": 97
    },
    {
      "midi": 67,
      "hit": false,
      "t": 11790,
      "d": 165,
      "v": 91
    },
    {
      "midi": 69,
      "hit": false,
      "t": 11970,
      "d": 310,
      "v": 94
    },
    {
      "midi": 72,
      "hit": false,
      "t": 11970,
      "d": 330,
      "v": 100
    },
    {
      "midi": 74,
      "hit": false,
      "t": 11970,
      "d": 335,
      "v": 95
    },
    {
      "midi": 67,
      "hit": false,
      "t": 12280,
      "d": 150,
      "v": 93
    },
    {
      "midi": 69,
      "hit": false,
      "t": 12445,
      "d": 310,
      "v": 94
    },
    {
      "midi": 72,
      "hit": false,
      "t": 12450,
      "d": 310,
      "v": 102
    },
    {
      "midi": 74,
      "hit": false,
      "t": 12450,
      "d": 325,
      "v": 94
    },
    {
      "midi": 67,
      "hit": false,
      "t": 12780,
      "d": 140,
      "v": 92
    },
    {
      "midi": 69,
      "hit": false,
      "t": 12935,
      "d": 335,
      "v": 95
    },
    {
      "midi": 72,
      "hit": false,
      "t": 12940,
      "d": 330,
      "v": 105
    },
    {
      "midi": 74,
      "hit": false,
      "t": 12940,
      "d": 335,
      "v": 94
    },
    {
      "midi": 67,
      "hit": false,
      "t": 13250,
      "d": 225,
      "v": 94
    },
    {
      "midi": 71,
      "hit": false,
      "t": 13425,
      "d": 335,
      "v": 103
    },
    {
      "midi": 74,
      "hit": false,
      "t": 13425,
      "d": 335,
      "v": 97
    },
    {
      "midi": 66,
      "hit": false,
      "t": 13740,
      "d": 110,
      "v": 95
    },
    {
      "midi": 71,
      "hit": false,
      "t": 13905,
      "d": 325,
      "v": 99
    },
    {
      "midi": 74,
      "hit": false,
      "t": 13905,
      "d": 325,
      "v": 94
    },
    {
      "midi": 66,
      "hit": false,
      "t": 14205,
      "d": 125,
      "v": 95
    },
    {
      "midi": 71,
      "hit": false,
      "t": 14375,
      "d": 305,
      "v": 99
    },
    {
      "midi": 74,
      "hit": false,
      "t": 14375,
      "d": 310,
      "v": 95
    },
    {
      "midi": 66,
      "hit": false,
      "t": 14690,
      "d": 120,
      "v": 94
    },
    {
      "midi": 71,
      "hit": false,
      "t": 14850,
      "d": 350,
      "v": 99
    },
    {
      "midi": 74,
      "hit": false,
      "t": 14850,
      "d": 350,
      "v": 96
    },
    {
      "midi": 66,
      "hit": false,
      "t": 15160,
      "d": 235,
      "v": 97
    },
    {
      "midi": 72,
      "hit": false,
      "t": 15345,
      "d": 335,
      "v": 100
    },
    {
      "midi": 76,
      "hit": false,
      "t": 15345,
      "d": 335,
      "v": 96
    },
    {
      "midi": 67,
      "hit": false,
      "t": 15660,
      "d": 110,
      "v": 93
    },
    {
      "midi": 76,
      "hit": false,
      "t": 15825,
      "d": 330,
      "v": 93
    },
    {
      "midi": 72,
      "hit": false,
      "t": 15825,
      "d": 335,
      "v": 102
    },
    {
      "midi": 67,
      "hit": false,
      "t": 16155,
      "d": 100,
      "v": 92
    },
    {
      "midi": 76,
      "hit": false,
      "t": 16310,
      "d": 320,
      "v": 94
    },
    {
      "midi": 72,
      "hit": false,
      "t": 16330,
      "d": 285,
      "v": 102
    },
    {
      "midi": 67,
      "hit": false,
      "t": 16635,
      "d": 105,
      "v": 93
    },
    {
      "midi": 72,
      "hit": false,
      "t": 16795,
      "d": 335,
      "v": 103
    },
    {
      "midi": 76,
      "hit": false,
      "t": 16795,
      "d": 335,
      "v": 94
    },
    {
      "midi": 67,
      "hit": false,
      "t": 17090,
      "d": 185,
      "v": 95
    },
    {
      "midi": 71,
      "hit": false,
      "t": 17280,
      "d": 295,
      "v": 103
    },
    {
      "midi": 74,
      "hit": false,
      "t": 17280,
      "d": 315,
      "v": 97
    },
    {
      "midi": 67,
      "hit": false,
      "t": 17575,
      "d": 135,
      "v": 91
    },
    {
      "midi": 71,
      "hit": false,
      "t": 17750,
      "d": 290,
      "v": 102
    },
    {
      "midi": 74,
      "hit": false,
      "t": 17750,
      "d": 300,
      "v": 99
    },
    {
      "midi": 67,
      "hit": false,
      "t": 18070,
      "d": 120,
      "v": 92
    },
    {
      "midi": 74,
      "hit": false,
      "t": 18230,
      "d": 295,
      "v": 98
    },
    {
      "midi": 71,
      "hit": false,
      "t": 18235,
      "d": 265,
      "v": 103
    },
    {
      "midi": 67,
      "hit": false,
      "t": 18540,
      "d": 125,
      "v": 90
    },
    {
      "midi": 71,
      "hit": false,
      "t": 18720,
      "d": 305,
      "v": 103
    },
    {
      "midi": 74,
      "hit": false,
      "t": 18720,
      "d": 330,
      "v": 98
    },
    {
      "midi": 67,
      "hit": false,
      "t": 19025,
      "d": 200,
      "v": 95
    },
    {
      "midi": 71,
      "hit": false,
      "t": 19195,
      "d": 330,
      "v": 103
    },
    {
      "midi": 76,
      "hit": false,
      "t": 19195,
      "d": 330,
      "v": 98
    },
    {
      "midi": 67,
      "hit": false,
      "t": 19490,
      "d": 130,
      "v": 91
    },
    {
      "midi": 76,
      "hit": false,
      "t": 19675,
      "d": 325,
      "v": 94
    },
    {
      "midi": 71,
      "hit": false,
      "t": 19680,
      "d": 320,
      "v": 100
    },
    {
      "midi": 67,
      "hit": false,
      "t": 19980,
      "d": 135,
      "v": 92
    },
    {
      "midi": 76,
      "hit": false,
      "t": 20145,
      "d": 330,
      "v": 95
    },
    {
      "midi": 71,
      "hit": false,
      "t": 20145,
      "d": 335,
      "v": 103
    },
    {
      "midi": 67,
      "hit": false,
      "t": 20475,
      "d": 110,
      "v": 89
    },
    {
      "midi": 71,
      "hit": false,
      "t": 20640,
      "d": 350,
      "v": 103
    },
    {
      "midi": 76,
      "hit": false,
      "t": 20645,
      "d": 345,
      "v": 95
    },
    {
      "midi": 67,
      "hit": false,
      "t": 20945,
      "d": 185,
      "v": 96
    },
    {
      "midi": 69,
      "hit": false,
      "t": 21120,
      "d": 325,
      "v": 96
    },
    {
      "midi": 73,
      "hit": false,
      "t": 21120,
      "d": 350,
      "v": 102
    },
    {
      "midi": 76,
      "hit": false,
      "t": 21125,
      "d": 340,
      "v": 96
    },
    {
      "midi": 67,
      "hit": false,
      "t": 21425,
      "d": 140,
      "v": 93
    },
    {
      "midi": 69,
      "hit": false,
      "t": 21605,
      "d": 295,
      "v": 94
    },
    {
      "midi": 73,
      "hit": false,
      "t": 21605,
      "d": 300,
      "v": 102
    },
    {
      "midi": 76,
      "hit": false,
      "t": 21610,
      "d": 295,
      "v": 95
    },
    {
      "midi": 67,
      "hit": false,
      "t": 21910,
      "d": 120,
      "v": 92
    },
    {
      "midi": 69,
      "hit": false,
      "t": 22085,
      "d": 315,
      "v": 96
    },
    {
      "midi": 76,
      "hit": false,
      "t": 22085,
      "d": 320,
      "v": 95
    },
    {
      "midi": 73,
      "hit": false,
      "t": 22090,
      "d": 315,
      "v": 102
    },
    {
      "midi": 67,
      "hit": false,
      "t": 22380,
      "d": 140,
      "v": 91
    },
    {
      "midi": 69,
      "hit": false,
      "t": 22560,
      "d": 325,
      "v": 97
    },
    {
      "midi": 73,
      "hit": false,
      "t": 22565,
      "d": 320,
      "v": 104
    },
    {
      "midi": 76,
      "hit": false,
      "t": 22565,
      "d": 345,
      "v": 96
    },
    {
      "midi": 67,
      "hit": false,
      "t": 22860,
      "d": 200,
      "v": 92
    },
    {
      "midi": 72,
      "hit": false,
      "t": 23035,
      "d": 355,
      "v": 110
    },
    {
      "midi": 74,
      "hit": false,
      "t": 23035,
      "d": 370,
      "v": 99
    },
    {
      "midi": 69,
      "hit": false,
      "t": 23340,
      "d": 120,
      "v": 95
    },
    {
      "midi": 72,
      "hit": false,
      "t": 23530,
      "d": 360,
      "v": 96
    },
    {
      "midi": 74,
      "hit": false,
      "t": 23530,
      "d": 360,
      "v": 93
    },
    {
      "midi": 69,
      "hit": false,
      "t": 23835,
      "d": 165,
      "v": 105
    },
    {
      "midi": 74,
      "hit": false,
      "t": 24005,
      "d": 360,
      "v": 97
    },
    {
      "midi": 72,
      "hit": false,
      "t": 24010,
      "d": 340,
      "v": 102
    },
    {
      "midi": 72,
      "hit": false,
      "t": 24495,
      "d": 310,
      "v": 107
    },
    {
      "midi": 74,
      "hit": false,
      "t": 24500,
      "d": 320,
      "v": 99
    },
    {
      "midi": 71,
      "hit": false,
      "t": 24960,
      "d": 280,
      "v": 100
    },
    {
      "midi": 74,
      "hit": false,
      "t": 24960,
      "d": 280,
      "v": 95
    },
    {
      "midi": 67,
      "hit": false,
      "t": 25260,
      "d": 100,
      "v": 91
    },
    {
      "midi": 71,
      "hit": false,
      "t": 25430,
      "d": 275,
      "v": 103
    },
    {
      "midi": 74,
      "hit": false,
      "t": 25430,
      "d": 290,
      "v": 98
    },
    {
      "midi": 67,
      "hit": false,
      "t": 25740,
      "d": 110,
      "v": 90
    },
    {
      "midi": 71,
      "hit": false,
      "t": 25905,
      "d": 280,
      "v": 100
    },
    {
      "midi": 74,
      "hit": false,
      "t": 25905,
      "d": 295,
      "v": 96
    },
    {
      "midi": 67,
      "hit": false,
      "t": 26230,
      "d": 110,
      "v": 90
    },
    {
      "midi": 71,
      "hit": false,
      "t": 26380,
      "d": 360,
      "v": 100
    },
    {
      "midi": 74,
      "hit": false,
      "t": 26380,
      "d": 375,
      "v": 96
    },
    {
      "midi": 67,
      "hit": false,
      "t": 26700,
      "d": 210,
      "v": 92
    },
    {
      "midi": 69,
      "hit": false,
      "t": 26870,
      "d": 330,
      "v": 96
    },
    {
      "midi": 72,
      "hit": false,
      "t": 26870,
      "d": 335,
      "v": 99
    },
    {
      "midi": 74,
      "hit": false,
      "t": 26875,
      "d": 330,
      "v": 98
    },
    {
      "midi": 67,
      "hit": false,
      "t": 27180,
      "d": 125,
      "v": 92
    },
    {
      "midi": 69,
      "hit": false,
      "t": 27335,
      "d": 295,
      "v": 96
    },
    {
      "midi": 72,
      "hit": false,
      "t": 27335,
      "d": 310,
      "v": 99
    },
    {
      "midi": 74,
      "hit": false,
      "t": 27360,
      "d": 290,
      "v": 96
    },
    {
      "midi": 67,
      "hit": false,
      "t": 27645,
      "d": 140,
      "v": 90
    },
    {
      "midi": 69,
      "hit": false,
      "t": 27825,
      "d": 300,
      "v": 96
    },
    {
      "midi": 72,
      "hit": false,
      "t": 27830,
      "d": 310,
      "v": 100
    },
    {
      "midi": 74,
      "hit": false,
      "t": 27830,
      "d": 315,
      "v": 96
    },
    {
      "midi": 67,
      "hit": false,
      "t": 28160,
      "d": 120,
      "v": 90
    },
    {
      "midi": 69,
      "hit": false,
      "t": 28320,
      "d": 300,
      "v": 99
    },
    {
      "midi": 72,
      "hit": false,
      "t": 28325,
      "d": 320,
      "v": 105
    },
    {
      "midi": 74,
      "hit": false,
      "t": 28330,
      "d": 320,
      "v": 98
    },
    {
      "midi": 67,
      "hit": false,
      "t": 28625,
      "d": 165,
      "v": 92
    },
    {
      "midi": 71,
      "hit": false,
      "t": 28795,
      "d": 355,
      "v": 103
    },
    {
      "midi": 74,
      "hit": false,
      "t": 28795,
      "d": 375,
      "v": 100
    },
    {
      "midi": 66,
      "hit": false,
      "t": 29115,
      "d": 95,
      "v": 96
    },
    {
      "midi": 71,
      "hit": false,
      "t": 29280,
      "d": 290,
      "v": 98
    },
    {
      "midi": 74,
      "hit": false,
      "t": 29280,
      "d": 310,
      "v": 95
    },
    {
      "midi": 66,
      "hit": false,
      "t": 29585,
      "d": 125,
      "v": 96
    },
    {
      "midi": 71,
      "hit": false,
      "t": 29755,
      "d": 290,
      "v": 100
    },
    {
      "midi": 74,
      "hit": false,
      "t": 29755,
      "d": 310,
      "v": 96
    },
    {
      "midi": 66,
      "hit": false,
      "t": 30065,
      "d": 105,
      "v": 92
    },
    {
      "midi": 74,
      "hit": false,
      "t": 30225,
      "d": 365,
      "v": 97
    },
    {
      "midi": 71,
      "hit": false,
      "t": 30230,
      "d": 320,
      "v": 102
    },
    {
      "midi": 66,
      "hit": false,
      "t": 30550,
      "d": 135,
      "v": 93
    },
    {
      "midi": 76,
      "hit": false,
      "t": 30715,
      "d": 350,
      "v": 97
    },
    {
      "midi": 72,
      "hit": false,
      "t": 30715,
      "d": 355,
      "v": 102
    },
    {
      "midi": 67,
      "hit": false,
      "t": 31015,
      "d": 110,
      "v": 96
    },
    {
      "midi": 76,
      "hit": false,
      "t": 31190,
      "d": 335,
      "v": 94
    },
    {
      "midi": 72,
      "hit": false,
      "t": 31195,
      "d": 325,
      "v": 99
    },
    {
      "midi": 67,
      "hit": false,
      "t": 31525,
      "d": 110,
      "v": 92
    },
    {
      "midi": 76,
      "hit": false,
      "t": 31675,
      "d": 320,
      "v": 93
    },
    {
      "midi": 72,
      "hit": false,
      "t": 31680,
      "d": 315,
      "v": 99
    },
    {
      "midi": 67,
      "hit": false,
      "t": 32000,
      "d": 110,
      "v": 93
    },
    {
      "midi": 72,
      "hit": false,
      "t": 32150,
      "d": 360,
      "v": 102
    },
    {
      "midi": 76,
      "hit": false,
      "t": 32150,
      "d": 365,
      "v": 94
    },
    {
      "midi": 67,
      "hit": false,
      "t": 32455,
      "d": 185,
      "v": 97
    },
    {
      "midi": 71,
      "hit": false,
      "t": 32635,
      "d": 330,
      "v": 105
    },
    {
      "midi": 74,
      "hit": false,
      "t": 32635,
      "d": 350,
      "v": 99
    },
    {
      "midi": 67,
      "hit": false,
      "t": 32945,
      "d": 100,
      "v": 94
    },
    {
      "midi": 71,
      "hit": false,
      "t": 33120,
      "d": 310,
      "v": 102
    },
    {
      "midi": 74,
      "hit": false,
      "t": 33125,
      "d": 325,
      "v": 98
    },
    {
      "midi": 67,
      "hit": false,
      "t": 33425,
      "d": 155,
      "v": 92
    },
    {
      "midi": 71,
      "hit": false,
      "t": 33595,
      "d": 320,
      "v": 107
    },
    {
      "midi": 74,
      "hit": false,
      "t": 33595,
      "d": 340,
      "v": 102
    },
    {
      "midi": 67,
      "hit": false,
      "t": 33895,
      "d": 100,
      "v": 92
    },
    {
      "midi": 71,
      "hit": false,
      "t": 34060,
      "d": 325,
      "v": 100
    },
    {
      "midi": 74,
      "hit": false,
      "t": 34060,
      "d": 345,
      "v": 96
    },
    {
      "midi": 67,
      "hit": false,
      "t": 34380,
      "d": 155,
      "v": 96
    },
    {
      "midi": 76,
      "hit": false,
      "t": 34540,
      "d": 350,
      "v": 97
    },
    {
      "midi": 72,
      "hit": false,
      "t": 34540,
      "d": 355,
      "v": 102
    },
    {
      "midi": 67,
      "hit": false,
      "t": 34855,
      "d": 120,
      "v": 92
    },
    {
      "midi": 72,
      "hit": false,
      "t": 35040,
      "d": 280,
      "v": 103
    },
    {
      "midi": 76,
      "hit": false,
      "t": 35040,
      "d": 280,
      "v": 96
    },
    {
      "midi": 67,
      "hit": false,
      "t": 35335,
      "d": 95,
      "v": 94
    },
    {
      "midi": 78,
      "hit": false,
      "t": 35500,
      "d": 375,
      "v": 102
    },
    {
      "midi": 69,
      "hit": false,
      "t": 35500,
      "d": 380,
      "v": 98
    },
    {
      "midi": 74,
      "hit": false,
      "t": 35505,
      "d": 375,
      "v": 107
    },
    {
      "midi": 69,
      "hit": false,
      "t": 36000,
      "d": 190,
      "v": 100
    },
    {
      "midi": 78,
      "hit": false,
      "t": 36000,
      "d": 195,
      "v": 104
    },
    {
      "midi": 74,
      "hit": false,
      "t": 36005,
      "d": 185,
      "v": 105
    },
    {
      "midi": 55,
      "hit": false,
      "t": 36945,
      "d": 510,
      "v": 91
    },
    {
      "midi": 43,
      "hit": false,
      "t": 36950,
      "d": 500,
      "v": 91
    },
    {
      "midi": 62,
      "hit": false,
      "t": 36950,
      "d": 535,
      "v": 92
    },
    {
      "midi": 67,
      "hit": false,
      "t": 36955,
      "d": 525,
      "v": 107
    },
    {
      "midi": 71,
      "hit": false,
      "t": 36955,
      "d": 530,
      "v": 103
    },
    {
      "midi": 43,
      "hit": false,
      "t": 37905,
      "d": 490,
      "v": 91
    },
    {
      "midi": 55,
      "hit": false,
      "t": 37905,
      "d": 500,
      "v": 93
    },
    {
      "midi": 62,
      "hit": false,
      "t": 37910,
      "d": 260,
      "v": 96
    },
    {
      "midi": 67,
      "hit": false,
      "t": 37910,
      "d": 275,
      "v": 109
    },
    {
      "midi": 71,
      "hit": false,
      "t": 37910,
      "d": 275,
      "v": 107
    },
    {
      "midi": 67,
      "hit": false,
      "t": 38400,
      "d": 185,
      "v": 109
    },
    {
      "midi": 62,
      "hit": false,
      "t": 38400,
      "d": 190,
      "v": 96
    },
    {
      "midi": 72,
      "hit": false,
      "t": 38400,
      "d": 190,
      "v": 102
    },
    {
      "midi": 43,
      "hit": false,
      "t": 38855,
      "d": 550,
      "v": 92
    },
    {
      "midi": 55,
      "hit": false,
      "t": 38855,
      "d": 565,
      "v": 92
    },
    {
      "midi": 62,
      "hit": false,
      "t": 38860,
      "d": 525,
      "v": 99
    },
    {
      "midi": 67,
      "hit": false,
      "t": 38860,
      "d": 530,
      "v": 110
    },
    {
      "midi": 71,
      "hit": false,
      "t": 38860,
      "d": 545,
      "v": 107
    },
    {
      "midi": 62,
      "hit": false,
      "t": 39810,
      "d": 505,
      "v": 98
    },
    {
      "midi": 43,
      "hit": false,
      "t": 39810,
      "d": 510,
      "v": 93
    },
    {
      "midi": 55,
      "hit": false,
      "t": 39810,
      "d": 530,
      "v": 96
    },
    {
      "midi": 67,
      "hit": false,
      "t": 39815,
      "d": 500,
      "v": 111
    },
    {
      "midi": 71,
      "hit": false,
      "t": 39820,
      "d": 525,
      "v": 110
    },
    {
      "midi": 48,
      "hit": false,
      "t": 40320,
      "d": 215,
      "v": 111
    },
    {
      "midi": 48,
      "hit": false,
      "t": 40630,
      "d": 210,
      "v": 103
    },
    {
      "midi": 60,
      "hit": false,
      "t": 40805,
      "d": 220,
      "v": 100
    },
    {
      "midi": 64,
      "hit": false,
      "t": 40810,
      "d": 220,
      "v": 103
    },
    {
      "midi": 67,
      "hit": false,
      "t": 40815,
      "d": 210,
      "v": 107
    },
    {
      "midi": 64,
      "hit": false,
      "t": 41130,
      "d": 190,
      "v": 105
    },
    {
      "midi": 67,
      "hit": false,
      "t": 41130,
      "d": 190,
      "v": 107
    },
    {
      "midi": 60,
      "hit": false,
      "t": 41135,
      "d": 205,
      "v": 100
    },
    {
      "midi": 50,
      "hit": false,
      "t": 41595,
      "d": 240,
      "v": 105
    },
    {
      "midi": 66,
      "hit": false,
      "t": 41765,
      "d": 290,
      "v": 107
    },
    {
      "midi": 62,
      "hit": false,
      "t": 41765,
      "d": 320,
      "v": 100
    },
    {
      "midi": 69,
      "hit": false,
      "t": 41770,
      "d": 300,
      "v": 109
    },
    {
      "midi": 47,
      "hit": false,
      "t": 42580,
      "d": 200,
      "v": 97
    },
    {
      "midi": 62,
      "hit": false,
      "t": 42740,
      "d": 205,
      "v": 97
    },
    {
      "midi": 66,
      "hit": false,
      "t": 42740,
      "d": 205,
      "v": 104
    },
    {
      "midi": 69,
      "hit": false,
      "t": 42745,
      "d": 185,
      "v": 103
    },
    {
      "midi": 62,
      "hit": false,
      "t": 43035,
      "d": 215,
      "v": 98
    },
    {
      "midi": 66,
      "hit": false,
      "t": 43035,
      "d": 230,
      "v": 109
    },
    {
      "midi": 69,
      "hit": false,
      "t": 43040,
      "d": 225,
      "v": 105
    },
    {
      "midi": 47,
      "hit": false,
      "t": 43510,
      "d": 270,
      "v": 92
    },
    {
      "midi": 78,
      "hit": false,
      "t": 43700,
      "d": 190,
      "v": 102
    },
    {
      "midi": 69,
      "hit": false,
      "t": 43700,
      "d": 195,
      "v": 98
    },
    {
      "midi": 74,
      "hit": false,
      "t": 43705,
      "d": 185,
      "v": 107
    },
    {
      "midi": 74,
      "hit": false,
      "t": 43970,
      "d": 185,
      "v": 107
    },
    {
      "midi": 78,
      "hit": false,
      "t": 43970,
      "d": 190,
      "v": 109
    },
    {
      "midi": 69,
      "hit": false,
      "t": 43970,
      "d": 250,
      "v": 99
    },
    {
      "midi": 48,
      "hit": false,
      "t": 44160,
      "d": 205,
      "v": 98
    },
    {
      "midi": 60,
      "hit": false,
      "t": 44160,
      "d": 205,
      "v": 103
    },
    {
      "midi": 48,
      "hit": false,
      "t": 44465,
      "d": 230,
      "v": 95
    },
    {
      "midi": 60,
      "hit": false,
      "t": 44465,
      "d": 235,
      "v": 95
    },
    {
      "midi": 67,
      "hit": false,
      "t": 44640,
      "d": 215,
      "v": 100
    },
    {
      "midi": 76,
      "hit": false,
      "t": 44645,
      "d": 195,
      "v": 100
    },
    {
      "midi": 72,
      "hit": false,
      "t": 44650,
      "d": 205,
      "v": 103
    },
    {
      "midi": 76,
      "hit": false,
      "t": 44940,
      "d": 210,
      "v": 98
    },
    {
      "midi": 72,
      "hit": false,
      "t": 44945,
      "d": 185,
      "v": 103
    },
    {
      "midi": 67,
      "hit": false,
      "t": 44945,
      "d": 190,
      "v": 99
    },
    {
      "midi": 50,
      "hit": false,
      "t": 45445,
      "d": 310,
      "v": 97
    },
    {
      "midi": 62,
      "hit": false,
      "t": 45445,
      "d": 365,
      "v": 97
    },
    {
      "midi": 78,
      "hit": false,
      "t": 45620,
      "d": 250,
      "v": 107
    },
    {
      "midi": 74,
      "hit": false,
      "t": 45625,
      "d": 230,
      "v": 110
    },
    {
      "midi": 69,
      "hit": false,
      "t": 45625,
      "d": 260,
      "v": 105
    },
    {
      "midi": 52,
      "hit": false,
      "t": 46095,
      "d": 170,
      "v": 96
    },
    {
      "midi": 64,
      "hit": false,
      "t": 46095,
      "d": 200,
      "v": 96
    },
    {
      "midi": 64,
      "hit": false,
      "t": 46390,
      "d": 285,
      "v": 98
    },
    {
      "midi": 52,
      "hit": false,
      "t": 46390,
      "d": 315,
      "v": 96
    },
    {
      "midi": 67,
      "hit": false,
      "t": 46550,
      "d": 200,
      "v": 102
    },
    {
      "midi": 76,
      "hit": false,
      "t": 46555,
      "d": 195,
      "v": 100
    },
    {
      "midi": 71,
      "hit": false,
      "t": 46555,
      "d": 215,
      "v": 105
    },
    {
      "midi": 71,
      "hit": false,
      "t": 46855,
      "d": 215,
      "v": 105
    },
    {
      "midi": 67,
      "hit": false,
      "t": 46855,
      "d": 235,
      "v": 102
    },
    {
      "midi": 76,
      "hit": false,
      "t": 46855,
      "d": 235,
      "v": 96
    },
    {
      "midi": 48,
      "hit": false,
      "t": 47040,
      "d": 225,
      "v": 102
    },
    {
      "midi": 60,
      "hit": false,
      "t": 47045,
      "d": 235,
      "v": 103
    },
    {
      "midi": 48,
      "hit": false,
      "t": 47350,
      "d": 230,
      "v": 93
    },
    {
      "midi": 60,
      "hit": false,
      "t": 47350,
      "d": 250,
      "v": 102
    },
    {
      "midi": 67,
      "hit": false,
      "t": 47525,
      "d": 195,
      "v": 110
    },
    {
      "midi": 76,
      "hit": false,
      "t": 47530,
      "d": 195,
      "v": 103
    },
    {
      "midi": 72,
      "hit": false,
      "t": 47530,
      "d": 210,
      "v": 109
    },
    {
      "midi": 76,
      "hit": false,
      "t": 47825,
      "d": 225,
      "v": 96
    },
    {
      "midi": 72,
      "hit": false,
      "t": 47830,
      "d": 185,
      "v": 109
    },
    {
      "midi": 67,
      "hit": false,
      "t": 47830,
      "d": 205,
      "v": 100
    },
    {
      "midi": 43,
      "hit": false,
      "t": 48000,
      "d": 230,
      "v": 100
    },
    {
      "midi": 55,
      "hit": false,
      "t": 48000,
      "d": 235,
      "v": 103
    },
    {
      "midi": 43,
      "hit": false,
      "t": 48305,
      "d": 205,
      "v": 95
    },
    {
      "midi": 55,
      "hit": false,
      "t": 48310,
      "d": 205,
      "v": 95
    },
    {
      "midi": 71,
      "hit": false,
      "t": 48470,
      "d": 315,
      "v": 102
    },
    {
      "midi": 62,
      "hit": false,
      "t": 48470,
      "d": 330,
      "v": 96
    },
    {
      "midi": 67,
      "hit": false,
      "t": 48470,
      "d": 330,
      "v": 107
    },
    {
      "midi": 67,
      "hit": false,
      "t": 48940,
      "d": 375,
      "v": 109
    },
    {
      "midi": 62,
      "hit": false,
      "t": 48945,
      "d": 350,
      "v": 97
    },
    {
      "midi": 71,
      "hit": false,
      "t": 48965,
      "d": 330,
      "v": 103
    },
    {
      "midi": 62,
      "hit": false,
      "t": 49440,
      "d": 365,
      "v": 98
    },
    {
      "midi": 67,
      "hit": false,
      "t": 49440,
      "d": 365,
      "v": 111
    },
    {
      "midi": 71,
      "hit": false,
      "t": 49445,
      "d": 375,
      "v": 107
    },
    {
      "midi": 55,
      "hit": false,
      "t": 49760,
      "d": 235,
      "v": 95
    },
    {
      "midi": 43,
      "hit": false,
      "t": 49765,
      "d": 215,
      "v": 89
    },
    {
      "midi": 48,
      "hit": false,
      "t": 49935,
      "d": 250,
      "v": 110
    },
    {
      "midi": 48,
      "hit": false,
      "t": 50255,
      "d": 250,
      "v": 97
    },
    {
      "midi": 67,
      "hit": false,
      "t": 50400,
      "d": 330,
      "v": 98
    },
    {
      "midi": 72,
      "hit": false,
      "t": 50405,
      "d": 360,
      "v": 107
    },
    {
      "midi": 76,
      "hit": false,
      "t": 50410,
      "d": 340,
      "v": 98
    },
    {
      "midi": 67,
      "hit": false,
      "t": 50895,
      "d": 330,
      "v": 105
    },
    {
      "midi": 76,
      "hit": false,
      "t": 50900,
      "d": 340,
      "v": 96
    },
    {
      "midi": 72,
      "hit": false,
      "t": 50905,
      "d": 350,
      "v": 109
    },
    {
      "midi": 72,
      "hit": false,
      "t": 51355,
      "d": 345,
      "v": 109
    },
    {
      "midi": 67,
      "hit": false,
      "t": 51360,
      "d": 315,
      "v": 105
    },
    {
      "midi": 76,
      "hit": false,
      "t": 51360,
      "d": 340,
      "v": 99
    },
    {
      "midi": 48,
      "hit": false,
      "t": 51675,
      "d": 230,
      "v": 107
    },
    {
      "midi": 43,
      "hit": false,
      "t": 51840,
      "d": 190,
      "v": 98
    },
    {
      "midi": 55,
      "hit": false,
      "t": 51840,
      "d": 210,
      "v": 100
    },
    {
      "midi": 55,
      "hit": false,
      "t": 52135,
      "d": 260,
      "v": 94
    },
    {
      "midi": 43,
      "hit": false,
      "t": 52135,
      "d": 290,
      "v": 96
    },
    {
      "midi": 67,
      "hit": false,
      "t": 52295,
      "d": 215,
      "v": 105
    },
    {
      "midi": 59,
      "hit": false,
      "t": 52315,
      "d": 210,
      "v": 95
    },
    {
      "midi": 62,
      "hit": false,
      "t": 52320,
      "d": 205,
      "v": 100
    },
    {
      "midi": 67,
      "hit": false,
      "t": 52615,
      "d": 240,
      "v": 102
    },
    {
      "midi": 62,
      "hit": false,
      "t": 52635,
      "d": 200,
      "v": 102
    },
    {
      "midi": 59,
      "hit": false,
      "t": 52635,
      "d": 215,
      "v": 96
    },
    {
      "midi": 52,
      "hit": false,
      "t": 52790,
      "d": 205,
      "v": 97
    },
    {
      "midi": 40,
      "hit": false,
      "t": 52795,
      "d": 200,
      "v": 95
    },
    {
      "midi": 40,
      "hit": false,
      "t": 53105,
      "d": 235,
      "v": 93
    },
    {
      "midi": 52,
      "hit": false,
      "t": 53110,
      "d": 245,
      "v": 99
    },
    {
      "midi": 64,
      "hit": false,
      "t": 53270,
      "d": 225,
      "v": 105
    },
    {
      "midi": 71,
      "hit": false,
      "t": 53270,
      "d": 225,
      "v": 105
    },
    {
      "midi": 67,
      "hit": false,
      "t": 53275,
      "d": 240,
      "v": 111
    },
    {
      "midi": 64,
      "hit": false,
      "t": 53585,
      "d": 200,
      "v": 97
    },
    {
      "midi": 67,
      "hit": false,
      "t": 53590,
      "d": 170,
      "v": 110
    },
    {
      "midi": 71,
      "hit": false,
      "t": 53590,
      "d": 190,
      "v": 102
    },
    {
      "midi": 45,
      "hit": false,
      "t": 53760,
      "d": 760,
      "v": 93
    },
    {
      "midi": 57,
      "hit": false,
      "t": 53760,
      "d": 775,
      "v": 102
    },
    {
      "midi": 69,
      "hit": false,
      "t": 54215,
      "d": 230,
      "v": 97
    },
    {
      "midi": 76,
      "hit": false,
      "t": 54235,
      "d": 195,
      "v": 99
    },
    {
      "midi": 73,
      "hit": false,
      "t": 54240,
      "d": 225,
      "v": 100
    },
    {
      "midi": 73,
      "hit": false,
      "t": 54555,
      "d": 120,
      "v": 99
    },
    {
      "midi": 76,
      "hit": false,
      "t": 54555,
      "d": 120,
      "v": 94
    },
    {
      "midi": 69,
      "hit": false,
      "t": 54560,
      "d": 120,
      "v": 94
    },
    {
      "midi": 57,
      "hit": false,
      "t": 54715,
      "d": 785,
      "v": 95
    },
    {
      "midi": 45,
      "hit": false,
      "t": 54720,
      "d": 845,
      "v": 93
    },
    {
      "midi": 69,
      "hit": false,
      "t": 55015,
      "d": 545,
      "v": 103
    },
    {
      "midi": 73,
      "hit": false,
      "t": 55030,
      "d": 535,
      "v": 107
    },
    {
      "midi": 76,
      "hit": false,
      "t": 55035,
      "d": 470,
      "v": 107
    },
    {
      "midi": 72,
      "hit": false,
      "t": 55680,
      "d": 245,
      "v": 107
    },
    {
      "midi": 69,
      "hit": false,
      "t": 55685,
      "d": 225,
      "v": 98
    },
    {
      "midi": 78,
      "hit": false,
      "t": 55690,
      "d": 215,
      "v": 98
    },
    {
      "midi": 50,
      "hit": false,
      "t": 55695,
      "d": 235,
      "v": 91
    },
    {
      "midi": 38,
      "hit": false,
      "t": 55730,
      "d": 175,
      "v": 92
    },
    {
      "midi": 38,
      "hit": false,
      "t": 55990,
      "d": 135,
      "v": 92
    },
    {
      "midi": 78,
      "hit": false,
      "t": 55995,
      "d": 105,
      "v": 97
    },
    {
      "midi": 50,
      "hit": false,
      "t": 55995,
      "d": 110,
      "v": 95
    },
    {
      "midi": 72,
      "hit": false,
      "t": 56000,
      "d": 100,
      "v": 103
    },
    {
      "midi": 69,
      "hit": false,
      "t": 56000,
      "d": 125,
      "v": 94
    },
    {
      "midi": 69,
      "hit": false,
      "t": 56470,
      "d": 460,
      "v": 103
    },
    {
      "midi": 78,
      "hit": false,
      "t": 56475,
      "d": 440,
      "v": 102
    },
    {
      "midi": 72,
      "hit": false,
      "t": 56475,
      "d": 460,
      "v": 111
    },
    {
      "midi": 50,
      "hit": false,
      "t": 56480,
      "d": 260,
      "v": 96
    },
    {
      "midi": 38,
      "hit": false,
      "t": 56480,
      "d": 1060,
      "v": 97
    },
    {
      "midi": 50,
      "hit": false,
      "t": 56935,
      "d": 645,
      "v": 102
    },
    {
      "midi": 69,
      "hit": false,
      "t": 57105,
      "d": 420,
      "v": 103
    },
    {
      "midi": 72,
      "hit": false,
      "t": 57110,
      "d": 410,
      "v": 111
    },
    {
      "midi": 78,
      "hit": false,
      "t": 57110,
      "d": 435,
      "v": 102
    },
    {
      "midi": 71,
      "hit": false,
      "t": 57600,
      "d": 305,
      "v": 99
    },
    {
      "midi": 74,
      "hit": false,
      "t": 57600,
      "d": 310,
      "v": 95
    },
    {
      "midi": 67,
      "hit": false,
      "t": 57925,
      "d": 115,
      "v": 91
    },
    {
      "midi": 71,
      "hit": false,
      "t": 58085,
      "d": 300,
      "v": 98
    },
    {
      "midi": 74,
      "hit": false,
      "t": 58085,
      "d": 305,
      "v": 93
    },
    {
      "midi": 67,
      "hit": false,
      "t": 58395,
      "d": 145,
      "v": 91
    },
    {
      "midi": 74,
      "hit": false,
      "t": 58555,
      "d": 295,
      "v": 95
    },
    {
      "midi": 71,
      "hit": false,
      "t": 58560,
      "d": 275,
      "v": 99
    },
    {
      "midi": 67,
      "hit": false,
      "t": 58855,
      "d": 135,
      "v": 90
    },
    {
      "midi": 71,
      "hit": false,
      "t": 59020,
      "d": 335,
      "v": 100
    },
    {
      "midi": 74,
      "hit": false,
      "t": 59020,
      "d": 335,
      "v": 96
    },
    {
      "midi": 67,
      "hit": false,
      "t": 59315,
      "d": 250,
      "v": 93
    },
    {
      "midi": 69,
      "hit": false,
      "t": 59485,
      "d": 305,
      "v": 96
    },
    {
      "midi": 72,
      "hit": false,
      "t": 59490,
      "d": 320,
      "v": 99
    },
    {
      "midi": 74,
      "hit": false,
      "t": 59490,
      "d": 320,
      "v": 97
    },
    {
      "midi": 67,
      "hit": false,
      "t": 59790,
      "d": 165,
      "v": 91
    },
    {
      "midi": 69,
      "hit": false,
      "t": 59970,
      "d": 310,
      "v": 94
    },
    {
      "midi": 72,
      "hit": false,
      "t": 59970,
      "d": 330,
      "v": 100
    },
    {
      "midi": 74,
      "hit": false,
      "t": 59970,
      "d": 335,
      "v": 95
    },
    {
      "midi": 67,
      "hit": false,
      "t": 60280,
      "d": 150,
      "v": 93
    },
    {
      "midi": 69,
      "hit": false,
      "t": 60445,
      "d": 310,
      "v": 94
    },
    {
      "midi": 72,
      "hit": false,
      "t": 60450,
      "d": 310,
      "v": 102
    },
    {
      "midi": 74,
      "hit": false,
      "t": 60450,
      "d": 325,
      "v": 94
    },
    {
      "midi": 67,
      "hit": false,
      "t": 60780,
      "d": 140,
      "v": 92
    },
    {
      "midi": 69,
      "hit": false,
      "t": 60935,
      "d": 335,
      "v": 95
    },
    {
      "midi": 72,
      "hit": false,
      "t": 60940,
      "d": 330,
      "v": 105
    },
    {
      "midi": 74,
      "hit": false,
      "t": 60940,
      "d": 335,
      "v": 94
    },
    {
      "midi": 67,
      "hit": false,
      "t": 61250,
      "d": 225,
      "v": 94
    },
    {
      "midi": 71,
      "hit": false,
      "t": 61425,
      "d": 335,
      "v": 103
    },
    {
      "midi": 74,
      "hit": false,
      "t": 61425,
      "d": 335,
      "v": 97
    },
    {
      "midi": 66,
      "hit": false,
      "t": 61740,
      "d": 110,
      "v": 95
    },
    {
      "midi": 71,
      "hit": false,
      "t": 61905,
      "d": 325,
      "v": 99
    },
    {
      "midi": 74,
      "hit": false,
      "t": 61905,
      "d": 325,
      "v": 94
    },
    {
      "midi": 66,
      "hit": false,
      "t": 62205,
      "d": 125,
      "v": 95
    },
    {
      "midi": 71,
      "hit": false,
      "t": 62375,
      "d": 305,
      "v": 99
    },
    {
      "midi": 74,
      "hit": false,
      "t": 62375,
      "d": 310,
      "v": 95
    },
    {
      "midi": 66,
      "hit": false,
      "t": 62690,
      "d": 120,
      "v": 94
    },
    {
      "midi": 71,
      "hit": false,
      "t": 62850,
      "d": 350,
      "v": 99
    },
    {
      "midi": 74,
      "hit": false,
      "t": 62850,
      "d": 350,
      "v": 96
    },
    {
      "midi": 66,
      "hit": false,
      "t": 63160,
      "d": 235,
      "v": 97
    },
    {
      "midi": 72,
      "hit": false,
      "t": 63345,
      "d": 335,
      "v": 100
    },
    {
      "midi": 76,
      "hit": false,
      "t": 63345,
      "d": 335,
      "v": 96
    },
    {
      "midi": 67,
      "hit": false,
      "t": 63660,
      "d": 110,
      "v": 93
    },
    {
      "midi": 76,
      "hit": false,
      "t": 63825,
      "d": 330,
      "v": 93
    },
    {
      "midi": 72,
      "hit": false,
      "t": 63825,
      "d": 335,
      "v": 102
    },
    {
      "midi": 67,
      "hit": false,
      "t": 64155,
      "d": 100,
      "v": 92
    },
    {
      "midi": 76,
      "hit": false,
      "t": 64310,
      "d": 320,
      "v": 94
    },
    {
      "midi": 72,
      "hit": false,
      "t": 64330,
      "d": 285,
      "v": 102
    },
    {
      "midi": 67,
      "hit": false,
      "t": 64635,
      "d": 105,
      "v": 93
    },
    {
      "midi": 72,
      "hit": false,
      "t": 64795,
      "d": 335,
      "v": 103
    },
    {
      "midi": 76,
      "hit": false,
      "t": 64795,
      "d": 335,
      "v": 94
    },
    {
      "midi": 67,
      "hit": false,
      "t": 65090,
      "d": 185,
      "v": 95
    },
    {
      "midi": 71,
      "hit": false,
      "t": 65280,
      "d": 295,
      "v": 103
    },
    {
      "midi": 74,
      "hit": false,
      "t": 65280,
      "d": 315,
      "v": 97
    },
    {
      "midi": 67,
      "hit": false,
      "t": 65575,
      "d": 135,
      "v": 91
    },
    {
      "midi": 71,
      "hit": false,
      "t": 65750,
      "d": 290,
      "v": 102
    },
    {
      "midi": 74,
      "hit": false,
      "t": 65750,
      "d": 300,
      "v": 99
    },
    {
      "midi": 67,
      "hit": false,
      "t": 66070,
      "d": 120,
      "v": 92
    },
    {
      "midi": 74,
      "hit": false,
      "t": 66230,
      "d": 295,
      "v": 98
    },
    {
      "midi": 71,
      "hit": false,
      "t": 66235,
      "d": 265,
      "v": 103
    },
    {
      "midi": 67,
      "hit": false,
      "t": 66540,
      "d": 125,
      "v": 90
    },
    {
      "midi": 71,
      "hit": false,
      "t": 66720,
      "d": 305,
      "v": 103
    },
    {
      "midi": 74,
      "hit": false,
      "t": 66720,
      "d": 330,
      "v": 98
    },
    {
      "midi": 67,
      "hit": false,
      "t": 67025,
      "d": 200,
      "v": 95
    },
    {
      "midi": 71,
      "hit": false,
      "t": 67195,
      "d": 330,
      "v": 103
    },
    {
      "midi": 76,
      "hit": false,
      "t": 67195,
      "d": 330,
      "v": 98
    },
    {
      "midi": 67,
      "hit": false,
      "t": 67490,
      "d": 130,
      "v": 91
    },
    {
      "midi": 76,
      "hit": false,
      "t": 67675,
      "d": 325,
      "v": 94
    },
    {
      "midi": 71,
      "hit": false,
      "t": 67680,
      "d": 320,
      "v": 100
    },
    {
      "midi": 67,
      "hit": false,
      "t": 67980,
      "d": 135,
      "v": 92
    },
    {
      "midi": 76,
      "hit": false,
      "t": 68145,
      "d": 330,
      "v": 95
    },
    {
      "midi": 71,
      "hit": false,
      "t": 68145,
      "d": 335,
      "v": 103
    },
    {
      "midi": 67,
      "hit": false,
      "t": 68475,
      "d": 110,
      "v": 89
    },
    {
      "midi": 71,
      "hit": false,
      "t": 68640,
      "d": 350,
      "v": 103
    },
    {
      "midi": 76,
      "hit": false,
      "t": 68645,
      "d": 345,
      "v": 95
    },
    {
      "midi": 67,
      "hit": false,
      "t": 68945,
      "d": 185,
      "v": 96
    },
    {
      "midi": 69,
      "hit": false,
      "t": 69120,
      "d": 325,
      "v": 96
    },
    {
      "midi": 73,
      "hit": false,
      "t": 69120,
      "d": 350,
      "v": 102
    },
    {
      "midi": 76,
      "hit": false,
      "t": 69125,
      "d": 340,
      "v": 96
    },
    {
      "midi": 67,
      "hit": false,
      "t": 69425,
      "d": 140,
      "v": 93
    },
    {
      "midi": 69,
      "hit": false,
      "t": 69605,
      "d": 295,
      "v": 94
    },
    {
      "midi": 73,
      "hit": false,
      "t": 69605,
      "d": 300,
      "v": 102
    },
    {
      "midi": 76,
      "hit": false,
      "t": 69610,
      "d": 295,
      "v": 95
    },
    {
      "midi": 67,
      "hit": false,
      "t": 69910,
      "d": 120,
      "v": 92
    },
    {
      "midi": 69,
      "hit": false,
      "t": 70085,
      "d": 315,
      "v": 96
    },
    {
      "midi": 76,
      "hit": false,
      "t": 70085,
      "d": 320,
      "v": 95
    },
    {
      "midi": 73,
      "hit": false,
      "t": 70090,
      "d": 315,
      "v": 102
    },
    {
      "midi": 67,
      "hit": false,
      "t": 70380,
      "d": 140,
      "v": 91
    },
    {
      "midi": 69,
      "hit": false,
      "t": 70560,
      "d": 325,
      "v": 97
    },
    {
      "midi": 73,
      "hit": false,
      "t": 70565,
      "d": 320,
      "v": 104
    },
    {
      "midi": 76,
      "hit": false,
      "t": 70565,
      "d": 345,
      "v": 96
    },
    {
      "midi": 67,
      "hit": false,
      "t": 70860,
      "d": 200,
      "v": 92
    },
    {
      "midi": 72,
      "hit": false,
      "t": 71035,
      "d": 355,
      "v": 110
    },
    {
      "midi": 74,
      "hit": false,
      "t": 71035,
      "d": 370,
      "v": 99
    },
    {
      "midi": 69,
      "hit": false,
      "t": 71340,
      "d": 120,
      "v": 95
    },
    {
      "midi": 72,
      "hit": false,
      "t": 71530,
      "d": 360,
      "v": 96
    },
    {
      "midi": 74,
      "hit": false,
      "t": 71530,
      "d": 360,
      "v": 93
    },
    {
      "midi": 69,
      "hit": false,
      "t": 71835,
      "d": 165,
      "v": 105
    },
    {
      "midi": 74,
      "hit": false,
      "t": 72005,
      "d": 360,
      "v": 93
    },
    {
      "midi": 72,
      "hit": false,
      "t": 72010,
      "d": 340,
      "v": 96
    },
    {
      "midi": 72,
      "hit": false,
      "t": 72495,
      "d": 310,
      "v": 90
    },
    {
      "midi": 74,
      "hit": false,
      "t": 72500,
      "d": 320,
      "v": 87
    },
    {
      "midi": 71,
      "hit": false,
      "t": 72960,
      "d": 280,
      "v": 100
    },
    {
      "midi": 74,
      "hit": false,
      "t": 72960,
      "d": 280,
      "v": 95
    },
    {
      "midi": 67,
      "hit": false,
      "t": 73260,
      "d": 100,
      "v": 91
    },
    {
      "midi": 71,
      "hit": false,
      "t": 73430,
      "d": 275,
      "v": 103
    },
    {
      "midi": 74,
      "hit": false,
      "t": 73430,
      "d": 290,
      "v": 98
    },
    {
      "midi": 67,
      "hit": false,
      "t": 73740,
      "d": 110,
      "v": 90
    },
    {
      "midi": 71,
      "hit": false,
      "t": 73905,
      "d": 280,
      "v": 100
    },
    {
      "midi": 74,
      "hit": false,
      "t": 73905,
      "d": 295,
      "v": 96
    },
    {
      "midi": 67,
      "hit": false,
      "t": 74230,
      "d": 110,
      "v": 90
    },
    {
      "midi": 71,
      "hit": false,
      "t": 74380,
      "d": 360,
      "v": 100
    },
    {
      "midi": 74,
      "hit": false,
      "t": 74380,
      "d": 375,
      "v": 96
    },
    {
      "midi": 67,
      "hit": false,
      "t": 74700,
      "d": 210,
      "v": 92
    },
    {
      "midi": 69,
      "hit": false,
      "t": 74870,
      "d": 330,
      "v": 96
    },
    {
      "midi": 72,
      "hit": false,
      "t": 74870,
      "d": 335,
      "v": 99
    },
    {
      "midi": 74,
      "hit": false,
      "t": 74875,
      "d": 330,
      "v": 98
    },
    {
      "midi": 67,
      "hit": false,
      "t": 75180,
      "d": 125,
      "v": 92
    },
    {
      "midi": 69,
      "hit": false,
      "t": 75335,
      "d": 295,
      "v": 96
    },
    {
      "midi": 72,
      "hit": false,
      "t": 75335,
      "d": 310,
      "v": 99
    },
    {
      "midi": 74,
      "hit": false,
      "t": 75360,
      "d": 290,
      "v": 96
    },
    {
      "midi": 67,
      "hit": false,
      "t": 75645,
      "d": 140,
      "v": 90
    },
    {
      "midi": 69,
      "hit": false,
      "t": 75825,
      "d": 300,
      "v": 96
    },
    {
      "midi": 72,
      "hit": false,
      "t": 75830,
      "d": 310,
      "v": 100
    },
    {
      "midi": 74,
      "hit": false,
      "t": 75830,
      "d": 315,
      "v": 96
    },
    {
      "midi": 67,
      "hit": false,
      "t": 76160,
      "d": 120,
      "v": 90
    },
    {
      "midi": 69,
      "hit": false,
      "t": 76320,
      "d": 300,
      "v": 99
    },
    {
      "midi": 72,
      "hit": false,
      "t": 76325,
      "d": 320,
      "v": 105
    },
    {
      "midi": 74,
      "hit": false,
      "t": 76330,
      "d": 320,
      "v": 98
    },
    {
      "midi": 67,
      "hit": false,
      "t": 76625,
      "d": 165,
      "v": 92
    },
    {
      "midi": 71,
      "hit": false,
      "t": 76795,
      "d": 355,
      "v": 103
    },
    {
      "midi": 74,
      "hit": false,
      "t": 76795,
      "d": 375,
      "v": 100
    },
    {
      "midi": 66,
      "hit": false,
      "t": 77115,
      "d": 95,
      "v": 96
    },
    {
      "midi": 71,
      "hit": false,
      "t": 77280,
      "d": 290,
      "v": 98
    },
    {
      "midi": 74,
      "hit": false,
      "t": 77280,
      "d": 310,
      "v": 95
    },
    {
      "midi": 66,
      "hit": false,
      "t": 77585,
      "d": 125,
      "v": 96
    },
    {
      "midi": 71,
      "hit": false,
      "t": 77755,
      "d": 290,
      "v": 100
    },
    {
      "midi": 74,
      "hit": false,
      "t": 77755,
      "d": 310,
      "v": 96
    },
    {
      "midi": 66,
      "hit": false,
      "t": 78065,
      "d": 105,
      "v": 92
    },
    {
      "midi": 74,
      "hit": false,
      "t": 78225,
      "d": 365,
      "v": 97
    },
    {
      "midi": 71,
      "hit": false,
      "t": 78230,
      "d": 320,
      "v": 102
    },
    {
      "midi": 66,
      "hit": false,
      "t": 78550,
      "d": 135,
      "v": 93
    },
    {
      "midi": 76,
      "hit": false,
      "t": 78715,
      "d": 350,
      "v": 97
    },
    {
      "midi": 72,
      "hit": false,
      "t": 78715,
      "d": 355,
      "v": 102
    },
    {
      "midi": 67,
      "hit": false,
      "t": 79015,
      "d": 110,
      "v": 96
    },
    {
      "midi": 76,
      "hit": false,
      "t": 79190,
      "d": 335,
      "v": 94
    },
    {
      "midi": 72,
      "hit": false,
      "t": 79195,
      "d": 325,
      "v": 99
    },
    {
      "midi": 67,
      "hit": false,
      "t": 79525,
      "d": 110,
      "v": 92
    },
    {
      "midi": 76,
      "hit": false,
      "t": 79675,
      "d": 320,
      "v": 93
    },
    {
      "midi": 72,
      "hit": false,
      "t": 79680,
      "d": 315,
      "v": 99
    },
    {
      "midi": 67,
      "hit": false,
      "t": 80000,
      "d": 110,
      "v": 93
    },
    {
      "midi": 72,
      "hit": false,
      "t": 80150,
      "d": 360,
      "v": 102
    },
    {
      "midi": 76,
      "hit": false,
      "t": 80150,
      "d": 365,
      "v": 94
    },
    {
      "midi": 67,
      "hit": false,
      "t": 80455,
      "d": 185,
      "v": 97
    },
    {
      "midi": 71,
      "hit": false,
      "t": 80635,
      "d": 330,
      "v": 105
    },
    {
      "midi": 74,
      "hit": false,
      "t": 80635,
      "d": 350,
      "v": 99
    },
    {
      "midi": 67,
      "hit": false,
      "t": 80945,
      "d": 100,
      "v": 94
    },
    {
      "midi": 71,
      "hit": false,
      "t": 81120,
      "d": 310,
      "v": 102
    },
    {
      "midi": 74,
      "hit": false,
      "t": 81125,
      "d": 325,
      "v": 98
    },
    {
      "midi": 67,
      "hit": false,
      "t": 81425,
      "d": 155,
      "v": 92
    },
    {
      "midi": 71,
      "hit": false,
      "t": 81595,
      "d": 320,
      "v": 107
    },
    {
      "midi": 74,
      "hit": false,
      "t": 81595,
      "d": 340,
      "v": 102
    },
    {
      "midi": 67,
      "hit": false,
      "t": 81895,
      "d": 100,
      "v": 92
    },
    {
      "midi": 71,
      "hit": false,
      "t": 82060,
      "d": 325,
      "v": 100
    },
    {
      "midi": 74,
      "hit": false,
      "t": 82060,
      "d": 345,
      "v": 96
    },
    {
      "midi": 67,
      "hit": false,
      "t": 82380,
      "d": 155,
      "v": 96
    },
    {
      "midi": 76,
      "hit": false,
      "t": 82540,
      "d": 350,
      "v": 97
    },
    {
      "midi": 72,
      "hit": false,
      "t": 82540,
      "d": 355,
      "v": 102
    },
    {
      "midi": 67,
      "hit": false,
      "t": 82855,
      "d": 120,
      "v": 92
    },
    {
      "midi": 72,
      "hit": false,
      "t": 83040,
      "d": 280,
      "v": 103
    },
    {
      "midi": 76,
      "hit": false,
      "t": 83040,
      "d": 280,
      "v": 96
    },
    {
      "midi": 67,
      "hit": false,
      "t": 83335,
      "d": 95,
      "v": 94
    },
    {
      "midi": 78,
      "hit": false,
      "t": 83500,
      "d": 375,
      "v": 102
    },
    {
      "midi": 69,
      "hit": false,
      "t": 83500,
      "d": 380,
      "v": 98
    },
    {
      "midi": 74,
      "hit": false,
      "t": 83505,
      "d": 375,
      "v": 107
    },
    {
      "midi": 69,
      "hit": false,
      "t": 84000,
      "d": 190,
      "v": 100
    },
    {
      "midi": 78,
      "hit": false,
      "t": 84000,
      "d": 195,
      "v": 104
    },
    {
      "midi": 74,
      "hit": false,
      "t": 84005,
      "d": 185,
      "v": 105
    },
    {
      "midi": 55,
      "hit": false,
      "t": 84945,
      "d": 510,
      "v": 91
    },
    {
      "midi": 43,
      "hit": false,
      "t": 84950,
      "d": 500,
      "v": 91
    },
    {
      "midi": 62,
      "hit": false,
      "t": 84950,
      "d": 535,
      "v": 92
    },
    {
      "midi": 67,
      "hit": false,
      "t": 84955,
      "d": 525,
      "v": 107
    },
    {
      "midi": 71,
      "hit": false,
      "t": 84955,
      "d": 530,
      "v": 103
    },
    {
      "midi": 43,
      "hit": false,
      "t": 85905,
      "d": 490,
      "v": 91
    },
    {
      "midi": 55,
      "hit": false,
      "t": 85905,
      "d": 500,
      "v": 93
    },
    {
      "midi": 62,
      "hit": false,
      "t": 85910,
      "d": 260,
      "v": 96
    },
    {
      "midi": 67,
      "hit": false,
      "t": 85910,
      "d": 275,
      "v": 109
    },
    {
      "midi": 71,
      "hit": false,
      "t": 85910,
      "d": 275,
      "v": 107
    },
    {
      "midi": 67,
      "hit": false,
      "t": 86400,
      "d": 185,
      "v": 109
    },
    {
      "midi": 62,
      "hit": false,
      "t": 86400,
      "d": 190,
      "v": 96
    },
    {
      "midi": 72,
      "hit": false,
      "t": 86400,
      "d": 190,
      "v": 102
    },
    {
      "midi": 43,
      "hit": false,
      "t": 86855,
      "d": 550,
      "v": 92
    },
    {
      "midi": 55,
      "hit": false,
      "t": 86855,
      "d": 565,
      "v": 92
    },
    {
      "midi": 62,
      "hit": false,
      "t": 86860,
      "d": 525,
      "v": 99
    },
    {
      "midi": 67,
      "hit": false,
      "t": 86860,
      "d": 530,
      "v": 110
    },
    {
      "midi": 71,
      "hit": false,
      "t": 86860,
      "d": 545,
      "v": 107
    },
    {
      "midi": 62,
      "hit": false,
      "t": 87810,
      "d": 505,
      "v": 98
    },
    {
      "midi": 43,
      "hit": false,
      "t": 87810,
      "d": 510,
      "v": 93
    },
    {
      "midi": 55,
      "hit": false,
      "t": 87810,
      "d": 530,
      "v": 96
    },
    {
      "midi": 67,
      "hit": false,
      "t": 87815,
      "d": 500,
      "v": 111
    },
    {
      "midi": 71,
      "hit": false,
      "t": 87820,
      "d": 525,
      "v": 110
    },
    {
      "midi": 48,
      "hit": false,
      "t": 88320,
      "d": 215,
      "v": 111
    },
    {
      "midi": 48,
      "hit": false,
      "t": 88630,
      "d": 210,
      "v": 103
    },
    {
      "midi": 60,
      "hit": false,
      "t": 88805,
      "d": 220,
      "v": 100
    },
    {
      "midi": 64,
      "hit": false,
      "t": 88810,
      "d": 220,
      "v": 103
    },
    {
      "midi": 67,
      "hit": false,
      "t": 88815,
      "d": 210,
      "v": 107
    },
    {
      "midi": 64,
      "hit": false,
      "t": 89130,
      "d": 190,
      "v": 105
    },
    {
      "midi": 67,
      "hit": false,
      "t": 89130,
      "d": 190,
      "v": 107
    },
    {
      "midi": 60,
      "hit": false,
      "t": 89135,
      "d": 205,
      "v": 100
    },
    {
      "midi": 50,
      "hit": false,
      "t": 89595,
      "d": 240,
      "v": 105
    },
    {
      "midi": 66,
      "hit": false,
      "t": 89765,
      "d": 290,
      "v": 107
    },
    {
      "midi": 62,
      "hit": false,
      "t": 89765,
      "d": 320,
      "v": 100
    },
    {
      "midi": 69,
      "hit": false,
      "t": 89770,
      "d": 300,
      "v": 109
    },
    {
      "midi": 47,
      "hit": false,
      "t": 90580,
      "d": 200,
      "v": 97
    },
    {
      "midi": 62,
      "hit": false,
      "t": 90740,
      "d": 205,
      "v": 97
    },
    {
      "midi": 66,
      "hit": false,
      "t": 90740,
      "d": 205,
      "v": 104
    },
    {
      "midi": 69,
      "hit": false,
      "t": 90745,
      "d": 185,
      "v": 103
    },
    {
      "midi": 62,
      "hit": false,
      "t": 91035,
      "d": 215,
      "v": 98
    },
    {
      "midi": 66,
      "hit": false,
      "t": 91035,
      "d": 230,
      "v": 109
    },
    {
      "midi": 69,
      "hit": false,
      "t": 91040,
      "d": 225,
      "v": 105
    },
    {
      "midi": 47,
      "hit": false,
      "t": 91510,
      "d": 270,
      "v": 92
    },
    {
      "midi": 78,
      "hit": false,
      "t": 91700,
      "d": 190,
      "v": 102
    },
    {
      "midi": 69,
      "hit": false,
      "t": 91700,
      "d": 195,
      "v": 98
    },
    {
      "midi": 74,
      "hit": false,
      "t": 91705,
      "d": 185,
      "v": 107
    },
    {
      "midi": 74,
      "hit": false,
      "t": 91970,
      "d": 185,
      "v": 107
    },
    {
      "midi": 78,
      "hit": false,
      "t": 91970,
      "d": 190,
      "v": 109
    },
    {
      "midi": 69,
      "hit": false,
      "t": 91970,
      "d": 250,
      "v": 99
    },
    {
      "midi": 48,
      "hit": false,
      "t": 92160,
      "d": 205,
      "v": 98
    },
    {
      "midi": 60,
      "hit": false,
      "t": 92160,
      "d": 205,
      "v": 103
    },
    {
      "midi": 48,
      "hit": false,
      "t": 92465,
      "d": 230,
      "v": 95
    },
    {
      "midi": 60,
      "hit": false,
      "t": 92465,
      "d": 235,
      "v": 95
    },
    {
      "midi": 67,
      "hit": false,
      "t": 92640,
      "d": 215,
      "v": 100
    },
    {
      "midi": 76,
      "hit": false,
      "t": 92645,
      "d": 195,
      "v": 100
    },
    {
      "midi": 72,
      "hit": false,
      "t": 92650,
      "d": 205,
      "v": 103
    },
    {
      "midi": 76,
      "hit": false,
      "t": 92940,
      "d": 210,
      "v": 98
    },
    {
      "midi": 72,
      "hit": false,
      "t": 92945,
      "d": 185,
      "v": 103
    },
    {
      "midi": 67,
      "hit": false,
      "t": 92945,
      "d": 190,
      "v": 99
    },
    {
      "midi": 50,
      "hit": false,
      "t": 93445,
      "d": 310,
      "v": 97
    },
    {
      "midi": 62,
      "hit": false,
      "t": 93445,
      "d": 365,
      "v": 97
    },
    {
      "midi": 78,
      "hit": false,
      "t": 93620,
      "d": 250,
      "v": 107
    },
    {
      "midi": 74,
      "hit": false,
      "t": 93625,
      "d": 230,
      "v": 110
    },
    {
      "midi": 69,
      "hit": false,
      "t": 93625,
      "d": 260,
      "v": 105
    },
    {
      "midi": 52,
      "hit": false,
      "t": 94095,
      "d": 170,
      "v": 96
    },
    {
      "midi": 64,
      "hit": false,
      "t": 94095,
      "d": 200,
      "v": 96
    },
    {
      "midi": 64,
      "hit": false,
      "t": 94390,
      "d": 285,
      "v": 98
    },
    {
      "midi": 52,
      "hit": false,
      "t": 94390,
      "d": 315,
      "v": 96
    },
    {
      "midi": 67,
      "hit": false,
      "t": 94550,
      "d": 200,
      "v": 102
    },
    {
      "midi": 76,
      "hit": false,
      "t": 94555,
      "d": 195,
      "v": 100
    },
    {
      "midi": 71,
      "hit": false,
      "t": 94555,
      "d": 215,
      "v": 105
    },
    {
      "midi": 71,
      "hit": false,
      "t": 94855,
      "d": 215,
      "v": 105
    },
    {
      "midi": 67,
      "hit": false,
      "t": 94855,
      "d": 235,
      "v": 102
    },
    {
      "midi": 76,
      "hit": false,
      "t": 94855,
      "d": 235,
      "v": 96
    },
    {
      "midi": 48,
      "hit": false,
      "t": 95040,
      "d": 225,
      "v": 102
    },
    {
      "midi": 60,
      "hit": false,
      "t": 95045,
      "d": 235,
      "v": 103
    },
    {
      "midi": 48,
      "hit": false,
      "t": 95350,
      "d": 230,
      "v": 93
    },
    {
      "midi": 60,
      "hit": false,
      "t": 95350,
      "d": 250,
      "v": 102
    },
    {
      "midi": 67,
      "hit": false,
      "t": 95525,
      "d": 195,
      "v": 110
    },
    {
      "midi": 76,
      "hit": false,
      "t": 95530,
      "d": 195,
      "v": 103
    },
    {
      "midi": 72,
      "hit": false,
      "t": 95530,
      "d": 210,
      "v": 109
    },
    {
      "midi": 76,
      "hit": false,
      "t": 95825,
      "d": 220,
      "v": 96
    },
    {
      "midi": 72,
      "hit": false,
      "t": 95830,
      "d": 180,
      "v": 109
    },
    {
      "midi": 67,
      "hit": false,
      "t": 95830,
      "d": 200,
      "v": 100
    },
    {
      "midi": 43,
      "hit": false,
      "t": 95995,
      "d": 230,
      "v": 100
    },
    {
      "midi": 55,
      "hit": false,
      "t": 95995,
      "d": 235,
      "v": 103
    },
    {
      "midi": 43,
      "hit": false,
      "t": 96300,
      "d": 205,
      "v": 95
    },
    {
      "midi": 55,
      "hit": false,
      "t": 96305,
      "d": 205,
      "v": 95
    },
    {
      "midi": 71,
      "hit": false,
      "t": 96465,
      "d": 315,
      "v": 102
    },
    {
      "midi": 62,
      "hit": false,
      "t": 96465,
      "d": 330,
      "v": 96
    },
    {
      "midi": 67,
      "hit": false,
      "t": 96465,
      "d": 330,
      "v": 107
    },
    {
      "midi": 67,
      "hit": false,
      "t": 96935,
      "d": 375,
      "v": 109
    },
    {
      "midi": 62,
      "hit": false,
      "t": 96940,
      "d": 350,
      "v": 97
    },
    {
      "midi": 71,
      "hit": false,
      "t": 96960,
      "d": 330,
      "v": 103
    },
    {
      "midi": 62,
      "hit": false,
      "t": 97435,
      "d": 365,
      "v": 98
    },
    {
      "midi": 67,
      "hit": false,
      "t": 97435,
      "d": 365,
      "v": 111
    },
    {
      "midi": 71,
      "hit": false,
      "t": 97440,
      "d": 375,
      "v": 107
    },
    {
      "midi": 55,
      "hit": false,
      "t": 97755,
      "d": 235,
      "v": 95
    },
    {
      "midi": 43,
      "hit": false,
      "t": 97760,
      "d": 215,
      "v": 89
    },
    {
      "midi": 48,
      "hit": false,
      "t": 97930,
      "d": 250,
      "v": 110
    },
    {
      "midi": 48,
      "hit": false,
      "t": 98250,
      "d": 250,
      "v": 97
    },
    {
      "midi": 67,
      "hit": false,
      "t": 98395,
      "d": 330,
      "v": 98
    },
    {
      "midi": 72,
      "hit": false,
      "t": 98400,
      "d": 360,
      "v": 107
    },
    {
      "midi": 76,
      "hit": false,
      "t": 98405,
      "d": 340,
      "v": 98
    },
    {
      "midi": 67,
      "hit": false,
      "t": 98890,
      "d": 330,
      "v": 105
    },
    {
      "midi": 76,
      "hit": false,
      "t": 98895,
      "d": 340,
      "v": 96
    },
    {
      "midi": 72,
      "hit": false,
      "t": 98900,
      "d": 350,
      "v": 109
    },
    {
      "midi": 72,
      "hit": false,
      "t": 99350,
      "d": 345,
      "v": 109
    },
    {
      "midi": 67,
      "hit": false,
      "t": 99355,
      "d": 315,
      "v": 105
    },
    {
      "midi": 76,
      "hit": false,
      "t": 99355,
      "d": 340,
      "v": 99
    },
    {
      "midi": 48,
      "hit": false,
      "t": 99670,
      "d": 230,
      "v": 107
    },
    {
      "midi": 43,
      "hit": false,
      "t": 99835,
      "d": 190,
      "v": 98
    },
    {
      "midi": 55,
      "hit": false,
      "t": 99835,
      "d": 210,
      "v": 100
    },
    {
      "midi": 55,
      "hit": false,
      "t": 100130,
      "d": 260,
      "v": 94
    },
    {
      "midi": 43,
      "hit": false,
      "t": 100130,
      "d": 290,
      "v": 96
    },
    {
      "midi": 67,
      "hit": false,
      "t": 100290,
      "d": 215,
      "v": 105
    },
    {
      "midi": 59,
      "hit": false,
      "t": 100310,
      "d": 210,
      "v": 95
    },
    {
      "midi": 62,
      "hit": false,
      "t": 100315,
      "d": 205,
      "v": 100
    },
    {
      "midi": 67,
      "hit": false,
      "t": 100610,
      "d": 240,
      "v": 102
    },
    {
      "midi": 62,
      "hit": false,
      "t": 100630,
      "d": 200,
      "v": 102
    },
    {
      "midi": 59,
      "hit": false,
      "t": 100630,
      "d": 215,
      "v": 96
    },
    {
      "midi": 52,
      "hit": false,
      "t": 100785,
      "d": 205,
      "v": 97
    },
    {
      "midi": 40,
      "hit": false,
      "t": 100790,
      "d": 200,
      "v": 95
    },
    {
      "midi": 40,
      "hit": false,
      "t": 101100,
      "d": 235,
      "v": 93
    },
    {
      "midi": 52,
      "hit": false,
      "t": 101105,
      "d": 245,
      "v": 99
    },
    {
      "midi": 64,
      "hit": false,
      "t": 101265,
      "d": 225,
      "v": 105
    },
    {
      "midi": 71,
      "hit": false,
      "t": 101265,
      "d": 225,
      "v": 105
    },
    {
      "midi": 67,
      "hit": false,
      "t": 101270,
      "d": 240,
      "v": 111
    },
    {
      "midi": 64,
      "hit": false,
      "t": 101580,
      "d": 200,
      "v": 97
    },
    {
      "midi": 67,
      "hit": false,
      "t": 101585,
      "d": 170,
      "v": 110
    },
    {
      "midi": 71,
      "hit": false,
      "t": 101585,
      "d": 190,
      "v": 102
    },
    {
      "midi": 45,
      "hit": false,
      "t": 101755,
      "d": 760,
      "v": 93
    },
    {
      "midi": 57,
      "hit": false,
      "t": 101755,
      "d": 775,
      "v": 102
    },
    {
      "midi": 69,
      "hit": false,
      "t": 102210,
      "d": 230,
      "v": 97
    },
    {
      "midi": 76,
      "hit": false,
      "t": 102230,
      "d": 195,
      "v": 99
    },
    {
      "midi": 73,
      "hit": false,
      "t": 102235,
      "d": 225,
      "v": 100
    },
    {
      "midi": 73,
      "hit": false,
      "t": 102550,
      "d": 120,
      "v": 99
    },
    {
      "midi": 76,
      "hit": false,
      "t": 102550,
      "d": 120,
      "v": 94
    },
    {
      "midi": 69,
      "hit": false,
      "t": 102555,
      "d": 120,
      "v": 94
    },
    {
      "midi": 57,
      "hit": false,
      "t": 102710,
      "d": 785,
      "v": 95
    },
    {
      "midi": 45,
      "hit": false,
      "t": 102715,
      "d": 845,
      "v": 93
    },
    {
      "midi": 69,
      "hit": false,
      "t": 103010,
      "d": 545,
      "v": 103
    },
    {
      "midi": 73,
      "hit": false,
      "t": 103025,
      "d": 535,
      "v": 107
    },
    {
      "midi": 76,
      "hit": false,
      "t": 103030,
      "d": 470,
      "v": 107
    },
    {
      "midi": 38,
      "hit": false,
      "t": 103675,
      "d": 1040,
      "v": 100
    },
    {
      "midi": 50,
      "hit": false,
      "t": 103675,
      "d": 1045,
      "v": 99
    },
    {
      "midi": 69,
      "hit": false,
      "t": 103985,
      "d": 95,
      "v": 94
    },
    {
      "midi": 78,
      "hit": false,
      "t": 103985,
      "d": 115,
      "v": 97
    },
    {
      "midi": 74,
      "hit": false,
      "t": 103990,
      "d": 75,
      "v": 98
    },
    {
      "midi": 69,
      "hit": false,
      "t": 104475,
      "d": 455,
      "v": 99
    },
    {
      "midi": 74,
      "hit": false,
      "t": 104480,
      "d": 445,
      "v": 103
    },
    {
      "midi": 78,
      "hit": false,
      "t": 104480,
      "d": 455,
      "v": 100
    },
    {
      "midi": 50,
      "hit": false,
      "t": 104925,
      "d": 600,
      "v": 93
    },
    {
      "midi": 38,
      "hit": false,
      "t": 104930,
      "d": 565,
      "v": 94
    },
    {
      "midi": 69,
      "hit": false,
      "t": 105100,
      "d": 215,
      "v": 100
    },
    {
      "midi": 74,
      "hit": false,
      "t": 105100,
      "d": 215,
      "v": 105
    },
    {
      "midi": 78,
      "hit": false,
      "t": 105105,
      "d": 195,
      "v": 98
    },
    {
      "midi": 69,
      "hit": false,
      "t": 105415,
      "d": 115,
      "v": 97
    },
    {
      "midi": 78,
      "hit": false,
      "t": 105420,
      "d": 125,
      "v": 99
    },
    {
      "midi": 74,
      "hit": false,
      "t": 105420,
      "d": 130,
      "v": 105
    },
    {
      "midi": 48,
      "hit": false,
      "t": 105595,
      "d": 215,
      "v": 111
    },
    {
      "midi": 48,
      "hit": false,
      "t": 105905,
      "d": 210,
      "v": 103
    },
    {
      "midi": 60,
      "hit": false,
      "t": 106080,
      "d": 220,
      "v": 100
    },
    {
      "midi": 64,
      "hit": false,
      "t": 106085,
      "d": 220,
      "v": 103
    },
    {
      "midi": 67,
      "hit": false,
      "t": 106090,
      "d": 210,
      "v": 107
    },
    {
      "midi": 64,
      "hit": false,
      "t": 106405,
      "d": 190,
      "v": 105
    },
    {
      "midi": 67,
      "hit": false,
      "t": 106405,
      "d": 190,
      "v": 107
    },
    {
      "midi": 60,
      "hit": false,
      "t": 106410,
      "d": 205,
      "v": 100
    },
    {
      "midi": 50,
      "hit": false,
      "t": 106870,
      "d": 240,
      "v": 105
    },
    {
      "midi": 66,
      "hit": false,
      "t": 107040,
      "d": 290,
      "v": 107
    },
    {
      "midi": 62,
      "hit": false,
      "t": 107040,
      "d": 320,
      "v": 100
    },
    {
      "midi": 69,
      "hit": false,
      "t": 107045,
      "d": 300,
      "v": 109
    },
    {
      "midi": 47,
      "hit": false,
      "t": 107855,
      "d": 200,
      "v": 97
    },
    {
      "midi": 62,
      "hit": false,
      "t": 108015,
      "d": 205,
      "v": 97
    },
    {
      "midi": 66,
      "hit": false,
      "t": 108015,
      "d": 205,
      "v": 104
    },
    {
      "midi": 69,
      "hit": false,
      "t": 108020,
      "d": 185,
      "v": 103
    },
    {
      "midi": 62,
      "hit": false,
      "t": 108310,
      "d": 215,
      "v": 98
    },
    {
      "midi": 66,
      "hit": false,
      "t": 108310,
      "d": 230,
      "v": 109
    },
    {
      "midi": 69,
      "hit": false,
      "t": 108315,
      "d": 225,
      "v": 105
    },
    {
      "midi": 47,
      "hit": false,
      "t": 108785,
      "d": 270,
      "v": 92
    },
    {
      "midi": 78,
      "hit": false,
      "t": 108975,
      "d": 190,
      "v": 102
    },
    {
      "midi": 69,
      "hit": false,
      "t": 108975,
      "d": 195,
      "v": 98
    },
    {
      "midi": 74,
      "hit": false,
      "t": 108980,
      "d": 185,
      "v": 107
    },
    {
      "midi": 74,
      "hit": false,
      "t": 109245,
      "d": 185,
      "v": 107
    },
    {
      "midi": 78,
      "hit": false,
      "t": 109245,
      "d": 190,
      "v": 109
    },
    {
      "midi": 69,
      "hit": false,
      "t": 109245,
      "d": 250,
      "v": 99
    },
    {
      "midi": 48,
      "hit": false,
      "t": 109435,
      "d": 205,
      "v": 98
    },
    {
      "midi": 60,
      "hit": false,
      "t": 109435,
      "d": 205,
      "v": 103
    },
    {
      "midi": 48,
      "hit": false,
      "t": 109740,
      "d": 230,
      "v": 95
    },
    {
      "midi": 60,
      "hit": false,
      "t": 109740,
      "d": 235,
      "v": 95
    },
    {
      "midi": 67,
      "hit": false,
      "t": 109915,
      "d": 215,
      "v": 100
    },
    {
      "midi": 76,
      "hit": false,
      "t": 109920,
      "d": 195,
      "v": 100
    },
    {
      "midi": 72,
      "hit": false,
      "t": 109925,
      "d": 205,
      "v": 103
    },
    {
      "midi": 76,
      "hit": false,
      "t": 110215,
      "d": 210,
      "v": 98
    },
    {
      "midi": 72,
      "hit": false,
      "t": 110220,
      "d": 185,
      "v": 103
    },
    {
      "midi": 67,
      "hit": false,
      "t": 110220,
      "d": 190,
      "v": 99
    },
    {
      "midi": 50,
      "hit": false,
      "t": 110720,
      "d": 310,
      "v": 97
    },
    {
      "midi": 62,
      "hit": false,
      "t": 110720,
      "d": 365,
      "v": 97
    },
    {
      "midi": 78,
      "hit": false,
      "t": 110895,
      "d": 250,
      "v": 107
    },
    {
      "midi": 74,
      "hit": false,
      "t": 110900,
      "d": 230,
      "v": 110
    },
    {
      "midi": 69,
      "hit": false,
      "t": 110900,
      "d": 260,
      "v": 105
    },
    {
      "midi": 52,
      "hit": false,
      "t": 111370,
      "d": 170,
      "v": 96
    },
    {
      "midi": 64,
      "hit": false,
      "t": 111370,
      "d": 200,
      "v": 96
    },
    {
      "midi": 64,
      "hit": false,
      "t": 111665,
      "d": 285,
      "v": 98
    },
    {
      "midi": 52,
      "hit": false,
      "t": 111665,
      "d": 315,
      "v": 96
    },
    {
      "midi": 67,
      "hit": false,
      "t": 111825,
      "d": 200,
      "v": 102
    },
    {
      "midi": 76,
      "hit": false,
      "t": 111830,
      "d": 195,
      "v": 100
    },
    {
      "midi": 71,
      "hit": false,
      "t": 111830,
      "d": 215,
      "v": 105
    },
    {
      "midi": 71,
      "hit": false,
      "t": 112130,
      "d": 215,
      "v": 105
    },
    {
      "midi": 67,
      "hit": false,
      "t": 112130,
      "d": 235,
      "v": 102
    },
    {
      "midi": 76,
      "hit": false,
      "t": 112130,
      "d": 235,
      "v": 96
    },
    {
      "midi": 48,
      "hit": false,
      "t": 112315,
      "d": 225,
      "v": 102
    },
    {
      "midi": 60,
      "hit": false,
      "t": 112320,
      "d": 235,
      "v": 103
    },
    {
      "midi": 48,
      "hit": false,
      "t": 112625,
      "d": 230,
      "v": 93
    },
    {
      "midi": 60,
      "hit": false,
      "t": 112625,
      "d": 250,
      "v": 102
    },
    {
      "midi": 67,
      "hit": false,
      "t": 112800,
      "d": 195,
      "v": 110
    },
    {
      "midi": 76,
      "hit": false,
      "t": 112805,
      "d": 195,
      "v": 103
    },
    {
      "midi": 72,
      "hit": false,
      "t": 112805,
      "d": 210,
      "v": 109
    },
    {
      "midi": 76,
      "hit": false,
      "t": 113100,
      "d": 225,
      "v": 96
    },
    {
      "midi": 72,
      "hit": false,
      "t": 113105,
      "d": 185,
      "v": 109
    },
    {
      "midi": 67,
      "hit": false,
      "t": 113105,
      "d": 205,
      "v": 100
    },
    {
      "midi": 43,
      "hit": false,
      "t": 113275,
      "d": 230,
      "v": 100
    },
    {
      "midi": 55,
      "hit": false,
      "t": 113275,
      "d": 235,
      "v": 103
    },
    {
      "midi": 43,
      "hit": false,
      "t": 113580,
      "d": 205,
      "v": 95
    },
    {
      "midi": 55,
      "hit": false,
      "t": 113585,
      "d": 205,
      "v": 95
    },
    {
      "midi": 71,
      "hit": false,
      "t": 113745,
      "d": 315,
      "v": 102
    },
    {
      "midi": 62,
      "hit": false,
      "t": 113745,
      "d": 330,
      "v": 96
    },
    {
      "midi": 67,
      "hit": false,
      "t": 113745,
      "d": 330,
      "v": 107
    },
    {
      "midi": 67,
      "hit": false,
      "t": 114215,
      "d": 375,
      "v": 109
    },
    {
      "midi": 62,
      "hit": false,
      "t": 114220,
      "d": 350,
      "v": 97
    },
    {
      "midi": 71,
      "hit": false,
      "t": 114240,
      "d": 330,
      "v": 103
    },
    {
      "midi": 62,
      "hit": false,
      "t": 114715,
      "d": 365,
      "v": 98
    },
    {
      "midi": 67,
      "hit": false,
      "t": 114715,
      "d": 365,
      "v": 111
    },
    {
      "midi": 71,
      "hit": false,
      "t": 114720,
      "d": 375,
      "v": 107
    },
    {
      "midi": 55,
      "hit": false,
      "t": 115035,
      "d": 235,
      "v": 95
    },
    {
      "midi": 43,
      "hit": false,
      "t": 115040,
      "d": 215,
      "v": 89
    },
    {
      "midi": 48,
      "hit": false,
      "t": 115210,
      "d": 250,
      "v": 110
    },
    {
      "midi": 48,
      "hit": false,
      "t": 115530,
      "d": 250,
      "v": 97
    },
    {
      "midi": 67,
      "hit": false,
      "t": 115675,
      "d": 330,
      "v": 98
    },
    {
      "midi": 72,
      "hit": false,
      "t": 115680,
      "d": 360,
      "v": 107
    },
    {
      "midi": 76,
      "hit": false,
      "t": 115685,
      "d": 340,
      "v": 98
    },
    {
      "midi": 67,
      "hit": false,
      "t": 116170,
      "d": 330,
      "v": 105
    },
    {
      "midi": 76,
      "hit": false,
      "t": 116175,
      "d": 340,
      "v": 96
    },
    {
      "midi": 72,
      "hit": false,
      "t": 116180,
      "d": 350,
      "v": 109
    },
    {
      "midi": 72,
      "hit": false,
      "t": 116630,
      "d": 345,
      "v": 109
    },
    {
      "midi": 67,
      "hit": false,
      "t": 116635,
      "d": 315,
      "v": 105
    },
    {
      "midi": 76,
      "hit": false,
      "t": 116635,
      "d": 340,
      "v": 99
    },
    {
      "midi": 48,
      "hit": false,
      "t": 116950,
      "d": 230,
      "v": 107
    },
    {
      "midi": 43,
      "hit": false,
      "t": 117115,
      "d": 190,
      "v": 98
    },
    {
      "midi": 55,
      "hit": false,
      "t": 117115,
      "d": 210,
      "v": 100
    },
    {
      "midi": 55,
      "hit": false,
      "t": 117410,
      "d": 260,
      "v": 94
    },
    {
      "midi": 43,
      "hit": false,
      "t": 117410,
      "d": 290,
      "v": 96
    },
    {
      "midi": 67,
      "hit": false,
      "t": 117570,
      "d": 215,
      "v": 105
    },
    {
      "midi": 59,
      "hit": false,
      "t": 117590,
      "d": 210,
      "v": 95
    },
    {
      "midi": 62,
      "hit": false,
      "t": 117595,
      "d": 205,
      "v": 100
    },
    {
      "midi": 67,
      "hit": false,
      "t": 117890,
      "d": 240,
      "v": 102
    },
    {
      "midi": 62,
      "hit": false,
      "t": 117910,
      "d": 200,
      "v": 102
    },
    {
      "midi": 59,
      "hit": false,
      "t": 117910,
      "d": 215,
      "v": 96
    },
    {
      "midi": 52,
      "hit": false,
      "t": 118065,
      "d": 205,
      "v": 97
    },
    {
      "midi": 40,
      "hit": false,
      "t": 118070,
      "d": 200,
      "v": 95
    },
    {
      "midi": 40,
      "hit": false,
      "t": 118380,
      "d": 235,
      "v": 93
    },
    {
      "midi": 52,
      "hit": false,
      "t": 118385,
      "d": 245,
      "v": 99
    },
    {
      "midi": 64,
      "hit": false,
      "t": 118545,
      "d": 225,
      "v": 105
    },
    {
      "midi": 71,
      "hit": false,
      "t": 118545,
      "d": 225,
      "v": 105
    },
    {
      "midi": 67,
      "hit": false,
      "t": 118550,
      "d": 240,
      "v": 111
    },
    {
      "midi": 64,
      "hit": false,
      "t": 118860,
      "d": 200,
      "v": 97
    },
    {
      "midi": 67,
      "hit": false,
      "t": 118865,
      "d": 170,
      "v": 110
    },
    {
      "midi": 71,
      "hit": false,
      "t": 118865,
      "d": 190,
      "v": 102
    },
    {
      "midi": 45,
      "hit": false,
      "t": 119035,
      "d": 760,
      "v": 93
    },
    {
      "midi": 57,
      "hit": false,
      "t": 119035,
      "d": 775,
      "v": 102
    },
    {
      "midi": 69,
      "hit": false,
      "t": 119490,
      "d": 230,
      "v": 97
    },
    {
      "midi": 76,
      "hit": false,
      "t": 119510,
      "d": 195,
      "v": 99
    },
    {
      "midi": 73,
      "hit": false,
      "t": 119515,
      "d": 225,
      "v": 100
    },
    {
      "midi": 73,
      "hit": false,
      "t": 119830,
      "d": 120,
      "v": 99
    },
    {
      "midi": 76,
      "hit": false,
      "t": 119830,
      "d": 120,
      "v": 94
    },
    {
      "midi": 69,
      "hit": false,
      "t": 119835,
      "d": 120,
      "v": 94
    },
    {
      "midi": 57,
      "hit": false,
      "t": 119990,
      "d": 785,
      "v": 95
    },
    {
      "midi": 45,
      "hit": false,
      "t": 119995,
      "d": 845,
      "v": 93
    },
    {
      "midi": 69,
      "hit": false,
      "t": 120290,
      "d": 545,
      "v": 103
    },
    {
      "midi": 73,
      "hit": false,
      "t": 120305,
      "d": 535,
      "v": 107
    },
    {
      "midi": 76,
      "hit": false,
      "t": 120310,
      "d": 470,
      "v": 107
    },
    {
      "midi": 72,
      "hit": false,
      "t": 120955,
      "d": 245,
      "v": 107
    },
    {
      "midi": 69,
      "hit": false,
      "t": 120960,
      "d": 225,
      "v": 98
    },
    {
      "midi": 78,
      "hit": false,
      "t": 120965,
      "d": 215,
      "v": 98
    },
    {
      "midi": 50,
      "hit": false,
      "t": 120970,
      "d": 235,
      "v": 91
    },
    {
      "midi": 38,
      "hit": false,
      "t": 121005,
      "d": 175,
      "v": 92
    },
    {
      "midi": 38,
      "hit": false,
      "t": 121265,
      "d": 135,
      "v": 92
    },
    {
      "midi": 78,
      "hit": false,
      "t": 121270,
      "d": 105,
      "v": 97
    },
    {
      "midi": 50,
      "hit": false,
      "t": 121270,
      "d": 110,
      "v": 95
    },
    {
      "midi": 72,
      "hit": false,
      "t": 121275,
      "d": 100,
      "v": 103
    },
    {
      "midi": 69,
      "hit": false,
      "t": 121275,
      "d": 125,
      "v": 94
    },
    {
      "midi": 69,
      "hit": false,
      "t": 121745,
      "d": 460,
      "v": 103
    },
    {
      "midi": 78,
      "hit": false,
      "t": 121750,
      "d": 440,
      "v": 102
    },
    {
      "midi": 72,
      "hit": false,
      "t": 121750,
      "d": 460,
      "v": 111
    },
    {
      "midi": 50,
      "hit": false,
      "t": 121755,
      "d": 260,
      "v": 96
    },
    {
      "midi": 38,
      "hit": false,
      "t": 121755,
      "d": 1060,
      "v": 97
    },
    {
      "midi": 50,
      "hit": false,
      "t": 122210,
      "d": 645,
      "v": 102
    },
    {
      "midi": 69,
      "hit": false,
      "t": 122380,
      "d": 420,
      "v": 103
    },
    {
      "midi": 72,
      "hit": false,
      "t": 122385,
      "d": 410,
      "v": 111
    },
    {
      "midi": 78,
      "hit": false,
      "t": 122385,
      "d": 435,
      "v": 102
    },
    {
      "midi": 71,
      "hit": false,
      "t": 122875,
      "d": 325,
      "v": 105
    },
    {
      "midi": 74,
      "hit": false,
      "t": 122875,
      "d": 325,
      "v": 99
    },
    {
      "midi": 67,
      "hit": false,
      "t": 123180,
      "d": 145,
      "v": 91
    },
    {
      "midi": 71,
      "hit": false,
      "t": 123345,
      "d": 335,
      "v": 99
    },
    {
      "midi": 74,
      "hit": false,
      "t": 123345,
      "d": 340,
      "v": 96
    },
    {
      "midi": 67,
      "hit": false,
      "t": 123660,
      "d": 150,
      "v": 91
    },
    {
      "midi": 74,
      "hit": false,
      "t": 123825,
      "d": 330,
      "v": 95
    },
    {
      "midi": 71,
      "hit": false,
      "t": 123830,
      "d": 325,
      "v": 99
    },
    {
      "midi": 67,
      "hit": false,
      "t": 124135,
      "d": 150,
      "v": 91
    },
    {
      "midi": 71,
      "hit": false,
      "t": 124300,
      "d": 380,
      "v": 100
    },
    {
      "midi": 74,
      "hit": false,
      "t": 124300,
      "d": 395,
      "v": 97
    },
    {
      "midi": 67,
      "hit": false,
      "t": 124605,
      "d": 255,
      "v": 93
    },
    {
      "midi": 69,
      "hit": false,
      "t": 124785,
      "d": 375,
      "v": 96
    },
    {
      "midi": 72,
      "hit": false,
      "t": 124790,
      "d": 365,
      "v": 99
    },
    {
      "midi": 74,
      "hit": false,
      "t": 124790,
      "d": 370,
      "v": 96
    },
    {
      "midi": 67,
      "hit": false,
      "t": 125115,
      "d": 150,
      "v": 92
    },
    {
      "midi": 69,
      "hit": false,
      "t": 125270,
      "d": 345,
      "v": 94
    },
    {
      "midi": 72,
      "hit": false,
      "t": 125290,
      "d": 325,
      "v": 99
    },
    {
      "midi": 74,
      "hit": false,
      "t": 125290,
      "d": 330,
      "v": 94
    },
    {
      "midi": 67,
      "hit": false,
      "t": 125595,
      "d": 135,
      "v": 89
    },
    {
      "midi": 69,
      "hit": false,
      "t": 125760,
      "d": 315,
      "v": 94
    },
    {
      "midi": 72,
      "hit": false,
      "t": 125765,
      "d": 330,
      "v": 99
    },
    {
      "midi": 74,
      "hit": false,
      "t": 125765,
      "d": 330,
      "v": 94
    },
    {
      "midi": 67,
      "hit": false,
      "t": 126070,
      "d": 125,
      "v": 90
    },
    {
      "midi": 69,
      "hit": false,
      "t": 126225,
      "d": 365,
      "v": 96
    },
    {
      "midi": 74,
      "hit": false,
      "t": 126230,
      "d": 360,
      "v": 94
    },
    {
      "midi": 72,
      "hit": false,
      "t": 126260,
      "d": 335,
      "v": 102
    },
    {
      "midi": 67,
      "hit": false,
      "t": 126550,
      "d": 225,
      "v": 92
    },
    {
      "midi": 71,
      "hit": false,
      "t": 126715,
      "d": 370,
      "v": 103
    },
    {
      "midi": 74,
      "hit": false,
      "t": 126715,
      "d": 370,
      "v": 96
    },
    {
      "midi": 67,
      "hit": false,
      "t": 127030,
      "d": 135,
      "v": 91
    },
    {
      "midi": 74,
      "hit": false,
      "t": 127205,
      "d": 370,
      "v": 95
    },
    {
      "midi": 71,
      "hit": false,
      "t": 127210,
      "d": 365,
      "v": 98
    },
    {
      "midi": 67,
      "hit": false,
      "t": 127530,
      "d": 140,
      "v": 92
    },
    {
      "midi": 71,
      "hit": false,
      "t": 127685,
      "d": 350,
      "v": 98
    },
    {
      "midi": 74,
      "hit": false,
      "t": 127685,
      "d": 350,
      "v": 95
    },
    {
      "midi": 67,
      "hit": false,
      "t": 127990,
      "d": 125,
      "v": 92
    },
    {
      "midi": 71,
      "hit": false,
      "t": 128160,
      "d": 360,
      "v": 98
    },
    {
      "midi": 74,
      "hit": false,
      "t": 128160,
      "d": 380,
      "v": 95
    },
    {
      "midi": 67,
      "hit": false,
      "t": 128465,
      "d": 250,
      "v": 95
    },
    {
      "midi": 69,
      "hit": false,
      "t": 128645,
      "d": 340,
      "v": 94
    },
    {
      "midi": 74,
      "hit": false,
      "t": 128645,
      "d": 360,
      "v": 95
    },
    {
      "midi": 72,
      "hit": false,
      "t": 128650,
      "d": 355,
      "v": 97
    },
    {
      "midi": 67,
      "hit": false,
      "t": 128950,
      "d": 135,
      "v": 90
    },
    {
      "midi": 69,
      "hit": false,
      "t": 129140,
      "d": 315,
      "v": 93
    },
    {
      "midi": 72,
      "hit": false,
      "t": 129145,
      "d": 315,
      "v": 97
    },
    {
      "midi": 74,
      "hit": false,
      "t": 129145,
      "d": 315,
      "v": 94
    },
    {
      "midi": 67,
      "hit": false,
      "t": 129410,
      "d": 130,
      "v": 90
    },
    {
      "midi": 72,
      "hit": false,
      "t": 129610,
      "d": 235,
      "v": 93
    },
    {
      "midi": 69,
      "hit": false,
      "t": 129610,
      "d": 250,
      "v": 92
    },
    {
      "midi": 74,
      "hit": false,
      "t": 129610,
      "d": 265,
      "v": 91
    },
    {
      "midi": 48,
      "hit": false,
      "t": 130555,
      "d": 215,
      "v": 111
    },
    {
      "midi": 48,
      "hit": false,
      "t": 130865,
      "d": 210,
      "v": 103
    },
    {
      "midi": 60,
      "hit": false,
      "t": 131040,
      "d": 220,
      "v": 100
    },
    {
      "midi": 64,
      "hit": false,
      "t": 131045,
      "d": 220,
      "v": 103
    },
    {
      "midi": 67,
      "hit": false,
      "t": 131050,
      "d": 210,
      "v": 107
    },
    {
      "midi": 64,
      "hit": false,
      "t": 131365,
      "d": 190,
      "v": 105
    },
    {
      "midi": 67,
      "hit": false,
      "t": 131365,
      "d": 190,
      "v": 107
    },
    {
      "midi": 60,
      "hit": false,
      "t": 131370,
      "d": 205,
      "v": 100
    },
    {
      "midi": 50,
      "hit": false,
      "t": 131830,
      "d": 240,
      "v": 105
    },
    {
      "midi": 66,
      "hit": false,
      "t": 132000,
      "d": 290,
      "v": 107
    },
    {
      "midi": 62,
      "hit": false,
      "t": 132000,
      "d": 320,
      "v": 100
    },
    {
      "midi": 69,
      "hit": false,
      "t": 132005,
      "d": 300,
      "v": 109
    },
    {
      "midi": 47,
      "hit": false,
      "t": 132815,
      "d": 200,
      "v": 97
    },
    {
      "midi": 62,
      "hit": false,
      "t": 132975,
      "d": 205,
      "v": 97
    },
    {
      "midi": 66,
      "hit": false,
      "t": 132975,
      "d": 205,
      "v": 104
    },
    {
      "midi": 69,
      "hit": false,
      "t": 132980,
      "d": 185,
      "v": 103
    },
    {
      "midi": 62,
      "hit": false,
      "t": 133270,
      "d": 215,
      "v": 98
    },
    {
      "midi": 66,
      "hit": false,
      "t": 133270,
      "d": 230,
      "v": 109
    },
    {
      "midi": 69,
      "hit": false,
      "t": 133275,
      "d": 225,
      "v": 105
    },
    {
      "midi": 47,
      "hit": false,
      "t": 133745,
      "d": 270,
      "v": 92
    },
    {
      "midi": 78,
      "hit": false,
      "t": 133935,
      "d": 190,
      "v": 102
    },
    {
      "midi": 69,
      "hit": false,
      "t": 133935,
      "d": 195,
      "v": 98
    },
    {
      "midi": 74,
      "hit": false,
      "t": 133940,
      "d": 185,
      "v": 107
    },
    {
      "midi": 74,
      "hit": false,
      "t": 134205,
      "d": 185,
      "v": 107
    },
    {
      "midi": 78,
      "hit": false,
      "t": 134205,
      "d": 190,
      "v": 109
    },
    {
      "midi": 69,
      "hit": false,
      "t": 134205,
      "d": 250,
      "v": 99
    },
    {
      "midi": 48,
      "hit": false,
      "t": 134395,
      "d": 205,
      "v": 98
    },
    {
      "midi": 60,
      "hit": false,
      "t": 134395,
      "d": 205,
      "v": 103
    },
    {
      "midi": 48,
      "hit": false,
      "t": 134700,
      "d": 230,
      "v": 95
    },
    {
      "midi": 60,
      "hit": false,
      "t": 134700,
      "d": 235,
      "v": 95
    },
    {
      "midi": 67,
      "hit": false,
      "t": 134875,
      "d": 215,
      "v": 100
    },
    {
      "midi": 76,
      "hit": false,
      "t": 134880,
      "d": 195,
      "v": 100
    },
    {
      "midi": 72,
      "hit": false,
      "t": 134885,
      "d": 205,
      "v": 103
    },
    {
      "midi": 76,
      "hit": false,
      "t": 135175,
      "d": 210,
      "v": 98
    },
    {
      "midi": 72,
      "hit": false,
      "t": 135180,
      "d": 185,
      "v": 103
    },
    {
      "midi": 67,
      "hit": false,
      "t": 135180,
      "d": 190,
      "v": 99
    },
    {
      "midi": 50,
      "hit": false,
      "t": 135680,
      "d": 310,
      "v": 97
    },
    {
      "midi": 62,
      "hit": false,
      "t": 135680,
      "d": 365,
      "v": 97
    },
    {
      "midi": 78,
      "hit": false,
      "t": 135855,
      "d": 250,
      "v": 107
    },
    {
      "midi": 74,
      "hit": false,
      "t": 135860,
      "d": 230,
      "v": 110
    },
    {
      "midi": 69,
      "hit": false,
      "t": 135860,
      "d": 260,
      "v": 105
    },
    {
      "midi": 52,
      "hit": false,
      "t": 136330,
      "d": 170,
      "v": 96
    },
    {
      "midi": 64,
      "hit": false,
      "t": 136330,
      "d": 200,
      "v": 96
    },
    {
      "midi": 64,
      "hit": false,
      "t": 136625,
      "d": 285,
      "v": 98
    },
    {
      "midi": 52,
      "hit": false,
      "t": 136625,
      "d": 315,
      "v": 96
    },
    {
      "midi": 67,
      "hit": false,
      "t": 136785,
      "d": 200,
      "v": 102
    },
    {
      "midi": 76,
      "hit": false,
      "t": 136790,
      "d": 195,
      "v": 100
    },
    {
      "midi": 71,
      "hit": false,
      "t": 136790,
      "d": 215,
      "v": 105
    },
    {
      "midi": 71,
      "hit": false,
      "t": 137090,
      "d": 215,
      "v": 105
    },
    {
      "midi": 67,
      "hit": false,
      "t": 137090,
      "d": 235,
      "v": 102
    },
    {
      "midi": 76,
      "hit": false,
      "t": 137090,
      "d": 235,
      "v": 96
    },
    {
      "midi": 48,
      "hit": false,
      "t": 137275,
      "d": 225,
      "v": 102
    },
    {
      "midi": 60,
      "hit": false,
      "t": 137280,
      "d": 235,
      "v": 103
    },
    {
      "midi": 48,
      "hit": false,
      "t": 137585,
      "d": 230,
      "v": 93
    },
    {
      "midi": 60,
      "hit": false,
      "t": 137585,
      "d": 250,
      "v": 102
    },
    {
      "midi": 67,
      "hit": false,
      "t": 137760,
      "d": 195,
      "v": 110
    },
    {
      "midi": 76,
      "hit": false,
      "t": 137765,
      "d": 195,
      "v": 103
    },
    {
      "midi": 72,
      "hit": false,
      "t": 137765,
      "d": 210,
      "v": 109
    },
    {
      "midi": 76,
      "hit": false,
      "t": 138060,
      "d": 225,
      "v": 96
    },
    {
      "midi": 72,
      "hit": false,
      "t": 138065,
      "d": 185,
      "v": 109
    },
    {
      "midi": 67,
      "hit": false,
      "t": 138065,
      "d": 205,
      "v": 100
    },
    {
      "midi": 43,
      "hit": false,
      "t": 138235,
      "d": 230,
      "v": 100
    },
    {
      "midi": 55,
      "hit": false,
      "t": 138235,
      "d": 235,
      "v": 103
    },
    {
      "midi": 43,
      "hit": false,
      "t": 138540,
      "d": 205,
      "v": 95
    },
    {
      "midi": 55,
      "hit": false,
      "t": 138545,
      "d": 205,
      "v": 95
    },
    {
      "midi": 71,
      "hit": false,
      "t": 138705,
      "d": 315,
      "v": 102
    },
    {
      "midi": 62,
      "hit": false,
      "t": 138705,
      "d": 330,
      "v": 96
    },
    {
      "midi": 67,
      "hit": false,
      "t": 138705,
      "d": 330,
      "v": 107
    },
    {
      "midi": 67,
      "hit": false,
      "t": 139175,
      "d": 375,
      "v": 109
    },
    {
      "midi": 62,
      "hit": false,
      "t": 139180,
      "d": 350,
      "v": 97
    },
    {
      "midi": 71,
      "hit": false,
      "t": 139200,
      "d": 330,
      "v": 103
    },
    {
      "midi": 62,
      "hit": false,
      "t": 139675,
      "d": 365,
      "v": 98
    },
    {
      "midi": 67,
      "hit": false,
      "t": 139675,
      "d": 365,
      "v": 111
    },
    {
      "midi": 71,
      "hit": false,
      "t": 139680,
      "d": 375,
      "v": 107
    },
    {
      "midi": 55,
      "hit": false,
      "t": 139995,
      "d": 235,
      "v": 95
    },
    {
      "midi": 43,
      "hit": false,
      "t": 140000,
      "d": 215,
      "v": 89
    },
    {
      "midi": 48,
      "hit": false,
      "t": 140170,
      "d": 250,
      "v": 110
    },
    {
      "midi": 48,
      "hit": false,
      "t": 140490,
      "d": 250,
      "v": 97
    },
    {
      "midi": 67,
      "hit": false,
      "t": 140635,
      "d": 330,
      "v": 98
    },
    {
      "midi": 72,
      "hit": false,
      "t": 140640,
      "d": 360,
      "v": 107
    },
    {
      "midi": 76,
      "hit": false,
      "t": 140645,
      "d": 340,
      "v": 98
    },
    {
      "midi": 67,
      "hit": false,
      "t": 141130,
      "d": 330,
      "v": 105
    },
    {
      "midi": 76,
      "hit": false,
      "t": 141135,
      "d": 340,
      "v": 96
    },
    {
      "midi": 72,
      "hit": false,
      "t": 141140,
      "d": 350,
      "v": 109
    },
    {
      "midi": 72,
      "hit": false,
      "t": 141590,
      "d": 345,
      "v": 109
    },
    {
      "midi": 67,
      "hit": false,
      "t": 141595,
      "d": 315,
      "v": 105
    },
    {
      "midi": 76,
      "hit": false,
      "t": 141595,
      "d": 340,
      "v": 99
    },
    {
      "midi": 48,
      "hit": false,
      "t": 141910,
      "d": 230,
      "v": 107
    },
    {
      "midi": 43,
      "hit": false,
      "t": 142075,
      "d": 190,
      "v": 98
    },
    {
      "midi": 55,
      "hit": false,
      "t": 142075,
      "d": 210,
      "v": 100
    },
    {
      "midi": 55,
      "hit": false,
      "t": 142370,
      "d": 260,
      "v": 94
    },
    {
      "midi": 43,
      "hit": false,
      "t": 142370,
      "d": 290,
      "v": 96
    },
    {
      "midi": 67,
      "hit": false,
      "t": 142530,
      "d": 215,
      "v": 105
    },
    {
      "midi": 59,
      "hit": false,
      "t": 142550,
      "d": 210,
      "v": 95
    },
    {
      "midi": 62,
      "hit": false,
      "t": 142555,
      "d": 205,
      "v": 100
    },
    {
      "midi": 67,
      "hit": false,
      "t": 142850,
      "d": 240,
      "v": 102
    },
    {
      "midi": 62,
      "hit": false,
      "t": 142870,
      "d": 200,
      "v": 102
    },
    {
      "midi": 59,
      "hit": false,
      "t": 142870,
      "d": 215,
      "v": 96
    },
    {
      "midi": 52,
      "hit": false,
      "t": 143025,
      "d": 205,
      "v": 97
    },
    {
      "midi": 40,
      "hit": false,
      "t": 143030,
      "d": 200,
      "v": 95
    },
    {
      "midi": 40,
      "hit": false,
      "t": 143340,
      "d": 235,
      "v": 93
    },
    {
      "midi": 52,
      "hit": false,
      "t": 143345,
      "d": 245,
      "v": 99
    },
    {
      "midi": 64,
      "hit": false,
      "t": 143505,
      "d": 225,
      "v": 105
    },
    {
      "midi": 71,
      "hit": false,
      "t": 143505,
      "d": 225,
      "v": 105
    },
    {
      "midi": 67,
      "hit": false,
      "t": 143510,
      "d": 240,
      "v": 111
    },
    {
      "midi": 64,
      "hit": false,
      "t": 143820,
      "d": 200,
      "v": 97
    },
    {
      "midi": 67,
      "hit": false,
      "t": 143825,
      "d": 170,
      "v": 110
    },
    {
      "midi": 71,
      "hit": false,
      "t": 143825,
      "d": 190,
      "v": 102
    },
    {
      "midi": 45,
      "hit": false,
      "t": 143995,
      "d": 760,
      "v": 93
    },
    {
      "midi": 57,
      "hit": false,
      "t": 143995,
      "d": 775,
      "v": 102
    },
    {
      "midi": 69,
      "hit": false,
      "t": 144450,
      "d": 230,
      "v": 97
    },
    {
      "midi": 76,
      "hit": false,
      "t": 144470,
      "d": 195,
      "v": 99
    },
    {
      "midi": 73,
      "hit": false,
      "t": 144475,
      "d": 225,
      "v": 100
    },
    {
      "midi": 73,
      "hit": false,
      "t": 144790,
      "d": 120,
      "v": 99
    },
    {
      "midi": 76,
      "hit": false,
      "t": 144790,
      "d": 120,
      "v": 94
    },
    {
      "midi": 69,
      "hit": false,
      "t": 144795,
      "d": 120,
      "v": 94
    },
    {
      "midi": 57,
      "hit": false,
      "t": 144950,
      "d": 785,
      "v": 95
    },
    {
      "midi": 45,
      "hit": false,
      "t": 144955,
      "d": 845,
      "v": 93
    },
    {
      "midi": 69,
      "hit": false,
      "t": 145250,
      "d": 545,
      "v": 103
    },
    {
      "midi": 73,
      "hit": false,
      "t": 145265,
      "d": 535,
      "v": 107
    },
    {
      "midi": 76,
      "hit": false,
      "t": 145270,
      "d": 470,
      "v": 107
    },
    {
      "midi": 38,
      "hit": false,
      "t": 145915,
      "d": 1040,
      "v": 100
    },
    {
      "midi": 50,
      "hit": false,
      "t": 145915,
      "d": 1045,
      "v": 99
    },
    {
      "midi": 69,
      "hit": false,
      "t": 146225,
      "d": 95,
      "v": 94
    },
    {
      "midi": 78,
      "hit": false,
      "t": 146225,
      "d": 115,
      "v": 97
    },
    {
      "midi": 74,
      "hit": false,
      "t": 146230,
      "d": 75,
      "v": 98
    },
    {
      "midi": 69,
      "hit": false,
      "t": 146715,
      "d": 455,
      "v": 99
    },
    {
      "midi": 74,
      "hit": false,
      "t": 146720,
      "d": 445,
      "v": 103
    },
    {
      "midi": 78,
      "hit": false,
      "t": 146720,
      "d": 455,
      "v": 100
    },
    {
      "midi": 50,
      "hit": false,
      "t": 147165,
      "d": 600,
      "v": 93
    },
    {
      "midi": 38,
      "hit": false,
      "t": 147170,
      "d": 565,
      "v": 94
    },
    {
      "midi": 69,
      "hit": false,
      "t": 147340,
      "d": 215,
      "v": 100
    },
    {
      "midi": 74,
      "hit": false,
      "t": 147340,
      "d": 215,
      "v": 105
    },
    {
      "midi": 78,
      "hit": false,
      "t": 147345,
      "d": 195,
      "v": 98
    },
    {
      "midi": 69,
      "hit": false,
      "t": 147655,
      "d": 115,
      "v": 97
    },
    {
      "midi": 78,
      "hit": false,
      "t": 147660,
      "d": 125,
      "v": 99
    },
    {
      "midi": 74,
      "hit": false,
      "t": 147660,
      "d": 130,
      "v": 105
    },
    {
      "midi": 48,
      "hit": false,
      "t": 147835,
      "d": 215,
      "v": 111
    },
    {
      "midi": 48,
      "hit": false,
      "t": 148145,
      "d": 210,
      "v": 103
    },
    {
      "midi": 60,
      "hit": false,
      "t": 148320,
      "d": 220,
      "v": 100
    },
    {
      "midi": 64,
      "hit": false,
      "t": 148325,
      "d": 220,
      "v": 103
    },
    {
      "midi": 67,
      "hit": false,
      "t": 148330,
      "d": 210,
      "v": 107
    },
    {
      "midi": 64,
      "hit": false,
      "t": 148645,
      "d": 190,
      "v": 105
    },
    {
      "midi": 67,
      "hit": false,
      "t": 148645,
      "d": 190,
      "v": 107
    },
    {
      "midi": 60,
      "hit": false,
      "t": 148650,
      "d": 205,
      "v": 100
    },
    {
      "midi": 50,
      "hit": false,
      "t": 149110,
      "d": 240,
      "v": 105
    },
    {
      "midi": 66,
      "hit": false,
      "t": 149280,
      "d": 290,
      "v": 107
    },
    {
      "midi": 62,
      "hit": false,
      "t": 149280,
      "d": 320,
      "v": 100
    },
    {
      "midi": 69,
      "hit": false,
      "t": 149285,
      "d": 300,
      "v": 109
    },
    {
      "midi": 47,
      "hit": false,
      "t": 150095,
      "d": 200,
      "v": 97
    },
    {
      "midi": 62,
      "hit": false,
      "t": 150255,
      "d": 205,
      "v": 97
    },
    {
      "midi": 66,
      "hit": false,
      "t": 150255,
      "d": 205,
      "v": 104
    },
    {
      "midi": 69,
      "hit": false,
      "t": 150260,
      "d": 185,
      "v": 103
    },
    {
      "midi": 62,
      "hit": false,
      "t": 150550,
      "d": 215,
      "v": 98
    },
    {
      "midi": 66,
      "hit": false,
      "t": 150550,
      "d": 230,
      "v": 109
    },
    {
      "midi": 69,
      "hit": false,
      "t": 150555,
      "d": 225,
      "v": 105
    },
    {
      "midi": 47,
      "hit": false,
      "t": 151025,
      "d": 270,
      "v": 92
    },
    {
      "midi": 78,
      "hit": false,
      "t": 151215,
      "d": 190,
      "v": 102
    },
    {
      "midi": 69,
      "hit": false,
      "t": 151215,
      "d": 195,
      "v": 98
    },
    {
      "midi": 74,
      "hit": false,
      "t": 151220,
      "d": 185,
      "v": 107
    },
    {
      "midi": 74,
      "hit": false,
      "t": 151485,
      "d": 185,
      "v": 107
    },
    {
      "midi": 78,
      "hit": false,
      "t": 151485,
      "d": 190,
      "v": 109
    },
    {
      "midi": 69,
      "hit": false,
      "t": 151485,
      "d": 250,
      "v": 99
    },
    {
      "midi": 48,
      "hit": false,
      "t": 151675,
      "d": 205,
      "v": 98
    },
    {
      "midi": 60,
      "hit": false,
      "t": 151675,
      "d": 205,
      "v": 103
    },
    {
      "midi": 48,
      "hit": false,
      "t": 151980,
      "d": 230,
      "v": 95
    },
    {
      "midi": 60,
      "hit": false,
      "t": 151980,
      "d": 235,
      "v": 95
    },
    {
      "midi": 67,
      "hit": false,
      "t": 152155,
      "d": 215,
      "v": 100
    },
    {
      "midi": 76,
      "hit": false,
      "t": 152160,
      "d": 195,
      "v": 100
    },
    {
      "midi": 72,
      "hit": false,
      "t": 152165,
      "d": 205,
      "v": 103
    },
    {
      "midi": 76,
      "hit": false,
      "t": 152455,
      "d": 210,
      "v": 98
    },
    {
      "midi": 72,
      "hit": false,
      "t": 152460,
      "d": 185,
      "v": 103
    },
    {
      "midi": 67,
      "hit": false,
      "t": 152460,
      "d": 190,
      "v": 99
    },
    {
      "midi": 50,
      "hit": false,
      "t": 152960,
      "d": 310,
      "v": 97
    },
    {
      "midi": 62,
      "hit": false,
      "t": 152960,
      "d": 365,
      "v": 97
    },
    {
      "midi": 78,
      "hit": false,
      "t": 153135,
      "d": 250,
      "v": 107
    },
    {
      "midi": 74,
      "hit": false,
      "t": 153140,
      "d": 230,
      "v": 110
    },
    {
      "midi": 69,
      "hit": false,
      "t": 153140,
      "d": 260,
      "v": 105
    },
    {
      "midi": 52,
      "hit": false,
      "t": 153610,
      "d": 170,
      "v": 96
    },
    {
      "midi": 64,
      "hit": false,
      "t": 153610,
      "d": 200,
      "v": 96
    },
    {
      "midi": 64,
      "hit": false,
      "t": 153905,
      "d": 285,
      "v": 98
    },
    {
      "midi": 52,
      "hit": false,
      "t": 153905,
      "d": 315,
      "v": 96
    },
    {
      "midi": 67,
      "hit": false,
      "t": 154065,
      "d": 200,
      "v": 102
    },
    {
      "midi": 76,
      "hit": false,
      "t": 154070,
      "d": 195,
      "v": 100
    },
    {
      "midi": 71,
      "hit": false,
      "t": 154070,
      "d": 215,
      "v": 105
    },
    {
      "midi": 71,
      "hit": false,
      "t": 154370,
      "d": 215,
      "v": 105
    },
    {
      "midi": 67,
      "hit": false,
      "t": 154370,
      "d": 235,
      "v": 102
    },
    {
      "midi": 76,
      "hit": false,
      "t": 154370,
      "d": 235,
      "v": 96
    },
    {
      "midi": 48,
      "hit": false,
      "t": 154555,
      "d": 225,
      "v": 102
    },
    {
      "midi": 60,
      "hit": false,
      "t": 154560,
      "d": 235,
      "v": 103
    },
    {
      "midi": 48,
      "hit": false,
      "t": 154865,
      "d": 230,
      "v": 93
    },
    {
      "midi": 60,
      "hit": false,
      "t": 154865,
      "d": 250,
      "v": 102
    },
    {
      "midi": 67,
      "hit": false,
      "t": 155040,
      "d": 195,
      "v": 110
    },
    {
      "midi": 76,
      "hit": false,
      "t": 155045,
      "d": 195,
      "v": 103
    },
    {
      "midi": 72,
      "hit": false,
      "t": 155045,
      "d": 210,
      "v": 109
    },
    {
      "midi": 76,
      "hit": false,
      "t": 155340,
      "d": 225,
      "v": 96
    },
    {
      "midi": 72,
      "hit": false,
      "t": 155345,
      "d": 185,
      "v": 109
    },
    {
      "midi": 67,
      "hit": false,
      "t": 155345,
      "d": 205,
      "v": 100
    },
    {
      "midi": 43,
      "hit": false,
      "t": 155515,
      "d": 230,
      "v": 100
    },
    {
      "midi": 55,
      "hit": false,
      "t": 155515,
      "d": 235,
      "v": 103
    },
    {
      "midi": 43,
      "hit": false,
      "t": 155820,
      "d": 205,
      "v": 95
    },
    {
      "midi": 55,
      "hit": false,
      "t": 155825,
      "d": 205,
      "v": 95
    },
    {
      "midi": 71,
      "hit": false,
      "t": 155985,
      "d": 315,
      "v": 102
    },
    {
      "midi": 62,
      "hit": false,
      "t": 155985,
      "d": 330,
      "v": 96
    },
    {
      "midi": 67,
      "hit": false,
      "t": 155985,
      "d": 330,
      "v": 107
    },
    {
      "midi": 67,
      "hit": false,
      "t": 156455,
      "d": 375,
      "v": 109
    },
    {
      "midi": 62,
      "hit": false,
      "t": 156460,
      "d": 350,
      "v": 97
    },
    {
      "midi": 71,
      "hit": false,
      "t": 156480,
      "d": 330,
      "v": 103
    },
    {
      "midi": 62,
      "hit": false,
      "t": 156955,
      "d": 365,
      "v": 98
    },
    {
      "midi": 67,
      "hit": false,
      "t": 156955,
      "d": 365,
      "v": 111
    },
    {
      "midi": 71,
      "hit": false,
      "t": 156960,
      "d": 375,
      "v": 107
    },
    {
      "midi": 55,
      "hit": false,
      "t": 157275,
      "d": 235,
      "v": 95
    },
    {
      "midi": 43,
      "hit": false,
      "t": 157280,
      "d": 215,
      "v": 89
    },
    {
      "midi": 48,
      "hit": false,
      "t": 157450,
      "d": 250,
      "v": 110
    },
    {
      "midi": 48,
      "hit": false,
      "t": 157770,
      "d": 250,
      "v": 97
    },
    {
      "midi": 67,
      "hit": false,
      "t": 157915,
      "d": 330,
      "v": 98
    },
    {
      "midi": 72,
      "hit": false,
      "t": 157920,
      "d": 360,
      "v": 107
    },
    {
      "midi": 76,
      "hit": false,
      "t": 157925,
      "d": 340,
      "v": 98
    },
    {
      "midi": 67,
      "hit": false,
      "t": 158410,
      "d": 330,
      "v": 105
    },
    {
      "midi": 76,
      "hit": false,
      "t": 158415,
      "d": 340,
      "v": 96
    },
    {
      "midi": 72,
      "hit": false,
      "t": 158420,
      "d": 350,
      "v": 109
    },
    {
      "midi": 72,
      "hit": false,
      "t": 158870,
      "d": 345,
      "v": 109
    },
    {
      "midi": 67,
      "hit": false,
      "t": 158875,
      "d": 315,
      "v": 105
    },
    {
      "midi": 76,
      "hit": false,
      "t": 158875,
      "d": 340,
      "v": 99
    },
    {
      "midi": 48,
      "hit": false,
      "t": 159190,
      "d": 230,
      "v": 107
    },
    {
      "midi": 43,
      "hit": false,
      "t": 159355,
      "d": 190,
      "v": 98
    },
    {
      "midi": 55,
      "hit": false,
      "t": 159355,
      "d": 210,
      "v": 100
    },
    {
      "midi": 55,
      "hit": false,
      "t": 159650,
      "d": 260,
      "v": 94
    },
    {
      "midi": 43,
      "hit": false,
      "t": 159650,
      "d": 290,
      "v": 96
    },
    {
      "midi": 67,
      "hit": false,
      "t": 159810,
      "d": 215,
      "v": 105
    },
    {
      "midi": 59,
      "hit": false,
      "t": 159830,
      "d": 210,
      "v": 95
    },
    {
      "midi": 62,
      "hit": false,
      "t": 159835,
      "d": 205,
      "v": 100
    },
    {
      "midi": 67,
      "hit": false,
      "t": 160130,
      "d": 240,
      "v": 102
    },
    {
      "midi": 62,
      "hit": false,
      "t": 160150,
      "d": 200,
      "v": 102
    },
    {
      "midi": 59,
      "hit": false,
      "t": 160150,
      "d": 215,
      "v": 96
    },
    {
      "midi": 52,
      "hit": false,
      "t": 160305,
      "d": 205,
      "v": 97
    },
    {
      "midi": 40,
      "hit": false,
      "t": 160310,
      "d": 200,
      "v": 95
    },
    {
      "midi": 40,
      "hit": false,
      "t": 160620,
      "d": 235,
      "v": 93
    },
    {
      "midi": 52,
      "hit": false,
      "t": 160625,
      "d": 245,
      "v": 99
    },
    {
      "midi": 64,
      "hit": false,
      "t": 160785,
      "d": 225,
      "v": 105
    },
    {
      "midi": 71,
      "hit": false,
      "t": 160785,
      "d": 225,
      "v": 105
    },
    {
      "midi": 67,
      "hit": false,
      "t": 160790,
      "d": 240,
      "v": 111
    },
    {
      "midi": 64,
      "hit": false,
      "t": 161100,
      "d": 200,
      "v": 97
    },
    {
      "midi": 67,
      "hit": false,
      "t": 161105,
      "d": 170,
      "v": 110
    },
    {
      "midi": 71,
      "hit": false,
      "t": 161105,
      "d": 190,
      "v": 102
    },
    {
      "midi": 45,
      "hit": false,
      "t": 161275,
      "d": 760,
      "v": 93
    },
    {
      "midi": 57,
      "hit": false,
      "t": 161275,
      "d": 775,
      "v": 102
    },
    {
      "midi": 69,
      "hit": false,
      "t": 161730,
      "d": 230,
      "v": 97
    },
    {
      "midi": 76,
      "hit": false,
      "t": 161750,
      "d": 195,
      "v": 99
    },
    {
      "midi": 73,
      "hit": false,
      "t": 161755,
      "d": 225,
      "v": 100
    },
    {
      "midi": 73,
      "hit": false,
      "t": 162070,
      "d": 120,
      "v": 99
    },
    {
      "midi": 76,
      "hit": false,
      "t": 162070,
      "d": 120,
      "v": 94
    },
    {
      "midi": 69,
      "hit": false,
      "t": 162075,
      "d": 120,
      "v": 94
    },
    {
      "midi": 57,
      "hit": false,
      "t": 162230,
      "d": 785,
      "v": 95
    },
    {
      "midi": 45,
      "hit": false,
      "t": 162235,
      "d": 845,
      "v": 93
    },
    {
      "midi": 69,
      "hit": false,
      "t": 162530,
      "d": 545,
      "v": 103
    },
    {
      "midi": 73,
      "hit": false,
      "t": 162545,
      "d": 535,
      "v": 107
    },
    {
      "midi": 76,
      "hit": false,
      "t": 162550,
      "d": 470,
      "v": 107
    },
    {
      "midi": 38,
      "hit": false,
      "t": 163195,
      "d": 1040,
      "v": 100
    },
    {
      "midi": 50,
      "hit": false,
      "t": 163195,
      "d": 1045,
      "v": 99
    },
    {
      "midi": 69,
      "hit": false,
      "t": 163505,
      "d": 95,
      "v": 94
    },
    {
      "midi": 78,
      "hit": false,
      "t": 163505,
      "d": 115,
      "v": 97
    },
    {
      "midi": 74,
      "hit": false,
      "t": 163510,
      "d": 75,
      "v": 98
    },
    {
      "midi": 69,
      "hit": false,
      "t": 163995,
      "d": 455,
      "v": 99
    },
    {
      "midi": 74,
      "hit": false,
      "t": 164000,
      "d": 445,
      "v": 103
    },
    {
      "midi": 78,
      "hit": false,
      "t": 164000,
      "d": 455,
      "v": 100
    },
    {
      "midi": 50,
      "hit": false,
      "t": 164445,
      "d": 600,
      "v": 93
    },
    {
      "midi": 38,
      "hit": false,
      "t": 164450,
      "d": 565,
      "v": 94
    },
    {
      "midi": 69,
      "hit": false,
      "t": 164620,
      "d": 215,
      "v": 100
    },
    {
      "midi": 74,
      "hit": false,
      "t": 164620,
      "d": 215,
      "v": 105
    },
    {
      "midi": 78,
      "hit": false,
      "t": 164625,
      "d": 195,
      "v": 98
    },
    {
      "midi": 69,
      "hit": false,
      "t": 164935,
      "d": 115,
      "v": 97
    },
    {
      "midi": 78,
      "hit": false,
      "t": 164940,
      "d": 125,
      "v": 99
    },
    {
      "midi": 74,
      "hit": false,
      "t": 164940,
      "d": 130,
      "v": 105
    },
    {
      "midi": 48,
      "hit": false,
      "t": 165115,
      "d": 215,
      "v": 111
    },
    {
      "midi": 48,
      "hit": false,
      "t": 165425,
      "d": 210,
      "v": 103
    },
    {
      "midi": 60,
      "hit": false,
      "t": 165600,
      "d": 220,
      "v": 100
    },
    {
      "midi": 64,
      "hit": false,
      "t": 165605,
      "d": 220,
      "v": 103
    },
    {
      "midi": 67,
      "hit": false,
      "t": 165610,
      "d": 210,
      "v": 107
    },
    {
      "midi": 64,
      "hit": false,
      "t": 165925,
      "d": 190,
      "v": 105
    },
    {
      "midi": 67,
      "hit": false,
      "t": 165925,
      "d": 190,
      "v": 107
    },
    {
      "midi": 60,
      "hit": false,
      "t": 165930,
      "d": 205,
      "v": 100
    },
    {
      "midi": 50,
      "hit": false,
      "t": 166390,
      "d": 240,
      "v": 105
    },
    {
      "midi": 66,
      "hit": false,
      "t": 166560,
      "d": 290,
      "v": 107
    },
    {
      "midi": 62,
      "hit": false,
      "t": 166560,
      "d": 320,
      "v": 100
    },
    {
      "midi": 69,
      "hit": false,
      "t": 166565,
      "d": 300,
      "v": 109
    },
    {
      "midi": 47,
      "hit": false,
      "t": 167035,
      "d": 230,
      "v": 99
    },
    {
      "midi": 47,
      "hit": false,
      "t": 167345,
      "d": 170,
      "v": 92
    },
    {
      "midi": 62,
      "hit": false,
      "t": 167505,
      "d": 240,
      "v": 96
    },
    {
      "midi": 66,
      "hit": false,
      "t": 167510,
      "d": 220,
      "v": 104
    },
    {
      "midi": 69,
      "hit": false,
      "t": 167515,
      "d": 200,
      "v": 103
    },
    {
      "midi": 66,
      "hit": false,
      "t": 167835,
      "d": 160,
      "v": 102
    },
    {
      "midi": 62,
      "hit": false,
      "t": 167835,
      "d": 190,
      "v": 95
    },
    {
      "midi": 69,
      "hit": false,
      "t": 167840,
      "d": 140,
      "v": 97
    },
    {
      "midi": 47,
      "hit": false,
      "t": 168000,
      "d": 250,
      "v": 93
    },
    {
      "midi": 69,
      "hit": false,
      "t": 168295,
      "d": 155,
      "v": 99
    },
    {
      "midi": 66,
      "hit": false,
      "t": 168295,
      "d": 160,
      "v": 104
    },
    {
      "midi": 62,
      "hit": false,
      "t": 168295,
      "d": 180,
      "v": 95
    },
    {
      "midi": 47,
      "hit": false,
      "t": 168480,
      "d": 220,
      "v": 91
    },
    {
      "midi": 66,
      "hit": false,
      "t": 168770,
      "d": 175,
      "v": 109
    },
    {
      "midi": 62,
      "hit": false,
      "t": 168770,
      "d": 195,
      "v": 99
    },
    {
      "midi": 69,
      "hit": false,
      "t": 168775,
      "d": 170,
      "v": 103
    },
    {
      "midi": 48,
      "hit": false,
      "t": 168955,
      "d": 355,
      "v": 109
    },
    {
      "midi": 67,
      "hit": false,
      "t": 169275,
      "d": 185,
      "v": 96
    },
    {
      "midi": 72,
      "hit": false,
      "t": 169280,
      "d": 180,
      "v": 99
    },
    {
      "midi": 76,
      "hit": false,
      "t": 169280,
      "d": 185,
      "v": 96
    },
    {
      "midi": 48,
      "hit": false,
      "t": 169460,
      "d": 325,
      "v": 102
    },
    {
      "midi": 67,
      "hit": false,
      "t": 169750,
      "d": 195,
      "v": 98
    },
    {
      "midi": 76,
      "hit": false,
      "t": 169750,
      "d": 200,
      "v": 98
    },
    {
      "midi": 72,
      "hit": false,
      "t": 169755,
      "d": 195,
      "v": 102
    },
    {
      "midi": 50,
      "hit": false,
      "t": 169945,
      "d": 310,
      "v": 102
    },
    {
      "midi": 69,
      "hit": false,
      "t": 170220,
      "d": 220,
      "v": 98
    },
    {
      "midi": 78,
      "hit": false,
      "t": 170225,
      "d": 195,
      "v": 102
    },
    {
      "midi": 74,
      "hit": false,
      "t": 170225,
      "d": 215,
      "v": 105
    },
    {
      "midi": 50,
      "hit": false,
      "t": 170415,
      "d": 325,
      "v": 99
    },
    {
      "midi": 78,
      "hit": false,
      "t": 170680,
      "d": 195,
      "v": 102
    },
    {
      "midi": 69,
      "hit": false,
      "t": 170680,
      "d": 220,
      "v": 97
    },
    {
      "midi": 74,
      "hit": false,
      "t": 170685,
      "d": 190,
      "v": 105
    },
    {
      "midi": 52,
      "hit": false,
      "t": 170870,
      "d": 720,
      "v": 105
    },
    {
      "midi": 71,
      "hit": false,
      "t": 171020,
      "d": 60,
      "v": 107
    },
    {
      "midi": 76,
      "hit": false,
      "t": 171020,
      "d": 65,
      "v": 93
    },
    {
      "midi": 67,
      "hit": false,
      "t": 171025,
      "d": 60,
      "v": 96
    },
    {
      "midi": 76,
      "hit": false,
      "t": 171190,
      "d": 85,
      "v": 96
    },
    {
      "midi": 67,
      "hit": false,
      "t": 171195,
      "d": 75,
      "v": 100
    },
    {
      "midi": 71,
      "hit": false,
      "t": 171215,
      "d": 55,
      "v": 107
    },
    {
      "midi": 76,
      "hit": false,
      "t": 171350,
      "d": 150,
      "v": 96
    },
    {
      "midi": 67,
      "hit": false,
      "t": 171355,
      "d": 180,
      "v": 102
    },
    {
      "midi": 71,
      "hit": false,
      "t": 171360,
      "d": 155,
      "v": 107
    },
    {
      "midi": 71,
      "hit": false,
      "t": 171665,
      "d": 270,
      "v": 107
    },
    {
      "midi": 76,
      "hit": false,
      "t": 171665,
      "d": 270,
      "v": 96
    },
    {
      "midi": 67,
      "hit": false,
      "t": 171670,
      "d": 250,
      "v": 100
    },
    {
      "midi": 48,
      "hit": false,
      "t": 171840,
      "d": 365,
      "v": 109
    },
    {
      "midi": 72,
      "hit": false,
      "t": 172145,
      "d": 245,
      "v": 109
    },
    {
      "midi": 67,
      "hit": false,
      "t": 172145,
      "d": 260,
      "v": 102
    },
    {
      "midi": 76,
      "hit": false,
      "t": 172145,
      "d": 265,
      "v": 102
    },
    {
      "midi": 48,
      "hit": false,
      "t": 172320,
      "d": 330,
      "v": 96
    },
    {
      "midi": 76,
      "hit": false,
      "t": 172615,
      "d": 225,
      "v": 103
    },
    {
      "midi": 67,
      "hit": false,
      "t": 172615,
      "d": 240,
      "v": 109
    },
    {
      "midi": 72,
      "hit": false,
      "t": 172620,
      "d": 200,
      "v": 111
    },
    {
      "midi": 43,
      "hit": false,
      "t": 172795,
      "d": 360,
      "v": 95
    },
    {
      "midi": 55,
      "hit": false,
      "t": 172795,
      "d": 380,
      "v": 93
    },
    {
      "midi": 62,
      "hit": false,
      "t": 173120,
      "d": 230,
      "v": 95
    },
    {
      "midi": 67,
      "hit": false,
      "t": 173125,
      "d": 195,
      "v": 105
    },
    {
      "midi": 71,
      "hit": false,
      "t": 173125,
      "d": 195,
      "v": 103
    },
    {
      "midi": 55,
      "hit": false,
      "t": 173290,
      "d": 375,
      "v": 94
    },
    {
      "midi": 43,
      "hit": false,
      "t": 173315,
      "d": 320,
      "v": 94
    },
    {
      "midi": 62,
      "hit": false,
      "t": 173610,
      "d": 220,
      "v": 94
    },
    {
      "midi": 67,
      "hit": false,
      "t": 173630,
      "d": 200,
      "v": 107
    },
    {
      "midi": 71,
      "hit": false,
      "t": 173635,
      "d": 170,
      "v": 103
    },
    {
      "midi": 43,
      "hit": false,
      "t": 173775,
      "d": 620,
      "v": 92
    },
    {
      "midi": 55,
      "hit": false,
      "t": 173780,
      "d": 615,
      "v": 96
    },
    {
      "midi": 62,
      "hit": false,
      "t": 173945,
      "d": 60,
      "v": 91
    },
    {
      "midi": 67,
      "hit": false,
      "t": 173945,
      "d": 60,
      "v": 99
    },
    {
      "midi": 71,
      "hit": false,
      "t": 173950,
      "d": 50,
      "v": 94
    },
    {
      "midi": 67,
      "hit": false,
      "t": 174110,
      "d": 55,
      "v": 105
    },
    {
      "midi": 71,
      "hit": false,
      "t": 174110,
      "d": 75,
      "v": 102
    },
    {
      "midi": 62,
      "hit": false,
      "t": 174115,
      "d": 70,
      "v": 93
    },
    {
      "midi": 71,
      "hit": false,
      "t": 174260,
      "d": 205,
      "v": 109
    },
    {
      "midi": 62,
      "hit": false,
      "t": 174265,
      "d": 220,
      "v": 98
    },
    {
      "midi": 67,
      "hit": false,
      "t": 174270,
      "d": 215,
      "v": 107
    },
    {
      "midi": 62,
      "hit": false,
      "t": 174575,
      "d": 210,
      "v": 96
    },
    {
      "midi": 71,
      "hit": false,
      "t": 174575,
      "d": 230,
      "v": 105
    },
    {
      "midi": 67,
      "hit": false,
      "t": 174580,
      "d": 205,
      "v": 107
    },
    {
      "midi": 48,
      "hit": false,
      "t": 174755,
      "d": 340,
      "v": 100
    },
    {
      "midi": 36,
      "hit": false,
      "t": 174760,
      "d": 335,
      "v": 100
    },
    {
      "midi": 67,
      "hit": false,
      "t": 175060,
      "d": 200,
      "v": 100
    },
    {
      "midi": 76,
      "hit": false,
      "t": 175065,
      "d": 195,
      "v": 100
    },
    {
      "midi": 72,
      "hit": false,
      "t": 175065,
      "d": 200,
      "v": 107
    },
    {
      "midi": 48,
      "hit": false,
      "t": 175220,
      "d": 595,
      "v": 98
    },
    {
      "midi": 36,
      "hit": false,
      "t": 175220,
      "d": 1270,
      "v": 96
    },
    {
      "midi": 76,
      "hit": false,
      "t": 175535,
      "d": 455,
      "v": 100
    },
    {
      "midi": 67,
      "hit": false,
      "t": 175540,
      "d": 470,
      "v": 105
    },
    {
      "midi": 72,
      "hit": false,
      "t": 175540,
      "d": 470,
      "v": 109
    },
    {
      "midi": 48,
      "hit": false,
      "t": 175990,
      "d": 530,
      "v": 99
    },
    {
      "midi": 67,
      "hit": false,
      "t": 176160,
      "d": 215,
      "v": 102
    },
    {
      "midi": 76,
      "hit": false,
      "t": 176165,
      "d": 195,
      "v": 97
    },
    {
      "midi": 72,
      "hit": false,
      "t": 176170,
      "d": 220,
      "v": 109
    },
    {
      "midi": 67,
      "hit": false,
      "t": 176460,
      "d": 200,
      "v": 103
    },
    {
      "midi": 76,
      "hit": false,
      "t": 176485,
      "d": 175,
      "v": 99
    },
    {
      "midi": 72,
      "hit": false,
      "t": 176490,
      "d": 175,
      "v": 111
    },
    {
      "midi": 43,
      "hit": false,
      "t": 176630,
      "d": 220,
      "v": 99
    },
    {
      "midi": 55,
      "hit": false,
      "t": 176630,
      "d": 235,
      "v": 99
    },
    {
      "midi": 43,
      "hit": false,
      "t": 176935,
      "d": 445,
      "v": 92
    },
    {
      "midi": 55,
      "hit": false,
      "t": 176940,
      "d": 435,
      "v": 92
    },
    {
      "midi": 71,
      "hit": false,
      "t": 177100,
      "d": 240,
      "v": 98
    },
    {
      "midi": 79,
      "hit": false,
      "t": 177100,
      "d": 245,
      "v": 103
    },
    {
      "midi": 74,
      "hit": false,
      "t": 177125,
      "d": 220,
      "v": 105
    },
    {
      "midi": 79,
      "hit": false,
      "t": 177430,
      "d": 145,
      "v": 99
    },
    {
      "midi": 71,
      "hit": false,
      "t": 177430,
      "d": 195,
      "v": 99
    },
    {
      "midi": 74,
      "hit": false,
      "t": 177435,
      "d": 155,
      "v": 103
    },
    {
      "midi": 52,
      "hit": false,
      "t": 177595,
      "d": 265,
      "v": 96
    },
    {
      "midi": 40,
      "hit": false,
      "t": 177620,
      "d": 240,
      "v": 97
    },
    {
      "midi": 52,
      "hit": false,
      "t": 177930,
      "d": 435,
      "v": 97
    },
    {
      "midi": 40,
      "hit": false,
      "t": 177935,
      "d": 400,
      "v": 95
    },
    {
      "midi": 67,
      "hit": false,
      "t": 178095,
      "d": 200,
      "v": 100
    },
    {
      "midi": 76,
      "hit": false,
      "t": 178095,
      "d": 205,
      "v": 102
    },
    {
      "midi": 71,
      "hit": false,
      "t": 178100,
      "d": 200,
      "v": 110
    },
    {
      "midi": 76,
      "hit": false,
      "t": 178395,
      "d": 405,
      "v": 97
    },
    {
      "midi": 67,
      "hit": false,
      "t": 178400,
      "d": 360,
      "v": 102
    },
    {
      "midi": 71,
      "hit": false,
      "t": 178400,
      "d": 400,
      "v": 109
    }
  ]
}