{
  "jsonPath": "Classical/Classical/Anton Bruckner/symphony-no-4-last-movement.json",
  "path": "Classical\\Classical\\Anton Bruckner\\Symphony No 4 - Last Movement.mid",
  "name": "Symphony No 4 - Last Movement",
  "difficulty": "Advanced",
  "bpm": 45.000011250002814,
  "notes": [
    {
      "midi": 65,
      "hit": false,
      "t": 0,
      "d": 2666.6659999999997,
      "v": 100
    },
    {
      "midi": 53,
      "hit": false,
      "t": 0,
      "d": 444.4443333333333,
      "v": 100
    },
    {
      "midi": 41,
      "hit": false,
      "t": 0,
      "d": 1333.3329999999999,
      "v": 100
    },
    {
      "midi": 55,
      "hit": false,
      "t": 444.4443333333333,
      "d": 444.4443333333333,
      "v": 100
    },
    {
      "midi": 53,
      "hit": false,
      "t": 888.8886666666666,
      "d": 444.44433333333325,
      "v": 100
    },
    {
      "midi": 55,
      "hit": false,
      "t": 1333.3329999999999,
      "d": 444.44433333333336,
      "v": 100
    },
    {
      "midi": 53,
      "hit": false,
      "t": 1777.7773333333332,
      "d": 444.44433333333313,
      "v": 100
    },
    {
      "midi": 55,
      "hit": false,
      "t": 2222.2216666666664,
      "d": 444.44433333333336,
      "v": 100
    },
    {
      "midi": 65,
      "hit": false,
      "t": 2666.6659999999997,
      "d": 2666.6659999999997,
      "v": 100
    },
    {
      "midi": 77,
      "hit": false,
      "t": 2666.6659999999997,
      "d": 2666.6659999999997,
      "v": 100
    },
    {
      "midi": 53,
      "hit": false,
      "t": 2666.6659999999997,
      "d": 444.44433333333336,
      "v": 100
    },
    {
      "midi": 41,
      "hit": false,
      "t": 2666.6659999999997,
      "d": 1333.333,
      "v": 100
    },
    {
      "midi": 55,
      "hit": false,
      "t": 3111.110333333333,
      "d": 444.44433333333336,
      "v": 100
    },
    {
      "midi": 53,
      "hit": false,
      "t": 3555.5546666666664,
      "d": 444.44433333333336,
      "v": 100
    },
    {
      "midi": 55,
      "hit": false,
      "t": 3999.999,
      "d": 444.4443333333329,
      "v": 100
    },
    {
      "midi": 53,
      "hit": false,
      "t": 4444.443333333333,
      "d": 444.4443333333329,
      "v": 100
    },
    {
      "midi": 55,
      "hit": false,
      "t": 4888.887666666666,
      "d": 444.4443333333329,
      "v": 100
    },
    {
      "midi": 53,
      "hit": false,
      "t": 5333.3319999999985,
      "d": 444.4443333333329,
      "v": 100
    },
    {
      "midi": 49,
      "hit": false,
      "t": 5333.3319999999985,
      "d": 1333.3329999999987,
      "v": 100
    },
    {
      "midi": 73,
      "hit": false,
      "t": 5333.331999999999,
      "d": 5333.331999999999,
      "v": 100
    },
    {
      "midi": 77,
      "hit": false,
      "t": 5333.331999999999,
      "d": 5333.331999999999,
      "v": 100
    },
    {
      "midi": 80,
      "hit": false,
      "t": 5333.331999999999,
      "d": 5333.331999999999,
      "v": 100
    },
    {
      "midi": 55,
      "hit": false,
      "t": 5777.776333333331,
      "d": 444.4443333333329,
      "v": 100
    },
    {
      "midi": 53,
      "hit": false,
      "t": 6222.220666666664,
      "d": 444.4443333333329,
      "v": 100
    },
    {
      "midi": 55,
      "hit": false,
      "t": 6666.664999999997,
      "d": 444.4443333333329,
      "v": 100
    },
    {
      "midi": 53,
      "hit": false,
      "t": 7111.10933333333,
      "d": 444.4443333333329,
      "v": 100
    },
    {
      "midi": 55,
      "hit": false,
      "t": 7555.553666666663,
      "d": 444.4443333333329,
      "v": 100
    },
    {
      "midi": 53,
      "hit": false,
      "t": 7999.997999999996,
      "d": 444.4443333333329,
      "v": 100
    },
    {
      "midi": 55,
      "hit": false,
      "t": 8444.442333333329,
      "d": 444.4443333333329,
      "v": 100
    },
    {
      "midi": 53,
      "hit": false,
      "t": 8888.886666666662,
      "d": 444.4443333333329,
      "v": 100
    },
    {
      "midi": 55,
      "hit": false,
      "t": 9333.330999999995,
      "d": 444.4443333333329,
      "v": 100
    },
    {
      "midi": 53,
      "hit": false,
      "t": 9777.775333333328,
      "d": 444.4443333333329,
      "v": 100
    },
    {
      "midi": 55,
      "hit": false,
      "t": 10222.21966666666,
      "d": 444.4443333333329,
      "v": 100
    },
    {
      "midi": 53,
      "hit": false,
      "t": 10666.663999999993,
      "d": 444.4443333333329,
      "v": 100
    },
    {
      "midi": 41,
      "hit": false,
      "t": 10666.663999999993,
      "d": 1333.3329999999987,
      "v": 100
    },
    {
      "midi": 65,
      "hit": false,
      "t": 10666.663999999999,
      "d": 2666.6659999999993,
      "v": 100
    },
    {
      "midi": 55,
      "hit": false,
      "t": 11111.108333333326,
      "d": 444.4443333333329,
      "v": 100
    },
    {
      "midi": 53,
      "hit": false,
      "t": 11555.55266666666,
      "d": 444.4443333333329,
      "v": 100
    },
    {
      "midi": 55,
      "hit": false,
      "t": 11999.996999999992,
      "d": 444.4443333333329,
      "v": 100
    },
    {
      "midi": 53,
      "hit": false,
      "t": 12444.441333333325,
      "d": 444.4443333333329,
      "v": 100
    },
    {
      "midi": 55,
      "hit": false,
      "t": 12888.885666666658,
      "d": 444.4443333333329,
      "v": 100
    },
    {
      "midi": 53,
      "hit": false,
      "t": 13333.32999999999,
      "d": 444.4443333333329,
      "v": 100
    },
    {
      "midi": 41,
      "hit": false,
      "t": 13333.32999999999,
      "d": 1333.3329999999987,
      "v": 100
    },
    {
      "midi": 65,
      "hit": false,
      "t": 13333.329999999998,
      "d": 2666.6659999999993,
      "v": 100
    },
    {
      "midi": 77,
      "hit": false,
      "t": 13333.329999999998,
      "d": 2666.6659999999993,
      "v": 100
    },
    {
      "midi": 55,
      "hit": false,
      "t": 13777.774333333324,
      "d": 444.4443333333329,
      "v": 100
    },
    {
      "midi": 53,
      "hit": false,
      "t": 14222.218666666657,
      "d": 444.4443333333329,
      "v": 100
    },
    {
      "midi": 55,
      "hit": false,
      "t": 14666.66299999999,
      "d": 444.4443333333329,
      "v": 100
    },
    {
      "midi": 53,
      "hit": false,
      "t": 15111.107333333322,
      "d": 444.4443333333329,
      "v": 100
    },
    {
      "midi": 55,
      "hit": false,
      "t": 15555.551666666655,
      "d": 444.4443333333329,
      "v": 100
    },
    {
      "midi": 53,
      "hit": false,
      "t": 15999.995999999988,
      "d": 444.4443333333329,
      "v": 100
    },
    {
      "midi": 49,
      "hit": false,
      "t": 15999.995999999988,
      "d": 1333.3329999999987,
      "v": 100
    },
    {
      "midi": 73,
      "hit": false,
      "t": 15999.995999999997,
      "d": 5333.332,
      "v": 100
    },
    {
      "midi": 77,
      "hit": false,
      "t": 15999.995999999997,
      "d": 5333.332,
      "v": 100
    },
    {
      "midi": 80,
      "hit": false,
      "t": 15999.995999999997,
      "d": 5333.332,
      "v": 100
    },
    {
      "midi": 55,
      "hit": false,
      "t": 16444.44033333332,
      "d": 444.4443333333329,
      "v": 100
    },
    {
      "midi": 53,
      "hit": false,
      "t": 16888.884666666654,
      "d": 444.4443333333329,
      "v": 100
    },
    {
      "midi": 55,
      "hit": false,
      "t": 17333.328999999987,
      "d": 444.4443333333329,
      "v": 100
    },
    {
      "midi": 53,
      "hit": false,
      "t": 17777.77333333332,
      "d": 444.4443333333329,
      "v": 100
    },
    {
      "midi": 55,
      "hit": false,
      "t": 18222.217666666653,
      "d": 444.4443333333329,
      "v": 100
    },
    {
      "midi": 53,
      "hit": false,
      "t": 18666.661999999986,
      "d": 444.4443333333329,
      "v": 100
    },
    {
      "midi": 55,
      "hit": false,
      "t": 19111.10633333332,
      "d": 444.4443333333329,
      "v": 100
    },
    {
      "midi": 53,
      "hit": false,
      "t": 19555.55066666665,
      "d": 444.4443333333329,
      "v": 100
    },
    {
      "midi": 55,
      "hit": false,
      "t": 19999.994999999984,
      "d": 444.4443333333329,
      "v": 100
    },
    {
      "midi": 53,
      "hit": false,
      "t": 20444.439333333317,
      "d": 444.4443333333329,
      "v": 100
    },
    {
      "midi": 55,
      "hit": false,
      "t": 20888.88366666665,
      "d": 444.4443333333329,
      "v": 100
    },
    {
      "midi": 53,
      "hit": false,
      "t": 21333.327999999983,
      "d": 444.4443333333329,
      "v": 100
    },
    {
      "midi": 41,
      "hit": false,
      "t": 21333.327999999983,
      "d": 1333.3329999999987,
      "v": 100
    },
    {
      "midi": 65,
      "hit": false,
      "t": 21333.327999999998,
      "d": 2666.666000000001,
      "v": 100
    },
    {
      "midi": 55,
      "hit": false,
      "t": 21777.772333333316,
      "d": 444.4443333333329,
      "v": 100
    },
    {
      "midi": 53,
      "hit": false,
      "t": 22222.21666666665,
      "d": 444.4443333333329,
      "v": 100
    },
    {
      "midi": 55,
      "hit": false,
      "t": 22666.660999999982,
      "d": 444.4443333333329,
      "v": 100
    },
    {
      "midi": 53,
      "hit": false,
      "t": 23111.105333333315,
      "d": 444.4443333333329,
      "v": 100
    },
    {
      "midi": 55,
      "hit": false,
      "t": 23555.549666666648,
      "d": 444.4443333333329,
      "v": 100
    },
    {
      "midi": 53,
      "hit": false,
      "t": 23999.99399999998,
      "d": 444.4443333333329,
      "v": 100
    },
    {
      "midi": 41,
      "hit": false,
      "t": 23999.99399999998,
      "d": 1333.3329999999987,
      "v": 100
    },
    {
      "midi": 65,
      "hit": false,
      "t": 23999.994,
      "d": 2666.666000000001,
      "v": 100
    },
    {
      "midi": 77,
      "hit": false,
      "t": 23999.994,
      "d": 2666.666000000001,
      "v": 100
    },
    {
      "midi": 55,
      "hit": false,
      "t": 24444.438333333313,
      "d": 444.4443333333329,
      "v": 100
    },
    {
      "midi": 53,
      "hit": false,
      "t": 24888.882666666646,
      "d": 444.4443333333329,
      "v": 100
    },
    {
      "midi": 55,
      "hit": false,
      "t": 25333.32699999998,
      "d": 444.4443333333329,
      "v": 100
    },
    {
      "midi": 53,
      "hit": false,
      "t": 25777.771333333312,
      "d": 444.4443333333329,
      "v": 100
    },
    {
      "midi": 55,
      "hit": false,
      "t": 26222.215666666645,
      "d": 444.4443333333329,
      "v": 100
    },
    {
      "midi": 53,
      "hit": false,
      "t": 26666.659999999978,
      "d": 444.4443333333329,
      "v": 100
    },
    {
      "midi": 49,
      "hit": false,
      "t": 26666.659999999978,
      "d": 1333.3329999999987,
      "v": 100
    },
    {
      "midi": 73,
      "hit": false,
      "t": 26666.66,
      "d": 5333.3319999999985,
      "v": 100
    },
    {
      "midi": 77,
      "hit": false,
      "t": 26666.66,
      "d": 5333.3319999999985,
      "v": 100
    },
    {
      "midi": 80,
      "hit": false,
      "t": 26666.66,
      "d": 5333.3319999999985,
      "v": 100
    },
    {
      "midi": 55,
      "hit": false,
      "t": 27111.10433333331,
      "d": 444.4443333333329,
      "v": 100
    },
    {
      "midi": 53,
      "hit": false,
      "t": 27555.548666666644,
      "d": 444.4443333333329,
      "v": 100
    },
    {
      "midi": 55,
      "hit": false,
      "t": 27999.992999999977,
      "d": 444.4443333333329,
      "v": 100
    },
    {
      "midi": 53,
      "hit": false,
      "t": 28444.43733333331,
      "d": 444.4443333333329,
      "v": 100
    },
    {
      "midi": 55,
      "hit": false,
      "t": 28888.881666666643,
      "d": 444.4443333333329,
      "v": 100
    },
    {
      "midi": 53,
      "hit": false,
      "t": 29333.325999999975,
      "d": 444.4443333333329,
      "v": 100
    },
    {
      "midi": 55,
      "hit": false,
      "t": 29777.77033333331,
      "d": 444.4443333333329,
      "v": 100
    },
    {
      "midi": 53,
      "hit": false,
      "t": 30222.21466666664,
      "d": 444.4443333333329,
      "v": 100
    },
    {
      "midi": 55,
      "hit": false,
      "t": 30666.658999999974,
      "d": 444.4443333333329,
      "v": 100
    },
    {
      "midi": 53,
      "hit": false,
      "t": 31111.103333333307,
      "d": 444.4443333333329,
      "v": 100
    },
    {
      "midi": 55,
      "hit": false,
      "t": 31555.54766666664,
      "d": 444.4443333333329,
      "v": 100
    },
    {
      "midi": 53,
      "hit": false,
      "t": 31999.991999999973,
      "d": 444.4443333333329,
      "v": 100
    },
    {
      "midi": 46,
      "hit": false,
      "t": 31999.991999999973,
      "d": 1333.3330000000024,
      "v": 100
    },
    {
      "midi": 61,
      "hit": false,
      "t": 31999.992,
      "d": 2666.6659999999974,
      "v": 100
    },
    {
      "midi": 65,
      "hit": false,
      "t": 31999.992,
      "d": 2666.6659999999974,
      "v": 100
    },
    {
      "midi": 70,
      "hit": false,
      "t": 31999.992,
      "d": 2666.6659999999974,
      "v": 100
    },
    {
      "midi": 55,
      "hit": false,
      "t": 32444.436333333306,
      "d": 444.44433333333654,
      "v": 100
    },
    {
      "midi": 53,
      "hit": false,
      "t": 32888.88066666664,
      "d": 444.4443333333329,
      "v": 100
    },
    {
      "midi": 55,
      "hit": false,
      "t": 33333.324999999975,
      "d": 444.4443333333329,
      "v": 100
    },
    {
      "midi": 53,
      "hit": false,
      "t": 33777.76933333331,
      "d": 444.4443333333329,
      "v": 100
    },
    {
      "midi": 55,
      "hit": false,
      "t": 34222.21366666664,
      "d": 444.4443333333329,
      "v": 100
    },
    {
      "midi": 53,
      "hit": false,
      "t": 34666.657999999974,
      "d": 444.4443333333329,
      "v": 100
    },
    {
      "midi": 41,
      "hit": false,
      "t": 34666.657999999974,
      "d": 1333.3329999999987,
      "v": 100
    },
    {
      "midi": 60,
      "hit": false,
      "t": 34666.657999999996,
      "d": 2666.6659999999974,
      "v": 100
    },
    {
      "midi": 65,
      "hit": false,
      "t": 34666.657999999996,
      "d": 2666.6659999999974,
      "v": 100
    },
    {
      "midi": 69,
      "hit": false,
      "t": 34666.657999999996,
      "d": 2666.6659999999974,
      "v": 100
    },
    {
      "midi": 55,
      "hit": false,
      "t": 35111.10233333331,
      "d": 444.4443333333329,
      "v": 100
    },
    {
      "midi": 53,
      "hit": false,
      "t": 35555.54666666664,
      "d": 444.4443333333329,
      "v": 100
    },
    {
      "midi": 55,
      "hit": false,
      "t": 35999.99099999997,
      "d": 444.4443333333329,
      "v": 100
    },
    {
      "midi": 53,
      "hit": false,
      "t": 36444.435333333306,
      "d": 444.4443333333329,
      "v": 100
    },
    {
      "midi": 55,
      "hit": false,
      "t": 36888.87966666664,
      "d": 444.4443333333329,
      "v": 100
    },
    {
      "midi": 53,
      "hit": false,
      "t": 37333.32399999997,
      "d": 444.4443333333329,
      "v": 100
    },
    {
      "midi": 46,
      "hit": false,
      "t": 37333.32399999997,
      "d": 1333.3329999999987,
      "v": 100
    },
    {
      "midi": 61,
      "hit": false,
      "t": 37333.32399999999,
      "d": 2666.6659999999974,
      "v": 100
    },
    {
      "midi": 65,
      "hit": false,
      "t": 37333.32399999999,
      "d": 2666.6659999999974,
      "v": 100
    },
    {
      "midi": 67,
      "hit": false,
      "t": 37333.32399999999,
      "d": 2666.6659999999974,
      "v": 100
    },
    {
      "midi": 55,
      "hit": false,
      "t": 37777.768333333304,
      "d": 444.4443333333329,
      "v": 100
    },
    {
      "midi": 53,
      "hit": false,
      "t": 38222.21266666664,
      "d": 444.4443333333329,
      "v": 100
    },
    {
      "midi": 55,
      "hit": false,
      "t": 38666.65699999997,
      "d": 444.4443333333329,
      "v": 100
    },
    {
      "midi": 53,
      "hit": false,
      "t": 39111.1013333333,
      "d": 444.4443333333329,
      "v": 100
    },
    {
      "midi": 55,
      "hit": false,
      "t": 39555.545666666636,
      "d": 444.4443333333329,
      "v": 100
    },
    {
      "midi": 53,
      "hit": false,
      "t": 39999.98999999997,
      "d": 444.4443333333329,
      "v": 100
    },
    {
      "midi": 41,
      "hit": false,
      "t": 39999.98999999997,
      "d": 1333.3329999999987,
      "v": 100
    },
    {
      "midi": 60,
      "hit": false,
      "t": 39999.98999999999,
      "d": 2666.6659999999974,
      "v": 100
    },
    {
      "midi": 65,
      "hit": false,
      "t": 39999.98999999999,
      "d": 2666.6659999999974,
      "v": 100
    },
    {
      "midi": 69,
      "hit": false,
      "t": 39999.98999999999,
      "d": 2666.6659999999974,
      "v": 100
    },
    {
      "midi": 55,
      "hit": false,
      "t": 40444.4343333333,
      "d": 444.4443333333329,
      "v": 100
    },
    {
      "midi": 53,
      "hit": false,
      "t": 40888.878666666635,
      "d": 444.4443333333329,
      "v": 100
    },
    {
      "midi": 55,
      "hit": false,
      "t": 41333.32299999997,
      "d": 444.4443333333329,
      "v": 100
    },
    {
      "midi": 53,
      "hit": false,
      "t": 41777.7673333333,
      "d": 444.4443333333329,
      "v": 100
    },
    {
      "midi": 55,
      "hit": false,
      "t": 42222.21166666663,
      "d": 444.4443333333329,
      "v": 100
    },
    {
      "midi": 53,
      "hit": false,
      "t": 42666.655999999966,
      "d": 444.4443333333329,
      "v": 100
    },
    {
      "midi": 46,
      "hit": false,
      "t": 42666.655999999966,
      "d": 1333.3329999999987,
      "v": 100
    },
    {
      "midi": 61,
      "hit": false,
      "t": 42666.65599999999,
      "d": 2666.6659999999974,
      "v": 100
    },
    {
      "midi": 65,
      "hit": false,
      "t": 42666.65599999999,
      "d": 2666.6659999999974,
      "v": 100
    },
    {
      "midi": 70,
      "hit": false,
      "t": 42666.65599999999,
      "d": 2666.6659999999974,
      "v": 100
    },
    {
      "midi": 55,
      "hit": false,
      "t": 43111.1003333333,
      "d": 444.4443333333329,
      "v": 100
    },
    {
      "midi": 53,
      "hit": false,
      "t": 43555.54466666663,
      "d": 444.4443333333329,
      "v": 100
    },
    {
      "midi": 55,
      "hit": false,
      "t": 43999.988999999965,
      "d": 444.4443333333329,
      "v": 100
    },
    {
      "midi": 53,
      "hit": false,
      "t": 44444.4333333333,
      "d": 444.4443333333329,
      "v": 100
    },
    {
      "midi": 55,
      "hit": false,
      "t": 44888.87766666663,
      "d": 444.4443333333329,
      "v": 100
    },
    {
      "midi": 53,
      "hit": false,
      "t": 45333.321999999964,
      "d": 444.4443333333329,
      "v": 100
    },
    {
      "midi": 44,
      "hit": false,
      "t": 45333.321999999964,
      "d": 1333.3329999999987,
      "v": 100
    },
    {
      "midi": 65,
      "hit": false,
      "t": 45333.321999999986,
      "d": 2666.6659999999974,
      "v": 100
    },
    {
      "midi": 68,
      "hit": false,
      "t": 45333.321999999986,
      "d": 2666.6659999999974,
      "v": 100
    },
    {
      "midi": 72,
      "hit": false,
      "t": 45333.321999999986,
      "d": 2666.6659999999974,
      "v": 100
    },
    {
      "midi": 55,
      "hit": false,
      "t": 45777.7663333333,
      "d": 444.4443333333329,
      "v": 100
    },
    {
      "midi": 53,
      "hit": false,
      "t": 46222.21066666663,
      "d": 444.4443333333329,
      "v": 100
    },
    {
      "midi": 55,
      "hit": false,
      "t": 46666.65499999996,
      "d": 444.4443333333329,
      "v": 100
    },
    {
      "midi": 53,
      "hit": false,
      "t": 47111.099333333295,
      "d": 444.4443333333329,
      "v": 100
    },
    {
      "midi": 55,
      "hit": false,
      "t": 47555.54366666663,
      "d": 444.4443333333329,
      "v": 100
    },
    {
      "midi": 53,
      "hit": false,
      "t": 47999.98799999996,
      "d": 444.4443333333329,
      "v": 100
    },
    {
      "midi": 49,
      "hit": false,
      "t": 47999.98799999996,
      "d": 1333.3329999999987,
      "v": 100
    },
    {
      "midi": 61,
      "hit": false,
      "t": 47999.98799999998,
      "d": 1333.3329999999987,
      "v": 100
    },
    {
      "midi": 65,
      "hit": false,
      "t": 47999.98799999998,
      "d": 1333.3329999999987,
      "v": 100
    },
    {
      "midi": 55,
      "hit": false,
      "t": 48444.432333333294,
      "d": 444.4443333333329,
      "v": 100
    },
    {
      "midi": 53,
      "hit": false,
      "t": 48888.87666666663,
      "d": 444.4443333333329,
      "v": 100
    },
    {
      "midi": 55,
      "hit": false,
      "t": 49333.32099999996,
      "d": 444.4443333333329,
      "v": 100
    },
    {
      "midi": 65,
      "hit": false,
      "t": 49333.32099999998,
      "d": 1333.3329999999987,
      "v": 100
    },
    {
      "midi": 72,
      "hit": false,
      "t": 49333.32099999998,
      "d": 1333.3329999999987,
      "v": 100
    },
    {
      "midi": 53,
      "hit": false,
      "t": 49777.76533333329,
      "d": 444.4443333333329,
      "v": 100
    },
    {
      "midi": 55,
      "hit": false,
      "t": 50222.209666666626,
      "d": 444.4443333333329,
      "v": 100
    },
    {
      "midi": 53,
      "hit": false,
      "t": 50666.65399999996,
      "d": 444.4443333333329,
      "v": 100
    },
    {
      "midi": 48,
      "hit": false,
      "t": 50666.65399999996,
      "d": 1333.3329999999987,
      "v": 100
    },
    {
      "midi": 65,
      "hit": false,
      "t": 50666.65399999998,
      "d": 1333.3329999999987,
      "v": 100
    },
    {
      "midi": 70,
      "hit": false,
      "t": 50666.65399999998,
      "d": 1333.3329999999987,
      "v": 100
    },
    {
      "midi": 55,
      "hit": false,
      "t": 51111.09833333329,
      "d": 444.4443333333329,
      "v": 100
    },
    {
      "midi": 53,
      "hit": false,
      "t": 51555.542666666624,
      "d": 444.4443333333329,
      "v": 100
    },
    {
      "midi": 55,
      "hit": false,
      "t": 51999.98699999996,
      "d": 444.4443333333329,
      "v": 100
    },
    {
      "midi": 65,
      "hit": false,
      "t": 51999.98699999998,
      "d": 1333.3329999999987,
      "v": 100
    },
    {
      "midi": 68,
      "hit": false,
      "t": 51999.98699999998,
      "d": 1333.3329999999987,
      "v": 100
    },
    {
      "midi": 53,
      "hit": false,
      "t": 52444.43133333329,
      "d": 444.4443333333329,
      "v": 100
    },
    {
      "midi": 55,
      "hit": false,
      "t": 52888.87566666662,
      "d": 444.4443333333329,
      "v": 100
    },
    {
      "midi": 53,
      "hit": false,
      "t": 53333.319999999956,
      "d": 444.4443333333329,
      "v": 100
    },
    {
      "midi": 46,
      "hit": false,
      "t": 53333.319999999956,
      "d": 1333.3329999999987,
      "v": 100
    },
    {
      "midi": 61,
      "hit": false,
      "t": 53333.31999999998,
      "d": 3999.998999999996,
      "v": 100
    },
    {
      "midi": 67,
      "hit": false,
      "t": 53333.31999999998,
      "d": 3999.998999999996,
      "v": 100
    },
    {
      "midi": 55,
      "hit": false,
      "t": 53777.76433333329,
      "d": 444.4443333333329,
      "v": 100
    },
    {
      "midi": 53,
      "hit": false,
      "t": 54222.20866666662,
      "d": 444.4443333333329,
      "v": 100
    },
    {
      "midi": 55,
      "hit": false,
      "t": 54666.652999999955,
      "d": 444.4443333333329,
      "v": 100
    },
    {
      "midi": 53,
      "hit": false,
      "t": 55111.09733333329,
      "d": 444.4443333333329,
      "v": 100
    },
    {
      "midi": 55,
      "hit": false,
      "t": 55555.54166666662,
      "d": 444.4443333333329,
      "v": 100
    },
    {
      "midi": 53,
      "hit": false,
      "t": 55999.98599999995,
      "d": 444.4443333333329,
      "v": 100
    },
    {
      "midi": 48,
      "hit": false,
      "t": 55999.98599999995,
      "d": 1333.3329999999987,
      "v": 100
    },
    {
      "midi": 55,
      "hit": false,
      "t": 56444.43033333329,
      "d": 444.4443333333329,
      "v": 100
    },
    {
      "midi": 53,
      "hit": false,
      "t": 56888.87466666662,
      "d": 444.4443333333329,
      "v": 100
    },
    {
      "midi": 55,
      "hit": false,
      "t": 57333.31899999995,
      "d": 444.4443333333329,
      "v": 100
    },
    {
      "midi": 68,
      "hit": false,
      "t": 57333.318999999974,
      "d": 666.6664999999994,
      "v": 100
    },
    {
      "midi": 53,
      "hit": false,
      "t": 57777.763333333285,
      "d": 444.4443333333329,
      "v": 100
    },
    {
      "midi": 67,
      "hit": false,
      "t": 57999.98549999997,
      "d": 666.6664999999994,
      "v": 100
    },
    {
      "midi": 55,
      "hit": false,
      "t": 58222.20766666662,
      "d": 444.4443333333329,
      "v": 100
    },
    {
      "midi": 53,
      "hit": false,
      "t": 58666.65199999995,
      "d": 444.4443333333329,
      "v": 100
    },
    {
      "midi": 49,
      "hit": false,
      "t": 58666.65199999995,
      "d": 1333.3329999999987,
      "v": 100
    },
    {
      "midi": 61,
      "hit": false,
      "t": 58666.65199999997,
      "d": 3999.998999999996,
      "v": 100
    },
    {
      "midi": 65,
      "hit": false,
      "t": 58666.65199999997,
      "d": 3999.998999999996,
      "v": 100
    },
    {
      "midi": 70,
      "hit": false,
      "t": 58666.65199999997,
      "d": 3999.998999999996,
      "v": 100
    },
    {
      "midi": 55,
      "hit": false,
      "t": 59111.096333333284,
      "d": 444.4443333333329,
      "v": 100
    },
    {
      "midi": 53,
      "hit": false,
      "t": 59555.54066666662,
      "d": 444.4443333333329,
      "v": 100
    },
    {
      "midi": 55,
      "hit": false,
      "t": 59999.98499999995,
      "d": 444.4443333333329,
      "v": 100
    },
    {
      "midi": 53,
      "hit": false,
      "t": 60444.42933333328,
      "d": 444.4443333333329,
      "v": 100
    },
    {
      "midi": 55,
      "hit": false,
      "t": 60888.873666666615,
      "d": 444.4443333333329,
      "v": 100
    },
    {
      "midi": 53,
      "hit": false,
      "t": 61333.31799999995,
      "d": 444.4443333333329,
      "v": 100
    },
    {
      "midi": 48,
      "hit": false,
      "t": 61333.31799999995,
      "d": 1333.3329999999987,
      "v": 100
    },
    {
      "midi": 55,
      "hit": false,
      "t": 61777.76233333328,
      "d": 444.4443333333329,
      "v": 100
    },
    {
      "midi": 53,
      "hit": false,
      "t": 62222.206666666614,
      "d": 444.4443333333329,
      "v": 100
    },
    {
      "midi": 55,
      "hit": false,
      "t": 62666.65099999995,
      "d": 444.4443333333329,
      "v": 100
    },
    {
      "midi": 60,
      "hit": false,
      "t": 62666.65099999997,
      "d": 1333.3329999999987,
      "v": 100
    },
    {
      "midi": 65,
      "hit": false,
      "t": 62666.65099999997,
      "d": 1333.3329999999987,
      "v": 100
    },
    {
      "midi": 68,
      "hit": false,
      "t": 62666.65099999997,
      "d": 1333.3329999999987,
      "v": 100
    },
    {
      "midi": 53,
      "hit": false,
      "t": 63111.09533333328,
      "d": 444.4443333333329,
      "v": 100
    },
    {
      "midi": 55,
      "hit": false,
      "t": 63555.53966666661,
      "d": 444.4443333333329,
      "v": 100
    },
    {
      "midi": 53,
      "hit": false,
      "t": 63999.983999999946,
      "d": 444.4443333333329,
      "v": 100
    },
    {
      "midi": 46,
      "hit": false,
      "t": 63999.983999999946,
      "d": 1333.3329999999987,
      "v": 100
    },
    {
      "midi": 61,
      "hit": false,
      "t": 63999.98399999997,
      "d": 3999.998999999996,
      "v": 100
    },
    {
      "midi": 67,
      "hit": false,
      "t": 63999.98399999997,
      "d": 3999.998999999996,
      "v": 100
    },
    {
      "midi": 55,
      "hit": false,
      "t": 64444.42833333328,
      "d": 444.4443333333329,
      "v": 100
    },
    {
      "midi": 53,
      "hit": false,
      "t": 64888.87266666661,
      "d": 444.4443333333329,
      "v": 100
    },
    {
      "midi": 55,
      "hit": false,
      "t": 65333.316999999945,
      "d": 444.4443333333402,
      "v": 100
    },
    {
      "midi": 53,
      "hit": false,
      "t": 65777.76133333328,
      "d": 444.4443333333329,
      "v": 100
    },
    {
      "midi": 55,
      "hit": false,
      "t": 66222.20566666662,
      "d": 444.4443333333329,
      "v": 100
    },
    {
      "midi": 53,
      "hit": false,
      "t": 66666.64999999995,
      "d": 444.4443333333329,
      "v": 100
    },
    {
      "midi": 48,
      "hit": false,
      "t": 66666.64999999995,
      "d": 1333.3329999999987,
      "v": 100
    },
    {
      "midi": 55,
      "hit": false,
      "t": 67111.09433333328,
      "d": 444.4443333333329,
      "v": 100
    },
    {
      "midi": 53,
      "hit": false,
      "t": 67555.53866666662,
      "d": 444.4443333333329,
      "v": 100
    },
    {
      "midi": 55,
      "hit": false,
      "t": 67999.98299999995,
      "d": 444.4443333333329,
      "v": 100
    },
    {
      "midi": 67,
      "hit": false,
      "t": 67999.98299999996,
      "d": 444.4443333333329,
      "v": 100
    },
    {
      "midi": 53,
      "hit": false,
      "t": 68444.42733333328,
      "d": 444.4443333333329,
      "v": 100
    },
    {
      "midi": 68,
      "hit": false,
      "t": 68444.4273333333,
      "d": 444.4443333333329,
      "v": 100
    },
    {
      "midi": 55,
      "hit": false,
      "t": 68888.87166666662,
      "d": 444.4443333333329,
      "v": 100
    },
    {
      "midi": 67,
      "hit": false,
      "t": 68888.87166666663,
      "d": 444.4443333333329,
      "v": 100
    },
    {
      "midi": 53,
      "hit": false,
      "t": 69333.31599999995,
      "d": 444.4443333333329,
      "v": 100
    },
    {
      "midi": 49,
      "hit": false,
      "t": 69333.31599999995,
      "d": 1333.3329999999987,
      "v": 100
    },
    {
      "midi": 61,
      "hit": false,
      "t": 69333.31599999996,
      "d": 5333.331999999995,
      "v": 100
    },
    {
      "midi": 65,
      "hit": false,
      "t": 69333.31599999996,
      "d": 5333.331999999995,
      "v": 100
    },
    {
      "midi": 70,
      "hit": false,
      "t": 69333.31599999996,
      "d": 5333.331999999995,
      "v": 100
    },
    {
      "midi": 55,
      "hit": false,
      "t": 69777.76033333328,
      "d": 444.4443333333329,
      "v": 100
    },
    {
      "midi": 53,
      "hit": false,
      "t": 70222.20466666661,
      "d": 444.4443333333329,
      "v": 100
    },
    {
      "midi": 55,
      "hit": false,
      "t": 70666.64899999995,
      "d": 444.4443333333329,
      "v": 100
    },
    {
      "midi": 53,
      "hit": false,
      "t": 71111.09333333328,
      "d": 444.4443333333329,
      "v": 100
    },
    {
      "midi": 55,
      "hit": false,
      "t": 71555.53766666661,
      "d": 444.4443333333329,
      "v": 100
    },
    {
      "midi": 53,
      "hit": false,
      "t": 71999.98199999995,
      "d": 444.4443333333329,
      "v": 100
    },
    {
      "midi": 46,
      "hit": false,
      "t": 71999.98199999995,
      "d": 1333.3329999999987,
      "v": 100
    },
    {
      "midi": 55,
      "hit": false,
      "t": 72444.42633333328,
      "d": 444.4443333333329,
      "v": 100
    },
    {
      "midi": 53,
      "hit": false,
      "t": 72888.87066666661,
      "d": 444.4443333333329,
      "v": 100
    },
    {
      "midi": 55,
      "hit": false,
      "t": 73333.31499999994,
      "d": 444.4443333333329,
      "v": 100
    },
    {
      "midi": 53,
      "hit": false,
      "t": 73777.75933333328,
      "d": 444.4443333333329,
      "v": 100
    },
    {
      "midi": 55,
      "hit": false,
      "t": 74222.20366666661,
      "d": 444.4443333333329,
      "v": 100
    },
    {
      "midi": 53,
      "hit": false,
      "t": 74666.64799999994,
      "d": 444.4443333333329,
      "v": 100
    },
    {
      "midi": 41,
      "hit": false,
      "t": 74666.64799999994,
      "d": 1333.3329999999987,
      "v": 100
    },
    {
      "midi": 65,
      "hit": false,
      "t": 74666.64799999996,
      "d": 2666.6659999999974,
      "v": 100
    },
    {
      "midi": 55,
      "hit": false,
      "t": 75111.09233333328,
      "d": 444.4443333333329,
      "v": 100
    },
    {
      "midi": 53,
      "hit": false,
      "t": 75555.53666666661,
      "d": 444.4443333333329,
      "v": 100
    },
    {
      "midi": 55,
      "hit": false,
      "t": 75999.98099999994,
      "d": 444.4443333333329,
      "v": 100
    },
    {
      "midi": 53,
      "hit": false,
      "t": 76444.42533333327,
      "d": 444.4443333333329,
      "v": 100
    },
    {
      "midi": 55,
      "hit": false,
      "t": 76888.86966666661,
      "d": 444.4443333333329,
      "v": 100
    },
    {
      "midi": 53,
      "hit": false,
      "t": 77333.31399999994,
      "d": 444.4443333333329,
      "v": 100
    },
    {
      "midi": 41,
      "hit": false,
      "t": 77333.31399999994,
      "d": 1333.3329999999987,
      "v": 100
    },
    {
      "midi": 65,
      "hit": false,
      "t": 77333.31399999995,
      "d": 2666.6659999999974,
      "v": 100
    },
    {
      "midi": 77,
      "hit": false,
      "t": 77333.31399999995,
      "d": 2666.6659999999974,
      "v": 100
    },
    {
      "midi": 55,
      "hit": false,
      "t": 77777.75833333327,
      "d": 444.4443333333329,
      "v": 100
    },
    {
      "midi": 53,
      "hit": false,
      "t": 78222.2026666666,
      "d": 444.4443333333329,
      "v": 100
    },
    {
      "midi": 55,
      "hit": false,
      "t": 78666.64699999994,
      "d": 444.4443333333329,
      "v": 100
    },
    {
      "midi": 53,
      "hit": false,
      "t": 79111.09133333327,
      "d": 444.4443333333329,
      "v": 100
    },
    {
      "midi": 55,
      "hit": false,
      "t": 79555.5356666666,
      "d": 444.4443333333329,
      "v": 100
    },
    {
      "midi": 53,
      "hit": false,
      "t": 79999.97999999994,
      "d": 444.4443333333329,
      "v": 100
    },
    {
      "midi": 49,
      "hit": false,
      "t": 79999.97999999994,
      "d": 1333.3329999999987,
      "v": 100
    },
    {
      "midi": 73,
      "hit": false,
      "t": 79999.97999999995,
      "d": 1999.9995000000054,
      "v": 100
    },
    {
      "midi": 77,
      "hit": false,
      "t": 79999.97999999995,
      "d": 1999.9995000000054,
      "v": 100
    },
    {
      "midi": 80,
      "hit": false,
      "t": 79999.97999999995,
      "d": 1999.9995000000054,
      "v": 100
    },
    {
      "midi": 55,
      "hit": false,
      "t": 80444.42433333327,
      "d": 444.4443333333329,
      "v": 100
    },
    {
      "midi": 53,
      "hit": false,
      "t": 80888.8686666666,
      "d": 444.4443333333329,
      "v": 100
    },
    {
      "midi": 55,
      "hit": false,
      "t": 81333.31299999994,
      "d": 444.4443333333329,
      "v": 100
    },
    {
      "midi": 53,
      "hit": false,
      "t": 81777.75733333327,
      "d": 444.4443333333329,
      "v": 100
    },
    {
      "midi": 77,
      "hit": false,
      "t": 81999.97949999996,
      "d": 222.22216666667373,
      "v": 100
    },
    {
      "midi": 55,
      "hit": false,
      "t": 82222.2016666666,
      "d": 444.4443333333329,
      "v": 100
    },
    {
      "midi": 77,
      "hit": false,
      "t": 82222.20166666663,
      "d": 222.22216666667373,
      "v": 100
    },
    {
      "midi": 77,
      "hit": false,
      "t": 82444.4238333333,
      "d": 222.22216666667373,
      "v": 100
    },
    {
      "midi": 53,
      "hit": false,
      "t": 82666.64599999994,
      "d": 444.4443333333329,
      "v": 100
    },
    {
      "midi": 77,
      "hit": false,
      "t": 82666.64599999998,
      "d": 1333.3329999999987,
      "v": 100
    },
    {
      "midi": 55,
      "hit": false,
      "t": 83111.09033333327,
      "d": 444.4443333333329,
      "v": 100
    },
    {
      "midi": 53,
      "hit": false,
      "t": 83555.5346666666,
      "d": 444.4443333333329,
      "v": 100
    },
    {
      "midi": 55,
      "hit": false,
      "t": 83999.97899999993,
      "d": 444.4443333333329,
      "v": 100
    },
    {
      "midi": 77,
      "hit": false,
      "t": 83999.97899999998,
      "d": 1333.3329999999987,
      "v": 100
    },
    {
      "midi": 53,
      "hit": false,
      "t": 84444.42333333327,
      "d": 444.4443333333329,
      "v": 100
    },
    {
      "midi": 55,
      "hit": false,
      "t": 84888.8676666666,
      "d": 444.4443333333329,
      "v": 100
    },
    {
      "midi": 53,
      "hit": false,
      "t": 85333.31199999993,
      "d": 444.4443333333329,
      "v": 100
    },
    {
      "midi": 41,
      "hit": false,
      "t": 85333.31199999993,
      "d": 1333.3329999999987,
      "v": 100
    },
    {
      "midi": 65,
      "hit": false,
      "t": 85333.31199999998,
      "d": 2666.6659999999974,
      "v": 100
    },
    {
      "midi": 55,
      "hit": false,
      "t": 85777.75633333327,
      "d": 444.4443333333329,
      "v": 100
    },
    {
      "midi": 53,
      "hit": false,
      "t": 86222.2006666666,
      "d": 444.4443333333329,
      "v": 100
    },
    {
      "midi": 55,
      "hit": false,
      "t": 86666.64499999993,
      "d": 444.4443333333329,
      "v": 100
    },
    {
      "midi": 53,
      "hit": false,
      "t": 87111.08933333326,
      "d": 444.4443333333329,
      "v": 100
    },
    {
      "midi": 55,
      "hit": false,
      "t": 87555.5336666666,
      "d": 444.4443333333329,
      "v": 100
    },
    {
      "midi": 53,
      "hit": false,
      "t": 87999.97799999993,
      "d": 444.4443333333329,
      "v": 100
    },
    {
      "midi": 41,
      "hit": false,
      "t": 87999.97799999993,
      "d": 1333.3329999999987,
      "v": 100
    },
    {
      "midi": 65,
      "hit": false,
      "t": 87999.97799999997,
      "d": 2666.6659999999974,
      "v": 100
    },
    {
      "midi": 77,
      "hit": false,
      "t": 87999.97799999997,
      "d": 2666.6659999999974,
      "v": 100
    },
    {
      "midi": 55,
      "hit": false,
      "t": 88444.42233333326,
      "d": 444.4443333333329,
      "v": 100
    },
    {
      "midi": 53,
      "hit": false,
      "t": 88888.8666666666,
      "d": 444.4443333333329,
      "v": 100
    },
    {
      "midi": 55,
      "hit": false,
      "t": 89333.31099999993,
      "d": 444.4443333333329,
      "v": 100
    },
    {
      "midi": 53,
      "hit": false,
      "t": 89777.75533333326,
      "d": 444.4443333333329,
      "v": 100
    },
    {
      "midi": 55,
      "hit": false,
      "t": 90222.1996666666,
      "d": 444.4443333333329,
      "v": 100
    },
    {
      "midi": 53,
      "hit": false,
      "t": 90666.64399999993,
      "d": 444.4443333333329,
      "v": 100
    },
    {
      "midi": 49,
      "hit": false,
      "t": 90666.64399999993,
      "d": 1333.3329999999987,
      "v": 100
    },
    {
      "midi": 73,
      "hit": false,
      "t": 90666.64399999997,
      "d": 1999.9995000000054,
      "v": 100
    },
    {
      "midi": 77,
      "hit": false,
      "t": 90666.64399999997,
      "d": 1999.9995000000054,
      "v": 100
    },
    {
      "midi": 80,
      "hit": false,
      "t": 90666.64399999997,
      "d": 1999.9995000000054,
      "v": 100
    },
    {
      "midi": 55,
      "hit": false,
      "t": 91111.08833333326,
      "d": 444.4443333333329,
      "v": 100
    },
    {
      "midi": 53,
      "hit": false,
      "t": 91555.5326666666,
      "d": 444.4443333333329,
      "v": 100
    },
    {
      "midi": 55,
      "hit": false,
      "t": 91999.97699999993,
      "d": 444.4443333333329,
      "v": 100
    },
    {
      "midi": 53,
      "hit": false,
      "t": 92444.42133333326,
      "d": 444.4443333333329,
      "v": 100
    },
    {
      "midi": 77,
      "hit": false,
      "t": 92666.64349999998,
      "d": 222.22216666667373,
      "v": 100
    },
    {
      "midi": 55,
      "hit": false,
      "t": 92888.86566666659,
      "d": 444.4443333333329,
      "v": 100
    },
    {
      "midi": 77,
      "hit": false,
      "t": 92888.86566666665,
      "d": 222.22216666667373,
      "v": 100
    },
    {
      "midi": 77,
      "hit": false,
      "t": 93111.08783333332,
      "d": 222.22216666667373,
      "v": 100
    },
    {
      "midi": 53,
      "hit": false,
      "t": 93333.30999999992,
      "d": 444.4443333333329,
      "v": 100
    },
    {
      "midi": 77,
      "hit": false,
      "t": 93333.31,
      "d": 1333.3329999999987,
      "v": 100
    },
    {
      "midi": 55,
      "hit": false,
      "t": 93777.75433333326,
      "d": 444.4443333333329,
      "v": 100
    },
    {
      "midi": 53,
      "hit": false,
      "t": 94222.19866666659,
      "d": 444.4443333333329,
      "v": 100
    },
    {
      "midi": 55,
      "hit": false,
      "t": 94666.64299999992,
      "d": 444.4443333333329,
      "v": 100
    },
    {
      "midi": 77,
      "hit": false,
      "t": 94666.643,
      "d": 1333.3329999999987,
      "v": 100
    },
    {
      "midi": 53,
      "hit": false,
      "t": 95111.08733333326,
      "d": 444.4443333333329,
      "v": 100
    },
    {
      "midi": 55,
      "hit": false,
      "t": 95555.53166666659,
      "d": 444.4443333333329,
      "v": 100
    },
    {
      "midi": 53,
      "hit": false,
      "t": 95999.97599999992,
      "d": 444.4443333333329,
      "v": 100
    },
    {
      "midi": 41,
      "hit": false,
      "t": 95999.97599999992,
      "d": 1333.3329999999987,
      "v": 100
    },
    {
      "midi": 65,
      "hit": false,
      "t": 95999.976,
      "d": 2666.6659999999974,
      "v": 100
    },
    {
      "midi": 55,
      "hit": false,
      "t": 96444.42033333326,
      "d": 444.4443333333329,
      "v": 100
    },
    {
      "midi": 53,
      "hit": false,
      "t": 96888.86466666659,
      "d": 444.4443333333329,
      "v": 100
    },
    {
      "midi": 55,
      "hit": false,
      "t": 97333.30899999992,
      "d": 444.4443333333329,
      "v": 100
    },
    {
      "midi": 53,
      "hit": false,
      "t": 97777.75333333325,
      "d": 444.4443333333329,
      "v": 100
    },
    {
      "midi": 55,
      "hit": false,
      "t": 98222.19766666659,
      "d": 444.4443333333329,
      "v": 100
    },
    {
      "midi": 53,
      "hit": false,
      "t": 98666.64199999992,
      "d": 444.4443333333329,
      "v": 100
    },
    {
      "midi": 41,
      "hit": false,
      "t": 98666.64199999992,
      "d": 1333.3329999999987,
      "v": 100
    },
    {
      "midi": 65,
      "hit": false,
      "t": 98666.64199999999,
      "d": 2666.6659999999974,
      "v": 100
    },
    {
      "midi": 77,
      "hit": false,
      "t": 98666.64199999999,
      "d": 2666.6659999999974,
      "v": 100
    },
    {
      "midi": 55,
      "hit": false,
      "t": 99111.08633333325,
      "d": 444.4443333333329,
      "v": 100
    },
    {
      "midi": 53,
      "hit": false,
      "t": 99555.53066666659,
      "d": 444.4443333333329,
      "v": 100
    },
    {
      "midi": 55,
      "hit": false,
      "t": 99999.97499999992,
      "d": 444.4443333333329,
      "v": 100
    },
    {
      "midi": 53,
      "hit": false,
      "t": 100444.41933333325,
      "d": 444.4443333333329,
      "v": 100
    },
    {
      "midi": 55,
      "hit": false,
      "t": 100888.86366666658,
      "d": 444.4443333333329,
      "v": 100
    },
    {
      "midi": 54,
      "hit": false,
      "t": 101333.30799999992,
      "d": 444.4443333333329,
      "v": 100
    },
    {
      "midi": 42,
      "hit": false,
      "t": 101333.30799999992,
      "d": 1333.3329999999987,
      "v": 100
    },
    {
      "midi": 73,
      "hit": false,
      "t": 101333.30799999999,
      "d": 1999.9995000000054,
      "v": 100
    },
    {
      "midi": 78,
      "hit": false,
      "t": 101333.30799999999,
      "d": 1999.9995000000054,
      "v": 100
    },
    {
      "midi": 82,
      "hit": false,
      "t": 101333.30799999999,
      "d": 1999.9995000000054,
      "v": 100
    },
    {
      "midi": 56,
      "hit": false,
      "t": 101777.75233333325,
      "d": 444.4443333333329,
      "v": 100
    },
    {
      "midi": 54,
      "hit": false,
      "t": 102222.19666666658,
      "d": 444.4443333333329,
      "v": 100
    },
    {
      "midi": 56,
      "hit": false,
      "t": 102666.64099999992,
      "d": 444.4443333333329,
      "v": 100
    },
    {
      "midi": 54,
      "hit": false,
      "t": 103111.08533333325,
      "d": 444.4443333333329,
      "v": 100
    },
    {
      "midi": 73,
      "hit": false,
      "t": 103333.3075,
      "d": 222.22216666667373,
      "v": 100
    },
    {
      "midi": 78,
      "hit": false,
      "t": 103333.3075,
      "d": 222.22216666667373,
      "v": 100
    },
    {
      "midi": 82,
      "hit": false,
      "t": 103333.3075,
      "d": 222.22216666667373,
      "v": 100
    },
    {
      "midi": 56,
      "hit": false,
      "t": 103555.52966666658,
      "d": 444.4443333333329,
      "v": 100
    },
    {
      "midi": 73,
      "hit": false,
      "t": 103555.52966666667,
      "d": 222.22216666667373,
      "v": 100
    },
    {
      "midi": 78,
      "hit": false,
      "t": 103555.52966666667,
      "d": 222.22216666667373,
      "v": 100
    },
    {
      "midi": 82,
      "hit": false,
      "t": 103555.52966666667,
      "d": 222.22216666667373,
      "v": 100
    },
    {
      "midi": 73,
      "hit": false,
      "t": 103777.75183333334,
      "d": 222.22216666667373,
      "v": 100
    },
    {
      "midi": 78,
      "hit": false,
      "t": 103777.75183333334,
      "d": 222.22216666667373,
      "v": 100
    },
    {
      "midi": 82,
      "hit": false,
      "t": 103777.75183333334,
      "d": 222.22216666667373,
      "v": 100
    },
    {
      "midi": 54,
      "hit": false,
      "t": 103999.97399999991,
      "d": 444.4443333333329,
      "v": 100
    },
    {
      "midi": 73,
      "hit": false,
      "t": 103999.97400000002,
      "d": 2666.6659999999974,
      "v": 100
    },
    {
      "midi": 78,
      "hit": false,
      "t": 103999.97400000002,
      "d": 2666.6659999999974,
      "v": 100
    },
    {
      "midi": 82,
      "hit": false,
      "t": 103999.97400000002,
      "d": 2666.6659999999974,
      "v": 100
    },
    {
      "midi": 56,
      "hit": false,
      "t": 104444.41833333325,
      "d": 444.4443333333329,
      "v": 100
    },
    {
      "midi": 54,
      "hit": false,
      "t": 104888.86266666658,
      "d": 444.4443333333329,
      "v": 100
    },
    {
      "midi": 56,
      "hit": false,
      "t": 105333.30699999991,
      "d": 444.4443333333329,
      "v": 100
    },
    {
      "midi": 54,
      "hit": false,
      "t": 105777.75133333325,
      "d": 444.4443333333329,
      "v": 100
    },
    {
      "midi": 56,
      "hit": false,
      "t": 106222.19566666658,
      "d": 444.4443333333329,
      "v": 100
    },
    {
      "midi": 55,
      "hit": false,
      "t": 106666.63999999991,
      "d": 444.4443333333329,
      "v": 100
    },
    {
      "midi": 47,
      "hit": false,
      "t": 106666.63999999991,
      "d": 1333.3329999999987,
      "v": 100
    },
    {
      "midi": 66,
      "hit": false,
      "t": 106666.64000000001,
      "d": 2666.6659999999974,
      "v": 100
    },
    {
      "midi": 71,
      "hit": false,
      "t": 106666.64000000001,
      "d": 2666.6659999999974,
      "v": 100
    },
    {
      "midi": 74,
      "hit": false,
      "t": 106666.64000000001,
      "d": 2666.6659999999974,
      "v": 100
    },
    {
      "midi": 54,
      "hit": false,
      "t": 107111.08433333325,
      "d": 444.4443333333329,
      "v": 100
    },
    {
      "midi": 55,
      "hit": false,
      "t": 107555.52866666658,
      "d": 444.4443333333329,
      "v": 100
    },
    {
      "midi": 54,
      "hit": false,
      "t": 107999.97299999991,
      "d": 444.4443333333329,
      "v": 100
    },
    {
      "midi": 55,
      "hit": false,
      "t": 108444.41733333324,
      "d": 444.4443333333329,
      "v": 100
    },
    {
      "midi": 54,
      "hit": false,
      "t": 108888.86166666658,
      "d": 444.4443333333329,
      "v": 100
    },
    {
      "midi": 59,
      "hit": false,
      "t": 109333.30599999991,
      "d": 444.4443333333329,
      "v": 100
    },
    {
      "midi": 45,
      "hit": false,
      "t": 109333.30599999991,
      "d": 1333.3329999999987,
      "v": 100
    },
    {
      "midi": 69,
      "hit": false,
      "t": 109333.30600000001,
      "d": 2666.6659999999974,
      "v": 100
    },
    {
      "midi": 73,
      "hit": false,
      "t": 109333.30600000001,
      "d": 2666.6659999999974,
      "v": 100
    },
    {
      "midi": 76,
      "hit": false,
      "t": 109333.30600000001,
      "d": 2666.6659999999974,
      "v": 100
    },
    {
      "midi": 56,
      "hit": false,
      "t": 109777.75033333324,
      "d": 444.4443333333329,
      "v": 100
    },
    {
      "midi": 59,
      "hit": false,
      "t": 110222.19466666658,
      "d": 444.4443333333329,
      "v": 100
    },
    {
      "midi": 57,
      "hit": false,
      "t": 110666.63899999991,
      "d": 444.4443333333329,
      "v": 100
    },
    {
      "midi": 59,
      "hit": false,
      "t": 111111.08333333324,
      "d": 444.4443333333329,
      "v": 100
    },
    {
      "midi": 57,
      "hit": false,
      "t": 111555.52766666657,
      "d": 444.4443333333329,
      "v": 100
    },
    {
      "midi": 59,
      "hit": false,
      "t": 111999.9719999999,
      "d": 444.4443333333329,
      "v": 100
    },
    {
      "midi": 50,
      "hit": false,
      "t": 111999.9719999999,
      "d": 1333.3329999999987,
      "v": 100
    },
    {
      "midi": 69,
      "hit": false,
      "t": 111999.97200000001,
      "d": 2666.6659999999974,
      "v": 100
    },
    {
      "midi": 74,
      "hit": false,
      "t": 111999.97200000001,
      "d": 2666.6659999999974,
      "v": 100
    },
    {
      "midi": 78,
      "hit": false,
      "t": 111999.97200000001,
      "d": 2666.6659999999974,
      "v": 100
    },
    {
      "midi": 57,
      "hit": false,
      "t": 112444.41633333324,
      "d": 444.4443333333329,
      "v": 100
    },
    {
      "midi": 59,
      "hit": false,
      "t": 112888.86066666657,
      "d": 444.4443333333329,
      "v": 100
    },
    {
      "midi": 57,
      "hit": false,
      "t": 113333.3049999999,
      "d": 444.4443333333329,
      "v": 100
    },
    {
      "midi": 59,
      "hit": false,
      "t": 113777.74933333324,
      "d": 444.4443333333329,
      "v": 100
    },
    {
      "midi": 57,
      "hit": false,
      "t": 114222.19366666657,
      "d": 444.4443333333329,
      "v": 100
    },
    {
      "midi": 62,
      "hit": false,
      "t": 114666.6379999999,
      "d": 444.4443333333329,
      "v": 100
    },
    {
      "midi": 49,
      "hit": false,
      "t": 114666.6379999999,
      "d": 1333.3329999999987,
      "v": 100
    },
    {
      "midi": 73,
      "hit": false,
      "t": 114666.638,
      "d": 2666.6659999999974,
      "v": 100
    },
    {
      "midi": 77,
      "hit": false,
      "t": 114666.638,
      "d": 2666.6659999999974,
      "v": 100
    },
    {
      "midi": 80,
      "hit": false,
      "t": 114666.638,
      "d": 2666.6659999999974,
      "v": 100
    },
    {
      "midi": 59,
      "hit": false,
      "t": 115111.08233333324,
      "d": 444.4443333333329,
      "v": 100
    },
    {
      "midi": 62,
      "hit": false,
      "t": 115555.52666666657,
      "d": 444.4443333333329,
      "v": 100
    },
    {
      "midi": 61,
      "hit": false,
      "t": 115999.9709999999,
      "d": 444.4443333333329,
      "v": 100
    },
    {
      "midi": 62,
      "hit": false,
      "t": 116444.41533333324,
      "d": 444.4443333333329,
      "v": 100
    },
    {
      "midi": 61,
      "hit": false,
      "t": 116888.85966666657,
      "d": 444.4443333333329,
      "v": 100
    },
    {
      "midi": 63,
      "hit": false,
      "t": 117333.3039999999,
      "d": 444.4443333333329,
      "v": 100
    },
    {
      "midi": 54,
      "hit": false,
      "t": 117333.3039999999,
      "d": 1333.3329999999987,
      "v": 100
    },
    {
      "midi": 73,
      "hit": false,
      "t": 117333.304,
      "d": 2666.6659999999974,
      "v": 100
    },
    {
      "midi": 78,
      "hit": false,
      "t": 117333.304,
      "d": 2666.6659999999974,
      "v": 100
    },
    {
      "midi": 82,
      "hit": false,
      "t": 117333.304,
      "d": 2666.6659999999974,
      "v": 100
    },
    {
      "midi": 61,
      "hit": false,
      "t": 117777.74833333323,
      "d": 444.4443333333329,
      "v": 100
    },
    {
      "midi": 63,
      "hit": false,
      "t": 118222.19266666657,
      "d": 444.4443333333329,
      "v": 100
    },
    {
      "midi": 61,
      "hit": false,
      "t": 118666.6369999999,
      "d": 444.4443333333329,
      "v": 100
    },
    {
      "midi": 63,
      "hit": false,
      "t": 119111.08133333323,
      "d": 444.4443333333329,
      "v": 100
    },
    {
      "midi": 61,
      "hit": false,
      "t": 119555.52566666657,
      "d": 444.4443333333329,
      "v": 100
    },
    {
      "midi": 66,
      "hit": false,
      "t": 119999.9699999999,
      "d": 444.4443333333329,
      "v": 100
    },
    {
      "midi": 53,
      "hit": false,
      "t": 119999.9699999999,
      "d": 1333.3329999999987,
      "v": 100
    },
    {
      "midi": 77,
      "hit": false,
      "t": 119999.97,
      "d": 2666.6659999999974,
      "v": 100
    },
    {
      "midi": 81,
      "hit": false,
      "t": 119999.97,
      "d": 2666.6659999999974,
      "v": 100
    },
    {
      "midi": 84,
      "hit": false,
      "t": 119999.97,
      "d": 2666.6659999999974,
      "v": 100
    },
    {
      "midi": 64,
      "hit": false,
      "t": 120444.41433333323,
      "d": 444.4443333333329,
      "v": 100
    },
    {
      "midi": 66,
      "hit": false,
      "t": 120888.85866666657,
      "d": 444.4443333333329,
      "v": 100
    },
    {
      "midi": 65,
      "hit": false,
      "t": 121333.3029999999,
      "d": 444.4443333333329,
      "v": 100
    },
    {
      "midi": 66,
      "hit": false,
      "t": 121777.74733333323,
      "d": 444.4443333333329,
      "v": 100
    },
    {
      "midi": 65,
      "hit": false,
      "t": 122222.19166666656,
      "d": 444.4443333333329,
      "v": 100
    },
    {
      "midi": 54,
      "hit": false,
      "t": 122666.6359999999,
      "d": 444.4443333333329,
      "v": 100
    },
    {
      "midi": 46,
      "hit": false,
      "t": 122666.6359999999,
      "d": 1333.3329999999987,
      "v": 100
    },
    {
      "midi": 77,
      "hit": false,
      "t": 122666.636,
      "d": 2666.6659999999974,
      "v": 100
    },
    {
      "midi": 82,
      "hit": false,
      "t": 122666.636,
      "d": 2666.6659999999974,
      "v": 100
    },
    {
      "midi": 85,
      "hit": false,
      "t": 122666.636,
      "d": 2666.6659999999974,
      "v": 100
    },
    {
      "midi": 53,
      "hit": false,
      "t": 123111.08033333323,
      "d": 444.4443333333329,
      "v": 100
    },
    {
      "midi": 54,
      "hit": false,
      "t": 123555.52466666656,
      "d": 444.4443333333329,
      "v": 100
    },
    {
      "midi": 53,
      "hit": false,
      "t": 123999.9689999999,
      "d": 444.4443333333329,
      "v": 100
    },
    {
      "midi": 54,
      "hit": false,
      "t": 124444.41333333323,
      "d": 444.4443333333329,
      "v": 100
    },
    {
      "midi": 53,
      "hit": false,
      "t": 124888.85766666656,
      "d": 444.4443333333329,
      "v": 100
    },
    {
      "midi": 58,
      "hit": false,
      "t": 125333.3019999999,
      "d": 444.4443333333329,
      "v": 100
    },
    {
      "midi": 44,
      "hit": false,
      "t": 125333.3019999999,
      "d": 1333.3329999999987,
      "v": 100
    },
    {
      "midi": 80,
      "hit": false,
      "t": 125333.302,
      "d": 2666.6659999999974,
      "v": 100
    },
    {
      "midi": 84,
      "hit": false,
      "t": 125333.302,
      "d": 2666.6659999999974,
      "v": 100
    },
    {
      "midi": 87,
      "hit": false,
      "t": 125333.302,
      "d": 2666.6659999999974,
      "v": 100
    },
    {
      "midi": 55,
      "hit": false,
      "t": 125777.74633333323,
      "d": 444.4443333333329,
      "v": 100
    },
    {
      "midi": 58,
      "hit": false,
      "t": 126222.19066666656,
      "d": 444.4443333333329,
      "v": 100
    },
    {
      "midi": 56,
      "hit": false,
      "t": 126666.6349999999,
      "d": 444.4443333333329,
      "v": 100
    },
    {
      "midi": 58,
      "hit": false,
      "t": 127111.07933333323,
      "d": 444.4443333333329,
      "v": 100
    },
    {
      "midi": 56,
      "hit": false,
      "t": 127555.52366666656,
      "d": 444.4443333333329,
      "v": 100
    },
    {
      "midi": 58,
      "hit": false,
      "t": 127999.96799999989,
      "d": 444.4443333333329,
      "v": 100
    },
    {
      "midi": 49,
      "hit": false,
      "t": 127999.96799999989,
      "d": 1333.3329999999987,
      "v": 100
    },
    {
      "midi": 68,
      "hit": false,
      "t": 127999.968,
      "d": 2666.6659999999974,
      "v": 100
    },
    {
      "midi": 73,
      "hit": false,
      "t": 127999.968,
      "d": 2666.6659999999974,
      "v": 100
    },
    {
      "midi": 77,
      "hit": false,
      "t": 127999.968,
      "d": 2666.6659999999974,
      "v": 100
    },
    {
      "midi": 56,
      "hit": false,
      "t": 128444.41233333322,
      "d": 444.4443333333329,
      "v": 100
    },
    {
      "midi": 58,
      "hit": false,
      "t": 128888.85666666656,
      "d": 444.4443333333329,
      "v": 100
    },
    {
      "midi": 56,
      "hit": false,
      "t": 129333.30099999989,
      "d": 444.4443333333329,
      "v": 100
    },
    {
      "midi": 58,
      "hit": false,
      "t": 129777.74533333322,
      "d": 444.4443333333329,
      "v": 100
    },
    {
      "midi": 56,
      "hit": false,
      "t": 130222.18966666656,
      "d": 444.4443333333329,
      "v": 100
    },
    {
      "midi": 61,
      "hit": false,
      "t": 130666.63399999989,
      "d": 444.4443333333329,
      "v": 100
    },
    {
      "midi": 48,
      "hit": false,
      "t": 130666.63399999989,
      "d": 1333.3330000000278,
      "v": 100
    },
    {
      "midi": 72,
      "hit": false,
      "t": 130666.63399999999,
      "d": 2666.6659999999974,
      "v": 100
    },
    {
      "midi": 76,
      "hit": false,
      "t": 130666.63399999999,
      "d": 2666.6659999999974,
      "v": 100
    },
    {
      "midi": 79,
      "hit": false,
      "t": 130666.63399999999,
      "d": 2666.6659999999974,
      "v": 100
    },
    {
      "midi": 59,
      "hit": false,
      "t": 131111.07833333322,
      "d": 444.44433333334746,
      "v": 100
    },
    {
      "midi": 61,
      "hit": false,
      "t": 131555.52266666657,
      "d": 444.44433333334746,
      "v": 100
    },
    {
      "midi": 60,
      "hit": false,
      "t": 131999.96699999992,
      "d": 444.44433333334746,
      "v": 100
    },
    {
      "midi": 61,
      "hit": false,
      "t": 132444.41133333326,
      "d": 444.44433333334746,
      "v": 100
    },
    {
      "midi": 60,
      "hit": false,
      "t": 132888.8556666666,
      "d": 444.44433333334746,
      "v": 100
    },
    {
      "midi": 63,
      "hit": false,
      "t": 133333.29999999996,
      "d": 444.44433333334746,
      "v": 100
    },
    {
      "midi": 58,
      "hit": false,
      "t": 133333.29999999996,
      "d": 1333.3330000000424,
      "v": 100
    },
    {
      "midi": 73,
      "hit": false,
      "t": 133333.3,
      "d": 2666.6659999999974,
      "v": 100
    },
    {
      "midi": 77,
      "hit": false,
      "t": 133333.3,
      "d": 2666.6659999999974,
      "v": 100
    },
    {
      "midi": 82,
      "hit": false,
      "t": 133333.3,
      "d": 2666.6659999999974,
      "v": 100
    },
    {
      "midi": 61,
      "hit": false,
      "t": 133777.7443333333,
      "d": 444.44433333334746,
      "v": 100
    },
    {
      "midi": 63,
      "hit": false,
      "t": 134222.18866666665,
      "d": 444.44433333334746,
      "v": 100
    },
    {
      "midi": 61,
      "hit": false,
      "t": 134666.633,
      "d": 444.44433333334746,
      "v": 100
    },
    {
      "midi": 63,
      "hit": false,
      "t": 135111.07733333335,
      "d": 444.44433333334746,
      "v": 100
    },
    {
      "midi": 61,
      "hit": false,
      "t": 135555.5216666667,
      "d": 444.44433333334746,
      "v": 100
    },
    {
      "midi": 75,
      "hit": false,
      "t": 135999.966,
      "d": 2666.6659999999974,
      "v": 100
    },
    {
      "midi": 80,
      "hit": false,
      "t": 135999.966,
      "d": 2666.6659999999974,
      "v": 100
    },
    {
      "midi": 84,
      "hit": false,
      "t": 135999.966,
      "d": 2666.6659999999974,
      "v": 100
    },
    {
      "midi": 65,
      "hit": false,
      "t": 135999.96600000004,
      "d": 444.44433333334746,
      "v": 100
    },
    {
      "midi": 56,
      "hit": false,
      "t": 135999.96600000004,
      "d": 1333.3330000000424,
      "v": 100
    },
    {
      "midi": 63,
      "hit": false,
      "t": 136444.4103333334,
      "d": 444.44433333334746,
      "v": 100
    },
    {
      "midi": 65,
      "hit": false,
      "t": 136888.85466666674,
      "d": 444.44433333334746,
      "v": 100
    },
    {
      "midi": 63,
      "hit": false,
      "t": 137333.2990000001,
      "d": 444.44433333334746,
      "v": 100
    },
    {
      "midi": 65,
      "hit": false,
      "t": 137777.74333333343,
      "d": 444.44433333334746,
      "v": 100
    },
    {
      "midi": 63,
      "hit": false,
      "t": 138222.18766666678,
      "d": 444.44433333334746,
      "v": 100
    },
    {
      "midi": 73,
      "hit": false,
      "t": 138666.63199999998,
      "d": 9333.331000000006,
      "v": 100
    },
    {
      "midi": 78,
      "hit": false,
      "t": 138666.63199999998,
      "d": 9333.331000000006,
      "v": 100
    },
    {
      "midi": 85,
      "hit": false,
      "t": 138666.63199999998,
      "d": 9333.331000000006,
      "v": 100
    },
    {
      "midi": 56,
      "hit": false,
      "t": 138666.63200000013,
      "d": 444.44433333334746,
      "v": 100
    },
    {
      "midi": 42,
      "hit": false,
      "t": 138666.63200000013,
      "d": 1333.3330000000424,
      "v": 100
    },
    {
      "midi": 53,
      "hit": false,
      "t": 139111.07633333348,
      "d": 444.44433333334746,
      "v": 100
    },
    {
      "midi": 56,
      "hit": false,
      "t": 139555.52066666682,
      "d": 444.44433333334746,
      "v": 100
    },
    {
      "midi": 54,
      "hit": false,
      "t": 139999.96500000017,
      "d": 444.44433333334746,
      "v": 100
    },
    {
      "midi": 56,
      "hit": false,
      "t": 140444.40933333352,
      "d": 444.44433333334746,
      "v": 100
    },
    {
      "midi": 54,
      "hit": false,
      "t": 140888.85366666687,
      "d": 444.44433333334746,
      "v": 100
    },
    {
      "midi": 56,
      "hit": false,
      "t": 141333.2980000002,
      "d": 444.44433333334746,
      "v": 100
    },
    {
      "midi": 53,
      "hit": false,
      "t": 141777.74233333356,
      "d": 444.44433333334746,
      "v": 100
    },
    {
      "midi": 56,
      "hit": false,
      "t": 142222.1866666669,
      "d": 444.44433333334746,
      "v": 100
    },
    {
      "midi": 54,
      "hit": false,
      "t": 142666.63100000026,
      "d": 444.44433333334746,
      "v": 100
    },
    {
      "midi": 56,
      "hit": false,
      "t": 143111.0753333336,
      "d": 444.44433333334746,
      "v": 100
    },
    {
      "midi": 54,
      "hit": false,
      "t": 143555.51966666695,
      "d": 444.44433333334746,
      "v": 100
    },
    {
      "midi": 59,
      "hit": false,
      "t": 143999.9640000003,
      "d": 444.44433333334746,
      "v": 100
    },
    {
      "midi": 54,
      "hit": false,
      "t": 143999.9640000003,
      "d": 1333.3330000000424,
      "v": 100
    },
    {
      "midi": 56,
      "hit": false,
      "t": 144444.40833333365,
      "d": 444.44433333334746,
      "v": 100
    },
    {
      "midi": 59,
      "hit": false,
      "t": 144888.852666667,
      "d": 444.44433333334746,
      "v": 100
    },
    {
      "midi": 58,
      "hit": false,
      "t": 145333.29700000034,
      "d": 444.44433333334746,
      "v": 100
    },
    {
      "midi": 59,
      "hit": false,
      "t": 145777.7413333337,
      "d": 444.44433333334746,
      "v": 100
    },
    {
      "midi": 58,
      "hit": false,
      "t": 146222.18566666704,
      "d": 444.44433333334746,
      "v": 100
    },
    {
      "midi": 59,
      "hit": false,
      "t": 146666.63000000038,
      "d": 444.44433333334746,
      "v": 100
    },
    {
      "midi": 56,
      "hit": false,
      "t": 147111.07433333373,
      "d": 444.44433333334746,
      "v": 100
    },
    {
      "midi": 59,
      "hit": false,
      "t": 147555.51866666708,
      "d": 444.44433333334746,
      "v": 100
    },
    {
      "midi": 75,
      "hit": false,
      "t": 147999.963,
      "d": 1333.3330000000133,
      "v": 100
    },
    {
      "midi": 80,
      "hit": false,
      "t": 147999.963,
      "d": 1333.3330000000133,
      "v": 100
    },
    {
      "midi": 87,
      "hit": false,
      "t": 147999.963,
      "d": 1333.3330000000133,
      "v": 100
    },
    {
      "midi": 58,
      "hit": false,
      "t": 147999.96300000043,
      "d": 444.44433333334746,
      "v": 100
    },
    {
      "midi": 59,
      "hit": false,
      "t": 148444.40733333377,
      "d": 444.44433333334746,
      "v": 100
    },
    {
      "midi": 58,
      "hit": false,
      "t": 148888.85166666712,
      "d": 444.44433333334746,
      "v": 100
    },
    {
      "midi": 77,
      "hit": false,
      "t": 149333.296,
      "d": 10666.66399999999,
      "v": 100
    },
    {
      "midi": 81,
      "hit": false,
      "t": 149333.296,
      "d": 10666.66399999999,
      "v": 100
    },
    {
      "midi": 84,
      "hit": false,
      "t": 149333.296,
      "d": 10666.66399999999,
      "v": 100
    },
    {
      "midi": 89,
      "hit": false,
      "t": 149333.296,
      "d": 10666.66399999999,
      "v": 100
    },
    {
      "midi": 61,
      "hit": false,
      "t": 149333.29600000047,
      "d": 444.44433333334746,
      "v": 100
    },
    {
      "midi": 53,
      "hit": false,
      "t": 149333.29600000047,
      "d": 1333.3330000000424,
      "v": 100
    },
    {
      "midi": 60,
      "hit": false,
      "t": 149777.74033333382,
      "d": 444.44433333334746,
      "v": 100
    },
    {
      "midi": 61,
      "hit": false,
      "t": 150222.18466666716,
      "d": 444.44433333334746,
      "v": 100
    },
    {
      "midi": 60,
      "hit": false,
      "t": 150666.6290000005,
      "d": 444.44433333334746,
      "v": 100
    },
    {
      "midi": 53,
      "hit": false,
      "t": 151111.07333333386,
      "d": 444.44433333334746,
      "v": 100
    },
    {
      "midi": 60,
      "hit": false,
      "t": 151555.5176666672,
      "d": 444.44433333334746,
      "v": 100
    },
    {
      "midi": 61,
      "hit": false,
      "t": 151999.96200000055,
      "d": 444.44433333334746,
      "v": 100
    },
    {
      "midi": 60,
      "hit": false,
      "t": 152444.4063333339,
      "d": 444.44433333334746,
      "v": 100
    },
    {
      "midi": 61,
      "hit": false,
      "t": 152888.85066666725,
      "d": 444.44433333334746,
      "v": 100
    },
    {
      "midi": 60,
      "hit": false,
      "t": 153333.2950000006,
      "d": 444.44433333334746,
      "v": 100
    },
    {
      "midi": 53,
      "hit": false,
      "t": 153777.73933333394,
      "d": 444.44433333334746,
      "v": 100
    },
    {
      "midi": 60,
      "hit": false,
      "t": 154222.1836666673,
      "d": 444.44433333334746,
      "v": 100
    },
    {
      "midi": 61,
      "hit": false,
      "t": 154666.62800000064,
      "d": 444.44433333334746,
      "v": 100
    },
    {
      "midi": 53,
      "hit": false,
      "t": 154666.62800000064,
      "d": 1333.3330000000424,
      "v": 100
    },
    {
      "midi": 60,
      "hit": false,
      "t": 155111.07233333398,
      "d": 444.44433333334746,
      "v": 100
    },
    {
      "midi": 61,
      "hit": false,
      "t": 155555.51666666733,
      "d": 444.44433333334746,
      "v": 100
    },
    {
      "midi": 60,
      "hit": false,
      "t": 155999.96100000068,
      "d": 444.44433333334746,
      "v": 100
    },
    {
      "midi": 53,
      "hit": false,
      "t": 156444.40533333403,
      "d": 444.44433333334746,
      "v": 100
    },
    {
      "midi": 60,
      "hit": false,
      "t": 156888.84966666737,
      "d": 444.44433333334746,
      "v": 100
    },
    {
      "midi": 61,
      "hit": false,
      "t": 157333.29400000072,
      "d": 444.44433333334746,
      "v": 100
    },
    {
      "midi": 60,
      "hit": false,
      "t": 157777.73833333407,
      "d": 444.44433333334746,
      "v": 100
    },
    {
      "midi": 61,
      "hit": false,
      "t": 158222.18266666742,
      "d": 444.44433333334746,
      "v": 100
    },
    {
      "midi": 60,
      "hit": false,
      "t": 158666.62700000076,
      "d": 444.44433333334746,
      "v": 100
    },
    {
      "midi": 53,
      "hit": false,
      "t": 159111.0713333341,
      "d": 444.44433333334746,
      "v": 100
    },
    {
      "midi": 60,
      "hit": false,
      "t": 159555.51566666746,
      "d": 444.44433333334746,
      "v": 100
    },
    {
      "midi": 77,
      "hit": false,
      "t": 159999.96,
      "d": 1333.3330000000133,
      "v": 100
    },
    {
      "midi": 81,
      "hit": false,
      "t": 159999.96,
      "d": 1333.3330000000133,
      "v": 100
    },
    {
      "midi": 89,
      "hit": false,
      "t": 159999.96,
      "d": 1333.3330000000133,
      "v": 100
    },
    {
      "midi": 53,
      "hit": false,
      "t": 159999.9600000008,
      "d": 1333.3330000000133,
      "v": 100
    },
    {
      "midi": 60,
      "hit": false,
      "t": 159999.9600000008,
      "d": 1333.3330000000133,
      "v": 100
    },
    {
      "midi": 65,
      "hit": false,
      "t": 159999.9600000008,
      "d": 1333.3330000000133,
      "v": 100
    }
  ]
}