{
  "jsonPath": "Unknown/Unknown/Touch  Go/would-you.json",
  "path": "Unknown\\Unknown\\Touch  Go\\Would You.mid",
  "name": "Would You",
  "difficulty": "Advanced",
  "bpm": 170.0000850000425,
  "notes": [
    {
      "midi": 56,
      "hit": false,
      "t": 36705.863999999994,
      "d": 130.8822874999969,
      "v": 83
    },
    {
      "midi": 60,
      "hit": false,
      "t": 36705.863999999994,
      "d": 133.08816875000048,
      "v": 88
    },
    {
      "midi": 65,
      "hit": false,
      "t": 36705.863999999994,
      "d": 134.55875625000044,
      "v": 75
    },
    {
      "midi": 48,
      "hit": false,
      "t": 36705.863999999994,
      "d": 138.235225000004,
      "v": 51
    },
    {
      "midi": 56,
      "hit": false,
      "t": 37052.92265,
      "d": 133.08816875000775,
      "v": 77
    },
    {
      "midi": 65,
      "hit": false,
      "t": 37055.128531250004,
      "d": 130.88228750000417,
      "v": 86
    },
    {
      "midi": 60,
      "hit": false,
      "t": 37055.128531250004,
      "d": 140.44110625000758,
      "v": 90
    },
    {
      "midi": 48,
      "hit": false,
      "t": 37074.98146250001,
      "d": 140.44110625000758,
      "v": 59
    },
    {
      "midi": 60,
      "hit": false,
      "t": 37589.68708750002,
      "d": 122.05876250001165,
      "v": 89
    },
    {
      "midi": 65,
      "hit": false,
      "t": 37591.89296875002,
      "d": 136.7646375000113,
      "v": 80
    },
    {
      "midi": 56,
      "hit": false,
      "t": 37593.36355625002,
      "d": 108.82347500000469,
      "v": 75
    },
    {
      "midi": 48,
      "hit": false,
      "t": 37597.040025000024,
      "d": 140.44110625000758,
      "v": 66
    },
    {
      "midi": 50,
      "hit": false,
      "t": 38111.74565000003,
      "d": 140.44110625000758,
      "v": 59
    },
    {
      "midi": 62,
      "hit": false,
      "t": 38117.62800000003,
      "d": 127.20581875000062,
      "v": 94
    },
    {
      "midi": 65,
      "hit": false,
      "t": 38119.09858750003,
      "d": 123.52934999999707,
      "v": 81
    },
    {
      "midi": 58,
      "hit": false,
      "t": 38119.09858750003,
      "d": 130.88228750000417,
      "v": 78
    },
    {
      "midi": 58,
      "hit": false,
      "t": 38654.39243750004,
      "d": 112.49994375000097,
      "v": 76
    },
    {
      "midi": 62,
      "hit": false,
      "t": 38654.39243750004,
      "d": 119.85288125000079,
      "v": 91
    },
    {
      "midi": 65,
      "hit": false,
      "t": 38655.86302500004,
      "d": 119.85288125000079,
      "v": 77
    },
    {
      "midi": 50,
      "hit": false,
      "t": 38659.539493750046,
      "d": 140.4411062500003,
      "v": 51
    },
    {
      "midi": 50,
      "hit": false,
      "t": 39176.451000000045,
      "d": 138.23522500001127,
      "v": 51
    },
    {
      "midi": 58,
      "hit": false,
      "t": 39176.451000000045,
      "d": 138.23522500001127,
      "v": 70
    },
    {
      "midi": 62,
      "hit": false,
      "t": 39180.12746875005,
      "d": 111.029356250001,
      "v": 91
    },
    {
      "midi": 65,
      "hit": false,
      "t": 39180.12746875005,
      "d": 123.52935000000434,
      "v": 81
    },
    {
      "midi": 65,
      "hit": false,
      "t": 39530.86258750006,
      "d": 133.08816875000775,
      "v": 88
    },
    {
      "midi": 56,
      "hit": false,
      "t": 39533.06846875006,
      "d": 118.38229375000083,
      "v": 70
    },
    {
      "midi": 60,
      "hit": false,
      "t": 39534.53905625006,
      "d": 123.52935000000434,
      "v": 76
    },
    {
      "midi": 48,
      "hit": false,
      "t": 39544.097875000065,
      "d": 140.4411062500003,
      "v": 59
    },
    {
      "midi": 48,
      "hit": false,
      "t": 39869.097712500065,
      "d": 140.4411062500003,
      "v": 53
    },
    {
      "midi": 60,
      "hit": false,
      "t": 39878.65653125007,
      "d": 145.58816249999654,
      "v": 88
    },
    {
      "midi": 56,
      "hit": false,
      "t": 39878.65653125007,
      "d": 151.4705124999964,
      "v": 75
    },
    {
      "midi": 65,
      "hit": false,
      "t": 39880.12711875007,
      "d": 144.11757499999658,
      "v": 79
    },
    {
      "midi": 60,
      "hit": false,
      "t": 40415.42096875006,
      "d": 97.79406875000132,
      "v": 86
    },
    {
      "midi": 56,
      "hit": false,
      "t": 40415.42096875006,
      "d": 107.35288750000473,
      "v": 72
    },
    {
      "midi": 65,
      "hit": false,
      "t": 40416.89155625006,
      "d": 116.17641250000452,
      "v": 86
    },
    {
      "midi": 48,
      "hit": false,
      "t": 40427.920962500066,
      "d": 138.235225000004,
      "v": 59
    },
    {
      "midi": 46,
      "hit": false,
      "t": 40938.95011875007,
      "d": 140.4411062500003,
      "v": 52
    },
    {
      "midi": 62,
      "hit": false,
      "t": 40938.95011875007,
      "d": 140.4411062500003,
      "v": 91
    },
    {
      "midi": 58,
      "hit": false,
      "t": 40941.156000000075,
      "d": 144.11757499999658,
      "v": 71
    },
    {
      "midi": 67,
      "hit": false,
      "t": 40942.626587500075,
      "d": 138.23522499999672,
      "v": 87
    },
    {
      "midi": 58,
      "hit": false,
      "t": 41474.243968750074,
      "d": 140.4411062500003,
      "v": 68
    },
    {
      "midi": 62,
      "hit": false,
      "t": 41475.714556250074,
      "d": 138.23522499999672,
      "v": 85
    },
    {
      "midi": 67,
      "hit": false,
      "t": 41475.714556250074,
      "d": 140.4411062500003,
      "v": 77
    },
    {
      "midi": 46,
      "hit": false,
      "t": 41483.06749375007,
      "d": 140.4411062500003,
      "v": 60
    },
    {
      "midi": 58,
      "hit": false,
      "t": 41997.773118750076,
      "d": 134.55875625000772,
      "v": 73
    },
    {
      "midi": 62,
      "hit": false,
      "t": 41997.773118750076,
      "d": 138.23522500001127,
      "v": 88
    },
    {
      "midi": 46,
      "hit": false,
      "t": 41999.97900000008,
      "d": 140.44110625000758,
      "v": 63
    },
    {
      "midi": 67,
      "hit": false,
      "t": 42001.44958750008,
      "d": 125.73523125000065,
      "v": 77
    },
    {
      "midi": 56,
      "hit": false,
      "t": 42352.920000000086,
      "d": 130.8822874999969,
      "v": 83
    },
    {
      "midi": 60,
      "hit": false,
      "t": 42352.920000000086,
      "d": 133.08816875000048,
      "v": 88
    },
    {
      "midi": 65,
      "hit": false,
      "t": 42352.920000000086,
      "d": 134.55875625000044,
      "v": 75
    },
    {
      "midi": 48,
      "hit": false,
      "t": 42352.920000000086,
      "d": 138.235225000004,
      "v": 51
    },
    {
      "midi": 56,
      "hit": false,
      "t": 42699.97865000009,
      "d": 133.08816875000775,
      "v": 77
    },
    {
      "midi": 65,
      "hit": false,
      "t": 42702.184531250095,
      "d": 130.88228750000417,
      "v": 86
    },
    {
      "midi": 60,
      "hit": false,
      "t": 42702.184531250095,
      "d": 140.44110625000758,
      "v": 90
    },
    {
      "midi": 48,
      "hit": false,
      "t": 42722.0374625001,
      "d": 140.44110625000758,
      "v": 59
    },
    {
      "midi": 60,
      "hit": false,
      "t": 43236.74308750011,
      "d": 122.05876250001165,
      "v": 89
    },
    {
      "midi": 65,
      "hit": false,
      "t": 43238.94896875011,
      "d": 136.7646375000113,
      "v": 80
    },
    {
      "midi": 56,
      "hit": false,
      "t": 43240.41955625011,
      "d": 108.82347500000469,
      "v": 75
    },
    {
      "midi": 48,
      "hit": false,
      "t": 43244.096025000115,
      "d": 140.44110625000758,
      "v": 66
    },
    {
      "midi": 50,
      "hit": false,
      "t": 43758.801650000125,
      "d": 140.44110625000758,
      "v": 59
    },
    {
      "midi": 62,
      "hit": false,
      "t": 43764.684000000125,
      "d": 127.20581875000062,
      "v": 94
    },
    {
      "midi": 65,
      "hit": false,
      "t": 43766.154587500125,
      "d": 123.52934999999707,
      "v": 81
    },
    {
      "midi": 58,
      "hit": false,
      "t": 43766.154587500125,
      "d": 130.88228750000417,
      "v": 78
    },
    {
      "midi": 58,
      "hit": false,
      "t": 44301.448437500134,
      "d": 112.49994375000097,
      "v": 76
    },
    {
      "midi": 62,
      "hit": false,
      "t": 44301.448437500134,
      "d": 119.85288125000079,
      "v": 91
    },
    {
      "midi": 65,
      "hit": false,
      "t": 44302.919025000134,
      "d": 119.85288125000079,
      "v": 77
    },
    {
      "midi": 50,
      "hit": false,
      "t": 44306.59549375014,
      "d": 140.4411062500003,
      "v": 51
    },
    {
      "midi": 50,
      "hit": false,
      "t": 44823.507000000136,
      "d": 138.23522500001127,
      "v": 51
    },
    {
      "midi": 58,
      "hit": false,
      "t": 44823.507000000136,
      "d": 138.23522500001127,
      "v": 70
    },
    {
      "midi": 62,
      "hit": false,
      "t": 44827.18346875014,
      "d": 111.029356250001,
      "v": 91
    },
    {
      "midi": 65,
      "hit": false,
      "t": 44827.18346875014,
      "d": 123.52935000000434,
      "v": 81
    },
    {
      "midi": 65,
      "hit": false,
      "t": 45177.91858750015,
      "d": 133.08816875000775,
      "v": 88
    },
    {
      "midi": 56,
      "hit": false,
      "t": 45180.12446875015,
      "d": 118.38229375000083,
      "v": 70
    },
    {
      "midi": 60,
      "hit": false,
      "t": 45181.59505625015,
      "d": 123.52935000000434,
      "v": 76
    },
    {
      "midi": 48,
      "hit": false,
      "t": 45191.15387500016,
      "d": 140.4411062500003,
      "v": 59
    },
    {
      "midi": 48,
      "hit": false,
      "t": 45516.153712500156,
      "d": 140.4411062500003,
      "v": 53
    },
    {
      "midi": 60,
      "hit": false,
      "t": 45525.71253125016,
      "d": 145.58816249999654,
      "v": 88
    },
    {
      "midi": 56,
      "hit": false,
      "t": 45525.71253125016,
      "d": 151.4705124999964,
      "v": 75
    },
    {
      "midi": 65,
      "hit": false,
      "t": 45527.18311875016,
      "d": 144.11757499999658,
      "v": 79
    },
    {
      "midi": 60,
      "hit": false,
      "t": 46062.476968750154,
      "d": 97.79406875000132,
      "v": 86
    },
    {
      "midi": 56,
      "hit": false,
      "t": 46062.476968750154,
      "d": 107.35288750000473,
      "v": 72
    },
    {
      "midi": 65,
      "hit": false,
      "t": 46063.947556250154,
      "d": 116.17641250000452,
      "v": 86
    },
    {
      "midi": 48,
      "hit": false,
      "t": 46074.97696250016,
      "d": 138.235225000004,
      "v": 59
    },
    {
      "midi": 46,
      "hit": false,
      "t": 46586.00611875016,
      "d": 140.4411062500003,
      "v": 52
    },
    {
      "midi": 62,
      "hit": false,
      "t": 46586.00611875016,
      "d": 140.4411062500003,
      "v": 91
    },
    {
      "midi": 58,
      "hit": false,
      "t": 46588.21200000017,
      "d": 144.11757499999658,
      "v": 71
    },
    {
      "midi": 67,
      "hit": false,
      "t": 46589.68258750017,
      "d": 138.23522499999672,
      "v": 87
    },
    {
      "midi": 58,
      "hit": false,
      "t": 47121.299968750165,
      "d": 140.4411062500003,
      "v": 68
    },
    {
      "midi": 62,
      "hit": false,
      "t": 47122.770556250165,
      "d": 138.23522499999672,
      "v": 85
    },
    {
      "midi": 67,
      "hit": false,
      "t": 47122.770556250165,
      "d": 140.4411062500003,
      "v": 77
    },
    {
      "midi": 46,
      "hit": false,
      "t": 47130.123493750165,
      "d": 140.4411062500003,
      "v": 60
    },
    {
      "midi": 58,
      "hit": false,
      "t": 47644.82911875017,
      "d": 134.55875625000772,
      "v": 73
    },
    {
      "midi": 62,
      "hit": false,
      "t": 47644.82911875017,
      "d": 138.23522500001127,
      "v": 88
    },
    {
      "midi": 46,
      "hit": false,
      "t": 47647.03500000017,
      "d": 140.44110625000758,
      "v": 63
    },
    {
      "midi": 67,
      "hit": false,
      "t": 47648.50558750017,
      "d": 125.73523125000065,
      "v": 77
    },
    {
      "midi": 56,
      "hit": false,
      "t": 47999.97600000018,
      "d": 130.8822874999969,
      "v": 83
    },
    {
      "midi": 60,
      "hit": false,
      "t": 47999.97600000018,
      "d": 133.08816875000048,
      "v": 88
    },
    {
      "midi": 65,
      "hit": false,
      "t": 47999.97600000018,
      "d": 134.55875625000044,
      "v": 75
    },
    {
      "midi": 48,
      "hit": false,
      "t": 47999.97600000018,
      "d": 138.235225000004,
      "v": 51
    },
    {
      "midi": 56,
      "hit": false,
      "t": 48347.03465000018,
      "d": 133.08816875000775,
      "v": 77
    },
    {
      "midi": 65,
      "hit": false,
      "t": 48349.24053125019,
      "d": 130.88228750000417,
      "v": 86
    },
    {
      "midi": 60,
      "hit": false,
      "t": 48349.24053125019,
      "d": 140.44110625000758,
      "v": 90
    },
    {
      "midi": 48,
      "hit": false,
      "t": 48369.09346250019,
      "d": 140.44110625000758,
      "v": 59
    },
    {
      "midi": 60,
      "hit": false,
      "t": 48883.7990875002,
      "d": 122.05876250001165,
      "v": 89
    },
    {
      "midi": 65,
      "hit": false,
      "t": 48886.0049687502,
      "d": 136.7646375000113,
      "v": 80
    },
    {
      "midi": 56,
      "hit": false,
      "t": 48887.4755562502,
      "d": 108.82347500000469,
      "v": 75
    },
    {
      "midi": 48,
      "hit": false,
      "t": 48891.15202500021,
      "d": 140.44110625000758,
      "v": 66
    },
    {
      "midi": 50,
      "hit": false,
      "t": 49405.85765000022,
      "d": 140.44110625000758,
      "v": 59
    },
    {
      "midi": 62,
      "hit": false,
      "t": 49411.740000000216,
      "d": 127.20581875000062,
      "v": 94
    },
    {
      "midi": 65,
      "hit": false,
      "t": 49413.210587500216,
      "d": 123.52934999999707,
      "v": 81
    },
    {
      "midi": 58,
      "hit": false,
      "t": 49413.210587500216,
      "d": 130.88228750000417,
      "v": 78
    },
    {
      "midi": 58,
      "hit": false,
      "t": 49948.504437500225,
      "d": 112.49994375000097,
      "v": 76
    },
    {
      "midi": 62,
      "hit": false,
      "t": 49948.504437500225,
      "d": 119.85288125000079,
      "v": 91
    },
    {
      "midi": 65,
      "hit": false,
      "t": 49949.975025000225,
      "d": 119.85288125000079,
      "v": 77
    },
    {
      "midi": 50,
      "hit": false,
      "t": 49953.65149375023,
      "d": 140.4411062500003,
      "v": 51
    },
    {
      "midi": 50,
      "hit": false,
      "t": 50470.56300000023,
      "d": 138.23522500001127,
      "v": 51
    },
    {
      "midi": 58,
      "hit": false,
      "t": 50470.56300000023,
      "d": 138.23522500001127,
      "v": 70
    },
    {
      "midi": 62,
      "hit": false,
      "t": 50474.23946875023,
      "d": 111.029356250001,
      "v": 91
    },
    {
      "midi": 65,
      "hit": false,
      "t": 50474.23946875023,
      "d": 123.52935000000434,
      "v": 81
    },
    {
      "midi": 65,
      "hit": false,
      "t": 50824.97458750024,
      "d": 133.08816875000775,
      "v": 88
    },
    {
      "midi": 56,
      "hit": false,
      "t": 50827.180468750244,
      "d": 118.38229375000083,
      "v": 70
    },
    {
      "midi": 60,
      "hit": false,
      "t": 50828.651056250244,
      "d": 123.52935000000434,
      "v": 76
    },
    {
      "midi": 48,
      "hit": false,
      "t": 50838.20987500025,
      "d": 140.4411062500003,
      "v": 59
    },
    {
      "midi": 48,
      "hit": false,
      "t": 51163.20971250025,
      "d": 140.4411062500003,
      "v": 53
    },
    {
      "midi": 60,
      "hit": false,
      "t": 51172.76853125025,
      "d": 145.58816249999654,
      "v": 88
    },
    {
      "midi": 56,
      "hit": false,
      "t": 51172.76853125025,
      "d": 151.4705124999964,
      "v": 75
    },
    {
      "midi": 65,
      "hit": false,
      "t": 51174.23911875025,
      "d": 144.11757499999658,
      "v": 79
    },
    {
      "midi": 60,
      "hit": false,
      "t": 51709.532968750245,
      "d": 97.79406875000132,
      "v": 86
    },
    {
      "midi": 56,
      "hit": false,
      "t": 51709.532968750245,
      "d": 107.35288750000473,
      "v": 72
    },
    {
      "midi": 65,
      "hit": false,
      "t": 51711.003556250245,
      "d": 116.17641250000452,
      "v": 86
    },
    {
      "midi": 48,
      "hit": false,
      "t": 51722.03296250025,
      "d": 138.235225000004,
      "v": 59
    },
    {
      "midi": 46,
      "hit": false,
      "t": 52233.062118750255,
      "d": 140.4411062500003,
      "v": 52
    },
    {
      "midi": 62,
      "hit": false,
      "t": 52233.062118750255,
      "d": 140.4411062500003,
      "v": 91
    },
    {
      "midi": 58,
      "hit": false,
      "t": 52235.26800000026,
      "d": 144.11757499999658,
      "v": 71
    },
    {
      "midi": 67,
      "hit": false,
      "t": 52236.73858750026,
      "d": 138.23522499999672,
      "v": 87
    },
    {
      "midi": 58,
      "hit": false,
      "t": 52768.35596875026,
      "d": 140.4411062500003,
      "v": 68
    },
    {
      "midi": 62,
      "hit": false,
      "t": 52769.82655625026,
      "d": 138.23522499999672,
      "v": 85
    },
    {
      "midi": 67,
      "hit": false,
      "t": 52769.82655625026,
      "d": 140.4411062500003,
      "v": 77
    },
    {
      "midi": 46,
      "hit": false,
      "t": 52777.17949375026,
      "d": 140.4411062500003,
      "v": 60
    },
    {
      "midi": 58,
      "hit": false,
      "t": 53291.88511875026,
      "d": 134.55875625000772,
      "v": 73
    },
    {
      "midi": 62,
      "hit": false,
      "t": 53291.88511875026,
      "d": 138.23522500001127,
      "v": 88
    },
    {
      "midi": 46,
      "hit": false,
      "t": 53294.09100000026,
      "d": 140.44110625000758,
      "v": 63
    },
    {
      "midi": 67,
      "hit": false,
      "t": 53295.56158750026,
      "d": 125.73523125000065,
      "v": 77
    },
    {
      "midi": 56,
      "hit": false,
      "t": 53647.03200000027,
      "d": 130.8822874999969,
      "v": 83
    },
    {
      "midi": 60,
      "hit": false,
      "t": 53647.03200000027,
      "d": 133.08816875000048,
      "v": 88
    },
    {
      "midi": 65,
      "hit": false,
      "t": 53647.03200000027,
      "d": 134.55875625000044,
      "v": 75
    },
    {
      "midi": 48,
      "hit": false,
      "t": 53647.03200000027,
      "d": 138.235225000004,
      "v": 51
    },
    {
      "midi": 56,
      "hit": false,
      "t": 53994.090650000275,
      "d": 133.08816875000775,
      "v": 77
    },
    {
      "midi": 65,
      "hit": false,
      "t": 53996.29653125028,
      "d": 130.88228750000417,
      "v": 86
    },
    {
      "midi": 60,
      "hit": false,
      "t": 53996.29653125028,
      "d": 140.44110625000758,
      "v": 90
    },
    {
      "midi": 48,
      "hit": false,
      "t": 54016.14946250028,
      "d": 140.44110625000758,
      "v": 59
    },
    {
      "midi": 60,
      "hit": false,
      "t": 54530.85508750029,
      "d": 122.05876250001165,
      "v": 89
    },
    {
      "midi": 65,
      "hit": false,
      "t": 54533.060968750295,
      "d": 136.7646375000113,
      "v": 80
    },
    {
      "midi": 56,
      "hit": false,
      "t": 54534.531556250295,
      "d": 108.82347500000469,
      "v": 75
    },
    {
      "midi": 48,
      "hit": false,
      "t": 54538.2080250003,
      "d": 140.44110625000758,
      "v": 66
    },
    {
      "midi": 50,
      "hit": false,
      "t": 55052.91365000031,
      "d": 140.44110625000758,
      "v": 59
    },
    {
      "midi": 62,
      "hit": false,
      "t": 55058.79600000031,
      "d": 127.20581875000062,
      "v": 94
    },
    {
      "midi": 65,
      "hit": false,
      "t": 55060.26658750031,
      "d": 123.52934999999707,
      "v": 81
    },
    {
      "midi": 58,
      "hit": false,
      "t": 55060.26658750031,
      "d": 130.88228750000417,
      "v": 78
    },
    {
      "midi": 58,
      "hit": false,
      "t": 55595.56043750032,
      "d": 112.49994375000097,
      "v": 76
    },
    {
      "midi": 62,
      "hit": false,
      "t": 55595.56043750032,
      "d": 119.85288125000079,
      "v": 91
    },
    {
      "midi": 65,
      "hit": false,
      "t": 55597.03102500032,
      "d": 119.85288125000079,
      "v": 77
    },
    {
      "midi": 50,
      "hit": false,
      "t": 55600.70749375032,
      "d": 140.4411062500003,
      "v": 51
    },
    {
      "midi": 50,
      "hit": false,
      "t": 56117.61900000032,
      "d": 138.23522500001127,
      "v": 51
    },
    {
      "midi": 58,
      "hit": false,
      "t": 56117.61900000032,
      "d": 138.23522500001127,
      "v": 70
    },
    {
      "midi": 62,
      "hit": false,
      "t": 56121.29546875032,
      "d": 111.029356250001,
      "v": 91
    },
    {
      "midi": 65,
      "hit": false,
      "t": 56121.29546875032,
      "d": 123.52935000000434,
      "v": 81
    },
    {
      "midi": 65,
      "hit": false,
      "t": 56472.03058750033,
      "d": 133.08816875000775,
      "v": 88
    },
    {
      "midi": 56,
      "hit": false,
      "t": 56474.236468750336,
      "d": 118.38229375000083,
      "v": 70
    },
    {
      "midi": 60,
      "hit": false,
      "t": 56475.707056250336,
      "d": 123.52935000000434,
      "v": 76
    },
    {
      "midi": 48,
      "hit": false,
      "t": 56485.26587500034,
      "d": 140.4411062500003,
      "v": 59
    },
    {
      "midi": 48,
      "hit": false,
      "t": 56810.26571250034,
      "d": 140.4411062500003,
      "v": 53
    },
    {
      "midi": 60,
      "hit": false,
      "t": 56819.82453125034,
      "d": 145.58816249999654,
      "v": 88
    },
    {
      "midi": 56,
      "hit": false,
      "t": 56819.82453125034,
      "d": 151.4705124999964,
      "v": 75
    },
    {
      "midi": 65,
      "hit": false,
      "t": 56821.29511875034,
      "d": 144.11757499999658,
      "v": 79
    },
    {
      "midi": 60,
      "hit": false,
      "t": 57356.58896875034,
      "d": 97.79406875000132,
      "v": 86
    },
    {
      "midi": 56,
      "hit": false,
      "t": 57356.58896875034,
      "d": 107.35288750000473,
      "v": 72
    },
    {
      "midi": 65,
      "hit": false,
      "t": 57358.05955625034,
      "d": 116.17641250000452,
      "v": 86
    },
    {
      "midi": 48,
      "hit": false,
      "t": 57369.08896250034,
      "d": 138.235225000004,
      "v": 59
    },
    {
      "midi": 46,
      "hit": false,
      "t": 57880.118118750346,
      "d": 140.4411062500003,
      "v": 52
    },
    {
      "midi": 62,
      "hit": false,
      "t": 57880.118118750346,
      "d": 140.4411062500003,
      "v": 91
    },
    {
      "midi": 58,
      "hit": false,
      "t": 57882.32400000035,
      "d": 144.11757499999658,
      "v": 71
    },
    {
      "midi": 67,
      "hit": false,
      "t": 57883.79458750035,
      "d": 138.23522499999672,
      "v": 87
    },
    {
      "midi": 58,
      "hit": false,
      "t": 58415.41196875035,
      "d": 140.4411062500003,
      "v": 68
    },
    {
      "midi": 62,
      "hit": false,
      "t": 58416.88255625035,
      "d": 138.23522499999672,
      "v": 85
    },
    {
      "midi": 67,
      "hit": false,
      "t": 58416.88255625035,
      "d": 140.4411062500003,
      "v": 77
    },
    {
      "midi": 46,
      "hit": false,
      "t": 58424.23549375035,
      "d": 140.4411062500003,
      "v": 60
    },
    {
      "midi": 58,
      "hit": false,
      "t": 58938.94111875035,
      "d": 134.55875625000772,
      "v": 73
    },
    {
      "midi": 62,
      "hit": false,
      "t": 58938.94111875035,
      "d": 138.23522500001127,
      "v": 88
    },
    {
      "midi": 46,
      "hit": false,
      "t": 58941.147000000354,
      "d": 140.44110625000758,
      "v": 63
    },
    {
      "midi": 67,
      "hit": false,
      "t": 58942.617587500354,
      "d": 125.73523125000065,
      "v": 77
    },
    {
      "midi": 56,
      "hit": false,
      "t": 59294.08800000036,
      "d": 130.8822874999969,
      "v": 83
    },
    {
      "midi": 60,
      "hit": false,
      "t": 59294.08800000036,
      "d": 133.08816875000048,
      "v": 88
    },
    {
      "midi": 65,
      "hit": false,
      "t": 59294.08800000036,
      "d": 134.55875625000044,
      "v": 75
    },
    {
      "midi": 56,
      "hit": false,
      "t": 59641.14665000036,
      "d": 133.08816875000048,
      "v": 77
    },
    {
      "midi": 65,
      "hit": false,
      "t": 59643.35253125036,
      "d": 130.8822874999969,
      "v": 86
    },
    {
      "midi": 60,
      "hit": false,
      "t": 59643.35253125036,
      "d": 140.4411062500003,
      "v": 90
    },
    {
      "midi": 72,
      "hit": false,
      "t": 81882.31200000035,
      "d": 114.70582499999728,
      "v": 60
    },
    {
      "midi": 56,
      "hit": false,
      "t": 81882.31200000035,
      "d": 130.88228750000417,
      "v": 83
    },
    {
      "midi": 60,
      "hit": false,
      "t": 81882.31200000035,
      "d": 133.08816875000775,
      "v": 88
    },
    {
      "midi": 65,
      "hit": false,
      "t": 81882.31200000035,
      "d": 134.558756250015,
      "v": 75
    },
    {
      "midi": 56,
      "hit": false,
      "t": 82229.37065000038,
      "d": 133.08816875000775,
      "v": 77
    },
    {
      "midi": 65,
      "hit": false,
      "t": 82231.57653125038,
      "d": 130.88228750000417,
      "v": 86
    },
    {
      "midi": 60,
      "hit": false,
      "t": 82231.57653125038,
      "d": 140.4411062500003,
      "v": 90
    },
    {
      "midi": 72,
      "hit": false,
      "t": 82236.72358750038,
      "d": 140.4411062500003,
      "v": 59
    },
    {
      "midi": 72,
      "hit": false,
      "t": 82762.45861875039,
      "d": 99.99995000001218,
      "v": 61
    },
    {
      "midi": 60,
      "hit": false,
      "t": 82766.13508750038,
      "d": 122.05876250001893,
      "v": 89
    },
    {
      "midi": 65,
      "hit": false,
      "t": 82768.34096875039,
      "d": 136.76463750001858,
      "v": 80
    },
    {
      "midi": 56,
      "hit": false,
      "t": 82769.8115562504,
      "d": 108.82347500001197,
      "v": 75
    },
    {
      "midi": 70,
      "hit": false,
      "t": 83291.8701187504,
      "d": 138.23522500001127,
      "v": 62
    },
    {
      "midi": 62,
      "hit": false,
      "t": 83294.07600000041,
      "d": 127.2058187500079,
      "v": 94
    },
    {
      "midi": 65,
      "hit": false,
      "t": 83295.54658750042,
      "d": 123.52934999999707,
      "v": 81
    },
    {
      "midi": 58,
      "hit": false,
      "t": 83295.54658750042,
      "d": 130.88228750000417,
      "v": 78
    },
    {
      "midi": 70,
      "hit": false,
      "t": 83824.95808750042,
      "d": 138.23522500002582,
      "v": 62
    },
    {
      "midi": 58,
      "hit": false,
      "t": 83830.84043750042,
      "d": 112.49994375000824,
      "v": 76
    },
    {
      "midi": 62,
      "hit": false,
      "t": 83830.84043750042,
      "d": 119.85288125001534,
      "v": 91
    },
    {
      "midi": 65,
      "hit": false,
      "t": 83832.31102500042,
      "d": 119.85288125001534,
      "v": 77
    },
    {
      "midi": 58,
      "hit": false,
      "t": 84352.89900000044,
      "d": 138.23522500001127,
      "v": 70
    },
    {
      "midi": 70,
      "hit": false,
      "t": 84354.36958750045,
      "d": 90.44113125000149,
      "v": 62
    },
    {
      "midi": 62,
      "hit": false,
      "t": 84356.57546875045,
      "d": 111.029356250001,
      "v": 91
    },
    {
      "midi": 65,
      "hit": false,
      "t": 84356.57546875045,
      "d": 123.52934999999707,
      "v": 81
    },
    {
      "midi": 72,
      "hit": false,
      "t": 84705.84000000045,
      "d": 114.70582500001183,
      "v": 65
    },
    {
      "midi": 65,
      "hit": false,
      "t": 84707.31058750045,
      "d": 133.08816875000775,
      "v": 88
    },
    {
      "midi": 56,
      "hit": false,
      "t": 84709.51646875046,
      "d": 118.3822937500081,
      "v": 70
    },
    {
      "midi": 60,
      "hit": false,
      "t": 84710.98705625047,
      "d": 123.52934999999707,
      "v": 76
    },
    {
      "midi": 60,
      "hit": false,
      "t": 85055.10453125046,
      "d": 145.58816250000382,
      "v": 88
    },
    {
      "midi": 56,
      "hit": false,
      "t": 85055.10453125046,
      "d": 151.47051250000368,
      "v": 75
    },
    {
      "midi": 65,
      "hit": false,
      "t": 85056.57511875046,
      "d": 144.11757499999658,
      "v": 79
    },
    {
      "midi": 72,
      "hit": false,
      "t": 85060.25158750046,
      "d": 140.4411062500003,
      "v": 64
    },
    {
      "midi": 72,
      "hit": false,
      "t": 85585.98661875047,
      "d": 99.99995000001218,
      "v": 66
    },
    {
      "midi": 60,
      "hit": false,
      "t": 85591.86896875047,
      "d": 97.79406875000859,
      "v": 86
    },
    {
      "midi": 56,
      "hit": false,
      "t": 85591.86896875047,
      "d": 107.35288750000473,
      "v": 72
    },
    {
      "midi": 65,
      "hit": false,
      "t": 85593.33955625047,
      "d": 116.17641250000452,
      "v": 86
    },
    {
      "midi": 70,
      "hit": false,
      "t": 86115.39811875048,
      "d": 138.23522500001127,
      "v": 64
    },
    {
      "midi": 62,
      "hit": false,
      "t": 86115.39811875048,
      "d": 140.44110625001485,
      "v": 91
    },
    {
      "midi": 58,
      "hit": false,
      "t": 86117.60400000049,
      "d": 144.11757500002568,
      "v": 71
    },
    {
      "midi": 67,
      "hit": false,
      "t": 86119.0745875005,
      "d": 138.23522500001127,
      "v": 87
    },
    {
      "midi": 70,
      "hit": false,
      "t": 86648.48608750051,
      "d": 138.23522500001127,
      "v": 63
    },
    {
      "midi": 58,
      "hit": false,
      "t": 86650.69196875051,
      "d": 140.4411062500003,
      "v": 68
    },
    {
      "midi": 62,
      "hit": false,
      "t": 86652.16255625052,
      "d": 138.23522499999672,
      "v": 85
    },
    {
      "midi": 67,
      "hit": false,
      "t": 86652.16255625052,
      "d": 140.4411062500003,
      "v": 77
    },
    {
      "midi": 58,
      "hit": false,
      "t": 87174.22111875052,
      "d": 134.55875625000044,
      "v": 73
    },
    {
      "midi": 62,
      "hit": false,
      "t": 87174.22111875052,
      "d": 138.23522499999672,
      "v": 88
    },
    {
      "midi": 70,
      "hit": false,
      "t": 87177.89758750051,
      "d": 90.44113125000149,
      "v": 70
    },
    {
      "midi": 67,
      "hit": false,
      "t": 87177.89758750051,
      "d": 125.73523125000065,
      "v": 77
    },
    {
      "midi": 72,
      "hit": false,
      "t": 87529.36800000051,
      "d": 114.70582499999728,
      "v": 60
    },
    {
      "midi": 56,
      "hit": false,
      "t": 87529.36800000051,
      "d": 130.88228750000417,
      "v": 83
    },
    {
      "midi": 60,
      "hit": false,
      "t": 87529.36800000051,
      "d": 133.08816875000775,
      "v": 88
    },
    {
      "midi": 65,
      "hit": false,
      "t": 87529.36800000051,
      "d": 134.558756250015,
      "v": 75
    },
    {
      "midi": 56,
      "hit": false,
      "t": 87876.42665000053,
      "d": 133.08816875000775,
      "v": 77
    },
    {
      "midi": 65,
      "hit": false,
      "t": 87878.63253125054,
      "d": 130.88228750000417,
      "v": 86
    },
    {
      "midi": 60,
      "hit": false,
      "t": 87878.63253125054,
      "d": 140.4411062500003,
      "v": 90
    },
    {
      "midi": 72,
      "hit": false,
      "t": 87883.77958750054,
      "d": 140.4411062500003,
      "v": 59
    },
    {
      "midi": 72,
      "hit": false,
      "t": 88409.51461875055,
      "d": 99.99995000001218,
      "v": 61
    },
    {
      "midi": 60,
      "hit": false,
      "t": 88413.19108750054,
      "d": 122.05876250001893,
      "v": 89
    },
    {
      "midi": 65,
      "hit": false,
      "t": 88415.39696875055,
      "d": 136.76463750001858,
      "v": 80
    },
    {
      "midi": 56,
      "hit": false,
      "t": 88416.86755625055,
      "d": 108.82347500001197,
      "v": 75
    },
    {
      "midi": 70,
      "hit": false,
      "t": 88938.92611875056,
      "d": 138.23522500001127,
      "v": 62
    },
    {
      "midi": 62,
      "hit": false,
      "t": 88941.13200000057,
      "d": 127.2058187500079,
      "v": 94
    },
    {
      "midi": 65,
      "hit": false,
      "t": 88942.60258750057,
      "d": 123.52934999999707,
      "v": 81
    },
    {
      "midi": 58,
      "hit": false,
      "t": 88942.60258750057,
      "d": 130.88228750000417,
      "v": 78
    },
    {
      "midi": 70,
      "hit": false,
      "t": 89472.01408750057,
      "d": 138.23522500002582,
      "v": 62
    },
    {
      "midi": 58,
      "hit": false,
      "t": 89477.89643750057,
      "d": 112.49994375000824,
      "v": 76
    },
    {
      "midi": 62,
      "hit": false,
      "t": 89477.89643750057,
      "d": 119.85288125001534,
      "v": 91
    },
    {
      "midi": 65,
      "hit": false,
      "t": 89479.36702500058,
      "d": 119.85288125001534,
      "v": 77
    },
    {
      "midi": 58,
      "hit": false,
      "t": 89999.9550000006,
      "d": 138.23522500001127,
      "v": 70
    },
    {
      "midi": 70,
      "hit": false,
      "t": 90001.4255875006,
      "d": 90.44113125000149,
      "v": 62
    },
    {
      "midi": 62,
      "hit": false,
      "t": 90003.63146875061,
      "d": 111.029356250001,
      "v": 91
    },
    {
      "midi": 65,
      "hit": false,
      "t": 90003.63146875061,
      "d": 123.52934999999707,
      "v": 81
    },
    {
      "midi": 72,
      "hit": false,
      "t": 90352.8960000006,
      "d": 114.70582500001183,
      "v": 65
    },
    {
      "midi": 65,
      "hit": false,
      "t": 90354.36658750061,
      "d": 133.08816875000775,
      "v": 88
    },
    {
      "midi": 56,
      "hit": false,
      "t": 90356.57246875062,
      "d": 118.3822937500081,
      "v": 70
    },
    {
      "midi": 60,
      "hit": false,
      "t": 90358.04305625062,
      "d": 123.52934999999707,
      "v": 76
    },
    {
      "midi": 60,
      "hit": false,
      "t": 90702.16053125061,
      "d": 145.58816250000382,
      "v": 88
    },
    {
      "midi": 56,
      "hit": false,
      "t": 90702.16053125061,
      "d": 151.47051250000368,
      "v": 75
    },
    {
      "midi": 65,
      "hit": false,
      "t": 90703.63111875062,
      "d": 144.11757499999658,
      "v": 79
    },
    {
      "midi": 72,
      "hit": false,
      "t": 90707.30758750062,
      "d": 140.4411062500003,
      "v": 64
    },
    {
      "midi": 72,
      "hit": false,
      "t": 91233.04261875062,
      "d": 99.99995000001218,
      "v": 66
    },
    {
      "midi": 60,
      "hit": false,
      "t": 91238.92496875062,
      "d": 97.79406875000859,
      "v": 86
    },
    {
      "midi": 56,
      "hit": false,
      "t": 91238.92496875062,
      "d": 107.35288750000473,
      "v": 72
    },
    {
      "midi": 65,
      "hit": false,
      "t": 91240.39555625063,
      "d": 116.17641250000452,
      "v": 86
    },
    {
      "midi": 70,
      "hit": false,
      "t": 91762.45411875064,
      "d": 138.23522500001127,
      "v": 64
    },
    {
      "midi": 62,
      "hit": false,
      "t": 91762.45411875064,
      "d": 140.44110625001485,
      "v": 91
    },
    {
      "midi": 58,
      "hit": false,
      "t": 91764.66000000064,
      "d": 144.11757500002568,
      "v": 71
    },
    {
      "midi": 67,
      "hit": false,
      "t": 91766.13058750065,
      "d": 138.23522500001127,
      "v": 87
    },
    {
      "midi": 70,
      "hit": false,
      "t": 92295.54208750067,
      "d": 138.23522500001127,
      "v": 63
    },
    {
      "midi": 58,
      "hit": false,
      "t": 92297.74796875067,
      "d": 140.4411062500003,
      "v": 68
    },
    {
      "midi": 62,
      "hit": false,
      "t": 92299.21855625068,
      "d": 138.23522499999672,
      "v": 85
    },
    {
      "midi": 67,
      "hit": false,
      "t": 92299.21855625068,
      "d": 140.4411062500003,
      "v": 77
    },
    {
      "midi": 58,
      "hit": false,
      "t": 92821.27711875067,
      "d": 134.55875625000044,
      "v": 73
    },
    {
      "midi": 62,
      "hit": false,
      "t": 92821.27711875067,
      "d": 138.23522499999672,
      "v": 88
    },
    {
      "midi": 70,
      "hit": false,
      "t": 92824.95358750067,
      "d": 90.44113125000149,
      "v": 70
    },
    {
      "midi": 67,
      "hit": false,
      "t": 92824.95358750067,
      "d": 125.73523125000065,
      "v": 77
    },
    {
      "midi": 53,
      "hit": false,
      "t": 127063.90705625067,
      "d": 134.55875625000044,
      "v": 100
    },
    {
      "midi": 41,
      "hit": false,
      "t": 127063.90705625067,
      "d": 199.2646062499989,
      "v": 92
    },
    {
      "midi": 53,
      "hit": false,
      "t": 127415.37746875067,
      "d": 174.99991250000312,
      "v": 99
    },
    {
      "midi": 41,
      "hit": false,
      "t": 127415.37746875067,
      "d": 221.32341875000566,
      "v": 86
    },
    {
      "midi": 48,
      "hit": false,
      "t": 127760.96553125067,
      "d": 122.05876250000438,
      "v": 83
    },
    {
      "midi": 36,
      "hit": false,
      "t": 127766.11258750067,
      "d": 123.52934999999707,
      "v": 81
    },
    {
      "midi": 41,
      "hit": false,
      "t": 127942.58308750066,
      "d": 247.05869999999413,
      "v": 96
    },
    {
      "midi": 53,
      "hit": false,
      "t": 127944.78896875067,
      "d": 211.76459999999497,
      "v": 105
    },
    {
      "midi": 36,
      "hit": false,
      "t": 128288.17115000066,
      "d": 118.38229374999355,
      "v": 85
    },
    {
      "midi": 48,
      "hit": false,
      "t": 128291.84761875066,
      "d": 94.11759999999776,
      "v": 89
    },
    {
      "midi": 39,
      "hit": false,
      "t": 128470.52400000066,
      "d": 281.6175062500115,
      "v": 92
    },
    {
      "midi": 51,
      "hit": false,
      "t": 128471.99458750067,
      "d": 265.4410437500046,
      "v": 99
    },
    {
      "midi": 34,
      "hit": false,
      "t": 128821.25911875068,
      "d": 79.41172499999811,
      "v": 79
    },
    {
      "midi": 46,
      "hit": false,
      "t": 128827.14146875068,
      "d": 77.94113750000542,
      "v": 87
    },
    {
      "midi": 39,
      "hit": false,
      "t": 129001.40608750068,
      "d": 265.4410437500046,
      "v": 82
    },
    {
      "midi": 51,
      "hit": false,
      "t": 129005.08255625068,
      "d": 250.73516875000496,
      "v": 99
    },
    {
      "midi": 46,
      "hit": false,
      "t": 129346.99415000068,
      "d": 94.11759999999776,
      "v": 82
    },
    {
      "midi": 34,
      "hit": false,
      "t": 129349.20003125069,
      "d": 108.82347499999742,
      "v": 72
    },
    {
      "midi": 52,
      "hit": false,
      "t": 129530.81758750069,
      "d": 255.88222500000848,
      "v": 101
    },
    {
      "midi": 40,
      "hit": false,
      "t": 129533.02346875069,
      "d": 255.88222500000848,
      "v": 86
    },
    {
      "midi": 41,
      "hit": false,
      "t": 129880.0821187507,
      "d": 195.58813750000263,
      "v": 99
    },
    {
      "midi": 53,
      "hit": false,
      "t": 129885.9644687507,
      "d": 193.38225624999905,
      "v": 89
    },
    {
      "midi": 41,
      "hit": false,
      "t": 130233.02311875069,
      "d": 199.2646062499989,
      "v": 96
    },
    {
      "midi": 53,
      "hit": false,
      "t": 130233.02311875069,
      "d": 239.70576250000158,
      "v": 96
    },
    {
      "midi": 36,
      "hit": false,
      "t": 130582.28765000068,
      "d": 99.99994999999763,
      "v": 92
    },
    {
      "midi": 48,
      "hit": false,
      "t": 130584.49353125069,
      "d": 88.97054374999425,
      "v": 93
    },
    {
      "midi": 41,
      "hit": false,
      "t": 130758.75815000068,
      "d": 186.02931874999194,
      "v": 89
    },
    {
      "midi": 53,
      "hit": false,
      "t": 130768.31696875067,
      "d": 180.88226250000298,
      "v": 92
    },
    {
      "midi": 48,
      "hit": false,
      "t": 131110.22856250068,
      "d": 79.41172499998356,
      "v": 84
    },
    {
      "midi": 36,
      "hit": false,
      "t": 131117.58150000067,
      "d": 77.94113749999087,
      "v": 81
    },
    {
      "midi": 48,
      "hit": false,
      "t": 131290.37553125067,
      "d": 266.9116312499973,
      "v": 88
    },
    {
      "midi": 36,
      "hit": false,
      "t": 131297.72846875066,
      "d": 272.79398124999716,
      "v": 92
    },
    {
      "midi": 43,
      "hit": false,
      "t": 131643.31653125066,
      "d": 94.11759999999776,
      "v": 83
    },
    {
      "midi": 31,
      "hit": false,
      "t": 131643.31653125066,
      "d": 103.6764187499939,
      "v": 70
    },
    {
      "midi": 36,
      "hit": false,
      "t": 131819.78703125066,
      "d": 266.9116312499973,
      "v": 81
    },
    {
      "midi": 48,
      "hit": false,
      "t": 131819.78703125066,
      "d": 269.1175125000009,
      "v": 93
    },
    {
      "midi": 31,
      "hit": false,
      "t": 132166.84568125065,
      "d": 108.82347500001197,
      "v": 84
    },
    {
      "midi": 43,
      "hit": false,
      "t": 132172.72803125065,
      "d": 85.29407500001253,
      "v": 91
    },
    {
      "midi": 39,
      "hit": false,
      "t": 132349.19853125067,
      "d": 151.47051250000368,
      "v": 87
    },
    {
      "midi": 51,
      "hit": false,
      "t": 132350.66911875067,
      "d": 166.17638750001788,
      "v": 92
    },
    {
      "midi": 36,
      "hit": false,
      "t": 132525.6690312507,
      "d": 118.382293749979,
      "v": 97
    },
    {
      "midi": 48,
      "hit": false,
      "t": 132527.1396187507,
      "d": 134.5587562499859,
      "v": 95
    },
    {
      "midi": 53,
      "hit": false,
      "t": 132710.96305625068,
      "d": 134.5587562499859,
      "v": 100
    },
    {
      "midi": 41,
      "hit": false,
      "t": 132710.96305625068,
      "d": 199.26460624998435,
      "v": 92
    },
    {
      "midi": 53,
      "hit": false,
      "t": 133062.43346875065,
      "d": 174.99991250000312,
      "v": 99
    },
    {
      "midi": 41,
      "hit": false,
      "t": 133062.43346875065,
      "d": 221.3234187499911,
      "v": 86
    },
    {
      "midi": 48,
      "hit": false,
      "t": 133408.02153125065,
      "d": 122.05876249997527,
      "v": 83
    },
    {
      "midi": 36,
      "hit": false,
      "t": 133413.16858750064,
      "d": 123.52934999999707,
      "v": 81
    },
    {
      "midi": 41,
      "hit": false,
      "t": 133589.63908750063,
      "d": 247.05869999999413,
      "v": 96
    },
    {
      "midi": 53,
      "hit": false,
      "t": 133591.84496875064,
      "d": 211.76459999999497,
      "v": 105
    },
    {
      "midi": 36,
      "hit": false,
      "t": 133935.22715000063,
      "d": 118.3822937500081,
      "v": 85
    },
    {
      "midi": 48,
      "hit": false,
      "t": 133938.90361875063,
      "d": 94.11759999999776,
      "v": 89
    },
    {
      "midi": 39,
      "hit": false,
      "t": 134117.58000000063,
      "d": 281.6175062500115,
      "v": 92
    },
    {
      "midi": 51,
      "hit": false,
      "t": 134119.05058750062,
      "d": 265.4410437500046,
      "v": 99
    },
    {
      "midi": 34,
      "hit": false,
      "t": 134468.31511875064,
      "d": 79.41172500001267,
      "v": 79
    },
    {
      "midi": 46,
      "hit": false,
      "t": 134474.19746875064,
      "d": 77.94113750001998,
      "v": 87
    },
    {
      "midi": 39,
      "hit": false,
      "t": 134648.46208750067,
      "d": 265.4410437499755,
      "v": 82
    },
    {
      "midi": 51,
      "hit": false,
      "t": 134652.13855625066,
      "d": 250.7351687499904,
      "v": 99
    },
    {
      "midi": 46,
      "hit": false,
      "t": 134994.05015000064,
      "d": 94.11759999999776,
      "v": 82
    },
    {
      "midi": 34,
      "hit": false,
      "t": 134996.25603125064,
      "d": 108.82347499998286,
      "v": 72
    },
    {
      "midi": 52,
      "hit": false,
      "t": 135177.87358750062,
      "d": 255.88222500000848,
      "v": 101
    },
    {
      "midi": 40,
      "hit": false,
      "t": 135180.07946875063,
      "d": 255.88222500000848,
      "v": 86
    },
    {
      "midi": 41,
      "hit": false,
      "t": 135527.13811875065,
      "d": 195.58813749998808,
      "v": 99
    },
    {
      "midi": 53,
      "hit": false,
      "t": 135533.02046875065,
      "d": 193.3822562499845,
      "v": 89
    },
    {
      "midi": 41,
      "hit": false,
      "t": 135880.07911875064,
      "d": 199.26460625001346,
      "v": 96
    },
    {
      "midi": 53,
      "hit": false,
      "t": 135880.07911875064,
      "d": 239.70576250000158,
      "v": 96
    },
    {
      "midi": 36,
      "hit": false,
      "t": 136229.34365000064,
      "d": 99.99995000002673,
      "v": 92
    },
    {
      "midi": 48,
      "hit": false,
      "t": 136231.54953125064,
      "d": 88.9705437500088,
      "v": 93
    },
    {
      "midi": 41,
      "hit": false,
      "t": 136405.81415000066,
      "d": 186.02931874999194,
      "v": 89
    },
    {
      "midi": 53,
      "hit": false,
      "t": 136415.37296875066,
      "d": 180.88226250000298,
      "v": 92
    },
    {
      "midi": 48,
      "hit": false,
      "t": 136757.28456250066,
      "d": 79.41172499998356,
      "v": 84
    },
    {
      "midi": 36,
      "hit": false,
      "t": 136764.63750000065,
      "d": 77.94113749999087,
      "v": 81
    },
    {
      "midi": 48,
      "hit": false,
      "t": 136937.43153125065,
      "d": 266.9116312499973,
      "v": 88
    },
    {
      "midi": 36,
      "hit": false,
      "t": 136944.78446875064,
      "d": 272.79398124999716,
      "v": 92
    },
    {
      "midi": 43,
      "hit": false,
      "t": 137290.37253125064,
      "d": 94.11759999999776,
      "v": 83
    },
    {
      "midi": 31,
      "hit": false,
      "t": 137290.37253125064,
      "d": 103.6764187499939,
      "v": 70
    },
    {
      "midi": 36,
      "hit": false,
      "t": 137466.84303125064,
      "d": 266.9116312499973,
      "v": 81
    },
    {
      "midi": 48,
      "hit": false,
      "t": 137466.84303125064,
      "d": 269.1175125000009,
      "v": 93
    },
    {
      "midi": 31,
      "hit": false,
      "t": 137813.90168125063,
      "d": 108.82347500001197,
      "v": 84
    },
    {
      "midi": 43,
      "hit": false,
      "t": 137819.78403125063,
      "d": 85.29407500001253,
      "v": 91
    },
    {
      "midi": 39,
      "hit": false,
      "t": 137996.25453125066,
      "d": 151.47051250000368,
      "v": 87
    },
    {
      "midi": 51,
      "hit": false,
      "t": 137997.72511875065,
      "d": 166.17638750001788,
      "v": 92
    },
    {
      "midi": 36,
      "hit": false,
      "t": 138172.72503125068,
      "d": 118.382293749979,
      "v": 97
    },
    {
      "midi": 48,
      "hit": false,
      "t": 138174.19561875067,
      "d": 134.5587562499859,
      "v": 95
    },
    {
      "midi": 53,
      "hit": false,
      "t": 138358.01905625066,
      "d": 134.5587562499859,
      "v": 100
    },
    {
      "midi": 41,
      "hit": false,
      "t": 138358.01905625066,
      "d": 199.26460624998435,
      "v": 92
    },
    {
      "midi": 53,
      "hit": false,
      "t": 138709.48946875063,
      "d": 174.99991250000312,
      "v": 99
    },
    {
      "midi": 41,
      "hit": false,
      "t": 138709.48946875063,
      "d": 221.3234187499911,
      "v": 86
    },
    {
      "midi": 48,
      "hit": false,
      "t": 139055.07753125063,
      "d": 122.05876249997527,
      "v": 83
    },
    {
      "midi": 36,
      "hit": false,
      "t": 139060.22458750062,
      "d": 123.52934999999707,
      "v": 81
    },
    {
      "midi": 41,
      "hit": false,
      "t": 139236.69508750062,
      "d": 247.05869999999413,
      "v": 96
    },
    {
      "midi": 53,
      "hit": false,
      "t": 139238.90096875062,
      "d": 211.76459999999497,
      "v": 105
    },
    {
      "midi": 36,
      "hit": false,
      "t": 139582.2831500006,
      "d": 118.3822937500081,
      "v": 85
    },
    {
      "midi": 48,
      "hit": false,
      "t": 139585.9596187506,
      "d": 94.11759999999776,
      "v": 89
    },
    {
      "midi": 39,
      "hit": false,
      "t": 139764.6360000006,
      "d": 281.6175062500115,
      "v": 92
    },
    {
      "midi": 51,
      "hit": false,
      "t": 139766.1065875006,
      "d": 265.4410437500046,
      "v": 99
    },
    {
      "midi": 34,
      "hit": false,
      "t": 140115.37111875063,
      "d": 79.41172500001267,
      "v": 79
    },
    {
      "midi": 46,
      "hit": false,
      "t": 140121.25346875063,
      "d": 77.94113750001998,
      "v": 87
    },
    {
      "midi": 39,
      "hit": false,
      "t": 140295.51808750065,
      "d": 265.4410437499755,
      "v": 82
    },
    {
      "midi": 51,
      "hit": false,
      "t": 140299.19455625064,
      "d": 250.7351687499904,
      "v": 99
    },
    {
      "midi": 46,
      "hit": false,
      "t": 140641.10615000062,
      "d": 94.11759999999776,
      "v": 82
    },
    {
      "midi": 34,
      "hit": false,
      "t": 140643.31203125062,
      "d": 108.82347499998286,
      "v": 72
    },
    {
      "midi": 52,
      "hit": false,
      "t": 140824.9295875006,
      "d": 255.88222500000848,
      "v": 101
    },
    {
      "midi": 40,
      "hit": false,
      "t": 140827.1354687506,
      "d": 255.88222500000848,
      "v": 86
    },
    {
      "midi": 41,
      "hit": false,
      "t": 141174.19411875063,
      "d": 195.58813749998808,
      "v": 99
    },
    {
      "midi": 53,
      "hit": false,
      "t": 141180.07646875063,
      "d": 193.3822562499845,
      "v": 89
    },
    {
      "midi": 41,
      "hit": false,
      "t": 141527.13511875062,
      "d": 199.26460625001346,
      "v": 96
    },
    {
      "midi": 53,
      "hit": false,
      "t": 141527.13511875062,
      "d": 239.70576250000158,
      "v": 96
    },
    {
      "midi": 72,
      "hit": false,
      "t": 143999.92800000063,
      "d": 114.70582499998272,
      "v": 58
    },
    {
      "midi": 56,
      "hit": false,
      "t": 143999.92800000063,
      "d": 130.88228749998962,
      "v": 83
    },
    {
      "midi": 60,
      "hit": false,
      "t": 143999.92800000063,
      "d": 133.0881687499932,
      "v": 88
    },
    {
      "midi": 65,
      "hit": false,
      "t": 143999.92800000063,
      "d": 134.5587562499859,
      "v": 75
    },
    {
      "midi": 68,
      "hit": false,
      "t": 144001.39858750062,
      "d": 140.44110624998575,
      "v": 71
    },
    {
      "midi": 65,
      "hit": false,
      "t": 144350.6631187506,
      "d": 130.88228749998962,
      "v": 86
    },
    {
      "midi": 56,
      "hit": false,
      "t": 144350.6631187506,
      "d": 133.0881687499932,
      "v": 77
    },
    {
      "midi": 60,
      "hit": false,
      "t": 144350.6631187506,
      "d": 140.44110624998575,
      "v": 90
    },
    {
      "midi": 68,
      "hit": false,
      "t": 144350.6631187506,
      "d": 140.44110624998575,
      "v": 73
    },
    {
      "midi": 72,
      "hit": false,
      "t": 144352.86900000062,
      "d": 140.44110624998575,
      "v": 58
    },
    {
      "midi": 72,
      "hit": false,
      "t": 144880.0746187506,
      "d": 99.99994999999763,
      "v": 61
    },
    {
      "midi": 68,
      "hit": false,
      "t": 144880.0746187506,
      "d": 140.44110624998575,
      "v": 76
    },
    {
      "midi": 56,
      "hit": false,
      "t": 144882.2805000006,
      "d": 108.82347499998286,
      "v": 75
    },
    {
      "midi": 60,
      "hit": false,
      "t": 144882.2805000006,
      "d": 122.05876249997527,
      "v": 89
    },
    {
      "midi": 65,
      "hit": false,
      "t": 144882.2805000006,
      "d": 136.76463749998948,
      "v": 80
    },
    {
      "midi": 67,
      "hit": false,
      "t": 145409.4861187506,
      "d": 140.44110624998575,
      "v": 77
    },
    {
      "midi": 70,
      "hit": false,
      "t": 145409.4861187506,
      "d": 140.44110624998575,
      "v": 57
    },
    {
      "midi": 65,
      "hit": false,
      "t": 145411.6920000006,
      "d": 123.52934999999707,
      "v": 81
    },
    {
      "midi": 62,
      "hit": false,
      "t": 145411.6920000006,
      "d": 127.20581874999334,
      "v": 94
    },
    {
      "midi": 58,
      "hit": false,
      "t": 145411.6920000006,
      "d": 130.88228749998962,
      "v": 78
    },
    {
      "midi": 58,
      "hit": false,
      "t": 145941.10350000058,
      "d": 114.70582499998272,
      "v": 76
    },
    {
      "midi": 70,
      "hit": false,
      "t": 145941.10350000058,
      "d": 140.44110624995665,
      "v": 70
    },
    {
      "midi": 62,
      "hit": false,
      "t": 145942.57408750057,
      "d": 118.382293749979,
      "v": 91
    },
    {
      "midi": 65,
      "hit": false,
      "t": 145942.57408750057,
      "d": 119.85288124997169,
      "v": 77
    },
    {
      "midi": 67,
      "hit": false,
      "t": 145944.77996875058,
      "d": 138.23522499995306,
      "v": 75
    },
    {
      "midi": 70,
      "hit": false,
      "t": 146470.51500000054,
      "d": 90.44113125000149,
      "v": 83
    },
    {
      "midi": 62,
      "hit": false,
      "t": 146470.51500000054,
      "d": 111.02935625001555,
      "v": 91
    },
    {
      "midi": 65,
      "hit": false,
      "t": 146470.51500000054,
      "d": 123.52935000002617,
      "v": 81
    },
    {
      "midi": 58,
      "hit": false,
      "t": 146470.51500000054,
      "d": 138.23522500004037,
      "v": 70
    },
    {
      "midi": 67,
      "hit": false,
      "t": 146470.51500000054,
      "d": 140.44110625004396,
      "v": 83
    },
    {
      "midi": 72,
      "hit": false,
      "t": 146823.4560000006,
      "d": 114.70582499998272,
      "v": 58
    },
    {
      "midi": 56,
      "hit": false,
      "t": 146823.4560000006,
      "d": 119.85288124997169,
      "v": 70
    },
    {
      "midi": 60,
      "hit": false,
      "t": 146823.4560000006,
      "d": 123.52934999996796,
      "v": 76
    },
    {
      "midi": 65,
      "hit": false,
      "t": 146823.4560000006,
      "d": 133.0881687499641,
      "v": 88
    },
    {
      "midi": 68,
      "hit": false,
      "t": 146824.92658750058,
      "d": 140.44110624998575,
      "v": 76
    },
    {
      "midi": 65,
      "hit": false,
      "t": 147174.19111875058,
      "d": 145.58816250003292,
      "v": 79
    },
    {
      "midi": 60,
      "hit": false,
      "t": 147174.19111875058,
      "d": 147.7940437500365,
      "v": 88
    },
    {
      "midi": 56,
      "hit": false,
      "t": 147174.19111875058,
      "d": 151.47051250003278,
      "v": 75
    },
    {
      "midi": 68,
      "hit": false,
      "t": 147176.39700000058,
      "d": 138.23522500001127,
      "v": 71
    },
    {
      "midi": 72,
      "hit": false,
      "t": 147176.39700000058,
      "d": 140.44110625001485,
      "v": 58
    },
    {
      "midi": 68,
      "hit": false,
      "t": 147702.1320312506,
      "d": 138.23522499998217,
      "v": 73
    },
    {
      "midi": 72,
      "hit": false,
      "t": 147703.6026187506,
      "d": 99.99994999999763,
      "v": 61
    },
    {
      "midi": 60,
      "hit": false,
      "t": 147705.8085000006,
      "d": 97.79406874999404,
      "v": 86
    },
    {
      "midi": 56,
      "hit": false,
      "t": 147705.8085000006,
      "d": 107.35288749999017,
      "v": 72
    },
    {
      "midi": 65,
      "hit": false,
      "t": 147705.8085000006,
      "d": 118.382293749979,
      "v": 86
    },
    {
      "midi": 62,
      "hit": false,
      "t": 148233.01411875058,
      "d": 140.44110625001485,
      "v": 91
    },
    {
      "midi": 70,
      "hit": false,
      "t": 148233.01411875058,
      "d": 140.44110625001485,
      "v": 57
    },
    {
      "midi": 67,
      "hit": false,
      "t": 148233.01411875058,
      "d": 151.47051250000368,
      "v": 79
    },
    {
      "midi": 58,
      "hit": false,
      "t": 148235.22000000058,
      "d": 144.11757500001113,
      "v": 71
    },
    {
      "midi": 58,
      "hit": false,
      "t": 148764.63150000057,
      "d": 140.44110624998575,
      "v": 68
    },
    {
      "midi": 62,
      "hit": false,
      "t": 148764.63150000057,
      "d": 140.44110624998575,
      "v": 85
    },
    {
      "midi": 67,
      "hit": false,
      "t": 148764.63150000057,
      "d": 140.44110624998575,
      "v": 77
    },
    {
      "midi": 70,
      "hit": false,
      "t": 148764.63150000057,
      "d": 140.44110624998575,
      "v": 72
    },
    {
      "midi": 67,
      "hit": false,
      "t": 149290.36653125056,
      "d": 147.7940437500074,
      "v": 77
    },
    {
      "midi": 58,
      "hit": false,
      "t": 149291.83711875055,
      "d": 136.76463750001858,
      "v": 73
    },
    {
      "midi": 62,
      "hit": false,
      "t": 149291.83711875055,
      "d": 138.23522500001127,
      "v": 88
    },
    {
      "midi": 70,
      "hit": false,
      "t": 149294.04300000056,
      "d": 90.44113125000149,
      "v": 79
    },
    {
      "midi": 72,
      "hit": false,
      "t": 149646.98400000058,
      "d": 114.70582499998272,
      "v": 58
    },
    {
      "midi": 56,
      "hit": false,
      "t": 149646.98400000058,
      "d": 130.88228749998962,
      "v": 83
    },
    {
      "midi": 60,
      "hit": false,
      "t": 149646.98400000058,
      "d": 133.0881687499932,
      "v": 88
    },
    {
      "midi": 65,
      "hit": false,
      "t": 149646.98400000058,
      "d": 134.5587562499859,
      "v": 75
    },
    {
      "midi": 68,
      "hit": false,
      "t": 149648.45458750057,
      "d": 140.44110624998575,
      "v": 71
    },
    {
      "midi": 65,
      "hit": false,
      "t": 149997.71911875057,
      "d": 130.88228749998962,
      "v": 86
    },
    {
      "midi": 56,
      "hit": false,
      "t": 149997.71911875057,
      "d": 133.0881687499932,
      "v": 77
    },
    {
      "midi": 60,
      "hit": false,
      "t": 149997.71911875057,
      "d": 140.44110624998575,
      "v": 90
    },
    {
      "midi": 68,
      "hit": false,
      "t": 149997.71911875057,
      "d": 140.44110624998575,
      "v": 73
    },
    {
      "midi": 72,
      "hit": false,
      "t": 149999.92500000057,
      "d": 140.44110624998575,
      "v": 58
    },
    {
      "midi": 72,
      "hit": false,
      "t": 150527.13061875055,
      "d": 99.99994999999763,
      "v": 61
    },
    {
      "midi": 68,
      "hit": false,
      "t": 150527.13061875055,
      "d": 140.44110624998575,
      "v": 76
    },
    {
      "midi": 56,
      "hit": false,
      "t": 150529.33650000056,
      "d": 108.82347499998286,
      "v": 75
    },
    {
      "midi": 60,
      "hit": false,
      "t": 150529.33650000056,
      "d": 122.05876249997527,
      "v": 89
    },
    {
      "midi": 65,
      "hit": false,
      "t": 150529.33650000056,
      "d": 136.76463749998948,
      "v": 80
    },
    {
      "midi": 67,
      "hit": false,
      "t": 151056.54211875054,
      "d": 140.44110624998575,
      "v": 77
    },
    {
      "midi": 70,
      "hit": false,
      "t": 151056.54211875054,
      "d": 140.44110624998575,
      "v": 57
    },
    {
      "midi": 65,
      "hit": false,
      "t": 151058.74800000055,
      "d": 123.52934999999707,
      "v": 81
    },
    {
      "midi": 62,
      "hit": false,
      "t": 151058.74800000055,
      "d": 127.20581874999334,
      "v": 94
    },
    {
      "midi": 58,
      "hit": false,
      "t": 151058.74800000055,
      "d": 130.88228749998962,
      "v": 78
    },
    {
      "midi": 58,
      "hit": false,
      "t": 151588.15950000053,
      "d": 114.70582499998272,
      "v": 76
    },
    {
      "midi": 70,
      "hit": false,
      "t": 151588.15950000053,
      "d": 140.44110624995665,
      "v": 70
    },
    {
      "midi": 62,
      "hit": false,
      "t": 151589.63008750053,
      "d": 118.382293749979,
      "v": 91
    },
    {
      "midi": 65,
      "hit": false,
      "t": 151589.63008750053,
      "d": 119.85288124997169,
      "v": 77
    },
    {
      "midi": 67,
      "hit": false,
      "t": 151591.83596875053,
      "d": 138.23522499995306,
      "v": 75
    },
    {
      "midi": 70,
      "hit": false,
      "t": 152117.5710000005,
      "d": 90.44113125000149,
      "v": 83
    },
    {
      "midi": 62,
      "hit": false,
      "t": 152117.5710000005,
      "d": 111.02935625001555,
      "v": 91
    },
    {
      "midi": 65,
      "hit": false,
      "t": 152117.5710000005,
      "d": 123.52935000002617,
      "v": 81
    },
    {
      "midi": 58,
      "hit": false,
      "t": 152117.5710000005,
      "d": 138.23522500004037,
      "v": 70
    },
    {
      "midi": 67,
      "hit": false,
      "t": 152117.5710000005,
      "d": 140.44110625004396,
      "v": 83
    },
    {
      "midi": 72,
      "hit": false,
      "t": 152470.51200000054,
      "d": 114.70582499998272,
      "v": 58
    },
    {
      "midi": 56,
      "hit": false,
      "t": 152470.51200000054,
      "d": 119.85288124997169,
      "v": 70
    },
    {
      "midi": 60,
      "hit": false,
      "t": 152470.51200000054,
      "d": 123.52934999996796,
      "v": 76
    },
    {
      "midi": 65,
      "hit": false,
      "t": 152470.51200000054,
      "d": 133.0881687499641,
      "v": 88
    },
    {
      "midi": 68,
      "hit": false,
      "t": 152471.98258750053,
      "d": 140.44110624998575,
      "v": 76
    },
    {
      "midi": 65,
      "hit": false,
      "t": 152821.24711875053,
      "d": 145.58816250003292,
      "v": 79
    },
    {
      "midi": 60,
      "hit": false,
      "t": 152821.24711875053,
      "d": 147.7940437500365,
      "v": 88
    },
    {
      "midi": 56,
      "hit": false,
      "t": 152821.24711875053,
      "d": 151.47051250003278,
      "v": 75
    },
    {
      "midi": 68,
      "hit": false,
      "t": 152823.45300000053,
      "d": 138.23522500001127,
      "v": 71
    },
    {
      "midi": 72,
      "hit": false,
      "t": 152823.45300000053,
      "d": 140.44110625001485,
      "v": 58
    },
    {
      "midi": 68,
      "hit": false,
      "t": 153349.18803125055,
      "d": 138.23522499998217,
      "v": 73
    },
    {
      "midi": 72,
      "hit": false,
      "t": 153350.65861875055,
      "d": 99.99994999999763,
      "v": 61
    },
    {
      "midi": 60,
      "hit": false,
      "t": 153352.86450000055,
      "d": 97.79406874999404,
      "v": 86
    },
    {
      "midi": 56,
      "hit": false,
      "t": 153352.86450000055,
      "d": 107.35288749999017,
      "v": 72
    },
    {
      "midi": 65,
      "hit": false,
      "t": 153352.86450000055,
      "d": 118.382293749979,
      "v": 86
    },
    {
      "midi": 62,
      "hit": false,
      "t": 153880.07011875053,
      "d": 140.44110625001485,
      "v": 91
    },
    {
      "midi": 70,
      "hit": false,
      "t": 153880.07011875053,
      "d": 140.44110625001485,
      "v": 57
    },
    {
      "midi": 67,
      "hit": false,
      "t": 153880.07011875053,
      "d": 151.47051250000368,
      "v": 79
    },
    {
      "midi": 58,
      "hit": false,
      "t": 153882.27600000054,
      "d": 144.11757500001113,
      "v": 71
    },
    {
      "midi": 58,
      "hit": false,
      "t": 154411.68750000052,
      "d": 140.44110624998575,
      "v": 68
    },
    {
      "midi": 62,
      "hit": false,
      "t": 154411.68750000052,
      "d": 140.44110624998575,
      "v": 85
    },
    {
      "midi": 67,
      "hit": false,
      "t": 154411.68750000052,
      "d": 140.44110624998575,
      "v": 77
    },
    {
      "midi": 70,
      "hit": false,
      "t": 154411.68750000052,
      "d": 140.44110624998575,
      "v": 72
    },
    {
      "midi": 67,
      "hit": false,
      "t": 154937.42253125052,
      "d": 147.7940437500074,
      "v": 77
    },
    {
      "midi": 58,
      "hit": false,
      "t": 154938.8931187505,
      "d": 136.76463750001858,
      "v": 73
    },
    {
      "midi": 62,
      "hit": false,
      "t": 154938.8931187505,
      "d": 138.23522500001127,
      "v": 88
    },
    {
      "midi": 70,
      "hit": false,
      "t": 154941.0990000005,
      "d": 90.44113125000149,
      "v": 79
    },
    {
      "midi": 74,
      "hit": false,
      "t": 154957.2754625,
      "d": 33.82351250000647,
      "v": 34
    },
    {
      "midi": 76,
      "hit": false,
      "t": 154986.6872125,
      "d": 52.20585625001695,
      "v": 60
    },
    {
      "midi": 77,
      "hit": false,
      "t": 155036.6871875,
      "d": 44.8529187499953,
      "v": 70
    },
    {
      "midi": 79,
      "hit": false,
      "t": 155082.2754,
      "d": 42.64703749999171,
      "v": 79
    },
    {
      "midi": 81,
      "hit": false,
      "t": 155117.5695,
      "d": 44.8529187499953,
      "v": 94
    },
    {
      "midi": 83,
      "hit": false,
      "t": 155155.804775,
      "d": 38.97056875002454,
      "v": 97
    },
    {
      "midi": 84,
      "hit": false,
      "t": 155192.56946250002,
      "d": 37.49998125000275,
      "v": 104
    },
    {
      "midi": 86,
      "hit": false,
      "t": 155225.65768125,
      "d": 41.176450000028126,
      "v": 108
    },
    {
      "midi": 88,
      "hit": false,
      "t": 155262.42236875003,
      "d": 55.882325000013225,
      "v": 113
    },
    {
      "midi": 72,
      "hit": false,
      "t": 155294.04000000053,
      "d": 114.70582499998272,
      "v": 58
    },
    {
      "midi": 56,
      "hit": false,
      "t": 155294.04000000053,
      "d": 130.88228749998962,
      "v": 83
    },
    {
      "midi": 60,
      "hit": false,
      "t": 155294.04000000053,
      "d": 133.0881687499932,
      "v": 88
    },
    {
      "midi": 65,
      "hit": false,
      "t": 155294.04000000053,
      "d": 134.5587562499859,
      "v": 75
    },
    {
      "midi": 68,
      "hit": false,
      "t": 155295.51058750052,
      "d": 140.44110624998575,
      "v": 71
    },
    {
      "midi": 89,
      "hit": false,
      "t": 155312.42234375005,
      "d": 83.08819375000894,
      "v": 101
    },
    {
      "midi": 96,
      "hit": false,
      "t": 155316.09881250004,
      "d": 83.08819375000894,
      "v": 101
    },
    {
      "midi": 89,
      "hit": false,
      "t": 155488.89284375004,
      "d": 70.58819999999832,
      "v": 91
    },
    {
      "midi": 96,
      "hit": false,
      "t": 155496.24578125004,
      "d": 72.05878750002012,
      "v": 81
    },
    {
      "midi": 65,
      "hit": false,
      "t": 155644.77511875052,
      "d": 130.88228749998962,
      "v": 86
    },
    {
      "midi": 56,
      "hit": false,
      "t": 155644.77511875052,
      "d": 133.0881687499932,
      "v": 77
    },
    {
      "midi": 60,
      "hit": false,
      "t": 155644.77511875052,
      "d": 140.44110624998575,
      "v": 90
    },
    {
      "midi": 68,
      "hit": false,
      "t": 155644.77511875052,
      "d": 140.44110624998575,
      "v": 73
    },
    {
      "midi": 72,
      "hit": false,
      "t": 155646.98100000052,
      "d": 140.44110624998575,
      "v": 58
    },
    {
      "midi": 89,
      "hit": false,
      "t": 155654.33393750005,
      "d": 74.2646687499946,
      "v": 86
    },
    {
      "midi": 96,
      "hit": false,
      "t": 155655.80452500004,
      "d": 77.94113749999087,
      "v": 77
    },
    {
      "midi": 89,
      "hit": false,
      "t": 155830.80443750005,
      "d": 77.94113749999087,
      "v": 97
    },
    {
      "midi": 96,
      "hit": false,
      "t": 155834.48090625004,
      "d": 79.41172499998356,
      "v": 88
    },
    {
      "midi": 89,
      "hit": false,
      "t": 156010.95140625004,
      "d": 81.61760624998715,
      "v": 94
    },
    {
      "midi": 96,
      "hit": false,
      "t": 156016.09846250003,
      "d": 68.38231874999474,
      "v": 86
    },
    {
      "midi": 72,
      "hit": false,
      "t": 156174.1866187505,
      "d": 99.99994999999763,
      "v": 61
    },
    {
      "midi": 68,
      "hit": false,
      "t": 156174.1866187505,
      "d": 140.44110624998575,
      "v": 76
    },
    {
      "midi": 56,
      "hit": false,
      "t": 156176.3925000005,
      "d": 108.82347499998286,
      "v": 75
    },
    {
      "midi": 60,
      "hit": false,
      "t": 156176.3925000005,
      "d": 122.05876249997527,
      "v": 89
    },
    {
      "midi": 65,
      "hit": false,
      "t": 156176.3925000005,
      "d": 136.76463749998948,
      "v": 80
    },
    {
      "midi": 89,
      "hit": false,
      "t": 156191.09837500003,
      "d": 70.58819999999832,
      "v": 94
    },
    {
      "midi": 96,
      "hit": false,
      "t": 156194.77484375003,
      "d": 64.70584999999846,
      "v": 88
    },
    {
      "midi": 89,
      "hit": false,
      "t": 156367.56887500003,
      "d": 68.38231874999474,
      "v": 101
    },
    {
      "midi": 96,
      "hit": false,
      "t": 156371.24534375002,
      "d": 64.70584999999846,
      "v": 94
    },
    {
      "midi": 89,
      "hit": false,
      "t": 156545.50996250001,
      "d": 61.02938125000219,
      "v": 97
    },
    {
      "midi": 96,
      "hit": false,
      "t": 156549.18643125,
      "d": 55.882325000013225,
      "v": 86
    },
    {
      "midi": 67,
      "hit": false,
      "t": 156703.5981187505,
      "d": 140.44110624998575,
      "v": 77
    },
    {
      "midi": 70,
      "hit": false,
      "t": 156703.5981187505,
      "d": 140.44110624998575,
      "v": 57
    },
    {
      "midi": 65,
      "hit": false,
      "t": 156705.8040000005,
      "d": 123.52934999999707,
      "v": 81
    },
    {
      "midi": 62,
      "hit": false,
      "t": 156705.8040000005,
      "d": 127.20581874999334,
      "v": 94
    },
    {
      "midi": 58,
      "hit": false,
      "t": 156705.8040000005,
      "d": 130.88228749998962,
      "v": 78
    },
    {
      "midi": 89,
      "hit": false,
      "t": 156718.30399375,
      "d": 63.235262500005774,
      "v": 101
    },
    {
      "midi": 96,
      "hit": false,
      "t": 156720.50987500002,
      "d": 64.70584999999846,
      "v": 88
    },
    {
      "midi": 89,
      "hit": false,
      "t": 156893.30390625002,
      "d": 68.38231874999474,
      "v": 97
    },
    {
      "midi": 96,
      "hit": false,
      "t": 156894.77449375,
      "d": 66.91173125000205,
      "v": 88
    },
    {
      "midi": 89,
      "hit": false,
      "t": 157069.77440625,
      "d": 64.70584999999846,
      "v": 91
    },
    {
      "midi": 96,
      "hit": false,
      "t": 157077.12734375,
      "d": 53.67644375000964,
      "v": 75
    },
    {
      "midi": 58,
      "hit": false,
      "t": 157235.2155000005,
      "d": 114.70582499998272,
      "v": 76
    },
    {
      "midi": 70,
      "hit": false,
      "t": 157235.2155000005,
      "d": 140.44110624995665,
      "v": 70
    },
    {
      "midi": 62,
      "hit": false,
      "t": 157236.68608750048,
      "d": 118.382293749979,
      "v": 91
    },
    {
      "midi": 65,
      "hit": false,
      "t": 157236.68608750048,
      "d": 119.85288124997169,
      "v": 77
    },
    {
      "midi": 67,
      "hit": false,
      "t": 157238.89196875048,
      "d": 138.23522499995306,
      "v": 75
    },
    {
      "midi": 89,
      "hit": false,
      "t": 157244.039025,
      "d": 64.70584999999846,
      "v": 101
    },
    {
      "midi": 96,
      "hit": false,
      "t": 157247.71549375,
      "d": 49.999975000013364,
      "v": 91
    },
    {
      "midi": 89,
      "hit": false,
      "t": 157420.509525,
      "d": 68.38231874999474,
      "v": 104
    },
    {
      "midi": 96,
      "hit": false,
      "t": 157424.18599375,
      "d": 63.235262500005774,
      "v": 94
    },
    {
      "midi": 89,
      "hit": false,
      "t": 157595.5094375,
      "d": 68.38231874999474,
      "v": 101
    },
    {
      "midi": 96,
      "hit": false,
      "t": 157599.18590625,
      "d": 64.70584999999846,
      "v": 88
    },
    {
      "midi": 70,
      "hit": false,
      "t": 157764.62700000044,
      "d": 90.44113125000149,
      "v": 83
    },
    {
      "midi": 62,
      "hit": false,
      "t": 157764.62700000044,
      "d": 111.02935625001555,
      "v": 91
    },
    {
      "midi": 65,
      "hit": false,
      "t": 157764.62700000044,
      "d": 123.52935000002617,
      "v": 81
    },
    {
      "midi": 58,
      "hit": false,
      "t": 157764.62700000044,
      "d": 138.23522500004037,
      "v": 70
    },
    {
      "midi": 67,
      "hit": false,
      "t": 157764.62700000044,
      "d": 140.44110625004396,
      "v": 83
    },
    {
      "midi": 89,
      "hit": false,
      "t": 157766.0975875,
      "d": 81.61760624998715,
      "v": 97
    },
    {
      "midi": 96,
      "hit": false,
      "t": 157775.65640625,
      "d": 61.02938125000219,
      "v": 86
    },
    {
      "midi": 89,
      "hit": false,
      "t": 157948.4504375,
      "d": 59.558793749980396,
      "v": 101
    },
    {
      "midi": 96,
      "hit": false,
      "t": 157949.921025,
      "d": 52.205856249987846,
      "v": 101
    },
    {
      "midi": 72,
      "hit": false,
      "t": 158117.5680000005,
      "d": 114.70582499998272,
      "v": 58
    },
    {
      "midi": 56,
      "hit": false,
      "t": 158117.5680000005,
      "d": 119.85288124997169,
      "v": 70
    },
    {
      "midi": 60,
      "hit": false,
      "t": 158117.5680000005,
      "d": 123.52934999996796,
      "v": 76
    },
    {
      "midi": 65,
      "hit": false,
      "t": 158117.5680000005,
      "d": 133.0881687499641,
      "v": 88
    },
    {
      "midi": 68,
      "hit": false,
      "t": 158119.0385875005,
      "d": 140.44110624998575,
      "v": 76
    },
    {
      "midi": 89,
      "hit": false,
      "t": 158286.68556249997,
      "d": 81.61760624998715,
      "v": 97
    },
    {
      "midi": 96,
      "hit": false,
      "t": 158290.36203124997,
      "d": 77.94113749999087,
      "v": 97
    },
    {
      "midi": 65,
      "hit": false,
      "t": 158468.30311875048,
      "d": 145.58816250003292,
      "v": 79
    },
    {
      "midi": 60,
      "hit": false,
      "t": 158468.30311875048,
      "d": 147.7940437500365,
      "v": 88
    },
    {
      "midi": 56,
      "hit": false,
      "t": 158468.30311875048,
      "d": 151.47051250003278,
      "v": 75
    },
    {
      "midi": 68,
      "hit": false,
      "t": 158470.5090000005,
      "d": 138.23522500001127,
      "v": 71
    },
    {
      "midi": 72,
      "hit": false,
      "t": 158470.5090000005,
      "d": 140.44110625001485,
      "v": 58
    },
    {
      "midi": 89,
      "hit": false,
      "t": 158479.33252499995,
      "d": 57.352912500005914,
      "v": 94
    },
    {
      "midi": 96,
      "hit": false,
      "t": 158479.33252499995,
      "d": 61.02938125000219,
      "v": 79
    },
    {
      "midi": 89,
      "hit": false,
      "t": 158646.97949999996,
      "d": 72.05878749999101,
      "v": 94
    },
    {
      "midi": 96,
      "hit": false,
      "t": 158648.45008749995,
      "d": 77.94113749999087,
      "v": 86
    },
    {
      "midi": 89,
      "hit": false,
      "t": 158828.59705624994,
      "d": 68.38231875002384,
      "v": 88
    },
    {
      "midi": 96,
      "hit": false,
      "t": 158834.47940624994,
      "d": 59.5587937500095,
      "v": 73
    },
    {
      "midi": 68,
      "hit": false,
      "t": 158996.2440312505,
      "d": 138.23522499998217,
      "v": 73
    },
    {
      "midi": 72,
      "hit": false,
      "t": 158997.7146187505,
      "d": 99.99994999999763,
      "v": 61
    },
    {
      "midi": 60,
      "hit": false,
      "t": 158999.9205000005,
      "d": 97.79406874999404,
      "v": 86
    },
    {
      "midi": 56,
      "hit": false,
      "t": 158999.9205000005,
      "d": 107.35288749999017,
      "v": 72
    },
    {
      "midi": 65,
      "hit": false,
      "t": 158999.9205000005,
      "d": 118.382293749979,
      "v": 86
    },
    {
      "midi": 89,
      "hit": false,
      "t": 159001.39108749997,
      "d": 68.38231874999474,
      "v": 88
    },
    {
      "midi": 96,
      "hit": false,
      "t": 159007.27343749997,
      "d": 63.235262500005774,
      "v": 81
    },
    {
      "midi": 89,
      "hit": false,
      "t": 159176.39099999997,
      "d": 72.05878749999101,
      "v": 97
    },
    {
      "midi": 96,
      "hit": false,
      "t": 159180.06746874997,
      "d": 68.38231874999474,
      "v": 86
    },
    {
      "midi": 96,
      "hit": false,
      "t": 159360.21443749996,
      "d": 59.5587937500095,
      "v": 79
    },
    {
      "midi": 89,
      "hit": false,
      "t": 159360.21443749996,
      "d": 63.235262500005774,
      "v": 97
    },
    {
      "midi": 62,
      "hit": false,
      "t": 159527.1261187505,
      "d": 140.44110625001485,
      "v": 91
    },
    {
      "midi": 70,
      "hit": false,
      "t": 159527.1261187505,
      "d": 140.44110625001485,
      "v": 57
    },
    {
      "midi": 67,
      "hit": false,
      "t": 159527.1261187505,
      "d": 151.47051250000368,
      "v": 79
    },
    {
      "midi": 58,
      "hit": false,
      "t": 159529.3320000005,
      "d": 144.11757500001113,
      "v": 71
    },
    {
      "midi": 89,
      "hit": false,
      "t": 159536.68493749996,
      "d": 66.91173125000205,
      "v": 97
    },
    {
      "midi": 96,
      "hit": false,
      "t": 159536.68493749996,
      "d": 68.38231874999474,
      "v": 86
    },
    {
      "midi": 89,
      "hit": false,
      "t": 159707.27308749995,
      "d": 66.91173125000205,
      "v": 88
    },
    {
      "midi": 96,
      "hit": false,
      "t": 159709.47896874996,
      "d": 66.91173125000205,
      "v": 79
    },
    {
      "midi": 89,
      "hit": false,
      "t": 159880.06711874995,
      "d": 75.73525625001639,
      "v": 94
    },
    {
      "midi": 96,
      "hit": false,
      "t": 159882.27299999996,
      "d": 77.94113750001998,
      "v": 86
    },
    {
      "midi": 58,
      "hit": false,
      "t": 160058.74350000048,
      "d": 140.44110624998575,
      "v": 68
    },
    {
      "midi": 62,
      "hit": false,
      "t": 160058.74350000048,
      "d": 140.44110624998575,
      "v": 85
    },
    {
      "midi": 67,
      "hit": false,
      "t": 160058.74350000048,
      "d": 140.44110624998575,
      "v": 77
    },
    {
      "midi": 70,
      "hit": false,
      "t": 160058.74350000048,
      "d": 140.44110624998575,
      "v": 72
    },
    {
      "midi": 89,
      "hit": false,
      "t": 160062.41996874998,
      "d": 72.05878749999101,
      "v": 97
    },
    {
      "midi": 96,
      "hit": false,
      "t": 160063.89055624997,
      "d": 70.58819999999832,
      "v": 86
    },
    {
      "midi": 89,
      "hit": false,
      "t": 160238.89046874997,
      "d": 72.05878749999101,
      "v": 91
    },
    {
      "midi": 96,
      "hit": false,
      "t": 160238.89046874997,
      "d": 77.94113749999087,
      "v": 81
    },
    {
      "midi": 80,
      "hit": false,
      "t": 160402.12568124998,
      "d": 70.58819999999832,
      "v": 100
    },
    {
      "midi": 84,
      "hit": false,
      "t": 160405.80214999997,
      "d": 66.91173125000205,
      "v": 97
    },
    {
      "midi": 80,
      "hit": false,
      "t": 160584.47853124997,
      "d": 55.88232499998412,
      "v": 91
    },
    {
      "midi": 67,
      "hit": false,
      "t": 160584.47853125047,
      "d": 147.7940437500074,
      "v": 77
    },
    {
      "midi": 58,
      "hit": false,
      "t": 160585.94911875046,
      "d": 136.76463750001858,
      "v": 73
    },
    {
      "midi": 62,
      "hit": false,
      "t": 160585.94911875046,
      "d": 138.23522500001127,
      "v": 88
    },
    {
      "midi": 84,
      "hit": false,
      "t": 160588.15499999997,
      "d": 68.38231874999474,
      "v": 97
    },
    {
      "midi": 70,
      "hit": false,
      "t": 160588.15500000046,
      "d": 90.44113125000149,
      "v": 79
    },
    {
      "midi": 80,
      "hit": false,
      "t": 160760.94903124997,
      "d": 63.23526249997667,
      "v": 87
    },
    {
      "midi": 84,
      "hit": false,
      "t": 160766.09608749996,
      "d": 61.02938125000219,
      "v": 83
    },
    {
      "midi": 72,
      "hit": false,
      "t": 160941.09600000049,
      "d": 114.70582499998272,
      "v": 58
    },
    {
      "midi": 56,
      "hit": false,
      "t": 160941.09600000049,
      "d": 130.88228749998962,
      "v": 83
    },
    {
      "midi": 60,
      "hit": false,
      "t": 160941.09600000049,
      "d": 133.0881687499932,
      "v": 88
    },
    {
      "midi": 65,
      "hit": false,
      "t": 160941.09600000049,
      "d": 134.5587562499859,
      "v": 75
    },
    {
      "midi": 68,
      "hit": false,
      "t": 160942.56658750048,
      "d": 140.44110624998575,
      "v": 71
    },
    {
      "midi": 80,
      "hit": false,
      "t": 160949.91952499995,
      "d": 53.67644375000964,
      "v": 95
    },
    {
      "midi": 84,
      "hit": false,
      "t": 160949.91952499995,
      "d": 74.2646687500237,
      "v": 101
    },
    {
      "midi": 80,
      "hit": false,
      "t": 161122.71355624998,
      "d": 68.38231874999474,
      "v": 87
    },
    {
      "midi": 84,
      "hit": false,
      "t": 161124.91943749998,
      "d": 81.61760624998715,
      "v": 86
    },
    {
      "midi": 65,
      "hit": false,
      "t": 161291.83111875047,
      "d": 130.88228749998962,
      "v": 86
    },
    {
      "midi": 56,
      "hit": false,
      "t": 161291.83111875047,
      "d": 133.0881687499932,
      "v": 77
    },
    {
      "midi": 60,
      "hit": false,
      "t": 161291.83111875047,
      "d": 140.44110624998575,
      "v": 90
    },
    {
      "midi": 68,
      "hit": false,
      "t": 161291.83111875047,
      "d": 140.44110624998575,
      "v": 73
    },
    {
      "midi": 72,
      "hit": false,
      "t": 161294.03700000048,
      "d": 140.44110624998575,
      "v": 58
    },
    {
      "midi": 80,
      "hit": false,
      "t": 161301.38993749997,
      "d": 74.2646687499946,
      "v": 91
    },
    {
      "midi": 84,
      "hit": false,
      "t": 161302.86052499997,
      "d": 85.29407500001253,
      "v": 94
    },
    {
      "midi": 80,
      "hit": false,
      "t": 161659.47799374998,
      "d": 77.94113749999087,
      "v": 100
    },
    {
      "midi": 84,
      "hit": false,
      "t": 161659.47799374998,
      "d": 85.29407499998342,
      "v": 101
    },
    {
      "midi": 72,
      "hit": false,
      "t": 161821.24261875046,
      "d": 99.99994999999763,
      "v": 61
    },
    {
      "midi": 68,
      "hit": false,
      "t": 161821.24261875046,
      "d": 140.44110624998575,
      "v": 76
    },
    {
      "midi": 56,
      "hit": false,
      "t": 161823.44850000046,
      "d": 108.82347499998286,
      "v": 75
    },
    {
      "midi": 60,
      "hit": false,
      "t": 161823.44850000046,
      "d": 122.05876249997527,
      "v": 89
    },
    {
      "midi": 65,
      "hit": false,
      "t": 161823.44850000046,
      "d": 136.76463749998948,
      "v": 80
    },
    {
      "midi": 82,
      "hit": false,
      "t": 161841.83084374998,
      "d": 81.61760624998715,
      "v": 100
    },
    {
      "midi": 86,
      "hit": false,
      "t": 161845.50731249998,
      "d": 70.58819999999832,
      "v": 101
    },
    {
      "midi": 80,
      "hit": false,
      "t": 162188.88949374997,
      "d": 72.05878749999101,
      "v": 100
    },
    {
      "midi": 84,
      "hit": false,
      "t": 162191.09537499998,
      "d": 74.2646687499946,
      "v": 108
    },
    {
      "midi": 67,
      "hit": false,
      "t": 162350.65411875045,
      "d": 140.44110624998575,
      "v": 77
    },
    {
      "midi": 70,
      "hit": false,
      "t": 162350.65411875045,
      "d": 140.44110624998575,
      "v": 57
    },
    {
      "midi": 65,
      "hit": false,
      "t": 162352.86000000045,
      "d": 123.52934999999707,
      "v": 81
    },
    {
      "midi": 62,
      "hit": false,
      "t": 162352.86000000045,
      "d": 127.20581874999334,
      "v": 94
    },
    {
      "midi": 58,
      "hit": false,
      "t": 162352.86000000045,
      "d": 130.88228749998962,
      "v": 78
    },
    {
      "midi": 80,
      "hit": false,
      "t": 162545.50696249996,
      "d": 63.235262500005774,
      "v": 100
    },
    {
      "midi": 84,
      "hit": false,
      "t": 162549.18343124996,
      "d": 72.05878750002012,
      "v": 94
    },
    {
      "midi": 80,
      "hit": false,
      "t": 162720.50687499996,
      "d": 63.235262500005774,
      "v": 91
    },
    {
      "midi": 84,
      "hit": false,
      "t": 162721.97746249996,
      "d": 68.38231875002384,
      "v": 94
    },
    {
      "midi": 58,
      "hit": false,
      "t": 162882.27150000044,
      "d": 114.70582499998272,
      "v": 76
    },
    {
      "midi": 70,
      "hit": false,
      "t": 162882.27150000044,
      "d": 140.44110624995665,
      "v": 70
    },
    {
      "midi": 62,
      "hit": false,
      "t": 162883.74208750043,
      "d": 118.382293749979,
      "v": 91
    },
    {
      "midi": 65,
      "hit": false,
      "t": 162883.74208750043,
      "d": 119.85288124997169,
      "v": 77
    },
    {
      "midi": 67,
      "hit": false,
      "t": 162885.94796875044,
      "d": 138.23522499995306,
      "v": 75
    },
    {
      "midi": 84,
      "hit": false,
      "t": 162894.77149374998,
      "d": 88.9705437500088,
      "v": 91
    },
    {
      "midi": 80,
      "hit": false,
      "t": 162896.977375,
      "d": 61.02938125000219,
      "v": 87
    },
    {
      "midi": 80,
      "hit": false,
      "t": 163067.56552499998,
      "d": 72.05878749999101,
      "v": 83
    },
    {
      "midi": 84,
      "hit": false,
      "t": 163067.56552499998,
      "d": 92.64701250000508,
      "v": 88
    },
    {
      "midi": 80,
      "hit": false,
      "t": 163246.24190624998,
      "d": 70.58819999999832,
      "v": 87
    },
    {
      "midi": 84,
      "hit": false,
      "t": 163247.71249374998,
      "d": 75.73525625001639,
      "v": 91
    },
    {
      "midi": 70,
      "hit": false,
      "t": 163411.6830000004,
      "d": 90.44113125000149,
      "v": 83
    },
    {
      "midi": 62,
      "hit": false,
      "t": 163411.6830000004,
      "d": 111.02935625001555,
      "v": 91
    },
    {
      "midi": 65,
      "hit": false,
      "t": 163411.6830000004,
      "d": 123.52935000002617,
      "v": 81
    },
    {
      "midi": 58,
      "hit": false,
      "t": 163411.6830000004,
      "d": 138.23522500004037,
      "v": 70
    },
    {
      "midi": 67,
      "hit": false,
      "t": 163411.6830000004,
      "d": 140.44110625004396,
      "v": 83
    },
    {
      "midi": 86,
      "hit": false,
      "t": 163422.71240624998,
      "d": 77.94113749999087,
      "v": 97
    },
    {
      "midi": 82,
      "hit": false,
      "t": 163422.71240624998,
      "d": 85.29407499998342,
      "v": 87
    },
    {
      "midi": 80,
      "hit": false,
      "t": 163762.41811874995,
      "d": 119.85288125000079,
      "v": 95
    },
    {
      "midi": 72,
      "hit": false,
      "t": 163764.62400000045,
      "d": 114.70582499998272,
      "v": 58
    },
    {
      "midi": 56,
      "hit": false,
      "t": 163764.62400000045,
      "d": 119.85288124997169,
      "v": 70
    },
    {
      "midi": 60,
      "hit": false,
      "t": 163764.62400000045,
      "d": 123.52934999996796,
      "v": 76
    },
    {
      "midi": 65,
      "hit": false,
      "t": 163764.62400000045,
      "d": 133.0881687499641,
      "v": 88
    },
    {
      "midi": 68,
      "hit": false,
      "t": 163766.09458750044,
      "d": 140.44110624998575,
      "v": 76
    },
    {
      "midi": 84,
      "hit": false,
      "t": 163771.97693749995,
      "d": 92.64701250000508,
      "v": 94
    },
    {
      "midi": 65,
      "hit": false,
      "t": 164115.35911875044,
      "d": 145.58816250003292,
      "v": 79
    },
    {
      "midi": 60,
      "hit": false,
      "t": 164115.35911875044,
      "d": 147.7940437500365,
      "v": 88
    },
    {
      "midi": 56,
      "hit": false,
      "t": 164115.35911875044,
      "d": 151.47051250003278,
      "v": 75
    },
    {
      "midi": 68,
      "hit": false,
      "t": 164117.56500000044,
      "d": 138.23522500001127,
      "v": 71
    },
    {
      "midi": 72,
      "hit": false,
      "t": 164117.56500000044,
      "d": 140.44110625001485,
      "v": 58
    },
    {
      "midi": 80,
      "hit": false,
      "t": 164475.65305624995,
      "d": 112.49994375000824,
      "v": 100
    },
    {
      "midi": 84,
      "hit": false,
      "t": 164475.65305624995,
      "d": 114.70582500001183,
      "v": 104
    },
    {
      "midi": 68,
      "hit": false,
      "t": 164643.30003125046,
      "d": 138.23522499998217,
      "v": 73
    },
    {
      "midi": 72,
      "hit": false,
      "t": 164644.77061875045,
      "d": 99.99994999999763,
      "v": 61
    },
    {
      "midi": 60,
      "hit": false,
      "t": 164646.97650000046,
      "d": 97.79406874999404,
      "v": 86
    },
    {
      "midi": 56,
      "hit": false,
      "t": 164646.97650000046,
      "d": 107.35288749999017,
      "v": 72
    },
    {
      "midi": 65,
      "hit": false,
      "t": 164646.97650000046,
      "d": 118.382293749979,
      "v": 86
    },
    {
      "midi": 62,
      "hit": false,
      "t": 165174.18211875044,
      "d": 140.44110625001485,
      "v": 91
    },
    {
      "midi": 70,
      "hit": false,
      "t": 165174.18211875044,
      "d": 140.44110625001485,
      "v": 57
    },
    {
      "midi": 67,
      "hit": false,
      "t": 165174.18211875044,
      "d": 151.47051250000368,
      "v": 79
    },
    {
      "midi": 58,
      "hit": false,
      "t": 165176.38800000044,
      "d": 144.11757500001113,
      "v": 71
    },
    {
      "midi": 80,
      "hit": false,
      "t": 165180.06446874997,
      "d": 97.79406874999404,
      "v": 100
    },
    {
      "midi": 84,
      "hit": false,
      "t": 165180.06446874997,
      "d": 99.99994999999763,
      "v": 97
    },
    {
      "midi": 80,
      "hit": false,
      "t": 165541.82899374998,
      "d": 101.47053749999031,
      "v": 104
    },
    {
      "midi": 84,
      "hit": false,
      "t": 165544.03487499998,
      "d": 99.99994999999763,
      "v": 104
    },
    {
      "midi": 58,
      "hit": false,
      "t": 165705.79950000043,
      "d": 140.44110624998575,
      "v": 68
    },
    {
      "midi": 62,
      "hit": false,
      "t": 165705.79950000043,
      "d": 140.44110624998575,
      "v": 85
    },
    {
      "midi": 67,
      "hit": false,
      "t": 165705.79950000043,
      "d": 140.44110624998575,
      "v": 77
    },
    {
      "midi": 70,
      "hit": false,
      "t": 165705.79950000043,
      "d": 140.44110624998575,
      "v": 72
    },
    {
      "midi": 80,
      "hit": false,
      "t": 165893.29940624998,
      "d": 96.32348125000135,
      "v": 100
    },
    {
      "midi": 84,
      "hit": false,
      "t": 165896.97587499997,
      "d": 96.32348125000135,
      "v": 101
    },
    {
      "midi": 67,
      "hit": false,
      "t": 166231.53453125042,
      "d": 147.7940437500074,
      "v": 77
    },
    {
      "midi": 58,
      "hit": false,
      "t": 166233.0051187504,
      "d": 136.76463750001858,
      "v": 73
    },
    {
      "midi": 62,
      "hit": false,
      "t": 166233.0051187504,
      "d": 138.23522500001127,
      "v": 88
    },
    {
      "midi": 70,
      "hit": false,
      "t": 166235.21100000042,
      "d": 90.44113125000149,
      "v": 79
    },
    {
      "midi": 80,
      "hit": false,
      "t": 166244.03452499997,
      "d": 88.9705437500088,
      "v": 100
    },
    {
      "midi": 84,
      "hit": false,
      "t": 166244.03452499997,
      "d": 92.64701250000508,
      "v": 74
    },
    {
      "midi": 72,
      "hit": false,
      "t": 166588.15200000044,
      "d": 114.70582499998272,
      "v": 58
    },
    {
      "midi": 56,
      "hit": false,
      "t": 166588.15200000044,
      "d": 130.88228749998962,
      "v": 83
    },
    {
      "midi": 60,
      "hit": false,
      "t": 166588.15200000044,
      "d": 133.0881687499932,
      "v": 88
    },
    {
      "midi": 65,
      "hit": false,
      "t": 166588.15200000044,
      "d": 134.5587562499859,
      "v": 75
    },
    {
      "midi": 68,
      "hit": false,
      "t": 166589.62258750043,
      "d": 140.44110624998575,
      "v": 71
    },
    {
      "midi": 72,
      "hit": false,
      "t": 166808.74012499998,
      "d": 44.8529187499953,
      "v": 68
    },
    {
      "midi": 74,
      "hit": false,
      "t": 166841.82834374998,
      "d": 49.999975000013364,
      "v": 79
    },
    {
      "midi": 76,
      "hit": false,
      "t": 166885.94596875,
      "d": 33.82351250000647,
      "v": 88
    },
    {
      "midi": 77,
      "hit": false,
      "t": 166915.35771875,
      "d": 33.82351250000647,
      "v": 88
    },
    {
      "midi": 65,
      "hit": false,
      "t": 166938.88711875043,
      "d": 130.88228749998962,
      "v": 86
    },
    {
      "midi": 56,
      "hit": false,
      "t": 166938.88711875043,
      "d": 133.0881687499932,
      "v": 77
    },
    {
      "midi": 60,
      "hit": false,
      "t": 166938.88711875043,
      "d": 140.44110624998575,
      "v": 90
    },
    {
      "midi": 68,
      "hit": false,
      "t": 166938.88711875043,
      "d": 140.44110624998575,
      "v": 73
    },
    {
      "midi": 79,
      "hit": false,
      "t": 166941.093,
      "d": 33.82351250000647,
      "v": 88
    },
    {
      "midi": 72,
      "hit": false,
      "t": 166941.09300000043,
      "d": 140.44110624998575,
      "v": 58
    },
    {
      "midi": 81,
      "hit": false,
      "t": 166970.50475,
      "d": 26.470575000013923,
      "v": 91
    },
    {
      "midi": 83,
      "hit": false,
      "t": 166992.5635625,
      "d": 27.941162500006612,
      "v": 88
    },
    {
      "midi": 84,
      "hit": false,
      "t": 167014.622375,
      "d": 37.49998125000275,
      "v": 73
    },
    {
      "midi": 86,
      "hit": false,
      "t": 167040.35765625,
      "d": 101.47053749999031,
      "v": 67
    },
    {
      "midi": 84,
      "hit": false,
      "t": 167128.59290625,
      "d": 42.64703749999171,
      "v": 79
    },
    {
      "midi": 83,
      "hit": false,
      "t": 167158.00465625,
      "d": 38.97056874999544,
      "v": 88
    },
    {
      "midi": 81,
      "hit": false,
      "t": 167185.210525,
      "d": 37.49998125000275,
      "v": 94
    },
    {
      "midi": 79,
      "hit": false,
      "t": 167210.94580625,
      "d": 38.97056874999544,
      "v": 98
    },
    {
      "midi": 77,
      "hit": false,
      "t": 167233.00461875,
      "d": 42.64703749999171,
      "v": 101
    },
    {
      "midi": 76,
      "hit": false,
      "t": 167258.73990000002,
      "d": 38.97056874999544,
      "v": 101
    },
    {
      "midi": 74,
      "hit": false,
      "t": 167284.47518125002,
      "d": 38.97056874999544,
      "v": 103
    },
    {
      "midi": 72,
      "hit": false,
      "t": 167313.88693125002,
      "d": 42.64703749999171,
      "v": 101
    },
    {
      "midi": 71,
      "hit": false,
      "t": 167356.53396875,
      "d": 41.17644999999902,
      "v": 85
    },
    {
      "midi": 69,
      "hit": false,
      "t": 167398.44571250002,
      "d": 79.41172500001267,
      "v": 80
    },
    {
      "midi": 72,
      "hit": false,
      "t": 167468.2986187504,
      "d": 99.99994999999763,
      "v": 61
    },
    {
      "midi": 68,
      "hit": false,
      "t": 167468.2986187504,
      "d": 140.44110624998575,
      "v": 76
    },
    {
      "midi": 56,
      "hit": false,
      "t": 167470.50450000042,
      "d": 108.82347499998286,
      "v": 75
    },
    {
      "midi": 60,
      "hit": false,
      "t": 167470.50450000042,
      "d": 122.05876249997527,
      "v": 89
    },
    {
      "midi": 65,
      "hit": false,
      "t": 167470.50450000042,
      "d": 136.76463749998948,
      "v": 80
    },
    {
      "midi": 71,
      "hit": false,
      "t": 167471.97508750003,
      "d": 35.29409999999916,
      "v": 81
    },
    {
      "midi": 72,
      "hit": false,
      "t": 167505.06330625003,
      "d": 27.941162500006612,
      "v": 81
    },
    {
      "midi": 74,
      "hit": false,
      "t": 167530.79858750003,
      "d": 26.470575000013923,
      "v": 84
    },
    {
      "midi": 76,
      "hit": false,
      "t": 167555.06328125004,
      "d": 22.79410625001765,
      "v": 92
    },
    {
      "midi": 77,
      "hit": false,
      "t": 167574.91621250004,
      "d": 24.264693750010338,
      "v": 97
    },
    {
      "midi": 79,
      "hit": false,
      "t": 167595.50443750006,
      "d": 24.264693750010338,
      "v": 101
    },
    {
      "midi": 81,
      "hit": false,
      "t": 167617.56325000006,
      "d": 35.29409999999916,
      "v": 103
    },
    {
      "midi": 83,
      "hit": false,
      "t": 167637.41618125007,
      "d": 26.470575000013923,
      "v": 103
    },
    {
      "midi": 84,
      "hit": false,
      "t": 167661.68087500008,
      "d": 24.264693750010338,
      "v": 103
    },
    {
      "midi": 86,
      "hit": false,
      "t": 167681.53380625008,
      "d": 27.941162500006612,
      "v": 103
    },
    {
      "midi": 88,
      "hit": false,
      "t": 167705.7985000001,
      "d": 30.147043750010198,
      "v": 103
    },
    {
      "midi": 89,
      "hit": false,
      "t": 167729.3279000001,
      "d": 107.35288750001928,
      "v": 98
    },
    {
      "midi": 91,
      "hit": false,
      "t": 167768.29846875012,
      "d": 31.617631250002887,
      "v": 79
    },
    {
      "midi": 84,
      "hit": false,
      "t": 167908.00428125012,
      "d": 8.088231250003446,
      "v": 79
    },
    {
      "midi": 83,
      "hit": false,
      "t": 167916.82780625013,
      "d": 19.11763749999227,
      "v": 80
    },
    {
      "midi": 81,
      "hit": false,
      "t": 167933.73956250012,
      "d": 27.941162500006612,
      "v": 80
    },
    {
      "midi": 79,
      "hit": false,
      "t": 167964.62190000014,
      "d": 20.588225000014063,
      "v": 84
    },
    {
      "midi": 77,
      "hit": false,
      "t": 167988.88659375015,
      "d": 26.470575000013923,
      "v": 87
    },
    {
      "midi": 67,
      "hit": false,
      "t": 167997.7101187504,
      "d": 140.44110624998575,
      "v": 77
    },
    {
      "midi": 70,
      "hit": false,
      "t": 167997.7101187504,
      "d": 140.44110624998575,
      "v": 57
    },
    {
      "midi": 65,
      "hit": false,
      "t": 167999.9160000004,
      "d": 123.52934999999707,
      "v": 81
    },
    {
      "midi": 62,
      "hit": false,
      "t": 167999.9160000004,
      "d": 127.20581874999334,
      "v": 94
    },
    {
      "midi": 58,
      "hit": false,
      "t": 167999.9160000004,
      "d": 130.88228749998962,
      "v": 78
    },
    {
      "midi": 76,
      "hit": false,
      "t": 168021.97481250018,
      "d": 74.2646687500237,
      "v": 92
    },
    {
      "midi": 77,
      "hit": false,
      "t": 168093.2983062502,
      "d": 27.941162500006612,
      "v": 92
    },
    {
      "midi": 79,
      "hit": false,
      "t": 168119.0335875002,
      "d": 20.588225000014063,
      "v": 91
    },
    {
      "midi": 81,
      "hit": false,
      "t": 168137.4159312502,
      "d": 20.588225000014063,
      "v": 90
    },
    {
      "midi": 83,
      "hit": false,
      "t": 168158.00415625022,
      "d": 22.794106249988545,
      "v": 82
    },
    {
      "midi": 84,
      "hit": false,
      "t": 168185.2100250002,
      "d": 16.911756249988684,
      "v": 82
    },
    {
      "midi": 86,
      "hit": false,
      "t": 168198.4453125002,
      "d": 24.264693750010338,
      "v": 81
    },
    {
      "midi": 88,
      "hit": false,
      "t": 168218.2982437502,
      "d": 26.470575000013923,
      "v": 84
    },
    {
      "midi": 89,
      "hit": false,
      "t": 168242.56293750022,
      "d": 27.941162500006612,
      "v": 84
    },
    {
      "midi": 91,
      "hit": false,
      "t": 168264.62175000022,
      "d": 30.147043750010198,
      "v": 84
    },
    {
      "midi": 93,
      "hit": false,
      "t": 168288.15115000022,
      "d": 38.97056874999544,
      "v": 84
    },
    {
      "midi": 95,
      "hit": false,
      "t": 168319.76878125023,
      "d": 136.76463750001858,
      "v": 99
    },
    {
      "midi": 96,
      "hit": false,
      "t": 168374.91581250023,
      "d": 27.941162500006612,
      "v": 104
    },
    {
      "midi": 93,
      "hit": false,
      "t": 168435.20990000025,
      "d": 46.32350625001709,
      "v": 105
    },
    {
      "midi": 91,
      "hit": false,
      "t": 168466.82753125025,
      "d": 38.97056875002454,
      "v": 106
    },
    {
      "midi": 89,
      "hit": false,
      "t": 168494.03340000028,
      "d": 30.147043750010198,
      "v": 106
    },
    {
      "midi": 88,
      "hit": false,
      "t": 168518.2980937503,
      "d": 31.617631250002887,
      "v": 106
    },
    {
      "midi": 58,
      "hit": false,
      "t": 168529.3275000004,
      "d": 114.70582499998272,
      "v": 76
    },
    {
      "midi": 70,
      "hit": false,
      "t": 168529.3275000004,
      "d": 140.44110624995665,
      "v": 70
    },
    {
      "midi": 62,
      "hit": false,
      "t": 168530.79808750039,
      "d": 118.382293749979,
      "v": 91
    },
    {
      "midi": 65,
      "hit": false,
      "t": 168530.79808750039,
      "d": 119.85288124997169,
      "v": 77
    },
    {
      "midi": 86,
      "hit": false,
      "t": 168533.0039687503,
      "d": 41.17644999999902,
      "v": 105
    },
    {
      "midi": 67,
      "hit": false,
      "t": 168533.0039687504,
      "d": 138.23522499995306,
      "v": 75
    },
    {
      "midi": 84,
      "hit": false,
      "t": 168562.4157187503,
      "d": 31.617631250002887,
      "v": 105
    },
    {
      "midi": 83,
      "hit": false,
      "t": 168584.4745312503,
      "d": 31.617631250002887,
      "v": 104
    },
    {
      "midi": 81,
      "hit": false,
      "t": 168606.5333437503,
      "d": 33.82351250000647,
      "v": 103
    },
    {
      "midi": 79,
      "hit": false,
      "t": 168628.59215625032,
      "d": 35.29409999999916,
      "v": 98
    },
    {
      "midi": 77,
      "hit": false,
      "t": 168652.12155625032,
      "d": 35.29409999999916,
      "v": 94
    },
    {
      "midi": 76,
      "hit": false,
      "t": 168676.38625000033,
      "d": 37.49998125000275,
      "v": 91
    },
    {
      "midi": 74,
      "hit": false,
      "t": 168699.91565000033,
      "d": 42.64703749999171,
      "v": 88
    },
    {
      "midi": 72,
      "hit": false,
      "t": 168729.32740000033,
      "d": 41.17644999999902,
      "v": 86
    },
    {
      "midi": 71,
      "hit": false,
      "t": 168757.26856250034,
      "d": 44.8529187499953,
      "v": 81
    },
    {
      "midi": 69,
      "hit": false,
      "t": 168786.68031250034,
      "d": 46.323506249987986,
      "v": 75
    },
    {
      "midi": 67,
      "hit": false,
      "t": 168819.76853125033,
      "d": 42.64703749999171,
      "v": 72
    },
    {
      "midi": 65,
      "hit": false,
      "t": 168850.65086875032,
      "d": 38.97056874999544,
      "v": 68
    },
    {
      "midi": 64,
      "hit": false,
      "t": 168878.59203125033,
      "d": 38.97056874999544,
      "v": 59
    },
    {
      "midi": 62,
      "hit": false,
      "t": 168909.47436875032,
      "d": 33.82351250000647,
      "v": 54
    },
    {
      "midi": 60,
      "hit": false,
      "t": 168937.41553125033,
      "d": 24.264693750010338,
      "v": 48
    },
    {
      "midi": 70,
      "hit": false,
      "t": 169058.73900000035,
      "d": 90.44113125000149,
      "v": 83
    },
    {
      "midi": 62,
      "hit": false,
      "t": 169058.73900000035,
      "d": 111.02935625001555,
      "v": 91
    },
    {
      "midi": 65,
      "hit": false,
      "t": 169058.73900000035,
      "d": 123.52935000002617,
      "v": 81
    },
    {
      "midi": 58,
      "hit": false,
      "t": 169058.73900000035,
      "d": 138.23522500004037,
      "v": 70
    },
    {
      "midi": 67,
      "hit": false,
      "t": 169058.73900000035,
      "d": 140.44110625004396,
      "v": 83
    },
    {
      "midi": 72,
      "hit": false,
      "t": 169063.88605625034,
      "d": 63.235262500005774,
      "v": 101
    },
    {
      "midi": 65,
      "hit": false,
      "t": 169141.09190000035,
      "d": 72.05878749999101,
      "v": 94
    },
    {
      "midi": 72,
      "hit": false,
      "t": 169231.53303125035,
      "d": 55.882325000013225,
      "v": 101
    },
    {
      "midi": 65,
      "hit": false,
      "t": 169308.73887500036,
      "d": 66.91173125000205,
      "v": 94
    },
    {
      "midi": 72,
      "hit": false,
      "t": 169393.29765625036,
      "d": 63.235262500005774,
      "v": 97
    },
    {
      "midi": 72,
      "hit": false,
      "t": 169411.6800000004,
      "d": 114.70582499998272,
      "v": 58
    },
    {
      "midi": 56,
      "hit": false,
      "t": 169411.6800000004,
      "d": 119.85288124997169,
      "v": 70
    },
    {
      "midi": 60,
      "hit": false,
      "t": 169411.6800000004,
      "d": 123.52934999996796,
      "v": 76
    },
    {
      "midi": 65,
      "hit": false,
      "t": 169411.6800000004,
      "d": 133.0881687499641,
      "v": 88
    },
    {
      "midi": 68,
      "hit": false,
      "t": 169413.1505875004,
      "d": 140.44110624998575,
      "v": 76
    },
    {
      "midi": 65,
      "hit": false,
      "t": 169475.65055625036,
      "d": 79.41172500001267,
      "v": 91
    },
    {
      "midi": 72,
      "hit": false,
      "t": 169555.06228125037,
      "d": 61.02938125000219,
      "v": 91
    },
    {
      "midi": 65,
      "hit": false,
      "t": 169639.62106250037,
      "d": 72.05878750002012,
      "v": 86
    },
    {
      "midi": 72,
      "hit": false,
      "t": 169707.2680875004,
      "d": 63.235262500005774,
      "v": 88
    },
    {
      "midi": 65,
      "hit": false,
      "t": 169762.4151187504,
      "d": 145.58816250003292,
      "v": 79
    },
    {
      "midi": 60,
      "hit": false,
      "t": 169762.4151187504,
      "d": 147.7940437500365,
      "v": 88
    },
    {
      "midi": 56,
      "hit": false,
      "t": 169762.4151187504,
      "d": 151.47051250003278,
      "v": 75
    },
    {
      "midi": 68,
      "hit": false,
      "t": 169764.6210000004,
      "d": 138.23522500001127,
      "v": 71
    },
    {
      "midi": 72,
      "hit": false,
      "t": 169764.6210000004,
      "d": 140.44110625001485,
      "v": 58
    },
    {
      "midi": 65,
      "hit": false,
      "t": 169788.1504000004,
      "d": 77.94113749999087,
      "v": 94
    },
    {
      "midi": 72,
      "hit": false,
      "t": 169867.56212500038,
      "d": 63.235262500005774,
      "v": 88
    },
    {
      "midi": 65,
      "hit": false,
      "t": 169955.79737500037,
      "d": 70.58819999999832,
      "v": 94
    },
    {
      "midi": 72,
      "hit": false,
      "t": 170029.3267500004,
      "d": 61.02938125000219,
      "v": 94
    },
    {
      "midi": 65,
      "hit": false,
      "t": 170108.0031812504,
      "d": 77.94113750001998,
      "v": 91
    },
    {
      "midi": 72,
      "hit": false,
      "t": 170181.5325562504,
      "d": 63.235262500005774,
      "v": 91
    },
    {
      "midi": 65,
      "hit": false,
      "t": 170260.9442812504,
      "d": 66.91173125000205,
      "v": 83
    },
    {
      "midi": 68,
      "hit": false,
      "t": 170290.3560312504,
      "d": 138.23522499998217,
      "v": 73
    },
    {
      "midi": 72,
      "hit": false,
      "t": 170291.8266187504,
      "d": 99.99994999999763,
      "v": 61
    },
    {
      "midi": 60,
      "hit": false,
      "t": 170294.0325000004,
      "d": 97.79406874999404,
      "v": 86
    },
    {
      "midi": 56,
      "hit": false,
      "t": 170294.0325000004,
      "d": 107.35288749999017,
      "v": 72
    },
    {
      "midi": 65,
      "hit": false,
      "t": 170294.0325000004,
      "d": 118.382293749979,
      "v": 86
    },
    {
      "midi": 72,
      "hit": false,
      "t": 170338.15012500042,
      "d": 63.235262500005774,
      "v": 88
    },
    {
      "midi": 65,
      "hit": false,
      "t": 170409.47361875043,
      "d": 75.73525624998729,
      "v": 104
    },
    {
      "midi": 72,
      "hit": false,
      "t": 170499.91475000043,
      "d": 64.70584999999846,
      "v": 94
    },
    {
      "midi": 65,
      "hit": false,
      "t": 170585.94411875043,
      "d": 57.352912500005914,
      "v": 94
    },
    {
      "midi": 72,
      "hit": false,
      "t": 170658.00290625045,
      "d": 59.5587937500095,
      "v": 86
    },
    {
      "midi": 65,
      "hit": false,
      "t": 170729.32640000046,
      "d": 57.352912500005914,
      "v": 94
    },
    {
      "midi": 72,
      "hit": false,
      "t": 170813.88518125046,
      "d": 64.70584999999846,
      "v": 86
    },
    {
      "midi": 62,
      "hit": false,
      "t": 170821.2381187504,
      "d": 140.44110625001485,
      "v": 91
    },
    {
      "midi": 70,
      "hit": false,
      "t": 170821.2381187504,
      "d": 140.44110625001485,
      "v": 57
    },
    {
      "midi": 67,
      "hit": false,
      "t": 170821.2381187504,
      "d": 151.47051250000368,
      "v": 79
    },
    {
      "midi": 58,
      "hit": false,
      "t": 170823.4440000004,
      "d": 144.11757500001113,
      "v": 71
    },
    {
      "midi": 65,
      "hit": false,
      "t": 170872.70868125046,
      "d": 63.235262500005774,
      "v": 94
    },
    {
      "midi": 72,
      "hit": false,
      "t": 170977.85568750047,
      "d": 63.235262500005774,
      "v": 91
    },
    {
      "midi": 65,
      "hit": false,
      "t": 171021.9733125005,
      "d": 70.58819999999832,
      "v": 104
    },
    {
      "midi": 80,
      "hit": false,
      "t": 171181.5320562505,
      "d": 68.38231874999474,
      "v": 83
    },
    {
      "midi": 77,
      "hit": false,
      "t": 171183.7379375005,
      "d": 68.38231874999474,
      "v": 81
    },
    {
      "midi": 58,
      "hit": false,
      "t": 171352.85550000038,
      "d": 140.44110624998575,
      "v": 68
    },
    {
      "midi": 62,
      "hit": false,
      "t": 171352.85550000038,
      "d": 140.44110624998575,
      "v": 85
    },
    {
      "midi": 67,
      "hit": false,
      "t": 171352.85550000038,
      "d": 140.44110624998575,
      "v": 77
    },
    {
      "midi": 70,
      "hit": false,
      "t": 171352.85550000038,
      "d": 140.44110624998575,
      "v": 72
    },
    {
      "midi": 80,
      "hit": false,
      "t": 171352.8555000005,
      "d": 68.38231874999474,
      "v": 83
    },
    {
      "midi": 77,
      "hit": false,
      "t": 171352.8555000005,
      "d": 86.76466250000522,
      "v": 81
    },
    {
      "midi": 77,
      "hit": false,
      "t": 171527.1201187505,
      "d": 88.9705437499797,
      "v": 83
    },
    {
      "midi": 80,
      "hit": false,
      "t": 171533.0024687505,
      "d": 72.05878749999101,
      "v": 83
    },
    {
      "midi": 82,
      "hit": false,
      "t": 171710.94355625048,
      "d": 68.38231874999474,
      "v": 95
    },
    {
      "midi": 77,
      "hit": false,
      "t": 171710.94355625048,
      "d": 72.05878749999101,
      "v": 86
    },
    {
      "midi": 67,
      "hit": false,
      "t": 171878.59053125037,
      "d": 147.7940437500074,
      "v": 77
    },
    {
      "midi": 58,
      "hit": false,
      "t": 171880.06111875037,
      "d": 136.76463750001858,
      "v": 73
    },
    {
      "midi": 62,
      "hit": false,
      "t": 171880.06111875037,
      "d": 138.23522500001127,
      "v": 88
    },
    {
      "midi": 77,
      "hit": false,
      "t": 171880.06111875048,
      "d": 85.29407500001253,
      "v": 79
    },
    {
      "midi": 70,
      "hit": false,
      "t": 171882.26700000037,
      "d": 90.44113125000149,
      "v": 79
    },
    {
      "midi": 82,
      "hit": false,
      "t": 171882.2670000005,
      "d": 63.235262500005774,
      "v": 87
    },
    {
      "midi": 82,
      "hit": false,
      "t": 172062.4139687505,
      "d": 74.2646687499946,
      "v": 83
    },
    {
      "midi": 77,
      "hit": false,
      "t": 172063.8845562505,
      "d": 81.61760625001625,
      "v": 91
    },
    {
      "midi": 77,
      "hit": false,
      "t": 172233.0021187505,
      "d": 160.29403749998892,
      "v": 113
    },
    {
      "midi": 72,
      "hit": false,
      "t": 172235.2080000004,
      "d": 114.70582499998272,
      "v": 58
    },
    {
      "midi": 56,
      "hit": false,
      "t": 172235.2080000004,
      "d": 130.88228749998962,
      "v": 83
    },
    {
      "midi": 60,
      "hit": false,
      "t": 172235.2080000004,
      "d": 133.0881687499932,
      "v": 88
    },
    {
      "midi": 65,
      "hit": false,
      "t": 172235.2080000004,
      "d": 134.5587562499859,
      "v": 75
    },
    {
      "midi": 68,
      "hit": false,
      "t": 172236.67858750038,
      "d": 140.44110624998575,
      "v": 71
    },
    {
      "midi": 65,
      "hit": false,
      "t": 172585.94311875038,
      "d": 130.88228749998962,
      "v": 86
    },
    {
      "midi": 56,
      "hit": false,
      "t": 172585.94311875038,
      "d": 133.0881687499932,
      "v": 77
    },
    {
      "midi": 60,
      "hit": false,
      "t": 172585.94311875038,
      "d": 140.44110624998575,
      "v": 90
    },
    {
      "midi": 68,
      "hit": false,
      "t": 172585.94311875038,
      "d": 140.44110624998575,
      "v": 73
    },
    {
      "midi": 72,
      "hit": false,
      "t": 172588.14900000038,
      "d": 140.44110624998575,
      "v": 58
    },
    {
      "midi": 77,
      "hit": false,
      "t": 172595.5019375005,
      "d": 163.9705062499852,
      "v": 101
    },
    {
      "midi": 80,
      "hit": false,
      "t": 172596.97252500048,
      "d": 149.2646312500001,
      "v": 91
    },
    {
      "midi": 72,
      "hit": false,
      "t": 172599.1784062505,
      "d": 158.82344999999623,
      "v": 94
    },
    {
      "midi": 72,
      "hit": false,
      "t": 173115.35461875037,
      "d": 99.99994999999763,
      "v": 61
    },
    {
      "midi": 68,
      "hit": false,
      "t": 173115.35461875037,
      "d": 140.44110624998575,
      "v": 76
    },
    {
      "midi": 77,
      "hit": false,
      "t": 173115.35461875048,
      "d": 103.6764187499939,
      "v": 77
    },
    {
      "midi": 56,
      "hit": false,
      "t": 173117.56050000037,
      "d": 108.82347499998286,
      "v": 75
    },
    {
      "midi": 60,
      "hit": false,
      "t": 173117.56050000037,
      "d": 122.05876249997527,
      "v": 89
    },
    {
      "midi": 65,
      "hit": false,
      "t": 173117.56050000037,
      "d": 136.76463749998948,
      "v": 80
    },
    {
      "midi": 77,
      "hit": false,
      "t": 173302.85452500047,
      "d": 189.70578750001732,
      "v": 108
    },
    {
      "midi": 72,
      "hit": false,
      "t": 173305.06040625047,
      "d": 184.55873124999925,
      "v": 101
    },
    {
      "midi": 80,
      "hit": false,
      "t": 173306.53099375046,
      "d": 158.82344999999623,
      "v": 104
    },
    {
      "midi": 67,
      "hit": false,
      "t": 173644.76611875035,
      "d": 140.44110624998575,
      "v": 77
    },
    {
      "midi": 70,
      "hit": false,
      "t": 173644.76611875035,
      "d": 140.44110624998575,
      "v": 57
    },
    {
      "midi": 65,
      "hit": false,
      "t": 173646.97200000036,
      "d": 123.52934999999707,
      "v": 81
    },
    {
      "midi": 62,
      "hit": false,
      "t": 173646.97200000036,
      "d": 127.20581874999334,
      "v": 94
    },
    {
      "midi": 58,
      "hit": false,
      "t": 173646.97200000036,
      "d": 130.88228749998962,
      "v": 78
    },
    {
      "midi": 77,
      "hit": false,
      "t": 173646.97200000047,
      "d": 152.94109999999637,
      "v": 81
    },
    {
      "midi": 63,
      "hit": false,
      "t": 173646.97200000047,
      "d": 206.617543750006,
      "v": 82
    },
    {
      "midi": 77,
      "hit": false,
      "t": 174001.3835875005,
      "d": 85.29407500001253,
      "v": 104
    },
    {
      "midi": 80,
      "hit": false,
      "t": 174001.3835875005,
      "d": 97.79406875002314,
      "v": 88
    },
    {
      "midi": 72,
      "hit": false,
      "t": 174007.2659375005,
      "d": 79.41172500001267,
      "v": 98
    },
    {
      "midi": 58,
      "hit": false,
      "t": 174176.38350000035,
      "d": 114.70582499998272,
      "v": 76
    },
    {
      "midi": 70,
      "hit": false,
      "t": 174176.38350000035,
      "d": 140.44110624995665,
      "v": 70
    },
    {
      "midi": 62,
      "hit": false,
      "t": 174177.85408750034,
      "d": 118.382293749979,
      "v": 91
    },
    {
      "midi": 65,
      "hit": false,
      "t": 174177.85408750034,
      "d": 119.85288124997169,
      "v": 77
    },
    {
      "midi": 67,
      "hit": false,
      "t": 174180.05996875034,
      "d": 138.23522499995306,
      "v": 75
    },
    {
      "midi": 77,
      "hit": false,
      "t": 174185.2070250005,
      "d": 88.9705437500088,
      "v": 97
    },
    {
      "midi": 63,
      "hit": false,
      "t": 174185.2070250005,
      "d": 118.3822937500081,
      "v": 88
    },
    {
      "midi": 77,
      "hit": false,
      "t": 174534.4715562505,
      "d": 74.2646687499946,
      "v": 77
    },
    {
      "midi": 70,
      "hit": false,
      "t": 174705.7950000003,
      "d": 90.44113125000149,
      "v": 83
    },
    {
      "midi": 62,
      "hit": false,
      "t": 174705.7950000003,
      "d": 111.02935625001555,
      "v": 91
    },
    {
      "midi": 65,
      "hit": false,
      "t": 174705.7950000003,
      "d": 123.52935000002617,
      "v": 81
    },
    {
      "midi": 58,
      "hit": false,
      "t": 174705.7950000003,
      "d": 138.23522500004037,
      "v": 70
    },
    {
      "midi": 67,
      "hit": false,
      "t": 174705.7950000003,
      "d": 140.44110625004396,
      "v": 83
    },
    {
      "midi": 77,
      "hit": false,
      "t": 174705.7950000005,
      "d": 108.82347500001197,
      "v": 113
    },
    {
      "midi": 72,
      "hit": false,
      "t": 174707.2655875005,
      "d": 77.94113750001998,
      "v": 108
    },
    {
      "midi": 80,
      "hit": false,
      "t": 174707.2655875005,
      "d": 97.79406875002314,
      "v": 105
    },
    {
      "midi": 63,
      "hit": false,
      "t": 174721.9714625005,
      "d": 99.99994999999763,
      "v": 93
    },
    {
      "midi": 72,
      "hit": false,
      "t": 175058.73600000035,
      "d": 114.70582499998272,
      "v": 58
    },
    {
      "midi": 56,
      "hit": false,
      "t": 175058.73600000035,
      "d": 119.85288124997169,
      "v": 70
    },
    {
      "midi": 60,
      "hit": false,
      "t": 175058.73600000035,
      "d": 123.52934999996796,
      "v": 76
    },
    {
      "midi": 65,
      "hit": false,
      "t": 175058.73600000035,
      "d": 133.0881687499641,
      "v": 88
    },
    {
      "midi": 77,
      "hit": false,
      "t": 175058.7360000005,
      "d": 119.85288125000079,
      "v": 86
    },
    {
      "midi": 68,
      "hit": false,
      "t": 175060.20658750035,
      "d": 140.44110624998575,
      "v": 76
    },
    {
      "midi": 65,
      "hit": false,
      "t": 175409.47111875034,
      "d": 145.58816250003292,
      "v": 79
    },
    {
      "midi": 60,
      "hit": false,
      "t": 175409.47111875034,
      "d": 147.7940437500365,
      "v": 88
    },
    {
      "midi": 56,
      "hit": false,
      "t": 175409.47111875034,
      "d": 151.47051250003278,
      "v": 75
    },
    {
      "midi": 68,
      "hit": false,
      "t": 175411.67700000035,
      "d": 138.23522500001127,
      "v": 71
    },
    {
      "midi": 72,
      "hit": false,
      "t": 175411.67700000035,
      "d": 140.44110625001485,
      "v": 58
    },
    {
      "midi": 80,
      "hit": false,
      "t": 175411.6770000005,
      "d": 118.3822937500081,
      "v": 90
    },
    {
      "midi": 72,
      "hit": false,
      "t": 175413.14758750048,
      "d": 94.11759999999776,
      "v": 87
    },
    {
      "midi": 77,
      "hit": false,
      "t": 175413.14758750048,
      "d": 116.17641250000452,
      "v": 101
    },
    {
      "midi": 77,
      "hit": false,
      "t": 175764.6180000005,
      "d": 85.29407500001253,
      "v": 94
    },
    {
      "midi": 68,
      "hit": false,
      "t": 175937.41203125037,
      "d": 138.23522499998217,
      "v": 73
    },
    {
      "midi": 72,
      "hit": false,
      "t": 175938.88261875036,
      "d": 99.99994999999763,
      "v": 61
    },
    {
      "midi": 60,
      "hit": false,
      "t": 175941.08850000036,
      "d": 97.79406874999404,
      "v": 86
    },
    {
      "midi": 56,
      "hit": false,
      "t": 175941.08850000036,
      "d": 107.35288749999017,
      "v": 72
    },
    {
      "midi": 65,
      "hit": false,
      "t": 175941.08850000036,
      "d": 118.382293749979,
      "v": 86
    },
    {
      "midi": 77,
      "hit": false,
      "t": 175946.23555625053,
      "d": 77.94113749999087,
      "v": 88
    },
    {
      "midi": 80,
      "hit": false,
      "t": 176115.35311875053,
      "d": 111.02935624998645,
      "v": 96
    },
    {
      "midi": 77,
      "hit": false,
      "t": 176121.23546875053,
      "d": 88.9705437500088,
      "v": 86
    },
    {
      "midi": 72,
      "hit": false,
      "t": 176121.23546875053,
      "d": 94.11759999999776,
      "v": 96
    },
    {
      "midi": 77,
      "hit": false,
      "t": 176294.02950000053,
      "d": 97.79406874999404,
      "v": 88
    },
    {
      "midi": 62,
      "hit": false,
      "t": 176468.29411875035,
      "d": 140.44110625001485,
      "v": 91
    },
    {
      "midi": 70,
      "hit": false,
      "t": 176468.29411875035,
      "d": 140.44110625001485,
      "v": 57
    },
    {
      "midi": 67,
      "hit": false,
      "t": 176468.29411875035,
      "d": 151.47051250000368,
      "v": 79
    },
    {
      "midi": 58,
      "hit": false,
      "t": 176470.50000000035,
      "d": 144.11757500001113,
      "v": 71
    },
    {
      "midi": 63,
      "hit": false,
      "t": 176470.50000000052,
      "d": 206.617543750006,
      "v": 82
    },
    {
      "midi": 77,
      "hit": false,
      "t": 176644.76461875052,
      "d": 88.9705437500088,
      "v": 86
    },
    {
      "midi": 80,
      "hit": false,
      "t": 176834.47040625053,
      "d": 119.85288125000079,
      "v": 98
    },
    {
      "midi": 77,
      "hit": false,
      "t": 176835.94099375053,
      "d": 99.99994999999763,
      "v": 86
    },
    {
      "midi": 72,
      "hit": false,
      "t": 176841.82334375053,
      "d": 99.99994999999763,
      "v": 106
    },
    {
      "midi": 77,
      "hit": false,
      "t": 176997.70561875054,
      "d": 83.08819374997984,
      "v": 97
    },
    {
      "midi": 58,
      "hit": false,
      "t": 176999.91150000034,
      "d": 140.44110624998575,
      "v": 68
    },
    {
      "midi": 62,
      "hit": false,
      "t": 176999.91150000034,
      "d": 140.44110624998575,
      "v": 85
    },
    {
      "midi": 67,
      "hit": false,
      "t": 176999.91150000034,
      "d": 140.44110624998575,
      "v": 77
    },
    {
      "midi": 70,
      "hit": false,
      "t": 176999.91150000034,
      "d": 140.44110624998575,
      "v": 72
    },
    {
      "midi": 63,
      "hit": false,
      "t": 177008.73502500053,
      "d": 118.382293749979,
      "v": 88
    },
    {
      "midi": 77,
      "hit": false,
      "t": 177172.7055312505,
      "d": 158.82344999999623,
      "v": 97
    },
    {
      "midi": 67,
      "hit": false,
      "t": 177525.64653125033,
      "d": 147.7940437500074,
      "v": 77
    },
    {
      "midi": 58,
      "hit": false,
      "t": 177527.11711875032,
      "d": 136.76463750001858,
      "v": 73
    },
    {
      "midi": 62,
      "hit": false,
      "t": 177527.11711875032,
      "d": 138.23522500001127,
      "v": 88
    },
    {
      "midi": 77,
      "hit": false,
      "t": 177527.1171187505,
      "d": 152.94109999996726,
      "v": 94
    },
    {
      "midi": 70,
      "hit": false,
      "t": 177529.32300000032,
      "d": 90.44113125000149,
      "v": 79
    },
    {
      "midi": 80,
      "hit": false,
      "t": 177538.14652500048,
      "d": 127.20581874999334,
      "v": 83
    },
    {
      "midi": 72,
      "hit": false,
      "t": 177538.14652500048,
      "d": 140.44110624998575,
      "v": 111
    },
    {
      "midi": 63,
      "hit": false,
      "t": 177545.49946250048,
      "d": 99.99994999999763,
      "v": 93
    },
    {
      "midi": 72,
      "hit": false,
      "t": 177882.26400000034,
      "d": 114.70582499998272,
      "v": 58
    },
    {
      "midi": 56,
      "hit": false,
      "t": 177882.26400000034,
      "d": 130.88228749998962,
      "v": 83
    },
    {
      "midi": 60,
      "hit": false,
      "t": 177882.26400000034,
      "d": 133.0881687499932,
      "v": 88
    },
    {
      "midi": 65,
      "hit": false,
      "t": 177882.26400000034,
      "d": 134.5587562499859,
      "v": 75
    },
    {
      "midi": 68,
      "hit": false,
      "t": 177883.73458750034,
      "d": 140.44110624998575,
      "v": 71
    },
    {
      "midi": 89,
      "hit": false,
      "t": 177883.73458750045,
      "d": 83.08819375000894,
      "v": 94
    },
    {
      "midi": 96,
      "hit": false,
      "t": 177889.61693750045,
      "d": 81.61760625001625,
      "v": 97
    },
    {
      "midi": 89,
      "hit": false,
      "t": 178063.88155625048,
      "d": 66.91173125000205,
      "v": 91
    },
    {
      "midi": 96,
      "hit": false,
      "t": 178067.55802500047,
      "d": 74.2646687499946,
      "v": 91
    },
    {
      "midi": 65,
      "hit": false,
      "t": 178232.99911875033,
      "d": 130.88228749998962,
      "v": 86
    },
    {
      "midi": 56,
      "hit": false,
      "t": 178232.99911875033,
      "d": 133.0881687499932,
      "v": 77
    },
    {
      "midi": 60,
      "hit": false,
      "t": 178232.99911875033,
      "d": 140.44110624998575,
      "v": 90
    },
    {
      "midi": 68,
      "hit": false,
      "t": 178232.99911875033,
      "d": 140.44110624998575,
      "v": 73
    },
    {
      "midi": 72,
      "hit": false,
      "t": 178235.20500000034,
      "d": 140.44110624998575,
      "v": 58
    },
    {
      "midi": 89,
      "hit": false,
      "t": 178236.67558750047,
      "d": 74.2646687499946,
      "v": 83
    },
    {
      "midi": 96,
      "hit": false,
      "t": 178236.67558750047,
      "d": 79.41172499998356,
      "v": 73
    },
    {
      "midi": 89,
      "hit": false,
      "t": 178419.02843750047,
      "d": 75.73525624998729,
      "v": 94
    },
    {
      "midi": 96,
      "hit": false,
      "t": 178426.38137500046,
      "d": 66.91173125000205,
      "v": 94
    },
    {
      "midi": 89,
      "hit": false,
      "t": 178600.64599375046,
      "d": 75.73525625001639,
      "v": 88
    },
    {
      "midi": 96,
      "hit": false,
      "t": 178610.20481250045,
      "d": 63.235262500005774,
      "v": 77
    },
    {
      "midi": 72,
      "hit": false,
      "t": 178762.41061875032,
      "d": 99.99994999999763,
      "v": 61
    },
    {
      "midi": 68,
      "hit": false,
      "t": 178762.41061875032,
      "d": 140.44110624998575,
      "v": 76
    },
    {
      "midi": 56,
      "hit": false,
      "t": 178764.61650000032,
      "d": 108.82347499998286,
      "v": 75
    },
    {
      "midi": 60,
      "hit": false,
      "t": 178764.61650000032,
      "d": 122.05876249997527,
      "v": 89
    },
    {
      "midi": 65,
      "hit": false,
      "t": 178764.61650000032,
      "d": 136.76463749998948,
      "v": 80
    },
    {
      "midi": 89,
      "hit": false,
      "t": 178779.32237500048,
      "d": 70.58819999999832,
      "v": 101
    },
    {
      "midi": 96,
      "hit": false,
      "t": 178780.79296250048,
      "d": 70.58819999999832,
      "v": 94
    },
    {
      "midi": 89,
      "hit": false,
      "t": 178955.79287500048,
      "d": 68.38231874999474,
      "v": 94
    },
    {
      "midi": 96,
      "hit": false,
      "t": 178963.14581250047,
      "d": 52.205856249987846,
      "v": 59
    },
    {
      "midi": 89,
      "hit": false,
      "t": 179130.05749375047,
      "d": 68.38231874999474,
      "v": 86
    },
    {
      "midi": 96,
      "hit": false,
      "t": 179133.73396250047,
      "d": 66.91173125000205,
      "v": 91
    },
    {
      "midi": 67,
      "hit": false,
      "t": 179291.8221187503,
      "d": 140.44110624998575,
      "v": 77
    },
    {
      "midi": 70,
      "hit": false,
      "t": 179291.8221187503,
      "d": 140.44110624998575,
      "v": 57
    },
    {
      "midi": 65,
      "hit": false,
      "t": 179294.0280000003,
      "d": 123.52934999999707,
      "v": 81
    },
    {
      "midi": 62,
      "hit": false,
      "t": 179294.0280000003,
      "d": 127.20581874999334,
      "v": 94
    },
    {
      "midi": 58,
      "hit": false,
      "t": 179294.0280000003,
      "d": 130.88228749998962,
      "v": 78
    },
    {
      "midi": 89,
      "hit": false,
      "t": 179305.05740625047,
      "d": 70.58819999999832,
      "v": 91
    },
    {
      "midi": 96,
      "hit": false,
      "t": 179306.52799375047,
      "d": 64.70584999999846,
      "v": 94
    },
    {
      "midi": 89,
      "hit": false,
      "t": 179479.32202500047,
      "d": 70.58819999999832,
      "v": 94
    },
    {
      "midi": 96,
      "hit": false,
      "t": 179482.99849375046,
      "d": 59.5587937500095,
      "v": 83
    },
    {
      "midi": 89,
      "hit": false,
      "t": 179654.32193750047,
      "d": 68.38231874999474,
      "v": 94
    },
    {
      "midi": 96,
      "hit": false,
      "t": 179657.99840625047,
      "d": 59.5587937500095,
      "v": 91
    },
    {
      "midi": 58,
      "hit": false,
      "t": 179823.4395000003,
      "d": 114.70582499998272,
      "v": 76
    },
    {
      "midi": 70,
      "hit": false,
      "t": 179823.4395000003,
      "d": 140.44110624995665,
      "v": 70
    },
    {
      "midi": 62,
      "hit": false,
      "t": 179824.9100875003,
      "d": 118.382293749979,
      "v": 91
    },
    {
      "midi": 65,
      "hit": false,
      "t": 179824.9100875003,
      "d": 119.85288124997169,
      "v": 77
    },
    {
      "midi": 67,
      "hit": false,
      "t": 179827.1159687503,
      "d": 138.23522499995306,
      "v": 75
    },
    {
      "midi": 89,
      "hit": false,
      "t": 179830.79243750047,
      "d": 63.235262500005774,
      "v": 91
    },
    {
      "midi": 96,
      "hit": false,
      "t": 179832.26302500046,
      "d": 57.352912500005914,
      "v": 86
    },
    {
      "midi": 89,
      "hit": false,
      "t": 180007.26293750046,
      "d": 70.58819999999832,
      "v": 94
    },
    {
      "midi": 96,
      "hit": false,
      "t": 180008.73352500045,
      "d": 61.02938125000219,
      "v": 91
    },
    {
      "midi": 89,
      "hit": false,
      "t": 180187.40990625045,
      "d": 64.70584999999846,
      "v": 91
    },
    {
      "midi": 96,
      "hit": false,
      "t": 180188.88049375045,
      "d": 57.352912500005914,
      "v": 86
    },
    {
      "midi": 70,
      "hit": false,
      "t": 180352.85100000026,
      "d": 90.44113125000149,
      "v": 83
    },
    {
      "midi": 62,
      "hit": false,
      "t": 180352.85100000026,
      "d": 111.02935625001555,
      "v": 91
    },
    {
      "midi": 65,
      "hit": false,
      "t": 180352.85100000026,
      "d": 123.52935000002617,
      "v": 81
    },
    {
      "midi": 58,
      "hit": false,
      "t": 180352.85100000026,
      "d": 138.23522500004037,
      "v": 70
    },
    {
      "midi": 67,
      "hit": false,
      "t": 180352.85100000026,
      "d": 140.44110625004396,
      "v": 83
    },
    {
      "midi": 96,
      "hit": false,
      "t": 180363.88040625045,
      "d": 61.02938125000219,
      "v": 86
    },
    {
      "midi": 89,
      "hit": false,
      "t": 180363.88040625045,
      "d": 64.70584999999846,
      "v": 94
    },
    {
      "midi": 89,
      "hit": false,
      "t": 180536.67443750045,
      "d": 72.05878749999101,
      "v": 97
    },
    {
      "midi": 96,
      "hit": false,
      "t": 180540.35090625045,
      "d": 61.02938125000219,
      "v": 86
    },
    {
      "midi": 72,
      "hit": false,
      "t": 180705.7920000003,
      "d": 114.70582499998272,
      "v": 58
    },
    {
      "midi": 56,
      "hit": false,
      "t": 180705.7920000003,
      "d": 119.85288124997169,
      "v": 70
    },
    {
      "midi": 60,
      "hit": false,
      "t": 180705.7920000003,
      "d": 123.52934999996796,
      "v": 76
    },
    {
      "midi": 65,
      "hit": false,
      "t": 180705.7920000003,
      "d": 133.0881687499641,
      "v": 88
    },
    {
      "midi": 68,
      "hit": false,
      "t": 180707.2625875003,
      "d": 140.44110624998575,
      "v": 76
    },
    {
      "midi": 89,
      "hit": false,
      "t": 180714.61552500044,
      "d": 68.38231875002384,
      "v": 91
    },
    {
      "midi": 96,
      "hit": false,
      "t": 180716.82140625044,
      "d": 63.235262500005774,
      "v": 88
    },
    {
      "midi": 89,
      "hit": false,
      "t": 180889.61543750047,
      "d": 70.58819999999832,
      "v": 91
    },
    {
      "midi": 96,
      "hit": false,
      "t": 180891.08602500046,
      "d": 64.70584999999846,
      "v": 86
    },
    {
      "midi": 65,
      "hit": false,
      "t": 181056.5271187503,
      "d": 145.58816250003292,
      "v": 79
    },
    {
      "midi": 60,
      "hit": false,
      "t": 181056.5271187503,
      "d": 147.7940437500365,
      "v": 88
    },
    {
      "midi": 56,
      "hit": false,
      "t": 181056.5271187503,
      "d": 151.47051250003278,
      "v": 75
    },
    {
      "midi": 68,
      "hit": false,
      "t": 181058.7330000003,
      "d": 138.23522500001127,
      "v": 71
    },
    {
      "midi": 72,
      "hit": false,
      "t": 181058.7330000003,
      "d": 140.44110625001485,
      "v": 58
    },
    {
      "midi": 89,
      "hit": false,
      "t": 181067.55652500046,
      "d": 70.58820000002743,
      "v": 94
    },
    {
      "midi": 96,
      "hit": false,
      "t": 181069.76240625046,
      "d": 59.5587937500095,
      "v": 88
    },
    {
      "midi": 96,
      "hit": false,
      "t": 181247.70349375048,
      "d": 63.235262500005774,
      "v": 86
    },
    {
      "midi": 89,
      "hit": false,
      "t": 181247.70349375048,
      "d": 68.38231874999474,
      "v": 101
    },
    {
      "midi": 89,
      "hit": false,
      "t": 181426.37987500048,
      "d": 64.70584999999846,
      "v": 101
    },
    {
      "midi": 96,
      "hit": false,
      "t": 181430.05634375048,
      "d": 53.67644375000964,
      "v": 81
    },
    {
      "midi": 68,
      "hit": false,
      "t": 181584.46803125032,
      "d": 138.23522499998217,
      "v": 73
    },
    {
      "midi": 72,
      "hit": false,
      "t": 181585.9386187503,
      "d": 99.99994999999763,
      "v": 61
    },
    {
      "midi": 60,
      "hit": false,
      "t": 181588.14450000032,
      "d": 97.79406874999404,
      "v": 86
    },
    {
      "midi": 56,
      "hit": false,
      "t": 181588.14450000032,
      "d": 107.35288749999017,
      "v": 72
    },
    {
      "midi": 65,
      "hit": false,
      "t": 181588.14450000032,
      "d": 118.382293749979,
      "v": 86
    },
    {
      "midi": 89,
      "hit": false,
      "t": 181600.64449375047,
      "d": 63.235262500005774,
      "v": 94
    },
    {
      "midi": 96,
      "hit": false,
      "t": 181604.32096250047,
      "d": 55.882325000013225,
      "v": 79
    },
    {
      "midi": 89,
      "hit": false,
      "t": 181775.64440625047,
      "d": 68.38231874999474,
      "v": 101
    },
    {
      "midi": 96,
      "hit": false,
      "t": 181777.11499375047,
      "d": 61.02938125000219,
      "v": 88
    },
    {
      "midi": 89,
      "hit": false,
      "t": 181953.58549375046,
      "d": 66.91173125000205,
      "v": 97
    },
    {
      "midi": 96,
      "hit": false,
      "t": 181957.26196250046,
      "d": 61.02938125000219,
      "v": 83
    },
    {
      "midi": 62,
      "hit": false,
      "t": 182115.3501187503,
      "d": 140.44110625001485,
      "v": 91
    },
    {
      "midi": 70,
      "hit": false,
      "t": 182115.3501187503,
      "d": 140.44110625001485,
      "v": 57
    },
    {
      "midi": 67,
      "hit": false,
      "t": 182115.3501187503,
      "d": 151.47051250000368,
      "v": 79
    },
    {
      "midi": 58,
      "hit": false,
      "t": 182117.5560000003,
      "d": 144.11757500001113,
      "v": 71
    },
    {
      "midi": 96,
      "hit": false,
      "t": 182130.05599375046,
      "d": 68.38231874999474,
      "v": 83
    },
    {
      "midi": 89,
      "hit": false,
      "t": 182132.26187500046,
      "d": 61.02938125000219,
      "v": 94
    },
    {
      "midi": 89,
      "hit": false,
      "t": 182485.20287500045,
      "d": 63.235262500005774,
      "v": 94
    },
    {
      "midi": 96,
      "hit": false,
      "t": 182488.87934375045,
      "d": 63.235262500005774,
      "v": 75
    },
    {
      "midi": 58,
      "hit": false,
      "t": 182646.9675000003,
      "d": 140.44110624998575,
      "v": 68
    },
    {
      "midi": 62,
      "hit": false,
      "t": 182646.9675000003,
      "d": 140.44110624998575,
      "v": 85
    },
    {
      "midi": 67,
      "hit": false,
      "t": 182646.9675000003,
      "d": 140.44110624998575,
      "v": 77
    },
    {
      "midi": 70,
      "hit": false,
      "t": 182646.9675000003,
      "d": 140.44110624998575,
      "v": 72
    },
    {
      "midi": 89,
      "hit": false,
      "t": 182659.46749375045,
      "d": 70.58819999999832,
      "v": 94
    },
    {
      "midi": 96,
      "hit": false,
      "t": 182661.67337500045,
      "d": 66.91173125000205,
      "v": 94
    },
    {
      "midi": 89,
      "hit": false,
      "t": 182839.61446250044,
      "d": 64.70585000002757,
      "v": 94
    },
    {
      "midi": 96,
      "hit": false,
      "t": 182841.82034375044,
      "d": 59.5587937500095,
      "v": 83
    },
    {
      "midi": 67,
      "hit": false,
      "t": 183172.70253125028,
      "d": 147.7940437500074,
      "v": 77
    },
    {
      "midi": 58,
      "hit": false,
      "t": 183174.17311875027,
      "d": 136.76463750001858,
      "v": 73
    },
    {
      "midi": 62,
      "hit": false,
      "t": 183174.17311875027,
      "d": 138.23522500001127,
      "v": 88
    },
    {
      "midi": 70,
      "hit": false,
      "t": 183176.37900000028,
      "d": 90.44113125000149,
      "v": 79
    },
    {
      "midi": 89,
      "hit": false,
      "t": 183191.08487500047,
      "d": 72.05878749999101,
      "v": 97
    },
    {
      "midi": 96,
      "hit": false,
      "t": 183194.76134375046,
      "d": 61.02938125000219,
      "v": 91
    },
    {
      "midi": 89,
      "hit": false,
      "t": 183367.55537500046,
      "d": 70.58819999996922,
      "v": 88
    },
    {
      "midi": 96,
      "hit": false,
      "t": 183372.70243125045,
      "d": 52.205856249987846,
      "v": 79
    },
    {
      "midi": 72,
      "hit": false,
      "t": 183529.3200000003,
      "d": 114.70582499998272,
      "v": 58
    },
    {
      "midi": 56,
      "hit": false,
      "t": 183529.3200000003,
      "d": 130.88228749998962,
      "v": 83
    },
    {
      "midi": 60,
      "hit": false,
      "t": 183529.3200000003,
      "d": 133.0881687499932,
      "v": 88
    },
    {
      "midi": 65,
      "hit": false,
      "t": 183529.3200000003,
      "d": 134.5587562499859,
      "v": 75
    },
    {
      "midi": 89,
      "hit": false,
      "t": 183529.32000000044,
      "d": 77.94113749999087,
      "v": 101
    },
    {
      "midi": 96,
      "hit": false,
      "t": 183529.32000000044,
      "d": 99.99994999999763,
      "v": 104
    },
    {
      "midi": 68,
      "hit": false,
      "t": 183530.7905875003,
      "d": 140.44110624998575,
      "v": 71
    },
    {
      "midi": 89,
      "hit": false,
      "t": 183705.79050000044,
      "d": 66.91173125000205,
      "v": 86
    },
    {
      "midi": 96,
      "hit": false,
      "t": 183705.79050000044,
      "d": 66.91173125000205,
      "v": 77
    },
    {
      "midi": 65,
      "hit": false,
      "t": 183880.0551187503,
      "d": 130.88228749998962,
      "v": 86
    },
    {
      "midi": 56,
      "hit": false,
      "t": 183880.0551187503,
      "d": 133.0881687499932,
      "v": 77
    },
    {
      "midi": 60,
      "hit": false,
      "t": 183880.0551187503,
      "d": 140.44110624998575,
      "v": 90
    },
    {
      "midi": 68,
      "hit": false,
      "t": 183880.0551187503,
      "d": 140.44110624998575,
      "v": 73
    },
    {
      "midi": 72,
      "hit": false,
      "t": 183882.2610000003,
      "d": 140.44110624998575,
      "v": 58
    },
    {
      "midi": 96,
      "hit": false,
      "t": 183882.26100000044,
      "d": 81.61760625001625,
      "v": 86
    },
    {
      "midi": 89,
      "hit": false,
      "t": 183902.11393125044,
      "d": 70.58820000002743,
      "v": 94
    },
    {
      "midi": 89,
      "hit": false,
      "t": 184073.43737500047,
      "d": 74.2646687499946,
      "v": 86
    },
    {
      "midi": 96,
      "hit": false,
      "t": 184074.90796250047,
      "d": 81.61760625001625,
      "v": 81
    },
    {
      "midi": 89,
      "hit": false,
      "t": 184244.02552500047,
      "d": 83.08819375000894,
      "v": 97
    },
    {
      "midi": 96,
      "hit": false,
      "t": 184247.70199375047,
      "d": 79.41172500001267,
      "v": 94
    },
    {
      "midi": 72,
      "hit": false,
      "t": 184409.46661875027,
      "d": 99.99994999999763,
      "v": 61
    },
    {
      "midi": 68,
      "hit": false,
      "t": 184409.46661875027,
      "d": 140.44110624998575,
      "v": 76
    },
    {
      "midi": 56,
      "hit": false,
      "t": 184411.67250000028,
      "d": 108.82347499998286,
      "v": 75
    },
    {
      "midi": 60,
      "hit": false,
      "t": 184411.67250000028,
      "d": 122.05876249997527,
      "v": 89
    },
    {
      "midi": 65,
      "hit": false,
      "t": 184411.67250000028,
      "d": 136.76463749998948,
      "v": 80
    },
    {
      "midi": 89,
      "hit": false,
      "t": 184419.02543750047,
      "d": 122.05876249997527,
      "v": 88
    },
    {
      "midi": 96,
      "hit": false,
      "t": 184422.70190625047,
      "d": 107.35288749999017,
      "v": 86
    },
    {
      "midi": 89,
      "hit": false,
      "t": 184768.28996875044,
      "d": 101.47053749999031,
      "v": 88
    },
    {
      "midi": 96,
      "hit": false,
      "t": 184771.96643750044,
      "d": 86.76466250000522,
      "v": 94
    },
    {
      "midi": 67,
      "hit": false,
      "t": 184938.87811875026,
      "d": 140.44110624998575,
      "v": 77
    },
    {
      "midi": 70,
      "hit": false,
      "t": 184938.87811875026,
      "d": 140.44110624998575,
      "v": 57
    },
    {
      "midi": 65,
      "hit": false,
      "t": 184941.08400000026,
      "d": 123.52934999999707,
      "v": 81
    },
    {
      "midi": 62,
      "hit": false,
      "t": 184941.08400000026,
      "d": 127.20581874999334,
      "v": 94
    },
    {
      "midi": 58,
      "hit": false,
      "t": 184941.08400000026,
      "d": 130.88228749998962,
      "v": 78
    },
    {
      "midi": 89,
      "hit": false,
      "t": 185132.26037500042,
      "d": 70.58819999999832,
      "v": 83
    },
    {
      "midi": 96,
      "hit": false,
      "t": 185133.7309625004,
      "d": 63.235262500005774,
      "v": 86
    },
    {
      "midi": 89,
      "hit": false,
      "t": 185301.37793750042,
      "d": 86.76466250000522,
      "v": 94
    },
    {
      "midi": 96,
      "hit": false,
      "t": 185302.84852500042,
      "d": 88.9705437500088,
      "v": 91
    },
    {
      "midi": 58,
      "hit": false,
      "t": 185470.49550000025,
      "d": 114.70582499998272,
      "v": 76
    },
    {
      "midi": 70,
      "hit": false,
      "t": 185470.49550000025,
      "d": 140.44110624995665,
      "v": 70
    },
    {
      "midi": 62,
      "hit": false,
      "t": 185471.96608750024,
      "d": 118.382293749979,
      "v": 91
    },
    {
      "midi": 65,
      "hit": false,
      "t": 185471.96608750024,
      "d": 119.85288124997169,
      "v": 77
    },
    {
      "midi": 67,
      "hit": false,
      "t": 185474.17196875025,
      "d": 138.23522499995306,
      "v": 75
    },
    {
      "midi": 89,
      "hit": false,
      "t": 185657.9954062504,
      "d": 79.41172499998356,
      "v": 91
    },
    {
      "midi": 96,
      "hit": false,
      "t": 185661.6718750004,
      "d": 72.05878749999101,
      "v": 91
    },
    {
      "midi": 89,
      "hit": false,
      "t": 185830.78943750038,
      "d": 90.44113125000149,
      "v": 88
    },
    {
      "midi": 96,
      "hit": false,
      "t": 185834.46590625038,
      "d": 88.9705437500088,
      "v": 83
    },
    {
      "midi": 70,
      "hit": false,
      "t": 185999.9070000002,
      "d": 90.44113125000149,
      "v": 83
    },
    {
      "midi": 62,
      "hit": false,
      "t": 185999.9070000002,
      "d": 111.02935625001555,
      "v": 91
    },
    {
      "midi": 65,
      "hit": false,
      "t": 185999.9070000002,
      "d": 123.52935000002617,
      "v": 81
    },
    {
      "midi": 58,
      "hit": false,
      "t": 185999.9070000002,
      "d": 138.23522500004037,
      "v": 70
    },
    {
      "midi": 67,
      "hit": false,
      "t": 185999.9070000002,
      "d": 140.44110625004396,
      "v": 83
    },
    {
      "midi": 96,
      "hit": false,
      "t": 186176.37750000038,
      "d": 83.08819375000894,
      "v": 101
    },
    {
      "midi": 89,
      "hit": false,
      "t": 186185.2010250004,
      "d": 86.76466250000522,
      "v": 97
    },
    {
      "midi": 72,
      "hit": false,
      "t": 186352.84800000026,
      "d": 114.70582499998272,
      "v": 58
    },
    {
      "midi": 56,
      "hit": false,
      "t": 186352.84800000026,
      "d": 119.85288124997169,
      "v": 70
    },
    {
      "midi": 60,
      "hit": false,
      "t": 186352.84800000026,
      "d": 123.52934999996796,
      "v": 76
    },
    {
      "midi": 65,
      "hit": false,
      "t": 186352.84800000026,
      "d": 133.0881687499641,
      "v": 88
    },
    {
      "midi": 84,
      "hit": false,
      "t": 186352.8480000004,
      "d": 0.7352937500108965,
      "v": 98
    },
    {
      "midi": 68,
      "hit": false,
      "t": 186354.31858750025,
      "d": 140.44110624998575,
      "v": 76
    },
    {
      "midi": 80,
      "hit": false,
      "t": 186354.31858750043,
      "d": 96.32348125000135,
      "v": 85
    },
    {
      "midi": 80,
      "hit": false,
      "t": 186534.46555625042,
      "d": 75.73525624998729,
      "v": 63
    },
    {
      "midi": 84,
      "hit": false,
      "t": 186541.8184937504,
      "d": 46.323506249987986,
      "v": 58
    },
    {
      "midi": 65,
      "hit": false,
      "t": 186703.58311875025,
      "d": 145.58816250003292,
      "v": 79
    },
    {
      "midi": 60,
      "hit": false,
      "t": 186703.58311875025,
      "d": 147.7940437500365,
      "v": 88
    },
    {
      "midi": 56,
      "hit": false,
      "t": 186703.58311875025,
      "d": 151.47051250003278,
      "v": 75
    },
    {
      "midi": 68,
      "hit": false,
      "t": 186705.78900000025,
      "d": 138.23522500001127,
      "v": 71
    },
    {
      "midi": 72,
      "hit": false,
      "t": 186705.78900000025,
      "d": 140.44110625001485,
      "v": 58
    },
    {
      "midi": 80,
      "hit": false,
      "t": 186705.7890000004,
      "d": 74.2646687499946,
      "v": 61
    },
    {
      "midi": 84,
      "hit": false,
      "t": 186707.2595875004,
      "d": 75.73525625001639,
      "v": 65
    },
    {
      "midi": 80,
      "hit": false,
      "t": 186893.2889062504,
      "d": 77.94113749999087,
      "v": 81
    },
    {
      "midi": 84,
      "hit": false,
      "t": 186894.7594937504,
      "d": 92.64701250000508,
      "v": 98
    },
    {
      "midi": 80,
      "hit": false,
      "t": 187069.7594062504,
      "d": 63.235262500005774,
      "v": 73
    },
    {
      "midi": 84,
      "hit": false,
      "t": 187071.2299937504,
      "d": 63.235262500005774,
      "v": 73
    },
    {
      "midi": 68,
      "hit": false,
      "t": 187231.52403125027,
      "d": 138.23522499998217,
      "v": 73
    },
    {
      "midi": 72,
      "hit": false,
      "t": 187232.99461875026,
      "d": 99.99994999999763,
      "v": 61
    },
    {
      "midi": 60,
      "hit": false,
      "t": 187235.20050000027,
      "d": 97.79406874999404,
      "v": 86
    },
    {
      "midi": 56,
      "hit": false,
      "t": 187235.20050000027,
      "d": 107.35288749999017,
      "v": 72
    },
    {
      "midi": 65,
      "hit": false,
      "t": 187235.20050000027,
      "d": 118.382293749979,
      "v": 86
    },
    {
      "midi": 80,
      "hit": false,
      "t": 187244.0240250004,
      "d": 63.235262500005774,
      "v": 63
    },
    {
      "midi": 84,
      "hit": false,
      "t": 187247.7004937504,
      "d": 59.5587937500095,
      "v": 60
    },
    {
      "midi": 80,
      "hit": false,
      "t": 187422.7004062504,
      "d": 85.29407499998342,
      "v": 81
    },
    {
      "midi": 84,
      "hit": false,
      "t": 187424.1709937504,
      "d": 96.32348125000135,
      "v": 94
    },
    {
      "midi": 80,
      "hit": false,
      "t": 187600.6414937504,
      "d": 66.91173125000205,
      "v": 73
    },
    {
      "midi": 84,
      "hit": false,
      "t": 187602.8473750004,
      "d": 64.70584999999846,
      "v": 71
    },
    {
      "midi": 62,
      "hit": false,
      "t": 187762.40611875025,
      "d": 140.44110625001485,
      "v": 91
    },
    {
      "midi": 70,
      "hit": false,
      "t": 187762.40611875025,
      "d": 140.44110625001485,
      "v": 57
    },
    {
      "midi": 67,
      "hit": false,
      "t": 187762.40611875025,
      "d": 151.47051250000368,
      "v": 79
    },
    {
      "midi": 58,
      "hit": false,
      "t": 187764.61200000026,
      "d": 144.11757500001113,
      "v": 71
    },
    {
      "midi": 80,
      "hit": false,
      "t": 187773.4355250004,
      "d": 83.08819375000894,
      "v": 90
    },
    {
      "midi": 84,
      "hit": false,
      "t": 187777.11199375038,
      "d": 88.9705437500088,
      "v": 98
    },
    {
      "midi": 80,
      "hit": false,
      "t": 187949.90602500038,
      "d": 70.58819999999832,
      "v": 73
    },
    {
      "midi": 84,
      "hit": false,
      "t": 187955.78837500038,
      "d": 63.235262500005774,
      "v": 67
    },
    {
      "midi": 80,
      "hit": false,
      "t": 188119.0235875004,
      "d": 64.70584999999846,
      "v": 61
    },
    {
      "midi": 84,
      "hit": false,
      "t": 188119.0235875004,
      "d": 75.73525624998729,
      "v": 67
    },
    {
      "midi": 58,
      "hit": false,
      "t": 188294.02350000024,
      "d": 140.44110624998575,
      "v": 68
    },
    {
      "midi": 62,
      "hit": false,
      "t": 188294.02350000024,
      "d": 140.44110624998575,
      "v": 85
    },
    {
      "midi": 67,
      "hit": false,
      "t": 188294.02350000024,
      "d": 140.44110624998575,
      "v": 77
    },
    {
      "midi": 70,
      "hit": false,
      "t": 188294.02350000024,
      "d": 140.44110624998575,
      "v": 72
    },
    {
      "midi": 80,
      "hit": false,
      "t": 188294.02350000036,
      "d": 86.76466250000522,
      "v": 77
    },
    {
      "midi": 84,
      "hit": false,
      "t": 188294.02350000036,
      "d": 99.99994999999763,
      "v": 76
    },
    {
      "midi": 80,
      "hit": false,
      "t": 188474.17046875035,
      "d": 70.58819999999832,
      "v": 81
    },
    {
      "midi": 84,
      "hit": false,
      "t": 188477.84693750035,
      "d": 68.38231874999474,
      "v": 76
    },
    {
      "midi": 80,
      "hit": false,
      "t": 188650.64096875035,
      "d": 64.70584999999846,
      "v": 73
    },
    {
      "midi": 84,
      "hit": false,
      "t": 188650.64096875035,
      "d": 75.73525624998729,
      "v": 71
    },
    {
      "midi": 67,
      "hit": false,
      "t": 188819.75853125023,
      "d": 147.7940437500074,
      "v": 77
    },
    {
      "midi": 58,
      "hit": false,
      "t": 188821.22911875023,
      "d": 136.76463750001858,
      "v": 73
    },
    {
      "midi": 62,
      "hit": false,
      "t": 188821.22911875023,
      "d": 138.23522500001127,
      "v": 88
    },
    {
      "midi": 80,
      "hit": false,
      "t": 188821.22911875034,
      "d": 75.73525624998729,
      "v": 81
    },
    {
      "midi": 70,
      "hit": false,
      "t": 188823.43500000023,
      "d": 90.44113125000149,
      "v": 79
    },
    {
      "midi": 84,
      "hit": false,
      "t": 188830.78793750034,
      "d": 70.58819999999832,
      "v": 87
    },
    {
      "midi": 80,
      "hit": false,
      "t": 188994.02315000034,
      "d": 74.2646687499946,
      "v": 85
    },
    {
      "midi": 84,
      "hit": false,
      "t": 188997.69961875034,
      "d": 70.58819999999832,
      "v": 87
    },
    {
      "midi": 72,
      "hit": false,
      "t": 189176.37600000025,
      "d": 114.70582499998272,
      "v": 58
    },
    {
      "midi": 56,
      "hit": false,
      "t": 189176.37600000025,
      "d": 130.88228749998962,
      "v": 83
    },
    {
      "midi": 60,
      "hit": false,
      "t": 189176.37600000025,
      "d": 133.0881687499932,
      "v": 88
    },
    {
      "midi": 65,
      "hit": false,
      "t": 189176.37600000025,
      "d": 134.5587562499859,
      "v": 75
    },
    {
      "midi": 68,
      "hit": false,
      "t": 189177.84658750024,
      "d": 140.44110624998575,
      "v": 71
    },
    {
      "midi": 89,
      "hit": false,
      "t": 189183.72893750033,
      "d": 105.14700624998659,
      "v": 108
    },
    {
      "midi": 96,
      "hit": false,
      "t": 189183.72893750033,
      "d": 127.20581874999334,
      "v": 101
    },
    {
      "midi": 65,
      "hit": false,
      "t": 189527.11111875024,
      "d": 130.88228749998962,
      "v": 86
    },
    {
      "midi": 56,
      "hit": false,
      "t": 189527.11111875024,
      "d": 133.0881687499932,
      "v": 77
    },
    {
      "midi": 60,
      "hit": false,
      "t": 189527.11111875024,
      "d": 140.44110624998575,
      "v": 90
    },
    {
      "midi": 68,
      "hit": false,
      "t": 189527.11111875024,
      "d": 140.44110624998575,
      "v": 73
    },
    {
      "midi": 72,
      "hit": false,
      "t": 189529.31700000024,
      "d": 140.44110624998575,
      "v": 58
    },
    {
      "midi": 89,
      "hit": false,
      "t": 189544.02287500032,
      "d": 99.99994999996852,
      "v": 101
    },
    {
      "midi": 96,
      "hit": false,
      "t": 189545.4934625003,
      "d": 81.61760624998715,
      "v": 104
    }
  ]
}