{
  "jsonPath": "Pop/Dance Pop/Rupaul/lets-turn-the-night-matt-moss-vidon-remix.json",
  "path": "Pop\\Dance Pop\\Rupaul\\Lets Turn the Night (Matt Moss Vidon Remix).mid",
  "name": "Lets Turn the Night (Matt Moss Vidon Remix)",
  "difficulty": "Advanced",
  "bpm": 125,
  "notes": [
    {
      "midi": 39,
      "hit": false,
      "t": 3860,
      "d": 652,
      "v": 68
    },
    {
      "midi": 75,
      "hit": false,
      "t": 3860,
      "d": 864,
      "v": 48
    },
    {
      "midi": 70,
      "hit": false,
      "t": 3864,
      "d": 840,
      "v": 61
    },
    {
      "midi": 51,
      "hit": false,
      "t": 3864,
      "d": 1676,
      "v": 46
    },
    {
      "midi": 61,
      "hit": false,
      "t": 3868,
      "d": 544,
      "v": 37
    },
    {
      "midi": 67,
      "hit": false,
      "t": 3868,
      "d": 780,
      "v": 43
    },
    {
      "midi": 61,
      "hit": false,
      "t": 4564,
      "d": 964,
      "v": 60
    },
    {
      "midi": 34,
      "hit": false,
      "t": 4572,
      "d": 52,
      "v": 59
    },
    {
      "midi": 36,
      "hit": false,
      "t": 4668,
      "d": 80,
      "v": 82
    },
    {
      "midi": 39,
      "hit": false,
      "t": 4808,
      "d": 572,
      "v": 78
    },
    {
      "midi": 67,
      "hit": false,
      "t": 5036,
      "d": 448,
      "v": 41
    },
    {
      "midi": 75,
      "hit": false,
      "t": 5264,
      "d": 208,
      "v": 85
    },
    {
      "midi": 70,
      "hit": false,
      "t": 5268,
      "d": 212,
      "v": 59
    },
    {
      "midi": 39,
      "hit": false,
      "t": 5508,
      "d": 88,
      "v": 58
    },
    {
      "midi": 44,
      "hit": false,
      "t": 5760,
      "d": 616,
      "v": 37
    },
    {
      "midi": 66,
      "hit": false,
      "t": 5760,
      "d": 676,
      "v": 58
    },
    {
      "midi": 63,
      "hit": false,
      "t": 5760,
      "d": 704,
      "v": 47
    },
    {
      "midi": 68,
      "hit": false,
      "t": 5760,
      "d": 716,
      "v": 51
    },
    {
      "midi": 60,
      "hit": false,
      "t": 5760,
      "d": 736,
      "v": 43
    },
    {
      "midi": 44,
      "hit": false,
      "t": 5772,
      "d": 596,
      "v": 70
    },
    {
      "midi": 44,
      "hit": false,
      "t": 6488,
      "d": 108,
      "v": 58
    },
    {
      "midi": 44,
      "hit": false,
      "t": 6488,
      "d": 372,
      "v": 55
    },
    {
      "midi": 68,
      "hit": false,
      "t": 6712,
      "d": 236,
      "v": 60
    },
    {
      "midi": 60,
      "hit": false,
      "t": 6712,
      "d": 252,
      "v": 52
    },
    {
      "midi": 63,
      "hit": false,
      "t": 6720,
      "d": 236,
      "v": 68
    },
    {
      "midi": 66,
      "hit": false,
      "t": 6724,
      "d": 224,
      "v": 60
    },
    {
      "midi": 44,
      "hit": false,
      "t": 6732,
      "d": 608,
      "v": 64
    },
    {
      "midi": 44,
      "hit": false,
      "t": 7108,
      "d": 40,
      "v": 41
    },
    {
      "midi": 68,
      "hit": false,
      "t": 7180,
      "d": 204,
      "v": 80
    },
    {
      "midi": 66,
      "hit": false,
      "t": 7184,
      "d": 204,
      "v": 82
    },
    {
      "midi": 60,
      "hit": false,
      "t": 7188,
      "d": 212,
      "v": 68
    },
    {
      "midi": 63,
      "hit": false,
      "t": 7188,
      "d": 212,
      "v": 82
    },
    {
      "midi": 44,
      "hit": false,
      "t": 7440,
      "d": 120,
      "v": 68
    },
    {
      "midi": 44,
      "hit": false,
      "t": 7680,
      "d": 600,
      "v": 72
    },
    {
      "midi": 80,
      "hit": false,
      "t": 7700,
      "d": 864,
      "v": 48
    },
    {
      "midi": 75,
      "hit": false,
      "t": 7704,
      "d": 840,
      "v": 61
    },
    {
      "midi": 44,
      "hit": false,
      "t": 7704,
      "d": 1676,
      "v": 46
    },
    {
      "midi": 66,
      "hit": false,
      "t": 7708,
      "d": 544,
      "v": 37
    },
    {
      "midi": 71,
      "hit": false,
      "t": 7708,
      "d": 780,
      "v": 43
    },
    {
      "midi": 44,
      "hit": false,
      "t": 8396,
      "d": 76,
      "v": 62
    },
    {
      "midi": 66,
      "hit": false,
      "t": 8404,
      "d": 964,
      "v": 60
    },
    {
      "midi": 44,
      "hit": false,
      "t": 8636,
      "d": 84,
      "v": 52
    },
    {
      "midi": 71,
      "hit": false,
      "t": 8876,
      "d": 448,
      "v": 41
    },
    {
      "midi": 44,
      "hit": false,
      "t": 8880,
      "d": 384,
      "v": 61
    },
    {
      "midi": 80,
      "hit": false,
      "t": 9104,
      "d": 208,
      "v": 85
    },
    {
      "midi": 75,
      "hit": false,
      "t": 9108,
      "d": 212,
      "v": 59
    },
    {
      "midi": 44,
      "hit": false,
      "t": 9376,
      "d": 144,
      "v": 68
    },
    {
      "midi": 48,
      "hit": false,
      "t": 9600,
      "d": 616,
      "v": 37
    },
    {
      "midi": 64,
      "hit": false,
      "t": 9600,
      "d": 676,
      "v": 58
    },
    {
      "midi": 62,
      "hit": false,
      "t": 9600,
      "d": 704,
      "v": 47
    },
    {
      "midi": 67,
      "hit": false,
      "t": 9600,
      "d": 716,
      "v": 51
    },
    {
      "midi": 58,
      "hit": false,
      "t": 9600,
      "d": 736,
      "v": 43
    },
    {
      "midi": 36,
      "hit": false,
      "t": 9608,
      "d": 1472,
      "v": 24
    },
    {
      "midi": 36,
      "hit": false,
      "t": 9620,
      "d": 652,
      "v": 68
    },
    {
      "midi": 48,
      "hit": false,
      "t": 10328,
      "d": 372,
      "v": 55
    },
    {
      "midi": 31,
      "hit": false,
      "t": 10332,
      "d": 52,
      "v": 59
    },
    {
      "midi": 33,
      "hit": false,
      "t": 10428,
      "d": 80,
      "v": 82
    },
    {
      "midi": 67,
      "hit": false,
      "t": 10552,
      "d": 236,
      "v": 60
    },
    {
      "midi": 58,
      "hit": false,
      "t": 10552,
      "d": 252,
      "v": 52
    },
    {
      "midi": 62,
      "hit": false,
      "t": 10560,
      "d": 236,
      "v": 68
    },
    {
      "midi": 64,
      "hit": false,
      "t": 10564,
      "d": 224,
      "v": 60
    },
    {
      "midi": 36,
      "hit": false,
      "t": 10568,
      "d": 572,
      "v": 78
    },
    {
      "midi": 48,
      "hit": false,
      "t": 10948,
      "d": 40,
      "v": 41
    },
    {
      "midi": 67,
      "hit": false,
      "t": 11020,
      "d": 204,
      "v": 80
    },
    {
      "midi": 64,
      "hit": false,
      "t": 11024,
      "d": 204,
      "v": 82
    },
    {
      "midi": 58,
      "hit": false,
      "t": 11028,
      "d": 212,
      "v": 68
    },
    {
      "midi": 62,
      "hit": false,
      "t": 11028,
      "d": 212,
      "v": 82
    },
    {
      "midi": 36,
      "hit": false,
      "t": 11268,
      "d": 88,
      "v": 58
    },
    {
      "midi": 41,
      "hit": false,
      "t": 11520,
      "d": 600,
      "v": 72
    },
    {
      "midi": 65,
      "hit": false,
      "t": 11520,
      "d": 1804,
      "v": 53
    },
    {
      "midi": 72,
      "hit": false,
      "t": 11520,
      "d": 1812,
      "v": 53
    },
    {
      "midi": 77,
      "hit": false,
      "t": 11520,
      "d": 1812,
      "v": 53
    },
    {
      "midi": 57,
      "hit": false,
      "t": 11520,
      "d": 1820,
      "v": 46
    },
    {
      "midi": 81,
      "hit": false,
      "t": 11560,
      "d": 1772,
      "v": 59
    },
    {
      "midi": 41,
      "hit": false,
      "t": 12236,
      "d": 76,
      "v": 62
    },
    {
      "midi": 41,
      "hit": false,
      "t": 12476,
      "d": 84,
      "v": 52
    },
    {
      "midi": 41,
      "hit": false,
      "t": 12720,
      "d": 384,
      "v": 61
    },
    {
      "midi": 41,
      "hit": false,
      "t": 13216,
      "d": 144,
      "v": 68
    },
    {
      "midi": 67,
      "hit": false,
      "t": 13440,
      "d": 156,
      "v": 39
    },
    {
      "midi": 71,
      "hit": false,
      "t": 13440,
      "d": 276,
      "v": 47
    },
    {
      "midi": 74,
      "hit": false,
      "t": 13440,
      "d": 308,
      "v": 62
    },
    {
      "midi": 79,
      "hit": false,
      "t": 13444,
      "d": 312,
      "v": 58
    },
    {
      "midi": 59,
      "hit": false,
      "t": 13448,
      "d": 1548,
      "v": 52
    },
    {
      "midi": 43,
      "hit": false,
      "t": 13452,
      "d": 596,
      "v": 70
    },
    {
      "midi": 43,
      "hit": false,
      "t": 13464,
      "d": 1676,
      "v": 50
    },
    {
      "midi": 67,
      "hit": false,
      "t": 13688,
      "d": 572,
      "v": 26
    },
    {
      "midi": 71,
      "hit": false,
      "t": 13920,
      "d": 200,
      "v": 47
    },
    {
      "midi": 43,
      "hit": false,
      "t": 14168,
      "d": 108,
      "v": 58
    },
    {
      "midi": 74,
      "hit": false,
      "t": 14180,
      "d": 84,
      "v": 25
    },
    {
      "midi": 79,
      "hit": false,
      "t": 14392,
      "d": 68,
      "v": 54
    },
    {
      "midi": 43,
      "hit": false,
      "t": 14412,
      "d": 608,
      "v": 64
    },
    {
      "midi": 83,
      "hit": false,
      "t": 14652,
      "d": 216,
      "v": 60
    },
    {
      "midi": 67,
      "hit": false,
      "t": 14820,
      "d": 128,
      "v": 44
    },
    {
      "midi": 86,
      "hit": false,
      "t": 14876,
      "d": 96,
      "v": 85
    },
    {
      "midi": 83,
      "hit": false,
      "t": 14992,
      "d": 112,
      "v": 70
    },
    {
      "midi": 43,
      "hit": false,
      "t": 15120,
      "d": 120,
      "v": 68
    },
    {
      "midi": 79,
      "hit": false,
      "t": 15120,
      "d": 96,
      "v": 58
    },
    {
      "midi": 74,
      "hit": false,
      "t": 15260,
      "d": 28,
      "v": 36
    },
    {
      "midi": 36,
      "hit": false,
      "t": 15360,
      "d": 620,
      "v": 70
    },
    {
      "midi": 67,
      "hit": false,
      "t": 15372,
      "d": 284,
      "v": 47
    },
    {
      "midi": 48,
      "hit": false,
      "t": 15372,
      "d": 1464,
      "v": 36
    },
    {
      "midi": 60,
      "hit": false,
      "t": 15376,
      "d": 280,
      "v": 57
    },
    {
      "midi": 36,
      "hit": false,
      "t": 15376,
      "d": 3632,
      "v": 42
    },
    {
      "midi": 64,
      "hit": false,
      "t": 15380,
      "d": 264,
      "v": 62
    },
    {
      "midi": 59,
      "hit": false,
      "t": 15380,
      "d": 276,
      "v": 39
    },
    {
      "midi": 36,
      "hit": false,
      "t": 16088,
      "d": 72,
      "v": 82
    },
    {
      "midi": 79,
      "hit": false,
      "t": 16212,
      "d": 184,
      "v": 50
    },
    {
      "midi": 76,
      "hit": false,
      "t": 16256,
      "d": 180,
      "v": 51
    },
    {
      "midi": 74,
      "hit": false,
      "t": 16284,
      "d": 192,
      "v": 64
    },
    {
      "midi": 36,
      "hit": false,
      "t": 16328,
      "d": 592,
      "v": 82
    },
    {
      "midi": 71,
      "hit": false,
      "t": 16340,
      "d": 132,
      "v": 82
    },
    {
      "midi": 36,
      "hit": false,
      "t": 17028,
      "d": 68,
      "v": 60
    },
    {
      "midi": 67,
      "hit": false,
      "t": 17100,
      "d": 548,
      "v": 27
    },
    {
      "midi": 64,
      "hit": false,
      "t": 17132,
      "d": 528,
      "v": 45
    },
    {
      "midi": 60,
      "hit": false,
      "t": 17196,
      "d": 480,
      "v": 51
    },
    {
      "midi": 59,
      "hit": false,
      "t": 17260,
      "d": 428,
      "v": 78
    },
    {
      "midi": 36,
      "hit": false,
      "t": 17268,
      "d": 872,
      "v": 63
    },
    {
      "midi": 48,
      "hit": false,
      "t": 17288,
      "d": 436,
      "v": 41
    },
    {
      "midi": 48,
      "hit": false,
      "t": 18008,
      "d": 400,
      "v": 66
    },
    {
      "midi": 31,
      "hit": false,
      "t": 18136,
      "d": 88,
      "v": 42
    },
    {
      "midi": 36,
      "hit": false,
      "t": 18232,
      "d": 84,
      "v": 78
    },
    {
      "midi": 55,
      "hit": false,
      "t": 18240,
      "d": 316,
      "v": 60
    },
    {
      "midi": 60,
      "hit": false,
      "t": 18248,
      "d": 484,
      "v": 62
    },
    {
      "midi": 64,
      "hit": false,
      "t": 18252,
      "d": 476,
      "v": 60
    },
    {
      "midi": 59,
      "hit": false,
      "t": 18252,
      "d": 536,
      "v": 60
    },
    {
      "midi": 48,
      "hit": false,
      "t": 18484,
      "d": 536,
      "v": 80
    },
    {
      "midi": 36,
      "hit": false,
      "t": 18500,
      "d": 328,
      "v": 78
    },
    {
      "midi": 55,
      "hit": false,
      "t": 18732,
      "d": 288,
      "v": 87
    },
    {
      "midi": 36,
      "hit": false,
      "t": 18968,
      "d": 132,
      "v": 78
    },
    {
      "midi": 59,
      "hit": false,
      "t": 18984,
      "d": 60,
      "v": 62
    },
    {
      "midi": 50,
      "hit": false,
      "t": 19200,
      "d": 616,
      "v": 37
    },
    {
      "midi": 65,
      "hit": false,
      "t": 19200,
      "d": 676,
      "v": 58
    },
    {
      "midi": 62,
      "hit": false,
      "t": 19200,
      "d": 704,
      "v": 47
    },
    {
      "midi": 69,
      "hit": false,
      "t": 19200,
      "d": 716,
      "v": 51
    },
    {
      "midi": 57,
      "hit": false,
      "t": 19200,
      "d": 736,
      "v": 43
    },
    {
      "midi": 38,
      "hit": false,
      "t": 19208,
      "d": 1472,
      "v": 24
    },
    {
      "midi": 38,
      "hit": false,
      "t": 19220,
      "d": 652,
      "v": 68
    },
    {
      "midi": 50,
      "hit": false,
      "t": 19928,
      "d": 372,
      "v": 55
    },
    {
      "midi": 33,
      "hit": false,
      "t": 19932,
      "d": 52,
      "v": 59
    },
    {
      "midi": 35,
      "hit": false,
      "t": 20028,
      "d": 80,
      "v": 82
    },
    {
      "midi": 69,
      "hit": false,
      "t": 20152,
      "d": 236,
      "v": 60
    },
    {
      "midi": 57,
      "hit": false,
      "t": 20152,
      "d": 252,
      "v": 52
    },
    {
      "midi": 62,
      "hit": false,
      "t": 20160,
      "d": 236,
      "v": 68
    },
    {
      "midi": 65,
      "hit": false,
      "t": 20164,
      "d": 224,
      "v": 60
    },
    {
      "midi": 38,
      "hit": false,
      "t": 20168,
      "d": 572,
      "v": 78
    },
    {
      "midi": 50,
      "hit": false,
      "t": 20548,
      "d": 40,
      "v": 41
    },
    {
      "midi": 69,
      "hit": false,
      "t": 20620,
      "d": 204,
      "v": 80
    },
    {
      "midi": 65,
      "hit": false,
      "t": 20624,
      "d": 204,
      "v": 82
    },
    {
      "midi": 57,
      "hit": false,
      "t": 20628,
      "d": 212,
      "v": 68
    },
    {
      "midi": 62,
      "hit": false,
      "t": 20628,
      "d": 212,
      "v": 82
    },
    {
      "midi": 38,
      "hit": false,
      "t": 20868,
      "d": 88,
      "v": 58
    },
    {
      "midi": 43,
      "hit": false,
      "t": 21140,
      "d": 652,
      "v": 68
    },
    {
      "midi": 79,
      "hit": false,
      "t": 21140,
      "d": 864,
      "v": 48
    },
    {
      "midi": 74,
      "hit": false,
      "t": 21144,
      "d": 840,
      "v": 61
    },
    {
      "midi": 43,
      "hit": false,
      "t": 21144,
      "d": 1676,
      "v": 46
    },
    {
      "midi": 67,
      "hit": false,
      "t": 21148,
      "d": 544,
      "v": 37
    },
    {
      "midi": 71,
      "hit": false,
      "t": 21148,
      "d": 780,
      "v": 43
    },
    {
      "midi": 67,
      "hit": false,
      "t": 21844,
      "d": 964,
      "v": 60
    },
    {
      "midi": 38,
      "hit": false,
      "t": 21852,
      "d": 52,
      "v": 59
    },
    {
      "midi": 40,
      "hit": false,
      "t": 21948,
      "d": 80,
      "v": 82
    },
    {
      "midi": 43,
      "hit": false,
      "t": 22088,
      "d": 572,
      "v": 78
    },
    {
      "midi": 71,
      "hit": false,
      "t": 22316,
      "d": 448,
      "v": 41
    },
    {
      "midi": 79,
      "hit": false,
      "t": 22544,
      "d": 208,
      "v": 85
    },
    {
      "midi": 74,
      "hit": false,
      "t": 22548,
      "d": 212,
      "v": 59
    },
    {
      "midi": 43,
      "hit": false,
      "t": 22788,
      "d": 88,
      "v": 58
    },
    {
      "midi": 60,
      "hit": false,
      "t": 23048,
      "d": 488,
      "v": 68
    },
    {
      "midi": 64,
      "hit": false,
      "t": 23048,
      "d": 524,
      "v": 53
    },
    {
      "midi": 55,
      "hit": false,
      "t": 23052,
      "d": 420,
      "v": 53
    },
    {
      "midi": 48,
      "hit": false,
      "t": 23052,
      "d": 1840,
      "v": 52
    },
    {
      "midi": 36,
      "hit": false,
      "t": 23056,
      "d": 584,
      "v": 85
    },
    {
      "midi": 36,
      "hit": false,
      "t": 23308,
      "d": 3172,
      "v": 53
    },
    {
      "midi": 55,
      "hit": false,
      "t": 23536,
      "d": 920,
      "v": 52
    },
    {
      "midi": 36,
      "hit": false,
      "t": 23768,
      "d": 84,
      "v": 62
    },
    {
      "midi": 60,
      "hit": false,
      "t": 23772,
      "d": 636,
      "v": 68
    },
    {
      "midi": 64,
      "hit": false,
      "t": 23780,
      "d": 624,
      "v": 55
    },
    {
      "midi": 36,
      "hit": false,
      "t": 24012,
      "d": 616,
      "v": 72
    },
    {
      "midi": 55,
      "hit": false,
      "t": 24624,
      "d": 1452,
      "v": 64
    },
    {
      "midi": 60,
      "hit": false,
      "t": 24740,
      "d": 516,
      "v": 66
    },
    {
      "midi": 36,
      "hit": false,
      "t": 24752,
      "d": 76,
      "v": 76
    },
    {
      "midi": 64,
      "hit": false,
      "t": 24976,
      "d": 276,
      "v": 64
    },
    {
      "midi": 48,
      "hit": false,
      "t": 24980,
      "d": 984,
      "v": 55
    },
    {
      "midi": 36,
      "hit": false,
      "t": 24984,
      "d": 620,
      "v": 87
    },
    {
      "midi": 60,
      "hit": false,
      "t": 25416,
      "d": 640,
      "v": 51
    },
    {
      "midi": 64,
      "hit": false,
      "t": 25676,
      "d": 360,
      "v": 63
    },
    {
      "midi": 36,
      "hit": false,
      "t": 25704,
      "d": 84,
      "v": 74
    },
    {
      "midi": 36,
      "hit": false,
      "t": 25932,
      "d": 700,
      "v": 82
    },
    {
      "midi": 48,
      "hit": false,
      "t": 26164,
      "d": 336,
      "v": 80
    },
    {
      "midi": 60,
      "hit": false,
      "t": 26408,
      "d": 316,
      "v": 72
    },
    {
      "midi": 55,
      "hit": false,
      "t": 26412,
      "d": 320,
      "v": 60
    },
    {
      "midi": 64,
      "hit": false,
      "t": 26416,
      "d": 312,
      "v": 58
    },
    {
      "midi": 31,
      "hit": false,
      "t": 26640,
      "d": 88,
      "v": 66
    },
    {
      "midi": 33,
      "hit": false,
      "t": 26748,
      "d": 108,
      "v": 68
    },
    {
      "midi": 41,
      "hit": false,
      "t": 26880,
      "d": 600,
      "v": 72
    },
    {
      "midi": 53,
      "hit": false,
      "t": 26892,
      "d": 936,
      "v": 44
    },
    {
      "midi": 62,
      "hit": false,
      "t": 26900,
      "d": 360,
      "v": 37
    },
    {
      "midi": 65,
      "hit": false,
      "t": 26904,
      "d": 388,
      "v": 53
    },
    {
      "midi": 72,
      "hit": false,
      "t": 26904,
      "d": 400,
      "v": 42
    },
    {
      "midi": 69,
      "hit": false,
      "t": 26908,
      "d": 380,
      "v": 49
    },
    {
      "midi": 41,
      "hit": false,
      "t": 27136,
      "d": 1272,
      "v": 37
    },
    {
      "midi": 62,
      "hit": false,
      "t": 27380,
      "d": 660,
      "v": 52
    },
    {
      "midi": 41,
      "hit": false,
      "t": 27596,
      "d": 76,
      "v": 62
    },
    {
      "midi": 65,
      "hit": false,
      "t": 27596,
      "d": 408,
      "v": 55
    },
    {
      "midi": 41,
      "hit": false,
      "t": 27836,
      "d": 84,
      "v": 52
    },
    {
      "midi": 53,
      "hit": false,
      "t": 28076,
      "d": 460,
      "v": 87
    },
    {
      "midi": 41,
      "hit": false,
      "t": 28080,
      "d": 384,
      "v": 61
    },
    {
      "midi": 62,
      "hit": false,
      "t": 28308,
      "d": 320,
      "v": 48
    },
    {
      "midi": 65,
      "hit": false,
      "t": 28308,
      "d": 324,
      "v": 72
    },
    {
      "midi": 69,
      "hit": false,
      "t": 28312,
      "d": 308,
      "v": 59
    },
    {
      "midi": 72,
      "hit": false,
      "t": 28312,
      "d": 308,
      "v": 50
    },
    {
      "midi": 41,
      "hit": false,
      "t": 28576,
      "d": 144,
      "v": 68
    },
    {
      "midi": 67,
      "hit": false,
      "t": 28800,
      "d": 1804,
      "v": 53
    },
    {
      "midi": 74,
      "hit": false,
      "t": 28800,
      "d": 1812,
      "v": 53
    },
    {
      "midi": 79,
      "hit": false,
      "t": 28800,
      "d": 1812,
      "v": 53
    },
    {
      "midi": 59,
      "hit": false,
      "t": 28800,
      "d": 1820,
      "v": 46
    },
    {
      "midi": 43,
      "hit": false,
      "t": 28820,
      "d": 652,
      "v": 68
    },
    {
      "midi": 83,
      "hit": false,
      "t": 28840,
      "d": 1772,
      "v": 59
    },
    {
      "midi": 38,
      "hit": false,
      "t": 29532,
      "d": 52,
      "v": 59
    },
    {
      "midi": 40,
      "hit": false,
      "t": 29628,
      "d": 80,
      "v": 82
    },
    {
      "midi": 43,
      "hit": false,
      "t": 29768,
      "d": 572,
      "v": 78
    },
    {
      "midi": 43,
      "hit": false,
      "t": 30468,
      "d": 88,
      "v": 58
    },
    {
      "midi": 36,
      "hit": false,
      "t": 30740,
      "d": 652,
      "v": 68
    },
    {
      "midi": 72,
      "hit": false,
      "t": 30740,
      "d": 864,
      "v": 48
    },
    {
      "midi": 67,
      "hit": false,
      "t": 30744,
      "d": 840,
      "v": 61
    },
    {
      "midi": 48,
      "hit": false,
      "t": 30744,
      "d": 1676,
      "v": 46
    },
    {
      "midi": 60,
      "hit": false,
      "t": 30748,
      "d": 544,
      "v": 37
    },
    {
      "midi": 64,
      "hit": false,
      "t": 30748,
      "d": 780,
      "v": 43
    },
    {
      "midi": 60,
      "hit": false,
      "t": 31444,
      "d": 964,
      "v": 60
    },
    {
      "midi": 31,
      "hit": false,
      "t": 31452,
      "d": 52,
      "v": 59
    },
    {
      "midi": 33,
      "hit": false,
      "t": 31548,
      "d": 80,
      "v": 82
    },
    {
      "midi": 36,
      "hit": false,
      "t": 31688,
      "d": 572,
      "v": 78
    },
    {
      "midi": 64,
      "hit": false,
      "t": 31916,
      "d": 448,
      "v": 41
    },
    {
      "midi": 72,
      "hit": false,
      "t": 32144,
      "d": 208,
      "v": 85
    },
    {
      "midi": 67,
      "hit": false,
      "t": 32148,
      "d": 212,
      "v": 59
    },
    {
      "midi": 36,
      "hit": false,
      "t": 32388,
      "d": 88,
      "v": 58
    },
    {
      "midi": 40,
      "hit": false,
      "t": 32640,
      "d": 896,
      "v": 53
    },
    {
      "midi": 40,
      "hit": false,
      "t": 32648,
      "d": 640,
      "v": 80
    },
    {
      "midi": 55,
      "hit": false,
      "t": 32992,
      "d": 148,
      "v": 53
    },
    {
      "midi": 64,
      "hit": false,
      "t": 33116,
      "d": 280,
      "v": 55
    },
    {
      "midi": 67,
      "hit": false,
      "t": 33120,
      "d": 272,
      "v": 58
    },
    {
      "midi": 59,
      "hit": false,
      "t": 33132,
      "d": 208,
      "v": 46
    },
    {
      "midi": 40,
      "hit": false,
      "t": 33372,
      "d": 104,
      "v": 68
    },
    {
      "midi": 55,
      "hit": false,
      "t": 33380,
      "d": 76,
      "v": 37
    },
    {
      "midi": 51,
      "hit": false,
      "t": 33600,
      "d": 184,
      "v": 47
    },
    {
      "midi": 58,
      "hit": false,
      "t": 33600,
      "d": 372,
      "v": 57
    },
    {
      "midi": 63,
      "hit": false,
      "t": 33600,
      "d": 392,
      "v": 68
    },
    {
      "midi": 66,
      "hit": false,
      "t": 33600,
      "d": 392,
      "v": 55
    },
    {
      "midi": 39,
      "hit": false,
      "t": 33600,
      "d": 716,
      "v": 47
    },
    {
      "midi": 39,
      "hit": false,
      "t": 33636,
      "d": 728,
      "v": 62
    },
    {
      "midi": 51,
      "hit": false,
      "t": 33864,
      "d": 472,
      "v": 61
    },
    {
      "midi": 58,
      "hit": false,
      "t": 34088,
      "d": 364,
      "v": 85
    },
    {
      "midi": 63,
      "hit": false,
      "t": 34320,
      "d": 148,
      "v": 74
    },
    {
      "midi": 66,
      "hit": false,
      "t": 34324,
      "d": 140,
      "v": 66
    },
    {
      "midi": 39,
      "hit": false,
      "t": 34460,
      "d": 96,
      "v": 82
    },
    {
      "midi": 57,
      "hit": false,
      "t": 34560,
      "d": 360,
      "v": 60
    },
    {
      "midi": 65,
      "hit": false,
      "t": 34568,
      "d": 384,
      "v": 70
    },
    {
      "midi": 38,
      "hit": false,
      "t": 34572,
      "d": 596,
      "v": 70
    },
    {
      "midi": 50,
      "hit": false,
      "t": 34572,
      "d": 168,
      "v": 52
    },
    {
      "midi": 38,
      "hit": false,
      "t": 34572,
      "d": 1764,
      "v": 41
    },
    {
      "midi": 69,
      "hit": false,
      "t": 34576,
      "d": 392,
      "v": 59
    },
    {
      "midi": 62,
      "hit": false,
      "t": 34576,
      "d": 400,
      "v": 68
    },
    {
      "midi": 50,
      "hit": false,
      "t": 34808,
      "d": 628,
      "v": 47
    },
    {
      "midi": 57,
      "hit": false,
      "t": 35052,
      "d": 728,
      "v": 58
    },
    {
      "midi": 65,
      "hit": false,
      "t": 35268,
      "d": 532,
      "v": 60
    },
    {
      "midi": 62,
      "hit": false,
      "t": 35276,
      "d": 544,
      "v": 54
    },
    {
      "midi": 38,
      "hit": false,
      "t": 35288,
      "d": 108,
      "v": 58
    },
    {
      "midi": 69,
      "hit": false,
      "t": 35288,
      "d": 532,
      "v": 57
    },
    {
      "midi": 38,
      "hit": false,
      "t": 35532,
      "d": 608,
      "v": 64
    },
    {
      "midi": 50,
      "hit": false,
      "t": 35756,
      "d": 592,
      "v": 87
    },
    {
      "midi": 57,
      "hit": false,
      "t": 35876,
      "d": 492,
      "v": 78
    },
    {
      "midi": 62,
      "hit": false,
      "t": 36000,
      "d": 368,
      "v": 61
    },
    {
      "midi": 65,
      "hit": false,
      "t": 36120,
      "d": 220,
      "v": 70
    },
    {
      "midi": 38,
      "hit": false,
      "t": 36240,
      "d": 120,
      "v": 68
    },
    {
      "midi": 69,
      "hit": false,
      "t": 36252,
      "d": 116,
      "v": 80
    },
    {
      "midi": 57,
      "hit": false,
      "t": 36480,
      "d": 360,
      "v": 60
    },
    {
      "midi": 65,
      "hit": false,
      "t": 36488,
      "d": 384,
      "v": 70
    },
    {
      "midi": 41,
      "hit": false,
      "t": 36492,
      "d": 596,
      "v": 70
    },
    {
      "midi": 41,
      "hit": false,
      "t": 36492,
      "d": 168,
      "v": 41
    },
    {
      "midi": 69,
      "hit": false,
      "t": 36496,
      "d": 392,
      "v": 59
    },
    {
      "midi": 60,
      "hit": false,
      "t": 36496,
      "d": 400,
      "v": 68
    },
    {
      "midi": 41,
      "hit": false,
      "t": 36728,
      "d": 628,
      "v": 47
    },
    {
      "midi": 57,
      "hit": false,
      "t": 36972,
      "d": 728,
      "v": 58
    },
    {
      "midi": 65,
      "hit": false,
      "t": 37188,
      "d": 532,
      "v": 60
    },
    {
      "midi": 60,
      "hit": false,
      "t": 37196,
      "d": 544,
      "v": 54
    },
    {
      "midi": 41,
      "hit": false,
      "t": 37208,
      "d": 108,
      "v": 58
    },
    {
      "midi": 69,
      "hit": false,
      "t": 37208,
      "d": 532,
      "v": 57
    },
    {
      "midi": 41,
      "hit": false,
      "t": 37452,
      "d": 608,
      "v": 64
    },
    {
      "midi": 41,
      "hit": false,
      "t": 37676,
      "d": 580,
      "v": 87
    },
    {
      "midi": 57,
      "hit": false,
      "t": 37796,
      "d": 492,
      "v": 78
    },
    {
      "midi": 60,
      "hit": false,
      "t": 37920,
      "d": 368,
      "v": 61
    },
    {
      "midi": 65,
      "hit": false,
      "t": 38040,
      "d": 220,
      "v": 70
    },
    {
      "midi": 41,
      "hit": false,
      "t": 38160,
      "d": 120,
      "v": 68
    },
    {
      "midi": 69,
      "hit": false,
      "t": 38172,
      "d": 116,
      "v": 80
    },
    {
      "midi": 72,
      "hit": false,
      "t": 38400,
      "d": 492,
      "v": 57
    },
    {
      "midi": 48,
      "hit": false,
      "t": 38408,
      "d": 1848,
      "v": 62
    },
    {
      "midi": 64,
      "hit": false,
      "t": 38412,
      "d": 416,
      "v": 52
    },
    {
      "midi": 67,
      "hit": false,
      "t": 38412,
      "d": 440,
      "v": 59
    },
    {
      "midi": 36,
      "hit": false,
      "t": 38416,
      "d": 584,
      "v": 85
    },
    {
      "midi": 60,
      "hit": false,
      "t": 38660,
      "d": 1948,
      "v": 33
    },
    {
      "midi": 64,
      "hit": false,
      "t": 38908,
      "d": 188,
      "v": 59
    },
    {
      "midi": 72,
      "hit": false,
      "t": 38972,
      "d": 68,
      "v": 10
    },
    {
      "midi": 36,
      "hit": false,
      "t": 39128,
      "d": 84,
      "v": 62
    },
    {
      "midi": 72,
      "hit": false,
      "t": 39132,
      "d": 452,
      "v": 57
    },
    {
      "midi": 64,
      "hit": false,
      "t": 39132,
      "d": 500,
      "v": 37
    },
    {
      "midi": 67,
      "hit": false,
      "t": 39144,
      "d": 472,
      "v": 68
    },
    {
      "midi": 36,
      "hit": false,
      "t": 39372,
      "d": 616,
      "v": 72
    },
    {
      "midi": 55,
      "hit": false,
      "t": 39864,
      "d": 464,
      "v": 61
    },
    {
      "midi": 36,
      "hit": false,
      "t": 40112,
      "d": 76,
      "v": 76
    },
    {
      "midi": 72,
      "hit": false,
      "t": 40172,
      "d": 304,
      "v": 28
    },
    {
      "midi": 67,
      "hit": false,
      "t": 40264,
      "d": 304,
      "v": 59
    },
    {
      "midi": 48,
      "hit": false,
      "t": 40316,
      "d": 1488,
      "v": 63
    },
    {
      "midi": 64,
      "hit": false,
      "t": 40332,
      "d": 336,
      "v": 78
    },
    {
      "midi": 36,
      "hit": false,
      "t": 40344,
      "d": 620,
      "v": 87
    },
    {
      "midi": 55,
      "hit": false,
      "t": 40568,
      "d": 484,
      "v": 62
    },
    {
      "midi": 60,
      "hit": false,
      "t": 40808,
      "d": 84,
      "v": 43
    },
    {
      "midi": 64,
      "hit": false,
      "t": 41040,
      "d": 448,
      "v": 62
    },
    {
      "midi": 60,
      "hit": false,
      "t": 41048,
      "d": 436,
      "v": 58
    },
    {
      "midi": 36,
      "hit": false,
      "t": 41064,
      "d": 84,
      "v": 74
    },
    {
      "midi": 36,
      "hit": false,
      "t": 41292,
      "d": 700,
      "v": 82
    },
    {
      "midi": 55,
      "hit": false,
      "t": 41528,
      "d": 276,
      "v": 68
    },
    {
      "midi": 64,
      "hit": false,
      "t": 41768,
      "d": 224,
      "v": 72
    },
    {
      "midi": 67,
      "hit": false,
      "t": 41768,
      "d": 228,
      "v": 78
    },
    {
      "midi": 60,
      "hit": false,
      "t": 41772,
      "d": 220,
      "v": 60
    },
    {
      "midi": 31,
      "hit": false,
      "t": 42000,
      "d": 88,
      "v": 66
    },
    {
      "midi": 33,
      "hit": false,
      "t": 42108,
      "d": 108,
      "v": 68
    },
    {
      "midi": 57,
      "hit": false,
      "t": 42240,
      "d": 360,
      "v": 60
    },
    {
      "midi": 65,
      "hit": false,
      "t": 42248,
      "d": 384,
      "v": 70
    },
    {
      "midi": 41,
      "hit": false,
      "t": 42252,
      "d": 596,
      "v": 70
    },
    {
      "midi": 41,
      "hit": false,
      "t": 42252,
      "d": 168,
      "v": 41
    },
    {
      "midi": 69,
      "hit": false,
      "t": 42256,
      "d": 392,
      "v": 59
    },
    {
      "midi": 60,
      "hit": false,
      "t": 42256,
      "d": 400,
      "v": 68
    },
    {
      "midi": 41,
      "hit": false,
      "t": 42488,
      "d": 628,
      "v": 47
    },
    {
      "midi": 57,
      "hit": false,
      "t": 42732,
      "d": 728,
      "v": 58
    },
    {
      "midi": 65,
      "hit": false,
      "t": 42948,
      "d": 532,
      "v": 60
    },
    {
      "midi": 60,
      "hit": false,
      "t": 42956,
      "d": 544,
      "v": 54
    },
    {
      "midi": 41,
      "hit": false,
      "t": 42968,
      "d": 108,
      "v": 58
    },
    {
      "midi": 69,
      "hit": false,
      "t": 42968,
      "d": 532,
      "v": 57
    },
    {
      "midi": 41,
      "hit": false,
      "t": 43212,
      "d": 608,
      "v": 64
    },
    {
      "midi": 41,
      "hit": false,
      "t": 43436,
      "d": 580,
      "v": 87
    },
    {
      "midi": 57,
      "hit": false,
      "t": 43556,
      "d": 492,
      "v": 78
    },
    {
      "midi": 60,
      "hit": false,
      "t": 43680,
      "d": 368,
      "v": 61
    },
    {
      "midi": 65,
      "hit": false,
      "t": 43800,
      "d": 220,
      "v": 70
    },
    {
      "midi": 41,
      "hit": false,
      "t": 43920,
      "d": 120,
      "v": 68
    },
    {
      "midi": 69,
      "hit": false,
      "t": 43932,
      "d": 116,
      "v": 80
    },
    {
      "midi": 43,
      "hit": false,
      "t": 44160,
      "d": 616,
      "v": 37
    },
    {
      "midi": 67,
      "hit": false,
      "t": 44160,
      "d": 676,
      "v": 58
    },
    {
      "midi": 62,
      "hit": false,
      "t": 44160,
      "d": 704,
      "v": 47
    },
    {
      "midi": 71,
      "hit": false,
      "t": 44160,
      "d": 716,
      "v": 51
    },
    {
      "midi": 59,
      "hit": false,
      "t": 44160,
      "d": 736,
      "v": 43
    },
    {
      "midi": 43,
      "hit": false,
      "t": 44180,
      "d": 652,
      "v": 68
    },
    {
      "midi": 43,
      "hit": false,
      "t": 44888,
      "d": 372,
      "v": 55
    },
    {
      "midi": 38,
      "hit": false,
      "t": 44892,
      "d": 52,
      "v": 59
    },
    {
      "midi": 40,
      "hit": false,
      "t": 44988,
      "d": 80,
      "v": 82
    },
    {
      "midi": 71,
      "hit": false,
      "t": 45112,
      "d": 236,
      "v": 60
    },
    {
      "midi": 59,
      "hit": false,
      "t": 45112,
      "d": 252,
      "v": 52
    },
    {
      "midi": 62,
      "hit": false,
      "t": 45120,
      "d": 236,
      "v": 68
    },
    {
      "midi": 67,
      "hit": false,
      "t": 45124,
      "d": 224,
      "v": 60
    },
    {
      "midi": 43,
      "hit": false,
      "t": 45128,
      "d": 572,
      "v": 78
    },
    {
      "midi": 43,
      "hit": false,
      "t": 45508,
      "d": 40,
      "v": 41
    },
    {
      "midi": 71,
      "hit": false,
      "t": 45580,
      "d": 204,
      "v": 80
    },
    {
      "midi": 67,
      "hit": false,
      "t": 45584,
      "d": 204,
      "v": 82
    },
    {
      "midi": 59,
      "hit": false,
      "t": 45588,
      "d": 212,
      "v": 68
    },
    {
      "midi": 62,
      "hit": false,
      "t": 45588,
      "d": 212,
      "v": 82
    },
    {
      "midi": 43,
      "hit": false,
      "t": 45828,
      "d": 88,
      "v": 58
    },
    {
      "midi": 36,
      "hit": false,
      "t": 46080,
      "d": 620,
      "v": 70
    },
    {
      "midi": 71,
      "hit": false,
      "t": 46080,
      "d": 492,
      "v": 57
    },
    {
      "midi": 74,
      "hit": false,
      "t": 46088,
      "d": 520,
      "v": 61
    },
    {
      "midi": 48,
      "hit": false,
      "t": 46088,
      "d": 1848,
      "v": 62
    },
    {
      "midi": 64,
      "hit": false,
      "t": 46092,
      "d": 416,
      "v": 52
    },
    {
      "midi": 67,
      "hit": false,
      "t": 46092,
      "d": 440,
      "v": 59
    },
    {
      "midi": 60,
      "hit": false,
      "t": 46340,
      "d": 1948,
      "v": 33
    },
    {
      "midi": 64,
      "hit": false,
      "t": 46588,
      "d": 188,
      "v": 59
    },
    {
      "midi": 74,
      "hit": false,
      "t": 46652,
      "d": 68,
      "v": 10
    },
    {
      "midi": 36,
      "hit": false,
      "t": 46808,
      "d": 72,
      "v": 82
    },
    {
      "midi": 74,
      "hit": false,
      "t": 46812,
      "d": 452,
      "v": 57
    },
    {
      "midi": 64,
      "hit": false,
      "t": 46812,
      "d": 500,
      "v": 37
    },
    {
      "midi": 71,
      "hit": false,
      "t": 46820,
      "d": 556,
      "v": 60
    },
    {
      "midi": 67,
      "hit": false,
      "t": 46824,
      "d": 472,
      "v": 68
    },
    {
      "midi": 36,
      "hit": false,
      "t": 47048,
      "d": 592,
      "v": 82
    },
    {
      "midi": 55,
      "hit": false,
      "t": 47544,
      "d": 464,
      "v": 61
    },
    {
      "midi": 36,
      "hit": false,
      "t": 47748,
      "d": 68,
      "v": 60
    },
    {
      "midi": 74,
      "hit": false,
      "t": 47852,
      "d": 460,
      "v": 28
    },
    {
      "midi": 71,
      "hit": false,
      "t": 47900,
      "d": 256,
      "v": 53
    },
    {
      "midi": 67,
      "hit": false,
      "t": 47944,
      "d": 304,
      "v": 59
    },
    {
      "midi": 36,
      "hit": false,
      "t": 47988,
      "d": 872,
      "v": 63
    },
    {
      "midi": 48,
      "hit": false,
      "t": 47996,
      "d": 1488,
      "v": 63
    },
    {
      "midi": 64,
      "hit": false,
      "t": 48012,
      "d": 336,
      "v": 78
    },
    {
      "midi": 55,
      "hit": false,
      "t": 48248,
      "d": 484,
      "v": 62
    },
    {
      "midi": 60,
      "hit": false,
      "t": 48488,
      "d": 84,
      "v": 43
    },
    {
      "midi": 64,
      "hit": false,
      "t": 48720,
      "d": 448,
      "v": 62
    },
    {
      "midi": 60,
      "hit": false,
      "t": 48728,
      "d": 436,
      "v": 58
    },
    {
      "midi": 31,
      "hit": false,
      "t": 48856,
      "d": 88,
      "v": 42
    },
    {
      "midi": 36,
      "hit": false,
      "t": 48952,
      "d": 84,
      "v": 78
    },
    {
      "midi": 55,
      "hit": false,
      "t": 49208,
      "d": 276,
      "v": 68
    },
    {
      "midi": 36,
      "hit": false,
      "t": 49220,
      "d": 328,
      "v": 78
    },
    {
      "midi": 64,
      "hit": false,
      "t": 49448,
      "d": 224,
      "v": 72
    },
    {
      "midi": 67,
      "hit": false,
      "t": 49448,
      "d": 228,
      "v": 78
    },
    {
      "midi": 60,
      "hit": false,
      "t": 49452,
      "d": 220,
      "v": 60
    },
    {
      "midi": 36,
      "hit": false,
      "t": 49688,
      "d": 132,
      "v": 78
    },
    {
      "midi": 50,
      "hit": false,
      "t": 49920,
      "d": 616,
      "v": 37
    },
    {
      "midi": 65,
      "hit": false,
      "t": 49920,
      "d": 676,
      "v": 58
    },
    {
      "midi": 62,
      "hit": false,
      "t": 49920,
      "d": 704,
      "v": 47
    },
    {
      "midi": 69,
      "hit": false,
      "t": 49920,
      "d": 716,
      "v": 51
    },
    {
      "midi": 57,
      "hit": false,
      "t": 49920,
      "d": 736,
      "v": 43
    },
    {
      "midi": 38,
      "hit": false,
      "t": 49928,
      "d": 1472,
      "v": 24
    },
    {
      "midi": 38,
      "hit": false,
      "t": 49932,
      "d": 596,
      "v": 70
    },
    {
      "midi": 38,
      "hit": false,
      "t": 50648,
      "d": 108,
      "v": 58
    },
    {
      "midi": 50,
      "hit": false,
      "t": 50648,
      "d": 372,
      "v": 55
    },
    {
      "midi": 69,
      "hit": false,
      "t": 50872,
      "d": 236,
      "v": 60
    },
    {
      "midi": 57,
      "hit": false,
      "t": 50872,
      "d": 252,
      "v": 52
    },
    {
      "midi": 62,
      "hit": false,
      "t": 50880,
      "d": 236,
      "v": 68
    },
    {
      "midi": 65,
      "hit": false,
      "t": 50884,
      "d": 224,
      "v": 60
    },
    {
      "midi": 38,
      "hit": false,
      "t": 50892,
      "d": 608,
      "v": 64
    },
    {
      "midi": 50,
      "hit": false,
      "t": 51268,
      "d": 40,
      "v": 41
    },
    {
      "midi": 69,
      "hit": false,
      "t": 51340,
      "d": 204,
      "v": 80
    },
    {
      "midi": 65,
      "hit": false,
      "t": 51344,
      "d": 204,
      "v": 82
    },
    {
      "midi": 57,
      "hit": false,
      "t": 51348,
      "d": 212,
      "v": 68
    },
    {
      "midi": 62,
      "hit": false,
      "t": 51348,
      "d": 212,
      "v": 82
    },
    {
      "midi": 38,
      "hit": false,
      "t": 51600,
      "d": 120,
      "v": 68
    },
    {
      "midi": 59,
      "hit": false,
      "t": 51840,
      "d": 360,
      "v": 60
    },
    {
      "midi": 67,
      "hit": false,
      "t": 51848,
      "d": 384,
      "v": 70
    },
    {
      "midi": 43,
      "hit": false,
      "t": 51852,
      "d": 168,
      "v": 41
    },
    {
      "midi": 71,
      "hit": false,
      "t": 51856,
      "d": 392,
      "v": 59
    },
    {
      "midi": 62,
      "hit": false,
      "t": 51856,
      "d": 400,
      "v": 68
    },
    {
      "midi": 43,
      "hit": false,
      "t": 51860,
      "d": 652,
      "v": 68
    },
    {
      "midi": 43,
      "hit": false,
      "t": 52088,
      "d": 628,
      "v": 47
    },
    {
      "midi": 59,
      "hit": false,
      "t": 52332,
      "d": 728,
      "v": 58
    },
    {
      "midi": 67,
      "hit": false,
      "t": 52548,
      "d": 532,
      "v": 60
    },
    {
      "midi": 62,
      "hit": false,
      "t": 52556,
      "d": 544,
      "v": 54
    },
    {
      "midi": 71,
      "hit": false,
      "t": 52568,
      "d": 532,
      "v": 57
    },
    {
      "midi": 38,
      "hit": false,
      "t": 52572,
      "d": 52,
      "v": 59
    },
    {
      "midi": 40,
      "hit": false,
      "t": 52668,
      "d": 80,
      "v": 82
    },
    {
      "midi": 43,
      "hit": false,
      "t": 52808,
      "d": 572,
      "v": 78
    },
    {
      "midi": 43,
      "hit": false,
      "t": 53036,
      "d": 580,
      "v": 87
    },
    {
      "midi": 59,
      "hit": false,
      "t": 53156,
      "d": 492,
      "v": 78
    },
    {
      "midi": 62,
      "hit": false,
      "t": 53280,
      "d": 368,
      "v": 61
    },
    {
      "midi": 67,
      "hit": false,
      "t": 53400,
      "d": 220,
      "v": 70
    },
    {
      "midi": 43,
      "hit": false,
      "t": 53508,
      "d": 88,
      "v": 58
    },
    {
      "midi": 71,
      "hit": false,
      "t": 53532,
      "d": 116,
      "v": 80
    },
    {
      "midi": 36,
      "hit": false,
      "t": 53760,
      "d": 616,
      "v": 64
    },
    {
      "midi": 67,
      "hit": false,
      "t": 53772,
      "d": 284,
      "v": 47
    },
    {
      "midi": 48,
      "hit": false,
      "t": 53772,
      "d": 1464,
      "v": 36
    },
    {
      "midi": 60,
      "hit": false,
      "t": 53776,
      "d": 280,
      "v": 57
    },
    {
      "midi": 36,
      "hit": false,
      "t": 53776,
      "d": 3632,
      "v": 42
    },
    {
      "midi": 64,
      "hit": false,
      "t": 53780,
      "d": 264,
      "v": 62
    },
    {
      "midi": 36,
      "hit": false,
      "t": 54492,
      "d": 80,
      "v": 66
    },
    {
      "midi": 79,
      "hit": false,
      "t": 54612,
      "d": 184,
      "v": 50
    },
    {
      "midi": 76,
      "hit": false,
      "t": 54656,
      "d": 180,
      "v": 51
    },
    {
      "midi": 72,
      "hit": false,
      "t": 54684,
      "d": 188,
      "v": 64
    },
    {
      "midi": 36,
      "hit": false,
      "t": 54740,
      "d": 640,
      "v": 60
    },
    {
      "midi": 31,
      "hit": false,
      "t": 55448,
      "d": 108,
      "v": 58
    },
    {
      "midi": 67,
      "hit": false,
      "t": 55500,
      "d": 548,
      "v": 27
    },
    {
      "midi": 64,
      "hit": false,
      "t": 55532,
      "d": 528,
      "v": 45
    },
    {
      "midi": 33,
      "hit": false,
      "t": 55556,
      "d": 100,
      "v": 61
    },
    {
      "midi": 60,
      "hit": false,
      "t": 55596,
      "d": 480,
      "v": 51
    },
    {
      "midi": 36,
      "hit": false,
      "t": 55688,
      "d": 760,
      "v": 57
    },
    {
      "midi": 48,
      "hit": false,
      "t": 55688,
      "d": 436,
      "v": 41
    },
    {
      "midi": 48,
      "hit": false,
      "t": 56408,
      "d": 400,
      "v": 66
    },
    {
      "midi": 36,
      "hit": false,
      "t": 56536,
      "d": 64,
      "v": 51
    },
    {
      "midi": 55,
      "hit": false,
      "t": 56640,
      "d": 316,
      "v": 60
    },
    {
      "midi": 60,
      "hit": false,
      "t": 56648,
      "d": 484,
      "v": 62
    },
    {
      "midi": 64,
      "hit": false,
      "t": 56652,
      "d": 476,
      "v": 60
    },
    {
      "midi": 36,
      "hit": false,
      "t": 56668,
      "d": 40,
      "v": 70
    },
    {
      "midi": 48,
      "hit": false,
      "t": 56884,
      "d": 536,
      "v": 80
    },
    {
      "midi": 36,
      "hit": false,
      "t": 56888,
      "d": 368,
      "v": 85
    },
    {
      "midi": 55,
      "hit": false,
      "t": 57132,
      "d": 288,
      "v": 87
    },
    {
      "midi": 36,
      "hit": false,
      "t": 57356,
      "d": 160,
      "v": 78
    },
    {
      "midi": 60,
      "hit": false,
      "t": 57384,
      "d": 60,
      "v": 62
    },
    {
      "midi": 62,
      "hit": false,
      "t": 57600,
      "d": 156,
      "v": 39
    },
    {
      "midi": 69,
      "hit": false,
      "t": 57600,
      "d": 276,
      "v": 47
    },
    {
      "midi": 72,
      "hit": false,
      "t": 57600,
      "d": 308,
      "v": 62
    },
    {
      "midi": 77,
      "hit": false,
      "t": 57604,
      "d": 312,
      "v": 58
    },
    {
      "midi": 57,
      "hit": false,
      "t": 57608,
      "d": 1548,
      "v": 52
    },
    {
      "midi": 41,
      "hit": false,
      "t": 57612,
      "d": 596,
      "v": 70
    },
    {
      "midi": 53,
      "hit": false,
      "t": 57624,
      "d": 1676,
      "v": 50
    },
    {
      "midi": 62,
      "hit": false,
      "t": 57848,
      "d": 572,
      "v": 26
    },
    {
      "midi": 69,
      "hit": false,
      "t": 58080,
      "d": 200,
      "v": 47
    },
    {
      "midi": 41,
      "hit": false,
      "t": 58328,
      "d": 108,
      "v": 58
    },
    {
      "midi": 72,
      "hit": false,
      "t": 58340,
      "d": 84,
      "v": 25
    },
    {
      "midi": 77,
      "hit": false,
      "t": 58552,
      "d": 68,
      "v": 54
    },
    {
      "midi": 41,
      "hit": false,
      "t": 58572,
      "d": 608,
      "v": 64
    },
    {
      "midi": 81,
      "hit": false,
      "t": 58812,
      "d": 216,
      "v": 60
    },
    {
      "midi": 62,
      "hit": false,
      "t": 58980,
      "d": 128,
      "v": 44
    },
    {
      "midi": 84,
      "hit": false,
      "t": 59036,
      "d": 96,
      "v": 85
    },
    {
      "midi": 81,
      "hit": false,
      "t": 59152,
      "d": 112,
      "v": 70
    },
    {
      "midi": 41,
      "hit": false,
      "t": 59280,
      "d": 120,
      "v": 68
    },
    {
      "midi": 77,
      "hit": false,
      "t": 59280,
      "d": 96,
      "v": 58
    },
    {
      "midi": 72,
      "hit": false,
      "t": 59420,
      "d": 28,
      "v": 36
    },
    {
      "midi": 43,
      "hit": false,
      "t": 59520,
      "d": 600,
      "v": 72
    },
    {
      "midi": 67,
      "hit": false,
      "t": 59520,
      "d": 156,
      "v": 39
    },
    {
      "midi": 71,
      "hit": false,
      "t": 59520,
      "d": 276,
      "v": 47
    },
    {
      "midi": 74,
      "hit": false,
      "t": 59520,
      "d": 308,
      "v": 62
    },
    {
      "midi": 79,
      "hit": false,
      "t": 59524,
      "d": 312,
      "v": 58
    },
    {
      "midi": 59,
      "hit": false,
      "t": 59528,
      "d": 1548,
      "v": 52
    },
    {
      "midi": 43,
      "hit": false,
      "t": 59544,
      "d": 1676,
      "v": 50
    },
    {
      "midi": 67,
      "hit": false,
      "t": 59768,
      "d": 572,
      "v": 26
    },
    {
      "midi": 71,
      "hit": false,
      "t": 60000,
      "d": 200,
      "v": 47
    },
    {
      "midi": 43,
      "hit": false,
      "t": 60236,
      "d": 76,
      "v": 62
    },
    {
      "midi": 74,
      "hit": false,
      "t": 60260,
      "d": 84,
      "v": 25
    },
    {
      "midi": 79,
      "hit": false,
      "t": 60472,
      "d": 68,
      "v": 54
    },
    {
      "midi": 43,
      "hit": false,
      "t": 60476,
      "d": 84,
      "v": 52
    },
    {
      "midi": 43,
      "hit": false,
      "t": 60720,
      "d": 384,
      "v": 61
    },
    {
      "midi": 83,
      "hit": false,
      "t": 60732,
      "d": 216,
      "v": 60
    },
    {
      "midi": 67,
      "hit": false,
      "t": 60900,
      "d": 128,
      "v": 44
    },
    {
      "midi": 86,
      "hit": false,
      "t": 60956,
      "d": 96,
      "v": 85
    },
    {
      "midi": 83,
      "hit": false,
      "t": 61072,
      "d": 112,
      "v": 70
    },
    {
      "midi": 79,
      "hit": false,
      "t": 61200,
      "d": 96,
      "v": 58
    },
    {
      "midi": 43,
      "hit": false,
      "t": 61216,
      "d": 144,
      "v": 68
    },
    {
      "midi": 74,
      "hit": false,
      "t": 61340,
      "d": 28,
      "v": 36
    },
    {
      "midi": 36,
      "hit": false,
      "t": 61440,
      "d": 600,
      "v": 72
    },
    {
      "midi": 72,
      "hit": false,
      "t": 61460,
      "d": 864,
      "v": 48
    },
    {
      "midi": 67,
      "hit": false,
      "t": 61464,
      "d": 840,
      "v": 61
    },
    {
      "midi": 48,
      "hit": false,
      "t": 61464,
      "d": 1676,
      "v": 46
    },
    {
      "midi": 60,
      "hit": false,
      "t": 61468,
      "d": 544,
      "v": 37
    },
    {
      "midi": 64,
      "hit": false,
      "t": 61468,
      "d": 780,
      "v": 43
    },
    {
      "midi": 36,
      "hit": false,
      "t": 62156,
      "d": 76,
      "v": 62
    },
    {
      "midi": 60,
      "hit": false,
      "t": 62164,
      "d": 964,
      "v": 60
    },
    {
      "midi": 36,
      "hit": false,
      "t": 62396,
      "d": 84,
      "v": 52
    },
    {
      "midi": 64,
      "hit": false,
      "t": 62636,
      "d": 448,
      "v": 41
    },
    {
      "midi": 36,
      "hit": false,
      "t": 62640,
      "d": 384,
      "v": 61
    },
    {
      "midi": 72,
      "hit": false,
      "t": 62864,
      "d": 208,
      "v": 85
    },
    {
      "midi": 67,
      "hit": false,
      "t": 62868,
      "d": 212,
      "v": 59
    },
    {
      "midi": 36,
      "hit": false,
      "t": 63136,
      "d": 144,
      "v": 68
    },
    {
      "midi": 40,
      "hit": false,
      "t": 63360,
      "d": 924,
      "v": 42
    },
    {
      "midi": 40,
      "hit": false,
      "t": 63368,
      "d": 640,
      "v": 80
    },
    {
      "midi": 52,
      "hit": false,
      "t": 63368,
      "d": 916,
      "v": 46
    },
    {
      "midi": 64,
      "hit": false,
      "t": 63368,
      "d": 920,
      "v": 60
    },
    {
      "midi": 67,
      "hit": false,
      "t": 63372,
      "d": 896,
      "v": 56
    },
    {
      "midi": 59,
      "hit": false,
      "t": 63376,
      "d": 900,
      "v": 60
    },
    {
      "midi": 40,
      "hit": false,
      "t": 64092,
      "d": 104,
      "v": 68
    },
    {
      "midi": 51,
      "hit": false,
      "t": 64320,
      "d": 184,
      "v": 47
    },
    {
      "midi": 58,
      "hit": false,
      "t": 64320,
      "d": 372,
      "v": 57
    },
    {
      "midi": 63,
      "hit": false,
      "t": 64320,
      "d": 392,
      "v": 68
    },
    {
      "midi": 66,
      "hit": false,
      "t": 64320,
      "d": 392,
      "v": 55
    },
    {
      "midi": 39,
      "hit": false,
      "t": 64320,
      "d": 716,
      "v": 47
    },
    {
      "midi": 39,
      "hit": false,
      "t": 64328,
      "d": 640,
      "v": 80
    },
    {
      "midi": 51,
      "hit": false,
      "t": 64584,
      "d": 472,
      "v": 61
    },
    {
      "midi": 58,
      "hit": false,
      "t": 64808,
      "d": 364,
      "v": 85
    },
    {
      "midi": 63,
      "hit": false,
      "t": 65040,
      "d": 148,
      "v": 74
    },
    {
      "midi": 66,
      "hit": false,
      "t": 65044,
      "d": 140,
      "v": 66
    },
    {
      "midi": 39,
      "hit": false,
      "t": 65052,
      "d": 104,
      "v": 68
    },
    {
      "midi": 50,
      "hit": false,
      "t": 65292,
      "d": 936,
      "v": 44
    },
    {
      "midi": 38,
      "hit": false,
      "t": 65300,
      "d": 652,
      "v": 68
    },
    {
      "midi": 62,
      "hit": false,
      "t": 65300,
      "d": 360,
      "v": 37
    },
    {
      "midi": 69,
      "hit": false,
      "t": 65304,
      "d": 400,
      "v": 42
    },
    {
      "midi": 65,
      "hit": false,
      "t": 65308,
      "d": 380,
      "v": 49
    },
    {
      "midi": 38,
      "hit": false,
      "t": 65536,
      "d": 1272,
      "v": 37
    },
    {
      "midi": 62,
      "hit": false,
      "t": 65780,
      "d": 624,
      "v": 52
    },
    {
      "midi": 33,
      "hit": false,
      "t": 66012,
      "d": 52,
      "v": 59
    },
    {
      "midi": 35,
      "hit": false,
      "t": 66108,
      "d": 80,
      "v": 82
    },
    {
      "midi": 38,
      "hit": false,
      "t": 66248,
      "d": 572,
      "v": 78
    },
    {
      "midi": 50,
      "hit": false,
      "t": 66476,
      "d": 460,
      "v": 87
    },
    {
      "midi": 62,
      "hit": false,
      "t": 66708,
      "d": 320,
      "v": 48
    },
    {
      "midi": 65,
      "hit": false,
      "t": 66712,
      "d": 308,
      "v": 59
    },
    {
      "midi": 69,
      "hit": false,
      "t": 66712,
      "d": 308,
      "v": 50
    },
    {
      "midi": 38,
      "hit": false,
      "t": 66948,
      "d": 88,
      "v": 58
    },
    {
      "midi": 65,
      "hit": false,
      "t": 67200,
      "d": 1804,
      "v": 53
    },
    {
      "midi": 72,
      "hit": false,
      "t": 67200,
      "d": 1812,
      "v": 53
    },
    {
      "midi": 77,
      "hit": false,
      "t": 67200,
      "d": 1812,
      "v": 53
    },
    {
      "midi": 57,
      "hit": false,
      "t": 67200,
      "d": 1820,
      "v": 46
    },
    {
      "midi": 41,
      "hit": false,
      "t": 67212,
      "d": 596,
      "v": 70
    },
    {
      "midi": 81,
      "hit": false,
      "t": 67240,
      "d": 1772,
      "v": 59
    },
    {
      "midi": 41,
      "hit": false,
      "t": 67928,
      "d": 108,
      "v": 58
    },
    {
      "midi": 41,
      "hit": false,
      "t": 68172,
      "d": 608,
      "v": 64
    },
    {
      "midi": 41,
      "hit": false,
      "t": 68880,
      "d": 120,
      "v": 68
    },
    {
      "midi": 36,
      "hit": false,
      "t": 69120,
      "d": 616,
      "v": 64
    },
    {
      "midi": 60,
      "hit": false,
      "t": 69128,
      "d": 488,
      "v": 68
    },
    {
      "midi": 64,
      "hit": false,
      "t": 69128,
      "d": 524,
      "v": 53
    },
    {
      "midi": 55,
      "hit": false,
      "t": 69132,
      "d": 420,
      "v": 53
    },
    {
      "midi": 48,
      "hit": false,
      "t": 69132,
      "d": 1840,
      "v": 52
    },
    {
      "midi": 36,
      "hit": false,
      "t": 69388,
      "d": 3172,
      "v": 53
    },
    {
      "midi": 55,
      "hit": false,
      "t": 69616,
      "d": 920,
      "v": 52
    },
    {
      "midi": 36,
      "hit": false,
      "t": 69852,
      "d": 80,
      "v": 66
    },
    {
      "midi": 60,
      "hit": false,
      "t": 69852,
      "d": 636,
      "v": 68
    },
    {
      "midi": 64,
      "hit": false,
      "t": 69860,
      "d": 624,
      "v": 55
    },
    {
      "midi": 36,
      "hit": false,
      "t": 70100,
      "d": 640,
      "v": 60
    },
    {
      "midi": 55,
      "hit": false,
      "t": 70704,
      "d": 1452,
      "v": 64
    },
    {
      "midi": 31,
      "hit": false,
      "t": 70808,
      "d": 108,
      "v": 58
    },
    {
      "midi": 60,
      "hit": false,
      "t": 70820,
      "d": 516,
      "v": 66
    },
    {
      "midi": 33,
      "hit": false,
      "t": 70916,
      "d": 100,
      "v": 61
    },
    {
      "midi": 36,
      "hit": false,
      "t": 71048,
      "d": 760,
      "v": 57
    },
    {
      "midi": 64,
      "hit": false,
      "t": 71056,
      "d": 276,
      "v": 64
    },
    {
      "midi": 48,
      "hit": false,
      "t": 71060,
      "d": 984,
      "v": 55
    },
    {
      "midi": 60,
      "hit": false,
      "t": 71496,
      "d": 640,
      "v": 51
    },
    {
      "midi": 64,
      "hit": false,
      "t": 71756,
      "d": 360,
      "v": 63
    },
    {
      "midi": 36,
      "hit": false,
      "t": 71896,
      "d": 64,
      "v": 51
    },
    {
      "midi": 36,
      "hit": false,
      "t": 72028,
      "d": 40,
      "v": 70
    },
    {
      "midi": 48,
      "hit": false,
      "t": 72244,
      "d": 336,
      "v": 80
    },
    {
      "midi": 36,
      "hit": false,
      "t": 72248,
      "d": 368,
      "v": 85
    },
    {
      "midi": 60,
      "hit": false,
      "t": 72488,
      "d": 316,
      "v": 72
    },
    {
      "midi": 55,
      "hit": false,
      "t": 72492,
      "d": 320,
      "v": 60
    },
    {
      "midi": 64,
      "hit": false,
      "t": 72496,
      "d": 312,
      "v": 58
    },
    {
      "midi": 36,
      "hit": false,
      "t": 72716,
      "d": 160,
      "v": 78
    },
    {
      "midi": 43,
      "hit": false,
      "t": 72960,
      "d": 600,
      "v": 72
    },
    {
      "midi": 65,
      "hit": false,
      "t": 72960,
      "d": 156,
      "v": 39
    },
    {
      "midi": 71,
      "hit": false,
      "t": 72960,
      "d": 276,
      "v": 47
    },
    {
      "midi": 74,
      "hit": false,
      "t": 72960,
      "d": 308,
      "v": 62
    },
    {
      "midi": 81,
      "hit": false,
      "t": 72964,
      "d": 312,
      "v": 58
    },
    {
      "midi": 59,
      "hit": false,
      "t": 72968,
      "d": 1548,
      "v": 52
    },
    {
      "midi": 43,
      "hit": false,
      "t": 72984,
      "d": 1676,
      "v": 50
    },
    {
      "midi": 65,
      "hit": false,
      "t": 73208,
      "d": 572,
      "v": 26
    },
    {
      "midi": 71,
      "hit": false,
      "t": 73440,
      "d": 200,
      "v": 47
    },
    {
      "midi": 43,
      "hit": false,
      "t": 73676,
      "d": 76,
      "v": 62
    },
    {
      "midi": 74,
      "hit": false,
      "t": 73700,
      "d": 84,
      "v": 25
    },
    {
      "midi": 81,
      "hit": false,
      "t": 73912,
      "d": 68,
      "v": 54
    },
    {
      "midi": 43,
      "hit": false,
      "t": 73916,
      "d": 84,
      "v": 52
    },
    {
      "midi": 43,
      "hit": false,
      "t": 74160,
      "d": 384,
      "v": 61
    },
    {
      "midi": 83,
      "hit": false,
      "t": 74172,
      "d": 216,
      "v": 60
    },
    {
      "midi": 65,
      "hit": false,
      "t": 74340,
      "d": 128,
      "v": 44
    },
    {
      "midi": 86,
      "hit": false,
      "t": 74396,
      "d": 96,
      "v": 85
    },
    {
      "midi": 83,
      "hit": false,
      "t": 74512,
      "d": 112,
      "v": 70
    },
    {
      "midi": 81,
      "hit": false,
      "t": 74640,
      "d": 96,
      "v": 58
    },
    {
      "midi": 43,
      "hit": false,
      "t": 74656,
      "d": 144,
      "v": 68
    },
    {
      "midi": 74,
      "hit": false,
      "t": 74780,
      "d": 28,
      "v": 36
    },
    {
      "midi": 43,
      "hit": false,
      "t": 74880,
      "d": 616,
      "v": 37
    },
    {
      "midi": 67,
      "hit": false,
      "t": 74880,
      "d": 676,
      "v": 58
    },
    {
      "midi": 62,
      "hit": false,
      "t": 74880,
      "d": 704,
      "v": 47
    },
    {
      "midi": 71,
      "hit": false,
      "t": 74880,
      "d": 716,
      "v": 51
    },
    {
      "midi": 59,
      "hit": false,
      "t": 74880,
      "d": 736,
      "v": 43
    },
    {
      "midi": 43,
      "hit": false,
      "t": 74892,
      "d": 596,
      "v": 70
    },
    {
      "midi": 43,
      "hit": false,
      "t": 75608,
      "d": 108,
      "v": 58
    },
    {
      "midi": 43,
      "hit": false,
      "t": 75608,
      "d": 372,
      "v": 55
    },
    {
      "midi": 71,
      "hit": false,
      "t": 75832,
      "d": 236,
      "v": 60
    },
    {
      "midi": 59,
      "hit": false,
      "t": 75832,
      "d": 252,
      "v": 52
    },
    {
      "midi": 62,
      "hit": false,
      "t": 75840,
      "d": 236,
      "v": 68
    },
    {
      "midi": 67,
      "hit": false,
      "t": 75844,
      "d": 224,
      "v": 60
    },
    {
      "midi": 43,
      "hit": false,
      "t": 75852,
      "d": 608,
      "v": 64
    },
    {
      "midi": 43,
      "hit": false,
      "t": 76228,
      "d": 40,
      "v": 41
    },
    {
      "midi": 71,
      "hit": false,
      "t": 76300,
      "d": 204,
      "v": 80
    },
    {
      "midi": 67,
      "hit": false,
      "t": 76304,
      "d": 204,
      "v": 82
    },
    {
      "midi": 59,
      "hit": false,
      "t": 76308,
      "d": 212,
      "v": 68
    },
    {
      "midi": 62,
      "hit": false,
      "t": 76308,
      "d": 212,
      "v": 82
    },
    {
      "midi": 43,
      "hit": false,
      "t": 76560,
      "d": 120,
      "v": 68
    },
    {
      "midi": 48,
      "hit": false,
      "t": 76800,
      "d": 616,
      "v": 37
    },
    {
      "midi": 64,
      "hit": false,
      "t": 76800,
      "d": 676,
      "v": 58
    },
    {
      "midi": 60,
      "hit": false,
      "t": 76800,
      "d": 704,
      "v": 47
    },
    {
      "midi": 67,
      "hit": false,
      "t": 76800,
      "d": 716,
      "v": 51
    },
    {
      "midi": 55,
      "hit": false,
      "t": 76800,
      "d": 736,
      "v": 43
    },
    {
      "midi": 36,
      "hit": false,
      "t": 76808,
      "d": 1472,
      "v": 24
    },
    {
      "midi": 36,
      "hit": false,
      "t": 76812,
      "d": 596,
      "v": 70
    },
    {
      "midi": 36,
      "hit": false,
      "t": 77528,
      "d": 108,
      "v": 58
    },
    {
      "midi": 48,
      "hit": false,
      "t": 77528,
      "d": 372,
      "v": 55
    },
    {
      "midi": 67,
      "hit": false,
      "t": 77752,
      "d": 236,
      "v": 60
    },
    {
      "midi": 55,
      "hit": false,
      "t": 77752,
      "d": 252,
      "v": 52
    },
    {
      "midi": 60,
      "hit": false,
      "t": 77760,
      "d": 236,
      "v": 68
    },
    {
      "midi": 64,
      "hit": false,
      "t": 77764,
      "d": 224,
      "v": 60
    },
    {
      "midi": 36,
      "hit": false,
      "t": 77772,
      "d": 608,
      "v": 64
    },
    {
      "midi": 48,
      "hit": false,
      "t": 78148,
      "d": 40,
      "v": 41
    },
    {
      "midi": 67,
      "hit": false,
      "t": 78220,
      "d": 204,
      "v": 80
    },
    {
      "midi": 64,
      "hit": false,
      "t": 78224,
      "d": 204,
      "v": 82
    },
    {
      "midi": 55,
      "hit": false,
      "t": 78228,
      "d": 212,
      "v": 68
    },
    {
      "midi": 60,
      "hit": false,
      "t": 78228,
      "d": 212,
      "v": 82
    },
    {
      "midi": 36,
      "hit": false,
      "t": 78480,
      "d": 120,
      "v": 68
    },
    {
      "midi": 40,
      "hit": false,
      "t": 78740,
      "d": 652,
      "v": 68
    },
    {
      "midi": 76,
      "hit": false,
      "t": 78740,
      "d": 864,
      "v": 48
    },
    {
      "midi": 71,
      "hit": false,
      "t": 78744,
      "d": 840,
      "v": 61
    },
    {
      "midi": 52,
      "hit": false,
      "t": 78744,
      "d": 1676,
      "v": 46
    },
    {
      "midi": 64,
      "hit": false,
      "t": 78748,
      "d": 544,
      "v": 37
    },
    {
      "midi": 67,
      "hit": false,
      "t": 78748,
      "d": 780,
      "v": 43
    },
    {
      "midi": 64,
      "hit": false,
      "t": 79444,
      "d": 964,
      "v": 60
    },
    {
      "midi": 35,
      "hit": false,
      "t": 79452,
      "d": 52,
      "v": 59
    },
    {
      "midi": 36,
      "hit": false,
      "t": 79548,
      "d": 80,
      "v": 82
    },
    {
      "midi": 40,
      "hit": false,
      "t": 79688,
      "d": 572,
      "v": 78
    },
    {
      "midi": 67,
      "hit": false,
      "t": 79916,
      "d": 448,
      "v": 41
    },
    {
      "midi": 76,
      "hit": false,
      "t": 80144,
      "d": 208,
      "v": 85
    },
    {
      "midi": 71,
      "hit": false,
      "t": 80148,
      "d": 212,
      "v": 59
    },
    {
      "midi": 40,
      "hit": false,
      "t": 80388,
      "d": 88,
      "v": 58
    },
    {
      "midi": 57,
      "hit": false,
      "t": 80640,
      "d": 360,
      "v": 60
    },
    {
      "midi": 65,
      "hit": false,
      "t": 80648,
      "d": 384,
      "v": 70
    },
    {
      "midi": 50,
      "hit": false,
      "t": 80652,
      "d": 168,
      "v": 52
    },
    {
      "midi": 38,
      "hit": false,
      "t": 80652,
      "d": 1764,
      "v": 41
    },
    {
      "midi": 69,
      "hit": false,
      "t": 80656,
      "d": 392,
      "v": 59
    },
    {
      "midi": 62,
      "hit": false,
      "t": 80656,
      "d": 400,
      "v": 68
    },
    {
      "midi": 38,
      "hit": false,
      "t": 80660,
      "d": 652,
      "v": 68
    },
    {
      "midi": 50,
      "hit": false,
      "t": 80888,
      "d": 628,
      "v": 47
    },
    {
      "midi": 57,
      "hit": false,
      "t": 81132,
      "d": 728,
      "v": 58
    },
    {
      "midi": 65,
      "hit": false,
      "t": 81348,
      "d": 532,
      "v": 60
    },
    {
      "midi": 62,
      "hit": false,
      "t": 81356,
      "d": 544,
      "v": 54
    },
    {
      "midi": 69,
      "hit": false,
      "t": 81368,
      "d": 532,
      "v": 57
    },
    {
      "midi": 33,
      "hit": false,
      "t": 81372,
      "d": 52,
      "v": 59
    },
    {
      "midi": 35,
      "hit": false,
      "t": 81468,
      "d": 80,
      "v": 82
    },
    {
      "midi": 38,
      "hit": false,
      "t": 81608,
      "d": 572,
      "v": 78
    },
    {
      "midi": 50,
      "hit": false,
      "t": 81836,
      "d": 592,
      "v": 87
    },
    {
      "midi": 57,
      "hit": false,
      "t": 81956,
      "d": 492,
      "v": 78
    },
    {
      "midi": 62,
      "hit": false,
      "t": 82080,
      "d": 368,
      "v": 61
    },
    {
      "midi": 65,
      "hit": false,
      "t": 82200,
      "d": 220,
      "v": 70
    },
    {
      "midi": 38,
      "hit": false,
      "t": 82308,
      "d": 88,
      "v": 58
    },
    {
      "midi": 69,
      "hit": false,
      "t": 82332,
      "d": 116,
      "v": 80
    },
    {
      "midi": 67,
      "hit": false,
      "t": 82560,
      "d": 1804,
      "v": 53
    },
    {
      "midi": 74,
      "hit": false,
      "t": 82560,
      "d": 1812,
      "v": 53
    },
    {
      "midi": 79,
      "hit": false,
      "t": 82560,
      "d": 1812,
      "v": 53
    },
    {
      "midi": 59,
      "hit": false,
      "t": 82560,
      "d": 1820,
      "v": 46
    },
    {
      "midi": 43,
      "hit": false,
      "t": 82572,
      "d": 596,
      "v": 70
    },
    {
      "midi": 83,
      "hit": false,
      "t": 82600,
      "d": 1772,
      "v": 59
    },
    {
      "midi": 43,
      "hit": false,
      "t": 83288,
      "d": 108,
      "v": 58
    },
    {
      "midi": 43,
      "hit": false,
      "t": 83532,
      "d": 608,
      "v": 64
    },
    {
      "midi": 43,
      "hit": false,
      "t": 84240,
      "d": 120,
      "v": 68
    },
    {
      "midi": 36,
      "hit": false,
      "t": 84480,
      "d": 620,
      "v": 70
    },
    {
      "midi": 60,
      "hit": false,
      "t": 84488,
      "d": 488,
      "v": 68
    },
    {
      "midi": 64,
      "hit": false,
      "t": 84488,
      "d": 524,
      "v": 53
    },
    {
      "midi": 55,
      "hit": false,
      "t": 84492,
      "d": 420,
      "v": 53
    },
    {
      "midi": 48,
      "hit": false,
      "t": 84492,
      "d": 1840,
      "v": 52
    },
    {
      "midi": 36,
      "hit": false,
      "t": 84748,
      "d": 3172,
      "v": 53
    },
    {
      "midi": 55,
      "hit": false,
      "t": 84976,
      "d": 920,
      "v": 52
    },
    {
      "midi": 36,
      "hit": false,
      "t": 85208,
      "d": 72,
      "v": 82
    },
    {
      "midi": 60,
      "hit": false,
      "t": 85212,
      "d": 636,
      "v": 68
    },
    {
      "midi": 64,
      "hit": false,
      "t": 85220,
      "d": 624,
      "v": 55
    },
    {
      "midi": 36,
      "hit": false,
      "t": 85448,
      "d": 592,
      "v": 82
    },
    {
      "midi": 55,
      "hit": false,
      "t": 86064,
      "d": 1452,
      "v": 64
    },
    {
      "midi": 36,
      "hit": false,
      "t": 86148,
      "d": 68,
      "v": 60
    },
    {
      "midi": 60,
      "hit": false,
      "t": 86180,
      "d": 516,
      "v": 66
    },
    {
      "midi": 36,
      "hit": false,
      "t": 86388,
      "d": 872,
      "v": 63
    },
    {
      "midi": 64,
      "hit": false,
      "t": 86416,
      "d": 276,
      "v": 64
    },
    {
      "midi": 48,
      "hit": false,
      "t": 86420,
      "d": 984,
      "v": 55
    },
    {
      "midi": 60,
      "hit": false,
      "t": 86856,
      "d": 640,
      "v": 51
    },
    {
      "midi": 64,
      "hit": false,
      "t": 87116,
      "d": 360,
      "v": 63
    },
    {
      "midi": 31,
      "hit": false,
      "t": 87256,
      "d": 88,
      "v": 42
    },
    {
      "midi": 36,
      "hit": false,
      "t": 87352,
      "d": 84,
      "v": 78
    },
    {
      "midi": 48,
      "hit": false,
      "t": 87604,
      "d": 336,
      "v": 80
    },
    {
      "midi": 36,
      "hit": false,
      "t": 87620,
      "d": 328,
      "v": 78
    },
    {
      "midi": 60,
      "hit": false,
      "t": 87848,
      "d": 316,
      "v": 72
    },
    {
      "midi": 55,
      "hit": false,
      "t": 87852,
      "d": 320,
      "v": 60
    },
    {
      "midi": 64,
      "hit": false,
      "t": 87856,
      "d": 312,
      "v": 58
    },
    {
      "midi": 36,
      "hit": false,
      "t": 88088,
      "d": 132,
      "v": 78
    },
    {
      "midi": 69,
      "hit": false,
      "t": 88320,
      "d": 1804,
      "v": 47
    },
    {
      "midi": 74,
      "hit": false,
      "t": 88320,
      "d": 1812,
      "v": 53
    },
    {
      "midi": 81,
      "hit": false,
      "t": 88320,
      "d": 1812,
      "v": 53
    },
    {
      "midi": 59,
      "hit": false,
      "t": 88320,
      "d": 1820,
      "v": 46
    },
    {
      "midi": 65,
      "hit": false,
      "t": 88320,
      "d": 1820,
      "v": 53
    },
    {
      "midi": 43,
      "hit": false,
      "t": 88340,
      "d": 652,
      "v": 68
    },
    {
      "midi": 83,
      "hit": false,
      "t": 88360,
      "d": 1772,
      "v": 59
    },
    {
      "midi": 38,
      "hit": false,
      "t": 89052,
      "d": 52,
      "v": 59
    },
    {
      "midi": 40,
      "hit": false,
      "t": 89148,
      "d": 80,
      "v": 82
    },
    {
      "midi": 43,
      "hit": false,
      "t": 89288,
      "d": 572,
      "v": 78
    },
    {
      "midi": 43,
      "hit": false,
      "t": 89988,
      "d": 88,
      "v": 58
    },
    {
      "midi": 43,
      "hit": false,
      "t": 90240,
      "d": 600,
      "v": 72
    },
    {
      "midi": 43,
      "hit": false,
      "t": 90240,
      "d": 616,
      "v": 37
    },
    {
      "midi": 67,
      "hit": false,
      "t": 90240,
      "d": 676,
      "v": 58
    },
    {
      "midi": 62,
      "hit": false,
      "t": 90240,
      "d": 704,
      "v": 47
    },
    {
      "midi": 71,
      "hit": false,
      "t": 90240,
      "d": 716,
      "v": 51
    },
    {
      "midi": 59,
      "hit": false,
      "t": 90240,
      "d": 736,
      "v": 43
    },
    {
      "midi": 43,
      "hit": false,
      "t": 90956,
      "d": 76,
      "v": 62
    },
    {
      "midi": 43,
      "hit": false,
      "t": 90968,
      "d": 372,
      "v": 55
    },
    {
      "midi": 71,
      "hit": false,
      "t": 91192,
      "d": 236,
      "v": 60
    },
    {
      "midi": 59,
      "hit": false,
      "t": 91192,
      "d": 252,
      "v": 52
    },
    {
      "midi": 43,
      "hit": false,
      "t": 91196,
      "d": 84,
      "v": 52
    },
    {
      "midi": 62,
      "hit": false,
      "t": 91200,
      "d": 236,
      "v": 68
    },
    {
      "midi": 67,
      "hit": false,
      "t": 91204,
      "d": 224,
      "v": 60
    },
    {
      "midi": 43,
      "hit": false,
      "t": 91440,
      "d": 384,
      "v": 61
    },
    {
      "midi": 43,
      "hit": false,
      "t": 91588,
      "d": 40,
      "v": 41
    },
    {
      "midi": 71,
      "hit": false,
      "t": 91660,
      "d": 204,
      "v": 80
    },
    {
      "midi": 67,
      "hit": false,
      "t": 91664,
      "d": 204,
      "v": 82
    },
    {
      "midi": 59,
      "hit": false,
      "t": 91668,
      "d": 212,
      "v": 68
    },
    {
      "midi": 62,
      "hit": false,
      "t": 91668,
      "d": 212,
      "v": 82
    },
    {
      "midi": 43,
      "hit": false,
      "t": 91936,
      "d": 144,
      "v": 68
    },
    {
      "midi": 36,
      "hit": false,
      "t": 92160,
      "d": 600,
      "v": 72
    },
    {
      "midi": 55,
      "hit": false,
      "t": 92160,
      "d": 360,
      "v": 60
    },
    {
      "midi": 64,
      "hit": false,
      "t": 92168,
      "d": 384,
      "v": 70
    },
    {
      "midi": 48,
      "hit": false,
      "t": 92172,
      "d": 168,
      "v": 52
    },
    {
      "midi": 36,
      "hit": false,
      "t": 92172,
      "d": 1764,
      "v": 41
    },
    {
      "midi": 67,
      "hit": false,
      "t": 92176,
      "d": 392,
      "v": 59
    },
    {
      "midi": 60,
      "hit": false,
      "t": 92176,
      "d": 400,
      "v": 68
    },
    {
      "midi": 48,
      "hit": false,
      "t": 92408,
      "d": 628,
      "v": 47
    },
    {
      "midi": 55,
      "hit": false,
      "t": 92652,
      "d": 728,
      "v": 58
    },
    {
      "midi": 64,
      "hit": false,
      "t": 92868,
      "d": 532,
      "v": 60
    },
    {
      "midi": 36,
      "hit": false,
      "t": 92876,
      "d": 76,
      "v": 62
    },
    {
      "midi": 60,
      "hit": false,
      "t": 92876,
      "d": 544,
      "v": 54
    },
    {
      "midi": 67,
      "hit": false,
      "t": 92888,
      "d": 532,
      "v": 57
    },
    {
      "midi": 36,
      "hit": false,
      "t": 93116,
      "d": 84,
      "v": 52
    },
    {
      "midi": 48,
      "hit": false,
      "t": 93356,
      "d": 592,
      "v": 87
    },
    {
      "midi": 36,
      "hit": false,
      "t": 93360,
      "d": 384,
      "v": 61
    },
    {
      "midi": 55,
      "hit": false,
      "t": 93476,
      "d": 492,
      "v": 78
    },
    {
      "midi": 60,
      "hit": false,
      "t": 93600,
      "d": 368,
      "v": 61
    },
    {
      "midi": 64,
      "hit": false,
      "t": 93720,
      "d": 220,
      "v": 70
    },
    {
      "midi": 67,
      "hit": false,
      "t": 93852,
      "d": 116,
      "v": 80
    },
    {
      "midi": 36,
      "hit": false,
      "t": 93856,
      "d": 144,
      "v": 68
    },
    {
      "midi": 40,
      "hit": false,
      "t": 94100,
      "d": 652,
      "v": 68
    },
    {
      "midi": 76,
      "hit": false,
      "t": 94100,
      "d": 864,
      "v": 48
    },
    {
      "midi": 71,
      "hit": false,
      "t": 94104,
      "d": 840,
      "v": 61
    },
    {
      "midi": 52,
      "hit": false,
      "t": 94104,
      "d": 1676,
      "v": 46
    },
    {
      "midi": 64,
      "hit": false,
      "t": 94108,
      "d": 544,
      "v": 37
    },
    {
      "midi": 67,
      "hit": false,
      "t": 94108,
      "d": 780,
      "v": 43
    },
    {
      "midi": 64,
      "hit": false,
      "t": 94804,
      "d": 964,
      "v": 60
    },
    {
      "midi": 35,
      "hit": false,
      "t": 94812,
      "d": 52,
      "v": 59
    },
    {
      "midi": 36,
      "hit": false,
      "t": 94908,
      "d": 80,
      "v": 82
    },
    {
      "midi": 40,
      "hit": false,
      "t": 95048,
      "d": 572,
      "v": 78
    },
    {
      "midi": 67,
      "hit": false,
      "t": 95276,
      "d": 448,
      "v": 41
    },
    {
      "midi": 76,
      "hit": false,
      "t": 95504,
      "d": 208,
      "v": 85
    },
    {
      "midi": 71,
      "hit": false,
      "t": 95508,
      "d": 212,
      "v": 59
    },
    {
      "midi": 40,
      "hit": false,
      "t": 95748,
      "d": 88,
      "v": 58
    },
    {
      "midi": 53,
      "hit": false,
      "t": 96000,
      "d": 360,
      "v": 60
    },
    {
      "midi": 60,
      "hit": false,
      "t": 96008,
      "d": 384,
      "v": 70
    },
    {
      "midi": 41,
      "hit": false,
      "t": 96012,
      "d": 596,
      "v": 70
    },
    {
      "midi": 41,
      "hit": false,
      "t": 96012,
      "d": 168,
      "v": 41
    },
    {
      "midi": 62,
      "hit": false,
      "t": 96016,
      "d": 392,
      "v": 59
    },
    {
      "midi": 57,
      "hit": false,
      "t": 96016,
      "d": 400,
      "v": 68
    },
    {
      "midi": 41,
      "hit": false,
      "t": 96248,
      "d": 628,
      "v": 47
    },
    {
      "midi": 53,
      "hit": false,
      "t": 96492,
      "d": 728,
      "v": 58
    },
    {
      "midi": 60,
      "hit": false,
      "t": 96708,
      "d": 532,
      "v": 60
    },
    {
      "midi": 57,
      "hit": false,
      "t": 96716,
      "d": 544,
      "v": 54
    },
    {
      "midi": 41,
      "hit": false,
      "t": 96728,
      "d": 108,
      "v": 58
    },
    {
      "midi": 62,
      "hit": false,
      "t": 96728,
      "d": 532,
      "v": 57
    },
    {
      "midi": 41,
      "hit": false,
      "t": 96972,
      "d": 608,
      "v": 64
    },
    {
      "midi": 41,
      "hit": false,
      "t": 97196,
      "d": 580,
      "v": 87
    },
    {
      "midi": 53,
      "hit": false,
      "t": 97316,
      "d": 492,
      "v": 78
    },
    {
      "midi": 57,
      "hit": false,
      "t": 97440,
      "d": 368,
      "v": 61
    },
    {
      "midi": 60,
      "hit": false,
      "t": 97560,
      "d": 220,
      "v": 70
    },
    {
      "midi": 41,
      "hit": false,
      "t": 97680,
      "d": 120,
      "v": 68
    },
    {
      "midi": 62,
      "hit": false,
      "t": 97692,
      "d": 116,
      "v": 80
    },
    {
      "midi": 45,
      "hit": false,
      "t": 97932,
      "d": 936,
      "v": 44
    },
    {
      "midi": 33,
      "hit": false,
      "t": 97940,
      "d": 652,
      "v": 68
    },
    {
      "midi": 57,
      "hit": false,
      "t": 97940,
      "d": 360,
      "v": 37
    },
    {
      "midi": 64,
      "hit": false,
      "t": 97944,
      "d": 400,
      "v": 42
    },
    {
      "midi": 60,
      "hit": false,
      "t": 97948,
      "d": 380,
      "v": 49
    },
    {
      "midi": 57,
      "hit": false,
      "t": 98420,
      "d": 624,
      "v": 52
    },
    {
      "midi": 28,
      "hit": false,
      "t": 98652,
      "d": 52,
      "v": 59
    },
    {
      "midi": 29,
      "hit": false,
      "t": 98748,
      "d": 80,
      "v": 82
    },
    {
      "midi": 33,
      "hit": false,
      "t": 98888,
      "d": 572,
      "v": 78
    },
    {
      "midi": 45,
      "hit": false,
      "t": 99116,
      "d": 332,
      "v": 87
    },
    {
      "midi": 57,
      "hit": false,
      "t": 99348,
      "d": 320,
      "v": 48
    },
    {
      "midi": 60,
      "hit": false,
      "t": 99352,
      "d": 308,
      "v": 59
    },
    {
      "midi": 64,
      "hit": false,
      "t": 99352,
      "d": 308,
      "v": 50
    },
    {
      "midi": 33,
      "hit": false,
      "t": 99588,
      "d": 88,
      "v": 58
    },
    {
      "midi": 43,
      "hit": false,
      "t": 99840,
      "d": 620,
      "v": 70
    },
    {
      "midi": 77,
      "hit": false,
      "t": 99840,
      "d": 492,
      "v": 57
    },
    {
      "midi": 79,
      "hit": false,
      "t": 99848,
      "d": 520,
      "v": 61
    },
    {
      "midi": 43,
      "hit": false,
      "t": 99848,
      "d": 1848,
      "v": 62
    },
    {
      "midi": 71,
      "hit": false,
      "t": 99852,
      "d": 416,
      "v": 52
    },
    {
      "midi": 74,
      "hit": false,
      "t": 99852,
      "d": 440,
      "v": 59
    },
    {
      "midi": 67,
      "hit": false,
      "t": 100100,
      "d": 1948,
      "v": 33
    },
    {
      "midi": 71,
      "hit": false,
      "t": 100348,
      "d": 188,
      "v": 59
    },
    {
      "midi": 79,
      "hit": false,
      "t": 100412,
      "d": 68,
      "v": 10
    },
    {
      "midi": 43,
      "hit": false,
      "t": 100568,
      "d": 72,
      "v": 82
    },
    {
      "midi": 79,
      "hit": false,
      "t": 100572,
      "d": 452,
      "v": 57
    },
    {
      "midi": 71,
      "hit": false,
      "t": 100572,
      "d": 500,
      "v": 37
    },
    {
      "midi": 77,
      "hit": false,
      "t": 100580,
      "d": 556,
      "v": 60
    },
    {
      "midi": 74,
      "hit": false,
      "t": 100584,
      "d": 472,
      "v": 68
    },
    {
      "midi": 43,
      "hit": false,
      "t": 100808,
      "d": 592,
      "v": 82
    },
    {
      "midi": 62,
      "hit": false,
      "t": 101304,
      "d": 464,
      "v": 61
    },
    {
      "midi": 43,
      "hit": false,
      "t": 101508,
      "d": 68,
      "v": 60
    },
    {
      "midi": 79,
      "hit": false,
      "t": 101612,
      "d": 460,
      "v": 28
    },
    {
      "midi": 77,
      "hit": false,
      "t": 101660,
      "d": 256,
      "v": 53
    },
    {
      "midi": 74,
      "hit": false,
      "t": 101704,
      "d": 304,
      "v": 59
    },
    {
      "midi": 43,
      "hit": false,
      "t": 101748,
      "d": 872,
      "v": 63
    },
    {
      "midi": 43,
      "hit": false,
      "t": 101756,
      "d": 1488,
      "v": 63
    },
    {
      "midi": 71,
      "hit": false,
      "t": 101772,
      "d": 336,
      "v": 78
    },
    {
      "midi": 62,
      "hit": false,
      "t": 102008,
      "d": 484,
      "v": 62
    },
    {
      "midi": 67,
      "hit": false,
      "t": 102248,
      "d": 84,
      "v": 43
    },
    {
      "midi": 71,
      "hit": false,
      "t": 102480,
      "d": 448,
      "v": 62
    },
    {
      "midi": 67,
      "hit": false,
      "t": 102488,
      "d": 436,
      "v": 58
    },
    {
      "midi": 38,
      "hit": false,
      "t": 102616,
      "d": 88,
      "v": 42
    },
    {
      "midi": 43,
      "hit": false,
      "t": 102712,
      "d": 84,
      "v": 78
    },
    {
      "midi": 62,
      "hit": false,
      "t": 102968,
      "d": 276,
      "v": 68
    },
    {
      "midi": 43,
      "hit": false,
      "t": 102980,
      "d": 328,
      "v": 78
    },
    {
      "midi": 71,
      "hit": false,
      "t": 103208,
      "d": 224,
      "v": 72
    },
    {
      "midi": 74,
      "hit": false,
      "t": 103208,
      "d": 228,
      "v": 78
    },
    {
      "midi": 67,
      "hit": false,
      "t": 103212,
      "d": 220,
      "v": 60
    },
    {
      "midi": 43,
      "hit": false,
      "t": 103448,
      "d": 132,
      "v": 78
    },
    {
      "midi": 53,
      "hit": false,
      "t": 103692,
      "d": 936,
      "v": 44
    },
    {
      "midi": 41,
      "hit": false,
      "t": 103700,
      "d": 652,
      "v": 68
    },
    {
      "midi": 65,
      "hit": false,
      "t": 103700,
      "d": 360,
      "v": 37
    },
    {
      "midi": 72,
      "hit": false,
      "t": 103704,
      "d": 400,
      "v": 42
    },
    {
      "midi": 69,
      "hit": false,
      "t": 103708,
      "d": 380,
      "v": 49
    },
    {
      "midi": 41,
      "hit": false,
      "t": 103936,
      "d": 1272,
      "v": 37
    },
    {
      "midi": 65,
      "hit": false,
      "t": 104180,
      "d": 624,
      "v": 52
    },
    {
      "midi": 36,
      "hit": false,
      "t": 104412,
      "d": 52,
      "v": 59
    },
    {
      "midi": 38,
      "hit": false,
      "t": 104508,
      "d": 80,
      "v": 82
    },
    {
      "midi": 41,
      "hit": false,
      "t": 104648,
      "d": 572,
      "v": 78
    },
    {
      "midi": 53,
      "hit": false,
      "t": 104876,
      "d": 460,
      "v": 87
    },
    {
      "midi": 65,
      "hit": false,
      "t": 105108,
      "d": 320,
      "v": 48
    },
    {
      "midi": 69,
      "hit": false,
      "t": 105112,
      "d": 308,
      "v": 59
    },
    {
      "midi": 72,
      "hit": false,
      "t": 105112,
      "d": 308,
      "v": 50
    },
    {
      "midi": 41,
      "hit": false,
      "t": 105348,
      "d": 88,
      "v": 58
    },
    {
      "midi": 59,
      "hit": false,
      "t": 105600,
      "d": 360,
      "v": 60
    },
    {
      "midi": 67,
      "hit": false,
      "t": 105608,
      "d": 384,
      "v": 70
    },
    {
      "midi": 43,
      "hit": false,
      "t": 105612,
      "d": 168,
      "v": 41
    },
    {
      "midi": 71,
      "hit": false,
      "t": 105616,
      "d": 392,
      "v": 59
    },
    {
      "midi": 62,
      "hit": false,
      "t": 105616,
      "d": 400,
      "v": 68
    },
    {
      "midi": 43,
      "hit": false,
      "t": 105620,
      "d": 652,
      "v": 68
    },
    {
      "midi": 43,
      "hit": false,
      "t": 105848,
      "d": 628,
      "v": 47
    },
    {
      "midi": 59,
      "hit": false,
      "t": 106092,
      "d": 728,
      "v": 58
    },
    {
      "midi": 67,
      "hit": false,
      "t": 106308,
      "d": 532,
      "v": 60
    },
    {
      "midi": 62,
      "hit": false,
      "t": 106316,
      "d": 544,
      "v": 54
    },
    {
      "midi": 71,
      "hit": false,
      "t": 106328,
      "d": 532,
      "v": 57
    },
    {
      "midi": 38,
      "hit": false,
      "t": 106332,
      "d": 52,
      "v": 59
    },
    {
      "midi": 40,
      "hit": false,
      "t": 106428,
      "d": 80,
      "v": 82
    },
    {
      "midi": 43,
      "hit": false,
      "t": 106568,
      "d": 572,
      "v": 78
    },
    {
      "midi": 43,
      "hit": false,
      "t": 106796,
      "d": 580,
      "v": 87
    },
    {
      "midi": 59,
      "hit": false,
      "t": 106916,
      "d": 492,
      "v": 78
    },
    {
      "midi": 62,
      "hit": false,
      "t": 107040,
      "d": 368,
      "v": 61
    },
    {
      "midi": 67,
      "hit": false,
      "t": 107160,
      "d": 220,
      "v": 70
    },
    {
      "midi": 43,
      "hit": false,
      "t": 107268,
      "d": 88,
      "v": 58
    },
    {
      "midi": 71,
      "hit": false,
      "t": 107292,
      "d": 116,
      "v": 80
    },
    {
      "midi": 36,
      "hit": false,
      "t": 107520,
      "d": 616,
      "v": 64
    },
    {
      "midi": 71,
      "hit": false,
      "t": 107520,
      "d": 492,
      "v": 57
    },
    {
      "midi": 74,
      "hit": false,
      "t": 107528,
      "d": 520,
      "v": 61
    },
    {
      "midi": 48,
      "hit": false,
      "t": 107528,
      "d": 1848,
      "v": 62
    },
    {
      "midi": 64,
      "hit": false,
      "t": 107532,
      "d": 416,
      "v": 52
    },
    {
      "midi": 67,
      "hit": false,
      "t": 107532,
      "d": 440,
      "v": 59
    },
    {
      "midi": 60,
      "hit": false,
      "t": 107780,
      "d": 1948,
      "v": 33
    },
    {
      "midi": 64,
      "hit": false,
      "t": 108028,
      "d": 188,
      "v": 59
    },
    {
      "midi": 74,
      "hit": false,
      "t": 108092,
      "d": 68,
      "v": 10
    },
    {
      "midi": 36,
      "hit": false,
      "t": 108252,
      "d": 80,
      "v": 66
    },
    {
      "midi": 74,
      "hit": false,
      "t": 108252,
      "d": 452,
      "v": 57
    },
    {
      "midi": 64,
      "hit": false,
      "t": 108252,
      "d": 500,
      "v": 37
    },
    {
      "midi": 71,
      "hit": false,
      "t": 108260,
      "d": 556,
      "v": 60
    },
    {
      "midi": 67,
      "hit": false,
      "t": 108264,
      "d": 472,
      "v": 68
    },
    {
      "midi": 36,
      "hit": false,
      "t": 108500,
      "d": 640,
      "v": 60
    },
    {
      "midi": 55,
      "hit": false,
      "t": 108984,
      "d": 464,
      "v": 61
    },
    {
      "midi": 31,
      "hit": false,
      "t": 109208,
      "d": 108,
      "v": 58
    },
    {
      "midi": 74,
      "hit": false,
      "t": 109292,
      "d": 460,
      "v": 28
    },
    {
      "midi": 33,
      "hit": false,
      "t": 109316,
      "d": 100,
      "v": 61
    },
    {
      "midi": 71,
      "hit": false,
      "t": 109340,
      "d": 256,
      "v": 53
    },
    {
      "midi": 67,
      "hit": false,
      "t": 109384,
      "d": 304,
      "v": 59
    },
    {
      "midi": 48,
      "hit": false,
      "t": 109436,
      "d": 1488,
      "v": 63
    },
    {
      "midi": 36,
      "hit": false,
      "t": 109448,
      "d": 760,
      "v": 57
    },
    {
      "midi": 64,
      "hit": false,
      "t": 109452,
      "d": 336,
      "v": 78
    },
    {
      "midi": 55,
      "hit": false,
      "t": 109688,
      "d": 484,
      "v": 62
    },
    {
      "midi": 60,
      "hit": false,
      "t": 109928,
      "d": 84,
      "v": 43
    },
    {
      "midi": 64,
      "hit": false,
      "t": 110160,
      "d": 448,
      "v": 62
    },
    {
      "midi": 60,
      "hit": false,
      "t": 110168,
      "d": 436,
      "v": 58
    },
    {
      "midi": 36,
      "hit": false,
      "t": 110296,
      "d": 64,
      "v": 51
    },
    {
      "midi": 36,
      "hit": false,
      "t": 110428,
      "d": 40,
      "v": 70
    },
    {
      "midi": 36,
      "hit": false,
      "t": 110648,
      "d": 368,
      "v": 85
    },
    {
      "midi": 55,
      "hit": false,
      "t": 110648,
      "d": 276,
      "v": 68
    },
    {
      "midi": 64,
      "hit": false,
      "t": 110888,
      "d": 224,
      "v": 72
    },
    {
      "midi": 67,
      "hit": false,
      "t": 110888,
      "d": 228,
      "v": 78
    },
    {
      "midi": 60,
      "hit": false,
      "t": 110892,
      "d": 220,
      "v": 60
    },
    {
      "midi": 36,
      "hit": false,
      "t": 111116,
      "d": 160,
      "v": 78
    },
    {
      "midi": 62,
      "hit": false,
      "t": 111360,
      "d": 156,
      "v": 39
    },
    {
      "midi": 65,
      "hit": false,
      "t": 111360,
      "d": 276,
      "v": 47
    },
    {
      "midi": 69,
      "hit": false,
      "t": 111360,
      "d": 308,
      "v": 62
    },
    {
      "midi": 74,
      "hit": false,
      "t": 111364,
      "d": 312,
      "v": 58
    },
    {
      "midi": 53,
      "hit": false,
      "t": 111368,
      "d": 1548,
      "v": 52
    },
    {
      "midi": 38,
      "hit": false,
      "t": 111380,
      "d": 652,
      "v": 68
    },
    {
      "midi": 50,
      "hit": false,
      "t": 111384,
      "d": 1676,
      "v": 50
    },
    {
      "midi": 62,
      "hit": false,
      "t": 111608,
      "d": 572,
      "v": 26
    },
    {
      "midi": 65,
      "hit": false,
      "t": 111840,
      "d": 200,
      "v": 47
    },
    {
      "midi": 33,
      "hit": false,
      "t": 112092,
      "d": 52,
      "v": 59
    },
    {
      "midi": 69,
      "hit": false,
      "t": 112100,
      "d": 84,
      "v": 25
    },
    {
      "midi": 35,
      "hit": false,
      "t": 112188,
      "d": 80,
      "v": 82
    },
    {
      "midi": 74,
      "hit": false,
      "t": 112312,
      "d": 68,
      "v": 54
    },
    {
      "midi": 38,
      "hit": false,
      "t": 112328,
      "d": 572,
      "v": 78
    },
    {
      "midi": 77,
      "hit": false,
      "t": 112572,
      "d": 216,
      "v": 60
    },
    {
      "midi": 62,
      "hit": false,
      "t": 112740,
      "d": 128,
      "v": 44
    },
    {
      "midi": 81,
      "hit": false,
      "t": 112796,
      "d": 96,
      "v": 85
    },
    {
      "midi": 77,
      "hit": false,
      "t": 112912,
      "d": 112,
      "v": 70
    },
    {
      "midi": 38,
      "hit": false,
      "t": 113028,
      "d": 88,
      "v": 58
    },
    {
      "midi": 74,
      "hit": false,
      "t": 113040,
      "d": 96,
      "v": 58
    },
    {
      "midi": 69,
      "hit": false,
      "t": 113180,
      "d": 28,
      "v": 36
    },
    {
      "midi": 43,
      "hit": false,
      "t": 113280,
      "d": 600,
      "v": 72
    },
    {
      "midi": 79,
      "hit": false,
      "t": 113300,
      "d": 864,
      "v": 48
    },
    {
      "midi": 74,
      "hit": false,
      "t": 113304,
      "d": 840,
      "v": 61
    },
    {
      "midi": 43,
      "hit": false,
      "t": 113304,
      "d": 1676,
      "v": 46
    },
    {
      "midi": 67,
      "hit": false,
      "t": 113308,
      "d": 544,
      "v": 37
    },
    {
      "midi": 71,
      "hit": false,
      "t": 113308,
      "d": 780,
      "v": 43
    },
    {
      "midi": 43,
      "hit": false,
      "t": 113996,
      "d": 76,
      "v": 62
    },
    {
      "midi": 67,
      "hit": false,
      "t": 114004,
      "d": 964,
      "v": 60
    },
    {
      "midi": 43,
      "hit": false,
      "t": 114236,
      "d": 84,
      "v": 52
    },
    {
      "midi": 71,
      "hit": false,
      "t": 114476,
      "d": 448,
      "v": 41
    },
    {
      "midi": 43,
      "hit": false,
      "t": 114480,
      "d": 384,
      "v": 61
    },
    {
      "midi": 79,
      "hit": false,
      "t": 114704,
      "d": 208,
      "v": 85
    },
    {
      "midi": 74,
      "hit": false,
      "t": 114708,
      "d": 212,
      "v": 59
    },
    {
      "midi": 43,
      "hit": false,
      "t": 114976,
      "d": 144,
      "v": 68
    },
    {
      "midi": 72,
      "hit": false,
      "t": 115200,
      "d": 492,
      "v": 57
    },
    {
      "midi": 48,
      "hit": false,
      "t": 115208,
      "d": 1848,
      "v": 62
    },
    {
      "midi": 64,
      "hit": false,
      "t": 115212,
      "d": 416,
      "v": 52
    },
    {
      "midi": 67,
      "hit": false,
      "t": 115212,
      "d": 440,
      "v": 59
    },
    {
      "midi": 36,
      "hit": false,
      "t": 115216,
      "d": 584,
      "v": 85
    },
    {
      "midi": 60,
      "hit": false,
      "t": 115460,
      "d": 1948,
      "v": 33
    },
    {
      "midi": 64,
      "hit": false,
      "t": 115708,
      "d": 188,
      "v": 59
    },
    {
      "midi": 72,
      "hit": false,
      "t": 115772,
      "d": 68,
      "v": 10
    },
    {
      "midi": 36,
      "hit": false,
      "t": 115928,
      "d": 84,
      "v": 62
    },
    {
      "midi": 72,
      "hit": false,
      "t": 115932,
      "d": 452,
      "v": 57
    },
    {
      "midi": 64,
      "hit": false,
      "t": 115932,
      "d": 500,
      "v": 37
    },
    {
      "midi": 67,
      "hit": false,
      "t": 115944,
      "d": 472,
      "v": 68
    },
    {
      "midi": 36,
      "hit": false,
      "t": 116172,
      "d": 616,
      "v": 72
    },
    {
      "midi": 55,
      "hit": false,
      "t": 116664,
      "d": 464,
      "v": 61
    },
    {
      "midi": 36,
      "hit": false,
      "t": 116912,
      "d": 76,
      "v": 76
    },
    {
      "midi": 72,
      "hit": false,
      "t": 116972,
      "d": 304,
      "v": 28
    },
    {
      "midi": 67,
      "hit": false,
      "t": 117064,
      "d": 304,
      "v": 59
    },
    {
      "midi": 48,
      "hit": false,
      "t": 117116,
      "d": 1488,
      "v": 63
    },
    {
      "midi": 64,
      "hit": false,
      "t": 117132,
      "d": 336,
      "v": 78
    },
    {
      "midi": 36,
      "hit": false,
      "t": 117144,
      "d": 620,
      "v": 87
    },
    {
      "midi": 55,
      "hit": false,
      "t": 117368,
      "d": 484,
      "v": 62
    },
    {
      "midi": 60,
      "hit": false,
      "t": 117608,
      "d": 84,
      "v": 43
    },
    {
      "midi": 64,
      "hit": false,
      "t": 117840,
      "d": 448,
      "v": 62
    },
    {
      "midi": 60,
      "hit": false,
      "t": 117848,
      "d": 436,
      "v": 58
    },
    {
      "midi": 36,
      "hit": false,
      "t": 117864,
      "d": 84,
      "v": 74
    },
    {
      "midi": 36,
      "hit": false,
      "t": 118092,
      "d": 700,
      "v": 82
    },
    {
      "midi": 55,
      "hit": false,
      "t": 118328,
      "d": 276,
      "v": 68
    },
    {
      "midi": 64,
      "hit": false,
      "t": 118568,
      "d": 224,
      "v": 72
    },
    {
      "midi": 67,
      "hit": false,
      "t": 118568,
      "d": 228,
      "v": 78
    },
    {
      "midi": 60,
      "hit": false,
      "t": 118572,
      "d": 220,
      "v": 60
    },
    {
      "midi": 31,
      "hit": false,
      "t": 118800,
      "d": 88,
      "v": 66
    },
    {
      "midi": 33,
      "hit": false,
      "t": 118908,
      "d": 108,
      "v": 68
    },
    {
      "midi": 41,
      "hit": false,
      "t": 119040,
      "d": 616,
      "v": 37
    },
    {
      "midi": 62,
      "hit": false,
      "t": 119040,
      "d": 676,
      "v": 58
    },
    {
      "midi": 60,
      "hit": false,
      "t": 119040,
      "d": 704,
      "v": 47
    },
    {
      "midi": 65,
      "hit": false,
      "t": 119040,
      "d": 716,
      "v": 51
    },
    {
      "midi": 57,
      "hit": false,
      "t": 119040,
      "d": 736,
      "v": 43
    },
    {
      "midi": 41,
      "hit": false,
      "t": 119060,
      "d": 652,
      "v": 68
    },
    {
      "midi": 41,
      "hit": false,
      "t": 119768,
      "d": 372,
      "v": 55
    },
    {
      "midi": 36,
      "hit": false,
      "t": 119772,
      "d": 52,
      "v": 59
    },
    {
      "midi": 38,
      "hit": false,
      "t": 119868,
      "d": 80,
      "v": 82
    },
    {
      "midi": 65,
      "hit": false,
      "t": 119992,
      "d": 236,
      "v": 60
    },
    {
      "midi": 57,
      "hit": false,
      "t": 119992,
      "d": 252,
      "v": 52
    },
    {
      "midi": 60,
      "hit": false,
      "t": 120000,
      "d": 236,
      "v": 68
    },
    {
      "midi": 62,
      "hit": false,
      "t": 120004,
      "d": 224,
      "v": 60
    },
    {
      "midi": 41,
      "hit": false,
      "t": 120008,
      "d": 572,
      "v": 78
    },
    {
      "midi": 41,
      "hit": false,
      "t": 120388,
      "d": 40,
      "v": 41
    },
    {
      "midi": 65,
      "hit": false,
      "t": 120460,
      "d": 204,
      "v": 80
    },
    {
      "midi": 62,
      "hit": false,
      "t": 120464,
      "d": 204,
      "v": 82
    },
    {
      "midi": 57,
      "hit": false,
      "t": 120468,
      "d": 212,
      "v": 68
    },
    {
      "midi": 60,
      "hit": false,
      "t": 120468,
      "d": 212,
      "v": 82
    },
    {
      "midi": 41,
      "hit": false,
      "t": 120708,
      "d": 88,
      "v": 58
    },
    {
      "midi": 67,
      "hit": false,
      "t": 120960,
      "d": 1804,
      "v": 53
    },
    {
      "midi": 74,
      "hit": false,
      "t": 120960,
      "d": 1812,
      "v": 53
    },
    {
      "midi": 79,
      "hit": false,
      "t": 120960,
      "d": 1812,
      "v": 53
    },
    {
      "midi": 59,
      "hit": false,
      "t": 120960,
      "d": 1820,
      "v": 46
    },
    {
      "midi": 43,
      "hit": false,
      "t": 120972,
      "d": 596,
      "v": 70
    },
    {
      "midi": 83,
      "hit": false,
      "t": 121000,
      "d": 1772,
      "v": 59
    },
    {
      "midi": 43,
      "hit": false,
      "t": 121688,
      "d": 108,
      "v": 58
    },
    {
      "midi": 43,
      "hit": false,
      "t": 121932,
      "d": 608,
      "v": 64
    },
    {
      "midi": 43,
      "hit": false,
      "t": 122640,
      "d": 120,
      "v": 68
    },
    {
      "midi": 48,
      "hit": false,
      "t": 122880,
      "d": 616,
      "v": 37
    },
    {
      "midi": 64,
      "hit": false,
      "t": 122880,
      "d": 676,
      "v": 58
    },
    {
      "midi": 60,
      "hit": false,
      "t": 122880,
      "d": 704,
      "v": 47
    },
    {
      "midi": 67,
      "hit": false,
      "t": 122880,
      "d": 716,
      "v": 51
    },
    {
      "midi": 55,
      "hit": false,
      "t": 122880,
      "d": 736,
      "v": 43
    },
    {
      "midi": 36,
      "hit": false,
      "t": 122888,
      "d": 1472,
      "v": 24
    },
    {
      "midi": 36,
      "hit": false,
      "t": 122892,
      "d": 596,
      "v": 70
    },
    {
      "midi": 36,
      "hit": false,
      "t": 123608,
      "d": 108,
      "v": 58
    },
    {
      "midi": 48,
      "hit": false,
      "t": 123608,
      "d": 372,
      "v": 55
    },
    {
      "midi": 67,
      "hit": false,
      "t": 123832,
      "d": 236,
      "v": 60
    },
    {
      "midi": 55,
      "hit": false,
      "t": 123832,
      "d": 252,
      "v": 52
    },
    {
      "midi": 60,
      "hit": false,
      "t": 123840,
      "d": 236,
      "v": 68
    },
    {
      "midi": 64,
      "hit": false,
      "t": 123844,
      "d": 224,
      "v": 60
    },
    {
      "midi": 36,
      "hit": false,
      "t": 123852,
      "d": 608,
      "v": 64
    },
    {
      "midi": 48,
      "hit": false,
      "t": 124228,
      "d": 40,
      "v": 41
    },
    {
      "midi": 67,
      "hit": false,
      "t": 124300,
      "d": 204,
      "v": 80
    },
    {
      "midi": 64,
      "hit": false,
      "t": 124304,
      "d": 204,
      "v": 82
    },
    {
      "midi": 55,
      "hit": false,
      "t": 124308,
      "d": 212,
      "v": 68
    },
    {
      "midi": 60,
      "hit": false,
      "t": 124308,
      "d": 212,
      "v": 82
    },
    {
      "midi": 36,
      "hit": false,
      "t": 124560,
      "d": 120,
      "v": 68
    },
    {
      "midi": 76,
      "hit": false,
      "t": 124800,
      "d": 324,
      "v": 60
    },
    {
      "midi": 67,
      "hit": false,
      "t": 124808,
      "d": 244,
      "v": 51
    },
    {
      "midi": 71,
      "hit": false,
      "t": 124808,
      "d": 312,
      "v": 66
    },
    {
      "midi": 64,
      "hit": false,
      "t": 124812,
      "d": 140,
      "v": 37
    },
    {
      "midi": 55,
      "hit": false,
      "t": 124812,
      "d": 584,
      "v": 50
    },
    {
      "midi": 52,
      "hit": false,
      "t": 124816,
      "d": 732,
      "v": 30
    },
    {
      "midi": 40,
      "hit": false,
      "t": 124824,
      "d": 64,
      "v": 63
    },
    {
      "midi": 64,
      "hit": false,
      "t": 125036,
      "d": 472,
      "v": 52
    },
    {
      "midi": 40,
      "hit": false,
      "t": 125048,
      "d": 356,
      "v": 63
    },
    {
      "midi": 67,
      "hit": false,
      "t": 125168,
      "d": 436,
      "v": 57
    },
    {
      "midi": 71,
      "hit": false,
      "t": 125288,
      "d": 304,
      "v": 76
    },
    {
      "midi": 40,
      "hit": false,
      "t": 125528,
      "d": 156,
      "v": 68
    },
    {
      "midi": 76,
      "hit": false,
      "t": 125544,
      "d": 72,
      "v": 59
    },
    {
      "midi": 39,
      "hit": false,
      "t": 125768,
      "d": 640,
      "v": 80
    },
    {
      "midi": 63,
      "hit": false,
      "t": 125772,
      "d": 240,
      "v": 68
    },
    {
      "midi": 51,
      "hit": false,
      "t": 125772,
      "d": 808,
      "v": 66
    },
    {
      "midi": 70,
      "hit": false,
      "t": 125776,
      "d": 244,
      "v": 56
    },
    {
      "midi": 66,
      "hit": false,
      "t": 125780,
      "d": 224,
      "v": 62
    },
    {
      "midi": 58,
      "hit": false,
      "t": 126032,
      "d": 552,
      "v": 51
    },
    {
      "midi": 70,
      "hit": false,
      "t": 126248,
      "d": 324,
      "v": 58
    },
    {
      "midi": 63,
      "hit": false,
      "t": 126252,
      "d": 320,
      "v": 46
    },
    {
      "midi": 66,
      "hit": false,
      "t": 126260,
      "d": 300,
      "v": 62
    },
    {
      "midi": 39,
      "hit": false,
      "t": 126492,
      "d": 104,
      "v": 68
    },
    {
      "midi": 50,
      "hit": false,
      "t": 126720,
      "d": 616,
      "v": 37
    },
    {
      "midi": 65,
      "hit": false,
      "t": 126720,
      "d": 676,
      "v": 58
    },
    {
      "midi": 62,
      "hit": false,
      "t": 126720,
      "d": 704,
      "v": 47
    },
    {
      "midi": 69,
      "hit": false,
      "t": 126720,
      "d": 716,
      "v": 51
    },
    {
      "midi": 57,
      "hit": false,
      "t": 126720,
      "d": 736,
      "v": 43
    },
    {
      "midi": 38,
      "hit": false,
      "t": 126728,
      "d": 1472,
      "v": 24
    },
    {
      "midi": 38,
      "hit": false,
      "t": 126740,
      "d": 652,
      "v": 68
    },
    {
      "midi": 50,
      "hit": false,
      "t": 127448,
      "d": 372,
      "v": 55
    },
    {
      "midi": 33,
      "hit": false,
      "t": 127452,
      "d": 52,
      "v": 59
    },
    {
      "midi": 35,
      "hit": false,
      "t": 127548,
      "d": 80,
      "v": 82
    },
    {
      "midi": 69,
      "hit": false,
      "t": 127672,
      "d": 236,
      "v": 60
    },
    {
      "midi": 57,
      "hit": false,
      "t": 127672,
      "d": 252,
      "v": 52
    },
    {
      "midi": 62,
      "hit": false,
      "t": 127680,
      "d": 236,
      "v": 68
    },
    {
      "midi": 65,
      "hit": false,
      "t": 127684,
      "d": 224,
      "v": 60
    },
    {
      "midi": 38,
      "hit": false,
      "t": 127688,
      "d": 572,
      "v": 78
    },
    {
      "midi": 50,
      "hit": false,
      "t": 128068,
      "d": 40,
      "v": 41
    },
    {
      "midi": 69,
      "hit": false,
      "t": 128140,
      "d": 204,
      "v": 80
    },
    {
      "midi": 65,
      "hit": false,
      "t": 128144,
      "d": 204,
      "v": 82
    },
    {
      "midi": 57,
      "hit": false,
      "t": 128148,
      "d": 212,
      "v": 68
    },
    {
      "midi": 62,
      "hit": false,
      "t": 128148,
      "d": 212,
      "v": 82
    },
    {
      "midi": 38,
      "hit": false,
      "t": 128388,
      "d": 88,
      "v": 58
    },
    {
      "midi": 41,
      "hit": false,
      "t": 128652,
      "d": 596,
      "v": 70
    },
    {
      "midi": 53,
      "hit": false,
      "t": 128652,
      "d": 936,
      "v": 44
    },
    {
      "midi": 65,
      "hit": false,
      "t": 128660,
      "d": 360,
      "v": 37
    },
    {
      "midi": 72,
      "hit": false,
      "t": 128664,
      "d": 400,
      "v": 42
    },
    {
      "midi": 69,
      "hit": false,
      "t": 128668,
      "d": 380,
      "v": 49
    },
    {
      "midi": 41,
      "hit": false,
      "t": 128896,
      "d": 1272,
      "v": 37
    },
    {
      "midi": 65,
      "hit": false,
      "t": 129140,
      "d": 624,
      "v": 52
    },
    {
      "midi": 41,
      "hit": false,
      "t": 129368,
      "d": 108,
      "v": 58
    },
    {
      "midi": 41,
      "hit": false,
      "t": 129612,
      "d": 608,
      "v": 64
    },
    {
      "midi": 53,
      "hit": false,
      "t": 129836,
      "d": 460,
      "v": 87
    },
    {
      "midi": 65,
      "hit": false,
      "t": 130068,
      "d": 320,
      "v": 48
    },
    {
      "midi": 69,
      "hit": false,
      "t": 130072,
      "d": 308,
      "v": 59
    },
    {
      "midi": 72,
      "hit": false,
      "t": 130072,
      "d": 308,
      "v": 50
    },
    {
      "midi": 41,
      "hit": false,
      "t": 130320,
      "d": 120,
      "v": 68
    },
    {
      "midi": 36,
      "hit": false,
      "t": 130560,
      "d": 620,
      "v": 70
    },
    {
      "midi": 67,
      "hit": false,
      "t": 130572,
      "d": 284,
      "v": 47
    },
    {
      "midi": 48,
      "hit": false,
      "t": 130572,
      "d": 1464,
      "v": 36
    },
    {
      "midi": 60,
      "hit": false,
      "t": 130576,
      "d": 280,
      "v": 57
    },
    {
      "midi": 36,
      "hit": false,
      "t": 130576,
      "d": 3632,
      "v": 42
    },
    {
      "midi": 64,
      "hit": false,
      "t": 130580,
      "d": 264,
      "v": 62
    },
    {
      "midi": 36,
      "hit": false,
      "t": 131288,
      "d": 72,
      "v": 82
    },
    {
      "midi": 79,
      "hit": false,
      "t": 131412,
      "d": 184,
      "v": 50
    },
    {
      "midi": 76,
      "hit": false,
      "t": 131456,
      "d": 180,
      "v": 51
    },
    {
      "midi": 72,
      "hit": false,
      "t": 131484,
      "d": 188,
      "v": 64
    },
    {
      "midi": 36,
      "hit": false,
      "t": 131528,
      "d": 592,
      "v": 82
    },
    {
      "midi": 36,
      "hit": false,
      "t": 132228,
      "d": 68,
      "v": 60
    },
    {
      "midi": 67,
      "hit": false,
      "t": 132300,
      "d": 548,
      "v": 27
    },
    {
      "midi": 64,
      "hit": false,
      "t": 132332,
      "d": 528,
      "v": 45
    },
    {
      "midi": 60,
      "hit": false,
      "t": 132396,
      "d": 480,
      "v": 51
    },
    {
      "midi": 36,
      "hit": false,
      "t": 132468,
      "d": 872,
      "v": 63
    },
    {
      "midi": 48,
      "hit": false,
      "t": 132488,
      "d": 436,
      "v": 41
    },
    {
      "midi": 48,
      "hit": false,
      "t": 133208,
      "d": 400,
      "v": 66
    },
    {
      "midi": 31,
      "hit": false,
      "t": 133336,
      "d": 88,
      "v": 42
    },
    {
      "midi": 36,
      "hit": false,
      "t": 133432,
      "d": 84,
      "v": 78
    },
    {
      "midi": 55,
      "hit": false,
      "t": 133440,
      "d": 316,
      "v": 60
    },
    {
      "midi": 60,
      "hit": false,
      "t": 133448,
      "d": 484,
      "v": 62
    },
    {
      "midi": 64,
      "hit": false,
      "t": 133452,
      "d": 476,
      "v": 60
    },
    {
      "midi": 48,
      "hit": false,
      "t": 133684,
      "d": 536,
      "v": 80
    },
    {
      "midi": 36,
      "hit": false,
      "t": 133700,
      "d": 328,
      "v": 78
    },
    {
      "midi": 55,
      "hit": false,
      "t": 133932,
      "d": 288,
      "v": 87
    },
    {
      "midi": 36,
      "hit": false,
      "t": 134168,
      "d": 132,
      "v": 78
    },
    {
      "midi": 60,
      "hit": false,
      "t": 134184,
      "d": 60,
      "v": 62
    },
    {
      "midi": 43,
      "hit": false,
      "t": 134412,
      "d": 596,
      "v": 70
    },
    {
      "midi": 43,
      "hit": false,
      "t": 134412,
      "d": 936,
      "v": 44
    },
    {
      "midi": 65,
      "hit": false,
      "t": 134420,
      "d": 360,
      "v": 37
    },
    {
      "midi": 69,
      "hit": false,
      "t": 134424,
      "d": 388,
      "v": 53
    },
    {
      "midi": 74,
      "hit": false,
      "t": 134424,
      "d": 400,
      "v": 42
    },
    {
      "midi": 71,
      "hit": false,
      "t": 134428,
      "d": 380,
      "v": 49
    },
    {
      "midi": 65,
      "hit": false,
      "t": 134900,
      "d": 660,
      "v": 52
    },
    {
      "midi": 69,
      "hit": false,
      "t": 135116,
      "d": 408,
      "v": 55
    },
    {
      "midi": 43,
      "hit": false,
      "t": 135128,
      "d": 108,
      "v": 58
    },
    {
      "midi": 43,
      "hit": false,
      "t": 135372,
      "d": 608,
      "v": 64
    },
    {
      "midi": 43,
      "hit": false,
      "t": 135596,
      "d": 332,
      "v": 87
    },
    {
      "midi": 65,
      "hit": false,
      "t": 135828,
      "d": 320,
      "v": 48
    },
    {
      "midi": 69,
      "hit": false,
      "t": 135828,
      "d": 324,
      "v": 72
    },
    {
      "midi": 71,
      "hit": false,
      "t": 135832,
      "d": 308,
      "v": 59
    },
    {
      "midi": 74,
      "hit": false,
      "t": 135832,
      "d": 308,
      "v": 50
    },
    {
      "midi": 43,
      "hit": false,
      "t": 136080,
      "d": 120,
      "v": 68
    },
    {
      "midi": 43,
      "hit": false,
      "t": 136320,
      "d": 600,
      "v": 72
    },
    {
      "midi": 67,
      "hit": false,
      "t": 136320,
      "d": 1804,
      "v": 53
    },
    {
      "midi": 74,
      "hit": false,
      "t": 136320,
      "d": 1812,
      "v": 53
    },
    {
      "midi": 79,
      "hit": false,
      "t": 136320,
      "d": 1812,
      "v": 53
    },
    {
      "midi": 59,
      "hit": false,
      "t": 136320,
      "d": 1820,
      "v": 46
    },
    {
      "midi": 83,
      "hit": false,
      "t": 136360,
      "d": 1772,
      "v": 59
    },
    {
      "midi": 43,
      "hit": false,
      "t": 137036,
      "d": 76,
      "v": 62
    },
    {
      "midi": 43,
      "hit": false,
      "t": 137276,
      "d": 84,
      "v": 52
    },
    {
      "midi": 43,
      "hit": false,
      "t": 137520,
      "d": 384,
      "v": 61
    },
    {
      "midi": 43,
      "hit": false,
      "t": 138016,
      "d": 144,
      "v": 68
    },
    {
      "midi": 36,
      "hit": false,
      "t": 138240,
      "d": 600,
      "v": 72
    },
    {
      "midi": 60,
      "hit": false,
      "t": 138240,
      "d": 1804,
      "v": 53
    },
    {
      "midi": 67,
      "hit": false,
      "t": 138240,
      "d": 1812,
      "v": 53
    },
    {
      "midi": 72,
      "hit": false,
      "t": 138240,
      "d": 1812,
      "v": 53
    },
    {
      "midi": 52,
      "hit": false,
      "t": 138240,
      "d": 1820,
      "v": 46
    },
    {
      "midi": 76,
      "hit": false,
      "t": 138280,
      "d": 1772,
      "v": 59
    },
    {
      "midi": 36,
      "hit": false,
      "t": 138956,
      "d": 76,
      "v": 62
    },
    {
      "midi": 36,
      "hit": false,
      "t": 139196,
      "d": 84,
      "v": 52
    },
    {
      "midi": 36,
      "hit": false,
      "t": 139440,
      "d": 384,
      "v": 61
    },
    {
      "midi": 36,
      "hit": false,
      "t": 139936,
      "d": 144,
      "v": 68
    },
    {
      "midi": 55,
      "hit": false,
      "t": 140160,
      "d": 360,
      "v": 60
    },
    {
      "midi": 64,
      "hit": false,
      "t": 140168,
      "d": 384,
      "v": 70
    },
    {
      "midi": 40,
      "hit": false,
      "t": 140172,
      "d": 596,
      "v": 70
    },
    {
      "midi": 40,
      "hit": false,
      "t": 140172,
      "d": 168,
      "v": 41
    },
    {
      "midi": 67,
      "hit": false,
      "t": 140176,
      "d": 392,
      "v": 59
    },
    {
      "midi": 59,
      "hit": false,
      "t": 140176,
      "d": 400,
      "v": 68
    },
    {
      "midi": 40,
      "hit": false,
      "t": 140408,
      "d": 628,
      "v": 47
    },
    {
      "midi": 55,
      "hit": false,
      "t": 140652,
      "d": 728,
      "v": 58
    },
    {
      "midi": 64,
      "hit": false,
      "t": 140868,
      "d": 532,
      "v": 60
    },
    {
      "midi": 59,
      "hit": false,
      "t": 140876,
      "d": 544,
      "v": 54
    },
    {
      "midi": 40,
      "hit": false,
      "t": 140888,
      "d": 108,
      "v": 58
    },
    {
      "midi": 67,
      "hit": false,
      "t": 140888,
      "d": 532,
      "v": 57
    },
    {
      "midi": 40,
      "hit": false,
      "t": 141132,
      "d": 608,
      "v": 64
    },
    {
      "midi": 40,
      "hit": false,
      "t": 141356,
      "d": 580,
      "v": 87
    },
    {
      "midi": 55,
      "hit": false,
      "t": 141476,
      "d": 492,
      "v": 78
    },
    {
      "midi": 59,
      "hit": false,
      "t": 141600,
      "d": 368,
      "v": 61
    },
    {
      "midi": 64,
      "hit": false,
      "t": 141720,
      "d": 220,
      "v": 70
    },
    {
      "midi": 40,
      "hit": false,
      "t": 141840,
      "d": 120,
      "v": 68
    },
    {
      "midi": 67,
      "hit": false,
      "t": 141852,
      "d": 116,
      "v": 80
    },
    {
      "midi": 38,
      "hit": false,
      "t": 142080,
      "d": 600,
      "v": 72
    },
    {
      "midi": 50,
      "hit": false,
      "t": 142092,
      "d": 936,
      "v": 44
    },
    {
      "midi": 62,
      "hit": false,
      "t": 142100,
      "d": 360,
      "v": 37
    },
    {
      "midi": 69,
      "hit": false,
      "t": 142104,
      "d": 400,
      "v": 42
    },
    {
      "midi": 65,
      "hit": false,
      "t": 142108,
      "d": 380,
      "v": 49
    },
    {
      "midi": 38,
      "hit": false,
      "t": 142336,
      "d": 1272,
      "v": 37
    },
    {
      "midi": 62,
      "hit": false,
      "t": 142580,
      "d": 624,
      "v": 52
    },
    {
      "midi": 38,
      "hit": false,
      "t": 142796,
      "d": 76,
      "v": 62
    },
    {
      "midi": 38,
      "hit": false,
      "t": 143036,
      "d": 84,
      "v": 52
    },
    {
      "midi": 50,
      "hit": false,
      "t": 143276,
      "d": 460,
      "v": 87
    },
    {
      "midi": 38,
      "hit": false,
      "t": 143280,
      "d": 384,
      "v": 61
    },
    {
      "midi": 62,
      "hit": false,
      "t": 143508,
      "d": 320,
      "v": 48
    },
    {
      "midi": 65,
      "hit": false,
      "t": 143512,
      "d": 308,
      "v": 59
    },
    {
      "midi": 69,
      "hit": false,
      "t": 143512,
      "d": 308,
      "v": 50
    },
    {
      "midi": 38,
      "hit": false,
      "t": 143776,
      "d": 144,
      "v": 68
    },
    {
      "midi": 59,
      "hit": false,
      "t": 144000,
      "d": 360,
      "v": 60
    },
    {
      "midi": 67,
      "hit": false,
      "t": 144008,
      "d": 384,
      "v": 70
    },
    {
      "midi": 43,
      "hit": false,
      "t": 144012,
      "d": 596,
      "v": 70
    },
    {
      "midi": 43,
      "hit": false,
      "t": 144012,
      "d": 168,
      "v": 41
    },
    {
      "midi": 71,
      "hit": false,
      "t": 144016,
      "d": 392,
      "v": 59
    },
    {
      "midi": 62,
      "hit": false,
      "t": 144016,
      "d": 400,
      "v": 68
    },
    {
      "midi": 43,
      "hit": false,
      "t": 144248,
      "d": 628,
      "v": 47
    },
    {
      "midi": 59,
      "hit": false,
      "t": 144492,
      "d": 728,
      "v": 58
    },
    {
      "midi": 67,
      "hit": false,
      "t": 144708,
      "d": 532,
      "v": 60
    },
    {
      "midi": 62,
      "hit": false,
      "t": 144716,
      "d": 544,
      "v": 54
    },
    {
      "midi": 43,
      "hit": false,
      "t": 144728,
      "d": 108,
      "v": 58
    },
    {
      "midi": 71,
      "hit": false,
      "t": 144728,
      "d": 532,
      "v": 57
    },
    {
      "midi": 43,
      "hit": false,
      "t": 144972,
      "d": 608,
      "v": 64
    },
    {
      "midi": 43,
      "hit": false,
      "t": 145196,
      "d": 580,
      "v": 87
    },
    {
      "midi": 59,
      "hit": false,
      "t": 145316,
      "d": 492,
      "v": 78
    },
    {
      "midi": 62,
      "hit": false,
      "t": 145440,
      "d": 368,
      "v": 61
    },
    {
      "midi": 67,
      "hit": false,
      "t": 145560,
      "d": 220,
      "v": 70
    },
    {
      "midi": 43,
      "hit": false,
      "t": 145680,
      "d": 120,
      "v": 68
    },
    {
      "midi": 71,
      "hit": false,
      "t": 145692,
      "d": 116,
      "v": 80
    },
    {
      "midi": 67,
      "hit": false,
      "t": 145932,
      "d": 284,
      "v": 47
    },
    {
      "midi": 48,
      "hit": false,
      "t": 145932,
      "d": 1464,
      "v": 36
    },
    {
      "midi": 36,
      "hit": false,
      "t": 145936,
      "d": 584,
      "v": 85
    },
    {
      "midi": 60,
      "hit": false,
      "t": 145936,
      "d": 280,
      "v": 57
    },
    {
      "midi": 36,
      "hit": false,
      "t": 145936,
      "d": 3632,
      "v": 42
    },
    {
      "midi": 64,
      "hit": false,
      "t": 145940,
      "d": 264,
      "v": 62
    },
    {
      "midi": 36,
      "hit": false,
      "t": 146648,
      "d": 84,
      "v": 62
    },
    {
      "midi": 79,
      "hit": false,
      "t": 146772,
      "d": 184,
      "v": 50
    },
    {
      "midi": 76,
      "hit": false,
      "t": 146816,
      "d": 180,
      "v": 51
    },
    {
      "midi": 72,
      "hit": false,
      "t": 146844,
      "d": 188,
      "v": 64
    },
    {
      "midi": 36,
      "hit": false,
      "t": 146892,
      "d": 616,
      "v": 72
    },
    {
      "midi": 36,
      "hit": false,
      "t": 147632,
      "d": 76,
      "v": 76
    },
    {
      "midi": 67,
      "hit": false,
      "t": 147660,
      "d": 548,
      "v": 27
    },
    {
      "midi": 64,
      "hit": false,
      "t": 147692,
      "d": 528,
      "v": 45
    },
    {
      "midi": 60,
      "hit": false,
      "t": 147756,
      "d": 480,
      "v": 51
    },
    {
      "midi": 48,
      "hit": false,
      "t": 147848,
      "d": 436,
      "v": 41
    },
    {
      "midi": 36,
      "hit": false,
      "t": 147864,
      "d": 620,
      "v": 87
    },
    {
      "midi": 48,
      "hit": false,
      "t": 148568,
      "d": 400,
      "v": 66
    },
    {
      "midi": 36,
      "hit": false,
      "t": 148584,
      "d": 84,
      "v": 74
    },
    {
      "midi": 55,
      "hit": false,
      "t": 148800,
      "d": 316,
      "v": 60
    },
    {
      "midi": 60,
      "hit": false,
      "t": 148808,
      "d": 484,
      "v": 62
    },
    {
      "midi": 36,
      "hit": false,
      "t": 148812,
      "d": 700,
      "v": 82
    },
    {
      "midi": 64,
      "hit": false,
      "t": 148812,
      "d": 476,
      "v": 60
    },
    {
      "midi": 48,
      "hit": false,
      "t": 149044,
      "d": 536,
      "v": 80
    },
    {
      "midi": 55,
      "hit": false,
      "t": 149292,
      "d": 288,
      "v": 87
    },
    {
      "midi": 31,
      "hit": false,
      "t": 149520,
      "d": 88,
      "v": 66
    },
    {
      "midi": 60,
      "hit": false,
      "t": 149544,
      "d": 60,
      "v": 62
    },
    {
      "midi": 33,
      "hit": false,
      "t": 149628,
      "d": 108,
      "v": 68
    },
    {
      "midi": 65,
      "hit": false,
      "t": 149760,
      "d": 156,
      "v": 39
    },
    {
      "midi": 71,
      "hit": false,
      "t": 149760,
      "d": 276,
      "v": 47
    },
    {
      "midi": 74,
      "hit": false,
      "t": 149760,
      "d": 308,
      "v": 62
    },
    {
      "midi": 81,
      "hit": false,
      "t": 149764,
      "d": 312,
      "v": 58
    },
    {
      "midi": 59,
      "hit": false,
      "t": 149768,
      "d": 1548,
      "v": 52
    },
    {
      "midi": 43,
      "hit": false,
      "t": 149780,
      "d": 652,
      "v": 68
    },
    {
      "midi": 43,
      "hit": false,
      "t": 149784,
      "d": 1676,
      "v": 50
    },
    {
      "midi": 65,
      "hit": false,
      "t": 150008,
      "d": 572,
      "v": 26
    },
    {
      "midi": 71,
      "hit": false,
      "t": 150240,
      "d": 200,
      "v": 47
    },
    {
      "midi": 38,
      "hit": false,
      "t": 150492,
      "d": 52,
      "v": 59
    },
    {
      "midi": 74,
      "hit": false,
      "t": 150500,
      "d": 84,
      "v": 25
    },
    {
      "midi": 40,
      "hit": false,
      "t": 150588,
      "d": 80,
      "v": 82
    },
    {
      "midi": 81,
      "hit": false,
      "t": 150712,
      "d": 68,
      "v": 54
    },
    {
      "midi": 43,
      "hit": false,
      "t": 150728,
      "d": 572,
      "v": 78
    },
    {
      "midi": 83,
      "hit": false,
      "t": 150972,
      "d": 216,
      "v": 60
    },
    {
      "midi": 65,
      "hit": false,
      "t": 151140,
      "d": 128,
      "v": 44
    },
    {
      "midi": 86,
      "hit": false,
      "t": 151196,
      "d": 96,
      "v": 85
    },
    {
      "midi": 83,
      "hit": false,
      "t": 151312,
      "d": 112,
      "v": 70
    },
    {
      "midi": 43,
      "hit": false,
      "t": 151428,
      "d": 88,
      "v": 58
    },
    {
      "midi": 81,
      "hit": false,
      "t": 151440,
      "d": 96,
      "v": 58
    },
    {
      "midi": 74,
      "hit": false,
      "t": 151580,
      "d": 28,
      "v": 36
    },
    {
      "midi": 59,
      "hit": false,
      "t": 151680,
      "d": 360,
      "v": 60
    },
    {
      "midi": 67,
      "hit": false,
      "t": 151688,
      "d": 384,
      "v": 70
    },
    {
      "midi": 43,
      "hit": false,
      "t": 151692,
      "d": 596,
      "v": 70
    },
    {
      "midi": 43,
      "hit": false,
      "t": 151692,
      "d": 168,
      "v": 41
    },
    {
      "midi": 71,
      "hit": false,
      "t": 151696,
      "d": 392,
      "v": 59
    },
    {
      "midi": 62,
      "hit": false,
      "t": 151696,
      "d": 400,
      "v": 68
    },
    {
      "midi": 43,
      "hit": false,
      "t": 151928,
      "d": 628,
      "v": 47
    },
    {
      "midi": 59,
      "hit": false,
      "t": 152172,
      "d": 728,
      "v": 58
    },
    {
      "midi": 67,
      "hit": false,
      "t": 152388,
      "d": 532,
      "v": 60
    },
    {
      "midi": 62,
      "hit": false,
      "t": 152396,
      "d": 544,
      "v": 54
    },
    {
      "midi": 43,
      "hit": false,
      "t": 152408,
      "d": 108,
      "v": 58
    },
    {
      "midi": 71,
      "hit": false,
      "t": 152408,
      "d": 532,
      "v": 57
    },
    {
      "midi": 43,
      "hit": false,
      "t": 152652,
      "d": 608,
      "v": 64
    },
    {
      "midi": 43,
      "hit": false,
      "t": 152876,
      "d": 580,
      "v": 87
    },
    {
      "midi": 59,
      "hit": false,
      "t": 152996,
      "d": 492,
      "v": 78
    },
    {
      "midi": 62,
      "hit": false,
      "t": 153120,
      "d": 368,
      "v": 61
    },
    {
      "midi": 67,
      "hit": false,
      "t": 153240,
      "d": 220,
      "v": 70
    },
    {
      "midi": 43,
      "hit": false,
      "t": 153360,
      "d": 120,
      "v": 68
    },
    {
      "midi": 71,
      "hit": false,
      "t": 153372,
      "d": 116,
      "v": 80
    },
    {
      "midi": 48,
      "hit": false,
      "t": 153612,
      "d": 936,
      "v": 44
    },
    {
      "midi": 36,
      "hit": false,
      "t": 153620,
      "d": 652,
      "v": 68
    },
    {
      "midi": 60,
      "hit": false,
      "t": 153620,
      "d": 360,
      "v": 37
    },
    {
      "midi": 67,
      "hit": false,
      "t": 153624,
      "d": 400,
      "v": 42
    },
    {
      "midi": 64,
      "hit": false,
      "t": 153628,
      "d": 380,
      "v": 49
    },
    {
      "midi": 36,
      "hit": false,
      "t": 153856,
      "d": 1272,
      "v": 37
    },
    {
      "midi": 60,
      "hit": false,
      "t": 154100,
      "d": 624,
      "v": 52
    },
    {
      "midi": 31,
      "hit": false,
      "t": 154332,
      "d": 52,
      "v": 59
    },
    {
      "midi": 33,
      "hit": false,
      "t": 154428,
      "d": 80,
      "v": 82
    },
    {
      "midi": 36,
      "hit": false,
      "t": 154568,
      "d": 572,
      "v": 78
    },
    {
      "midi": 48,
      "hit": false,
      "t": 154796,
      "d": 460,
      "v": 87
    },
    {
      "midi": 60,
      "hit": false,
      "t": 155028,
      "d": 320,
      "v": 48
    },
    {
      "midi": 64,
      "hit": false,
      "t": 155032,
      "d": 308,
      "v": 59
    },
    {
      "midi": 67,
      "hit": false,
      "t": 155032,
      "d": 308,
      "v": 50
    },
    {
      "midi": 36,
      "hit": false,
      "t": 155268,
      "d": 88,
      "v": 58
    },
    {
      "midi": 64,
      "hit": false,
      "t": 155520,
      "d": 156,
      "v": 39
    },
    {
      "midi": 67,
      "hit": false,
      "t": 155520,
      "d": 276,
      "v": 47
    },
    {
      "midi": 71,
      "hit": false,
      "t": 155520,
      "d": 308,
      "v": 62
    },
    {
      "midi": 76,
      "hit": false,
      "t": 155524,
      "d": 312,
      "v": 58
    },
    {
      "midi": 55,
      "hit": false,
      "t": 155528,
      "d": 1548,
      "v": 52
    },
    {
      "midi": 40,
      "hit": false,
      "t": 155540,
      "d": 652,
      "v": 68
    },
    {
      "midi": 52,
      "hit": false,
      "t": 155544,
      "d": 1676,
      "v": 50
    },
    {
      "midi": 64,
      "hit": false,
      "t": 155768,
      "d": 572,
      "v": 26
    },
    {
      "midi": 67,
      "hit": false,
      "t": 156000,
      "d": 200,
      "v": 47
    },
    {
      "midi": 35,
      "hit": false,
      "t": 156252,
      "d": 52,
      "v": 59
    },
    {
      "midi": 71,
      "hit": false,
      "t": 156260,
      "d": 84,
      "v": 25
    },
    {
      "midi": 36,
      "hit": false,
      "t": 156348,
      "d": 80,
      "v": 82
    },
    {
      "midi": 76,
      "hit": false,
      "t": 156472,
      "d": 68,
      "v": 54
    },
    {
      "midi": 40,
      "hit": false,
      "t": 156488,
      "d": 572,
      "v": 78
    },
    {
      "midi": 79,
      "hit": false,
      "t": 156732,
      "d": 216,
      "v": 60
    },
    {
      "midi": 64,
      "hit": false,
      "t": 156900,
      "d": 128,
      "v": 44
    },
    {
      "midi": 83,
      "hit": false,
      "t": 156956,
      "d": 96,
      "v": 85
    },
    {
      "midi": 79,
      "hit": false,
      "t": 157072,
      "d": 112,
      "v": 70
    },
    {
      "midi": 40,
      "hit": false,
      "t": 157188,
      "d": 88,
      "v": 58
    },
    {
      "midi": 76,
      "hit": false,
      "t": 157200,
      "d": 96,
      "v": 58
    },
    {
      "midi": 71,
      "hit": false,
      "t": 157340,
      "d": 28,
      "v": 36
    },
    {
      "midi": 41,
      "hit": false,
      "t": 157440,
      "d": 600,
      "v": 72
    },
    {
      "midi": 53,
      "hit": false,
      "t": 157452,
      "d": 936,
      "v": 44
    },
    {
      "midi": 62,
      "hit": false,
      "t": 157460,
      "d": 360,
      "v": 37
    },
    {
      "midi": 65,
      "hit": false,
      "t": 157464,
      "d": 388,
      "v": 53
    },
    {
      "midi": 72,
      "hit": false,
      "t": 157464,
      "d": 400,
      "v": 42
    },
    {
      "midi": 69,
      "hit": false,
      "t": 157468,
      "d": 380,
      "v": 49
    },
    {
      "midi": 41,
      "hit": false,
      "t": 157696,
      "d": 1272,
      "v": 37
    },
    {
      "midi": 62,
      "hit": false,
      "t": 157940,
      "d": 660,
      "v": 52
    },
    {
      "midi": 41,
      "hit": false,
      "t": 158156,
      "d": 76,
      "v": 62
    },
    {
      "midi": 65,
      "hit": false,
      "t": 158156,
      "d": 408,
      "v": 55
    },
    {
      "midi": 41,
      "hit": false,
      "t": 158396,
      "d": 84,
      "v": 52
    },
    {
      "midi": 53,
      "hit": false,
      "t": 158636,
      "d": 460,
      "v": 87
    },
    {
      "midi": 41,
      "hit": false,
      "t": 158640,
      "d": 384,
      "v": 61
    },
    {
      "midi": 62,
      "hit": false,
      "t": 158868,
      "d": 320,
      "v": 48
    },
    {
      "midi": 65,
      "hit": false,
      "t": 158868,
      "d": 324,
      "v": 72
    },
    {
      "midi": 69,
      "hit": false,
      "t": 158872,
      "d": 308,
      "v": 59
    },
    {
      "midi": 72,
      "hit": false,
      "t": 158872,
      "d": 308,
      "v": 50
    },
    {
      "midi": 41,
      "hit": false,
      "t": 159136,
      "d": 144,
      "v": 68
    },
    {
      "midi": 45,
      "hit": false,
      "t": 159360,
      "d": 616,
      "v": 37
    },
    {
      "midi": 69,
      "hit": false,
      "t": 159360,
      "d": 676,
      "v": 58
    },
    {
      "midi": 64,
      "hit": false,
      "t": 159360,
      "d": 704,
      "v": 47
    },
    {
      "midi": 72,
      "hit": false,
      "t": 159360,
      "d": 716,
      "v": 51
    },
    {
      "midi": 60,
      "hit": false,
      "t": 159360,
      "d": 736,
      "v": 43
    },
    {
      "midi": 33,
      "hit": false,
      "t": 159380,
      "d": 652,
      "v": 68
    },
    {
      "midi": 45,
      "hit": false,
      "t": 160088,
      "d": 372,
      "v": 55
    },
    {
      "midi": 28,
      "hit": false,
      "t": 160092,
      "d": 52,
      "v": 59
    },
    {
      "midi": 29,
      "hit": false,
      "t": 160188,
      "d": 80,
      "v": 82
    },
    {
      "midi": 72,
      "hit": false,
      "t": 160312,
      "d": 236,
      "v": 60
    },
    {
      "midi": 60,
      "hit": false,
      "t": 160312,
      "d": 252,
      "v": 52
    },
    {
      "midi": 64,
      "hit": false,
      "t": 160320,
      "d": 236,
      "v": 68
    },
    {
      "midi": 69,
      "hit": false,
      "t": 160324,
      "d": 224,
      "v": 60
    },
    {
      "midi": 33,
      "hit": false,
      "t": 160328,
      "d": 572,
      "v": 78
    },
    {
      "midi": 45,
      "hit": false,
      "t": 160708,
      "d": 40,
      "v": 41
    },
    {
      "midi": 72,
      "hit": false,
      "t": 160780,
      "d": 204,
      "v": 80
    },
    {
      "midi": 69,
      "hit": false,
      "t": 160784,
      "d": 204,
      "v": 82
    },
    {
      "midi": 60,
      "hit": false,
      "t": 160788,
      "d": 212,
      "v": 68
    },
    {
      "midi": 64,
      "hit": false,
      "t": 160788,
      "d": 212,
      "v": 82
    },
    {
      "midi": 33,
      "hit": false,
      "t": 161028,
      "d": 88,
      "v": 58
    },
    {
      "midi": 77,
      "hit": false,
      "t": 161280,
      "d": 492,
      "v": 57
    },
    {
      "midi": 79,
      "hit": false,
      "t": 161288,
      "d": 520,
      "v": 61
    },
    {
      "midi": 43,
      "hit": false,
      "t": 161288,
      "d": 1848,
      "v": 62
    },
    {
      "midi": 71,
      "hit": false,
      "t": 161292,
      "d": 416,
      "v": 52
    },
    {
      "midi": 74,
      "hit": false,
      "t": 161292,
      "d": 440,
      "v": 59
    },
    {
      "midi": 43,
      "hit": false,
      "t": 161296,
      "d": 584,
      "v": 85
    },
    {
      "midi": 67,
      "hit": false,
      "t": 161540,
      "d": 1948,
      "v": 33
    },
    {
      "midi": 71,
      "hit": false,
      "t": 161788,
      "d": 188,
      "v": 59
    },
    {
      "midi": 79,
      "hit": false,
      "t": 161852,
      "d": 68,
      "v": 10
    },
    {
      "midi": 43,
      "hit": false,
      "t": 162008,
      "d": 84,
      "v": 62
    },
    {
      "midi": 79,
      "hit": false,
      "t": 162012,
      "d": 452,
      "v": 57
    },
    {
      "midi": 71,
      "hit": false,
      "t": 162012,
      "d": 500,
      "v": 37
    },
    {
      "midi": 77,
      "hit": false,
      "t": 162020,
      "d": 556,
      "v": 60
    },
    {
      "midi": 74,
      "hit": false,
      "t": 162024,
      "d": 472,
      "v": 68
    },
    {
      "midi": 43,
      "hit": false,
      "t": 162252,
      "d": 616,
      "v": 72
    },
    {
      "midi": 62,
      "hit": false,
      "t": 162744,
      "d": 464,
      "v": 61
    },
    {
      "midi": 43,
      "hit": false,
      "t": 162992,
      "d": 76,
      "v": 76
    },
    {
      "midi": 79,
      "hit": false,
      "t": 163052,
      "d": 460,
      "v": 28
    },
    {
      "midi": 77,
      "hit": false,
      "t": 163100,
      "d": 256,
      "v": 53
    },
    {
      "midi": 74,
      "hit": false,
      "t": 163144,
      "d": 304,
      "v": 59
    },
    {
      "midi": 43,
      "hit": false,
      "t": 163196,
      "d": 1488,
      "v": 63
    },
    {
      "midi": 71,
      "hit": false,
      "t": 163212,
      "d": 336,
      "v": 78
    },
    {
      "midi": 43,
      "hit": false,
      "t": 163224,
      "d": 620,
      "v": 87
    },
    {
      "midi": 62,
      "hit": false,
      "t": 163448,
      "d": 484,
      "v": 62
    },
    {
      "midi": 67,
      "hit": false,
      "t": 163688,
      "d": 84,
      "v": 43
    },
    {
      "midi": 71,
      "hit": false,
      "t": 163920,
      "d": 448,
      "v": 62
    },
    {
      "midi": 67,
      "hit": false,
      "t": 163928,
      "d": 436,
      "v": 58
    },
    {
      "midi": 43,
      "hit": false,
      "t": 163944,
      "d": 84,
      "v": 74
    },
    {
      "midi": 43,
      "hit": false,
      "t": 164172,
      "d": 700,
      "v": 82
    },
    {
      "midi": 62,
      "hit": false,
      "t": 164408,
      "d": 276,
      "v": 68
    },
    {
      "midi": 71,
      "hit": false,
      "t": 164648,
      "d": 224,
      "v": 72
    },
    {
      "midi": 74,
      "hit": false,
      "t": 164648,
      "d": 228,
      "v": 78
    },
    {
      "midi": 67,
      "hit": false,
      "t": 164652,
      "d": 220,
      "v": 60
    },
    {
      "midi": 38,
      "hit": false,
      "t": 164880,
      "d": 88,
      "v": 66
    },
    {
      "midi": 40,
      "hit": false,
      "t": 164988,
      "d": 108,
      "v": 68
    },
    {
      "midi": 41,
      "hit": false,
      "t": 165120,
      "d": 600,
      "v": 72
    },
    {
      "midi": 65,
      "hit": false,
      "t": 165120,
      "d": 156,
      "v": 39
    },
    {
      "midi": 69,
      "hit": false,
      "t": 165120,
      "d": 276,
      "v": 47
    },
    {
      "midi": 72,
      "hit": false,
      "t": 165120,
      "d": 308,
      "v": 62
    },
    {
      "midi": 77,
      "hit": false,
      "t": 165124,
      "d": 312,
      "v": 58
    },
    {
      "midi": 57,
      "hit": false,
      "t": 165128,
      "d": 1548,
      "v": 52
    },
    {
      "midi": 53,
      "hit": false,
      "t": 165144,
      "d": 1676,
      "v": 50
    },
    {
      "midi": 65,
      "hit": false,
      "t": 165368,
      "d": 572,
      "v": 26
    },
    {
      "midi": 69,
      "hit": false,
      "t": 165600,
      "d": 200,
      "v": 47
    },
    {
      "midi": 41,
      "hit": false,
      "t": 165836,
      "d": 76,
      "v": 62
    },
    {
      "midi": 72,
      "hit": false,
      "t": 165860,
      "d": 84,
      "v": 25
    },
    {
      "midi": 77,
      "hit": false,
      "t": 166072,
      "d": 68,
      "v": 54
    },
    {
      "midi": 41,
      "hit": false,
      "t": 166076,
      "d": 84,
      "v": 52
    },
    {
      "midi": 41,
      "hit": false,
      "t": 166320,
      "d": 384,
      "v": 61
    },
    {
      "midi": 81,
      "hit": false,
      "t": 166332,
      "d": 216,
      "v": 60
    },
    {
      "midi": 65,
      "hit": false,
      "t": 166500,
      "d": 128,
      "v": 44
    },
    {
      "midi": 84,
      "hit": false,
      "t": 166556,
      "d": 96,
      "v": 85
    },
    {
      "midi": 81,
      "hit": false,
      "t": 166672,
      "d": 112,
      "v": 70
    },
    {
      "midi": 77,
      "hit": false,
      "t": 166800,
      "d": 96,
      "v": 58
    },
    {
      "midi": 41,
      "hit": false,
      "t": 166816,
      "d": 144,
      "v": 68
    },
    {
      "midi": 72,
      "hit": false,
      "t": 166940,
      "d": 28,
      "v": 36
    },
    {
      "midi": 43,
      "hit": false,
      "t": 167040,
      "d": 600,
      "v": 72
    },
    {
      "midi": 67,
      "hit": false,
      "t": 167040,
      "d": 156,
      "v": 39
    },
    {
      "midi": 71,
      "hit": false,
      "t": 167040,
      "d": 276,
      "v": 47
    },
    {
      "midi": 74,
      "hit": false,
      "t": 167040,
      "d": 308,
      "v": 62
    },
    {
      "midi": 79,
      "hit": false,
      "t": 167044,
      "d": 312,
      "v": 58
    },
    {
      "midi": 59,
      "hit": false,
      "t": 167048,
      "d": 1548,
      "v": 52
    },
    {
      "midi": 43,
      "hit": false,
      "t": 167064,
      "d": 1676,
      "v": 50
    },
    {
      "midi": 67,
      "hit": false,
      "t": 167288,
      "d": 572,
      "v": 26
    },
    {
      "midi": 71,
      "hit": false,
      "t": 167520,
      "d": 200,
      "v": 47
    },
    {
      "midi": 43,
      "hit": false,
      "t": 167756,
      "d": 76,
      "v": 62
    },
    {
      "midi": 74,
      "hit": false,
      "t": 167780,
      "d": 84,
      "v": 25
    },
    {
      "midi": 79,
      "hit": false,
      "t": 167992,
      "d": 68,
      "v": 54
    },
    {
      "midi": 43,
      "hit": false,
      "t": 167996,
      "d": 84,
      "v": 52
    },
    {
      "midi": 43,
      "hit": false,
      "t": 168240,
      "d": 384,
      "v": 61
    },
    {
      "midi": 83,
      "hit": false,
      "t": 168252,
      "d": 216,
      "v": 60
    },
    {
      "midi": 67,
      "hit": false,
      "t": 168420,
      "d": 128,
      "v": 44
    },
    {
      "midi": 86,
      "hit": false,
      "t": 168476,
      "d": 96,
      "v": 85
    },
    {
      "midi": 83,
      "hit": false,
      "t": 168592,
      "d": 112,
      "v": 70
    },
    {
      "midi": 79,
      "hit": false,
      "t": 168720,
      "d": 96,
      "v": 58
    },
    {
      "midi": 43,
      "hit": false,
      "t": 168736,
      "d": 144,
      "v": 68
    },
    {
      "midi": 74,
      "hit": false,
      "t": 168860,
      "d": 28,
      "v": 36
    },
    {
      "midi": 36,
      "hit": false,
      "t": 168960,
      "d": 620,
      "v": 70
    },
    {
      "midi": 60,
      "hit": false,
      "t": 168968,
      "d": 488,
      "v": 68
    },
    {
      "midi": 64,
      "hit": false,
      "t": 168968,
      "d": 524,
      "v": 53
    },
    {
      "midi": 55,
      "hit": false,
      "t": 168972,
      "d": 420,
      "v": 53
    },
    {
      "midi": 48,
      "hit": false,
      "t": 168972,
      "d": 1840,
      "v": 52
    },
    {
      "midi": 59,
      "hit": false,
      "t": 168976,
      "d": 484,
      "v": 62
    },
    {
      "midi": 36,
      "hit": false,
      "t": 169228,
      "d": 3172,
      "v": 53
    },
    {
      "midi": 55,
      "hit": false,
      "t": 169456,
      "d": 920,
      "v": 52
    },
    {
      "midi": 36,
      "hit": false,
      "t": 169688,
      "d": 72,
      "v": 82
    },
    {
      "midi": 60,
      "hit": false,
      "t": 169692,
      "d": 636,
      "v": 68
    },
    {
      "midi": 64,
      "hit": false,
      "t": 169700,
      "d": 624,
      "v": 55
    },
    {
      "midi": 59,
      "hit": false,
      "t": 169700,
      "d": 688,
      "v": 56
    },
    {
      "midi": 36,
      "hit": false,
      "t": 169928,
      "d": 592,
      "v": 82
    },
    {
      "midi": 55,
      "hit": false,
      "t": 170544,
      "d": 1452,
      "v": 64
    },
    {
      "midi": 36,
      "hit": false,
      "t": 170628,
      "d": 68,
      "v": 60
    },
    {
      "midi": 59,
      "hit": false,
      "t": 170660,
      "d": 548,
      "v": 66
    },
    {
      "midi": 60,
      "hit": false,
      "t": 170780,
      "d": 396,
      "v": 61
    },
    {
      "midi": 36,
      "hit": false,
      "t": 170868,
      "d": 872,
      "v": 63
    },
    {
      "midi": 64,
      "hit": false,
      "t": 170896,
      "d": 276,
      "v": 64
    },
    {
      "midi": 48,
      "hit": false,
      "t": 170900,
      "d": 984,
      "v": 55
    },
    {
      "midi": 59,
      "hit": false,
      "t": 171336,
      "d": 644,
      "v": 51
    },
    {
      "midi": 60,
      "hit": false,
      "t": 171588,
      "d": 388,
      "v": 66
    },
    {
      "midi": 64,
      "hit": false,
      "t": 171596,
      "d": 360,
      "v": 63
    },
    {
      "midi": 31,
      "hit": false,
      "t": 171736,
      "d": 88,
      "v": 42
    },
    {
      "midi": 36,
      "hit": false,
      "t": 171832,
      "d": 84,
      "v": 78
    },
    {
      "midi": 48,
      "hit": false,
      "t": 172084,
      "d": 336,
      "v": 80
    },
    {
      "midi": 36,
      "hit": false,
      "t": 172100,
      "d": 328,
      "v": 78
    },
    {
      "midi": 60,
      "hit": false,
      "t": 172328,
      "d": 316,
      "v": 72
    },
    {
      "midi": 55,
      "hit": false,
      "t": 172332,
      "d": 320,
      "v": 60
    },
    {
      "midi": 64,
      "hit": false,
      "t": 172336,
      "d": 312,
      "v": 58
    },
    {
      "midi": 59,
      "hit": false,
      "t": 172336,
      "d": 316,
      "v": 61
    },
    {
      "midi": 36,
      "hit": false,
      "t": 172568,
      "d": 132,
      "v": 78
    },
    {
      "midi": 62,
      "hit": false,
      "t": 172800,
      "d": 156,
      "v": 39
    },
    {
      "midi": 65,
      "hit": false,
      "t": 172800,
      "d": 276,
      "v": 47
    },
    {
      "midi": 69,
      "hit": false,
      "t": 172800,
      "d": 308,
      "v": 62
    },
    {
      "midi": 74,
      "hit": false,
      "t": 172804,
      "d": 312,
      "v": 58
    },
    {
      "midi": 53,
      "hit": false,
      "t": 172808,
      "d": 1548,
      "v": 52
    },
    {
      "midi": 38,
      "hit": false,
      "t": 172812,
      "d": 596,
      "v": 70
    },
    {
      "midi": 50,
      "hit": false,
      "t": 172824,
      "d": 1676,
      "v": 50
    },
    {
      "midi": 62,
      "hit": false,
      "t": 173048,
      "d": 572,
      "v": 26
    },
    {
      "midi": 65,
      "hit": false,
      "t": 173280,
      "d": 200,
      "v": 47
    },
    {
      "midi": 38,
      "hit": false,
      "t": 173528,
      "d": 108,
      "v": 58
    },
    {
      "midi": 69,
      "hit": false,
      "t": 173540,
      "d": 84,
      "v": 25
    },
    {
      "midi": 74,
      "hit": false,
      "t": 173752,
      "d": 68,
      "v": 54
    },
    {
      "midi": 38,
      "hit": false,
      "t": 173772,
      "d": 608,
      "v": 64
    },
    {
      "midi": 77,
      "hit": false,
      "t": 174012,
      "d": 216,
      "v": 60
    },
    {
      "midi": 62,
      "hit": false,
      "t": 174180,
      "d": 128,
      "v": 44
    },
    {
      "midi": 81,
      "hit": false,
      "t": 174236,
      "d": 96,
      "v": 85
    },
    {
      "midi": 77,
      "hit": false,
      "t": 174352,
      "d": 112,
      "v": 70
    },
    {
      "midi": 38,
      "hit": false,
      "t": 174480,
      "d": 120,
      "v": 68
    },
    {
      "midi": 74,
      "hit": false,
      "t": 174480,
      "d": 96,
      "v": 58
    },
    {
      "midi": 69,
      "hit": false,
      "t": 174620,
      "d": 28,
      "v": 36
    },
    {
      "midi": 43,
      "hit": false,
      "t": 174732,
      "d": 596,
      "v": 70
    },
    {
      "midi": 79,
      "hit": false,
      "t": 174740,
      "d": 864,
      "v": 48
    },
    {
      "midi": 74,
      "hit": false,
      "t": 174744,
      "d": 840,
      "v": 61
    },
    {
      "midi": 43,
      "hit": false,
      "t": 174744,
      "d": 1676,
      "v": 46
    },
    {
      "midi": 67,
      "hit": false,
      "t": 174748,
      "d": 544,
      "v": 37
    },
    {
      "midi": 71,
      "hit": false,
      "t": 174748,
      "d": 780,
      "v": 43
    },
    {
      "midi": 67,
      "hit": false,
      "t": 175444,
      "d": 964,
      "v": 60
    },
    {
      "midi": 43,
      "hit": false,
      "t": 175448,
      "d": 108,
      "v": 58
    },
    {
      "midi": 43,
      "hit": false,
      "t": 175692,
      "d": 608,
      "v": 64
    },
    {
      "midi": 71,
      "hit": false,
      "t": 175916,
      "d": 448,
      "v": 41
    },
    {
      "midi": 79,
      "hit": false,
      "t": 176144,
      "d": 208,
      "v": 85
    },
    {
      "midi": 74,
      "hit": false,
      "t": 176148,
      "d": 212,
      "v": 59
    },
    {
      "midi": 43,
      "hit": false,
      "t": 176400,
      "d": 120,
      "v": 68
    },
    {
      "midi": 67,
      "hit": false,
      "t": 176652,
      "d": 284,
      "v": 47
    },
    {
      "midi": 48,
      "hit": false,
      "t": 176652,
      "d": 1464,
      "v": 36
    },
    {
      "midi": 36,
      "hit": false,
      "t": 176656,
      "d": 584,
      "v": 85
    },
    {
      "midi": 60,
      "hit": false,
      "t": 176656,
      "d": 280,
      "v": 57
    },
    {
      "midi": 36,
      "hit": false,
      "t": 176656,
      "d": 3632,
      "v": 42
    },
    {
      "midi": 64,
      "hit": false,
      "t": 176660,
      "d": 264,
      "v": 62
    },
    {
      "midi": 36,
      "hit": false,
      "t": 177368,
      "d": 84,
      "v": 62
    },
    {
      "midi": 79,
      "hit": false,
      "t": 177492,
      "d": 184,
      "v": 50
    },
    {
      "midi": 76,
      "hit": false,
      "t": 177536,
      "d": 180,
      "v": 51
    },
    {
      "midi": 72,
      "hit": false,
      "t": 177564,
      "d": 188,
      "v": 64
    },
    {
      "midi": 36,
      "hit": false,
      "t": 177612,
      "d": 616,
      "v": 72
    },
    {
      "midi": 36,
      "hit": false,
      "t": 178352,
      "d": 76,
      "v": 76
    },
    {
      "midi": 67,
      "hit": false,
      "t": 178380,
      "d": 548,
      "v": 27
    },
    {
      "midi": 64,
      "hit": false,
      "t": 178412,
      "d": 528,
      "v": 45
    },
    {
      "midi": 60,
      "hit": false,
      "t": 178476,
      "d": 480,
      "v": 51
    },
    {
      "midi": 48,
      "hit": false,
      "t": 178568,
      "d": 436,
      "v": 41
    },
    {
      "midi": 36,
      "hit": false,
      "t": 178584,
      "d": 620,
      "v": 87
    },
    {
      "midi": 48,
      "hit": false,
      "t": 179288,
      "d": 400,
      "v": 66
    },
    {
      "midi": 36,
      "hit": false,
      "t": 179304,
      "d": 84,
      "v": 74
    },
    {
      "midi": 55,
      "hit": false,
      "t": 179520,
      "d": 316,
      "v": 60
    },
    {
      "midi": 60,
      "hit": false,
      "t": 179528,
      "d": 484,
      "v": 62
    },
    {
      "midi": 36,
      "hit": false,
      "t": 179532,
      "d": 700,
      "v": 82
    },
    {
      "midi": 64,
      "hit": false,
      "t": 179532,
      "d": 476,
      "v": 60
    },
    {
      "midi": 48,
      "hit": false,
      "t": 179764,
      "d": 536,
      "v": 80
    },
    {
      "midi": 55,
      "hit": false,
      "t": 180012,
      "d": 288,
      "v": 87
    },
    {
      "midi": 31,
      "hit": false,
      "t": 180240,
      "d": 88,
      "v": 66
    },
    {
      "midi": 60,
      "hit": false,
      "t": 180264,
      "d": 60,
      "v": 62
    },
    {
      "midi": 33,
      "hit": false,
      "t": 180348,
      "d": 108,
      "v": 68
    },
    {
      "midi": 53,
      "hit": false,
      "t": 180480,
      "d": 360,
      "v": 60
    },
    {
      "midi": 60,
      "hit": false,
      "t": 180488,
      "d": 384,
      "v": 70
    },
    {
      "midi": 41,
      "hit": false,
      "t": 180492,
      "d": 596,
      "v": 70
    },
    {
      "midi": 41,
      "hit": false,
      "t": 180492,
      "d": 168,
      "v": 41
    },
    {
      "midi": 62,
      "hit": false,
      "t": 180496,
      "d": 392,
      "v": 59
    },
    {
      "midi": 57,
      "hit": false,
      "t": 180496,
      "d": 400,
      "v": 68
    },
    {
      "midi": 41,
      "hit": false,
      "t": 180728,
      "d": 628,
      "v": 47
    },
    {
      "midi": 53,
      "hit": false,
      "t": 180972,
      "d": 728,
      "v": 58
    },
    {
      "midi": 60,
      "hit": false,
      "t": 181188,
      "d": 532,
      "v": 60
    },
    {
      "midi": 57,
      "hit": false,
      "t": 181196,
      "d": 544,
      "v": 54
    },
    {
      "midi": 41,
      "hit": false,
      "t": 181208,
      "d": 108,
      "v": 58
    },
    {
      "midi": 62,
      "hit": false,
      "t": 181208,
      "d": 532,
      "v": 57
    },
    {
      "midi": 41,
      "hit": false,
      "t": 181452,
      "d": 608,
      "v": 64
    },
    {
      "midi": 41,
      "hit": false,
      "t": 181676,
      "d": 580,
      "v": 87
    },
    {
      "midi": 53,
      "hit": false,
      "t": 181796,
      "d": 492,
      "v": 78
    },
    {
      "midi": 57,
      "hit": false,
      "t": 181920,
      "d": 368,
      "v": 61
    },
    {
      "midi": 60,
      "hit": false,
      "t": 182040,
      "d": 220,
      "v": 70
    },
    {
      "midi": 41,
      "hit": false,
      "t": 182160,
      "d": 120,
      "v": 68
    },
    {
      "midi": 62,
      "hit": false,
      "t": 182172,
      "d": 116,
      "v": 80
    },
    {
      "midi": 59,
      "hit": false,
      "t": 182400,
      "d": 360,
      "v": 60
    },
    {
      "midi": 67,
      "hit": false,
      "t": 182408,
      "d": 384,
      "v": 70
    },
    {
      "midi": 43,
      "hit": false,
      "t": 182412,
      "d": 168,
      "v": 41
    },
    {
      "midi": 71,
      "hit": false,
      "t": 182416,
      "d": 392,
      "v": 59
    },
    {
      "midi": 62,
      "hit": false,
      "t": 182416,
      "d": 400,
      "v": 68
    },
    {
      "midi": 43,
      "hit": false,
      "t": 182420,
      "d": 652,
      "v": 68
    },
    {
      "midi": 43,
      "hit": false,
      "t": 182648,
      "d": 628,
      "v": 47
    },
    {
      "midi": 59,
      "hit": false,
      "t": 182892,
      "d": 728,
      "v": 58
    },
    {
      "midi": 67,
      "hit": false,
      "t": 183108,
      "d": 532,
      "v": 60
    },
    {
      "midi": 62,
      "hit": false,
      "t": 183116,
      "d": 544,
      "v": 54
    },
    {
      "midi": 71,
      "hit": false,
      "t": 183128,
      "d": 532,
      "v": 57
    },
    {
      "midi": 38,
      "hit": false,
      "t": 183132,
      "d": 52,
      "v": 59
    },
    {
      "midi": 40,
      "hit": false,
      "t": 183228,
      "d": 80,
      "v": 82
    },
    {
      "midi": 43,
      "hit": false,
      "t": 183368,
      "d": 572,
      "v": 78
    },
    {
      "midi": 43,
      "hit": false,
      "t": 183596,
      "d": 580,
      "v": 87
    },
    {
      "midi": 59,
      "hit": false,
      "t": 183716,
      "d": 492,
      "v": 78
    },
    {
      "midi": 62,
      "hit": false,
      "t": 183840,
      "d": 368,
      "v": 61
    },
    {
      "midi": 67,
      "hit": false,
      "t": 183960,
      "d": 220,
      "v": 70
    },
    {
      "midi": 43,
      "hit": false,
      "t": 184068,
      "d": 88,
      "v": 58
    },
    {
      "midi": 71,
      "hit": false,
      "t": 184092,
      "d": 116,
      "v": 80
    },
    {
      "midi": 60,
      "hit": false,
      "t": 184320,
      "d": 1804,
      "v": 53
    },
    {
      "midi": 67,
      "hit": false,
      "t": 184320,
      "d": 1812,
      "v": 53
    },
    {
      "midi": 72,
      "hit": false,
      "t": 184320,
      "d": 1812,
      "v": 53
    },
    {
      "midi": 52,
      "hit": false,
      "t": 184320,
      "d": 1820,
      "v": 46
    },
    {
      "midi": 36,
      "hit": false,
      "t": 184332,
      "d": 596,
      "v": 70
    },
    {
      "midi": 76,
      "hit": false,
      "t": 184360,
      "d": 1772,
      "v": 59
    },
    {
      "midi": 36,
      "hit": false,
      "t": 185048,
      "d": 108,
      "v": 58
    },
    {
      "midi": 36,
      "hit": false,
      "t": 185292,
      "d": 608,
      "v": 64
    },
    {
      "midi": 36,
      "hit": false,
      "t": 186000,
      "d": 120,
      "v": 68
    },
    {
      "midi": 52,
      "hit": false,
      "t": 186240,
      "d": 184,
      "v": 47
    },
    {
      "midi": 59,
      "hit": false,
      "t": 186240,
      "d": 372,
      "v": 57
    },
    {
      "midi": 64,
      "hit": false,
      "t": 186240,
      "d": 392,
      "v": 68
    },
    {
      "midi": 67,
      "hit": false,
      "t": 186240,
      "d": 392,
      "v": 55
    },
    {
      "midi": 40,
      "hit": false,
      "t": 186240,
      "d": 716,
      "v": 47
    },
    {
      "midi": 40,
      "hit": false,
      "t": 186248,
      "d": 640,
      "v": 80
    },
    {
      "midi": 52,
      "hit": false,
      "t": 186504,
      "d": 472,
      "v": 61
    },
    {
      "midi": 59,
      "hit": false,
      "t": 186728,
      "d": 364,
      "v": 85
    },
    {
      "midi": 64,
      "hit": false,
      "t": 186960,
      "d": 148,
      "v": 74
    },
    {
      "midi": 67,
      "hit": false,
      "t": 186964,
      "d": 140,
      "v": 66
    },
    {
      "midi": 40,
      "hit": false,
      "t": 186972,
      "d": 104,
      "v": 68
    },
    {
      "midi": 51,
      "hit": false,
      "t": 187200,
      "d": 184,
      "v": 47
    },
    {
      "midi": 58,
      "hit": false,
      "t": 187200,
      "d": 372,
      "v": 57
    },
    {
      "midi": 63,
      "hit": false,
      "t": 187200,
      "d": 392,
      "v": 68
    },
    {
      "midi": 66,
      "hit": false,
      "t": 187200,
      "d": 392,
      "v": 55
    },
    {
      "midi": 39,
      "hit": false,
      "t": 187200,
      "d": 716,
      "v": 47
    },
    {
      "midi": 39,
      "hit": false,
      "t": 187224,
      "d": 64,
      "v": 63
    },
    {
      "midi": 39,
      "hit": false,
      "t": 187448,
      "d": 356,
      "v": 63
    },
    {
      "midi": 51,
      "hit": false,
      "t": 187464,
      "d": 472,
      "v": 61
    },
    {
      "midi": 58,
      "hit": false,
      "t": 187688,
      "d": 364,
      "v": 85
    },
    {
      "midi": 63,
      "hit": false,
      "t": 187920,
      "d": 148,
      "v": 74
    },
    {
      "midi": 66,
      "hit": false,
      "t": 187924,
      "d": 140,
      "v": 66
    },
    {
      "midi": 39,
      "hit": false,
      "t": 187928,
      "d": 156,
      "v": 68
    },
    {
      "midi": 50,
      "hit": false,
      "t": 188160,
      "d": 616,
      "v": 37
    },
    {
      "midi": 65,
      "hit": false,
      "t": 188160,
      "d": 676,
      "v": 58
    },
    {
      "midi": 62,
      "hit": false,
      "t": 188160,
      "d": 704,
      "v": 47
    },
    {
      "midi": 69,
      "hit": false,
      "t": 188160,
      "d": 716,
      "v": 51
    },
    {
      "midi": 57,
      "hit": false,
      "t": 188160,
      "d": 736,
      "v": 43
    },
    {
      "midi": 38,
      "hit": false,
      "t": 188168,
      "d": 1472,
      "v": 24
    },
    {
      "midi": 38,
      "hit": false,
      "t": 188180,
      "d": 652,
      "v": 68
    },
    {
      "midi": 50,
      "hit": false,
      "t": 188888,
      "d": 372,
      "v": 55
    },
    {
      "midi": 33,
      "hit": false,
      "t": 188892,
      "d": 52,
      "v": 59
    },
    {
      "midi": 35,
      "hit": false,
      "t": 188988,
      "d": 80,
      "v": 82
    },
    {
      "midi": 69,
      "hit": false,
      "t": 189112,
      "d": 236,
      "v": 60
    },
    {
      "midi": 57,
      "hit": false,
      "t": 189112,
      "d": 252,
      "v": 52
    },
    {
      "midi": 62,
      "hit": false,
      "t": 189120,
      "d": 236,
      "v": 68
    },
    {
      "midi": 65,
      "hit": false,
      "t": 189124,
      "d": 224,
      "v": 60
    },
    {
      "midi": 38,
      "hit": false,
      "t": 189128,
      "d": 572,
      "v": 78
    },
    {
      "midi": 50,
      "hit": false,
      "t": 189508,
      "d": 40,
      "v": 41
    },
    {
      "midi": 69,
      "hit": false,
      "t": 189580,
      "d": 204,
      "v": 80
    },
    {
      "midi": 65,
      "hit": false,
      "t": 189584,
      "d": 204,
      "v": 82
    },
    {
      "midi": 57,
      "hit": false,
      "t": 189588,
      "d": 212,
      "v": 68
    },
    {
      "midi": 62,
      "hit": false,
      "t": 189588,
      "d": 212,
      "v": 82
    },
    {
      "midi": 38,
      "hit": false,
      "t": 189828,
      "d": 88,
      "v": 58
    },
    {
      "midi": 65,
      "hit": false,
      "t": 190080,
      "d": 156,
      "v": 39
    },
    {
      "midi": 69,
      "hit": false,
      "t": 190080,
      "d": 276,
      "v": 47
    },
    {
      "midi": 72,
      "hit": false,
      "t": 190080,
      "d": 308,
      "v": 62
    },
    {
      "midi": 77,
      "hit": false,
      "t": 190084,
      "d": 312,
      "v": 58
    },
    {
      "midi": 57,
      "hit": false,
      "t": 190088,
      "d": 1548,
      "v": 52
    },
    {
      "midi": 41,
      "hit": false,
      "t": 190092,
      "d": 596,
      "v": 70
    },
    {
      "midi": 53,
      "hit": false,
      "t": 190104,
      "d": 1676,
      "v": 50
    },
    {
      "midi": 65,
      "hit": false,
      "t": 190328,
      "d": 572,
      "v": 26
    },
    {
      "midi": 69,
      "hit": false,
      "t": 190560,
      "d": 200,
      "v": 47
    },
    {
      "midi": 41,
      "hit": false,
      "t": 190808,
      "d": 108,
      "v": 58
    },
    {
      "midi": 72,
      "hit": false,
      "t": 190820,
      "d": 84,
      "v": 25
    },
    {
      "midi": 77,
      "hit": false,
      "t": 191032,
      "d": 68,
      "v": 54
    },
    {
      "midi": 41,
      "hit": false,
      "t": 191052,
      "d": 608,
      "v": 64
    },
    {
      "midi": 81,
      "hit": false,
      "t": 191292,
      "d": 216,
      "v": 60
    },
    {
      "midi": 65,
      "hit": false,
      "t": 191460,
      "d": 128,
      "v": 44
    },
    {
      "midi": 84,
      "hit": false,
      "t": 191516,
      "d": 96,
      "v": 85
    },
    {
      "midi": 81,
      "hit": false,
      "t": 191632,
      "d": 112,
      "v": 70
    },
    {
      "midi": 41,
      "hit": false,
      "t": 191760,
      "d": 120,
      "v": 68
    },
    {
      "midi": 77,
      "hit": false,
      "t": 191760,
      "d": 96,
      "v": 58
    },
    {
      "midi": 72,
      "hit": false,
      "t": 191900,
      "d": 28,
      "v": 36
    },
    {
      "midi": 36,
      "hit": false,
      "t": 192000,
      "d": 616,
      "v": 64
    },
    {
      "midi": 67,
      "hit": false,
      "t": 192012,
      "d": 284,
      "v": 47
    },
    {
      "midi": 48,
      "hit": false,
      "t": 192012,
      "d": 1464,
      "v": 36
    },
    {
      "midi": 60,
      "hit": false,
      "t": 192016,
      "d": 280,
      "v": 57
    },
    {
      "midi": 36,
      "hit": false,
      "t": 192016,
      "d": 3632,
      "v": 42
    },
    {
      "midi": 64,
      "hit": false,
      "t": 192020,
      "d": 264,
      "v": 62
    },
    {
      "midi": 36,
      "hit": false,
      "t": 192732,
      "d": 80,
      "v": 66
    },
    {
      "midi": 79,
      "hit": false,
      "t": 192852,
      "d": 184,
      "v": 50
    },
    {
      "midi": 76,
      "hit": false,
      "t": 192896,
      "d": 180,
      "v": 51
    },
    {
      "midi": 72,
      "hit": false,
      "t": 192924,
      "d": 188,
      "v": 64
    },
    {
      "midi": 36,
      "hit": false,
      "t": 192980,
      "d": 640,
      "v": 60
    },
    {
      "midi": 31,
      "hit": false,
      "t": 193688,
      "d": 108,
      "v": 58
    },
    {
      "midi": 67,
      "hit": false,
      "t": 193740,
      "d": 548,
      "v": 27
    },
    {
      "midi": 64,
      "hit": false,
      "t": 193772,
      "d": 528,
      "v": 45
    },
    {
      "midi": 33,
      "hit": false,
      "t": 193796,
      "d": 100,
      "v": 61
    },
    {
      "midi": 60,
      "hit": false,
      "t": 193836,
      "d": 480,
      "v": 51
    },
    {
      "midi": 36,
      "hit": false,
      "t": 193928,
      "d": 760,
      "v": 57
    },
    {
      "midi": 48,
      "hit": false,
      "t": 193928,
      "d": 436,
      "v": 41
    },
    {
      "midi": 48,
      "hit": false,
      "t": 194648,
      "d": 400,
      "v": 66
    },
    {
      "midi": 36,
      "hit": false,
      "t": 194776,
      "d": 64,
      "v": 51
    },
    {
      "midi": 55,
      "hit": false,
      "t": 194880,
      "d": 316,
      "v": 60
    },
    {
      "midi": 60,
      "hit": false,
      "t": 194888,
      "d": 484,
      "v": 62
    },
    {
      "midi": 64,
      "hit": false,
      "t": 194892,
      "d": 476,
      "v": 60
    },
    {
      "midi": 36,
      "hit": false,
      "t": 194908,
      "d": 40,
      "v": 70
    },
    {
      "midi": 48,
      "hit": false,
      "t": 195124,
      "d": 536,
      "v": 80
    },
    {
      "midi": 36,
      "hit": false,
      "t": 195128,
      "d": 368,
      "v": 85
    },
    {
      "midi": 55,
      "hit": false,
      "t": 195372,
      "d": 288,
      "v": 87
    },
    {
      "midi": 36,
      "hit": false,
      "t": 195596,
      "d": 160,
      "v": 78
    },
    {
      "midi": 60,
      "hit": false,
      "t": 195624,
      "d": 60,
      "v": 62
    },
    {
      "midi": 58,
      "hit": false,
      "t": 195840,
      "d": 360,
      "v": 60
    },
    {
      "midi": 63,
      "hit": false,
      "t": 195848,
      "d": 384,
      "v": 70
    },
    {
      "midi": 39,
      "hit": false,
      "t": 195852,
      "d": 596,
      "v": 70
    },
    {
      "midi": 51,
      "hit": false,
      "t": 195852,
      "d": 168,
      "v": 52
    },
    {
      "midi": 39,
      "hit": false,
      "t": 195852,
      "d": 1764,
      "v": 41
    },
    {
      "midi": 67,
      "hit": false,
      "t": 195856,
      "d": 392,
      "v": 59
    },
    {
      "midi": 61,
      "hit": false,
      "t": 195856,
      "d": 400,
      "v": 68
    },
    {
      "midi": 51,
      "hit": false,
      "t": 196088,
      "d": 628,
      "v": 47
    },
    {
      "midi": 58,
      "hit": false,
      "t": 196332,
      "d": 728,
      "v": 58
    },
    {
      "midi": 63,
      "hit": false,
      "t": 196548,
      "d": 532,
      "v": 60
    },
    {
      "midi": 61,
      "hit": false,
      "t": 196556,
      "d": 544,
      "v": 54
    },
    {
      "midi": 39,
      "hit": false,
      "t": 196568,
      "d": 108,
      "v": 58
    },
    {
      "midi": 67,
      "hit": false,
      "t": 196568,
      "d": 532,
      "v": 57
    },
    {
      "midi": 39,
      "hit": false,
      "t": 196812,
      "d": 608,
      "v": 64
    },
    {
      "midi": 51,
      "hit": false,
      "t": 197036,
      "d": 592,
      "v": 87
    },
    {
      "midi": 58,
      "hit": false,
      "t": 197156,
      "d": 492,
      "v": 78
    },
    {
      "midi": 61,
      "hit": false,
      "t": 197280,
      "d": 368,
      "v": 61
    },
    {
      "midi": 63,
      "hit": false,
      "t": 197400,
      "d": 220,
      "v": 70
    },
    {
      "midi": 39,
      "hit": false,
      "t": 197520,
      "d": 120,
      "v": 68
    },
    {
      "midi": 67,
      "hit": false,
      "t": 197532,
      "d": 116,
      "v": 80
    },
    {
      "midi": 44,
      "hit": false,
      "t": 197760,
      "d": 616,
      "v": 37
    },
    {
      "midi": 66,
      "hit": false,
      "t": 197760,
      "d": 676,
      "v": 58
    },
    {
      "midi": 63,
      "hit": false,
      "t": 197760,
      "d": 704,
      "v": 47
    },
    {
      "midi": 68,
      "hit": false,
      "t": 197760,
      "d": 716,
      "v": 51
    },
    {
      "midi": 60,
      "hit": false,
      "t": 197760,
      "d": 736,
      "v": 43
    },
    {
      "midi": 44,
      "hit": false,
      "t": 197780,
      "d": 652,
      "v": 68
    },
    {
      "midi": 44,
      "hit": false,
      "t": 198488,
      "d": 372,
      "v": 55
    },
    {
      "midi": 39,
      "hit": false,
      "t": 198492,
      "d": 52,
      "v": 59
    },
    {
      "midi": 41,
      "hit": false,
      "t": 198588,
      "d": 80,
      "v": 82
    },
    {
      "midi": 68,
      "hit": false,
      "t": 198712,
      "d": 236,
      "v": 60
    },
    {
      "midi": 60,
      "hit": false,
      "t": 198712,
      "d": 252,
      "v": 52
    },
    {
      "midi": 63,
      "hit": false,
      "t": 198720,
      "d": 236,
      "v": 68
    },
    {
      "midi": 66,
      "hit": false,
      "t": 198724,
      "d": 224,
      "v": 60
    },
    {
      "midi": 44,
      "hit": false,
      "t": 198728,
      "d": 572,
      "v": 78
    },
    {
      "midi": 44,
      "hit": false,
      "t": 199108,
      "d": 40,
      "v": 41
    },
    {
      "midi": 68,
      "hit": false,
      "t": 199180,
      "d": 204,
      "v": 80
    },
    {
      "midi": 66,
      "hit": false,
      "t": 199184,
      "d": 204,
      "v": 82
    },
    {
      "midi": 60,
      "hit": false,
      "t": 199188,
      "d": 212,
      "v": 68
    },
    {
      "midi": 63,
      "hit": false,
      "t": 199188,
      "d": 212,
      "v": 82
    },
    {
      "midi": 44,
      "hit": false,
      "t": 199428,
      "d": 88,
      "v": 58
    },
    {
      "midi": 44,
      "hit": false,
      "t": 199680,
      "d": 616,
      "v": 37
    },
    {
      "midi": 66,
      "hit": false,
      "t": 199680,
      "d": 676,
      "v": 58
    },
    {
      "midi": 63,
      "hit": false,
      "t": 199680,
      "d": 704,
      "v": 47
    },
    {
      "midi": 68,
      "hit": false,
      "t": 199680,
      "d": 716,
      "v": 51
    },
    {
      "midi": 59,
      "hit": false,
      "t": 199680,
      "d": 736,
      "v": 43
    },
    {
      "midi": 44,
      "hit": false,
      "t": 199692,
      "d": 596,
      "v": 70
    },
    {
      "midi": 44,
      "hit": false,
      "t": 200408,
      "d": 108,
      "v": 58
    },
    {
      "midi": 44,
      "hit": false,
      "t": 200408,
      "d": 372,
      "v": 55
    },
    {
      "midi": 68,
      "hit": false,
      "t": 200632,
      "d": 236,
      "v": 60
    },
    {
      "midi": 59,
      "hit": false,
      "t": 200632,
      "d": 252,
      "v": 52
    },
    {
      "midi": 63,
      "hit": false,
      "t": 200640,
      "d": 236,
      "v": 68
    },
    {
      "midi": 66,
      "hit": false,
      "t": 200644,
      "d": 224,
      "v": 60
    },
    {
      "midi": 44,
      "hit": false,
      "t": 200652,
      "d": 608,
      "v": 64
    },
    {
      "midi": 44,
      "hit": false,
      "t": 201028,
      "d": 40,
      "v": 41
    },
    {
      "midi": 68,
      "hit": false,
      "t": 201100,
      "d": 204,
      "v": 80
    },
    {
      "midi": 66,
      "hit": false,
      "t": 201104,
      "d": 204,
      "v": 82
    },
    {
      "midi": 59,
      "hit": false,
      "t": 201108,
      "d": 212,
      "v": 68
    },
    {
      "midi": 63,
      "hit": false,
      "t": 201108,
      "d": 212,
      "v": 82
    },
    {
      "midi": 44,
      "hit": false,
      "t": 201360,
      "d": 120,
      "v": 68
    },
    {
      "midi": 55,
      "hit": false,
      "t": 201600,
      "d": 360,
      "v": 60
    },
    {
      "midi": 60,
      "hit": false,
      "t": 201608,
      "d": 384,
      "v": 70
    },
    {
      "midi": 48,
      "hit": false,
      "t": 201612,
      "d": 168,
      "v": 52
    },
    {
      "midi": 36,
      "hit": false,
      "t": 201612,
      "d": 1764,
      "v": 41
    },
    {
      "midi": 64,
      "hit": false,
      "t": 201616,
      "d": 392,
      "v": 59
    },
    {
      "midi": 57,
      "hit": false,
      "t": 201616,
      "d": 400,
      "v": 68
    },
    {
      "midi": 36,
      "hit": false,
      "t": 201620,
      "d": 652,
      "v": 68
    },
    {
      "midi": 48,
      "hit": false,
      "t": 201848,
      "d": 628,
      "v": 47
    },
    {
      "midi": 55,
      "hit": false,
      "t": 202092,
      "d": 728,
      "v": 58
    },
    {
      "midi": 60,
      "hit": false,
      "t": 202308,
      "d": 532,
      "v": 60
    },
    {
      "midi": 57,
      "hit": false,
      "t": 202316,
      "d": 544,
      "v": 54
    },
    {
      "midi": 64,
      "hit": false,
      "t": 202328,
      "d": 532,
      "v": 57
    },
    {
      "midi": 31,
      "hit": false,
      "t": 202332,
      "d": 52,
      "v": 59
    },
    {
      "midi": 33,
      "hit": false,
      "t": 202428,
      "d": 80,
      "v": 82
    },
    {
      "midi": 36,
      "hit": false,
      "t": 202568,
      "d": 572,
      "v": 78
    },
    {
      "midi": 48,
      "hit": false,
      "t": 202796,
      "d": 592,
      "v": 87
    },
    {
      "midi": 55,
      "hit": false,
      "t": 202916,
      "d": 492,
      "v": 78
    },
    {
      "midi": 57,
      "hit": false,
      "t": 203040,
      "d": 368,
      "v": 61
    },
    {
      "midi": 60,
      "hit": false,
      "t": 203160,
      "d": 220,
      "v": 70
    },
    {
      "midi": 36,
      "hit": false,
      "t": 203268,
      "d": 88,
      "v": 58
    },
    {
      "midi": 64,
      "hit": false,
      "t": 203292,
      "d": 116,
      "v": 80
    },
    {
      "midi": 36,
      "hit": false,
      "t": 203532,
      "d": 596,
      "v": 70
    },
    {
      "midi": 72,
      "hit": false,
      "t": 203540,
      "d": 864,
      "v": 48
    },
    {
      "midi": 67,
      "hit": false,
      "t": 203544,
      "d": 840,
      "v": 61
    },
    {
      "midi": 48,
      "hit": false,
      "t": 203544,
      "d": 1676,
      "v": 46
    },
    {
      "midi": 57,
      "hit": false,
      "t": 203548,
      "d": 544,
      "v": 37
    },
    {
      "midi": 64,
      "hit": false,
      "t": 203548,
      "d": 780,
      "v": 43
    },
    {
      "midi": 57,
      "hit": false,
      "t": 204244,
      "d": 964,
      "v": 60
    },
    {
      "midi": 36,
      "hit": false,
      "t": 204248,
      "d": 108,
      "v": 58
    },
    {
      "midi": 36,
      "hit": false,
      "t": 204492,
      "d": 608,
      "v": 64
    },
    {
      "midi": 64,
      "hit": false,
      "t": 204716,
      "d": 448,
      "v": 41
    },
    {
      "midi": 72,
      "hit": false,
      "t": 204944,
      "d": 208,
      "v": 85
    },
    {
      "midi": 67,
      "hit": false,
      "t": 204948,
      "d": 212,
      "v": 59
    },
    {
      "midi": 36,
      "hit": false,
      "t": 205200,
      "d": 120,
      "v": 68
    },
    {
      "midi": 64,
      "hit": false,
      "t": 205440,
      "d": 1956,
      "v": 46
    },
    {
      "midi": 48,
      "hit": false,
      "t": 205444,
      "d": 1968,
      "v": 40
    },
    {
      "midi": 52,
      "hit": false,
      "t": 205448,
      "d": 1436,
      "v": 58
    },
    {
      "midi": 67,
      "hit": false,
      "t": 205452,
      "d": 1968,
      "v": 72
    },
    {
      "midi": 57,
      "hit": false,
      "t": 205460,
      "d": 1948,
      "v": 53
    },
    {
      "midi": 72,
      "hit": false,
      "t": 205464,
      "d": 1952,
      "v": 68
    },
    {
      "midi": 36,
      "hit": false,
      "t": 205488,
      "d": 1928,
      "v": 72
    }
  ]
}