{
  "jsonPath": "Soundtracks/Video Game Music/Atelier Iris Eternal Mana/atelier-iris-eternal-mana-eternalmanathemewhitenightimagination.json",
  "path": "Soundtracks\\Video Game Music\\Atelier Iris Eternal Mana\\Atelier_Iris_Eternal_Mana_EternalManaThemeWhiteNightImagination.mid",
  "name": "Atelier_Iris_Eternal_Mana_EternalManaThemeWhiteNightImagination",
  "difficulty": "Advanced",
  "bpm": 110.00011000011,
  "notes": [
    {
      "midi": 63,
      "hit": false,
      "t": 0,
      "d": 454.545,
      "v": 110
    },
    {
      "midi": 52,
      "hit": false,
      "t": 0,
      "d": 1499.9985,
      "v": 110
    },
    {
      "midi": 56,
      "hit": false,
      "t": 0,
      "d": 1499.9985,
      "v": 110
    },
    {
      "midi": 63,
      "hit": false,
      "t": 0,
      "d": 1499.9985,
      "v": 110
    },
    {
      "midi": 66,
      "hit": false,
      "t": 545.4540000000001,
      "d": 267.0451875,
      "v": 110
    },
    {
      "midi": 61,
      "hit": false,
      "t": 818.181,
      "d": 727.2719999999999,
      "v": 110
    },
    {
      "midi": 52,
      "hit": false,
      "t": 1636.3619999999999,
      "d": 727.2720000000002,
      "v": 110
    },
    {
      "midi": 58,
      "hit": false,
      "t": 1636.3619999999999,
      "d": 727.2720000000002,
      "v": 110
    },
    {
      "midi": 58,
      "hit": false,
      "t": 1636.362,
      "d": 403.40868750000004,
      "v": 110
    },
    {
      "midi": 59,
      "hit": false,
      "t": 2045.4525,
      "d": 130.68168750000018,
      "v": 110
    },
    {
      "midi": 61,
      "hit": false,
      "t": 2181.8160000000003,
      "d": 90.9090000000001,
      "v": 110
    },
    {
      "midi": 54,
      "hit": false,
      "t": 2454.543,
      "d": 727.2719999999999,
      "v": 110
    },
    {
      "midi": 59,
      "hit": false,
      "t": 2454.543,
      "d": 727.2719999999999,
      "v": 110
    },
    {
      "midi": 63,
      "hit": false,
      "t": 2454.543,
      "d": 727.2719999999999,
      "v": 110
    },
    {
      "midi": 63,
      "hit": false,
      "t": 2454.5430000000006,
      "d": 539.7721874999997,
      "v": 110
    },
    {
      "midi": 63,
      "hit": false,
      "t": 2999.9970000000003,
      "d": 130.68168749999995,
      "v": 110
    },
    {
      "midi": 66,
      "hit": false,
      "t": 3136.3605000000002,
      "d": 130.68168749999995,
      "v": 110
    },
    {
      "midi": 68,
      "hit": false,
      "t": 3272.724,
      "d": 454.5450000000001,
      "v": 110
    },
    {
      "midi": 47,
      "hit": false,
      "t": 3272.724,
      "d": 727.2719999999999,
      "v": 110
    },
    {
      "midi": 52,
      "hit": false,
      "t": 3272.724,
      "d": 727.2719999999999,
      "v": 110
    },
    {
      "midi": 56,
      "hit": false,
      "t": 3272.724,
      "d": 727.2719999999999,
      "v": 110
    },
    {
      "midi": 70,
      "hit": false,
      "t": 3818.1780000000003,
      "d": 62.499937500000215,
      "v": 110
    },
    {
      "midi": 71,
      "hit": false,
      "t": 3886.3597500000005,
      "d": 198.86343750000015,
      "v": 110
    },
    {
      "midi": 49,
      "hit": false,
      "t": 4090.905,
      "d": 727.2720000000004,
      "v": 110
    },
    {
      "midi": 54,
      "hit": false,
      "t": 4090.905,
      "d": 727.2720000000004,
      "v": 110
    },
    {
      "midi": 58,
      "hit": false,
      "t": 4090.905,
      "d": 727.2720000000004,
      "v": 110
    },
    {
      "midi": 70,
      "hit": false,
      "t": 4090.9050000000007,
      "d": 539.7721874999997,
      "v": 110
    },
    {
      "midi": 66,
      "hit": false,
      "t": 4636.359,
      "d": 267.0451874999999,
      "v": 110
    },
    {
      "midi": 63,
      "hit": false,
      "t": 4909.086,
      "d": 954.5445,
      "v": 110
    },
    {
      "midi": 54,
      "hit": false,
      "t": 4909.086,
      "d": 1499.9984999999997,
      "v": 110
    },
    {
      "midi": 59,
      "hit": false,
      "t": 4909.086,
      "d": 1499.9984999999997,
      "v": 110
    },
    {
      "midi": 63,
      "hit": false,
      "t": 4909.086,
      "d": 1499.9984999999997,
      "v": 110
    },
    {
      "midi": 63,
      "hit": false,
      "t": 5999.994000000001,
      "d": 267.0451874999999,
      "v": 110
    },
    {
      "midi": 66,
      "hit": false,
      "t": 6272.7210000000005,
      "d": 267.0451874999999,
      "v": 110
    },
    {
      "midi": 68,
      "hit": false,
      "t": 6545.448,
      "d": 454.5450000000001,
      "v": 110
    },
    {
      "midi": 47,
      "hit": false,
      "t": 6545.448,
      "d": 727.2719999999999,
      "v": 110
    },
    {
      "midi": 52,
      "hit": false,
      "t": 6545.448,
      "d": 727.2719999999999,
      "v": 110
    },
    {
      "midi": 56,
      "hit": false,
      "t": 6545.448,
      "d": 727.2719999999999,
      "v": 110
    },
    {
      "midi": 71,
      "hit": false,
      "t": 7090.902,
      "d": 267.0451874999999,
      "v": 110
    },
    {
      "midi": 70,
      "hit": false,
      "t": 7363.629,
      "d": 539.7721874999997,
      "v": 110
    },
    {
      "midi": 49,
      "hit": false,
      "t": 7363.629,
      "d": 727.2719999999999,
      "v": 110
    },
    {
      "midi": 52,
      "hit": false,
      "t": 7363.629,
      "d": 727.2719999999999,
      "v": 110
    },
    {
      "midi": 58,
      "hit": false,
      "t": 7363.629,
      "d": 727.2719999999999,
      "v": 110
    },
    {
      "midi": 66,
      "hit": false,
      "t": 7909.083,
      "d": 267.0451874999999,
      "v": 110
    },
    {
      "midi": 63,
      "hit": false,
      "t": 8181.8099999999995,
      "d": 403.40868749999936,
      "v": 110
    },
    {
      "midi": 47,
      "hit": false,
      "t": 8181.8099999999995,
      "d": 1499.9984999999997,
      "v": 110
    },
    {
      "midi": 51,
      "hit": false,
      "t": 8181.8099999999995,
      "d": 1499.9984999999997,
      "v": 110
    },
    {
      "midi": 54,
      "hit": false,
      "t": 8181.8099999999995,
      "d": 1499.9984999999997,
      "v": 110
    },
    {
      "midi": 64,
      "hit": false,
      "t": 8590.9005,
      "d": 62.49993750000067,
      "v": 110
    },
    {
      "midi": 63,
      "hit": false,
      "t": 8659.082250000001,
      "d": 62.49993750000067,
      "v": 110
    },
    {
      "midi": 61,
      "hit": false,
      "t": 8727.264000000003,
      "d": 130.6816875000004,
      "v": 110
    },
    {
      "midi": 59,
      "hit": false,
      "t": 8863.627500000004,
      "d": 130.6816875000004,
      "v": 110
    },
    {
      "midi": 63,
      "hit": false,
      "t": 8999.991000000005,
      "d": 539.7721875000007,
      "v": 110
    },
    {
      "midi": 59,
      "hit": false,
      "t": 9545.445000000007,
      "d": 130.6816875000004,
      "v": 110
    },
    {
      "midi": 63,
      "hit": false,
      "t": 9681.808500000008,
      "d": 130.6816875000004,
      "v": 110
    },
    {
      "midi": 46,
      "hit": false,
      "t": 9818.171999999999,
      "d": 1499.9984999999997,
      "v": 110
    },
    {
      "midi": 49,
      "hit": false,
      "t": 9818.171999999999,
      "d": 1499.9984999999997,
      "v": 110
    },
    {
      "midi": 52,
      "hit": false,
      "t": 9818.171999999999,
      "d": 1499.9984999999997,
      "v": 110
    },
    {
      "midi": 61,
      "hit": false,
      "t": 9818.17200000001,
      "d": 454.5450000000001,
      "v": 110
    },
    {
      "midi": 61,
      "hit": false,
      "t": 10363.62600000001,
      "d": 267.0451874999999,
      "v": 110
    },
    {
      "midi": 61,
      "hit": false,
      "t": 10636.35300000001,
      "d": 267.0451874999999,
      "v": 110
    },
    {
      "midi": 63,
      "hit": false,
      "t": 10909.08000000001,
      "d": 267.0451874999999,
      "v": 110
    },
    {
      "midi": 61,
      "hit": false,
      "t": 11181.807000000012,
      "d": 267.0451874999999,
      "v": 110
    },
    {
      "midi": 47,
      "hit": false,
      "t": 11454.533999999998,
      "d": 954.5445,
      "v": 110
    },
    {
      "midi": 51,
      "hit": false,
      "t": 11454.533999999998,
      "d": 954.5445,
      "v": 110
    },
    {
      "midi": 56,
      "hit": false,
      "t": 11454.533999999998,
      "d": 954.5445,
      "v": 110
    },
    {
      "midi": 63,
      "hit": false,
      "t": 11454.534000000012,
      "d": 954.5445,
      "v": 110
    },
    {
      "midi": 59,
      "hit": false,
      "t": 12818.169000000013,
      "d": 130.6816875000004,
      "v": 110
    },
    {
      "midi": 61,
      "hit": false,
      "t": 12954.532500000014,
      "d": 130.6816875000004,
      "v": 110
    },
    {
      "midi": 52,
      "hit": false,
      "t": 13090.895999999997,
      "d": 727.2720000000008,
      "v": 110
    },
    {
      "midi": 56,
      "hit": false,
      "t": 13090.895999999997,
      "d": 727.2720000000008,
      "v": 110
    },
    {
      "midi": 63,
      "hit": false,
      "t": 13090.895999999997,
      "d": 727.2720000000008,
      "v": 110
    },
    {
      "midi": 63,
      "hit": false,
      "t": 13090.896000000015,
      "d": 454.5450000000001,
      "v": 110
    },
    {
      "midi": 66,
      "hit": false,
      "t": 13636.350000000015,
      "d": 267.0451874999999,
      "v": 110
    },
    {
      "midi": 52,
      "hit": false,
      "t": 13909.076999999997,
      "d": 727.2720000000008,
      "v": 110
    },
    {
      "midi": 58,
      "hit": false,
      "t": 13909.076999999997,
      "d": 727.2720000000008,
      "v": 110
    },
    {
      "midi": 61,
      "hit": false,
      "t": 13909.076999999997,
      "d": 727.2720000000008,
      "v": 110
    },
    {
      "midi": 61,
      "hit": false,
      "t": 13909.077000000016,
      "d": 727.2720000000008,
      "v": 110
    },
    {
      "midi": 52,
      "hit": false,
      "t": 14727.257999999998,
      "d": 727.2720000000008,
      "v": 110
    },
    {
      "midi": 58,
      "hit": false,
      "t": 14727.257999999998,
      "d": 727.2720000000008,
      "v": 110
    },
    {
      "midi": 58,
      "hit": false,
      "t": 14727.258000000016,
      "d": 403.40868749999936,
      "v": 110
    },
    {
      "midi": 59,
      "hit": false,
      "t": 15136.348500000016,
      "d": 130.6816875000004,
      "v": 110
    },
    {
      "midi": 61,
      "hit": false,
      "t": 15272.712000000018,
      "d": 267.0451874999999,
      "v": 110
    },
    {
      "midi": 54,
      "hit": false,
      "t": 15545.438999999998,
      "d": 727.2720000000008,
      "v": 110
    },
    {
      "midi": 59,
      "hit": false,
      "t": 15545.438999999998,
      "d": 727.2720000000008,
      "v": 110
    },
    {
      "midi": 63,
      "hit": false,
      "t": 15545.438999999998,
      "d": 727.2720000000008,
      "v": 110
    },
    {
      "midi": 63,
      "hit": false,
      "t": 15545.439000000018,
      "d": 539.7721875000007,
      "v": 110
    },
    {
      "midi": 63,
      "hit": false,
      "t": 16090.89300000002,
      "d": 130.6816875000004,
      "v": 110
    },
    {
      "midi": 66,
      "hit": false,
      "t": 16227.256500000021,
      "d": 130.6816875000004,
      "v": 110
    },
    {
      "midi": 47,
      "hit": false,
      "t": 16363.619999999999,
      "d": 727.2720000000008,
      "v": 110
    },
    {
      "midi": 52,
      "hit": false,
      "t": 16363.619999999999,
      "d": 727.2720000000008,
      "v": 110
    },
    {
      "midi": 56,
      "hit": false,
      "t": 16363.619999999999,
      "d": 727.2720000000008,
      "v": 110
    },
    {
      "midi": 68,
      "hit": false,
      "t": 16363.620000000023,
      "d": 454.5450000000001,
      "v": 110
    },
    {
      "midi": 70,
      "hit": false,
      "t": 16909.074000000022,
      "d": 62.49993750000067,
      "v": 110
    },
    {
      "midi": 71,
      "hit": false,
      "t": 16977.255750000022,
      "d": 198.86343750000015,
      "v": 110
    },
    {
      "midi": 49,
      "hit": false,
      "t": 17181.801,
      "d": 727.2720000000008,
      "v": 110
    },
    {
      "midi": 54,
      "hit": false,
      "t": 17181.801,
      "d": 727.2720000000008,
      "v": 110
    },
    {
      "midi": 58,
      "hit": false,
      "t": 17181.801,
      "d": 727.2720000000008,
      "v": 110
    },
    {
      "midi": 70,
      "hit": false,
      "t": 17181.80100000002,
      "d": 539.7721874999988,
      "v": 110
    },
    {
      "midi": 66,
      "hit": false,
      "t": 17727.25500000002,
      "d": 267.0451874999999,
      "v": 110
    },
    {
      "midi": 54,
      "hit": false,
      "t": 17999.982,
      "d": 1499.9985000000015,
      "v": 110
    },
    {
      "midi": 59,
      "hit": false,
      "t": 17999.982,
      "d": 1499.9985000000015,
      "v": 110
    },
    {
      "midi": 63,
      "hit": false,
      "t": 17999.982,
      "d": 1499.9985000000015,
      "v": 110
    },
    {
      "midi": 63,
      "hit": false,
      "t": 17999.982000000018,
      "d": 954.5445,
      "v": 110
    },
    {
      "midi": 63,
      "hit": false,
      "t": 19090.890000000018,
      "d": 267.0451874999999,
      "v": 110
    },
    {
      "midi": 66,
      "hit": false,
      "t": 19363.617000000017,
      "d": 267.0451874999999,
      "v": 110
    },
    {
      "midi": 47,
      "hit": false,
      "t": 19636.344,
      "d": 727.2720000000008,
      "v": 110
    },
    {
      "midi": 52,
      "hit": false,
      "t": 19636.344,
      "d": 727.2720000000008,
      "v": 110
    },
    {
      "midi": 56,
      "hit": false,
      "t": 19636.344,
      "d": 727.2720000000008,
      "v": 110
    },
    {
      "midi": 68,
      "hit": false,
      "t": 19636.344000000016,
      "d": 454.54499999999825,
      "v": 110
    },
    {
      "midi": 71,
      "hit": false,
      "t": 20181.798000000013,
      "d": 267.0451874999999,
      "v": 110
    },
    {
      "midi": 49,
      "hit": false,
      "t": 20454.525,
      "d": 727.2720000000008,
      "v": 110
    },
    {
      "midi": 52,
      "hit": false,
      "t": 20454.525,
      "d": 727.2720000000008,
      "v": 110
    },
    {
      "midi": 58,
      "hit": false,
      "t": 20454.525,
      "d": 727.2720000000008,
      "v": 110
    },
    {
      "midi": 70,
      "hit": false,
      "t": 20454.525000000012,
      "d": 539.7721874999988,
      "v": 110
    },
    {
      "midi": 66,
      "hit": false,
      "t": 20999.97900000001,
      "d": 267.0451874999999,
      "v": 110
    },
    {
      "midi": 47,
      "hit": false,
      "t": 21272.706000000002,
      "d": 727.2720000000008,
      "v": 110
    },
    {
      "midi": 51,
      "hit": false,
      "t": 21272.706000000002,
      "d": 727.2720000000008,
      "v": 110
    },
    {
      "midi": 54,
      "hit": false,
      "t": 21272.706000000002,
      "d": 727.2720000000008,
      "v": 110
    },
    {
      "midi": 63,
      "hit": false,
      "t": 21272.70600000001,
      "d": 403.40868749999936,
      "v": 110
    },
    {
      "midi": 64,
      "hit": false,
      "t": 21681.796500000008,
      "d": 62.49993750000067,
      "v": 110
    },
    {
      "midi": 63,
      "hit": false,
      "t": 21749.978250000007,
      "d": 62.49993750000067,
      "v": 110
    },
    {
      "midi": 61,
      "hit": false,
      "t": 21818.160000000007,
      "d": 130.6816875000004,
      "v": 110
    },
    {
      "midi": 59,
      "hit": false,
      "t": 21954.523500000007,
      "d": 130.6816875000004,
      "v": 110
    },
    {
      "midi": 44,
      "hit": false,
      "t": 22090.887000000002,
      "d": 727.2720000000008,
      "v": 110
    },
    {
      "midi": 49,
      "hit": false,
      "t": 22090.887000000002,
      "d": 727.2720000000008,
      "v": 110
    },
    {
      "midi": 54,
      "hit": false,
      "t": 22090.887000000002,
      "d": 727.2720000000008,
      "v": 110
    },
    {
      "midi": 63,
      "hit": false,
      "t": 22090.887000000006,
      "d": 539.7721874999988,
      "v": 110
    },
    {
      "midi": 61,
      "hit": false,
      "t": 22636.341000000004,
      "d": 130.6816875000004,
      "v": 110
    },
    {
      "midi": 63,
      "hit": false,
      "t": 22772.704500000003,
      "d": 130.6816875000004,
      "v": 110
    },
    {
      "midi": 64,
      "hit": false,
      "t": 22909.068000000003,
      "d": 454.54499999999825,
      "v": 110
    },
    {
      "midi": 46,
      "hit": false,
      "t": 22909.068000000003,
      "d": 727.2720000000008,
      "v": 110
    },
    {
      "midi": 49,
      "hit": false,
      "t": 22909.068000000003,
      "d": 727.2720000000008,
      "v": 110
    },
    {
      "midi": 52,
      "hit": false,
      "t": 22909.068000000003,
      "d": 727.2720000000008,
      "v": 110
    },
    {
      "midi": 66,
      "hit": false,
      "t": 23454.522,
      "d": 267.0451874999999,
      "v": 110
    },
    {
      "midi": 70,
      "hit": false,
      "t": 23727.249,
      "d": 267.0451874999999,
      "v": 110
    },
    {
      "midi": 51,
      "hit": false,
      "t": 23727.249000000003,
      "d": 727.2720000000008,
      "v": 110
    },
    {
      "midi": 54,
      "hit": false,
      "t": 23727.249000000003,
      "d": 727.2720000000008,
      "v": 110
    },
    {
      "midi": 58,
      "hit": false,
      "t": 23727.249000000003,
      "d": 727.2720000000008,
      "v": 110
    },
    {
      "midi": 66,
      "hit": false,
      "t": 23999.976,
      "d": 267.0451874999999,
      "v": 110
    },
    {
      "midi": 63,
      "hit": false,
      "t": 24272.702999999998,
      "d": 267.0451874999999,
      "v": 110
    },
    {
      "midi": 68,
      "hit": false,
      "t": 24545.429999999997,
      "d": 954.5445,
      "v": 110
    },
    {
      "midi": 47,
      "hit": false,
      "t": 24545.430000000004,
      "d": 1499.9985000000015,
      "v": 110
    },
    {
      "midi": 51,
      "hit": false,
      "t": 24545.430000000004,
      "d": 1499.9985000000015,
      "v": 110
    },
    {
      "midi": 56,
      "hit": false,
      "t": 24545.430000000004,
      "d": 1499.9985000000015,
      "v": 110
    },
    {
      "midi": 74,
      "hit": false,
      "t": 25909.064999999995,
      "d": 130.6816875000004,
      "v": 110
    },
    {
      "midi": 76,
      "hit": false,
      "t": 26045.428499999995,
      "d": 130.6816875000004,
      "v": 110
    },
    {
      "midi": 77,
      "hit": false,
      "t": 26181.791999999994,
      "d": 454.54499999999825,
      "v": 110
    },
    {
      "midi": 46,
      "hit": false,
      "t": 26181.792000000005,
      "d": 727.2720000000008,
      "v": 110
    },
    {
      "midi": 49,
      "hit": false,
      "t": 26181.792000000005,
      "d": 727.2720000000008,
      "v": 110
    },
    {
      "midi": 53,
      "hit": false,
      "t": 26181.792000000005,
      "d": 727.2720000000008,
      "v": 110
    },
    {
      "midi": 85,
      "hit": false,
      "t": 26727.245999999992,
      "d": 267.0451874999999,
      "v": 110
    },
    {
      "midi": 84,
      "hit": false,
      "t": 26999.97299999999,
      "d": 403.40868749999936,
      "v": 110
    },
    {
      "midi": 53,
      "hit": false,
      "t": 26999.973000000005,
      "d": 727.2720000000008,
      "v": 110
    },
    {
      "midi": 56,
      "hit": false,
      "t": 26999.973000000005,
      "d": 727.2720000000008,
      "v": 110
    },
    {
      "midi": 60,
      "hit": false,
      "t": 26999.973000000005,
      "d": 727.2720000000008,
      "v": 110
    },
    {
      "midi": 85,
      "hit": false,
      "t": 27409.06349999999,
      "d": 130.6816875000004,
      "v": 110
    },
    {
      "midi": 77,
      "hit": false,
      "t": 27545.42699999999,
      "d": 267.0451874999999,
      "v": 110
    },
    {
      "midi": 82,
      "hit": false,
      "t": 27818.153999999988,
      "d": 454.54499999999825,
      "v": 110
    },
    {
      "midi": 54,
      "hit": false,
      "t": 27818.154000000006,
      "d": 727.2720000000008,
      "v": 110
    },
    {
      "midi": 58,
      "hit": false,
      "t": 27818.154000000006,
      "d": 727.2720000000008,
      "v": 110
    },
    {
      "midi": 61,
      "hit": false,
      "t": 27818.154000000006,
      "d": 727.2720000000008,
      "v": 110
    },
    {
      "midi": 80,
      "hit": false,
      "t": 28363.607999999986,
      "d": 130.6816875000004,
      "v": 110
    },
    {
      "midi": 78,
      "hit": false,
      "t": 28499.971499999985,
      "d": 130.6816875000004,
      "v": 110
    },
    {
      "midi": 80,
      "hit": false,
      "t": 28636.334999999985,
      "d": 727.2720000000008,
      "v": 110
    },
    {
      "midi": 48,
      "hit": false,
      "t": 28636.335000000006,
      "d": 727.2720000000008,
      "v": 110
    },
    {
      "midi": 51,
      "hit": false,
      "t": 28636.335000000006,
      "d": 727.2720000000008,
      "v": 110
    },
    {
      "midi": 56,
      "hit": false,
      "t": 28636.335000000006,
      "d": 727.2720000000008,
      "v": 110
    },
    {
      "midi": 78,
      "hit": false,
      "t": 29454.515999999985,
      "d": 454.54499999999825,
      "v": 110
    },
    {
      "midi": 46,
      "hit": false,
      "t": 29454.516000000007,
      "d": 727.2720000000008,
      "v": 110
    },
    {
      "midi": 49,
      "hit": false,
      "t": 29454.516000000007,
      "d": 727.2720000000008,
      "v": 110
    },
    {
      "midi": 53,
      "hit": false,
      "t": 29454.516000000007,
      "d": 727.2720000000008,
      "v": 110
    },
    {
      "midi": 77,
      "hit": false,
      "t": 29999.969999999983,
      "d": 130.6816875000004,
      "v": 110
    },
    {
      "midi": 75,
      "hit": false,
      "t": 30136.333499999982,
      "d": 130.6816875000004,
      "v": 110
    },
    {
      "midi": 78,
      "hit": false,
      "t": 30272.696999999982,
      "d": 267.0451874999999,
      "v": 110
    },
    {
      "midi": 54,
      "hit": false,
      "t": 30272.697000000007,
      "d": 267.0451874999999,
      "v": 110
    },
    {
      "midi": 82,
      "hit": false,
      "t": 30545.42399999998,
      "d": 267.0451874999999,
      "v": 110
    },
    {
      "midi": 54,
      "hit": false,
      "t": 30545.424000000006,
      "d": 267.0451874999999,
      "v": 110
    },
    {
      "midi": 58,
      "hit": false,
      "t": 30545.424000000006,
      "d": 267.0451874999999,
      "v": 110
    },
    {
      "midi": 85,
      "hit": false,
      "t": 30818.15099999998,
      "d": 267.0451874999999,
      "v": 110
    },
    {
      "midi": 54,
      "hit": false,
      "t": 30818.151000000005,
      "d": 267.0451874999999,
      "v": 110
    },
    {
      "midi": 58,
      "hit": false,
      "t": 30818.151000000005,
      "d": 267.0451874999999,
      "v": 110
    },
    {
      "midi": 61,
      "hit": false,
      "t": 30818.151000000005,
      "d": 267.0451874999999,
      "v": 110
    },
    {
      "midi": 84,
      "hit": false,
      "t": 31090.87799999998,
      "d": 454.54499999999825,
      "v": 110
    },
    {
      "midi": 53,
      "hit": false,
      "t": 31090.878000000004,
      "d": 727.2720000000008,
      "v": 110
    },
    {
      "midi": 56,
      "hit": false,
      "t": 31090.878000000004,
      "d": 727.2720000000008,
      "v": 110
    },
    {
      "midi": 60,
      "hit": false,
      "t": 31090.878000000004,
      "d": 727.2720000000008,
      "v": 110
    },
    {
      "midi": 82,
      "hit": false,
      "t": 31636.331999999977,
      "d": 62.49993750000067,
      "v": 110
    },
    {
      "midi": 84,
      "hit": false,
      "t": 31704.513749999976,
      "d": 62.49993750000067,
      "v": 110
    },
    {
      "midi": 82,
      "hit": false,
      "t": 31772.695499999976,
      "d": 130.6816875000004,
      "v": 110
    },
    {
      "midi": 80,
      "hit": false,
      "t": 31909.058999999976,
      "d": 539.7721874999988,
      "v": 110
    },
    {
      "midi": 48,
      "hit": false,
      "t": 31909.059000000005,
      "d": 727.2720000000008,
      "v": 110
    },
    {
      "midi": 51,
      "hit": false,
      "t": 31909.059000000005,
      "d": 727.2720000000008,
      "v": 110
    },
    {
      "midi": 56,
      "hit": false,
      "t": 31909.059000000005,
      "d": 727.2720000000008,
      "v": 110
    },
    {
      "midi": 77,
      "hit": false,
      "t": 32454.512999999974,
      "d": 130.6816875000004,
      "v": 110
    },
    {
      "midi": 80,
      "hit": false,
      "t": 32590.876499999973,
      "d": 130.6816875000004,
      "v": 110
    },
    {
      "midi": 82,
      "hit": false,
      "t": 32727.239999999972,
      "d": 454.5450000000019,
      "v": 110
    },
    {
      "midi": 54,
      "hit": false,
      "t": 32727.240000000005,
      "d": 727.2719999999972,
      "v": 110
    },
    {
      "midi": 58,
      "hit": false,
      "t": 32727.240000000005,
      "d": 727.2719999999972,
      "v": 110
    },
    {
      "midi": 61,
      "hit": false,
      "t": 32727.240000000005,
      "d": 727.2719999999972,
      "v": 110
    },
    {
      "midi": 85,
      "hit": false,
      "t": 33272.693999999974,
      "d": 267.0451874999999,
      "v": 110
    },
    {
      "midi": 87,
      "hit": false,
      "t": 33545.42099999997,
      "d": 267.0451874999999,
      "v": 110
    },
    {
      "midi": 53,
      "hit": false,
      "t": 33545.421,
      "d": 727.2719999999972,
      "v": 110
    },
    {
      "midi": 56,
      "hit": false,
      "t": 33545.421,
      "d": 727.2719999999972,
      "v": 110
    },
    {
      "midi": 61,
      "hit": false,
      "t": 33545.421,
      "d": 727.2719999999972,
      "v": 110
    },
    {
      "midi": 85,
      "hit": false,
      "t": 33818.14799999997,
      "d": 267.0451874999999,
      "v": 110
    },
    {
      "midi": 84,
      "hit": false,
      "t": 34090.87499999997,
      "d": 130.6816875000004,
      "v": 110
    },
    {
      "midi": 82,
      "hit": false,
      "t": 34227.23849999997,
      "d": 130.6816875000004,
      "v": 110
    },
    {
      "midi": 84,
      "hit": false,
      "t": 34363.60199999997,
      "d": 454.54499999999825,
      "v": 110
    },
    {
      "midi": 53,
      "hit": false,
      "t": 34363.602,
      "d": 727.2719999999972,
      "v": 110
    },
    {
      "midi": 56,
      "hit": false,
      "t": 34363.602,
      "d": 727.2719999999972,
      "v": 110
    },
    {
      "midi": 60,
      "hit": false,
      "t": 34363.602,
      "d": 727.2719999999972,
      "v": 110
    },
    {
      "midi": 82,
      "hit": false,
      "t": 34909.05599999997,
      "d": 267.0451874999999,
      "v": 110
    },
    {
      "midi": 80,
      "hit": false,
      "t": 35181.78299999997,
      "d": 539.7721874999988,
      "v": 110
    },
    {
      "midi": 48,
      "hit": false,
      "t": 35181.782999999996,
      "d": 727.2719999999972,
      "v": 110
    },
    {
      "midi": 51,
      "hit": false,
      "t": 35181.782999999996,
      "d": 727.2719999999972,
      "v": 110
    },
    {
      "midi": 56,
      "hit": false,
      "t": 35181.782999999996,
      "d": 727.2719999999972,
      "v": 110
    },
    {
      "midi": 82,
      "hit": false,
      "t": 35727.236999999965,
      "d": 130.6816875000004,
      "v": 110
    },
    {
      "midi": 84,
      "hit": false,
      "t": 35863.600499999964,
      "d": 130.6816875000004,
      "v": 110
    },
    {
      "midi": 85,
      "hit": false,
      "t": 35999.96399999996,
      "d": 454.54499999999825,
      "v": 110
    },
    {
      "midi": 54,
      "hit": false,
      "t": 35999.96399999999,
      "d": 267.0451874999999,
      "v": 110
    },
    {
      "midi": 58,
      "hit": false,
      "t": 36272.69099999999,
      "d": 267.0451874999999,
      "v": 110
    },
    {
      "midi": 85,
      "hit": false,
      "t": 36545.41799999996,
      "d": 267.0451874999999,
      "v": 110
    },
    {
      "midi": 61,
      "hit": false,
      "t": 36545.41799999999,
      "d": 267.0451874999999,
      "v": 110
    },
    {
      "midi": 85,
      "hit": false,
      "t": 36818.14499999996,
      "d": 267.0451874999999,
      "v": 110
    },
    {
      "midi": 54,
      "hit": false,
      "t": 36818.14499999999,
      "d": 267.0451874999999,
      "v": 110
    },
    {
      "midi": 87,
      "hit": false,
      "t": 37090.87199999996,
      "d": 267.0451874999999,
      "v": 110
    },
    {
      "midi": 58,
      "hit": false,
      "t": 37090.87199999999,
      "d": 267.0451874999999,
      "v": 110
    },
    {
      "midi": 85,
      "hit": false,
      "t": 37363.59899999996,
      "d": 130.6816875000004,
      "v": 110
    },
    {
      "midi": 61,
      "hit": false,
      "t": 37363.59899999999,
      "d": 267.0451874999999,
      "v": 110
    },
    {
      "midi": 87,
      "hit": false,
      "t": 37499.96249999996,
      "d": 130.6816875000004,
      "v": 110
    },
    {
      "midi": 89,
      "hit": false,
      "t": 37636.32599999996,
      "d": 727.2719999999972,
      "v": 110
    },
    {
      "midi": 57,
      "hit": false,
      "t": 37636.32599999999,
      "d": 727.2719999999972,
      "v": 110
    },
    {
      "midi": 93,
      "hit": false,
      "t": 38454.506999999954,
      "d": 727.2719999999972,
      "v": 110
    },
    {
      "midi": 60,
      "hit": false,
      "t": 38454.50699999998,
      "d": 727.2719999999972,
      "v": 110
    },
    {
      "midi": 65,
      "hit": false,
      "t": 39272.68799999995,
      "d": 136.36349999999948,
      "v": 110
    },
    {
      "midi": 46,
      "hit": false,
      "t": 39272.68799999998,
      "d": 136.36349999999948,
      "v": 110
    },
    {
      "midi": 49,
      "hit": false,
      "t": 39272.68799999998,
      "d": 136.36349999999948,
      "v": 110
    },
    {
      "midi": 53,
      "hit": false,
      "t": 39272.68799999998,
      "d": 136.36349999999948,
      "v": 110
    },
    {
      "midi": 73,
      "hit": false,
      "t": 39818.14199999995,
      "d": 90.90899999999965,
      "v": 110
    },
    {
      "midi": 72,
      "hit": false,
      "t": 40090.86899999995,
      "d": 363.6359999999986,
      "v": 110
    },
    {
      "midi": 53,
      "hit": false,
      "t": 40090.86899999998,
      "d": 90.90899999999965,
      "v": 110
    },
    {
      "midi": 56,
      "hit": false,
      "t": 40090.86899999998,
      "d": 90.90899999999965,
      "v": 110
    },
    {
      "midi": 60,
      "hit": false,
      "t": 40090.86899999998,
      "d": 90.90899999999965,
      "v": 110
    },
    {
      "midi": 73,
      "hit": false,
      "t": 40499.959499999946,
      "d": 90.90899999999965,
      "v": 110
    },
    {
      "midi": 65,
      "hit": false,
      "t": 40636.322999999946,
      "d": 90.90899999999965,
      "v": 110
    },
    {
      "midi": 70,
      "hit": false,
      "t": 40909.049999999945,
      "d": 136.36349999999948,
      "v": 110
    },
    {
      "midi": 51,
      "hit": false,
      "t": 40909.049999999974,
      "d": 136.36349999999948,
      "v": 110
    },
    {
      "midi": 54,
      "hit": false,
      "t": 40909.049999999974,
      "d": 136.36349999999948,
      "v": 110
    },
    {
      "midi": 61,
      "hit": false,
      "t": 40909.049999999974,
      "d": 136.36349999999948,
      "v": 110
    },
    {
      "midi": 68,
      "hit": false,
      "t": 41454.50399999994,
      "d": 90.90899999999965,
      "v": 110
    },
    {
      "midi": 68,
      "hit": false,
      "t": 41727.23099999994,
      "d": 90.90899999999965,
      "v": 110
    },
    {
      "midi": 47,
      "hit": false,
      "t": 41727.23099999997,
      "d": 90.90899999999965,
      "v": 110
    },
    {
      "midi": 53,
      "hit": false,
      "t": 41727.23099999997,
      "d": 90.90899999999965,
      "v": 110
    },
    {
      "midi": 56,
      "hit": false,
      "t": 41727.23099999997,
      "d": 90.90899999999965,
      "v": 110
    },
    {
      "midi": 66,
      "hit": false,
      "t": 42545.41199999994,
      "d": 136.36349999999948,
      "v": 110
    },
    {
      "midi": 46,
      "hit": false,
      "t": 42545.41199999997,
      "d": 136.36349999999948,
      "v": 110
    },
    {
      "midi": 49,
      "hit": false,
      "t": 42545.41199999997,
      "d": 136.36349999999948,
      "v": 110
    },
    {
      "midi": 53,
      "hit": false,
      "t": 42545.41199999997,
      "d": 136.36349999999948,
      "v": 110
    },
    {
      "midi": 65,
      "hit": false,
      "t": 43090.865999999936,
      "d": 90.90899999999965,
      "v": 110
    },
    {
      "midi": 63,
      "hit": false,
      "t": 43227.229499999936,
      "d": 90.90899999999965,
      "v": 110
    },
    {
      "midi": 66,
      "hit": false,
      "t": 43363.592999999935,
      "d": 90.90899999999965,
      "v": 110
    },
    {
      "midi": 53,
      "hit": false,
      "t": 43363.592999999964,
      "d": 90.90899999999965,
      "v": 110
    },
    {
      "midi": 58,
      "hit": false,
      "t": 43363.592999999964,
      "d": 90.90899999999965,
      "v": 110
    },
    {
      "midi": 61,
      "hit": false,
      "t": 43363.592999999964,
      "d": 90.90899999999965,
      "v": 110
    },
    {
      "midi": 70,
      "hit": false,
      "t": 43636.319999999934,
      "d": 90.90899999999965,
      "v": 110
    },
    {
      "midi": 73,
      "hit": false,
      "t": 43909.04699999993,
      "d": 90.90899999999965,
      "v": 110
    },
    {
      "midi": 72,
      "hit": false,
      "t": 44181.77399999993,
      "d": 136.36349999999948,
      "v": 110
    },
    {
      "midi": 53,
      "hit": false,
      "t": 44181.77399999996,
      "d": 136.36349999999948,
      "v": 110
    },
    {
      "midi": 56,
      "hit": false,
      "t": 44181.77399999996,
      "d": 136.36349999999948,
      "v": 110
    },
    {
      "midi": 60,
      "hit": false,
      "t": 44181.77399999996,
      "d": 136.36349999999948,
      "v": 110
    },
    {
      "midi": 70,
      "hit": false,
      "t": 44727.22799999993,
      "d": 45.454499999999825,
      "v": 110
    },
    {
      "midi": 72,
      "hit": false,
      "t": 44795.40974999993,
      "d": 45.454499999999825,
      "v": 110
    },
    {
      "midi": 70,
      "hit": false,
      "t": 44863.59149999994,
      "d": 90.90899999999965,
      "v": 110
    },
    {
      "midi": 68,
      "hit": false,
      "t": 44999.954999999936,
      "d": 363.6359999999986,
      "v": 110
    },
    {
      "midi": 48,
      "hit": false,
      "t": 44999.95499999996,
      "d": 409.0904999999984,
      "v": 110
    },
    {
      "midi": 51,
      "hit": false,
      "t": 44999.95499999996,
      "d": 409.0904999999984,
      "v": 110
    },
    {
      "midi": 56,
      "hit": false,
      "t": 44999.95499999996,
      "d": 409.0904999999984,
      "v": 110
    },
    {
      "midi": 65,
      "hit": false,
      "t": 45545.408999999934,
      "d": 130.6816875000004,
      "v": 110
    },
    {
      "midi": 68,
      "hit": false,
      "t": 45681.772499999934,
      "d": 130.6816875000004,
      "v": 110
    },
    {
      "midi": 70,
      "hit": false,
      "t": 45818.13599999993,
      "d": 454.54499999999825,
      "v": 110
    },
    {
      "midi": 54,
      "hit": false,
      "t": 45818.135999999955,
      "d": 454.54499999999825,
      "v": 110
    },
    {
      "midi": 58,
      "hit": false,
      "t": 45818.135999999955,
      "d": 454.54499999999825,
      "v": 110
    },
    {
      "midi": 61,
      "hit": false,
      "t": 45818.135999999955,
      "d": 454.54499999999825,
      "v": 110
    },
    {
      "midi": 73,
      "hit": false,
      "t": 46363.58999999993,
      "d": 267.0451874999999,
      "v": 110
    },
    {
      "midi": 75,
      "hit": false,
      "t": 46636.31699999993,
      "d": 267.0451874999999,
      "v": 110
    },
    {
      "midi": 53,
      "hit": false,
      "t": 46636.31699999995,
      "d": 727.2719999999972,
      "v": 110
    },
    {
      "midi": 56,
      "hit": false,
      "t": 46636.31699999995,
      "d": 727.2719999999972,
      "v": 110
    },
    {
      "midi": 61,
      "hit": false,
      "t": 46636.31699999995,
      "d": 727.2719999999972,
      "v": 110
    },
    {
      "midi": 73,
      "hit": false,
      "t": 46909.04399999993,
      "d": 267.0451874999999,
      "v": 110
    },
    {
      "midi": 72,
      "hit": false,
      "t": 47181.77099999993,
      "d": 130.6816875000004,
      "v": 110
    },
    {
      "midi": 70,
      "hit": false,
      "t": 47318.13449999993,
      "d": 130.6816875000004,
      "v": 110
    },
    {
      "midi": 72,
      "hit": false,
      "t": 47454.49799999993,
      "d": 454.54499999999825,
      "v": 110
    },
    {
      "midi": 53,
      "hit": false,
      "t": 47454.49799999995,
      "d": 727.2719999999972,
      "v": 110
    },
    {
      "midi": 56,
      "hit": false,
      "t": 47454.49799999995,
      "d": 727.2719999999972,
      "v": 110
    },
    {
      "midi": 60,
      "hit": false,
      "t": 47454.49799999995,
      "d": 727.2719999999972,
      "v": 110
    },
    {
      "midi": 70,
      "hit": false,
      "t": 47999.951999999925,
      "d": 267.0451874999999,
      "v": 110
    },
    {
      "midi": 68,
      "hit": false,
      "t": 48272.678999999924,
      "d": 539.7721874999988,
      "v": 110
    },
    {
      "midi": 48,
      "hit": false,
      "t": 48272.678999999946,
      "d": 727.2719999999972,
      "v": 110
    },
    {
      "midi": 51,
      "hit": false,
      "t": 48272.678999999946,
      "d": 727.2719999999972,
      "v": 110
    },
    {
      "midi": 56,
      "hit": false,
      "t": 48272.678999999946,
      "d": 727.2719999999972,
      "v": 110
    },
    {
      "midi": 70,
      "hit": false,
      "t": 48818.13299999992,
      "d": 130.6816875000004,
      "v": 110
    },
    {
      "midi": 72,
      "hit": false,
      "t": 48954.49649999992,
      "d": 130.6816875000004,
      "v": 110
    },
    {
      "midi": 73,
      "hit": false,
      "t": 49090.85999999992,
      "d": 454.54499999999825,
      "v": 110
    },
    {
      "midi": 73,
      "hit": false,
      "t": 49636.31399999992,
      "d": 267.0451874999999,
      "v": 110
    },
    {
      "midi": 75,
      "hit": false,
      "t": 49909.04099999992,
      "d": 267.0451874999999,
      "v": 110
    },
    {
      "midi": 73,
      "hit": false,
      "t": 50181.767999999916,
      "d": 267.0451874999999,
      "v": 110
    },
    {
      "midi": 68,
      "hit": false,
      "t": 50454.494999999915,
      "d": 267.0451874999999,
      "v": 110
    },
    {
      "midi": 70,
      "hit": false,
      "t": 50727.221999999914,
      "d": 1499.9985000000015,
      "v": 110
    },
    {
      "midi": 70,
      "hit": false,
      "t": 52363.583999999915,
      "d": 454.54499999999825,
      "v": 110
    },
    {
      "midi": 46,
      "hit": false,
      "t": 52363.583999999944,
      "d": 90.90899999999965,
      "v": 110
    },
    {
      "midi": 46,
      "hit": false,
      "t": 52636.31099999994,
      "d": 363.6359999999986,
      "v": 110
    },
    {
      "midi": 73,
      "hit": false,
      "t": 52909.03799999991,
      "d": 267.0451874999999,
      "v": 110
    },
    {
      "midi": 46,
      "hit": false,
      "t": 53045.40149999994,
      "d": 90.90899999999965,
      "v": 110
    },
    {
      "midi": 75,
      "hit": false,
      "t": 53181.76499999991,
      "d": 267.0451874999999,
      "v": 110
    },
    {
      "midi": 48,
      "hit": false,
      "t": 53181.76499999994,
      "d": 90.90899999999965,
      "v": 110
    },
    {
      "midi": 73,
      "hit": false,
      "t": 53454.49199999991,
      "d": 62.49993749999703,
      "v": 110
    },
    {
      "midi": 48,
      "hit": false,
      "t": 53454.49199999994,
      "d": 136.36349999999948,
      "v": 110
    },
    {
      "midi": 75,
      "hit": false,
      "t": 53522.67374999991,
      "d": 62.49993749999703,
      "v": 110
    },
    {
      "midi": 73,
      "hit": false,
      "t": 53590.8554999999,
      "d": 130.6816875000004,
      "v": 110
    },
    {
      "midi": 72,
      "hit": false,
      "t": 53727.2189999999,
      "d": 267.0451874999999,
      "v": 110
    },
    {
      "midi": 68,
      "hit": false,
      "t": 53999.9459999999,
      "d": 403.40868749999936,
      "v": 110
    },
    {
      "midi": 44,
      "hit": false,
      "t": 53999.94599999994,
      "d": 90.90899999999965,
      "v": 110
    },
    {
      "midi": 44,
      "hit": false,
      "t": 54272.67299999994,
      "d": 363.6359999999986,
      "v": 110
    },
    {
      "midi": 65,
      "hit": false,
      "t": 54409.0364999999,
      "d": 130.6816875000004,
      "v": 110
    },
    {
      "midi": 68,
      "hit": false,
      "t": 54545.3999999999,
      "d": 130.6816875000004,
      "v": 110
    },
    {
      "midi": 72,
      "hit": false,
      "t": 54681.7634999999,
      "d": 130.6816875000004,
      "v": 110
    },
    {
      "midi": 44,
      "hit": false,
      "t": 54681.763499999935,
      "d": 90.90899999999965,
      "v": 110
    },
    {
      "midi": 70,
      "hit": false,
      "t": 54818.1269999999,
      "d": 267.0451874999999,
      "v": 110
    },
    {
      "midi": 46,
      "hit": false,
      "t": 54818.126999999935,
      "d": 90.90899999999965,
      "v": 110
    },
    {
      "midi": 70,
      "hit": false,
      "t": 55090.8539999999,
      "d": 267.0451874999999,
      "v": 110
    },
    {
      "midi": 46,
      "hit": false,
      "t": 55090.853999999934,
      "d": 136.36349999999948,
      "v": 110
    },
    {
      "midi": 65,
      "hit": false,
      "t": 55363.5809999999,
      "d": 130.6816875000004,
      "v": 110
    },
    {
      "midi": 68,
      "hit": false,
      "t": 55499.944499999896,
      "d": 130.6816875000004,
      "v": 110
    },
    {
      "midi": 70,
      "hit": false,
      "t": 55636.307999999895,
      "d": 403.40868749999936,
      "v": 110
    },
    {
      "midi": 49,
      "hit": false,
      "t": 55636.30799999993,
      "d": 727.2719999999972,
      "v": 110
    },
    {
      "midi": 54,
      "hit": false,
      "t": 55636.30799999993,
      "d": 727.2719999999972,
      "v": 110
    },
    {
      "midi": 58,
      "hit": false,
      "t": 55636.30799999993,
      "d": 727.2719999999972,
      "v": 110
    },
    {
      "midi": 63,
      "hit": false,
      "t": 56045.398499999894,
      "d": 130.6816875000004,
      "v": 110
    },
    {
      "midi": 61,
      "hit": false,
      "t": 56181.76199999989,
      "d": 267.0451874999999,
      "v": 110
    },
    {
      "midi": 61,
      "hit": false,
      "t": 56454.48899999989,
      "d": 267.0451874999999,
      "v": 110
    },
    {
      "midi": 54,
      "hit": false,
      "t": 56454.48899999993,
      "d": 727.2719999999972,
      "v": 110
    },
    {
      "midi": 58,
      "hit": false,
      "t": 56454.48899999993,
      "d": 727.2719999999972,
      "v": 110
    },
    {
      "midi": 61,
      "hit": false,
      "t": 56454.48899999993,
      "d": 727.2719999999972,
      "v": 110
    },
    {
      "midi": 61,
      "hit": false,
      "t": 56727.21599999989,
      "d": 267.0451874999999,
      "v": 110
    },
    {
      "midi": 63,
      "hit": false,
      "t": 56999.94299999989,
      "d": 267.0451874999999,
      "v": 110
    },
    {
      "midi": 65,
      "hit": false,
      "t": 57272.66999999989,
      "d": 403.40868749999936,
      "v": 110
    },
    {
      "midi": 46,
      "hit": false,
      "t": 57272.669999999925,
      "d": 727.2719999999972,
      "v": 110
    },
    {
      "midi": 49,
      "hit": false,
      "t": 57272.669999999925,
      "d": 727.2719999999972,
      "v": 110
    },
    {
      "midi": 53,
      "hit": false,
      "t": 57272.669999999925,
      "d": 727.2719999999972,
      "v": 110
    },
    {
      "midi": 68,
      "hit": false,
      "t": 57681.76049999989,
      "d": 267.0451874999999,
      "v": 110
    },
    {
      "midi": 66,
      "hit": false,
      "t": 57954.48749999989,
      "d": 130.6816875000004,
      "v": 110
    },
    {
      "midi": 65,
      "hit": false,
      "t": 58090.850999999886,
      "d": 727.2719999999972,
      "v": 110
    },
    {
      "midi": 47,
      "hit": false,
      "t": 58090.85099999992,
      "d": 727.2719999999972,
      "v": 110
    },
    {
      "midi": 51,
      "hit": false,
      "t": 58090.85099999992,
      "d": 727.2719999999972,
      "v": 110
    },
    {
      "midi": 53,
      "hit": false,
      "t": 58090.85099999992,
      "d": 727.2719999999972,
      "v": 110
    },
    {
      "midi": 70,
      "hit": false,
      "t": 58909.03199999988,
      "d": 454.54499999999825,
      "v": 110
    },
    {
      "midi": 46,
      "hit": false,
      "t": 58909.03199999992,
      "d": 90.90899999999965,
      "v": 110
    },
    {
      "midi": 46,
      "hit": false,
      "t": 59181.75899999992,
      "d": 363.6359999999986,
      "v": 110
    },
    {
      "midi": 73,
      "hit": false,
      "t": 59454.48599999988,
      "d": 267.0451874999999,
      "v": 110
    },
    {
      "midi": 46,
      "hit": false,
      "t": 59590.84949999992,
      "d": 90.90899999999965,
      "v": 110
    },
    {
      "midi": 75,
      "hit": false,
      "t": 59727.21299999988,
      "d": 267.0451874999999,
      "v": 110
    },
    {
      "midi": 48,
      "hit": false,
      "t": 59727.212999999916,
      "d": 90.90899999999965,
      "v": 110
    },
    {
      "midi": 73,
      "hit": false,
      "t": 59999.93999999988,
      "d": 62.49993749999703,
      "v": 110
    },
    {
      "midi": 48,
      "hit": false,
      "t": 59999.939999999915,
      "d": 136.36349999999948,
      "v": 110
    },
    {
      "midi": 75,
      "hit": false,
      "t": 60068.121749999875,
      "d": 62.49993749999703,
      "v": 110
    },
    {
      "midi": 73,
      "hit": false,
      "t": 60136.30349999987,
      "d": 130.6816875000004,
      "v": 110
    },
    {
      "midi": 72,
      "hit": false,
      "t": 60272.66699999987,
      "d": 267.0451874999999,
      "v": 110
    },
    {
      "midi": 68,
      "hit": false,
      "t": 60545.39399999987,
      "d": 403.40868749999936,
      "v": 110
    },
    {
      "midi": 44,
      "hit": false,
      "t": 60545.39399999991,
      "d": 90.90899999999965,
      "v": 110
    },
    {
      "midi": 44,
      "hit": false,
      "t": 60818.12099999991,
      "d": 363.6359999999986,
      "v": 110
    },
    {
      "midi": 65,
      "hit": false,
      "t": 60954.48449999987,
      "d": 130.6816875000004,
      "v": 110
    },
    {
      "midi": 68,
      "hit": false,
      "t": 61090.84799999987,
      "d": 130.6816875000004,
      "v": 110
    },
    {
      "midi": 72,
      "hit": false,
      "t": 61227.21149999987,
      "d": 130.6816875000004,
      "v": 110
    },
    {
      "midi": 44,
      "hit": false,
      "t": 61227.21149999991,
      "d": 90.90899999999965,
      "v": 110
    },
    {
      "midi": 70,
      "hit": false,
      "t": 61363.574999999866,
      "d": 267.0451874999999,
      "v": 110
    },
    {
      "midi": 46,
      "hit": false,
      "t": 61363.57499999991,
      "d": 90.90899999999965,
      "v": 110
    },
    {
      "midi": 70,
      "hit": false,
      "t": 61636.301999999865,
      "d": 267.0451874999999,
      "v": 110
    },
    {
      "midi": 46,
      "hit": false,
      "t": 61636.30199999991,
      "d": 136.36349999999948,
      "v": 110
    },
    {
      "midi": 66,
      "hit": false,
      "t": 61909.028999999864,
      "d": 130.6816875000004,
      "v": 110
    },
    {
      "midi": 68,
      "hit": false,
      "t": 62045.39249999986,
      "d": 130.6816875000004,
      "v": 110
    },
    {
      "midi": 66,
      "hit": false,
      "t": 62181.75599999986,
      "d": 454.54499999999825,
      "v": 110
    },
    {
      "midi": 46,
      "hit": false,
      "t": 62181.75599999991,
      "d": 727.2719999999972,
      "v": 110
    },
    {
      "midi": 51,
      "hit": false,
      "t": 62181.75599999991,
      "d": 727.2719999999972,
      "v": 110
    },
    {
      "midi": 54,
      "hit": false,
      "t": 62181.75599999991,
      "d": 727.2719999999972,
      "v": 110
    },
    {
      "midi": 70,
      "hit": false,
      "t": 62727.20999999986,
      "d": 267.0451874999999,
      "v": 110
    },
    {
      "midi": 73,
      "hit": false,
      "t": 62999.93699999986,
      "d": 267.0451874999999,
      "v": 110
    },
    {
      "midi": 52,
      "hit": false,
      "t": 62999.9369999999,
      "d": 727.2719999999972,
      "v": 110
    },
    {
      "midi": 58,
      "hit": false,
      "t": 62999.9369999999,
      "d": 727.2719999999972,
      "v": 110
    },
    {
      "midi": 61,
      "hit": false,
      "t": 62999.9369999999,
      "d": 727.2719999999972,
      "v": 110
    },
    {
      "midi": 72,
      "hit": false,
      "t": 63272.66399999986,
      "d": 267.0451874999999,
      "v": 110
    },
    {
      "midi": 70,
      "hit": false,
      "t": 63545.39099999986,
      "d": 267.0451874999999,
      "v": 110
    },
    {
      "midi": 69,
      "hit": false,
      "t": 63818.11799999986,
      "d": 403.40868749999936,
      "v": 110
    },
    {
      "midi": 49,
      "hit": false,
      "t": 63818.1179999999,
      "d": 727.2719999999972,
      "v": 110
    },
    {
      "midi": 52,
      "hit": false,
      "t": 63818.1179999999,
      "d": 727.2719999999972,
      "v": 110
    },
    {
      "midi": 57,
      "hit": false,
      "t": 63818.1179999999,
      "d": 727.2719999999972,
      "v": 110
    },
    {
      "midi": 70,
      "hit": false,
      "t": 64227.208499999855,
      "d": 267.0451874999999,
      "v": 110
    },
    {
      "midi": 72,
      "hit": false,
      "t": 64499.935499999854,
      "d": 130.6816875000004,
      "v": 110
    },
    {
      "midi": 72,
      "hit": false,
      "t": 64636.29899999985,
      "d": 727.2719999999972,
      "v": 110
    },
    {
      "midi": 51,
      "hit": false,
      "t": 64636.2989999999,
      "d": 727.2719999999972,
      "v": 110
    },
    {
      "midi": 54,
      "hit": false,
      "t": 64636.2989999999,
      "d": 727.2719999999972,
      "v": 110
    },
    {
      "midi": 60,
      "hit": false,
      "t": 64636.2989999999,
      "d": 727.2719999999972,
      "v": 110
    },
    {
      "midi": 70,
      "hit": false,
      "t": 65454.47999999985,
      "d": 454.54499999999825,
      "v": 110
    },
    {
      "midi": 46,
      "hit": false,
      "t": 65454.479999999894,
      "d": 90.90899999999965,
      "v": 110
    },
    {
      "midi": 46,
      "hit": false,
      "t": 65727.2069999999,
      "d": 363.6359999999986,
      "v": 110
    },
    {
      "midi": 73,
      "hit": false,
      "t": 65999.93399999985,
      "d": 267.0451874999999,
      "v": 110
    },
    {
      "midi": 46,
      "hit": false,
      "t": 66136.2974999999,
      "d": 90.90899999999965,
      "v": 110
    },
    {
      "midi": 75,
      "hit": false,
      "t": 66272.66099999985,
      "d": 267.0451874999999,
      "v": 110
    },
    {
      "midi": 48,
      "hit": false,
      "t": 66272.6609999999,
      "d": 90.90899999999965,
      "v": 110
    },
    {
      "midi": 73,
      "hit": false,
      "t": 66545.38799999985,
      "d": 62.49993750000431,
      "v": 110
    },
    {
      "midi": 48,
      "hit": false,
      "t": 66545.3879999999,
      "d": 136.36350000000675,
      "v": 110
    },
    {
      "midi": 75,
      "hit": false,
      "t": 66613.56974999985,
      "d": 62.49993750000431,
      "v": 110
    },
    {
      "midi": 73,
      "hit": false,
      "t": 66681.75149999985,
      "d": 130.68168749999313,
      "v": 110
    },
    {
      "midi": 72,
      "hit": false,
      "t": 66818.11499999985,
      "d": 267.0451874999999,
      "v": 110
    },
    {
      "midi": 68,
      "hit": false,
      "t": 67090.84199999984,
      "d": 403.40868750000664,
      "v": 110
    },
    {
      "midi": 44,
      "hit": false,
      "t": 67090.84199999992,
      "d": 90.90899999999965,
      "v": 110
    },
    {
      "midi": 44,
      "hit": false,
      "t": 67363.56899999992,
      "d": 363.6359999999986,
      "v": 110
    },
    {
      "midi": 65,
      "hit": false,
      "t": 67499.93249999985,
      "d": 130.68168749999313,
      "v": 110
    },
    {
      "midi": 68,
      "hit": false,
      "t": 67636.29599999984,
      "d": 130.68168749999313,
      "v": 110
    },
    {
      "midi": 72,
      "hit": false,
      "t": 67772.65949999983,
      "d": 130.68168749999313,
      "v": 110
    },
    {
      "midi": 44,
      "hit": false,
      "t": 67772.65949999992,
      "d": 90.90899999999965,
      "v": 110
    },
    {
      "midi": 70,
      "hit": false,
      "t": 67909.02299999983,
      "d": 267.0451874999999,
      "v": 110
    },
    {
      "midi": 46,
      "hit": false,
      "t": 67909.02299999993,
      "d": 90.90899999999965,
      "v": 110
    },
    {
      "midi": 70,
      "hit": false,
      "t": 68181.74999999983,
      "d": 267.0451874999999,
      "v": 110
    },
    {
      "midi": 46,
      "hit": false,
      "t": 68181.74999999993,
      "d": 136.36350000000675,
      "v": 110
    },
    {
      "midi": 65,
      "hit": false,
      "t": 68454.47699999982,
      "d": 130.68168749999313,
      "v": 110
    },
    {
      "midi": 68,
      "hit": false,
      "t": 68590.84049999982,
      "d": 130.68168749999313,
      "v": 110
    },
    {
      "midi": 70,
      "hit": false,
      "t": 68727.20399999981,
      "d": 403.40868750000664,
      "v": 110
    },
    {
      "midi": 49,
      "hit": false,
      "t": 68727.20399999994,
      "d": 727.2719999999972,
      "v": 110
    },
    {
      "midi": 54,
      "hit": false,
      "t": 68727.20399999994,
      "d": 727.2719999999972,
      "v": 110
    },
    {
      "midi": 58,
      "hit": false,
      "t": 68727.20399999994,
      "d": 727.2719999999972,
      "v": 110
    },
    {
      "midi": 63,
      "hit": false,
      "t": 69136.29449999981,
      "d": 130.68168749999313,
      "v": 110
    },
    {
      "midi": 61,
      "hit": false,
      "t": 69272.6579999998,
      "d": 267.0451874999999,
      "v": 110
    },
    {
      "midi": 61,
      "hit": false,
      "t": 69545.3849999998,
      "d": 267.0451874999999,
      "v": 110
    },
    {
      "midi": 54,
      "hit": false,
      "t": 69545.38499999994,
      "d": 727.2719999999972,
      "v": 110
    },
    {
      "midi": 58,
      "hit": false,
      "t": 69545.38499999994,
      "d": 727.2719999999972,
      "v": 110
    },
    {
      "midi": 61,
      "hit": false,
      "t": 69545.38499999994,
      "d": 727.2719999999972,
      "v": 110
    },
    {
      "midi": 61,
      "hit": false,
      "t": 69818.1119999998,
      "d": 267.0451874999999,
      "v": 110
    },
    {
      "midi": 63,
      "hit": false,
      "t": 70090.8389999998,
      "d": 130.68168749999313,
      "v": 110
    },
    {
      "midi": 63,
      "hit": false,
      "t": 70227.2024999998,
      "d": 130.68168749999313,
      "v": 110
    },
    {
      "midi": 65,
      "hit": false,
      "t": 70363.56599999979,
      "d": 403.40868750000664,
      "v": 110
    },
    {
      "midi": 46,
      "hit": false,
      "t": 70363.56599999993,
      "d": 727.2719999999972,
      "v": 110
    },
    {
      "midi": 49,
      "hit": false,
      "t": 70363.56599999993,
      "d": 727.2719999999972,
      "v": 110
    },
    {
      "midi": 53,
      "hit": false,
      "t": 70363.56599999993,
      "d": 727.2719999999972,
      "v": 110
    },
    {
      "midi": 68,
      "hit": false,
      "t": 70772.6564999998,
      "d": 267.0451874999999,
      "v": 110
    },
    {
      "midi": 66,
      "hit": false,
      "t": 71045.38349999979,
      "d": 130.68168749999313,
      "v": 110
    },
    {
      "midi": 65,
      "hit": false,
      "t": 71181.74699999978,
      "d": 727.2719999999972,
      "v": 110
    },
    {
      "midi": 47,
      "hit": false,
      "t": 71181.74699999993,
      "d": 727.2719999999972,
      "v": 110
    },
    {
      "midi": 51,
      "hit": false,
      "t": 71181.74699999993,
      "d": 727.2719999999972,
      "v": 110
    },
    {
      "midi": 53,
      "hit": false,
      "t": 71181.74699999993,
      "d": 727.2719999999972,
      "v": 110
    },
    {
      "midi": 70,
      "hit": false,
      "t": 71999.92799999978,
      "d": 454.54499999999825,
      "v": 110
    },
    {
      "midi": 46,
      "hit": false,
      "t": 71999.92799999993,
      "d": 90.90899999999965,
      "v": 110
    },
    {
      "midi": 46,
      "hit": false,
      "t": 72272.65499999993,
      "d": 363.6359999999986,
      "v": 110
    },
    {
      "midi": 73,
      "hit": false,
      "t": 72545.38199999978,
      "d": 267.0451874999999,
      "v": 110
    },
    {
      "midi": 46,
      "hit": false,
      "t": 72681.74549999993,
      "d": 90.90899999999965,
      "v": 110
    },
    {
      "midi": 75,
      "hit": false,
      "t": 72818.10899999978,
      "d": 267.0451874999999,
      "v": 110
    },
    {
      "midi": 48,
      "hit": false,
      "t": 72818.10899999994,
      "d": 90.90899999999965,
      "v": 110
    },
    {
      "midi": 73,
      "hit": false,
      "t": 73090.83599999978,
      "d": 62.49993750000431,
      "v": 110
    },
    {
      "midi": 48,
      "hit": false,
      "t": 73090.83599999994,
      "d": 136.36350000000675,
      "v": 110
    },
    {
      "midi": 75,
      "hit": false,
      "t": 73159.01774999978,
      "d": 62.49993750000431,
      "v": 110
    },
    {
      "midi": 73,
      "hit": false,
      "t": 73227.19949999978,
      "d": 130.68168749999313,
      "v": 110
    },
    {
      "midi": 72,
      "hit": false,
      "t": 73363.56299999978,
      "d": 267.0451874999999,
      "v": 110
    },
    {
      "midi": 68,
      "hit": false,
      "t": 73636.28999999978,
      "d": 403.40868750000664,
      "v": 110
    },
    {
      "midi": 44,
      "hit": false,
      "t": 73636.28999999995,
      "d": 90.90899999999965,
      "v": 110
    },
    {
      "midi": 44,
      "hit": false,
      "t": 73909.01699999995,
      "d": 363.6359999999986,
      "v": 110
    },
    {
      "midi": 65,
      "hit": false,
      "t": 74045.38049999978,
      "d": 130.68168749999313,
      "v": 110
    },
    {
      "midi": 68,
      "hit": false,
      "t": 74181.74399999977,
      "d": 130.68168749999313,
      "v": 110
    },
    {
      "midi": 72,
      "hit": false,
      "t": 74318.10749999977,
      "d": 130.68168749999313,
      "v": 110
    },
    {
      "midi": 44,
      "hit": false,
      "t": 74318.10749999995,
      "d": 90.90899999999965,
      "v": 110
    },
    {
      "midi": 70,
      "hit": false,
      "t": 74454.47099999976,
      "d": 267.0451874999999,
      "v": 110
    },
    {
      "midi": 46,
      "hit": false,
      "t": 74454.47099999996,
      "d": 90.90899999999965,
      "v": 110
    },
    {
      "midi": 70,
      "hit": false,
      "t": 74727.19799999976,
      "d": 267.0451874999999,
      "v": 110
    },
    {
      "midi": 46,
      "hit": false,
      "t": 74727.19799999996,
      "d": 136.36350000000675,
      "v": 110
    },
    {
      "midi": 65,
      "hit": false,
      "t": 74999.92499999976,
      "d": 130.68168749999313,
      "v": 110
    },
    {
      "midi": 68,
      "hit": false,
      "t": 75136.28849999975,
      "d": 130.68168749999313,
      "v": 110
    },
    {
      "midi": 66,
      "hit": false,
      "t": 75272.65199999974,
      "d": 403.40868750000664,
      "v": 110
    },
    {
      "midi": 42,
      "hit": false,
      "t": 75272.65199999997,
      "d": 727.2719999999972,
      "v": 110
    },
    {
      "midi": 46,
      "hit": false,
      "t": 75272.65199999997,
      "d": 727.2719999999972,
      "v": 110
    },
    {
      "midi": 51,
      "hit": false,
      "t": 75272.65199999997,
      "d": 727.2719999999972,
      "v": 110
    },
    {
      "midi": 54,
      "hit": false,
      "t": 75272.65199999997,
      "d": 727.2719999999972,
      "v": 110
    },
    {
      "midi": 73,
      "hit": false,
      "t": 75681.74249999975,
      "d": 267.0451874999999,
      "v": 110
    },
    {
      "midi": 72,
      "hit": false,
      "t": 75954.46949999974,
      "d": 90.90899999999965,
      "v": 110
    },
    {
      "midi": 68,
      "hit": false,
      "t": 76090.83299999975,
      "d": 267.0451874999999,
      "v": 110
    },
    {
      "midi": 42,
      "hit": false,
      "t": 76090.83299999997,
      "d": 727.2719999999972,
      "v": 110
    },
    {
      "midi": 46,
      "hit": false,
      "t": 76090.83299999997,
      "d": 727.2719999999972,
      "v": 110
    },
    {
      "midi": 51,
      "hit": false,
      "t": 76090.83299999997,
      "d": 727.2719999999972,
      "v": 110
    },
    {
      "midi": 56,
      "hit": false,
      "t": 76090.83299999997,
      "d": 727.2719999999972,
      "v": 110
    },
    {
      "midi": 65,
      "hit": false,
      "t": 76363.55999999975,
      "d": 267.0451874999999,
      "v": 110
    },
    {
      "midi": 72,
      "hit": false,
      "t": 76636.28699999975,
      "d": 267.0451874999999,
      "v": 110
    },
    {
      "midi": 70,
      "hit": false,
      "t": 76909.01399999975,
      "d": 2090.9070000000065,
      "v": 110
    },
    {
      "midi": 41,
      "hit": false,
      "t": 76909.01399999997,
      "d": 403.40868750000664,
      "v": 110
    },
    {
      "midi": 46,
      "hit": false,
      "t": 76909.01399999997,
      "d": 403.40868750000664,
      "v": 110
    },
    {
      "midi": 53,
      "hit": false,
      "t": 76909.01399999997,
      "d": 403.40868750000664,
      "v": 110
    },
    {
      "midi": 58,
      "hit": false,
      "t": 76909.01399999997,
      "d": 403.40868750000664,
      "v": 110
    },
    {
      "midi": 53,
      "hit": false,
      "t": 77318.10449999997,
      "d": 227.2725000000064,
      "v": 110
    },
    {
      "midi": 58,
      "hit": false,
      "t": 77318.10449999997,
      "d": 227.2725000000064,
      "v": 110
    },
    {
      "midi": 53,
      "hit": false,
      "t": 77590.83149999999,
      "d": 90.90899999999965,
      "v": 110
    },
    {
      "midi": 58,
      "hit": false,
      "t": 77590.83149999999,
      "d": 90.90899999999965,
      "v": 110
    },
    {
      "midi": 53,
      "hit": false,
      "t": 77727.19499999999,
      "d": 409.0905000000057,
      "v": 110
    },
    {
      "midi": 58,
      "hit": false,
      "t": 77727.19499999999,
      "d": 409.0905000000057,
      "v": 110
    }
  ]
}