{
  "jsonPath": "Rock/Piano Rock/Deas Vail/light-as-air-new-version.json",
  "path": "Rock\\Piano Rock\\Deas Vail\\Light As Air (New Version).mid",
  "name": "Light As Air (New Version)",
  "difficulty": "Advanced",
  "bpm": 69.00009660013524,
  "notes": [
    {
      "midi": 66,
      "hit": false,
      "t": 2608.692,
      "d": 262.68079166666666,
      "v": 102
    },
    {
      "midi": 67,
      "hit": false,
      "t": 2826.083,
      "d": 384.9632291666667,
      "v": 102
    },
    {
      "midi": 66,
      "hit": false,
      "t": 3043.474,
      "d": 421.19506249999995,
      "v": 74
    },
    {
      "midi": 62,
      "hit": false,
      "t": 3260.8650000000002,
      "d": 1521.7369999999996,
      "v": 69
    },
    {
      "midi": 55,
      "hit": false,
      "t": 3478.2560000000003,
      "d": 1521.737,
      "v": 102
    },
    {
      "midi": 59,
      "hit": false,
      "t": 3478.2560000000003,
      "d": 1521.737,
      "v": 102
    },
    {
      "midi": 43,
      "hit": false,
      "t": 3478.2560000000003,
      "d": 1725.5410625000004,
      "v": 102
    },
    {
      "midi": 66,
      "hit": false,
      "t": 4347.820000000001,
      "d": 253.6228333333329,
      "v": 102
    },
    {
      "midi": 67,
      "hit": false,
      "t": 4565.211,
      "d": 298.91262499999993,
      "v": 102
    },
    {
      "midi": 66,
      "hit": false,
      "t": 4782.602,
      "d": 244.56487500000094,
      "v": 77
    },
    {
      "midi": 62,
      "hit": false,
      "t": 4999.993,
      "d": 1304.3460000000005,
      "v": 74
    },
    {
      "midi": 59,
      "hit": false,
      "t": 5217.384000000001,
      "d": 1734.5990208333333,
      "v": 102
    },
    {
      "midi": 52,
      "hit": false,
      "t": 5217.384000000001,
      "d": 1739.1279999999997,
      "v": 102
    },
    {
      "midi": 55,
      "hit": false,
      "t": 5217.384000000001,
      "d": 1739.1279999999997,
      "v": 102
    },
    {
      "midi": 40,
      "hit": false,
      "t": 5217.384000000001,
      "d": 1825.1786041666664,
      "v": 102
    },
    {
      "midi": 66,
      "hit": false,
      "t": 6086.948000000001,
      "d": 235.50691666666626,
      "v": 102
    },
    {
      "midi": 67,
      "hit": false,
      "t": 6304.339000000001,
      "d": 235.50691666666626,
      "v": 102
    },
    {
      "midi": 66,
      "hit": false,
      "t": 6521.7300000000005,
      "d": 244.56487500000003,
      "v": 81
    },
    {
      "midi": 62,
      "hit": false,
      "t": 6739.121,
      "d": 1911.229208333335,
      "v": 70
    },
    {
      "midi": 54,
      "hit": false,
      "t": 6956.512000000001,
      "d": 1689.3092291666671,
      "v": 98
    },
    {
      "midi": 59,
      "hit": false,
      "t": 6956.512000000001,
      "d": 1734.599020833335,
      "v": 98
    },
    {
      "midi": 50,
      "hit": false,
      "t": 6956.512000000001,
      "d": 1739.1280000000024,
      "v": 98
    },
    {
      "midi": 35,
      "hit": false,
      "t": 6956.512000000001,
      "d": 2558.8732291666674,
      "v": 98
    },
    {
      "midi": 47,
      "hit": false,
      "t": 6956.512000000001,
      "d": 3478.256000000001,
      "v": 98
    },
    {
      "midi": 62,
      "hit": false,
      "t": 8695.640000000003,
      "d": 529.8905624999989,
      "v": 88
    },
    {
      "midi": 54,
      "hit": false,
      "t": 8695.640000000003,
      "d": 552.5354583333319,
      "v": 88
    },
    {
      "midi": 59,
      "hit": false,
      "t": 8695.640000000003,
      "d": 593.2962708333325,
      "v": 88
    },
    {
      "midi": 50,
      "hit": false,
      "t": 9130.422000000002,
      "d": 1304.3459999999995,
      "v": 63
    },
    {
      "midi": 69,
      "hit": false,
      "t": 9565.204000000002,
      "d": 289.85466666666616,
      "v": 102
    },
    {
      "midi": 62,
      "hit": false,
      "t": 9565.204000000002,
      "d": 443.8399583333321,
      "v": 82
    },
    {
      "midi": 59,
      "hit": false,
      "t": 9565.204000000002,
      "d": 652.1729999999989,
      "v": 82
    },
    {
      "midi": 54,
      "hit": false,
      "t": 9565.204000000002,
      "d": 869.5640000000003,
      "v": 82
    },
    {
      "midi": 67,
      "hit": false,
      "t": 9782.595000000001,
      "d": 249.09385416666555,
      "v": 98
    },
    {
      "midi": 66,
      "hit": false,
      "t": 9999.986,
      "d": 258.15181250000023,
      "v": 76
    },
    {
      "midi": 62,
      "hit": false,
      "t": 10217.377,
      "d": 258.15181250000205,
      "v": 76
    },
    {
      "midi": 55,
      "hit": false,
      "t": 10434.768000000002,
      "d": 1521.7369999999992,
      "v": 102
    },
    {
      "midi": 59,
      "hit": false,
      "t": 10434.768000000002,
      "d": 1521.7369999999992,
      "v": 102
    },
    {
      "midi": 43,
      "hit": false,
      "t": 10434.768000000002,
      "d": 1725.5410625000004,
      "v": 102
    },
    {
      "midi": 66,
      "hit": false,
      "t": 11304.332000000002,
      "d": 253.6228333333329,
      "v": 102
    },
    {
      "midi": 67,
      "hit": false,
      "t": 11521.723000000002,
      "d": 298.912624999999,
      "v": 102
    },
    {
      "midi": 66,
      "hit": false,
      "t": 11739.114000000001,
      "d": 244.56487500000003,
      "v": 77
    },
    {
      "midi": 62,
      "hit": false,
      "t": 11956.505000000001,
      "d": 1304.3460000000014,
      "v": 74
    },
    {
      "midi": 59,
      "hit": false,
      "t": 12173.896000000002,
      "d": 1734.599020833337,
      "v": 102
    },
    {
      "midi": 52,
      "hit": false,
      "t": 12173.896000000002,
      "d": 1739.1280000000042,
      "v": 102
    },
    {
      "midi": 55,
      "hit": false,
      "t": 12173.896000000002,
      "d": 1739.1280000000042,
      "v": 102
    },
    {
      "midi": 40,
      "hit": false,
      "t": 12173.896000000002,
      "d": 1825.178604166671,
      "v": 102
    },
    {
      "midi": 66,
      "hit": false,
      "t": 13043.460000000003,
      "d": 235.50691666666717,
      "v": 102
    },
    {
      "midi": 67,
      "hit": false,
      "t": 13260.851000000002,
      "d": 235.50691666666899,
      "v": 102
    },
    {
      "midi": 66,
      "hit": false,
      "t": 13478.242000000004,
      "d": 244.56487500000185,
      "v": 81
    },
    {
      "midi": 62,
      "hit": false,
      "t": 13695.633000000005,
      "d": 1956.519000000002,
      "v": 70
    },
    {
      "midi": 54,
      "hit": false,
      "t": 13913.024000000007,
      "d": 1689.3092291666671,
      "v": 98
    },
    {
      "midi": 59,
      "hit": false,
      "t": 13913.024000000007,
      "d": 1734.5990208333333,
      "v": 98
    },
    {
      "midi": 50,
      "hit": false,
      "t": 13913.024000000007,
      "d": 1739.1280000000006,
      "v": 98
    },
    {
      "midi": 35,
      "hit": false,
      "t": 13913.024000000007,
      "d": 2558.8732291666656,
      "v": 98
    },
    {
      "midi": 47,
      "hit": false,
      "t": 13913.024000000007,
      "d": 3478.2559999999994,
      "v": 98
    },
    {
      "midi": 62,
      "hit": false,
      "t": 15652.152000000007,
      "d": 529.8905624999989,
      "v": 88
    },
    {
      "midi": 54,
      "hit": false,
      "t": 15652.152000000007,
      "d": 552.5354583333319,
      "v": 88
    },
    {
      "midi": 59,
      "hit": false,
      "t": 15652.152000000007,
      "d": 593.2962708333325,
      "v": 88
    },
    {
      "midi": 50,
      "hit": false,
      "t": 16086.934000000007,
      "d": 1304.3459999999995,
      "v": 63
    },
    {
      "midi": 69,
      "hit": false,
      "t": 16521.716000000004,
      "d": 289.85466666666616,
      "v": 102
    },
    {
      "midi": 62,
      "hit": false,
      "t": 16521.716000000004,
      "d": 443.8399583333339,
      "v": 82
    },
    {
      "midi": 59,
      "hit": false,
      "t": 16521.716000000004,
      "d": 652.1730000000025,
      "v": 82
    },
    {
      "midi": 54,
      "hit": false,
      "t": 16521.716000000004,
      "d": 869.5640000000021,
      "v": 82
    },
    {
      "midi": 67,
      "hit": false,
      "t": 16739.107000000004,
      "d": 249.0938541666692,
      "v": 98
    },
    {
      "midi": 66,
      "hit": false,
      "t": 16956.498000000003,
      "d": 258.15181250000387,
      "v": 76
    },
    {
      "midi": 62,
      "hit": false,
      "t": 17173.889000000006,
      "d": 258.15181250000023,
      "v": 76
    },
    {
      "midi": 55,
      "hit": false,
      "t": 17391.280000000006,
      "d": 1521.7370000000046,
      "v": 102
    },
    {
      "midi": 59,
      "hit": false,
      "t": 17391.280000000006,
      "d": 1521.7370000000046,
      "v": 102
    },
    {
      "midi": 43,
      "hit": false,
      "t": 17391.280000000006,
      "d": 1725.541062500004,
      "v": 102
    },
    {
      "midi": 66,
      "hit": false,
      "t": 18260.84400000001,
      "d": 253.6228333333347,
      "v": 102
    },
    {
      "midi": 67,
      "hit": false,
      "t": 18478.235000000008,
      "d": 298.9126250000045,
      "v": 102
    },
    {
      "midi": 66,
      "hit": false,
      "t": 18695.62600000001,
      "d": 244.56487500000003,
      "v": 77
    },
    {
      "midi": 62,
      "hit": false,
      "t": 18913.01700000001,
      "d": 1304.3459999999977,
      "v": 74
    },
    {
      "midi": 59,
      "hit": false,
      "t": 19130.40800000001,
      "d": 1734.5990208333315,
      "v": 102
    },
    {
      "midi": 52,
      "hit": false,
      "t": 19130.40800000001,
      "d": 1739.127999999997,
      "v": 102
    },
    {
      "midi": 55,
      "hit": false,
      "t": 19130.40800000001,
      "d": 1739.127999999997,
      "v": 102
    },
    {
      "midi": 40,
      "hit": false,
      "t": 19130.40800000001,
      "d": 1825.1786041666637,
      "v": 102
    },
    {
      "midi": 66,
      "hit": false,
      "t": 19999.97200000001,
      "d": 235.50691666666535,
      "v": 102
    },
    {
      "midi": 67,
      "hit": false,
      "t": 20217.36300000001,
      "d": 235.50691666666535,
      "v": 102
    },
    {
      "midi": 66,
      "hit": false,
      "t": 20434.754000000008,
      "d": 244.56487500000003,
      "v": 81
    },
    {
      "midi": 62,
      "hit": false,
      "t": 20652.145000000008,
      "d": 1829.7075833333329,
      "v": 70
    },
    {
      "midi": 54,
      "hit": false,
      "t": 20869.536000000007,
      "d": 1689.3092291666653,
      "v": 98
    },
    {
      "midi": 59,
      "hit": false,
      "t": 20869.536000000007,
      "d": 1734.5990208333315,
      "v": 98
    },
    {
      "midi": 50,
      "hit": false,
      "t": 20869.536000000007,
      "d": 1739.127999999997,
      "v": 98
    },
    {
      "midi": 35,
      "hit": false,
      "t": 20869.536000000007,
      "d": 2558.8732291666674,
      "v": 98
    },
    {
      "midi": 47,
      "hit": false,
      "t": 20869.536000000007,
      "d": 3478.256000000001,
      "v": 98
    },
    {
      "midi": 62,
      "hit": false,
      "t": 22608.664000000004,
      "d": 529.8905625000007,
      "v": 88
    },
    {
      "midi": 54,
      "hit": false,
      "t": 22608.664000000004,
      "d": 552.5354583333356,
      "v": 88
    },
    {
      "midi": 59,
      "hit": false,
      "t": 22608.664000000004,
      "d": 593.2962708333362,
      "v": 88
    },
    {
      "midi": 50,
      "hit": false,
      "t": 23043.446000000004,
      "d": 1304.346000000005,
      "v": 63
    },
    {
      "midi": 66,
      "hit": false,
      "t": 23478.228000000006,
      "d": 289.85466666666616,
      "v": 102
    },
    {
      "midi": 62,
      "hit": false,
      "t": 23478.228000000006,
      "d": 443.8399583333339,
      "v": 82
    },
    {
      "midi": 59,
      "hit": false,
      "t": 23478.228000000006,
      "d": 652.1730000000025,
      "v": 82
    },
    {
      "midi": 54,
      "hit": false,
      "t": 23478.228000000006,
      "d": 869.5640000000021,
      "v": 82
    },
    {
      "midi": 67,
      "hit": false,
      "t": 23695.619000000006,
      "d": 249.0938541666692,
      "v": 98
    },
    {
      "midi": 66,
      "hit": false,
      "t": 23913.010000000006,
      "d": 258.15181250000387,
      "v": 76
    },
    {
      "midi": 62,
      "hit": false,
      "t": 24130.40100000001,
      "d": 258.15181250000023,
      "v": 76
    },
    {
      "midi": 55,
      "hit": false,
      "t": 24347.79200000001,
      "d": 1521.7370000000046,
      "v": 102
    },
    {
      "midi": 59,
      "hit": false,
      "t": 24347.79200000001,
      "d": 1521.7370000000046,
      "v": 102
    },
    {
      "midi": 43,
      "hit": false,
      "t": 24347.79200000001,
      "d": 1725.541062500004,
      "v": 102
    },
    {
      "midi": 66,
      "hit": false,
      "t": 25217.35600000001,
      "d": 253.6228333333347,
      "v": 102
    },
    {
      "midi": 67,
      "hit": false,
      "t": 25434.74700000001,
      "d": 298.9126250000045,
      "v": 102
    },
    {
      "midi": 66,
      "hit": false,
      "t": 25652.138000000014,
      "d": 244.56487500000003,
      "v": 77
    },
    {
      "midi": 62,
      "hit": false,
      "t": 25869.529000000013,
      "d": 1304.3459999999977,
      "v": 74
    },
    {
      "midi": 59,
      "hit": false,
      "t": 26086.920000000013,
      "d": 1734.5990208333315,
      "v": 102
    },
    {
      "midi": 52,
      "hit": false,
      "t": 26086.920000000013,
      "d": 1739.127999999997,
      "v": 102
    },
    {
      "midi": 55,
      "hit": false,
      "t": 26086.920000000013,
      "d": 1739.127999999997,
      "v": 102
    },
    {
      "midi": 40,
      "hit": false,
      "t": 26086.920000000013,
      "d": 1825.1786041666637,
      "v": 102
    },
    {
      "midi": 66,
      "hit": false,
      "t": 26956.48400000001,
      "d": 235.50691666666535,
      "v": 102
    },
    {
      "midi": 67,
      "hit": false,
      "t": 27173.87500000001,
      "d": 235.50691666666535,
      "v": 102
    },
    {
      "midi": 66,
      "hit": false,
      "t": 27391.26600000001,
      "d": 244.56487500000003,
      "v": 81
    },
    {
      "midi": 62,
      "hit": false,
      "t": 27608.65700000001,
      "d": 1911.2292083333305,
      "v": 70
    },
    {
      "midi": 54,
      "hit": false,
      "t": 27826.04800000001,
      "d": 1689.3092291666653,
      "v": 98
    },
    {
      "midi": 59,
      "hit": false,
      "t": 27826.04800000001,
      "d": 1734.5990208333315,
      "v": 98
    },
    {
      "midi": 50,
      "hit": false,
      "t": 27826.04800000001,
      "d": 1739.127999999997,
      "v": 98
    },
    {
      "midi": 35,
      "hit": false,
      "t": 27826.04800000001,
      "d": 2558.8732291666674,
      "v": 98
    },
    {
      "midi": 47,
      "hit": false,
      "t": 27826.04800000001,
      "d": 3478.256000000001,
      "v": 98
    },
    {
      "midi": 62,
      "hit": false,
      "t": 29565.176000000007,
      "d": 529.8905625000007,
      "v": 88
    },
    {
      "midi": 54,
      "hit": false,
      "t": 29565.176000000007,
      "d": 552.5354583333356,
      "v": 88
    },
    {
      "midi": 59,
      "hit": false,
      "t": 29565.176000000007,
      "d": 593.2962708333362,
      "v": 88
    },
    {
      "midi": 50,
      "hit": false,
      "t": 29999.958000000006,
      "d": 1304.346000000005,
      "v": 63
    },
    {
      "midi": 59,
      "hit": false,
      "t": 30217.34900000001,
      "d": 652.1729999999989,
      "v": 82
    },
    {
      "midi": 69,
      "hit": false,
      "t": 30434.74000000001,
      "d": 289.85466666666616,
      "v": 99
    },
    {
      "midi": 62,
      "hit": false,
      "t": 30434.74000000001,
      "d": 443.8399583333339,
      "v": 99
    },
    {
      "midi": 54,
      "hit": false,
      "t": 30434.74000000001,
      "d": 869.5640000000021,
      "v": 99
    },
    {
      "midi": 67,
      "hit": false,
      "t": 30652.13100000001,
      "d": 249.0938541666692,
      "v": 99
    },
    {
      "midi": 66,
      "hit": false,
      "t": 30869.522000000008,
      "d": 258.15181250000387,
      "v": 76
    },
    {
      "midi": 62,
      "hit": false,
      "t": 31086.91300000001,
      "d": 258.15181250000023,
      "v": 76
    },
    {
      "midi": 55,
      "hit": false,
      "t": 31304.30400000001,
      "d": 1521.7370000000083,
      "v": 102
    },
    {
      "midi": 59,
      "hit": false,
      "t": 31304.30400000001,
      "d": 1521.7370000000083,
      "v": 102
    },
    {
      "midi": 43,
      "hit": false,
      "t": 31304.30400000001,
      "d": 1725.5410625000077,
      "v": 102
    },
    {
      "midi": 66,
      "hit": false,
      "t": 32173.868000000013,
      "d": 253.6228333333347,
      "v": 102
    },
    {
      "midi": 67,
      "hit": false,
      "t": 32391.259000000013,
      "d": 298.9126250000045,
      "v": 102
    },
    {
      "midi": 66,
      "hit": false,
      "t": 32608.650000000016,
      "d": 244.56487500000367,
      "v": 77
    },
    {
      "midi": 62,
      "hit": false,
      "t": 32826.04100000002,
      "d": 1304.3459999999977,
      "v": 74
    },
    {
      "midi": 59,
      "hit": false,
      "t": 33043.432000000015,
      "d": 1734.5990208333387,
      "v": 102
    },
    {
      "midi": 52,
      "hit": false,
      "t": 33043.432000000015,
      "d": 1739.1280000000042,
      "v": 102
    },
    {
      "midi": 55,
      "hit": false,
      "t": 33043.432000000015,
      "d": 1739.1280000000042,
      "v": 102
    },
    {
      "midi": 40,
      "hit": false,
      "t": 33043.432000000015,
      "d": 1825.178604166671,
      "v": 102
    },
    {
      "midi": 66,
      "hit": false,
      "t": 33912.996000000014,
      "d": 235.50691666667262,
      "v": 102
    },
    {
      "midi": 67,
      "hit": false,
      "t": 34130.38700000002,
      "d": 235.50691666667262,
      "v": 102
    },
    {
      "midi": 66,
      "hit": false,
      "t": 34347.77800000002,
      "d": 244.56487500000367,
      "v": 81
    },
    {
      "midi": 62,
      "hit": false,
      "t": 34565.16900000002,
      "d": 3695.646999999997,
      "v": 70
    },
    {
      "midi": 35,
      "hit": false,
      "t": 34782.56000000002,
      "d": 2558.8732291666674,
      "v": 98
    },
    {
      "midi": 47,
      "hit": false,
      "t": 34782.56000000002,
      "d": 3478.256000000001,
      "v": 98
    },
    {
      "midi": 50,
      "hit": false,
      "t": 34782.56000000002,
      "d": 3478.256000000001,
      "v": 98
    },
    {
      "midi": 54,
      "hit": false,
      "t": 34782.56000000002,
      "d": 3478.256000000001,
      "v": 98
    },
    {
      "midi": 59,
      "hit": false,
      "t": 34782.56000000002,
      "d": 3478.256000000001,
      "v": 98
    },
    {
      "midi": 59,
      "hit": false,
      "t": 38260.81600000002,
      "d": 1562.497812499998,
      "v": 87
    },
    {
      "midi": 55,
      "hit": false,
      "t": 38260.81600000002,
      "d": 1585.1427083333328,
      "v": 87
    },
    {
      "midi": 62,
      "hit": false,
      "t": 38260.81600000002,
      "d": 1675.7222916666651,
      "v": 87
    },
    {
      "midi": 43,
      "hit": false,
      "t": 38260.81600000002,
      "d": 1711.9541249999966,
      "v": 87
    },
    {
      "midi": 62,
      "hit": false,
      "t": 39347.771,
      "d": 692.9338124999995,
      "v": 94
    },
    {
      "midi": 59,
      "hit": false,
      "t": 39999.944,
      "d": 1096.0129583333255,
      "v": 94
    },
    {
      "midi": 59,
      "hit": false,
      "t": 39999.94400000002,
      "d": 1634.9614791666681,
      "v": 87
    },
    {
      "midi": 40,
      "hit": false,
      "t": 39999.94400000002,
      "d": 1653.0773958333375,
      "v": 87
    },
    {
      "midi": 62,
      "hit": false,
      "t": 39999.94400000002,
      "d": 1653.0773958333375,
      "v": 87
    },
    {
      "midi": 52,
      "hit": false,
      "t": 39999.94400000002,
      "d": 1657.606375000003,
      "v": 87
    },
    {
      "midi": 55,
      "hit": false,
      "t": 39999.94400000002,
      "d": 1666.664333333334,
      "v": 87
    },
    {
      "midi": 62,
      "hit": false,
      "t": 41086.899,
      "d": 647.6440208333297,
      "v": 94
    },
    {
      "midi": 54,
      "hit": false,
      "t": 41739.07199999999,
      "d": 2998.184208333332,
      "v": 94
    },
    {
      "midi": 62,
      "hit": false,
      "t": 41739.07200000002,
      "d": 3423.9082500000004,
      "v": 89
    },
    {
      "midi": 54,
      "hit": false,
      "t": 41739.07200000002,
      "d": 3442.0241666666698,
      "v": 89
    },
    {
      "midi": 59,
      "hit": false,
      "t": 41739.07200000002,
      "d": 3442.0241666666698,
      "v": 89
    },
    {
      "midi": 66,
      "hit": false,
      "t": 41739.07200000002,
      "d": 3442.0241666666698,
      "v": 89
    },
    {
      "midi": 69,
      "hit": false,
      "t": 41739.07200000002,
      "d": 3442.0241666666698,
      "v": 89
    },
    {
      "midi": 47,
      "hit": false,
      "t": 41739.07200000002,
      "d": 3451.082125000001,
      "v": 89
    },
    {
      "midi": 62,
      "hit": false,
      "t": 45217.327999999994,
      "d": 552.5354583333319,
      "v": 95
    },
    {
      "midi": 69,
      "hit": false,
      "t": 45217.32800000002,
      "d": 1625.903520833337,
      "v": 91
    },
    {
      "midi": 60,
      "hit": false,
      "t": 45217.32800000002,
      "d": 1630.4325000000026,
      "v": 91
    },
    {
      "midi": 65,
      "hit": false,
      "t": 45217.32800000002,
      "d": 1702.8961666666728,
      "v": 91
    },
    {
      "midi": 53,
      "hit": false,
      "t": 45217.32800000002,
      "d": 1734.5990208333387,
      "v": 91
    },
    {
      "midi": 60,
      "hit": false,
      "t": 45652.10999999999,
      "d": 167.57222916666797,
      "v": 78
    },
    {
      "midi": 60,
      "hit": false,
      "t": 45869.501,
      "d": 638.5860624999987,
      "v": 98
    },
    {
      "midi": 59,
      "hit": false,
      "t": 46521.67399999999,
      "d": 285.32568750000064,
      "v": 83
    },
    {
      "midi": 60,
      "hit": false,
      "t": 46739.064999999995,
      "d": 588.7672916666634,
      "v": 94
    },
    {
      "midi": 60,
      "hit": false,
      "t": 46956.45600000003,
      "d": 1625.9035208333298,
      "v": 92
    },
    {
      "midi": 64,
      "hit": false,
      "t": 46956.45600000003,
      "d": 1639.4904583333264,
      "v": 92
    },
    {
      "midi": 45,
      "hit": false,
      "t": 46956.45600000003,
      "d": 1653.077395833323,
      "v": 92
    },
    {
      "midi": 69,
      "hit": false,
      "t": 46956.45600000003,
      "d": 1653.077395833323,
      "v": 92
    },
    {
      "midi": 60,
      "hit": false,
      "t": 47391.23799999999,
      "d": 172.1012083333335,
      "v": 77
    },
    {
      "midi": 60,
      "hit": false,
      "t": 47608.62899999999,
      "d": 575.1803541666668,
      "v": 92
    },
    {
      "midi": 62,
      "hit": false,
      "t": 48260.801999999996,
      "d": 280.7967083333351,
      "v": 88
    },
    {
      "midi": 59,
      "hit": false,
      "t": 48478.193,
      "d": 1331.5198749999981,
      "v": 95
    },
    {
      "midi": 55,
      "hit": false,
      "t": 48695.58400000002,
      "d": 996.3754166666695,
      "v": 95
    },
    {
      "midi": 62,
      "hit": false,
      "t": 48695.58400000002,
      "d": 1109.5998958333366,
      "v": 97
    },
    {
      "midi": 59,
      "hit": false,
      "t": 48695.58400000002,
      "d": 1123.1868333333332,
      "v": 92
    },
    {
      "midi": 43,
      "hit": false,
      "t": 48695.58400000002,
      "d": 1662.1353541666685,
      "v": 95
    },
    {
      "midi": 62,
      "hit": false,
      "t": 49782.539,
      "d": 665.7599374999991,
      "v": 97
    },
    {
      "midi": 55,
      "hit": false,
      "t": 49782.53900000002,
      "d": 520.832604166666,
      "v": 92
    },
    {
      "midi": 59,
      "hit": false,
      "t": 49999.930000000015,
      "d": 380.4342500000057,
      "v": 91
    },
    {
      "midi": 62,
      "hit": false,
      "t": 49999.930000000015,
      "d": 380.4342500000057,
      "v": 91
    },
    {
      "midi": 59,
      "hit": false,
      "t": 50434.712,
      "d": 1141.3027499999953,
      "v": 94
    },
    {
      "midi": 52,
      "hit": false,
      "t": 50434.71200000002,
      "d": 1567.0267916666635,
      "v": 94
    },
    {
      "midi": 55,
      "hit": false,
      "t": 50434.71200000002,
      "d": 1576.0847499999945,
      "v": 94
    },
    {
      "midi": 59,
      "hit": false,
      "t": 50434.71200000002,
      "d": 1576.0847499999945,
      "v": 94
    },
    {
      "midi": 62,
      "hit": false,
      "t": 50434.71200000002,
      "d": 1603.258624999995,
      "v": 94
    },
    {
      "midi": 40,
      "hit": false,
      "t": 50434.71200000002,
      "d": 1721.0120833333276,
      "v": 94
    },
    {
      "midi": 62,
      "hit": false,
      "t": 51521.666999999994,
      "d": 652.1730000000025,
      "v": 94
    },
    {
      "midi": 66,
      "hit": false,
      "t": 52173.84,
      "d": 1585.1427083333328,
      "v": 97
    },
    {
      "midi": 62,
      "hit": false,
      "t": 52173.84000000002,
      "d": 3423.9082500000004,
      "v": 89
    },
    {
      "midi": 54,
      "hit": false,
      "t": 52173.84000000002,
      "d": 3442.0241666666698,
      "v": 89
    },
    {
      "midi": 59,
      "hit": false,
      "t": 52173.84000000002,
      "d": 3442.0241666666698,
      "v": 89
    },
    {
      "midi": 66,
      "hit": false,
      "t": 52173.84000000002,
      "d": 3442.0241666666698,
      "v": 89
    },
    {
      "midi": 69,
      "hit": false,
      "t": 52173.84000000002,
      "d": 3442.0241666666698,
      "v": 89
    },
    {
      "midi": 47,
      "hit": false,
      "t": 52173.84000000002,
      "d": 3451.082125000001,
      "v": 89
    },
    {
      "midi": 62,
      "hit": false,
      "t": 55434.704999999994,
      "d": 778.9844166666662,
      "v": 99
    },
    {
      "midi": 69,
      "hit": false,
      "t": 55652.09600000002,
      "d": 1625.903520833337,
      "v": 91
    },
    {
      "midi": 60,
      "hit": false,
      "t": 55652.09600000002,
      "d": 1630.4325000000026,
      "v": 91
    },
    {
      "midi": 65,
      "hit": false,
      "t": 55652.09600000002,
      "d": 1702.8961666666728,
      "v": 91
    },
    {
      "midi": 53,
      "hit": false,
      "t": 55652.09600000002,
      "d": 1734.5990208333387,
      "v": 91
    },
    {
      "midi": 60,
      "hit": false,
      "t": 56086.878,
      "d": 163.04324999999517,
      "v": 61
    },
    {
      "midi": 60,
      "hit": false,
      "t": 56304.26899999999,
      "d": 611.4121874999983,
      "v": 97
    },
    {
      "midi": 59,
      "hit": false,
      "t": 56956.44199999999,
      "d": 271.7387500000041,
      "v": 73
    },
    {
      "midi": 60,
      "hit": false,
      "t": 57173.83299999999,
      "d": 575.1803541666668,
      "v": 95
    },
    {
      "midi": 60,
      "hit": false,
      "t": 57391.224000000024,
      "d": 1625.9035208333298,
      "v": 92
    },
    {
      "midi": 64,
      "hit": false,
      "t": 57391.224000000024,
      "d": 1639.4904583333264,
      "v": 92
    },
    {
      "midi": 45,
      "hit": false,
      "t": 57391.224000000024,
      "d": 1653.077395833323,
      "v": 92
    },
    {
      "midi": 69,
      "hit": false,
      "t": 57391.224000000024,
      "d": 1653.077395833323,
      "v": 92
    },
    {
      "midi": 60,
      "hit": false,
      "t": 57826.005999999994,
      "d": 153.98529166666412,
      "v": 77
    },
    {
      "midi": 60,
      "hit": false,
      "t": 58043.39699999999,
      "d": 471.0138333333307,
      "v": 92
    },
    {
      "midi": 62,
      "hit": false,
      "t": 58478.17899999999,
      "d": 688.4048333333267,
      "v": 92
    },
    {
      "midi": 59,
      "hit": false,
      "t": 59130.351999999984,
      "d": 2391.3009999999995,
      "v": 97
    },
    {
      "midi": 67,
      "hit": false,
      "t": 59130.35200000001,
      "d": 2350.5401875000025,
      "v": 83
    },
    {
      "midi": 55,
      "hit": false,
      "t": 59130.35200000001,
      "d": 2604.163020833337,
      "v": 88
    },
    {
      "midi": 62,
      "hit": false,
      "t": 59130.35200000001,
      "d": 2626.807916666672,
      "v": 77
    },
    {
      "midi": 43,
      "hit": false,
      "t": 59130.35200000001,
      "d": 2640.3948541666687,
      "v": 97
    },
    {
      "midi": 59,
      "hit": false,
      "t": 59130.35200000001,
      "d": 2649.4528124999997,
      "v": 91
    },
    {
      "midi": 66,
      "hit": false,
      "t": 61739.044000000016,
      "d": 203.80406249999942,
      "v": 102
    },
    {
      "midi": 67,
      "hit": false,
      "t": 61956.43500000001,
      "d": 230.97793749999983,
      "v": 91
    },
    {
      "midi": 66,
      "hit": false,
      "t": 62173.826000000015,
      "d": 140.39835416666028,
      "v": 85
    },
    {
      "midi": 62,
      "hit": false,
      "t": 62391.21700000001,
      "d": 131.34039583333652,
      "v": 69
    },
    {
      "midi": 55,
      "hit": false,
      "t": 62608.608000000015,
      "d": 1521.737000000001,
      "v": 102
    },
    {
      "midi": 59,
      "hit": false,
      "t": 62608.608000000015,
      "d": 1521.737000000001,
      "v": 102
    },
    {
      "midi": 43,
      "hit": false,
      "t": 62608.608000000015,
      "d": 1725.5410625000004,
      "v": 102
    },
    {
      "midi": 66,
      "hit": false,
      "t": 63478.17200000001,
      "d": 253.6228333333347,
      "v": 102
    },
    {
      "midi": 67,
      "hit": false,
      "t": 63695.56300000002,
      "d": 298.9126249999972,
      "v": 102
    },
    {
      "midi": 66,
      "hit": false,
      "t": 63912.95400000001,
      "d": 244.56487500000367,
      "v": 77
    },
    {
      "midi": 62,
      "hit": false,
      "t": 64130.345000000016,
      "d": 1304.3459999999977,
      "v": 74
    },
    {
      "midi": 59,
      "hit": false,
      "t": 64347.73600000001,
      "d": 1734.599020833317,
      "v": 102
    },
    {
      "midi": 52,
      "hit": false,
      "t": 64347.73600000001,
      "d": 1739.1279999999897,
      "v": 102
    },
    {
      "midi": 55,
      "hit": false,
      "t": 64347.73600000001,
      "d": 1739.1279999999897,
      "v": 102
    },
    {
      "midi": 40,
      "hit": false,
      "t": 64347.73600000001,
      "d": 1825.1786041666564,
      "v": 102
    },
    {
      "midi": 66,
      "hit": false,
      "t": 65217.30000000001,
      "d": 235.50691666667262,
      "v": 102
    },
    {
      "midi": 67,
      "hit": false,
      "t": 65434.69100000001,
      "d": 235.50691666665807,
      "v": 102
    },
    {
      "midi": 66,
      "hit": false,
      "t": 65652.08200000001,
      "d": 244.56487499998184,
      "v": 81
    },
    {
      "midi": 62,
      "hit": false,
      "t": 65869.473,
      "d": 1911.229208333345,
      "v": 70
    },
    {
      "midi": 54,
      "hit": false,
      "t": 66086.864,
      "d": 1689.309229166669,
      "v": 98
    },
    {
      "midi": 59,
      "hit": false,
      "t": 66086.864,
      "d": 1734.5990208333387,
      "v": 98
    },
    {
      "midi": 50,
      "hit": false,
      "t": 66086.864,
      "d": 1739.1280000000115,
      "v": 98
    },
    {
      "midi": 35,
      "hit": false,
      "t": 66086.864,
      "d": 2558.873229166682,
      "v": 98
    },
    {
      "midi": 47,
      "hit": false,
      "t": 66086.864,
      "d": 3478.256000000023,
      "v": 98
    },
    {
      "midi": 62,
      "hit": false,
      "t": 67825.99200000001,
      "d": 529.8905625000043,
      "v": 88
    },
    {
      "midi": 54,
      "hit": false,
      "t": 67825.99200000001,
      "d": 552.5354583333392,
      "v": 88
    },
    {
      "midi": 59,
      "hit": false,
      "t": 67825.99200000001,
      "d": 593.2962708333362,
      "v": 88
    },
    {
      "midi": 50,
      "hit": false,
      "t": 68260.77400000002,
      "d": 1304.346000000005,
      "v": 63
    },
    {
      "midi": 59,
      "hit": false,
      "t": 68478.16500000002,
      "d": 652.1729999999952,
      "v": 82
    },
    {
      "midi": 69,
      "hit": false,
      "t": 68695.55600000001,
      "d": 289.85466666666616,
      "v": 99
    },
    {
      "midi": 62,
      "hit": false,
      "t": 68695.55600000001,
      "d": 443.83995833333756,
      "v": 99
    },
    {
      "midi": 54,
      "hit": false,
      "t": 68695.55600000001,
      "d": 869.564000000013,
      "v": 99
    },
    {
      "midi": 67,
      "hit": false,
      "t": 68912.94700000001,
      "d": 249.0938541666692,
      "v": 99
    },
    {
      "midi": 66,
      "hit": false,
      "t": 69130.33800000002,
      "d": 258.15181250000023,
      "v": 76
    },
    {
      "midi": 62,
      "hit": false,
      "t": 69347.72900000002,
      "d": 258.15181250000023,
      "v": 76
    },
    {
      "midi": 55,
      "hit": false,
      "t": 69565.12000000002,
      "d": 1521.7369999999937,
      "v": 102
    },
    {
      "midi": 59,
      "hit": false,
      "t": 69565.12000000002,
      "d": 1521.7369999999937,
      "v": 102
    },
    {
      "midi": 43,
      "hit": false,
      "t": 69565.12000000002,
      "d": 1725.5410624999931,
      "v": 102
    },
    {
      "midi": 66,
      "hit": false,
      "t": 70434.68400000002,
      "d": 253.622833333342,
      "v": 102
    },
    {
      "midi": 67,
      "hit": false,
      "t": 70652.07500000003,
      "d": 298.9126249999972,
      "v": 102
    },
    {
      "midi": 66,
      "hit": false,
      "t": 70869.46600000003,
      "d": 244.56487499998184,
      "v": 77
    },
    {
      "midi": 62,
      "hit": false,
      "t": 71086.85700000002,
      "d": 1304.346000000005,
      "v": 74
    },
    {
      "midi": 59,
      "hit": false,
      "t": 71304.24800000002,
      "d": 1734.5990208333096,
      "v": 102
    },
    {
      "midi": 52,
      "hit": false,
      "t": 71304.24800000002,
      "d": 1739.1279999999824,
      "v": 102
    },
    {
      "midi": 55,
      "hit": false,
      "t": 71304.24800000002,
      "d": 1739.1279999999824,
      "v": 102
    },
    {
      "midi": 40,
      "hit": false,
      "t": 71304.24800000002,
      "d": 1825.1786041666492,
      "v": 102
    },
    {
      "midi": 66,
      "hit": false,
      "t": 72173.81200000002,
      "d": 235.50691666666535,
      "v": 102
    },
    {
      "midi": 67,
      "hit": false,
      "t": 72391.20300000002,
      "d": 235.5069166666508,
      "v": 102
    },
    {
      "midi": 66,
      "hit": false,
      "t": 72608.59400000001,
      "d": 244.56487499998184,
      "v": 81
    },
    {
      "midi": 62,
      "hit": false,
      "t": 72825.985,
      "d": 3695.646999999997,
      "v": 70
    },
    {
      "midi": 35,
      "hit": false,
      "t": 73043.376,
      "d": 2558.8732291666674,
      "v": 98
    },
    {
      "midi": 47,
      "hit": false,
      "t": 73043.376,
      "d": 3478.255999999994,
      "v": 98
    },
    {
      "midi": 50,
      "hit": false,
      "t": 73043.376,
      "d": 3478.255999999994,
      "v": 98
    },
    {
      "midi": 54,
      "hit": false,
      "t": 73043.376,
      "d": 3478.255999999994,
      "v": 98
    },
    {
      "midi": 59,
      "hit": false,
      "t": 73043.376,
      "d": 3478.255999999994,
      "v": 98
    },
    {
      "midi": 59,
      "hit": false,
      "t": 76521.632,
      "d": 1562.4978125000052,
      "v": 95
    },
    {
      "midi": 55,
      "hit": false,
      "t": 76521.632,
      "d": 1585.1427083333401,
      "v": 95
    },
    {
      "midi": 62,
      "hit": false,
      "t": 76521.632,
      "d": 1675.7222916666797,
      "v": 95
    },
    {
      "midi": 43,
      "hit": false,
      "t": 76521.632,
      "d": 1711.9541250000184,
      "v": 95
    },
    {
      "midi": 62,
      "hit": false,
      "t": 77608.58699999998,
      "d": 692.9338124999922,
      "v": 94
    },
    {
      "midi": 59,
      "hit": false,
      "t": 78260.75999999998,
      "d": 1096.0129583333328,
      "v": 94
    },
    {
      "midi": 59,
      "hit": false,
      "t": 78260.76000000001,
      "d": 1634.9614791666681,
      "v": 97
    },
    {
      "midi": 40,
      "hit": false,
      "t": 78260.76000000001,
      "d": 1653.0773958333302,
      "v": 97
    },
    {
      "midi": 62,
      "hit": false,
      "t": 78260.76000000001,
      "d": 1653.0773958333302,
      "v": 97
    },
    {
      "midi": 52,
      "hit": false,
      "t": 78260.76000000001,
      "d": 1657.606375000003,
      "v": 97
    },
    {
      "midi": 55,
      "hit": false,
      "t": 78260.76000000001,
      "d": 1666.664333333334,
      "v": 97
    },
    {
      "midi": 62,
      "hit": false,
      "t": 79347.71499999998,
      "d": 647.644020833337,
      "v": 94
    },
    {
      "midi": 66,
      "hit": false,
      "t": 79999.88799999999,
      "d": 2998.184208333332,
      "v": 94
    },
    {
      "midi": 62,
      "hit": false,
      "t": 79999.888,
      "d": 3423.908249999993,
      "v": 97
    },
    {
      "midi": 54,
      "hit": false,
      "t": 79999.888,
      "d": 3442.024166666655,
      "v": 97
    },
    {
      "midi": 59,
      "hit": false,
      "t": 79999.888,
      "d": 3442.024166666655,
      "v": 97
    },
    {
      "midi": 66,
      "hit": false,
      "t": 79999.888,
      "d": 3442.024166666655,
      "v": 97
    },
    {
      "midi": 69,
      "hit": false,
      "t": 79999.888,
      "d": 3442.024166666655,
      "v": 97
    },
    {
      "midi": 47,
      "hit": false,
      "t": 79999.888,
      "d": 3451.0821249999863,
      "v": 97
    },
    {
      "midi": 69,
      "hit": false,
      "t": 83478.14399999999,
      "d": 1625.903520833337,
      "v": 95
    },
    {
      "midi": 60,
      "hit": false,
      "t": 83478.14399999999,
      "d": 1630.43250000001,
      "v": 95
    },
    {
      "midi": 65,
      "hit": false,
      "t": 83478.14399999999,
      "d": 1702.8961666666728,
      "v": 95
    },
    {
      "midi": 53,
      "hit": false,
      "t": 83478.14399999999,
      "d": 1734.5990208333387,
      "v": 95
    },
    {
      "midi": 62,
      "hit": false,
      "t": 83478.14399999999,
      "d": 552.5354583333392,
      "v": 95
    },
    {
      "midi": 60,
      "hit": false,
      "t": 83912.92599999999,
      "d": 167.5722291666607,
      "v": 78
    },
    {
      "midi": 60,
      "hit": false,
      "t": 84130.31699999998,
      "d": 638.5860625000059,
      "v": 98
    },
    {
      "midi": 59,
      "hit": false,
      "t": 84782.48999999999,
      "d": 285.3256875000079,
      "v": 83
    },
    {
      "midi": 60,
      "hit": false,
      "t": 84999.881,
      "d": 588.7672916666779,
      "v": 94
    },
    {
      "midi": 60,
      "hit": false,
      "t": 85217.272,
      "d": 1625.903520833337,
      "v": 95
    },
    {
      "midi": 64,
      "hit": false,
      "t": 85217.272,
      "d": 1639.490458333341,
      "v": 95
    },
    {
      "midi": 45,
      "hit": false,
      "t": 85217.272,
      "d": 1653.0773958333448,
      "v": 95
    },
    {
      "midi": 69,
      "hit": false,
      "t": 85217.272,
      "d": 1653.0773958333448,
      "v": 95
    },
    {
      "midi": 60,
      "hit": false,
      "t": 85652.054,
      "d": 172.1012083333335,
      "v": 77
    },
    {
      "midi": 60,
      "hit": false,
      "t": 85869.445,
      "d": 575.1803541666595,
      "v": 92
    },
    {
      "midi": 62,
      "hit": false,
      "t": 86521.618,
      "d": 280.7967083333351,
      "v": 88
    },
    {
      "midi": 59,
      "hit": false,
      "t": 86739.009,
      "d": 1331.5198749999981,
      "v": 95
    },
    {
      "midi": 55,
      "hit": false,
      "t": 86956.40000000001,
      "d": 996.3754166666622,
      "v": 95
    },
    {
      "midi": 62,
      "hit": false,
      "t": 86956.40000000001,
      "d": 1109.5998958333366,
      "v": 95
    },
    {
      "midi": 59,
      "hit": false,
      "t": 86956.40000000001,
      "d": 1123.1868333333405,
      "v": 95
    },
    {
      "midi": 43,
      "hit": false,
      "t": 86956.40000000001,
      "d": 1662.1353541666758,
      "v": 95
    },
    {
      "midi": 55,
      "hit": false,
      "t": 88043.35500000001,
      "d": 520.8326041666733,
      "v": 95
    },
    {
      "midi": 62,
      "hit": false,
      "t": 88043.35500000001,
      "d": 665.7599374999991,
      "v": 97
    },
    {
      "midi": 59,
      "hit": false,
      "t": 88260.74600000001,
      "d": 380.4342500000057,
      "v": 95
    },
    {
      "midi": 62,
      "hit": false,
      "t": 88260.74600000001,
      "d": 380.4342500000057,
      "v": 95
    },
    {
      "midi": 59,
      "hit": false,
      "t": 88695.528,
      "d": 1141.3027500000026,
      "v": 94
    },
    {
      "midi": 52,
      "hit": false,
      "t": 88695.52800000002,
      "d": 1567.0267916666635,
      "v": 95
    },
    {
      "midi": 55,
      "hit": false,
      "t": 88695.52800000002,
      "d": 1576.0847499999945,
      "v": 95
    },
    {
      "midi": 59,
      "hit": false,
      "t": 88695.52800000002,
      "d": 1576.0847499999945,
      "v": 95
    },
    {
      "midi": 62,
      "hit": false,
      "t": 88695.52800000002,
      "d": 1603.2586249999877,
      "v": 95
    },
    {
      "midi": 40,
      "hit": false,
      "t": 88695.52800000002,
      "d": 1721.0120833333203,
      "v": 95
    },
    {
      "midi": 62,
      "hit": false,
      "t": 89782.48300000001,
      "d": 652.1729999999952,
      "v": 94
    },
    {
      "midi": 62,
      "hit": false,
      "t": 90434.656,
      "d": 3423.908249999993,
      "v": 95
    },
    {
      "midi": 54,
      "hit": false,
      "t": 90434.656,
      "d": 3442.024166666655,
      "v": 95
    },
    {
      "midi": 59,
      "hit": false,
      "t": 90434.656,
      "d": 3442.024166666655,
      "v": 95
    },
    {
      "midi": 66,
      "hit": false,
      "t": 90434.656,
      "d": 3442.024166666655,
      "v": 95
    },
    {
      "midi": 69,
      "hit": false,
      "t": 90434.656,
      "d": 3442.024166666655,
      "v": 95
    },
    {
      "midi": 47,
      "hit": false,
      "t": 90434.656,
      "d": 3451.0821249999863,
      "v": 95
    },
    {
      "midi": 66,
      "hit": false,
      "t": 90434.656,
      "d": 1585.1427083333401,
      "v": 97
    },
    {
      "midi": 62,
      "hit": false,
      "t": 93695.52100000001,
      "d": 778.984416666659,
      "v": 99
    },
    {
      "midi": 69,
      "hit": false,
      "t": 93912.91199999998,
      "d": 1625.903520833337,
      "v": 94
    },
    {
      "midi": 60,
      "hit": false,
      "t": 93912.91199999998,
      "d": 1630.43250000001,
      "v": 94
    },
    {
      "midi": 65,
      "hit": false,
      "t": 93912.91199999998,
      "d": 1702.8961666666728,
      "v": 94
    },
    {
      "midi": 53,
      "hit": false,
      "t": 93912.91199999998,
      "d": 1734.5990208333387,
      "v": 94
    },
    {
      "midi": 60,
      "hit": false,
      "t": 94347.694,
      "d": 163.04325000000244,
      "v": 61
    },
    {
      "midi": 60,
      "hit": false,
      "t": 94565.085,
      "d": 611.4121874999983,
      "v": 97
    },
    {
      "midi": 59,
      "hit": false,
      "t": 95217.258,
      "d": 271.7387500000041,
      "v": 73
    },
    {
      "midi": 60,
      "hit": false,
      "t": 95434.649,
      "d": 575.1803541666741,
      "v": 95
    },
    {
      "midi": 60,
      "hit": false,
      "t": 95652.04,
      "d": 1625.903520833337,
      "v": 95
    },
    {
      "midi": 64,
      "hit": false,
      "t": 95652.04,
      "d": 1639.490458333341,
      "v": 95
    },
    {
      "midi": 45,
      "hit": false,
      "t": 95652.04,
      "d": 1653.0773958333448,
      "v": 95
    },
    {
      "midi": 69,
      "hit": false,
      "t": 95652.04,
      "d": 1653.0773958333448,
      "v": 95
    },
    {
      "midi": 60,
      "hit": false,
      "t": 96086.82200000001,
      "d": 153.9852916666714,
      "v": 77
    },
    {
      "midi": 60,
      "hit": false,
      "t": 96304.21300000002,
      "d": 471.01383333334525,
      "v": 92
    },
    {
      "midi": 62,
      "hit": false,
      "t": 96738.99500000002,
      "d": 688.4048333333485,
      "v": 92
    },
    {
      "midi": 43,
      "hit": false,
      "t": 97391.168,
      "d": 3478.255999999994,
      "v": 95
    },
    {
      "midi": 55,
      "hit": false,
      "t": 97391.168,
      "d": 3478.255999999994,
      "v": 95
    },
    {
      "midi": 59,
      "hit": false,
      "t": 97391.168,
      "d": 3478.255999999994,
      "v": 95
    },
    {
      "midi": 62,
      "hit": false,
      "t": 97391.168,
      "d": 3478.255999999994,
      "v": 95
    },
    {
      "midi": 67,
      "hit": false,
      "t": 97391.168,
      "d": 3478.255999999994,
      "v": 95
    },
    {
      "midi": 59,
      "hit": false,
      "t": 97391.16800000003,
      "d": 2391.3010000000068,
      "v": 97
    },
    {
      "midi": 57,
      "hit": false,
      "t": 100869.424,
      "d": 733.6946250000037,
      "v": 88
    },
    {
      "midi": 61,
      "hit": false,
      "t": 100869.424,
      "d": 738.2236041666765,
      "v": 99
    },
    {
      "midi": 64,
      "hit": false,
      "t": 100869.424,
      "d": 751.8105416666804,
      "v": 92
    },
    {
      "midi": 45,
      "hit": false,
      "t": 100869.424,
      "d": 1363.2227291666786,
      "v": 110
    },
    {
      "midi": 61,
      "hit": false,
      "t": 100869.42400000004,
      "d": 1118.6578541666677,
      "v": 110
    },
    {
      "midi": 57,
      "hit": false,
      "t": 101738.98800000001,
      "d": 769.9264583333279,
      "v": 97
    },
    {
      "midi": 64,
      "hit": false,
      "t": 101738.98800000001,
      "d": 769.9264583333279,
      "v": 98
    },
    {
      "midi": 61,
      "hit": false,
      "t": 101738.98800000001,
      "d": 788.04237499999,
      "v": 113
    },
    {
      "midi": 59,
      "hit": false,
      "t": 101956.37900000004,
      "d": 199.27508333332662,
      "v": 103
    },
    {
      "midi": 61,
      "hit": false,
      "t": 102173.77000000003,
      "d": 253.622833333342,
      "v": 105
    },
    {
      "midi": 45,
      "hit": false,
      "t": 102391.16100000001,
      "d": 235.5069166666508,
      "v": 94
    },
    {
      "midi": 59,
      "hit": false,
      "t": 102391.16100000004,
      "d": 240.03589583333815,
      "v": 107
    },
    {
      "midi": 64,
      "hit": false,
      "t": 102608.552,
      "d": 747.281562499993,
      "v": 95
    },
    {
      "midi": 57,
      "hit": false,
      "t": 102608.552,
      "d": 751.8105416666658,
      "v": 95
    },
    {
      "midi": 61,
      "hit": false,
      "t": 102608.552,
      "d": 765.3974791666697,
      "v": 98
    },
    {
      "midi": 49,
      "hit": false,
      "t": 102608.552,
      "d": 905.7958333333372,
      "v": 99
    },
    {
      "midi": 61,
      "hit": false,
      "t": 102608.55200000004,
      "d": 461.95587499999965,
      "v": 110
    },
    {
      "midi": 59,
      "hit": false,
      "t": 103043.33400000005,
      "d": 249.09385416665464,
      "v": 111
    },
    {
      "midi": 61,
      "hit": false,
      "t": 103260.72500000003,
      "d": 688.404833333334,
      "v": 110
    },
    {
      "midi": 57,
      "hit": false,
      "t": 103478.116,
      "d": 774.4554375000007,
      "v": 98
    },
    {
      "midi": 64,
      "hit": false,
      "t": 103478.116,
      "d": 774.4554375000007,
      "v": 97
    },
    {
      "midi": 61,
      "hit": false,
      "t": 103478.116,
      "d": 824.2742083333287,
      "v": 107
    },
    {
      "midi": 42,
      "hit": false,
      "t": 103478.116,
      "d": 887.6799166666606,
      "v": 105
    },
    {
      "midi": 59,
      "hit": false,
      "t": 103912.89800000003,
      "d": 262.68079166667303,
      "v": 94
    },
    {
      "midi": 61,
      "hit": false,
      "t": 104130.28900000003,
      "d": 480.0717916666763,
      "v": 107
    },
    {
      "midi": 59,
      "hit": false,
      "t": 104347.68,
      "d": 765.3974791666551,
      "v": 110
    },
    {
      "midi": 55,
      "hit": false,
      "t": 104347.68,
      "d": 769.9264583333279,
      "v": 107
    },
    {
      "midi": 64,
      "hit": false,
      "t": 104347.68,
      "d": 778.984416666659,
      "v": 89
    },
    {
      "midi": 62,
      "hit": false,
      "t": 104347.68,
      "d": 792.5713541666628,
      "v": 107
    },
    {
      "midi": 52,
      "hit": false,
      "t": 104347.68,
      "d": 1476.4472083333385,
      "v": 94
    },
    {
      "midi": 62,
      "hit": false,
      "t": 104565.07100000004,
      "d": 1304.346000000005,
      "v": 105
    },
    {
      "midi": 64,
      "hit": false,
      "t": 105217.24399999999,
      "d": 1598.729645833344,
      "v": 95
    },
    {
      "midi": 55,
      "hit": false,
      "t": 105217.24399999999,
      "d": 1634.9614791666827,
      "v": 107
    },
    {
      "midi": 59,
      "hit": false,
      "t": 105217.24399999999,
      "d": 1639.4904583333555,
      "v": 102
    },
    {
      "midi": 62,
      "hit": false,
      "t": 105217.24399999999,
      "d": 1644.0194375000283,
      "v": 99
    },
    {
      "midi": 52,
      "hit": false,
      "t": 105869.417,
      "d": 135.86937499999476,
      "v": 94
    },
    {
      "midi": 52,
      "hit": false,
      "t": 106086.80799999999,
      "d": 312.49956250000105,
      "v": 115
    },
    {
      "midi": 52,
      "hit": false,
      "t": 106521.59,
      "d": 932.9697083333594,
      "v": 99
    },
    {
      "midi": 55,
      "hit": false,
      "t": 106956.37200000002,
      "d": 317.02854166667385,
      "v": 99
    },
    {
      "midi": 59,
      "hit": false,
      "t": 106956.37200000002,
      "d": 353.2603750000126,
      "v": 107
    },
    {
      "midi": 64,
      "hit": false,
      "t": 106956.37200000002,
      "d": 806.1582916666812,
      "v": 97
    },
    {
      "midi": 62,
      "hit": false,
      "t": 107173.76300000002,
      "d": 484.6007708333491,
      "v": 99
    },
    {
      "midi": 55,
      "hit": false,
      "t": 107391.15400000002,
      "d": 221.91997916667606,
      "v": 89
    },
    {
      "midi": 59,
      "hit": false,
      "t": 107391.15400000002,
      "d": 380.4342500000057,
      "v": 89
    },
    {
      "midi": 52,
      "hit": false,
      "t": 107608.54500000003,
      "d": 253.622833333342,
      "v": 94
    },
    {
      "midi": 57,
      "hit": false,
      "t": 107825.93600000003,
      "d": 760.8685000000114,
      "v": 98
    },
    {
      "midi": 64,
      "hit": false,
      "t": 107825.93600000003,
      "d": 778.9844166666735,
      "v": 105
    },
    {
      "midi": 61,
      "hit": false,
      "t": 107825.93600000003,
      "d": 783.5133958333463,
      "v": 107
    },
    {
      "midi": 61,
      "hit": false,
      "t": 107825.93600000005,
      "d": 1168.4766249999957,
      "v": 110
    },
    {
      "midi": 57,
      "hit": false,
      "t": 108695.50000000004,
      "d": 711.0497291666688,
      "v": 97
    },
    {
      "midi": 61,
      "hit": false,
      "t": 108695.50000000004,
      "d": 711.0497291666688,
      "v": 107
    },
    {
      "midi": 64,
      "hit": false,
      "t": 108695.50000000004,
      "d": 729.1656458333309,
      "v": 102
    },
    {
      "midi": 59,
      "hit": false,
      "t": 108912.89100000005,
      "d": 221.9199791666615,
      "v": 102
    },
    {
      "midi": 61,
      "hit": false,
      "t": 109130.28200000004,
      "d": 276.2677291666769,
      "v": 103
    },
    {
      "midi": 45,
      "hit": false,
      "t": 109347.67300000004,
      "d": 235.50691666666535,
      "v": 89
    },
    {
      "midi": 59,
      "hit": false,
      "t": 109347.67300000004,
      "d": 235.50691666666535,
      "v": 107
    },
    {
      "midi": 61,
      "hit": false,
      "t": 109565.06400000004,
      "d": 788.04237499999,
      "v": 99
    },
    {
      "midi": 57,
      "hit": false,
      "t": 109565.06400000004,
      "d": 792.5713541666628,
      "v": 92
    },
    {
      "midi": 64,
      "hit": false,
      "t": 109565.06400000004,
      "d": 806.1582916666666,
      "v": 97
    },
    {
      "midi": 49,
      "hit": false,
      "t": 109565.06400000004,
      "d": 887.6799166666606,
      "v": 105
    },
    {
      "midi": 61,
      "hit": false,
      "t": 109565.06400000004,
      "d": 439.31097916666477,
      "v": 107
    },
    {
      "midi": 59,
      "hit": false,
      "t": 109999.84600000003,
      "d": 271.7387500000041,
      "v": 108
    },
    {
      "midi": 61,
      "hit": false,
      "t": 110217.23700000004,
      "d": 484.60077083333454,
      "v": 110
    }
  ]
}