{
  "jsonPath": "Unknown/Unknown/Wildlife/the-good-the-bad-and-the-ugly.json",
  "path": "Unknown\\Unknown\\Wildlife\\The Good_ The Bad and the Ugly.mid",
  "name": "The Good_ The Bad and the Ugly",
  "difficulty": "Advanced",
  "bpm": 200,
  "notes": [
    {
      "midi": 26,
      "hit": false,
      "t": 2651.9359999999997,
      "d": 245.85656666666682,
      "v": 39
    },
    {
      "midi": 38,
      "hit": false,
      "t": 2651.9359999999997,
      "d": 245.85656666666682,
      "v": 39
    },
    {
      "midi": 26,
      "hit": false,
      "t": 3314.92,
      "d": 245.85656666666682,
      "v": 40
    },
    {
      "midi": 38,
      "hit": false,
      "t": 3314.92,
      "d": 245.85656666666682,
      "v": 40
    },
    {
      "midi": 26,
      "hit": false,
      "t": 3646.4120000000003,
      "d": 245.85656666666682,
      "v": 41
    },
    {
      "midi": 38,
      "hit": false,
      "t": 3646.4120000000003,
      "d": 245.85656666666682,
      "v": 41
    },
    {
      "midi": 26,
      "hit": false,
      "t": 3977.9040000000005,
      "d": 245.85656666666637,
      "v": 42
    },
    {
      "midi": 38,
      "hit": false,
      "t": 3977.9040000000005,
      "d": 245.85656666666637,
      "v": 42
    },
    {
      "midi": 26,
      "hit": false,
      "t": 4640.888,
      "d": 162.98356666666677,
      "v": 43
    },
    {
      "midi": 38,
      "hit": false,
      "t": 4640.888,
      "d": 245.85656666666637,
      "v": 43
    },
    {
      "midi": 26,
      "hit": false,
      "t": 4972.379999999999,
      "d": 245.85656666666637,
      "v": 44
    },
    {
      "midi": 38,
      "hit": false,
      "t": 4972.379999999999,
      "d": 245.85656666666637,
      "v": 44
    },
    {
      "midi": 26,
      "hit": false,
      "t": 5303.8719999999985,
      "d": 245.85656666666637,
      "v": 45
    },
    {
      "midi": 38,
      "hit": false,
      "t": 5303.8719999999985,
      "d": 245.85656666666637,
      "v": 45
    },
    {
      "midi": 26,
      "hit": false,
      "t": 5966.855999999998,
      "d": 245.85656666666637,
      "v": 46
    },
    {
      "midi": 38,
      "hit": false,
      "t": 5966.855999999998,
      "d": 245.85656666666637,
      "v": 46
    },
    {
      "midi": 26,
      "hit": false,
      "t": 6298.347999999997,
      "d": 245.85656666666637,
      "v": 47
    },
    {
      "midi": 38,
      "hit": false,
      "t": 6298.347999999997,
      "d": 245.85656666666637,
      "v": 47
    },
    {
      "midi": 26,
      "hit": false,
      "t": 6629.8399999999965,
      "d": 245.85656666666637,
      "v": 48
    },
    {
      "midi": 38,
      "hit": false,
      "t": 6629.8399999999965,
      "d": 245.85656666666637,
      "v": 48
    },
    {
      "midi": 26,
      "hit": false,
      "t": 7292.823999999996,
      "d": 245.85656666666637,
      "v": 49
    },
    {
      "midi": 38,
      "hit": false,
      "t": 7292.823999999996,
      "d": 245.85656666666637,
      "v": 49
    },
    {
      "midi": 26,
      "hit": false,
      "t": 7624.315999999995,
      "d": 245.85656666666637,
      "v": 50
    },
    {
      "midi": 38,
      "hit": false,
      "t": 7624.315999999995,
      "d": 245.85656666666637,
      "v": 50
    },
    {
      "midi": 26,
      "hit": false,
      "t": 7955.8079999999945,
      "d": 245.85656666666637,
      "v": 58
    },
    {
      "midi": 38,
      "hit": false,
      "t": 7955.8079999999945,
      "d": 245.85656666666637,
      "v": 58
    },
    {
      "midi": 26,
      "hit": false,
      "t": 8618.791999999994,
      "d": 245.85656666666728,
      "v": 58
    },
    {
      "midi": 38,
      "hit": false,
      "t": 8618.791999999994,
      "d": 245.85656666666728,
      "v": 58
    },
    {
      "midi": 26,
      "hit": false,
      "t": 9281.775999999994,
      "d": 245.85656666666728,
      "v": 58
    },
    {
      "midi": 38,
      "hit": false,
      "t": 9281.775999999994,
      "d": 245.85656666666728,
      "v": 58
    },
    {
      "midi": 26,
      "hit": false,
      "t": 9944.759999999995,
      "d": 245.85656666666728,
      "v": 58
    },
    {
      "midi": 38,
      "hit": false,
      "t": 9944.759999999995,
      "d": 245.85656666666728,
      "v": 58
    },
    {
      "midi": 26,
      "hit": false,
      "t": 10276.251999999995,
      "d": 245.85656666666728,
      "v": 58
    },
    {
      "midi": 38,
      "hit": false,
      "t": 10276.251999999995,
      "d": 245.85656666666728,
      "v": 58
    },
    {
      "midi": 31,
      "hit": false,
      "t": 10607.743999999995,
      "d": 245.85656666666728,
      "v": 58
    },
    {
      "midi": 43,
      "hit": false,
      "t": 10607.743999999995,
      "d": 245.85656666666728,
      "v": 58
    },
    {
      "midi": 31,
      "hit": false,
      "t": 11270.727999999996,
      "d": 245.85656666666728,
      "v": 58
    },
    {
      "midi": 43,
      "hit": false,
      "t": 11270.727999999996,
      "d": 245.85656666666728,
      "v": 58
    },
    {
      "midi": 31,
      "hit": false,
      "t": 11933.711999999996,
      "d": 245.85656666666728,
      "v": 58
    },
    {
      "midi": 43,
      "hit": false,
      "t": 11933.711999999996,
      "d": 245.85656666666728,
      "v": 58
    },
    {
      "midi": 31,
      "hit": false,
      "t": 12596.695999999996,
      "d": 245.85656666666728,
      "v": 58
    },
    {
      "midi": 43,
      "hit": false,
      "t": 12596.695999999996,
      "d": 245.85656666666728,
      "v": 58
    },
    {
      "midi": 31,
      "hit": false,
      "t": 12928.187999999996,
      "d": 245.85656666666728,
      "v": 58
    },
    {
      "midi": 43,
      "hit": false,
      "t": 12928.187999999996,
      "d": 245.85656666666728,
      "v": 58
    },
    {
      "midi": 26,
      "hit": false,
      "t": 13259.679999999997,
      "d": 245.85656666666728,
      "v": 58
    },
    {
      "midi": 38,
      "hit": false,
      "t": 13259.679999999997,
      "d": 245.85656666666728,
      "v": 58
    },
    {
      "midi": 26,
      "hit": false,
      "t": 13922.663999999997,
      "d": 245.85656666666728,
      "v": 58
    },
    {
      "midi": 38,
      "hit": false,
      "t": 13922.663999999997,
      "d": 245.85656666666728,
      "v": 58
    },
    {
      "midi": 26,
      "hit": false,
      "t": 14585.647999999997,
      "d": 245.85656666666728,
      "v": 58
    },
    {
      "midi": 38,
      "hit": false,
      "t": 14585.647999999997,
      "d": 245.85656666666728,
      "v": 58
    },
    {
      "midi": 26,
      "hit": false,
      "t": 15248.631999999998,
      "d": 245.85656666666728,
      "v": 58
    },
    {
      "midi": 38,
      "hit": false,
      "t": 15248.631999999998,
      "d": 245.85656666666728,
      "v": 58
    },
    {
      "midi": 26,
      "hit": false,
      "t": 15580.123999999998,
      "d": 245.85656666666728,
      "v": 58
    },
    {
      "midi": 38,
      "hit": false,
      "t": 15580.123999999998,
      "d": 245.85656666666728,
      "v": 58
    },
    {
      "midi": 24,
      "hit": false,
      "t": 15911.615999999998,
      "d": 245.85656666666728,
      "v": 58
    },
    {
      "midi": 36,
      "hit": false,
      "t": 15911.615999999998,
      "d": 245.85656666666728,
      "v": 58
    },
    {
      "midi": 24,
      "hit": false,
      "t": 16574.6,
      "d": 245.85656666666546,
      "v": 58
    },
    {
      "midi": 36,
      "hit": false,
      "t": 16574.6,
      "d": 245.85656666666546,
      "v": 58
    },
    {
      "midi": 24,
      "hit": false,
      "t": 17237.584,
      "d": 245.85656666666546,
      "v": 58
    },
    {
      "midi": 36,
      "hit": false,
      "t": 17237.584,
      "d": 245.85656666666546,
      "v": 58
    },
    {
      "midi": 24,
      "hit": false,
      "t": 17900.568,
      "d": 245.85656666666546,
      "v": 58
    },
    {
      "midi": 36,
      "hit": false,
      "t": 17900.568,
      "d": 245.85656666666546,
      "v": 58
    },
    {
      "midi": 24,
      "hit": false,
      "t": 18232.059999999998,
      "d": 245.85656666666546,
      "v": 58
    },
    {
      "midi": 36,
      "hit": false,
      "t": 18232.059999999998,
      "d": 245.85656666666546,
      "v": 58
    },
    {
      "midi": 26,
      "hit": false,
      "t": 18563.551999999996,
      "d": 245.85656666666546,
      "v": 58
    },
    {
      "midi": 38,
      "hit": false,
      "t": 18563.551999999996,
      "d": 245.85656666666546,
      "v": 58
    },
    {
      "midi": 26,
      "hit": false,
      "t": 19226.535999999996,
      "d": 245.85656666666546,
      "v": 59
    },
    {
      "midi": 38,
      "hit": false,
      "t": 19226.535999999996,
      "d": 245.85656666666546,
      "v": 59
    },
    {
      "midi": 26,
      "hit": false,
      "t": 19889.519999999997,
      "d": 245.85656666666546,
      "v": 60
    },
    {
      "midi": 38,
      "hit": false,
      "t": 19889.519999999997,
      "d": 245.85656666666546,
      "v": 60
    },
    {
      "midi": 26,
      "hit": false,
      "t": 20552.503999999997,
      "d": 245.85656666666546,
      "v": 60
    },
    {
      "midi": 38,
      "hit": false,
      "t": 20552.503999999997,
      "d": 245.85656666666546,
      "v": 60
    },
    {
      "midi": 26,
      "hit": false,
      "t": 20883.995999999996,
      "d": 245.85656666666546,
      "v": 60
    },
    {
      "midi": 38,
      "hit": false,
      "t": 20883.995999999996,
      "d": 245.85656666666546,
      "v": 60
    },
    {
      "midi": 33,
      "hit": false,
      "t": 21215.487999999994,
      "d": 245.85656666666546,
      "v": 60
    },
    {
      "midi": 45,
      "hit": false,
      "t": 21215.487999999994,
      "d": 245.85656666666546,
      "v": 60
    },
    {
      "midi": 33,
      "hit": false,
      "t": 21878.471999999994,
      "d": 245.85656666666546,
      "v": 60
    },
    {
      "midi": 45,
      "hit": false,
      "t": 21878.471999999994,
      "d": 245.85656666666546,
      "v": 60
    },
    {
      "midi": 33,
      "hit": false,
      "t": 22541.455999999995,
      "d": 245.85656666666546,
      "v": 60
    },
    {
      "midi": 45,
      "hit": false,
      "t": 22541.455999999995,
      "d": 245.85656666666546,
      "v": 60
    },
    {
      "midi": 33,
      "hit": false,
      "t": 23204.439999999995,
      "d": 245.85656666666546,
      "v": 60
    },
    {
      "midi": 45,
      "hit": false,
      "t": 23204.439999999995,
      "d": 245.85656666666546,
      "v": 60
    },
    {
      "midi": 33,
      "hit": false,
      "t": 23535.931999999993,
      "d": 245.85656666666546,
      "v": 60
    },
    {
      "midi": 45,
      "hit": false,
      "t": 23535.931999999993,
      "d": 245.85656666666546,
      "v": 60
    },
    {
      "midi": 26,
      "hit": false,
      "t": 23867.42399999999,
      "d": 245.85656666666546,
      "v": 60
    },
    {
      "midi": 38,
      "hit": false,
      "t": 23867.42399999999,
      "d": 245.85656666666546,
      "v": 60
    },
    {
      "midi": 26,
      "hit": false,
      "t": 24530.407999999992,
      "d": 245.85656666666546,
      "v": 60
    },
    {
      "midi": 38,
      "hit": false,
      "t": 24530.407999999992,
      "d": 245.85656666666546,
      "v": 60
    },
    {
      "midi": 31,
      "hit": false,
      "t": 25193.391999999993,
      "d": 245.85656666666546,
      "v": 60
    },
    {
      "midi": 43,
      "hit": false,
      "t": 25193.391999999993,
      "d": 245.85656666666546,
      "v": 60
    },
    {
      "midi": 31,
      "hit": false,
      "t": 25856.375999999993,
      "d": 245.85656666666546,
      "v": 60
    },
    {
      "midi": 43,
      "hit": false,
      "t": 25856.375999999993,
      "d": 245.85656666666546,
      "v": 60
    },
    {
      "midi": 31,
      "hit": false,
      "t": 26187.86799999999,
      "d": 245.85656666666546,
      "v": 60
    },
    {
      "midi": 43,
      "hit": false,
      "t": 26187.86799999999,
      "d": 245.85656666666546,
      "v": 60
    },
    {
      "midi": 26,
      "hit": false,
      "t": 26519.35999999999,
      "d": 245.85656666666546,
      "v": 60
    },
    {
      "midi": 38,
      "hit": false,
      "t": 26519.35999999999,
      "d": 245.85656666666546,
      "v": 60
    },
    {
      "midi": 26,
      "hit": false,
      "t": 27182.34399999999,
      "d": 245.85656666666546,
      "v": 60
    },
    {
      "midi": 38,
      "hit": false,
      "t": 27182.34399999999,
      "d": 245.85656666666546,
      "v": 60
    },
    {
      "midi": 26,
      "hit": false,
      "t": 27845.32799999999,
      "d": 245.85656666666546,
      "v": 60
    },
    {
      "midi": 38,
      "hit": false,
      "t": 27845.32799999999,
      "d": 245.85656666666546,
      "v": 60
    },
    {
      "midi": 26,
      "hit": false,
      "t": 28508.31199999999,
      "d": 245.85656666666546,
      "v": 60
    },
    {
      "midi": 38,
      "hit": false,
      "t": 28508.31199999999,
      "d": 245.85656666666546,
      "v": 60
    },
    {
      "midi": 26,
      "hit": false,
      "t": 28839.80399999999,
      "d": 245.85656666666546,
      "v": 60
    },
    {
      "midi": 38,
      "hit": false,
      "t": 28839.80399999999,
      "d": 245.85656666666546,
      "v": 60
    },
    {
      "midi": 26,
      "hit": false,
      "t": 29171.295999999988,
      "d": 245.85656666666546,
      "v": 60
    },
    {
      "midi": 38,
      "hit": false,
      "t": 29171.295999999988,
      "d": 245.85656666666546,
      "v": 60
    },
    {
      "midi": 26,
      "hit": false,
      "t": 29834.279999999988,
      "d": 245.85656666666546,
      "v": 60
    },
    {
      "midi": 38,
      "hit": false,
      "t": 29834.279999999988,
      "d": 245.85656666666546,
      "v": 60
    },
    {
      "midi": 26,
      "hit": false,
      "t": 30497.26399999999,
      "d": 245.85656666666546,
      "v": 60
    },
    {
      "midi": 38,
      "hit": false,
      "t": 30497.26399999999,
      "d": 245.85656666666546,
      "v": 60
    },
    {
      "midi": 26,
      "hit": false,
      "t": 31160.24799999999,
      "d": 245.85656666666546,
      "v": 60
    },
    {
      "midi": 38,
      "hit": false,
      "t": 31160.24799999999,
      "d": 245.85656666666546,
      "v": 60
    },
    {
      "midi": 33,
      "hit": false,
      "t": 31491.739999999987,
      "d": 245.85656666666546,
      "v": 60
    },
    {
      "midi": 26,
      "hit": false,
      "t": 55690.65599999999,
      "d": 165.74599999999919,
      "v": 75
    },
    {
      "midi": 38,
      "hit": false,
      "t": 55690.65599999999,
      "d": 165.74599999999919,
      "v": 75
    },
    {
      "midi": 26,
      "hit": false,
      "t": 56353.639999999985,
      "d": 165.74599999999919,
      "v": 70
    },
    {
      "midi": 38,
      "hit": false,
      "t": 56353.639999999985,
      "d": 165.74599999999919,
      "v": 70
    },
    {
      "midi": 33,
      "hit": false,
      "t": 57016.62399999998,
      "d": 165.74599999999919,
      "v": 70
    },
    {
      "midi": 45,
      "hit": false,
      "t": 57016.62399999998,
      "d": 165.74599999999919,
      "v": 70
    },
    {
      "midi": 33,
      "hit": false,
      "t": 57679.60799999998,
      "d": 165.74599999999919,
      "v": 70
    },
    {
      "midi": 45,
      "hit": false,
      "t": 57679.60799999998,
      "d": 165.74599999999919,
      "v": 70
    },
    {
      "midi": 33,
      "hit": false,
      "t": 58011.09999999998,
      "d": 165.74599999999919,
      "v": 70
    },
    {
      "midi": 45,
      "hit": false,
      "t": 58011.09999999998,
      "d": 165.74599999999919,
      "v": 70
    },
    {
      "midi": 33,
      "hit": false,
      "t": 58342.591999999975,
      "d": 165.74599999999919,
      "v": 70
    },
    {
      "midi": 45,
      "hit": false,
      "t": 58342.591999999975,
      "d": 165.74599999999919,
      "v": 70
    },
    {
      "midi": 33,
      "hit": false,
      "t": 59005.57599999997,
      "d": 165.74599999999919,
      "v": 70
    },
    {
      "midi": 45,
      "hit": false,
      "t": 59005.57599999997,
      "d": 165.74599999999919,
      "v": 70
    },
    {
      "midi": 33,
      "hit": false,
      "t": 59668.55999999997,
      "d": 165.74599999999919,
      "v": 70
    },
    {
      "midi": 45,
      "hit": false,
      "t": 59668.55999999997,
      "d": 165.74599999999919,
      "v": 70
    },
    {
      "midi": 33,
      "hit": false,
      "t": 60331.543999999965,
      "d": 165.74599999999919,
      "v": 70
    },
    {
      "midi": 45,
      "hit": false,
      "t": 60331.543999999965,
      "d": 165.74599999999919,
      "v": 70
    },
    {
      "midi": 33,
      "hit": false,
      "t": 60663.035999999964,
      "d": 165.74599999999919,
      "v": 70
    },
    {
      "midi": 45,
      "hit": false,
      "t": 60663.035999999964,
      "d": 165.74599999999919,
      "v": 70
    },
    {
      "midi": 34,
      "hit": false,
      "t": 60994.52799999996,
      "d": 165.74599999999919,
      "v": 70
    },
    {
      "midi": 46,
      "hit": false,
      "t": 60994.52799999996,
      "d": 165.74599999999919,
      "v": 70
    },
    {
      "midi": 34,
      "hit": false,
      "t": 61657.51199999996,
      "d": 165.74599999999919,
      "v": 70
    },
    {
      "midi": 46,
      "hit": false,
      "t": 61657.51199999996,
      "d": 165.74599999999919,
      "v": 70
    },
    {
      "midi": 29,
      "hit": false,
      "t": 62320.495999999956,
      "d": 165.74599999999919,
      "v": 70
    },
    {
      "midi": 41,
      "hit": false,
      "t": 62320.495999999956,
      "d": 165.74599999999919,
      "v": 70
    },
    {
      "midi": 29,
      "hit": false,
      "t": 62983.47999999995,
      "d": 165.74599999999919,
      "v": 70
    },
    {
      "midi": 41,
      "hit": false,
      "t": 62983.47999999995,
      "d": 165.74599999999919,
      "v": 70
    },
    {
      "midi": 29,
      "hit": false,
      "t": 63314.97199999995,
      "d": 165.74599999999919,
      "v": 70
    },
    {
      "midi": 41,
      "hit": false,
      "t": 63314.97199999995,
      "d": 165.74599999999919,
      "v": 70
    },
    {
      "midi": 29,
      "hit": false,
      "t": 63646.46399999995,
      "d": 165.74599999999919,
      "v": 70
    },
    {
      "midi": 41,
      "hit": false,
      "t": 63646.46399999995,
      "d": 165.74599999999919,
      "v": 70
    },
    {
      "midi": 29,
      "hit": false,
      "t": 64309.447999999946,
      "d": 165.74599999999919,
      "v": 70
    },
    {
      "midi": 41,
      "hit": false,
      "t": 64309.447999999946,
      "d": 165.74599999999919,
      "v": 70
    },
    {
      "midi": 29,
      "hit": false,
      "t": 64972.43199999994,
      "d": 165.74599999999919,
      "v": 70
    },
    {
      "midi": 41,
      "hit": false,
      "t": 64972.43199999994,
      "d": 165.74599999999919,
      "v": 70
    },
    {
      "midi": 29,
      "hit": false,
      "t": 65635.41599999994,
      "d": 165.74599999999919,
      "v": 70
    },
    {
      "midi": 41,
      "hit": false,
      "t": 65635.41599999994,
      "d": 165.74599999999919,
      "v": 70
    },
    {
      "midi": 29,
      "hit": false,
      "t": 65966.90799999994,
      "d": 165.74599999999919,
      "v": 70
    },
    {
      "midi": 41,
      "hit": false,
      "t": 65966.90799999994,
      "d": 165.74599999999919,
      "v": 70
    },
    {
      "midi": 26,
      "hit": false,
      "t": 66298.39999999994,
      "d": 165.74599999999919,
      "v": 70
    },
    {
      "midi": 38,
      "hit": false,
      "t": 66298.39999999994,
      "d": 165.74599999999919,
      "v": 70
    },
    {
      "midi": 26,
      "hit": false,
      "t": 66961.38399999993,
      "d": 165.74599999999919,
      "v": 70
    },
    {
      "midi": 38,
      "hit": false,
      "t": 66961.38399999993,
      "d": 165.74599999999919,
      "v": 70
    },
    {
      "midi": 33,
      "hit": false,
      "t": 67624.36799999993,
      "d": 165.74599999999919,
      "v": 70
    },
    {
      "midi": 45,
      "hit": false,
      "t": 67624.36799999993,
      "d": 165.74599999999919,
      "v": 70
    },
    {
      "midi": 33,
      "hit": false,
      "t": 68287.35199999993,
      "d": 165.74599999999919,
      "v": 70
    },
    {
      "midi": 45,
      "hit": false,
      "t": 68287.35199999993,
      "d": 165.74599999999919,
      "v": 70
    },
    {
      "midi": 36,
      "hit": false,
      "t": 68950.33599999992,
      "d": 165.74599999999919,
      "v": 70
    },
    {
      "midi": 48,
      "hit": false,
      "t": 68950.33599999992,
      "d": 165.74599999999919,
      "v": 70
    },
    {
      "midi": 36,
      "hit": false,
      "t": 69613.31999999992,
      "d": 165.74599999999919,
      "v": 70
    },
    {
      "midi": 48,
      "hit": false,
      "t": 69613.31999999992,
      "d": 165.74599999999919,
      "v": 70
    },
    {
      "midi": 36,
      "hit": false,
      "t": 70276.30399999992,
      "d": 165.74599999999919,
      "v": 70
    },
    {
      "midi": 48,
      "hit": false,
      "t": 70276.30399999992,
      "d": 165.74599999999919,
      "v": 70
    },
    {
      "midi": 36,
      "hit": false,
      "t": 70939.28799999991,
      "d": 165.74599999999919,
      "v": 70
    },
    {
      "midi": 48,
      "hit": false,
      "t": 70939.28799999991,
      "d": 165.74599999999919,
      "v": 70
    },
    {
      "midi": 36,
      "hit": false,
      "t": 71270.77999999991,
      "d": 165.74599999999919,
      "v": 70
    },
    {
      "midi": 48,
      "hit": false,
      "t": 71270.77999999991,
      "d": 165.74599999999919,
      "v": 70
    },
    {
      "midi": 33,
      "hit": false,
      "t": 71602.27199999991,
      "d": 165.74599999999919,
      "v": 70
    },
    {
      "midi": 45,
      "hit": false,
      "t": 71602.27199999991,
      "d": 165.74599999999919,
      "v": 70
    },
    {
      "midi": 33,
      "hit": false,
      "t": 72265.2559999999,
      "d": 165.74599999999919,
      "v": 74
    },
    {
      "midi": 45,
      "hit": false,
      "t": 72265.2559999999,
      "d": 165.74599999999919,
      "v": 74
    },
    {
      "midi": 33,
      "hit": false,
      "t": 72928.2399999999,
      "d": 165.74599999999919,
      "v": 74
    },
    {
      "midi": 45,
      "hit": false,
      "t": 72928.2399999999,
      "d": 165.74599999999919,
      "v": 74
    },
    {
      "midi": 33,
      "hit": false,
      "t": 73591.2239999999,
      "d": 165.74599999999919,
      "v": 74
    },
    {
      "midi": 45,
      "hit": false,
      "t": 73591.2239999999,
      "d": 165.74599999999919,
      "v": 74
    },
    {
      "midi": 58,
      "hit": false,
      "t": 82182.39166666656,
      "d": 723.757533333337,
      "v": 79
    },
    {
      "midi": 62,
      "hit": false,
      "t": 82198.96626666657,
      "d": 748.619433333326,
      "v": 79
    },
    {
      "midi": 60,
      "hit": false,
      "t": 82859.18783333323,
      "d": 767.9564666666702,
      "v": 79
    },
    {
      "midi": 57,
      "hit": false,
      "t": 82861.95026666656,
      "d": 734.8072666666703,
      "v": 79
    },
    {
      "midi": 55,
      "hit": false,
      "t": 83535.9839999999,
      "d": 707.1829333333444,
      "v": 79
    },
    {
      "midi": 59,
      "hit": false,
      "t": 83547.03373333323,
      "d": 715.4702333333407,
      "v": 79
    },
    {
      "midi": 53,
      "hit": false,
      "t": 84193.44313333323,
      "d": 715.4702333333407,
      "v": 79
    },
    {
      "midi": 57,
      "hit": false,
      "t": 84196.20556666657,
      "d": 737.5697000000073,
      "v": 79
    },
    {
      "midi": 52,
      "hit": false,
      "t": 84856.42713333323,
      "d": 690.6083333333518,
      "v": 79
    },
    {
      "midi": 55,
      "hit": false,
      "t": 84861.9519999999,
      "d": 685.0834666666779,
      "v": 79
    },
    {
      "midi": 57,
      "hit": false,
      "t": 85491.78679999991,
      "d": 704.4204999999929,
      "v": 79
    },
    {
      "midi": 53,
      "hit": false,
      "t": 85502.83653333325,
      "d": 732.0448333333334,
      "v": 79
    },
    {
      "midi": 52,
      "hit": false,
      "t": 86176.87026666658,
      "d": 193.37033333333966,
      "v": 75
    },
    {
      "midi": 50,
      "hit": false,
      "t": 86342.61626666658,
      "d": 185.08303333334334,
      "v": 73
    },
    {
      "midi": 48,
      "hit": false,
      "t": 86491.78766666658,
      "d": 381.2158000000054,
      "v": 71
    },
    {
      "midi": 50,
      "hit": false,
      "t": 86834.32939999992,
      "d": 361.8787666666758,
      "v": 67
    },
    {
      "midi": 46,
      "hit": false,
      "t": 87171.34626666659,
      "d": 392.2655333333387,
      "v": 63
    },
    {
      "midi": 51,
      "hit": false,
      "t": 87558.08693333325,
      "d": 859.1167666666734,
      "v": 39
    },
    {
      "midi": 44,
      "hit": false,
      "t": 87569.1366666666,
      "d": 848.0670333333255,
      "v": 39
    },
    {
      "midi": 51,
      "hit": false,
      "t": 88812.23166666659,
      "d": 812.1554000000033,
      "v": 39
    },
    {
      "midi": 44,
      "hit": false,
      "t": 88817.75653333326,
      "d": 820.4426999999996,
      "v": 39
    },
    {
      "midi": 51,
      "hit": false,
      "t": 90118.86263333326,
      "d": 770.7188999999926,
      "v": 39
    },
    {
      "midi": 44,
      "hit": false,
      "t": 90129.9123666666,
      "d": 773.4813333333295,
      "v": 39
    },
    {
      "midi": 51,
      "hit": false,
      "t": 91433.78089999993,
      "d": 762.4315999999963,
      "v": 39
    },
    {
      "midi": 44,
      "hit": false,
      "t": 91450.35549999993,
      "d": 715.4702333333262,
      "v": 39
    },
    {
      "midi": 52,
      "hit": false,
      "t": 92779.08593333325,
      "d": 845.3046000000031,
      "v": 39
    },
    {
      "midi": 45,
      "hit": false,
      "t": 92781.84836666659,
      "d": 845.3046000000031,
      "v": 39
    },
    {
      "midi": 52,
      "hit": false,
      "t": 94143.72799999992,
      "d": 734.8072666666703,
      "v": 39
    },
    {
      "midi": 45,
      "hit": false,
      "t": 94149.25286666659,
      "d": 745.8570000000036,
      "v": 39
    },
    {
      "midi": 52,
      "hit": false,
      "t": 95458.64626666659,
      "d": 745.8570000000036,
      "v": 39
    },
    {
      "midi": 45,
      "hit": false,
      "t": 95458.64626666659,
      "d": 748.6194333333406,
      "v": 39
    },
    {
      "midi": 52,
      "hit": false,
      "t": 96759.7523666666,
      "d": 828.7300000000105,
      "v": 39
    },
    {
      "midi": 45,
      "hit": false,
      "t": 96773.56453333326,
      "d": 812.1554000000033,
      "v": 39
    },
    {
      "midi": 57,
      "hit": false,
      "t": 102734.89566666668,
      "d": 328.72956666667596,
      "v": 61
    },
    {
      "midi": 62,
      "hit": false,
      "t": 102748.70783333335,
      "d": 328.72956666667596,
      "v": 61
    },
    {
      "midi": 65,
      "hit": false,
      "t": 102762.52000000002,
      "d": 411.6025666666683,
      "v": 61
    },
    {
      "midi": 59,
      "hit": false,
      "t": 103422.7415666667,
      "d": 411.6025666666683,
      "v": 58
    },
    {
      "midi": 67,
      "hit": false,
      "t": 103422.7415666667,
      "d": 411.6025666666683,
      "v": 58
    },
    {
      "midi": 62,
      "hit": false,
      "t": 103431.02886666669,
      "d": 411.6025666666683,
      "v": 58
    },
    {
      "midi": 55,
      "hit": false,
      "t": 104082.96313333335,
      "d": 1906.078999999998,
      "v": 50
    },
    {
      "midi": 62,
      "hit": false,
      "t": 104088.48800000003,
      "d": 1906.078999999998,
      "v": 50
    },
    {
      "midi": 59,
      "hit": false,
      "t": 104096.77530000002,
      "d": 1906.078999999998,
      "v": 50
    },
    {
      "midi": 57,
      "hit": false,
      "t": 108066.39200000002,
      "d": 165.74599999999919,
      "v": 58
    },
    {
      "midi": 62,
      "hit": false,
      "t": 108066.39200000002,
      "d": 248.61900000000605,
      "v": 58
    },
    {
      "midi": 65,
      "hit": false,
      "t": 108066.39200000002,
      "d": 248.61900000000605,
      "v": 58
    },
    {
      "midi": 60,
      "hit": false,
      "t": 108729.37600000003,
      "d": 165.74599999999919,
      "v": 58
    },
    {
      "midi": 64,
      "hit": false,
      "t": 108729.37600000003,
      "d": 248.61900000000605,
      "v": 58
    },
    {
      "midi": 67,
      "hit": false,
      "t": 108729.37600000003,
      "d": 248.61900000000605,
      "v": 58
    },
    {
      "midi": 64,
      "hit": false,
      "t": 109392.36000000004,
      "d": 1988.9520000000048,
      "v": 58
    },
    {
      "midi": 67,
      "hit": false,
      "t": 109392.36000000004,
      "d": 1988.9520000000048,
      "v": 58
    },
    {
      "midi": 72,
      "hit": false,
      "t": 109392.36000000004,
      "d": 1988.9520000000048,
      "v": 58
    },
    {
      "midi": 69,
      "hit": false,
      "t": 113370.26400000005,
      "d": 660.2215666666598,
      "v": 68
    },
    {
      "midi": 77,
      "hit": false,
      "t": 113370.26400000005,
      "d": 660.2215666666598,
      "v": 68
    },
    {
      "midi": 67,
      "hit": false,
      "t": 114033.24800000005,
      "d": 328.7295666666614,
      "v": 68
    },
    {
      "midi": 76,
      "hit": false,
      "t": 114033.24800000005,
      "d": 328.7295666666614,
      "v": 68
    },
    {
      "midi": 65,
      "hit": false,
      "t": 114364.74000000005,
      "d": 328.7295666666614,
      "v": 68
    },
    {
      "midi": 74,
      "hit": false,
      "t": 114364.74000000005,
      "d": 328.7295666666614,
      "v": 68
    },
    {
      "midi": 64,
      "hit": false,
      "t": 114696.23200000005,
      "d": 1906.0790000000125,
      "v": 55
    },
    {
      "midi": 72,
      "hit": false,
      "t": 114696.23200000005,
      "d": 1906.0790000000125,
      "v": 55
    },
    {
      "midi": 59,
      "hit": false,
      "t": 118334.35670000006,
      "d": 577.348566666682,
      "v": 61
    },
    {
      "midi": 67,
      "hit": false,
      "t": 118339.88156666674,
      "d": 577.348566666682,
      "v": 61
    },
    {
      "midi": 62,
      "hit": false,
      "t": 118350.93130000007,
      "d": 577.348566666682,
      "v": 61
    },
    {
      "midi": 55,
      "hit": false,
      "t": 119005.62800000008,
      "d": 245.8565666666691,
      "v": 55
    },
    {
      "midi": 59,
      "hit": false,
      "t": 119005.62800000008,
      "d": 245.8565666666691,
      "v": 55
    },
    {
      "midi": 62,
      "hit": false,
      "t": 119005.62800000008,
      "d": 245.8565666666691,
      "v": 55
    },
    {
      "midi": 62,
      "hit": false,
      "t": 119337.12000000008,
      "d": 1654.6975666666694,
      "v": 53
    },
    {
      "midi": 57,
      "hit": false,
      "t": 119342.64486666676,
      "d": 1654.6975666666694,
      "v": 53
    },
    {
      "midi": 53,
      "hit": false,
      "t": 119350.93216666675,
      "d": 1654.6975666666694,
      "v": 53
    },
    {
      "midi": 62,
      "hit": false,
      "t": 120994.58000000009,
      "d": 193.37033333333966,
      "v": 41
    },
    {
      "midi": 65,
      "hit": false,
      "t": 121160.32600000009,
      "d": 162.98356666667678,
      "v": 41
    },
    {
      "midi": 65,
      "hit": false,
      "t": 121326.0720000001,
      "d": 165.74599999999919,
      "v": 41
    },
    {
      "midi": 62,
      "hit": false,
      "t": 121491.8180000001,
      "d": 162.98356666666223,
      "v": 41
    },
    {
      "midi": 62,
      "hit": false,
      "t": 121657.5640000001,
      "d": 165.74599999999919,
      "v": 41
    },
    {
      "midi": 65,
      "hit": false,
      "t": 121823.3100000001,
      "d": 165.74599999999919,
      "v": 41
    },
    {
      "midi": 67,
      "hit": false,
      "t": 121989.0560000001,
      "d": 165.74599999999919,
      "v": 41
    },
    {
      "midi": 59,
      "hit": false,
      "t": 121989.0560000001,
      "d": 248.61900000000605,
      "v": 41
    },
    {
      "midi": 62,
      "hit": false,
      "t": 121989.0560000001,
      "d": 248.61900000000605,
      "v": 41
    },
    {
      "midi": 43,
      "hit": false,
      "t": 121989.0560000001,
      "d": 497.2380000000121,
      "v": 41
    },
    {
      "midi": 55,
      "hit": false,
      "t": 122486.29400000011,
      "d": 82.87300000000687,
      "v": 38
    },
    {
      "midi": 59,
      "hit": false,
      "t": 122486.29400000011,
      "d": 82.87300000000687,
      "v": 38
    },
    {
      "midi": 62,
      "hit": false,
      "t": 122486.29400000011,
      "d": 82.87300000000687,
      "v": 38
    },
    {
      "midi": 55,
      "hit": false,
      "t": 122652.04000000012,
      "d": 82.87300000000687,
      "v": 38
    },
    {
      "midi": 62,
      "hit": false,
      "t": 122652.04000000012,
      "d": 165.74600000001374,
      "v": 38
    },
    {
      "midi": 59,
      "hit": false,
      "t": 122652.04000000012,
      "d": 248.6190000000206,
      "v": 38
    },
    {
      "midi": 43,
      "hit": false,
      "t": 122983.53200000015,
      "d": 82.87300000000687,
      "v": 29
    },
    {
      "midi": 43,
      "hit": false,
      "t": 123315.02400000016,
      "d": 82.87300000000687,
      "v": 29
    },
    {
      "midi": 67,
      "hit": false,
      "t": 123646.51600000018,
      "d": 165.74599999999919,
      "v": 49
    },
    {
      "midi": 71,
      "hit": false,
      "t": 123812.26200000018,
      "d": 82.87300000000687,
      "v": 49
    },
    {
      "midi": 71,
      "hit": false,
      "t": 123978.00800000019,
      "d": 165.74599999999919,
      "v": 49
    },
    {
      "midi": 67,
      "hit": false,
      "t": 124143.75400000019,
      "d": 82.87300000000687,
      "v": 49
    },
    {
      "midi": 67,
      "hit": false,
      "t": 124309.5000000002,
      "d": 248.61900000000605,
      "v": 49
    },
    {
      "midi": 71,
      "hit": false,
      "t": 124475.2460000002,
      "d": 165.74600000001374,
      "v": 49
    },
    {
      "midi": 34,
      "hit": false,
      "t": 124640.99200000022,
      "d": 580.1110000000044,
      "v": 49
    },
    {
      "midi": 46,
      "hit": false,
      "t": 124640.99200000022,
      "d": 580.1110000000044,
      "v": 49
    },
    {
      "midi": 65,
      "hit": false,
      "t": 124640.99200000022,
      "d": 580.1110000000044,
      "v": 49
    },
    {
      "midi": 74,
      "hit": false,
      "t": 124640.99200000022,
      "d": 580.1110000000044,
      "v": 49
    },
    {
      "midi": 70,
      "hit": false,
      "t": 124640.99200000022,
      "d": 662.9840000000113,
      "v": 49
    },
    {
      "midi": 34,
      "hit": false,
      "t": 125635.46800000023,
      "d": 82.87300000000687,
      "v": 28
    },
    {
      "midi": 46,
      "hit": false,
      "t": 125635.46800000023,
      "d": 82.87300000000687,
      "v": 28
    },
    {
      "midi": 46,
      "hit": false,
      "t": 125966.96000000024,
      "d": 580.1110000000044,
      "v": 30
    },
    {
      "midi": 34,
      "hit": false,
      "t": 125966.96000000024,
      "d": 662.9840000000113,
      "v": 30
    },
    {
      "midi": 70,
      "hit": false,
      "t": 126298.45200000024,
      "d": 165.74599999999919,
      "v": 52
    },
    {
      "midi": 74,
      "hit": false,
      "t": 126464.19800000024,
      "d": 82.87300000000687,
      "v": 52
    },
    {
      "midi": 74,
      "hit": false,
      "t": 126629.94400000025,
      "d": 165.74599999999919,
      "v": 52
    },
    {
      "midi": 70,
      "hit": false,
      "t": 126795.69000000025,
      "d": 82.87300000000687,
      "v": 52
    },
    {
      "midi": 70,
      "hit": false,
      "t": 126961.43600000026,
      "d": 165.74599999999919,
      "v": 52
    },
    {
      "midi": 74,
      "hit": false,
      "t": 127127.18200000026,
      "d": 165.74599999999919,
      "v": 52
    },
    {
      "midi": 69,
      "hit": false,
      "t": 127292.92800000026,
      "d": 580.1110000000044,
      "v": 52
    },
    {
      "midi": 72,
      "hit": false,
      "t": 127292.92800000026,
      "d": 662.9840000000113,
      "v": 52
    },
    {
      "midi": 77,
      "hit": false,
      "t": 127292.92800000026,
      "d": 662.9840000000113,
      "v": 52
    },
    {
      "midi": 29,
      "hit": false,
      "t": 127292.92800000026,
      "d": 745.8570000000182,
      "v": 52
    },
    {
      "midi": 41,
      "hit": false,
      "t": 127292.92800000026,
      "d": 745.8570000000182,
      "v": 52
    },
    {
      "midi": 29,
      "hit": false,
      "t": 128287.40400000029,
      "d": 165.74599999999919,
      "v": 38
    },
    {
      "midi": 41,
      "hit": false,
      "t": 128287.40400000029,
      "d": 165.74599999999919,
      "v": 38
    },
    {
      "midi": 29,
      "hit": false,
      "t": 128618.89600000028,
      "d": 331.49199999999837,
      "v": 38
    },
    {
      "midi": 41,
      "hit": false,
      "t": 128618.89600000028,
      "d": 331.49199999999837,
      "v": 38
    },
    {
      "midi": 72,
      "hit": false,
      "t": 128950.38800000028,
      "d": 165.74599999999919,
      "v": 53
    },
    {
      "midi": 77,
      "hit": false,
      "t": 129116.13400000028,
      "d": 82.87300000000687,
      "v": 53
    },
    {
      "midi": 77,
      "hit": false,
      "t": 129281.8800000003,
      "d": 165.74599999999919,
      "v": 53
    },
    {
      "midi": 72,
      "hit": false,
      "t": 129447.6260000003,
      "d": 82.87300000000687,
      "v": 53
    },
    {
      "midi": 72,
      "hit": false,
      "t": 129613.37200000031,
      "d": 165.74599999999919,
      "v": 53
    },
    {
      "midi": 77,
      "hit": false,
      "t": 129779.11800000031,
      "d": 165.74599999999919,
      "v": 53
    },
    {
      "midi": 36,
      "hit": false,
      "t": 129944.8640000003,
      "d": 662.9839999999967,
      "v": 53
    },
    {
      "midi": 48,
      "hit": false,
      "t": 129944.8640000003,
      "d": 662.9839999999967,
      "v": 53
    },
    {
      "midi": 72,
      "hit": false,
      "t": 129944.8640000003,
      "d": 662.9839999999967,
      "v": 53
    },
    {
      "midi": 76,
      "hit": false,
      "t": 129944.8640000003,
      "d": 745.8570000000036,
      "v": 53
    },
    {
      "midi": 79,
      "hit": false,
      "t": 129944.8640000003,
      "d": 745.8570000000036,
      "v": 53
    },
    {
      "midi": 48,
      "hit": false,
      "t": 130939.34000000032,
      "d": 82.87300000000687,
      "v": 34
    },
    {
      "midi": 36,
      "hit": false,
      "t": 130939.34000000032,
      "d": 165.74600000001374,
      "v": 34
    },
    {
      "midi": 48,
      "hit": false,
      "t": 131270.83200000034,
      "d": 414.3649999999907,
      "v": 34
    },
    {
      "midi": 36,
      "hit": false,
      "t": 131270.83200000034,
      "d": 580.1109999999753,
      "v": 34
    },
    {
      "midi": 76,
      "hit": false,
      "t": 131602.32400000034,
      "d": 165.74599999998463,
      "v": 50
    },
    {
      "midi": 79,
      "hit": false,
      "t": 131768.07000000033,
      "d": 82.87299999999232,
      "v": 50
    },
    {
      "midi": 79,
      "hit": false,
      "t": 131933.8160000003,
      "d": 165.74600000001374,
      "v": 50
    },
    {
      "midi": 76,
      "hit": false,
      "t": 132099.56200000033,
      "d": 82.87299999999232,
      "v": 50
    },
    {
      "midi": 76,
      "hit": false,
      "t": 132265.3080000003,
      "d": 248.61900000000605,
      "v": 50
    },
    {
      "midi": 79,
      "hit": false,
      "t": 132431.05400000032,
      "d": 165.74599999998463,
      "v": 50
    },
    {
      "midi": 72,
      "hit": false,
      "t": 132596.8000000003,
      "d": 662.9839999999967,
      "v": 50
    },
    {
      "midi": 76,
      "hit": false,
      "t": 132596.8000000003,
      "d": 662.9839999999967,
      "v": 50
    },
    {
      "midi": 33,
      "hit": false,
      "t": 132596.8000000003,
      "d": 745.8569999999891,
      "v": 50
    },
    {
      "midi": 45,
      "hit": false,
      "t": 132596.8000000003,
      "d": 745.8569999999891,
      "v": 50
    },
    {
      "midi": 81,
      "hit": false,
      "t": 132596.8000000003,
      "d": 828.7299999999814,
      "v": 50
    },
    {
      "midi": 33,
      "hit": false,
      "t": 133591.2760000003,
      "d": 245.85656666665454,
      "v": 32
    },
    {
      "midi": 45,
      "hit": false,
      "t": 133591.2760000003,
      "d": 245.85656666665454,
      "v": 32
    },
    {
      "midi": 33,
      "hit": false,
      "t": 133922.7680000003,
      "d": 331.49199999999837,
      "v": 32
    },
    {
      "midi": 45,
      "hit": false,
      "t": 133922.7680000003,
      "d": 497.2380000000121,
      "v": 32
    },
    {
      "midi": 81,
      "hit": false,
      "t": 134254.2600000003,
      "d": 165.74600000001374,
      "v": 54
    },
    {
      "midi": 84,
      "hit": false,
      "t": 134420.0060000003,
      "d": 82.87299999999232,
      "v": 54
    },
    {
      "midi": 84,
      "hit": false,
      "t": 134585.7520000003,
      "d": 165.74600000001374,
      "v": 54
    },
    {
      "midi": 45,
      "hit": false,
      "t": 134585.7520000003,
      "d": 662.9840000000258,
      "v": 54
    },
    {
      "midi": 81,
      "hit": false,
      "t": 134751.4980000003,
      "d": 82.87299999999232,
      "v": 54
    },
    {
      "midi": 81,
      "hit": false,
      "t": 134917.2440000003,
      "d": 165.74600000001374,
      "v": 54
    },
    {
      "midi": 84,
      "hit": false,
      "t": 135082.9900000003,
      "d": 165.74600000001374,
      "v": 54
    },
    {
      "midi": 38,
      "hit": false,
      "t": 135248.73600000032,
      "d": 331.49199999999837,
      "v": 54
    },
    {
      "midi": 50,
      "hit": false,
      "t": 135248.73600000032,
      "d": 331.49199999999837,
      "v": 54
    },
    {
      "midi": 77,
      "hit": false,
      "t": 135248.73600000032,
      "d": 2154.697999999975,
      "v": 54
    },
    {
      "midi": 81,
      "hit": false,
      "t": 135248.73600000032,
      "d": 2154.697999999975,
      "v": 54
    },
    {
      "midi": 86,
      "hit": false,
      "t": 135248.73600000032,
      "d": 2154.697999999975,
      "v": 54
    },
    {
      "midi": 38,
      "hit": false,
      "t": 135911.72000000032,
      "d": 331.49199999999837,
      "v": 42
    },
    {
      "midi": 50,
      "hit": false,
      "t": 135911.72000000032,
      "d": 414.3649999999907,
      "v": 42
    },
    {
      "midi": 45,
      "hit": false,
      "t": 136243.21200000032,
      "d": 328.72956666664686,
      "v": 42
    },
    {
      "midi": 38,
      "hit": false,
      "t": 136574.7040000003,
      "d": 411.6025666666683,
      "v": 42
    },
    {
      "midi": 50,
      "hit": false,
      "t": 136574.7040000003,
      "d": 411.6025666666683,
      "v": 42
    },
    {
      "midi": 38,
      "hit": false,
      "t": 137237.6880000003,
      "d": 331.4920000000275,
      "v": 42
    },
    {
      "midi": 50,
      "hit": false,
      "t": 137237.6880000003,
      "d": 331.4920000000275,
      "v": 42
    },
    {
      "midi": 45,
      "hit": false,
      "t": 137569.1800000003,
      "d": 328.72956666667596,
      "v": 42
    },
    {
      "midi": 38,
      "hit": false,
      "t": 137900.6720000003,
      "d": 411.6025666666683,
      "v": 38
    },
    {
      "midi": 50,
      "hit": false,
      "t": 137900.6720000003,
      "d": 494.4755666666606,
      "v": 38
    },
    {
      "midi": 38,
      "hit": false,
      "t": 138563.6560000003,
      "d": 411.6025666666683,
      "v": 37
    },
    {
      "midi": 50,
      "hit": false,
      "t": 138563.6560000003,
      "d": 411.6025666666683,
      "v": 37
    },
    {
      "midi": 45,
      "hit": false,
      "t": 138895.1480000003,
      "d": 411.6025666666683,
      "v": 37
    },
    {
      "midi": 38,
      "hit": false,
      "t": 139226.6400000003,
      "d": 411.6025666666683,
      "v": 36
    },
    {
      "midi": 50,
      "hit": false,
      "t": 139226.6400000003,
      "d": 494.4755666666606,
      "v": 36
    },
    {
      "midi": 38,
      "hit": false,
      "t": 139889.6240000003,
      "d": 411.6025666666683,
      "v": 35
    },
    {
      "midi": 50,
      "hit": false,
      "t": 139889.6240000003,
      "d": 494.4755666666606,
      "v": 35
    },
    {
      "midi": 45,
      "hit": false,
      "t": 140303.9890000003,
      "d": 494.4755666666606,
      "v": 35
    },
    {
      "midi": 26,
      "hit": false,
      "t": 140552.60799999995,
      "d": 165.74600000001374,
      "v": 75
    },
    {
      "midi": 38,
      "hit": false,
      "t": 140552.60799999995,
      "d": 165.74600000001374,
      "v": 75
    },
    {
      "midi": 26,
      "hit": false,
      "t": 141215.59199999998,
      "d": 165.74600000001374,
      "v": 70
    },
    {
      "midi": 38,
      "hit": false,
      "t": 141215.59199999998,
      "d": 165.74600000001374,
      "v": 70
    },
    {
      "midi": 33,
      "hit": false,
      "t": 141878.576,
      "d": 165.74600000001374,
      "v": 70
    },
    {
      "midi": 45,
      "hit": false,
      "t": 141878.576,
      "d": 165.74600000001374,
      "v": 70
    },
    {
      "midi": 33,
      "hit": false,
      "t": 142541.56000000003,
      "d": 165.74600000001374,
      "v": 70
    },
    {
      "midi": 45,
      "hit": false,
      "t": 142541.56000000003,
      "d": 165.74600000001374,
      "v": 70
    },
    {
      "midi": 33,
      "hit": false,
      "t": 142873.05200000005,
      "d": 165.74600000001374,
      "v": 70
    },
    {
      "midi": 45,
      "hit": false,
      "t": 142873.05200000005,
      "d": 165.74600000001374,
      "v": 70
    },
    {
      "midi": 33,
      "hit": false,
      "t": 143204.54400000008,
      "d": 165.74600000001374,
      "v": 70
    },
    {
      "midi": 45,
      "hit": false,
      "t": 143204.54400000008,
      "d": 165.74600000001374,
      "v": 70
    },
    {
      "midi": 33,
      "hit": false,
      "t": 143867.5280000001,
      "d": 165.74600000001374,
      "v": 70
    },
    {
      "midi": 45,
      "hit": false,
      "t": 143867.5280000001,
      "d": 165.74600000001374,
      "v": 70
    },
    {
      "midi": 33,
      "hit": false,
      "t": 144530.51200000013,
      "d": 165.74600000001374,
      "v": 70
    },
    {
      "midi": 45,
      "hit": false,
      "t": 144530.51200000013,
      "d": 165.74600000001374,
      "v": 70
    },
    {
      "midi": 33,
      "hit": false,
      "t": 145193.49600000016,
      "d": 165.74600000001374,
      "v": 70
    },
    {
      "midi": 45,
      "hit": false,
      "t": 145193.49600000016,
      "d": 165.74600000001374,
      "v": 70
    },
    {
      "midi": 33,
      "hit": false,
      "t": 145524.9880000002,
      "d": 165.74600000001374,
      "v": 70
    },
    {
      "midi": 45,
      "hit": false,
      "t": 145524.9880000002,
      "d": 165.74600000001374,
      "v": 70
    },
    {
      "midi": 34,
      "hit": false,
      "t": 145856.4800000002,
      "d": 165.74600000001374,
      "v": 70
    },
    {
      "midi": 46,
      "hit": false,
      "t": 145856.4800000002,
      "d": 165.74600000001374,
      "v": 70
    },
    {
      "midi": 34,
      "hit": false,
      "t": 146519.46400000024,
      "d": 165.74600000001374,
      "v": 70
    },
    {
      "midi": 46,
      "hit": false,
      "t": 146519.46400000024,
      "d": 165.74600000001374,
      "v": 70
    },
    {
      "midi": 29,
      "hit": false,
      "t": 147182.44800000027,
      "d": 165.74600000001374,
      "v": 70
    },
    {
      "midi": 41,
      "hit": false,
      "t": 147182.44800000027,
      "d": 165.74600000001374,
      "v": 70
    },
    {
      "midi": 29,
      "hit": false,
      "t": 147845.4320000003,
      "d": 165.74600000001374,
      "v": 70
    },
    {
      "midi": 41,
      "hit": false,
      "t": 147845.4320000003,
      "d": 165.74600000001374,
      "v": 70
    },
    {
      "midi": 29,
      "hit": false,
      "t": 148176.92400000032,
      "d": 165.74600000001374,
      "v": 70
    },
    {
      "midi": 41,
      "hit": false,
      "t": 148176.92400000032,
      "d": 165.74600000001374,
      "v": 70
    },
    {
      "midi": 29,
      "hit": false,
      "t": 148508.41600000035,
      "d": 165.74600000001374,
      "v": 70
    },
    {
      "midi": 41,
      "hit": false,
      "t": 148508.41600000035,
      "d": 165.74600000001374,
      "v": 70
    },
    {
      "midi": 29,
      "hit": false,
      "t": 149171.40000000037,
      "d": 165.74600000001374,
      "v": 70
    },
    {
      "midi": 41,
      "hit": false,
      "t": 149171.40000000037,
      "d": 165.74600000001374,
      "v": 70
    },
    {
      "midi": 29,
      "hit": false,
      "t": 149834.3840000004,
      "d": 165.74600000001374,
      "v": 70
    },
    {
      "midi": 41,
      "hit": false,
      "t": 149834.3840000004,
      "d": 165.74600000001374,
      "v": 70
    },
    {
      "midi": 29,
      "hit": false,
      "t": 150497.36800000042,
      "d": 165.74600000001374,
      "v": 70
    },
    {
      "midi": 41,
      "hit": false,
      "t": 150497.36800000042,
      "d": 165.74600000001374,
      "v": 70
    },
    {
      "midi": 29,
      "hit": false,
      "t": 150828.86000000045,
      "d": 165.74600000001374,
      "v": 70
    },
    {
      "midi": 41,
      "hit": false,
      "t": 150828.86000000045,
      "d": 165.74600000001374,
      "v": 70
    },
    {
      "midi": 26,
      "hit": false,
      "t": 151160.35200000048,
      "d": 165.74600000001374,
      "v": 70
    },
    {
      "midi": 38,
      "hit": false,
      "t": 151160.35200000048,
      "d": 165.74600000001374,
      "v": 70
    },
    {
      "midi": 26,
      "hit": false,
      "t": 151823.3360000005,
      "d": 165.74600000001374,
      "v": 70
    },
    {
      "midi": 38,
      "hit": false,
      "t": 151823.3360000005,
      "d": 165.74600000001374,
      "v": 70
    },
    {
      "midi": 33,
      "hit": false,
      "t": 152486.32000000053,
      "d": 165.74600000001374,
      "v": 70
    },
    {
      "midi": 45,
      "hit": false,
      "t": 152486.32000000053,
      "d": 165.74600000001374,
      "v": 70
    },
    {
      "midi": 33,
      "hit": false,
      "t": 153149.30400000056,
      "d": 165.74600000001374,
      "v": 70
    },
    {
      "midi": 45,
      "hit": false,
      "t": 153149.30400000056,
      "d": 165.74600000001374,
      "v": 70
    },
    {
      "midi": 36,
      "hit": false,
      "t": 153812.28800000058,
      "d": 165.74600000001374,
      "v": 70
    },
    {
      "midi": 48,
      "hit": false,
      "t": 153812.28800000058,
      "d": 165.74600000001374,
      "v": 70
    },
    {
      "midi": 36,
      "hit": false,
      "t": 154475.2720000006,
      "d": 165.74600000001374,
      "v": 70
    },
    {
      "midi": 48,
      "hit": false,
      "t": 154475.2720000006,
      "d": 165.74600000001374,
      "v": 70
    },
    {
      "midi": 36,
      "hit": false,
      "t": 155138.25600000063,
      "d": 165.74600000001374,
      "v": 70
    },
    {
      "midi": 48,
      "hit": false,
      "t": 155138.25600000063,
      "d": 165.74600000001374,
      "v": 70
    },
    {
      "midi": 36,
      "hit": false,
      "t": 155801.24000000066,
      "d": 165.74600000001374,
      "v": 70
    },
    {
      "midi": 48,
      "hit": false,
      "t": 155801.24000000066,
      "d": 165.74600000001374,
      "v": 70
    },
    {
      "midi": 36,
      "hit": false,
      "t": 156132.7320000007,
      "d": 165.74600000001374,
      "v": 70
    },
    {
      "midi": 48,
      "hit": false,
      "t": 156132.7320000007,
      "d": 165.74600000001374,
      "v": 70
    },
    {
      "midi": 33,
      "hit": false,
      "t": 156464.22400000072,
      "d": 165.74600000001374,
      "v": 70
    },
    {
      "midi": 45,
      "hit": false,
      "t": 156464.22400000072,
      "d": 165.74600000001374,
      "v": 70
    },
    {
      "midi": 33,
      "hit": false,
      "t": 157127.20800000074,
      "d": 165.74600000001374,
      "v": 74
    },
    {
      "midi": 45,
      "hit": false,
      "t": 157127.20800000074,
      "d": 165.74600000001374,
      "v": 74
    },
    {
      "midi": 33,
      "hit": false,
      "t": 157790.19200000077,
      "d": 165.74600000001374,
      "v": 74
    },
    {
      "midi": 45,
      "hit": false,
      "t": 157790.19200000077,
      "d": 165.74600000001374,
      "v": 74
    },
    {
      "midi": 33,
      "hit": false,
      "t": 158453.1760000008,
      "d": 165.74600000001374,
      "v": 74
    },
    {
      "midi": 45,
      "hit": false,
      "t": 158453.1760000008,
      "d": 165.74600000001374,
      "v": 74
    },
    {
      "midi": 58,
      "hit": false,
      "t": 167044.34366666747,
      "d": 723.7575333333225,
      "v": 78
    },
    {
      "midi": 62,
      "hit": false,
      "t": 167060.91826666746,
      "d": 748.6194333333406,
      "v": 78
    },
    {
      "midi": 60,
      "hit": false,
      "t": 167721.13983333413,
      "d": 767.9564666666847,
      "v": 78
    },
    {
      "midi": 57,
      "hit": false,
      "t": 167723.90226666746,
      "d": 734.8072666666994,
      "v": 78
    },
    {
      "midi": 55,
      "hit": false,
      "t": 168397.9360000008,
      "d": 707.1829333333299,
      "v": 78
    },
    {
      "midi": 59,
      "hit": false,
      "t": 168408.98573333415,
      "d": 715.4702333333262,
      "v": 78
    },
    {
      "midi": 53,
      "hit": false,
      "t": 169055.39513333415,
      "d": 715.4702333333262,
      "v": 78
    },
    {
      "midi": 57,
      "hit": false,
      "t": 169058.15756666748,
      "d": 737.5696999999927,
      "v": 78
    },
    {
      "midi": 52,
      "hit": false,
      "t": 169718.37913333415,
      "d": 690.6083333333372,
      "v": 78
    },
    {
      "midi": 55,
      "hit": false,
      "t": 169723.90400000082,
      "d": 685.0834666666633,
      "v": 78
    },
    {
      "midi": 57,
      "hit": false,
      "t": 170353.7388000008,
      "d": 704.4205000000366,
      "v": 78
    },
    {
      "midi": 53,
      "hit": false,
      "t": 170364.78853333415,
      "d": 732.0448333333479,
      "v": 78
    },
    {
      "midi": 52,
      "hit": false,
      "t": 171038.8222666675,
      "d": 193.3703333333542,
      "v": 82
    },
    {
      "midi": 50,
      "hit": false,
      "t": 171204.5682666675,
      "d": 185.0830333333579,
      "v": 80
    },
    {
      "midi": 48,
      "hit": false,
      "t": 171353.73966666753,
      "d": 381.2158000000054,
      "v": 79
    },
    {
      "midi": 50,
      "hit": false,
      "t": 171696.28140000088,
      "d": 361.87876666666125,
      "v": 75
    },
    {
      "midi": 46,
      "hit": false,
      "t": 172033.29826666755,
      "d": 392.26553333332413,
      "v": 72
    },
    {
      "midi": 51,
      "hit": false,
      "t": 172420.0389333342,
      "d": 859.1167666667025,
      "v": 39
    },
    {
      "midi": 44,
      "hit": false,
      "t": 172431.08866666755,
      "d": 848.0670333333546,
      "v": 39
    },
    {
      "midi": 51,
      "hit": false,
      "t": 173674.18366666758,
      "d": 812.1554000000178,
      "v": 39
    },
    {
      "midi": 44,
      "hit": false,
      "t": 173679.70853333425,
      "d": 820.4427000000142,
      "v": 39
    },
    {
      "midi": 52,
      "hit": false,
      "t": 174980.81463333426,
      "d": 770.7189000000362,
      "v": 39
    },
    {
      "midi": 45,
      "hit": false,
      "t": 174991.8643666676,
      "d": 773.4813333333586,
      "v": 39
    },
    {
      "midi": 52,
      "hit": false,
      "t": 176295.73290000096,
      "d": 762.4316000000108,
      "v": 39
    },
    {
      "midi": 45,
      "hit": false,
      "t": 176312.30750000096,
      "d": 715.4702333333553,
      "v": 39
    },
    {
      "midi": 62,
      "hit": false,
      "t": 190762.59626666695,
      "d": 1613.2610666666878,
      "v": 25
    },
    {
      "midi": 65,
      "hit": false,
      "t": 190817.84493333363,
      "d": 1599.4489000000176,
      "v": 26
    },
    {
      "midi": 69,
      "hit": false,
      "t": 190895.19306666698,
      "d": 1513.8134666666738,
      "v": 27
    },
    {
      "midi": 62,
      "hit": false,
      "t": 194130.00250000032,
      "d": 1732.045700000017,
      "v": 24
    },
    {
      "midi": 65,
      "hit": false,
      "t": 194168.67656666698,
      "d": 1748.6203000000096,
      "v": 25
    },
    {
      "midi": 69,
      "hit": false,
      "t": 194246.02470000033,
      "d": 1654.6975666666694,
      "v": 26
    },
    {
      "midi": 38,
      "hit": false,
      "t": 197350.99976666697,
      "d": 4140.887566666643,
      "v": 20
    },
    {
      "midi": 45,
      "hit": false,
      "t": 197392.43626666695,
      "d": 4140.887566666672,
      "v": 21
    },
    {
      "midi": 53,
      "hit": false,
      "t": 197475.30926666694,
      "d": 2734.8090000000084,
      "v": 22
    },
    {
      "midi": 57,
      "hit": false,
      "t": 197505.6960333336,
      "d": 2718.2344000000157,
      "v": 22
    },
    {
      "midi": 62,
      "hit": false,
      "t": 197599.61876666694,
      "d": 2588.400033333339,
      "v": 24
    }
  ]
}