{
  "jsonPath": "Rock/Art Rock/Kate Bush/the-man-with-the-child-in-his-eyes.json",
  "path": "Rock\\Art Rock\\Kate Bush\\The Man With The Child In His Eyes.mid",
  "name": "The Man With The Child In His Eyes",
  "difficulty": "Advanced",
  "bpm": 91.99998773333498,
  "notes": [
    {
      "midi": 71,
      "hit": false,
      "t": 0,
      "d": 326.087,
      "v": 58
    },
    {
      "midi": 40,
      "hit": false,
      "t": 0,
      "d": 1956.522,
      "v": 61
    },
    {
      "midi": 71,
      "hit": false,
      "t": 0,
      "d": 326.087,
      "v": 48
    },
    {
      "midi": 40,
      "hit": false,
      "t": 0,
      "d": 1956.522,
      "v": 48
    },
    {
      "midi": 67,
      "hit": false,
      "t": 326.087,
      "d": 326.087,
      "v": 59
    },
    {
      "midi": 67,
      "hit": false,
      "t": 326.087,
      "d": 326.087,
      "v": 48
    },
    {
      "midi": 64,
      "hit": false,
      "t": 652.174,
      "d": 326.087,
      "v": 57
    },
    {
      "midi": 64,
      "hit": false,
      "t": 652.174,
      "d": 326.087,
      "v": 48
    },
    {
      "midi": 67,
      "hit": false,
      "t": 978.261,
      "d": 1630.435,
      "v": 56
    },
    {
      "midi": 76,
      "hit": false,
      "t": 978.261,
      "d": 1630.435,
      "v": 59
    },
    {
      "midi": 67,
      "hit": false,
      "t": 978.261,
      "d": 1630.435,
      "v": 48
    },
    {
      "midi": 76,
      "hit": false,
      "t": 978.261,
      "d": 1630.435,
      "v": 48
    },
    {
      "midi": 40,
      "hit": false,
      "t": 1956.522,
      "d": 652.174,
      "v": 60
    },
    {
      "midi": 64,
      "hit": false,
      "t": 1956.522,
      "d": 652.174,
      "v": 55
    },
    {
      "midi": 40,
      "hit": false,
      "t": 1956.522,
      "d": 652.174,
      "v": 48
    },
    {
      "midi": 64,
      "hit": false,
      "t": 1956.522,
      "d": 652.174,
      "v": 48
    },
    {
      "midi": 38,
      "hit": false,
      "t": 2608.696,
      "d": 978.261,
      "v": 61
    },
    {
      "midi": 59,
      "hit": false,
      "t": 2608.696,
      "d": 978.261,
      "v": 54
    },
    {
      "midi": 64,
      "hit": false,
      "t": 2608.696,
      "d": 978.261,
      "v": 51
    },
    {
      "midi": 38,
      "hit": false,
      "t": 2608.696,
      "d": 978.261,
      "v": 48
    },
    {
      "midi": 59,
      "hit": false,
      "t": 2608.696,
      "d": 978.261,
      "v": 48
    },
    {
      "midi": 64,
      "hit": false,
      "t": 2608.696,
      "d": 978.261,
      "v": 48
    },
    {
      "midi": 38,
      "hit": false,
      "t": 3586.957,
      "d": 326.087,
      "v": 59
    },
    {
      "midi": 59,
      "hit": false,
      "t": 3586.957,
      "d": 1630.435,
      "v": 57
    },
    {
      "midi": 64,
      "hit": false,
      "t": 3586.957,
      "d": 1630.435,
      "v": 61
    },
    {
      "midi": 38,
      "hit": false,
      "t": 3586.957,
      "d": 326.087,
      "v": 48
    },
    {
      "midi": 59,
      "hit": false,
      "t": 3586.957,
      "d": 1630.435,
      "v": 48
    },
    {
      "midi": 64,
      "hit": false,
      "t": 3586.957,
      "d": 1630.435,
      "v": 48
    },
    {
      "midi": 38,
      "hit": false,
      "t": 3913.044,
      "d": 1304.348,
      "v": 58
    },
    {
      "midi": 38,
      "hit": false,
      "t": 3913.044,
      "d": 1304.348,
      "v": 48
    },
    {
      "midi": 36,
      "hit": false,
      "t": 5217.392,
      "d": 978.2610000000004,
      "v": 59
    },
    {
      "midi": 55,
      "hit": false,
      "t": 5217.392,
      "d": 978.2610000000004,
      "v": 61
    },
    {
      "midi": 36,
      "hit": false,
      "t": 5217.392,
      "d": 978.2610000000004,
      "v": 48
    },
    {
      "midi": 55,
      "hit": false,
      "t": 5217.392,
      "d": 978.2610000000004,
      "v": 48
    },
    {
      "midi": 36,
      "hit": false,
      "t": 6195.653,
      "d": 326.08699999999953,
      "v": 61
    },
    {
      "midi": 55,
      "hit": false,
      "t": 6195.653,
      "d": 326.08699999999953,
      "v": 56
    },
    {
      "midi": 36,
      "hit": false,
      "t": 6195.653,
      "d": 326.08699999999953,
      "v": 48
    },
    {
      "midi": 55,
      "hit": false,
      "t": 6195.653,
      "d": 326.08699999999953,
      "v": 48
    },
    {
      "midi": 35,
      "hit": false,
      "t": 6521.74,
      "d": 652.174,
      "v": 56
    },
    {
      "midi": 55,
      "hit": false,
      "t": 6521.74,
      "d": 652.174,
      "v": 58
    },
    {
      "midi": 35,
      "hit": false,
      "t": 6521.74,
      "d": 652.174,
      "v": 48
    },
    {
      "midi": 55,
      "hit": false,
      "t": 6521.74,
      "d": 652.174,
      "v": 48
    },
    {
      "midi": 35,
      "hit": false,
      "t": 7173.914,
      "d": 652.174,
      "v": 56
    },
    {
      "midi": 55,
      "hit": false,
      "t": 7173.914,
      "d": 652.174,
      "v": 56
    },
    {
      "midi": 35,
      "hit": false,
      "t": 7173.914,
      "d": 652.174,
      "v": 48
    },
    {
      "midi": 55,
      "hit": false,
      "t": 7173.914,
      "d": 652.174,
      "v": 48
    },
    {
      "midi": 33,
      "hit": false,
      "t": 7826.088,
      "d": 978.2610000000004,
      "v": 55
    },
    {
      "midi": 57,
      "hit": false,
      "t": 7826.088,
      "d": 978.2610000000004,
      "v": 54
    },
    {
      "midi": 60,
      "hit": false,
      "t": 7826.088,
      "d": 978.2610000000004,
      "v": 53
    },
    {
      "midi": 33,
      "hit": false,
      "t": 7826.088,
      "d": 978.2610000000004,
      "v": 48
    },
    {
      "midi": 57,
      "hit": false,
      "t": 7826.088,
      "d": 978.2610000000004,
      "v": 48
    },
    {
      "midi": 60,
      "hit": false,
      "t": 7826.088,
      "d": 978.2610000000004,
      "v": 48
    },
    {
      "midi": 57,
      "hit": false,
      "t": 8804.349,
      "d": 326.08699999999953,
      "v": 61
    },
    {
      "midi": 60,
      "hit": false,
      "t": 8804.349,
      "d": 326.08699999999953,
      "v": 56
    },
    {
      "midi": 33,
      "hit": false,
      "t": 8804.349,
      "d": 978.2609999999986,
      "v": 59
    },
    {
      "midi": 57,
      "hit": false,
      "t": 8804.349,
      "d": 326.08699999999953,
      "v": 48
    },
    {
      "midi": 60,
      "hit": false,
      "t": 8804.349,
      "d": 326.08699999999953,
      "v": 48
    },
    {
      "midi": 33,
      "hit": false,
      "t": 8804.349,
      "d": 978.2609999999986,
      "v": 48
    },
    {
      "midi": 57,
      "hit": false,
      "t": 9130.436,
      "d": 326.08699999999953,
      "v": 60
    },
    {
      "midi": 60,
      "hit": false,
      "t": 9130.436,
      "d": 326.08699999999953,
      "v": 51
    },
    {
      "midi": 57,
      "hit": false,
      "t": 9130.436,
      "d": 326.08699999999953,
      "v": 48
    },
    {
      "midi": 60,
      "hit": false,
      "t": 9130.436,
      "d": 326.08699999999953,
      "v": 48
    },
    {
      "midi": 57,
      "hit": false,
      "t": 9456.523,
      "d": 326.08699999999953,
      "v": 54
    },
    {
      "midi": 57,
      "hit": false,
      "t": 9456.523,
      "d": 326.08699999999953,
      "v": 48
    },
    {
      "midi": 60,
      "hit": false,
      "t": 9782.609999999999,
      "d": 326.08699999999953,
      "v": 60
    },
    {
      "midi": 33,
      "hit": false,
      "t": 9782.609999999999,
      "d": 652.1739999999991,
      "v": 56
    },
    {
      "midi": 60,
      "hit": false,
      "t": 9782.609999999999,
      "d": 326.08699999999953,
      "v": 48
    },
    {
      "midi": 33,
      "hit": false,
      "t": 9782.609999999999,
      "d": 652.1739999999991,
      "v": 48
    },
    {
      "midi": 64,
      "hit": false,
      "t": 10108.696999999998,
      "d": 326.08699999999953,
      "v": 51
    },
    {
      "midi": 64,
      "hit": false,
      "t": 10108.696999999998,
      "d": 326.08699999999953,
      "v": 48
    },
    {
      "midi": 71,
      "hit": false,
      "t": 10434.783999999998,
      "d": 326.08699999999953,
      "v": 56
    },
    {
      "midi": 40,
      "hit": false,
      "t": 10434.783999999998,
      "d": 1956.521999999999,
      "v": 53
    },
    {
      "midi": 71,
      "hit": false,
      "t": 10434.783999999998,
      "d": 326.08699999999953,
      "v": 48
    },
    {
      "midi": 40,
      "hit": false,
      "t": 10434.783999999998,
      "d": 1956.521999999999,
      "v": 48
    },
    {
      "midi": 67,
      "hit": false,
      "t": 10760.870999999997,
      "d": 326.08699999999953,
      "v": 52
    },
    {
      "midi": 67,
      "hit": false,
      "t": 10760.870999999997,
      "d": 326.08699999999953,
      "v": 48
    },
    {
      "midi": 64,
      "hit": false,
      "t": 11086.957999999997,
      "d": 326.08699999999953,
      "v": 59
    },
    {
      "midi": 64,
      "hit": false,
      "t": 11086.957999999997,
      "d": 326.08699999999953,
      "v": 48
    },
    {
      "midi": 67,
      "hit": false,
      "t": 11413.044999999996,
      "d": 1630.4349999999995,
      "v": 60
    },
    {
      "midi": 76,
      "hit": false,
      "t": 11413.044999999996,
      "d": 1630.4349999999995,
      "v": 57
    },
    {
      "midi": 67,
      "hit": false,
      "t": 11413.044999999996,
      "d": 1630.4349999999995,
      "v": 48
    },
    {
      "midi": 76,
      "hit": false,
      "t": 11413.044999999996,
      "d": 1630.4349999999995,
      "v": 48
    },
    {
      "midi": 40,
      "hit": false,
      "t": 12391.305999999997,
      "d": 652.1739999999991,
      "v": 55
    },
    {
      "midi": 40,
      "hit": false,
      "t": 12391.305999999997,
      "d": 652.1739999999991,
      "v": 48
    },
    {
      "midi": 38,
      "hit": false,
      "t": 13043.479999999996,
      "d": 1956.5220000000008,
      "v": 61
    },
    {
      "midi": 59,
      "hit": false,
      "t": 13043.479999999996,
      "d": 1956.5220000000008,
      "v": 56
    },
    {
      "midi": 64,
      "hit": false,
      "t": 13043.479999999996,
      "d": 1956.5220000000008,
      "v": 53
    },
    {
      "midi": 38,
      "hit": false,
      "t": 13043.479999999996,
      "d": 1956.5220000000008,
      "v": 48
    },
    {
      "midi": 59,
      "hit": false,
      "t": 13043.479999999996,
      "d": 1956.5220000000008,
      "v": 48
    },
    {
      "midi": 64,
      "hit": false,
      "t": 13043.479999999996,
      "d": 1956.5220000000008,
      "v": 48
    },
    {
      "midi": 38,
      "hit": false,
      "t": 15000.001999999997,
      "d": 652.1739999999991,
      "v": 56
    },
    {
      "midi": 59,
      "hit": false,
      "t": 15000.001999999997,
      "d": 652.1739999999991,
      "v": 58
    },
    {
      "midi": 64,
      "hit": false,
      "t": 15000.001999999997,
      "d": 652.1739999999991,
      "v": 53
    },
    {
      "midi": 38,
      "hit": false,
      "t": 15000.001999999997,
      "d": 652.1739999999991,
      "v": 48
    },
    {
      "midi": 59,
      "hit": false,
      "t": 15000.001999999997,
      "d": 652.1739999999991,
      "v": 48
    },
    {
      "midi": 64,
      "hit": false,
      "t": 15000.001999999997,
      "d": 652.1739999999991,
      "v": 48
    },
    {
      "midi": 36,
      "hit": false,
      "t": 15652.175999999996,
      "d": 978.2609999999986,
      "v": 60
    },
    {
      "midi": 64,
      "hit": false,
      "t": 15652.175999999996,
      "d": 978.2609999999986,
      "v": 56
    },
    {
      "midi": 36,
      "hit": false,
      "t": 15652.175999999996,
      "d": 978.2609999999986,
      "v": 48
    },
    {
      "midi": 64,
      "hit": false,
      "t": 15652.175999999996,
      "d": 978.2609999999986,
      "v": 48
    },
    {
      "midi": 35,
      "hit": false,
      "t": 16630.436999999994,
      "d": 978.2609999999986,
      "v": 55
    },
    {
      "midi": 35,
      "hit": false,
      "t": 16630.436999999994,
      "d": 978.2609999999986,
      "v": 48
    },
    {
      "midi": 35,
      "hit": false,
      "t": 17608.697999999993,
      "d": 652.1739999999991,
      "v": 56
    },
    {
      "midi": 35,
      "hit": false,
      "t": 17608.697999999993,
      "d": 652.1739999999991,
      "v": 48
    },
    {
      "midi": 33,
      "hit": false,
      "t": 18260.871999999992,
      "d": 978.2609999999986,
      "v": 54
    },
    {
      "midi": 57,
      "hit": false,
      "t": 18260.871999999992,
      "d": 978.2609999999986,
      "v": 53
    },
    {
      "midi": 60,
      "hit": false,
      "t": 18260.871999999992,
      "d": 978.2609999999986,
      "v": 58
    },
    {
      "midi": 33,
      "hit": false,
      "t": 18260.871999999992,
      "d": 978.2609999999986,
      "v": 48
    },
    {
      "midi": 57,
      "hit": false,
      "t": 18260.871999999992,
      "d": 978.2609999999986,
      "v": 48
    },
    {
      "midi": 60,
      "hit": false,
      "t": 18260.871999999992,
      "d": 978.2609999999986,
      "v": 48
    },
    {
      "midi": 57,
      "hit": false,
      "t": 19239.13299999999,
      "d": 652.1739999999991,
      "v": 52
    },
    {
      "midi": 60,
      "hit": false,
      "t": 19239.13299999999,
      "d": 652.1739999999991,
      "v": 60
    },
    {
      "midi": 33,
      "hit": false,
      "t": 19239.13299999999,
      "d": 978.2609999999986,
      "v": 60
    },
    {
      "midi": 57,
      "hit": false,
      "t": 19239.13299999999,
      "d": 652.1739999999991,
      "v": 48
    },
    {
      "midi": 60,
      "hit": false,
      "t": 19239.13299999999,
      "d": 652.1739999999991,
      "v": 48
    },
    {
      "midi": 33,
      "hit": false,
      "t": 19239.13299999999,
      "d": 978.2609999999986,
      "v": 48
    },
    {
      "midi": 57,
      "hit": false,
      "t": 19891.30699999999,
      "d": 326.08699999999953,
      "v": 58
    },
    {
      "midi": 57,
      "hit": false,
      "t": 19891.30699999999,
      "d": 326.08699999999953,
      "v": 48
    },
    {
      "midi": 60,
      "hit": false,
      "t": 20217.39399999999,
      "d": 326.08699999999953,
      "v": 58
    },
    {
      "midi": 45,
      "hit": false,
      "t": 20217.39399999999,
      "d": 652.1739999999991,
      "v": 58
    },
    {
      "midi": 60,
      "hit": false,
      "t": 20217.39399999999,
      "d": 326.08699999999953,
      "v": 48
    },
    {
      "midi": 45,
      "hit": false,
      "t": 20217.39399999999,
      "d": 652.1739999999991,
      "v": 48
    },
    {
      "midi": 64,
      "hit": false,
      "t": 20543.48099999999,
      "d": 326.08699999999953,
      "v": 54
    },
    {
      "midi": 64,
      "hit": false,
      "t": 20543.48099999999,
      "d": 326.08699999999953,
      "v": 48
    },
    {
      "midi": 47,
      "hit": false,
      "t": 20869.56799999999,
      "d": 652.1739999999991,
      "v": 56
    },
    {
      "midi": 59,
      "hit": false,
      "t": 20869.56799999999,
      "d": 1304.3479999999981,
      "v": 55
    },
    {
      "midi": 62,
      "hit": false,
      "t": 20869.56799999999,
      "d": 1304.3479999999981,
      "v": 57
    },
    {
      "midi": 47,
      "hit": false,
      "t": 20869.56799999999,
      "d": 652.1739999999991,
      "v": 48
    },
    {
      "midi": 59,
      "hit": false,
      "t": 20869.56799999999,
      "d": 1304.3479999999981,
      "v": 48
    },
    {
      "midi": 62,
      "hit": false,
      "t": 20869.56799999999,
      "d": 1304.3479999999981,
      "v": 48
    },
    {
      "midi": 47,
      "hit": false,
      "t": 21521.741999999987,
      "d": 652.1739999999991,
      "v": 61
    },
    {
      "midi": 47,
      "hit": false,
      "t": 21521.741999999987,
      "d": 652.1739999999991,
      "v": 48
    },
    {
      "midi": 45,
      "hit": false,
      "t": 22173.915999999987,
      "d": 652.1739999999991,
      "v": 59
    },
    {
      "midi": 61,
      "hit": false,
      "t": 22173.915999999987,
      "d": 1304.3479999999981,
      "v": 54
    },
    {
      "midi": 45,
      "hit": false,
      "t": 22173.915999999987,
      "d": 652.1739999999991,
      "v": 48
    },
    {
      "midi": 61,
      "hit": false,
      "t": 22173.915999999987,
      "d": 1304.3479999999981,
      "v": 48
    },
    {
      "midi": 45,
      "hit": false,
      "t": 22826.089999999986,
      "d": 652.1739999999991,
      "v": 60
    },
    {
      "midi": 45,
      "hit": false,
      "t": 22826.089999999986,
      "d": 652.1739999999991,
      "v": 48
    },
    {
      "midi": 45,
      "hit": false,
      "t": 23478.263999999985,
      "d": 652.1739999999991,
      "v": 52
    },
    {
      "midi": 60,
      "hit": false,
      "t": 23478.263999999985,
      "d": 1630.4349999999977,
      "v": 56
    },
    {
      "midi": 45,
      "hit": false,
      "t": 23478.263999999985,
      "d": 652.1739999999991,
      "v": 48
    },
    {
      "midi": 60,
      "hit": false,
      "t": 23478.263999999985,
      "d": 1630.4349999999977,
      "v": 48
    },
    {
      "midi": 45,
      "hit": false,
      "t": 24130.437999999984,
      "d": 652.1739999999991,
      "v": 56
    },
    {
      "midi": 45,
      "hit": false,
      "t": 24130.437999999984,
      "d": 652.1739999999991,
      "v": 48
    },
    {
      "midi": 45,
      "hit": false,
      "t": 24782.611999999983,
      "d": 652.1739999999991,
      "v": 59
    },
    {
      "midi": 45,
      "hit": false,
      "t": 24782.611999999983,
      "d": 652.1739999999991,
      "v": 48
    },
    {
      "midi": 62,
      "hit": false,
      "t": 25108.698999999982,
      "d": 326.08699999999953,
      "v": 53
    },
    {
      "midi": 62,
      "hit": false,
      "t": 25108.698999999982,
      "d": 326.08699999999953,
      "v": 48
    },
    {
      "midi": 62,
      "hit": false,
      "t": 25434.785999999982,
      "d": 326.08699999999953,
      "v": 57
    },
    {
      "midi": 45,
      "hit": false,
      "t": 25434.785999999982,
      "d": 652.1739999999991,
      "v": 59
    },
    {
      "midi": 62,
      "hit": false,
      "t": 25434.785999999982,
      "d": 326.08699999999953,
      "v": 48
    },
    {
      "midi": 45,
      "hit": false,
      "t": 25434.785999999982,
      "d": 652.1739999999991,
      "v": 48
    },
    {
      "midi": 60,
      "hit": false,
      "t": 25760.87299999998,
      "d": 326.08699999999953,
      "v": 53
    },
    {
      "midi": 60,
      "hit": false,
      "t": 25760.87299999998,
      "d": 326.08699999999953,
      "v": 48
    },
    {
      "midi": 46,
      "hit": false,
      "t": 26086.95999999998,
      "d": 1304.3480000000018,
      "v": 54
    },
    {
      "midi": 62,
      "hit": false,
      "t": 26086.95999999998,
      "d": 1304.3480000000018,
      "v": 56
    },
    {
      "midi": 46,
      "hit": false,
      "t": 26086.95999999998,
      "d": 1304.3480000000018,
      "v": 48
    },
    {
      "midi": 62,
      "hit": false,
      "t": 26086.95999999998,
      "d": 1304.3480000000018,
      "v": 48
    },
    {
      "midi": 60,
      "hit": false,
      "t": 27391.307999999983,
      "d": 978.2609999999986,
      "v": 60
    },
    {
      "midi": 65,
      "hit": false,
      "t": 27391.307999999983,
      "d": 978.2609999999986,
      "v": 57
    },
    {
      "midi": 45,
      "hit": false,
      "t": 27391.307999999983,
      "d": 1304.3479999999981,
      "v": 57
    },
    {
      "midi": 60,
      "hit": false,
      "t": 27391.307999999983,
      "d": 978.2609999999986,
      "v": 48
    },
    {
      "midi": 65,
      "hit": false,
      "t": 27391.307999999983,
      "d": 978.2609999999986,
      "v": 48
    },
    {
      "midi": 45,
      "hit": false,
      "t": 27391.307999999983,
      "d": 1304.3479999999981,
      "v": 48
    },
    {
      "midi": 57,
      "hit": false,
      "t": 28369.56899999998,
      "d": 1304.3479999999981,
      "v": 56
    },
    {
      "midi": 62,
      "hit": false,
      "t": 28369.56899999998,
      "d": 1304.3479999999981,
      "v": 61
    },
    {
      "midi": 57,
      "hit": false,
      "t": 28369.56899999998,
      "d": 1304.3479999999981,
      "v": 48
    },
    {
      "midi": 62,
      "hit": false,
      "t": 28369.56899999998,
      "d": 1304.3479999999981,
      "v": 48
    },
    {
      "midi": 43,
      "hit": false,
      "t": 28695.65599999998,
      "d": 1304.3479999999981,
      "v": 57
    },
    {
      "midi": 43,
      "hit": false,
      "t": 28695.65599999998,
      "d": 1304.3479999999981,
      "v": 48
    },
    {
      "midi": 59,
      "hit": false,
      "t": 29673.91699999998,
      "d": 652.1739999999991,
      "v": 60
    },
    {
      "midi": 62,
      "hit": false,
      "t": 29673.91699999998,
      "d": 652.1739999999991,
      "v": 51
    },
    {
      "midi": 59,
      "hit": false,
      "t": 29673.91699999998,
      "d": 652.1739999999991,
      "v": 48
    },
    {
      "midi": 62,
      "hit": false,
      "t": 29673.91699999998,
      "d": 652.1739999999991,
      "v": 48
    },
    {
      "midi": 43,
      "hit": false,
      "t": 30000.00399999998,
      "d": 978.2609999999986,
      "v": 58
    },
    {
      "midi": 43,
      "hit": false,
      "t": 30000.00399999998,
      "d": 978.2609999999986,
      "v": 48
    },
    {
      "midi": 83,
      "hit": false,
      "t": 31304.351999999977,
      "d": 652.1739999999991,
      "v": 57
    },
    {
      "midi": 86,
      "hit": false,
      "t": 31304.351999999977,
      "d": 652.1739999999991,
      "v": 56
    },
    {
      "midi": 91,
      "hit": false,
      "t": 31304.351999999977,
      "d": 652.1739999999991,
      "v": 55
    },
    {
      "midi": 71,
      "hit": false,
      "t": 31304.351999999977,
      "d": 652.1739999999991,
      "v": 48
    },
    {
      "midi": 74,
      "hit": false,
      "t": 31304.351999999977,
      "d": 652.1739999999991,
      "v": 48
    },
    {
      "midi": 79,
      "hit": false,
      "t": 31304.351999999977,
      "d": 652.1739999999991,
      "v": 48
    },
    {
      "midi": 83,
      "hit": false,
      "t": 31956.525999999976,
      "d": 652.1739999999991,
      "v": 54
    },
    {
      "midi": 86,
      "hit": false,
      "t": 31956.525999999976,
      "d": 652.1739999999991,
      "v": 53
    },
    {
      "midi": 91,
      "hit": false,
      "t": 31956.525999999976,
      "d": 652.1739999999991,
      "v": 51
    },
    {
      "midi": 71,
      "hit": false,
      "t": 31956.525999999976,
      "d": 652.1739999999991,
      "v": 48
    },
    {
      "midi": 74,
      "hit": false,
      "t": 31956.525999999976,
      "d": 652.1739999999991,
      "v": 48
    },
    {
      "midi": 79,
      "hit": false,
      "t": 31956.525999999976,
      "d": 652.1739999999991,
      "v": 48
    },
    {
      "midi": 82,
      "hit": false,
      "t": 32608.699999999975,
      "d": 652.1739999999991,
      "v": 55
    },
    {
      "midi": 85,
      "hit": false,
      "t": 32608.699999999975,
      "d": 652.1739999999991,
      "v": 60
    },
    {
      "midi": 90,
      "hit": false,
      "t": 32608.699999999975,
      "d": 652.1739999999991,
      "v": 61
    },
    {
      "midi": 70,
      "hit": false,
      "t": 32608.699999999975,
      "d": 652.1739999999991,
      "v": 48
    },
    {
      "midi": 73,
      "hit": false,
      "t": 32608.699999999975,
      "d": 652.1739999999991,
      "v": 48
    },
    {
      "midi": 78,
      "hit": false,
      "t": 32608.699999999975,
      "d": 652.1739999999991,
      "v": 48
    },
    {
      "midi": 82,
      "hit": false,
      "t": 33260.873999999974,
      "d": 652.1739999999991,
      "v": 52
    },
    {
      "midi": 85,
      "hit": false,
      "t": 33260.873999999974,
      "d": 652.1739999999991,
      "v": 53
    },
    {
      "midi": 90,
      "hit": false,
      "t": 33260.873999999974,
      "d": 652.1739999999991,
      "v": 57
    },
    {
      "midi": 70,
      "hit": false,
      "t": 33260.873999999974,
      "d": 652.1739999999991,
      "v": 48
    },
    {
      "midi": 73,
      "hit": false,
      "t": 33260.873999999974,
      "d": 652.1739999999991,
      "v": 48
    },
    {
      "midi": 78,
      "hit": false,
      "t": 33260.873999999974,
      "d": 652.1739999999991,
      "v": 48
    },
    {
      "midi": 81,
      "hit": false,
      "t": 33913.04799999997,
      "d": 652.1739999999991,
      "v": 56
    },
    {
      "midi": 84,
      "hit": false,
      "t": 33913.04799999997,
      "d": 652.1739999999991,
      "v": 61
    },
    {
      "midi": 89,
      "hit": false,
      "t": 33913.04799999997,
      "d": 652.1739999999991,
      "v": 56
    },
    {
      "midi": 69,
      "hit": false,
      "t": 33913.04799999997,
      "d": 652.1739999999991,
      "v": 48
    },
    {
      "midi": 72,
      "hit": false,
      "t": 33913.04799999997,
      "d": 652.1739999999991,
      "v": 48
    },
    {
      "midi": 77,
      "hit": false,
      "t": 33913.04799999997,
      "d": 652.1739999999991,
      "v": 48
    },
    {
      "midi": 81,
      "hit": false,
      "t": 34565.22199999997,
      "d": 652.1739999999991,
      "v": 51
    },
    {
      "midi": 84,
      "hit": false,
      "t": 34565.22199999997,
      "d": 652.1739999999991,
      "v": 56
    },
    {
      "midi": 89,
      "hit": false,
      "t": 34565.22199999997,
      "d": 652.1739999999991,
      "v": 56
    },
    {
      "midi": 69,
      "hit": false,
      "t": 34565.22199999997,
      "d": 652.1739999999991,
      "v": 48
    },
    {
      "midi": 72,
      "hit": false,
      "t": 34565.22199999997,
      "d": 652.1739999999991,
      "v": 48
    },
    {
      "midi": 77,
      "hit": false,
      "t": 34565.22199999997,
      "d": 652.1739999999991,
      "v": 48
    },
    {
      "midi": 79,
      "hit": false,
      "t": 35217.39599999997,
      "d": 652.1739999999991,
      "v": 61
    },
    {
      "midi": 83,
      "hit": false,
      "t": 35217.39599999997,
      "d": 652.1739999999991,
      "v": 57
    },
    {
      "midi": 88,
      "hit": false,
      "t": 35217.39599999997,
      "d": 652.1739999999991,
      "v": 53
    },
    {
      "midi": 67,
      "hit": false,
      "t": 35217.39599999997,
      "d": 652.1739999999991,
      "v": 48
    },
    {
      "midi": 71,
      "hit": false,
      "t": 35217.39599999997,
      "d": 652.1739999999991,
      "v": 48
    },
    {
      "midi": 76,
      "hit": false,
      "t": 35217.39599999997,
      "d": 652.1739999999991,
      "v": 48
    },
    {
      "midi": 79,
      "hit": false,
      "t": 35869.56999999997,
      "d": 652.1739999999991,
      "v": 51
    },
    {
      "midi": 83,
      "hit": false,
      "t": 35869.56999999997,
      "d": 652.1739999999991,
      "v": 51
    },
    {
      "midi": 88,
      "hit": false,
      "t": 35869.56999999997,
      "d": 652.1739999999991,
      "v": 59
    },
    {
      "midi": 67,
      "hit": false,
      "t": 35869.56999999997,
      "d": 652.1739999999991,
      "v": 48
    },
    {
      "midi": 71,
      "hit": false,
      "t": 35869.56999999997,
      "d": 652.1739999999991,
      "v": 48
    },
    {
      "midi": 76,
      "hit": false,
      "t": 35869.56999999997,
      "d": 652.1739999999991,
      "v": 48
    },
    {
      "midi": 79,
      "hit": false,
      "t": 36521.74399999997,
      "d": 652.1739999999991,
      "v": 60
    },
    {
      "midi": 82,
      "hit": false,
      "t": 36521.74399999997,
      "d": 652.1739999999991,
      "v": 56
    },
    {
      "midi": 87,
      "hit": false,
      "t": 36521.74399999997,
      "d": 652.1739999999991,
      "v": 56
    },
    {
      "midi": 67,
      "hit": false,
      "t": 36521.74399999997,
      "d": 652.1739999999991,
      "v": 48
    },
    {
      "midi": 70,
      "hit": false,
      "t": 36521.74399999997,
      "d": 652.1739999999991,
      "v": 48
    },
    {
      "midi": 75,
      "hit": false,
      "t": 36521.74399999997,
      "d": 652.1739999999991,
      "v": 48
    },
    {
      "midi": 79,
      "hit": false,
      "t": 37173.91799999997,
      "d": 652.1739999999991,
      "v": 53
    },
    {
      "midi": 82,
      "hit": false,
      "t": 37173.91799999997,
      "d": 652.1739999999991,
      "v": 56
    },
    {
      "midi": 87,
      "hit": false,
      "t": 37173.91799999997,
      "d": 652.1739999999991,
      "v": 56
    },
    {
      "midi": 67,
      "hit": false,
      "t": 37173.91799999997,
      "d": 652.1739999999991,
      "v": 48
    },
    {
      "midi": 70,
      "hit": false,
      "t": 37173.91799999997,
      "d": 652.1739999999991,
      "v": 48
    },
    {
      "midi": 75,
      "hit": false,
      "t": 37173.91799999997,
      "d": 652.1739999999991,
      "v": 48
    },
    {
      "midi": 79,
      "hit": false,
      "t": 37826.09199999997,
      "d": 652.1739999999991,
      "v": 60
    },
    {
      "midi": 82,
      "hit": false,
      "t": 37826.09199999997,
      "d": 652.1739999999991,
      "v": 57
    },
    {
      "midi": 87,
      "hit": false,
      "t": 37826.09199999997,
      "d": 652.1739999999991,
      "v": 56
    },
    {
      "midi": 67,
      "hit": false,
      "t": 37826.09199999997,
      "d": 652.1739999999991,
      "v": 48
    },
    {
      "midi": 70,
      "hit": false,
      "t": 37826.09199999997,
      "d": 652.1739999999991,
      "v": 48
    },
    {
      "midi": 75,
      "hit": false,
      "t": 37826.09199999997,
      "d": 652.1739999999991,
      "v": 48
    },
    {
      "midi": 79,
      "hit": false,
      "t": 38478.26599999997,
      "d": 652.1739999999991,
      "v": 54
    },
    {
      "midi": 82,
      "hit": false,
      "t": 38478.26599999997,
      "d": 652.1739999999991,
      "v": 57
    },
    {
      "midi": 87,
      "hit": false,
      "t": 38478.26599999997,
      "d": 652.1739999999991,
      "v": 56
    },
    {
      "midi": 67,
      "hit": false,
      "t": 38478.26599999997,
      "d": 652.1739999999991,
      "v": 48
    },
    {
      "midi": 70,
      "hit": false,
      "t": 38478.26599999997,
      "d": 652.1739999999991,
      "v": 48
    },
    {
      "midi": 75,
      "hit": false,
      "t": 38478.26599999997,
      "d": 652.1739999999991,
      "v": 48
    },
    {
      "midi": 77,
      "hit": false,
      "t": 39130.439999999966,
      "d": 652.1739999999991,
      "v": 60
    },
    {
      "midi": 81,
      "hit": false,
      "t": 39130.439999999966,
      "d": 652.1739999999991,
      "v": 53
    },
    {
      "midi": 86,
      "hit": false,
      "t": 39130.439999999966,
      "d": 652.1739999999991,
      "v": 59
    },
    {
      "midi": 65,
      "hit": false,
      "t": 39130.439999999966,
      "d": 652.1739999999991,
      "v": 48
    },
    {
      "midi": 69,
      "hit": false,
      "t": 39130.439999999966,
      "d": 652.1739999999991,
      "v": 48
    },
    {
      "midi": 74,
      "hit": false,
      "t": 39130.439999999966,
      "d": 652.1739999999991,
      "v": 48
    },
    {
      "midi": 77,
      "hit": false,
      "t": 39782.613999999965,
      "d": 652.1739999999991,
      "v": 53
    },
    {
      "midi": 81,
      "hit": false,
      "t": 39782.613999999965,
      "d": 652.1739999999991,
      "v": 58
    },
    {
      "midi": 86,
      "hit": false,
      "t": 39782.613999999965,
      "d": 652.1739999999991,
      "v": 59
    },
    {
      "midi": 65,
      "hit": false,
      "t": 39782.613999999965,
      "d": 652.1739999999991,
      "v": 48
    },
    {
      "midi": 69,
      "hit": false,
      "t": 39782.613999999965,
      "d": 652.1739999999991,
      "v": 48
    },
    {
      "midi": 74,
      "hit": false,
      "t": 39782.613999999965,
      "d": 652.1739999999991,
      "v": 48
    },
    {
      "midi": 76,
      "hit": false,
      "t": 40434.787999999964,
      "d": 652.1739999999991,
      "v": 52
    },
    {
      "midi": 79,
      "hit": false,
      "t": 40434.787999999964,
      "d": 652.1739999999991,
      "v": 56
    },
    {
      "midi": 84,
      "hit": false,
      "t": 40434.787999999964,
      "d": 652.1739999999991,
      "v": 54
    },
    {
      "midi": 64,
      "hit": false,
      "t": 40434.787999999964,
      "d": 652.1739999999991,
      "v": 48
    },
    {
      "midi": 67,
      "hit": false,
      "t": 40434.787999999964,
      "d": 652.1739999999991,
      "v": 48
    },
    {
      "midi": 72,
      "hit": false,
      "t": 40434.787999999964,
      "d": 652.1739999999991,
      "v": 48
    },
    {
      "midi": 76,
      "hit": false,
      "t": 41086.96199999996,
      "d": 652.1739999999991,
      "v": 51
    },
    {
      "midi": 79,
      "hit": false,
      "t": 41086.96199999996,
      "d": 652.1739999999991,
      "v": 56
    },
    {
      "midi": 84,
      "hit": false,
      "t": 41086.96199999996,
      "d": 652.1739999999991,
      "v": 58
    },
    {
      "midi": 64,
      "hit": false,
      "t": 41086.96199999996,
      "d": 652.1739999999991,
      "v": 48
    },
    {
      "midi": 67,
      "hit": false,
      "t": 41086.96199999996,
      "d": 652.1739999999991,
      "v": 48
    },
    {
      "midi": 72,
      "hit": false,
      "t": 41086.96199999996,
      "d": 652.1739999999991,
      "v": 48
    },
    {
      "midi": 74,
      "hit": false,
      "t": 41739.13599999996,
      "d": 652.1739999999991,
      "v": 55
    },
    {
      "midi": 79,
      "hit": false,
      "t": 41739.13599999996,
      "d": 652.1739999999991,
      "v": 60
    },
    {
      "midi": 83,
      "hit": false,
      "t": 41739.13599999996,
      "d": 652.1739999999991,
      "v": 54
    },
    {
      "midi": 62,
      "hit": false,
      "t": 41739.13599999996,
      "d": 652.1739999999991,
      "v": 48
    },
    {
      "midi": 67,
      "hit": false,
      "t": 41739.13599999996,
      "d": 652.1739999999991,
      "v": 48
    },
    {
      "midi": 71,
      "hit": false,
      "t": 41739.13599999996,
      "d": 652.1739999999991,
      "v": 48
    },
    {
      "midi": 74,
      "hit": false,
      "t": 42391.30999999996,
      "d": 652.1739999999991,
      "v": 58
    },
    {
      "midi": 79,
      "hit": false,
      "t": 42391.30999999996,
      "d": 652.1739999999991,
      "v": 54
    },
    {
      "midi": 83,
      "hit": false,
      "t": 42391.30999999996,
      "d": 652.1739999999991,
      "v": 56
    },
    {
      "midi": 62,
      "hit": false,
      "t": 42391.30999999996,
      "d": 652.1739999999991,
      "v": 48
    },
    {
      "midi": 67,
      "hit": false,
      "t": 42391.30999999996,
      "d": 652.1739999999991,
      "v": 48
    },
    {
      "midi": 71,
      "hit": false,
      "t": 42391.30999999996,
      "d": 652.1739999999991,
      "v": 48
    },
    {
      "midi": 72,
      "hit": false,
      "t": 43043.48399999996,
      "d": 652.1739999999991,
      "v": 52
    },
    {
      "midi": 77,
      "hit": false,
      "t": 43043.48399999996,
      "d": 652.1739999999991,
      "v": 59
    },
    {
      "midi": 81,
      "hit": false,
      "t": 43043.48399999996,
      "d": 652.1739999999991,
      "v": 61
    },
    {
      "midi": 60,
      "hit": false,
      "t": 43043.48399999996,
      "d": 652.1739999999991,
      "v": 48
    },
    {
      "midi": 65,
      "hit": false,
      "t": 43043.48399999996,
      "d": 652.1739999999991,
      "v": 48
    },
    {
      "midi": 69,
      "hit": false,
      "t": 43043.48399999996,
      "d": 652.1739999999991,
      "v": 48
    },
    {
      "midi": 72,
      "hit": false,
      "t": 43695.65799999996,
      "d": 652.1739999999991,
      "v": 57
    },
    {
      "midi": 77,
      "hit": false,
      "t": 43695.65799999996,
      "d": 652.1739999999991,
      "v": 61
    },
    {
      "midi": 81,
      "hit": false,
      "t": 43695.65799999996,
      "d": 652.1739999999991,
      "v": 55
    },
    {
      "midi": 60,
      "hit": false,
      "t": 43695.65799999996,
      "d": 652.1739999999991,
      "v": 48
    },
    {
      "midi": 65,
      "hit": false,
      "t": 43695.65799999996,
      "d": 652.1739999999991,
      "v": 48
    },
    {
      "midi": 69,
      "hit": false,
      "t": 43695.65799999996,
      "d": 652.1739999999991,
      "v": 48
    },
    {
      "midi": 72,
      "hit": false,
      "t": 44347.83199999996,
      "d": 1304.3479999999981,
      "v": 53
    },
    {
      "midi": 75,
      "hit": false,
      "t": 44347.83199999996,
      "d": 1304.3479999999981,
      "v": 59
    },
    {
      "midi": 80,
      "hit": false,
      "t": 44347.83199999996,
      "d": 1304.3479999999981,
      "v": 61
    },
    {
      "midi": 72,
      "hit": false,
      "t": 44347.83199999996,
      "d": 1304.3479999999981,
      "v": 48
    },
    {
      "midi": 75,
      "hit": false,
      "t": 44347.83199999996,
      "d": 1304.3479999999981,
      "v": 48
    },
    {
      "midi": 80,
      "hit": false,
      "t": 44347.83199999996,
      "d": 1304.3479999999981,
      "v": 48
    },
    {
      "midi": 70,
      "hit": false,
      "t": 45652.17999999996,
      "d": 326.08699999999953,
      "v": 54
    },
    {
      "midi": 48,
      "hit": false,
      "t": 45652.17999999996,
      "d": 1304.3479999999981,
      "v": 61
    },
    {
      "midi": 63,
      "hit": false,
      "t": 45652.17999999996,
      "d": 1304.3479999999981,
      "v": 60
    },
    {
      "midi": 70,
      "hit": false,
      "t": 45652.17999999996,
      "d": 326.08699999999953,
      "v": 48
    },
    {
      "midi": 48,
      "hit": false,
      "t": 45652.17999999996,
      "d": 1304.3479999999981,
      "v": 48
    },
    {
      "midi": 63,
      "hit": false,
      "t": 45652.17999999996,
      "d": 1304.3479999999981,
      "v": 48
    },
    {
      "midi": 68,
      "hit": false,
      "t": 45978.266999999956,
      "d": 163.04349999999977,
      "v": 61
    },
    {
      "midi": 68,
      "hit": false,
      "t": 45978.266999999956,
      "d": 163.04349999999977,
      "v": 48
    },
    {
      "midi": 67,
      "hit": false,
      "t": 46141.310499999956,
      "d": 163.04349999999977,
      "v": 56
    },
    {
      "midi": 67,
      "hit": false,
      "t": 46141.310499999956,
      "d": 163.04349999999977,
      "v": 48
    },
    {
      "midi": 68,
      "hit": false,
      "t": 46304.353999999956,
      "d": 652.1739999999991,
      "v": 61
    },
    {
      "midi": 68,
      "hit": false,
      "t": 46304.353999999956,
      "d": 652.1739999999991,
      "v": 48
    },
    {
      "midi": 48,
      "hit": false,
      "t": 46956.527999999955,
      "d": 652.1739999999991,
      "v": 51
    },
    {
      "midi": 60,
      "hit": false,
      "t": 46956.527999999955,
      "d": 978.2609999999986,
      "v": 56
    },
    {
      "midi": 64,
      "hit": false,
      "t": 46956.527999999955,
      "d": 978.2609999999986,
      "v": 56
    },
    {
      "midi": 48,
      "hit": false,
      "t": 46956.527999999955,
      "d": 652.1739999999991,
      "v": 48
    },
    {
      "midi": 60,
      "hit": false,
      "t": 46956.527999999955,
      "d": 978.2609999999986,
      "v": 48
    },
    {
      "midi": 64,
      "hit": false,
      "t": 46956.527999999955,
      "d": 978.2609999999986,
      "v": 48
    },
    {
      "midi": 48,
      "hit": false,
      "t": 47608.701999999954,
      "d": 326.08699999999953,
      "v": 54
    },
    {
      "midi": 48,
      "hit": false,
      "t": 47608.701999999954,
      "d": 326.08699999999953,
      "v": 48
    },
    {
      "midi": 43,
      "hit": false,
      "t": 47934.78899999995,
      "d": 326.08699999999953,
      "v": 56
    },
    {
      "midi": 59,
      "hit": false,
      "t": 47934.78899999995,
      "d": 326.08699999999953,
      "v": 56
    },
    {
      "midi": 62,
      "hit": false,
      "t": 47934.78899999995,
      "d": 326.08699999999953,
      "v": 53
    },
    {
      "midi": 43,
      "hit": false,
      "t": 47934.78899999995,
      "d": 326.08699999999953,
      "v": 48
    },
    {
      "midi": 59,
      "hit": false,
      "t": 47934.78899999995,
      "d": 326.08699999999953,
      "v": 48
    },
    {
      "midi": 62,
      "hit": false,
      "t": 47934.78899999995,
      "d": 326.08699999999953,
      "v": 48
    },
    {
      "midi": 48,
      "hit": false,
      "t": 48260.87599999995,
      "d": 652.1739999999991,
      "v": 54
    },
    {
      "midi": 60,
      "hit": false,
      "t": 48260.87599999995,
      "d": 652.1739999999991,
      "v": 55
    },
    {
      "midi": 64,
      "hit": false,
      "t": 48260.87599999995,
      "d": 652.1739999999991,
      "v": 53
    },
    {
      "midi": 48,
      "hit": false,
      "t": 48260.87599999995,
      "d": 652.1739999999991,
      "v": 48
    },
    {
      "midi": 60,
      "hit": false,
      "t": 48260.87599999995,
      "d": 652.1739999999991,
      "v": 48
    },
    {
      "midi": 64,
      "hit": false,
      "t": 48260.87599999995,
      "d": 652.1739999999991,
      "v": 48
    },
    {
      "midi": 48,
      "hit": false,
      "t": 48913.04999999995,
      "d": 652.1739999999991,
      "v": 56
    },
    {
      "midi": 60,
      "hit": false,
      "t": 48913.04999999995,
      "d": 652.1739999999991,
      "v": 51
    },
    {
      "midi": 64,
      "hit": false,
      "t": 48913.04999999995,
      "d": 652.1739999999991,
      "v": 61
    },
    {
      "midi": 48,
      "hit": false,
      "t": 48913.04999999995,
      "d": 652.1739999999991,
      "v": 48
    },
    {
      "midi": 60,
      "hit": false,
      "t": 48913.04999999995,
      "d": 652.1739999999991,
      "v": 48
    },
    {
      "midi": 64,
      "hit": false,
      "t": 48913.04999999995,
      "d": 652.1739999999991,
      "v": 48
    },
    {
      "midi": 46,
      "hit": false,
      "t": 49565.22399999995,
      "d": 652.1739999999991,
      "v": 56
    },
    {
      "midi": 62,
      "hit": false,
      "t": 49565.22399999995,
      "d": 978.2609999999986,
      "v": 59
    },
    {
      "midi": 46,
      "hit": false,
      "t": 49565.22399999995,
      "d": 652.1739999999991,
      "v": 48
    },
    {
      "midi": 62,
      "hit": false,
      "t": 49565.22399999995,
      "d": 978.2609999999986,
      "v": 48
    },
    {
      "midi": 46,
      "hit": false,
      "t": 50217.39799999995,
      "d": 326.08699999999953,
      "v": 55
    },
    {
      "midi": 46,
      "hit": false,
      "t": 50217.39799999995,
      "d": 326.08699999999953,
      "v": 48
    },
    {
      "midi": 41,
      "hit": false,
      "t": 50543.48499999995,
      "d": 326.08699999999953,
      "v": 52
    },
    {
      "midi": 57,
      "hit": false,
      "t": 50543.48499999995,
      "d": 326.08699999999953,
      "v": 51
    },
    {
      "midi": 60,
      "hit": false,
      "t": 50543.48499999995,
      "d": 326.08699999999953,
      "v": 52
    },
    {
      "midi": 41,
      "hit": false,
      "t": 50543.48499999995,
      "d": 326.08699999999953,
      "v": 48
    },
    {
      "midi": 57,
      "hit": false,
      "t": 50543.48499999995,
      "d": 326.08699999999953,
      "v": 48
    },
    {
      "midi": 60,
      "hit": false,
      "t": 50543.48499999995,
      "d": 326.08699999999953,
      "v": 48
    },
    {
      "midi": 46,
      "hit": false,
      "t": 50869.57199999995,
      "d": 652.1739999999991,
      "v": 56
    },
    {
      "midi": 58,
      "hit": false,
      "t": 50869.57199999995,
      "d": 978.2609999999986,
      "v": 55
    },
    {
      "midi": 62,
      "hit": false,
      "t": 50869.57199999995,
      "d": 978.2609999999986,
      "v": 59
    },
    {
      "midi": 46,
      "hit": false,
      "t": 50869.57199999995,
      "d": 652.1739999999991,
      "v": 48
    },
    {
      "midi": 58,
      "hit": false,
      "t": 50869.57199999995,
      "d": 978.2609999999986,
      "v": 48
    },
    {
      "midi": 62,
      "hit": false,
      "t": 50869.57199999995,
      "d": 978.2609999999986,
      "v": 48
    },
    {
      "midi": 46,
      "hit": false,
      "t": 51521.74599999995,
      "d": 326.08699999999953,
      "v": 55
    },
    {
      "midi": 46,
      "hit": false,
      "t": 51521.74599999995,
      "d": 326.08699999999953,
      "v": 48
    },
    {
      "midi": 45,
      "hit": false,
      "t": 51847.83299999995,
      "d": 326.08699999999953,
      "v": 58
    },
    {
      "midi": 60,
      "hit": false,
      "t": 51847.83299999995,
      "d": 326.08699999999953,
      "v": 58
    },
    {
      "midi": 45,
      "hit": false,
      "t": 51847.83299999995,
      "d": 326.08699999999953,
      "v": 48
    },
    {
      "midi": 60,
      "hit": false,
      "t": 51847.83299999995,
      "d": 326.08699999999953,
      "v": 48
    },
    {
      "midi": 46,
      "hit": false,
      "t": 52173.91999999995,
      "d": 652.1739999999991,
      "v": 51
    },
    {
      "midi": 62,
      "hit": false,
      "t": 52173.91999999995,
      "d": 1304.3479999999981,
      "v": 51
    },
    {
      "midi": 46,
      "hit": false,
      "t": 52173.91999999995,
      "d": 652.1739999999991,
      "v": 48
    },
    {
      "midi": 62,
      "hit": false,
      "t": 52173.91999999995,
      "d": 1304.3479999999981,
      "v": 48
    },
    {
      "midi": 46,
      "hit": false,
      "t": 52826.09399999995,
      "d": 652.1739999999991,
      "v": 61
    },
    {
      "midi": 46,
      "hit": false,
      "t": 52826.09399999995,
      "d": 652.1739999999991,
      "v": 48
    },
    {
      "midi": 45,
      "hit": false,
      "t": 53478.267999999945,
      "d": 652.1739999999991,
      "v": 57
    },
    {
      "midi": 60,
      "hit": false,
      "t": 53478.267999999945,
      "d": 1304.3479999999981,
      "v": 56
    },
    {
      "midi": 65,
      "hit": false,
      "t": 53478.267999999945,
      "d": 1304.3479999999981,
      "v": 61
    },
    {
      "midi": 45,
      "hit": false,
      "t": 53478.267999999945,
      "d": 652.1739999999991,
      "v": 48
    },
    {
      "midi": 60,
      "hit": false,
      "t": 53478.267999999945,
      "d": 1304.3479999999981,
      "v": 48
    },
    {
      "midi": 65,
      "hit": false,
      "t": 53478.267999999945,
      "d": 1304.3479999999981,
      "v": 48
    },
    {
      "midi": 45,
      "hit": false,
      "t": 54130.441999999945,
      "d": 652.1739999999991,
      "v": 51
    },
    {
      "midi": 45,
      "hit": false,
      "t": 54130.441999999945,
      "d": 652.1739999999991,
      "v": 48
    },
    {
      "midi": 36,
      "hit": false,
      "t": 54782.61599999994,
      "d": 652.1739999999991,
      "v": 60
    },
    {
      "midi": 36,
      "hit": false,
      "t": 54782.61599999994,
      "d": 652.1739999999991,
      "v": 60
    },
    {
      "midi": 55,
      "hit": false,
      "t": 55434.78999999994,
      "d": 163.04349999999977,
      "v": 60
    },
    {
      "midi": 36,
      "hit": false,
      "t": 55434.78999999994,
      "d": 1956.5219999999972,
      "v": 60
    },
    {
      "midi": 55,
      "hit": false,
      "t": 55434.78999999994,
      "d": 163.04349999999977,
      "v": 60
    },
    {
      "midi": 36,
      "hit": false,
      "t": 55434.78999999994,
      "d": 1956.5219999999972,
      "v": 60
    },
    {
      "midi": 60,
      "hit": false,
      "t": 55597.83349999994,
      "d": 163.04349999999977,
      "v": 60
    },
    {
      "midi": 60,
      "hit": false,
      "t": 55597.83349999994,
      "d": 163.04349999999977,
      "v": 60
    },
    {
      "midi": 62,
      "hit": false,
      "t": 55760.87699999994,
      "d": 163.04349999999977,
      "v": 60
    },
    {
      "midi": 62,
      "hit": false,
      "t": 55760.87699999994,
      "d": 163.04349999999977,
      "v": 60
    },
    {
      "midi": 67,
      "hit": false,
      "t": 55923.92049999994,
      "d": 163.04349999999977,
      "v": 60
    },
    {
      "midi": 67,
      "hit": false,
      "t": 55923.92049999994,
      "d": 163.04349999999977,
      "v": 60
    },
    {
      "midi": 67,
      "hit": false,
      "t": 56086.96399999994,
      "d": 163.04349999999977,
      "v": 60
    },
    {
      "midi": 67,
      "hit": false,
      "t": 56086.96399999994,
      "d": 163.04349999999977,
      "v": 60
    },
    {
      "midi": 72,
      "hit": false,
      "t": 56250.00749999994,
      "d": 163.04349999999977,
      "v": 60
    },
    {
      "midi": 72,
      "hit": false,
      "t": 56250.00749999994,
      "d": 163.04349999999977,
      "v": 60
    },
    {
      "midi": 74,
      "hit": false,
      "t": 56413.05099999994,
      "d": 163.04349999999977,
      "v": 60
    },
    {
      "midi": 74,
      "hit": false,
      "t": 56413.05099999994,
      "d": 163.04349999999977,
      "v": 60
    },
    {
      "midi": 79,
      "hit": false,
      "t": 56576.09449999994,
      "d": 163.04349999999977,
      "v": 60
    },
    {
      "midi": 79,
      "hit": false,
      "t": 56576.09449999994,
      "d": 163.04349999999977,
      "v": 60
    },
    {
      "midi": 72,
      "hit": false,
      "t": 56739.13799999994,
      "d": 163.04349999999977,
      "v": 60
    },
    {
      "midi": 72,
      "hit": false,
      "t": 56739.13799999994,
      "d": 163.04349999999977,
      "v": 60
    },
    {
      "midi": 74,
      "hit": false,
      "t": 56902.18149999994,
      "d": 163.04349999999977,
      "v": 60
    },
    {
      "midi": 74,
      "hit": false,
      "t": 56902.18149999994,
      "d": 163.04349999999977,
      "v": 60
    },
    {
      "midi": 79,
      "hit": false,
      "t": 57065.22499999994,
      "d": 163.04349999999977,
      "v": 60
    },
    {
      "midi": 79,
      "hit": false,
      "t": 57065.22499999994,
      "d": 163.04349999999977,
      "v": 60
    },
    {
      "midi": 74,
      "hit": false,
      "t": 57228.26849999994,
      "d": 163.04349999999977,
      "v": 60
    },
    {
      "midi": 74,
      "hit": false,
      "t": 57228.26849999994,
      "d": 163.04349999999977,
      "v": 60
    },
    {
      "midi": 48,
      "hit": false,
      "t": 57391.31199999994,
      "d": 652.1739999999991,
      "v": 51
    },
    {
      "midi": 60,
      "hit": false,
      "t": 57391.31199999994,
      "d": 978.2609999999986,
      "v": 56
    },
    {
      "midi": 64,
      "hit": false,
      "t": 57391.31199999994,
      "d": 978.2609999999986,
      "v": 60
    },
    {
      "midi": 48,
      "hit": false,
      "t": 57391.31199999994,
      "d": 652.1739999999991,
      "v": 48
    },
    {
      "midi": 60,
      "hit": false,
      "t": 57391.31199999994,
      "d": 978.2609999999986,
      "v": 48
    },
    {
      "midi": 64,
      "hit": false,
      "t": 57391.31199999994,
      "d": 978.2609999999986,
      "v": 48
    },
    {
      "midi": 48,
      "hit": false,
      "t": 58043.48599999994,
      "d": 326.08699999999953,
      "v": 58
    },
    {
      "midi": 48,
      "hit": false,
      "t": 58043.48599999994,
      "d": 326.08699999999953,
      "v": 48
    },
    {
      "midi": 43,
      "hit": false,
      "t": 58369.57299999994,
      "d": 326.08699999999953,
      "v": 54
    },
    {
      "midi": 59,
      "hit": false,
      "t": 58369.57299999994,
      "d": 326.08699999999953,
      "v": 53
    },
    {
      "midi": 62,
      "hit": false,
      "t": 58369.57299999994,
      "d": 326.08699999999953,
      "v": 51
    },
    {
      "midi": 43,
      "hit": false,
      "t": 58369.57299999994,
      "d": 326.08699999999953,
      "v": 48
    },
    {
      "midi": 59,
      "hit": false,
      "t": 58369.57299999994,
      "d": 326.08699999999953,
      "v": 48
    },
    {
      "midi": 62,
      "hit": false,
      "t": 58369.57299999994,
      "d": 326.08699999999953,
      "v": 48
    },
    {
      "midi": 48,
      "hit": false,
      "t": 58695.65999999994,
      "d": 652.1739999999991,
      "v": 61
    },
    {
      "midi": 60,
      "hit": false,
      "t": 58695.65999999994,
      "d": 652.1739999999991,
      "v": 55
    },
    {
      "midi": 64,
      "hit": false,
      "t": 58695.65999999994,
      "d": 652.1739999999991,
      "v": 60
    },
    {
      "midi": 48,
      "hit": false,
      "t": 58695.65999999994,
      "d": 652.1739999999991,
      "v": 48
    },
    {
      "midi": 60,
      "hit": false,
      "t": 58695.65999999994,
      "d": 652.1739999999991,
      "v": 48
    },
    {
      "midi": 64,
      "hit": false,
      "t": 58695.65999999994,
      "d": 652.1739999999991,
      "v": 48
    },
    {
      "midi": 48,
      "hit": false,
      "t": 59347.83399999994,
      "d": 652.1739999999991,
      "v": 61
    },
    {
      "midi": 60,
      "hit": false,
      "t": 59347.83399999994,
      "d": 652.1739999999991,
      "v": 53
    },
    {
      "midi": 64,
      "hit": false,
      "t": 59347.83399999994,
      "d": 652.1739999999991,
      "v": 58
    },
    {
      "midi": 48,
      "hit": false,
      "t": 59347.83399999994,
      "d": 652.1739999999991,
      "v": 48
    },
    {
      "midi": 60,
      "hit": false,
      "t": 59347.83399999994,
      "d": 652.1739999999991,
      "v": 48
    },
    {
      "midi": 64,
      "hit": false,
      "t": 59347.83399999994,
      "d": 652.1739999999991,
      "v": 48
    },
    {
      "midi": 46,
      "hit": false,
      "t": 60000.007999999936,
      "d": 652.1739999999991,
      "v": 55
    },
    {
      "midi": 62,
      "hit": false,
      "t": 60000.007999999936,
      "d": 978.2609999999986,
      "v": 56
    },
    {
      "midi": 46,
      "hit": false,
      "t": 60000.007999999936,
      "d": 652.1739999999991,
      "v": 48
    },
    {
      "midi": 62,
      "hit": false,
      "t": 60000.007999999936,
      "d": 978.2609999999986,
      "v": 48
    },
    {
      "midi": 46,
      "hit": false,
      "t": 60652.181999999935,
      "d": 326.08699999999953,
      "v": 61
    },
    {
      "midi": 46,
      "hit": false,
      "t": 60652.181999999935,
      "d": 326.08699999999953,
      "v": 48
    },
    {
      "midi": 41,
      "hit": false,
      "t": 60978.268999999935,
      "d": 326.08699999999953,
      "v": 61
    },
    {
      "midi": 57,
      "hit": false,
      "t": 60978.268999999935,
      "d": 326.08699999999953,
      "v": 59
    },
    {
      "midi": 60,
      "hit": false,
      "t": 60978.268999999935,
      "d": 326.08699999999953,
      "v": 59
    },
    {
      "midi": 41,
      "hit": false,
      "t": 60978.268999999935,
      "d": 326.08699999999953,
      "v": 48
    },
    {
      "midi": 57,
      "hit": false,
      "t": 60978.268999999935,
      "d": 326.08699999999953,
      "v": 48
    },
    {
      "midi": 60,
      "hit": false,
      "t": 60978.268999999935,
      "d": 326.08699999999953,
      "v": 48
    },
    {
      "midi": 46,
      "hit": false,
      "t": 61304.355999999934,
      "d": 652.1739999999991,
      "v": 52
    },
    {
      "midi": 58,
      "hit": false,
      "t": 61304.355999999934,
      "d": 978.2609999999986,
      "v": 51
    },
    {
      "midi": 62,
      "hit": false,
      "t": 61304.355999999934,
      "d": 978.2609999999986,
      "v": 59
    },
    {
      "midi": 46,
      "hit": false,
      "t": 61304.355999999934,
      "d": 652.1739999999991,
      "v": 48
    },
    {
      "midi": 58,
      "hit": false,
      "t": 61304.355999999934,
      "d": 978.2609999999986,
      "v": 48
    },
    {
      "midi": 62,
      "hit": false,
      "t": 61304.355999999934,
      "d": 978.2609999999986,
      "v": 48
    },
    {
      "midi": 46,
      "hit": false,
      "t": 61956.52999999993,
      "d": 326.08699999999953,
      "v": 55
    },
    {
      "midi": 46,
      "hit": false,
      "t": 61956.52999999993,
      "d": 326.08699999999953,
      "v": 48
    },
    {
      "midi": 45,
      "hit": false,
      "t": 62282.61699999993,
      "d": 326.08699999999953,
      "v": 56
    },
    {
      "midi": 60,
      "hit": false,
      "t": 62282.61699999993,
      "d": 326.08699999999953,
      "v": 56
    },
    {
      "midi": 45,
      "hit": false,
      "t": 62282.61699999993,
      "d": 326.08699999999953,
      "v": 48
    },
    {
      "midi": 60,
      "hit": false,
      "t": 62282.61699999993,
      "d": 326.08699999999953,
      "v": 48
    },
    {
      "midi": 46,
      "hit": false,
      "t": 62608.70399999993,
      "d": 652.1739999999991,
      "v": 59
    },
    {
      "midi": 62,
      "hit": false,
      "t": 62608.70399999993,
      "d": 1304.3479999999981,
      "v": 58
    },
    {
      "midi": 46,
      "hit": false,
      "t": 62608.70399999993,
      "d": 652.1739999999991,
      "v": 48
    },
    {
      "midi": 62,
      "hit": false,
      "t": 62608.70399999993,
      "d": 1304.3479999999981,
      "v": 48
    },
    {
      "midi": 46,
      "hit": false,
      "t": 63260.87799999993,
      "d": 652.1739999999991,
      "v": 51
    },
    {
      "midi": 46,
      "hit": false,
      "t": 63260.87799999993,
      "d": 652.1739999999991,
      "v": 48
    },
    {
      "midi": 45,
      "hit": false,
      "t": 63913.05199999993,
      "d": 652.1739999999991,
      "v": 56
    },
    {
      "midi": 60,
      "hit": false,
      "t": 63913.05199999993,
      "d": 1304.3479999999981,
      "v": 61
    },
    {
      "midi": 65,
      "hit": false,
      "t": 63913.05199999993,
      "d": 1304.3479999999981,
      "v": 55
    },
    {
      "midi": 45,
      "hit": false,
      "t": 63913.05199999993,
      "d": 652.1739999999991,
      "v": 48
    },
    {
      "midi": 60,
      "hit": false,
      "t": 63913.05199999993,
      "d": 1304.3479999999981,
      "v": 48
    },
    {
      "midi": 65,
      "hit": false,
      "t": 63913.05199999993,
      "d": 1304.3479999999981,
      "v": 48
    },
    {
      "midi": 45,
      "hit": false,
      "t": 64565.22599999993,
      "d": 652.1739999999991,
      "v": 52
    },
    {
      "midi": 45,
      "hit": false,
      "t": 64565.22599999993,
      "d": 652.1739999999991,
      "v": 48
    },
    {
      "midi": 36,
      "hit": false,
      "t": 65217.39999999993,
      "d": 652.1740000000063,
      "v": 60
    },
    {
      "midi": 36,
      "hit": false,
      "t": 65217.39999999993,
      "d": 652.1740000000063,
      "v": 60
    },
    {
      "midi": 55,
      "hit": false,
      "t": 65869.57399999994,
      "d": 163.04349999999977,
      "v": 60
    },
    {
      "midi": 36,
      "hit": false,
      "t": 65869.57399999994,
      "d": 1956.5219999999972,
      "v": 60
    },
    {
      "midi": 55,
      "hit": false,
      "t": 65869.57399999994,
      "d": 163.04349999999977,
      "v": 60
    },
    {
      "midi": 36,
      "hit": false,
      "t": 65869.57399999994,
      "d": 1956.5219999999972,
      "v": 60
    },
    {
      "midi": 60,
      "hit": false,
      "t": 66032.61749999993,
      "d": 163.04349999999977,
      "v": 60
    },
    {
      "midi": 60,
      "hit": false,
      "t": 66032.61749999993,
      "d": 163.04349999999977,
      "v": 60
    },
    {
      "midi": 62,
      "hit": false,
      "t": 66195.66099999993,
      "d": 163.04349999999977,
      "v": 60
    },
    {
      "midi": 62,
      "hit": false,
      "t": 66195.66099999993,
      "d": 163.04349999999977,
      "v": 60
    },
    {
      "midi": 67,
      "hit": false,
      "t": 66358.70449999993,
      "d": 163.04349999999977,
      "v": 60
    },
    {
      "midi": 67,
      "hit": false,
      "t": 66358.70449999993,
      "d": 163.04349999999977,
      "v": 60
    },
    {
      "midi": 67,
      "hit": false,
      "t": 66521.74799999993,
      "d": 163.04349999999977,
      "v": 60
    },
    {
      "midi": 67,
      "hit": false,
      "t": 66521.74799999993,
      "d": 163.04349999999977,
      "v": 60
    },
    {
      "midi": 72,
      "hit": false,
      "t": 66684.79149999993,
      "d": 163.04349999999977,
      "v": 60
    },
    {
      "midi": 72,
      "hit": false,
      "t": 66684.79149999993,
      "d": 163.04349999999977,
      "v": 60
    },
    {
      "midi": 74,
      "hit": false,
      "t": 66847.83499999993,
      "d": 163.04349999999977,
      "v": 60
    },
    {
      "midi": 74,
      "hit": false,
      "t": 66847.83499999993,
      "d": 163.04349999999977,
      "v": 60
    },
    {
      "midi": 79,
      "hit": false,
      "t": 67010.87849999993,
      "d": 163.04349999999977,
      "v": 60
    },
    {
      "midi": 79,
      "hit": false,
      "t": 67010.87849999993,
      "d": 163.04349999999977,
      "v": 60
    },
    {
      "midi": 72,
      "hit": false,
      "t": 67173.92199999993,
      "d": 163.04349999999977,
      "v": 60
    },
    {
      "midi": 72,
      "hit": false,
      "t": 67173.92199999993,
      "d": 163.04349999999977,
      "v": 60
    },
    {
      "midi": 74,
      "hit": false,
      "t": 67336.96549999993,
      "d": 163.04349999999977,
      "v": 60
    },
    {
      "midi": 74,
      "hit": false,
      "t": 67336.96549999993,
      "d": 163.04349999999977,
      "v": 60
    },
    {
      "midi": 79,
      "hit": false,
      "t": 67500.00899999993,
      "d": 163.04349999999977,
      "v": 60
    },
    {
      "midi": 79,
      "hit": false,
      "t": 67500.00899999993,
      "d": 163.04349999999977,
      "v": 60
    },
    {
      "midi": 74,
      "hit": false,
      "t": 67663.05249999993,
      "d": 163.04349999999977,
      "v": 60
    },
    {
      "midi": 74,
      "hit": false,
      "t": 67663.05249999993,
      "d": 163.04349999999977,
      "v": 60
    },
    {
      "midi": 36,
      "hit": false,
      "t": 67826.09599999993,
      "d": 652.1739999999991,
      "v": 60
    },
    {
      "midi": 36,
      "hit": false,
      "t": 67826.09599999993,
      "d": 652.1739999999991,
      "v": 60
    },
    {
      "midi": 55,
      "hit": false,
      "t": 68478.26999999993,
      "d": 163.04349999999977,
      "v": 60
    },
    {
      "midi": 36,
      "hit": false,
      "t": 68478.26999999993,
      "d": 1956.5219999999972,
      "v": 60
    },
    {
      "midi": 55,
      "hit": false,
      "t": 68478.26999999993,
      "d": 163.04349999999977,
      "v": 60
    },
    {
      "midi": 36,
      "hit": false,
      "t": 68478.26999999993,
      "d": 1956.5219999999972,
      "v": 60
    },
    {
      "midi": 60,
      "hit": false,
      "t": 68641.31349999993,
      "d": 163.04349999999977,
      "v": 60
    },
    {
      "midi": 60,
      "hit": false,
      "t": 68641.31349999993,
      "d": 163.04349999999977,
      "v": 60
    },
    {
      "midi": 62,
      "hit": false,
      "t": 68804.35699999993,
      "d": 163.04349999999977,
      "v": 60
    },
    {
      "midi": 62,
      "hit": false,
      "t": 68804.35699999993,
      "d": 163.04349999999977,
      "v": 60
    },
    {
      "midi": 67,
      "hit": false,
      "t": 68967.40049999993,
      "d": 163.04349999999977,
      "v": 60
    },
    {
      "midi": 67,
      "hit": false,
      "t": 68967.40049999993,
      "d": 163.04349999999977,
      "v": 60
    },
    {
      "midi": 67,
      "hit": false,
      "t": 69130.44399999993,
      "d": 163.04349999999977,
      "v": 60
    },
    {
      "midi": 67,
      "hit": false,
      "t": 69130.44399999993,
      "d": 163.04349999999977,
      "v": 60
    },
    {
      "midi": 72,
      "hit": false,
      "t": 69293.48749999993,
      "d": 163.04349999999977,
      "v": 60
    },
    {
      "midi": 72,
      "hit": false,
      "t": 69293.48749999993,
      "d": 163.04349999999977,
      "v": 60
    },
    {
      "midi": 74,
      "hit": false,
      "t": 69456.53099999993,
      "d": 163.04349999999977,
      "v": 60
    },
    {
      "midi": 74,
      "hit": false,
      "t": 69456.53099999993,
      "d": 163.04349999999977,
      "v": 60
    },
    {
      "midi": 79,
      "hit": false,
      "t": 69619.57449999993,
      "d": 163.04349999999977,
      "v": 60
    },
    {
      "midi": 79,
      "hit": false,
      "t": 69619.57449999993,
      "d": 163.04349999999977,
      "v": 60
    },
    {
      "midi": 72,
      "hit": false,
      "t": 69782.61799999993,
      "d": 163.04349999999977,
      "v": 60
    },
    {
      "midi": 72,
      "hit": false,
      "t": 69782.61799999993,
      "d": 163.04349999999977,
      "v": 60
    },
    {
      "midi": 74,
      "hit": false,
      "t": 69945.66149999993,
      "d": 163.04349999999977,
      "v": 60
    },
    {
      "midi": 74,
      "hit": false,
      "t": 69945.66149999993,
      "d": 163.04349999999977,
      "v": 60
    },
    {
      "midi": 79,
      "hit": false,
      "t": 70108.70499999993,
      "d": 163.04349999999977,
      "v": 60
    },
    {
      "midi": 79,
      "hit": false,
      "t": 70108.70499999993,
      "d": 163.04349999999977,
      "v": 60
    },
    {
      "midi": 74,
      "hit": false,
      "t": 70271.74849999993,
      "d": 163.04349999999977,
      "v": 60
    },
    {
      "midi": 74,
      "hit": false,
      "t": 70271.74849999993,
      "d": 163.04349999999977,
      "v": 60
    },
    {
      "midi": 71,
      "hit": false,
      "t": 70434.79199999993,
      "d": 326.08699999999953,
      "v": 57
    },
    {
      "midi": 40,
      "hit": false,
      "t": 70434.79199999993,
      "d": 1956.5219999999972,
      "v": 56
    },
    {
      "midi": 71,
      "hit": false,
      "t": 70434.79199999993,
      "d": 326.08699999999953,
      "v": 48
    },
    {
      "midi": 40,
      "hit": false,
      "t": 70434.79199999993,
      "d": 1956.5219999999972,
      "v": 48
    },
    {
      "midi": 67,
      "hit": false,
      "t": 70760.87899999993,
      "d": 326.08699999999953,
      "v": 60
    },
    {
      "midi": 67,
      "hit": false,
      "t": 70760.87899999993,
      "d": 326.08699999999953,
      "v": 48
    },
    {
      "midi": 64,
      "hit": false,
      "t": 71086.96599999993,
      "d": 326.08699999999953,
      "v": 52
    },
    {
      "midi": 64,
      "hit": false,
      "t": 71086.96599999993,
      "d": 326.08699999999953,
      "v": 48
    },
    {
      "midi": 67,
      "hit": false,
      "t": 71413.05299999993,
      "d": 1630.4349999999977,
      "v": 57
    },
    {
      "midi": 76,
      "hit": false,
      "t": 71413.05299999993,
      "d": 1630.4349999999977,
      "v": 53
    },
    {
      "midi": 67,
      "hit": false,
      "t": 71413.05299999993,
      "d": 1630.4349999999977,
      "v": 48
    },
    {
      "midi": 76,
      "hit": false,
      "t": 71413.05299999993,
      "d": 1630.4349999999977,
      "v": 48
    },
    {
      "midi": 40,
      "hit": false,
      "t": 72391.31399999993,
      "d": 652.1739999999991,
      "v": 54
    },
    {
      "midi": 64,
      "hit": false,
      "t": 72391.31399999993,
      "d": 652.1739999999991,
      "v": 55
    },
    {
      "midi": 40,
      "hit": false,
      "t": 72391.31399999993,
      "d": 652.1739999999991,
      "v": 48
    },
    {
      "midi": 64,
      "hit": false,
      "t": 72391.31399999993,
      "d": 652.1739999999991,
      "v": 48
    },
    {
      "midi": 38,
      "hit": false,
      "t": 73043.48799999992,
      "d": 978.2609999999986,
      "v": 53
    },
    {
      "midi": 59,
      "hit": false,
      "t": 73043.48799999992,
      "d": 978.2609999999986,
      "v": 53
    },
    {
      "midi": 64,
      "hit": false,
      "t": 73043.48799999992,
      "d": 978.2609999999986,
      "v": 60
    },
    {
      "midi": 38,
      "hit": false,
      "t": 73043.48799999992,
      "d": 978.2609999999986,
      "v": 48
    },
    {
      "midi": 59,
      "hit": false,
      "t": 73043.48799999992,
      "d": 978.2609999999986,
      "v": 48
    },
    {
      "midi": 64,
      "hit": false,
      "t": 73043.48799999992,
      "d": 978.2609999999986,
      "v": 48
    },
    {
      "midi": 38,
      "hit": false,
      "t": 74021.74899999992,
      "d": 326.08699999999953,
      "v": 55
    },
    {
      "midi": 59,
      "hit": false,
      "t": 74021.74899999992,
      "d": 1630.4349999999977,
      "v": 56
    },
    {
      "midi": 64,
      "hit": false,
      "t": 74021.74899999992,
      "d": 1630.4349999999977,
      "v": 53
    },
    {
      "midi": 38,
      "hit": false,
      "t": 74021.74899999992,
      "d": 326.08699999999953,
      "v": 48
    },
    {
      "midi": 59,
      "hit": false,
      "t": 74021.74899999992,
      "d": 1630.4349999999977,
      "v": 48
    },
    {
      "midi": 64,
      "hit": false,
      "t": 74021.74899999992,
      "d": 1630.4349999999977,
      "v": 48
    },
    {
      "midi": 38,
      "hit": false,
      "t": 74347.83599999992,
      "d": 1304.3479999999981,
      "v": 51
    },
    {
      "midi": 38,
      "hit": false,
      "t": 74347.83599999992,
      "d": 1304.3479999999981,
      "v": 48
    },
    {
      "midi": 36,
      "hit": false,
      "t": 75652.18399999992,
      "d": 978.2609999999986,
      "v": 55
    },
    {
      "midi": 55,
      "hit": false,
      "t": 75652.18399999992,
      "d": 978.2609999999986,
      "v": 51
    },
    {
      "midi": 36,
      "hit": false,
      "t": 75652.18399999992,
      "d": 978.2609999999986,
      "v": 48
    },
    {
      "midi": 55,
      "hit": false,
      "t": 75652.18399999992,
      "d": 978.2609999999986,
      "v": 48
    },
    {
      "midi": 36,
      "hit": false,
      "t": 76630.44499999992,
      "d": 326.08699999999953,
      "v": 59
    },
    {
      "midi": 55,
      "hit": false,
      "t": 76630.44499999992,
      "d": 326.08699999999953,
      "v": 58
    },
    {
      "midi": 36,
      "hit": false,
      "t": 76630.44499999992,
      "d": 326.08699999999953,
      "v": 48
    },
    {
      "midi": 55,
      "hit": false,
      "t": 76630.44499999992,
      "d": 326.08699999999953,
      "v": 48
    },
    {
      "midi": 35,
      "hit": false,
      "t": 76956.53199999992,
      "d": 652.1739999999991,
      "v": 60
    },
    {
      "midi": 55,
      "hit": false,
      "t": 76956.53199999992,
      "d": 652.1739999999991,
      "v": 56
    },
    {
      "midi": 35,
      "hit": false,
      "t": 76956.53199999992,
      "d": 652.1739999999991,
      "v": 48
    },
    {
      "midi": 55,
      "hit": false,
      "t": 76956.53199999992,
      "d": 652.1739999999991,
      "v": 48
    },
    {
      "midi": 35,
      "hit": false,
      "t": 77608.70599999992,
      "d": 652.1739999999991,
      "v": 57
    },
    {
      "midi": 55,
      "hit": false,
      "t": 77608.70599999992,
      "d": 652.1739999999991,
      "v": 55
    },
    {
      "midi": 35,
      "hit": false,
      "t": 77608.70599999992,
      "d": 652.1739999999991,
      "v": 48
    },
    {
      "midi": 55,
      "hit": false,
      "t": 77608.70599999992,
      "d": 652.1739999999991,
      "v": 48
    },
    {
      "midi": 33,
      "hit": false,
      "t": 78260.87999999992,
      "d": 978.2609999999986,
      "v": 54
    },
    {
      "midi": 57,
      "hit": false,
      "t": 78260.87999999992,
      "d": 978.2609999999986,
      "v": 56
    },
    {
      "midi": 60,
      "hit": false,
      "t": 78260.87999999992,
      "d": 978.2609999999986,
      "v": 51
    },
    {
      "midi": 33,
      "hit": false,
      "t": 78260.87999999992,
      "d": 978.2609999999986,
      "v": 48
    },
    {
      "midi": 57,
      "hit": false,
      "t": 78260.87999999992,
      "d": 978.2609999999986,
      "v": 48
    },
    {
      "midi": 60,
      "hit": false,
      "t": 78260.87999999992,
      "d": 978.2609999999986,
      "v": 48
    },
    {
      "midi": 57,
      "hit": false,
      "t": 79239.14099999992,
      "d": 326.08699999999953,
      "v": 59
    },
    {
      "midi": 60,
      "hit": false,
      "t": 79239.14099999992,
      "d": 326.08699999999953,
      "v": 56
    },
    {
      "midi": 33,
      "hit": false,
      "t": 79239.14099999992,
      "d": 978.2609999999986,
      "v": 53
    },
    {
      "midi": 57,
      "hit": false,
      "t": 79239.14099999992,
      "d": 326.08699999999953,
      "v": 48
    },
    {
      "midi": 60,
      "hit": false,
      "t": 79239.14099999992,
      "d": 326.08699999999953,
      "v": 48
    },
    {
      "midi": 33,
      "hit": false,
      "t": 79239.14099999992,
      "d": 978.2609999999986,
      "v": 48
    },
    {
      "midi": 57,
      "hit": false,
      "t": 79565.22799999992,
      "d": 326.08699999999953,
      "v": 55
    },
    {
      "midi": 60,
      "hit": false,
      "t": 79565.22799999992,
      "d": 326.08699999999953,
      "v": 56
    },
    {
      "midi": 57,
      "hit": false,
      "t": 79565.22799999992,
      "d": 326.08699999999953,
      "v": 48
    },
    {
      "midi": 60,
      "hit": false,
      "t": 79565.22799999992,
      "d": 326.08699999999953,
      "v": 48
    },
    {
      "midi": 57,
      "hit": false,
      "t": 79891.31499999992,
      "d": 326.08699999999953,
      "v": 56
    },
    {
      "midi": 57,
      "hit": false,
      "t": 79891.31499999992,
      "d": 326.08699999999953,
      "v": 48
    },
    {
      "midi": 60,
      "hit": false,
      "t": 80217.40199999991,
      "d": 326.08699999999953,
      "v": 60
    },
    {
      "midi": 33,
      "hit": false,
      "t": 80217.40199999991,
      "d": 652.1739999999991,
      "v": 51
    },
    {
      "midi": 60,
      "hit": false,
      "t": 80217.40199999991,
      "d": 326.08699999999953,
      "v": 48
    },
    {
      "midi": 33,
      "hit": false,
      "t": 80217.40199999991,
      "d": 652.1739999999991,
      "v": 48
    },
    {
      "midi": 64,
      "hit": false,
      "t": 80543.48899999991,
      "d": 326.08699999999953,
      "v": 52
    },
    {
      "midi": 64,
      "hit": false,
      "t": 80543.48899999991,
      "d": 326.08699999999953,
      "v": 48
    },
    {
      "midi": 71,
      "hit": false,
      "t": 80869.57599999991,
      "d": 326.08699999999953,
      "v": 54
    },
    {
      "midi": 40,
      "hit": false,
      "t": 80869.57599999991,
      "d": 1956.5219999999972,
      "v": 57
    },
    {
      "midi": 71,
      "hit": false,
      "t": 80869.57599999991,
      "d": 326.08699999999953,
      "v": 48
    },
    {
      "midi": 40,
      "hit": false,
      "t": 80869.57599999991,
      "d": 1956.5219999999972,
      "v": 48
    },
    {
      "midi": 67,
      "hit": false,
      "t": 81195.66299999991,
      "d": 326.08699999999953,
      "v": 53
    },
    {
      "midi": 67,
      "hit": false,
      "t": 81195.66299999991,
      "d": 326.08699999999953,
      "v": 48
    },
    {
      "midi": 64,
      "hit": false,
      "t": 81521.74999999991,
      "d": 326.08699999999953,
      "v": 54
    },
    {
      "midi": 64,
      "hit": false,
      "t": 81521.74999999991,
      "d": 326.08699999999953,
      "v": 48
    },
    {
      "midi": 67,
      "hit": false,
      "t": 81847.83699999991,
      "d": 1630.4349999999977,
      "v": 56
    },
    {
      "midi": 76,
      "hit": false,
      "t": 81847.83699999991,
      "d": 1630.4349999999977,
      "v": 54
    },
    {
      "midi": 67,
      "hit": false,
      "t": 81847.83699999991,
      "d": 1630.4349999999977,
      "v": 48
    },
    {
      "midi": 76,
      "hit": false,
      "t": 81847.83699999991,
      "d": 1630.4349999999977,
      "v": 48
    },
    {
      "midi": 40,
      "hit": false,
      "t": 82826.09799999991,
      "d": 652.1739999999991,
      "v": 51
    },
    {
      "midi": 40,
      "hit": false,
      "t": 82826.09799999991,
      "d": 652.1739999999991,
      "v": 48
    },
    {
      "midi": 38,
      "hit": false,
      "t": 83478.27199999991,
      "d": 1956.5219999999972,
      "v": 54
    },
    {
      "midi": 59,
      "hit": false,
      "t": 83478.27199999991,
      "d": 1956.5219999999972,
      "v": 61
    },
    {
      "midi": 64,
      "hit": false,
      "t": 83478.27199999991,
      "d": 1956.5219999999972,
      "v": 56
    },
    {
      "midi": 38,
      "hit": false,
      "t": 83478.27199999991,
      "d": 1956.5219999999972,
      "v": 48
    },
    {
      "midi": 59,
      "hit": false,
      "t": 83478.27199999991,
      "d": 1956.5219999999972,
      "v": 48
    },
    {
      "midi": 64,
      "hit": false,
      "t": 83478.27199999991,
      "d": 1956.5219999999972,
      "v": 48
    },
    {
      "midi": 38,
      "hit": false,
      "t": 85434.7939999999,
      "d": 652.1739999999991,
      "v": 52
    },
    {
      "midi": 59,
      "hit": false,
      "t": 85434.7939999999,
      "d": 652.1739999999991,
      "v": 53
    },
    {
      "midi": 64,
      "hit": false,
      "t": 85434.7939999999,
      "d": 652.1739999999991,
      "v": 58
    },
    {
      "midi": 38,
      "hit": false,
      "t": 85434.7939999999,
      "d": 652.1739999999991,
      "v": 48
    },
    {
      "midi": 59,
      "hit": false,
      "t": 85434.7939999999,
      "d": 652.1739999999991,
      "v": 48
    },
    {
      "midi": 64,
      "hit": false,
      "t": 85434.7939999999,
      "d": 652.1739999999991,
      "v": 48
    },
    {
      "midi": 36,
      "hit": false,
      "t": 86086.9679999999,
      "d": 978.2609999999986,
      "v": 57
    },
    {
      "midi": 64,
      "hit": false,
      "t": 86086.9679999999,
      "d": 978.2609999999986,
      "v": 53
    },
    {
      "midi": 36,
      "hit": false,
      "t": 86086.9679999999,
      "d": 978.2609999999986,
      "v": 48
    },
    {
      "midi": 64,
      "hit": false,
      "t": 86086.9679999999,
      "d": 978.2609999999986,
      "v": 48
    },
    {
      "midi": 35,
      "hit": false,
      "t": 87065.2289999999,
      "d": 978.2609999999986,
      "v": 55
    },
    {
      "midi": 35,
      "hit": false,
      "t": 87065.2289999999,
      "d": 978.2609999999986,
      "v": 48
    },
    {
      "midi": 35,
      "hit": false,
      "t": 88043.4899999999,
      "d": 652.1739999999991,
      "v": 52
    },
    {
      "midi": 35,
      "hit": false,
      "t": 88043.4899999999,
      "d": 652.1739999999991,
      "v": 48
    },
    {
      "midi": 33,
      "hit": false,
      "t": 88695.6639999999,
      "d": 978.2609999999986,
      "v": 57
    },
    {
      "midi": 57,
      "hit": false,
      "t": 88695.6639999999,
      "d": 978.2609999999986,
      "v": 61
    },
    {
      "midi": 60,
      "hit": false,
      "t": 88695.6639999999,
      "d": 978.2609999999986,
      "v": 56
    },
    {
      "midi": 33,
      "hit": false,
      "t": 88695.6639999999,
      "d": 978.2609999999986,
      "v": 48
    },
    {
      "midi": 57,
      "hit": false,
      "t": 88695.6639999999,
      "d": 978.2609999999986,
      "v": 48
    },
    {
      "midi": 60,
      "hit": false,
      "t": 88695.6639999999,
      "d": 978.2609999999986,
      "v": 48
    },
    {
      "midi": 57,
      "hit": false,
      "t": 89673.9249999999,
      "d": 652.1739999999991,
      "v": 57
    },
    {
      "midi": 60,
      "hit": false,
      "t": 89673.9249999999,
      "d": 652.1739999999991,
      "v": 61
    },
    {
      "midi": 33,
      "hit": false,
      "t": 89673.9249999999,
      "d": 978.2609999999986,
      "v": 57
    },
    {
      "midi": 57,
      "hit": false,
      "t": 89673.9249999999,
      "d": 652.1739999999991,
      "v": 48
    },
    {
      "midi": 60,
      "hit": false,
      "t": 89673.9249999999,
      "d": 652.1739999999991,
      "v": 48
    },
    {
      "midi": 33,
      "hit": false,
      "t": 89673.9249999999,
      "d": 978.2609999999986,
      "v": 48
    },
    {
      "midi": 57,
      "hit": false,
      "t": 90326.0989999999,
      "d": 326.08699999999953,
      "v": 51
    },
    {
      "midi": 57,
      "hit": false,
      "t": 90326.0989999999,
      "d": 326.08699999999953,
      "v": 48
    },
    {
      "midi": 60,
      "hit": false,
      "t": 90652.1859999999,
      "d": 326.08699999999953,
      "v": 52
    },
    {
      "midi": 45,
      "hit": false,
      "t": 90652.1859999999,
      "d": 652.1739999999991,
      "v": 58
    },
    {
      "midi": 60,
      "hit": false,
      "t": 90652.1859999999,
      "d": 326.08699999999953,
      "v": 48
    },
    {
      "midi": 45,
      "hit": false,
      "t": 90652.1859999999,
      "d": 652.1739999999991,
      "v": 48
    },
    {
      "midi": 64,
      "hit": false,
      "t": 90978.2729999999,
      "d": 326.08699999999953,
      "v": 59
    },
    {
      "midi": 64,
      "hit": false,
      "t": 90978.2729999999,
      "d": 326.08699999999953,
      "v": 48
    },
    {
      "midi": 47,
      "hit": false,
      "t": 91304.3599999999,
      "d": 652.1739999999991,
      "v": 60
    },
    {
      "midi": 59,
      "hit": false,
      "t": 91304.3599999999,
      "d": 1304.3479999999981,
      "v": 55
    },
    {
      "midi": 62,
      "hit": false,
      "t": 91304.3599999999,
      "d": 1304.3479999999981,
      "v": 54
    },
    {
      "midi": 47,
      "hit": false,
      "t": 91304.3599999999,
      "d": 652.1739999999991,
      "v": 48
    },
    {
      "midi": 59,
      "hit": false,
      "t": 91304.3599999999,
      "d": 1304.3479999999981,
      "v": 48
    },
    {
      "midi": 62,
      "hit": false,
      "t": 91304.3599999999,
      "d": 1304.3479999999981,
      "v": 48
    },
    {
      "midi": 47,
      "hit": false,
      "t": 91956.5339999999,
      "d": 652.1739999999991,
      "v": 51
    },
    {
      "midi": 47,
      "hit": false,
      "t": 91956.5339999999,
      "d": 652.1739999999991,
      "v": 48
    },
    {
      "midi": 45,
      "hit": false,
      "t": 92608.7079999999,
      "d": 652.1739999999991,
      "v": 58
    },
    {
      "midi": 61,
      "hit": false,
      "t": 92608.7079999999,
      "d": 1304.3479999999981,
      "v": 60
    },
    {
      "midi": 45,
      "hit": false,
      "t": 92608.7079999999,
      "d": 652.1739999999991,
      "v": 48
    },
    {
      "midi": 61,
      "hit": false,
      "t": 92608.7079999999,
      "d": 1304.3479999999981,
      "v": 48
    },
    {
      "midi": 45,
      "hit": false,
      "t": 93260.8819999999,
      "d": 652.1739999999991,
      "v": 51
    },
    {
      "midi": 45,
      "hit": false,
      "t": 93260.8819999999,
      "d": 652.1739999999991,
      "v": 48
    },
    {
      "midi": 45,
      "hit": false,
      "t": 93913.0559999999,
      "d": 652.1739999999991,
      "v": 52
    },
    {
      "midi": 60,
      "hit": false,
      "t": 93913.0559999999,
      "d": 1630.4349999999977,
      "v": 60
    },
    {
      "midi": 45,
      "hit": false,
      "t": 93913.0559999999,
      "d": 652.1739999999991,
      "v": 48
    },
    {
      "midi": 60,
      "hit": false,
      "t": 93913.0559999999,
      "d": 1630.4349999999977,
      "v": 48
    },
    {
      "midi": 45,
      "hit": false,
      "t": 94565.2299999999,
      "d": 652.1739999999991,
      "v": 61
    },
    {
      "midi": 45,
      "hit": false,
      "t": 94565.2299999999,
      "d": 652.1739999999991,
      "v": 48
    },
    {
      "midi": 45,
      "hit": false,
      "t": 95217.4039999999,
      "d": 652.1739999999991,
      "v": 57
    },
    {
      "midi": 45,
      "hit": false,
      "t": 95217.4039999999,
      "d": 652.1739999999991,
      "v": 48
    },
    {
      "midi": 62,
      "hit": false,
      "t": 95543.49099999989,
      "d": 326.08699999999953,
      "v": 54
    },
    {
      "midi": 62,
      "hit": false,
      "t": 95543.49099999989,
      "d": 326.08699999999953,
      "v": 48
    },
    {
      "midi": 62,
      "hit": false,
      "t": 95869.57799999989,
      "d": 326.08699999999953,
      "v": 59
    },
    {
      "midi": 45,
      "hit": false,
      "t": 95869.57799999989,
      "d": 652.1739999999991,
      "v": 60
    },
    {
      "midi": 62,
      "hit": false,
      "t": 95869.57799999989,
      "d": 326.08699999999953,
      "v": 48
    },
    {
      "midi": 45,
      "hit": false,
      "t": 95869.57799999989,
      "d": 652.1739999999991,
      "v": 48
    },
    {
      "midi": 60,
      "hit": false,
      "t": 96195.66499999989,
      "d": 326.08699999999953,
      "v": 54
    },
    {
      "midi": 60,
      "hit": false,
      "t": 96195.66499999989,
      "d": 326.08699999999953,
      "v": 48
    },
    {
      "midi": 46,
      "hit": false,
      "t": 96521.75199999989,
      "d": 1304.3479999999981,
      "v": 60
    },
    {
      "midi": 62,
      "hit": false,
      "t": 96521.75199999989,
      "d": 1304.3479999999981,
      "v": 54
    },
    {
      "midi": 46,
      "hit": false,
      "t": 96521.75199999989,
      "d": 1304.3479999999981,
      "v": 48
    },
    {
      "midi": 62,
      "hit": false,
      "t": 96521.75199999989,
      "d": 1304.3479999999981,
      "v": 48
    },
    {
      "midi": 60,
      "hit": false,
      "t": 97826.09999999989,
      "d": 978.2609999999986,
      "v": 52
    },
    {
      "midi": 65,
      "hit": false,
      "t": 97826.09999999989,
      "d": 978.2609999999986,
      "v": 60
    },
    {
      "midi": 45,
      "hit": false,
      "t": 97826.09999999989,
      "d": 1304.3479999999981,
      "v": 58
    },
    {
      "midi": 60,
      "hit": false,
      "t": 97826.09999999989,
      "d": 978.2609999999986,
      "v": 48
    },
    {
      "midi": 65,
      "hit": false,
      "t": 97826.09999999989,
      "d": 978.2609999999986,
      "v": 48
    },
    {
      "midi": 45,
      "hit": false,
      "t": 97826.09999999989,
      "d": 1304.3479999999981,
      "v": 48
    },
    {
      "midi": 57,
      "hit": false,
      "t": 98804.36099999989,
      "d": 1304.3479999999981,
      "v": 51
    },
    {
      "midi": 62,
      "hit": false,
      "t": 98804.36099999989,
      "d": 1304.3479999999981,
      "v": 57
    },
    {
      "midi": 57,
      "hit": false,
      "t": 98804.36099999989,
      "d": 1304.3479999999981,
      "v": 48
    },
    {
      "midi": 62,
      "hit": false,
      "t": 98804.36099999989,
      "d": 1304.3479999999981,
      "v": 48
    },
    {
      "midi": 43,
      "hit": false,
      "t": 99130.44799999989,
      "d": 1304.3479999999981,
      "v": 55
    },
    {
      "midi": 43,
      "hit": false,
      "t": 99130.44799999989,
      "d": 1304.3479999999981,
      "v": 48
    },
    {
      "midi": 59,
      "hit": false,
      "t": 100108.70899999989,
      "d": 652.1739999999991,
      "v": 56
    },
    {
      "midi": 62,
      "hit": false,
      "t": 100108.70899999989,
      "d": 652.1739999999991,
      "v": 55
    },
    {
      "midi": 59,
      "hit": false,
      "t": 100108.70899999989,
      "d": 652.1739999999991,
      "v": 48
    },
    {
      "midi": 62,
      "hit": false,
      "t": 100108.70899999989,
      "d": 652.1739999999991,
      "v": 48
    },
    {
      "midi": 43,
      "hit": false,
      "t": 100434.79599999989,
      "d": 978.2609999999986,
      "v": 57
    },
    {
      "midi": 43,
      "hit": false,
      "t": 100434.79599999989,
      "d": 978.2609999999986,
      "v": 48
    },
    {
      "midi": 83,
      "hit": false,
      "t": 101739.14399999988,
      "d": 652.1739999999991,
      "v": 53
    },
    {
      "midi": 86,
      "hit": false,
      "t": 101739.14399999988,
      "d": 652.1739999999991,
      "v": 58
    },
    {
      "midi": 91,
      "hit": false,
      "t": 101739.14399999988,
      "d": 652.1739999999991,
      "v": 55
    },
    {
      "midi": 71,
      "hit": false,
      "t": 101739.14399999988,
      "d": 652.1739999999991,
      "v": 48
    },
    {
      "midi": 74,
      "hit": false,
      "t": 101739.14399999988,
      "d": 652.1739999999991,
      "v": 48
    },
    {
      "midi": 79,
      "hit": false,
      "t": 101739.14399999988,
      "d": 652.1739999999991,
      "v": 48
    },
    {
      "midi": 83,
      "hit": false,
      "t": 102391.31799999988,
      "d": 652.1739999999991,
      "v": 60
    },
    {
      "midi": 86,
      "hit": false,
      "t": 102391.31799999988,
      "d": 652.1739999999991,
      "v": 59
    },
    {
      "midi": 91,
      "hit": false,
      "t": 102391.31799999988,
      "d": 652.1739999999991,
      "v": 56
    },
    {
      "midi": 71,
      "hit": false,
      "t": 102391.31799999988,
      "d": 652.1739999999991,
      "v": 48
    },
    {
      "midi": 74,
      "hit": false,
      "t": 102391.31799999988,
      "d": 652.1739999999991,
      "v": 48
    },
    {
      "midi": 79,
      "hit": false,
      "t": 102391.31799999988,
      "d": 652.1739999999991,
      "v": 48
    },
    {
      "midi": 82,
      "hit": false,
      "t": 103043.49199999988,
      "d": 652.1739999999991,
      "v": 51
    },
    {
      "midi": 85,
      "hit": false,
      "t": 103043.49199999988,
      "d": 652.1739999999991,
      "v": 54
    },
    {
      "midi": 90,
      "hit": false,
      "t": 103043.49199999988,
      "d": 652.1739999999991,
      "v": 51
    },
    {
      "midi": 70,
      "hit": false,
      "t": 103043.49199999988,
      "d": 652.1739999999991,
      "v": 48
    },
    {
      "midi": 73,
      "hit": false,
      "t": 103043.49199999988,
      "d": 652.1739999999991,
      "v": 48
    },
    {
      "midi": 78,
      "hit": false,
      "t": 103043.49199999988,
      "d": 652.1739999999991,
      "v": 48
    },
    {
      "midi": 82,
      "hit": false,
      "t": 103695.66599999988,
      "d": 652.1739999999991,
      "v": 60
    },
    {
      "midi": 85,
      "hit": false,
      "t": 103695.66599999988,
      "d": 652.1739999999991,
      "v": 54
    },
    {
      "midi": 90,
      "hit": false,
      "t": 103695.66599999988,
      "d": 652.1739999999991,
      "v": 54
    },
    {
      "midi": 70,
      "hit": false,
      "t": 103695.66599999988,
      "d": 652.1739999999991,
      "v": 48
    },
    {
      "midi": 73,
      "hit": false,
      "t": 103695.66599999988,
      "d": 652.1739999999991,
      "v": 48
    },
    {
      "midi": 78,
      "hit": false,
      "t": 103695.66599999988,
      "d": 652.1739999999991,
      "v": 48
    },
    {
      "midi": 81,
      "hit": false,
      "t": 104347.83999999988,
      "d": 652.1739999999991,
      "v": 54
    },
    {
      "midi": 84,
      "hit": false,
      "t": 104347.83999999988,
      "d": 652.1739999999991,
      "v": 56
    },
    {
      "midi": 89,
      "hit": false,
      "t": 104347.83999999988,
      "d": 652.1739999999991,
      "v": 58
    },
    {
      "midi": 69,
      "hit": false,
      "t": 104347.83999999988,
      "d": 652.1739999999991,
      "v": 48
    },
    {
      "midi": 72,
      "hit": false,
      "t": 104347.83999999988,
      "d": 652.1739999999991,
      "v": 48
    },
    {
      "midi": 77,
      "hit": false,
      "t": 104347.83999999988,
      "d": 652.1739999999991,
      "v": 48
    },
    {
      "midi": 81,
      "hit": false,
      "t": 105000.01399999988,
      "d": 652.1739999999991,
      "v": 56
    },
    {
      "midi": 84,
      "hit": false,
      "t": 105000.01399999988,
      "d": 652.1739999999991,
      "v": 53
    },
    {
      "midi": 89,
      "hit": false,
      "t": 105000.01399999988,
      "d": 652.1739999999991,
      "v": 61
    },
    {
      "midi": 69,
      "hit": false,
      "t": 105000.01399999988,
      "d": 652.1739999999991,
      "v": 48
    },
    {
      "midi": 72,
      "hit": false,
      "t": 105000.01399999988,
      "d": 652.1739999999991,
      "v": 48
    },
    {
      "midi": 77,
      "hit": false,
      "t": 105000.01399999988,
      "d": 652.1739999999991,
      "v": 48
    },
    {
      "midi": 79,
      "hit": false,
      "t": 105652.18799999988,
      "d": 652.1739999999991,
      "v": 59
    },
    {
      "midi": 83,
      "hit": false,
      "t": 105652.18799999988,
      "d": 652.1739999999991,
      "v": 53
    },
    {
      "midi": 88,
      "hit": false,
      "t": 105652.18799999988,
      "d": 652.1739999999991,
      "v": 61
    },
    {
      "midi": 67,
      "hit": false,
      "t": 105652.18799999988,
      "d": 652.1739999999991,
      "v": 48
    },
    {
      "midi": 71,
      "hit": false,
      "t": 105652.18799999988,
      "d": 652.1739999999991,
      "v": 48
    },
    {
      "midi": 76,
      "hit": false,
      "t": 105652.18799999988,
      "d": 652.1739999999991,
      "v": 48
    },
    {
      "midi": 79,
      "hit": false,
      "t": 106304.36199999988,
      "d": 652.1739999999991,
      "v": 55
    },
    {
      "midi": 83,
      "hit": false,
      "t": 106304.36199999988,
      "d": 652.1739999999991,
      "v": 59
    },
    {
      "midi": 88,
      "hit": false,
      "t": 106304.36199999988,
      "d": 652.1739999999991,
      "v": 56
    },
    {
      "midi": 67,
      "hit": false,
      "t": 106304.36199999988,
      "d": 652.1739999999991,
      "v": 48
    },
    {
      "midi": 71,
      "hit": false,
      "t": 106304.36199999988,
      "d": 652.1739999999991,
      "v": 48
    },
    {
      "midi": 76,
      "hit": false,
      "t": 106304.36199999988,
      "d": 652.1739999999991,
      "v": 48
    },
    {
      "midi": 79,
      "hit": false,
      "t": 106956.53599999988,
      "d": 652.1739999999991,
      "v": 54
    },
    {
      "midi": 82,
      "hit": false,
      "t": 106956.53599999988,
      "d": 652.1739999999991,
      "v": 56
    },
    {
      "midi": 87,
      "hit": false,
      "t": 106956.53599999988,
      "d": 652.1739999999991,
      "v": 56
    },
    {
      "midi": 67,
      "hit": false,
      "t": 106956.53599999988,
      "d": 652.1739999999991,
      "v": 48
    },
    {
      "midi": 70,
      "hit": false,
      "t": 106956.53599999988,
      "d": 652.1739999999991,
      "v": 48
    },
    {
      "midi": 75,
      "hit": false,
      "t": 106956.53599999988,
      "d": 652.1739999999991,
      "v": 48
    },
    {
      "midi": 79,
      "hit": false,
      "t": 107608.70999999988,
      "d": 652.1739999999991,
      "v": 55
    },
    {
      "midi": 82,
      "hit": false,
      "t": 107608.70999999988,
      "d": 652.1739999999991,
      "v": 54
    },
    {
      "midi": 87,
      "hit": false,
      "t": 107608.70999999988,
      "d": 652.1739999999991,
      "v": 56
    },
    {
      "midi": 67,
      "hit": false,
      "t": 107608.70999999988,
      "d": 652.1739999999991,
      "v": 48
    },
    {
      "midi": 70,
      "hit": false,
      "t": 107608.70999999988,
      "d": 652.1739999999991,
      "v": 48
    },
    {
      "midi": 75,
      "hit": false,
      "t": 107608.70999999988,
      "d": 652.1739999999991,
      "v": 48
    },
    {
      "midi": 79,
      "hit": false,
      "t": 108260.88399999987,
      "d": 652.1739999999991,
      "v": 57
    },
    {
      "midi": 82,
      "hit": false,
      "t": 108260.88399999987,
      "d": 652.1739999999991,
      "v": 51
    },
    {
      "midi": 87,
      "hit": false,
      "t": 108260.88399999987,
      "d": 652.1739999999991,
      "v": 54
    },
    {
      "midi": 67,
      "hit": false,
      "t": 108260.88399999987,
      "d": 652.1739999999991,
      "v": 48
    },
    {
      "midi": 70,
      "hit": false,
      "t": 108260.88399999987,
      "d": 652.1739999999991,
      "v": 48
    },
    {
      "midi": 75,
      "hit": false,
      "t": 108260.88399999987,
      "d": 652.1739999999991,
      "v": 48
    },
    {
      "midi": 79,
      "hit": false,
      "t": 108913.05799999987,
      "d": 652.1739999999991,
      "v": 53
    },
    {
      "midi": 82,
      "hit": false,
      "t": 108913.05799999987,
      "d": 652.1739999999991,
      "v": 51
    },
    {
      "midi": 87,
      "hit": false,
      "t": 108913.05799999987,
      "d": 652.1739999999991,
      "v": 58
    },
    {
      "midi": 67,
      "hit": false,
      "t": 108913.05799999987,
      "d": 652.1739999999991,
      "v": 48
    },
    {
      "midi": 70,
      "hit": false,
      "t": 108913.05799999987,
      "d": 652.1739999999991,
      "v": 48
    },
    {
      "midi": 75,
      "hit": false,
      "t": 108913.05799999987,
      "d": 652.1739999999991,
      "v": 48
    },
    {
      "midi": 77,
      "hit": false,
      "t": 109565.23199999987,
      "d": 652.1739999999991,
      "v": 52
    },
    {
      "midi": 81,
      "hit": false,
      "t": 109565.23199999987,
      "d": 652.1739999999991,
      "v": 51
    },
    {
      "midi": 86,
      "hit": false,
      "t": 109565.23199999987,
      "d": 652.1739999999991,
      "v": 52
    },
    {
      "midi": 65,
      "hit": false,
      "t": 109565.23199999987,
      "d": 652.1739999999991,
      "v": 48
    },
    {
      "midi": 69,
      "hit": false,
      "t": 109565.23199999987,
      "d": 652.1739999999991,
      "v": 48
    },
    {
      "midi": 74,
      "hit": false,
      "t": 109565.23199999987,
      "d": 652.1739999999991,
      "v": 48
    },
    {
      "midi": 77,
      "hit": false,
      "t": 110217.40599999987,
      "d": 652.1739999999991,
      "v": 58
    },
    {
      "midi": 81,
      "hit": false,
      "t": 110217.40599999987,
      "d": 652.1739999999991,
      "v": 60
    },
    {
      "midi": 86,
      "hit": false,
      "t": 110217.40599999987,
      "d": 652.1739999999991,
      "v": 52
    },
    {
      "midi": 65,
      "hit": false,
      "t": 110217.40599999987,
      "d": 652.1739999999991,
      "v": 48
    },
    {
      "midi": 69,
      "hit": false,
      "t": 110217.40599999987,
      "d": 652.1739999999991,
      "v": 48
    },
    {
      "midi": 74,
      "hit": false,
      "t": 110217.40599999987,
      "d": 652.1739999999991,
      "v": 48
    },
    {
      "midi": 76,
      "hit": false,
      "t": 110869.57999999987,
      "d": 652.1739999999991,
      "v": 56
    },
    {
      "midi": 79,
      "hit": false,
      "t": 110869.57999999987,
      "d": 652.1739999999991,
      "v": 59
    },
    {
      "midi": 84,
      "hit": false,
      "t": 110869.57999999987,
      "d": 652.1739999999991,
      "v": 59
    },
    {
      "midi": 64,
      "hit": false,
      "t": 110869.57999999987,
      "d": 652.1739999999991,
      "v": 48
    },
    {
      "midi": 67,
      "hit": false,
      "t": 110869.57999999987,
      "d": 652.1739999999991,
      "v": 48
    },
    {
      "midi": 72,
      "hit": false,
      "t": 110869.57999999987,
      "d": 652.1739999999991,
      "v": 48
    },
    {
      "midi": 76,
      "hit": false,
      "t": 111521.75399999987,
      "d": 652.1739999999991,
      "v": 51
    },
    {
      "midi": 79,
      "hit": false,
      "t": 111521.75399999987,
      "d": 652.1739999999991,
      "v": 60
    },
    {
      "midi": 84,
      "hit": false,
      "t": 111521.75399999987,
      "d": 652.1739999999991,
      "v": 57
    },
    {
      "midi": 64,
      "hit": false,
      "t": 111521.75399999987,
      "d": 652.1739999999991,
      "v": 48
    },
    {
      "midi": 67,
      "hit": false,
      "t": 111521.75399999987,
      "d": 652.1739999999991,
      "v": 48
    },
    {
      "midi": 72,
      "hit": false,
      "t": 111521.75399999987,
      "d": 652.1739999999991,
      "v": 48
    },
    {
      "midi": 74,
      "hit": false,
      "t": 112173.92799999987,
      "d": 652.1739999999991,
      "v": 56
    },
    {
      "midi": 79,
      "hit": false,
      "t": 112173.92799999987,
      "d": 652.1739999999991,
      "v": 61
    },
    {
      "midi": 83,
      "hit": false,
      "t": 112173.92799999987,
      "d": 652.1739999999991,
      "v": 60
    },
    {
      "midi": 62,
      "hit": false,
      "t": 112173.92799999987,
      "d": 652.1739999999991,
      "v": 48
    },
    {
      "midi": 67,
      "hit": false,
      "t": 112173.92799999987,
      "d": 652.1739999999991,
      "v": 48
    },
    {
      "midi": 71,
      "hit": false,
      "t": 112173.92799999987,
      "d": 652.1739999999991,
      "v": 48
    },
    {
      "midi": 74,
      "hit": false,
      "t": 112826.10199999987,
      "d": 652.1739999999991,
      "v": 55
    },
    {
      "midi": 79,
      "hit": false,
      "t": 112826.10199999987,
      "d": 652.1739999999991,
      "v": 56
    },
    {
      "midi": 83,
      "hit": false,
      "t": 112826.10199999987,
      "d": 652.1739999999991,
      "v": 61
    },
    {
      "midi": 62,
      "hit": false,
      "t": 112826.10199999987,
      "d": 652.1739999999991,
      "v": 48
    },
    {
      "midi": 67,
      "hit": false,
      "t": 112826.10199999987,
      "d": 652.1739999999991,
      "v": 48
    },
    {
      "midi": 71,
      "hit": false,
      "t": 112826.10199999987,
      "d": 652.1739999999991,
      "v": 48
    },
    {
      "midi": 72,
      "hit": false,
      "t": 113478.27599999987,
      "d": 652.1739999999991,
      "v": 56
    },
    {
      "midi": 77,
      "hit": false,
      "t": 113478.27599999987,
      "d": 652.1739999999991,
      "v": 57
    },
    {
      "midi": 81,
      "hit": false,
      "t": 113478.27599999987,
      "d": 652.1739999999991,
      "v": 55
    },
    {
      "midi": 60,
      "hit": false,
      "t": 113478.27599999987,
      "d": 652.1739999999991,
      "v": 48
    },
    {
      "midi": 65,
      "hit": false,
      "t": 113478.27599999987,
      "d": 652.1739999999991,
      "v": 48
    },
    {
      "midi": 69,
      "hit": false,
      "t": 113478.27599999987,
      "d": 652.1739999999991,
      "v": 48
    },
    {
      "midi": 72,
      "hit": false,
      "t": 114130.44999999987,
      "d": 652.1739999999991,
      "v": 51
    },
    {
      "midi": 77,
      "hit": false,
      "t": 114130.44999999987,
      "d": 652.1739999999991,
      "v": 56
    },
    {
      "midi": 81,
      "hit": false,
      "t": 114130.44999999987,
      "d": 652.1739999999991,
      "v": 58
    },
    {
      "midi": 60,
      "hit": false,
      "t": 114130.44999999987,
      "d": 652.1739999999991,
      "v": 48
    },
    {
      "midi": 65,
      "hit": false,
      "t": 114130.44999999987,
      "d": 652.1739999999991,
      "v": 48
    },
    {
      "midi": 69,
      "hit": false,
      "t": 114130.44999999987,
      "d": 652.1739999999991,
      "v": 48
    },
    {
      "midi": 72,
      "hit": false,
      "t": 114782.62399999987,
      "d": 1304.3479999999981,
      "v": 56
    },
    {
      "midi": 75,
      "hit": false,
      "t": 114782.62399999987,
      "d": 1304.3479999999981,
      "v": 60
    },
    {
      "midi": 80,
      "hit": false,
      "t": 114782.62399999987,
      "d": 1304.3479999999981,
      "v": 51
    },
    {
      "midi": 72,
      "hit": false,
      "t": 114782.62399999987,
      "d": 1304.3479999999981,
      "v": 48
    },
    {
      "midi": 75,
      "hit": false,
      "t": 114782.62399999987,
      "d": 1304.3479999999981,
      "v": 48
    },
    {
      "midi": 80,
      "hit": false,
      "t": 114782.62399999987,
      "d": 1304.3479999999981,
      "v": 48
    },
    {
      "midi": 70,
      "hit": false,
      "t": 116086.97199999986,
      "d": 326.08699999999953,
      "v": 51
    },
    {
      "midi": 48,
      "hit": false,
      "t": 116086.97199999986,
      "d": 1304.3479999999981,
      "v": 51
    },
    {
      "midi": 63,
      "hit": false,
      "t": 116086.97199999986,
      "d": 1304.3479999999981,
      "v": 53
    },
    {
      "midi": 70,
      "hit": false,
      "t": 116086.97199999986,
      "d": 326.08699999999953,
      "v": 48
    },
    {
      "midi": 48,
      "hit": false,
      "t": 116086.97199999986,
      "d": 1304.3479999999981,
      "v": 48
    },
    {
      "midi": 63,
      "hit": false,
      "t": 116086.97199999986,
      "d": 1304.3479999999981,
      "v": 48
    },
    {
      "midi": 68,
      "hit": false,
      "t": 116413.05899999986,
      "d": 163.04349999999977,
      "v": 53
    },
    {
      "midi": 68,
      "hit": false,
      "t": 116413.05899999986,
      "d": 163.04349999999977,
      "v": 48
    },
    {
      "midi": 67,
      "hit": false,
      "t": 116576.10249999986,
      "d": 163.04349999999977,
      "v": 56
    },
    {
      "midi": 67,
      "hit": false,
      "t": 116576.10249999986,
      "d": 163.04349999999977,
      "v": 48
    },
    {
      "midi": 68,
      "hit": false,
      "t": 116739.14599999986,
      "d": 652.1739999999991,
      "v": 60
    },
    {
      "midi": 68,
      "hit": false,
      "t": 116739.14599999986,
      "d": 652.1739999999991,
      "v": 48
    },
    {
      "midi": 48,
      "hit": false,
      "t": 117391.31999999986,
      "d": 652.1739999999991,
      "v": 60
    },
    {
      "midi": 60,
      "hit": false,
      "t": 117391.31999999986,
      "d": 978.2609999999986,
      "v": 60
    },
    {
      "midi": 64,
      "hit": false,
      "t": 117391.31999999986,
      "d": 978.2609999999986,
      "v": 60
    },
    {
      "midi": 48,
      "hit": false,
      "t": 117391.31999999986,
      "d": 652.1739999999991,
      "v": 60
    },
    {
      "midi": 60,
      "hit": false,
      "t": 117391.31999999986,
      "d": 978.2609999999986,
      "v": 60
    },
    {
      "midi": 64,
      "hit": false,
      "t": 117391.31999999986,
      "d": 978.2609999999986,
      "v": 60
    },
    {
      "midi": 48,
      "hit": false,
      "t": 118043.49399999986,
      "d": 326.08699999999953,
      "v": 60
    },
    {
      "midi": 48,
      "hit": false,
      "t": 118043.49399999986,
      "d": 326.08699999999953,
      "v": 60
    },
    {
      "midi": 43,
      "hit": false,
      "t": 118369.58099999986,
      "d": 326.08699999999953,
      "v": 60
    },
    {
      "midi": 59,
      "hit": false,
      "t": 118369.58099999986,
      "d": 326.08699999999953,
      "v": 60
    },
    {
      "midi": 62,
      "hit": false,
      "t": 118369.58099999986,
      "d": 326.08699999999953,
      "v": 60
    },
    {
      "midi": 43,
      "hit": false,
      "t": 118369.58099999986,
      "d": 326.08699999999953,
      "v": 60
    },
    {
      "midi": 59,
      "hit": false,
      "t": 118369.58099999986,
      "d": 326.08699999999953,
      "v": 60
    },
    {
      "midi": 62,
      "hit": false,
      "t": 118369.58099999986,
      "d": 326.08699999999953,
      "v": 60
    },
    {
      "midi": 48,
      "hit": false,
      "t": 118695.66799999986,
      "d": 652.1739999999991,
      "v": 60
    },
    {
      "midi": 60,
      "hit": false,
      "t": 118695.66799999986,
      "d": 652.1739999999991,
      "v": 60
    },
    {
      "midi": 64,
      "hit": false,
      "t": 118695.66799999986,
      "d": 652.1739999999991,
      "v": 60
    },
    {
      "midi": 48,
      "hit": false,
      "t": 118695.66799999986,
      "d": 652.1739999999991,
      "v": 60
    },
    {
      "midi": 60,
      "hit": false,
      "t": 118695.66799999986,
      "d": 652.1739999999991,
      "v": 60
    },
    {
      "midi": 64,
      "hit": false,
      "t": 118695.66799999986,
      "d": 652.1739999999991,
      "v": 60
    },
    {
      "midi": 48,
      "hit": false,
      "t": 119347.84199999986,
      "d": 652.1739999999991,
      "v": 60
    },
    {
      "midi": 60,
      "hit": false,
      "t": 119347.84199999986,
      "d": 652.1739999999991,
      "v": 60
    },
    {
      "midi": 64,
      "hit": false,
      "t": 119347.84199999986,
      "d": 652.1739999999991,
      "v": 60
    },
    {
      "midi": 48,
      "hit": false,
      "t": 119347.84199999986,
      "d": 652.1739999999991,
      "v": 60
    },
    {
      "midi": 60,
      "hit": false,
      "t": 119347.84199999986,
      "d": 652.1739999999991,
      "v": 60
    },
    {
      "midi": 64,
      "hit": false,
      "t": 119347.84199999986,
      "d": 652.1739999999991,
      "v": 60
    },
    {
      "midi": 46,
      "hit": false,
      "t": 120000.01599999986,
      "d": 652.1739999999991,
      "v": 60
    },
    {
      "midi": 62,
      "hit": false,
      "t": 120000.01599999986,
      "d": 978.2609999999986,
      "v": 60
    },
    {
      "midi": 46,
      "hit": false,
      "t": 120000.01599999986,
      "d": 652.1739999999991,
      "v": 60
    },
    {
      "midi": 62,
      "hit": false,
      "t": 120000.01599999986,
      "d": 978.2609999999986,
      "v": 60
    },
    {
      "midi": 46,
      "hit": false,
      "t": 120652.18999999986,
      "d": 326.08699999999953,
      "v": 60
    },
    {
      "midi": 46,
      "hit": false,
      "t": 120652.18999999986,
      "d": 326.08699999999953,
      "v": 60
    },
    {
      "midi": 41,
      "hit": false,
      "t": 120978.27699999986,
      "d": 326.08699999999953,
      "v": 60
    },
    {
      "midi": 57,
      "hit": false,
      "t": 120978.27699999986,
      "d": 326.08699999999953,
      "v": 60
    },
    {
      "midi": 60,
      "hit": false,
      "t": 120978.27699999986,
      "d": 326.08699999999953,
      "v": 60
    },
    {
      "midi": 41,
      "hit": false,
      "t": 120978.27699999986,
      "d": 326.08699999999953,
      "v": 60
    },
    {
      "midi": 57,
      "hit": false,
      "t": 120978.27699999986,
      "d": 326.08699999999953,
      "v": 60
    },
    {
      "midi": 60,
      "hit": false,
      "t": 120978.27699999986,
      "d": 326.08699999999953,
      "v": 60
    },
    {
      "midi": 46,
      "hit": false,
      "t": 121304.36399999986,
      "d": 652.1739999999991,
      "v": 60
    },
    {
      "midi": 58,
      "hit": false,
      "t": 121304.36399999986,
      "d": 978.2609999999986,
      "v": 60
    },
    {
      "midi": 62,
      "hit": false,
      "t": 121304.36399999986,
      "d": 978.2609999999986,
      "v": 60
    },
    {
      "midi": 46,
      "hit": false,
      "t": 121304.36399999986,
      "d": 652.1739999999991,
      "v": 60
    },
    {
      "midi": 58,
      "hit": false,
      "t": 121304.36399999986,
      "d": 978.2609999999986,
      "v": 60
    },
    {
      "midi": 62,
      "hit": false,
      "t": 121304.36399999986,
      "d": 978.2609999999986,
      "v": 60
    },
    {
      "midi": 46,
      "hit": false,
      "t": 121956.53799999985,
      "d": 326.08699999999953,
      "v": 60
    },
    {
      "midi": 46,
      "hit": false,
      "t": 121956.53799999985,
      "d": 326.08699999999953,
      "v": 60
    },
    {
      "midi": 45,
      "hit": false,
      "t": 122282.62499999985,
      "d": 326.08699999999953,
      "v": 60
    },
    {
      "midi": 60,
      "hit": false,
      "t": 122282.62499999985,
      "d": 326.08699999999953,
      "v": 60
    },
    {
      "midi": 45,
      "hit": false,
      "t": 122282.62499999985,
      "d": 326.08699999999953,
      "v": 60
    },
    {
      "midi": 60,
      "hit": false,
      "t": 122282.62499999985,
      "d": 326.08699999999953,
      "v": 60
    },
    {
      "midi": 46,
      "hit": false,
      "t": 122608.71199999985,
      "d": 652.1739999999991,
      "v": 60
    },
    {
      "midi": 62,
      "hit": false,
      "t": 122608.71199999985,
      "d": 1304.3479999999981,
      "v": 60
    },
    {
      "midi": 46,
      "hit": false,
      "t": 122608.71199999985,
      "d": 652.1739999999991,
      "v": 60
    },
    {
      "midi": 62,
      "hit": false,
      "t": 122608.71199999985,
      "d": 1304.3479999999981,
      "v": 60
    },
    {
      "midi": 46,
      "hit": false,
      "t": 123260.88599999985,
      "d": 652.1739999999991,
      "v": 60
    },
    {
      "midi": 46,
      "hit": false,
      "t": 123260.88599999985,
      "d": 652.1739999999991,
      "v": 60
    },
    {
      "midi": 45,
      "hit": false,
      "t": 123913.05999999985,
      "d": 652.1739999999991,
      "v": 60
    },
    {
      "midi": 60,
      "hit": false,
      "t": 123913.05999999985,
      "d": 1304.3479999999981,
      "v": 60
    },
    {
      "midi": 65,
      "hit": false,
      "t": 123913.05999999985,
      "d": 1304.3479999999981,
      "v": 60
    },
    {
      "midi": 45,
      "hit": false,
      "t": 123913.05999999985,
      "d": 652.1739999999991,
      "v": 60
    },
    {
      "midi": 60,
      "hit": false,
      "t": 123913.05999999985,
      "d": 1304.3479999999981,
      "v": 60
    },
    {
      "midi": 65,
      "hit": false,
      "t": 123913.05999999985,
      "d": 1304.3479999999981,
      "v": 60
    },
    {
      "midi": 45,
      "hit": false,
      "t": 124565.23399999985,
      "d": 652.1739999999991,
      "v": 60
    },
    {
      "midi": 45,
      "hit": false,
      "t": 124565.23399999985,
      "d": 652.1739999999991,
      "v": 60
    },
    {
      "midi": 36,
      "hit": false,
      "t": 125217.40799999985,
      "d": 652.1739999999991,
      "v": 60
    },
    {
      "midi": 36,
      "hit": false,
      "t": 125217.40799999985,
      "d": 652.1739999999991,
      "v": 60
    },
    {
      "midi": 55,
      "hit": false,
      "t": 125869.58199999985,
      "d": 163.04349999999977,
      "v": 60
    },
    {
      "midi": 36,
      "hit": false,
      "t": 125869.58199999985,
      "d": 1956.5219999999972,
      "v": 60
    },
    {
      "midi": 55,
      "hit": false,
      "t": 125869.58199999985,
      "d": 163.04349999999977,
      "v": 60
    },
    {
      "midi": 36,
      "hit": false,
      "t": 125869.58199999985,
      "d": 1956.5219999999972,
      "v": 60
    },
    {
      "midi": 60,
      "hit": false,
      "t": 126032.62549999985,
      "d": 163.04349999999977,
      "v": 60
    },
    {
      "midi": 60,
      "hit": false,
      "t": 126032.62549999985,
      "d": 163.04349999999977,
      "v": 60
    },
    {
      "midi": 62,
      "hit": false,
      "t": 126195.66899999985,
      "d": 163.04349999999977,
      "v": 60
    },
    {
      "midi": 62,
      "hit": false,
      "t": 126195.66899999985,
      "d": 163.04349999999977,
      "v": 60
    },
    {
      "midi": 67,
      "hit": false,
      "t": 126358.71249999985,
      "d": 163.04349999999977,
      "v": 60
    },
    {
      "midi": 67,
      "hit": false,
      "t": 126358.71249999985,
      "d": 163.04349999999977,
      "v": 60
    },
    {
      "midi": 67,
      "hit": false,
      "t": 126521.75599999985,
      "d": 163.04349999999977,
      "v": 60
    },
    {
      "midi": 67,
      "hit": false,
      "t": 126521.75599999985,
      "d": 163.04349999999977,
      "v": 60
    },
    {
      "midi": 72,
      "hit": false,
      "t": 126684.79949999985,
      "d": 163.04349999999977,
      "v": 60
    },
    {
      "midi": 72,
      "hit": false,
      "t": 126684.79949999985,
      "d": 163.04349999999977,
      "v": 60
    },
    {
      "midi": 74,
      "hit": false,
      "t": 126847.84299999985,
      "d": 163.04349999999977,
      "v": 60
    },
    {
      "midi": 74,
      "hit": false,
      "t": 126847.84299999985,
      "d": 163.04349999999977,
      "v": 60
    },
    {
      "midi": 79,
      "hit": false,
      "t": 127010.88649999985,
      "d": 163.04349999999977,
      "v": 60
    },
    {
      "midi": 79,
      "hit": false,
      "t": 127010.88649999985,
      "d": 163.04349999999977,
      "v": 60
    },
    {
      "midi": 72,
      "hit": false,
      "t": 127173.92999999985,
      "d": 163.04349999999977,
      "v": 60
    },
    {
      "midi": 72,
      "hit": false,
      "t": 127173.92999999985,
      "d": 163.04349999999977,
      "v": 60
    },
    {
      "midi": 74,
      "hit": false,
      "t": 127336.97349999985,
      "d": 163.04349999999977,
      "v": 60
    },
    {
      "midi": 74,
      "hit": false,
      "t": 127336.97349999985,
      "d": 163.04349999999977,
      "v": 60
    },
    {
      "midi": 79,
      "hit": false,
      "t": 127500.01699999985,
      "d": 163.04349999999977,
      "v": 60
    },
    {
      "midi": 79,
      "hit": false,
      "t": 127500.01699999985,
      "d": 163.04349999999977,
      "v": 60
    },
    {
      "midi": 74,
      "hit": false,
      "t": 127663.06049999985,
      "d": 163.04349999999977,
      "v": 60
    },
    {
      "midi": 74,
      "hit": false,
      "t": 127663.06049999985,
      "d": 163.04349999999977,
      "v": 60
    },
    {
      "midi": 48,
      "hit": false,
      "t": 127826.10399999985,
      "d": 652.1739999999991,
      "v": 60
    },
    {
      "midi": 60,
      "hit": false,
      "t": 127826.10399999985,
      "d": 978.2609999999986,
      "v": 60
    },
    {
      "midi": 64,
      "hit": false,
      "t": 127826.10399999985,
      "d": 978.2609999999986,
      "v": 60
    },
    {
      "midi": 48,
      "hit": false,
      "t": 127826.10399999985,
      "d": 652.1739999999991,
      "v": 60
    },
    {
      "midi": 60,
      "hit": false,
      "t": 127826.10399999985,
      "d": 978.2609999999986,
      "v": 60
    },
    {
      "midi": 64,
      "hit": false,
      "t": 127826.10399999985,
      "d": 978.2609999999986,
      "v": 60
    },
    {
      "midi": 48,
      "hit": false,
      "t": 128478.27799999985,
      "d": 326.08699999999953,
      "v": 60
    },
    {
      "midi": 48,
      "hit": false,
      "t": 128478.27799999985,
      "d": 326.08699999999953,
      "v": 60
    },
    {
      "midi": 43,
      "hit": false,
      "t": 128804.36499999985,
      "d": 326.08699999999953,
      "v": 60
    },
    {
      "midi": 59,
      "hit": false,
      "t": 128804.36499999985,
      "d": 326.08699999999953,
      "v": 60
    },
    {
      "midi": 62,
      "hit": false,
      "t": 128804.36499999985,
      "d": 326.08699999999953,
      "v": 60
    },
    {
      "midi": 43,
      "hit": false,
      "t": 128804.36499999985,
      "d": 326.08699999999953,
      "v": 60
    },
    {
      "midi": 59,
      "hit": false,
      "t": 128804.36499999985,
      "d": 326.08699999999953,
      "v": 60
    },
    {
      "midi": 62,
      "hit": false,
      "t": 128804.36499999985,
      "d": 326.08699999999953,
      "v": 60
    },
    {
      "midi": 48,
      "hit": false,
      "t": 129130.45199999984,
      "d": 652.1739999999991,
      "v": 60
    },
    {
      "midi": 60,
      "hit": false,
      "t": 129130.45199999984,
      "d": 652.1739999999991,
      "v": 60
    },
    {
      "midi": 64,
      "hit": false,
      "t": 129130.45199999984,
      "d": 652.1739999999991,
      "v": 60
    },
    {
      "midi": 48,
      "hit": false,
      "t": 129130.45199999984,
      "d": 652.1739999999991,
      "v": 60
    },
    {
      "midi": 60,
      "hit": false,
      "t": 129130.45199999984,
      "d": 652.1739999999991,
      "v": 60
    },
    {
      "midi": 64,
      "hit": false,
      "t": 129130.45199999984,
      "d": 652.1739999999991,
      "v": 60
    },
    {
      "midi": 48,
      "hit": false,
      "t": 129782.62599999984,
      "d": 652.1739999999991,
      "v": 60
    },
    {
      "midi": 60,
      "hit": false,
      "t": 129782.62599999984,
      "d": 652.1739999999991,
      "v": 60
    },
    {
      "midi": 64,
      "hit": false,
      "t": 129782.62599999984,
      "d": 652.1739999999991,
      "v": 60
    },
    {
      "midi": 48,
      "hit": false,
      "t": 129782.62599999984,
      "d": 652.1739999999991,
      "v": 60
    },
    {
      "midi": 60,
      "hit": false,
      "t": 129782.62599999984,
      "d": 652.1739999999991,
      "v": 60
    },
    {
      "midi": 64,
      "hit": false,
      "t": 129782.62599999984,
      "d": 652.1739999999991,
      "v": 60
    },
    {
      "midi": 46,
      "hit": false,
      "t": 130434.79999999984,
      "d": 652.1739999999991,
      "v": 60
    },
    {
      "midi": 62,
      "hit": false,
      "t": 130434.79999999984,
      "d": 978.2609999999986,
      "v": 60
    },
    {
      "midi": 46,
      "hit": false,
      "t": 130434.79999999984,
      "d": 652.1739999999991,
      "v": 60
    },
    {
      "midi": 62,
      "hit": false,
      "t": 130434.79999999984,
      "d": 978.2609999999986,
      "v": 60
    },
    {
      "midi": 46,
      "hit": false,
      "t": 131086.97399999984,
      "d": 326.08699999999953,
      "v": 60
    },
    {
      "midi": 46,
      "hit": false,
      "t": 131086.97399999984,
      "d": 326.08699999999953,
      "v": 60
    },
    {
      "midi": 41,
      "hit": false,
      "t": 131413.06099999984,
      "d": 326.08699999999953,
      "v": 60
    },
    {
      "midi": 57,
      "hit": false,
      "t": 131413.06099999984,
      "d": 326.08699999999953,
      "v": 60
    },
    {
      "midi": 60,
      "hit": false,
      "t": 131413.06099999984,
      "d": 326.08699999999953,
      "v": 60
    },
    {
      "midi": 41,
      "hit": false,
      "t": 131413.06099999984,
      "d": 326.08699999999953,
      "v": 60
    },
    {
      "midi": 57,
      "hit": false,
      "t": 131413.06099999984,
      "d": 326.08699999999953,
      "v": 60
    },
    {
      "midi": 60,
      "hit": false,
      "t": 131413.06099999984,
      "d": 326.08699999999953,
      "v": 60
    },
    {
      "midi": 46,
      "hit": false,
      "t": 131739.14799999984,
      "d": 652.1739999999991,
      "v": 60
    },
    {
      "midi": 58,
      "hit": false,
      "t": 131739.14799999984,
      "d": 978.2609999999986,
      "v": 60
    },
    {
      "midi": 62,
      "hit": false,
      "t": 131739.14799999984,
      "d": 978.2609999999986,
      "v": 60
    },
    {
      "midi": 46,
      "hit": false,
      "t": 131739.14799999984,
      "d": 652.1739999999991,
      "v": 60
    },
    {
      "midi": 58,
      "hit": false,
      "t": 131739.14799999984,
      "d": 978.2609999999986,
      "v": 60
    },
    {
      "midi": 62,
      "hit": false,
      "t": 131739.14799999984,
      "d": 978.2609999999986,
      "v": 60
    },
    {
      "midi": 46,
      "hit": false,
      "t": 132391.32199999984,
      "d": 326.08699999999953,
      "v": 60
    },
    {
      "midi": 46,
      "hit": false,
      "t": 132391.32199999984,
      "d": 326.08699999999953,
      "v": 60
    },
    {
      "midi": 45,
      "hit": false,
      "t": 132717.40899999984,
      "d": 326.08699999999953,
      "v": 60
    },
    {
      "midi": 60,
      "hit": false,
      "t": 132717.40899999984,
      "d": 326.08699999999953,
      "v": 60
    },
    {
      "midi": 45,
      "hit": false,
      "t": 132717.40899999984,
      "d": 326.08699999999953,
      "v": 60
    },
    {
      "midi": 60,
      "hit": false,
      "t": 132717.40899999984,
      "d": 326.08699999999953,
      "v": 60
    },
    {
      "midi": 46,
      "hit": false,
      "t": 133043.49599999984,
      "d": 652.1739999999991,
      "v": 60
    },
    {
      "midi": 62,
      "hit": false,
      "t": 133043.49599999984,
      "d": 1304.3479999999981,
      "v": 60
    },
    {
      "midi": 46,
      "hit": false,
      "t": 133043.49599999984,
      "d": 652.1739999999991,
      "v": 60
    },
    {
      "midi": 62,
      "hit": false,
      "t": 133043.49599999984,
      "d": 1304.3479999999981,
      "v": 60
    },
    {
      "midi": 46,
      "hit": false,
      "t": 133695.66999999984,
      "d": 652.1739999999991,
      "v": 60
    },
    {
      "midi": 46,
      "hit": false,
      "t": 133695.66999999984,
      "d": 652.1739999999991,
      "v": 60
    },
    {
      "midi": 45,
      "hit": false,
      "t": 134347.84399999984,
      "d": 652.1739999999991,
      "v": 60
    },
    {
      "midi": 60,
      "hit": false,
      "t": 134347.84399999984,
      "d": 1304.3479999999981,
      "v": 60
    },
    {
      "midi": 65,
      "hit": false,
      "t": 134347.84399999984,
      "d": 1304.3479999999981,
      "v": 60
    },
    {
      "midi": 45,
      "hit": false,
      "t": 134347.84399999984,
      "d": 652.1739999999991,
      "v": 60
    },
    {
      "midi": 60,
      "hit": false,
      "t": 134347.84399999984,
      "d": 1304.3479999999981,
      "v": 60
    },
    {
      "midi": 65,
      "hit": false,
      "t": 134347.84399999984,
      "d": 1304.3479999999981,
      "v": 60
    },
    {
      "midi": 45,
      "hit": false,
      "t": 135000.01799999984,
      "d": 652.1739999999991,
      "v": 60
    },
    {
      "midi": 45,
      "hit": false,
      "t": 135000.01799999984,
      "d": 652.1739999999991,
      "v": 60
    },
    {
      "midi": 36,
      "hit": false,
      "t": 135652.19199999984,
      "d": 652.1739999999991,
      "v": 60
    },
    {
      "midi": 36,
      "hit": false,
      "t": 135652.19199999984,
      "d": 652.1739999999991,
      "v": 60
    },
    {
      "midi": 55,
      "hit": false,
      "t": 136304.36599999983,
      "d": 163.04349999999977,
      "v": 60
    },
    {
      "midi": 36,
      "hit": false,
      "t": 136304.36599999983,
      "d": 1956.5219999999972,
      "v": 60
    },
    {
      "midi": 55,
      "hit": false,
      "t": 136304.36599999983,
      "d": 163.04349999999977,
      "v": 60
    },
    {
      "midi": 36,
      "hit": false,
      "t": 136304.36599999983,
      "d": 1956.5219999999972,
      "v": 60
    },
    {
      "midi": 60,
      "hit": false,
      "t": 136467.40949999983,
      "d": 163.04349999999977,
      "v": 60
    },
    {
      "midi": 60,
      "hit": false,
      "t": 136467.40949999983,
      "d": 163.04349999999977,
      "v": 60
    },
    {
      "midi": 62,
      "hit": false,
      "t": 136630.45299999983,
      "d": 163.04349999999977,
      "v": 60
    },
    {
      "midi": 62,
      "hit": false,
      "t": 136630.45299999983,
      "d": 163.04349999999977,
      "v": 60
    },
    {
      "midi": 67,
      "hit": false,
      "t": 136793.49649999983,
      "d": 163.04349999999977,
      "v": 60
    },
    {
      "midi": 67,
      "hit": false,
      "t": 136793.49649999983,
      "d": 163.04349999999977,
      "v": 60
    },
    {
      "midi": 67,
      "hit": false,
      "t": 136956.53999999983,
      "d": 163.04349999999977,
      "v": 60
    },
    {
      "midi": 67,
      "hit": false,
      "t": 136956.53999999983,
      "d": 163.04349999999977,
      "v": 60
    },
    {
      "midi": 72,
      "hit": false,
      "t": 137119.58349999983,
      "d": 163.04349999999977,
      "v": 60
    },
    {
      "midi": 72,
      "hit": false,
      "t": 137119.58349999983,
      "d": 163.04349999999977,
      "v": 60
    },
    {
      "midi": 74,
      "hit": false,
      "t": 137282.62699999983,
      "d": 163.04349999999977,
      "v": 60
    },
    {
      "midi": 74,
      "hit": false,
      "t": 137282.62699999983,
      "d": 163.04349999999977,
      "v": 60
    },
    {
      "midi": 79,
      "hit": false,
      "t": 137445.67049999983,
      "d": 163.04349999999977,
      "v": 60
    },
    {
      "midi": 79,
      "hit": false,
      "t": 137445.67049999983,
      "d": 163.04349999999977,
      "v": 60
    },
    {
      "midi": 72,
      "hit": false,
      "t": 137608.71399999983,
      "d": 163.04349999999977,
      "v": 60
    },
    {
      "midi": 72,
      "hit": false,
      "t": 137608.71399999983,
      "d": 163.04349999999977,
      "v": 60
    },
    {
      "midi": 74,
      "hit": false,
      "t": 137771.75749999983,
      "d": 163.04349999999977,
      "v": 60
    },
    {
      "midi": 74,
      "hit": false,
      "t": 137771.75749999983,
      "d": 163.04349999999977,
      "v": 60
    },
    {
      "midi": 79,
      "hit": false,
      "t": 137934.80099999983,
      "d": 163.04349999999977,
      "v": 60
    },
    {
      "midi": 79,
      "hit": false,
      "t": 137934.80099999983,
      "d": 163.04349999999977,
      "v": 60
    },
    {
      "midi": 74,
      "hit": false,
      "t": 138097.84449999983,
      "d": 163.04349999999977,
      "v": 60
    },
    {
      "midi": 74,
      "hit": false,
      "t": 138097.84449999983,
      "d": 163.04349999999977,
      "v": 60
    },
    {
      "midi": 55,
      "hit": false,
      "t": 138913.06199999983,
      "d": 163.04349999999977,
      "v": 60
    },
    {
      "midi": 36,
      "hit": false,
      "t": 138913.06199999983,
      "d": 1956.5219999999972,
      "v": 60
    },
    {
      "midi": 55,
      "hit": false,
      "t": 138913.06199999983,
      "d": 163.04349999999977,
      "v": 60
    },
    {
      "midi": 36,
      "hit": false,
      "t": 138913.06199999983,
      "d": 1956.5219999999972,
      "v": 60
    },
    {
      "midi": 60,
      "hit": false,
      "t": 139076.10549999983,
      "d": 163.04349999999977,
      "v": 60
    },
    {
      "midi": 60,
      "hit": false,
      "t": 139076.10549999983,
      "d": 163.04349999999977,
      "v": 60
    },
    {
      "midi": 62,
      "hit": false,
      "t": 139239.14899999983,
      "d": 163.04349999999977,
      "v": 60
    },
    {
      "midi": 62,
      "hit": false,
      "t": 139239.14899999983,
      "d": 163.04349999999977,
      "v": 60
    },
    {
      "midi": 67,
      "hit": false,
      "t": 139402.19249999983,
      "d": 163.04349999999977,
      "v": 60
    },
    {
      "midi": 67,
      "hit": false,
      "t": 139402.19249999983,
      "d": 163.04349999999977,
      "v": 60
    },
    {
      "midi": 67,
      "hit": false,
      "t": 139565.23599999983,
      "d": 163.04349999999977,
      "v": 60
    },
    {
      "midi": 67,
      "hit": false,
      "t": 139565.23599999983,
      "d": 163.04349999999977,
      "v": 60
    },
    {
      "midi": 72,
      "hit": false,
      "t": 139728.27949999983,
      "d": 163.04349999999977,
      "v": 60
    },
    {
      "midi": 72,
      "hit": false,
      "t": 139728.27949999983,
      "d": 163.04349999999977,
      "v": 60
    },
    {
      "midi": 74,
      "hit": false,
      "t": 139891.32299999983,
      "d": 163.04349999999977,
      "v": 60
    },
    {
      "midi": 74,
      "hit": false,
      "t": 139891.32299999983,
      "d": 163.04349999999977,
      "v": 60
    },
    {
      "midi": 79,
      "hit": false,
      "t": 140054.36649999983,
      "d": 163.04349999999977,
      "v": 60
    },
    {
      "midi": 79,
      "hit": false,
      "t": 140054.36649999983,
      "d": 163.04349999999977,
      "v": 60
    },
    {
      "midi": 72,
      "hit": false,
      "t": 140217.40999999983,
      "d": 163.04349999999977,
      "v": 60
    },
    {
      "midi": 72,
      "hit": false,
      "t": 140217.40999999983,
      "d": 163.04349999999977,
      "v": 60
    },
    {
      "midi": 74,
      "hit": false,
      "t": 140380.45349999983,
      "d": 163.04349999999977,
      "v": 60
    },
    {
      "midi": 74,
      "hit": false,
      "t": 140380.45349999983,
      "d": 163.04349999999977,
      "v": 60
    },
    {
      "midi": 79,
      "hit": false,
      "t": 140543.49699999983,
      "d": 163.04349999999977,
      "v": 60
    },
    {
      "midi": 79,
      "hit": false,
      "t": 140543.49699999983,
      "d": 163.04349999999977,
      "v": 60
    },
    {
      "midi": 74,
      "hit": false,
      "t": 140706.54049999983,
      "d": 163.04349999999977,
      "v": 60
    },
    {
      "midi": 74,
      "hit": false,
      "t": 140706.54049999983,
      "d": 163.04349999999977,
      "v": 60
    },
    {
      "midi": 36,
      "hit": false,
      "t": 140869.58399999983,
      "d": 5217.391999999993,
      "v": 60
    },
    {
      "midi": 55,
      "hit": false,
      "t": 140869.58399999983,
      "d": 5217.391999999993,
      "v": 60
    },
    {
      "midi": 60,
      "hit": false,
      "t": 140869.58399999983,
      "d": 5217.391999999993,
      "v": 60
    },
    {
      "midi": 64,
      "hit": false,
      "t": 140869.58399999983,
      "d": 5217.391999999993,
      "v": 60
    },
    {
      "midi": 67,
      "hit": false,
      "t": 140869.58399999983,
      "d": 5217.391999999993,
      "v": 60
    },
    {
      "midi": 36,
      "hit": false,
      "t": 140869.58399999983,
      "d": 5217.391999999993,
      "v": 60
    },
    {
      "midi": 55,
      "hit": false,
      "t": 140869.58399999983,
      "d": 5217.391999999993,
      "v": 60
    },
    {
      "midi": 60,
      "hit": false,
      "t": 140869.58399999983,
      "d": 5217.391999999993,
      "v": 60
    },
    {
      "midi": 64,
      "hit": false,
      "t": 140869.58399999983,
      "d": 5217.391999999993,
      "v": 60
    },
    {
      "midi": 67,
      "hit": false,
      "t": 140869.58399999983,
      "d": 5217.391999999993,
      "v": 60
    }
  ]
}