{
  "jsonPath": "Rock/Art Rock/Level 42/lessons-in-love.json",
  "path": "Rock\\Art Rock\\Level 42\\Lessons In Love.mid",
  "name": "Lessons In Love",
  "difficulty": "Advanced",
  "bpm": 115.5001155001155,
  "notes": [
    {
      "midi": 76,
      "hit": false,
      "t": 4155.84,
      "d": 121.75312500000018,
      "v": 58
    },
    {
      "midi": 59,
      "hit": false,
      "t": 4155.84,
      "d": 627.7049999999999,
      "v": 64
    },
    {
      "midi": 64,
      "hit": false,
      "t": 4155.84,
      "d": 660.1724999999997,
      "v": 64
    },
    {
      "midi": 68,
      "hit": false,
      "t": 4155.84,
      "d": 676.40625,
      "v": 64
    },
    {
      "midi": 54,
      "hit": false,
      "t": 4155.84,
      "d": 830.626874999999,
      "v": 60
    },
    {
      "midi": 59,
      "hit": false,
      "t": 4155.84,
      "d": 722.4018749999996,
      "v": 64
    },
    {
      "midi": 64,
      "hit": false,
      "t": 4155.84,
      "d": 757.5749999999998,
      "v": 60
    },
    {
      "midi": 68,
      "hit": false,
      "t": 4155.84,
      "d": 765.6918749999995,
      "v": 58
    },
    {
      "midi": 52,
      "hit": false,
      "t": 4155.84,
      "d": 811.6874999999991,
      "v": 52
    },
    {
      "midi": 68,
      "hit": false,
      "t": 4158.545625,
      "d": 102.81375000000025,
      "v": 48
    },
    {
      "midi": 47,
      "hit": false,
      "t": 4180.190625,
      "d": 771.1031249999987,
      "v": 56
    },
    {
      "midi": 66,
      "hit": false,
      "t": 4929.648749999999,
      "d": 1003.7868749999998,
      "v": 56
    },
    {
      "midi": 64,
      "hit": false,
      "t": 4929.64875,
      "d": 928.0293749999983,
      "v": 64
    },
    {
      "midi": 69,
      "hit": false,
      "t": 4932.354375,
      "d": 865.7999999999993,
      "v": 64
    },
    {
      "midi": 66,
      "hit": false,
      "t": 4932.354375,
      "d": 892.8562499999989,
      "v": 44
    },
    {
      "midi": 62,
      "hit": false,
      "t": 4932.354375,
      "d": 895.5618749999985,
      "v": 64
    },
    {
      "midi": 78,
      "hit": false,
      "t": 4935.06,
      "d": 100.10812499999975,
      "v": 62
    },
    {
      "midi": 62,
      "hit": false,
      "t": 4937.765624999999,
      "d": 911.7956249999997,
      "v": 56
    },
    {
      "midi": 57,
      "hit": false,
      "t": 4937.765624999999,
      "d": 930.7349999999997,
      "v": 52
    },
    {
      "midi": 69,
      "hit": false,
      "t": 4940.471249999999,
      "d": 895.5618750000003,
      "v": 73
    },
    {
      "midi": 48,
      "hit": false,
      "t": 4940.471249999999,
      "d": 1036.2543750000004,
      "v": 56
    },
    {
      "midi": 57,
      "hit": false,
      "t": 4940.47125,
      "d": 990.258749999999,
      "v": 64
    },
    {
      "midi": 69,
      "hit": false,
      "t": 4940.4712500000005,
      "d": 86.57999999999993,
      "v": 73
    },
    {
      "midi": 55,
      "hit": false,
      "t": 5955.080624999999,
      "d": 2161.7943750000004,
      "v": 64
    },
    {
      "midi": 69,
      "hit": false,
      "t": 5957.786249999999,
      "d": 2367.421875,
      "v": 73
    },
    {
      "midi": 60,
      "hit": false,
      "t": 5968.6087499999985,
      "d": 2102.270625,
      "v": 64
    },
    {
      "midi": 64,
      "hit": false,
      "t": 5968.6087499999985,
      "d": 2107.681875,
      "v": 64
    },
    {
      "midi": 69,
      "hit": false,
      "t": 5968.6087499999985,
      "d": 2132.0325000000003,
      "v": 64
    },
    {
      "midi": 57,
      "hit": false,
      "t": 5968.608749999999,
      "d": 2299.78125,
      "v": 64
    },
    {
      "midi": 78,
      "hit": false,
      "t": 5971.314375,
      "d": 78.46312500000022,
      "v": 57
    },
    {
      "midi": 64,
      "hit": false,
      "t": 5974.0199999999995,
      "d": 2264.6081249999997,
      "v": 60
    },
    {
      "midi": 60,
      "hit": false,
      "t": 5976.725624999999,
      "d": 2259.1968749999996,
      "v": 44
    },
    {
      "midi": 69,
      "hit": false,
      "t": 5976.725625,
      "d": 86.57999999999993,
      "v": 64
    },
    {
      "midi": 48,
      "hit": false,
      "t": 5982.136874999999,
      "d": 2297.0756250000004,
      "v": 56
    },
    {
      "midi": 54,
      "hit": false,
      "t": 8300.857499999998,
      "d": 765.6918749999986,
      "v": 52
    },
    {
      "midi": 47,
      "hit": false,
      "t": 8303.563124999999,
      "d": 811.6875,
      "v": 56
    },
    {
      "midi": 59,
      "hit": false,
      "t": 8308.974374999998,
      "d": 606.0599999999995,
      "v": 64
    },
    {
      "midi": 64,
      "hit": false,
      "t": 8308.974374999998,
      "d": 646.6443749999999,
      "v": 64
    },
    {
      "midi": 68,
      "hit": false,
      "t": 8308.974374999998,
      "d": 681.8174999999992,
      "v": 64
    },
    {
      "midi": 68,
      "hit": false,
      "t": 8308.974375,
      "d": 100.10812500000065,
      "v": 60
    },
    {
      "midi": 59,
      "hit": false,
      "t": 8311.679999999998,
      "d": 722.4018750000014,
      "v": 64
    },
    {
      "midi": 64,
      "hit": false,
      "t": 8311.679999999998,
      "d": 757.5750000000007,
      "v": 60
    },
    {
      "midi": 68,
      "hit": false,
      "t": 8311.679999999998,
      "d": 765.6918750000004,
      "v": 44
    },
    {
      "midi": 76,
      "hit": false,
      "t": 8311.68,
      "d": 175.86562500000036,
      "v": 59
    },
    {
      "midi": 57,
      "hit": false,
      "t": 9074.666249999997,
      "d": 990.258749999999,
      "v": 60
    },
    {
      "midi": 66,
      "hit": false,
      "t": 9085.488749999999,
      "d": 1003.7868749999998,
      "v": 56
    },
    {
      "midi": 69,
      "hit": false,
      "t": 9088.194374999997,
      "d": 876.6224999999995,
      "v": 64
    },
    {
      "midi": 62,
      "hit": false,
      "t": 9088.194374999997,
      "d": 892.8562499999989,
      "v": 64
    },
    {
      "midi": 66,
      "hit": false,
      "t": 9088.194374999997,
      "d": 895.5618749999994,
      "v": 44
    },
    {
      "midi": 64,
      "hit": false,
      "t": 9088.194374999997,
      "d": 903.6787499999991,
      "v": 64
    },
    {
      "midi": 62,
      "hit": false,
      "t": 9093.605624999998,
      "d": 911.7956250000007,
      "v": 56
    },
    {
      "midi": 57,
      "hit": false,
      "t": 9093.605624999998,
      "d": 930.7350000000006,
      "v": 52
    },
    {
      "midi": 69,
      "hit": false,
      "t": 9093.605625,
      "d": 83.87437500000124,
      "v": 64
    },
    {
      "midi": 48,
      "hit": false,
      "t": 9096.311249999999,
      "d": 1066.016249999997,
      "v": 56
    },
    {
      "midi": 69,
      "hit": false,
      "t": 9104.428124999999,
      "d": 825.2156250000007,
      "v": 52
    },
    {
      "midi": 78,
      "hit": false,
      "t": 9107.13375,
      "d": 97.40250000000015,
      "v": 56
    },
    {
      "midi": 69,
      "hit": false,
      "t": 10119.037499999999,
      "d": 1420.4531249999964,
      "v": 64
    },
    {
      "midi": 57,
      "hit": false,
      "t": 10124.448749999998,
      "d": 1298.699999999999,
      "v": 64
    },
    {
      "midi": 55,
      "hit": false,
      "t": 10127.154374999996,
      "d": 1304.111249999998,
      "v": 56
    },
    {
      "midi": 69,
      "hit": false,
      "t": 10127.154375000002,
      "d": 86.57999999999993,
      "v": 73
    },
    {
      "midi": 64,
      "hit": false,
      "t": 10129.859999999997,
      "d": 1295.9943750000002,
      "v": 60
    },
    {
      "midi": 69,
      "hit": false,
      "t": 10132.565624999996,
      "d": 1323.050624999998,
      "v": 64
    },
    {
      "midi": 61,
      "hit": false,
      "t": 10132.565624999996,
      "d": 1325.7562499999985,
      "v": 64
    },
    {
      "midi": 64,
      "hit": false,
      "t": 10132.565624999996,
      "d": 1325.7562499999985,
      "v": 64
    },
    {
      "midi": 61,
      "hit": false,
      "t": 10132.565624999997,
      "d": 1298.699999999999,
      "v": 44
    },
    {
      "midi": 67,
      "hit": false,
      "t": 10137.976874999995,
      "d": 1298.699999999999,
      "v": 48
    },
    {
      "midi": 45,
      "hit": false,
      "t": 10137.976874999997,
      "d": 1298.699999999999,
      "v": 48
    },
    {
      "midi": 78,
      "hit": false,
      "t": 10137.976875000002,
      "d": 100.10812499999884,
      "v": 55
    },
    {
      "midi": 66,
      "hit": false,
      "t": 11412.326249999996,
      "d": 535.7137499999881,
      "v": 78
    },
    {
      "midi": 67,
      "hit": false,
      "t": 11444.793749999993,
      "d": 5143.393124999999,
      "v": 64
    },
    {
      "midi": 55,
      "hit": false,
      "t": 11447.499374999994,
      "d": 5146.098749999999,
      "v": 64
    },
    {
      "midi": 64,
      "hit": false,
      "t": 11948.039999999985,
      "d": 500.54062499999964,
      "v": 78
    },
    {
      "midi": 50,
      "hit": false,
      "t": 12462.108749999985,
      "d": 4161.251250000001,
      "v": 60
    },
    {
      "midi": 43,
      "hit": false,
      "t": 12462.108749999994,
      "d": 4180.190624999997,
      "v": 73
    },
    {
      "midi": 55,
      "hit": false,
      "t": 12467.519999999984,
      "d": 4155.840000000002,
      "v": 60
    },
    {
      "midi": 55,
      "hit": false,
      "t": 12467.52,
      "d": 146.10375000000022,
      "v": 67
    },
    {
      "midi": 43,
      "hit": false,
      "t": 12467.52,
      "d": 278.6793749999997,
      "v": 67
    },
    {
      "midi": 62,
      "hit": false,
      "t": 12467.52,
      "d": 292.20750000000044,
      "v": 67
    },
    {
      "midi": 59,
      "hit": false,
      "t": 12467.52,
      "d": 303.03000000000065,
      "v": 67
    },
    {
      "midi": 31,
      "hit": false,
      "t": 12467.52,
      "d": 183.98250000000007,
      "v": 91
    },
    {
      "midi": 59,
      "hit": false,
      "t": 12481.048124999985,
      "d": 4147.723125000002,
      "v": 60
    },
    {
      "midi": 55,
      "hit": false,
      "t": 12727.26,
      "d": 51.40687500000058,
      "v": 67
    },
    {
      "midi": 31,
      "hit": false,
      "t": 12727.26,
      "d": 108.22500000000036,
      "v": 56
    },
    {
      "midi": 55,
      "hit": false,
      "t": 12857.130000000001,
      "d": 45.99562499999956,
      "v": 67
    },
    {
      "midi": 62,
      "hit": false,
      "t": 12857.130000000001,
      "d": 51.40687499999876,
      "v": 67
    },
    {
      "midi": 59,
      "hit": false,
      "t": 12857.130000000001,
      "d": 56.81812499999796,
      "v": 67
    },
    {
      "midi": 31,
      "hit": false,
      "t": 12865.246875,
      "d": 54.11249999999927,
      "v": 87
    },
    {
      "midi": 35,
      "hit": false,
      "t": 12987,
      "d": 129.8700000000008,
      "v": 73
    },
    {
      "midi": 55,
      "hit": false,
      "t": 13116.869999999999,
      "d": 43.29000000000087,
      "v": 65
    },
    {
      "midi": 59,
      "hit": false,
      "t": 13246.74,
      "d": 37.878749999999854,
      "v": 67
    },
    {
      "midi": 62,
      "hit": false,
      "t": 13246.74,
      "d": 56.81812499999978,
      "v": 67
    },
    {
      "midi": 35,
      "hit": false,
      "t": 13246.740000000002,
      "d": 146.10375000000022,
      "v": 87
    },
    {
      "midi": 43,
      "hit": false,
      "t": 13506.48,
      "d": 29.761875000000146,
      "v": 67
    },
    {
      "midi": 31,
      "hit": false,
      "t": 13506.480000000001,
      "d": 175.86562500000036,
      "v": 86
    },
    {
      "midi": 43,
      "hit": false,
      "t": 13636.35,
      "d": 45.99562499999956,
      "v": 67
    },
    {
      "midi": 59,
      "hit": false,
      "t": 13766.22,
      "d": 40.584375000000364,
      "v": 67
    },
    {
      "midi": 55,
      "hit": false,
      "t": 13766.22,
      "d": 51.40687500000058,
      "v": 67
    },
    {
      "midi": 62,
      "hit": false,
      "t": 13766.22,
      "d": 51.40687500000058,
      "v": 67
    },
    {
      "midi": 31,
      "hit": false,
      "t": 13766.220000000001,
      "d": 35.173124999999345,
      "v": 70
    },
    {
      "midi": 31,
      "hit": false,
      "t": 13904.206875,
      "d": 54.11249999999927,
      "v": 90
    },
    {
      "midi": 43,
      "hit": false,
      "t": 14025.96,
      "d": 37.878749999999854,
      "v": 67
    },
    {
      "midi": 35,
      "hit": false,
      "t": 14025.96,
      "d": 129.8700000000008,
      "v": 73
    },
    {
      "midi": 59,
      "hit": false,
      "t": 14155.829999999998,
      "d": 45.99562499999956,
      "v": 67
    },
    {
      "midi": 62,
      "hit": false,
      "t": 14155.829999999998,
      "d": 54.11249999999927,
      "v": 67
    },
    {
      "midi": 43,
      "hit": false,
      "t": 14285.699999999997,
      "d": 27.056249999999636,
      "v": 67
    },
    {
      "midi": 35,
      "hit": false,
      "t": 14285.7,
      "d": 37.878749999999854,
      "v": 58
    },
    {
      "midi": 43,
      "hit": false,
      "t": 14415.569999999996,
      "d": 48.70125000000007,
      "v": 67
    },
    {
      "midi": 35,
      "hit": false,
      "t": 14415.57,
      "d": 81.16875000000073,
      "v": 87
    },
    {
      "midi": 55,
      "hit": false,
      "t": 14545.439999999997,
      "d": 146.10375000000022,
      "v": 67
    },
    {
      "midi": 43,
      "hit": false,
      "t": 14545.439999999997,
      "d": 278.6793749999997,
      "v": 67
    },
    {
      "midi": 62,
      "hit": false,
      "t": 14545.439999999997,
      "d": 292.20750000000044,
      "v": 67
    },
    {
      "midi": 59,
      "hit": false,
      "t": 14545.439999999997,
      "d": 303.03000000000065,
      "v": 67
    },
    {
      "midi": 31,
      "hit": false,
      "t": 14545.44,
      "d": 183.98250000000007,
      "v": 91
    },
    {
      "midi": 55,
      "hit": false,
      "t": 14805.179999999997,
      "d": 51.40687500000058,
      "v": 67
    },
    {
      "midi": 31,
      "hit": false,
      "t": 14805.18,
      "d": 129.8700000000008,
      "v": 56
    },
    {
      "midi": 55,
      "hit": false,
      "t": 14935.049999999997,
      "d": 45.99562499999956,
      "v": 67
    },
    {
      "midi": 62,
      "hit": false,
      "t": 14935.049999999997,
      "d": 51.40687499999876,
      "v": 67
    },
    {
      "midi": 59,
      "hit": false,
      "t": 14935.049999999997,
      "d": 56.81812499999796,
      "v": 67
    },
    {
      "midi": 31,
      "hit": false,
      "t": 14943.166875,
      "d": 54.11249999999927,
      "v": 87
    },
    {
      "midi": 35,
      "hit": false,
      "t": 15064.92,
      "d": 129.8700000000008,
      "v": 73
    },
    {
      "midi": 55,
      "hit": false,
      "t": 15194.789999999995,
      "d": 43.29000000000087,
      "v": 65
    },
    {
      "midi": 59,
      "hit": false,
      "t": 15324.659999999996,
      "d": 37.878749999999854,
      "v": 67
    },
    {
      "midi": 62,
      "hit": false,
      "t": 15324.659999999996,
      "d": 56.81812499999978,
      "v": 67
    },
    {
      "midi": 35,
      "hit": false,
      "t": 15324.660000000002,
      "d": 146.10375000000022,
      "v": 87
    },
    {
      "midi": 43,
      "hit": false,
      "t": 15584.399999999996,
      "d": 29.761875000000146,
      "v": 67
    },
    {
      "midi": 31,
      "hit": false,
      "t": 15584.400000000001,
      "d": 175.86562500000036,
      "v": 86
    },
    {
      "midi": 43,
      "hit": false,
      "t": 15714.269999999997,
      "d": 45.99562499999956,
      "v": 67
    },
    {
      "midi": 59,
      "hit": false,
      "t": 15844.139999999996,
      "d": 40.584375000000364,
      "v": 67
    },
    {
      "midi": 55,
      "hit": false,
      "t": 15844.139999999996,
      "d": 51.40687500000058,
      "v": 67
    },
    {
      "midi": 62,
      "hit": false,
      "t": 15844.139999999996,
      "d": 51.40687500000058,
      "v": 67
    },
    {
      "midi": 31,
      "hit": false,
      "t": 15844.140000000001,
      "d": 35.173124999999345,
      "v": 70
    },
    {
      "midi": 31,
      "hit": false,
      "t": 15982.126875,
      "d": 54.11249999999927,
      "v": 90
    },
    {
      "midi": 43,
      "hit": false,
      "t": 16103.879999999996,
      "d": 37.878749999999854,
      "v": 67
    },
    {
      "midi": 35,
      "hit": false,
      "t": 16103.88,
      "d": 129.8700000000008,
      "v": 73
    },
    {
      "midi": 59,
      "hit": false,
      "t": 16233.749999999995,
      "d": 45.99562499999956,
      "v": 67
    },
    {
      "midi": 62,
      "hit": false,
      "t": 16233.749999999995,
      "d": 54.11249999999927,
      "v": 67
    },
    {
      "midi": 43,
      "hit": false,
      "t": 16363.619999999994,
      "d": 27.056249999999636,
      "v": 67
    },
    {
      "midi": 35,
      "hit": false,
      "t": 16363.62,
      "d": 37.87875000000167,
      "v": 61
    },
    {
      "midi": 43,
      "hit": false,
      "t": 16493.489999999994,
      "d": 48.701249999998254,
      "v": 67
    },
    {
      "midi": 35,
      "hit": false,
      "t": 16493.49,
      "d": 81.16875000000073,
      "v": 78
    },
    {
      "midi": 55,
      "hit": false,
      "t": 16623.359999999993,
      "d": 146.1037499999984,
      "v": 67
    },
    {
      "midi": 43,
      "hit": false,
      "t": 16623.359999999993,
      "d": 278.6793749999997,
      "v": 67
    },
    {
      "midi": 62,
      "hit": false,
      "t": 16623.359999999993,
      "d": 292.20750000000044,
      "v": 67
    },
    {
      "midi": 59,
      "hit": false,
      "t": 16623.359999999993,
      "d": 303.02999999999884,
      "v": 67
    },
    {
      "midi": 31,
      "hit": false,
      "t": 16623.36,
      "d": 183.98249999999825,
      "v": 91
    },
    {
      "midi": 55,
      "hit": false,
      "t": 16623.36,
      "d": 300.32437500000015,
      "v": 56
    },
    {
      "midi": 62,
      "hit": false,
      "t": 16623.36,
      "d": 300.32437500000015,
      "v": 64
    },
    {
      "midi": 59,
      "hit": false,
      "t": 16623.36,
      "d": 305.73562500000116,
      "v": 73
    },
    {
      "midi": 55,
      "hit": false,
      "t": 16883.09999999999,
      "d": 51.40687500000058,
      "v": 67
    },
    {
      "midi": 31,
      "hit": false,
      "t": 16883.1,
      "d": 108.22499999999854,
      "v": 56
    },
    {
      "midi": 55,
      "hit": false,
      "t": 17012.96999999999,
      "d": 45.99562499999956,
      "v": 67
    },
    {
      "midi": 62,
      "hit": false,
      "t": 17012.96999999999,
      "d": 51.40687500000058,
      "v": 67
    },
    {
      "midi": 59,
      "hit": false,
      "t": 17012.96999999999,
      "d": 56.8181250000016,
      "v": 67
    },
    {
      "midi": 31,
      "hit": false,
      "t": 17021.086874999997,
      "d": 54.11249999999927,
      "v": 87
    },
    {
      "midi": 35,
      "hit": false,
      "t": 17142.839999999997,
      "d": 129.86999999999898,
      "v": 73
    },
    {
      "midi": 55,
      "hit": false,
      "t": 17272.709999999992,
      "d": 43.29000000000087,
      "v": 65
    },
    {
      "midi": 59,
      "hit": false,
      "t": 17402.579999999994,
      "d": 37.878749999999854,
      "v": 67
    },
    {
      "midi": 62,
      "hit": false,
      "t": 17402.579999999994,
      "d": 56.8181250000016,
      "v": 67
    },
    {
      "midi": 35,
      "hit": false,
      "t": 17402.579999999994,
      "d": 146.1037499999984,
      "v": 87
    },
    {
      "midi": 38,
      "hit": false,
      "t": 17662.319999999992,
      "d": 175.86562499999854,
      "v": 86
    },
    {
      "midi": 43,
      "hit": false,
      "t": 17662.319999999996,
      "d": 29.761875000000146,
      "v": 67
    },
    {
      "midi": 43,
      "hit": false,
      "t": 17792.189999999995,
      "d": 45.99562499999956,
      "v": 67
    },
    {
      "midi": 38,
      "hit": false,
      "t": 17922.05999999999,
      "d": 35.173125000001164,
      "v": 70
    },
    {
      "midi": 59,
      "hit": false,
      "t": 17922.059999999994,
      "d": 40.584374999998545,
      "v": 67
    },
    {
      "midi": 55,
      "hit": false,
      "t": 17922.059999999994,
      "d": 51.406874999996944,
      "v": 67
    },
    {
      "midi": 62,
      "hit": false,
      "t": 17922.059999999994,
      "d": 51.406874999996944,
      "v": 67
    },
    {
      "midi": 38,
      "hit": false,
      "t": 18060.046874999993,
      "d": 54.11249999999927,
      "v": 90
    },
    {
      "midi": 43,
      "hit": false,
      "t": 18181.799999999992,
      "d": 37.878749999999854,
      "v": 67
    },
    {
      "midi": 43,
      "hit": false,
      "t": 18181.799999999992,
      "d": 129.86999999999898,
      "v": 73
    },
    {
      "midi": 59,
      "hit": false,
      "t": 18311.66999999999,
      "d": 45.99562499999956,
      "v": 67
    },
    {
      "midi": 62,
      "hit": false,
      "t": 18311.66999999999,
      "d": 54.11249999999927,
      "v": 67
    },
    {
      "midi": 43,
      "hit": false,
      "t": 18441.53999999999,
      "d": 27.056250000001455,
      "v": 67
    },
    {
      "midi": 43,
      "hit": false,
      "t": 18441.53999999999,
      "d": 37.878749999999854,
      "v": 58
    },
    {
      "midi": 43,
      "hit": false,
      "t": 18571.40999999999,
      "d": 81.16875000000073,
      "v": 87
    },
    {
      "midi": 43,
      "hit": false,
      "t": 18571.409999999993,
      "d": 48.701249999998254,
      "v": 67
    },
    {
      "midi": 35,
      "hit": false,
      "t": 18701.279999999988,
      "d": 183.98249999999825,
      "v": 91
    },
    {
      "midi": 54,
      "hit": false,
      "t": 18701.27999999999,
      "d": 146.1037499999984,
      "v": 67
    },
    {
      "midi": 47,
      "hit": false,
      "t": 18701.27999999999,
      "d": 278.6793749999997,
      "v": 67
    },
    {
      "midi": 63,
      "hit": false,
      "t": 18701.27999999999,
      "d": 292.20750000000044,
      "v": 67
    },
    {
      "midi": 59,
      "hit": false,
      "t": 18701.27999999999,
      "d": 303.02999999999884,
      "v": 67
    },
    {
      "midi": 57,
      "hit": false,
      "t": 18701.280000000002,
      "d": 286.7962499999994,
      "v": 82
    },
    {
      "midi": 63,
      "hit": false,
      "t": 18701.280000000002,
      "d": 292.20750000000044,
      "v": 60
    },
    {
      "midi": 54,
      "hit": false,
      "t": 18701.280000000002,
      "d": 297.61875000000146,
      "v": 60
    },
    {
      "midi": 35,
      "hit": false,
      "t": 18961.019999999986,
      "d": 129.86999999999898,
      "v": 56
    },
    {
      "midi": 54,
      "hit": false,
      "t": 18961.01999999999,
      "d": 51.40687500000058,
      "v": 67
    },
    {
      "midi": 54,
      "hit": false,
      "t": 19090.88999999999,
      "d": 45.99562499999956,
      "v": 67
    },
    {
      "midi": 63,
      "hit": false,
      "t": 19090.88999999999,
      "d": 51.40687500000058,
      "v": 67
    },
    {
      "midi": 59,
      "hit": false,
      "t": 19090.88999999999,
      "d": 56.8181250000016,
      "v": 67
    },
    {
      "midi": 35,
      "hit": false,
      "t": 19099.006874999985,
      "d": 54.11249999999927,
      "v": 87
    },
    {
      "midi": 39,
      "hit": false,
      "t": 19220.759999999984,
      "d": 129.86999999999898,
      "v": 73
    },
    {
      "midi": 54,
      "hit": false,
      "t": 19350.62999999999,
      "d": 43.29000000000087,
      "v": 65
    },
    {
      "midi": 39,
      "hit": false,
      "t": 19480.49999999998,
      "d": 146.1037499999984,
      "v": 87
    },
    {
      "midi": 59,
      "hit": false,
      "t": 19480.499999999993,
      "d": 37.878749999999854,
      "v": 67
    },
    {
      "midi": 63,
      "hit": false,
      "t": 19480.499999999993,
      "d": 56.8181250000016,
      "v": 67
    },
    {
      "midi": 42,
      "hit": false,
      "t": 19740.23999999998,
      "d": 175.86562499999854,
      "v": 86
    },
    {
      "midi": 47,
      "hit": false,
      "t": 19740.239999999994,
      "d": 29.761875000000146,
      "v": 67
    },
    {
      "midi": 47,
      "hit": false,
      "t": 19870.109999999993,
      "d": 45.99562499999956,
      "v": 67
    },
    {
      "midi": 42,
      "hit": false,
      "t": 19999.979999999978,
      "d": 35.173125000001164,
      "v": 70
    },
    {
      "midi": 59,
      "hit": false,
      "t": 19999.979999999992,
      "d": 40.584374999998545,
      "v": 67
    },
    {
      "midi": 54,
      "hit": false,
      "t": 19999.979999999992,
      "d": 51.406874999996944,
      "v": 67
    },
    {
      "midi": 63,
      "hit": false,
      "t": 19999.979999999992,
      "d": 51.406874999996944,
      "v": 67
    },
    {
      "midi": 42,
      "hit": false,
      "t": 20137.96687499998,
      "d": 54.11249999999927,
      "v": 90
    },
    {
      "midi": 47,
      "hit": false,
      "t": 20259.71999999998,
      "d": 129.86999999999898,
      "v": 73
    },
    {
      "midi": 47,
      "hit": false,
      "t": 20259.71999999999,
      "d": 37.878749999999854,
      "v": 67
    },
    {
      "midi": 59,
      "hit": false,
      "t": 20389.58999999999,
      "d": 45.99562499999956,
      "v": 67
    },
    {
      "midi": 63,
      "hit": false,
      "t": 20389.58999999999,
      "d": 54.11249999999927,
      "v": 67
    },
    {
      "midi": 47,
      "hit": false,
      "t": 20519.459999999977,
      "d": 37.878749999999854,
      "v": 61
    },
    {
      "midi": 47,
      "hit": false,
      "t": 20519.45999999999,
      "d": 27.056250000001455,
      "v": 67
    },
    {
      "midi": 47,
      "hit": false,
      "t": 20649.329999999976,
      "d": 81.16875000000073,
      "v": 78
    },
    {
      "midi": 47,
      "hit": false,
      "t": 20649.32999999999,
      "d": 48.701249999998254,
      "v": 67
    },
    {
      "midi": 28,
      "hit": false,
      "t": 20779.199999999975,
      "d": 183.98249999999825,
      "v": 91
    },
    {
      "midi": 55,
      "hit": false,
      "t": 20779.19999999999,
      "d": 146.1037499999984,
      "v": 67
    },
    {
      "midi": 52,
      "hit": false,
      "t": 20779.19999999999,
      "d": 278.6793749999997,
      "v": 67
    },
    {
      "midi": 64,
      "hit": false,
      "t": 20779.19999999999,
      "d": 292.20750000000044,
      "v": 67
    },
    {
      "midi": 59,
      "hit": false,
      "t": 20779.19999999999,
      "d": 303.02999999999884,
      "v": 67
    },
    {
      "midi": 55,
      "hit": false,
      "t": 20779.200000000004,
      "d": 300.32437500000015,
      "v": 64
    },
    {
      "midi": 59,
      "hit": false,
      "t": 20779.200000000004,
      "d": 300.32437500000015,
      "v": 73
    },
    {
      "midi": 64,
      "hit": false,
      "t": 20779.200000000004,
      "d": 303.02999999999884,
      "v": 60
    },
    {
      "midi": 28,
      "hit": false,
      "t": 21038.939999999973,
      "d": 129.86999999999898,
      "v": 56
    },
    {
      "midi": 55,
      "hit": false,
      "t": 21038.939999999988,
      "d": 51.40687500000058,
      "v": 67
    },
    {
      "midi": 55,
      "hit": false,
      "t": 21168.809999999987,
      "d": 45.99562499999956,
      "v": 67
    },
    {
      "midi": 64,
      "hit": false,
      "t": 21168.809999999987,
      "d": 51.40687500000058,
      "v": 67
    },
    {
      "midi": 59,
      "hit": false,
      "t": 21168.809999999987,
      "d": 56.8181250000016,
      "v": 67
    },
    {
      "midi": 28,
      "hit": false,
      "t": 21176.926874999972,
      "d": 54.11249999999927,
      "v": 87
    },
    {
      "midi": 31,
      "hit": false,
      "t": 21298.67999999997,
      "d": 175.86562499999854,
      "v": 86
    },
    {
      "midi": 55,
      "hit": false,
      "t": 21428.54999999999,
      "d": 43.29000000000087,
      "v": 65
    },
    {
      "midi": 31,
      "hit": false,
      "t": 21558.41999999997,
      "d": 35.173125000001164,
      "v": 70
    },
    {
      "midi": 59,
      "hit": false,
      "t": 21558.41999999999,
      "d": 37.878749999999854,
      "v": 67
    },
    {
      "midi": 64,
      "hit": false,
      "t": 21558.41999999999,
      "d": 56.8181250000016,
      "v": 67
    },
    {
      "midi": 31,
      "hit": false,
      "t": 21696.40687499997,
      "d": 54.11249999999927,
      "v": 90
    },
    {
      "midi": 35,
      "hit": false,
      "t": 21818.15999999997,
      "d": 175.86562499999854,
      "v": 86
    },
    {
      "midi": 52,
      "hit": false,
      "t": 21818.159999999993,
      "d": 29.761875000000146,
      "v": 67
    },
    {
      "midi": 52,
      "hit": false,
      "t": 21948.02999999999,
      "d": 45.99562499999956,
      "v": 67
    },
    {
      "midi": 35,
      "hit": false,
      "t": 22077.89999999997,
      "d": 35.173125000001164,
      "v": 70
    },
    {
      "midi": 59,
      "hit": false,
      "t": 22077.89999999999,
      "d": 40.584374999998545,
      "v": 67
    },
    {
      "midi": 55,
      "hit": false,
      "t": 22077.89999999999,
      "d": 51.406874999996944,
      "v": 67
    },
    {
      "midi": 64,
      "hit": false,
      "t": 22077.89999999999,
      "d": 51.406874999996944,
      "v": 67
    },
    {
      "midi": 35,
      "hit": false,
      "t": 22215.88687499997,
      "d": 54.11249999999927,
      "v": 90
    },
    {
      "midi": 40,
      "hit": false,
      "t": 22337.63999999997,
      "d": 129.86999999999898,
      "v": 73
    },
    {
      "midi": 52,
      "hit": false,
      "t": 22337.63999999999,
      "d": 37.878749999999854,
      "v": 67
    },
    {
      "midi": 59,
      "hit": false,
      "t": 22467.509999999987,
      "d": 45.99562499999956,
      "v": 67
    },
    {
      "midi": 64,
      "hit": false,
      "t": 22467.509999999987,
      "d": 54.11249999999927,
      "v": 67
    },
    {
      "midi": 40,
      "hit": false,
      "t": 22597.37999999997,
      "d": 37.878749999999854,
      "v": 61
    },
    {
      "midi": 52,
      "hit": false,
      "t": 22597.379999999986,
      "d": 27.056250000001455,
      "v": 67
    },
    {
      "midi": 40,
      "hit": false,
      "t": 22727.249999999967,
      "d": 81.16875000000073,
      "v": 78
    },
    {
      "midi": 52,
      "hit": false,
      "t": 22727.24999999999,
      "d": 48.701249999998254,
      "v": 67
    },
    {
      "midi": 36,
      "hit": false,
      "t": 22857.119999999966,
      "d": 183.98249999999825,
      "v": 91
    },
    {
      "midi": 55,
      "hit": false,
      "t": 22857.119999999988,
      "d": 146.1037499999984,
      "v": 67
    },
    {
      "midi": 48,
      "hit": false,
      "t": 22857.119999999988,
      "d": 278.6793749999997,
      "v": 67
    },
    {
      "midi": 64,
      "hit": false,
      "t": 22857.119999999988,
      "d": 292.20750000000044,
      "v": 67
    },
    {
      "midi": 60,
      "hit": false,
      "t": 22857.119999999988,
      "d": 303.02999999999884,
      "v": 67
    },
    {
      "midi": 55,
      "hit": false,
      "t": 22857.120000000003,
      "d": 313.8525000000009,
      "v": 64
    },
    {
      "midi": 59,
      "hit": false,
      "t": 22857.120000000003,
      "d": 313.8525000000009,
      "v": 73
    },
    {
      "midi": 64,
      "hit": false,
      "t": 22857.120000000003,
      "d": 316.55812499999956,
      "v": 64
    },
    {
      "midi": 36,
      "hit": false,
      "t": 23116.859999999964,
      "d": 127.16437500000029,
      "v": 56
    },
    {
      "midi": 55,
      "hit": false,
      "t": 23116.859999999986,
      "d": 51.40687500000058,
      "v": 67
    },
    {
      "midi": 55,
      "hit": false,
      "t": 23246.729999999985,
      "d": 45.99562499999956,
      "v": 67
    },
    {
      "midi": 64,
      "hit": false,
      "t": 23246.729999999985,
      "d": 51.40687500000058,
      "v": 67
    },
    {
      "midi": 60,
      "hit": false,
      "t": 23246.729999999985,
      "d": 56.8181250000016,
      "v": 67
    },
    {
      "midi": 36,
      "hit": false,
      "t": 23254.846874999963,
      "d": 54.11249999999927,
      "v": 87
    },
    {
      "midi": 40,
      "hit": false,
      "t": 23376.599999999962,
      "d": 129.86999999999898,
      "v": 73
    },
    {
      "midi": 55,
      "hit": false,
      "t": 23506.469999999987,
      "d": 43.29000000000087,
      "v": 65
    },
    {
      "midi": 40,
      "hit": false,
      "t": 23636.33999999996,
      "d": 127.16437500000029,
      "v": 56
    },
    {
      "midi": 60,
      "hit": false,
      "t": 23636.33999999999,
      "d": 37.878749999999854,
      "v": 67
    },
    {
      "midi": 64,
      "hit": false,
      "t": 23636.33999999999,
      "d": 56.8181250000016,
      "v": 67
    },
    {
      "midi": 40,
      "hit": false,
      "t": 23774.32687499996,
      "d": 54.11249999999927,
      "v": 87
    },
    {
      "midi": 43,
      "hit": false,
      "t": 23896.079999999958,
      "d": 175.86562499999854,
      "v": 86
    },
    {
      "midi": 48,
      "hit": false,
      "t": 23896.07999999999,
      "d": 29.761875000000146,
      "v": 67
    },
    {
      "midi": 48,
      "hit": false,
      "t": 24025.94999999999,
      "d": 45.99562499999956,
      "v": 67
    },
    {
      "midi": 43,
      "hit": false,
      "t": 24155.819999999956,
      "d": 35.173125000001164,
      "v": 70
    },
    {
      "midi": 60,
      "hit": false,
      "t": 24155.81999999999,
      "d": 40.584374999998545,
      "v": 67
    },
    {
      "midi": 55,
      "hit": false,
      "t": 24155.81999999999,
      "d": 51.406874999996944,
      "v": 67
    },
    {
      "midi": 64,
      "hit": false,
      "t": 24155.81999999999,
      "d": 51.406874999996944,
      "v": 67
    },
    {
      "midi": 67,
      "hit": false,
      "t": 24155.820000000003,
      "d": 100.10812499999884,
      "v": 64
    },
    {
      "midi": 64,
      "hit": false,
      "t": 24155.820000000003,
      "d": 129.86999999999898,
      "v": 64
    },
    {
      "midi": 60,
      "hit": false,
      "t": 24155.820000000003,
      "d": 146.1037499999984,
      "v": 73
    },
    {
      "midi": 43,
      "hit": false,
      "t": 24293.80687499996,
      "d": 54.11249999999927,
      "v": 90
    },
    {
      "midi": 48,
      "hit": false,
      "t": 24415.559999999958,
      "d": 129.86999999999898,
      "v": 73
    },
    {
      "midi": 48,
      "hit": false,
      "t": 24415.559999999987,
      "d": 37.878749999999854,
      "v": 67
    },
    {
      "midi": 60,
      "hit": false,
      "t": 24545.429999999986,
      "d": 45.99562499999956,
      "v": 67
    },
    {
      "midi": 64,
      "hit": false,
      "t": 24545.429999999986,
      "d": 54.11249999999927,
      "v": 67
    },
    {
      "midi": 64,
      "hit": false,
      "t": 24545.43,
      "d": 148.80937500000073,
      "v": 64
    },
    {
      "midi": 55,
      "hit": false,
      "t": 24545.43,
      "d": 159.63187499999913,
      "v": 64
    },
    {
      "midi": 60,
      "hit": false,
      "t": 24545.43,
      "d": 159.63187499999913,
      "v": 64
    },
    {
      "midi": 48,
      "hit": false,
      "t": 24675.299999999956,
      "d": 37.878749999999854,
      "v": 61
    },
    {
      "midi": 48,
      "hit": false,
      "t": 24675.299999999985,
      "d": 27.056250000001455,
      "v": 67
    },
    {
      "midi": 48,
      "hit": false,
      "t": 24805.169999999955,
      "d": 81.16875000000073,
      "v": 78
    },
    {
      "midi": 48,
      "hit": false,
      "t": 24805.169999999987,
      "d": 48.701249999998254,
      "v": 67
    },
    {
      "midi": 31,
      "hit": false,
      "t": 24935.039999999954,
      "d": 183.98249999999825,
      "v": 91
    },
    {
      "midi": 55,
      "hit": false,
      "t": 24935.039999999986,
      "d": 146.1037499999984,
      "v": 67
    },
    {
      "midi": 43,
      "hit": false,
      "t": 24935.039999999986,
      "d": 278.6793749999997,
      "v": 67
    },
    {
      "midi": 62,
      "hit": false,
      "t": 24935.039999999986,
      "d": 292.20750000000044,
      "v": 67
    },
    {
      "midi": 59,
      "hit": false,
      "t": 24935.039999999986,
      "d": 303.02999999999884,
      "v": 67
    },
    {
      "midi": 55,
      "hit": false,
      "t": 24935.04,
      "d": 300.32437500000015,
      "v": 56
    },
    {
      "midi": 62,
      "hit": false,
      "t": 24935.04,
      "d": 300.32437500000015,
      "v": 64
    },
    {
      "midi": 59,
      "hit": false,
      "t": 24935.04,
      "d": 305.73562500000116,
      "v": 73
    },
    {
      "midi": 31,
      "hit": false,
      "t": 25194.77999999995,
      "d": 108.22499999999854,
      "v": 56
    },
    {
      "midi": 55,
      "hit": false,
      "t": 25194.779999999984,
      "d": 51.40687500000058,
      "v": 67
    },
    {
      "midi": 55,
      "hit": false,
      "t": 25324.649999999983,
      "d": 45.99562499999956,
      "v": 67
    },
    {
      "midi": 62,
      "hit": false,
      "t": 25324.649999999983,
      "d": 51.40687500000058,
      "v": 67
    },
    {
      "midi": 59,
      "hit": false,
      "t": 25324.649999999983,
      "d": 56.8181250000016,
      "v": 67
    },
    {
      "midi": 31,
      "hit": false,
      "t": 25332.76687499995,
      "d": 54.11249999999927,
      "v": 87
    },
    {
      "midi": 35,
      "hit": false,
      "t": 25454.51999999995,
      "d": 129.86999999999898,
      "v": 73
    },
    {
      "midi": 55,
      "hit": false,
      "t": 25584.389999999985,
      "d": 43.29000000000087,
      "v": 65
    },
    {
      "midi": 35,
      "hit": false,
      "t": 25714.259999999947,
      "d": 146.1037499999984,
      "v": 87
    },
    {
      "midi": 59,
      "hit": false,
      "t": 25714.259999999987,
      "d": 37.878749999999854,
      "v": 67
    },
    {
      "midi": 62,
      "hit": false,
      "t": 25714.259999999987,
      "d": 56.8181250000016,
      "v": 67
    },
    {
      "midi": 38,
      "hit": false,
      "t": 25973.999999999945,
      "d": 175.86562499999854,
      "v": 86
    },
    {
      "midi": 43,
      "hit": false,
      "t": 25973.99999999999,
      "d": 29.761875000000146,
      "v": 67
    },
    {
      "midi": 55,
      "hit": false,
      "t": 25976.705625,
      "d": 330.0862500000003,
      "v": 73
    },
    {
      "midi": 43,
      "hit": false,
      "t": 26103.869999999988,
      "d": 45.99562499999956,
      "v": 67
    },
    {
      "midi": 38,
      "hit": false,
      "t": 26233.739999999943,
      "d": 35.173125000001164,
      "v": 70
    },
    {
      "midi": 59,
      "hit": false,
      "t": 26233.739999999987,
      "d": 40.584374999998545,
      "v": 67
    },
    {
      "midi": 55,
      "hit": false,
      "t": 26233.739999999987,
      "d": 51.406874999996944,
      "v": 67
    },
    {
      "midi": 62,
      "hit": false,
      "t": 26233.739999999987,
      "d": 51.406874999996944,
      "v": 67
    },
    {
      "midi": 38,
      "hit": false,
      "t": 26371.726874999946,
      "d": 54.11249999999927,
      "v": 90
    },
    {
      "midi": 57,
      "hit": false,
      "t": 26490.774374999997,
      "d": 351.7312500000007,
      "v": 91
    },
    {
      "midi": 43,
      "hit": false,
      "t": 26493.479999999945,
      "d": 129.86999999999898,
      "v": 73
    },
    {
      "midi": 43,
      "hit": false,
      "t": 26493.479999999985,
      "d": 37.878749999999854,
      "v": 67
    },
    {
      "midi": 59,
      "hit": false,
      "t": 26623.349999999984,
      "d": 45.99562499999956,
      "v": 67
    },
    {
      "midi": 62,
      "hit": false,
      "t": 26623.349999999984,
      "d": 54.11249999999927,
      "v": 67
    },
    {
      "midi": 43,
      "hit": false,
      "t": 26753.219999999943,
      "d": 37.878749999999854,
      "v": 58
    },
    {
      "midi": 43,
      "hit": false,
      "t": 26753.219999999983,
      "d": 27.056250000001455,
      "v": 67
    },
    {
      "midi": 43,
      "hit": false,
      "t": 26883.089999999942,
      "d": 81.16875000000073,
      "v": 87
    },
    {
      "midi": 43,
      "hit": false,
      "t": 26883.089999999986,
      "d": 48.701249999998254,
      "v": 67
    },
    {
      "midi": 54,
      "hit": false,
      "t": 27010.254374999997,
      "d": 541.125,
      "v": 82
    },
    {
      "midi": 35,
      "hit": false,
      "t": 27012.95999999994,
      "d": 183.98249999999825,
      "v": 91
    },
    {
      "midi": 54,
      "hit": false,
      "t": 27012.959999999985,
      "d": 146.1037499999984,
      "v": 67
    },
    {
      "midi": 47,
      "hit": false,
      "t": 27012.959999999985,
      "d": 278.6793749999997,
      "v": 67
    },
    {
      "midi": 63,
      "hit": false,
      "t": 27012.959999999985,
      "d": 292.20750000000044,
      "v": 67
    },
    {
      "midi": 59,
      "hit": false,
      "t": 27012.959999999985,
      "d": 303.02999999999884,
      "v": 67
    },
    {
      "midi": 57,
      "hit": false,
      "t": 27012.960000000003,
      "d": 286.7962499999994,
      "v": 82
    },
    {
      "midi": 63,
      "hit": false,
      "t": 27012.960000000003,
      "d": 292.20750000000044,
      "v": 60
    },
    {
      "midi": 54,
      "hit": false,
      "t": 27012.960000000003,
      "d": 297.61875000000146,
      "v": 60
    },
    {
      "midi": 35,
      "hit": false,
      "t": 27272.69999999994,
      "d": 129.86999999999898,
      "v": 56
    },
    {
      "midi": 54,
      "hit": false,
      "t": 27272.699999999983,
      "d": 51.40687500000058,
      "v": 67
    },
    {
      "midi": 54,
      "hit": false,
      "t": 27402.56999999998,
      "d": 45.99562499999956,
      "v": 67
    },
    {
      "midi": 63,
      "hit": false,
      "t": 27402.56999999998,
      "d": 51.40687500000058,
      "v": 67
    },
    {
      "midi": 59,
      "hit": false,
      "t": 27402.56999999998,
      "d": 56.8181250000016,
      "v": 67
    },
    {
      "midi": 35,
      "hit": false,
      "t": 27410.686874999938,
      "d": 54.11249999999927,
      "v": 87
    },
    {
      "midi": 39,
      "hit": false,
      "t": 27532.439999999937,
      "d": 129.86999999999898,
      "v": 73
    },
    {
      "midi": 54,
      "hit": false,
      "t": 27662.309999999983,
      "d": 43.29000000000087,
      "v": 65
    },
    {
      "midi": 59,
      "hit": false,
      "t": 27789.474374999998,
      "d": 313.8525000000009,
      "v": 91
    },
    {
      "midi": 39,
      "hit": false,
      "t": 27792.179999999935,
      "d": 146.1037499999984,
      "v": 87
    },
    {
      "midi": 59,
      "hit": false,
      "t": 27792.179999999986,
      "d": 37.878749999999854,
      "v": 67
    },
    {
      "midi": 63,
      "hit": false,
      "t": 27792.179999999986,
      "d": 56.8181250000016,
      "v": 67
    },
    {
      "midi": 42,
      "hit": false,
      "t": 28051.919999999933,
      "d": 175.86562499999854,
      "v": 86
    },
    {
      "midi": 47,
      "hit": false,
      "t": 28051.919999999987,
      "d": 29.761875000000146,
      "v": 67
    },
    {
      "midi": 47,
      "hit": false,
      "t": 28181.789999999986,
      "d": 45.99562499999956,
      "v": 67
    },
    {
      "midi": 57,
      "hit": false,
      "t": 28308.954374999998,
      "d": 346.3199999999997,
      "v": 91
    },
    {
      "midi": 42,
      "hit": false,
      "t": 28311.65999999993,
      "d": 35.173125000001164,
      "v": 70
    },
    {
      "midi": 59,
      "hit": false,
      "t": 28311.659999999985,
      "d": 40.584374999998545,
      "v": 67
    },
    {
      "midi": 54,
      "hit": false,
      "t": 28311.659999999985,
      "d": 51.406874999996944,
      "v": 67
    },
    {
      "midi": 63,
      "hit": false,
      "t": 28311.659999999985,
      "d": 51.406874999996944,
      "v": 67
    },
    {
      "midi": 42,
      "hit": false,
      "t": 28449.646874999933,
      "d": 54.11249999999927,
      "v": 90
    },
    {
      "midi": 47,
      "hit": false,
      "t": 28571.399999999932,
      "d": 129.86999999999898,
      "v": 73
    },
    {
      "midi": 47,
      "hit": false,
      "t": 28571.399999999983,
      "d": 37.878749999999854,
      "v": 67
    },
    {
      "midi": 59,
      "hit": false,
      "t": 28701.269999999982,
      "d": 45.99562499999956,
      "v": 67
    },
    {
      "midi": 63,
      "hit": false,
      "t": 28701.269999999982,
      "d": 54.11249999999927,
      "v": 67
    },
    {
      "midi": 55,
      "hit": false,
      "t": 28828.434374999997,
      "d": 1293.2887499999997,
      "v": 91
    },
    {
      "midi": 47,
      "hit": false,
      "t": 28831.13999999993,
      "d": 37.878749999999854,
      "v": 61
    },
    {
      "midi": 47,
      "hit": false,
      "t": 28831.13999999998,
      "d": 27.056250000001455,
      "v": 67
    },
    {
      "midi": 47,
      "hit": false,
      "t": 28961.00999999993,
      "d": 81.16875000000073,
      "v": 78
    },
    {
      "midi": 47,
      "hit": false,
      "t": 28961.009999999984,
      "d": 48.701249999998254,
      "v": 67
    },
    {
      "midi": 28,
      "hit": false,
      "t": 29090.87999999993,
      "d": 183.98249999999825,
      "v": 91
    },
    {
      "midi": 55,
      "hit": false,
      "t": 29090.879999999983,
      "d": 146.1037499999984,
      "v": 67
    },
    {
      "midi": 52,
      "hit": false,
      "t": 29090.879999999983,
      "d": 278.6793749999997,
      "v": 67
    },
    {
      "midi": 64,
      "hit": false,
      "t": 29090.879999999983,
      "d": 292.20750000000044,
      "v": 67
    },
    {
      "midi": 59,
      "hit": false,
      "t": 29090.879999999983,
      "d": 303.02999999999884,
      "v": 67
    },
    {
      "midi": 55,
      "hit": false,
      "t": 29090.880000000005,
      "d": 300.32437500000015,
      "v": 64
    },
    {
      "midi": 59,
      "hit": false,
      "t": 29090.880000000005,
      "d": 300.32437500000015,
      "v": 73
    },
    {
      "midi": 64,
      "hit": false,
      "t": 29090.880000000005,
      "d": 303.02999999999884,
      "v": 60
    },
    {
      "midi": 28,
      "hit": false,
      "t": 29350.619999999926,
      "d": 129.86999999999898,
      "v": 56
    },
    {
      "midi": 55,
      "hit": false,
      "t": 29350.61999999998,
      "d": 51.40687500000058,
      "v": 67
    },
    {
      "midi": 55,
      "hit": false,
      "t": 29480.48999999998,
      "d": 45.99562499999956,
      "v": 67
    },
    {
      "midi": 64,
      "hit": false,
      "t": 29480.48999999998,
      "d": 51.40687500000058,
      "v": 67
    },
    {
      "midi": 59,
      "hit": false,
      "t": 29480.48999999998,
      "d": 56.8181250000016,
      "v": 67
    },
    {
      "midi": 28,
      "hit": false,
      "t": 29488.606874999925,
      "d": 54.11249999999927,
      "v": 87
    },
    {
      "midi": 31,
      "hit": false,
      "t": 29610.359999999924,
      "d": 175.86562499999854,
      "v": 86
    },
    {
      "midi": 55,
      "hit": false,
      "t": 29740.22999999998,
      "d": 43.29000000000087,
      "v": 65
    },
    {
      "midi": 31,
      "hit": false,
      "t": 29870.099999999922,
      "d": 35.173125000001164,
      "v": 70
    },
    {
      "midi": 59,
      "hit": false,
      "t": 29870.099999999984,
      "d": 37.878749999999854,
      "v": 67
    },
    {
      "midi": 64,
      "hit": false,
      "t": 29870.099999999984,
      "d": 56.8181250000016,
      "v": 67
    },
    {
      "midi": 31,
      "hit": false,
      "t": 30008.086874999924,
      "d": 54.11249999999927,
      "v": 90
    },
    {
      "midi": 35,
      "hit": false,
      "t": 30129.839999999924,
      "d": 175.86562499999854,
      "v": 86
    },
    {
      "midi": 52,
      "hit": false,
      "t": 30129.839999999986,
      "d": 29.761875000000146,
      "v": 67
    },
    {
      "midi": 52,
      "hit": false,
      "t": 30259.709999999985,
      "d": 45.99562499999956,
      "v": 67
    },
    {
      "midi": 57,
      "hit": false,
      "t": 30386.874374999996,
      "d": 316.55812499999956,
      "v": 82
    },
    {
      "midi": 35,
      "hit": false,
      "t": 30389.57999999992,
      "d": 35.173125000001164,
      "v": 70
    },
    {
      "midi": 59,
      "hit": false,
      "t": 30389.579999999984,
      "d": 40.584374999998545,
      "v": 67
    },
    {
      "midi": 55,
      "hit": false,
      "t": 30389.579999999984,
      "d": 51.406874999996944,
      "v": 67
    },
    {
      "midi": 64,
      "hit": false,
      "t": 30389.579999999984,
      "d": 51.406874999996944,
      "v": 67
    },
    {
      "midi": 59,
      "hit": false,
      "t": 30389.58,
      "d": 54.11249999999927,
      "v": 56
    },
    {
      "midi": 64,
      "hit": false,
      "t": 30389.58,
      "d": 59.52375000000029,
      "v": 48
    },
    {
      "midi": 35,
      "hit": false,
      "t": 30527.566874999924,
      "d": 54.11249999999927,
      "v": 90
    },
    {
      "midi": 40,
      "hit": false,
      "t": 30649.319999999923,
      "d": 129.86999999999898,
      "v": 73
    },
    {
      "midi": 52,
      "hit": false,
      "t": 30649.31999999998,
      "d": 37.878749999999854,
      "v": 67
    },
    {
      "midi": 59,
      "hit": false,
      "t": 30779.18999999998,
      "d": 45.99562499999956,
      "v": 67
    },
    {
      "midi": 64,
      "hit": false,
      "t": 30779.18999999998,
      "d": 54.11249999999927,
      "v": 67
    },
    {
      "midi": 59,
      "hit": false,
      "t": 30779.190000000002,
      "d": 48.701249999998254,
      "v": 64
    },
    {
      "midi": 64,
      "hit": false,
      "t": 30779.190000000002,
      "d": 62.22937499999898,
      "v": 60
    },
    {
      "midi": 59,
      "hit": false,
      "t": 30781.895624999994,
      "d": 297.61875000000146,
      "v": 91
    },
    {
      "midi": 40,
      "hit": false,
      "t": 30909.05999999992,
      "d": 37.878749999999854,
      "v": 61
    },
    {
      "midi": 52,
      "hit": false,
      "t": 30909.05999999998,
      "d": 27.056250000001455,
      "v": 67
    },
    {
      "midi": 40,
      "hit": false,
      "t": 31038.92999999992,
      "d": 81.16875000000073,
      "v": 78
    },
    {
      "midi": 52,
      "hit": false,
      "t": 31038.929999999982,
      "d": 48.701249999998254,
      "v": 67
    },
    {
      "midi": 36,
      "hit": false,
      "t": 31168.79999999992,
      "d": 183.98249999999825,
      "v": 91
    },
    {
      "midi": 55,
      "hit": false,
      "t": 31168.79999999998,
      "d": 146.1037499999984,
      "v": 67
    },
    {
      "midi": 48,
      "hit": false,
      "t": 31168.79999999998,
      "d": 278.6793749999997,
      "v": 67
    },
    {
      "midi": 64,
      "hit": false,
      "t": 31168.79999999998,
      "d": 292.20750000000044,
      "v": 67
    },
    {
      "midi": 60,
      "hit": false,
      "t": 31168.79999999998,
      "d": 303.02999999999884,
      "v": 67
    },
    {
      "midi": 55,
      "hit": false,
      "t": 31168.800000000003,
      "d": 313.8525000000009,
      "v": 64
    },
    {
      "midi": 59,
      "hit": false,
      "t": 31168.800000000003,
      "d": 313.8525000000009,
      "v": 73
    },
    {
      "midi": 64,
      "hit": false,
      "t": 31168.800000000003,
      "d": 316.55812499999956,
      "v": 64
    },
    {
      "midi": 60,
      "hit": false,
      "t": 31171.505624999994,
      "d": 435.60562500000015,
      "v": 91
    },
    {
      "midi": 36,
      "hit": false,
      "t": 31428.539999999917,
      "d": 127.16437500000029,
      "v": 56
    },
    {
      "midi": 55,
      "hit": false,
      "t": 31428.53999999998,
      "d": 51.40687500000058,
      "v": 67
    },
    {
      "midi": 55,
      "hit": false,
      "t": 31558.409999999978,
      "d": 45.99562499999956,
      "v": 67
    },
    {
      "midi": 64,
      "hit": false,
      "t": 31558.409999999978,
      "d": 51.40687500000058,
      "v": 67
    },
    {
      "midi": 60,
      "hit": false,
      "t": 31558.409999999978,
      "d": 56.8181250000016,
      "v": 67
    },
    {
      "midi": 36,
      "hit": false,
      "t": 31566.526874999916,
      "d": 54.11249999999927,
      "v": 87
    },
    {
      "midi": 55,
      "hit": false,
      "t": 31685.574374999993,
      "d": 224.56687500000044,
      "v": 82
    },
    {
      "midi": 40,
      "hit": false,
      "t": 31688.279999999915,
      "d": 129.86999999999898,
      "v": 73
    },
    {
      "midi": 55,
      "hit": false,
      "t": 31818.14999999998,
      "d": 43.29000000000087,
      "v": 65
    },
    {
      "midi": 60,
      "hit": false,
      "t": 31945.314374999994,
      "d": 441.01687500000116,
      "v": 91
    },
    {
      "midi": 40,
      "hit": false,
      "t": 31948.019999999913,
      "d": 127.16437500000029,
      "v": 56
    },
    {
      "midi": 60,
      "hit": false,
      "t": 31948.019999999982,
      "d": 37.878749999999854,
      "v": 67
    },
    {
      "midi": 64,
      "hit": false,
      "t": 31948.019999999982,
      "d": 56.8181250000016,
      "v": 67
    },
    {
      "midi": 40,
      "hit": false,
      "t": 32086.00687499991,
      "d": 54.11249999999927,
      "v": 87
    },
    {
      "midi": 43,
      "hit": false,
      "t": 32207.75999999991,
      "d": 175.86562499999854,
      "v": 86
    },
    {
      "midi": 48,
      "hit": false,
      "t": 32207.759999999984,
      "d": 29.761875000000146,
      "v": 67
    },
    {
      "midi": 48,
      "hit": false,
      "t": 32337.629999999983,
      "d": 45.99562499999956,
      "v": 67
    },
    {
      "midi": 62,
      "hit": false,
      "t": 32464.794374999994,
      "d": 484.3068749999984,
      "v": 82
    },
    {
      "midi": 43,
      "hit": false,
      "t": 32467.49999999991,
      "d": 35.173125000001164,
      "v": 70
    },
    {
      "midi": 60,
      "hit": false,
      "t": 32467.49999999998,
      "d": 40.584374999998545,
      "v": 67
    },
    {
      "midi": 55,
      "hit": false,
      "t": 32467.49999999998,
      "d": 51.406874999996944,
      "v": 67
    },
    {
      "midi": 64,
      "hit": false,
      "t": 32467.49999999998,
      "d": 51.406874999996944,
      "v": 67
    },
    {
      "midi": 64,
      "hit": false,
      "t": 32467.500000000004,
      "d": 70.34624999999869,
      "v": 56
    },
    {
      "midi": 60,
      "hit": false,
      "t": 32467.500000000004,
      "d": 86.57999999999811,
      "v": 60
    },
    {
      "midi": 43,
      "hit": false,
      "t": 32605.48687499991,
      "d": 54.11249999999927,
      "v": 90
    },
    {
      "midi": 48,
      "hit": false,
      "t": 32727.23999999991,
      "d": 129.87000000000262,
      "v": 73
    },
    {
      "midi": 48,
      "hit": false,
      "t": 32727.23999999998,
      "d": 37.878749999999854,
      "v": 67
    },
    {
      "midi": 55,
      "hit": false,
      "t": 32727.24,
      "d": 121.75312499999927,
      "v": 52
    },
    {
      "midi": 60,
      "hit": false,
      "t": 32857.10999999998,
      "d": 45.9956250000032,
      "v": 67
    },
    {
      "midi": 64,
      "hit": false,
      "t": 32857.10999999998,
      "d": 54.11250000000291,
      "v": 67
    },
    {
      "midi": 60,
      "hit": false,
      "t": 32857.11,
      "d": 132.57562499999767,
      "v": 54
    },
    {
      "midi": 64,
      "hit": false,
      "t": 32857.11,
      "d": 132.57562499999767,
      "v": 54
    },
    {
      "midi": 59,
      "hit": false,
      "t": 32984.27437499999,
      "d": 1101.1893750000017,
      "v": 91
    },
    {
      "midi": 48,
      "hit": false,
      "t": 32986.979999999916,
      "d": 37.87875000000349,
      "v": 61
    },
    {
      "midi": 48,
      "hit": false,
      "t": 32986.97999999998,
      "d": 27.056250000001455,
      "v": 67
    },
    {
      "midi": 48,
      "hit": false,
      "t": 33116.84999999992,
      "d": 81.16874999999709,
      "v": 78
    },
    {
      "midi": 48,
      "hit": false,
      "t": 33116.849999999984,
      "d": 48.701249999998254,
      "v": 67
    },
    {
      "midi": 31,
      "hit": false,
      "t": 33246.719999999914,
      "d": 183.98249999999825,
      "v": 91
    },
    {
      "midi": 55,
      "hit": false,
      "t": 33246.71999999998,
      "d": 146.10375000000204,
      "v": 67
    },
    {
      "midi": 43,
      "hit": false,
      "t": 33246.71999999998,
      "d": 278.679375000007,
      "v": 67
    },
    {
      "midi": 62,
      "hit": false,
      "t": 33246.71999999998,
      "d": 292.2075000000041,
      "v": 67
    },
    {
      "midi": 59,
      "hit": false,
      "t": 33246.71999999998,
      "d": 303.0300000000061,
      "v": 67
    },
    {
      "midi": 55,
      "hit": false,
      "t": 33246.72,
      "d": 300.3243749999965,
      "v": 56
    },
    {
      "midi": 62,
      "hit": false,
      "t": 33246.72,
      "d": 300.3243749999965,
      "v": 64
    },
    {
      "midi": 59,
      "hit": false,
      "t": 33246.72,
      "d": 305.7356249999939,
      "v": 73
    },
    {
      "midi": 31,
      "hit": false,
      "t": 33506.45999999991,
      "d": 108.22499999999854,
      "v": 56
    },
    {
      "midi": 55,
      "hit": false,
      "t": 33506.459999999985,
      "d": 51.40687500000058,
      "v": 67
    },
    {
      "midi": 55,
      "hit": false,
      "t": 33636.32999999999,
      "d": 45.9956250000032,
      "v": 67
    },
    {
      "midi": 62,
      "hit": false,
      "t": 33636.32999999999,
      "d": 51.40687500000058,
      "v": 67
    },
    {
      "midi": 59,
      "hit": false,
      "t": 33636.32999999999,
      "d": 56.81812499999796,
      "v": 67
    },
    {
      "midi": 31,
      "hit": false,
      "t": 33644.44687499991,
      "d": 54.11250000000291,
      "v": 87
    },
    {
      "midi": 35,
      "hit": false,
      "t": 33766.19999999991,
      "d": 129.87000000000262,
      "v": 73
    },
    {
      "midi": 55,
      "hit": false,
      "t": 33896.069999999985,
      "d": 43.29000000000087,
      "v": 65
    },
    {
      "midi": 35,
      "hit": false,
      "t": 34025.939999999915,
      "d": 37.87875000000349,
      "v": 58
    },
    {
      "midi": 59,
      "hit": false,
      "t": 34025.93999999999,
      "d": 37.87875000000349,
      "v": 67
    },
    {
      "midi": 62,
      "hit": false,
      "t": 34025.93999999999,
      "d": 56.81812500000524,
      "v": 67
    },
    {
      "midi": 35,
      "hit": false,
      "t": 34155.80999999992,
      "d": 81.16874999999709,
      "v": 87
    },
    {
      "midi": 59,
      "hit": false,
      "t": 34282.974375,
      "d": 416.66625000000204,
      "v": 82
    },
    {
      "midi": 38,
      "hit": false,
      "t": 34285.67999999991,
      "d": 175.86562499999854,
      "v": 86
    },
    {
      "midi": 43,
      "hit": false,
      "t": 34285.67999999999,
      "d": 29.761874999996508,
      "v": 67
    },
    {
      "midi": 43,
      "hit": false,
      "t": 34415.54999999999,
      "d": 45.9956250000032,
      "v": 67
    },
    {
      "midi": 38,
      "hit": false,
      "t": 34545.41999999991,
      "d": 35.173125000001164,
      "v": 70
    },
    {
      "midi": 59,
      "hit": false,
      "t": 34545.41999999999,
      "d": 40.584374999998545,
      "v": 67
    },
    {
      "midi": 55,
      "hit": false,
      "t": 34545.41999999999,
      "d": 51.40687500000058,
      "v": 67
    },
    {
      "midi": 62,
      "hit": false,
      "t": 34545.41999999999,
      "d": 51.40687500000058,
      "v": 67
    },
    {
      "midi": 38,
      "hit": false,
      "t": 34683.40687499991,
      "d": 54.11250000000291,
      "v": 90
    },
    {
      "midi": 62,
      "hit": false,
      "t": 34802.454375,
      "d": 438.31124999999884,
      "v": 100
    },
    {
      "midi": 43,
      "hit": false,
      "t": 34805.159999999916,
      "d": 129.87000000000262,
      "v": 73
    },
    {
      "midi": 43,
      "hit": false,
      "t": 34805.15999999999,
      "d": 37.87875000000349,
      "v": 67
    },
    {
      "midi": 59,
      "hit": false,
      "t": 34935.02999999999,
      "d": 45.9956250000032,
      "v": 67
    },
    {
      "midi": 62,
      "hit": false,
      "t": 34935.02999999999,
      "d": 54.11250000000291,
      "v": 67
    },
    {
      "midi": 64,
      "hit": false,
      "t": 34935.02999999999,
      "d": 51.40687500000058,
      "v": 56
    },
    {
      "midi": 67,
      "hit": false,
      "t": 34935.02999999999,
      "d": 56.81812499999796,
      "v": 64
    },
    {
      "midi": 43,
      "hit": false,
      "t": 35064.89999999992,
      "d": 37.87875000000349,
      "v": 58
    },
    {
      "midi": 43,
      "hit": false,
      "t": 35064.899999999994,
      "d": 27.056250000001455,
      "v": 67
    },
    {
      "midi": 43,
      "hit": false,
      "t": 35194.769999999924,
      "d": 81.16874999999709,
      "v": 87
    },
    {
      "midi": 43,
      "hit": false,
      "t": 35194.77,
      "d": 48.701249999998254,
      "v": 67
    },
    {
      "midi": 63,
      "hit": false,
      "t": 35321.934375,
      "d": 481.6012499999997,
      "v": 73
    },
    {
      "midi": 35,
      "hit": false,
      "t": 35324.63999999992,
      "d": 183.98249999999825,
      "v": 91
    },
    {
      "midi": 54,
      "hit": false,
      "t": 35324.63999999999,
      "d": 146.10375000000204,
      "v": 67
    },
    {
      "midi": 47,
      "hit": false,
      "t": 35324.63999999999,
      "d": 278.679375000007,
      "v": 67
    },
    {
      "midi": 63,
      "hit": false,
      "t": 35324.63999999999,
      "d": 292.2075000000041,
      "v": 67
    },
    {
      "midi": 59,
      "hit": false,
      "t": 35324.63999999999,
      "d": 303.0300000000061,
      "v": 67
    },
    {
      "midi": 57,
      "hit": false,
      "t": 35324.63999999999,
      "d": 286.7962499999994,
      "v": 82
    },
    {
      "midi": 63,
      "hit": false,
      "t": 35324.63999999999,
      "d": 292.2074999999968,
      "v": 60
    },
    {
      "midi": 54,
      "hit": false,
      "t": 35324.63999999999,
      "d": 297.6187499999942,
      "v": 60
    },
    {
      "midi": 35,
      "hit": false,
      "t": 35584.37999999992,
      "d": 129.87000000000262,
      "v": 56
    },
    {
      "midi": 54,
      "hit": false,
      "t": 35584.38,
      "d": 51.40687500000058,
      "v": 67
    },
    {
      "midi": 54,
      "hit": false,
      "t": 35714.25,
      "d": 45.9956250000032,
      "v": 67
    },
    {
      "midi": 63,
      "hit": false,
      "t": 35714.25,
      "d": 51.40687500000058,
      "v": 67
    },
    {
      "midi": 59,
      "hit": false,
      "t": 35714.25,
      "d": 56.81812499999796,
      "v": 67
    },
    {
      "midi": 35,
      "hit": false,
      "t": 35722.36687499992,
      "d": 54.11250000000291,
      "v": 87
    },
    {
      "midi": 39,
      "hit": false,
      "t": 35844.11999999992,
      "d": 129.87000000000262,
      "v": 73
    },
    {
      "midi": 59,
      "hit": false,
      "t": 35846.825625,
      "d": 224.5668749999968,
      "v": 91
    },
    {
      "midi": 54,
      "hit": false,
      "t": 35973.99,
      "d": 43.29000000000087,
      "v": 65
    },
    {
      "midi": 39,
      "hit": false,
      "t": 36103.85999999993,
      "d": 146.10375000000204,
      "v": 87
    },
    {
      "midi": 59,
      "hit": false,
      "t": 36103.86,
      "d": 37.87875000000349,
      "v": 67
    },
    {
      "midi": 63,
      "hit": false,
      "t": 36103.86,
      "d": 56.81812500000524,
      "v": 67
    },
    {
      "midi": 57,
      "hit": false,
      "t": 36106.565624999996,
      "d": 432.90000000000146,
      "v": 82
    },
    {
      "midi": 42,
      "hit": false,
      "t": 36363.59999999993,
      "d": 175.86562499999854,
      "v": 86
    },
    {
      "midi": 47,
      "hit": false,
      "t": 36363.600000000006,
      "d": 29.761874999996508,
      "v": 67
    },
    {
      "midi": 47,
      "hit": false,
      "t": 36493.47,
      "d": 45.9956250000032,
      "v": 67
    },
    {
      "midi": 59,
      "hit": false,
      "t": 36620.634374999994,
      "d": 516.7743750000009,
      "v": 91
    },
    {
      "midi": 42,
      "hit": false,
      "t": 36623.33999999993,
      "d": 35.173125000001164,
      "v": 70
    },
    {
      "midi": 63,
      "hit": false,
      "t": 36623.33999999999,
      "d": 73.05187499999738,
      "v": 60
    },
    {
      "midi": 66,
      "hit": false,
      "t": 36623.33999999999,
      "d": 73.05187499999738,
      "v": 64
    },
    {
      "midi": 59,
      "hit": false,
      "t": 36623.340000000004,
      "d": 40.584374999998545,
      "v": 67
    },
    {
      "midi": 54,
      "hit": false,
      "t": 36623.340000000004,
      "d": 51.40687500000058,
      "v": 67
    },
    {
      "midi": 63,
      "hit": false,
      "t": 36623.340000000004,
      "d": 51.40687500000058,
      "v": 67
    },
    {
      "midi": 42,
      "hit": false,
      "t": 36761.32687499993,
      "d": 54.11250000000291,
      "v": 90
    },
    {
      "midi": 47,
      "hit": false,
      "t": 36883.079999999936,
      "d": 129.87000000000262,
      "v": 73
    },
    {
      "midi": 47,
      "hit": false,
      "t": 36883.08,
      "d": 37.87875000000349,
      "v": 67
    },
    {
      "midi": 63,
      "hit": false,
      "t": 37012.94999999999,
      "d": 62.22937500000262,
      "v": 56
    },
    {
      "midi": 67,
      "hit": false,
      "t": 37012.94999999999,
      "d": 67.640625,
      "v": 64
    },
    {
      "midi": 59,
      "hit": false,
      "t": 37012.94999999999,
      "d": 78.46312500000204,
      "v": 56
    },
    {
      "midi": 59,
      "hit": false,
      "t": 37012.950000000004,
      "d": 45.9956250000032,
      "v": 67
    },
    {
      "midi": 63,
      "hit": false,
      "t": 37012.950000000004,
      "d": 54.11250000000291,
      "v": 67
    },
    {
      "midi": 47,
      "hit": false,
      "t": 37142.81999999994,
      "d": 37.87875000000349,
      "v": 61
    },
    {
      "midi": 47,
      "hit": false,
      "t": 37142.82000000001,
      "d": 27.056250000001455,
      "v": 67
    },
    {
      "midi": 55,
      "hit": false,
      "t": 37145.525624999995,
      "d": 1287.8775000000023,
      "v": 82
    },
    {
      "midi": 47,
      "hit": false,
      "t": 37272.689999999944,
      "d": 81.16874999999709,
      "v": 78
    },
    {
      "midi": 47,
      "hit": false,
      "t": 37272.69000000001,
      "d": 48.701249999998254,
      "v": 67
    },
    {
      "midi": 28,
      "hit": false,
      "t": 37402.55999999994,
      "d": 183.98249999999825,
      "v": 91
    },
    {
      "midi": 55,
      "hit": false,
      "t": 37402.55999999999,
      "d": 300.3243749999965,
      "v": 64
    },
    {
      "midi": 59,
      "hit": false,
      "t": 37402.55999999999,
      "d": 300.3243749999965,
      "v": 73
    },
    {
      "midi": 64,
      "hit": false,
      "t": 37402.55999999999,
      "d": 303.02999999999884,
      "v": 60
    },
    {
      "midi": 55,
      "hit": false,
      "t": 37402.560000000005,
      "d": 146.10375000000204,
      "v": 67
    },
    {
      "midi": 52,
      "hit": false,
      "t": 37402.560000000005,
      "d": 278.679375000007,
      "v": 67
    },
    {
      "midi": 64,
      "hit": false,
      "t": 37402.560000000005,
      "d": 292.2075000000041,
      "v": 67
    },
    {
      "midi": 59,
      "hit": false,
      "t": 37402.560000000005,
      "d": 303.0300000000061,
      "v": 67
    },
    {
      "midi": 28,
      "hit": false,
      "t": 37662.29999999994,
      "d": 129.87000000000262,
      "v": 56
    },
    {
      "midi": 55,
      "hit": false,
      "t": 37662.30000000001,
      "d": 51.40687500000058,
      "v": 67
    },
    {
      "midi": 55,
      "hit": false,
      "t": 37792.17000000001,
      "d": 45.9956250000032,
      "v": 67
    },
    {
      "midi": 64,
      "hit": false,
      "t": 37792.17000000001,
      "d": 51.40687500000058,
      "v": 67
    },
    {
      "midi": 59,
      "hit": false,
      "t": 37792.17000000001,
      "d": 56.81812499999796,
      "v": 67
    },
    {
      "midi": 28,
      "hit": false,
      "t": 37800.28687499994,
      "d": 54.11250000000291,
      "v": 87
    },
    {
      "midi": 31,
      "hit": false,
      "t": 37922.03999999994,
      "d": 129.87000000000262,
      "v": 73
    },
    {
      "midi": 55,
      "hit": false,
      "t": 38051.91000000001,
      "d": 43.29000000000087,
      "v": 65
    },
    {
      "midi": 31,
      "hit": false,
      "t": 38181.77999999995,
      "d": 35.173125000001164,
      "v": 64
    },
    {
      "midi": 59,
      "hit": false,
      "t": 38181.78000000001,
      "d": 37.87875000000349,
      "v": 67
    },
    {
      "midi": 64,
      "hit": false,
      "t": 38181.78000000001,
      "d": 56.81812500000524,
      "v": 67
    },
    {
      "midi": 31,
      "hit": false,
      "t": 38319.76687499995,
      "d": 54.11250000000291,
      "v": 90
    },
    {
      "midi": 35,
      "hit": false,
      "t": 38441.51999999995,
      "d": 175.86562499999854,
      "v": 86
    },
    {
      "midi": 52,
      "hit": false,
      "t": 38441.52000000002,
      "d": 29.761874999996508,
      "v": 67
    },
    {
      "midi": 52,
      "hit": false,
      "t": 38571.390000000014,
      "d": 45.9956250000032,
      "v": 67
    },
    {
      "midi": 57,
      "hit": false,
      "t": 38698.554375,
      "d": 354.4368749999994,
      "v": 91
    },
    {
      "midi": 35,
      "hit": false,
      "t": 38701.25999999995,
      "d": 35.173125000001164,
      "v": 70
    },
    {
      "midi": 64,
      "hit": false,
      "t": 38701.25999999999,
      "d": 51.40687500000058,
      "v": 44
    },
    {
      "midi": 59,
      "hit": false,
      "t": 38701.25999999999,
      "d": 56.81812499999796,
      "v": 56
    },
    {
      "midi": 59,
      "hit": false,
      "t": 38701.26000000002,
      "d": 40.584374999998545,
      "v": 67
    },
    {
      "midi": 55,
      "hit": false,
      "t": 38701.26000000002,
      "d": 51.40687500000058,
      "v": 67
    },
    {
      "midi": 64,
      "hit": false,
      "t": 38701.26000000002,
      "d": 51.40687500000058,
      "v": 67
    },
    {
      "midi": 35,
      "hit": false,
      "t": 38839.24687499995,
      "d": 54.11250000000291,
      "v": 90
    },
    {
      "midi": 40,
      "hit": false,
      "t": 38960.999999999956,
      "d": 129.87000000000262,
      "v": 73
    },
    {
      "midi": 52,
      "hit": false,
      "t": 38961.000000000015,
      "d": 37.87875000000349,
      "v": 67
    },
    {
      "midi": 64,
      "hit": false,
      "t": 39090.86999999999,
      "d": 40.584374999998545,
      "v": 36
    },
    {
      "midi": 59,
      "hit": false,
      "t": 39090.86999999999,
      "d": 48.701249999998254,
      "v": 56
    },
    {
      "midi": 59,
      "hit": false,
      "t": 39090.87000000002,
      "d": 45.9956250000032,
      "v": 67
    },
    {
      "midi": 64,
      "hit": false,
      "t": 39090.87000000002,
      "d": 54.11250000000291,
      "v": 67
    },
    {
      "midi": 59,
      "hit": false,
      "t": 39093.575625,
      "d": 311.14687499999854,
      "v": 91
    },
    {
      "midi": 40,
      "hit": false,
      "t": 39220.73999999996,
      "d": 37.87875000000349,
      "v": 61
    },
    {
      "midi": 52,
      "hit": false,
      "t": 39220.74000000002,
      "d": 27.056250000001455,
      "v": 67
    },
    {
      "midi": 40,
      "hit": false,
      "t": 39350.609999999964,
      "d": 81.16874999999709,
      "v": 78
    },
    {
      "midi": 52,
      "hit": false,
      "t": 39350.61000000002,
      "d": 48.701249999998254,
      "v": 67
    },
    {
      "midi": 36,
      "hit": false,
      "t": 39480.47999999996,
      "d": 183.98249999999825,
      "v": 91
    },
    {
      "midi": 55,
      "hit": false,
      "t": 39480.47999999999,
      "d": 313.8525000000009,
      "v": 64
    },
    {
      "midi": 59,
      "hit": false,
      "t": 39480.47999999999,
      "d": 313.8525000000009,
      "v": 73
    },
    {
      "midi": 64,
      "hit": false,
      "t": 39480.47999999999,
      "d": 316.5581250000032,
      "v": 64
    },
    {
      "midi": 55,
      "hit": false,
      "t": 39480.48000000002,
      "d": 146.10375000000204,
      "v": 67
    },
    {
      "midi": 48,
      "hit": false,
      "t": 39480.48000000002,
      "d": 278.679375000007,
      "v": 67
    },
    {
      "midi": 64,
      "hit": false,
      "t": 39480.48000000002,
      "d": 292.2075000000041,
      "v": 67
    },
    {
      "midi": 60,
      "hit": false,
      "t": 39480.48000000002,
      "d": 303.0300000000061,
      "v": 67
    },
    {
      "midi": 60,
      "hit": false,
      "t": 39483.185625,
      "d": 457.2506250000006,
      "v": 82
    },
    {
      "midi": 36,
      "hit": false,
      "t": 39740.21999999996,
      "d": 129.87000000000262,
      "v": 56
    },
    {
      "midi": 55,
      "hit": false,
      "t": 39740.22000000002,
      "d": 51.40687500000058,
      "v": 67
    },
    {
      "midi": 55,
      "hit": false,
      "t": 39870.090000000026,
      "d": 45.9956250000032,
      "v": 67
    },
    {
      "midi": 64,
      "hit": false,
      "t": 39870.090000000026,
      "d": 51.40687500000058,
      "v": 67
    },
    {
      "midi": 60,
      "hit": false,
      "t": 39870.090000000026,
      "d": 56.81812499999796,
      "v": 67
    },
    {
      "midi": 36,
      "hit": false,
      "t": 39878.20687499996,
      "d": 54.11250000000291,
      "v": 87
    },
    {
      "midi": 55,
      "hit": false,
      "t": 39997.254375,
      "d": 229.97812500000146,
      "v": 82
    },
    {
      "midi": 40,
      "hit": false,
      "t": 39999.95999999996,
      "d": 129.87000000000262,
      "v": 73
    },
    {
      "midi": 55,
      "hit": false,
      "t": 40129.83000000002,
      "d": 43.29000000000087,
      "v": 65
    },
    {
      "midi": 40,
      "hit": false,
      "t": 40259.69999999997,
      "d": 37.87875000000349,
      "v": 61
    },
    {
      "midi": 60,
      "hit": false,
      "t": 40259.700000000026,
      "d": 37.87875000000349,
      "v": 67
    },
    {
      "midi": 64,
      "hit": false,
      "t": 40259.700000000026,
      "d": 56.81812500000524,
      "v": 67
    },
    {
      "midi": 60,
      "hit": false,
      "t": 40262.405625,
      "d": 443.7225000000035,
      "v": 91
    },
    {
      "midi": 40,
      "hit": false,
      "t": 40389.56999999997,
      "d": 81.16874999999709,
      "v": 78
    },
    {
      "midi": 43,
      "hit": false,
      "t": 40519.439999999966,
      "d": 175.86562499999854,
      "v": 86
    },
    {
      "midi": 48,
      "hit": false,
      "t": 40519.44000000003,
      "d": 29.761874999996508,
      "v": 67
    },
    {
      "midi": 48,
      "hit": false,
      "t": 40649.31000000003,
      "d": 45.9956250000032,
      "v": 67
    },
    {
      "midi": 43,
      "hit": false,
      "t": 40779.179999999964,
      "d": 35.173125000001164,
      "v": 70
    },
    {
      "midi": 62,
      "hit": false,
      "t": 40779.18,
      "d": 492.42375000000175,
      "v": 91
    },
    {
      "midi": 60,
      "hit": false,
      "t": 40779.18000000003,
      "d": 40.584374999998545,
      "v": 67
    },
    {
      "midi": 55,
      "hit": false,
      "t": 40779.18000000003,
      "d": 51.40687500000058,
      "v": 67
    },
    {
      "midi": 64,
      "hit": false,
      "t": 40779.18000000003,
      "d": 51.40687500000058,
      "v": 67
    },
    {
      "midi": 43,
      "hit": false,
      "t": 40917.166874999966,
      "d": 54.11250000000291,
      "v": 90
    },
    {
      "midi": 48,
      "hit": false,
      "t": 41038.91999999997,
      "d": 129.87000000000262,
      "v": 73
    },
    {
      "midi": 48,
      "hit": false,
      "t": 41038.92000000003,
      "d": 37.87875000000349,
      "v": 67
    },
    {
      "midi": 60,
      "hit": false,
      "t": 41168.78999999999,
      "d": 48.701249999998254,
      "v": 56
    },
    {
      "midi": 64,
      "hit": false,
      "t": 41168.78999999999,
      "d": 64.93499999999767,
      "v": 60
    },
    {
      "midi": 60,
      "hit": false,
      "t": 41168.79000000003,
      "d": 45.9956250000032,
      "v": 67
    },
    {
      "midi": 64,
      "hit": false,
      "t": 41168.79000000003,
      "d": 54.11250000000291,
      "v": 67
    },
    {
      "midi": 48,
      "hit": false,
      "t": 41298.659999999974,
      "d": 37.87875000000349,
      "v": 61
    },
    {
      "midi": 48,
      "hit": false,
      "t": 41298.66000000003,
      "d": 27.056250000001455,
      "v": 67
    },
    {
      "midi": 59,
      "hit": false,
      "t": 41301.365625,
      "d": 765.6918749999968,
      "v": 82
    },
    {
      "midi": 48,
      "hit": false,
      "t": 41428.52999999998,
      "d": 81.16874999999709,
      "v": 78
    },
    {
      "midi": 60,
      "hit": false,
      "t": 41428.52999999999,
      "d": 110.93062500000087,
      "v": 40
    },
    {
      "midi": 64,
      "hit": false,
      "t": 41428.52999999999,
      "d": 116.34187499999825,
      "v": 40
    },
    {
      "midi": 48,
      "hit": false,
      "t": 41428.530000000035,
      "d": 48.701249999998254,
      "v": 67
    },
    {
      "midi": 31,
      "hit": false,
      "t": 41558.39999999997,
      "d": 183.98249999999825,
      "v": 91
    },
    {
      "midi": 55,
      "hit": false,
      "t": 41558.39999999999,
      "d": 300.3243749999965,
      "v": 56
    },
    {
      "midi": 62,
      "hit": false,
      "t": 41558.39999999999,
      "d": 300.3243749999965,
      "v": 64
    },
    {
      "midi": 59,
      "hit": false,
      "t": 41558.39999999999,
      "d": 305.7356249999939,
      "v": 73
    },
    {
      "midi": 55,
      "hit": false,
      "t": 41558.40000000003,
      "d": 146.10375000000204,
      "v": 67
    },
    {
      "midi": 43,
      "hit": false,
      "t": 41558.40000000003,
      "d": 278.679375000007,
      "v": 67
    },
    {
      "midi": 62,
      "hit": false,
      "t": 41558.40000000003,
      "d": 292.2075000000041,
      "v": 67
    },
    {
      "midi": 59,
      "hit": false,
      "t": 41558.40000000003,
      "d": 303.0300000000061,
      "v": 67
    },
    {
      "midi": 31,
      "hit": false,
      "t": 41818.13999999997,
      "d": 108.22499999999854,
      "v": 56
    },
    {
      "midi": 55,
      "hit": false,
      "t": 41818.140000000036,
      "d": 51.40687500000058,
      "v": 67
    },
    {
      "midi": 55,
      "hit": false,
      "t": 41948.01000000004,
      "d": 45.9956250000032,
      "v": 67
    },
    {
      "midi": 62,
      "hit": false,
      "t": 41948.01000000004,
      "d": 51.40687500000058,
      "v": 67
    },
    {
      "midi": 59,
      "hit": false,
      "t": 41948.01000000004,
      "d": 56.81812499999796,
      "v": 67
    },
    {
      "midi": 31,
      "hit": false,
      "t": 41956.126874999965,
      "d": 54.11250000000291,
      "v": 87
    },
    {
      "midi": 35,
      "hit": false,
      "t": 42077.87999999997,
      "d": 129.87000000000262,
      "v": 73
    },
    {
      "midi": 55,
      "hit": false,
      "t": 42207.75000000004,
      "d": 43.29000000000087,
      "v": 65
    },
    {
      "midi": 35,
      "hit": false,
      "t": 42337.61999999997,
      "d": 146.10375000000204,
      "v": 87
    },
    {
      "midi": 59,
      "hit": false,
      "t": 42337.62000000004,
      "d": 37.87875000000349,
      "v": 67
    },
    {
      "midi": 62,
      "hit": false,
      "t": 42337.62000000004,
      "d": 56.81812500000524,
      "v": 67
    },
    {
      "midi": 38,
      "hit": false,
      "t": 42597.35999999998,
      "d": 175.86562499999854,
      "v": 86
    },
    {
      "midi": 43,
      "hit": false,
      "t": 42597.360000000044,
      "d": 29.761874999996508,
      "v": 67
    },
    {
      "midi": 55,
      "hit": false,
      "t": 42600.065624999996,
      "d": 330.0862500000003,
      "v": 73
    },
    {
      "midi": 43,
      "hit": false,
      "t": 42727.23000000004,
      "d": 45.9956250000032,
      "v": 67
    },
    {
      "midi": 38,
      "hit": false,
      "t": 42857.09999999998,
      "d": 35.173125000001164,
      "v": 70
    },
    {
      "midi": 59,
      "hit": false,
      "t": 42857.10000000004,
      "d": 40.584374999998545,
      "v": 67
    },
    {
      "midi": 55,
      "hit": false,
      "t": 42857.10000000004,
      "d": 51.40687500000058,
      "v": 67
    },
    {
      "midi": 62,
      "hit": false,
      "t": 42857.10000000004,
      "d": 51.40687500000058,
      "v": 67
    },
    {
      "midi": 38,
      "hit": false,
      "t": 42995.08687499998,
      "d": 54.11250000000291,
      "v": 90
    },
    {
      "midi": 57,
      "hit": false,
      "t": 43114.134374999994,
      "d": 351.7312499999971,
      "v": 91
    },
    {
      "midi": 43,
      "hit": false,
      "t": 43116.83999999998,
      "d": 129.87000000000262,
      "v": 73
    },
    {
      "midi": 43,
      "hit": false,
      "t": 43116.84000000004,
      "d": 37.87875000000349,
      "v": 67
    },
    {
      "midi": 59,
      "hit": false,
      "t": 43246.71000000004,
      "d": 45.9956250000032,
      "v": 67
    },
    {
      "midi": 62,
      "hit": false,
      "t": 43246.71000000004,
      "d": 54.11250000000291,
      "v": 67
    },
    {
      "midi": 43,
      "hit": false,
      "t": 43376.57999999999,
      "d": 37.87875000000349,
      "v": 58
    },
    {
      "midi": 43,
      "hit": false,
      "t": 43376.580000000045,
      "d": 27.056250000001455,
      "v": 67
    },
    {
      "midi": 43,
      "hit": false,
      "t": 43506.44999999999,
      "d": 81.16874999999709,
      "v": 87
    },
    {
      "midi": 43,
      "hit": false,
      "t": 43506.45000000005,
      "d": 48.701249999998254,
      "v": 67
    },
    {
      "midi": 54,
      "hit": false,
      "t": 43633.61437499999,
      "d": 541.125,
      "v": 82
    },
    {
      "midi": 57,
      "hit": false,
      "t": 43636.31999999998,
      "d": 286.7962499999994,
      "v": 82
    },
    {
      "midi": 63,
      "hit": false,
      "t": 43636.31999999998,
      "d": 292.2074999999968,
      "v": 60
    },
    {
      "midi": 54,
      "hit": false,
      "t": 43636.31999999998,
      "d": 297.6187499999942,
      "v": 60
    },
    {
      "midi": 35,
      "hit": false,
      "t": 43636.319999999985,
      "d": 183.98249999999825,
      "v": 91
    },
    {
      "midi": 54,
      "hit": false,
      "t": 43636.32000000004,
      "d": 146.10375000000204,
      "v": 67
    },
    {
      "midi": 47,
      "hit": false,
      "t": 43636.32000000004,
      "d": 278.679375000007,
      "v": 67
    },
    {
      "midi": 63,
      "hit": false,
      "t": 43636.32000000004,
      "d": 292.2075000000041,
      "v": 67
    },
    {
      "midi": 59,
      "hit": false,
      "t": 43636.32000000004,
      "d": 303.0300000000061,
      "v": 67
    },
    {
      "midi": 35,
      "hit": false,
      "t": 43896.05999999998,
      "d": 129.87000000000262,
      "v": 56
    },
    {
      "midi": 54,
      "hit": false,
      "t": 43896.06000000005,
      "d": 51.40687500000058,
      "v": 67
    },
    {
      "midi": 54,
      "hit": false,
      "t": 44025.93000000005,
      "d": 45.9956250000032,
      "v": 67
    },
    {
      "midi": 63,
      "hit": false,
      "t": 44025.93000000005,
      "d": 51.40687500000058,
      "v": 67
    },
    {
      "midi": 59,
      "hit": false,
      "t": 44025.93000000005,
      "d": 56.81812499999796,
      "v": 67
    },
    {
      "midi": 35,
      "hit": false,
      "t": 44034.046874999985,
      "d": 54.11250000000291,
      "v": 87
    },
    {
      "midi": 39,
      "hit": false,
      "t": 44155.79999999999,
      "d": 129.87000000000262,
      "v": 73
    },
    {
      "midi": 54,
      "hit": false,
      "t": 44285.67000000005,
      "d": 43.29000000000087,
      "v": 65
    },
    {
      "midi": 59,
      "hit": false,
      "t": 44412.83437499999,
      "d": 313.8525000000009,
      "v": 91
    },
    {
      "midi": 39,
      "hit": false,
      "t": 44415.53999999999,
      "d": 146.10375000000204,
      "v": 87
    },
    {
      "midi": 59,
      "hit": false,
      "t": 44415.54000000005,
      "d": 37.87875000000349,
      "v": 67
    },
    {
      "midi": 63,
      "hit": false,
      "t": 44415.54000000005,
      "d": 56.81812500000524,
      "v": 67
    },
    {
      "midi": 42,
      "hit": false,
      "t": 44675.28,
      "d": 175.86562499999854,
      "v": 86
    },
    {
      "midi": 47,
      "hit": false,
      "t": 44675.28000000006,
      "d": 29.761874999996508,
      "v": 67
    },
    {
      "midi": 47,
      "hit": false,
      "t": 44805.15000000005,
      "d": 45.9956250000032,
      "v": 67
    },
    {
      "midi": 57,
      "hit": false,
      "t": 44932.314374999994,
      "d": 346.3199999999997,
      "v": 91
    },
    {
      "midi": 42,
      "hit": false,
      "t": 44935.02,
      "d": 35.173125000001164,
      "v": 70
    },
    {
      "midi": 59,
      "hit": false,
      "t": 44935.020000000055,
      "d": 40.584374999998545,
      "v": 67
    },
    {
      "midi": 54,
      "hit": false,
      "t": 44935.020000000055,
      "d": 51.40687500000058,
      "v": 67
    },
    {
      "midi": 63,
      "hit": false,
      "t": 44935.020000000055,
      "d": 51.40687500000058,
      "v": 67
    },
    {
      "midi": 42,
      "hit": false,
      "t": 45073.006875,
      "d": 54.11250000000291,
      "v": 90
    },
    {
      "midi": 47,
      "hit": false,
      "t": 45194.76,
      "d": 129.87000000000262,
      "v": 73
    },
    {
      "midi": 47,
      "hit": false,
      "t": 45194.76000000005,
      "d": 37.87875000000349,
      "v": 67
    },
    {
      "midi": 59,
      "hit": false,
      "t": 45324.630000000056,
      "d": 45.9956250000032,
      "v": 67
    },
    {
      "midi": 63,
      "hit": false,
      "t": 45324.630000000056,
      "d": 54.11250000000291,
      "v": 67
    },
    {
      "midi": 55,
      "hit": false,
      "t": 45451.794375,
      "d": 1293.2887499999997,
      "v": 91
    },
    {
      "midi": 47,
      "hit": false,
      "t": 45454.50000000001,
      "d": 37.87875000000349,
      "v": 61
    },
    {
      "midi": 47,
      "hit": false,
      "t": 45454.50000000006,
      "d": 27.056250000001455,
      "v": 67
    },
    {
      "midi": 47,
      "hit": false,
      "t": 45584.37000000001,
      "d": 81.16874999999709,
      "v": 78
    },
    {
      "midi": 47,
      "hit": false,
      "t": 45584.37000000006,
      "d": 48.701249999998254,
      "v": 67
    },
    {
      "midi": 55,
      "hit": false,
      "t": 45714.23999999997,
      "d": 300.3243749999965,
      "v": 64
    },
    {
      "midi": 59,
      "hit": false,
      "t": 45714.23999999997,
      "d": 300.3243749999965,
      "v": 73
    },
    {
      "midi": 64,
      "hit": false,
      "t": 45714.23999999997,
      "d": 303.02999999999884,
      "v": 60
    },
    {
      "midi": 28,
      "hit": false,
      "t": 45714.240000000005,
      "d": 183.98249999999825,
      "v": 91
    },
    {
      "midi": 55,
      "hit": false,
      "t": 45714.240000000056,
      "d": 146.10375000000204,
      "v": 67
    },
    {
      "midi": 52,
      "hit": false,
      "t": 45714.240000000056,
      "d": 278.679375000007,
      "v": 67
    },
    {
      "midi": 64,
      "hit": false,
      "t": 45714.240000000056,
      "d": 292.2075000000041,
      "v": 67
    },
    {
      "midi": 59,
      "hit": false,
      "t": 45714.240000000056,
      "d": 303.0300000000061,
      "v": 67
    },
    {
      "midi": 28,
      "hit": false,
      "t": 45973.98,
      "d": 129.87000000000262,
      "v": 56
    },
    {
      "midi": 55,
      "hit": false,
      "t": 45973.98000000006,
      "d": 51.40687500000058,
      "v": 67
    },
    {
      "midi": 55,
      "hit": false,
      "t": 46103.850000000064,
      "d": 45.9956250000032,
      "v": 67
    },
    {
      "midi": 64,
      "hit": false,
      "t": 46103.850000000064,
      "d": 51.40687500000058,
      "v": 67
    },
    {
      "midi": 59,
      "hit": false,
      "t": 46103.850000000064,
      "d": 56.81812499999796,
      "v": 67
    },
    {
      "midi": 28,
      "hit": false,
      "t": 46111.966875000006,
      "d": 54.11250000000291,
      "v": 87
    },
    {
      "midi": 31,
      "hit": false,
      "t": 46233.72000000001,
      "d": 175.86562499999854,
      "v": 86
    },
    {
      "midi": 55,
      "hit": false,
      "t": 46363.59000000006,
      "d": 43.29000000000087,
      "v": 65
    },
    {
      "midi": 31,
      "hit": false,
      "t": 46493.46000000001,
      "d": 35.173125000001164,
      "v": 70
    },
    {
      "midi": 59,
      "hit": false,
      "t": 46493.460000000065,
      "d": 37.87875000000349,
      "v": 67
    },
    {
      "midi": 64,
      "hit": false,
      "t": 46493.460000000065,
      "d": 56.81812500000524,
      "v": 67
    },
    {
      "midi": 31,
      "hit": false,
      "t": 46631.44687500001,
      "d": 54.11250000000291,
      "v": 90
    },
    {
      "midi": 35,
      "hit": false,
      "t": 46753.20000000001,
      "d": 175.86562499999854,
      "v": 86
    },
    {
      "midi": 52,
      "hit": false,
      "t": 46753.20000000007,
      "d": 29.761874999996508,
      "v": 67
    },
    {
      "midi": 52,
      "hit": false,
      "t": 46883.070000000065,
      "d": 45.9956250000032,
      "v": 67
    },
    {
      "midi": 57,
      "hit": false,
      "t": 47010.234375,
      "d": 316.5581250000032,
      "v": 82
    },
    {
      "midi": 35,
      "hit": false,
      "t": 47012.94000000001,
      "d": 35.173125000001164,
      "v": 70
    },
    {
      "midi": 59,
      "hit": false,
      "t": 47012.94000000007,
      "d": 40.584374999998545,
      "v": 67
    },
    {
      "midi": 55,
      "hit": false,
      "t": 47012.94000000007,
      "d": 51.40687500000058,
      "v": 67
    },
    {
      "midi": 64,
      "hit": false,
      "t": 47012.94000000007,
      "d": 51.40687500000058,
      "v": 67
    },
    {
      "midi": 35,
      "hit": false,
      "t": 47150.92687500001,
      "d": 54.11250000000291,
      "v": 90
    },
    {
      "midi": 40,
      "hit": false,
      "t": 47272.680000000015,
      "d": 129.87000000000262,
      "v": 73
    },
    {
      "midi": 52,
      "hit": false,
      "t": 47272.680000000066,
      "d": 37.87875000000349,
      "v": 67
    },
    {
      "midi": 59,
      "hit": false,
      "t": 47402.55000000007,
      "d": 45.9956250000032,
      "v": 67
    },
    {
      "midi": 64,
      "hit": false,
      "t": 47402.55000000007,
      "d": 54.11250000000291,
      "v": 67
    },
    {
      "midi": 59,
      "hit": false,
      "t": 47405.255625000005,
      "d": 297.61875000000146,
      "v": 91
    },
    {
      "midi": 40,
      "hit": false,
      "t": 47532.42000000002,
      "d": 37.87875000000349,
      "v": 61
    },
    {
      "midi": 52,
      "hit": false,
      "t": 47532.42000000007,
      "d": 27.056250000001455,
      "v": 67
    },
    {
      "midi": 40,
      "hit": false,
      "t": 47662.29000000002,
      "d": 81.16874999999709,
      "v": 78
    },
    {
      "midi": 52,
      "hit": false,
      "t": 47662.29000000007,
      "d": 48.701249999998254,
      "v": 67
    },
    {
      "midi": 55,
      "hit": false,
      "t": 47792.15999999997,
      "d": 313.8525000000009,
      "v": 64
    },
    {
      "midi": 59,
      "hit": false,
      "t": 47792.15999999997,
      "d": 313.8525000000009,
      "v": 73
    },
    {
      "midi": 64,
      "hit": false,
      "t": 47792.15999999997,
      "d": 316.5581250000032,
      "v": 64
    },
    {
      "midi": 36,
      "hit": false,
      "t": 47792.16000000002,
      "d": 183.98249999999825,
      "v": 91
    },
    {
      "midi": 55,
      "hit": false,
      "t": 47792.16000000007,
      "d": 146.10375000000204,
      "v": 67
    },
    {
      "midi": 48,
      "hit": false,
      "t": 47792.16000000007,
      "d": 278.679375000007,
      "v": 67
    },
    {
      "midi": 64,
      "hit": false,
      "t": 47792.16000000007,
      "d": 292.2075000000041,
      "v": 67
    },
    {
      "midi": 60,
      "hit": false,
      "t": 47792.16000000007,
      "d": 303.0300000000061,
      "v": 67
    },
    {
      "midi": 60,
      "hit": false,
      "t": 47794.865625000006,
      "d": 435.6056249999965,
      "v": 91
    },
    {
      "midi": 36,
      "hit": false,
      "t": 48051.900000000016,
      "d": 127.16437500000029,
      "v": 56
    },
    {
      "midi": 55,
      "hit": false,
      "t": 48051.900000000074,
      "d": 51.40687500000058,
      "v": 67
    },
    {
      "midi": 55,
      "hit": false,
      "t": 48181.77000000008,
      "d": 45.9956250000032,
      "v": 67
    },
    {
      "midi": 64,
      "hit": false,
      "t": 48181.77000000008,
      "d": 51.40687500000058,
      "v": 67
    },
    {
      "midi": 60,
      "hit": false,
      "t": 48181.77000000008,
      "d": 56.81812499999796,
      "v": 67
    },
    {
      "midi": 36,
      "hit": false,
      "t": 48189.88687500002,
      "d": 54.11250000000291,
      "v": 87
    },
    {
      "midi": 55,
      "hit": false,
      "t": 48308.934375000004,
      "d": 224.5668749999968,
      "v": 82
    },
    {
      "midi": 40,
      "hit": false,
      "t": 48311.64000000002,
      "d": 129.87000000000262,
      "v": 73
    },
    {
      "midi": 55,
      "hit": false,
      "t": 48441.510000000075,
      "d": 43.29000000000087,
      "v": 65
    },
    {
      "midi": 60,
      "hit": false,
      "t": 48568.674375,
      "d": 441.01687500000116,
      "v": 91
    },
    {
      "midi": 40,
      "hit": false,
      "t": 48571.38000000003,
      "d": 127.16437500000029,
      "v": 56
    },
    {
      "midi": 60,
      "hit": false,
      "t": 48571.38000000008,
      "d": 37.87875000000349,
      "v": 67
    },
    {
      "midi": 64,
      "hit": false,
      "t": 48571.38000000008,
      "d": 56.81812500000524,
      "v": 67
    },
    {
      "midi": 40,
      "hit": false,
      "t": 48709.36687500003,
      "d": 54.11250000000291,
      "v": 87
    },
    {
      "midi": 43,
      "hit": false,
      "t": 48831.12000000003,
      "d": 175.86562499999854,
      "v": 86
    },
    {
      "midi": 48,
      "hit": false,
      "t": 48831.12000000008,
      "d": 29.761874999996508,
      "v": 67
    },
    {
      "midi": 48,
      "hit": false,
      "t": 48960.99000000008,
      "d": 45.9956250000032,
      "v": 67
    },
    {
      "midi": 62,
      "hit": false,
      "t": 49088.154375000006,
      "d": 484.30687500000204,
      "v": 82
    },
    {
      "midi": 43,
      "hit": false,
      "t": 49090.86000000003,
      "d": 35.173125000001164,
      "v": 70
    },
    {
      "midi": 60,
      "hit": false,
      "t": 49090.86000000008,
      "d": 40.584374999998545,
      "v": 67
    },
    {
      "midi": 55,
      "hit": false,
      "t": 49090.86000000008,
      "d": 51.40687500000058,
      "v": 67
    },
    {
      "midi": 64,
      "hit": false,
      "t": 49090.86000000008,
      "d": 51.40687500000058,
      "v": 67
    },
    {
      "midi": 43,
      "hit": false,
      "t": 49228.84687500003,
      "d": 54.11250000000291,
      "v": 90
    },
    {
      "midi": 64,
      "hit": false,
      "t": 49350.59999999997,
      "d": 78.46312500000204,
      "v": 64
    },
    {
      "midi": 60,
      "hit": false,
      "t": 49350.59999999997,
      "d": 91.99124999999913,
      "v": 60
    },
    {
      "midi": 48,
      "hit": false,
      "t": 49350.600000000035,
      "d": 129.87000000000262,
      "v": 73
    },
    {
      "midi": 48,
      "hit": false,
      "t": 49350.60000000008,
      "d": 37.87875000000349,
      "v": 67
    },
    {
      "midi": 60,
      "hit": false,
      "t": 49480.47000000008,
      "d": 45.9956250000032,
      "v": 67
    },
    {
      "midi": 64,
      "hit": false,
      "t": 49480.47000000008,
      "d": 54.11250000000291,
      "v": 67
    },
    {
      "midi": 59,
      "hit": false,
      "t": 49607.63437500001,
      "d": 1101.1893750000017,
      "v": 91
    },
    {
      "midi": 48,
      "hit": false,
      "t": 49610.34000000004,
      "d": 37.87875000000349,
      "v": 61
    },
    {
      "midi": 48,
      "hit": false,
      "t": 49610.340000000084,
      "d": 27.056250000001455,
      "v": 67
    },
    {
      "midi": 48,
      "hit": false,
      "t": 49740.21000000004,
      "d": 81.16874999999709,
      "v": 78
    },
    {
      "midi": 48,
      "hit": false,
      "t": 49740.21000000009,
      "d": 48.701249999998254,
      "v": 67
    },
    {
      "midi": 55,
      "hit": false,
      "t": 49870.079999999965,
      "d": 300.3243749999965,
      "v": 56
    },
    {
      "midi": 62,
      "hit": false,
      "t": 49870.079999999965,
      "d": 300.3243749999965,
      "v": 64
    },
    {
      "midi": 59,
      "hit": false,
      "t": 49870.079999999965,
      "d": 305.7356249999939,
      "v": 73
    },
    {
      "midi": 31,
      "hit": false,
      "t": 49870.08000000004,
      "d": 183.98249999999825,
      "v": 91
    },
    {
      "midi": 55,
      "hit": false,
      "t": 49870.08000000008,
      "d": 146.10375000000204,
      "v": 67
    },
    {
      "midi": 43,
      "hit": false,
      "t": 49870.08000000008,
      "d": 278.679375000007,
      "v": 67
    },
    {
      "midi": 62,
      "hit": false,
      "t": 49870.08000000008,
      "d": 292.2075000000041,
      "v": 67
    },
    {
      "midi": 59,
      "hit": false,
      "t": 49870.08000000008,
      "d": 303.0300000000061,
      "v": 67
    },
    {
      "midi": 31,
      "hit": false,
      "t": 50129.820000000036,
      "d": 108.22499999999854,
      "v": 56
    },
    {
      "midi": 55,
      "hit": false,
      "t": 50129.82000000009,
      "d": 51.40687500000058,
      "v": 67
    },
    {
      "midi": 55,
      "hit": false,
      "t": 50259.69000000009,
      "d": 45.9956250000032,
      "v": 67
    },
    {
      "midi": 62,
      "hit": false,
      "t": 50259.69000000009,
      "d": 51.40687500000058,
      "v": 67
    },
    {
      "midi": 59,
      "hit": false,
      "t": 50259.69000000009,
      "d": 56.81812499999796,
      "v": 67
    },
    {
      "midi": 31,
      "hit": false,
      "t": 50267.80687500003,
      "d": 54.11250000000291,
      "v": 87
    },
    {
      "midi": 35,
      "hit": false,
      "t": 50389.560000000034,
      "d": 129.87000000000262,
      "v": 73
    },
    {
      "midi": 55,
      "hit": false,
      "t": 50519.43000000009,
      "d": 43.29000000000087,
      "v": 65
    },
    {
      "midi": 35,
      "hit": false,
      "t": 50649.30000000004,
      "d": 37.87875000000349,
      "v": 58
    },
    {
      "midi": 59,
      "hit": false,
      "t": 50649.30000000009,
      "d": 37.87875000000349,
      "v": 67
    },
    {
      "midi": 62,
      "hit": false,
      "t": 50649.30000000009,
      "d": 56.81812500000524,
      "v": 67
    },
    {
      "midi": 35,
      "hit": false,
      "t": 50779.17000000004,
      "d": 81.16874999999709,
      "v": 87
    },
    {
      "midi": 59,
      "hit": false,
      "t": 50906.33437500001,
      "d": 416.66625000000204,
      "v": 82
    },
    {
      "midi": 38,
      "hit": false,
      "t": 50909.04000000004,
      "d": 175.86562499999854,
      "v": 86
    },
    {
      "midi": 43,
      "hit": false,
      "t": 50909.040000000095,
      "d": 29.761874999996508,
      "v": 67
    },
    {
      "midi": 43,
      "hit": false,
      "t": 51038.91000000009,
      "d": 45.9956250000032,
      "v": 67
    },
    {
      "midi": 38,
      "hit": false,
      "t": 51168.780000000035,
      "d": 35.173125000001164,
      "v": 70
    },
    {
      "midi": 59,
      "hit": false,
      "t": 51168.78000000009,
      "d": 40.584374999998545,
      "v": 67
    },
    {
      "midi": 55,
      "hit": false,
      "t": 51168.78000000009,
      "d": 51.40687500000058,
      "v": 67
    },
    {
      "midi": 62,
      "hit": false,
      "t": 51168.78000000009,
      "d": 51.40687500000058,
      "v": 67
    },
    {
      "midi": 38,
      "hit": false,
      "t": 51306.76687500004,
      "d": 54.11250000000291,
      "v": 90
    },
    {
      "midi": 62,
      "hit": false,
      "t": 51425.814375000016,
      "d": 438.31124999999884,
      "v": 100
    },
    {
      "midi": 43,
      "hit": false,
      "t": 51428.52000000004,
      "d": 129.87000000000262,
      "v": 73
    },
    {
      "midi": 43,
      "hit": false,
      "t": 51428.52000000009,
      "d": 37.87875000000349,
      "v": 67
    },
    {
      "midi": 67,
      "hit": false,
      "t": 51558.389999999956,
      "d": 62.22937500000262,
      "v": 60
    },
    {
      "midi": 64,
      "hit": false,
      "t": 51558.389999999956,
      "d": 70.34625000000233,
      "v": 64
    },
    {
      "midi": 59,
      "hit": false,
      "t": 51558.390000000094,
      "d": 45.9956250000032,
      "v": 67
    },
    {
      "midi": 62,
      "hit": false,
      "t": 51558.390000000094,
      "d": 54.11250000000291,
      "v": 67
    },
    {
      "midi": 43,
      "hit": false,
      "t": 51688.260000000046,
      "d": 37.87875000000349,
      "v": 58
    },
    {
      "midi": 43,
      "hit": false,
      "t": 51688.2600000001,
      "d": 27.056250000001455,
      "v": 67
    },
    {
      "midi": 43,
      "hit": false,
      "t": 51818.13000000005,
      "d": 81.16874999999709,
      "v": 87
    },
    {
      "midi": 43,
      "hit": false,
      "t": 51818.1300000001,
      "d": 48.701249999998254,
      "v": 67
    },
    {
      "midi": 63,
      "hit": false,
      "t": 51945.29437500001,
      "d": 481.6012499999997,
      "v": 73
    },
    {
      "midi": 57,
      "hit": false,
      "t": 51947.999999999956,
      "d": 286.7962499999994,
      "v": 82
    },
    {
      "midi": 63,
      "hit": false,
      "t": 51947.999999999956,
      "d": 292.2074999999968,
      "v": 60
    },
    {
      "midi": 54,
      "hit": false,
      "t": 51947.999999999956,
      "d": 297.6187499999942,
      "v": 60
    },
    {
      "midi": 35,
      "hit": false,
      "t": 51948.000000000044,
      "d": 183.98249999999825,
      "v": 91
    },
    {
      "midi": 54,
      "hit": false,
      "t": 51948.000000000095,
      "d": 146.10375000000204,
      "v": 67
    },
    {
      "midi": 47,
      "hit": false,
      "t": 51948.000000000095,
      "d": 278.679375000007,
      "v": 67
    },
    {
      "midi": 63,
      "hit": false,
      "t": 51948.000000000095,
      "d": 292.2075000000041,
      "v": 67
    },
    {
      "midi": 59,
      "hit": false,
      "t": 51948.000000000095,
      "d": 303.0300000000061,
      "v": 67
    },
    {
      "midi": 35,
      "hit": false,
      "t": 52207.74000000004,
      "d": 129.87000000000262,
      "v": 56
    },
    {
      "midi": 54,
      "hit": false,
      "t": 52207.7400000001,
      "d": 51.40687500000058,
      "v": 67
    },
    {
      "midi": 54,
      "hit": false,
      "t": 52337.6100000001,
      "d": 45.9956250000032,
      "v": 67
    },
    {
      "midi": 63,
      "hit": false,
      "t": 52337.6100000001,
      "d": 51.40687500000058,
      "v": 67
    },
    {
      "midi": 59,
      "hit": false,
      "t": 52337.6100000001,
      "d": 56.81812499999796,
      "v": 67
    },
    {
      "midi": 35,
      "hit": false,
      "t": 52345.726875000044,
      "d": 54.11250000000291,
      "v": 87
    },
    {
      "midi": 39,
      "hit": false,
      "t": 52467.48000000005,
      "d": 129.87000000000262,
      "v": 73
    },
    {
      "midi": 59,
      "hit": false,
      "t": 52470.18562500001,
      "d": 224.5668749999968,
      "v": 91
    },
    {
      "midi": 54,
      "hit": false,
      "t": 52597.3500000001,
      "d": 43.29000000000087,
      "v": 65
    },
    {
      "midi": 39,
      "hit": false,
      "t": 52727.22000000005,
      "d": 146.10375000000204,
      "v": 87
    },
    {
      "midi": 59,
      "hit": false,
      "t": 52727.2200000001,
      "d": 37.87875000000349,
      "v": 67
    },
    {
      "midi": 63,
      "hit": false,
      "t": 52727.2200000001,
      "d": 56.81812500000524,
      "v": 67
    },
    {
      "midi": 57,
      "hit": false,
      "t": 52729.92562500001,
      "d": 432.90000000000146,
      "v": 82
    },
    {
      "midi": 42,
      "hit": false,
      "t": 52986.96000000006,
      "d": 175.86562499999854,
      "v": 86
    },
    {
      "midi": 47,
      "hit": false,
      "t": 52986.96000000011,
      "d": 29.761874999996508,
      "v": 67
    },
    {
      "midi": 47,
      "hit": false,
      "t": 53116.8300000001,
      "d": 45.9956250000032,
      "v": 67
    },
    {
      "midi": 59,
      "hit": false,
      "t": 53243.99437500001,
      "d": 516.7743750000009,
      "v": 91
    },
    {
      "midi": 63,
      "hit": false,
      "t": 53246.69999999995,
      "d": 62.22937500000262,
      "v": 52
    },
    {
      "midi": 66,
      "hit": false,
      "t": 53246.69999999995,
      "d": 70.34625000000233,
      "v": 56
    },
    {
      "midi": 42,
      "hit": false,
      "t": 53246.700000000055,
      "d": 35.173125000001164,
      "v": 70
    },
    {
      "midi": 59,
      "hit": false,
      "t": 53246.700000000106,
      "d": 40.584374999998545,
      "v": 67
    },
    {
      "midi": 54,
      "hit": false,
      "t": 53246.700000000106,
      "d": 51.40687500000058,
      "v": 67
    },
    {
      "midi": 63,
      "hit": false,
      "t": 53246.700000000106,
      "d": 51.40687500000058,
      "v": 67
    },
    {
      "midi": 42,
      "hit": false,
      "t": 53384.68687500006,
      "d": 54.11250000000291,
      "v": 90
    },
    {
      "midi": 47,
      "hit": false,
      "t": 53506.44000000006,
      "d": 129.87000000000262,
      "v": 73
    },
    {
      "midi": 47,
      "hit": false,
      "t": 53506.440000000104,
      "d": 37.87875000000349,
      "v": 67
    },
    {
      "midi": 67,
      "hit": false,
      "t": 53636.309999999954,
      "d": 83.87437499999942,
      "v": 60
    },
    {
      "midi": 63,
      "hit": false,
      "t": 53636.309999999954,
      "d": 91.99124999999913,
      "v": 56
    },
    {
      "midi": 59,
      "hit": false,
      "t": 53636.31000000011,
      "d": 45.9956250000032,
      "v": 67
    },
    {
      "midi": 63,
      "hit": false,
      "t": 53636.31000000011,
      "d": 54.11250000000291,
      "v": 67
    },
    {
      "midi": 47,
      "hit": false,
      "t": 53766.180000000066,
      "d": 37.87875000000349,
      "v": 61
    },
    {
      "midi": 47,
      "hit": false,
      "t": 53766.18000000011,
      "d": 27.056250000001455,
      "v": 67
    },
    {
      "midi": 55,
      "hit": false,
      "t": 53768.88562500001,
      "d": 1287.8775000000023,
      "v": 82
    },
    {
      "midi": 47,
      "hit": false,
      "t": 53896.05000000007,
      "d": 81.16874999999709,
      "v": 78
    },
    {
      "midi": 47,
      "hit": false,
      "t": 53896.05000000011,
      "d": 48.701249999998254,
      "v": 67
    },
    {
      "midi": 55,
      "hit": false,
      "t": 54025.919999999955,
      "d": 300.3243749999965,
      "v": 64
    },
    {
      "midi": 59,
      "hit": false,
      "t": 54025.919999999955,
      "d": 300.3243749999965,
      "v": 73
    },
    {
      "midi": 64,
      "hit": false,
      "t": 54025.919999999955,
      "d": 303.02999999999884,
      "v": 60
    },
    {
      "midi": 28,
      "hit": false,
      "t": 54025.920000000064,
      "d": 183.98249999999825,
      "v": 91
    },
    {
      "midi": 55,
      "hit": false,
      "t": 54025.92000000011,
      "d": 146.10375000000204,
      "v": 67
    },
    {
      "midi": 52,
      "hit": false,
      "t": 54025.92000000011,
      "d": 278.679375000007,
      "v": 67
    },
    {
      "midi": 64,
      "hit": false,
      "t": 54025.92000000011,
      "d": 292.2075000000041,
      "v": 67
    },
    {
      "midi": 59,
      "hit": false,
      "t": 54025.92000000011,
      "d": 303.0300000000061,
      "v": 67
    },
    {
      "midi": 28,
      "hit": false,
      "t": 54285.66000000006,
      "d": 129.87000000000262,
      "v": 56
    },
    {
      "midi": 55,
      "hit": false,
      "t": 54285.66000000011,
      "d": 51.40687500000058,
      "v": 67
    },
    {
      "midi": 55,
      "hit": false,
      "t": 54415.530000000115,
      "d": 45.9956250000032,
      "v": 67
    },
    {
      "midi": 64,
      "hit": false,
      "t": 54415.530000000115,
      "d": 51.40687500000058,
      "v": 67
    },
    {
      "midi": 59,
      "hit": false,
      "t": 54415.530000000115,
      "d": 56.81812499999796,
      "v": 67
    },
    {
      "midi": 28,
      "hit": false,
      "t": 54423.646875000064,
      "d": 54.11250000000291,
      "v": 87
    },
    {
      "midi": 31,
      "hit": false,
      "t": 54545.40000000007,
      "d": 108.22499999999854,
      "v": 73
    },
    {
      "midi": 55,
      "hit": false,
      "t": 54675.27000000011,
      "d": 43.29000000000087,
      "v": 65
    },
    {
      "midi": 31,
      "hit": false,
      "t": 54805.140000000065,
      "d": 35.173125000001164,
      "v": 64
    },
    {
      "midi": 59,
      "hit": false,
      "t": 54805.140000000116,
      "d": 37.87875000000349,
      "v": 67
    },
    {
      "midi": 64,
      "hit": false,
      "t": 54805.140000000116,
      "d": 56.81812500000524,
      "v": 67
    },
    {
      "midi": 31,
      "hit": false,
      "t": 54943.12687500007,
      "d": 54.11250000000291,
      "v": 90
    },
    {
      "midi": 35,
      "hit": false,
      "t": 55064.88000000007,
      "d": 105.51937500000349,
      "v": 86
    },
    {
      "midi": 52,
      "hit": false,
      "t": 55321.914375000015,
      "d": 313.8525000000009,
      "v": 82
    },
    {
      "midi": 55,
      "hit": false,
      "t": 55321.914375000015,
      "d": 330.0862500000003,
      "v": 82
    },
    {
      "midi": 61,
      "hit": false,
      "t": 55324.61999999995,
      "d": 259.73999999999796,
      "v": 51
    },
    {
      "midi": 55,
      "hit": false,
      "t": 55324.61999999995,
      "d": 278.6793749999997,
      "v": 51
    },
    {
      "midi": 45,
      "hit": false,
      "t": 55324.62,
      "d": 332.7918750000026,
      "v": 73
    },
    {
      "midi": 64,
      "hit": false,
      "t": 55324.62,
      "d": 340.9087500000023,
      "v": 76
    },
    {
      "midi": 33,
      "hit": false,
      "t": 55324.620000000075,
      "d": 303.02999999999884,
      "v": 100
    },
    {
      "midi": 52,
      "hit": false,
      "t": 55324.62000000012,
      "d": 175.86562499999854,
      "v": 67
    },
    {
      "midi": 40,
      "hit": false,
      "t": 55324.62000000012,
      "d": 192.09937499999796,
      "v": 67
    },
    {
      "midi": 55,
      "hit": false,
      "t": 55327.325625000005,
      "d": 370.67062499999884,
      "v": 73
    },
    {
      "midi": 67,
      "hit": false,
      "t": 55327.32562500001,
      "d": 240.8006250000035,
      "v": 73
    },
    {
      "midi": 59,
      "hit": false,
      "t": 55714.22999999995,
      "d": 319.26375000000553,
      "v": 52
    },
    {
      "midi": 66,
      "hit": false,
      "t": 55714.23,
      "d": 349.02562500000204,
      "v": 76
    },
    {
      "midi": 57,
      "hit": false,
      "t": 55714.23,
      "d": 384.1987500000032,
      "v": 73
    },
    {
      "midi": 57,
      "hit": false,
      "t": 55714.23000000002,
      "d": 305.73562500000116,
      "v": 73
    },
    {
      "midi": 35,
      "hit": false,
      "t": 55714.230000000076,
      "d": 305.73562500000116,
      "v": 91
    },
    {
      "midi": 54,
      "hit": false,
      "t": 55714.23000000012,
      "d": 159.63187499999913,
      "v": 67
    },
    {
      "midi": 42,
      "hit": false,
      "t": 55714.23000000012,
      "d": 202.921875,
      "v": 67
    },
    {
      "midi": 63,
      "hit": false,
      "t": 55716.935624999955,
      "d": 319.26375000000553,
      "v": 31
    },
    {
      "midi": 47,
      "hit": false,
      "t": 55716.935625000006,
      "d": 370.67062499999884,
      "v": 73
    },
    {
      "midi": 69,
      "hit": false,
      "t": 55716.93562500002,
      "d": 224.5668749999968,
      "v": 82
    },
    {
      "midi": 54,
      "hit": false,
      "t": 55716.93562500002,
      "d": 292.2074999999968,
      "v": 82
    },
    {
      "midi": 59,
      "hit": false,
      "t": 56098.42875000001,
      "d": 535.7137500000026,
      "v": 64
    },
    {
      "midi": 48,
      "hit": false,
      "t": 56101.13437500001,
      "d": 579.0037499999962,
      "v": 64
    },
    {
      "midi": 59,
      "hit": false,
      "t": 56101.134375000016,
      "d": 432.8999999999942,
      "v": 82
    },
    {
      "midi": 55,
      "hit": false,
      "t": 56103.83999999996,
      "d": 313.8525000000009,
      "v": 64
    },
    {
      "midi": 59,
      "hit": false,
      "t": 56103.83999999996,
      "d": 313.8525000000009,
      "v": 73
    },
    {
      "midi": 64,
      "hit": false,
      "t": 56103.83999999996,
      "d": 316.5581250000032,
      "v": 64
    },
    {
      "midi": 64,
      "hit": false,
      "t": 56103.84000000001,
      "d": 554.6531249999971,
      "v": 73
    },
    {
      "midi": 36,
      "hit": false,
      "t": 56103.84000000008,
      "d": 183.98249999999825,
      "v": 91
    },
    {
      "midi": 60,
      "hit": false,
      "t": 56103.84000000012,
      "d": 75.75749999999971,
      "v": 67
    },
    {
      "midi": 71,
      "hit": false,
      "t": 56106.54562500001,
      "d": 335.4974999999977,
      "v": 82
    },
    {
      "midi": 55,
      "hit": false,
      "t": 56106.54562500001,
      "d": 457.2506249999933,
      "v": 82
    },
    {
      "midi": 67,
      "hit": false,
      "t": 56106.54562500001,
      "d": 522.1856249999983,
      "v": 76
    },
    {
      "midi": 36,
      "hit": false,
      "t": 56363.580000000075,
      "d": 108.22499999999854,
      "v": 56
    },
    {
      "midi": 60,
      "hit": false,
      "t": 56363.58000000012,
      "d": 59.52375000000029,
      "v": 67
    },
    {
      "midi": 64,
      "hit": false,
      "t": 56493.45000000012,
      "d": 78.46312500000204,
      "v": 67
    },
    {
      "midi": 36,
      "hit": false,
      "t": 56501.56687500007,
      "d": 54.11250000000291,
      "v": 87
    },
    {
      "midi": 40,
      "hit": false,
      "t": 56623.32000000007,
      "d": 175.86562499999854,
      "v": 86
    },
    {
      "midi": 59,
      "hit": false,
      "t": 56753.190000000126,
      "d": 56.81812499999796,
      "v": 67
    },
    {
      "midi": 67,
      "hit": false,
      "t": 56880.35437500001,
      "d": 113.6362500000032,
      "v": 73
    },
    {
      "midi": 52,
      "hit": false,
      "t": 56880.35437500001,
      "d": 173.1600000000035,
      "v": 73
    },
    {
      "midi": 55,
      "hit": false,
      "t": 56880.35437500001,
      "d": 221.86125000000175,
      "v": 73
    },
    {
      "midi": 40,
      "hit": false,
      "t": 56883.06000000007,
      "d": 35.173125000001164,
      "v": 70
    },
    {
      "midi": 64,
      "hit": false,
      "t": 56883.06000000012,
      "d": 51.40687500000058,
      "v": 67
    },
    {
      "midi": 59,
      "hit": false,
      "t": 57012.930000000124,
      "d": 48.701249999998254,
      "v": 67
    },
    {
      "midi": 40,
      "hit": false,
      "t": 57021.04687500007,
      "d": 54.11250000000291,
      "v": 90
    },
    {
      "midi": 71,
      "hit": false,
      "t": 57140.094375000015,
      "d": 362.5537499999991,
      "v": 73
    },
    {
      "midi": 59,
      "hit": false,
      "t": 57140.094375000015,
      "d": 416.66625000000204,
      "v": 82
    },
    {
      "midi": 55,
      "hit": false,
      "t": 57140.094375000015,
      "d": 459.9562500000029,
      "v": 82
    },
    {
      "midi": 43,
      "hit": false,
      "t": 57142.800000000076,
      "d": 175.86562499999854,
      "v": 86
    },
    {
      "midi": 60,
      "hit": false,
      "t": 57142.80000000012,
      "d": 54.11250000000291,
      "v": 67
    },
    {
      "midi": 64,
      "hit": false,
      "t": 57272.67000000012,
      "d": 51.40687500000058,
      "v": 67
    },
    {
      "midi": 43,
      "hit": false,
      "t": 57402.54000000007,
      "d": 35.173125000001164,
      "v": 70
    },
    {
      "midi": 59,
      "hit": false,
      "t": 57402.540000000125,
      "d": 59.52375000000029,
      "v": 67
    },
    {
      "midi": 60,
      "hit": false,
      "t": 57532.41000000013,
      "d": 51.40687500000058,
      "v": 67
    },
    {
      "midi": 43,
      "hit": false,
      "t": 57540.526875000076,
      "d": 54.11250000000291,
      "v": 90
    },
    {
      "midi": 72,
      "hit": false,
      "t": 57659.57437500002,
      "d": 162.33750000000146,
      "v": 73
    },
    {
      "midi": 57,
      "hit": false,
      "t": 57659.57437500002,
      "d": 224.56687500000407,
      "v": 82
    },
    {
      "midi": 60,
      "hit": false,
      "t": 57659.57437500002,
      "d": 229.97812500000146,
      "v": 73
    },
    {
      "midi": 48,
      "hit": false,
      "t": 57662.28000000008,
      "d": 129.87000000000262,
      "v": 73
    },
    {
      "midi": 64,
      "hit": false,
      "t": 57662.28000000013,
      "d": 56.81812499999796,
      "v": 67
    },
    {
      "midi": 59,
      "hit": false,
      "t": 57792.150000000125,
      "d": 54.11250000000291,
      "v": 67
    },
    {
      "midi": 71,
      "hit": false,
      "t": 57919.314375000016,
      "d": 346.3199999999997,
      "v": 82
    },
    {
      "midi": 59,
      "hit": false,
      "t": 57919.314375000016,
      "d": 392.3156250000029,
      "v": 73
    },
    {
      "midi": 55,
      "hit": false,
      "t": 57919.314375000016,
      "d": 457.2506250000006,
      "v": 82
    },
    {
      "midi": 48,
      "hit": false,
      "t": 57922.020000000084,
      "d": 37.87875000000349,
      "v": 58
    },
    {
      "midi": 60,
      "hit": false,
      "t": 57922.02000000013,
      "d": 59.52375000000029,
      "v": 67
    },
    {
      "midi": 48,
      "hit": false,
      "t": 58051.89000000009,
      "d": 81.16874999999709,
      "v": 87
    },
    {
      "midi": 64,
      "hit": false,
      "t": 58051.89000000013,
      "d": 64.93499999999767,
      "v": 67
    },
    {
      "midi": 45,
      "hit": false,
      "t": 58170.93750000001,
      "d": 589.826249999991,
      "v": 48
    },
    {
      "midi": 59,
      "hit": false,
      "t": 58179.05437500001,
      "d": 541.125,
      "v": 64
    },
    {
      "midi": 60,
      "hit": false,
      "t": 58179.05437500001,
      "d": 546.5362499999974,
      "v": 64
    },
    {
      "midi": 64,
      "hit": false,
      "t": 58179.05437500001,
      "d": 546.5362499999974,
      "v": 64
    },
    {
      "midi": 67,
      "hit": false,
      "t": 58179.05437500001,
      "d": 551.9474999999948,
      "v": 80
    },
    {
      "midi": 33,
      "hit": false,
      "t": 58181.76000000008,
      "d": 183.98249999999825,
      "v": 91
    },
    {
      "midi": 60,
      "hit": false,
      "t": 58181.760000000126,
      "d": 75.75749999999971,
      "v": 67
    },
    {
      "midi": 52,
      "hit": false,
      "t": 58436.08875000002,
      "d": 551.947500000002,
      "v": 73
    },
    {
      "midi": 67,
      "hit": false,
      "t": 58438.79437500002,
      "d": 441.01687500000116,
      "v": 73
    },
    {
      "midi": 55,
      "hit": false,
      "t": 58438.79437500002,
      "d": 633.1162499999991,
      "v": 82
    },
    {
      "midi": 33,
      "hit": false,
      "t": 58441.50000000008,
      "d": 129.87000000000262,
      "v": 56
    },
    {
      "midi": 60,
      "hit": false,
      "t": 58441.500000000124,
      "d": 59.52375000000029,
      "v": 67
    },
    {
      "midi": 64,
      "hit": false,
      "t": 58571.370000000126,
      "d": 78.46312500000204,
      "v": 67
    },
    {
      "midi": 33,
      "hit": false,
      "t": 58579.48687500008,
      "d": 54.11250000000291,
      "v": 87
    },
    {
      "midi": 36,
      "hit": false,
      "t": 58701.240000000085,
      "d": 175.86562499999854,
      "v": 86
    },
    {
      "midi": 59,
      "hit": false,
      "t": 58831.11000000013,
      "d": 56.81812499999796,
      "v": 67
    },
    {
      "midi": 45,
      "hit": false,
      "t": 58952.863124999996,
      "d": 86.58000000000175,
      "v": 52
    },
    {
      "midi": 59,
      "hit": false,
      "t": 58952.863124999996,
      "d": 86.58000000000175,
      "v": 73
    },
    {
      "midi": 60,
      "hit": false,
      "t": 58955.56875,
      "d": 86.58000000000175,
      "v": 73
    },
    {
      "midi": 67,
      "hit": false,
      "t": 58955.56875,
      "d": 110.93062500000087,
      "v": 73
    },
    {
      "midi": 64,
      "hit": false,
      "t": 58958.274375,
      "d": 81.16874999999709,
      "v": 64
    },
    {
      "midi": 36,
      "hit": false,
      "t": 58960.98000000008,
      "d": 35.173125000001164,
      "v": 70
    },
    {
      "midi": 64,
      "hit": false,
      "t": 58960.98000000013,
      "d": 51.40687500000058,
      "v": 67
    },
    {
      "midi": 59,
      "hit": false,
      "t": 59090.85000000013,
      "d": 48.701249999998254,
      "v": 67
    },
    {
      "midi": 36,
      "hit": false,
      "t": 59098.966875000086,
      "d": 54.11250000000291,
      "v": 90
    },
    {
      "midi": 40,
      "hit": false,
      "t": 59220.72000000009,
      "d": 175.86562499999854,
      "v": 86
    },
    {
      "midi": 60,
      "hit": false,
      "t": 59220.720000000125,
      "d": 54.11250000000291,
      "v": 67
    },
    {
      "midi": 64,
      "hit": false,
      "t": 59350.59000000013,
      "d": 51.40687500000058,
      "v": 67
    },
    {
      "midi": 40,
      "hit": false,
      "t": 59480.46000000009,
      "d": 35.173125000001164,
      "v": 70
    },
    {
      "midi": 59,
      "hit": false,
      "t": 59480.46000000013,
      "d": 59.52375000000029,
      "v": 67
    },
    {
      "midi": 60,
      "hit": false,
      "t": 59610.33000000013,
      "d": 51.40687500000058,
      "v": 67
    },
    {
      "midi": 40,
      "hit": false,
      "t": 59618.44687500009,
      "d": 54.11250000000291,
      "v": 90
    },
    {
      "midi": 45,
      "hit": false,
      "t": 59740.20000000009,
      "d": 129.87000000000262,
      "v": 73
    },
    {
      "midi": 64,
      "hit": false,
      "t": 59740.200000000135,
      "d": 56.81812499999796,
      "v": 67
    },
    {
      "midi": 59,
      "hit": false,
      "t": 59870.07000000013,
      "d": 54.11250000000291,
      "v": 67
    },
    {
      "midi": 45,
      "hit": false,
      "t": 59999.9400000001,
      "d": 37.87875000000349,
      "v": 61
    },
    {
      "midi": 60,
      "hit": false,
      "t": 59999.94000000013,
      "d": 59.52375000000029,
      "v": 67
    },
    {
      "midi": 45,
      "hit": false,
      "t": 60129.8100000001,
      "d": 81.16874999999709,
      "v": 78
    },
    {
      "midi": 64,
      "hit": false,
      "t": 60129.810000000136,
      "d": 64.93499999999767,
      "v": 67
    },
    {
      "midi": 60,
      "hit": false,
      "t": 60248.8575,
      "d": 321.96937500000786,
      "v": 73
    },
    {
      "midi": 47,
      "hit": false,
      "t": 60251.563125,
      "d": 262.4456250000003,
      "v": 64
    },
    {
      "midi": 57,
      "hit": false,
      "t": 60254.26875,
      "d": 313.8525000000009,
      "v": 64
    },
    {
      "midi": 63,
      "hit": false,
      "t": 60254.26875,
      "d": 313.8525000000009,
      "v": 79
    },
    {
      "midi": 35,
      "hit": false,
      "t": 60259.680000000095,
      "d": 183.98249999999825,
      "v": 91
    },
    {
      "midi": 66,
      "hit": false,
      "t": 60259.68000000013,
      "d": 51.40687500000058,
      "v": 67
    },
    {
      "midi": 59,
      "hit": false,
      "t": 60389.550000000134,
      "d": 59.52375000000029,
      "v": 67
    },
    {
      "midi": 35,
      "hit": false,
      "t": 60519.42000000009,
      "d": 129.87000000000262,
      "v": 56
    },
    {
      "midi": 63,
      "hit": false,
      "t": 60519.42000000014,
      "d": 59.52375000000029,
      "v": 67
    },
    {
      "midi": 57,
      "hit": false,
      "t": 60633.05625000001,
      "d": 56.81812499999796,
      "v": 64
    },
    {
      "midi": 63,
      "hit": false,
      "t": 60633.05625000001,
      "d": 62.22937499999534,
      "v": 83
    },
    {
      "midi": 47,
      "hit": false,
      "t": 60635.76187500001,
      "d": 70.34624999999505,
      "v": 73
    },
    {
      "midi": 60,
      "hit": false,
      "t": 60641.17312500001,
      "d": 48.701249999998254,
      "v": 73
    },
    {
      "midi": 66,
      "hit": false,
      "t": 60649.29000000014,
      "d": 54.11250000000291,
      "v": 67
    },
    {
      "midi": 35,
      "hit": false,
      "t": 60657.406875000095,
      "d": 54.11250000000291,
      "v": 87
    },
    {
      "midi": 39,
      "hit": false,
      "t": 60779.1600000001,
      "d": 175.86562499999854,
      "v": 86
    },
    {
      "midi": 59,
      "hit": false,
      "t": 60779.16000000014,
      "d": 51.40687500000058,
      "v": 67
    },
    {
      "midi": 63,
      "hit": false,
      "t": 60909.030000000144,
      "d": 56.81812499999796,
      "v": 67
    },
    {
      "midi": 54,
      "hit": false,
      "t": 61036.19437500002,
      "d": 221.86125000000175,
      "v": 64
    },
    {
      "midi": 69,
      "hit": false,
      "t": 61036.19437500002,
      "d": 243.50624999999854,
      "v": 73
    },
    {
      "midi": 57,
      "hit": false,
      "t": 61036.19437500002,
      "d": 251.62312499999825,
      "v": 60
    },
    {
      "midi": 39,
      "hit": false,
      "t": 61038.900000000096,
      "d": 35.173125000001164,
      "v": 70
    },
    {
      "midi": 66,
      "hit": false,
      "t": 61038.90000000014,
      "d": 51.40687500000058,
      "v": 67
    },
    {
      "midi": 39,
      "hit": false,
      "t": 61176.8868750001,
      "d": 54.11250000000291,
      "v": 90
    },
    {
      "midi": 55,
      "hit": false,
      "t": 61295.93437500002,
      "d": 197.51062499999534,
      "v": 91
    },
    {
      "midi": 42,
      "hit": false,
      "t": 61298.6400000001,
      "d": 175.86562499999854,
      "v": 86
    },
    {
      "midi": 59,
      "hit": false,
      "t": 61298.64000000014,
      "d": 54.11250000000291,
      "v": 67
    },
    {
      "midi": 59,
      "hit": false,
      "t": 61301.345625000016,
      "d": 254.32875000000058,
      "v": 73
    },
    {
      "midi": 71,
      "hit": false,
      "t": 61301.345625000016,
      "d": 262.4456250000003,
      "v": 73
    },
    {
      "midi": 54,
      "hit": false,
      "t": 61555.67437500002,
      "d": 227.27249999999913,
      "v": 60
    },
    {
      "midi": 42,
      "hit": false,
      "t": 61558.3800000001,
      "d": 35.173125000001164,
      "v": 70
    },
    {
      "midi": 59,
      "hit": false,
      "t": 61558.38000000014,
      "d": 59.52375000000029,
      "v": 67
    },
    {
      "midi": 69,
      "hit": false,
      "t": 61561.085625000014,
      "d": 216.45000000000437,
      "v": 64
    },
    {
      "midi": 57,
      "hit": false,
      "t": 61561.085625000014,
      "d": 229.97812500000146,
      "v": 73
    },
    {
      "midi": 66,
      "hit": false,
      "t": 61688.250000000146,
      "d": 51.40687500000058,
      "v": 67
    },
    {
      "midi": 42,
      "hit": false,
      "t": 61696.3668750001,
      "d": 54.11250000000291,
      "v": 90
    },
    {
      "midi": 52,
      "hit": false,
      "t": 61815.414375000015,
      "d": 200.21624999999767,
      "v": 91
    },
    {
      "midi": 67,
      "hit": false,
      "t": 61815.414375000015,
      "d": 205.62749999999505,
      "v": 73
    },
    {
      "midi": 47,
      "hit": false,
      "t": 61818.120000000104,
      "d": 129.87000000000262,
      "v": 73
    },
    {
      "midi": 55,
      "hit": false,
      "t": 61820.82562500001,
      "d": 205.62749999999505,
      "v": 82
    },
    {
      "midi": 52,
      "hit": false,
      "t": 62075.154375000006,
      "d": 478.8956249999974,
      "v": 82
    },
    {
      "midi": 47,
      "hit": false,
      "t": 62077.86000000011,
      "d": 37.87875000000349,
      "v": 61
    },
    {
      "midi": 59,
      "hit": false,
      "t": 62077.860000000146,
      "d": 59.52375000000029,
      "v": 67
    },
    {
      "midi": 67,
      "hit": false,
      "t": 62080.565625,
      "d": 470.7787499999977,
      "v": 73
    },
    {
      "midi": 55,
      "hit": false,
      "t": 62080.565625,
      "d": 476.1900000000023,
      "v": 73
    },
    {
      "midi": 47,
      "hit": false,
      "t": 62207.73000000011,
      "d": 81.16874999999709,
      "v": 78
    },
    {
      "midi": 64,
      "hit": false,
      "t": 62207.73000000015,
      "d": 51.40687500000058,
      "v": 67
    },
    {
      "midi": 52,
      "hit": false,
      "t": 62324.07187500001,
      "d": 313.8525000000009,
      "v": 73
    },
    {
      "midi": 64,
      "hit": false,
      "t": 62334.89437500001,
      "d": 297.61875000000146,
      "v": 77
    },
    {
      "midi": 55,
      "hit": false,
      "t": 62334.89437500001,
      "d": 305.73562500000116,
      "v": 64
    },
    {
      "midi": 59,
      "hit": false,
      "t": 62334.89437500001,
      "d": 305.73562500000116,
      "v": 73
    },
    {
      "midi": 28,
      "hit": false,
      "t": 62337.60000000011,
      "d": 146.10375000000204,
      "v": 91
    },
    {
      "midi": 64,
      "hit": false,
      "t": 62337.60000000015,
      "d": 56.81812499999796,
      "v": 67
    },
    {
      "midi": 59,
      "hit": false,
      "t": 62467.47000000015,
      "d": 54.11250000000291,
      "v": 67
    },
    {
      "midi": 55,
      "hit": false,
      "t": 62594.63437500001,
      "d": 359.8481249999968,
      "v": 91
    },
    {
      "midi": 28,
      "hit": false,
      "t": 62597.34000000011,
      "d": 73.05187499999738,
      "v": 56
    },
    {
      "midi": 60,
      "hit": false,
      "t": 62597.34000000015,
      "d": 59.52375000000029,
      "v": 67
    },
    {
      "midi": 71,
      "hit": false,
      "t": 62600.045625000006,
      "d": 392.3156250000029,
      "v": 82
    },
    {
      "midi": 59,
      "hit": false,
      "t": 62600.045625000006,
      "d": 430.1943750000064,
      "v": 82
    },
    {
      "midi": 52,
      "hit": false,
      "t": 62713.68187500001,
      "d": 86.58000000000175,
      "v": 56
    },
    {
      "midi": 59,
      "hit": false,
      "t": 62724.50437500001,
      "d": 67.640625,
      "v": 73
    },
    {
      "midi": 64,
      "hit": false,
      "t": 62724.50437500001,
      "d": 67.640625,
      "v": 81
    },
    {
      "midi": 55,
      "hit": false,
      "t": 62724.50437500001,
      "d": 75.75749999999971,
      "v": 73
    },
    {
      "midi": 64,
      "hit": false,
      "t": 62727.21000000015,
      "d": 64.93499999999767,
      "v": 67
    },
    {
      "midi": 28,
      "hit": false,
      "t": 62735.32687500011,
      "d": 54.11250000000291,
      "v": 87
    },
    {
      "midi": 31,
      "hit": false,
      "t": 62857.08000000011,
      "d": 129.87000000000262,
      "v": 73
    },
    {
      "midi": 59,
      "hit": false,
      "t": 62857.08000000015,
      "d": 54.11250000000291,
      "v": 67
    },
    {
      "midi": 59,
      "hit": false,
      "t": 62986.95000000015,
      "d": 43.29000000000087,
      "v": 67
    },
    {
      "midi": 31,
      "hit": false,
      "t": 63116.820000000116,
      "d": 62.22937500000262,
      "v": 56
    },
    {
      "midi": 64,
      "hit": false,
      "t": 63116.82000000015,
      "d": 64.93499999999767,
      "v": 67
    },
    {
      "midi": 31,
      "hit": false,
      "t": 63254.80687500012,
      "d": 54.11250000000291,
      "v": 87
    },
    {
      "midi": 35,
      "hit": false,
      "t": 63376.56000000012,
      "d": 175.86562499999854,
      "v": 86
    },
    {
      "midi": 59,
      "hit": false,
      "t": 63376.56000000015,
      "d": 64.93499999999767,
      "v": 67
    },
    {
      "midi": 64,
      "hit": false,
      "t": 63506.430000000146,
      "d": 54.11250000000291,
      "v": 67
    },
    {
      "midi": 45,
      "hit": false,
      "t": 63625.47750000001,
      "d": 357.14249999999447,
      "v": 73
    },
    {
      "midi": 55,
      "hit": false,
      "t": 63633.59437500001,
      "d": 303.02999999999884,
      "v": 73
    },
    {
      "midi": 64,
      "hit": false,
      "t": 63633.59437500001,
      "d": 319.26374999999825,
      "v": 82
    },
    {
      "midi": 35,
      "hit": false,
      "t": 63636.30000000012,
      "d": 35.173125000001164,
      "v": 70
    },
    {
      "midi": 55,
      "hit": false,
      "t": 63636.30000000015,
      "d": 43.29000000000087,
      "v": 67
    },
    {
      "midi": 67,
      "hit": false,
      "t": 63639.00562500001,
      "d": 200.21624999999767,
      "v": 73
    },
    {
      "midi": 52,
      "hit": false,
      "t": 63639.00562500001,
      "d": 202.921875,
      "v": 82
    },
    {
      "midi": 55,
      "hit": false,
      "t": 63639.00562500001,
      "d": 216.4499999999971,
      "v": 73
    },
    {
      "midi": 55,
      "hit": false,
      "t": 63766.17000000015,
      "d": 64.93499999999767,
      "v": 67
    },
    {
      "midi": 35,
      "hit": false,
      "t": 63774.28687500012,
      "d": 54.11250000000291,
      "v": 90
    },
    {
      "midi": 40,
      "hit": false,
      "t": 63896.040000000125,
      "d": 129.87000000000262,
      "v": 73
    },
    {
      "midi": 69,
      "hit": false,
      "t": 64023.20437500001,
      "d": 208.33312500001193,
      "v": 73
    },
    {
      "midi": 54,
      "hit": false,
      "t": 64025.91000000001,
      "d": 200.21625000000495,
      "v": 64
    },
    {
      "midi": 47,
      "hit": false,
      "t": 64028.615625000006,
      "d": 354.4368749999994,
      "v": 73
    },
    {
      "midi": 57,
      "hit": false,
      "t": 64028.61562500001,
      "d": 200.21625000000495,
      "v": 73
    },
    {
      "midi": 57,
      "hit": false,
      "t": 64034.026875,
      "d": 327.38062499999796,
      "v": 64
    },
    {
      "midi": 66,
      "hit": false,
      "t": 64034.026875,
      "d": 338.203125,
      "v": 91
    },
    {
      "midi": 40,
      "hit": false,
      "t": 64155.78000000013,
      "d": 37.87875000000349,
      "v": 61
    },
    {
      "midi": 59,
      "hit": false,
      "t": 64155.78000000015,
      "d": 43.29000000000087,
      "v": 67
    },
    {
      "midi": 40,
      "hit": false,
      "t": 64285.65000000013,
      "d": 81.16874999999709,
      "v": 78
    },
    {
      "midi": 64,
      "hit": false,
      "t": 64285.650000000154,
      "d": 64.93499999999767,
      "v": 67
    },
    {
      "midi": 48,
      "hit": false,
      "t": 64410.10875000001,
      "d": 367.9649999999965,
      "v": 64
    },
    {
      "midi": 64,
      "hit": false,
      "t": 64412.81437500001,
      "d": 327.38062499999796,
      "v": 73
    },
    {
      "midi": 59,
      "hit": false,
      "t": 64412.81437500001,
      "d": 335.4974999999977,
      "v": 60
    },
    {
      "midi": 62,
      "hit": false,
      "t": 64412.81437500001,
      "d": 335.4974999999977,
      "v": 82
    },
    {
      "midi": 67,
      "hit": false,
      "t": 64412.81437500001,
      "d": 343.6143749999974,
      "v": 85
    },
    {
      "midi": 55,
      "hit": false,
      "t": 64412.81437500002,
      "d": 335.4974999999977,
      "v": 100
    },
    {
      "midi": 76,
      "hit": false,
      "t": 64415.520000000004,
      "d": 45.9956250000032,
      "v": 127
    },
    {
      "midi": 36,
      "hit": false,
      "t": 64415.52000000013,
      "d": 183.98249999999825,
      "v": 91
    },
    {
      "midi": 60,
      "hit": false,
      "t": 64415.52000000015,
      "d": 75.75749999999971,
      "v": 67
    },
    {
      "midi": 71,
      "hit": false,
      "t": 64418.22562500002,
      "d": 338.203125,
      "v": 82
    },
    {
      "midi": 59,
      "hit": false,
      "t": 64418.22562500002,
      "d": 346.3199999999997,
      "v": 82
    },
    {
      "midi": 76,
      "hit": false,
      "t": 64672.55437500001,
      "d": 70.34625000000233,
      "v": 127
    },
    {
      "midi": 36,
      "hit": false,
      "t": 64675.260000000126,
      "d": 108.22499999999854,
      "v": 56
    },
    {
      "midi": 64,
      "hit": false,
      "t": 64675.26000000015,
      "d": 59.52375000000029,
      "v": 67
    },
    {
      "midi": 67,
      "hit": false,
      "t": 64799.71875,
      "d": 83.8743750000067,
      "v": 60
    },
    {
      "midi": 64,
      "hit": false,
      "t": 64802.424375,
      "d": 54.11250000000291,
      "v": 73
    },
    {
      "midi": 74,
      "hit": false,
      "t": 64802.42437500001,
      "d": 48.701249999998254,
      "v": 127
    },
    {
      "midi": 55,
      "hit": false,
      "t": 64802.424375000024,
      "d": 108.22499999999127,
      "v": 91
    },
    {
      "midi": 59,
      "hit": false,
      "t": 64805.130000000005,
      "d": 75.75749999999971,
      "v": 73
    },
    {
      "midi": 62,
      "hit": false,
      "t": 64805.130000000005,
      "d": 75.75749999999971,
      "v": 64
    },
    {
      "midi": 48,
      "hit": false,
      "t": 64805.130000000005,
      "d": 81.16875000000437,
      "v": 64
    },
    {
      "midi": 62,
      "hit": false,
      "t": 64805.13000000015,
      "d": 78.46312500000204,
      "v": 67
    },
    {
      "midi": 71,
      "hit": false,
      "t": 64807.83562500002,
      "d": 89.2856249999968,
      "v": 82
    },
    {
      "midi": 59,
      "hit": false,
      "t": 64807.83562500002,
      "d": 108.22499999999127,
      "v": 82
    },
    {
      "midi": 36,
      "hit": false,
      "t": 64813.24687500012,
      "d": 54.11250000000291,
      "v": 87
    },
    {
      "midi": 40,
      "hit": false,
      "t": 64935.000000000124,
      "d": 175.86562499999854,
      "v": 86
    },
    {
      "midi": 67,
      "hit": false,
      "t": 65064.870000000155,
      "d": 56.81812499999796,
      "v": 67
    },
    {
      "midi": 74,
      "hit": false,
      "t": 65067.575625000005,
      "d": 73.05187499999738,
      "v": 127
    },
    {
      "midi": 71,
      "hit": false,
      "t": 65194.740000000005,
      "d": 56.81812499999796,
      "v": 127
    },
    {
      "midi": 40,
      "hit": false,
      "t": 65194.74000000012,
      "d": 35.173125000001164,
      "v": 70
    },
    {
      "midi": 64,
      "hit": false,
      "t": 65194.74000000015,
      "d": 51.40687500000058,
      "v": 67
    },
    {
      "midi": 59,
      "hit": false,
      "t": 65324.61000000015,
      "d": 48.701249999998254,
      "v": 67
    },
    {
      "midi": 40,
      "hit": false,
      "t": 65332.726875000124,
      "d": 54.11250000000291,
      "v": 90
    },
    {
      "midi": 69,
      "hit": false,
      "t": 65454.48,
      "d": 48.701249999998254,
      "v": 127
    },
    {
      "midi": 43,
      "hit": false,
      "t": 65454.48000000013,
      "d": 175.86562500000582,
      "v": 86
    },
    {
      "midi": 69,
      "hit": false,
      "t": 65454.48000000015,
      "d": 54.11250000000291,
      "v": 67
    },
    {
      "midi": 64,
      "hit": false,
      "t": 65584.35000000015,
      "d": 51.40687500000058,
      "v": 67
    },
    {
      "midi": 71,
      "hit": false,
      "t": 65708.80875,
      "d": 62.22937499999534,
      "v": 127
    },
    {
      "midi": 43,
      "hit": false,
      "t": 65714.22000000013,
      "d": 35.173125000001164,
      "v": 70
    },
    {
      "midi": 59,
      "hit": false,
      "t": 65714.22000000015,
      "d": 59.523749999993015,
      "v": 67
    },
    {
      "midi": 67,
      "hit": false,
      "t": 65716.92562500002,
      "d": 116.34187499999825,
      "v": 73
    },
    {
      "midi": 52,
      "hit": false,
      "t": 65716.92562500002,
      "d": 178.5712499999936,
      "v": 82
    },
    {
      "midi": 55,
      "hit": false,
      "t": 65716.92562500002,
      "d": 183.98249999999825,
      "v": 73
    },
    {
      "midi": 60,
      "hit": false,
      "t": 65844.09000000014,
      "d": 51.40687500000058,
      "v": 67
    },
    {
      "midi": 43,
      "hit": false,
      "t": 65852.20687500013,
      "d": 54.11250000000291,
      "v": 90
    },
    {
      "midi": 67,
      "hit": false,
      "t": 65968.54874999999,
      "d": 62.22937499999534,
      "v": 127
    },
    {
      "midi": 55,
      "hit": false,
      "t": 65973.96000000014,
      "d": 56.81812500000524,
      "v": 67
    },
    {
      "midi": 48,
      "hit": false,
      "t": 65973.96000000014,
      "d": 129.86999999999534,
      "v": 73
    },
    {
      "midi": 59,
      "hit": false,
      "t": 66103.83000000015,
      "d": 54.11250000000291,
      "v": 67
    },
    {
      "midi": 54,
      "hit": false,
      "t": 66106.53562500002,
      "d": 154.22062500000175,
      "v": 82
    },
    {
      "midi": 57,
      "hit": false,
      "t": 66106.53562500002,
      "d": 156.92625000000407,
      "v": 73
    },
    {
      "midi": 69,
      "hit": false,
      "t": 66106.53562500002,
      "d": 156.92625000000407,
      "v": 82
    },
    {
      "midi": 48,
      "hit": false,
      "t": 66233.70000000013,
      "d": 37.87875000000349,
      "v": 58
    },
    {
      "midi": 60,
      "hit": false,
      "t": 66233.70000000016,
      "d": 59.523749999993015,
      "v": 67
    },
    {
      "midi": 48,
      "hit": false,
      "t": 66363.57000000014,
      "d": 81.16874999999709,
      "v": 87
    },
    {
      "midi": 64,
      "hit": false,
      "t": 66363.57000000015,
      "d": 64.93499999999767,
      "v": 67
    },
    {
      "midi": 55,
      "hit": false,
      "t": 66485.32312500001,
      "d": 351.73125000001164,
      "v": 73
    },
    {
      "midi": 59,
      "hit": false,
      "t": 66485.32312500001,
      "d": 351.73125000001164,
      "v": 73
    },
    {
      "midi": 45,
      "hit": false,
      "t": 66488.02875000001,
      "d": 292.2075000000041,
      "v": 68
    },
    {
      "midi": 60,
      "hit": false,
      "t": 66488.02875000001,
      "d": 346.320000000007,
      "v": 56
    },
    {
      "midi": 64,
      "hit": false,
      "t": 66490.73437500001,
      "d": 346.320000000007,
      "v": 82
    },
    {
      "midi": 55,
      "hit": false,
      "t": 66490.73437500003,
      "d": 359.8481250000041,
      "v": 100
    },
    {
      "midi": 76,
      "hit": false,
      "t": 66493.43999999999,
      "d": 43.2899999999936,
      "v": 127
    },
    {
      "midi": 33,
      "hit": false,
      "t": 66493.44000000013,
      "d": 183.98249999999825,
      "v": 91
    },
    {
      "midi": 59,
      "hit": false,
      "t": 66493.44000000015,
      "d": 75.75750000000698,
      "v": 67
    },
    {
      "midi": 59,
      "hit": false,
      "t": 66496.14562500003,
      "d": 327.38062500000524,
      "v": 82
    },
    {
      "midi": 71,
      "hit": false,
      "t": 66496.14562500003,
      "d": 367.9649999999965,
      "v": 82
    },
    {
      "midi": 76,
      "hit": false,
      "t": 66736.94624999998,
      "d": 67.640625,
      "v": 127
    },
    {
      "midi": 33,
      "hit": false,
      "t": 66753.18000000014,
      "d": 129.86999999999534,
      "v": 56
    },
    {
      "midi": 64,
      "hit": false,
      "t": 66753.18000000015,
      "d": 59.523749999993015,
      "v": 67
    },
    {
      "midi": 74,
      "hit": false,
      "t": 66866.81624999997,
      "d": 45.995624999995925,
      "v": 127
    },
    {
      "midi": 60,
      "hit": false,
      "t": 66869.52187500002,
      "d": 83.87437500001397,
      "v": 64
    },
    {
      "midi": 45,
      "hit": false,
      "t": 66874.93312500003,
      "d": 67.64062500001455,
      "v": 60
    },
    {
      "midi": 64,
      "hit": false,
      "t": 66880.34437500003,
      "d": 54.11250000000291,
      "v": 82
    },
    {
      "midi": 59,
      "hit": false,
      "t": 66880.34437500003,
      "d": 56.81812500000524,
      "v": 82
    },
    {
      "midi": 55,
      "hit": false,
      "t": 66880.34437500003,
      "d": 62.229375000009895,
      "v": 73
    },
    {
      "midi": 62,
      "hit": false,
      "t": 66883.05000000015,
      "d": 78.46312499999476,
      "v": 67
    },
    {
      "midi": 59,
      "hit": false,
      "t": 66885.75562500003,
      "d": 86.58000000000175,
      "v": 82
    },
    {
      "midi": 71,
      "hit": false,
      "t": 66885.75562500003,
      "d": 89.28562500000407,
      "v": 91
    },
    {
      "midi": 55,
      "hit": false,
      "t": 66885.75562500003,
      "d": 108.22500000000582,
      "v": 91
    },
    {
      "midi": 33,
      "hit": false,
      "t": 66891.16687500014,
      "d": 54.11250000000291,
      "v": 87
    },
    {
      "midi": 36,
      "hit": false,
      "t": 67012.92000000014,
      "d": 175.86562500000582,
      "v": 86
    },
    {
      "midi": 74,
      "hit": false,
      "t": 67131.96749999997,
      "d": 73.05187500000466,
      "v": 127
    },
    {
      "midi": 67,
      "hit": false,
      "t": 67142.79000000014,
      "d": 56.81812500000524,
      "v": 67
    },
    {
      "midi": 71,
      "hit": false,
      "t": 67264.54312499997,
      "d": 51.40687500000058,
      "v": 127
    },
    {
      "midi": 64,
      "hit": false,
      "t": 67272.66000000015,
      "d": 51.40687500000058,
      "v": 67
    },
    {
      "midi": 36,
      "hit": false,
      "t": 67272.66000000015,
      "d": 35.173125000001164,
      "v": 70
    },
    {
      "midi": 59,
      "hit": false,
      "t": 67402.53000000014,
      "d": 48.701249999998254,
      "v": 67
    },
    {
      "midi": 36,
      "hit": false,
      "t": 67410.64687500015,
      "d": 54.11250000000291,
      "v": 90
    },
    {
      "midi": 69,
      "hit": false,
      "t": 67532.40000000014,
      "d": 54.11250000000291,
      "v": 67
    },
    {
      "midi": 40,
      "hit": false,
      "t": 67532.40000000015,
      "d": 175.86562500000582,
      "v": 86
    },
    {
      "midi": 69,
      "hit": false,
      "t": 67535.10562499997,
      "d": 54.11250000000291,
      "v": 127
    },
    {
      "midi": 71,
      "hit": false,
      "t": 67659.56437499997,
      "d": 62.22937499999534,
      "v": 127
    },
    {
      "midi": 64,
      "hit": false,
      "t": 67662.27000000015,
      "d": 51.40687500000058,
      "v": 67
    },
    {
      "midi": 59,
      "hit": false,
      "t": 67792.14000000014,
      "d": 59.523749999993015,
      "v": 67
    },
    {
      "midi": 40,
      "hit": false,
      "t": 67792.14000000016,
      "d": 35.173125000001164,
      "v": 70
    },
    {
      "midi": 67,
      "hit": false,
      "t": 67794.84562499997,
      "d": 37.87875000000349,
      "v": 127
    },
    {
      "midi": 60,
      "hit": false,
      "t": 67922.01000000014,
      "d": 51.40687500000058,
      "v": 67
    },
    {
      "midi": 40,
      "hit": false,
      "t": 67930.12687500016,
      "d": 54.11250000000291,
      "v": 90
    },
    {
      "midi": 64,
      "hit": false,
      "t": 68049.17437499997,
      "d": 67.640625,
      "v": 127
    },
    {
      "midi": 55,
      "hit": false,
      "t": 68051.88000000014,
      "d": 56.81812500000524,
      "v": 67
    },
    {
      "midi": 45,
      "hit": false,
      "t": 68051.88000000016,
      "d": 129.86999999999534,
      "v": 73
    },
    {
      "midi": 59,
      "hit": false,
      "t": 68181.75000000015,
      "d": 54.11250000000291,
      "v": 67
    },
    {
      "midi": 60,
      "hit": false,
      "t": 68311.62000000016,
      "d": 59.523749999993015,
      "v": 67
    },
    {
      "midi": 45,
      "hit": false,
      "t": 68311.62000000016,
      "d": 37.87875000000349,
      "v": 61
    },
    {
      "midi": 64,
      "hit": false,
      "t": 68441.49000000015,
      "d": 64.93499999999767,
      "v": 67
    },
    {
      "midi": 45,
      "hit": false,
      "t": 68441.49000000017,
      "d": 81.16874999999709,
      "v": 78
    },
    {
      "midi": 47,
      "hit": false,
      "t": 68565.94875000004,
      "d": 332.79187499999534,
      "v": 67
    },
    {
      "midi": 57,
      "hit": false,
      "t": 68568.65437500004,
      "d": 313.8524999999936,
      "v": 82
    },
    {
      "midi": 63,
      "hit": false,
      "t": 68568.65437500004,
      "d": 332.79187499999534,
      "v": 60
    },
    {
      "midi": 67,
      "hit": false,
      "t": 68568.65437500004,
      "d": 332.79187499999534,
      "v": 81
    },
    {
      "midi": 47,
      "hit": false,
      "t": 68571.35999999997,
      "d": 259.74000000000524,
      "v": 127
    },
    {
      "midi": 57,
      "hit": false,
      "t": 68571.35999999997,
      "d": 259.74000000000524,
      "v": 127
    },
    {
      "midi": 66,
      "hit": false,
      "t": 68571.36000000015,
      "d": 51.40687500000058,
      "v": 67
    },
    {
      "midi": 35,
      "hit": false,
      "t": 68571.36000000016,
      "d": 183.98249999999825,
      "v": 91
    },
    {
      "midi": 63,
      "hit": false,
      "t": 68574.06562499997,
      "d": 270.56250000001455,
      "v": 127
    },
    {
      "midi": 71,
      "hit": false,
      "t": 68576.77124999998,
      "d": 246.2118749999936,
      "v": 127
    },
    {
      "midi": 62,
      "hit": false,
      "t": 68576.77124999998,
      "d": 257.0343750000029,
      "v": 127
    },
    {
      "midi": 67,
      "hit": false,
      "t": 68576.77124999998,
      "d": 259.74000000000524,
      "v": 127
    },
    {
      "midi": 59,
      "hit": false,
      "t": 68701.23000000014,
      "d": 59.523749999993015,
      "v": 67
    },
    {
      "midi": 63,
      "hit": false,
      "t": 68831.10000000014,
      "d": 59.523749999993015,
      "v": 67
    },
    {
      "midi": 35,
      "hit": false,
      "t": 68831.10000000017,
      "d": 129.86999999999534,
      "v": 56
    },
    {
      "midi": 47,
      "hit": false,
      "t": 68952.853125,
      "d": 54.11250000000291,
      "v": 127
    },
    {
      "midi": 57,
      "hit": false,
      "t": 68952.853125,
      "d": 54.11250000000291,
      "v": 127
    },
    {
      "midi": 63,
      "hit": false,
      "t": 68955.55875,
      "d": 56.81812500000524,
      "v": 127
    },
    {
      "midi": 62,
      "hit": false,
      "t": 68955.55875,
      "d": 59.52375000000757,
      "v": 127
    },
    {
      "midi": 67,
      "hit": false,
      "t": 68958.264375,
      "d": 54.11250000000291,
      "v": 127
    },
    {
      "midi": 47,
      "hit": false,
      "t": 68958.26437500004,
      "d": 83.87437499999942,
      "v": 73
    },
    {
      "midi": 67,
      "hit": false,
      "t": 68958.26437500004,
      "d": 83.87437499999942,
      "v": 64
    },
    {
      "midi": 57,
      "hit": false,
      "t": 68958.26437500004,
      "d": 102.81375000000116,
      "v": 73
    },
    {
      "midi": 71,
      "hit": false,
      "t": 68960.97,
      "d": 59.52375000000757,
      "v": 127
    },
    {
      "midi": 63,
      "hit": false,
      "t": 68960.97000000004,
      "d": 91.99124999999185,
      "v": 60
    },
    {
      "midi": 35,
      "hit": false,
      "t": 68969.08687500017,
      "d": 54.11250000000291,
      "v": 87
    },
    {
      "midi": 59,
      "hit": false,
      "t": 69090.84000000013,
      "d": 51.40687500000058,
      "v": 67
    },
    {
      "midi": 39,
      "hit": false,
      "t": 69090.84000000017,
      "d": 175.86562500000582,
      "v": 86
    },
    {
      "midi": 63,
      "hit": false,
      "t": 69220.71000000012,
      "d": 56.81812500000524,
      "v": 67
    },
    {
      "midi": 59,
      "hit": false,
      "t": 69350.58000000013,
      "d": 51.40687500000058,
      "v": 67
    },
    {
      "midi": 39,
      "hit": false,
      "t": 69350.58000000018,
      "d": 35.173125000001164,
      "v": 70
    },
    {
      "midi": 63,
      "hit": false,
      "t": 69480.45000000013,
      "d": 51.40687500000058,
      "v": 67
    },
    {
      "midi": 39,
      "hit": false,
      "t": 69488.56687500018,
      "d": 54.11250000000291,
      "v": 90
    },
    {
      "midi": 67,
      "hit": false,
      "t": 69607.61437500003,
      "d": 219.15562499999942,
      "v": 73
    },
    {
      "midi": 55,
      "hit": false,
      "t": 69607.61437500003,
      "d": 224.56687500000407,
      "v": 91
    },
    {
      "midi": 59,
      "hit": false,
      "t": 69610.32000000012,
      "d": 54.11250000000291,
      "v": 67
    },
    {
      "midi": 42,
      "hit": false,
      "t": 69610.32000000018,
      "d": 175.86562500000582,
      "v": 86
    },
    {
      "midi": 57,
      "hit": false,
      "t": 69740.19000000013,
      "d": 59.523749999993015,
      "v": 67
    },
    {
      "midi": 64,
      "hit": false,
      "t": 69867.35437500004,
      "d": 219.15562499999942,
      "v": 73
    },
    {
      "midi": 52,
      "hit": false,
      "t": 69867.35437500004,
      "d": 224.56687500000407,
      "v": 82
    },
    {
      "midi": 55,
      "hit": false,
      "t": 69870.06000000013,
      "d": 59.523749999993015,
      "v": 67
    },
    {
      "midi": 42,
      "hit": false,
      "t": 69870.06000000019,
      "d": 35.173125000001164,
      "v": 70
    },
    {
      "midi": 57,
      "hit": false,
      "t": 69999.93000000012,
      "d": 51.40687500000058,
      "v": 67
    },
    {
      "midi": 42,
      "hit": false,
      "t": 70008.04687500019,
      "d": 54.11250000000291,
      "v": 90
    },
    {
      "midi": 50,
      "hit": false,
      "t": 70127.09437500004,
      "d": 202.921875,
      "v": 82
    },
    {
      "midi": 62,
      "hit": false,
      "t": 70127.09437500004,
      "d": 232.6837499999965,
      "v": 73
    },
    {
      "midi": 59,
      "hit": false,
      "t": 70129.80000000012,
      "d": 59.523749999993015,
      "v": 67
    },
    {
      "midi": 47,
      "hit": false,
      "t": 70129.80000000019,
      "d": 129.86999999999534,
      "v": 73
    },
    {
      "midi": 55,
      "hit": false,
      "t": 70259.67000000011,
      "d": 59.523749999993015,
      "v": 67
    },
    {
      "midi": 52,
      "hit": false,
      "t": 70386.83437500003,
      "d": 771.1031250000087,
      "v": 91
    },
    {
      "midi": 52,
      "hit": false,
      "t": 70389.54000000011,
      "d": 59.523749999993015,
      "v": 67
    },
    {
      "midi": 47,
      "hit": false,
      "t": 70389.54000000018,
      "d": 37.87875000000349,
      "v": 61
    },
    {
      "midi": 64,
      "hit": false,
      "t": 70392.24562500004,
      "d": 760.2806249999994,
      "v": 82
    },
    {
      "midi": 47,
      "hit": false,
      "t": 70519.41000000019,
      "d": 81.16874999999709,
      "v": 78
    },
    {
      "midi": 68,
      "hit": false,
      "t": 70630.34062500004,
      "d": 830.6268750000163,
      "v": 48
    },
    {
      "midi": 64,
      "hit": false,
      "t": 70633.04625000004,
      "d": 806.2762500000099,
      "v": 64
    },
    {
      "midi": 52,
      "hit": false,
      "t": 70635.75187500005,
      "d": 781.9256250000035,
      "v": 82
    },
    {
      "midi": 56,
      "hit": false,
      "t": 70643.86875000005,
      "d": 781.9256250000035,
      "v": 84
    },
    {
      "midi": 52,
      "hit": false,
      "t": 70649.2800000001,
      "d": 56.81812500000524,
      "v": 67
    },
    {
      "midi": 28,
      "hit": false,
      "t": 70649.28000000019,
      "d": 183.98249999999825,
      "v": 91
    },
    {
      "midi": 52,
      "hit": false,
      "t": 70779.15000000011,
      "d": 54.11250000000291,
      "v": 67
    },
    {
      "midi": 54,
      "hit": false,
      "t": 70909.02000000012,
      "d": 54.11250000000291,
      "v": 67
    },
    {
      "midi": 28,
      "hit": false,
      "t": 70909.0200000002,
      "d": 73.05187500000466,
      "v": 56
    },
    {
      "midi": 52,
      "hit": false,
      "t": 71038.89000000013,
      "d": 64.93499999999767,
      "v": 67
    },
    {
      "midi": 28,
      "hit": false,
      "t": 71047.0068750002,
      "d": 54.11250000000291,
      "v": 87
    },
    {
      "midi": 55,
      "hit": false,
      "t": 71168.76000000013,
      "d": 54.11250000000291,
      "v": 67
    },
    {
      "midi": 28,
      "hit": false,
      "t": 71168.7600000002,
      "d": 178.5712499999936,
      "v": 73
    },
    {
      "midi": 54,
      "hit": false,
      "t": 71298.63000000014,
      "d": 43.2899999999936,
      "v": 67
    },
    {
      "midi": 57,
      "hit": false,
      "t": 71414.97187500005,
      "d": 800.8650000000052,
      "v": 73
    },
    {
      "midi": 69,
      "hit": false,
      "t": 71423.08875000005,
      "d": 760.2806249999994,
      "v": 62
    },
    {
      "midi": 62,
      "hit": false,
      "t": 71425.79437500006,
      "d": 790.0424999999959,
      "v": 56
    },
    {
      "midi": 50,
      "hit": false,
      "t": 71425.79437500006,
      "d": 792.7481249999983,
      "v": 82
    },
    {
      "midi": 57,
      "hit": false,
      "t": 71428.50000000013,
      "d": 54.11250000000291,
      "v": 67
    },
    {
      "midi": 38,
      "hit": false,
      "t": 71428.50000000019,
      "d": 94.69687499999418,
      "v": 101
    },
    {
      "midi": 55,
      "hit": false,
      "t": 71558.37000000014,
      "d": 43.2899999999936,
      "v": 67
    },
    {
      "midi": 38,
      "hit": false,
      "t": 71566.48687500018,
      "d": 110.9306249999936,
      "v": 69
    },
    {
      "midi": 59,
      "hit": false,
      "t": 71688.24000000014,
      "d": 64.93499999999767,
      "v": 67
    },
    {
      "midi": 38,
      "hit": false,
      "t": 71688.24000000017,
      "d": 127.16437499999302,
      "v": 91
    },
    {
      "midi": 52,
      "hit": false,
      "t": 72207.72000000016,
      "d": 100.10812500001339,
      "v": 100
    },
    {
      "midi": 54,
      "hit": false,
      "t": 72283.47750000017,
      "d": 100.10812500001339,
      "v": 73
    },
    {
      "midi": 52,
      "hit": false,
      "t": 72343.00125000018,
      "d": 135.28125000001455,
      "v": 52
    },
    {
      "midi": 50,
      "hit": false,
      "t": 72380.88000000018,
      "d": 156.92625000001863,
      "v": 49
    },
    {
      "midi": 48,
      "hit": false,
      "t": 72491.8106250002,
      "d": 105.51937500000349,
      "v": 49
    },
    {
      "midi": 47,
      "hit": false,
      "t": 72540.5118750002,
      "d": 91.99125000002095,
      "v": 46
    },
    {
      "midi": 45,
      "hit": false,
      "t": 72591.9187500002,
      "d": 73.05187500003376,
      "v": 46
    },
    {
      "midi": 43,
      "hit": false,
      "t": 72627.09187500022,
      "d": 78.46312500002387,
      "v": 43
    },
    {
      "midi": 41,
      "hit": false,
      "t": 72640.62000000023,
      "d": 78.46312500000931,
      "v": 40
    },
    {
      "midi": 40,
      "hit": false,
      "t": 72673.08750000024,
      "d": 81.16874999999709,
      "v": 38
    },
    {
      "midi": 38,
      "hit": false,
      "t": 72683.91000000024,
      "d": 78.46312500000931,
      "v": 37
    },
    {
      "midi": 36,
      "hit": false,
      "t": 72705.55500000024,
      "d": 81.16875000001164,
      "v": 33
    },
    {
      "midi": 35,
      "hit": false,
      "t": 72721.78875000024,
      "d": 78.46312500000931,
      "v": 26
    },
    {
      "midi": 55,
      "hit": false,
      "t": 72724.49437500004,
      "d": 457.2506250000006,
      "v": 87
    },
    {
      "midi": 59,
      "hit": false,
      "t": 72724.49437500004,
      "d": 465.36750000000757,
      "v": 73
    },
    {
      "midi": 55,
      "hit": false,
      "t": 72727.19999999997,
      "d": 300.3243749999965,
      "v": 56
    },
    {
      "midi": 62,
      "hit": false,
      "t": 72727.19999999997,
      "d": 300.3243749999965,
      "v": 64
    },
    {
      "midi": 59,
      "hit": false,
      "t": 72727.19999999997,
      "d": 305.73562500000116,
      "v": 73
    },
    {
      "midi": 71,
      "hit": false,
      "t": 72727.2,
      "d": 5941.552500000005,
      "v": 78
    },
    {
      "midi": 55,
      "hit": false,
      "t": 72727.20000000013,
      "d": 146.10374999999476,
      "v": 67
    },
    {
      "midi": 43,
      "hit": false,
      "t": 72727.20000000013,
      "d": 278.67937499999243,
      "v": 67
    },
    {
      "midi": 62,
      "hit": false,
      "t": 72727.20000000013,
      "d": 292.2074999999895,
      "v": 67
    },
    {
      "midi": 59,
      "hit": false,
      "t": 72727.20000000013,
      "d": 303.0299999999843,
      "v": 67
    },
    {
      "midi": 31,
      "hit": false,
      "t": 72727.20000000024,
      "d": 183.98249999999825,
      "v": 91
    },
    {
      "midi": 55,
      "hit": false,
      "t": 72986.94000000012,
      "d": 51.40687500000058,
      "v": 67
    },
    {
      "midi": 31,
      "hit": false,
      "t": 72986.94000000025,
      "d": 108.22500000000582,
      "v": 56
    },
    {
      "midi": 55,
      "hit": false,
      "t": 73116.81000000011,
      "d": 45.995624999995925,
      "v": 67
    },
    {
      "midi": 62,
      "hit": false,
      "t": 73116.81000000011,
      "d": 51.40687500000058,
      "v": 67
    },
    {
      "midi": 59,
      "hit": false,
      "t": 73116.81000000011,
      "d": 56.81812500000524,
      "v": 67
    },
    {
      "midi": 31,
      "hit": false,
      "t": 73124.92687500025,
      "d": 54.11250000000291,
      "v": 87
    },
    {
      "midi": 35,
      "hit": false,
      "t": 73246.68000000025,
      "d": 129.86999999999534,
      "v": 73
    },
    {
      "midi": 55,
      "hit": false,
      "t": 73376.55000000012,
      "d": 43.2899999999936,
      "v": 65
    },
    {
      "midi": 59,
      "hit": false,
      "t": 73506.42000000011,
      "d": 37.87875000000349,
      "v": 67
    },
    {
      "midi": 62,
      "hit": false,
      "t": 73506.42000000011,
      "d": 56.81812500000524,
      "v": 67
    },
    {
      "midi": 35,
      "hit": false,
      "t": 73506.42000000025,
      "d": 146.10374999999476,
      "v": 87
    },
    {
      "midi": 43,
      "hit": false,
      "t": 73766.16000000012,
      "d": 29.761874999996508,
      "v": 67
    },
    {
      "midi": 38,
      "hit": false,
      "t": 73766.16000000024,
      "d": 175.86562500000582,
      "v": 86
    },
    {
      "midi": 55,
      "hit": false,
      "t": 73768.86562500005,
      "d": 330.086249999993,
      "v": 73
    },
    {
      "midi": 43,
      "hit": false,
      "t": 73896.03000000012,
      "d": 45.995624999995925,
      "v": 67
    },
    {
      "midi": 59,
      "hit": false,
      "t": 74025.90000000011,
      "d": 40.58437500000582,
      "v": 67
    },
    {
      "midi": 55,
      "hit": false,
      "t": 74025.90000000011,
      "d": 51.40687500000058,
      "v": 67
    },
    {
      "midi": 62,
      "hit": false,
      "t": 74025.90000000011,
      "d": 51.40687500000058,
      "v": 67
    },
    {
      "midi": 38,
      "hit": false,
      "t": 74025.90000000024,
      "d": 35.173125000001164,
      "v": 70
    },
    {
      "midi": 38,
      "hit": false,
      "t": 74163.88687500024,
      "d": 54.11250000000291,
      "v": 90
    },
    {
      "midi": 57,
      "hit": false,
      "t": 74282.93437500004,
      "d": 351.7312499999971,
      "v": 91
    },
    {
      "midi": 43,
      "hit": false,
      "t": 74285.64000000012,
      "d": 37.87875000000349,
      "v": 67
    },
    {
      "midi": 43,
      "hit": false,
      "t": 74285.64000000025,
      "d": 129.86999999999534,
      "v": 73
    },
    {
      "midi": 59,
      "hit": false,
      "t": 74415.51000000013,
      "d": 45.995624999995925,
      "v": 67
    },
    {
      "midi": 62,
      "hit": false,
      "t": 74415.51000000013,
      "d": 54.11250000000291,
      "v": 67
    },
    {
      "midi": 43,
      "hit": false,
      "t": 74545.38000000014,
      "d": 27.05624999999418,
      "v": 67
    },
    {
      "midi": 43,
      "hit": false,
      "t": 74545.38000000024,
      "d": 37.87875000000349,
      "v": 58
    },
    {
      "midi": 43,
      "hit": false,
      "t": 74675.25000000013,
      "d": 48.701249999998254,
      "v": 67
    },
    {
      "midi": 43,
      "hit": false,
      "t": 74675.25000000025,
      "d": 81.16874999999709,
      "v": 87
    },
    {
      "midi": 54,
      "hit": false,
      "t": 74802.41437500004,
      "d": 541.125,
      "v": 82
    },
    {
      "midi": 57,
      "hit": false,
      "t": 74805.11999999997,
      "d": 286.7962499999994,
      "v": 82
    },
    {
      "midi": 63,
      "hit": false,
      "t": 74805.11999999997,
      "d": 292.2075000000041,
      "v": 60
    },
    {
      "midi": 54,
      "hit": false,
      "t": 74805.11999999997,
      "d": 297.61875000000873,
      "v": 60
    },
    {
      "midi": 54,
      "hit": false,
      "t": 74805.12000000013,
      "d": 146.10374999999476,
      "v": 67
    },
    {
      "midi": 47,
      "hit": false,
      "t": 74805.12000000013,
      "d": 278.67937499999243,
      "v": 67
    },
    {
      "midi": 63,
      "hit": false,
      "t": 74805.12000000013,
      "d": 292.2074999999895,
      "v": 67
    },
    {
      "midi": 59,
      "hit": false,
      "t": 74805.12000000013,
      "d": 303.0299999999843,
      "v": 67
    },
    {
      "midi": 35,
      "hit": false,
      "t": 74805.12000000024,
      "d": 183.98249999999825,
      "v": 91
    },
    {
      "midi": 54,
      "hit": false,
      "t": 75064.86000000012,
      "d": 51.40687500000058,
      "v": 67
    },
    {
      "midi": 35,
      "hit": false,
      "t": 75064.86000000025,
      "d": 129.86999999999534,
      "v": 56
    },
    {
      "midi": 54,
      "hit": false,
      "t": 75194.73000000011,
      "d": 45.995624999995925,
      "v": 67
    },
    {
      "midi": 63,
      "hit": false,
      "t": 75194.73000000011,
      "d": 51.40687500000058,
      "v": 67
    },
    {
      "midi": 59,
      "hit": false,
      "t": 75194.73000000011,
      "d": 56.81812500000524,
      "v": 67
    },
    {
      "midi": 35,
      "hit": false,
      "t": 75202.84687500025,
      "d": 54.11250000000291,
      "v": 87
    },
    {
      "midi": 39,
      "hit": false,
      "t": 75324.60000000025,
      "d": 129.86999999999534,
      "v": 73
    },
    {
      "midi": 54,
      "hit": false,
      "t": 75454.47000000012,
      "d": 43.2899999999936,
      "v": 65
    },
    {
      "midi": 59,
      "hit": false,
      "t": 75581.63437500004,
      "d": 313.8524999999936,
      "v": 91
    },
    {
      "midi": 59,
      "hit": false,
      "t": 75584.34000000011,
      "d": 37.87875000000349,
      "v": 67
    },
    {
      "midi": 63,
      "hit": false,
      "t": 75584.34000000011,
      "d": 56.81812500000524,
      "v": 67
    },
    {
      "midi": 39,
      "hit": false,
      "t": 75584.34000000024,
      "d": 146.10374999999476,
      "v": 87
    },
    {
      "midi": 47,
      "hit": false,
      "t": 75844.08000000012,
      "d": 29.761874999996508,
      "v": 67
    },
    {
      "midi": 42,
      "hit": false,
      "t": 75844.08000000023,
      "d": 175.86562500000582,
      "v": 86
    },
    {
      "midi": 47,
      "hit": false,
      "t": 75973.95000000011,
      "d": 45.995624999995925,
      "v": 67
    },
    {
      "midi": 57,
      "hit": false,
      "t": 76101.11437500003,
      "d": 346.320000000007,
      "v": 91
    },
    {
      "midi": 59,
      "hit": false,
      "t": 76103.82000000011,
      "d": 40.58437500000582,
      "v": 67
    },
    {
      "midi": 54,
      "hit": false,
      "t": 76103.82000000011,
      "d": 51.40687500000058,
      "v": 67
    },
    {
      "midi": 63,
      "hit": false,
      "t": 76103.82000000011,
      "d": 51.40687500000058,
      "v": 67
    },
    {
      "midi": 42,
      "hit": false,
      "t": 76103.82000000024,
      "d": 35.173125000001164,
      "v": 70
    },
    {
      "midi": 42,
      "hit": false,
      "t": 76241.80687500024,
      "d": 54.11250000000291,
      "v": 90
    },
    {
      "midi": 47,
      "hit": false,
      "t": 76363.56000000011,
      "d": 37.87875000000349,
      "v": 67
    },
    {
      "midi": 47,
      "hit": false,
      "t": 76363.56000000025,
      "d": 129.86999999999534,
      "v": 73
    },
    {
      "midi": 59,
      "hit": false,
      "t": 76493.43000000012,
      "d": 45.995624999995925,
      "v": 67
    },
    {
      "midi": 63,
      "hit": false,
      "t": 76493.43000000012,
      "d": 54.11250000000291,
      "v": 67
    },
    {
      "midi": 55,
      "hit": false,
      "t": 76620.59437500004,
      "d": 1293.288750000007,
      "v": 91
    },
    {
      "midi": 47,
      "hit": false,
      "t": 76623.30000000013,
      "d": 27.05624999999418,
      "v": 67
    },
    {
      "midi": 47,
      "hit": false,
      "t": 76623.30000000024,
      "d": 37.87875000000349,
      "v": 61
    },
    {
      "midi": 47,
      "hit": false,
      "t": 76753.17000000013,
      "d": 48.701249999998254,
      "v": 67
    },
    {
      "midi": 47,
      "hit": false,
      "t": 76753.17000000025,
      "d": 81.16874999999709,
      "v": 78
    },
    {
      "midi": 55,
      "hit": false,
      "t": 76883.03999999998,
      "d": 300.3243749999965,
      "v": 64
    },
    {
      "midi": 59,
      "hit": false,
      "t": 76883.03999999998,
      "d": 300.3243749999965,
      "v": 73
    },
    {
      "midi": 64,
      "hit": false,
      "t": 76883.03999999998,
      "d": 303.02999999999884,
      "v": 60
    },
    {
      "midi": 55,
      "hit": false,
      "t": 76883.04000000012,
      "d": 146.10374999999476,
      "v": 67
    },
    {
      "midi": 52,
      "hit": false,
      "t": 76883.04000000012,
      "d": 278.67937499999243,
      "v": 67
    },
    {
      "midi": 64,
      "hit": false,
      "t": 76883.04000000012,
      "d": 292.2074999999895,
      "v": 67
    },
    {
      "midi": 59,
      "hit": false,
      "t": 76883.04000000012,
      "d": 303.0299999999843,
      "v": 67
    },
    {
      "midi": 28,
      "hit": false,
      "t": 76883.04000000024,
      "d": 183.98249999999825,
      "v": 91
    },
    {
      "midi": 55,
      "hit": false,
      "t": 77142.78000000012,
      "d": 51.40687500000058,
      "v": 67
    },
    {
      "midi": 28,
      "hit": false,
      "t": 77142.78000000025,
      "d": 129.86999999999534,
      "v": 56
    },
    {
      "midi": 55,
      "hit": false,
      "t": 77272.65000000011,
      "d": 45.995624999995925,
      "v": 67
    },
    {
      "midi": 64,
      "hit": false,
      "t": 77272.65000000011,
      "d": 51.40687500000058,
      "v": 67
    },
    {
      "midi": 59,
      "hit": false,
      "t": 77272.65000000011,
      "d": 56.81812500000524,
      "v": 67
    },
    {
      "midi": 28,
      "hit": false,
      "t": 77280.76687500025,
      "d": 54.11250000000291,
      "v": 87
    },
    {
      "midi": 31,
      "hit": false,
      "t": 77402.52000000025,
      "d": 175.86562500000582,
      "v": 86
    },
    {
      "midi": 55,
      "hit": false,
      "t": 77532.39000000012,
      "d": 43.2899999999936,
      "v": 65
    },
    {
      "midi": 59,
      "hit": false,
      "t": 77662.26000000011,
      "d": 37.87875000000349,
      "v": 67
    },
    {
      "midi": 64,
      "hit": false,
      "t": 77662.26000000011,
      "d": 56.81812500000524,
      "v": 67
    },
    {
      "midi": 31,
      "hit": false,
      "t": 77662.26000000026,
      "d": 35.173125000001164,
      "v": 70
    },
    {
      "midi": 31,
      "hit": false,
      "t": 77800.24687500026,
      "d": 54.11250000000291,
      "v": 90
    },
    {
      "midi": 52,
      "hit": false,
      "t": 77922.00000000012,
      "d": 29.761874999996508,
      "v": 67
    },
    {
      "midi": 35,
      "hit": false,
      "t": 77922.00000000026,
      "d": 175.86562500000582,
      "v": 86
    },
    {
      "midi": 52,
      "hit": false,
      "t": 78051.87000000011,
      "d": 45.995624999995925,
      "v": 67
    },
    {
      "midi": 57,
      "hit": false,
      "t": 78179.03437500005,
      "d": 316.5581249999959,
      "v": 82
    },
    {
      "midi": 59,
      "hit": false,
      "t": 78181.73999999998,
      "d": 54.11250000000291,
      "v": 56
    },
    {
      "midi": 64,
      "hit": false,
      "t": 78181.73999999998,
      "d": 59.52375000000757,
      "v": 48
    },
    {
      "midi": 59,
      "hit": false,
      "t": 78181.7400000001,
      "d": 40.58437500000582,
      "v": 67
    },
    {
      "midi": 55,
      "hit": false,
      "t": 78181.7400000001,
      "d": 51.40687500000058,
      "v": 67
    },
    {
      "midi": 64,
      "hit": false,
      "t": 78181.7400000001,
      "d": 51.40687500000058,
      "v": 67
    },
    {
      "midi": 35,
      "hit": false,
      "t": 78181.74000000027,
      "d": 35.173125000001164,
      "v": 70
    },
    {
      "midi": 35,
      "hit": false,
      "t": 78319.72687500027,
      "d": 54.11250000000291,
      "v": 90
    },
    {
      "midi": 52,
      "hit": false,
      "t": 78441.48000000011,
      "d": 37.87875000000349,
      "v": 67
    },
    {
      "midi": 40,
      "hit": false,
      "t": 78441.48000000027,
      "d": 129.86999999999534,
      "v": 73
    },
    {
      "midi": 59,
      "hit": false,
      "t": 78571.34999999998,
      "d": 48.701249999998254,
      "v": 64
    },
    {
      "midi": 64,
      "hit": false,
      "t": 78571.34999999998,
      "d": 62.22937499999534,
      "v": 60
    },
    {
      "midi": 59,
      "hit": false,
      "t": 78571.35000000012,
      "d": 45.995624999995925,
      "v": 67
    },
    {
      "midi": 64,
      "hit": false,
      "t": 78571.35000000012,
      "d": 54.11250000000291,
      "v": 67
    },
    {
      "midi": 59,
      "hit": false,
      "t": 78574.05562500004,
      "d": 297.6187499999942,
      "v": 91
    },
    {
      "midi": 69,
      "hit": false,
      "t": 78676.86937500001,
      "d": 148.8093749999971,
      "v": 73
    },
    {
      "midi": 52,
      "hit": false,
      "t": 78701.22000000013,
      "d": 27.05624999999418,
      "v": 67
    },
    {
      "midi": 40,
      "hit": false,
      "t": 78701.22000000026,
      "d": 37.87875000000349,
      "v": 61
    },
    {
      "midi": 71,
      "hit": false,
      "t": 78790.505625,
      "d": 127.16437500000757,
      "v": 81
    },
    {
      "midi": 52,
      "hit": false,
      "t": 78831.09000000013,
      "d": 48.701249999998254,
      "v": 67
    },
    {
      "midi": 40,
      "hit": false,
      "t": 78831.09000000027,
      "d": 81.16874999999709,
      "v": 78
    },
    {
      "midi": 72,
      "hit": false,
      "t": 78893.319375,
      "d": 2159.08875000001,
      "v": 78
    },
    {
      "midi": 55,
      "hit": false,
      "t": 78960.95999999998,
      "d": 313.8524999999936,
      "v": 64
    },
    {
      "midi": 59,
      "hit": false,
      "t": 78960.95999999998,
      "d": 313.8524999999936,
      "v": 73
    },
    {
      "midi": 64,
      "hit": false,
      "t": 78960.95999999998,
      "d": 316.5581249999959,
      "v": 64
    },
    {
      "midi": 55,
      "hit": false,
      "t": 78960.96000000012,
      "d": 146.10374999999476,
      "v": 67
    },
    {
      "midi": 48,
      "hit": false,
      "t": 78960.96000000012,
      "d": 278.67937499999243,
      "v": 67
    },
    {
      "midi": 64,
      "hit": false,
      "t": 78960.96000000012,
      "d": 292.2074999999895,
      "v": 67
    },
    {
      "midi": 60,
      "hit": false,
      "t": 78960.96000000012,
      "d": 303.0299999999843,
      "v": 67
    },
    {
      "midi": 36,
      "hit": false,
      "t": 78960.96000000027,
      "d": 183.98249999999825,
      "v": 91
    },
    {
      "midi": 60,
      "hit": false,
      "t": 78963.66562500004,
      "d": 435.6056249999965,
      "v": 91
    },
    {
      "midi": 55,
      "hit": false,
      "t": 79220.70000000011,
      "d": 51.40687500000058,
      "v": 67
    },
    {
      "midi": 36,
      "hit": false,
      "t": 79220.70000000027,
      "d": 127.16437499999302,
      "v": 56
    },
    {
      "midi": 55,
      "hit": false,
      "t": 79350.57000000011,
      "d": 45.995624999995925,
      "v": 67
    },
    {
      "midi": 64,
      "hit": false,
      "t": 79350.57000000011,
      "d": 51.40687500000058,
      "v": 67
    },
    {
      "midi": 60,
      "hit": false,
      "t": 79350.57000000011,
      "d": 56.81812500000524,
      "v": 67
    },
    {
      "midi": 36,
      "hit": false,
      "t": 79358.68687500026,
      "d": 54.11250000000291,
      "v": 87
    },
    {
      "midi": 55,
      "hit": false,
      "t": 79477.73437500003,
      "d": 224.56687500000407,
      "v": 82
    },
    {
      "midi": 40,
      "hit": false,
      "t": 79480.44000000026,
      "d": 129.86999999999534,
      "v": 73
    },
    {
      "midi": 55,
      "hit": false,
      "t": 79610.31000000011,
      "d": 43.2899999999936,
      "v": 65
    },
    {
      "midi": 60,
      "hit": false,
      "t": 79737.47437500003,
      "d": 441.01687500000116,
      "v": 91
    },
    {
      "midi": 60,
      "hit": false,
      "t": 79740.18000000011,
      "d": 37.87875000000349,
      "v": 67
    },
    {
      "midi": 64,
      "hit": false,
      "t": 79740.18000000011,
      "d": 56.81812500000524,
      "v": 67
    },
    {
      "midi": 40,
      "hit": false,
      "t": 79740.18000000025,
      "d": 127.16437499999302,
      "v": 56
    },
    {
      "midi": 40,
      "hit": false,
      "t": 79878.16687500024,
      "d": 54.11250000000291,
      "v": 87
    },
    {
      "midi": 48,
      "hit": false,
      "t": 79999.92000000011,
      "d": 29.761874999996508,
      "v": 67
    },
    {
      "midi": 43,
      "hit": false,
      "t": 79999.92000000025,
      "d": 175.86562500000582,
      "v": 86
    },
    {
      "midi": 48,
      "hit": false,
      "t": 80129.79000000011,
      "d": 45.995624999995925,
      "v": 67
    },
    {
      "midi": 62,
      "hit": false,
      "t": 80256.95437500003,
      "d": 484.30687499999476,
      "v": 82
    },
    {
      "midi": 64,
      "hit": false,
      "t": 80259.65999999997,
      "d": 70.34625000000233,
      "v": 56
    },
    {
      "midi": 60,
      "hit": false,
      "t": 80259.65999999997,
      "d": 86.58000000000175,
      "v": 60
    },
    {
      "midi": 60,
      "hit": false,
      "t": 80259.6600000001,
      "d": 40.58437500000582,
      "v": 67
    },
    {
      "midi": 55,
      "hit": false,
      "t": 80259.6600000001,
      "d": 51.40687500000058,
      "v": 67
    },
    {
      "midi": 64,
      "hit": false,
      "t": 80259.6600000001,
      "d": 51.40687500000058,
      "v": 67
    },
    {
      "midi": 43,
      "hit": false,
      "t": 80259.66000000025,
      "d": 35.173125000001164,
      "v": 70
    },
    {
      "midi": 43,
      "hit": false,
      "t": 80397.64687500025,
      "d": 54.11250000000291,
      "v": 90
    },
    {
      "midi": 55,
      "hit": false,
      "t": 80519.39999999998,
      "d": 121.75312500000291,
      "v": 52
    },
    {
      "midi": 48,
      "hit": false,
      "t": 80519.40000000011,
      "d": 37.87875000000349,
      "v": 67
    },
    {
      "midi": 48,
      "hit": false,
      "t": 80519.40000000026,
      "d": 129.86999999999534,
      "v": 73
    },
    {
      "midi": 60,
      "hit": false,
      "t": 80649.26999999999,
      "d": 132.57562499999767,
      "v": 54
    },
    {
      "midi": 64,
      "hit": false,
      "t": 80649.26999999999,
      "d": 132.57562499999767,
      "v": 54
    },
    {
      "midi": 60,
      "hit": false,
      "t": 80649.27000000012,
      "d": 45.995624999995925,
      "v": 67
    },
    {
      "midi": 64,
      "hit": false,
      "t": 80649.27000000012,
      "d": 54.11250000000291,
      "v": 67
    },
    {
      "midi": 59,
      "hit": false,
      "t": 80776.43437500003,
      "d": 1101.1893750000017,
      "v": 91
    },
    {
      "midi": 48,
      "hit": false,
      "t": 80779.14000000013,
      "d": 27.05624999999418,
      "v": 67
    },
    {
      "midi": 48,
      "hit": false,
      "t": 80779.14000000025,
      "d": 37.87875000000349,
      "v": 61
    },
    {
      "midi": 48,
      "hit": false,
      "t": 80909.01000000013,
      "d": 48.701249999998254,
      "v": 67
    },
    {
      "midi": 48,
      "hit": false,
      "t": 80909.01000000026,
      "d": 81.16874999999709,
      "v": 78
    },
    {
      "midi": 71,
      "hit": false,
      "t": 81030.76312500001,
      "d": 6285.16687500001,
      "v": 81
    },
    {
      "midi": 55,
      "hit": false,
      "t": 81038.87999999999,
      "d": 300.3243749999965,
      "v": 56
    },
    {
      "midi": 62,
      "hit": false,
      "t": 81038.87999999999,
      "d": 300.3243749999965,
      "v": 64
    },
    {
      "midi": 59,
      "hit": false,
      "t": 81038.87999999999,
      "d": 305.73562500000116,
      "v": 73
    },
    {
      "midi": 55,
      "hit": false,
      "t": 81038.88000000012,
      "d": 146.10374999999476,
      "v": 67
    },
    {
      "midi": 43,
      "hit": false,
      "t": 81038.88000000012,
      "d": 278.67937499999243,
      "v": 67
    },
    {
      "midi": 62,
      "hit": false,
      "t": 81038.88000000012,
      "d": 292.2074999999895,
      "v": 67
    },
    {
      "midi": 59,
      "hit": false,
      "t": 81038.88000000012,
      "d": 303.0299999999843,
      "v": 67
    },
    {
      "midi": 31,
      "hit": false,
      "t": 81038.88000000025,
      "d": 183.98249999999825,
      "v": 91
    },
    {
      "midi": 55,
      "hit": false,
      "t": 81298.62000000011,
      "d": 51.40687500000058,
      "v": 67
    },
    {
      "midi": 31,
      "hit": false,
      "t": 81298.62000000026,
      "d": 108.22500000000582,
      "v": 56
    },
    {
      "midi": 55,
      "hit": false,
      "t": 81428.4900000001,
      "d": 45.995624999995925,
      "v": 67
    },
    {
      "midi": 62,
      "hit": false,
      "t": 81428.4900000001,
      "d": 51.40687500000058,
      "v": 67
    },
    {
      "midi": 59,
      "hit": false,
      "t": 81428.4900000001,
      "d": 56.81812500000524,
      "v": 67
    },
    {
      "midi": 31,
      "hit": false,
      "t": 81436.60687500026,
      "d": 54.11250000000291,
      "v": 87
    },
    {
      "midi": 35,
      "hit": false,
      "t": 81558.36000000026,
      "d": 129.86999999999534,
      "v": 73
    },
    {
      "midi": 55,
      "hit": false,
      "t": 81688.23000000011,
      "d": 43.2899999999936,
      "v": 65
    },
    {
      "midi": 59,
      "hit": false,
      "t": 81818.10000000011,
      "d": 37.87875000000349,
      "v": 67
    },
    {
      "midi": 62,
      "hit": false,
      "t": 81818.10000000011,
      "d": 56.81812500000524,
      "v": 67
    },
    {
      "midi": 35,
      "hit": false,
      "t": 81818.10000000025,
      "d": 37.87875000000349,
      "v": 58
    },
    {
      "midi": 35,
      "hit": false,
      "t": 81947.97000000026,
      "d": 81.16874999999709,
      "v": 87
    },
    {
      "midi": 59,
      "hit": false,
      "t": 82075.13437500002,
      "d": 416.66624999999476,
      "v": 82
    },
    {
      "midi": 43,
      "hit": false,
      "t": 82077.84000000011,
      "d": 29.761874999996508,
      "v": 67
    },
    {
      "midi": 38,
      "hit": false,
      "t": 82077.84000000026,
      "d": 175.86562500000582,
      "v": 86
    },
    {
      "midi": 43,
      "hit": false,
      "t": 82207.71000000011,
      "d": 45.995624999995925,
      "v": 67
    },
    {
      "midi": 59,
      "hit": false,
      "t": 82337.5800000001,
      "d": 40.58437500000582,
      "v": 67
    },
    {
      "midi": 55,
      "hit": false,
      "t": 82337.5800000001,
      "d": 51.40687500000058,
      "v": 67
    },
    {
      "midi": 62,
      "hit": false,
      "t": 82337.5800000001,
      "d": 51.40687500000058,
      "v": 67
    },
    {
      "midi": 38,
      "hit": false,
      "t": 82337.58000000026,
      "d": 35.173125000001164,
      "v": 70
    },
    {
      "midi": 38,
      "hit": false,
      "t": 82475.56687500027,
      "d": 54.11250000000291,
      "v": 90
    },
    {
      "midi": 62,
      "hit": false,
      "t": 82594.61437500002,
      "d": 438.31124999999884,
      "v": 100
    },
    {
      "midi": 43,
      "hit": false,
      "t": 82597.32000000011,
      "d": 37.87875000000349,
      "v": 67
    },
    {
      "midi": 43,
      "hit": false,
      "t": 82597.32000000027,
      "d": 129.86999999999534,
      "v": 73
    },
    {
      "midi": 64,
      "hit": false,
      "t": 82727.18999999999,
      "d": 51.40687500000058,
      "v": 56
    },
    {
      "midi": 67,
      "hit": false,
      "t": 82727.18999999999,
      "d": 56.81812500000524,
      "v": 64
    },
    {
      "midi": 59,
      "hit": false,
      "t": 82727.19000000012,
      "d": 45.995624999995925,
      "v": 67
    },
    {
      "midi": 62,
      "hit": false,
      "t": 82727.19000000012,
      "d": 54.11250000000291,
      "v": 67
    },
    {
      "midi": 43,
      "hit": false,
      "t": 82857.06000000013,
      "d": 27.05624999999418,
      "v": 67
    },
    {
      "midi": 43,
      "hit": false,
      "t": 82857.06000000026,
      "d": 37.87875000000349,
      "v": 58
    },
    {
      "midi": 43,
      "hit": false,
      "t": 82986.93000000012,
      "d": 48.701249999998254,
      "v": 67
    },
    {
      "midi": 43,
      "hit": false,
      "t": 82986.93000000027,
      "d": 81.16874999999709,
      "v": 87
    },
    {
      "midi": 63,
      "hit": false,
      "t": 83114.09437500002,
      "d": 481.601250000007,
      "v": 73
    },
    {
      "midi": 57,
      "hit": false,
      "t": 83116.79999999999,
      "d": 286.7962499999994,
      "v": 82
    },
    {
      "midi": 63,
      "hit": false,
      "t": 83116.79999999999,
      "d": 292.2075000000041,
      "v": 60
    },
    {
      "midi": 54,
      "hit": false,
      "t": 83116.79999999999,
      "d": 297.61875000000873,
      "v": 60
    },
    {
      "midi": 54,
      "hit": false,
      "t": 83116.80000000012,
      "d": 146.10374999999476,
      "v": 67
    },
    {
      "midi": 47,
      "hit": false,
      "t": 83116.80000000012,
      "d": 278.67937499999243,
      "v": 67
    },
    {
      "midi": 63,
      "hit": false,
      "t": 83116.80000000012,
      "d": 292.2074999999895,
      "v": 67
    },
    {
      "midi": 59,
      "hit": false,
      "t": 83116.80000000012,
      "d": 303.0299999999843,
      "v": 67
    },
    {
      "midi": 35,
      "hit": false,
      "t": 83116.80000000026,
      "d": 183.98249999999825,
      "v": 91
    },
    {
      "midi": 54,
      "hit": false,
      "t": 83376.54000000011,
      "d": 51.40687500000058,
      "v": 67
    },
    {
      "midi": 35,
      "hit": false,
      "t": 83376.54000000027,
      "d": 129.86999999999534,
      "v": 56
    },
    {
      "midi": 54,
      "hit": false,
      "t": 83506.4100000001,
      "d": 45.995624999995925,
      "v": 67
    },
    {
      "midi": 63,
      "hit": false,
      "t": 83506.4100000001,
      "d": 51.40687500000058,
      "v": 67
    },
    {
      "midi": 59,
      "hit": false,
      "t": 83506.4100000001,
      "d": 56.81812500000524,
      "v": 67
    },
    {
      "midi": 35,
      "hit": false,
      "t": 83514.52687500027,
      "d": 54.11250000000291,
      "v": 87
    },
    {
      "midi": 39,
      "hit": false,
      "t": 83636.28000000028,
      "d": 129.86999999999534,
      "v": 73
    },
    {
      "midi": 59,
      "hit": false,
      "t": 83638.98562500002,
      "d": 224.56687500000407,
      "v": 91
    },
    {
      "midi": 54,
      "hit": false,
      "t": 83766.15000000011,
      "d": 43.2899999999936,
      "v": 65
    },
    {
      "midi": 59,
      "hit": false,
      "t": 83896.0200000001,
      "d": 37.87875000000349,
      "v": 67
    },
    {
      "midi": 63,
      "hit": false,
      "t": 83896.0200000001,
      "d": 56.81812500000524,
      "v": 67
    },
    {
      "midi": 39,
      "hit": false,
      "t": 83896.02000000027,
      "d": 146.10374999999476,
      "v": 87
    },
    {
      "midi": 57,
      "hit": false,
      "t": 83898.72562500002,
      "d": 432.8999999999942,
      "v": 82
    },
    {
      "midi": 47,
      "hit": false,
      "t": 84155.76000000011,
      "d": 29.761874999996508,
      "v": 67
    },
    {
      "midi": 42,
      "hit": false,
      "t": 84155.76000000026,
      "d": 175.86562500000582,
      "v": 86
    },
    {
      "midi": 47,
      "hit": false,
      "t": 84285.6300000001,
      "d": 45.995624999995925,
      "v": 67
    },
    {
      "midi": 59,
      "hit": false,
      "t": 84412.79437500001,
      "d": 516.7743749999936,
      "v": 91
    },
    {
      "midi": 63,
      "hit": false,
      "t": 84415.5,
      "d": 73.05187500000466,
      "v": 60
    },
    {
      "midi": 66,
      "hit": false,
      "t": 84415.5,
      "d": 73.05187500000466,
      "v": 64
    },
    {
      "midi": 59,
      "hit": false,
      "t": 84415.5000000001,
      "d": 40.58437500000582,
      "v": 67
    },
    {
      "midi": 54,
      "hit": false,
      "t": 84415.5000000001,
      "d": 51.40687500000058,
      "v": 67
    },
    {
      "midi": 63,
      "hit": false,
      "t": 84415.5000000001,
      "d": 51.40687500000058,
      "v": 67
    },
    {
      "midi": 42,
      "hit": false,
      "t": 84415.50000000026,
      "d": 35.173125000001164,
      "v": 70
    },
    {
      "midi": 42,
      "hit": false,
      "t": 84553.48687500026,
      "d": 54.11250000000291,
      "v": 90
    },
    {
      "midi": 47,
      "hit": false,
      "t": 84675.2400000001,
      "d": 37.87875000000349,
      "v": 67
    },
    {
      "midi": 47,
      "hit": false,
      "t": 84675.24000000027,
      "d": 129.86999999999534,
      "v": 73
    },
    {
      "midi": 63,
      "hit": false,
      "t": 84805.11,
      "d": 62.22937499999534,
      "v": 56
    },
    {
      "midi": 67,
      "hit": false,
      "t": 84805.11,
      "d": 67.640625,
      "v": 64
    },
    {
      "midi": 59,
      "hit": false,
      "t": 84805.11,
      "d": 78.46312499999476,
      "v": 56
    },
    {
      "midi": 59,
      "hit": false,
      "t": 84805.11000000012,
      "d": 45.995624999995925,
      "v": 67
    },
    {
      "midi": 63,
      "hit": false,
      "t": 84805.11000000012,
      "d": 54.11250000000291,
      "v": 67
    },
    {
      "midi": 47,
      "hit": false,
      "t": 84934.98000000013,
      "d": 27.05624999999418,
      "v": 67
    },
    {
      "midi": 47,
      "hit": false,
      "t": 84934.98000000026,
      "d": 37.87875000000349,
      "v": 61
    },
    {
      "midi": 55,
      "hit": false,
      "t": 84937.68562500001,
      "d": 1287.8775000000023,
      "v": 82
    },
    {
      "midi": 47,
      "hit": false,
      "t": 85064.85000000012,
      "d": 48.701249999998254,
      "v": 67
    },
    {
      "midi": 47,
      "hit": false,
      "t": 85064.85000000027,
      "d": 81.16874999999709,
      "v": 78
    },
    {
      "midi": 55,
      "hit": false,
      "t": 85194.72,
      "d": 300.3243749999965,
      "v": 64
    },
    {
      "midi": 59,
      "hit": false,
      "t": 85194.72,
      "d": 300.3243749999965,
      "v": 73
    },
    {
      "midi": 64,
      "hit": false,
      "t": 85194.72,
      "d": 303.02999999999884,
      "v": 60
    },
    {
      "midi": 55,
      "hit": false,
      "t": 85194.72000000012,
      "d": 146.10374999999476,
      "v": 67
    },
    {
      "midi": 52,
      "hit": false,
      "t": 85194.72000000012,
      "d": 278.67937499999243,
      "v": 67
    },
    {
      "midi": 64,
      "hit": false,
      "t": 85194.72000000012,
      "d": 292.2074999999895,
      "v": 67
    },
    {
      "midi": 59,
      "hit": false,
      "t": 85194.72000000012,
      "d": 303.0299999999843,
      "v": 67
    },
    {
      "midi": 28,
      "hit": false,
      "t": 85194.72000000026,
      "d": 183.98249999999825,
      "v": 91
    },
    {
      "midi": 55,
      "hit": false,
      "t": 85454.46000000011,
      "d": 51.40687500000058,
      "v": 67
    },
    {
      "midi": 28,
      "hit": false,
      "t": 85454.46000000027,
      "d": 129.86999999999534,
      "v": 56
    },
    {
      "midi": 55,
      "hit": false,
      "t": 85584.3300000001,
      "d": 45.995624999995925,
      "v": 67
    },
    {
      "midi": 64,
      "hit": false,
      "t": 85584.3300000001,
      "d": 51.40687500000058,
      "v": 67
    },
    {
      "midi": 59,
      "hit": false,
      "t": 85584.3300000001,
      "d": 56.81812500000524,
      "v": 67
    },
    {
      "midi": 28,
      "hit": false,
      "t": 85592.44687500027,
      "d": 54.11250000000291,
      "v": 87
    },
    {
      "midi": 31,
      "hit": false,
      "t": 85714.20000000027,
      "d": 129.86999999999534,
      "v": 73
    },
    {
      "midi": 55,
      "hit": false,
      "t": 85844.07000000011,
      "d": 43.2899999999936,
      "v": 65
    },
    {
      "midi": 59,
      "hit": false,
      "t": 85973.9400000001,
      "d": 37.87875000000349,
      "v": 67
    },
    {
      "midi": 64,
      "hit": false,
      "t": 85973.9400000001,
      "d": 56.81812500000524,
      "v": 67
    },
    {
      "midi": 31,
      "hit": false,
      "t": 85973.94000000026,
      "d": 35.173125000001164,
      "v": 64
    },
    {
      "midi": 31,
      "hit": false,
      "t": 86111.92687500027,
      "d": 54.11250000000291,
      "v": 90
    },
    {
      "midi": 52,
      "hit": false,
      "t": 86233.68000000011,
      "d": 29.761874999996508,
      "v": 67
    },
    {
      "midi": 35,
      "hit": false,
      "t": 86233.68000000027,
      "d": 175.86562500000582,
      "v": 86
    },
    {
      "midi": 52,
      "hit": false,
      "t": 86363.5500000001,
      "d": 45.995624999995925,
      "v": 67
    },
    {
      "midi": 64,
      "hit": false,
      "t": 86493.42,
      "d": 51.40687500000058,
      "v": 44
    },
    {
      "midi": 59,
      "hit": false,
      "t": 86493.42,
      "d": 56.81812500000524,
      "v": 56
    },
    {
      "midi": 59,
      "hit": false,
      "t": 86493.4200000001,
      "d": 40.58437500000582,
      "v": 67
    },
    {
      "midi": 55,
      "hit": false,
      "t": 86493.4200000001,
      "d": 51.40687500000058,
      "v": 67
    },
    {
      "midi": 64,
      "hit": false,
      "t": 86493.4200000001,
      "d": 51.40687500000058,
      "v": 67
    },
    {
      "midi": 35,
      "hit": false,
      "t": 86493.42000000027,
      "d": 35.173125000001164,
      "v": 70
    },
    {
      "midi": 35,
      "hit": false,
      "t": 86631.40687500028,
      "d": 54.11250000000291,
      "v": 90
    },
    {
      "midi": 52,
      "hit": false,
      "t": 86753.1600000001,
      "d": 37.87875000000349,
      "v": 67
    },
    {
      "midi": 40,
      "hit": false,
      "t": 86753.16000000028,
      "d": 129.86999999999534,
      "v": 73
    },
    {
      "midi": 64,
      "hit": false,
      "t": 86883.03,
      "d": 40.58437500000582,
      "v": 36
    },
    {
      "midi": 59,
      "hit": false,
      "t": 86883.03,
      "d": 48.701250000012806,
      "v": 56
    },
    {
      "midi": 59,
      "hit": false,
      "t": 86883.03000000012,
      "d": 45.995624999995925,
      "v": 67
    },
    {
      "midi": 64,
      "hit": false,
      "t": 86883.03000000012,
      "d": 54.11250000000291,
      "v": 67
    },
    {
      "midi": 59,
      "hit": false,
      "t": 87012.90000000001,
      "d": 224.56687500000407,
      "v": 73
    },
    {
      "midi": 52,
      "hit": false,
      "t": 87012.90000000013,
      "d": 27.05624999999418,
      "v": 67
    },
    {
      "midi": 40,
      "hit": false,
      "t": 87012.90000000027,
      "d": 37.87875000000349,
      "v": 61
    },
    {
      "midi": 52,
      "hit": false,
      "t": 87142.77000000012,
      "d": 48.701249999998254,
      "v": 67
    },
    {
      "midi": 40,
      "hit": false,
      "t": 87142.77000000028,
      "d": 81.16874999999709,
      "v": 78
    },
    {
      "midi": 72,
      "hit": false,
      "t": 87223.93875000002,
      "d": 2126.6212499999965,
      "v": 82
    },
    {
      "midi": 55,
      "hit": false,
      "t": 87272.64000000001,
      "d": 313.8524999999936,
      "v": 64
    },
    {
      "midi": 59,
      "hit": false,
      "t": 87272.64000000001,
      "d": 313.8524999999936,
      "v": 73
    },
    {
      "midi": 64,
      "hit": false,
      "t": 87272.64000000001,
      "d": 316.5581249999959,
      "v": 64
    },
    {
      "midi": 55,
      "hit": false,
      "t": 87272.64000000012,
      "d": 146.10374999999476,
      "v": 67
    },
    {
      "midi": 48,
      "hit": false,
      "t": 87272.64000000012,
      "d": 278.67937499999243,
      "v": 67
    },
    {
      "midi": 64,
      "hit": false,
      "t": 87272.64000000012,
      "d": 292.2074999999895,
      "v": 67
    },
    {
      "midi": 60,
      "hit": false,
      "t": 87272.64000000012,
      "d": 303.0299999999843,
      "v": 67
    },
    {
      "midi": 36,
      "hit": false,
      "t": 87272.64000000028,
      "d": 183.98249999999825,
      "v": 91
    },
    {
      "midi": 60,
      "hit": false,
      "t": 87275.34562500002,
      "d": 457.2506250000006,
      "v": 87
    },
    {
      "midi": 55,
      "hit": false,
      "t": 87532.3800000001,
      "d": 51.40687500000058,
      "v": 67
    },
    {
      "midi": 36,
      "hit": false,
      "t": 87532.38000000028,
      "d": 129.86999999999534,
      "v": 56
    },
    {
      "midi": 55,
      "hit": false,
      "t": 87662.2500000001,
      "d": 45.995624999995925,
      "v": 67
    },
    {
      "midi": 64,
      "hit": false,
      "t": 87662.2500000001,
      "d": 51.40687500000058,
      "v": 67
    },
    {
      "midi": 60,
      "hit": false,
      "t": 87662.2500000001,
      "d": 56.81812500000524,
      "v": 67
    },
    {
      "midi": 36,
      "hit": false,
      "t": 87670.36687500028,
      "d": 54.11250000000291,
      "v": 87
    },
    {
      "midi": 55,
      "hit": false,
      "t": 87789.41437500002,
      "d": 229.97812499999418,
      "v": 82
    },
    {
      "midi": 40,
      "hit": false,
      "t": 87792.12000000029,
      "d": 129.86999999999534,
      "v": 73
    },
    {
      "midi": 55,
      "hit": false,
      "t": 87921.9900000001,
      "d": 43.2899999999936,
      "v": 65
    },
    {
      "midi": 60,
      "hit": false,
      "t": 88051.8600000001,
      "d": 37.87875000000349,
      "v": 67
    },
    {
      "midi": 64,
      "hit": false,
      "t": 88051.8600000001,
      "d": 56.81812500000524,
      "v": 67
    },
    {
      "midi": 40,
      "hit": false,
      "t": 88051.86000000028,
      "d": 37.87875000000349,
      "v": 61
    },
    {
      "midi": 60,
      "hit": false,
      "t": 88054.56562500002,
      "d": 443.7225000000035,
      "v": 91
    },
    {
      "midi": 40,
      "hit": false,
      "t": 88181.73000000029,
      "d": 81.16874999999709,
      "v": 78
    },
    {
      "midi": 48,
      "hit": false,
      "t": 88311.60000000011,
      "d": 29.761874999996508,
      "v": 67
    },
    {
      "midi": 43,
      "hit": false,
      "t": 88311.60000000028,
      "d": 175.86562500000582,
      "v": 86
    },
    {
      "midi": 48,
      "hit": false,
      "t": 88441.4700000001,
      "d": 45.995624999995925,
      "v": 67
    },
    {
      "midi": 62,
      "hit": false,
      "t": 88571.34000000003,
      "d": 492.42375000000175,
      "v": 91
    },
    {
      "midi": 60,
      "hit": false,
      "t": 88571.3400000001,
      "d": 40.58437500000582,
      "v": 67
    },
    {
      "midi": 55,
      "hit": false,
      "t": 88571.3400000001,
      "d": 51.40687500000058,
      "v": 67
    },
    {
      "midi": 64,
      "hit": false,
      "t": 88571.3400000001,
      "d": 51.40687500000058,
      "v": 67
    },
    {
      "midi": 43,
      "hit": false,
      "t": 88571.34000000029,
      "d": 35.173125000001164,
      "v": 70
    },
    {
      "midi": 43,
      "hit": false,
      "t": 88709.32687500029,
      "d": 54.11250000000291,
      "v": 90
    },
    {
      "midi": 48,
      "hit": false,
      "t": 88831.0800000001,
      "d": 37.87875000000349,
      "v": 67
    },
    {
      "midi": 48,
      "hit": false,
      "t": 88831.0800000003,
      "d": 129.86999999999534,
      "v": 73
    },
    {
      "midi": 60,
      "hit": false,
      "t": 88960.95000000001,
      "d": 48.701249999998254,
      "v": 56
    },
    {
      "midi": 64,
      "hit": false,
      "t": 88960.95000000001,
      "d": 64.93499999999767,
      "v": 60
    },
    {
      "midi": 60,
      "hit": false,
      "t": 88960.95000000011,
      "d": 45.995624999995925,
      "v": 67
    },
    {
      "midi": 64,
      "hit": false,
      "t": 88960.95000000011,
      "d": 54.11250000000291,
      "v": 67
    },
    {
      "midi": 48,
      "hit": false,
      "t": 89090.82000000012,
      "d": 27.05624999999418,
      "v": 67
    },
    {
      "midi": 48,
      "hit": false,
      "t": 89090.82000000028,
      "d": 37.87875000000349,
      "v": 61
    },
    {
      "midi": 59,
      "hit": false,
      "t": 89093.52562500002,
      "d": 765.6918750000041,
      "v": 82
    },
    {
      "midi": 60,
      "hit": false,
      "t": 89220.69,
      "d": 110.9306249999936,
      "v": 40
    },
    {
      "midi": 64,
      "hit": false,
      "t": 89220.69,
      "d": 116.34187499999825,
      "v": 40
    },
    {
      "midi": 48,
      "hit": false,
      "t": 89220.69000000012,
      "d": 48.701249999998254,
      "v": 67
    },
    {
      "midi": 48,
      "hit": false,
      "t": 89220.6900000003,
      "d": 81.16874999999709,
      "v": 78
    },
    {
      "midi": 71,
      "hit": false,
      "t": 89320.79812500002,
      "d": 13528.125,
      "v": 73
    },
    {
      "midi": 55,
      "hit": false,
      "t": 89350.56,
      "d": 300.3243749999965,
      "v": 56
    },
    {
      "midi": 62,
      "hit": false,
      "t": 89350.56,
      "d": 300.3243749999965,
      "v": 64
    },
    {
      "midi": 59,
      "hit": false,
      "t": 89350.56,
      "d": 305.73562500000116,
      "v": 73
    },
    {
      "midi": 55,
      "hit": false,
      "t": 89350.56000000011,
      "d": 146.10374999999476,
      "v": 67
    },
    {
      "midi": 43,
      "hit": false,
      "t": 89350.56000000011,
      "d": 278.67937499999243,
      "v": 67
    },
    {
      "midi": 62,
      "hit": false,
      "t": 89350.56000000011,
      "d": 292.2074999999895,
      "v": 67
    },
    {
      "midi": 59,
      "hit": false,
      "t": 89350.56000000011,
      "d": 303.0299999999843,
      "v": 67
    },
    {
      "midi": 31,
      "hit": false,
      "t": 89350.56000000029,
      "d": 183.98249999999825,
      "v": 91
    },
    {
      "midi": 55,
      "hit": false,
      "t": 89610.3000000001,
      "d": 51.40687500000058,
      "v": 67
    },
    {
      "midi": 31,
      "hit": false,
      "t": 89610.3000000003,
      "d": 108.22500000000582,
      "v": 56
    },
    {
      "midi": 55,
      "hit": false,
      "t": 89740.1700000001,
      "d": 45.995624999995925,
      "v": 67
    },
    {
      "midi": 62,
      "hit": false,
      "t": 89740.1700000001,
      "d": 51.40687500000058,
      "v": 67
    },
    {
      "midi": 59,
      "hit": false,
      "t": 89740.1700000001,
      "d": 56.81812500000524,
      "v": 67
    },
    {
      "midi": 31,
      "hit": false,
      "t": 89748.2868750003,
      "d": 54.11250000000291,
      "v": 87
    },
    {
      "midi": 35,
      "hit": false,
      "t": 89870.0400000003,
      "d": 129.86999999999534,
      "v": 73
    },
    {
      "midi": 55,
      "hit": false,
      "t": 89999.9100000001,
      "d": 43.2899999999936,
      "v": 65
    },
    {
      "midi": 59,
      "hit": false,
      "t": 90129.7800000001,
      "d": 37.87875000000349,
      "v": 67
    },
    {
      "midi": 62,
      "hit": false,
      "t": 90129.7800000001,
      "d": 56.81812500000524,
      "v": 67
    },
    {
      "midi": 35,
      "hit": false,
      "t": 90129.78000000029,
      "d": 146.10374999999476,
      "v": 87
    },
    {
      "midi": 74,
      "hit": false,
      "t": 90370.58062500002,
      "d": 1049.7825000000012,
      "v": 73
    },
    {
      "midi": 43,
      "hit": false,
      "t": 90389.5200000001,
      "d": 29.761874999996508,
      "v": 67
    },
    {
      "midi": 38,
      "hit": false,
      "t": 90389.52000000028,
      "d": 175.86562500000582,
      "v": 86
    },
    {
      "midi": 55,
      "hit": false,
      "t": 90392.22562500002,
      "d": 330.086249999993,
      "v": 73
    },
    {
      "midi": 43,
      "hit": false,
      "t": 90519.3900000001,
      "d": 45.995624999995925,
      "v": 67
    },
    {
      "midi": 59,
      "hit": false,
      "t": 90649.2600000001,
      "d": 40.58437500000582,
      "v": 67
    },
    {
      "midi": 55,
      "hit": false,
      "t": 90649.2600000001,
      "d": 51.40687500000058,
      "v": 67
    },
    {
      "midi": 62,
      "hit": false,
      "t": 90649.2600000001,
      "d": 51.40687500000058,
      "v": 67
    },
    {
      "midi": 38,
      "hit": false,
      "t": 90649.26000000029,
      "d": 35.173125000001164,
      "v": 70
    },
    {
      "midi": 38,
      "hit": false,
      "t": 90787.24687500029,
      "d": 54.11250000000291,
      "v": 90
    },
    {
      "midi": 57,
      "hit": false,
      "t": 90906.29437500001,
      "d": 351.7312499999971,
      "v": 91
    },
    {
      "midi": 43,
      "hit": false,
      "t": 90909.0000000001,
      "d": 37.87875000000349,
      "v": 67
    },
    {
      "midi": 43,
      "hit": false,
      "t": 90909.00000000029,
      "d": 129.86999999999534,
      "v": 73
    },
    {
      "midi": 59,
      "hit": false,
      "t": 91038.87000000011,
      "d": 45.995624999995925,
      "v": 67
    },
    {
      "midi": 62,
      "hit": false,
      "t": 91038.87000000011,
      "d": 54.11250000000291,
      "v": 67
    },
    {
      "midi": 43,
      "hit": false,
      "t": 91168.74000000012,
      "d": 27.05624999999418,
      "v": 67
    },
    {
      "midi": 43,
      "hit": false,
      "t": 91168.74000000028,
      "d": 37.87875000000349,
      "v": 58
    },
    {
      "midi": 43,
      "hit": false,
      "t": 91298.61000000012,
      "d": 48.701249999998254,
      "v": 67
    },
    {
      "midi": 43,
      "hit": false,
      "t": 91298.61000000029,
      "d": 81.16874999999709,
      "v": 87
    },
    {
      "midi": 75,
      "hit": false,
      "t": 91406.83500000002,
      "d": 2075.214374999996,
      "v": 73
    },
    {
      "midi": 54,
      "hit": false,
      "t": 91425.77437500001,
      "d": 541.125,
      "v": 82
    },
    {
      "midi": 57,
      "hit": false,
      "t": 91428.48,
      "d": 286.7962499999994,
      "v": 82
    },
    {
      "midi": 63,
      "hit": false,
      "t": 91428.48,
      "d": 292.2075000000041,
      "v": 60
    },
    {
      "midi": 54,
      "hit": false,
      "t": 91428.48,
      "d": 297.61875000000873,
      "v": 60
    },
    {
      "midi": 54,
      "hit": false,
      "t": 91428.48000000011,
      "d": 146.10374999999476,
      "v": 67
    },
    {
      "midi": 47,
      "hit": false,
      "t": 91428.48000000011,
      "d": 278.67937499999243,
      "v": 67
    },
    {
      "midi": 63,
      "hit": false,
      "t": 91428.48000000011,
      "d": 292.2074999999895,
      "v": 67
    },
    {
      "midi": 59,
      "hit": false,
      "t": 91428.48000000011,
      "d": 303.0299999999843,
      "v": 67
    },
    {
      "midi": 35,
      "hit": false,
      "t": 91428.48000000029,
      "d": 183.98249999999825,
      "v": 91
    },
    {
      "midi": 54,
      "hit": false,
      "t": 91688.2200000001,
      "d": 51.40687500000058,
      "v": 67
    },
    {
      "midi": 35,
      "hit": false,
      "t": 91688.22000000029,
      "d": 129.86999999999534,
      "v": 56
    },
    {
      "midi": 54,
      "hit": false,
      "t": 91818.0900000001,
      "d": 45.995624999995925,
      "v": 67
    },
    {
      "midi": 63,
      "hit": false,
      "t": 91818.0900000001,
      "d": 51.40687500000058,
      "v": 67
    },
    {
      "midi": 59,
      "hit": false,
      "t": 91818.0900000001,
      "d": 56.81812500000524,
      "v": 67
    },
    {
      "midi": 35,
      "hit": false,
      "t": 91826.2068750003,
      "d": 54.11250000000291,
      "v": 87
    },
    {
      "midi": 39,
      "hit": false,
      "t": 91947.9600000003,
      "d": 129.86999999999534,
      "v": 73
    },
    {
      "midi": 54,
      "hit": false,
      "t": 92077.8300000001,
      "d": 43.2899999999936,
      "v": 65
    },
    {
      "midi": 59,
      "hit": false,
      "t": 92204.99437500001,
      "d": 313.8524999999936,
      "v": 91
    },
    {
      "midi": 59,
      "hit": false,
      "t": 92207.7000000001,
      "d": 37.87875000000349,
      "v": 67
    },
    {
      "midi": 63,
      "hit": false,
      "t": 92207.7000000001,
      "d": 56.81812500000524,
      "v": 67
    },
    {
      "midi": 39,
      "hit": false,
      "t": 92207.70000000029,
      "d": 146.10374999999476,
      "v": 87
    },
    {
      "midi": 47,
      "hit": false,
      "t": 92467.4400000001,
      "d": 29.761874999996508,
      "v": 67
    },
    {
      "midi": 42,
      "hit": false,
      "t": 92467.44000000028,
      "d": 175.86562500000582,
      "v": 86
    },
    {
      "midi": 47,
      "hit": false,
      "t": 92597.3100000001,
      "d": 45.995624999995925,
      "v": 67
    },
    {
      "midi": 57,
      "hit": false,
      "t": 92724.474375,
      "d": 346.320000000007,
      "v": 91
    },
    {
      "midi": 59,
      "hit": false,
      "t": 92727.1800000001,
      "d": 40.58437500000582,
      "v": 67
    },
    {
      "midi": 54,
      "hit": false,
      "t": 92727.1800000001,
      "d": 51.40687500000058,
      "v": 67
    },
    {
      "midi": 63,
      "hit": false,
      "t": 92727.1800000001,
      "d": 51.40687500000058,
      "v": 67
    },
    {
      "midi": 42,
      "hit": false,
      "t": 92727.18000000028,
      "d": 35.173125000001164,
      "v": 70
    },
    {
      "midi": 42,
      "hit": false,
      "t": 92865.16687500029,
      "d": 54.11250000000291,
      "v": 90
    },
    {
      "midi": 47,
      "hit": false,
      "t": 92986.9200000001,
      "d": 37.87875000000349,
      "v": 67
    },
    {
      "midi": 47,
      "hit": false,
      "t": 92986.92000000029,
      "d": 129.86999999999534,
      "v": 73
    },
    {
      "midi": 59,
      "hit": false,
      "t": 93116.79000000011,
      "d": 45.995624999995925,
      "v": 67
    },
    {
      "midi": 63,
      "hit": false,
      "t": 93116.79000000011,
      "d": 54.11250000000291,
      "v": 67
    },
    {
      "midi": 55,
      "hit": false,
      "t": 93243.95437500002,
      "d": 1293.288750000007,
      "v": 91
    },
    {
      "midi": 47,
      "hit": false,
      "t": 93246.66000000012,
      "d": 27.05624999999418,
      "v": 67
    },
    {
      "midi": 47,
      "hit": false,
      "t": 93246.66000000028,
      "d": 37.87875000000349,
      "v": 61
    },
    {
      "midi": 47,
      "hit": false,
      "t": 93376.53000000012,
      "d": 48.701249999998254,
      "v": 67
    },
    {
      "midi": 47,
      "hit": false,
      "t": 93376.53000000029,
      "d": 81.16874999999709,
      "v": 78
    },
    {
      "midi": 76,
      "hit": false,
      "t": 93479.34375000001,
      "d": 4209.952499999999,
      "v": 64
    },
    {
      "midi": 55,
      "hit": false,
      "t": 93506.40000000001,
      "d": 300.3243749999965,
      "v": 64
    },
    {
      "midi": 59,
      "hit": false,
      "t": 93506.40000000001,
      "d": 300.3243749999965,
      "v": 73
    },
    {
      "midi": 64,
      "hit": false,
      "t": 93506.40000000001,
      "d": 303.02999999999884,
      "v": 60
    },
    {
      "midi": 55,
      "hit": false,
      "t": 93506.40000000011,
      "d": 146.10374999999476,
      "v": 67
    },
    {
      "midi": 52,
      "hit": false,
      "t": 93506.40000000011,
      "d": 278.67937499999243,
      "v": 67
    },
    {
      "midi": 64,
      "hit": false,
      "t": 93506.40000000011,
      "d": 292.2074999999895,
      "v": 67
    },
    {
      "midi": 59,
      "hit": false,
      "t": 93506.40000000011,
      "d": 303.0299999999843,
      "v": 67
    },
    {
      "midi": 28,
      "hit": false,
      "t": 93506.40000000029,
      "d": 183.98249999999825,
      "v": 91
    },
    {
      "midi": 55,
      "hit": false,
      "t": 93766.1400000001,
      "d": 51.40687500000058,
      "v": 67
    },
    {
      "midi": 28,
      "hit": false,
      "t": 93766.14000000029,
      "d": 129.86999999999534,
      "v": 56
    },
    {
      "midi": 55,
      "hit": false,
      "t": 93896.0100000001,
      "d": 45.995624999995925,
      "v": 67
    },
    {
      "midi": 64,
      "hit": false,
      "t": 93896.0100000001,
      "d": 51.40687500000058,
      "v": 67
    },
    {
      "midi": 59,
      "hit": false,
      "t": 93896.0100000001,
      "d": 56.81812500000524,
      "v": 67
    },
    {
      "midi": 28,
      "hit": false,
      "t": 93904.1268750003,
      "d": 54.11250000000291,
      "v": 87
    },
    {
      "midi": 31,
      "hit": false,
      "t": 94025.8800000003,
      "d": 175.86562500000582,
      "v": 86
    },
    {
      "midi": 55,
      "hit": false,
      "t": 94155.7500000001,
      "d": 43.2899999999936,
      "v": 65
    },
    {
      "midi": 59,
      "hit": false,
      "t": 94285.6200000001,
      "d": 37.87875000000349,
      "v": 67
    },
    {
      "midi": 64,
      "hit": false,
      "t": 94285.6200000001,
      "d": 56.81812500000524,
      "v": 67
    },
    {
      "midi": 31,
      "hit": false,
      "t": 94285.6200000003,
      "d": 35.173125000001164,
      "v": 70
    },
    {
      "midi": 31,
      "hit": false,
      "t": 94423.6068750003,
      "d": 54.11250000000291,
      "v": 90
    },
    {
      "midi": 52,
      "hit": false,
      "t": 94545.3600000001,
      "d": 29.761874999996508,
      "v": 67
    },
    {
      "midi": 35,
      "hit": false,
      "t": 94545.3600000003,
      "d": 175.86562500000582,
      "v": 86
    },
    {
      "midi": 52,
      "hit": false,
      "t": 94675.2300000001,
      "d": 45.995624999995925,
      "v": 67
    },
    {
      "midi": 57,
      "hit": false,
      "t": 94802.39437500002,
      "d": 316.5581249999959,
      "v": 82
    },
    {
      "midi": 59,
      "hit": false,
      "t": 94805.1000000001,
      "d": 40.58437500000582,
      "v": 67
    },
    {
      "midi": 55,
      "hit": false,
      "t": 94805.1000000001,
      "d": 51.40687500000058,
      "v": 67
    },
    {
      "midi": 64,
      "hit": false,
      "t": 94805.1000000001,
      "d": 51.40687500000058,
      "v": 67
    },
    {
      "midi": 35,
      "hit": false,
      "t": 94805.10000000031,
      "d": 35.173125000001164,
      "v": 70
    },
    {
      "midi": 35,
      "hit": false,
      "t": 94943.08687500031,
      "d": 54.11250000000291,
      "v": 90
    },
    {
      "midi": 52,
      "hit": false,
      "t": 95064.8400000001,
      "d": 37.87875000000349,
      "v": 67
    },
    {
      "midi": 40,
      "hit": false,
      "t": 95064.84000000032,
      "d": 129.86999999999534,
      "v": 73
    },
    {
      "midi": 59,
      "hit": false,
      "t": 95194.71000000011,
      "d": 45.995624999995925,
      "v": 67
    },
    {
      "midi": 64,
      "hit": false,
      "t": 95194.71000000011,
      "d": 54.11250000000291,
      "v": 67
    },
    {
      "midi": 59,
      "hit": false,
      "t": 95197.41562500001,
      "d": 297.6187499999942,
      "v": 91
    },
    {
      "midi": 52,
      "hit": false,
      "t": 95324.58000000012,
      "d": 27.05624999999418,
      "v": 67
    },
    {
      "midi": 40,
      "hit": false,
      "t": 95324.58000000031,
      "d": 37.87875000000349,
      "v": 61
    },
    {
      "midi": 52,
      "hit": false,
      "t": 95454.45000000011,
      "d": 48.701249999998254,
      "v": 67
    },
    {
      "midi": 40,
      "hit": false,
      "t": 95454.45000000032,
      "d": 81.16874999999709,
      "v": 78
    },
    {
      "midi": 55,
      "hit": false,
      "t": 95584.32,
      "d": 313.8524999999936,
      "v": 64
    },
    {
      "midi": 59,
      "hit": false,
      "t": 95584.32,
      "d": 313.8524999999936,
      "v": 73
    },
    {
      "midi": 64,
      "hit": false,
      "t": 95584.32,
      "d": 316.5581249999959,
      "v": 64
    },
    {
      "midi": 55,
      "hit": false,
      "t": 95584.32000000011,
      "d": 146.10374999999476,
      "v": 67
    },
    {
      "midi": 48,
      "hit": false,
      "t": 95584.32000000011,
      "d": 278.67937499999243,
      "v": 67
    },
    {
      "midi": 64,
      "hit": false,
      "t": 95584.32000000011,
      "d": 292.2074999999895,
      "v": 67
    },
    {
      "midi": 60,
      "hit": false,
      "t": 95584.32000000011,
      "d": 303.0299999999843,
      "v": 67
    },
    {
      "midi": 36,
      "hit": false,
      "t": 95584.32000000031,
      "d": 183.98249999999825,
      "v": 91
    },
    {
      "midi": 60,
      "hit": false,
      "t": 95587.02562500001,
      "d": 435.6056249999965,
      "v": 91
    },
    {
      "midi": 55,
      "hit": false,
      "t": 95844.0600000001,
      "d": 51.40687500000058,
      "v": 67
    },
    {
      "midi": 36,
      "hit": false,
      "t": 95844.06000000032,
      "d": 127.16437499999302,
      "v": 56
    },
    {
      "midi": 55,
      "hit": false,
      "t": 95973.9300000001,
      "d": 45.995624999995925,
      "v": 67
    },
    {
      "midi": 64,
      "hit": false,
      "t": 95973.9300000001,
      "d": 51.40687500000058,
      "v": 67
    },
    {
      "midi": 60,
      "hit": false,
      "t": 95973.9300000001,
      "d": 56.81812500000524,
      "v": 67
    },
    {
      "midi": 36,
      "hit": false,
      "t": 95982.0468750003,
      "d": 54.11250000000291,
      "v": 87
    },
    {
      "midi": 55,
      "hit": false,
      "t": 96101.094375,
      "d": 224.56687500000407,
      "v": 82
    },
    {
      "midi": 40,
      "hit": false,
      "t": 96103.80000000031,
      "d": 129.86999999999534,
      "v": 73
    },
    {
      "midi": 55,
      "hit": false,
      "t": 96233.6700000001,
      "d": 43.2899999999936,
      "v": 65
    },
    {
      "midi": 60,
      "hit": false,
      "t": 96360.834375,
      "d": 441.01687500000116,
      "v": 91
    },
    {
      "midi": 60,
      "hit": false,
      "t": 96363.5400000001,
      "d": 37.87875000000349,
      "v": 67
    },
    {
      "midi": 64,
      "hit": false,
      "t": 96363.5400000001,
      "d": 56.81812500000524,
      "v": 67
    },
    {
      "midi": 40,
      "hit": false,
      "t": 96363.5400000003,
      "d": 127.16437499999302,
      "v": 56
    },
    {
      "midi": 40,
      "hit": false,
      "t": 96501.52687500029,
      "d": 54.11250000000291,
      "v": 87
    },
    {
      "midi": 48,
      "hit": false,
      "t": 96623.2800000001,
      "d": 29.761874999996508,
      "v": 67
    },
    {
      "midi": 43,
      "hit": false,
      "t": 96623.28000000029,
      "d": 175.86562500000582,
      "v": 86
    },
    {
      "midi": 48,
      "hit": false,
      "t": 96753.1500000001,
      "d": 45.995624999995925,
      "v": 67
    },
    {
      "midi": 64,
      "hit": false,
      "t": 96880.314375,
      "d": 484.30687499999476,
      "v": 82
    },
    {
      "midi": 60,
      "hit": false,
      "t": 96883.02000000009,
      "d": 40.58437500000582,
      "v": 67
    },
    {
      "midi": 55,
      "hit": false,
      "t": 96883.02000000009,
      "d": 51.40687500000058,
      "v": 67
    },
    {
      "midi": 64,
      "hit": false,
      "t": 96883.02000000009,
      "d": 51.40687500000058,
      "v": 67
    },
    {
      "midi": 43,
      "hit": false,
      "t": 96883.0200000003,
      "d": 35.173125000001164,
      "v": 70
    },
    {
      "midi": 43,
      "hit": false,
      "t": 97021.0068750003,
      "d": 54.11250000000291,
      "v": 90
    },
    {
      "midi": 64,
      "hit": false,
      "t": 97142.76000000001,
      "d": 78.46312499999476,
      "v": 64
    },
    {
      "midi": 60,
      "hit": false,
      "t": 97142.76000000001,
      "d": 91.99124999999185,
      "v": 60
    },
    {
      "midi": 48,
      "hit": false,
      "t": 97142.7600000001,
      "d": 37.87875000000349,
      "v": 67
    },
    {
      "midi": 48,
      "hit": false,
      "t": 97142.7600000003,
      "d": 129.86999999999534,
      "v": 73
    },
    {
      "midi": 60,
      "hit": false,
      "t": 97272.6300000001,
      "d": 45.995624999995925,
      "v": 67
    },
    {
      "midi": 64,
      "hit": false,
      "t": 97272.6300000001,
      "d": 54.11250000000291,
      "v": 67
    },
    {
      "midi": 62,
      "hit": false,
      "t": 97399.794375,
      "d": 1101.1893750000017,
      "v": 91
    },
    {
      "midi": 48,
      "hit": false,
      "t": 97402.50000000012,
      "d": 27.05624999999418,
      "v": 67
    },
    {
      "midi": 48,
      "hit": false,
      "t": 97402.50000000029,
      "d": 37.87875000000349,
      "v": 61
    },
    {
      "midi": 48,
      "hit": false,
      "t": 97532.37000000011,
      "d": 48.701249999998254,
      "v": 67
    },
    {
      "midi": 48,
      "hit": false,
      "t": 97532.3700000003,
      "d": 81.16874999999709,
      "v": 78
    },
    {
      "midi": 74,
      "hit": false,
      "t": 97651.41750000001,
      "d": 2091.4481249999953,
      "v": 73
    },
    {
      "midi": 55,
      "hit": false,
      "t": 97662.24,
      "d": 300.3243749999965,
      "v": 56
    },
    {
      "midi": 62,
      "hit": false,
      "t": 97662.24,
      "d": 300.3243749999965,
      "v": 64
    },
    {
      "midi": 59,
      "hit": false,
      "t": 97662.24,
      "d": 305.73562500000116,
      "v": 73
    },
    {
      "midi": 55,
      "hit": false,
      "t": 97662.2400000001,
      "d": 146.10374999999476,
      "v": 67
    },
    {
      "midi": 43,
      "hit": false,
      "t": 97662.2400000001,
      "d": 278.67937499999243,
      "v": 67
    },
    {
      "midi": 62,
      "hit": false,
      "t": 97662.2400000001,
      "d": 292.2074999999895,
      "v": 67
    },
    {
      "midi": 59,
      "hit": false,
      "t": 97662.2400000001,
      "d": 303.0299999999843,
      "v": 67
    },
    {
      "midi": 31,
      "hit": false,
      "t": 97662.2400000003,
      "d": 183.98249999999825,
      "v": 91
    },
    {
      "midi": 55,
      "hit": false,
      "t": 97921.9800000001,
      "d": 51.40687500000058,
      "v": 67
    },
    {
      "midi": 31,
      "hit": false,
      "t": 97921.9800000003,
      "d": 108.22500000000582,
      "v": 56
    },
    {
      "midi": 55,
      "hit": false,
      "t": 98051.8500000001,
      "d": 45.995624999995925,
      "v": 67
    },
    {
      "midi": 62,
      "hit": false,
      "t": 98051.8500000001,
      "d": 51.40687500000058,
      "v": 67
    },
    {
      "midi": 59,
      "hit": false,
      "t": 98051.8500000001,
      "d": 56.81812500000524,
      "v": 67
    },
    {
      "midi": 31,
      "hit": false,
      "t": 98059.9668750003,
      "d": 54.11250000000291,
      "v": 87
    },
    {
      "midi": 35,
      "hit": false,
      "t": 98181.7200000003,
      "d": 129.86999999999534,
      "v": 73
    },
    {
      "midi": 55,
      "hit": false,
      "t": 98311.5900000001,
      "d": 43.2899999999936,
      "v": 65
    },
    {
      "midi": 59,
      "hit": false,
      "t": 98441.4600000001,
      "d": 37.87875000000349,
      "v": 67
    },
    {
      "midi": 62,
      "hit": false,
      "t": 98441.4600000001,
      "d": 56.81812500000524,
      "v": 67
    },
    {
      "midi": 35,
      "hit": false,
      "t": 98441.4600000003,
      "d": 37.87875000000349,
      "v": 58
    },
    {
      "midi": 35,
      "hit": false,
      "t": 98571.33000000031,
      "d": 81.16874999999709,
      "v": 87
    },
    {
      "midi": 59,
      "hit": false,
      "t": 98698.494375,
      "d": 416.66624999999476,
      "v": 82
    },
    {
      "midi": 43,
      "hit": false,
      "t": 98701.2000000001,
      "d": 29.761874999996508,
      "v": 67
    },
    {
      "midi": 38,
      "hit": false,
      "t": 98701.2000000003,
      "d": 175.86562500000582,
      "v": 86
    },
    {
      "midi": 43,
      "hit": false,
      "t": 98831.0700000001,
      "d": 45.995624999995925,
      "v": 67
    },
    {
      "midi": 59,
      "hit": false,
      "t": 98960.94000000009,
      "d": 40.58437500000582,
      "v": 67
    },
    {
      "midi": 55,
      "hit": false,
      "t": 98960.94000000009,
      "d": 51.40687500000058,
      "v": 67
    },
    {
      "midi": 62,
      "hit": false,
      "t": 98960.94000000009,
      "d": 51.40687500000058,
      "v": 67
    },
    {
      "midi": 38,
      "hit": false,
      "t": 98960.94000000031,
      "d": 35.173125000001164,
      "v": 70
    },
    {
      "midi": 38,
      "hit": false,
      "t": 99098.92687500031,
      "d": 54.11250000000291,
      "v": 90
    },
    {
      "midi": 62,
      "hit": false,
      "t": 99217.97437499999,
      "d": 438.31124999999884,
      "v": 100
    },
    {
      "midi": 43,
      "hit": false,
      "t": 99220.6800000001,
      "d": 37.87875000000349,
      "v": 67
    },
    {
      "midi": 43,
      "hit": false,
      "t": 99220.68000000031,
      "d": 129.86999999999534,
      "v": 73
    },
    {
      "midi": 67,
      "hit": false,
      "t": 99350.55,
      "d": 62.22937499999534,
      "v": 60
    },
    {
      "midi": 64,
      "hit": false,
      "t": 99350.55,
      "d": 70.34625000000233,
      "v": 64
    },
    {
      "midi": 59,
      "hit": false,
      "t": 99350.5500000001,
      "d": 45.995624999995925,
      "v": 67
    },
    {
      "midi": 62,
      "hit": false,
      "t": 99350.5500000001,
      "d": 54.11250000000291,
      "v": 67
    },
    {
      "midi": 43,
      "hit": false,
      "t": 99480.42000000011,
      "d": 27.05624999999418,
      "v": 67
    },
    {
      "midi": 43,
      "hit": false,
      "t": 99480.4200000003,
      "d": 37.87875000000349,
      "v": 58
    },
    {
      "midi": 43,
      "hit": false,
      "t": 99610.29000000011,
      "d": 48.701249999998254,
      "v": 67
    },
    {
      "midi": 43,
      "hit": false,
      "t": 99610.29000000031,
      "d": 81.16874999999709,
      "v": 87
    },
    {
      "midi": 75,
      "hit": false,
      "t": 99696.87000000001,
      "d": 2134.7381250000035,
      "v": 73
    },
    {
      "midi": 63,
      "hit": false,
      "t": 99737.45437499999,
      "d": 481.601250000007,
      "v": 73
    },
    {
      "midi": 57,
      "hit": false,
      "t": 99740.16,
      "d": 286.7962499999994,
      "v": 82
    },
    {
      "midi": 63,
      "hit": false,
      "t": 99740.16,
      "d": 292.2075000000041,
      "v": 60
    },
    {
      "midi": 54,
      "hit": false,
      "t": 99740.16,
      "d": 297.61875000000873,
      "v": 60
    },
    {
      "midi": 54,
      "hit": false,
      "t": 99740.1600000001,
      "d": 146.10374999999476,
      "v": 67
    },
    {
      "midi": 47,
      "hit": false,
      "t": 99740.1600000001,
      "d": 278.67937499999243,
      "v": 67
    },
    {
      "midi": 63,
      "hit": false,
      "t": 99740.1600000001,
      "d": 292.2074999999895,
      "v": 67
    },
    {
      "midi": 59,
      "hit": false,
      "t": 99740.1600000001,
      "d": 303.0299999999843,
      "v": 67
    },
    {
      "midi": 35,
      "hit": false,
      "t": 99740.16000000031,
      "d": 183.98249999999825,
      "v": 91
    },
    {
      "midi": 54,
      "hit": false,
      "t": 99999.9000000001,
      "d": 51.40687500000058,
      "v": 67
    },
    {
      "midi": 35,
      "hit": false,
      "t": 99999.90000000031,
      "d": 129.86999999999534,
      "v": 56
    },
    {
      "midi": 54,
      "hit": false,
      "t": 100129.77000000009,
      "d": 45.995624999995925,
      "v": 67
    },
    {
      "midi": 63,
      "hit": false,
      "t": 100129.77000000009,
      "d": 51.40687500000058,
      "v": 67
    },
    {
      "midi": 59,
      "hit": false,
      "t": 100129.77000000009,
      "d": 56.81812500000524,
      "v": 67
    },
    {
      "midi": 35,
      "hit": false,
      "t": 100137.88687500032,
      "d": 54.11250000000291,
      "v": 87
    },
    {
      "midi": 39,
      "hit": false,
      "t": 100259.64000000032,
      "d": 129.86999999999534,
      "v": 73
    },
    {
      "midi": 59,
      "hit": false,
      "t": 100262.34562499999,
      "d": 224.56687500000407,
      "v": 91
    },
    {
      "midi": 54,
      "hit": false,
      "t": 100389.5100000001,
      "d": 43.2899999999936,
      "v": 65
    },
    {
      "midi": 59,
      "hit": false,
      "t": 100519.38000000009,
      "d": 37.87875000000349,
      "v": 67
    },
    {
      "midi": 63,
      "hit": false,
      "t": 100519.38000000009,
      "d": 56.81812500000524,
      "v": 67
    },
    {
      "midi": 39,
      "hit": false,
      "t": 100519.38000000031,
      "d": 146.10374999999476,
      "v": 87
    },
    {
      "midi": 57,
      "hit": false,
      "t": 100522.08562499999,
      "d": 432.8999999999942,
      "v": 82
    },
    {
      "midi": 47,
      "hit": false,
      "t": 100779.1200000001,
      "d": 29.761874999996508,
      "v": 67
    },
    {
      "midi": 42,
      "hit": false,
      "t": 100779.1200000003,
      "d": 175.86562500000582,
      "v": 86
    },
    {
      "midi": 47,
      "hit": false,
      "t": 100908.99000000009,
      "d": 45.995624999995925,
      "v": 67
    },
    {
      "midi": 59,
      "hit": false,
      "t": 101036.15437499998,
      "d": 516.7743749999936,
      "v": 91
    },
    {
      "midi": 63,
      "hit": false,
      "t": 101038.86000000002,
      "d": 62.22937499999534,
      "v": 52
    },
    {
      "midi": 66,
      "hit": false,
      "t": 101038.86000000002,
      "d": 70.34625000000233,
      "v": 56
    },
    {
      "midi": 59,
      "hit": false,
      "t": 101038.86000000009,
      "d": 40.58437500000582,
      "v": 67
    },
    {
      "midi": 54,
      "hit": false,
      "t": 101038.86000000009,
      "d": 51.40687500000058,
      "v": 67
    },
    {
      "midi": 63,
      "hit": false,
      "t": 101038.86000000009,
      "d": 51.40687500000058,
      "v": 67
    },
    {
      "midi": 42,
      "hit": false,
      "t": 101038.8600000003,
      "d": 35.173125000001164,
      "v": 70
    },
    {
      "midi": 42,
      "hit": false,
      "t": 101176.84687500031,
      "d": 54.11250000000291,
      "v": 90
    },
    {
      "midi": 47,
      "hit": false,
      "t": 101298.6000000001,
      "d": 37.87875000000349,
      "v": 67
    },
    {
      "midi": 47,
      "hit": false,
      "t": 101298.60000000031,
      "d": 129.86999999999534,
      "v": 73
    },
    {
      "midi": 67,
      "hit": false,
      "t": 101428.47000000002,
      "d": 83.87437499999942,
      "v": 60
    },
    {
      "midi": 63,
      "hit": false,
      "t": 101428.47000000002,
      "d": 91.9912500000064,
      "v": 56
    },
    {
      "midi": 59,
      "hit": false,
      "t": 101428.4700000001,
      "d": 45.995624999995925,
      "v": 67
    },
    {
      "midi": 63,
      "hit": false,
      "t": 101428.4700000001,
      "d": 54.11250000000291,
      "v": 67
    },
    {
      "midi": 47,
      "hit": false,
      "t": 101558.34000000011,
      "d": 27.05624999999418,
      "v": 67
    },
    {
      "midi": 47,
      "hit": false,
      "t": 101558.3400000003,
      "d": 37.87875000000349,
      "v": 61
    },
    {
      "midi": 55,
      "hit": false,
      "t": 101561.04562499998,
      "d": 1287.8775000000023,
      "v": 82
    },
    {
      "midi": 47,
      "hit": false,
      "t": 101688.21000000011,
      "d": 48.701249999998254,
      "v": 67
    },
    {
      "midi": 47,
      "hit": false,
      "t": 101688.21000000031,
      "d": 81.16874999999709,
      "v": 78
    },
    {
      "midi": 76,
      "hit": false,
      "t": 101809.96312500001,
      "d": 1101.1893750000017,
      "v": 64
    },
    {
      "midi": 55,
      "hit": false,
      "t": 101818.08000000002,
      "d": 300.3243749999965,
      "v": 64
    },
    {
      "midi": 59,
      "hit": false,
      "t": 101818.08000000002,
      "d": 300.3243749999965,
      "v": 73
    },
    {
      "midi": 64,
      "hit": false,
      "t": 101818.08000000002,
      "d": 303.02999999999884,
      "v": 60
    },
    {
      "midi": 55,
      "hit": false,
      "t": 101818.0800000001,
      "d": 146.10374999999476,
      "v": 67
    },
    {
      "midi": 52,
      "hit": false,
      "t": 101818.0800000001,
      "d": 278.67937499999243,
      "v": 67
    },
    {
      "midi": 64,
      "hit": false,
      "t": 101818.0800000001,
      "d": 292.2074999999895,
      "v": 67
    },
    {
      "midi": 59,
      "hit": false,
      "t": 101818.0800000001,
      "d": 303.0299999999843,
      "v": 67
    },
    {
      "midi": 28,
      "hit": false,
      "t": 101818.08000000031,
      "d": 183.98249999999825,
      "v": 91
    },
    {
      "midi": 55,
      "hit": false,
      "t": 102077.8200000001,
      "d": 51.40687500000058,
      "v": 67
    },
    {
      "midi": 28,
      "hit": false,
      "t": 102077.82000000031,
      "d": 129.86999999999534,
      "v": 56
    },
    {
      "midi": 55,
      "hit": false,
      "t": 102207.69000000009,
      "d": 45.995624999995925,
      "v": 67
    },
    {
      "midi": 64,
      "hit": false,
      "t": 102207.69000000009,
      "d": 51.40687500000058,
      "v": 67
    },
    {
      "midi": 59,
      "hit": false,
      "t": 102207.69000000009,
      "d": 56.81812500000524,
      "v": 67
    },
    {
      "midi": 28,
      "hit": false,
      "t": 102215.80687500031,
      "d": 54.11250000000291,
      "v": 87
    },
    {
      "midi": 31,
      "hit": false,
      "t": 102337.56000000032,
      "d": 108.22500000000582,
      "v": 73
    },
    {
      "midi": 55,
      "hit": false,
      "t": 102467.4300000001,
      "d": 43.2899999999936,
      "v": 65
    },
    {
      "midi": 59,
      "hit": false,
      "t": 102597.30000000009,
      "d": 37.87875000000349,
      "v": 67
    },
    {
      "midi": 64,
      "hit": false,
      "t": 102597.30000000009,
      "d": 56.81812500000524,
      "v": 67
    },
    {
      "midi": 31,
      "hit": false,
      "t": 102597.30000000032,
      "d": 35.173125000001164,
      "v": 64
    },
    {
      "midi": 31,
      "hit": false,
      "t": 102735.28687500033,
      "d": 54.11250000000291,
      "v": 90
    },
    {
      "midi": 35,
      "hit": false,
      "t": 102857.04000000033,
      "d": 105.51937500000349,
      "v": 86
    },
    {
      "midi": 52,
      "hit": false,
      "t": 103114.07437499998,
      "d": 313.85250000000815,
      "v": 82
    },
    {
      "midi": 55,
      "hit": false,
      "t": 103114.07437499998,
      "d": 330.08625000000757,
      "v": 82
    },
    {
      "midi": 61,
      "hit": false,
      "t": 103116.78000000001,
      "d": 259.74000000000524,
      "v": 51
    },
    {
      "midi": 55,
      "hit": false,
      "t": 103116.78000000001,
      "d": 278.679375000007,
      "v": 51
    },
    {
      "midi": 45,
      "hit": false,
      "t": 103116.78000000006,
      "d": 332.79187499999534,
      "v": 73
    },
    {
      "midi": 64,
      "hit": false,
      "t": 103116.78000000006,
      "d": 340.9087500000023,
      "v": 76
    },
    {
      "midi": 52,
      "hit": false,
      "t": 103116.7800000001,
      "d": 175.86562500000582,
      "v": 67
    },
    {
      "midi": 40,
      "hit": false,
      "t": 103116.7800000001,
      "d": 192.09937500000524,
      "v": 67
    },
    {
      "midi": 33,
      "hit": false,
      "t": 103116.78000000033,
      "d": 303.02999999999884,
      "v": 100
    },
    {
      "midi": 67,
      "hit": false,
      "t": 103119.48562499999,
      "d": 240.8006250000035,
      "v": 73
    },
    {
      "midi": 55,
      "hit": false,
      "t": 103119.48562500006,
      "d": 370.67062499999884,
      "v": 73
    },
    {
      "midi": 57,
      "hit": false,
      "t": 103506.38999999998,
      "d": 305.73562500000116,
      "v": 73
    },
    {
      "midi": 59,
      "hit": false,
      "t": 103506.39000000001,
      "d": 319.26374999999825,
      "v": 52
    },
    {
      "midi": 66,
      "hit": false,
      "t": 103506.39000000006,
      "d": 349.0256250000093,
      "v": 76
    },
    {
      "midi": 57,
      "hit": false,
      "t": 103506.39000000006,
      "d": 384.1987500000105,
      "v": 73
    },
    {
      "midi": 54,
      "hit": false,
      "t": 103506.3900000001,
      "d": 159.6318750000064,
      "v": 67
    },
    {
      "midi": 42,
      "hit": false,
      "t": 103506.3900000001,
      "d": 202.921875,
      "v": 67
    },
    {
      "midi": 35,
      "hit": false,
      "t": 103506.39000000033,
      "d": 305.73562500000116,
      "v": 91
    },
    {
      "midi": 69,
      "hit": false,
      "t": 103509.09562499999,
      "d": 224.56687500000407,
      "v": 82
    },
    {
      "midi": 54,
      "hit": false,
      "t": 103509.09562499999,
      "d": 292.2075000000041,
      "v": 82
    },
    {
      "midi": 63,
      "hit": false,
      "t": 103509.09562500002,
      "d": 319.26374999999825,
      "v": 31
    },
    {
      "midi": 47,
      "hit": false,
      "t": 103509.09562500006,
      "d": 370.6706250000134,
      "v": 73
    },
    {
      "midi": 59,
      "hit": false,
      "t": 103890.58875000007,
      "d": 535.7137500000099,
      "v": 64
    },
    {
      "midi": 59,
      "hit": false,
      "t": 103893.29437499998,
      "d": 432.90000000000873,
      "v": 82
    },
    {
      "midi": 48,
      "hit": false,
      "t": 103893.29437500007,
      "d": 579.003750000018,
      "v": 64
    },
    {
      "midi": 62,
      "hit": false,
      "t": 103896,
      "d": 1033.5487500000017,
      "v": 73
    },
    {
      "midi": 55,
      "hit": false,
      "t": 103896.00000000001,
      "d": 313.8524999999936,
      "v": 64
    },
    {
      "midi": 59,
      "hit": false,
      "t": 103896.00000000001,
      "d": 313.8524999999936,
      "v": 73
    },
    {
      "midi": 64,
      "hit": false,
      "t": 103896.00000000001,
      "d": 316.5581249999959,
      "v": 64
    },
    {
      "midi": 64,
      "hit": false,
      "t": 103896.00000000007,
      "d": 554.6531250000116,
      "v": 73
    },
    {
      "midi": 60,
      "hit": false,
      "t": 103896.0000000001,
      "d": 75.75750000000698,
      "v": 67
    },
    {
      "midi": 36,
      "hit": false,
      "t": 103896.00000000033,
      "d": 183.98249999999825,
      "v": 91
    },
    {
      "midi": 71,
      "hit": false,
      "t": 103898.70562499999,
      "d": 335.4974999999977,
      "v": 82
    },
    {
      "midi": 55,
      "hit": false,
      "t": 103898.70562499999,
      "d": 457.2506250000006,
      "v": 82
    },
    {
      "midi": 67,
      "hit": false,
      "t": 103898.70562500008,
      "d": 522.1856249999983,
      "v": 76
    },
    {
      "midi": 59,
      "hit": false,
      "t": 103901.41125,
      "d": 2053.5693750000064,
      "v": 64
    },
    {
      "midi": 67,
      "hit": false,
      "t": 103901.41125,
      "d": 2075.2143750000105,
      "v": 64
    },
    {
      "midi": 60,
      "hit": false,
      "t": 104155.7400000001,
      "d": 59.523749999993015,
      "v": 67
    },
    {
      "midi": 36,
      "hit": false,
      "t": 104155.74000000034,
      "d": 108.22500000000582,
      "v": 56
    },
    {
      "midi": 64,
      "hit": false,
      "t": 104285.6100000001,
      "d": 78.46312499999476,
      "v": 67
    },
    {
      "midi": 36,
      "hit": false,
      "t": 104293.72687500034,
      "d": 54.11250000000291,
      "v": 87
    },
    {
      "midi": 40,
      "hit": false,
      "t": 104415.48000000035,
      "d": 175.86562500000582,
      "v": 86
    },
    {
      "midi": 59,
      "hit": false,
      "t": 104545.3500000001,
      "d": 56.81812500000524,
      "v": 67
    },
    {
      "midi": 67,
      "hit": false,
      "t": 104672.51437499998,
      "d": 113.63624999999593,
      "v": 73
    },
    {
      "midi": 52,
      "hit": false,
      "t": 104672.51437499998,
      "d": 173.15999999998894,
      "v": 73
    },
    {
      "midi": 55,
      "hit": false,
      "t": 104672.51437499998,
      "d": 221.8612499999872,
      "v": 73
    },
    {
      "midi": 64,
      "hit": false,
      "t": 104675.2200000001,
      "d": 51.40687500000058,
      "v": 67
    },
    {
      "midi": 40,
      "hit": false,
      "t": 104675.22000000035,
      "d": 35.173125000001164,
      "v": 70
    },
    {
      "midi": 59,
      "hit": false,
      "t": 104805.0900000001,
      "d": 48.701249999998254,
      "v": 67
    },
    {
      "midi": 40,
      "hit": false,
      "t": 104813.20687500035,
      "d": 54.11250000000291,
      "v": 90
    },
    {
      "midi": 60,
      "hit": false,
      "t": 104913.315,
      "d": 549.241875000007,
      "v": 73
    },
    {
      "midi": 71,
      "hit": false,
      "t": 104932.25437499997,
      "d": 362.5537500000064,
      "v": 73
    },
    {
      "midi": 59,
      "hit": false,
      "t": 104932.25437499997,
      "d": 416.6662500000093,
      "v": 82
    },
    {
      "midi": 55,
      "hit": false,
      "t": 104932.25437499997,
      "d": 459.9562500000029,
      "v": 82
    },
    {
      "midi": 60,
      "hit": false,
      "t": 104934.9600000001,
      "d": 54.11250000000291,
      "v": 67
    },
    {
      "midi": 43,
      "hit": false,
      "t": 104934.96000000036,
      "d": 175.86562500000582,
      "v": 86
    },
    {
      "midi": 64,
      "hit": false,
      "t": 105064.8300000001,
      "d": 51.40687500000058,
      "v": 67
    },
    {
      "midi": 59,
      "hit": false,
      "t": 105194.7000000001,
      "d": 59.523749999993015,
      "v": 67
    },
    {
      "midi": 43,
      "hit": false,
      "t": 105194.70000000036,
      "d": 35.173125000001164,
      "v": 70
    },
    {
      "midi": 60,
      "hit": false,
      "t": 105324.5700000001,
      "d": 51.40687500000058,
      "v": 67
    },
    {
      "midi": 43,
      "hit": false,
      "t": 105332.68687500036,
      "d": 54.11250000000291,
      "v": 90
    },
    {
      "midi": 64,
      "hit": false,
      "t": 105438.20625,
      "d": 527.5968750000175,
      "v": 73
    },
    {
      "midi": 72,
      "hit": false,
      "t": 105451.73437499997,
      "d": 162.33749999999418,
      "v": 73
    },
    {
      "midi": 57,
      "hit": false,
      "t": 105451.73437499997,
      "d": 224.56687499998952,
      "v": 82
    },
    {
      "midi": 60,
      "hit": false,
      "t": 105451.73437499997,
      "d": 229.97812499999418,
      "v": 73
    },
    {
      "midi": 64,
      "hit": false,
      "t": 105454.44000000009,
      "d": 56.81812500000524,
      "v": 67
    },
    {
      "midi": 48,
      "hit": false,
      "t": 105454.44000000037,
      "d": 129.86999999999534,
      "v": 73
    },
    {
      "midi": 59,
      "hit": false,
      "t": 105584.3100000001,
      "d": 54.11250000000291,
      "v": 67
    },
    {
      "midi": 71,
      "hit": false,
      "t": 105711.47437499996,
      "d": 346.320000000007,
      "v": 82
    },
    {
      "midi": 59,
      "hit": false,
      "t": 105711.47437499996,
      "d": 392.3156250000029,
      "v": 73
    },
    {
      "midi": 55,
      "hit": false,
      "t": 105711.47437499996,
      "d": 457.2506250000006,
      "v": 82
    },
    {
      "midi": 60,
      "hit": false,
      "t": 105714.18000000011,
      "d": 59.523749999993015,
      "v": 67
    },
    {
      "midi": 48,
      "hit": false,
      "t": 105714.18000000036,
      "d": 37.87875000000349,
      "v": 58
    },
    {
      "midi": 64,
      "hit": false,
      "t": 105844.0500000001,
      "d": 64.93499999999767,
      "v": 67
    },
    {
      "midi": 48,
      "hit": false,
      "t": 105844.05000000037,
      "d": 81.16874999999709,
      "v": 87
    },
    {
      "midi": 59,
      "hit": false,
      "t": 105960.391875,
      "d": 511.3631250000035,
      "v": 107
    },
    {
      "midi": 60,
      "hit": false,
      "t": 105960.39187500002,
      "d": 535.7137500000099,
      "v": 82
    },
    {
      "midi": 45,
      "hit": false,
      "t": 105963.09750000009,
      "d": 589.8262500000128,
      "v": 48
    },
    {
      "midi": 59,
      "hit": false,
      "t": 105971.2143750001,
      "d": 541.125,
      "v": 64
    },
    {
      "midi": 60,
      "hit": false,
      "t": 105971.2143750001,
      "d": 546.5362500000047,
      "v": 64
    },
    {
      "midi": 64,
      "hit": false,
      "t": 105971.2143750001,
      "d": 546.5362500000047,
      "v": 64
    },
    {
      "midi": 67,
      "hit": false,
      "t": 105971.2143750001,
      "d": 551.9475000000093,
      "v": 80
    },
    {
      "midi": 60,
      "hit": false,
      "t": 105973.9200000001,
      "d": 75.75750000000698,
      "v": 67
    },
    {
      "midi": 33,
      "hit": false,
      "t": 105973.92000000036,
      "d": 183.98249999999825,
      "v": 91
    },
    {
      "midi": 52,
      "hit": false,
      "t": 106228.24874999996,
      "d": 551.9475000000093,
      "v": 73
    },
    {
      "midi": 67,
      "hit": false,
      "t": 106230.95437499996,
      "d": 441.01687500000116,
      "v": 73
    },
    {
      "midi": 55,
      "hit": false,
      "t": 106230.95437499996,
      "d": 633.1162500000064,
      "v": 82
    },
    {
      "midi": 60,
      "hit": false,
      "t": 106233.6600000001,
      "d": 59.523749999993015,
      "v": 67
    },
    {
      "midi": 33,
      "hit": false,
      "t": 106233.66000000037,
      "d": 129.86999999999534,
      "v": 56
    },
    {
      "midi": 64,
      "hit": false,
      "t": 106363.5300000001,
      "d": 78.46312499999476,
      "v": 67
    },
    {
      "midi": 33,
      "hit": false,
      "t": 106371.64687500037,
      "d": 54.11250000000291,
      "v": 87
    },
    {
      "midi": 62,
      "hit": false,
      "t": 106455.52125000002,
      "d": 524.8912500000006,
      "v": 84
    },
    {
      "midi": 60,
      "hit": false,
      "t": 106471.755,
      "d": 560.0643750000017,
      "v": 107
    },
    {
      "midi": 36,
      "hit": false,
      "t": 106493.40000000037,
      "d": 175.86562500000582,
      "v": 86
    },
    {
      "midi": 59,
      "hit": false,
      "t": 106623.27000000009,
      "d": 56.81812500000524,
      "v": 67
    },
    {
      "midi": 45,
      "hit": false,
      "t": 106745.02312500011,
      "d": 86.58000000000175,
      "v": 52
    },
    {
      "midi": 59,
      "hit": false,
      "t": 106745.02312500011,
      "d": 86.58000000000175,
      "v": 73
    },
    {
      "midi": 60,
      "hit": false,
      "t": 106747.72875000011,
      "d": 86.58000000000175,
      "v": 73
    },
    {
      "midi": 67,
      "hit": false,
      "t": 106747.72875000011,
      "d": 110.93062500000815,
      "v": 73
    },
    {
      "midi": 64,
      "hit": false,
      "t": 106750.43437500011,
      "d": 81.16874999999709,
      "v": 64
    },
    {
      "midi": 64,
      "hit": false,
      "t": 106753.1400000001,
      "d": 51.40687500000058,
      "v": 67
    },
    {
      "midi": 36,
      "hit": false,
      "t": 106753.14000000038,
      "d": 35.173125000001164,
      "v": 70
    },
    {
      "midi": 59,
      "hit": false,
      "t": 106883.0100000001,
      "d": 48.701249999998254,
      "v": 67
    },
    {
      "midi": 36,
      "hit": false,
      "t": 106891.12687500038,
      "d": 54.11250000000291,
      "v": 90
    },
    {
      "midi": 64,
      "hit": false,
      "t": 106985.82375000003,
      "d": 549.241875000007,
      "v": 81
    },
    {
      "midi": 64,
      "hit": false,
      "t": 107007.46875,
      "d": 508.65750000000116,
      "v": 107
    },
    {
      "midi": 60,
      "hit": false,
      "t": 107012.88000000009,
      "d": 54.11250000000291,
      "v": 67
    },
    {
      "midi": 40,
      "hit": false,
      "t": 107012.88000000038,
      "d": 175.86562500000582,
      "v": 86
    },
    {
      "midi": 64,
      "hit": false,
      "t": 107142.7500000001,
      "d": 51.40687500000058,
      "v": 67
    },
    {
      "midi": 45,
      "hit": false,
      "t": 107264.50312500012,
      "d": 86.58000000000175,
      "v": 52
    },
    {
      "midi": 59,
      "hit": false,
      "t": 107264.50312500012,
      "d": 86.58000000000175,
      "v": 73
    },
    {
      "midi": 60,
      "hit": false,
      "t": 107267.20875000012,
      "d": 86.58000000000175,
      "v": 73
    },
    {
      "midi": 67,
      "hit": false,
      "t": 107267.20875000012,
      "d": 110.93062500000815,
      "v": 73
    },
    {
      "midi": 64,
      "hit": false,
      "t": 107269.91437500012,
      "d": 81.16874999999709,
      "v": 64
    },
    {
      "midi": 59,
      "hit": false,
      "t": 107272.6200000001,
      "d": 59.523749999993015,
      "v": 67
    },
    {
      "midi": 40,
      "hit": false,
      "t": 107272.62000000039,
      "d": 35.173125000001164,
      "v": 70
    },
    {
      "midi": 60,
      "hit": false,
      "t": 107402.49000000009,
      "d": 51.40687500000058,
      "v": 67
    },
    {
      "midi": 40,
      "hit": false,
      "t": 107410.60687500039,
      "d": 54.11250000000291,
      "v": 90
    },
    {
      "midi": 59,
      "hit": false,
      "t": 107510.71500000003,
      "d": 500.54062500000873,
      "v": 78
    },
    {
      "midi": 59,
      "hit": false,
      "t": 107516.12625,
      "d": 516.7743750000081,
      "v": 107
    },
    {
      "midi": 71,
      "hit": false,
      "t": 107518.83187500003,
      "d": 505.95187499999884,
      "v": 73
    },
    {
      "midi": 64,
      "hit": false,
      "t": 107532.36000000009,
      "d": 56.81812500000524,
      "v": 67
    },
    {
      "midi": 45,
      "hit": false,
      "t": 107532.3600000004,
      "d": 129.86999999999534,
      "v": 73
    },
    {
      "midi": 59,
      "hit": false,
      "t": 107662.2300000001,
      "d": 54.11250000000291,
      "v": 67
    },
    {
      "midi": 60,
      "hit": false,
      "t": 107792.10000000011,
      "d": 59.523749999993015,
      "v": 67
    },
    {
      "midi": 45,
      "hit": false,
      "t": 107792.10000000038,
      "d": 37.87875000000349,
      "v": 61
    },
    {
      "midi": 64,
      "hit": false,
      "t": 107921.9700000001,
      "d": 64.93499999999767,
      "v": 67
    },
    {
      "midi": 45,
      "hit": false,
      "t": 107921.9700000004,
      "d": 81.16874999999709,
      "v": 78
    },
    {
      "midi": 57,
      "hit": false,
      "t": 108011.25562500003,
      "d": 2056.2750000000233,
      "v": 78
    },
    {
      "midi": 57,
      "hit": false,
      "t": 108027.489375,
      "d": 2050.863750000004,
      "v": 107
    },
    {
      "midi": 69,
      "hit": false,
      "t": 108030.19500000004,
      "d": 1569.2625000000116,
      "v": 64
    },
    {
      "midi": 63,
      "hit": false,
      "t": 108032.90062500004,
      "d": 503.2462499999965,
      "v": 78
    },
    {
      "midi": 60,
      "hit": false,
      "t": 108041.01750000013,
      "d": 321.96937500001513,
      "v": 73
    },
    {
      "midi": 47,
      "hit": false,
      "t": 108043.72312500014,
      "d": 262.44562500000757,
      "v": 64
    },
    {
      "midi": 57,
      "hit": false,
      "t": 108046.42875000014,
      "d": 313.85250000000815,
      "v": 64
    },
    {
      "midi": 63,
      "hit": false,
      "t": 108046.42875000014,
      "d": 313.85250000000815,
      "v": 79
    },
    {
      "midi": 66,
      "hit": false,
      "t": 108051.8400000001,
      "d": 51.40687500000058,
      "v": 67
    },
    {
      "midi": 35,
      "hit": false,
      "t": 108051.84000000039,
      "d": 183.98249999999825,
      "v": 91
    },
    {
      "midi": 59,
      "hit": false,
      "t": 108181.7100000001,
      "d": 59.523749999993015,
      "v": 67
    },
    {
      "midi": 63,
      "hit": false,
      "t": 108311.58000000009,
      "d": 59.523749999993015,
      "v": 67
    },
    {
      "midi": 35,
      "hit": false,
      "t": 108311.5800000004,
      "d": 129.86999999999534,
      "v": 56
    },
    {
      "midi": 57,
      "hit": false,
      "t": 108425.21625000014,
      "d": 56.81812500000524,
      "v": 64
    },
    {
      "midi": 63,
      "hit": false,
      "t": 108425.21625000014,
      "d": 62.229375000009895,
      "v": 83
    },
    {
      "midi": 47,
      "hit": false,
      "t": 108427.92187500015,
      "d": 70.34625000000233,
      "v": 73
    },
    {
      "midi": 60,
      "hit": false,
      "t": 108433.33312500015,
      "d": 48.701249999998254,
      "v": 73
    },
    {
      "midi": 66,
      "hit": false,
      "t": 108441.45000000008,
      "d": 54.11250000000291,
      "v": 67
    },
    {
      "midi": 35,
      "hit": false,
      "t": 108449.5668750004,
      "d": 54.11250000000291,
      "v": 87
    },
    {
      "midi": 64,
      "hit": false,
      "t": 108525.32437500004,
      "d": 546.5362500000047,
      "v": 78
    },
    {
      "midi": 59,
      "hit": false,
      "t": 108571.3200000001,
      "d": 51.40687500000058,
      "v": 67
    },
    {
      "midi": 39,
      "hit": false,
      "t": 108571.3200000004,
      "d": 175.86562500000582,
      "v": 86
    },
    {
      "midi": 63,
      "hit": false,
      "t": 108701.19000000009,
      "d": 56.81812500000524,
      "v": 67
    },
    {
      "midi": 54,
      "hit": false,
      "t": 108828.35437499997,
      "d": 221.86125000000175,
      "v": 64
    },
    {
      "midi": 69,
      "hit": false,
      "t": 108828.35437499997,
      "d": 243.50625000000582,
      "v": 73
    },
    {
      "midi": 57,
      "hit": false,
      "t": 108828.35437499997,
      "d": 251.6231250000128,
      "v": 60
    },
    {
      "midi": 66,
      "hit": false,
      "t": 108831.0600000001,
      "d": 51.40687500000058,
      "v": 67
    },
    {
      "midi": 39,
      "hit": false,
      "t": 108831.0600000004,
      "d": 35.173125000001164,
      "v": 70
    },
    {
      "midi": 39,
      "hit": false,
      "t": 108969.04687500041,
      "d": 54.11250000000291,
      "v": 90
    },
    {
      "midi": 66,
      "hit": false,
      "t": 109063.74375000004,
      "d": 560.0643750000163,
      "v": 78
    },
    {
      "midi": 55,
      "hit": false,
      "t": 109088.09437499999,
      "d": 197.5106250000099,
      "v": 91
    },
    {
      "midi": 59,
      "hit": false,
      "t": 109090.8000000001,
      "d": 54.11250000000291,
      "v": 67
    },
    {
      "midi": 42,
      "hit": false,
      "t": 109090.80000000041,
      "d": 175.86562500000582,
      "v": 86
    },
    {
      "midi": 59,
      "hit": false,
      "t": 109093.50562499999,
      "d": 254.32875000000058,
      "v": 73
    },
    {
      "midi": 71,
      "hit": false,
      "t": 109093.50562499999,
      "d": 262.44562500000757,
      "v": 73
    },
    {
      "midi": 54,
      "hit": false,
      "t": 109347.83437499999,
      "d": 227.2725000000064,
      "v": 60
    },
    {
      "midi": 59,
      "hit": false,
      "t": 109350.54000000011,
      "d": 59.523749999993015,
      "v": 67
    },
    {
      "midi": 42,
      "hit": false,
      "t": 109350.54000000042,
      "d": 35.173125000001164,
      "v": 70
    },
    {
      "midi": 69,
      "hit": false,
      "t": 109353.245625,
      "d": 216.4499999999971,
      "v": 64
    },
    {
      "midi": 57,
      "hit": false,
      "t": 109353.245625,
      "d": 229.97812500000873,
      "v": 73
    },
    {
      "midi": 66,
      "hit": false,
      "t": 109480.4100000001,
      "d": 51.40687500000058,
      "v": 67
    },
    {
      "midi": 42,
      "hit": false,
      "t": 109488.52687500042,
      "d": 54.11250000000291,
      "v": 90
    },
    {
      "midi": 71,
      "hit": false,
      "t": 109602.16312500005,
      "d": 554.6531250000116,
      "v": 78
    },
    {
      "midi": 52,
      "hit": false,
      "t": 109607.57437500001,
      "d": 200.21624999999767,
      "v": 91
    },
    {
      "midi": 67,
      "hit": false,
      "t": 109607.57437500001,
      "d": 205.62750000000233,
      "v": 73
    },
    {
      "midi": 47,
      "hit": false,
      "t": 109610.28000000042,
      "d": 129.86999999999534,
      "v": 73
    },
    {
      "midi": 55,
      "hit": false,
      "t": 109612.98562500002,
      "d": 205.62750000000233,
      "v": 82
    },
    {
      "midi": 52,
      "hit": false,
      "t": 109867.31437500002,
      "d": 478.89562500000466,
      "v": 82
    },
    {
      "midi": 59,
      "hit": false,
      "t": 109870.0200000001,
      "d": 59.523749999993015,
      "v": 67
    },
    {
      "midi": 47,
      "hit": false,
      "t": 109870.02000000041,
      "d": 37.87875000000349,
      "v": 61
    },
    {
      "midi": 67,
      "hit": false,
      "t": 109872.72562500002,
      "d": 470.7787499999977,
      "v": 73
    },
    {
      "midi": 55,
      "hit": false,
      "t": 109872.72562500002,
      "d": 476.1900000000023,
      "v": 73
    },
    {
      "midi": 64,
      "hit": false,
      "t": 109999.8900000001,
      "d": 51.40687500000058,
      "v": 67
    },
    {
      "midi": 47,
      "hit": false,
      "t": 109999.89000000042,
      "d": 81.16874999999709,
      "v": 78
    },
    {
      "midi": 52,
      "hit": false,
      "t": 110116.23187500014,
      "d": 313.8524999999936,
      "v": 73
    },
    {
      "midi": 64,
      "hit": false,
      "t": 110127.05437500014,
      "d": 297.6187499999942,
      "v": 77
    },
    {
      "midi": 55,
      "hit": false,
      "t": 110127.05437500014,
      "d": 305.73562500000116,
      "v": 64
    },
    {
      "midi": 59,
      "hit": false,
      "t": 110127.05437500014,
      "d": 305.73562500000116,
      "v": 73
    },
    {
      "midi": 64,
      "hit": false,
      "t": 110129.7600000001,
      "d": 56.81812500000524,
      "v": 67
    },
    {
      "midi": 28,
      "hit": false,
      "t": 110129.76000000042,
      "d": 146.10374999999476,
      "v": 91
    },
    {
      "midi": 69,
      "hit": false,
      "t": 110137.87687500006,
      "d": 514.0687499999913,
      "v": 73
    },
    {
      "midi": 59,
      "hit": false,
      "t": 110259.6300000001,
      "d": 54.11250000000291,
      "v": 67
    },
    {
      "midi": 55,
      "hit": false,
      "t": 110386.79437500003,
      "d": 359.8481250000041,
      "v": 91
    },
    {
      "midi": 60,
      "hit": false,
      "t": 110389.50000000012,
      "d": 59.523749999993015,
      "v": 67
    },
    {
      "midi": 28,
      "hit": false,
      "t": 110389.50000000041,
      "d": 73.05187500000466,
      "v": 56
    },
    {
      "midi": 71,
      "hit": false,
      "t": 110392.20562500003,
      "d": 392.3156250000029,
      "v": 82
    },
    {
      "midi": 59,
      "hit": false,
      "t": 110392.20562500003,
      "d": 430.1943750000064,
      "v": 82
    },
    {
      "midi": 52,
      "hit": false,
      "t": 110505.84187500014,
      "d": 86.58000000000175,
      "v": 56
    },
    {
      "midi": 59,
      "hit": false,
      "t": 110516.66437500014,
      "d": 67.640625,
      "v": 73
    },
    {
      "midi": 64,
      "hit": false,
      "t": 110516.66437500014,
      "d": 67.640625,
      "v": 81
    },
    {
      "midi": 55,
      "hit": false,
      "t": 110516.66437500014,
      "d": 75.75750000000698,
      "v": 73
    },
    {
      "midi": 64,
      "hit": false,
      "t": 110519.37000000011,
      "d": 64.93499999999767,
      "v": 67
    },
    {
      "midi": 28,
      "hit": false,
      "t": 110527.48687500041,
      "d": 54.11250000000291,
      "v": 87
    },
    {
      "midi": 67,
      "hit": false,
      "t": 110624.88937500006,
      "d": 522.1856249999983,
      "v": 73
    },
    {
      "midi": 59,
      "hit": false,
      "t": 110649.2400000001,
      "d": 54.11250000000291,
      "v": 67
    },
    {
      "midi": 31,
      "hit": false,
      "t": 110649.24000000041,
      "d": 129.86999999999534,
      "v": 73
    },
    {
      "midi": 59,
      "hit": false,
      "t": 110779.11000000012,
      "d": 43.2899999999936,
      "v": 67
    },
    {
      "midi": 64,
      "hit": false,
      "t": 110908.98000000011,
      "d": 64.93499999999767,
      "v": 67
    },
    {
      "midi": 31,
      "hit": false,
      "t": 110908.9800000004,
      "d": 62.22937499999534,
      "v": 56
    },
    {
      "midi": 31,
      "hit": false,
      "t": 111046.9668750004,
      "d": 54.11250000000291,
      "v": 87
    },
    {
      "midi": 66,
      "hit": false,
      "t": 111147.07500000006,
      "d": 541.125,
      "v": 73
    },
    {
      "midi": 59,
      "hit": false,
      "t": 111168.7200000001,
      "d": 64.93499999999767,
      "v": 67
    },
    {
      "midi": 35,
      "hit": false,
      "t": 111168.72000000041,
      "d": 175.86562500000582,
      "v": 86
    },
    {
      "midi": 64,
      "hit": false,
      "t": 111298.5900000001,
      "d": 54.11250000000291,
      "v": 67
    },
    {
      "midi": 45,
      "hit": false,
      "t": 111417.63750000014,
      "d": 357.14250000000175,
      "v": 73
    },
    {
      "midi": 55,
      "hit": false,
      "t": 111425.75437500015,
      "d": 303.02999999999884,
      "v": 73
    },
    {
      "midi": 64,
      "hit": false,
      "t": 111425.75437500015,
      "d": 319.26374999999825,
      "v": 82
    },
    {
      "midi": 55,
      "hit": false,
      "t": 111428.46000000011,
      "d": 43.2899999999936,
      "v": 67
    },
    {
      "midi": 35,
      "hit": false,
      "t": 111428.46000000041,
      "d": 35.173125000001164,
      "v": 70
    },
    {
      "midi": 67,
      "hit": false,
      "t": 111431.16562500004,
      "d": 200.21624999999767,
      "v": 73
    },
    {
      "midi": 52,
      "hit": false,
      "t": 111431.16562500004,
      "d": 202.921875,
      "v": 82
    },
    {
      "midi": 55,
      "hit": false,
      "t": 111431.16562500004,
      "d": 216.4499999999971,
      "v": 73
    },
    {
      "midi": 55,
      "hit": false,
      "t": 111558.3300000001,
      "d": 64.93499999999767,
      "v": 67
    },
    {
      "midi": 35,
      "hit": false,
      "t": 111566.44687500042,
      "d": 54.11250000000291,
      "v": 90
    },
    {
      "midi": 64,
      "hit": false,
      "t": 111674.67187500006,
      "d": 530.3025000000052,
      "v": 73
    },
    {
      "midi": 40,
      "hit": false,
      "t": 111688.20000000042,
      "d": 129.86999999999534,
      "v": 73
    },
    {
      "midi": 69,
      "hit": false,
      "t": 111815.36437500003,
      "d": 208.33312500000466,
      "v": 73
    },
    {
      "midi": 54,
      "hit": false,
      "t": 111818.07000000004,
      "d": 200.21624999999767,
      "v": 64
    },
    {
      "midi": 57,
      "hit": false,
      "t": 111820.77562500004,
      "d": 200.21624999999767,
      "v": 73
    },
    {
      "midi": 47,
      "hit": false,
      "t": 111820.77562500014,
      "d": 354.4368749999994,
      "v": 73
    },
    {
      "midi": 57,
      "hit": false,
      "t": 111826.18687500014,
      "d": 327.38062500000524,
      "v": 64
    },
    {
      "midi": 66,
      "hit": false,
      "t": 111826.18687500014,
      "d": 338.203125,
      "v": 91
    },
    {
      "midi": 59,
      "hit": false,
      "t": 111947.9400000001,
      "d": 43.2899999999936,
      "v": 67
    },
    {
      "midi": 40,
      "hit": false,
      "t": 111947.94000000041,
      "d": 37.87875000000349,
      "v": 61
    },
    {
      "midi": 64,
      "hit": false,
      "t": 112077.8100000001,
      "d": 64.93499999999767,
      "v": 67
    },
    {
      "midi": 40,
      "hit": false,
      "t": 112077.81000000042,
      "d": 81.16874999999709,
      "v": 78
    },
    {
      "midi": 62,
      "hit": false,
      "t": 112202.26875000006,
      "d": 3685.061249999999,
      "v": 73
    },
    {
      "midi": 48,
      "hit": false,
      "t": 112202.26875000013,
      "d": 367.9650000000256,
      "v": 64
    },
    {
      "midi": 55,
      "hit": false,
      "t": 112204.97437500003,
      "d": 335.4974999999977,
      "v": 100
    },
    {
      "midi": 64,
      "hit": false,
      "t": 112204.97437500014,
      "d": 327.38062500000524,
      "v": 73
    },
    {
      "midi": 59,
      "hit": false,
      "t": 112204.97437500014,
      "d": 335.4975000000122,
      "v": 60
    },
    {
      "midi": 62,
      "hit": false,
      "t": 112204.97437500014,
      "d": 335.4975000000122,
      "v": 82
    },
    {
      "midi": 67,
      "hit": false,
      "t": 112204.97437500014,
      "d": 343.6143750000192,
      "v": 85
    },
    {
      "midi": 76,
      "hit": false,
      "t": 112207.68000000001,
      "d": 45.995624999995925,
      "v": 127
    },
    {
      "midi": 60,
      "hit": false,
      "t": 112207.6800000001,
      "d": 75.75750000000698,
      "v": 67
    },
    {
      "midi": 36,
      "hit": false,
      "t": 112207.68000000042,
      "d": 183.98249999999825,
      "v": 91
    },
    {
      "midi": 71,
      "hit": false,
      "t": 112210.38562500004,
      "d": 338.203125,
      "v": 82
    },
    {
      "midi": 59,
      "hit": false,
      "t": 112210.38562500004,
      "d": 346.320000000007,
      "v": 82
    },
    {
      "midi": 76,
      "hit": false,
      "t": 112464.71437500001,
      "d": 70.34625000000233,
      "v": 127
    },
    {
      "midi": 64,
      "hit": false,
      "t": 112467.4200000001,
      "d": 59.523749999993015,
      "v": 67
    },
    {
      "midi": 36,
      "hit": false,
      "t": 112467.42000000042,
      "d": 108.22500000000582,
      "v": 56
    },
    {
      "midi": 67,
      "hit": false,
      "t": 112591.87875000016,
      "d": 83.87437500001397,
      "v": 60
    },
    {
      "midi": 74,
      "hit": false,
      "t": 112594.584375,
      "d": 48.701249999998254,
      "v": 127
    },
    {
      "midi": 55,
      "hit": false,
      "t": 112594.58437500005,
      "d": 108.22500000000582,
      "v": 91
    },
    {
      "midi": 64,
      "hit": false,
      "t": 112594.58437500017,
      "d": 54.11250000000291,
      "v": 73
    },
    {
      "midi": 62,
      "hit": false,
      "t": 112597.2900000001,
      "d": 78.46312499999476,
      "v": 67
    },
    {
      "midi": 59,
      "hit": false,
      "t": 112597.29000000017,
      "d": 75.75750000000698,
      "v": 73
    },
    {
      "midi": 62,
      "hit": false,
      "t": 112597.29000000017,
      "d": 75.75750000000698,
      "v": 64
    },
    {
      "midi": 48,
      "hit": false,
      "t": 112597.29000000017,
      "d": 81.16875000001164,
      "v": 64
    },
    {
      "midi": 71,
      "hit": false,
      "t": 112599.99562500005,
      "d": 89.28562500000407,
      "v": 82
    },
    {
      "midi": 59,
      "hit": false,
      "t": 112599.99562500005,
      "d": 108.22500000000582,
      "v": 82
    },
    {
      "midi": 36,
      "hit": false,
      "t": 112605.40687500042,
      "d": 54.11250000000291,
      "v": 87
    },
    {
      "midi": 40,
      "hit": false,
      "t": 112727.16000000043,
      "d": 175.86562500000582,
      "v": 86
    },
    {
      "midi": 67,
      "hit": false,
      "t": 112857.03000000009,
      "d": 56.81812500000524,
      "v": 67
    },
    {
      "midi": 74,
      "hit": false,
      "t": 112859.735625,
      "d": 73.05187500000466,
      "v": 127
    },
    {
      "midi": 71,
      "hit": false,
      "t": 112986.90000000001,
      "d": 56.81812500000524,
      "v": 127
    },
    {
      "midi": 64,
      "hit": false,
      "t": 112986.9000000001,
      "d": 51.40687500000058,
      "v": 67
    },
    {
      "midi": 40,
      "hit": false,
      "t": 112986.90000000043,
      "d": 35.173125000001164,
      "v": 70
    },
    {
      "midi": 59,
      "hit": false,
      "t": 113116.77000000009,
      "d": 48.701249999998254,
      "v": 67
    },
    {
      "midi": 40,
      "hit": false,
      "t": 113124.88687500043,
      "d": 54.11250000000291,
      "v": 90
    },
    {
      "midi": 69,
      "hit": false,
      "t": 113246.64000000001,
      "d": 48.701249999998254,
      "v": 127
    },
    {
      "midi": 69,
      "hit": false,
      "t": 113246.64000000009,
      "d": 54.11250000000291,
      "v": 67
    },
    {
      "midi": 43,
      "hit": false,
      "t": 113246.64000000044,
      "d": 175.86562500000582,
      "v": 86
    },
    {
      "midi": 64,
      "hit": false,
      "t": 113376.5100000001,
      "d": 51.40687500000058,
      "v": 67
    },
    {
      "midi": 71,
      "hit": false,
      "t": 113500.96875000001,
      "d": 62.22937499999534,
      "v": 127
    },
    {
      "midi": 59,
      "hit": false,
      "t": 113506.38000000009,
      "d": 59.523749999993015,
      "v": 67
    },
    {
      "midi": 43,
      "hit": false,
      "t": 113506.38000000044,
      "d": 35.173125000001164,
      "v": 70
    },
    {
      "midi": 67,
      "hit": false,
      "t": 113509.08562500007,
      "d": 116.34187499999825,
      "v": 73
    },
    {
      "midi": 52,
      "hit": false,
      "t": 113509.08562500007,
      "d": 178.5712499999936,
      "v": 82
    },
    {
      "midi": 55,
      "hit": false,
      "t": 113509.08562500007,
      "d": 183.98249999999825,
      "v": 73
    },
    {
      "midi": 60,
      "hit": false,
      "t": 113636.25000000009,
      "d": 51.40687500000058,
      "v": 67
    },
    {
      "midi": 43,
      "hit": false,
      "t": 113644.36687500044,
      "d": 54.11250000000291,
      "v": 90
    },
    {
      "midi": 67,
      "hit": false,
      "t": 113760.70875,
      "d": 62.22937499999534,
      "v": 127
    },
    {
      "midi": 55,
      "hit": false,
      "t": 113766.12000000008,
      "d": 56.81812500000524,
      "v": 67
    },
    {
      "midi": 48,
      "hit": false,
      "t": 113766.12000000045,
      "d": 129.86999999999534,
      "v": 73
    },
    {
      "midi": 59,
      "hit": false,
      "t": 113895.99000000009,
      "d": 54.11250000000291,
      "v": 67
    },
    {
      "midi": 54,
      "hit": false,
      "t": 113898.69562500007,
      "d": 154.22062500000175,
      "v": 82
    },
    {
      "midi": 57,
      "hit": false,
      "t": 113898.69562500007,
      "d": 156.92625000000407,
      "v": 73
    },
    {
      "midi": 69,
      "hit": false,
      "t": 113898.69562500007,
      "d": 156.92625000000407,
      "v": 82
    },
    {
      "midi": 60,
      "hit": false,
      "t": 114025.8600000001,
      "d": 59.523749999993015,
      "v": 67
    },
    {
      "midi": 48,
      "hit": false,
      "t": 114025.86000000044,
      "d": 37.87875000000349,
      "v": 58
    },
    {
      "midi": 64,
      "hit": false,
      "t": 114155.7300000001,
      "d": 64.93499999999767,
      "v": 67
    },
    {
      "midi": 48,
      "hit": false,
      "t": 114155.73000000045,
      "d": 81.16874999999709,
      "v": 87
    },
    {
      "midi": 55,
      "hit": false,
      "t": 114277.48312500017,
      "d": 351.73125000001164,
      "v": 73
    },
    {
      "midi": 59,
      "hit": false,
      "t": 114277.48312500017,
      "d": 351.73125000001164,
      "v": 73
    },
    {
      "midi": 45,
      "hit": false,
      "t": 114280.18875000018,
      "d": 292.2075000000041,
      "v": 68
    },
    {
      "midi": 60,
      "hit": false,
      "t": 114280.18875000018,
      "d": 346.320000000007,
      "v": 56
    },
    {
      "midi": 55,
      "hit": false,
      "t": 114282.89437500008,
      "d": 359.8481250000041,
      "v": 100
    },
    {
      "midi": 64,
      "hit": false,
      "t": 114282.89437500018,
      "d": 346.320000000007,
      "v": 82
    },
    {
      "midi": 76,
      "hit": false,
      "t": 114285.6,
      "d": 43.2899999999936,
      "v": 127
    },
    {
      "midi": 59,
      "hit": false,
      "t": 114285.6000000001,
      "d": 75.75750000000698,
      "v": 67
    },
    {
      "midi": 33,
      "hit": false,
      "t": 114285.60000000044,
      "d": 183.98249999999825,
      "v": 91
    },
    {
      "midi": 59,
      "hit": false,
      "t": 114288.30562500008,
      "d": 327.38062500000524,
      "v": 82
    },
    {
      "midi": 71,
      "hit": false,
      "t": 114288.30562500008,
      "d": 367.9649999999965,
      "v": 82
    },
    {
      "midi": 76,
      "hit": false,
      "t": 114529.10625,
      "d": 67.640625,
      "v": 127
    },
    {
      "midi": 64,
      "hit": false,
      "t": 114545.3400000001,
      "d": 59.523749999993015,
      "v": 67
    },
    {
      "midi": 33,
      "hit": false,
      "t": 114545.34000000045,
      "d": 129.86999999999534,
      "v": 56
    },
    {
      "midi": 74,
      "hit": false,
      "t": 114658.97624999999,
      "d": 45.995624999995925,
      "v": 127
    },
    {
      "midi": 60,
      "hit": false,
      "t": 114661.68187500018,
      "d": 83.87437500001397,
      "v": 64
    },
    {
      "midi": 45,
      "hit": false,
      "t": 114667.09312500019,
      "d": 67.64062500001455,
      "v": 60
    },
    {
      "midi": 64,
      "hit": false,
      "t": 114672.5043750002,
      "d": 54.11250000000291,
      "v": 82
    },
    {
      "midi": 59,
      "hit": false,
      "t": 114672.5043750002,
      "d": 56.81812500000524,
      "v": 82
    },
    {
      "midi": 55,
      "hit": false,
      "t": 114672.5043750002,
      "d": 62.229375000009895,
      "v": 73
    },
    {
      "midi": 62,
      "hit": false,
      "t": 114675.2100000001,
      "d": 78.46312499999476,
      "v": 67
    },
    {
      "midi": 59,
      "hit": false,
      "t": 114677.91562500008,
      "d": 86.58000000000175,
      "v": 82
    },
    {
      "midi": 71,
      "hit": false,
      "t": 114677.91562500008,
      "d": 89.28562500000407,
      "v": 91
    },
    {
      "midi": 55,
      "hit": false,
      "t": 114677.91562500008,
      "d": 108.22500000000582,
      "v": 91
    },
    {
      "midi": 33,
      "hit": false,
      "t": 114683.32687500045,
      "d": 54.11250000000291,
      "v": 87
    },
    {
      "midi": 36,
      "hit": false,
      "t": 114805.08000000045,
      "d": 175.86562500000582,
      "v": 86
    },
    {
      "midi": 74,
      "hit": false,
      "t": 114924.12749999999,
      "d": 73.05187500000466,
      "v": 127
    },
    {
      "midi": 67,
      "hit": false,
      "t": 114934.95000000008,
      "d": 56.81812500000524,
      "v": 67
    },
    {
      "midi": 71,
      "hit": false,
      "t": 115056.70312499999,
      "d": 51.40687500000058,
      "v": 127
    },
    {
      "midi": 64,
      "hit": false,
      "t": 115064.8200000001,
      "d": 51.40687500000058,
      "v": 67
    },
    {
      "midi": 36,
      "hit": false,
      "t": 115064.82000000046,
      "d": 35.173125000001164,
      "v": 70
    },
    {
      "midi": 59,
      "hit": false,
      "t": 115194.69000000009,
      "d": 48.701249999998254,
      "v": 67
    },
    {
      "midi": 36,
      "hit": false,
      "t": 115202.80687500046,
      "d": 54.11250000000291,
      "v": 90
    },
    {
      "midi": 69,
      "hit": false,
      "t": 115324.56000000008,
      "d": 54.11250000000291,
      "v": 67
    },
    {
      "midi": 40,
      "hit": false,
      "t": 115324.56000000046,
      "d": 175.86562500000582,
      "v": 86
    },
    {
      "midi": 69,
      "hit": false,
      "t": 115327.26562499999,
      "d": 54.11250000000291,
      "v": 127
    },
    {
      "midi": 71,
      "hit": false,
      "t": 115451.72437499999,
      "d": 62.22937499999534,
      "v": 127
    },
    {
      "midi": 64,
      "hit": false,
      "t": 115454.4300000001,
      "d": 51.40687500000058,
      "v": 67
    },
    {
      "midi": 59,
      "hit": false,
      "t": 115584.30000000009,
      "d": 59.523749999993015,
      "v": 67
    },
    {
      "midi": 40,
      "hit": false,
      "t": 115584.30000000047,
      "d": 35.173125000001164,
      "v": 70
    },
    {
      "midi": 67,
      "hit": false,
      "t": 115587.00562499999,
      "d": 37.87875000000349,
      "v": 127
    },
    {
      "midi": 60,
      "hit": false,
      "t": 115714.17000000009,
      "d": 51.40687500000058,
      "v": 67
    },
    {
      "midi": 40,
      "hit": false,
      "t": 115722.28687500047,
      "d": 54.11250000000291,
      "v": 90
    },
    {
      "midi": 64,
      "hit": false,
      "t": 115841.33437499999,
      "d": 67.640625,
      "v": 127
    },
    {
      "midi": 55,
      "hit": false,
      "t": 115844.04000000008,
      "d": 56.81812500000524,
      "v": 67
    },
    {
      "midi": 45,
      "hit": false,
      "t": 115844.04000000047,
      "d": 129.86999999999534,
      "v": 73
    },
    {
      "midi": 59,
      "hit": false,
      "t": 115973.91000000009,
      "d": 54.11250000000291,
      "v": 67
    },
    {
      "midi": 60,
      "hit": false,
      "t": 116103.7800000001,
      "d": 59.523749999993015,
      "v": 67
    },
    {
      "midi": 45,
      "hit": false,
      "t": 116103.78000000046,
      "d": 37.87875000000349,
      "v": 61
    },
    {
      "midi": 64,
      "hit": false,
      "t": 116233.6500000001,
      "d": 64.93499999999767,
      "v": 67
    },
    {
      "midi": 45,
      "hit": false,
      "t": 116233.65000000047,
      "d": 81.16874999999709,
      "v": 78
    },
    {
      "midi": 47,
      "hit": false,
      "t": 116358.1087500002,
      "d": 332.79187499999534,
      "v": 67
    },
    {
      "midi": 57,
      "hit": false,
      "t": 116360.8143750002,
      "d": 313.8524999999936,
      "v": 82
    },
    {
      "midi": 63,
      "hit": false,
      "t": 116360.8143750002,
      "d": 332.79187499999534,
      "v": 60
    },
    {
      "midi": 67,
      "hit": false,
      "t": 116360.8143750002,
      "d": 332.79187499999534,
      "v": 81
    },
    {
      "midi": 47,
      "hit": false,
      "t": 116363.51999999999,
      "d": 259.74000000000524,
      "v": 127
    },
    {
      "midi": 57,
      "hit": false,
      "t": 116363.51999999999,
      "d": 259.74000000000524,
      "v": 127
    },
    {
      "midi": 66,
      "hit": false,
      "t": 116363.52000000009,
      "d": 51.40687500000058,
      "v": 67
    },
    {
      "midi": 35,
      "hit": false,
      "t": 116363.52000000047,
      "d": 183.98249999999825,
      "v": 91
    },
    {
      "midi": 63,
      "hit": false,
      "t": 116366.22562499999,
      "d": 270.56250000001455,
      "v": 127
    },
    {
      "midi": 71,
      "hit": false,
      "t": 116368.93125,
      "d": 246.2118749999936,
      "v": 127
    },
    {
      "midi": 62,
      "hit": false,
      "t": 116368.93125,
      "d": 257.0343750000029,
      "v": 127
    },
    {
      "midi": 67,
      "hit": false,
      "t": 116368.93125,
      "d": 259.74000000000524,
      "v": 127
    },
    {
      "midi": 59,
      "hit": false,
      "t": 116493.39000000009,
      "d": 59.523749999993015,
      "v": 67
    },
    {
      "midi": 63,
      "hit": false,
      "t": 116623.26000000008,
      "d": 59.523749999993015,
      "v": 67
    },
    {
      "midi": 35,
      "hit": false,
      "t": 116623.26000000047,
      "d": 129.86999999999534,
      "v": 56
    },
    {
      "midi": 47,
      "hit": false,
      "t": 116745.01312500001,
      "d": 54.11250000000291,
      "v": 127
    },
    {
      "midi": 57,
      "hit": false,
      "t": 116745.01312500001,
      "d": 54.11250000000291,
      "v": 127
    },
    {
      "midi": 63,
      "hit": false,
      "t": 116747.71875000001,
      "d": 56.81812500000524,
      "v": 127
    },
    {
      "midi": 62,
      "hit": false,
      "t": 116747.71875000001,
      "d": 59.52375000000757,
      "v": 127
    },
    {
      "midi": 67,
      "hit": false,
      "t": 116750.42437500002,
      "d": 54.11250000000291,
      "v": 127
    },
    {
      "midi": 47,
      "hit": false,
      "t": 116750.4243750002,
      "d": 83.87437499999942,
      "v": 73
    },
    {
      "midi": 67,
      "hit": false,
      "t": 116750.4243750002,
      "d": 83.87437499999942,
      "v": 64
    },
    {
      "midi": 57,
      "hit": false,
      "t": 116750.4243750002,
      "d": 102.81375000000116,
      "v": 73
    },
    {
      "midi": 71,
      "hit": false,
      "t": 116753.13000000002,
      "d": 59.52375000000757,
      "v": 127
    },
    {
      "midi": 63,
      "hit": false,
      "t": 116753.13000000021,
      "d": 91.99124999999185,
      "v": 60
    },
    {
      "midi": 35,
      "hit": false,
      "t": 116761.24687500048,
      "d": 54.11250000000291,
      "v": 87
    },
    {
      "midi": 59,
      "hit": false,
      "t": 116883.00000000007,
      "d": 51.40687500000058,
      "v": 67
    },
    {
      "midi": 39,
      "hit": false,
      "t": 116883.00000000048,
      "d": 175.86562500000582,
      "v": 86
    },
    {
      "midi": 63,
      "hit": false,
      "t": 117012.87000000007,
      "d": 56.81812500000524,
      "v": 67
    },
    {
      "midi": 47,
      "hit": false,
      "t": 117140.0343750002,
      "d": 83.87437499999942,
      "v": 73
    },
    {
      "midi": 67,
      "hit": false,
      "t": 117140.0343750002,
      "d": 83.87437499999942,
      "v": 64
    },
    {
      "midi": 57,
      "hit": false,
      "t": 117140.0343750002,
      "d": 102.81375000000116,
      "v": 73
    },
    {
      "midi": 59,
      "hit": false,
      "t": 117142.74000000008,
      "d": 51.40687500000058,
      "v": 67
    },
    {
      "midi": 63,
      "hit": false,
      "t": 117142.74000000021,
      "d": 91.99124999999185,
      "v": 60
    },
    {
      "midi": 39,
      "hit": false,
      "t": 117142.74000000049,
      "d": 35.173125000001164,
      "v": 70
    },
    {
      "midi": 63,
      "hit": false,
      "t": 117272.61000000007,
      "d": 37.87875000000349,
      "v": 67
    },
    {
      "midi": 39,
      "hit": false,
      "t": 117280.72687500049,
      "d": 54.11250000000291,
      "v": 90
    },
    {
      "midi": 67,
      "hit": false,
      "t": 117399.77437500008,
      "d": 219.15562499999942,
      "v": 73
    },
    {
      "midi": 55,
      "hit": false,
      "t": 117399.77437500008,
      "d": 224.56687500000407,
      "v": 91
    },
    {
      "midi": 59,
      "hit": false,
      "t": 117402.48000000008,
      "d": 54.11250000000291,
      "v": 67
    },
    {
      "midi": 42,
      "hit": false,
      "t": 117402.48000000049,
      "d": 175.86562500000582,
      "v": 86
    },
    {
      "midi": 59,
      "hit": false,
      "t": 117532.3500000001,
      "d": 59.523749999993015,
      "v": 67
    },
    {
      "midi": 64,
      "hit": false,
      "t": 117659.51437500009,
      "d": 219.15562499999942,
      "v": 73
    },
    {
      "midi": 52,
      "hit": false,
      "t": 117659.51437500009,
      "d": 224.56687500000407,
      "v": 82
    },
    {
      "midi": 55,
      "hit": false,
      "t": 117662.22000000009,
      "d": 51.40687500000058,
      "v": 67
    },
    {
      "midi": 42,
      "hit": false,
      "t": 117662.2200000005,
      "d": 35.173125000001164,
      "v": 70
    },
    {
      "midi": 57,
      "hit": false,
      "t": 117792.09000000008,
      "d": 51.40687500000058,
      "v": 67
    },
    {
      "midi": 42,
      "hit": false,
      "t": 117800.2068750005,
      "d": 54.11250000000291,
      "v": 90
    },
    {
      "midi": 50,
      "hit": false,
      "t": 117919.25437500009,
      "d": 202.921875,
      "v": 82
    },
    {
      "midi": 62,
      "hit": false,
      "t": 117919.25437500009,
      "d": 232.6837499999965,
      "v": 73
    },
    {
      "midi": 59,
      "hit": false,
      "t": 117921.96000000008,
      "d": 59.523749999993015,
      "v": 67
    },
    {
      "midi": 47,
      "hit": false,
      "t": 117921.9600000005,
      "d": 129.86999999999534,
      "v": 73
    },
    {
      "midi": 55,
      "hit": false,
      "t": 118051.83000000007,
      "d": 59.523749999993015,
      "v": 67
    },
    {
      "midi": 52,
      "hit": false,
      "t": 118178.99437500008,
      "d": 771.1031250000087,
      "v": 91
    },
    {
      "midi": 50,
      "hit": false,
      "t": 118181.70000000007,
      "d": 59.523749999993015,
      "v": 67
    },
    {
      "midi": 47,
      "hit": false,
      "t": 118181.70000000049,
      "d": 37.87875000000349,
      "v": 61
    },
    {
      "midi": 64,
      "hit": false,
      "t": 118184.40562500009,
      "d": 760.2806249999994,
      "v": 82
    },
    {
      "midi": 47,
      "hit": false,
      "t": 118311.5700000005,
      "d": 81.16874999999709,
      "v": 78
    },
    {
      "midi": 52,
      "hit": false,
      "t": 118441.44000000006,
      "d": 56.81812500000524,
      "v": 67
    },
    {
      "midi": 28,
      "hit": false,
      "t": 118441.4400000005,
      "d": 183.98249999999825,
      "v": 91
    },
    {
      "midi": 52,
      "hit": false,
      "t": 118571.31000000007,
      "d": 54.11250000000291,
      "v": 67
    },
    {
      "midi": 54,
      "hit": false,
      "t": 118679.5350000002,
      "d": 75.75749999999243,
      "v": 68
    },
    {
      "midi": 55,
      "hit": false,
      "t": 118690.3575000002,
      "d": 140.69250000000466,
      "v": 92
    },
    {
      "midi": 55,
      "hit": false,
      "t": 118701.18000000008,
      "d": 54.11250000000291,
      "v": 67
    },
    {
      "midi": 28,
      "hit": false,
      "t": 118701.1800000005,
      "d": 105.51937500000349,
      "v": 56
    },
    {
      "midi": 52,
      "hit": false,
      "t": 118706.5912500002,
      "d": 129.8700000000099,
      "v": 60
    },
    {
      "midi": 52,
      "hit": false,
      "t": 118831.05000000009,
      "d": 64.93499999999767,
      "v": 67
    },
    {
      "midi": 28,
      "hit": false,
      "t": 118839.1668750005,
      "d": 54.11250000000291,
      "v": 87
    },
    {
      "midi": 55,
      "hit": false,
      "t": 118960.92000000009,
      "d": 54.11250000000291,
      "v": 67
    },
    {
      "midi": 31,
      "hit": false,
      "t": 118960.92000000051,
      "d": 175.86562500000582,
      "v": 86
    },
    {
      "midi": 55,
      "hit": false,
      "t": 119090.7900000001,
      "d": 43.2899999999936,
      "v": 67
    },
    {
      "midi": 54,
      "hit": false,
      "t": 119093.49562500021,
      "d": 62.229375000009895,
      "v": 66
    },
    {
      "midi": 55,
      "hit": false,
      "t": 119112.43500000022,
      "d": 140.69250000000466,
      "v": 92
    },
    {
      "midi": 52,
      "hit": false,
      "t": 119120.55187500022,
      "d": 129.86999999999534,
      "v": 56
    },
    {
      "midi": 57,
      "hit": false,
      "t": 119220.66000000009,
      "d": 43.2899999999936,
      "v": 67
    },
    {
      "midi": 31,
      "hit": false,
      "t": 119220.66000000051,
      "d": 35.173125000001164,
      "v": 70
    },
    {
      "midi": 55,
      "hit": false,
      "t": 119350.53000000009,
      "d": 54.11250000000291,
      "v": 67
    },
    {
      "midi": 31,
      "hit": false,
      "t": 119358.64687500052,
      "d": 54.11250000000291,
      "v": 90
    },
    {
      "midi": 59,
      "hit": false,
      "t": 119480.4000000001,
      "d": 51.40687500000058,
      "v": 67
    },
    {
      "midi": 35,
      "hit": false,
      "t": 119480.40000000052,
      "d": 175.86562500000582,
      "v": 86
    },
    {
      "midi": 57,
      "hit": false,
      "t": 119610.27000000009,
      "d": 43.2899999999936,
      "v": 67
    },
    {
      "midi": 59,
      "hit": false,
      "t": 119732.02312500007,
      "d": 419.3718749999971,
      "v": 73
    },
    {
      "midi": 52,
      "hit": false,
      "t": 119737.43437500008,
      "d": 313.85250000000815,
      "v": 82
    },
    {
      "midi": 55,
      "hit": false,
      "t": 119737.43437500008,
      "d": 330.08625000000757,
      "v": 82
    },
    {
      "midi": 62,
      "hit": false,
      "t": 119740.14000000009,
      "d": 43.2899999999936,
      "v": 67
    },
    {
      "midi": 45,
      "hit": false,
      "t": 119740.14000000022,
      "d": 332.79187499999534,
      "v": 73
    },
    {
      "midi": 64,
      "hit": false,
      "t": 119740.14000000022,
      "d": 340.9087500000023,
      "v": 76
    },
    {
      "midi": 35,
      "hit": false,
      "t": 119740.14000000052,
      "d": 35.173125000001164,
      "v": 70
    },
    {
      "midi": 67,
      "hit": false,
      "t": 119742.84562500009,
      "d": 240.8006250000035,
      "v": 73
    },
    {
      "midi": 55,
      "hit": false,
      "t": 119742.84562500022,
      "d": 370.67062499999884,
      "v": 73
    },
    {
      "midi": 59,
      "hit": false,
      "t": 119870.01000000008,
      "d": 64.93499999999767,
      "v": 67
    },
    {
      "midi": 35,
      "hit": false,
      "t": 119878.12687500053,
      "d": 54.11250000000291,
      "v": 90
    },
    {
      "midi": 64,
      "hit": false,
      "t": 119999.88000000008,
      "d": 51.40687500000058,
      "v": 67
    },
    {
      "midi": 40,
      "hit": false,
      "t": 119999.88000000053,
      "d": 129.86999999999534,
      "v": 73
    },
    {
      "midi": 57,
      "hit": false,
      "t": 120121.63312500007,
      "d": 403.1381249999977,
      "v": 76
    },
    {
      "midi": 62,
      "hit": false,
      "t": 120129.75000000007,
      "d": 43.2899999999936,
      "v": 67
    },
    {
      "midi": 57,
      "hit": false,
      "t": 120129.75000000009,
      "d": 305.73562500000116,
      "v": 73
    },
    {
      "midi": 66,
      "hit": false,
      "t": 120129.75000000022,
      "d": 349.0256250000093,
      "v": 76
    },
    {
      "midi": 57,
      "hit": false,
      "t": 120129.75000000022,
      "d": 384.1987500000105,
      "v": 73
    },
    {
      "midi": 69,
      "hit": false,
      "t": 120132.45562500009,
      "d": 224.56687500000407,
      "v": 82
    },
    {
      "midi": 54,
      "hit": false,
      "t": 120132.45562500009,
      "d": 292.2075000000041,
      "v": 82
    },
    {
      "midi": 47,
      "hit": false,
      "t": 120132.45562500022,
      "d": 370.6706250000134,
      "v": 73
    },
    {
      "midi": 67,
      "hit": false,
      "t": 120259.62000000007,
      "d": 43.2899999999936,
      "v": 67
    },
    {
      "midi": 40,
      "hit": false,
      "t": 120259.62000000052,
      "d": 37.87875000000349,
      "v": 61
    },
    {
      "midi": 64,
      "hit": false,
      "t": 120389.49000000006,
      "d": 64.93499999999767,
      "v": 67
    },
    {
      "midi": 40,
      "hit": false,
      "t": 120389.49000000053,
      "d": 81.16874999999709,
      "v": 78
    },
    {
      "midi": 59,
      "hit": false,
      "t": 120508.53750000006,
      "d": 2053.5693750000064,
      "v": 64
    },
    {
      "midi": 67,
      "hit": false,
      "t": 120511.24312500007,
      "d": 2075.2143750000105,
      "v": 64
    },
    {
      "midi": 59,
      "hit": false,
      "t": 120513.94875000023,
      "d": 535.7137500000099,
      "v": 64
    },
    {
      "midi": 59,
      "hit": false,
      "t": 120516.65437500009,
      "d": 432.90000000000873,
      "v": 82
    },
    {
      "midi": 48,
      "hit": false,
      "t": 120516.65437500023,
      "d": 579.003750000018,
      "v": 64
    },
    {
      "midi": 59,
      "hit": false,
      "t": 120519.36000000002,
      "d": 963.2024999999994,
      "v": 100
    },
    {
      "midi": 55,
      "hit": false,
      "t": 120519.36000000002,
      "d": 313.8524999999936,
      "v": 64
    },
    {
      "midi": 59,
      "hit": false,
      "t": 120519.36000000002,
      "d": 313.8524999999936,
      "v": 73
    },
    {
      "midi": 64,
      "hit": false,
      "t": 120519.36000000002,
      "d": 316.5581249999959,
      "v": 64
    },
    {
      "midi": 60,
      "hit": false,
      "t": 120519.36000000006,
      "d": 75.75750000000698,
      "v": 67
    },
    {
      "midi": 64,
      "hit": false,
      "t": 120519.36000000023,
      "d": 554.6531250000116,
      "v": 73
    },
    {
      "midi": 36,
      "hit": false,
      "t": 120519.36000000052,
      "d": 183.98249999999825,
      "v": 91
    },
    {
      "midi": 62,
      "hit": false,
      "t": 120522.06562500006,
      "d": 1033.5487500000017,
      "v": 73
    },
    {
      "midi": 71,
      "hit": false,
      "t": 120522.06562500009,
      "d": 335.4974999999977,
      "v": 82
    },
    {
      "midi": 55,
      "hit": false,
      "t": 120522.06562500009,
      "d": 457.2506250000006,
      "v": 82
    },
    {
      "midi": 67,
      "hit": false,
      "t": 120522.06562500024,
      "d": 522.1856249999983,
      "v": 76
    },
    {
      "midi": 60,
      "hit": false,
      "t": 120779.10000000006,
      "d": 59.523749999993015,
      "v": 67
    },
    {
      "midi": 36,
      "hit": false,
      "t": 120779.10000000053,
      "d": 108.22500000000582,
      "v": 56
    },
    {
      "midi": 64,
      "hit": false,
      "t": 120908.97000000006,
      "d": 78.46312499999476,
      "v": 67
    },
    {
      "midi": 36,
      "hit": false,
      "t": 120917.08687500053,
      "d": 54.11250000000291,
      "v": 87
    },
    {
      "midi": 40,
      "hit": false,
      "t": 121038.84000000053,
      "d": 175.86562500000582,
      "v": 86
    },
    {
      "midi": 59,
      "hit": false,
      "t": 121168.71000000005,
      "d": 56.81812500000524,
      "v": 67
    },
    {
      "midi": 67,
      "hit": false,
      "t": 121295.87437500009,
      "d": 113.63624999999593,
      "v": 73
    },
    {
      "midi": 52,
      "hit": false,
      "t": 121295.87437500009,
      "d": 173.15999999998894,
      "v": 73
    },
    {
      "midi": 55,
      "hit": false,
      "t": 121295.87437500009,
      "d": 221.8612499999872,
      "v": 73
    },
    {
      "midi": 64,
      "hit": false,
      "t": 121298.58000000006,
      "d": 51.40687500000058,
      "v": 67
    },
    {
      "midi": 40,
      "hit": false,
      "t": 121298.58000000054,
      "d": 35.173125000001164,
      "v": 70
    },
    {
      "midi": 59,
      "hit": false,
      "t": 121428.45000000006,
      "d": 48.701249999998254,
      "v": 67
    },
    {
      "midi": 40,
      "hit": false,
      "t": 121436.56687500054,
      "d": 54.11250000000291,
      "v": 90
    },
    {
      "midi": 60,
      "hit": false,
      "t": 121536.67500000006,
      "d": 549.241875000007,
      "v": 73
    },
    {
      "midi": 60,
      "hit": false,
      "t": 121539.38062500002,
      "d": 1033.5487500000017,
      "v": 106
    },
    {
      "midi": 71,
      "hit": false,
      "t": 121555.61437500008,
      "d": 362.5537500000064,
      "v": 73
    },
    {
      "midi": 59,
      "hit": false,
      "t": 121555.61437500008,
      "d": 416.6662500000093,
      "v": 82
    },
    {
      "midi": 55,
      "hit": false,
      "t": 121555.61437500008,
      "d": 459.9562500000029,
      "v": 82
    },
    {
      "midi": 60,
      "hit": false,
      "t": 121558.32000000005,
      "d": 54.11250000000291,
      "v": 67
    },
    {
      "midi": 43,
      "hit": false,
      "t": 121558.32000000055,
      "d": 175.86562500000582,
      "v": 86
    },
    {
      "midi": 64,
      "hit": false,
      "t": 121688.19000000006,
      "d": 51.40687500000058,
      "v": 67
    },
    {
      "midi": 59,
      "hit": false,
      "t": 121818.06000000006,
      "d": 59.523749999993015,
      "v": 67
    },
    {
      "midi": 43,
      "hit": false,
      "t": 121818.06000000055,
      "d": 35.173125000001164,
      "v": 70
    },
    {
      "midi": 60,
      "hit": false,
      "t": 121947.93000000005,
      "d": 51.40687500000058,
      "v": 67
    },
    {
      "midi": 43,
      "hit": false,
      "t": 121956.04687500055,
      "d": 54.11250000000291,
      "v": 90
    },
    {
      "midi": 64,
      "hit": false,
      "t": 122061.56625000006,
      "d": 527.5968750000175,
      "v": 73
    },
    {
      "midi": 72,
      "hit": false,
      "t": 122075.09437500007,
      "d": 162.33749999999418,
      "v": 73
    },
    {
      "midi": 57,
      "hit": false,
      "t": 122075.09437500007,
      "d": 224.56687499998952,
      "v": 82
    },
    {
      "midi": 60,
      "hit": false,
      "t": 122075.09437500007,
      "d": 229.97812499999418,
      "v": 73
    },
    {
      "midi": 64,
      "hit": false,
      "t": 122077.80000000005,
      "d": 56.81812500000524,
      "v": 67
    },
    {
      "midi": 48,
      "hit": false,
      "t": 122077.80000000056,
      "d": 129.86999999999534,
      "v": 73
    },
    {
      "midi": 59,
      "hit": false,
      "t": 122207.67000000006,
      "d": 54.11250000000291,
      "v": 67
    },
    {
      "midi": 71,
      "hit": false,
      "t": 122334.83437500006,
      "d": 346.320000000007,
      "v": 82
    },
    {
      "midi": 59,
      "hit": false,
      "t": 122334.83437500006,
      "d": 392.3156250000029,
      "v": 73
    },
    {
      "midi": 55,
      "hit": false,
      "t": 122334.83437500006,
      "d": 457.2506250000006,
      "v": 82
    },
    {
      "midi": 60,
      "hit": false,
      "t": 122337.54000000007,
      "d": 59.523749999993015,
      "v": 67
    },
    {
      "midi": 48,
      "hit": false,
      "t": 122337.54000000055,
      "d": 37.87875000000349,
      "v": 58
    },
    {
      "midi": 64,
      "hit": false,
      "t": 122467.41000000006,
      "d": 64.93499999999767,
      "v": 67
    },
    {
      "midi": 48,
      "hit": false,
      "t": 122467.41000000056,
      "d": 81.16874999999709,
      "v": 87
    },
    {
      "midi": 59,
      "hit": false,
      "t": 122583.75187500002,
      "d": 511.3631250000035,
      "v": 107
    },
    {
      "midi": 60,
      "hit": false,
      "t": 122583.75187500007,
      "d": 535.7137500000099,
      "v": 82
    },
    {
      "midi": 45,
      "hit": false,
      "t": 122586.45750000025,
      "d": 589.8262500000274,
      "v": 48
    },
    {
      "midi": 59,
      "hit": false,
      "t": 122594.57437500026,
      "d": 297.61875000000873,
      "v": 73
    },
    {
      "midi": 67,
      "hit": false,
      "t": 122594.57437500026,
      "d": 300.32437500001106,
      "v": 81
    },
    {
      "midi": 60,
      "hit": false,
      "t": 122597.28000000006,
      "d": 75.75750000000698,
      "v": 67
    },
    {
      "midi": 64,
      "hit": false,
      "t": 122597.28000000026,
      "d": 292.2075000000041,
      "v": 64
    },
    {
      "midi": 60,
      "hit": false,
      "t": 122597.28000000026,
      "d": 294.9131250000064,
      "v": 73
    },
    {
      "midi": 33,
      "hit": false,
      "t": 122597.28000000055,
      "d": 183.98249999999825,
      "v": 91
    },
    {
      "midi": 52,
      "hit": false,
      "t": 122851.60875000006,
      "d": 551.9475000000093,
      "v": 73
    },
    {
      "midi": 67,
      "hit": false,
      "t": 122854.31437500006,
      "d": 441.01687500000116,
      "v": 73
    },
    {
      "midi": 55,
      "hit": false,
      "t": 122854.31437500006,
      "d": 633.1162500000064,
      "v": 82
    },
    {
      "midi": 60,
      "hit": false,
      "t": 122857.02000000006,
      "d": 59.523749999993015,
      "v": 67
    },
    {
      "midi": 33,
      "hit": false,
      "t": 122857.02000000056,
      "d": 129.86999999999534,
      "v": 56
    },
    {
      "midi": 67,
      "hit": false,
      "t": 122978.77312500027,
      "d": 45.995624999995925,
      "v": 74
    },
    {
      "midi": 59,
      "hit": false,
      "t": 122981.47875000027,
      "d": 45.995624999995925,
      "v": 56
    },
    {
      "midi": 64,
      "hit": false,
      "t": 122981.47875000027,
      "d": 45.995624999995925,
      "v": 64
    },
    {
      "midi": 60,
      "hit": false,
      "t": 122981.47875000027,
      "d": 51.40687500000058,
      "v": 73
    },
    {
      "midi": 64,
      "hit": false,
      "t": 122986.89000000006,
      "d": 78.46312499999476,
      "v": 67
    },
    {
      "midi": 33,
      "hit": false,
      "t": 122995.00687500056,
      "d": 54.11250000000291,
      "v": 87
    },
    {
      "midi": 62,
      "hit": false,
      "t": 123078.88125000008,
      "d": 524.8912500000006,
      "v": 84
    },
    {
      "midi": 60,
      "hit": false,
      "t": 123095.11500000002,
      "d": 560.0643750000017,
      "v": 107
    },
    {
      "midi": 36,
      "hit": false,
      "t": 123116.76000000056,
      "d": 175.86562500000582,
      "v": 86
    },
    {
      "midi": 59,
      "hit": false,
      "t": 123246.63000000005,
      "d": 56.81812500000524,
      "v": 67
    },
    {
      "midi": 45,
      "hit": false,
      "t": 123368.38312500028,
      "d": 86.58000000000175,
      "v": 52
    },
    {
      "midi": 59,
      "hit": false,
      "t": 123368.38312500028,
      "d": 86.58000000000175,
      "v": 73
    },
    {
      "midi": 60,
      "hit": false,
      "t": 123371.08875000029,
      "d": 86.58000000000175,
      "v": 73
    },
    {
      "midi": 67,
      "hit": false,
      "t": 123371.08875000029,
      "d": 110.93062500000815,
      "v": 73
    },
    {
      "midi": 64,
      "hit": false,
      "t": 123373.79437500029,
      "d": 81.16874999999709,
      "v": 64
    },
    {
      "midi": 64,
      "hit": false,
      "t": 123376.50000000006,
      "d": 51.40687500000058,
      "v": 67
    },
    {
      "midi": 36,
      "hit": false,
      "t": 123376.50000000057,
      "d": 35.173125000001164,
      "v": 70
    },
    {
      "midi": 59,
      "hit": false,
      "t": 123506.37000000005,
      "d": 48.701249999998254,
      "v": 67
    },
    {
      "midi": 36,
      "hit": false,
      "t": 123514.48687500057,
      "d": 54.11250000000291,
      "v": 90
    },
    {
      "midi": 64,
      "hit": false,
      "t": 123609.18375000008,
      "d": 549.241875000007,
      "v": 81
    },
    {
      "midi": 64,
      "hit": false,
      "t": 123630.82875000002,
      "d": 508.65750000000116,
      "v": 107
    },
    {
      "midi": 60,
      "hit": false,
      "t": 123636.24000000005,
      "d": 54.11250000000291,
      "v": 67
    },
    {
      "midi": 40,
      "hit": false,
      "t": 123636.24000000057,
      "d": 175.86562500000582,
      "v": 86
    },
    {
      "midi": 64,
      "hit": false,
      "t": 123766.11000000006,
      "d": 51.40687500000058,
      "v": 67
    },
    {
      "midi": 45,
      "hit": false,
      "t": 123887.8631250003,
      "d": 86.58000000000175,
      "v": 52
    },
    {
      "midi": 59,
      "hit": false,
      "t": 123887.8631250003,
      "d": 86.58000000000175,
      "v": 73
    },
    {
      "midi": 60,
      "hit": false,
      "t": 123890.5687500003,
      "d": 86.58000000000175,
      "v": 73
    },
    {
      "midi": 67,
      "hit": false,
      "t": 123890.5687500003,
      "d": 110.93062500000815,
      "v": 73
    },
    {
      "midi": 64,
      "hit": false,
      "t": 123893.2743750003,
      "d": 81.16874999999709,
      "v": 64
    },
    {
      "midi": 59,
      "hit": false,
      "t": 123895.98000000005,
      "d": 59.523749999993015,
      "v": 67
    },
    {
      "midi": 40,
      "hit": false,
      "t": 123895.98000000058,
      "d": 35.173125000001164,
      "v": 70
    },
    {
      "midi": 60,
      "hit": false,
      "t": 124025.85000000005,
      "d": 51.40687500000058,
      "v": 67
    },
    {
      "midi": 40,
      "hit": false,
      "t": 124033.96687500058,
      "d": 54.11250000000291,
      "v": 90
    },
    {
      "midi": 59,
      "hit": false,
      "t": 124134.07500000008,
      "d": 500.54062500000873,
      "v": 78
    },
    {
      "midi": 59,
      "hit": false,
      "t": 124139.48625000002,
      "d": 516.7743750000081,
      "v": 107
    },
    {
      "midi": 71,
      "hit": false,
      "t": 124142.19187500009,
      "d": 505.95187499999884,
      "v": 73
    },
    {
      "midi": 64,
      "hit": false,
      "t": 124155.72000000004,
      "d": 56.81812500000524,
      "v": 67
    },
    {
      "midi": 45,
      "hit": false,
      "t": 124155.72000000058,
      "d": 129.86999999999534,
      "v": 73
    },
    {
      "midi": 59,
      "hit": false,
      "t": 124285.59000000005,
      "d": 54.11250000000291,
      "v": 67
    },
    {
      "midi": 60,
      "hit": false,
      "t": 124415.46000000006,
      "d": 59.523749999993015,
      "v": 67
    },
    {
      "midi": 45,
      "hit": false,
      "t": 124415.46000000057,
      "d": 37.87875000000349,
      "v": 61
    },
    {
      "midi": 64,
      "hit": false,
      "t": 124545.33000000006,
      "d": 64.93499999999767,
      "v": 67
    },
    {
      "midi": 45,
      "hit": false,
      "t": 124545.33000000058,
      "d": 81.16874999999709,
      "v": 78
    },
    {
      "midi": 57,
      "hit": false,
      "t": 124634.6156250001,
      "d": 2056.2750000000233,
      "v": 78
    },
    {
      "midi": 57,
      "hit": false,
      "t": 124650.84937500002,
      "d": 2050.863750000004,
      "v": 107
    },
    {
      "midi": 69,
      "hit": false,
      "t": 124653.5550000001,
      "d": 1569.2625000000116,
      "v": 64
    },
    {
      "midi": 63,
      "hit": false,
      "t": 124656.2606250001,
      "d": 503.2462499999965,
      "v": 78
    },
    {
      "midi": 60,
      "hit": false,
      "t": 124664.37750000031,
      "d": 321.96937500001513,
      "v": 73
    },
    {
      "midi": 47,
      "hit": false,
      "t": 124667.08312500031,
      "d": 262.44562500000757,
      "v": 64
    },
    {
      "midi": 57,
      "hit": false,
      "t": 124669.78875000031,
      "d": 313.85250000000815,
      "v": 64
    },
    {
      "midi": 63,
      "hit": false,
      "t": 124669.78875000031,
      "d": 313.85250000000815,
      "v": 79
    },
    {
      "midi": 66,
      "hit": false,
      "t": 124675.20000000006,
      "d": 51.40687500000058,
      "v": 67
    },
    {
      "midi": 35,
      "hit": false,
      "t": 124675.20000000058,
      "d": 183.98249999999825,
      "v": 91
    },
    {
      "midi": 59,
      "hit": false,
      "t": 124805.07000000005,
      "d": 59.523749999993015,
      "v": 67
    },
    {
      "midi": 63,
      "hit": false,
      "t": 124934.94000000005,
      "d": 59.523749999993015,
      "v": 67
    },
    {
      "midi": 35,
      "hit": false,
      "t": 124934.94000000058,
      "d": 129.86999999999534,
      "v": 56
    },
    {
      "midi": 57,
      "hit": false,
      "t": 125048.57625000032,
      "d": 56.81812500000524,
      "v": 64
    },
    {
      "midi": 63,
      "hit": false,
      "t": 125048.57625000032,
      "d": 62.229375000009895,
      "v": 83
    },
    {
      "midi": 47,
      "hit": false,
      "t": 125051.28187500032,
      "d": 70.34625000000233,
      "v": 73
    },
    {
      "midi": 60,
      "hit": false,
      "t": 125056.69312500033,
      "d": 48.701249999998254,
      "v": 73
    },
    {
      "midi": 66,
      "hit": false,
      "t": 125064.81000000004,
      "d": 54.11250000000291,
      "v": 67
    },
    {
      "midi": 35,
      "hit": false,
      "t": 125072.92687500059,
      "d": 54.11250000000291,
      "v": 87
    },
    {
      "midi": 64,
      "hit": false,
      "t": 125148.6843750001,
      "d": 546.5362500000047,
      "v": 78
    },
    {
      "midi": 59,
      "hit": false,
      "t": 125194.68000000005,
      "d": 51.40687500000058,
      "v": 67
    },
    {
      "midi": 39,
      "hit": false,
      "t": 125194.68000000059,
      "d": 175.86562500000582,
      "v": 86
    },
    {
      "midi": 63,
      "hit": false,
      "t": 125324.55000000005,
      "d": 56.81812500000524,
      "v": 67
    },
    {
      "midi": 54,
      "hit": false,
      "t": 125451.71437500007,
      "d": 221.86125000000175,
      "v": 64
    },
    {
      "midi": 69,
      "hit": false,
      "t": 125451.71437500007,
      "d": 243.50625000000582,
      "v": 73
    },
    {
      "midi": 57,
      "hit": false,
      "t": 125451.71437500007,
      "d": 251.6231250000128,
      "v": 60
    },
    {
      "midi": 66,
      "hit": false,
      "t": 125454.42000000006,
      "d": 51.40687500000058,
      "v": 67
    },
    {
      "midi": 39,
      "hit": false,
      "t": 125454.4200000006,
      "d": 35.173125000001164,
      "v": 70
    },
    {
      "midi": 39,
      "hit": false,
      "t": 125592.4068750006,
      "d": 54.11250000000291,
      "v": 90
    },
    {
      "midi": 66,
      "hit": false,
      "t": 125687.1037500001,
      "d": 560.0643750000163,
      "v": 78
    },
    {
      "midi": 55,
      "hit": false,
      "t": 125711.45437500009,
      "d": 197.5106250000099,
      "v": 91
    },
    {
      "midi": 59,
      "hit": false,
      "t": 125714.16000000006,
      "d": 54.11250000000291,
      "v": 67
    },
    {
      "midi": 42,
      "hit": false,
      "t": 125714.1600000006,
      "d": 175.86562500000582,
      "v": 86
    },
    {
      "midi": 59,
      "hit": false,
      "t": 125716.8656250001,
      "d": 254.32875000000058,
      "v": 73
    },
    {
      "midi": 71,
      "hit": false,
      "t": 125716.8656250001,
      "d": 262.44562500000757,
      "v": 73
    },
    {
      "midi": 54,
      "hit": false,
      "t": 125971.1943750001,
      "d": 227.2725000000064,
      "v": 60
    },
    {
      "midi": 59,
      "hit": false,
      "t": 125973.90000000007,
      "d": 59.523749999993015,
      "v": 67
    },
    {
      "midi": 42,
      "hit": false,
      "t": 125973.9000000006,
      "d": 35.173125000001164,
      "v": 70
    },
    {
      "midi": 69,
      "hit": false,
      "t": 125976.6056250001,
      "d": 216.4499999999971,
      "v": 64
    },
    {
      "midi": 57,
      "hit": false,
      "t": 125976.6056250001,
      "d": 229.97812500000873,
      "v": 73
    },
    {
      "midi": 66,
      "hit": false,
      "t": 126103.77000000006,
      "d": 51.40687500000058,
      "v": 67
    },
    {
      "midi": 42,
      "hit": false,
      "t": 126111.88687500061,
      "d": 54.11250000000291,
      "v": 90
    },
    {
      "midi": 71,
      "hit": false,
      "t": 126225.52312500011,
      "d": 554.6531250000116,
      "v": 78
    },
    {
      "midi": 52,
      "hit": false,
      "t": 126230.93437500011,
      "d": 200.21624999999767,
      "v": 91
    },
    {
      "midi": 67,
      "hit": false,
      "t": 126230.93437500011,
      "d": 205.62750000000233,
      "v": 73
    },
    {
      "midi": 47,
      "hit": false,
      "t": 126233.64000000061,
      "d": 129.86999999999534,
      "v": 73
    },
    {
      "midi": 55,
      "hit": false,
      "t": 126236.34562500012,
      "d": 205.62750000000233,
      "v": 82
    },
    {
      "midi": 52,
      "hit": false,
      "t": 126490.67437500012,
      "d": 478.89562500000466,
      "v": 82
    },
    {
      "midi": 59,
      "hit": false,
      "t": 126493.38000000006,
      "d": 59.523749999993015,
      "v": 67
    },
    {
      "midi": 47,
      "hit": false,
      "t": 126493.3800000006,
      "d": 37.87875000000349,
      "v": 61
    },
    {
      "midi": 67,
      "hit": false,
      "t": 126496.08562500012,
      "d": 470.7787499999977,
      "v": 73
    },
    {
      "midi": 55,
      "hit": false,
      "t": 126496.08562500012,
      "d": 476.1900000000023,
      "v": 73
    },
    {
      "midi": 64,
      "hit": false,
      "t": 126623.25000000006,
      "d": 51.40687500000058,
      "v": 67
    },
    {
      "midi": 47,
      "hit": false,
      "t": 126623.25000000061,
      "d": 81.16874999999709,
      "v": 78
    },
    {
      "midi": 52,
      "hit": false,
      "t": 126739.59187500032,
      "d": 313.8524999999936,
      "v": 73
    },
    {
      "midi": 64,
      "hit": false,
      "t": 126750.41437500031,
      "d": 297.6187499999942,
      "v": 77
    },
    {
      "midi": 55,
      "hit": false,
      "t": 126750.41437500031,
      "d": 305.73562500000116,
      "v": 64
    },
    {
      "midi": 59,
      "hit": false,
      "t": 126750.41437500031,
      "d": 305.73562500000116,
      "v": 73
    },
    {
      "midi": 64,
      "hit": false,
      "t": 126753.12000000005,
      "d": 56.81812500000524,
      "v": 67
    },
    {
      "midi": 28,
      "hit": false,
      "t": 126753.1200000006,
      "d": 146.10374999999476,
      "v": 91
    },
    {
      "midi": 69,
      "hit": false,
      "t": 126761.23687500012,
      "d": 514.0687499999913,
      "v": 73
    },
    {
      "midi": 59,
      "hit": false,
      "t": 126882.99000000006,
      "d": 54.11250000000291,
      "v": 67
    },
    {
      "midi": 55,
      "hit": false,
      "t": 127010.15437500013,
      "d": 359.8481250000041,
      "v": 91
    },
    {
      "midi": 60,
      "hit": false,
      "t": 127012.86000000007,
      "d": 59.523749999993015,
      "v": 67
    },
    {
      "midi": 28,
      "hit": false,
      "t": 127012.8600000006,
      "d": 73.05187500000466,
      "v": 56
    },
    {
      "midi": 71,
      "hit": false,
      "t": 127015.56562500013,
      "d": 392.3156250000029,
      "v": 82
    },
    {
      "midi": 59,
      "hit": false,
      "t": 127015.56562500013,
      "d": 430.1943750000064,
      "v": 82
    },
    {
      "midi": 52,
      "hit": false,
      "t": 127129.20187500032,
      "d": 86.58000000000175,
      "v": 56
    },
    {
      "midi": 59,
      "hit": false,
      "t": 127140.02437500031,
      "d": 67.640625,
      "v": 73
    },
    {
      "midi": 64,
      "hit": false,
      "t": 127140.02437500031,
      "d": 67.640625,
      "v": 81
    },
    {
      "midi": 55,
      "hit": false,
      "t": 127140.02437500031,
      "d": 75.75750000000698,
      "v": 73
    },
    {
      "midi": 64,
      "hit": false,
      "t": 127142.73000000007,
      "d": 64.93499999999767,
      "v": 67
    },
    {
      "midi": 28,
      "hit": false,
      "t": 127150.8468750006,
      "d": 54.11250000000291,
      "v": 87
    },
    {
      "midi": 67,
      "hit": false,
      "t": 127248.24937500012,
      "d": 522.1856249999983,
      "v": 73
    },
    {
      "midi": 59,
      "hit": false,
      "t": 127272.60000000006,
      "d": 54.11250000000291,
      "v": 67
    },
    {
      "midi": 31,
      "hit": false,
      "t": 127272.6000000006,
      "d": 129.86999999999534,
      "v": 73
    },
    {
      "midi": 59,
      "hit": false,
      "t": 127402.47000000007,
      "d": 43.2899999999936,
      "v": 67
    },
    {
      "midi": 64,
      "hit": false,
      "t": 127532.34000000007,
      "d": 64.93499999999767,
      "v": 67
    },
    {
      "midi": 31,
      "hit": false,
      "t": 127532.3400000006,
      "d": 62.22937499999534,
      "v": 56
    },
    {
      "midi": 31,
      "hit": false,
      "t": 127670.3268750006,
      "d": 54.11250000000291,
      "v": 87
    },
    {
      "midi": 66,
      "hit": false,
      "t": 127770.43500000011,
      "d": 541.125,
      "v": 73
    },
    {
      "midi": 59,
      "hit": false,
      "t": 127792.08000000006,
      "d": 64.93499999999767,
      "v": 67
    },
    {
      "midi": 35,
      "hit": false,
      "t": 127792.0800000006,
      "d": 175.86562500000582,
      "v": 86
    },
    {
      "midi": 64,
      "hit": false,
      "t": 127921.95000000006,
      "d": 54.11250000000291,
      "v": 67
    },
    {
      "midi": 45,
      "hit": false,
      "t": 128040.99750000032,
      "d": 357.14250000000175,
      "v": 73
    },
    {
      "midi": 55,
      "hit": false,
      "t": 128049.11437500032,
      "d": 303.02999999999884,
      "v": 73
    },
    {
      "midi": 64,
      "hit": false,
      "t": 128049.11437500032,
      "d": 319.26374999999825,
      "v": 82
    },
    {
      "midi": 55,
      "hit": false,
      "t": 128051.82000000007,
      "d": 43.2899999999936,
      "v": 67
    },
    {
      "midi": 35,
      "hit": false,
      "t": 128051.8200000006,
      "d": 35.173125000001164,
      "v": 70
    },
    {
      "midi": 67,
      "hit": false,
      "t": 128054.52562500014,
      "d": 200.21624999999767,
      "v": 73
    },
    {
      "midi": 52,
      "hit": false,
      "t": 128054.52562500014,
      "d": 202.921875,
      "v": 82
    },
    {
      "midi": 55,
      "hit": false,
      "t": 128054.52562500014,
      "d": 216.4499999999971,
      "v": 73
    },
    {
      "midi": 55,
      "hit": false,
      "t": 128181.69000000006,
      "d": 64.93499999999767,
      "v": 67
    },
    {
      "midi": 35,
      "hit": false,
      "t": 128189.8068750006,
      "d": 54.11250000000291,
      "v": 90
    },
    {
      "midi": 64,
      "hit": false,
      "t": 128298.03187500012,
      "d": 530.3025000000052,
      "v": 73
    },
    {
      "midi": 40,
      "hit": false,
      "t": 128311.56000000061,
      "d": 129.86999999999534,
      "v": 73
    },
    {
      "midi": 69,
      "hit": false,
      "t": 128438.72437500014,
      "d": 208.33312500000466,
      "v": 73
    },
    {
      "midi": 54,
      "hit": false,
      "t": 128441.43000000014,
      "d": 200.21624999999767,
      "v": 64
    },
    {
      "midi": 57,
      "hit": false,
      "t": 128444.13562500014,
      "d": 200.21624999999767,
      "v": 73
    },
    {
      "midi": 47,
      "hit": false,
      "t": 128444.13562500032,
      "d": 354.4368749999994,
      "v": 73
    },
    {
      "midi": 57,
      "hit": false,
      "t": 128449.54687500032,
      "d": 327.38062500000524,
      "v": 64
    },
    {
      "midi": 66,
      "hit": false,
      "t": 128449.54687500032,
      "d": 338.203125,
      "v": 91
    },
    {
      "midi": 59,
      "hit": false,
      "t": 128571.30000000006,
      "d": 43.2899999999936,
      "v": 67
    },
    {
      "midi": 40,
      "hit": false,
      "t": 128571.3000000006,
      "d": 37.87875000000349,
      "v": 61
    },
    {
      "midi": 64,
      "hit": false,
      "t": 128701.17000000006,
      "d": 64.93499999999767,
      "v": 67
    },
    {
      "midi": 40,
      "hit": false,
      "t": 128701.17000000061,
      "d": 81.16874999999709,
      "v": 78
    },
    {
      "midi": 62,
      "hit": false,
      "t": 128825.62875000012,
      "d": 3685.061249999999,
      "v": 73
    },
    {
      "midi": 48,
      "hit": false,
      "t": 128825.62875000031,
      "d": 367.9650000000256,
      "v": 64
    },
    {
      "midi": 55,
      "hit": false,
      "t": 128828.33437500014,
      "d": 335.4974999999977,
      "v": 100
    },
    {
      "midi": 64,
      "hit": false,
      "t": 128828.33437500031,
      "d": 327.38062500000524,
      "v": 73
    },
    {
      "midi": 59,
      "hit": false,
      "t": 128828.33437500031,
      "d": 335.4975000000122,
      "v": 60
    },
    {
      "midi": 62,
      "hit": false,
      "t": 128828.33437500031,
      "d": 335.4975000000122,
      "v": 82
    },
    {
      "midi": 67,
      "hit": false,
      "t": 128828.33437500031,
      "d": 343.6143750000192,
      "v": 85
    },
    {
      "midi": 76,
      "hit": false,
      "t": 128831.04000000002,
      "d": 45.995624999995925,
      "v": 127
    },
    {
      "midi": 60,
      "hit": false,
      "t": 128831.04000000005,
      "d": 75.75750000000698,
      "v": 67
    },
    {
      "midi": 36,
      "hit": false,
      "t": 128831.0400000006,
      "d": 183.98249999999825,
      "v": 91
    },
    {
      "midi": 71,
      "hit": false,
      "t": 128833.74562500014,
      "d": 338.203125,
      "v": 82
    },
    {
      "midi": 59,
      "hit": false,
      "t": 128833.74562500014,
      "d": 346.320000000007,
      "v": 82
    },
    {
      "midi": 76,
      "hit": false,
      "t": 129088.07437500003,
      "d": 70.34625000000233,
      "v": 127
    },
    {
      "midi": 64,
      "hit": false,
      "t": 129090.78000000006,
      "d": 59.523749999993015,
      "v": 67
    },
    {
      "midi": 36,
      "hit": false,
      "t": 129090.78000000061,
      "d": 108.22500000000582,
      "v": 56
    },
    {
      "midi": 67,
      "hit": false,
      "t": 129215.23875000034,
      "d": 83.87437500001397,
      "v": 60
    },
    {
      "midi": 74,
      "hit": false,
      "t": 129217.94437500002,
      "d": 48.701249999998254,
      "v": 127
    },
    {
      "midi": 55,
      "hit": false,
      "t": 129217.94437500015,
      "d": 108.22500000000582,
      "v": 91
    },
    {
      "midi": 64,
      "hit": false,
      "t": 129217.94437500034,
      "d": 54.11250000000291,
      "v": 73
    },
    {
      "midi": 62,
      "hit": false,
      "t": 129220.65000000005,
      "d": 78.46312499999476,
      "v": 67
    },
    {
      "midi": 59,
      "hit": false,
      "t": 129220.65000000034,
      "d": 75.75750000000698,
      "v": 73
    },
    {
      "midi": 62,
      "hit": false,
      "t": 129220.65000000034,
      "d": 75.75750000000698,
      "v": 64
    },
    {
      "midi": 48,
      "hit": false,
      "t": 129220.65000000034,
      "d": 81.16875000001164,
      "v": 64
    },
    {
      "midi": 71,
      "hit": false,
      "t": 129223.35562500016,
      "d": 89.28562500000407,
      "v": 82
    },
    {
      "midi": 59,
      "hit": false,
      "t": 129223.35562500016,
      "d": 108.22500000000582,
      "v": 82
    },
    {
      "midi": 36,
      "hit": false,
      "t": 129228.76687500061,
      "d": 54.11250000000291,
      "v": 87
    },
    {
      "midi": 40,
      "hit": false,
      "t": 129350.52000000062,
      "d": 175.86562500000582,
      "v": 86
    },
    {
      "midi": 67,
      "hit": false,
      "t": 129480.39000000004,
      "d": 56.81812500000524,
      "v": 67
    },
    {
      "midi": 74,
      "hit": false,
      "t": 129483.09562500002,
      "d": 73.05187500000466,
      "v": 127
    },
    {
      "midi": 71,
      "hit": false,
      "t": 129610.26000000002,
      "d": 56.81812500000524,
      "v": 127
    },
    {
      "midi": 64,
      "hit": false,
      "t": 129610.26000000005,
      "d": 51.40687500000058,
      "v": 67
    },
    {
      "midi": 40,
      "hit": false,
      "t": 129610.26000000062,
      "d": 35.173125000001164,
      "v": 70
    },
    {
      "midi": 59,
      "hit": false,
      "t": 129740.13000000005,
      "d": 48.701249999998254,
      "v": 67
    },
    {
      "midi": 40,
      "hit": false,
      "t": 129748.24687500062,
      "d": 54.11250000000291,
      "v": 90
    },
    {
      "midi": 69,
      "hit": false,
      "t": 129870.00000000003,
      "d": 48.701249999998254,
      "v": 127
    },
    {
      "midi": 69,
      "hit": false,
      "t": 129870.00000000004,
      "d": 54.11250000000291,
      "v": 67
    },
    {
      "midi": 43,
      "hit": false,
      "t": 129870.00000000063,
      "d": 175.86562500000582,
      "v": 86
    },
    {
      "midi": 64,
      "hit": false,
      "t": 129999.87000000005,
      "d": 51.40687500000058,
      "v": 67
    },
    {
      "midi": 71,
      "hit": false,
      "t": 130124.32875000003,
      "d": 62.22937499999534,
      "v": 127
    },
    {
      "midi": 59,
      "hit": false,
      "t": 130129.74000000005,
      "d": 59.523749999993015,
      "v": 67
    },
    {
      "midi": 43,
      "hit": false,
      "t": 130129.74000000063,
      "d": 35.173125000001164,
      "v": 70
    },
    {
      "midi": 67,
      "hit": false,
      "t": 130132.44562500017,
      "d": 116.34187499999825,
      "v": 73
    },
    {
      "midi": 52,
      "hit": false,
      "t": 130132.44562500017,
      "d": 178.5712499999936,
      "v": 82
    },
    {
      "midi": 55,
      "hit": false,
      "t": 130132.44562500017,
      "d": 183.98249999999825,
      "v": 73
    },
    {
      "midi": 60,
      "hit": false,
      "t": 130259.61000000004,
      "d": 51.40687500000058,
      "v": 67
    },
    {
      "midi": 43,
      "hit": false,
      "t": 130267.72687500063,
      "d": 54.11250000000291,
      "v": 90
    },
    {
      "midi": 67,
      "hit": false,
      "t": 130384.06875000002,
      "d": 62.22937499999534,
      "v": 127
    },
    {
      "midi": 55,
      "hit": false,
      "t": 130389.48000000004,
      "d": 56.81812500000524,
      "v": 67
    },
    {
      "midi": 48,
      "hit": false,
      "t": 130389.48000000064,
      "d": 129.86999999999534,
      "v": 73
    },
    {
      "midi": 59,
      "hit": false,
      "t": 130519.35000000005,
      "d": 54.11250000000291,
      "v": 67
    },
    {
      "midi": 54,
      "hit": false,
      "t": 130522.05562500017,
      "d": 154.22062500000175,
      "v": 82
    },
    {
      "midi": 57,
      "hit": false,
      "t": 130522.05562500017,
      "d": 156.92625000000407,
      "v": 73
    },
    {
      "midi": 69,
      "hit": false,
      "t": 130522.05562500017,
      "d": 156.92625000000407,
      "v": 82
    },
    {
      "midi": 60,
      "hit": false,
      "t": 130649.22000000006,
      "d": 59.523749999993015,
      "v": 67
    },
    {
      "midi": 48,
      "hit": false,
      "t": 130649.22000000063,
      "d": 37.87875000000349,
      "v": 58
    },
    {
      "midi": 64,
      "hit": false,
      "t": 130779.09000000005,
      "d": 64.93499999999767,
      "v": 67
    },
    {
      "midi": 48,
      "hit": false,
      "t": 130779.09000000064,
      "d": 81.16874999999709,
      "v": 87
    },
    {
      "midi": 59,
      "hit": false,
      "t": 130900.84312500035,
      "d": 351.7312499999971,
      "v": 73
    },
    {
      "midi": 67,
      "hit": false,
      "t": 130900.84312500035,
      "d": 351.7312499999971,
      "v": 73
    },
    {
      "midi": 45,
      "hit": false,
      "t": 130903.54875000035,
      "d": 292.2075000000041,
      "v": 68
    },
    {
      "midi": 60,
      "hit": false,
      "t": 130903.54875000035,
      "d": 346.31999999999243,
      "v": 56
    },
    {
      "midi": 55,
      "hit": false,
      "t": 130906.25437500018,
      "d": 359.8481250000041,
      "v": 100
    },
    {
      "midi": 64,
      "hit": false,
      "t": 130906.25437500035,
      "d": 346.31999999999243,
      "v": 82
    },
    {
      "midi": 76,
      "hit": false,
      "t": 130908.96000000002,
      "d": 43.2899999999936,
      "v": 127
    },
    {
      "midi": 59,
      "hit": false,
      "t": 130908.96000000005,
      "d": 75.75750000000698,
      "v": 67
    },
    {
      "midi": 33,
      "hit": false,
      "t": 130908.96000000063,
      "d": 183.9825000000128,
      "v": 91
    },
    {
      "midi": 59,
      "hit": false,
      "t": 130911.66562500018,
      "d": 327.38062500000524,
      "v": 82
    },
    {
      "midi": 71,
      "hit": false,
      "t": 130911.66562500018,
      "d": 367.96500000001106,
      "v": 82
    },
    {
      "midi": 76,
      "hit": false,
      "t": 131152.46625000003,
      "d": 67.640625,
      "v": 127
    },
    {
      "midi": 64,
      "hit": false,
      "t": 131168.70000000007,
      "d": 59.523749999993015,
      "v": 67
    },
    {
      "midi": 33,
      "hit": false,
      "t": 131168.70000000065,
      "d": 129.86999999999534,
      "v": 56
    },
    {
      "midi": 74,
      "hit": false,
      "t": 131282.33625000002,
      "d": 45.99562500001048,
      "v": 127
    },
    {
      "midi": 60,
      "hit": false,
      "t": 131285.04187500034,
      "d": 83.87437500001397,
      "v": 64
    },
    {
      "midi": 45,
      "hit": false,
      "t": 131290.45312500035,
      "d": 67.640625,
      "v": 60
    },
    {
      "midi": 64,
      "hit": false,
      "t": 131295.86437500035,
      "d": 54.11249999998836,
      "v": 82
    },
    {
      "midi": 59,
      "hit": false,
      "t": 131295.86437500035,
      "d": 56.81812499999069,
      "v": 82
    },
    {
      "midi": 67,
      "hit": false,
      "t": 131295.86437500035,
      "d": 62.22937499999534,
      "v": 73
    },
    {
      "midi": 62,
      "hit": false,
      "t": 131298.57000000007,
      "d": 78.46312500000931,
      "v": 67
    },
    {
      "midi": 59,
      "hit": false,
      "t": 131301.27562500018,
      "d": 86.5799999999872,
      "v": 82
    },
    {
      "midi": 71,
      "hit": false,
      "t": 131301.27562500018,
      "d": 89.28562499998952,
      "v": 91
    },
    {
      "midi": 55,
      "hit": false,
      "t": 131301.27562500018,
      "d": 108.22499999997672,
      "v": 91
    },
    {
      "midi": 33,
      "hit": false,
      "t": 131306.68687500065,
      "d": 54.11249999998836,
      "v": 87
    },
    {
      "midi": 36,
      "hit": false,
      "t": 131428.44000000064,
      "d": 175.86562500000582,
      "v": 86
    },
    {
      "midi": 74,
      "hit": false,
      "t": 131547.48750000005,
      "d": 73.05187500000466,
      "v": 127
    },
    {
      "midi": 67,
      "hit": false,
      "t": 131558.31000000008,
      "d": 56.81812499999069,
      "v": 67
    },
    {
      "midi": 60,
      "hit": false,
      "t": 131674.65187500036,
      "d": 83.87437500001397,
      "v": 64
    },
    {
      "midi": 71,
      "hit": false,
      "t": 131680.06312500004,
      "d": 51.40687499998603,
      "v": 127
    },
    {
      "midi": 45,
      "hit": false,
      "t": 131680.06312500036,
      "d": 67.640625,
      "v": 60
    },
    {
      "midi": 64,
      "hit": false,
      "t": 131685.47437500037,
      "d": 54.11249999998836,
      "v": 82
    },
    {
      "midi": 59,
      "hit": false,
      "t": 131685.47437500037,
      "d": 56.81812499999069,
      "v": 82
    },
    {
      "midi": 67,
      "hit": false,
      "t": 131685.47437500037,
      "d": 62.22937499999534,
      "v": 73
    },
    {
      "midi": 64,
      "hit": false,
      "t": 131688.18000000008,
      "d": 51.40687499998603,
      "v": 67
    },
    {
      "midi": 36,
      "hit": false,
      "t": 131688.18000000066,
      "d": 35.173125000001164,
      "v": 70
    },
    {
      "midi": 59,
      "hit": false,
      "t": 131818.05000000008,
      "d": 48.701250000012806,
      "v": 67
    },
    {
      "midi": 36,
      "hit": false,
      "t": 131826.16687500066,
      "d": 54.11249999998836,
      "v": 90
    },
    {
      "midi": 69,
      "hit": false,
      "t": 131947.9200000001,
      "d": 54.11249999998836,
      "v": 67
    },
    {
      "midi": 40,
      "hit": false,
      "t": 131947.92000000065,
      "d": 175.86562500000582,
      "v": 86
    },
    {
      "midi": 69,
      "hit": false,
      "t": 131950.62562500004,
      "d": 54.11249999998836,
      "v": 127
    },
    {
      "midi": 71,
      "hit": false,
      "t": 132075.08437500003,
      "d": 62.22937499999534,
      "v": 127
    },
    {
      "midi": 64,
      "hit": false,
      "t": 132077.7900000001,
      "d": 51.40687499998603,
      "v": 67
    },
    {
      "midi": 60,
      "hit": false,
      "t": 132194.13187500037,
      "d": 83.87437500001397,
      "v": 64
    },
    {
      "midi": 45,
      "hit": false,
      "t": 132199.54312500037,
      "d": 67.640625,
      "v": 60
    },
    {
      "midi": 64,
      "hit": false,
      "t": 132204.95437500038,
      "d": 54.11249999998836,
      "v": 82
    },
    {
      "midi": 59,
      "hit": false,
      "t": 132204.95437500038,
      "d": 56.81812499999069,
      "v": 82
    },
    {
      "midi": 67,
      "hit": false,
      "t": 132204.95437500038,
      "d": 62.22937499999534,
      "v": 73
    },
    {
      "midi": 59,
      "hit": false,
      "t": 132207.6600000001,
      "d": 59.523749999993015,
      "v": 67
    },
    {
      "midi": 40,
      "hit": false,
      "t": 132207.66000000067,
      "d": 35.173125000001164,
      "v": 70
    },
    {
      "midi": 67,
      "hit": false,
      "t": 132210.36562500003,
      "d": 37.87875000000349,
      "v": 127
    },
    {
      "midi": 60,
      "hit": false,
      "t": 132337.5300000001,
      "d": 51.40687499998603,
      "v": 67
    },
    {
      "midi": 40,
      "hit": false,
      "t": 132345.64687500068,
      "d": 54.11249999998836,
      "v": 90
    },
    {
      "midi": 64,
      "hit": false,
      "t": 132464.69437500005,
      "d": 67.640625,
      "v": 127
    },
    {
      "midi": 55,
      "hit": false,
      "t": 132467.40000000008,
      "d": 56.81812499999069,
      "v": 67
    },
    {
      "midi": 45,
      "hit": false,
      "t": 132467.40000000066,
      "d": 129.86999999999534,
      "v": 73
    },
    {
      "midi": 59,
      "hit": false,
      "t": 132597.27000000008,
      "d": 54.11249999998836,
      "v": 67
    },
    {
      "midi": 60,
      "hit": false,
      "t": 132727.14000000007,
      "d": 59.523749999993015,
      "v": 67
    },
    {
      "midi": 45,
      "hit": false,
      "t": 132727.14000000065,
      "d": 37.87875000000349,
      "v": 61
    },
    {
      "midi": 64,
      "hit": false,
      "t": 132857.01000000007,
      "d": 64.93499999999767,
      "v": 67
    },
    {
      "midi": 45,
      "hit": false,
      "t": 132857.01000000065,
      "d": 81.16875000001164,
      "v": 78
    },
    {
      "midi": 47,
      "hit": false,
      "t": 132981.46875000038,
      "d": 332.79187500002445,
      "v": 67
    },
    {
      "midi": 57,
      "hit": false,
      "t": 132984.17437500038,
      "d": 313.85250000000815,
      "v": 82
    },
    {
      "midi": 63,
      "hit": false,
      "t": 132984.17437500038,
      "d": 332.79187500002445,
      "v": 60
    },
    {
      "midi": 67,
      "hit": false,
      "t": 132984.17437500038,
      "d": 332.79187500002445,
      "v": 81
    },
    {
      "midi": 66,
      "hit": false,
      "t": 132986.88000000006,
      "d": 51.40687499998603,
      "v": 67
    },
    {
      "midi": 47,
      "hit": false,
      "t": 132986.88000000006,
      "d": 259.7400000000198,
      "v": 127
    },
    {
      "midi": 57,
      "hit": false,
      "t": 132986.88000000006,
      "d": 259.7400000000198,
      "v": 127
    },
    {
      "midi": 35,
      "hit": false,
      "t": 132986.88000000067,
      "d": 183.9825000000128,
      "v": 91
    },
    {
      "midi": 63,
      "hit": false,
      "t": 132989.58562500007,
      "d": 270.5625000000291,
      "v": 127
    },
    {
      "midi": 71,
      "hit": false,
      "t": 132992.29125000007,
      "d": 246.21187500000815,
      "v": 127
    },
    {
      "midi": 62,
      "hit": false,
      "t": 132992.29125000007,
      "d": 257.03437500001746,
      "v": 127
    },
    {
      "midi": 67,
      "hit": false,
      "t": 132992.29125000007,
      "d": 259.7400000000198,
      "v": 127
    },
    {
      "midi": 59,
      "hit": false,
      "t": 133116.75000000006,
      "d": 59.523749999993015,
      "v": 67
    },
    {
      "midi": 63,
      "hit": false,
      "t": 133246.62000000005,
      "d": 59.523749999993015,
      "v": 67
    },
    {
      "midi": 35,
      "hit": false,
      "t": 133246.6200000007,
      "d": 129.86999999999534,
      "v": 56
    },
    {
      "midi": 47,
      "hit": false,
      "t": 133368.3731250001,
      "d": 54.11250000001746,
      "v": 127
    },
    {
      "midi": 57,
      "hit": false,
      "t": 133368.3731250001,
      "d": 54.11250000001746,
      "v": 127
    },
    {
      "midi": 63,
      "hit": false,
      "t": 133371.0787500001,
      "d": 56.81812500001979,
      "v": 127
    },
    {
      "midi": 62,
      "hit": false,
      "t": 133371.0787500001,
      "d": 59.52375000002212,
      "v": 127
    },
    {
      "midi": 67,
      "hit": false,
      "t": 133373.7843750001,
      "d": 54.11250000001746,
      "v": 127
    },
    {
      "midi": 47,
      "hit": false,
      "t": 133373.7843750004,
      "d": 83.87437500001397,
      "v": 73
    },
    {
      "midi": 67,
      "hit": false,
      "t": 133373.7843750004,
      "d": 83.87437500001397,
      "v": 64
    },
    {
      "midi": 57,
      "hit": false,
      "t": 133373.7843750004,
      "d": 102.81375000003027,
      "v": 73
    },
    {
      "midi": 71,
      "hit": false,
      "t": 133376.4900000001,
      "d": 59.52375000002212,
      "v": 127
    },
    {
      "midi": 63,
      "hit": false,
      "t": 133376.4900000004,
      "d": 91.99125000002095,
      "v": 60
    },
    {
      "midi": 35,
      "hit": false,
      "t": 133384.6068750007,
      "d": 54.11249999998836,
      "v": 87
    },
    {
      "midi": 59,
      "hit": false,
      "t": 133506.36000000004,
      "d": 51.40687499998603,
      "v": 67
    },
    {
      "midi": 39,
      "hit": false,
      "t": 133506.36000000068,
      "d": 175.86562500000582,
      "v": 86
    },
    {
      "midi": 63,
      "hit": false,
      "t": 133636.23000000004,
      "d": 56.81812499999069,
      "v": 67
    },
    {
      "midi": 59,
      "hit": false,
      "t": 133766.10000000003,
      "d": 51.40687499998603,
      "v": 67
    },
    {
      "midi": 39,
      "hit": false,
      "t": 133766.1000000007,
      "d": 35.173125000001164,
      "v": 70
    },
    {
      "midi": 63,
      "hit": false,
      "t": 133895.97000000003,
      "d": 51.40687499998603,
      "v": 67
    },
    {
      "midi": 39,
      "hit": false,
      "t": 133904.0868750007,
      "d": 54.11249999998836,
      "v": 90
    },
    {
      "midi": 67,
      "hit": false,
      "t": 134023.13437500017,
      "d": 219.15562500001397,
      "v": 73
    },
    {
      "midi": 55,
      "hit": false,
      "t": 134023.13437500017,
      "d": 224.56687500001863,
      "v": 91
    },
    {
      "midi": 59,
      "hit": false,
      "t": 134025.84000000003,
      "d": 54.11249999998836,
      "v": 67
    },
    {
      "midi": 42,
      "hit": false,
      "t": 134025.8400000007,
      "d": 175.86562500000582,
      "v": 86
    },
    {
      "midi": 57,
      "hit": false,
      "t": 134155.71000000002,
      "d": 59.523749999993015,
      "v": 67
    },
    {
      "midi": 64,
      "hit": false,
      "t": 134282.8743750002,
      "d": 219.15562500001397,
      "v": 73
    },
    {
      "midi": 52,
      "hit": false,
      "t": 134282.8743750002,
      "d": 224.56687500001863,
      "v": 82
    },
    {
      "midi": 55,
      "hit": false,
      "t": 134285.58000000002,
      "d": 59.523749999993015,
      "v": 67
    },
    {
      "midi": 42,
      "hit": false,
      "t": 134285.58000000071,
      "d": 35.173125000001164,
      "v": 70
    },
    {
      "midi": 57,
      "hit": false,
      "t": 134415.45,
      "d": 51.40687499998603,
      "v": 67
    },
    {
      "midi": 42,
      "hit": false,
      "t": 134423.56687500072,
      "d": 54.11249999998836,
      "v": 90
    },
    {
      "midi": 50,
      "hit": false,
      "t": 134542.6143750002,
      "d": 202.921875,
      "v": 82
    },
    {
      "midi": 62,
      "hit": false,
      "t": 134542.6143750002,
      "d": 232.6837499999965,
      "v": 73
    },
    {
      "midi": 59,
      "hit": false,
      "t": 134545.32,
      "d": 59.523749999993015,
      "v": 67
    },
    {
      "midi": 47,
      "hit": false,
      "t": 134545.3200000007,
      "d": 129.86999999999534,
      "v": 73
    },
    {
      "midi": 55,
      "hit": false,
      "t": 134675.19,
      "d": 59.523749999993015,
      "v": 67
    },
    {
      "midi": 52,
      "hit": false,
      "t": 134802.3543750002,
      "d": 771.1031250000233,
      "v": 91
    },
    {
      "midi": 52,
      "hit": false,
      "t": 134805.06,
      "d": 59.523749999993015,
      "v": 67
    },
    {
      "midi": 47,
      "hit": false,
      "t": 134805.0600000007,
      "d": 37.87875000000349,
      "v": 61
    },
    {
      "midi": 64,
      "hit": false,
      "t": 134807.7656250002,
      "d": 760.280625000014,
      "v": 82
    },
    {
      "midi": 47,
      "hit": false,
      "t": 134934.9300000007,
      "d": 81.16875000001164,
      "v": 78
    },
    {
      "midi": 52,
      "hit": false,
      "t": 135064.8,
      "d": 40.58437500000582,
      "v": 67
    },
    {
      "midi": 76,
      "hit": false,
      "t": 135064.8,
      "d": 121.75312500001746,
      "v": 58
    },
    {
      "midi": 59,
      "hit": false,
      "t": 135064.8,
      "d": 627.7049999999872,
      "v": 64
    },
    {
      "midi": 64,
      "hit": false,
      "t": 135064.8,
      "d": 660.172499999986,
      "v": 64
    },
    {
      "midi": 68,
      "hit": false,
      "t": 135064.8,
      "d": 676.40625,
      "v": 64
    },
    {
      "midi": 54,
      "hit": false,
      "t": 135064.8,
      "d": 830.6268750000163,
      "v": 60
    },
    {
      "midi": 59,
      "hit": false,
      "t": 135064.8,
      "d": 722.4018749999814,
      "v": 64
    },
    {
      "midi": 64,
      "hit": false,
      "t": 135064.8,
      "d": 757.5749999999825,
      "v": 60
    },
    {
      "midi": 68,
      "hit": false,
      "t": 135064.8,
      "d": 765.6918749999895,
      "v": 58
    },
    {
      "midi": 52,
      "hit": false,
      "t": 135064.8,
      "d": 811.6875000000291,
      "v": 52
    },
    {
      "midi": 40,
      "hit": false,
      "t": 135064.80000000072,
      "d": 183.9825000000128,
      "v": 91
    },
    {
      "midi": 68,
      "hit": false,
      "t": 135067.505625,
      "d": 102.81375000000116,
      "v": 48
    },
    {
      "midi": 47,
      "hit": false,
      "t": 135089.15062499998,
      "d": 771.1031250000233,
      "v": 56
    },
    {
      "midi": 52,
      "hit": false,
      "t": 135194.66999999998,
      "d": 51.40687499998603,
      "v": 67
    },
    {
      "midi": 52,
      "hit": false,
      "t": 135324.53999999998,
      "d": 59.523749999993015,
      "v": 67
    },
    {
      "midi": 40,
      "hit": false,
      "t": 135324.54000000074,
      "d": 59.523749999993015,
      "v": 56
    },
    {
      "midi": 52,
      "hit": false,
      "t": 135454.40999999997,
      "d": 78.46312500000931,
      "v": 67
    },
    {
      "midi": 40,
      "hit": false,
      "t": 135462.52687500074,
      "d": 54.11249999998836,
      "v": 87
    },
    {
      "midi": 52,
      "hit": false,
      "t": 135584.27999999997,
      "d": 56.81812499999069,
      "v": 67
    },
    {
      "midi": 40,
      "hit": false,
      "t": 135584.28000000073,
      "d": 175.86562500000582,
      "v": 86
    },
    {
      "midi": 64,
      "hit": false,
      "t": 135838.60874999998,
      "d": 928.0293750000128,
      "v": 64
    },
    {
      "midi": 66,
      "hit": false,
      "t": 135838.60874999998,
      "d": 1003.7868750000198,
      "v": 56
    },
    {
      "midi": 69,
      "hit": false,
      "t": 135841.314375,
      "d": 865.8000000000175,
      "v": 64
    },
    {
      "midi": 66,
      "hit": false,
      "t": 135841.314375,
      "d": 892.8562500000116,
      "v": 44
    },
    {
      "midi": 62,
      "hit": false,
      "t": 135841.314375,
      "d": 895.561875000014,
      "v": 64
    },
    {
      "midi": 52,
      "hit": false,
      "t": 135844.01999999996,
      "d": 48.701250000012806,
      "v": 67
    },
    {
      "midi": 78,
      "hit": false,
      "t": 135844.02000000002,
      "d": 100.10812499999884,
      "v": 62
    },
    {
      "midi": 40,
      "hit": false,
      "t": 135844.02000000075,
      "d": 35.173125000001164,
      "v": 70
    },
    {
      "midi": 62,
      "hit": false,
      "t": 135846.725625,
      "d": 911.7956250000279,
      "v": 56
    },
    {
      "midi": 57,
      "hit": false,
      "t": 135846.725625,
      "d": 930.7350000000151,
      "v": 52
    },
    {
      "midi": 57,
      "hit": false,
      "t": 135849.43125,
      "d": 990.2587500000081,
      "v": 64
    },
    {
      "midi": 69,
      "hit": false,
      "t": 135849.43125,
      "d": 895.561875000014,
      "v": 73
    },
    {
      "midi": 48,
      "hit": false,
      "t": 135849.43125,
      "d": 1036.2543750000186,
      "v": 56
    },
    {
      "midi": 69,
      "hit": false,
      "t": 135849.43125000002,
      "d": 86.5799999999872,
      "v": 73
    },
    {
      "midi": 38,
      "hit": false,
      "t": 135982.00687500075,
      "d": 54.11249999998836,
      "v": 90
    },
    {
      "midi": 55,
      "hit": false,
      "t": 136103.75999999998,
      "d": 40.58437500000582,
      "v": 67
    },
    {
      "midi": 38,
      "hit": false,
      "t": 136103.76000000074,
      "d": 175.86562500000582,
      "v": 86
    },
    {
      "midi": 52,
      "hit": false,
      "t": 136233.62999999998,
      "d": 51.40687499998603,
      "v": 67
    },
    {
      "midi": 52,
      "hit": false,
      "t": 136363.49999999997,
      "d": 59.523749999993015,
      "v": 67
    },
    {
      "midi": 38,
      "hit": false,
      "t": 136363.50000000076,
      "d": 35.173125000001164,
      "v": 70
    },
    {
      "midi": 52,
      "hit": false,
      "t": 136493.36999999997,
      "d": 54.11249999998836,
      "v": 67
    },
    {
      "midi": 38,
      "hit": false,
      "t": 136501.48687500076,
      "d": 54.11249999998836,
      "v": 90
    },
    {
      "midi": 52,
      "hit": false,
      "t": 136623.23999999996,
      "d": 56.81812499999069,
      "v": 67
    },
    {
      "midi": 38,
      "hit": false,
      "t": 136623.24000000075,
      "d": 129.86999999999534,
      "v": 73
    },
    {
      "midi": 55,
      "hit": false,
      "t": 136864.040625,
      "d": 2161.794375000027,
      "v": 64
    },
    {
      "midi": 69,
      "hit": false,
      "t": 136866.74625,
      "d": 2367.421875000029,
      "v": 73
    },
    {
      "midi": 60,
      "hit": false,
      "t": 136877.56875,
      "d": 2102.2706250000047,
      "v": 64
    },
    {
      "midi": 64,
      "hit": false,
      "t": 136877.56875,
      "d": 2107.6818750000093,
      "v": 64
    },
    {
      "midi": 69,
      "hit": false,
      "t": 136877.56875,
      "d": 2132.032500000001,
      "v": 64
    },
    {
      "midi": 57,
      "hit": false,
      "t": 136877.56875,
      "d": 2299.78125,
      "v": 64
    },
    {
      "midi": 78,
      "hit": false,
      "t": 136880.274375,
      "d": 78.46312500000931,
      "v": 57
    },
    {
      "midi": 52,
      "hit": false,
      "t": 136882.97999999995,
      "d": 48.701250000012806,
      "v": 67
    },
    {
      "midi": 64,
      "hit": false,
      "t": 136882.98,
      "d": 2264.608124999999,
      "v": 60
    },
    {
      "midi": 38,
      "hit": false,
      "t": 136882.98000000074,
      "d": 37.87875000000349,
      "v": 58
    },
    {
      "midi": 69,
      "hit": false,
      "t": 136885.685625,
      "d": 86.5800000000163,
      "v": 64
    },
    {
      "midi": 60,
      "hit": false,
      "t": 136885.685625,
      "d": 2259.196874999994,
      "v": 44
    },
    {
      "midi": 48,
      "hit": false,
      "t": 136891.09687500002,
      "d": 2297.0756249999977,
      "v": 56
    },
    {
      "midi": 36,
      "hit": false,
      "t": 137012.85000000073,
      "d": 81.16875000001164,
      "v": 87
    },
    {
      "midi": 52,
      "hit": false,
      "t": 137142.71999999997,
      "d": 40.58437500000582,
      "v": 67
    },
    {
      "midi": 36,
      "hit": false,
      "t": 137142.72000000076,
      "d": 183.9825000000128,
      "v": 91
    },
    {
      "midi": 52,
      "hit": false,
      "t": 137272.58999999997,
      "d": 51.40687499998603,
      "v": 67
    },
    {
      "midi": 52,
      "hit": false,
      "t": 137402.45999999996,
      "d": 59.523749999993015,
      "v": 67
    },
    {
      "midi": 36,
      "hit": false,
      "t": 137402.46000000078,
      "d": 113.63625000001048,
      "v": 56
    },
    {
      "midi": 52,
      "hit": false,
      "t": 137532.32999999996,
      "d": 78.46312500000931,
      "v": 67
    },
    {
      "midi": 36,
      "hit": false,
      "t": 137540.44687500078,
      "d": 54.11249999998836,
      "v": 87
    },
    {
      "midi": 59,
      "hit": false,
      "t": 137662.19999999995,
      "d": 91.99124999999185,
      "v": 82
    },
    {
      "midi": 40,
      "hit": false,
      "t": 137662.20000000077,
      "d": 175.86562500000582,
      "v": 86
    },
    {
      "midi": 63,
      "hit": false,
      "t": 137667.61124999996,
      "d": 137.98687500000233,
      "v": 72
    },
    {
      "midi": 60,
      "hit": false,
      "t": 137759.60249999995,
      "d": 148.80937500001164,
      "v": 48
    },
    {
      "midi": 64,
      "hit": false,
      "t": 137770.42499999996,
      "d": 132.57562499999767,
      "v": 45
    },
    {
      "midi": 60,
      "hit": false,
      "t": 137921.93999999997,
      "d": 213.7443750000093,
      "v": 47
    },
    {
      "midi": 40,
      "hit": false,
      "t": 137921.9400000008,
      "d": 35.173125000001164,
      "v": 70
    },
    {
      "midi": 63,
      "hit": false,
      "t": 137927.35124999998,
      "d": 137.98687500000233,
      "v": 72
    },
    {
      "midi": 64,
      "hit": false,
      "t": 138030.16499999998,
      "d": 132.57562499999767,
      "v": 45
    },
    {
      "midi": 40,
      "hit": false,
      "t": 138059.9268750008,
      "d": 54.11249999998836,
      "v": 90
    },
    {
      "midi": 74,
      "hit": false,
      "t": 138151.91812500023,
      "d": 395.0212500000198,
      "v": 73
    },
    {
      "midi": 62,
      "hit": false,
      "t": 138154.62375000023,
      "d": 346.320000000007,
      "v": 91
    },
    {
      "midi": 60,
      "hit": false,
      "t": 138181.67999999996,
      "d": 54.11249999998836,
      "v": 67
    },
    {
      "midi": 43,
      "hit": false,
      "t": 138181.68000000078,
      "d": 175.86562500000582,
      "v": 86
    },
    {
      "midi": 60,
      "hit": false,
      "t": 138311.54999999996,
      "d": 51.40687499998603,
      "v": 67
    },
    {
      "midi": 60,
      "hit": false,
      "t": 138441.41999999995,
      "d": 59.523749999993015,
      "v": 67
    },
    {
      "midi": 43,
      "hit": false,
      "t": 138441.4200000008,
      "d": 35.173125000001164,
      "v": 70
    },
    {
      "midi": 59,
      "hit": false,
      "t": 138555.05625000026,
      "d": 297.6187499999942,
      "v": 82
    },
    {
      "midi": 71,
      "hit": false,
      "t": 138557.76187500026,
      "d": 297.6187499999942,
      "v": 73
    },
    {
      "midi": 60,
      "hit": false,
      "t": 138571.28999999995,
      "d": 54.11249999998836,
      "v": 67
    },
    {
      "midi": 43,
      "hit": false,
      "t": 138579.4068750008,
      "d": 54.11249999998836,
      "v": 90
    },
    {
      "midi": 62,
      "hit": false,
      "t": 138701.15999999995,
      "d": 40.58437500000582,
      "v": 67
    },
    {
      "midi": 48,
      "hit": false,
      "t": 138701.1600000008,
      "d": 129.86999999999534,
      "v": 73
    },
    {
      "midi": 62,
      "hit": false,
      "t": 138831.02999999994,
      "d": 51.40687499998603,
      "v": 67
    },
    {
      "midi": 57,
      "hit": false,
      "t": 138901.37625000026,
      "d": 259.7399999999907,
      "v": 73
    },
    {
      "midi": 69,
      "hit": false,
      "t": 138904.08187500027,
      "d": 305.73562500000116,
      "v": 73
    },
    {
      "midi": 62,
      "hit": false,
      "t": 138960.89999999994,
      "d": 59.523749999993015,
      "v": 67
    },
    {
      "midi": 48,
      "hit": false,
      "t": 138960.90000000078,
      "d": 37.87875000000349,
      "v": 61
    },
    {
      "midi": 62,
      "hit": false,
      "t": 139090.76999999993,
      "d": 78.46312500000931,
      "v": 67
    },
    {
      "midi": 48,
      "hit": false,
      "t": 139090.77000000078,
      "d": 81.16875000001164,
      "v": 78
    },
    {
      "midi": 59,
      "hit": false,
      "t": 139193.58375000025,
      "d": 416.6662500000093,
      "v": 82
    },
    {
      "midi": 71,
      "hit": false,
      "t": 139198.99500000026,
      "d": 416.6662500000093,
      "v": 82
    },
    {
      "midi": 54,
      "hit": false,
      "t": 139209.81750000003,
      "d": 765.6918750000186,
      "v": 52
    },
    {
      "midi": 47,
      "hit": false,
      "t": 139212.523125,
      "d": 811.6875000000582,
      "v": 56
    },
    {
      "midi": 68,
      "hit": false,
      "t": 139217.93437500004,
      "d": 100.10812499999884,
      "v": 60
    },
    {
      "midi": 59,
      "hit": false,
      "t": 139217.93437500004,
      "d": 606.0599999999977,
      "v": 64
    },
    {
      "midi": 64,
      "hit": false,
      "t": 139217.93437500004,
      "d": 646.6443750000035,
      "v": 64
    },
    {
      "midi": 68,
      "hit": false,
      "t": 139217.93437500004,
      "d": 681.8175000000047,
      "v": 64
    },
    {
      "midi": 52,
      "hit": false,
      "t": 139220.63999999993,
      "d": 40.58437500000582,
      "v": 67
    },
    {
      "midi": 59,
      "hit": false,
      "t": 139220.64,
      "d": 722.4018750000105,
      "v": 64
    },
    {
      "midi": 64,
      "hit": false,
      "t": 139220.64,
      "d": 757.5750000000116,
      "v": 60
    },
    {
      "midi": 68,
      "hit": false,
      "t": 139220.64,
      "d": 765.6918750000186,
      "v": 44
    },
    {
      "midi": 76,
      "hit": false,
      "t": 139220.64000000004,
      "d": 175.86562500000582,
      "v": 59
    },
    {
      "midi": 40,
      "hit": false,
      "t": 139220.6400000008,
      "d": 183.9825000000128,
      "v": 91
    },
    {
      "midi": 52,
      "hit": false,
      "t": 139350.50999999992,
      "d": 51.40687499998603,
      "v": 67
    },
    {
      "midi": 52,
      "hit": false,
      "t": 139480.37999999992,
      "d": 59.523749999993015,
      "v": 67
    },
    {
      "midi": 40,
      "hit": false,
      "t": 139480.38000000082,
      "d": 51.40687499998603,
      "v": 56
    },
    {
      "midi": 69,
      "hit": false,
      "t": 139577.78250000026,
      "d": 137.98687500000233,
      "v": 73
    },
    {
      "midi": 57,
      "hit": false,
      "t": 139602.13312500025,
      "d": 146.1037500000093,
      "v": 64
    },
    {
      "midi": 52,
      "hit": false,
      "t": 139610.2499999999,
      "d": 78.46312500000931,
      "v": 67
    },
    {
      "midi": 40,
      "hit": false,
      "t": 139618.3668750008,
      "d": 54.11249999998836,
      "v": 87
    },
    {
      "midi": 68,
      "hit": false,
      "t": 139704.94687500026,
      "d": 294.91312500002095,
      "v": 60
    },
    {
      "midi": 56,
      "hit": false,
      "t": 139726.59187500027,
      "d": 275.97375000000466,
      "v": 73
    },
    {
      "midi": 52,
      "hit": false,
      "t": 139740.1199999999,
      "d": 56.81812499999069,
      "v": 67
    },
    {
      "midi": 40,
      "hit": false,
      "t": 139740.12000000078,
      "d": 175.86562500000582,
      "v": 86
    },
    {
      "midi": 57,
      "hit": false,
      "t": 139983.62625000006,
      "d": 990.2587500000373,
      "v": 60
    },
    {
      "midi": 66,
      "hit": false,
      "t": 139994.44875000004,
      "d": 1003.7868750000198,
      "v": 56
    },
    {
      "midi": 69,
      "hit": false,
      "t": 139997.15437500007,
      "d": 876.6224999999977,
      "v": 64
    },
    {
      "midi": 62,
      "hit": false,
      "t": 139997.15437500007,
      "d": 892.8562500000116,
      "v": 64
    },
    {
      "midi": 66,
      "hit": false,
      "t": 139997.15437500007,
      "d": 895.561875000014,
      "v": 44
    },
    {
      "midi": 64,
      "hit": false,
      "t": 139997.15437500007,
      "d": 903.678750000021,
      "v": 64
    },
    {
      "midi": 69,
      "hit": false,
      "t": 139997.15437500027,
      "d": 1249.9987499999988,
      "v": 82
    },
    {
      "midi": 57,
      "hit": false,
      "t": 139997.15437500027,
      "d": 1274.3493749999907,
      "v": 91
    },
    {
      "midi": 52,
      "hit": false,
      "t": 139999.8599999999,
      "d": 48.701250000012806,
      "v": 67
    },
    {
      "midi": 40,
      "hit": false,
      "t": 139999.8600000008,
      "d": 35.173125000001164,
      "v": 70
    },
    {
      "midi": 69,
      "hit": false,
      "t": 140002.56562500005,
      "d": 83.87437500001397,
      "v": 64
    },
    {
      "midi": 62,
      "hit": false,
      "t": 140002.56562500005,
      "d": 911.7956250000279,
      "v": 56
    },
    {
      "midi": 57,
      "hit": false,
      "t": 140002.56562500005,
      "d": 930.7350000000151,
      "v": 52
    },
    {
      "midi": 48,
      "hit": false,
      "t": 140005.27125000005,
      "d": 1066.0162500000151,
      "v": 56
    },
    {
      "midi": 69,
      "hit": false,
      "t": 140013.38812500006,
      "d": 825.2156250000116,
      "v": 52
    },
    {
      "midi": 78,
      "hit": false,
      "t": 140016.09375000006,
      "d": 97.40249999999651,
      "v": 56
    },
    {
      "midi": 38,
      "hit": false,
      "t": 140137.8468750008,
      "d": 54.11249999998836,
      "v": 90
    },
    {
      "midi": 55,
      "hit": false,
      "t": 140259.59999999992,
      "d": 40.58437500000582,
      "v": 67
    },
    {
      "midi": 38,
      "hit": false,
      "t": 140259.6000000008,
      "d": 175.86562500000582,
      "v": 86
    },
    {
      "midi": 52,
      "hit": false,
      "t": 140389.4699999999,
      "d": 51.40687499998603,
      "v": 67
    },
    {
      "midi": 52,
      "hit": false,
      "t": 140519.3399999999,
      "d": 59.523749999993015,
      "v": 67
    },
    {
      "midi": 38,
      "hit": false,
      "t": 140519.3400000008,
      "d": 35.173125000001164,
      "v": 70
    },
    {
      "midi": 52,
      "hit": false,
      "t": 140649.2099999999,
      "d": 54.11249999998836,
      "v": 67
    },
    {
      "midi": 38,
      "hit": false,
      "t": 140657.3268750008,
      "d": 54.11249999998836,
      "v": 90
    },
    {
      "midi": 52,
      "hit": false,
      "t": 140779.0799999999,
      "d": 56.81812499999069,
      "v": 67
    },
    {
      "midi": 38,
      "hit": false,
      "t": 140779.0800000008,
      "d": 129.86999999999534,
      "v": 73
    },
    {
      "midi": 69,
      "hit": false,
      "t": 141027.99750000006,
      "d": 1420.453125000029,
      "v": 64
    },
    {
      "midi": 57,
      "hit": false,
      "t": 141033.40875000006,
      "d": 1298.7000000000116,
      "v": 64
    },
    {
      "midi": 69,
      "hit": false,
      "t": 141036.11437500006,
      "d": 86.5800000000163,
      "v": 73
    },
    {
      "midi": 55,
      "hit": false,
      "t": 141036.1143750001,
      "d": 1258.1156250000058,
      "v": 56
    },
    {
      "midi": 52,
      "hit": false,
      "t": 141038.8199999999,
      "d": 48.701250000012806,
      "v": 67
    },
    {
      "midi": 64,
      "hit": false,
      "t": 141038.82000000007,
      "d": 1295.9943750000093,
      "v": 60
    },
    {
      "midi": 38,
      "hit": false,
      "t": 141038.8200000008,
      "d": 37.87875000000349,
      "v": 61
    },
    {
      "midi": 61,
      "hit": false,
      "t": 141041.52562500007,
      "d": 1298.7000000000116,
      "v": 44
    },
    {
      "midi": 69,
      "hit": false,
      "t": 141041.5256250001,
      "d": 1323.0506249999744,
      "v": 64
    },
    {
      "midi": 61,
      "hit": false,
      "t": 141041.5256250001,
      "d": 1325.7562499999767,
      "v": 64
    },
    {
      "midi": 64,
      "hit": false,
      "t": 141041.5256250001,
      "d": 1325.7562499999767,
      "v": 64
    },
    {
      "midi": 78,
      "hit": false,
      "t": 141046.93687500007,
      "d": 100.10812499999884,
      "v": 55
    },
    {
      "midi": 45,
      "hit": false,
      "t": 141046.93687500007,
      "d": 1298.7000000000116,
      "v": 48
    },
    {
      "midi": 67,
      "hit": false,
      "t": 141046.9368750001,
      "d": 1298.6999999999825,
      "v": 48
    },
    {
      "midi": 33,
      "hit": false,
      "t": 141168.6900000008,
      "d": 81.16875000001164,
      "v": 78
    },
    {
      "midi": 52,
      "hit": false,
      "t": 141298.5599999999,
      "d": 40.58437500000582,
      "v": 67
    },
    {
      "midi": 33,
      "hit": false,
      "t": 141298.5600000008,
      "d": 146.1037500000093,
      "v": 91
    },
    {
      "midi": 52,
      "hit": false,
      "t": 141428.4299999999,
      "d": 51.40687499998603,
      "v": 67
    },
    {
      "midi": 52,
      "hit": false,
      "t": 141558.2999999999,
      "d": 59.523749999993015,
      "v": 67
    },
    {
      "midi": 33,
      "hit": false,
      "t": 141558.30000000083,
      "d": 73.05187500000466,
      "v": 56
    },
    {
      "midi": 52,
      "hit": false,
      "t": 141688.1699999999,
      "d": 78.46312500000931,
      "v": 67
    },
    {
      "midi": 33,
      "hit": false,
      "t": 141696.28687500083,
      "d": 54.11249999998836,
      "v": 87
    },
    {
      "midi": 52,
      "hit": false,
      "t": 141818.0399999999,
      "d": 40.58437500000582,
      "v": 67
    },
    {
      "midi": 33,
      "hit": false,
      "t": 141818.04000000082,
      "d": 129.86999999999534,
      "v": 73
    },
    {
      "midi": 52,
      "hit": false,
      "t": 142077.7799999999,
      "d": 40.58437500000582,
      "v": 67
    },
    {
      "midi": 33,
      "hit": false,
      "t": 142077.7800000008,
      "d": 62.22937499999534,
      "v": 56
    },
    {
      "midi": 33,
      "hit": false,
      "t": 142215.76687500082,
      "d": 54.11249999998836,
      "v": 87
    },
    {
      "midi": 55,
      "hit": false,
      "t": 142318.5806250001,
      "d": 289.5018749999872,
      "v": 89
    },
    {
      "midi": 55,
      "hit": false,
      "t": 142321.28624999992,
      "d": 265.15125000002445,
      "v": 78
    },
    {
      "midi": 66,
      "hit": false,
      "t": 142321.28625000006,
      "d": 535.7137500001409,
      "v": 78
    },
    {
      "midi": 67,
      "hit": false,
      "t": 142323.99187500027,
      "d": 221.8612499999872,
      "v": 91
    },
    {
      "midi": 36,
      "hit": false,
      "t": 142337.5200000008,
      "d": 175.86562500000582,
      "v": 86
    },
    {
      "midi": 54,
      "hit": false,
      "t": 142572.90937499993,
      "d": 270.5625000000291,
      "v": 60
    },
    {
      "midi": 54,
      "hit": false,
      "t": 142575.61500000008,
      "d": 303.02999999999884,
      "v": 81
    },
    {
      "midi": 66,
      "hit": false,
      "t": 142589.14312500026,
      "d": 216.45000000001164,
      "v": 82
    },
    {
      "midi": 36,
      "hit": false,
      "t": 142597.26000000082,
      "d": 35.173125000001164,
      "v": 70
    },
    {
      "midi": 36,
      "hit": false,
      "t": 142735.24687500083,
      "d": 54.11249999998836,
      "v": 90
    },
    {
      "midi": 52,
      "hit": false,
      "t": 142835.35499999995,
      "d": 243.50625000000582,
      "v": 82
    },
    {
      "midi": 64,
      "hit": false,
      "t": 142840.76625000028,
      "d": 227.27249999999185,
      "v": 91
    },
    {
      "midi": 52,
      "hit": false,
      "t": 142846.17750000008,
      "d": 257.03437500001746,
      "v": 91
    },
    {
      "midi": 64,
      "hit": false,
      "t": 142857.0000000002,
      "d": 500.5406249999942,
      "v": 78
    },
    {
      "midi": 36,
      "hit": false,
      "t": 142857.00000000081,
      "d": 129.86999999999534,
      "v": 73
    },
    {
      "midi": 50,
      "hit": false,
      "t": 143095.09499999997,
      "d": 232.6837499999965,
      "v": 73
    },
    {
      "midi": 50,
      "hit": false,
      "t": 143095.0950000001,
      "d": 1301.405625000014,
      "v": 78
    },
    {
      "midi": 62,
      "hit": false,
      "t": 143103.21187500027,
      "d": 219.15562500001397,
      "v": 91
    },
    {
      "midi": 36,
      "hit": false,
      "t": 143116.7400000008,
      "d": 37.87875000000349,
      "v": 61
    },
    {
      "midi": 36,
      "hit": false,
      "t": 143246.6100000008,
      "d": 81.16875000001164,
      "v": 78
    },
    {
      "midi": 55,
      "hit": false,
      "t": 143376.47999999998,
      "d": 146.1037500000093,
      "v": 67
    },
    {
      "midi": 43,
      "hit": false,
      "t": 143376.47999999998,
      "d": 278.679375000007,
      "v": 67
    },
    {
      "midi": 62,
      "hit": false,
      "t": 143376.47999999998,
      "d": 292.2075000000186,
      "v": 67
    },
    {
      "midi": 59,
      "hit": false,
      "t": 143376.47999999998,
      "d": 303.03000000002794,
      "v": 67
    },
    {
      "midi": 55,
      "hit": false,
      "t": 143376.48,
      "d": 300.3243749999965,
      "v": 56
    },
    {
      "midi": 62,
      "hit": false,
      "t": 143376.48,
      "d": 300.3243749999965,
      "v": 64
    },
    {
      "midi": 59,
      "hit": false,
      "t": 143376.48,
      "d": 305.73562500000116,
      "v": 73
    },
    {
      "midi": 55,
      "hit": false,
      "t": 143376.48000000019,
      "d": 4131.489375000005,
      "v": 81
    },
    {
      "midi": 62,
      "hit": false,
      "t": 143376.48000000027,
      "d": 1482.6824999999953,
      "v": 91
    },
    {
      "midi": 31,
      "hit": false,
      "t": 143376.48000000083,
      "d": 183.9825000000128,
      "v": 91
    },
    {
      "midi": 55,
      "hit": false,
      "t": 143636.22,
      "d": 51.406875000015134,
      "v": 67
    },
    {
      "midi": 31,
      "hit": false,
      "t": 143636.22000000085,
      "d": 108.22500000000582,
      "v": 56
    },
    {
      "midi": 55,
      "hit": false,
      "t": 143766.09000000003,
      "d": 45.99562500001048,
      "v": 67
    },
    {
      "midi": 62,
      "hit": false,
      "t": 143766.09000000003,
      "d": 51.406875000015134,
      "v": 67
    },
    {
      "midi": 59,
      "hit": false,
      "t": 143766.09000000003,
      "d": 56.81812500001979,
      "v": 67
    },
    {
      "midi": 31,
      "hit": false,
      "t": 143774.20687500085,
      "d": 54.11249999998836,
      "v": 87
    },
    {
      "midi": 35,
      "hit": false,
      "t": 143895.96000000084,
      "d": 129.86999999999534,
      "v": 73
    },
    {
      "midi": 55,
      "hit": false,
      "t": 144025.83000000005,
      "d": 43.29000000000815,
      "v": 65
    },
    {
      "midi": 59,
      "hit": false,
      "t": 144155.70000000004,
      "d": 37.87875000000349,
      "v": 67
    },
    {
      "midi": 62,
      "hit": false,
      "t": 144155.70000000004,
      "d": 56.81812499999069,
      "v": 67
    },
    {
      "midi": 35,
      "hit": false,
      "t": 144155.70000000083,
      "d": 146.1037500000093,
      "v": 87
    },
    {
      "midi": 43,
      "hit": false,
      "t": 144415.44000000003,
      "d": 29.761874999996508,
      "v": 67
    },
    {
      "midi": 38,
      "hit": false,
      "t": 144415.44000000085,
      "d": 175.86562500000582,
      "v": 86
    },
    {
      "midi": 43,
      "hit": false,
      "t": 144545.31000000003,
      "d": 45.99562500001048,
      "v": 67
    },
    {
      "midi": 59,
      "hit": false,
      "t": 144675.18000000005,
      "d": 40.58437500000582,
      "v": 67
    },
    {
      "midi": 55,
      "hit": false,
      "t": 144675.18000000005,
      "d": 51.406875000015134,
      "v": 67
    },
    {
      "midi": 62,
      "hit": false,
      "t": 144675.18000000005,
      "d": 51.406875000015134,
      "v": 67
    },
    {
      "midi": 38,
      "hit": false,
      "t": 144675.18000000087,
      "d": 35.173125000001164,
      "v": 70
    },
    {
      "midi": 38,
      "hit": false,
      "t": 144813.16687500087,
      "d": 54.11249999998836,
      "v": 90
    },
    {
      "midi": 62,
      "hit": false,
      "t": 144918.68625000026,
      "d": 446.4281250000058,
      "v": 91
    },
    {
      "midi": 43,
      "hit": false,
      "t": 144934.92000000007,
      "d": 37.87875000000349,
      "v": 67
    },
    {
      "midi": 43,
      "hit": false,
      "t": 144934.92000000086,
      "d": 129.86999999999534,
      "v": 73
    },
    {
      "midi": 59,
      "hit": false,
      "t": 145064.79000000007,
      "d": 45.99562500001048,
      "v": 67
    },
    {
      "midi": 62,
      "hit": false,
      "t": 145064.79000000007,
      "d": 54.11250000001746,
      "v": 67
    },
    {
      "midi": 43,
      "hit": false,
      "t": 145194.6600000001,
      "d": 27.05624999999418,
      "v": 67
    },
    {
      "midi": 43,
      "hit": false,
      "t": 145194.66000000085,
      "d": 37.87875000000349,
      "v": 58
    },
    {
      "midi": 43,
      "hit": false,
      "t": 145324.5300000001,
      "d": 48.701250000012806,
      "v": 67
    },
    {
      "midi": 43,
      "hit": false,
      "t": 145324.53000000084,
      "d": 81.16875000001164,
      "v": 87
    },
    {
      "midi": 62,
      "hit": false,
      "t": 145435.46062500027,
      "d": 449.13375000000815,
      "v": 82
    },
    {
      "midi": 57,
      "hit": false,
      "t": 145454.40000000002,
      "d": 286.79625000001397,
      "v": 82
    },
    {
      "midi": 60,
      "hit": false,
      "t": 145454.40000000002,
      "d": 292.2075000000186,
      "v": 60
    },
    {
      "midi": 53,
      "hit": false,
      "t": 145454.40000000002,
      "d": 297.6187500000233,
      "v": 60
    },
    {
      "midi": 53,
      "hit": false,
      "t": 145454.4000000001,
      "d": 146.1037500000093,
      "v": 67
    },
    {
      "midi": 41,
      "hit": false,
      "t": 145454.4000000001,
      "d": 278.679375000007,
      "v": 67
    },
    {
      "midi": 60,
      "hit": false,
      "t": 145454.4000000001,
      "d": 292.2075000000186,
      "v": 67
    },
    {
      "midi": 57,
      "hit": false,
      "t": 145454.4000000001,
      "d": 303.03000000002794,
      "v": 67
    },
    {
      "midi": 29,
      "hit": false,
      "t": 145454.40000000087,
      "d": 183.9825000000128,
      "v": 91
    },
    {
      "midi": 53,
      "hit": false,
      "t": 145714.14000000013,
      "d": 51.406875000015134,
      "v": 67
    },
    {
      "midi": 29,
      "hit": false,
      "t": 145714.1400000009,
      "d": 56.81812499999069,
      "v": 56
    },
    {
      "midi": 53,
      "hit": false,
      "t": 145844.01000000015,
      "d": 45.99562500001048,
      "v": 67
    },
    {
      "midi": 60,
      "hit": false,
      "t": 145844.01000000015,
      "d": 51.406875000015134,
      "v": 67
    },
    {
      "midi": 57,
      "hit": false,
      "t": 145844.01000000015,
      "d": 56.81812500001979,
      "v": 67
    },
    {
      "midi": 29,
      "hit": false,
      "t": 145852.1268750009,
      "d": 54.11249999998836,
      "v": 87
    },
    {
      "midi": 60,
      "hit": false,
      "t": 145949.52937500027,
      "d": 465.367499999993,
      "v": 82
    },
    {
      "midi": 33,
      "hit": false,
      "t": 145973.88000000088,
      "d": 129.86999999999534,
      "v": 73
    },
    {
      "midi": 53,
      "hit": false,
      "t": 146103.75000000017,
      "d": 43.29000000000815,
      "v": 65
    },
    {
      "midi": 57,
      "hit": false,
      "t": 146233.62000000017,
      "d": 37.87875000000349,
      "v": 67
    },
    {
      "midi": 60,
      "hit": false,
      "t": 146233.62000000017,
      "d": 56.81812499999069,
      "v": 67
    },
    {
      "midi": 33,
      "hit": false,
      "t": 146233.62000000087,
      "d": 146.1037500000093,
      "v": 87
    },
    {
      "midi": 59,
      "hit": false,
      "t": 146469.00937500026,
      "d": 459.95624999998836,
      "v": 91
    },
    {
      "midi": 41,
      "hit": false,
      "t": 146493.36000000016,
      "d": 29.761874999996508,
      "v": 67
    },
    {
      "midi": 36,
      "hit": false,
      "t": 146493.3600000009,
      "d": 175.86562500000582,
      "v": 86
    },
    {
      "midi": 41,
      "hit": false,
      "t": 146623.23000000016,
      "d": 45.99562500001048,
      "v": 67
    },
    {
      "midi": 57,
      "hit": false,
      "t": 146753.10000000018,
      "d": 40.58437500000582,
      "v": 67
    },
    {
      "midi": 53,
      "hit": false,
      "t": 146753.10000000018,
      "d": 51.406875000015134,
      "v": 67
    },
    {
      "midi": 60,
      "hit": false,
      "t": 146753.10000000018,
      "d": 51.406875000015134,
      "v": 67
    },
    {
      "midi": 36,
      "hit": false,
      "t": 146753.1000000009,
      "d": 35.173125000001164,
      "v": 70
    },
    {
      "midi": 36,
      "hit": false,
      "t": 146891.0868750009,
      "d": 54.11249999998836,
      "v": 90
    },
    {
      "midi": 60,
      "hit": false,
      "t": 146991.19500000024,
      "d": 481.601250000007,
      "v": 91
    },
    {
      "midi": 41,
      "hit": false,
      "t": 147012.8400000002,
      "d": 37.87875000000349,
      "v": 67
    },
    {
      "midi": 41,
      "hit": false,
      "t": 147012.8400000009,
      "d": 129.86999999999534,
      "v": 73
    },
    {
      "midi": 57,
      "hit": false,
      "t": 147142.7100000002,
      "d": 45.99562500001048,
      "v": 67
    },
    {
      "midi": 60,
      "hit": false,
      "t": 147142.7100000002,
      "d": 54.11250000001746,
      "v": 67
    },
    {
      "midi": 41,
      "hit": false,
      "t": 147272.58000000022,
      "d": 27.05624999999418,
      "v": 67
    },
    {
      "midi": 41,
      "hit": false,
      "t": 147272.5800000009,
      "d": 37.87875000000349,
      "v": 61
    },
    {
      "midi": 41,
      "hit": false,
      "t": 147402.45000000022,
      "d": 48.701250000012806,
      "v": 67
    },
    {
      "midi": 41,
      "hit": false,
      "t": 147402.45000000088,
      "d": 81.16875000001164,
      "v": 78
    },
    {
      "midi": 55,
      "hit": false,
      "t": 147532.32000000004,
      "d": 300.3243749999965,
      "v": 64
    },
    {
      "midi": 60,
      "hit": false,
      "t": 147532.32000000004,
      "d": 300.3243749999965,
      "v": 73
    },
    {
      "midi": 64,
      "hit": false,
      "t": 147532.32000000004,
      "d": 303.02999999999884,
      "v": 60
    },
    {
      "midi": 55,
      "hit": false,
      "t": 147532.32000000024,
      "d": 146.1037500000093,
      "v": 67
    },
    {
      "midi": 48,
      "hit": false,
      "t": 147532.32000000024,
      "d": 278.679375000007,
      "v": 67
    },
    {
      "midi": 64,
      "hit": false,
      "t": 147532.32000000024,
      "d": 292.2075000000186,
      "v": 67
    },
    {
      "midi": 60,
      "hit": false,
      "t": 147532.32000000024,
      "d": 303.03000000002794,
      "v": 67
    },
    {
      "midi": 36,
      "hit": false,
      "t": 147532.3200000009,
      "d": 183.9825000000128,
      "v": 91
    },
    {
      "midi": 60,
      "hit": false,
      "t": 147535.02562500024,
      "d": 2023.8074999999953,
      "v": 91
    },
    {
      "midi": 55,
      "hit": false,
      "t": 147792.06000000026,
      "d": 51.406875000015134,
      "v": 67
    },
    {
      "midi": 36,
      "hit": false,
      "t": 147792.06000000093,
      "d": 62.22937499999534,
      "v": 56
    },
    {
      "midi": 55,
      "hit": false,
      "t": 147921.93000000028,
      "d": 45.99562500001048,
      "v": 67
    },
    {
      "midi": 64,
      "hit": false,
      "t": 147921.93000000028,
      "d": 51.406875000015134,
      "v": 67
    },
    {
      "midi": 60,
      "hit": false,
      "t": 147921.93000000028,
      "d": 56.81812500001979,
      "v": 67
    },
    {
      "midi": 36,
      "hit": false,
      "t": 147930.04687500093,
      "d": 54.11249999998836,
      "v": 87
    },
    {
      "midi": 40,
      "hit": false,
      "t": 148051.80000000092,
      "d": 175.86562500000582,
      "v": 86
    },
    {
      "midi": 55,
      "hit": false,
      "t": 148181.6700000003,
      "d": 43.29000000000815,
      "v": 65
    },
    {
      "midi": 60,
      "hit": false,
      "t": 148311.5400000003,
      "d": 37.87875000000349,
      "v": 67
    },
    {
      "midi": 64,
      "hit": false,
      "t": 148311.5400000003,
      "d": 56.81812499999069,
      "v": 67
    },
    {
      "midi": 40,
      "hit": false,
      "t": 148311.54000000094,
      "d": 35.173125000001164,
      "v": 70
    },
    {
      "midi": 40,
      "hit": false,
      "t": 148449.52687500094,
      "d": 54.11249999998836,
      "v": 90
    },
    {
      "midi": 48,
      "hit": false,
      "t": 148571.2800000003,
      "d": 29.761874999996508,
      "v": 67
    },
    {
      "midi": 43,
      "hit": false,
      "t": 148571.28000000093,
      "d": 175.86562500000582,
      "v": 86
    },
    {
      "midi": 48,
      "hit": false,
      "t": 148701.15000000029,
      "d": 45.99562500001048,
      "v": 67
    },
    {
      "midi": 60,
      "hit": false,
      "t": 148831.0200000003,
      "d": 40.58437500000582,
      "v": 67
    },
    {
      "midi": 55,
      "hit": false,
      "t": 148831.0200000003,
      "d": 51.406875000015134,
      "v": 67
    },
    {
      "midi": 64,
      "hit": false,
      "t": 148831.0200000003,
      "d": 51.406875000015134,
      "v": 67
    },
    {
      "midi": 43,
      "hit": false,
      "t": 148831.02000000095,
      "d": 35.173125000001164,
      "v": 70
    },
    {
      "midi": 43,
      "hit": false,
      "t": 148969.00687500095,
      "d": 54.11249999998836,
      "v": 90
    },
    {
      "midi": 48,
      "hit": false,
      "t": 149090.76000000033,
      "d": 37.87875000000349,
      "v": 67
    },
    {
      "midi": 48,
      "hit": false,
      "t": 149090.76000000094,
      "d": 129.86999999999534,
      "v": 73
    },
    {
      "midi": 60,
      "hit": false,
      "t": 149220.63000000032,
      "d": 45.99562500001048,
      "v": 67
    },
    {
      "midi": 64,
      "hit": false,
      "t": 149220.63000000032,
      "d": 54.11250000001746,
      "v": 67
    },
    {
      "midi": 48,
      "hit": false,
      "t": 149350.50000000035,
      "d": 27.05624999999418,
      "v": 67
    },
    {
      "midi": 48,
      "hit": false,
      "t": 149350.50000000093,
      "d": 37.87875000000349,
      "v": 61
    },
    {
      "midi": 48,
      "hit": false,
      "t": 149480.37000000034,
      "d": 48.701250000012806,
      "v": 67
    },
    {
      "midi": 48,
      "hit": false,
      "t": 149480.37000000093,
      "d": 81.16875000001164,
      "v": 78
    },
    {
      "midi": 57,
      "hit": false,
      "t": 149610.24000000005,
      "d": 313.85250000000815,
      "v": 64
    },
    {
      "midi": 62,
      "hit": false,
      "t": 149610.24000000005,
      "d": 313.85250000000815,
      "v": 73
    },
    {
      "midi": 66,
      "hit": false,
      "t": 149610.24000000005,
      "d": 316.5581250000105,
      "v": 64
    },
    {
      "midi": 57,
      "hit": false,
      "t": 149610.24000000037,
      "d": 146.1037500000093,
      "v": 67
    },
    {
      "midi": 50,
      "hit": false,
      "t": 149610.24000000037,
      "d": 278.679375000007,
      "v": 67
    },
    {
      "midi": 66,
      "hit": false,
      "t": 149610.24000000037,
      "d": 292.2075000000186,
      "v": 67
    },
    {
      "midi": 62,
      "hit": false,
      "t": 149610.24000000037,
      "d": 303.03000000002794,
      "v": 67
    },
    {
      "midi": 38,
      "hit": false,
      "t": 149610.24000000095,
      "d": 183.9825000000128,
      "v": 91
    },
    {
      "midi": 57,
      "hit": false,
      "t": 149869.9800000004,
      "d": 51.406875000015134,
      "v": 67
    },
    {
      "midi": 38,
      "hit": false,
      "t": 149869.98000000097,
      "d": 89.28562499998952,
      "v": 56
    },
    {
      "midi": 57,
      "hit": false,
      "t": 149999.8500000004,
      "d": 45.99562500001048,
      "v": 67
    },
    {
      "midi": 66,
      "hit": false,
      "t": 149999.8500000004,
      "d": 51.406875000015134,
      "v": 67
    },
    {
      "midi": 62,
      "hit": false,
      "t": 149999.8500000004,
      "d": 56.81812500001979,
      "v": 67
    },
    {
      "midi": 38,
      "hit": false,
      "t": 150007.96687500097,
      "d": 54.11249999998836,
      "v": 87
    },
    {
      "midi": 42,
      "hit": false,
      "t": 150129.72000000096,
      "d": 129.86999999999534,
      "v": 73
    },
    {
      "midi": 57,
      "hit": false,
      "t": 150259.59000000043,
      "d": 43.29000000000815,
      "v": 65
    },
    {
      "midi": 62,
      "hit": false,
      "t": 150389.46000000043,
      "d": 37.87875000000349,
      "v": 67
    },
    {
      "midi": 66,
      "hit": false,
      "t": 150389.46000000043,
      "d": 56.81812499999069,
      "v": 67
    },
    {
      "midi": 42,
      "hit": false,
      "t": 150389.46000000095,
      "d": 86.5799999999872,
      "v": 56
    },
    {
      "midi": 42,
      "hit": false,
      "t": 150527.44687500093,
      "d": 54.11249999998836,
      "v": 87
    },
    {
      "midi": 83,
      "hit": false,
      "t": 150635.6718750002,
      "d": 5029.7568750004575,
      "v": 100
    },
    {
      "midi": 50,
      "hit": false,
      "t": 150649.20000000042,
      "d": 29.761874999996508,
      "v": 67
    },
    {
      "midi": 45,
      "hit": false,
      "t": 150649.2000000009,
      "d": 175.86562500000582,
      "v": 86
    },
    {
      "midi": 67,
      "hit": false,
      "t": 150651.90562500025,
      "d": 238.09500000000116,
      "v": 89
    },
    {
      "midi": 50,
      "hit": false,
      "t": 150779.0700000004,
      "d": 45.99562500001048,
      "v": 67
    },
    {
      "midi": 66,
      "hit": false,
      "t": 150887.29500000025,
      "d": 221.8612500000163,
      "v": 78
    },
    {
      "midi": 62,
      "hit": false,
      "t": 150908.94000000044,
      "d": 40.58437500000582,
      "v": 67
    },
    {
      "midi": 57,
      "hit": false,
      "t": 150908.94000000044,
      "d": 51.406875000015134,
      "v": 67
    },
    {
      "midi": 66,
      "hit": false,
      "t": 150908.94000000044,
      "d": 51.406875000015134,
      "v": 67
    },
    {
      "midi": 45,
      "hit": false,
      "t": 150908.94000000093,
      "d": 35.173125000001164,
      "v": 70
    },
    {
      "midi": 45,
      "hit": false,
      "t": 151046.92687500094,
      "d": 54.11249999998836,
      "v": 90
    },
    {
      "midi": 64,
      "hit": false,
      "t": 151149.74062500027,
      "d": 240.8006250000035,
      "v": 82
    },
    {
      "midi": 66,
      "hit": false,
      "t": 151168.68000000005,
      "d": 78.46312500000931,
      "v": 64
    },
    {
      "midi": 62,
      "hit": false,
      "t": 151168.68000000005,
      "d": 91.99125000002095,
      "v": 60
    },
    {
      "midi": 50,
      "hit": false,
      "t": 151168.68000000046,
      "d": 37.87875000000349,
      "v": 67
    },
    {
      "midi": 50,
      "hit": false,
      "t": 151168.68000000092,
      "d": 129.86999999999534,
      "v": 73
    },
    {
      "midi": 62,
      "hit": false,
      "t": 151298.55000000045,
      "d": 45.99562500001048,
      "v": 67
    },
    {
      "midi": 66,
      "hit": false,
      "t": 151298.55000000045,
      "d": 54.11250000001746,
      "v": 67
    },
    {
      "midi": 62,
      "hit": false,
      "t": 151420.30312500027,
      "d": 216.45000000001164,
      "v": 73
    },
    {
      "midi": 50,
      "hit": false,
      "t": 151428.42000000048,
      "d": 27.05624999999418,
      "v": 67
    },
    {
      "midi": 50,
      "hit": false,
      "t": 151428.42000000092,
      "d": 37.87875000000349,
      "v": 61
    },
    {
      "midi": 50,
      "hit": false,
      "t": 151558.29000000047,
      "d": 48.701250000012806,
      "v": 67
    },
    {
      "midi": 50,
      "hit": false,
      "t": 151558.2900000009,
      "d": 81.16875000001164,
      "v": 78
    },
    {
      "midi": 62,
      "hit": false,
      "t": 151682.7487500003,
      "d": 1236.4706249999872,
      "v": 91
    },
    {
      "midi": 55,
      "hit": false,
      "t": 151688.16000000006,
      "d": 300.3243749999965,
      "v": 56
    },
    {
      "midi": 62,
      "hit": false,
      "t": 151688.16000000006,
      "d": 300.3243749999965,
      "v": 64
    },
    {
      "midi": 59,
      "hit": false,
      "t": 151688.16000000006,
      "d": 305.73562500000116,
      "v": 73
    },
    {
      "midi": 55,
      "hit": false,
      "t": 151688.1600000005,
      "d": 146.1037500000093,
      "v": 67
    },
    {
      "midi": 43,
      "hit": false,
      "t": 151688.1600000005,
      "d": 278.679375000007,
      "v": 67
    },
    {
      "midi": 62,
      "hit": false,
      "t": 151688.1600000005,
      "d": 292.2075000000186,
      "v": 67
    },
    {
      "midi": 59,
      "hit": false,
      "t": 151688.1600000005,
      "d": 303.03000000002794,
      "v": 67
    },
    {
      "midi": 31,
      "hit": false,
      "t": 151688.16000000093,
      "d": 183.9825000000128,
      "v": 91
    },
    {
      "midi": 55,
      "hit": false,
      "t": 151947.90000000052,
      "d": 51.406875000015134,
      "v": 67
    },
    {
      "midi": 31,
      "hit": false,
      "t": 151947.90000000095,
      "d": 108.22500000000582,
      "v": 56
    },
    {
      "midi": 55,
      "hit": false,
      "t": 152077.77000000054,
      "d": 45.99562500001048,
      "v": 67
    },
    {
      "midi": 62,
      "hit": false,
      "t": 152077.77000000054,
      "d": 51.406875000015134,
      "v": 67
    },
    {
      "midi": 59,
      "hit": false,
      "t": 152077.77000000054,
      "d": 56.81812500001979,
      "v": 67
    },
    {
      "midi": 31,
      "hit": false,
      "t": 152085.88687500096,
      "d": 54.11249999998836,
      "v": 87
    },
    {
      "midi": 35,
      "hit": false,
      "t": 152207.64000000095,
      "d": 129.86999999999534,
      "v": 73
    },
    {
      "midi": 55,
      "hit": false,
      "t": 152337.51000000056,
      "d": 43.29000000000815,
      "v": 65
    },
    {
      "midi": 59,
      "hit": false,
      "t": 152467.38000000056,
      "d": 37.87875000000349,
      "v": 67
    },
    {
      "midi": 62,
      "hit": false,
      "t": 152467.38000000056,
      "d": 56.81812499999069,
      "v": 67
    },
    {
      "midi": 35,
      "hit": false,
      "t": 152467.38000000094,
      "d": 146.1037500000093,
      "v": 87
    },
    {
      "midi": 43,
      "hit": false,
      "t": 152727.12000000055,
      "d": 29.761874999996508,
      "v": 67
    },
    {
      "midi": 38,
      "hit": false,
      "t": 152727.12000000096,
      "d": 175.86562500000582,
      "v": 86
    },
    {
      "midi": 43,
      "hit": false,
      "t": 152856.99000000054,
      "d": 45.99562500001048,
      "v": 67
    },
    {
      "midi": 62,
      "hit": false,
      "t": 152984.15437500027,
      "d": 332.79187499999534,
      "v": 81
    },
    {
      "midi": 59,
      "hit": false,
      "t": 152986.86000000057,
      "d": 40.58437500000582,
      "v": 67
    },
    {
      "midi": 55,
      "hit": false,
      "t": 152986.86000000057,
      "d": 51.406875000015134,
      "v": 67
    },
    {
      "midi": 62,
      "hit": false,
      "t": 152986.86000000057,
      "d": 51.406875000015134,
      "v": 67
    },
    {
      "midi": 38,
      "hit": false,
      "t": 152986.86000000098,
      "d": 35.173125000001164,
      "v": 70
    },
    {
      "midi": 38,
      "hit": false,
      "t": 153124.84687500098,
      "d": 54.11249999998836,
      "v": 90
    },
    {
      "midi": 43,
      "hit": false,
      "t": 153246.6000000006,
      "d": 37.87875000000349,
      "v": 67
    },
    {
      "midi": 43,
      "hit": false,
      "t": 153246.60000000097,
      "d": 129.86999999999534,
      "v": 73
    },
    {
      "midi": 67,
      "hit": false,
      "t": 153376.47000000006,
      "d": 62.22937499999534,
      "v": 60
    },
    {
      "midi": 62,
      "hit": false,
      "t": 153376.47000000006,
      "d": 70.34625000000233,
      "v": 64
    },
    {
      "midi": 59,
      "hit": false,
      "t": 153376.47000000058,
      "d": 45.99562500001048,
      "v": 67
    },
    {
      "midi": 62,
      "hit": false,
      "t": 153376.47000000058,
      "d": 54.11250000001746,
      "v": 67
    },
    {
      "midi": 62,
      "hit": false,
      "t": 153379.17562500027,
      "d": 292.2074999999895,
      "v": 78
    },
    {
      "midi": 43,
      "hit": false,
      "t": 153506.3400000006,
      "d": 27.05624999999418,
      "v": 67
    },
    {
      "midi": 43,
      "hit": false,
      "t": 153506.34000000096,
      "d": 37.87875000000349,
      "v": 58
    },
    {
      "midi": 43,
      "hit": false,
      "t": 153636.2100000006,
      "d": 48.701250000012806,
      "v": 67
    },
    {
      "midi": 43,
      "hit": false,
      "t": 153636.21000000095,
      "d": 81.16875000001164,
      "v": 87
    },
    {
      "midi": 62,
      "hit": false,
      "t": 153728.20125000025,
      "d": 500.5406249999942,
      "v": 91
    },
    {
      "midi": 57,
      "hit": false,
      "t": 153766.08000000007,
      "d": 286.79625000001397,
      "v": 82
    },
    {
      "midi": 60,
      "hit": false,
      "t": 153766.08000000007,
      "d": 292.2075000000186,
      "v": 60
    },
    {
      "midi": 53,
      "hit": false,
      "t": 153766.08000000007,
      "d": 297.6187500000233,
      "v": 60
    },
    {
      "midi": 53,
      "hit": false,
      "t": 153766.08000000063,
      "d": 146.1037500000093,
      "v": 67
    },
    {
      "midi": 41,
      "hit": false,
      "t": 153766.08000000063,
      "d": 278.679375000007,
      "v": 67
    },
    {
      "midi": 60,
      "hit": false,
      "t": 153766.08000000063,
      "d": 292.2075000000186,
      "v": 67
    },
    {
      "midi": 57,
      "hit": false,
      "t": 153766.08000000063,
      "d": 303.03000000002794,
      "v": 67
    },
    {
      "midi": 29,
      "hit": false,
      "t": 153766.08000000098,
      "d": 183.9825000000128,
      "v": 91
    },
    {
      "midi": 53,
      "hit": false,
      "t": 154025.82000000065,
      "d": 51.406875000015134,
      "v": 67
    },
    {
      "midi": 29,
      "hit": false,
      "t": 154025.820000001,
      "d": 56.81812499999069,
      "v": 56
    },
    {
      "midi": 53,
      "hit": false,
      "t": 154155.69000000067,
      "d": 45.99562500001048,
      "v": 67
    },
    {
      "midi": 60,
      "hit": false,
      "t": 154155.69000000067,
      "d": 51.406875000015134,
      "v": 67
    },
    {
      "midi": 57,
      "hit": false,
      "t": 154155.69000000067,
      "d": 56.81812500001979,
      "v": 67
    },
    {
      "midi": 29,
      "hit": false,
      "t": 154163.806875001,
      "d": 54.11249999998836,
      "v": 87
    },
    {
      "midi": 60,
      "hit": false,
      "t": 154269.32625000025,
      "d": 481.601250000007,
      "v": 91
    },
    {
      "midi": 33,
      "hit": false,
      "t": 154285.560000001,
      "d": 129.86999999999534,
      "v": 73
    },
    {
      "midi": 53,
      "hit": false,
      "t": 154415.4300000007,
      "d": 43.29000000000815,
      "v": 65
    },
    {
      "midi": 57,
      "hit": false,
      "t": 154545.3000000007,
      "d": 37.87875000000349,
      "v": 67
    },
    {
      "midi": 60,
      "hit": false,
      "t": 154545.3000000007,
      "d": 56.81812499999069,
      "v": 67
    },
    {
      "midi": 33,
      "hit": false,
      "t": 154545.30000000098,
      "d": 146.1037500000093,
      "v": 87
    },
    {
      "midi": 59,
      "hit": false,
      "t": 154794.21750000026,
      "d": 484.3068750000093,
      "v": 82
    },
    {
      "midi": 41,
      "hit": false,
      "t": 154805.04000000068,
      "d": 29.761874999996508,
      "v": 67
    },
    {
      "midi": 36,
      "hit": false,
      "t": 154805.040000001,
      "d": 175.86562500000582,
      "v": 86
    },
    {
      "midi": 41,
      "hit": false,
      "t": 154934.91000000067,
      "d": 45.99562500001048,
      "v": 67
    },
    {
      "midi": 60,
      "hit": false,
      "t": 155064.7800000001,
      "d": 62.22937499999534,
      "v": 52
    },
    {
      "midi": 65,
      "hit": false,
      "t": 155064.7800000001,
      "d": 70.34625000000233,
      "v": 56
    },
    {
      "midi": 57,
      "hit": false,
      "t": 155064.7800000007,
      "d": 40.58437500000582,
      "v": 67
    },
    {
      "midi": 53,
      "hit": false,
      "t": 155064.7800000007,
      "d": 51.406875000015134,
      "v": 67
    },
    {
      "midi": 60,
      "hit": false,
      "t": 155064.7800000007,
      "d": 51.406875000015134,
      "v": 67
    },
    {
      "midi": 36,
      "hit": false,
      "t": 155064.78000000102,
      "d": 35.173125000001164,
      "v": 70
    },
    {
      "midi": 36,
      "hit": false,
      "t": 155202.76687500102,
      "d": 54.11249999998836,
      "v": 90
    },
    {
      "midi": 60,
      "hit": false,
      "t": 155310.99187500027,
      "d": 468.07312499999534,
      "v": 82
    },
    {
      "midi": 41,
      "hit": false,
      "t": 155324.52000000072,
      "d": 37.87875000000349,
      "v": 67
    },
    {
      "midi": 41,
      "hit": false,
      "t": 155324.520000001,
      "d": 129.86999999999534,
      "v": 73
    },
    {
      "midi": 65,
      "hit": false,
      "t": 155454.3900000001,
      "d": 83.87437500001397,
      "v": 60
    },
    {
      "midi": 60,
      "hit": false,
      "t": 155454.3900000001,
      "d": 91.99125000002095,
      "v": 56
    },
    {
      "midi": 57,
      "hit": false,
      "t": 155454.3900000007,
      "d": 45.99562500001048,
      "v": 67
    },
    {
      "midi": 60,
      "hit": false,
      "t": 155454.3900000007,
      "d": 54.11250000001746,
      "v": 67
    },
    {
      "midi": 41,
      "hit": false,
      "t": 155584.26000000074,
      "d": 27.05624999999418,
      "v": 67
    },
    {
      "midi": 41,
      "hit": false,
      "t": 155584.260000001,
      "d": 37.87875000000349,
      "v": 61
    },
    {
      "midi": 41,
      "hit": false,
      "t": 155714.13000000073,
      "d": 48.701250000012806,
      "v": 67
    },
    {
      "midi": 41,
      "hit": false,
      "t": 155714.130000001,
      "d": 81.16875000001164,
      "v": 78
    },
    {
      "midi": 60,
      "hit": false,
      "t": 155838.58875000026,
      "d": 2110.3875000000116,
      "v": 91
    },
    {
      "midi": 55,
      "hit": false,
      "t": 155844.00000000012,
      "d": 300.3243749999965,
      "v": 64
    },
    {
      "midi": 60,
      "hit": false,
      "t": 155844.00000000012,
      "d": 300.3243749999965,
      "v": 73
    },
    {
      "midi": 64,
      "hit": false,
      "t": 155844.00000000012,
      "d": 303.02999999999884,
      "v": 60
    },
    {
      "midi": 55,
      "hit": false,
      "t": 155844.00000000076,
      "d": 146.1037500000093,
      "v": 67
    },
    {
      "midi": 48,
      "hit": false,
      "t": 155844.00000000076,
      "d": 278.679375000007,
      "v": 67
    },
    {
      "midi": 64,
      "hit": false,
      "t": 155844.00000000076,
      "d": 292.2075000000186,
      "v": 67
    },
    {
      "midi": 60,
      "hit": false,
      "t": 155844.00000000076,
      "d": 303.03000000002794,
      "v": 67
    },
    {
      "midi": 36,
      "hit": false,
      "t": 155844.00000000102,
      "d": 183.9825000000128,
      "v": 91
    },
    {
      "midi": 55,
      "hit": false,
      "t": 156103.74000000078,
      "d": 51.406875000015134,
      "v": 67
    },
    {
      "midi": 36,
      "hit": false,
      "t": 156103.74000000104,
      "d": 62.22937499999534,
      "v": 56
    },
    {
      "midi": 55,
      "hit": false,
      "t": 156233.6100000008,
      "d": 45.99562500001048,
      "v": 67
    },
    {
      "midi": 64,
      "hit": false,
      "t": 156233.6100000008,
      "d": 51.406875000015134,
      "v": 67
    },
    {
      "midi": 60,
      "hit": false,
      "t": 156233.6100000008,
      "d": 56.81812500001979,
      "v": 67
    },
    {
      "midi": 36,
      "hit": false,
      "t": 156241.72687500104,
      "d": 54.11249999998836,
      "v": 87
    },
    {
      "midi": 40,
      "hit": false,
      "t": 156363.48000000103,
      "d": 175.86562500000582,
      "v": 86
    },
    {
      "midi": 55,
      "hit": false,
      "t": 156493.35000000082,
      "d": 43.29000000000815,
      "v": 65
    },
    {
      "midi": 60,
      "hit": false,
      "t": 156623.22000000082,
      "d": 37.87875000000349,
      "v": 67
    },
    {
      "midi": 64,
      "hit": false,
      "t": 156623.22000000082,
      "d": 56.81812499999069,
      "v": 67
    },
    {
      "midi": 40,
      "hit": false,
      "t": 156623.22000000105,
      "d": 35.173125000001164,
      "v": 70
    },
    {
      "midi": 40,
      "hit": false,
      "t": 156761.20687500105,
      "d": 54.11249999998836,
      "v": 90
    },
    {
      "midi": 48,
      "hit": false,
      "t": 156882.9600000008,
      "d": 29.761874999996508,
      "v": 67
    },
    {
      "midi": 43,
      "hit": false,
      "t": 156882.96000000104,
      "d": 175.86562500000582,
      "v": 86
    },
    {
      "midi": 48,
      "hit": false,
      "t": 157012.8300000008,
      "d": 45.99562500001048,
      "v": 67
    },
    {
      "midi": 60,
      "hit": false,
      "t": 157142.70000000083,
      "d": 40.58437500000582,
      "v": 67
    },
    {
      "midi": 55,
      "hit": false,
      "t": 157142.70000000083,
      "d": 51.406875000015134,
      "v": 67
    },
    {
      "midi": 64,
      "hit": false,
      "t": 157142.70000000083,
      "d": 51.406875000015134,
      "v": 67
    },
    {
      "midi": 43,
      "hit": false,
      "t": 157142.70000000106,
      "d": 35.173125000001164,
      "v": 70
    },
    {
      "midi": 43,
      "hit": false,
      "t": 157280.68687500106,
      "d": 54.11249999998836,
      "v": 90
    },
    {
      "midi": 48,
      "hit": false,
      "t": 157402.44000000085,
      "d": 37.87875000000349,
      "v": 67
    },
    {
      "midi": 48,
      "hit": false,
      "t": 157402.44000000105,
      "d": 129.86999999999534,
      "v": 73
    },
    {
      "midi": 60,
      "hit": false,
      "t": 157532.31000000084,
      "d": 45.99562500001048,
      "v": 67
    },
    {
      "midi": 64,
      "hit": false,
      "t": 157532.31000000084,
      "d": 54.11250000001746,
      "v": 67
    },
    {
      "midi": 48,
      "hit": false,
      "t": 157662.18000000087,
      "d": 27.05624999999418,
      "v": 67
    },
    {
      "midi": 48,
      "hit": false,
      "t": 157662.18000000104,
      "d": 37.87875000000349,
      "v": 61
    },
    {
      "midi": 48,
      "hit": false,
      "t": 157792.05000000086,
      "d": 48.701250000012806,
      "v": 67
    },
    {
      "midi": 48,
      "hit": false,
      "t": 157792.05000000104,
      "d": 81.16875000001164,
      "v": 78
    },
    {
      "midi": 57,
      "hit": false,
      "t": 157911.09750000012,
      "d": 300.3243749999965,
      "v": 64
    },
    {
      "midi": 62,
      "hit": false,
      "t": 157911.09750000012,
      "d": 300.3243749999965,
      "v": 73
    },
    {
      "midi": 66,
      "hit": false,
      "t": 157911.09750000012,
      "d": 303.02999999999884,
      "v": 60
    },
    {
      "midi": 62,
      "hit": false,
      "t": 157921.92000000013,
      "d": 2037.335625000007,
      "v": 73
    },
    {
      "midi": 50,
      "hit": false,
      "t": 157921.92000000013,
      "d": 2053.569375000021,
      "v": 64
    },
    {
      "midi": 54,
      "hit": false,
      "t": 157921.92000000013,
      "d": 2096.859375000029,
      "v": 76
    },
    {
      "midi": 57,
      "hit": false,
      "t": 157921.9200000009,
      "d": 146.1037500000093,
      "v": 67
    },
    {
      "midi": 50,
      "hit": false,
      "t": 157921.9200000009,
      "d": 278.679375000007,
      "v": 67
    },
    {
      "midi": 66,
      "hit": false,
      "t": 157921.9200000009,
      "d": 292.2075000000186,
      "v": 67
    },
    {
      "midi": 62,
      "hit": false,
      "t": 157921.9200000009,
      "d": 303.03000000002794,
      "v": 67
    },
    {
      "midi": 38,
      "hit": false,
      "t": 157921.92000000106,
      "d": 183.9825000000128,
      "v": 91
    },
    {
      "midi": 57,
      "hit": false,
      "t": 158181.6600000009,
      "d": 51.406875000015134,
      "v": 67
    },
    {
      "midi": 38,
      "hit": false,
      "t": 158181.66000000108,
      "d": 89.28562499998952,
      "v": 56
    },
    {
      "midi": 57,
      "hit": false,
      "t": 158311.53000000093,
      "d": 45.99562500001048,
      "v": 67
    },
    {
      "midi": 66,
      "hit": false,
      "t": 158311.53000000093,
      "d": 51.406875000015134,
      "v": 67
    },
    {
      "midi": 62,
      "hit": false,
      "t": 158311.53000000093,
      "d": 56.81812500001979,
      "v": 67
    },
    {
      "midi": 38,
      "hit": false,
      "t": 158319.64687500108,
      "d": 54.11249999998836,
      "v": 87
    },
    {
      "midi": 42,
      "hit": false,
      "t": 158441.40000000107,
      "d": 129.86999999999534,
      "v": 73
    },
    {
      "midi": 57,
      "hit": false,
      "t": 158571.27000000095,
      "d": 43.29000000000815,
      "v": 65
    },
    {
      "midi": 62,
      "hit": false,
      "t": 158701.14000000095,
      "d": 37.87875000000349,
      "v": 67
    },
    {
      "midi": 66,
      "hit": false,
      "t": 158701.14000000095,
      "d": 56.81812499999069,
      "v": 67
    },
    {
      "midi": 42,
      "hit": false,
      "t": 158701.14000000106,
      "d": 86.5799999999872,
      "v": 56
    },
    {
      "midi": 42,
      "hit": false,
      "t": 158839.12687500103,
      "d": 54.11249999998836,
      "v": 87
    },
    {
      "midi": 57,
      "hit": false,
      "t": 158947.35187500014,
      "d": 1047.076875000028,
      "v": 73
    },
    {
      "midi": 83,
      "hit": false,
      "t": 158947.35187500066,
      "d": 5029.7568750004575,
      "v": 100
    },
    {
      "midi": 50,
      "hit": false,
      "t": 158960.88000000094,
      "d": 29.761874999996508,
      "v": 67
    },
    {
      "midi": 45,
      "hit": false,
      "t": 158960.88000000102,
      "d": 175.86562500000582,
      "v": 86
    },
    {
      "midi": 67,
      "hit": false,
      "t": 158968.99687500027,
      "d": 229.97812499999418,
      "v": 91
    },
    {
      "midi": 50,
      "hit": false,
      "t": 159090.75000000093,
      "d": 45.99562500001048,
      "v": 67
    },
    {
      "midi": 66,
      "hit": false,
      "t": 159220.62000000026,
      "d": 246.21187500000815,
      "v": 82
    },
    {
      "midi": 62,
      "hit": false,
      "t": 159220.62000000096,
      "d": 40.58437500000582,
      "v": 67
    },
    {
      "midi": 57,
      "hit": false,
      "t": 159220.62000000096,
      "d": 51.406875000015134,
      "v": 67
    },
    {
      "midi": 66,
      "hit": false,
      "t": 159220.62000000096,
      "d": 51.406875000015134,
      "v": 67
    },
    {
      "midi": 45,
      "hit": false,
      "t": 159220.62000000104,
      "d": 35.173125000001164,
      "v": 70
    },
    {
      "midi": 45,
      "hit": false,
      "t": 159358.60687500105,
      "d": 54.11249999998836,
      "v": 90
    },
    {
      "midi": 50,
      "hit": false,
      "t": 159480.36000000098,
      "d": 37.87875000000349,
      "v": 67
    },
    {
      "midi": 50,
      "hit": false,
      "t": 159480.36000000103,
      "d": 129.86999999999534,
      "v": 73
    },
    {
      "midi": 64,
      "hit": false,
      "t": 159496.59375000026,
      "d": 229.97812499999418,
      "v": 91
    },
    {
      "midi": 62,
      "hit": false,
      "t": 159610.23000000097,
      "d": 45.99562500001048,
      "v": 67
    },
    {
      "midi": 66,
      "hit": false,
      "t": 159610.23000000097,
      "d": 54.11250000001746,
      "v": 67
    },
    {
      "midi": 50,
      "hit": false,
      "t": 159740.100000001,
      "d": 27.05624999999418,
      "v": 67
    },
    {
      "midi": 50,
      "hit": false,
      "t": 159740.10000000102,
      "d": 37.87875000000349,
      "v": 61
    },
    {
      "midi": 62,
      "hit": false,
      "t": 159745.51125000024,
      "d": 205.62750000000233,
      "v": 73
    },
    {
      "midi": 50,
      "hit": false,
      "t": 159869.970000001,
      "d": 48.701250000012806,
      "v": 67
    },
    {
      "midi": 50,
      "hit": false,
      "t": 159869.97000000102,
      "d": 81.16875000001164,
      "v": 78
    },
    {
      "midi": 62,
      "hit": false,
      "t": 159983.60625000016,
      "d": 2056.2750000000233,
      "v": 64
    },
    {
      "midi": 55,
      "hit": false,
      "t": 159991.72312500016,
      "d": 2072.5087500000373,
      "v": 70
    },
    {
      "midi": 50,
      "hit": false,
      "t": 159994.42875000017,
      "d": 2031.9243750000023,
      "v": 61
    },
    {
      "midi": 59,
      "hit": false,
      "t": 159994.42875000017,
      "d": 2069.803125000035,
      "v": 60
    },
    {
      "midi": 55,
      "hit": false,
      "t": 159999.8400000001,
      "d": 300.3243749999965,
      "v": 56
    },
    {
      "midi": 62,
      "hit": false,
      "t": 159999.8400000001,
      "d": 300.3243749999965,
      "v": 64
    },
    {
      "midi": 59,
      "hit": false,
      "t": 159999.8400000001,
      "d": 305.73562500000116,
      "v": 73
    },
    {
      "midi": 55,
      "hit": false,
      "t": 159999.84000000102,
      "d": 146.1037500000093,
      "v": 67
    },
    {
      "midi": 43,
      "hit": false,
      "t": 159999.84000000102,
      "d": 278.679375000007,
      "v": 67
    },
    {
      "midi": 62,
      "hit": false,
      "t": 159999.84000000102,
      "d": 292.2075000000186,
      "v": 67
    },
    {
      "midi": 59,
      "hit": false,
      "t": 159999.84000000102,
      "d": 303.03000000002794,
      "v": 67
    },
    {
      "midi": 31,
      "hit": false,
      "t": 159999.84000000104,
      "d": 183.9825000000128,
      "v": 91
    },
    {
      "midi": 62,
      "hit": false,
      "t": 160010.66250000024,
      "d": 1461.0375000000058,
      "v": 92
    },
    {
      "midi": 55,
      "hit": false,
      "t": 160259.58000000103,
      "d": 51.406875000015134,
      "v": 67
    },
    {
      "midi": 31,
      "hit": false,
      "t": 160259.58000000106,
      "d": 108.22500000000582,
      "v": 56
    },
    {
      "midi": 55,
      "hit": false,
      "t": 160389.45000000106,
      "d": 45.99562500001048,
      "v": 67
    },
    {
      "midi": 62,
      "hit": false,
      "t": 160389.45000000106,
      "d": 51.406875000015134,
      "v": 67
    },
    {
      "midi": 59,
      "hit": false,
      "t": 160389.45000000106,
      "d": 56.81812500001979,
      "v": 67
    },
    {
      "midi": 31,
      "hit": false,
      "t": 160397.56687500107,
      "d": 54.11249999998836,
      "v": 87
    },
    {
      "midi": 35,
      "hit": false,
      "t": 160519.32000000105,
      "d": 129.86999999999534,
      "v": 73
    },
    {
      "midi": 55,
      "hit": false,
      "t": 160649.19000000108,
      "d": 43.29000000000815,
      "v": 65
    },
    {
      "midi": 35,
      "hit": false,
      "t": 160779.06000000105,
      "d": 146.1037500000093,
      "v": 87
    },
    {
      "midi": 59,
      "hit": false,
      "t": 160779.06000000107,
      "d": 37.87875000000349,
      "v": 67
    },
    {
      "midi": 62,
      "hit": false,
      "t": 160779.06000000107,
      "d": 56.81812499999069,
      "v": 67
    },
    {
      "midi": 43,
      "hit": false,
      "t": 161038.80000000107,
      "d": 29.761874999996508,
      "v": 67
    },
    {
      "midi": 38,
      "hit": false,
      "t": 161038.80000000107,
      "d": 175.86562500000582,
      "v": 86
    },
    {
      "midi": 43,
      "hit": false,
      "t": 161168.67000000106,
      "d": 45.99562500001048,
      "v": 67
    },
    {
      "midi": 59,
      "hit": false,
      "t": 161298.54000000108,
      "d": 40.58437500000582,
      "v": 67
    },
    {
      "midi": 55,
      "hit": false,
      "t": 161298.54000000108,
      "d": 51.406875000015134,
      "v": 67
    },
    {
      "midi": 62,
      "hit": false,
      "t": 161298.54000000108,
      "d": 51.406875000015134,
      "v": 67
    },
    {
      "midi": 38,
      "hit": false,
      "t": 161298.54000000108,
      "d": 35.173125000001164,
      "v": 70
    },
    {
      "midi": 38,
      "hit": false,
      "t": 161436.5268750011,
      "d": 54.11249999998836,
      "v": 90
    },
    {
      "midi": 62,
      "hit": false,
      "t": 161542.04625000025,
      "d": 459.95624999998836,
      "v": 82
    },
    {
      "midi": 43,
      "hit": false,
      "t": 161558.28000000108,
      "d": 129.86999999999534,
      "v": 73
    },
    {
      "midi": 43,
      "hit": false,
      "t": 161558.2800000011,
      "d": 37.87875000000349,
      "v": 67
    },
    {
      "midi": 59,
      "hit": false,
      "t": 161688.1500000011,
      "d": 45.99562500001048,
      "v": 67
    },
    {
      "midi": 62,
      "hit": false,
      "t": 161688.1500000011,
      "d": 54.11250000001746,
      "v": 67
    },
    {
      "midi": 43,
      "hit": false,
      "t": 161818.02000000107,
      "d": 37.87875000000349,
      "v": 58
    },
    {
      "midi": 43,
      "hit": false,
      "t": 161818.02000000112,
      "d": 27.05624999999418,
      "v": 67
    },
    {
      "midi": 43,
      "hit": false,
      "t": 161947.89000000106,
      "d": 81.16875000001164,
      "v": 87
    },
    {
      "midi": 43,
      "hit": false,
      "t": 161947.89000000112,
      "d": 48.701250000012806,
      "v": 67
    },
    {
      "midi": 53,
      "hit": false,
      "t": 162050.7037500002,
      "d": 562.7700000000186,
      "v": 73
    },
    {
      "midi": 62,
      "hit": false,
      "t": 162061.52625000023,
      "d": 487.01250000001164,
      "v": 82
    },
    {
      "midi": 62,
      "hit": false,
      "t": 162064.2318750002,
      "d": 524.891249999986,
      "v": 82
    },
    {
      "midi": 50,
      "hit": false,
      "t": 162069.6431250002,
      "d": 524.891249999986,
      "v": 64
    },
    {
      "midi": 57,
      "hit": false,
      "t": 162077.76000000013,
      "d": 286.79625000001397,
      "v": 82
    },
    {
      "midi": 60,
      "hit": false,
      "t": 162077.76000000013,
      "d": 292.2075000000186,
      "v": 60
    },
    {
      "midi": 53,
      "hit": false,
      "t": 162077.76000000013,
      "d": 297.6187500000233,
      "v": 60
    },
    {
      "midi": 29,
      "hit": false,
      "t": 162077.7600000011,
      "d": 183.9825000000128,
      "v": 91
    },
    {
      "midi": 53,
      "hit": false,
      "t": 162077.76000000114,
      "d": 146.1037500000093,
      "v": 67
    },
    {
      "midi": 41,
      "hit": false,
      "t": 162077.76000000114,
      "d": 278.679375000007,
      "v": 67
    },
    {
      "midi": 60,
      "hit": false,
      "t": 162077.76000000114,
      "d": 292.2075000000186,
      "v": 67
    },
    {
      "midi": 57,
      "hit": false,
      "t": 162077.76000000114,
      "d": 303.03000000002794,
      "v": 67
    },
    {
      "midi": 29,
      "hit": false,
      "t": 162337.5000000011,
      "d": 56.81812499999069,
      "v": 56
    },
    {
      "midi": 53,
      "hit": false,
      "t": 162337.50000000116,
      "d": 51.406875000015134,
      "v": 67
    },
    {
      "midi": 53,
      "hit": false,
      "t": 162467.3700000012,
      "d": 45.99562500001048,
      "v": 67
    },
    {
      "midi": 60,
      "hit": false,
      "t": 162467.3700000012,
      "d": 51.406875000015134,
      "v": 67
    },
    {
      "midi": 57,
      "hit": false,
      "t": 162467.3700000012,
      "d": 56.81812500001979,
      "v": 67
    },
    {
      "midi": 29,
      "hit": false,
      "t": 162475.4868750011,
      "d": 54.11249999998836,
      "v": 87
    },
    {
      "midi": 48,
      "hit": false,
      "t": 162564.7725000002,
      "d": 557.358750000014,
      "v": 56
    },
    {
      "midi": 60,
      "hit": false,
      "t": 162589.1231250002,
      "d": 530.3025000000198,
      "v": 73
    },
    {
      "midi": 57,
      "hit": false,
      "t": 162597.2400000002,
      "d": 533.0081250000221,
      "v": 73
    },
    {
      "midi": 33,
      "hit": false,
      "t": 162597.2400000011,
      "d": 129.86999999999534,
      "v": 73
    },
    {
      "midi": 60,
      "hit": false,
      "t": 162610.76812500024,
      "d": 454.5450000000128,
      "v": 91
    },
    {
      "midi": 53,
      "hit": false,
      "t": 162727.1100000012,
      "d": 43.29000000000815,
      "v": 65
    },
    {
      "midi": 33,
      "hit": false,
      "t": 162856.9800000011,
      "d": 146.1037500000093,
      "v": 87
    },
    {
      "midi": 57,
      "hit": false,
      "t": 162856.9800000012,
      "d": 37.87875000000349,
      "v": 67
    },
    {
      "midi": 60,
      "hit": false,
      "t": 162856.9800000012,
      "d": 56.81812499999069,
      "v": 67
    },
    {
      "midi": 59,
      "hit": false,
      "t": 163092.3693750002,
      "d": 560.0643749999872,
      "v": 64
    },
    {
      "midi": 47,
      "hit": false,
      "t": 163095.07500000022,
      "d": 519.4799999999814,
      "v": 60
    },
    {
      "midi": 36,
      "hit": false,
      "t": 163116.7200000011,
      "d": 175.86562500000582,
      "v": 86
    },
    {
      "midi": 41,
      "hit": false,
      "t": 163116.7200000012,
      "d": 29.761874999996508,
      "v": 67
    },
    {
      "midi": 59,
      "hit": false,
      "t": 163119.42562500024,
      "d": 454.5450000000128,
      "v": 82
    },
    {
      "midi": 55,
      "hit": false,
      "t": 163122.1312500002,
      "d": 533.008124999993,
      "v": 70
    },
    {
      "midi": 41,
      "hit": false,
      "t": 163246.5900000012,
      "d": 45.99562500001048,
      "v": 67
    },
    {
      "midi": 36,
      "hit": false,
      "t": 163376.46000000113,
      "d": 35.173125000001164,
      "v": 70
    },
    {
      "midi": 57,
      "hit": false,
      "t": 163376.4600000012,
      "d": 40.58437500000582,
      "v": 67
    },
    {
      "midi": 53,
      "hit": false,
      "t": 163376.4600000012,
      "d": 51.406875000015134,
      "v": 67
    },
    {
      "midi": 60,
      "hit": false,
      "t": 163376.4600000012,
      "d": 51.406875000015134,
      "v": 67
    },
    {
      "midi": 36,
      "hit": false,
      "t": 163514.44687500113,
      "d": 54.11249999998836,
      "v": 90
    },
    {
      "midi": 48,
      "hit": false,
      "t": 163595.6156250002,
      "d": 524.8912500000151,
      "v": 56
    },
    {
      "midi": 60,
      "hit": false,
      "t": 163636.20000000024,
      "d": 459.95624999998836,
      "v": 82
    },
    {
      "midi": 41,
      "hit": false,
      "t": 163636.20000000112,
      "d": 129.86999999999534,
      "v": 73
    },
    {
      "midi": 41,
      "hit": false,
      "t": 163636.20000000123,
      "d": 37.87875000000349,
      "v": 67
    },
    {
      "midi": 60,
      "hit": false,
      "t": 163638.9056250002,
      "d": 465.3675000000221,
      "v": 73
    },
    {
      "midi": 57,
      "hit": false,
      "t": 163663.2562500002,
      "d": 503.2462500000256,
      "v": 73
    },
    {
      "midi": 57,
      "hit": false,
      "t": 163766.07000000123,
      "d": 45.99562500001048,
      "v": 67
    },
    {
      "midi": 60,
      "hit": false,
      "t": 163766.07000000123,
      "d": 54.11250000001746,
      "v": 67
    },
    {
      "midi": 41,
      "hit": false,
      "t": 163895.9400000011,
      "d": 37.87875000000349,
      "v": 61
    },
    {
      "midi": 41,
      "hit": false,
      "t": 163895.94000000125,
      "d": 27.05624999999418,
      "v": 67
    },
    {
      "midi": 41,
      "hit": false,
      "t": 164025.8100000011,
      "d": 81.16875000001164,
      "v": 78
    },
    {
      "midi": 41,
      "hit": false,
      "t": 164025.81000000125,
      "d": 48.701250000012806,
      "v": 67
    },
    {
      "midi": 64,
      "hit": false,
      "t": 164123.21250000023,
      "d": 2072.508750000008,
      "v": 64
    },
    {
      "midi": 60,
      "hit": false,
      "t": 164128.62375000023,
      "d": 2102.2706250000338,
      "v": 73
    },
    {
      "midi": 48,
      "hit": false,
      "t": 164139.44625000024,
      "d": 2042.7468749999825,
      "v": 64
    },
    {
      "midi": 55,
      "hit": false,
      "t": 164144.85750000025,
      "d": 2064.391875000001,
      "v": 73
    },
    {
      "midi": 55,
      "hit": false,
      "t": 164155.68000000014,
      "d": 300.3243749999965,
      "v": 64
    },
    {
      "midi": 60,
      "hit": false,
      "t": 164155.68000000014,
      "d": 300.3243749999965,
      "v": 73
    },
    {
      "midi": 64,
      "hit": false,
      "t": 164155.68000000014,
      "d": 303.02999999999884,
      "v": 60
    },
    {
      "midi": 36,
      "hit": false,
      "t": 164155.68000000113,
      "d": 183.9825000000128,
      "v": 91
    },
    {
      "midi": 55,
      "hit": false,
      "t": 164155.68000000127,
      "d": 146.1037500000093,
      "v": 67
    },
    {
      "midi": 48,
      "hit": false,
      "t": 164155.68000000127,
      "d": 278.679375000007,
      "v": 67
    },
    {
      "midi": 64,
      "hit": false,
      "t": 164155.68000000127,
      "d": 292.2075000000186,
      "v": 67
    },
    {
      "midi": 60,
      "hit": false,
      "t": 164155.68000000127,
      "d": 303.03000000002794,
      "v": 67
    },
    {
      "midi": 60,
      "hit": false,
      "t": 164166.50250000024,
      "d": 2067.0975000000035,
      "v": 82
    },
    {
      "midi": 36,
      "hit": false,
      "t": 164415.42000000115,
      "d": 62.22937499999534,
      "v": 56
    },
    {
      "midi": 55,
      "hit": false,
      "t": 164415.4200000013,
      "d": 51.406875000015134,
      "v": 67
    },
    {
      "midi": 55,
      "hit": false,
      "t": 164545.29000000132,
      "d": 45.99562500001048,
      "v": 67
    },
    {
      "midi": 64,
      "hit": false,
      "t": 164545.29000000132,
      "d": 51.406875000015134,
      "v": 67
    },
    {
      "midi": 60,
      "hit": false,
      "t": 164545.29000000132,
      "d": 56.81812500001979,
      "v": 67
    },
    {
      "midi": 36,
      "hit": false,
      "t": 164553.40687500115,
      "d": 54.11249999998836,
      "v": 87
    },
    {
      "midi": 40,
      "hit": false,
      "t": 164675.16000000114,
      "d": 175.86562500000582,
      "v": 86
    },
    {
      "midi": 55,
      "hit": false,
      "t": 164805.03000000134,
      "d": 43.29000000000815,
      "v": 65
    },
    {
      "midi": 40,
      "hit": false,
      "t": 164934.90000000116,
      "d": 35.173125000001164,
      "v": 70
    },
    {
      "midi": 60,
      "hit": false,
      "t": 164934.90000000133,
      "d": 37.87875000000349,
      "v": 67
    },
    {
      "midi": 64,
      "hit": false,
      "t": 164934.90000000133,
      "d": 56.81812499999069,
      "v": 67
    },
    {
      "midi": 40,
      "hit": false,
      "t": 165072.88687500116,
      "d": 54.11249999998836,
      "v": 90
    },
    {
      "midi": 43,
      "hit": false,
      "t": 165194.64000000115,
      "d": 175.86562500000582,
      "v": 86
    },
    {
      "midi": 48,
      "hit": false,
      "t": 165194.64000000132,
      "d": 29.761874999996508,
      "v": 67
    },
    {
      "midi": 48,
      "hit": false,
      "t": 165324.51000000132,
      "d": 45.99562500001048,
      "v": 67
    },
    {
      "midi": 43,
      "hit": false,
      "t": 165454.38000000117,
      "d": 35.173125000001164,
      "v": 70
    },
    {
      "midi": 60,
      "hit": false,
      "t": 165454.38000000134,
      "d": 40.58437500000582,
      "v": 67
    },
    {
      "midi": 55,
      "hit": false,
      "t": 165454.38000000134,
      "d": 51.406875000015134,
      "v": 67
    },
    {
      "midi": 64,
      "hit": false,
      "t": 165454.38000000134,
      "d": 51.406875000015134,
      "v": 67
    },
    {
      "midi": 43,
      "hit": false,
      "t": 165592.36687500117,
      "d": 54.11249999998836,
      "v": 90
    },
    {
      "midi": 48,
      "hit": false,
      "t": 165714.12000000116,
      "d": 129.86999999999534,
      "v": 73
    },
    {
      "midi": 48,
      "hit": false,
      "t": 165714.12000000136,
      "d": 37.87875000000349,
      "v": 67
    },
    {
      "midi": 60,
      "hit": false,
      "t": 165843.99000000136,
      "d": 45.99562500001048,
      "v": 67
    },
    {
      "midi": 64,
      "hit": false,
      "t": 165843.99000000136,
      "d": 54.11250000001746,
      "v": 67
    },
    {
      "midi": 48,
      "hit": false,
      "t": 165973.86000000115,
      "d": 37.87875000000349,
      "v": 61
    },
    {
      "midi": 48,
      "hit": false,
      "t": 165973.86000000138,
      "d": 27.05624999999418,
      "v": 67
    },
    {
      "midi": 48,
      "hit": false,
      "t": 166103.73000000115,
      "d": 81.16875000001164,
      "v": 78
    },
    {
      "midi": 48,
      "hit": false,
      "t": 166103.73000000138,
      "d": 48.701250000012806,
      "v": 67
    },
    {
      "midi": 50,
      "hit": false,
      "t": 166203.83812500024,
      "d": 2069.803125000035,
      "v": 56
    },
    {
      "midi": 54,
      "hit": false,
      "t": 166211.95500000025,
      "d": 2050.8637500000186,
      "v": 70
    },
    {
      "midi": 62,
      "hit": false,
      "t": 166211.95500000025,
      "d": 2069.803125000035,
      "v": 70
    },
    {
      "midi": 57,
      "hit": false,
      "t": 166220.07187500026,
      "d": 2053.569375000021,
      "v": 48
    },
    {
      "midi": 66,
      "hit": false,
      "t": 166220.07187500026,
      "d": 2075.2143750000396,
      "v": 64
    },
    {
      "midi": 57,
      "hit": false,
      "t": 166233.60000000015,
      "d": 313.85250000000815,
      "v": 64
    },
    {
      "midi": 62,
      "hit": false,
      "t": 166233.60000000015,
      "d": 313.85250000000815,
      "v": 73
    },
    {
      "midi": 66,
      "hit": false,
      "t": 166233.60000000015,
      "d": 316.5581250000105,
      "v": 64
    },
    {
      "midi": 38,
      "hit": false,
      "t": 166233.60000000117,
      "d": 183.9825000000128,
      "v": 91
    },
    {
      "midi": 57,
      "hit": false,
      "t": 166233.6000000014,
      "d": 146.1037500000093,
      "v": 67
    },
    {
      "midi": 50,
      "hit": false,
      "t": 166233.6000000014,
      "d": 278.679375000007,
      "v": 67
    },
    {
      "midi": 66,
      "hit": false,
      "t": 166233.6000000014,
      "d": 292.2075000000186,
      "v": 67
    },
    {
      "midi": 62,
      "hit": false,
      "t": 166233.6000000014,
      "d": 303.03000000002794,
      "v": 67
    },
    {
      "midi": 38,
      "hit": false,
      "t": 166493.3400000012,
      "d": 89.28562499998952,
      "v": 56
    },
    {
      "midi": 57,
      "hit": false,
      "t": 166493.34000000142,
      "d": 51.406875000015134,
      "v": 67
    },
    {
      "midi": 57,
      "hit": false,
      "t": 166623.21000000145,
      "d": 45.99562500001048,
      "v": 67
    },
    {
      "midi": 66,
      "hit": false,
      "t": 166623.21000000145,
      "d": 51.406875000015134,
      "v": 67
    },
    {
      "midi": 62,
      "hit": false,
      "t": 166623.21000000145,
      "d": 56.81812500001979,
      "v": 67
    },
    {
      "midi": 38,
      "hit": false,
      "t": 166631.3268750012,
      "d": 54.11249999998836,
      "v": 87
    },
    {
      "midi": 42,
      "hit": false,
      "t": 166753.08000000118,
      "d": 129.86999999999534,
      "v": 73
    },
    {
      "midi": 57,
      "hit": false,
      "t": 166882.95000000147,
      "d": 43.29000000000815,
      "v": 65
    },
    {
      "midi": 42,
      "hit": false,
      "t": 167012.82000000117,
      "d": 86.5799999999872,
      "v": 56
    },
    {
      "midi": 62,
      "hit": false,
      "t": 167012.82000000146,
      "d": 37.87875000000349,
      "v": 67
    },
    {
      "midi": 66,
      "hit": false,
      "t": 167012.82000000146,
      "d": 56.81812499999069,
      "v": 67
    },
    {
      "midi": 42,
      "hit": false,
      "t": 167150.80687500114,
      "d": 54.11249999998836,
      "v": 87
    },
    {
      "midi": 83,
      "hit": false,
      "t": 167259.03187500112,
      "d": 5029.7568750004575,
      "v": 100
    },
    {
      "midi": 45,
      "hit": false,
      "t": 167272.56000000113,
      "d": 175.86562500000582,
      "v": 86
    },
    {
      "midi": 50,
      "hit": false,
      "t": 167272.56000000145,
      "d": 29.761874999996508,
      "v": 67
    },
    {
      "midi": 67,
      "hit": false,
      "t": 167275.26562500023,
      "d": 243.50625000000582,
      "v": 91
    },
    {
      "midi": 50,
      "hit": false,
      "t": 167402.43000000145,
      "d": 45.99562500001048,
      "v": 67
    },
    {
      "midi": 66,
      "hit": false,
      "t": 167529.59437500025,
      "d": 229.97812499999418,
      "v": 73
    },
    {
      "midi": 45,
      "hit": false,
      "t": 167532.30000000115,
      "d": 35.173125000001164,
      "v": 70
    },
    {
      "midi": 62,
      "hit": false,
      "t": 167532.30000000147,
      "d": 40.58437500000582,
      "v": 67
    },
    {
      "midi": 57,
      "hit": false,
      "t": 167532.30000000147,
      "d": 51.406875000015134,
      "v": 67
    },
    {
      "midi": 66,
      "hit": false,
      "t": 167532.30000000147,
      "d": 51.406875000015134,
      "v": 67
    },
    {
      "midi": 45,
      "hit": false,
      "t": 167670.28687500115,
      "d": 54.11249999998836,
      "v": 90
    },
    {
      "midi": 66,
      "hit": false,
      "t": 167792.04000000015,
      "d": 78.46312500000931,
      "v": 64
    },
    {
      "midi": 62,
      "hit": false,
      "t": 167792.04000000015,
      "d": 91.99125000002095,
      "v": 60
    },
    {
      "midi": 50,
      "hit": false,
      "t": 167792.04000000114,
      "d": 129.86999999999534,
      "v": 73
    },
    {
      "midi": 50,
      "hit": false,
      "t": 167792.0400000015,
      "d": 37.87875000000349,
      "v": 67
    },
    {
      "midi": 64,
      "hit": false,
      "t": 167802.86250000025,
      "d": 219.15562500001397,
      "v": 84
    },
    {
      "midi": 62,
      "hit": false,
      "t": 167921.9100000015,
      "d": 45.99562500001048,
      "v": 67
    },
    {
      "midi": 66,
      "hit": false,
      "t": 167921.9100000015,
      "d": 54.11250000001746,
      "v": 67
    },
    {
      "midi": 62,
      "hit": false,
      "t": 168049.07437500026,
      "d": 197.51062499999534,
      "v": 73
    },
    {
      "midi": 50,
      "hit": false,
      "t": 168051.78000000113,
      "d": 37.87875000000349,
      "v": 61
    },
    {
      "midi": 50,
      "hit": false,
      "t": 168051.7800000015,
      "d": 27.05624999999418,
      "v": 67
    },
    {
      "midi": 50,
      "hit": false,
      "t": 168181.65000000113,
      "d": 81.16875000001164,
      "v": 78
    },
    {
      "midi": 50,
      "hit": false,
      "t": 168181.6500000015,
      "d": 48.701250000012806,
      "v": 67
    },
    {
      "midi": 62,
      "hit": false,
      "t": 168295.2862500003,
      "d": 2056.2750000000233,
      "v": 64
    },
    {
      "midi": 55,
      "hit": false,
      "t": 168303.4031250003,
      "d": 2072.5087500000373,
      "v": 70
    },
    {
      "midi": 50,
      "hit": false,
      "t": 168306.1087500003,
      "d": 2031.9243750000023,
      "v": 61
    },
    {
      "midi": 59,
      "hit": false,
      "t": 168306.1087500003,
      "d": 2069.803125000035,
      "v": 60
    },
    {
      "midi": 55,
      "hit": false,
      "t": 168311.52000000016,
      "d": 300.3243749999965,
      "v": 56
    },
    {
      "midi": 62,
      "hit": false,
      "t": 168311.52000000016,
      "d": 300.3243749999965,
      "v": 64
    },
    {
      "midi": 59,
      "hit": false,
      "t": 168311.52000000016,
      "d": 305.73562500000116,
      "v": 73
    },
    {
      "midi": 31,
      "hit": false,
      "t": 168311.52000000115,
      "d": 183.9825000000128,
      "v": 91
    },
    {
      "midi": 55,
      "hit": false,
      "t": 168311.52000000153,
      "d": 146.1037500000093,
      "v": 67
    },
    {
      "midi": 43,
      "hit": false,
      "t": 168311.52000000153,
      "d": 278.679375000007,
      "v": 67
    },
    {
      "midi": 62,
      "hit": false,
      "t": 168311.52000000153,
      "d": 292.2075000000186,
      "v": 67
    },
    {
      "midi": 59,
      "hit": false,
      "t": 168311.52000000153,
      "d": 303.03000000002794,
      "v": 67
    },
    {
      "midi": 62,
      "hit": false,
      "t": 168314.22562500025,
      "d": 1485.3881249999977,
      "v": 91
    },
    {
      "midi": 31,
      "hit": false,
      "t": 168571.26000000117,
      "d": 108.22500000000582,
      "v": 56
    },
    {
      "midi": 55,
      "hit": false,
      "t": 168571.26000000155,
      "d": 51.406875000015134,
      "v": 67
    },
    {
      "midi": 55,
      "hit": false,
      "t": 168701.13000000158,
      "d": 45.99562500001048,
      "v": 67
    },
    {
      "midi": 62,
      "hit": false,
      "t": 168701.13000000158,
      "d": 51.406875000015134,
      "v": 67
    },
    {
      "midi": 59,
      "hit": false,
      "t": 168701.13000000158,
      "d": 56.81812500001979,
      "v": 67
    },
    {
      "midi": 31,
      "hit": false,
      "t": 168709.24687500118,
      "d": 54.11249999998836,
      "v": 87
    },
    {
      "midi": 35,
      "hit": false,
      "t": 168831.00000000116,
      "d": 129.86999999999534,
      "v": 73
    },
    {
      "midi": 55,
      "hit": false,
      "t": 168960.8700000016,
      "d": 43.29000000000815,
      "v": 65
    },
    {
      "midi": 35,
      "hit": false,
      "t": 169090.74000000115,
      "d": 146.1037500000093,
      "v": 87
    },
    {
      "midi": 59,
      "hit": false,
      "t": 169090.7400000016,
      "d": 37.87875000000349,
      "v": 67
    },
    {
      "midi": 62,
      "hit": false,
      "t": 169090.7400000016,
      "d": 56.81812499999069,
      "v": 67
    },
    {
      "midi": 38,
      "hit": false,
      "t": 169350.48000000117,
      "d": 175.86562500000582,
      "v": 86
    },
    {
      "midi": 43,
      "hit": false,
      "t": 169350.48000000158,
      "d": 29.761874999996508,
      "v": 67
    },
    {
      "midi": 43,
      "hit": false,
      "t": 169480.35000000158,
      "d": 45.99562500001048,
      "v": 67
    },
    {
      "midi": 38,
      "hit": false,
      "t": 169610.2200000012,
      "d": 35.173125000001164,
      "v": 70
    },
    {
      "midi": 59,
      "hit": false,
      "t": 169610.2200000016,
      "d": 40.58437500000582,
      "v": 67
    },
    {
      "midi": 55,
      "hit": false,
      "t": 169610.2200000016,
      "d": 51.406875000015134,
      "v": 67
    },
    {
      "midi": 62,
      "hit": false,
      "t": 169610.2200000016,
      "d": 51.406875000015134,
      "v": 67
    },
    {
      "midi": 38,
      "hit": false,
      "t": 169748.2068750012,
      "d": 54.11249999998836,
      "v": 90
    },
    {
      "midi": 62,
      "hit": false,
      "t": 169856.43187500024,
      "d": 465.367499999993,
      "v": 91
    },
    {
      "midi": 43,
      "hit": false,
      "t": 169869.96000000119,
      "d": 129.86999999999534,
      "v": 73
    },
    {
      "midi": 43,
      "hit": false,
      "t": 169869.96000000162,
      "d": 37.87875000000349,
      "v": 67
    },
    {
      "midi": 67,
      "hit": false,
      "t": 169999.83000000016,
      "d": 62.22937499999534,
      "v": 60
    },
    {
      "midi": 62,
      "hit": false,
      "t": 169999.83000000016,
      "d": 70.34625000000233,
      "v": 64
    },
    {
      "midi": 59,
      "hit": false,
      "t": 169999.83000000162,
      "d": 45.99562500001048,
      "v": 67
    },
    {
      "midi": 62,
      "hit": false,
      "t": 169999.83000000162,
      "d": 54.11250000001746,
      "v": 67
    },
    {
      "midi": 43,
      "hit": false,
      "t": 170129.70000000118,
      "d": 37.87875000000349,
      "v": 58
    },
    {
      "midi": 43,
      "hit": false,
      "t": 170129.70000000164,
      "d": 27.05624999999418,
      "v": 67
    },
    {
      "midi": 43,
      "hit": false,
      "t": 170259.57000000117,
      "d": 81.16875000001164,
      "v": 87
    },
    {
      "midi": 43,
      "hit": false,
      "t": 170259.57000000164,
      "d": 48.701250000012806,
      "v": 67
    },
    {
      "midi": 53,
      "hit": false,
      "t": 170362.38375000033,
      "d": 562.7700000000186,
      "v": 73
    },
    {
      "midi": 62,
      "hit": false,
      "t": 170375.91187500022,
      "d": 457.25062499998603,
      "v": 82
    },
    {
      "midi": 62,
      "hit": false,
      "t": 170375.91187500034,
      "d": 524.891249999986,
      "v": 82
    },
    {
      "midi": 50,
      "hit": false,
      "t": 170381.32312500034,
      "d": 524.891249999986,
      "v": 64
    },
    {
      "midi": 57,
      "hit": false,
      "t": 170389.44000000018,
      "d": 286.79625000001397,
      "v": 82
    },
    {
      "midi": 60,
      "hit": false,
      "t": 170389.44000000018,
      "d": 292.2075000000186,
      "v": 60
    },
    {
      "midi": 53,
      "hit": false,
      "t": 170389.44000000018,
      "d": 297.6187500000233,
      "v": 60
    },
    {
      "midi": 29,
      "hit": false,
      "t": 170389.4400000012,
      "d": 183.9825000000128,
      "v": 91
    },
    {
      "midi": 53,
      "hit": false,
      "t": 170389.44000000166,
      "d": 146.1037500000093,
      "v": 67
    },
    {
      "midi": 41,
      "hit": false,
      "t": 170389.44000000166,
      "d": 278.679375000007,
      "v": 67
    },
    {
      "midi": 60,
      "hit": false,
      "t": 170389.44000000166,
      "d": 292.2075000000186,
      "v": 67
    },
    {
      "midi": 57,
      "hit": false,
      "t": 170389.44000000166,
      "d": 303.03000000002794,
      "v": 67
    },
    {
      "midi": 29,
      "hit": false,
      "t": 170649.18000000122,
      "d": 56.81812499999069,
      "v": 56
    },
    {
      "midi": 53,
      "hit": false,
      "t": 170649.18000000168,
      "d": 51.406875000015134,
      "v": 67
    },
    {
      "midi": 53,
      "hit": false,
      "t": 170779.0500000017,
      "d": 45.99562500001048,
      "v": 67
    },
    {
      "midi": 60,
      "hit": false,
      "t": 170779.0500000017,
      "d": 51.406875000015134,
      "v": 67
    },
    {
      "midi": 57,
      "hit": false,
      "t": 170779.0500000017,
      "d": 56.81812500001979,
      "v": 67
    },
    {
      "midi": 29,
      "hit": false,
      "t": 170787.16687500122,
      "d": 54.11249999998836,
      "v": 87
    },
    {
      "midi": 48,
      "hit": false,
      "t": 170876.45250000033,
      "d": 557.358750000014,
      "v": 56
    },
    {
      "midi": 60,
      "hit": false,
      "t": 170898.0975000002,
      "d": 462.6618749999907,
      "v": 91
    },
    {
      "midi": 60,
      "hit": false,
      "t": 170900.80312500033,
      "d": 530.3025000000198,
      "v": 73
    },
    {
      "midi": 57,
      "hit": false,
      "t": 170908.92000000033,
      "d": 533.0081250000221,
      "v": 73
    },
    {
      "midi": 33,
      "hit": false,
      "t": 170908.9200000012,
      "d": 129.86999999999534,
      "v": 73
    },
    {
      "midi": 53,
      "hit": false,
      "t": 171038.79000000173,
      "d": 43.29000000000815,
      "v": 65
    },
    {
      "midi": 33,
      "hit": false,
      "t": 171168.6600000012,
      "d": 146.1037500000093,
      "v": 87
    },
    {
      "midi": 57,
      "hit": false,
      "t": 171168.66000000172,
      "d": 37.87875000000349,
      "v": 67
    },
    {
      "midi": 60,
      "hit": false,
      "t": 171168.66000000172,
      "d": 56.81812499999069,
      "v": 67
    },
    {
      "midi": 59,
      "hit": false,
      "t": 171404.04937500035,
      "d": 560.0643749999872,
      "v": 64
    },
    {
      "midi": 47,
      "hit": false,
      "t": 171406.75500000035,
      "d": 519.4799999999814,
      "v": 60
    },
    {
      "midi": 59,
      "hit": false,
      "t": 171414.8718750002,
      "d": 468.07312499999534,
      "v": 82
    },
    {
      "midi": 36,
      "hit": false,
      "t": 171428.40000000122,
      "d": 175.86562500000582,
      "v": 86
    },
    {
      "midi": 41,
      "hit": false,
      "t": 171428.4000000017,
      "d": 29.761874999996508,
      "v": 67
    },
    {
      "midi": 55,
      "hit": false,
      "t": 171433.81125000035,
      "d": 533.008124999993,
      "v": 70
    },
    {
      "midi": 41,
      "hit": false,
      "t": 171558.2700000017,
      "d": 45.99562500001048,
      "v": 67
    },
    {
      "midi": 60,
      "hit": false,
      "t": 171688.1400000002,
      "d": 62.22937499999534,
      "v": 52
    },
    {
      "midi": 65,
      "hit": false,
      "t": 171688.1400000002,
      "d": 70.34625000000233,
      "v": 56
    },
    {
      "midi": 36,
      "hit": false,
      "t": 171688.14000000124,
      "d": 35.173125000001164,
      "v": 70
    },
    {
      "midi": 57,
      "hit": false,
      "t": 171688.14000000173,
      "d": 40.58437500000582,
      "v": 67
    },
    {
      "midi": 53,
      "hit": false,
      "t": 171688.14000000173,
      "d": 51.406875000015134,
      "v": 67
    },
    {
      "midi": 60,
      "hit": false,
      "t": 171688.14000000173,
      "d": 51.406875000015134,
      "v": 67
    },
    {
      "midi": 36,
      "hit": false,
      "t": 171826.12687500124,
      "d": 54.11249999998836,
      "v": 90
    },
    {
      "midi": 48,
      "hit": false,
      "t": 171907.29562500035,
      "d": 524.8912500000151,
      "v": 56
    },
    {
      "midi": 60,
      "hit": false,
      "t": 171928.9406250002,
      "d": 476.1900000000023,
      "v": 73
    },
    {
      "midi": 41,
      "hit": false,
      "t": 171947.88000000123,
      "d": 129.86999999999534,
      "v": 73
    },
    {
      "midi": 41,
      "hit": false,
      "t": 171947.88000000175,
      "d": 37.87875000000349,
      "v": 67
    },
    {
      "midi": 60,
      "hit": false,
      "t": 171950.58562500033,
      "d": 465.3675000000221,
      "v": 73
    },
    {
      "midi": 57,
      "hit": false,
      "t": 171974.93625000035,
      "d": 503.2462500000256,
      "v": 73
    },
    {
      "midi": 65,
      "hit": false,
      "t": 172077.7500000002,
      "d": 83.87437500001397,
      "v": 60
    },
    {
      "midi": 60,
      "hit": false,
      "t": 172077.7500000002,
      "d": 91.99125000002095,
      "v": 56
    },
    {
      "midi": 57,
      "hit": false,
      "t": 172077.75000000175,
      "d": 45.99562500001048,
      "v": 67
    },
    {
      "midi": 60,
      "hit": false,
      "t": 172077.75000000175,
      "d": 54.11250000001746,
      "v": 67
    },
    {
      "midi": 41,
      "hit": false,
      "t": 172207.62000000122,
      "d": 37.87875000000349,
      "v": 61
    },
    {
      "midi": 41,
      "hit": false,
      "t": 172207.62000000177,
      "d": 27.05624999999418,
      "v": 67
    },
    {
      "midi": 41,
      "hit": false,
      "t": 172337.4900000012,
      "d": 81.16875000001164,
      "v": 78
    },
    {
      "midi": 41,
      "hit": false,
      "t": 172337.49000000177,
      "d": 48.701250000012806,
      "v": 67
    },
    {
      "midi": 64,
      "hit": false,
      "t": 172434.89250000037,
      "d": 2072.508750000008,
      "v": 64
    },
    {
      "midi": 60,
      "hit": false,
      "t": 172440.30375000037,
      "d": 2102.2706250000338,
      "v": 73
    },
    {
      "midi": 48,
      "hit": false,
      "t": 172451.12625000038,
      "d": 2042.7468749999825,
      "v": 64
    },
    {
      "midi": 55,
      "hit": false,
      "t": 172456.53750000038,
      "d": 2064.391875000001,
      "v": 73
    },
    {
      "midi": 55,
      "hit": false,
      "t": 172467.36000000022,
      "d": 300.3243749999965,
      "v": 64
    },
    {
      "midi": 60,
      "hit": false,
      "t": 172467.36000000022,
      "d": 300.3243749999965,
      "v": 73
    },
    {
      "midi": 64,
      "hit": false,
      "t": 172467.36000000022,
      "d": 303.02999999999884,
      "v": 60
    },
    {
      "midi": 36,
      "hit": false,
      "t": 172467.36000000124,
      "d": 183.9825000000128,
      "v": 91
    },
    {
      "midi": 55,
      "hit": false,
      "t": 172467.3600000018,
      "d": 146.1037500000093,
      "v": 67
    },
    {
      "midi": 48,
      "hit": false,
      "t": 172467.3600000018,
      "d": 278.679375000007,
      "v": 67
    },
    {
      "midi": 64,
      "hit": false,
      "t": 172467.3600000018,
      "d": 292.2075000000186,
      "v": 67
    },
    {
      "midi": 60,
      "hit": false,
      "t": 172467.3600000018,
      "d": 303.03000000002794,
      "v": 67
    },
    {
      "midi": 60,
      "hit": false,
      "t": 172472.7712500002,
      "d": 2004.8681250000081,
      "v": 91
    },
    {
      "midi": 36,
      "hit": false,
      "t": 172727.10000000126,
      "d": 62.22937499999534,
      "v": 56
    },
    {
      "midi": 55,
      "hit": false,
      "t": 172727.1000000018,
      "d": 51.406875000015134,
      "v": 67
    },
    {
      "midi": 55,
      "hit": false,
      "t": 172856.97000000183,
      "d": 45.99562500001048,
      "v": 67
    },
    {
      "midi": 64,
      "hit": false,
      "t": 172856.97000000183,
      "d": 51.406875000015134,
      "v": 67
    },
    {
      "midi": 60,
      "hit": false,
      "t": 172856.97000000183,
      "d": 56.81812500001979,
      "v": 67
    },
    {
      "midi": 36,
      "hit": false,
      "t": 172865.08687500126,
      "d": 54.11249999998836,
      "v": 87
    },
    {
      "midi": 40,
      "hit": false,
      "t": 172986.84000000125,
      "d": 175.86562500000582,
      "v": 86
    },
    {
      "midi": 55,
      "hit": false,
      "t": 173116.71000000185,
      "d": 43.29000000000815,
      "v": 65
    },
    {
      "midi": 40,
      "hit": false,
      "t": 173246.58000000127,
      "d": 35.173125000001164,
      "v": 70
    },
    {
      "midi": 60,
      "hit": false,
      "t": 173246.58000000185,
      "d": 37.87875000000349,
      "v": 67
    },
    {
      "midi": 64,
      "hit": false,
      "t": 173246.58000000185,
      "d": 56.81812499999069,
      "v": 67
    },
    {
      "midi": 40,
      "hit": false,
      "t": 173384.56687500127,
      "d": 54.11249999998836,
      "v": 90
    },
    {
      "midi": 43,
      "hit": false,
      "t": 173506.32000000126,
      "d": 175.86562500000582,
      "v": 86
    },
    {
      "midi": 48,
      "hit": false,
      "t": 173506.32000000184,
      "d": 29.761874999996508,
      "v": 67
    },
    {
      "midi": 48,
      "hit": false,
      "t": 173636.19000000184,
      "d": 45.99562500001048,
      "v": 67
    },
    {
      "midi": 43,
      "hit": false,
      "t": 173766.06000000128,
      "d": 35.173125000001164,
      "v": 70
    },
    {
      "midi": 60,
      "hit": false,
      "t": 173766.06000000186,
      "d": 40.58437500000582,
      "v": 67
    },
    {
      "midi": 55,
      "hit": false,
      "t": 173766.06000000186,
      "d": 51.406875000015134,
      "v": 67
    },
    {
      "midi": 64,
      "hit": false,
      "t": 173766.06000000186,
      "d": 51.406875000015134,
      "v": 67
    },
    {
      "midi": 43,
      "hit": false,
      "t": 173904.04687500128,
      "d": 54.11249999998836,
      "v": 90
    },
    {
      "midi": 48,
      "hit": false,
      "t": 174025.80000000127,
      "d": 129.86999999999534,
      "v": 73
    },
    {
      "midi": 48,
      "hit": false,
      "t": 174025.80000000188,
      "d": 37.87875000000349,
      "v": 67
    },
    {
      "midi": 60,
      "hit": false,
      "t": 174155.67000000188,
      "d": 45.99562500001048,
      "v": 67
    },
    {
      "midi": 64,
      "hit": false,
      "t": 174155.67000000188,
      "d": 54.11250000001746,
      "v": 67
    },
    {
      "midi": 48,
      "hit": false,
      "t": 174285.54000000126,
      "d": 37.87875000000349,
      "v": 61
    },
    {
      "midi": 48,
      "hit": false,
      "t": 174285.5400000019,
      "d": 27.05624999999418,
      "v": 67
    },
    {
      "midi": 48,
      "hit": false,
      "t": 174415.41000000125,
      "d": 81.16875000001164,
      "v": 78
    },
    {
      "midi": 48,
      "hit": false,
      "t": 174415.4100000019,
      "d": 48.701250000012806,
      "v": 67
    },
    {
      "midi": 50,
      "hit": false,
      "t": 174515.51812500038,
      "d": 2069.803125000035,
      "v": 56
    },
    {
      "midi": 54,
      "hit": false,
      "t": 174523.6350000004,
      "d": 2050.8637500000186,
      "v": 70
    },
    {
      "midi": 62,
      "hit": false,
      "t": 174523.6350000004,
      "d": 2069.803125000035,
      "v": 70
    },
    {
      "midi": 57,
      "hit": false,
      "t": 174531.7518750004,
      "d": 2053.569375000021,
      "v": 48
    },
    {
      "midi": 66,
      "hit": false,
      "t": 174531.7518750004,
      "d": 2075.2143750000396,
      "v": 64
    },
    {
      "midi": 57,
      "hit": false,
      "t": 174534.45750000022,
      "d": 300.3243749999965,
      "v": 64
    },
    {
      "midi": 62,
      "hit": false,
      "t": 174534.45750000022,
      "d": 300.3243749999965,
      "v": 73
    },
    {
      "midi": 66,
      "hit": false,
      "t": 174534.45750000022,
      "d": 303.02999999999884,
      "v": 60
    },
    {
      "midi": 38,
      "hit": false,
      "t": 174545.28000000128,
      "d": 183.9825000000128,
      "v": 91
    },
    {
      "midi": 57,
      "hit": false,
      "t": 174545.28000000192,
      "d": 146.1037500000093,
      "v": 67
    },
    {
      "midi": 50,
      "hit": false,
      "t": 174545.28000000192,
      "d": 278.679375000007,
      "v": 67
    },
    {
      "midi": 66,
      "hit": false,
      "t": 174545.28000000192,
      "d": 292.2075000000186,
      "v": 67
    },
    {
      "midi": 62,
      "hit": false,
      "t": 174545.28000000192,
      "d": 303.03000000002794,
      "v": 67
    },
    {
      "midi": 38,
      "hit": false,
      "t": 174805.0200000013,
      "d": 89.28562499998952,
      "v": 56
    },
    {
      "midi": 57,
      "hit": false,
      "t": 174805.02000000194,
      "d": 51.406875000015134,
      "v": 67
    },
    {
      "midi": 57,
      "hit": false,
      "t": 174934.89000000196,
      "d": 45.99562500001048,
      "v": 67
    },
    {
      "midi": 66,
      "hit": false,
      "t": 174934.89000000196,
      "d": 51.406875000015134,
      "v": 67
    },
    {
      "midi": 62,
      "hit": false,
      "t": 174934.89000000196,
      "d": 56.81812500001979,
      "v": 67
    },
    {
      "midi": 38,
      "hit": false,
      "t": 174943.0068750013,
      "d": 54.11249999998836,
      "v": 87
    },
    {
      "midi": 42,
      "hit": false,
      "t": 175064.7600000013,
      "d": 129.86999999999534,
      "v": 73
    },
    {
      "midi": 71,
      "hit": false,
      "t": 175072.8768750016,
      "d": 270.5625,
      "v": 91
    },
    {
      "midi": 57,
      "hit": false,
      "t": 175194.63000000198,
      "d": 43.29000000000815,
      "v": 65
    },
    {
      "midi": 42,
      "hit": false,
      "t": 175324.50000000128,
      "d": 86.5799999999872,
      "v": 56
    },
    {
      "midi": 62,
      "hit": false,
      "t": 175324.50000000198,
      "d": 37.87875000000349,
      "v": 67
    },
    {
      "midi": 66,
      "hit": false,
      "t": 175324.50000000198,
      "d": 56.81812499999069,
      "v": 67
    },
    {
      "midi": 69,
      "hit": false,
      "t": 175332.61687500158,
      "d": 113.63625000001048,
      "v": 82
    },
    {
      "midi": 71,
      "hit": false,
      "t": 175459.7812500016,
      "d": 227.27249999999185,
      "v": 100
    },
    {
      "midi": 42,
      "hit": false,
      "t": 175462.48687500125,
      "d": 54.11249999998836,
      "v": 87
    },
    {
      "midi": 45,
      "hit": false,
      "t": 175584.24000000124,
      "d": 175.86562500000582,
      "v": 86
    },
    {
      "midi": 50,
      "hit": false,
      "t": 175584.24000000197,
      "d": 29.761874999996508,
      "v": 67
    },
    {
      "midi": 50,
      "hit": false,
      "t": 175714.11000000197,
      "d": 45.99562500001048,
      "v": 67
    },
    {
      "midi": 71,
      "hit": false,
      "t": 175716.8156250016,
      "d": 259.7399999999907,
      "v": 100
    },
    {
      "midi": 45,
      "hit": false,
      "t": 175843.98000000126,
      "d": 35.173125000001164,
      "v": 70
    },
    {
      "midi": 62,
      "hit": false,
      "t": 175843.980000002,
      "d": 40.58437500000582,
      "v": 67
    },
    {
      "midi": 57,
      "hit": false,
      "t": 175843.980000002,
      "d": 51.406875000015134,
      "v": 67
    },
    {
      "midi": 66,
      "hit": false,
      "t": 175843.980000002,
      "d": 51.406875000015134,
      "v": 67
    },
    {
      "midi": 69,
      "hit": false,
      "t": 175973.85000000158,
      "d": 127.16437499999302,
      "v": 82
    },
    {
      "midi": 45,
      "hit": false,
      "t": 175981.96687500126,
      "d": 54.11249999998836,
      "v": 90
    },
    {
      "midi": 50,
      "hit": false,
      "t": 176103.72000000125,
      "d": 129.86999999999534,
      "v": 73
    },
    {
      "midi": 50,
      "hit": false,
      "t": 176103.720000002,
      "d": 37.87875000000349,
      "v": 67
    },
    {
      "midi": 71,
      "hit": false,
      "t": 176106.42562500158,
      "d": 246.21187500000815,
      "v": 100
    },
    {
      "midi": 62,
      "hit": false,
      "t": 176233.590000002,
      "d": 45.99562500001048,
      "v": 67
    },
    {
      "midi": 66,
      "hit": false,
      "t": 176233.590000002,
      "d": 54.11250000001746,
      "v": 67
    },
    {
      "midi": 74,
      "hit": false,
      "t": 176360.7543750016,
      "d": 292.2074999999895,
      "v": 91
    },
    {
      "midi": 50,
      "hit": false,
      "t": 176363.46000000124,
      "d": 37.87875000000349,
      "v": 61
    },
    {
      "midi": 50,
      "hit": false,
      "t": 176363.46000000203,
      "d": 27.05624999999418,
      "v": 67
    },
    {
      "midi": 50,
      "hit": false,
      "t": 176493.33000000124,
      "d": 81.16875000001164,
      "v": 78
    },
    {
      "midi": 50,
      "hit": false,
      "t": 176493.33000000202,
      "d": 48.701250000012806,
      "v": 67
    },
    {
      "midi": 55,
      "hit": false,
      "t": 176623.20000000022,
      "d": 300.3243749999965,
      "v": 56
    },
    {
      "midi": 62,
      "hit": false,
      "t": 176623.20000000022,
      "d": 300.3243749999965,
      "v": 64
    },
    {
      "midi": 59,
      "hit": false,
      "t": 176623.20000000022,
      "d": 305.73562500000116,
      "v": 73
    },
    {
      "midi": 31,
      "hit": false,
      "t": 176623.20000000126,
      "d": 183.9825000000128,
      "v": 91
    },
    {
      "midi": 71,
      "hit": false,
      "t": 176623.20000000158,
      "d": 1295.9943750003877,
      "v": 103
    },
    {
      "midi": 55,
      "hit": false,
      "t": 176623.20000000205,
      "d": 146.1037500000093,
      "v": 67
    },
    {
      "midi": 43,
      "hit": false,
      "t": 176623.20000000205,
      "d": 278.679375000007,
      "v": 67
    },
    {
      "midi": 62,
      "hit": false,
      "t": 176623.20000000205,
      "d": 292.2075000000186,
      "v": 67
    },
    {
      "midi": 59,
      "hit": false,
      "t": 176623.20000000205,
      "d": 303.03000000002794,
      "v": 67
    },
    {
      "midi": 31,
      "hit": false,
      "t": 176882.94000000128,
      "d": 108.22500000000582,
      "v": 56
    },
    {
      "midi": 55,
      "hit": false,
      "t": 176882.94000000207,
      "d": 51.406875000015134,
      "v": 67
    },
    {
      "midi": 55,
      "hit": false,
      "t": 177012.8100000021,
      "d": 45.99562500001048,
      "v": 67
    },
    {
      "midi": 62,
      "hit": false,
      "t": 177012.8100000021,
      "d": 51.406875000015134,
      "v": 67
    },
    {
      "midi": 59,
      "hit": false,
      "t": 177012.8100000021,
      "d": 56.81812500001979,
      "v": 67
    },
    {
      "midi": 31,
      "hit": false,
      "t": 177020.92687500129,
      "d": 54.11249999998836,
      "v": 87
    },
    {
      "midi": 35,
      "hit": false,
      "t": 177142.68000000127,
      "d": 129.86999999999534,
      "v": 73
    },
    {
      "midi": 55,
      "hit": false,
      "t": 177272.5500000021,
      "d": 43.29000000000815,
      "v": 65
    },
    {
      "midi": 35,
      "hit": false,
      "t": 177402.42000000126,
      "d": 146.1037500000093,
      "v": 87
    },
    {
      "midi": 59,
      "hit": false,
      "t": 177402.4200000021,
      "d": 37.87875000000349,
      "v": 67
    },
    {
      "midi": 62,
      "hit": false,
      "t": 177402.4200000021,
      "d": 56.81812499999069,
      "v": 67
    },
    {
      "midi": 38,
      "hit": false,
      "t": 177662.16000000128,
      "d": 175.86562500000582,
      "v": 86
    },
    {
      "midi": 43,
      "hit": false,
      "t": 177662.1600000021,
      "d": 29.761874999996508,
      "v": 67
    },
    {
      "midi": 43,
      "hit": false,
      "t": 177792.0300000021,
      "d": 45.99562500001048,
      "v": 67
    },
    {
      "midi": 38,
      "hit": false,
      "t": 177921.9000000013,
      "d": 35.173125000001164,
      "v": 70
    },
    {
      "midi": 59,
      "hit": false,
      "t": 177921.90000000212,
      "d": 40.58437500000582,
      "v": 67
    },
    {
      "midi": 55,
      "hit": false,
      "t": 177921.90000000212,
      "d": 51.406875000015134,
      "v": 67
    },
    {
      "midi": 62,
      "hit": false,
      "t": 177921.90000000212,
      "d": 51.406875000015134,
      "v": 67
    },
    {
      "midi": 74,
      "hit": false,
      "t": 177930.01687500198,
      "d": 367.9649999999965,
      "v": 100
    },
    {
      "midi": 38,
      "hit": false,
      "t": 178059.8868750013,
      "d": 54.11249999998836,
      "v": 90
    },
    {
      "midi": 43,
      "hit": false,
      "t": 178181.6400000013,
      "d": 129.86999999999534,
      "v": 73
    },
    {
      "midi": 43,
      "hit": false,
      "t": 178181.64000000214,
      "d": 37.87875000000349,
      "v": 67
    },
    {
      "midi": 59,
      "hit": false,
      "t": 178311.51000000213,
      "d": 45.99562500001048,
      "v": 67
    },
    {
      "midi": 62,
      "hit": false,
      "t": 178311.51000000213,
      "d": 54.11250000001746,
      "v": 67
    },
    {
      "midi": 78,
      "hit": false,
      "t": 178316.92125000196,
      "d": 351.73125000018626,
      "v": 100
    },
    {
      "midi": 43,
      "hit": false,
      "t": 178441.38000000129,
      "d": 37.87875000000349,
      "v": 58
    },
    {
      "midi": 43,
      "hit": false,
      "t": 178441.38000000216,
      "d": 27.05624999999418,
      "v": 67
    },
    {
      "midi": 43,
      "hit": false,
      "t": 178571.25000000128,
      "d": 81.16875000001164,
      "v": 87
    },
    {
      "midi": 43,
      "hit": false,
      "t": 178571.25000000215,
      "d": 48.701250000012806,
      "v": 67
    },
    {
      "midi": 78,
      "hit": false,
      "t": 178695.70875000217,
      "d": 373.3762500001176,
      "v": 98
    },
    {
      "midi": 57,
      "hit": false,
      "t": 178701.12000000023,
      "d": 286.79625000001397,
      "v": 82
    },
    {
      "midi": 63,
      "hit": false,
      "t": 178701.12000000023,
      "d": 292.2075000000186,
      "v": 60
    },
    {
      "midi": 54,
      "hit": false,
      "t": 178701.12000000023,
      "d": 297.6187500000233,
      "v": 60
    },
    {
      "midi": 35,
      "hit": false,
      "t": 178701.1200000013,
      "d": 183.9825000000128,
      "v": 91
    },
    {
      "midi": 54,
      "hit": false,
      "t": 178701.12000000218,
      "d": 146.1037500000093,
      "v": 67
    },
    {
      "midi": 47,
      "hit": false,
      "t": 178701.12000000218,
      "d": 278.679375000007,
      "v": 67
    },
    {
      "midi": 63,
      "hit": false,
      "t": 178701.12000000218,
      "d": 292.2075000000186,
      "v": 67
    },
    {
      "midi": 59,
      "hit": false,
      "t": 178701.12000000218,
      "d": 303.03000000002794,
      "v": 67
    },
    {
      "midi": 35,
      "hit": false,
      "t": 178960.86000000132,
      "d": 129.86999999999534,
      "v": 56
    },
    {
      "midi": 54,
      "hit": false,
      "t": 178960.8600000022,
      "d": 51.406875000015134,
      "v": 67
    },
    {
      "midi": 54,
      "hit": false,
      "t": 179090.73000000222,
      "d": 45.99562500001048,
      "v": 67
    },
    {
      "midi": 63,
      "hit": false,
      "t": 179090.73000000222,
      "d": 51.406875000015134,
      "v": 67
    },
    {
      "midi": 59,
      "hit": false,
      "t": 179090.73000000222,
      "d": 56.81812500001979,
      "v": 67
    },
    {
      "midi": 35,
      "hit": false,
      "t": 179098.84687500133,
      "d": 54.11249999998836,
      "v": 87
    },
    {
      "midi": 75,
      "hit": false,
      "t": 179109.66937500233,
      "d": 365.2593750000524,
      "v": 92
    },
    {
      "midi": 39,
      "hit": false,
      "t": 179220.60000000132,
      "d": 129.86999999999534,
      "v": 73
    },
    {
      "midi": 54,
      "hit": false,
      "t": 179350.47000000224,
      "d": 43.29000000000815,
      "v": 65
    },
    {
      "midi": 39,
      "hit": false,
      "t": 179480.3400000013,
      "d": 146.1037500000093,
      "v": 87
    },
    {
      "midi": 59,
      "hit": false,
      "t": 179480.34000000224,
      "d": 37.87875000000349,
      "v": 67
    },
    {
      "midi": 63,
      "hit": false,
      "t": 179480.34000000224,
      "d": 56.81812499999069,
      "v": 67
    },
    {
      "midi": 71,
      "hit": false,
      "t": 179493.86812500237,
      "d": 754.8693750003004,
      "v": 91
    },
    {
      "midi": 42,
      "hit": false,
      "t": 179740.08000000133,
      "d": 175.86562500000582,
      "v": 86
    },
    {
      "midi": 47,
      "hit": false,
      "t": 179740.08000000223,
      "d": 29.761874999996508,
      "v": 67
    },
    {
      "midi": 47,
      "hit": false,
      "t": 179869.95000000222,
      "d": 45.99562500001048,
      "v": 67
    },
    {
      "midi": 42,
      "hit": false,
      "t": 179999.82000000135,
      "d": 35.173125000001164,
      "v": 70
    },
    {
      "midi": 59,
      "hit": false,
      "t": 179999.82000000225,
      "d": 40.58437500000582,
      "v": 67
    },
    {
      "midi": 54,
      "hit": false,
      "t": 179999.82000000225,
      "d": 51.406875000015134,
      "v": 67
    },
    {
      "midi": 63,
      "hit": false,
      "t": 179999.82000000225,
      "d": 51.406875000015134,
      "v": 67
    },
    {
      "midi": 42,
      "hit": false,
      "t": 180137.80687500135,
      "d": 54.11249999998836,
      "v": 90
    },
    {
      "midi": 76,
      "hit": false,
      "t": 180256.85437500267,
      "d": 476.19000000017695,
      "v": 100
    },
    {
      "midi": 47,
      "hit": false,
      "t": 180259.56000000134,
      "d": 129.86999999999534,
      "v": 73
    },
    {
      "midi": 47,
      "hit": false,
      "t": 180259.56000000227,
      "d": 37.87875000000349,
      "v": 67
    },
    {
      "midi": 59,
      "hit": false,
      "t": 180389.43000000226,
      "d": 45.99562500001048,
      "v": 67
    },
    {
      "midi": 63,
      "hit": false,
      "t": 180389.43000000226,
      "d": 54.11250000001746,
      "v": 67
    },
    {
      "midi": 47,
      "hit": false,
      "t": 180519.30000000133,
      "d": 37.87875000000349,
      "v": 61
    },
    {
      "midi": 47,
      "hit": false,
      "t": 180519.3000000023,
      "d": 27.05624999999418,
      "v": 67
    },
    {
      "midi": 47,
      "hit": false,
      "t": 180649.17000000132,
      "d": 81.16875000001164,
      "v": 78
    },
    {
      "midi": 47,
      "hit": false,
      "t": 180649.17000000228,
      "d": 48.701250000012806,
      "v": 67
    },
    {
      "midi": 76,
      "hit": false,
      "t": 180776.3343750029,
      "d": 2567.638125000347,
      "v": 100
    },
    {
      "midi": 55,
      "hit": false,
      "t": 180779.04000000024,
      "d": 300.3243749999965,
      "v": 64
    },
    {
      "midi": 59,
      "hit": false,
      "t": 180779.04000000024,
      "d": 300.3243749999965,
      "v": 73
    },
    {
      "midi": 64,
      "hit": false,
      "t": 180779.04000000024,
      "d": 303.02999999999884,
      "v": 60
    },
    {
      "midi": 28,
      "hit": false,
      "t": 180779.04000000135,
      "d": 183.9825000000128,
      "v": 91
    },
    {
      "midi": 55,
      "hit": false,
      "t": 180779.0400000023,
      "d": 146.1037500000093,
      "v": 67
    },
    {
      "midi": 52,
      "hit": false,
      "t": 180779.0400000023,
      "d": 278.679375000007,
      "v": 67
    },
    {
      "midi": 64,
      "hit": false,
      "t": 180779.0400000023,
      "d": 292.2075000000186,
      "v": 67
    },
    {
      "midi": 59,
      "hit": false,
      "t": 180779.0400000023,
      "d": 303.03000000002794,
      "v": 67
    },
    {
      "midi": 28,
      "hit": false,
      "t": 181038.78000000137,
      "d": 129.86999999999534,
      "v": 56
    },
    {
      "midi": 55,
      "hit": false,
      "t": 181038.78000000233,
      "d": 51.406875000015134,
      "v": 67
    },
    {
      "midi": 55,
      "hit": false,
      "t": 181168.65000000235,
      "d": 45.99562500001048,
      "v": 67
    },
    {
      "midi": 64,
      "hit": false,
      "t": 181168.65000000235,
      "d": 51.406875000015134,
      "v": 67
    },
    {
      "midi": 59,
      "hit": false,
      "t": 181168.65000000235,
      "d": 56.81812500001979,
      "v": 67
    },
    {
      "midi": 28,
      "hit": false,
      "t": 181176.76687500137,
      "d": 54.11249999998836,
      "v": 87
    },
    {
      "midi": 86,
      "hit": false,
      "t": 181295.81437500002,
      "d": 505.95187499999884,
      "v": 91
    },
    {
      "midi": 98,
      "hit": false,
      "t": 181298.52000000002,
      "d": 505.95187499999884,
      "v": 91
    },
    {
      "midi": 31,
      "hit": false,
      "t": 181298.52000000136,
      "d": 175.86562500000582,
      "v": 86
    },
    {
      "midi": 55,
      "hit": false,
      "t": 181428.39000000237,
      "d": 43.29000000000815,
      "v": 65
    },
    {
      "midi": 31,
      "hit": false,
      "t": 181558.26000000138,
      "d": 35.173125000001164,
      "v": 70
    },
    {
      "midi": 59,
      "hit": false,
      "t": 181558.26000000237,
      "d": 37.87875000000349,
      "v": 67
    },
    {
      "midi": 64,
      "hit": false,
      "t": 181558.26000000237,
      "d": 56.81812499999069,
      "v": 67
    },
    {
      "midi": 31,
      "hit": false,
      "t": 181696.24687500138,
      "d": 54.11249999998836,
      "v": 90
    },
    {
      "midi": 84,
      "hit": false,
      "t": 181812.58875000002,
      "d": 533.008124999993,
      "v": 89
    },
    {
      "midi": 96,
      "hit": false,
      "t": 181815.29437500003,
      "d": 533.008124999993,
      "v": 89
    },
    {
      "midi": 35,
      "hit": false,
      "t": 181818.00000000137,
      "d": 175.86562500000582,
      "v": 86
    },
    {
      "midi": 52,
      "hit": false,
      "t": 181818.00000000236,
      "d": 29.761874999996508,
      "v": 67
    },
    {
      "midi": 52,
      "hit": false,
      "t": 181947.87000000235,
      "d": 45.99562500001048,
      "v": 67
    },
    {
      "midi": 35,
      "hit": false,
      "t": 182077.7400000014,
      "d": 35.173125000001164,
      "v": 70
    },
    {
      "midi": 59,
      "hit": false,
      "t": 182077.74000000238,
      "d": 40.58437500000582,
      "v": 67
    },
    {
      "midi": 55,
      "hit": false,
      "t": 182077.74000000238,
      "d": 51.406875000015134,
      "v": 67
    },
    {
      "midi": 64,
      "hit": false,
      "t": 182077.74000000238,
      "d": 51.406875000015134,
      "v": 67
    },
    {
      "midi": 35,
      "hit": false,
      "t": 182215.7268750014,
      "d": 54.11249999998836,
      "v": 90
    },
    {
      "midi": 40,
      "hit": false,
      "t": 182337.48000000138,
      "d": 129.86999999999534,
      "v": 73
    },
    {
      "midi": 52,
      "hit": false,
      "t": 182337.4800000024,
      "d": 37.87875000000349,
      "v": 67
    },
    {
      "midi": 83,
      "hit": false,
      "t": 182342.89125000002,
      "d": 530.3025000000198,
      "v": 91
    },
    {
      "midi": 95,
      "hit": false,
      "t": 182345.59687500002,
      "d": 530.3025000000198,
      "v": 91
    },
    {
      "midi": 59,
      "hit": false,
      "t": 182467.3500000024,
      "d": 45.99562500001048,
      "v": 67
    },
    {
      "midi": 64,
      "hit": false,
      "t": 182467.3500000024,
      "d": 54.11250000001746,
      "v": 67
    },
    {
      "midi": 40,
      "hit": false,
      "t": 182597.22000000137,
      "d": 37.87875000000349,
      "v": 61
    },
    {
      "midi": 52,
      "hit": false,
      "t": 182597.22000000242,
      "d": 27.05624999999418,
      "v": 67
    },
    {
      "midi": 40,
      "hit": false,
      "t": 182727.09000000136,
      "d": 81.16875000001164,
      "v": 78
    },
    {
      "midi": 52,
      "hit": false,
      "t": 182727.0900000024,
      "d": 48.701250000012806,
      "v": 67
    },
    {
      "midi": 79,
      "hit": false,
      "t": 182854.25437500002,
      "d": 527.5968750000175,
      "v": 92
    },
    {
      "midi": 91,
      "hit": false,
      "t": 182856.96000000002,
      "d": 527.5968750000175,
      "v": 92
    },
    {
      "midi": 55,
      "hit": false,
      "t": 182856.96000000025,
      "d": 313.85250000000815,
      "v": 64
    },
    {
      "midi": 59,
      "hit": false,
      "t": 182856.96000000025,
      "d": 313.85250000000815,
      "v": 73
    },
    {
      "midi": 64,
      "hit": false,
      "t": 182856.96000000025,
      "d": 316.5581250000105,
      "v": 64
    },
    {
      "midi": 36,
      "hit": false,
      "t": 182856.9600000014,
      "d": 183.9825000000128,
      "v": 91
    },
    {
      "midi": 55,
      "hit": false,
      "t": 182856.96000000244,
      "d": 146.1037500000093,
      "v": 67
    },
    {
      "midi": 48,
      "hit": false,
      "t": 182856.96000000244,
      "d": 278.679375000007,
      "v": 67
    },
    {
      "midi": 64,
      "hit": false,
      "t": 182856.96000000244,
      "d": 292.2075000000186,
      "v": 67
    },
    {
      "midi": 60,
      "hit": false,
      "t": 182856.96000000244,
      "d": 303.03000000002794,
      "v": 67
    },
    {
      "midi": 36,
      "hit": false,
      "t": 183116.7000000014,
      "d": 127.16437499999302,
      "v": 56
    },
    {
      "midi": 55,
      "hit": false,
      "t": 183116.70000000246,
      "d": 51.406875000015134,
      "v": 67
    },
    {
      "midi": 55,
      "hit": false,
      "t": 183246.57000000248,
      "d": 45.99562500001048,
      "v": 67
    },
    {
      "midi": 64,
      "hit": false,
      "t": 183246.57000000248,
      "d": 51.406875000015134,
      "v": 67
    },
    {
      "midi": 60,
      "hit": false,
      "t": 183246.57000000248,
      "d": 56.81812500001979,
      "v": 67
    },
    {
      "midi": 36,
      "hit": false,
      "t": 183254.6868750014,
      "d": 54.11249999998836,
      "v": 87
    },
    {
      "midi": 62,
      "hit": false,
      "t": 183346.67812500324,
      "d": 551.9474999999802,
      "v": 76
    },
    {
      "midi": 74,
      "hit": false,
      "t": 183371.02875000003,
      "d": 500.5406250000233,
      "v": 92
    },
    {
      "midi": 86,
      "hit": false,
      "t": 183373.73437500003,
      "d": 500.5406250000233,
      "v": 92
    },
    {
      "midi": 40,
      "hit": false,
      "t": 183376.4400000014,
      "d": 129.86999999999534,
      "v": 73
    },
    {
      "midi": 55,
      "hit": false,
      "t": 183506.3100000025,
      "d": 43.29000000000815,
      "v": 65
    },
    {
      "midi": 40,
      "hit": false,
      "t": 183636.1800000014,
      "d": 127.16437499999302,
      "v": 56
    },
    {
      "midi": 60,
      "hit": false,
      "t": 183636.1800000025,
      "d": 37.87875000000349,
      "v": 67
    },
    {
      "midi": 64,
      "hit": false,
      "t": 183636.1800000025,
      "d": 56.81812499999069,
      "v": 67
    },
    {
      "midi": 40,
      "hit": false,
      "t": 183774.1668750014,
      "d": 54.11249999998836,
      "v": 87
    },
    {
      "midi": 60,
      "hit": false,
      "t": 183871.56937500322,
      "d": 530.3025000002526,
      "v": 73
    },
    {
      "midi": 72,
      "hit": false,
      "t": 183876.98062500005,
      "d": 543.8306250000023,
      "v": 92
    },
    {
      "midi": 84,
      "hit": false,
      "t": 183879.68625000006,
      "d": 543.8306250000023,
      "v": 92
    },
    {
      "midi": 43,
      "hit": false,
      "t": 183895.92000000138,
      "d": 175.86562500000582,
      "v": 86
    },
    {
      "midi": 48,
      "hit": false,
      "t": 183895.9200000025,
      "d": 29.761874999996508,
      "v": 67
    },
    {
      "midi": 48,
      "hit": false,
      "t": 184025.79000000248,
      "d": 45.99562500001048,
      "v": 67
    },
    {
      "midi": 43,
      "hit": false,
      "t": 184155.6600000014,
      "d": 35.173125000001164,
      "v": 70
    },
    {
      "midi": 60,
      "hit": false,
      "t": 184155.6600000025,
      "d": 40.58437500000582,
      "v": 67
    },
    {
      "midi": 55,
      "hit": false,
      "t": 184155.6600000025,
      "d": 51.406875000015134,
      "v": 67
    },
    {
      "midi": 64,
      "hit": false,
      "t": 184155.6600000025,
      "d": 51.406875000015134,
      "v": 67
    },
    {
      "midi": 43,
      "hit": false,
      "t": 184293.6468750014,
      "d": 54.11249999998836,
      "v": 90
    },
    {
      "midi": 71,
      "hit": false,
      "t": 184399.16625000007,
      "d": 570.8868749999965,
      "v": 87
    },
    {
      "midi": 83,
      "hit": false,
      "t": 184401.87187500007,
      "d": 570.8868749999965,
      "v": 87
    },
    {
      "midi": 59,
      "hit": false,
      "t": 184401.87187500347,
      "d": 519.4800000000105,
      "v": 76
    },
    {
      "midi": 64,
      "hit": false,
      "t": 184415.40000000026,
      "d": 78.46312500000931,
      "v": 64
    },
    {
      "midi": 60,
      "hit": false,
      "t": 184415.40000000026,
      "d": 91.99125000002095,
      "v": 60
    },
    {
      "midi": 48,
      "hit": false,
      "t": 184415.4000000014,
      "d": 129.86999999999534,
      "v": 73
    },
    {
      "midi": 48,
      "hit": false,
      "t": 184415.40000000253,
      "d": 37.87875000000349,
      "v": 67
    },
    {
      "midi": 60,
      "hit": false,
      "t": 184545.27000000252,
      "d": 45.99562500001048,
      "v": 67
    },
    {
      "midi": 64,
      "hit": false,
      "t": 184545.27000000252,
      "d": 54.11250000001746,
      "v": 67
    },
    {
      "midi": 48,
      "hit": false,
      "t": 184675.14000000138,
      "d": 37.87875000000349,
      "v": 61
    },
    {
      "midi": 48,
      "hit": false,
      "t": 184675.14000000255,
      "d": 27.05624999999418,
      "v": 67
    },
    {
      "midi": 48,
      "hit": false,
      "t": 184805.01000000138,
      "d": 81.16875000001164,
      "v": 78
    },
    {
      "midi": 48,
      "hit": false,
      "t": 184805.01000000254,
      "d": 48.701250000012806,
      "v": 67
    },
    {
      "midi": 55,
      "hit": false,
      "t": 184915.94062500348,
      "d": 487.01250000012806,
      "v": 76
    },
    {
      "midi": 67,
      "hit": false,
      "t": 184918.64625000005,
      "d": 2077.920000000013,
      "v": 84
    },
    {
      "midi": 79,
      "hit": false,
      "t": 184921.35187500005,
      "d": 2077.920000000013,
      "v": 84
    },
    {
      "midi": 55,
      "hit": false,
      "t": 184934.88000000027,
      "d": 300.3243749999965,
      "v": 56
    },
    {
      "midi": 62,
      "hit": false,
      "t": 184934.88000000027,
      "d": 300.3243749999965,
      "v": 64
    },
    {
      "midi": 59,
      "hit": false,
      "t": 184934.88000000027,
      "d": 305.73562500000116,
      "v": 73
    },
    {
      "midi": 31,
      "hit": false,
      "t": 184934.8800000014,
      "d": 183.9825000000128,
      "v": 91
    },
    {
      "midi": 55,
      "hit": false,
      "t": 184934.88000000257,
      "d": 146.1037500000093,
      "v": 67
    },
    {
      "midi": 43,
      "hit": false,
      "t": 184934.88000000257,
      "d": 278.679375000007,
      "v": 67
    },
    {
      "midi": 62,
      "hit": false,
      "t": 184934.88000000257,
      "d": 292.2075000000186,
      "v": 67
    },
    {
      "midi": 59,
      "hit": false,
      "t": 184934.88000000257,
      "d": 303.03000000002794,
      "v": 67
    },
    {
      "midi": 31,
      "hit": false,
      "t": 185194.62000000142,
      "d": 108.22500000000582,
      "v": 56
    },
    {
      "midi": 55,
      "hit": false,
      "t": 185194.6200000026,
      "d": 51.406875000015134,
      "v": 67
    },
    {
      "midi": 55,
      "hit": false,
      "t": 185324.4900000026,
      "d": 45.99562500001048,
      "v": 67
    },
    {
      "midi": 62,
      "hit": false,
      "t": 185324.4900000026,
      "d": 51.406875000015134,
      "v": 67
    },
    {
      "midi": 59,
      "hit": false,
      "t": 185324.4900000026,
      "d": 56.81812500001979,
      "v": 67
    },
    {
      "midi": 31,
      "hit": false,
      "t": 185332.60687500142,
      "d": 54.11249999998836,
      "v": 87
    },
    {
      "midi": 59,
      "hit": false,
      "t": 185443.53750000361,
      "d": 473.484375,
      "v": 91
    },
    {
      "midi": 71,
      "hit": false,
      "t": 185448.94875000362,
      "d": 473.484375,
      "v": 91
    },
    {
      "midi": 35,
      "hit": false,
      "t": 185454.3600000014,
      "d": 129.86999999999534,
      "v": 73
    },
    {
      "midi": 55,
      "hit": false,
      "t": 185584.23000000263,
      "d": 43.29000000000815,
      "v": 65
    },
    {
      "midi": 35,
      "hit": false,
      "t": 185714.1000000014,
      "d": 37.87875000000349,
      "v": 58
    },
    {
      "midi": 59,
      "hit": false,
      "t": 185714.10000000263,
      "d": 37.87875000000349,
      "v": 67
    },
    {
      "midi": 62,
      "hit": false,
      "t": 185714.10000000263,
      "d": 56.81812499999069,
      "v": 67
    },
    {
      "midi": 35,
      "hit": false,
      "t": 185843.9700000014,
      "d": 81.16875000001164,
      "v": 87
    },
    {
      "midi": 38,
      "hit": false,
      "t": 185973.84000000142,
      "d": 175.86562500000582,
      "v": 86
    },
    {
      "midi": 43,
      "hit": false,
      "t": 185973.84000000262,
      "d": 29.761874999996508,
      "v": 67
    },
    {
      "midi": 62,
      "hit": false,
      "t": 185976.5456250036,
      "d": 424.7831250000163,
      "v": 100
    },
    {
      "midi": 74,
      "hit": false,
      "t": 185981.9568750036,
      "d": 424.7831250000163,
      "v": 100
    },
    {
      "midi": 43,
      "hit": false,
      "t": 186103.7100000026,
      "d": 45.99562500001048,
      "v": 67
    },
    {
      "midi": 38,
      "hit": false,
      "t": 186233.58000000144,
      "d": 35.173125000001164,
      "v": 70
    },
    {
      "midi": 59,
      "hit": false,
      "t": 186233.58000000264,
      "d": 40.58437500000582,
      "v": 67
    },
    {
      "midi": 55,
      "hit": false,
      "t": 186233.58000000264,
      "d": 51.406875000015134,
      "v": 67
    },
    {
      "midi": 62,
      "hit": false,
      "t": 186233.58000000264,
      "d": 51.406875000015134,
      "v": 67
    },
    {
      "midi": 38,
      "hit": false,
      "t": 186371.56687500144,
      "d": 54.11249999998836,
      "v": 90
    },
    {
      "midi": 66,
      "hit": false,
      "t": 186458.14687500361,
      "d": 454.54500000024564,
      "v": 100
    },
    {
      "midi": 78,
      "hit": false,
      "t": 186463.55812500362,
      "d": 454.54500000024564,
      "v": 100
    },
    {
      "midi": 43,
      "hit": false,
      "t": 186493.32000000143,
      "d": 129.86999999999534,
      "v": 73
    },
    {
      "midi": 43,
      "hit": false,
      "t": 186493.32000000266,
      "d": 37.87875000000349,
      "v": 67
    },
    {
      "midi": 67,
      "hit": false,
      "t": 186623.19000000026,
      "d": 62.22937499999534,
      "v": 60
    },
    {
      "midi": 64,
      "hit": false,
      "t": 186623.19000000026,
      "d": 70.34625000000233,
      "v": 64
    },
    {
      "midi": 59,
      "hit": false,
      "t": 186623.19000000265,
      "d": 45.99562500001048,
      "v": 67
    },
    {
      "midi": 62,
      "hit": false,
      "t": 186623.19000000265,
      "d": 54.11250000001746,
      "v": 67
    },
    {
      "midi": 43,
      "hit": false,
      "t": 186753.06000000142,
      "d": 37.87875000000349,
      "v": 58
    },
    {
      "midi": 43,
      "hit": false,
      "t": 186753.06000000268,
      "d": 27.05624999999418,
      "v": 67
    },
    {
      "midi": 43,
      "hit": false,
      "t": 186882.93000000142,
      "d": 81.16875000001164,
      "v": 87
    },
    {
      "midi": 43,
      "hit": false,
      "t": 186882.93000000267,
      "d": 48.701250000012806,
      "v": 67
    },
    {
      "midi": 66,
      "hit": false,
      "t": 186969.5100000039,
      "d": 551.9475000003004,
      "v": 100
    },
    {
      "midi": 78,
      "hit": false,
      "t": 186974.9212500039,
      "d": 551.9475000003004,
      "v": 100
    },
    {
      "midi": 57,
      "hit": false,
      "t": 187012.80000000028,
      "d": 286.79625000001397,
      "v": 82
    },
    {
      "midi": 63,
      "hit": false,
      "t": 187012.80000000028,
      "d": 292.2075000000186,
      "v": 60
    },
    {
      "midi": 54,
      "hit": false,
      "t": 187012.80000000028,
      "d": 297.6187500000233,
      "v": 60
    },
    {
      "midi": 35,
      "hit": false,
      "t": 187012.80000000144,
      "d": 183.9825000000128,
      "v": 91
    },
    {
      "midi": 54,
      "hit": false,
      "t": 187012.8000000027,
      "d": 146.1037500000093,
      "v": 67
    },
    {
      "midi": 47,
      "hit": false,
      "t": 187012.8000000027,
      "d": 278.679375000007,
      "v": 67
    },
    {
      "midi": 63,
      "hit": false,
      "t": 187012.8000000027,
      "d": 292.2075000000186,
      "v": 67
    },
    {
      "midi": 59,
      "hit": false,
      "t": 187012.8000000027,
      "d": 303.03000000002794,
      "v": 67
    },
    {
      "midi": 35,
      "hit": false,
      "t": 187272.54000000146,
      "d": 129.86999999999534,
      "v": 56
    },
    {
      "midi": 54,
      "hit": false,
      "t": 187272.54000000271,
      "d": 51.406875000015134,
      "v": 67
    },
    {
      "midi": 54,
      "hit": false,
      "t": 187402.41000000274,
      "d": 45.99562500001048,
      "v": 67
    },
    {
      "midi": 63,
      "hit": false,
      "t": 187402.41000000274,
      "d": 51.406875000015134,
      "v": 67
    },
    {
      "midi": 59,
      "hit": false,
      "t": 187402.41000000274,
      "d": 56.81812500001979,
      "v": 67
    },
    {
      "midi": 35,
      "hit": false,
      "t": 187410.52687500147,
      "d": 54.11249999998836,
      "v": 87
    },
    {
      "midi": 75,
      "hit": false,
      "t": 187521.4575000042,
      "d": 108.22500000006403,
      "v": 98
    },
    {
      "midi": 63,
      "hit": false,
      "t": 187526.8687500042,
      "d": 108.22500000006403,
      "v": 98
    },
    {
      "midi": 39,
      "hit": false,
      "t": 187532.28000000145,
      "d": 129.86999999999534,
      "v": 73
    },
    {
      "midi": 54,
      "hit": false,
      "t": 187662.15000000276,
      "d": 43.29000000000815,
      "v": 65
    },
    {
      "midi": 39,
      "hit": false,
      "t": 187792.02000000144,
      "d": 146.1037500000093,
      "v": 87
    },
    {
      "midi": 59,
      "hit": false,
      "t": 187792.02000000275,
      "d": 37.87875000000349,
      "v": 67
    },
    {
      "midi": 63,
      "hit": false,
      "t": 187792.02000000275,
      "d": 56.81812499999069,
      "v": 67
    },
    {
      "midi": 71,
      "hit": false,
      "t": 188024.70375000426,
      "d": 752.1637500003853,
      "v": 100
    },
    {
      "midi": 83,
      "hit": false,
      "t": 188030.11500000427,
      "d": 752.1637500003853,
      "v": 100
    },
    {
      "midi": 42,
      "hit": false,
      "t": 188051.76000000146,
      "d": 175.86562500000582,
      "v": 86
    },
    {
      "midi": 47,
      "hit": false,
      "t": 188051.76000000275,
      "d": 29.761874999996508,
      "v": 67
    },
    {
      "midi": 47,
      "hit": false,
      "t": 188181.63000000274,
      "d": 45.99562500001048,
      "v": 67
    },
    {
      "midi": 63,
      "hit": false,
      "t": 188311.5000000003,
      "d": 62.22937499999534,
      "v": 52
    },
    {
      "midi": 66,
      "hit": false,
      "t": 188311.5000000003,
      "d": 70.34625000000233,
      "v": 56
    },
    {
      "midi": 42,
      "hit": false,
      "t": 188311.50000000148,
      "d": 35.173125000001164,
      "v": 70
    },
    {
      "midi": 59,
      "hit": false,
      "t": 188311.50000000276,
      "d": 40.58437500000582,
      "v": 67
    },
    {
      "midi": 54,
      "hit": false,
      "t": 188311.50000000276,
      "d": 51.406875000015134,
      "v": 67
    },
    {
      "midi": 63,
      "hit": false,
      "t": 188311.50000000276,
      "d": 51.406875000015134,
      "v": 67
    },
    {
      "midi": 42,
      "hit": false,
      "t": 188449.4868750015,
      "d": 54.11249999998836,
      "v": 90
    },
    {
      "midi": 47,
      "hit": false,
      "t": 188571.24000000147,
      "d": 129.86999999999534,
      "v": 73
    },
    {
      "midi": 47,
      "hit": false,
      "t": 188571.24000000278,
      "d": 37.87875000000349,
      "v": 67
    },
    {
      "midi": 67,
      "hit": false,
      "t": 188701.1100000003,
      "d": 83.87437500001397,
      "v": 60
    },
    {
      "midi": 63,
      "hit": false,
      "t": 188701.1100000003,
      "d": 91.99125000002095,
      "v": 56
    },
    {
      "midi": 59,
      "hit": false,
      "t": 188701.11000000278,
      "d": 45.99562500001048,
      "v": 67
    },
    {
      "midi": 63,
      "hit": false,
      "t": 188701.11000000278,
      "d": 54.11250000001746,
      "v": 67
    },
    {
      "midi": 71,
      "hit": false,
      "t": 188828.2743750047,
      "d": 354.4368750000431,
      "v": 100
    },
    {
      "midi": 47,
      "hit": false,
      "t": 188830.98000000147,
      "d": 37.87875000000349,
      "v": 61
    },
    {
      "midi": 47,
      "hit": false,
      "t": 188830.9800000028,
      "d": 27.05624999999418,
      "v": 67
    },
    {
      "midi": 83,
      "hit": false,
      "t": 188833.6856250047,
      "d": 354.4368750000431,
      "v": 100
    },
    {
      "midi": 47,
      "hit": false,
      "t": 188960.85000000146,
      "d": 81.16875000001164,
      "v": 78
    },
    {
      "midi": 47,
      "hit": false,
      "t": 188960.8500000028,
      "d": 48.701250000012806,
      "v": 67
    },
    {
      "midi": 55,
      "hit": false,
      "t": 189090.72000000032,
      "d": 300.3243749999965,
      "v": 64
    },
    {
      "midi": 59,
      "hit": false,
      "t": 189090.72000000032,
      "d": 300.3243749999965,
      "v": 73
    },
    {
      "midi": 64,
      "hit": false,
      "t": 189090.72000000032,
      "d": 303.02999999999884,
      "v": 60
    },
    {
      "midi": 28,
      "hit": false,
      "t": 189090.7200000015,
      "d": 183.9825000000128,
      "v": 91
    },
    {
      "midi": 55,
      "hit": false,
      "t": 189090.72000000282,
      "d": 146.1037500000093,
      "v": 67
    },
    {
      "midi": 52,
      "hit": false,
      "t": 189090.72000000282,
      "d": 278.679375000007,
      "v": 67
    },
    {
      "midi": 64,
      "hit": false,
      "t": 189090.72000000282,
      "d": 292.2075000000186,
      "v": 67
    },
    {
      "midi": 59,
      "hit": false,
      "t": 189090.72000000282,
      "d": 303.03000000002794,
      "v": 67
    },
    {
      "midi": 71,
      "hit": false,
      "t": 189231.41250000475,
      "d": 928.0293750001583,
      "v": 100
    },
    {
      "midi": 83,
      "hit": false,
      "t": 189236.82375000475,
      "d": 928.0293750001583,
      "v": 100
    },
    {
      "midi": 28,
      "hit": false,
      "t": 189350.4600000015,
      "d": 129.86999999999534,
      "v": 56
    },
    {
      "midi": 55,
      "hit": false,
      "t": 189350.46000000284,
      "d": 51.406875000015134,
      "v": 67
    },
    {
      "midi": 55,
      "hit": false,
      "t": 189480.33000000287,
      "d": 45.99562500001048,
      "v": 67
    },
    {
      "midi": 64,
      "hit": false,
      "t": 189480.33000000287,
      "d": 51.406875000015134,
      "v": 67
    },
    {
      "midi": 59,
      "hit": false,
      "t": 189480.33000000287,
      "d": 56.81812500001979,
      "v": 67
    },
    {
      "midi": 28,
      "hit": false,
      "t": 189488.4468750015,
      "d": 54.11249999998836,
      "v": 87
    },
    {
      "midi": 31,
      "hit": false,
      "t": 189610.2000000015,
      "d": 108.22500000000582,
      "v": 73
    },
    {
      "midi": 55,
      "hit": false,
      "t": 189740.0700000029,
      "d": 43.29000000000815,
      "v": 65
    },
    {
      "midi": 31,
      "hit": false,
      "t": 189869.94000000152,
      "d": 35.173125000001164,
      "v": 64
    },
    {
      "midi": 59,
      "hit": false,
      "t": 189869.94000000288,
      "d": 37.87875000000349,
      "v": 67
    },
    {
      "midi": 64,
      "hit": false,
      "t": 189869.94000000288,
      "d": 56.81812499999069,
      "v": 67
    },
    {
      "midi": 31,
      "hit": false,
      "t": 190007.92687500152,
      "d": 54.11249999998836,
      "v": 90
    },
    {
      "midi": 35,
      "hit": false,
      "t": 190129.6800000015,
      "d": 105.51937500000349,
      "v": 86
    },
    {
      "midi": 52,
      "hit": false,
      "t": 190386.7143750002,
      "d": 313.85250000000815,
      "v": 82
    },
    {
      "midi": 55,
      "hit": false,
      "t": 190386.7143750002,
      "d": 330.0862500000221,
      "v": 82
    },
    {
      "midi": 61,
      "hit": false,
      "t": 190389.42000000033,
      "d": 259.7399999999907,
      "v": 51
    },
    {
      "midi": 55,
      "hit": false,
      "t": 190389.42000000033,
      "d": 278.6793749999779,
      "v": 51
    },
    {
      "midi": 45,
      "hit": false,
      "t": 190389.42000000042,
      "d": 332.79187499999534,
      "v": 73
    },
    {
      "midi": 64,
      "hit": false,
      "t": 190389.42000000042,
      "d": 340.9087500000023,
      "v": 76
    },
    {
      "midi": 33,
      "hit": false,
      "t": 190389.4200000015,
      "d": 303.02999999999884,
      "v": 100
    },
    {
      "midi": 52,
      "hit": false,
      "t": 190389.42000000286,
      "d": 175.86562500000582,
      "v": 67
    },
    {
      "midi": 40,
      "hit": false,
      "t": 190389.42000000286,
      "d": 192.0993750000198,
      "v": 67
    },
    {
      "midi": 67,
      "hit": false,
      "t": 190392.12562500022,
      "d": 240.8006250000035,
      "v": 73
    },
    {
      "midi": 55,
      "hit": false,
      "t": 190392.12562500042,
      "d": 370.67062499999884,
      "v": 73
    },
    {
      "midi": 64,
      "hit": false,
      "t": 190400.242500005,
      "d": 294.91312499999185,
      "v": 100
    },
    {
      "midi": 76,
      "hit": false,
      "t": 190405.653750005,
      "d": 294.91312499999185,
      "v": 100
    },
    {
      "midi": 66,
      "hit": false,
      "t": 190770.913125005,
      "d": 303.03000000002794,
      "v": 100
    },
    {
      "midi": 78,
      "hit": false,
      "t": 190776.324375005,
      "d": 303.03000000002794,
      "v": 100
    },
    {
      "midi": 57,
      "hit": false,
      "t": 190779.03000000023,
      "d": 305.73562500000116,
      "v": 73
    },
    {
      "midi": 59,
      "hit": false,
      "t": 190779.03000000032,
      "d": 319.2637500000128,
      "v": 52
    },
    {
      "midi": 66,
      "hit": false,
      "t": 190779.03000000044,
      "d": 349.0256250000093,
      "v": 76
    },
    {
      "midi": 57,
      "hit": false,
      "t": 190779.03000000044,
      "d": 384.1987500000105,
      "v": 73
    },
    {
      "midi": 35,
      "hit": false,
      "t": 190779.03000000148,
      "d": 305.73562500000116,
      "v": 91
    },
    {
      "midi": 54,
      "hit": false,
      "t": 190779.03000000288,
      "d": 159.63187499999185,
      "v": 67
    },
    {
      "midi": 42,
      "hit": false,
      "t": 190779.03000000288,
      "d": 202.921875,
      "v": 67
    },
    {
      "midi": 69,
      "hit": false,
      "t": 190781.73562500023,
      "d": 224.56687499998952,
      "v": 82
    },
    {
      "midi": 54,
      "hit": false,
      "t": 190781.73562500023,
      "d": 292.2074999999895,
      "v": 82
    },
    {
      "midi": 63,
      "hit": false,
      "t": 190781.73562500032,
      "d": 319.2637500000128,
      "v": 31
    },
    {
      "midi": 47,
      "hit": false,
      "t": 190781.73562500044,
      "d": 370.67062499999884,
      "v": 73
    },
    {
      "midi": 64,
      "hit": false,
      "t": 191055.003750005,
      "d": 110.93062500003725,
      "v": 89
    },
    {
      "midi": 76,
      "hit": false,
      "t": 191060.415000005,
      "d": 110.93062500003725,
      "v": 89
    },
    {
      "midi": 66,
      "hit": false,
      "t": 191122.64437500504,
      "d": 116.3418750000128,
      "v": 82
    },
    {
      "midi": 78,
      "hit": false,
      "t": 191128.05562500504,
      "d": 116.3418750000128,
      "v": 82
    },
    {
      "midi": 59,
      "hit": false,
      "t": 191163.22875000045,
      "d": 535.7137500000244,
      "v": 64
    },
    {
      "midi": 59,
      "hit": false,
      "t": 191165.93437500024,
      "d": 432.8999999999942,
      "v": 82
    },
    {
      "midi": 48,
      "hit": false,
      "t": 191165.93437500045,
      "d": 579.0037500000035,
      "v": 64
    },
    {
      "midi": 59,
      "hit": false,
      "t": 191168.64000000007,
      "d": 963.202500000014,
      "v": 100
    },
    {
      "midi": 55,
      "hit": false,
      "t": 191168.64000000033,
      "d": 313.85250000000815,
      "v": 64
    },
    {
      "midi": 59,
      "hit": false,
      "t": 191168.64000000033,
      "d": 313.85250000000815,
      "v": 73
    },
    {
      "midi": 64,
      "hit": false,
      "t": 191168.64000000033,
      "d": 316.5581250000105,
      "v": 64
    },
    {
      "midi": 62,
      "hit": false,
      "t": 191168.64000000042,
      "d": 1033.5487500000163,
      "v": 73
    },
    {
      "midi": 64,
      "hit": false,
      "t": 191168.64000000045,
      "d": 554.6531250000116,
      "v": 73
    },
    {
      "midi": 36,
      "hit": false,
      "t": 191168.6400000015,
      "d": 183.9825000000128,
      "v": 91
    },
    {
      "midi": 60,
      "hit": false,
      "t": 191168.64000000287,
      "d": 75.75750000000698,
      "v": 67
    },
    {
      "midi": 71,
      "hit": false,
      "t": 191171.34562500025,
      "d": 335.4974999999977,
      "v": 82
    },
    {
      "midi": 55,
      "hit": false,
      "t": 191171.34562500025,
      "d": 457.25062499998603,
      "v": 82
    },
    {
      "midi": 67,
      "hit": false,
      "t": 191171.34562500045,
      "d": 522.1856250000128,
      "v": 76
    },
    {
      "midi": 59,
      "hit": false,
      "t": 191174.05125000043,
      "d": 2053.569374999992,
      "v": 64
    },
    {
      "midi": 67,
      "hit": false,
      "t": 191174.05125000043,
      "d": 2075.2143750000105,
      "v": 64
    },
    {
      "midi": 67,
      "hit": false,
      "t": 191198.40187500505,
      "d": 305.7356250001758,
      "v": 95
    },
    {
      "midi": 79,
      "hit": false,
      "t": 191203.81312500505,
      "d": 292.20750000016415,
      "v": 95
    },
    {
      "midi": 36,
      "hit": false,
      "t": 191428.38000000152,
      "d": 108.22500000000582,
      "v": 56
    },
    {
      "midi": 60,
      "hit": false,
      "t": 191428.3800000029,
      "d": 59.523749999993015,
      "v": 67
    },
    {
      "midi": 66,
      "hit": false,
      "t": 191439.20250000517,
      "d": 113.63625000009779,
      "v": 59
    },
    {
      "midi": 78,
      "hit": false,
      "t": 191444.61375000517,
      "d": 113.63625000009779,
      "v": 59
    },
    {
      "midi": 65,
      "hit": false,
      "t": 191493.3150000052,
      "d": 91.99125000005006,
      "v": 57
    },
    {
      "midi": 77,
      "hit": false,
      "t": 191498.72625000522,
      "d": 91.99125000005006,
      "v": 57
    },
    {
      "midi": 64,
      "hit": false,
      "t": 191544.72187500526,
      "d": 94.69687500002328,
      "v": 49
    },
    {
      "midi": 76,
      "hit": false,
      "t": 191550.13312500526,
      "d": 94.69687500002328,
      "v": 49
    },
    {
      "midi": 64,
      "hit": false,
      "t": 191558.25000000288,
      "d": 78.46312500000931,
      "v": 67
    },
    {
      "midi": 36,
      "hit": false,
      "t": 191566.36687500152,
      "d": 54.11249999998836,
      "v": 87
    },
    {
      "midi": 63,
      "hit": false,
      "t": 191601.54000000528,
      "d": 100.10812499999884,
      "v": 49
    },
    {
      "midi": 75,
      "hit": false,
      "t": 191606.95125000528,
      "d": 100.10812499999884,
      "v": 49
    },
    {
      "midi": 62,
      "hit": false,
      "t": 191666.47500000527,
      "d": 89.28562499998952,
      "v": 49
    },
    {
      "midi": 74,
      "hit": false,
      "t": 191671.88625000528,
      "d": 89.28562499998952,
      "v": 49
    },
    {
      "midi": 40,
      "hit": false,
      "t": 191688.1200000015,
      "d": 175.86562500000582,
      "v": 86
    },
    {
      "midi": 61,
      "hit": false,
      "t": 191725.99875000527,
      "d": 35.173125000001164,
      "v": 46
    },
    {
      "midi": 73,
      "hit": false,
      "t": 191731.41000000527,
      "d": 35.173125000001164,
      "v": 46
    },
    {
      "midi": 59,
      "hit": false,
      "t": 191817.9900000029,
      "d": 56.81812499999069,
      "v": 67
    },
    {
      "midi": 67,
      "hit": false,
      "t": 191945.15437500025,
      "d": 113.63625000001048,
      "v": 73
    },
    {
      "midi": 52,
      "hit": false,
      "t": 191945.15437500025,
      "d": 173.1600000000035,
      "v": 73
    },
    {
      "midi": 55,
      "hit": false,
      "t": 191945.15437500025,
      "d": 221.8612500000163,
      "v": 73
    },
    {
      "midi": 40,
      "hit": false,
      "t": 191947.86000000153,
      "d": 35.173125000001164,
      "v": 70
    },
    {
      "midi": 64,
      "hit": false,
      "t": 191947.8600000029,
      "d": 51.40687499998603,
      "v": 67
    },
    {
      "midi": 59,
      "hit": false,
      "t": 192077.7300000029,
      "d": 48.701250000012806,
      "v": 67
    },
    {
      "midi": 40,
      "hit": false,
      "t": 192085.84687500153,
      "d": 54.11249999998836,
      "v": 90
    },
    {
      "midi": 60,
      "hit": false,
      "t": 192185.95500000042,
      "d": 549.241875000007,
      "v": 73
    },
    {
      "midi": 60,
      "hit": false,
      "t": 192188.66062500008,
      "d": 1033.5487499999872,
      "v": 106
    },
    {
      "midi": 71,
      "hit": false,
      "t": 192204.89437500027,
      "d": 362.55374999999185,
      "v": 73
    },
    {
      "midi": 59,
      "hit": false,
      "t": 192204.89437500027,
      "d": 416.6662499999802,
      "v": 82
    },
    {
      "midi": 55,
      "hit": false,
      "t": 192204.89437500027,
      "d": 459.95624999998836,
      "v": 82
    },
    {
      "midi": 43,
      "hit": false,
      "t": 192207.60000000152,
      "d": 175.86562500000582,
      "v": 86
    },
    {
      "midi": 60,
      "hit": false,
      "t": 192207.60000000292,
      "d": 54.11249999998836,
      "v": 67
    },
    {
      "midi": 64,
      "hit": false,
      "t": 192337.4700000029,
      "d": 51.40687499998603,
      "v": 67
    },
    {
      "midi": 43,
      "hit": false,
      "t": 192467.34000000154,
      "d": 35.173125000001164,
      "v": 70
    },
    {
      "midi": 59,
      "hit": false,
      "t": 192467.3400000029,
      "d": 59.523749999993015,
      "v": 67
    },
    {
      "midi": 60,
      "hit": false,
      "t": 192597.2100000029,
      "d": 51.40687499998603,
      "v": 67
    },
    {
      "midi": 43,
      "hit": false,
      "t": 192605.32687500154,
      "d": 54.11249999998836,
      "v": 90
    },
    {
      "midi": 64,
      "hit": false,
      "t": 192710.84625000044,
      "d": 527.5968749999884,
      "v": 73
    },
    {
      "midi": 72,
      "hit": false,
      "t": 192724.37437500025,
      "d": 162.33749999999418,
      "v": 73
    },
    {
      "midi": 57,
      "hit": false,
      "t": 192724.37437500025,
      "d": 224.56687499998952,
      "v": 82
    },
    {
      "midi": 60,
      "hit": false,
      "t": 192724.37437500025,
      "d": 229.97812499999418,
      "v": 73
    },
    {
      "midi": 48,
      "hit": false,
      "t": 192727.08000000153,
      "d": 129.86999999999534,
      "v": 73
    },
    {
      "midi": 64,
      "hit": false,
      "t": 192727.0800000029,
      "d": 56.81812499999069,
      "v": 67
    },
    {
      "midi": 59,
      "hit": false,
      "t": 192856.9500000029,
      "d": 54.11249999998836,
      "v": 67
    },
    {
      "midi": 71,
      "hit": false,
      "t": 192984.11437500024,
      "d": 346.320000000007,
      "v": 82
    },
    {
      "midi": 59,
      "hit": false,
      "t": 192984.11437500024,
      "d": 392.31562500001746,
      "v": 73
    },
    {
      "midi": 55,
      "hit": false,
      "t": 192984.11437500024,
      "d": 457.25062500001513,
      "v": 82
    },
    {
      "midi": 48,
      "hit": false,
      "t": 192986.82000000152,
      "d": 37.87875000000349,
      "v": 58
    },
    {
      "midi": 60,
      "hit": false,
      "t": 192986.8200000029,
      "d": 59.523749999993015,
      "v": 67
    },
    {
      "midi": 48,
      "hit": false,
      "t": 193116.69000000152,
      "d": 81.16875000001164,
      "v": 87
    },
    {
      "midi": 64,
      "hit": false,
      "t": 193116.69000000288,
      "d": 64.93499999999767,
      "v": 67
    },
    {
      "midi": 59,
      "hit": false,
      "t": 193233.03187500007,
      "d": 511.3631250000035,
      "v": 107
    },
    {
      "midi": 60,
      "hit": false,
      "t": 193233.03187500042,
      "d": 535.7137500000244,
      "v": 82
    },
    {
      "midi": 45,
      "hit": false,
      "t": 193235.73750000045,
      "d": 589.8262500000128,
      "v": 48
    },
    {
      "midi": 59,
      "hit": false,
      "t": 193243.85437500046,
      "d": 541.125,
      "v": 64
    },
    {
      "midi": 60,
      "hit": false,
      "t": 193243.85437500046,
      "d": 546.5362500000047,
      "v": 64
    },
    {
      "midi": 64,
      "hit": false,
      "t": 193243.85437500046,
      "d": 546.5362500000047,
      "v": 64
    },
    {
      "midi": 67,
      "hit": false,
      "t": 193243.85437500046,
      "d": 551.9475000000093,
      "v": 80
    },
    {
      "midi": 33,
      "hit": false,
      "t": 193246.56000000154,
      "d": 183.9825000000128,
      "v": 91
    },
    {
      "midi": 60,
      "hit": false,
      "t": 193246.56000000288,
      "d": 75.75750000000698,
      "v": 67
    },
    {
      "midi": 52,
      "hit": false,
      "t": 193500.88875000025,
      "d": 551.9475000000093,
      "v": 73
    },
    {
      "midi": 67,
      "hit": false,
      "t": 193503.59437500025,
      "d": 441.01687500000116,
      "v": 73
    },
    {
      "midi": 55,
      "hit": false,
      "t": 193503.59437500025,
      "d": 633.116250000021,
      "v": 82
    },
    {
      "midi": 33,
      "hit": false,
      "t": 193506.30000000156,
      "d": 129.86999999999534,
      "v": 56
    },
    {
      "midi": 60,
      "hit": false,
      "t": 193506.3000000029,
      "d": 59.523749999993015,
      "v": 67
    },
    {
      "midi": 64,
      "hit": false,
      "t": 193636.1700000029,
      "d": 78.46312500000931,
      "v": 67
    },
    {
      "midi": 33,
      "hit": false,
      "t": 193644.28687500156,
      "d": 54.11249999998836,
      "v": 87
    },
    {
      "midi": 62,
      "hit": false,
      "t": 193728.16125000044,
      "d": 524.8912500000151,
      "v": 84
    },
    {
      "midi": 60,
      "hit": false,
      "t": 193744.39500000008,
      "d": 560.0643749999872,
      "v": 107
    },
    {
      "midi": 36,
      "hit": false,
      "t": 193766.04000000155,
      "d": 175.86562500000582,
      "v": 86
    },
    {
      "midi": 59,
      "hit": false,
      "t": 193895.9100000029,
      "d": 56.81812499999069,
      "v": 67
    },
    {
      "midi": 45,
      "hit": false,
      "t": 194017.66312500046,
      "d": 86.5800000000163,
      "v": 52
    },
    {
      "midi": 59,
      "hit": false,
      "t": 194017.66312500046,
      "d": 86.5800000000163,
      "v": 73
    },
    {
      "midi": 60,
      "hit": false,
      "t": 194020.36875000046,
      "d": 86.5800000000163,
      "v": 73
    },
    {
      "midi": 67,
      "hit": false,
      "t": 194020.36875000046,
      "d": 110.93062500000815,
      "v": 73
    },
    {
      "midi": 64,
      "hit": false,
      "t": 194023.07437500046,
      "d": 81.16875000001164,
      "v": 64
    },
    {
      "midi": 36,
      "hit": false,
      "t": 194025.78000000157,
      "d": 35.173125000001164,
      "v": 70
    },
    {
      "midi": 64,
      "hit": false,
      "t": 194025.7800000029,
      "d": 51.40687499998603,
      "v": 67
    },
    {
      "midi": 59,
      "hit": false,
      "t": 194155.6500000029,
      "d": 48.701250000012806,
      "v": 67
    },
    {
      "midi": 36,
      "hit": false,
      "t": 194163.76687500157,
      "d": 54.11249999998836,
      "v": 90
    },
    {
      "midi": 64,
      "hit": false,
      "t": 194258.46375000046,
      "d": 549.241875000007,
      "v": 81
    },
    {
      "midi": 64,
      "hit": false,
      "t": 194280.10875000007,
      "d": 508.65750000000116,
      "v": 107
    },
    {
      "midi": 40,
      "hit": false,
      "t": 194285.52000000156,
      "d": 175.86562500000582,
      "v": 86
    },
    {
      "midi": 60,
      "hit": false,
      "t": 194285.52000000293,
      "d": 54.11249999998836,
      "v": 67
    },
    {
      "midi": 64,
      "hit": false,
      "t": 194415.39000000292,
      "d": 51.40687499998603,
      "v": 67
    },
    {
      "midi": 45,
      "hit": false,
      "t": 194537.14312500047,
      "d": 86.5800000000163,
      "v": 52
    },
    {
      "midi": 59,
      "hit": false,
      "t": 194537.14312500047,
      "d": 86.5800000000163,
      "v": 73
    },
    {
      "midi": 60,
      "hit": false,
      "t": 194539.84875000047,
      "d": 86.5800000000163,
      "v": 73
    },
    {
      "midi": 67,
      "hit": false,
      "t": 194539.84875000047,
      "d": 110.93062500000815,
      "v": 73
    },
    {
      "midi": 64,
      "hit": false,
      "t": 194542.55437500047,
      "d": 81.16875000001164,
      "v": 64
    },
    {
      "midi": 40,
      "hit": false,
      "t": 194545.26000000158,
      "d": 35.173125000001164,
      "v": 70
    },
    {
      "midi": 59,
      "hit": false,
      "t": 194545.26000000292,
      "d": 59.523749999993015,
      "v": 67
    },
    {
      "midi": 60,
      "hit": false,
      "t": 194675.13000000292,
      "d": 51.40687499998603,
      "v": 67
    },
    {
      "midi": 40,
      "hit": false,
      "t": 194683.24687500158,
      "d": 54.11249999998836,
      "v": 90
    },
    {
      "midi": 59,
      "hit": false,
      "t": 194783.35500000045,
      "d": 500.5406250000233,
      "v": 78
    },
    {
      "midi": 59,
      "hit": false,
      "t": 194788.76625000007,
      "d": 516.7743750000081,
      "v": 107
    },
    {
      "midi": 71,
      "hit": false,
      "t": 194791.47187500045,
      "d": 505.95187500002794,
      "v": 73
    },
    {
      "midi": 45,
      "hit": false,
      "t": 194805.00000000157,
      "d": 129.86999999999534,
      "v": 73
    },
    {
      "midi": 64,
      "hit": false,
      "t": 194805.0000000029,
      "d": 56.81812499999069,
      "v": 67
    },
    {
      "midi": 59,
      "hit": false,
      "t": 194934.8700000029,
      "d": 54.11249999998836,
      "v": 67
    },
    {
      "midi": 45,
      "hit": false,
      "t": 195064.74000000156,
      "d": 37.87875000000349,
      "v": 61
    },
    {
      "midi": 60,
      "hit": false,
      "t": 195064.7400000029,
      "d": 59.523749999993015,
      "v": 67
    },
    {
      "midi": 45,
      "hit": false,
      "t": 195194.61000000156,
      "d": 81.16875000001164,
      "v": 78
    },
    {
      "midi": 64,
      "hit": false,
      "t": 195194.6100000029,
      "d": 64.93499999999767,
      "v": 67
    },
    {
      "midi": 57,
      "hit": false,
      "t": 195283.89562500047,
      "d": 2056.274999999994,
      "v": 78
    },
    {
      "midi": 57,
      "hit": false,
      "t": 195300.12937500008,
      "d": 2050.8637500000186,
      "v": 107
    },
    {
      "midi": 69,
      "hit": false,
      "t": 195302.8350000005,
      "d": 1569.2624999999825,
      "v": 64
    },
    {
      "midi": 63,
      "hit": false,
      "t": 195305.5406250005,
      "d": 503.2462499999965,
      "v": 78
    },
    {
      "midi": 60,
      "hit": false,
      "t": 195313.65750000047,
      "d": 321.96937499998603,
      "v": 73
    },
    {
      "midi": 47,
      "hit": false,
      "t": 195316.36312500047,
      "d": 262.445624999993,
      "v": 64
    },
    {
      "midi": 57,
      "hit": false,
      "t": 195319.06875000047,
      "d": 313.85249999997905,
      "v": 64
    },
    {
      "midi": 63,
      "hit": false,
      "t": 195319.06875000047,
      "d": 313.85249999997905,
      "v": 79
    },
    {
      "midi": 35,
      "hit": false,
      "t": 195324.48000000158,
      "d": 183.9825000000128,
      "v": 91
    },
    {
      "midi": 66,
      "hit": false,
      "t": 195324.4800000029,
      "d": 51.40687499998603,
      "v": 67
    },
    {
      "midi": 59,
      "hit": false,
      "t": 195454.3500000029,
      "d": 59.523749999993015,
      "v": 67
    },
    {
      "midi": 35,
      "hit": false,
      "t": 195584.2200000016,
      "d": 129.86999999999534,
      "v": 56
    },
    {
      "midi": 63,
      "hit": false,
      "t": 195584.22000000288,
      "d": 59.523749999993015,
      "v": 67
    },
    {
      "midi": 57,
      "hit": false,
      "t": 195697.85625000045,
      "d": 56.81812500001979,
      "v": 64
    },
    {
      "midi": 63,
      "hit": false,
      "t": 195697.85625000045,
      "d": 62.22937500002445,
      "v": 83
    },
    {
      "midi": 47,
      "hit": false,
      "t": 195700.56187500045,
      "d": 70.34625000003143,
      "v": 73
    },
    {
      "midi": 60,
      "hit": false,
      "t": 195705.97312500046,
      "d": 48.701250000012806,
      "v": 73
    },
    {
      "midi": 66,
      "hit": false,
      "t": 195714.09000000288,
      "d": 54.11249999998836,
      "v": 67
    },
    {
      "midi": 35,
      "hit": false,
      "t": 195722.2068750016,
      "d": 54.11249999998836,
      "v": 87
    },
    {
      "midi": 64,
      "hit": false,
      "t": 195797.96437500048,
      "d": 546.5362500000047,
      "v": 78
    },
    {
      "midi": 39,
      "hit": false,
      "t": 195843.9600000016,
      "d": 175.86562500000582,
      "v": 86
    },
    {
      "midi": 59,
      "hit": false,
      "t": 195843.96000000287,
      "d": 51.40687499998603,
      "v": 67
    },
    {
      "midi": 63,
      "hit": false,
      "t": 195973.83000000287,
      "d": 56.81812499999069,
      "v": 67
    },
    {
      "midi": 54,
      "hit": false,
      "t": 196100.99437500027,
      "d": 221.8612499999872,
      "v": 64
    },
    {
      "midi": 69,
      "hit": false,
      "t": 196100.99437500027,
      "d": 243.50624999997672,
      "v": 73
    },
    {
      "midi": 57,
      "hit": false,
      "t": 196100.99437500027,
      "d": 251.6231249999837,
      "v": 60
    },
    {
      "midi": 39,
      "hit": false,
      "t": 196103.7000000016,
      "d": 35.173125000001164,
      "v": 70
    },
    {
      "midi": 66,
      "hit": false,
      "t": 196103.70000000286,
      "d": 51.40687499998603,
      "v": 67
    },
    {
      "midi": 39,
      "hit": false,
      "t": 196241.68687500161,
      "d": 54.11249999998836,
      "v": 90
    },
    {
      "midi": 66,
      "hit": false,
      "t": 196336.38375000047,
      "d": 560.0643749999872,
      "v": 78
    },
    {
      "midi": 55,
      "hit": false,
      "t": 196360.73437500026,
      "d": 197.51062499999534,
      "v": 91
    },
    {
      "midi": 42,
      "hit": false,
      "t": 196363.4400000016,
      "d": 175.86562500000582,
      "v": 86
    },
    {
      "midi": 59,
      "hit": false,
      "t": 196363.44000000285,
      "d": 54.11249999998836,
      "v": 67
    },
    {
      "midi": 59,
      "hit": false,
      "t": 196366.14562500027,
      "d": 254.32874999998603,
      "v": 73
    },
    {
      "midi": 71,
      "hit": false,
      "t": 196366.14562500027,
      "d": 262.445624999993,
      "v": 73
    },
    {
      "midi": 54,
      "hit": false,
      "t": 196620.47437500025,
      "d": 227.27250000002095,
      "v": 60
    },
    {
      "midi": 42,
      "hit": false,
      "t": 196623.18000000162,
      "d": 35.173125000001164,
      "v": 70
    },
    {
      "midi": 59,
      "hit": false,
      "t": 196623.18000000285,
      "d": 59.523749999993015,
      "v": 67
    },
    {
      "midi": 69,
      "hit": false,
      "t": 196625.88562500026,
      "d": 216.45000000001164,
      "v": 64
    },
    {
      "midi": 57,
      "hit": false,
      "t": 196625.88562500026,
      "d": 229.97812500002328,
      "v": 73
    },
    {
      "midi": 66,
      "hit": false,
      "t": 196753.05000000284,
      "d": 51.40687499998603,
      "v": 67
    },
    {
      "midi": 42,
      "hit": false,
      "t": 196761.16687500163,
      "d": 54.11249999998836,
      "v": 90
    },
    {
      "midi": 71,
      "hit": false,
      "t": 196874.80312500047,
      "d": 554.6531249999825,
      "v": 78
    },
    {
      "midi": 52,
      "hit": false,
      "t": 196880.21437500027,
      "d": 200.21624999999767,
      "v": 91
    },
    {
      "midi": 67,
      "hit": false,
      "t": 196880.21437500027,
      "d": 205.62750000000233,
      "v": 73
    },
    {
      "midi": 47,
      "hit": false,
      "t": 196882.9200000016,
      "d": 129.86999999999534,
      "v": 73
    },
    {
      "midi": 55,
      "hit": false,
      "t": 196885.62562500028,
      "d": 205.62750000000233,
      "v": 82
    },
    {
      "midi": 52,
      "hit": false,
      "t": 197139.9543750003,
      "d": 478.89562500000466,
      "v": 82
    },
    {
      "midi": 47,
      "hit": false,
      "t": 197142.6600000016,
      "d": 37.87875000000349,
      "v": 61
    },
    {
      "midi": 59,
      "hit": false,
      "t": 197142.66000000283,
      "d": 59.523749999993015,
      "v": 67
    },
    {
      "midi": 67,
      "hit": false,
      "t": 197145.3656250003,
      "d": 470.7787499999977,
      "v": 73
    },
    {
      "midi": 55,
      "hit": false,
      "t": 197145.3656250003,
      "d": 476.1900000000023,
      "v": 73
    },
    {
      "midi": 47,
      "hit": false,
      "t": 197272.5300000016,
      "d": 81.16875000001164,
      "v": 78
    },
    {
      "midi": 64,
      "hit": false,
      "t": 197272.53000000282,
      "d": 51.40687499998603,
      "v": 67
    },
    {
      "midi": 52,
      "hit": false,
      "t": 197388.87187500048,
      "d": 313.85250000000815,
      "v": 73
    },
    {
      "midi": 64,
      "hit": false,
      "t": 197399.6943750005,
      "d": 297.6187499999942,
      "v": 77
    },
    {
      "midi": 55,
      "hit": false,
      "t": 197399.6943750005,
      "d": 305.73562500000116,
      "v": 64
    },
    {
      "midi": 59,
      "hit": false,
      "t": 197399.6943750005,
      "d": 305.73562500000116,
      "v": 73
    },
    {
      "midi": 28,
      "hit": false,
      "t": 197402.40000000162,
      "d": 146.1037500000093,
      "v": 91
    },
    {
      "midi": 64,
      "hit": false,
      "t": 197402.40000000282,
      "d": 56.81812499999069,
      "v": 67
    },
    {
      "midi": 69,
      "hit": false,
      "t": 197410.51687500047,
      "d": 514.0687499999767,
      "v": 73
    },
    {
      "midi": 59,
      "hit": false,
      "t": 197532.2700000028,
      "d": 54.11249999998836,
      "v": 67
    },
    {
      "midi": 55,
      "hit": false,
      "t": 197659.4343750003,
      "d": 359.8481250000186,
      "v": 91
    },
    {
      "midi": 28,
      "hit": false,
      "t": 197662.14000000164,
      "d": 73.05187500000466,
      "v": 56
    },
    {
      "midi": 60,
      "hit": false,
      "t": 197662.1400000028,
      "d": 59.523749999993015,
      "v": 67
    },
    {
      "midi": 71,
      "hit": false,
      "t": 197664.8456250003,
      "d": 392.31562500001746,
      "v": 82
    },
    {
      "midi": 59,
      "hit": false,
      "t": 197664.8456250003,
      "d": 430.19437500002095,
      "v": 82
    },
    {
      "midi": 52,
      "hit": false,
      "t": 197778.4818750005,
      "d": 86.5800000000163,
      "v": 56
    },
    {
      "midi": 59,
      "hit": false,
      "t": 197789.3043750005,
      "d": 67.640625,
      "v": 73
    },
    {
      "midi": 64,
      "hit": false,
      "t": 197789.3043750005,
      "d": 67.640625,
      "v": 81
    },
    {
      "midi": 55,
      "hit": false,
      "t": 197789.3043750005,
      "d": 75.75750000000698,
      "v": 73
    },
    {
      "midi": 64,
      "hit": false,
      "t": 197792.0100000028,
      "d": 64.93499999999767,
      "v": 67
    },
    {
      "midi": 28,
      "hit": false,
      "t": 197800.12687500165,
      "d": 54.11249999998836,
      "v": 87
    },
    {
      "midi": 67,
      "hit": false,
      "t": 197897.52937500045,
      "d": 522.1856249999837,
      "v": 73
    },
    {
      "midi": 31,
      "hit": false,
      "t": 197921.88000000163,
      "d": 129.86999999999534,
      "v": 73
    },
    {
      "midi": 59,
      "hit": false,
      "t": 197921.8800000028,
      "d": 54.11249999998836,
      "v": 67
    },
    {
      "midi": 59,
      "hit": false,
      "t": 198051.7500000028,
      "d": 43.29000000000815,
      "v": 67
    },
    {
      "midi": 31,
      "hit": false,
      "t": 198181.62000000163,
      "d": 62.22937499999534,
      "v": 56
    },
    {
      "midi": 64,
      "hit": false,
      "t": 198181.6200000028,
      "d": 64.93499999999767,
      "v": 67
    },
    {
      "midi": 31,
      "hit": false,
      "t": 198319.60687500163,
      "d": 54.11249999998836,
      "v": 87
    },
    {
      "midi": 66,
      "hit": false,
      "t": 198419.71500000043,
      "d": 541.125,
      "v": 73
    },
    {
      "midi": 35,
      "hit": false,
      "t": 198441.36000000162,
      "d": 175.86562500000582,
      "v": 86
    },
    {
      "midi": 59,
      "hit": false,
      "t": 198441.36000000278,
      "d": 64.93499999999767,
      "v": 67
    },
    {
      "midi": 64,
      "hit": false,
      "t": 198571.23000000278,
      "d": 54.11249999998836,
      "v": 67
    },
    {
      "midi": 45,
      "hit": false,
      "t": 198690.27750000052,
      "d": 357.1425000000163,
      "v": 73
    },
    {
      "midi": 55,
      "hit": false,
      "t": 198698.39437500053,
      "d": 303.02999999999884,
      "v": 73
    },
    {
      "midi": 64,
      "hit": false,
      "t": 198698.39437500053,
      "d": 319.2637500000128,
      "v": 82
    },
    {
      "midi": 35,
      "hit": false,
      "t": 198701.10000000164,
      "d": 35.173125000001164,
      "v": 70
    },
    {
      "midi": 55,
      "hit": false,
      "t": 198701.10000000277,
      "d": 43.29000000000815,
      "v": 67
    },
    {
      "midi": 67,
      "hit": false,
      "t": 198703.80562500033,
      "d": 200.21624999999767,
      "v": 73
    },
    {
      "midi": 52,
      "hit": false,
      "t": 198703.80562500033,
      "d": 202.921875,
      "v": 82
    },
    {
      "midi": 55,
      "hit": false,
      "t": 198703.80562500033,
      "d": 216.45000000001164,
      "v": 73
    },
    {
      "midi": 55,
      "hit": false,
      "t": 198830.97000000277,
      "d": 64.93499999999767,
      "v": 67
    },
    {
      "midi": 35,
      "hit": false,
      "t": 198839.08687500164,
      "d": 54.11249999998836,
      "v": 90
    },
    {
      "midi": 64,
      "hit": false,
      "t": 198947.31187500042,
      "d": 530.3025000000198,
      "v": 73
    },
    {
      "midi": 40,
      "hit": false,
      "t": 198960.84000000163,
      "d": 129.86999999999534,
      "v": 73
    },
    {
      "midi": 69,
      "hit": false,
      "t": 199088.00437500034,
      "d": 208.33312500000466,
      "v": 73
    },
    {
      "midi": 54,
      "hit": false,
      "t": 199090.71000000034,
      "d": 200.21624999999767,
      "v": 64
    },
    {
      "midi": 57,
      "hit": false,
      "t": 199093.41562500034,
      "d": 200.21624999999767,
      "v": 73
    },
    {
      "midi": 47,
      "hit": false,
      "t": 199093.41562500055,
      "d": 354.43687500001397,
      "v": 73
    },
    {
      "midi": 57,
      "hit": false,
      "t": 199098.82687500055,
      "d": 327.3806249999907,
      "v": 64
    },
    {
      "midi": 66,
      "hit": false,
      "t": 199098.82687500055,
      "d": 338.203125,
      "v": 91
    },
    {
      "midi": 40,
      "hit": false,
      "t": 199220.58000000162,
      "d": 37.87875000000349,
      "v": 61
    },
    {
      "midi": 59,
      "hit": false,
      "t": 199220.58000000275,
      "d": 43.29000000000815,
      "v": 67
    },
    {
      "midi": 40,
      "hit": false,
      "t": 199350.4500000016,
      "d": 81.16875000001164,
      "v": 78
    },
    {
      "midi": 64,
      "hit": false,
      "t": 199350.45000000275,
      "d": 64.93499999999767,
      "v": 67
    },
    {
      "midi": 62,
      "hit": false,
      "t": 199474.90875000044,
      "d": 3685.061249999999,
      "v": 73
    },
    {
      "midi": 48,
      "hit": false,
      "t": 199474.90875000056,
      "d": 367.9649999999965,
      "v": 64
    },
    {
      "midi": 55,
      "hit": false,
      "t": 199477.61437500035,
      "d": 335.4974999999977,
      "v": 100
    },
    {
      "midi": 64,
      "hit": false,
      "t": 199477.61437500056,
      "d": 327.3806249999907,
      "v": 73
    },
    {
      "midi": 59,
      "hit": false,
      "t": 199477.61437500056,
      "d": 335.4974999999977,
      "v": 60
    },
    {
      "midi": 62,
      "hit": false,
      "t": 199477.61437500056,
      "d": 335.4974999999977,
      "v": 82
    },
    {
      "midi": 67,
      "hit": false,
      "t": 199477.61437500056,
      "d": 343.61437500000466,
      "v": 85
    },
    {
      "midi": 76,
      "hit": false,
      "t": 199480.32000000012,
      "d": 45.99562500001048,
      "v": 127
    },
    {
      "midi": 36,
      "hit": false,
      "t": 199480.32000000164,
      "d": 183.9825000000128,
      "v": 91
    },
    {
      "midi": 60,
      "hit": false,
      "t": 199480.32000000274,
      "d": 75.75750000000698,
      "v": 67
    },
    {
      "midi": 71,
      "hit": false,
      "t": 199483.02562500036,
      "d": 338.203125,
      "v": 82
    },
    {
      "midi": 59,
      "hit": false,
      "t": 199483.02562500036,
      "d": 346.320000000007,
      "v": 82
    },
    {
      "midi": 76,
      "hit": false,
      "t": 199737.35437500014,
      "d": 70.34625000000233,
      "v": 127
    },
    {
      "midi": 36,
      "hit": false,
      "t": 199740.06000000166,
      "d": 108.22500000000582,
      "v": 56
    },
    {
      "midi": 64,
      "hit": false,
      "t": 199740.06000000276,
      "d": 59.523749999993015,
      "v": 67
    },
    {
      "midi": 67,
      "hit": false,
      "t": 199864.51875000054,
      "d": 83.87437499998487,
      "v": 60
    },
    {
      "midi": 74,
      "hit": false,
      "t": 199867.22437500014,
      "d": 48.701250000012806,
      "v": 127
    },
    {
      "midi": 55,
      "hit": false,
      "t": 199867.22437500037,
      "d": 108.22500000000582,
      "v": 91
    },
    {
      "midi": 64,
      "hit": false,
      "t": 199867.22437500054,
      "d": 54.11249999998836,
      "v": 73
    },
    {
      "midi": 59,
      "hit": false,
      "t": 199869.93000000055,
      "d": 75.75749999997788,
      "v": 73
    },
    {
      "midi": 62,
      "hit": false,
      "t": 199869.93000000055,
      "d": 75.75749999997788,
      "v": 64
    },
    {
      "midi": 48,
      "hit": false,
      "t": 199869.93000000055,
      "d": 81.16874999998254,
      "v": 64
    },
    {
      "midi": 62,
      "hit": false,
      "t": 199869.93000000276,
      "d": 78.46312500000931,
      "v": 67
    },
    {
      "midi": 71,
      "hit": false,
      "t": 199872.63562500037,
      "d": 89.28562499998952,
      "v": 82
    },
    {
      "midi": 59,
      "hit": false,
      "t": 199872.63562500037,
      "d": 108.22500000000582,
      "v": 82
    },
    {
      "midi": 36,
      "hit": false,
      "t": 199878.04687500166,
      "d": 54.11249999998836,
      "v": 87
    },
    {
      "midi": 40,
      "hit": false,
      "t": 199999.80000000165,
      "d": 175.86562500000582,
      "v": 86
    },
    {
      "midi": 67,
      "hit": false,
      "t": 200129.67000000278,
      "d": 56.81812499999069,
      "v": 67
    },
    {
      "midi": 74,
      "hit": false,
      "t": 200132.37562500016,
      "d": 73.05187500000466,
      "v": 127
    },
    {
      "midi": 71,
      "hit": false,
      "t": 200259.54000000015,
      "d": 56.81812499999069,
      "v": 127
    },
    {
      "midi": 40,
      "hit": false,
      "t": 200259.54000000167,
      "d": 35.173125000001164,
      "v": 70
    },
    {
      "midi": 64,
      "hit": false,
      "t": 200259.54000000277,
      "d": 51.40687499998603,
      "v": 67
    },
    {
      "midi": 59,
      "hit": false,
      "t": 200389.41000000277,
      "d": 48.701250000012806,
      "v": 67
    },
    {
      "midi": 40,
      "hit": false,
      "t": 200397.52687500167,
      "d": 54.11249999998836,
      "v": 90
    },
    {
      "midi": 69,
      "hit": false,
      "t": 200519.28000000014,
      "d": 48.701250000012806,
      "v": 127
    },
    {
      "midi": 43,
      "hit": false,
      "t": 200519.28000000166,
      "d": 175.86562500000582,
      "v": 86
    },
    {
      "midi": 69,
      "hit": false,
      "t": 200519.2800000028,
      "d": 54.11249999998836,
      "v": 67
    },
    {
      "midi": 64,
      "hit": false,
      "t": 200649.1500000028,
      "d": 51.40687499998603,
      "v": 67
    },
    {
      "midi": 71,
      "hit": false,
      "t": 200773.60875000016,
      "d": 62.22937499999534,
      "v": 127
    },
    {
      "midi": 43,
      "hit": false,
      "t": 200779.02000000168,
      "d": 35.173125000001164,
      "v": 70
    },
    {
      "midi": 59,
      "hit": false,
      "t": 200779.02000000278,
      "d": 59.523749999993015,
      "v": 67
    },
    {
      "midi": 67,
      "hit": false,
      "t": 200781.72562500037,
      "d": 116.3418750000128,
      "v": 73
    },
    {
      "midi": 52,
      "hit": false,
      "t": 200781.72562500037,
      "d": 178.57125000000815,
      "v": 82
    },
    {
      "midi": 55,
      "hit": false,
      "t": 200781.72562500037,
      "d": 183.9825000000128,
      "v": 73
    },
    {
      "midi": 60,
      "hit": false,
      "t": 200908.89000000278,
      "d": 51.40687499998603,
      "v": 67
    },
    {
      "midi": 43,
      "hit": false,
      "t": 200917.00687500168,
      "d": 54.11249999998836,
      "v": 90
    },
    {
      "midi": 67,
      "hit": false,
      "t": 201033.34875000015,
      "d": 62.22937499999534,
      "v": 127
    },
    {
      "midi": 48,
      "hit": false,
      "t": 201038.76000000167,
      "d": 129.86999999999534,
      "v": 73
    },
    {
      "midi": 55,
      "hit": false,
      "t": 201038.76000000277,
      "d": 56.81812499999069,
      "v": 67
    },
    {
      "midi": 59,
      "hit": false,
      "t": 201168.63000000277,
      "d": 54.11249999998836,
      "v": 67
    },
    {
      "midi": 54,
      "hit": false,
      "t": 201171.33562500039,
      "d": 154.2206249999872,
      "v": 82
    },
    {
      "midi": 57,
      "hit": false,
      "t": 201171.33562500039,
      "d": 156.92624999998952,
      "v": 73
    },
    {
      "midi": 69,
      "hit": false,
      "t": 201171.33562500039,
      "d": 156.92624999998952,
      "v": 82
    },
    {
      "midi": 48,
      "hit": false,
      "t": 201298.50000000166,
      "d": 37.87875000000349,
      "v": 58
    },
    {
      "midi": 60,
      "hit": false,
      "t": 201298.50000000276,
      "d": 59.523749999993015,
      "v": 67
    },
    {
      "midi": 48,
      "hit": false,
      "t": 201428.37000000165,
      "d": 81.16875000001164,
      "v": 87
    },
    {
      "midi": 64,
      "hit": false,
      "t": 201428.37000000276,
      "d": 64.93499999999767,
      "v": 67
    },
    {
      "midi": 55,
      "hit": false,
      "t": 201550.12312500054,
      "d": 351.73124999998254,
      "v": 73
    },
    {
      "midi": 59,
      "hit": false,
      "t": 201550.12312500054,
      "d": 351.73124999998254,
      "v": 73
    },
    {
      "midi": 45,
      "hit": false,
      "t": 201552.82875000054,
      "d": 292.2074999999895,
      "v": 68
    },
    {
      "midi": 60,
      "hit": false,
      "t": 201552.82875000054,
      "d": 346.3199999999779,
      "v": 56
    },
    {
      "midi": 55,
      "hit": false,
      "t": 201555.53437500037,
      "d": 359.8481249999895,
      "v": 100
    },
    {
      "midi": 64,
      "hit": false,
      "t": 201555.53437500054,
      "d": 346.3199999999779,
      "v": 82
    },
    {
      "midi": 76,
      "hit": false,
      "t": 201558.24000000014,
      "d": 43.29000000000815,
      "v": 127
    },
    {
      "midi": 33,
      "hit": false,
      "t": 201558.24000000168,
      "d": 183.9825000000128,
      "v": 91
    },
    {
      "midi": 59,
      "hit": false,
      "t": 201558.24000000276,
      "d": 75.75750000000698,
      "v": 67
    },
    {
      "midi": 59,
      "hit": false,
      "t": 201560.94562500037,
      "d": 327.3806249999907,
      "v": 82
    },
    {
      "midi": 71,
      "hit": false,
      "t": 201560.94562500037,
      "d": 367.9649999999965,
      "v": 82
    },
    {
      "midi": 76,
      "hit": false,
      "t": 201801.74625000014,
      "d": 67.640625,
      "v": 127
    },
    {
      "midi": 33,
      "hit": false,
      "t": 201817.9800000017,
      "d": 129.86999999999534,
      "v": 56
    },
    {
      "midi": 64,
      "hit": false,
      "t": 201817.98000000278,
      "d": 59.523749999993015,
      "v": 67
    },
    {
      "midi": 74,
      "hit": false,
      "t": 201931.61625000014,
      "d": 45.99562500001048,
      "v": 127
    },
    {
      "midi": 60,
      "hit": false,
      "t": 201934.32187500052,
      "d": 83.87437500001397,
      "v": 64
    },
    {
      "midi": 45,
      "hit": false,
      "t": 201939.73312500052,
      "d": 67.640625,
      "v": 60
    },
    {
      "midi": 64,
      "hit": false,
      "t": 201945.14437500053,
      "d": 54.11249999998836,
      "v": 82
    },
    {
      "midi": 59,
      "hit": false,
      "t": 201945.14437500053,
      "d": 56.81812499999069,
      "v": 82
    },
    {
      "midi": 55,
      "hit": false,
      "t": 201945.14437500053,
      "d": 62.22937499999534,
      "v": 73
    },
    {
      "midi": 62,
      "hit": false,
      "t": 201947.85000000277,
      "d": 78.46312500000931,
      "v": 67
    },
    {
      "midi": 59,
      "hit": false,
      "t": 201950.55562500036,
      "d": 86.5799999999872,
      "v": 82
    },
    {
      "midi": 71,
      "hit": false,
      "t": 201950.55562500036,
      "d": 89.28562499998952,
      "v": 91
    },
    {
      "midi": 55,
      "hit": false,
      "t": 201950.55562500036,
      "d": 108.22499999997672,
      "v": 91
    },
    {
      "midi": 33,
      "hit": false,
      "t": 201955.9668750017,
      "d": 54.11249999998836,
      "v": 87
    },
    {
      "midi": 36,
      "hit": false,
      "t": 202077.7200000017,
      "d": 175.86562500000582,
      "v": 86
    },
    {
      "midi": 74,
      "hit": false,
      "t": 202196.76750000016,
      "d": 73.05187500000466,
      "v": 127
    },
    {
      "midi": 67,
      "hit": false,
      "t": 202207.5900000028,
      "d": 56.81812499999069,
      "v": 67
    },
    {
      "midi": 71,
      "hit": false,
      "t": 202329.34312500016,
      "d": 51.40687499998603,
      "v": 127
    },
    {
      "midi": 36,
      "hit": false,
      "t": 202337.4600000017,
      "d": 35.173125000001164,
      "v": 70
    },
    {
      "midi": 64,
      "hit": false,
      "t": 202337.4600000028,
      "d": 51.40687499998603,
      "v": 67
    },
    {
      "midi": 59,
      "hit": false,
      "t": 202467.33000000278,
      "d": 48.701250000012806,
      "v": 67
    },
    {
      "midi": 36,
      "hit": false,
      "t": 202475.4468750017,
      "d": 54.11249999998836,
      "v": 90
    },
    {
      "midi": 40,
      "hit": false,
      "t": 202597.2000000017,
      "d": 175.86562500000582,
      "v": 86
    },
    {
      "midi": 69,
      "hit": false,
      "t": 202597.2000000028,
      "d": 54.11249999998836,
      "v": 67
    },
    {
      "midi": 69,
      "hit": false,
      "t": 202599.90562500016,
      "d": 54.11249999998836,
      "v": 127
    },
    {
      "midi": 71,
      "hit": false,
      "t": 202724.36437500015,
      "d": 62.22937499999534,
      "v": 127
    },
    {
      "midi": 64,
      "hit": false,
      "t": 202727.0700000028,
      "d": 51.40687499998603,
      "v": 67
    },
    {
      "midi": 40,
      "hit": false,
      "t": 202856.94000000172,
      "d": 35.173125000001164,
      "v": 70
    },
    {
      "midi": 59,
      "hit": false,
      "t": 202856.9400000028,
      "d": 59.523749999993015,
      "v": 67
    },
    {
      "midi": 67,
      "hit": false,
      "t": 202859.64562500015,
      "d": 37.87875000000349,
      "v": 127
    },
    {
      "midi": 60,
      "hit": false,
      "t": 202986.8100000028,
      "d": 51.40687499998603,
      "v": 67
    },
    {
      "midi": 40,
      "hit": false,
      "t": 202994.92687500172,
      "d": 54.11249999998836,
      "v": 90
    },
    {
      "midi": 64,
      "hit": false,
      "t": 203113.97437500017,
      "d": 67.640625,
      "v": 127
    },
    {
      "midi": 45,
      "hit": false,
      "t": 203116.6800000017,
      "d": 129.86999999999534,
      "v": 73
    },
    {
      "midi": 55,
      "hit": false,
      "t": 203116.6800000028,
      "d": 56.81812499999069,
      "v": 67
    },
    {
      "midi": 59,
      "hit": false,
      "t": 203246.55000000278,
      "d": 54.11249999998836,
      "v": 67
    },
    {
      "midi": 45,
      "hit": false,
      "t": 203376.4200000017,
      "d": 37.87875000000349,
      "v": 61
    },
    {
      "midi": 60,
      "hit": false,
      "t": 203376.42000000278,
      "d": 59.523749999993015,
      "v": 67
    },
    {
      "midi": 45,
      "hit": false,
      "t": 203506.2900000017,
      "d": 81.16875000001164,
      "v": 78
    },
    {
      "midi": 64,
      "hit": false,
      "t": 203506.29000000277,
      "d": 64.93499999999767,
      "v": 67
    },
    {
      "midi": 47,
      "hit": false,
      "t": 203630.74875000052,
      "d": 332.79187500002445,
      "v": 67
    },
    {
      "midi": 57,
      "hit": false,
      "t": 203633.45437500053,
      "d": 313.85250000000815,
      "v": 82
    },
    {
      "midi": 63,
      "hit": false,
      "t": 203633.45437500053,
      "d": 332.79187500002445,
      "v": 60
    },
    {
      "midi": 67,
      "hit": false,
      "t": 203633.45437500053,
      "d": 332.79187500002445,
      "v": 81
    },
    {
      "midi": 47,
      "hit": false,
      "t": 203636.16000000018,
      "d": 259.7400000000198,
      "v": 127
    },
    {
      "midi": 57,
      "hit": false,
      "t": 203636.16000000018,
      "d": 259.7400000000198,
      "v": 127
    },
    {
      "midi": 35,
      "hit": false,
      "t": 203636.16000000172,
      "d": 183.9825000000128,
      "v": 91
    },
    {
      "midi": 66,
      "hit": false,
      "t": 203636.16000000277,
      "d": 51.40687499998603,
      "v": 67
    },
    {
      "midi": 63,
      "hit": false,
      "t": 203638.86562500018,
      "d": 270.5625000000291,
      "v": 127
    },
    {
      "midi": 71,
      "hit": false,
      "t": 203641.57125000018,
      "d": 246.21187500000815,
      "v": 127
    },
    {
      "midi": 62,
      "hit": false,
      "t": 203641.57125000018,
      "d": 257.03437500001746,
      "v": 127
    },
    {
      "midi": 67,
      "hit": false,
      "t": 203641.57125000018,
      "d": 259.7400000000198,
      "v": 127
    },
    {
      "midi": 59,
      "hit": false,
      "t": 203766.03000000276,
      "d": 59.523749999993015,
      "v": 67
    },
    {
      "midi": 35,
      "hit": false,
      "t": 203895.90000000174,
      "d": 129.86999999999534,
      "v": 56
    },
    {
      "midi": 63,
      "hit": false,
      "t": 203895.90000000276,
      "d": 59.523749999993015,
      "v": 67
    },
    {
      "midi": 47,
      "hit": false,
      "t": 204017.65312500022,
      "d": 54.11250000001746,
      "v": 127
    },
    {
      "midi": 57,
      "hit": false,
      "t": 204017.65312500022,
      "d": 54.11250000001746,
      "v": 127
    },
    {
      "midi": 63,
      "hit": false,
      "t": 204020.35875000022,
      "d": 56.81812500001979,
      "v": 127
    },
    {
      "midi": 62,
      "hit": false,
      "t": 204020.35875000022,
      "d": 59.52375000002212,
      "v": 127
    },
    {
      "midi": 67,
      "hit": false,
      "t": 204023.06437500022,
      "d": 54.11250000001746,
      "v": 127
    },
    {
      "midi": 47,
      "hit": false,
      "t": 204023.06437500054,
      "d": 83.87437500001397,
      "v": 73
    },
    {
      "midi": 67,
      "hit": false,
      "t": 204023.06437500054,
      "d": 83.87437500001397,
      "v": 64
    },
    {
      "midi": 57,
      "hit": false,
      "t": 204023.06437500054,
      "d": 102.81375000003027,
      "v": 73
    },
    {
      "midi": 71,
      "hit": false,
      "t": 204025.77000000022,
      "d": 59.52375000002212,
      "v": 127
    },
    {
      "midi": 63,
      "hit": false,
      "t": 204025.77000000054,
      "d": 91.99125000002095,
      "v": 60
    },
    {
      "midi": 35,
      "hit": false,
      "t": 204033.88687500174,
      "d": 54.11249999998836,
      "v": 87
    },
    {
      "midi": 39,
      "hit": false,
      "t": 204155.64000000173,
      "d": 175.86562500000582,
      "v": 86
    },
    {
      "midi": 59,
      "hit": false,
      "t": 204155.64000000275,
      "d": 51.40687499998603,
      "v": 67
    },
    {
      "midi": 63,
      "hit": false,
      "t": 204285.51000000275,
      "d": 56.81812499999069,
      "v": 67
    },
    {
      "midi": 47,
      "hit": false,
      "t": 204412.67437500058,
      "d": 83.87437500001397,
      "v": 73
    },
    {
      "midi": 67,
      "hit": false,
      "t": 204412.67437500058,
      "d": 83.87437500001397,
      "v": 64
    },
    {
      "midi": 57,
      "hit": false,
      "t": 204412.67437500058,
      "d": 102.81375000003027,
      "v": 73
    },
    {
      "midi": 63,
      "hit": false,
      "t": 204415.3800000006,
      "d": 91.99125000002095,
      "v": 60
    },
    {
      "midi": 39,
      "hit": false,
      "t": 204415.38000000175,
      "d": 35.173125000001164,
      "v": 70
    },
    {
      "midi": 59,
      "hit": false,
      "t": 204415.38000000274,
      "d": 51.40687499998603,
      "v": 67
    },
    {
      "midi": 63,
      "hit": false,
      "t": 204545.25000000274,
      "d": 37.87875000000349,
      "v": 67
    },
    {
      "midi": 39,
      "hit": false,
      "t": 204553.36687500175,
      "d": 54.11249999998836,
      "v": 90
    },
    {
      "midi": 67,
      "hit": false,
      "t": 204672.41437500034,
      "d": 219.15562500001397,
      "v": 73
    },
    {
      "midi": 55,
      "hit": false,
      "t": 204672.41437500034,
      "d": 224.56687500001863,
      "v": 91
    },
    {
      "midi": 42,
      "hit": false,
      "t": 204675.12000000174,
      "d": 175.86562500000582,
      "v": 86
    },
    {
      "midi": 59,
      "hit": false,
      "t": 204675.12000000273,
      "d": 54.11249999998836,
      "v": 67
    },
    {
      "midi": 59,
      "hit": false,
      "t": 204804.99000000273,
      "d": 59.523749999993015,
      "v": 67
    },
    {
      "midi": 64,
      "hit": false,
      "t": 204932.15437500036,
      "d": 219.15562500001397,
      "v": 73
    },
    {
      "midi": 52,
      "hit": false,
      "t": 204932.15437500036,
      "d": 224.56687500001863,
      "v": 82
    },
    {
      "midi": 42,
      "hit": false,
      "t": 204934.86000000176,
      "d": 35.173125000001164,
      "v": 70
    },
    {
      "midi": 55,
      "hit": false,
      "t": 204934.86000000272,
      "d": 51.40687499998603,
      "v": 67
    },
    {
      "midi": 57,
      "hit": false,
      "t": 205064.73000000272,
      "d": 51.40687499998603,
      "v": 67
    },
    {
      "midi": 42,
      "hit": false,
      "t": 205072.84687500176,
      "d": 54.11249999998836,
      "v": 90
    },
    {
      "midi": 50,
      "hit": false,
      "t": 205191.89437500038,
      "d": 202.921875,
      "v": 82
    },
    {
      "midi": 62,
      "hit": false,
      "t": 205191.89437500038,
      "d": 232.6837499999965,
      "v": 73
    },
    {
      "midi": 47,
      "hit": false,
      "t": 205194.60000000175,
      "d": 129.86999999999534,
      "v": 73
    },
    {
      "midi": 59,
      "hit": false,
      "t": 205194.6000000027,
      "d": 59.523749999993015,
      "v": 67
    },
    {
      "midi": 55,
      "hit": false,
      "t": 205324.4700000027,
      "d": 59.523749999993015,
      "v": 67
    },
    {
      "midi": 52,
      "hit": false,
      "t": 205451.63437500037,
      "d": 771.1031250000233,
      "v": 91
    },
    {
      "midi": 47,
      "hit": false,
      "t": 205454.34000000174,
      "d": 37.87875000000349,
      "v": 61
    },
    {
      "midi": 50,
      "hit": false,
      "t": 205454.3400000027,
      "d": 59.523749999993015,
      "v": 67
    },
    {
      "midi": 64,
      "hit": false,
      "t": 205457.04562500038,
      "d": 760.280625000014,
      "v": 82
    },
    {
      "midi": 47,
      "hit": false,
      "t": 205584.21000000174,
      "d": 81.16875000001164,
      "v": 78
    },
    {
      "midi": 28,
      "hit": false,
      "t": 205714.08000000176,
      "d": 183.9825000000128,
      "v": 91
    },
    {
      "midi": 52,
      "hit": false,
      "t": 205714.0800000027,
      "d": 56.81812499999069,
      "v": 67
    },
    {
      "midi": 52,
      "hit": false,
      "t": 205843.9500000027,
      "d": 54.11249999998836,
      "v": 67
    },
    {
      "midi": 54,
      "hit": false,
      "t": 205952.17500000063,
      "d": 75.75750000003609,
      "v": 68
    },
    {
      "midi": 55,
      "hit": false,
      "t": 205962.99750000064,
      "d": 140.69250000003376,
      "v": 92
    },
    {
      "midi": 28,
      "hit": false,
      "t": 205973.82000000178,
      "d": 105.51937500000349,
      "v": 56
    },
    {
      "midi": 55,
      "hit": false,
      "t": 205973.82000000268,
      "d": 54.11249999998836,
      "v": 67
    },
    {
      "midi": 52,
      "hit": false,
      "t": 205979.23125000065,
      "d": 129.87000000002445,
      "v": 60
    },
    {
      "midi": 52,
      "hit": false,
      "t": 206103.69000000268,
      "d": 64.93499999999767,
      "v": 67
    },
    {
      "midi": 28,
      "hit": false,
      "t": 206111.80687500178,
      "d": 54.11249999998836,
      "v": 87
    },
    {
      "midi": 31,
      "hit": false,
      "t": 206233.56000000177,
      "d": 175.86562500000582,
      "v": 86
    },
    {
      "midi": 55,
      "hit": false,
      "t": 206233.56000000268,
      "d": 54.11249999998836,
      "v": 67
    },
    {
      "midi": 55,
      "hit": false,
      "t": 206363.43000000267,
      "d": 43.29000000000815,
      "v": 67
    },
    {
      "midi": 31,
      "hit": false,
      "t": 206493.3000000018,
      "d": 35.173125000001164,
      "v": 70
    },
    {
      "midi": 57,
      "hit": false,
      "t": 206493.30000000267,
      "d": 43.29000000000815,
      "v": 67
    },
    {
      "midi": 55,
      "hit": false,
      "t": 206623.17000000266,
      "d": 54.11249999998836,
      "v": 67
    },
    {
      "midi": 31,
      "hit": false,
      "t": 206631.2868750018,
      "d": 54.11249999998836,
      "v": 90
    },
    {
      "midi": 64,
      "hit": false,
      "t": 206742.21750000067,
      "d": 492.4237500000163,
      "v": 82
    },
    {
      "midi": 45,
      "hit": false,
      "t": 206747.62875000067,
      "d": 508.65750000000116,
      "v": 64
    },
    {
      "midi": 55,
      "hit": false,
      "t": 206750.33437500068,
      "d": 530.3024999999907,
      "v": 91
    },
    {
      "midi": 35,
      "hit": false,
      "t": 206753.04000000178,
      "d": 175.86562500000582,
      "v": 86
    },
    {
      "midi": 59,
      "hit": false,
      "t": 206753.04000000266,
      "d": 51.40687499998603,
      "v": 67
    },
    {
      "midi": 57,
      "hit": false,
      "t": 206882.91000000265,
      "d": 43.29000000000815,
      "v": 67
    },
    {
      "midi": 52,
      "hit": false,
      "t": 207010.0743750004,
      "d": 313.85250000000815,
      "v": 82
    },
    {
      "midi": 55,
      "hit": false,
      "t": 207010.0743750004,
      "d": 330.0862500000221,
      "v": 82
    },
    {
      "midi": 35,
      "hit": false,
      "t": 207012.7800000018,
      "d": 35.173125000001164,
      "v": 70
    },
    {
      "midi": 62,
      "hit": false,
      "t": 207012.78000000265,
      "d": 43.29000000000815,
      "v": 67
    },
    {
      "midi": 67,
      "hit": false,
      "t": 207015.4856250004,
      "d": 240.8006250000035,
      "v": 73
    },
    {
      "midi": 59,
      "hit": false,
      "t": 207142.65000000264,
      "d": 64.93499999999767,
      "v": 67
    },
    {
      "midi": 35,
      "hit": false,
      "t": 207150.7668750018,
      "d": 54.11249999998836,
      "v": 90
    },
    {
      "midi": 66,
      "hit": false,
      "t": 207256.28625000067,
      "d": 505.95187499999884,
      "v": 73
    },
    {
      "midi": 40,
      "hit": false,
      "t": 207272.5200000018,
      "d": 129.86999999999534,
      "v": 73
    },
    {
      "midi": 64,
      "hit": false,
      "t": 207272.52000000264,
      "d": 51.40687499998603,
      "v": 67
    },
    {
      "midi": 47,
      "hit": false,
      "t": 207275.22562500066,
      "d": 516.7743750000081,
      "v": 73
    },
    {
      "midi": 57,
      "hit": false,
      "t": 207277.93125000066,
      "d": 535.7137499999953,
      "v": 82
    },
    {
      "midi": 57,
      "hit": false,
      "t": 207402.39000000042,
      "d": 305.73562500000116,
      "v": 73
    },
    {
      "midi": 62,
      "hit": false,
      "t": 207402.39000000263,
      "d": 43.29000000000815,
      "v": 67
    },
    {
      "midi": 69,
      "hit": false,
      "t": 207405.09562500042,
      "d": 224.56687499998952,
      "v": 82
    },
    {
      "midi": 54,
      "hit": false,
      "t": 207405.09562500042,
      "d": 292.2074999999895,
      "v": 82
    },
    {
      "midi": 40,
      "hit": false,
      "t": 207532.26000000178,
      "d": 37.87875000000349,
      "v": 61
    },
    {
      "midi": 67,
      "hit": false,
      "t": 207532.26000000263,
      "d": 43.29000000000815,
      "v": 67
    },
    {
      "midi": 40,
      "hit": false,
      "t": 207662.1300000018,
      "d": 81.16875000001164,
      "v": 78
    },
    {
      "midi": 64,
      "hit": false,
      "t": 207662.13000000262,
      "d": 64.93499999999767,
      "v": 67
    },
    {
      "midi": 59,
      "hit": false,
      "t": 207786.58875000066,
      "d": 535.7137499999953,
      "v": 64
    },
    {
      "midi": 59,
      "hit": false,
      "t": 207789.29437500043,
      "d": 432.8999999999942,
      "v": 82
    },
    {
      "midi": 48,
      "hit": false,
      "t": 207789.29437500067,
      "d": 579.0037499999744,
      "v": 64
    },
    {
      "midi": 59,
      "hit": false,
      "t": 207792.0000000001,
      "d": 963.202500000014,
      "v": 100
    },
    {
      "midi": 55,
      "hit": false,
      "t": 207792.00000000035,
      "d": 313.85250000000815,
      "v": 64
    },
    {
      "midi": 59,
      "hit": false,
      "t": 207792.00000000035,
      "d": 313.85250000000815,
      "v": 73
    },
    {
      "midi": 64,
      "hit": false,
      "t": 207792.00000000035,
      "d": 316.5581250000105,
      "v": 64
    },
    {
      "midi": 62,
      "hit": false,
      "t": 207792.00000000044,
      "d": 1033.5487500000163,
      "v": 73
    },
    {
      "midi": 64,
      "hit": false,
      "t": 207792.00000000067,
      "d": 554.6531249999825,
      "v": 73
    },
    {
      "midi": 36,
      "hit": false,
      "t": 207792.00000000183,
      "d": 183.9825000000128,
      "v": 91
    },
    {
      "midi": 60,
      "hit": false,
      "t": 207792.00000000262,
      "d": 75.75750000000698,
      "v": 67
    },
    {
      "midi": 71,
      "hit": false,
      "t": 207794.70562500044,
      "d": 335.4974999999977,
      "v": 82
    },
    {
      "midi": 55,
      "hit": false,
      "t": 207794.70562500044,
      "d": 457.25062499998603,
      "v": 82
    },
    {
      "midi": 67,
      "hit": false,
      "t": 207794.70562500067,
      "d": 522.1856249999837,
      "v": 76
    },
    {
      "midi": 59,
      "hit": false,
      "t": 207797.41125000044,
      "d": 2053.569374999992,
      "v": 64
    },
    {
      "midi": 67,
      "hit": false,
      "t": 207797.41125000044,
      "d": 2075.2143750000105,
      "v": 64
    },
    {
      "midi": 36,
      "hit": false,
      "t": 208051.74000000185,
      "d": 108.22500000000582,
      "v": 56
    },
    {
      "midi": 60,
      "hit": false,
      "t": 208051.74000000264,
      "d": 59.523749999993015,
      "v": 67
    },
    {
      "midi": 64,
      "hit": false,
      "t": 208181.61000000263,
      "d": 78.46312500000931,
      "v": 67
    },
    {
      "midi": 36,
      "hit": false,
      "t": 208189.72687500186,
      "d": 54.11249999998836,
      "v": 87
    },
    {
      "midi": 40,
      "hit": false,
      "t": 208311.48000000184,
      "d": 175.86562500000582,
      "v": 86
    },
    {
      "midi": 59,
      "hit": false,
      "t": 208441.35000000265,
      "d": 56.81812499999069,
      "v": 67
    },
    {
      "midi": 67,
      "hit": false,
      "t": 208568.51437500044,
      "d": 113.63625000001048,
      "v": 73
    },
    {
      "midi": 52,
      "hit": false,
      "t": 208568.51437500044,
      "d": 173.1600000000035,
      "v": 73
    },
    {
      "midi": 55,
      "hit": false,
      "t": 208568.51437500044,
      "d": 221.8612500000163,
      "v": 73
    },
    {
      "midi": 40,
      "hit": false,
      "t": 208571.22000000186,
      "d": 35.173125000001164,
      "v": 70
    },
    {
      "midi": 64,
      "hit": false,
      "t": 208571.22000000265,
      "d": 51.40687499998603,
      "v": 67
    },
    {
      "midi": 59,
      "hit": false,
      "t": 208701.09000000264,
      "d": 48.701250000012806,
      "v": 67
    },
    {
      "midi": 40,
      "hit": false,
      "t": 208709.20687500187,
      "d": 54.11249999998836,
      "v": 90
    },
    {
      "midi": 60,
      "hit": false,
      "t": 208809.31500000044,
      "d": 549.241875000007,
      "v": 73
    },
    {
      "midi": 60,
      "hit": false,
      "t": 208812.0206250001,
      "d": 1033.5487499999872,
      "v": 106
    },
    {
      "midi": 71,
      "hit": false,
      "t": 208828.25437500046,
      "d": 362.55374999999185,
      "v": 73
    },
    {
      "midi": 59,
      "hit": false,
      "t": 208828.25437500046,
      "d": 416.6662499999802,
      "v": 82
    },
    {
      "midi": 55,
      "hit": false,
      "t": 208828.25437500046,
      "d": 459.95624999998836,
      "v": 82
    },
    {
      "midi": 43,
      "hit": false,
      "t": 208830.96000000185,
      "d": 175.86562500000582,
      "v": 86
    },
    {
      "midi": 60,
      "hit": false,
      "t": 208830.96000000267,
      "d": 54.11249999998836,
      "v": 67
    },
    {
      "midi": 64,
      "hit": false,
      "t": 208960.83000000266,
      "d": 51.40687499998603,
      "v": 67
    },
    {
      "midi": 43,
      "hit": false,
      "t": 209090.70000000187,
      "d": 35.173125000001164,
      "v": 70
    },
    {
      "midi": 59,
      "hit": false,
      "t": 209090.70000000266,
      "d": 59.523749999993015,
      "v": 67
    },
    {
      "midi": 60,
      "hit": false,
      "t": 209220.57000000266,
      "d": 51.40687499998603,
      "v": 67
    },
    {
      "midi": 43,
      "hit": false,
      "t": 209228.68687500188,
      "d": 54.11249999998836,
      "v": 90
    },
    {
      "midi": 64,
      "hit": false,
      "t": 209334.20625000045,
      "d": 527.5968749999884,
      "v": 73
    },
    {
      "midi": 72,
      "hit": false,
      "t": 209347.73437500044,
      "d": 162.33749999999418,
      "v": 73
    },
    {
      "midi": 57,
      "hit": false,
      "t": 209347.73437500044,
      "d": 224.56687499998952,
      "v": 82
    },
    {
      "midi": 60,
      "hit": false,
      "t": 209347.73437500044,
      "d": 229.97812499999418,
      "v": 73
    },
    {
      "midi": 48,
      "hit": false,
      "t": 209350.44000000186,
      "d": 129.86999999999534,
      "v": 73
    },
    {
      "midi": 64,
      "hit": false,
      "t": 209350.44000000265,
      "d": 56.81812499999069,
      "v": 67
    },
    {
      "midi": 59,
      "hit": false,
      "t": 209480.31000000265,
      "d": 54.11249999998836,
      "v": 67
    },
    {
      "midi": 71,
      "hit": false,
      "t": 209607.47437500043,
      "d": 346.320000000007,
      "v": 82
    },
    {
      "midi": 59,
      "hit": false,
      "t": 209607.47437500043,
      "d": 392.31562500001746,
      "v": 73
    },
    {
      "midi": 55,
      "hit": false,
      "t": 209607.47437500043,
      "d": 457.25062500001513,
      "v": 82
    },
    {
      "midi": 48,
      "hit": false,
      "t": 209610.18000000186,
      "d": 37.87875000000349,
      "v": 58
    },
    {
      "midi": 60,
      "hit": false,
      "t": 209610.18000000264,
      "d": 59.523749999993015,
      "v": 67
    },
    {
      "midi": 48,
      "hit": false,
      "t": 209740.05000000185,
      "d": 81.16875000001164,
      "v": 87
    },
    {
      "midi": 64,
      "hit": false,
      "t": 209740.05000000264,
      "d": 64.93499999999767,
      "v": 67
    },
    {
      "midi": 59,
      "hit": false,
      "t": 209856.3918750001,
      "d": 511.3631250000035,
      "v": 107
    },
    {
      "midi": 60,
      "hit": false,
      "t": 209856.39187500044,
      "d": 535.7137500000244,
      "v": 82
    },
    {
      "midi": 45,
      "hit": false,
      "t": 209859.09750000064,
      "d": 589.8262500000128,
      "v": 48
    },
    {
      "midi": 59,
      "hit": false,
      "t": 209867.21437500065,
      "d": 541.125,
      "v": 64
    },
    {
      "midi": 60,
      "hit": false,
      "t": 209867.21437500065,
      "d": 546.5362500000047,
      "v": 64
    },
    {
      "midi": 64,
      "hit": false,
      "t": 209867.21437500065,
      "d": 546.5362500000047,
      "v": 64
    },
    {
      "midi": 67,
      "hit": false,
      "t": 209867.21437500065,
      "d": 551.9475000000093,
      "v": 80
    },
    {
      "midi": 33,
      "hit": false,
      "t": 209869.92000000188,
      "d": 183.9825000000128,
      "v": 91
    },
    {
      "midi": 60,
      "hit": false,
      "t": 209869.92000000263,
      "d": 75.75750000000698,
      "v": 67
    },
    {
      "midi": 52,
      "hit": false,
      "t": 210124.24875000044,
      "d": 551.9475000000093,
      "v": 73
    },
    {
      "midi": 67,
      "hit": false,
      "t": 210126.95437500044,
      "d": 441.01687500000116,
      "v": 73
    },
    {
      "midi": 55,
      "hit": false,
      "t": 210126.95437500044,
      "d": 633.116250000021,
      "v": 82
    },
    {
      "midi": 33,
      "hit": false,
      "t": 210129.6600000019,
      "d": 129.86999999999534,
      "v": 56
    },
    {
      "midi": 60,
      "hit": false,
      "t": 210129.66000000265,
      "d": 59.523749999993015,
      "v": 67
    },
    {
      "midi": 64,
      "hit": false,
      "t": 210259.53000000265,
      "d": 78.46312500000931,
      "v": 67
    },
    {
      "midi": 33,
      "hit": false,
      "t": 210267.6468750019,
      "d": 54.11249999998836,
      "v": 87
    },
    {
      "midi": 62,
      "hit": false,
      "t": 210351.52125000046,
      "d": 524.8912500000151,
      "v": 84
    },
    {
      "midi": 60,
      "hit": false,
      "t": 210367.7550000001,
      "d": 560.0643749999872,
      "v": 107
    },
    {
      "midi": 36,
      "hit": false,
      "t": 210389.4000000019,
      "d": 175.86562500000582,
      "v": 86
    },
    {
      "midi": 59,
      "hit": false,
      "t": 210519.27000000267,
      "d": 56.81812499999069,
      "v": 67
    },
    {
      "midi": 45,
      "hit": false,
      "t": 210641.02312500065,
      "d": 86.5800000000163,
      "v": 52
    },
    {
      "midi": 59,
      "hit": false,
      "t": 210641.02312500065,
      "d": 86.5800000000163,
      "v": 73
    },
    {
      "midi": 60,
      "hit": false,
      "t": 210643.72875000065,
      "d": 86.5800000000163,
      "v": 73
    },
    {
      "midi": 67,
      "hit": false,
      "t": 210643.72875000065,
      "d": 110.93062500000815,
      "v": 73
    },
    {
      "midi": 64,
      "hit": false,
      "t": 210646.43437500065,
      "d": 81.16875000001164,
      "v": 64
    },
    {
      "midi": 36,
      "hit": false,
      "t": 210649.1400000019,
      "d": 35.173125000001164,
      "v": 70
    },
    {
      "midi": 64,
      "hit": false,
      "t": 210649.14000000266,
      "d": 51.40687499998603,
      "v": 67
    },
    {
      "midi": 59,
      "hit": false,
      "t": 210779.01000000266,
      "d": 48.701250000012806,
      "v": 67
    },
    {
      "midi": 36,
      "hit": false,
      "t": 210787.1268750019,
      "d": 54.11249999998836,
      "v": 90
    },
    {
      "midi": 64,
      "hit": false,
      "t": 210881.82375000048,
      "d": 549.241875000007,
      "v": 81
    },
    {
      "midi": 64,
      "hit": false,
      "t": 210903.4687500001,
      "d": 508.65750000000116,
      "v": 107
    },
    {
      "midi": 40,
      "hit": false,
      "t": 210908.8800000019,
      "d": 175.86562500000582,
      "v": 86
    },
    {
      "midi": 60,
      "hit": false,
      "t": 210908.88000000268,
      "d": 54.11249999998836,
      "v": 67
    },
    {
      "midi": 64,
      "hit": false,
      "t": 211038.75000000268,
      "d": 51.40687499998603,
      "v": 67
    },
    {
      "midi": 45,
      "hit": false,
      "t": 211160.50312500066,
      "d": 86.5800000000163,
      "v": 52
    },
    {
      "midi": 59,
      "hit": false,
      "t": 211160.50312500066,
      "d": 86.5800000000163,
      "v": 73
    },
    {
      "midi": 60,
      "hit": false,
      "t": 211163.20875000066,
      "d": 86.5800000000163,
      "v": 73
    },
    {
      "midi": 67,
      "hit": false,
      "t": 211163.20875000066,
      "d": 110.93062500000815,
      "v": 73
    },
    {
      "midi": 64,
      "hit": false,
      "t": 211165.91437500066,
      "d": 81.16875000001164,
      "v": 64
    },
    {
      "midi": 40,
      "hit": false,
      "t": 211168.62000000192,
      "d": 35.173125000001164,
      "v": 70
    },
    {
      "midi": 59,
      "hit": false,
      "t": 211168.62000000267,
      "d": 59.523749999993015,
      "v": 67
    },
    {
      "midi": 60,
      "hit": false,
      "t": 211298.49000000267,
      "d": 51.40687499998603,
      "v": 67
    },
    {
      "midi": 40,
      "hit": false,
      "t": 211306.60687500192,
      "d": 54.11249999998836,
      "v": 90
    },
    {
      "midi": 59,
      "hit": false,
      "t": 211406.71500000046,
      "d": 500.5406250000233,
      "v": 78
    },
    {
      "midi": 59,
      "hit": false,
      "t": 211412.1262500001,
      "d": 516.7743750000081,
      "v": 107
    },
    {
      "midi": 71,
      "hit": false,
      "t": 211414.83187500047,
      "d": 505.95187500002794,
      "v": 73
    },
    {
      "midi": 45,
      "hit": false,
      "t": 211428.3600000019,
      "d": 129.86999999999534,
      "v": 73
    },
    {
      "midi": 64,
      "hit": false,
      "t": 211428.36000000266,
      "d": 56.81812499999069,
      "v": 67
    },
    {
      "midi": 59,
      "hit": false,
      "t": 211558.23000000266,
      "d": 54.11249999998836,
      "v": 67
    },
    {
      "midi": 45,
      "hit": false,
      "t": 211688.1000000019,
      "d": 37.87875000000349,
      "v": 61
    },
    {
      "midi": 60,
      "hit": false,
      "t": 211688.10000000265,
      "d": 59.523749999993015,
      "v": 67
    },
    {
      "midi": 45,
      "hit": false,
      "t": 211817.9700000019,
      "d": 81.16875000001164,
      "v": 78
    },
    {
      "midi": 64,
      "hit": false,
      "t": 211817.97000000265,
      "d": 64.93499999999767,
      "v": 67
    },
    {
      "midi": 57,
      "hit": false,
      "t": 211907.2556250005,
      "d": 2056.274999999994,
      "v": 78
    },
    {
      "midi": 57,
      "hit": false,
      "t": 211923.4893750001,
      "d": 2050.8637500000186,
      "v": 107
    },
    {
      "midi": 69,
      "hit": false,
      "t": 211926.1950000005,
      "d": 1569.2624999999825,
      "v": 64
    },
    {
      "midi": 63,
      "hit": false,
      "t": 211928.9006250005,
      "d": 503.2462499999965,
      "v": 78
    },
    {
      "midi": 60,
      "hit": false,
      "t": 211937.01750000066,
      "d": 321.96937499998603,
      "v": 73
    },
    {
      "midi": 47,
      "hit": false,
      "t": 211939.72312500066,
      "d": 262.445624999993,
      "v": 64
    },
    {
      "midi": 57,
      "hit": false,
      "t": 211942.42875000066,
      "d": 313.85249999997905,
      "v": 64
    },
    {
      "midi": 63,
      "hit": false,
      "t": 211942.42875000066,
      "d": 313.85249999997905,
      "v": 79
    },
    {
      "midi": 35,
      "hit": false,
      "t": 211947.84000000192,
      "d": 183.9825000000128,
      "v": 91
    },
    {
      "midi": 66,
      "hit": false,
      "t": 211947.84000000264,
      "d": 51.40687499998603,
      "v": 67
    },
    {
      "midi": 59,
      "hit": false,
      "t": 212077.71000000264,
      "d": 59.523749999993015,
      "v": 67
    },
    {
      "midi": 35,
      "hit": false,
      "t": 212207.58000000194,
      "d": 129.86999999999534,
      "v": 56
    },
    {
      "midi": 63,
      "hit": false,
      "t": 212207.58000000264,
      "d": 59.523749999993015,
      "v": 67
    },
    {
      "midi": 57,
      "hit": false,
      "t": 212321.21625000064,
      "d": 56.81812500001979,
      "v": 64
    },
    {
      "midi": 63,
      "hit": false,
      "t": 212321.21625000064,
      "d": 62.22937500002445,
      "v": 83
    },
    {
      "midi": 47,
      "hit": false,
      "t": 212323.92187500064,
      "d": 70.34625000003143,
      "v": 73
    },
    {
      "midi": 60,
      "hit": false,
      "t": 212329.33312500064,
      "d": 48.701250000012806,
      "v": 73
    },
    {
      "midi": 66,
      "hit": false,
      "t": 212337.45000000263,
      "d": 54.11249999998836,
      "v": 67
    },
    {
      "midi": 35,
      "hit": false,
      "t": 212345.56687500194,
      "d": 54.11249999998836,
      "v": 87
    },
    {
      "midi": 64,
      "hit": false,
      "t": 212421.3243750005,
      "d": 546.5362500000047,
      "v": 78
    },
    {
      "midi": 39,
      "hit": false,
      "t": 212467.32000000193,
      "d": 175.86562500000582,
      "v": 86
    },
    {
      "midi": 59,
      "hit": false,
      "t": 212467.32000000263,
      "d": 51.40687499998603,
      "v": 67
    },
    {
      "midi": 63,
      "hit": false,
      "t": 212597.19000000262,
      "d": 56.81812499999069,
      "v": 67
    },
    {
      "midi": 54,
      "hit": false,
      "t": 212724.35437500046,
      "d": 221.8612499999872,
      "v": 64
    },
    {
      "midi": 69,
      "hit": false,
      "t": 212724.35437500046,
      "d": 243.50624999997672,
      "v": 73
    },
    {
      "midi": 57,
      "hit": false,
      "t": 212724.35437500046,
      "d": 251.6231249999837,
      "v": 60
    },
    {
      "midi": 39,
      "hit": false,
      "t": 212727.06000000195,
      "d": 35.173125000001164,
      "v": 70
    },
    {
      "midi": 66,
      "hit": false,
      "t": 212727.06000000262,
      "d": 51.40687499998603,
      "v": 67
    },
    {
      "midi": 39,
      "hit": false,
      "t": 212865.04687500195,
      "d": 54.11249999998836,
      "v": 90
    },
    {
      "midi": 66,
      "hit": false,
      "t": 212959.7437500005,
      "d": 560.0643749999872,
      "v": 78
    },
    {
      "midi": 55,
      "hit": false,
      "t": 212984.09437500045,
      "d": 197.51062499999534,
      "v": 91
    },
    {
      "midi": 42,
      "hit": false,
      "t": 212986.80000000194,
      "d": 175.86562500000582,
      "v": 86
    },
    {
      "midi": 59,
      "hit": false,
      "t": 212986.8000000026,
      "d": 54.11249999998836,
      "v": 67
    },
    {
      "midi": 59,
      "hit": false,
      "t": 212989.50562500046,
      "d": 254.32874999998603,
      "v": 73
    },
    {
      "midi": 71,
      "hit": false,
      "t": 212989.50562500046,
      "d": 262.445624999993,
      "v": 73
    },
    {
      "midi": 54,
      "hit": false,
      "t": 213243.83437500044,
      "d": 227.27250000002095,
      "v": 60
    },
    {
      "midi": 42,
      "hit": false,
      "t": 213246.54000000196,
      "d": 35.173125000001164,
      "v": 70
    },
    {
      "midi": 59,
      "hit": false,
      "t": 213246.5400000026,
      "d": 59.523749999993015,
      "v": 67
    },
    {
      "midi": 69,
      "hit": false,
      "t": 213249.24562500045,
      "d": 216.45000000001164,
      "v": 64
    },
    {
      "midi": 57,
      "hit": false,
      "t": 213249.24562500045,
      "d": 229.97812500002328,
      "v": 73
    },
    {
      "midi": 66,
      "hit": false,
      "t": 213376.4100000026,
      "d": 51.40687499998603,
      "v": 67
    },
    {
      "midi": 42,
      "hit": false,
      "t": 213384.52687500196,
      "d": 54.11249999998836,
      "v": 90
    },
    {
      "midi": 71,
      "hit": false,
      "t": 213498.1631250005,
      "d": 554.6531249999825,
      "v": 78
    },
    {
      "midi": 52,
      "hit": false,
      "t": 213503.57437500046,
      "d": 200.21624999999767,
      "v": 91
    },
    {
      "midi": 67,
      "hit": false,
      "t": 213503.57437500046,
      "d": 205.62750000000233,
      "v": 73
    },
    {
      "midi": 47,
      "hit": false,
      "t": 213506.28000000195,
      "d": 129.86999999999534,
      "v": 73
    },
    {
      "midi": 55,
      "hit": false,
      "t": 213508.98562500047,
      "d": 205.62750000000233,
      "v": 82
    },
    {
      "midi": 52,
      "hit": false,
      "t": 213763.31437500048,
      "d": 478.89562500000466,
      "v": 82
    },
    {
      "midi": 47,
      "hit": false,
      "t": 213766.02000000194,
      "d": 37.87875000000349,
      "v": 61
    },
    {
      "midi": 59,
      "hit": false,
      "t": 213766.02000000258,
      "d": 59.523749999993015,
      "v": 67
    },
    {
      "midi": 67,
      "hit": false,
      "t": 213768.7256250005,
      "d": 470.7787499999977,
      "v": 73
    },
    {
      "midi": 55,
      "hit": false,
      "t": 213768.7256250005,
      "d": 476.1900000000023,
      "v": 73
    },
    {
      "midi": 47,
      "hit": false,
      "t": 213895.89000000193,
      "d": 81.16875000001164,
      "v": 78
    },
    {
      "midi": 64,
      "hit": false,
      "t": 213895.89000000258,
      "d": 51.40687499998603,
      "v": 67
    },
    {
      "midi": 52,
      "hit": false,
      "t": 214012.23187500067,
      "d": 313.85250000000815,
      "v": 73
    },
    {
      "midi": 64,
      "hit": false,
      "t": 214023.05437500068,
      "d": 297.6187499999942,
      "v": 77
    },
    {
      "midi": 55,
      "hit": false,
      "t": 214023.05437500068,
      "d": 305.73562500000116,
      "v": 64
    },
    {
      "midi": 59,
      "hit": false,
      "t": 214023.05437500068,
      "d": 305.73562500000116,
      "v": 73
    },
    {
      "midi": 28,
      "hit": false,
      "t": 214025.76000000196,
      "d": 146.1037500000093,
      "v": 91
    },
    {
      "midi": 64,
      "hit": false,
      "t": 214025.76000000257,
      "d": 56.81812499999069,
      "v": 67
    },
    {
      "midi": 69,
      "hit": false,
      "t": 214033.87687500048,
      "d": 514.0687499999767,
      "v": 73
    },
    {
      "midi": 59,
      "hit": false,
      "t": 214155.63000000257,
      "d": 54.11249999998836,
      "v": 67
    },
    {
      "midi": 55,
      "hit": false,
      "t": 214282.7943750005,
      "d": 359.8481250000186,
      "v": 91
    },
    {
      "midi": 28,
      "hit": false,
      "t": 214285.50000000198,
      "d": 73.05187500000466,
      "v": 56
    },
    {
      "midi": 60,
      "hit": false,
      "t": 214285.50000000256,
      "d": 59.523749999993015,
      "v": 67
    },
    {
      "midi": 71,
      "hit": false,
      "t": 214288.2056250005,
      "d": 392.31562500001746,
      "v": 82
    },
    {
      "midi": 59,
      "hit": false,
      "t": 214288.2056250005,
      "d": 430.19437500002095,
      "v": 82
    },
    {
      "midi": 52,
      "hit": false,
      "t": 214401.84187500068,
      "d": 86.5800000000163,
      "v": 56
    },
    {
      "midi": 59,
      "hit": false,
      "t": 214412.6643750007,
      "d": 67.640625,
      "v": 73
    },
    {
      "midi": 64,
      "hit": false,
      "t": 214412.6643750007,
      "d": 67.640625,
      "v": 81
    },
    {
      "midi": 55,
      "hit": false,
      "t": 214412.6643750007,
      "d": 75.75750000000698,
      "v": 73
    },
    {
      "midi": 64,
      "hit": false,
      "t": 214415.37000000256,
      "d": 64.93499999999767,
      "v": 67
    },
    {
      "midi": 28,
      "hit": false,
      "t": 214423.48687500198,
      "d": 54.11249999998836,
      "v": 87
    },
    {
      "midi": 67,
      "hit": false,
      "t": 214520.88937500046,
      "d": 522.1856249999837,
      "v": 73
    },
    {
      "midi": 31,
      "hit": false,
      "t": 214545.24000000197,
      "d": 129.86999999999534,
      "v": 73
    },
    {
      "midi": 59,
      "hit": false,
      "t": 214545.24000000255,
      "d": 54.11249999998836,
      "v": 67
    },
    {
      "midi": 59,
      "hit": false,
      "t": 214675.11000000255,
      "d": 43.29000000000815,
      "v": 67
    },
    {
      "midi": 31,
      "hit": false,
      "t": 214804.98000000196,
      "d": 62.22937499999534,
      "v": 56
    },
    {
      "midi": 64,
      "hit": false,
      "t": 214804.98000000254,
      "d": 64.93499999999767,
      "v": 67
    },
    {
      "midi": 31,
      "hit": false,
      "t": 214942.96687500196,
      "d": 54.11249999998836,
      "v": 87
    },
    {
      "midi": 66,
      "hit": false,
      "t": 215043.07500000045,
      "d": 541.125,
      "v": 73
    },
    {
      "midi": 35,
      "hit": false,
      "t": 215064.72000000195,
      "d": 175.86562500000582,
      "v": 86
    },
    {
      "midi": 59,
      "hit": false,
      "t": 215064.72000000253,
      "d": 64.93499999999767,
      "v": 67
    },
    {
      "midi": 64,
      "hit": false,
      "t": 215194.59000000253,
      "d": 54.11249999998836,
      "v": 67
    },
    {
      "midi": 45,
      "hit": false,
      "t": 215313.6375000007,
      "d": 357.1425000000163,
      "v": 73
    },
    {
      "midi": 55,
      "hit": false,
      "t": 215321.75437500072,
      "d": 303.02999999999884,
      "v": 73
    },
    {
      "midi": 64,
      "hit": false,
      "t": 215321.75437500072,
      "d": 319.2637500000128,
      "v": 82
    },
    {
      "midi": 35,
      "hit": false,
      "t": 215324.46000000197,
      "d": 35.173125000001164,
      "v": 70
    },
    {
      "midi": 55,
      "hit": false,
      "t": 215324.46000000252,
      "d": 43.29000000000815,
      "v": 67
    },
    {
      "midi": 67,
      "hit": false,
      "t": 215327.16562500052,
      "d": 200.21624999999767,
      "v": 73
    },
    {
      "midi": 52,
      "hit": false,
      "t": 215327.16562500052,
      "d": 202.921875,
      "v": 82
    },
    {
      "midi": 55,
      "hit": false,
      "t": 215327.16562500052,
      "d": 216.45000000001164,
      "v": 73
    },
    {
      "midi": 55,
      "hit": false,
      "t": 215454.33000000252,
      "d": 64.93499999999767,
      "v": 67
    },
    {
      "midi": 35,
      "hit": false,
      "t": 215462.44687500197,
      "d": 54.11249999998836,
      "v": 90
    },
    {
      "midi": 64,
      "hit": false,
      "t": 215570.67187500044,
      "d": 530.3025000000198,
      "v": 73
    },
    {
      "midi": 40,
      "hit": false,
      "t": 215584.20000000196,
      "d": 129.86999999999534,
      "v": 73
    },
    {
      "midi": 69,
      "hit": false,
      "t": 215711.36437500053,
      "d": 208.33312500000466,
      "v": 73
    },
    {
      "midi": 54,
      "hit": false,
      "t": 215714.07000000053,
      "d": 200.21624999999767,
      "v": 64
    },
    {
      "midi": 57,
      "hit": false,
      "t": 215716.77562500053,
      "d": 200.21624999999767,
      "v": 73
    },
    {
      "midi": 47,
      "hit": false,
      "t": 215716.77562500074,
      "d": 354.43687500001397,
      "v": 73
    },
    {
      "midi": 57,
      "hit": false,
      "t": 215722.18687500074,
      "d": 327.3806249999907,
      "v": 64
    },
    {
      "midi": 66,
      "hit": false,
      "t": 215722.18687500074,
      "d": 338.203125,
      "v": 91
    },
    {
      "midi": 40,
      "hit": false,
      "t": 215843.94000000195,
      "d": 37.87875000000349,
      "v": 61
    },
    {
      "midi": 59,
      "hit": false,
      "t": 215843.9400000025,
      "d": 43.29000000000815,
      "v": 67
    },
    {
      "midi": 40,
      "hit": false,
      "t": 215973.81000000195,
      "d": 81.16875000001164,
      "v": 78
    },
    {
      "midi": 64,
      "hit": false,
      "t": 215973.8100000025,
      "d": 64.93499999999767,
      "v": 67
    },
    {
      "midi": 62,
      "hit": false,
      "t": 216098.26875000045,
      "d": 3685.061249999999,
      "v": 73
    },
    {
      "midi": 48,
      "hit": false,
      "t": 216098.26875000075,
      "d": 367.9649999999965,
      "v": 64
    },
    {
      "midi": 55,
      "hit": false,
      "t": 216100.97437500054,
      "d": 335.4974999999977,
      "v": 100
    },
    {
      "midi": 64,
      "hit": false,
      "t": 216100.97437500075,
      "d": 327.3806249999907,
      "v": 73
    },
    {
      "midi": 59,
      "hit": false,
      "t": 216100.97437500075,
      "d": 335.4974999999977,
      "v": 60
    },
    {
      "midi": 62,
      "hit": false,
      "t": 216100.97437500075,
      "d": 335.4974999999977,
      "v": 82
    },
    {
      "midi": 67,
      "hit": false,
      "t": 216100.97437500075,
      "d": 343.61437500000466,
      "v": 85
    },
    {
      "midi": 76,
      "hit": false,
      "t": 216103.68000000025,
      "d": 45.99562500001048,
      "v": 127
    },
    {
      "midi": 36,
      "hit": false,
      "t": 216103.68000000197,
      "d": 183.9825000000128,
      "v": 91
    },
    {
      "midi": 60,
      "hit": false,
      "t": 216103.6800000025,
      "d": 75.75750000000698,
      "v": 67
    },
    {
      "midi": 71,
      "hit": false,
      "t": 216106.38562500055,
      "d": 338.203125,
      "v": 82
    },
    {
      "midi": 59,
      "hit": false,
      "t": 216106.38562500055,
      "d": 346.320000000007,
      "v": 82
    },
    {
      "midi": 76,
      "hit": false,
      "t": 216360.71437500027,
      "d": 70.34625000000233,
      "v": 127
    },
    {
      "midi": 36,
      "hit": false,
      "t": 216363.420000002,
      "d": 108.22500000000582,
      "v": 56
    },
    {
      "midi": 64,
      "hit": false,
      "t": 216363.42000000252,
      "d": 59.523749999993015,
      "v": 67
    },
    {
      "midi": 67,
      "hit": false,
      "t": 216487.87875000073,
      "d": 83.87437499998487,
      "v": 60
    },
    {
      "midi": 74,
      "hit": false,
      "t": 216490.58437500027,
      "d": 48.701250000012806,
      "v": 127
    },
    {
      "midi": 55,
      "hit": false,
      "t": 216490.58437500056,
      "d": 108.22500000000582,
      "v": 91
    },
    {
      "midi": 64,
      "hit": false,
      "t": 216490.58437500073,
      "d": 54.11249999998836,
      "v": 73
    },
    {
      "midi": 59,
      "hit": false,
      "t": 216493.29000000074,
      "d": 75.75749999997788,
      "v": 73
    },
    {
      "midi": 62,
      "hit": false,
      "t": 216493.29000000074,
      "d": 75.75749999997788,
      "v": 64
    },
    {
      "midi": 48,
      "hit": false,
      "t": 216493.29000000074,
      "d": 81.16874999998254,
      "v": 64
    },
    {
      "midi": 62,
      "hit": false,
      "t": 216493.2900000025,
      "d": 78.46312500000931,
      "v": 67
    },
    {
      "midi": 71,
      "hit": false,
      "t": 216495.99562500056,
      "d": 89.28562499998952,
      "v": 82
    },
    {
      "midi": 59,
      "hit": false,
      "t": 216495.99562500056,
      "d": 108.22500000000582,
      "v": 82
    },
    {
      "midi": 36,
      "hit": false,
      "t": 216501.406875002,
      "d": 54.11249999998836,
      "v": 87
    },
    {
      "midi": 40,
      "hit": false,
      "t": 216623.16000000198,
      "d": 175.86562500000582,
      "v": 86
    },
    {
      "midi": 67,
      "hit": false,
      "t": 216753.03000000253,
      "d": 56.81812499999069,
      "v": 67
    },
    {
      "midi": 74,
      "hit": false,
      "t": 216755.7356250003,
      "d": 73.05187500000466,
      "v": 127
    },
    {
      "midi": 71,
      "hit": false,
      "t": 216882.90000000029,
      "d": 56.81812499999069,
      "v": 127
    },
    {
      "midi": 40,
      "hit": false,
      "t": 216882.900000002,
      "d": 35.173125000001164,
      "v": 70
    },
    {
      "midi": 64,
      "hit": false,
      "t": 216882.90000000253,
      "d": 51.40687499998603,
      "v": 67
    },
    {
      "midi": 59,
      "hit": false,
      "t": 217012.77000000252,
      "d": 48.701250000012806,
      "v": 67
    },
    {
      "midi": 40,
      "hit": false,
      "t": 217020.886875002,
      "d": 54.11249999998836,
      "v": 90
    },
    {
      "midi": 69,
      "hit": false,
      "t": 217142.64000000028,
      "d": 48.701250000012806,
      "v": 127
    },
    {
      "midi": 43,
      "hit": false,
      "t": 217142.640000002,
      "d": 175.86562500000582,
      "v": 86
    },
    {
      "midi": 69,
      "hit": false,
      "t": 217142.64000000255,
      "d": 54.11249999998836,
      "v": 67
    },
    {
      "midi": 64,
      "hit": false,
      "t": 217272.51000000254,
      "d": 51.40687499998603,
      "v": 67
    },
    {
      "midi": 71,
      "hit": false,
      "t": 217396.9687500003,
      "d": 62.22937499999534,
      "v": 127
    },
    {
      "midi": 43,
      "hit": false,
      "t": 217402.380000002,
      "d": 35.173125000001164,
      "v": 70
    },
    {
      "midi": 59,
      "hit": false,
      "t": 217402.38000000254,
      "d": 59.523749999993015,
      "v": 67
    },
    {
      "midi": 67,
      "hit": false,
      "t": 217405.08562500056,
      "d": 116.3418750000128,
      "v": 73
    },
    {
      "midi": 52,
      "hit": false,
      "t": 217405.08562500056,
      "d": 178.57125000000815,
      "v": 82
    },
    {
      "midi": 55,
      "hit": false,
      "t": 217405.08562500056,
      "d": 183.9825000000128,
      "v": 73
    },
    {
      "midi": 60,
      "hit": false,
      "t": 217532.25000000253,
      "d": 51.40687499998603,
      "v": 67
    },
    {
      "midi": 43,
      "hit": false,
      "t": 217540.36687500202,
      "d": 54.11249999998836,
      "v": 90
    },
    {
      "midi": 67,
      "hit": false,
      "t": 217656.70875000028,
      "d": 62.22937499999534,
      "v": 127
    },
    {
      "midi": 48,
      "hit": false,
      "t": 217662.120000002,
      "d": 129.86999999999534,
      "v": 73
    },
    {
      "midi": 55,
      "hit": false,
      "t": 217662.12000000253,
      "d": 56.81812499999069,
      "v": 67
    },
    {
      "midi": 59,
      "hit": false,
      "t": 217791.99000000252,
      "d": 54.11249999998836,
      "v": 67
    },
    {
      "midi": 54,
      "hit": false,
      "t": 217794.69562500058,
      "d": 154.2206249999872,
      "v": 82
    },
    {
      "midi": 57,
      "hit": false,
      "t": 217794.69562500058,
      "d": 156.92624999998952,
      "v": 73
    },
    {
      "midi": 69,
      "hit": false,
      "t": 217794.69562500058,
      "d": 156.92624999998952,
      "v": 82
    },
    {
      "midi": 48,
      "hit": false,
      "t": 217921.860000002,
      "d": 37.87875000000349,
      "v": 58
    },
    {
      "midi": 60,
      "hit": false,
      "t": 217921.86000000252,
      "d": 59.523749999993015,
      "v": 67
    },
    {
      "midi": 48,
      "hit": false,
      "t": 218051.730000002,
      "d": 81.16875000001164,
      "v": 87
    },
    {
      "midi": 64,
      "hit": false,
      "t": 218051.7300000025,
      "d": 64.93499999999767,
      "v": 67
    },
    {
      "midi": 55,
      "hit": false,
      "t": 218173.48312500073,
      "d": 351.73124999998254,
      "v": 73
    },
    {
      "midi": 59,
      "hit": false,
      "t": 218173.48312500073,
      "d": 351.73124999998254,
      "v": 73
    },
    {
      "midi": 45,
      "hit": false,
      "t": 218176.18875000073,
      "d": 292.2074999999895,
      "v": 68
    },
    {
      "midi": 60,
      "hit": false,
      "t": 218176.18875000073,
      "d": 346.3199999999779,
      "v": 56
    },
    {
      "midi": 55,
      "hit": false,
      "t": 218178.89437500056,
      "d": 359.8481249999895,
      "v": 100
    },
    {
      "midi": 64,
      "hit": false,
      "t": 218178.89437500073,
      "d": 346.3199999999779,
      "v": 82
    },
    {
      "midi": 76,
      "hit": false,
      "t": 218181.60000000027,
      "d": 43.29000000000815,
      "v": 127
    },
    {
      "midi": 33,
      "hit": false,
      "t": 218181.600000002,
      "d": 183.9825000000128,
      "v": 91
    },
    {
      "midi": 59,
      "hit": false,
      "t": 218181.6000000025,
      "d": 75.75750000000698,
      "v": 67
    },
    {
      "midi": 59,
      "hit": false,
      "t": 218184.30562500056,
      "d": 327.3806249999907,
      "v": 82
    },
    {
      "midi": 71,
      "hit": false,
      "t": 218184.30562500056,
      "d": 367.9649999999965,
      "v": 82
    },
    {
      "midi": 76,
      "hit": false,
      "t": 218425.10625000027,
      "d": 67.640625,
      "v": 127
    },
    {
      "midi": 33,
      "hit": false,
      "t": 218441.34000000203,
      "d": 129.86999999999534,
      "v": 56
    },
    {
      "midi": 64,
      "hit": false,
      "t": 218441.34000000253,
      "d": 59.523749999993015,
      "v": 67
    },
    {
      "midi": 74,
      "hit": false,
      "t": 218554.97625000027,
      "d": 45.99562500001048,
      "v": 127
    },
    {
      "midi": 60,
      "hit": false,
      "t": 218557.6818750007,
      "d": 83.87437500001397,
      "v": 64
    },
    {
      "midi": 45,
      "hit": false,
      "t": 218563.0931250007,
      "d": 67.640625,
      "v": 60
    },
    {
      "midi": 64,
      "hit": false,
      "t": 218568.50437500072,
      "d": 54.11249999998836,
      "v": 82
    },
    {
      "midi": 59,
      "hit": false,
      "t": 218568.50437500072,
      "d": 56.81812499999069,
      "v": 82
    },
    {
      "midi": 55,
      "hit": false,
      "t": 218568.50437500072,
      "d": 62.22937499999534,
      "v": 73
    },
    {
      "midi": 62,
      "hit": false,
      "t": 218571.21000000252,
      "d": 78.46312500000931,
      "v": 67
    },
    {
      "midi": 59,
      "hit": false,
      "t": 218573.91562500055,
      "d": 86.5799999999872,
      "v": 82
    },
    {
      "midi": 71,
      "hit": false,
      "t": 218573.91562500055,
      "d": 89.28562499998952,
      "v": 91
    },
    {
      "midi": 55,
      "hit": false,
      "t": 218573.91562500055,
      "d": 108.22499999997672,
      "v": 91
    },
    {
      "midi": 33,
      "hit": false,
      "t": 218579.32687500204,
      "d": 54.11249999998836,
      "v": 87
    },
    {
      "midi": 36,
      "hit": false,
      "t": 218701.08000000202,
      "d": 175.86562500000582,
      "v": 86
    },
    {
      "midi": 74,
      "hit": false,
      "t": 218820.1275000003,
      "d": 73.05187500000466,
      "v": 127
    },
    {
      "midi": 67,
      "hit": false,
      "t": 218830.95000000254,
      "d": 56.81812499999069,
      "v": 67
    },
    {
      "midi": 71,
      "hit": false,
      "t": 218952.7031250003,
      "d": 51.40687499998603,
      "v": 127
    },
    {
      "midi": 36,
      "hit": false,
      "t": 218960.82000000204,
      "d": 35.173125000001164,
      "v": 70
    },
    {
      "midi": 64,
      "hit": false,
      "t": 218960.82000000254,
      "d": 51.40687499998603,
      "v": 67
    },
    {
      "midi": 59,
      "hit": false,
      "t": 219090.69000000253,
      "d": 48.701250000012806,
      "v": 67
    },
    {
      "midi": 36,
      "hit": false,
      "t": 219098.80687500205,
      "d": 54.11249999998836,
      "v": 90
    },
    {
      "midi": 40,
      "hit": false,
      "t": 219220.56000000203,
      "d": 175.86562500000582,
      "v": 86
    },
    {
      "midi": 69,
      "hit": false,
      "t": 219220.56000000256,
      "d": 54.11249999998836,
      "v": 67
    },
    {
      "midi": 69,
      "hit": false,
      "t": 219223.2656250003,
      "d": 54.11249999998836,
      "v": 127
    },
    {
      "midi": 71,
      "hit": false,
      "t": 219347.72437500028,
      "d": 62.22937499999534,
      "v": 127
    },
    {
      "midi": 64,
      "hit": false,
      "t": 219350.43000000255,
      "d": 51.40687499998603,
      "v": 67
    },
    {
      "midi": 40,
      "hit": false,
      "t": 219480.30000000205,
      "d": 35.173125000001164,
      "v": 70
    },
    {
      "midi": 59,
      "hit": false,
      "t": 219480.30000000255,
      "d": 59.523749999993015,
      "v": 67
    },
    {
      "midi": 67,
      "hit": false,
      "t": 219483.00562500028,
      "d": 37.87875000000349,
      "v": 127
    },
    {
      "midi": 60,
      "hit": false,
      "t": 219610.17000000254,
      "d": 51.40687499998603,
      "v": 67
    },
    {
      "midi": 40,
      "hit": false,
      "t": 219618.28687500206,
      "d": 54.11249999998836,
      "v": 90
    },
    {
      "midi": 64,
      "hit": false,
      "t": 219737.3343750003,
      "d": 67.640625,
      "v": 127
    },
    {
      "midi": 45,
      "hit": false,
      "t": 219740.04000000205,
      "d": 129.86999999999534,
      "v": 73
    },
    {
      "midi": 55,
      "hit": false,
      "t": 219740.04000000254,
      "d": 56.81812499999069,
      "v": 67
    },
    {
      "midi": 59,
      "hit": false,
      "t": 219869.91000000254,
      "d": 54.11249999998836,
      "v": 67
    },
    {
      "midi": 45,
      "hit": false,
      "t": 219999.78000000204,
      "d": 37.87875000000349,
      "v": 61
    },
    {
      "midi": 60,
      "hit": false,
      "t": 219999.78000000253,
      "d": 59.523749999993015,
      "v": 67
    },
    {
      "midi": 45,
      "hit": false,
      "t": 220129.65000000203,
      "d": 81.16875000001164,
      "v": 78
    },
    {
      "midi": 64,
      "hit": false,
      "t": 220129.65000000253,
      "d": 64.93499999999767,
      "v": 67
    },
    {
      "midi": 47,
      "hit": false,
      "t": 220254.1087500007,
      "d": 332.79187500002445,
      "v": 67
    },
    {
      "midi": 57,
      "hit": false,
      "t": 220256.81437500071,
      "d": 313.85250000000815,
      "v": 82
    },
    {
      "midi": 63,
      "hit": false,
      "t": 220256.81437500071,
      "d": 332.79187500002445,
      "v": 60
    },
    {
      "midi": 67,
      "hit": false,
      "t": 220256.81437500071,
      "d": 332.79187500002445,
      "v": 81
    },
    {
      "midi": 47,
      "hit": false,
      "t": 220259.5200000003,
      "d": 259.7400000000198,
      "v": 127
    },
    {
      "midi": 57,
      "hit": false,
      "t": 220259.5200000003,
      "d": 259.7400000000198,
      "v": 127
    },
    {
      "midi": 35,
      "hit": false,
      "t": 220259.52000000206,
      "d": 183.9825000000128,
      "v": 91
    },
    {
      "midi": 66,
      "hit": false,
      "t": 220259.52000000252,
      "d": 51.40687499998603,
      "v": 67
    },
    {
      "midi": 63,
      "hit": false,
      "t": 220262.2256250003,
      "d": 270.5625000000291,
      "v": 127
    },
    {
      "midi": 71,
      "hit": false,
      "t": 220264.9312500003,
      "d": 246.21187500000815,
      "v": 127
    },
    {
      "midi": 62,
      "hit": false,
      "t": 220264.9312500003,
      "d": 257.03437500001746,
      "v": 127
    },
    {
      "midi": 67,
      "hit": false,
      "t": 220264.9312500003,
      "d": 259.7400000000198,
      "v": 127
    },
    {
      "midi": 59,
      "hit": false,
      "t": 220389.39000000252,
      "d": 59.523749999993015,
      "v": 67
    },
    {
      "midi": 35,
      "hit": false,
      "t": 220519.26000000208,
      "d": 129.86999999999534,
      "v": 56
    },
    {
      "midi": 63,
      "hit": false,
      "t": 220519.2600000025,
      "d": 59.523749999993015,
      "v": 67
    },
    {
      "midi": 47,
      "hit": false,
      "t": 220641.01312500035,
      "d": 54.11250000001746,
      "v": 127
    },
    {
      "midi": 57,
      "hit": false,
      "t": 220641.01312500035,
      "d": 54.11250000001746,
      "v": 127
    },
    {
      "midi": 63,
      "hit": false,
      "t": 220643.71875000035,
      "d": 56.81812500001979,
      "v": 127
    },
    {
      "midi": 62,
      "hit": false,
      "t": 220643.71875000035,
      "d": 59.52375000002212,
      "v": 127
    },
    {
      "midi": 67,
      "hit": false,
      "t": 220646.42437500035,
      "d": 54.11250000001746,
      "v": 127
    },
    {
      "midi": 47,
      "hit": false,
      "t": 220646.42437500073,
      "d": 83.87437500001397,
      "v": 73
    },
    {
      "midi": 67,
      "hit": false,
      "t": 220646.42437500073,
      "d": 83.87437500001397,
      "v": 64
    },
    {
      "midi": 57,
      "hit": false,
      "t": 220646.42437500073,
      "d": 102.81375000003027,
      "v": 73
    },
    {
      "midi": 71,
      "hit": false,
      "t": 220649.13000000035,
      "d": 59.52375000002212,
      "v": 127
    },
    {
      "midi": 63,
      "hit": false,
      "t": 220649.13000000073,
      "d": 91.99125000002095,
      "v": 60
    },
    {
      "midi": 35,
      "hit": false,
      "t": 220657.24687500208,
      "d": 54.11249999998836,
      "v": 87
    },
    {
      "midi": 39,
      "hit": false,
      "t": 220779.00000000207,
      "d": 175.86562500000582,
      "v": 86
    },
    {
      "midi": 59,
      "hit": false,
      "t": 220779.0000000025,
      "d": 51.40687499998603,
      "v": 67
    },
    {
      "midi": 63,
      "hit": false,
      "t": 220908.8700000025,
      "d": 56.81812499999069,
      "v": 67
    },
    {
      "midi": 47,
      "hit": false,
      "t": 221036.03437500077,
      "d": 83.87437500001397,
      "v": 73
    },
    {
      "midi": 67,
      "hit": false,
      "t": 221036.03437500077,
      "d": 83.87437500001397,
      "v": 64
    },
    {
      "midi": 57,
      "hit": false,
      "t": 221036.03437500077,
      "d": 102.81375000003027,
      "v": 73
    },
    {
      "midi": 63,
      "hit": false,
      "t": 221038.74000000078,
      "d": 91.99125000002095,
      "v": 60
    },
    {
      "midi": 39,
      "hit": false,
      "t": 221038.7400000021,
      "d": 35.173125000001164,
      "v": 70
    },
    {
      "midi": 59,
      "hit": false,
      "t": 221038.7400000025,
      "d": 51.40687499998603,
      "v": 67
    },
    {
      "midi": 63,
      "hit": false,
      "t": 221168.6100000025,
      "d": 37.87875000000349,
      "v": 67
    },
    {
      "midi": 39,
      "hit": false,
      "t": 221176.7268750021,
      "d": 54.11249999998836,
      "v": 90
    },
    {
      "midi": 67,
      "hit": false,
      "t": 221295.77437500053,
      "d": 219.15562500001397,
      "v": 73
    },
    {
      "midi": 55,
      "hit": false,
      "t": 221295.77437500053,
      "d": 224.56687500001863,
      "v": 91
    },
    {
      "midi": 42,
      "hit": false,
      "t": 221298.48000000208,
      "d": 175.86562500000582,
      "v": 86
    },
    {
      "midi": 59,
      "hit": false,
      "t": 221298.48000000248,
      "d": 54.11249999998836,
      "v": 67
    },
    {
      "midi": 59,
      "hit": false,
      "t": 221428.35000000248,
      "d": 59.523749999993015,
      "v": 67
    },
    {
      "midi": 64,
      "hit": false,
      "t": 221555.51437500055,
      "d": 219.15562500001397,
      "v": 73
    },
    {
      "midi": 52,
      "hit": false,
      "t": 221555.51437500055,
      "d": 224.56687500001863,
      "v": 82
    },
    {
      "midi": 42,
      "hit": false,
      "t": 221558.2200000021,
      "d": 35.173125000001164,
      "v": 70
    },
    {
      "midi": 55,
      "hit": false,
      "t": 221558.22000000247,
      "d": 51.40687499998603,
      "v": 67
    },
    {
      "midi": 57,
      "hit": false,
      "t": 221688.09000000247,
      "d": 51.40687499998603,
      "v": 67
    },
    {
      "midi": 42,
      "hit": false,
      "t": 221696.2068750021,
      "d": 54.11249999998836,
      "v": 90
    },
    {
      "midi": 50,
      "hit": false,
      "t": 221815.25437500057,
      "d": 202.921875,
      "v": 82
    },
    {
      "midi": 62,
      "hit": false,
      "t": 221815.25437500057,
      "d": 232.6837499999965,
      "v": 73
    },
    {
      "midi": 47,
      "hit": false,
      "t": 221817.9600000021,
      "d": 129.86999999999534,
      "v": 73
    },
    {
      "midi": 59,
      "hit": false,
      "t": 221817.96000000247,
      "d": 59.523749999993015,
      "v": 67
    },
    {
      "midi": 55,
      "hit": false,
      "t": 221947.83000000246,
      "d": 59.523749999993015,
      "v": 67
    },
    {
      "midi": 52,
      "hit": false,
      "t": 222074.99437500056,
      "d": 771.1031250000233,
      "v": 91
    },
    {
      "midi": 47,
      "hit": false,
      "t": 222077.70000000208,
      "d": 37.87875000000349,
      "v": 61
    },
    {
      "midi": 50,
      "hit": false,
      "t": 222077.70000000246,
      "d": 59.523749999993015,
      "v": 67
    },
    {
      "midi": 64,
      "hit": false,
      "t": 222080.40562500057,
      "d": 760.280625000014,
      "v": 82
    },
    {
      "midi": 47,
      "hit": false,
      "t": 222207.57000000207,
      "d": 81.16875000001164,
      "v": 78
    },
    {
      "midi": 28,
      "hit": false,
      "t": 222337.4400000021,
      "d": 183.9825000000128,
      "v": 91
    },
    {
      "midi": 52,
      "hit": false,
      "t": 222337.44000000245,
      "d": 56.81812499999069,
      "v": 67
    },
    {
      "midi": 52,
      "hit": false,
      "t": 222467.31000000244,
      "d": 54.11249999998836,
      "v": 67
    },
    {
      "midi": 54,
      "hit": false,
      "t": 222575.53500000082,
      "d": 75.75750000003609,
      "v": 68
    },
    {
      "midi": 55,
      "hit": false,
      "t": 222586.35750000083,
      "d": 140.69250000003376,
      "v": 92
    },
    {
      "midi": 28,
      "hit": false,
      "t": 222597.18000000212,
      "d": 105.51937500000349,
      "v": 56
    },
    {
      "midi": 55,
      "hit": false,
      "t": 222597.18000000244,
      "d": 54.11249999998836,
      "v": 67
    },
    {
      "midi": 52,
      "hit": false,
      "t": 222602.59125000084,
      "d": 129.87000000002445,
      "v": 60
    },
    {
      "midi": 52,
      "hit": false,
      "t": 222727.05000000243,
      "d": 64.93499999999767,
      "v": 67
    },
    {
      "midi": 28,
      "hit": false,
      "t": 222735.16687500212,
      "d": 54.11249999998836,
      "v": 87
    },
    {
      "midi": 31,
      "hit": false,
      "t": 222856.9200000021,
      "d": 175.86562500000582,
      "v": 86
    },
    {
      "midi": 55,
      "hit": false,
      "t": 222856.92000000243,
      "d": 54.11249999998836,
      "v": 67
    },
    {
      "midi": 55,
      "hit": false,
      "t": 222986.79000000242,
      "d": 43.29000000000815,
      "v": 67
    },
    {
      "midi": 54,
      "hit": false,
      "t": 222989.49562500085,
      "d": 62.22937499999534,
      "v": 66
    },
    {
      "midi": 55,
      "hit": false,
      "t": 223008.43500000084,
      "d": 140.69250000000466,
      "v": 92
    },
    {
      "midi": 52,
      "hit": false,
      "t": 223016.55187500085,
      "d": 129.86999999999534,
      "v": 56
    },
    {
      "midi": 31,
      "hit": false,
      "t": 223116.66000000213,
      "d": 35.173125000001164,
      "v": 70
    },
    {
      "midi": 57,
      "hit": false,
      "t": 223116.66000000242,
      "d": 43.29000000000815,
      "v": 67
    },
    {
      "midi": 55,
      "hit": false,
      "t": 223246.5300000024,
      "d": 54.11249999998836,
      "v": 67
    },
    {
      "midi": 31,
      "hit": false,
      "t": 223254.64687500213,
      "d": 54.11249999998836,
      "v": 90
    },
    {
      "midi": 35,
      "hit": false,
      "t": 223376.40000000212,
      "d": 175.86562500000582,
      "v": 86
    },
    {
      "midi": 59,
      "hit": false,
      "t": 223376.4000000024,
      "d": 51.40687499998603,
      "v": 67
    },
    {
      "midi": 57,
      "hit": false,
      "t": 223506.2700000024,
      "d": 43.29000000000815,
      "v": 67
    },
    {
      "midi": 59,
      "hit": false,
      "t": 223628.02312500044,
      "d": 419.37187499998254,
      "v": 73
    },
    {
      "midi": 52,
      "hit": false,
      "t": 223633.4343750006,
      "d": 313.85250000000815,
      "v": 82
    },
    {
      "midi": 55,
      "hit": false,
      "t": 223633.4343750006,
      "d": 330.0862500000221,
      "v": 82
    },
    {
      "midi": 45,
      "hit": false,
      "t": 223636.14000000086,
      "d": 332.79187499999534,
      "v": 73
    },
    {
      "midi": 64,
      "hit": false,
      "t": 223636.14000000086,
      "d": 340.9087500000023,
      "v": 76
    },
    {
      "midi": 35,
      "hit": false,
      "t": 223636.14000000214,
      "d": 35.173125000001164,
      "v": 70
    },
    {
      "midi": 62,
      "hit": false,
      "t": 223636.1400000024,
      "d": 43.29000000000815,
      "v": 67
    },
    {
      "midi": 67,
      "hit": false,
      "t": 223638.8456250006,
      "d": 240.8006250000035,
      "v": 73
    },
    {
      "midi": 55,
      "hit": false,
      "t": 223638.84562500086,
      "d": 370.67062499999884,
      "v": 73
    },
    {
      "midi": 59,
      "hit": false,
      "t": 223766.0100000024,
      "d": 64.93499999999767,
      "v": 67
    },
    {
      "midi": 35,
      "hit": false,
      "t": 223774.12687500214,
      "d": 54.11249999998836,
      "v": 90
    },
    {
      "midi": 40,
      "hit": false,
      "t": 223895.88000000213,
      "d": 129.86999999999534,
      "v": 73
    },
    {
      "midi": 64,
      "hit": false,
      "t": 223895.8800000024,
      "d": 51.40687499998603,
      "v": 67
    },
    {
      "midi": 57,
      "hit": false,
      "t": 224017.63312500043,
      "d": 403.1381249999977,
      "v": 76
    },
    {
      "midi": 57,
      "hit": false,
      "t": 224025.7500000006,
      "d": 305.73562500000116,
      "v": 73
    },
    {
      "midi": 66,
      "hit": false,
      "t": 224025.75000000087,
      "d": 349.0256250000093,
      "v": 76
    },
    {
      "midi": 57,
      "hit": false,
      "t": 224025.75000000087,
      "d": 384.1987500000105,
      "v": 73
    },
    {
      "midi": 62,
      "hit": false,
      "t": 224025.7500000024,
      "d": 43.29000000000815,
      "v": 67
    },
    {
      "midi": 69,
      "hit": false,
      "t": 224028.4556250006,
      "d": 224.56687499998952,
      "v": 82
    },
    {
      "midi": 54,
      "hit": false,
      "t": 224028.4556250006,
      "d": 292.2074999999895,
      "v": 82
    },
    {
      "midi": 47,
      "hit": false,
      "t": 224028.45562500088,
      "d": 370.67062499999884,
      "v": 73
    },
    {
      "midi": 40,
      "hit": false,
      "t": 224155.62000000212,
      "d": 37.87875000000349,
      "v": 61
    },
    {
      "midi": 67,
      "hit": false,
      "t": 224155.62000000238,
      "d": 43.29000000000815,
      "v": 67
    },
    {
      "midi": 40,
      "hit": false,
      "t": 224285.49000000214,
      "d": 81.16875000001164,
      "v": 78
    },
    {
      "midi": 64,
      "hit": false,
      "t": 224285.49000000238,
      "d": 64.93499999999767,
      "v": 67
    },
    {
      "midi": 59,
      "hit": false,
      "t": 224404.5375000004,
      "d": 2053.569374999992,
      "v": 64
    },
    {
      "midi": 67,
      "hit": false,
      "t": 224407.24312500042,
      "d": 2075.2143749999814,
      "v": 64
    },
    {
      "midi": 59,
      "hit": false,
      "t": 224409.94875000088,
      "d": 535.7137500000244,
      "v": 64
    },
    {
      "midi": 59,
      "hit": false,
      "t": 224412.65437500062,
      "d": 432.8999999999942,
      "v": 82
    },
    {
      "midi": 48,
      "hit": false,
      "t": 224412.6543750009,
      "d": 579.0037500000035,
      "v": 64
    },
    {
      "midi": 59,
      "hit": false,
      "t": 224415.3600000001,
      "d": 963.202500000014,
      "v": 100
    },
    {
      "midi": 55,
      "hit": false,
      "t": 224415.36000000036,
      "d": 313.85250000000815,
      "v": 64
    },
    {
      "midi": 59,
      "hit": false,
      "t": 224415.36000000036,
      "d": 313.85250000000815,
      "v": 73
    },
    {
      "midi": 64,
      "hit": false,
      "t": 224415.36000000036,
      "d": 316.5581250000105,
      "v": 64
    },
    {
      "midi": 64,
      "hit": false,
      "t": 224415.3600000009,
      "d": 554.6531250000116,
      "v": 73
    },
    {
      "midi": 36,
      "hit": false,
      "t": 224415.36000000217,
      "d": 183.9825000000128,
      "v": 91
    },
    {
      "midi": 60,
      "hit": false,
      "t": 224415.36000000237,
      "d": 75.75750000000698,
      "v": 67
    },
    {
      "midi": 62,
      "hit": false,
      "t": 224418.06562500042,
      "d": 1033.5487499999872,
      "v": 73
    },
    {
      "midi": 71,
      "hit": false,
      "t": 224418.06562500063,
      "d": 335.4974999999977,
      "v": 82
    },
    {
      "midi": 55,
      "hit": false,
      "t": 224418.06562500063,
      "d": 457.25062499998603,
      "v": 82
    },
    {
      "midi": 67,
      "hit": false,
      "t": 224418.0656250009,
      "d": 522.1856250000128,
      "v": 76
    },
    {
      "midi": 36,
      "hit": false,
      "t": 224675.1000000022,
      "d": 108.22500000000582,
      "v": 56
    },
    {
      "midi": 60,
      "hit": false,
      "t": 224675.1000000024,
      "d": 59.523749999993015,
      "v": 67
    },
    {
      "midi": 64,
      "hit": false,
      "t": 224804.9700000024,
      "d": 78.46312500000931,
      "v": 67
    },
    {
      "midi": 36,
      "hit": false,
      "t": 224813.0868750022,
      "d": 54.11249999998836,
      "v": 87
    },
    {
      "midi": 40,
      "hit": false,
      "t": 224934.84000000218,
      "d": 175.86562500000582,
      "v": 86
    },
    {
      "midi": 59,
      "hit": false,
      "t": 225064.7100000024,
      "d": 56.81812499999069,
      "v": 67
    },
    {
      "midi": 67,
      "hit": false,
      "t": 225191.87437500063,
      "d": 113.63625000001048,
      "v": 73
    },
    {
      "midi": 52,
      "hit": false,
      "t": 225191.87437500063,
      "d": 173.1600000000035,
      "v": 73
    },
    {
      "midi": 55,
      "hit": false,
      "t": 225191.87437500063,
      "d": 221.8612500000163,
      "v": 73
    },
    {
      "midi": 40,
      "hit": false,
      "t": 225194.5800000022,
      "d": 35.173125000001164,
      "v": 70
    },
    {
      "midi": 64,
      "hit": false,
      "t": 225194.5800000024,
      "d": 51.40687499998603,
      "v": 67
    },
    {
      "midi": 59,
      "hit": false,
      "t": 225324.4500000024,
      "d": 48.701250000012806,
      "v": 67
    },
    {
      "midi": 40,
      "hit": false,
      "t": 225332.5668750022,
      "d": 54.11249999998836,
      "v": 90
    },
    {
      "midi": 60,
      "hit": false,
      "t": 225432.67500000042,
      "d": 549.2418749999779,
      "v": 73
    },
    {
      "midi": 60,
      "hit": false,
      "t": 225435.3806250001,
      "d": 1033.5487499999872,
      "v": 106
    },
    {
      "midi": 71,
      "hit": false,
      "t": 225451.61437500064,
      "d": 362.55374999999185,
      "v": 73
    },
    {
      "midi": 59,
      "hit": false,
      "t": 225451.61437500064,
      "d": 416.6662499999802,
      "v": 82
    },
    {
      "midi": 55,
      "hit": false,
      "t": 225451.61437500064,
      "d": 459.95624999998836,
      "v": 82
    },
    {
      "midi": 43,
      "hit": false,
      "t": 225454.3200000022,
      "d": 175.86562500000582,
      "v": 86
    },
    {
      "midi": 60,
      "hit": false,
      "t": 225454.32000000242,
      "d": 54.11249999998836,
      "v": 67
    },
    {
      "midi": 64,
      "hit": false,
      "t": 225584.19000000242,
      "d": 51.40687499998603,
      "v": 67
    },
    {
      "midi": 43,
      "hit": false,
      "t": 225714.0600000022,
      "d": 35.173125000001164,
      "v": 70
    },
    {
      "midi": 59,
      "hit": false,
      "t": 225714.0600000024,
      "d": 59.523749999993015,
      "v": 67
    },
    {
      "midi": 60,
      "hit": false,
      "t": 225843.9300000024,
      "d": 51.40687499998603,
      "v": 67
    },
    {
      "midi": 43,
      "hit": false,
      "t": 225852.0468750022,
      "d": 54.11249999998836,
      "v": 90
    },
    {
      "midi": 64,
      "hit": false,
      "t": 225957.5662500004,
      "d": 527.5968749999884,
      "v": 73
    },
    {
      "midi": 72,
      "hit": false,
      "t": 225971.09437500063,
      "d": 162.33749999999418,
      "v": 73
    },
    {
      "midi": 57,
      "hit": false,
      "t": 225971.09437500063,
      "d": 224.56687499998952,
      "v": 82
    },
    {
      "midi": 60,
      "hit": false,
      "t": 225971.09437500063,
      "d": 229.97812499999418,
      "v": 73
    },
    {
      "midi": 48,
      "hit": false,
      "t": 225973.8000000022,
      "d": 129.86999999999534,
      "v": 73
    },
    {
      "midi": 64,
      "hit": false,
      "t": 225973.8000000024,
      "d": 56.81812499999069,
      "v": 67
    },
    {
      "midi": 59,
      "hit": false,
      "t": 226103.6700000024,
      "d": 54.11249999998836,
      "v": 67
    },
    {
      "midi": 71,
      "hit": false,
      "t": 226230.83437500062,
      "d": 346.320000000007,
      "v": 82
    },
    {
      "midi": 59,
      "hit": false,
      "t": 226230.83437500062,
      "d": 392.31562500001746,
      "v": 73
    },
    {
      "midi": 55,
      "hit": false,
      "t": 226230.83437500062,
      "d": 457.25062500001513,
      "v": 82
    },
    {
      "midi": 48,
      "hit": false,
      "t": 226233.5400000022,
      "d": 37.87875000000349,
      "v": 58
    },
    {
      "midi": 60,
      "hit": false,
      "t": 226233.5400000024,
      "d": 59.523749999993015,
      "v": 67
    },
    {
      "midi": 48,
      "hit": false,
      "t": 226363.4100000022,
      "d": 81.16875000001164,
      "v": 87
    },
    {
      "midi": 64,
      "hit": false,
      "t": 226363.4100000024,
      "d": 64.93499999999767,
      "v": 67
    },
    {
      "midi": 59,
      "hit": false,
      "t": 226479.7518750001,
      "d": 511.3631250000035,
      "v": 107
    },
    {
      "midi": 60,
      "hit": false,
      "t": 226479.7518750004,
      "d": 535.7137500000244,
      "v": 82
    },
    {
      "midi": 45,
      "hit": false,
      "t": 226482.4575000009,
      "d": 589.8262500000128,
      "v": 48
    },
    {
      "midi": 59,
      "hit": false,
      "t": 226490.5743750009,
      "d": 541.125,
      "v": 64
    },
    {
      "midi": 60,
      "hit": false,
      "t": 226490.5743750009,
      "d": 546.5362500000047,
      "v": 64
    },
    {
      "midi": 64,
      "hit": false,
      "t": 226490.5743750009,
      "d": 546.5362500000047,
      "v": 64
    },
    {
      "midi": 67,
      "hit": false,
      "t": 226490.5743750009,
      "d": 551.9475000000093,
      "v": 80
    },
    {
      "midi": 33,
      "hit": false,
      "t": 226493.2800000022,
      "d": 183.9825000000128,
      "v": 91
    },
    {
      "midi": 60,
      "hit": false,
      "t": 226493.28000000239,
      "d": 75.75750000000698,
      "v": 67
    },
    {
      "midi": 52,
      "hit": false,
      "t": 226747.60875000063,
      "d": 551.9475000000093,
      "v": 73
    },
    {
      "midi": 67,
      "hit": false,
      "t": 226750.31437500063,
      "d": 441.01687500000116,
      "v": 73
    },
    {
      "midi": 55,
      "hit": false,
      "t": 226750.31437500063,
      "d": 633.116250000021,
      "v": 82
    },
    {
      "midi": 33,
      "hit": false,
      "t": 226753.02000000223,
      "d": 129.86999999999534,
      "v": 56
    },
    {
      "midi": 60,
      "hit": false,
      "t": 226753.0200000024,
      "d": 59.523749999993015,
      "v": 67
    },
    {
      "midi": 64,
      "hit": false,
      "t": 226882.8900000024,
      "d": 78.46312500000931,
      "v": 67
    },
    {
      "midi": 33,
      "hit": false,
      "t": 226891.00687500223,
      "d": 54.11249999998836,
      "v": 87
    },
    {
      "midi": 62,
      "hit": false,
      "t": 226974.8812500004,
      "d": 524.8912500000151,
      "v": 84
    },
    {
      "midi": 60,
      "hit": false,
      "t": 226991.1150000001,
      "d": 560.0643749999872,
      "v": 107
    },
    {
      "midi": 36,
      "hit": false,
      "t": 227012.76000000222,
      "d": 175.86562500000582,
      "v": 86
    },
    {
      "midi": 59,
      "hit": false,
      "t": 227142.63000000242,
      "d": 56.81812499999069,
      "v": 67
    },
    {
      "midi": 45,
      "hit": false,
      "t": 227264.3831250009,
      "d": 86.5800000000163,
      "v": 52
    },
    {
      "midi": 59,
      "hit": false,
      "t": 227264.3831250009,
      "d": 86.5800000000163,
      "v": 73
    },
    {
      "midi": 60,
      "hit": false,
      "t": 227267.0887500009,
      "d": 86.5800000000163,
      "v": 73
    },
    {
      "midi": 67,
      "hit": false,
      "t": 227267.0887500009,
      "d": 110.93062500000815,
      "v": 73
    },
    {
      "midi": 64,
      "hit": false,
      "t": 227269.7943750009,
      "d": 81.16875000001164,
      "v": 64
    },
    {
      "midi": 36,
      "hit": false,
      "t": 227272.50000000224,
      "d": 35.173125000001164,
      "v": 70
    },
    {
      "midi": 64,
      "hit": false,
      "t": 227272.50000000242,
      "d": 51.40687499998603,
      "v": 67
    },
    {
      "midi": 59,
      "hit": false,
      "t": 227402.3700000024,
      "d": 48.701250000012806,
      "v": 67
    },
    {
      "midi": 36,
      "hit": false,
      "t": 227410.48687500224,
      "d": 54.11249999998836,
      "v": 90
    },
    {
      "midi": 64,
      "hit": false,
      "t": 227505.18375000043,
      "d": 549.241875000007,
      "v": 81
    },
    {
      "midi": 64,
      "hit": false,
      "t": 227526.8287500001,
      "d": 508.65750000000116,
      "v": 107
    },
    {
      "midi": 40,
      "hit": false,
      "t": 227532.24000000223,
      "d": 175.86562500000582,
      "v": 86
    },
    {
      "midi": 60,
      "hit": false,
      "t": 227532.24000000244,
      "d": 54.11249999998836,
      "v": 67
    },
    {
      "midi": 64,
      "hit": false,
      "t": 227662.11000000243,
      "d": 51.40687499998603,
      "v": 67
    },
    {
      "midi": 45,
      "hit": false,
      "t": 227783.8631250009,
      "d": 86.5800000000163,
      "v": 52
    },
    {
      "midi": 59,
      "hit": false,
      "t": 227783.8631250009,
      "d": 86.5800000000163,
      "v": 73
    },
    {
      "midi": 60,
      "hit": false,
      "t": 227786.5687500009,
      "d": 86.5800000000163,
      "v": 73
    },
    {
      "midi": 67,
      "hit": false,
      "t": 227786.5687500009,
      "d": 110.93062500000815,
      "v": 73
    },
    {
      "midi": 64,
      "hit": false,
      "t": 227789.2743750009,
      "d": 81.16875000001164,
      "v": 64
    },
    {
      "midi": 40,
      "hit": false,
      "t": 227791.98000000225,
      "d": 35.173125000001164,
      "v": 70
    },
    {
      "midi": 59,
      "hit": false,
      "t": 227791.98000000243,
      "d": 59.523749999993015,
      "v": 67
    },
    {
      "midi": 60,
      "hit": false,
      "t": 227921.85000000242,
      "d": 51.40687499998603,
      "v": 67
    },
    {
      "midi": 40,
      "hit": false,
      "t": 227929.96687500225,
      "d": 54.11249999998836,
      "v": 90
    },
    {
      "midi": 59,
      "hit": false,
      "t": 228030.07500000042,
      "d": 500.5406250000233,
      "v": 78
    },
    {
      "midi": 59,
      "hit": false,
      "t": 228035.4862500001,
      "d": 516.7743750000081,
      "v": 107
    },
    {
      "midi": 71,
      "hit": false,
      "t": 228038.19187500043,
      "d": 505.95187500002794,
      "v": 73
    },
    {
      "midi": 45,
      "hit": false,
      "t": 228051.72000000224,
      "d": 129.86999999999534,
      "v": 73
    },
    {
      "midi": 64,
      "hit": false,
      "t": 228051.72000000242,
      "d": 56.81812499999069,
      "v": 67
    },
    {
      "midi": 59,
      "hit": false,
      "t": 228181.5900000024,
      "d": 54.11249999998836,
      "v": 67
    },
    {
      "midi": 45,
      "hit": false,
      "t": 228311.46000000223,
      "d": 37.87875000000349,
      "v": 61
    },
    {
      "midi": 60,
      "hit": false,
      "t": 228311.4600000024,
      "d": 59.523749999993015,
      "v": 67
    },
    {
      "midi": 45,
      "hit": false,
      "t": 228441.33000000223,
      "d": 81.16875000001164,
      "v": 78
    },
    {
      "midi": 64,
      "hit": false,
      "t": 228441.3300000024,
      "d": 64.93499999999767,
      "v": 67
    },
    {
      "midi": 57,
      "hit": false,
      "t": 228530.61562500044,
      "d": 2056.274999999994,
      "v": 78
    },
    {
      "midi": 57,
      "hit": false,
      "t": 228546.8493750001,
      "d": 2050.8637500000186,
      "v": 107
    },
    {
      "midi": 69,
      "hit": false,
      "t": 228549.55500000046,
      "d": 1569.2624999999825,
      "v": 64
    },
    {
      "midi": 63,
      "hit": false,
      "t": 228552.26062500046,
      "d": 503.2462499999965,
      "v": 78
    },
    {
      "midi": 60,
      "hit": false,
      "t": 228560.3775000009,
      "d": 321.96937499998603,
      "v": 73
    },
    {
      "midi": 47,
      "hit": false,
      "t": 228563.0831250009,
      "d": 262.445624999993,
      "v": 64
    },
    {
      "midi": 57,
      "hit": false,
      "t": 228565.7887500009,
      "d": 313.85249999997905,
      "v": 64
    },
    {
      "midi": 63,
      "hit": false,
      "t": 228565.7887500009,
      "d": 313.85249999997905,
      "v": 79
    },
    {
      "midi": 35,
      "hit": false,
      "t": 228571.20000000225,
      "d": 183.9825000000128,
      "v": 91
    },
    {
      "midi": 66,
      "hit": false,
      "t": 228571.2000000024,
      "d": 51.40687499998603,
      "v": 67
    },
    {
      "midi": 59,
      "hit": false,
      "t": 228701.0700000024,
      "d": 59.523749999993015,
      "v": 67
    },
    {
      "midi": 35,
      "hit": false,
      "t": 228830.94000000227,
      "d": 129.86999999999534,
      "v": 56
    },
    {
      "midi": 63,
      "hit": false,
      "t": 228830.9400000024,
      "d": 59.523749999993015,
      "v": 67
    },
    {
      "midi": 57,
      "hit": false,
      "t": 228944.5762500009,
      "d": 56.81812500001979,
      "v": 64
    },
    {
      "midi": 63,
      "hit": false,
      "t": 228944.5762500009,
      "d": 62.22937500002445,
      "v": 83
    },
    {
      "midi": 47,
      "hit": false,
      "t": 228947.2818750009,
      "d": 70.34625000003143,
      "v": 73
    },
    {
      "midi": 60,
      "hit": false,
      "t": 228952.6931250009,
      "d": 48.701250000012806,
      "v": 73
    },
    {
      "midi": 66,
      "hit": false,
      "t": 228960.81000000238,
      "d": 54.11249999998836,
      "v": 67
    },
    {
      "midi": 35,
      "hit": false,
      "t": 228968.92687500227,
      "d": 54.11249999998836,
      "v": 87
    },
    {
      "midi": 64,
      "hit": false,
      "t": 229044.68437500045,
      "d": 546.5362500000047,
      "v": 78
    },
    {
      "midi": 39,
      "hit": false,
      "t": 229090.68000000226,
      "d": 175.86562500000582,
      "v": 86
    },
    {
      "midi": 59,
      "hit": false,
      "t": 229090.68000000238,
      "d": 51.40687499998603,
      "v": 67
    },
    {
      "midi": 63,
      "hit": false,
      "t": 229220.55000000237,
      "d": 56.81812499999069,
      "v": 67
    },
    {
      "midi": 54,
      "hit": false,
      "t": 229347.71437500065,
      "d": 221.8612499999872,
      "v": 64
    },
    {
      "midi": 69,
      "hit": false,
      "t": 229347.71437500065,
      "d": 243.50624999997672,
      "v": 73
    },
    {
      "midi": 57,
      "hit": false,
      "t": 229347.71437500065,
      "d": 251.6231249999837,
      "v": 60
    },
    {
      "midi": 39,
      "hit": false,
      "t": 229350.42000000228,
      "d": 35.173125000001164,
      "v": 70
    },
    {
      "midi": 66,
      "hit": false,
      "t": 229350.42000000237,
      "d": 51.40687499998603,
      "v": 67
    },
    {
      "midi": 39,
      "hit": false,
      "t": 229488.40687500229,
      "d": 54.11249999998836,
      "v": 90
    },
    {
      "midi": 66,
      "hit": false,
      "t": 229583.10375000045,
      "d": 560.0643749999872,
      "v": 78
    },
    {
      "midi": 55,
      "hit": false,
      "t": 229607.45437500064,
      "d": 197.51062499999534,
      "v": 91
    },
    {
      "midi": 42,
      "hit": false,
      "t": 229610.16000000227,
      "d": 175.86562500000582,
      "v": 86
    },
    {
      "midi": 59,
      "hit": false,
      "t": 229610.16000000236,
      "d": 54.11249999998836,
      "v": 67
    },
    {
      "midi": 59,
      "hit": false,
      "t": 229612.86562500065,
      "d": 254.32874999998603,
      "v": 73
    },
    {
      "midi": 71,
      "hit": false,
      "t": 229612.86562500065,
      "d": 262.445624999993,
      "v": 73
    },
    {
      "midi": 54,
      "hit": false,
      "t": 229867.19437500063,
      "d": 227.27250000002095,
      "v": 60
    },
    {
      "midi": 42,
      "hit": false,
      "t": 229869.9000000023,
      "d": 35.173125000001164,
      "v": 70
    },
    {
      "midi": 59,
      "hit": false,
      "t": 229869.90000000235,
      "d": 59.523749999993015,
      "v": 67
    },
    {
      "midi": 69,
      "hit": false,
      "t": 229872.60562500064,
      "d": 216.45000000001164,
      "v": 64
    },
    {
      "midi": 57,
      "hit": false,
      "t": 229872.60562500064,
      "d": 229.97812500002328,
      "v": 73
    },
    {
      "midi": 66,
      "hit": false,
      "t": 229999.77000000235,
      "d": 51.40687499998603,
      "v": 67
    },
    {
      "midi": 42,
      "hit": false,
      "t": 230007.8868750023,
      "d": 54.11249999998836,
      "v": 90
    },
    {
      "midi": 71,
      "hit": false,
      "t": 230121.52312500044,
      "d": 554.6531249999825,
      "v": 78
    },
    {
      "midi": 52,
      "hit": false,
      "t": 230126.93437500065,
      "d": 200.21624999999767,
      "v": 91
    },
    {
      "midi": 67,
      "hit": false,
      "t": 230126.93437500065,
      "d": 205.62750000000233,
      "v": 73
    },
    {
      "midi": 47,
      "hit": false,
      "t": 230129.64000000228,
      "d": 129.86999999999534,
      "v": 73
    },
    {
      "midi": 55,
      "hit": false,
      "t": 230132.34562500066,
      "d": 205.62750000000233,
      "v": 82
    },
    {
      "midi": 52,
      "hit": false,
      "t": 230386.67437500067,
      "d": 478.89562500000466,
      "v": 82
    },
    {
      "midi": 47,
      "hit": false,
      "t": 230389.38000000227,
      "d": 37.87875000000349,
      "v": 61
    },
    {
      "midi": 59,
      "hit": false,
      "t": 230389.38000000233,
      "d": 59.523749999993015,
      "v": 67
    },
    {
      "midi": 67,
      "hit": false,
      "t": 230392.08562500068,
      "d": 470.7787499999977,
      "v": 73
    },
    {
      "midi": 55,
      "hit": false,
      "t": 230392.08562500068,
      "d": 476.1900000000023,
      "v": 73
    },
    {
      "midi": 47,
      "hit": false,
      "t": 230519.25000000227,
      "d": 81.16875000001164,
      "v": 78
    },
    {
      "midi": 64,
      "hit": false,
      "t": 230519.25000000233,
      "d": 51.40687499998603,
      "v": 67
    },
    {
      "midi": 52,
      "hit": false,
      "t": 230635.59187500092,
      "d": 313.85250000000815,
      "v": 73
    },
    {
      "midi": 64,
      "hit": false,
      "t": 230646.41437500092,
      "d": 297.6187499999942,
      "v": 77
    },
    {
      "midi": 55,
      "hit": false,
      "t": 230646.41437500092,
      "d": 305.73562500000116,
      "v": 64
    },
    {
      "midi": 59,
      "hit": false,
      "t": 230646.41437500092,
      "d": 305.73562500000116,
      "v": 73
    },
    {
      "midi": 28,
      "hit": false,
      "t": 230649.1200000023,
      "d": 146.1037500000093,
      "v": 91
    },
    {
      "midi": 64,
      "hit": false,
      "t": 230649.12000000232,
      "d": 56.81812499999069,
      "v": 67
    },
    {
      "midi": 69,
      "hit": false,
      "t": 230657.23687500044,
      "d": 514.0687499999767,
      "v": 73
    },
    {
      "midi": 59,
      "hit": false,
      "t": 230778.99000000232,
      "d": 54.11249999998836,
      "v": 67
    },
    {
      "midi": 55,
      "hit": false,
      "t": 230906.15437500068,
      "d": 359.8481250000186,
      "v": 91
    },
    {
      "midi": 60,
      "hit": false,
      "t": 230908.8600000023,
      "d": 59.523749999993015,
      "v": 67
    },
    {
      "midi": 28,
      "hit": false,
      "t": 230908.8600000023,
      "d": 73.05187500000466,
      "v": 56
    },
    {
      "midi": 71,
      "hit": false,
      "t": 230911.5656250007,
      "d": 392.31562500001746,
      "v": 82
    },
    {
      "midi": 59,
      "hit": false,
      "t": 230911.5656250007,
      "d": 430.19437500002095,
      "v": 82
    },
    {
      "midi": 52,
      "hit": false,
      "t": 231025.20187500093,
      "d": 86.5800000000163,
      "v": 56
    },
    {
      "midi": 59,
      "hit": false,
      "t": 231036.02437500094,
      "d": 67.640625,
      "v": 73
    },
    {
      "midi": 64,
      "hit": false,
      "t": 231036.02437500094,
      "d": 67.640625,
      "v": 81
    },
    {
      "midi": 55,
      "hit": false,
      "t": 231036.02437500094,
      "d": 75.75750000000698,
      "v": 73
    },
    {
      "midi": 64,
      "hit": false,
      "t": 231038.7300000023,
      "d": 64.93499999999767,
      "v": 67
    },
    {
      "midi": 28,
      "hit": false,
      "t": 231046.84687500232,
      "d": 54.11249999998836,
      "v": 87
    },
    {
      "midi": 67,
      "hit": false,
      "t": 231144.24937500042,
      "d": 522.1856249999837,
      "v": 73
    },
    {
      "midi": 59,
      "hit": false,
      "t": 231168.6000000023,
      "d": 54.11249999998836,
      "v": 67
    },
    {
      "midi": 31,
      "hit": false,
      "t": 231168.6000000023,
      "d": 129.86999999999534,
      "v": 73
    },
    {
      "midi": 59,
      "hit": false,
      "t": 231298.4700000023,
      "d": 43.29000000000815,
      "v": 67
    },
    {
      "midi": 64,
      "hit": false,
      "t": 231428.3400000023,
      "d": 64.93499999999767,
      "v": 67
    },
    {
      "midi": 31,
      "hit": false,
      "t": 231428.3400000023,
      "d": 62.22937499999534,
      "v": 56
    },
    {
      "midi": 31,
      "hit": false,
      "t": 231566.3268750023,
      "d": 54.11249999998836,
      "v": 87
    },
    {
      "midi": 66,
      "hit": false,
      "t": 231666.4350000004,
      "d": 541.125,
      "v": 73
    },
    {
      "midi": 59,
      "hit": false,
      "t": 231688.0800000023,
      "d": 64.93499999999767,
      "v": 67
    },
    {
      "midi": 35,
      "hit": false,
      "t": 231688.0800000023,
      "d": 175.86562500000582,
      "v": 86
    },
    {
      "midi": 64,
      "hit": false,
      "t": 231817.95000000228,
      "d": 54.11249999998836,
      "v": 67
    },
    {
      "midi": 45,
      "hit": false,
      "t": 231936.99750000096,
      "d": 357.1425000000163,
      "v": 73
    },
    {
      "midi": 55,
      "hit": false,
      "t": 231945.11437500097,
      "d": 303.02999999999884,
      "v": 73
    },
    {
      "midi": 64,
      "hit": false,
      "t": 231945.11437500097,
      "d": 319.2637500000128,
      "v": 82
    },
    {
      "midi": 55,
      "hit": false,
      "t": 231947.82000000228,
      "d": 43.29000000000815,
      "v": 67
    },
    {
      "midi": 35,
      "hit": false,
      "t": 231947.8200000023,
      "d": 35.173125000001164,
      "v": 70
    },
    {
      "midi": 67,
      "hit": false,
      "t": 231950.5256250007,
      "d": 200.21624999999767,
      "v": 73
    },
    {
      "midi": 52,
      "hit": false,
      "t": 231950.5256250007,
      "d": 202.921875,
      "v": 82
    },
    {
      "midi": 55,
      "hit": false,
      "t": 231950.5256250007,
      "d": 216.45000000001164,
      "v": 73
    },
    {
      "midi": 55,
      "hit": false,
      "t": 232077.69000000227,
      "d": 64.93499999999767,
      "v": 67
    },
    {
      "midi": 35,
      "hit": false,
      "t": 232085.8068750023,
      "d": 54.11249999998836,
      "v": 90
    },
    {
      "midi": 64,
      "hit": false,
      "t": 232194.0318750004,
      "d": 530.3025000000198,
      "v": 73
    },
    {
      "midi": 40,
      "hit": false,
      "t": 232207.5600000023,
      "d": 129.86999999999534,
      "v": 73
    },
    {
      "midi": 69,
      "hit": false,
      "t": 232334.72437500072,
      "d": 208.33312500000466,
      "v": 73
    },
    {
      "midi": 54,
      "hit": false,
      "t": 232337.43000000072,
      "d": 200.21624999999767,
      "v": 64
    },
    {
      "midi": 57,
      "hit": false,
      "t": 232340.13562500072,
      "d": 200.21624999999767,
      "v": 73
    },
    {
      "midi": 47,
      "hit": false,
      "t": 232340.13562500098,
      "d": 354.43687500001397,
      "v": 73
    },
    {
      "midi": 57,
      "hit": false,
      "t": 232345.546875001,
      "d": 327.3806249999907,
      "v": 64
    },
    {
      "midi": 66,
      "hit": false,
      "t": 232345.546875001,
      "d": 338.203125,
      "v": 91
    },
    {
      "midi": 59,
      "hit": false,
      "t": 232467.30000000226,
      "d": 43.29000000000815,
      "v": 67
    },
    {
      "midi": 40,
      "hit": false,
      "t": 232467.3000000023,
      "d": 37.87875000000349,
      "v": 61
    },
    {
      "midi": 64,
      "hit": false,
      "t": 232597.17000000225,
      "d": 64.93499999999767,
      "v": 67
    },
    {
      "midi": 40,
      "hit": false,
      "t": 232597.17000000228,
      "d": 81.16875000001164,
      "v": 78
    },
    {
      "midi": 62,
      "hit": false,
      "t": 232721.6287500004,
      "d": 3685.061249999999,
      "v": 73
    },
    {
      "midi": 48,
      "hit": false,
      "t": 232721.628750001,
      "d": 367.9649999999965,
      "v": 64
    },
    {
      "midi": 55,
      "hit": false,
      "t": 232724.33437500073,
      "d": 335.4974999999977,
      "v": 100
    },
    {
      "midi": 64,
      "hit": false,
      "t": 232724.334375001,
      "d": 327.3806249999907,
      "v": 73
    },
    {
      "midi": 59,
      "hit": false,
      "t": 232724.334375001,
      "d": 335.4974999999977,
      "v": 60
    },
    {
      "midi": 62,
      "hit": false,
      "t": 232724.334375001,
      "d": 335.4974999999977,
      "v": 82
    },
    {
      "midi": 67,
      "hit": false,
      "t": 232724.334375001,
      "d": 343.61437500000466,
      "v": 85
    },
    {
      "midi": 76,
      "hit": false,
      "t": 232727.0400000004,
      "d": 45.99562500001048,
      "v": 127
    },
    {
      "midi": 60,
      "hit": false,
      "t": 232727.04000000225,
      "d": 75.75750000000698,
      "v": 67
    },
    {
      "midi": 36,
      "hit": false,
      "t": 232727.0400000023,
      "d": 183.9825000000128,
      "v": 91
    },
    {
      "midi": 71,
      "hit": false,
      "t": 232729.74562500074,
      "d": 338.203125,
      "v": 82
    },
    {
      "midi": 59,
      "hit": false,
      "t": 232729.74562500074,
      "d": 346.320000000007,
      "v": 82
    },
    {
      "midi": 76,
      "hit": false,
      "t": 232984.0743750004,
      "d": 70.34625000000233,
      "v": 127
    },
    {
      "midi": 64,
      "hit": false,
      "t": 232986.78000000227,
      "d": 59.523749999993015,
      "v": 67
    },
    {
      "midi": 36,
      "hit": false,
      "t": 232986.78000000233,
      "d": 108.22500000000582,
      "v": 56
    },
    {
      "midi": 67,
      "hit": false,
      "t": 233111.23875000098,
      "d": 83.87437499998487,
      "v": 60
    },
    {
      "midi": 74,
      "hit": false,
      "t": 233113.9443750004,
      "d": 48.701250000012806,
      "v": 127
    },
    {
      "midi": 55,
      "hit": false,
      "t": 233113.94437500075,
      "d": 108.22500000000582,
      "v": 91
    },
    {
      "midi": 64,
      "hit": false,
      "t": 233113.94437500098,
      "d": 54.11249999998836,
      "v": 73
    },
    {
      "midi": 59,
      "hit": false,
      "t": 233116.65000000098,
      "d": 75.75749999997788,
      "v": 73
    },
    {
      "midi": 62,
      "hit": false,
      "t": 233116.65000000098,
      "d": 75.75749999997788,
      "v": 64
    },
    {
      "midi": 48,
      "hit": false,
      "t": 233116.65000000098,
      "d": 81.16874999998254,
      "v": 64
    },
    {
      "midi": 62,
      "hit": false,
      "t": 233116.65000000226,
      "d": 78.46312500000931,
      "v": 67
    },
    {
      "midi": 71,
      "hit": false,
      "t": 233119.35562500075,
      "d": 89.28562499998952,
      "v": 82
    },
    {
      "midi": 59,
      "hit": false,
      "t": 233119.35562500075,
      "d": 108.22500000000582,
      "v": 82
    },
    {
      "midi": 36,
      "hit": false,
      "t": 233124.76687500233,
      "d": 54.11249999998836,
      "v": 87
    },
    {
      "midi": 40,
      "hit": false,
      "t": 233246.52000000232,
      "d": 175.86562500000582,
      "v": 86
    },
    {
      "midi": 67,
      "hit": false,
      "t": 233376.39000000228,
      "d": 56.81812499999069,
      "v": 67
    },
    {
      "midi": 74,
      "hit": false,
      "t": 233379.09562500042,
      "d": 73.05187500000466,
      "v": 127
    },
    {
      "midi": 71,
      "hit": false,
      "t": 233506.26000000042,
      "d": 56.81812499999069,
      "v": 127
    },
    {
      "midi": 64,
      "hit": false,
      "t": 233506.26000000228,
      "d": 51.40687499998603,
      "v": 67
    },
    {
      "midi": 40,
      "hit": false,
      "t": 233506.26000000234,
      "d": 35.173125000001164,
      "v": 70
    },
    {
      "midi": 59,
      "hit": false,
      "t": 233636.13000000227,
      "d": 48.701250000012806,
      "v": 67
    },
    {
      "midi": 40,
      "hit": false,
      "t": 233644.24687500234,
      "d": 54.11249999998836,
      "v": 90
    },
    {
      "midi": 69,
      "hit": false,
      "t": 233766.0000000004,
      "d": 48.701250000012806,
      "v": 127
    },
    {
      "midi": 69,
      "hit": false,
      "t": 233766.0000000023,
      "d": 54.11249999998836,
      "v": 67
    },
    {
      "midi": 43,
      "hit": false,
      "t": 233766.00000000233,
      "d": 175.86562500000582,
      "v": 86
    },
    {
      "midi": 64,
      "hit": false,
      "t": 233895.8700000023,
      "d": 51.40687499998603,
      "v": 67
    },
    {
      "midi": 71,
      "hit": false,
      "t": 234020.32875000042,
      "d": 62.22937499999534,
      "v": 127
    },
    {
      "midi": 59,
      "hit": false,
      "t": 234025.7400000023,
      "d": 59.523749999993015,
      "v": 67
    },
    {
      "midi": 43,
      "hit": false,
      "t": 234025.74000000235,
      "d": 35.173125000001164,
      "v": 70
    },
    {
      "midi": 67,
      "hit": false,
      "t": 234028.44562500075,
      "d": 116.3418750000128,
      "v": 73
    },
    {
      "midi": 52,
      "hit": false,
      "t": 234028.44562500075,
      "d": 178.57125000000815,
      "v": 82
    },
    {
      "midi": 55,
      "hit": false,
      "t": 234028.44562500075,
      "d": 183.9825000000128,
      "v": 73
    },
    {
      "midi": 60,
      "hit": false,
      "t": 234155.61000000229,
      "d": 51.40687499998603,
      "v": 67
    },
    {
      "midi": 43,
      "hit": false,
      "t": 234163.72687500235,
      "d": 54.11249999998836,
      "v": 90
    },
    {
      "midi": 67,
      "hit": false,
      "t": 234280.0687500004,
      "d": 62.22937499999534,
      "v": 127
    },
    {
      "midi": 55,
      "hit": false,
      "t": 234285.48000000228,
      "d": 56.81812499999069,
      "v": 67
    },
    {
      "midi": 48,
      "hit": false,
      "t": 234285.48000000234,
      "d": 129.86999999999534,
      "v": 73
    },
    {
      "midi": 59,
      "hit": false,
      "t": 234415.35000000228,
      "d": 54.11249999998836,
      "v": 67
    },
    {
      "midi": 54,
      "hit": false,
      "t": 234418.05562500076,
      "d": 154.2206249999872,
      "v": 82
    },
    {
      "midi": 57,
      "hit": false,
      "t": 234418.05562500076,
      "d": 156.92624999998952,
      "v": 73
    },
    {
      "midi": 69,
      "hit": false,
      "t": 234418.05562500076,
      "d": 156.92624999998952,
      "v": 82
    },
    {
      "midi": 60,
      "hit": false,
      "t": 234545.22000000227,
      "d": 59.523749999993015,
      "v": 67
    },
    {
      "midi": 48,
      "hit": false,
      "t": 234545.22000000233,
      "d": 37.87875000000349,
      "v": 58
    },
    {
      "midi": 64,
      "hit": false,
      "t": 234675.09000000227,
      "d": 64.93499999999767,
      "v": 67
    },
    {
      "midi": 48,
      "hit": false,
      "t": 234675.09000000232,
      "d": 81.16875000001164,
      "v": 87
    },
    {
      "midi": 55,
      "hit": false,
      "t": 234796.84312500097,
      "d": 351.73124999998254,
      "v": 73
    },
    {
      "midi": 59,
      "hit": false,
      "t": 234796.84312500097,
      "d": 351.73124999998254,
      "v": 73
    },
    {
      "midi": 45,
      "hit": false,
      "t": 234799.54875000098,
      "d": 292.2074999999895,
      "v": 68
    },
    {
      "midi": 60,
      "hit": false,
      "t": 234799.54875000098,
      "d": 346.3199999999779,
      "v": 56
    },
    {
      "midi": 55,
      "hit": false,
      "t": 234802.25437500075,
      "d": 359.8481249999895,
      "v": 100
    },
    {
      "midi": 64,
      "hit": false,
      "t": 234802.25437500098,
      "d": 346.3199999999779,
      "v": 82
    },
    {
      "midi": 76,
      "hit": false,
      "t": 234804.9600000004,
      "d": 43.29000000000815,
      "v": 127
    },
    {
      "midi": 59,
      "hit": false,
      "t": 234804.96000000226,
      "d": 75.75750000000698,
      "v": 67
    },
    {
      "midi": 33,
      "hit": false,
      "t": 234804.96000000235,
      "d": 183.9825000000128,
      "v": 91
    },
    {
      "midi": 59,
      "hit": false,
      "t": 234807.66562500075,
      "d": 327.3806249999907,
      "v": 82
    },
    {
      "midi": 71,
      "hit": false,
      "t": 234807.66562500075,
      "d": 367.9649999999965,
      "v": 82
    },
    {
      "midi": 76,
      "hit": false,
      "t": 235048.4662500004,
      "d": 67.640625,
      "v": 127
    },
    {
      "midi": 64,
      "hit": false,
      "t": 235064.70000000228,
      "d": 59.523749999993015,
      "v": 67
    },
    {
      "midi": 33,
      "hit": false,
      "t": 235064.70000000237,
      "d": 129.86999999999534,
      "v": 56
    },
    {
      "midi": 74,
      "hit": false,
      "t": 235178.3362500004,
      "d": 45.99562500001048,
      "v": 127
    },
    {
      "midi": 60,
      "hit": false,
      "t": 235181.04187500096,
      "d": 83.87437500001397,
      "v": 64
    },
    {
      "midi": 45,
      "hit": false,
      "t": 235186.45312500096,
      "d": 67.640625,
      "v": 60
    },
    {
      "midi": 64,
      "hit": false,
      "t": 235191.86437500097,
      "d": 54.11249999998836,
      "v": 82
    },
    {
      "midi": 59,
      "hit": false,
      "t": 235191.86437500097,
      "d": 56.81812499999069,
      "v": 82
    },
    {
      "midi": 55,
      "hit": false,
      "t": 235191.86437500097,
      "d": 62.22937499999534,
      "v": 73
    },
    {
      "midi": 62,
      "hit": false,
      "t": 235194.57000000228,
      "d": 78.46312500000931,
      "v": 67
    },
    {
      "midi": 59,
      "hit": false,
      "t": 235197.27562500074,
      "d": 86.5799999999872,
      "v": 82
    },
    {
      "midi": 71,
      "hit": false,
      "t": 235197.27562500074,
      "d": 89.28562499998952,
      "v": 91
    },
    {
      "midi": 55,
      "hit": false,
      "t": 235197.27562500074,
      "d": 108.22499999997672,
      "v": 91
    },
    {
      "midi": 33,
      "hit": false,
      "t": 235202.68687500237,
      "d": 54.11249999998836,
      "v": 87
    },
    {
      "midi": 36,
      "hit": false,
      "t": 235324.44000000236,
      "d": 175.86562500000582,
      "v": 86
    },
    {
      "midi": 74,
      "hit": false,
      "t": 235443.48750000042,
      "d": 73.05187500000466,
      "v": 127
    },
    {
      "midi": 67,
      "hit": false,
      "t": 235454.3100000023,
      "d": 56.81812499999069,
      "v": 67
    },
    {
      "midi": 71,
      "hit": false,
      "t": 235576.06312500042,
      "d": 51.40687499998603,
      "v": 127
    },
    {
      "midi": 64,
      "hit": false,
      "t": 235584.1800000023,
      "d": 51.40687499998603,
      "v": 67
    },
    {
      "midi": 36,
      "hit": false,
      "t": 235584.18000000238,
      "d": 35.173125000001164,
      "v": 70
    },
    {
      "midi": 59,
      "hit": false,
      "t": 235714.0500000023,
      "d": 48.701250000012806,
      "v": 67
    },
    {
      "midi": 36,
      "hit": false,
      "t": 235722.16687500238,
      "d": 54.11249999998836,
      "v": 90
    },
    {
      "midi": 69,
      "hit": false,
      "t": 235843.9200000023,
      "d": 54.11249999998836,
      "v": 67
    },
    {
      "midi": 40,
      "hit": false,
      "t": 235843.92000000237,
      "d": 175.86562500000582,
      "v": 86
    },
    {
      "midi": 69,
      "hit": false,
      "t": 235846.62562500042,
      "d": 54.11249999998836,
      "v": 127
    },
    {
      "midi": 71,
      "hit": false,
      "t": 235971.0843750004,
      "d": 62.22937499999534,
      "v": 127
    },
    {
      "midi": 64,
      "hit": false,
      "t": 235973.7900000023,
      "d": 51.40687499998603,
      "v": 67
    },
    {
      "midi": 59,
      "hit": false,
      "t": 236103.6600000023,
      "d": 59.523749999993015,
      "v": 67
    },
    {
      "midi": 40,
      "hit": false,
      "t": 236103.6600000024,
      "d": 35.173125000001164,
      "v": 70
    },
    {
      "midi": 67,
      "hit": false,
      "t": 236106.3656250004,
      "d": 37.87875000000349,
      "v": 127
    },
    {
      "midi": 60,
      "hit": false,
      "t": 236233.5300000023,
      "d": 51.40687499998603,
      "v": 67
    },
    {
      "midi": 40,
      "hit": false,
      "t": 236241.6468750024,
      "d": 54.11249999998836,
      "v": 90
    },
    {
      "midi": 64,
      "hit": false,
      "t": 236360.69437500043,
      "d": 67.640625,
      "v": 127
    },
    {
      "midi": 55,
      "hit": false,
      "t": 236363.4000000023,
      "d": 56.81812499999069,
      "v": 67
    },
    {
      "midi": 45,
      "hit": false,
      "t": 236363.40000000238,
      "d": 129.86999999999534,
      "v": 73
    },
    {
      "midi": 59,
      "hit": false,
      "t": 236493.2700000023,
      "d": 54.11249999998836,
      "v": 67
    },
    {
      "midi": 60,
      "hit": false,
      "t": 236623.14000000228,
      "d": 59.523749999993015,
      "v": 67
    },
    {
      "midi": 45,
      "hit": false,
      "t": 236623.14000000237,
      "d": 37.87875000000349,
      "v": 61
    },
    {
      "midi": 64,
      "hit": false,
      "t": 236753.01000000228,
      "d": 64.93499999999767,
      "v": 67
    },
    {
      "midi": 45,
      "hit": false,
      "t": 236753.01000000237,
      "d": 81.16875000001164,
      "v": 78
    },
    {
      "midi": 47,
      "hit": false,
      "t": 236877.46875000096,
      "d": 332.79187500002445,
      "v": 67
    },
    {
      "midi": 57,
      "hit": false,
      "t": 236880.17437500096,
      "d": 313.85250000000815,
      "v": 82
    },
    {
      "midi": 63,
      "hit": false,
      "t": 236880.17437500096,
      "d": 332.79187500002445,
      "v": 60
    },
    {
      "midi": 67,
      "hit": false,
      "t": 236880.17437500096,
      "d": 332.79187500002445,
      "v": 81
    },
    {
      "midi": 47,
      "hit": false,
      "t": 236882.88000000044,
      "d": 259.7400000000198,
      "v": 127
    },
    {
      "midi": 57,
      "hit": false,
      "t": 236882.88000000044,
      "d": 259.7400000000198,
      "v": 127
    },
    {
      "midi": 66,
      "hit": false,
      "t": 236882.88000000227,
      "d": 51.40687499998603,
      "v": 67
    },
    {
      "midi": 35,
      "hit": false,
      "t": 236882.8800000024,
      "d": 183.9825000000128,
      "v": 91
    },
    {
      "midi": 63,
      "hit": false,
      "t": 236885.58562500044,
      "d": 270.5625000000291,
      "v": 127
    },
    {
      "midi": 71,
      "hit": false,
      "t": 236888.29125000045,
      "d": 246.21187500000815,
      "v": 127
    },
    {
      "midi": 62,
      "hit": false,
      "t": 236888.29125000045,
      "d": 257.03437500001746,
      "v": 127
    },
    {
      "midi": 67,
      "hit": false,
      "t": 236888.29125000045,
      "d": 259.7400000000198,
      "v": 127
    },
    {
      "midi": 59,
      "hit": false,
      "t": 237012.75000000227,
      "d": 59.523749999993015,
      "v": 67
    },
    {
      "midi": 63,
      "hit": false,
      "t": 237142.62000000227,
      "d": 59.523749999993015,
      "v": 67
    },
    {
      "midi": 35,
      "hit": false,
      "t": 237142.6200000024,
      "d": 129.86999999999534,
      "v": 56
    },
    {
      "midi": 47,
      "hit": false,
      "t": 237264.37312500048,
      "d": 54.11250000001746,
      "v": 127
    },
    {
      "midi": 57,
      "hit": false,
      "t": 237264.37312500048,
      "d": 54.11250000001746,
      "v": 127
    },
    {
      "midi": 63,
      "hit": false,
      "t": 237267.07875000048,
      "d": 56.81812500001979,
      "v": 127
    },
    {
      "midi": 62,
      "hit": false,
      "t": 237267.07875000048,
      "d": 59.52375000002212,
      "v": 127
    },
    {
      "midi": 67,
      "hit": false,
      "t": 237269.78437500048,
      "d": 54.11250000001746,
      "v": 127
    },
    {
      "midi": 47,
      "hit": false,
      "t": 237269.78437500098,
      "d": 83.87437500001397,
      "v": 73
    },
    {
      "midi": 67,
      "hit": false,
      "t": 237269.78437500098,
      "d": 83.87437500001397,
      "v": 64
    },
    {
      "midi": 57,
      "hit": false,
      "t": 237269.78437500098,
      "d": 102.81375000003027,
      "v": 73
    },
    {
      "midi": 71,
      "hit": false,
      "t": 237272.4900000005,
      "d": 59.52375000002212,
      "v": 127
    },
    {
      "midi": 63,
      "hit": false,
      "t": 237272.49000000098,
      "d": 91.99125000002095,
      "v": 60
    },
    {
      "midi": 35,
      "hit": false,
      "t": 237280.6068750024,
      "d": 54.11249999998836,
      "v": 87
    },
    {
      "midi": 59,
      "hit": false,
      "t": 237402.36000000226,
      "d": 51.40687499998603,
      "v": 67
    },
    {
      "midi": 39,
      "hit": false,
      "t": 237402.3600000024,
      "d": 175.86562500000582,
      "v": 86
    },
    {
      "midi": 63,
      "hit": false,
      "t": 237532.23000000225,
      "d": 56.81812499999069,
      "v": 67
    },
    {
      "midi": 47,
      "hit": false,
      "t": 237659.39437500102,
      "d": 83.87437500001397,
      "v": 73
    },
    {
      "midi": 67,
      "hit": false,
      "t": 237659.39437500102,
      "d": 83.87437500001397,
      "v": 64
    },
    {
      "midi": 57,
      "hit": false,
      "t": 237659.39437500102,
      "d": 102.81375000003027,
      "v": 73
    },
    {
      "midi": 63,
      "hit": false,
      "t": 237662.10000000102,
      "d": 91.99125000002095,
      "v": 60
    },
    {
      "midi": 59,
      "hit": false,
      "t": 237662.10000000225,
      "d": 51.40687499998603,
      "v": 67
    },
    {
      "midi": 39,
      "hit": false,
      "t": 237662.10000000242,
      "d": 35.173125000001164,
      "v": 70
    },
    {
      "midi": 63,
      "hit": false,
      "t": 237791.97000000224,
      "d": 37.87875000000349,
      "v": 67
    },
    {
      "midi": 39,
      "hit": false,
      "t": 237800.08687500242,
      "d": 54.11249999998836,
      "v": 90
    },
    {
      "midi": 67,
      "hit": false,
      "t": 237919.13437500072,
      "d": 219.15562500001397,
      "v": 73
    },
    {
      "midi": 55,
      "hit": false,
      "t": 237919.13437500072,
      "d": 224.56687500001863,
      "v": 91
    },
    {
      "midi": 59,
      "hit": false,
      "t": 237921.84000000224,
      "d": 54.11249999998836,
      "v": 67
    },
    {
      "midi": 42,
      "hit": false,
      "t": 237921.8400000024,
      "d": 175.86562500000582,
      "v": 86
    },
    {
      "midi": 59,
      "hit": false,
      "t": 238051.71000000223,
      "d": 59.523749999993015,
      "v": 67
    },
    {
      "midi": 64,
      "hit": false,
      "t": 238178.87437500074,
      "d": 219.15562500001397,
      "v": 73
    },
    {
      "midi": 52,
      "hit": false,
      "t": 238178.87437500074,
      "d": 224.56687500001863,
      "v": 82
    },
    {
      "midi": 55,
      "hit": false,
      "t": 238181.58000000223,
      "d": 51.40687499998603,
      "v": 67
    },
    {
      "midi": 42,
      "hit": false,
      "t": 238181.58000000243,
      "d": 35.173125000001164,
      "v": 70
    },
    {
      "midi": 57,
      "hit": false,
      "t": 238311.45000000222,
      "d": 51.40687499998603,
      "v": 67
    },
    {
      "midi": 42,
      "hit": false,
      "t": 238319.56687500243,
      "d": 54.11249999998836,
      "v": 90
    },
    {
      "midi": 50,
      "hit": false,
      "t": 238438.61437500076,
      "d": 202.921875,
      "v": 82
    },
    {
      "midi": 62,
      "hit": false,
      "t": 238438.61437500076,
      "d": 232.6837499999965,
      "v": 73
    },
    {
      "midi": 59,
      "hit": false,
      "t": 238441.32000000222,
      "d": 59.523749999993015,
      "v": 67
    },
    {
      "midi": 47,
      "hit": false,
      "t": 238441.32000000242,
      "d": 129.86999999999534,
      "v": 73
    },
    {
      "midi": 55,
      "hit": false,
      "t": 238571.1900000022,
      "d": 59.523749999993015,
      "v": 67
    },
    {
      "midi": 52,
      "hit": false,
      "t": 238698.35437500075,
      "d": 771.1031250000233,
      "v": 91
    },
    {
      "midi": 50,
      "hit": false,
      "t": 238701.0600000022,
      "d": 59.523749999993015,
      "v": 67
    },
    {
      "midi": 47,
      "hit": false,
      "t": 238701.0600000024,
      "d": 37.87875000000349,
      "v": 61
    },
    {
      "midi": 64,
      "hit": false,
      "t": 238703.76562500076,
      "d": 760.280625000014,
      "v": 82
    },
    {
      "midi": 47,
      "hit": false,
      "t": 238830.9300000024,
      "d": 81.16875000001164,
      "v": 78
    },
    {
      "midi": 52,
      "hit": false,
      "t": 238960.8000000022,
      "d": 56.81812499999069,
      "v": 67
    },
    {
      "midi": 28,
      "hit": false,
      "t": 238960.80000000243,
      "d": 183.9825000000128,
      "v": 91
    },
    {
      "midi": 52,
      "hit": false,
      "t": 239090.6700000022,
      "d": 54.11249999998836,
      "v": 67
    },
    {
      "midi": 55,
      "hit": false,
      "t": 239220.5400000022,
      "d": 54.11249999998836,
      "v": 67
    },
    {
      "midi": 28,
      "hit": false,
      "t": 239220.54000000245,
      "d": 105.51937500000349,
      "v": 56
    },
    {
      "midi": 52,
      "hit": false,
      "t": 239350.4100000022,
      "d": 64.93499999999767,
      "v": 67
    },
    {
      "midi": 28,
      "hit": false,
      "t": 239358.52687500246,
      "d": 54.11249999998836,
      "v": 87
    },
    {
      "midi": 55,
      "hit": false,
      "t": 239480.28000000218,
      "d": 54.11249999998836,
      "v": 67
    },
    {
      "midi": 31,
      "hit": false,
      "t": 239480.28000000244,
      "d": 175.86562500000582,
      "v": 86
    },
    {
      "midi": 55,
      "hit": false,
      "t": 239610.15000000218,
      "d": 43.29000000000815,
      "v": 67
    },
    {
      "midi": 57,
      "hit": false,
      "t": 239740.02000000217,
      "d": 43.29000000000815,
      "v": 67
    },
    {
      "midi": 31,
      "hit": false,
      "t": 239740.02000000246,
      "d": 35.173125000001164,
      "v": 70
    },
    {
      "midi": 55,
      "hit": false,
      "t": 239869.89000000217,
      "d": 54.11249999998836,
      "v": 67
    },
    {
      "midi": 31,
      "hit": false,
      "t": 239878.00687500247,
      "d": 54.11249999998836,
      "v": 90
    },
    {
      "midi": 59,
      "hit": false,
      "t": 239999.76000000216,
      "d": 51.40687499998603,
      "v": 67
    },
    {
      "midi": 35,
      "hit": false,
      "t": 239999.76000000245,
      "d": 175.86562500000582,
      "v": 86
    },
    {
      "midi": 57,
      "hit": false,
      "t": 240129.63000000216,
      "d": 43.29000000000815,
      "v": 67
    },
    {
      "midi": 62,
      "hit": false,
      "t": 240259.50000000215,
      "d": 43.29000000000815,
      "v": 67
    },
    {
      "midi": 35,
      "hit": false,
      "t": 240259.50000000247,
      "d": 35.173125000001164,
      "v": 70
    },
    {
      "midi": 59,
      "hit": false,
      "t": 240389.37000000215,
      "d": 64.93499999999767,
      "v": 67
    },
    {
      "midi": 35,
      "hit": false,
      "t": 240397.48687500248,
      "d": 54.11249999998836,
      "v": 90
    },
    {
      "midi": 64,
      "hit": false,
      "t": 240519.24000000214,
      "d": 51.40687499998603,
      "v": 67
    },
    {
      "midi": 40,
      "hit": false,
      "t": 240519.24000000246,
      "d": 129.86999999999534,
      "v": 73
    },
    {
      "midi": 62,
      "hit": false,
      "t": 240649.11000000214,
      "d": 43.29000000000815,
      "v": 67
    },
    {
      "midi": 67,
      "hit": false,
      "t": 240778.98000000214,
      "d": 43.29000000000815,
      "v": 67
    },
    {
      "midi": 40,
      "hit": false,
      "t": 240778.98000000246,
      "d": 37.87875000000349,
      "v": 61
    },
    {
      "midi": 64,
      "hit": false,
      "t": 240908.85000000213,
      "d": 64.93499999999767,
      "v": 67
    },
    {
      "midi": 40,
      "hit": false,
      "t": 240908.85000000248,
      "d": 81.16875000001164,
      "v": 78
    }
  ]
}