{
  "jsonPath": "World/Schlager/Mark Medlock/if-your-heart-is-crying.json",
  "path": "World\\Schlager\\Mark Medlock\\If Your Heart Is Crying.mid",
  "name": "If Your Heart Is Crying",
  "difficulty": "Advanced",
  "bpm": 120,
  "notes": [
    {
      "midi": 74,
      "hit": false,
      "t": 4250,
      "d": 16.66666666666697,
      "v": 100
    },
    {
      "midi": 74,
      "hit": false,
      "t": 5466.666666666667,
      "d": 383.33333333333303,
      "v": 100
    },
    {
      "midi": 75,
      "hit": false,
      "t": 5850,
      "d": 400,
      "v": 100
    },
    {
      "midi": 77,
      "hit": false,
      "t": 6250,
      "d": 1166.666666666667,
      "v": 100
    },
    {
      "midi": 46,
      "hit": false,
      "t": 6250,
      "d": 2666.666666666666,
      "v": 67
    },
    {
      "midi": 53,
      "hit": false,
      "t": 6700,
      "d": 2100,
      "v": 36
    },
    {
      "midi": 70,
      "hit": false,
      "t": 7033.333333333333,
      "d": 600,
      "v": 47
    },
    {
      "midi": 70,
      "hit": false,
      "t": 7416.666666666667,
      "d": 400,
      "v": 100
    },
    {
      "midi": 58,
      "hit": false,
      "t": 7466.666666666666,
      "d": 1150.0000000000018,
      "v": 47
    },
    {
      "midi": 75,
      "hit": false,
      "t": 7816.666666666667,
      "d": 383.33333333333303,
      "v": 100
    },
    {
      "midi": 70,
      "hit": false,
      "t": 7850,
      "d": 2433.333333333332,
      "v": 53
    },
    {
      "midi": 74,
      "hit": false,
      "t": 8200,
      "d": 400,
      "v": 100
    },
    {
      "midi": 65,
      "hit": false,
      "t": 8233.333333333334,
      "d": 416.66666666666606,
      "v": 41
    },
    {
      "midi": 72,
      "hit": false,
      "t": 8600,
      "d": 383.33333333333394,
      "v": 100
    },
    {
      "midi": 62,
      "hit": false,
      "t": 8633.333333333334,
      "d": 816.6666666666661,
      "v": 36
    },
    {
      "midi": 70,
      "hit": false,
      "t": 8983.333333333334,
      "d": 383.33333333333394,
      "v": 100
    },
    {
      "midi": 65,
      "hit": false,
      "t": 9000,
      "d": 566.6666666666661,
      "v": 44
    },
    {
      "midi": 72,
      "hit": false,
      "t": 9366.666666666668,
      "d": 1183.333333333334,
      "v": 100
    },
    {
      "midi": 41,
      "hit": false,
      "t": 9400,
      "d": 2766.6666666666642,
      "v": 51
    },
    {
      "midi": 48,
      "hit": false,
      "t": 9816.666666666666,
      "d": 2616.666666666666,
      "v": 42
    },
    {
      "midi": 53,
      "hit": false,
      "t": 10233.333333333332,
      "d": 2166.666666666666,
      "v": 75
    },
    {
      "midi": 65,
      "hit": false,
      "t": 10550.000000000002,
      "d": 383.33333333333394,
      "v": 100
    },
    {
      "midi": 65,
      "hit": false,
      "t": 10649.999999999998,
      "d": 1950,
      "v": 26
    },
    {
      "midi": 74,
      "hit": false,
      "t": 10933.333333333336,
      "d": 1566.666666666666,
      "v": 100
    },
    {
      "midi": 72,
      "hit": false,
      "t": 10966.666666666664,
      "d": 1616.6666666666679,
      "v": 48
    },
    {
      "midi": 43,
      "hit": false,
      "t": 12483.333333333332,
      "d": 2433.333333333334,
      "v": 79
    },
    {
      "midi": 50,
      "hit": false,
      "t": 12916.666666666664,
      "d": 2033.3333333333358,
      "v": 37
    },
    {
      "midi": 55,
      "hit": false,
      "t": 13266.666666666664,
      "d": 1800.0000000000018,
      "v": 23
    },
    {
      "midi": 62,
      "hit": false,
      "t": 13666.666666666664,
      "d": 750,
      "v": 40
    },
    {
      "midi": 70,
      "hit": false,
      "t": 14049.999999999998,
      "d": 1766.6666666666679,
      "v": 52
    },
    {
      "midi": 82,
      "hit": false,
      "t": 14066.666666666668,
      "d": 383.33333333333394,
      "v": 100
    },
    {
      "midi": 67,
      "hit": false,
      "t": 14416.666666666664,
      "d": 383.33333333333394,
      "v": 50
    },
    {
      "midi": 81,
      "hit": false,
      "t": 14450.000000000002,
      "d": 383.33333333333394,
      "v": 100
    },
    {
      "midi": 62,
      "hit": false,
      "t": 14833.333333333332,
      "d": 816.6666666666679,
      "v": 46
    },
    {
      "midi": 79,
      "hit": false,
      "t": 14833.333333333336,
      "d": 400,
      "v": 100
    },
    {
      "midi": 77,
      "hit": false,
      "t": 15233.333333333336,
      "d": 383.33333333333394,
      "v": 100
    },
    {
      "midi": 67,
      "hit": false,
      "t": 15250,
      "d": 683.3333333333321,
      "v": 36
    },
    {
      "midi": 74,
      "hit": false,
      "t": 15616.66666666667,
      "d": 1183.333333333334,
      "v": 100
    },
    {
      "midi": 50,
      "hit": false,
      "t": 15633.333333333334,
      "d": 2700.000000000002,
      "v": 66
    },
    {
      "midi": 57,
      "hit": false,
      "t": 16033.333333333332,
      "d": 2283.3333333333358,
      "v": 35
    },
    {
      "midi": 62,
      "hit": false,
      "t": 16450,
      "d": 1716.6666666666679,
      "v": 57
    },
    {
      "midi": 74,
      "hit": false,
      "t": 16800.000000000004,
      "d": 183.33333333333212,
      "v": 100
    },
    {
      "midi": 65,
      "hit": false,
      "t": 16816.666666666668,
      "d": 1266.6666666666679,
      "v": 30
    },
    {
      "midi": 77,
      "hit": false,
      "t": 16983.333333333336,
      "d": 200,
      "v": 100
    },
    {
      "midi": 89,
      "hit": false,
      "t": 17183.333333333336,
      "d": 383.3333333333321,
      "v": 100
    },
    {
      "midi": 74,
      "hit": false,
      "t": 17183.333333333336,
      "d": 1700.0000000000036,
      "v": 51
    },
    {
      "midi": 86,
      "hit": false,
      "t": 17566.666666666668,
      "d": 400,
      "v": 100
    },
    {
      "midi": 84,
      "hit": false,
      "t": 17966.666666666668,
      "d": 383.3333333333321,
      "v": 100
    },
    {
      "midi": 69,
      "hit": false,
      "t": 18016.666666666668,
      "d": 800.0000000000036,
      "v": 38
    },
    {
      "midi": 82,
      "hit": false,
      "t": 18350,
      "d": 400,
      "v": 100
    },
    {
      "midi": 65,
      "hit": false,
      "t": 18383.333333333336,
      "d": 566.6666666666715,
      "v": 38
    },
    {
      "midi": 79,
      "hit": false,
      "t": 18750,
      "d": 2333.333333333332,
      "v": 100
    },
    {
      "midi": 39,
      "hit": false,
      "t": 18750.000000000004,
      "d": 2683.3333333333394,
      "v": 57
    },
    {
      "midi": 46,
      "hit": false,
      "t": 19166.666666666675,
      "d": 2266.666666666668,
      "v": 43
    },
    {
      "midi": 70,
      "hit": false,
      "t": 19566.666666666675,
      "d": 816.6666666666679,
      "v": 49
    },
    {
      "midi": 51,
      "hit": false,
      "t": 19933.333333333343,
      "d": 1616.6666666666679,
      "v": 62
    },
    {
      "midi": 63,
      "hit": false,
      "t": 20333.333333333343,
      "d": 1166.6666666666679,
      "v": 56
    },
    {
      "midi": 67,
      "hit": false,
      "t": 20750.00000000001,
      "d": 350,
      "v": 30
    },
    {
      "midi": 75,
      "hit": false,
      "t": 21083.333333333332,
      "d": 400,
      "v": 100
    },
    {
      "midi": 70,
      "hit": false,
      "t": 21100.00000000001,
      "d": 783.3333333333321,
      "v": 52
    },
    {
      "midi": 79,
      "hit": false,
      "t": 21483.333333333332,
      "d": 383.3333333333321,
      "v": 100
    },
    {
      "midi": 67,
      "hit": false,
      "t": 21483.333333333343,
      "d": 416.6666666666679,
      "v": 36
    },
    {
      "midi": 63,
      "hit": false,
      "t": 21650.00000000001,
      "d": 233.33333333333212,
      "v": 40
    },
    {
      "midi": 50,
      "hit": false,
      "t": 21850.00000000001,
      "d": 1216.6666666666642,
      "v": 57
    },
    {
      "midi": 77,
      "hit": false,
      "t": 21866.666666666664,
      "d": 1166.6666666666679,
      "v": 100
    },
    {
      "midi": 57,
      "hit": false,
      "t": 22283.333333333343,
      "d": 766.6666666666642,
      "v": 48
    },
    {
      "midi": 62,
      "hit": false,
      "t": 22633.333333333343,
      "d": 866.6666666666642,
      "v": 45
    },
    {
      "midi": 70,
      "hit": false,
      "t": 23016.666666666675,
      "d": 583.3333333333321,
      "v": 34
    },
    {
      "midi": 74,
      "hit": false,
      "t": 23033.333333333332,
      "d": 200,
      "v": 100
    },
    {
      "midi": 65,
      "hit": false,
      "t": 23216.666666666675,
      "d": 250,
      "v": 46
    },
    {
      "midi": 72,
      "hit": false,
      "t": 23233.333333333332,
      "d": 200,
      "v": 100
    },
    {
      "midi": 43,
      "hit": false,
      "t": 23416.666666666675,
      "d": 1066.6666666666642,
      "v": 54
    },
    {
      "midi": 70,
      "hit": false,
      "t": 23433.333333333332,
      "d": 783.3333333333321,
      "v": 100
    },
    {
      "midi": 50,
      "hit": false,
      "t": 23833.33333333334,
      "d": 700,
      "v": 52
    },
    {
      "midi": 55,
      "hit": false,
      "t": 24033.33333333334,
      "d": 866.6666666666642,
      "v": 69
    },
    {
      "midi": 62,
      "hit": false,
      "t": 24233.33333333334,
      "d": 416.66666666666424,
      "v": 83
    },
    {
      "midi": 65,
      "hit": false,
      "t": 24416.666666666664,
      "d": 183.33333333333212,
      "v": 100
    },
    {
      "midi": 70,
      "hit": false,
      "t": 24416.66666666667,
      "d": 616.6666666666642,
      "v": 53
    },
    {
      "midi": 69,
      "hit": false,
      "t": 24599.999999999996,
      "d": 200,
      "v": 100
    },
    {
      "midi": 67,
      "hit": false,
      "t": 24616.66666666667,
      "d": 416.66666666666424,
      "v": 66
    },
    {
      "midi": 70,
      "hit": false,
      "t": 24799.999999999996,
      "d": 200,
      "v": 100
    },
    {
      "midi": 62,
      "hit": false,
      "t": 24800.000000000004,
      "d": 266.66666666666424,
      "v": 51
    },
    {
      "midi": 63,
      "hit": false,
      "t": 24999.999999999996,
      "d": 1166.6666666666679,
      "v": 100
    },
    {
      "midi": 48,
      "hit": false,
      "t": 25000.000000000004,
      "d": 1650.0000000000036,
      "v": 56
    },
    {
      "midi": 55,
      "hit": false,
      "t": 25400,
      "d": 1383.3333333333394,
      "v": 58
    },
    {
      "midi": 70,
      "hit": false,
      "t": 25800,
      "d": 533.3333333333358,
      "v": 72
    },
    {
      "midi": 63,
      "hit": false,
      "t": 25816.666666666668,
      "d": 633.3333333333358,
      "v": 46
    },
    {
      "midi": 65,
      "hit": false,
      "t": 25833.333333333336,
      "d": 216.66666666666788,
      "v": 53
    },
    {
      "midi": 70,
      "hit": false,
      "t": 26166.666666666664,
      "d": 133.33333333333212,
      "v": 100
    },
    {
      "midi": 60,
      "hit": false,
      "t": 26183.333333333336,
      "d": 816.6666666666679,
      "v": 53
    },
    {
      "midi": 69,
      "hit": false,
      "t": 26299.999999999996,
      "d": 133.33333333333212,
      "v": 100
    },
    {
      "midi": 63,
      "hit": false,
      "t": 26433.33333333333,
      "d": 116.66666666666788,
      "v": 100
    },
    {
      "midi": 65,
      "hit": false,
      "t": 26549.999999999996,
      "d": 783.3333333333321,
      "v": 100
    },
    {
      "midi": 63,
      "hit": false,
      "t": 26566.66666666667,
      "d": 583.3333333333321,
      "v": 39
    },
    {
      "midi": 67,
      "hit": false,
      "t": 26583.33333333334,
      "d": 649.9999999999964,
      "v": 47
    },
    {
      "midi": 70,
      "hit": false,
      "t": 26583.33333333334,
      "d": 766.6666666666642,
      "v": 54
    },
    {
      "midi": 53,
      "hit": false,
      "t": 26966.66666666667,
      "d": 833.3333333333321,
      "v": 50
    },
    {
      "midi": 57,
      "hit": false,
      "t": 27150.000000000004,
      "d": 616.6666666666679,
      "v": 43
    },
    {
      "midi": 72,
      "hit": false,
      "t": 27333.33333333333,
      "d": 783.3333333333321,
      "v": 100
    },
    {
      "midi": 65,
      "hit": false,
      "t": 27400.000000000004,
      "d": 366.6666666666679,
      "v": 65
    },
    {
      "midi": 72,
      "hit": false,
      "t": 27550.000000000004,
      "d": 683.3333333333321,
      "v": 61
    },
    {
      "midi": 69,
      "hit": false,
      "t": 27766.66666666667,
      "d": 433.3333333333321,
      "v": 55
    },
    {
      "midi": 46,
      "hit": false,
      "t": 28100.000000000004,
      "d": 2600,
      "v": 61
    },
    {
      "midi": 70,
      "hit": false,
      "t": 28116.66666666666,
      "d": 3133.333333333332,
      "v": 100
    },
    {
      "midi": 53,
      "hit": false,
      "t": 28516.666666666668,
      "d": 2633.3333333333358,
      "v": 33
    },
    {
      "midi": 58,
      "hit": false,
      "t": 28866.666666666668,
      "d": 2216.666666666668,
      "v": 45
    },
    {
      "midi": 62,
      "hit": false,
      "t": 29233.333333333336,
      "d": 1183.3333333333358,
      "v": 46
    },
    {
      "midi": 65,
      "hit": false,
      "t": 29633.333333333336,
      "d": 350,
      "v": 35
    },
    {
      "midi": 70,
      "hit": false,
      "t": 30000.000000000004,
      "d": 2133.333333333332,
      "v": 39
    },
    {
      "midi": 65,
      "hit": false,
      "t": 30366.66666666667,
      "d": 1449.9999999999964,
      "v": 39
    },
    {
      "midi": 62,
      "hit": false,
      "t": 30733.333333333336,
      "d": 800,
      "v": 31
    },
    {
      "midi": 46,
      "hit": false,
      "t": 31250.000000000004,
      "d": 3116.666666666668,
      "v": 58
    },
    {
      "midi": 53,
      "hit": false,
      "t": 31433.333333333336,
      "d": 2733.3333333333358,
      "v": 43
    },
    {
      "midi": 58,
      "hit": false,
      "t": 31833.333333333336,
      "d": 2333.3333333333358,
      "v": 86
    },
    {
      "midi": 65,
      "hit": false,
      "t": 32216.666666666668,
      "d": 1166.6666666666679,
      "v": 34
    },
    {
      "midi": 70,
      "hit": false,
      "t": 32616.666666666668,
      "d": 383.3333333333321,
      "v": 46
    },
    {
      "midi": 74,
      "hit": false,
      "t": 33000,
      "d": 983.3333333333358,
      "v": 56
    },
    {
      "midi": 70,
      "hit": false,
      "t": 33383.333333333336,
      "d": 783.3333333333358,
      "v": 47
    },
    {
      "midi": 65,
      "hit": false,
      "t": 33783.333333333336,
      "d": 383.33333333333576,
      "v": 21
    },
    {
      "midi": 46,
      "hit": false,
      "t": 34366.66666666667,
      "d": 2533.333333333343,
      "v": 56
    },
    {
      "midi": 53,
      "hit": false,
      "t": 34750.00000000001,
      "d": 2150.0000000000073,
      "v": 50
    },
    {
      "midi": 58,
      "hit": false,
      "t": 35150.00000000001,
      "d": 1566.6666666666715,
      "v": 81
    },
    {
      "midi": 65,
      "hit": false,
      "t": 35533.33333333334,
      "d": 400,
      "v": 53
    },
    {
      "midi": 74,
      "hit": false,
      "t": 35933.33333333334,
      "d": 1366.6666666666715,
      "v": 69
    },
    {
      "midi": 70,
      "hit": false,
      "t": 36316.66666666668,
      "d": 200,
      "v": 70
    },
    {
      "midi": 65,
      "hit": false,
      "t": 36716.66666666668,
      "d": 766.6666666666715,
      "v": 86
    },
    {
      "midi": 70,
      "hit": false,
      "t": 37100.000000000015,
      "d": 200,
      "v": 92
    },
    {
      "midi": 41,
      "hit": false,
      "t": 37300.000000000015,
      "d": 1366.6666666666715,
      "v": 78
    },
    {
      "midi": 48,
      "hit": false,
      "t": 37883.33333333335,
      "d": 966.6666666666715,
      "v": 55
    },
    {
      "midi": 53,
      "hit": false,
      "t": 38083.33333333335,
      "d": 966.6666666666715,
      "v": 88
    },
    {
      "midi": 65,
      "hit": false,
      "t": 38666.666666666686,
      "d": 383.33333333333576,
      "v": 79
    },
    {
      "midi": 72,
      "hit": false,
      "t": 38666.666666666686,
      "d": 383.33333333333576,
      "v": 37
    },
    {
      "midi": 43,
      "hit": false,
      "t": 39050.00000000002,
      "d": 1166.6666666666715,
      "v": 78
    },
    {
      "midi": 74,
      "hit": false,
      "t": 39416.66666666666,
      "d": 316.66666666666424,
      "v": 62
    },
    {
      "midi": 50,
      "hit": false,
      "t": 39450.00000000002,
      "d": 766.6666666666715,
      "v": 59
    },
    {
      "midi": 55,
      "hit": false,
      "t": 39633.33333333336,
      "d": 583.3333333333358,
      "v": 81
    },
    {
      "midi": 79,
      "hit": false,
      "t": 39783.33333333332,
      "d": 350,
      "v": 81
    },
    {
      "midi": 67,
      "hit": false,
      "t": 39833.33333333336,
      "d": 783.3333333333358,
      "v": 86
    },
    {
      "midi": 81,
      "hit": false,
      "t": 40199.999999999985,
      "d": 350,
      "v": 60
    },
    {
      "midi": 74,
      "hit": false,
      "t": 40216.66666666669,
      "d": 400,
      "v": 49
    },
    {
      "midi": 82,
      "hit": false,
      "t": 40616.66666666665,
      "d": 1266.6666666666642,
      "v": 68
    },
    {
      "midi": 51,
      "hit": false,
      "t": 40616.66666666669,
      "d": 1166.6666666666715,
      "v": 88
    },
    {
      "midi": 55,
      "hit": false,
      "t": 41000.00000000003,
      "d": 783.3333333333358,
      "v": 90
    },
    {
      "midi": 63,
      "hit": false,
      "t": 41400.00000000003,
      "d": 583.3333333333358,
      "v": 74
    },
    {
      "midi": 58,
      "hit": false,
      "t": 41400.00000000003,
      "d": 783.3333333333358,
      "v": 73
    },
    {
      "midi": 70,
      "hit": false,
      "t": 41600.00000000003,
      "d": 766.6666666666715,
      "v": 86
    },
    {
      "midi": 86,
      "hit": false,
      "t": 41833.333333333314,
      "d": 350,
      "v": 83
    },
    {
      "midi": 84,
      "hit": false,
      "t": 42183.333333333314,
      "d": 1766.6666666666642,
      "v": 86
    },
    {
      "midi": 53,
      "hit": false,
      "t": 42183.333333333365,
      "d": 1166.6666666666715,
      "v": 81
    },
    {
      "midi": 57,
      "hit": false,
      "t": 42366.6666666667,
      "d": 983.3333333333358,
      "v": 75
    },
    {
      "midi": 60,
      "hit": false,
      "t": 42966.6666666667,
      "d": 183.33333333333576,
      "v": 75
    },
    {
      "midi": 65,
      "hit": false,
      "t": 42966.6666666667,
      "d": 966.6666666666715,
      "v": 75
    },
    {
      "midi": 72,
      "hit": false,
      "t": 43350.00000000004,
      "d": 583.3333333333358,
      "v": 54
    },
    {
      "midi": 46,
      "hit": false,
      "t": 43733.33333333337,
      "d": 2550.0000000000073,
      "v": 67
    },
    {
      "midi": 53,
      "hit": false,
      "t": 44133.33333333337,
      "d": 2150.0000000000073,
      "v": 73
    },
    {
      "midi": 81,
      "hit": false,
      "t": 44149.99999999998,
      "d": 116.66666666666424,
      "v": 92
    },
    {
      "midi": 82,
      "hit": false,
      "t": 44299.99999999998,
      "d": 333.33333333333576,
      "v": 75
    },
    {
      "midi": 81,
      "hit": false,
      "t": 44499.99999999998,
      "d": 233.33333333333576,
      "v": 97
    },
    {
      "midi": 74,
      "hit": false,
      "t": 44516.66666666671,
      "d": 400,
      "v": 79
    },
    {
      "midi": 79,
      "hit": false,
      "t": 44716.66666666665,
      "d": 166.66666666666424,
      "v": 75
    },
    {
      "midi": 77,
      "hit": false,
      "t": 44899.99999999998,
      "d": 433.3333333333285,
      "v": 83
    },
    {
      "midi": 70,
      "hit": false,
      "t": 44916.66666666671,
      "d": 383.33333333333576,
      "v": 73
    },
    {
      "midi": 56,
      "hit": false,
      "t": 45266.66666666671,
      "d": 1250.0000000000073,
      "v": 68
    },
    {
      "midi": 74,
      "hit": false,
      "t": 45300.000000000044,
      "d": 200,
      "v": 40
    },
    {
      "midi": 74,
      "hit": false,
      "t": 45316.66666666664,
      "d": 450,
      "v": 90
    },
    {
      "midi": 77,
      "hit": false,
      "t": 45733.33333333331,
      "d": 883.3333333333358,
      "v": 78
    },
    {
      "midi": 70,
      "hit": false,
      "t": 46083.33333333338,
      "d": 383.33333333333576,
      "v": 78
    },
    {
      "midi": 74,
      "hit": false,
      "t": 46466.666666666715,
      "d": 400,
      "v": 78
    },
    {
      "midi": 51,
      "hit": false,
      "t": 46866.666666666715,
      "d": 1166.6666666666715,
      "v": 92
    },
    {
      "midi": 55,
      "hit": false,
      "t": 47250.00000000005,
      "d": 783.3333333333358,
      "v": 54
    },
    {
      "midi": 79,
      "hit": false,
      "t": 47283.33333333331,
      "d": 383.33333333333576,
      "v": 78
    },
    {
      "midi": 58,
      "hit": false,
      "t": 47450.00000000005,
      "d": 983.3333333333358,
      "v": 73
    },
    {
      "midi": 63,
      "hit": false,
      "t": 47650.00000000005,
      "d": 383.33333333333576,
      "v": 94
    },
    {
      "midi": 82,
      "hit": false,
      "t": 47666.66666666664,
      "d": 400,
      "v": 108
    },
    {
      "midi": 86,
      "hit": false,
      "t": 48033.33333333331,
      "d": 416.66666666666424,
      "v": 61
    },
    {
      "midi": 70,
      "hit": false,
      "t": 48033.33333333339,
      "d": 783.3333333333358,
      "v": 97
    },
    {
      "midi": 84,
      "hit": false,
      "t": 48433.33333333331,
      "d": 1250,
      "v": 94
    },
    {
      "midi": 53,
      "hit": false,
      "t": 48433.33333333339,
      "d": 1166.6666666666715,
      "v": 88
    },
    {
      "midi": 57,
      "hit": false,
      "t": 48816.66666666672,
      "d": 783.3333333333358,
      "v": 78
    },
    {
      "midi": 60,
      "hit": false,
      "t": 49016.66666666672,
      "d": 383.33333333333576,
      "v": 70
    },
    {
      "midi": 65,
      "hit": false,
      "t": 49200.00000000006,
      "d": 983.3333333333358,
      "v": 65
    },
    {
      "midi": 72,
      "hit": false,
      "t": 49400.00000000006,
      "d": 583.3333333333358,
      "v": 78
    },
    {
      "midi": 81,
      "hit": false,
      "t": 49983.33333333331,
      "d": 766.6666666666642,
      "v": 99
    },
    {
      "midi": 50,
      "hit": false,
      "t": 49983.333333333394,
      "d": 1183.3333333333358,
      "v": 81
    },
    {
      "midi": 57,
      "hit": false,
      "t": 50383.333333333394,
      "d": 783.3333333333358,
      "v": 74
    },
    {
      "midi": 62,
      "hit": false,
      "t": 50766.66666666673,
      "d": 200,
      "v": 44
    },
    {
      "midi": 65,
      "hit": false,
      "t": 50766.66666666673,
      "d": 200,
      "v": 66
    },
    {
      "midi": 74,
      "hit": false,
      "t": 50766.66666666673,
      "d": 783.3333333333358,
      "v": 94
    },
    {
      "midi": 77,
      "hit": false,
      "t": 50783.33333333331,
      "d": 850,
      "v": 97
    },
    {
      "midi": 69,
      "hit": false,
      "t": 51166.66666666673,
      "d": 383.33333333333576,
      "v": 86
    },
    {
      "midi": 43,
      "hit": false,
      "t": 51550.000000000065,
      "d": 1166.6666666666715,
      "v": 73
    },
    {
      "midi": 79,
      "hit": false,
      "t": 51599.99999999997,
      "d": 250,
      "v": 108
    },
    {
      "midi": 50,
      "hit": false,
      "t": 51933.3333333334,
      "d": 783.3333333333358,
      "v": 55
    },
    {
      "midi": 79,
      "hit": false,
      "t": 51949.99999999997,
      "d": 233.33333333333576,
      "v": 78
    },
    {
      "midi": 81,
      "hit": false,
      "t": 52133.33333333331,
      "d": 166.66666666666424,
      "v": 92
    },
    {
      "midi": 82,
      "hit": false,
      "t": 52333.33333333331,
      "d": 566.6666666666642,
      "v": 68
    },
    {
      "midi": 55,
      "hit": false,
      "t": 52333.3333333334,
      "d": 583.3333333333358,
      "v": 59
    },
    {
      "midi": 74,
      "hit": false,
      "t": 52333.3333333334,
      "d": 583.3333333333358,
      "v": 88
    },
    {
      "midi": 70,
      "hit": false,
      "t": 52716.66666666674,
      "d": 400,
      "v": 99
    },
    {
      "midi": 67,
      "hit": false,
      "t": 52916.66666666674,
      "d": 200,
      "v": 64
    },
    {
      "midi": 48,
      "hit": false,
      "t": 53116.66666666674,
      "d": 1166.6666666666715,
      "v": 73
    },
    {
      "midi": 55,
      "hit": false,
      "t": 53500.00000000007,
      "d": 783.3333333333358,
      "v": 63
    },
    {
      "midi": 63,
      "hit": false,
      "t": 53900.00000000007,
      "d": 183.33333333333576,
      "v": 66
    },
    {
      "midi": 72,
      "hit": false,
      "t": 53900.00000000007,
      "d": 966.6666666666715,
      "v": 90
    },
    {
      "midi": 75,
      "hit": false,
      "t": 53916.666666666635,
      "d": 400,
      "v": 72
    },
    {
      "midi": 60,
      "hit": false,
      "t": 54083.33333333341,
      "d": 200,
      "v": 19
    },
    {
      "midi": 79,
      "hit": false,
      "t": 54283.3333333333,
      "d": 383.33333333333576,
      "v": 79
    },
    {
      "midi": 67,
      "hit": false,
      "t": 54283.33333333341,
      "d": 383.33333333333576,
      "v": 105
    },
    {
      "midi": 63,
      "hit": false,
      "t": 54483.33333333341,
      "d": 183.33333333333576,
      "v": 108
    },
    {
      "midi": 41,
      "hit": false,
      "t": 54666.666666666744,
      "d": 983.3333333333358,
      "v": 72
    },
    {
      "midi": 84,
      "hit": false,
      "t": 54683.3333333333,
      "d": 933.3333333333358,
      "v": 84
    },
    {
      "midi": 48,
      "hit": false,
      "t": 55066.666666666744,
      "d": 783.3333333333358,
      "v": 70
    },
    {
      "midi": 53,
      "hit": false,
      "t": 55450.00000000008,
      "d": 400,
      "v": 52
    },
    {
      "midi": 65,
      "hit": false,
      "t": 55450.00000000008,
      "d": 783.3333333333358,
      "v": 112
    },
    {
      "midi": 72,
      "hit": false,
      "t": 55850.00000000008,
      "d": 383.33333333333576,
      "v": 90
    },
    {
      "midi": 46,
      "hit": false,
      "t": 56233.333333333416,
      "d": 2733.3333333333358,
      "v": 88
    },
    {
      "midi": 53,
      "hit": false,
      "t": 56633.333333333416,
      "d": 2733.3333333333358,
      "v": 70
    },
    {
      "midi": 86,
      "hit": false,
      "t": 56649.99999999997,
      "d": 433.33333333333576,
      "v": 77
    },
    {
      "midi": 58,
      "hit": false,
      "t": 57016.66666666675,
      "d": 2150,
      "v": 102
    },
    {
      "midi": 84,
      "hit": false,
      "t": 57033.33333333331,
      "d": 250,
      "v": 77
    },
    {
      "midi": 82,
      "hit": false,
      "t": 57266.66666666664,
      "d": 933.3333333333285,
      "v": 72
    },
    {
      "midi": 65,
      "hit": false,
      "t": 57416.66666666675,
      "d": 183.33333333333576,
      "v": 62
    },
    {
      "midi": 65,
      "hit": false,
      "t": 57800.00000000009,
      "d": 1566.6666666666642,
      "v": 59
    },
    {
      "midi": 70,
      "hit": false,
      "t": 57800.00000000009,
      "d": 1566.6666666666642,
      "v": 73
    },
    {
      "midi": 74,
      "hit": false,
      "t": 57800.00000000009,
      "d": 1566.6666666666642,
      "v": 75
    },
    {
      "midi": 46,
      "hit": false,
      "t": 59366.66666666675,
      "d": 2333.333333333343,
      "v": 88
    },
    {
      "midi": 53,
      "hit": false,
      "t": 59750.00000000009,
      "d": 1950.0000000000073,
      "v": 77
    },
    {
      "midi": 74,
      "hit": false,
      "t": 59783.33333333331,
      "d": 366.66666666666424,
      "v": 59
    },
    {
      "midi": 77,
      "hit": false,
      "t": 60133.33333333331,
      "d": 266.66666666666424,
      "v": 90
    },
    {
      "midi": 74,
      "hit": false,
      "t": 60150.00000000009,
      "d": 583.3333333333358,
      "v": 69
    },
    {
      "midi": 70,
      "hit": false,
      "t": 60333.33333333342,
      "d": 583.3333333333358,
      "v": 62
    },
    {
      "midi": 79,
      "hit": false,
      "t": 60466.666666666635,
      "d": 416.66666666666424,
      "v": 75
    },
    {
      "midi": 82,
      "hit": false,
      "t": 60883.3333333333,
      "d": 1216.6666666666642,
      "v": 90
    },
    {
      "midi": 58,
      "hit": false,
      "t": 60916.66666666676,
      "d": 600,
      "v": 92
    },
    {
      "midi": 65,
      "hit": false,
      "t": 60916.66666666676,
      "d": 600,
      "v": 86
    },
    {
      "midi": 74,
      "hit": false,
      "t": 61116.66666666676,
      "d": 1166.6666666666715,
      "v": 94
    },
    {
      "midi": 70,
      "hit": false,
      "t": 61516.66666666676,
      "d": 183.33333333333576,
      "v": 55
    },
    {
      "midi": 65,
      "hit": false,
      "t": 61700.000000000095,
      "d": 783.3333333333358,
      "v": 55
    },
    {
      "midi": 69,
      "hit": false,
      "t": 61900.000000000095,
      "d": 383.33333333333576,
      "v": 73
    },
    {
      "midi": 41,
      "hit": false,
      "t": 62483.33333333343,
      "d": 1166.6666666666715,
      "v": 84
    },
    {
      "midi": 81,
      "hit": false,
      "t": 62499.99999999996,
      "d": 383.33333333333576,
      "v": 102
    },
    {
      "midi": 48,
      "hit": false,
      "t": 62683.33333333343,
      "d": 1166.6666666666715,
      "v": 74
    },
    {
      "midi": 77,
      "hit": false,
      "t": 62916.666666666635,
      "d": 350,
      "v": 94
    },
    {
      "midi": 65,
      "hit": false,
      "t": 63066.666666666766,
      "d": 983.3333333333358,
      "v": 108
    },
    {
      "midi": 81,
      "hit": false,
      "t": 63266.666666666635,
      "d": 366.66666666666424,
      "v": 97
    },
    {
      "midi": 53,
      "hit": false,
      "t": 63266.666666666766,
      "d": 383.33333333333576,
      "v": 45
    },
    {
      "midi": 72,
      "hit": false,
      "t": 63466.666666666766,
      "d": 583.3333333333358,
      "v": 77
    },
    {
      "midi": 84,
      "hit": false,
      "t": 63633.3333333333,
      "d": 416.6666666666715,
      "v": 79
    },
    {
      "midi": 82,
      "hit": false,
      "t": 64016.666666666635,
      "d": 366.6666666666715,
      "v": 105
    },
    {
      "midi": 43,
      "hit": false,
      "t": 64050.0000000001,
      "d": 1166.6666666666715,
      "v": 77
    },
    {
      "midi": 79,
      "hit": false,
      "t": 64416.66666666664,
      "d": 466.6666666666715,
      "v": 97
    },
    {
      "midi": 50,
      "hit": false,
      "t": 64433.33333333344,
      "d": 783.3333333333358,
      "v": 66
    },
    {
      "midi": 70,
      "hit": false,
      "t": 64833.33333333344,
      "d": 783.3333333333358,
      "v": 99
    },
    {
      "midi": 82,
      "hit": false,
      "t": 64849.99999999998,
      "d": 400.0000000000073,
      "v": 84
    },
    {
      "midi": 84,
      "hit": false,
      "t": 65216.66666666665,
      "d": 433.33333333333576,
      "v": 99
    },
    {
      "midi": 62,
      "hit": false,
      "t": 65216.66666666677,
      "d": 400,
      "v": 94
    },
    {
      "midi": 67,
      "hit": false,
      "t": 65216.66666666677,
      "d": 400,
      "v": 92
    },
    {
      "midi": 51,
      "hit": false,
      "t": 65616.66666666677,
      "d": 1166.666666666657,
      "v": 90
    },
    {
      "midi": 86,
      "hit": false,
      "t": 65633.33333333331,
      "d": 433.3333333333285,
      "v": 75
    },
    {
      "midi": 55,
      "hit": false,
      "t": 66000.0000000001,
      "d": 983.3333333333285,
      "v": 66
    },
    {
      "midi": 84,
      "hit": false,
      "t": 66033.33333333331,
      "d": 350,
      "v": 115
    },
    {
      "midi": 63,
      "hit": false,
      "t": 66383.33333333343,
      "d": 783.3333333333285,
      "v": 79
    },
    {
      "midi": 70,
      "hit": false,
      "t": 66383.33333333343,
      "d": 783.3333333333285,
      "v": 102
    },
    {
      "midi": 82,
      "hit": false,
      "t": 66416.66666666664,
      "d": 833.3333333333285,
      "v": 86
    },
    {
      "midi": 67,
      "hit": false,
      "t": 66783.33333333343,
      "d": 200,
      "v": 83
    },
    {
      "midi": 69,
      "hit": false,
      "t": 66983.33333333343,
      "d": 183.33333333332848,
      "v": 79
    },
    {
      "midi": 53,
      "hit": false,
      "t": 67166.66666666676,
      "d": 983.3333333333285,
      "v": 92
    },
    {
      "midi": 57,
      "hit": false,
      "t": 67366.66666666676,
      "d": 983.3333333333285,
      "v": 62
    },
    {
      "midi": 81,
      "hit": false,
      "t": 67583.3333333333,
      "d": 350,
      "v": 86
    },
    {
      "midi": 79,
      "hit": false,
      "t": 67933.3333333333,
      "d": 350,
      "v": 78
    },
    {
      "midi": 65,
      "hit": false,
      "t": 67950.00000000009,
      "d": 200,
      "v": 66
    },
    {
      "midi": 72,
      "hit": false,
      "t": 67950.00000000009,
      "d": 400,
      "v": 105
    },
    {
      "midi": 77,
      "hit": false,
      "t": 68333.3333333333,
      "d": 366.6666666666715,
      "v": 86
    },
    {
      "midi": 65,
      "hit": false,
      "t": 68350.00000000009,
      "d": 183.33333333332848,
      "v": 81
    },
    {
      "midi": 69,
      "hit": false,
      "t": 68350.00000000009,
      "d": 183.33333333332848,
      "v": 102
    },
    {
      "midi": 86,
      "hit": false,
      "t": 68699.99999999997,
      "d": 683.3333333333285,
      "v": 105
    },
    {
      "midi": 65,
      "hit": false,
      "t": 68733.33333333342,
      "d": 583.3333333333285,
      "v": 40
    },
    {
      "midi": 70,
      "hit": false,
      "t": 68733.33333333342,
      "d": 783.3333333333285,
      "v": 92
    },
    {
      "midi": 74,
      "hit": false,
      "t": 68733.33333333342,
      "d": 1366.666666666657,
      "v": 88
    },
    {
      "midi": 46,
      "hit": false,
      "t": 68733.33333333342,
      "d": 2349.9999999999854,
      "v": 88
    },
    {
      "midi": 53,
      "hit": false,
      "t": 69116.66666666674,
      "d": 1966.666666666657,
      "v": 81
    },
    {
      "midi": 84,
      "hit": false,
      "t": 69349.99999999997,
      "d": 216.66666666667152,
      "v": 94
    },
    {
      "midi": 65,
      "hit": false,
      "t": 69516.66666666674,
      "d": 583.3333333333285,
      "v": 119
    },
    {
      "midi": 86,
      "hit": false,
      "t": 69549.99999999997,
      "d": 200.00000000001455,
      "v": 94
    },
    {
      "midi": 84,
      "hit": false,
      "t": 69733.33333333331,
      "d": 216.66666666667152,
      "v": 68
    },
    {
      "midi": 70,
      "hit": false,
      "t": 69900.00000000007,
      "d": 200,
      "v": 86
    },
    {
      "midi": 82,
      "hit": false,
      "t": 69933.33333333331,
      "d": 950,
      "v": 83
    },
    {
      "midi": 70,
      "hit": false,
      "t": 70300.00000000007,
      "d": 583.3333333333285,
      "v": 84
    },
    {
      "midi": 74,
      "hit": false,
      "t": 70300.00000000007,
      "d": 583.3333333333285,
      "v": 79
    },
    {
      "midi": 68,
      "hit": false,
      "t": 70300.00000000007,
      "d": 783.3333333333285,
      "v": 105
    },
    {
      "midi": 58,
      "hit": false,
      "t": 70300.00000000007,
      "d": 966.666666666657,
      "v": 25
    },
    {
      "midi": 65,
      "hit": false,
      "t": 70300.00000000007,
      "d": 1549.9999999999854,
      "v": 79
    },
    {
      "midi": 74,
      "hit": false,
      "t": 71083.3333333334,
      "d": 766.666666666657,
      "v": 99
    },
    {
      "midi": 68,
      "hit": false,
      "t": 71466.66666666673,
      "d": 383.3333333333285,
      "v": 86
    },
    {
      "midi": 51,
      "hit": false,
      "t": 71850.00000000006,
      "d": 1183.3333333333285,
      "v": 64
    },
    {
      "midi": 75,
      "hit": false,
      "t": 71916.66666666664,
      "d": 316.6666666666715,
      "v": 99
    },
    {
      "midi": 79,
      "hit": false,
      "t": 72249.99999999999,
      "d": 383.33333333334303,
      "v": 115
    },
    {
      "midi": 55,
      "hit": false,
      "t": 72250.00000000006,
      "d": 783.3333333333285,
      "v": 54
    },
    {
      "midi": 58,
      "hit": false,
      "t": 72450.00000000006,
      "d": 966.666666666657,
      "v": 79
    },
    {
      "midi": 82,
      "hit": false,
      "t": 72616.66666666666,
      "d": 416.6666666666715,
      "v": 108
    },
    {
      "midi": 63,
      "hit": false,
      "t": 72633.33333333339,
      "d": 600,
      "v": 88
    },
    {
      "midi": 70,
      "hit": false,
      "t": 72833.33333333339,
      "d": 400,
      "v": 78
    },
    {
      "midi": 86,
      "hit": false,
      "t": 73016.66666666666,
      "d": 400.00000000001455,
      "v": 105
    },
    {
      "midi": 67,
      "hit": false,
      "t": 73033.33333333339,
      "d": 200,
      "v": 83
    },
    {
      "midi": 84,
      "hit": false,
      "t": 73400,
      "d": 1233.333333333343,
      "v": 90
    },
    {
      "midi": 65,
      "hit": false,
      "t": 73416.66666666672,
      "d": 583.3333333333285,
      "v": 66
    },
    {
      "midi": 72,
      "hit": false,
      "t": 73416.66666666672,
      "d": 583.3333333333285,
      "v": 73
    },
    {
      "midi": 69,
      "hit": false,
      "t": 73416.66666666672,
      "d": 783.3333333333285,
      "v": 67
    },
    {
      "midi": 53,
      "hit": false,
      "t": 73416.66666666672,
      "d": 983.3333333333285,
      "v": 90
    },
    {
      "midi": 57,
      "hit": false,
      "t": 73816.66666666672,
      "d": 583.3333333333285,
      "v": 68
    },
    {
      "midi": 60,
      "hit": false,
      "t": 74000.00000000004,
      "d": 400,
      "v": 77
    },
    {
      "midi": 65,
      "hit": false,
      "t": 74200.00000000004,
      "d": 400,
      "v": 84
    },
    {
      "midi": 72,
      "hit": false,
      "t": 74400.00000000004,
      "d": 583.3333333333285,
      "v": 81
    },
    {
      "midi": 69,
      "hit": false,
      "t": 74600.00000000004,
      "d": 383.3333333333285,
      "v": 88
    },
    {
      "midi": 65,
      "hit": false,
      "t": 74783.33333333337,
      "d": 583.3333333333285,
      "v": 77
    },
    {
      "midi": 78,
      "hit": false,
      "t": 74983.33333333334,
      "d": 333.3333333333285,
      "v": 102
    },
    {
      "midi": 50,
      "hit": false,
      "t": 74983.33333333337,
      "d": 1166.666666666657,
      "v": 86
    },
    {
      "midi": 74,
      "hit": false,
      "t": 75366.66666666667,
      "d": 383.3333333333285,
      "v": 90
    },
    {
      "midi": 54,
      "hit": false,
      "t": 75366.6666666667,
      "d": 600,
      "v": 75
    },
    {
      "midi": 57,
      "hit": false,
      "t": 75566.6666666667,
      "d": 583.3333333333285,
      "v": 92
    },
    {
      "midi": 78,
      "hit": false,
      "t": 75750,
      "d": 133.33333333332848,
      "v": 115
    },
    {
      "midi": 66,
      "hit": false,
      "t": 75766.6666666667,
      "d": 200,
      "v": 31
    },
    {
      "midi": 79,
      "hit": false,
      "t": 75950,
      "d": 216.66666666665697,
      "v": 108
    },
    {
      "midi": 67,
      "hit": false,
      "t": 75966.6666666667,
      "d": 383.3333333333285,
      "v": 73
    },
    {
      "midi": 81,
      "hit": false,
      "t": 76133.33333333333,
      "d": 250,
      "v": 102
    },
    {
      "midi": 69,
      "hit": false,
      "t": 76150.00000000003,
      "d": 200,
      "v": 70
    },
    {
      "midi": 84,
      "hit": false,
      "t": 76333.33333333333,
      "d": 233.33333333332848,
      "v": 112
    },
    {
      "midi": 70,
      "hit": false,
      "t": 76350.00000000003,
      "d": 983.3333333333285,
      "v": 70
    },
    {
      "midi": 82,
      "hit": false,
      "t": 76533.33333333333,
      "d": 1350,
      "v": 108
    },
    {
      "midi": 43,
      "hit": false,
      "t": 76550.00000000003,
      "d": 1166.666666666657,
      "v": 83
    },
    {
      "midi": 50,
      "hit": false,
      "t": 76933.33333333336,
      "d": 783.3333333333285,
      "v": 62
    },
    {
      "midi": 55,
      "hit": false,
      "t": 77133.33333333336,
      "d": 783.3333333333285,
      "v": 42
    },
    {
      "midi": 67,
      "hit": false,
      "t": 77333.33333333336,
      "d": 383.3333333333285,
      "v": 70
    },
    {
      "midi": 74,
      "hit": false,
      "t": 77333.33333333336,
      "d": 583.3333333333285,
      "v": 94
    },
    {
      "midi": 70,
      "hit": false,
      "t": 77716.66666666669,
      "d": 383.3333333333285,
      "v": 97
    },
    {
      "midi": 67,
      "hit": false,
      "t": 77916.66666666669,
      "d": 183.33333333332848,
      "v": 62
    },
    {
      "midi": 48,
      "hit": false,
      "t": 78100.00000000001,
      "d": 1183.3333333333285,
      "v": 72
    },
    {
      "midi": 84,
      "hit": false,
      "t": 78116.66666666666,
      "d": 333.3333333333285,
      "v": 119
    },
    {
      "midi": 79,
      "hit": false,
      "t": 78483.33333333331,
      "d": 350,
      "v": 105
    },
    {
      "midi": 55,
      "hit": false,
      "t": 78500.00000000001,
      "d": 783.3333333333285,
      "v": 81
    },
    {
      "midi": 75,
      "hit": false,
      "t": 78866.66666666664,
      "d": 383.3333333333285,
      "v": 105
    },
    {
      "midi": 67,
      "hit": false,
      "t": 78883.33333333334,
      "d": 200,
      "v": 83
    },
    {
      "midi": 63,
      "hit": false,
      "t": 78883.33333333334,
      "d": 400,
      "v": 81
    },
    {
      "midi": 70,
      "hit": false,
      "t": 78883.33333333334,
      "d": 783.3333333333285,
      "v": 88
    },
    {
      "midi": 84,
      "hit": false,
      "t": 79283.3333333333,
      "d": 450,
      "v": 115
    },
    {
      "midi": 67,
      "hit": false,
      "t": 79283.33333333334,
      "d": 383.3333333333285,
      "v": 59
    },
    {
      "midi": 63,
      "hit": false,
      "t": 79466.66666666667,
      "d": 200,
      "v": 68
    },
    {
      "midi": 53,
      "hit": false,
      "t": 79466.66666666667,
      "d": 1366.666666666657,
      "v": 73
    },
    {
      "midi": 57,
      "hit": false,
      "t": 79666.66666666667,
      "d": 1366.666666666657,
      "v": 81
    },
    {
      "midi": 81,
      "hit": false,
      "t": 79683.3333333333,
      "d": 1683.3333333333285,
      "v": 92
    },
    {
      "midi": 60,
      "hit": false,
      "t": 79866.66666666667,
      "d": 1166.666666666657,
      "v": 78
    },
    {
      "midi": 65,
      "hit": false,
      "t": 80066.66666666667,
      "d": 766.666666666657,
      "v": 68
    },
    {
      "midi": 72,
      "hit": false,
      "t": 80450,
      "d": 1166.666666666657,
      "v": 74
    },
    {
      "midi": 69,
      "hit": false,
      "t": 80833.33333333333,
      "d": 983.3333333333285,
      "v": 84
    },
    {
      "midi": 53,
      "hit": false,
      "t": 81233.33333333333,
      "d": 2533.3333333333285,
      "v": 92
    },
    {
      "midi": 57,
      "hit": false,
      "t": 81616.66666666666,
      "d": 2150,
      "v": 79
    },
    {
      "midi": 81,
      "hit": false,
      "t": 81633.3333333333,
      "d": 400,
      "v": 97
    },
    {
      "midi": 60,
      "hit": false,
      "t": 81816.66666666666,
      "d": 1950,
      "v": 83
    },
    {
      "midi": 82,
      "hit": false,
      "t": 81999.99999999997,
      "d": 116.66666666665697,
      "v": 119
    },
    {
      "midi": 65,
      "hit": false,
      "t": 82016.66666666666,
      "d": 183.33333333332848,
      "v": 97
    },
    {
      "midi": 84,
      "hit": false,
      "t": 82199.99999999996,
      "d": 250,
      "v": 69
    },
    {
      "midi": 69,
      "hit": false,
      "t": 82199.99999999999,
      "d": 200,
      "v": 43
    },
    {
      "midi": 86,
      "hit": false,
      "t": 82399.99999999996,
      "d": 400,
      "v": 73
    },
    {
      "midi": 72,
      "hit": false,
      "t": 82399.99999999999,
      "d": 400,
      "v": 68
    },
    {
      "midi": 87,
      "hit": false,
      "t": 82766.66666666663,
      "d": 683.3333333333285,
      "v": 65
    },
    {
      "midi": 75,
      "hit": false,
      "t": 82799.99999999999,
      "d": 766.6666666666715,
      "v": 43
    },
    {
      "midi": 46,
      "hit": false,
      "t": 84316.66666666666,
      "d": 1250,
      "v": 83
    },
    {
      "midi": 53,
      "hit": false,
      "t": 84733.33333333333,
      "d": 766.666666666657,
      "v": 58
    },
    {
      "midi": 58,
      "hit": false,
      "t": 84933.33333333333,
      "d": 533.3333333333285,
      "v": 62
    },
    {
      "midi": 65,
      "hit": false,
      "t": 85116.66666666666,
      "d": 883.3333333333139,
      "v": 70
    },
    {
      "midi": 74,
      "hit": false,
      "t": 85466.66666666666,
      "d": 599.9999999999854,
      "v": 75
    },
    {
      "midi": 70,
      "hit": false,
      "t": 85649.99999999999,
      "d": 316.66666666665697,
      "v": 49
    },
    {
      "midi": 43,
      "hit": false,
      "t": 85833.33333333331,
      "d": 1066.6666666666715,
      "v": 66
    },
    {
      "midi": 50,
      "hit": false,
      "t": 86266.66666666664,
      "d": 683.333333333343,
      "v": 61
    },
    {
      "midi": 55,
      "hit": false,
      "t": 86433.33333333331,
      "d": 800,
      "v": 57
    },
    {
      "midi": 70,
      "hit": false,
      "t": 86633.33333333331,
      "d": 833.333333333343,
      "v": 81
    },
    {
      "midi": 62,
      "hit": false,
      "t": 86649.99999999999,
      "d": 800,
      "v": 54
    },
    {
      "midi": 67,
      "hit": false,
      "t": 87049.99999999999,
      "d": 433.33333333334303,
      "v": 78
    },
    {
      "midi": 48,
      "hit": false,
      "t": 87433.33333333331,
      "d": 1050.000000000029,
      "v": 68
    },
    {
      "midi": 55,
      "hit": false,
      "t": 87800,
      "d": 616.6666666666715,
      "v": 57
    },
    {
      "midi": 72,
      "hit": false,
      "t": 87816.66666666667,
      "d": 1233.333333333343,
      "v": 72
    },
    {
      "midi": 60,
      "hit": false,
      "t": 88050,
      "d": 300,
      "v": 65
    },
    {
      "midi": 63,
      "hit": false,
      "t": 88250,
      "d": 600.0000000000146,
      "v": 83
    },
    {
      "midi": 69,
      "hit": false,
      "t": 88650.00000000001,
      "d": 100,
      "v": 52
    },
    {
      "midi": 67,
      "hit": false,
      "t": 88783.33333333334,
      "d": 216.66666666667152,
      "v": 55
    },
    {
      "midi": 41,
      "hit": false,
      "t": 89000.00000000001,
      "d": 966.6666666666715,
      "v": 83
    },
    {
      "midi": 48,
      "hit": false,
      "t": 89366.66666666669,
      "d": 650,
      "v": 54
    },
    {
      "midi": 53,
      "hit": false,
      "t": 89566.66666666669,
      "d": 550,
      "v": 62
    },
    {
      "midi": 60,
      "hit": false,
      "t": 89800.00000000001,
      "d": 683.333333333343,
      "v": 81
    },
    {
      "midi": 69,
      "hit": false,
      "t": 90116.66666666669,
      "d": 500.00000000001455,
      "v": 45
    },
    {
      "midi": 65,
      "hit": false,
      "t": 90316.66666666669,
      "d": 366.66666666668607,
      "v": 59
    },
    {
      "midi": 50,
      "hit": false,
      "t": 90550.00000000003,
      "d": 1166.666666666686,
      "v": 78
    },
    {
      "midi": 57,
      "hit": false,
      "t": 90950.00000000004,
      "d": 750,
      "v": 60
    },
    {
      "midi": 62,
      "hit": false,
      "t": 91366.66666666672,
      "d": 766.6666666666715,
      "v": 75
    },
    {
      "midi": 69,
      "hit": false,
      "t": 91750.00000000004,
      "d": 333.33333333334303,
      "v": 62
    },
    {
      "midi": 65,
      "hit": false,
      "t": 91966.66666666672,
      "d": 200,
      "v": 70
    },
    {
      "midi": 43,
      "hit": false,
      "t": 92166.66666666672,
      "d": 916.6666666666715,
      "v": 79
    },
    {
      "midi": 50,
      "hit": false,
      "t": 92533.33333333339,
      "d": 566.6666666666715,
      "v": 65
    },
    {
      "midi": 55,
      "hit": false,
      "t": 92733.33333333339,
      "d": 466.6666666666715,
      "v": 79
    },
    {
      "midi": 67,
      "hit": false,
      "t": 92933.33333333339,
      "d": 450,
      "v": 94
    },
    {
      "midi": 74,
      "hit": false,
      "t": 93116.66666666673,
      "d": 316.66666666665697,
      "v": 88
    },
    {
      "midi": 70,
      "hit": false,
      "t": 93333.33333333339,
      "d": 216.66666666667152,
      "v": 61
    },
    {
      "midi": 69,
      "hit": false,
      "t": 93533.33333333339,
      "d": 200.00000000001455,
      "v": 77
    },
    {
      "midi": 51,
      "hit": false,
      "t": 93716.66666666673,
      "d": 983.333333333343,
      "v": 74
    },
    {
      "midi": 67,
      "hit": false,
      "t": 93733.3333333334,
      "d": 716.6666666666715,
      "v": 86
    },
    {
      "midi": 55,
      "hit": false,
      "t": 94133.3333333334,
      "d": 583.333333333343,
      "v": 90
    },
    {
      "midi": 58,
      "hit": false,
      "t": 94333.3333333334,
      "d": 316.6666666666715,
      "v": 90
    },
    {
      "midi": 63,
      "hit": false,
      "t": 94516.66666666674,
      "d": 416.6666666666715,
      "v": 81
    },
    {
      "midi": 70,
      "hit": false,
      "t": 94700.00000000007,
      "d": 633.333333333343,
      "v": 90
    },
    {
      "midi": 67,
      "hit": false,
      "t": 94916.66666666674,
      "d": 400,
      "v": 84
    },
    {
      "midi": 41,
      "hit": false,
      "t": 95283.33333333342,
      "d": 916.666666666657,
      "v": 81
    },
    {
      "midi": 65,
      "hit": false,
      "t": 95316.66666666674,
      "d": 750,
      "v": 88
    },
    {
      "midi": 48,
      "hit": false,
      "t": 95700.00000000009,
      "d": 533.3333333333139,
      "v": 65
    },
    {
      "midi": 53,
      "hit": false,
      "t": 95883.33333333342,
      "d": 449.99999999998545,
      "v": 88
    },
    {
      "midi": 60,
      "hit": false,
      "t": 96100.00000000007,
      "d": 366.6666666666715,
      "v": 81
    },
    {
      "midi": 65,
      "hit": false,
      "t": 96450.00000000007,
      "d": 416.6666666666715,
      "v": 90
    },
    {
      "midi": 46,
      "hit": false,
      "t": 96833.33333333342,
      "d": 1299.9999999999854,
      "v": 78
    },
    {
      "midi": 53,
      "hit": false,
      "t": 97233.33333333342,
      "d": 816.666666666657,
      "v": 94
    },
    {
      "midi": 58,
      "hit": false,
      "t": 97450.00000000009,
      "d": 566.666666666657,
      "v": 57
    },
    {
      "midi": 70,
      "hit": false,
      "t": 97633.33333333342,
      "d": 833.3333333333139,
      "v": 92
    },
    {
      "midi": 65,
      "hit": false,
      "t": 98016.66666666674,
      "d": 383.33333333331393,
      "v": 81
    },
    {
      "midi": 62,
      "hit": false,
      "t": 98216.66666666673,
      "d": 216.66666666667152,
      "v": 94
    },
    {
      "midi": 43,
      "hit": false,
      "t": 98416.66666666673,
      "d": 1083.333333333343,
      "v": 73
    },
    {
      "midi": 50,
      "hit": false,
      "t": 98800.00000000006,
      "d": 700.0000000000146,
      "v": 84
    },
    {
      "midi": 55,
      "hit": false,
      "t": 98966.66666666673,
      "d": 783.333333333343,
      "v": 60
    },
    {
      "midi": 62,
      "hit": false,
      "t": 99183.3333333334,
      "d": 416.6666666666715,
      "v": 66
    },
    {
      "midi": 70,
      "hit": false,
      "t": 99183.3333333334,
      "d": 716.6666666666715,
      "v": 74
    },
    {
      "midi": 67,
      "hit": false,
      "t": 99550.00000000007,
      "d": 416.6666666666715,
      "v": 102
    },
    {
      "midi": 48,
      "hit": false,
      "t": 99950.00000000007,
      "d": 1200,
      "v": 75
    },
    {
      "midi": 55,
      "hit": false,
      "t": 100333.33333333342,
      "d": 766.666666666657,
      "v": 73
    },
    {
      "midi": 72,
      "hit": false,
      "t": 100716.66666666674,
      "d": 750,
      "v": 86
    },
    {
      "midi": 63,
      "hit": false,
      "t": 100750.00000000007,
      "d": 66.66666666667152,
      "v": 50
    },
    {
      "midi": 67,
      "hit": false,
      "t": 101100.00000000007,
      "d": 200,
      "v": 90
    },
    {
      "midi": 63,
      "hit": false,
      "t": 101300.00000000007,
      "d": 200,
      "v": 102
    },
    {
      "midi": 41,
      "hit": false,
      "t": 101500.00000000007,
      "d": 916.6666666666715,
      "v": 78
    },
    {
      "midi": 48,
      "hit": false,
      "t": 101833.3333333334,
      "d": 633.333333333343,
      "v": 36
    },
    {
      "midi": 53,
      "hit": false,
      "t": 101983.3333333334,
      "d": 600.0000000000146,
      "v": 84
    },
    {
      "midi": 69,
      "hit": false,
      "t": 102300.00000000007,
      "d": 583.333333333343,
      "v": 92
    },
    {
      "midi": 65,
      "hit": false,
      "t": 102700.00000000009,
      "d": 433.3333333333285,
      "v": 88
    },
    {
      "midi": 50,
      "hit": false,
      "t": 103100.00000000009,
      "d": 1099.9999999999854,
      "v": 88
    },
    {
      "midi": 53,
      "hit": false,
      "t": 103416.66666666674,
      "d": 800,
      "v": 94
    },
    {
      "midi": 57,
      "hit": false,
      "t": 103616.66666666674,
      "d": 550,
      "v": 94
    },
    {
      "midi": 62,
      "hit": false,
      "t": 103816.66666666674,
      "d": 433.3333333333285,
      "v": 88
    },
    {
      "midi": 69,
      "hit": false,
      "t": 104033.33333333342,
      "d": 416.66666666665697,
      "v": 74
    },
    {
      "midi": 65,
      "hit": false,
      "t": 104266.66666666674,
      "d": 183.33333333332848,
      "v": 68
    },
    {
      "midi": 62,
      "hit": false,
      "t": 104466.66666666674,
      "d": 233.33333333334303,
      "v": 83
    },
    {
      "midi": 43,
      "hit": false,
      "t": 104683.33333333342,
      "d": 1199.9999999999854,
      "v": 77
    },
    {
      "midi": 67,
      "hit": false,
      "t": 104700.00000000009,
      "d": 716.666666666657,
      "v": 88
    },
    {
      "midi": 50,
      "hit": false,
      "t": 105083.33333333342,
      "d": 799.9999999999854,
      "v": 51
    },
    {
      "midi": 55,
      "hit": false,
      "t": 105266.66666666674,
      "d": 716.666666666657,
      "v": 78
    },
    {
      "midi": 62,
      "hit": false,
      "t": 105500.00000000007,
      "d": 366.66666666665697,
      "v": 78
    },
    {
      "midi": 70,
      "hit": false,
      "t": 105683.3333333334,
      "d": 450,
      "v": 77
    },
    {
      "midi": 67,
      "hit": false,
      "t": 105900.00000000007,
      "d": 316.66666666665697,
      "v": 92
    },
    {
      "midi": 62,
      "hit": false,
      "t": 106083.3333333334,
      "d": 133.33333333332848,
      "v": 55
    },
    {
      "midi": 51,
      "hit": false,
      "t": 106250.00000000006,
      "d": 933.3333333333285,
      "v": 83
    },
    {
      "midi": 55,
      "hit": false,
      "t": 106583.33333333339,
      "d": 583.3333333333285,
      "v": 52
    },
    {
      "midi": 58,
      "hit": false,
      "t": 106783.33333333339,
      "d": 333.3333333333285,
      "v": 65
    },
    {
      "midi": 63,
      "hit": false,
      "t": 106966.66666666672,
      "d": 383.33333333334303,
      "v": 84
    },
    {
      "midi": 70,
      "hit": false,
      "t": 107150.00000000004,
      "d": 550.0000000000146,
      "v": 90
    },
    {
      "midi": 67,
      "hit": false,
      "t": 107366.66666666673,
      "d": 383.3333333333285,
      "v": 75
    },
    {
      "midi": 53,
      "hit": false,
      "t": 107783.33333333339,
      "d": 2350.0000000000146,
      "v": 90
    },
    {
      "midi": 57,
      "hit": false,
      "t": 107983.33333333339,
      "d": 2133.333333333343,
      "v": 66
    },
    {
      "midi": 60,
      "hit": false,
      "t": 108150.00000000006,
      "d": 1883.333333333343,
      "v": 70
    },
    {
      "midi": 65,
      "hit": false,
      "t": 108333.33333333339,
      "d": 216.66666666667152,
      "v": 79
    },
    {
      "midi": 69,
      "hit": false,
      "t": 108533.33333333339,
      "d": 116.66666666667152,
      "v": 88
    },
    {
      "midi": 72,
      "hit": false,
      "t": 108716.66666666673,
      "d": 283.3333333333285,
      "v": 78
    },
    {
      "midi": 77,
      "hit": false,
      "t": 109016.66666666673,
      "d": 450,
      "v": 33
    },
    {
      "midi": 81,
      "hit": false,
      "t": 109416.66666666673,
      "d": 1216.6666666666715,
      "v": 49
    },
    {
      "midi": 46,
      "hit": false,
      "t": 110916.66666666673,
      "d": 1333.3333333333576,
      "v": 81
    },
    {
      "midi": 70,
      "hit": false,
      "t": 110966.66666666673,
      "d": 350,
      "v": 99
    },
    {
      "midi": 53,
      "hit": false,
      "t": 111316.66666666673,
      "d": 1166.666666666686,
      "v": 53
    },
    {
      "midi": 65,
      "hit": false,
      "t": 111333.3333333334,
      "d": 366.6666666666715,
      "v": 41
    },
    {
      "midi": 70,
      "hit": false,
      "t": 111700.00000000007,
      "d": 366.6666666666715,
      "v": 43
    },
    {
      "midi": 58,
      "hit": false,
      "t": 111700.00000000007,
      "d": 433.33333333334303,
      "v": 47
    },
    {
      "midi": 65,
      "hit": false,
      "t": 112083.33333333342,
      "d": 416.6666666666715,
      "v": 68
    },
    {
      "midi": 45,
      "hit": false,
      "t": 112450.00000000009,
      "d": 1233.333333333343,
      "v": 70
    },
    {
      "midi": 72,
      "hit": false,
      "t": 112483.33333333342,
      "d": 366.6666666666715,
      "v": 78
    },
    {
      "midi": 65,
      "hit": false,
      "t": 112866.66666666676,
      "d": 416.6666666666715,
      "v": 60
    },
    {
      "midi": 53,
      "hit": false,
      "t": 112866.66666666676,
      "d": 1200.0000000000146,
      "v": 64
    },
    {
      "midi": 72,
      "hit": false,
      "t": 113233.33333333343,
      "d": 383.3333333333285,
      "v": 78
    },
    {
      "midi": 58,
      "hit": false,
      "t": 113266.66666666676,
      "d": 516.6666666666715,
      "v": 43
    },
    {
      "midi": 74,
      "hit": false,
      "t": 113633.33333333343,
      "d": 383.3333333333285,
      "v": 78
    },
    {
      "midi": 46,
      "hit": false,
      "t": 114033.33333333343,
      "d": 1350.0000000000146,
      "v": 88
    },
    {
      "midi": 74,
      "hit": false,
      "t": 114050.0000000001,
      "d": 766.6666666666715,
      "v": 99
    },
    {
      "midi": 50,
      "hit": false,
      "t": 114416.66666666677,
      "d": 1183.333333333343,
      "v": 83
    },
    {
      "midi": 72,
      "hit": false,
      "t": 114800.0000000001,
      "d": 416.6666666666715,
      "v": 88
    },
    {
      "midi": 53,
      "hit": false,
      "t": 114800.0000000001,
      "d": 800.0000000000146,
      "v": 92
    },
    {
      "midi": 70,
      "hit": false,
      "t": 115166.66666666677,
      "d": 400,
      "v": 99
    },
    {
      "midi": 72,
      "hit": false,
      "t": 115566.66666666677,
      "d": 383.33333333334303,
      "v": 94
    },
    {
      "midi": 46,
      "hit": false,
      "t": 115583.33333333344,
      "d": 1116.666666666686,
      "v": 88
    },
    {
      "midi": 70,
      "hit": false,
      "t": 115916.66666666679,
      "d": 750,
      "v": 105
    },
    {
      "midi": 50,
      "hit": false,
      "t": 116316.66666666679,
      "d": 583.333333333343,
      "v": 105
    },
    {
      "midi": 53,
      "hit": false,
      "t": 116683.33333333346,
      "d": 216.66666666667152,
      "v": 112
    },
    {
      "midi": 48,
      "hit": false,
      "t": 117166.6666666668,
      "d": 1166.666666666657,
      "v": 108
    },
    {
      "midi": 51,
      "hit": false,
      "t": 117350.00000000013,
      "d": 1183.3333333333285,
      "v": 94
    },
    {
      "midi": 55,
      "hit": false,
      "t": 117550.00000000013,
      "d": 983.3333333333285,
      "v": 94
    },
    {
      "midi": 67,
      "hit": false,
      "t": 117750.00000000013,
      "d": 183.33333333332848,
      "v": 90
    },
    {
      "midi": 72,
      "hit": false,
      "t": 117933.33333333346,
      "d": 200,
      "v": 61
    },
    {
      "midi": 74,
      "hit": false,
      "t": 118133.33333333346,
      "d": 200,
      "v": 61
    },
    {
      "midi": 75,
      "hit": false,
      "t": 118333.33333333346,
      "d": 200,
      "v": 55
    },
    {
      "midi": 74,
      "hit": false,
      "t": 118533.33333333346,
      "d": 183.33333333332848,
      "v": 90
    },
    {
      "midi": 53,
      "hit": false,
      "t": 118716.66666666679,
      "d": 1366.666666666657,
      "v": 84
    },
    {
      "midi": 57,
      "hit": false,
      "t": 118916.66666666679,
      "d": 1166.666666666657,
      "v": 94
    },
    {
      "midi": 60,
      "hit": false,
      "t": 119116.66666666679,
      "d": 966.666666666657,
      "v": 84
    },
    {
      "midi": 65,
      "hit": false,
      "t": 119300.00000000012,
      "d": 400,
      "v": 79
    },
    {
      "midi": 69,
      "hit": false,
      "t": 119500.00000000012,
      "d": 200,
      "v": 75
    },
    {
      "midi": 72,
      "hit": false,
      "t": 119700.00000000012,
      "d": 383.3333333333285,
      "v": 72
    },
    {
      "midi": 69,
      "hit": false,
      "t": 119900.00000000012,
      "d": 183.33333333332848,
      "v": 61
    },
    {
      "midi": 65,
      "hit": false,
      "t": 120083.33333333344,
      "d": 200,
      "v": 99
    },
    {
      "midi": 69,
      "hit": false,
      "t": 120283.33333333344,
      "d": 583.3333333333285,
      "v": 77
    },
    {
      "midi": 50,
      "hit": false,
      "t": 120283.33333333344,
      "d": 1166.666666666657,
      "v": 90
    },
    {
      "midi": 53,
      "hit": false,
      "t": 120483.33333333344,
      "d": 966.666666666657,
      "v": 102
    },
    {
      "midi": 57,
      "hit": false,
      "t": 120666.66666666677,
      "d": 983.3333333333285,
      "v": 94
    },
    {
      "midi": 67,
      "hit": false,
      "t": 120866.66666666677,
      "d": 400,
      "v": 99
    },
    {
      "midi": 69,
      "hit": false,
      "t": 121066.66666666677,
      "d": 200,
      "v": 88
    },
    {
      "midi": 72,
      "hit": false,
      "t": 121266.66666666677,
      "d": 183.33333333332848,
      "v": 86
    },
    {
      "midi": 70,
      "hit": false,
      "t": 121450.0000000001,
      "d": 200,
      "v": 75
    },
    {
      "midi": 69,
      "hit": false,
      "t": 121650.0000000001,
      "d": 200,
      "v": 78
    },
    {
      "midi": 70,
      "hit": false,
      "t": 121850.0000000001,
      "d": 583.3333333333285,
      "v": 84
    },
    {
      "midi": 55,
      "hit": false,
      "t": 121850.0000000001,
      "d": 1366.666666666657,
      "v": 84
    },
    {
      "midi": 58,
      "hit": false,
      "t": 122050.0000000001,
      "d": 1166.666666666657,
      "v": 92
    },
    {
      "midi": 62,
      "hit": false,
      "t": 122233.33333333343,
      "d": 983.3333333333285,
      "v": 88
    },
    {
      "midi": 74,
      "hit": false,
      "t": 122433.33333333343,
      "d": 200,
      "v": 77
    },
    {
      "midi": 72,
      "hit": false,
      "t": 122633.33333333343,
      "d": 183.33333333332848,
      "v": 84
    },
    {
      "midi": 70,
      "hit": false,
      "t": 122816.66666666676,
      "d": 200,
      "v": 49
    },
    {
      "midi": 69,
      "hit": false,
      "t": 123016.66666666676,
      "d": 200,
      "v": 60
    },
    {
      "midi": 70,
      "hit": false,
      "t": 123216.66666666676,
      "d": 783.3333333333285,
      "v": 67
    },
    {
      "midi": 51,
      "hit": false,
      "t": 123416.66666666676,
      "d": 1366.666666666657,
      "v": 92
    },
    {
      "midi": 55,
      "hit": false,
      "t": 123600.00000000009,
      "d": 1183.3333333333285,
      "v": 83
    },
    {
      "midi": 58,
      "hit": false,
      "t": 123800.00000000009,
      "d": 1166.666666666657,
      "v": 70
    },
    {
      "midi": 67,
      "hit": false,
      "t": 124000.00000000009,
      "d": 383.3333333333285,
      "v": 64
    },
    {
      "midi": 70,
      "hit": false,
      "t": 124183.33333333342,
      "d": 200,
      "v": 75
    },
    {
      "midi": 74,
      "hit": false,
      "t": 124383.33333333342,
      "d": 400,
      "v": 73
    },
    {
      "midi": 70,
      "hit": false,
      "t": 124583.33333333342,
      "d": 383.3333333333285,
      "v": 40
    },
    {
      "midi": 72,
      "hit": false,
      "t": 124966.66666666674,
      "d": 583.3333333333285,
      "v": 97
    },
    {
      "midi": 53,
      "hit": false,
      "t": 124966.66666666674,
      "d": 1366.666666666657,
      "v": 92
    },
    {
      "midi": 57,
      "hit": false,
      "t": 125166.66666666674,
      "d": 1166.666666666657,
      "v": 94
    },
    {
      "midi": 60,
      "hit": false,
      "t": 125366.66666666674,
      "d": 1166.666666666657,
      "v": 83
    },
    {
      "midi": 67,
      "hit": false,
      "t": 125550.00000000007,
      "d": 400,
      "v": 77
    },
    {
      "midi": 69,
      "hit": false,
      "t": 125750.00000000007,
      "d": 200,
      "v": 77
    },
    {
      "midi": 72,
      "hit": false,
      "t": 125950.00000000007,
      "d": 383.3333333333285,
      "v": 81
    },
    {
      "midi": 70,
      "hit": false,
      "t": 126150.00000000007,
      "d": 183.33333333332848,
      "v": 52
    },
    {
      "midi": 69,
      "hit": false,
      "t": 126333.3333333334,
      "d": 200,
      "v": 77
    },
    {
      "midi": 71,
      "hit": false,
      "t": 126533.3333333334,
      "d": 583.3333333333285,
      "v": 92
    },
    {
      "midi": 55,
      "hit": false,
      "t": 126533.3333333334,
      "d": 1366.666666666657,
      "v": 105
    },
    {
      "midi": 59,
      "hit": false,
      "t": 126733.3333333334,
      "d": 1166.666666666657,
      "v": 102
    },
    {
      "midi": 62,
      "hit": false,
      "t": 126916.66666666673,
      "d": 983.3333333333285,
      "v": 90
    },
    {
      "midi": 67,
      "hit": false,
      "t": 127116.66666666673,
      "d": 400,
      "v": 90
    },
    {
      "midi": 69,
      "hit": false,
      "t": 127316.66666666673,
      "d": 200,
      "v": 46
    },
    {
      "midi": 71,
      "hit": false,
      "t": 127516.66666666673,
      "d": 183.33333333332848,
      "v": 49
    },
    {
      "midi": 74,
      "hit": false,
      "t": 127700.00000000006,
      "d": 200,
      "v": 99
    },
    {
      "midi": 71,
      "hit": false,
      "t": 127900.00000000006,
      "d": 200,
      "v": 74
    },
    {
      "midi": 75,
      "hit": false,
      "t": 128100.00000000006,
      "d": 783.3333333333285,
      "v": 124
    },
    {
      "midi": 48,
      "hit": false,
      "t": 128100.00000000006,
      "d": 1366.666666666657,
      "v": 99
    },
    {
      "midi": 51,
      "hit": false,
      "t": 128283.33333333339,
      "d": 1183.3333333333285,
      "v": 78
    },
    {
      "midi": 55,
      "hit": false,
      "t": 128483.33333333339,
      "d": 983.3333333333285,
      "v": 68
    },
    {
      "midi": 72,
      "hit": false,
      "t": 128883.33333333339,
      "d": 383.3333333333285,
      "v": 92
    },
    {
      "midi": 74,
      "hit": false,
      "t": 129066.66666666672,
      "d": 200,
      "v": 75
    },
    {
      "midi": 75,
      "hit": false,
      "t": 129266.66666666672,
      "d": 200,
      "v": 65
    },
    {
      "midi": 77,
      "hit": false,
      "t": 129466.66666666672,
      "d": 183.33333333332848,
      "v": 88
    },
    {
      "midi": 75,
      "hit": false,
      "t": 129650.00000000004,
      "d": 200,
      "v": 70
    },
    {
      "midi": 53,
      "hit": false,
      "t": 129650.00000000004,
      "d": 3133.3333333332994,
      "v": 108
    },
    {
      "midi": 57,
      "hit": false,
      "t": 129850.00000000004,
      "d": 2733.3333333332994,
      "v": 99
    },
    {
      "midi": 60,
      "hit": false,
      "t": 130050.00000000004,
      "d": 2533.3333333332994,
      "v": 102
    },
    {
      "midi": 65,
      "hit": false,
      "t": 130250.00000000004,
      "d": 383.3333333333285,
      "v": 79
    },
    {
      "midi": 69,
      "hit": false,
      "t": 130433.33333333337,
      "d": 400,
      "v": 99
    },
    {
      "midi": 72,
      "hit": false,
      "t": 130833.33333333337,
      "d": 183.33333333332848,
      "v": 56
    },
    {
      "midi": 77,
      "hit": false,
      "t": 131016.6666666667,
      "d": 399.99999999998545,
      "v": 90
    },
    {
      "midi": 81,
      "hit": false,
      "t": 131216.6666666667,
      "d": 400,
      "v": 90
    },
    {
      "midi": 84,
      "hit": false,
      "t": 131416.6666666667,
      "d": 1166.666666666657,
      "v": 77
    },
    {
      "midi": 46,
      "hit": false,
      "t": 132783.33333333334,
      "d": 2333.333333333372,
      "v": 88
    },
    {
      "midi": 53,
      "hit": false,
      "t": 133166.6666666667,
      "d": 1950.000000000029,
      "v": 77
    },
    {
      "midi": 74,
      "hit": false,
      "t": 133199.99999999994,
      "d": 383.33333333334303,
      "v": 59
    },
    {
      "midi": 77,
      "hit": false,
      "t": 133549.99999999994,
      "d": 266.66666666668607,
      "v": 90
    },
    {
      "midi": 74,
      "hit": false,
      "t": 133566.6666666667,
      "d": 583.333333333343,
      "v": 69
    },
    {
      "midi": 70,
      "hit": false,
      "t": 133750.00000000003,
      "d": 600,
      "v": 62
    },
    {
      "midi": 79,
      "hit": false,
      "t": 133899.99999999997,
      "d": 400,
      "v": 75
    },
    {
      "midi": 82,
      "hit": false,
      "t": 134299.99999999997,
      "d": 1216.666666666657,
      "v": 90
    },
    {
      "midi": 58,
      "hit": false,
      "t": 134350.00000000003,
      "d": 583.333333333343,
      "v": 92
    },
    {
      "midi": 65,
      "hit": false,
      "t": 134350.00000000003,
      "d": 583.333333333343,
      "v": 86
    },
    {
      "midi": 74,
      "hit": false,
      "t": 134533.33333333337,
      "d": 1183.333333333343,
      "v": 94
    },
    {
      "midi": 70,
      "hit": false,
      "t": 134933.33333333337,
      "d": 183.33333333334303,
      "v": 55
    },
    {
      "midi": 65,
      "hit": false,
      "t": 135116.66666666672,
      "d": 783.333333333343,
      "v": 55
    },
    {
      "midi": 69,
      "hit": false,
      "t": 135316.66666666672,
      "d": 400,
      "v": 73
    },
    {
      "midi": 41,
      "hit": false,
      "t": 135900.00000000006,
      "d": 1183.333333333343,
      "v": 84
    },
    {
      "midi": 81,
      "hit": false,
      "t": 135916.66666666663,
      "d": 383.33333333334303,
      "v": 102
    },
    {
      "midi": 48,
      "hit": false,
      "t": 136100.00000000006,
      "d": 1166.666666666686,
      "v": 74
    },
    {
      "midi": 77,
      "hit": false,
      "t": 136349.99999999997,
      "d": 333.33333333334303,
      "v": 94
    },
    {
      "midi": 65,
      "hit": false,
      "t": 136483.3333333334,
      "d": 983.333333333343,
      "v": 108
    },
    {
      "midi": 53,
      "hit": false,
      "t": 136683.3333333334,
      "d": 400,
      "v": 45
    },
    {
      "midi": 81,
      "hit": false,
      "t": 136699.99999999997,
      "d": 350,
      "v": 97
    },
    {
      "midi": 72,
      "hit": false,
      "t": 136883.3333333334,
      "d": 583.333333333343,
      "v": 77
    },
    {
      "midi": 84,
      "hit": false,
      "t": 137049.99999999997,
      "d": 416.66666666665697,
      "v": 79
    },
    {
      "midi": 82,
      "hit": false,
      "t": 137449.99999999997,
      "d": 350,
      "v": 105
    },
    {
      "midi": 43,
      "hit": false,
      "t": 137466.66666666674,
      "d": 1166.666666666686,
      "v": 77
    },
    {
      "midi": 79,
      "hit": false,
      "t": 137849.99999999997,
      "d": 450,
      "v": 97
    },
    {
      "midi": 50,
      "hit": false,
      "t": 137850.0000000001,
      "d": 783.333333333343,
      "v": 66
    },
    {
      "midi": 70,
      "hit": false,
      "t": 138250.0000000001,
      "d": 783.333333333343,
      "v": 99
    },
    {
      "midi": 82,
      "hit": false,
      "t": 138266.66666666663,
      "d": 400.0000000000291,
      "v": 84
    },
    {
      "midi": 84,
      "hit": false,
      "t": 138633.3333333333,
      "d": 450.0000000000291,
      "v": 99
    },
    {
      "midi": 62,
      "hit": false,
      "t": 138633.33333333343,
      "d": 400,
      "v": 94
    },
    {
      "midi": 67,
      "hit": false,
      "t": 138633.33333333343,
      "d": 400,
      "v": 92
    },
    {
      "midi": 51,
      "hit": false,
      "t": 139033.33333333343,
      "d": 1166.666666666686,
      "v": 90
    },
    {
      "midi": 86,
      "hit": false,
      "t": 139050,
      "d": 433.33333333334303,
      "v": 75
    },
    {
      "midi": 55,
      "hit": false,
      "t": 139416.66666666677,
      "d": 983.333333333343,
      "v": 66
    },
    {
      "midi": 84,
      "hit": false,
      "t": 139450,
      "d": 366.66666666668607,
      "v": 115
    },
    {
      "midi": 63,
      "hit": false,
      "t": 139816.66666666677,
      "d": 783.333333333343,
      "v": 79
    },
    {
      "midi": 70,
      "hit": false,
      "t": 139816.66666666677,
      "d": 783.333333333343,
      "v": 102
    },
    {
      "midi": 82,
      "hit": false,
      "t": 139833.33333333334,
      "d": 850,
      "v": 86
    },
    {
      "midi": 67,
      "hit": false,
      "t": 140200.00000000012,
      "d": 200,
      "v": 83
    },
    {
      "midi": 69,
      "hit": false,
      "t": 140400.00000000012,
      "d": 200,
      "v": 79
    },
    {
      "midi": 53,
      "hit": false,
      "t": 140600.00000000012,
      "d": 966.6666666666861,
      "v": 92
    },
    {
      "midi": 57,
      "hit": false,
      "t": 140783.33333333346,
      "d": 983.333333333343,
      "v": 62
    },
    {
      "midi": 81,
      "hit": false,
      "t": 141000,
      "d": 350,
      "v": 86
    },
    {
      "midi": 79,
      "hit": false,
      "t": 141366.66666666666,
      "d": 350,
      "v": 78
    },
    {
      "midi": 65,
      "hit": false,
      "t": 141366.6666666668,
      "d": 200,
      "v": 66
    },
    {
      "midi": 72,
      "hit": false,
      "t": 141366.6666666668,
      "d": 400,
      "v": 105
    },
    {
      "midi": 77,
      "hit": false,
      "t": 141750,
      "d": 366.66666666665697,
      "v": 86
    },
    {
      "midi": 65,
      "hit": false,
      "t": 141766.6666666668,
      "d": 200,
      "v": 81
    },
    {
      "midi": 69,
      "hit": false,
      "t": 141766.6666666668,
      "d": 200,
      "v": 102
    },
    {
      "midi": 86,
      "hit": false,
      "t": 142116.66666666666,
      "d": 683.333333333343,
      "v": 105
    },
    {
      "midi": 65,
      "hit": false,
      "t": 142150.00000000015,
      "d": 583.333333333343,
      "v": 40
    },
    {
      "midi": 70,
      "hit": false,
      "t": 142150.00000000015,
      "d": 783.333333333343,
      "v": 92
    },
    {
      "midi": 74,
      "hit": false,
      "t": 142150.00000000015,
      "d": 1366.666666666686,
      "v": 88
    },
    {
      "midi": 46,
      "hit": false,
      "t": 142150.00000000015,
      "d": 2350.000000000029,
      "v": 88
    },
    {
      "midi": 53,
      "hit": false,
      "t": 142550.00000000015,
      "d": 1950.000000000029,
      "v": 81
    },
    {
      "midi": 84,
      "hit": false,
      "t": 142766.66666666666,
      "d": 216.66666666665697,
      "v": 94
    },
    {
      "midi": 65,
      "hit": false,
      "t": 142933.3333333335,
      "d": 583.333333333343,
      "v": 119
    },
    {
      "midi": 86,
      "hit": false,
      "t": 142966.66666666666,
      "d": 216.66666666665697,
      "v": 94
    },
    {
      "midi": 84,
      "hit": false,
      "t": 143149.99999999997,
      "d": 233.33333333334303,
      "v": 68
    },
    {
      "midi": 70,
      "hit": false,
      "t": 143333.3333333335,
      "d": 183.33333333334303,
      "v": 86
    },
    {
      "midi": 82,
      "hit": false,
      "t": 143349.99999999997,
      "d": 950,
      "v": 83
    },
    {
      "midi": 70,
      "hit": false,
      "t": 143716.66666666683,
      "d": 583.333333333343,
      "v": 84
    },
    {
      "midi": 74,
      "hit": false,
      "t": 143716.66666666683,
      "d": 583.333333333343,
      "v": 79
    },
    {
      "midi": 68,
      "hit": false,
      "t": 143716.66666666683,
      "d": 783.333333333343,
      "v": 105
    },
    {
      "midi": 58,
      "hit": false,
      "t": 143716.66666666683,
      "d": 983.333333333343,
      "v": 25
    },
    {
      "midi": 65,
      "hit": false,
      "t": 143716.66666666683,
      "d": 1566.666666666686,
      "v": 79
    },
    {
      "midi": 74,
      "hit": false,
      "t": 144500.00000000017,
      "d": 783.333333333343,
      "v": 99
    },
    {
      "midi": 68,
      "hit": false,
      "t": 144883.33333333352,
      "d": 400,
      "v": 86
    },
    {
      "midi": 51,
      "hit": false,
      "t": 145283.33333333352,
      "d": 1166.666666666686,
      "v": 64
    },
    {
      "midi": 75,
      "hit": false,
      "t": 145333.3333333333,
      "d": 316.66666666665697,
      "v": 99
    },
    {
      "midi": 79,
      "hit": false,
      "t": 145666.66666666663,
      "d": 383.33333333331393,
      "v": 115
    },
    {
      "midi": 55,
      "hit": false,
      "t": 145666.66666666686,
      "d": 783.333333333343,
      "v": 54
    },
    {
      "midi": 58,
      "hit": false,
      "t": 145866.66666666686,
      "d": 966.6666666666861,
      "v": 79
    },
    {
      "midi": 82,
      "hit": false,
      "t": 146033.33333333328,
      "d": 416.66666666665697,
      "v": 108
    },
    {
      "midi": 63,
      "hit": false,
      "t": 146066.66666666686,
      "d": 583.333333333343,
      "v": 88
    },
    {
      "midi": 70,
      "hit": false,
      "t": 146250.0000000002,
      "d": 400,
      "v": 78
    },
    {
      "midi": 86,
      "hit": false,
      "t": 146433.33333333328,
      "d": 399.9999999999709,
      "v": 105
    },
    {
      "midi": 67,
      "hit": false,
      "t": 146450.0000000002,
      "d": 200,
      "v": 83
    },
    {
      "midi": 84,
      "hit": false,
      "t": 146816.6666666666,
      "d": 1233.333333333314,
      "v": 90
    },
    {
      "midi": 65,
      "hit": false,
      "t": 146833.33333333355,
      "d": 600,
      "v": 66
    },
    {
      "midi": 72,
      "hit": false,
      "t": 146833.33333333355,
      "d": 600,
      "v": 73
    },
    {
      "midi": 69,
      "hit": false,
      "t": 146833.33333333355,
      "d": 783.333333333343,
      "v": 67
    },
    {
      "midi": 53,
      "hit": false,
      "t": 146833.33333333355,
      "d": 983.333333333343,
      "v": 90
    },
    {
      "midi": 57,
      "hit": false,
      "t": 147233.33333333355,
      "d": 583.333333333343,
      "v": 68
    },
    {
      "midi": 60,
      "hit": false,
      "t": 147433.33333333355,
      "d": 383.33333333334303,
      "v": 77
    },
    {
      "midi": 65,
      "hit": false,
      "t": 147616.6666666669,
      "d": 400,
      "v": 84
    },
    {
      "midi": 72,
      "hit": false,
      "t": 147816.6666666669,
      "d": 583.333333333343,
      "v": 81
    },
    {
      "midi": 69,
      "hit": false,
      "t": 148016.6666666669,
      "d": 383.33333333334303,
      "v": 88
    },
    {
      "midi": 65,
      "hit": false,
      "t": 148200.00000000023,
      "d": 600,
      "v": 77
    },
    {
      "midi": 78,
      "hit": false,
      "t": 148399.9999999999,
      "d": 333.33333333334303,
      "v": 102
    },
    {
      "midi": 50,
      "hit": false,
      "t": 148400.00000000023,
      "d": 1166.666666666686,
      "v": 86
    },
    {
      "midi": 74,
      "hit": false,
      "t": 148783.33333333326,
      "d": 383.33333333334303,
      "v": 90
    },
    {
      "midi": 54,
      "hit": false,
      "t": 148800.00000000023,
      "d": 583.333333333343,
      "v": 75
    },
    {
      "midi": 57,
      "hit": false,
      "t": 148983.33333333358,
      "d": 583.333333333343,
      "v": 92
    },
    {
      "midi": 78,
      "hit": false,
      "t": 149166.6666666666,
      "d": 133.33333333334303,
      "v": 115
    },
    {
      "midi": 66,
      "hit": false,
      "t": 149183.33333333358,
      "d": 200,
      "v": 31
    },
    {
      "midi": 79,
      "hit": false,
      "t": 149366.6666666666,
      "d": 216.66666666668607,
      "v": 108
    },
    {
      "midi": 67,
      "hit": false,
      "t": 149383.33333333358,
      "d": 383.33333333334303,
      "v": 73
    },
    {
      "midi": 81,
      "hit": false,
      "t": 149549.99999999994,
      "d": 250,
      "v": 102
    },
    {
      "midi": 69,
      "hit": false,
      "t": 149566.66666666692,
      "d": 200,
      "v": 70
    },
    {
      "midi": 84,
      "hit": false,
      "t": 149749.99999999994,
      "d": 233.33333333334303,
      "v": 112
    },
    {
      "midi": 70,
      "hit": false,
      "t": 149766.66666666692,
      "d": 983.333333333343,
      "v": 70
    },
    {
      "midi": 82,
      "hit": false,
      "t": 149949.99999999994,
      "d": 1350,
      "v": 108
    },
    {
      "midi": 43,
      "hit": false,
      "t": 149966.66666666692,
      "d": 1166.666666666686,
      "v": 83
    },
    {
      "midi": 50,
      "hit": false,
      "t": 150350.00000000026,
      "d": 783.333333333343,
      "v": 62
    },
    {
      "midi": 55,
      "hit": false,
      "t": 150550.00000000026,
      "d": 783.333333333343,
      "v": 42
    },
    {
      "midi": 67,
      "hit": false,
      "t": 150750.00000000026,
      "d": 383.33333333334303,
      "v": 70
    },
    {
      "midi": 74,
      "hit": false,
      "t": 150750.00000000026,
      "d": 583.333333333343,
      "v": 94
    },
    {
      "midi": 70,
      "hit": false,
      "t": 151133.3333333336,
      "d": 400,
      "v": 97
    },
    {
      "midi": 67,
      "hit": false,
      "t": 151333.3333333336,
      "d": 200,
      "v": 62
    },
    {
      "midi": 84,
      "hit": false,
      "t": 151533.33333333328,
      "d": 333.33333333334303,
      "v": 119
    },
    {
      "midi": 48,
      "hit": false,
      "t": 151533.3333333336,
      "d": 1166.666666666686,
      "v": 72
    },
    {
      "midi": 79,
      "hit": false,
      "t": 151899.99999999997,
      "d": 350,
      "v": 105
    },
    {
      "midi": 55,
      "hit": false,
      "t": 151916.66666666695,
      "d": 783.333333333343,
      "v": 81
    },
    {
      "midi": 75,
      "hit": false,
      "t": 152283.3333333333,
      "d": 383.33333333334303,
      "v": 105
    },
    {
      "midi": 67,
      "hit": false,
      "t": 152300.0000000003,
      "d": 200,
      "v": 83
    },
    {
      "midi": 63,
      "hit": false,
      "t": 152300.0000000003,
      "d": 400,
      "v": 81
    },
    {
      "midi": 70,
      "hit": false,
      "t": 152300.0000000003,
      "d": 783.333333333343,
      "v": 88
    },
    {
      "midi": 67,
      "hit": false,
      "t": 152700.0000000003,
      "d": 383.33333333334303,
      "v": 59
    },
    {
      "midi": 84,
      "hit": false,
      "t": 152716.66666666666,
      "d": 433.33333333334303,
      "v": 115
    },
    {
      "midi": 63,
      "hit": false,
      "t": 152900.0000000003,
      "d": 183.33333333334303,
      "v": 68
    },
    {
      "midi": 53,
      "hit": false,
      "t": 152900.0000000003,
      "d": 1366.666666666686,
      "v": 73
    },
    {
      "midi": 57,
      "hit": false,
      "t": 153083.33333333363,
      "d": 1366.666666666686,
      "v": 81
    },
    {
      "midi": 81,
      "hit": false,
      "t": 153116.66666666666,
      "d": 1683.333333333343,
      "v": 92
    },
    {
      "midi": 60,
      "hit": false,
      "t": 153283.33333333363,
      "d": 1166.666666666686,
      "v": 78
    },
    {
      "midi": 65,
      "hit": false,
      "t": 153483.33333333363,
      "d": 783.333333333343,
      "v": 68
    },
    {
      "midi": 72,
      "hit": false,
      "t": 153866.66666666698,
      "d": 1183.333333333343,
      "v": 74
    },
    {
      "midi": 69,
      "hit": false,
      "t": 154266.66666666698,
      "d": 966.6666666666861,
      "v": 84
    },
    {
      "midi": 53,
      "hit": false,
      "t": 154650.00000000032,
      "d": 2533.333333333372,
      "v": 92
    },
    {
      "midi": 57,
      "hit": false,
      "t": 155050.00000000032,
      "d": 2133.333333333372,
      "v": 79
    },
    {
      "midi": 81,
      "hit": false,
      "t": 155066.66666666666,
      "d": 383.33333333334303,
      "v": 97
    },
    {
      "midi": 60,
      "hit": false,
      "t": 155233.33333333366,
      "d": 1950.000000000029,
      "v": 83
    },
    {
      "midi": 82,
      "hit": false,
      "t": 155416.66666666666,
      "d": 133.33333333334303,
      "v": 119
    },
    {
      "midi": 65,
      "hit": false,
      "t": 155433.33333333366,
      "d": 200,
      "v": 97
    },
    {
      "midi": 84,
      "hit": false,
      "t": 155616.66666666666,
      "d": 250,
      "v": 69
    },
    {
      "midi": 69,
      "hit": false,
      "t": 155633.33333333366,
      "d": 183.33333333334303,
      "v": 43
    },
    {
      "midi": 86,
      "hit": false,
      "t": 155816.66666666666,
      "d": 400,
      "v": 73
    },
    {
      "midi": 72,
      "hit": false,
      "t": 155816.666666667,
      "d": 400,
      "v": 68
    },
    {
      "midi": 87,
      "hit": false,
      "t": 156183.3333333333,
      "d": 683.333333333343,
      "v": 65
    },
    {
      "midi": 75,
      "hit": false,
      "t": 156216.666666667,
      "d": 783.333333333343,
      "v": 43
    },
    {
      "midi": 46,
      "hit": false,
      "t": 157733.3333333337,
      "d": 1266.666666666657,
      "v": 83
    },
    {
      "midi": 53,
      "hit": false,
      "t": 158150.00000000035,
      "d": 783.333333333343,
      "v": 58
    },
    {
      "midi": 58,
      "hit": false,
      "t": 158350.00000000035,
      "d": 533.333333333343,
      "v": 62
    },
    {
      "midi": 65,
      "hit": false,
      "t": 158550.00000000035,
      "d": 866.6666666666861,
      "v": 70
    },
    {
      "midi": 74,
      "hit": false,
      "t": 158883.3333333337,
      "d": 600,
      "v": 75
    },
    {
      "midi": 70,
      "hit": false,
      "t": 159083.3333333337,
      "d": 300,
      "v": 49
    },
    {
      "midi": 43,
      "hit": false,
      "t": 159250.00000000035,
      "d": 1066.666666666657,
      "v": 66
    },
    {
      "midi": 50,
      "hit": false,
      "t": 159683.3333333337,
      "d": 683.3333333333139,
      "v": 61
    },
    {
      "midi": 55,
      "hit": false,
      "t": 159850.00000000035,
      "d": 800,
      "v": 57
    },
    {
      "midi": 62,
      "hit": false,
      "t": 160066.666666667,
      "d": 800,
      "v": 54
    },
    {
      "midi": 70,
      "hit": false,
      "t": 160066.666666667,
      "d": 833.333333333343,
      "v": 81
    },
    {
      "midi": 67,
      "hit": false,
      "t": 160466.666666667,
      "d": 433.33333333334303,
      "v": 78
    },
    {
      "midi": 48,
      "hit": false,
      "t": 160850.00000000035,
      "d": 1049.999999999971,
      "v": 68
    },
    {
      "midi": 55,
      "hit": false,
      "t": 161216.666666667,
      "d": 616.666666666657,
      "v": 57
    },
    {
      "midi": 72,
      "hit": false,
      "t": 161233.33333333366,
      "d": 1233.333333333314,
      "v": 72
    },
    {
      "midi": 60,
      "hit": false,
      "t": 161466.666666667,
      "d": 300,
      "v": 65
    },
    {
      "midi": 63,
      "hit": false,
      "t": 161666.666666667,
      "d": 599.9999999999709,
      "v": 83
    },
    {
      "midi": 69,
      "hit": false,
      "t": 162066.66666666698,
      "d": 100,
      "v": 52
    },
    {
      "midi": 67,
      "hit": false,
      "t": 162200.00000000032,
      "d": 216.66666666665697,
      "v": 55
    },
    {
      "midi": 41,
      "hit": false,
      "t": 162416.66666666698,
      "d": 966.6666666666861,
      "v": 83
    },
    {
      "midi": 48,
      "hit": false,
      "t": 162800.00000000032,
      "d": 633.333333333343,
      "v": 54
    },
    {
      "midi": 53,
      "hit": false,
      "t": 162983.33333333366,
      "d": 566.666666666657,
      "v": 62
    },
    {
      "midi": 60,
      "hit": false,
      "t": 163216.666666667,
      "d": 683.3333333333139,
      "v": 81
    },
    {
      "midi": 69,
      "hit": false,
      "t": 163550.00000000032,
      "d": 483.33333333331393,
      "v": 45
    },
    {
      "midi": 65,
      "hit": false,
      "t": 163733.33333333366,
      "d": 366.66666666662786,
      "v": 59
    },
    {
      "midi": 50,
      "hit": false,
      "t": 163966.66666666698,
      "d": 1166.6666666666279,
      "v": 78
    },
    {
      "midi": 57,
      "hit": false,
      "t": 164383.33333333363,
      "d": 733.3333333333139,
      "v": 60
    },
    {
      "midi": 62,
      "hit": false,
      "t": 164800.0000000003,
      "d": 749.9999999999709,
      "v": 75
    },
    {
      "midi": 69,
      "hit": false,
      "t": 165183.3333333336,
      "d": 316.66666666665697,
      "v": 62
    },
    {
      "midi": 65,
      "hit": false,
      "t": 165383.3333333336,
      "d": 200,
      "v": 70
    },
    {
      "midi": 43,
      "hit": false,
      "t": 165583.3333333336,
      "d": 933.3333333333139,
      "v": 79
    },
    {
      "midi": 50,
      "hit": false,
      "t": 165950.00000000026,
      "d": 566.666666666657,
      "v": 65
    },
    {
      "midi": 55,
      "hit": false,
      "t": 166150.00000000026,
      "d": 483.33333333334303,
      "v": 79
    },
    {
      "midi": 67,
      "hit": false,
      "t": 166350.00000000026,
      "d": 466.66666666665697,
      "v": 94
    },
    {
      "midi": 74,
      "hit": false,
      "t": 166550.00000000026,
      "d": 300,
      "v": 88
    },
    {
      "midi": 70,
      "hit": false,
      "t": 166750.00000000026,
      "d": 216.66666666665697,
      "v": 61
    },
    {
      "midi": 69,
      "hit": false,
      "t": 166950.00000000026,
      "d": 216.66666666665697,
      "v": 77
    },
    {
      "midi": 51,
      "hit": false,
      "t": 167150.00000000026,
      "d": 966.6666666666861,
      "v": 74
    },
    {
      "midi": 67,
      "hit": false,
      "t": 167166.66666666692,
      "d": 716.6666666666861,
      "v": 86
    },
    {
      "midi": 55,
      "hit": false,
      "t": 167550.00000000026,
      "d": 583.333333333343,
      "v": 90
    },
    {
      "midi": 58,
      "hit": false,
      "t": 167750.00000000026,
      "d": 316.66666666668607,
      "v": 90
    },
    {
      "midi": 63,
      "hit": false,
      "t": 167933.3333333336,
      "d": 416.66666666665697,
      "v": 81
    },
    {
      "midi": 70,
      "hit": false,
      "t": 168116.66666666695,
      "d": 633.3333333333139,
      "v": 90
    },
    {
      "midi": 67,
      "hit": false,
      "t": 168333.3333333336,
      "d": 416.66666666665697,
      "v": 84
    },
    {
      "midi": 41,
      "hit": false,
      "t": 168700.00000000026,
      "d": 933.333333333343,
      "v": 81
    },
    {
      "midi": 65,
      "hit": false,
      "t": 168750.00000000026,
      "d": 733.333333333343,
      "v": 88
    },
    {
      "midi": 48,
      "hit": false,
      "t": 169133.3333333336,
      "d": 533.333333333343,
      "v": 65
    },
    {
      "midi": 53,
      "hit": false,
      "t": 169316.66666666695,
      "d": 450,
      "v": 88
    },
    {
      "midi": 60,
      "hit": false,
      "t": 169516.66666666695,
      "d": 383.33333333334303,
      "v": 81
    },
    {
      "midi": 65,
      "hit": false,
      "t": 169866.66666666695,
      "d": 433.33333333334303,
      "v": 90
    },
    {
      "midi": 46,
      "hit": false,
      "t": 170250.0000000003,
      "d": 1316.666666666657,
      "v": 78
    },
    {
      "midi": 53,
      "hit": false,
      "t": 170650.0000000003,
      "d": 833.3333333333139,
      "v": 94
    },
    {
      "midi": 58,
      "hit": false,
      "t": 170866.66666666695,
      "d": 566.666666666657,
      "v": 57
    },
    {
      "midi": 70,
      "hit": false,
      "t": 171066.66666666695,
      "d": 833.333333333343,
      "v": 92
    },
    {
      "midi": 65,
      "hit": false,
      "t": 171433.3333333336,
      "d": 383.33333333334303,
      "v": 81
    },
    {
      "midi": 62,
      "hit": false,
      "t": 171633.3333333336,
      "d": 233.33333333334303,
      "v": 94
    },
    {
      "midi": 43,
      "hit": false,
      "t": 171833.3333333336,
      "d": 1083.333333333343,
      "v": 73
    },
    {
      "midi": 50,
      "hit": false,
      "t": 172216.66666666695,
      "d": 716.666666666657,
      "v": 84
    },
    {
      "midi": 55,
      "hit": false,
      "t": 172400.0000000003,
      "d": 783.3333333333139,
      "v": 60
    },
    {
      "midi": 62,
      "hit": false,
      "t": 172600.0000000003,
      "d": 433.33333333331393,
      "v": 66
    },
    {
      "midi": 70,
      "hit": false,
      "t": 172600.0000000003,
      "d": 733.3333333333139,
      "v": 74
    },
    {
      "midi": 67,
      "hit": false,
      "t": 172966.66666666695,
      "d": 416.66666666665697,
      "v": 102
    },
    {
      "midi": 48,
      "hit": false,
      "t": 173366.66666666695,
      "d": 1200,
      "v": 75
    },
    {
      "midi": 55,
      "hit": false,
      "t": 173750.00000000026,
      "d": 766.6666666666861,
      "v": 73
    },
    {
      "midi": 72,
      "hit": false,
      "t": 174133.3333333336,
      "d": 750,
      "v": 86
    },
    {
      "midi": 63,
      "hit": false,
      "t": 174166.66666666695,
      "d": 66.66666666665697,
      "v": 50
    },
    {
      "midi": 67,
      "hit": false,
      "t": 174516.66666666695,
      "d": 200,
      "v": 90
    },
    {
      "midi": 63,
      "hit": false,
      "t": 174716.66666666695,
      "d": 200,
      "v": 102
    },
    {
      "midi": 41,
      "hit": false,
      "t": 174916.66666666695,
      "d": 916.666666666657,
      "v": 78
    },
    {
      "midi": 48,
      "hit": false,
      "t": 175250.0000000003,
      "d": 633.3333333333139,
      "v": 36
    },
    {
      "midi": 53,
      "hit": false,
      "t": 175400.0000000003,
      "d": 599.9999999999709,
      "v": 84
    },
    {
      "midi": 69,
      "hit": false,
      "t": 175716.66666666695,
      "d": 583.3333333333139,
      "v": 92
    },
    {
      "midi": 65,
      "hit": false,
      "t": 176116.66666666692,
      "d": 450,
      "v": 88
    },
    {
      "midi": 50,
      "hit": false,
      "t": 176516.66666666692,
      "d": 1116.666666666657,
      "v": 88
    },
    {
      "midi": 53,
      "hit": false,
      "t": 176833.33333333358,
      "d": 800,
      "v": 94
    },
    {
      "midi": 57,
      "hit": false,
      "t": 177050.00000000023,
      "d": 533.333333333343,
      "v": 94
    },
    {
      "midi": 62,
      "hit": false,
      "t": 177233.33333333358,
      "d": 433.33333333334303,
      "v": 88
    },
    {
      "midi": 69,
      "hit": false,
      "t": 177466.66666666692,
      "d": 400,
      "v": 74
    },
    {
      "midi": 65,
      "hit": false,
      "t": 177683.33333333358,
      "d": 183.33333333334303,
      "v": 68
    },
    {
      "midi": 62,
      "hit": false,
      "t": 177883.33333333358,
      "d": 233.33333333331393,
      "v": 83
    },
    {
      "midi": 43,
      "hit": false,
      "t": 178100.00000000023,
      "d": 1199.999999999971,
      "v": 77
    },
    {
      "midi": 67,
      "hit": false,
      "t": 178116.6666666669,
      "d": 733.333333333343,
      "v": 88
    },
    {
      "midi": 50,
      "hit": false,
      "t": 178500.00000000023,
      "d": 799.9999999999709,
      "v": 51
    },
    {
      "midi": 55,
      "hit": false,
      "t": 178700.00000000023,
      "d": 699.9999999999709,
      "v": 78
    },
    {
      "midi": 62,
      "hit": false,
      "t": 178916.6666666669,
      "d": 366.66666666665697,
      "v": 78
    },
    {
      "midi": 70,
      "hit": false,
      "t": 179116.6666666669,
      "d": 433.33333333331393,
      "v": 77
    },
    {
      "midi": 67,
      "hit": false,
      "t": 179333.33333333355,
      "d": 300,
      "v": 92
    },
    {
      "midi": 62,
      "hit": false,
      "t": 179500.0000000002,
      "d": 133.33333333334303,
      "v": 55
    },
    {
      "midi": 51,
      "hit": false,
      "t": 179666.6666666669,
      "d": 933.333333333343,
      "v": 83
    },
    {
      "midi": 55,
      "hit": false,
      "t": 180000.00000000023,
      "d": 583.333333333343,
      "v": 52
    },
    {
      "midi": 58,
      "hit": false,
      "t": 180200.00000000023,
      "d": 333.33333333334303,
      "v": 65
    },
    {
      "midi": 63,
      "hit": false,
      "t": 180383.33333333358,
      "d": 400,
      "v": 84
    },
    {
      "midi": 70,
      "hit": false,
      "t": 180566.66666666692,
      "d": 550,
      "v": 90
    },
    {
      "midi": 67,
      "hit": false,
      "t": 180783.33333333358,
      "d": 383.33333333334303,
      "v": 75
    },
    {
      "midi": 53,
      "hit": false,
      "t": 181200.00000000026,
      "d": 600,
      "v": 90
    },
    {
      "midi": 57,
      "hit": false,
      "t": 181400.00000000026,
      "d": 583.333333333343,
      "v": 66
    },
    {
      "midi": 60,
      "hit": false,
      "t": 181566.66666666692,
      "d": 783.333333333343,
      "v": 70
    },
    {
      "midi": 70,
      "hit": false,
      "t": 182816.66666666692,
      "d": 66.66666666665697,
      "v": 81
    },
    {
      "midi": 66,
      "hit": false,
      "t": 182816.66666666692,
      "d": 83.33333333331393,
      "v": 79
    },
    {
      "midi": 73,
      "hit": false,
      "t": 182816.66666666692,
      "d": 83.33333333331393,
      "v": 79
    },
    {
      "midi": 61,
      "hit": false,
      "t": 182816.66666666692,
      "d": 116.66666666665697,
      "v": 92
    },
    {
      "midi": 70,
      "hit": false,
      "t": 183166.66666666692,
      "d": 66.66666666665697,
      "v": 92
    },
    {
      "midi": 61,
      "hit": false,
      "t": 183166.66666666692,
      "d": 83.33333333331393,
      "v": 81
    },
    {
      "midi": 66,
      "hit": false,
      "t": 183166.66666666692,
      "d": 83.33333333331393,
      "v": 78
    },
    {
      "midi": 73,
      "hit": false,
      "t": 183166.66666666692,
      "d": 83.33333333331393,
      "v": 73
    },
    {
      "midi": 61,
      "hit": false,
      "t": 183500.00000000023,
      "d": 99.9999999999709,
      "v": 83
    },
    {
      "midi": 70,
      "hit": false,
      "t": 183516.6666666669,
      "d": 83.33333333331393,
      "v": 83
    },
    {
      "midi": 73,
      "hit": false,
      "t": 183516.6666666669,
      "d": 83.33333333331393,
      "v": 75
    },
    {
      "midi": 66,
      "hit": false,
      "t": 183533.33333333355,
      "d": 66.66666666665697,
      "v": 88
    },
    {
      "midi": 61,
      "hit": false,
      "t": 183916.66666666686,
      "d": 216.66666666665697,
      "v": 88
    },
    {
      "midi": 70,
      "hit": false,
      "t": 183933.33333333352,
      "d": 250,
      "v": 74
    },
    {
      "midi": 66,
      "hit": false,
      "t": 183933.33333333352,
      "d": 266.66666666665697,
      "v": 77
    },
    {
      "midi": 73,
      "hit": false,
      "t": 183933.33333333352,
      "d": 266.66666666665697,
      "v": 70
    },
    {
      "midi": 47,
      "hit": false,
      "t": 184333.33333333352,
      "d": 1266.666666666657,
      "v": 83
    },
    {
      "midi": 54,
      "hit": false,
      "t": 184750.00000000017,
      "d": 783.333333333343,
      "v": 58
    },
    {
      "midi": 59,
      "hit": false,
      "t": 184950.00000000017,
      "d": 533.333333333343,
      "v": 62
    },
    {
      "midi": 66,
      "hit": false,
      "t": 185150.00000000017,
      "d": 866.6666666666861,
      "v": 70
    },
    {
      "midi": 75,
      "hit": false,
      "t": 185483.33333333352,
      "d": 600,
      "v": 75
    },
    {
      "midi": 71,
      "hit": false,
      "t": 185683.33333333352,
      "d": 300,
      "v": 49
    },
    {
      "midi": 44,
      "hit": false,
      "t": 185850.00000000017,
      "d": 1066.666666666686,
      "v": 66
    },
    {
      "midi": 51,
      "hit": false,
      "t": 186283.33333333352,
      "d": 683.333333333343,
      "v": 61
    },
    {
      "midi": 56,
      "hit": false,
      "t": 186466.66666666686,
      "d": 783.333333333343,
      "v": 57
    },
    {
      "midi": 63,
      "hit": false,
      "t": 186666.66666666686,
      "d": 800,
      "v": 54
    },
    {
      "midi": 71,
      "hit": false,
      "t": 186666.66666666686,
      "d": 833.333333333343,
      "v": 81
    },
    {
      "midi": 68,
      "hit": false,
      "t": 187066.66666666686,
      "d": 433.33333333334303,
      "v": 78
    },
    {
      "midi": 49,
      "hit": false,
      "t": 187450.0000000002,
      "d": 1049.999999999971,
      "v": 68
    },
    {
      "midi": 56,
      "hit": false,
      "t": 187816.66666666686,
      "d": 616.666666666657,
      "v": 57
    },
    {
      "midi": 73,
      "hit": false,
      "t": 187833.33333333352,
      "d": 1233.333333333314,
      "v": 72
    },
    {
      "midi": 61,
      "hit": false,
      "t": 188066.66666666686,
      "d": 300,
      "v": 65
    },
    {
      "midi": 64,
      "hit": false,
      "t": 188266.66666666686,
      "d": 599.9999999999709,
      "v": 83
    },
    {
      "midi": 70,
      "hit": false,
      "t": 188666.66666666683,
      "d": 100,
      "v": 52
    },
    {
      "midi": 68,
      "hit": false,
      "t": 188816.66666666683,
      "d": 200,
      "v": 55
    },
    {
      "midi": 42,
      "hit": false,
      "t": 189016.66666666683,
      "d": 966.6666666666861,
      "v": 83
    },
    {
      "midi": 49,
      "hit": false,
      "t": 189400.00000000017,
      "d": 633.333333333343,
      "v": 54
    },
    {
      "midi": 54,
      "hit": false,
      "t": 189583.33333333352,
      "d": 566.666666666657,
      "v": 62
    },
    {
      "midi": 61,
      "hit": false,
      "t": 189816.66666666686,
      "d": 700,
      "v": 81
    },
    {
      "midi": 70,
      "hit": false,
      "t": 190150.00000000017,
      "d": 483.33333333334303,
      "v": 45
    },
    {
      "midi": 66,
      "hit": false,
      "t": 190333.33333333352,
      "d": 366.66666666665697,
      "v": 59
    },
    {
      "midi": 51,
      "hit": false,
      "t": 190566.66666666686,
      "d": 1166.6666666666279,
      "v": 78
    },
    {
      "midi": 58,
      "hit": false,
      "t": 190983.33333333352,
      "d": 733.3333333333139,
      "v": 60
    },
    {
      "midi": 63,
      "hit": false,
      "t": 191400.00000000017,
      "d": 749.9999999999709,
      "v": 75
    },
    {
      "midi": 70,
      "hit": false,
      "t": 191783.3333333335,
      "d": 333.33333333331393,
      "v": 62
    },
    {
      "midi": 66,
      "hit": false,
      "t": 192000.00000000015,
      "d": 183.33333333334303,
      "v": 70
    },
    {
      "midi": 44,
      "hit": false,
      "t": 192183.3333333335,
      "d": 933.333333333343,
      "v": 79
    },
    {
      "midi": 51,
      "hit": false,
      "t": 192566.66666666683,
      "d": 550,
      "v": 65
    },
    {
      "midi": 56,
      "hit": false,
      "t": 192750.00000000017,
      "d": 483.33333333334303,
      "v": 79
    },
    {
      "midi": 68,
      "hit": false,
      "t": 192950.00000000017,
      "d": 466.66666666668607,
      "v": 94
    },
    {
      "midi": 75,
      "hit": false,
      "t": 193150.00000000017,
      "d": 300.0000000000291,
      "v": 88
    },
    {
      "midi": 71,
      "hit": false,
      "t": 193366.66666666686,
      "d": 200,
      "v": 61
    },
    {
      "midi": 70,
      "hit": false,
      "t": 193550.0000000002,
      "d": 216.66666666665697,
      "v": 77
    },
    {
      "midi": 52,
      "hit": false,
      "t": 193750.0000000002,
      "d": 983.333333333343,
      "v": 74
    },
    {
      "midi": 68,
      "hit": false,
      "t": 193766.66666666686,
      "d": 716.6666666666861,
      "v": 86
    },
    {
      "midi": 56,
      "hit": false,
      "t": 194150.0000000002,
      "d": 583.333333333343,
      "v": 90
    },
    {
      "midi": 59,
      "hit": false,
      "t": 194350.0000000002,
      "d": 316.66666666668607,
      "v": 90
    },
    {
      "midi": 64,
      "hit": false,
      "t": 194533.33333333355,
      "d": 416.66666666665697,
      "v": 81
    },
    {
      "midi": 71,
      "hit": false,
      "t": 194716.6666666669,
      "d": 633.3333333333139,
      "v": 90
    },
    {
      "midi": 68,
      "hit": false,
      "t": 194933.33333333355,
      "d": 416.66666666665697,
      "v": 84
    },
    {
      "midi": 42,
      "hit": false,
      "t": 195300.0000000002,
      "d": 933.3333333333721,
      "v": 81
    },
    {
      "midi": 66,
      "hit": false,
      "t": 195350.0000000002,
      "d": 750.0000000000291,
      "v": 88
    },
    {
      "midi": 49,
      "hit": false,
      "t": 195733.33333333355,
      "d": 533.3333333333721,
      "v": 65
    },
    {
      "midi": 54,
      "hit": false,
      "t": 195916.6666666669,
      "d": 450.0000000000291,
      "v": 88
    },
    {
      "midi": 61,
      "hit": false,
      "t": 196133.33333333358,
      "d": 366.66666666668607,
      "v": 81
    },
    {
      "midi": 66,
      "hit": false,
      "t": 196466.66666666692,
      "d": 433.33333333334303,
      "v": 90
    },
    {
      "midi": 59,
      "hit": false,
      "t": 197216.66666666692,
      "d": 400,
      "v": 100
    },
    {
      "midi": 63,
      "hit": false,
      "t": 197216.66666666692,
      "d": 400,
      "v": 100
    },
    {
      "midi": 66,
      "hit": false,
      "t": 197216.66666666692,
      "d": 400,
      "v": 100
    },
    {
      "midi": 56,
      "hit": false,
      "t": 198783.33333333358,
      "d": 200,
      "v": 100
    },
    {
      "midi": 59,
      "hit": false,
      "t": 198783.33333333358,
      "d": 200,
      "v": 100
    },
    {
      "midi": 63,
      "hit": false,
      "t": 198783.33333333358,
      "d": 200,
      "v": 100
    },
    {
      "midi": 56,
      "hit": false,
      "t": 198983.33333333358,
      "d": 183.33333333334303,
      "v": 100
    },
    {
      "midi": 59,
      "hit": false,
      "t": 198983.33333333358,
      "d": 183.33333333334303,
      "v": 100
    },
    {
      "midi": 63,
      "hit": false,
      "t": 198983.33333333358,
      "d": 183.33333333334303,
      "v": 100
    },
    {
      "midi": 56,
      "hit": false,
      "t": 199166.66666666692,
      "d": 400,
      "v": 100
    },
    {
      "midi": 59,
      "hit": false,
      "t": 199166.66666666692,
      "d": 400,
      "v": 100
    },
    {
      "midi": 63,
      "hit": false,
      "t": 199166.66666666692,
      "d": 400,
      "v": 100
    },
    {
      "midi": 49,
      "hit": false,
      "t": 199966.66666666692,
      "d": 1216.666666666686,
      "v": 75
    },
    {
      "midi": 56,
      "hit": false,
      "t": 200350.00000000026,
      "d": 766.6666666666861,
      "v": 73
    },
    {
      "midi": 73,
      "hit": false,
      "t": 200733.3333333336,
      "d": 750,
      "v": 86
    },
    {
      "midi": 64,
      "hit": false,
      "t": 200766.66666666695,
      "d": 66.66666666665697,
      "v": 50
    },
    {
      "midi": 68,
      "hit": false,
      "t": 201116.66666666695,
      "d": 200,
      "v": 90
    },
    {
      "midi": 64,
      "hit": false,
      "t": 201333.3333333336,
      "d": 183.33333333334303,
      "v": 102
    },
    {
      "midi": 42,
      "hit": false,
      "t": 201516.66666666695,
      "d": 916.666666666657,
      "v": 78
    },
    {
      "midi": 49,
      "hit": false,
      "t": 201850.0000000003,
      "d": 633.3333333333139,
      "v": 36
    },
    {
      "midi": 54,
      "hit": false,
      "t": 202000.0000000003,
      "d": 616.666666666657,
      "v": 84
    },
    {
      "midi": 70,
      "hit": false,
      "t": 202316.66666666695,
      "d": 583.333333333343,
      "v": 92
    },
    {
      "midi": 66,
      "hit": false,
      "t": 202716.66666666695,
      "d": 450,
      "v": 88
    },
    {
      "midi": 51,
      "hit": false,
      "t": 203116.66666666695,
      "d": 1116.666666666686,
      "v": 88
    },
    {
      "midi": 54,
      "hit": false,
      "t": 203450.0000000003,
      "d": 783.333333333343,
      "v": 94
    },
    {
      "midi": 58,
      "hit": false,
      "t": 203650.0000000003,
      "d": 533.333333333343,
      "v": 94
    },
    {
      "midi": 63,
      "hit": false,
      "t": 203833.33333333363,
      "d": 433.33333333334303,
      "v": 88
    },
    {
      "midi": 70,
      "hit": false,
      "t": 204066.66666666698,
      "d": 416.66666666665697,
      "v": 74
    },
    {
      "midi": 66,
      "hit": false,
      "t": 204283.33333333363,
      "d": 200,
      "v": 68
    },
    {
      "midi": 63,
      "hit": false,
      "t": 204483.33333333363,
      "d": 233.33333333331393,
      "v": 83
    },
    {
      "midi": 44,
      "hit": false,
      "t": 204700.0000000003,
      "d": 1199.999999999971,
      "v": 77
    },
    {
      "midi": 68,
      "hit": false,
      "t": 204716.66666666695,
      "d": 733.333333333343,
      "v": 88
    },
    {
      "midi": 51,
      "hit": false,
      "t": 205100.0000000003,
      "d": 799.9999999999709,
      "v": 51
    },
    {
      "midi": 56,
      "hit": false,
      "t": 205300.0000000003,
      "d": 699.9999999999709,
      "v": 78
    },
    {
      "midi": 63,
      "hit": false,
      "t": 205516.66666666695,
      "d": 366.66666666665697,
      "v": 78
    },
    {
      "midi": 71,
      "hit": false,
      "t": 205716.66666666695,
      "d": 433.33333333331393,
      "v": 77
    },
    {
      "midi": 68,
      "hit": false,
      "t": 205933.3333333336,
      "d": 300,
      "v": 92
    },
    {
      "midi": 63,
      "hit": false,
      "t": 206100.00000000026,
      "d": 133.33333333334303,
      "v": 55
    },
    {
      "midi": 52,
      "hit": false,
      "t": 206266.66666666695,
      "d": 933.333333333343,
      "v": 83
    },
    {
      "midi": 56,
      "hit": false,
      "t": 206600.0000000003,
      "d": 583.333333333343,
      "v": 52
    },
    {
      "midi": 59,
      "hit": false,
      "t": 206800.0000000003,
      "d": 333.33333333334303,
      "v": 65
    },
    {
      "midi": 64,
      "hit": false,
      "t": 206983.33333333363,
      "d": 400,
      "v": 84
    },
    {
      "midi": 71,
      "hit": false,
      "t": 207166.66666666698,
      "d": 549.9999999999709,
      "v": 90
    },
    {
      "midi": 68,
      "hit": false,
      "t": 207400.0000000003,
      "d": 366.66666666665697,
      "v": 75
    },
    {
      "midi": 54,
      "hit": false,
      "t": 207816.66666666695,
      "d": 583.333333333343,
      "v": 90
    },
    {
      "midi": 58,
      "hit": false,
      "t": 208000.0000000003,
      "d": 583.333333333343,
      "v": 66
    },
    {
      "midi": 61,
      "hit": false,
      "t": 208166.66666666695,
      "d": 783.333333333343,
      "v": 70
    },
    {
      "midi": 47,
      "hit": false,
      "t": 212450.0000000003,
      "d": 1283.333333333343,
      "v": 75
    },
    {
      "midi": 54,
      "hit": false,
      "t": 212850.0000000003,
      "d": 916.6666666666861,
      "v": 69
    },
    {
      "midi": 66,
      "hit": false,
      "t": 213316.66666666695,
      "d": 800.0000000000291,
      "v": 68
    },
    {
      "midi": 71,
      "hit": false,
      "t": 213700.0000000003,
      "d": 400.0000000000291,
      "v": 73
    },
    {
      "midi": 42,
      "hit": false,
      "t": 214016.66666666698,
      "d": 1549.999999999971,
      "v": 100
    },
    {
      "midi": 73,
      "hit": false,
      "t": 214116.66666666698,
      "d": 800,
      "v": 78
    },
    {
      "midi": 54,
      "hit": false,
      "t": 214116.66666666698,
      "d": 1333.333333333314,
      "v": 88
    },
    {
      "midi": 58,
      "hit": false,
      "t": 214516.66666666698,
      "d": 999.9999999999709,
      "v": 102
    },
    {
      "midi": 61,
      "hit": false,
      "t": 214716.66666666698,
      "d": 699.9999999999709,
      "v": 77
    },
    {
      "midi": 66,
      "hit": false,
      "t": 214933.33333333363,
      "d": 1066.666666666657,
      "v": 70
    },
    {
      "midi": 70,
      "hit": false,
      "t": 215150.0000000003,
      "d": 216.66666666665697,
      "v": 44
    },
    {
      "midi": 73,
      "hit": false,
      "t": 215366.66666666695,
      "d": 716.6666666666861,
      "v": 105
    },
    {
      "midi": 47,
      "hit": false,
      "t": 215866.66666666695,
      "d": 2999.999999999971,
      "v": 77
    },
    {
      "midi": 51,
      "hit": false,
      "t": 216166.66666666698,
      "d": 2733.3333333332557,
      "v": 39
    },
    {
      "midi": 54,
      "hit": false,
      "t": 216433.33333333363,
      "d": 2449.999999999942,
      "v": 72
    },
    {
      "midi": 66,
      "hit": false,
      "t": 216666.66666666698,
      "d": 283.33333333331393,
      "v": 90
    },
    {
      "midi": 71,
      "hit": false,
      "t": 216933.33333333363,
      "d": 233.33333333331393,
      "v": 73
    },
    {
      "midi": 75,
      "hit": false,
      "t": 217200.0000000003,
      "d": 333.33333333331393,
      "v": 73
    },
    {
      "midi": 78,
      "hit": false,
      "t": 217516.66666666695,
      "d": 433.33333333331393,
      "v": 65
    },
    {
      "midi": 83,
      "hit": false,
      "t": 217933.3333333336,
      "d": 883.3333333333139,
      "v": 66
    }
  ]
}