{
  "jsonPath": "Pop/Europop/Boney M/the-first-noel.json",
  "path": "Pop\\Europop\\Boney M\\The First Noël.mid",
  "name": "The First Noël",
  "difficulty": "Advanced",
  "bpm": 90.00171003249062,
  "notes": [
    {
      "midi": 64,
      "hit": false,
      "t": 3333.27,
      "d": 342.00739062499997,
      "v": 97
    },
    {
      "midi": 88,
      "hit": false,
      "t": 3333.27,
      "d": 343.7434687499999,
      "v": 88
    },
    {
      "midi": 62,
      "hit": false,
      "t": 3666.5969999999998,
      "d": 248.259171875,
      "v": 67
    },
    {
      "midi": 86,
      "hit": false,
      "t": 3666.5969999999998,
      "d": 361.1042500000003,
      "v": 68
    },
    {
      "midi": 60,
      "hit": false,
      "t": 3999.9239999999995,
      "d": 1184.0052812500003,
      "v": 92
    },
    {
      "midi": 55,
      "hit": false,
      "t": 3999.9239999999995,
      "d": 1718.717343750001,
      "v": 91
    },
    {
      "midi": 48,
      "hit": false,
      "t": 3999.9239999999995,
      "d": 1814.201640625001,
      "v": 92
    },
    {
      "midi": 36,
      "hit": false,
      "t": 3999.924,
      "d": 1527.7487499999997,
      "v": 101
    },
    {
      "midi": 84,
      "hit": false,
      "t": 3999.924,
      "d": 1012.1335468749994,
      "v": 83
    },
    {
      "midi": 52,
      "hit": false,
      "t": 3999.924,
      "d": 2043.3639531249983,
      "v": 85
    },
    {
      "midi": 55,
      "hit": false,
      "t": 3999.924,
      "d": 2043.3639531249983,
      "v": 80
    },
    {
      "midi": 60,
      "hit": false,
      "t": 3999.924,
      "d": 7952.973890624998,
      "v": 75
    },
    {
      "midi": 62,
      "hit": false,
      "t": 4999.905,
      "d": 418.39482812500046,
      "v": 71
    },
    {
      "midi": 86,
      "hit": false,
      "t": 4999.905,
      "d": 401.03404687499915,
      "v": 61
    },
    {
      "midi": 88,
      "hit": false,
      "t": 5333.231999999999,
      "d": 326.3826874999995,
      "v": 77
    },
    {
      "midi": 64,
      "hit": false,
      "t": 5333.232,
      "d": 324.6466093750005,
      "v": 75
    },
    {
      "midi": 89,
      "hit": false,
      "t": 5666.558999999998,
      "d": 305.54975000000013,
      "v": 72
    },
    {
      "midi": 36,
      "hit": false,
      "t": 5666.558999999999,
      "d": 305.54975000000013,
      "v": 74
    },
    {
      "midi": 65,
      "hit": false,
      "t": 5666.559,
      "d": 114.58115625000028,
      "v": 86
    },
    {
      "midi": 57,
      "hit": false,
      "t": 5999.885999999999,
      "d": 2005.1702343749994,
      "v": 99
    },
    {
      "midi": 53,
      "hit": false,
      "t": 5999.885999999999,
      "d": 2006.9063124999993,
      "v": 92
    },
    {
      "midi": 91,
      "hit": false,
      "t": 5999.885999999999,
      "d": 6097.106374999999,
      "v": 72
    },
    {
      "midi": 31,
      "hit": false,
      "t": 5999.8859999999995,
      "d": 1949.615734375,
      "v": 89
    },
    {
      "midi": 57,
      "hit": false,
      "t": 5999.886,
      "d": 935.7461093749998,
      "v": 86
    },
    {
      "midi": 60,
      "hit": false,
      "t": 5999.886,
      "d": 935.7461093749998,
      "v": 99
    },
    {
      "midi": 43,
      "hit": false,
      "t": 5999.886,
      "d": 1661.4267656249995,
      "v": 67
    },
    {
      "midi": 67,
      "hit": false,
      "t": 5999.886,
      "d": 1756.9110624999994,
      "v": 95
    },
    {
      "midi": 62,
      "hit": false,
      "t": 7333.194,
      "d": 284.71681249999983,
      "v": 70
    },
    {
      "midi": 59,
      "hit": false,
      "t": 7333.194,
      "d": 342.00739062499906,
      "v": 67
    },
    {
      "midi": 52,
      "hit": false,
      "t": 7999.847999999998,
      "d": 2012.114546875,
      "v": 85
    },
    {
      "midi": 55,
      "hit": false,
      "t": 7999.847999999998,
      "d": 2029.4753281249996,
      "v": 79
    },
    {
      "midi": 60,
      "hit": false,
      "t": 7999.848,
      "d": 1031.2304062500007,
      "v": 95
    },
    {
      "midi": 55,
      "hit": false,
      "t": 7999.848,
      "d": 1720.4534218750032,
      "v": 88
    },
    {
      "midi": 48,
      "hit": false,
      "t": 7999.848,
      "d": 1737.8142031250027,
      "v": 88
    },
    {
      "midi": 36,
      "hit": false,
      "t": 7999.848,
      "d": 1546.8456093749992,
      "v": 82
    },
    {
      "midi": 62,
      "hit": false,
      "t": 8999.829,
      "d": 381.9371875000015,
      "v": 75
    },
    {
      "midi": 64,
      "hit": false,
      "t": 9333.156,
      "d": 324.6466093750005,
      "v": 89
    },
    {
      "midi": 60,
      "hit": false,
      "t": 9333.156,
      "d": 381.9371875000015,
      "v": 82
    },
    {
      "midi": 36,
      "hit": false,
      "t": 9666.482999999998,
      "d": 305.54975000000013,
      "v": 77
    },
    {
      "midi": 65,
      "hit": false,
      "t": 9666.483000000002,
      "d": 95.48429687499993,
      "v": 80
    },
    {
      "midi": 31,
      "hit": false,
      "t": 9999.809999999998,
      "d": 1413.1675937500004,
      "v": 83
    },
    {
      "midi": 53,
      "hit": false,
      "t": 9999.809999999998,
      "d": 1966.9765156249996,
      "v": 88
    },
    {
      "midi": 57,
      "hit": false,
      "t": 9999.809999999998,
      "d": 1966.9765156249996,
      "v": 89
    },
    {
      "midi": 57,
      "hit": false,
      "t": 9999.810000000001,
      "d": 1243.0319375,
      "v": 77
    },
    {
      "midi": 60,
      "hit": false,
      "t": 9999.810000000001,
      "d": 1262.1287968750003,
      "v": 95
    },
    {
      "midi": 43,
      "hit": false,
      "t": 9999.810000000001,
      "d": 1949.615734375,
      "v": 79
    },
    {
      "midi": 67,
      "hit": false,
      "t": 9999.810000000001,
      "d": 1949.615734375,
      "v": 94
    },
    {
      "midi": 64,
      "hit": false,
      "t": 11333.118,
      "d": 326.3826874999995,
      "v": 103
    },
    {
      "midi": 64,
      "hit": false,
      "t": 11333.118000000002,
      "d": 342.00739062499997,
      "v": 97
    },
    {
      "midi": 59,
      "hit": false,
      "t": 11333.118000000002,
      "d": 592.0026406249999,
      "v": 79
    },
    {
      "midi": 31,
      "hit": false,
      "t": 11666.444999999998,
      "d": 342.00739062499997,
      "v": 88
    },
    {
      "midi": 62,
      "hit": false,
      "t": 11666.445,
      "d": 343.743468749999,
      "v": 75
    },
    {
      "midi": 62,
      "hit": false,
      "t": 11666.445000000002,
      "d": 258.6756406250006,
      "v": 72
    },
    {
      "midi": 36,
      "hit": false,
      "t": 11999.771999999997,
      "d": 1527.7487500000007,
      "v": 94
    },
    {
      "midi": 64,
      "hit": false,
      "t": 11999.771999999997,
      "d": 1949.615734375,
      "v": 89
    },
    {
      "midi": 60,
      "hit": false,
      "t": 11999.771999999997,
      "d": 2598.9089531249992,
      "v": 66
    },
    {
      "midi": 67,
      "hit": false,
      "t": 11999.771999999997,
      "d": 5275.941421875003,
      "v": 58
    },
    {
      "midi": 60,
      "hit": false,
      "t": 11999.771999999999,
      "d": 993.0366875,
      "v": 97
    },
    {
      "midi": 88,
      "hit": false,
      "t": 11999.771999999999,
      "d": 267.35603124999943,
      "v": 86
    },
    {
      "midi": 48,
      "hit": false,
      "t": 11999.772,
      "d": 878.4555312499997,
      "v": 83
    },
    {
      "midi": 55,
      "hit": false,
      "t": 11999.772,
      "d": 1013.8696249999994,
      "v": 70
    },
    {
      "midi": 60,
      "hit": false,
      "t": 11999.772,
      "d": 1013.8696249999994,
      "v": 92
    },
    {
      "midi": 76,
      "hit": false,
      "t": 12055.3265,
      "d": 267.35603124999943,
      "v": 86
    },
    {
      "midi": 84,
      "hit": false,
      "t": 12333.098999999998,
      "d": 76.38743749999958,
      "v": 65
    },
    {
      "midi": 72,
      "hit": false,
      "t": 12388.653499999999,
      "d": 76.38743749999958,
      "v": 65
    },
    {
      "midi": 79,
      "hit": false,
      "t": 12666.425999999998,
      "d": 114.58115625000028,
      "v": 74
    },
    {
      "midi": 67,
      "hit": false,
      "t": 12721.980499999998,
      "d": 114.58115625000028,
      "v": 74
    },
    {
      "midi": 62,
      "hit": false,
      "t": 12999.752999999999,
      "d": 381.9371874999997,
      "v": 82
    },
    {
      "midi": 84,
      "hit": false,
      "t": 12999.752999999999,
      "d": 76.38743749999958,
      "v": 82
    },
    {
      "midi": 62,
      "hit": false,
      "t": 12999.753,
      "d": 381.9371874999997,
      "v": 85
    },
    {
      "midi": 72,
      "hit": false,
      "t": 13055.307499999999,
      "d": 76.38743749999958,
      "v": 82
    },
    {
      "midi": 64,
      "hit": false,
      "t": 13333.079999999998,
      "d": 324.6466093750005,
      "v": 107
    },
    {
      "midi": 88,
      "hit": false,
      "t": 13333.079999999998,
      "d": 76.38743749999958,
      "v": 71
    },
    {
      "midi": 64,
      "hit": false,
      "t": 13333.08,
      "d": 305.54975000000013,
      "v": 107
    },
    {
      "midi": 60,
      "hit": false,
      "t": 13333.08,
      "d": 361.1042499999985,
      "v": 70
    },
    {
      "midi": 76,
      "hit": false,
      "t": 13388.634499999998,
      "d": 76.38743749999958,
      "v": 71
    },
    {
      "midi": 36,
      "hit": false,
      "t": 13666.406999999997,
      "d": 343.743468749999,
      "v": 83
    },
    {
      "midi": 84,
      "hit": false,
      "t": 13666.406999999997,
      "d": 95.48429687499993,
      "v": 72
    },
    {
      "midi": 65,
      "hit": false,
      "t": 13666.407,
      "d": 112.84507812499942,
      "v": 85
    },
    {
      "midi": 65,
      "hit": false,
      "t": 13666.407,
      "d": 343.743468749999,
      "v": 88
    },
    {
      "midi": 72,
      "hit": false,
      "t": 13721.961499999998,
      "d": 95.48429687499993,
      "v": 72
    },
    {
      "midi": 31,
      "hit": false,
      "t": 13999.733999999997,
      "d": 2045.10003125,
      "v": 94
    },
    {
      "midi": 62,
      "hit": false,
      "t": 13999.733999999997,
      "d": 2062.4608125000013,
      "v": 72
    },
    {
      "midi": 91,
      "hit": false,
      "t": 13999.733999999997,
      "d": 152.77487499999916,
      "v": 77
    },
    {
      "midi": 60,
      "hit": false,
      "t": 13999.733999999999,
      "d": 477.42148437499964,
      "v": 89
    },
    {
      "midi": 62,
      "hit": false,
      "t": 13999.733999999999,
      "d": 916.6492500000004,
      "v": 86
    },
    {
      "midi": 67,
      "hit": false,
      "t": 13999.733999999999,
      "d": 1013.8696250000012,
      "v": 95
    },
    {
      "midi": 55,
      "hit": false,
      "t": 13999.733999999999,
      "d": 1701.3565624999992,
      "v": 85
    },
    {
      "midi": 67,
      "hit": false,
      "t": 13999.733999999999,
      "d": 1225.6711562500004,
      "v": 94
    },
    {
      "midi": 79,
      "hit": false,
      "t": 14055.288499999997,
      "d": 152.77487499999916,
      "v": 77
    },
    {
      "midi": 86,
      "hit": false,
      "t": 14333.060999999996,
      "d": 76.38743749999958,
      "v": 53
    },
    {
      "midi": 74,
      "hit": false,
      "t": 14388.615499999996,
      "d": 76.38743749999958,
      "v": 53
    },
    {
      "midi": 83,
      "hit": false,
      "t": 14666.387999999995,
      "d": 95.48429687499993,
      "v": 66
    },
    {
      "midi": 59,
      "hit": false,
      "t": 14666.387999999997,
      "d": 1317.6832968750005,
      "v": 91
    },
    {
      "midi": 59,
      "hit": false,
      "t": 14666.387999999999,
      "d": 362.8403281250012,
      "v": 101
    },
    {
      "midi": 71,
      "hit": false,
      "t": 14721.942499999996,
      "d": 95.48429687499993,
      "v": 66
    },
    {
      "midi": 86,
      "hit": false,
      "t": 14999.714999999995,
      "d": 76.38743749999958,
      "v": 62
    },
    {
      "midi": 74,
      "hit": false,
      "t": 15055.269499999995,
      "d": 76.38743749999958,
      "v": 62
    },
    {
      "midi": 79,
      "hit": false,
      "t": 15333.041999999994,
      "d": 95.48429687499993,
      "v": 72
    },
    {
      "midi": 69,
      "hit": false,
      "t": 15333.042,
      "d": 343.743468749999,
      "v": 86
    },
    {
      "midi": 69,
      "hit": false,
      "t": 15333.042,
      "d": 362.84032812499936,
      "v": 95
    },
    {
      "midi": 67,
      "hit": false,
      "t": 15388.596499999994,
      "d": 95.48429687499993,
      "v": 72
    },
    {
      "midi": 83,
      "hit": false,
      "t": 15666.368999999993,
      "d": 95.48429687499993,
      "v": 80
    },
    {
      "midi": 71,
      "hit": false,
      "t": 15666.368999999999,
      "d": 112.84507812499942,
      "v": 109
    },
    {
      "midi": 71,
      "hit": false,
      "t": 15666.368999999999,
      "d": 305.54975000000013,
      "v": 94
    },
    {
      "midi": 71,
      "hit": false,
      "t": 15721.923499999994,
      "d": 95.48429687499993,
      "v": 80
    },
    {
      "midi": 88,
      "hit": false,
      "t": 15999.695999999993,
      "d": 76.38743749999958,
      "v": 83
    },
    {
      "midi": 40,
      "hit": false,
      "t": 15999.695999999996,
      "d": 1355.8770156249993,
      "v": 97
    },
    {
      "midi": 72,
      "hit": false,
      "t": 15999.695999999998,
      "d": 553.808921875001,
      "v": 103
    },
    {
      "midi": 67,
      "hit": false,
      "t": 15999.695999999998,
      "d": 572.9057812500014,
      "v": 95
    },
    {
      "midi": 64,
      "hit": false,
      "t": 15999.695999999998,
      "d": 706.5837968750002,
      "v": 97
    },
    {
      "midi": 52,
      "hit": false,
      "t": 15999.695999999998,
      "d": 763.8743750000012,
      "v": 99
    },
    {
      "midi": 64,
      "hit": false,
      "t": 15999.695999999998,
      "d": 1319.4193750000031,
      "v": 97
    },
    {
      "midi": 60,
      "hit": false,
      "t": 15999.695999999998,
      "d": 5847.111124999998,
      "v": 74
    },
    {
      "midi": 72,
      "hit": false,
      "t": 15999.695999999998,
      "d": 631.9324375000015,
      "v": 99
    },
    {
      "midi": 76,
      "hit": false,
      "t": 16055.250499999993,
      "d": 76.38743749999958,
      "v": 83
    },
    {
      "midi": 79,
      "hit": false,
      "t": 16333.022999999992,
      "d": 114.58115625000028,
      "v": 54
    },
    {
      "midi": 67,
      "hit": false,
      "t": 16388.577499999992,
      "d": 114.58115624999846,
      "v": 54
    },
    {
      "midi": 84,
      "hit": false,
      "t": 16666.34999999999,
      "d": 131.94193749999977,
      "v": 85
    },
    {
      "midi": 71,
      "hit": false,
      "t": 16666.35,
      "d": 76.3874375000014,
      "v": 105
    },
    {
      "midi": 71,
      "hit": false,
      "t": 16666.35,
      "d": 725.6806562499987,
      "v": 101
    },
    {
      "midi": 72,
      "hit": false,
      "t": 16721.90449999999,
      "d": 131.94193749999977,
      "v": 85
    },
    {
      "midi": 88,
      "hit": false,
      "t": 16999.676999999992,
      "d": 95.48429687500175,
      "v": 70
    },
    {
      "midi": 76,
      "hit": false,
      "t": 17055.23149999999,
      "d": 95.48429687500175,
      "v": 70
    },
    {
      "midi": 89,
      "hit": false,
      "t": 17333.003999999994,
      "d": 152.77487499999916,
      "v": 83
    },
    {
      "midi": 41,
      "hit": false,
      "t": 17333.003999999997,
      "d": 631.9324374999997,
      "v": 101
    },
    {
      "midi": 69,
      "hit": false,
      "t": 17333.003999999997,
      "d": 670.1261562500003,
      "v": 95
    },
    {
      "midi": 69,
      "hit": false,
      "t": 17333.004,
      "d": 248.2591718750009,
      "v": 88
    },
    {
      "midi": 65,
      "hit": false,
      "t": 17333.004,
      "d": 265.6199531250022,
      "v": 92
    },
    {
      "midi": 53,
      "hit": false,
      "t": 17333.004,
      "d": 284.71681250000256,
      "v": 86
    },
    {
      "midi": 60,
      "hit": false,
      "t": 17333.004,
      "d": 284.71681250000256,
      "v": 89
    },
    {
      "midi": 69,
      "hit": false,
      "t": 17333.004,
      "d": 630.1963593750006,
      "v": 70
    },
    {
      "midi": 65,
      "hit": false,
      "t": 17333.004,
      "d": 1374.9738749999997,
      "v": 85
    },
    {
      "midi": 77,
      "hit": false,
      "t": 17388.558499999992,
      "d": 152.77487499999916,
      "v": 83
    },
    {
      "midi": 81,
      "hit": false,
      "t": 17666.33099999999,
      "d": 95.48429687500175,
      "v": 28
    },
    {
      "midi": 69,
      "hit": false,
      "t": 17721.88549999999,
      "d": 95.48429687500175,
      "v": 28
    },
    {
      "midi": 91,
      "hit": false,
      "t": 17999.657999999992,
      "d": 133.6780156249988,
      "v": 72
    },
    {
      "midi": 36,
      "hit": false,
      "t": 17999.657999999996,
      "d": 1374.9738749999997,
      "v": 99
    },
    {
      "midi": 67,
      "hit": false,
      "t": 17999.657999999996,
      "d": 1206.574296875002,
      "v": 97
    },
    {
      "midi": 65,
      "hit": false,
      "t": 17999.658000000003,
      "d": 784.7073124999988,
      "v": 80
    },
    {
      "midi": 67,
      "hit": false,
      "t": 17999.658000000003,
      "d": 821.1649531249968,
      "v": 88
    },
    {
      "midi": 60,
      "hit": false,
      "t": 17999.658000000003,
      "d": 840.2618124999972,
      "v": 71
    },
    {
      "midi": 48,
      "hit": false,
      "t": 17999.658000000003,
      "d": 861.0947499999966,
      "v": 86
    },
    {
      "midi": 67,
      "hit": false,
      "t": 17999.658000000003,
      "d": 1394.0707343749964,
      "v": 80
    },
    {
      "midi": 79,
      "hit": false,
      "t": 18055.21249999999,
      "d": 133.6780156249988,
      "v": 72
    },
    {
      "midi": 88,
      "hit": false,
      "t": 18332.98499999999,
      "d": 76.3874375000014,
      "v": 67
    },
    {
      "midi": 76,
      "hit": false,
      "t": 18388.539499999988,
      "d": 76.3874375000014,
      "v": 67
    },
    {
      "midi": 84,
      "hit": false,
      "t": 18666.31199999999,
      "d": 95.48429687500175,
      "v": 66
    },
    {
      "midi": 64,
      "hit": false,
      "t": 18666.312,
      "d": 133.6780156249988,
      "v": 88
    },
    {
      "midi": 64,
      "hit": false,
      "t": 18666.312,
      "d": 725.6806562499987,
      "v": 85
    },
    {
      "midi": 72,
      "hit": false,
      "t": 18721.86649999999,
      "d": 95.48429687500175,
      "v": 66
    },
    {
      "midi": 79,
      "hit": false,
      "t": 18999.638999999992,
      "d": 95.48429687500175,
      "v": 68
    },
    {
      "midi": 67,
      "hit": false,
      "t": 19055.19349999999,
      "d": 95.48429687500175,
      "v": 68
    },
    {
      "midi": 84,
      "hit": false,
      "t": 19332.965999999993,
      "d": 114.58115624999846,
      "v": 80
    },
    {
      "midi": 41,
      "hit": false,
      "t": 19332.965999999997,
      "d": 706.5837968749984,
      "v": 99
    },
    {
      "midi": 69,
      "hit": false,
      "t": 19332.965999999997,
      "d": 342.00739062499997,
      "v": 94
    },
    {
      "midi": 53,
      "hit": false,
      "t": 19332.966,
      "d": 324.64660937499866,
      "v": 88
    },
    {
      "midi": 60,
      "hit": false,
      "t": 19332.966,
      "d": 324.64660937499866,
      "v": 82
    },
    {
      "midi": 65,
      "hit": false,
      "t": 19332.966,
      "d": 342.00739062499633,
      "v": 88
    },
    {
      "midi": 69,
      "hit": false,
      "t": 19332.966,
      "d": 345.47954687499805,
      "v": 94
    },
    {
      "midi": 69,
      "hit": false,
      "t": 19332.966,
      "d": 651.029296875,
      "v": 80
    },
    {
      "midi": 65,
      "hit": false,
      "t": 19332.966,
      "d": 687.486937499998,
      "v": 91
    },
    {
      "midi": 72,
      "hit": false,
      "t": 19388.52049999999,
      "d": 114.58115624999846,
      "v": 80
    },
    {
      "midi": 81,
      "hit": false,
      "t": 19666.29299999999,
      "d": 112.84507812499942,
      "v": 74
    },
    {
      "midi": 71,
      "hit": false,
      "t": 19666.292999999998,
      "d": 114.5811562500021,
      "v": 92
    },
    {
      "midi": 71,
      "hit": false,
      "t": 19666.292999999998,
      "d": 305.5497499999983,
      "v": 91
    },
    {
      "midi": 69,
      "hit": false,
      "t": 19721.84749999999,
      "d": 112.84507812499942,
      "v": 74
    },
    {
      "midi": 79,
      "hit": false,
      "t": 19999.61999999999,
      "d": 114.58115624999846,
      "v": 79
    },
    {
      "midi": 36,
      "hit": false,
      "t": 19999.619999999995,
      "d": 1298.5864374999983,
      "v": 101
    },
    {
      "midi": 72,
      "hit": false,
      "t": 19999.619999999995,
      "d": 727.4167343749978,
      "v": 92
    },
    {
      "midi": 72,
      "hit": false,
      "t": 19999.62,
      "d": 649.293218750001,
      "v": 97
    },
    {
      "midi": 67,
      "hit": false,
      "t": 19999.62,
      "d": 706.583796875002,
      "v": 89
    },
    {
      "midi": 64,
      "hit": false,
      "t": 19999.62,
      "d": 782.9712343749998,
      "v": 92
    },
    {
      "midi": 48,
      "hit": false,
      "t": 19999.62,
      "d": 802.0680937500001,
      "v": 83
    },
    {
      "midi": 67,
      "hit": false,
      "t": 19999.62,
      "d": 1145.8115624999991,
      "v": 86
    },
    {
      "midi": 64,
      "hit": false,
      "t": 19999.62,
      "d": 1300.3225156249973,
      "v": 97
    },
    {
      "midi": 67,
      "hit": false,
      "t": 20055.17449999999,
      "d": 114.58115624999846,
      "v": 79
    },
    {
      "midi": 84,
      "hit": false,
      "t": 20332.94699999999,
      "d": 95.48429687500175,
      "v": 70
    },
    {
      "midi": 72,
      "hit": false,
      "t": 20388.501499999988,
      "d": 95.48429687500175,
      "v": 70
    },
    {
      "midi": 88,
      "hit": false,
      "t": 20666.27399999999,
      "d": 95.48429687500175,
      "v": 65
    },
    {
      "midi": 71,
      "hit": false,
      "t": 20666.273999999994,
      "d": 687.486937499998,
      "v": 101
    },
    {
      "midi": 71,
      "hit": false,
      "t": 20666.274,
      "d": 95.48429687499811,
      "v": 91
    },
    {
      "midi": 76,
      "hit": false,
      "t": 20721.82849999999,
      "d": 95.48429687500175,
      "v": 65
    },
    {
      "midi": 84,
      "hit": false,
      "t": 20999.60099999999,
      "d": 114.58115624999846,
      "v": 77
    },
    {
      "midi": 72,
      "hit": false,
      "t": 21055.15549999999,
      "d": 114.58115624999846,
      "v": 77
    },
    {
      "midi": 89,
      "hit": false,
      "t": 21332.92799999999,
      "d": 95.48429687500175,
      "v": 80
    },
    {
      "midi": 41,
      "hit": false,
      "t": 21332.927999999993,
      "d": 592.0026406249999,
      "v": 95
    },
    {
      "midi": 69,
      "hit": false,
      "t": 21332.927999999993,
      "d": 668.3900781249977,
      "v": 97
    },
    {
      "midi": 69,
      "hit": false,
      "t": 21332.927999999996,
      "d": 611.0995000000003,
      "v": 91
    },
    {
      "midi": 65,
      "hit": false,
      "t": 21332.927999999996,
      "d": 744.7775156249991,
      "v": 91
    },
    {
      "midi": 65,
      "hit": false,
      "t": 21332.928,
      "d": 229.16231250000055,
      "v": 97
    },
    {
      "midi": 69,
      "hit": false,
      "t": 21332.928,
      "d": 229.16231250000055,
      "v": 97
    },
    {
      "midi": 60,
      "hit": false,
      "t": 21332.928,
      "d": 284.7168124999989,
      "v": 91
    },
    {
      "midi": 53,
      "hit": false,
      "t": 21332.928,
      "d": 305.5497499999983,
      "v": 92
    },
    {
      "midi": 77,
      "hit": false,
      "t": 21388.482499999987,
      "d": 95.48429687500175,
      "v": 80
    },
    {
      "midi": 81,
      "hit": false,
      "t": 21666.25499999999,
      "d": 95.48429687500175,
      "v": 70
    },
    {
      "midi": 69,
      "hit": false,
      "t": 21721.80949999999,
      "d": 95.48429687500175,
      "v": 70
    },
    {
      "midi": 41,
      "hit": false,
      "t": 21999.58199999999,
      "d": 1279.4895781250016,
      "v": 107
    },
    {
      "midi": 67,
      "hit": false,
      "t": 21999.58199999999,
      "d": 649.2932187499973,
      "v": 95
    },
    {
      "midi": 79,
      "hit": false,
      "t": 21999.58199999999,
      "d": 131.94193749999977,
      "v": 62
    },
    {
      "midi": 59,
      "hit": false,
      "t": 21999.581999999995,
      "d": 1814.2016406250004,
      "v": 77
    },
    {
      "midi": 62,
      "hit": false,
      "t": 21999.581999999995,
      "d": 1966.9765156249996,
      "v": 59
    },
    {
      "midi": 67,
      "hit": false,
      "t": 21999.581999999995,
      "d": 3248.202171875,
      "v": 83
    },
    {
      "midi": 62,
      "hit": false,
      "t": 21999.582,
      "d": 647.5571406249983,
      "v": 94
    },
    {
      "midi": 67,
      "hit": false,
      "t": 21999.582,
      "d": 647.5571406249983,
      "v": 86
    },
    {
      "midi": 59,
      "hit": false,
      "t": 21999.582,
      "d": 763.8743749999994,
      "v": 101
    },
    {
      "midi": 53,
      "hit": false,
      "t": 21999.582,
      "d": 1491.2911093750008,
      "v": 105
    },
    {
      "midi": 67,
      "hit": false,
      "t": 22055.13649999999,
      "d": 131.94193749999977,
      "v": 62
    },
    {
      "midi": 83,
      "hit": false,
      "t": 22332.908999999992,
      "d": 114.58115624999846,
      "v": 70
    },
    {
      "midi": 71,
      "hit": false,
      "t": 22388.46349999999,
      "d": 114.58115624999846,
      "v": 70
    },
    {
      "midi": 69,
      "hit": false,
      "t": 22666.23599999999,
      "d": 687.486937499998,
      "v": 92
    },
    {
      "midi": 86,
      "hit": false,
      "t": 22666.23599999999,
      "d": 112.84507812499942,
      "v": 75
    },
    {
      "midi": 69,
      "hit": false,
      "t": 22666.235999999997,
      "d": 649.293218750001,
      "v": 101
    },
    {
      "midi": 74,
      "hit": false,
      "t": 22721.79049999999,
      "d": 112.84507812499942,
      "v": 75
    },
    {
      "midi": 91,
      "hit": false,
      "t": 22999.56299999999,
      "d": 112.84507812499942,
      "v": 71
    },
    {
      "midi": 79,
      "hit": false,
      "t": 23055.11749999999,
      "d": 112.84507812499942,
      "v": 71
    },
    {
      "midi": 71,
      "hit": false,
      "t": 23332.88999999999,
      "d": 668.3900781249977,
      "v": 91
    },
    {
      "midi": 41,
      "hit": false,
      "t": 23332.889999999992,
      "d": 649.293218750001,
      "v": 92
    },
    {
      "midi": 86,
      "hit": false,
      "t": 23332.889999999992,
      "d": 133.6780156249988,
      "v": 47
    },
    {
      "midi": 71,
      "hit": false,
      "t": 23332.89,
      "d": 114.58115624999846,
      "v": 107
    },
    {
      "midi": 74,
      "hit": false,
      "t": 23388.44449999999,
      "d": 133.6780156249988,
      "v": 47
    },
    {
      "midi": 83,
      "hit": false,
      "t": 23666.21699999999,
      "d": 152.77487499999916,
      "v": 68
    },
    {
      "midi": 71,
      "hit": false,
      "t": 23721.771499999988,
      "d": 152.77487499999916,
      "v": 68
    },
    {
      "midi": 72,
      "hit": false,
      "t": 23999.543999999987,
      "d": 670.1261562500003,
      "v": 101
    },
    {
      "midi": 88,
      "hit": false,
      "t": 23999.543999999987,
      "d": 171.8717343749995,
      "v": 70
    },
    {
      "midi": 40,
      "hit": false,
      "t": 23999.543999999994,
      "d": 1336.7801562500026,
      "v": 91
    },
    {
      "midi": 64,
      "hit": false,
      "t": 23999.543999999994,
      "d": 1279.4895781250016,
      "v": 97
    },
    {
      "midi": 60,
      "hit": false,
      "t": 23999.543999999994,
      "d": 6694.31725,
      "v": 83
    },
    {
      "midi": 67,
      "hit": false,
      "t": 23999.543999999998,
      "d": 248.2591718750009,
      "v": 77
    },
    {
      "midi": 72,
      "hit": false,
      "t": 23999.543999999998,
      "d": 324.6466093750023,
      "v": 99
    },
    {
      "midi": 64,
      "hit": false,
      "t": 23999.543999999998,
      "d": 743.0414375000037,
      "v": 92
    },
    {
      "midi": 52,
      "hit": false,
      "t": 23999.543999999998,
      "d": 993.0366875000036,
      "v": 77
    },
    {
      "midi": 76,
      "hit": false,
      "t": 24055.098499999986,
      "d": 171.8717343749995,
      "v": 70
    },
    {
      "midi": 79,
      "hit": false,
      "t": 24332.87099999999,
      "d": 170.13565625000047,
      "v": 54
    },
    {
      "midi": 67,
      "hit": false,
      "t": 24388.425499999987,
      "d": 170.13565625000047,
      "v": 54
    },
    {
      "midi": 67,
      "hit": false,
      "t": 24666.197999999986,
      "d": 706.583796875002,
      "v": 89
    },
    {
      "midi": 84,
      "hit": false,
      "t": 24666.19799999999,
      "d": 229.16231250000055,
      "v": 68
    },
    {
      "midi": 67,
      "hit": false,
      "t": 24666.198,
      "d": 152.7748750000028,
      "v": 89
    },
    {
      "midi": 72,
      "hit": false,
      "t": 24721.752499999988,
      "d": 229.16231250000055,
      "v": 68
    },
    {
      "midi": 88,
      "hit": false,
      "t": 24999.52499999999,
      "d": 190.96859374999985,
      "v": 68
    },
    {
      "midi": 76,
      "hit": false,
      "t": 25055.07949999999,
      "d": 190.96859374999985,
      "v": 68
    },
    {
      "midi": 65,
      "hit": false,
      "t": 25332.851999999988,
      "d": 668.3900781249977,
      "v": 91
    },
    {
      "midi": 89,
      "hit": false,
      "t": 25332.85199999999,
      "d": 229.16231250000055,
      "v": 74
    },
    {
      "midi": 31,
      "hit": false,
      "t": 25332.851999999995,
      "d": 649.293218750001,
      "v": 109
    },
    {
      "midi": 57,
      "hit": false,
      "t": 25332.851999999995,
      "d": 611.0995000000003,
      "v": 92
    },
    {
      "midi": 65,
      "hit": false,
      "t": 25332.851999999995,
      "d": 729.1528125000004,
      "v": 72
    },
    {
      "midi": 53,
      "hit": false,
      "t": 25332.852000000003,
      "d": 305.5497499999983,
      "v": 88
    },
    {
      "midi": 57,
      "hit": false,
      "t": 25332.852000000003,
      "d": 324.64660937499866,
      "v": 85
    },
    {
      "midi": 60,
      "hit": false,
      "t": 25332.852000000003,
      "d": 324.64660937499866,
      "v": 95
    },
    {
      "midi": 65,
      "hit": false,
      "t": 25332.852000000003,
      "d": 324.64660937499866,
      "v": 88
    },
    {
      "midi": 77,
      "hit": false,
      "t": 25388.40649999999,
      "d": 229.16231250000055,
      "v": 74
    },
    {
      "midi": 81,
      "hit": false,
      "t": 25666.178999999993,
      "d": 133.6780156249988,
      "v": 64
    },
    {
      "midi": 69,
      "hit": false,
      "t": 25721.73349999999,
      "d": 133.6780156249988,
      "v": 64
    },
    {
      "midi": 64,
      "hit": false,
      "t": 25999.505999999987,
      "d": 1088.520984374998,
      "v": 103
    },
    {
      "midi": 88,
      "hit": false,
      "t": 25999.50599999999,
      "d": 131.94193749999977,
      "v": 64
    },
    {
      "midi": 64,
      "hit": false,
      "t": 25999.505999999994,
      "d": 3994.715765625002,
      "v": 103
    },
    {
      "midi": 55,
      "hit": false,
      "t": 25999.505999999994,
      "d": 5833.2225,
      "v": 71
    },
    {
      "midi": 36,
      "hit": false,
      "t": 25999.505999999998,
      "d": 1642.329906250001,
      "v": 103
    },
    {
      "midi": 60,
      "hit": false,
      "t": 25999.506,
      "d": 1145.8115624999991,
      "v": 94
    },
    {
      "midi": 55,
      "hit": false,
      "t": 25999.506,
      "d": 1184.0052812499998,
      "v": 72
    },
    {
      "midi": 64,
      "hit": false,
      "t": 25999.506,
      "d": 1241.2958593750009,
      "v": 105
    },
    {
      "midi": 48,
      "hit": false,
      "t": 25999.506,
      "d": 1279.4895781250016,
      "v": 85
    },
    {
      "midi": 76,
      "hit": false,
      "t": 26055.06049999999,
      "d": 131.94193749999977,
      "v": 64
    },
    {
      "midi": 79,
      "hit": false,
      "t": 26332.83299999999,
      "d": 229.16231250000055,
      "v": 64
    },
    {
      "midi": 67,
      "hit": false,
      "t": 26388.38749999999,
      "d": 229.16231250000055,
      "v": 64
    },
    {
      "midi": 84,
      "hit": false,
      "t": 26666.159999999993,
      "d": 152.77487499999916,
      "v": 67
    },
    {
      "midi": 72,
      "hit": false,
      "t": 26721.71449999999,
      "d": 152.77487499999916,
      "v": 67
    },
    {
      "midi": 86,
      "hit": false,
      "t": 26999.48699999999,
      "d": 152.77487499999916,
      "v": 55
    },
    {
      "midi": 74,
      "hit": false,
      "t": 27055.04149999999,
      "d": 152.77487499999916,
      "v": 55
    },
    {
      "midi": 64,
      "hit": false,
      "t": 27332.813999999984,
      "d": 345.4795468750017,
      "v": 107
    },
    {
      "midi": 88,
      "hit": false,
      "t": 27332.813999999988,
      "d": 208.32937500000116,
      "v": 59
    },
    {
      "midi": 64,
      "hit": false,
      "t": 27332.814000000002,
      "d": 361.1042500000003,
      "v": 109
    },
    {
      "midi": 76,
      "hit": false,
      "t": 27388.368499999986,
      "d": 208.32937500000116,
      "v": 59
    },
    {
      "midi": 62,
      "hit": false,
      "t": 27666.140999999985,
      "d": 361.1042500000003,
      "v": 85
    },
    {
      "midi": 84,
      "hit": false,
      "t": 27666.14099999999,
      "d": 114.58115624999846,
      "v": 65
    },
    {
      "midi": 36,
      "hit": false,
      "t": 27666.141,
      "d": 322.9105312499996,
      "v": 91
    },
    {
      "midi": 62,
      "hit": false,
      "t": 27666.141000000003,
      "d": 347.2156249999971,
      "v": 79
    },
    {
      "midi": 72,
      "hit": false,
      "t": 27721.695499999987,
      "d": 114.58115624999846,
      "v": 65
    },
    {
      "midi": 60,
      "hit": false,
      "t": 27999.467999999986,
      "d": 956.5790468749983,
      "v": 99
    },
    {
      "midi": 88,
      "hit": false,
      "t": 27999.467999999986,
      "d": 152.77487499999916,
      "v": 65
    },
    {
      "midi": 60,
      "hit": false,
      "t": 27999.468,
      "d": 1031.2304062500007,
      "v": 99
    },
    {
      "midi": 45,
      "hit": false,
      "t": 27999.468,
      "d": 1338.5162343750017,
      "v": 91
    },
    {
      "midi": 57,
      "hit": false,
      "t": 27999.468,
      "d": 1680.5236250000016,
      "v": 92
    },
    {
      "midi": 33,
      "hit": false,
      "t": 27999.468,
      "d": 1527.7487499999988,
      "v": 103
    },
    {
      "midi": 76,
      "hit": false,
      "t": 28055.022499999985,
      "d": 152.77487499999916,
      "v": 65
    },
    {
      "midi": 84,
      "hit": false,
      "t": 28332.794999999984,
      "d": 171.8717343749995,
      "v": 59
    },
    {
      "midi": 72,
      "hit": false,
      "t": 28388.349499999982,
      "d": 171.8717343749995,
      "v": 59
    },
    {
      "midi": 79,
      "hit": false,
      "t": 28666.121999999985,
      "d": 152.77487499999916,
      "v": 49
    },
    {
      "midi": 67,
      "hit": false,
      "t": 28721.676499999983,
      "d": 152.77487499999916,
      "v": 49
    },
    {
      "midi": 84,
      "hit": false,
      "t": 28999.448999999982,
      "d": 112.84507812499942,
      "v": 56
    },
    {
      "midi": 62,
      "hit": false,
      "t": 28999.448999999986,
      "d": 362.84032812499936,
      "v": 86
    },
    {
      "midi": 62,
      "hit": false,
      "t": 28999.449,
      "d": 362.840328125003,
      "v": 88
    },
    {
      "midi": 72,
      "hit": false,
      "t": 29055.00349999998,
      "d": 112.84507812499942,
      "v": 56
    },
    {
      "midi": 88,
      "hit": false,
      "t": 29332.775999999983,
      "d": 246.52309374999822,
      "v": 68
    },
    {
      "midi": 64,
      "hit": false,
      "t": 29332.775999999987,
      "d": 342.00739062499633,
      "v": 107
    },
    {
      "midi": 64,
      "hit": false,
      "t": 29332.776,
      "d": 305.54975000000195,
      "v": 101
    },
    {
      "midi": 76,
      "hit": false,
      "t": 29388.330499999982,
      "d": 246.52309374999822,
      "v": 68
    },
    {
      "midi": 84,
      "hit": false,
      "t": 29666.10299999998,
      "d": 93.74821874999907,
      "v": 72
    },
    {
      "midi": 65,
      "hit": false,
      "t": 29666.102999999985,
      "d": 324.64660937499866,
      "v": 89
    },
    {
      "midi": 33,
      "hit": false,
      "t": 29666.103,
      "d": 381.9371874999997,
      "v": 91
    },
    {
      "midi": 65,
      "hit": false,
      "t": 29666.103000000003,
      "d": 114.58115624999846,
      "v": 94
    },
    {
      "midi": 72,
      "hit": false,
      "t": 29721.65749999998,
      "d": 93.74821874999907,
      "v": 72
    },
    {
      "midi": 91,
      "hit": false,
      "t": 29999.42999999998,
      "d": 171.8717343749995,
      "v": 68
    },
    {
      "midi": 67,
      "hit": false,
      "t": 29999.429999999982,
      "d": 1336.7801562500026,
      "v": 92
    },
    {
      "midi": 62,
      "hit": false,
      "t": 29999.429999999997,
      "d": 1993.0176874999997,
      "v": 64
    },
    {
      "midi": 60,
      "hit": false,
      "t": 29999.43,
      "d": 553.8089218750029,
      "v": 92
    },
    {
      "midi": 62,
      "hit": false,
      "t": 29999.43,
      "d": 1184.0052812500035,
      "v": 85
    },
    {
      "midi": 67,
      "hit": false,
      "t": 29999.43,
      "d": 1374.9738750000033,
      "v": 89
    },
    {
      "midi": 55,
      "hit": false,
      "t": 29999.43,
      "d": 1795.1047812500037,
      "v": 77
    },
    {
      "midi": 31,
      "hit": false,
      "t": 29999.43,
      "d": 1986.073375,
      "v": 94
    },
    {
      "midi": 79,
      "hit": false,
      "t": 30054.984499999977,
      "d": 171.8717343749995,
      "v": 68
    },
    {
      "midi": 86,
      "hit": false,
      "t": 30332.75699999998,
      "d": 112.84507812499942,
      "v": 40
    },
    {
      "midi": 74,
      "hit": false,
      "t": 30388.311499999978,
      "d": 112.84507812499942,
      "v": 40
    },
    {
      "midi": 83,
      "hit": false,
      "t": 30666.08399999998,
      "d": 171.8717343749995,
      "v": 62
    },
    {
      "midi": 59,
      "hit": false,
      "t": 30666.083999999995,
      "d": 1184.0052812499998,
      "v": 99
    },
    {
      "midi": 59,
      "hit": false,
      "t": 30666.084000000003,
      "d": 1013.869625000003,
      "v": 103
    },
    {
      "midi": 71,
      "hit": false,
      "t": 30721.63849999998,
      "d": 171.8717343749995,
      "v": 62
    },
    {
      "midi": 86,
      "hit": false,
      "t": 30999.410999999982,
      "d": 190.96859374999985,
      "v": 59
    },
    {
      "midi": 74,
      "hit": false,
      "t": 31054.96549999998,
      "d": 190.96859374999985,
      "v": 59
    },
    {
      "midi": 69,
      "hit": false,
      "t": 31332.737999999983,
      "d": 343.74346875000265,
      "v": 91
    },
    {
      "midi": 79,
      "hit": false,
      "t": 31332.737999999983,
      "d": 248.2591718750009,
      "v": 67
    },
    {
      "midi": 69,
      "hit": false,
      "t": 31332.738000000005,
      "d": 190.96859374999985,
      "v": 95
    },
    {
      "midi": 67,
      "hit": false,
      "t": 31388.29249999998,
      "d": 248.2591718750009,
      "v": 67
    },
    {
      "midi": 71,
      "hit": false,
      "t": 31666.064999999984,
      "d": 345.4795468750017,
      "v": 89
    },
    {
      "midi": 83,
      "hit": false,
      "t": 31666.064999999984,
      "d": 76.3874375000014,
      "v": 52
    },
    {
      "midi": 71,
      "hit": false,
      "t": 31666.065000000006,
      "d": 112.84507812499942,
      "v": 89
    },
    {
      "midi": 71,
      "hit": false,
      "t": 31721.619499999983,
      "d": 76.3874375000014,
      "v": 52
    },
    {
      "midi": 72,
      "hit": false,
      "t": 31999.391999999985,
      "d": 668.3900781250013,
      "v": 99
    },
    {
      "midi": 81,
      "hit": false,
      "t": 31999.391999999985,
      "d": 208.32937500000116,
      "v": 82
    },
    {
      "midi": 57,
      "hit": false,
      "t": 31999.391999999996,
      "d": 1854.1314374999965,
      "v": 77
    },
    {
      "midi": 65,
      "hit": false,
      "t": 31999.391999999996,
      "d": 2694.3932499999974,
      "v": 70
    },
    {
      "midi": 60,
      "hit": false,
      "t": 31999.391999999996,
      "d": 7319.305374999993,
      "v": 83
    },
    {
      "midi": 29,
      "hit": false,
      "t": 31999.392,
      "d": 2005.1702343750003,
      "v": 107
    },
    {
      "midi": 72,
      "hit": false,
      "t": 31999.392000000003,
      "d": 666.6539999999986,
      "v": 97
    },
    {
      "midi": 69,
      "hit": false,
      "t": 31999.392000000003,
      "d": 668.3900781249977,
      "v": 103
    },
    {
      "midi": 65,
      "hit": false,
      "t": 31999.392000000003,
      "d": 1031.2304062500007,
      "v": 85
    },
    {
      "midi": 53,
      "hit": false,
      "t": 31999.392000000003,
      "d": 1451.361312500001,
      "v": 95
    },
    {
      "midi": 69,
      "hit": false,
      "t": 32054.946499999984,
      "d": 208.32937500000116,
      "v": 82
    },
    {
      "midi": 84,
      "hit": false,
      "t": 32332.718999999986,
      "d": 152.77487499999916,
      "v": 77
    },
    {
      "midi": 72,
      "hit": false,
      "t": 32388.273499999985,
      "d": 152.77487499999916,
      "v": 77
    },
    {
      "midi": 89,
      "hit": false,
      "t": 32666.045999999984,
      "d": 152.77487499999916,
      "v": 82
    },
    {
      "midi": 71,
      "hit": false,
      "t": 32666.045999999988,
      "d": 706.5837968750056,
      "v": 91
    },
    {
      "midi": 71,
      "hit": false,
      "t": 32666.046000000002,
      "d": 420.1309062500004,
      "v": 94
    },
    {
      "midi": 77,
      "hit": false,
      "t": 32721.600499999982,
      "d": 152.77487499999916,
      "v": 82
    },
    {
      "midi": 84,
      "hit": false,
      "t": 32999.372999999985,
      "d": 208.32937500000116,
      "v": 70
    },
    {
      "midi": 72,
      "hit": false,
      "t": 33054.92749999998,
      "d": 208.32937500000116,
      "v": 70
    },
    {
      "midi": 69,
      "hit": false,
      "t": 33332.69999999999,
      "d": 630.1963593750042,
      "v": 92
    },
    {
      "midi": 93,
      "hit": false,
      "t": 33332.69999999999,
      "d": 210.06545312499657,
      "v": 75
    },
    {
      "midi": 65,
      "hit": false,
      "t": 33332.700000000004,
      "d": 133.67801562500244,
      "v": 83
    },
    {
      "midi": 69,
      "hit": false,
      "t": 33332.700000000004,
      "d": 152.7748750000028,
      "v": 83
    },
    {
      "midi": 60,
      "hit": false,
      "t": 33332.700000000004,
      "d": 171.87173437500314,
      "v": 74
    },
    {
      "midi": 81,
      "hit": false,
      "t": 33388.25449999999,
      "d": 210.06545312499657,
      "v": 75
    },
    {
      "midi": 89,
      "hit": false,
      "t": 33666.02699999999,
      "d": 114.5811562500021,
      "v": 71
    },
    {
      "midi": 77,
      "hit": false,
      "t": 33721.581499999986,
      "d": 114.5811562500021,
      "v": 71
    },
    {
      "midi": 67,
      "hit": false,
      "t": 33999.35399999999,
      "d": 1319.4193749999977,
      "v": 74
    },
    {
      "midi": 67,
      "hit": false,
      "t": 33999.35399999999,
      "d": 1319.4193749999977,
      "v": 99
    },
    {
      "midi": 91,
      "hit": false,
      "t": 33999.35399999999,
      "d": 171.87173437500314,
      "v": 79
    },
    {
      "midi": 36,
      "hit": false,
      "t": 33999.354,
      "d": 1336.7801562499953,
      "v": 107
    },
    {
      "midi": 65,
      "hit": false,
      "t": 33999.35400000001,
      "d": 725.6806562499987,
      "v": 91
    },
    {
      "midi": 67,
      "hit": false,
      "t": 33999.35400000001,
      "d": 859.3586718750012,
      "v": 86
    },
    {
      "midi": 48,
      "hit": false,
      "t": 33999.35400000001,
      "d": 897.5523906250019,
      "v": 97
    },
    {
      "midi": 60,
      "hit": false,
      "t": 33999.35400000001,
      "d": 935.7461093750026,
      "v": 83
    },
    {
      "midi": 79,
      "hit": false,
      "t": 34054.90849999999,
      "d": 171.87173437500314,
      "v": 79
    },
    {
      "midi": 88,
      "hit": false,
      "t": 34332.681,
      "d": 131.94193749999977,
      "v": 60
    },
    {
      "midi": 76,
      "hit": false,
      "t": 34388.235499999995,
      "d": 131.94193749999977,
      "v": 60
    },
    {
      "midi": 64,
      "hit": false,
      "t": 34666.007999999994,
      "d": 649.2932187499973,
      "v": 94
    },
    {
      "midi": 84,
      "hit": false,
      "t": 34666.007999999994,
      "d": 112.84507812499942,
      "v": 49
    },
    {
      "midi": 64,
      "hit": false,
      "t": 34666.00800000001,
      "d": 152.77487499999552,
      "v": 107
    },
    {
      "midi": 72,
      "hit": false,
      "t": 34721.56249999999,
      "d": 112.84507812499942,
      "v": 49
    },
    {
      "midi": 88,
      "hit": false,
      "t": 34999.33499999999,
      "d": 133.67801562500244,
      "v": 70
    },
    {
      "midi": 76,
      "hit": false,
      "t": 35054.88949999999,
      "d": 133.67801562500244,
      "v": 70
    },
    {
      "midi": 69,
      "hit": false,
      "t": 35332.66199999999,
      "d": 708.319875000001,
      "v": 56
    },
    {
      "midi": 65,
      "hit": false,
      "t": 35332.66199999999,
      "d": 744.7775156249991,
      "v": 86
    },
    {
      "midi": 69,
      "hit": false,
      "t": 35332.66199999999,
      "d": 343.743468749999,
      "v": 89
    },
    {
      "midi": 41,
      "hit": false,
      "t": 35332.662,
      "d": 706.5837968749984,
      "v": 107
    },
    {
      "midi": 79,
      "hit": false,
      "t": 35332.662,
      "d": 133.67801562500244,
      "v": 77
    },
    {
      "midi": 53,
      "hit": false,
      "t": 35332.66200000001,
      "d": 305.5497499999983,
      "v": 94
    },
    {
      "midi": 65,
      "hit": false,
      "t": 35332.66200000001,
      "d": 326.38268750000134,
      "v": 82
    },
    {
      "midi": 69,
      "hit": false,
      "t": 35332.66200000001,
      "d": 342.0073906250036,
      "v": 92
    },
    {
      "midi": 60,
      "hit": false,
      "t": 35332.66200000001,
      "d": 343.7434687500063,
      "v": 83
    },
    {
      "midi": 67,
      "hit": false,
      "t": 35388.216499999995,
      "d": 133.67801562500244,
      "v": 77
    },
    {
      "midi": 71,
      "hit": false,
      "t": 35665.98899999999,
      "d": 364.57640625000204,
      "v": 91
    },
    {
      "midi": 81,
      "hit": false,
      "t": 35665.989,
      "d": 131.94193749999977,
      "v": 71
    },
    {
      "midi": 71,
      "hit": false,
      "t": 35665.989000000016,
      "d": 112.84507812499942,
      "v": 91
    },
    {
      "midi": 69,
      "hit": false,
      "t": 35721.5435,
      "d": 131.94193749999977,
      "v": 71
    },
    {
      "midi": 36,
      "hit": false,
      "t": 35999.31599999999,
      "d": 1336.7801562500026,
      "v": 103
    },
    {
      "midi": 64,
      "hit": false,
      "t": 35999.31599999999,
      "d": 1336.7801562499953,
      "v": 91
    },
    {
      "midi": 67,
      "hit": false,
      "t": 35999.31599999999,
      "d": 1336.7801562499953,
      "v": 85
    },
    {
      "midi": 72,
      "hit": false,
      "t": 35999.31599999999,
      "d": 725.6806562499914,
      "v": 91
    },
    {
      "midi": 79,
      "hit": false,
      "t": 35999.316,
      "d": 152.7748750000028,
      "v": 82
    },
    {
      "midi": 72,
      "hit": false,
      "t": 35999.31600000001,
      "d": 592.0026406249963,
      "v": 86
    },
    {
      "midi": 67,
      "hit": false,
      "t": 35999.31600000001,
      "d": 687.486937499998,
      "v": 83
    },
    {
      "midi": 48,
      "hit": false,
      "t": 35999.31600000001,
      "d": 706.5837968749984,
      "v": 89
    },
    {
      "midi": 64,
      "hit": false,
      "t": 35999.31600000001,
      "d": 763.8743749999994,
      "v": 88
    },
    {
      "midi": 67,
      "hit": false,
      "t": 36054.8705,
      "d": 152.7748750000028,
      "v": 82
    },
    {
      "midi": 84,
      "hit": false,
      "t": 36332.643000000004,
      "d": 93.74821874999907,
      "v": 66
    },
    {
      "midi": 72,
      "hit": false,
      "t": 36388.1975,
      "d": 93.74821874999907,
      "v": 66
    },
    {
      "midi": 71,
      "hit": false,
      "t": 36665.96999999999,
      "d": 687.486937499998,
      "v": 89
    },
    {
      "midi": 88,
      "hit": false,
      "t": 36665.97,
      "d": 171.87173437500314,
      "v": 70
    },
    {
      "midi": 71,
      "hit": false,
      "t": 36665.97000000001,
      "d": 133.67801562500244,
      "v": 91
    },
    {
      "midi": 76,
      "hit": false,
      "t": 36721.5245,
      "d": 171.87173437500314,
      "v": 70
    },
    {
      "midi": 84,
      "hit": false,
      "t": 36999.297000000006,
      "d": 114.5811562500021,
      "v": 67
    },
    {
      "midi": 72,
      "hit": false,
      "t": 37054.851500000004,
      "d": 114.5811562500021,
      "v": 67
    },
    {
      "midi": 69,
      "hit": false,
      "t": 37332.62399999998,
      "d": 668.390078125005,
      "v": 94
    },
    {
      "midi": 69,
      "hit": false,
      "t": 37332.62399999999,
      "d": 668.3900781249977,
      "v": 74
    },
    {
      "midi": 65,
      "hit": false,
      "t": 37332.62399999999,
      "d": 706.5837968749984,
      "v": 88
    },
    {
      "midi": 41,
      "hit": false,
      "t": 37332.623999999996,
      "d": 668.3900781249977,
      "v": 99
    },
    {
      "midi": 53,
      "hit": false,
      "t": 37332.62400000001,
      "d": 248.25917187499726,
      "v": 86
    },
    {
      "midi": 65,
      "hit": false,
      "t": 37332.62400000001,
      "d": 265.61995312499494,
      "v": 88
    },
    {
      "midi": 69,
      "hit": false,
      "t": 37332.62400000001,
      "d": 305.5497499999983,
      "v": 89
    },
    {
      "midi": 60,
      "hit": false,
      "t": 37332.62400000001,
      "d": 324.64660937499866,
      "v": 82
    },
    {
      "midi": 89,
      "hit": false,
      "t": 37332.62400000001,
      "d": 190.9685937500035,
      "v": 77
    },
    {
      "midi": 77,
      "hit": false,
      "t": 37388.17850000001,
      "d": 190.9685937500035,
      "v": 77
    },
    {
      "midi": 81,
      "hit": false,
      "t": 37665.951000000015,
      "d": 133.67801562500244,
      "v": 75
    },
    {
      "midi": 69,
      "hit": false,
      "t": 37721.505500000014,
      "d": 133.67801562500244,
      "v": 75
    },
    {
      "midi": 64,
      "hit": false,
      "t": 37999.277999999984,
      "d": 611.0995000000039,
      "v": 88
    },
    {
      "midi": 67,
      "hit": false,
      "t": 37999.277999999984,
      "d": 687.4869375000053,
      "v": 74
    },
    {
      "midi": 67,
      "hit": false,
      "t": 37999.277999999984,
      "d": 649.2932187500046,
      "v": 86
    },
    {
      "midi": 36,
      "hit": false,
      "t": 37999.27799999999,
      "d": 668.390078125005,
      "v": 88
    },
    {
      "midi": 60,
      "hit": false,
      "t": 37999.278000000006,
      "d": 342.0073906250036,
      "v": 75
    },
    {
      "midi": 48,
      "hit": false,
      "t": 37999.278000000006,
      "d": 343.7434687500063,
      "v": 97
    },
    {
      "midi": 64,
      "hit": false,
      "t": 37999.278000000006,
      "d": 361.10425000000396,
      "v": 95
    },
    {
      "midi": 67,
      "hit": false,
      "t": 37999.278000000006,
      "d": 361.10425000000396,
      "v": 89
    },
    {
      "midi": 88,
      "hit": false,
      "t": 37999.27800000002,
      "d": 284.71681250000256,
      "v": 65
    },
    {
      "midi": 76,
      "hit": false,
      "t": 38054.83250000002,
      "d": 284.71681250000256,
      "v": 65
    },
    {
      "midi": 79,
      "hit": false,
      "t": 38332.605000000025,
      "d": 112.84507812499942,
      "v": 68
    },
    {
      "midi": 67,
      "hit": false,
      "t": 38388.15950000002,
      "d": 112.84507812499942,
      "v": 68
    },
    {
      "midi": 65,
      "hit": false,
      "t": 38665.931999999986,
      "d": 708.319875000001,
      "v": 80
    },
    {
      "midi": 69,
      "hit": false,
      "t": 38665.931999999986,
      "d": 744.7775156249991,
      "v": 95
    },
    {
      "midi": 69,
      "hit": false,
      "t": 38665.931999999986,
      "d": 687.4869375000053,
      "v": 95
    },
    {
      "midi": 41,
      "hit": false,
      "t": 38665.93199999999,
      "d": 725.6806562499987,
      "v": 101
    },
    {
      "midi": 60,
      "hit": false,
      "t": 38665.93200000001,
      "d": 267.3560312499976,
      "v": 86
    },
    {
      "midi": 65,
      "hit": false,
      "t": 38665.93200000001,
      "d": 286.45289062499796,
      "v": 85
    },
    {
      "midi": 69,
      "hit": false,
      "t": 38665.93200000001,
      "d": 305.5497499999983,
      "v": 94
    },
    {
      "midi": 53,
      "hit": false,
      "t": 38665.93200000001,
      "d": 324.64660937499866,
      "v": 89
    },
    {
      "midi": 89,
      "hit": false,
      "t": 38665.93200000002,
      "d": 343.743468749999,
      "v": 68
    },
    {
      "midi": 77,
      "hit": false,
      "t": 38721.48650000002,
      "d": 343.743468749999,
      "v": 68
    },
    {
      "midi": 81,
      "hit": false,
      "t": 38999.25900000002,
      "d": 133.67801562500244,
      "v": 64
    },
    {
      "midi": 69,
      "hit": false,
      "t": 39054.81350000002,
      "d": 133.67801562500244,
      "v": 64
    },
    {
      "midi": 62,
      "hit": false,
      "t": 39332.58599999999,
      "d": 477.4214843749942,
      "v": 64
    },
    {
      "midi": 71,
      "hit": false,
      "t": 39332.58599999999,
      "d": 670.1261562499931,
      "v": 66
    },
    {
      "midi": 67,
      "hit": false,
      "t": 39332.58599999999,
      "d": 1951.35181249999,
      "v": 92
    },
    {
      "midi": 71,
      "hit": false,
      "t": 39332.58599999999,
      "d": 725.6806562499987,
      "v": 89
    },
    {
      "midi": 43,
      "hit": false,
      "t": 39332.585999999996,
      "d": 668.3900781249977,
      "v": 101
    },
    {
      "midi": 55,
      "hit": false,
      "t": 39332.58600000001,
      "d": 284.71681250000256,
      "v": 67
    },
    {
      "midi": 71,
      "hit": false,
      "t": 39332.58600000001,
      "d": 284.71681250000256,
      "v": 85
    },
    {
      "midi": 62,
      "hit": false,
      "t": 39332.58600000001,
      "d": 305.5497500000056,
      "v": 68
    },
    {
      "midi": 67,
      "hit": false,
      "t": 39332.58600000001,
      "d": 324.64660937500594,
      "v": 82
    },
    {
      "midi": 91,
      "hit": false,
      "t": 39332.586000000025,
      "d": 305.5497499999983,
      "v": 72
    },
    {
      "midi": 79,
      "hit": false,
      "t": 39388.14050000002,
      "d": 305.5497499999983,
      "v": 72
    },
    {
      "midi": 83,
      "hit": false,
      "t": 39665.91300000002,
      "d": 131.94193749999977,
      "v": 74
    },
    {
      "midi": 71,
      "hit": false,
      "t": 39721.46750000002,
      "d": 131.94193749999977,
      "v": 74
    },
    {
      "midi": 72,
      "hit": false,
      "t": 39999.23999999998,
      "d": 611.0994999999966,
      "v": 80
    },
    {
      "midi": 64,
      "hit": false,
      "t": 39999.23999999998,
      "d": 1298.5864374999946,
      "v": 92
    },
    {
      "midi": 36,
      "hit": false,
      "t": 39999.23999999999,
      "d": 1357.6130937500056,
      "v": 97
    },
    {
      "midi": 72,
      "hit": false,
      "t": 39999.23999999999,
      "d": 649.2932187499973,
      "v": 95
    },
    {
      "midi": 67,
      "hit": false,
      "t": 39999.24000000002,
      "d": 171.87173437500314,
      "v": 85
    },
    {
      "midi": 72,
      "hit": false,
      "t": 39999.24000000002,
      "d": 190.9685937500035,
      "v": 95
    },
    {
      "midi": 64,
      "hit": false,
      "t": 39999.24000000002,
      "d": 763.8743749999994,
      "v": 97
    },
    {
      "midi": 48,
      "hit": false,
      "t": 39999.24000000002,
      "d": 782.9712343749998,
      "v": 92
    },
    {
      "midi": 88,
      "hit": false,
      "t": 39999.24000000002,
      "d": 133.67801562500244,
      "v": 74
    },
    {
      "midi": 76,
      "hit": false,
      "t": 40054.79450000002,
      "d": 133.67801562500244,
      "v": 74
    },
    {
      "midi": 79,
      "hit": false,
      "t": 40332.567000000025,
      "d": 246.52309375000186,
      "v": 59
    },
    {
      "midi": 67,
      "hit": false,
      "t": 40388.12150000002,
      "d": 246.52309375000186,
      "v": 59
    },
    {
      "midi": 60,
      "hit": false,
      "t": 40665.89399999998,
      "d": 496.5183437500018,
      "v": 94
    },
    {
      "midi": 67,
      "hit": false,
      "t": 40665.893999999986,
      "d": 687.4869375000053,
      "v": 94
    },
    {
      "midi": 67,
      "hit": false,
      "t": 40665.89400000002,
      "d": 112.84507812499942,
      "v": 77
    },
    {
      "midi": 84,
      "hit": false,
      "t": 40665.89400000003,
      "d": 131.94193749999977,
      "v": 71
    },
    {
      "midi": 72,
      "hit": false,
      "t": 40721.44850000003,
      "d": 131.94193749999977,
      "v": 71
    },
    {
      "midi": 88,
      "hit": false,
      "t": 40999.22100000003,
      "d": 95.48429687500175,
      "v": 67
    },
    {
      "midi": 76,
      "hit": false,
      "t": 41054.775500000025,
      "d": 95.48429687500175,
      "v": 67
    },
    {
      "midi": 57,
      "hit": false,
      "t": 41332.54799999998,
      "d": 571.1697031250005,
      "v": 86
    },
    {
      "midi": 55,
      "hit": false,
      "t": 41332.54799999998,
      "d": 592.0026406250036,
      "v": 56
    },
    {
      "midi": 65,
      "hit": false,
      "t": 41332.54799999998,
      "d": 647.5571406250019,
      "v": 82
    },
    {
      "midi": 62,
      "hit": false,
      "t": 41332.54799999998,
      "d": 687.4869375000053,
      "v": 65
    },
    {
      "midi": 65,
      "hit": false,
      "t": 41332.54799999999,
      "d": 666.6540000000023,
      "v": 91
    },
    {
      "midi": 31,
      "hit": false,
      "t": 41332.547999999995,
      "d": 668.390078125005,
      "v": 103
    },
    {
      "midi": 62,
      "hit": false,
      "t": 41332.54800000002,
      "d": 210.06545312499657,
      "v": 82
    },
    {
      "midi": 55,
      "hit": false,
      "t": 41332.54800000002,
      "d": 248.25917187499726,
      "v": 68
    },
    {
      "midi": 59,
      "hit": false,
      "t": 41332.54800000002,
      "d": 248.25917187499726,
      "v": 85
    },
    {
      "midi": 65,
      "hit": false,
      "t": 41332.54800000002,
      "d": 267.3560312499976,
      "v": 77
    },
    {
      "midi": 89,
      "hit": false,
      "t": 41332.54800000003,
      "d": 131.94193749999977,
      "v": 79
    },
    {
      "midi": 77,
      "hit": false,
      "t": 41388.10250000003,
      "d": 131.94193749999977,
      "v": 79
    },
    {
      "midi": 83,
      "hit": false,
      "t": 41665.87500000003,
      "d": 114.5811562500021,
      "v": 66
    },
    {
      "midi": 71,
      "hit": false,
      "t": 41721.42950000003,
      "d": 114.5811562500021,
      "v": 66
    },
    {
      "midi": 55,
      "hit": false,
      "t": 41999.20199999998,
      "d": 1243.0319375000036,
      "v": 70
    },
    {
      "midi": 60,
      "hit": false,
      "t": 41999.20199999998,
      "d": 1355.877015625003,
      "v": 80
    },
    {
      "midi": 64,
      "hit": false,
      "t": 41999.20199999998,
      "d": 4069.3671250000116,
      "v": 94
    },
    {
      "midi": 64,
      "hit": false,
      "t": 41999.20199999999,
      "d": 1184.0052812499998,
      "v": 103
    },
    {
      "midi": 36,
      "hit": false,
      "t": 41999.202,
      "d": 1031.2304062500043,
      "v": 99
    },
    {
      "midi": 60,
      "hit": false,
      "t": 41999.20200000001,
      "d": 770.8186875000029,
      "v": 85
    },
    {
      "midi": 55,
      "hit": false,
      "t": 41999.20200000001,
      "d": 866.3029843750046,
      "v": 71
    },
    {
      "midi": 64,
      "hit": false,
      "t": 41999.20200000001,
      "d": 866.3029843750046,
      "v": 95
    },
    {
      "midi": 48,
      "hit": false,
      "t": 41999.20200000001,
      "d": 923.5935625000056,
      "v": 83
    },
    {
      "midi": 88,
      "hit": false,
      "t": 41999.202000000034,
      "d": 152.7748750000028,
      "v": 83
    },
    {
      "midi": 76,
      "hit": false,
      "t": 42054.75650000003,
      "d": 152.7748750000028,
      "v": 83
    },
    {
      "midi": 79,
      "hit": false,
      "t": 42332.52900000004,
      "d": 305.5497499999983,
      "v": 60
    },
    {
      "midi": 67,
      "hit": false,
      "t": 42388.08350000004,
      "d": 305.5497499999983,
      "v": 60
    },
    {
      "midi": 84,
      "hit": false,
      "t": 42665.856000000036,
      "d": 305.5497499999983,
      "v": 64
    },
    {
      "midi": 72,
      "hit": false,
      "t": 42721.410500000035,
      "d": 305.5497499999983,
      "v": 64
    },
    {
      "midi": 88,
      "hit": false,
      "t": 42999.183000000034,
      "d": 133.67801562500244,
      "v": 58
    },
    {
      "midi": 76,
      "hit": false,
      "t": 43054.73750000003,
      "d": 133.67801562500244,
      "v": 58
    },
    {
      "midi": 53,
      "hit": false,
      "t": 43332.50999999999,
      "d": 590.2665625000009,
      "v": 88
    },
    {
      "midi": 59,
      "hit": false,
      "t": 43332.50999999999,
      "d": 706.5837968750056,
      "v": 105
    },
    {
      "midi": 64,
      "hit": false,
      "t": 43332.50999999999,
      "d": 342.00739062499633,
      "v": 109
    },
    {
      "midi": 31,
      "hit": false,
      "t": 43332.51,
      "d": 725.6806562499987,
      "v": 95
    },
    {
      "midi": 43,
      "hit": false,
      "t": 43332.51000000002,
      "d": 229.16231249999691,
      "v": 77
    },
    {
      "midi": 64,
      "hit": false,
      "t": 43332.51000000002,
      "d": 284.7168124999953,
      "v": 103
    },
    {
      "midi": 59,
      "hit": false,
      "t": 43332.51000000002,
      "d": 361.1042499999967,
      "v": 103
    },
    {
      "midi": 53,
      "hit": false,
      "t": 43332.51000000002,
      "d": 458.3246250000011,
      "v": 86
    },
    {
      "midi": 86,
      "hit": false,
      "t": 43332.51000000004,
      "d": 343.743468749999,
      "v": 30
    },
    {
      "midi": 74,
      "hit": false,
      "t": 43388.06450000004,
      "d": 343.743468749999,
      "v": 30
    },
    {
      "midi": 62,
      "hit": false,
      "t": 43665.836999999985,
      "d": 361.1042499999967,
      "v": 82
    },
    {
      "midi": 62,
      "hit": false,
      "t": 43665.837000000014,
      "d": 76.3874375000014,
      "v": 83
    },
    {
      "midi": 83,
      "hit": false,
      "t": 43665.837000000036,
      "d": 114.5811562500021,
      "v": 60
    },
    {
      "midi": 71,
      "hit": false,
      "t": 43721.391500000034,
      "d": 114.5811562500021,
      "v": 60
    },
    {
      "midi": 60,
      "hit": false,
      "t": 43999.16399999998,
      "d": 1012.1335468749967,
      "v": 99
    },
    {
      "midi": 60,
      "hit": false,
      "t": 43999.16399999999,
      "d": 1814.201640625004,
      "v": 72
    },
    {
      "midi": 55,
      "hit": false,
      "t": 43999.16399999999,
      "d": 1833.2985000000044,
      "v": 82
    },
    {
      "midi": 36,
      "hit": false,
      "t": 43999.164000000004,
      "d": 1565.9424687499995,
      "v": 97
    },
    {
      "midi": 55,
      "hit": false,
      "t": 43999.16400000002,
      "d": 418.39482812499773,
      "v": 70
    },
    {
      "midi": 52,
      "hit": false,
      "t": 43999.16400000002,
      "d": 590.2665625000009,
      "v": 79
    },
    {
      "midi": 60,
      "hit": false,
      "t": 43999.16400000002,
      "d": 993.0366875000036,
      "v": 101
    },
    {
      "midi": 48,
      "hit": false,
      "t": 43999.16400000002,
      "d": 1682.2597031250116,
      "v": 94
    },
    {
      "midi": 88,
      "hit": false,
      "t": 43999.16400000004,
      "d": 210.06545312499657,
      "v": 79
    },
    {
      "midi": 76,
      "hit": false,
      "t": 44054.71850000004,
      "d": 210.06545312499657,
      "v": 79
    },
    {
      "midi": 79,
      "hit": false,
      "t": 44332.49100000004,
      "d": 189.23251562500081,
      "v": 67
    },
    {
      "midi": 67,
      "hit": false,
      "t": 44388.04550000004,
      "d": 189.23251562500081,
      "v": 67
    },
    {
      "midi": 84,
      "hit": false,
      "t": 44665.818000000036,
      "d": 152.7748750000028,
      "v": 58
    },
    {
      "midi": 72,
      "hit": false,
      "t": 44721.372500000034,
      "d": 152.7748750000028,
      "v": 58
    },
    {
      "midi": 62,
      "hit": false,
      "t": 44999.14499999998,
      "d": 343.743468749999,
      "v": 83
    },
    {
      "midi": 62,
      "hit": false,
      "t": 44999.145000000026,
      "d": 326.38268750000134,
      "v": 85
    },
    {
      "midi": 86,
      "hit": false,
      "t": 44999.14500000004,
      "d": 171.87173437500314,
      "v": 53
    },
    {
      "midi": 74,
      "hit": false,
      "t": 45054.69950000004,
      "d": 171.87173437500314,
      "v": 53
    },
    {
      "midi": 64,
      "hit": false,
      "t": 45332.47199999998,
      "d": 343.7434687500063,
      "v": 107
    },
    {
      "midi": 64,
      "hit": false,
      "t": 45332.47200000003,
      "d": 324.64660937499866,
      "v": 94
    },
    {
      "midi": 88,
      "hit": false,
      "t": 45332.472000000045,
      "d": 248.25917187499726,
      "v": 61
    },
    {
      "midi": 76,
      "hit": false,
      "t": 45388.02650000004,
      "d": 248.25917187499726,
      "v": 61
    },
    {
      "midi": 65,
      "hit": false,
      "t": 45665.798999999985,
      "d": 362.84032812500664,
      "v": 80
    },
    {
      "midi": 36,
      "hit": false,
      "t": 45665.799000000006,
      "d": 324.64660937499866,
      "v": 94
    },
    {
      "midi": 65,
      "hit": false,
      "t": 45665.79900000003,
      "d": 131.94193749999977,
      "v": 89
    },
    {
      "midi": 84,
      "hit": false,
      "t": 45665.79900000004,
      "d": 133.67801562500244,
      "v": 64
    },
    {
      "midi": 72,
      "hit": false,
      "t": 45721.35350000004,
      "d": 133.67801562500244,
      "v": 64
    },
    {
      "midi": 67,
      "hit": false,
      "t": 45999.12599999999,
      "d": 1355.877015625003,
      "v": 92
    },
    {
      "midi": 59,
      "hit": false,
      "t": 45999.126,
      "d": 1814.2016406249968,
      "v": 88
    },
    {
      "midi": 62,
      "hit": false,
      "t": 45999.126,
      "d": 1854.1314375000002,
      "v": 71
    },
    {
      "midi": 67,
      "hit": false,
      "t": 45999.126,
      "d": 1871.4922187499978,
      "v": 64
    },
    {
      "midi": 40,
      "hit": false,
      "t": 45999.126000000004,
      "d": 2043.363953125001,
      "v": 95
    },
    {
      "midi": 59,
      "hit": false,
      "t": 45999.126000000026,
      "d": 687.486937499998,
      "v": 99
    },
    {
      "midi": 62,
      "hit": false,
      "t": 45999.126000000026,
      "d": 920.1214062500003,
      "v": 94
    },
    {
      "midi": 67,
      "hit": false,
      "t": 45999.126000000026,
      "d": 977.4119843750013,
      "v": 99
    },
    {
      "midi": 52,
      "hit": false,
      "t": 45999.126000000026,
      "d": 1760.3832187500084,
      "v": 95
    },
    {
      "midi": 86,
      "hit": false,
      "t": 45999.12600000005,
      "d": 171.87173437500314,
      "v": 66
    },
    {
      "midi": 74,
      "hit": false,
      "t": 46054.680500000046,
      "d": 171.87173437500314,
      "v": 66
    },
    {
      "midi": 79,
      "hit": false,
      "t": 46332.45300000005,
      "d": 190.9685937500035,
      "v": 70
    },
    {
      "midi": 67,
      "hit": false,
      "t": 46388.00750000005,
      "d": 190.9685937500035,
      "v": 70
    },
    {
      "midi": 83,
      "hit": false,
      "t": 46665.78000000006,
      "d": 131.94193749999977,
      "v": 77
    },
    {
      "midi": 71,
      "hit": false,
      "t": 46721.334500000055,
      "d": 131.94193749999977,
      "v": 77
    },
    {
      "midi": 86,
      "hit": false,
      "t": 46999.107000000055,
      "d": 189.23251562500081,
      "v": 55
    },
    {
      "midi": 74,
      "hit": false,
      "t": 47054.66150000005,
      "d": 189.23251562500081,
      "v": 55
    },
    {
      "midi": 72,
      "hit": false,
      "t": 47332.433999999994,
      "d": 326.38268750000134,
      "v": 103
    },
    {
      "midi": 72,
      "hit": false,
      "t": 47332.43400000003,
      "d": 284.71681250000256,
      "v": 94
    },
    {
      "midi": 91,
      "hit": false,
      "t": 47332.43400000005,
      "d": 284.71681250000256,
      "v": 68
    },
    {
      "midi": 79,
      "hit": false,
      "t": 47387.98850000005,
      "d": 284.71681250000256,
      "v": 68
    },
    {
      "midi": 71,
      "hit": false,
      "t": 47665.761,
      "d": 343.743468749999,
      "v": 92
    },
    {
      "midi": 71,
      "hit": false,
      "t": 47665.761000000035,
      "d": 95.48429687500175,
      "v": 89
    },
    {
      "midi": 83,
      "hit": false,
      "t": 47665.76100000006,
      "d": 114.5811562500021,
      "v": 74
    },
    {
      "midi": 71,
      "hit": false,
      "t": 47721.315500000055,
      "d": 114.5811562500021,
      "v": 74
    },
    {
      "midi": 67,
      "hit": false,
      "t": 47999.087999999996,
      "d": 687.4869375000053,
      "v": 70
    },
    {
      "midi": 69,
      "hit": false,
      "t": 47999.087999999996,
      "d": 1947.8796562500065,
      "v": 77
    },
    {
      "midi": 60,
      "hit": false,
      "t": 47999.087999999996,
      "d": 3897.4953906250084,
      "v": 74
    },
    {
      "midi": 69,
      "hit": false,
      "t": 47999.087999999996,
      "d": 1241.2958593750009,
      "v": 95
    },
    {
      "midi": 29,
      "hit": false,
      "t": 47999.088,
      "d": 1279.4895781250016,
      "v": 101
    },
    {
      "midi": 67,
      "hit": false,
      "t": 47999.08800000004,
      "d": 687.4869375000053,
      "v": 101
    },
    {
      "midi": 69,
      "hit": false,
      "t": 47999.08800000004,
      "d": 1013.8696250000066,
      "v": 94
    },
    {
      "midi": 60,
      "hit": false,
      "t": 47999.08800000004,
      "d": 1451.361312500012,
      "v": 83
    },
    {
      "midi": 53,
      "hit": false,
      "t": 47999.08800000004,
      "d": 1470.4581718750123,
      "v": 83
    },
    {
      "midi": 89,
      "hit": false,
      "t": 47999.08800000006,
      "d": 190.9685937500035,
      "v": 66
    },
    {
      "midi": 77,
      "hit": false,
      "t": 48054.64250000006,
      "d": 190.9685937500035,
      "v": 66
    },
    {
      "midi": 81,
      "hit": false,
      "t": 48332.415000000066,
      "d": 229.16231249999691,
      "v": 62
    },
    {
      "midi": 69,
      "hit": false,
      "t": 48387.969500000065,
      "d": 229.16231249999691,
      "v": 62
    },
    {
      "midi": 65,
      "hit": false,
      "t": 48665.742,
      "d": 2006.9063125000102,
      "v": 86
    },
    {
      "midi": 65,
      "hit": false,
      "t": 48665.74200000004,
      "d": 362.84032812500664,
      "v": 77
    },
    {
      "midi": 84,
      "hit": false,
      "t": 48665.742000000064,
      "d": 189.23251562500081,
      "v": 64
    },
    {
      "midi": 72,
      "hit": false,
      "t": 48721.29650000006,
      "d": 189.23251562500081,
      "v": 64
    },
    {
      "midi": 89,
      "hit": false,
      "t": 48999.06900000006,
      "d": 190.9685937500035,
      "v": 75
    },
    {
      "midi": 77,
      "hit": false,
      "t": 49054.62350000006,
      "d": 190.9685937500035,
      "v": 75
    },
    {
      "midi": 69,
      "hit": false,
      "t": 49332.39599999999,
      "d": 670.1261562500003,
      "v": 95
    },
    {
      "midi": 29,
      "hit": false,
      "t": 49332.39600000001,
      "d": 668.390078125005,
      "v": 99
    },
    {
      "midi": 69,
      "hit": false,
      "t": 49332.39600000005,
      "d": 95.48429687500175,
      "v": 94
    },
    {
      "midi": 65,
      "hit": false,
      "t": 49332.39600000005,
      "d": 131.94193749999977,
      "v": 85
    },
    {
      "midi": 81,
      "hit": false,
      "t": 49332.396000000066,
      "d": 229.16231249999691,
      "v": 71
    },
    {
      "midi": 69,
      "hit": false,
      "t": 49387.950500000064,
      "d": 229.16231249999691,
      "v": 71
    },
    {
      "midi": 84,
      "hit": false,
      "t": 49665.72300000006,
      "d": 157.98310937500355,
      "v": 58
    },
    {
      "midi": 72,
      "hit": false,
      "t": 49721.27750000006,
      "d": 157.98310937500355,
      "v": 58
    },
    {
      "midi": 67,
      "hit": false,
      "t": 49999.049999999996,
      "d": 1814.2016406249968,
      "v": 99
    },
    {
      "midi": 67,
      "hit": false,
      "t": 49999.05,
      "d": 1909.6859374999985,
      "v": 85
    },
    {
      "midi": 36,
      "hit": false,
      "t": 49999.05000000001,
      "d": 1338.5162343750053,
      "v": 107
    },
    {
      "midi": 65,
      "hit": false,
      "t": 49999.050000000054,
      "d": 706.5837968749984,
      "v": 92
    },
    {
      "midi": 48,
      "hit": false,
      "t": 49999.050000000054,
      "d": 1432.264453124997,
      "v": 80
    },
    {
      "midi": 60,
      "hit": false,
      "t": 49999.050000000054,
      "d": 1432.264453124997,
      "v": 83
    },
    {
      "midi": 67,
      "hit": false,
      "t": 49999.050000000054,
      "d": 1472.1942500000005,
      "v": 91
    },
    {
      "midi": 88,
      "hit": false,
      "t": 49999.05000000007,
      "d": 305.5497499999983,
      "v": 75
    },
    {
      "midi": 76,
      "hit": false,
      "t": 50054.60450000007,
      "d": 305.5497499999983,
      "v": 75
    },
    {
      "midi": 79,
      "hit": false,
      "t": 50332.377000000066,
      "d": 152.7748750000028,
      "v": 66
    },
    {
      "midi": 67,
      "hit": false,
      "t": 50387.931500000064,
      "d": 152.7748750000028,
      "v": 66
    },
    {
      "midi": 64,
      "hit": false,
      "t": 50665.704000000005,
      "d": 1222.1990000000005,
      "v": 92
    },
    {
      "midi": 64,
      "hit": false,
      "t": 50665.70400000005,
      "d": 496.5183437500018,
      "v": 86
    },
    {
      "midi": 84,
      "hit": false,
      "t": 50665.70400000007,
      "d": 131.94193749999977,
      "v": 65
    },
    {
      "midi": 72,
      "hit": false,
      "t": 50721.25850000007,
      "d": 131.94193749999977,
      "v": 65
    },
    {
      "midi": 86,
      "hit": false,
      "t": 50999.03100000007,
      "d": 229.16231249999691,
      "v": 58
    },
    {
      "midi": 74,
      "hit": false,
      "t": 51054.58550000007,
      "d": 229.16231249999691,
      "v": 58
    },
    {
      "midi": 35,
      "hit": false,
      "t": 51332.358000000015,
      "d": 687.4869375000053,
      "v": 103
    },
    {
      "midi": 62,
      "hit": false,
      "t": 51332.35800000005,
      "d": 114.5811562500021,
      "v": 74
    },
    {
      "midi": 88,
      "hit": false,
      "t": 51332.358000000066,
      "d": 265.6199531250022,
      "v": 67
    },
    {
      "midi": 76,
      "hit": false,
      "t": 51387.912500000064,
      "d": 265.6199531250022,
      "v": 67
    },
    {
      "midi": 84,
      "hit": false,
      "t": 51665.68500000007,
      "d": 76.3874375000014,
      "v": 54
    },
    {
      "midi": 72,
      "hit": false,
      "t": 51721.23950000007,
      "d": 76.3874375000014,
      "v": 54
    },
    {
      "midi": 72,
      "hit": false,
      "t": 51999.011999999995,
      "d": 666.6540000000023,
      "v": 99
    },
    {
      "midi": 60,
      "hit": false,
      "t": 51999.012,
      "d": 572.9057812500032,
      "v": 79
    },
    {
      "midi": 57,
      "hit": false,
      "t": 51999.012,
      "d": 590.2665625000009,
      "v": 80
    },
    {
      "midi": 64,
      "hit": false,
      "t": 51999.012,
      "d": 708.319875000001,
      "v": 91
    },
    {
      "midi": 33,
      "hit": false,
      "t": 51999.01200000002,
      "d": 668.390078125005,
      "v": 97
    },
    {
      "midi": 72,
      "hit": false,
      "t": 51999.01200000005,
      "d": 229.16231249999691,
      "v": 103
    },
    {
      "midi": 64,
      "hit": false,
      "t": 51999.01200000005,
      "d": 286.45289062499796,
      "v": 103
    },
    {
      "midi": 69,
      "hit": false,
      "t": 51999.01200000005,
      "d": 286.45289062499796,
      "v": 95
    },
    {
      "midi": 57,
      "hit": false,
      "t": 51999.01200000005,
      "d": 420.1309062500004,
      "v": 97
    },
    {
      "midi": 88,
      "hit": false,
      "t": 51999.012000000075,
      "d": 267.3560312499976,
      "v": 67
    },
    {
      "midi": 76,
      "hit": false,
      "t": 52054.56650000007,
      "d": 267.3560312499976,
      "v": 67
    },
    {
      "midi": 81,
      "hit": false,
      "t": 52332.33900000007,
      "d": 190.9685937500035,
      "v": 70
    },
    {
      "midi": 69,
      "hit": false,
      "t": 52387.89350000007,
      "d": 190.9685937500035,
      "v": 70
    },
    {
      "midi": 71,
      "hit": false,
      "t": 52665.666,
      "d": 725.6806562499987,
      "v": 97
    },
    {
      "midi": 59,
      "hit": false,
      "t": 52665.666000000005,
      "d": 439.22776562500076,
      "v": 86
    },
    {
      "midi": 55,
      "hit": false,
      "t": 52665.666000000005,
      "d": 572.9057812500032,
      "v": 68
    },
    {
      "midi": 62,
      "hit": false,
      "t": 52665.666000000005,
      "d": 687.4869375000053,
      "v": 80
    },
    {
      "midi": 31,
      "hit": false,
      "t": 52665.66600000002,
      "d": 687.4869375000053,
      "v": 88
    },
    {
      "midi": 67,
      "hit": false,
      "t": 52665.666000000056,
      "d": 229.16231249999691,
      "v": 95
    },
    {
      "midi": 55,
      "hit": false,
      "t": 52665.666000000056,
      "d": 248.25917187499726,
      "v": 77
    },
    {
      "midi": 71,
      "hit": false,
      "t": 52665.666000000056,
      "d": 248.25917187499726,
      "v": 92
    },
    {
      "midi": 62,
      "hit": false,
      "t": 52665.666000000056,
      "d": 324.64660937499866,
      "v": 72
    },
    {
      "midi": 86,
      "hit": false,
      "t": 52665.66600000008,
      "d": 324.64660937499866,
      "v": 60
    },
    {
      "midi": 74,
      "hit": false,
      "t": 52721.220500000076,
      "d": 324.64660937499866,
      "v": 60
    },
    {
      "midi": 83,
      "hit": false,
      "t": 52998.993000000075,
      "d": 152.7748750000028,
      "v": 74
    },
    {
      "midi": 71,
      "hit": false,
      "t": 53054.54750000007,
      "d": 152.7748750000028,
      "v": 74
    },
    {
      "midi": 69,
      "hit": false,
      "t": 53332.32,
      "d": 649.2932187499973,
      "v": 97
    },
    {
      "midi": 57,
      "hit": false,
      "t": 53332.32000000001,
      "d": 513.8791249999995,
      "v": 77
    },
    {
      "midi": 65,
      "hit": false,
      "t": 53332.32000000001,
      "d": 666.6540000000023,
      "v": 79
    },
    {
      "midi": 60,
      "hit": false,
      "t": 53332.32000000001,
      "d": 1833.2985000000044,
      "v": 83
    },
    {
      "midi": 29,
      "hit": false,
      "t": 53332.32000000002,
      "d": 687.4869375000053,
      "v": 91
    },
    {
      "midi": 65,
      "hit": false,
      "t": 53332.32000000005,
      "d": 265.6199531250022,
      "v": 92
    },
    {
      "midi": 53,
      "hit": false,
      "t": 53332.32000000005,
      "d": 286.45289062500524,
      "v": 89
    },
    {
      "midi": 69,
      "hit": false,
      "t": 53332.32000000005,
      "d": 305.5497500000056,
      "v": 91
    },
    {
      "midi": 60,
      "hit": false,
      "t": 53332.32000000005,
      "d": 342.0073906250036,
      "v": 85
    },
    {
      "midi": 89,
      "hit": false,
      "t": 53332.32000000008,
      "d": 305.5497499999983,
      "v": 56
    },
    {
      "midi": 77,
      "hit": false,
      "t": 53387.87450000008,
      "d": 305.5497499999983,
      "v": 56
    },
    {
      "midi": 84,
      "hit": false,
      "t": 53665.64700000008,
      "d": 171.87173437500314,
      "v": 67
    },
    {
      "midi": 72,
      "hit": false,
      "t": 53721.201500000076,
      "d": 171.87173437500314,
      "v": 67
    },
    {
      "midi": 67,
      "hit": false,
      "t": 53998.973999999995,
      "d": 706.5837968750056,
      "v": 103
    },
    {
      "midi": 64,
      "hit": false,
      "t": 53998.97400000001,
      "d": 631.9324374999997,
      "v": 105
    },
    {
      "midi": 67,
      "hit": false,
      "t": 53998.97400000001,
      "d": 725.6806562499987,
      "v": 71
    },
    {
      "midi": 36,
      "hit": false,
      "t": 53998.974000000024,
      "d": 631.9324374999997,
      "v": 97
    },
    {
      "midi": 48,
      "hit": false,
      "t": 53998.97400000005,
      "d": 248.25917187499726,
      "v": 88
    },
    {
      "midi": 60,
      "hit": false,
      "t": 53998.97400000005,
      "d": 248.25917187499726,
      "v": 77
    },
    {
      "midi": 64,
      "hit": false,
      "t": 53998.97400000005,
      "d": 267.3560312499976,
      "v": 95
    },
    {
      "midi": 67,
      "hit": false,
      "t": 53998.97400000005,
      "d": 267.3560312499976,
      "v": 86
    },
    {
      "midi": 88,
      "hit": false,
      "t": 53998.97400000008,
      "d": 152.7748750000028,
      "v": 56
    },
    {
      "midi": 76,
      "hit": false,
      "t": 54054.52850000008,
      "d": 152.7748750000028,
      "v": 56
    },
    {
      "midi": 84,
      "hit": false,
      "t": 54332.30100000009,
      "d": 93.74821874999907,
      "v": 77
    },
    {
      "midi": 72,
      "hit": false,
      "t": 54387.855500000085,
      "d": 93.74821874999907,
      "v": 77
    },
    {
      "midi": 69,
      "hit": false,
      "t": 54665.628,
      "d": 687.4869375000053,
      "v": 97
    },
    {
      "midi": 69,
      "hit": false,
      "t": 54665.62800000001,
      "d": 706.5837968750056,
      "v": 82
    },
    {
      "midi": 65,
      "hit": false,
      "t": 54665.62800000001,
      "d": 1241.2958593750081,
      "v": 70
    },
    {
      "midi": 29,
      "hit": false,
      "t": 54665.628000000026,
      "d": 690.9590937500034,
      "v": 89
    },
    {
      "midi": 60,
      "hit": false,
      "t": 54665.62800000005,
      "d": 286.45289062499796,
      "v": 85
    },
    {
      "midi": 69,
      "hit": false,
      "t": 54665.62800000005,
      "d": 286.45289062499796,
      "v": 83
    },
    {
      "midi": 65,
      "hit": false,
      "t": 54665.62800000005,
      "d": 324.64660937499866,
      "v": 83
    },
    {
      "midi": 53,
      "hit": false,
      "t": 54665.62800000005,
      "d": 343.743468749999,
      "v": 95
    },
    {
      "midi": 89,
      "hit": false,
      "t": 54665.628000000084,
      "d": 190.9685937500035,
      "v": 80
    },
    {
      "midi": 77,
      "hit": false,
      "t": 54721.18250000008,
      "d": 190.9685937500035,
      "v": 80
    },
    {
      "midi": 84,
      "hit": false,
      "t": 54998.95500000009,
      "d": 152.7748750000028,
      "v": 58
    },
    {
      "midi": 72,
      "hit": false,
      "t": 55054.50950000009,
      "d": 152.7748750000028,
      "v": 58
    },
    {
      "midi": 71,
      "hit": false,
      "t": 55332.282,
      "d": 666.6540000000023,
      "v": 94
    },
    {
      "midi": 62,
      "hit": false,
      "t": 55332.282000000014,
      "d": 553.8089218750029,
      "v": 66
    },
    {
      "midi": 71,
      "hit": false,
      "t": 55332.282000000014,
      "d": 744.7775156249991,
      "v": 75
    },
    {
      "midi": 31,
      "hit": false,
      "t": 55332.28200000003,
      "d": 687.4869375000053,
      "v": 94
    },
    {
      "midi": 55,
      "hit": false,
      "t": 55332.28200000005,
      "d": 229.16231249999691,
      "v": 85
    },
    {
      "midi": 65,
      "hit": false,
      "t": 55332.28200000005,
      "d": 248.25917187499726,
      "v": 89
    },
    {
      "midi": 62,
      "hit": false,
      "t": 55332.28200000005,
      "d": 265.61995312499494,
      "v": 71
    },
    {
      "midi": 71,
      "hit": false,
      "t": 55332.28200000005,
      "d": 265.61995312499494,
      "v": 86
    },
    {
      "midi": 86,
      "hit": false,
      "t": 55332.282000000094,
      "d": 131.94193749999977,
      "v": 57
    },
    {
      "midi": 74,
      "hit": false,
      "t": 55387.83650000009,
      "d": 131.94193749999977,
      "v": 57
    },
    {
      "midi": 83,
      "hit": false,
      "t": 55665.60900000009,
      "d": 171.87173437500314,
      "v": 49
    },
    {
      "midi": 71,
      "hit": false,
      "t": 55721.16350000009,
      "d": 171.87173437500314,
      "v": 49
    },
    {
      "midi": 72,
      "hit": false,
      "t": 55998.936,
      "d": 687.4869375000053,
      "v": 97
    },
    {
      "midi": 67,
      "hit": false,
      "t": 55998.936000000016,
      "d": 343.743468749999,
      "v": 57
    },
    {
      "midi": 72,
      "hit": false,
      "t": 55998.936000000016,
      "d": 687.4869375000053,
      "v": 80
    },
    {
      "midi": 64,
      "hit": false,
      "t": 55998.936000000016,
      "d": 1048.591187500002,
      "v": 79
    },
    {
      "midi": 36,
      "hit": false,
      "t": 55998.93600000003,
      "d": 1338.5162343750053,
      "v": 97
    },
    {
      "midi": 67,
      "hit": false,
      "t": 55998.936000000045,
      "d": 229.16231249999691,
      "v": 86
    },
    {
      "midi": 72,
      "hit": false,
      "t": 55998.936000000045,
      "d": 229.16231249999691,
      "v": 99
    },
    {
      "midi": 48,
      "hit": false,
      "t": 55998.936000000045,
      "d": 729.1528124999968,
      "v": 89
    },
    {
      "midi": 64,
      "hit": false,
      "t": 55998.936000000045,
      "d": 749.9857499999998,
      "v": 94
    },
    {
      "midi": 88,
      "hit": false,
      "t": 55998.936000000096,
      "d": 248.25917187499726,
      "v": 66
    },
    {
      "midi": 76,
      "hit": false,
      "t": 56054.490500000094,
      "d": 248.25917187499726,
      "v": 66
    },
    {
      "midi": 79,
      "hit": false,
      "t": 56332.26300000009,
      "d": 171.87173437500314,
      "v": 59
    },
    {
      "midi": 67,
      "hit": false,
      "t": 56387.81750000009,
      "d": 171.87173437500314,
      "v": 59
    },
    {
      "midi": 67,
      "hit": false,
      "t": 56665.590000000004,
      "d": 706.5837968750056,
      "v": 92
    },
    {
      "midi": 67,
      "hit": false,
      "t": 56665.59000000002,
      "d": 649.2932187499973,
      "v": 91
    },
    {
      "midi": 67,
      "hit": false,
      "t": 56665.59000000004,
      "d": 131.94193750000704,
      "v": 85
    },
    {
      "midi": 84,
      "hit": false,
      "t": 56665.5900000001,
      "d": 152.7748750000028,
      "v": 59
    },
    {
      "midi": 72,
      "hit": false,
      "t": 56721.1445000001,
      "d": 152.7748750000028,
      "v": 59
    },
    {
      "midi": 88,
      "hit": false,
      "t": 56998.9170000001,
      "d": 133.67801562500244,
      "v": 72
    },
    {
      "midi": 76,
      "hit": false,
      "t": 57054.4715000001,
      "d": 133.67801562500244,
      "v": 72
    },
    {
      "midi": 65,
      "hit": false,
      "t": 57332.244000000006,
      "d": 630.1963593750042,
      "v": 82
    },
    {
      "midi": 57,
      "hit": false,
      "t": 57332.24400000001,
      "d": 553.8089218750029,
      "v": 85
    },
    {
      "midi": 65,
      "hit": false,
      "t": 57332.24400000001,
      "d": 670.1261562500003,
      "v": 82
    },
    {
      "midi": 60,
      "hit": false,
      "t": 57332.24400000001,
      "d": 2520.7854375000024,
      "v": 65
    },
    {
      "midi": 31,
      "hit": false,
      "t": 57332.244000000035,
      "d": 687.4869375000053,
      "v": 91
    },
    {
      "midi": 53,
      "hit": false,
      "t": 57332.24400000005,
      "d": 208.32937500000116,
      "v": 79
    },
    {
      "midi": 65,
      "hit": false,
      "t": 57332.24400000005,
      "d": 248.25917187500454,
      "v": 92
    },
    {
      "midi": 57,
      "hit": false,
      "t": 57332.24400000005,
      "d": 284.71681250000256,
      "v": 83
    },
    {
      "midi": 60,
      "hit": false,
      "t": 57332.24400000005,
      "d": 305.5497500000056,
      "v": 99
    },
    {
      "midi": 89,
      "hit": false,
      "t": 57332.24400000011,
      "d": 284.71681250000256,
      "v": 62
    },
    {
      "midi": 77,
      "hit": false,
      "t": 57387.798500000106,
      "d": 284.71681250000256,
      "v": 62
    },
    {
      "midi": 81,
      "hit": false,
      "t": 57665.57100000011,
      "d": 112.84507812499942,
      "v": 60
    },
    {
      "midi": 69,
      "hit": false,
      "t": 57721.12550000011,
      "d": 112.84507812499942,
      "v": 60
    },
    {
      "midi": 64,
      "hit": false,
      "t": 57998.89800000001,
      "d": 1413.1675937499967,
      "v": 97
    },
    {
      "midi": 55,
      "hit": false,
      "t": 57998.898000000016,
      "d": 1852.3953593749975,
      "v": 57
    },
    {
      "midi": 64,
      "hit": false,
      "t": 57998.898000000016,
      "d": 1852.3953593749975,
      "v": 99
    },
    {
      "midi": 36,
      "hit": false,
      "t": 57998.89800000004,
      "d": 1814.201640625004,
      "v": 99
    },
    {
      "midi": 64,
      "hit": false,
      "t": 57998.89800000005,
      "d": 1720.4534218749977,
      "v": 103
    },
    {
      "midi": 60,
      "hit": false,
      "t": 57998.89800000005,
      "d": 1737.8142031249954,
      "v": 97
    },
    {
      "midi": 55,
      "hit": false,
      "t": 57998.89800000005,
      "d": 1756.9110624999958,
      "v": 79
    },
    {
      "midi": 48,
      "hit": false,
      "t": 57998.89800000005,
      "d": 1796.8408593749991,
      "v": 82
    },
    {
      "midi": 88,
      "hit": false,
      "t": 57998.89800000011,
      "d": 170.13565625000047,
      "v": 75
    },
    {
      "midi": 76,
      "hit": false,
      "t": 58054.45250000011,
      "d": 170.13565625000047,
      "v": 75
    },
    {
      "midi": 79,
      "hit": false,
      "t": 58332.22500000011,
      "d": 267.3560312499976,
      "v": 65
    },
    {
      "midi": 67,
      "hit": false,
      "t": 58387.779500000106,
      "d": 267.3560312499976,
      "v": 65
    },
    {
      "midi": 84,
      "hit": false,
      "t": 58665.552000000105,
      "d": 114.5811562500021,
      "v": 60
    },
    {
      "midi": 72,
      "hit": false,
      "t": 58721.1065000001,
      "d": 114.5811562500021,
      "v": 60
    },
    {
      "midi": 88,
      "hit": false,
      "t": 58998.87900000011,
      "d": 171.87173437500314,
      "v": 66
    },
    {
      "midi": 76,
      "hit": false,
      "t": 59054.43350000011,
      "d": 171.87173437500314,
      "v": 66
    },
    {
      "midi": 91,
      "hit": false,
      "t": 59332.206000000115,
      "d": 133.67801562500244,
      "v": 60
    },
    {
      "midi": 79,
      "hit": false,
      "t": 59387.76050000011,
      "d": 133.67801562500244,
      "v": 60
    },
    {
      "midi": 84,
      "hit": false,
      "t": 59665.53300000012,
      "d": 95.48429687500175,
      "v": 82
    },
    {
      "midi": 72,
      "hit": false,
      "t": 59721.08750000012,
      "d": 95.48429687500175,
      "v": 82
    },
    {
      "midi": 84,
      "hit": false,
      "t": 59964.13843750001,
      "d": 708.319875000001,
      "v": 109
    },
    {
      "midi": 60,
      "hit": false,
      "t": 59998.860000000015,
      "d": 572.9057812500032,
      "v": 79
    },
    {
      "midi": 57,
      "hit": false,
      "t": 59998.860000000015,
      "d": 590.2665625000009,
      "v": 80
    },
    {
      "midi": 64,
      "hit": false,
      "t": 59998.860000000015,
      "d": 708.319875000001,
      "v": 91
    },
    {
      "midi": 33,
      "hit": false,
      "t": 59998.860000000044,
      "d": 668.390078125005,
      "v": 97
    },
    {
      "midi": 72,
      "hit": false,
      "t": 59998.86000000005,
      "d": 229.16231249999691,
      "v": 103
    },
    {
      "midi": 64,
      "hit": false,
      "t": 59998.86000000005,
      "d": 286.45289062499796,
      "v": 103
    },
    {
      "midi": 69,
      "hit": false,
      "t": 59998.86000000005,
      "d": 286.45289062499796,
      "v": 95
    },
    {
      "midi": 57,
      "hit": false,
      "t": 59998.86000000005,
      "d": 420.1309062500004,
      "v": 97
    },
    {
      "midi": 88,
      "hit": false,
      "t": 59998.860000000124,
      "d": 267.3560312499976,
      "v": 67
    },
    {
      "midi": 76,
      "hit": false,
      "t": 60054.41450000012,
      "d": 267.3560312499976,
      "v": 67
    },
    {
      "midi": 81,
      "hit": false,
      "t": 60332.18700000012,
      "d": 190.9685937500035,
      "v": 70
    },
    {
      "midi": 69,
      "hit": false,
      "t": 60387.74150000012,
      "d": 190.9685937500035,
      "v": 70
    },
    {
      "midi": 83,
      "hit": false,
      "t": 60634.26459375001,
      "d": 725.6806562500133,
      "v": 105
    },
    {
      "midi": 59,
      "hit": false,
      "t": 60665.51400000001,
      "d": 439.22776562500803,
      "v": 86
    },
    {
      "midi": 55,
      "hit": false,
      "t": 60665.51400000001,
      "d": 572.9057812500105,
      "v": 68
    },
    {
      "midi": 62,
      "hit": false,
      "t": 60665.51400000001,
      "d": 687.4869375000126,
      "v": 80
    },
    {
      "midi": 31,
      "hit": false,
      "t": 60665.51400000005,
      "d": 687.4869375000053,
      "v": 88
    },
    {
      "midi": 67,
      "hit": false,
      "t": 60665.514000000054,
      "d": 229.16231249999691,
      "v": 95
    },
    {
      "midi": 55,
      "hit": false,
      "t": 60665.514000000054,
      "d": 248.25917187499726,
      "v": 77
    },
    {
      "midi": 71,
      "hit": false,
      "t": 60665.514000000054,
      "d": 248.25917187499726,
      "v": 92
    },
    {
      "midi": 62,
      "hit": false,
      "t": 60665.514000000054,
      "d": 324.64660937499866,
      "v": 72
    },
    {
      "midi": 86,
      "hit": false,
      "t": 60665.51400000013,
      "d": 324.64660937499866,
      "v": 60
    },
    {
      "midi": 74,
      "hit": false,
      "t": 60721.068500000125,
      "d": 324.64660937499866,
      "v": 60
    },
    {
      "midi": 83,
      "hit": false,
      "t": 60998.841000000124,
      "d": 152.7748750000028,
      "v": 74
    },
    {
      "midi": 71,
      "hit": false,
      "t": 61054.39550000012,
      "d": 152.7748750000028,
      "v": 74
    },
    {
      "midi": 81,
      "hit": false,
      "t": 61321.75153125002,
      "d": 670.1261562500149,
      "v": 107
    },
    {
      "midi": 57,
      "hit": false,
      "t": 61332.16800000002,
      "d": 513.8791250000068,
      "v": 77
    },
    {
      "midi": 65,
      "hit": false,
      "t": 61332.16800000002,
      "d": 666.6540000000168,
      "v": 79
    },
    {
      "midi": 60,
      "hit": false,
      "t": 61332.16800000002,
      "d": 1833.298500000019,
      "v": 83
    },
    {
      "midi": 65,
      "hit": false,
      "t": 61332.16800000005,
      "d": 265.6199531250022,
      "v": 92
    },
    {
      "midi": 53,
      "hit": false,
      "t": 61332.16800000005,
      "d": 286.45289062500524,
      "v": 89
    },
    {
      "midi": 69,
      "hit": false,
      "t": 61332.16800000005,
      "d": 305.5497500000056,
      "v": 91
    },
    {
      "midi": 60,
      "hit": false,
      "t": 61332.16800000005,
      "d": 342.0073906250036,
      "v": 85
    },
    {
      "midi": 29,
      "hit": false,
      "t": 61332.16800000005,
      "d": 687.4869375000053,
      "v": 91
    },
    {
      "midi": 89,
      "hit": false,
      "t": 61332.16800000013,
      "d": 305.5497499999983,
      "v": 56
    },
    {
      "midi": 77,
      "hit": false,
      "t": 61387.72250000013,
      "d": 305.5497499999983,
      "v": 56
    },
    {
      "midi": 84,
      "hit": false,
      "t": 61665.495000000126,
      "d": 171.87173437500314,
      "v": 67
    },
    {
      "midi": 72,
      "hit": false,
      "t": 61721.049500000125,
      "d": 171.87173437500314,
      "v": 67
    },
    {
      "midi": 79,
      "hit": false,
      "t": 61971.04475000003,
      "d": 727.4167343750087,
      "v": 101
    },
    {
      "midi": 64,
      "hit": false,
      "t": 61998.82200000004,
      "d": 631.9324374999997,
      "v": 105
    },
    {
      "midi": 67,
      "hit": false,
      "t": 61998.82200000004,
      "d": 725.6806562499987,
      "v": 71
    },
    {
      "midi": 48,
      "hit": false,
      "t": 61998.82200000005,
      "d": 248.25917187499726,
      "v": 88
    },
    {
      "midi": 60,
      "hit": false,
      "t": 61998.82200000005,
      "d": 248.25917187499726,
      "v": 77
    },
    {
      "midi": 64,
      "hit": false,
      "t": 61998.82200000005,
      "d": 267.3560312499976,
      "v": 95
    },
    {
      "midi": 67,
      "hit": false,
      "t": 61998.82200000005,
      "d": 267.3560312499976,
      "v": 86
    },
    {
      "midi": 36,
      "hit": false,
      "t": 61998.82200000005,
      "d": 631.9324374999997,
      "v": 97
    },
    {
      "midi": 88,
      "hit": false,
      "t": 61998.82200000013,
      "d": 152.7748750000028,
      "v": 56
    },
    {
      "midi": 76,
      "hit": false,
      "t": 62054.37650000013,
      "d": 152.7748750000028,
      "v": 56
    },
    {
      "midi": 84,
      "hit": false,
      "t": 62332.149000000136,
      "d": 93.74821874999907,
      "v": 77
    },
    {
      "midi": 72,
      "hit": false,
      "t": 62387.703500000134,
      "d": 93.74821874999907,
      "v": 77
    },
    {
      "midi": 81,
      "hit": false,
      "t": 62658.531687500035,
      "d": 689.2230156250007,
      "v": 109
    },
    {
      "midi": 69,
      "hit": false,
      "t": 62665.47600000004,
      "d": 706.5837968749984,
      "v": 82
    },
    {
      "midi": 65,
      "hit": false,
      "t": 62665.47600000004,
      "d": 1241.2958593750009,
      "v": 70
    },
    {
      "midi": 60,
      "hit": false,
      "t": 62665.476000000046,
      "d": 286.45289062499796,
      "v": 85
    },
    {
      "midi": 69,
      "hit": false,
      "t": 62665.476000000046,
      "d": 286.45289062499796,
      "v": 83
    },
    {
      "midi": 65,
      "hit": false,
      "t": 62665.476000000046,
      "d": 324.64660937499866,
      "v": 83
    },
    {
      "midi": 53,
      "hit": false,
      "t": 62665.476000000046,
      "d": 343.743468749999,
      "v": 95
    },
    {
      "midi": 29,
      "hit": false,
      "t": 62665.47600000005,
      "d": 690.9590937500034,
      "v": 89
    },
    {
      "midi": 89,
      "hit": false,
      "t": 62665.47600000013,
      "d": 190.9685937500035,
      "v": 80
    },
    {
      "midi": 77,
      "hit": false,
      "t": 62721.03050000013,
      "d": 190.9685937500035,
      "v": 80
    },
    {
      "midi": 84,
      "hit": false,
      "t": 62998.80300000014,
      "d": 152.7748750000028,
      "v": 58
    },
    {
      "midi": 72,
      "hit": false,
      "t": 63054.35750000014,
      "d": 152.7748750000028,
      "v": 58
    },
    {
      "midi": 83,
      "hit": false,
      "t": 63328.657843750036,
      "d": 670.1261562500003,
      "v": 103
    },
    {
      "midi": 62,
      "hit": false,
      "t": 63332.130000000034,
      "d": 553.8089218750029,
      "v": 66
    },
    {
      "midi": 71,
      "hit": false,
      "t": 63332.130000000034,
      "d": 744.7775156249991,
      "v": 75
    },
    {
      "midi": 55,
      "hit": false,
      "t": 63332.13000000005,
      "d": 229.16231249999691,
      "v": 85
    },
    {
      "midi": 65,
      "hit": false,
      "t": 63332.13000000005,
      "d": 248.25917187499726,
      "v": 89
    },
    {
      "midi": 62,
      "hit": false,
      "t": 63332.13000000005,
      "d": 265.61995312499494,
      "v": 71
    },
    {
      "midi": 71,
      "hit": false,
      "t": 63332.13000000005,
      "d": 265.61995312499494,
      "v": 86
    },
    {
      "midi": 31,
      "hit": false,
      "t": 63332.130000000056,
      "d": 687.4869375000053,
      "v": 94
    },
    {
      "midi": 86,
      "hit": false,
      "t": 63332.13000000014,
      "d": 131.94193749999977,
      "v": 57
    },
    {
      "midi": 74,
      "hit": false,
      "t": 63387.68450000014,
      "d": 131.94193749999977,
      "v": 57
    },
    {
      "midi": 83,
      "hit": false,
      "t": 63665.45700000014,
      "d": 171.87173437500314,
      "v": 49
    },
    {
      "midi": 71,
      "hit": false,
      "t": 63721.01150000014,
      "d": 171.87173437500314,
      "v": 49
    },
    {
      "midi": 67,
      "hit": false,
      "t": 63998.784000000036,
      "d": 343.743468749999,
      "v": 57
    },
    {
      "midi": 72,
      "hit": false,
      "t": 63998.784000000036,
      "d": 687.486937499998,
      "v": 80
    },
    {
      "midi": 84,
      "hit": false,
      "t": 63998.784000000036,
      "d": 687.486937499998,
      "v": 99
    },
    {
      "midi": 64,
      "hit": false,
      "t": 63998.784000000036,
      "d": 1048.5911874999947,
      "v": 79
    },
    {
      "midi": 67,
      "hit": false,
      "t": 63998.78400000004,
      "d": 229.16231249999691,
      "v": 86
    },
    {
      "midi": 72,
      "hit": false,
      "t": 63998.78400000004,
      "d": 229.16231249999691,
      "v": 99
    },
    {
      "midi": 48,
      "hit": false,
      "t": 63998.78400000004,
      "d": 729.1528124999968,
      "v": 89
    },
    {
      "midi": 64,
      "hit": false,
      "t": 63998.78400000004,
      "d": 749.9857499999998,
      "v": 94
    },
    {
      "midi": 36,
      "hit": false,
      "t": 63998.78400000006,
      "d": 1338.5162343750053,
      "v": 97
    },
    {
      "midi": 88,
      "hit": false,
      "t": 63998.784000000145,
      "d": 248.25917187499726,
      "v": 66
    },
    {
      "midi": 76,
      "hit": false,
      "t": 64054.33850000014,
      "d": 248.25917187499726,
      "v": 66
    },
    {
      "midi": 79,
      "hit": false,
      "t": 64332.11100000014,
      "d": 171.87173437500314,
      "v": 59
    },
    {
      "midi": 67,
      "hit": false,
      "t": 64387.66550000014,
      "d": 171.87173437500314,
      "v": 59
    },
    {
      "midi": 88,
      "hit": false,
      "t": 64648.07721875003,
      "d": 687.486937499998,
      "v": 103
    },
    {
      "midi": 67,
      "hit": false,
      "t": 64665.43800000003,
      "d": 649.2932187499973,
      "v": 91
    },
    {
      "midi": 67,
      "hit": false,
      "t": 64665.43800000004,
      "d": 131.94193750000704,
      "v": 85
    },
    {
      "midi": 84,
      "hit": false,
      "t": 64665.43800000015,
      "d": 152.7748750000028,
      "v": 59
    },
    {
      "midi": 72,
      "hit": false,
      "t": 64720.992500000146,
      "d": 152.7748750000028,
      "v": 59
    },
    {
      "midi": 88,
      "hit": false,
      "t": 64998.76500000015,
      "d": 133.67801562500244,
      "v": 72
    },
    {
      "midi": 76,
      "hit": false,
      "t": 65054.31950000015,
      "d": 133.67801562500244,
      "v": 72
    },
    {
      "midi": 89,
      "hit": false,
      "t": 65316.46729687503,
      "d": 668.390078125005,
      "v": 92
    },
    {
      "midi": 57,
      "hit": false,
      "t": 65332.09200000003,
      "d": 553.8089218749956,
      "v": 85
    },
    {
      "midi": 65,
      "hit": false,
      "t": 65332.09200000003,
      "d": 670.1261562500149,
      "v": 82
    },
    {
      "midi": 60,
      "hit": false,
      "t": 65332.09200000003,
      "d": 2520.785437500017,
      "v": 65
    },
    {
      "midi": 53,
      "hit": false,
      "t": 65332.09200000005,
      "d": 208.32937500000116,
      "v": 79
    },
    {
      "midi": 65,
      "hit": false,
      "t": 65332.09200000005,
      "d": 248.25917187500454,
      "v": 92
    },
    {
      "midi": 57,
      "hit": false,
      "t": 65332.09200000005,
      "d": 284.71681250000256,
      "v": 83
    },
    {
      "midi": 60,
      "hit": false,
      "t": 65332.09200000005,
      "d": 305.5497500000056,
      "v": 99
    },
    {
      "midi": 31,
      "hit": false,
      "t": 65332.09200000006,
      "d": 687.486937499998,
      "v": 91
    },
    {
      "midi": 89,
      "hit": false,
      "t": 65332.09200000016,
      "d": 284.7168124999953,
      "v": 62
    },
    {
      "midi": 77,
      "hit": false,
      "t": 65387.646500000155,
      "d": 284.7168124999953,
      "v": 62
    },
    {
      "midi": 81,
      "hit": false,
      "t": 65665.41900000015,
      "d": 112.84507812499942,
      "v": 60
    },
    {
      "midi": 69,
      "hit": false,
      "t": 65720.97350000015,
      "d": 112.84507812499942,
      "v": 60
    },
    {
      "midi": 91,
      "hit": false,
      "t": 65965.76051562504,
      "d": 1968.7125937500095,
      "v": 91
    },
    {
      "midi": 55,
      "hit": false,
      "t": 65998.74600000004,
      "d": 1852.3953593750048,
      "v": 57
    },
    {
      "midi": 64,
      "hit": false,
      "t": 65998.74600000004,
      "d": 1852.3953593750048,
      "v": 99
    },
    {
      "midi": 64,
      "hit": false,
      "t": 65998.74600000006,
      "d": 1720.453421875005,
      "v": 103
    },
    {
      "midi": 60,
      "hit": false,
      "t": 65998.74600000006,
      "d": 1737.8142031250027,
      "v": 97
    },
    {
      "midi": 55,
      "hit": false,
      "t": 65998.74600000006,
      "d": 1756.911062500003,
      "v": 79
    },
    {
      "midi": 48,
      "hit": false,
      "t": 65998.74600000006,
      "d": 1796.8408593750064,
      "v": 82
    },
    {
      "midi": 36,
      "hit": false,
      "t": 65998.74600000006,
      "d": 1814.201640625004,
      "v": 99
    },
    {
      "midi": 88,
      "hit": false,
      "t": 65998.74600000016,
      "d": 170.13565625000047,
      "v": 75
    },
    {
      "midi": 76,
      "hit": false,
      "t": 66054.30050000016,
      "d": 170.13565625000047,
      "v": 75
    },
    {
      "midi": 79,
      "hit": false,
      "t": 66332.07300000016,
      "d": 267.3560312500049,
      "v": 65
    },
    {
      "midi": 67,
      "hit": false,
      "t": 66387.62750000016,
      "d": 267.3560312500049,
      "v": 65
    },
    {
      "midi": 84,
      "hit": false,
      "t": 66665.40000000017,
      "d": 114.5811562500021,
      "v": 60
    },
    {
      "midi": 72,
      "hit": false,
      "t": 66720.95450000017,
      "d": 114.5811562500021,
      "v": 60
    },
    {
      "midi": 88,
      "hit": false,
      "t": 66998.72700000017,
      "d": 171.87173437500314,
      "v": 66
    },
    {
      "midi": 76,
      "hit": false,
      "t": 67054.28150000017,
      "d": 171.87173437500314,
      "v": 66
    },
    {
      "midi": 64,
      "hit": false,
      "t": 67332.054,
      "d": 326.38268749999406,
      "v": 103
    },
    {
      "midi": 91,
      "hit": false,
      "t": 67332.05400000018,
      "d": 133.67801562500244,
      "v": 60
    },
    {
      "midi": 79,
      "hit": false,
      "t": 67387.60850000018,
      "d": 133.67801562500244,
      "v": 60
    },
    {
      "midi": 62,
      "hit": false,
      "t": 67665.381,
      "d": 343.7434687500063,
      "v": 75
    },
    {
      "midi": 84,
      "hit": false,
      "t": 67665.38100000018,
      "d": 95.48429687500175,
      "v": 82
    },
    {
      "midi": 72,
      "hit": false,
      "t": 67720.93550000018,
      "d": 95.48429687500175,
      "v": 82
    },
    {
      "midi": 60,
      "hit": false,
      "t": 67998.708,
      "d": 993.0366875000036,
      "v": 97
    },
    {
      "midi": 64,
      "hit": false,
      "t": 67998.70800000004,
      "d": 1949.6157343749946,
      "v": 89
    },
    {
      "midi": 60,
      "hit": false,
      "t": 67998.70800000004,
      "d": 2598.9089531250065,
      "v": 66
    },
    {
      "midi": 67,
      "hit": false,
      "t": 67998.70800000004,
      "d": 5275.941421874988,
      "v": 58
    },
    {
      "midi": 48,
      "hit": false,
      "t": 67998.70800000006,
      "d": 878.4555312500015,
      "v": 83
    },
    {
      "midi": 55,
      "hit": false,
      "t": 67998.70800000006,
      "d": 1013.8696250000066,
      "v": 70
    },
    {
      "midi": 60,
      "hit": false,
      "t": 67998.70800000006,
      "d": 1013.8696250000066,
      "v": 92
    },
    {
      "midi": 36,
      "hit": false,
      "t": 67998.70800000006,
      "d": 1527.7487499999988,
      "v": 94
    },
    {
      "midi": 88,
      "hit": false,
      "t": 67998.70800000019,
      "d": 267.3560312500049,
      "v": 86
    },
    {
      "midi": 76,
      "hit": false,
      "t": 68054.26250000019,
      "d": 267.3560312500049,
      "v": 86
    },
    {
      "midi": 84,
      "hit": false,
      "t": 68332.03500000019,
      "d": 76.3874375000014,
      "v": 65
    },
    {
      "midi": 72,
      "hit": false,
      "t": 68387.58950000019,
      "d": 76.3874375000014,
      "v": 65
    },
    {
      "midi": 79,
      "hit": false,
      "t": 68665.3620000002,
      "d": 114.5811562500021,
      "v": 74
    },
    {
      "midi": 67,
      "hit": false,
      "t": 68720.9165000002,
      "d": 114.5811562500021,
      "v": 74
    },
    {
      "midi": 62,
      "hit": false,
      "t": 68998.689,
      "d": 381.937187500007,
      "v": 82
    },
    {
      "midi": 62,
      "hit": false,
      "t": 68998.68900000006,
      "d": 381.937187500007,
      "v": 85
    },
    {
      "midi": 84,
      "hit": false,
      "t": 68998.6890000002,
      "d": 76.3874375000014,
      "v": 82
    },
    {
      "midi": 72,
      "hit": false,
      "t": 69054.2435000002,
      "d": 76.3874375000014,
      "v": 82
    },
    {
      "midi": 64,
      "hit": false,
      "t": 69332.016,
      "d": 324.64660937500594,
      "v": 107
    },
    {
      "midi": 64,
      "hit": false,
      "t": 69332.01600000006,
      "d": 305.5497500000056,
      "v": 107
    },
    {
      "midi": 60,
      "hit": false,
      "t": 69332.01600000006,
      "d": 361.10425000000396,
      "v": 70
    },
    {
      "midi": 88,
      "hit": false,
      "t": 69332.0160000002,
      "d": 76.3874375000014,
      "v": 71
    },
    {
      "midi": 76,
      "hit": false,
      "t": 69387.5705000002,
      "d": 76.3874375000014,
      "v": 71
    },
    {
      "midi": 65,
      "hit": false,
      "t": 69665.34300000001,
      "d": 343.7434687500063,
      "v": 88
    },
    {
      "midi": 36,
      "hit": false,
      "t": 69665.34300000005,
      "d": 343.7434687500063,
      "v": 83
    },
    {
      "midi": 65,
      "hit": false,
      "t": 69665.34300000007,
      "d": 112.84507812499942,
      "v": 85
    },
    {
      "midi": 84,
      "hit": false,
      "t": 69665.34300000021,
      "d": 95.48429687500175,
      "v": 72
    },
    {
      "midi": 72,
      "hit": false,
      "t": 69720.89750000021,
      "d": 95.48429687500175,
      "v": 72
    },
    {
      "midi": 67,
      "hit": false,
      "t": 69998.67000000001,
      "d": 1225.6711562499986,
      "v": 94
    },
    {
      "midi": 62,
      "hit": false,
      "t": 69998.67000000004,
      "d": 2062.460812499994,
      "v": 72
    },
    {
      "midi": 31,
      "hit": false,
      "t": 69998.67000000006,
      "d": 2045.1000312499964,
      "v": 94
    },
    {
      "midi": 60,
      "hit": false,
      "t": 69998.67000000007,
      "d": 477.42148437500873,
      "v": 89
    },
    {
      "midi": 62,
      "hit": false,
      "t": 69998.67000000007,
      "d": 916.6492500000168,
      "v": 86
    },
    {
      "midi": 67,
      "hit": false,
      "t": 69998.67000000007,
      "d": 1013.8696250000212,
      "v": 95
    },
    {
      "midi": 55,
      "hit": false,
      "t": 69998.67000000007,
      "d": 1701.3565625000192,
      "v": 85
    },
    {
      "midi": 91,
      "hit": false,
      "t": 69998.67000000022,
      "d": 152.7748750000028,
      "v": 77
    },
    {
      "midi": 79,
      "hit": false,
      "t": 70054.22450000021,
      "d": 152.7748750000028,
      "v": 77
    },
    {
      "midi": 86,
      "hit": false,
      "t": 70331.99700000022,
      "d": 76.3874375000014,
      "v": 53
    },
    {
      "midi": 74,
      "hit": false,
      "t": 70387.55150000022,
      "d": 76.3874375000014,
      "v": 53
    },
    {
      "midi": 59,
      "hit": false,
      "t": 70665.32400000005,
      "d": 1317.683296874995,
      "v": 91
    },
    {
      "midi": 59,
      "hit": false,
      "t": 70665.32400000008,
      "d": 362.84032812500664,
      "v": 101
    },
    {
      "midi": 83,
      "hit": false,
      "t": 70665.32400000023,
      "d": 95.48429687500175,
      "v": 66
    },
    {
      "midi": 71,
      "hit": false,
      "t": 70720.87850000022,
      "d": 95.48429687500175,
      "v": 66
    },
    {
      "midi": 86,
      "hit": false,
      "t": 70998.65100000023,
      "d": 76.3874375000014,
      "v": 62
    },
    {
      "midi": 74,
      "hit": false,
      "t": 71054.20550000023,
      "d": 76.3874375000014,
      "v": 62
    },
    {
      "midi": 69,
      "hit": false,
      "t": 71331.97800000002,
      "d": 362.84032812500664,
      "v": 95
    },
    {
      "midi": 69,
      "hit": false,
      "t": 71331.97800000009,
      "d": 343.7434687500063,
      "v": 86
    },
    {
      "midi": 79,
      "hit": false,
      "t": 71331.97800000024,
      "d": 95.48429687500175,
      "v": 72
    },
    {
      "midi": 67,
      "hit": false,
      "t": 71387.53250000023,
      "d": 95.48429687500175,
      "v": 72
    },
    {
      "midi": 71,
      "hit": false,
      "t": 71665.30500000002,
      "d": 305.5497500000056,
      "v": 94
    },
    {
      "midi": 71,
      "hit": false,
      "t": 71665.3050000001,
      "d": 112.84507812499942,
      "v": 109
    },
    {
      "midi": 83,
      "hit": false,
      "t": 71665.30500000024,
      "d": 95.48429687500175,
      "v": 80
    },
    {
      "midi": 71,
      "hit": false,
      "t": 71720.85950000024,
      "d": 95.48429687500175,
      "v": 80
    },
    {
      "midi": 72,
      "hit": false,
      "t": 71998.63200000003,
      "d": 631.9324374999997,
      "v": 99
    },
    {
      "midi": 64,
      "hit": false,
      "t": 71998.63200000004,
      "d": 1319.4193749999831,
      "v": 97
    },
    {
      "midi": 60,
      "hit": false,
      "t": 71998.63200000004,
      "d": 5847.11112500001,
      "v": 74
    },
    {
      "midi": 40,
      "hit": false,
      "t": 71998.63200000006,
      "d": 1355.8770156249957,
      "v": 97
    },
    {
      "midi": 72,
      "hit": false,
      "t": 71998.6320000001,
      "d": 553.8089218750101,
      "v": 103
    },
    {
      "midi": 67,
      "hit": false,
      "t": 71998.6320000001,
      "d": 572.9057812500105,
      "v": 95
    },
    {
      "midi": 64,
      "hit": false,
      "t": 71998.6320000001,
      "d": 706.5837968750129,
      "v": 97
    },
    {
      "midi": 52,
      "hit": false,
      "t": 71998.6320000001,
      "d": 763.874375000014,
      "v": 99
    },
    {
      "midi": 88,
      "hit": false,
      "t": 71998.63200000025,
      "d": 76.3874375000014,
      "v": 83
    },
    {
      "midi": 76,
      "hit": false,
      "t": 72054.18650000024,
      "d": 76.3874375000014,
      "v": 83
    },
    {
      "midi": 79,
      "hit": false,
      "t": 72331.95900000025,
      "d": 114.5811562500021,
      "v": 54
    },
    {
      "midi": 67,
      "hit": false,
      "t": 72387.51350000025,
      "d": 114.5811562500021,
      "v": 54
    },
    {
      "midi": 71,
      "hit": false,
      "t": 72665.28600000002,
      "d": 725.6806562499987,
      "v": 101
    },
    {
      "midi": 71,
      "hit": false,
      "t": 72665.28600000011,
      "d": 76.3874375000014,
      "v": 105
    },
    {
      "midi": 84,
      "hit": false,
      "t": 72665.28600000025,
      "d": 131.94193749999977,
      "v": 85
    },
    {
      "midi": 72,
      "hit": false,
      "t": 72720.84050000025,
      "d": 131.94193749999977,
      "v": 85
    },
    {
      "midi": 88,
      "hit": false,
      "t": 72998.61300000026,
      "d": 95.48429687500175,
      "v": 70
    },
    {
      "midi": 76,
      "hit": false,
      "t": 73054.16750000026,
      "d": 95.48429687500175,
      "v": 70
    },
    {
      "midi": 69,
      "hit": false,
      "t": 73331.94000000002,
      "d": 670.1261562500149,
      "v": 95
    },
    {
      "midi": 69,
      "hit": false,
      "t": 73331.94000000003,
      "d": 630.196359374997,
      "v": 70
    },
    {
      "midi": 65,
      "hit": false,
      "t": 73331.94000000003,
      "d": 1374.973874999996,
      "v": 85
    },
    {
      "midi": 41,
      "hit": false,
      "t": 73331.94000000005,
      "d": 631.9324374999997,
      "v": 101
    },
    {
      "midi": 69,
      "hit": false,
      "t": 73331.94000000012,
      "d": 248.25917187500454,
      "v": 88
    },
    {
      "midi": 65,
      "hit": false,
      "t": 73331.94000000012,
      "d": 265.6199531250022,
      "v": 92
    },
    {
      "midi": 53,
      "hit": false,
      "t": 73331.94000000012,
      "d": 284.71681250000256,
      "v": 86
    },
    {
      "midi": 60,
      "hit": false,
      "t": 73331.94000000012,
      "d": 284.71681250000256,
      "v": 89
    },
    {
      "midi": 89,
      "hit": false,
      "t": 73331.94000000026,
      "d": 152.7748750000028,
      "v": 83
    },
    {
      "midi": 77,
      "hit": false,
      "t": 73387.49450000026,
      "d": 152.7748750000028,
      "v": 83
    },
    {
      "midi": 81,
      "hit": false,
      "t": 73665.26700000027,
      "d": 95.48429687500175,
      "v": 28
    },
    {
      "midi": 69,
      "hit": false,
      "t": 73720.82150000027,
      "d": 95.48429687500175,
      "v": 28
    },
    {
      "midi": 67,
      "hit": false,
      "t": 73998.59400000003,
      "d": 1394.070734375011,
      "v": 80
    },
    {
      "midi": 67,
      "hit": false,
      "t": 73998.59400000003,
      "d": 1206.5742968749983,
      "v": 97
    },
    {
      "midi": 36,
      "hit": false,
      "t": 73998.59400000004,
      "d": 1374.9738750000106,
      "v": 99
    },
    {
      "midi": 65,
      "hit": false,
      "t": 73998.59400000013,
      "d": 784.7073124999879,
      "v": 80
    },
    {
      "midi": 67,
      "hit": false,
      "t": 73998.59400000013,
      "d": 821.1649531249859,
      "v": 88
    },
    {
      "midi": 60,
      "hit": false,
      "t": 73998.59400000013,
      "d": 840.2618124999863,
      "v": 71
    },
    {
      "midi": 48,
      "hit": false,
      "t": 73998.59400000013,
      "d": 861.0947499999893,
      "v": 86
    },
    {
      "midi": 91,
      "hit": false,
      "t": 73998.59400000027,
      "d": 133.67801562500244,
      "v": 72
    },
    {
      "midi": 79,
      "hit": false,
      "t": 74054.14850000027,
      "d": 133.67801562500244,
      "v": 72
    },
    {
      "midi": 88,
      "hit": false,
      "t": 74331.92100000028,
      "d": 76.3874375000014,
      "v": 67
    },
    {
      "midi": 76,
      "hit": false,
      "t": 74387.47550000028,
      "d": 76.3874375000014,
      "v": 67
    },
    {
      "midi": 64,
      "hit": false,
      "t": 74665.24800000002,
      "d": 725.6806562500133,
      "v": 85
    },
    {
      "midi": 64,
      "hit": false,
      "t": 74665.24800000012,
      "d": 133.6780156249879,
      "v": 88
    },
    {
      "midi": 84,
      "hit": false,
      "t": 74665.24800000028,
      "d": 95.48429687500175,
      "v": 66
    },
    {
      "midi": 72,
      "hit": false,
      "t": 74720.80250000028,
      "d": 95.48429687500175,
      "v": 66
    },
    {
      "midi": 79,
      "hit": false,
      "t": 74998.57500000029,
      "d": 95.48429687500175,
      "v": 68
    },
    {
      "midi": 67,
      "hit": false,
      "t": 75054.12950000029,
      "d": 95.48429687500175,
      "v": 68
    },
    {
      "midi": 69,
      "hit": false,
      "t": 75331.90200000003,
      "d": 651.029296875,
      "v": 80
    },
    {
      "midi": 65,
      "hit": false,
      "t": 75331.90200000003,
      "d": 687.486937499998,
      "v": 91
    },
    {
      "midi": 69,
      "hit": false,
      "t": 75331.90200000003,
      "d": 342.0073906250036,
      "v": 94
    },
    {
      "midi": 41,
      "hit": false,
      "t": 75331.90200000005,
      "d": 706.5837968750129,
      "v": 99
    },
    {
      "midi": 53,
      "hit": false,
      "t": 75331.90200000012,
      "d": 324.64660937500594,
      "v": 88
    },
    {
      "midi": 60,
      "hit": false,
      "t": 75331.90200000012,
      "d": 324.64660937500594,
      "v": 82
    },
    {
      "midi": 65,
      "hit": false,
      "t": 75331.90200000012,
      "d": 342.0073906250036,
      "v": 88
    },
    {
      "midi": 69,
      "hit": false,
      "t": 75331.90200000012,
      "d": 345.47954687500896,
      "v": 94
    },
    {
      "midi": 84,
      "hit": false,
      "t": 75331.9020000003,
      "d": 114.5811562500021,
      "v": 80
    },
    {
      "midi": 72,
      "hit": false,
      "t": 75387.45650000029,
      "d": 114.5811562500021,
      "v": 80
    },
    {
      "midi": 71,
      "hit": false,
      "t": 75665.22900000004,
      "d": 305.5497500000056,
      "v": 91
    },
    {
      "midi": 71,
      "hit": false,
      "t": 75665.22900000012,
      "d": 114.5811562500021,
      "v": 92
    },
    {
      "midi": 81,
      "hit": false,
      "t": 75665.2290000003,
      "d": 112.84507812499942,
      "v": 74
    },
    {
      "midi": 69,
      "hit": false,
      "t": 75720.7835000003,
      "d": 112.84507812499942,
      "v": 74
    },
    {
      "midi": 67,
      "hit": false,
      "t": 75998.55600000003,
      "d": 1145.8115625000064,
      "v": 86
    },
    {
      "midi": 64,
      "hit": false,
      "t": 75998.55600000003,
      "d": 1300.3225156250119,
      "v": 97
    },
    {
      "midi": 72,
      "hit": false,
      "t": 75998.55600000004,
      "d": 727.4167343750014,
      "v": 92
    },
    {
      "midi": 36,
      "hit": false,
      "t": 75998.55600000006,
      "d": 1298.5864375000092,
      "v": 101
    },
    {
      "midi": 72,
      "hit": false,
      "t": 75998.55600000013,
      "d": 649.2932187500119,
      "v": 97
    },
    {
      "midi": 67,
      "hit": false,
      "t": 75998.55600000013,
      "d": 706.5837968750129,
      "v": 89
    },
    {
      "midi": 64,
      "hit": false,
      "t": 75998.55600000013,
      "d": 782.9712343750143,
      "v": 92
    },
    {
      "midi": 48,
      "hit": false,
      "t": 75998.55600000013,
      "d": 802.0680937500147,
      "v": 83
    },
    {
      "midi": 79,
      "hit": false,
      "t": 75998.5560000003,
      "d": 114.5811562500021,
      "v": 79
    },
    {
      "midi": 67,
      "hit": false,
      "t": 76054.1105000003,
      "d": 114.5811562500021,
      "v": 79
    },
    {
      "midi": 84,
      "hit": false,
      "t": 76331.8830000003,
      "d": 95.48429687500175,
      "v": 70
    },
    {
      "midi": 72,
      "hit": false,
      "t": 76387.4375000003,
      "d": 95.48429687500175,
      "v": 70
    },
    {
      "midi": 71,
      "hit": false,
      "t": 76665.21000000004,
      "d": 687.4869375000126,
      "v": 101
    },
    {
      "midi": 71,
      "hit": false,
      "t": 76665.21000000014,
      "d": 95.48429687500175,
      "v": 91
    },
    {
      "midi": 88,
      "hit": false,
      "t": 76665.21000000031,
      "d": 95.48429687500175,
      "v": 65
    },
    {
      "midi": 76,
      "hit": false,
      "t": 76720.76450000031,
      "d": 95.48429687500175,
      "v": 65
    },
    {
      "midi": 84,
      "hit": false,
      "t": 76998.53700000032,
      "d": 114.5811562500021,
      "v": 77
    },
    {
      "midi": 72,
      "hit": false,
      "t": 77054.09150000032,
      "d": 114.5811562500021,
      "v": 77
    },
    {
      "midi": 69,
      "hit": false,
      "t": 77331.86400000005,
      "d": 611.0995000000112,
      "v": 91
    },
    {
      "midi": 65,
      "hit": false,
      "t": 77331.86400000005,
      "d": 744.7775156250136,
      "v": 91
    },
    {
      "midi": 69,
      "hit": false,
      "t": 77331.86400000005,
      "d": 668.3900781250122,
      "v": 97
    },
    {
      "midi": 41,
      "hit": false,
      "t": 77331.86400000006,
      "d": 592.0026406249963,
      "v": 95
    },
    {
      "midi": 65,
      "hit": false,
      "t": 77331.86400000015,
      "d": 229.1623125000042,
      "v": 97
    },
    {
      "midi": 69,
      "hit": false,
      "t": 77331.86400000015,
      "d": 229.1623125000042,
      "v": 97
    },
    {
      "midi": 60,
      "hit": false,
      "t": 77331.86400000015,
      "d": 284.71681250000256,
      "v": 91
    },
    {
      "midi": 53,
      "hit": false,
      "t": 77331.86400000015,
      "d": 305.5497500000056,
      "v": 92
    },
    {
      "midi": 89,
      "hit": false,
      "t": 77331.86400000032,
      "d": 95.48429687500175,
      "v": 80
    },
    {
      "midi": 77,
      "hit": false,
      "t": 77387.41850000032,
      "d": 95.48429687500175,
      "v": 80
    },
    {
      "midi": 81,
      "hit": false,
      "t": 77665.19100000033,
      "d": 95.48429687500175,
      "v": 70
    },
    {
      "midi": 69,
      "hit": false,
      "t": 77720.74550000032,
      "d": 95.48429687500175,
      "v": 70
    },
    {
      "midi": 41,
      "hit": false,
      "t": 77998.51800000005,
      "d": 1279.4895781249943,
      "v": 107
    },
    {
      "midi": 59,
      "hit": false,
      "t": 77998.51800000005,
      "d": 1814.201640625004,
      "v": 77
    },
    {
      "midi": 62,
      "hit": false,
      "t": 77998.51800000005,
      "d": 1966.9765156250069,
      "v": 59
    },
    {
      "midi": 67,
      "hit": false,
      "t": 77998.51800000005,
      "d": 3248.2021718750184,
      "v": 83
    },
    {
      "midi": 67,
      "hit": false,
      "t": 77998.51800000005,
      "d": 649.2932187499973,
      "v": 95
    },
    {
      "midi": 62,
      "hit": false,
      "t": 77998.51800000016,
      "d": 647.5571406249946,
      "v": 94
    },
    {
      "midi": 67,
      "hit": false,
      "t": 77998.51800000016,
      "d": 647.5571406249946,
      "v": 86
    },
    {
      "midi": 59,
      "hit": false,
      "t": 77998.51800000016,
      "d": 763.8743749999994,
      "v": 101
    },
    {
      "midi": 53,
      "hit": false,
      "t": 77998.51800000016,
      "d": 1491.2911093749863,
      "v": 105
    },
    {
      "midi": 79,
      "hit": false,
      "t": 77998.51800000033,
      "d": 131.94193749999977,
      "v": 62
    },
    {
      "midi": 67,
      "hit": false,
      "t": 78054.07250000033,
      "d": 131.94193749999977,
      "v": 62
    },
    {
      "midi": 83,
      "hit": false,
      "t": 78331.84500000034,
      "d": 114.5811562500021,
      "v": 70
    },
    {
      "midi": 71,
      "hit": false,
      "t": 78387.39950000033,
      "d": 114.5811562500021,
      "v": 70
    },
    {
      "midi": 69,
      "hit": false,
      "t": 78665.17200000005,
      "d": 687.486937499998,
      "v": 92
    },
    {
      "midi": 69,
      "hit": false,
      "t": 78665.17200000015,
      "d": 649.2932187499973,
      "v": 101
    },
    {
      "midi": 86,
      "hit": false,
      "t": 78665.17200000034,
      "d": 112.84507812499942,
      "v": 75
    },
    {
      "midi": 74,
      "hit": false,
      "t": 78720.72650000034,
      "d": 112.84507812499942,
      "v": 75
    },
    {
      "midi": 91,
      "hit": false,
      "t": 78998.49900000035,
      "d": 112.84507812499942,
      "v": 71
    },
    {
      "midi": 79,
      "hit": false,
      "t": 79054.05350000034,
      "d": 112.84507812499942,
      "v": 71
    },
    {
      "midi": 41,
      "hit": false,
      "t": 79331.82600000004,
      "d": 649.2932187499973,
      "v": 92
    },
    {
      "midi": 71,
      "hit": false,
      "t": 79331.82600000004,
      "d": 668.3900781250122,
      "v": 91
    },
    {
      "midi": 71,
      "hit": false,
      "t": 79331.82600000015,
      "d": 114.5811562500021,
      "v": 107
    },
    {
      "midi": 86,
      "hit": false,
      "t": 79331.82600000035,
      "d": 133.67801562500244,
      "v": 47
    },
    {
      "midi": 74,
      "hit": false,
      "t": 79387.38050000035,
      "d": 133.67801562500244,
      "v": 47
    },
    {
      "midi": 83,
      "hit": false,
      "t": 79665.15300000035,
      "d": 152.7748750000028,
      "v": 68
    },
    {
      "midi": 71,
      "hit": false,
      "t": 79720.70750000035,
      "d": 152.7748750000028,
      "v": 68
    },
    {
      "midi": 40,
      "hit": false,
      "t": 79998.48000000004,
      "d": 1336.78015625001,
      "v": 91
    },
    {
      "midi": 72,
      "hit": false,
      "t": 79998.48000000005,
      "d": 670.1261562500149,
      "v": 101
    },
    {
      "midi": 64,
      "hit": false,
      "t": 79998.48000000007,
      "d": 1279.4895781250088,
      "v": 97
    },
    {
      "midi": 60,
      "hit": false,
      "t": 79998.48000000007,
      "d": 6694.317249999978,
      "v": 83
    },
    {
      "midi": 67,
      "hit": false,
      "t": 79998.48000000014,
      "d": 248.25917187500454,
      "v": 77
    },
    {
      "midi": 72,
      "hit": false,
      "t": 79998.48000000014,
      "d": 324.64660937500594,
      "v": 99
    },
    {
      "midi": 64,
      "hit": false,
      "t": 79998.48000000014,
      "d": 743.0414375000109,
      "v": 92
    },
    {
      "midi": 52,
      "hit": false,
      "t": 79998.48000000014,
      "d": 993.0366875000182,
      "v": 77
    },
    {
      "midi": 88,
      "hit": false,
      "t": 79998.48000000036,
      "d": 171.87173437500314,
      "v": 70
    },
    {
      "midi": 76,
      "hit": false,
      "t": 80054.03450000036,
      "d": 171.87173437500314,
      "v": 70
    },
    {
      "midi": 79,
      "hit": false,
      "t": 80331.80700000036,
      "d": 170.13565625000047,
      "v": 54
    },
    {
      "midi": 67,
      "hit": false,
      "t": 80387.36150000036,
      "d": 170.13565625000047,
      "v": 54
    },
    {
      "midi": 67,
      "hit": false,
      "t": 80665.13400000006,
      "d": 706.5837968750129,
      "v": 89
    },
    {
      "midi": 67,
      "hit": false,
      "t": 80665.13400000015,
      "d": 152.7748750000028,
      "v": 89
    },
    {
      "midi": 84,
      "hit": false,
      "t": 80665.13400000037,
      "d": 229.1623125000042,
      "v": 68
    },
    {
      "midi": 72,
      "hit": false,
      "t": 80720.68850000037,
      "d": 229.1623125000042,
      "v": 68
    },
    {
      "midi": 88,
      "hit": false,
      "t": 80998.46100000037,
      "d": 190.9685937500035,
      "v": 68
    },
    {
      "midi": 76,
      "hit": false,
      "t": 81054.01550000037,
      "d": 190.9685937500035,
      "v": 68
    },
    {
      "midi": 31,
      "hit": false,
      "t": 81331.78800000004,
      "d": 649.2932187500119,
      "v": 109
    },
    {
      "midi": 57,
      "hit": false,
      "t": 81331.78800000007,
      "d": 611.0994999999966,
      "v": 92
    },
    {
      "midi": 65,
      "hit": false,
      "t": 81331.78800000007,
      "d": 729.1528124999895,
      "v": 72
    },
    {
      "midi": 65,
      "hit": false,
      "t": 81331.78800000007,
      "d": 668.3900781250122,
      "v": 91
    },
    {
      "midi": 53,
      "hit": false,
      "t": 81331.78800000016,
      "d": 305.5497500000056,
      "v": 88
    },
    {
      "midi": 57,
      "hit": false,
      "t": 81331.78800000016,
      "d": 324.64660937500594,
      "v": 85
    },
    {
      "midi": 60,
      "hit": false,
      "t": 81331.78800000016,
      "d": 324.64660937500594,
      "v": 95
    },
    {
      "midi": 65,
      "hit": false,
      "t": 81331.78800000016,
      "d": 324.64660937500594,
      "v": 88
    },
    {
      "midi": 89,
      "hit": false,
      "t": 81331.78800000038,
      "d": 229.1623125000042,
      "v": 74
    },
    {
      "midi": 77,
      "hit": false,
      "t": 81387.34250000038,
      "d": 229.1623125000042,
      "v": 74
    },
    {
      "midi": 81,
      "hit": false,
      "t": 81665.11500000038,
      "d": 133.67801562500244,
      "v": 64
    },
    {
      "midi": 69,
      "hit": false,
      "t": 81720.66950000038,
      "d": 133.67801562500244,
      "v": 64
    },
    {
      "midi": 36,
      "hit": false,
      "t": 81998.44200000005,
      "d": 1642.329906250001,
      "v": 103
    },
    {
      "midi": 64,
      "hit": false,
      "t": 81998.44200000007,
      "d": 3994.715765624991,
      "v": 103
    },
    {
      "midi": 55,
      "hit": false,
      "t": 81998.44200000007,
      "d": 5833.222499999974,
      "v": 71
    },
    {
      "midi": 64,
      "hit": false,
      "t": 81998.44200000008,
      "d": 1088.5209843750054,
      "v": 103
    },
    {
      "midi": 60,
      "hit": false,
      "t": 81998.44200000017,
      "d": 1145.8115625000064,
      "v": 94
    },
    {
      "midi": 55,
      "hit": false,
      "t": 81998.44200000017,
      "d": 1184.005281250007,
      "v": 72
    },
    {
      "midi": 64,
      "hit": false,
      "t": 81998.44200000017,
      "d": 1241.2958593750081,
      "v": 105
    },
    {
      "midi": 48,
      "hit": false,
      "t": 81998.44200000017,
      "d": 1279.4895781250088,
      "v": 85
    },
    {
      "midi": 88,
      "hit": false,
      "t": 81998.44200000039,
      "d": 131.94193749999977,
      "v": 64
    },
    {
      "midi": 76,
      "hit": false,
      "t": 82053.99650000039,
      "d": 131.94193749999977,
      "v": 64
    },
    {
      "midi": 79,
      "hit": false,
      "t": 82331.7690000004,
      "d": 229.1623125000042,
      "v": 64
    },
    {
      "midi": 67,
      "hit": false,
      "t": 82387.32350000039,
      "d": 229.1623125000042,
      "v": 64
    },
    {
      "midi": 84,
      "hit": false,
      "t": 82665.0960000004,
      "d": 152.7748750000028,
      "v": 67
    },
    {
      "midi": 72,
      "hit": false,
      "t": 82720.6505000004,
      "d": 152.7748750000028,
      "v": 67
    },
    {
      "midi": 86,
      "hit": false,
      "t": 82998.4230000004,
      "d": 152.7748750000028,
      "v": 55
    },
    {
      "midi": 74,
      "hit": false,
      "t": 83053.9775000004,
      "d": 152.7748750000028,
      "v": 55
    },
    {
      "midi": 64,
      "hit": false,
      "t": 83331.75000000009,
      "d": 345.47954687500896,
      "v": 107
    },
    {
      "midi": 64,
      "hit": false,
      "t": 83331.75000000017,
      "d": 361.10425000000396,
      "v": 109
    },
    {
      "midi": 88,
      "hit": false,
      "t": 83331.75000000041,
      "d": 208.32937500000116,
      "v": 59
    },
    {
      "midi": 76,
      "hit": false,
      "t": 83387.3045000004,
      "d": 208.32937500000116,
      "v": 59
    },
    {
      "midi": 36,
      "hit": false,
      "t": 83665.07700000005,
      "d": 322.91053125000326,
      "v": 91
    },
    {
      "midi": 62,
      "hit": false,
      "t": 83665.07700000009,
      "d": 361.10425000000396,
      "v": 85
    },
    {
      "midi": 62,
      "hit": false,
      "t": 83665.07700000018,
      "d": 347.21562500001164,
      "v": 79
    },
    {
      "midi": 84,
      "hit": false,
      "t": 83665.07700000041,
      "d": 114.5811562500021,
      "v": 65
    },
    {
      "midi": 72,
      "hit": false,
      "t": 83720.63150000041,
      "d": 114.5811562500021,
      "v": 65
    },
    {
      "midi": 33,
      "hit": false,
      "t": 83998.40400000005,
      "d": 1527.7487499999988,
      "v": 103
    },
    {
      "midi": 60,
      "hit": false,
      "t": 83998.4040000001,
      "d": 956.5790468750056,
      "v": 99
    },
    {
      "midi": 60,
      "hit": false,
      "t": 83998.40400000018,
      "d": 1031.2304062500043,
      "v": 99
    },
    {
      "midi": 45,
      "hit": false,
      "t": 83998.40400000018,
      "d": 1338.516234374998,
      "v": 91
    },
    {
      "midi": 57,
      "hit": false,
      "t": 83998.40400000018,
      "d": 1680.5236250000016,
      "v": 92
    },
    {
      "midi": 88,
      "hit": false,
      "t": 83998.40400000042,
      "d": 152.7748750000028,
      "v": 65
    },
    {
      "midi": 76,
      "hit": false,
      "t": 84053.95850000042,
      "d": 152.7748750000028,
      "v": 65
    },
    {
      "midi": 84,
      "hit": false,
      "t": 84331.73100000042,
      "d": 171.87173437500314,
      "v": 59
    },
    {
      "midi": 72,
      "hit": false,
      "t": 84387.28550000042,
      "d": 171.87173437500314,
      "v": 59
    },
    {
      "midi": 79,
      "hit": false,
      "t": 84665.05800000043,
      "d": 152.7748750000028,
      "v": 49
    },
    {
      "midi": 67,
      "hit": false,
      "t": 84720.61250000042,
      "d": 152.7748750000028,
      "v": 49
    },
    {
      "midi": 62,
      "hit": false,
      "t": 84998.3850000001,
      "d": 362.84032812500664,
      "v": 86
    },
    {
      "midi": 62,
      "hit": false,
      "t": 84998.38500000018,
      "d": 362.8403281249921,
      "v": 88
    },
    {
      "midi": 84,
      "hit": false,
      "t": 84998.38500000043,
      "d": 112.84507812499942,
      "v": 56
    },
    {
      "midi": 72,
      "hit": false,
      "t": 85053.93950000043,
      "d": 112.84507812499942,
      "v": 56
    },
    {
      "midi": 64,
      "hit": false,
      "t": 85331.7120000001,
      "d": 342.0073906250036,
      "v": 107
    },
    {
      "midi": 64,
      "hit": false,
      "t": 85331.71200000019,
      "d": 305.54974999999104,
      "v": 101
    },
    {
      "midi": 88,
      "hit": false,
      "t": 85331.71200000044,
      "d": 246.52309375000186,
      "v": 68
    },
    {
      "midi": 76,
      "hit": false,
      "t": 85387.26650000043,
      "d": 246.52309375000186,
      "v": 68
    },
    {
      "midi": 33,
      "hit": false,
      "t": 85665.03900000005,
      "d": 381.937187500007,
      "v": 91
    },
    {
      "midi": 65,
      "hit": false,
      "t": 85665.0390000001,
      "d": 324.64660937500594,
      "v": 89
    },
    {
      "midi": 65,
      "hit": false,
      "t": 85665.03900000018,
      "d": 114.5811562500021,
      "v": 94
    },
    {
      "midi": 84,
      "hit": false,
      "t": 85665.03900000044,
      "d": 93.74821874999907,
      "v": 72
    },
    {
      "midi": 72,
      "hit": false,
      "t": 85720.59350000044,
      "d": 93.74821874999907,
      "v": 72
    },
    {
      "midi": 31,
      "hit": false,
      "t": 85998.36600000005,
      "d": 1986.0733750000072,
      "v": 94
    },
    {
      "midi": 62,
      "hit": false,
      "t": 85998.36600000005,
      "d": 1993.0176874999888,
      "v": 64
    },
    {
      "midi": 67,
      "hit": false,
      "t": 85998.36600000011,
      "d": 1336.78015625001,
      "v": 92
    },
    {
      "midi": 60,
      "hit": false,
      "t": 85998.36600000018,
      "d": 553.8089218750101,
      "v": 92
    },
    {
      "midi": 62,
      "hit": false,
      "t": 85998.36600000018,
      "d": 1184.005281250007,
      "v": 85
    },
    {
      "midi": 67,
      "hit": false,
      "t": 85998.36600000018,
      "d": 1374.9738750000106,
      "v": 89
    },
    {
      "midi": 55,
      "hit": false,
      "t": 85998.36600000018,
      "d": 1795.1047812500183,
      "v": 77
    },
    {
      "midi": 91,
      "hit": false,
      "t": 85998.36600000045,
      "d": 171.87173437500314,
      "v": 68
    },
    {
      "midi": 79,
      "hit": false,
      "t": 86053.92050000044,
      "d": 171.87173437500314,
      "v": 68
    },
    {
      "midi": 86,
      "hit": false,
      "t": 86331.69300000045,
      "d": 112.84507812499942,
      "v": 40
    },
    {
      "midi": 74,
      "hit": false,
      "t": 86387.24750000045,
      "d": 112.84507812499942,
      "v": 40
    },
    {
      "midi": 59,
      "hit": false,
      "t": 86665.02000000005,
      "d": 1184.0052812499925,
      "v": 99
    },
    {
      "midi": 59,
      "hit": false,
      "t": 86665.0200000002,
      "d": 1013.8696250000066,
      "v": 103
    },
    {
      "midi": 83,
      "hit": false,
      "t": 86665.02000000046,
      "d": 171.87173437500314,
      "v": 62
    },
    {
      "midi": 71,
      "hit": false,
      "t": 86720.57450000045,
      "d": 171.87173437500314,
      "v": 62
    },
    {
      "midi": 86,
      "hit": false,
      "t": 86998.34700000046,
      "d": 190.9685937500035,
      "v": 59
    },
    {
      "midi": 74,
      "hit": false,
      "t": 87053.90150000046,
      "d": 190.9685937500035,
      "v": 59
    },
    {
      "midi": 69,
      "hit": false,
      "t": 87331.67400000012,
      "d": 343.7434687500063,
      "v": 91
    },
    {
      "midi": 69,
      "hit": false,
      "t": 87331.67400000019,
      "d": 190.9685937500035,
      "v": 95
    },
    {
      "midi": 79,
      "hit": false,
      "t": 87331.67400000046,
      "d": 248.25917187500454,
      "v": 67
    },
    {
      "midi": 67,
      "hit": false,
      "t": 87387.22850000046,
      "d": 248.25917187500454,
      "v": 67
    },
    {
      "midi": 71,
      "hit": false,
      "t": 87665.00100000012,
      "d": 345.47954687500896,
      "v": 89
    },
    {
      "midi": 71,
      "hit": false,
      "t": 87665.0010000002,
      "d": 112.84507812501397,
      "v": 89
    },
    {
      "midi": 83,
      "hit": false,
      "t": 87665.00100000047,
      "d": 76.3874375000014,
      "v": 52
    },
    {
      "midi": 71,
      "hit": false,
      "t": 87720.55550000047,
      "d": 76.3874375000014,
      "v": 52
    },
    {
      "midi": 57,
      "hit": false,
      "t": 87998.32800000004,
      "d": 1854.131437499993,
      "v": 77
    },
    {
      "midi": 65,
      "hit": false,
      "t": 87998.32800000004,
      "d": 2694.3932499999937,
      "v": 70
    },
    {
      "midi": 60,
      "hit": false,
      "t": 87998.32800000004,
      "d": 7319.305375000011,
      "v": 83
    },
    {
      "midi": 29,
      "hit": false,
      "t": 87998.32800000007,
      "d": 2005.170234374993,
      "v": 107
    },
    {
      "midi": 72,
      "hit": false,
      "t": 87998.32800000013,
      "d": 668.3900781250122,
      "v": 99
    },
    {
      "midi": 72,
      "hit": false,
      "t": 87998.3280000002,
      "d": 666.653999999995,
      "v": 97
    },
    {
      "midi": 69,
      "hit": false,
      "t": 87998.3280000002,
      "d": 668.3900781249977,
      "v": 103
    },
    {
      "midi": 65,
      "hit": false,
      "t": 87998.3280000002,
      "d": 1031.2304062500043,
      "v": 85
    },
    {
      "midi": 53,
      "hit": false,
      "t": 87998.3280000002,
      "d": 1451.3613124999974,
      "v": 95
    },
    {
      "midi": 81,
      "hit": false,
      "t": 87998.32800000047,
      "d": 208.32937500000116,
      "v": 82
    },
    {
      "midi": 69,
      "hit": false,
      "t": 88053.88250000047,
      "d": 208.32937500000116,
      "v": 82
    },
    {
      "midi": 84,
      "hit": false,
      "t": 88331.65500000048,
      "d": 152.7748750000028,
      "v": 77
    },
    {
      "midi": 72,
      "hit": false,
      "t": 88387.20950000048,
      "d": 152.7748750000028,
      "v": 77
    },
    {
      "midi": 71,
      "hit": false,
      "t": 88664.98200000013,
      "d": 706.5837968750129,
      "v": 91
    },
    {
      "midi": 71,
      "hit": false,
      "t": 88664.9820000002,
      "d": 420.1309062500077,
      "v": 94
    },
    {
      "midi": 89,
      "hit": false,
      "t": 88664.98200000048,
      "d": 152.7748750000028,
      "v": 82
    },
    {
      "midi": 77,
      "hit": false,
      "t": 88720.53650000048,
      "d": 152.7748750000028,
      "v": 82
    },
    {
      "midi": 84,
      "hit": false,
      "t": 88998.30900000049,
      "d": 208.32937500000116,
      "v": 70
    },
    {
      "midi": 72,
      "hit": false,
      "t": 89053.86350000049,
      "d": 208.32937500000116,
      "v": 70
    },
    {
      "midi": 69,
      "hit": false,
      "t": 89331.63600000014,
      "d": 630.196359374997,
      "v": 92
    },
    {
      "midi": 65,
      "hit": false,
      "t": 89331.6360000002,
      "d": 133.6780156249879,
      "v": 83
    },
    {
      "midi": 69,
      "hit": false,
      "t": 89331.6360000002,
      "d": 152.77487499998824,
      "v": 83
    },
    {
      "midi": 60,
      "hit": false,
      "t": 89331.6360000002,
      "d": 171.8717343749886,
      "v": 74
    },
    {
      "midi": 93,
      "hit": false,
      "t": 89331.6360000005,
      "d": 210.06545312500384,
      "v": 75
    },
    {
      "midi": 81,
      "hit": false,
      "t": 89387.19050000049,
      "d": 210.06545312500384,
      "v": 75
    },
    {
      "midi": 89,
      "hit": false,
      "t": 89664.9630000005,
      "d": 114.5811562500021,
      "v": 71
    },
    {
      "midi": 77,
      "hit": false,
      "t": 89720.5175000005,
      "d": 114.5811562500021,
      "v": 71
    },
    {
      "midi": 67,
      "hit": false,
      "t": 89998.29000000004,
      "d": 1319.4193749999977,
      "v": 74
    },
    {
      "midi": 36,
      "hit": false,
      "t": 89998.29000000007,
      "d": 1336.7801562499953,
      "v": 107
    },
    {
      "midi": 67,
      "hit": false,
      "t": 89998.29000000014,
      "d": 1319.4193749999977,
      "v": 99
    },
    {
      "midi": 65,
      "hit": false,
      "t": 89998.2900000002,
      "d": 725.6806562499987,
      "v": 91
    },
    {
      "midi": 67,
      "hit": false,
      "t": 89998.2900000002,
      "d": 859.3586718750012,
      "v": 86
    },
    {
      "midi": 48,
      "hit": false,
      "t": 89998.2900000002,
      "d": 897.5523906250019,
      "v": 97
    },
    {
      "midi": 60,
      "hit": false,
      "t": 89998.2900000002,
      "d": 935.7461093750026,
      "v": 83
    },
    {
      "midi": 91,
      "hit": false,
      "t": 89998.2900000005,
      "d": 171.87173437500314,
      "v": 79
    },
    {
      "midi": 79,
      "hit": false,
      "t": 90053.8445000005,
      "d": 171.87173437500314,
      "v": 79
    },
    {
      "midi": 88,
      "hit": false,
      "t": 90331.61700000051,
      "d": 131.94193749999977,
      "v": 60
    },
    {
      "midi": 76,
      "hit": false,
      "t": 90387.1715000005,
      "d": 131.94193749999977,
      "v": 60
    },
    {
      "midi": 64,
      "hit": false,
      "t": 90664.94400000003,
      "d": 649.2932187499973,
      "v": 94
    },
    {
      "midi": 64,
      "hit": false,
      "t": 90664.94400000019,
      "d": 152.7748750000028,
      "v": 107
    },
    {
      "midi": 84,
      "hit": false,
      "t": 90664.94400000051,
      "d": 112.84507812499942,
      "v": 49
    },
    {
      "midi": 72,
      "hit": false,
      "t": 90720.49850000051,
      "d": 112.84507812499942,
      "v": 49
    },
    {
      "midi": 88,
      "hit": false,
      "t": 90998.27100000052,
      "d": 133.67801562500244,
      "v": 70
    },
    {
      "midi": 76,
      "hit": false,
      "t": 91053.82550000052,
      "d": 133.67801562500244,
      "v": 70
    },
    {
      "midi": 69,
      "hit": false,
      "t": 91331.59800000004,
      "d": 708.319875000001,
      "v": 56
    },
    {
      "midi": 65,
      "hit": false,
      "t": 91331.59800000004,
      "d": 744.7775156249991,
      "v": 86
    },
    {
      "midi": 41,
      "hit": false,
      "t": 91331.59800000006,
      "d": 706.5837968750129,
      "v": 107
    },
    {
      "midi": 69,
      "hit": false,
      "t": 91331.59800000014,
      "d": 343.7434687500063,
      "v": 89
    },
    {
      "midi": 53,
      "hit": false,
      "t": 91331.5980000002,
      "d": 305.5497500000056,
      "v": 94
    },
    {
      "midi": 65,
      "hit": false,
      "t": 91331.5980000002,
      "d": 326.3826875000086,
      "v": 82
    },
    {
      "midi": 69,
      "hit": false,
      "t": 91331.5980000002,
      "d": 342.0073906250036,
      "v": 92
    },
    {
      "midi": 60,
      "hit": false,
      "t": 91331.5980000002,
      "d": 343.7434687500063,
      "v": 83
    },
    {
      "midi": 79,
      "hit": false,
      "t": 91331.59800000052,
      "d": 133.67801562500244,
      "v": 77
    },
    {
      "midi": 67,
      "hit": false,
      "t": 91387.15250000052,
      "d": 133.67801562500244,
      "v": 77
    },
    {
      "midi": 71,
      "hit": false,
      "t": 91664.92500000015,
      "d": 364.5764062500093,
      "v": 91
    },
    {
      "midi": 71,
      "hit": false,
      "t": 91664.9250000002,
      "d": 112.84507812499942,
      "v": 91
    },
    {
      "midi": 81,
      "hit": false,
      "t": 91664.92500000053,
      "d": 131.94193749999977,
      "v": 71
    },
    {
      "midi": 69,
      "hit": false,
      "t": 91720.47950000053,
      "d": 131.94193749999977,
      "v": 71
    },
    {
      "midi": 64,
      "hit": false,
      "t": 91998.25200000004,
      "d": 1336.78015625001,
      "v": 91
    },
    {
      "midi": 67,
      "hit": false,
      "t": 91998.25200000004,
      "d": 1336.78015625001,
      "v": 85
    },
    {
      "midi": 36,
      "hit": false,
      "t": 91998.25200000007,
      "d": 1336.78015625001,
      "v": 103
    },
    {
      "midi": 72,
      "hit": false,
      "t": 91998.25200000015,
      "d": 725.6806562500133,
      "v": 91
    },
    {
      "midi": 72,
      "hit": false,
      "t": 91998.25200000021,
      "d": 592.0026406250108,
      "v": 86
    },
    {
      "midi": 67,
      "hit": false,
      "t": 91998.25200000021,
      "d": 687.4869375000126,
      "v": 83
    },
    {
      "midi": 48,
      "hit": false,
      "t": 91998.25200000021,
      "d": 706.5837968750129,
      "v": 89
    },
    {
      "midi": 64,
      "hit": false,
      "t": 91998.25200000021,
      "d": 763.874375000014,
      "v": 88
    },
    {
      "midi": 79,
      "hit": false,
      "t": 91998.25200000053,
      "d": 152.7748750000028,
      "v": 82
    },
    {
      "midi": 67,
      "hit": false,
      "t": 92053.80650000053,
      "d": 152.7748750000028,
      "v": 82
    },
    {
      "midi": 84,
      "hit": false,
      "t": 92331.57900000054,
      "d": 93.74821874999907,
      "v": 66
    },
    {
      "midi": 72,
      "hit": false,
      "t": 92387.13350000053,
      "d": 93.74821874999907,
      "v": 66
    },
    {
      "midi": 71,
      "hit": false,
      "t": 92664.90600000016,
      "d": 687.4869375000126,
      "v": 89
    },
    {
      "midi": 71,
      "hit": false,
      "t": 92664.90600000022,
      "d": 133.67801562500244,
      "v": 91
    },
    {
      "midi": 88,
      "hit": false,
      "t": 92664.90600000054,
      "d": 171.87173437500314,
      "v": 70
    },
    {
      "midi": 76,
      "hit": false,
      "t": 92720.46050000054,
      "d": 171.87173437500314,
      "v": 70
    },
    {
      "midi": 84,
      "hit": false,
      "t": 92998.23300000055,
      "d": 114.5811562500021,
      "v": 67
    },
    {
      "midi": 72,
      "hit": false,
      "t": 93053.78750000054,
      "d": 114.5811562500021,
      "v": 67
    },
    {
      "midi": 69,
      "hit": false,
      "t": 93331.56000000004,
      "d": 668.3900781250122,
      "v": 74
    },
    {
      "midi": 65,
      "hit": false,
      "t": 93331.56000000004,
      "d": 706.5837968750129,
      "v": 88
    },
    {
      "midi": 41,
      "hit": false,
      "t": 93331.56000000007,
      "d": 668.3900781250122,
      "v": 99
    },
    {
      "midi": 69,
      "hit": false,
      "t": 93331.56000000017,
      "d": 668.3900781250122,
      "v": 94
    },
    {
      "midi": 53,
      "hit": false,
      "t": 93331.56000000023,
      "d": 248.25917187500454,
      "v": 86
    },
    {
      "midi": 65,
      "hit": false,
      "t": 93331.56000000023,
      "d": 265.6199531250022,
      "v": 88
    },
    {
      "midi": 69,
      "hit": false,
      "t": 93331.56000000023,
      "d": 305.5497500000056,
      "v": 89
    },
    {
      "midi": 60,
      "hit": false,
      "t": 93331.56000000023,
      "d": 324.64660937500594,
      "v": 82
    },
    {
      "midi": 89,
      "hit": false,
      "t": 93331.56000000055,
      "d": 190.9685937500035,
      "v": 77
    },
    {
      "midi": 77,
      "hit": false,
      "t": 93387.11450000055,
      "d": 190.9685937500035,
      "v": 77
    },
    {
      "midi": 81,
      "hit": false,
      "t": 93664.88700000056,
      "d": 133.67801562500244,
      "v": 75
    },
    {
      "midi": 69,
      "hit": false,
      "t": 93720.44150000055,
      "d": 133.67801562500244,
      "v": 75
    },
    {
      "midi": 64,
      "hit": false,
      "t": 93998.21400000005,
      "d": 611.0994999999966,
      "v": 88
    },
    {
      "midi": 67,
      "hit": false,
      "t": 93998.21400000005,
      "d": 687.486937499998,
      "v": 74
    },
    {
      "midi": 36,
      "hit": false,
      "t": 93998.21400000008,
      "d": 668.3900781250122,
      "v": 88
    },
    {
      "midi": 67,
      "hit": false,
      "t": 93998.21400000018,
      "d": 649.2932187499973,
      "v": 86
    },
    {
      "midi": 60,
      "hit": false,
      "t": 93998.21400000024,
      "d": 342.0073906250036,
      "v": 75
    },
    {
      "midi": 48,
      "hit": false,
      "t": 93998.21400000024,
      "d": 343.7434687500063,
      "v": 97
    },
    {
      "midi": 64,
      "hit": false,
      "t": 93998.21400000024,
      "d": 361.10425000000396,
      "v": 95
    },
    {
      "midi": 67,
      "hit": false,
      "t": 93998.21400000024,
      "d": 361.10425000000396,
      "v": 89
    },
    {
      "midi": 88,
      "hit": false,
      "t": 93998.21400000056,
      "d": 284.71681250000256,
      "v": 65
    },
    {
      "midi": 76,
      "hit": false,
      "t": 94053.76850000056,
      "d": 284.71681250000256,
      "v": 65
    },
    {
      "midi": 79,
      "hit": false,
      "t": 94331.54100000056,
      "d": 112.84507812499942,
      "v": 68
    },
    {
      "midi": 67,
      "hit": false,
      "t": 94387.09550000056,
      "d": 112.84507812499942,
      "v": 68
    },
    {
      "midi": 65,
      "hit": false,
      "t": 94664.86800000005,
      "d": 708.3198750000156,
      "v": 80
    },
    {
      "midi": 69,
      "hit": false,
      "t": 94664.86800000005,
      "d": 744.7775156250136,
      "v": 95
    },
    {
      "midi": 41,
      "hit": false,
      "t": 94664.86800000009,
      "d": 725.6806562500133,
      "v": 101
    },
    {
      "midi": 69,
      "hit": false,
      "t": 94664.86800000018,
      "d": 687.486937499998,
      "v": 95
    },
    {
      "midi": 60,
      "hit": false,
      "t": 94664.86800000025,
      "d": 267.3560312500049,
      "v": 86
    },
    {
      "midi": 65,
      "hit": false,
      "t": 94664.86800000025,
      "d": 286.45289062500524,
      "v": 85
    },
    {
      "midi": 69,
      "hit": false,
      "t": 94664.86800000025,
      "d": 305.5497500000056,
      "v": 94
    },
    {
      "midi": 53,
      "hit": false,
      "t": 94664.86800000025,
      "d": 324.64660937500594,
      "v": 89
    },
    {
      "midi": 89,
      "hit": false,
      "t": 94664.86800000057,
      "d": 343.7434687500063,
      "v": 68
    },
    {
      "midi": 77,
      "hit": false,
      "t": 94720.42250000057,
      "d": 343.7434687500063,
      "v": 68
    },
    {
      "midi": 81,
      "hit": false,
      "t": 94998.19500000057,
      "d": 133.67801562500244,
      "v": 64
    },
    {
      "midi": 69,
      "hit": false,
      "t": 95053.74950000057,
      "d": 133.67801562500244,
      "v": 64
    },
    {
      "midi": 62,
      "hit": false,
      "t": 95331.52200000006,
      "d": 477.42148437500873,
      "v": 64
    },
    {
      "midi": 71,
      "hit": false,
      "t": 95331.52200000006,
      "d": 670.1261562500149,
      "v": 66
    },
    {
      "midi": 67,
      "hit": false,
      "t": 95331.52200000006,
      "d": 1951.3518125000119,
      "v": 92
    },
    {
      "midi": 43,
      "hit": false,
      "t": 95331.5220000001,
      "d": 668.3900781250122,
      "v": 101
    },
    {
      "midi": 71,
      "hit": false,
      "t": 95331.52200000017,
      "d": 725.6806562500133,
      "v": 89
    },
    {
      "midi": 55,
      "hit": false,
      "t": 95331.52200000026,
      "d": 284.71681250000256,
      "v": 67
    },
    {
      "midi": 71,
      "hit": false,
      "t": 95331.52200000026,
      "d": 284.71681250000256,
      "v": 85
    },
    {
      "midi": 62,
      "hit": false,
      "t": 95331.52200000026,
      "d": 305.5497500000056,
      "v": 68
    },
    {
      "midi": 67,
      "hit": false,
      "t": 95331.52200000026,
      "d": 324.64660937500594,
      "v": 82
    },
    {
      "midi": 91,
      "hit": false,
      "t": 95331.52200000058,
      "d": 305.5497500000056,
      "v": 72
    },
    {
      "midi": 79,
      "hit": false,
      "t": 95387.07650000058,
      "d": 305.5497500000056,
      "v": 72
    },
    {
      "midi": 83,
      "hit": false,
      "t": 95664.84900000058,
      "d": 131.94193749999977,
      "v": 74
    },
    {
      "midi": 71,
      "hit": false,
      "t": 95720.40350000058,
      "d": 131.94193749999977,
      "v": 74
    },
    {
      "midi": 72,
      "hit": false,
      "t": 95998.17600000006,
      "d": 611.0995000000112,
      "v": 80
    },
    {
      "midi": 64,
      "hit": false,
      "t": 95998.17600000006,
      "d": 1298.5864375000092,
      "v": 92
    },
    {
      "midi": 36,
      "hit": false,
      "t": 95998.17600000011,
      "d": 1357.6130937499984,
      "v": 97
    },
    {
      "midi": 72,
      "hit": false,
      "t": 95998.17600000018,
      "d": 649.2932187499973,
      "v": 95
    },
    {
      "midi": 67,
      "hit": false,
      "t": 95998.17600000027,
      "d": 171.87173437500314,
      "v": 85
    },
    {
      "midi": 72,
      "hit": false,
      "t": 95998.17600000027,
      "d": 190.9685937500035,
      "v": 95
    },
    {
      "midi": 64,
      "hit": false,
      "t": 95998.17600000027,
      "d": 763.874375000014,
      "v": 97
    },
    {
      "midi": 48,
      "hit": false,
      "t": 95998.17600000027,
      "d": 782.9712343750143,
      "v": 92
    },
    {
      "midi": 88,
      "hit": false,
      "t": 95998.17600000059,
      "d": 133.67801562500244,
      "v": 74
    },
    {
      "midi": 76,
      "hit": false,
      "t": 96053.73050000059,
      "d": 133.67801562500244,
      "v": 74
    },
    {
      "midi": 79,
      "hit": false,
      "t": 96331.5030000006,
      "d": 246.52309375000186,
      "v": 59
    },
    {
      "midi": 67,
      "hit": false,
      "t": 96387.05750000059,
      "d": 246.52309375000186,
      "v": 59
    },
    {
      "midi": 60,
      "hit": false,
      "t": 96664.83000000007,
      "d": 496.51834374999453,
      "v": 94
    },
    {
      "midi": 67,
      "hit": false,
      "t": 96664.83000000018,
      "d": 687.486937499998,
      "v": 94
    },
    {
      "midi": 67,
      "hit": false,
      "t": 96664.83000000028,
      "d": 112.84507812499942,
      "v": 77
    },
    {
      "midi": 84,
      "hit": false,
      "t": 96664.8300000006,
      "d": 131.94193749999977,
      "v": 71
    },
    {
      "midi": 72,
      "hit": false,
      "t": 96720.3845000006,
      "d": 131.94193749999977,
      "v": 71
    },
    {
      "midi": 88,
      "hit": false,
      "t": 96998.1570000006,
      "d": 95.48429687500175,
      "v": 67
    },
    {
      "midi": 76,
      "hit": false,
      "t": 97053.7115000006,
      "d": 95.48429687500175,
      "v": 67
    },
    {
      "midi": 57,
      "hit": false,
      "t": 97331.48400000007,
      "d": 571.1697031249932,
      "v": 86
    },
    {
      "midi": 55,
      "hit": false,
      "t": 97331.48400000007,
      "d": 592.0026406249963,
      "v": 56
    },
    {
      "midi": 65,
      "hit": false,
      "t": 97331.48400000007,
      "d": 647.5571406249946,
      "v": 82
    },
    {
      "midi": 62,
      "hit": false,
      "t": 97331.48400000007,
      "d": 687.486937499998,
      "v": 65
    },
    {
      "midi": 31,
      "hit": false,
      "t": 97331.48400000011,
      "d": 668.3900781249977,
      "v": 103
    },
    {
      "midi": 65,
      "hit": false,
      "t": 97331.48400000017,
      "d": 666.6540000000095,
      "v": 91
    },
    {
      "midi": 62,
      "hit": false,
      "t": 97331.48400000029,
      "d": 210.06545312500384,
      "v": 82
    },
    {
      "midi": 55,
      "hit": false,
      "t": 97331.48400000029,
      "d": 248.25917187500454,
      "v": 68
    },
    {
      "midi": 59,
      "hit": false,
      "t": 97331.48400000029,
      "d": 248.25917187500454,
      "v": 85
    },
    {
      "midi": 65,
      "hit": false,
      "t": 97331.48400000029,
      "d": 267.3560312500049,
      "v": 77
    },
    {
      "midi": 89,
      "hit": false,
      "t": 97331.48400000061,
      "d": 131.94193749999977,
      "v": 79
    },
    {
      "midi": 77,
      "hit": false,
      "t": 97387.0385000006,
      "d": 131.94193749999977,
      "v": 79
    },
    {
      "midi": 83,
      "hit": false,
      "t": 97664.81100000061,
      "d": 114.5811562500021,
      "v": 66
    },
    {
      "midi": 71,
      "hit": false,
      "t": 97720.36550000061,
      "d": 114.5811562500021,
      "v": 66
    },
    {
      "midi": 55,
      "hit": false,
      "t": 97998.13800000006,
      "d": 1243.0319374999963,
      "v": 70
    },
    {
      "midi": 60,
      "hit": false,
      "t": 97998.13800000006,
      "d": 1355.8770156249957,
      "v": 80
    },
    {
      "midi": 64,
      "hit": false,
      "t": 97998.13800000006,
      "d": 4069.3671250000043,
      "v": 94
    },
    {
      "midi": 36,
      "hit": false,
      "t": 97998.13800000011,
      "d": 1031.2304062500043,
      "v": 99
    },
    {
      "midi": 64,
      "hit": false,
      "t": 97998.13800000018,
      "d": 1184.005281250007,
      "v": 103
    },
    {
      "midi": 60,
      "hit": false,
      "t": 97998.1380000003,
      "d": 770.8186874999956,
      "v": 85
    },
    {
      "midi": 55,
      "hit": false,
      "t": 97998.1380000003,
      "d": 866.3029843749973,
      "v": 71
    },
    {
      "midi": 64,
      "hit": false,
      "t": 97998.1380000003,
      "d": 866.3029843749973,
      "v": 95
    },
    {
      "midi": 48,
      "hit": false,
      "t": 97998.1380000003,
      "d": 923.5935624999984,
      "v": 83
    },
    {
      "midi": 88,
      "hit": false,
      "t": 97998.13800000062,
      "d": 152.7748750000028,
      "v": 83
    },
    {
      "midi": 76,
      "hit": false,
      "t": 98053.69250000062,
      "d": 152.7748750000028,
      "v": 83
    },
    {
      "midi": 79,
      "hit": false,
      "t": 98331.46500000062,
      "d": 305.5497500000056,
      "v": 60
    },
    {
      "midi": 67,
      "hit": false,
      "t": 98387.01950000062,
      "d": 305.5497500000056,
      "v": 60
    },
    {
      "midi": 84,
      "hit": false,
      "t": 98664.79200000063,
      "d": 305.5497500000056,
      "v": 64
    },
    {
      "midi": 72,
      "hit": false,
      "t": 98720.34650000063,
      "d": 305.5497500000056,
      "v": 64
    },
    {
      "midi": 88,
      "hit": false,
      "t": 98998.11900000063,
      "d": 133.67801562500244,
      "v": 58
    },
    {
      "midi": 76,
      "hit": false,
      "t": 99053.67350000063,
      "d": 133.67801562500244,
      "v": 58
    },
    {
      "midi": 53,
      "hit": false,
      "t": 99331.44600000005,
      "d": 590.2665625000081,
      "v": 88
    },
    {
      "midi": 59,
      "hit": false,
      "t": 99331.44600000005,
      "d": 706.5837968750129,
      "v": 105
    },
    {
      "midi": 31,
      "hit": false,
      "t": 99331.44600000011,
      "d": 725.6806562499987,
      "v": 95
    },
    {
      "midi": 64,
      "hit": false,
      "t": 99331.44600000019,
      "d": 342.0073906250036,
      "v": 109
    },
    {
      "midi": 43,
      "hit": false,
      "t": 99331.4460000003,
      "d": 229.1623125000042,
      "v": 77
    },
    {
      "midi": 64,
      "hit": false,
      "t": 99331.4460000003,
      "d": 284.71681250000256,
      "v": 103
    },
    {
      "midi": 59,
      "hit": false,
      "t": 99331.4460000003,
      "d": 361.10425000000396,
      "v": 103
    },
    {
      "midi": 53,
      "hit": false,
      "t": 99331.4460000003,
      "d": 458.3246250000084,
      "v": 86
    },
    {
      "midi": 86,
      "hit": false,
      "t": 99331.44600000064,
      "d": 343.7434687500063,
      "v": 30
    },
    {
      "midi": 74,
      "hit": false,
      "t": 99387.00050000063,
      "d": 343.7434687500063,
      "v": 30
    },
    {
      "midi": 62,
      "hit": false,
      "t": 99664.77300000019,
      "d": 361.10425000000396,
      "v": 82
    },
    {
      "midi": 62,
      "hit": false,
      "t": 99664.7730000003,
      "d": 76.3874375000014,
      "v": 83
    },
    {
      "midi": 83,
      "hit": false,
      "t": 99664.77300000064,
      "d": 114.5811562500021,
      "v": 60
    },
    {
      "midi": 71,
      "hit": false,
      "t": 99720.32750000064,
      "d": 114.5811562500021,
      "v": 60
    },
    {
      "midi": 60,
      "hit": false,
      "t": 99998.10000000006,
      "d": 1814.201640625004,
      "v": 72
    },
    {
      "midi": 55,
      "hit": false,
      "t": 99998.10000000006,
      "d": 1833.2985000000044,
      "v": 82
    },
    {
      "midi": 36,
      "hit": false,
      "t": 99998.10000000011,
      "d": 1565.9424687499995,
      "v": 97
    },
    {
      "midi": 60,
      "hit": false,
      "t": 99998.1000000002,
      "d": 1012.133546875004,
      "v": 99
    },
    {
      "midi": 55,
      "hit": false,
      "t": 99998.10000000031,
      "d": 418.394828125005,
      "v": 70
    },
    {
      "midi": 52,
      "hit": false,
      "t": 99998.10000000031,
      "d": 590.2665625000081,
      "v": 79
    },
    {
      "midi": 60,
      "hit": false,
      "t": 99998.10000000031,
      "d": 993.0366875000036,
      "v": 101
    },
    {
      "midi": 48,
      "hit": false,
      "t": 99998.10000000031,
      "d": 1682.2597031249898,
      "v": 94
    },
    {
      "midi": 88,
      "hit": false,
      "t": 99998.10000000065,
      "d": 210.06545312500384,
      "v": 79
    },
    {
      "midi": 76,
      "hit": false,
      "t": 100053.65450000064,
      "d": 210.06545312500384,
      "v": 79
    },
    {
      "midi": 79,
      "hit": false,
      "t": 100331.42700000065,
      "d": 189.23251562500081,
      "v": 67
    },
    {
      "midi": 67,
      "hit": false,
      "t": 100386.98150000065,
      "d": 189.23251562500081,
      "v": 67
    },
    {
      "midi": 84,
      "hit": false,
      "t": 100664.75400000066,
      "d": 152.7748750000028,
      "v": 58
    },
    {
      "midi": 72,
      "hit": false,
      "t": 100720.30850000065,
      "d": 152.7748750000028,
      "v": 58
    },
    {
      "midi": 62,
      "hit": false,
      "t": 100998.0810000002,
      "d": 343.7434687500063,
      "v": 83
    },
    {
      "midi": 62,
      "hit": false,
      "t": 100998.08100000031,
      "d": 326.38268749999406,
      "v": 85
    },
    {
      "midi": 86,
      "hit": false,
      "t": 100998.08100000066,
      "d": 171.87173437500314,
      "v": 53
    },
    {
      "midi": 74,
      "hit": false,
      "t": 101053.63550000066,
      "d": 171.87173437500314,
      "v": 53
    },
    {
      "midi": 64,
      "hit": false,
      "t": 101331.4080000002,
      "d": 343.7434687500063,
      "v": 107
    },
    {
      "midi": 64,
      "hit": false,
      "t": 101331.4080000003,
      "d": 324.64660937500594,
      "v": 94
    },
    {
      "midi": 88,
      "hit": false,
      "t": 101331.40800000067,
      "d": 248.25917187500454,
      "v": 61
    },
    {
      "midi": 76,
      "hit": false,
      "t": 101386.96250000066,
      "d": 248.25917187500454,
      "v": 61
    },
    {
      "midi": 36,
      "hit": false,
      "t": 101664.7350000001,
      "d": 324.64660937500594,
      "v": 94
    },
    {
      "midi": 65,
      "hit": false,
      "t": 101664.7350000002,
      "d": 362.84032812500664,
      "v": 80
    },
    {
      "midi": 65,
      "hit": false,
      "t": 101664.7350000003,
      "d": 131.94193749999977,
      "v": 89
    },
    {
      "midi": 84,
      "hit": false,
      "t": 101664.73500000067,
      "d": 133.67801562500244,
      "v": 64
    },
    {
      "midi": 72,
      "hit": false,
      "t": 101720.28950000067,
      "d": 133.67801562500244,
      "v": 64
    },
    {
      "midi": 59,
      "hit": false,
      "t": 101998.06200000006,
      "d": 1814.201640625004,
      "v": 88
    },
    {
      "midi": 62,
      "hit": false,
      "t": 101998.06200000006,
      "d": 1854.1314375000075,
      "v": 71
    },
    {
      "midi": 67,
      "hit": false,
      "t": 101998.06200000006,
      "d": 1871.4922187500051,
      "v": 64
    },
    {
      "midi": 40,
      "hit": false,
      "t": 101998.0620000001,
      "d": 2043.3639531249937,
      "v": 95
    },
    {
      "midi": 67,
      "hit": false,
      "t": 101998.06200000021,
      "d": 1355.8770156250102,
      "v": 92
    },
    {
      "midi": 59,
      "hit": false,
      "t": 101998.06200000031,
      "d": 687.486937499998,
      "v": 99
    },
    {
      "midi": 62,
      "hit": false,
      "t": 101998.06200000031,
      "d": 920.121406249993,
      "v": 94
    },
    {
      "midi": 67,
      "hit": false,
      "t": 101998.06200000031,
      "d": 977.4119843749941,
      "v": 99
    },
    {
      "midi": 52,
      "hit": false,
      "t": 101998.06200000031,
      "d": 1760.3832187499938,
      "v": 95
    },
    {
      "midi": 86,
      "hit": false,
      "t": 101998.06200000067,
      "d": 171.87173437500314,
      "v": 66
    },
    {
      "midi": 74,
      "hit": false,
      "t": 102053.61650000067,
      "d": 171.87173437500314,
      "v": 66
    },
    {
      "midi": 79,
      "hit": false,
      "t": 102331.38900000068,
      "d": 190.9685937500035,
      "v": 70
    },
    {
      "midi": 67,
      "hit": false,
      "t": 102386.94350000068,
      "d": 190.9685937500035,
      "v": 70
    },
    {
      "midi": 83,
      "hit": false,
      "t": 102664.71600000068,
      "d": 131.94193749999977,
      "v": 77
    },
    {
      "midi": 71,
      "hit": false,
      "t": 102720.27050000068,
      "d": 131.94193749999977,
      "v": 77
    },
    {
      "midi": 86,
      "hit": false,
      "t": 102998.04300000069,
      "d": 189.23251562500081,
      "v": 55
    },
    {
      "midi": 74,
      "hit": false,
      "t": 103053.59750000069,
      "d": 189.23251562500081,
      "v": 55
    },
    {
      "midi": 72,
      "hit": false,
      "t": 103331.37000000021,
      "d": 326.3826875000086,
      "v": 103
    },
    {
      "midi": 72,
      "hit": false,
      "t": 103331.3700000003,
      "d": 284.71681250000256,
      "v": 94
    },
    {
      "midi": 91,
      "hit": false,
      "t": 103331.3700000007,
      "d": 284.71681250000256,
      "v": 68
    },
    {
      "midi": 79,
      "hit": false,
      "t": 103386.92450000069,
      "d": 284.71681250000256,
      "v": 68
    },
    {
      "midi": 71,
      "hit": false,
      "t": 103664.69700000022,
      "d": 343.7434687500063,
      "v": 92
    },
    {
      "midi": 71,
      "hit": false,
      "t": 103664.6970000003,
      "d": 95.48429687500175,
      "v": 89
    },
    {
      "midi": 83,
      "hit": false,
      "t": 103664.6970000007,
      "d": 114.5811562500021,
      "v": 74
    },
    {
      "midi": 71,
      "hit": false,
      "t": 103720.2515000007,
      "d": 114.5811562500021,
      "v": 74
    },
    {
      "midi": 67,
      "hit": false,
      "t": 103998.02400000006,
      "d": 687.486937499998,
      "v": 70
    },
    {
      "midi": 69,
      "hit": false,
      "t": 103998.02400000006,
      "d": 1947.879656249992,
      "v": 77
    },
    {
      "midi": 60,
      "hit": false,
      "t": 103998.02400000006,
      "d": 3897.495390624972,
      "v": 74
    },
    {
      "midi": 29,
      "hit": false,
      "t": 103998.0240000001,
      "d": 1279.4895781249943,
      "v": 101
    },
    {
      "midi": 69,
      "hit": false,
      "t": 103998.02400000022,
      "d": 1241.2958593750081,
      "v": 95
    },
    {
      "midi": 67,
      "hit": false,
      "t": 103998.02400000031,
      "d": 687.486937499998,
      "v": 101
    },
    {
      "midi": 69,
      "hit": false,
      "t": 103998.02400000031,
      "d": 1013.8696249999921,
      "v": 94
    },
    {
      "midi": 60,
      "hit": false,
      "t": 103998.02400000031,
      "d": 1451.3613124999974,
      "v": 83
    },
    {
      "midi": 53,
      "hit": false,
      "t": 103998.02400000031,
      "d": 1470.4581718749978,
      "v": 83
    },
    {
      "midi": 89,
      "hit": false,
      "t": 103998.0240000007,
      "d": 190.9685937500035,
      "v": 66
    },
    {
      "midi": 77,
      "hit": false,
      "t": 104053.5785000007,
      "d": 190.9685937500035,
      "v": 66
    },
    {
      "midi": 81,
      "hit": false,
      "t": 104331.35100000071,
      "d": 229.1623125000042,
      "v": 62
    },
    {
      "midi": 69,
      "hit": false,
      "t": 104386.9055000007,
      "d": 229.1623125000042,
      "v": 62
    },
    {
      "midi": 65,
      "hit": false,
      "t": 104664.67800000006,
      "d": 2006.9063124999811,
      "v": 86
    },
    {
      "midi": 65,
      "hit": false,
      "t": 104664.6780000003,
      "d": 362.8403281249921,
      "v": 77
    },
    {
      "midi": 84,
      "hit": false,
      "t": 104664.67800000071,
      "d": 189.23251562500081,
      "v": 64
    },
    {
      "midi": 72,
      "hit": false,
      "t": 104720.23250000071,
      "d": 189.23251562500081,
      "v": 64
    },
    {
      "midi": 89,
      "hit": false,
      "t": 104998.00500000072,
      "d": 190.9685937500035,
      "v": 75
    },
    {
      "midi": 77,
      "hit": false,
      "t": 105053.55950000072,
      "d": 190.9685937500035,
      "v": 75
    },
    {
      "midi": 29,
      "hit": false,
      "t": 105331.3320000001,
      "d": 668.3900781249977,
      "v": 99
    },
    {
      "midi": 69,
      "hit": false,
      "t": 105331.33200000023,
      "d": 670.1261562500003,
      "v": 95
    },
    {
      "midi": 69,
      "hit": false,
      "t": 105331.3320000003,
      "d": 95.48429687500175,
      "v": 94
    },
    {
      "midi": 65,
      "hit": false,
      "t": 105331.3320000003,
      "d": 131.94193750001432,
      "v": 85
    },
    {
      "midi": 81,
      "hit": false,
      "t": 105331.33200000072,
      "d": 229.1623125000042,
      "v": 71
    },
    {
      "midi": 69,
      "hit": false,
      "t": 105386.88650000072,
      "d": 229.1623125000042,
      "v": 71
    },
    {
      "midi": 84,
      "hit": false,
      "t": 105664.65900000073,
      "d": 157.98310937499627,
      "v": 58
    },
    {
      "midi": 72,
      "hit": false,
      "t": 105720.21350000073,
      "d": 157.98310937499627,
      "v": 58
    },
    {
      "midi": 67,
      "hit": false,
      "t": 105997.98600000005,
      "d": 1909.6859374999913,
      "v": 85
    },
    {
      "midi": 36,
      "hit": false,
      "t": 105997.98600000009,
      "d": 1338.516234374998,
      "v": 107
    },
    {
      "midi": 67,
      "hit": false,
      "t": 105997.98600000022,
      "d": 1814.201640625004,
      "v": 99
    },
    {
      "midi": 65,
      "hit": false,
      "t": 105997.98600000031,
      "d": 706.5837968750129,
      "v": 92
    },
    {
      "midi": 48,
      "hit": false,
      "t": 105997.98600000031,
      "d": 1432.2644531250262,
      "v": 80
    },
    {
      "midi": 60,
      "hit": false,
      "t": 105997.98600000031,
      "d": 1432.2644531250262,
      "v": 83
    },
    {
      "midi": 67,
      "hit": false,
      "t": 105997.98600000031,
      "d": 1472.194250000015,
      "v": 91
    },
    {
      "midi": 88,
      "hit": false,
      "t": 105997.98600000072,
      "d": 305.5497500000056,
      "v": 75
    },
    {
      "midi": 76,
      "hit": false,
      "t": 106053.54050000072,
      "d": 305.5497500000056,
      "v": 75
    },
    {
      "midi": 79,
      "hit": false,
      "t": 106331.31300000072,
      "d": 152.7748750000028,
      "v": 66
    },
    {
      "midi": 67,
      "hit": false,
      "t": 106386.86750000072,
      "d": 152.7748750000028,
      "v": 66
    },
    {
      "midi": 64,
      "hit": false,
      "t": 106664.64000000004,
      "d": 1222.1989999999932,
      "v": 92
    },
    {
      "midi": 64,
      "hit": false,
      "t": 106664.64000000032,
      "d": 496.5183437500091,
      "v": 86
    },
    {
      "midi": 84,
      "hit": false,
      "t": 106664.64000000073,
      "d": 131.94193749999977,
      "v": 65
    },
    {
      "midi": 72,
      "hit": false,
      "t": 106720.19450000073,
      "d": 131.94193749999977,
      "v": 65
    },
    {
      "midi": 86,
      "hit": false,
      "t": 106997.96700000073,
      "d": 229.1623125000042,
      "v": 58
    },
    {
      "midi": 74,
      "hit": false,
      "t": 107053.52150000073,
      "d": 229.1623125000042,
      "v": 58
    },
    {
      "midi": 35,
      "hit": false,
      "t": 107331.2940000001,
      "d": 687.486937499998,
      "v": 103
    },
    {
      "midi": 62,
      "hit": false,
      "t": 107331.29400000033,
      "d": 114.5811562500021,
      "v": 74
    },
    {
      "midi": 88,
      "hit": false,
      "t": 107331.29400000074,
      "d": 265.6199531250022,
      "v": 67
    },
    {
      "midi": 76,
      "hit": false,
      "t": 107386.84850000073,
      "d": 265.6199531250022,
      "v": 67
    },
    {
      "midi": 84,
      "hit": false,
      "t": 107664.62100000074,
      "d": 76.3874375000014,
      "v": 54
    },
    {
      "midi": 72,
      "hit": false,
      "t": 107720.17550000074,
      "d": 76.3874375000014,
      "v": 54
    },
    {
      "midi": 60,
      "hit": false,
      "t": 107997.94800000003,
      "d": 572.9057812499959,
      "v": 79
    },
    {
      "midi": 57,
      "hit": false,
      "t": 107997.94800000003,
      "d": 590.2665624999936,
      "v": 80
    },
    {
      "midi": 64,
      "hit": false,
      "t": 107997.94800000003,
      "d": 708.319875000001,
      "v": 91
    },
    {
      "midi": 33,
      "hit": false,
      "t": 107997.94800000009,
      "d": 668.3900781250122,
      "v": 97
    },
    {
      "midi": 72,
      "hit": false,
      "t": 107997.94800000022,
      "d": 666.653999999995,
      "v": 99
    },
    {
      "midi": 72,
      "hit": false,
      "t": 107997.94800000032,
      "d": 229.1623125000042,
      "v": 103
    },
    {
      "midi": 64,
      "hit": false,
      "t": 107997.94800000032,
      "d": 286.45289062500524,
      "v": 103
    },
    {
      "midi": 69,
      "hit": false,
      "t": 107997.94800000032,
      "d": 286.45289062500524,
      "v": 95
    },
    {
      "midi": 57,
      "hit": false,
      "t": 107997.94800000032,
      "d": 420.1309062500077,
      "v": 97
    },
    {
      "midi": 88,
      "hit": false,
      "t": 107997.94800000075,
      "d": 267.3560312500049,
      "v": 67
    },
    {
      "midi": 76,
      "hit": false,
      "t": 108053.50250000074,
      "d": 267.3560312500049,
      "v": 67
    },
    {
      "midi": 81,
      "hit": false,
      "t": 108331.27500000075,
      "d": 190.9685937500035,
      "v": 70
    },
    {
      "midi": 69,
      "hit": false,
      "t": 108386.82950000075,
      "d": 190.9685937500035,
      "v": 70
    },
    {
      "midi": 59,
      "hit": false,
      "t": 108664.60200000003,
      "d": 439.22776562500803,
      "v": 86
    },
    {
      "midi": 55,
      "hit": false,
      "t": 108664.60200000003,
      "d": 572.9057812500105,
      "v": 68
    },
    {
      "midi": 62,
      "hit": false,
      "t": 108664.60200000003,
      "d": 687.4869375000126,
      "v": 80
    },
    {
      "midi": 31,
      "hit": false,
      "t": 108664.6020000001,
      "d": 687.4869375000126,
      "v": 88
    },
    {
      "midi": 71,
      "hit": false,
      "t": 108664.60200000022,
      "d": 725.6806562499987,
      "v": 97
    },
    {
      "midi": 67,
      "hit": false,
      "t": 108664.60200000033,
      "d": 229.1623125000042,
      "v": 95
    },
    {
      "midi": 55,
      "hit": false,
      "t": 108664.60200000033,
      "d": 248.25917187500454,
      "v": 77
    },
    {
      "midi": 71,
      "hit": false,
      "t": 108664.60200000033,
      "d": 248.25917187500454,
      "v": 92
    },
    {
      "midi": 62,
      "hit": false,
      "t": 108664.60200000033,
      "d": 324.64660937500594,
      "v": 72
    },
    {
      "midi": 86,
      "hit": false,
      "t": 108664.60200000076,
      "d": 324.64660937500594,
      "v": 60
    },
    {
      "midi": 74,
      "hit": false,
      "t": 108720.15650000075,
      "d": 324.64660937500594,
      "v": 60
    },
    {
      "midi": 83,
      "hit": false,
      "t": 108997.92900000076,
      "d": 152.7748750000028,
      "v": 74
    },
    {
      "midi": 71,
      "hit": false,
      "t": 109053.48350000076,
      "d": 152.7748750000028,
      "v": 74
    },
    {
      "midi": 57,
      "hit": false,
      "t": 109331.25600000004,
      "d": 513.8791250000068,
      "v": 77
    },
    {
      "midi": 65,
      "hit": false,
      "t": 109331.25600000004,
      "d": 666.6540000000095,
      "v": 79
    },
    {
      "midi": 60,
      "hit": false,
      "t": 109331.25600000004,
      "d": 1833.2985000000044,
      "v": 83
    },
    {
      "midi": 29,
      "hit": false,
      "t": 109331.25600000011,
      "d": 687.4869375000126,
      "v": 91
    },
    {
      "midi": 69,
      "hit": false,
      "t": 109331.25600000021,
      "d": 649.2932187499973,
      "v": 97
    },
    {
      "midi": 65,
      "hit": false,
      "t": 109331.25600000034,
      "d": 265.6199531250022,
      "v": 92
    },
    {
      "midi": 53,
      "hit": false,
      "t": 109331.25600000034,
      "d": 286.45289062500524,
      "v": 89
    },
    {
      "midi": 69,
      "hit": false,
      "t": 109331.25600000034,
      "d": 305.5497500000056,
      "v": 91
    },
    {
      "midi": 60,
      "hit": false,
      "t": 109331.25600000034,
      "d": 342.0073906250036,
      "v": 85
    },
    {
      "midi": 89,
      "hit": false,
      "t": 109331.25600000077,
      "d": 305.5497500000056,
      "v": 56
    },
    {
      "midi": 77,
      "hit": false,
      "t": 109386.81050000076,
      "d": 305.5497500000056,
      "v": 56
    },
    {
      "midi": 84,
      "hit": false,
      "t": 109664.58300000077,
      "d": 171.87173437500314,
      "v": 67
    },
    {
      "midi": 72,
      "hit": false,
      "t": 109720.13750000077,
      "d": 171.87173437500314,
      "v": 67
    },
    {
      "midi": 64,
      "hit": false,
      "t": 109997.91000000005,
      "d": 631.9324374999997,
      "v": 105
    },
    {
      "midi": 67,
      "hit": false,
      "t": 109997.91000000005,
      "d": 725.6806562499987,
      "v": 71
    },
    {
      "midi": 36,
      "hit": false,
      "t": 109997.91000000012,
      "d": 631.9324374999997,
      "v": 97
    },
    {
      "midi": 67,
      "hit": false,
      "t": 109997.9100000002,
      "d": 706.5837968749984,
      "v": 103
    },
    {
      "midi": 48,
      "hit": false,
      "t": 109997.91000000035,
      "d": 248.25917187500454,
      "v": 88
    },
    {
      "midi": 60,
      "hit": false,
      "t": 109997.91000000035,
      "d": 248.25917187500454,
      "v": 77
    },
    {
      "midi": 64,
      "hit": false,
      "t": 109997.91000000035,
      "d": 267.3560312500049,
      "v": 95
    },
    {
      "midi": 67,
      "hit": false,
      "t": 109997.91000000035,
      "d": 267.3560312500049,
      "v": 86
    },
    {
      "midi": 88,
      "hit": false,
      "t": 109997.91000000077,
      "d": 152.7748750000028,
      "v": 56
    },
    {
      "midi": 76,
      "hit": false,
      "t": 110053.46450000077,
      "d": 152.7748750000028,
      "v": 56
    },
    {
      "midi": 84,
      "hit": false,
      "t": 110331.23700000078,
      "d": 93.74821874999907,
      "v": 77
    },
    {
      "midi": 72,
      "hit": false,
      "t": 110386.79150000078,
      "d": 93.74821874999907,
      "v": 77
    },
    {
      "midi": 69,
      "hit": false,
      "t": 110664.56400000004,
      "d": 706.5837968749984,
      "v": 82
    },
    {
      "midi": 65,
      "hit": false,
      "t": 110664.56400000004,
      "d": 1241.2958593750081,
      "v": 70
    },
    {
      "midi": 29,
      "hit": false,
      "t": 110664.56400000011,
      "d": 690.9590937499888,
      "v": 89
    },
    {
      "midi": 69,
      "hit": false,
      "t": 110664.5640000002,
      "d": 687.4869375000126,
      "v": 97
    },
    {
      "midi": 60,
      "hit": false,
      "t": 110664.56400000036,
      "d": 286.45289062500524,
      "v": 85
    },
    {
      "midi": 69,
      "hit": false,
      "t": 110664.56400000036,
      "d": 286.45289062500524,
      "v": 83
    },
    {
      "midi": 65,
      "hit": false,
      "t": 110664.56400000036,
      "d": 324.64660937500594,
      "v": 83
    },
    {
      "midi": 53,
      "hit": false,
      "t": 110664.56400000036,
      "d": 343.7434687500063,
      "v": 95
    },
    {
      "midi": 89,
      "hit": false,
      "t": 110664.56400000078,
      "d": 190.9685937500035,
      "v": 80
    },
    {
      "midi": 77,
      "hit": false,
      "t": 110720.11850000078,
      "d": 190.9685937500035,
      "v": 80
    },
    {
      "midi": 84,
      "hit": false,
      "t": 110997.89100000079,
      "d": 152.7748750000028,
      "v": 58
    },
    {
      "midi": 72,
      "hit": false,
      "t": 111053.44550000079,
      "d": 152.7748750000028,
      "v": 58
    },
    {
      "midi": 62,
      "hit": false,
      "t": 111331.21800000004,
      "d": 553.8089218750101,
      "v": 66
    },
    {
      "midi": 71,
      "hit": false,
      "t": 111331.21800000004,
      "d": 744.7775156250136,
      "v": 75
    },
    {
      "midi": 31,
      "hit": false,
      "t": 111331.21800000011,
      "d": 687.486937499998,
      "v": 94
    },
    {
      "midi": 71,
      "hit": false,
      "t": 111331.21800000021,
      "d": 666.6540000000095,
      "v": 94
    },
    {
      "midi": 55,
      "hit": false,
      "t": 111331.21800000037,
      "d": 229.1623125000042,
      "v": 85
    },
    {
      "midi": 65,
      "hit": false,
      "t": 111331.21800000037,
      "d": 248.25917187500454,
      "v": 89
    },
    {
      "midi": 62,
      "hit": false,
      "t": 111331.21800000037,
      "d": 265.6199531250022,
      "v": 71
    },
    {
      "midi": 71,
      "hit": false,
      "t": 111331.21800000037,
      "d": 265.6199531250022,
      "v": 86
    },
    {
      "midi": 86,
      "hit": false,
      "t": 111331.2180000008,
      "d": 131.94193749999977,
      "v": 57
    },
    {
      "midi": 74,
      "hit": false,
      "t": 111386.77250000079,
      "d": 131.94193749999977,
      "v": 57
    },
    {
      "midi": 83,
      "hit": false,
      "t": 111664.5450000008,
      "d": 171.87173437500314,
      "v": 49
    },
    {
      "midi": 71,
      "hit": false,
      "t": 111720.0995000008,
      "d": 171.87173437500314,
      "v": 49
    },
    {
      "midi": 67,
      "hit": false,
      "t": 111997.87200000005,
      "d": 343.7434687500063,
      "v": 57
    },
    {
      "midi": 72,
      "hit": false,
      "t": 111997.87200000005,
      "d": 687.4869375000126,
      "v": 80
    },
    {
      "midi": 64,
      "hit": false,
      "t": 111997.87200000005,
      "d": 1048.5911875000165,
      "v": 79
    },
    {
      "midi": 36,
      "hit": false,
      "t": 111997.8720000001,
      "d": 1338.516234374998,
      "v": 97
    },
    {
      "midi": 72,
      "hit": false,
      "t": 111997.87200000022,
      "d": 687.486937499998,
      "v": 97
    },
    {
      "midi": 67,
      "hit": false,
      "t": 111997.87200000037,
      "d": 229.1623125000042,
      "v": 86
    },
    {
      "midi": 72,
      "hit": false,
      "t": 111997.87200000037,
      "d": 229.1623125000042,
      "v": 99
    },
    {
      "midi": 48,
      "hit": false,
      "t": 111997.87200000037,
      "d": 729.1528125000041,
      "v": 89
    },
    {
      "midi": 64,
      "hit": false,
      "t": 111997.87200000037,
      "d": 749.9857500000071,
      "v": 94
    },
    {
      "midi": 88,
      "hit": false,
      "t": 111997.8720000008,
      "d": 248.25917187500454,
      "v": 66
    },
    {
      "midi": 76,
      "hit": false,
      "t": 112053.4265000008,
      "d": 248.25917187500454,
      "v": 66
    },
    {
      "midi": 79,
      "hit": false,
      "t": 112331.19900000081,
      "d": 171.87173437500314,
      "v": 59
    },
    {
      "midi": 67,
      "hit": false,
      "t": 112386.7535000008,
      "d": 171.87173437500314,
      "v": 59
    },
    {
      "midi": 67,
      "hit": false,
      "t": 112664.52600000006,
      "d": 649.2932187500119,
      "v": 91
    },
    {
      "midi": 67,
      "hit": false,
      "t": 112664.52600000022,
      "d": 706.5837968750129,
      "v": 92
    },
    {
      "midi": 67,
      "hit": false,
      "t": 112664.52600000038,
      "d": 131.94193749999977,
      "v": 85
    },
    {
      "midi": 84,
      "hit": false,
      "t": 112664.52600000081,
      "d": 152.7748750000028,
      "v": 59
    },
    {
      "midi": 72,
      "hit": false,
      "t": 112720.08050000081,
      "d": 152.7748750000028,
      "v": 59
    },
    {
      "midi": 88,
      "hit": false,
      "t": 112997.85300000082,
      "d": 133.67801562500244,
      "v": 72
    },
    {
      "midi": 76,
      "hit": false,
      "t": 113053.40750000082,
      "d": 133.67801562500244,
      "v": 72
    },
    {
      "midi": 57,
      "hit": false,
      "t": 113331.18000000007,
      "d": 553.8089218749956,
      "v": 85
    },
    {
      "midi": 65,
      "hit": false,
      "t": 113331.18000000007,
      "d": 670.1261562500003,
      "v": 82
    },
    {
      "midi": 60,
      "hit": false,
      "t": 113331.18000000007,
      "d": 2520.7854375000024,
      "v": 65
    },
    {
      "midi": 31,
      "hit": false,
      "t": 113331.18000000011,
      "d": 687.486937499998,
      "v": 91
    },
    {
      "midi": 65,
      "hit": false,
      "t": 113331.18000000023,
      "d": 630.196359374997,
      "v": 82
    },
    {
      "midi": 53,
      "hit": false,
      "t": 113331.18000000037,
      "d": 208.32937500000116,
      "v": 79
    },
    {
      "midi": 65,
      "hit": false,
      "t": 113331.18000000037,
      "d": 248.25917187500454,
      "v": 92
    },
    {
      "midi": 57,
      "hit": false,
      "t": 113331.18000000037,
      "d": 284.71681250000256,
      "v": 83
    },
    {
      "midi": 60,
      "hit": false,
      "t": 113331.18000000037,
      "d": 305.5497500000056,
      "v": 99
    },
    {
      "midi": 89,
      "hit": false,
      "t": 113331.18000000082,
      "d": 284.71681250000256,
      "v": 62
    },
    {
      "midi": 77,
      "hit": false,
      "t": 113386.73450000082,
      "d": 284.71681250000256,
      "v": 62
    },
    {
      "midi": 81,
      "hit": false,
      "t": 113664.50700000083,
      "d": 112.84507812499942,
      "v": 60
    },
    {
      "midi": 69,
      "hit": false,
      "t": 113720.06150000083,
      "d": 112.84507812499942,
      "v": 60
    },
    {
      "midi": 55,
      "hit": false,
      "t": 113997.83400000006,
      "d": 1852.3953593750048,
      "v": 57
    },
    {
      "midi": 64,
      "hit": false,
      "t": 113997.83400000006,
      "d": 1852.3953593750048,
      "v": 99
    },
    {
      "midi": 36,
      "hit": false,
      "t": 113997.8340000001,
      "d": 1814.201640625004,
      "v": 99
    },
    {
      "midi": 64,
      "hit": false,
      "t": 113997.83400000022,
      "d": 1413.1675937499967,
      "v": 97
    },
    {
      "midi": 64,
      "hit": false,
      "t": 113997.83400000038,
      "d": 1720.453421875005,
      "v": 103
    },
    {
      "midi": 60,
      "hit": false,
      "t": 113997.83400000038,
      "d": 1737.8142031250027,
      "v": 97
    },
    {
      "midi": 55,
      "hit": false,
      "t": 113997.83400000038,
      "d": 1756.911062500003,
      "v": 79
    },
    {
      "midi": 48,
      "hit": false,
      "t": 113997.83400000038,
      "d": 1796.8408593750064,
      "v": 82
    },
    {
      "midi": 88,
      "hit": false,
      "t": 113997.83400000083,
      "d": 170.13565625000047,
      "v": 75
    },
    {
      "midi": 76,
      "hit": false,
      "t": 114053.38850000083,
      "d": 170.13565625000047,
      "v": 75
    },
    {
      "midi": 79,
      "hit": false,
      "t": 114331.16100000084,
      "d": 267.3560312500049,
      "v": 65
    },
    {
      "midi": 67,
      "hit": false,
      "t": 114386.71550000084,
      "d": 267.3560312500049,
      "v": 65
    },
    {
      "midi": 84,
      "hit": false,
      "t": 114664.48800000084,
      "d": 114.5811562500021,
      "v": 60
    },
    {
      "midi": 72,
      "hit": false,
      "t": 114720.04250000084,
      "d": 114.5811562500021,
      "v": 60
    },
    {
      "midi": 88,
      "hit": false,
      "t": 114997.81500000085,
      "d": 171.87173437500314,
      "v": 66
    },
    {
      "midi": 76,
      "hit": false,
      "t": 115053.36950000084,
      "d": 171.87173437500314,
      "v": 66
    },
    {
      "midi": 91,
      "hit": false,
      "t": 115331.14200000085,
      "d": 133.67801562500244,
      "v": 60
    },
    {
      "midi": 79,
      "hit": false,
      "t": 115386.69650000085,
      "d": 133.67801562500244,
      "v": 60
    },
    {
      "midi": 84,
      "hit": false,
      "t": 115664.46900000086,
      "d": 95.48429687500175,
      "v": 82
    },
    {
      "midi": 72,
      "hit": false,
      "t": 115720.02350000085,
      "d": 95.48429687500175,
      "v": 82
    },
    {
      "midi": 84,
      "hit": false,
      "t": 115963.07443750006,
      "d": 708.3198749999865,
      "v": 109
    },
    {
      "midi": 60,
      "hit": false,
      "t": 115997.79600000006,
      "d": 572.9057812499959,
      "v": 79
    },
    {
      "midi": 57,
      "hit": false,
      "t": 115997.79600000006,
      "d": 590.2665624999936,
      "v": 80
    },
    {
      "midi": 64,
      "hit": false,
      "t": 115997.79600000006,
      "d": 708.3198749999865,
      "v": 91
    },
    {
      "midi": 33,
      "hit": false,
      "t": 115997.7960000001,
      "d": 668.3900781249977,
      "v": 97
    },
    {
      "midi": 72,
      "hit": false,
      "t": 115997.79600000038,
      "d": 229.1623125000042,
      "v": 103
    },
    {
      "midi": 64,
      "hit": false,
      "t": 115997.79600000038,
      "d": 286.45289062500524,
      "v": 103
    },
    {
      "midi": 69,
      "hit": false,
      "t": 115997.79600000038,
      "d": 286.45289062500524,
      "v": 95
    },
    {
      "midi": 57,
      "hit": false,
      "t": 115997.79600000038,
      "d": 420.1309062500077,
      "v": 97
    },
    {
      "midi": 88,
      "hit": false,
      "t": 115997.79600000086,
      "d": 267.3560312500049,
      "v": 67
    },
    {
      "midi": 76,
      "hit": false,
      "t": 116053.35050000086,
      "d": 267.3560312500049,
      "v": 67
    },
    {
      "midi": 81,
      "hit": false,
      "t": 116331.12300000087,
      "d": 190.9685937500035,
      "v": 70
    },
    {
      "midi": 69,
      "hit": false,
      "t": 116386.67750000086,
      "d": 190.9685937500035,
      "v": 70
    },
    {
      "midi": 83,
      "hit": false,
      "t": 116633.20059375005,
      "d": 725.6806562499987,
      "v": 105
    },
    {
      "midi": 59,
      "hit": false,
      "t": 116664.45000000006,
      "d": 439.2277656249935,
      "v": 86
    },
    {
      "midi": 55,
      "hit": false,
      "t": 116664.45000000006,
      "d": 572.9057812499959,
      "v": 68
    },
    {
      "midi": 62,
      "hit": false,
      "t": 116664.45000000006,
      "d": 687.486937499998,
      "v": 80
    },
    {
      "midi": 31,
      "hit": false,
      "t": 116664.4500000001,
      "d": 687.4869375000126,
      "v": 88
    },
    {
      "midi": 67,
      "hit": false,
      "t": 116664.45000000039,
      "d": 229.1623125000042,
      "v": 95
    },
    {
      "midi": 55,
      "hit": false,
      "t": 116664.45000000039,
      "d": 248.25917187500454,
      "v": 77
    },
    {
      "midi": 71,
      "hit": false,
      "t": 116664.45000000039,
      "d": 248.25917187500454,
      "v": 92
    },
    {
      "midi": 62,
      "hit": false,
      "t": 116664.45000000039,
      "d": 324.64660937500594,
      "v": 72
    },
    {
      "midi": 86,
      "hit": false,
      "t": 116664.45000000087,
      "d": 324.64660937500594,
      "v": 60
    },
    {
      "midi": 74,
      "hit": false,
      "t": 116720.00450000087,
      "d": 324.64660937500594,
      "v": 60
    },
    {
      "midi": 83,
      "hit": false,
      "t": 116997.77700000087,
      "d": 152.7748750000028,
      "v": 74
    },
    {
      "midi": 71,
      "hit": false,
      "t": 117053.33150000087,
      "d": 152.7748750000028,
      "v": 74
    },
    {
      "midi": 81,
      "hit": false,
      "t": 117320.68753125005,
      "d": 670.1261562500003,
      "v": 107
    },
    {
      "midi": 57,
      "hit": false,
      "t": 117331.10400000005,
      "d": 513.8791249999922,
      "v": 77
    },
    {
      "midi": 65,
      "hit": false,
      "t": 117331.10400000005,
      "d": 666.653999999995,
      "v": 79
    },
    {
      "midi": 60,
      "hit": false,
      "t": 117331.10400000005,
      "d": 1833.2984999999899,
      "v": 83
    },
    {
      "midi": 29,
      "hit": false,
      "t": 117331.10400000011,
      "d": 687.4869375000126,
      "v": 91
    },
    {
      "midi": 65,
      "hit": false,
      "t": 117331.1040000004,
      "d": 265.6199531250022,
      "v": 92
    },
    {
      "midi": 53,
      "hit": false,
      "t": 117331.1040000004,
      "d": 286.45289062500524,
      "v": 89
    },
    {
      "midi": 69,
      "hit": false,
      "t": 117331.1040000004,
      "d": 305.5497500000056,
      "v": 91
    },
    {
      "midi": 60,
      "hit": false,
      "t": 117331.1040000004,
      "d": 342.0073906250036,
      "v": 85
    },
    {
      "midi": 89,
      "hit": false,
      "t": 117331.10400000088,
      "d": 305.5497500000056,
      "v": 56
    },
    {
      "midi": 77,
      "hit": false,
      "t": 117386.65850000088,
      "d": 305.5497500000056,
      "v": 56
    },
    {
      "midi": 84,
      "hit": false,
      "t": 117664.43100000088,
      "d": 171.87173437500314,
      "v": 67
    },
    {
      "midi": 72,
      "hit": false,
      "t": 117719.98550000088,
      "d": 171.87173437500314,
      "v": 67
    },
    {
      "midi": 79,
      "hit": false,
      "t": 117969.98075000005,
      "d": 727.4167343750014,
      "v": 101
    },
    {
      "midi": 64,
      "hit": false,
      "t": 117997.75800000005,
      "d": 631.9324374999997,
      "v": 105
    },
    {
      "midi": 67,
      "hit": false,
      "t": 117997.75800000005,
      "d": 725.6806562499987,
      "v": 71
    },
    {
      "midi": 36,
      "hit": false,
      "t": 117997.75800000012,
      "d": 631.9324374999997,
      "v": 97
    },
    {
      "midi": 48,
      "hit": false,
      "t": 117997.75800000041,
      "d": 248.25917187500454,
      "v": 88
    },
    {
      "midi": 60,
      "hit": false,
      "t": 117997.75800000041,
      "d": 248.25917187500454,
      "v": 77
    },
    {
      "midi": 64,
      "hit": false,
      "t": 117997.75800000041,
      "d": 267.3560312500049,
      "v": 95
    },
    {
      "midi": 67,
      "hit": false,
      "t": 117997.75800000041,
      "d": 267.3560312500049,
      "v": 86
    },
    {
      "midi": 88,
      "hit": false,
      "t": 117997.75800000089,
      "d": 152.7748750000028,
      "v": 56
    },
    {
      "midi": 76,
      "hit": false,
      "t": 118053.31250000089,
      "d": 152.7748750000028,
      "v": 56
    },
    {
      "midi": 84,
      "hit": false,
      "t": 118331.0850000009,
      "d": 93.74821874999907,
      "v": 77
    },
    {
      "midi": 72,
      "hit": false,
      "t": 118386.63950000089,
      "d": 93.74821874999907,
      "v": 77
    },
    {
      "midi": 81,
      "hit": false,
      "t": 118657.46768750004,
      "d": 689.2230156250007,
      "v": 109
    },
    {
      "midi": 69,
      "hit": false,
      "t": 118664.41200000004,
      "d": 706.5837968749984,
      "v": 82
    },
    {
      "midi": 65,
      "hit": false,
      "t": 118664.41200000004,
      "d": 1241.2958593750081,
      "v": 70
    },
    {
      "midi": 29,
      "hit": false,
      "t": 118664.41200000011,
      "d": 690.9590937499888,
      "v": 89
    },
    {
      "midi": 60,
      "hit": false,
      "t": 118664.41200000042,
      "d": 286.45289062500524,
      "v": 85
    },
    {
      "midi": 69,
      "hit": false,
      "t": 118664.41200000042,
      "d": 286.45289062500524,
      "v": 83
    },
    {
      "midi": 65,
      "hit": false,
      "t": 118664.41200000042,
      "d": 324.64660937500594,
      "v": 83
    },
    {
      "midi": 53,
      "hit": false,
      "t": 118664.41200000042,
      "d": 343.7434687500063,
      "v": 95
    },
    {
      "midi": 89,
      "hit": false,
      "t": 118664.4120000009,
      "d": 190.9685937500035,
      "v": 80
    },
    {
      "midi": 77,
      "hit": false,
      "t": 118719.9665000009,
      "d": 190.9685937500035,
      "v": 80
    },
    {
      "midi": 84,
      "hit": false,
      "t": 118997.7390000009,
      "d": 152.7748750000028,
      "v": 58
    },
    {
      "midi": 72,
      "hit": false,
      "t": 119053.2935000009,
      "d": 152.7748750000028,
      "v": 58
    },
    {
      "midi": 83,
      "hit": false,
      "t": 119327.59384375004,
      "d": 670.1261562500003,
      "v": 103
    },
    {
      "midi": 62,
      "hit": false,
      "t": 119331.06600000005,
      "d": 553.8089218749956,
      "v": 66
    },
    {
      "midi": 71,
      "hit": false,
      "t": 119331.06600000005,
      "d": 744.7775156249991,
      "v": 75
    },
    {
      "midi": 31,
      "hit": false,
      "t": 119331.06600000011,
      "d": 687.486937499998,
      "v": 94
    },
    {
      "midi": 55,
      "hit": false,
      "t": 119331.06600000043,
      "d": 229.1623125000042,
      "v": 85
    },
    {
      "midi": 65,
      "hit": false,
      "t": 119331.06600000043,
      "d": 248.25917187500454,
      "v": 89
    },
    {
      "midi": 62,
      "hit": false,
      "t": 119331.06600000043,
      "d": 265.6199531250022,
      "v": 71
    },
    {
      "midi": 71,
      "hit": false,
      "t": 119331.06600000043,
      "d": 265.6199531250022,
      "v": 86
    },
    {
      "midi": 86,
      "hit": false,
      "t": 119331.06600000091,
      "d": 131.94193749999977,
      "v": 57
    },
    {
      "midi": 74,
      "hit": false,
      "t": 119386.6205000009,
      "d": 131.94193749999977,
      "v": 57
    },
    {
      "midi": 83,
      "hit": false,
      "t": 119664.39300000091,
      "d": 171.87173437500314,
      "v": 49
    },
    {
      "midi": 71,
      "hit": false,
      "t": 119719.94750000091,
      "d": 171.87173437500314,
      "v": 49
    },
    {
      "midi": 67,
      "hit": false,
      "t": 119997.72000000004,
      "d": 343.7434687500063,
      "v": 57
    },
    {
      "midi": 72,
      "hit": false,
      "t": 119997.72000000004,
      "d": 687.4869375000126,
      "v": 80
    },
    {
      "midi": 84,
      "hit": false,
      "t": 119997.72000000004,
      "d": 687.4869375000126,
      "v": 99
    },
    {
      "midi": 64,
      "hit": false,
      "t": 119997.72000000004,
      "d": 1048.5911875000165,
      "v": 79
    },
    {
      "midi": 36,
      "hit": false,
      "t": 119997.7200000001,
      "d": 1338.516234374998,
      "v": 97
    },
    {
      "midi": 67,
      "hit": false,
      "t": 119997.72000000042,
      "d": 229.1623125000042,
      "v": 86
    },
    {
      "midi": 72,
      "hit": false,
      "t": 119997.72000000042,
      "d": 229.1623125000042,
      "v": 99
    },
    {
      "midi": 48,
      "hit": false,
      "t": 119997.72000000042,
      "d": 729.1528125000041,
      "v": 89
    },
    {
      "midi": 64,
      "hit": false,
      "t": 119997.72000000042,
      "d": 749.9857500000071,
      "v": 94
    },
    {
      "midi": 88,
      "hit": false,
      "t": 119997.72000000092,
      "d": 248.25917187500454,
      "v": 66
    },
    {
      "midi": 76,
      "hit": false,
      "t": 120053.27450000092,
      "d": 248.25917187500454,
      "v": 66
    },
    {
      "midi": 79,
      "hit": false,
      "t": 120331.04700000092,
      "d": 171.87173437500314,
      "v": 59
    },
    {
      "midi": 67,
      "hit": false,
      "t": 120386.60150000092,
      "d": 171.87173437500314,
      "v": 59
    },
    {
      "midi": 88,
      "hit": false,
      "t": 120647.01321875006,
      "d": 687.4869375000126,
      "v": 103
    },
    {
      "midi": 67,
      "hit": false,
      "t": 120664.37400000005,
      "d": 649.2932187500119,
      "v": 91
    },
    {
      "midi": 67,
      "hit": false,
      "t": 120664.37400000043,
      "d": 131.94193749999977,
      "v": 85
    },
    {
      "midi": 84,
      "hit": false,
      "t": 120664.37400000093,
      "d": 152.7748750000028,
      "v": 59
    },
    {
      "midi": 72,
      "hit": false,
      "t": 120719.92850000093,
      "d": 152.7748750000028,
      "v": 59
    },
    {
      "midi": 88,
      "hit": false,
      "t": 120997.70100000093,
      "d": 133.67801562500244,
      "v": 72
    },
    {
      "midi": 76,
      "hit": false,
      "t": 121053.25550000093,
      "d": 133.67801562500244,
      "v": 72
    },
    {
      "midi": 89,
      "hit": false,
      "t": 121315.40329687507,
      "d": 668.3900781250122,
      "v": 92
    },
    {
      "midi": 57,
      "hit": false,
      "t": 121331.02800000006,
      "d": 553.8089218750101,
      "v": 85
    },
    {
      "midi": 65,
      "hit": false,
      "t": 121331.02800000006,
      "d": 670.1261562500295,
      "v": 82
    },
    {
      "midi": 60,
      "hit": false,
      "t": 121331.02800000006,
      "d": 2520.7854375000315,
      "v": 65
    },
    {
      "midi": 31,
      "hit": false,
      "t": 121331.02800000011,
      "d": 687.486937499998,
      "v": 91
    },
    {
      "midi": 53,
      "hit": false,
      "t": 121331.02800000043,
      "d": 208.32937500000116,
      "v": 79
    },
    {
      "midi": 65,
      "hit": false,
      "t": 121331.02800000043,
      "d": 248.25917187500454,
      "v": 92
    },
    {
      "midi": 57,
      "hit": false,
      "t": 121331.02800000043,
      "d": 284.71681250000256,
      "v": 83
    },
    {
      "midi": 60,
      "hit": false,
      "t": 121331.02800000043,
      "d": 305.5497500000056,
      "v": 99
    },
    {
      "midi": 89,
      "hit": false,
      "t": 121331.02800000094,
      "d": 284.71681250000256,
      "v": 62
    },
    {
      "midi": 77,
      "hit": false,
      "t": 121386.58250000094,
      "d": 284.71681250000256,
      "v": 62
    },
    {
      "midi": 81,
      "hit": false,
      "t": 121664.35500000094,
      "d": 112.84507812499942,
      "v": 60
    },
    {
      "midi": 69,
      "hit": false,
      "t": 121719.90950000094,
      "d": 112.84507812499942,
      "v": 60
    },
    {
      "midi": 91,
      "hit": false,
      "t": 121964.69651562508,
      "d": 1968.7125937500095,
      "v": 91
    },
    {
      "midi": 55,
      "hit": false,
      "t": 121997.68200000009,
      "d": 1852.3953593750048,
      "v": 57
    },
    {
      "midi": 64,
      "hit": false,
      "t": 121997.68200000009,
      "d": 1852.3953593750048,
      "v": 99
    },
    {
      "midi": 36,
      "hit": false,
      "t": 121997.6820000001,
      "d": 1814.201640625004,
      "v": 99
    },
    {
      "midi": 64,
      "hit": false,
      "t": 121997.68200000044,
      "d": 1720.453421875005,
      "v": 103
    },
    {
      "midi": 60,
      "hit": false,
      "t": 121997.68200000044,
      "d": 1737.8142031250027,
      "v": 97
    },
    {
      "midi": 55,
      "hit": false,
      "t": 121997.68200000044,
      "d": 1756.911062500003,
      "v": 79
    },
    {
      "midi": 48,
      "hit": false,
      "t": 121997.68200000044,
      "d": 1796.8408593750064,
      "v": 82
    },
    {
      "midi": 88,
      "hit": false,
      "t": 121997.68200000095,
      "d": 170.13565625000047,
      "v": 75
    },
    {
      "midi": 76,
      "hit": false,
      "t": 122053.23650000094,
      "d": 170.13565625000047,
      "v": 75
    },
    {
      "midi": 79,
      "hit": false,
      "t": 122331.00900000095,
      "d": 267.3560312500049,
      "v": 65
    },
    {
      "midi": 67,
      "hit": false,
      "t": 122386.56350000095,
      "d": 267.3560312500049,
      "v": 65
    },
    {
      "midi": 84,
      "hit": false,
      "t": 122664.33600000096,
      "d": 114.5811562500021,
      "v": 60
    },
    {
      "midi": 72,
      "hit": false,
      "t": 122719.89050000095,
      "d": 114.5811562500021,
      "v": 60
    },
    {
      "midi": 88,
      "hit": false,
      "t": 122997.66300000096,
      "d": 171.87173437500314,
      "v": 66
    },
    {
      "midi": 76,
      "hit": false,
      "t": 123053.21750000096,
      "d": 171.87173437500314,
      "v": 66
    },
    {
      "midi": 64,
      "hit": false,
      "t": 123330.99000000022,
      "d": 326.38268749999406,
      "v": 103
    },
    {
      "midi": 91,
      "hit": false,
      "t": 123330.99000000097,
      "d": 133.67801562500244,
      "v": 60
    },
    {
      "midi": 79,
      "hit": false,
      "t": 123386.54450000096,
      "d": 133.67801562500244,
      "v": 60
    },
    {
      "midi": 62,
      "hit": false,
      "t": 123664.31700000021,
      "d": 343.7434687500063,
      "v": 75
    },
    {
      "midi": 84,
      "hit": false,
      "t": 123664.31700000097,
      "d": 95.48429687500175,
      "v": 82
    },
    {
      "midi": 72,
      "hit": false,
      "t": 123719.87150000097,
      "d": 95.48429687500175,
      "v": 82
    },
    {
      "midi": 64,
      "hit": false,
      "t": 123997.64400000009,
      "d": 1949.6157343749946,
      "v": 89
    },
    {
      "midi": 60,
      "hit": false,
      "t": 123997.64400000009,
      "d": 2598.9089531250065,
      "v": 66
    },
    {
      "midi": 67,
      "hit": false,
      "t": 123997.64400000009,
      "d": 5275.941421874988,
      "v": 58
    },
    {
      "midi": 36,
      "hit": false,
      "t": 123997.6440000001,
      "d": 1527.7487499999988,
      "v": 94
    },
    {
      "midi": 60,
      "hit": false,
      "t": 123997.64400000022,
      "d": 993.0366875000036,
      "v": 97
    },
    {
      "midi": 48,
      "hit": false,
      "t": 123997.64400000044,
      "d": 878.4555312500015,
      "v": 83
    },
    {
      "midi": 55,
      "hit": false,
      "t": 123997.64400000044,
      "d": 1013.8696250000066,
      "v": 70
    },
    {
      "midi": 60,
      "hit": false,
      "t": 123997.64400000044,
      "d": 1013.8696250000066,
      "v": 92
    },
    {
      "midi": 88,
      "hit": false,
      "t": 123997.64400000098,
      "d": 267.3560312500049,
      "v": 86
    },
    {
      "midi": 76,
      "hit": false,
      "t": 124053.19850000097,
      "d": 267.3560312500049,
      "v": 86
    },
    {
      "midi": 84,
      "hit": false,
      "t": 124330.97100000098,
      "d": 76.3874375000014,
      "v": 65
    },
    {
      "midi": 72,
      "hit": false,
      "t": 124386.52550000098,
      "d": 76.3874375000014,
      "v": 65
    },
    {
      "midi": 79,
      "hit": false,
      "t": 124664.29800000098,
      "d": 114.5811562500021,
      "v": 74
    },
    {
      "midi": 67,
      "hit": false,
      "t": 124719.85250000098,
      "d": 114.5811562500021,
      "v": 74
    },
    {
      "midi": 62,
      "hit": false,
      "t": 124997.62500000022,
      "d": 381.937187500007,
      "v": 82
    },
    {
      "midi": 62,
      "hit": false,
      "t": 124997.62500000044,
      "d": 381.937187500007,
      "v": 85
    },
    {
      "midi": 84,
      "hit": false,
      "t": 124997.62500000099,
      "d": 76.3874375000014,
      "v": 82
    },
    {
      "midi": 72,
      "hit": false,
      "t": 125053.17950000099,
      "d": 76.3874375000014,
      "v": 82
    },
    {
      "midi": 64,
      "hit": false,
      "t": 125330.95200000022,
      "d": 324.64660937500594,
      "v": 107
    },
    {
      "midi": 64,
      "hit": false,
      "t": 125330.95200000044,
      "d": 305.5497500000056,
      "v": 107
    },
    {
      "midi": 60,
      "hit": false,
      "t": 125330.95200000044,
      "d": 361.10425000000396,
      "v": 70
    },
    {
      "midi": 88,
      "hit": false,
      "t": 125330.952000001,
      "d": 76.3874375000014,
      "v": 71
    },
    {
      "midi": 76,
      "hit": false,
      "t": 125386.50650000099,
      "d": 76.3874375000014,
      "v": 71
    },
    {
      "midi": 36,
      "hit": false,
      "t": 125664.2790000001,
      "d": 343.7434687500063,
      "v": 83
    },
    {
      "midi": 65,
      "hit": false,
      "t": 125664.27900000023,
      "d": 343.7434687500063,
      "v": 88
    },
    {
      "midi": 65,
      "hit": false,
      "t": 125664.27900000045,
      "d": 112.84507812499942,
      "v": 85
    },
    {
      "midi": 84,
      "hit": false,
      "t": 125664.279000001,
      "d": 95.48429687500175,
      "v": 72
    },
    {
      "midi": 72,
      "hit": false,
      "t": 125719.833500001,
      "d": 95.48429687500175,
      "v": 72
    },
    {
      "midi": 62,
      "hit": false,
      "t": 125997.60600000009,
      "d": 2062.460812499994,
      "v": 72
    },
    {
      "midi": 31,
      "hit": false,
      "t": 125997.6060000001,
      "d": 2045.1000312499964,
      "v": 94
    },
    {
      "midi": 67,
      "hit": false,
      "t": 125997.60600000023,
      "d": 1225.6711562499986,
      "v": 94
    },
    {
      "midi": 60,
      "hit": false,
      "t": 125997.60600000045,
      "d": 477.42148437500873,
      "v": 89
    },
    {
      "midi": 62,
      "hit": false,
      "t": 125997.60600000045,
      "d": 916.6492500000168,
      "v": 86
    },
    {
      "midi": 67,
      "hit": false,
      "t": 125997.60600000045,
      "d": 1013.8696250000212,
      "v": 95
    },
    {
      "midi": 55,
      "hit": false,
      "t": 125997.60600000045,
      "d": 1701.3565625000192,
      "v": 85
    },
    {
      "midi": 91,
      "hit": false,
      "t": 125997.606000001,
      "d": 152.7748750000028,
      "v": 77
    },
    {
      "midi": 79,
      "hit": false,
      "t": 126053.160500001,
      "d": 152.7748750000028,
      "v": 77
    },
    {
      "midi": 86,
      "hit": false,
      "t": 126330.93300000101,
      "d": 76.3874375000014,
      "v": 53
    },
    {
      "midi": 74,
      "hit": false,
      "t": 126386.487500001,
      "d": 76.3874375000014,
      "v": 53
    },
    {
      "midi": 59,
      "hit": false,
      "t": 126664.2600000001,
      "d": 1317.683296874995,
      "v": 91
    },
    {
      "midi": 59,
      "hit": false,
      "t": 126664.26000000046,
      "d": 362.84032812500664,
      "v": 101
    },
    {
      "midi": 83,
      "hit": false,
      "t": 126664.26000000101,
      "d": 95.48429687500175,
      "v": 66
    },
    {
      "midi": 71,
      "hit": false,
      "t": 126719.81450000101,
      "d": 95.48429687500175,
      "v": 66
    },
    {
      "midi": 86,
      "hit": false,
      "t": 126997.58700000102,
      "d": 76.3874375000014,
      "v": 62
    },
    {
      "midi": 74,
      "hit": false,
      "t": 127053.14150000102,
      "d": 76.3874375000014,
      "v": 62
    },
    {
      "midi": 69,
      "hit": false,
      "t": 127330.91400000024,
      "d": 362.84032812500664,
      "v": 95
    },
    {
      "midi": 69,
      "hit": false,
      "t": 127330.91400000047,
      "d": 343.7434687500063,
      "v": 86
    },
    {
      "midi": 79,
      "hit": false,
      "t": 127330.91400000102,
      "d": 95.48429687500175,
      "v": 72
    },
    {
      "midi": 67,
      "hit": false,
      "t": 127386.46850000102,
      "d": 95.48429687500175,
      "v": 72
    },
    {
      "midi": 71,
      "hit": false,
      "t": 127664.24100000024,
      "d": 305.5497500000056,
      "v": 94
    },
    {
      "midi": 71,
      "hit": false,
      "t": 127664.24100000047,
      "d": 112.84507812499942,
      "v": 109
    },
    {
      "midi": 83,
      "hit": false,
      "t": 127664.24100000103,
      "d": 95.48429687500175,
      "v": 80
    },
    {
      "midi": 71,
      "hit": false,
      "t": 127719.79550000103,
      "d": 95.48429687500175,
      "v": 80
    },
    {
      "midi": 64,
      "hit": false,
      "t": 127997.56800000009,
      "d": 1319.4193749999831,
      "v": 97
    },
    {
      "midi": 60,
      "hit": false,
      "t": 127997.56800000009,
      "d": 5847.111124999996,
      "v": 74
    },
    {
      "midi": 40,
      "hit": false,
      "t": 127997.5680000001,
      "d": 1355.8770156249957,
      "v": 97
    },
    {
      "midi": 72,
      "hit": false,
      "t": 127997.56800000025,
      "d": 631.9324374999997,
      "v": 99
    },
    {
      "midi": 72,
      "hit": false,
      "t": 127997.56800000048,
      "d": 553.8089218750101,
      "v": 103
    },
    {
      "midi": 67,
      "hit": false,
      "t": 127997.56800000048,
      "d": 572.9057812500105,
      "v": 95
    },
    {
      "midi": 64,
      "hit": false,
      "t": 127997.56800000048,
      "d": 706.5837968750129,
      "v": 97
    },
    {
      "midi": 52,
      "hit": false,
      "t": 127997.56800000048,
      "d": 763.874375000014,
      "v": 99
    },
    {
      "midi": 88,
      "hit": false,
      "t": 127997.56800000103,
      "d": 76.3874375000014,
      "v": 83
    },
    {
      "midi": 76,
      "hit": false,
      "t": 128053.12250000103,
      "d": 76.3874375000014,
      "v": 83
    },
    {
      "midi": 79,
      "hit": false,
      "t": 128330.89500000104,
      "d": 114.5811562500021,
      "v": 54
    },
    {
      "midi": 67,
      "hit": false,
      "t": 128386.44950000104,
      "d": 114.5811562500021,
      "v": 54
    },
    {
      "midi": 71,
      "hit": false,
      "t": 128664.22200000024,
      "d": 725.6806562499987,
      "v": 101
    },
    {
      "midi": 71,
      "hit": false,
      "t": 128664.22200000049,
      "d": 76.3874375000014,
      "v": 105
    },
    {
      "midi": 84,
      "hit": false,
      "t": 128664.22200000104,
      "d": 131.94193749999977,
      "v": 85
    },
    {
      "midi": 72,
      "hit": false,
      "t": 128719.77650000104,
      "d": 131.94193749999977,
      "v": 85
    },
    {
      "midi": 88,
      "hit": false,
      "t": 128997.54900000105,
      "d": 95.48429687500175,
      "v": 70
    },
    {
      "midi": 76,
      "hit": false,
      "t": 129053.10350000105,
      "d": 95.48429687500175,
      "v": 70
    },
    {
      "midi": 69,
      "hit": false,
      "t": 129330.87600000008,
      "d": 630.196359374997,
      "v": 70
    },
    {
      "midi": 65,
      "hit": false,
      "t": 129330.87600000008,
      "d": 1374.973874999996,
      "v": 85
    },
    {
      "midi": 41,
      "hit": false,
      "t": 129330.87600000009,
      "d": 631.9324374999997,
      "v": 101
    },
    {
      "midi": 69,
      "hit": false,
      "t": 129330.87600000024,
      "d": 670.1261562500149,
      "v": 95
    },
    {
      "midi": 69,
      "hit": false,
      "t": 129330.8760000005,
      "d": 248.25917187500454,
      "v": 88
    },
    {
      "midi": 65,
      "hit": false,
      "t": 129330.8760000005,
      "d": 265.6199531250022,
      "v": 92
    },
    {
      "midi": 53,
      "hit": false,
      "t": 129330.8760000005,
      "d": 284.71681250000256,
      "v": 86
    },
    {
      "midi": 60,
      "hit": false,
      "t": 129330.8760000005,
      "d": 284.71681250000256,
      "v": 89
    },
    {
      "midi": 89,
      "hit": false,
      "t": 129330.87600000105,
      "d": 152.7748750000028,
      "v": 83
    },
    {
      "midi": 77,
      "hit": false,
      "t": 129386.43050000105,
      "d": 152.7748750000028,
      "v": 83
    },
    {
      "midi": 81,
      "hit": false,
      "t": 129664.20300000106,
      "d": 95.48429687500175,
      "v": 28
    },
    {
      "midi": 69,
      "hit": false,
      "t": 129719.75750000105,
      "d": 95.48429687500175,
      "v": 28
    },
    {
      "midi": 67,
      "hit": false,
      "t": 129997.53000000007,
      "d": 1394.0707343749964,
      "v": 80
    },
    {
      "midi": 36,
      "hit": false,
      "t": 129997.53000000009,
      "d": 1374.973874999996,
      "v": 99
    },
    {
      "midi": 67,
      "hit": false,
      "t": 129997.53000000025,
      "d": 1206.5742968749983,
      "v": 97
    },
    {
      "midi": 65,
      "hit": false,
      "t": 129997.53000000051,
      "d": 784.7073124999879,
      "v": 80
    },
    {
      "midi": 67,
      "hit": false,
      "t": 129997.53000000051,
      "d": 821.1649531249859,
      "v": 88
    },
    {
      "midi": 60,
      "hit": false,
      "t": 129997.53000000051,
      "d": 840.2618124999863,
      "v": 71
    },
    {
      "midi": 48,
      "hit": false,
      "t": 129997.53000000051,
      "d": 861.0947499999893,
      "v": 86
    },
    {
      "midi": 91,
      "hit": false,
      "t": 129997.53000000106,
      "d": 133.67801562500244,
      "v": 72
    },
    {
      "midi": 79,
      "hit": false,
      "t": 130053.08450000106,
      "d": 133.67801562500244,
      "v": 72
    },
    {
      "midi": 88,
      "hit": false,
      "t": 130330.85700000107,
      "d": 76.3874375000014,
      "v": 67
    },
    {
      "midi": 76,
      "hit": false,
      "t": 130386.41150000106,
      "d": 76.3874375000014,
      "v": 67
    },
    {
      "midi": 64,
      "hit": false,
      "t": 130664.18400000007,
      "d": 725.6806562500133,
      "v": 85
    },
    {
      "midi": 64,
      "hit": false,
      "t": 130664.1840000005,
      "d": 133.6780156249879,
      "v": 88
    },
    {
      "midi": 84,
      "hit": false,
      "t": 130664.18400000107,
      "d": 95.48429687500175,
      "v": 66
    },
    {
      "midi": 72,
      "hit": false,
      "t": 130719.73850000107,
      "d": 95.48429687500175,
      "v": 66
    },
    {
      "midi": 79,
      "hit": false,
      "t": 130997.51100000108,
      "d": 95.4842968749872,
      "v": 68
    },
    {
      "midi": 67,
      "hit": false,
      "t": 131053.06550000107,
      "d": 95.4842968749872,
      "v": 68
    },
    {
      "midi": 41,
      "hit": false,
      "t": 131330.83800000008,
      "d": 706.5837968749984,
      "v": 99
    },
    {
      "midi": 69,
      "hit": false,
      "t": 131330.83800000008,
      "d": 651.029296875,
      "v": 80
    },
    {
      "midi": 65,
      "hit": false,
      "t": 131330.83800000008,
      "d": 687.4869375000126,
      "v": 91
    },
    {
      "midi": 69,
      "hit": false,
      "t": 131330.83800000025,
      "d": 342.00739062498906,
      "v": 94
    },
    {
      "midi": 53,
      "hit": false,
      "t": 131330.83800000048,
      "d": 324.6466093749914,
      "v": 88
    },
    {
      "midi": 60,
      "hit": false,
      "t": 131330.83800000048,
      "d": 324.6466093749914,
      "v": 82
    },
    {
      "midi": 65,
      "hit": false,
      "t": 131330.83800000048,
      "d": 342.00739062498906,
      "v": 88
    },
    {
      "midi": 69,
      "hit": false,
      "t": 131330.83800000048,
      "d": 345.4795468749944,
      "v": 94
    },
    {
      "midi": 84,
      "hit": false,
      "t": 131330.83800000107,
      "d": 114.5811562500021,
      "v": 80
    },
    {
      "midi": 72,
      "hit": false,
      "t": 131386.39250000106,
      "d": 114.5811562500021,
      "v": 80
    },
    {
      "midi": 71,
      "hit": false,
      "t": 131664.16500000024,
      "d": 305.5497500000056,
      "v": 91
    },
    {
      "midi": 71,
      "hit": false,
      "t": 131664.16500000047,
      "d": 114.5811562500021,
      "v": 92
    },
    {
      "midi": 81,
      "hit": false,
      "t": 131664.16500000106,
      "d": 112.84507812501397,
      "v": 74
    },
    {
      "midi": 69,
      "hit": false,
      "t": 131719.71950000105,
      "d": 112.84507812501397,
      "v": 74
    },
    {
      "midi": 36,
      "hit": false,
      "t": 131997.4920000001,
      "d": 1298.5864374999946,
      "v": 101
    },
    {
      "midi": 67,
      "hit": false,
      "t": 131997.4920000001,
      "d": 1145.8115624999919,
      "v": 86
    },
    {
      "midi": 64,
      "hit": false,
      "t": 131997.4920000001,
      "d": 1300.3225156249828,
      "v": 97
    },
    {
      "midi": 72,
      "hit": false,
      "t": 131997.49200000026,
      "d": 727.4167343750014,
      "v": 92
    },
    {
      "midi": 72,
      "hit": false,
      "t": 131997.49200000046,
      "d": 649.2932187499828,
      "v": 97
    },
    {
      "midi": 67,
      "hit": false,
      "t": 131997.49200000046,
      "d": 706.5837968749693,
      "v": 89
    },
    {
      "midi": 64,
      "hit": false,
      "t": 131997.49200000046,
      "d": 782.9712343749707,
      "v": 92
    },
    {
      "midi": 48,
      "hit": false,
      "t": 131997.49200000046,
      "d": 802.0680937499565,
      "v": 83
    },
    {
      "midi": 79,
      "hit": false,
      "t": 131997.49200000108,
      "d": 114.5811562500021,
      "v": 79
    },
    {
      "midi": 67,
      "hit": false,
      "t": 132053.04650000107,
      "d": 114.5811562500021,
      "v": 79
    },
    {
      "midi": 84,
      "hit": false,
      "t": 132330.81900000107,
      "d": 95.4842968749872,
      "v": 70
    },
    {
      "midi": 72,
      "hit": false,
      "t": 132386.37350000106,
      "d": 95.4842968749872,
      "v": 70
    },
    {
      "midi": 71,
      "hit": false,
      "t": 132664.14600000027,
      "d": 687.4869374999835,
      "v": 101
    },
    {
      "midi": 71,
      "hit": false,
      "t": 132664.14600000044,
      "d": 95.4842968749872,
      "v": 91
    },
    {
      "midi": 88,
      "hit": false,
      "t": 132664.14600000106,
      "d": 95.4842968749872,
      "v": 65
    },
    {
      "midi": 76,
      "hit": false,
      "t": 132719.70050000105,
      "d": 95.4842968749872,
      "v": 65
    },
    {
      "midi": 84,
      "hit": false,
      "t": 132997.47300000105,
      "d": 114.5811562500021,
      "v": 77
    },
    {
      "midi": 72,
      "hit": false,
      "t": 133053.02750000104,
      "d": 114.5811562500021,
      "v": 77
    },
    {
      "midi": 41,
      "hit": false,
      "t": 133330.80000000008,
      "d": 592.0026406249963,
      "v": 95
    },
    {
      "midi": 69,
      "hit": false,
      "t": 133330.80000000008,
      "d": 611.0995000000112,
      "v": 91
    },
    {
      "midi": 65,
      "hit": false,
      "t": 133330.80000000008,
      "d": 744.7775156249991,
      "v": 91
    },
    {
      "midi": 69,
      "hit": false,
      "t": 133330.80000000025,
      "d": 668.3900781249977,
      "v": 97
    },
    {
      "midi": 65,
      "hit": false,
      "t": 133330.80000000042,
      "d": 229.1623125000042,
      "v": 97
    },
    {
      "midi": 69,
      "hit": false,
      "t": 133330.80000000042,
      "d": 229.1623125000042,
      "v": 97
    },
    {
      "midi": 60,
      "hit": false,
      "t": 133330.80000000042,
      "d": 284.71681250000256,
      "v": 91
    },
    {
      "midi": 53,
      "hit": false,
      "t": 133330.80000000042,
      "d": 305.5497500000056,
      "v": 92
    },
    {
      "midi": 89,
      "hit": false,
      "t": 133330.80000000104,
      "d": 95.4842968749872,
      "v": 80
    },
    {
      "midi": 77,
      "hit": false,
      "t": 133386.35450000103,
      "d": 95.4842968749872,
      "v": 80
    },
    {
      "midi": 81,
      "hit": false,
      "t": 133664.12700000103,
      "d": 95.4842968749872,
      "v": 70
    },
    {
      "midi": 69,
      "hit": false,
      "t": 133719.68150000102,
      "d": 95.4842968749872,
      "v": 70
    },
    {
      "midi": 41,
      "hit": false,
      "t": 133997.45400000009,
      "d": 1279.4895781250088,
      "v": 107
    },
    {
      "midi": 59,
      "hit": false,
      "t": 133997.45400000009,
      "d": 1814.2016406249895,
      "v": 77
    },
    {
      "midi": 62,
      "hit": false,
      "t": 133997.45400000009,
      "d": 1966.9765156249923,
      "v": 59
    },
    {
      "midi": 67,
      "hit": false,
      "t": 133997.45400000009,
      "d": 3248.2021718749893,
      "v": 83
    },
    {
      "midi": 67,
      "hit": false,
      "t": 133997.45400000026,
      "d": 649.2932187499828,
      "v": 95
    },
    {
      "midi": 62,
      "hit": false,
      "t": 133997.45400000043,
      "d": 647.5571406249946,
      "v": 94
    },
    {
      "midi": 67,
      "hit": false,
      "t": 133997.45400000043,
      "d": 647.5571406249946,
      "v": 86
    },
    {
      "midi": 59,
      "hit": false,
      "t": 133997.45400000043,
      "d": 763.8743749999849,
      "v": 101
    },
    {
      "midi": 53,
      "hit": false,
      "t": 133997.45400000043,
      "d": 1491.2911093749863,
      "v": 105
    },
    {
      "midi": 79,
      "hit": false,
      "t": 133997.45400000102,
      "d": 131.94193749999977,
      "v": 62
    },
    {
      "midi": 67,
      "hit": false,
      "t": 134053.00850000101,
      "d": 131.94193749999977,
      "v": 62
    },
    {
      "midi": 83,
      "hit": false,
      "t": 134330.781000001,
      "d": 114.5811562500021,
      "v": 70
    },
    {
      "midi": 71,
      "hit": false,
      "t": 134386.335500001,
      "d": 114.5811562500021,
      "v": 70
    },
    {
      "midi": 69,
      "hit": false,
      "t": 134664.10800000024,
      "d": 687.4869375000126,
      "v": 92
    },
    {
      "midi": 69,
      "hit": false,
      "t": 134664.10800000041,
      "d": 649.2932187500119,
      "v": 101
    },
    {
      "midi": 86,
      "hit": false,
      "t": 134664.108000001,
      "d": 112.84507812501397,
      "v": 75
    },
    {
      "midi": 74,
      "hit": false,
      "t": 134719.662500001,
      "d": 112.84507812501397,
      "v": 75
    },
    {
      "midi": 91,
      "hit": false,
      "t": 134997.43500000102,
      "d": 112.84507812501397,
      "v": 71
    },
    {
      "midi": 79,
      "hit": false,
      "t": 135052.98950000101,
      "d": 112.84507812501397,
      "v": 71
    },
    {
      "midi": 41,
      "hit": false,
      "t": 135330.7620000001,
      "d": 649.2932187500119,
      "v": 92
    },
    {
      "midi": 71,
      "hit": false,
      "t": 135330.76200000025,
      "d": 668.3900781249977,
      "v": 91
    },
    {
      "midi": 71,
      "hit": false,
      "t": 135330.76200000042,
      "d": 114.5811562500021,
      "v": 107
    },
    {
      "midi": 86,
      "hit": false,
      "t": 135330.76200000104,
      "d": 133.6780156249879,
      "v": 47
    },
    {
      "midi": 74,
      "hit": false,
      "t": 135386.31650000103,
      "d": 133.6780156249879,
      "v": 47
    },
    {
      "midi": 83,
      "hit": false,
      "t": 135664.08900000103,
      "d": 152.7748750000028,
      "v": 68
    },
    {
      "midi": 71,
      "hit": false,
      "t": 135719.64350000102,
      "d": 152.7748750000028,
      "v": 68
    },
    {
      "midi": 64,
      "hit": false,
      "t": 135997.41600000008,
      "d": 1279.4895781249797,
      "v": 97
    },
    {
      "midi": 60,
      "hit": false,
      "t": 135997.41600000008,
      "d": 6694.317250000022,
      "v": 83
    },
    {
      "midi": 40,
      "hit": false,
      "t": 135997.4160000001,
      "d": 1336.7801562499953,
      "v": 91
    },
    {
      "midi": 72,
      "hit": false,
      "t": 135997.41600000026,
      "d": 670.1261562499858,
      "v": 101
    },
    {
      "midi": 67,
      "hit": false,
      "t": 135997.41600000043,
      "d": 248.25917187499,
      "v": 77
    },
    {
      "midi": 72,
      "hit": false,
      "t": 135997.41600000043,
      "d": 324.6466093749914,
      "v": 99
    },
    {
      "midi": 64,
      "hit": false,
      "t": 135997.41600000043,
      "d": 743.0414374999818,
      "v": 92
    },
    {
      "midi": 52,
      "hit": false,
      "t": 135997.41600000043,
      "d": 993.0366874999891,
      "v": 77
    },
    {
      "midi": 88,
      "hit": false,
      "t": 135997.41600000102,
      "d": 171.8717343749886,
      "v": 70
    },
    {
      "midi": 76,
      "hit": false,
      "t": 136052.970500001,
      "d": 171.8717343749886,
      "v": 70
    },
    {
      "midi": 79,
      "hit": false,
      "t": 136330.743000001,
      "d": 170.13565625000047,
      "v": 54
    },
    {
      "midi": 67,
      "hit": false,
      "t": 136386.297500001,
      "d": 170.13565625000047,
      "v": 54
    },
    {
      "midi": 67,
      "hit": false,
      "t": 136664.07000000024,
      "d": 706.5837968749984,
      "v": 89
    },
    {
      "midi": 67,
      "hit": false,
      "t": 136664.0700000004,
      "d": 152.7748750000028,
      "v": 89
    },
    {
      "midi": 84,
      "hit": false,
      "t": 136664.070000001,
      "d": 229.1623125000042,
      "v": 68
    },
    {
      "midi": 72,
      "hit": false,
      "t": 136719.624500001,
      "d": 229.1623125000042,
      "v": 68
    },
    {
      "midi": 88,
      "hit": false,
      "t": 136997.397000001,
      "d": 190.9685937500035,
      "v": 68
    },
    {
      "midi": 76,
      "hit": false,
      "t": 137052.95150000099,
      "d": 190.9685937500035,
      "v": 68
    },
    {
      "midi": 57,
      "hit": false,
      "t": 137330.72400000007,
      "d": 611.0995000000112,
      "v": 92
    },
    {
      "midi": 65,
      "hit": false,
      "t": 137330.72400000007,
      "d": 729.1528125000186,
      "v": 72
    },
    {
      "midi": 31,
      "hit": false,
      "t": 137330.7240000001,
      "d": 649.2932187500119,
      "v": 109
    },
    {
      "midi": 65,
      "hit": false,
      "t": 137330.72400000025,
      "d": 668.3900781249686,
      "v": 91
    },
    {
      "midi": 53,
      "hit": false,
      "t": 137330.72400000042,
      "d": 305.5497500000056,
      "v": 88
    },
    {
      "midi": 57,
      "hit": false,
      "t": 137330.72400000042,
      "d": 324.6466093749914,
      "v": 85
    },
    {
      "midi": 60,
      "hit": false,
      "t": 137330.72400000042,
      "d": 324.6466093749914,
      "v": 95
    },
    {
      "midi": 65,
      "hit": false,
      "t": 137330.72400000042,
      "d": 324.6466093749914,
      "v": 88
    },
    {
      "midi": 89,
      "hit": false,
      "t": 137330.72400000098,
      "d": 229.1623125000042,
      "v": 74
    },
    {
      "midi": 77,
      "hit": false,
      "t": 137386.27850000098,
      "d": 229.1623125000042,
      "v": 74
    },
    {
      "midi": 81,
      "hit": false,
      "t": 137664.05100000097,
      "d": 133.6780156249879,
      "v": 64
    },
    {
      "midi": 69,
      "hit": false,
      "t": 137719.60550000097,
      "d": 133.6780156249879,
      "v": 64
    },
    {
      "midi": 64,
      "hit": false,
      "t": 137997.37800000008,
      "d": 3994.7157656250056,
      "v": 103
    },
    {
      "midi": 55,
      "hit": false,
      "t": 137997.37800000008,
      "d": 5833.222500000033,
      "v": 71
    },
    {
      "midi": 36,
      "hit": false,
      "t": 137997.3780000001,
      "d": 1642.329906250001,
      "v": 103
    },
    {
      "midi": 64,
      "hit": false,
      "t": 137997.37800000023,
      "d": 1088.5209843749763,
      "v": 103
    },
    {
      "midi": 60,
      "hit": false,
      "t": 137997.3780000004,
      "d": 1145.8115624999919,
      "v": 94
    },
    {
      "midi": 55,
      "hit": false,
      "t": 137997.3780000004,
      "d": 1184.0052812499925,
      "v": 72
    },
    {
      "midi": 64,
      "hit": false,
      "t": 137997.3780000004,
      "d": 1241.295859374979,
      "v": 105
    },
    {
      "midi": 48,
      "hit": false,
      "t": 137997.3780000004,
      "d": 1279.4895781249797,
      "v": 85
    },
    {
      "midi": 88,
      "hit": false,
      "t": 137997.37800000096,
      "d": 131.94193749999977,
      "v": 64
    },
    {
      "midi": 76,
      "hit": false,
      "t": 138052.93250000096,
      "d": 131.94193749999977,
      "v": 64
    },
    {
      "midi": 79,
      "hit": false,
      "t": 138330.70500000095,
      "d": 229.1623125000042,
      "v": 64
    },
    {
      "midi": 67,
      "hit": false,
      "t": 138386.25950000095,
      "d": 229.1623125000042,
      "v": 64
    },
    {
      "midi": 84,
      "hit": false,
      "t": 138664.03200000094,
      "d": 152.7748750000028,
      "v": 67
    },
    {
      "midi": 72,
      "hit": false,
      "t": 138719.58650000094,
      "d": 152.7748750000028,
      "v": 67
    },
    {
      "midi": 86,
      "hit": false,
      "t": 138997.35900000093,
      "d": 152.7748750000028,
      "v": 55
    },
    {
      "midi": 74,
      "hit": false,
      "t": 139052.91350000093,
      "d": 152.7748750000028,
      "v": 55
    },
    {
      "midi": 64,
      "hit": false,
      "t": 139330.68600000022,
      "d": 345.4795468749944,
      "v": 107
    },
    {
      "midi": 64,
      "hit": false,
      "t": 139330.6860000004,
      "d": 361.10425000000396,
      "v": 109
    },
    {
      "midi": 88,
      "hit": false,
      "t": 139330.68600000092,
      "d": 208.32937500000116,
      "v": 59
    },
    {
      "midi": 76,
      "hit": false,
      "t": 139386.24050000092,
      "d": 208.32937500000116,
      "v": 59
    },
    {
      "midi": 36,
      "hit": false,
      "t": 139664.01300000012,
      "d": 322.91053125000326,
      "v": 91
    },
    {
      "midi": 62,
      "hit": false,
      "t": 139664.0130000002,
      "d": 361.10425000000396,
      "v": 85
    },
    {
      "midi": 62,
      "hit": false,
      "t": 139664.01300000038,
      "d": 347.21562500001164,
      "v": 79
    },
    {
      "midi": 84,
      "hit": false,
      "t": 139664.0130000009,
      "d": 114.5811562500021,
      "v": 65
    },
    {
      "midi": 72,
      "hit": false,
      "t": 139719.5675000009,
      "d": 114.5811562500021,
      "v": 65
    },
    {
      "midi": 33,
      "hit": false,
      "t": 139997.3400000001,
      "d": 1527.7487499999988,
      "v": 103
    },
    {
      "midi": 60,
      "hit": false,
      "t": 139997.3400000002,
      "d": 956.5790468750056,
      "v": 99
    },
    {
      "midi": 60,
      "hit": false,
      "t": 139997.3400000004,
      "d": 1031.2304062499898,
      "v": 99
    },
    {
      "midi": 45,
      "hit": false,
      "t": 139997.3400000004,
      "d": 1338.5162343749835,
      "v": 91
    },
    {
      "midi": 57,
      "hit": false,
      "t": 139997.3400000004,
      "d": 1680.5236250000016,
      "v": 92
    },
    {
      "midi": 88,
      "hit": false,
      "t": 139997.3400000009,
      "d": 152.7748750000028,
      "v": 65
    },
    {
      "midi": 76,
      "hit": false,
      "t": 140052.8945000009,
      "d": 152.7748750000028,
      "v": 65
    },
    {
      "midi": 84,
      "hit": false,
      "t": 140330.6670000009,
      "d": 171.8717343749886,
      "v": 59
    },
    {
      "midi": 72,
      "hit": false,
      "t": 140386.2215000009,
      "d": 171.8717343749886,
      "v": 59
    },
    {
      "midi": 79,
      "hit": false,
      "t": 140663.99400000088,
      "d": 152.7748750000028,
      "v": 49
    },
    {
      "midi": 67,
      "hit": false,
      "t": 140719.54850000088,
      "d": 152.7748750000028,
      "v": 49
    },
    {
      "midi": 62,
      "hit": false,
      "t": 140997.3210000002,
      "d": 362.8403281249921,
      "v": 86
    },
    {
      "midi": 62,
      "hit": false,
      "t": 140997.3210000004,
      "d": 362.8403281249921,
      "v": 88
    },
    {
      "midi": 84,
      "hit": false,
      "t": 140997.32100000087,
      "d": 112.84507812501397,
      "v": 56
    },
    {
      "midi": 72,
      "hit": false,
      "t": 141052.87550000087,
      "d": 112.84507812501397,
      "v": 56
    },
    {
      "midi": 64,
      "hit": false,
      "t": 141330.6480000002,
      "d": 342.00739062498906,
      "v": 107
    },
    {
      "midi": 64,
      "hit": false,
      "t": 141330.6480000004,
      "d": 305.5497500000056,
      "v": 101
    },
    {
      "midi": 88,
      "hit": false,
      "t": 141330.6480000009,
      "d": 246.52309375000186,
      "v": 68
    },
    {
      "midi": 76,
      "hit": false,
      "t": 141386.2025000009,
      "d": 246.52309375000186,
      "v": 68
    },
    {
      "midi": 33,
      "hit": false,
      "t": 141663.97500000012,
      "d": 381.9371874999779,
      "v": 91
    },
    {
      "midi": 65,
      "hit": false,
      "t": 141663.97500000018,
      "d": 324.6466093749914,
      "v": 89
    },
    {
      "midi": 65,
      "hit": false,
      "t": 141663.9750000004,
      "d": 114.5811562500021,
      "v": 94
    },
    {
      "midi": 84,
      "hit": false,
      "t": 141663.97500000088,
      "d": 93.74821874999907,
      "v": 72
    },
    {
      "midi": 72,
      "hit": false,
      "t": 141719.52950000088,
      "d": 93.74821874999907,
      "v": 72
    },
    {
      "midi": 62,
      "hit": false,
      "t": 141997.30200000008,
      "d": 1993.017687500018,
      "v": 64
    },
    {
      "midi": 31,
      "hit": false,
      "t": 141997.3020000001,
      "d": 1986.0733749999781,
      "v": 94
    },
    {
      "midi": 67,
      "hit": false,
      "t": 141997.30200000017,
      "d": 1336.7801562499953,
      "v": 92
    },
    {
      "midi": 60,
      "hit": false,
      "t": 141997.3020000004,
      "d": 553.8089218749956,
      "v": 92
    },
    {
      "midi": 62,
      "hit": false,
      "t": 141997.3020000004,
      "d": 1184.0052812500217,
      "v": 85
    },
    {
      "midi": 67,
      "hit": false,
      "t": 141997.3020000004,
      "d": 1374.9738750000251,
      "v": 89
    },
    {
      "midi": 55,
      "hit": false,
      "t": 141997.3020000004,
      "d": 1795.1047812500037,
      "v": 77
    },
    {
      "midi": 91,
      "hit": false,
      "t": 141997.30200000087,
      "d": 171.8717343749886,
      "v": 68
    },
    {
      "midi": 79,
      "hit": false,
      "t": 142052.85650000087,
      "d": 171.8717343749886,
      "v": 68
    },
    {
      "midi": 86,
      "hit": false,
      "t": 142330.62900000086,
      "d": 112.84507812501397,
      "v": 40
    },
    {
      "midi": 74,
      "hit": false,
      "t": 142386.18350000086,
      "d": 112.84507812501397,
      "v": 40
    },
    {
      "midi": 59,
      "hit": false,
      "t": 142663.9560000001,
      "d": 1184.0052812500217,
      "v": 99
    },
    {
      "midi": 59,
      "hit": false,
      "t": 142663.9560000004,
      "d": 1013.8696249999921,
      "v": 103
    },
    {
      "midi": 83,
      "hit": false,
      "t": 142663.95600000088,
      "d": 171.8717343749886,
      "v": 62
    },
    {
      "midi": 71,
      "hit": false,
      "t": 142719.51050000088,
      "d": 171.8717343749886,
      "v": 62
    },
    {
      "midi": 86,
      "hit": false,
      "t": 142997.28300000087,
      "d": 190.9685937500035,
      "v": 59
    },
    {
      "midi": 74,
      "hit": false,
      "t": 143052.83750000087,
      "d": 190.9685937500035,
      "v": 59
    },
    {
      "midi": 69,
      "hit": false,
      "t": 143330.61000000016,
      "d": 343.7434687500063,
      "v": 91
    },
    {
      "midi": 69,
      "hit": false,
      "t": 143330.61000000042,
      "d": 190.9685937500035,
      "v": 95
    },
    {
      "midi": 79,
      "hit": false,
      "t": 143330.61000000086,
      "d": 248.25917187499,
      "v": 67
    },
    {
      "midi": 67,
      "hit": false,
      "t": 143386.16450000086,
      "d": 248.25917187499,
      "v": 67
    },
    {
      "midi": 71,
      "hit": false,
      "t": 143663.93700000018,
      "d": 345.4795468749944,
      "v": 89
    },
    {
      "midi": 71,
      "hit": false,
      "t": 143663.9370000004,
      "d": 112.84507812498487,
      "v": 89
    },
    {
      "midi": 83,
      "hit": false,
      "t": 143663.93700000085,
      "d": 76.3874375000014,
      "v": 52
    },
    {
      "midi": 71,
      "hit": false,
      "t": 143719.49150000085,
      "d": 76.3874375000014,
      "v": 52
    },
    {
      "midi": 29,
      "hit": false,
      "t": 143997.26400000008,
      "d": 2005.170234374993,
      "v": 107
    },
    {
      "midi": 57,
      "hit": false,
      "t": 143997.2640000001,
      "d": 1854.1314375000075,
      "v": 77
    },
    {
      "midi": 65,
      "hit": false,
      "t": 143997.2640000001,
      "d": 2694.393250000023,
      "v": 70
    },
    {
      "midi": 60,
      "hit": false,
      "t": 143997.2640000001,
      "d": 7319.3053750000545,
      "v": 83
    },
    {
      "midi": 72,
      "hit": false,
      "t": 143997.26400000017,
      "d": 668.3900781249977,
      "v": 99
    },
    {
      "midi": 72,
      "hit": false,
      "t": 143997.2640000004,
      "d": 666.6540000000095,
      "v": 97
    },
    {
      "midi": 69,
      "hit": false,
      "t": 143997.2640000004,
      "d": 668.3900781249977,
      "v": 103
    },
    {
      "midi": 65,
      "hit": false,
      "t": 143997.2640000004,
      "d": 1031.2304062499898,
      "v": 85
    },
    {
      "midi": 53,
      "hit": false,
      "t": 143997.2640000004,
      "d": 1451.3613124999974,
      "v": 95
    },
    {
      "midi": 81,
      "hit": false,
      "t": 143997.26400000084,
      "d": 208.32937500000116,
      "v": 82
    },
    {
      "midi": 69,
      "hit": false,
      "t": 144052.81850000084,
      "d": 208.32937500000116,
      "v": 82
    },
    {
      "midi": 84,
      "hit": false,
      "t": 144330.59100000083,
      "d": 152.7748750000028,
      "v": 77
    },
    {
      "midi": 72,
      "hit": false,
      "t": 144386.14550000083,
      "d": 152.7748750000028,
      "v": 77
    },
    {
      "midi": 71,
      "hit": false,
      "t": 144663.91800000018,
      "d": 706.5837968749693,
      "v": 91
    },
    {
      "midi": 71,
      "hit": false,
      "t": 144663.9180000004,
      "d": 420.1309062499786,
      "v": 94
    },
    {
      "midi": 89,
      "hit": false,
      "t": 144663.91800000082,
      "d": 152.7748750000028,
      "v": 82
    },
    {
      "midi": 77,
      "hit": false,
      "t": 144719.47250000082,
      "d": 152.7748750000028,
      "v": 82
    },
    {
      "midi": 84,
      "hit": false,
      "t": 144997.2450000008,
      "d": 208.32937500000116,
      "v": 70
    },
    {
      "midi": 72,
      "hit": false,
      "t": 145052.7995000008,
      "d": 208.32937500000116,
      "v": 70
    },
    {
      "midi": 69,
      "hit": false,
      "t": 145330.57200000016,
      "d": 630.196359374997,
      "v": 92
    },
    {
      "midi": 65,
      "hit": false,
      "t": 145330.5720000004,
      "d": 133.678015625017,
      "v": 83
    },
    {
      "midi": 69,
      "hit": false,
      "t": 145330.5720000004,
      "d": 152.7748750000028,
      "v": 83
    },
    {
      "midi": 60,
      "hit": false,
      "t": 145330.5720000004,
      "d": 171.8717343749886,
      "v": 74
    },
    {
      "midi": 93,
      "hit": false,
      "t": 145330.5720000008,
      "d": 210.0654531249893,
      "v": 75
    },
    {
      "midi": 81,
      "hit": false,
      "t": 145386.1265000008,
      "d": 210.0654531249893,
      "v": 75
    },
    {
      "midi": 89,
      "hit": false,
      "t": 145663.8990000008,
      "d": 114.5811562500021,
      "v": 71
    },
    {
      "midi": 77,
      "hit": false,
      "t": 145719.4535000008,
      "d": 114.5811562500021,
      "v": 71
    },
    {
      "midi": 36,
      "hit": false,
      "t": 145997.22600000008,
      "d": 1336.7801562499953,
      "v": 107
    },
    {
      "midi": 67,
      "hit": false,
      "t": 145997.2260000001,
      "d": 1319.4193750000268,
      "v": 74
    },
    {
      "midi": 67,
      "hit": false,
      "t": 145997.22600000017,
      "d": 1319.4193749999977,
      "v": 99
    },
    {
      "midi": 65,
      "hit": false,
      "t": 145997.22600000037,
      "d": 725.6806562500133,
      "v": 91
    },
    {
      "midi": 67,
      "hit": false,
      "t": 145997.22600000037,
      "d": 859.3586718750012,
      "v": 86
    },
    {
      "midi": 48,
      "hit": false,
      "t": 145997.22600000037,
      "d": 897.5523906250019,
      "v": 97
    },
    {
      "midi": 60,
      "hit": false,
      "t": 145997.22600000037,
      "d": 935.7461093750026,
      "v": 83
    },
    {
      "midi": 91,
      "hit": false,
      "t": 145997.22600000078,
      "d": 171.8717343749886,
      "v": 79
    },
    {
      "midi": 79,
      "hit": false,
      "t": 146052.78050000078,
      "d": 171.8717343749886,
      "v": 79
    },
    {
      "midi": 88,
      "hit": false,
      "t": 146330.55300000077,
      "d": 131.94193749999977,
      "v": 60
    },
    {
      "midi": 76,
      "hit": false,
      "t": 146386.10750000077,
      "d": 131.94193749999977,
      "v": 60
    },
    {
      "midi": 64,
      "hit": false,
      "t": 146663.88000000012,
      "d": 649.2932187500119,
      "v": 94
    },
    {
      "midi": 64,
      "hit": false,
      "t": 146663.88000000038,
      "d": 152.7748750000028,
      "v": 107
    },
    {
      "midi": 84,
      "hit": false,
      "t": 146663.88000000076,
      "d": 112.84507812501397,
      "v": 49
    },
    {
      "midi": 72,
      "hit": false,
      "t": 146719.43450000076,
      "d": 112.84507812501397,
      "v": 49
    },
    {
      "midi": 88,
      "hit": false,
      "t": 146997.20700000078,
      "d": 133.6780156249879,
      "v": 70
    },
    {
      "midi": 76,
      "hit": false,
      "t": 147052.76150000078,
      "d": 133.6780156249879,
      "v": 70
    },
    {
      "midi": 41,
      "hit": false,
      "t": 147330.53400000007,
      "d": 706.5837968749984,
      "v": 107
    },
    {
      "midi": 69,
      "hit": false,
      "t": 147330.53400000013,
      "d": 708.3198750000156,
      "v": 56
    },
    {
      "midi": 65,
      "hit": false,
      "t": 147330.53400000013,
      "d": 744.7775156250282,
      "v": 86
    },
    {
      "midi": 69,
      "hit": false,
      "t": 147330.53400000016,
      "d": 343.7434687499772,
      "v": 89
    },
    {
      "midi": 53,
      "hit": false,
      "t": 147330.53400000036,
      "d": 305.5497500000056,
      "v": 94
    },
    {
      "midi": 65,
      "hit": false,
      "t": 147330.53400000036,
      "d": 326.3826875000086,
      "v": 82
    },
    {
      "midi": 69,
      "hit": false,
      "t": 147330.53400000036,
      "d": 342.00739062501816,
      "v": 92
    },
    {
      "midi": 60,
      "hit": false,
      "t": 147330.53400000036,
      "d": 343.7434687500063,
      "v": 83
    },
    {
      "midi": 79,
      "hit": false,
      "t": 147330.53400000077,
      "d": 133.6780156249879,
      "v": 77
    },
    {
      "midi": 67,
      "hit": false,
      "t": 147386.08850000077,
      "d": 133.6780156249879,
      "v": 77
    },
    {
      "midi": 71,
      "hit": false,
      "t": 147663.86100000015,
      "d": 364.5764062499802,
      "v": 91
    },
    {
      "midi": 71,
      "hit": false,
      "t": 147663.86100000038,
      "d": 112.84507812498487,
      "v": 91
    },
    {
      "midi": 81,
      "hit": false,
      "t": 147663.86100000076,
      "d": 131.94193749999977,
      "v": 71
    },
    {
      "midi": 69,
      "hit": false,
      "t": 147719.41550000076,
      "d": 131.94193749999977,
      "v": 71
    },
    {
      "midi": 36,
      "hit": false,
      "t": 147997.18800000008,
      "d": 1336.7801562499953,
      "v": 103
    },
    {
      "midi": 64,
      "hit": false,
      "t": 147997.18800000014,
      "d": 1336.7801562500244,
      "v": 91
    },
    {
      "midi": 67,
      "hit": false,
      "t": 147997.18800000014,
      "d": 1336.7801562500244,
      "v": 85
    },
    {
      "midi": 72,
      "hit": false,
      "t": 147997.18800000014,
      "d": 725.6806562499842,
      "v": 91
    },
    {
      "midi": 72,
      "hit": false,
      "t": 147997.18800000037,
      "d": 592.0026406249963,
      "v": 86
    },
    {
      "midi": 67,
      "hit": false,
      "t": 147997.18800000037,
      "d": 687.4869375000126,
      "v": 83
    },
    {
      "midi": 48,
      "hit": false,
      "t": 147997.18800000037,
      "d": 706.5837968749984,
      "v": 89
    },
    {
      "midi": 64,
      "hit": false,
      "t": 147997.18800000037,
      "d": 763.8743749999849,
      "v": 88
    },
    {
      "midi": 79,
      "hit": false,
      "t": 147997.18800000075,
      "d": 152.7748750000028,
      "v": 82
    },
    {
      "midi": 67,
      "hit": false,
      "t": 148052.74250000075,
      "d": 152.7748750000028,
      "v": 82
    },
    {
      "midi": 84,
      "hit": false,
      "t": 148330.51500000074,
      "d": 93.74821874999907,
      "v": 66
    },
    {
      "midi": 72,
      "hit": false,
      "t": 148386.06950000074,
      "d": 93.74821874999907,
      "v": 66
    },
    {
      "midi": 71,
      "hit": false,
      "t": 148663.84200000012,
      "d": 687.4869375000126,
      "v": 89
    },
    {
      "midi": 71,
      "hit": false,
      "t": 148663.84200000038,
      "d": 133.6780156249879,
      "v": 91
    },
    {
      "midi": 88,
      "hit": false,
      "t": 148663.84200000073,
      "d": 171.8717343749886,
      "v": 70
    },
    {
      "midi": 76,
      "hit": false,
      "t": 148719.39650000073,
      "d": 171.8717343749886,
      "v": 70
    },
    {
      "midi": 84,
      "hit": false,
      "t": 148997.16900000072,
      "d": 114.5811562500021,
      "v": 67
    },
    {
      "midi": 72,
      "hit": false,
      "t": 149052.72350000072,
      "d": 114.5811562500021,
      "v": 67
    },
    {
      "midi": 41,
      "hit": false,
      "t": 149330.49600000007,
      "d": 668.3900781249977,
      "v": 99
    },
    {
      "midi": 69,
      "hit": false,
      "t": 149330.49600000013,
      "d": 668.3900781249977,
      "v": 94
    },
    {
      "midi": 69,
      "hit": false,
      "t": 149330.49600000016,
      "d": 668.3900781249977,
      "v": 74
    },
    {
      "midi": 65,
      "hit": false,
      "t": 149330.49600000016,
      "d": 706.5837968749984,
      "v": 88
    },
    {
      "midi": 53,
      "hit": false,
      "t": 149330.49600000036,
      "d": 248.25917187499,
      "v": 86
    },
    {
      "midi": 65,
      "hit": false,
      "t": 149330.49600000036,
      "d": 265.61995312498766,
      "v": 88
    },
    {
      "midi": 69,
      "hit": false,
      "t": 149330.49600000036,
      "d": 305.5497499999765,
      "v": 89
    },
    {
      "midi": 60,
      "hit": false,
      "t": 149330.49600000036,
      "d": 324.6466093749623,
      "v": 82
    },
    {
      "midi": 89,
      "hit": false,
      "t": 149330.4960000007,
      "d": 190.9685937500035,
      "v": 77
    },
    {
      "midi": 77,
      "hit": false,
      "t": 149386.0505000007,
      "d": 190.9685937500035,
      "v": 77
    },
    {
      "midi": 81,
      "hit": false,
      "t": 149663.8230000007,
      "d": 133.6780156249879,
      "v": 75
    },
    {
      "midi": 69,
      "hit": false,
      "t": 149719.3775000007,
      "d": 133.6780156249879,
      "v": 75
    },
    {
      "midi": 36,
      "hit": false,
      "t": 149997.15000000008,
      "d": 668.3900781249686,
      "v": 88
    },
    {
      "midi": 67,
      "hit": false,
      "t": 149997.15000000014,
      "d": 649.2932187499828,
      "v": 86
    },
    {
      "midi": 64,
      "hit": false,
      "t": 149997.15000000017,
      "d": 611.0994999999821,
      "v": 88
    },
    {
      "midi": 67,
      "hit": false,
      "t": 149997.15000000017,
      "d": 687.4869374999835,
      "v": 74
    },
    {
      "midi": 60,
      "hit": false,
      "t": 149997.1500000003,
      "d": 342.00739062498906,
      "v": 75
    },
    {
      "midi": 48,
      "hit": false,
      "t": 149997.1500000003,
      "d": 343.7434687499772,
      "v": 97
    },
    {
      "midi": 64,
      "hit": false,
      "t": 149997.1500000003,
      "d": 361.10424999997485,
      "v": 95
    },
    {
      "midi": 67,
      "hit": false,
      "t": 149997.1500000003,
      "d": 361.10424999997485,
      "v": 89
    },
    {
      "midi": 88,
      "hit": false,
      "t": 149997.1500000007,
      "d": 284.71681250000256,
      "v": 65
    },
    {
      "midi": 76,
      "hit": false,
      "t": 150052.7045000007,
      "d": 284.71681250000256,
      "v": 65
    },
    {
      "midi": 79,
      "hit": false,
      "t": 150330.47700000068,
      "d": 112.84507812501397,
      "v": 68
    },
    {
      "midi": 67,
      "hit": false,
      "t": 150386.03150000068,
      "d": 112.84507812501397,
      "v": 68
    },
    {
      "midi": 41,
      "hit": false,
      "t": 150663.80400000006,
      "d": 725.6806562499842,
      "v": 101
    },
    {
      "midi": 69,
      "hit": false,
      "t": 150663.80400000012,
      "d": 687.4869375000126,
      "v": 95
    },
    {
      "midi": 65,
      "hit": false,
      "t": 150663.80400000015,
      "d": 708.3198750000156,
      "v": 80
    },
    {
      "midi": 69,
      "hit": false,
      "t": 150663.80400000015,
      "d": 744.7775156250282,
      "v": 95
    },
    {
      "midi": 60,
      "hit": false,
      "t": 150663.8040000003,
      "d": 267.3560312500049,
      "v": 86
    },
    {
      "midi": 65,
      "hit": false,
      "t": 150663.8040000003,
      "d": 286.4528906249907,
      "v": 85
    },
    {
      "midi": 69,
      "hit": false,
      "t": 150663.8040000003,
      "d": 305.5497499999765,
      "v": 94
    },
    {
      "midi": 53,
      "hit": false,
      "t": 150663.8040000003,
      "d": 324.6466093749623,
      "v": 89
    },
    {
      "midi": 89,
      "hit": false,
      "t": 150663.8040000007,
      "d": 343.7434687499772,
      "v": 68
    },
    {
      "midi": 77,
      "hit": false,
      "t": 150719.3585000007,
      "d": 343.7434687499772,
      "v": 68
    },
    {
      "midi": 81,
      "hit": false,
      "t": 150997.1310000007,
      "d": 133.6780156249879,
      "v": 64
    },
    {
      "midi": 69,
      "hit": false,
      "t": 151052.6855000007,
      "d": 133.6780156249879,
      "v": 64
    },
    {
      "midi": 43,
      "hit": false,
      "t": 151330.45800000004,
      "d": 668.3900781249977,
      "v": 101
    },
    {
      "midi": 71,
      "hit": false,
      "t": 151330.45800000013,
      "d": 725.6806562500133,
      "v": 89
    },
    {
      "midi": 62,
      "hit": false,
      "t": 151330.45800000016,
      "d": 477.4214843750233,
      "v": 64
    },
    {
      "midi": 71,
      "hit": false,
      "t": 151330.45800000016,
      "d": 670.1261562500149,
      "v": 66
    },
    {
      "midi": 67,
      "hit": false,
      "t": 151330.45800000016,
      "d": 1951.351812500041,
      "v": 92
    },
    {
      "midi": 55,
      "hit": false,
      "t": 151330.45800000025,
      "d": 284.71681250000256,
      "v": 67
    },
    {
      "midi": 71,
      "hit": false,
      "t": 151330.45800000025,
      "d": 284.71681250000256,
      "v": 85
    },
    {
      "midi": 62,
      "hit": false,
      "t": 151330.45800000025,
      "d": 305.5497500000056,
      "v": 68
    },
    {
      "midi": 67,
      "hit": false,
      "t": 151330.45800000025,
      "d": 324.6466093749914,
      "v": 82
    },
    {
      "midi": 91,
      "hit": false,
      "t": 151330.45800000068,
      "d": 305.5497500000056,
      "v": 72
    },
    {
      "midi": 79,
      "hit": false,
      "t": 151386.01250000068,
      "d": 305.5497500000056,
      "v": 72
    },
    {
      "midi": 83,
      "hit": false,
      "t": 151663.7850000007,
      "d": 131.94193749999977,
      "v": 74
    },
    {
      "midi": 71,
      "hit": false,
      "t": 151719.3395000007,
      "d": 131.94193749999977,
      "v": 74
    },
    {
      "midi": 36,
      "hit": false,
      "t": 151997.11200000005,
      "d": 1357.6130937499984,
      "v": 97
    },
    {
      "midi": 72,
      "hit": false,
      "t": 151997.11200000014,
      "d": 649.2932187500119,
      "v": 95
    },
    {
      "midi": 72,
      "hit": false,
      "t": 151997.11200000017,
      "d": 611.0995000000112,
      "v": 80
    },
    {
      "midi": 64,
      "hit": false,
      "t": 151997.11200000017,
      "d": 1298.5864375000237,
      "v": 92
    },
    {
      "midi": 67,
      "hit": false,
      "t": 151997.11200000023,
      "d": 171.8717343749886,
      "v": 85
    },
    {
      "midi": 72,
      "hit": false,
      "t": 151997.11200000023,
      "d": 190.9685937499744,
      "v": 95
    },
    {
      "midi": 64,
      "hit": false,
      "t": 151997.11200000023,
      "d": 763.8743749999849,
      "v": 97
    },
    {
      "midi": 48,
      "hit": false,
      "t": 151997.11200000023,
      "d": 782.9712343749998,
      "v": 92
    },
    {
      "midi": 88,
      "hit": false,
      "t": 151997.1120000007,
      "d": 133.6780156249879,
      "v": 74
    },
    {
      "midi": 76,
      "hit": false,
      "t": 152052.6665000007,
      "d": 133.6780156249879,
      "v": 74
    },
    {
      "midi": 79,
      "hit": false,
      "t": 152330.43900000068,
      "d": 246.52309375000186,
      "v": 59
    },
    {
      "midi": 67,
      "hit": false,
      "t": 152385.99350000068,
      "d": 246.52309375000186,
      "v": 59
    },
    {
      "midi": 67,
      "hit": false,
      "t": 152663.76600000015,
      "d": 687.4869375000126,
      "v": 94
    },
    {
      "midi": 60,
      "hit": false,
      "t": 152663.76600000018,
      "d": 496.5183437500091,
      "v": 94
    },
    {
      "midi": 67,
      "hit": false,
      "t": 152663.7660000002,
      "d": 112.84507812501397,
      "v": 77
    },
    {
      "midi": 84,
      "hit": false,
      "t": 152663.76600000067,
      "d": 131.94193749999977,
      "v": 71
    },
    {
      "midi": 72,
      "hit": false,
      "t": 152719.32050000067,
      "d": 131.94193749999977,
      "v": 71
    },
    {
      "midi": 88,
      "hit": false,
      "t": 152997.09300000066,
      "d": 95.4842968749872,
      "v": 67
    },
    {
      "midi": 76,
      "hit": false,
      "t": 153052.64750000066,
      "d": 95.4842968749872,
      "v": 67
    },
    {
      "midi": 31,
      "hit": false,
      "t": 153330.42000000004,
      "d": 668.3900781249977,
      "v": 103
    },
    {
      "midi": 65,
      "hit": false,
      "t": 153330.42000000016,
      "d": 666.6540000000095,
      "v": 91
    },
    {
      "midi": 57,
      "hit": false,
      "t": 153330.4200000002,
      "d": 571.1697031249932,
      "v": 86
    },
    {
      "midi": 55,
      "hit": false,
      "t": 153330.4200000002,
      "d": 592.0026406249963,
      "v": 56
    },
    {
      "midi": 65,
      "hit": false,
      "t": 153330.4200000002,
      "d": 647.5571406249946,
      "v": 82
    },
    {
      "midi": 62,
      "hit": false,
      "t": 153330.4200000002,
      "d": 687.4869374999835,
      "v": 65
    },
    {
      "midi": 62,
      "hit": false,
      "t": 153330.42000000022,
      "d": 210.0654531249893,
      "v": 82
    },
    {
      "midi": 55,
      "hit": false,
      "t": 153330.42000000022,
      "d": 248.25917187499,
      "v": 68
    },
    {
      "midi": 59,
      "hit": false,
      "t": 153330.42000000022,
      "d": 248.25917187499,
      "v": 85
    },
    {
      "midi": 65,
      "hit": false,
      "t": 153330.42000000022,
      "d": 267.3560312499758,
      "v": 77
    },
    {
      "midi": 89,
      "hit": false,
      "t": 153330.42000000065,
      "d": 131.94193749999977,
      "v": 79
    },
    {
      "midi": 77,
      "hit": false,
      "t": 153385.97450000065,
      "d": 131.94193749999977,
      "v": 79
    },
    {
      "midi": 83,
      "hit": false,
      "t": 153663.74700000064,
      "d": 114.5811562500021,
      "v": 66
    },
    {
      "midi": 71,
      "hit": false,
      "t": 153719.30150000064,
      "d": 114.5811562500021,
      "v": 66
    },
    {
      "midi": 36,
      "hit": false,
      "t": 153997.07400000005,
      "d": 1031.2304062499898,
      "v": 99
    },
    {
      "midi": 55,
      "hit": false,
      "t": 153997.07400000017,
      "d": 1243.0319374999963,
      "v": 70
    },
    {
      "midi": 60,
      "hit": false,
      "t": 153997.07400000017,
      "d": 1355.8770156249811,
      "v": 80
    },
    {
      "midi": 64,
      "hit": false,
      "t": 153997.07400000017,
      "d": 4069.3671249999315,
      "v": 94
    },
    {
      "midi": 64,
      "hit": false,
      "t": 153997.07400000017,
      "d": 1184.0052812499925,
      "v": 103
    },
    {
      "midi": 60,
      "hit": false,
      "t": 153997.0740000002,
      "d": 770.8186874999956,
      "v": 85
    },
    {
      "midi": 55,
      "hit": false,
      "t": 153997.0740000002,
      "d": 866.3029843749828,
      "v": 71
    },
    {
      "midi": 64,
      "hit": false,
      "t": 153997.0740000002,
      "d": 866.3029843749828,
      "v": 95
    },
    {
      "midi": 48,
      "hit": false,
      "t": 153997.0740000002,
      "d": 923.5935624999693,
      "v": 83
    },
    {
      "midi": 88,
      "hit": false,
      "t": 153997.07400000063,
      "d": 152.7748750000028,
      "v": 83
    },
    {
      "midi": 76,
      "hit": false,
      "t": 154052.62850000063,
      "d": 152.7748750000028,
      "v": 83
    },
    {
      "midi": 79,
      "hit": false,
      "t": 154330.40100000062,
      "d": 305.5497500000056,
      "v": 60
    },
    {
      "midi": 67,
      "hit": false,
      "t": 154385.95550000062,
      "d": 305.5497500000056,
      "v": 60
    },
    {
      "midi": 84,
      "hit": false,
      "t": 154663.72800000064,
      "d": 305.5497500000056,
      "v": 64
    },
    {
      "midi": 72,
      "hit": false,
      "t": 154719.28250000064,
      "d": 305.5497500000056,
      "v": 64
    },
    {
      "midi": 88,
      "hit": false,
      "t": 154997.05500000066,
      "d": 133.6780156249879,
      "v": 58
    },
    {
      "midi": 76,
      "hit": false,
      "t": 155052.60950000066,
      "d": 133.6780156249879,
      "v": 58
    },
    {
      "midi": 31,
      "hit": false,
      "t": 155330.38200000004,
      "d": 725.6806562500133,
      "v": 95
    },
    {
      "midi": 43,
      "hit": false,
      "t": 155330.38200000016,
      "d": 229.1623125000042,
      "v": 77
    },
    {
      "midi": 64,
      "hit": false,
      "t": 155330.38200000016,
      "d": 284.71681250000256,
      "v": 103
    },
    {
      "midi": 59,
      "hit": false,
      "t": 155330.38200000016,
      "d": 361.10425000000396,
      "v": 103
    },
    {
      "midi": 53,
      "hit": false,
      "t": 155330.38200000016,
      "d": 458.3246249999793,
      "v": 86
    },
    {
      "midi": 53,
      "hit": false,
      "t": 155330.38200000016,
      "d": 590.266562499979,
      "v": 88
    },
    {
      "midi": 59,
      "hit": false,
      "t": 155330.38200000016,
      "d": 706.5837968749693,
      "v": 105
    },
    {
      "midi": 64,
      "hit": false,
      "t": 155330.38200000016,
      "d": 342.00739062498906,
      "v": 109
    },
    {
      "midi": 86,
      "hit": false,
      "t": 155330.38200000065,
      "d": 343.7434687499772,
      "v": 30
    },
    {
      "midi": 74,
      "hit": false,
      "t": 155385.93650000065,
      "d": 343.7434687499772,
      "v": 30
    },
    {
      "midi": 62,
      "hit": false,
      "t": 155663.70900000015,
      "d": 76.3874375000014,
      "v": 83
    },
    {
      "midi": 62,
      "hit": false,
      "t": 155663.70900000015,
      "d": 361.10425000000396,
      "v": 82
    },
    {
      "midi": 83,
      "hit": false,
      "t": 155663.70900000064,
      "d": 114.58115624997299,
      "v": 60
    },
    {
      "midi": 71,
      "hit": false,
      "t": 155719.26350000064,
      "d": 114.58115624997299,
      "v": 60
    },
    {
      "midi": 36,
      "hit": false,
      "t": 155997.03600000005,
      "d": 1565.9424687499995,
      "v": 97
    },
    {
      "midi": 55,
      "hit": false,
      "t": 155997.03600000014,
      "d": 418.39482812499045,
      "v": 70
    },
    {
      "midi": 52,
      "hit": false,
      "t": 155997.03600000014,
      "d": 590.266562499979,
      "v": 79
    },
    {
      "midi": 60,
      "hit": false,
      "t": 155997.03600000014,
      "d": 993.0366874999891,
      "v": 101
    },
    {
      "midi": 48,
      "hit": false,
      "t": 155997.03600000014,
      "d": 1682.2597031250189,
      "v": 94
    },
    {
      "midi": 60,
      "hit": false,
      "t": 155997.03600000014,
      "d": 1814.2016406249895,
      "v": 72
    },
    {
      "midi": 55,
      "hit": false,
      "t": 155997.03600000014,
      "d": 1833.2984999999753,
      "v": 82
    },
    {
      "midi": 60,
      "hit": false,
      "t": 155997.03600000014,
      "d": 1012.133546875004,
      "v": 99
    },
    {
      "midi": 88,
      "hit": false,
      "t": 155997.0360000006,
      "d": 210.0654531249893,
      "v": 79
    },
    {
      "midi": 76,
      "hit": false,
      "t": 156052.5905000006,
      "d": 210.0654531249893,
      "v": 79
    },
    {
      "midi": 79,
      "hit": false,
      "t": 156330.3630000006,
      "d": 189.23251562498626,
      "v": 67
    },
    {
      "midi": 67,
      "hit": false,
      "t": 156385.9175000006,
      "d": 189.23251562498626,
      "v": 67
    },
    {
      "midi": 84,
      "hit": false,
      "t": 156663.69000000058,
      "d": 152.7748750000028,
      "v": 58
    },
    {
      "midi": 72,
      "hit": false,
      "t": 156719.24450000058,
      "d": 152.7748750000028,
      "v": 58
    },
    {
      "midi": 62,
      "hit": false,
      "t": 156997.01700000014,
      "d": 326.3826875000086,
      "v": 85
    },
    {
      "midi": 62,
      "hit": false,
      "t": 156997.01700000014,
      "d": 343.7434687499772,
      "v": 83
    },
    {
      "midi": 86,
      "hit": false,
      "t": 156997.01700000057,
      "d": 171.8717343749886,
      "v": 53
    },
    {
      "midi": 74,
      "hit": false,
      "t": 157052.57150000057,
      "d": 171.8717343749886,
      "v": 53
    },
    {
      "midi": 64,
      "hit": false,
      "t": 157330.34400000013,
      "d": 343.7434687499772,
      "v": 107
    },
    {
      "midi": 64,
      "hit": false,
      "t": 157330.34400000016,
      "d": 324.6466093749914,
      "v": 94
    },
    {
      "midi": 88,
      "hit": false,
      "t": 157330.34400000056,
      "d": 248.25917187499,
      "v": 61
    },
    {
      "midi": 76,
      "hit": false,
      "t": 157385.89850000056,
      "d": 248.25917187499,
      "v": 61
    },
    {
      "midi": 36,
      "hit": false,
      "t": 157663.67100000006,
      "d": 324.6466093749914,
      "v": 94
    },
    {
      "midi": 65,
      "hit": false,
      "t": 157663.67100000012,
      "d": 362.8403281249921,
      "v": 80
    },
    {
      "midi": 65,
      "hit": false,
      "t": 157663.67100000015,
      "d": 131.94193749999977,
      "v": 89
    },
    {
      "midi": 84,
      "hit": false,
      "t": 157663.67100000056,
      "d": 133.6780156249879,
      "v": 64
    },
    {
      "midi": 72,
      "hit": false,
      "t": 157719.22550000055,
      "d": 133.6780156249879,
      "v": 64
    },
    {
      "midi": 40,
      "hit": false,
      "t": 157996.99800000005,
      "d": 2043.3639531249937,
      "v": 95
    },
    {
      "midi": 59,
      "hit": false,
      "t": 157996.9980000001,
      "d": 1814.2016406249895,
      "v": 88
    },
    {
      "midi": 62,
      "hit": false,
      "t": 157996.9980000001,
      "d": 1854.1314374999783,
      "v": 71
    },
    {
      "midi": 67,
      "hit": false,
      "t": 157996.9980000001,
      "d": 1871.492218749976,
      "v": 64
    },
    {
      "midi": 67,
      "hit": false,
      "t": 157996.9980000001,
      "d": 1355.8770156249811,
      "v": 92
    },
    {
      "midi": 59,
      "hit": false,
      "t": 157996.99800000014,
      "d": 687.4869374999835,
      "v": 99
    },
    {
      "midi": 62,
      "hit": false,
      "t": 157996.99800000014,
      "d": 920.121406249993,
      "v": 94
    },
    {
      "midi": 67,
      "hit": false,
      "t": 157996.99800000014,
      "d": 977.4119843749795,
      "v": 99
    },
    {
      "midi": 52,
      "hit": false,
      "t": 157996.99800000014,
      "d": 1760.3832187499793,
      "v": 95
    },
    {
      "midi": 86,
      "hit": false,
      "t": 157996.99800000055,
      "d": 171.8717343749886,
      "v": 66
    },
    {
      "midi": 74,
      "hit": false,
      "t": 158052.55250000054,
      "d": 171.8717343749886,
      "v": 66
    },
    {
      "midi": 79,
      "hit": false,
      "t": 158330.32500000054,
      "d": 190.9685937500035,
      "v": 70
    },
    {
      "midi": 67,
      "hit": false,
      "t": 158385.87950000053,
      "d": 190.9685937500035,
      "v": 70
    },
    {
      "midi": 83,
      "hit": false,
      "t": 158663.65200000053,
      "d": 131.94193749999977,
      "v": 77
    },
    {
      "midi": 71,
      "hit": false,
      "t": 158719.20650000052,
      "d": 131.94193749999977,
      "v": 77
    },
    {
      "midi": 86,
      "hit": false,
      "t": 158996.97900000052,
      "d": 189.23251562498626,
      "v": 55
    },
    {
      "midi": 74,
      "hit": false,
      "t": 159052.5335000005,
      "d": 189.23251562498626,
      "v": 55
    },
    {
      "midi": 72,
      "hit": false,
      "t": 159330.3060000001,
      "d": 326.3826874999795,
      "v": 103
    },
    {
      "midi": 72,
      "hit": false,
      "t": 159330.30600000013,
      "d": 284.71681250000256,
      "v": 94
    },
    {
      "midi": 91,
      "hit": false,
      "t": 159330.3060000005,
      "d": 284.71681250000256,
      "v": 68
    },
    {
      "midi": 79,
      "hit": false,
      "t": 159385.8605000005,
      "d": 284.71681250000256,
      "v": 68
    },
    {
      "midi": 71,
      "hit": false,
      "t": 159663.6330000001,
      "d": 343.7434687499772,
      "v": 92
    },
    {
      "midi": 71,
      "hit": false,
      "t": 159663.63300000012,
      "d": 95.4842968749872,
      "v": 89
    },
    {
      "midi": 83,
      "hit": false,
      "t": 159663.6330000005,
      "d": 114.5811562500021,
      "v": 74
    },
    {
      "midi": 71,
      "hit": false,
      "t": 159719.1875000005,
      "d": 114.5811562500021,
      "v": 74
    },
    {
      "midi": 29,
      "hit": false,
      "t": 159996.96000000005,
      "d": 1279.4895781249797,
      "v": 101
    },
    {
      "midi": 67,
      "hit": false,
      "t": 159996.96000000008,
      "d": 687.4869375000126,
      "v": 70
    },
    {
      "midi": 69,
      "hit": false,
      "t": 159996.96000000008,
      "d": 1947.8796562500065,
      "v": 77
    },
    {
      "midi": 60,
      "hit": false,
      "t": 159996.96000000008,
      "d": 3897.4953906250303,
      "v": 74
    },
    {
      "midi": 69,
      "hit": false,
      "t": 159996.96000000008,
      "d": 1241.295859374979,
      "v": 95
    },
    {
      "midi": 67,
      "hit": false,
      "t": 159996.9600000001,
      "d": 687.4869375000126,
      "v": 101
    },
    {
      "midi": 69,
      "hit": false,
      "t": 159996.9600000001,
      "d": 1013.8696250000212,
      "v": 94
    },
    {
      "midi": 60,
      "hit": false,
      "t": 159996.9600000001,
      "d": 1451.3613124999974,
      "v": 83
    },
    {
      "midi": 53,
      "hit": false,
      "t": 159996.9600000001,
      "d": 1470.4581718749832,
      "v": 83
    },
    {
      "midi": 89,
      "hit": false,
      "t": 159996.9600000005,
      "d": 190.9685937500035,
      "v": 66
    },
    {
      "midi": 77,
      "hit": false,
      "t": 160052.51450000048,
      "d": 190.9685937500035,
      "v": 66
    },
    {
      "midi": 81,
      "hit": false,
      "t": 160330.28700000048,
      "d": 229.1623125000042,
      "v": 62
    },
    {
      "midi": 69,
      "hit": false,
      "t": 160385.84150000048,
      "d": 229.1623125000042,
      "v": 62
    },
    {
      "midi": 65,
      "hit": false,
      "t": 160663.6140000001,
      "d": 2006.9063125000102,
      "v": 86
    },
    {
      "midi": 65,
      "hit": false,
      "t": 160663.61400000012,
      "d": 362.8403281250212,
      "v": 77
    },
    {
      "midi": 84,
      "hit": false,
      "t": 160663.61400000047,
      "d": 189.23251562498626,
      "v": 64
    },
    {
      "midi": 72,
      "hit": false,
      "t": 160719.16850000047,
      "d": 189.23251562498626,
      "v": 64
    },
    {
      "midi": 89,
      "hit": false,
      "t": 160996.94100000046,
      "d": 190.9685937500035,
      "v": 75
    },
    {
      "midi": 77,
      "hit": false,
      "t": 161052.49550000046,
      "d": 190.9685937500035,
      "v": 75
    },
    {
      "midi": 29,
      "hit": false,
      "t": 161330.26800000004,
      "d": 668.3900781249977,
      "v": 99
    },
    {
      "midi": 69,
      "hit": false,
      "t": 161330.26800000007,
      "d": 670.1261562500149,
      "v": 95
    },
    {
      "midi": 69,
      "hit": false,
      "t": 161330.26800000013,
      "d": 95.4842968749872,
      "v": 94
    },
    {
      "midi": 65,
      "hit": false,
      "t": 161330.26800000013,
      "d": 131.94193749997066,
      "v": 85
    },
    {
      "midi": 81,
      "hit": false,
      "t": 161330.26800000045,
      "d": 229.1623125000042,
      "v": 71
    },
    {
      "midi": 69,
      "hit": false,
      "t": 161385.82250000045,
      "d": 229.1623125000042,
      "v": 71
    },
    {
      "midi": 84,
      "hit": false,
      "t": 161663.59500000044,
      "d": 157.98310937499627,
      "v": 58
    },
    {
      "midi": 72,
      "hit": false,
      "t": 161719.14950000044,
      "d": 157.98310937499627,
      "v": 58
    },
    {
      "midi": 36,
      "hit": false,
      "t": 161996.92200000005,
      "d": 1338.5162343749835,
      "v": 107
    },
    {
      "midi": 65,
      "hit": false,
      "t": 161996.92200000008,
      "d": 706.5837968749693,
      "v": 92
    },
    {
      "midi": 48,
      "hit": false,
      "t": 161996.92200000008,
      "d": 1432.2644531249534,
      "v": 80
    },
    {
      "midi": 60,
      "hit": false,
      "t": 161996.92200000008,
      "d": 1432.2644531249534,
      "v": 83
    },
    {
      "midi": 67,
      "hit": false,
      "t": 161996.92200000008,
      "d": 1472.1942499999714,
      "v": 91
    },
    {
      "midi": 67,
      "hit": false,
      "t": 161996.92200000008,
      "d": 1909.685937500035,
      "v": 85
    },
    {
      "midi": 67,
      "hit": false,
      "t": 161996.92200000008,
      "d": 1814.2016406250186,
      "v": 99
    },
    {
      "midi": 88,
      "hit": false,
      "t": 161996.92200000043,
      "d": 305.5497500000056,
      "v": 75
    },
    {
      "midi": 76,
      "hit": false,
      "t": 162052.47650000043,
      "d": 305.5497500000056,
      "v": 75
    },
    {
      "midi": 79,
      "hit": false,
      "t": 162330.24900000045,
      "d": 152.7748750000028,
      "v": 66
    },
    {
      "midi": 67,
      "hit": false,
      "t": 162385.80350000045,
      "d": 152.7748750000028,
      "v": 66
    },
    {
      "midi": 64,
      "hit": false,
      "t": 162663.57600000006,
      "d": 496.51834374998,
      "v": 86
    },
    {
      "midi": 64,
      "hit": false,
      "t": 162663.5760000001,
      "d": 1222.1990000000224,
      "v": 92
    },
    {
      "midi": 84,
      "hit": false,
      "t": 162663.57600000044,
      "d": 131.94193749999977,
      "v": 65
    },
    {
      "midi": 72,
      "hit": false,
      "t": 162719.13050000044,
      "d": 131.94193749999977,
      "v": 65
    },
    {
      "midi": 86,
      "hit": false,
      "t": 162996.90300000043,
      "d": 229.1623125000042,
      "v": 58
    },
    {
      "midi": 74,
      "hit": false,
      "t": 163052.45750000043,
      "d": 229.1623125000042,
      "v": 58
    },
    {
      "midi": 62,
      "hit": false,
      "t": 163330.23000000004,
      "d": 114.5811562500021,
      "v": 74
    },
    {
      "midi": 35,
      "hit": false,
      "t": 163330.23000000004,
      "d": 687.4869374999835,
      "v": 103
    },
    {
      "midi": 88,
      "hit": false,
      "t": 163330.23000000042,
      "d": 265.61995312498766,
      "v": 67
    },
    {
      "midi": 76,
      "hit": false,
      "t": 163385.78450000042,
      "d": 265.61995312498766,
      "v": 67
    },
    {
      "midi": 84,
      "hit": false,
      "t": 163663.5570000004,
      "d": 76.3874375000014,
      "v": 54
    },
    {
      "midi": 72,
      "hit": false,
      "t": 163719.1115000004,
      "d": 76.3874375000014,
      "v": 54
    },
    {
      "midi": 33,
      "hit": false,
      "t": 163996.88400000002,
      "d": 668.3900781249977,
      "v": 97
    },
    {
      "midi": 72,
      "hit": false,
      "t": 163996.88400000005,
      "d": 229.1623125000042,
      "v": 103
    },
    {
      "midi": 64,
      "hit": false,
      "t": 163996.88400000005,
      "d": 286.4528906249907,
      "v": 103
    },
    {
      "midi": 69,
      "hit": false,
      "t": 163996.88400000005,
      "d": 286.4528906249907,
      "v": 95
    },
    {
      "midi": 57,
      "hit": false,
      "t": 163996.88400000005,
      "d": 420.1309062499786,
      "v": 97
    },
    {
      "midi": 60,
      "hit": false,
      "t": 163996.8840000001,
      "d": 572.9057812500105,
      "v": 79
    },
    {
      "midi": 57,
      "hit": false,
      "t": 163996.8840000001,
      "d": 590.2665625000081,
      "v": 80
    },
    {
      "midi": 64,
      "hit": false,
      "t": 163996.8840000001,
      "d": 708.3198750000156,
      "v": 91
    },
    {
      "midi": 72,
      "hit": false,
      "t": 163996.8840000001,
      "d": 666.6540000000095,
      "v": 99
    },
    {
      "midi": 88,
      "hit": false,
      "t": 163996.8840000004,
      "d": 267.3560312500049,
      "v": 67
    },
    {
      "midi": 76,
      "hit": false,
      "t": 164052.4385000004,
      "d": 267.3560312500049,
      "v": 67
    },
    {
      "midi": 81,
      "hit": false,
      "t": 164330.21100000042,
      "d": 190.9685937500035,
      "v": 70
    },
    {
      "midi": 69,
      "hit": false,
      "t": 164385.76550000042,
      "d": 190.9685937500035,
      "v": 70
    },
    {
      "midi": 67,
      "hit": false,
      "t": 164663.53800000003,
      "d": 229.1623125000042,
      "v": 95
    },
    {
      "midi": 55,
      "hit": false,
      "t": 164663.53800000003,
      "d": 248.25917187499,
      "v": 77
    },
    {
      "midi": 71,
      "hit": false,
      "t": 164663.53800000003,
      "d": 248.25917187499,
      "v": 92
    },
    {
      "midi": 62,
      "hit": false,
      "t": 164663.53800000003,
      "d": 324.6466093749914,
      "v": 72
    },
    {
      "midi": 31,
      "hit": false,
      "t": 164663.53800000003,
      "d": 687.4869374999835,
      "v": 88
    },
    {
      "midi": 59,
      "hit": false,
      "t": 164663.53800000012,
      "d": 439.2277656249935,
      "v": 86
    },
    {
      "midi": 55,
      "hit": false,
      "t": 164663.53800000012,
      "d": 572.9057812499814,
      "v": 68
    },
    {
      "midi": 62,
      "hit": false,
      "t": 164663.53800000012,
      "d": 687.4869374999835,
      "v": 80
    },
    {
      "midi": 71,
      "hit": false,
      "t": 164663.53800000012,
      "d": 725.6806562500133,
      "v": 97
    },
    {
      "midi": 86,
      "hit": false,
      "t": 164663.5380000004,
      "d": 324.6466093749914,
      "v": 60
    },
    {
      "midi": 74,
      "hit": false,
      "t": 164719.0925000004,
      "d": 324.6466093749914,
      "v": 60
    },
    {
      "midi": 83,
      "hit": false,
      "t": 164996.8650000004,
      "d": 152.7748750000028,
      "v": 74
    },
    {
      "midi": 71,
      "hit": false,
      "t": 165052.4195000004,
      "d": 152.7748750000028,
      "v": 74
    },
    {
      "midi": 65,
      "hit": false,
      "t": 165330.192,
      "d": 265.61995312498766,
      "v": 92
    },
    {
      "midi": 53,
      "hit": false,
      "t": 165330.192,
      "d": 286.4528906249907,
      "v": 89
    },
    {
      "midi": 69,
      "hit": false,
      "t": 165330.192,
      "d": 305.5497499999765,
      "v": 91
    },
    {
      "midi": 60,
      "hit": false,
      "t": 165330.192,
      "d": 342.00739062498906,
      "v": 85
    },
    {
      "midi": 29,
      "hit": false,
      "t": 165330.192,
      "d": 687.4869375000126,
      "v": 91
    },
    {
      "midi": 57,
      "hit": false,
      "t": 165330.1920000001,
      "d": 513.8791250000068,
      "v": 77
    },
    {
      "midi": 65,
      "hit": false,
      "t": 165330.1920000001,
      "d": 666.6540000000095,
      "v": 79
    },
    {
      "midi": 60,
      "hit": false,
      "t": 165330.1920000001,
      "d": 1833.2985000000335,
      "v": 83
    },
    {
      "midi": 69,
      "hit": false,
      "t": 165330.19200000013,
      "d": 649.2932187500119,
      "v": 97
    },
    {
      "midi": 89,
      "hit": false,
      "t": 165330.1920000004,
      "d": 305.5497500000056,
      "v": 56
    },
    {
      "midi": 77,
      "hit": false,
      "t": 165385.7465000004,
      "d": 305.5497500000056,
      "v": 56
    },
    {
      "midi": 84,
      "hit": false,
      "t": 165663.5190000004,
      "d": 171.8717343749886,
      "v": 67
    },
    {
      "midi": 72,
      "hit": false,
      "t": 165719.0735000004,
      "d": 171.8717343749886,
      "v": 67
    },
    {
      "midi": 48,
      "hit": false,
      "t": 165996.846,
      "d": 248.25917187499,
      "v": 88
    },
    {
      "midi": 60,
      "hit": false,
      "t": 165996.846,
      "d": 248.25917187499,
      "v": 77
    },
    {
      "midi": 64,
      "hit": false,
      "t": 165996.846,
      "d": 267.3560312499758,
      "v": 95
    },
    {
      "midi": 67,
      "hit": false,
      "t": 165996.846,
      "d": 267.3560312499758,
      "v": 86
    },
    {
      "midi": 36,
      "hit": false,
      "t": 165996.84600000002,
      "d": 631.9324375000142,
      "v": 97
    },
    {
      "midi": 64,
      "hit": false,
      "t": 165996.8460000001,
      "d": 631.9324375000142,
      "v": 105
    },
    {
      "midi": 67,
      "hit": false,
      "t": 165996.8460000001,
      "d": 725.6806562500133,
      "v": 71
    },
    {
      "midi": 67,
      "hit": false,
      "t": 165996.84600000014,
      "d": 706.5837968749984,
      "v": 103
    },
    {
      "midi": 88,
      "hit": false,
      "t": 165996.8460000004,
      "d": 152.7748750000028,
      "v": 56
    },
    {
      "midi": 76,
      "hit": false,
      "t": 166052.4005000004,
      "d": 152.7748750000028,
      "v": 56
    },
    {
      "midi": 84,
      "hit": false,
      "t": 166330.1730000004,
      "d": 93.74821874999907,
      "v": 77
    },
    {
      "midi": 72,
      "hit": false,
      "t": 166385.7275000004,
      "d": 93.74821874999907,
      "v": 77
    },
    {
      "midi": 60,
      "hit": false,
      "t": 166663.49999999997,
      "d": 286.4528906249907,
      "v": 85
    },
    {
      "midi": 69,
      "hit": false,
      "t": 166663.49999999997,
      "d": 286.4528906249907,
      "v": 83
    },
    {
      "midi": 65,
      "hit": false,
      "t": 166663.49999999997,
      "d": 324.6466093749914,
      "v": 83
    },
    {
      "midi": 53,
      "hit": false,
      "t": 166663.49999999997,
      "d": 343.7434687499772,
      "v": 95
    },
    {
      "midi": 29,
      "hit": false,
      "t": 166663.50000000003,
      "d": 690.9590937500179,
      "v": 89
    },
    {
      "midi": 69,
      "hit": false,
      "t": 166663.50000000012,
      "d": 706.5837968749984,
      "v": 82
    },
    {
      "midi": 65,
      "hit": false,
      "t": 166663.50000000012,
      "d": 1241.2958593750081,
      "v": 70
    },
    {
      "midi": 69,
      "hit": false,
      "t": 166663.50000000015,
      "d": 687.4869374999835,
      "v": 97
    },
    {
      "midi": 89,
      "hit": false,
      "t": 166663.50000000038,
      "d": 190.9685937500035,
      "v": 80
    },
    {
      "midi": 77,
      "hit": false,
      "t": 166719.05450000038,
      "d": 190.9685937500035,
      "v": 80
    },
    {
      "midi": 84,
      "hit": false,
      "t": 166996.82700000037,
      "d": 152.7748750000028,
      "v": 58
    },
    {
      "midi": 72,
      "hit": false,
      "t": 167052.38150000037,
      "d": 152.7748750000028,
      "v": 58
    },
    {
      "midi": 55,
      "hit": false,
      "t": 167330.15399999995,
      "d": 229.1623125000042,
      "v": 85
    },
    {
      "midi": 65,
      "hit": false,
      "t": 167330.15399999995,
      "d": 248.25917187499,
      "v": 89
    },
    {
      "midi": 62,
      "hit": false,
      "t": 167330.15399999995,
      "d": 265.61995312498766,
      "v": 71
    },
    {
      "midi": 71,
      "hit": false,
      "t": 167330.15399999995,
      "d": 265.61995312498766,
      "v": 86
    },
    {
      "midi": 31,
      "hit": false,
      "t": 167330.15400000004,
      "d": 687.4869375000126,
      "v": 94
    },
    {
      "midi": 62,
      "hit": false,
      "t": 167330.15400000013,
      "d": 553.8089218749956,
      "v": 66
    },
    {
      "midi": 71,
      "hit": false,
      "t": 167330.15400000013,
      "d": 744.7775156249991,
      "v": 75
    },
    {
      "midi": 71,
      "hit": false,
      "t": 167330.15400000013,
      "d": 666.6540000000095,
      "v": 94
    },
    {
      "midi": 86,
      "hit": false,
      "t": 167330.15400000036,
      "d": 131.94193749999977,
      "v": 57
    },
    {
      "midi": 74,
      "hit": false,
      "t": 167385.70850000036,
      "d": 131.94193749999977,
      "v": 57
    },
    {
      "midi": 83,
      "hit": false,
      "t": 167663.48100000035,
      "d": 171.8717343749886,
      "v": 49
    },
    {
      "midi": 71,
      "hit": false,
      "t": 167719.03550000035,
      "d": 171.8717343749886,
      "v": 49
    },
    {
      "midi": 67,
      "hit": false,
      "t": 167996.80799999993,
      "d": 229.1623125000042,
      "v": 86
    },
    {
      "midi": 72,
      "hit": false,
      "t": 167996.80799999993,
      "d": 229.1623125000042,
      "v": 99
    },
    {
      "midi": 48,
      "hit": false,
      "t": 167996.80799999993,
      "d": 729.1528125000186,
      "v": 89
    },
    {
      "midi": 64,
      "hit": false,
      "t": 167996.80799999993,
      "d": 749.9857500000217,
      "v": 94
    },
    {
      "midi": 36,
      "hit": false,
      "t": 167996.80800000005,
      "d": 1338.5162343749835,
      "v": 97
    },
    {
      "midi": 67,
      "hit": false,
      "t": 167996.80800000014,
      "d": 343.7434687499772,
      "v": 57
    },
    {
      "midi": 72,
      "hit": false,
      "t": 167996.80800000014,
      "d": 687.4869374999835,
      "v": 80
    },
    {
      "midi": 64,
      "hit": false,
      "t": 167996.80800000014,
      "d": 1048.5911874999874,
      "v": 79
    },
    {
      "midi": 72,
      "hit": false,
      "t": 167996.80800000014,
      "d": 687.4869375000126,
      "v": 97
    },
    {
      "midi": 88,
      "hit": false,
      "t": 167996.80800000034,
      "d": 248.25917187499,
      "v": 66
    },
    {
      "midi": 76,
      "hit": false,
      "t": 168052.36250000034,
      "d": 248.25917187499,
      "v": 66
    },
    {
      "midi": 79,
      "hit": false,
      "t": 168330.13500000033,
      "d": 171.8717343749886,
      "v": 59
    },
    {
      "midi": 67,
      "hit": false,
      "t": 168385.68950000033,
      "d": 171.8717343749886,
      "v": 59
    },
    {
      "midi": 67,
      "hit": false,
      "t": 168663.46199999994,
      "d": 131.94193749999977,
      "v": 85
    },
    {
      "midi": 67,
      "hit": false,
      "t": 168663.46200000012,
      "d": 649.2932187500119,
      "v": 91
    },
    {
      "midi": 67,
      "hit": false,
      "t": 168663.46200000015,
      "d": 706.5837968749984,
      "v": 92
    },
    {
      "midi": 84,
      "hit": false,
      "t": 168663.46200000032,
      "d": 152.7748750000028,
      "v": 59
    },
    {
      "midi": 72,
      "hit": false,
      "t": 168719.01650000032,
      "d": 152.7748750000028,
      "v": 59
    },
    {
      "midi": 88,
      "hit": false,
      "t": 168996.7890000003,
      "d": 133.6780156249879,
      "v": 72
    },
    {
      "midi": 76,
      "hit": false,
      "t": 169052.3435000003,
      "d": 133.6780156249879,
      "v": 72
    },
    {
      "midi": 53,
      "hit": false,
      "t": 169330.11599999995,
      "d": 208.32937500000116,
      "v": 79
    },
    {
      "midi": 65,
      "hit": false,
      "t": 169330.11599999995,
      "d": 248.25917187499,
      "v": 92
    },
    {
      "midi": 57,
      "hit": false,
      "t": 169330.11599999995,
      "d": 284.71681250000256,
      "v": 83
    },
    {
      "midi": 60,
      "hit": false,
      "t": 169330.11599999995,
      "d": 305.5497500000056,
      "v": 99
    },
    {
      "midi": 31,
      "hit": false,
      "t": 169330.11600000004,
      "d": 687.4869374999835,
      "v": 91
    },
    {
      "midi": 57,
      "hit": false,
      "t": 169330.11600000013,
      "d": 553.8089218749956,
      "v": 85
    },
    {
      "midi": 65,
      "hit": false,
      "t": 169330.11600000013,
      "d": 670.1261562500149,
      "v": 82
    },
    {
      "midi": 60,
      "hit": false,
      "t": 169330.11600000013,
      "d": 2520.785437500017,
      "v": 65
    },
    {
      "midi": 65,
      "hit": false,
      "t": 169330.11600000015,
      "d": 630.196359374997,
      "v": 82
    },
    {
      "midi": 89,
      "hit": false,
      "t": 169330.1160000003,
      "d": 284.71681250000256,
      "v": 62
    },
    {
      "midi": 77,
      "hit": false,
      "t": 169385.6705000003,
      "d": 284.71681250000256,
      "v": 62
    },
    {
      "midi": 81,
      "hit": false,
      "t": 169663.4430000003,
      "d": 112.84507812501397,
      "v": 60
    },
    {
      "midi": 69,
      "hit": false,
      "t": 169718.9975000003,
      "d": 112.84507812501397,
      "v": 60
    },
    {
      "midi": 64,
      "hit": false,
      "t": 169996.76999999996,
      "d": 1720.4534218749905,
      "v": 103
    },
    {
      "midi": 60,
      "hit": false,
      "t": 169996.76999999996,
      "d": 1737.8142031249881,
      "v": 97
    },
    {
      "midi": 55,
      "hit": false,
      "t": 169996.76999999996,
      "d": 1756.911062499974,
      "v": 79
    },
    {
      "midi": 48,
      "hit": false,
      "t": 169996.76999999996,
      "d": 1796.8408593749627,
      "v": 82
    },
    {
      "midi": 36,
      "hit": false,
      "t": 169996.77000000002,
      "d": 1814.2016406249895,
      "v": 99
    },
    {
      "midi": 55,
      "hit": false,
      "t": 169996.77000000014,
      "d": 1852.3953593750193,
      "v": 57
    },
    {
      "midi": 64,
      "hit": false,
      "t": 169996.77000000014,
      "d": 1852.3953593750193,
      "v": 99
    },
    {
      "midi": 64,
      "hit": false,
      "t": 169996.77000000016,
      "d": 1413.1675937499967,
      "v": 97
    },
    {
      "midi": 88,
      "hit": false,
      "t": 169996.7700000003,
      "d": 170.13565625000047,
      "v": 75
    },
    {
      "midi": 76,
      "hit": false,
      "t": 170052.3245000003,
      "d": 170.13565625000047,
      "v": 75
    },
    {
      "midi": 79,
      "hit": false,
      "t": 170330.0970000003,
      "d": 267.3560312500049,
      "v": 65
    },
    {
      "midi": 67,
      "hit": false,
      "t": 170385.6515000003,
      "d": 267.3560312500049,
      "v": 65
    },
    {
      "midi": 84,
      "hit": false,
      "t": 170663.42400000032,
      "d": 114.5811562500021,
      "v": 60
    },
    {
      "midi": 72,
      "hit": false,
      "t": 170718.97850000032,
      "d": 114.5811562500021,
      "v": 60
    },
    {
      "midi": 88,
      "hit": false,
      "t": 170996.7510000003,
      "d": 171.8717343749886,
      "v": 66
    },
    {
      "midi": 76,
      "hit": false,
      "t": 171052.3055000003,
      "d": 171.8717343749886,
      "v": 66
    },
    {
      "midi": 91,
      "hit": false,
      "t": 171330.0780000003,
      "d": 133.6780156249879,
      "v": 60
    },
    {
      "midi": 79,
      "hit": false,
      "t": 171385.6325000003,
      "d": 133.6780156249879,
      "v": 60
    },
    {
      "midi": 84,
      "hit": false,
      "t": 171663.4050000003,
      "d": 95.4842968749872,
      "v": 82
    },
    {
      "midi": 72,
      "hit": false,
      "t": 171718.9595000003,
      "d": 95.4842968749872,
      "v": 82
    },
    {
      "midi": 84,
      "hit": false,
      "t": 171962.01043750014,
      "d": 708.3198750000156,
      "v": 109
    },
    {
      "midi": 72,
      "hit": false,
      "t": 171996.73199999993,
      "d": 229.1623125000042,
      "v": 103
    },
    {
      "midi": 64,
      "hit": false,
      "t": 171996.73199999993,
      "d": 286.4528906249907,
      "v": 103
    },
    {
      "midi": 69,
      "hit": false,
      "t": 171996.73199999993,
      "d": 286.4528906249907,
      "v": 95
    },
    {
      "midi": 57,
      "hit": false,
      "t": 171996.73199999993,
      "d": 420.1309062499786,
      "v": 97
    },
    {
      "midi": 33,
      "hit": false,
      "t": 171996.73200000002,
      "d": 668.3900781249977,
      "v": 97
    },
    {
      "midi": 60,
      "hit": false,
      "t": 171996.73200000013,
      "d": 572.9057812500105,
      "v": 79
    },
    {
      "midi": 57,
      "hit": false,
      "t": 171996.73200000013,
      "d": 590.2665625000081,
      "v": 80
    },
    {
      "midi": 64,
      "hit": false,
      "t": 171996.73200000013,
      "d": 708.3198750000156,
      "v": 91
    },
    {
      "midi": 88,
      "hit": false,
      "t": 171996.73200000028,
      "d": 267.3560312500049,
      "v": 67
    },
    {
      "midi": 76,
      "hit": false,
      "t": 172052.28650000028,
      "d": 267.3560312500049,
      "v": 67
    },
    {
      "midi": 81,
      "hit": false,
      "t": 172330.0590000003,
      "d": 190.9685937500035,
      "v": 70
    },
    {
      "midi": 69,
      "hit": false,
      "t": 172385.6135000003,
      "d": 190.9685937500035,
      "v": 70
    },
    {
      "midi": 83,
      "hit": false,
      "t": 172632.13659375015,
      "d": 725.6806562499842,
      "v": 105
    },
    {
      "midi": 67,
      "hit": false,
      "t": 172663.3859999999,
      "d": 229.1623125000042,
      "v": 95
    },
    {
      "midi": 55,
      "hit": false,
      "t": 172663.3859999999,
      "d": 248.25917187499,
      "v": 77
    },
    {
      "midi": 71,
      "hit": false,
      "t": 172663.3859999999,
      "d": 248.25917187499,
      "v": 92
    },
    {
      "midi": 62,
      "hit": false,
      "t": 172663.3859999999,
      "d": 324.6466093749914,
      "v": 72
    },
    {
      "midi": 31,
      "hit": false,
      "t": 172663.38600000003,
      "d": 687.4869374999835,
      "v": 88
    },
    {
      "midi": 59,
      "hit": false,
      "t": 172663.38600000014,
      "d": 439.2277656249935,
      "v": 86
    },
    {
      "midi": 55,
      "hit": false,
      "t": 172663.38600000014,
      "d": 572.9057812499814,
      "v": 68
    },
    {
      "midi": 62,
      "hit": false,
      "t": 172663.38600000014,
      "d": 687.4869374999835,
      "v": 80
    },
    {
      "midi": 86,
      "hit": false,
      "t": 172663.3860000003,
      "d": 324.6466093749914,
      "v": 60
    },
    {
      "midi": 74,
      "hit": false,
      "t": 172718.9405000003,
      "d": 324.6466093749914,
      "v": 60
    },
    {
      "midi": 83,
      "hit": false,
      "t": 172996.71300000028,
      "d": 152.7748750000028,
      "v": 74
    },
    {
      "midi": 71,
      "hit": false,
      "t": 173052.26750000028,
      "d": 152.7748750000028,
      "v": 74
    },
    {
      "midi": 81,
      "hit": false,
      "t": 173319.62353125014,
      "d": 670.1261562499858,
      "v": 107
    },
    {
      "midi": 65,
      "hit": false,
      "t": 173330.0399999999,
      "d": 265.61995312498766,
      "v": 92
    },
    {
      "midi": 53,
      "hit": false,
      "t": 173330.0399999999,
      "d": 286.4528906249907,
      "v": 89
    },
    {
      "midi": 69,
      "hit": false,
      "t": 173330.0399999999,
      "d": 305.5497499999765,
      "v": 91
    },
    {
      "midi": 60,
      "hit": false,
      "t": 173330.0399999999,
      "d": 342.00739062498906,
      "v": 85
    },
    {
      "midi": 29,
      "hit": false,
      "t": 173330.04,
      "d": 687.4869375000126,
      "v": 91
    },
    {
      "midi": 57,
      "hit": false,
      "t": 173330.04000000012,
      "d": 513.8791250000068,
      "v": 77
    },
    {
      "midi": 65,
      "hit": false,
      "t": 173330.04000000012,
      "d": 666.6540000000095,
      "v": 79
    },
    {
      "midi": 60,
      "hit": false,
      "t": 173330.04000000012,
      "d": 1833.2985000000626,
      "v": 83
    },
    {
      "midi": 89,
      "hit": false,
      "t": 173330.04000000027,
      "d": 305.5497500000056,
      "v": 56
    },
    {
      "midi": 77,
      "hit": false,
      "t": 173385.59450000027,
      "d": 305.5497500000056,
      "v": 56
    },
    {
      "midi": 84,
      "hit": false,
      "t": 173663.3670000003,
      "d": 171.8717343749886,
      "v": 67
    },
    {
      "midi": 72,
      "hit": false,
      "t": 173718.9215000003,
      "d": 171.8717343749886,
      "v": 67
    },
    {
      "midi": 79,
      "hit": false,
      "t": 173968.91675000012,
      "d": 727.4167343750596,
      "v": 101
    },
    {
      "midi": 48,
      "hit": false,
      "t": 173996.69399999987,
      "d": 248.25917187499,
      "v": 88
    },
    {
      "midi": 60,
      "hit": false,
      "t": 173996.69399999987,
      "d": 248.25917187499,
      "v": 77
    },
    {
      "midi": 64,
      "hit": false,
      "t": 173996.69399999987,
      "d": 267.3560312499758,
      "v": 95
    },
    {
      "midi": 67,
      "hit": false,
      "t": 173996.69399999987,
      "d": 267.3560312499758,
      "v": 86
    },
    {
      "midi": 36,
      "hit": false,
      "t": 173996.69400000002,
      "d": 631.9324375000142,
      "v": 97
    },
    {
      "midi": 64,
      "hit": false,
      "t": 173996.69400000013,
      "d": 631.9324375000142,
      "v": 105
    },
    {
      "midi": 67,
      "hit": false,
      "t": 173996.69400000013,
      "d": 725.6806562500424,
      "v": 71
    },
    {
      "midi": 88,
      "hit": false,
      "t": 173996.69400000028,
      "d": 152.7748750000028,
      "v": 56
    },
    {
      "midi": 76,
      "hit": false,
      "t": 174052.24850000028,
      "d": 152.7748750000028,
      "v": 56
    },
    {
      "midi": 84,
      "hit": false,
      "t": 174330.02100000027,
      "d": 93.74821874999907,
      "v": 77
    },
    {
      "midi": 72,
      "hit": false,
      "t": 174385.57550000027,
      "d": 93.74821874999907,
      "v": 77
    },
    {
      "midi": 81,
      "hit": false,
      "t": 174656.40368750016,
      "d": 689.2230156250298,
      "v": 109
    },
    {
      "midi": 60,
      "hit": false,
      "t": 174663.34799999985,
      "d": 286.4528906249907,
      "v": 85
    },
    {
      "midi": 69,
      "hit": false,
      "t": 174663.34799999985,
      "d": 286.4528906249907,
      "v": 83
    },
    {
      "midi": 65,
      "hit": false,
      "t": 174663.34799999985,
      "d": 324.6466093749914,
      "v": 83
    },
    {
      "midi": 53,
      "hit": false,
      "t": 174663.34799999985,
      "d": 343.7434687499772,
      "v": 95
    },
    {
      "midi": 29,
      "hit": false,
      "t": 174663.34800000003,
      "d": 690.9590937500179,
      "v": 89
    },
    {
      "midi": 69,
      "hit": false,
      "t": 174663.34800000017,
      "d": 706.5837968750275,
      "v": 82
    },
    {
      "midi": 65,
      "hit": false,
      "t": 174663.34800000017,
      "d": 1241.2958593750373,
      "v": 70
    },
    {
      "midi": 89,
      "hit": false,
      "t": 174663.34800000026,
      "d": 190.9685937500035,
      "v": 80
    },
    {
      "midi": 77,
      "hit": false,
      "t": 174718.90250000026,
      "d": 190.9685937500035,
      "v": 80
    },
    {
      "midi": 84,
      "hit": false,
      "t": 174996.67500000025,
      "d": 152.7748750000028,
      "v": 58
    },
    {
      "midi": 72,
      "hit": false,
      "t": 175052.22950000025,
      "d": 152.7748750000028,
      "v": 58
    },
    {
      "midi": 83,
      "hit": false,
      "t": 175326.52984375018,
      "d": 670.126156250044,
      "v": 103
    },
    {
      "midi": 55,
      "hit": false,
      "t": 175330.00199999983,
      "d": 229.1623125000042,
      "v": 85
    },
    {
      "midi": 65,
      "hit": false,
      "t": 175330.00199999983,
      "d": 248.25917187499,
      "v": 89
    },
    {
      "midi": 62,
      "hit": false,
      "t": 175330.00199999983,
      "d": 265.61995312498766,
      "v": 71
    },
    {
      "midi": 71,
      "hit": false,
      "t": 175330.00199999983,
      "d": 265.61995312498766,
      "v": 86
    },
    {
      "midi": 31,
      "hit": false,
      "t": 175330.00200000004,
      "d": 687.4869375000126,
      "v": 94
    },
    {
      "midi": 62,
      "hit": false,
      "t": 175330.00200000018,
      "d": 553.8089218750247,
      "v": 66
    },
    {
      "midi": 71,
      "hit": false,
      "t": 175330.00200000018,
      "d": 744.7775156250282,
      "v": 75
    },
    {
      "midi": 86,
      "hit": false,
      "t": 175330.00200000024,
      "d": 131.94193749999977,
      "v": 57
    },
    {
      "midi": 74,
      "hit": false,
      "t": 175385.55650000024,
      "d": 131.94193749999977,
      "v": 57
    },
    {
      "midi": 83,
      "hit": false,
      "t": 175663.32900000023,
      "d": 171.8717343749886,
      "v": 49
    },
    {
      "midi": 71,
      "hit": false,
      "t": 175718.88350000023,
      "d": 171.8717343749886,
      "v": 49
    },
    {
      "midi": 67,
      "hit": false,
      "t": 175996.6559999998,
      "d": 229.1623125000042,
      "v": 86
    },
    {
      "midi": 72,
      "hit": false,
      "t": 175996.6559999998,
      "d": 229.1623125000042,
      "v": 99
    },
    {
      "midi": 48,
      "hit": false,
      "t": 175996.6559999998,
      "d": 729.1528125000186,
      "v": 89
    },
    {
      "midi": 64,
      "hit": false,
      "t": 175996.6559999998,
      "d": 749.9857500000217,
      "v": 94
    },
    {
      "midi": 36,
      "hit": false,
      "t": 175996.65600000005,
      "d": 1338.5162343749835,
      "v": 97
    },
    {
      "midi": 67,
      "hit": false,
      "t": 175996.65600000022,
      "d": 343.7434687499772,
      "v": 57
    },
    {
      "midi": 72,
      "hit": false,
      "t": 175996.65600000022,
      "d": 687.4869374999835,
      "v": 80
    },
    {
      "midi": 84,
      "hit": false,
      "t": 175996.65600000022,
      "d": 687.4869374999835,
      "v": 99
    },
    {
      "midi": 64,
      "hit": false,
      "t": 175996.65600000022,
      "d": 1048.5911874999874,
      "v": 79
    },
    {
      "midi": 88,
      "hit": false,
      "t": 175996.65600000022,
      "d": 248.25917187499,
      "v": 66
    },
    {
      "midi": 76,
      "hit": false,
      "t": 176052.21050000022,
      "d": 248.25917187499,
      "v": 66
    },
    {
      "midi": 79,
      "hit": false,
      "t": 176329.9830000002,
      "d": 171.8717343749886,
      "v": 59
    },
    {
      "midi": 67,
      "hit": false,
      "t": 176385.5375000002,
      "d": 171.8717343749886,
      "v": 59
    },
    {
      "midi": 88,
      "hit": false,
      "t": 176645.9492187502,
      "d": 687.4869375000126,
      "v": 103
    },
    {
      "midi": 67,
      "hit": false,
      "t": 176663.30999999982,
      "d": 131.94193749999977,
      "v": 85
    },
    {
      "midi": 67,
      "hit": false,
      "t": 176663.3100000002,
      "d": 649.2932187500119,
      "v": 91
    },
    {
      "midi": 84,
      "hit": false,
      "t": 176663.3100000002,
      "d": 152.7748750000028,
      "v": 59
    },
    {
      "midi": 72,
      "hit": false,
      "t": 176718.8645000002,
      "d": 152.7748750000028,
      "v": 59
    },
    {
      "midi": 88,
      "hit": false,
      "t": 176996.6370000002,
      "d": 133.6780156249879,
      "v": 72
    },
    {
      "midi": 76,
      "hit": false,
      "t": 177052.1915000002,
      "d": 133.6780156249879,
      "v": 72
    },
    {
      "midi": 89,
      "hit": false,
      "t": 177314.3392968752,
      "d": 668.3900781249977,
      "v": 92
    },
    {
      "midi": 53,
      "hit": false,
      "t": 177329.96399999983,
      "d": 208.32937500000116,
      "v": 79
    },
    {
      "midi": 65,
      "hit": false,
      "t": 177329.96399999983,
      "d": 248.25917187499,
      "v": 92
    },
    {
      "midi": 57,
      "hit": false,
      "t": 177329.96399999983,
      "d": 284.71681250000256,
      "v": 83
    },
    {
      "midi": 60,
      "hit": false,
      "t": 177329.96399999983,
      "d": 305.5497500000056,
      "v": 99
    },
    {
      "midi": 31,
      "hit": false,
      "t": 177329.96400000004,
      "d": 687.4869374999835,
      "v": 91
    },
    {
      "midi": 89,
      "hit": false,
      "t": 177329.96400000018,
      "d": 284.71681250000256,
      "v": 62
    },
    {
      "midi": 57,
      "hit": false,
      "t": 177329.9640000002,
      "d": 553.8089218749956,
      "v": 85
    },
    {
      "midi": 65,
      "hit": false,
      "t": 177329.9640000002,
      "d": 670.1261562499858,
      "v": 82
    },
    {
      "midi": 60,
      "hit": false,
      "t": 177329.9640000002,
      "d": 2520.785437499988,
      "v": 65
    },
    {
      "midi": 77,
      "hit": false,
      "t": 177385.51850000018,
      "d": 284.71681250000256,
      "v": 62
    },
    {
      "midi": 81,
      "hit": false,
      "t": 177663.29100000017,
      "d": 112.84507812501397,
      "v": 60
    },
    {
      "midi": 69,
      "hit": false,
      "t": 177718.84550000017,
      "d": 112.84507812501397,
      "v": 60
    },
    {
      "midi": 91,
      "hit": false,
      "t": 177963.6325156252,
      "d": 1968.7125937499804,
      "v": 91
    },
    {
      "midi": 64,
      "hit": false,
      "t": 177996.61799999984,
      "d": 1720.4534218749905,
      "v": 103
    },
    {
      "midi": 60,
      "hit": false,
      "t": 177996.61799999984,
      "d": 1737.8142031249881,
      "v": 97
    },
    {
      "midi": 55,
      "hit": false,
      "t": 177996.61799999984,
      "d": 1756.911062499974,
      "v": 79
    },
    {
      "midi": 48,
      "hit": false,
      "t": 177996.61799999984,
      "d": 1796.8408593749627,
      "v": 82
    },
    {
      "midi": 36,
      "hit": false,
      "t": 177996.61800000002,
      "d": 1814.2016406249895,
      "v": 99
    },
    {
      "midi": 55,
      "hit": false,
      "t": 177996.6180000002,
      "d": 1852.3953593750193,
      "v": 57
    },
    {
      "midi": 64,
      "hit": false,
      "t": 177996.6180000002,
      "d": 1852.3953593750193,
      "v": 99
    },
    {
      "midi": 88,
      "hit": false,
      "t": 177996.6180000002,
      "d": 170.13565625000047,
      "v": 75
    },
    {
      "midi": 76,
      "hit": false,
      "t": 178052.1725000002,
      "d": 170.13565625000047,
      "v": 75
    },
    {
      "midi": 79,
      "hit": false,
      "t": 178329.94500000018,
      "d": 267.3560312500049,
      "v": 65
    },
    {
      "midi": 67,
      "hit": false,
      "t": 178385.49950000018,
      "d": 267.3560312500049,
      "v": 65
    },
    {
      "midi": 84,
      "hit": false,
      "t": 178663.2720000002,
      "d": 114.5811562500021,
      "v": 60
    },
    {
      "midi": 72,
      "hit": false,
      "t": 178718.8265000002,
      "d": 114.5811562500021,
      "v": 60
    },
    {
      "midi": 88,
      "hit": false,
      "t": 178996.5990000002,
      "d": 171.8717343749886,
      "v": 66
    },
    {
      "midi": 76,
      "hit": false,
      "t": 179052.1535000002,
      "d": 171.8717343749886,
      "v": 66
    },
    {
      "midi": 64,
      "hit": false,
      "t": 179329.92600000015,
      "d": 326.3826875000086,
      "v": 103
    },
    {
      "midi": 91,
      "hit": false,
      "t": 179329.92600000018,
      "d": 133.6780156249879,
      "v": 60
    },
    {
      "midi": 79,
      "hit": false,
      "t": 179385.48050000018,
      "d": 133.6780156249879,
      "v": 60
    },
    {
      "midi": 62,
      "hit": false,
      "t": 179663.25300000017,
      "d": 343.7434687499772,
      "v": 75
    },
    {
      "midi": 84,
      "hit": false,
      "t": 179663.25300000017,
      "d": 95.4842968749872,
      "v": 82
    },
    {
      "midi": 72,
      "hit": false,
      "t": 179718.80750000017,
      "d": 95.4842968749872,
      "v": 82
    },
    {
      "midi": 48,
      "hit": false,
      "t": 179996.5799999998,
      "d": 878.455531249987,
      "v": 83
    },
    {
      "midi": 55,
      "hit": false,
      "t": 179996.5799999998,
      "d": 1013.8696249999921,
      "v": 70
    },
    {
      "midi": 60,
      "hit": false,
      "t": 179996.5799999998,
      "d": 1013.8696249999921,
      "v": 92
    },
    {
      "midi": 36,
      "hit": false,
      "t": 179996.58000000002,
      "d": 1527.7487499999988,
      "v": 94
    },
    {
      "midi": 60,
      "hit": false,
      "t": 179996.58000000016,
      "d": 993.0366874999891,
      "v": 97
    },
    {
      "midi": 88,
      "hit": false,
      "t": 179996.58000000016,
      "d": 267.3560312500049,
      "v": 86
    },
    {
      "midi": 64,
      "hit": false,
      "t": 179996.5800000002,
      "d": 1949.6157343749946,
      "v": 89
    },
    {
      "midi": 60,
      "hit": false,
      "t": 179996.5800000002,
      "d": 2598.9089531250065,
      "v": 66
    },
    {
      "midi": 67,
      "hit": false,
      "t": 179996.5800000002,
      "d": 5275.941421875032,
      "v": 58
    },
    {
      "midi": 76,
      "hit": false,
      "t": 180052.13450000016,
      "d": 267.3560312500049,
      "v": 86
    },
    {
      "midi": 84,
      "hit": false,
      "t": 180329.90700000018,
      "d": 76.3874375000014,
      "v": 65
    },
    {
      "midi": 72,
      "hit": false,
      "t": 180385.46150000018,
      "d": 76.3874375000014,
      "v": 65
    },
    {
      "midi": 79,
      "hit": false,
      "t": 180663.23400000017,
      "d": 114.5811562500021,
      "v": 74
    },
    {
      "midi": 67,
      "hit": false,
      "t": 180718.78850000017,
      "d": 114.5811562500021,
      "v": 74
    },
    {
      "midi": 62,
      "hit": false,
      "t": 180996.5609999998,
      "d": 381.9371874999779,
      "v": 85
    },
    {
      "midi": 62,
      "hit": false,
      "t": 180996.56100000016,
      "d": 381.9371874999779,
      "v": 82
    },
    {
      "midi": 84,
      "hit": false,
      "t": 180996.56100000016,
      "d": 76.3874375000014,
      "v": 82
    },
    {
      "midi": 72,
      "hit": false,
      "t": 181052.11550000016,
      "d": 76.3874375000014,
      "v": 82
    },
    {
      "midi": 64,
      "hit": false,
      "t": 181329.8879999998,
      "d": 305.5497499999765,
      "v": 107
    },
    {
      "midi": 60,
      "hit": false,
      "t": 181329.8879999998,
      "d": 361.10425000000396,
      "v": 70
    },
    {
      "midi": 64,
      "hit": false,
      "t": 181329.88800000015,
      "d": 324.6466093749914,
      "v": 107
    },
    {
      "midi": 88,
      "hit": false,
      "t": 181329.88800000015,
      "d": 76.3874375000014,
      "v": 71
    },
    {
      "midi": 76,
      "hit": false,
      "t": 181385.44250000015,
      "d": 76.3874375000014,
      "v": 71
    },
    {
      "midi": 65,
      "hit": false,
      "t": 181663.2149999998,
      "d": 112.84507812501397,
      "v": 85
    },
    {
      "midi": 36,
      "hit": false,
      "t": 181663.21500000003,
      "d": 343.7434687499772,
      "v": 83
    },
    {
      "midi": 65,
      "hit": false,
      "t": 181663.21500000014,
      "d": 343.7434687499772,
      "v": 88
    },
    {
      "midi": 84,
      "hit": false,
      "t": 181663.21500000014,
      "d": 95.4842968749872,
      "v": 72
    },
    {
      "midi": 72,
      "hit": false,
      "t": 181718.76950000014,
      "d": 95.4842968749872,
      "v": 72
    },
    {
      "midi": 60,
      "hit": false,
      "t": 181996.5419999998,
      "d": 477.4214843749942,
      "v": 89
    },
    {
      "midi": 62,
      "hit": false,
      "t": 181996.5419999998,
      "d": 916.6492499999877,
      "v": 86
    },
    {
      "midi": 67,
      "hit": false,
      "t": 181996.5419999998,
      "d": 1013.8696249999921,
      "v": 95
    },
    {
      "midi": 55,
      "hit": false,
      "t": 181996.5419999998,
      "d": 1701.3565624999756,
      "v": 85
    },
    {
      "midi": 31,
      "hit": false,
      "t": 181996.54200000002,
      "d": 2045.100031250011,
      "v": 94
    },
    {
      "midi": 67,
      "hit": false,
      "t": 181996.54200000013,
      "d": 1225.6711562499986,
      "v": 94
    },
    {
      "midi": 91,
      "hit": false,
      "t": 181996.54200000013,
      "d": 152.7748750000028,
      "v": 77
    },
    {
      "midi": 62,
      "hit": false,
      "t": 181996.5420000002,
      "d": 2062.4608125000377,
      "v": 72
    },
    {
      "midi": 79,
      "hit": false,
      "t": 182052.09650000013,
      "d": 152.7748750000028,
      "v": 77
    },
    {
      "midi": 86,
      "hit": false,
      "t": 182329.86900000012,
      "d": 76.3874375000014,
      "v": 53
    },
    {
      "midi": 74,
      "hit": false,
      "t": 182385.42350000012,
      "d": 76.3874375000014,
      "v": 53
    },
    {
      "midi": 59,
      "hit": false,
      "t": 182663.1959999998,
      "d": 362.8403281250212,
      "v": 101
    },
    {
      "midi": 83,
      "hit": false,
      "t": 182663.1960000001,
      "d": 95.4842968749872,
      "v": 66
    },
    {
      "midi": 59,
      "hit": false,
      "t": 182663.1960000002,
      "d": 1317.6832968750095,
      "v": 91
    },
    {
      "midi": 71,
      "hit": false,
      "t": 182718.7505000001,
      "d": 95.4842968749872,
      "v": 66
    },
    {
      "midi": 86,
      "hit": false,
      "t": 182996.5230000001,
      "d": 76.3874375000014,
      "v": 62
    },
    {
      "midi": 74,
      "hit": false,
      "t": 183052.0775000001,
      "d": 76.3874375000014,
      "v": 62
    },
    {
      "midi": 69,
      "hit": false,
      "t": 183329.8499999998,
      "d": 343.7434687499772,
      "v": 86
    },
    {
      "midi": 79,
      "hit": false,
      "t": 183329.8500000001,
      "d": 95.4842968749872,
      "v": 72
    },
    {
      "midi": 69,
      "hit": false,
      "t": 183329.85000000012,
      "d": 362.8403281249921,
      "v": 95
    },
    {
      "midi": 67,
      "hit": false,
      "t": 183385.4045000001,
      "d": 95.4842968749872,
      "v": 72
    },
    {
      "midi": 71,
      "hit": false,
      "t": 183663.1769999998,
      "d": 112.84507812498487,
      "v": 109
    },
    {
      "midi": 83,
      "hit": false,
      "t": 183663.17700000008,
      "d": 95.4842968749872,
      "v": 80
    },
    {
      "midi": 71,
      "hit": false,
      "t": 183663.1770000001,
      "d": 305.5497500000056,
      "v": 94
    },
    {
      "midi": 71,
      "hit": false,
      "t": 183718.73150000008,
      "d": 95.4842968749872,
      "v": 80
    },
    {
      "midi": 72,
      "hit": false,
      "t": 183996.50399999978,
      "d": 553.8089218749956,
      "v": 103
    },
    {
      "midi": 67,
      "hit": false,
      "t": 183996.50399999978,
      "d": 572.9057812499814,
      "v": 95
    },
    {
      "midi": 64,
      "hit": false,
      "t": 183996.50399999978,
      "d": 706.5837968749693,
      "v": 97
    },
    {
      "midi": 52,
      "hit": false,
      "t": 183996.50399999978,
      "d": 763.8743749999849,
      "v": 99
    },
    {
      "midi": 40,
      "hit": false,
      "t": 183996.50400000002,
      "d": 1355.8770156250102,
      "v": 97
    },
    {
      "midi": 88,
      "hit": false,
      "t": 183996.50400000007,
      "d": 76.3874375000014,
      "v": 83
    },
    {
      "midi": 72,
      "hit": false,
      "t": 183996.50400000013,
      "d": 631.9324375000142,
      "v": 99
    },
    {
      "midi": 64,
      "hit": false,
      "t": 183996.50400000022,
      "d": 1319.4193749999977,
      "v": 97
    },
    {
      "midi": 60,
      "hit": false,
      "t": 183996.50400000022,
      "d": 5847.111125000025,
      "v": 74
    },
    {
      "midi": 76,
      "hit": false,
      "t": 184052.05850000007,
      "d": 76.3874375000014,
      "v": 83
    },
    {
      "midi": 79,
      "hit": false,
      "t": 184329.83100000006,
      "d": 114.5811562500021,
      "v": 54
    },
    {
      "midi": 67,
      "hit": false,
      "t": 184385.38550000006,
      "d": 114.5811562500021,
      "v": 54
    },
    {
      "midi": 71,
      "hit": false,
      "t": 184663.15799999976,
      "d": 76.3874375000014,
      "v": 105
    },
    {
      "midi": 84,
      "hit": false,
      "t": 184663.15800000005,
      "d": 131.94193749999977,
      "v": 85
    },
    {
      "midi": 71,
      "hit": false,
      "t": 184663.15800000014,
      "d": 725.6806562500133,
      "v": 101
    },
    {
      "midi": 72,
      "hit": false,
      "t": 184718.71250000005,
      "d": 131.94193749999977,
      "v": 85
    },
    {
      "midi": 88,
      "hit": false,
      "t": 184996.48500000004,
      "d": 95.4842968749872,
      "v": 70
    },
    {
      "midi": 76,
      "hit": false,
      "t": 185052.03950000004,
      "d": 95.4842968749872,
      "v": 70
    },
    {
      "midi": 69,
      "hit": false,
      "t": 185329.81199999977,
      "d": 248.25917187499,
      "v": 88
    },
    {
      "midi": 65,
      "hit": false,
      "t": 185329.81199999977,
      "d": 265.61995312498766,
      "v": 92
    },
    {
      "midi": 53,
      "hit": false,
      "t": 185329.81199999977,
      "d": 284.71681249997346,
      "v": 86
    },
    {
      "midi": 60,
      "hit": false,
      "t": 185329.81199999977,
      "d": 284.71681249997346,
      "v": 89
    },
    {
      "midi": 41,
      "hit": false,
      "t": 185329.81200000003,
      "d": 631.9324374999851,
      "v": 101
    },
    {
      "midi": 89,
      "hit": false,
      "t": 185329.81200000003,
      "d": 152.7748750000028,
      "v": 83
    },
    {
      "midi": 69,
      "hit": false,
      "t": 185329.81200000015,
      "d": 670.1261562500149,
      "v": 95
    },
    {
      "midi": 69,
      "hit": false,
      "t": 185329.8120000002,
      "d": 630.196359374997,
      "v": 70
    },
    {
      "midi": 65,
      "hit": false,
      "t": 185329.8120000002,
      "d": 1374.9738750000251,
      "v": 85
    },
    {
      "midi": 77,
      "hit": false,
      "t": 185385.36650000003,
      "d": 152.7748750000028,
      "v": 83
    },
    {
      "midi": 81,
      "hit": false,
      "t": 185663.13900000002,
      "d": 95.4842968749872,
      "v": 28
    },
    {
      "midi": 69,
      "hit": false,
      "t": 185718.69350000002,
      "d": 95.4842968749872,
      "v": 28
    },
    {
      "midi": 65,
      "hit": false,
      "t": 185996.46599999975,
      "d": 784.707312500017,
      "v": 80
    },
    {
      "midi": 67,
      "hit": false,
      "t": 185996.46599999975,
      "d": 821.1649531250296,
      "v": 88
    },
    {
      "midi": 60,
      "hit": false,
      "t": 185996.46599999975,
      "d": 840.2618125000154,
      "v": 71
    },
    {
      "midi": 48,
      "hit": false,
      "t": 185996.46599999975,
      "d": 861.0947500000184,
      "v": 86
    },
    {
      "midi": 36,
      "hit": false,
      "t": 185996.46600000001,
      "d": 1374.973874999996,
      "v": 99
    },
    {
      "midi": 91,
      "hit": false,
      "t": 185996.46600000001,
      "d": 133.6780156249879,
      "v": 72
    },
    {
      "midi": 67,
      "hit": false,
      "t": 185996.46600000016,
      "d": 1206.5742968750128,
      "v": 97
    },
    {
      "midi": 67,
      "hit": false,
      "t": 185996.46600000022,
      "d": 1394.070734375011,
      "v": 80
    },
    {
      "midi": 79,
      "hit": false,
      "t": 186052.0205,
      "d": 133.6780156249879,
      "v": 72
    },
    {
      "midi": 88,
      "hit": false,
      "t": 186329.793,
      "d": 76.3874375000014,
      "v": 67
    },
    {
      "midi": 76,
      "hit": false,
      "t": 186385.3475,
      "d": 76.3874375000014,
      "v": 67
    },
    {
      "midi": 64,
      "hit": false,
      "t": 186663.11999999976,
      "d": 133.678015625017,
      "v": 88
    },
    {
      "midi": 84,
      "hit": false,
      "t": 186663.12,
      "d": 95.4842968749872,
      "v": 66
    },
    {
      "midi": 64,
      "hit": false,
      "t": 186663.12000000023,
      "d": 725.6806562500133,
      "v": 85
    },
    {
      "midi": 72,
      "hit": false,
      "t": 186718.6745,
      "d": 95.4842968749872,
      "v": 66
    },
    {
      "midi": 79,
      "hit": false,
      "t": 186996.447,
      "d": 95.4842968749872,
      "v": 68
    },
    {
      "midi": 67,
      "hit": false,
      "t": 187052.00149999998,
      "d": 95.4842968749872,
      "v": 68
    },
    {
      "midi": 53,
      "hit": false,
      "t": 187329.77399999977,
      "d": 324.6466093749914,
      "v": 88
    },
    {
      "midi": 60,
      "hit": false,
      "t": 187329.77399999977,
      "d": 324.6466093749914,
      "v": 82
    },
    {
      "midi": 65,
      "hit": false,
      "t": 187329.77399999977,
      "d": 342.00739062498906,
      "v": 88
    },
    {
      "midi": 69,
      "hit": false,
      "t": 187329.77399999977,
      "d": 345.4795468749944,
      "v": 94
    },
    {
      "midi": 84,
      "hit": false,
      "t": 187329.77399999998,
      "d": 114.5811562500021,
      "v": 80
    },
    {
      "midi": 41,
      "hit": false,
      "t": 187329.774,
      "d": 706.5837968749984,
      "v": 99
    },
    {
      "midi": 69,
      "hit": false,
      "t": 187329.77400000018,
      "d": 342.00739062498906,
      "v": 94
    },
    {
      "midi": 69,
      "hit": false,
      "t": 187329.77400000024,
      "d": 651.029296875,
      "v": 80
    },
    {
      "midi": 65,
      "hit": false,
      "t": 187329.77400000024,
      "d": 687.4869375000126,
      "v": 91
    },
    {
      "midi": 72,
      "hit": false,
      "t": 187385.32849999997,
      "d": 114.5811562500021,
      "v": 80
    },
    {
      "midi": 71,
      "hit": false,
      "t": 187663.10099999976,
      "d": 114.5811562500021,
      "v": 92
    },
    {
      "midi": 81,
      "hit": false,
      "t": 187663.10099999997,
      "d": 112.84507812501397,
      "v": 74
    },
    {
      "midi": 71,
      "hit": false,
      "t": 187663.10100000017,
      "d": 305.5497500000056,
      "v": 91
    },
    {
      "midi": 69,
      "hit": false,
      "t": 187718.65549999996,
      "d": 112.84507812501397,
      "v": 74
    },
    {
      "midi": 72,
      "hit": false,
      "t": 187996.42799999975,
      "d": 649.2932187499828,
      "v": 97
    },
    {
      "midi": 67,
      "hit": false,
      "t": 187996.42799999975,
      "d": 706.5837968749693,
      "v": 89
    },
    {
      "midi": 64,
      "hit": false,
      "t": 187996.42799999975,
      "d": 782.9712343749707,
      "v": 92
    },
    {
      "midi": 48,
      "hit": false,
      "t": 187996.42799999975,
      "d": 802.0680937499565,
      "v": 83
    },
    {
      "midi": 79,
      "hit": false,
      "t": 187996.42799999999,
      "d": 114.5811562500021,
      "v": 79
    },
    {
      "midi": 36,
      "hit": false,
      "t": 187996.428,
      "d": 1298.5864374999946,
      "v": 101
    },
    {
      "midi": 72,
      "hit": false,
      "t": 187996.4280000002,
      "d": 727.4167343750014,
      "v": 92
    },
    {
      "midi": 67,
      "hit": false,
      "t": 187996.42800000025,
      "d": 1145.8115624999919,
      "v": 86
    },
    {
      "midi": 64,
      "hit": false,
      "t": 187996.42800000025,
      "d": 1300.3225156249828,
      "v": 97
    },
    {
      "midi": 67,
      "hit": false,
      "t": 188051.98249999998,
      "d": 114.5811562500021,
      "v": 79
    },
    {
      "midi": 84,
      "hit": false,
      "t": 188329.75499999998,
      "d": 95.4842968749872,
      "v": 70
    },
    {
      "midi": 72,
      "hit": false,
      "t": 188385.30949999997,
      "d": 95.4842968749872,
      "v": 70
    },
    {
      "midi": 71,
      "hit": false,
      "t": 188663.08199999973,
      "d": 95.4842968749872,
      "v": 91
    },
    {
      "midi": 88,
      "hit": false,
      "t": 188663.08199999997,
      "d": 95.4842968749872,
      "v": 65
    },
    {
      "midi": 71,
      "hit": false,
      "t": 188663.0820000002,
      "d": 687.4869374999835,
      "v": 101
    },
    {
      "midi": 76,
      "hit": false,
      "t": 188718.63649999996,
      "d": 95.4842968749872,
      "v": 65
    },
    {
      "midi": 84,
      "hit": false,
      "t": 188996.40899999996,
      "d": 114.5811562500021,
      "v": 77
    },
    {
      "midi": 72,
      "hit": false,
      "t": 189051.96349999995,
      "d": 114.5811562500021,
      "v": 77
    },
    {
      "midi": 65,
      "hit": false,
      "t": 189329.7359999997,
      "d": 229.1623125000042,
      "v": 97
    },
    {
      "midi": 69,
      "hit": false,
      "t": 189329.7359999997,
      "d": 229.1623125000042,
      "v": 97
    },
    {
      "midi": 60,
      "hit": false,
      "t": 189329.7359999997,
      "d": 284.71681250000256,
      "v": 91
    },
    {
      "midi": 53,
      "hit": false,
      "t": 189329.7359999997,
      "d": 305.5497500000056,
      "v": 92
    },
    {
      "midi": 89,
      "hit": false,
      "t": 189329.73599999995,
      "d": 95.4842968749872,
      "v": 80
    },
    {
      "midi": 41,
      "hit": false,
      "t": 189329.736,
      "d": 592.0026406249963,
      "v": 95
    },
    {
      "midi": 69,
      "hit": false,
      "t": 189329.73600000018,
      "d": 668.3900781249977,
      "v": 97
    },
    {
      "midi": 69,
      "hit": false,
      "t": 189329.73600000024,
      "d": 611.0995000000112,
      "v": 91
    },
    {
      "midi": 65,
      "hit": false,
      "t": 189329.73600000024,
      "d": 744.7775156249991,
      "v": 91
    },
    {
      "midi": 77,
      "hit": false,
      "t": 189385.29049999994,
      "d": 95.4842968749872,
      "v": 80
    },
    {
      "midi": 81,
      "hit": false,
      "t": 189663.06299999994,
      "d": 95.4842968749872,
      "v": 70
    },
    {
      "midi": 69,
      "hit": false,
      "t": 189718.61749999993,
      "d": 95.4842968749872,
      "v": 70
    },
    {
      "midi": 62,
      "hit": false,
      "t": 189996.38999999972,
      "d": 647.5571406249946,
      "v": 94
    },
    {
      "midi": 67,
      "hit": false,
      "t": 189996.38999999972,
      "d": 647.5571406249946,
      "v": 86
    },
    {
      "midi": 59,
      "hit": false,
      "t": 189996.38999999972,
      "d": 763.8743749999849,
      "v": 101
    },
    {
      "midi": 53,
      "hit": false,
      "t": 189996.38999999972,
      "d": 1491.2911093749863,
      "v": 105
    },
    {
      "midi": 79,
      "hit": false,
      "t": 189996.38999999993,
      "d": 131.94193749999977,
      "v": 62
    },
    {
      "midi": 41,
      "hit": false,
      "t": 189996.39,
      "d": 1279.4895781250088,
      "v": 107
    },
    {
      "midi": 67,
      "hit": false,
      "t": 189996.3900000002,
      "d": 649.2932187499828,
      "v": 95
    },
    {
      "midi": 59,
      "hit": false,
      "t": 189996.39000000025,
      "d": 1814.2016406249895,
      "v": 77
    },
    {
      "midi": 62,
      "hit": false,
      "t": 189996.39000000025,
      "d": 1966.9765156249923,
      "v": 59
    },
    {
      "midi": 67,
      "hit": false,
      "t": 189996.39000000025,
      "d": 3248.2021718749893,
      "v": 83
    },
    {
      "midi": 67,
      "hit": false,
      "t": 190051.94449999993,
      "d": 131.94193749999977,
      "v": 62
    },
    {
      "midi": 83,
      "hit": false,
      "t": 190329.71699999992,
      "d": 114.5811562500021,
      "v": 70
    },
    {
      "midi": 71,
      "hit": false,
      "t": 190385.27149999992,
      "d": 114.5811562500021,
      "v": 70
    },
    {
      "midi": 69,
      "hit": false,
      "t": 190663.0439999997,
      "d": 649.2932187500119,
      "v": 101
    },
    {
      "midi": 86,
      "hit": false,
      "t": 190663.0439999999,
      "d": 112.84507812501397,
      "v": 75
    },
    {
      "midi": 69,
      "hit": false,
      "t": 190663.04400000017,
      "d": 687.4869375000126,
      "v": 92
    },
    {
      "midi": 74,
      "hit": false,
      "t": 190718.5984999999,
      "d": 112.84507812501397,
      "v": 75
    },
    {
      "midi": 91,
      "hit": false,
      "t": 190996.37099999993,
      "d": 112.84507812501397,
      "v": 71
    },
    {
      "midi": 79,
      "hit": false,
      "t": 191051.92549999992,
      "d": 112.84507812501397,
      "v": 71
    },
    {
      "midi": 71,
      "hit": false,
      "t": 191329.6979999997,
      "d": 114.5811562500021,
      "v": 107
    },
    {
      "midi": 86,
      "hit": false,
      "t": 191329.69799999995,
      "d": 133.6780156249879,
      "v": 47
    },
    {
      "midi": 41,
      "hit": false,
      "t": 191329.69800000003,
      "d": 649.2932187500119,
      "v": 92
    },
    {
      "midi": 71,
      "hit": false,
      "t": 191329.69800000018,
      "d": 668.3900781249977,
      "v": 91
    },
    {
      "midi": 74,
      "hit": false,
      "t": 191385.25249999994,
      "d": 133.6780156249879,
      "v": 47
    },
    {
      "midi": 83,
      "hit": false,
      "t": 191663.02499999994,
      "d": 152.7748750000028,
      "v": 68
    },
    {
      "midi": 71,
      "hit": false,
      "t": 191718.57949999993,
      "d": 152.7748750000028,
      "v": 68
    },
    {
      "midi": 67,
      "hit": false,
      "t": 191996.35199999972,
      "d": 248.25917187499,
      "v": 77
    },
    {
      "midi": 72,
      "hit": false,
      "t": 191996.35199999972,
      "d": 324.6466093749914,
      "v": 99
    },
    {
      "midi": 64,
      "hit": false,
      "t": 191996.35199999972,
      "d": 743.0414374999818,
      "v": 92
    },
    {
      "midi": 52,
      "hit": false,
      "t": 191996.35199999972,
      "d": 993.0366874999891,
      "v": 77
    },
    {
      "midi": 88,
      "hit": false,
      "t": 191996.35199999993,
      "d": 171.8717343749886,
      "v": 70
    },
    {
      "midi": 40,
      "hit": false,
      "t": 191996.35200000004,
      "d": 1336.7801562499953,
      "v": 91
    },
    {
      "midi": 72,
      "hit": false,
      "t": 191996.3520000002,
      "d": 670.1261562499858,
      "v": 101
    },
    {
      "midi": 64,
      "hit": false,
      "t": 191996.35200000025,
      "d": 1279.4895781249797,
      "v": 97
    },
    {
      "midi": 60,
      "hit": false,
      "t": 191996.35200000025,
      "d": 6694.317250000022,
      "v": 83
    },
    {
      "midi": 76,
      "hit": false,
      "t": 192051.90649999992,
      "d": 171.8717343749886,
      "v": 70
    },
    {
      "midi": 79,
      "hit": false,
      "t": 192329.67899999992,
      "d": 170.13565625000047,
      "v": 54
    },
    {
      "midi": 67,
      "hit": false,
      "t": 192385.23349999991,
      "d": 170.13565625000047,
      "v": 54
    },
    {
      "midi": 67,
      "hit": false,
      "t": 192663.0059999997,
      "d": 152.7748750000028,
      "v": 89
    },
    {
      "midi": 84,
      "hit": false,
      "t": 192663.0059999999,
      "d": 229.1623125000042,
      "v": 68
    },
    {
      "midi": 67,
      "hit": false,
      "t": 192663.00600000017,
      "d": 706.5837968749984,
      "v": 89
    },
    {
      "midi": 72,
      "hit": false,
      "t": 192718.5604999999,
      "d": 229.1623125000042,
      "v": 68
    },
    {
      "midi": 88,
      "hit": false,
      "t": 192996.3329999999,
      "d": 190.9685937500035,
      "v": 68
    },
    {
      "midi": 76,
      "hit": false,
      "t": 193051.8874999999,
      "d": 190.9685937500035,
      "v": 68
    },
    {
      "midi": 53,
      "hit": false,
      "t": 193329.6599999997,
      "d": 305.5497500000056,
      "v": 88
    },
    {
      "midi": 57,
      "hit": false,
      "t": 193329.6599999997,
      "d": 324.6466093749914,
      "v": 85
    },
    {
      "midi": 60,
      "hit": false,
      "t": 193329.6599999997,
      "d": 324.6466093749914,
      "v": 95
    },
    {
      "midi": 65,
      "hit": false,
      "t": 193329.6599999997,
      "d": 324.6466093749914,
      "v": 88
    },
    {
      "midi": 89,
      "hit": false,
      "t": 193329.6599999999,
      "d": 229.1623125000042,
      "v": 74
    },
    {
      "midi": 31,
      "hit": false,
      "t": 193329.66000000003,
      "d": 649.2932187500119,
      "v": 109
    },
    {
      "midi": 65,
      "hit": false,
      "t": 193329.66000000018,
      "d": 668.3900781249686,
      "v": 91
    },
    {
      "midi": 57,
      "hit": false,
      "t": 193329.66000000024,
      "d": 611.0995000000112,
      "v": 92
    },
    {
      "midi": 65,
      "hit": false,
      "t": 193329.66000000024,
      "d": 729.1528125000186,
      "v": 72
    },
    {
      "midi": 77,
      "hit": false,
      "t": 193385.21449999989,
      "d": 229.1623125000042,
      "v": 74
    },
    {
      "midi": 81,
      "hit": false,
      "t": 193662.98699999988,
      "d": 133.6780156249879,
      "v": 64
    },
    {
      "midi": 69,
      "hit": false,
      "t": 193718.54149999988,
      "d": 133.6780156249879,
      "v": 64
    },
    {
      "midi": 60,
      "hit": false,
      "t": 193996.3139999997,
      "d": 1145.8115624999919,
      "v": 94
    },
    {
      "midi": 55,
      "hit": false,
      "t": 193996.3139999997,
      "d": 1184.0052812499925,
      "v": 72
    },
    {
      "midi": 64,
      "hit": false,
      "t": 193996.3139999997,
      "d": 1241.295859374979,
      "v": 105
    },
    {
      "midi": 48,
      "hit": false,
      "t": 193996.3139999997,
      "d": 1279.4895781249797,
      "v": 85
    },
    {
      "midi": 88,
      "hit": false,
      "t": 193996.31399999987,
      "d": 131.94193749999977,
      "v": 64
    },
    {
      "midi": 36,
      "hit": false,
      "t": 193996.31400000004,
      "d": 1642.329906250001,
      "v": 103
    },
    {
      "midi": 64,
      "hit": false,
      "t": 193996.31400000016,
      "d": 1088.5209843749763,
      "v": 103
    },
    {
      "midi": 64,
      "hit": false,
      "t": 193996.31400000025,
      "d": 3994.7157656250056,
      "v": 103
    },
    {
      "midi": 55,
      "hit": false,
      "t": 193996.31400000025,
      "d": 5833.222500000033,
      "v": 71
    },
    {
      "midi": 76,
      "hit": false,
      "t": 194051.86849999987,
      "d": 131.94193749999977,
      "v": 64
    },
    {
      "midi": 79,
      "hit": false,
      "t": 194329.64099999986,
      "d": 229.1623125000042,
      "v": 64
    },
    {
      "midi": 67,
      "hit": false,
      "t": 194385.19549999986,
      "d": 229.1623125000042,
      "v": 64
    },
    {
      "midi": 84,
      "hit": false,
      "t": 194662.96799999985,
      "d": 152.7748750000028,
      "v": 67
    },
    {
      "midi": 72,
      "hit": false,
      "t": 194718.52249999985,
      "d": 152.7748750000028,
      "v": 67
    },
    {
      "midi": 86,
      "hit": false,
      "t": 194996.29499999984,
      "d": 152.7748750000028,
      "v": 55
    },
    {
      "midi": 74,
      "hit": false,
      "t": 195051.84949999984,
      "d": 152.7748750000028,
      "v": 55
    },
    {
      "midi": 64,
      "hit": false,
      "t": 195329.62199999968,
      "d": 361.10425000000396,
      "v": 109
    },
    {
      "midi": 88,
      "hit": false,
      "t": 195329.62199999983,
      "d": 208.32937500000116,
      "v": 59
    },
    {
      "midi": 64,
      "hit": false,
      "t": 195329.62200000015,
      "d": 345.4795468749944,
      "v": 107
    },
    {
      "midi": 76,
      "hit": false,
      "t": 195385.17649999983,
      "d": 208.32937500000116,
      "v": 59
    },
    {
      "midi": 62,
      "hit": false,
      "t": 195662.94899999967,
      "d": 347.21562500001164,
      "v": 79
    },
    {
      "midi": 84,
      "hit": false,
      "t": 195662.94899999982,
      "d": 114.5811562500021,
      "v": 65
    },
    {
      "midi": 36,
      "hit": false,
      "t": 195662.94900000005,
      "d": 322.91053125000326,
      "v": 91
    },
    {
      "midi": 62,
      "hit": false,
      "t": 195662.94900000014,
      "d": 361.10425000000396,
      "v": 85
    },
    {
      "midi": 72,
      "hit": false,
      "t": 195718.50349999982,
      "d": 114.5811562500021,
      "v": 65
    },
    {
      "midi": 60,
      "hit": false,
      "t": 195996.2759999997,
      "d": 1031.2304062499898,
      "v": 99
    },
    {
      "midi": 45,
      "hit": false,
      "t": 195996.2759999997,
      "d": 1338.5162343749835,
      "v": 91
    },
    {
      "midi": 57,
      "hit": false,
      "t": 195996.2759999997,
      "d": 1680.5236250000016,
      "v": 92
    },
    {
      "midi": 88,
      "hit": false,
      "t": 195996.2759999998,
      "d": 152.7748750000028,
      "v": 65
    },
    {
      "midi": 33,
      "hit": false,
      "t": 195996.27600000004,
      "d": 1527.7487499999988,
      "v": 103
    },
    {
      "midi": 60,
      "hit": false,
      "t": 195996.27600000013,
      "d": 956.5790468750056,
      "v": 99
    },
    {
      "midi": 76,
      "hit": false,
      "t": 196051.8304999998,
      "d": 152.7748750000028,
      "v": 65
    },
    {
      "midi": 84,
      "hit": false,
      "t": 196329.6029999998,
      "d": 171.8717343749886,
      "v": 59
    },
    {
      "midi": 72,
      "hit": false,
      "t": 196385.1574999998,
      "d": 171.8717343749886,
      "v": 59
    },
    {
      "midi": 79,
      "hit": false,
      "t": 196662.9299999998,
      "d": 152.7748750000028,
      "v": 49
    },
    {
      "midi": 67,
      "hit": false,
      "t": 196718.4844999998,
      "d": 152.7748750000028,
      "v": 49
    },
    {
      "midi": 62,
      "hit": false,
      "t": 196996.2569999997,
      "d": 362.8403281249921,
      "v": 88
    },
    {
      "midi": 84,
      "hit": false,
      "t": 196996.25699999978,
      "d": 112.84507812501397,
      "v": 56
    },
    {
      "midi": 62,
      "hit": false,
      "t": 196996.25700000013,
      "d": 362.8403281249921,
      "v": 86
    },
    {
      "midi": 72,
      "hit": false,
      "t": 197051.81149999978,
      "d": 112.84507812501397,
      "v": 56
    },
    {
      "midi": 64,
      "hit": false,
      "t": 197329.58399999968,
      "d": 305.5497500000056,
      "v": 101
    },
    {
      "midi": 88,
      "hit": false,
      "t": 197329.5839999998,
      "d": 246.52309375000186,
      "v": 68
    },
    {
      "midi": 64,
      "hit": false,
      "t": 197329.58400000012,
      "d": 342.00739062498906,
      "v": 107
    },
    {
      "midi": 76,
      "hit": false,
      "t": 197385.1384999998,
      "d": 246.52309375000186,
      "v": 68
    },
    {
      "midi": 65,
      "hit": false,
      "t": 197662.9109999997,
      "d": 114.5811562500021,
      "v": 94
    },
    {
      "midi": 84,
      "hit": false,
      "t": 197662.9109999998,
      "d": 93.74821874999907,
      "v": 72
    },
    {
      "midi": 33,
      "hit": false,
      "t": 197662.91100000005,
      "d": 381.9371874999779,
      "v": 91
    },
    {
      "midi": 65,
      "hit": false,
      "t": 197662.9110000001,
      "d": 324.6466093749914,
      "v": 89
    },
    {
      "midi": 72,
      "hit": false,
      "t": 197718.4654999998,
      "d": 93.74821874999907,
      "v": 72
    },
    {
      "midi": 60,
      "hit": false,
      "t": 197996.2379999997,
      "d": 553.8089218749956,
      "v": 92
    },
    {
      "midi": 62,
      "hit": false,
      "t": 197996.2379999997,
      "d": 1184.0052812500217,
      "v": 85
    },
    {
      "midi": 67,
      "hit": false,
      "t": 197996.2379999997,
      "d": 1374.9738750000251,
      "v": 89
    },
    {
      "midi": 55,
      "hit": false,
      "t": 197996.2379999997,
      "d": 1795.1047812500037,
      "v": 77
    },
    {
      "midi": 91,
      "hit": false,
      "t": 197996.23799999978,
      "d": 171.8717343749886,
      "v": 68
    },
    {
      "midi": 31,
      "hit": false,
      "t": 197996.23800000004,
      "d": 1986.0733749999781,
      "v": 94
    },
    {
      "midi": 67,
      "hit": false,
      "t": 197996.2380000001,
      "d": 1336.7801562499953,
      "v": 92
    },
    {
      "midi": 62,
      "hit": false,
      "t": 197996.23800000024,
      "d": 1993.017687500018,
      "v": 64
    },
    {
      "midi": 79,
      "hit": false,
      "t": 198051.79249999978,
      "d": 171.8717343749886,
      "v": 68
    },
    {
      "midi": 86,
      "hit": false,
      "t": 198329.56499999977,
      "d": 112.84507812501397,
      "v": 40
    },
    {
      "midi": 74,
      "hit": false,
      "t": 198385.11949999977,
      "d": 112.84507812501397,
      "v": 40
    },
    {
      "midi": 59,
      "hit": false,
      "t": 198662.8919999997,
      "d": 1013.8696249999921,
      "v": 103
    },
    {
      "midi": 83,
      "hit": false,
      "t": 198662.8919999998,
      "d": 171.8717343749886,
      "v": 62
    },
    {
      "midi": 59,
      "hit": false,
      "t": 198662.89200000025,
      "d": 1184.0052812500217,
      "v": 99
    },
    {
      "midi": 71,
      "hit": false,
      "t": 198718.4464999998,
      "d": 171.8717343749886,
      "v": 62
    },
    {
      "midi": 86,
      "hit": false,
      "t": 198996.21899999978,
      "d": 190.9685937500035,
      "v": 59
    },
    {
      "midi": 74,
      "hit": false,
      "t": 199051.77349999978,
      "d": 190.9685937500035,
      "v": 59
    },
    {
      "midi": 69,
      "hit": false,
      "t": 199329.5459999997,
      "d": 190.9685937500035,
      "v": 95
    },
    {
      "midi": 79,
      "hit": false,
      "t": 199329.54599999977,
      "d": 248.25917187499,
      "v": 67
    },
    {
      "midi": 69,
      "hit": false,
      "t": 199329.5460000001,
      "d": 343.7434687500063,
      "v": 91
    },
    {
      "midi": 67,
      "hit": false,
      "t": 199385.10049999977,
      "d": 248.25917187499,
      "v": 67
    },
    {
      "midi": 71,
      "hit": false,
      "t": 199662.8729999997,
      "d": 112.84507812498487,
      "v": 89
    },
    {
      "midi": 83,
      "hit": false,
      "t": 199662.87299999976,
      "d": 76.3874375000014,
      "v": 52
    },
    {
      "midi": 71,
      "hit": false,
      "t": 199662.8730000001,
      "d": 345.4795468749944,
      "v": 89
    },
    {
      "midi": 71,
      "hit": false,
      "t": 199718.42749999976,
      "d": 76.3874375000014,
      "v": 52
    },
    {
      "midi": 72,
      "hit": false,
      "t": 199996.1999999997,
      "d": 666.6540000000095,
      "v": 97
    },
    {
      "midi": 69,
      "hit": false,
      "t": 199996.1999999997,
      "d": 668.3900781249977,
      "v": 103
    },
    {
      "midi": 65,
      "hit": false,
      "t": 199996.1999999997,
      "d": 1031.2304062499898,
      "v": 85
    },
    {
      "midi": 53,
      "hit": false,
      "t": 199996.1999999997,
      "d": 1451.3613124999974,
      "v": 95
    },
    {
      "midi": 81,
      "hit": false,
      "t": 199996.19999999975,
      "d": 208.32937500000116,
      "v": 82
    },
    {
      "midi": 29,
      "hit": false,
      "t": 199996.2,
      "d": 2005.170234374993,
      "v": 107
    },
    {
      "midi": 72,
      "hit": false,
      "t": 199996.2000000001,
      "d": 668.3900781249977,
      "v": 99
    },
    {
      "midi": 57,
      "hit": false,
      "t": 199996.20000000027,
      "d": 1854.1314375000075,
      "v": 77
    },
    {
      "midi": 65,
      "hit": false,
      "t": 199996.20000000027,
      "d": 2694.393250000023,
      "v": 70
    },
    {
      "midi": 60,
      "hit": false,
      "t": 199996.20000000027,
      "d": 7319.3053750000545,
      "v": 83
    },
    {
      "midi": 69,
      "hit": false,
      "t": 200051.75449999975,
      "d": 208.32937500000116,
      "v": 82
    },
    {
      "midi": 84,
      "hit": false,
      "t": 200329.52699999974,
      "d": 152.7748750000028,
      "v": 77
    },
    {
      "midi": 72,
      "hit": false,
      "t": 200385.08149999974,
      "d": 152.7748750000028,
      "v": 77
    },
    {
      "midi": 71,
      "hit": false,
      "t": 200662.8539999997,
      "d": 420.1309062499786,
      "v": 94
    },
    {
      "midi": 89,
      "hit": false,
      "t": 200662.85399999973,
      "d": 152.7748750000028,
      "v": 82
    },
    {
      "midi": 71,
      "hit": false,
      "t": 200662.8540000001,
      "d": 706.5837968749693,
      "v": 91
    },
    {
      "midi": 77,
      "hit": false,
      "t": 200718.40849999973,
      "d": 152.7748750000028,
      "v": 82
    },
    {
      "midi": 84,
      "hit": false,
      "t": 200996.18099999972,
      "d": 208.32937500000116,
      "v": 70
    },
    {
      "midi": 72,
      "hit": false,
      "t": 201051.73549999972,
      "d": 208.32937500000116,
      "v": 70
    },
    {
      "midi": 65,
      "hit": false,
      "t": 201329.50799999968,
      "d": 133.678015625017,
      "v": 83
    },
    {
      "midi": 69,
      "hit": false,
      "t": 201329.50799999968,
      "d": 152.7748750000028,
      "v": 83
    },
    {
      "midi": 60,
      "hit": false,
      "t": 201329.50799999968,
      "d": 171.8717343749886,
      "v": 74
    },
    {
      "midi": 93,
      "hit": false,
      "t": 201329.5079999997,
      "d": 210.0654531249893,
      "v": 75
    },
    {
      "midi": 69,
      "hit": false,
      "t": 201329.5080000001,
      "d": 630.196359374997,
      "v": 92
    },
    {
      "midi": 81,
      "hit": false,
      "t": 201385.0624999997,
      "d": 210.0654531249893,
      "v": 75
    },
    {
      "midi": 89,
      "hit": false,
      "t": 201662.8349999997,
      "d": 114.5811562500021,
      "v": 71
    },
    {
      "midi": 77,
      "hit": false,
      "t": 201718.3894999997,
      "d": 114.5811562500021,
      "v": 71
    },
    {
      "midi": 65,
      "hit": false,
      "t": 201996.16199999966,
      "d": 725.6806562500133,
      "v": 91
    },
    {
      "midi": 67,
      "hit": false,
      "t": 201996.16199999966,
      "d": 859.3586718750012,
      "v": 86
    },
    {
      "midi": 48,
      "hit": false,
      "t": 201996.16199999966,
      "d": 897.5523906250019,
      "v": 97
    },
    {
      "midi": 60,
      "hit": false,
      "t": 201996.16199999966,
      "d": 935.7461093750026,
      "v": 83
    },
    {
      "midi": 91,
      "hit": false,
      "t": 201996.1619999997,
      "d": 171.8717343749886,
      "v": 79
    },
    {
      "midi": 36,
      "hit": false,
      "t": 201996.162,
      "d": 1336.7801562499953,
      "v": 107
    },
    {
      "midi": 67,
      "hit": false,
      "t": 201996.1620000001,
      "d": 1319.4193749999977,
      "v": 99
    },
    {
      "midi": 67,
      "hit": false,
      "t": 201996.16200000027,
      "d": 1319.4193750000268,
      "v": 74
    },
    {
      "midi": 79,
      "hit": false,
      "t": 202051.7164999997,
      "d": 171.8717343749886,
      "v": 79
    },
    {
      "midi": 88,
      "hit": false,
      "t": 202329.48899999968,
      "d": 131.94193749999977,
      "v": 60
    },
    {
      "midi": 76,
      "hit": false,
      "t": 202385.04349999968,
      "d": 131.94193749999977,
      "v": 60
    },
    {
      "midi": 64,
      "hit": false,
      "t": 202662.81599999967,
      "d": 152.7748750000028,
      "v": 107
    },
    {
      "midi": 84,
      "hit": false,
      "t": 202662.81599999967,
      "d": 112.84507812501397,
      "v": 49
    },
    {
      "midi": 64,
      "hit": false,
      "t": 202662.81600000028,
      "d": 649.2932187500119,
      "v": 94
    },
    {
      "midi": 72,
      "hit": false,
      "t": 202718.37049999967,
      "d": 112.84507812501397,
      "v": 49
    },
    {
      "midi": 88,
      "hit": false,
      "t": 202996.1429999997,
      "d": 133.6780156249879,
      "v": 70
    },
    {
      "midi": 76,
      "hit": false,
      "t": 203051.6974999997,
      "d": 133.6780156249879,
      "v": 70
    },
    {
      "midi": 53,
      "hit": false,
      "t": 203329.46999999965,
      "d": 305.5497500000056,
      "v": 94
    },
    {
      "midi": 65,
      "hit": false,
      "t": 203329.46999999965,
      "d": 326.3826875000086,
      "v": 82
    },
    {
      "midi": 69,
      "hit": false,
      "t": 203329.46999999965,
      "d": 342.00739062501816,
      "v": 92
    },
    {
      "midi": 60,
      "hit": false,
      "t": 203329.46999999965,
      "d": 343.7434687500063,
      "v": 83
    },
    {
      "midi": 79,
      "hit": false,
      "t": 203329.46999999968,
      "d": 133.6780156249879,
      "v": 77
    },
    {
      "midi": 41,
      "hit": false,
      "t": 203329.47,
      "d": 706.5837968749984,
      "v": 107
    },
    {
      "midi": 69,
      "hit": false,
      "t": 203329.4700000001,
      "d": 343.7434687499772,
      "v": 89
    },
    {
      "midi": 69,
      "hit": false,
      "t": 203329.4700000003,
      "d": 708.3198750000156,
      "v": 56
    },
    {
      "midi": 65,
      "hit": false,
      "t": 203329.4700000003,
      "d": 744.7775156250282,
      "v": 86
    },
    {
      "midi": 67,
      "hit": false,
      "t": 203385.02449999968,
      "d": 133.6780156249879,
      "v": 77
    },
    {
      "midi": 71,
      "hit": false,
      "t": 203662.79699999967,
      "d": 112.84507812498487,
      "v": 91
    },
    {
      "midi": 81,
      "hit": false,
      "t": 203662.79699999967,
      "d": 131.94193749999977,
      "v": 71
    },
    {
      "midi": 71,
      "hit": false,
      "t": 203662.79700000008,
      "d": 364.5764062499802,
      "v": 91
    },
    {
      "midi": 69,
      "hit": false,
      "t": 203718.35149999967,
      "d": 131.94193749999977,
      "v": 71
    },
    {
      "midi": 72,
      "hit": false,
      "t": 203996.12399999966,
      "d": 592.0026406249963,
      "v": 86
    },
    {
      "midi": 67,
      "hit": false,
      "t": 203996.12399999966,
      "d": 687.4869375000126,
      "v": 83
    },
    {
      "midi": 48,
      "hit": false,
      "t": 203996.12399999966,
      "d": 706.5837968749984,
      "v": 89
    },
    {
      "midi": 64,
      "hit": false,
      "t": 203996.12399999966,
      "d": 763.8743749999849,
      "v": 88
    },
    {
      "midi": 79,
      "hit": false,
      "t": 203996.12399999966,
      "d": 152.7748750000028,
      "v": 82
    },
    {
      "midi": 36,
      "hit": false,
      "t": 203996.124,
      "d": 1336.7801562499953,
      "v": 103
    },
    {
      "midi": 72,
      "hit": false,
      "t": 203996.12400000007,
      "d": 725.6806562499842,
      "v": 91
    },
    {
      "midi": 64,
      "hit": false,
      "t": 203996.1240000003,
      "d": 1336.7801562500244,
      "v": 91
    },
    {
      "midi": 67,
      "hit": false,
      "t": 203996.1240000003,
      "d": 1336.7801562500244,
      "v": 85
    },
    {
      "midi": 67,
      "hit": false,
      "t": 204051.67849999966,
      "d": 152.7748750000028,
      "v": 82
    },
    {
      "midi": 84,
      "hit": false,
      "t": 204329.45099999965,
      "d": 93.74821874999907,
      "v": 66
    },
    {
      "midi": 72,
      "hit": false,
      "t": 204385.00549999965,
      "d": 93.74821874999907,
      "v": 66
    },
    {
      "midi": 88,
      "hit": false,
      "t": 204662.77799999964,
      "d": 171.8717343749886,
      "v": 70
    },
    {
      "midi": 71,
      "hit": false,
      "t": 204662.77799999967,
      "d": 133.6780156249879,
      "v": 91
    },
    {
      "midi": 71,
      "hit": false,
      "t": 204662.77800000005,
      "d": 687.4869375000126,
      "v": 89
    },
    {
      "midi": 76,
      "hit": false,
      "t": 204718.33249999964,
      "d": 171.8717343749886,
      "v": 70
    },
    {
      "midi": 84,
      "hit": false,
      "t": 204996.10499999963,
      "d": 114.5811562500021,
      "v": 67
    },
    {
      "midi": 72,
      "hit": false,
      "t": 205051.65949999963,
      "d": 114.5811562500021,
      "v": 67
    },
    {
      "midi": 89,
      "hit": false,
      "t": 205329.43199999962,
      "d": 190.9685937500035,
      "v": 77
    },
    {
      "midi": 53,
      "hit": false,
      "t": 205329.43199999965,
      "d": 248.25917187499,
      "v": 86
    },
    {
      "midi": 65,
      "hit": false,
      "t": 205329.43199999965,
      "d": 265.61995312498766,
      "v": 88
    },
    {
      "midi": 69,
      "hit": false,
      "t": 205329.43199999965,
      "d": 305.5497499999765,
      "v": 89
    },
    {
      "midi": 60,
      "hit": false,
      "t": 205329.43199999965,
      "d": 324.6466093749623,
      "v": 82
    },
    {
      "midi": 41,
      "hit": false,
      "t": 205329.432,
      "d": 668.3900781249977,
      "v": 99
    },
    {
      "midi": 69,
      "hit": false,
      "t": 205329.43200000006,
      "d": 668.3900781249977,
      "v": 94
    },
    {
      "midi": 69,
      "hit": false,
      "t": 205329.43200000032,
      "d": 668.3900781249977,
      "v": 74
    },
    {
      "midi": 65,
      "hit": false,
      "t": 205329.43200000032,
      "d": 706.5837968749984,
      "v": 88
    },
    {
      "midi": 77,
      "hit": false,
      "t": 205384.98649999962,
      "d": 190.9685937500035,
      "v": 77
    },
    {
      "midi": 81,
      "hit": false,
      "t": 205662.7589999996,
      "d": 133.6780156249879,
      "v": 75
    },
    {
      "midi": 69,
      "hit": false,
      "t": 205718.3134999996,
      "d": 133.6780156249879,
      "v": 75
    },
    {
      "midi": 60,
      "hit": false,
      "t": 205996.0859999996,
      "d": 342.00739062498906,
      "v": 75
    },
    {
      "midi": 48,
      "hit": false,
      "t": 205996.0859999996,
      "d": 343.7434687499772,
      "v": 97
    },
    {
      "midi": 64,
      "hit": false,
      "t": 205996.0859999996,
      "d": 361.10424999997485,
      "v": 95
    },
    {
      "midi": 67,
      "hit": false,
      "t": 205996.0859999996,
      "d": 361.10424999997485,
      "v": 89
    },
    {
      "midi": 88,
      "hit": false,
      "t": 205996.0859999996,
      "d": 284.71681250000256,
      "v": 65
    },
    {
      "midi": 36,
      "hit": false,
      "t": 205996.086,
      "d": 668.3900781249686,
      "v": 88
    },
    {
      "midi": 67,
      "hit": false,
      "t": 205996.08600000007,
      "d": 649.2932187499828,
      "v": 86
    },
    {
      "midi": 64,
      "hit": false,
      "t": 205996.08600000033,
      "d": 611.0994999999821,
      "v": 88
    },
    {
      "midi": 67,
      "hit": false,
      "t": 205996.08600000033,
      "d": 687.4869374999835,
      "v": 74
    },
    {
      "midi": 76,
      "hit": false,
      "t": 206051.6404999996,
      "d": 284.71681250000256,
      "v": 65
    },
    {
      "midi": 79,
      "hit": false,
      "t": 206329.4129999996,
      "d": 112.84507812501397,
      "v": 68
    },
    {
      "midi": 67,
      "hit": false,
      "t": 206384.9674999996,
      "d": 112.84507812501397,
      "v": 68
    },
    {
      "midi": 60,
      "hit": false,
      "t": 206662.73999999958,
      "d": 267.3560312500049,
      "v": 86
    },
    {
      "midi": 65,
      "hit": false,
      "t": 206662.73999999958,
      "d": 286.4528906249907,
      "v": 85
    },
    {
      "midi": 69,
      "hit": false,
      "t": 206662.73999999958,
      "d": 305.5497499999765,
      "v": 94
    },
    {
      "midi": 53,
      "hit": false,
      "t": 206662.73999999958,
      "d": 324.6466093749623,
      "v": 89
    },
    {
      "midi": 89,
      "hit": false,
      "t": 206662.7399999996,
      "d": 343.7434687499772,
      "v": 68
    },
    {
      "midi": 41,
      "hit": false,
      "t": 206662.74,
      "d": 725.6806562499842,
      "v": 101
    },
    {
      "midi": 69,
      "hit": false,
      "t": 206662.74000000005,
      "d": 687.4869375000126,
      "v": 95
    },
    {
      "midi": 65,
      "hit": false,
      "t": 206662.7400000003,
      "d": 708.3198750000156,
      "v": 80
    },
    {
      "midi": 69,
      "hit": false,
      "t": 206662.7400000003,
      "d": 744.7775156250282,
      "v": 95
    },
    {
      "midi": 77,
      "hit": false,
      "t": 206718.2944999996,
      "d": 343.7434687499772,
      "v": 68
    },
    {
      "midi": 81,
      "hit": false,
      "t": 206996.0669999996,
      "d": 133.6780156249879,
      "v": 64
    },
    {
      "midi": 69,
      "hit": false,
      "t": 207051.6214999996,
      "d": 133.6780156249879,
      "v": 64
    },
    {
      "midi": 55,
      "hit": false,
      "t": 207329.39399999953,
      "d": 284.71681250000256,
      "v": 67
    },
    {
      "midi": 71,
      "hit": false,
      "t": 207329.39399999953,
      "d": 284.71681250000256,
      "v": 85
    },
    {
      "midi": 62,
      "hit": false,
      "t": 207329.39399999953,
      "d": 305.5497500000056,
      "v": 68
    },
    {
      "midi": 67,
      "hit": false,
      "t": 207329.39399999953,
      "d": 324.6466093749914,
      "v": 82
    },
    {
      "midi": 91,
      "hit": false,
      "t": 207329.3939999996,
      "d": 305.5497500000056,
      "v": 72
    },
    {
      "midi": 43,
      "hit": false,
      "t": 207329.39399999997,
      "d": 668.3900781249977,
      "v": 101
    },
    {
      "midi": 71,
      "hit": false,
      "t": 207329.39400000006,
      "d": 725.6806562500133,
      "v": 89
    },
    {
      "midi": 62,
      "hit": false,
      "t": 207329.39400000032,
      "d": 477.4214843750233,
      "v": 64
    },
    {
      "midi": 71,
      "hit": false,
      "t": 207329.39400000032,
      "d": 670.1261562500149,
      "v": 66
    },
    {
      "midi": 67,
      "hit": false,
      "t": 207329.39400000032,
      "d": 1951.351812500041,
      "v": 92
    },
    {
      "midi": 79,
      "hit": false,
      "t": 207384.9484999996,
      "d": 305.5497500000056,
      "v": 72
    },
    {
      "midi": 83,
      "hit": false,
      "t": 207662.7209999996,
      "d": 131.94193749999977,
      "v": 74
    },
    {
      "midi": 71,
      "hit": false,
      "t": 207718.2754999996,
      "d": 131.94193749999977,
      "v": 74
    },
    {
      "midi": 67,
      "hit": false,
      "t": 207996.04799999952,
      "d": 171.8717343749886,
      "v": 85
    },
    {
      "midi": 72,
      "hit": false,
      "t": 207996.04799999952,
      "d": 190.9685937499744,
      "v": 95
    },
    {
      "midi": 64,
      "hit": false,
      "t": 207996.04799999952,
      "d": 763.8743749999849,
      "v": 97
    },
    {
      "midi": 48,
      "hit": false,
      "t": 207996.04799999952,
      "d": 782.9712343749998,
      "v": 92
    },
    {
      "midi": 88,
      "hit": false,
      "t": 207996.0479999996,
      "d": 133.6780156249879,
      "v": 74
    },
    {
      "midi": 36,
      "hit": false,
      "t": 207996.04799999998,
      "d": 1357.6130937499984,
      "v": 97
    },
    {
      "midi": 72,
      "hit": false,
      "t": 207996.04800000007,
      "d": 649.2932187500119,
      "v": 95
    },
    {
      "midi": 72,
      "hit": false,
      "t": 207996.04800000033,
      "d": 611.0995000000112,
      "v": 80
    },
    {
      "midi": 64,
      "hit": false,
      "t": 207996.04800000033,
      "d": 1298.5864375000237,
      "v": 92
    },
    {
      "midi": 76,
      "hit": false,
      "t": 208051.6024999996,
      "d": 133.6780156249879,
      "v": 74
    },
    {
      "midi": 79,
      "hit": false,
      "t": 208329.3749999996,
      "d": 246.52309375000186,
      "v": 59
    },
    {
      "midi": 67,
      "hit": false,
      "t": 208384.9294999996,
      "d": 246.52309375000186,
      "v": 59
    },
    {
      "midi": 67,
      "hit": false,
      "t": 208662.7019999995,
      "d": 112.84507812501397,
      "v": 77
    },
    {
      "midi": 84,
      "hit": false,
      "t": 208662.70199999958,
      "d": 131.94193749999977,
      "v": 71
    },
    {
      "midi": 67,
      "hit": false,
      "t": 208662.70200000008,
      "d": 687.4869375000126,
      "v": 94
    },
    {
      "midi": 60,
      "hit": false,
      "t": 208662.70200000034,
      "d": 496.5183437500091,
      "v": 94
    },
    {
      "midi": 72,
      "hit": false,
      "t": 208718.25649999958,
      "d": 131.94193749999977,
      "v": 71
    },
    {
      "midi": 88,
      "hit": false,
      "t": 208996.02899999957,
      "d": 95.4842968749872,
      "v": 67
    },
    {
      "midi": 76,
      "hit": false,
      "t": 209051.58349999957,
      "d": 95.4842968749872,
      "v": 67
    },
    {
      "midi": 62,
      "hit": false,
      "t": 209329.3559999995,
      "d": 210.0654531249893,
      "v": 82
    },
    {
      "midi": 55,
      "hit": false,
      "t": 209329.3559999995,
      "d": 248.25917187499,
      "v": 68
    },
    {
      "midi": 59,
      "hit": false,
      "t": 209329.3559999995,
      "d": 248.25917187499,
      "v": 85
    },
    {
      "midi": 65,
      "hit": false,
      "t": 209329.3559999995,
      "d": 267.3560312499758,
      "v": 77
    },
    {
      "midi": 89,
      "hit": false,
      "t": 209329.35599999956,
      "d": 131.94193749999977,
      "v": 79
    },
    {
      "midi": 31,
      "hit": false,
      "t": 209329.35599999997,
      "d": 668.3900781249977,
      "v": 103
    },
    {
      "midi": 65,
      "hit": false,
      "t": 209329.3560000001,
      "d": 666.6540000000095,
      "v": 91
    },
    {
      "midi": 57,
      "hit": false,
      "t": 209329.35600000035,
      "d": 571.1697031249932,
      "v": 86
    },
    {
      "midi": 55,
      "hit": false,
      "t": 209329.35600000035,
      "d": 592.0026406249963,
      "v": 56
    },
    {
      "midi": 65,
      "hit": false,
      "t": 209329.35600000035,
      "d": 647.5571406249946,
      "v": 82
    },
    {
      "midi": 62,
      "hit": false,
      "t": 209329.35600000035,
      "d": 687.4869374999835,
      "v": 65
    },
    {
      "midi": 77,
      "hit": false,
      "t": 209384.91049999956,
      "d": 131.94193749999977,
      "v": 79
    },
    {
      "midi": 83,
      "hit": false,
      "t": 209662.68299999955,
      "d": 114.5811562500021,
      "v": 66
    },
    {
      "midi": 71,
      "hit": false,
      "t": 209718.23749999955,
      "d": 114.5811562500021,
      "v": 66
    },
    {
      "midi": 60,
      "hit": false,
      "t": 209996.00999999949,
      "d": 770.8186874999956,
      "v": 85
    },
    {
      "midi": 55,
      "hit": false,
      "t": 209996.00999999949,
      "d": 866.3029843749828,
      "v": 71
    },
    {
      "midi": 64,
      "hit": false,
      "t": 209996.00999999949,
      "d": 866.3029843749828,
      "v": 95
    },
    {
      "midi": 48,
      "hit": false,
      "t": 209996.00999999949,
      "d": 923.5935624999693,
      "v": 83
    },
    {
      "midi": 88,
      "hit": false,
      "t": 209996.00999999954,
      "d": 152.7748750000028,
      "v": 83
    },
    {
      "midi": 36,
      "hit": false,
      "t": 209996.00999999998,
      "d": 1031.2304062499898,
      "v": 99
    },
    {
      "midi": 64,
      "hit": false,
      "t": 209996.0100000001,
      "d": 1184.0052812499925,
      "v": 103
    },
    {
      "midi": 55,
      "hit": false,
      "t": 209996.01000000033,
      "d": 1243.0319374999963,
      "v": 70
    },
    {
      "midi": 60,
      "hit": false,
      "t": 209996.01000000033,
      "d": 1355.8770156249811,
      "v": 80
    },
    {
      "midi": 64,
      "hit": false,
      "t": 209996.01000000033,
      "d": 4069.3671249999315,
      "v": 94
    },
    {
      "midi": 76,
      "hit": false,
      "t": 210051.56449999954,
      "d": 152.7748750000028,
      "v": 83
    },
    {
      "midi": 79,
      "hit": false,
      "t": 210329.33699999953,
      "d": 305.5497500000056,
      "v": 60
    },
    {
      "midi": 67,
      "hit": false,
      "t": 210384.89149999953,
      "d": 305.5497500000056,
      "v": 60
    },
    {
      "midi": 84,
      "hit": false,
      "t": 210662.66399999955,
      "d": 305.5497500000056,
      "v": 64
    },
    {
      "midi": 72,
      "hit": false,
      "t": 210718.21849999955,
      "d": 305.5497500000056,
      "v": 64
    },
    {
      "midi": 88,
      "hit": false,
      "t": 210995.99099999957,
      "d": 133.6780156249879,
      "v": 58
    },
    {
      "midi": 76,
      "hit": false,
      "t": 211051.54549999957,
      "d": 133.6780156249879,
      "v": 58
    },
    {
      "midi": 43,
      "hit": false,
      "t": 211329.31799999945,
      "d": 229.1623125000042,
      "v": 77
    },
    {
      "midi": 64,
      "hit": false,
      "t": 211329.31799999945,
      "d": 284.71681250000256,
      "v": 103
    },
    {
      "midi": 59,
      "hit": false,
      "t": 211329.31799999945,
      "d": 361.10425000000396,
      "v": 103
    },
    {
      "midi": 53,
      "hit": false,
      "t": 211329.31799999945,
      "d": 458.3246249999793,
      "v": 86
    },
    {
      "midi": 86,
      "hit": false,
      "t": 211329.31799999956,
      "d": 343.7434687499772,
      "v": 30
    },
    {
      "midi": 31,
      "hit": false,
      "t": 211329.31799999997,
      "d": 725.6806562500133,
      "v": 95
    },
    {
      "midi": 64,
      "hit": false,
      "t": 211329.3180000001,
      "d": 342.00739062498906,
      "v": 109
    },
    {
      "midi": 53,
      "hit": false,
      "t": 211329.31800000032,
      "d": 590.266562499979,
      "v": 88
    },
    {
      "midi": 59,
      "hit": false,
      "t": 211329.31800000032,
      "d": 706.5837968749693,
      "v": 105
    },
    {
      "midi": 74,
      "hit": false,
      "t": 211384.87249999956,
      "d": 343.7434687499772,
      "v": 30
    },
    {
      "midi": 62,
      "hit": false,
      "t": 211662.64499999944,
      "d": 76.3874375000014,
      "v": 83
    },
    {
      "midi": 83,
      "hit": false,
      "t": 211662.64499999955,
      "d": 114.58115624997299,
      "v": 60
    },
    {
      "midi": 62,
      "hit": false,
      "t": 211662.64500000008,
      "d": 361.10425000000396,
      "v": 82
    },
    {
      "midi": 71,
      "hit": false,
      "t": 211718.19949999955,
      "d": 114.58115624997299,
      "v": 60
    },
    {
      "midi": 55,
      "hit": false,
      "t": 211995.97199999943,
      "d": 418.39482812499045,
      "v": 70
    },
    {
      "midi": 52,
      "hit": false,
      "t": 211995.97199999943,
      "d": 590.266562499979,
      "v": 79
    },
    {
      "midi": 60,
      "hit": false,
      "t": 211995.97199999943,
      "d": 993.0366874999891,
      "v": 101
    },
    {
      "midi": 48,
      "hit": false,
      "t": 211995.97199999943,
      "d": 1682.2597031250189,
      "v": 94
    },
    {
      "midi": 88,
      "hit": false,
      "t": 211995.9719999995,
      "d": 210.0654531249893,
      "v": 79
    },
    {
      "midi": 36,
      "hit": false,
      "t": 211995.97199999998,
      "d": 1565.9424687499995,
      "v": 97
    },
    {
      "midi": 60,
      "hit": false,
      "t": 211995.97200000007,
      "d": 1012.133546875004,
      "v": 99
    },
    {
      "midi": 60,
      "hit": false,
      "t": 211995.9720000003,
      "d": 1814.2016406249895,
      "v": 72
    },
    {
      "midi": 55,
      "hit": false,
      "t": 211995.9720000003,
      "d": 1833.2984999999753,
      "v": 82
    },
    {
      "midi": 76,
      "hit": false,
      "t": 212051.5264999995,
      "d": 210.0654531249893,
      "v": 79
    },
    {
      "midi": 79,
      "hit": false,
      "t": 212329.2989999995,
      "d": 189.23251562498626,
      "v": 67
    },
    {
      "midi": 67,
      "hit": false,
      "t": 212384.8534999995,
      "d": 189.23251562498626,
      "v": 67
    },
    {
      "midi": 84,
      "hit": false,
      "t": 212662.6259999995,
      "d": 152.7748750000028,
      "v": 58
    },
    {
      "midi": 72,
      "hit": false,
      "t": 212718.1804999995,
      "d": 152.7748750000028,
      "v": 58
    },
    {
      "midi": 62,
      "hit": false,
      "t": 212995.95299999943,
      "d": 326.3826875000086,
      "v": 85
    },
    {
      "midi": 86,
      "hit": false,
      "t": 212995.95299999948,
      "d": 171.8717343749886,
      "v": 53
    },
    {
      "midi": 62,
      "hit": false,
      "t": 212995.95300000007,
      "d": 343.7434687499772,
      "v": 83
    },
    {
      "midi": 74,
      "hit": false,
      "t": 213051.50749999948,
      "d": 171.8717343749886,
      "v": 53
    },
    {
      "midi": 64,
      "hit": false,
      "t": 213329.27999999945,
      "d": 324.6466093749914,
      "v": 94
    },
    {
      "midi": 88,
      "hit": false,
      "t": 213329.27999999947,
      "d": 248.25917187499,
      "v": 61
    },
    {
      "midi": 64,
      "hit": false,
      "t": 213329.28000000006,
      "d": 343.7434687499772,
      "v": 107
    },
    {
      "midi": 76,
      "hit": false,
      "t": 213384.83449999947,
      "d": 248.25917187499,
      "v": 61
    },
    {
      "midi": 65,
      "hit": false,
      "t": 213662.60699999944,
      "d": 131.94193749999977,
      "v": 89
    },
    {
      "midi": 84,
      "hit": false,
      "t": 213662.60699999947,
      "d": 133.6780156249879,
      "v": 64
    },
    {
      "midi": 36,
      "hit": false,
      "t": 213662.607,
      "d": 324.6466093749914,
      "v": 94
    },
    {
      "midi": 65,
      "hit": false,
      "t": 213662.60700000005,
      "d": 362.8403281249921,
      "v": 80
    },
    {
      "midi": 72,
      "hit": false,
      "t": 213718.16149999946,
      "d": 133.6780156249879,
      "v": 64
    },
    {
      "midi": 59,
      "hit": false,
      "t": 213995.93399999943,
      "d": 687.4869374999835,
      "v": 99
    },
    {
      "midi": 62,
      "hit": false,
      "t": 213995.93399999943,
      "d": 920.121406249993,
      "v": 94
    },
    {
      "midi": 67,
      "hit": false,
      "t": 213995.93399999943,
      "d": 977.4119843749795,
      "v": 99
    },
    {
      "midi": 52,
      "hit": false,
      "t": 213995.93399999943,
      "d": 1760.3832187499793,
      "v": 95
    },
    {
      "midi": 86,
      "hit": false,
      "t": 213995.93399999946,
      "d": 171.8717343749886,
      "v": 66
    },
    {
      "midi": 40,
      "hit": false,
      "t": 213995.93399999998,
      "d": 2043.3639531249937,
      "v": 95
    },
    {
      "midi": 67,
      "hit": false,
      "t": 213995.93400000004,
      "d": 1355.8770156249811,
      "v": 92
    },
    {
      "midi": 59,
      "hit": false,
      "t": 213995.93400000027,
      "d": 1814.2016406249895,
      "v": 88
    },
    {
      "midi": 62,
      "hit": false,
      "t": 213995.93400000027,
      "d": 1854.1314374999783,
      "v": 71
    },
    {
      "midi": 67,
      "hit": false,
      "t": 213995.93400000027,
      "d": 1871.492218749976,
      "v": 64
    },
    {
      "midi": 74,
      "hit": false,
      "t": 214051.48849999945,
      "d": 171.8717343749886,
      "v": 66
    },
    {
      "midi": 79,
      "hit": false,
      "t": 214329.26099999945,
      "d": 190.9685937500035,
      "v": 70
    },
    {
      "midi": 67,
      "hit": false,
      "t": 214384.81549999944,
      "d": 190.9685937500035,
      "v": 70
    },
    {
      "midi": 83,
      "hit": false,
      "t": 214662.58799999944,
      "d": 131.94193749999977,
      "v": 77
    },
    {
      "midi": 71,
      "hit": false,
      "t": 214718.14249999943,
      "d": 131.94193749999977,
      "v": 77
    },
    {
      "midi": 86,
      "hit": false,
      "t": 214995.91499999943,
      "d": 189.23251562498626,
      "v": 55
    },
    {
      "midi": 74,
      "hit": false,
      "t": 215051.46949999942,
      "d": 189.23251562498626,
      "v": 55
    },
    {
      "midi": 72,
      "hit": false,
      "t": 215329.24199999942,
      "d": 284.71681250000256,
      "v": 94
    },
    {
      "midi": 91,
      "hit": false,
      "t": 215329.24199999942,
      "d": 284.71681250000256,
      "v": 68
    },
    {
      "midi": 72,
      "hit": false,
      "t": 215329.24200000003,
      "d": 326.3826874999795,
      "v": 103
    },
    {
      "midi": 79,
      "hit": false,
      "t": 215384.79649999941,
      "d": 284.71681250000256,
      "v": 68
    },
    {
      "midi": 71,
      "hit": false,
      "t": 215662.5689999994,
      "d": 95.4842968749872,
      "v": 89
    },
    {
      "midi": 83,
      "hit": false,
      "t": 215662.5689999994,
      "d": 114.5811562500021,
      "v": 74
    },
    {
      "midi": 71,
      "hit": false,
      "t": 215662.56900000002,
      "d": 343.7434687499772,
      "v": 92
    },
    {
      "midi": 71,
      "hit": false,
      "t": 215718.1234999994,
      "d": 114.5811562500021,
      "v": 74
    },
    {
      "midi": 67,
      "hit": false,
      "t": 215995.8959999994,
      "d": 687.4869375000126,
      "v": 101
    },
    {
      "midi": 69,
      "hit": false,
      "t": 215995.8959999994,
      "d": 1013.8696250000212,
      "v": 94
    },
    {
      "midi": 60,
      "hit": false,
      "t": 215995.8959999994,
      "d": 1451.3613124999974,
      "v": 83
    },
    {
      "midi": 53,
      "hit": false,
      "t": 215995.8959999994,
      "d": 1470.4581718749832,
      "v": 83
    },
    {
      "midi": 89,
      "hit": false,
      "t": 215995.8959999994,
      "d": 190.9685937500035,
      "v": 66
    },
    {
      "midi": 29,
      "hit": false,
      "t": 215995.89599999998,
      "d": 1279.4895781249797,
      "v": 101
    },
    {
      "midi": 69,
      "hit": false,
      "t": 215995.896,
      "d": 1241.295859374979,
      "v": 95
    },
    {
      "midi": 67,
      "hit": false,
      "t": 215995.89600000024,
      "d": 687.4869375000126,
      "v": 70
    },
    {
      "midi": 69,
      "hit": false,
      "t": 215995.89600000024,
      "d": 1947.8796562500065,
      "v": 77
    },
    {
      "midi": 60,
      "hit": false,
      "t": 215995.89600000024,
      "d": 3897.4953906250303,
      "v": 74
    },
    {
      "midi": 77,
      "hit": false,
      "t": 216051.4504999994,
      "d": 190.9685937500035,
      "v": 66
    },
    {
      "midi": 81,
      "hit": false,
      "t": 216329.2229999994,
      "d": 229.1623125000042,
      "v": 62
    },
    {
      "midi": 69,
      "hit": false,
      "t": 216384.77749999939,
      "d": 229.1623125000042,
      "v": 62
    },
    {
      "midi": 84,
      "hit": false,
      "t": 216662.54999999938,
      "d": 189.23251562498626,
      "v": 64
    },
    {
      "midi": 65,
      "hit": false,
      "t": 216662.5499999994,
      "d": 362.8403281250212,
      "v": 77
    },
    {
      "midi": 65,
      "hit": false,
      "t": 216662.55000000025,
      "d": 2006.9063125000102,
      "v": 86
    },
    {
      "midi": 72,
      "hit": false,
      "t": 216718.10449999938,
      "d": 189.23251562498626,
      "v": 64
    },
    {
      "midi": 89,
      "hit": false,
      "t": 216995.87699999937,
      "d": 190.9685937500035,
      "v": 75
    },
    {
      "midi": 77,
      "hit": false,
      "t": 217051.43149999937,
      "d": 190.9685937500035,
      "v": 75
    },
    {
      "midi": 81,
      "hit": false,
      "t": 217329.20399999936,
      "d": 229.1623125000042,
      "v": 71
    },
    {
      "midi": 69,
      "hit": false,
      "t": 217329.20399999942,
      "d": 95.4842968749872,
      "v": 94
    },
    {
      "midi": 65,
      "hit": false,
      "t": 217329.20399999942,
      "d": 131.94193749997066,
      "v": 85
    },
    {
      "midi": 29,
      "hit": false,
      "t": 217329.20399999997,
      "d": 668.3900781249977,
      "v": 99
    },
    {
      "midi": 69,
      "hit": false,
      "t": 217329.204,
      "d": 670.1261562500149,
      "v": 95
    },
    {
      "midi": 69,
      "hit": false,
      "t": 217384.75849999936,
      "d": 229.1623125000042,
      "v": 71
    },
    {
      "midi": 84,
      "hit": false,
      "t": 217662.53099999935,
      "d": 157.98310937499627,
      "v": 58
    },
    {
      "midi": 72,
      "hit": false,
      "t": 217718.08549999935,
      "d": 157.98310937499627,
      "v": 58
    },
    {
      "midi": 88,
      "hit": false,
      "t": 217995.85799999934,
      "d": 305.5497500000056,
      "v": 75
    },
    {
      "midi": 65,
      "hit": false,
      "t": 217995.85799999937,
      "d": 706.5837968749693,
      "v": 92
    },
    {
      "midi": 48,
      "hit": false,
      "t": 217995.85799999937,
      "d": 1432.2644531249534,
      "v": 80
    },
    {
      "midi": 60,
      "hit": false,
      "t": 217995.85799999937,
      "d": 1432.2644531249534,
      "v": 83
    },
    {
      "midi": 67,
      "hit": false,
      "t": 217995.85799999937,
      "d": 1472.1942499999714,
      "v": 91
    },
    {
      "midi": 36,
      "hit": false,
      "t": 217995.85799999998,
      "d": 1338.5162343749835,
      "v": 107
    },
    {
      "midi": 67,
      "hit": false,
      "t": 217995.858,
      "d": 1814.2016406250186,
      "v": 99
    },
    {
      "midi": 67,
      "hit": false,
      "t": 217995.85800000024,
      "d": 1909.685937500035,
      "v": 85
    },
    {
      "midi": 76,
      "hit": false,
      "t": 218051.41249999934,
      "d": 305.5497500000056,
      "v": 75
    },
    {
      "midi": 79,
      "hit": false,
      "t": 218329.18499999936,
      "d": 152.7748750000028,
      "v": 66
    },
    {
      "midi": 67,
      "hit": false,
      "t": 218384.73949999936,
      "d": 152.7748750000028,
      "v": 66
    },
    {
      "midi": 64,
      "hit": false,
      "t": 218662.51199999935,
      "d": 496.51834374998,
      "v": 86
    },
    {
      "midi": 84,
      "hit": false,
      "t": 218662.51199999935,
      "d": 131.94193749999977,
      "v": 65
    },
    {
      "midi": 64,
      "hit": false,
      "t": 218662.51200000025,
      "d": 1222.1990000000224,
      "v": 92
    },
    {
      "midi": 72,
      "hit": false,
      "t": 218718.06649999935,
      "d": 131.94193749999977,
      "v": 65
    },
    {
      "midi": 86,
      "hit": false,
      "t": 218995.83899999934,
      "d": 229.1623125000042,
      "v": 58
    },
    {
      "midi": 74,
      "hit": false,
      "t": 219051.39349999934,
      "d": 229.1623125000042,
      "v": 58
    },
    {
      "midi": 62,
      "hit": false,
      "t": 219329.16599999933,
      "d": 114.5811562500021,
      "v": 74
    },
    {
      "midi": 88,
      "hit": false,
      "t": 219329.16599999933,
      "d": 265.61995312498766,
      "v": 67
    },
    {
      "midi": 35,
      "hit": false,
      "t": 219329.16599999997,
      "d": 687.4869374999835,
      "v": 103
    },
    {
      "midi": 76,
      "hit": false,
      "t": 219384.72049999933,
      "d": 265.61995312498766,
      "v": 67
    },
    {
      "midi": 84,
      "hit": false,
      "t": 219662.49299999932,
      "d": 76.3874375000014,
      "v": 54
    },
    {
      "midi": 72,
      "hit": false,
      "t": 219718.04749999932,
      "d": 76.3874375000014,
      "v": 54
    },
    {
      "midi": 88,
      "hit": false,
      "t": 219995.8199999993,
      "d": 267.3560312500049,
      "v": 67
    },
    {
      "midi": 72,
      "hit": false,
      "t": 219995.81999999934,
      "d": 229.1623125000042,
      "v": 103
    },
    {
      "midi": 64,
      "hit": false,
      "t": 219995.81999999934,
      "d": 286.4528906249907,
      "v": 103
    },
    {
      "midi": 69,
      "hit": false,
      "t": 219995.81999999934,
      "d": 286.4528906249907,
      "v": 95
    },
    {
      "midi": 57,
      "hit": false,
      "t": 219995.81999999934,
      "d": 420.1309062499786,
      "v": 97
    },
    {
      "midi": 33,
      "hit": false,
      "t": 219995.81999999995,
      "d": 668.3900781249977,
      "v": 97
    },
    {
      "midi": 72,
      "hit": false,
      "t": 219995.82000000004,
      "d": 666.6540000000095,
      "v": 99
    },
    {
      "midi": 60,
      "hit": false,
      "t": 219995.82000000027,
      "d": 572.9057812500105,
      "v": 79
    },
    {
      "midi": 57,
      "hit": false,
      "t": 219995.82000000027,
      "d": 590.2665625000081,
      "v": 80
    },
    {
      "midi": 64,
      "hit": false,
      "t": 219995.82000000027,
      "d": 708.3198750000156,
      "v": 91
    },
    {
      "midi": 76,
      "hit": false,
      "t": 220051.3744999993,
      "d": 267.3560312500049,
      "v": 67
    },
    {
      "midi": 81,
      "hit": false,
      "t": 220329.14699999933,
      "d": 190.9685937500035,
      "v": 70
    },
    {
      "midi": 69,
      "hit": false,
      "t": 220384.70149999933,
      "d": 190.9685937500035,
      "v": 70
    },
    {
      "midi": 67,
      "hit": false,
      "t": 220662.47399999932,
      "d": 229.1623125000042,
      "v": 95
    },
    {
      "midi": 55,
      "hit": false,
      "t": 220662.47399999932,
      "d": 248.25917187499,
      "v": 77
    },
    {
      "midi": 71,
      "hit": false,
      "t": 220662.47399999932,
      "d": 248.25917187499,
      "v": 92
    },
    {
      "midi": 62,
      "hit": false,
      "t": 220662.47399999932,
      "d": 324.6466093749914,
      "v": 72
    },
    {
      "midi": 86,
      "hit": false,
      "t": 220662.47399999932,
      "d": 324.6466093749914,
      "v": 60
    },
    {
      "midi": 31,
      "hit": false,
      "t": 220662.47399999996,
      "d": 687.4869374999835,
      "v": 88
    },
    {
      "midi": 71,
      "hit": false,
      "t": 220662.47400000005,
      "d": 725.6806562500133,
      "v": 97
    },
    {
      "midi": 59,
      "hit": false,
      "t": 220662.47400000028,
      "d": 439.2277656249935,
      "v": 86
    },
    {
      "midi": 55,
      "hit": false,
      "t": 220662.47400000028,
      "d": 572.9057812499814,
      "v": 68
    },
    {
      "midi": 62,
      "hit": false,
      "t": 220662.47400000028,
      "d": 687.4869374999835,
      "v": 80
    },
    {
      "midi": 74,
      "hit": false,
      "t": 220718.02849999932,
      "d": 324.6466093749914,
      "v": 60
    },
    {
      "midi": 83,
      "hit": false,
      "t": 220995.8009999993,
      "d": 152.7748750000028,
      "v": 74
    },
    {
      "midi": 71,
      "hit": false,
      "t": 221051.3554999993,
      "d": 152.7748750000028,
      "v": 74
    },
    {
      "midi": 65,
      "hit": false,
      "t": 221329.1279999993,
      "d": 265.61995312498766,
      "v": 92
    },
    {
      "midi": 53,
      "hit": false,
      "t": 221329.1279999993,
      "d": 286.4528906249907,
      "v": 89
    },
    {
      "midi": 69,
      "hit": false,
      "t": 221329.1279999993,
      "d": 305.5497499999765,
      "v": 91
    },
    {
      "midi": 60,
      "hit": false,
      "t": 221329.1279999993,
      "d": 342.00739062498906,
      "v": 85
    },
    {
      "midi": 89,
      "hit": false,
      "t": 221329.1279999993,
      "d": 305.5497500000056,
      "v": 56
    },
    {
      "midi": 29,
      "hit": false,
      "t": 221329.12799999994,
      "d": 687.4869375000126,
      "v": 91
    },
    {
      "midi": 69,
      "hit": false,
      "t": 221329.12800000006,
      "d": 649.2932187500119,
      "v": 97
    },
    {
      "midi": 57,
      "hit": false,
      "t": 221329.12800000026,
      "d": 513.8791250000068,
      "v": 77
    },
    {
      "midi": 65,
      "hit": false,
      "t": 221329.12800000026,
      "d": 666.6540000000095,
      "v": 79
    },
    {
      "midi": 60,
      "hit": false,
      "t": 221329.12800000026,
      "d": 1833.2985000000335,
      "v": 83
    },
    {
      "midi": 77,
      "hit": false,
      "t": 221384.6824999993,
      "d": 305.5497500000056,
      "v": 56
    },
    {
      "midi": 84,
      "hit": false,
      "t": 221662.45499999932,
      "d": 171.8717343749886,
      "v": 67
    },
    {
      "midi": 72,
      "hit": false,
      "t": 221718.00949999932,
      "d": 171.8717343749886,
      "v": 67
    },
    {
      "midi": 48,
      "hit": false,
      "t": 221995.78199999928,
      "d": 248.25917187499,
      "v": 88
    },
    {
      "midi": 60,
      "hit": false,
      "t": 221995.78199999928,
      "d": 248.25917187499,
      "v": 77
    },
    {
      "midi": 64,
      "hit": false,
      "t": 221995.78199999928,
      "d": 267.3560312499758,
      "v": 95
    },
    {
      "midi": 67,
      "hit": false,
      "t": 221995.78199999928,
      "d": 267.3560312499758,
      "v": 86
    },
    {
      "midi": 88,
      "hit": false,
      "t": 221995.7819999993,
      "d": 152.7748750000028,
      "v": 56
    },
    {
      "midi": 36,
      "hit": false,
      "t": 221995.78199999995,
      "d": 631.9324375000142,
      "v": 97
    },
    {
      "midi": 67,
      "hit": false,
      "t": 221995.78200000006,
      "d": 706.5837968749984,
      "v": 103
    },
    {
      "midi": 64,
      "hit": false,
      "t": 221995.78200000027,
      "d": 631.9324375000142,
      "v": 105
    },
    {
      "midi": 67,
      "hit": false,
      "t": 221995.78200000027,
      "d": 725.6806562500133,
      "v": 71
    },
    {
      "midi": 76,
      "hit": false,
      "t": 222051.3364999993,
      "d": 152.7748750000028,
      "v": 56
    },
    {
      "midi": 84,
      "hit": false,
      "t": 222329.1089999993,
      "d": 93.74821874999907,
      "v": 77
    },
    {
      "midi": 72,
      "hit": false,
      "t": 222384.6634999993,
      "d": 93.74821874999907,
      "v": 77
    },
    {
      "midi": 60,
      "hit": false,
      "t": 222662.43599999926,
      "d": 286.4528906249907,
      "v": 85
    },
    {
      "midi": 69,
      "hit": false,
      "t": 222662.43599999926,
      "d": 286.4528906249907,
      "v": 83
    },
    {
      "midi": 65,
      "hit": false,
      "t": 222662.43599999926,
      "d": 324.6466093749914,
      "v": 83
    },
    {
      "midi": 53,
      "hit": false,
      "t": 222662.43599999926,
      "d": 343.7434687499772,
      "v": 95
    },
    {
      "midi": 89,
      "hit": false,
      "t": 222662.4359999993,
      "d": 190.9685937500035,
      "v": 80
    },
    {
      "midi": 29,
      "hit": false,
      "t": 222662.43599999996,
      "d": 690.9590937500179,
      "v": 89
    },
    {
      "midi": 69,
      "hit": false,
      "t": 222662.43600000007,
      "d": 687.4869374999835,
      "v": 97
    },
    {
      "midi": 69,
      "hit": false,
      "t": 222662.43600000028,
      "d": 706.5837968749984,
      "v": 82
    },
    {
      "midi": 65,
      "hit": false,
      "t": 222662.43600000028,
      "d": 1241.2958593750081,
      "v": 70
    },
    {
      "midi": 77,
      "hit": false,
      "t": 222717.9904999993,
      "d": 190.9685937500035,
      "v": 80
    },
    {
      "midi": 84,
      "hit": false,
      "t": 222995.76299999928,
      "d": 152.7748750000028,
      "v": 58
    },
    {
      "midi": 72,
      "hit": false,
      "t": 223051.31749999928,
      "d": 152.7748750000028,
      "v": 58
    },
    {
      "midi": 55,
      "hit": false,
      "t": 223329.08999999924,
      "d": 229.1623125000042,
      "v": 85
    },
    {
      "midi": 65,
      "hit": false,
      "t": 223329.08999999924,
      "d": 248.25917187499,
      "v": 89
    },
    {
      "midi": 62,
      "hit": false,
      "t": 223329.08999999924,
      "d": 265.61995312498766,
      "v": 71
    },
    {
      "midi": 71,
      "hit": false,
      "t": 223329.08999999924,
      "d": 265.61995312498766,
      "v": 86
    },
    {
      "midi": 86,
      "hit": false,
      "t": 223329.08999999927,
      "d": 131.94193749999977,
      "v": 57
    },
    {
      "midi": 31,
      "hit": false,
      "t": 223329.08999999997,
      "d": 687.4869375000126,
      "v": 94
    },
    {
      "midi": 71,
      "hit": false,
      "t": 223329.09000000005,
      "d": 666.6540000000095,
      "v": 94
    },
    {
      "midi": 62,
      "hit": false,
      "t": 223329.0900000003,
      "d": 553.8089218749956,
      "v": 66
    },
    {
      "midi": 71,
      "hit": false,
      "t": 223329.0900000003,
      "d": 744.7775156249991,
      "v": 75
    },
    {
      "midi": 74,
      "hit": false,
      "t": 223384.64449999927,
      "d": 131.94193749999977,
      "v": 57
    },
    {
      "midi": 83,
      "hit": false,
      "t": 223662.41699999926,
      "d": 171.8717343749886,
      "v": 49
    },
    {
      "midi": 71,
      "hit": false,
      "t": 223717.97149999926,
      "d": 171.8717343749886,
      "v": 49
    },
    {
      "midi": 67,
      "hit": false,
      "t": 223995.74399999922,
      "d": 229.1623125000042,
      "v": 86
    },
    {
      "midi": 72,
      "hit": false,
      "t": 223995.74399999922,
      "d": 229.1623125000042,
      "v": 99
    },
    {
      "midi": 48,
      "hit": false,
      "t": 223995.74399999922,
      "d": 729.1528125000186,
      "v": 89
    },
    {
      "midi": 64,
      "hit": false,
      "t": 223995.74399999922,
      "d": 749.9857500000217,
      "v": 94
    },
    {
      "midi": 88,
      "hit": false,
      "t": 223995.74399999925,
      "d": 248.25917187499,
      "v": 66
    },
    {
      "midi": 36,
      "hit": false,
      "t": 223995.74399999998,
      "d": 1338.5162343749835,
      "v": 97
    },
    {
      "midi": 72,
      "hit": false,
      "t": 223995.74400000006,
      "d": 687.4869375000126,
      "v": 97
    },
    {
      "midi": 67,
      "hit": false,
      "t": 223995.7440000003,
      "d": 343.7434687499772,
      "v": 57
    },
    {
      "midi": 72,
      "hit": false,
      "t": 223995.7440000003,
      "d": 687.4869374999835,
      "v": 80
    },
    {
      "midi": 64,
      "hit": false,
      "t": 223995.7440000003,
      "d": 1048.5911874999874,
      "v": 79
    },
    {
      "midi": 76,
      "hit": false,
      "t": 224051.29849999925,
      "d": 248.25917187499,
      "v": 66
    },
    {
      "midi": 79,
      "hit": false,
      "t": 224329.07099999924,
      "d": 171.8717343749886,
      "v": 59
    },
    {
      "midi": 67,
      "hit": false,
      "t": 224384.62549999924,
      "d": 171.8717343749886,
      "v": 59
    },
    {
      "midi": 67,
      "hit": false,
      "t": 224662.39799999923,
      "d": 131.94193749999977,
      "v": 85
    },
    {
      "midi": 84,
      "hit": false,
      "t": 224662.39799999923,
      "d": 152.7748750000028,
      "v": 59
    },
    {
      "midi": 67,
      "hit": false,
      "t": 224662.39800000007,
      "d": 706.5837968749984,
      "v": 92
    },
    {
      "midi": 67,
      "hit": false,
      "t": 224662.39800000028,
      "d": 649.2932187500119,
      "v": 91
    },
    {
      "midi": 72,
      "hit": false,
      "t": 224717.95249999923,
      "d": 152.7748750000028,
      "v": 59
    },
    {
      "midi": 88,
      "hit": false,
      "t": 224995.72499999922,
      "d": 133.6780156249879,
      "v": 72
    },
    {
      "midi": 76,
      "hit": false,
      "t": 225051.27949999922,
      "d": 133.6780156249879,
      "v": 72
    },
    {
      "midi": 89,
      "hit": false,
      "t": 225329.0519999992,
      "d": 284.71681250000256,
      "v": 62
    },
    {
      "midi": 53,
      "hit": false,
      "t": 225329.05199999924,
      "d": 208.32937500000116,
      "v": 79
    },
    {
      "midi": 65,
      "hit": false,
      "t": 225329.05199999924,
      "d": 248.25917187499,
      "v": 92
    },
    {
      "midi": 57,
      "hit": false,
      "t": 225329.05199999924,
      "d": 284.71681250000256,
      "v": 83
    },
    {
      "midi": 60,
      "hit": false,
      "t": 225329.05199999924,
      "d": 305.5497500000056,
      "v": 99
    },
    {
      "midi": 31,
      "hit": false,
      "t": 225329.05199999997,
      "d": 687.4869374999835,
      "v": 91
    },
    {
      "midi": 65,
      "hit": false,
      "t": 225329.05200000008,
      "d": 630.196359374997,
      "v": 82
    },
    {
      "midi": 57,
      "hit": false,
      "t": 225329.0520000003,
      "d": 553.8089218749956,
      "v": 85
    },
    {
      "midi": 65,
      "hit": false,
      "t": 225329.0520000003,
      "d": 670.1261562500149,
      "v": 82
    },
    {
      "midi": 60,
      "hit": false,
      "t": 225329.0520000003,
      "d": 2520.785437500017,
      "v": 65
    },
    {
      "midi": 77,
      "hit": false,
      "t": 225384.6064999992,
      "d": 284.71681250000256,
      "v": 62
    },
    {
      "midi": 81,
      "hit": false,
      "t": 225662.3789999992,
      "d": 112.84507812501397,
      "v": 60
    },
    {
      "midi": 69,
      "hit": false,
      "t": 225717.9334999992,
      "d": 112.84507812501397,
      "v": 60
    },
    {
      "midi": 88,
      "hit": false,
      "t": 225995.70599999922,
      "d": 170.13565625000047,
      "v": 75
    },
    {
      "midi": 64,
      "hit": false,
      "t": 225995.70599999925,
      "d": 1720.4534218749905,
      "v": 103
    },
    {
      "midi": 60,
      "hit": false,
      "t": 225995.70599999925,
      "d": 1737.8142031249881,
      "v": 97
    },
    {
      "midi": 55,
      "hit": false,
      "t": 225995.70599999925,
      "d": 1756.911062499974,
      "v": 79
    },
    {
      "midi": 48,
      "hit": false,
      "t": 225995.70599999925,
      "d": 1796.8408593749627,
      "v": 82
    },
    {
      "midi": 36,
      "hit": false,
      "t": 225995.70599999995,
      "d": 1814.2016406249895,
      "v": 99
    },
    {
      "midi": 64,
      "hit": false,
      "t": 225995.7060000001,
      "d": 1413.1675937499967,
      "v": 97
    },
    {
      "midi": 55,
      "hit": false,
      "t": 225995.7060000003,
      "d": 1852.3953593750193,
      "v": 57
    },
    {
      "midi": 64,
      "hit": false,
      "t": 225995.7060000003,
      "d": 1852.3953593750193,
      "v": 99
    },
    {
      "midi": 76,
      "hit": false,
      "t": 226051.26049999922,
      "d": 170.13565625000047,
      "v": 75
    },
    {
      "midi": 79,
      "hit": false,
      "t": 226329.0329999992,
      "d": 267.3560312500049,
      "v": 65
    },
    {
      "midi": 67,
      "hit": false,
      "t": 226384.5874999992,
      "d": 267.3560312500049,
      "v": 65
    },
    {
      "midi": 84,
      "hit": false,
      "t": 226662.35999999923,
      "d": 114.5811562500021,
      "v": 60
    },
    {
      "midi": 72,
      "hit": false,
      "t": 226717.91449999923,
      "d": 114.5811562500021,
      "v": 60
    },
    {
      "midi": 88,
      "hit": false,
      "t": 226995.68699999922,
      "d": 171.8717343749886,
      "v": 66
    },
    {
      "midi": 76,
      "hit": false,
      "t": 227051.24149999922,
      "d": 171.8717343749886,
      "v": 66
    },
    {
      "midi": 91,
      "hit": false,
      "t": 227329.0139999992,
      "d": 133.6780156249879,
      "v": 60
    },
    {
      "midi": 79,
      "hit": false,
      "t": 227384.5684999992,
      "d": 133.6780156249879,
      "v": 60
    },
    {
      "midi": 84,
      "hit": false,
      "t": 227662.3409999992,
      "d": 95.4842968749872,
      "v": 82
    },
    {
      "midi": 72,
      "hit": false,
      "t": 227717.8954999992,
      "d": 95.4842968749872,
      "v": 82
    },
    {
      "midi": 89,
      "hit": false,
      "t": 227995.6679999992,
      "d": 267.3560312500049,
      "v": 67
    },
    {
      "midi": 73,
      "hit": false,
      "t": 227995.66799999922,
      "d": 229.1623125000042,
      "v": 103
    },
    {
      "midi": 65,
      "hit": false,
      "t": 227995.66799999922,
      "d": 286.4528906249907,
      "v": 103
    },
    {
      "midi": 70,
      "hit": false,
      "t": 227995.66799999922,
      "d": 286.4528906249907,
      "v": 95
    },
    {
      "midi": 58,
      "hit": false,
      "t": 227995.66799999922,
      "d": 420.1309062499786,
      "v": 97
    },
    {
      "midi": 34,
      "hit": false,
      "t": 227995.66799999995,
      "d": 668.3900781249977,
      "v": 97
    },
    {
      "midi": 61,
      "hit": false,
      "t": 227995.6680000003,
      "d": 572.9057812500105,
      "v": 79
    },
    {
      "midi": 58,
      "hit": false,
      "t": 227995.6680000003,
      "d": 590.2665625000081,
      "v": 80
    },
    {
      "midi": 85,
      "hit": false,
      "t": 227995.6680000003,
      "d": 706.5837968749984,
      "v": 109
    },
    {
      "midi": 65,
      "hit": false,
      "t": 227995.6680000003,
      "d": 708.3198749999865,
      "v": 91
    },
    {
      "midi": 77,
      "hit": false,
      "t": 228051.2224999992,
      "d": 267.3560312500049,
      "v": 67
    },
    {
      "midi": 82,
      "hit": false,
      "t": 228328.9949999992,
      "d": 190.9685937500035,
      "v": 70
    },
    {
      "midi": 70,
      "hit": false,
      "t": 228384.5494999992,
      "d": 190.9685937500035,
      "v": 70
    },
    {
      "midi": 68,
      "hit": false,
      "t": 228662.3219999992,
      "d": 229.1623125000042,
      "v": 95
    },
    {
      "midi": 56,
      "hit": false,
      "t": 228662.3219999992,
      "d": 248.25917187499,
      "v": 77
    },
    {
      "midi": 72,
      "hit": false,
      "t": 228662.3219999992,
      "d": 248.25917187499,
      "v": 92
    },
    {
      "midi": 63,
      "hit": false,
      "t": 228662.3219999992,
      "d": 324.6466093749914,
      "v": 72
    },
    {
      "midi": 87,
      "hit": false,
      "t": 228662.3219999992,
      "d": 324.6466093749914,
      "v": 60
    },
    {
      "midi": 32,
      "hit": false,
      "t": 228662.32199999996,
      "d": 687.4869374999835,
      "v": 88
    },
    {
      "midi": 60,
      "hit": false,
      "t": 228662.3220000003,
      "d": 439.2277656249644,
      "v": 86
    },
    {
      "midi": 56,
      "hit": false,
      "t": 228662.3220000003,
      "d": 572.9057812499523,
      "v": 68
    },
    {
      "midi": 63,
      "hit": false,
      "t": 228662.3220000003,
      "d": 687.4869374999544,
      "v": 80
    },
    {
      "midi": 84,
      "hit": false,
      "t": 228662.3220000003,
      "d": 725.6806562499551,
      "v": 105
    },
    {
      "midi": 75,
      "hit": false,
      "t": 228717.8764999992,
      "d": 324.6466093749914,
      "v": 60
    },
    {
      "midi": 84,
      "hit": false,
      "t": 228995.6489999992,
      "d": 152.7748750000028,
      "v": 74
    },
    {
      "midi": 72,
      "hit": false,
      "t": 229051.2034999992,
      "d": 152.7748750000028,
      "v": 74
    },
    {
      "midi": 66,
      "hit": false,
      "t": 229328.97599999918,
      "d": 265.61995312498766,
      "v": 92
    },
    {
      "midi": 54,
      "hit": false,
      "t": 229328.97599999918,
      "d": 286.4528906249907,
      "v": 89
    },
    {
      "midi": 70,
      "hit": false,
      "t": 229328.97599999918,
      "d": 305.5497499999765,
      "v": 91
    },
    {
      "midi": 61,
      "hit": false,
      "t": 229328.97599999918,
      "d": 342.00739062498906,
      "v": 85
    },
    {
      "midi": 90,
      "hit": false,
      "t": 229328.97599999918,
      "d": 305.5497500000056,
      "v": 56
    },
    {
      "midi": 30,
      "hit": false,
      "t": 229328.97599999994,
      "d": 687.4869375000126,
      "v": 91
    },
    {
      "midi": 58,
      "hit": false,
      "t": 229328.97600000026,
      "d": 513.8791250000068,
      "v": 77
    },
    {
      "midi": 66,
      "hit": false,
      "t": 229328.97600000026,
      "d": 666.6540000000095,
      "v": 79
    },
    {
      "midi": 82,
      "hit": false,
      "t": 229328.97600000026,
      "d": 668.3900781249977,
      "v": 107
    },
    {
      "midi": 61,
      "hit": false,
      "t": 229328.97600000026,
      "d": 1833.2985000000044,
      "v": 83
    },
    {
      "midi": 78,
      "hit": false,
      "t": 229384.53049999918,
      "d": 305.5497500000056,
      "v": 56
    },
    {
      "midi": 85,
      "hit": false,
      "t": 229662.3029999992,
      "d": 171.8717343749886,
      "v": 67
    },
    {
      "midi": 73,
      "hit": false,
      "t": 229717.8574999992,
      "d": 171.8717343749886,
      "v": 67
    },
    {
      "midi": 49,
      "hit": false,
      "t": 229995.62999999916,
      "d": 248.25917187499,
      "v": 88
    },
    {
      "midi": 61,
      "hit": false,
      "t": 229995.62999999916,
      "d": 248.25917187499,
      "v": 77
    },
    {
      "midi": 65,
      "hit": false,
      "t": 229995.62999999916,
      "d": 267.3560312499758,
      "v": 95
    },
    {
      "midi": 68,
      "hit": false,
      "t": 229995.62999999916,
      "d": 267.3560312499758,
      "v": 86
    },
    {
      "midi": 89,
      "hit": false,
      "t": 229995.6299999992,
      "d": 152.7748750000028,
      "v": 56
    },
    {
      "midi": 37,
      "hit": false,
      "t": 229995.62999999995,
      "d": 631.9324375000142,
      "v": 97
    },
    {
      "midi": 65,
      "hit": false,
      "t": 229995.63000000027,
      "d": 631.9324374999851,
      "v": 105
    },
    {
      "midi": 68,
      "hit": false,
      "t": 229995.63000000027,
      "d": 725.6806562499842,
      "v": 71
    },
    {
      "midi": 80,
      "hit": false,
      "t": 229995.63000000027,
      "d": 725.6806562499842,
      "v": 101
    },
    {
      "midi": 77,
      "hit": false,
      "t": 230051.1844999992,
      "d": 152.7748750000028,
      "v": 56
    },
    {
      "midi": 85,
      "hit": false,
      "t": 230328.95699999918,
      "d": 93.74821874999907,
      "v": 77
    },
    {
      "midi": 73,
      "hit": false,
      "t": 230384.51149999918,
      "d": 93.74821874999907,
      "v": 77
    },
    {
      "midi": 61,
      "hit": false,
      "t": 230662.28399999914,
      "d": 286.4528906249907,
      "v": 85
    },
    {
      "midi": 70,
      "hit": false,
      "t": 230662.28399999914,
      "d": 286.4528906249907,
      "v": 83
    },
    {
      "midi": 66,
      "hit": false,
      "t": 230662.28399999914,
      "d": 324.6466093749914,
      "v": 83
    },
    {
      "midi": 54,
      "hit": false,
      "t": 230662.28399999914,
      "d": 343.7434687499772,
      "v": 95
    },
    {
      "midi": 90,
      "hit": false,
      "t": 230662.28399999917,
      "d": 190.9685937500035,
      "v": 80
    },
    {
      "midi": 30,
      "hit": false,
      "t": 230662.28399999996,
      "d": 690.9590937500179,
      "v": 89
    },
    {
      "midi": 82,
      "hit": false,
      "t": 230662.28400000025,
      "d": 687.4869375000126,
      "v": 109
    },
    {
      "midi": 70,
      "hit": false,
      "t": 230662.28400000025,
      "d": 706.5837968749984,
      "v": 82
    },
    {
      "midi": 66,
      "hit": false,
      "t": 230662.28400000025,
      "d": 1241.2958593750081,
      "v": 70
    },
    {
      "midi": 78,
      "hit": false,
      "t": 230717.83849999917,
      "d": 190.9685937500035,
      "v": 80
    },
    {
      "midi": 85,
      "hit": false,
      "t": 230995.61099999916,
      "d": 152.7748750000028,
      "v": 58
    },
    {
      "midi": 73,
      "hit": false,
      "t": 231051.16549999916,
      "d": 152.7748750000028,
      "v": 58
    },
    {
      "midi": 56,
      "hit": false,
      "t": 231328.93799999912,
      "d": 229.1623125000042,
      "v": 85
    },
    {
      "midi": 66,
      "hit": false,
      "t": 231328.93799999912,
      "d": 248.25917187499,
      "v": 89
    },
    {
      "midi": 63,
      "hit": false,
      "t": 231328.93799999912,
      "d": 265.61995312498766,
      "v": 71
    },
    {
      "midi": 72,
      "hit": false,
      "t": 231328.93799999912,
      "d": 265.61995312498766,
      "v": 86
    },
    {
      "midi": 87,
      "hit": false,
      "t": 231328.93799999915,
      "d": 131.94193749999977,
      "v": 57
    },
    {
      "midi": 32,
      "hit": false,
      "t": 231328.93799999997,
      "d": 687.4869375000126,
      "v": 94
    },
    {
      "midi": 63,
      "hit": false,
      "t": 231328.93800000026,
      "d": 553.8089218749956,
      "v": 66
    },
    {
      "midi": 84,
      "hit": false,
      "t": 231328.93800000026,
      "d": 670.1261562500149,
      "v": 103
    },
    {
      "midi": 72,
      "hit": false,
      "t": 231328.93800000026,
      "d": 744.7775156250282,
      "v": 75
    },
    {
      "midi": 75,
      "hit": false,
      "t": 231384.49249999915,
      "d": 131.94193749999977,
      "v": 57
    },
    {
      "midi": 84,
      "hit": false,
      "t": 231662.26499999914,
      "d": 171.8717343749886,
      "v": 49
    },
    {
      "midi": 72,
      "hit": false,
      "t": 231717.81949999914,
      "d": 171.8717343749886,
      "v": 49
    },
    {
      "midi": 68,
      "hit": false,
      "t": 231995.5919999991,
      "d": 229.1623125000042,
      "v": 86
    },
    {
      "midi": 73,
      "hit": false,
      "t": 231995.5919999991,
      "d": 229.1623125000042,
      "v": 99
    },
    {
      "midi": 49,
      "hit": false,
      "t": 231995.5919999991,
      "d": 729.1528125000186,
      "v": 89
    },
    {
      "midi": 65,
      "hit": false,
      "t": 231995.5919999991,
      "d": 749.9857500000217,
      "v": 94
    },
    {
      "midi": 89,
      "hit": false,
      "t": 231995.59199999913,
      "d": 248.25917187499,
      "v": 66
    },
    {
      "midi": 37,
      "hit": false,
      "t": 231995.59199999998,
      "d": 1338.5162343749835,
      "v": 97
    },
    {
      "midi": 68,
      "hit": false,
      "t": 231995.59200000027,
      "d": 343.7434687500063,
      "v": 57
    },
    {
      "midi": 73,
      "hit": false,
      "t": 231995.59200000027,
      "d": 687.4869375000126,
      "v": 80
    },
    {
      "midi": 85,
      "hit": false,
      "t": 231995.59200000027,
      "d": 687.4869375000126,
      "v": 99
    },
    {
      "midi": 65,
      "hit": false,
      "t": 231995.59200000027,
      "d": 1048.5911875000165,
      "v": 79
    },
    {
      "midi": 77,
      "hit": false,
      "t": 232051.14649999913,
      "d": 248.25917187499,
      "v": 66
    },
    {
      "midi": 80,
      "hit": false,
      "t": 232328.91899999912,
      "d": 171.8717343749886,
      "v": 59
    },
    {
      "midi": 68,
      "hit": false,
      "t": 232384.47349999912,
      "d": 171.8717343749886,
      "v": 59
    },
    {
      "midi": 68,
      "hit": false,
      "t": 232662.2459999991,
      "d": 131.94193749999977,
      "v": 85
    },
    {
      "midi": 85,
      "hit": false,
      "t": 232662.2459999991,
      "d": 152.7748750000028,
      "v": 59
    },
    {
      "midi": 68,
      "hit": false,
      "t": 232662.24600000028,
      "d": 649.2932187500119,
      "v": 91
    },
    {
      "midi": 89,
      "hit": false,
      "t": 232662.24600000028,
      "d": 687.4869375000126,
      "v": 103
    },
    {
      "midi": 73,
      "hit": false,
      "t": 232717.8004999991,
      "d": 152.7748750000028,
      "v": 59
    },
    {
      "midi": 89,
      "hit": false,
      "t": 232995.5729999991,
      "d": 133.6780156249879,
      "v": 72
    },
    {
      "midi": 77,
      "hit": false,
      "t": 233051.1274999991,
      "d": 133.6780156249879,
      "v": 72
    },
    {
      "midi": 90,
      "hit": false,
      "t": 233328.8999999991,
      "d": 284.71681250000256,
      "v": 62
    },
    {
      "midi": 54,
      "hit": false,
      "t": 233328.89999999912,
      "d": 208.32937500000116,
      "v": 79
    },
    {
      "midi": 66,
      "hit": false,
      "t": 233328.89999999912,
      "d": 248.25917187499,
      "v": 92
    },
    {
      "midi": 58,
      "hit": false,
      "t": 233328.89999999912,
      "d": 284.71681250000256,
      "v": 83
    },
    {
      "midi": 61,
      "hit": false,
      "t": 233328.89999999912,
      "d": 305.5497500000056,
      "v": 99
    },
    {
      "midi": 32,
      "hit": false,
      "t": 233328.89999999997,
      "d": 687.4869374999835,
      "v": 91
    },
    {
      "midi": 58,
      "hit": false,
      "t": 233328.90000000029,
      "d": 553.8089218749956,
      "v": 85
    },
    {
      "midi": 90,
      "hit": false,
      "t": 233328.90000000029,
      "d": 668.3900781249977,
      "v": 92
    },
    {
      "midi": 66,
      "hit": false,
      "t": 233328.90000000029,
      "d": 670.1261562499858,
      "v": 82
    },
    {
      "midi": 61,
      "hit": false,
      "t": 233328.90000000029,
      "d": 2520.785437499988,
      "v": 65
    },
    {
      "midi": 78,
      "hit": false,
      "t": 233384.4544999991,
      "d": 284.71681250000256,
      "v": 62
    },
    {
      "midi": 82,
      "hit": false,
      "t": 233662.22699999908,
      "d": 112.84507812501397,
      "v": 60
    },
    {
      "midi": 70,
      "hit": false,
      "t": 233717.78149999908,
      "d": 112.84507812501397,
      "v": 60
    },
    {
      "midi": 89,
      "hit": false,
      "t": 233995.5539999991,
      "d": 170.13565625000047,
      "v": 75
    },
    {
      "midi": 65,
      "hit": false,
      "t": 233995.55399999913,
      "d": 1720.4534218749905,
      "v": 103
    },
    {
      "midi": 61,
      "hit": false,
      "t": 233995.55399999913,
      "d": 1737.8142031249881,
      "v": 97
    },
    {
      "midi": 56,
      "hit": false,
      "t": 233995.55399999913,
      "d": 1756.911062499974,
      "v": 79
    },
    {
      "midi": 49,
      "hit": false,
      "t": 233995.55399999913,
      "d": 1796.8408593749627,
      "v": 82
    },
    {
      "midi": 37,
      "hit": false,
      "t": 233995.55399999995,
      "d": 1814.2016406249895,
      "v": 99
    },
    {
      "midi": 56,
      "hit": false,
      "t": 233995.5540000003,
      "d": 1852.3953593749902,
      "v": 57
    },
    {
      "midi": 65,
      "hit": false,
      "t": 233995.5540000003,
      "d": 1852.3953593749902,
      "v": 99
    },
    {
      "midi": 92,
      "hit": false,
      "t": 233995.5540000003,
      "d": 1966.9765156249923,
      "v": 91
    },
    {
      "midi": 77,
      "hit": false,
      "t": 234051.1084999991,
      "d": 170.13565625000047,
      "v": 75
    },
    {
      "midi": 80,
      "hit": false,
      "t": 234328.8809999991,
      "d": 267.3560312500049,
      "v": 65
    },
    {
      "midi": 68,
      "hit": false,
      "t": 234384.4354999991,
      "d": 267.3560312500049,
      "v": 65
    },
    {
      "midi": 85,
      "hit": false,
      "t": 234662.2079999991,
      "d": 114.5811562500021,
      "v": 60
    },
    {
      "midi": 73,
      "hit": false,
      "t": 234717.7624999991,
      "d": 114.5811562500021,
      "v": 60
    },
    {
      "midi": 89,
      "hit": false,
      "t": 234995.5349999991,
      "d": 171.8717343749886,
      "v": 66
    },
    {
      "midi": 77,
      "hit": false,
      "t": 235051.0894999991,
      "d": 171.8717343749886,
      "v": 66
    },
    {
      "midi": 92,
      "hit": false,
      "t": 235328.8619999991,
      "d": 133.6780156249879,
      "v": 60
    },
    {
      "midi": 65,
      "hit": false,
      "t": 235328.86200000008,
      "d": 326.3826875000086,
      "v": 103
    },
    {
      "midi": 80,
      "hit": false,
      "t": 235384.4164999991,
      "d": 133.6780156249879,
      "v": 60
    },
    {
      "midi": 85,
      "hit": false,
      "t": 235662.18899999908,
      "d": 95.4842968749872,
      "v": 82
    },
    {
      "midi": 63,
      "hit": false,
      "t": 235662.1890000001,
      "d": 343.7434687499772,
      "v": 75
    },
    {
      "midi": 73,
      "hit": false,
      "t": 235717.74349999908,
      "d": 95.4842968749872,
      "v": 82
    },
    {
      "midi": 89,
      "hit": false,
      "t": 235995.51599999907,
      "d": 267.3560312500049,
      "v": 86
    },
    {
      "midi": 49,
      "hit": false,
      "t": 235995.5159999991,
      "d": 878.455531249987,
      "v": 83
    },
    {
      "midi": 56,
      "hit": false,
      "t": 235995.5159999991,
      "d": 1013.8696249999921,
      "v": 70
    },
    {
      "midi": 61,
      "hit": false,
      "t": 235995.5159999991,
      "d": 1013.8696249999921,
      "v": 92
    },
    {
      "midi": 37,
      "hit": false,
      "t": 235995.51599999995,
      "d": 1527.7487499999988,
      "v": 94
    },
    {
      "midi": 61,
      "hit": false,
      "t": 235995.5160000001,
      "d": 993.0366874999891,
      "v": 97
    },
    {
      "midi": 65,
      "hit": false,
      "t": 235995.5160000003,
      "d": 1949.6157343749946,
      "v": 89
    },
    {
      "midi": 61,
      "hit": false,
      "t": 235995.5160000003,
      "d": 2598.9089531250065,
      "v": 66
    },
    {
      "midi": 68,
      "hit": false,
      "t": 235995.5160000003,
      "d": 5275.941421875032,
      "v": 58
    },
    {
      "midi": 77,
      "hit": false,
      "t": 236051.07049999907,
      "d": 267.3560312500049,
      "v": 86
    },
    {
      "midi": 85,
      "hit": false,
      "t": 236328.8429999991,
      "d": 76.3874375000014,
      "v": 65
    },
    {
      "midi": 73,
      "hit": false,
      "t": 236384.3974999991,
      "d": 76.3874375000014,
      "v": 65
    },
    {
      "midi": 80,
      "hit": false,
      "t": 236662.16999999908,
      "d": 114.5811562500021,
      "v": 74
    },
    {
      "midi": 68,
      "hit": false,
      "t": 236717.72449999908,
      "d": 114.5811562500021,
      "v": 74
    },
    {
      "midi": 85,
      "hit": false,
      "t": 236995.49699999907,
      "d": 76.3874375000014,
      "v": 82
    },
    {
      "midi": 63,
      "hit": false,
      "t": 236995.4969999991,
      "d": 381.9371874999779,
      "v": 85
    },
    {
      "midi": 63,
      "hit": false,
      "t": 236995.4970000001,
      "d": 381.9371874999779,
      "v": 82
    },
    {
      "midi": 73,
      "hit": false,
      "t": 237051.05149999907,
      "d": 76.3874375000014,
      "v": 82
    },
    {
      "midi": 89,
      "hit": false,
      "t": 237328.82399999906,
      "d": 76.3874375000014,
      "v": 71
    },
    {
      "midi": 65,
      "hit": false,
      "t": 237328.8239999991,
      "d": 305.5497499999765,
      "v": 107
    },
    {
      "midi": 61,
      "hit": false,
      "t": 237328.8239999991,
      "d": 361.10425000000396,
      "v": 70
    },
    {
      "midi": 65,
      "hit": false,
      "t": 237328.82400000008,
      "d": 324.6466093749914,
      "v": 107
    },
    {
      "midi": 77,
      "hit": false,
      "t": 237384.37849999906,
      "d": 76.3874375000014,
      "v": 71
    },
    {
      "midi": 85,
      "hit": false,
      "t": 237662.15099999905,
      "d": 95.4842968749872,
      "v": 72
    },
    {
      "midi": 66,
      "hit": false,
      "t": 237662.15099999908,
      "d": 112.84507812501397,
      "v": 85
    },
    {
      "midi": 37,
      "hit": false,
      "t": 237662.15099999995,
      "d": 343.7434687499772,
      "v": 83
    },
    {
      "midi": 66,
      "hit": false,
      "t": 237662.15100000007,
      "d": 343.7434687499772,
      "v": 88
    },
    {
      "midi": 73,
      "hit": false,
      "t": 237717.70549999905,
      "d": 95.4842968749872,
      "v": 72
    },
    {
      "midi": 92,
      "hit": false,
      "t": 237995.47799999904,
      "d": 152.7748750000028,
      "v": 77
    },
    {
      "midi": 61,
      "hit": false,
      "t": 237995.4779999991,
      "d": 477.4214843749942,
      "v": 89
    },
    {
      "midi": 63,
      "hit": false,
      "t": 237995.4779999991,
      "d": 916.6492499999877,
      "v": 86
    },
    {
      "midi": 68,
      "hit": false,
      "t": 237995.4779999991,
      "d": 1013.8696249999921,
      "v": 95
    },
    {
      "midi": 56,
      "hit": false,
      "t": 237995.4779999991,
      "d": 1701.3565624999756,
      "v": 85
    },
    {
      "midi": 32,
      "hit": false,
      "t": 237995.47799999994,
      "d": 2045.100031250011,
      "v": 94
    },
    {
      "midi": 68,
      "hit": false,
      "t": 237995.47800000006,
      "d": 1225.6711562499986,
      "v": 94
    },
    {
      "midi": 63,
      "hit": false,
      "t": 237995.4780000003,
      "d": 2062.4608125000377,
      "v": 72
    },
    {
      "midi": 80,
      "hit": false,
      "t": 238051.03249999904,
      "d": 152.7748750000028,
      "v": 77
    },
    {
      "midi": 87,
      "hit": false,
      "t": 238328.80499999903,
      "d": 76.3874375000014,
      "v": 53
    },
    {
      "midi": 75,
      "hit": false,
      "t": 238384.35949999903,
      "d": 76.3874375000014,
      "v": 53
    },
    {
      "midi": 84,
      "hit": false,
      "t": 238662.13199999902,
      "d": 95.4842968749872,
      "v": 66
    },
    {
      "midi": 60,
      "hit": false,
      "t": 238662.13199999908,
      "d": 362.8403281250212,
      "v": 101
    },
    {
      "midi": 60,
      "hit": false,
      "t": 238662.1320000003,
      "d": 1317.6832968750095,
      "v": 91
    },
    {
      "midi": 72,
      "hit": false,
      "t": 238717.68649999902,
      "d": 95.4842968749872,
      "v": 66
    },
    {
      "midi": 87,
      "hit": false,
      "t": 238995.458999999,
      "d": 76.3874375000014,
      "v": 62
    },
    {
      "midi": 75,
      "hit": false,
      "t": 239051.013499999,
      "d": 76.3874375000014,
      "v": 62
    },
    {
      "midi": 80,
      "hit": false,
      "t": 239328.785999999,
      "d": 95.4842968749872,
      "v": 72
    },
    {
      "midi": 70,
      "hit": false,
      "t": 239328.7859999991,
      "d": 343.7434687499772,
      "v": 86
    },
    {
      "midi": 70,
      "hit": false,
      "t": 239328.78600000005,
      "d": 362.8403281249921,
      "v": 95
    },
    {
      "midi": 68,
      "hit": false,
      "t": 239384.340499999,
      "d": 95.4842968749872,
      "v": 72
    },
    {
      "midi": 84,
      "hit": false,
      "t": 239662.112999999,
      "d": 95.4842968749872,
      "v": 80
    },
    {
      "midi": 72,
      "hit": false,
      "t": 239662.11299999908,
      "d": 112.84507812498487,
      "v": 109
    },
    {
      "midi": 72,
      "hit": false,
      "t": 239662.11300000004,
      "d": 305.5497500000056,
      "v": 94
    },
    {
      "midi": 72,
      "hit": false,
      "t": 239717.667499999,
      "d": 95.4842968749872,
      "v": 80
    },
    {
      "midi": 89,
      "hit": false,
      "t": 239995.43999999898,
      "d": 76.3874375000014,
      "v": 83
    },
    {
      "midi": 73,
      "hit": false,
      "t": 239995.43999999907,
      "d": 553.8089218749956,
      "v": 103
    },
    {
      "midi": 68,
      "hit": false,
      "t": 239995.43999999907,
      "d": 572.9057812499814,
      "v": 95
    },
    {
      "midi": 65,
      "hit": false,
      "t": 239995.43999999907,
      "d": 706.5837968749693,
      "v": 97
    },
    {
      "midi": 53,
      "hit": false,
      "t": 239995.43999999907,
      "d": 763.8743749999849,
      "v": 99
    },
    {
      "midi": 41,
      "hit": false,
      "t": 239995.43999999994,
      "d": 1355.8770156250102,
      "v": 97
    },
    {
      "midi": 73,
      "hit": false,
      "t": 239995.44000000006,
      "d": 631.9324375000142,
      "v": 99
    },
    {
      "midi": 65,
      "hit": false,
      "t": 239995.44000000032,
      "d": 1319.4193749999977,
      "v": 97
    },
    {
      "midi": 61,
      "hit": false,
      "t": 239995.44000000032,
      "d": 5847.111125000025,
      "v": 74
    },
    {
      "midi": 77,
      "hit": false,
      "t": 240050.99449999898,
      "d": 76.3874375000014,
      "v": 83
    },
    {
      "midi": 80,
      "hit": false,
      "t": 240328.76699999897,
      "d": 114.5811562500021,
      "v": 54
    },
    {
      "midi": 68,
      "hit": false,
      "t": 240384.32149999897,
      "d": 114.5811562500021,
      "v": 54
    },
    {
      "midi": 85,
      "hit": false,
      "t": 240662.09399999896,
      "d": 131.94193749999977,
      "v": 85
    },
    {
      "midi": 72,
      "hit": false,
      "t": 240662.09399999905,
      "d": 76.3874375000014,
      "v": 105
    },
    {
      "midi": 72,
      "hit": false,
      "t": 240662.09400000007,
      "d": 725.6806562500133,
      "v": 101
    },
    {
      "midi": 73,
      "hit": false,
      "t": 240717.64849999896,
      "d": 131.94193749999977,
      "v": 85
    },
    {
      "midi": 89,
      "hit": false,
      "t": 240995.42099999895,
      "d": 95.4842968749872,
      "v": 70
    },
    {
      "midi": 77,
      "hit": false,
      "t": 241050.97549999895,
      "d": 95.4842968749872,
      "v": 70
    },
    {
      "midi": 90,
      "hit": false,
      "t": 241328.74799999894,
      "d": 152.7748750000028,
      "v": 83
    },
    {
      "midi": 70,
      "hit": false,
      "t": 241328.74799999906,
      "d": 248.25917187499,
      "v": 88
    },
    {
      "midi": 66,
      "hit": false,
      "t": 241328.74799999906,
      "d": 265.61995312498766,
      "v": 92
    },
    {
      "midi": 54,
      "hit": false,
      "t": 241328.74799999906,
      "d": 284.71681249997346,
      "v": 86
    },
    {
      "midi": 61,
      "hit": false,
      "t": 241328.74799999906,
      "d": 284.71681249997346,
      "v": 89
    },
    {
      "midi": 42,
      "hit": false,
      "t": 241328.74799999996,
      "d": 631.9324374999851,
      "v": 101
    },
    {
      "midi": 70,
      "hit": false,
      "t": 241328.74800000008,
      "d": 670.1261562500149,
      "v": 95
    },
    {
      "midi": 70,
      "hit": false,
      "t": 241328.7480000003,
      "d": 630.196359374997,
      "v": 70
    },
    {
      "midi": 66,
      "hit": false,
      "t": 241328.7480000003,
      "d": 1374.9738750000251,
      "v": 85
    },
    {
      "midi": 78,
      "hit": false,
      "t": 241384.30249999894,
      "d": 152.7748750000028,
      "v": 83
    },
    {
      "midi": 82,
      "hit": false,
      "t": 241662.07499999893,
      "d": 95.4842968749872,
      "v": 28
    },
    {
      "midi": 70,
      "hit": false,
      "t": 241717.62949999893,
      "d": 95.4842968749872,
      "v": 28
    },
    {
      "midi": 92,
      "hit": false,
      "t": 241995.40199999893,
      "d": 133.6780156249879,
      "v": 72
    },
    {
      "midi": 66,
      "hit": false,
      "t": 241995.40199999904,
      "d": 784.707312500017,
      "v": 80
    },
    {
      "midi": 68,
      "hit": false,
      "t": 241995.40199999904,
      "d": 821.1649531250296,
      "v": 88
    },
    {
      "midi": 61,
      "hit": false,
      "t": 241995.40199999904,
      "d": 840.2618125000154,
      "v": 71
    },
    {
      "midi": 49,
      "hit": false,
      "t": 241995.40199999904,
      "d": 861.0947500000184,
      "v": 86
    },
    {
      "midi": 37,
      "hit": false,
      "t": 241995.40199999994,
      "d": 1374.973874999996,
      "v": 99
    },
    {
      "midi": 68,
      "hit": false,
      "t": 241995.4020000001,
      "d": 1206.5742968750128,
      "v": 97
    },
    {
      "midi": 68,
      "hit": false,
      "t": 241995.40200000032,
      "d": 1394.070734375011,
      "v": 80
    },
    {
      "midi": 80,
      "hit": false,
      "t": 242050.95649999892,
      "d": 133.6780156249879,
      "v": 72
    },
    {
      "midi": 89,
      "hit": false,
      "t": 242328.72899999892,
      "d": 76.3874375000014,
      "v": 67
    },
    {
      "midi": 77,
      "hit": false,
      "t": 242384.2834999989,
      "d": 76.3874375000014,
      "v": 67
    },
    {
      "midi": 85,
      "hit": false,
      "t": 242662.0559999989,
      "d": 95.4842968749872,
      "v": 66
    },
    {
      "midi": 65,
      "hit": false,
      "t": 242662.05599999905,
      "d": 133.678015625017,
      "v": 88
    },
    {
      "midi": 65,
      "hit": false,
      "t": 242662.05600000033,
      "d": 725.6806562500133,
      "v": 85
    },
    {
      "midi": 73,
      "hit": false,
      "t": 242717.6104999989,
      "d": 95.4842968749872,
      "v": 66
    },
    {
      "midi": 80,
      "hit": false,
      "t": 242995.3829999989,
      "d": 95.4842968749872,
      "v": 68
    },
    {
      "midi": 68,
      "hit": false,
      "t": 243050.9374999989,
      "d": 95.4842968749872,
      "v": 68
    },
    {
      "midi": 85,
      "hit": false,
      "t": 243328.7099999989,
      "d": 114.5811562500021,
      "v": 80
    },
    {
      "midi": 54,
      "hit": false,
      "t": 243328.70999999906,
      "d": 324.6466093749914,
      "v": 88
    },
    {
      "midi": 61,
      "hit": false,
      "t": 243328.70999999906,
      "d": 324.6466093749914,
      "v": 82
    },
    {
      "midi": 66,
      "hit": false,
      "t": 243328.70999999906,
      "d": 342.00739062498906,
      "v": 88
    },
    {
      "midi": 70,
      "hit": false,
      "t": 243328.70999999906,
      "d": 345.4795468749944,
      "v": 94
    },
    {
      "midi": 42,
      "hit": false,
      "t": 243328.70999999993,
      "d": 706.5837968749984,
      "v": 99
    },
    {
      "midi": 70,
      "hit": false,
      "t": 243328.7100000001,
      "d": 342.00739062498906,
      "v": 94
    },
    {
      "midi": 70,
      "hit": false,
      "t": 243328.71000000034,
      "d": 651.029296875,
      "v": 80
    },
    {
      "midi": 66,
      "hit": false,
      "t": 243328.71000000034,
      "d": 687.4869375000126,
      "v": 91
    },
    {
      "midi": 73,
      "hit": false,
      "t": 243384.26449999888,
      "d": 114.5811562500021,
      "v": 80
    },
    {
      "midi": 82,
      "hit": false,
      "t": 243662.03699999888,
      "d": 112.84507812501397,
      "v": 74
    },
    {
      "midi": 72,
      "hit": false,
      "t": 243662.03699999905,
      "d": 114.5811562500021,
      "v": 92
    },
    {
      "midi": 72,
      "hit": false,
      "t": 243662.0370000001,
      "d": 305.5497500000056,
      "v": 91
    },
    {
      "midi": 70,
      "hit": false,
      "t": 243717.59149999887,
      "d": 112.84507812501397,
      "v": 74
    },
    {
      "midi": 80,
      "hit": false,
      "t": 243995.3639999989,
      "d": 114.5811562500021,
      "v": 79
    },
    {
      "midi": 73,
      "hit": false,
      "t": 243995.36399999904,
      "d": 649.2932187499828,
      "v": 97
    },
    {
      "midi": 68,
      "hit": false,
      "t": 243995.36399999904,
      "d": 706.5837968749693,
      "v": 89
    },
    {
      "midi": 65,
      "hit": false,
      "t": 243995.36399999904,
      "d": 782.9712343749707,
      "v": 92
    },
    {
      "midi": 49,
      "hit": false,
      "t": 243995.36399999904,
      "d": 802.0680937499565,
      "v": 83
    },
    {
      "midi": 37,
      "hit": false,
      "t": 243995.36399999994,
      "d": 1298.5864374999946,
      "v": 101
    },
    {
      "midi": 73,
      "hit": false,
      "t": 243995.36400000012,
      "d": 727.4167343750014,
      "v": 92
    },
    {
      "midi": 68,
      "hit": false,
      "t": 243995.36400000035,
      "d": 1145.8115624999919,
      "v": 86
    },
    {
      "midi": 65,
      "hit": false,
      "t": 243995.36400000035,
      "d": 1300.3225156249828,
      "v": 97
    },
    {
      "midi": 68,
      "hit": false,
      "t": 244050.9184999989,
      "d": 114.5811562500021,
      "v": 79
    },
    {
      "midi": 85,
      "hit": false,
      "t": 244328.6909999989,
      "d": 95.4842968749872,
      "v": 70
    },
    {
      "midi": 73,
      "hit": false,
      "t": 244384.24549999888,
      "d": 95.4842968749872,
      "v": 70
    },
    {
      "midi": 89,
      "hit": false,
      "t": 244662.01799999888,
      "d": 95.4842968749872,
      "v": 65
    },
    {
      "midi": 72,
      "hit": false,
      "t": 244662.01799999902,
      "d": 95.4842968749872,
      "v": 91
    },
    {
      "midi": 72,
      "hit": false,
      "t": 244662.01800000013,
      "d": 687.4869374999835,
      "v": 101
    },
    {
      "midi": 77,
      "hit": false,
      "t": 244717.57249999887,
      "d": 95.4842968749872,
      "v": 65
    },
    {
      "midi": 85,
      "hit": false,
      "t": 244995.34499999887,
      "d": 114.5811562500021,
      "v": 77
    },
    {
      "midi": 73,
      "hit": false,
      "t": 245050.89949999886,
      "d": 114.5811562500021,
      "v": 77
    },
    {
      "midi": 90,
      "hit": false,
      "t": 245328.67199999886,
      "d": 95.4842968749872,
      "v": 80
    },
    {
      "midi": 66,
      "hit": false,
      "t": 245328.671999999,
      "d": 229.1623125000042,
      "v": 97
    },
    {
      "midi": 70,
      "hit": false,
      "t": 245328.671999999,
      "d": 229.1623125000042,
      "v": 97
    },
    {
      "midi": 61,
      "hit": false,
      "t": 245328.671999999,
      "d": 284.71681250000256,
      "v": 91
    },
    {
      "midi": 54,
      "hit": false,
      "t": 245328.671999999,
      "d": 305.5497500000056,
      "v": 92
    },
    {
      "midi": 42,
      "hit": false,
      "t": 245328.67199999993,
      "d": 592.0026406249963,
      "v": 95
    },
    {
      "midi": 70,
      "hit": false,
      "t": 245328.6720000001,
      "d": 668.3900781249977,
      "v": 97
    },
    {
      "midi": 70,
      "hit": false,
      "t": 245328.67200000034,
      "d": 611.0995000000112,
      "v": 91
    },
    {
      "midi": 66,
      "hit": false,
      "t": 245328.67200000034,
      "d": 744.7775156249991,
      "v": 91
    },
    {
      "midi": 78,
      "hit": false,
      "t": 245384.22649999885,
      "d": 95.4842968749872,
      "v": 80
    },
    {
      "midi": 82,
      "hit": false,
      "t": 245661.99899999885,
      "d": 95.4842968749872,
      "v": 70
    },
    {
      "midi": 70,
      "hit": false,
      "t": 245717.55349999884,
      "d": 95.4842968749872,
      "v": 70
    },
    {
      "midi": 80,
      "hit": false,
      "t": 245995.32599999884,
      "d": 131.94193749999977,
      "v": 62
    },
    {
      "midi": 63,
      "hit": false,
      "t": 245995.325999999,
      "d": 647.5571406249946,
      "v": 94
    },
    {
      "midi": 68,
      "hit": false,
      "t": 245995.325999999,
      "d": 647.5571406249946,
      "v": 86
    },
    {
      "midi": 60,
      "hit": false,
      "t": 245995.325999999,
      "d": 763.8743749999849,
      "v": 101
    },
    {
      "midi": 54,
      "hit": false,
      "t": 245995.325999999,
      "d": 1491.2911093749863,
      "v": 105
    },
    {
      "midi": 42,
      "hit": false,
      "t": 245995.32599999994,
      "d": 1279.4895781250088,
      "v": 107
    },
    {
      "midi": 68,
      "hit": false,
      "t": 245995.32600000012,
      "d": 649.2932187499828,
      "v": 95
    },
    {
      "midi": 60,
      "hit": false,
      "t": 245995.32600000035,
      "d": 1814.2016406249895,
      "v": 77
    },
    {
      "midi": 63,
      "hit": false,
      "t": 245995.32600000035,
      "d": 1966.9765156249923,
      "v": 59
    },
    {
      "midi": 68,
      "hit": false,
      "t": 245995.32600000035,
      "d": 3248.2021718749893,
      "v": 83
    },
    {
      "midi": 68,
      "hit": false,
      "t": 246050.88049999884,
      "d": 131.94193749999977,
      "v": 62
    },
    {
      "midi": 84,
      "hit": false,
      "t": 246328.65299999883,
      "d": 114.5811562500021,
      "v": 70
    },
    {
      "midi": 72,
      "hit": false,
      "t": 246384.20749999883,
      "d": 114.5811562500021,
      "v": 70
    },
    {
      "midi": 87,
      "hit": false,
      "t": 246661.97999999882,
      "d": 112.84507812501397,
      "v": 75
    },
    {
      "midi": 70,
      "hit": false,
      "t": 246661.979999999,
      "d": 649.2932187500119,
      "v": 101
    },
    {
      "midi": 70,
      "hit": false,
      "t": 246661.9800000001,
      "d": 687.4869375000126,
      "v": 92
    },
    {
      "midi": 75,
      "hit": false,
      "t": 246717.53449999882,
      "d": 112.84507812501397,
      "v": 75
    },
    {
      "midi": 92,
      "hit": false,
      "t": 246995.30699999884,
      "d": 112.84507812501397,
      "v": 71
    },
    {
      "midi": 80,
      "hit": false,
      "t": 247050.86149999883,
      "d": 112.84507812501397,
      "v": 71
    },
    {
      "midi": 87,
      "hit": false,
      "t": 247328.63399999886,
      "d": 133.6780156249879,
      "v": 47
    },
    {
      "midi": 72,
      "hit": false,
      "t": 247328.633999999,
      "d": 114.5811562500021,
      "v": 107
    },
    {
      "midi": 42,
      "hit": false,
      "t": 247328.63399999996,
      "d": 649.2932187500119,
      "v": 92
    },
    {
      "midi": 72,
      "hit": false,
      "t": 247328.6340000001,
      "d": 668.3900781249977,
      "v": 91
    },
    {
      "midi": 75,
      "hit": false,
      "t": 247384.18849999885,
      "d": 133.6780156249879,
      "v": 47
    },
    {
      "midi": 84,
      "hit": false,
      "t": 247661.96099999885,
      "d": 152.7748750000028,
      "v": 68
    },
    {
      "midi": 72,
      "hit": false,
      "t": 247717.51549999884,
      "d": 152.7748750000028,
      "v": 68
    },
    {
      "midi": 89,
      "hit": false,
      "t": 247995.28799999884,
      "d": 171.8717343749886,
      "v": 70
    },
    {
      "midi": 68,
      "hit": false,
      "t": 247995.287999999,
      "d": 248.25917187499,
      "v": 77
    },
    {
      "midi": 73,
      "hit": false,
      "t": 247995.287999999,
      "d": 324.6466093749914,
      "v": 99
    },
    {
      "midi": 65,
      "hit": false,
      "t": 247995.287999999,
      "d": 743.0414374999818,
      "v": 92
    },
    {
      "midi": 53,
      "hit": false,
      "t": 247995.287999999,
      "d": 993.0366874999891,
      "v": 77
    },
    {
      "midi": 41,
      "hit": false,
      "t": 247995.28799999997,
      "d": 1336.7801562499953,
      "v": 91
    },
    {
      "midi": 73,
      "hit": false,
      "t": 247995.28800000012,
      "d": 670.1261562499858,
      "v": 101
    },
    {
      "midi": 65,
      "hit": false,
      "t": 247995.28800000035,
      "d": 1279.4895781249797,
      "v": 97
    },
    {
      "midi": 61,
      "hit": false,
      "t": 247995.28800000035,
      "d": 6694.317250000022,
      "v": 83
    },
    {
      "midi": 77,
      "hit": false,
      "t": 248050.84249999883,
      "d": 171.8717343749886,
      "v": 70
    },
    {
      "midi": 80,
      "hit": false,
      "t": 248328.61499999883,
      "d": 170.13565625000047,
      "v": 54
    },
    {
      "midi": 68,
      "hit": false,
      "t": 248384.16949999882,
      "d": 170.13565625000047,
      "v": 54
    },
    {
      "midi": 85,
      "hit": false,
      "t": 248661.94199999882,
      "d": 229.1623125000042,
      "v": 68
    },
    {
      "midi": 68,
      "hit": false,
      "t": 248661.941999999,
      "d": 152.7748750000028,
      "v": 89
    },
    {
      "midi": 68,
      "hit": false,
      "t": 248661.9420000001,
      "d": 706.5837968749984,
      "v": 89
    },
    {
      "midi": 73,
      "hit": false,
      "t": 248717.49649999882,
      "d": 229.1623125000042,
      "v": 68
    },
    {
      "midi": 89,
      "hit": false,
      "t": 248995.2689999988,
      "d": 190.9685937500035,
      "v": 68
    },
    {
      "midi": 77,
      "hit": false,
      "t": 249050.8234999988,
      "d": 190.9685937500035,
      "v": 68
    },
    {
      "midi": 90,
      "hit": false,
      "t": 249328.5959999988,
      "d": 229.1623125000042,
      "v": 74
    },
    {
      "midi": 54,
      "hit": false,
      "t": 249328.595999999,
      "d": 305.5497500000056,
      "v": 88
    },
    {
      "midi": 58,
      "hit": false,
      "t": 249328.595999999,
      "d": 324.6466093749914,
      "v": 85
    },
    {
      "midi": 61,
      "hit": false,
      "t": 249328.595999999,
      "d": 324.6466093749914,
      "v": 95
    },
    {
      "midi": 66,
      "hit": false,
      "t": 249328.595999999,
      "d": 324.6466093749914,
      "v": 88
    },
    {
      "midi": 32,
      "hit": false,
      "t": 249328.59599999996,
      "d": 649.2932187500119,
      "v": 109
    },
    {
      "midi": 66,
      "hit": false,
      "t": 249328.5960000001,
      "d": 668.3900781249686,
      "v": 91
    },
    {
      "midi": 58,
      "hit": false,
      "t": 249328.59600000034,
      "d": 611.0995000000112,
      "v": 92
    },
    {
      "midi": 66,
      "hit": false,
      "t": 249328.59600000034,
      "d": 729.1528125000186,
      "v": 72
    },
    {
      "midi": 78,
      "hit": false,
      "t": 249384.1504999988,
      "d": 229.1623125000042,
      "v": 74
    },
    {
      "midi": 82,
      "hit": false,
      "t": 249661.9229999988,
      "d": 133.6780156249879,
      "v": 64
    },
    {
      "midi": 70,
      "hit": false,
      "t": 249717.4774999988,
      "d": 133.6780156249879,
      "v": 64
    },
    {
      "midi": 89,
      "hit": false,
      "t": 249995.24999999878,
      "d": 131.94193749999977,
      "v": 64
    },
    {
      "midi": 61,
      "hit": false,
      "t": 249995.24999999898,
      "d": 1145.8115624999919,
      "v": 94
    },
    {
      "midi": 56,
      "hit": false,
      "t": 249995.24999999898,
      "d": 1184.0052812499925,
      "v": 72
    },
    {
      "midi": 65,
      "hit": false,
      "t": 249995.24999999898,
      "d": 1241.295859374979,
      "v": 105
    },
    {
      "midi": 49,
      "hit": false,
      "t": 249995.24999999898,
      "d": 1279.4895781249797,
      "v": 85
    },
    {
      "midi": 37,
      "hit": false,
      "t": 249995.24999999997,
      "d": 1642.329906250001,
      "v": 103
    },
    {
      "midi": 65,
      "hit": false,
      "t": 249995.2500000001,
      "d": 1088.5209843749763,
      "v": 103
    },
    {
      "midi": 65,
      "hit": false,
      "t": 249995.25000000035,
      "d": 3994.7157656250056,
      "v": 103
    },
    {
      "midi": 56,
      "hit": false,
      "t": 249995.25000000035,
      "d": 5833.222500000033,
      "v": 71
    },
    {
      "midi": 77,
      "hit": false,
      "t": 250050.80449999878,
      "d": 131.94193749999977,
      "v": 64
    },
    {
      "midi": 80,
      "hit": false,
      "t": 250328.57699999877,
      "d": 229.1623125000042,
      "v": 64
    },
    {
      "midi": 68,
      "hit": false,
      "t": 250384.13149999877,
      "d": 229.1623125000042,
      "v": 64
    },
    {
      "midi": 85,
      "hit": false,
      "t": 250661.90399999876,
      "d": 152.7748750000028,
      "v": 67
    },
    {
      "midi": 73,
      "hit": false,
      "t": 250717.45849999876,
      "d": 152.7748750000028,
      "v": 67
    },
    {
      "midi": 87,
      "hit": false,
      "t": 250995.23099999875,
      "d": 152.7748750000028,
      "v": 55
    },
    {
      "midi": 75,
      "hit": false,
      "t": 251050.78549999875,
      "d": 152.7748750000028,
      "v": 55
    },
    {
      "midi": 89,
      "hit": false,
      "t": 251328.55799999874,
      "d": 208.32937500000116,
      "v": 59
    },
    {
      "midi": 65,
      "hit": false,
      "t": 251328.55799999897,
      "d": 361.10425000000396,
      "v": 109
    },
    {
      "midi": 65,
      "hit": false,
      "t": 251328.55800000008,
      "d": 345.4795468749944,
      "v": 107
    },
    {
      "midi": 77,
      "hit": false,
      "t": 251384.11249999874,
      "d": 208.32937500000116,
      "v": 59
    },
    {
      "midi": 85,
      "hit": false,
      "t": 251661.88499999873,
      "d": 114.5811562500021,
      "v": 65
    },
    {
      "midi": 63,
      "hit": false,
      "t": 251661.88499999896,
      "d": 347.21562500001164,
      "v": 79
    },
    {
      "midi": 37,
      "hit": false,
      "t": 251661.88499999998,
      "d": 322.91053125000326,
      "v": 91
    },
    {
      "midi": 63,
      "hit": false,
      "t": 251661.88500000007,
      "d": 361.10425000000396,
      "v": 85
    },
    {
      "midi": 73,
      "hit": false,
      "t": 251717.43949999873,
      "d": 114.5811562500021,
      "v": 65
    },
    {
      "midi": 89,
      "hit": false,
      "t": 251995.21199999872,
      "d": 152.7748750000028,
      "v": 65
    },
    {
      "midi": 61,
      "hit": false,
      "t": 251995.21199999898,
      "d": 1031.2304062499898,
      "v": 99
    },
    {
      "midi": 46,
      "hit": false,
      "t": 251995.21199999898,
      "d": 1338.5162343749835,
      "v": 91
    },
    {
      "midi": 58,
      "hit": false,
      "t": 251995.21199999898,
      "d": 1680.5236250000016,
      "v": 92
    },
    {
      "midi": 34,
      "hit": false,
      "t": 251995.21199999997,
      "d": 1527.7487499999988,
      "v": 103
    },
    {
      "midi": 61,
      "hit": false,
      "t": 251995.21200000006,
      "d": 956.5790468750056,
      "v": 99
    },
    {
      "midi": 77,
      "hit": false,
      "t": 252050.76649999872,
      "d": 152.7748750000028,
      "v": 65
    },
    {
      "midi": 85,
      "hit": false,
      "t": 252328.5389999987,
      "d": 171.8717343749886,
      "v": 59
    },
    {
      "midi": 73,
      "hit": false,
      "t": 252384.0934999987,
      "d": 171.8717343749886,
      "v": 59
    },
    {
      "midi": 80,
      "hit": false,
      "t": 252661.8659999987,
      "d": 152.7748750000028,
      "v": 49
    },
    {
      "midi": 68,
      "hit": false,
      "t": 252717.4204999987,
      "d": 152.7748750000028,
      "v": 49
    },
    {
      "midi": 85,
      "hit": false,
      "t": 252995.1929999987,
      "d": 112.84507812501397,
      "v": 56
    },
    {
      "midi": 63,
      "hit": false,
      "t": 252995.19299999898,
      "d": 362.8403281249921,
      "v": 88
    },
    {
      "midi": 63,
      "hit": false,
      "t": 252995.19300000006,
      "d": 362.8403281249921,
      "v": 86
    },
    {
      "midi": 73,
      "hit": false,
      "t": 253050.7474999987,
      "d": 112.84507812501397,
      "v": 56
    },
    {
      "midi": 89,
      "hit": false,
      "t": 253328.5199999987,
      "d": 246.52309375000186,
      "v": 68
    },
    {
      "midi": 65,
      "hit": false,
      "t": 253328.51999999897,
      "d": 305.5497500000056,
      "v": 101
    },
    {
      "midi": 65,
      "hit": false,
      "t": 253328.52000000005,
      "d": 342.00739062498906,
      "v": 107
    },
    {
      "midi": 77,
      "hit": false,
      "t": 253384.0744999987,
      "d": 246.52309375000186,
      "v": 68
    },
    {
      "midi": 85,
      "hit": false,
      "t": 253661.8469999987,
      "d": 93.74821874999907,
      "v": 72
    },
    {
      "midi": 66,
      "hit": false,
      "t": 253661.846999999,
      "d": 114.5811562500021,
      "v": 94
    },
    {
      "midi": 34,
      "hit": false,
      "t": 253661.84699999998,
      "d": 381.9371874999779,
      "v": 91
    },
    {
      "midi": 66,
      "hit": false,
      "t": 253661.84700000004,
      "d": 324.6466093749914,
      "v": 89
    },
    {
      "midi": 73,
      "hit": false,
      "t": 253717.4014999987,
      "d": 93.74821874999907,
      "v": 72
    },
    {
      "midi": 92,
      "hit": false,
      "t": 253995.1739999987,
      "d": 171.8717343749886,
      "v": 68
    },
    {
      "midi": 61,
      "hit": false,
      "t": 253995.17399999898,
      "d": 553.8089218749956,
      "v": 92
    },
    {
      "midi": 63,
      "hit": false,
      "t": 253995.17399999898,
      "d": 1184.0052812500217,
      "v": 85
    },
    {
      "midi": 68,
      "hit": false,
      "t": 253995.17399999898,
      "d": 1374.9738750000251,
      "v": 89
    },
    {
      "midi": 56,
      "hit": false,
      "t": 253995.17399999898,
      "d": 1795.1047812500037,
      "v": 77
    },
    {
      "midi": 32,
      "hit": false,
      "t": 253995.17399999997,
      "d": 1986.0733749999781,
      "v": 94
    },
    {
      "midi": 68,
      "hit": false,
      "t": 253995.17400000003,
      "d": 1336.7801562499953,
      "v": 92
    },
    {
      "midi": 63,
      "hit": false,
      "t": 253995.17400000035,
      "d": 1993.017687500018,
      "v": 64
    },
    {
      "midi": 80,
      "hit": false,
      "t": 254050.7284999987,
      "d": 171.8717343749886,
      "v": 68
    },
    {
      "midi": 87,
      "hit": false,
      "t": 254328.50099999868,
      "d": 112.84507812501397,
      "v": 40
    },
    {
      "midi": 75,
      "hit": false,
      "t": 254384.05549999868,
      "d": 112.84507812501397,
      "v": 40
    },
    {
      "midi": 84,
      "hit": false,
      "t": 254661.8279999987,
      "d": 171.8717343749886,
      "v": 62
    },
    {
      "midi": 60,
      "hit": false,
      "t": 254661.827999999,
      "d": 1013.8696249999921,
      "v": 103
    },
    {
      "midi": 60,
      "hit": false,
      "t": 254661.82800000036,
      "d": 1184.0052812500217,
      "v": 99
    },
    {
      "midi": 72,
      "hit": false,
      "t": 254717.3824999987,
      "d": 171.8717343749886,
      "v": 62
    },
    {
      "midi": 87,
      "hit": false,
      "t": 254995.1549999987,
      "d": 190.9685937500035,
      "v": 59
    },
    {
      "midi": 75,
      "hit": false,
      "t": 255050.7094999987,
      "d": 190.9685937500035,
      "v": 59
    },
    {
      "midi": 80,
      "hit": false,
      "t": 255328.48199999868,
      "d": 248.25917187499,
      "v": 67
    },
    {
      "midi": 70,
      "hit": false,
      "t": 255328.481999999,
      "d": 190.9685937500035,
      "v": 95
    },
    {
      "midi": 70,
      "hit": false,
      "t": 255328.48200000002,
      "d": 343.7434687500063,
      "v": 91
    },
    {
      "midi": 68,
      "hit": false,
      "t": 255384.03649999868,
      "d": 248.25917187499,
      "v": 67
    },
    {
      "midi": 84,
      "hit": false,
      "t": 255661.80899999867,
      "d": 76.3874375000014,
      "v": 52
    },
    {
      "midi": 72,
      "hit": false,
      "t": 255661.808999999,
      "d": 112.84507812498487,
      "v": 89
    },
    {
      "midi": 72,
      "hit": false,
      "t": 255661.80900000004,
      "d": 345.4795468749944,
      "v": 89
    },
    {
      "midi": 72,
      "hit": false,
      "t": 255717.36349999867,
      "d": 76.3874375000014,
      "v": 52
    },
    {
      "midi": 82,
      "hit": false,
      "t": 255995.13599999866,
      "d": 208.32937500000116,
      "v": 82
    },
    {
      "midi": 73,
      "hit": false,
      "t": 255995.13599999898,
      "d": 666.6540000000095,
      "v": 97
    },
    {
      "midi": 70,
      "hit": false,
      "t": 255995.13599999898,
      "d": 668.3900781249977,
      "v": 103
    },
    {
      "midi": 66,
      "hit": false,
      "t": 255995.13599999898,
      "d": 1031.2304062499898,
      "v": 85
    },
    {
      "midi": 54,
      "hit": false,
      "t": 255995.13599999898,
      "d": 1451.3613124999974,
      "v": 95
    },
    {
      "midi": 30,
      "hit": false,
      "t": 255995.13599999994,
      "d": 2005.170234374993,
      "v": 107
    },
    {
      "midi": 73,
      "hit": false,
      "t": 255995.13600000003,
      "d": 668.3900781249977,
      "v": 99
    },
    {
      "midi": 58,
      "hit": false,
      "t": 255995.13600000038,
      "d": 1854.1314375000075,
      "v": 77
    },
    {
      "midi": 66,
      "hit": false,
      "t": 255995.13600000038,
      "d": 2694.393250000023,
      "v": 70
    },
    {
      "midi": 61,
      "hit": false,
      "t": 255995.13600000038,
      "d": 7319.305375000025,
      "v": 83
    },
    {
      "midi": 70,
      "hit": false,
      "t": 256050.69049999866,
      "d": 208.32937500000116,
      "v": 82
    },
    {
      "midi": 85,
      "hit": false,
      "t": 256328.46299999865,
      "d": 152.7748750000028,
      "v": 77
    },
    {
      "midi": 73,
      "hit": false,
      "t": 256384.01749999865,
      "d": 152.7748750000028,
      "v": 77
    },
    {
      "midi": 90,
      "hit": false,
      "t": 256661.78999999864,
      "d": 152.7748750000028,
      "v": 82
    },
    {
      "midi": 72,
      "hit": false,
      "t": 256661.789999999,
      "d": 420.1309062499786,
      "v": 94
    },
    {
      "midi": 72,
      "hit": false,
      "t": 256661.79000000004,
      "d": 706.5837968749693,
      "v": 91
    },
    {
      "midi": 78,
      "hit": false,
      "t": 256717.34449999864,
      "d": 152.7748750000028,
      "v": 82
    },
    {
      "midi": 85,
      "hit": false,
      "t": 256995.11699999863,
      "d": 208.32937500000116,
      "v": 70
    },
    {
      "midi": 73,
      "hit": false,
      "t": 257050.67149999863,
      "d": 208.32937500000116,
      "v": 70
    },
    {
      "midi": 94,
      "hit": false,
      "t": 257328.44399999862,
      "d": 210.0654531249893,
      "v": 75
    },
    {
      "midi": 66,
      "hit": false,
      "t": 257328.44399999897,
      "d": 133.678015625017,
      "v": 83
    },
    {
      "midi": 70,
      "hit": false,
      "t": 257328.44399999897,
      "d": 152.7748750000028,
      "v": 83
    },
    {
      "midi": 61,
      "hit": false,
      "t": 257328.44399999897,
      "d": 171.8717343749886,
      "v": 74
    },
    {
      "midi": 70,
      "hit": false,
      "t": 257328.44400000002,
      "d": 630.196359374997,
      "v": 92
    },
    {
      "midi": 82,
      "hit": false,
      "t": 257383.99849999862,
      "d": 210.0654531249893,
      "v": 75
    },
    {
      "midi": 90,
      "hit": false,
      "t": 257661.7709999986,
      "d": 114.5811562500021,
      "v": 71
    },
    {
      "midi": 78,
      "hit": false,
      "t": 257717.3254999986,
      "d": 114.5811562500021,
      "v": 71
    },
    {
      "midi": 92,
      "hit": false,
      "t": 257995.0979999986,
      "d": 171.8717343749886,
      "v": 79
    },
    {
      "midi": 66,
      "hit": false,
      "t": 257995.09799999895,
      "d": 725.6806562500133,
      "v": 91
    },
    {
      "midi": 68,
      "hit": false,
      "t": 257995.09799999895,
      "d": 859.3586718750012,
      "v": 86
    },
    {
      "midi": 49,
      "hit": false,
      "t": 257995.09799999895,
      "d": 897.5523906250019,
      "v": 97
    },
    {
      "midi": 61,
      "hit": false,
      "t": 257995.09799999895,
      "d": 935.7461093750026,
      "v": 83
    },
    {
      "midi": 37,
      "hit": false,
      "t": 257995.09799999994,
      "d": 1336.7801562499953,
      "v": 107
    },
    {
      "midi": 68,
      "hit": false,
      "t": 257995.09800000003,
      "d": 1319.4193749999977,
      "v": 99
    },
    {
      "midi": 68,
      "hit": false,
      "t": 257995.09800000038,
      "d": 1319.4193750000268,
      "v": 74
    },
    {
      "midi": 80,
      "hit": false,
      "t": 258050.6524999986,
      "d": 171.8717343749886,
      "v": 79
    },
    {
      "midi": 89,
      "hit": false,
      "t": 258328.4249999986,
      "d": 131.94193749999977,
      "v": 60
    },
    {
      "midi": 77,
      "hit": false,
      "t": 258383.9794999986,
      "d": 131.94193749999977,
      "v": 60
    },
    {
      "midi": 85,
      "hit": false,
      "t": 258661.75199999858,
      "d": 112.84507812501397,
      "v": 49
    },
    {
      "midi": 65,
      "hit": false,
      "t": 258661.75199999896,
      "d": 152.7748750000028,
      "v": 107
    },
    {
      "midi": 65,
      "hit": false,
      "t": 258661.7520000004,
      "d": 649.2932187500119,
      "v": 94
    },
    {
      "midi": 73,
      "hit": false,
      "t": 258717.30649999858,
      "d": 112.84507812501397,
      "v": 49
    },
    {
      "midi": 89,
      "hit": false,
      "t": 258995.0789999986,
      "d": 133.6780156249879,
      "v": 70
    },
    {
      "midi": 77,
      "hit": false,
      "t": 259050.6334999986,
      "d": 133.6780156249879,
      "v": 70
    },
    {
      "midi": 80,
      "hit": false,
      "t": 259328.4059999986,
      "d": 133.6780156249879,
      "v": 77
    },
    {
      "midi": 54,
      "hit": false,
      "t": 259328.40599999894,
      "d": 305.5497500000056,
      "v": 94
    },
    {
      "midi": 66,
      "hit": false,
      "t": 259328.40599999894,
      "d": 326.3826875000086,
      "v": 82
    },
    {
      "midi": 70,
      "hit": false,
      "t": 259328.40599999894,
      "d": 342.00739062501816,
      "v": 92
    },
    {
      "midi": 61,
      "hit": false,
      "t": 259328.40599999894,
      "d": 343.7434687500063,
      "v": 83
    },
    {
      "midi": 42,
      "hit": false,
      "t": 259328.40599999993,
      "d": 706.5837968749984,
      "v": 107
    },
    {
      "midi": 70,
      "hit": false,
      "t": 259328.40600000002,
      "d": 343.7434687499772,
      "v": 89
    },
    {
      "midi": 70,
      "hit": false,
      "t": 259328.4060000004,
      "d": 708.3198750000156,
      "v": 56
    },
    {
      "midi": 66,
      "hit": false,
      "t": 259328.4060000004,
      "d": 744.7775156250282,
      "v": 86
    },
    {
      "midi": 68,
      "hit": false,
      "t": 259383.9604999986,
      "d": 133.6780156249879,
      "v": 77
    },
    {
      "midi": 82,
      "hit": false,
      "t": 259661.73299999858,
      "d": 131.94193749999977,
      "v": 71
    },
    {
      "midi": 72,
      "hit": false,
      "t": 259661.73299999896,
      "d": 112.84507812498487,
      "v": 91
    },
    {
      "midi": 72,
      "hit": false,
      "t": 259661.733,
      "d": 364.5764062499802,
      "v": 91
    },
    {
      "midi": 70,
      "hit": false,
      "t": 259717.28749999858,
      "d": 131.94193749999977,
      "v": 71
    },
    {
      "midi": 80,
      "hit": false,
      "t": 259995.05999999857,
      "d": 152.7748750000028,
      "v": 82
    },
    {
      "midi": 73,
      "hit": false,
      "t": 259995.05999999895,
      "d": 592.0026406249963,
      "v": 86
    },
    {
      "midi": 68,
      "hit": false,
      "t": 259995.05999999895,
      "d": 687.4869375000126,
      "v": 83
    },
    {
      "midi": 49,
      "hit": false,
      "t": 259995.05999999895,
      "d": 706.5837968749984,
      "v": 89
    },
    {
      "midi": 65,
      "hit": false,
      "t": 259995.05999999895,
      "d": 763.8743749999849,
      "v": 88
    },
    {
      "midi": 37,
      "hit": false,
      "t": 259995.05999999994,
      "d": 1336.7801562499953,
      "v": 103
    },
    {
      "midi": 73,
      "hit": false,
      "t": 259995.06,
      "d": 725.6806562499842,
      "v": 91
    },
    {
      "midi": 65,
      "hit": false,
      "t": 259995.0600000004,
      "d": 1336.7801562500244,
      "v": 91
    },
    {
      "midi": 68,
      "hit": false,
      "t": 259995.0600000004,
      "d": 1336.7801562500244,
      "v": 85
    },
    {
      "midi": 68,
      "hit": false,
      "t": 260050.61449999857,
      "d": 152.7748750000028,
      "v": 82
    },
    {
      "midi": 85,
      "hit": false,
      "t": 260328.38699999856,
      "d": 93.74821874999907,
      "v": 66
    },
    {
      "midi": 73,
      "hit": false,
      "t": 260383.94149999856,
      "d": 93.74821874999907,
      "v": 66
    },
    {
      "midi": 89,
      "hit": false,
      "t": 260661.71399999855,
      "d": 171.8717343749886,
      "v": 70
    },
    {
      "midi": 72,
      "hit": false,
      "t": 260661.71399999896,
      "d": 133.6780156249879,
      "v": 91
    },
    {
      "midi": 72,
      "hit": false,
      "t": 260661.71399999998,
      "d": 687.4869375000126,
      "v": 89
    },
    {
      "midi": 77,
      "hit": false,
      "t": 260717.26849999855,
      "d": 171.8717343749886,
      "v": 70
    },
    {
      "midi": 85,
      "hit": false,
      "t": 260995.04099999854,
      "d": 114.5811562500021,
      "v": 67
    },
    {
      "midi": 73,
      "hit": false,
      "t": 261050.59549999854,
      "d": 114.5811562500021,
      "v": 67
    },
    {
      "midi": 90,
      "hit": false,
      "t": 261328.36799999853,
      "d": 190.9685937500035,
      "v": 77
    },
    {
      "midi": 54,
      "hit": false,
      "t": 261328.36799999894,
      "d": 248.25917187499,
      "v": 86
    },
    {
      "midi": 66,
      "hit": false,
      "t": 261328.36799999894,
      "d": 265.61995312498766,
      "v": 88
    },
    {
      "midi": 70,
      "hit": false,
      "t": 261328.36799999894,
      "d": 305.5497499999765,
      "v": 89
    },
    {
      "midi": 61,
      "hit": false,
      "t": 261328.36799999894,
      "d": 324.6466093749623,
      "v": 82
    },
    {
      "midi": 42,
      "hit": false,
      "t": 261328.36799999993,
      "d": 668.3900781249977,
      "v": 99
    },
    {
      "midi": 70,
      "hit": false,
      "t": 261328.368,
      "d": 668.3900781249977,
      "v": 94
    },
    {
      "midi": 70,
      "hit": false,
      "t": 261328.36800000042,
      "d": 668.3900781249977,
      "v": 74
    },
    {
      "midi": 66,
      "hit": false,
      "t": 261328.36800000042,
      "d": 706.5837968749984,
      "v": 88
    },
    {
      "midi": 78,
      "hit": false,
      "t": 261383.92249999853,
      "d": 190.9685937500035,
      "v": 77
    },
    {
      "midi": 82,
      "hit": false,
      "t": 261661.69499999852,
      "d": 133.6780156249879,
      "v": 75
    },
    {
      "midi": 70,
      "hit": false,
      "t": 261717.24949999852,
      "d": 133.6780156249879,
      "v": 75
    },
    {
      "midi": 89,
      "hit": false,
      "t": 261995.0219999985,
      "d": 284.71681250000256,
      "v": 65
    },
    {
      "midi": 61,
      "hit": false,
      "t": 261995.0219999989,
      "d": 342.00739062501816,
      "v": 75
    },
    {
      "midi": 49,
      "hit": false,
      "t": 261995.0219999989,
      "d": 343.7434687500354,
      "v": 97
    },
    {
      "midi": 65,
      "hit": false,
      "t": 261995.0219999989,
      "d": 361.10425000003306,
      "v": 95
    },
    {
      "midi": 68,
      "hit": false,
      "t": 261995.0219999989,
      "d": 361.10425000003306,
      "v": 89
    },
    {
      "midi": 37,
      "hit": false,
      "t": 261995.02199999994,
      "d": 668.3900781249977,
      "v": 88
    },
    {
      "midi": 68,
      "hit": false,
      "t": 261995.022,
      "d": 649.2932187499828,
      "v": 86
    },
    {
      "midi": 65,
      "hit": false,
      "t": 261995.02200000043,
      "d": 611.0994999999821,
      "v": 88
    },
    {
      "midi": 68,
      "hit": false,
      "t": 261995.02200000043,
      "d": 687.4869374999835,
      "v": 74
    },
    {
      "midi": 77,
      "hit": false,
      "t": 262050.5764999985,
      "d": 284.71681249997346,
      "v": 65
    },
    {
      "midi": 80,
      "hit": false,
      "t": 262328.34899999853,
      "d": 112.84507812501397,
      "v": 68
    },
    {
      "midi": 68,
      "hit": false,
      "t": 262383.9034999985,
      "d": 112.84507812501397,
      "v": 68
    },
    {
      "midi": 90,
      "hit": false,
      "t": 262661.6759999985,
      "d": 343.7434687499772,
      "v": 68
    },
    {
      "midi": 61,
      "hit": false,
      "t": 262661.67599999893,
      "d": 267.3560312499758,
      "v": 86
    },
    {
      "midi": 66,
      "hit": false,
      "t": 262661.67599999893,
      "d": 286.4528906249907,
      "v": 85
    },
    {
      "midi": 70,
      "hit": false,
      "t": 262661.67599999893,
      "d": 305.5497500000056,
      "v": 94
    },
    {
      "midi": 54,
      "hit": false,
      "t": 262661.67599999893,
      "d": 324.6466093750205,
      "v": 89
    },
    {
      "midi": 42,
      "hit": false,
      "t": 262661.6759999999,
      "d": 725.6806562500424,
      "v": 101
    },
    {
      "midi": 70,
      "hit": false,
      "t": 262661.676,
      "d": 687.4869374999544,
      "v": 95
    },
    {
      "midi": 66,
      "hit": false,
      "t": 262661.67600000044,
      "d": 708.3198749999865,
      "v": 80
    },
    {
      "midi": 70,
      "hit": false,
      "t": 262661.67600000044,
      "d": 744.7775156249991,
      "v": 95
    },
    {
      "midi": 78,
      "hit": false,
      "t": 262717.2304999985,
      "d": 343.7434687499772,
      "v": 68
    },
    {
      "midi": 82,
      "hit": false,
      "t": 262995.0029999985,
      "d": 133.6780156249879,
      "v": 64
    },
    {
      "midi": 70,
      "hit": false,
      "t": 263050.5574999985,
      "d": 133.6780156249879,
      "v": 64
    },
    {
      "midi": 92,
      "hit": false,
      "t": 263328.3299999985,
      "d": 305.5497500000056,
      "v": 72
    },
    {
      "midi": 56,
      "hit": false,
      "t": 263328.32999999897,
      "d": 284.71681249997346,
      "v": 67
    },
    {
      "midi": 72,
      "hit": false,
      "t": 263328.32999999897,
      "d": 284.71681249997346,
      "v": 85
    },
    {
      "midi": 63,
      "hit": false,
      "t": 263328.32999999897,
      "d": 305.5497499999474,
      "v": 68
    },
    {
      "midi": 68,
      "hit": false,
      "t": 263328.32999999897,
      "d": 324.6466093749623,
      "v": 82
    },
    {
      "midi": 44,
      "hit": false,
      "t": 263328.32999999996,
      "d": 668.3900781249977,
      "v": 101
    },
    {
      "midi": 72,
      "hit": false,
      "t": 263328.32999999996,
      "d": 725.6806562499842,
      "v": 89
    },
    {
      "midi": 63,
      "hit": false,
      "t": 263328.3300000004,
      "d": 477.4214843750233,
      "v": 64
    },
    {
      "midi": 72,
      "hit": false,
      "t": 263328.3300000004,
      "d": 670.1261562500149,
      "v": 66
    },
    {
      "midi": 68,
      "hit": false,
      "t": 263328.3300000004,
      "d": 1951.3518124999828,
      "v": 92
    },
    {
      "midi": 80,
      "hit": false,
      "t": 263383.8844999985,
      "d": 305.5497500000056,
      "v": 72
    },
    {
      "midi": 84,
      "hit": false,
      "t": 263661.6569999985,
      "d": 131.94193750002887,
      "v": 74
    },
    {
      "midi": 72,
      "hit": false,
      "t": 263717.21149999846,
      "d": 131.94193750002887,
      "v": 74
    },
    {
      "midi": 89,
      "hit": false,
      "t": 263994.98399999854,
      "d": 133.6780156249879,
      "v": 74
    },
    {
      "midi": 68,
      "hit": false,
      "t": 263994.98399999895,
      "d": 171.8717343750177,
      "v": 85
    },
    {
      "midi": 73,
      "hit": false,
      "t": 263994.98399999895,
      "d": 190.9685937500326,
      "v": 95
    },
    {
      "midi": 65,
      "hit": false,
      "t": 263994.98399999895,
      "d": 763.874375000014,
      "v": 97
    },
    {
      "midi": 49,
      "hit": false,
      "t": 263994.98399999895,
      "d": 782.9712343749707,
      "v": 92
    },
    {
      "midi": 37,
      "hit": false,
      "t": 263994.98399999994,
      "d": 1357.6130937500275,
      "v": 97
    },
    {
      "midi": 73,
      "hit": false,
      "t": 263994.98399999994,
      "d": 649.2932187499828,
      "v": 95
    },
    {
      "midi": 73,
      "hit": false,
      "t": 263994.98400000046,
      "d": 611.099499999953,
      "v": 80
    },
    {
      "midi": 65,
      "hit": false,
      "t": 263994.98400000046,
      "d": 1298.5864374999655,
      "v": 92
    },
    {
      "midi": 77,
      "hit": false,
      "t": 264050.5384999985,
      "d": 133.6780156249879,
      "v": 74
    },
    {
      "midi": 80,
      "hit": false,
      "t": 264328.31099999853,
      "d": 246.52309375000186,
      "v": 59
    },
    {
      "midi": 68,
      "hit": false,
      "t": 264383.8654999985,
      "d": 246.52309375000186,
      "v": 59
    },
    {
      "midi": 85,
      "hit": false,
      "t": 264661.6379999985,
      "d": 131.94193750002887,
      "v": 71
    },
    {
      "midi": 68,
      "hit": false,
      "t": 264661.637999999,
      "d": 112.84507812495576,
      "v": 77
    },
    {
      "midi": 68,
      "hit": false,
      "t": 264661.6379999999,
      "d": 687.4869374999544,
      "v": 94
    },
    {
      "midi": 61,
      "hit": false,
      "t": 264661.63800000044,
      "d": 496.51834374998,
      "v": 94
    },
    {
      "midi": 73,
      "hit": false,
      "t": 264717.1924999985,
      "d": 131.94193750002887,
      "v": 71
    },
    {
      "midi": 89,
      "hit": false,
      "t": 264994.96499999857,
      "d": 95.4842968750163,
      "v": 67
    },
    {
      "midi": 77,
      "hit": false,
      "t": 265050.51949999854,
      "d": 95.4842968750163,
      "v": 67
    },
    {
      "midi": 90,
      "hit": false,
      "t": 265328.29199999856,
      "d": 131.94193750002887,
      "v": 79
    },
    {
      "midi": 63,
      "hit": false,
      "t": 265328.2919999989,
      "d": 210.0654531249893,
      "v": 82
    },
    {
      "midi": 56,
      "hit": false,
      "t": 265328.2919999989,
      "d": 248.25917187496088,
      "v": 68
    },
    {
      "midi": 60,
      "hit": false,
      "t": 265328.2919999989,
      "d": 248.25917187496088,
      "v": 85
    },
    {
      "midi": 66,
      "hit": false,
      "t": 265328.2919999989,
      "d": 267.3560312499758,
      "v": 77
    },
    {
      "midi": 66,
      "hit": false,
      "t": 265328.2919999999,
      "d": 666.6539999999804,
      "v": 91
    },
    {
      "midi": 32,
      "hit": false,
      "t": 265328.29199999996,
      "d": 668.3900781249977,
      "v": 103
    },
    {
      "midi": 58,
      "hit": false,
      "t": 265328.2920000004,
      "d": 571.1697031250224,
      "v": 86
    },
    {
      "midi": 56,
      "hit": false,
      "t": 265328.2920000004,
      "d": 592.0026406249963,
      "v": 56
    },
    {
      "midi": 66,
      "hit": false,
      "t": 265328.2920000004,
      "d": 647.5571406250237,
      "v": 82
    },
    {
      "midi": 63,
      "hit": false,
      "t": 265328.2920000004,
      "d": 687.4869375000126,
      "v": 65
    },
    {
      "midi": 78,
      "hit": false,
      "t": 265383.84649999853,
      "d": 131.94193750002887,
      "v": 79
    },
    {
      "midi": 84,
      "hit": false,
      "t": 265661.6189999986,
      "d": 114.58115624997299,
      "v": 66
    },
    {
      "midi": 72,
      "hit": false,
      "t": 265717.1734999986,
      "d": 114.58115624997299,
      "v": 66
    },
    {
      "midi": 89,
      "hit": false,
      "t": 265994.9459999986,
      "d": 152.7748750000028,
      "v": 83
    },
    {
      "midi": 61,
      "hit": false,
      "t": 265994.9459999989,
      "d": 770.8186875000247,
      "v": 85
    },
    {
      "midi": 56,
      "hit": false,
      "t": 265994.9459999989,
      "d": 866.302984375041,
      "v": 71
    },
    {
      "midi": 65,
      "hit": false,
      "t": 265994.9459999989,
      "d": 866.302984375041,
      "v": 95
    },
    {
      "midi": 49,
      "hit": false,
      "t": 265994.9459999989,
      "d": 923.5935625000275,
      "v": 83
    },
    {
      "midi": 65,
      "hit": false,
      "t": 265994.9459999999,
      "d": 1184.0052812499925,
      "v": 103
    },
    {
      "midi": 37,
      "hit": false,
      "t": 265994.94599999994,
      "d": 1031.2304062499898,
      "v": 99
    },
    {
      "midi": 56,
      "hit": false,
      "t": 265994.94600000046,
      "d": 1243.0319374999963,
      "v": 70
    },
    {
      "midi": 61,
      "hit": false,
      "t": 265994.94600000046,
      "d": 1355.8770156250102,
      "v": 80
    },
    {
      "midi": 65,
      "hit": false,
      "t": 265994.94600000046,
      "d": 4069.3671249999898,
      "v": 94
    },
    {
      "midi": 77,
      "hit": false,
      "t": 266050.50049999857,
      "d": 152.7748750000028,
      "v": 83
    },
    {
      "midi": 80,
      "hit": false,
      "t": 266328.2729999986,
      "d": 305.5497500000056,
      "v": 60
    },
    {
      "midi": 68,
      "hit": false,
      "t": 266383.82749999856,
      "d": 305.5497500000056,
      "v": 60
    },
    {
      "midi": 85,
      "hit": false,
      "t": 266661.5999999986,
      "d": 305.5497500000056,
      "v": 64
    },
    {
      "midi": 73,
      "hit": false,
      "t": 266717.15449999855,
      "d": 305.5497500000056,
      "v": 64
    },
    {
      "midi": 89,
      "hit": false,
      "t": 266994.92699999857,
      "d": 133.6780156249879,
      "v": 58
    },
    {
      "midi": 77,
      "hit": false,
      "t": 267050.48149999854,
      "d": 133.6780156249879,
      "v": 58
    },
    {
      "midi": 87,
      "hit": false,
      "t": 267328.25399999856,
      "d": 343.7434687499772,
      "v": 30
    },
    {
      "midi": 44,
      "hit": false,
      "t": 267328.2539999989,
      "d": 229.1623125000042,
      "v": 77
    },
    {
      "midi": 65,
      "hit": false,
      "t": 267328.2539999989,
      "d": 284.71681250003166,
      "v": 103
    },
    {
      "midi": 60,
      "hit": false,
      "t": 267328.2539999989,
      "d": 361.10425000003306,
      "v": 103
    },
    {
      "midi": 54,
      "hit": false,
      "t": 267328.2539999989,
      "d": 458.3246250000666,
      "v": 86
    },
    {
      "midi": 32,
      "hit": false,
      "t": 267328.2539999999,
      "d": 725.6806562499842,
      "v": 95
    },
    {
      "midi": 65,
      "hit": false,
      "t": 267328.2539999999,
      "d": 342.00739062501816,
      "v": 109
    },
    {
      "midi": 54,
      "hit": false,
      "t": 267328.2540000005,
      "d": 590.266562499979,
      "v": 88
    },
    {
      "midi": 60,
      "hit": false,
      "t": 267328.2540000005,
      "d": 706.5837968749693,
      "v": 105
    },
    {
      "midi": 75,
      "hit": false,
      "t": 267383.80849999853,
      "d": 343.7434687499772,
      "v": 30
    },
    {
      "midi": 84,
      "hit": false,
      "t": 267661.58099999855,
      "d": 114.58115624997299,
      "v": 60
    },
    {
      "midi": 63,
      "hit": false,
      "t": 267661.58099999896,
      "d": 76.3874375000014,
      "v": 83
    },
    {
      "midi": 63,
      "hit": false,
      "t": 267661.5809999999,
      "d": 361.10425000003306,
      "v": 82
    },
    {
      "midi": 72,
      "hit": false,
      "t": 267717.1354999985,
      "d": 114.58115624997299,
      "v": 60
    },
    {
      "midi": 89,
      "hit": false,
      "t": 267994.90799999854,
      "d": 210.0654531249893,
      "v": 79
    },
    {
      "midi": 56,
      "hit": false,
      "t": 267994.90799999895,
      "d": 418.39482812496135,
      "v": 70
    },
    {
      "midi": 53,
      "hit": false,
      "t": 267994.90799999895,
      "d": 590.266562499979,
      "v": 79
    },
    {
      "midi": 61,
      "hit": false,
      "t": 267994.90799999895,
      "d": 993.03668749996,
      "v": 101
    },
    {
      "midi": 49,
      "hit": false,
      "t": 267994.90799999895,
      "d": 1682.2597031249898,
      "v": 94
    },
    {
      "midi": 37,
      "hit": false,
      "t": 267994.9079999999,
      "d": 1565.9424687499995,
      "v": 97
    },
    {
      "midi": 61,
      "hit": false,
      "t": 267994.90799999994,
      "d": 1012.1335468749749,
      "v": 99
    },
    {
      "midi": 61,
      "hit": false,
      "t": 267994.90800000046,
      "d": 1814.2016406249604,
      "v": 72
    },
    {
      "midi": 56,
      "hit": false,
      "t": 267994.90800000046,
      "d": 1833.2984999999753,
      "v": 82
    },
    {
      "midi": 77,
      "hit": false,
      "t": 268050.4624999985,
      "d": 210.0654531249893,
      "v": 79
    },
    {
      "midi": 80,
      "hit": false,
      "t": 268328.23499999853,
      "d": 189.23251562501537,
      "v": 67
    },
    {
      "midi": 68,
      "hit": false,
      "t": 268383.7894999985,
      "d": 189.23251562501537,
      "v": 67
    },
    {
      "midi": 85,
      "hit": false,
      "t": 268661.5619999985,
      "d": 152.7748750000028,
      "v": 58
    },
    {
      "midi": 73,
      "hit": false,
      "t": 268717.1164999985,
      "d": 152.7748750000028,
      "v": 58
    },
    {
      "midi": 87,
      "hit": false,
      "t": 268994.8889999985,
      "d": 171.8717343750177,
      "v": 53
    },
    {
      "midi": 63,
      "hit": false,
      "t": 268994.8889999989,
      "d": 326.3826874999795,
      "v": 85
    },
    {
      "midi": 63,
      "hit": false,
      "t": 268994.8889999999,
      "d": 343.7434687499772,
      "v": 83
    },
    {
      "midi": 75,
      "hit": false,
      "t": 269050.4434999985,
      "d": 171.8717343750177,
      "v": 53
    },
    {
      "midi": 89,
      "hit": false,
      "t": 269328.2159999985,
      "d": 248.2591718750191,
      "v": 61
    },
    {
      "midi": 65,
      "hit": false,
      "t": 269328.2159999989,
      "d": 324.6466093750205,
      "v": 94
    },
    {
      "midi": 65,
      "hit": false,
      "t": 269328.2159999999,
      "d": 343.7434687499772,
      "v": 107
    },
    {
      "midi": 77,
      "hit": false,
      "t": 269383.77049999847,
      "d": 248.2591718750191,
      "v": 61
    },
    {
      "midi": 85,
      "hit": false,
      "t": 269661.5429999985,
      "d": 133.6780156249879,
      "v": 64
    },
    {
      "midi": 66,
      "hit": false,
      "t": 269661.54299999896,
      "d": 131.94193749997066,
      "v": 89
    },
    {
      "midi": 37,
      "hit": false,
      "t": 269661.5429999999,
      "d": 324.6466093750205,
      "v": 94
    },
    {
      "midi": 66,
      "hit": false,
      "t": 269661.5429999999,
      "d": 362.8403281249921,
      "v": 80
    },
    {
      "midi": 73,
      "hit": false,
      "t": 269717.09749999846,
      "d": 133.6780156249879,
      "v": 64
    },
    {
      "midi": 87,
      "hit": false,
      "t": 269994.8699999985,
      "d": 171.8717343750177,
      "v": 66
    },
    {
      "midi": 60,
      "hit": false,
      "t": 269994.86999999895,
      "d": 687.4869375000126,
      "v": 99
    },
    {
      "midi": 63,
      "hit": false,
      "t": 269994.86999999895,
      "d": 920.121406249993,
      "v": 94
    },
    {
      "midi": 68,
      "hit": false,
      "t": 269994.86999999895,
      "d": 977.4119843749795,
      "v": 99
    },
    {
      "midi": 53,
      "hit": false,
      "t": 269994.86999999895,
      "d": 1760.3832187499502,
      "v": 95
    },
    {
      "midi": 68,
      "hit": false,
      "t": 269994.8699999999,
      "d": 1355.8770156250102,
      "v": 92
    },
    {
      "midi": 41,
      "hit": false,
      "t": 269994.86999999994,
      "d": 2043.3639531250228,
      "v": 95
    },
    {
      "midi": 60,
      "hit": false,
      "t": 269994.87000000046,
      "d": 1814.2016406250186,
      "v": 88
    },
    {
      "midi": 63,
      "hit": false,
      "t": 269994.87000000046,
      "d": 1854.1314375000075,
      "v": 71
    },
    {
      "midi": 68,
      "hit": false,
      "t": 269994.87000000046,
      "d": 1871.4922187500051,
      "v": 64
    },
    {
      "midi": 75,
      "hit": false,
      "t": 270050.42449999845,
      "d": 171.8717343750177,
      "v": 66
    },
    {
      "midi": 80,
      "hit": false,
      "t": 270328.1969999985,
      "d": 190.9685937499744,
      "v": 70
    },
    {
      "midi": 68,
      "hit": false,
      "t": 270383.75149999844,
      "d": 190.9685937499744,
      "v": 70
    },
    {
      "midi": 84,
      "hit": false,
      "t": 270661.52399999846,
      "d": 131.94193750002887,
      "v": 77
    },
    {
      "midi": 72,
      "hit": false,
      "t": 270717.07849999843,
      "d": 131.94193750002887,
      "v": 77
    },
    {
      "midi": 87,
      "hit": false,
      "t": 270994.8509999985,
      "d": 189.23251562501537,
      "v": 55
    },
    {
      "midi": 75,
      "hit": false,
      "t": 271050.4054999985,
      "d": 189.23251562501537,
      "v": 55
    },
    {
      "midi": 92,
      "hit": false,
      "t": 271328.1779999985,
      "d": 284.71681249997346,
      "v": 68
    },
    {
      "midi": 73,
      "hit": false,
      "t": 271328.1779999989,
      "d": 284.71681249997346,
      "v": 94
    },
    {
      "midi": 73,
      "hit": false,
      "t": 271328.1779999999,
      "d": 326.3826874999795,
      "v": 103
    },
    {
      "midi": 80,
      "hit": false,
      "t": 271383.73249999847,
      "d": 284.71681249997346,
      "v": 68
    },
    {
      "midi": 84,
      "hit": false,
      "t": 271661.5049999985,
      "d": 114.58115624997299,
      "v": 74
    },
    {
      "midi": 72,
      "hit": false,
      "t": 271661.5049999989,
      "d": 95.4842968750163,
      "v": 89
    },
    {
      "midi": 72,
      "hit": false,
      "t": 271661.5049999999,
      "d": 343.7434687499772,
      "v": 92
    },
    {
      "midi": 72,
      "hit": false,
      "t": 271717.05949999846,
      "d": 114.58115624997299,
      "v": 74
    },
    {
      "midi": 90,
      "hit": false,
      "t": 271994.8319999985,
      "d": 190.9685937499744,
      "v": 66
    },
    {
      "midi": 68,
      "hit": false,
      "t": 271994.8319999989,
      "d": 687.4869374999544,
      "v": 101
    },
    {
      "midi": 70,
      "hit": false,
      "t": 271994.8319999989,
      "d": 1013.8696249999339,
      "v": 94
    },
    {
      "midi": 61,
      "hit": false,
      "t": 271994.8319999989,
      "d": 1451.3613124999101,
      "v": 83
    },
    {
      "midi": 54,
      "hit": false,
      "t": 271994.8319999989,
      "d": 1470.458171874925,
      "v": 83
    },
    {
      "midi": 70,
      "hit": false,
      "t": 271994.8319999999,
      "d": 1241.295859374979,
      "v": 95
    },
    {
      "midi": 30,
      "hit": false,
      "t": 271994.83199999994,
      "d": 1279.4895781250088,
      "v": 101
    },
    {
      "midi": 68,
      "hit": false,
      "t": 271994.83200000046,
      "d": 687.4869374999544,
      "v": 70
    },
    {
      "midi": 70,
      "hit": false,
      "t": 271994.83200000046,
      "d": 1947.8796562499483,
      "v": 77
    },
    {
      "midi": 61,
      "hit": false,
      "t": 271994.83200000046,
      "d": 3897.495390624972,
      "v": 74
    },
    {
      "midi": 78,
      "hit": false,
      "t": 272050.38649999845,
      "d": 190.9685937499744,
      "v": 66
    },
    {
      "midi": 82,
      "hit": false,
      "t": 272328.1589999985,
      "d": 229.1623125000042,
      "v": 62
    },
    {
      "midi": 70,
      "hit": false,
      "t": 272383.71349999844,
      "d": 229.1623125000042,
      "v": 62
    },
    {
      "midi": 85,
      "hit": false,
      "t": 272661.48599999846,
      "d": 189.23251562501537,
      "v": 64
    },
    {
      "midi": 66,
      "hit": false,
      "t": 272661.48599999887,
      "d": 362.8403281249339,
      "v": 77
    },
    {
      "midi": 66,
      "hit": false,
      "t": 272661.48600000044,
      "d": 2006.906312499952,
      "v": 86
    },
    {
      "midi": 73,
      "hit": false,
      "t": 272717.04049999843,
      "d": 189.23251562501537,
      "v": 64
    },
    {
      "midi": 90,
      "hit": false,
      "t": 272994.81299999845,
      "d": 190.9685937499744,
      "v": 75
    },
    {
      "midi": 78,
      "hit": false,
      "t": 273050.3674999984,
      "d": 190.9685937499744,
      "v": 75
    },
    {
      "midi": 82,
      "hit": false,
      "t": 273328.13999999844,
      "d": 229.1623125000042,
      "v": 71
    },
    {
      "midi": 70,
      "hit": false,
      "t": 273328.1399999988,
      "d": 95.4842968750163,
      "v": 94
    },
    {
      "midi": 66,
      "hit": false,
      "t": 273328.1399999988,
      "d": 131.94193750002887,
      "v": 85
    },
    {
      "midi": 70,
      "hit": false,
      "t": 273328.13999999984,
      "d": 670.1261562499567,
      "v": 95
    },
    {
      "midi": 30,
      "hit": false,
      "t": 273328.13999999996,
      "d": 668.3900781249977,
      "v": 99
    },
    {
      "midi": 70,
      "hit": false,
      "t": 273383.6944999984,
      "d": 229.1623125000042,
      "v": 71
    },
    {
      "midi": 85,
      "hit": false,
      "t": 273661.46699999843,
      "d": 157.98310937499627,
      "v": 58
    },
    {
      "midi": 73,
      "hit": false,
      "t": 273717.0214999984,
      "d": 157.98310937499627,
      "v": 58
    },
    {
      "midi": 89,
      "hit": false,
      "t": 273994.7939999984,
      "d": 305.5497500000056,
      "v": 75
    },
    {
      "midi": 66,
      "hit": false,
      "t": 273994.79399999883,
      "d": 706.5837968749693,
      "v": 92
    },
    {
      "midi": 49,
      "hit": false,
      "t": 273994.79399999883,
      "d": 1432.2644531249534,
      "v": 80
    },
    {
      "midi": 61,
      "hit": false,
      "t": 273994.79399999883,
      "d": 1432.2644531249534,
      "v": 83
    },
    {
      "midi": 68,
      "hit": false,
      "t": 273994.79399999883,
      "d": 1472.1942499999423,
      "v": 91
    },
    {
      "midi": 68,
      "hit": false,
      "t": 273994.7939999998,
      "d": 1814.2016406249604,
      "v": 99
    },
    {
      "midi": 37,
      "hit": false,
      "t": 273994.79399999994,
      "d": 1338.5162343750126,
      "v": 107
    },
    {
      "midi": 68,
      "hit": false,
      "t": 273994.7940000004,
      "d": 1909.685937500035,
      "v": 85
    },
    {
      "midi": 77,
      "hit": false,
      "t": 274050.3484999984,
      "d": 305.5497500000056,
      "v": 75
    },
    {
      "midi": 80,
      "hit": false,
      "t": 274328.1209999984,
      "d": 152.7748750000028,
      "v": 66
    },
    {
      "midi": 68,
      "hit": false,
      "t": 274383.6754999984,
      "d": 152.7748750000028,
      "v": 66
    },
    {
      "midi": 85,
      "hit": false,
      "t": 274661.4479999984,
      "d": 131.94193750002887,
      "v": 65
    },
    {
      "midi": 65,
      "hit": false,
      "t": 274661.4479999988,
      "d": 496.51834374998,
      "v": 86
    },
    {
      "midi": 65,
      "hit": false,
      "t": 274661.4480000004,
      "d": 1222.1990000000224,
      "v": 92
    },
    {
      "midi": 73,
      "hit": false,
      "t": 274717.0024999984,
      "d": 131.94193750002887,
      "v": 65
    },
    {
      "midi": 87,
      "hit": false,
      "t": 274994.77499999845,
      "d": 229.1623125000042,
      "v": 58
    },
    {
      "midi": 75,
      "hit": false,
      "t": 275050.3294999984,
      "d": 229.1623125000042,
      "v": 58
    },
    {
      "midi": 89,
      "hit": false,
      "t": 275328.10199999844,
      "d": 265.61995312501676,
      "v": 67
    },
    {
      "midi": 63,
      "hit": false,
      "t": 275328.1019999988,
      "d": 114.58115624997299,
      "v": 74
    },
    {
      "midi": 36,
      "hit": false,
      "t": 275328.10199999996,
      "d": 687.4869374999544,
      "v": 103
    },
    {
      "midi": 77,
      "hit": false,
      "t": 275383.6564999984,
      "d": 265.61995312501676,
      "v": 67
    },
    {
      "midi": 85,
      "hit": false,
      "t": 275661.42899999843,
      "d": 76.3874375000014,
      "v": 54
    },
    {
      "midi": 73,
      "hit": false,
      "t": 275716.9834999984,
      "d": 76.3874375000014,
      "v": 54
    },
    {
      "midi": 89,
      "hit": false,
      "t": 275994.7559999984,
      "d": 267.3560312499758,
      "v": 67
    },
    {
      "midi": 73,
      "hit": false,
      "t": 275994.7559999988,
      "d": 229.1623125000042,
      "v": 103
    },
    {
      "midi": 65,
      "hit": false,
      "t": 275994.7559999988,
      "d": 286.4528906249907,
      "v": 103
    },
    {
      "midi": 70,
      "hit": false,
      "t": 275994.7559999988,
      "d": 286.4528906249907,
      "v": 95
    },
    {
      "midi": 58,
      "hit": false,
      "t": 275994.7559999988,
      "d": 420.1309062499786,
      "v": 97
    },
    {
      "midi": 73,
      "hit": false,
      "t": 275994.75599999976,
      "d": 666.6539999999804,
      "v": 99
    },
    {
      "midi": 34,
      "hit": false,
      "t": 275994.75599999994,
      "d": 668.3900781249977,
      "v": 97
    },
    {
      "midi": 61,
      "hit": false,
      "t": 275994.75600000046,
      "d": 572.9057812499814,
      "v": 79
    },
    {
      "midi": 58,
      "hit": false,
      "t": 275994.75600000046,
      "d": 590.266562499979,
      "v": 80
    },
    {
      "midi": 65,
      "hit": false,
      "t": 275994.75600000046,
      "d": 708.3198749999865,
      "v": 91
    },
    {
      "midi": 77,
      "hit": false,
      "t": 276050.3104999984,
      "d": 267.3560312499758,
      "v": 67
    },
    {
      "midi": 82,
      "hit": false,
      "t": 276328.0829999984,
      "d": 190.9685937499744,
      "v": 70
    },
    {
      "midi": 70,
      "hit": false,
      "t": 276383.6374999984,
      "d": 190.9685937499744,
      "v": 70
    },
    {
      "midi": 87,
      "hit": false,
      "t": 276661.4099999984,
      "d": 324.6466093750205,
      "v": 60
    },
    {
      "midi": 68,
      "hit": false,
      "t": 276661.40999999875,
      "d": 229.1623125000042,
      "v": 95
    },
    {
      "midi": 56,
      "hit": false,
      "t": 276661.40999999875,
      "d": 248.2591718750191,
      "v": 77
    },
    {
      "midi": 72,
      "hit": false,
      "t": 276661.40999999875,
      "d": 248.2591718750191,
      "v": 92
    },
    {
      "midi": 63,
      "hit": false,
      "t": 276661.40999999875,
      "d": 324.6466093750205,
      "v": 72
    },
    {
      "midi": 72,
      "hit": false,
      "t": 276661.40999999974,
      "d": 725.6806562499842,
      "v": 97
    },
    {
      "midi": 32,
      "hit": false,
      "t": 276661.4099999999,
      "d": 687.4869375000126,
      "v": 88
    },
    {
      "midi": 60,
      "hit": false,
      "t": 276661.41000000044,
      "d": 439.2277656249935,
      "v": 86
    },
    {
      "midi": 56,
      "hit": false,
      "t": 276661.41000000044,
      "d": 572.9057812499814,
      "v": 68
    },
    {
      "midi": 63,
      "hit": false,
      "t": 276661.41000000044,
      "d": 687.4869374999544,
      "v": 80
    },
    {
      "midi": 75,
      "hit": false,
      "t": 276716.9644999984,
      "d": 324.6466093750205,
      "v": 60
    },
    {
      "midi": 84,
      "hit": false,
      "t": 276994.73699999845,
      "d": 152.7748750000028,
      "v": 74
    },
    {
      "midi": 72,
      "hit": false,
      "t": 277050.2914999984,
      "d": 152.7748750000028,
      "v": 74
    },
    {
      "midi": 90,
      "hit": false,
      "t": 277328.06399999844,
      "d": 305.5497500000056,
      "v": 56
    },
    {
      "midi": 66,
      "hit": false,
      "t": 277328.0639999988,
      "d": 265.61995312501676,
      "v": 92
    },
    {
      "midi": 54,
      "hit": false,
      "t": 277328.0639999988,
      "d": 286.4528906249907,
      "v": 89
    },
    {
      "midi": 70,
      "hit": false,
      "t": 277328.0639999988,
      "d": 305.5497500000056,
      "v": 91
    },
    {
      "midi": 61,
      "hit": false,
      "t": 277328.0639999988,
      "d": 342.00739062501816,
      "v": 85
    },
    {
      "midi": 70,
      "hit": false,
      "t": 277328.0639999997,
      "d": 649.2932187499828,
      "v": 97
    },
    {
      "midi": 30,
      "hit": false,
      "t": 277328.06399999995,
      "d": 687.4869374999544,
      "v": 91
    },
    {
      "midi": 58,
      "hit": false,
      "t": 277328.0640000004,
      "d": 513.8791249999776,
      "v": 77
    },
    {
      "midi": 66,
      "hit": false,
      "t": 277328.0640000004,
      "d": 666.6539999999804,
      "v": 79
    },
    {
      "midi": 61,
      "hit": false,
      "t": 277328.0640000004,
      "d": 1833.2984999999753,
      "v": 83
    },
    {
      "midi": 78,
      "hit": false,
      "t": 277383.6184999984,
      "d": 305.5497500000056,
      "v": 56
    },
    {
      "midi": 85,
      "hit": false,
      "t": 277661.39099999843,
      "d": 171.8717343750177,
      "v": 67
    },
    {
      "midi": 73,
      "hit": false,
      "t": 277716.9454999984,
      "d": 171.8717343750177,
      "v": 67
    },
    {
      "midi": 89,
      "hit": false,
      "t": 277994.7179999984,
      "d": 152.7748750000028,
      "v": 56
    },
    {
      "midi": 49,
      "hit": false,
      "t": 277994.71799999883,
      "d": 248.2591718750191,
      "v": 88
    },
    {
      "midi": 61,
      "hit": false,
      "t": 277994.71799999883,
      "d": 248.2591718750191,
      "v": 77
    },
    {
      "midi": 65,
      "hit": false,
      "t": 277994.71799999883,
      "d": 267.356031250034,
      "v": 95
    },
    {
      "midi": 68,
      "hit": false,
      "t": 277994.71799999883,
      "d": 267.356031250034,
      "v": 86
    },
    {
      "midi": 68,
      "hit": false,
      "t": 277994.7179999997,
      "d": 706.5837968749693,
      "v": 103
    },
    {
      "midi": 37,
      "hit": false,
      "t": 277994.71799999994,
      "d": 631.9324374999851,
      "v": 97
    },
    {
      "midi": 65,
      "hit": false,
      "t": 277994.7180000004,
      "d": 631.9324374999851,
      "v": 105
    },
    {
      "midi": 68,
      "hit": false,
      "t": 277994.7180000004,
      "d": 725.6806562499842,
      "v": 71
    },
    {
      "midi": 77,
      "hit": false,
      "t": 278050.2724999984,
      "d": 152.7748750000028,
      "v": 56
    },
    {
      "midi": 85,
      "hit": false,
      "t": 278328.0449999984,
      "d": 93.74821874999907,
      "v": 77
    },
    {
      "midi": 73,
      "hit": false,
      "t": 278383.5994999984,
      "d": 93.74821874999907,
      "v": 77
    },
    {
      "midi": 90,
      "hit": false,
      "t": 278661.3719999984,
      "d": 190.9685937499744,
      "v": 80
    },
    {
      "midi": 61,
      "hit": false,
      "t": 278661.37199999887,
      "d": 286.4528906249907,
      "v": 85
    },
    {
      "midi": 70,
      "hit": false,
      "t": 278661.37199999887,
      "d": 286.4528906249907,
      "v": 83
    },
    {
      "midi": 66,
      "hit": false,
      "t": 278661.37199999887,
      "d": 324.6466093749623,
      "v": 83
    },
    {
      "midi": 54,
      "hit": false,
      "t": 278661.37199999887,
      "d": 343.7434687499772,
      "v": 95
    },
    {
      "midi": 70,
      "hit": false,
      "t": 278661.3719999997,
      "d": 687.4869374999544,
      "v": 97
    },
    {
      "midi": 30,
      "hit": false,
      "t": 278661.3719999999,
      "d": 690.9590937499888,
      "v": 89
    },
    {
      "midi": 70,
      "hit": false,
      "t": 278661.3720000004,
      "d": 706.5837968750275,
      "v": 82
    },
    {
      "midi": 66,
      "hit": false,
      "t": 278661.3720000004,
      "d": 1241.295859374979,
      "v": 70
    },
    {
      "midi": 78,
      "hit": false,
      "t": 278716.9264999984,
      "d": 190.9685937499744,
      "v": 80
    },
    {
      "midi": 85,
      "hit": false,
      "t": 278994.6989999984,
      "d": 152.7748750000028,
      "v": 58
    },
    {
      "midi": 73,
      "hit": false,
      "t": 279050.25349999836,
      "d": 152.7748750000028,
      "v": 58
    },
    {
      "midi": 87,
      "hit": false,
      "t": 279328.0259999984,
      "d": 131.94193750002887,
      "v": 57
    },
    {
      "midi": 56,
      "hit": false,
      "t": 279328.02599999885,
      "d": 229.1623125000042,
      "v": 85
    },
    {
      "midi": 66,
      "hit": false,
      "t": 279328.02599999885,
      "d": 248.2591718750191,
      "v": 89
    },
    {
      "midi": 63,
      "hit": false,
      "t": 279328.02599999885,
      "d": 265.61995312501676,
      "v": 71
    },
    {
      "midi": 72,
      "hit": false,
      "t": 279328.02599999885,
      "d": 265.61995312501676,
      "v": 86
    },
    {
      "midi": 72,
      "hit": false,
      "t": 279328.02599999966,
      "d": 666.6539999999804,
      "v": 94
    },
    {
      "midi": 32,
      "hit": false,
      "t": 279328.0259999999,
      "d": 687.4869374999544,
      "v": 94
    },
    {
      "midi": 63,
      "hit": false,
      "t": 279328.0260000004,
      "d": 553.8089218749665,
      "v": 66
    },
    {
      "midi": 72,
      "hit": false,
      "t": 279328.0260000004,
      "d": 744.7775156249409,
      "v": 75
    },
    {
      "midi": 75,
      "hit": false,
      "t": 279383.58049999835,
      "d": 131.94193750002887,
      "v": 57
    },
    {
      "midi": 84,
      "hit": false,
      "t": 279661.35299999843,
      "d": 171.8717343750177,
      "v": 49
    },
    {
      "midi": 72,
      "hit": false,
      "t": 279716.9074999984,
      "d": 171.8717343750177,
      "v": 49
    },
    {
      "midi": 89,
      "hit": false,
      "t": 279994.6799999984,
      "d": 248.2591718750191,
      "v": 66
    },
    {
      "midi": 68,
      "hit": false,
      "t": 279994.6799999989,
      "d": 229.1623125000042,
      "v": 86
    },
    {
      "midi": 73,
      "hit": false,
      "t": 279994.6799999989,
      "d": 229.1623125000042,
      "v": 99
    },
    {
      "midi": 49,
      "hit": false,
      "t": 279994.6799999989,
      "d": 729.1528124999604,
      "v": 89
    },
    {
      "midi": 65,
      "hit": false,
      "t": 279994.6799999989,
      "d": 749.9857499999343,
      "v": 94
    },
    {
      "midi": 73,
      "hit": false,
      "t": 279994.67999999964,
      "d": 687.4869374999544,
      "v": 97
    },
    {
      "midi": 37,
      "hit": false,
      "t": 279994.6799999999,
      "d": 1338.5162343749544,
      "v": 97
    },
    {
      "midi": 68,
      "hit": false,
      "t": 279994.68000000034,
      "d": 343.7434687500354,
      "v": 57
    },
    {
      "midi": 73,
      "hit": false,
      "t": 279994.68000000034,
      "d": 687.4869375000126,
      "v": 80
    },
    {
      "midi": 65,
      "hit": false,
      "t": 279994.68000000034,
      "d": 1048.5911874999874,
      "v": 79
    },
    {
      "midi": 77,
      "hit": false,
      "t": 280050.2344999984,
      "d": 248.2591718750191,
      "v": 66
    },
    {
      "midi": 80,
      "hit": false,
      "t": 280328.0069999984,
      "d": 171.8717343750177,
      "v": 59
    },
    {
      "midi": 68,
      "hit": false,
      "t": 280383.5614999984,
      "d": 171.8717343750177,
      "v": 59
    },
    {
      "midi": 85,
      "hit": false,
      "t": 280661.3339999984,
      "d": 152.7748750000028,
      "v": 59
    },
    {
      "midi": 68,
      "hit": false,
      "t": 280661.33399999887,
      "d": 131.94193749997066,
      "v": 85
    },
    {
      "midi": 68,
      "hit": false,
      "t": 280661.3339999996,
      "d": 706.5837968749693,
      "v": 92
    },
    {
      "midi": 68,
      "hit": false,
      "t": 280661.3340000004,
      "d": 649.2932187499246,
      "v": 91
    },
    {
      "midi": 73,
      "hit": false,
      "t": 280716.8884999984,
      "d": 152.7748750000028,
      "v": 59
    },
    {
      "midi": 89,
      "hit": false,
      "t": 280994.6609999984,
      "d": 133.6780156249879,
      "v": 72
    },
    {
      "midi": 77,
      "hit": false,
      "t": 281050.21549999836,
      "d": 133.6780156249879,
      "v": 72
    },
    {
      "midi": 90,
      "hit": false,
      "t": 281327.9879999984,
      "d": 284.71681249997346,
      "v": 62
    },
    {
      "midi": 54,
      "hit": false,
      "t": 281327.98799999885,
      "d": 208.32937499997206,
      "v": 79
    },
    {
      "midi": 66,
      "hit": false,
      "t": 281327.98799999885,
      "d": 248.25917187496088,
      "v": 92
    },
    {
      "midi": 58,
      "hit": false,
      "t": 281327.98799999885,
      "d": 284.71681249997346,
      "v": 83
    },
    {
      "midi": 61,
      "hit": false,
      "t": 281327.98799999885,
      "d": 305.5497499999474,
      "v": 99
    },
    {
      "midi": 66,
      "hit": false,
      "t": 281327.9879999996,
      "d": 630.1963593749679,
      "v": 82
    },
    {
      "midi": 32,
      "hit": false,
      "t": 281327.98799999984,
      "d": 687.4869374999544,
      "v": 91
    },
    {
      "midi": 58,
      "hit": false,
      "t": 281327.9880000003,
      "d": 553.8089218750247,
      "v": 85
    },
    {
      "midi": 66,
      "hit": false,
      "t": 281327.9880000003,
      "d": 670.1261562500149,
      "v": 82
    },
    {
      "midi": 61,
      "hit": false,
      "t": 281327.9880000003,
      "d": 2520.785437500046,
      "v": 65
    },
    {
      "midi": 78,
      "hit": false,
      "t": 281383.54249999835,
      "d": 284.71681249997346,
      "v": 62
    },
    {
      "midi": 82,
      "hit": false,
      "t": 281661.3149999984,
      "d": 112.84507812501397,
      "v": 60
    },
    {
      "midi": 70,
      "hit": false,
      "t": 281716.86949999834,
      "d": 112.84507812501397,
      "v": 60
    },
    {
      "midi": 89,
      "hit": false,
      "t": 281994.64199999836,
      "d": 170.13565625000047,
      "v": 75
    },
    {
      "midi": 65,
      "hit": false,
      "t": 281994.64199999877,
      "d": 1720.4534218750196,
      "v": 103
    },
    {
      "midi": 61,
      "hit": false,
      "t": 281994.64199999877,
      "d": 1737.8142031250172,
      "v": 97
    },
    {
      "midi": 56,
      "hit": false,
      "t": 281994.64199999877,
      "d": 1756.9110625000321,
      "v": 79
    },
    {
      "midi": 49,
      "hit": false,
      "t": 281994.64199999877,
      "d": 1796.840859375021,
      "v": 82
    },
    {
      "midi": 65,
      "hit": false,
      "t": 281994.6419999996,
      "d": 1413.1675937499967,
      "v": 97
    },
    {
      "midi": 37,
      "hit": false,
      "t": 281994.6419999998,
      "d": 1814.2016406249604,
      "v": 99
    },
    {
      "midi": 56,
      "hit": false,
      "t": 281994.64200000034,
      "d": 1852.3953593749902,
      "v": 57
    },
    {
      "midi": 65,
      "hit": false,
      "t": 281994.64200000034,
      "d": 1852.3953593749902,
      "v": 99
    },
    {
      "midi": 77,
      "hit": false,
      "t": 282050.19649999833,
      "d": 170.13565625000047,
      "v": 75
    },
    {
      "midi": 80,
      "hit": false,
      "t": 282327.96899999835,
      "d": 267.3560312499758,
      "v": 65
    },
    {
      "midi": 68,
      "hit": false,
      "t": 282383.5234999983,
      "d": 267.3560312499758,
      "v": 65
    },
    {
      "midi": 85,
      "hit": false,
      "t": 282661.29599999834,
      "d": 114.58115624997299,
      "v": 60
    },
    {
      "midi": 73,
      "hit": false,
      "t": 282716.8504999983,
      "d": 114.58115624997299,
      "v": 60
    },
    {
      "midi": 89,
      "hit": false,
      "t": 282994.62299999833,
      "d": 171.8717343750177,
      "v": 66
    },
    {
      "midi": 77,
      "hit": false,
      "t": 283050.1774999983,
      "d": 171.8717343750177,
      "v": 66
    },
    {
      "midi": 92,
      "hit": false,
      "t": 283327.9499999983,
      "d": 133.6780156249879,
      "v": 60
    },
    {
      "midi": 80,
      "hit": false,
      "t": 283383.5044999983,
      "d": 133.6780156249879,
      "v": 60
    },
    {
      "midi": 85,
      "hit": false,
      "t": 283661.2769999983,
      "d": 95.4842968750163,
      "v": 82
    },
    {
      "midi": 73,
      "hit": false,
      "t": 283716.8314999983,
      "d": 95.4842968750163,
      "v": 82
    },
    {
      "midi": 89,
      "hit": false,
      "t": 283994.6039999983,
      "d": 267.3560312499758,
      "v": 67
    },
    {
      "midi": 73,
      "hit": false,
      "t": 283994.60399999877,
      "d": 229.1623125000042,
      "v": 103
    },
    {
      "midi": 65,
      "hit": false,
      "t": 283994.60399999877,
      "d": 286.4528906249907,
      "v": 103
    },
    {
      "midi": 70,
      "hit": false,
      "t": 283994.60399999877,
      "d": 286.4528906249907,
      "v": 95
    },
    {
      "midi": 58,
      "hit": false,
      "t": 283994.60399999877,
      "d": 420.1309062499786,
      "v": 97
    },
    {
      "midi": 34,
      "hit": false,
      "t": 283994.60399999976,
      "d": 668.3900781249977,
      "v": 97
    },
    {
      "midi": 61,
      "hit": false,
      "t": 283994.60400000034,
      "d": 572.9057812499814,
      "v": 79
    },
    {
      "midi": 58,
      "hit": false,
      "t": 283994.60400000034,
      "d": 590.266562499979,
      "v": 80
    },
    {
      "midi": 85,
      "hit": false,
      "t": 283994.60400000034,
      "d": 706.5837968749693,
      "v": 109
    },
    {
      "midi": 65,
      "hit": false,
      "t": 283994.60400000034,
      "d": 708.3198749999865,
      "v": 91
    },
    {
      "midi": 77,
      "hit": false,
      "t": 284050.1584999983,
      "d": 267.3560312499758,
      "v": 67
    },
    {
      "midi": 82,
      "hit": false,
      "t": 284327.9309999983,
      "d": 190.9685937499744,
      "v": 70
    },
    {
      "midi": 70,
      "hit": false,
      "t": 284383.48549999826,
      "d": 190.9685937499744,
      "v": 70
    },
    {
      "midi": 87,
      "hit": false,
      "t": 284661.2579999983,
      "d": 324.6466093750205,
      "v": 60
    },
    {
      "midi": 68,
      "hit": false,
      "t": 284661.25799999875,
      "d": 229.1623125000042,
      "v": 95
    },
    {
      "midi": 56,
      "hit": false,
      "t": 284661.25799999875,
      "d": 248.2591718750191,
      "v": 77
    },
    {
      "midi": 72,
      "hit": false,
      "t": 284661.25799999875,
      "d": 248.2591718750191,
      "v": 92
    },
    {
      "midi": 63,
      "hit": false,
      "t": 284661.25799999875,
      "d": 324.6466093750205,
      "v": 72
    },
    {
      "midi": 32,
      "hit": false,
      "t": 284661.25799999974,
      "d": 687.4869375000126,
      "v": 88
    },
    {
      "midi": 60,
      "hit": false,
      "t": 284661.2580000003,
      "d": 439.2277656249935,
      "v": 86
    },
    {
      "midi": 56,
      "hit": false,
      "t": 284661.2580000003,
      "d": 572.9057812499814,
      "v": 68
    },
    {
      "midi": 63,
      "hit": false,
      "t": 284661.2580000003,
      "d": 687.4869374999544,
      "v": 80
    },
    {
      "midi": 84,
      "hit": false,
      "t": 284661.2580000003,
      "d": 725.680656249926,
      "v": 105
    },
    {
      "midi": 75,
      "hit": false,
      "t": 284716.81249999825,
      "d": 324.6466093750205,
      "v": 60
    },
    {
      "midi": 84,
      "hit": false,
      "t": 284994.58499999833,
      "d": 152.7748750000028,
      "v": 74
    },
    {
      "midi": 72,
      "hit": false,
      "t": 285050.1394999983,
      "d": 152.7748750000028,
      "v": 74
    },
    {
      "midi": 90,
      "hit": false,
      "t": 285327.9119999983,
      "d": 305.5497500000056,
      "v": 56
    },
    {
      "midi": 66,
      "hit": false,
      "t": 285327.9119999988,
      "d": 265.61995312501676,
      "v": 92
    },
    {
      "midi": 54,
      "hit": false,
      "t": 285327.9119999988,
      "d": 286.4528906249907,
      "v": 89
    },
    {
      "midi": 70,
      "hit": false,
      "t": 285327.9119999988,
      "d": 305.5497500000056,
      "v": 91
    },
    {
      "midi": 61,
      "hit": false,
      "t": 285327.9119999988,
      "d": 342.00739062501816,
      "v": 85
    },
    {
      "midi": 30,
      "hit": false,
      "t": 285327.9119999998,
      "d": 687.4869374999544,
      "v": 91
    },
    {
      "midi": 58,
      "hit": false,
      "t": 285327.9120000003,
      "d": 513.8791249999194,
      "v": 77
    },
    {
      "midi": 66,
      "hit": false,
      "t": 285327.9120000003,
      "d": 666.6539999999222,
      "v": 79
    },
    {
      "midi": 82,
      "hit": false,
      "t": 285327.9120000003,
      "d": 668.3900781249395,
      "v": 107
    },
    {
      "midi": 61,
      "hit": false,
      "t": 285327.9120000003,
      "d": 1833.2984999999753,
      "v": 83
    },
    {
      "midi": 78,
      "hit": false,
      "t": 285383.4664999983,
      "d": 305.5497500000056,
      "v": 56
    },
    {
      "midi": 85,
      "hit": false,
      "t": 285661.2389999983,
      "d": 171.8717343750177,
      "v": 67
    },
    {
      "midi": 73,
      "hit": false,
      "t": 285716.7934999983,
      "d": 171.8717343750177,
      "v": 67
    },
    {
      "midi": 89,
      "hit": false,
      "t": 285994.5659999983,
      "d": 152.7748750000028,
      "v": 56
    },
    {
      "midi": 49,
      "hit": false,
      "t": 285994.5659999988,
      "d": 248.2591718750191,
      "v": 88
    },
    {
      "midi": 61,
      "hit": false,
      "t": 285994.5659999988,
      "d": 248.2591718750191,
      "v": 77
    },
    {
      "midi": 65,
      "hit": false,
      "t": 285994.5659999988,
      "d": 267.356031250034,
      "v": 95
    },
    {
      "midi": 68,
      "hit": false,
      "t": 285994.5659999988,
      "d": 267.356031250034,
      "v": 86
    },
    {
      "midi": 37,
      "hit": false,
      "t": 285994.56599999976,
      "d": 631.9324374999851,
      "v": 97
    },
    {
      "midi": 65,
      "hit": false,
      "t": 285994.5660000002,
      "d": 631.9324375000433,
      "v": 105
    },
    {
      "midi": 68,
      "hit": false,
      "t": 285994.5660000002,
      "d": 725.6806562500424,
      "v": 71
    },
    {
      "midi": 80,
      "hit": false,
      "t": 285994.5660000002,
      "d": 725.6806562500424,
      "v": 101
    },
    {
      "midi": 77,
      "hit": false,
      "t": 286050.1204999983,
      "d": 152.7748750000028,
      "v": 56
    },
    {
      "midi": 85,
      "hit": false,
      "t": 286327.8929999983,
      "d": 93.74821874999907,
      "v": 77
    },
    {
      "midi": 73,
      "hit": false,
      "t": 286383.44749999826,
      "d": 93.74821874999907,
      "v": 77
    },
    {
      "midi": 90,
      "hit": false,
      "t": 286661.2199999983,
      "d": 190.9685937499744,
      "v": 80
    },
    {
      "midi": 61,
      "hit": false,
      "t": 286661.21999999887,
      "d": 286.4528906249907,
      "v": 85
    },
    {
      "midi": 70,
      "hit": false,
      "t": 286661.21999999887,
      "d": 286.4528906249907,
      "v": 83
    },
    {
      "midi": 66,
      "hit": false,
      "t": 286661.21999999887,
      "d": 324.6466093749623,
      "v": 83
    },
    {
      "midi": 54,
      "hit": false,
      "t": 286661.21999999887,
      "d": 343.7434687499772,
      "v": 95
    },
    {
      "midi": 30,
      "hit": false,
      "t": 286661.21999999974,
      "d": 690.9590937499888,
      "v": 89
    },
    {
      "midi": 82,
      "hit": false,
      "t": 286661.22000000026,
      "d": 687.4869375000126,
      "v": 109
    },
    {
      "midi": 70,
      "hit": false,
      "t": 286661.22000000026,
      "d": 706.5837968750275,
      "v": 82
    },
    {
      "midi": 66,
      "hit": false,
      "t": 286661.22000000026,
      "d": 1241.295859374979,
      "v": 70
    },
    {
      "midi": 78,
      "hit": false,
      "t": 286716.77449999825,
      "d": 190.9685937499744,
      "v": 80
    },
    {
      "midi": 85,
      "hit": false,
      "t": 286994.5469999983,
      "d": 152.7748750000028,
      "v": 58
    },
    {
      "midi": 73,
      "hit": false,
      "t": 287050.10149999824,
      "d": 152.7748750000028,
      "v": 58
    },
    {
      "midi": 87,
      "hit": false,
      "t": 287327.87399999826,
      "d": 131.94193750002887,
      "v": 57
    },
    {
      "midi": 56,
      "hit": false,
      "t": 287327.87399999885,
      "d": 229.1623125000042,
      "v": 85
    },
    {
      "midi": 66,
      "hit": false,
      "t": 287327.87399999885,
      "d": 248.2591718750191,
      "v": 89
    },
    {
      "midi": 63,
      "hit": false,
      "t": 287327.87399999885,
      "d": 265.61995312501676,
      "v": 71
    },
    {
      "midi": 72,
      "hit": false,
      "t": 287327.87399999885,
      "d": 265.61995312501676,
      "v": 86
    },
    {
      "midi": 32,
      "hit": false,
      "t": 287327.8739999997,
      "d": 687.4869374999544,
      "v": 94
    },
    {
      "midi": 63,
      "hit": false,
      "t": 287327.8740000003,
      "d": 553.8089218749665,
      "v": 66
    },
    {
      "midi": 84,
      "hit": false,
      "t": 287327.8740000003,
      "d": 670.1261562498985,
      "v": 103
    },
    {
      "midi": 72,
      "hit": false,
      "t": 287327.8740000003,
      "d": 744.7775156248827,
      "v": 75
    },
    {
      "midi": 75,
      "hit": false,
      "t": 287383.42849999823,
      "d": 131.94193750002887,
      "v": 57
    },
    {
      "midi": 84,
      "hit": false,
      "t": 287661.2009999983,
      "d": 171.8717343750177,
      "v": 49
    },
    {
      "midi": 72,
      "hit": false,
      "t": 287716.7554999983,
      "d": 171.8717343750177,
      "v": 49
    },
    {
      "midi": 89,
      "hit": false,
      "t": 287994.5279999983,
      "d": 248.2591718750191,
      "v": 66
    },
    {
      "midi": 68,
      "hit": false,
      "t": 287994.5279999989,
      "d": 229.1623125000042,
      "v": 86
    },
    {
      "midi": 73,
      "hit": false,
      "t": 287994.5279999989,
      "d": 229.1623125000042,
      "v": 99
    },
    {
      "midi": 49,
      "hit": false,
      "t": 287994.5279999989,
      "d": 729.1528124999604,
      "v": 89
    },
    {
      "midi": 65,
      "hit": false,
      "t": 287994.5279999989,
      "d": 749.9857499999343,
      "v": 94
    },
    {
      "midi": 37,
      "hit": false,
      "t": 287994.5279999997,
      "d": 1338.5162343749544,
      "v": 97
    },
    {
      "midi": 68,
      "hit": false,
      "t": 287994.5280000002,
      "d": 343.7434687499772,
      "v": 57
    },
    {
      "midi": 73,
      "hit": false,
      "t": 287994.5280000002,
      "d": 687.4869374999544,
      "v": 80
    },
    {
      "midi": 85,
      "hit": false,
      "t": 287994.5280000002,
      "d": 687.4869374999544,
      "v": 99
    },
    {
      "midi": 65,
      "hit": false,
      "t": 287994.5280000002,
      "d": 1048.5911874999292,
      "v": 79
    },
    {
      "midi": 77,
      "hit": false,
      "t": 288050.0824999983,
      "d": 248.2591718750191,
      "v": 66
    },
    {
      "midi": 80,
      "hit": false,
      "t": 288327.8549999983,
      "d": 171.8717343750177,
      "v": 59
    },
    {
      "midi": 68,
      "hit": false,
      "t": 288383.40949999826,
      "d": 171.8717343750177,
      "v": 59
    },
    {
      "midi": 85,
      "hit": false,
      "t": 288661.1819999983,
      "d": 152.7748750000028,
      "v": 59
    },
    {
      "midi": 68,
      "hit": false,
      "t": 288661.18199999887,
      "d": 131.94193749997066,
      "v": 85
    },
    {
      "midi": 68,
      "hit": false,
      "t": 288661.1820000002,
      "d": 649.2932187499246,
      "v": 91
    },
    {
      "midi": 89,
      "hit": false,
      "t": 288661.1820000002,
      "d": 687.4869374998962,
      "v": 103
    },
    {
      "midi": 73,
      "hit": false,
      "t": 288716.73649999825,
      "d": 152.7748750000028,
      "v": 59
    },
    {
      "midi": 89,
      "hit": false,
      "t": 288994.5089999983,
      "d": 133.6780156249879,
      "v": 72
    },
    {
      "midi": 77,
      "hit": false,
      "t": 289050.06349999824,
      "d": 133.6780156249879,
      "v": 72
    },
    {
      "midi": 90,
      "hit": false,
      "t": 289327.83599999826,
      "d": 284.71681249997346,
      "v": 62
    },
    {
      "midi": 54,
      "hit": false,
      "t": 289327.83599999885,
      "d": 208.32937499997206,
      "v": 79
    },
    {
      "midi": 66,
      "hit": false,
      "t": 289327.83599999885,
      "d": 248.25917187496088,
      "v": 92
    },
    {
      "midi": 58,
      "hit": false,
      "t": 289327.83599999885,
      "d": 284.71681249997346,
      "v": 83
    },
    {
      "midi": 61,
      "hit": false,
      "t": 289327.83599999885,
      "d": 305.5497499999474,
      "v": 99
    },
    {
      "midi": 32,
      "hit": false,
      "t": 289327.83599999966,
      "d": 687.4869374999544,
      "v": 91
    },
    {
      "midi": 58,
      "hit": false,
      "t": 289327.8360000001,
      "d": 553.8089218749665,
      "v": 85
    },
    {
      "midi": 90,
      "hit": false,
      "t": 289327.8360000001,
      "d": 668.3900781249977,
      "v": 92
    },
    {
      "midi": 66,
      "hit": false,
      "t": 289327.8360000001,
      "d": 670.1261562500149,
      "v": 82
    },
    {
      "midi": 61,
      "hit": false,
      "t": 289327.8360000001,
      "d": 2520.785437500046,
      "v": 65
    },
    {
      "midi": 78,
      "hit": false,
      "t": 289383.39049999823,
      "d": 284.71681249997346,
      "v": 62
    },
    {
      "midi": 82,
      "hit": false,
      "t": 289661.16299999825,
      "d": 112.84507812501397,
      "v": 60
    },
    {
      "midi": 70,
      "hit": false,
      "t": 289716.7174999982,
      "d": 112.84507812501397,
      "v": 60
    },
    {
      "midi": 89,
      "hit": false,
      "t": 289994.48999999824,
      "d": 170.13565625000047,
      "v": 75
    },
    {
      "midi": 65,
      "hit": false,
      "t": 289994.48999999877,
      "d": 1720.4534218750196,
      "v": 103
    },
    {
      "midi": 61,
      "hit": false,
      "t": 289994.48999999877,
      "d": 1737.8142031250172,
      "v": 97
    },
    {
      "midi": 56,
      "hit": false,
      "t": 289994.48999999877,
      "d": 1756.9110625000321,
      "v": 79
    },
    {
      "midi": 49,
      "hit": false,
      "t": 289994.48999999877,
      "d": 1796.840859375021,
      "v": 82
    },
    {
      "midi": 37,
      "hit": false,
      "t": 289994.48999999964,
      "d": 1814.2016406249604,
      "v": 99
    },
    {
      "midi": 56,
      "hit": false,
      "t": 289994.4900000001,
      "d": 1852.3953593750484,
      "v": 57
    },
    {
      "midi": 65,
      "hit": false,
      "t": 289994.4900000001,
      "d": 1852.3953593750484,
      "v": 99
    },
    {
      "midi": 92,
      "hit": false,
      "t": 289994.4900000001,
      "d": 1966.9765156250796,
      "v": 91
    },
    {
      "midi": 77,
      "hit": false,
      "t": 290050.0444999982,
      "d": 170.13565625000047,
      "v": 75
    },
    {
      "midi": 80,
      "hit": false,
      "t": 290327.81699999823,
      "d": 267.3560312499758,
      "v": 65
    },
    {
      "midi": 68,
      "hit": false,
      "t": 290383.3714999982,
      "d": 267.3560312499758,
      "v": 64
    },
    {
      "midi": 85,
      "hit": false,
      "t": 290661.1439999982,
      "d": 114.58115624997299,
      "v": 74
    },
    {
      "midi": 73,
      "hit": false,
      "t": 290716.6984999982,
      "d": 114.58115624997299,
      "v": 64
    },
    {
      "midi": 89,
      "hit": false,
      "t": 290994.4709999982,
      "d": 171.8717343750177,
      "v": 71
    },
    {
      "midi": 77,
      "hit": false,
      "t": 291050.0254999982,
      "d": 171.8717343750177,
      "v": 60
    },
    {
      "midi": 92,
      "hit": false,
      "t": 291327.7979999982,
      "d": 133.6780156249879,
      "v": 69
    },
    {
      "midi": 80,
      "hit": false,
      "t": 291383.3524999982,
      "d": 133.6780156249879,
      "v": 60
    },
    {
      "midi": 85,
      "hit": false,
      "t": 291661.1249999982,
      "d": 95.4842968750163,
      "v": 68
    },
    {
      "midi": 73,
      "hit": false,
      "t": 291716.67949999816,
      "d": 95.4842968750163,
      "v": 60
    },
    {
      "midi": 89,
      "hit": false,
      "t": 291994.4519999982,
      "d": 267.3560312499758,
      "v": 64
    },
    {
      "midi": 73,
      "hit": false,
      "t": 291994.45199999877,
      "d": 229.1623125000042,
      "v": 99
    },
    {
      "midi": 65,
      "hit": false,
      "t": 291994.45199999877,
      "d": 286.4528906249907,
      "v": 99
    },
    {
      "midi": 70,
      "hit": false,
      "t": 291994.45199999877,
      "d": 286.4528906249907,
      "v": 99
    },
    {
      "midi": 58,
      "hit": false,
      "t": 291994.45199999877,
      "d": 420.1309062499786,
      "v": 99
    },
    {
      "midi": 34,
      "hit": false,
      "t": 291994.4519999996,
      "d": 668.3900781249977,
      "v": 86
    },
    {
      "midi": 61,
      "hit": false,
      "t": 291994.45200000016,
      "d": 572.9057812499814,
      "v": 101
    },
    {
      "midi": 58,
      "hit": false,
      "t": 291994.45200000016,
      "d": 590.266562499979,
      "v": 101
    },
    {
      "midi": 85,
      "hit": false,
      "t": 291994.45200000016,
      "d": 706.5837968749693,
      "v": 101
    },
    {
      "midi": 65,
      "hit": false,
      "t": 291994.45200000016,
      "d": 708.3198749999865,
      "v": 101
    },
    {
      "midi": 77,
      "hit": false,
      "t": 292050.00649999816,
      "d": 267.3560312499758,
      "v": 58
    },
    {
      "midi": 82,
      "hit": false,
      "t": 292327.7789999982,
      "d": 190.9685937499744,
      "v": 61
    },
    {
      "midi": 70,
      "hit": false,
      "t": 292383.33349999815,
      "d": 190.9685937499744,
      "v": 56
    },
    {
      "midi": 87,
      "hit": false,
      "t": 292661.10599999817,
      "d": 324.6466093750205,
      "v": 59
    },
    {
      "midi": 68,
      "hit": false,
      "t": 292661.10599999875,
      "d": 229.1623125000042,
      "v": 95
    },
    {
      "midi": 56,
      "hit": false,
      "t": 292661.10599999875,
      "d": 248.2591718750191,
      "v": 95
    },
    {
      "midi": 72,
      "hit": false,
      "t": 292661.10599999875,
      "d": 248.2591718750191,
      "v": 95
    },
    {
      "midi": 63,
      "hit": false,
      "t": 292661.10599999875,
      "d": 324.6466093750205,
      "v": 95
    },
    {
      "midi": 32,
      "hit": false,
      "t": 292661.10599999956,
      "d": 687.4869375000126,
      "v": 81
    },
    {
      "midi": 60,
      "hit": false,
      "t": 292661.10600000015,
      "d": 439.2277656249935,
      "v": 96
    },
    {
      "midi": 56,
      "hit": false,
      "t": 292661.10600000015,
      "d": 572.9057812499814,
      "v": 96
    },
    {
      "midi": 63,
      "hit": false,
      "t": 292661.10600000015,
      "d": 687.4869374999544,
      "v": 96
    },
    {
      "midi": 84,
      "hit": false,
      "t": 292661.10600000015,
      "d": 725.680656249926,
      "v": 96
    },
    {
      "midi": 75,
      "hit": false,
      "t": 292716.66049999814,
      "d": 324.6466093750205,
      "v": 54
    },
    {
      "midi": 84,
      "hit": false,
      "t": 292994.4329999982,
      "d": 152.7748750000028,
      "v": 59
    },
    {
      "midi": 72,
      "hit": false,
      "t": 293049.9874999982,
      "d": 152.7748750000028,
      "v": 53
    },
    {
      "midi": 90,
      "hit": false,
      "t": 293327.7599999982,
      "d": 305.5497500000056,
      "v": 56
    },
    {
      "midi": 66,
      "hit": false,
      "t": 293327.7599999988,
      "d": 265.61995312501676,
      "v": 91
    },
    {
      "midi": 54,
      "hit": false,
      "t": 293327.7599999988,
      "d": 286.4528906249907,
      "v": 91
    },
    {
      "midi": 70,
      "hit": false,
      "t": 293327.7599999988,
      "d": 305.5497500000056,
      "v": 91
    },
    {
      "midi": 61,
      "hit": false,
      "t": 293327.7599999988,
      "d": 342.00739062501816,
      "v": 91
    },
    {
      "midi": 30,
      "hit": false,
      "t": 293327.7599999996,
      "d": 687.4869374999544,
      "v": 77
    },
    {
      "midi": 58,
      "hit": false,
      "t": 293327.7600000001,
      "d": 513.8791249999194,
      "v": 89
    },
    {
      "midi": 66,
      "hit": false,
      "t": 293327.7600000001,
      "d": 666.6539999999222,
      "v": 89
    },
    {
      "midi": 82,
      "hit": false,
      "t": 293327.7600000001,
      "d": 668.3900781249395,
      "v": 89
    },
    {
      "midi": 61,
      "hit": false,
      "t": 293327.7600000001,
      "d": 1833.2984999999753,
      "v": 89
    },
    {
      "midi": 78,
      "hit": false,
      "t": 293383.3144999982,
      "d": 305.5497500000056,
      "v": 51
    },
    {
      "midi": 85,
      "hit": false,
      "t": 293661.0869999982,
      "d": 171.8717343750177,
      "v": 54
    },
    {
      "midi": 73,
      "hit": false,
      "t": 293716.64149999816,
      "d": 171.8717343750177,
      "v": 49
    },
    {
      "midi": 89,
      "hit": false,
      "t": 293994.4139999982,
      "d": 152.7748750000028,
      "v": 52
    },
    {
      "midi": 49,
      "hit": false,
      "t": 293994.4139999988,
      "d": 248.2591718750191,
      "v": 86
    },
    {
      "midi": 61,
      "hit": false,
      "t": 293994.4139999988,
      "d": 248.2591718750191,
      "v": 86
    },
    {
      "midi": 65,
      "hit": false,
      "t": 293994.4139999988,
      "d": 267.356031250034,
      "v": 86
    },
    {
      "midi": 68,
      "hit": false,
      "t": 293994.4139999988,
      "d": 267.356031250034,
      "v": 86
    },
    {
      "midi": 37,
      "hit": false,
      "t": 293994.4139999996,
      "d": 631.9324374999851,
      "v": 74
    },
    {
      "midi": 65,
      "hit": false,
      "t": 293994.41400000005,
      "d": 631.9324375000433,
      "v": 80
    },
    {
      "midi": 68,
      "hit": false,
      "t": 293994.41400000005,
      "d": 725.6806562500424,
      "v": 80
    },
    {
      "midi": 80,
      "hit": false,
      "t": 293994.41400000005,
      "d": 725.6806562500424,
      "v": 80
    },
    {
      "midi": 77,
      "hit": false,
      "t": 294049.96849999815,
      "d": 152.7748750000028,
      "v": 46
    },
    {
      "midi": 85,
      "hit": false,
      "t": 294327.7409999982,
      "d": 93.74821874999907,
      "v": 50
    },
    {
      "midi": 73,
      "hit": false,
      "t": 294383.29549999814,
      "d": 93.74821874999907,
      "v": 46
    },
    {
      "midi": 90,
      "hit": false,
      "t": 294661.06799999817,
      "d": 190.9685937499744,
      "v": 47
    },
    {
      "midi": 61,
      "hit": false,
      "t": 294661.06799999886,
      "d": 286.4528906249907,
      "v": 85
    },
    {
      "midi": 70,
      "hit": false,
      "t": 294661.06799999886,
      "d": 286.4528906249907,
      "v": 85
    },
    {
      "midi": 66,
      "hit": false,
      "t": 294661.06799999886,
      "d": 324.6466093749623,
      "v": 85
    },
    {
      "midi": 54,
      "hit": false,
      "t": 294661.06799999886,
      "d": 343.7434687499772,
      "v": 85
    },
    {
      "midi": 30,
      "hit": false,
      "t": 294661.06799999956,
      "d": 690.9590937499888,
      "v": 71
    },
    {
      "midi": 82,
      "hit": false,
      "t": 294661.0680000001,
      "d": 687.4869375000126,
      "v": 69
    },
    {
      "midi": 70,
      "hit": false,
      "t": 294661.0680000001,
      "d": 706.5837968750275,
      "v": 69
    },
    {
      "midi": 66,
      "hit": false,
      "t": 294661.0680000001,
      "d": 1241.295859374979,
      "v": 69
    },
    {
      "midi": 78,
      "hit": false,
      "t": 294716.62249999814,
      "d": 190.9685937499744,
      "v": 42
    },
    {
      "midi": 85,
      "hit": false,
      "t": 294994.39499999816,
      "d": 152.7748750000028,
      "v": 47
    },
    {
      "midi": 73,
      "hit": false,
      "t": 295049.9494999981,
      "d": 152.7748750000028,
      "v": 42
    },
    {
      "midi": 87,
      "hit": false,
      "t": 295327.72199999815,
      "d": 131.94193750002887,
      "v": 46
    },
    {
      "midi": 56,
      "hit": false,
      "t": 295327.72199999884,
      "d": 229.1623125000042,
      "v": 79
    },
    {
      "midi": 66,
      "hit": false,
      "t": 295327.72199999884,
      "d": 248.2591718750191,
      "v": 79
    },
    {
      "midi": 63,
      "hit": false,
      "t": 295327.72199999884,
      "d": 265.61995312501676,
      "v": 79
    },
    {
      "midi": 72,
      "hit": false,
      "t": 295327.72199999884,
      "d": 265.61995312501676,
      "v": 79
    },
    {
      "midi": 32,
      "hit": false,
      "t": 295327.72199999954,
      "d": 687.4869374999544,
      "v": 66
    },
    {
      "midi": 63,
      "hit": false,
      "t": 295327.7220000001,
      "d": 553.8089218749665,
      "v": 65
    },
    {
      "midi": 84,
      "hit": false,
      "t": 295327.7220000001,
      "d": 670.1261562498985,
      "v": 65
    },
    {
      "midi": 72,
      "hit": false,
      "t": 295327.7220000001,
      "d": 744.7775156248827,
      "v": 65
    },
    {
      "midi": 75,
      "hit": false,
      "t": 295383.2764999981,
      "d": 131.94193750002887,
      "v": 39
    },
    {
      "midi": 84,
      "hit": false,
      "t": 295661.0489999982,
      "d": 171.8717343750177,
      "v": 46
    },
    {
      "midi": 72,
      "hit": false,
      "t": 295716.60349999816,
      "d": 171.8717343750177,
      "v": 36
    },
    {
      "midi": 89,
      "hit": false,
      "t": 295994.3759999982,
      "d": 248.2591718750191,
      "v": 46
    },
    {
      "midi": 68,
      "hit": false,
      "t": 295994.3759999989,
      "d": 229.1623125000042,
      "v": 69
    },
    {
      "midi": 73,
      "hit": false,
      "t": 295994.3759999989,
      "d": 229.1623125000042,
      "v": 69
    },
    {
      "midi": 49,
      "hit": false,
      "t": 295994.3759999989,
      "d": 729.1528124999604,
      "v": 69
    },
    {
      "midi": 65,
      "hit": false,
      "t": 295994.3759999989,
      "d": 749.9857499999343,
      "v": 69
    },
    {
      "midi": 37,
      "hit": false,
      "t": 295994.3759999995,
      "d": 1338.5162343749544,
      "v": 61
    },
    {
      "midi": 68,
      "hit": false,
      "t": 295994.37600000005,
      "d": 343.7434687499772,
      "v": 56
    },
    {
      "midi": 73,
      "hit": false,
      "t": 295994.37600000005,
      "d": 687.4869374999544,
      "v": 56
    },
    {
      "midi": 85,
      "hit": false,
      "t": 295994.37600000005,
      "d": 687.4869374999544,
      "v": 56
    },
    {
      "midi": 65,
      "hit": false,
      "t": 295994.37600000005,
      "d": 1048.5911874999292,
      "v": 56
    },
    {
      "midi": 77,
      "hit": false,
      "t": 296049.93049999815,
      "d": 248.2591718750191,
      "v": 36
    },
    {
      "midi": 80,
      "hit": false,
      "t": 296327.7029999982,
      "d": 171.8717343750177,
      "v": 44
    },
    {
      "midi": 68,
      "hit": false,
      "t": 296383.25749999814,
      "d": 171.8717343750177,
      "v": 34
    },
    {
      "midi": 85,
      "hit": false,
      "t": 296661.02999999817,
      "d": 152.7748750000028,
      "v": 44
    },
    {
      "midi": 68,
      "hit": false,
      "t": 296661.02999999886,
      "d": 131.94193749997066,
      "v": 54
    },
    {
      "midi": 68,
      "hit": false,
      "t": 296661.03,
      "d": 649.2932187499246,
      "v": 49
    },
    {
      "midi": 89,
      "hit": false,
      "t": 296661.03,
      "d": 687.4869374998962,
      "v": 49
    },
    {
      "midi": 73,
      "hit": false,
      "t": 296716.58449999813,
      "d": 152.7748750000028,
      "v": 33
    },
    {
      "midi": 89,
      "hit": false,
      "t": 296994.35699999816,
      "d": 133.6780156249879,
      "v": 43
    },
    {
      "midi": 77,
      "hit": false,
      "t": 297049.9114999981,
      "d": 133.6780156249879,
      "v": 33
    },
    {
      "midi": 90,
      "hit": false,
      "t": 297327.68399999815,
      "d": 284.71681249997346,
      "v": 42
    },
    {
      "midi": 54,
      "hit": false,
      "t": 297327.68399999884,
      "d": 208.32937499997206,
      "v": 49
    },
    {
      "midi": 66,
      "hit": false,
      "t": 297327.68399999884,
      "d": 248.25917187496088,
      "v": 49
    },
    {
      "midi": 58,
      "hit": false,
      "t": 297327.68399999884,
      "d": 284.71681249997346,
      "v": 49
    },
    {
      "midi": 61,
      "hit": false,
      "t": 297327.68399999884,
      "d": 305.5497499999474,
      "v": 49
    },
    {
      "midi": 32,
      "hit": false,
      "t": 297327.6839999995,
      "d": 687.4869374999544,
      "v": 51
    },
    {
      "midi": 58,
      "hit": false,
      "t": 297327.68399999995,
      "d": 553.8089218749665,
      "v": 36
    },
    {
      "midi": 90,
      "hit": false,
      "t": 297327.68399999995,
      "d": 668.3900781249977,
      "v": 36
    },
    {
      "midi": 66,
      "hit": false,
      "t": 297327.68399999995,
      "d": 670.1261562500149,
      "v": 36
    },
    {
      "midi": 61,
      "hit": false,
      "t": 297327.68399999995,
      "d": 2520.785437500046,
      "v": 36
    },
    {
      "midi": 78,
      "hit": false,
      "t": 297383.2384999981,
      "d": 284.71681249997346,
      "v": 33
    },
    {
      "midi": 82,
      "hit": false,
      "t": 297661.01099999814,
      "d": 112.84507812501397,
      "v": 39
    },
    {
      "midi": 70,
      "hit": false,
      "t": 297716.5654999981,
      "d": 112.84507812501397,
      "v": 28
    },
    {
      "midi": 89,
      "hit": false,
      "t": 297994.3379999981,
      "d": 170.13565625000047,
      "v": 37
    },
    {
      "midi": 65,
      "hit": false,
      "t": 297994.33799999877,
      "d": 1720.4534218750196,
      "v": 44
    },
    {
      "midi": 61,
      "hit": false,
      "t": 297994.33799999877,
      "d": 1737.8142031250172,
      "v": 44
    },
    {
      "midi": 56,
      "hit": false,
      "t": 297994.33799999877,
      "d": 1756.9110625000321,
      "v": 44
    },
    {
      "midi": 49,
      "hit": false,
      "t": 297994.33799999877,
      "d": 1796.840859375021,
      "v": 44
    },
    {
      "midi": 37,
      "hit": false,
      "t": 297994.33799999946,
      "d": 1814.2016406249604,
      "v": 46
    },
    {
      "midi": 56,
      "hit": false,
      "t": 297994.33799999993,
      "d": 1852.3953593750484,
      "v": 34
    },
    {
      "midi": 65,
      "hit": false,
      "t": 297994.33799999993,
      "d": 1852.3953593750484,
      "v": 34
    },
    {
      "midi": 92,
      "hit": false,
      "t": 297994.33799999993,
      "d": 1966.9765156250796,
      "v": 34
    },
    {
      "midi": 77,
      "hit": false,
      "t": 298049.8924999981,
      "d": 170.13565625000047,
      "v": 28
    },
    {
      "midi": 80,
      "hit": false,
      "t": 298327.6649999981,
      "d": 267.3560312499758,
      "v": 35
    },
    {
      "midi": 68,
      "hit": false,
      "t": 298383.2194999981,
      "d": 267.3560312499758,
      "v": 22
    },
    {
      "midi": 85,
      "hit": false,
      "t": 298660.9919999981,
      "d": 114.58115624997299,
      "v": 32
    },
    {
      "midi": 73,
      "hit": false,
      "t": 298716.5464999981,
      "d": 114.58115624997299,
      "v": 22
    },
    {
      "midi": 89,
      "hit": false,
      "t": 298994.3189999981,
      "d": 171.8717343750177,
      "v": 31
    },
    {
      "midi": 77,
      "hit": false,
      "t": 299049.87349999807,
      "d": 171.8717343750177,
      "v": 21
    },
    {
      "midi": 92,
      "hit": false,
      "t": 299327.6459999981,
      "d": 133.6780156249879,
      "v": 31
    },
    {
      "midi": 80,
      "hit": false,
      "t": 299383.20049999806,
      "d": 133.6780156249879,
      "v": 18
    },
    {
      "midi": 85,
      "hit": false,
      "t": 299660.9729999981,
      "d": 95.4842968750163,
      "v": 31
    },
    {
      "midi": 73,
      "hit": false,
      "t": 299716.52749999805,
      "d": 95.4842968750163,
      "v": 18
    },
    {
      "midi": 89,
      "hit": false,
      "t": 299994.29999999807,
      "d": 267.3560312499758,
      "v": 30
    },
    {
      "midi": 73,
      "hit": false,
      "t": 299994.29999999877,
      "d": 229.1623125000042,
      "v": 26
    },
    {
      "midi": 65,
      "hit": false,
      "t": 299994.29999999877,
      "d": 286.4528906249907,
      "v": 26
    },
    {
      "midi": 70,
      "hit": false,
      "t": 299994.29999999877,
      "d": 286.4528906249907,
      "v": 26
    },
    {
      "midi": 58,
      "hit": false,
      "t": 299994.29999999877,
      "d": 420.1309062499786,
      "v": 26
    },
    {
      "midi": 34,
      "hit": false,
      "t": 299994.2999999994,
      "d": 668.3900781249977,
      "v": 27
    },
    {
      "midi": 61,
      "hit": false,
      "t": 299994.3,
      "d": 572.9057812499814,
      "v": 22
    },
    {
      "midi": 58,
      "hit": false,
      "t": 299994.3,
      "d": 590.266562499979,
      "v": 22
    },
    {
      "midi": 85,
      "hit": false,
      "t": 299994.3,
      "d": 706.5837968749693,
      "v": 22
    },
    {
      "midi": 65,
      "hit": false,
      "t": 299994.3,
      "d": 708.3198749999865,
      "v": 22
    },
    {
      "midi": 77,
      "hit": false,
      "t": 300049.85449999804,
      "d": 267.3560312499758,
      "v": 17
    },
    {
      "midi": 82,
      "hit": false,
      "t": 300327.62699999806,
      "d": 190.9685937499744,
      "v": 30
    },
    {
      "midi": 70,
      "hit": false,
      "t": 300383.181499998,
      "d": 190.9685937499744,
      "v": 16
    },
    {
      "midi": 87,
      "hit": false,
      "t": 300660.95399999805,
      "d": 324.6466093750205,
      "v": 28
    },
    {
      "midi": 68,
      "hit": false,
      "t": 300660.95399999875,
      "d": 229.1623125000042,
      "v": 22
    },
    {
      "midi": 56,
      "hit": false,
      "t": 300660.95399999875,
      "d": 248.2591718750191,
      "v": 22
    },
    {
      "midi": 72,
      "hit": false,
      "t": 300660.95399999875,
      "d": 248.2591718750191,
      "v": 22
    },
    {
      "midi": 63,
      "hit": false,
      "t": 300660.95399999875,
      "d": 324.6466093750205,
      "v": 22
    },
    {
      "midi": 32,
      "hit": false,
      "t": 300660.9539999994,
      "d": 687.4869375000126,
      "v": 25
    },
    {
      "midi": 60,
      "hit": false,
      "t": 300660.95399999997,
      "d": 439.2277656249935,
      "v": 19
    },
    {
      "midi": 56,
      "hit": false,
      "t": 300660.95399999997,
      "d": 572.9057812499814,
      "v": 19
    },
    {
      "midi": 63,
      "hit": false,
      "t": 300660.95399999997,
      "d": 687.4869374999544,
      "v": 19
    },
    {
      "midi": 84,
      "hit": false,
      "t": 300660.95399999997,
      "d": 725.680656249926,
      "v": 19
    },
    {
      "midi": 75,
      "hit": false,
      "t": 300716.508499998,
      "d": 324.6466093750205,
      "v": 15
    },
    {
      "midi": 84,
      "hit": false,
      "t": 300994.2809999981,
      "d": 152.7748750000028,
      "v": 28
    },
    {
      "midi": 72,
      "hit": false,
      "t": 301049.83549999807,
      "d": 152.7748750000028,
      "v": 15
    },
    {
      "midi": 90,
      "hit": false,
      "t": 301327.6079999981,
      "d": 305.5497500000056,
      "v": 28
    },
    {
      "midi": 66,
      "hit": false,
      "t": 301327.6079999988,
      "d": 265.61995312501676,
      "v": 19
    },
    {
      "midi": 54,
      "hit": false,
      "t": 301327.6079999988,
      "d": 286.4528906249907,
      "v": 19
    },
    {
      "midi": 70,
      "hit": false,
      "t": 301327.6079999988,
      "d": 305.5497500000056,
      "v": 19
    },
    {
      "midi": 61,
      "hit": false,
      "t": 301327.6079999988,
      "d": 342.00739062501816,
      "v": 19
    },
    {
      "midi": 30,
      "hit": false,
      "t": 301327.6079999994,
      "d": 687.4869374999544,
      "v": 21
    },
    {
      "midi": 58,
      "hit": false,
      "t": 301327.60799999995,
      "d": 513.8791249999194,
      "v": 19
    },
    {
      "midi": 66,
      "hit": false,
      "t": 301327.60799999995,
      "d": 666.6539999999222,
      "v": 19
    },
    {
      "midi": 82,
      "hit": false,
      "t": 301327.60799999995,
      "d": 668.3900781249395,
      "v": 19
    },
    {
      "midi": 61,
      "hit": false,
      "t": 301327.60799999995,
      "d": 1833.2984999999753,
      "v": 19
    },
    {
      "midi": 78,
      "hit": false,
      "t": 301383.16249999806,
      "d": 305.5497500000056,
      "v": 15
    },
    {
      "midi": 85,
      "hit": false,
      "t": 301660.9349999981,
      "d": 171.8717343750177,
      "v": 25
    },
    {
      "midi": 73,
      "hit": false,
      "t": 301716.48949999805,
      "d": 171.8717343750177,
      "v": 14
    },
    {
      "midi": 89,
      "hit": false,
      "t": 301994.26199999807,
      "d": 152.7748750000028,
      "v": 22
    },
    {
      "midi": 49,
      "hit": false,
      "t": 301994.2619999988,
      "d": 248.2591718750191,
      "v": 17
    },
    {
      "midi": 61,
      "hit": false,
      "t": 301994.2619999988,
      "d": 248.2591718750191,
      "v": 17
    },
    {
      "midi": 65,
      "hit": false,
      "t": 301994.2619999988,
      "d": 267.356031250034,
      "v": 17
    },
    {
      "midi": 68,
      "hit": false,
      "t": 301994.2619999988,
      "d": 267.356031250034,
      "v": 17
    },
    {
      "midi": 37,
      "hit": false,
      "t": 301994.2619999994,
      "d": 631.9324374999851,
      "v": 16
    },
    {
      "midi": 65,
      "hit": false,
      "t": 301994.2619999999,
      "d": 631.9324375000433,
      "v": 17
    },
    {
      "midi": 68,
      "hit": false,
      "t": 301994.2619999999,
      "d": 725.6806562500424,
      "v": 17
    },
    {
      "midi": 80,
      "hit": false,
      "t": 301994.2619999999,
      "d": 725.6806562500424,
      "v": 17
    },
    {
      "midi": 77,
      "hit": false,
      "t": 302049.81649999804,
      "d": 152.7748750000028,
      "v": 14
    },
    {
      "midi": 85,
      "hit": false,
      "t": 302327.58899999806,
      "d": 93.74821874999907,
      "v": 22
    },
    {
      "midi": 73,
      "hit": false,
      "t": 302383.143499998,
      "d": 93.74821874999907,
      "v": 12
    },
    {
      "midi": 90,
      "hit": false,
      "t": 302660.91599999805,
      "d": 190.9685937499744,
      "v": 22
    },
    {
      "midi": 61,
      "hit": false,
      "t": 302660.91599999886,
      "d": 286.4528906249907,
      "v": 16
    },
    {
      "midi": 70,
      "hit": false,
      "t": 302660.91599999886,
      "d": 286.4528906249907,
      "v": 16
    },
    {
      "midi": 66,
      "hit": false,
      "t": 302660.91599999886,
      "d": 324.6466093749623,
      "v": 16
    },
    {
      "midi": 54,
      "hit": false,
      "t": 302660.91599999886,
      "d": 343.7434687499772,
      "v": 16
    },
    {
      "midi": 30,
      "hit": false,
      "t": 302660.9159999994,
      "d": 690.9590937499888,
      "v": 14
    },
    {
      "midi": 82,
      "hit": false,
      "t": 302660.9159999999,
      "d": 687.4869375000126,
      "v": 12
    },
    {
      "midi": 70,
      "hit": false,
      "t": 302660.9159999999,
      "d": 706.5837968750275,
      "v": 12
    },
    {
      "midi": 66,
      "hit": false,
      "t": 302660.9159999999,
      "d": 1241.295859374979,
      "v": 12
    },
    {
      "midi": 78,
      "hit": false,
      "t": 302716.470499998,
      "d": 190.9685937499744,
      "v": 10
    },
    {
      "midi": 85,
      "hit": false,
      "t": 302994.24299999804,
      "d": 152.7748750000028,
      "v": 19
    },
    {
      "midi": 73,
      "hit": false,
      "t": 303049.797499998,
      "d": 152.7748750000028,
      "v": 9
    },
    {
      "midi": 87,
      "hit": false,
      "t": 303327.569999998,
      "d": 131.94193750002887,
      "v": 19
    },
    {
      "midi": 56,
      "hit": false,
      "t": 303327.56999999884,
      "d": 229.1623125000042,
      "v": 13
    },
    {
      "midi": 66,
      "hit": false,
      "t": 303327.56999999884,
      "d": 248.2591718750191,
      "v": 13
    },
    {
      "midi": 63,
      "hit": false,
      "t": 303327.56999999884,
      "d": 265.61995312501676,
      "v": 13
    },
    {
      "midi": 72,
      "hit": false,
      "t": 303327.56999999884,
      "d": 265.61995312501676,
      "v": 13
    },
    {
      "midi": 32,
      "hit": false,
      "t": 303327.56999999937,
      "d": 687.4869374999544,
      "v": 12
    },
    {
      "midi": 63,
      "hit": false,
      "t": 303327.56999999995,
      "d": 553.8089218749665,
      "v": 11
    },
    {
      "midi": 84,
      "hit": false,
      "t": 303327.56999999995,
      "d": 670.1261562498985,
      "v": 11
    },
    {
      "midi": 72,
      "hit": false,
      "t": 303327.56999999995,
      "d": 744.7775156248827,
      "v": 11
    },
    {
      "midi": 75,
      "hit": false,
      "t": 303383.124499998,
      "d": 131.94193750002887,
      "v": 7
    },
    {
      "midi": 84,
      "hit": false,
      "t": 303660.8969999981,
      "d": 171.8717343750177,
      "v": 16
    },
    {
      "midi": 72,
      "hit": false,
      "t": 303716.45149999805,
      "d": 171.8717343750177,
      "v": 7
    },
    {
      "midi": 89,
      "hit": false,
      "t": 303994.22399999807,
      "d": 248.2591718750191,
      "v": 16
    },
    {
      "midi": 68,
      "hit": false,
      "t": 303994.2239999989,
      "d": 229.1623125000042,
      "v": 5
    },
    {
      "midi": 73,
      "hit": false,
      "t": 303994.2239999989,
      "d": 229.1623125000042,
      "v": 5
    },
    {
      "midi": 49,
      "hit": false,
      "t": 303994.2239999989,
      "d": 729.1528124999604,
      "v": 5
    },
    {
      "midi": 65,
      "hit": false,
      "t": 303994.2239999989,
      "d": 749.9857499999343,
      "v": 5
    },
    {
      "midi": 37,
      "hit": false,
      "t": 303994.22399999935,
      "d": 1338.5162343749544,
      "v": 10
    },
    {
      "midi": 68,
      "hit": false,
      "t": 303994.2239999999,
      "d": 343.7434687499772,
      "v": 9
    },
    {
      "midi": 73,
      "hit": false,
      "t": 303994.2239999999,
      "d": 687.4869374999544,
      "v": 9
    },
    {
      "midi": 85,
      "hit": false,
      "t": 303994.2239999999,
      "d": 687.4869374999544,
      "v": 9
    },
    {
      "midi": 65,
      "hit": false,
      "t": 303994.2239999999,
      "d": 1048.5911874999292,
      "v": 9
    },
    {
      "midi": 77,
      "hit": false,
      "t": 304049.77849999804,
      "d": 248.2591718750191,
      "v": 7
    },
    {
      "midi": 80,
      "hit": false,
      "t": 304327.55099999806,
      "d": 171.8717343750177,
      "v": 16
    },
    {
      "midi": 68,
      "hit": false,
      "t": 304383.105499998,
      "d": 171.8717343750177,
      "v": 6
    },
    {
      "midi": 85,
      "hit": false,
      "t": 304660.87799999805,
      "d": 152.7748750000028,
      "v": 13
    },
    {
      "midi": 68,
      "hit": false,
      "t": 304660.87799999886,
      "d": 131.94193749997066,
      "v": 2
    },
    {
      "midi": 68,
      "hit": false,
      "t": 304660.87799999985,
      "d": 649.2932187499246,
      "v": 5
    },
    {
      "midi": 89,
      "hit": false,
      "t": 304660.87799999985,
      "d": 687.4869374998962,
      "v": 5
    },
    {
      "midi": 73,
      "hit": false,
      "t": 304716.432499998,
      "d": 152.7748750000028,
      "v": 6
    },
    {
      "midi": 89,
      "hit": false,
      "t": 304994.20499999804,
      "d": 133.6780156249879,
      "v": 13
    },
    {
      "midi": 77,
      "hit": false,
      "t": 305049.759499998,
      "d": 133.6780156249879,
      "v": 6
    },
    {
      "midi": 90,
      "hit": false,
      "t": 305327.531999998,
      "d": 284.71681249997346,
      "v": 13
    },
    {
      "midi": 54,
      "hit": false,
      "t": 305327.53199999884,
      "d": 208.32937499997206,
      "v": 2
    },
    {
      "midi": 66,
      "hit": false,
      "t": 305327.53199999884,
      "d": 248.25917187496088,
      "v": 2
    },
    {
      "midi": 58,
      "hit": false,
      "t": 305327.53199999884,
      "d": 284.71681249997346,
      "v": 2
    },
    {
      "midi": 61,
      "hit": false,
      "t": 305327.53199999884,
      "d": 305.5497499999474,
      "v": 2
    },
    {
      "midi": 32,
      "hit": false,
      "t": 305327.5319999993,
      "d": 687.4869374999544,
      "v": 2
    },
    {
      "midi": 58,
      "hit": false,
      "t": 305327.5319999998,
      "d": 553.8089218749665,
      "v": 5
    },
    {
      "midi": 90,
      "hit": false,
      "t": 305327.5319999998,
      "d": 668.3900781249977,
      "v": 5
    },
    {
      "midi": 66,
      "hit": false,
      "t": 305327.5319999998,
      "d": 670.1261562500149,
      "v": 5
    },
    {
      "midi": 61,
      "hit": false,
      "t": 305327.5319999998,
      "d": 2520.785437500046,
      "v": 5
    },
    {
      "midi": 78,
      "hit": false,
      "t": 305383.086499998,
      "d": 284.71681249997346,
      "v": 6
    },
    {
      "midi": 82,
      "hit": false,
      "t": 305660.858999998,
      "d": 112.84507812501397,
      "v": 11
    },
    {
      "midi": 70,
      "hit": false,
      "t": 305716.413499998,
      "d": 112.84507812501397,
      "v": 5
    },
    {
      "midi": 89,
      "hit": false,
      "t": 305994.185999998,
      "d": 170.13565625000047,
      "v": 9
    },
    {
      "midi": 65,
      "hit": false,
      "t": 305994.18599999876,
      "d": 1720.4534218750196,
      "v": 2
    },
    {
      "midi": 61,
      "hit": false,
      "t": 305994.18599999876,
      "d": 1737.8142031250172,
      "v": 2
    },
    {
      "midi": 56,
      "hit": false,
      "t": 305994.18599999876,
      "d": 1756.9110625000321,
      "v": 2
    },
    {
      "midi": 49,
      "hit": false,
      "t": 305994.18599999876,
      "d": 1796.840859375021,
      "v": 2
    },
    {
      "midi": 37,
      "hit": false,
      "t": 305994.1859999993,
      "d": 1814.2016406249604,
      "v": 2
    },
    {
      "midi": 56,
      "hit": false,
      "t": 305994.18599999975,
      "d": 1852.3953593750484,
      "v": 4
    },
    {
      "midi": 65,
      "hit": false,
      "t": 305994.18599999975,
      "d": 1852.3953593750484,
      "v": 4
    },
    {
      "midi": 92,
      "hit": false,
      "t": 305994.18599999975,
      "d": 1966.9765156250796,
      "v": 4
    },
    {
      "midi": 77,
      "hit": false,
      "t": 306049.740499998,
      "d": 170.13565625000047,
      "v": 5
    },
    {
      "midi": 80,
      "hit": false,
      "t": 306327.512999998,
      "d": 267.3560312499758,
      "v": 9
    },
    {
      "midi": 68,
      "hit": false,
      "t": 306383.06749999797,
      "d": 267.3560312499758,
      "v": 5
    },
    {
      "midi": 85,
      "hit": false,
      "t": 306660.839999998,
      "d": 114.58115624997299,
      "v": 8
    },
    {
      "midi": 73,
      "hit": false,
      "t": 306716.39449999796,
      "d": 114.58115624997299,
      "v": 5
    },
    {
      "midi": 89,
      "hit": false,
      "t": 306994.166999998,
      "d": 171.8717343750177,
      "v": 6
    },
    {
      "midi": 77,
      "hit": false,
      "t": 307049.72149999795,
      "d": 171.8717343750177,
      "v": 4
    },
    {
      "midi": 92,
      "hit": false,
      "t": 307327.49399999797,
      "d": 133.6780156249879,
      "v": 2
    },
    {
      "midi": 80,
      "hit": false,
      "t": 307383.04849999794,
      "d": 133.6780156249879,
      "v": 3
    },
    {
      "midi": 85,
      "hit": false,
      "t": 307660.82099999796,
      "d": 95.4842968750163,
      "v": 2
    },
    {
      "midi": 73,
      "hit": false,
      "t": 307716.3754999979,
      "d": 95.4842968750163,
      "v": 2
    }
  ]
}