{
  "jsonPath": "Soundtracks/Video Game Music/Legend of Zelda/legend-of-zelda-the-phantom-hourglass-withinahouse.json",
  "path": "Soundtracks\\Video Game Music\\Legend of Zelda\\Legend_Of_Zelda_The_Phantom_Hourglass_WithinaHouse.mid",
  "name": "Legend_Of_Zelda_The_Phantom_Hourglass_WithinaHouse",
  "difficulty": "Advanced",
  "bpm": 105.000105000105,
  "notes": [
    {
      "midi": 48,
      "hit": false,
      "t": 0,
      "d": 142.85700000000003,
      "v": 110
    },
    {
      "midi": 52,
      "hit": false,
      "t": 285.71400000000006,
      "d": 142.85700000000003,
      "v": 110
    },
    {
      "midi": 55,
      "hit": false,
      "t": 285.71400000000006,
      "d": 142.85700000000003,
      "v": 110
    },
    {
      "midi": 52,
      "hit": false,
      "t": 857.142,
      "d": 95.23800000000006,
      "v": 110
    },
    {
      "midi": 55,
      "hit": false,
      "t": 857.142,
      "d": 95.23800000000006,
      "v": 110
    },
    {
      "midi": 48,
      "hit": false,
      "t": 1142.8560000000002,
      "d": 142.85699999999997,
      "v": 110
    },
    {
      "midi": 52,
      "hit": false,
      "t": 1428.5700000000002,
      "d": 142.85699999999997,
      "v": 110
    },
    {
      "midi": 55,
      "hit": false,
      "t": 1428.5700000000002,
      "d": 142.85699999999997,
      "v": 110
    },
    {
      "midi": 52,
      "hit": false,
      "t": 1999.998,
      "d": 95.23799999999983,
      "v": 110
    },
    {
      "midi": 55,
      "hit": false,
      "t": 1999.998,
      "d": 95.23799999999983,
      "v": 110
    },
    {
      "midi": 48,
      "hit": false,
      "t": 2285.712,
      "d": 142.85699999999997,
      "v": 110
    },
    {
      "midi": 50,
      "hit": false,
      "t": 2571.426,
      "d": 142.85699999999997,
      "v": 110
    },
    {
      "midi": 54,
      "hit": false,
      "t": 2571.426,
      "d": 142.85699999999997,
      "v": 110
    },
    {
      "midi": 50,
      "hit": false,
      "t": 3142.854,
      "d": 95.23799999999983,
      "v": 110
    },
    {
      "midi": 54,
      "hit": false,
      "t": 3142.854,
      "d": 95.23799999999983,
      "v": 110
    },
    {
      "midi": 48,
      "hit": false,
      "t": 3428.5679999999998,
      "d": 142.85699999999997,
      "v": 110
    },
    {
      "midi": 50,
      "hit": false,
      "t": 3714.2819999999997,
      "d": 142.85699999999997,
      "v": 110
    },
    {
      "midi": 54,
      "hit": false,
      "t": 3714.2819999999997,
      "d": 142.85699999999997,
      "v": 110
    },
    {
      "midi": 50,
      "hit": false,
      "t": 4285.71,
      "d": 95.23800000000028,
      "v": 110
    },
    {
      "midi": 54,
      "hit": false,
      "t": 4285.71,
      "d": 95.23800000000028,
      "v": 110
    },
    {
      "midi": 48,
      "hit": false,
      "t": 4571.424,
      "d": 142.85699999999997,
      "v": 110
    },
    {
      "midi": 52,
      "hit": false,
      "t": 4857.138,
      "d": 142.85699999999997,
      "v": 110
    },
    {
      "midi": 55,
      "hit": false,
      "t": 4857.138,
      "d": 142.85699999999997,
      "v": 110
    },
    {
      "midi": 76,
      "hit": false,
      "t": 4857.138000000001,
      "d": 95.23800000000028,
      "v": 110
    },
    {
      "midi": 78,
      "hit": false,
      "t": 5142.852000000001,
      "d": 95.23800000000028,
      "v": 110
    },
    {
      "midi": 52,
      "hit": false,
      "t": 5428.566,
      "d": 95.23800000000028,
      "v": 110
    },
    {
      "midi": 55,
      "hit": false,
      "t": 5428.566,
      "d": 95.23800000000028,
      "v": 110
    },
    {
      "midi": 79,
      "hit": false,
      "t": 5428.566000000001,
      "d": 95.23800000000028,
      "v": 110
    },
    {
      "midi": 48,
      "hit": false,
      "t": 5714.28,
      "d": 142.85699999999997,
      "v": 110
    },
    {
      "midi": 81,
      "hit": false,
      "t": 5714.280000000001,
      "d": 142.85699999999997,
      "v": 110
    },
    {
      "midi": 52,
      "hit": false,
      "t": 5999.994,
      "d": 142.85699999999997,
      "v": 110
    },
    {
      "midi": 55,
      "hit": false,
      "t": 5999.994,
      "d": 142.85699999999997,
      "v": 110
    },
    {
      "midi": 76,
      "hit": false,
      "t": 6285.7080000000005,
      "d": 95.23800000000028,
      "v": 110
    },
    {
      "midi": 52,
      "hit": false,
      "t": 6571.422,
      "d": 95.23800000000028,
      "v": 110
    },
    {
      "midi": 55,
      "hit": false,
      "t": 6571.422,
      "d": 95.23800000000028,
      "v": 110
    },
    {
      "midi": 79,
      "hit": false,
      "t": 6571.4220000000005,
      "d": 380.9520000000002,
      "v": 110
    },
    {
      "midi": 48,
      "hit": false,
      "t": 6857.1359999999995,
      "d": 142.85699999999997,
      "v": 110
    },
    {
      "midi": 50,
      "hit": false,
      "t": 7142.849999999999,
      "d": 142.85699999999997,
      "v": 110
    },
    {
      "midi": 54,
      "hit": false,
      "t": 7142.849999999999,
      "d": 142.85699999999997,
      "v": 110
    },
    {
      "midi": 78,
      "hit": false,
      "t": 7142.85,
      "d": 47.61899999999969,
      "v": 110
    },
    {
      "midi": 79,
      "hit": false,
      "t": 7214.2785,
      "d": 47.61899999999969,
      "v": 110
    },
    {
      "midi": 78,
      "hit": false,
      "t": 7285.707,
      "d": 95.23800000000028,
      "v": 110
    },
    {
      "midi": 76,
      "hit": false,
      "t": 7428.564,
      "d": 95.23800000000028,
      "v": 110
    },
    {
      "midi": 50,
      "hit": false,
      "t": 7714.277999999999,
      "d": 95.23800000000028,
      "v": 110
    },
    {
      "midi": 54,
      "hit": false,
      "t": 7714.277999999999,
      "d": 95.23800000000028,
      "v": 110
    },
    {
      "midi": 78,
      "hit": false,
      "t": 7714.278,
      "d": 95.23800000000028,
      "v": 110
    },
    {
      "midi": 48,
      "hit": false,
      "t": 7999.991999999999,
      "d": 142.85699999999997,
      "v": 110
    },
    {
      "midi": 74,
      "hit": false,
      "t": 7999.992,
      "d": 285.71399999999994,
      "v": 110
    },
    {
      "midi": 50,
      "hit": false,
      "t": 8285.706,
      "d": 142.85699999999997,
      "v": 110
    },
    {
      "midi": 54,
      "hit": false,
      "t": 8285.706,
      "d": 142.85699999999997,
      "v": 110
    },
    {
      "midi": 50,
      "hit": false,
      "t": 8857.134,
      "d": 95.23799999999937,
      "v": 110
    },
    {
      "midi": 54,
      "hit": false,
      "t": 8857.134,
      "d": 95.23799999999937,
      "v": 110
    },
    {
      "midi": 48,
      "hit": false,
      "t": 9142.848,
      "d": 142.85699999999997,
      "v": 110
    },
    {
      "midi": 52,
      "hit": false,
      "t": 9428.562,
      "d": 142.85699999999997,
      "v": 110
    },
    {
      "midi": 55,
      "hit": false,
      "t": 9428.562,
      "d": 142.85699999999997,
      "v": 110
    },
    {
      "midi": 76,
      "hit": false,
      "t": 9428.562,
      "d": 95.23799999999937,
      "v": 110
    },
    {
      "midi": 78,
      "hit": false,
      "t": 9714.276,
      "d": 95.23799999999937,
      "v": 110
    },
    {
      "midi": 52,
      "hit": false,
      "t": 9999.99,
      "d": 95.23799999999937,
      "v": 110
    },
    {
      "midi": 55,
      "hit": false,
      "t": 9999.99,
      "d": 95.23799999999937,
      "v": 110
    },
    {
      "midi": 79,
      "hit": false,
      "t": 9999.99,
      "d": 95.23799999999937,
      "v": 110
    },
    {
      "midi": 48,
      "hit": false,
      "t": 10285.704,
      "d": 142.85699999999997,
      "v": 110
    },
    {
      "midi": 81,
      "hit": false,
      "t": 10285.704,
      "d": 142.85699999999997,
      "v": 110
    },
    {
      "midi": 52,
      "hit": false,
      "t": 10571.418,
      "d": 142.85699999999997,
      "v": 110
    },
    {
      "midi": 55,
      "hit": false,
      "t": 10571.418,
      "d": 142.85699999999997,
      "v": 110
    },
    {
      "midi": 76,
      "hit": false,
      "t": 10857.132,
      "d": 95.23799999999937,
      "v": 110
    },
    {
      "midi": 52,
      "hit": false,
      "t": 11142.846,
      "d": 95.23799999999937,
      "v": 110
    },
    {
      "midi": 55,
      "hit": false,
      "t": 11142.846,
      "d": 95.23799999999937,
      "v": 110
    },
    {
      "midi": 79,
      "hit": false,
      "t": 11142.846,
      "d": 380.9519999999993,
      "v": 110
    },
    {
      "midi": 48,
      "hit": false,
      "t": 11428.56,
      "d": 142.85699999999997,
      "v": 110
    },
    {
      "midi": 50,
      "hit": false,
      "t": 11714.274,
      "d": 142.85699999999997,
      "v": 110
    },
    {
      "midi": 54,
      "hit": false,
      "t": 11714.274,
      "d": 142.85699999999997,
      "v": 110
    },
    {
      "midi": 78,
      "hit": false,
      "t": 11714.274,
      "d": 47.6190000000006,
      "v": 110
    },
    {
      "midi": 79,
      "hit": false,
      "t": 11785.7025,
      "d": 47.6190000000006,
      "v": 110
    },
    {
      "midi": 78,
      "hit": false,
      "t": 11857.131,
      "d": 95.23799999999937,
      "v": 110
    },
    {
      "midi": 76,
      "hit": false,
      "t": 11999.988,
      "d": 95.23799999999937,
      "v": 110
    },
    {
      "midi": 50,
      "hit": false,
      "t": 12285.702,
      "d": 95.23799999999937,
      "v": 110
    },
    {
      "midi": 54,
      "hit": false,
      "t": 12285.702,
      "d": 95.23799999999937,
      "v": 110
    },
    {
      "midi": 78,
      "hit": false,
      "t": 12285.702,
      "d": 95.23799999999937,
      "v": 110
    },
    {
      "midi": 48,
      "hit": false,
      "t": 12571.416,
      "d": 142.85699999999997,
      "v": 110
    },
    {
      "midi": 86,
      "hit": false,
      "t": 12571.416,
      "d": 285.71399999999994,
      "v": 110
    },
    {
      "midi": 50,
      "hit": false,
      "t": 12857.13,
      "d": 142.85699999999997,
      "v": 110
    },
    {
      "midi": 54,
      "hit": false,
      "t": 12857.13,
      "d": 142.85699999999997,
      "v": 110
    },
    {
      "midi": 50,
      "hit": false,
      "t": 13428.557999999999,
      "d": 95.23799999999937,
      "v": 110
    },
    {
      "midi": 54,
      "hit": false,
      "t": 13428.557999999999,
      "d": 95.23799999999937,
      "v": 110
    },
    {
      "midi": 47,
      "hit": false,
      "t": 13714.271999999999,
      "d": 142.85699999999997,
      "v": 110
    },
    {
      "midi": 50,
      "hit": false,
      "t": 13999.985999999999,
      "d": 142.85699999999997,
      "v": 110
    },
    {
      "midi": 54,
      "hit": false,
      "t": 13999.985999999999,
      "d": 142.85699999999997,
      "v": 110
    },
    {
      "midi": 79,
      "hit": false,
      "t": 13999.985999999999,
      "d": 95.23799999999937,
      "v": 110
    },
    {
      "midi": 81,
      "hit": false,
      "t": 14285.699999999999,
      "d": 95.23799999999937,
      "v": 110
    },
    {
      "midi": 50,
      "hit": false,
      "t": 14571.413999999999,
      "d": 95.23799999999937,
      "v": 110
    },
    {
      "midi": 54,
      "hit": false,
      "t": 14571.413999999999,
      "d": 95.23799999999937,
      "v": 110
    },
    {
      "midi": 83,
      "hit": false,
      "t": 14571.413999999999,
      "d": 95.23799999999937,
      "v": 110
    },
    {
      "midi": 46,
      "hit": false,
      "t": 14857.127999999999,
      "d": 142.85699999999997,
      "v": 110
    },
    {
      "midi": 84,
      "hit": false,
      "t": 14857.127999999999,
      "d": 95.23799999999937,
      "v": 110
    },
    {
      "midi": 50,
      "hit": false,
      "t": 15142.841999999999,
      "d": 142.85699999999997,
      "v": 110
    },
    {
      "midi": 54,
      "hit": false,
      "t": 15142.841999999999,
      "d": 142.85699999999997,
      "v": 110
    },
    {
      "midi": 82,
      "hit": false,
      "t": 15142.841999999999,
      "d": 65.47612499999923,
      "v": 110
    },
    {
      "midi": 84,
      "hit": false,
      "t": 15214.270499999999,
      "d": 65.47612499999923,
      "v": 110
    },
    {
      "midi": 82,
      "hit": false,
      "t": 15285.698999999999,
      "d": 95.23799999999937,
      "v": 110
    },
    {
      "midi": 81,
      "hit": false,
      "t": 15428.555999999999,
      "d": 95.23799999999937,
      "v": 110
    },
    {
      "midi": 50,
      "hit": false,
      "t": 15714.269999999999,
      "d": 95.23799999999937,
      "v": 110
    },
    {
      "midi": 54,
      "hit": false,
      "t": 15714.269999999999,
      "d": 95.23799999999937,
      "v": 110
    },
    {
      "midi": 79,
      "hit": false,
      "t": 15714.269999999999,
      "d": 380.9519999999993,
      "v": 110
    },
    {
      "midi": 45,
      "hit": false,
      "t": 15999.983999999999,
      "d": 142.85699999999997,
      "v": 110
    },
    {
      "midi": 50,
      "hit": false,
      "t": 16285.697999999999,
      "d": 142.8570000000018,
      "v": 110
    },
    {
      "midi": 53,
      "hit": false,
      "t": 16285.697999999999,
      "d": 142.8570000000018,
      "v": 110
    },
    {
      "midi": 77,
      "hit": false,
      "t": 16285.697999999999,
      "d": 95.23799999999937,
      "v": 110
    },
    {
      "midi": 76,
      "hit": false,
      "t": 16571.411999999997,
      "d": 95.2380000000012,
      "v": 110
    },
    {
      "midi": 77,
      "hit": false,
      "t": 16857.125999999997,
      "d": 95.2380000000012,
      "v": 110
    },
    {
      "midi": 50,
      "hit": false,
      "t": 16857.126,
      "d": 95.2380000000012,
      "v": 110
    },
    {
      "midi": 53,
      "hit": false,
      "t": 16857.126,
      "d": 95.2380000000012,
      "v": 110
    },
    {
      "midi": 84,
      "hit": false,
      "t": 17142.839999999997,
      "d": 214.28550000000178,
      "v": 110
    },
    {
      "midi": 44,
      "hit": false,
      "t": 17142.84,
      "d": 142.85699999999997,
      "v": 110
    },
    {
      "midi": 50,
      "hit": false,
      "t": 17428.554,
      "d": 142.85699999999997,
      "v": 110
    },
    {
      "midi": 53,
      "hit": false,
      "t": 17428.554,
      "d": 142.85699999999997,
      "v": 110
    },
    {
      "midi": 50,
      "hit": false,
      "t": 17999.982,
      "d": 95.2380000000012,
      "v": 110
    },
    {
      "midi": 53,
      "hit": false,
      "t": 17999.982,
      "d": 95.2380000000012,
      "v": 110
    },
    {
      "midi": 77,
      "hit": false,
      "t": 17999.982,
      "d": 95.2380000000012,
      "v": 110
    },
    {
      "midi": 43,
      "hit": false,
      "t": 18285.696,
      "d": 142.85699999999997,
      "v": 110
    },
    {
      "midi": 77,
      "hit": false,
      "t": 18285.696,
      "d": 214.28550000000178,
      "v": 110
    },
    {
      "midi": 50,
      "hit": false,
      "t": 18571.41,
      "d": 142.85699999999997,
      "v": 110
    },
    {
      "midi": 53,
      "hit": false,
      "t": 18571.41,
      "d": 142.85699999999997,
      "v": 110
    },
    {
      "midi": 50,
      "hit": false,
      "t": 19142.838,
      "d": 95.2380000000012,
      "v": 110
    },
    {
      "midi": 53,
      "hit": false,
      "t": 19142.838,
      "d": 95.2380000000012,
      "v": 110
    },
    {
      "midi": 76,
      "hit": false,
      "t": 19142.838000000003,
      "d": 95.2380000000012,
      "v": 110
    },
    {
      "midi": 43,
      "hit": false,
      "t": 19428.552,
      "d": 142.85699999999997,
      "v": 110
    },
    {
      "midi": 76,
      "hit": false,
      "t": 19428.552000000003,
      "d": 214.28550000000178,
      "v": 110
    },
    {
      "midi": 50,
      "hit": false,
      "t": 19714.266,
      "d": 142.85699999999997,
      "v": 110
    },
    {
      "midi": 53,
      "hit": false,
      "t": 19714.266,
      "d": 142.85699999999997,
      "v": 110
    },
    {
      "midi": 50,
      "hit": false,
      "t": 20285.694,
      "d": 95.2380000000012,
      "v": 110
    },
    {
      "midi": 53,
      "hit": false,
      "t": 20285.694,
      "d": 95.2380000000012,
      "v": 110
    },
    {
      "midi": 74,
      "hit": false,
      "t": 20285.694000000007,
      "d": 95.2380000000012,
      "v": 110
    },
    {
      "midi": 43,
      "hit": false,
      "t": 20571.408,
      "d": 142.85699999999997,
      "v": 110
    },
    {
      "midi": 74,
      "hit": false,
      "t": 20571.408000000007,
      "d": 214.28550000000178,
      "v": 110
    },
    {
      "midi": 47,
      "hit": false,
      "t": 20857.122,
      "d": 142.85699999999997,
      "v": 110
    },
    {
      "midi": 50,
      "hit": false,
      "t": 20857.122,
      "d": 142.85699999999997,
      "v": 110
    },
    {
      "midi": 47,
      "hit": false,
      "t": 21428.55,
      "d": 95.2380000000012,
      "v": 110
    },
    {
      "midi": 50,
      "hit": false,
      "t": 21428.55,
      "d": 95.2380000000012,
      "v": 110
    },
    {
      "midi": 43,
      "hit": false,
      "t": 21714.264,
      "d": 142.85699999999997,
      "v": 110
    },
    {
      "midi": 47,
      "hit": false,
      "t": 21999.978,
      "d": 142.85699999999997,
      "v": 110
    },
    {
      "midi": 50,
      "hit": false,
      "t": 21999.978,
      "d": 142.85699999999997,
      "v": 110
    },
    {
      "midi": 47,
      "hit": false,
      "t": 22571.406,
      "d": 95.2380000000012,
      "v": 110
    },
    {
      "midi": 50,
      "hit": false,
      "t": 22571.406,
      "d": 95.2380000000012,
      "v": 110
    },
    {
      "midi": 48,
      "hit": false,
      "t": 22857.12,
      "d": 142.85699999999997,
      "v": 110
    },
    {
      "midi": 52,
      "hit": false,
      "t": 23142.834,
      "d": 142.85699999999997,
      "v": 110
    },
    {
      "midi": 55,
      "hit": false,
      "t": 23142.834,
      "d": 142.85699999999997,
      "v": 110
    },
    {
      "midi": 76,
      "hit": false,
      "t": 23142.83400000001,
      "d": 95.2380000000012,
      "v": 110
    },
    {
      "midi": 78,
      "hit": false,
      "t": 23428.54800000001,
      "d": 95.2380000000012,
      "v": 110
    },
    {
      "midi": 52,
      "hit": false,
      "t": 23714.262,
      "d": 95.2380000000012,
      "v": 110
    },
    {
      "midi": 55,
      "hit": false,
      "t": 23714.262,
      "d": 95.2380000000012,
      "v": 110
    },
    {
      "midi": 79,
      "hit": false,
      "t": 23714.26200000001,
      "d": 95.2380000000012,
      "v": 110
    },
    {
      "midi": 48,
      "hit": false,
      "t": 23999.976,
      "d": 142.85699999999997,
      "v": 110
    },
    {
      "midi": 81,
      "hit": false,
      "t": 23999.97600000001,
      "d": 142.85699999999997,
      "v": 110
    },
    {
      "midi": 52,
      "hit": false,
      "t": 24285.69,
      "d": 142.85699999999997,
      "v": 110
    },
    {
      "midi": 55,
      "hit": false,
      "t": 24285.69,
      "d": 142.85699999999997,
      "v": 110
    },
    {
      "midi": 76,
      "hit": false,
      "t": 24571.40400000001,
      "d": 95.2380000000012,
      "v": 110
    },
    {
      "midi": 52,
      "hit": false,
      "t": 24857.118,
      "d": 95.2380000000012,
      "v": 110
    },
    {
      "midi": 55,
      "hit": false,
      "t": 24857.118,
      "d": 95.2380000000012,
      "v": 110
    },
    {
      "midi": 79,
      "hit": false,
      "t": 24857.11800000001,
      "d": 380.95200000000114,
      "v": 110
    },
    {
      "midi": 48,
      "hit": false,
      "t": 25142.832,
      "d": 142.85699999999997,
      "v": 110
    },
    {
      "midi": 50,
      "hit": false,
      "t": 25428.546,
      "d": 142.85699999999997,
      "v": 110
    },
    {
      "midi": 54,
      "hit": false,
      "t": 25428.546,
      "d": 142.85699999999997,
      "v": 110
    },
    {
      "midi": 78,
      "hit": false,
      "t": 25428.54600000001,
      "d": 47.61899999999878,
      "v": 110
    },
    {
      "midi": 79,
      "hit": false,
      "t": 25499.974500000008,
      "d": 47.61899999999878,
      "v": 110
    },
    {
      "midi": 78,
      "hit": false,
      "t": 25571.403000000006,
      "d": 95.2380000000012,
      "v": 110
    },
    {
      "midi": 76,
      "hit": false,
      "t": 25714.260000000006,
      "d": 95.2380000000012,
      "v": 110
    },
    {
      "midi": 50,
      "hit": false,
      "t": 25999.974,
      "d": 95.2380000000012,
      "v": 110
    },
    {
      "midi": 54,
      "hit": false,
      "t": 25999.974,
      "d": 95.2380000000012,
      "v": 110
    },
    {
      "midi": 78,
      "hit": false,
      "t": 25999.974000000006,
      "d": 95.2380000000012,
      "v": 110
    },
    {
      "midi": 48,
      "hit": false,
      "t": 26285.688,
      "d": 142.85699999999997,
      "v": 110
    },
    {
      "midi": 74,
      "hit": false,
      "t": 26285.688000000006,
      "d": 285.71399999999994,
      "v": 110
    },
    {
      "midi": 50,
      "hit": false,
      "t": 26571.402,
      "d": 142.85699999999997,
      "v": 110
    },
    {
      "midi": 54,
      "hit": false,
      "t": 26571.402,
      "d": 142.85699999999997,
      "v": 110
    },
    {
      "midi": 50,
      "hit": false,
      "t": 27142.829999999998,
      "d": 95.2380000000012,
      "v": 110
    },
    {
      "midi": 54,
      "hit": false,
      "t": 27142.829999999998,
      "d": 95.2380000000012,
      "v": 110
    },
    {
      "midi": 48,
      "hit": false,
      "t": 27428.543999999998,
      "d": 142.85699999999997,
      "v": 110
    },
    {
      "midi": 52,
      "hit": false,
      "t": 27714.257999999998,
      "d": 142.85699999999997,
      "v": 110
    },
    {
      "midi": 55,
      "hit": false,
      "t": 27714.257999999998,
      "d": 142.85699999999997,
      "v": 110
    },
    {
      "midi": 76,
      "hit": false,
      "t": 27714.258000000005,
      "d": 95.2380000000012,
      "v": 110
    },
    {
      "midi": 78,
      "hit": false,
      "t": 27999.972000000005,
      "d": 95.2380000000012,
      "v": 110
    },
    {
      "midi": 52,
      "hit": false,
      "t": 28285.685999999998,
      "d": 95.2380000000012,
      "v": 110
    },
    {
      "midi": 55,
      "hit": false,
      "t": 28285.685999999998,
      "d": 95.2380000000012,
      "v": 110
    },
    {
      "midi": 79,
      "hit": false,
      "t": 28285.686000000005,
      "d": 95.2380000000012,
      "v": 110
    },
    {
      "midi": 48,
      "hit": false,
      "t": 28571.399999999998,
      "d": 142.85699999999997,
      "v": 110
    },
    {
      "midi": 81,
      "hit": false,
      "t": 28571.400000000005,
      "d": 142.85699999999997,
      "v": 110
    },
    {
      "midi": 52,
      "hit": false,
      "t": 28857.113999999998,
      "d": 142.85699999999997,
      "v": 110
    },
    {
      "midi": 55,
      "hit": false,
      "t": 28857.113999999998,
      "d": 142.85699999999997,
      "v": 110
    },
    {
      "midi": 76,
      "hit": false,
      "t": 29142.828000000005,
      "d": 95.2380000000012,
      "v": 110
    },
    {
      "midi": 52,
      "hit": false,
      "t": 29428.541999999998,
      "d": 95.2380000000012,
      "v": 110
    },
    {
      "midi": 55,
      "hit": false,
      "t": 29428.541999999998,
      "d": 95.2380000000012,
      "v": 110
    },
    {
      "midi": 79,
      "hit": false,
      "t": 29428.542000000005,
      "d": 380.95200000000114,
      "v": 110
    },
    {
      "midi": 48,
      "hit": false,
      "t": 29714.255999999998,
      "d": 142.85699999999997,
      "v": 110
    },
    {
      "midi": 50,
      "hit": false,
      "t": 29999.969999999998,
      "d": 142.85699999999997,
      "v": 110
    },
    {
      "midi": 54,
      "hit": false,
      "t": 29999.969999999998,
      "d": 142.85699999999997,
      "v": 110
    },
    {
      "midi": 78,
      "hit": false,
      "t": 29999.970000000005,
      "d": 47.61899999999878,
      "v": 110
    },
    {
      "midi": 79,
      "hit": false,
      "t": 30071.398500000003,
      "d": 47.61899999999878,
      "v": 110
    },
    {
      "midi": 78,
      "hit": false,
      "t": 30142.827,
      "d": 95.2380000000012,
      "v": 110
    },
    {
      "midi": 76,
      "hit": false,
      "t": 30285.684,
      "d": 95.2380000000012,
      "v": 110
    },
    {
      "midi": 50,
      "hit": false,
      "t": 30571.397999999997,
      "d": 95.2380000000012,
      "v": 110
    },
    {
      "midi": 54,
      "hit": false,
      "t": 30571.397999999997,
      "d": 95.2380000000012,
      "v": 110
    },
    {
      "midi": 78,
      "hit": false,
      "t": 30571.398,
      "d": 95.2380000000012,
      "v": 110
    },
    {
      "midi": 48,
      "hit": false,
      "t": 30857.111999999997,
      "d": 142.85699999999997,
      "v": 110
    },
    {
      "midi": 86,
      "hit": false,
      "t": 30857.112,
      "d": 285.71399999999994,
      "v": 110
    },
    {
      "midi": 50,
      "hit": false,
      "t": 31142.825999999997,
      "d": 142.85699999999997,
      "v": 110
    },
    {
      "midi": 54,
      "hit": false,
      "t": 31142.825999999997,
      "d": 142.85699999999997,
      "v": 110
    },
    {
      "midi": 50,
      "hit": false,
      "t": 31714.253999999997,
      "d": 95.2380000000012,
      "v": 110
    },
    {
      "midi": 54,
      "hit": false,
      "t": 31714.253999999997,
      "d": 95.2380000000012,
      "v": 110
    },
    {
      "midi": 47,
      "hit": false,
      "t": 31999.967999999997,
      "d": 142.85699999999997,
      "v": 110
    },
    {
      "midi": 50,
      "hit": false,
      "t": 32285.681999999997,
      "d": 142.85699999999997,
      "v": 110
    },
    {
      "midi": 54,
      "hit": false,
      "t": 32285.681999999997,
      "d": 142.85699999999997,
      "v": 110
    },
    {
      "midi": 79,
      "hit": false,
      "t": 32285.682,
      "d": 95.2380000000012,
      "v": 110
    },
    {
      "midi": 81,
      "hit": false,
      "t": 32571.396,
      "d": 95.2380000000012,
      "v": 110
    },
    {
      "midi": 50,
      "hit": false,
      "t": 32857.11,
      "d": 95.23799999999756,
      "v": 110
    },
    {
      "midi": 54,
      "hit": false,
      "t": 32857.11,
      "d": 95.23799999999756,
      "v": 110
    },
    {
      "midi": 83,
      "hit": false,
      "t": 32857.11,
      "d": 95.23799999999756,
      "v": 110
    },
    {
      "midi": 46,
      "hit": false,
      "t": 33142.824,
      "d": 142.8570000000036,
      "v": 110
    },
    {
      "midi": 84,
      "hit": false,
      "t": 33142.824,
      "d": 95.23799999999756,
      "v": 110
    },
    {
      "midi": 82,
      "hit": false,
      "t": 33428.538,
      "d": 65.47612500000105,
      "v": 110
    },
    {
      "midi": 50,
      "hit": false,
      "t": 33428.53800000001,
      "d": 142.8570000000036,
      "v": 110
    },
    {
      "midi": 54,
      "hit": false,
      "t": 33428.53800000001,
      "d": 142.8570000000036,
      "v": 110
    },
    {
      "midi": 84,
      "hit": false,
      "t": 33499.9665,
      "d": 65.47612500000105,
      "v": 110
    },
    {
      "midi": 82,
      "hit": false,
      "t": 33571.395000000004,
      "d": 95.23799999999756,
      "v": 110
    },
    {
      "midi": 81,
      "hit": false,
      "t": 33714.252,
      "d": 95.23799999999756,
      "v": 110
    },
    {
      "midi": 79,
      "hit": false,
      "t": 33999.966,
      "d": 380.9519999999975,
      "v": 110
    },
    {
      "midi": 50,
      "hit": false,
      "t": 33999.966000000015,
      "d": 95.23799999999756,
      "v": 110
    },
    {
      "midi": 54,
      "hit": false,
      "t": 33999.966000000015,
      "d": 95.23799999999756,
      "v": 110
    },
    {
      "midi": 45,
      "hit": false,
      "t": 34285.680000000015,
      "d": 142.8570000000036,
      "v": 110
    },
    {
      "midi": 77,
      "hit": false,
      "t": 34571.394,
      "d": 95.23799999999756,
      "v": 110
    },
    {
      "midi": 50,
      "hit": false,
      "t": 34571.39400000002,
      "d": 142.8570000000036,
      "v": 110
    },
    {
      "midi": 53,
      "hit": false,
      "t": 34571.39400000002,
      "d": 142.8570000000036,
      "v": 110
    },
    {
      "midi": 76,
      "hit": false,
      "t": 34857.108,
      "d": 95.23799999999756,
      "v": 110
    },
    {
      "midi": 77,
      "hit": false,
      "t": 35142.822,
      "d": 95.23799999999756,
      "v": 110
    },
    {
      "midi": 50,
      "hit": false,
      "t": 35142.82200000003,
      "d": 95.23799999999756,
      "v": 110
    },
    {
      "midi": 53,
      "hit": false,
      "t": 35142.82200000003,
      "d": 95.23799999999756,
      "v": 110
    },
    {
      "midi": 84,
      "hit": false,
      "t": 35428.536,
      "d": 214.28549999999814,
      "v": 110
    },
    {
      "midi": 44,
      "hit": false,
      "t": 35428.53600000003,
      "d": 142.8570000000036,
      "v": 110
    },
    {
      "midi": 50,
      "hit": false,
      "t": 35714.25000000004,
      "d": 142.8570000000036,
      "v": 110
    },
    {
      "midi": 53,
      "hit": false,
      "t": 35714.25000000004,
      "d": 142.8570000000036,
      "v": 110
    },
    {
      "midi": 77,
      "hit": false,
      "t": 36285.678,
      "d": 95.23799999999756,
      "v": 110
    },
    {
      "midi": 50,
      "hit": false,
      "t": 36285.67800000004,
      "d": 95.23799999999756,
      "v": 110
    },
    {
      "midi": 53,
      "hit": false,
      "t": 36285.67800000004,
      "d": 95.23799999999756,
      "v": 110
    },
    {
      "midi": 77,
      "hit": false,
      "t": 36571.392,
      "d": 214.28549999999814,
      "v": 110
    },
    {
      "midi": 43,
      "hit": false,
      "t": 36571.39200000004,
      "d": 142.8570000000036,
      "v": 110
    },
    {
      "midi": 50,
      "hit": false,
      "t": 36857.10600000005,
      "d": 142.8570000000036,
      "v": 110
    },
    {
      "midi": 53,
      "hit": false,
      "t": 36857.10600000005,
      "d": 142.8570000000036,
      "v": 110
    },
    {
      "midi": 76,
      "hit": false,
      "t": 37428.534,
      "d": 95.23799999999756,
      "v": 110
    },
    {
      "midi": 50,
      "hit": false,
      "t": 37428.53400000006,
      "d": 95.23799999999756,
      "v": 110
    },
    {
      "midi": 53,
      "hit": false,
      "t": 37428.53400000006,
      "d": 95.23799999999756,
      "v": 110
    },
    {
      "midi": 76,
      "hit": false,
      "t": 37714.248,
      "d": 214.28549999999814,
      "v": 110
    },
    {
      "midi": 43,
      "hit": false,
      "t": 37714.24800000006,
      "d": 142.8570000000036,
      "v": 110
    },
    {
      "midi": 50,
      "hit": false,
      "t": 37999.962000000065,
      "d": 142.8570000000036,
      "v": 110
    },
    {
      "midi": 53,
      "hit": false,
      "t": 37999.962000000065,
      "d": 142.8570000000036,
      "v": 110
    },
    {
      "midi": 74,
      "hit": false,
      "t": 38571.39,
      "d": 95.23799999999756,
      "v": 110
    },
    {
      "midi": 50,
      "hit": false,
      "t": 38571.39000000007,
      "d": 95.23799999999756,
      "v": 110
    },
    {
      "midi": 53,
      "hit": false,
      "t": 38571.39000000007,
      "d": 95.23799999999756,
      "v": 110
    },
    {
      "midi": 74,
      "hit": false,
      "t": 38857.104,
      "d": 214.28549999999814,
      "v": 110
    },
    {
      "midi": 43,
      "hit": false,
      "t": 38857.10400000007,
      "d": 142.8570000000036,
      "v": 110
    },
    {
      "midi": 47,
      "hit": false,
      "t": 39142.81800000008,
      "d": 142.8570000000036,
      "v": 110
    },
    {
      "midi": 50,
      "hit": false,
      "t": 39142.81800000008,
      "d": 142.8570000000036,
      "v": 110
    },
    {
      "midi": 47,
      "hit": false,
      "t": 39714.24600000009,
      "d": 95.23799999999756,
      "v": 110
    },
    {
      "midi": 50,
      "hit": false,
      "t": 39714.24600000009,
      "d": 95.23799999999756,
      "v": 110
    },
    {
      "midi": 43,
      "hit": false,
      "t": 39999.96000000009,
      "d": 142.8570000000036,
      "v": 110
    },
    {
      "midi": 47,
      "hit": false,
      "t": 40285.674000000094,
      "d": 142.8570000000036,
      "v": 110
    },
    {
      "midi": 50,
      "hit": false,
      "t": 40285.674000000094,
      "d": 142.8570000000036,
      "v": 110
    },
    {
      "midi": 47,
      "hit": false,
      "t": 40857.1020000001,
      "d": 95.23799999999756,
      "v": 110
    },
    {
      "midi": 50,
      "hit": false,
      "t": 40857.1020000001,
      "d": 95.23799999999756,
      "v": 110
    }
  ]
}