{
  "jsonPath": "Rock/Rock En Espanol/Marciano/custe-o-que-custar.json",
  "path": "Rock\\Rock En Espanol\\Marciano\\Custe O Que Custar.mid",
  "name": "Custe O Que Custar",
  "difficulty": "Advanced",
  "bpm": 81.07998540560263,
  "notes": [
    {
      "midi": 60,
      "hit": false,
      "t": 5920.08,
      "d": 316.04593750000004,
      "v": 100
    },
    {
      "midi": 69,
      "hit": false,
      "t": 5920.08,
      "d": 555.0074999999997,
      "v": 105
    },
    {
      "midi": 65,
      "hit": false,
      "t": 5920.08,
      "d": 624.3834374999997,
      "v": 105
    },
    {
      "midi": 53,
      "hit": false,
      "t": 5920.08,
      "d": 1472.3115624999991,
      "v": 110
    },
    {
      "midi": 60,
      "hit": false,
      "t": 6660.089999999999,
      "d": 61.66749999999956,
      "v": 83
    },
    {
      "midi": 69,
      "hit": false,
      "t": 6660.089999999999,
      "d": 670.6340624999993,
      "v": 120
    },
    {
      "midi": 65,
      "hit": false,
      "t": 6660.089999999999,
      "d": 709.1762499999995,
      "v": 115
    },
    {
      "midi": 60,
      "hit": false,
      "t": 7400.099999999999,
      "d": 30.83374999999978,
      "v": 86
    },
    {
      "midi": 69,
      "hit": false,
      "t": 7400.099999999999,
      "d": 585.8412500000004,
      "v": 110
    },
    {
      "midi": 65,
      "hit": false,
      "t": 7400.099999999999,
      "d": 593.5496875000008,
      "v": 105
    },
    {
      "midi": 53,
      "hit": false,
      "t": 7400.099999999999,
      "d": 1495.4368750000003,
      "v": 105
    },
    {
      "midi": 60,
      "hit": false,
      "t": 8140.110000000001,
      "d": 15.41687499999989,
      "v": 89
    },
    {
      "midi": 65,
      "hit": false,
      "t": 8140.110000000001,
      "d": 601.2581249999985,
      "v": 105
    },
    {
      "midi": 69,
      "hit": false,
      "t": 8140.110000000001,
      "d": 601.2581249999985,
      "v": 110
    },
    {
      "midi": 60,
      "hit": false,
      "t": 8510.115,
      "d": 346.8796874999989,
      "v": 89
    },
    {
      "midi": 60,
      "hit": false,
      "t": 8880.119999999999,
      "d": 308.33750000000146,
      "v": 100
    },
    {
      "midi": 69,
      "hit": false,
      "t": 8880.119999999999,
      "d": 570.4243750000005,
      "v": 100
    },
    {
      "midi": 64,
      "hit": false,
      "t": 8880.119999999999,
      "d": 593.5496875000008,
      "v": 110
    },
    {
      "midi": 52,
      "hit": false,
      "t": 8880.119999999999,
      "d": 1480.0200000000023,
      "v": 110
    },
    {
      "midi": 60,
      "hit": false,
      "t": 9620.13,
      "d": 23.12531250000029,
      "v": 78
    },
    {
      "midi": 69,
      "hit": false,
      "t": 9620.13,
      "d": 439.3809375000019,
      "v": 100
    },
    {
      "midi": 64,
      "hit": false,
      "t": 9620.13,
      "d": 524.1737500000017,
      "v": 105
    },
    {
      "midi": 60,
      "hit": false,
      "t": 10360.140000000001,
      "d": 7.708437499999491,
      "v": 100
    },
    {
      "midi": 64,
      "hit": false,
      "t": 10360.140000000001,
      "d": 485.63156249999884,
      "v": 105
    },
    {
      "midi": 69,
      "hit": false,
      "t": 10360.140000000001,
      "d": 531.8821874999994,
      "v": 100
    },
    {
      "midi": 52,
      "hit": false,
      "t": 10360.140000000001,
      "d": 770.84375,
      "v": 110
    },
    {
      "midi": 64,
      "hit": false,
      "t": 10915.147500000001,
      "d": 169.5856249999997,
      "v": 63
    },
    {
      "midi": 61,
      "hit": false,
      "t": 11100.150000000001,
      "d": 339.1712499999994,
      "v": 109
    },
    {
      "midi": 64,
      "hit": false,
      "t": 11100.150000000001,
      "d": 624.3834374999988,
      "v": 105
    },
    {
      "midi": 69,
      "hit": false,
      "t": 11100.150000000001,
      "d": 647.508749999999,
      "v": 100
    },
    {
      "midi": 49,
      "hit": false,
      "t": 11100.150000000001,
      "d": 817.0943749999988,
      "v": 121
    },
    {
      "midi": 61,
      "hit": false,
      "t": 11470.155,
      "d": 231.25312499999927,
      "v": 58
    },
    {
      "midi": 62,
      "hit": false,
      "t": 11840.16,
      "d": 308.33749999999964,
      "v": 100
    },
    {
      "midi": 69,
      "hit": false,
      "t": 11840.16,
      "d": 555.0074999999997,
      "v": 115
    },
    {
      "midi": 65,
      "hit": false,
      "t": 11840.16,
      "d": 608.9665624999998,
      "v": 115
    },
    {
      "midi": 62,
      "hit": false,
      "t": 12580.17,
      "d": 53.95906250000007,
      "v": 62
    },
    {
      "midi": 69,
      "hit": false,
      "t": 12580.17,
      "d": 562.7159374999992,
      "v": 110
    },
    {
      "midi": 65,
      "hit": false,
      "t": 12580.17,
      "d": 578.1328125,
      "v": 105
    },
    {
      "midi": 62,
      "hit": false,
      "t": 13320.18,
      "d": 15.4168750000008,
      "v": 105
    },
    {
      "midi": 50,
      "hit": false,
      "t": 13320.18,
      "d": 23.12531250000029,
      "v": 110
    },
    {
      "midi": 69,
      "hit": false,
      "t": 13320.18,
      "d": 547.2990625000002,
      "v": 115
    },
    {
      "midi": 65,
      "hit": false,
      "t": 13320.18,
      "d": 562.715937500001,
      "v": 115
    },
    {
      "midi": 62,
      "hit": false,
      "t": 14060.19,
      "d": 30.83374999999978,
      "v": 89
    },
    {
      "midi": 69,
      "hit": false,
      "t": 14060.19,
      "d": 585.8412499999995,
      "v": 110
    },
    {
      "midi": 65,
      "hit": false,
      "t": 14060.19,
      "d": 678.3424999999988,
      "v": 105
    },
    {
      "midi": 62,
      "hit": false,
      "t": 14430.195,
      "d": 339.1712499999994,
      "v": 96
    },
    {
      "midi": 60,
      "hit": false,
      "t": 14800.199999999999,
      "d": 316.0459374999991,
      "v": 105
    },
    {
      "midi": 69,
      "hit": false,
      "t": 14800.199999999999,
      "d": 578.1328125,
      "v": 105
    },
    {
      "midi": 64,
      "hit": false,
      "t": 14800.199999999999,
      "d": 616.6749999999993,
      "v": 110
    },
    {
      "midi": 60,
      "hit": false,
      "t": 15540.209999999997,
      "d": 38.54218749999927,
      "v": 86
    },
    {
      "midi": 69,
      "hit": false,
      "t": 15540.209999999997,
      "d": 531.8821874999994,
      "v": 96
    },
    {
      "midi": 64,
      "hit": false,
      "t": 15540.209999999997,
      "d": 555.0074999999997,
      "v": 105
    },
    {
      "midi": 45,
      "hit": false,
      "t": 16280.219999999998,
      "d": 7.708437499999491,
      "v": 110
    },
    {
      "midi": 60,
      "hit": false,
      "t": 16280.219999999998,
      "d": 7.708437499999491,
      "v": 100
    },
    {
      "midi": 69,
      "hit": false,
      "t": 16280.219999999998,
      "d": 516.4653125000004,
      "v": 96
    },
    {
      "midi": 64,
      "hit": false,
      "t": 16280.219999999998,
      "d": 562.715937500001,
      "v": 110
    },
    {
      "midi": 60,
      "hit": false,
      "t": 17020.23,
      "d": 23.12531250000029,
      "v": 76
    },
    {
      "midi": 69,
      "hit": false,
      "t": 17020.23,
      "d": 655.2171875000022,
      "v": 96
    },
    {
      "midi": 64,
      "hit": false,
      "t": 17020.23,
      "d": 662.9256250000035,
      "v": 96
    },
    {
      "midi": 60,
      "hit": false,
      "t": 17390.235,
      "d": 277.50374999999985,
      "v": 96
    },
    {
      "midi": 62,
      "hit": false,
      "t": 17760.24,
      "d": 292.92062499999884,
      "v": 96
    },
    {
      "midi": 70,
      "hit": false,
      "t": 17760.24,
      "d": 485.63156249999884,
      "v": 116
    },
    {
      "midi": 65,
      "hit": false,
      "t": 17760.24,
      "d": 570.4243749999987,
      "v": 105
    },
    {
      "midi": 46,
      "hit": false,
      "t": 17760.24,
      "d": 1441.4778125000012,
      "v": 125
    },
    {
      "midi": 62,
      "hit": false,
      "t": 18500.25,
      "d": 23.12531250000029,
      "v": 72
    },
    {
      "midi": 70,
      "hit": false,
      "t": 18500.25,
      "d": 447.08937499999956,
      "v": 116
    },
    {
      "midi": 65,
      "hit": false,
      "t": 18500.25,
      "d": 562.715937500001,
      "v": 110
    },
    {
      "midi": 62,
      "hit": false,
      "t": 19240.260000000002,
      "d": 7.70843750000131,
      "v": 86
    },
    {
      "midi": 70,
      "hit": false,
      "t": 19240.260000000002,
      "d": 501.04843750000146,
      "v": 109
    },
    {
      "midi": 65,
      "hit": false,
      "t": 19240.260000000002,
      "d": 555.0074999999997,
      "v": 110
    },
    {
      "midi": 46,
      "hit": false,
      "t": 19240.260000000002,
      "d": 1025.222187499996,
      "v": 109
    },
    {
      "midi": 62,
      "hit": false,
      "t": 19610.265000000003,
      "d": 370.0049999999974,
      "v": 78
    },
    {
      "midi": 62,
      "hit": false,
      "t": 19980.27,
      "d": 246.66999999999825,
      "v": 83
    },
    {
      "midi": 70,
      "hit": false,
      "t": 19980.27,
      "d": 624.383437499997,
      "v": 109
    },
    {
      "midi": 62,
      "hit": false,
      "t": 20350.274999999998,
      "d": 354.5881249999984,
      "v": 89
    },
    {
      "midi": 65,
      "hit": false,
      "t": 20720.279999999995,
      "d": 7.70843750000131,
      "v": 100
    },
    {
      "midi": 60,
      "hit": false,
      "t": 20720.279999999995,
      "d": 285.21218750000116,
      "v": 105
    },
    {
      "midi": 69,
      "hit": false,
      "t": 20720.279999999995,
      "d": 570.4243749999987,
      "v": 105
    },
    {
      "midi": 53,
      "hit": false,
      "t": 20720.279999999995,
      "d": 1495.436875000003,
      "v": 110
    },
    {
      "midi": 60,
      "hit": false,
      "t": 21090.284999999996,
      "d": 362.2965624999997,
      "v": 68
    },
    {
      "midi": 65,
      "hit": false,
      "t": 21275.287499999995,
      "d": 61.66749999999956,
      "v": 25
    },
    {
      "midi": 60,
      "hit": false,
      "t": 21460.289999999997,
      "d": 285.21218750000116,
      "v": 105
    },
    {
      "midi": 69,
      "hit": false,
      "t": 21460.289999999997,
      "d": 686.0509375000001,
      "v": 110
    },
    {
      "midi": 65,
      "hit": false,
      "t": 21460.289999999997,
      "d": 693.7593750000015,
      "v": 110
    },
    {
      "midi": 60,
      "hit": false,
      "t": 21830.295,
      "d": 339.1712499999994,
      "v": 92
    },
    {
      "midi": 62,
      "hit": false,
      "t": 22200.3,
      "d": 292.92062499999884,
      "v": 105
    },
    {
      "midi": 69,
      "hit": false,
      "t": 22200.3,
      "d": 524.1737499999981,
      "v": 115
    },
    {
      "midi": 65,
      "hit": false,
      "t": 22200.3,
      "d": 562.7159374999974,
      "v": 110
    },
    {
      "midi": 50,
      "hit": false,
      "t": 22200.3,
      "d": 1541.6875,
      "v": 105
    },
    {
      "midi": 62,
      "hit": false,
      "t": 22940.309999999998,
      "d": 23.12531250000029,
      "v": 89
    },
    {
      "midi": 69,
      "hit": false,
      "t": 22940.309999999998,
      "d": 508.75687500000276,
      "v": 115
    },
    {
      "midi": 65,
      "hit": false,
      "t": 22940.309999999998,
      "d": 531.882187500003,
      "v": 105
    },
    {
      "midi": 62,
      "hit": false,
      "t": 23310.315,
      "d": 370.005000000001,
      "v": 78
    },
    {
      "midi": 62,
      "hit": false,
      "t": 23680.32,
      "d": 208.12781249999898,
      "v": 96
    },
    {
      "midi": 71,
      "hit": false,
      "t": 23680.32,
      "d": 570.4243749999987,
      "v": 96
    },
    {
      "midi": 67,
      "hit": false,
      "t": 23680.32,
      "d": 709.1762500000004,
      "v": 105
    },
    {
      "midi": 43,
      "hit": false,
      "t": 23680.32,
      "d": 1495.436875000003,
      "v": 115
    },
    {
      "midi": 62,
      "hit": false,
      "t": 24420.33,
      "d": 23.12531250000029,
      "v": 83
    },
    {
      "midi": 71,
      "hit": false,
      "t": 24420.33,
      "d": 570.4243750000023,
      "v": 110
    },
    {
      "midi": 67,
      "hit": false,
      "t": 24420.33,
      "d": 593.5496875000026,
      "v": 110
    },
    {
      "midi": 62,
      "hit": false,
      "t": 24790.335000000003,
      "d": 316.04593750000276,
      "v": 92
    },
    {
      "midi": 60,
      "hit": false,
      "t": 25160.340000000004,
      "d": 269.79531249999854,
      "v": 100
    },
    {
      "midi": 67,
      "hit": false,
      "t": 25160.340000000004,
      "d": 524.1737499999981,
      "v": 110
    },
    {
      "midi": 64,
      "hit": false,
      "t": 25160.340000000004,
      "d": 562.7159374999974,
      "v": 105
    },
    {
      "midi": 48,
      "hit": false,
      "t": 25160.340000000004,
      "d": 1495.4368749999958,
      "v": 96
    },
    {
      "midi": 60,
      "hit": false,
      "t": 25900.350000000002,
      "d": 30.8337500000016,
      "v": 78
    },
    {
      "midi": 67,
      "hit": false,
      "t": 25900.350000000002,
      "d": 724.5931249999994,
      "v": 110
    },
    {
      "midi": 64,
      "hit": false,
      "t": 26270.355000000003,
      "d": 38.54218749999927,
      "v": 43
    },
    {
      "midi": 60,
      "hit": false,
      "t": 26270.355000000003,
      "d": 331.4628124999981,
      "v": 115
    },
    {
      "midi": 53,
      "hit": false,
      "t": 26640.36,
      "d": 2805.871250000004,
      "v": 110
    },
    {
      "midi": 65,
      "hit": false,
      "t": 27010.364999999998,
      "d": 323.75437500000044,
      "v": 120
    },
    {
      "midi": 67,
      "hit": false,
      "t": 27195.367499999997,
      "d": 323.7543750000041,
      "v": 96
    },
    {
      "midi": 69,
      "hit": false,
      "t": 27380.37,
      "d": 254.3784375000032,
      "v": 105
    },
    {
      "midi": 65,
      "hit": false,
      "t": 27565.3725,
      "d": 254.3784375000032,
      "v": 105
    },
    {
      "midi": 72,
      "hit": false,
      "t": 27750.375000000004,
      "d": 277.5037500000035,
      "v": 105
    },
    {
      "midi": 65,
      "hit": false,
      "t": 27935.377500000006,
      "d": 246.6700000000019,
      "v": 96
    },
    {
      "midi": 70,
      "hit": false,
      "t": 28120.38000000001,
      "d": 246.66999999999825,
      "v": 121
    },
    {
      "midi": 65,
      "hit": false,
      "t": 28305.382500000007,
      "d": 238.96156249999694,
      "v": 96
    },
    {
      "midi": 69,
      "hit": false,
      "t": 28490.385000000006,
      "d": 285.2121874999975,
      "v": 110
    },
    {
      "midi": 65,
      "hit": false,
      "t": 28675.387500000004,
      "d": 238.96156249999694,
      "v": 89
    },
    {
      "midi": 67,
      "hit": false,
      "t": 28860.390000000003,
      "d": 285.2121874999975,
      "v": 105
    },
    {
      "midi": 72,
      "hit": false,
      "t": 29045.3925,
      "d": 300.62906250000015,
      "v": 105
    },
    {
      "midi": 65,
      "hit": false,
      "t": 29230.395,
      "d": 292.9206250000025,
      "v": 100
    },
    {
      "midi": 72,
      "hit": false,
      "t": 29415.397500000003,
      "d": 200.41937499999767,
      "v": 115
    },
    {
      "midi": 60,
      "hit": false,
      "t": 29600.4,
      "d": 308.3374999999978,
      "v": 120
    },
    {
      "midi": 48,
      "hit": false,
      "t": 29600.4,
      "d": 2767.329062500001,
      "v": 110
    },
    {
      "midi": 62,
      "hit": false,
      "t": 29785.4025,
      "d": 300.62906250000015,
      "v": 89
    },
    {
      "midi": 60,
      "hit": false,
      "t": 29970.405,
      "d": 316.04593750000276,
      "v": 96
    },
    {
      "midi": 62,
      "hit": false,
      "t": 30155.4075,
      "d": 346.8796874999971,
      "v": 92
    },
    {
      "midi": 64,
      "hit": false,
      "t": 30340.41,
      "d": 300.62906250000015,
      "v": 105
    },
    {
      "midi": 65,
      "hit": false,
      "t": 30525.4125,
      "d": 300.6290625000038,
      "v": 115
    },
    {
      "midi": 64,
      "hit": false,
      "t": 30710.415,
      "d": 370.005000000001,
      "v": 110
    },
    {
      "midi": 65,
      "hit": false,
      "t": 30895.417500000003,
      "d": 354.5881249999984,
      "v": 100
    },
    {
      "midi": 67,
      "hit": false,
      "t": 31080.420000000002,
      "d": 447.08937499999956,
      "v": 110
    },
    {
      "midi": 60,
      "hit": false,
      "t": 31450.425000000003,
      "d": 370.0049999999974,
      "v": 105
    },
    {
      "midi": 62,
      "hit": false,
      "t": 31635.4275,
      "d": 339.1712499999994,
      "v": 86
    },
    {
      "midi": 64,
      "hit": false,
      "t": 31820.43,
      "d": 485.6315625000025,
      "v": 105
    },
    {
      "midi": 65,
      "hit": false,
      "t": 32190.435,
      "d": 300.6290625000038,
      "v": 86
    },
    {
      "midi": 67,
      "hit": false,
      "t": 32375.437500000004,
      "d": 231.2531250000029,
      "v": 105
    },
    {
      "midi": 60,
      "hit": false,
      "t": 32560.440000000006,
      "d": 454.7978125000045,
      "v": 105
    },
    {
      "midi": 57,
      "hit": false,
      "t": 32560.440000000006,
      "d": 501.0484375000051,
      "v": 115
    },
    {
      "midi": 41,
      "hit": false,
      "t": 32560.440000000006,
      "d": 1557.1043750000063,
      "v": 110
    },
    {
      "midi": 53,
      "hit": false,
      "t": 32930.44500000001,
      "d": 531.8821875000067,
      "v": 86
    },
    {
      "midi": 60,
      "hit": false,
      "t": 33300.45000000001,
      "d": 439.38093750000553,
      "v": 89
    },
    {
      "midi": 57,
      "hit": false,
      "t": 33300.45000000001,
      "d": 470.2146875000035,
      "v": 92
    },
    {
      "midi": 53,
      "hit": false,
      "t": 33670.455000000016,
      "d": 501.0484374999942,
      "v": 86
    },
    {
      "midi": 65,
      "hit": false,
      "t": 34040.460000000014,
      "d": 462.50624999999854,
      "v": 100
    },
    {
      "midi": 60,
      "hit": false,
      "t": 34040.460000000014,
      "d": 516.4653124999968,
      "v": 96
    },
    {
      "midi": 48,
      "hit": false,
      "t": 34040.460000000014,
      "d": 1587.938124999986,
      "v": 115
    },
    {
      "midi": 57,
      "hit": false,
      "t": 34410.46500000001,
      "d": 524.1737499999945,
      "v": 76
    },
    {
      "midi": 60,
      "hit": false,
      "t": 34780.47000000001,
      "d": 585.8412499999977,
      "v": 80
    },
    {
      "midi": 65,
      "hit": false,
      "t": 34780.47000000001,
      "d": 601.2581250000003,
      "v": 92
    },
    {
      "midi": 57,
      "hit": false,
      "t": 35150.475000000006,
      "d": 339.1712499999994,
      "v": 92
    },
    {
      "midi": 60,
      "hit": false,
      "t": 35520.48,
      "d": 470.2146874999962,
      "v": 105
    },
    {
      "midi": 57,
      "hit": false,
      "t": 35520.48,
      "d": 539.5906249999971,
      "v": 110
    },
    {
      "midi": 45,
      "hit": false,
      "t": 35520.48,
      "d": 1379.8103125000052,
      "v": 115
    },
    {
      "midi": 52,
      "hit": false,
      "t": 35890.485,
      "d": 578.1328125,
      "v": 92
    },
    {
      "midi": 57,
      "hit": false,
      "t": 36260.49,
      "d": 516.4653125000041,
      "v": 100
    },
    {
      "midi": 60,
      "hit": false,
      "t": 36260.49,
      "d": 516.4653125000041,
      "v": 92
    },
    {
      "midi": 52,
      "hit": false,
      "t": 36630.495,
      "d": 231.2531250000029,
      "v": 86
    },
    {
      "midi": 52,
      "hit": false,
      "t": 37000.50000000001,
      "d": 339.1712499999994,
      "v": 110
    },
    {
      "midi": 64,
      "hit": false,
      "t": 37000.50000000001,
      "d": 501.0484374999942,
      "v": 105
    },
    {
      "midi": 60,
      "hit": false,
      "t": 37000.50000000001,
      "d": 524.1737499999945,
      "v": 110
    },
    {
      "midi": 57,
      "hit": false,
      "t": 37370.505000000005,
      "d": 169.5856249999997,
      "v": 100
    },
    {
      "midi": 64,
      "hit": false,
      "t": 37740.51,
      "d": 555.007500000007,
      "v": 115
    },
    {
      "midi": 72,
      "hit": false,
      "t": 37740.51,
      "d": 932.720937500002,
      "v": 120
    },
    {
      "midi": 71,
      "hit": false,
      "t": 37925.512500000004,
      "d": 740.010000000002,
      "v": 83
    },
    {
      "midi": 69,
      "hit": false,
      "t": 38110.51500000001,
      "d": 547.299062500002,
      "v": 100
    },
    {
      "midi": 64,
      "hit": false,
      "t": 38295.51750000001,
      "d": 400.83874999999534,
      "v": 115
    },
    {
      "midi": 62,
      "hit": false,
      "t": 38480.52000000001,
      "d": 439.380937499991,
      "v": 92
    },
    {
      "midi": 58,
      "hit": false,
      "t": 38480.52000000001,
      "d": 470.21468749998894,
      "v": 116
    },
    {
      "midi": 46,
      "hit": false,
      "t": 38480.52000000001,
      "d": 1533.9790624999805,
      "v": 121
    },
    {
      "midi": 53,
      "hit": false,
      "t": 38850.525,
      "d": 539.5906249999971,
      "v": 89
    },
    {
      "midi": 62,
      "hit": false,
      "t": 39220.53,
      "d": 439.38093749999825,
      "v": 92
    },
    {
      "midi": 58,
      "hit": false,
      "t": 39220.53,
      "d": 470.2146874999962,
      "v": 101
    },
    {
      "midi": 53,
      "hit": false,
      "t": 39590.534999999996,
      "d": 524.1737499999945,
      "v": 86
    },
    {
      "midi": 65,
      "hit": false,
      "t": 39960.53999999999,
      "d": 439.38093749999825,
      "v": 96
    },
    {
      "midi": 62,
      "hit": false,
      "t": 39960.53999999999,
      "d": 477.92312500000116,
      "v": 96
    },
    {
      "midi": 50,
      "hit": false,
      "t": 39960.53999999999,
      "d": 886.4703125000015,
      "v": 110
    },
    {
      "midi": 53,
      "hit": false,
      "t": 40330.54499999999,
      "d": 531.8821875000067,
      "v": 80
    },
    {
      "midi": 46,
      "hit": false,
      "t": 40700.549999999996,
      "d": 208.12781250000262,
      "v": 121
    },
    {
      "midi": 62,
      "hit": false,
      "t": 40700.549999999996,
      "d": 462.5062500000058,
      "v": 100
    },
    {
      "midi": 58,
      "hit": false,
      "t": 40700.549999999996,
      "d": 516.4653125000041,
      "v": 109
    },
    {
      "midi": 53,
      "hit": false,
      "t": 41070.555,
      "d": 447.0893749999959,
      "v": 92
    },
    {
      "midi": 60,
      "hit": false,
      "t": 41440.56,
      "d": 447.0893749999959,
      "v": 100
    },
    {
      "midi": 57,
      "hit": false,
      "t": 41440.56,
      "d": 462.50624999999854,
      "v": 105
    },
    {
      "midi": 41,
      "hit": false,
      "t": 41440.56,
      "d": 932.720937500002,
      "v": 105
    },
    {
      "midi": 53,
      "hit": false,
      "t": 41810.564999999995,
      "d": 508.7568750000064,
      "v": 80
    },
    {
      "midi": 57,
      "hit": false,
      "t": 42180.57,
      "d": 516.4653124999968,
      "v": 96
    },
    {
      "midi": 60,
      "hit": false,
      "t": 42180.57,
      "d": 524.1737499999945,
      "v": 92
    },
    {
      "midi": 53,
      "hit": false,
      "t": 42550.575,
      "d": 200.41937499999767,
      "v": 96
    },
    {
      "midi": 69,
      "hit": false,
      "t": 42920.579999999994,
      "d": 269.7953125000058,
      "v": 115
    },
    {
      "midi": 65,
      "hit": false,
      "t": 42920.579999999994,
      "d": 285.21218750000844,
      "v": 110
    },
    {
      "midi": 53,
      "hit": false,
      "t": 42920.579999999994,
      "d": 770.8437500000146,
      "v": 115
    },
    {
      "midi": 60,
      "hit": false,
      "t": 43105.5825,
      "d": 539.5906250000116,
      "v": 92
    },
    {
      "midi": 65,
      "hit": false,
      "t": 43290.58500000001,
      "d": 377.7134375000023,
      "v": 80
    },
    {
      "midi": 69,
      "hit": false,
      "t": 43475.58750000001,
      "d": 331.46281250000175,
      "v": 105
    },
    {
      "midi": 67,
      "hit": false,
      "t": 43660.59000000001,
      "d": 285.21218750000116,
      "v": 115
    },
    {
      "midi": 52,
      "hit": false,
      "t": 43660.59000000001,
      "d": 824.8028125000055,
      "v": 110
    },
    {
      "midi": 60,
      "hit": false,
      "t": 43845.59250000001,
      "d": 254.3784375000032,
      "v": 105
    },
    {
      "midi": 65,
      "hit": false,
      "t": 44030.595000000016,
      "d": 254.3784375000032,
      "v": 115
    },
    {
      "midi": 64,
      "hit": false,
      "t": 44215.59750000002,
      "d": 177.29406249999738,
      "v": 96
    },
    {
      "midi": 65,
      "hit": false,
      "t": 44400.60000000001,
      "d": 508.7568750000064,
      "v": 110
    },
    {
      "midi": 50,
      "hit": false,
      "t": 44400.60000000001,
      "d": 1549.3959375000122,
      "v": 105
    },
    {
      "midi": 57,
      "hit": false,
      "t": 44770.60500000002,
      "d": 531.8821875000067,
      "v": 96
    },
    {
      "midi": 62,
      "hit": false,
      "t": 45140.61000000002,
      "d": 470.2146875000035,
      "v": 78
    },
    {
      "midi": 65,
      "hit": false,
      "t": 45140.61000000002,
      "d": 470.2146875000035,
      "v": 86
    },
    {
      "midi": 57,
      "hit": false,
      "t": 45510.61500000003,
      "d": 562.7159374999974,
      "v": 83
    },
    {
      "midi": 69,
      "hit": false,
      "t": 45880.620000000024,
      "d": 454.7978125000009,
      "v": 100
    },
    {
      "midi": 65,
      "hit": false,
      "t": 45880.620000000024,
      "d": 501.04843750000146,
      "v": 96
    },
    {
      "midi": 53,
      "hit": false,
      "t": 45880.620000000024,
      "d": 871.0534374999988,
      "v": 105
    },
    {
      "midi": 57,
      "hit": false,
      "t": 46250.62500000002,
      "d": 531.8821874999994,
      "v": 83
    },
    {
      "midi": 50,
      "hit": false,
      "t": 46620.63000000003,
      "d": 208.12781249999534,
      "v": 105
    },
    {
      "midi": 65,
      "hit": false,
      "t": 46620.63000000003,
      "d": 647.5087500000009,
      "v": 92
    },
    {
      "midi": 62,
      "hit": false,
      "t": 46620.63000000003,
      "d": 670.6340625000012,
      "v": 92
    },
    {
      "midi": 57,
      "hit": false,
      "t": 46990.635000000024,
      "d": 339.1712500000067,
      "v": 105
    },
    {
      "midi": 45,
      "hit": false,
      "t": 47360.64000000003,
      "d": 1495.4368749999921,
      "v": 120
    },
    {
      "midi": 52,
      "hit": false,
      "t": 47730.645000000026,
      "d": 948.1378124999974,
      "v": 92
    },
    {
      "midi": 59,
      "hit": false,
      "t": 48470.65500000002,
      "d": 408.5471875000003,
      "v": 92
    },
    {
      "midi": 57,
      "hit": false,
      "t": 48655.65750000002,
      "d": 30.833749999997963,
      "v": 34
    },
    {
      "midi": 60,
      "hit": false,
      "t": 48840.66000000002,
      "d": 501.04843750000146,
      "v": 105
    },
    {
      "midi": 52,
      "hit": false,
      "t": 48840.66000000002,
      "d": 1541.6875,
      "v": 105
    },
    {
      "midi": 57,
      "hit": false,
      "t": 49210.66500000002,
      "d": 1056.055937499994,
      "v": 92
    },
    {
      "midi": 64,
      "hit": false,
      "t": 49580.67000000002,
      "d": 655.2171874999985,
      "v": 96
    },
    {
      "midi": 62,
      "hit": false,
      "t": 50320.680000000015,
      "d": 477.92312500000116,
      "v": 100
    },
    {
      "midi": 58,
      "hit": false,
      "t": 50320.680000000015,
      "d": 493.3400000000038,
      "v": 116
    },
    {
      "midi": 53,
      "hit": false,
      "t": 50690.68500000002,
      "d": 1364.3934374999953,
      "v": 89
    },
    {
      "midi": 58,
      "hit": false,
      "t": 51060.69000000002,
      "d": 1264.1837499999965,
      "v": 78
    },
    {
      "midi": 62,
      "hit": false,
      "t": 51430.695000000014,
      "d": 408.5471875000003,
      "v": 83
    },
    {
      "midi": 46,
      "hit": false,
      "t": 51800.70000000001,
      "d": 46.25062500000058,
      "v": 109
    },
    {
      "midi": 65,
      "hit": false,
      "t": 51800.70000000001,
      "d": 1217.9331250000032,
      "v": 105
    },
    {
      "midi": 53,
      "hit": false,
      "t": 52170.705000000016,
      "d": 678.3424999999988,
      "v": 78
    },
    {
      "midi": 62,
      "hit": false,
      "t": 52540.710000000014,
      "d": 531.8821874999994,
      "v": 78
    },
    {
      "midi": 58,
      "hit": false,
      "t": 52540.710000000014,
      "d": 616.6750000000029,
      "v": 71
    },
    {
      "midi": 53,
      "hit": false,
      "t": 52910.71500000002,
      "d": 485.63156249999884,
      "v": 80
    },
    {
      "midi": 57,
      "hit": false,
      "t": 53280.720000000016,
      "d": 408.54718750000757,
      "v": 115
    },
    {
      "midi": 60,
      "hit": false,
      "t": 53280.720000000016,
      "d": 408.54718750000757,
      "v": 105
    },
    {
      "midi": 41,
      "hit": false,
      "t": 53280.720000000016,
      "d": 1048.3475000000108,
      "v": 110
    },
    {
      "midi": 53,
      "hit": false,
      "t": 53650.72500000002,
      "d": 531.8821875000067,
      "v": 80
    },
    {
      "midi": 65,
      "hit": false,
      "t": 54020.730000000025,
      "d": 462.5062500000058,
      "v": 96
    },
    {
      "midi": 60,
      "hit": false,
      "t": 54020.730000000025,
      "d": 470.2146875000035,
      "v": 86
    },
    {
      "midi": 57,
      "hit": false,
      "t": 54390.73500000003,
      "d": 308.33750000000146,
      "v": 105
    },
    {
      "midi": 69,
      "hit": false,
      "t": 54760.740000000034,
      "d": 316.0459374999991,
      "v": 120
    },
    {
      "midi": 53,
      "hit": false,
      "t": 54760.740000000034,
      "d": 1472.3115624999991,
      "v": 110
    },
    {
      "midi": 60,
      "hit": false,
      "t": 54945.74250000004,
      "d": 354.58812499999476,
      "v": 110
    },
    {
      "midi": 65,
      "hit": false,
      "t": 55130.74500000003,
      "d": 377.7134375000023,
      "v": 92
    },
    {
      "midi": 67,
      "hit": false,
      "t": 55315.747500000034,
      "d": 323.7543749999968,
      "v": 115
    },
    {
      "midi": 69,
      "hit": false,
      "t": 55500.75000000004,
      "d": 793.969062499993,
      "v": 124
    },
    {
      "midi": 67,
      "hit": false,
      "t": 55685.75250000003,
      "d": 346.87968750000437,
      "v": 115
    },
    {
      "midi": 65,
      "hit": false,
      "t": 55870.755000000034,
      "d": 308.33750000000146,
      "v": 100
    },
    {
      "midi": 62,
      "hit": false,
      "t": 56055.757500000036,
      "d": 277.5037499999962,
      "v": 110
    },
    {
      "midi": 60,
      "hit": false,
      "t": 56240.76000000003,
      "d": 462.5062500000058,
      "v": 105
    },
    {
      "midi": 57,
      "hit": false,
      "t": 56240.76000000003,
      "d": 493.3400000000038,
      "v": 110
    },
    {
      "midi": 41,
      "hit": false,
      "t": 56240.76000000003,
      "d": 1557.1043750000026,
      "v": 105
    },
    {
      "midi": 53,
      "hit": false,
      "t": 56610.765000000036,
      "d": 531.8821874999994,
      "v": 80
    },
    {
      "midi": 57,
      "hit": false,
      "t": 56980.77000000003,
      "d": 447.0893750000032,
      "v": 96
    },
    {
      "midi": 60,
      "hit": false,
      "t": 56980.77000000003,
      "d": 470.2146875000035,
      "v": 89
    },
    {
      "midi": 53,
      "hit": false,
      "t": 57350.77500000004,
      "d": 423.96406249999563,
      "v": 65
    },
    {
      "midi": 65,
      "hit": false,
      "t": 57720.780000000035,
      "d": 431.6725000000006,
      "v": 105
    },
    {
      "midi": 60,
      "hit": false,
      "t": 57720.780000000035,
      "d": 516.4653125000041,
      "v": 100
    },
    {
      "midi": 48,
      "hit": false,
      "t": 57720.780000000035,
      "d": 1587.9381249999933,
      "v": 110
    },
    {
      "midi": 57,
      "hit": false,
      "t": 58090.78500000003,
      "d": 524.1737500000017,
      "v": 80
    },
    {
      "midi": 65,
      "hit": false,
      "t": 58460.79000000004,
      "d": 524.1737499999945,
      "v": 100
    },
    {
      "midi": 60,
      "hit": false,
      "t": 58460.79000000004,
      "d": 539.5906249999971,
      "v": 96
    },
    {
      "midi": 57,
      "hit": false,
      "t": 58830.795000000035,
      "d": 362.2965624999997,
      "v": 96
    },
    {
      "midi": 60,
      "hit": false,
      "t": 59200.80000000003,
      "d": 462.50624999999854,
      "v": 100
    },
    {
      "midi": 57,
      "hit": false,
      "t": 59200.80000000003,
      "d": 524.1737500000017,
      "v": 105
    },
    {
      "midi": 45,
      "hit": false,
      "t": 59200.80000000003,
      "d": 1518.5621874999924,
      "v": 115
    },
    {
      "midi": 52,
      "hit": false,
      "t": 59570.80500000003,
      "d": 539.5906250000044,
      "v": 78
    },
    {
      "midi": 60,
      "hit": false,
      "t": 59940.810000000034,
      "d": 501.0484374999942,
      "v": 86
    },
    {
      "midi": 57,
      "hit": false,
      "t": 59940.810000000034,
      "d": 524.1737499999945,
      "v": 89
    },
    {
      "midi": 52,
      "hit": false,
      "t": 60310.81500000003,
      "d": 262.0868749999936,
      "v": 83
    },
    {
      "midi": 60,
      "hit": false,
      "t": 60680.82000000002,
      "d": 477.92312500000844,
      "v": 105
    },
    {
      "midi": 52,
      "hit": false,
      "t": 60680.82000000002,
      "d": 894.1787500000137,
      "v": 110
    },
    {
      "midi": 64,
      "hit": false,
      "t": 61050.825000000026,
      "d": 61.6675000000032,
      "v": 41
    },
    {
      "midi": 57,
      "hit": false,
      "t": 61420.83000000003,
      "d": 15.41687500000262,
      "v": 100
    },
    {
      "midi": 60,
      "hit": false,
      "t": 61420.83000000003,
      "d": 431.67250000000786,
      "v": 100
    },
    {
      "midi": 45,
      "hit": false,
      "t": 61420.83000000003,
      "d": 763.1353125000096,
      "v": 96
    },
    {
      "midi": 52,
      "hit": false,
      "t": 61790.835000000036,
      "d": 508.7568750000064,
      "v": 83
    },
    {
      "midi": 62,
      "hit": false,
      "t": 62160.84000000004,
      "d": 447.0893750000032,
      "v": 96
    },
    {
      "midi": 58,
      "hit": false,
      "t": 62160.84000000004,
      "d": 493.3400000000038,
      "v": 109
    },
    {
      "midi": 46,
      "hit": false,
      "t": 62160.84000000004,
      "d": 1557.1043750000026,
      "v": 125
    },
    {
      "midi": 53,
      "hit": false,
      "t": 62530.845000000045,
      "d": 562.7159374999974,
      "v": 86
    },
    {
      "midi": 62,
      "hit": false,
      "t": 62900.85000000004,
      "d": 462.50624999999854,
      "v": 89
    },
    {
      "midi": 58,
      "hit": false,
      "t": 62900.85000000004,
      "d": 485.63156249999884,
      "v": 93
    },
    {
      "midi": 53,
      "hit": false,
      "t": 63270.85500000004,
      "d": 547.299062500002,
      "v": 89
    },
    {
      "midi": 65,
      "hit": false,
      "t": 63640.860000000044,
      "d": 447.0893749999959,
      "v": 105
    },
    {
      "midi": 62,
      "hit": false,
      "t": 63640.860000000044,
      "d": 508.7568749999991,
      "v": 100
    },
    {
      "midi": 50,
      "hit": false,
      "t": 63640.860000000044,
      "d": 847.9281249999985,
      "v": 105
    },
    {
      "midi": 53,
      "hit": false,
      "t": 64380.870000000046,
      "d": 53.959062499998254,
      "v": 45
    },
    {
      "midi": 46,
      "hit": false,
      "t": 64380.870000000046,
      "d": 238.9615624999933,
      "v": 116
    },
    {
      "midi": 62,
      "hit": false,
      "t": 64380.870000000046,
      "d": 508.75687499999185,
      "v": 100
    },
    {
      "midi": 58,
      "hit": false,
      "t": 64380.870000000046,
      "d": 531.8821874999921,
      "v": 116
    },
    {
      "midi": 53,
      "hit": false,
      "t": 64750.87500000004,
      "d": 393.13031250000495,
      "v": 80
    },
    {
      "midi": 65,
      "hit": false,
      "t": 65120.88000000004,
      "d": 423.96406249999563,
      "v": 100
    },
    {
      "midi": 60,
      "hit": false,
      "t": 65120.88000000004,
      "d": 493.33999999998923,
      "v": 83
    },
    {
      "midi": 41,
      "hit": false,
      "t": 65120.88000000004,
      "d": 925.0124999999898,
      "v": 100
    },
    {
      "midi": 57,
      "hit": false,
      "t": 65490.88500000004,
      "d": 562.7159374999901,
      "v": 83
    },
    {
      "midi": 60,
      "hit": false,
      "t": 65860.89000000003,
      "d": 485.63156249999884,
      "v": 89
    },
    {
      "midi": 65,
      "hit": false,
      "t": 65860.89000000003,
      "d": 516.4653125000041,
      "v": 89
    },
    {
      "midi": 57,
      "hit": false,
      "t": 66230.89500000003,
      "d": 316.0459375000064,
      "v": 100
    },
    {
      "midi": 69,
      "hit": false,
      "t": 66600.90000000004,
      "d": 323.7543750000041,
      "v": 115
    },
    {
      "midi": 53,
      "hit": false,
      "t": 66600.90000000004,
      "d": 778.5521874999977,
      "v": 115
    },
    {
      "midi": 60,
      "hit": false,
      "t": 66785.90250000004,
      "d": 570.4243750000023,
      "v": 96
    },
    {
      "midi": 65,
      "hit": false,
      "t": 66970.90500000004,
      "d": 385.421875,
      "v": 86
    },
    {
      "midi": 69,
      "hit": false,
      "t": 67155.90750000004,
      "d": 323.7543749999895,
      "v": 96
    },
    {
      "midi": 67,
      "hit": false,
      "t": 67340.91000000005,
      "d": 300.62906249998196,
      "v": 110
    },
    {
      "midi": 52,
      "hit": false,
      "t": 67340.91000000005,
      "d": 871.0534374999697,
      "v": 110
    },
    {
      "midi": 60,
      "hit": false,
      "t": 67525.91250000003,
      "d": 292.9206249999843,
      "v": 105
    },
    {
      "midi": 65,
      "hit": false,
      "t": 67710.91500000002,
      "d": 316.0459375000064,
      "v": 105
    },
    {
      "midi": 64,
      "hit": false,
      "t": 67895.91750000003,
      "d": 254.37843749999593,
      "v": 89
    },
    {
      "midi": 65,
      "hit": false,
      "t": 68080.92000000003,
      "d": 454.7978124999936,
      "v": 120
    },
    {
      "midi": 50,
      "hit": false,
      "t": 68080.92000000003,
      "d": 1441.4778124999866,
      "v": 110
    },
    {
      "midi": 57,
      "hit": false,
      "t": 68450.92500000002,
      "d": 531.8821874999994,
      "v": 96
    },
    {
      "midi": 65,
      "hit": false,
      "t": 68820.93000000002,
      "d": 454.7978124999936,
      "v": 100
    },
    {
      "midi": 62,
      "hit": false,
      "t": 68820.93000000002,
      "d": 493.3399999999965,
      "v": 86
    },
    {
      "midi": 57,
      "hit": false,
      "t": 69190.93500000001,
      "d": 555.007500000007,
      "v": 96
    },
    {
      "midi": 69,
      "hit": false,
      "t": 69560.94000000002,
      "d": 454.79781250000815,
      "v": 110
    },
    {
      "midi": 65,
      "hit": false,
      "t": 69560.94000000002,
      "d": 485.6315625000134,
      "v": 105
    },
    {
      "midi": 53,
      "hit": false,
      "t": 69560.94000000002,
      "d": 809.3859375000029,
      "v": 110
    },
    {
      "midi": 57,
      "hit": false,
      "t": 69930.94500000002,
      "d": 501.0484374999942,
      "v": 83
    },
    {
      "midi": 65,
      "hit": false,
      "t": 70300.95000000003,
      "d": 747.7184374999924,
      "v": 105
    },
    {
      "midi": 62,
      "hit": false,
      "t": 70300.95000000003,
      "d": 755.4268749999901,
      "v": 89
    },
    {
      "midi": 50,
      "hit": false,
      "t": 70300.95000000003,
      "d": 840.219687499979,
      "v": 100
    },
    {
      "midi": 57,
      "hit": false,
      "t": 70670.95500000002,
      "d": 408.547187499993,
      "v": 96
    },
    {
      "midi": 45,
      "hit": false,
      "t": 71040.96000000002,
      "d": 1541.6874999999854,
      "v": 120
    },
    {
      "midi": 52,
      "hit": false,
      "t": 71410.96500000001,
      "d": 1125.4318750000093,
      "v": 92
    },
    {
      "midi": 59,
      "hit": false,
      "t": 72150.97500000002,
      "d": 400.83874999999534,
      "v": 89
    },
    {
      "midi": 57,
      "hit": false,
      "t": 72520.98000000003,
      "d": 46.25062499998603,
      "v": 41
    },
    {
      "midi": 60,
      "hit": false,
      "t": 72520.98000000003,
      "d": 477.92312499997206,
      "v": 110
    },
    {
      "midi": 48,
      "hit": false,
      "t": 72520.98000000003,
      "d": 847.9281249999622,
      "v": 100
    },
    {
      "midi": 52,
      "hit": false,
      "t": 72890.985,
      "d": 578.1328124999854,
      "v": 78
    },
    {
      "midi": 57,
      "hit": false,
      "t": 73260.98999999999,
      "d": 470.21468749998894,
      "v": 100
    },
    {
      "midi": 60,
      "hit": false,
      "t": 73260.98999999999,
      "d": 477.9231249999866,
      "v": 83
    },
    {
      "midi": 45,
      "hit": false,
      "t": 73260.98999999999,
      "d": 809.3859374999738,
      "v": 110
    },
    {
      "midi": 52,
      "hit": false,
      "t": 73630.99499999998,
      "d": 493.33999999998196,
      "v": 80
    },
    {
      "midi": 58,
      "hit": false,
      "t": 74000.99999999997,
      "d": 501.0484374999942,
      "v": 109
    },
    {
      "midi": 62,
      "hit": false,
      "t": 74000.99999999997,
      "d": 516.4653124999895,
      "v": 105
    },
    {
      "midi": 46,
      "hit": false,
      "t": 74000.99999999997,
      "d": 1472.3115625000064,
      "v": 121
    },
    {
      "midi": 58,
      "hit": false,
      "t": 74741.00999999997,
      "d": 547.2990625000093,
      "v": 101
    },
    {
      "midi": 62,
      "hit": false,
      "t": 75481.01999999997,
      "d": 15.416874999995343,
      "v": 105
    },
    {
      "midi": 53,
      "hit": false,
      "t": 75481.01999999997,
      "d": 30.833749999990687,
      "v": 89
    },
    {
      "midi": 46,
      "hit": false,
      "t": 75481.01999999997,
      "d": 1611.0634375000081,
      "v": 109
    },
    {
      "midi": 53,
      "hit": false,
      "t": 75851.02499999997,
      "d": 1009.8053125000151,
      "v": 70
    },
    {
      "midi": 58,
      "hit": false,
      "t": 76221.02999999997,
      "d": 601.2581250000076,
      "v": 109
    },
    {
      "midi": 62,
      "hit": false,
      "t": 76591.03499999997,
      "d": 331.46281250000175,
      "v": 70
    },
    {
      "midi": 57,
      "hit": false,
      "t": 76961.03999999998,
      "d": 439.38093749999825,
      "v": 110
    },
    {
      "midi": 60,
      "hit": false,
      "t": 76961.03999999998,
      "d": 447.0893749999959,
      "v": 100
    },
    {
      "midi": 41,
      "hit": false,
      "t": 76961.03999999998,
      "d": 2828.996562500033,
      "v": 96
    },
    {
      "midi": 53,
      "hit": false,
      "t": 77331.04499999998,
      "d": 200.41937499999767,
      "v": 92
    },
    {
      "midi": 69,
      "hit": false,
      "t": 77701.04999999999,
      "d": 308.33750000000873,
      "v": 120
    },
    {
      "midi": 60,
      "hit": false,
      "t": 77886.05249999999,
      "d": 231.2531250000029,
      "v": 100
    },
    {
      "midi": 65,
      "hit": false,
      "t": 78071.055,
      "d": 377.7134375000023,
      "v": 100
    },
    {
      "midi": 67,
      "hit": false,
      "t": 78256.0575,
      "d": 323.7543750000041,
      "v": 110
    },
    {
      "midi": 69,
      "hit": false,
      "t": 78441.06,
      "d": 308.33750000000873,
      "v": 124
    },
    {
      "midi": 67,
      "hit": false,
      "t": 78626.0625,
      "d": 292.92062499999884,
      "v": 96
    },
    {
      "midi": 65,
      "hit": false,
      "t": 78811.065,
      "d": 285.21218750000116,
      "v": 89
    },
    {
      "midi": 62,
      "hit": false,
      "t": 78996.0675,
      "d": 215.83625000000757,
      "v": 86
    },
    {
      "midi": 60,
      "hit": false,
      "t": 79181.07,
      "d": 277.5037500000035,
      "v": 76
    },
    {
      "midi": 57,
      "hit": false,
      "t": 79366.07250000001,
      "d": 223.54468750000524,
      "v": 92
    },
    {
      "midi": 53,
      "hit": false,
      "t": 79551.07500000001,
      "d": 215.83625000000757,
      "v": 96
    },
    {
      "midi": 69,
      "hit": false,
      "t": 79921.08000000002,
      "d": 447.0893750000105,
      "v": 96
    },
    {
      "midi": 66,
      "hit": false,
      "t": 79921.08000000002,
      "d": 454.79781250000815,
      "v": 109
    },
    {
      "midi": 64,
      "hit": false,
      "t": 79921.08000000002,
      "d": 539.5906250000116,
      "v": 100
    },
    {
      "midi": 50,
      "hit": false,
      "t": 79921.08000000002,
      "d": 1518.562187500007,
      "v": 105
    },
    {
      "midi": 62,
      "hit": false,
      "t": 80291.08500000002,
      "d": 470.2146875000035,
      "v": 92
    },
    {
      "midi": 69,
      "hit": false,
      "t": 80661.09000000003,
      "d": 431.6725000000006,
      "v": 100
    },
    {
      "midi": 66,
      "hit": false,
      "t": 80661.09000000003,
      "d": 470.2146875000035,
      "v": 116
    },
    {
      "midi": 64,
      "hit": false,
      "t": 80661.09000000003,
      "d": 539.5906249999971,
      "v": 92
    },
    {
      "midi": 62,
      "hit": false,
      "t": 81031.09500000003,
      "d": 516.4653124999895,
      "v": 92
    },
    {
      "midi": 69,
      "hit": false,
      "t": 81401.10000000002,
      "d": 431.6725000000006,
      "v": 92
    },
    {
      "midi": 66,
      "hit": false,
      "t": 81401.10000000002,
      "d": 477.92312500000116,
      "v": 116
    },
    {
      "midi": 64,
      "hit": false,
      "t": 81401.10000000002,
      "d": 508.7568750000064,
      "v": 92
    },
    {
      "midi": 52,
      "hit": false,
      "t": 81401.10000000002,
      "d": 1595.6465624999837,
      "v": 115
    },
    {
      "midi": 62,
      "hit": false,
      "t": 81771.10500000003,
      "d": 524.1737500000017,
      "v": 80
    },
    {
      "midi": 66,
      "hit": false,
      "t": 82141.11000000003,
      "d": 539.5906249999825,
      "v": 109
    },
    {
      "midi": 64,
      "hit": false,
      "t": 82141.11000000003,
      "d": 562.7159374999756,
      "v": 96
    },
    {
      "midi": 69,
      "hit": false,
      "t": 82511.11500000002,
      "d": 53.959062499998254,
      "v": 45
    },
    {
      "midi": 62,
      "hit": false,
      "t": 82511.11500000002,
      "d": 416.2556249999907,
      "v": 92
    },
    {
      "midi": 69,
      "hit": false,
      "t": 82881.12000000001,
      "d": 555.0074999999924,
      "v": 115
    },
    {
      "midi": 45,
      "hit": false,
      "t": 82881.12000000001,
      "d": 1456.894687499982,
      "v": 110
    },
    {
      "midi": 61,
      "hit": false,
      "t": 83251.125,
      "d": 632.0918749999983,
      "v": 78
    },
    {
      "midi": 69,
      "hit": false,
      "t": 83621.13,
      "d": 1110.0149999999849,
      "v": 100
    },
    {
      "midi": 64,
      "hit": false,
      "t": 83621.13,
      "d": 1117.7234374999825,
      "v": 89
    },
    {
      "midi": 61,
      "hit": false,
      "t": 83991.135,
      "d": 693.7593749999942,
      "v": 109
    },
    {
      "midi": 45,
      "hit": false,
      "t": 84361.13999999998,
      "d": 1086.8896875000064,
      "v": 115
    },
    {
      "midi": 61,
      "hit": false,
      "t": 84731.14499999999,
      "d": 215.83625000000757,
      "v": 125
    },
    {
      "midi": 62,
      "hit": false,
      "t": 84916.14749999999,
      "d": 254.37843749999593,
      "v": 83
    },
    {
      "midi": 64,
      "hit": false,
      "t": 85101.15,
      "d": 215.83624999999302,
      "v": 105
    },
    {
      "midi": 69,
      "hit": false,
      "t": 85286.15249999998,
      "d": 393.1303125000122,
      "v": 124
    },
    {
      "midi": 69,
      "hit": false,
      "t": 85841.15999999999,
      "d": 416.25562500000524,
      "v": 96
    },
    {
      "midi": 66,
      "hit": false,
      "t": 85841.15999999999,
      "d": 454.79781250000815,
      "v": 116
    },
    {
      "midi": 64,
      "hit": false,
      "t": 85841.15999999999,
      "d": 516.4653125000041,
      "v": 100
    },
    {
      "midi": 47,
      "hit": false,
      "t": 85841.15999999999,
      "d": 1503.145312499997,
      "v": 105
    },
    {
      "midi": 62,
      "hit": false,
      "t": 86211.165,
      "d": 408.54718750000757,
      "v": 86
    },
    {
      "midi": 69,
      "hit": false,
      "t": 86581.17,
      "d": 431.6725000000006,
      "v": 96
    },
    {
      "midi": 66,
      "hit": false,
      "t": 86581.17,
      "d": 454.7978124999936,
      "v": 109
    },
    {
      "midi": 64,
      "hit": false,
      "t": 86581.17,
      "d": 555.0074999999924,
      "v": 96
    },
    {
      "midi": 62,
      "hit": false,
      "t": 86951.175,
      "d": 416.25562499997613,
      "v": 100
    },
    {
      "midi": 69,
      "hit": false,
      "t": 87321.18,
      "d": 431.67249999998603,
      "v": 100
    },
    {
      "midi": 66,
      "hit": false,
      "t": 87321.18,
      "d": 470.21468749998894,
      "v": 121
    },
    {
      "midi": 64,
      "hit": false,
      "t": 87321.18,
      "d": 516.4653124999895,
      "v": 100
    },
    {
      "midi": 52,
      "hit": false,
      "t": 87321.18,
      "d": 1557.1043749999953,
      "v": 110
    },
    {
      "midi": 62,
      "hit": false,
      "t": 87691.18499999998,
      "d": 555.007500000007,
      "v": 86
    },
    {
      "midi": 66,
      "hit": false,
      "t": 88061.18999999999,
      "d": 516.4653125000041,
      "v": 109
    },
    {
      "midi": 69,
      "hit": false,
      "t": 88061.18999999999,
      "d": 516.4653125000041,
      "v": 92
    },
    {
      "midi": 64,
      "hit": false,
      "t": 88061.18999999999,
      "d": 555.007500000007,
      "v": 96
    },
    {
      "midi": 62,
      "hit": false,
      "t": 88431.19499999999,
      "d": 393.1303124999977,
      "v": 89
    },
    {
      "midi": 69,
      "hit": false,
      "t": 88801.2,
      "d": 439.3809374999837,
      "v": 105
    },
    {
      "midi": 64,
      "hit": false,
      "t": 88801.2,
      "d": 501.0484374999796,
      "v": 105
    },
    {
      "midi": 45,
      "hit": false,
      "t": 88801.2,
      "d": 1441.4778124999866,
      "v": 115
    },
    {
      "midi": 61,
      "hit": false,
      "t": 89171.20499999999,
      "d": 539.5906249999971,
      "v": 93
    },
    {
      "midi": 69,
      "hit": false,
      "t": 89541.20999999998,
      "d": 454.79781250000815,
      "v": 96
    },
    {
      "midi": 64,
      "hit": false,
      "t": 89541.20999999998,
      "d": 539.5906250000116,
      "v": 89
    },
    {
      "midi": 61,
      "hit": false,
      "t": 90281.21999999999,
      "d": 46.25062500000058,
      "v": 74
    },
    {
      "midi": 69,
      "hit": false,
      "t": 90281.21999999999,
      "d": 431.6725000000006,
      "v": 105
    },
    {
      "midi": 64,
      "hit": false,
      "t": 90281.21999999999,
      "d": 477.92312500000116,
      "v": 110
    },
    {
      "midi": 45,
      "hit": false,
      "t": 90281.21999999999,
      "d": 1487.7284375000017,
      "v": 115
    },
    {
      "midi": 61,
      "hit": false,
      "t": 90651.22499999999,
      "d": 200.41937499999767,
      "v": 125
    },
    {
      "midi": 62,
      "hit": false,
      "t": 90836.2275,
      "d": 231.2531250000029,
      "v": 83
    },
    {
      "midi": 64,
      "hit": false,
      "t": 91021.23,
      "d": 192.7109375,
      "v": 105
    },
    {
      "midi": 69,
      "hit": false,
      "t": 91206.2325,
      "d": 416.2556249999907,
      "v": 120
    },
    {
      "midi": 63,
      "hit": false,
      "t": 91761.23999999999,
      "d": 416.25562500000524,
      "v": 109
    },
    {
      "midi": 66,
      "hit": false,
      "t": 91761.23999999999,
      "d": 439.38093749999825,
      "v": 116
    },
    {
      "midi": 51,
      "hit": false,
      "t": 91761.23999999999,
      "d": 1495.4368749999849,
      "v": 125
    },
    {
      "midi": 58,
      "hit": false,
      "t": 92131.245,
      "d": 408.547187499993,
      "v": 93
    },
    {
      "midi": 63,
      "hit": false,
      "t": 92501.24999999999,
      "d": 439.38093749999825,
      "v": 93
    },
    {
      "midi": 66,
      "hit": false,
      "t": 92501.24999999999,
      "d": 439.38093749999825,
      "v": 109
    },
    {
      "midi": 58,
      "hit": false,
      "t": 92871.25499999999,
      "d": 431.67249999998603,
      "v": 116
    },
    {
      "midi": 66,
      "hit": false,
      "t": 93241.25999999998,
      "d": 431.67249999998603,
      "v": 93
    },
    {
      "midi": 70,
      "hit": false,
      "t": 93241.25999999998,
      "d": 439.3809374999837,
      "v": 116
    },
    {
      "midi": 54,
      "hit": false,
      "t": 93241.25999999998,
      "d": 817.094374999986,
      "v": 121
    },
    {
      "midi": 58,
      "hit": false,
      "t": 93611.26499999997,
      "d": 462.50624999999127,
      "v": 109
    },
    {
      "midi": 66,
      "hit": false,
      "t": 93981.26999999996,
      "d": 416.25562500000524,
      "v": 121
    },
    {
      "midi": 63,
      "hit": false,
      "t": 93981.26999999996,
      "d": 423.9640625000029,
      "v": 116
    },
    {
      "midi": 51,
      "hit": false,
      "t": 93981.26999999996,
      "d": 593.5496875000099,
      "v": 121
    },
    {
      "midi": 58,
      "hit": false,
      "t": 94351.27499999997,
      "d": 254.37843750001048,
      "v": 121
    },
    {
      "midi": 65,
      "hit": false,
      "t": 94721.27999999997,
      "d": 431.6725000000006,
      "v": 92
    },
    {
      "midi": 61,
      "hit": false,
      "t": 94721.27999999997,
      "d": 454.7978124999936,
      "v": 116
    },
    {
      "midi": 49,
      "hit": false,
      "t": 94721.27999999997,
      "d": 1449.1862499999988,
      "v": 125
    },
    {
      "midi": 56,
      "hit": false,
      "t": 95091.28499999997,
      "d": 501.0484374999942,
      "v": 93
    },
    {
      "midi": 65,
      "hit": false,
      "t": 95461.28999999996,
      "d": 439.38093749999825,
      "v": 96
    },
    {
      "midi": 61,
      "hit": false,
      "t": 95461.28999999996,
      "d": 732.3015624999971,
      "v": 85
    },
    {
      "midi": 56,
      "hit": false,
      "t": 95831.29499999997,
      "d": 346.8796874999971,
      "v": 93
    },
    {
      "midi": 68,
      "hit": false,
      "t": 96201.29999999996,
      "d": 316.0459375000064,
      "v": 121
    },
    {
      "midi": 49,
      "hit": false,
      "t": 96201.29999999996,
      "d": 1433.7693750000035,
      "v": 109
    },
    {
      "midi": 56,
      "hit": false,
      "t": 96386.30249999996,
      "d": 292.92062499999884,
      "v": 116
    },
    {
      "midi": 61,
      "hit": false,
      "t": 96756.30749999997,
      "d": 77.08437500000582,
      "v": 46
    },
    {
      "midi": 63,
      "hit": false,
      "t": 96756.30749999997,
      "d": 246.66999999999825,
      "v": 109
    },
    {
      "midi": 65,
      "hit": false,
      "t": 96941.30999999997,
      "d": 208.12781249999534,
      "v": 110
    },
    {
      "midi": 68,
      "hit": false,
      "t": 97126.31249999997,
      "d": 416.2556249999907,
      "v": 127
    },
    {
      "midi": 66,
      "hit": false,
      "t": 97681.31999999996,
      "d": 385.421875,
      "v": 93
    },
    {
      "midi": 63,
      "hit": false,
      "t": 97681.31999999996,
      "d": 400.83874999999534,
      "v": 116
    },
    {
      "midi": 61,
      "hit": false,
      "t": 97681.31999999996,
      "d": 462.50624999999127,
      "v": 116
    },
    {
      "midi": 51,
      "hit": false,
      "t": 97681.31999999996,
      "d": 948.1378124999901,
      "v": 121
    },
    {
      "midi": 58,
      "hit": false,
      "t": 98421.32999999996,
      "d": 53.959062499998254,
      "v": 67
    },
    {
      "midi": 63,
      "hit": false,
      "t": 98421.32999999996,
      "d": 516.4653124999895,
      "v": 101
    },
    {
      "midi": 61,
      "hit": false,
      "t": 98421.32999999996,
      "d": 562.7159374999901,
      "v": 109
    },
    {
      "midi": 66,
      "hit": false,
      "t": 98421.32999999996,
      "d": 562.7159374999901,
      "v": 101
    },
    {
      "midi": 58,
      "hit": false,
      "t": 98791.33499999995,
      "d": 269.7953125000058,
      "v": 101
    },
    {
      "midi": 54,
      "hit": false,
      "t": 99161.33999999995,
      "d": 269.7953125000058,
      "v": 116
    },
    {
      "midi": 58,
      "hit": false,
      "t": 99161.33999999995,
      "d": 485.63156249999884,
      "v": 109
    },
    {
      "midi": 61,
      "hit": false,
      "t": 99161.33999999995,
      "d": 493.3399999999965,
      "v": 101
    },
    {
      "midi": 42,
      "hit": false,
      "t": 99161.33999999995,
      "d": 778.5521874999977,
      "v": 121
    },
    {
      "midi": 54,
      "hit": false,
      "t": 99531.34499999996,
      "d": 185.00249999998778,
      "v": 101
    },
    {
      "midi": 56,
      "hit": false,
      "t": 99901.34999999995,
      "d": 254.37843749999593,
      "v": 121
    },
    {
      "midi": 60,
      "hit": false,
      "t": 99901.34999999995,
      "d": 477.9231249999866,
      "v": 105
    },
    {
      "midi": 63,
      "hit": false,
      "t": 99901.34999999995,
      "d": 508.75687499999185,
      "v": 116
    },
    {
      "midi": 44,
      "hit": false,
      "t": 99901.34999999995,
      "d": 647.508749999979,
      "v": 127
    },
    {
      "midi": 56,
      "hit": false,
      "t": 100271.35499999994,
      "d": 208.12781249999534,
      "v": 121
    },
    {
      "midi": 68,
      "hit": false,
      "t": 100641.35999999993,
      "d": 462.5062500000058,
      "v": 109
    },
    {
      "midi": 65,
      "hit": false,
      "t": 100641.35999999993,
      "d": 501.04843750000873,
      "v": 100
    },
    {
      "midi": 49,
      "hit": false,
      "t": 100641.35999999993,
      "d": 1495.4368749999994,
      "v": 121
    },
    {
      "midi": 61,
      "hit": false,
      "t": 101381.36999999994,
      "d": 46.25062500000058,
      "v": 49
    },
    {
      "midi": 65,
      "hit": false,
      "t": 101381.36999999994,
      "d": 516.4653125000041,
      "v": 100
    },
    {
      "midi": 68,
      "hit": false,
      "t": 101381.36999999994,
      "d": 585.8412499999977,
      "v": 101
    },
    {
      "midi": 61,
      "hit": false,
      "t": 101751.37499999994,
      "d": 231.25312499998836,
      "v": 78
    },
    {
      "midi": 59,
      "hit": false,
      "t": 102121.37999999993,
      "d": 269.79531249999127,
      "v": 115
    },
    {
      "midi": 62,
      "hit": false,
      "t": 102121.37999999993,
      "d": 539.5906249999971,
      "v": 120
    },
    {
      "midi": 67,
      "hit": false,
      "t": 102121.37999999993,
      "d": 539.5906249999971,
      "v": 115
    },
    {
      "midi": 43,
      "hit": false,
      "t": 102121.37999999993,
      "d": 793.969062499993,
      "v": 115
    },
    {
      "midi": 59,
      "hit": false,
      "t": 102491.38499999992,
      "d": 269.7953125000058,
      "v": 92
    },
    {
      "midi": 61,
      "hit": false,
      "t": 102861.38999999993,
      "d": 423.9640625000029,
      "v": 121
    },
    {
      "midi": 64,
      "hit": false,
      "t": 102861.38999999993,
      "d": 431.6725000000006,
      "v": 105
    },
    {
      "midi": 69,
      "hit": false,
      "t": 102861.38999999993,
      "d": 439.38093749999825,
      "v": 105
    },
    {
      "midi": 45,
      "hit": false,
      "t": 102861.38999999993,
      "d": 524.1737500000017,
      "v": 124
    },
    {
      "midi": 66,
      "hit": false,
      "t": 103601.39999999992,
      "d": 439.38093749999825,
      "v": 121
    },
    {
      "midi": 62,
      "hit": false,
      "t": 103601.39999999992,
      "d": 470.2146875000035,
      "v": 100
    },
    {
      "midi": 50,
      "hit": false,
      "t": 103601.39999999992,
      "d": 1456.894687500011,
      "v": 115
    },
    {
      "midi": 57,
      "hit": false,
      "t": 103971.40499999993,
      "d": 555.007500000007,
      "v": 96
    },
    {
      "midi": 66,
      "hit": false,
      "t": 104341.40999999993,
      "d": 501.04843750000873,
      "v": 116
    },
    {
      "midi": 69,
      "hit": false,
      "t": 104341.40999999993,
      "d": 501.04843750000873,
      "v": 110
    },
    {
      "midi": 62,
      "hit": false,
      "t": 104341.40999999993,
      "d": 516.4653125000041,
      "v": 105
    },
    {
      "midi": 57,
      "hit": false,
      "t": 104711.41499999994,
      "d": 531.8821874999849,
      "v": 89
    },
    {
      "midi": 66,
      "hit": false,
      "t": 105081.41999999993,
      "d": 493.3399999999965,
      "v": 116
    },
    {
      "midi": 62,
      "hit": false,
      "t": 105081.41999999993,
      "d": 501.0484374999942,
      "v": 100
    },
    {
      "midi": 69,
      "hit": false,
      "t": 105081.41999999993,
      "d": 524.1737499999872,
      "v": 105
    },
    {
      "midi": 50,
      "hit": false,
      "t": 105081.41999999993,
      "d": 1595.6465624999837,
      "v": 115
    },
    {
      "midi": 57,
      "hit": false,
      "t": 105821.4299999999,
      "d": 53.959062499998254,
      "v": 86
    },
    {
      "midi": 62,
      "hit": false,
      "t": 105821.4299999999,
      "d": 408.54718750000757,
      "v": 100
    },
    {
      "midi": 69,
      "hit": false,
      "t": 105821.4299999999,
      "d": 431.6725000000006,
      "v": 100
    },
    {
      "midi": 66,
      "hit": false,
      "t": 105821.4299999999,
      "d": 439.38093749999825,
      "v": 109
    },
    {
      "midi": 57,
      "hit": false,
      "t": 106191.43499999991,
      "d": 408.547187499993,
      "v": 96
    },
    {
      "midi": 66,
      "hit": false,
      "t": 106561.4399999999,
      "d": 462.5062500000058,
      "v": 109
    },
    {
      "midi": 69,
      "hit": false,
      "t": 106561.4399999999,
      "d": 555.007500000007,
      "v": 105
    },
    {
      "midi": 61,
      "hit": false,
      "t": 106561.4399999999,
      "d": 570.4243750000023,
      "v": 109
    },
    {
      "midi": 49,
      "hit": false,
      "t": 106561.4399999999,
      "d": 1472.3115624999919,
      "v": 125
    },
    {
      "midi": 57,
      "hit": false,
      "t": 106931.4449999999,
      "d": 578.1328125,
      "v": 78
    },
    {
      "midi": 69,
      "hit": false,
      "t": 107301.44999999991,
      "d": 416.2556249999907,
      "v": 110
    },
    {
      "midi": 66,
      "hit": false,
      "t": 107301.44999999991,
      "d": 439.3809374999837,
      "v": 116
    },
    {
      "midi": 61,
      "hit": false,
      "t": 107301.44999999991,
      "d": 516.4653124999895,
      "v": 109
    },
    {
      "midi": 57,
      "hit": false,
      "t": 108041.45999999989,
      "d": 53.959062499998254,
      "v": 86
    },
    {
      "midi": 69,
      "hit": false,
      "t": 108041.45999999989,
      "d": 423.9640625000029,
      "v": 105
    },
    {
      "midi": 66,
      "hit": false,
      "t": 108041.45999999989,
      "d": 508.7568750000064,
      "v": 101
    },
    {
      "midi": 61,
      "hit": false,
      "t": 108041.45999999989,
      "d": 516.4653125000041,
      "v": 116
    },
    {
      "midi": 49,
      "hit": false,
      "t": 108041.45999999989,
      "d": 747.7184374999924,
      "v": 121
    },
    {
      "midi": 57,
      "hit": false,
      "t": 108411.4649999999,
      "d": 161.87718749999476,
      "v": 92
    },
    {
      "midi": 58,
      "hit": false,
      "t": 108781.46999999988,
      "d": 262.0868749999936,
      "v": 121
    },
    {
      "midi": 61,
      "hit": false,
      "t": 108781.46999999988,
      "d": 547.2990624999948,
      "v": 121
    },
    {
      "midi": 66,
      "hit": false,
      "t": 108781.46999999988,
      "d": 616.6750000000029,
      "v": 109
    },
    {
      "midi": 42,
      "hit": false,
      "t": 108781.46999999988,
      "d": 770.8437500000146,
      "v": 125
    },
    {
      "midi": 58,
      "hit": false,
      "t": 109151.47499999987,
      "d": 215.83625000000757,
      "v": 101
    },
    {
      "midi": 59,
      "hit": false,
      "t": 109521.4799999999,
      "d": 269.7953125000058,
      "v": 100
    },
    {
      "midi": 66,
      "hit": false,
      "t": 109521.4799999999,
      "d": 462.5062500000058,
      "v": 121
    },
    {
      "midi": 62,
      "hit": false,
      "t": 109521.4799999999,
      "d": 516.4653125000041,
      "v": 105
    },
    {
      "midi": 47,
      "hit": false,
      "t": 109521.4799999999,
      "d": 1456.8946874999965,
      "v": 120
    },
    {
      "midi": 59,
      "hit": false,
      "t": 110261.4899999999,
      "d": 61.667499999995925,
      "v": 55
    },
    {
      "midi": 66,
      "hit": false,
      "t": 110261.4899999999,
      "d": 578.1328124999854,
      "v": 121
    },
    {
      "midi": 59,
      "hit": false,
      "t": 110631.4949999999,
      "d": 362.29656249999243,
      "v": 86
    },
    {
      "midi": 62,
      "hit": false,
      "t": 111001.49999999988,
      "d": 23.125312499993015,
      "v": 68
    },
    {
      "midi": 71,
      "hit": false,
      "t": 111001.49999999988,
      "d": 431.67249999998603,
      "v": 110
    },
    {
      "midi": 47,
      "hit": false,
      "t": 111001.49999999988,
      "d": 1557.1043749999953,
      "v": 105
    },
    {
      "midi": 59,
      "hit": false,
      "t": 111741.50999999986,
      "d": 38.54218750000291,
      "v": 92
    },
    {
      "midi": 66,
      "hit": false,
      "t": 111741.50999999986,
      "d": 493.34000000001106,
      "v": 116
    },
    {
      "midi": 62,
      "hit": false,
      "t": 111741.50999999986,
      "d": 701.4678125000064,
      "v": 105
    },
    {
      "midi": 59,
      "hit": false,
      "t": 112111.51499999987,
      "d": 370.00500000000466,
      "v": 89
    },
    {
      "midi": 57,
      "hit": false,
      "t": 112481.51999999987,
      "d": 246.6700000000128,
      "v": 105
    },
    {
      "midi": 66,
      "hit": false,
      "t": 112481.51999999987,
      "d": 524.1737500000163,
      "v": 121
    },
    {
      "midi": 61,
      "hit": false,
      "t": 112481.51999999987,
      "d": 555.0075000000215,
      "v": 121
    },
    {
      "midi": 42,
      "hit": false,
      "t": 112481.51999999987,
      "d": 1503.1453125000262,
      "v": 121
    },
    {
      "midi": 57,
      "hit": false,
      "t": 113221.5299999999,
      "d": 53.959062499998254,
      "v": 83
    },
    {
      "midi": 61,
      "hit": false,
      "t": 113221.5299999999,
      "d": 809.3859375000029,
      "v": 109
    },
    {
      "midi": 66,
      "hit": false,
      "t": 113221.5299999999,
      "d": 1032.9306250000081,
      "v": 109
    },
    {
      "midi": 57,
      "hit": false,
      "t": 113591.5349999999,
      "d": 624.3834375000006,
      "v": 120
    },
    {
      "midi": 49,
      "hit": false,
      "t": 113961.5399999999,
      "d": 1533.9790625000023,
      "v": 127
    },
    {
      "midi": 61,
      "hit": false,
      "t": 114331.54499999991,
      "d": 269.7953125000058,
      "v": 125
    },
    {
      "midi": 62,
      "hit": false,
      "t": 114516.54749999991,
      "d": 331.46281250000175,
      "v": 96
    },
    {
      "midi": 64,
      "hit": false,
      "t": 114701.54999999992,
      "d": 185.00250000000233,
      "v": 89
    },
    {
      "midi": 69,
      "hit": false,
      "t": 114886.55249999992,
      "d": 485.63156249999884,
      "v": 120
    },
    {
      "midi": 59,
      "hit": false,
      "t": 115441.55999999991,
      "d": 292.92062499999884,
      "v": 110
    },
    {
      "midi": 62,
      "hit": false,
      "t": 115441.55999999991,
      "d": 570.4243750000023,
      "v": 115
    },
    {
      "midi": 67,
      "hit": false,
      "t": 115441.55999999991,
      "d": 616.6750000000029,
      "v": 115
    },
    {
      "midi": 59,
      "hit": false,
      "t": 116181.56999999992,
      "d": 38.54218750000291,
      "v": 92
    },
    {
      "midi": 67,
      "hit": false,
      "t": 116181.56999999992,
      "d": 524.1737500000017,
      "v": 100
    },
    {
      "midi": 62,
      "hit": false,
      "t": 116181.56999999992,
      "d": 601.2581250000076,
      "v": 115
    },
    {
      "midi": 59,
      "hit": false,
      "t": 116551.57499999992,
      "d": 370.00500000000466,
      "v": 96
    },
    {
      "midi": 43,
      "hit": false,
      "t": 116921.57999999993,
      "d": 15.416874999995343,
      "v": 105
    },
    {
      "midi": 59,
      "hit": false,
      "t": 116921.57999999993,
      "d": 285.21218750000116,
      "v": 110
    },
    {
      "midi": 67,
      "hit": false,
      "t": 116921.57999999993,
      "d": 539.5906250000116,
      "v": 100
    },
    {
      "midi": 62,
      "hit": false,
      "t": 116921.57999999993,
      "d": 547.2990625000093,
      "v": 105
    },
    {
      "midi": 59,
      "hit": false,
      "t": 117661.58999999994,
      "d": 23.125312499993015,
      "v": 96
    },
    {
      "midi": 67,
      "hit": false,
      "t": 117661.58999999994,
      "d": 477.9231249999866,
      "v": 100
    },
    {
      "midi": 62,
      "hit": false,
      "t": 117661.58999999994,
      "d": 508.75687499999185,
      "v": 110
    },
    {
      "midi": 59,
      "hit": false,
      "t": 118031.59499999993,
      "d": 393.1303124999977,
      "v": 86
    },
    {
      "midi": 69,
      "hit": false,
      "t": 118401.59999999993,
      "d": 431.67249999998603,
      "v": 105
    },
    {
      "midi": 66,
      "hit": false,
      "t": 118401.59999999993,
      "d": 454.79781249997905,
      "v": 101
    },
    {
      "midi": 62,
      "hit": false,
      "t": 118401.59999999993,
      "d": 508.7568749999773,
      "v": 100
    },
    {
      "midi": 50,
      "hit": false,
      "t": 118401.59999999993,
      "d": 1533.9790624999878,
      "v": 115
    },
    {
      "midi": 57,
      "hit": false,
      "t": 118771.60499999992,
      "d": 593.5496874999953,
      "v": 86
    },
    {
      "midi": 62,
      "hit": false,
      "t": 119141.60999999991,
      "d": 562.7159375000047,
      "v": 86
    },
    {
      "midi": 66,
      "hit": false,
      "t": 119141.60999999991,
      "d": 593.5496875000099,
      "v": 101
    },
    {
      "midi": 69,
      "hit": false,
      "t": 119141.60999999991,
      "d": 662.9256250000035,
      "v": 100
    },
    {
      "midi": 57,
      "hit": false,
      "t": 119511.61499999992,
      "d": 339.1712499999994,
      "v": 92
    },
    {
      "midi": 59,
      "hit": false,
      "t": 119881.61999999992,
      "d": 277.5037500000035,
      "v": 100
    },
    {
      "midi": 66,
      "hit": false,
      "t": 119881.61999999992,
      "d": 508.7568750000064,
      "v": 121
    },
    {
      "midi": 62,
      "hit": false,
      "t": 119881.61999999992,
      "d": 531.8821874999994,
      "v": 105
    },
    {
      "midi": 69,
      "hit": false,
      "t": 119881.61999999992,
      "d": 531.8821874999994,
      "v": 105
    },
    {
      "midi": 47,
      "hit": false,
      "t": 119881.61999999992,
      "d": 1618.7718749999622,
      "v": 100
    },
    {
      "midi": 59,
      "hit": false,
      "t": 120621.62999999992,
      "d": 61.667499999995925,
      "v": 89
    },
    {
      "midi": 62,
      "hit": false,
      "t": 120621.62999999992,
      "d": 470.21468749998894,
      "v": 100
    },
    {
      "midi": 66,
      "hit": false,
      "t": 120621.62999999992,
      "d": 493.33999999998196,
      "v": 109
    },
    {
      "midi": 69,
      "hit": false,
      "t": 120621.62999999992,
      "d": 508.7568749999773,
      "v": 100
    },
    {
      "midi": 59,
      "hit": false,
      "t": 121361.6399999999,
      "d": 69.3759374999936,
      "v": 63
    },
    {
      "midi": 66,
      "hit": false,
      "t": 121361.6399999999,
      "d": 115.62656249999418,
      "v": 69
    },
    {
      "midi": 68,
      "hit": false,
      "t": 121361.6399999999,
      "d": 516.4653124999895,
      "v": 125
    },
    {
      "midi": 64,
      "hit": false,
      "t": 121361.6399999999,
      "d": 539.5906249999825,
      "v": 110
    },
    {
      "midi": 40,
      "hit": false,
      "t": 121361.6399999999,
      "d": 1611.063437499979,
      "v": 115
    },
    {
      "midi": 59,
      "hit": false,
      "t": 121731.64499999989,
      "d": 585.8412499999831,
      "v": 89
    },
    {
      "midi": 68,
      "hit": false,
      "t": 122101.64999999988,
      "d": 447.0893749999959,
      "v": 121
    },
    {
      "midi": 64,
      "hit": false,
      "t": 122101.64999999988,
      "d": 531.8821874999994,
      "v": 100
    },
    {
      "midi": 59,
      "hit": false,
      "t": 122471.65499999987,
      "d": 539.5906250000116,
      "v": 100
    },
    {
      "midi": 64,
      "hit": false,
      "t": 122656.65749999987,
      "d": 138.75187500000175,
      "v": 17
    },
    {
      "midi": 68,
      "hit": false,
      "t": 122841.65999999987,
      "d": 524.1737500000017,
      "v": 109
    },
    {
      "midi": 71,
      "hit": false,
      "t": 122841.65999999987,
      "d": 524.1737500000017,
      "v": 105
    },
    {
      "midi": 64,
      "hit": false,
      "t": 122841.65999999987,
      "d": 539.5906249999971,
      "v": 96
    },
    {
      "midi": 47,
      "hit": false,
      "t": 122841.65999999987,
      "d": 847.9281249999913,
      "v": 115
    },
    {
      "midi": 59,
      "hit": false,
      "t": 123581.66999999987,
      "d": 15.416874999995343,
      "v": 96
    },
    {
      "midi": 64,
      "hit": false,
      "t": 123581.66999999987,
      "d": 578.1328124999854,
      "v": 105
    },
    {
      "midi": 68,
      "hit": false,
      "t": 123581.66999999987,
      "d": 593.5496874999808,
      "v": 121
    },
    {
      "midi": 40,
      "hit": false,
      "t": 123581.66999999987,
      "d": 809.3859374999738,
      "v": 100
    },
    {
      "midi": 59,
      "hit": false,
      "t": 123951.67499999986,
      "d": 215.83624999999302,
      "v": 92
    },
    {
      "midi": 69,
      "hit": false,
      "t": 124321.67999999985,
      "d": 408.547187499993,
      "v": 110
    },
    {
      "midi": 64,
      "hit": false,
      "t": 124321.67999999985,
      "d": 516.4653124999895,
      "v": 105
    },
    {
      "midi": 45,
      "hit": false,
      "t": 124321.67999999985,
      "d": 1418.3524999999645,
      "v": 120
    },
    {
      "midi": 61,
      "hit": false,
      "t": 124691.68499999984,
      "d": 608.9665625000052,
      "v": 101
    },
    {
      "midi": 64,
      "hit": false,
      "t": 125061.68999999984,
      "d": 262.0868749999936,
      "v": 100
    },
    {
      "midi": 69,
      "hit": false,
      "t": 125061.68999999984,
      "d": 269.79531249999127,
      "v": 96
    },
    {
      "midi": 69,
      "hit": false,
      "t": 125431.69499999983,
      "d": 262.0868749999936,
      "v": 110
    },
    {
      "midi": 59,
      "hit": false,
      "t": 125431.69499999983,
      "d": 277.50374999998894,
      "v": 96
    },
    {
      "midi": 62,
      "hit": false,
      "t": 125431.69499999983,
      "d": 285.2121874999866,
      "v": 100
    },
    {
      "midi": 57,
      "hit": false,
      "t": 125801.69999999981,
      "d": 262.0868749999936,
      "v": 120
    },
    {
      "midi": 64,
      "hit": false,
      "t": 125801.69999999981,
      "d": 462.50624999999127,
      "v": 110
    },
    {
      "midi": 61,
      "hit": false,
      "t": 125801.69999999981,
      "d": 493.3399999999965,
      "v": 125
    },
    {
      "midi": 45,
      "hit": false,
      "t": 125801.69999999981,
      "d": 840.2196874999936,
      "v": 115
    },
    {
      "midi": 57,
      "hit": false,
      "t": 126541.7099999998,
      "d": 53.959062499998254,
      "v": 83
    },
    {
      "midi": 52,
      "hit": false,
      "t": 126541.7099999998,
      "d": 555.007500000007,
      "v": 120
    },
    {
      "midi": 64,
      "hit": false,
      "t": 126541.7099999998,
      "d": 639.8003125000105,
      "v": 120
    },
    {
      "midi": 67,
      "hit": false,
      "t": 126541.7099999998,
      "d": 647.5087500000081,
      "v": 115
    },
    {
      "midi": 57,
      "hit": false,
      "t": 126911.71499999981,
      "d": 277.5037500000035,
      "v": 105
    },
    {
      "midi": 66,
      "hit": false,
      "t": 127281.71999999981,
      "d": 493.34000000001106,
      "v": 116
    },
    {
      "midi": 62,
      "hit": false,
      "t": 127281.71999999981,
      "d": 524.1737500000163,
      "v": 105
    },
    {
      "midi": 50,
      "hit": false,
      "t": 127281.71999999981,
      "d": 1464.6031249999942,
      "v": 110
    },
    {
      "midi": 57,
      "hit": false,
      "t": 127651.72499999982,
      "d": 578.1328125,
      "v": 92
    },
    {
      "midi": 66,
      "hit": false,
      "t": 128021.72999999982,
      "d": 439.3809374999837,
      "v": 116
    },
    {
      "midi": 62,
      "hit": false,
      "t": 128021.72999999982,
      "d": 740.0099999999802,
      "v": 96
    },
    {
      "midi": 57,
      "hit": false,
      "t": 128391.73499999981,
      "d": 555.0074999999924,
      "v": 115
    },
    {
      "midi": 62,
      "hit": false,
      "t": 128761.7399999998,
      "d": 562.7159375000047,
      "v": 89
    },
    {
      "midi": 69,
      "hit": false,
      "t": 128761.7399999998,
      "d": 562.7159375000047,
      "v": 115
    },
    {
      "midi": 50,
      "hit": false,
      "t": 128761.7399999998,
      "d": 1626.4803125000035,
      "v": 105
    },
    {
      "midi": 57,
      "hit": false,
      "t": 129131.7449999998,
      "d": 647.5087500000081,
      "v": 92
    },
    {
      "midi": 66,
      "hit": false,
      "t": 129501.74999999981,
      "d": 516.4653125000041,
      "v": 121
    },
    {
      "midi": 62,
      "hit": false,
      "t": 129501.74999999981,
      "d": 716.8846875000017,
      "v": 100
    },
    {
      "midi": 57,
      "hit": false,
      "t": 130241.7599999998,
      "d": 15.416874999995343,
      "v": 89
    },
    {
      "midi": 66,
      "hit": false,
      "t": 130241.7599999998,
      "d": 531.8821874999994,
      "v": 116
    },
    {
      "midi": 61,
      "hit": false,
      "t": 130241.7599999998,
      "d": 555.0074999999924,
      "v": 121
    },
    {
      "midi": 57,
      "hit": false,
      "t": 130611.76499999981,
      "d": 570.4243750000023,
      "v": 86
    },
    {
      "midi": 66,
      "hit": false,
      "t": 130981.7699999998,
      "d": 524.1737500000309,
      "v": 109
    },
    {
      "midi": 57,
      "hit": false,
      "t": 131351.77499999982,
      "d": 516.4653124999895,
      "v": 110
    },
    {
      "midi": 49,
      "hit": false,
      "t": 131721.77999999982,
      "d": 7.708437499997672,
      "v": 116
    },
    {
      "midi": 61,
      "hit": false,
      "t": 131721.77999999982,
      "d": 30.833749999990687,
      "v": 69
    },
    {
      "midi": 69,
      "hit": false,
      "t": 131721.77999999982,
      "d": 470.2146874999744,
      "v": 110
    },
    {
      "midi": 57,
      "hit": false,
      "t": 132091.7849999998,
      "d": 169.58562500000698,
      "v": 92
    },
    {
      "midi": 61,
      "hit": false,
      "t": 132276.7874999998,
      "d": 107.91812499999651,
      "v": 41
    },
    {
      "midi": 58,
      "hit": false,
      "t": 132461.7899999998,
      "d": 277.5037500000035,
      "v": 121
    },
    {
      "midi": 66,
      "hit": false,
      "t": 132461.7899999998,
      "d": 608.9665624999907,
      "v": 116
    },
    {
      "midi": 61,
      "hit": false,
      "t": 132461.7899999998,
      "d": 647.508749999979,
      "v": 121
    },
    {
      "midi": 42,
      "hit": false,
      "t": 132461.7899999998,
      "d": 793.969062499993,
      "v": 121
    },
    {
      "midi": 58,
      "hit": false,
      "t": 132831.7949999998,
      "d": 262.08687499997905,
      "v": 101
    },
    {
      "midi": 66,
      "hit": false,
      "t": 133201.79999999978,
      "d": 447.0893750000105,
      "v": 121
    },
    {
      "midi": 62,
      "hit": false,
      "t": 133201.79999999978,
      "d": 485.63156249999884,
      "v": 110
    },
    {
      "midi": 47,
      "hit": false,
      "t": 133201.79999999978,
      "d": 1456.8946874999965,
      "v": 105
    },
    {
      "midi": 59,
      "hit": false,
      "t": 133571.8049999998,
      "d": 524.1737500000163,
      "v": 100
    },
    {
      "midi": 66,
      "hit": false,
      "t": 133941.8099999998,
      "d": 493.3399999999965,
      "v": 121
    },
    {
      "midi": 62,
      "hit": false,
      "t": 133941.8099999998,
      "d": 1279.6006249999919,
      "v": 100
    },
    {
      "midi": 59,
      "hit": false,
      "t": 134311.8149999998,
      "d": 431.67249999998603,
      "v": 96
    },
    {
      "midi": 71,
      "hit": false,
      "t": 134681.81999999977,
      "d": 470.2146875000035,
      "v": 110
    },
    {
      "midi": 59,
      "hit": false,
      "t": 135051.82499999978,
      "d": 647.5087500000081,
      "v": 80
    },
    {
      "midi": 47,
      "hit": false,
      "t": 135421.82999999978,
      "d": 69.37593750000815,
      "v": 100
    },
    {
      "midi": 66,
      "hit": false,
      "t": 135421.82999999978,
      "d": 508.75687499999185,
      "v": 121
    },
    {
      "midi": 62,
      "hit": false,
      "t": 135421.82999999978,
      "d": 686.0509374999965,
      "v": 100
    },
    {
      "midi": 59,
      "hit": false,
      "t": 135791.8349999998,
      "d": 339.17124999998487,
      "v": 74
    },
    {
      "midi": 57,
      "hit": false,
      "t": 136161.83999999976,
      "d": 269.7953125000058,
      "v": 115
    },
    {
      "midi": 66,
      "hit": false,
      "t": 136161.83999999976,
      "d": 524.1737500000163,
      "v": 116
    },
    {
      "midi": 61,
      "hit": false,
      "t": 136161.83999999976,
      "d": 601.2581250000221,
      "v": 121
    },
    {
      "midi": 42,
      "hit": false,
      "t": 136161.83999999976,
      "d": 1533.9790624999732,
      "v": 116
    },
    {
      "midi": 57,
      "hit": false,
      "t": 136531.84499999977,
      "d": 585.8412499999977,
      "v": 78
    },
    {
      "midi": 66,
      "hit": false,
      "t": 136901.84999999977,
      "d": 408.547187499993,
      "v": 121
    },
    {
      "midi": 61,
      "hit": false,
      "t": 136901.84999999977,
      "d": 778.5521874999686,
      "v": 109
    },
    {
      "midi": 57,
      "hit": false,
      "t": 137271.85499999978,
      "d": 624.3834374999569,
      "v": 115
    },
    {
      "midi": 49,
      "hit": false,
      "t": 137641.85999999975,
      "d": 1510.8537499999802,
      "v": 127
    },
    {
      "midi": 61,
      "hit": false,
      "t": 138011.86499999973,
      "d": 300.6290624999965,
      "v": 125
    },
    {
      "midi": 62,
      "hit": false,
      "t": 138196.86749999973,
      "d": 362.296562500007,
      "v": 100
    },
    {
      "midi": 64,
      "hit": false,
      "t": 138381.86999999973,
      "d": 185.00250000000233,
      "v": 76
    },
    {
      "midi": 69,
      "hit": false,
      "t": 138566.87249999974,
      "d": 501.0484374999942,
      "v": 120
    },
    {
      "midi": 59,
      "hit": false,
      "t": 139121.87999999974,
      "d": 292.92062499999884,
      "v": 105
    },
    {
      "midi": 67,
      "hit": false,
      "t": 139121.87999999974,
      "d": 508.75687499999185,
      "v": 110
    },
    {
      "midi": 62,
      "hit": false,
      "t": 139121.87999999974,
      "d": 555.0074999999779,
      "v": 110
    },
    {
      "midi": 43,
      "hit": false,
      "t": 139121.87999999974,
      "d": 1264.1837499999965,
      "v": 115
    },
    {
      "midi": 59,
      "hit": false,
      "t": 139491.88499999975,
      "d": 647.508749999979,
      "v": 78
    },
    {
      "midi": 67,
      "hit": false,
      "t": 139861.88999999972,
      "d": 447.0893750000105,
      "v": 96
    },
    {
      "midi": 62,
      "hit": false,
      "t": 139861.88999999972,
      "d": 547.2990625000093,
      "v": 96
    },
    {
      "midi": 45,
      "hit": false,
      "t": 140231.89499999973,
      "d": 439.3809374999837,
      "v": 115
    },
    {
      "midi": 59,
      "hit": false,
      "t": 140601.89999999973,
      "d": 30.833749999990687,
      "v": 86
    },
    {
      "midi": 67,
      "hit": false,
      "t": 140601.89999999973,
      "d": 454.79781249997905,
      "v": 96
    },
    {
      "midi": 62,
      "hit": false,
      "t": 140601.89999999973,
      "d": 531.8821874999849,
      "v": 110
    },
    {
      "midi": 47,
      "hit": false,
      "t": 140601.89999999973,
      "d": 1518.5621874999779,
      "v": 110
    },
    {
      "midi": 59,
      "hit": false,
      "t": 141341.9099999997,
      "d": 38.54218749998836,
      "v": 83
    },
    {
      "midi": 62,
      "hit": false,
      "t": 141341.9099999997,
      "d": 524.1737499999872,
      "v": 105
    },
    {
      "midi": 67,
      "hit": false,
      "t": 141341.9099999997,
      "d": 686.0509374999965,
      "v": 96
    },
    {
      "midi": 59,
      "hit": false,
      "t": 141711.9149999997,
      "d": 377.71343750003143,
      "v": 80
    },
    {
      "midi": 66,
      "hit": false,
      "t": 142081.91999999972,
      "d": 439.3809374999837,
      "v": 121
    },
    {
      "midi": 62,
      "hit": false,
      "t": 142081.91999999972,
      "d": 516.4653124999895,
      "v": 100
    },
    {
      "midi": 50,
      "hit": false,
      "t": 142081.91999999972,
      "d": 1518.5621874999488,
      "v": 110
    },
    {
      "midi": 57,
      "hit": false,
      "t": 142821.9299999997,
      "d": 84.79281250000349,
      "v": 68
    },
    {
      "midi": 66,
      "hit": false,
      "t": 142821.9299999997,
      "d": 485.63156249999884,
      "v": 116
    },
    {
      "midi": 62,
      "hit": false,
      "t": 142821.9299999997,
      "d": 693.7593749999942,
      "v": 105
    },
    {
      "midi": 57,
      "hit": false,
      "t": 143191.9349999997,
      "d": 323.7543749999895,
      "v": 96
    },
    {
      "midi": 59,
      "hit": false,
      "t": 143561.93999999968,
      "d": 269.7953124999767,
      "v": 96
    },
    {
      "midi": 66,
      "hit": false,
      "t": 143561.93999999968,
      "d": 493.3399999999674,
      "v": 116
    },
    {
      "midi": 62,
      "hit": false,
      "t": 143561.93999999968,
      "d": 516.4653124999604,
      "v": 110
    },
    {
      "midi": 47,
      "hit": false,
      "t": 143561.93999999968,
      "d": 1587.938124999957,
      "v": 100
    },
    {
      "midi": 59,
      "hit": false,
      "t": 144301.94999999963,
      "d": 53.959062500012806,
      "v": 83
    },
    {
      "midi": 62,
      "hit": false,
      "t": 144301.94999999963,
      "d": 524.1737500000163,
      "v": 105
    },
    {
      "midi": 66,
      "hit": false,
      "t": 144301.94999999963,
      "d": 531.882187500014,
      "v": 121
    },
    {
      "midi": 59,
      "hit": false,
      "t": 144671.95499999964,
      "d": 547.2990625000093,
      "v": 86
    },
    {
      "midi": 68,
      "hit": false,
      "t": 145041.95999999964,
      "d": 485.63156249999884,
      "v": 121
    },
    {
      "midi": 64,
      "hit": false,
      "t": 145041.95999999964,
      "d": 508.75687499999185,
      "v": 105
    },
    {
      "midi": 40,
      "hit": false,
      "t": 145041.95999999964,
      "d": 1611.063437499979,
      "v": 110
    },
    {
      "midi": 59,
      "hit": false,
      "t": 145411.96499999965,
      "d": 578.1328124999709,
      "v": 89
    },
    {
      "midi": 68,
      "hit": false,
      "t": 145781.96999999962,
      "d": 578.1328125,
      "v": 116
    },
    {
      "midi": 64,
      "hit": false,
      "t": 145781.96999999962,
      "d": 585.8412499999977,
      "v": 105
    },
    {
      "midi": 66,
      "hit": false,
      "t": 145966.97249999963,
      "d": 200.41937499999767,
      "v": 1
    },
    {
      "midi": 59,
      "hit": false,
      "t": 146151.97499999963,
      "d": 215.83624999999302,
      "v": 96
    },
    {
      "midi": 61,
      "hit": false,
      "t": 146521.97999999963,
      "d": 277.5037500000035,
      "v": 116
    },
    {
      "midi": 69,
      "hit": false,
      "t": 146521.97999999963,
      "d": 447.0893750000105,
      "v": 96
    },
    {
      "midi": 64,
      "hit": false,
      "t": 146521.97999999963,
      "d": 524.1737500000163,
      "v": 100
    },
    {
      "midi": 45,
      "hit": false,
      "t": 146521.97999999963,
      "d": 1549.3959374999686,
      "v": 115
    },
    {
      "midi": 61,
      "hit": false,
      "t": 147261.98999999964,
      "d": 38.54218749998836,
      "v": 78
    },
    {
      "midi": 64,
      "hit": false,
      "t": 147261.98999999964,
      "d": 555.0074999999779,
      "v": 100
    },
    {
      "midi": 69,
      "hit": false,
      "t": 147261.98999999964,
      "d": 585.8412499999686,
      "v": 89
    },
    {
      "midi": 61,
      "hit": false,
      "t": 147631.99499999962,
      "d": 254.37843749998137,
      "v": 74
    },
    {
      "midi": 66,
      "hit": false,
      "t": 148001.9999999996,
      "d": 454.79781250000815,
      "v": 121
    },
    {
      "midi": 62,
      "hit": false,
      "t": 148001.9999999996,
      "d": 516.4653125000186,
      "v": 115
    },
    {
      "midi": 50,
      "hit": false,
      "t": 148001.9999999996,
      "d": 1456.8946875000256,
      "v": 115
    },
    {
      "midi": 57,
      "hit": false,
      "t": 148372.0049999996,
      "d": 578.1328125,
      "v": 100
    },
    {
      "midi": 66,
      "hit": false,
      "t": 148742.0099999996,
      "d": 516.4653125000186,
      "v": 116
    },
    {
      "midi": 62,
      "hit": false,
      "t": 148742.0099999996,
      "d": 524.1737500000163,
      "v": 100
    },
    {
      "midi": 57,
      "hit": false,
      "t": 149112.0149999996,
      "d": 146.46031250001397,
      "v": 72
    },
    {
      "midi": 58,
      "hit": false,
      "t": 149482.0199999996,
      "d": 578.1328125,
      "v": 116
    },
    {
      "midi": 62,
      "hit": false,
      "t": 149482.0199999996,
      "d": 593.5496874999953,
      "v": 110
    },
    {
      "midi": 65,
      "hit": false,
      "t": 149482.0199999996,
      "d": 655.2171875000058,
      "v": 89
    },
    {
      "midi": 46,
      "hit": false,
      "t": 149482.0199999996,
      "d": 832.5112500000105,
      "v": 127
    },
    {
      "midi": 60,
      "hit": false,
      "t": 150222.02999999962,
      "d": 624.3834375000151,
      "v": 110
    },
    {
      "midi": 64,
      "hit": false,
      "t": 150222.02999999962,
      "d": 647.5087500000081,
      "v": 115
    },
    {
      "midi": 48,
      "hit": false,
      "t": 150222.02999999962,
      "d": 655.2171875000058,
      "v": 115
    },
    {
      "midi": 67,
      "hit": false,
      "t": 150222.02999999962,
      "d": 670.6340625000012,
      "v": 110
    },
    {
      "midi": 60,
      "hit": false,
      "t": 150962.03999999963,
      "d": 316.04593749999185,
      "v": 100
    },
    {
      "midi": 69,
      "hit": false,
      "t": 150962.03999999963,
      "d": 555.007500000007,
      "v": 105
    },
    {
      "midi": 65,
      "hit": false,
      "t": 150962.03999999963,
      "d": 624.3834375000151,
      "v": 105
    },
    {
      "midi": 53,
      "hit": false,
      "t": 150962.03999999963,
      "d": 1472.3115624999919,
      "v": 110
    },
    {
      "midi": 60,
      "hit": false,
      "t": 151702.04999999964,
      "d": 61.66750000001048,
      "v": 83
    },
    {
      "midi": 69,
      "hit": false,
      "t": 151702.04999999964,
      "d": 670.6340625000012,
      "v": 120
    },
    {
      "midi": 65,
      "hit": false,
      "t": 151702.04999999964,
      "d": 709.1762499999895,
      "v": 115
    },
    {
      "midi": 60,
      "hit": false,
      "t": 152442.05999999962,
      "d": 30.833749999990687,
      "v": 86
    },
    {
      "midi": 69,
      "hit": false,
      "t": 152442.05999999962,
      "d": 585.8412499999977,
      "v": 110
    },
    {
      "midi": 65,
      "hit": false,
      "t": 152442.05999999962,
      "d": 593.5496874999953,
      "v": 105
    },
    {
      "midi": 53,
      "hit": false,
      "t": 152442.05999999962,
      "d": 1495.4368749999849,
      "v": 105
    },
    {
      "midi": 60,
      "hit": false,
      "t": 153182.06999999963,
      "d": 15.416874999995343,
      "v": 89
    },
    {
      "midi": 65,
      "hit": false,
      "t": 153182.06999999963,
      "d": 601.258124999993,
      "v": 105
    },
    {
      "midi": 69,
      "hit": false,
      "t": 153182.06999999963,
      "d": 601.258124999993,
      "v": 110
    },
    {
      "midi": 60,
      "hit": false,
      "t": 153552.07499999963,
      "d": 346.87968749998254,
      "v": 89
    },
    {
      "midi": 60,
      "hit": false,
      "t": 153922.0799999996,
      "d": 308.3374999999942,
      "v": 100
    },
    {
      "midi": 69,
      "hit": false,
      "t": 153922.0799999996,
      "d": 570.4243750000023,
      "v": 100
    },
    {
      "midi": 64,
      "hit": false,
      "t": 153922.0799999996,
      "d": 593.5496874999953,
      "v": 110
    },
    {
      "midi": 52,
      "hit": false,
      "t": 153922.0799999996,
      "d": 1480.0200000000186,
      "v": 110
    },
    {
      "midi": 60,
      "hit": false,
      "t": 154662.08999999962,
      "d": 23.125312499993015,
      "v": 78
    },
    {
      "midi": 69,
      "hit": false,
      "t": 154662.08999999962,
      "d": 439.3809375000128,
      "v": 100
    },
    {
      "midi": 64,
      "hit": false,
      "t": 154662.08999999962,
      "d": 524.1737500000163,
      "v": 105
    },
    {
      "midi": 60,
      "hit": false,
      "t": 155402.09999999963,
      "d": 7.708437499997672,
      "v": 100
    },
    {
      "midi": 64,
      "hit": false,
      "t": 155402.09999999963,
      "d": 485.63156249999884,
      "v": 105
    },
    {
      "midi": 69,
      "hit": false,
      "t": 155402.09999999963,
      "d": 531.8821874999849,
      "v": 100
    },
    {
      "midi": 52,
      "hit": false,
      "t": 155402.09999999963,
      "d": 770.8437499999709,
      "v": 110
    },
    {
      "midi": 64,
      "hit": false,
      "t": 155957.1074999996,
      "d": 169.58562500000698,
      "v": 63
    },
    {
      "midi": 61,
      "hit": false,
      "t": 156142.1099999996,
      "d": 339.17124999998487,
      "v": 109
    },
    {
      "midi": 64,
      "hit": false,
      "t": 156142.1099999996,
      "d": 624.3834374999569,
      "v": 105
    },
    {
      "midi": 69,
      "hit": false,
      "t": 156142.1099999996,
      "d": 647.5087499999499,
      "v": 100
    },
    {
      "midi": 49,
      "hit": false,
      "t": 156142.1099999996,
      "d": 817.0943749999569,
      "v": 121
    },
    {
      "midi": 61,
      "hit": false,
      "t": 156512.11499999958,
      "d": 231.25312499998836,
      "v": 58
    },
    {
      "midi": 62,
      "hit": false,
      "t": 156882.11999999956,
      "d": 308.3374999999942,
      "v": 100
    },
    {
      "midi": 69,
      "hit": false,
      "t": 156882.11999999956,
      "d": 555.007500000007,
      "v": 115
    },
    {
      "midi": 65,
      "hit": false,
      "t": 156882.11999999956,
      "d": 608.9665625000198,
      "v": 115
    },
    {
      "midi": 62,
      "hit": false,
      "t": 157622.12999999957,
      "d": 53.959062500012806,
      "v": 62
    },
    {
      "midi": 69,
      "hit": false,
      "t": 157622.12999999957,
      "d": 562.7159375000047,
      "v": 110
    },
    {
      "midi": 65,
      "hit": false,
      "t": 157622.12999999957,
      "d": 578.1328125,
      "v": 105
    },
    {
      "midi": 62,
      "hit": false,
      "t": 158362.13999999958,
      "d": 15.416874999995343,
      "v": 105
    },
    {
      "midi": 50,
      "hit": false,
      "t": 158362.13999999958,
      "d": 23.125312499993015,
      "v": 110
    },
    {
      "midi": 69,
      "hit": false,
      "t": 158362.13999999958,
      "d": 547.2990625000093,
      "v": 115
    },
    {
      "midi": 65,
      "hit": false,
      "t": 158362.13999999958,
      "d": 562.7159375000047,
      "v": 115
    },
    {
      "midi": 62,
      "hit": false,
      "t": 159102.1499999996,
      "d": 30.833749999990687,
      "v": 89
    },
    {
      "midi": 69,
      "hit": false,
      "t": 159102.1499999996,
      "d": 585.8412499999977,
      "v": 110
    },
    {
      "midi": 65,
      "hit": false,
      "t": 159102.1499999996,
      "d": 678.3424999999988,
      "v": 105
    },
    {
      "midi": 62,
      "hit": false,
      "t": 159472.1549999996,
      "d": 339.17124999998487,
      "v": 96
    },
    {
      "midi": 60,
      "hit": false,
      "t": 159842.15999999957,
      "d": 316.04593749999185,
      "v": 105
    },
    {
      "midi": 69,
      "hit": false,
      "t": 159842.15999999957,
      "d": 578.1328125,
      "v": 105
    },
    {
      "midi": 64,
      "hit": false,
      "t": 159842.15999999957,
      "d": 616.6749999999884,
      "v": 110
    },
    {
      "midi": 60,
      "hit": false,
      "t": 160582.16999999955,
      "d": 38.54218749998836,
      "v": 86
    },
    {
      "midi": 69,
      "hit": false,
      "t": 160582.16999999955,
      "d": 531.8821874999849,
      "v": 96
    },
    {
      "midi": 64,
      "hit": false,
      "t": 160582.16999999955,
      "d": 555.0074999999779,
      "v": 105
    },
    {
      "midi": 45,
      "hit": false,
      "t": 161322.17999999953,
      "d": 7.708437499997672,
      "v": 110
    },
    {
      "midi": 60,
      "hit": false,
      "t": 161322.17999999953,
      "d": 7.708437499997672,
      "v": 100
    },
    {
      "midi": 69,
      "hit": false,
      "t": 161322.17999999953,
      "d": 516.4653125000186,
      "v": 96
    },
    {
      "midi": 64,
      "hit": false,
      "t": 161322.17999999953,
      "d": 562.7159375000047,
      "v": 110
    },
    {
      "midi": 60,
      "hit": false,
      "t": 162062.18999999954,
      "d": 23.125312499993015,
      "v": 76
    },
    {
      "midi": 69,
      "hit": false,
      "t": 162062.18999999954,
      "d": 655.2171875000058,
      "v": 96
    },
    {
      "midi": 64,
      "hit": false,
      "t": 162062.18999999954,
      "d": 662.9256250000035,
      "v": 96
    },
    {
      "midi": 60,
      "hit": false,
      "t": 162432.19499999954,
      "d": 277.5037500000035,
      "v": 96
    },
    {
      "midi": 62,
      "hit": false,
      "t": 162802.19999999955,
      "d": 292.92062499999884,
      "v": 96
    },
    {
      "midi": 70,
      "hit": false,
      "t": 162802.19999999955,
      "d": 485.63156249999884,
      "v": 116
    },
    {
      "midi": 65,
      "hit": false,
      "t": 162802.19999999955,
      "d": 570.4243750000023,
      "v": 105
    },
    {
      "midi": 46,
      "hit": false,
      "t": 162802.19999999955,
      "d": 1441.4778125000012,
      "v": 125
    },
    {
      "midi": 62,
      "hit": false,
      "t": 163542.20999999956,
      "d": 23.125312499993015,
      "v": 72
    },
    {
      "midi": 70,
      "hit": false,
      "t": 163542.20999999956,
      "d": 447.0893750000105,
      "v": 116
    },
    {
      "midi": 65,
      "hit": false,
      "t": 163542.20999999956,
      "d": 562.7159375000047,
      "v": 110
    },
    {
      "midi": 62,
      "hit": false,
      "t": 164282.21999999954,
      "d": 7.708437499997672,
      "v": 86
    },
    {
      "midi": 70,
      "hit": false,
      "t": 164282.21999999954,
      "d": 501.0484374999942,
      "v": 109
    },
    {
      "midi": 65,
      "hit": false,
      "t": 164282.21999999954,
      "d": 555.007500000007,
      "v": 110
    },
    {
      "midi": 46,
      "hit": false,
      "t": 164282.21999999954,
      "d": 1025.2221875000105,
      "v": 109
    },
    {
      "midi": 62,
      "hit": false,
      "t": 164652.22499999954,
      "d": 370.00500000000466,
      "v": 78
    },
    {
      "midi": 62,
      "hit": false,
      "t": 165022.22999999954,
      "d": 246.6700000000128,
      "v": 83
    },
    {
      "midi": 70,
      "hit": false,
      "t": 165022.22999999954,
      "d": 624.3834375000151,
      "v": 109
    },
    {
      "midi": 62,
      "hit": false,
      "t": 165392.23499999955,
      "d": 354.5881250000093,
      "v": 89
    },
    {
      "midi": 65,
      "hit": false,
      "t": 165762.23999999955,
      "d": 7.708437499997672,
      "v": 100
    },
    {
      "midi": 60,
      "hit": false,
      "t": 165762.23999999955,
      "d": 285.21218750000116,
      "v": 105
    },
    {
      "midi": 69,
      "hit": false,
      "t": 165762.23999999955,
      "d": 570.4243750000023,
      "v": 105
    },
    {
      "midi": 53,
      "hit": false,
      "t": 165762.23999999955,
      "d": 1495.4368749999558,
      "v": 110
    },
    {
      "midi": 60,
      "hit": false,
      "t": 166132.24499999956,
      "d": 362.2965624999779,
      "v": 68
    },
    {
      "midi": 65,
      "hit": false,
      "t": 166317.24749999956,
      "d": 61.66749999998137,
      "v": 25
    },
    {
      "midi": 60,
      "hit": false,
      "t": 166502.24999999953,
      "d": 285.21218750000116,
      "v": 105
    },
    {
      "midi": 69,
      "hit": false,
      "t": 166502.24999999953,
      "d": 686.0509374999965,
      "v": 110
    },
    {
      "midi": 65,
      "hit": false,
      "t": 166502.24999999953,
      "d": 693.7593749999942,
      "v": 110
    },
    {
      "midi": 60,
      "hit": false,
      "t": 166872.25499999954,
      "d": 339.17124999998487,
      "v": 92
    },
    {
      "midi": 62,
      "hit": false,
      "t": 167242.2599999995,
      "d": 292.92062499999884,
      "v": 105
    },
    {
      "midi": 69,
      "hit": false,
      "t": 167242.2599999995,
      "d": 524.1737500000163,
      "v": 115
    },
    {
      "midi": 65,
      "hit": false,
      "t": 167242.2599999995,
      "d": 562.7159375000047,
      "v": 110
    },
    {
      "midi": 50,
      "hit": false,
      "t": 167242.2599999995,
      "d": 1541.6875,
      "v": 105
    },
    {
      "midi": 62,
      "hit": false,
      "t": 167982.26999999952,
      "d": 23.125312499993015,
      "v": 89
    },
    {
      "midi": 69,
      "hit": false,
      "t": 167982.26999999952,
      "d": 508.75687499999185,
      "v": 115
    },
    {
      "midi": 65,
      "hit": false,
      "t": 167982.26999999952,
      "d": 531.8821874999849,
      "v": 105
    },
    {
      "midi": 62,
      "hit": false,
      "t": 168352.27499999953,
      "d": 370.00499999997555,
      "v": 78
    },
    {
      "midi": 62,
      "hit": false,
      "t": 168722.2799999995,
      "d": 208.12781250002445,
      "v": 96
    },
    {
      "midi": 71,
      "hit": false,
      "t": 168722.2799999995,
      "d": 570.4243750000314,
      "v": 96
    },
    {
      "midi": 67,
      "hit": false,
      "t": 168722.2799999995,
      "d": 709.1762500000186,
      "v": 105
    },
    {
      "midi": 43,
      "hit": false,
      "t": 168722.2799999995,
      "d": 1495.436875000014,
      "v": 115
    },
    {
      "midi": 62,
      "hit": false,
      "t": 169462.2899999995,
      "d": 23.125312499993015,
      "v": 83
    },
    {
      "midi": 71,
      "hit": false,
      "t": 169462.2899999995,
      "d": 570.4243750000023,
      "v": 110
    },
    {
      "midi": 67,
      "hit": false,
      "t": 169462.2899999995,
      "d": 593.5496874999953,
      "v": 110
    },
    {
      "midi": 62,
      "hit": false,
      "t": 169832.29499999952,
      "d": 316.04593749999185,
      "v": 92
    },
    {
      "midi": 60,
      "hit": false,
      "t": 170202.29999999952,
      "d": 269.7953125000058,
      "v": 100
    },
    {
      "midi": 67,
      "hit": false,
      "t": 170202.29999999952,
      "d": 524.1737500000163,
      "v": 110
    },
    {
      "midi": 64,
      "hit": false,
      "t": 170202.29999999952,
      "d": 562.7159375000047,
      "v": 105
    },
    {
      "midi": 48,
      "hit": false,
      "t": 170202.29999999952,
      "d": 1495.4368749999849,
      "v": 96
    },
    {
      "midi": 60,
      "hit": false,
      "t": 170942.30999999953,
      "d": 30.833749999990687,
      "v": 78
    },
    {
      "midi": 67,
      "hit": false,
      "t": 170942.30999999953,
      "d": 724.5931249999849,
      "v": 110
    },
    {
      "midi": 64,
      "hit": false,
      "t": 171312.31499999954,
      "d": 38.54218749998836,
      "v": 43
    },
    {
      "midi": 60,
      "hit": false,
      "t": 171312.31499999954,
      "d": 331.4628124999872,
      "v": 115
    },
    {
      "midi": 53,
      "hit": false,
      "t": 171682.3199999995,
      "d": 2805.8712499999674,
      "v": 110
    },
    {
      "midi": 65,
      "hit": false,
      "t": 172052.32499999952,
      "d": 323.7543749999895,
      "v": 120
    },
    {
      "midi": 67,
      "hit": false,
      "t": 172237.32749999952,
      "d": 323.7543749999604,
      "v": 96
    },
    {
      "midi": 69,
      "hit": false,
      "t": 172422.3299999995,
      "d": 254.37843749998137,
      "v": 105
    },
    {
      "midi": 65,
      "hit": false,
      "t": 172607.33249999947,
      "d": 254.37843750001048,
      "v": 105
    },
    {
      "midi": 72,
      "hit": false,
      "t": 172792.33499999947,
      "d": 277.5037500000035,
      "v": 105
    },
    {
      "midi": 65,
      "hit": false,
      "t": 172977.33749999947,
      "d": 246.6700000000128,
      "v": 96
    },
    {
      "midi": 70,
      "hit": false,
      "t": 173162.33999999947,
      "d": 246.6700000000128,
      "v": 121
    },
    {
      "midi": 65,
      "hit": false,
      "t": 173347.34249999947,
      "d": 238.96156250001513,
      "v": 96
    },
    {
      "midi": 69,
      "hit": false,
      "t": 173532.34499999948,
      "d": 285.21218750000116,
      "v": 110
    },
    {
      "midi": 65,
      "hit": false,
      "t": 173717.34749999948,
      "d": 238.96156250001513,
      "v": 89
    },
    {
      "midi": 67,
      "hit": false,
      "t": 173902.34999999948,
      "d": 285.21218750000116,
      "v": 105
    },
    {
      "midi": 72,
      "hit": false,
      "t": 174087.35249999948,
      "d": 300.6290624999965,
      "v": 105
    },
    {
      "midi": 65,
      "hit": false,
      "t": 174272.3549999995,
      "d": 292.92062499999884,
      "v": 100
    },
    {
      "midi": 72,
      "hit": false,
      "t": 174457.3574999995,
      "d": 200.41937499999767,
      "v": 115
    },
    {
      "midi": 69,
      "hit": false,
      "t": 174642.3599999995,
      "d": 447.0893750000105,
      "v": 96
    },
    {
      "midi": 66,
      "hit": false,
      "t": 174642.3599999995,
      "d": 454.79781250000815,
      "v": 109
    },
    {
      "midi": 64,
      "hit": false,
      "t": 174642.3599999995,
      "d": 539.5906250000116,
      "v": 100
    },
    {
      "midi": 50,
      "hit": false,
      "t": 174642.3599999995,
      "d": 1518.562187500007,
      "v": 105
    },
    {
      "midi": 62,
      "hit": false,
      "t": 175012.3649999995,
      "d": 470.2146875000035,
      "v": 92
    },
    {
      "midi": 69,
      "hit": false,
      "t": 175382.3699999995,
      "d": 431.67250000001513,
      "v": 100
    },
    {
      "midi": 66,
      "hit": false,
      "t": 175382.3699999995,
      "d": 470.2146875000035,
      "v": 116
    },
    {
      "midi": 64,
      "hit": false,
      "t": 175382.3699999995,
      "d": 539.5906250000116,
      "v": 92
    },
    {
      "midi": 62,
      "hit": false,
      "t": 175752.3749999995,
      "d": 516.4653124999895,
      "v": 92
    },
    {
      "midi": 69,
      "hit": false,
      "t": 176122.3799999995,
      "d": 431.67249999998603,
      "v": 92
    },
    {
      "midi": 66,
      "hit": false,
      "t": 176122.3799999995,
      "d": 477.92312499997206,
      "v": 116
    },
    {
      "midi": 64,
      "hit": false,
      "t": 176122.3799999995,
      "d": 508.75687499996275,
      "v": 92
    },
    {
      "midi": 52,
      "hit": false,
      "t": 176122.3799999995,
      "d": 1595.6465624999546,
      "v": 115
    },
    {
      "midi": 62,
      "hit": false,
      "t": 176492.38499999949,
      "d": 524.1737499999872,
      "v": 80
    },
    {
      "midi": 66,
      "hit": false,
      "t": 176862.38999999946,
      "d": 539.5906250000116,
      "v": 109
    },
    {
      "midi": 64,
      "hit": false,
      "t": 176862.38999999946,
      "d": 562.7159375000047,
      "v": 96
    },
    {
      "midi": 69,
      "hit": false,
      "t": 177232.39499999947,
      "d": 53.959062500012806,
      "v": 45
    },
    {
      "midi": 62,
      "hit": false,
      "t": 177232.39499999947,
      "d": 416.2556249999907,
      "v": 92
    },
    {
      "midi": 69,
      "hit": false,
      "t": 177602.39999999947,
      "d": 555.007500000007,
      "v": 115
    },
    {
      "midi": 45,
      "hit": false,
      "t": 177602.39999999947,
      "d": 1456.8946875000256,
      "v": 110
    },
    {
      "midi": 61,
      "hit": false,
      "t": 177972.40499999947,
      "d": 632.0918750000128,
      "v": 78
    },
    {
      "midi": 69,
      "hit": false,
      "t": 178342.40999999948,
      "d": 1110.0149999999849,
      "v": 100
    },
    {
      "midi": 64,
      "hit": false,
      "t": 178342.40999999948,
      "d": 1117.7234374999825,
      "v": 89
    },
    {
      "midi": 61,
      "hit": false,
      "t": 178712.41499999948,
      "d": 693.7593749999942,
      "v": 109
    },
    {
      "midi": 45,
      "hit": false,
      "t": 179082.4199999995,
      "d": 1086.8896874999627,
      "v": 115
    },
    {
      "midi": 61,
      "hit": false,
      "t": 179452.42499999946,
      "d": 215.83624999999302,
      "v": 125
    },
    {
      "midi": 62,
      "hit": false,
      "t": 179637.42749999947,
      "d": 254.37843750001048,
      "v": 83
    },
    {
      "midi": 64,
      "hit": false,
      "t": 179822.42999999947,
      "d": 215.83624999999302,
      "v": 105
    },
    {
      "midi": 69,
      "hit": false,
      "t": 180007.43249999947,
      "d": 393.13031249996857,
      "v": 124
    },
    {
      "midi": 69,
      "hit": false,
      "t": 180562.43999999945,
      "d": 416.2556249999907,
      "v": 96
    },
    {
      "midi": 66,
      "hit": false,
      "t": 180562.43999999945,
      "d": 454.79781249997905,
      "v": 116
    },
    {
      "midi": 64,
      "hit": false,
      "t": 180562.43999999945,
      "d": 516.4653124999895,
      "v": 100
    },
    {
      "midi": 47,
      "hit": false,
      "t": 180562.43999999945,
      "d": 1503.1453124999534,
      "v": 105
    },
    {
      "midi": 62,
      "hit": false,
      "t": 180932.44499999945,
      "d": 408.5471874999639,
      "v": 86
    },
    {
      "midi": 69,
      "hit": false,
      "t": 181302.44999999943,
      "d": 431.67249999998603,
      "v": 96
    },
    {
      "midi": 66,
      "hit": false,
      "t": 181302.44999999943,
      "d": 454.79781249997905,
      "v": 109
    },
    {
      "midi": 64,
      "hit": false,
      "t": 181302.44999999943,
      "d": 555.0074999999779,
      "v": 96
    },
    {
      "midi": 62,
      "hit": false,
      "t": 181672.4549999994,
      "d": 416.2556249999907,
      "v": 100
    },
    {
      "midi": 69,
      "hit": false,
      "t": 182042.4599999994,
      "d": 431.67249999998603,
      "v": 100
    },
    {
      "midi": 66,
      "hit": false,
      "t": 182042.4599999994,
      "d": 470.2146874999744,
      "v": 121
    },
    {
      "midi": 64,
      "hit": false,
      "t": 182042.4599999994,
      "d": 516.4653124999604,
      "v": 100
    },
    {
      "midi": 52,
      "hit": false,
      "t": 182042.4599999994,
      "d": 1557.1043749999662,
      "v": 110
    },
    {
      "midi": 62,
      "hit": false,
      "t": 182412.46499999939,
      "d": 555.0074999999779,
      "v": 86
    },
    {
      "midi": 66,
      "hit": false,
      "t": 182782.46999999936,
      "d": 516.4653125000186,
      "v": 109
    },
    {
      "midi": 69,
      "hit": false,
      "t": 182782.46999999936,
      "d": 516.4653125000186,
      "v": 92
    },
    {
      "midi": 64,
      "hit": false,
      "t": 182782.46999999936,
      "d": 555.007500000007,
      "v": 96
    },
    {
      "midi": 62,
      "hit": false,
      "t": 183152.47499999937,
      "d": 393.1303124999977,
      "v": 89
    },
    {
      "midi": 69,
      "hit": false,
      "t": 183522.47999999937,
      "d": 439.3809375000128,
      "v": 105
    },
    {
      "midi": 64,
      "hit": false,
      "t": 183522.47999999937,
      "d": 501.0484375000233,
      "v": 105
    },
    {
      "midi": 45,
      "hit": false,
      "t": 183522.47999999937,
      "d": 1441.4778125000303,
      "v": 115
    },
    {
      "midi": 61,
      "hit": false,
      "t": 183892.48499999937,
      "d": 539.5906250000116,
      "v": 93
    },
    {
      "midi": 69,
      "hit": false,
      "t": 184262.48999999938,
      "d": 454.79781250000815,
      "v": 96
    },
    {
      "midi": 64,
      "hit": false,
      "t": 184262.48999999938,
      "d": 539.5906250000116,
      "v": 89
    },
    {
      "midi": 61,
      "hit": false,
      "t": 185002.4999999994,
      "d": 46.25062499998603,
      "v": 74
    },
    {
      "midi": 69,
      "hit": false,
      "t": 185002.4999999994,
      "d": 431.67249999998603,
      "v": 105
    },
    {
      "midi": 64,
      "hit": false,
      "t": 185002.4999999994,
      "d": 477.92312499997206,
      "v": 110
    },
    {
      "midi": 45,
      "hit": false,
      "t": 185002.4999999994,
      "d": 1487.728437499929,
      "v": 115
    },
    {
      "midi": 61,
      "hit": false,
      "t": 185372.50499999936,
      "d": 200.41937499999767,
      "v": 125
    },
    {
      "midi": 62,
      "hit": false,
      "t": 185557.50749999937,
      "d": 231.25312499998836,
      "v": 83
    },
    {
      "midi": 64,
      "hit": false,
      "t": 185742.50999999937,
      "d": 192.7109374999709,
      "v": 105
    },
    {
      "midi": 69,
      "hit": false,
      "t": 185927.51249999934,
      "d": 416.2556249999907,
      "v": 120
    },
    {
      "midi": 63,
      "hit": false,
      "t": 186482.51999999932,
      "d": 416.2556249999907,
      "v": 109
    },
    {
      "midi": 66,
      "hit": false,
      "t": 186482.51999999932,
      "d": 439.3809374999837,
      "v": 116
    },
    {
      "midi": 51,
      "hit": false,
      "t": 186482.51999999932,
      "d": 1495.4368749999558,
      "v": 125
    },
    {
      "midi": 58,
      "hit": false,
      "t": 186852.52499999932,
      "d": 408.5471874999639,
      "v": 93
    },
    {
      "midi": 63,
      "hit": false,
      "t": 187222.5299999993,
      "d": 439.3809374999837,
      "v": 93
    },
    {
      "midi": 66,
      "hit": false,
      "t": 187222.5299999993,
      "d": 439.3809374999837,
      "v": 109
    },
    {
      "midi": 58,
      "hit": false,
      "t": 187592.53499999928,
      "d": 431.67249999998603,
      "v": 116
    },
    {
      "midi": 66,
      "hit": false,
      "t": 187962.53999999928,
      "d": 431.67249999998603,
      "v": 93
    },
    {
      "midi": 70,
      "hit": false,
      "t": 187962.53999999928,
      "d": 439.3809374999837,
      "v": 116
    },
    {
      "midi": 54,
      "hit": false,
      "t": 187962.53999999928,
      "d": 817.094374999986,
      "v": 121
    },
    {
      "midi": 58,
      "hit": false,
      "t": 188332.54499999926,
      "d": 462.5062500000058,
      "v": 109
    },
    {
      "midi": 66,
      "hit": false,
      "t": 188702.54999999926,
      "d": 416.2556249999907,
      "v": 121
    },
    {
      "midi": 63,
      "hit": false,
      "t": 188702.54999999926,
      "d": 423.96406249998836,
      "v": 116
    },
    {
      "midi": 51,
      "hit": false,
      "t": 188702.54999999926,
      "d": 593.5496874999953,
      "v": 121
    },
    {
      "midi": 58,
      "hit": false,
      "t": 189072.55499999927,
      "d": 254.37843749998137,
      "v": 121
    },
    {
      "midi": 65,
      "hit": false,
      "t": 189442.55999999924,
      "d": 431.67250000001513,
      "v": 92
    },
    {
      "midi": 61,
      "hit": false,
      "t": 189442.55999999924,
      "d": 454.79781250000815,
      "v": 116
    },
    {
      "midi": 49,
      "hit": false,
      "t": 189442.55999999924,
      "d": 1449.1862499999988,
      "v": 125
    },
    {
      "midi": 56,
      "hit": false,
      "t": 189812.56499999925,
      "d": 501.0484374999942,
      "v": 93
    },
    {
      "midi": 65,
      "hit": false,
      "t": 190182.56999999925,
      "d": 439.3809374999837,
      "v": 96
    },
    {
      "midi": 61,
      "hit": false,
      "t": 190182.56999999925,
      "d": 732.3015624999825,
      "v": 85
    },
    {
      "midi": 56,
      "hit": false,
      "t": 190552.57499999923,
      "d": 346.87968750001164,
      "v": 93
    },
    {
      "midi": 68,
      "hit": false,
      "t": 190922.57999999923,
      "d": 316.04593749999185,
      "v": 121
    },
    {
      "midi": 49,
      "hit": false,
      "t": 190922.57999999923,
      "d": 1433.7693750000035,
      "v": 109
    },
    {
      "midi": 56,
      "hit": false,
      "t": 191107.58249999923,
      "d": 292.92062499999884,
      "v": 116
    },
    {
      "midi": 61,
      "hit": false,
      "t": 191477.58749999924,
      "d": 77.08437500000582,
      "v": 46
    },
    {
      "midi": 63,
      "hit": false,
      "t": 191477.58749999924,
      "d": 246.6700000000128,
      "v": 109
    },
    {
      "midi": 65,
      "hit": false,
      "t": 191662.58999999924,
      "d": 208.12781249999534,
      "v": 110
    },
    {
      "midi": 68,
      "hit": false,
      "t": 191847.59249999924,
      "d": 416.2556249999907,
      "v": 127
    },
    {
      "midi": 66,
      "hit": false,
      "t": 192402.59999999922,
      "d": 385.421875,
      "v": 93
    },
    {
      "midi": 63,
      "hit": false,
      "t": 192402.59999999922,
      "d": 400.83874999999534,
      "v": 116
    },
    {
      "midi": 61,
      "hit": false,
      "t": 192402.59999999922,
      "d": 462.5062500000058,
      "v": 116
    },
    {
      "midi": 51,
      "hit": false,
      "t": 192402.59999999922,
      "d": 948.1378125000338,
      "v": 121
    },
    {
      "midi": 58,
      "hit": false,
      "t": 193142.60999999923,
      "d": 53.959062500012806,
      "v": 67
    },
    {
      "midi": 63,
      "hit": false,
      "t": 193142.60999999923,
      "d": 516.4653125000477,
      "v": 101
    },
    {
      "midi": 61,
      "hit": false,
      "t": 193142.60999999923,
      "d": 562.7159375000338,
      "v": 109
    },
    {
      "midi": 66,
      "hit": false,
      "t": 193142.60999999923,
      "d": 562.7159375000338,
      "v": 101
    },
    {
      "midi": 58,
      "hit": false,
      "t": 193512.61499999926,
      "d": 269.7953125000058,
      "v": 101
    },
    {
      "midi": 54,
      "hit": false,
      "t": 193882.61999999927,
      "d": 269.7953125000058,
      "v": 116
    },
    {
      "midi": 58,
      "hit": false,
      "t": 193882.61999999927,
      "d": 485.63156249999884,
      "v": 109
    },
    {
      "midi": 61,
      "hit": false,
      "t": 193882.61999999927,
      "d": 493.3399999999965,
      "v": 101
    },
    {
      "midi": 42,
      "hit": false,
      "t": 193882.61999999927,
      "d": 778.5521874999977,
      "v": 121
    },
    {
      "midi": 54,
      "hit": false,
      "t": 194252.62499999927,
      "d": 185.00250000000233,
      "v": 101
    },
    {
      "midi": 56,
      "hit": false,
      "t": 194622.62999999928,
      "d": 254.37843749998137,
      "v": 121
    },
    {
      "midi": 60,
      "hit": false,
      "t": 194622.62999999928,
      "d": 477.92312499997206,
      "v": 105
    },
    {
      "midi": 63,
      "hit": false,
      "t": 194622.62999999928,
      "d": 508.75687499996275,
      "v": 116
    },
    {
      "midi": 44,
      "hit": false,
      "t": 194622.62999999928,
      "d": 647.508749999979,
      "v": 127
    },
    {
      "midi": 56,
      "hit": false,
      "t": 194992.63499999925,
      "d": 208.12781249999534,
      "v": 121
    },
    {
      "midi": 68,
      "hit": false,
      "t": 195362.63999999926,
      "d": 462.5062500000058,
      "v": 109
    },
    {
      "midi": 65,
      "hit": false,
      "t": 195362.63999999926,
      "d": 501.0484374999942,
      "v": 100
    },
    {
      "midi": 49,
      "hit": false,
      "t": 195362.63999999926,
      "d": 1495.4368749999558,
      "v": 121
    },
    {
      "midi": 61,
      "hit": false,
      "t": 196102.64999999924,
      "d": 46.25062499998603,
      "v": 49
    },
    {
      "midi": 65,
      "hit": false,
      "t": 196102.64999999924,
      "d": 516.4653124999895,
      "v": 100
    },
    {
      "midi": 68,
      "hit": false,
      "t": 196102.64999999924,
      "d": 585.8412499999977,
      "v": 101
    },
    {
      "midi": 61,
      "hit": false,
      "t": 196472.6549999992,
      "d": 231.25312500001746,
      "v": 78
    },
    {
      "midi": 59,
      "hit": false,
      "t": 196842.65999999922,
      "d": 269.7953125000058,
      "v": 115
    },
    {
      "midi": 62,
      "hit": false,
      "t": 196842.65999999922,
      "d": 539.5906250000116,
      "v": 120
    },
    {
      "midi": 67,
      "hit": false,
      "t": 196842.65999999922,
      "d": 539.5906250000116,
      "v": 115
    },
    {
      "midi": 43,
      "hit": false,
      "t": 196842.65999999922,
      "d": 793.9690625000221,
      "v": 115
    },
    {
      "midi": 59,
      "hit": false,
      "t": 197212.66499999922,
      "d": 269.7953125000058,
      "v": 92
    },
    {
      "midi": 61,
      "hit": false,
      "t": 197582.66999999923,
      "d": 423.96406250001746,
      "v": 121
    },
    {
      "midi": 64,
      "hit": false,
      "t": 197582.66999999923,
      "d": 431.67250000001513,
      "v": 105
    },
    {
      "midi": 69,
      "hit": false,
      "t": 197582.66999999923,
      "d": 439.3809375000128,
      "v": 105
    },
    {
      "midi": 45,
      "hit": false,
      "t": 197582.66999999923,
      "d": 524.1737500000163,
      "v": 124
    },
    {
      "midi": 66,
      "hit": false,
      "t": 198322.67999999924,
      "d": 439.3809375000128,
      "v": 121
    },
    {
      "midi": 62,
      "hit": false,
      "t": 198322.67999999924,
      "d": 470.2146875000035,
      "v": 100
    },
    {
      "midi": 50,
      "hit": false,
      "t": 198322.67999999924,
      "d": 1456.8946874999965,
      "v": 115
    },
    {
      "midi": 57,
      "hit": false,
      "t": 198692.68499999924,
      "d": 555.007500000007,
      "v": 96
    },
    {
      "midi": 66,
      "hit": false,
      "t": 199062.68999999925,
      "d": 501.0484374999942,
      "v": 116
    },
    {
      "midi": 69,
      "hit": false,
      "t": 199062.68999999925,
      "d": 501.0484374999942,
      "v": 110
    },
    {
      "midi": 62,
      "hit": false,
      "t": 199062.68999999925,
      "d": 516.4653124999895,
      "v": 105
    },
    {
      "midi": 57,
      "hit": false,
      "t": 199432.69499999925,
      "d": 531.8821874999849,
      "v": 89
    },
    {
      "midi": 66,
      "hit": false,
      "t": 199802.69999999923,
      "d": 493.3399999999965,
      "v": 116
    },
    {
      "midi": 62,
      "hit": false,
      "t": 199802.69999999923,
      "d": 501.0484374999942,
      "v": 100
    },
    {
      "midi": 69,
      "hit": false,
      "t": 199802.69999999923,
      "d": 524.1737499999872,
      "v": 105
    },
    {
      "midi": 50,
      "hit": false,
      "t": 199802.69999999923,
      "d": 1595.6465624999546,
      "v": 115
    },
    {
      "midi": 57,
      "hit": false,
      "t": 200542.7099999992,
      "d": 53.959062500012806,
      "v": 86
    },
    {
      "midi": 62,
      "hit": false,
      "t": 200542.7099999992,
      "d": 408.547187499993,
      "v": 100
    },
    {
      "midi": 69,
      "hit": false,
      "t": 200542.7099999992,
      "d": 431.67249999998603,
      "v": 100
    },
    {
      "midi": 66,
      "hit": false,
      "t": 200542.7099999992,
      "d": 439.3809374999837,
      "v": 109
    },
    {
      "midi": 57,
      "hit": false,
      "t": 200912.7149999992,
      "d": 408.5471874999639,
      "v": 96
    },
    {
      "midi": 66,
      "hit": false,
      "t": 201282.7199999992,
      "d": 462.5062500000058,
      "v": 109
    },
    {
      "midi": 69,
      "hit": false,
      "t": 201282.7199999992,
      "d": 555.007500000007,
      "v": 105
    },
    {
      "midi": 61,
      "hit": false,
      "t": 201282.7199999992,
      "d": 570.4243750000023,
      "v": 109
    },
    {
      "midi": 49,
      "hit": false,
      "t": 201282.7199999992,
      "d": 1472.3115624999919,
      "v": 125
    },
    {
      "midi": 57,
      "hit": false,
      "t": 201652.7249999992,
      "d": 578.1328125,
      "v": 78
    },
    {
      "midi": 69,
      "hit": false,
      "t": 202022.7299999992,
      "d": 416.2556249999907,
      "v": 110
    },
    {
      "midi": 66,
      "hit": false,
      "t": 202022.7299999992,
      "d": 439.3809374999837,
      "v": 116
    },
    {
      "midi": 61,
      "hit": false,
      "t": 202022.7299999992,
      "d": 516.4653124999895,
      "v": 109
    },
    {
      "midi": 57,
      "hit": false,
      "t": 202762.73999999918,
      "d": 53.959062500012806,
      "v": 86
    },
    {
      "midi": 69,
      "hit": false,
      "t": 202762.73999999918,
      "d": 423.96406250001746,
      "v": 105
    },
    {
      "midi": 66,
      "hit": false,
      "t": 202762.73999999918,
      "d": 508.75687500002095,
      "v": 101
    },
    {
      "midi": 61,
      "hit": false,
      "t": 202762.73999999918,
      "d": 516.4653125000186,
      "v": 116
    },
    {
      "midi": 49,
      "hit": false,
      "t": 202762.73999999918,
      "d": 747.718437500007,
      "v": 121
    },
    {
      "midi": 57,
      "hit": false,
      "t": 203132.74499999918,
      "d": 161.8771875000093,
      "v": 92
    },
    {
      "midi": 58,
      "hit": false,
      "t": 203502.74999999919,
      "d": 262.08687500000815,
      "v": 121
    },
    {
      "midi": 61,
      "hit": false,
      "t": 203502.74999999919,
      "d": 547.2990625000093,
      "v": 121
    },
    {
      "midi": 66,
      "hit": false,
      "t": 203502.74999999919,
      "d": 616.6749999999884,
      "v": 109
    },
    {
      "midi": 42,
      "hit": false,
      "t": 203502.74999999919,
      "d": 770.8437499999709,
      "v": 125
    },
    {
      "midi": 58,
      "hit": false,
      "t": 203872.7549999992,
      "d": 215.83624999999302,
      "v": 101
    },
    {
      "midi": 59,
      "hit": false,
      "t": 204242.75999999917,
      "d": 269.7953124999767,
      "v": 100
    },
    {
      "midi": 66,
      "hit": false,
      "t": 204242.75999999917,
      "d": 462.5062499999767,
      "v": 121
    },
    {
      "midi": 62,
      "hit": false,
      "t": 204242.75999999917,
      "d": 516.4653124999895,
      "v": 105
    },
    {
      "midi": 47,
      "hit": false,
      "t": 204242.75999999917,
      "d": 1456.8946874999674,
      "v": 120
    },
    {
      "midi": 59,
      "hit": false,
      "t": 204982.76999999915,
      "d": 61.66750000001048,
      "v": 55
    },
    {
      "midi": 66,
      "hit": false,
      "t": 204982.76999999915,
      "d": 578.1328125,
      "v": 121
    },
    {
      "midi": 59,
      "hit": false,
      "t": 205352.77499999915,
      "d": 362.2965624999779,
      "v": 86
    },
    {
      "midi": 62,
      "hit": false,
      "t": 205722.77999999913,
      "d": 23.125312499993015,
      "v": 68
    },
    {
      "midi": 71,
      "hit": false,
      "t": 205722.77999999913,
      "d": 431.67250000001513,
      "v": 110
    },
    {
      "midi": 47,
      "hit": false,
      "t": 205722.77999999913,
      "d": 1557.1043749999662,
      "v": 105
    },
    {
      "midi": 59,
      "hit": false,
      "t": 206462.78999999914,
      "d": 38.54218749998836,
      "v": 92
    },
    {
      "midi": 66,
      "hit": false,
      "t": 206462.78999999914,
      "d": 493.3399999999674,
      "v": 116
    },
    {
      "midi": 62,
      "hit": false,
      "t": 206462.78999999914,
      "d": 701.4678124999627,
      "v": 105
    },
    {
      "midi": 59,
      "hit": false,
      "t": 206832.7949999991,
      "d": 370.00499999997555,
      "v": 89
    },
    {
      "midi": 57,
      "hit": false,
      "t": 207202.7999999991,
      "d": 246.6700000000128,
      "v": 105
    },
    {
      "midi": 66,
      "hit": false,
      "t": 207202.7999999991,
      "d": 524.1737500000163,
      "v": 121
    },
    {
      "midi": 61,
      "hit": false,
      "t": 207202.7999999991,
      "d": 555.007500000007,
      "v": 121
    },
    {
      "midi": 42,
      "hit": false,
      "t": 207202.7999999991,
      "d": 1503.1453125000116,
      "v": 121
    },
    {
      "midi": 57,
      "hit": false,
      "t": 207942.8099999991,
      "d": 53.959062500012806,
      "v": 83
    },
    {
      "midi": 61,
      "hit": false,
      "t": 207942.8099999991,
      "d": 809.3859374999884,
      "v": 109
    },
    {
      "midi": 66,
      "hit": false,
      "t": 207942.8099999991,
      "d": 1032.930624999979,
      "v": 109
    },
    {
      "midi": 57,
      "hit": false,
      "t": 208312.8149999991,
      "d": 624.383437499986,
      "v": 120
    },
    {
      "midi": 49,
      "hit": false,
      "t": 208682.8199999991,
      "d": 1533.9790625000023,
      "v": 127
    },
    {
      "midi": 61,
      "hit": false,
      "t": 209052.82499999908,
      "d": 269.7953125000058,
      "v": 125
    },
    {
      "midi": 62,
      "hit": false,
      "t": 209237.82749999908,
      "d": 331.4628125000163,
      "v": 96
    },
    {
      "midi": 64,
      "hit": false,
      "t": 209422.82999999908,
      "d": 185.00250000000233,
      "v": 89
    },
    {
      "midi": 69,
      "hit": false,
      "t": 209607.8324999991,
      "d": 485.63156249999884,
      "v": 120
    },
    {
      "midi": 59,
      "hit": false,
      "t": 210162.8399999991,
      "d": 292.92062499999884,
      "v": 110
    },
    {
      "midi": 62,
      "hit": false,
      "t": 210162.8399999991,
      "d": 570.4243750000023,
      "v": 115
    },
    {
      "midi": 67,
      "hit": false,
      "t": 210162.8399999991,
      "d": 616.6749999999884,
      "v": 115
    },
    {
      "midi": 59,
      "hit": false,
      "t": 210902.84999999907,
      "d": 38.54218749998836,
      "v": 92
    },
    {
      "midi": 67,
      "hit": false,
      "t": 210902.84999999907,
      "d": 524.1737499999872,
      "v": 100
    },
    {
      "midi": 62,
      "hit": false,
      "t": 210902.84999999907,
      "d": 601.258124999993,
      "v": 115
    },
    {
      "midi": 59,
      "hit": false,
      "t": 211272.85499999905,
      "d": 370.00500000000466,
      "v": 96
    },
    {
      "midi": 43,
      "hit": false,
      "t": 211642.85999999905,
      "d": 15.416874999995343,
      "v": 105
    },
    {
      "midi": 59,
      "hit": false,
      "t": 211642.85999999905,
      "d": 285.21218750000116,
      "v": 110
    },
    {
      "midi": 67,
      "hit": false,
      "t": 211642.85999999905,
      "d": 539.5906250000116,
      "v": 100
    },
    {
      "midi": 62,
      "hit": false,
      "t": 211642.85999999905,
      "d": 547.2990625000093,
      "v": 105
    },
    {
      "midi": 59,
      "hit": false,
      "t": 212382.86999999906,
      "d": 23.125312499993015,
      "v": 96
    },
    {
      "midi": 67,
      "hit": false,
      "t": 212382.86999999906,
      "d": 477.92312500000116,
      "v": 100
    },
    {
      "midi": 62,
      "hit": false,
      "t": 212382.86999999906,
      "d": 508.75687499999185,
      "v": 110
    },
    {
      "midi": 59,
      "hit": false,
      "t": 212752.87499999907,
      "d": 393.13031249996857,
      "v": 86
    },
    {
      "midi": 69,
      "hit": false,
      "t": 213122.87999999904,
      "d": 431.67250000001513,
      "v": 105
    },
    {
      "midi": 66,
      "hit": false,
      "t": 213122.87999999904,
      "d": 454.79781250000815,
      "v": 101
    },
    {
      "midi": 62,
      "hit": false,
      "t": 213122.87999999904,
      "d": 508.75687500002095,
      "v": 100
    },
    {
      "midi": 50,
      "hit": false,
      "t": 213122.87999999904,
      "d": 1533.9790625000023,
      "v": 115
    },
    {
      "midi": 57,
      "hit": false,
      "t": 213492.88499999905,
      "d": 593.5496874999953,
      "v": 86
    },
    {
      "midi": 62,
      "hit": false,
      "t": 213862.88999999905,
      "d": 562.7159375000047,
      "v": 86
    },
    {
      "midi": 66,
      "hit": false,
      "t": 213862.88999999905,
      "d": 593.5496874999953,
      "v": 101
    },
    {
      "midi": 69,
      "hit": false,
      "t": 213862.88999999905,
      "d": 662.9256250000035,
      "v": 100
    },
    {
      "midi": 57,
      "hit": false,
      "t": 214232.89499999906,
      "d": 339.17124999998487,
      "v": 92
    },
    {
      "midi": 59,
      "hit": false,
      "t": 214602.89999999903,
      "d": 277.5037500000035,
      "v": 100
    },
    {
      "midi": 66,
      "hit": false,
      "t": 214602.89999999903,
      "d": 508.75687499999185,
      "v": 121
    },
    {
      "midi": 62,
      "hit": false,
      "t": 214602.89999999903,
      "d": 531.8821874999849,
      "v": 105
    },
    {
      "midi": 69,
      "hit": false,
      "t": 214602.89999999903,
      "d": 531.8821874999849,
      "v": 105
    },
    {
      "midi": 47,
      "hit": false,
      "t": 214602.89999999903,
      "d": 1618.7718749999476,
      "v": 100
    },
    {
      "midi": 59,
      "hit": false,
      "t": 215342.909999999,
      "d": 61.66750000001048,
      "v": 89
    },
    {
      "midi": 62,
      "hit": false,
      "t": 215342.909999999,
      "d": 470.2146875000035,
      "v": 100
    },
    {
      "midi": 66,
      "hit": false,
      "t": 215342.909999999,
      "d": 493.3399999999965,
      "v": 109
    },
    {
      "midi": 69,
      "hit": false,
      "t": 215342.909999999,
      "d": 508.75687499999185,
      "v": 100
    },
    {
      "midi": 59,
      "hit": false,
      "t": 216082.919999999,
      "d": 69.37593750000815,
      "v": 63
    },
    {
      "midi": 66,
      "hit": false,
      "t": 216082.919999999,
      "d": 115.62656249999418,
      "v": 69
    },
    {
      "midi": 68,
      "hit": false,
      "t": 216082.919999999,
      "d": 516.4653124999895,
      "v": 125
    },
    {
      "midi": 64,
      "hit": false,
      "t": 216082.919999999,
      "d": 539.5906249999825,
      "v": 110
    },
    {
      "midi": 40,
      "hit": false,
      "t": 216082.919999999,
      "d": 1611.06343749995,
      "v": 115
    },
    {
      "midi": 59,
      "hit": false,
      "t": 216452.92499999897,
      "d": 585.8412499999977,
      "v": 89
    },
    {
      "midi": 68,
      "hit": false,
      "t": 216822.92999999897,
      "d": 447.0893750000105,
      "v": 121
    },
    {
      "midi": 64,
      "hit": false,
      "t": 216822.92999999897,
      "d": 531.882187500014,
      "v": 100
    },
    {
      "midi": 59,
      "hit": false,
      "t": 217192.93499999898,
      "d": 539.5906249999534,
      "v": 100
    },
    {
      "midi": 64,
      "hit": false,
      "t": 217377.93749999898,
      "d": 138.7518749999872,
      "v": 17
    },
    {
      "midi": 68,
      "hit": false,
      "t": 217562.93999999895,
      "d": 524.1737499999872,
      "v": 109
    },
    {
      "midi": 71,
      "hit": false,
      "t": 217562.93999999895,
      "d": 524.1737499999872,
      "v": 105
    },
    {
      "midi": 64,
      "hit": false,
      "t": 217562.93999999895,
      "d": 539.5906249999825,
      "v": 96
    },
    {
      "midi": 47,
      "hit": false,
      "t": 217562.93999999895,
      "d": 847.9281249999767,
      "v": 115
    },
    {
      "midi": 59,
      "hit": false,
      "t": 218302.94999999893,
      "d": 15.416874999995343,
      "v": 96
    },
    {
      "midi": 64,
      "hit": false,
      "t": 218302.94999999893,
      "d": 578.1328125,
      "v": 105
    },
    {
      "midi": 68,
      "hit": false,
      "t": 218302.94999999893,
      "d": 593.5496874999953,
      "v": 121
    },
    {
      "midi": 40,
      "hit": false,
      "t": 218302.94999999893,
      "d": 809.3859375000175,
      "v": 100
    },
    {
      "midi": 59,
      "hit": false,
      "t": 218672.95499999894,
      "d": 215.83624999999302,
      "v": 92
    },
    {
      "midi": 69,
      "hit": false,
      "t": 219042.95999999894,
      "d": 408.547187499993,
      "v": 110
    },
    {
      "midi": 64,
      "hit": false,
      "t": 219042.95999999894,
      "d": 516.4653124999895,
      "v": 105
    },
    {
      "midi": 45,
      "hit": false,
      "t": 219042.95999999894,
      "d": 1418.35249999995,
      "v": 120
    },
    {
      "midi": 61,
      "hit": false,
      "t": 219412.96499999895,
      "d": 608.9665624999616,
      "v": 101
    },
    {
      "midi": 64,
      "hit": false,
      "t": 219782.96999999892,
      "d": 262.08687499997905,
      "v": 100
    },
    {
      "midi": 69,
      "hit": false,
      "t": 219782.96999999892,
      "d": 269.7953124999767,
      "v": 96
    },
    {
      "midi": 69,
      "hit": false,
      "t": 220152.9749999989,
      "d": 262.08687500000815,
      "v": 110
    },
    {
      "midi": 59,
      "hit": false,
      "t": 220152.9749999989,
      "d": 277.5037500000035,
      "v": 96
    },
    {
      "midi": 62,
      "hit": false,
      "t": 220152.9749999989,
      "d": 285.21218750000116,
      "v": 100
    },
    {
      "midi": 57,
      "hit": false,
      "t": 220522.9799999989,
      "d": 262.08687500000815,
      "v": 120
    },
    {
      "midi": 64,
      "hit": false,
      "t": 220522.9799999989,
      "d": 462.5062500000058,
      "v": 110
    },
    {
      "midi": 61,
      "hit": false,
      "t": 220522.9799999989,
      "d": 493.3399999999965,
      "v": 125
    },
    {
      "midi": 45,
      "hit": false,
      "t": 220522.9799999989,
      "d": 840.2196875000081,
      "v": 115
    },
    {
      "midi": 57,
      "hit": false,
      "t": 221262.9899999989,
      "d": 53.959062500012806,
      "v": 83
    },
    {
      "midi": 52,
      "hit": false,
      "t": 221262.9899999989,
      "d": 555.007500000007,
      "v": 120
    },
    {
      "midi": 64,
      "hit": false,
      "t": 221262.9899999989,
      "d": 639.8003125000105,
      "v": 120
    },
    {
      "midi": 67,
      "hit": false,
      "t": 221262.9899999989,
      "d": 647.5087500000081,
      "v": 115
    },
    {
      "midi": 57,
      "hit": false,
      "t": 221632.99499999892,
      "d": 277.5037500000035,
      "v": 105
    },
    {
      "midi": 66,
      "hit": false,
      "t": 222002.99999999892,
      "d": 493.3399999999965,
      "v": 116
    },
    {
      "midi": 62,
      "hit": false,
      "t": 222002.99999999892,
      "d": 524.1737499999872,
      "v": 105
    },
    {
      "midi": 50,
      "hit": false,
      "t": 222002.99999999892,
      "d": 1464.6031249999942,
      "v": 110
    },
    {
      "midi": 57,
      "hit": false,
      "t": 222373.00499999893,
      "d": 578.1328124999709,
      "v": 92
    },
    {
      "midi": 66,
      "hit": false,
      "t": 222743.0099999989,
      "d": 439.3809375000128,
      "v": 116
    },
    {
      "midi": 62,
      "hit": false,
      "t": 222743.0099999989,
      "d": 740.0100000000093,
      "v": 96
    },
    {
      "midi": 57,
      "hit": false,
      "t": 223113.0149999989,
      "d": 555.007500000007,
      "v": 115
    },
    {
      "midi": 62,
      "hit": false,
      "t": 223483.0199999989,
      "d": 562.7159375000047,
      "v": 89
    },
    {
      "midi": 69,
      "hit": false,
      "t": 223483.0199999989,
      "d": 562.7159375000047,
      "v": 115
    },
    {
      "midi": 50,
      "hit": false,
      "t": 223483.0199999989,
      "d": 1626.4803125000035,
      "v": 105
    },
    {
      "midi": 57,
      "hit": false,
      "t": 223853.02499999892,
      "d": 647.5087500000081,
      "v": 92
    },
    {
      "midi": 66,
      "hit": false,
      "t": 224223.02999999892,
      "d": 516.4653125000186,
      "v": 121
    },
    {
      "midi": 62,
      "hit": false,
      "t": 224223.02999999892,
      "d": 716.8846875000163,
      "v": 100
    },
    {
      "midi": 57,
      "hit": false,
      "t": 224963.03999999893,
      "d": 15.416874999995343,
      "v": 89
    },
    {
      "midi": 66,
      "hit": false,
      "t": 224963.03999999893,
      "d": 531.8821874999849,
      "v": 116
    },
    {
      "midi": 61,
      "hit": false,
      "t": 224963.03999999893,
      "d": 555.0074999999779,
      "v": 121
    },
    {
      "midi": 57,
      "hit": false,
      "t": 225333.0449999989,
      "d": 570.4243750000023,
      "v": 86
    },
    {
      "midi": 66,
      "hit": false,
      "t": 225703.0499999989,
      "d": 524.1737500000163,
      "v": 109
    },
    {
      "midi": 57,
      "hit": false,
      "t": 226073.05499999892,
      "d": 516.4653124999895,
      "v": 110
    },
    {
      "midi": 49,
      "hit": false,
      "t": 226443.05999999892,
      "d": 7.708437499997672,
      "v": 116
    },
    {
      "midi": 61,
      "hit": false,
      "t": 226443.05999999892,
      "d": 30.833749999990687,
      "v": 69
    },
    {
      "midi": 69,
      "hit": false,
      "t": 226443.05999999892,
      "d": 470.2146874999744,
      "v": 110
    },
    {
      "midi": 57,
      "hit": false,
      "t": 226813.0649999989,
      "d": 169.58562500000698,
      "v": 92
    },
    {
      "midi": 61,
      "hit": false,
      "t": 226998.0674999989,
      "d": 107.91812499999651,
      "v": 41
    },
    {
      "midi": 58,
      "hit": false,
      "t": 227183.0699999989,
      "d": 277.5037500000035,
      "v": 121
    },
    {
      "midi": 66,
      "hit": false,
      "t": 227183.0699999989,
      "d": 608.9665624999907,
      "v": 116
    },
    {
      "midi": 61,
      "hit": false,
      "t": 227183.0699999989,
      "d": 647.508749999979,
      "v": 121
    },
    {
      "midi": 42,
      "hit": false,
      "t": 227183.0699999989,
      "d": 793.969062499993,
      "v": 121
    },
    {
      "midi": 58,
      "hit": false,
      "t": 227553.0749999989,
      "d": 262.08687499997905,
      "v": 101
    },
    {
      "midi": 66,
      "hit": false,
      "t": 227923.07999999888,
      "d": 447.0893750000105,
      "v": 121
    },
    {
      "midi": 62,
      "hit": false,
      "t": 227923.07999999888,
      "d": 485.63156249999884,
      "v": 110
    },
    {
      "midi": 47,
      "hit": false,
      "t": 227923.07999999888,
      "d": 1456.8946874999965,
      "v": 105
    },
    {
      "midi": 59,
      "hit": false,
      "t": 228293.0849999989,
      "d": 524.1737500000163,
      "v": 100
    },
    {
      "midi": 66,
      "hit": false,
      "t": 228663.0899999989,
      "d": 493.3399999999965,
      "v": 121
    },
    {
      "midi": 62,
      "hit": false,
      "t": 228663.0899999989,
      "d": 1279.6006249999919,
      "v": 100
    },
    {
      "midi": 59,
      "hit": false,
      "t": 229033.0949999989,
      "d": 431.67249999998603,
      "v": 96
    },
    {
      "midi": 71,
      "hit": false,
      "t": 229403.09999999887,
      "d": 470.2146875000035,
      "v": 110
    },
    {
      "midi": 59,
      "hit": false,
      "t": 229773.10499999888,
      "d": 647.5087500000081,
      "v": 80
    },
    {
      "midi": 47,
      "hit": false,
      "t": 230143.10999999888,
      "d": 69.37593750000815,
      "v": 100
    },
    {
      "midi": 66,
      "hit": false,
      "t": 230143.10999999888,
      "d": 508.75687499999185,
      "v": 121
    },
    {
      "midi": 62,
      "hit": false,
      "t": 230143.10999999888,
      "d": 686.0509374999965,
      "v": 100
    },
    {
      "midi": 59,
      "hit": false,
      "t": 230513.11499999888,
      "d": 339.17124999998487,
      "v": 74
    },
    {
      "midi": 57,
      "hit": false,
      "t": 230883.11999999886,
      "d": 269.7953125000058,
      "v": 115
    },
    {
      "midi": 66,
      "hit": false,
      "t": 230883.11999999886,
      "d": 524.1737500000163,
      "v": 116
    },
    {
      "midi": 61,
      "hit": false,
      "t": 230883.11999999886,
      "d": 601.2581250000221,
      "v": 121
    },
    {
      "midi": 42,
      "hit": false,
      "t": 230883.11999999886,
      "d": 1533.9790624999732,
      "v": 116
    },
    {
      "midi": 57,
      "hit": false,
      "t": 231253.12499999886,
      "d": 585.8412499999977,
      "v": 78
    },
    {
      "midi": 66,
      "hit": false,
      "t": 231623.12999999887,
      "d": 408.547187499993,
      "v": 121
    },
    {
      "midi": 61,
      "hit": false,
      "t": 231623.12999999887,
      "d": 778.5521874999686,
      "v": 109
    },
    {
      "midi": 57,
      "hit": false,
      "t": 231993.13499999887,
      "d": 624.3834374999569,
      "v": 115
    },
    {
      "midi": 49,
      "hit": false,
      "t": 232363.13999999885,
      "d": 1510.8537499999802,
      "v": 127
    },
    {
      "midi": 61,
      "hit": false,
      "t": 232733.14499999883,
      "d": 300.6290624999965,
      "v": 125
    },
    {
      "midi": 62,
      "hit": false,
      "t": 232918.14749999883,
      "d": 362.296562500007,
      "v": 100
    },
    {
      "midi": 64,
      "hit": false,
      "t": 233103.14999999883,
      "d": 185.00250000000233,
      "v": 76
    },
    {
      "midi": 69,
      "hit": false,
      "t": 233288.15249999883,
      "d": 501.0484374999942,
      "v": 120
    },
    {
      "midi": 59,
      "hit": false,
      "t": 233843.15999999884,
      "d": 292.92062499999884,
      "v": 105
    },
    {
      "midi": 67,
      "hit": false,
      "t": 233843.15999999884,
      "d": 508.75687499999185,
      "v": 110
    },
    {
      "midi": 62,
      "hit": false,
      "t": 233843.15999999884,
      "d": 555.0074999999779,
      "v": 110
    },
    {
      "midi": 43,
      "hit": false,
      "t": 233843.15999999884,
      "d": 1264.1837499999965,
      "v": 115
    },
    {
      "midi": 59,
      "hit": false,
      "t": 234213.16499999884,
      "d": 647.508749999979,
      "v": 78
    },
    {
      "midi": 67,
      "hit": false,
      "t": 234583.16999999882,
      "d": 447.0893750000105,
      "v": 96
    },
    {
      "midi": 62,
      "hit": false,
      "t": 234583.16999999882,
      "d": 547.2990625000093,
      "v": 96
    },
    {
      "midi": 45,
      "hit": false,
      "t": 234953.17499999882,
      "d": 439.3809374999837,
      "v": 115
    },
    {
      "midi": 59,
      "hit": false,
      "t": 235323.17999999883,
      "d": 30.833749999990687,
      "v": 86
    },
    {
      "midi": 67,
      "hit": false,
      "t": 235323.17999999883,
      "d": 454.79781249997905,
      "v": 96
    },
    {
      "midi": 62,
      "hit": false,
      "t": 235323.17999999883,
      "d": 531.8821874999849,
      "v": 110
    },
    {
      "midi": 47,
      "hit": false,
      "t": 235323.17999999883,
      "d": 1518.5621874999779,
      "v": 110
    },
    {
      "midi": 59,
      "hit": false,
      "t": 236063.1899999988,
      "d": 38.54218749998836,
      "v": 83
    },
    {
      "midi": 62,
      "hit": false,
      "t": 236063.1899999988,
      "d": 524.1737499999872,
      "v": 105
    },
    {
      "midi": 67,
      "hit": false,
      "t": 236063.1899999988,
      "d": 686.0509374999965,
      "v": 96
    },
    {
      "midi": 59,
      "hit": false,
      "t": 236433.19499999878,
      "d": 377.71343750003143,
      "v": 80
    },
    {
      "midi": 66,
      "hit": false,
      "t": 236803.19999999882,
      "d": 439.3809374999837,
      "v": 121
    },
    {
      "midi": 62,
      "hit": false,
      "t": 236803.19999999882,
      "d": 516.4653124999895,
      "v": 100
    },
    {
      "midi": 50,
      "hit": false,
      "t": 236803.19999999882,
      "d": 1518.5621874999488,
      "v": 110
    },
    {
      "midi": 57,
      "hit": false,
      "t": 237543.2099999988,
      "d": 84.79281250000349,
      "v": 68
    },
    {
      "midi": 66,
      "hit": false,
      "t": 237543.2099999988,
      "d": 485.63156249999884,
      "v": 116
    },
    {
      "midi": 62,
      "hit": false,
      "t": 237543.2099999988,
      "d": 693.7593749999942,
      "v": 105
    },
    {
      "midi": 57,
      "hit": false,
      "t": 237913.2149999988,
      "d": 323.7543749999895,
      "v": 96
    },
    {
      "midi": 59,
      "hit": false,
      "t": 238283.21999999878,
      "d": 269.7953124999767,
      "v": 96
    },
    {
      "midi": 66,
      "hit": false,
      "t": 238283.21999999878,
      "d": 493.3399999999674,
      "v": 116
    },
    {
      "midi": 62,
      "hit": false,
      "t": 238283.21999999878,
      "d": 516.4653124999604,
      "v": 110
    },
    {
      "midi": 47,
      "hit": false,
      "t": 238283.21999999878,
      "d": 1587.938124999957,
      "v": 100
    },
    {
      "midi": 59,
      "hit": false,
      "t": 239023.22999999873,
      "d": 53.959062500012806,
      "v": 83
    },
    {
      "midi": 62,
      "hit": false,
      "t": 239023.22999999873,
      "d": 524.1737500000163,
      "v": 105
    },
    {
      "midi": 66,
      "hit": false,
      "t": 239023.22999999873,
      "d": 531.882187500014,
      "v": 121
    },
    {
      "midi": 59,
      "hit": false,
      "t": 239393.23499999873,
      "d": 547.2990625000093,
      "v": 86
    },
    {
      "midi": 68,
      "hit": false,
      "t": 239763.23999999874,
      "d": 485.63156249999884,
      "v": 121
    },
    {
      "midi": 64,
      "hit": false,
      "t": 239763.23999999874,
      "d": 508.75687499999185,
      "v": 105
    },
    {
      "midi": 40,
      "hit": false,
      "t": 239763.23999999874,
      "d": 1611.063437499979,
      "v": 110
    },
    {
      "midi": 59,
      "hit": false,
      "t": 240133.24499999874,
      "d": 578.1328124999709,
      "v": 89
    },
    {
      "midi": 68,
      "hit": false,
      "t": 240503.24999999872,
      "d": 578.1328125,
      "v": 116
    },
    {
      "midi": 64,
      "hit": false,
      "t": 240503.24999999872,
      "d": 585.8412499999977,
      "v": 105
    },
    {
      "midi": 66,
      "hit": false,
      "t": 240688.25249999872,
      "d": 200.41937499999767,
      "v": 1
    },
    {
      "midi": 59,
      "hit": false,
      "t": 240873.25499999872,
      "d": 215.83624999999302,
      "v": 96
    },
    {
      "midi": 61,
      "hit": false,
      "t": 241243.25999999873,
      "d": 277.5037500000035,
      "v": 116
    },
    {
      "midi": 69,
      "hit": false,
      "t": 241243.25999999873,
      "d": 447.0893750000105,
      "v": 96
    },
    {
      "midi": 64,
      "hit": false,
      "t": 241243.25999999873,
      "d": 524.1737500000163,
      "v": 100
    },
    {
      "midi": 45,
      "hit": false,
      "t": 241243.25999999873,
      "d": 1549.3959374999686,
      "v": 115
    },
    {
      "midi": 61,
      "hit": false,
      "t": 241983.26999999874,
      "d": 38.54218749998836,
      "v": 78
    },
    {
      "midi": 64,
      "hit": false,
      "t": 241983.26999999874,
      "d": 555.0074999999779,
      "v": 100
    },
    {
      "midi": 69,
      "hit": false,
      "t": 241983.26999999874,
      "d": 585.8412499999686,
      "v": 89
    },
    {
      "midi": 61,
      "hit": false,
      "t": 242353.2749999987,
      "d": 254.37843749998137,
      "v": 74
    },
    {
      "midi": 66,
      "hit": false,
      "t": 242723.2799999987,
      "d": 454.79781250000815,
      "v": 116
    },
    {
      "midi": 62,
      "hit": false,
      "t": 242723.2799999987,
      "d": 531.882187500014,
      "v": 100
    },
    {
      "midi": 50,
      "hit": false,
      "t": 242723.2799999987,
      "d": 1472.311562500021,
      "v": 105
    },
    {
      "midi": 57,
      "hit": false,
      "t": 243463.2899999987,
      "d": 84.79281250000349,
      "v": 54
    },
    {
      "midi": 66,
      "hit": false,
      "t": 243463.2899999987,
      "d": 524.1737500000163,
      "v": 121
    },
    {
      "midi": 62,
      "hit": false,
      "t": 243463.2899999987,
      "d": 624.3834375000151,
      "v": 105
    },
    {
      "midi": 57,
      "hit": false,
      "t": 243833.2949999987,
      "d": 238.96156250001513,
      "v": 66
    },
    {
      "midi": 59,
      "hit": false,
      "t": 244203.2999999987,
      "d": 262.08687500000815,
      "v": 100
    },
    {
      "midi": 62,
      "hit": false,
      "t": 244203.2999999987,
      "d": 477.92312500000116,
      "v": 110
    },
    {
      "midi": 66,
      "hit": false,
      "t": 244203.2999999987,
      "d": 501.0484374999942,
      "v": 121
    },
    {
      "midi": 47,
      "hit": false,
      "t": 244203.2999999987,
      "d": 809.3859374999884,
      "v": 110
    },
    {
      "midi": 59,
      "hit": false,
      "t": 244943.3099999987,
      "d": 53.959062500012806,
      "v": 92
    },
    {
      "midi": 66,
      "hit": false,
      "t": 244943.3099999987,
      "d": 454.79781250000815,
      "v": 125
    },
    {
      "midi": 63,
      "hit": false,
      "t": 244943.3099999987,
      "d": 531.882187500014,
      "v": 125
    },
    {
      "midi": 51,
      "hit": false,
      "t": 244943.3099999987,
      "d": 632.0918750000128,
      "v": 125
    },
    {
      "midi": 59,
      "hit": false,
      "t": 245313.3149999987,
      "d": 308.3374999999942,
      "v": 105
    },
    {
      "midi": 68,
      "hit": false,
      "t": 245683.3199999987,
      "d": 439.3809375000128,
      "v": 121
    },
    {
      "midi": 64,
      "hit": false,
      "t": 245683.3199999987,
      "d": 470.2146875000035,
      "v": 100
    },
    {
      "midi": 52,
      "hit": false,
      "t": 245683.3199999987,
      "d": 1456.8946874999965,
      "v": 115
    },
    {
      "midi": 59,
      "hit": false,
      "t": 246053.3249999987,
      "d": 555.007500000007,
      "v": 96
    },
    {
      "midi": 68,
      "hit": false,
      "t": 246423.3299999987,
      "d": 501.0484374999942,
      "v": 116
    },
    {
      "midi": 71,
      "hit": false,
      "t": 246423.3299999987,
      "d": 501.0484374999942,
      "v": 110
    },
    {
      "midi": 64,
      "hit": false,
      "t": 246423.3299999987,
      "d": 516.4653124999895,
      "v": 105
    },
    {
      "midi": 59,
      "hit": false,
      "t": 246793.3349999987,
      "d": 531.8821874999849,
      "v": 89
    },
    {
      "midi": 68,
      "hit": false,
      "t": 247163.3399999987,
      "d": 493.3399999999965,
      "v": 116
    },
    {
      "midi": 64,
      "hit": false,
      "t": 247163.3399999987,
      "d": 501.0484374999942,
      "v": 100
    },
    {
      "midi": 71,
      "hit": false,
      "t": 247163.3399999987,
      "d": 524.1737499999872,
      "v": 105
    },
    {
      "midi": 52,
      "hit": false,
      "t": 247163.3399999987,
      "d": 1595.6465624999546,
      "v": 115
    },
    {
      "midi": 59,
      "hit": false,
      "t": 247903.34999999867,
      "d": 53.959062500012806,
      "v": 86
    },
    {
      "midi": 64,
      "hit": false,
      "t": 247903.34999999867,
      "d": 408.547187499993,
      "v": 100
    },
    {
      "midi": 71,
      "hit": false,
      "t": 247903.34999999867,
      "d": 431.67249999998603,
      "v": 100
    },
    {
      "midi": 68,
      "hit": false,
      "t": 247903.34999999867,
      "d": 439.3809374999837,
      "v": 109
    },
    {
      "midi": 59,
      "hit": false,
      "t": 248273.35499999867,
      "d": 408.5471874999639,
      "v": 96
    },
    {
      "midi": 68,
      "hit": false,
      "t": 248643.35999999865,
      "d": 462.5062500000058,
      "v": 109
    },
    {
      "midi": 71,
      "hit": false,
      "t": 248643.35999999865,
      "d": 555.007500000007,
      "v": 105
    },
    {
      "midi": 63,
      "hit": false,
      "t": 248643.35999999865,
      "d": 570.4243750000023,
      "v": 109
    },
    {
      "midi": 51,
      "hit": false,
      "t": 248643.35999999865,
      "d": 1472.3115624999919,
      "v": 125
    },
    {
      "midi": 59,
      "hit": false,
      "t": 249013.36499999865,
      "d": 578.1328125,
      "v": 78
    },
    {
      "midi": 71,
      "hit": false,
      "t": 249383.36999999866,
      "d": 416.2556249999907,
      "v": 110
    },
    {
      "midi": 68,
      "hit": false,
      "t": 249383.36999999866,
      "d": 439.3809374999837,
      "v": 116
    },
    {
      "midi": 63,
      "hit": false,
      "t": 249383.36999999866,
      "d": 516.4653124999895,
      "v": 109
    },
    {
      "midi": 59,
      "hit": false,
      "t": 250123.37999999864,
      "d": 53.959062500012806,
      "v": 86
    },
    {
      "midi": 71,
      "hit": false,
      "t": 250123.37999999864,
      "d": 423.96406250001746,
      "v": 105
    },
    {
      "midi": 68,
      "hit": false,
      "t": 250123.37999999864,
      "d": 508.75687500002095,
      "v": 101
    },
    {
      "midi": 63,
      "hit": false,
      "t": 250123.37999999864,
      "d": 516.4653125000186,
      "v": 116
    },
    {
      "midi": 51,
      "hit": false,
      "t": 250123.37999999864,
      "d": 747.718437500007,
      "v": 121
    },
    {
      "midi": 59,
      "hit": false,
      "t": 250493.38499999864,
      "d": 161.8771875000093,
      "v": 92
    },
    {
      "midi": 60,
      "hit": false,
      "t": 250863.38999999865,
      "d": 262.08687500000815,
      "v": 121
    },
    {
      "midi": 63,
      "hit": false,
      "t": 250863.38999999865,
      "d": 547.2990625000093,
      "v": 121
    },
    {
      "midi": 68,
      "hit": false,
      "t": 250863.38999999865,
      "d": 616.6749999999884,
      "v": 109
    },
    {
      "midi": 44,
      "hit": false,
      "t": 250863.38999999865,
      "d": 770.8437499999709,
      "v": 125
    },
    {
      "midi": 60,
      "hit": false,
      "t": 251233.39499999865,
      "d": 215.83624999999302,
      "v": 101
    },
    {
      "midi": 61,
      "hit": false,
      "t": 251603.39999999863,
      "d": 269.7953124999767,
      "v": 100
    },
    {
      "midi": 68,
      "hit": false,
      "t": 251603.39999999863,
      "d": 462.5062499999767,
      "v": 121
    },
    {
      "midi": 64,
      "hit": false,
      "t": 251603.39999999863,
      "d": 516.4653124999895,
      "v": 105
    },
    {
      "midi": 49,
      "hit": false,
      "t": 251603.39999999863,
      "d": 1456.8946874999674,
      "v": 120
    },
    {
      "midi": 61,
      "hit": false,
      "t": 252343.4099999986,
      "d": 61.66750000001048,
      "v": 55
    },
    {
      "midi": 68,
      "hit": false,
      "t": 252343.4099999986,
      "d": 578.1328125,
      "v": 121
    },
    {
      "midi": 61,
      "hit": false,
      "t": 252713.4149999986,
      "d": 362.2965624999779,
      "v": 86
    },
    {
      "midi": 64,
      "hit": false,
      "t": 253083.4199999986,
      "d": 23.125312499993015,
      "v": 68
    },
    {
      "midi": 73,
      "hit": false,
      "t": 253083.4199999986,
      "d": 431.67250000001513,
      "v": 110
    },
    {
      "midi": 49,
      "hit": false,
      "t": 253083.4199999986,
      "d": 1557.1043749999662,
      "v": 105
    },
    {
      "midi": 61,
      "hit": false,
      "t": 253823.4299999986,
      "d": 38.54218749998836,
      "v": 92
    },
    {
      "midi": 68,
      "hit": false,
      "t": 253823.4299999986,
      "d": 493.3399999999674,
      "v": 116
    },
    {
      "midi": 64,
      "hit": false,
      "t": 253823.4299999986,
      "d": 701.4678124999627,
      "v": 105
    },
    {
      "midi": 61,
      "hit": false,
      "t": 254193.43499999857,
      "d": 370.00499999997555,
      "v": 89
    },
    {
      "midi": 59,
      "hit": false,
      "t": 254563.43999999855,
      "d": 246.6700000000128,
      "v": 105
    },
    {
      "midi": 68,
      "hit": false,
      "t": 254563.43999999855,
      "d": 524.1737500000163,
      "v": 121
    },
    {
      "midi": 63,
      "hit": false,
      "t": 254563.43999999855,
      "d": 555.007500000007,
      "v": 121
    },
    {
      "midi": 44,
      "hit": false,
      "t": 254563.43999999855,
      "d": 1503.1453125000116,
      "v": 121
    },
    {
      "midi": 59,
      "hit": false,
      "t": 255303.44999999856,
      "d": 53.959062500012806,
      "v": 83
    },
    {
      "midi": 63,
      "hit": false,
      "t": 255303.44999999856,
      "d": 809.3859374999884,
      "v": 109
    },
    {
      "midi": 68,
      "hit": false,
      "t": 255303.44999999856,
      "d": 1032.930624999979,
      "v": 109
    },
    {
      "midi": 59,
      "hit": false,
      "t": 255673.45499999856,
      "d": 624.383437499986,
      "v": 120
    },
    {
      "midi": 51,
      "hit": false,
      "t": 256043.45999999857,
      "d": 1533.9790625000023,
      "v": 127
    },
    {
      "midi": 63,
      "hit": false,
      "t": 256413.46499999854,
      "d": 269.7953125000058,
      "v": 125
    },
    {
      "midi": 64,
      "hit": false,
      "t": 256598.46749999854,
      "d": 331.4628125000163,
      "v": 96
    },
    {
      "midi": 66,
      "hit": false,
      "t": 256783.46999999855,
      "d": 185.00250000000233,
      "v": 89
    },
    {
      "midi": 71,
      "hit": false,
      "t": 256968.47249999855,
      "d": 485.63156249999884,
      "v": 120
    },
    {
      "midi": 61,
      "hit": false,
      "t": 257523.47999999856,
      "d": 292.92062499999884,
      "v": 110
    },
    {
      "midi": 64,
      "hit": false,
      "t": 257523.47999999856,
      "d": 570.4243750000023,
      "v": 115
    },
    {
      "midi": 69,
      "hit": false,
      "t": 257523.47999999856,
      "d": 616.6749999999884,
      "v": 115
    },
    {
      "midi": 61,
      "hit": false,
      "t": 258263.48999999854,
      "d": 38.54218749998836,
      "v": 92
    },
    {
      "midi": 69,
      "hit": false,
      "t": 258263.48999999854,
      "d": 524.1737499999872,
      "v": 100
    },
    {
      "midi": 64,
      "hit": false,
      "t": 258263.48999999854,
      "d": 601.258124999993,
      "v": 115
    },
    {
      "midi": 61,
      "hit": false,
      "t": 258633.4949999985,
      "d": 370.00500000000466,
      "v": 96
    },
    {
      "midi": 45,
      "hit": false,
      "t": 259003.49999999852,
      "d": 15.416874999995343,
      "v": 105
    },
    {
      "midi": 61,
      "hit": false,
      "t": 259003.49999999852,
      "d": 285.21218750000116,
      "v": 110
    },
    {
      "midi": 69,
      "hit": false,
      "t": 259003.49999999852,
      "d": 539.5906250000116,
      "v": 100
    },
    {
      "midi": 64,
      "hit": false,
      "t": 259003.49999999852,
      "d": 547.2990625000093,
      "v": 105
    },
    {
      "midi": 61,
      "hit": false,
      "t": 259743.50999999853,
      "d": 23.125312499993015,
      "v": 96
    },
    {
      "midi": 69,
      "hit": false,
      "t": 259743.50999999853,
      "d": 477.92312500000116,
      "v": 100
    },
    {
      "midi": 64,
      "hit": false,
      "t": 259743.50999999853,
      "d": 508.75687499999185,
      "v": 110
    },
    {
      "midi": 61,
      "hit": false,
      "t": 260113.51499999853,
      "d": 393.13031249996857,
      "v": 86
    },
    {
      "midi": 71,
      "hit": false,
      "t": 260483.5199999985,
      "d": 431.67250000001513,
      "v": 105
    },
    {
      "midi": 68,
      "hit": false,
      "t": 260483.5199999985,
      "d": 454.79781250000815,
      "v": 101
    },
    {
      "midi": 64,
      "hit": false,
      "t": 260483.5199999985,
      "d": 508.75687500002095,
      "v": 100
    },
    {
      "midi": 52,
      "hit": false,
      "t": 260483.5199999985,
      "d": 1533.9790625000023,
      "v": 115
    },
    {
      "midi": 59,
      "hit": false,
      "t": 260853.5249999985,
      "d": 593.5496874999953,
      "v": 86
    },
    {
      "midi": 64,
      "hit": false,
      "t": 261223.5299999985,
      "d": 562.7159375000047,
      "v": 86
    },
    {
      "midi": 68,
      "hit": false,
      "t": 261223.5299999985,
      "d": 593.5496874999953,
      "v": 101
    },
    {
      "midi": 71,
      "hit": false,
      "t": 261223.5299999985,
      "d": 662.9256250000035,
      "v": 100
    },
    {
      "midi": 59,
      "hit": false,
      "t": 261593.53499999852,
      "d": 339.17124999998487,
      "v": 92
    },
    {
      "midi": 61,
      "hit": false,
      "t": 261963.5399999985,
      "d": 277.5037500000035,
      "v": 100
    },
    {
      "midi": 68,
      "hit": false,
      "t": 261963.5399999985,
      "d": 508.75687499999185,
      "v": 121
    },
    {
      "midi": 64,
      "hit": false,
      "t": 261963.5399999985,
      "d": 531.8821874999849,
      "v": 105
    },
    {
      "midi": 71,
      "hit": false,
      "t": 261963.5399999985,
      "d": 531.8821874999849,
      "v": 105
    },
    {
      "midi": 49,
      "hit": false,
      "t": 261963.5399999985,
      "d": 1618.7718749999476,
      "v": 100
    },
    {
      "midi": 61,
      "hit": false,
      "t": 262703.5499999985,
      "d": 61.66749999998137,
      "v": 89
    },
    {
      "midi": 64,
      "hit": false,
      "t": 262703.5499999985,
      "d": 470.2146875000326,
      "v": 100
    },
    {
      "midi": 68,
      "hit": false,
      "t": 262703.5499999985,
      "d": 493.3400000000256,
      "v": 109
    },
    {
      "midi": 71,
      "hit": false,
      "t": 262703.5499999985,
      "d": 508.75687500002095,
      "v": 100
    },
    {
      "midi": 61,
      "hit": false,
      "t": 263443.5599999985,
      "d": 69.37593749997905,
      "v": 63
    },
    {
      "midi": 68,
      "hit": false,
      "t": 263443.5599999985,
      "d": 115.62656249996508,
      "v": 69
    },
    {
      "midi": 70,
      "hit": false,
      "t": 263443.5599999985,
      "d": 516.4653124999604,
      "v": 125
    },
    {
      "midi": 66,
      "hit": false,
      "t": 263443.5599999985,
      "d": 539.5906249999534,
      "v": 110
    },
    {
      "midi": 42,
      "hit": false,
      "t": 263443.5599999985,
      "d": 1611.0634374999208,
      "v": 115
    },
    {
      "midi": 61,
      "hit": false,
      "t": 263813.56499999843,
      "d": 585.8412499999977,
      "v": 89
    },
    {
      "midi": 70,
      "hit": false,
      "t": 264183.56999999844,
      "d": 447.0893749999814,
      "v": 121
    },
    {
      "midi": 66,
      "hit": false,
      "t": 264183.56999999844,
      "d": 531.8821874999558,
      "v": 100
    },
    {
      "midi": 61,
      "hit": false,
      "t": 264553.57499999844,
      "d": 539.5906249999534,
      "v": 100
    },
    {
      "midi": 66,
      "hit": false,
      "t": 264738.5774999984,
      "d": 138.7518750000163,
      "v": 17
    },
    {
      "midi": 70,
      "hit": false,
      "t": 264923.5799999984,
      "d": 524.1737500000163,
      "v": 109
    },
    {
      "midi": 73,
      "hit": false,
      "t": 264923.5799999984,
      "d": 524.1737500000163,
      "v": 105
    },
    {
      "midi": 66,
      "hit": false,
      "t": 264923.5799999984,
      "d": 539.5906250000116,
      "v": 96
    },
    {
      "midi": 49,
      "hit": false,
      "t": 264923.5799999984,
      "d": 847.9281249999767,
      "v": 115
    },
    {
      "midi": 61,
      "hit": false,
      "t": 265663.5899999984,
      "d": 15.416874999995343,
      "v": 96
    },
    {
      "midi": 66,
      "hit": false,
      "t": 265663.5899999984,
      "d": 578.1328124999418,
      "v": 105
    },
    {
      "midi": 70,
      "hit": false,
      "t": 265663.5899999984,
      "d": 593.5496874999371,
      "v": 121
    },
    {
      "midi": 42,
      "hit": false,
      "t": 265663.5899999984,
      "d": 809.3859374999302,
      "v": 100
    },
    {
      "midi": 61,
      "hit": false,
      "t": 266033.59499999834,
      "d": 215.83624999999302,
      "v": 92
    },
    {
      "midi": 71,
      "hit": false,
      "t": 266403.59999999835,
      "d": 408.547187499993,
      "v": 110
    },
    {
      "midi": 66,
      "hit": false,
      "t": 266403.59999999835,
      "d": 516.4653125000186,
      "v": 105
    },
    {
      "midi": 47,
      "hit": false,
      "t": 266403.59999999835,
      "d": 1418.352499999979,
      "v": 120
    },
    {
      "midi": 63,
      "hit": false,
      "t": 266773.60499999835,
      "d": 608.9665624999907,
      "v": 101
    },
    {
      "midi": 66,
      "hit": false,
      "t": 267143.60999999836,
      "d": 262.08687499997905,
      "v": 100
    },
    {
      "midi": 71,
      "hit": false,
      "t": 267143.60999999836,
      "d": 269.7953124999767,
      "v": 96
    },
    {
      "midi": 71,
      "hit": false,
      "t": 267513.61499999836,
      "d": 262.08687499997905,
      "v": 110
    },
    {
      "midi": 61,
      "hit": false,
      "t": 267513.61499999836,
      "d": 277.5037499999744,
      "v": 96
    },
    {
      "midi": 64,
      "hit": false,
      "t": 267513.61499999836,
      "d": 285.21218749997206,
      "v": 100
    },
    {
      "midi": 59,
      "hit": false,
      "t": 267883.6199999983,
      "d": 262.08687499997905,
      "v": 120
    },
    {
      "midi": 66,
      "hit": false,
      "t": 267883.6199999983,
      "d": 462.5062499999767,
      "v": 110
    },
    {
      "midi": 63,
      "hit": false,
      "t": 267883.6199999983,
      "d": 493.3399999999674,
      "v": 125
    },
    {
      "midi": 47,
      "hit": false,
      "t": 267883.6199999983,
      "d": 840.2196874999208,
      "v": 115
    },
    {
      "midi": 59,
      "hit": false,
      "t": 268623.62999999826,
      "d": 53.9590624999837,
      "v": 83
    },
    {
      "midi": 54,
      "hit": false,
      "t": 268623.62999999826,
      "d": 555.0074999999488,
      "v": 120
    },
    {
      "midi": 66,
      "hit": false,
      "t": 268623.62999999826,
      "d": 639.8003124999232,
      "v": 120
    },
    {
      "midi": 69,
      "hit": false,
      "t": 268623.62999999826,
      "d": 647.5087499999208,
      "v": 115
    },
    {
      "midi": 59,
      "hit": false,
      "t": 268993.6349999982,
      "d": 277.5037499999744,
      "v": 105
    },
    {
      "midi": 68,
      "hit": false,
      "t": 269363.63999999815,
      "d": 493.3400000000256,
      "v": 116
    },
    {
      "midi": 64,
      "hit": false,
      "t": 269363.63999999815,
      "d": 524.1737500000163,
      "v": 105
    },
    {
      "midi": 52,
      "hit": false,
      "t": 269363.63999999815,
      "d": 1464.603124999965,
      "v": 110
    },
    {
      "midi": 59,
      "hit": false,
      "t": 269733.64499999816,
      "d": 578.1328125,
      "v": 92
    },
    {
      "midi": 68,
      "hit": false,
      "t": 270103.64999999816,
      "d": 439.3809374999837,
      "v": 116
    },
    {
      "midi": 64,
      "hit": false,
      "t": 270103.64999999816,
      "d": 740.0099999999511,
      "v": 96
    },
    {
      "midi": 59,
      "hit": false,
      "t": 270473.65499999817,
      "d": 555.0074999999488,
      "v": 115
    },
    {
      "midi": 64,
      "hit": false,
      "t": 270843.6599999981,
      "d": 562.7159375000047,
      "v": 89
    },
    {
      "midi": 71,
      "hit": false,
      "t": 270843.6599999981,
      "d": 562.7159375000047,
      "v": 115
    },
    {
      "midi": 52,
      "hit": false,
      "t": 270843.6599999981,
      "d": 1626.4803124999744,
      "v": 105
    },
    {
      "midi": 59,
      "hit": false,
      "t": 271213.6649999981,
      "d": 647.508749999979,
      "v": 92
    },
    {
      "midi": 68,
      "hit": false,
      "t": 271583.6699999981,
      "d": 516.4653124999604,
      "v": 121
    },
    {
      "midi": 64,
      "hit": false,
      "t": 271583.6699999981,
      "d": 716.8846874999581,
      "v": 100
    },
    {
      "midi": 59,
      "hit": false,
      "t": 272323.6799999981,
      "d": 15.416874999995343,
      "v": 89
    },
    {
      "midi": 68,
      "hit": false,
      "t": 272323.6799999981,
      "d": 531.882187500014,
      "v": 116
    },
    {
      "midi": 63,
      "hit": false,
      "t": 272323.6799999981,
      "d": 555.007500000007,
      "v": 121
    },
    {
      "midi": 59,
      "hit": false,
      "t": 272693.6849999981,
      "d": 570.4243750000023,
      "v": 86
    },
    {
      "midi": 68,
      "hit": false,
      "t": 273063.6899999981,
      "d": 524.1737500000163,
      "v": 109
    },
    {
      "midi": 59,
      "hit": false,
      "t": 273433.6949999981,
      "d": 516.4653125000186,
      "v": 110
    },
    {
      "midi": 51,
      "hit": false,
      "t": 273803.6999999981,
      "d": 7.708437499997672,
      "v": 116
    },
    {
      "midi": 63,
      "hit": false,
      "t": 273803.6999999981,
      "d": 30.833749999990687,
      "v": 69
    },
    {
      "midi": 71,
      "hit": false,
      "t": 273803.6999999981,
      "d": 470.2146875000326,
      "v": 110
    },
    {
      "midi": 59,
      "hit": false,
      "t": 274173.7049999981,
      "d": 169.58562500000698,
      "v": 92
    },
    {
      "midi": 63,
      "hit": false,
      "t": 274358.7074999981,
      "d": 107.91812500002561,
      "v": 41
    },
    {
      "midi": 60,
      "hit": false,
      "t": 274543.7099999981,
      "d": 277.5037499999744,
      "v": 121
    },
    {
      "midi": 68,
      "hit": false,
      "t": 274543.7099999981,
      "d": 608.9665624999325,
      "v": 116
    },
    {
      "midi": 63,
      "hit": false,
      "t": 274543.7099999981,
      "d": 647.5087499999208,
      "v": 121
    },
    {
      "midi": 44,
      "hit": false,
      "t": 274543.7099999981,
      "d": 793.9690624998766,
      "v": 121
    },
    {
      "midi": 60,
      "hit": false,
      "t": 274913.71499999805,
      "d": 262.08687499997905,
      "v": 101
    },
    {
      "midi": 68,
      "hit": false,
      "t": 275283.719999998,
      "d": 447.0893749999814,
      "v": 121
    },
    {
      "midi": 64,
      "hit": false,
      "t": 275283.719999998,
      "d": 485.63156249996973,
      "v": 110
    },
    {
      "midi": 49,
      "hit": false,
      "t": 275283.719999998,
      "d": 1456.8946874999674,
      "v": 105
    },
    {
      "midi": 61,
      "hit": false,
      "t": 275653.724999998,
      "d": 524.1737499999581,
      "v": 100
    },
    {
      "midi": 68,
      "hit": false,
      "t": 276023.72999999794,
      "d": 493.3400000000256,
      "v": 121
    },
    {
      "midi": 64,
      "hit": false,
      "t": 276023.72999999794,
      "d": 1279.600625000021,
      "v": 100
    },
    {
      "midi": 61,
      "hit": false,
      "t": 276393.73499999795,
      "d": 431.67249999998603,
      "v": 96
    },
    {
      "midi": 73,
      "hit": false,
      "t": 276763.73999999795,
      "d": 470.2146875000326,
      "v": 110
    },
    {
      "midi": 61,
      "hit": false,
      "t": 277133.74499999796,
      "d": 647.508749999979,
      "v": 80
    },
    {
      "midi": 49,
      "hit": false,
      "t": 277503.74999999796,
      "d": 69.37593749997905,
      "v": 100
    },
    {
      "midi": 68,
      "hit": false,
      "t": 277503.74999999796,
      "d": 508.75687499996275,
      "v": 121
    },
    {
      "midi": 64,
      "hit": false,
      "t": 277503.74999999796,
      "d": 686.0509374999674,
      "v": 100
    },
    {
      "midi": 61,
      "hit": false,
      "t": 277873.7549999979,
      "d": 339.17125000001397,
      "v": 74
    },
    {
      "midi": 59,
      "hit": false,
      "t": 278243.7599999979,
      "d": 269.7953124999767,
      "v": 115
    },
    {
      "midi": 68,
      "hit": false,
      "t": 278243.7599999979,
      "d": 524.1737500000163,
      "v": 116
    },
    {
      "midi": 63,
      "hit": false,
      "t": 278243.7599999979,
      "d": 601.258124999993,
      "v": 121
    },
    {
      "midi": 44,
      "hit": false,
      "t": 278243.7599999979,
      "d": 1533.9790625000023,
      "v": 116
    },
    {
      "midi": 59,
      "hit": false,
      "t": 278613.7649999979,
      "d": 585.8412499999977,
      "v": 78
    },
    {
      "midi": 68,
      "hit": false,
      "t": 278983.7699999979,
      "d": 408.547187499993,
      "v": 121
    },
    {
      "midi": 63,
      "hit": false,
      "t": 278983.7699999979,
      "d": 778.5521874999977,
      "v": 109
    },
    {
      "midi": 59,
      "hit": false,
      "t": 279353.7749999979,
      "d": 624.383437499986,
      "v": 115
    },
    {
      "midi": 51,
      "hit": false,
      "t": 279723.77999999793,
      "d": 1510.8537500000093,
      "v": 127
    },
    {
      "midi": 63,
      "hit": false,
      "t": 280093.78499999794,
      "d": 300.6290625000256,
      "v": 125
    },
    {
      "midi": 64,
      "hit": false,
      "t": 280278.78749999794,
      "d": 362.296562500007,
      "v": 100
    },
    {
      "midi": 66,
      "hit": false,
      "t": 280463.78999999794,
      "d": 185.00250000000233,
      "v": 76
    },
    {
      "midi": 71,
      "hit": false,
      "t": 280648.79249999794,
      "d": 501.0484375000233,
      "v": 120
    },
    {
      "midi": 61,
      "hit": false,
      "t": 281203.79999999795,
      "d": 292.92062499996973,
      "v": 105
    },
    {
      "midi": 69,
      "hit": false,
      "t": 281203.79999999795,
      "d": 508.75687499996275,
      "v": 110
    },
    {
      "midi": 64,
      "hit": false,
      "t": 281203.79999999795,
      "d": 555.0074999999488,
      "v": 110
    },
    {
      "midi": 45,
      "hit": false,
      "t": 281203.79999999795,
      "d": 1264.183749999851,
      "v": 115
    },
    {
      "midi": 61,
      "hit": false,
      "t": 281573.8049999979,
      "d": 647.508749999979,
      "v": 78
    },
    {
      "midi": 69,
      "hit": false,
      "t": 281943.8099999979,
      "d": 447.08937499992317,
      "v": 96
    },
    {
      "midi": 64,
      "hit": false,
      "t": 281943.8099999979,
      "d": 547.2990624998929,
      "v": 96
    },
    {
      "midi": 47,
      "hit": false,
      "t": 282313.81499999785,
      "d": 439.3809374999255,
      "v": 115
    },
    {
      "midi": 61,
      "hit": false,
      "t": 282683.8199999978,
      "d": 30.833749999990687,
      "v": 86
    },
    {
      "midi": 69,
      "hit": false,
      "t": 282683.8199999978,
      "d": 454.79781249997905,
      "v": 96
    },
    {
      "midi": 64,
      "hit": false,
      "t": 282683.8199999978,
      "d": 531.8821874999558,
      "v": 110
    },
    {
      "midi": 49,
      "hit": false,
      "t": 282683.8199999978,
      "d": 1518.5621874999488,
      "v": 110
    },
    {
      "midi": 61,
      "hit": false,
      "t": 283423.82999999775,
      "d": 38.54218749998836,
      "v": 83
    },
    {
      "midi": 64,
      "hit": false,
      "t": 283423.82999999775,
      "d": 524.1737500000163,
      "v": 105
    },
    {
      "midi": 69,
      "hit": false,
      "t": 283423.82999999775,
      "d": 686.0509375000256,
      "v": 96
    },
    {
      "midi": 61,
      "hit": false,
      "t": 283793.83499999775,
      "d": 377.7134375000023,
      "v": 80
    },
    {
      "midi": 68,
      "hit": false,
      "t": 284163.83999999776,
      "d": 439.3809374999837,
      "v": 121
    },
    {
      "midi": 64,
      "hit": false,
      "t": 284163.83999999776,
      "d": 516.4653124999604,
      "v": 100
    },
    {
      "midi": 52,
      "hit": false,
      "t": 284163.83999999776,
      "d": 1518.5621874998906,
      "v": 110
    },
    {
      "midi": 59,
      "hit": false,
      "t": 284903.8499999977,
      "d": 84.79281249997439,
      "v": 68
    },
    {
      "midi": 68,
      "hit": false,
      "t": 284903.8499999977,
      "d": 485.63156249996973,
      "v": 116
    },
    {
      "midi": 64,
      "hit": false,
      "t": 284903.8499999977,
      "d": 693.7593749999651,
      "v": 105
    },
    {
      "midi": 59,
      "hit": false,
      "t": 285273.85499999765,
      "d": 323.7543750000186,
      "v": 96
    },
    {
      "midi": 61,
      "hit": false,
      "t": 285643.85999999766,
      "d": 269.7953124999767,
      "v": 96
    },
    {
      "midi": 68,
      "hit": false,
      "t": 285643.85999999766,
      "d": 493.3400000000256,
      "v": 116
    },
    {
      "midi": 64,
      "hit": false,
      "t": 285643.85999999766,
      "d": 516.4653125000186,
      "v": 110
    },
    {
      "midi": 49,
      "hit": false,
      "t": 285643.85999999766,
      "d": 1587.9381250000442,
      "v": 100
    },
    {
      "midi": 61,
      "hit": false,
      "t": 286383.86999999767,
      "d": 53.9590624999837,
      "v": 83
    },
    {
      "midi": 64,
      "hit": false,
      "t": 286383.86999999767,
      "d": 524.1737500000163,
      "v": 105
    },
    {
      "midi": 68,
      "hit": false,
      "t": 286383.86999999767,
      "d": 531.882187500014,
      "v": 121
    },
    {
      "midi": 61,
      "hit": false,
      "t": 286753.8749999977,
      "d": 547.2990625000093,
      "v": 86
    },
    {
      "midi": 70,
      "hit": false,
      "t": 287123.8799999977,
      "d": 485.63156250002794,
      "v": 121
    },
    {
      "midi": 66,
      "hit": false,
      "t": 287123.8799999977,
      "d": 508.75687500002095,
      "v": 105
    },
    {
      "midi": 42,
      "hit": false,
      "t": 287123.8799999977,
      "d": 1611.0634375000373,
      "v": 110
    },
    {
      "midi": 61,
      "hit": false,
      "t": 287493.8849999977,
      "d": 578.1328125,
      "v": 89
    },
    {
      "midi": 70,
      "hit": false,
      "t": 287863.8899999977,
      "d": 578.1328125,
      "v": 116
    },
    {
      "midi": 66,
      "hit": false,
      "t": 287863.8899999977,
      "d": 585.8412499999977,
      "v": 105
    },
    {
      "midi": 68,
      "hit": false,
      "t": 288048.8924999977,
      "d": 200.41937499999767,
      "v": 1
    },
    {
      "midi": 61,
      "hit": false,
      "t": 288233.8949999977,
      "d": 215.83624999999302,
      "v": 96
    },
    {
      "midi": 63,
      "hit": false,
      "t": 288603.8999999977,
      "d": 277.5037500000326,
      "v": 116
    },
    {
      "midi": 71,
      "hit": false,
      "t": 288603.8999999977,
      "d": 447.0893749999814,
      "v": 96
    },
    {
      "midi": 66,
      "hit": false,
      "t": 288603.8999999977,
      "d": 524.1737499999581,
      "v": 100
    },
    {
      "midi": 47,
      "hit": false,
      "t": 288603.8999999977,
      "d": 1549.3959374999395,
      "v": 115
    },
    {
      "midi": 63,
      "hit": false,
      "t": 289343.90999999765,
      "d": 38.54218749998836,
      "v": 78
    },
    {
      "midi": 66,
      "hit": false,
      "t": 289343.90999999765,
      "d": 555.007500000007,
      "v": 100
    },
    {
      "midi": 71,
      "hit": false,
      "t": 289343.90999999765,
      "d": 585.8412499999977,
      "v": 89
    },
    {
      "midi": 63,
      "hit": false,
      "t": 289713.91499999765,
      "d": 254.37843749998137,
      "v": 74
    },
    {
      "midi": 68,
      "hit": false,
      "t": 290083.91999999766,
      "d": 447.0893749999814,
      "v": 116
    },
    {
      "midi": 64,
      "hit": false,
      "t": 290083.91999999766,
      "d": 508.75687499996275,
      "v": 100
    },
    {
      "midi": 52,
      "hit": false,
      "t": 290083.91999999766,
      "d": 1510.853749999951,
      "v": 115
    },
    {
      "midi": 59,
      "hit": false,
      "t": 290823.9299999976,
      "d": 46.25062499998603,
      "v": 96
    },
    {
      "midi": 64,
      "hit": false,
      "t": 290823.9299999976,
      "d": 501.0484375000233,
      "v": 100
    },
    {
      "midi": 68,
      "hit": false,
      "t": 290823.9299999976,
      "d": 501.0484375000233,
      "v": 116
    },
    {
      "midi": 59,
      "hit": false,
      "t": 291193.9349999976,
      "d": 161.8771875000093,
      "v": 86
    },
    {
      "midi": 61,
      "hit": false,
      "t": 291563.9399999976,
      "d": 254.37843749998137,
      "v": 116
    },
    {
      "midi": 64,
      "hit": false,
      "t": 291563.9399999976,
      "d": 516.4653125000186,
      "v": 105
    },
    {
      "midi": 68,
      "hit": false,
      "t": 291563.9399999976,
      "d": 670.6340625000303,
      "v": 109
    },
    {
      "midi": 49,
      "hit": false,
      "t": 291563.9399999976,
      "d": 786.2606249999953,
      "v": 125
    },
    {
      "midi": 61,
      "hit": false,
      "t": 291933.9449999976,
      "d": 269.7953125000349,
      "v": 85
    },
    {
      "midi": 59,
      "hit": false,
      "t": 292303.9499999976,
      "d": 231.25312499998836,
      "v": 105
    },
    {
      "midi": 66,
      "hit": false,
      "t": 292303.9499999976,
      "d": 439.3809374999837,
      "v": 121
    },
    {
      "midi": 51,
      "hit": false,
      "t": 292303.9499999976,
      "d": 493.3399999999674,
      "v": 121
    },
    {
      "midi": 63,
      "hit": false,
      "t": 292303.9499999976,
      "d": 524.1737499999581,
      "v": 121
    },
    {
      "midi": 59,
      "hit": false,
      "t": 292673.95499999763,
      "d": 262.08687499997905,
      "v": 110
    },
    {
      "midi": 68,
      "hit": false,
      "t": 293043.95999999763,
      "d": 439.3809374999837,
      "v": 121
    },
    {
      "midi": 64,
      "hit": false,
      "t": 293043.95999999763,
      "d": 470.2146874999744,
      "v": 100
    },
    {
      "midi": 52,
      "hit": false,
      "t": 293043.95999999763,
      "d": 1456.8946874999674,
      "v": 115
    },
    {
      "midi": 59,
      "hit": false,
      "t": 293413.96499999764,
      "d": 555.0074999999488,
      "v": 96
    },
    {
      "midi": 68,
      "hit": false,
      "t": 293783.9699999976,
      "d": 501.0484375000233,
      "v": 116
    },
    {
      "midi": 71,
      "hit": false,
      "t": 293783.9699999976,
      "d": 501.0484375000233,
      "v": 110
    },
    {
      "midi": 64,
      "hit": false,
      "t": 293783.9699999976,
      "d": 516.4653125000186,
      "v": 105
    },
    {
      "midi": 59,
      "hit": false,
      "t": 294153.9749999976,
      "d": 531.882187500014,
      "v": 89
    },
    {
      "midi": 68,
      "hit": false,
      "t": 294523.9799999976,
      "d": 493.3400000000256,
      "v": 116
    },
    {
      "midi": 64,
      "hit": false,
      "t": 294523.9799999976,
      "d": 501.0484375000233,
      "v": 100
    },
    {
      "midi": 71,
      "hit": false,
      "t": 294523.9799999976,
      "d": 524.1737500000163,
      "v": 105
    },
    {
      "midi": 52,
      "hit": false,
      "t": 294523.9799999976,
      "d": 1595.6465624999837,
      "v": 115
    },
    {
      "midi": 59,
      "hit": false,
      "t": 295263.9899999976,
      "d": 53.9590624999837,
      "v": 86
    },
    {
      "midi": 64,
      "hit": false,
      "t": 295263.9899999976,
      "d": 408.547187499993,
      "v": 100
    },
    {
      "midi": 71,
      "hit": false,
      "t": 295263.9899999976,
      "d": 431.67249999998603,
      "v": 100
    },
    {
      "midi": 68,
      "hit": false,
      "t": 295263.9899999976,
      "d": 439.3809374999837,
      "v": 109
    },
    {
      "midi": 59,
      "hit": false,
      "t": 295633.9949999976,
      "d": 408.547187499993,
      "v": 96
    },
    {
      "midi": 68,
      "hit": false,
      "t": 296003.9999999976,
      "d": 462.5062499999185,
      "v": 109
    },
    {
      "midi": 71,
      "hit": false,
      "t": 296003.9999999976,
      "d": 555.0074999998906,
      "v": 105
    },
    {
      "midi": 63,
      "hit": false,
      "t": 296003.9999999976,
      "d": 570.4243749998859,
      "v": 109
    },
    {
      "midi": 51,
      "hit": false,
      "t": 296003.9999999976,
      "d": 1472.3115624998463,
      "v": 125
    },
    {
      "midi": 59,
      "hit": false,
      "t": 296374.00499999756,
      "d": 578.1328124999418,
      "v": 78
    },
    {
      "midi": 71,
      "hit": false,
      "t": 296744.0099999975,
      "d": 416.2556249999907,
      "v": 110
    },
    {
      "midi": 68,
      "hit": false,
      "t": 296744.0099999975,
      "d": 439.3809374999837,
      "v": 116
    },
    {
      "midi": 63,
      "hit": false,
      "t": 296744.0099999975,
      "d": 516.4653124999604,
      "v": 109
    },
    {
      "midi": 59,
      "hit": false,
      "t": 297484.01999999746,
      "d": 53.9590624999837,
      "v": 86
    },
    {
      "midi": 71,
      "hit": false,
      "t": 297484.01999999746,
      "d": 423.96406249998836,
      "v": 105
    },
    {
      "midi": 68,
      "hit": false,
      "t": 297484.01999999746,
      "d": 508.75687499996275,
      "v": 101
    },
    {
      "midi": 63,
      "hit": false,
      "t": 297484.01999999746,
      "d": 516.4653124999604,
      "v": 116
    },
    {
      "midi": 51,
      "hit": false,
      "t": 297484.01999999746,
      "d": 747.7184374999488,
      "v": 121
    },
    {
      "midi": 59,
      "hit": false,
      "t": 297854.02499999746,
      "d": 161.8771874999511,
      "v": 92
    },
    {
      "midi": 60,
      "hit": false,
      "t": 298224.0299999974,
      "d": 262.08687499997905,
      "v": 121
    },
    {
      "midi": 63,
      "hit": false,
      "t": 298224.0299999974,
      "d": 547.2990625000093,
      "v": 121
    },
    {
      "midi": 68,
      "hit": false,
      "t": 298224.0299999974,
      "d": 616.6749999999884,
      "v": 109
    },
    {
      "midi": 44,
      "hit": false,
      "t": 298224.0299999974,
      "d": 770.84375,
      "v": 125
    },
    {
      "midi": 60,
      "hit": false,
      "t": 298594.0349999974,
      "d": 215.83624999999302,
      "v": 101
    },
    {
      "midi": 61,
      "hit": false,
      "t": 298964.0399999974,
      "d": 269.7953124999767,
      "v": 100
    },
    {
      "midi": 68,
      "hit": false,
      "t": 298964.0399999974,
      "d": 462.5062499999767,
      "v": 121
    },
    {
      "midi": 64,
      "hit": false,
      "t": 298964.0399999974,
      "d": 516.4653124999604,
      "v": 105
    },
    {
      "midi": 49,
      "hit": false,
      "t": 298964.0399999974,
      "d": 1456.8946874999674,
      "v": 120
    },
    {
      "midi": 61,
      "hit": false,
      "t": 299704.04999999737,
      "d": 61.66749999998137,
      "v": 55
    },
    {
      "midi": 68,
      "hit": false,
      "t": 299704.04999999737,
      "d": 578.1328125,
      "v": 121
    },
    {
      "midi": 61,
      "hit": false,
      "t": 300074.0549999974,
      "d": 362.296562500007,
      "v": 86
    },
    {
      "midi": 64,
      "hit": false,
      "t": 300444.0599999974,
      "d": 23.125312499993015,
      "v": 68
    },
    {
      "midi": 73,
      "hit": false,
      "t": 300444.0599999974,
      "d": 431.67249999998603,
      "v": 110
    },
    {
      "midi": 49,
      "hit": false,
      "t": 300444.0599999974,
      "d": 1557.1043749999953,
      "v": 105
    },
    {
      "midi": 61,
      "hit": false,
      "t": 301184.0699999974,
      "d": 38.54218749998836,
      "v": 92
    },
    {
      "midi": 68,
      "hit": false,
      "t": 301184.0699999974,
      "d": 493.3400000000256,
      "v": 116
    },
    {
      "midi": 64,
      "hit": false,
      "t": 301184.0699999974,
      "d": 701.467812500021,
      "v": 105
    },
    {
      "midi": 61,
      "hit": false,
      "t": 301554.0749999974,
      "d": 370.00500000000466,
      "v": 89
    },
    {
      "midi": 59,
      "hit": false,
      "t": 301924.0799999974,
      "d": 246.6699999999837,
      "v": 105
    },
    {
      "midi": 68,
      "hit": false,
      "t": 301924.0799999974,
      "d": 524.1737500000163,
      "v": 121
    },
    {
      "midi": 63,
      "hit": false,
      "t": 301924.0799999974,
      "d": 555.007500000007,
      "v": 121
    },
    {
      "midi": 44,
      "hit": false,
      "t": 301924.0799999974,
      "d": 1503.1453125000116,
      "v": 121
    },
    {
      "midi": 59,
      "hit": false,
      "t": 302664.0899999974,
      "d": 53.9590624999837,
      "v": 83
    },
    {
      "midi": 63,
      "hit": false,
      "t": 302664.0899999974,
      "d": 809.3859374999884,
      "v": 109
    },
    {
      "midi": 68,
      "hit": false,
      "t": 302664.0899999974,
      "d": 1032.930624999979,
      "v": 109
    },
    {
      "midi": 59,
      "hit": false,
      "t": 303034.0949999974,
      "d": 624.383437499986,
      "v": 120
    },
    {
      "midi": 51,
      "hit": false,
      "t": 303404.0999999974,
      "d": 1533.9790624999441,
      "v": 127
    },
    {
      "midi": 63,
      "hit": false,
      "t": 303774.10499999736,
      "d": 269.7953124999767,
      "v": 125
    },
    {
      "midi": 64,
      "hit": false,
      "t": 303959.10749999736,
      "d": 331.4628125000163,
      "v": 96
    },
    {
      "midi": 66,
      "hit": false,
      "t": 304144.10999999737,
      "d": 185.00250000000233,
      "v": 89
    },
    {
      "midi": 71,
      "hit": false,
      "t": 304329.11249999737,
      "d": 485.63156250002794,
      "v": 120
    },
    {
      "midi": 61,
      "hit": false,
      "t": 304884.1199999974,
      "d": 292.92062499996973,
      "v": 110
    },
    {
      "midi": 64,
      "hit": false,
      "t": 304884.1199999974,
      "d": 570.4243749999441,
      "v": 115
    },
    {
      "midi": 69,
      "hit": false,
      "t": 304884.1199999974,
      "d": 616.6749999999302,
      "v": 115
    },
    {
      "midi": 61,
      "hit": false,
      "t": 305624.1299999973,
      "d": 38.54218749998836,
      "v": 92
    },
    {
      "midi": 69,
      "hit": false,
      "t": 305624.1299999973,
      "d": 524.1737500000163,
      "v": 100
    },
    {
      "midi": 64,
      "hit": false,
      "t": 305624.1299999973,
      "d": 601.258124999993,
      "v": 115
    },
    {
      "midi": 61,
      "hit": false,
      "t": 305994.13499999733,
      "d": 370.00500000000466,
      "v": 96
    },
    {
      "midi": 45,
      "hit": false,
      "t": 306364.13999999734,
      "d": 15.416874999995343,
      "v": 105
    },
    {
      "midi": 61,
      "hit": false,
      "t": 306364.13999999734,
      "d": 285.21218749997206,
      "v": 110
    },
    {
      "midi": 69,
      "hit": false,
      "t": 306364.13999999734,
      "d": 539.5906249999534,
      "v": 100
    },
    {
      "midi": 64,
      "hit": false,
      "t": 306364.13999999734,
      "d": 547.2990624999511,
      "v": 105
    },
    {
      "midi": 61,
      "hit": false,
      "t": 307104.1499999973,
      "d": 23.125312499993015,
      "v": 96
    },
    {
      "midi": 69,
      "hit": false,
      "t": 307104.1499999973,
      "d": 477.92312500003027,
      "v": 100
    },
    {
      "midi": 64,
      "hit": false,
      "t": 307104.1499999973,
      "d": 508.75687500002095,
      "v": 110
    },
    {
      "midi": 61,
      "hit": false,
      "t": 307474.1549999973,
      "d": 393.1303124999977,
      "v": 86
    },
    {
      "midi": 71,
      "hit": false,
      "t": 307844.1599999973,
      "d": 431.67249999998603,
      "v": 105
    },
    {
      "midi": 68,
      "hit": false,
      "t": 307844.1599999973,
      "d": 454.79781249997905,
      "v": 101
    },
    {
      "midi": 64,
      "hit": false,
      "t": 307844.1599999973,
      "d": 508.75687499996275,
      "v": 100
    },
    {
      "midi": 52,
      "hit": false,
      "t": 307844.1599999973,
      "d": 1533.979062499886,
      "v": 115
    },
    {
      "midi": 59,
      "hit": false,
      "t": 308214.1649999973,
      "d": 593.5496874999371,
      "v": 86
    },
    {
      "midi": 64,
      "hit": false,
      "t": 308584.16999999725,
      "d": 562.7159375000047,
      "v": 86
    },
    {
      "midi": 68,
      "hit": false,
      "t": 308584.16999999725,
      "d": 593.5496874999953,
      "v": 101
    },
    {
      "midi": 71,
      "hit": false,
      "t": 308584.16999999725,
      "d": 662.9256249999744,
      "v": 100
    },
    {
      "midi": 59,
      "hit": false,
      "t": 308954.17499999725,
      "d": 339.17124999995576,
      "v": 92
    },
    {
      "midi": 61,
      "hit": false,
      "t": 309324.1799999972,
      "d": 277.5037499999744,
      "v": 100
    },
    {
      "midi": 68,
      "hit": false,
      "t": 309324.1799999972,
      "d": 508.75687499996275,
      "v": 121
    },
    {
      "midi": 64,
      "hit": false,
      "t": 309324.1799999972,
      "d": 531.8821874999558,
      "v": 105
    },
    {
      "midi": 71,
      "hit": false,
      "t": 309324.1799999972,
      "d": 531.8821874999558,
      "v": 105
    },
    {
      "midi": 49,
      "hit": false,
      "t": 309324.1799999972,
      "d": 1618.7718749999185,
      "v": 100
    },
    {
      "midi": 61,
      "hit": false,
      "t": 310064.18999999715,
      "d": 61.66749999998137,
      "v": 89
    },
    {
      "midi": 64,
      "hit": false,
      "t": 310064.18999999715,
      "d": 470.2146875000326,
      "v": 100
    },
    {
      "midi": 68,
      "hit": false,
      "t": 310064.18999999715,
      "d": 493.3400000000256,
      "v": 109
    },
    {
      "midi": 71,
      "hit": false,
      "t": 310064.18999999715,
      "d": 508.75687500002095,
      "v": 100
    },
    {
      "midi": 61,
      "hit": false,
      "t": 310804.19999999716,
      "d": 69.37593749997905,
      "v": 63
    },
    {
      "midi": 68,
      "hit": false,
      "t": 310804.19999999716,
      "d": 115.62656249996508,
      "v": 69
    },
    {
      "midi": 70,
      "hit": false,
      "t": 310804.19999999716,
      "d": 516.4653124999604,
      "v": 125
    },
    {
      "midi": 66,
      "hit": false,
      "t": 310804.19999999716,
      "d": 539.5906249999534,
      "v": 110
    },
    {
      "midi": 42,
      "hit": false,
      "t": 310804.19999999716,
      "d": 1611.0634374999208,
      "v": 115
    },
    {
      "midi": 61,
      "hit": false,
      "t": 311174.2049999971,
      "d": 585.8412499999977,
      "v": 89
    },
    {
      "midi": 70,
      "hit": false,
      "t": 311544.2099999971,
      "d": 447.0893749999814,
      "v": 121
    },
    {
      "midi": 66,
      "hit": false,
      "t": 311544.2099999971,
      "d": 531.8821874999558,
      "v": 100
    },
    {
      "midi": 61,
      "hit": false,
      "t": 311914.2149999971,
      "d": 539.5906249999534,
      "v": 100
    },
    {
      "midi": 66,
      "hit": false,
      "t": 312099.21749999706,
      "d": 138.7518750000163,
      "v": 17
    },
    {
      "midi": 70,
      "hit": false,
      "t": 312284.21999999706,
      "d": 524.1737500000163,
      "v": 109
    },
    {
      "midi": 73,
      "hit": false,
      "t": 312284.21999999706,
      "d": 524.1737500000163,
      "v": 105
    },
    {
      "midi": 66,
      "hit": false,
      "t": 312284.21999999706,
      "d": 539.5906250000116,
      "v": 96
    },
    {
      "midi": 49,
      "hit": false,
      "t": 312284.21999999706,
      "d": 847.9281249999767,
      "v": 115
    },
    {
      "midi": 61,
      "hit": false,
      "t": 313024.2299999971,
      "d": 15.416874999995343,
      "v": 96
    },
    {
      "midi": 66,
      "hit": false,
      "t": 313024.2299999971,
      "d": 578.1328124999418,
      "v": 105
    },
    {
      "midi": 70,
      "hit": false,
      "t": 313024.2299999971,
      "d": 593.5496874999371,
      "v": 121
    },
    {
      "midi": 42,
      "hit": false,
      "t": 313024.2299999971,
      "d": 809.3859374999302,
      "v": 100
    },
    {
      "midi": 61,
      "hit": false,
      "t": 313394.234999997,
      "d": 215.83624999999302,
      "v": 92
    },
    {
      "midi": 71,
      "hit": false,
      "t": 313764.239999997,
      "d": 408.547187499993,
      "v": 110
    },
    {
      "midi": 66,
      "hit": false,
      "t": 313764.239999997,
      "d": 516.4653125000186,
      "v": 105
    },
    {
      "midi": 47,
      "hit": false,
      "t": 313764.239999997,
      "d": 1418.352499999979,
      "v": 120
    },
    {
      "midi": 63,
      "hit": false,
      "t": 314134.244999997,
      "d": 608.9665624999907,
      "v": 101
    },
    {
      "midi": 66,
      "hit": false,
      "t": 314504.24999999703,
      "d": 262.08687499997905,
      "v": 100
    },
    {
      "midi": 71,
      "hit": false,
      "t": 314504.24999999703,
      "d": 269.7953124999767,
      "v": 96
    },
    {
      "midi": 71,
      "hit": false,
      "t": 314874.25499999704,
      "d": 262.08687499997905,
      "v": 110
    },
    {
      "midi": 61,
      "hit": false,
      "t": 314874.25499999704,
      "d": 277.5037499999744,
      "v": 96
    },
    {
      "midi": 64,
      "hit": false,
      "t": 314874.25499999704,
      "d": 285.21218749997206,
      "v": 100
    },
    {
      "midi": 59,
      "hit": false,
      "t": 315244.259999997,
      "d": 262.08687499997905,
      "v": 120
    },
    {
      "midi": 66,
      "hit": false,
      "t": 315244.259999997,
      "d": 462.5062499999767,
      "v": 110
    },
    {
      "midi": 63,
      "hit": false,
      "t": 315244.259999997,
      "d": 493.3399999999674,
      "v": 125
    },
    {
      "midi": 47,
      "hit": false,
      "t": 315244.259999997,
      "d": 840.2196874999208,
      "v": 115
    },
    {
      "midi": 59,
      "hit": false,
      "t": 315984.26999999693,
      "d": 53.9590624999837,
      "v": 83
    },
    {
      "midi": 54,
      "hit": false,
      "t": 315984.26999999693,
      "d": 555.0074999999488,
      "v": 120
    },
    {
      "midi": 66,
      "hit": false,
      "t": 315984.26999999693,
      "d": 639.8003124999232,
      "v": 120
    },
    {
      "midi": 69,
      "hit": false,
      "t": 315984.26999999693,
      "d": 647.5087499999208,
      "v": 115
    },
    {
      "midi": 59,
      "hit": false,
      "t": 316354.2749999969,
      "d": 277.5037499999744,
      "v": 105
    },
    {
      "midi": 68,
      "hit": false,
      "t": 316724.2799999968,
      "d": 493.3400000000256,
      "v": 116
    },
    {
      "midi": 64,
      "hit": false,
      "t": 316724.2799999968,
      "d": 524.1737500000163,
      "v": 105
    },
    {
      "midi": 52,
      "hit": false,
      "t": 316724.2799999968,
      "d": 1464.603124999965,
      "v": 110
    },
    {
      "midi": 59,
      "hit": false,
      "t": 317094.28499999683,
      "d": 578.1328125,
      "v": 92
    },
    {
      "midi": 68,
      "hit": false,
      "t": 317464.28999999684,
      "d": 439.3809374999837,
      "v": 116
    },
    {
      "midi": 64,
      "hit": false,
      "t": 317464.28999999684,
      "d": 740.0099999999511,
      "v": 96
    },
    {
      "midi": 59,
      "hit": false,
      "t": 317834.29499999684,
      "d": 555.0074999999488,
      "v": 115
    },
    {
      "midi": 64,
      "hit": false,
      "t": 318204.2999999968,
      "d": 562.7159375000047,
      "v": 89
    },
    {
      "midi": 71,
      "hit": false,
      "t": 318204.2999999968,
      "d": 562.7159375000047,
      "v": 115
    },
    {
      "midi": 52,
      "hit": false,
      "t": 318204.2999999968,
      "d": 1626.4803124999744,
      "v": 105
    },
    {
      "midi": 59,
      "hit": false,
      "t": 318574.3049999968,
      "d": 647.508749999979,
      "v": 92
    },
    {
      "midi": 68,
      "hit": false,
      "t": 318944.3099999968,
      "d": 516.4653124999604,
      "v": 121
    },
    {
      "midi": 64,
      "hit": false,
      "t": 318944.3099999968,
      "d": 716.8846874999581,
      "v": 100
    },
    {
      "midi": 59,
      "hit": false,
      "t": 319684.31999999675,
      "d": 15.416874999995343,
      "v": 89
    },
    {
      "midi": 68,
      "hit": false,
      "t": 319684.31999999675,
      "d": 531.882187500014,
      "v": 116
    },
    {
      "midi": 63,
      "hit": false,
      "t": 319684.31999999675,
      "d": 555.007500000007,
      "v": 121
    },
    {
      "midi": 59,
      "hit": false,
      "t": 320054.32499999675,
      "d": 570.4243750000023,
      "v": 86
    },
    {
      "midi": 68,
      "hit": false,
      "t": 320424.32999999676,
      "d": 524.1737500000163,
      "v": 109
    },
    {
      "midi": 59,
      "hit": false,
      "t": 320794.33499999676,
      "d": 516.4653125000186,
      "v": 110
    },
    {
      "midi": 51,
      "hit": false,
      "t": 321164.33999999677,
      "d": 7.708437499997672,
      "v": 116
    },
    {
      "midi": 63,
      "hit": false,
      "t": 321164.33999999677,
      "d": 30.833749999990687,
      "v": 69
    },
    {
      "midi": 71,
      "hit": false,
      "t": 321164.33999999677,
      "d": 470.2146875000326,
      "v": 110
    },
    {
      "midi": 59,
      "hit": false,
      "t": 321534.34499999677,
      "d": 169.58562500000698,
      "v": 92
    },
    {
      "midi": 63,
      "hit": false,
      "t": 321719.3474999968,
      "d": 107.91812500002561,
      "v": 41
    },
    {
      "midi": 60,
      "hit": false,
      "t": 321904.3499999968,
      "d": 277.5037499999744,
      "v": 121
    },
    {
      "midi": 68,
      "hit": false,
      "t": 321904.3499999968,
      "d": 608.9665624999325,
      "v": 116
    },
    {
      "midi": 63,
      "hit": false,
      "t": 321904.3499999968,
      "d": 647.5087499999208,
      "v": 121
    },
    {
      "midi": 44,
      "hit": false,
      "t": 321904.3499999968,
      "d": 793.9690624998766,
      "v": 121
    },
    {
      "midi": 60,
      "hit": false,
      "t": 322274.3549999967,
      "d": 262.08687499997905,
      "v": 101
    },
    {
      "midi": 68,
      "hit": false,
      "t": 322644.35999999667,
      "d": 447.0893749999814,
      "v": 121
    },
    {
      "midi": 64,
      "hit": false,
      "t": 322644.35999999667,
      "d": 485.63156249996973,
      "v": 110
    },
    {
      "midi": 49,
      "hit": false,
      "t": 322644.35999999667,
      "d": 1456.8946874999674,
      "v": 105
    },
    {
      "midi": 61,
      "hit": false,
      "t": 323014.3649999967,
      "d": 524.1737499999581,
      "v": 100
    },
    {
      "midi": 68,
      "hit": false,
      "t": 323384.3699999966,
      "d": 493.3400000000256,
      "v": 121
    },
    {
      "midi": 64,
      "hit": false,
      "t": 323384.3699999966,
      "d": 1279.600625000021,
      "v": 100
    },
    {
      "midi": 61,
      "hit": false,
      "t": 323754.3749999966,
      "d": 431.67249999998603,
      "v": 96
    },
    {
      "midi": 73,
      "hit": false,
      "t": 324124.3799999966,
      "d": 470.2146875000326,
      "v": 110
    },
    {
      "midi": 61,
      "hit": false,
      "t": 324494.38499999663,
      "d": 647.508749999979,
      "v": 80
    },
    {
      "midi": 49,
      "hit": false,
      "t": 324864.38999999664,
      "d": 69.37593749997905,
      "v": 100
    },
    {
      "midi": 68,
      "hit": false,
      "t": 324864.38999999664,
      "d": 508.75687499996275,
      "v": 121
    },
    {
      "midi": 64,
      "hit": false,
      "t": 324864.38999999664,
      "d": 686.0509374999674,
      "v": 100
    },
    {
      "midi": 61,
      "hit": false,
      "t": 325234.3949999966,
      "d": 339.17125000001397,
      "v": 74
    },
    {
      "midi": 59,
      "hit": false,
      "t": 325604.3999999966,
      "d": 269.7953124999767,
      "v": 115
    },
    {
      "midi": 68,
      "hit": false,
      "t": 325604.3999999966,
      "d": 524.1737500000163,
      "v": 116
    },
    {
      "midi": 63,
      "hit": false,
      "t": 325604.3999999966,
      "d": 601.258124999993,
      "v": 121
    },
    {
      "midi": 44,
      "hit": false,
      "t": 325604.3999999966,
      "d": 1533.9790625000023,
      "v": 116
    },
    {
      "midi": 59,
      "hit": false,
      "t": 325974.4049999966,
      "d": 585.8412499999977,
      "v": 78
    },
    {
      "midi": 68,
      "hit": false,
      "t": 326344.4099999966,
      "d": 408.547187499993,
      "v": 121
    },
    {
      "midi": 63,
      "hit": false,
      "t": 326344.4099999966,
      "d": 778.5521874999977,
      "v": 109
    },
    {
      "midi": 59,
      "hit": false,
      "t": 326714.4149999966,
      "d": 624.383437499986,
      "v": 115
    },
    {
      "midi": 51,
      "hit": false,
      "t": 327084.4199999966,
      "d": 1510.8537500000093,
      "v": 127
    },
    {
      "midi": 63,
      "hit": false,
      "t": 327454.4249999966,
      "d": 300.6290625000256,
      "v": 125
    },
    {
      "midi": 64,
      "hit": false,
      "t": 327639.4274999966,
      "d": 362.296562500007,
      "v": 100
    },
    {
      "midi": 66,
      "hit": false,
      "t": 327824.4299999966,
      "d": 185.00250000000233,
      "v": 76
    },
    {
      "midi": 71,
      "hit": false,
      "t": 328009.4324999966,
      "d": 501.0484375000233,
      "v": 120
    },
    {
      "midi": 61,
      "hit": false,
      "t": 328564.4399999966,
      "d": 292.92062499996973,
      "v": 105
    },
    {
      "midi": 69,
      "hit": false,
      "t": 328564.4399999966,
      "d": 508.75687499996275,
      "v": 110
    },
    {
      "midi": 64,
      "hit": false,
      "t": 328564.4399999966,
      "d": 555.0074999999488,
      "v": 110
    },
    {
      "midi": 45,
      "hit": false,
      "t": 328564.4399999966,
      "d": 1264.183749999851,
      "v": 115
    },
    {
      "midi": 61,
      "hit": false,
      "t": 328934.4449999966,
      "d": 647.508749999979,
      "v": 78
    },
    {
      "midi": 69,
      "hit": false,
      "t": 329304.4499999966,
      "d": 447.08937499992317,
      "v": 96
    },
    {
      "midi": 64,
      "hit": false,
      "t": 329304.4499999966,
      "d": 547.2990624998929,
      "v": 96
    },
    {
      "midi": 47,
      "hit": false,
      "t": 329674.4549999965,
      "d": 439.3809374999255,
      "v": 115
    },
    {
      "midi": 61,
      "hit": false,
      "t": 330044.45999999647,
      "d": 30.833749999990687,
      "v": 86
    },
    {
      "midi": 69,
      "hit": false,
      "t": 330044.45999999647,
      "d": 454.79781249997905,
      "v": 96
    },
    {
      "midi": 64,
      "hit": false,
      "t": 330044.45999999647,
      "d": 531.8821874999558,
      "v": 110
    },
    {
      "midi": 49,
      "hit": false,
      "t": 330044.45999999647,
      "d": 1518.5621874999488,
      "v": 110
    },
    {
      "midi": 61,
      "hit": false,
      "t": 330784.4699999964,
      "d": 38.54218749998836,
      "v": 83
    },
    {
      "midi": 64,
      "hit": false,
      "t": 330784.4699999964,
      "d": 524.1737500000163,
      "v": 105
    },
    {
      "midi": 69,
      "hit": false,
      "t": 330784.4699999964,
      "d": 686.0509375000256,
      "v": 96
    },
    {
      "midi": 61,
      "hit": false,
      "t": 331154.4749999964,
      "d": 377.7134375000023,
      "v": 80
    },
    {
      "midi": 68,
      "hit": false,
      "t": 331524.47999999643,
      "d": 439.3809374999837,
      "v": 121
    },
    {
      "midi": 64,
      "hit": false,
      "t": 331524.47999999643,
      "d": 516.4653124999604,
      "v": 100
    },
    {
      "midi": 52,
      "hit": false,
      "t": 331524.47999999643,
      "d": 1518.5621874998906,
      "v": 110
    },
    {
      "midi": 59,
      "hit": false,
      "t": 332264.4899999964,
      "d": 84.79281249997439,
      "v": 68
    },
    {
      "midi": 68,
      "hit": false,
      "t": 332264.4899999964,
      "d": 485.63156249996973,
      "v": 116
    },
    {
      "midi": 64,
      "hit": false,
      "t": 332264.4899999964,
      "d": 693.7593749999651,
      "v": 105
    },
    {
      "midi": 59,
      "hit": false,
      "t": 332634.4949999963,
      "d": 323.7543750000186,
      "v": 96
    },
    {
      "midi": 61,
      "hit": false,
      "t": 333004.49999999633,
      "d": 269.7953124999767,
      "v": 96
    },
    {
      "midi": 68,
      "hit": false,
      "t": 333004.49999999633,
      "d": 493.3400000000256,
      "v": 116
    },
    {
      "midi": 64,
      "hit": false,
      "t": 333004.49999999633,
      "d": 516.4653125000186,
      "v": 110
    },
    {
      "midi": 49,
      "hit": false,
      "t": 333004.49999999633,
      "d": 1587.9381250000442,
      "v": 100
    },
    {
      "midi": 61,
      "hit": false,
      "t": 333744.50999999634,
      "d": 53.9590624999837,
      "v": 83
    },
    {
      "midi": 64,
      "hit": false,
      "t": 333744.50999999634,
      "d": 524.1737500000163,
      "v": 105
    },
    {
      "midi": 68,
      "hit": false,
      "t": 333744.50999999634,
      "d": 531.882187500014,
      "v": 121
    },
    {
      "midi": 61,
      "hit": false,
      "t": 334114.51499999635,
      "d": 547.2990625000093,
      "v": 86
    },
    {
      "midi": 70,
      "hit": false,
      "t": 334484.51999999635,
      "d": 485.63156250002794,
      "v": 121
    },
    {
      "midi": 66,
      "hit": false,
      "t": 334484.51999999635,
      "d": 508.75687500002095,
      "v": 105
    },
    {
      "midi": 42,
      "hit": false,
      "t": 334484.51999999635,
      "d": 1611.0634375000373,
      "v": 110
    },
    {
      "midi": 61,
      "hit": false,
      "t": 334854.52499999636,
      "d": 578.1328125,
      "v": 89
    },
    {
      "midi": 70,
      "hit": false,
      "t": 335224.52999999636,
      "d": 578.1328125,
      "v": 116
    },
    {
      "midi": 66,
      "hit": false,
      "t": 335224.52999999636,
      "d": 585.8412499999977,
      "v": 105
    },
    {
      "midi": 68,
      "hit": false,
      "t": 335409.53249999636,
      "d": 200.41937499999767,
      "v": 1
    },
    {
      "midi": 61,
      "hit": false,
      "t": 335594.53499999637,
      "d": 215.83624999999302,
      "v": 96
    },
    {
      "midi": 63,
      "hit": false,
      "t": 335964.53999999637,
      "d": 277.5037500000326,
      "v": 116
    },
    {
      "midi": 71,
      "hit": false,
      "t": 335964.53999999637,
      "d": 447.0893749999814,
      "v": 96
    },
    {
      "midi": 66,
      "hit": false,
      "t": 335964.53999999637,
      "d": 524.1737499999581,
      "v": 100
    },
    {
      "midi": 47,
      "hit": false,
      "t": 335964.53999999637,
      "d": 1549.3959374999395,
      "v": 115
    },
    {
      "midi": 63,
      "hit": false,
      "t": 336704.5499999963,
      "d": 38.54218749998836,
      "v": 78
    },
    {
      "midi": 66,
      "hit": false,
      "t": 336704.5499999963,
      "d": 555.007500000007,
      "v": 100
    },
    {
      "midi": 71,
      "hit": false,
      "t": 336704.5499999963,
      "d": 585.8412499999977,
      "v": 89
    },
    {
      "midi": 63,
      "hit": false,
      "t": 337074.5549999963,
      "d": 254.37843749998137,
      "v": 74
    },
    {
      "midi": 68,
      "hit": false,
      "t": 337444.55999999633,
      "d": 447.0893749999814,
      "v": 116
    },
    {
      "midi": 64,
      "hit": false,
      "t": 337444.55999999633,
      "d": 508.75687499996275,
      "v": 100
    },
    {
      "midi": 52,
      "hit": false,
      "t": 337444.55999999633,
      "d": 1510.853749999951,
      "v": 115
    },
    {
      "midi": 59,
      "hit": false,
      "t": 338184.5699999963,
      "d": 46.25062499998603,
      "v": 96
    },
    {
      "midi": 64,
      "hit": false,
      "t": 338184.5699999963,
      "d": 501.0484375000233,
      "v": 100
    },
    {
      "midi": 68,
      "hit": false,
      "t": 338184.5699999963,
      "d": 501.0484375000233,
      "v": 116
    },
    {
      "midi": 59,
      "hit": false,
      "t": 338554.5749999963,
      "d": 161.8771875000093,
      "v": 86
    },
    {
      "midi": 61,
      "hit": false,
      "t": 338924.5799999963,
      "d": 254.37843749998137,
      "v": 116
    },
    {
      "midi": 64,
      "hit": false,
      "t": 338924.5799999963,
      "d": 516.4653125000186,
      "v": 105
    },
    {
      "midi": 68,
      "hit": false,
      "t": 338924.5799999963,
      "d": 670.6340625000303,
      "v": 109
    },
    {
      "midi": 49,
      "hit": false,
      "t": 338924.5799999963,
      "d": 786.2606249999953,
      "v": 125
    },
    {
      "midi": 61,
      "hit": false,
      "t": 339294.5849999963,
      "d": 269.7953125000349,
      "v": 85
    },
    {
      "midi": 59,
      "hit": false,
      "t": 339664.5899999963,
      "d": 231.25312499998836,
      "v": 105
    },
    {
      "midi": 66,
      "hit": false,
      "t": 339664.5899999963,
      "d": 439.3809374999837,
      "v": 121
    },
    {
      "midi": 51,
      "hit": false,
      "t": 339664.5899999963,
      "d": 493.3399999999674,
      "v": 121
    },
    {
      "midi": 63,
      "hit": false,
      "t": 339664.5899999963,
      "d": 524.1737499999581,
      "v": 121
    },
    {
      "midi": 59,
      "hit": false,
      "t": 340034.5949999963,
      "d": 262.08687499997905,
      "v": 110
    },
    {
      "midi": 59,
      "hit": false,
      "t": 340404.5999999963,
      "d": 2466.7000000000116,
      "v": 110
    },
    {
      "midi": 64,
      "hit": false,
      "t": 340404.5999999963,
      "d": 2482.116875000007,
      "v": 105
    },
    {
      "midi": 66,
      "hit": false,
      "t": 340404.5999999963,
      "d": 2497.5337500000023,
      "v": 109
    },
    {
      "midi": 68,
      "hit": false,
      "t": 340404.5999999963,
      "d": 2505.2421875,
      "v": 101
    },
    {
      "midi": 52,
      "hit": false,
      "t": 340404.5999999963,
      "d": 2605.451875000028,
      "v": 110
    }
  ]
}