{
  "jsonPath": "Blues/Harmonica Blues/Charlie McCoy/i-saw-the-light.json",
  "path": "Blues\\Harmonica Blues\\Charlie McCoy\\I Saw The Light.mid",
  "name": "I Saw The Light",
  "difficulty": "Intermediate",
  "bpm": 120,
  "notes": [
    {
      "midi": 60,
      "hit": false,
      "t": 169250,
      "d": 67.70833333334303,
      "v": 93
    },
    {
      "midi": 65,
      "hit": false,
      "t": 169250,
      "d": 67.70833333334303,
      "v": 102
    },
    {
      "midi": 69,
      "hit": false,
      "t": 169250,
      "d": 72.91666666668607,
      "v": 93
    },
    {
      "midi": 60,
      "hit": false,
      "t": 169750.00000000003,
      "d": 70.3125,
      "v": 90
    },
    {
      "midi": 69,
      "hit": false,
      "t": 169750.00000000003,
      "d": 72.91666666665697,
      "v": 88
    },
    {
      "midi": 65,
      "hit": false,
      "t": 169750.00000000003,
      "d": 75.52083333331393,
      "v": 93
    },
    {
      "midi": 60,
      "hit": false,
      "t": 170250,
      "d": 70.3125,
      "v": 98
    },
    {
      "midi": 65,
      "hit": false,
      "t": 170250,
      "d": 70.3125,
      "v": 93
    },
    {
      "midi": 69,
      "hit": false,
      "t": 170250,
      "d": 78.125,
      "v": 93
    },
    {
      "midi": 60,
      "hit": false,
      "t": 170750,
      "d": 62.5,
      "v": 90
    },
    {
      "midi": 69,
      "hit": false,
      "t": 170750,
      "d": 67.70833333334303,
      "v": 90
    },
    {
      "midi": 65,
      "hit": false,
      "t": 170750,
      "d": 72.91666666668607,
      "v": 98
    },
    {
      "midi": 64,
      "hit": false,
      "t": 171250.00000000003,
      "d": 67.70833333334303,
      "v": 98
    },
    {
      "midi": 60,
      "hit": false,
      "t": 171250.00000000003,
      "d": 70.3125,
      "v": 88
    },
    {
      "midi": 70,
      "hit": false,
      "t": 171250.00000000003,
      "d": 78.125,
      "v": 88
    },
    {
      "midi": 64,
      "hit": false,
      "t": 171750.00000000003,
      "d": 67.70833333334303,
      "v": 98
    },
    {
      "midi": 60,
      "hit": false,
      "t": 171750.00000000003,
      "d": 70.3125,
      "v": 93
    },
    {
      "midi": 70,
      "hit": false,
      "t": 171750.00000000003,
      "d": 80.72916666665697,
      "v": 98
    },
    {
      "midi": 64,
      "hit": false,
      "t": 172250.00000000003,
      "d": 70.3125,
      "v": 98
    },
    {
      "midi": 60,
      "hit": false,
      "t": 172250.00000000003,
      "d": 75.52083333334303,
      "v": 90
    },
    {
      "midi": 70,
      "hit": false,
      "t": 172250.00000000003,
      "d": 80.72916666668607,
      "v": 90
    },
    {
      "midi": 64,
      "hit": false,
      "t": 172750.00000000006,
      "d": 70.3125,
      "v": 93
    },
    {
      "midi": 60,
      "hit": false,
      "t": 172750.00000000006,
      "d": 72.91666666665697,
      "v": 88
    },
    {
      "midi": 70,
      "hit": false,
      "t": 172750.00000000006,
      "d": 85.9375,
      "v": 90
    },
    {
      "midi": 64,
      "hit": false,
      "t": 173250.00000000006,
      "d": 70.3125,
      "v": 93
    },
    {
      "midi": 60,
      "hit": false,
      "t": 173250.00000000006,
      "d": 72.91666666665697,
      "v": 90
    },
    {
      "midi": 70,
      "hit": false,
      "t": 173250.00000000006,
      "d": 80.72916666665697,
      "v": 90
    },
    {
      "midi": 64,
      "hit": false,
      "t": 173750.00000000006,
      "d": 65.10416666665697,
      "v": 93
    },
    {
      "midi": 60,
      "hit": false,
      "t": 173750.00000000006,
      "d": 70.3125,
      "v": 90
    },
    {
      "midi": 70,
      "hit": false,
      "t": 173750.00000000006,
      "d": 83.33333333334303,
      "v": 88
    },
    {
      "midi": 64,
      "hit": false,
      "t": 174250.00000000006,
      "d": 80.72916666665697,
      "v": 98
    },
    {
      "midi": 60,
      "hit": false,
      "t": 174250.00000000006,
      "d": 83.33333333331393,
      "v": 93
    },
    {
      "midi": 70,
      "hit": false,
      "t": 174250.00000000006,
      "d": 101.5624999999709,
      "v": 93
    },
    {
      "midi": 60,
      "hit": false,
      "t": 174750.00000000003,
      "d": 75.52083333334303,
      "v": 93
    },
    {
      "midi": 64,
      "hit": false,
      "t": 174750.00000000003,
      "d": 78.125,
      "v": 98
    },
    {
      "midi": 70,
      "hit": false,
      "t": 174750.00000000003,
      "d": 80.72916666665697,
      "v": 93
    },
    {
      "midi": 65,
      "hit": false,
      "t": 175250.00000000003,
      "d": 59.895833333343035,
      "v": 88
    },
    {
      "midi": 60,
      "hit": false,
      "t": 175250.00000000003,
      "d": 65.10416666668607,
      "v": 86
    },
    {
      "midi": 69,
      "hit": false,
      "t": 175250.00000000003,
      "d": 85.9375000000291,
      "v": 88
    },
    {
      "midi": 60,
      "hit": false,
      "t": 175750.00000000006,
      "d": 65.10416666665697,
      "v": 90
    },
    {
      "midi": 65,
      "hit": false,
      "t": 175750.00000000006,
      "d": 70.3125,
      "v": 90
    },
    {
      "midi": 69,
      "hit": false,
      "t": 175750.00000000006,
      "d": 83.33333333334303,
      "v": 90
    },
    {
      "midi": 65,
      "hit": false,
      "t": 176250.00000000006,
      "d": 70.3125,
      "v": 93
    },
    {
      "midi": 69,
      "hit": false,
      "t": 176250.00000000006,
      "d": 70.3125,
      "v": 88
    },
    {
      "midi": 60,
      "hit": false,
      "t": 176250.00000000006,
      "d": 72.91666666665697,
      "v": 90
    },
    {
      "midi": 65,
      "hit": false,
      "t": 176750.00000000006,
      "d": 67.70833333334303,
      "v": 98
    },
    {
      "midi": 60,
      "hit": false,
      "t": 176750.00000000006,
      "d": 70.3125,
      "v": 90
    },
    {
      "midi": 69,
      "hit": false,
      "t": 176750.00000000006,
      "d": 91.14583333334303,
      "v": 88
    },
    {
      "midi": 65,
      "hit": false,
      "t": 177250.00000000006,
      "d": 62.5,
      "v": 90
    },
    {
      "midi": 60,
      "hit": false,
      "t": 177250.00000000006,
      "d": 65.10416666665697,
      "v": 90
    },
    {
      "midi": 69,
      "hit": false,
      "t": 177250.00000000006,
      "d": 78.125,
      "v": 86
    },
    {
      "midi": 65,
      "hit": false,
      "t": 177750.00000000006,
      "d": 62.5,
      "v": 86
    },
    {
      "midi": 60,
      "hit": false,
      "t": 177750.00000000006,
      "d": 75.52083333334303,
      "v": 88
    },
    {
      "midi": 69,
      "hit": false,
      "t": 177750.00000000006,
      "d": 80.72916666668607,
      "v": 82
    },
    {
      "midi": 60,
      "hit": false,
      "t": 178250.0000000001,
      "d": 70.3125,
      "v": 90
    },
    {
      "midi": 65,
      "hit": false,
      "t": 178250.0000000001,
      "d": 75.52083333334303,
      "v": 93
    },
    {
      "midi": 69,
      "hit": false,
      "t": 178250.0000000001,
      "d": 83.33333333334303,
      "v": 86
    },
    {
      "midi": 60,
      "hit": false,
      "t": 178750.0000000001,
      "d": 49.479166666656965,
      "v": 86
    },
    {
      "midi": 65,
      "hit": false,
      "t": 178750.0000000001,
      "d": 70.3125,
      "v": 88
    },
    {
      "midi": 69,
      "hit": false,
      "t": 178750.0000000001,
      "d": 85.9375,
      "v": 86
    },
    {
      "midi": 64,
      "hit": false,
      "t": 179250.0000000001,
      "d": 62.5,
      "v": 98
    },
    {
      "midi": 60,
      "hit": false,
      "t": 179250.0000000001,
      "d": 70.3125,
      "v": 88
    },
    {
      "midi": 70,
      "hit": false,
      "t": 179250.0000000001,
      "d": 80.72916666665697,
      "v": 93
    },
    {
      "midi": 64,
      "hit": false,
      "t": 179750.0000000001,
      "d": 72.91666666665697,
      "v": 93
    },
    {
      "midi": 60,
      "hit": false,
      "t": 179750.0000000001,
      "d": 75.52083333331393,
      "v": 88
    },
    {
      "midi": 70,
      "hit": false,
      "t": 179750.0000000001,
      "d": 85.9374999999709,
      "v": 90
    },
    {
      "midi": 64,
      "hit": false,
      "t": 180250.00000000006,
      "d": 72.91666666665697,
      "v": 93
    },
    {
      "midi": 60,
      "hit": false,
      "t": 180250.00000000006,
      "d": 75.52083333331393,
      "v": 90
    },
    {
      "midi": 70,
      "hit": false,
      "t": 180250.00000000006,
      "d": 98.95833333331393,
      "v": 90
    },
    {
      "midi": 64,
      "hit": false,
      "t": 180750.00000000003,
      "d": 75.52083333334303,
      "v": 93
    },
    {
      "midi": 60,
      "hit": false,
      "t": 180750.00000000003,
      "d": 83.33333333334303,
      "v": 86
    },
    {
      "midi": 70,
      "hit": false,
      "t": 180750.00000000003,
      "d": 96.35416666668607,
      "v": 90
    },
    {
      "midi": 64,
      "hit": false,
      "t": 181250.00000000006,
      "d": 70.3125,
      "v": 98
    },
    {
      "midi": 60,
      "hit": false,
      "t": 181250.00000000006,
      "d": 78.125,
      "v": 93
    },
    {
      "midi": 70,
      "hit": false,
      "t": 181250.00000000006,
      "d": 104.16666666665697,
      "v": 88
    },
    {
      "midi": 64,
      "hit": false,
      "t": 181750.00000000006,
      "d": 72.91666666665697,
      "v": 98
    },
    {
      "midi": 60,
      "hit": false,
      "t": 181750.00000000006,
      "d": 80.72916666665697,
      "v": 88
    },
    {
      "midi": 70,
      "hit": false,
      "t": 181750.00000000006,
      "d": 88.54166666665697,
      "v": 86
    },
    {
      "midi": 64,
      "hit": false,
      "t": 182250.00000000006,
      "d": 67.70833333334303,
      "v": 93
    },
    {
      "midi": 60,
      "hit": false,
      "t": 182250.00000000006,
      "d": 78.125,
      "v": 88
    },
    {
      "midi": 70,
      "hit": false,
      "t": 182250.00000000006,
      "d": 106.77083333334303,
      "v": 88
    },
    {
      "midi": 64,
      "hit": false,
      "t": 182750.00000000006,
      "d": 78.125,
      "v": 93
    },
    {
      "midi": 60,
      "hit": false,
      "t": 182750.00000000006,
      "d": 83.33333333334303,
      "v": 90
    },
    {
      "midi": 70,
      "hit": false,
      "t": 182750.00000000006,
      "d": 85.9375,
      "v": 88
    },
    {
      "midi": 60,
      "hit": false,
      "t": 183250.00000000006,
      "d": 67.70833333334303,
      "v": 90
    },
    {
      "midi": 65,
      "hit": false,
      "t": 183250.00000000006,
      "d": 70.3125,
      "v": 90
    },
    {
      "midi": 69,
      "hit": false,
      "t": 183250.00000000006,
      "d": 96.35416666665697,
      "v": 90
    },
    {
      "midi": 60,
      "hit": false,
      "t": 183750.00000000006,
      "d": 62.5,
      "v": 88
    },
    {
      "midi": 65,
      "hit": false,
      "t": 183750.00000000006,
      "d": 67.70833333334303,
      "v": 93
    },
    {
      "midi": 69,
      "hit": false,
      "t": 183750.00000000006,
      "d": 80.72916666668607,
      "v": 86
    },
    {
      "midi": 65,
      "hit": false,
      "t": 184250.0000000001,
      "d": 67.70833333334303,
      "v": 79
    },
    {
      "midi": 60,
      "hit": false,
      "t": 184250.0000000001,
      "d": 72.91666666668607,
      "v": 88
    },
    {
      "midi": 69,
      "hit": false,
      "t": 184250.0000000001,
      "d": 88.54166666668607,
      "v": 88
    },
    {
      "midi": 60,
      "hit": false,
      "t": 184750.00000000012,
      "d": 57.291666666656965,
      "v": 88
    },
    {
      "midi": 65,
      "hit": false,
      "t": 184750.00000000012,
      "d": 65.10416666665697,
      "v": 88
    },
    {
      "midi": 69,
      "hit": false,
      "t": 184750.00000000012,
      "d": 98.95833333331393,
      "v": 84
    },
    {
      "midi": 60,
      "hit": false,
      "t": 185250.0000000001,
      "d": 70.3125,
      "v": 98
    },
    {
      "midi": 65,
      "hit": false,
      "t": 185250.0000000001,
      "d": 70.3125,
      "v": 90
    },
    {
      "midi": 69,
      "hit": false,
      "t": 185250.0000000001,
      "d": 93.75,
      "v": 90
    },
    {
      "midi": 60,
      "hit": false,
      "t": 185750.0000000001,
      "d": 59.895833333343035,
      "v": 93
    },
    {
      "midi": 65,
      "hit": false,
      "t": 185750.0000000001,
      "d": 65.10416666668607,
      "v": 93
    },
    {
      "midi": 69,
      "hit": false,
      "t": 185750.0000000001,
      "d": 91.14583333334303,
      "v": 90
    },
    {
      "midi": 60,
      "hit": false,
      "t": 186250.0000000001,
      "d": 70.3125,
      "v": 93
    },
    {
      "midi": 65,
      "hit": false,
      "t": 186250.0000000001,
      "d": 80.72916666665697,
      "v": 88
    },
    {
      "midi": 69,
      "hit": false,
      "t": 186250.0000000001,
      "d": 93.75,
      "v": 86
    },
    {
      "midi": 60,
      "hit": false,
      "t": 186750.0000000001,
      "d": 49.479166666656965,
      "v": 93
    },
    {
      "midi": 65,
      "hit": false,
      "t": 186750.0000000001,
      "d": 75.52083333331393,
      "v": 102
    },
    {
      "midi": 69,
      "hit": false,
      "t": 186750.0000000001,
      "d": 91.14583333331393,
      "v": 90
    },
    {
      "midi": 64,
      "hit": false,
      "t": 187250.00000000006,
      "d": 80.72916666665697,
      "v": 93
    },
    {
      "midi": 60,
      "hit": false,
      "t": 187250.00000000006,
      "d": 85.9375,
      "v": 93
    },
    {
      "midi": 70,
      "hit": false,
      "t": 187250.00000000006,
      "d": 88.54166666665697,
      "v": 88
    },
    {
      "midi": 64,
      "hit": false,
      "t": 187750.00000000006,
      "d": 75.52083333334303,
      "v": 93
    },
    {
      "midi": 60,
      "hit": false,
      "t": 187750.00000000006,
      "d": 80.72916666668607,
      "v": 90
    },
    {
      "midi": 70,
      "hit": false,
      "t": 187750.00000000006,
      "d": 93.7500000000291,
      "v": 88
    },
    {
      "midi": 64,
      "hit": false,
      "t": 188250.0000000001,
      "d": 65.10416666665697,
      "v": 88
    },
    {
      "midi": 60,
      "hit": false,
      "t": 188250.0000000001,
      "d": 80.72916666665697,
      "v": 90
    },
    {
      "midi": 70,
      "hit": false,
      "t": 188250.0000000001,
      "d": 93.75,
      "v": 86
    },
    {
      "midi": 64,
      "hit": false,
      "t": 188750.0000000001,
      "d": 65.10416666665697,
      "v": 102
    },
    {
      "midi": 60,
      "hit": false,
      "t": 188750.0000000001,
      "d": 72.91666666665697,
      "v": 93
    },
    {
      "midi": 70,
      "hit": false,
      "t": 188750.0000000001,
      "d": 91.14583333331393,
      "v": 88
    },
    {
      "midi": 60,
      "hit": false,
      "t": 189250.00000000006,
      "d": 72.91666666665697,
      "v": 90
    },
    {
      "midi": 64,
      "hit": false,
      "t": 189250.00000000006,
      "d": 72.91666666665697,
      "v": 98
    },
    {
      "midi": 70,
      "hit": false,
      "t": 189250.00000000006,
      "d": 85.9375,
      "v": 88
    },
    {
      "midi": 60,
      "hit": false,
      "t": 189750.00000000006,
      "d": 70.3125,
      "v": 90
    },
    {
      "midi": 64,
      "hit": false,
      "t": 189750.00000000006,
      "d": 70.3125,
      "v": 98
    },
    {
      "midi": 70,
      "hit": false,
      "t": 189750.00000000006,
      "d": 88.54166666665697,
      "v": 93
    },
    {
      "midi": 64,
      "hit": false,
      "t": 190250.00000000006,
      "d": 72.91666666665697,
      "v": 98
    },
    {
      "midi": 60,
      "hit": false,
      "t": 190250.00000000006,
      "d": 75.52083333331393,
      "v": 88
    },
    {
      "midi": 70,
      "hit": false,
      "t": 190250.00000000006,
      "d": 83.33333333331393,
      "v": 86
    },
    {
      "midi": 60,
      "hit": false,
      "t": 190750.00000000003,
      "d": 72.91666666665697,
      "v": 90
    },
    {
      "midi": 64,
      "hit": false,
      "t": 190750.00000000003,
      "d": 72.91666666665697,
      "v": 98
    },
    {
      "midi": 70,
      "hit": false,
      "t": 190750.00000000003,
      "d": 80.72916666665697,
      "v": 86
    },
    {
      "midi": 65,
      "hit": false,
      "t": 191250.00000000003,
      "d": 75.52083333334303,
      "v": 84
    },
    {
      "midi": 60,
      "hit": false,
      "t": 191250.00000000003,
      "d": 80.72916666668607,
      "v": 88
    },
    {
      "midi": 69,
      "hit": false,
      "t": 191250.00000000003,
      "d": 88.54166666668607,
      "v": 86
    },
    {
      "midi": 60,
      "hit": false,
      "t": 191750.00000000006,
      "d": 70.3125,
      "v": 90
    },
    {
      "midi": 65,
      "hit": false,
      "t": 191750.00000000006,
      "d": 78.125,
      "v": 90
    },
    {
      "midi": 69,
      "hit": false,
      "t": 191750.00000000006,
      "d": 78.125,
      "v": 93
    },
    {
      "midi": 60,
      "hit": false,
      "t": 192250.00000000006,
      "d": 65.10416666665697,
      "v": 88
    },
    {
      "midi": 65,
      "hit": false,
      "t": 192250.00000000006,
      "d": 65.10416666665697,
      "v": 88
    },
    {
      "midi": 69,
      "hit": false,
      "t": 192250.00000000006,
      "d": 85.9375,
      "v": 88
    },
    {
      "midi": 65,
      "hit": false,
      "t": 192750.00000000006,
      "d": 72.91666666665697,
      "v": 76
    },
    {
      "midi": 60,
      "hit": false,
      "t": 192750.00000000006,
      "d": 80.72916666665697,
      "v": 88
    },
    {
      "midi": 69,
      "hit": false,
      "t": 192750.00000000006,
      "d": 114.58333333331393,
      "v": 86
    },
    {
      "midi": 46,
      "hit": false,
      "t": 193000.00000000003,
      "d": 1992.1875,
      "v": 90
    },
    {
      "midi": 62,
      "hit": false,
      "t": 193000.00000000003,
      "d": 1992.1875,
      "v": 98
    },
    {
      "midi": 65,
      "hit": false,
      "t": 193000.00000000003,
      "d": 1992.1875,
      "v": 98
    },
    {
      "midi": 70,
      "hit": false,
      "t": 193000.00000000003,
      "d": 1992.1875,
      "v": 90
    },
    {
      "midi": 48,
      "hit": false,
      "t": 195000.00000000003,
      "d": 1921.875,
      "v": 93
    },
    {
      "midi": 60,
      "hit": false,
      "t": 195000.00000000003,
      "d": 1921.875,
      "v": 102
    },
    {
      "midi": 64,
      "hit": false,
      "t": 195000.00000000003,
      "d": 1921.875,
      "v": 104
    },
    {
      "midi": 70,
      "hit": false,
      "t": 195000.00000000003,
      "d": 1921.875,
      "v": 88
    },
    {
      "midi": 69,
      "hit": false,
      "t": 197000.00000000003,
      "d": 1239.583333333343,
      "v": 93
    },
    {
      "midi": 60,
      "hit": false,
      "t": 197000.00000000003,
      "d": 1247.395833333343,
      "v": 104
    },
    {
      "midi": 65,
      "hit": false,
      "t": 197000.00000000003,
      "d": 1247.395833333343,
      "v": 98
    },
    {
      "midi": 64,
      "hit": false,
      "t": 198500.00000000003,
      "d": 398.4375,
      "v": 93
    },
    {
      "midi": 60,
      "hit": false,
      "t": 198500.00000000003,
      "d": 403.64583333334303,
      "v": 93
    },
    {
      "midi": 70,
      "hit": false,
      "t": 198500.00000000003,
      "d": 416.66666666668607,
      "v": 90
    },
    {
      "midi": 65,
      "hit": false,
      "t": 199250.00000000006,
      "d": 67.70833333334303,
      "v": 93
    },
    {
      "midi": 60,
      "hit": false,
      "t": 199250.00000000006,
      "d": 70.3125,
      "v": 86
    },
    {
      "midi": 69,
      "hit": false,
      "t": 199250.00000000006,
      "d": 75.52083333334303,
      "v": 88
    },
    {
      "midi": 65,
      "hit": false,
      "t": 199750.00000000006,
      "d": 67.70833333334303,
      "v": 90
    },
    {
      "midi": 60,
      "hit": false,
      "t": 199750.00000000006,
      "d": 70.3125,
      "v": 88
    },
    {
      "midi": 69,
      "hit": false,
      "t": 199750.00000000006,
      "d": 83.33333333334303,
      "v": 86
    },
    {
      "midi": 60,
      "hit": false,
      "t": 200250.00000000006,
      "d": 59.895833333343035,
      "v": 84
    },
    {
      "midi": 65,
      "hit": false,
      "t": 200250.00000000006,
      "d": 62.5,
      "v": 90
    },
    {
      "midi": 69,
      "hit": false,
      "t": 200250.00000000006,
      "d": 78.125,
      "v": 88
    },
    {
      "midi": 60,
      "hit": false,
      "t": 200750.00000000006,
      "d": 65.10416666665697,
      "v": 88
    },
    {
      "midi": 65,
      "hit": false,
      "t": 200750.00000000006,
      "d": 65.10416666665697,
      "v": 88
    },
    {
      "midi": 69,
      "hit": false,
      "t": 200750.00000000006,
      "d": 80.72916666665697,
      "v": 86
    },
    {
      "midi": 65,
      "hit": false,
      "t": 201250.00000000006,
      "d": 62.5,
      "v": 90
    },
    {
      "midi": 60,
      "hit": false,
      "t": 201250.00000000006,
      "d": 65.10416666665697,
      "v": 86
    },
    {
      "midi": 69,
      "hit": false,
      "t": 201250.00000000006,
      "d": 78.125,
      "v": 90
    },
    {
      "midi": 65,
      "hit": false,
      "t": 201750.00000000006,
      "d": 65.10416666665697,
      "v": 88
    },
    {
      "midi": 60,
      "hit": false,
      "t": 201750.00000000006,
      "d": 67.70833333331393,
      "v": 88
    },
    {
      "midi": 69,
      "hit": false,
      "t": 201750.00000000006,
      "d": 80.72916666665697,
      "v": 88
    },
    {
      "midi": 60,
      "hit": false,
      "t": 202250.00000000006,
      "d": 59.895833333343035,
      "v": 86
    },
    {
      "midi": 65,
      "hit": false,
      "t": 202250.00000000006,
      "d": 67.70833333334303,
      "v": 93
    },
    {
      "midi": 69,
      "hit": false,
      "t": 202250.00000000006,
      "d": 72.91666666668607,
      "v": 90
    },
    {
      "midi": 60,
      "hit": false,
      "t": 202750.0000000001,
      "d": 44.270833333343035,
      "v": 84
    },
    {
      "midi": 65,
      "hit": false,
      "t": 202750.0000000001,
      "d": 62.5,
      "v": 90
    },
    {
      "midi": 69,
      "hit": false,
      "t": 202750.0000000001,
      "d": 80.72916666665697,
      "v": 86
    },
    {
      "midi": 64,
      "hit": false,
      "t": 203250.0000000001,
      "d": 59.895833333343035,
      "v": 98
    },
    {
      "midi": 60,
      "hit": false,
      "t": 203250.0000000001,
      "d": 67.70833333334303,
      "v": 82
    },
    {
      "midi": 70,
      "hit": false,
      "t": 203250.0000000001,
      "d": 75.52083333334303,
      "v": 90
    },
    {
      "midi": 64,
      "hit": false,
      "t": 203750.0000000001,
      "d": 67.70833333334303,
      "v": 88
    },
    {
      "midi": 60,
      "hit": false,
      "t": 203750.0000000001,
      "d": 70.3125,
      "v": 86
    },
    {
      "midi": 70,
      "hit": false,
      "t": 203750.0000000001,
      "d": 83.33333333334303,
      "v": 88
    },
    {
      "midi": 70,
      "hit": false,
      "t": 204250.0000000001,
      "d": 18.229166666656965,
      "v": 88
    },
    {
      "midi": 64,
      "hit": false,
      "t": 204250.0000000001,
      "d": 70.3125,
      "v": 93
    },
    {
      "midi": 60,
      "hit": false,
      "t": 204250.0000000001,
      "d": 75.52083333334303,
      "v": 86
    },
    {
      "midi": 60,
      "hit": false,
      "t": 204750.0000000001,
      "d": 72.91666666665697,
      "v": 82
    },
    {
      "midi": 64,
      "hit": false,
      "t": 204750.0000000001,
      "d": 75.52083333331393,
      "v": 90
    },
    {
      "midi": 70,
      "hit": false,
      "t": 204750.0000000001,
      "d": 83.33333333331393,
      "v": 88
    },
    {
      "midi": 60,
      "hit": false,
      "t": 205250.00000000006,
      "d": 75.52083333334303,
      "v": 84
    },
    {
      "midi": 64,
      "hit": false,
      "t": 205250.00000000006,
      "d": 78.125,
      "v": 93
    },
    {
      "midi": 70,
      "hit": false,
      "t": 205250.00000000006,
      "d": 88.54166666665697,
      "v": 88
    },
    {
      "midi": 60,
      "hit": false,
      "t": 205750.00000000006,
      "d": 62.5,
      "v": 84
    },
    {
      "midi": 64,
      "hit": false,
      "t": 205750.00000000006,
      "d": 67.70833333334303,
      "v": 88
    },
    {
      "midi": 70,
      "hit": false,
      "t": 205750.00000000006,
      "d": 83.33333333334303,
      "v": 88
    },
    {
      "midi": 64,
      "hit": false,
      "t": 206250.00000000006,
      "d": 70.3125,
      "v": 93
    },
    {
      "midi": 60,
      "hit": false,
      "t": 206250.00000000006,
      "d": 75.52083333334303,
      "v": 86
    },
    {
      "midi": 70,
      "hit": false,
      "t": 206250.00000000006,
      "d": 88.54166666668607,
      "v": 86
    },
    {
      "midi": 64,
      "hit": false,
      "t": 206750.0000000001,
      "d": 65.10416666665697,
      "v": 90
    },
    {
      "midi": 60,
      "hit": false,
      "t": 206750.0000000001,
      "d": 70.3125,
      "v": 80
    },
    {
      "midi": 70,
      "hit": false,
      "t": 206750.0000000001,
      "d": 91.14583333334303,
      "v": 88
    },
    {
      "midi": 60,
      "hit": false,
      "t": 207250.0000000001,
      "d": 75.52083333334303,
      "v": 88
    },
    {
      "midi": 64,
      "hit": false,
      "t": 207250.0000000001,
      "d": 78.125,
      "v": 93
    },
    {
      "midi": 70,
      "hit": false,
      "t": 207250.0000000001,
      "d": 93.75,
      "v": 98
    },
    {
      "midi": 64,
      "hit": false,
      "t": 207750.0000000001,
      "d": 67.70833333334303,
      "v": 93
    },
    {
      "midi": 60,
      "hit": false,
      "t": 207750.0000000001,
      "d": 70.3125,
      "v": 86
    },
    {
      "midi": 70,
      "hit": false,
      "t": 207750.0000000001,
      "d": 75.52083333334303,
      "v": 84
    },
    {
      "midi": 60,
      "hit": false,
      "t": 208250.0000000001,
      "d": 72.91666666665697,
      "v": 84
    },
    {
      "midi": 64,
      "hit": false,
      "t": 208250.0000000001,
      "d": 75.52083333331393,
      "v": 90
    },
    {
      "midi": 70,
      "hit": false,
      "t": 208250.0000000001,
      "d": 88.54166666665697,
      "v": 88
    },
    {
      "midi": 60,
      "hit": false,
      "t": 208750.0000000001,
      "d": 72.91666666665697,
      "v": 82
    },
    {
      "midi": 64,
      "hit": false,
      "t": 208750.0000000001,
      "d": 72.91666666665697,
      "v": 90
    },
    {
      "midi": 70,
      "hit": false,
      "t": 208750.0000000001,
      "d": 91.14583333331393,
      "v": 88
    },
    {
      "midi": 60,
      "hit": false,
      "t": 209250.00000000006,
      "d": 67.70833333334303,
      "v": 84
    },
    {
      "midi": 64,
      "hit": false,
      "t": 209250.00000000006,
      "d": 72.91666666668607,
      "v": 93
    },
    {
      "midi": 70,
      "hit": false,
      "t": 209250.00000000006,
      "d": 80.72916666668607,
      "v": 88
    },
    {
      "midi": 64,
      "hit": false,
      "t": 209750.0000000001,
      "d": 67.70833333334303,
      "v": 98
    },
    {
      "midi": 60,
      "hit": false,
      "t": 209750.0000000001,
      "d": 72.91666666668607,
      "v": 88
    },
    {
      "midi": 70,
      "hit": false,
      "t": 209750.0000000001,
      "d": 85.9375000000291,
      "v": 93
    },
    {
      "midi": 64,
      "hit": false,
      "t": 210250.00000000012,
      "d": 70.3125,
      "v": 93
    },
    {
      "midi": 60,
      "hit": false,
      "t": 210250.00000000012,
      "d": 78.125,
      "v": 86
    },
    {
      "midi": 70,
      "hit": false,
      "t": 210250.00000000012,
      "d": 85.9375,
      "v": 88
    },
    {
      "midi": 64,
      "hit": false,
      "t": 210750.00000000012,
      "d": 190.10416666665697,
      "v": 93
    },
    {
      "midi": 70,
      "hit": false,
      "t": 210750.00000000012,
      "d": 192.70833333331393,
      "v": 88
    },
    {
      "midi": 60,
      "hit": false,
      "t": 210750.00000000012,
      "d": 195.3124999999709,
      "v": 88
    },
    {
      "midi": 60,
      "hit": false,
      "t": 211250.0000000001,
      "d": 67.70833333334303,
      "v": 88
    },
    {
      "midi": 65,
      "hit": false,
      "t": 211250.0000000001,
      "d": 70.3125,
      "v": 88
    },
    {
      "midi": 69,
      "hit": false,
      "t": 211250.0000000001,
      "d": 80.72916666665697,
      "v": 86
    },
    {
      "midi": 60,
      "hit": false,
      "t": 211750.0000000001,
      "d": 70.3125,
      "v": 88
    },
    {
      "midi": 65,
      "hit": false,
      "t": 211750.0000000001,
      "d": 72.91666666665697,
      "v": 86
    },
    {
      "midi": 69,
      "hit": false,
      "t": 211750.0000000001,
      "d": 78.125,
      "v": 86
    },
    {
      "midi": 60,
      "hit": false,
      "t": 212250.0000000001,
      "d": 70.3125,
      "v": 88
    },
    {
      "midi": 65,
      "hit": false,
      "t": 212250.0000000001,
      "d": 70.3125,
      "v": 84
    },
    {
      "midi": 69,
      "hit": false,
      "t": 212250.0000000001,
      "d": 70.3125,
      "v": 80
    },
    {
      "midi": 65,
      "hit": false,
      "t": 212750.0000000001,
      "d": 65.10416666665697,
      "v": 88
    },
    {
      "midi": 60,
      "hit": false,
      "t": 212750.0000000001,
      "d": 67.70833333331393,
      "v": 88
    },
    {
      "midi": 69,
      "hit": false,
      "t": 212750.0000000001,
      "d": 67.70833333331393,
      "v": 86
    },
    {
      "midi": 60,
      "hit": false,
      "t": 213250.00000000006,
      "d": 59.895833333343035,
      "v": 93
    },
    {
      "midi": 65,
      "hit": false,
      "t": 213250.00000000006,
      "d": 62.5,
      "v": 90
    },
    {
      "midi": 69,
      "hit": false,
      "t": 213250.00000000006,
      "d": 72.91666666665697,
      "v": 88
    },
    {
      "midi": 69,
      "hit": false,
      "t": 213750.00000000006,
      "d": 65.10416666665697,
      "v": 84
    },
    {
      "midi": 60,
      "hit": false,
      "t": 213750.00000000006,
      "d": 67.70833333331393,
      "v": 84
    },
    {
      "midi": 65,
      "hit": false,
      "t": 213750.00000000006,
      "d": 72.91666666665697,
      "v": 86
    },
    {
      "midi": 60,
      "hit": false,
      "t": 214250.00000000006,
      "d": 62.5,
      "v": 88
    },
    {
      "midi": 65,
      "hit": false,
      "t": 214250.00000000006,
      "d": 67.70833333334303,
      "v": 86
    },
    {
      "midi": 69,
      "hit": false,
      "t": 214250.00000000006,
      "d": 72.91666666668607,
      "v": 86
    },
    {
      "midi": 69,
      "hit": false,
      "t": 214750.0000000001,
      "d": 247.39583333334303,
      "v": 86
    },
    {
      "midi": 65,
      "hit": false,
      "t": 214750.0000000001,
      "d": 255.20833333334303,
      "v": 86
    },
    {
      "midi": 60,
      "hit": false,
      "t": 214750.0000000001,
      "d": 257.8125,
      "v": 88
    },
    {
      "midi": 60,
      "hit": false,
      "t": 215250.0000000001,
      "d": 57.291666666656965,
      "v": 88
    },
    {
      "midi": 65,
      "hit": false,
      "t": 215250.0000000001,
      "d": 72.91666666665697,
      "v": 88
    },
    {
      "midi": 69,
      "hit": false,
      "t": 215250.0000000001,
      "d": 75.52083333331393,
      "v": 84
    },
    {
      "midi": 60,
      "hit": false,
      "t": 215750.00000000006,
      "d": 70.3125,
      "v": 88
    },
    {
      "midi": 69,
      "hit": false,
      "t": 215750.00000000006,
      "d": 72.91666666665697,
      "v": 80
    },
    {
      "midi": 65,
      "hit": false,
      "t": 215750.00000000006,
      "d": 75.52083333331393,
      "v": 86
    },
    {
      "midi": 60,
      "hit": false,
      "t": 216250.00000000003,
      "d": 52.083333333343035,
      "v": 86
    },
    {
      "midi": 65,
      "hit": false,
      "t": 216250.00000000003,
      "d": 59.895833333343035,
      "v": 86
    },
    {
      "midi": 69,
      "hit": false,
      "t": 216250.00000000003,
      "d": 65.10416666668607,
      "v": 86
    },
    {
      "midi": 60,
      "hit": false,
      "t": 216750.00000000006,
      "d": 39.0625,
      "v": 86
    },
    {
      "midi": 69,
      "hit": false,
      "t": 216750.00000000006,
      "d": 70.3125,
      "v": 88
    },
    {
      "midi": 65,
      "hit": false,
      "t": 216750.00000000006,
      "d": 80.72916666665697,
      "v": 98
    },
    {
      "midi": 65,
      "hit": false,
      "t": 217250.00000000006,
      "d": 52.083333333343035,
      "v": 98
    },
    {
      "midi": 60,
      "hit": false,
      "t": 217250.00000000006,
      "d": 54.6875,
      "v": 90
    },
    {
      "midi": 69,
      "hit": false,
      "t": 217250.00000000006,
      "d": 67.70833333334303,
      "v": 93
    },
    {
      "midi": 65,
      "hit": false,
      "t": 217750.00000000006,
      "d": 52.083333333343035,
      "v": 90
    },
    {
      "midi": 60,
      "hit": false,
      "t": 217750.00000000006,
      "d": 59.895833333343035,
      "v": 93
    },
    {
      "midi": 69,
      "hit": false,
      "t": 217750.00000000006,
      "d": 80.72916666668607,
      "v": 88
    },
    {
      "midi": 65,
      "hit": false,
      "t": 218250.0000000001,
      "d": 49.479166666656965,
      "v": 84
    },
    {
      "midi": 60,
      "hit": false,
      "t": 218250.0000000001,
      "d": 52.08333333331393,
      "v": 88
    },
    {
      "midi": 69,
      "hit": false,
      "t": 218250.0000000001,
      "d": 75.52083333331393,
      "v": 93
    },
    {
      "midi": 60,
      "hit": false,
      "t": 218750.00000000006,
      "d": 49.479166666656965,
      "v": 90
    },
    {
      "midi": 65,
      "hit": false,
      "t": 218750.00000000006,
      "d": 52.08333333331393,
      "v": 90
    },
    {
      "midi": 69,
      "hit": false,
      "t": 218750.00000000006,
      "d": 78.1249999999709,
      "v": 90
    },
    {
      "midi": 64,
      "hit": false,
      "t": 219250.00000000003,
      "d": 57.291666666656965,
      "v": 98
    },
    {
      "midi": 60,
      "hit": false,
      "t": 219250.00000000003,
      "d": 72.91666666665697,
      "v": 90
    },
    {
      "midi": 70,
      "hit": false,
      "t": 219250.00000000003,
      "d": 78.125,
      "v": 84
    },
    {
      "midi": 64,
      "hit": false,
      "t": 219750.00000000003,
      "d": 54.6875,
      "v": 98
    },
    {
      "midi": 60,
      "hit": false,
      "t": 219750.00000000003,
      "d": 62.5,
      "v": 98
    },
    {
      "midi": 70,
      "hit": false,
      "t": 219750.00000000003,
      "d": 70.3125,
      "v": 80
    },
    {
      "midi": 64,
      "hit": false,
      "t": 220250.00000000003,
      "d": 49.479166666656965,
      "v": 90
    },
    {
      "midi": 60,
      "hit": false,
      "t": 220250.00000000003,
      "d": 59.89583333331393,
      "v": 90
    },
    {
      "midi": 70,
      "hit": false,
      "t": 220250.00000000003,
      "d": 72.91666666665697,
      "v": 84
    },
    {
      "midi": 64,
      "hit": false,
      "t": 220750.00000000003,
      "d": 62.5,
      "v": 98
    },
    {
      "midi": 60,
      "hit": false,
      "t": 220750.00000000003,
      "d": 67.70833333334303,
      "v": 90
    },
    {
      "midi": 70,
      "hit": false,
      "t": 220750.00000000003,
      "d": 78.125,
      "v": 86
    },
    {
      "midi": 64,
      "hit": false,
      "t": 221250.00000000003,
      "d": 52.083333333343035,
      "v": 84
    },
    {
      "midi": 60,
      "hit": false,
      "t": 221250.00000000003,
      "d": 65.10416666668607,
      "v": 90
    },
    {
      "midi": 70,
      "hit": false,
      "t": 221250.00000000003,
      "d": 78.1250000000291,
      "v": 82
    },
    {
      "midi": 60,
      "hit": false,
      "t": 221750.00000000006,
      "d": 59.895833333343035,
      "v": 88
    },
    {
      "midi": 64,
      "hit": false,
      "t": 221750.00000000006,
      "d": 62.5,
      "v": 102
    },
    {
      "midi": 70,
      "hit": false,
      "t": 221750.00000000006,
      "d": 75.52083333334303,
      "v": 82
    },
    {
      "midi": 64,
      "hit": false,
      "t": 222250.00000000006,
      "d": 65.10416666665697,
      "v": 88
    },
    {
      "midi": 60,
      "hit": false,
      "t": 222250.00000000006,
      "d": 67.70833333331393,
      "v": 86
    },
    {
      "midi": 70,
      "hit": false,
      "t": 222250.00000000006,
      "d": 72.91666666665697,
      "v": 84
    },
    {
      "midi": 64,
      "hit": false,
      "t": 222750.00000000006,
      "d": 54.6875,
      "v": 90
    },
    {
      "midi": 60,
      "hit": false,
      "t": 222750.00000000006,
      "d": 65.10416666665697,
      "v": 86
    },
    {
      "midi": 70,
      "hit": false,
      "t": 222750.00000000006,
      "d": 78.125,
      "v": 82
    },
    {
      "midi": 64,
      "hit": false,
      "t": 223250.00000000006,
      "d": 54.6875,
      "v": 93
    },
    {
      "midi": 60,
      "hit": false,
      "t": 223250.00000000006,
      "d": 59.895833333343035,
      "v": 90
    },
    {
      "midi": 70,
      "hit": false,
      "t": 223250.00000000006,
      "d": 83.33333333334303,
      "v": 86
    },
    {
      "midi": 64,
      "hit": false,
      "t": 223750.00000000006,
      "d": 57.291666666656965,
      "v": 90
    },
    {
      "midi": 60,
      "hit": false,
      "t": 223750.00000000006,
      "d": 62.5,
      "v": 86
    },
    {
      "midi": 70,
      "hit": false,
      "t": 223750.00000000006,
      "d": 70.3125,
      "v": 82
    },
    {
      "midi": 64,
      "hit": false,
      "t": 224250.00000000006,
      "d": 59.895833333343035,
      "v": 90
    },
    {
      "midi": 60,
      "hit": false,
      "t": 224250.00000000006,
      "d": 70.3125,
      "v": 90
    },
    {
      "midi": 70,
      "hit": false,
      "t": 224250.00000000006,
      "d": 78.125,
      "v": 84
    },
    {
      "midi": 64,
      "hit": false,
      "t": 224750.00000000006,
      "d": 54.6875,
      "v": 90
    },
    {
      "midi": 60,
      "hit": false,
      "t": 224750.00000000006,
      "d": 62.5,
      "v": 93
    },
    {
      "midi": 70,
      "hit": false,
      "t": 224750.00000000006,
      "d": 72.91666666665697,
      "v": 82
    },
    {
      "midi": 64,
      "hit": false,
      "t": 225250.00000000006,
      "d": 59.895833333343035,
      "v": 102
    },
    {
      "midi": 60,
      "hit": false,
      "t": 225250.00000000006,
      "d": 62.5,
      "v": 93
    },
    {
      "midi": 70,
      "hit": false,
      "t": 225250.00000000006,
      "d": 65.10416666665697,
      "v": 88
    },
    {
      "midi": 64,
      "hit": false,
      "t": 225750.00000000006,
      "d": 57.291666666656965,
      "v": 93
    },
    {
      "midi": 60,
      "hit": false,
      "t": 225750.00000000006,
      "d": 59.89583333331393,
      "v": 88
    },
    {
      "midi": 70,
      "hit": false,
      "t": 225750.00000000006,
      "d": 75.52083333331393,
      "v": 86
    },
    {
      "midi": 60,
      "hit": false,
      "t": 226250.00000000003,
      "d": 54.6875,
      "v": 86
    },
    {
      "midi": 64,
      "hit": false,
      "t": 226250.00000000003,
      "d": 59.895833333343035,
      "v": 88
    },
    {
      "midi": 70,
      "hit": false,
      "t": 226250.00000000003,
      "d": 78.125,
      "v": 88
    },
    {
      "midi": 64,
      "hit": false,
      "t": 226750.00000000003,
      "d": 190.10416666665697,
      "v": 93
    },
    {
      "midi": 70,
      "hit": false,
      "t": 226750.00000000003,
      "d": 197.91666666665697,
      "v": 86
    },
    {
      "midi": 60,
      "hit": false,
      "t": 226750.00000000003,
      "d": 203.125,
      "v": 93
    },
    {
      "midi": 65,
      "hit": false,
      "t": 227250.00000000003,
      "d": 62.5,
      "v": 90
    },
    {
      "midi": 60,
      "hit": false,
      "t": 227250.00000000003,
      "d": 65.10416666665697,
      "v": 88
    },
    {
      "midi": 69,
      "hit": false,
      "t": 227250.00000000003,
      "d": 72.91666666665697,
      "v": 93
    },
    {
      "midi": 60,
      "hit": false,
      "t": 227750.00000000003,
      "d": 49.479166666656965,
      "v": 93
    },
    {
      "midi": 65,
      "hit": false,
      "t": 227750.00000000003,
      "d": 57.291666666656965,
      "v": 88
    },
    {
      "midi": 69,
      "hit": false,
      "t": 227750.00000000003,
      "d": 67.70833333331393,
      "v": 88
    },
    {
      "midi": 60,
      "hit": false,
      "t": 228250,
      "d": 41.666666666656965,
      "v": 90
    },
    {
      "midi": 65,
      "hit": false,
      "t": 228250,
      "d": 57.291666666656965,
      "v": 93
    },
    {
      "midi": 69,
      "hit": false,
      "t": 228250,
      "d": 57.291666666656965,
      "v": 90
    },
    {
      "midi": 60,
      "hit": false,
      "t": 228750,
      "d": 192.70833333334303,
      "v": 90
    },
    {
      "midi": 65,
      "hit": false,
      "t": 228750,
      "d": 192.70833333334303,
      "v": 88
    },
    {
      "midi": 69,
      "hit": false,
      "t": 228750,
      "d": 192.70833333334303,
      "v": 84
    },
    {
      "midi": 60,
      "hit": false,
      "t": 229000,
      "d": 52.083333333343035,
      "v": 90
    },
    {
      "midi": 65,
      "hit": false,
      "t": 229000,
      "d": 57.29166666668607,
      "v": 88
    },
    {
      "midi": 69,
      "hit": false,
      "t": 229000,
      "d": 57.29166666668607,
      "v": 84
    },
    {
      "midi": 60,
      "hit": false,
      "t": 229500.00000000003,
      "d": 401.04166666665697,
      "v": 98
    },
    {
      "midi": 69,
      "hit": false,
      "t": 229500.00000000003,
      "d": 401.04166666665697,
      "v": 93
    },
    {
      "midi": 65,
      "hit": false,
      "t": 229500.00000000003,
      "d": 419.27083333331393,
      "v": 86
    },
    {
      "midi": 63,
      "hit": false,
      "t": 230000,
      "d": 393.22916666665697,
      "v": 102
    },
    {
      "midi": 60,
      "hit": false,
      "t": 230000,
      "d": 398.4375,
      "v": 88
    },
    {
      "midi": 69,
      "hit": false,
      "t": 230000,
      "d": 408.85416666665697,
      "v": 102
    },
    {
      "midi": 60,
      "hit": false,
      "t": 230500,
      "d": 364.58333333334303,
      "v": 98
    },
    {
      "midi": 63,
      "hit": false,
      "t": 230500,
      "d": 380.20833333334303,
      "v": 98
    },
    {
      "midi": 69,
      "hit": false,
      "t": 230500,
      "d": 419.27083333334303,
      "v": 98
    },
    {
      "midi": 65,
      "hit": false,
      "t": 231250,
      "d": 67.70833333334303,
      "v": 86
    },
    {
      "midi": 62,
      "hit": false,
      "t": 231250,
      "d": 78.125,
      "v": 88
    },
    {
      "midi": 70,
      "hit": false,
      "t": 231250,
      "d": 78.125,
      "v": 88
    },
    {
      "midi": 62,
      "hit": false,
      "t": 231750,
      "d": 67.70833333334303,
      "v": 86
    },
    {
      "midi": 65,
      "hit": false,
      "t": 231750,
      "d": 70.3125,
      "v": 90
    },
    {
      "midi": 70,
      "hit": false,
      "t": 231750,
      "d": 75.52083333334303,
      "v": 88
    },
    {
      "midi": 62,
      "hit": false,
      "t": 232250,
      "d": 57.291666666656965,
      "v": 82
    },
    {
      "midi": 70,
      "hit": false,
      "t": 232250,
      "d": 65.10416666665697,
      "v": 88
    },
    {
      "midi": 65,
      "hit": false,
      "t": 232250,
      "d": 67.70833333331393,
      "v": 86
    },
    {
      "midi": 70,
      "hit": false,
      "t": 232749.99999999997,
      "d": 67.70833333334303,
      "v": 88
    },
    {
      "midi": 65,
      "hit": false,
      "t": 232749.99999999997,
      "d": 75.52083333334303,
      "v": 93
    },
    {
      "midi": 62,
      "hit": false,
      "t": 232749.99999999997,
      "d": 78.125,
      "v": 88
    },
    {
      "midi": 60,
      "hit": false,
      "t": 233249.99999999997,
      "d": 67.70833333334303,
      "v": 86
    },
    {
      "midi": 65,
      "hit": false,
      "t": 233249.99999999997,
      "d": 72.91666666668607,
      "v": 90
    },
    {
      "midi": 69,
      "hit": false,
      "t": 233249.99999999997,
      "d": 88.54166666668607,
      "v": 88
    },
    {
      "midi": 60,
      "hit": false,
      "t": 233750,
      "d": 62.5,
      "v": 88
    },
    {
      "midi": 65,
      "hit": false,
      "t": 233750,
      "d": 72.91666666665697,
      "v": 93
    },
    {
      "midi": 69,
      "hit": false,
      "t": 233750,
      "d": 85.9375,
      "v": 86
    },
    {
      "midi": 60,
      "hit": false,
      "t": 234250,
      "d": 59.895833333343035,
      "v": 88
    },
    {
      "midi": 65,
      "hit": false,
      "t": 234250,
      "d": 65.10416666668607,
      "v": 86
    },
    {
      "midi": 69,
      "hit": false,
      "t": 234250,
      "d": 78.1250000000291,
      "v": 90
    },
    {
      "midi": 60,
      "hit": false,
      "t": 234750.00000000003,
      "d": 67.70833333334303,
      "v": 90
    },
    {
      "midi": 65,
      "hit": false,
      "t": 234750.00000000003,
      "d": 67.70833333334303,
      "v": 93
    },
    {
      "midi": 69,
      "hit": false,
      "t": 234750.00000000003,
      "d": 93.75,
      "v": 93
    },
    {
      "midi": 70,
      "hit": false,
      "t": 235250.00000000003,
      "d": 59.895833333343035,
      "v": 88
    },
    {
      "midi": 65,
      "hit": false,
      "t": 235250.00000000003,
      "d": 62.5,
      "v": 88
    },
    {
      "midi": 62,
      "hit": false,
      "t": 235250.00000000003,
      "d": 65.10416666665697,
      "v": 88
    },
    {
      "midi": 65,
      "hit": false,
      "t": 235750.00000000003,
      "d": 62.5,
      "v": 86
    },
    {
      "midi": 62,
      "hit": false,
      "t": 235750.00000000003,
      "d": 70.3125,
      "v": 88
    },
    {
      "midi": 70,
      "hit": false,
      "t": 235750.00000000003,
      "d": 70.3125,
      "v": 90
    },
    {
      "midi": 62,
      "hit": false,
      "t": 236250.00000000003,
      "d": 78.125,
      "v": 93
    },
    {
      "midi": 65,
      "hit": false,
      "t": 236250.00000000003,
      "d": 78.125,
      "v": 86
    },
    {
      "midi": 70,
      "hit": false,
      "t": 236250.00000000003,
      "d": 88.54166666665697,
      "v": 82
    },
    {
      "midi": 62,
      "hit": false,
      "t": 236750.00000000003,
      "d": 192.70833333334303,
      "v": 90
    },
    {
      "midi": 70,
      "hit": false,
      "t": 236750.00000000003,
      "d": 192.70833333334303,
      "v": 86
    },
    {
      "midi": 65,
      "hit": false,
      "t": 236750.00000000003,
      "d": 200.52083333334303,
      "v": 82
    },
    {
      "midi": 60,
      "hit": false,
      "t": 237000.00000000003,
      "d": 325.52083333334303,
      "v": 98
    },
    {
      "midi": 69,
      "hit": false,
      "t": 237000.00000000003,
      "d": 343.75,
      "v": 98
    },
    {
      "midi": 65,
      "hit": false,
      "t": 237000.00000000003,
      "d": 359.375,
      "v": 98
    },
    {
      "midi": 69,
      "hit": false,
      "t": 237500.00000000003,
      "d": 369.79166666665697,
      "v": 86
    },
    {
      "midi": 65,
      "hit": false,
      "t": 237500.00000000003,
      "d": 406.25,
      "v": 98
    },
    {
      "midi": 60,
      "hit": false,
      "t": 237500.00000000003,
      "d": 414.0625,
      "v": 98
    },
    {
      "midi": 60,
      "hit": false,
      "t": 238000.00000000003,
      "d": 388.02083333334303,
      "v": 90
    },
    {
      "midi": 64,
      "hit": false,
      "t": 238000.00000000003,
      "d": 390.625,
      "v": 98
    },
    {
      "midi": 70,
      "hit": false,
      "t": 238000.00000000003,
      "d": 401.04166666665697,
      "v": 90
    },
    {
      "midi": 64,
      "hit": false,
      "t": 238500.00000000003,
      "d": 437.5,
      "v": 102
    },
    {
      "midi": 60,
      "hit": false,
      "t": 238500.00000000003,
      "d": 458.33333333334303,
      "v": 102
    },
    {
      "midi": 70,
      "hit": false,
      "t": 238500.00000000003,
      "d": 460.9375,
      "v": 93
    },
    {
      "midi": 60,
      "hit": false,
      "t": 239250.00000000003,
      "d": 62.5,
      "v": 88
    },
    {
      "midi": 65,
      "hit": false,
      "t": 239250.00000000003,
      "d": 62.5,
      "v": 86
    },
    {
      "midi": 69,
      "hit": false,
      "t": 239250.00000000003,
      "d": 72.91666666665697,
      "v": 88
    },
    {
      "midi": 65,
      "hit": false,
      "t": 239750.00000000003,
      "d": 57.291666666656965,
      "v": 88
    },
    {
      "midi": 60,
      "hit": false,
      "t": 239750.00000000003,
      "d": 62.5,
      "v": 86
    },
    {
      "midi": 69,
      "hit": false,
      "t": 239750.00000000003,
      "d": 83.33333333334303,
      "v": 88
    },
    {
      "midi": 60,
      "hit": false,
      "t": 240250.00000000003,
      "d": 52.083333333343035,
      "v": 86
    },
    {
      "midi": 65,
      "hit": false,
      "t": 240250.00000000003,
      "d": 59.895833333343035,
      "v": 93
    },
    {
      "midi": 69,
      "hit": false,
      "t": 240250.00000000003,
      "d": 72.91666666668607,
      "v": 88
    },
    {
      "midi": 60,
      "hit": false,
      "t": 240750.00000000006,
      "d": 70.3125,
      "v": 86
    },
    {
      "midi": 65,
      "hit": false,
      "t": 240750.00000000006,
      "d": 70.3125,
      "v": 93
    },
    {
      "midi": 69,
      "hit": false,
      "t": 240750.00000000006,
      "d": 72.91666666665697,
      "v": 84
    },
    {
      "midi": 60,
      "hit": false,
      "t": 241250.00000000006,
      "d": 52.083333333343035,
      "v": 88
    },
    {
      "midi": 65,
      "hit": false,
      "t": 241250.00000000006,
      "d": 59.895833333343035,
      "v": 90
    },
    {
      "midi": 69,
      "hit": false,
      "t": 241250.00000000006,
      "d": 70.3125,
      "v": 88
    },
    {
      "midi": 60,
      "hit": false,
      "t": 241750.00000000006,
      "d": 65.10416666665697,
      "v": 88
    },
    {
      "midi": 65,
      "hit": false,
      "t": 241750.00000000006,
      "d": 70.3125,
      "v": 88
    },
    {
      "midi": 69,
      "hit": false,
      "t": 241750.00000000006,
      "d": 70.3125,
      "v": 88
    },
    {
      "midi": 60,
      "hit": false,
      "t": 242250.00000000006,
      "d": 57.291666666656965,
      "v": 88
    },
    {
      "midi": 65,
      "hit": false,
      "t": 242250.00000000006,
      "d": 57.291666666656965,
      "v": 90
    },
    {
      "midi": 69,
      "hit": false,
      "t": 242250.00000000006,
      "d": 67.70833333331393,
      "v": 86
    },
    {
      "midi": 60,
      "hit": false,
      "t": 242750.00000000003,
      "d": 41.666666666656965,
      "v": 86
    },
    {
      "midi": 65,
      "hit": false,
      "t": 242750.00000000003,
      "d": 59.89583333331393,
      "v": 86
    },
    {
      "midi": 69,
      "hit": false,
      "t": 242750.00000000003,
      "d": 80.72916666665697,
      "v": 93
    },
    {
      "midi": 64,
      "hit": false,
      "t": 243250.00000000003,
      "d": 65.10416666665697,
      "v": 98
    },
    {
      "midi": 70,
      "hit": false,
      "t": 243250.00000000003,
      "d": 70.3125,
      "v": 88
    },
    {
      "midi": 60,
      "hit": false,
      "t": 243250.00000000003,
      "d": 78.125,
      "v": 88
    },
    {
      "midi": 64,
      "hit": false,
      "t": 243750.00000000003,
      "d": 57.291666666656965,
      "v": 98
    },
    {
      "midi": 60,
      "hit": false,
      "t": 243750.00000000003,
      "d": 65.10416666665697,
      "v": 93
    },
    {
      "midi": 70,
      "hit": false,
      "t": 243750.00000000003,
      "d": 70.3125,
      "v": 80
    },
    {
      "midi": 64,
      "hit": false,
      "t": 244250.00000000003,
      "d": 57.291666666656965,
      "v": 98
    },
    {
      "midi": 60,
      "hit": false,
      "t": 244250.00000000003,
      "d": 67.70833333331393,
      "v": 98
    },
    {
      "midi": 70,
      "hit": false,
      "t": 244250.00000000003,
      "d": 72.91666666665697,
      "v": 88
    },
    {
      "midi": 64,
      "hit": false,
      "t": 244750.00000000003,
      "d": 57.291666666656965,
      "v": 90
    },
    {
      "midi": 60,
      "hit": false,
      "t": 244750.00000000003,
      "d": 59.89583333331393,
      "v": 88
    },
    {
      "midi": 70,
      "hit": false,
      "t": 244750.00000000003,
      "d": 67.70833333331393,
      "v": 80
    },
    {
      "midi": 64,
      "hit": false,
      "t": 245250,
      "d": 62.5,
      "v": 90
    },
    {
      "midi": 60,
      "hit": false,
      "t": 245250,
      "d": 75.52083333334303,
      "v": 93
    },
    {
      "midi": 70,
      "hit": false,
      "t": 245250,
      "d": 80.72916666668607,
      "v": 82
    },
    {
      "midi": 64,
      "hit": false,
      "t": 245750.00000000003,
      "d": 59.895833333343035,
      "v": 88
    },
    {
      "midi": 60,
      "hit": false,
      "t": 245750.00000000003,
      "d": 65.10416666668607,
      "v": 88
    },
    {
      "midi": 70,
      "hit": false,
      "t": 245750.00000000003,
      "d": 83.33333333334303,
      "v": 86
    },
    {
      "midi": 64,
      "hit": false,
      "t": 246250.00000000003,
      "d": 54.6875,
      "v": 90
    },
    {
      "midi": 60,
      "hit": false,
      "t": 246250.00000000003,
      "d": 59.895833333343035,
      "v": 88
    },
    {
      "midi": 70,
      "hit": false,
      "t": 246250.00000000003,
      "d": 75.52083333334303,
      "v": 86
    },
    {
      "midi": 64,
      "hit": false,
      "t": 246750.00000000003,
      "d": 59.895833333343035,
      "v": 90
    },
    {
      "midi": 60,
      "hit": false,
      "t": 246750.00000000003,
      "d": 67.70833333334303,
      "v": 86
    },
    {
      "midi": 70,
      "hit": false,
      "t": 246750.00000000003,
      "d": 80.72916666668607,
      "v": 86
    },
    {
      "midi": 64,
      "hit": false,
      "t": 247250.00000000006,
      "d": 57.291666666656965,
      "v": 98
    },
    {
      "midi": 60,
      "hit": false,
      "t": 247250.00000000006,
      "d": 65.10416666665697,
      "v": 98
    },
    {
      "midi": 70,
      "hit": false,
      "t": 247250.00000000006,
      "d": 80.72916666665697,
      "v": 88
    },
    {
      "midi": 64,
      "hit": false,
      "t": 247750.00000000006,
      "d": 59.895833333343035,
      "v": 93
    },
    {
      "midi": 60,
      "hit": false,
      "t": 247750.00000000006,
      "d": 67.70833333334303,
      "v": 90
    },
    {
      "midi": 70,
      "hit": false,
      "t": 247750.00000000006,
      "d": 75.52083333334303,
      "v": 86
    },
    {
      "midi": 64,
      "hit": false,
      "t": 248250.00000000006,
      "d": 54.6875,
      "v": 98
    },
    {
      "midi": 60,
      "hit": false,
      "t": 248250.00000000006,
      "d": 57.291666666656965,
      "v": 93
    },
    {
      "midi": 70,
      "hit": false,
      "t": 248250.00000000006,
      "d": 75.52083333331393,
      "v": 86
    },
    {
      "midi": 64,
      "hit": false,
      "t": 248750.00000000003,
      "d": 57.291666666656965,
      "v": 93
    },
    {
      "midi": 60,
      "hit": false,
      "t": 248750.00000000003,
      "d": 67.70833333331393,
      "v": 86
    },
    {
      "midi": 70,
      "hit": false,
      "t": 248750.00000000003,
      "d": 70.3124999999709,
      "v": 84
    },
    {
      "midi": 64,
      "hit": false,
      "t": 249250,
      "d": 54.6875,
      "v": 90
    },
    {
      "midi": 60,
      "hit": false,
      "t": 249250,
      "d": 70.3125,
      "v": 88
    },
    {
      "midi": 70,
      "hit": false,
      "t": 249250,
      "d": 72.91666666665697,
      "v": 84
    },
    {
      "midi": 64,
      "hit": false,
      "t": 249750,
      "d": 57.291666666656965,
      "v": 86
    },
    {
      "midi": 70,
      "hit": false,
      "t": 249750,
      "d": 59.89583333331393,
      "v": 78
    },
    {
      "midi": 60,
      "hit": false,
      "t": 249750,
      "d": 62.499999999970896,
      "v": 88
    },
    {
      "midi": 64,
      "hit": false,
      "t": 250249.99999999997,
      "d": 52.083333333343035,
      "v": 98
    },
    {
      "midi": 60,
      "hit": false,
      "t": 250249.99999999997,
      "d": 57.29166666668607,
      "v": 88
    },
    {
      "midi": 70,
      "hit": false,
      "t": 250249.99999999997,
      "d": 65.10416666668607,
      "v": 84
    },
    {
      "midi": 64,
      "hit": false,
      "t": 250750,
      "d": 273.4375,
      "v": 98
    },
    {
      "midi": 70,
      "hit": false,
      "t": 250750,
      "d": 276.04166666665697,
      "v": 88
    },
    {
      "midi": 60,
      "hit": false,
      "t": 250750,
      "d": 283.85416666665697,
      "v": 98
    },
    {
      "midi": 60,
      "hit": false,
      "t": 251250,
      "d": 62.5,
      "v": 90
    },
    {
      "midi": 65,
      "hit": false,
      "t": 251250,
      "d": 62.5,
      "v": 93
    },
    {
      "midi": 69,
      "hit": false,
      "t": 251250,
      "d": 78.125,
      "v": 90
    },
    {
      "midi": 65,
      "hit": false,
      "t": 251750,
      "d": 57.291666666656965,
      "v": 90
    },
    {
      "midi": 60,
      "hit": false,
      "t": 251750,
      "d": 65.10416666665697,
      "v": 88
    },
    {
      "midi": 69,
      "hit": false,
      "t": 251750,
      "d": 75.52083333331393,
      "v": 88
    },
    {
      "midi": 65,
      "hit": false,
      "t": 252249.99999999997,
      "d": 52.083333333343035,
      "v": 93
    },
    {
      "midi": 60,
      "hit": false,
      "t": 252249.99999999997,
      "d": 57.29166666668607,
      "v": 98
    },
    {
      "midi": 69,
      "hit": false,
      "t": 252249.99999999997,
      "d": 70.3125000000291,
      "v": 90
    },
    {
      "midi": 65,
      "hit": false,
      "t": 252750,
      "d": 203.125,
      "v": 102
    },
    {
      "midi": 60,
      "hit": false,
      "t": 252750,
      "d": 213.54166666665697,
      "v": 93
    },
    {
      "midi": 69,
      "hit": false,
      "t": 252750,
      "d": 216.14583333331393,
      "v": 86
    },
    {
      "midi": 60,
      "hit": false,
      "t": 252999.99999999997,
      "d": 96.35416666665697,
      "v": 84
    },
    {
      "midi": 63,
      "hit": false,
      "t": 252999.99999999997,
      "d": 96.35416666665697,
      "v": 90
    },
    {
      "midi": 69,
      "hit": false,
      "t": 252999.99999999997,
      "d": 96.35416666665697,
      "v": 90
    },
    {
      "midi": 63,
      "hit": false,
      "t": 253499.99999999997,
      "d": 406.25,
      "v": 93
    },
    {
      "midi": 69,
      "hit": false,
      "t": 253499.99999999997,
      "d": 414.0625,
      "v": 88
    },
    {
      "midi": 60,
      "hit": false,
      "t": 253499.99999999997,
      "d": 416.66666666665697,
      "v": 93
    },
    {
      "midi": 60,
      "hit": false,
      "t": 253999.99999999997,
      "d": 401.04166666665697,
      "v": 93
    },
    {
      "midi": 63,
      "hit": false,
      "t": 253999.99999999997,
      "d": 401.04166666665697,
      "v": 98
    },
    {
      "midi": 69,
      "hit": false,
      "t": 253999.99999999997,
      "d": 411.45833333331393,
      "v": 93
    },
    {
      "midi": 60,
      "hit": false,
      "t": 254499.99999999994,
      "d": 330.72916666665697,
      "v": 88
    },
    {
      "midi": 63,
      "hit": false,
      "t": 254499.99999999994,
      "d": 343.75,
      "v": 93
    },
    {
      "midi": 69,
      "hit": false,
      "t": 254499.99999999994,
      "d": 380.20833333334303,
      "v": 90
    },
    {
      "midi": 70,
      "hit": false,
      "t": 255249.99999999994,
      "d": 41.666666666656965,
      "v": 72
    },
    {
      "midi": 65,
      "hit": false,
      "t": 255249.99999999994,
      "d": 57.291666666656965,
      "v": 90
    },
    {
      "midi": 62,
      "hit": false,
      "t": 255249.99999999994,
      "d": 62.5,
      "v": 86
    },
    {
      "midi": 65,
      "hit": false,
      "t": 255749.99999999994,
      "d": 57.291666666656965,
      "v": 86
    },
    {
      "midi": 62,
      "hit": false,
      "t": 255749.99999999994,
      "d": 59.89583333331393,
      "v": 86
    },
    {
      "midi": 70,
      "hit": false,
      "t": 255749.99999999994,
      "d": 75.52083333331393,
      "v": 90
    },
    {
      "midi": 62,
      "hit": false,
      "t": 256249.9999999999,
      "d": 59.895833333343035,
      "v": 84
    },
    {
      "midi": 65,
      "hit": false,
      "t": 256249.9999999999,
      "d": 59.895833333343035,
      "v": 79
    },
    {
      "midi": 70,
      "hit": false,
      "t": 256249.9999999999,
      "d": 62.5,
      "v": 84
    },
    {
      "midi": 65,
      "hit": false,
      "t": 256749.9999999999,
      "d": 70.3125,
      "v": 93
    },
    {
      "midi": 62,
      "hit": false,
      "t": 256749.9999999999,
      "d": 72.91666666665697,
      "v": 86
    },
    {
      "midi": 70,
      "hit": false,
      "t": 256749.9999999999,
      "d": 78.125,
      "v": 88
    },
    {
      "midi": 62,
      "hit": false,
      "t": 257249.9999999999,
      "d": 62.5,
      "v": 90
    },
    {
      "midi": 65,
      "hit": false,
      "t": 257249.9999999999,
      "d": 62.5,
      "v": 90
    },
    {
      "midi": 70,
      "hit": false,
      "t": 257249.9999999999,
      "d": 70.3125,
      "v": 90
    },
    {
      "midi": 62,
      "hit": false,
      "t": 257749.9999999999,
      "d": 59.895833333343035,
      "v": 86
    },
    {
      "midi": 70,
      "hit": false,
      "t": 257749.9999999999,
      "d": 70.3125,
      "v": 88
    },
    {
      "midi": 65,
      "hit": false,
      "t": 257749.9999999999,
      "d": 75.52083333334303,
      "v": 93
    },
    {
      "midi": 68,
      "hit": false,
      "t": 258249.9999999999,
      "d": 65.10416666665697,
      "v": 86
    },
    {
      "midi": 62,
      "hit": false,
      "t": 258249.9999999999,
      "d": 67.70833333331393,
      "v": 84
    },
    {
      "midi": 70,
      "hit": false,
      "t": 258249.9999999999,
      "d": 85.9374999999709,
      "v": 93
    },
    {
      "midi": 68,
      "hit": false,
      "t": 258749.99999999988,
      "d": 75.52083333334303,
      "v": 86
    },
    {
      "midi": 62,
      "hit": false,
      "t": 258749.99999999988,
      "d": 78.125,
      "v": 88
    },
    {
      "midi": 70,
      "hit": false,
      "t": 258749.99999999988,
      "d": 80.72916666665697,
      "v": 93
    },
    {
      "midi": 67,
      "hit": false,
      "t": 259249.99999999988,
      "d": 59.895833333343035,
      "v": 86
    },
    {
      "midi": 63,
      "hit": false,
      "t": 259249.99999999988,
      "d": 75.52083333334303,
      "v": 84
    },
    {
      "midi": 70,
      "hit": false,
      "t": 259249.99999999988,
      "d": 75.52083333334303,
      "v": 90
    },
    {
      "midi": 67,
      "hit": false,
      "t": 259749.99999999988,
      "d": 67.70833333334303,
      "v": 88
    },
    {
      "midi": 70,
      "hit": false,
      "t": 259749.99999999988,
      "d": 67.70833333334303,
      "v": 84
    },
    {
      "midi": 63,
      "hit": false,
      "t": 259749.99999999988,
      "d": 70.3125,
      "v": 84
    },
    {
      "midi": 67,
      "hit": false,
      "t": 260249.99999999988,
      "d": 67.70833333334303,
      "v": 88
    },
    {
      "midi": 63,
      "hit": false,
      "t": 260249.99999999988,
      "d": 78.125,
      "v": 84
    },
    {
      "midi": 70,
      "hit": false,
      "t": 260249.99999999988,
      "d": 78.125,
      "v": 90
    },
    {
      "midi": 67,
      "hit": false,
      "t": 260749.99999999988,
      "d": 72.91666666665697,
      "v": 88
    },
    {
      "midi": 63,
      "hit": false,
      "t": 260749.99999999988,
      "d": 75.52083333331393,
      "v": 84
    },
    {
      "midi": 70,
      "hit": false,
      "t": 260749.99999999988,
      "d": 80.72916666665697,
      "v": 88
    },
    {
      "midi": 67,
      "hit": false,
      "t": 261249.99999999988,
      "d": 67.70833333334303,
      "v": 88
    },
    {
      "midi": 63,
      "hit": false,
      "t": 261249.99999999988,
      "d": 70.3125,
      "v": 84
    },
    {
      "midi": 70,
      "hit": false,
      "t": 261249.99999999988,
      "d": 75.52083333334303,
      "v": 88
    },
    {
      "midi": 63,
      "hit": false,
      "t": 261749.99999999988,
      "d": 57.291666666656965,
      "v": 84
    },
    {
      "midi": 70,
      "hit": false,
      "t": 261749.99999999988,
      "d": 62.5,
      "v": 86
    },
    {
      "midi": 67,
      "hit": false,
      "t": 261749.99999999988,
      "d": 67.70833333334303,
      "v": 88
    },
    {
      "midi": 67,
      "hit": false,
      "t": 262249.9999999999,
      "d": 52.08333333331393,
      "v": 82
    },
    {
      "midi": 63,
      "hit": false,
      "t": 262249.9999999999,
      "d": 62.5,
      "v": 86
    },
    {
      "midi": 70,
      "hit": false,
      "t": 262249.9999999999,
      "d": 62.5,
      "v": 88
    },
    {
      "midi": 67,
      "hit": false,
      "t": 262749.9999999999,
      "d": 59.89583333331393,
      "v": 86
    },
    {
      "midi": 63,
      "hit": false,
      "t": 262749.9999999999,
      "d": 70.3125,
      "v": 82
    },
    {
      "midi": 70,
      "hit": false,
      "t": 262749.9999999999,
      "d": 83.33333333331393,
      "v": 88
    },
    {
      "midi": 72,
      "hit": false,
      "t": 263249.9999999999,
      "d": 70.3125,
      "v": 88
    },
    {
      "midi": 69,
      "hit": false,
      "t": 263249.9999999999,
      "d": 78.125,
      "v": 86
    },
    {
      "midi": 63,
      "hit": false,
      "t": 263249.9999999999,
      "d": 83.33333333331393,
      "v": 84
    },
    {
      "midi": 69,
      "hit": false,
      "t": 263749.9999999999,
      "d": 67.70833333331393,
      "v": 86
    },
    {
      "midi": 63,
      "hit": false,
      "t": 263749.9999999999,
      "d": 75.52083333331393,
      "v": 88
    },
    {
      "midi": 72,
      "hit": false,
      "t": 263749.9999999999,
      "d": 88.54166666662786,
      "v": 88
    },
    {
      "midi": 63,
      "hit": false,
      "t": 264249.9999999998,
      "d": 70.3125,
      "v": 84
    },
    {
      "midi": 69,
      "hit": false,
      "t": 264249.9999999998,
      "d": 70.3125,
      "v": 82
    },
    {
      "midi": 72,
      "hit": false,
      "t": 264249.9999999998,
      "d": 75.52083333331393,
      "v": 88
    },
    {
      "midi": 69,
      "hit": false,
      "t": 264749.9999999998,
      "d": 72.91666666668607,
      "v": 84
    },
    {
      "midi": 63,
      "hit": false,
      "t": 264749.9999999998,
      "d": 78.125,
      "v": 84
    },
    {
      "midi": 72,
      "hit": false,
      "t": 264749.9999999998,
      "d": 91.14583333331393,
      "v": 86
    },
    {
      "midi": 63,
      "hit": false,
      "t": 265249.9999999998,
      "d": 67.70833333331393,
      "v": 84
    },
    {
      "midi": 69,
      "hit": false,
      "t": 265249.9999999998,
      "d": 72.91666666662786,
      "v": 86
    },
    {
      "midi": 72,
      "hit": false,
      "t": 265249.9999999998,
      "d": 75.52083333331393,
      "v": 88
    },
    {
      "midi": 63,
      "hit": false,
      "t": 265749.9999999998,
      "d": 59.89583333331393,
      "v": 80
    },
    {
      "midi": 69,
      "hit": false,
      "t": 265749.9999999998,
      "d": 72.91666666662786,
      "v": 86
    },
    {
      "midi": 72,
      "hit": false,
      "t": 265749.9999999998,
      "d": 72.91666666662786,
      "v": 90
    },
    {
      "midi": 63,
      "hit": false,
      "t": 266249.99999999977,
      "d": 70.3125,
      "v": 84
    },
    {
      "midi": 72,
      "hit": false,
      "t": 266249.99999999977,
      "d": 70.3125,
      "v": 88
    },
    {
      "midi": 69,
      "hit": false,
      "t": 266249.99999999977,
      "d": 72.91666666668607,
      "v": 86
    },
    {
      "midi": 63,
      "hit": false,
      "t": 266749.99999999977,
      "d": 62.5,
      "v": 84
    },
    {
      "midi": 69,
      "hit": false,
      "t": 266749.99999999977,
      "d": 65.10416666668607,
      "v": 86
    },
    {
      "midi": 72,
      "hit": false,
      "t": 266749.99999999977,
      "d": 75.52083333337214,
      "v": 86
    },
    {
      "midi": 62,
      "hit": false,
      "t": 267249.9999999998,
      "d": 65.10416666668607,
      "v": 82
    },
    {
      "midi": 65,
      "hit": false,
      "t": 267249.9999999998,
      "d": 67.70833333337214,
      "v": 88
    },
    {
      "midi": 70,
      "hit": false,
      "t": 267249.9999999998,
      "d": 70.31250000005821,
      "v": 84
    },
    {
      "midi": 65,
      "hit": false,
      "t": 267749.9999999999,
      "d": 54.6875,
      "v": 80
    },
    {
      "midi": 62,
      "hit": false,
      "t": 267749.9999999999,
      "d": 62.5,
      "v": 86
    },
    {
      "midi": 70,
      "hit": false,
      "t": 267749.9999999999,
      "d": 65.10416666668607,
      "v": 86
    },
    {
      "midi": 65,
      "hit": false,
      "t": 268249.9999999999,
      "d": 59.89583333331393,
      "v": 88
    },
    {
      "midi": 62,
      "hit": false,
      "t": 268249.9999999999,
      "d": 62.5,
      "v": 86
    },
    {
      "midi": 70,
      "hit": false,
      "t": 268249.9999999999,
      "d": 67.70833333331393,
      "v": 88
    },
    {
      "midi": 62,
      "hit": false,
      "t": 268749.9999999999,
      "d": 177.08333333331393,
      "v": 88
    },
    {
      "midi": 65,
      "hit": false,
      "t": 268749.9999999999,
      "d": 195.3125,
      "v": 88
    },
    {
      "midi": 70,
      "hit": false,
      "t": 268749.9999999999,
      "d": 210.9375,
      "v": 90
    },
    {
      "midi": 65,
      "hit": false,
      "t": 268999.9999999999,
      "d": 67.70833333331393,
      "v": 88
    },
    {
      "midi": 62,
      "hit": false,
      "t": 268999.9999999999,
      "d": 75.52083333331393,
      "v": 98
    },
    {
      "midi": 70,
      "hit": false,
      "t": 268999.9999999999,
      "d": 78.125,
      "v": 82
    },
    {
      "midi": 63,
      "hit": false,
      "t": 269499.9999999999,
      "d": 380.20833333331393,
      "v": 90
    },
    {
      "midi": 69,
      "hit": false,
      "t": 269499.9999999999,
      "d": 388.02083333331393,
      "v": 75
    },
    {
      "midi": 72,
      "hit": false,
      "t": 269499.9999999999,
      "d": 393.22916666662786,
      "v": 86
    },
    {
      "midi": 72,
      "hit": false,
      "t": 269999.9999999998,
      "d": 380.20833333331393,
      "v": 86
    },
    {
      "midi": 63,
      "hit": false,
      "t": 269999.9999999998,
      "d": 390.625,
      "v": 90
    },
    {
      "midi": 69,
      "hit": false,
      "t": 269999.9999999998,
      "d": 414.0625,
      "v": 88
    },
    {
      "midi": 69,
      "hit": false,
      "t": 270499.9999999998,
      "d": 390.625,
      "v": 90
    },
    {
      "midi": 63,
      "hit": false,
      "t": 270499.9999999998,
      "d": 393.22916666668607,
      "v": 98
    },
    {
      "midi": 72,
      "hit": false,
      "t": 270499.9999999998,
      "d": 414.0625,
      "v": 86
    },
    {
      "midi": 65,
      "hit": false,
      "t": 271249.9999999998,
      "d": 65.10416666668607,
      "v": 86
    },
    {
      "midi": 62,
      "hit": false,
      "t": 271249.9999999998,
      "d": 72.91666666668607,
      "v": 82
    },
    {
      "midi": 70,
      "hit": false,
      "t": 271249.9999999998,
      "d": 72.91666666668607,
      "v": 82
    },
    {
      "midi": 62,
      "hit": false,
      "t": 271749.9999999998,
      "d": 72.91666666668607,
      "v": 88
    },
    {
      "midi": 65,
      "hit": false,
      "t": 271749.9999999998,
      "d": 72.91666666668607,
      "v": 88
    },
    {
      "midi": 70,
      "hit": false,
      "t": 271749.9999999998,
      "d": 72.91666666668607,
      "v": 90
    },
    {
      "midi": 62,
      "hit": false,
      "t": 272249.9999999998,
      "d": 54.6875,
      "v": 84
    },
    {
      "midi": 65,
      "hit": false,
      "t": 272249.9999999998,
      "d": 67.70833333331393,
      "v": 98
    },
    {
      "midi": 70,
      "hit": false,
      "t": 272249.9999999998,
      "d": 72.91666666662786,
      "v": 90
    },
    {
      "midi": 62,
      "hit": false,
      "t": 272749.99999999977,
      "d": 62.5,
      "v": 88
    },
    {
      "midi": 65,
      "hit": false,
      "t": 272749.99999999977,
      "d": 65.10416666668607,
      "v": 86
    },
    {
      "midi": 70,
      "hit": false,
      "t": 272749.99999999977,
      "d": 78.125,
      "v": 86
    },
    {
      "midi": 62,
      "hit": false,
      "t": 273249.99999999977,
      "d": 57.29166666668607,
      "v": 88
    },
    {
      "midi": 70,
      "hit": false,
      "t": 273249.99999999977,
      "d": 57.29166666668607,
      "v": 86
    },
    {
      "midi": 65,
      "hit": false,
      "t": 273249.99999999977,
      "d": 65.10416666668607,
      "v": 86
    },
    {
      "midi": 62,
      "hit": false,
      "t": 273749.99999999977,
      "d": 62.5,
      "v": 88
    },
    {
      "midi": 70,
      "hit": false,
      "t": 273749.99999999977,
      "d": 70.3125,
      "v": 88
    },
    {
      "midi": 65,
      "hit": false,
      "t": 273749.99999999977,
      "d": 75.52083333331393,
      "v": 88
    },
    {
      "midi": 68,
      "hit": false,
      "t": 274249.99999999977,
      "d": 72.91666666668607,
      "v": 82
    },
    {
      "midi": 70,
      "hit": false,
      "t": 274249.99999999977,
      "d": 75.52083333337214,
      "v": 88
    },
    {
      "midi": 62,
      "hit": false,
      "t": 274249.99999999977,
      "d": 78.12500000005821,
      "v": 82
    },
    {
      "midi": 70,
      "hit": false,
      "t": 274749.9999999998,
      "d": 67.70833333331393,
      "v": 88
    },
    {
      "midi": 68,
      "hit": false,
      "t": 274749.9999999998,
      "d": 80.72916666662786,
      "v": 86
    },
    {
      "midi": 62,
      "hit": false,
      "t": 274749.9999999998,
      "d": 83.33333333331393,
      "v": 90
    },
    {
      "midi": 67,
      "hit": false,
      "t": 275249.9999999998,
      "d": 65.10416666668607,
      "v": 88
    },
    {
      "midi": 63,
      "hit": false,
      "t": 275249.9999999998,
      "d": 78.125,
      "v": 82
    },
    {
      "midi": 70,
      "hit": false,
      "t": 275249.9999999998,
      "d": 80.72916666668607,
      "v": 90
    },
    {
      "midi": 67,
      "hit": false,
      "t": 275749.9999999998,
      "d": 59.89583333331393,
      "v": 84
    },
    {
      "midi": 70,
      "hit": false,
      "t": 275749.9999999998,
      "d": 62.5,
      "v": 86
    },
    {
      "midi": 63,
      "hit": false,
      "t": 275749.9999999998,
      "d": 70.3125,
      "v": 84
    },
    {
      "midi": 67,
      "hit": false,
      "t": 276249.9999999998,
      "d": 62.5,
      "v": 86
    },
    {
      "midi": 63,
      "hit": false,
      "t": 276249.9999999998,
      "d": 65.10416666668607,
      "v": 86
    },
    {
      "midi": 70,
      "hit": false,
      "t": 276249.9999999998,
      "d": 75.52083333337214,
      "v": 86
    },
    {
      "midi": 70,
      "hit": false,
      "t": 276749.9999999999,
      "d": 190.10416666668607,
      "v": 86
    },
    {
      "midi": 63,
      "hit": false,
      "t": 276749.9999999999,
      "d": 192.70833333337214,
      "v": 84
    },
    {
      "midi": 67,
      "hit": false,
      "t": 276749.9999999999,
      "d": 192.70833333337214,
      "v": 86
    },
    {
      "midi": 67,
      "hit": false,
      "t": 276999.99999999994,
      "d": 67.70833333331393,
      "v": 88
    },
    {
      "midi": 70,
      "hit": false,
      "t": 276999.99999999994,
      "d": 70.3125,
      "v": 88
    },
    {
      "midi": 63,
      "hit": false,
      "t": 276999.99999999994,
      "d": 75.52083333331393,
      "v": 84
    },
    {
      "midi": 63,
      "hit": false,
      "t": 277499.99999999994,
      "d": 416.66666666668607,
      "v": 88
    },
    {
      "midi": 67,
      "hit": false,
      "t": 277499.99999999994,
      "d": 421.875,
      "v": 88
    },
    {
      "midi": 70,
      "hit": false,
      "t": 277499.99999999994,
      "d": 450.52083333331393,
      "v": 88
    },
    {
      "midi": 63,
      "hit": false,
      "t": 277999.99999999994,
      "d": 416.66666666668607,
      "v": 88
    },
    {
      "midi": 67,
      "hit": false,
      "t": 277999.99999999994,
      "d": 421.875,
      "v": 88
    },
    {
      "midi": 70,
      "hit": false,
      "t": 277999.99999999994,
      "d": 450.52083333331393,
      "v": 88
    },
    {
      "midi": 63,
      "hit": false,
      "t": 278499.99999999994,
      "d": 390.625,
      "v": 98
    },
    {
      "midi": 67,
      "hit": false,
      "t": 278499.99999999994,
      "d": 395.83333333331393,
      "v": 88
    },
    {
      "midi": 70,
      "hit": false,
      "t": 278499.99999999994,
      "d": 455.72916666662786,
      "v": 78
    },
    {
      "midi": 65,
      "hit": false,
      "t": 279249.9999999999,
      "d": 72.91666666668607,
      "v": 88
    },
    {
      "midi": 62,
      "hit": false,
      "t": 279249.9999999999,
      "d": 75.52083333337214,
      "v": 88
    },
    {
      "midi": 70,
      "hit": false,
      "t": 279249.9999999999,
      "d": 83.33333333337214,
      "v": 88
    },
    {
      "midi": 62,
      "hit": false,
      "t": 279749.99999999994,
      "d": 70.3125,
      "v": 90
    },
    {
      "midi": 65,
      "hit": false,
      "t": 279749.99999999994,
      "d": 72.91666666668607,
      "v": 86
    },
    {
      "midi": 70,
      "hit": false,
      "t": 279749.99999999994,
      "d": 80.72916666668607,
      "v": 90
    },
    {
      "midi": 62,
      "hit": false,
      "t": 280249.99999999994,
      "d": 70.3125,
      "v": 88
    },
    {
      "midi": 65,
      "hit": false,
      "t": 280249.99999999994,
      "d": 72.91666666668607,
      "v": 80
    },
    {
      "midi": 70,
      "hit": false,
      "t": 280249.99999999994,
      "d": 78.125,
      "v": 84
    },
    {
      "midi": 62,
      "hit": false,
      "t": 280749.99999999994,
      "d": 122.39583333331393,
      "v": 86
    },
    {
      "midi": 65,
      "hit": false,
      "t": 280749.99999999994,
      "d": 156.25,
      "v": 75
    },
    {
      "midi": 70,
      "hit": false,
      "t": 280749.99999999994,
      "d": 184.89583333331393,
      "v": 80
    },
    {
      "midi": 69,
      "hit": false,
      "t": 280999.99999999994,
      "d": 88.54166666668607,
      "v": 88
    },
    {
      "midi": 63,
      "hit": false,
      "t": 280999.99999999994,
      "d": 96.35416666668607,
      "v": 88
    },
    {
      "midi": 72,
      "hit": false,
      "t": 280999.99999999994,
      "d": 125,
      "v": 88
    },
    {
      "midi": 72,
      "hit": false,
      "t": 281499.99999999994,
      "d": 395.83333333331393,
      "v": 88
    },
    {
      "midi": 63,
      "hit": false,
      "t": 281499.99999999994,
      "d": 398.4375,
      "v": 98
    },
    {
      "midi": 69,
      "hit": false,
      "t": 281499.99999999994,
      "d": 406.25,
      "v": 88
    },
    {
      "midi": 72,
      "hit": false,
      "t": 281999.99999999994,
      "d": 380.20833333331393,
      "v": 93
    },
    {
      "midi": 63,
      "hit": false,
      "t": 281999.99999999994,
      "d": 403.64583333331393,
      "v": 98
    },
    {
      "midi": 69,
      "hit": false,
      "t": 281999.99999999994,
      "d": 408.85416666662786,
      "v": 88
    },
    {
      "midi": 63,
      "hit": false,
      "t": 282499.9999999999,
      "d": 447.91666666668607,
      "v": 93
    },
    {
      "midi": 69,
      "hit": false,
      "t": 282499.9999999999,
      "d": 466.14583333337214,
      "v": 88
    },
    {
      "midi": 72,
      "hit": false,
      "t": 282499.9999999999,
      "d": 484.3750000000582,
      "v": 90
    },
    {
      "midi": 65,
      "hit": false,
      "t": 283249.99999999994,
      "d": 65.10416666668607,
      "v": 88
    },
    {
      "midi": 62,
      "hit": false,
      "t": 283249.99999999994,
      "d": 85.9375,
      "v": 86
    },
    {
      "midi": 70,
      "hit": false,
      "t": 283249.99999999994,
      "d": 98.95833333331393,
      "v": 86
    },
    {
      "midi": 65,
      "hit": false,
      "t": 283749.99999999994,
      "d": 72.91666666668607,
      "v": 84
    },
    {
      "midi": 62,
      "hit": false,
      "t": 283749.99999999994,
      "d": 80.72916666668607,
      "v": 86
    },
    {
      "midi": 70,
      "hit": false,
      "t": 283749.99999999994,
      "d": 85.9375,
      "v": 90
    },
    {
      "midi": 62,
      "hit": false,
      "t": 284249.99999999994,
      "d": 75.52083333331393,
      "v": 82
    },
    {
      "midi": 65,
      "hit": false,
      "t": 284249.99999999994,
      "d": 75.52083333331393,
      "v": 86
    },
    {
      "midi": 70,
      "hit": false,
      "t": 284249.99999999994,
      "d": 91.14583333331393,
      "v": 90
    },
    {
      "midi": 65,
      "hit": false,
      "t": 284749.99999999994,
      "d": 151.04166666668607,
      "v": 88
    },
    {
      "midi": 62,
      "hit": false,
      "t": 284749.99999999994,
      "d": 166.66666666668607,
      "v": 88
    },
    {
      "midi": 70,
      "hit": false,
      "t": 284749.99999999994,
      "d": 184.89583333337214,
      "v": 88
    },
    {
      "midi": 62,
      "hit": false,
      "t": 285000,
      "d": 132.8125,
      "v": 78
    },
    {
      "midi": 65,
      "hit": false,
      "t": 285000,
      "d": 132.8125,
      "v": 78
    },
    {
      "midi": 70,
      "hit": false,
      "t": 285000,
      "d": 153.64583333331393,
      "v": 84
    },
    {
      "midi": 67,
      "hit": false,
      "t": 285500,
      "d": 364.58333333331393,
      "v": 98
    },
    {
      "midi": 63,
      "hit": false,
      "t": 285500,
      "d": 372.39583333331393,
      "v": 98
    },
    {
      "midi": 70,
      "hit": false,
      "t": 285500,
      "d": 395.83333333331393,
      "v": 88
    },
    {
      "midi": 67,
      "hit": false,
      "t": 286000,
      "d": 385.41666666668607,
      "v": 98
    },
    {
      "midi": 63,
      "hit": false,
      "t": 286000,
      "d": 398.4375,
      "v": 98
    },
    {
      "midi": 70,
      "hit": false,
      "t": 286000,
      "d": 419.27083333331393,
      "v": 90
    },
    {
      "midi": 63,
      "hit": false,
      "t": 286500,
      "d": 304.6875,
      "v": 98
    },
    {
      "midi": 67,
      "hit": false,
      "t": 286500,
      "d": 330.72916666668607,
      "v": 88
    },
    {
      "midi": 70,
      "hit": false,
      "t": 286500,
      "d": 434.89583333337214,
      "v": 84
    },
    {
      "midi": 62,
      "hit": false,
      "t": 287250.00000000006,
      "d": 70.3125,
      "v": 86
    },
    {
      "midi": 65,
      "hit": false,
      "t": 287250.00000000006,
      "d": 70.3125,
      "v": 93
    },
    {
      "midi": 70,
      "hit": false,
      "t": 287250.00000000006,
      "d": 85.9375,
      "v": 80
    },
    {
      "midi": 62,
      "hit": false,
      "t": 287750.00000000006,
      "d": 65.10416666668607,
      "v": 86
    },
    {
      "midi": 65,
      "hit": false,
      "t": 287750.00000000006,
      "d": 67.70833333337214,
      "v": 88
    },
    {
      "midi": 70,
      "hit": false,
      "t": 287750.00000000006,
      "d": 72.91666666668607,
      "v": 90
    },
    {
      "midi": 62,
      "hit": false,
      "t": 288250.00000000006,
      "d": 70.3125,
      "v": 90
    },
    {
      "midi": 65,
      "hit": false,
      "t": 288250.00000000006,
      "d": 70.3125,
      "v": 84
    },
    {
      "midi": 70,
      "hit": false,
      "t": 288250.00000000006,
      "d": 80.72916666668607,
      "v": 88
    },
    {
      "midi": 62,
      "hit": false,
      "t": 288750.00000000006,
      "d": 151.04166666668607,
      "v": 93
    },
    {
      "midi": 65,
      "hit": false,
      "t": 288750.00000000006,
      "d": 164.0625,
      "v": 82
    },
    {
      "midi": 70,
      "hit": false,
      "t": 288750.00000000006,
      "d": 182.29166666668607,
      "v": 86
    },
    {
      "midi": 63,
      "hit": false,
      "t": 289000.00000000006,
      "d": 132.8125,
      "v": 93
    },
    {
      "midi": 69,
      "hit": false,
      "t": 289000.00000000006,
      "d": 148.4375,
      "v": 93
    },
    {
      "midi": 72,
      "hit": false,
      "t": 289000.00000000006,
      "d": 148.4375,
      "v": 93
    },
    {
      "midi": 72,
      "hit": false,
      "t": 289500.00000000006,
      "d": 533.8541666666861,
      "v": 90
    },
    {
      "midi": 63,
      "hit": false,
      "t": 289500.00000000006,
      "d": 559.8958333333721,
      "v": 98
    },
    {
      "midi": 69,
      "hit": false,
      "t": 289500.00000000006,
      "d": 562.5000000000582,
      "v": 88
    },
    {
      "midi": 72,
      "hit": false,
      "t": 290500.0000000001,
      "d": 588.5416666666861,
      "v": 86
    },
    {
      "midi": 69,
      "hit": false,
      "t": 290500.0000000001,
      "d": 604.1666666666861,
      "v": 88
    },
    {
      "midi": 63,
      "hit": false,
      "t": 290500.0000000001,
      "d": 627.6041666666861,
      "v": 93
    },
    {
      "midi": 72,
      "hit": false,
      "t": 291500.0000000001,
      "d": 567.7083333333139,
      "v": 93
    },
    {
      "midi": 69,
      "hit": false,
      "t": 291500.0000000001,
      "d": 575.5208333333139,
      "v": 90
    },
    {
      "midi": 63,
      "hit": false,
      "t": 291500.0000000001,
      "d": 598.9583333333139,
      "v": 98
    },
    {
      "midi": 69,
      "hit": false,
      "t": 292500.0000000001,
      "d": 473.95833333331393,
      "v": 88
    },
    {
      "midi": 63,
      "hit": false,
      "t": 292500.0000000001,
      "d": 497.39583333331393,
      "v": 93
    },
    {
      "midi": 72,
      "hit": false,
      "t": 292500.0000000001,
      "d": 531.25,
      "v": 93
    },
    {
      "midi": 62,
      "hit": false,
      "t": 293250.0000000001,
      "d": 62.5,
      "v": 98
    },
    {
      "midi": 65,
      "hit": false,
      "t": 293250.0000000001,
      "d": 62.5,
      "v": 90
    },
    {
      "midi": 70,
      "hit": false,
      "t": 293250.0000000001,
      "d": 78.125,
      "v": 86
    },
    {
      "midi": 65,
      "hit": false,
      "t": 293750.0000000001,
      "d": 62.5,
      "v": 86
    },
    {
      "midi": 62,
      "hit": false,
      "t": 293750.0000000001,
      "d": 70.3125,
      "v": 82
    },
    {
      "midi": 70,
      "hit": false,
      "t": 293750.0000000001,
      "d": 80.72916666668607,
      "v": 93
    },
    {
      "midi": 65,
      "hit": false,
      "t": 294250.0000000001,
      "d": 62.5,
      "v": 88
    },
    {
      "midi": 62,
      "hit": false,
      "t": 294250.0000000001,
      "d": 75.52083333331393,
      "v": 86
    },
    {
      "midi": 70,
      "hit": false,
      "t": 294250.0000000001,
      "d": 93.75,
      "v": 93
    },
    {
      "midi": 62,
      "hit": false,
      "t": 294750.0000000001,
      "d": 216.14583333331393,
      "v": 88
    },
    {
      "midi": 65,
      "hit": false,
      "t": 294750.0000000001,
      "d": 218.75,
      "v": 98
    },
    {
      "midi": 70,
      "hit": false,
      "t": 294750.0000000001,
      "d": 234.375,
      "v": 90
    },
    {
      "midi": 65,
      "hit": false,
      "t": 295000.0000000001,
      "d": 57.29166666668607,
      "v": 88
    },
    {
      "midi": 62,
      "hit": false,
      "t": 295000.0000000001,
      "d": 59.89583333337214,
      "v": 88
    },
    {
      "midi": 70,
      "hit": false,
      "t": 295000.0000000001,
      "d": 78.12500000005821,
      "v": 88
    },
    {
      "midi": 65,
      "hit": false,
      "t": 295500.0000000002,
      "d": 65.10416666668607,
      "v": 93
    },
    {
      "midi": 62,
      "hit": false,
      "t": 295500.0000000002,
      "d": 83.33333333337214,
      "v": 102
    },
    {
      "midi": 70,
      "hit": false,
      "t": 295500.0000000002,
      "d": 96.35416666668607,
      "v": 98
    },
    {
      "midi": 62,
      "hit": false,
      "t": 296000.0000000002,
      "d": 106.77083333331393,
      "v": 98
    },
    {
      "midi": 65,
      "hit": false,
      "t": 296000.0000000002,
      "d": 109.375,
      "v": 88
    },
    {
      "midi": 70,
      "hit": false,
      "t": 296000.0000000002,
      "d": 158.85416666668607,
      "v": 93
    }
  ]
}