{
  "jsonPath": "Unknown/Unknown/Jennifer Brown/find-me-an-angel.json",
  "path": "Unknown\\Unknown\\Jennifer Brown\\Find Me An Angel.mid",
  "name": "Find Me An Angel",
  "difficulty": "Advanced",
  "bpm": 100,
  "notes": [
    {
      "midi": 56,
      "hit": false,
      "t": 3157.8959999999997,
      "d": 1197.917145833334,
      "v": 59
    },
    {
      "midi": 51,
      "hit": false,
      "t": 3157.8959999999997,
      "d": 1208.8820625000008,
      "v": 57
    },
    {
      "midi": 53,
      "hit": false,
      "t": 3157.8959999999997,
      "d": 1222.5882083333345,
      "v": 70
    },
    {
      "midi": 44,
      "hit": false,
      "t": 3157.8959999999997,
      "d": 2768.6414583333344,
      "v": 59
    },
    {
      "midi": 37,
      "hit": false,
      "t": 3157.8959999999997,
      "d": 2774.1239166666674,
      "v": 60
    },
    {
      "midi": 56,
      "hit": false,
      "t": 3157.8959999999997,
      "d": 1197.917145833334,
      "v": 59
    },
    {
      "midi": 51,
      "hit": false,
      "t": 3157.8959999999997,
      "d": 1208.8820625000008,
      "v": 57
    },
    {
      "midi": 53,
      "hit": false,
      "t": 3157.8959999999997,
      "d": 1222.5882083333345,
      "v": 70
    },
    {
      "midi": 44,
      "hit": false,
      "t": 3157.8959999999997,
      "d": 2768.6414583333344,
      "v": 59
    },
    {
      "midi": 37,
      "hit": false,
      "t": 3157.8959999999997,
      "d": 2774.1239166666674,
      "v": 60
    },
    {
      "midi": 53,
      "hit": false,
      "t": 4736.844000000001,
      "d": 1093.7504374999999,
      "v": 58
    },
    {
      "midi": 49,
      "hit": false,
      "t": 4736.844000000001,
      "d": 1101.9741249999997,
      "v": 2
    },
    {
      "midi": 56,
      "hit": false,
      "t": 4736.844000000001,
      "d": 1101.9741249999997,
      "v": 56
    },
    {
      "midi": 51,
      "hit": false,
      "t": 4736.844000000001,
      "d": 1121.1627291666664,
      "v": 18
    },
    {
      "midi": 61,
      "hit": false,
      "t": 4736.844000000001,
      "d": 1175.9873124999995,
      "v": 43
    },
    {
      "midi": 53,
      "hit": false,
      "t": 4736.844000000001,
      "d": 1093.7504374999999,
      "v": 58
    },
    {
      "midi": 49,
      "hit": false,
      "t": 4736.844000000001,
      "d": 1101.9741249999997,
      "v": 2
    },
    {
      "midi": 56,
      "hit": false,
      "t": 4736.844000000001,
      "d": 1101.9741249999997,
      "v": 56
    },
    {
      "midi": 51,
      "hit": false,
      "t": 4736.844000000001,
      "d": 1121.1627291666664,
      "v": 18
    },
    {
      "midi": 61,
      "hit": false,
      "t": 4736.844000000001,
      "d": 1175.9873124999995,
      "v": 43
    },
    {
      "midi": 49,
      "hit": false,
      "t": 6315.792,
      "d": 984.1012708333328,
      "v": 57
    },
    {
      "midi": 54,
      "hit": false,
      "t": 6315.792,
      "d": 1025.219708333333,
      "v": 61
    },
    {
      "midi": 56,
      "hit": false,
      "t": 6315.792,
      "d": 1041.6670833333328,
      "v": 60
    },
    {
      "midi": 61,
      "hit": false,
      "t": 6315.792,
      "d": 1093.7504374999999,
      "v": 57
    },
    {
      "midi": 42,
      "hit": false,
      "t": 6315.792,
      "d": 2604.1677083333316,
      "v": 73
    },
    {
      "midi": 49,
      "hit": false,
      "t": 6315.792,
      "d": 984.1012708333328,
      "v": 57
    },
    {
      "midi": 54,
      "hit": false,
      "t": 6315.792,
      "d": 1025.219708333333,
      "v": 61
    },
    {
      "midi": 56,
      "hit": false,
      "t": 6315.792,
      "d": 1041.6670833333328,
      "v": 60
    },
    {
      "midi": 61,
      "hit": false,
      "t": 6315.792,
      "d": 1093.7504374999999,
      "v": 57
    },
    {
      "midi": 42,
      "hit": false,
      "t": 6315.792,
      "d": 2604.1677083333316,
      "v": 73
    },
    {
      "midi": 54,
      "hit": false,
      "t": 8421.056,
      "d": 235.74570833333382,
      "v": 46
    },
    {
      "midi": 56,
      "hit": false,
      "t": 8421.056,
      "d": 238.48693749999984,
      "v": 67
    },
    {
      "midi": 49,
      "hit": false,
      "t": 8421.056,
      "d": 348.136104166666,
      "v": 48
    },
    {
      "midi": 54,
      "hit": false,
      "t": 8421.056,
      "d": 235.74570833333382,
      "v": 46
    },
    {
      "midi": 56,
      "hit": false,
      "t": 8421.056,
      "d": 238.48693749999984,
      "v": 67
    },
    {
      "midi": 49,
      "hit": false,
      "t": 8421.056,
      "d": 348.136104166666,
      "v": 48
    },
    {
      "midi": 58,
      "hit": false,
      "t": 8771.933333333332,
      "d": 263.15799999999945,
      "v": 63
    },
    {
      "midi": 58,
      "hit": false,
      "t": 8771.933333333332,
      "d": 263.15799999999945,
      "v": 63
    },
    {
      "midi": 61,
      "hit": false,
      "t": 8947.372,
      "d": 79.49564583333267,
      "v": 44
    },
    {
      "midi": 61,
      "hit": false,
      "t": 8947.372,
      "d": 79.49564583333267,
      "v": 44
    },
    {
      "midi": 49,
      "hit": false,
      "t": 9473.687999999998,
      "d": 704.4958958333336,
      "v": 60
    },
    {
      "midi": 61,
      "hit": false,
      "t": 9473.687999999998,
      "d": 1033.4433958333339,
      "v": 52
    },
    {
      "midi": 56,
      "hit": false,
      "t": 9473.687999999998,
      "d": 1060.8556875000013,
      "v": 63
    },
    {
      "midi": 44,
      "hit": false,
      "t": 9473.687999999998,
      "d": 2793.312520833335,
      "v": 58
    },
    {
      "midi": 37,
      "hit": false,
      "t": 9473.687999999998,
      "d": 2867.3257083333356,
      "v": 57
    },
    {
      "midi": 49,
      "hit": false,
      "t": 9473.687999999998,
      "d": 704.4958958333336,
      "v": 60
    },
    {
      "midi": 61,
      "hit": false,
      "t": 9473.687999999998,
      "d": 1033.4433958333339,
      "v": 52
    },
    {
      "midi": 56,
      "hit": false,
      "t": 9473.687999999998,
      "d": 1060.8556875000013,
      "v": 63
    },
    {
      "midi": 44,
      "hit": false,
      "t": 9473.687999999998,
      "d": 2793.312520833335,
      "v": 58
    },
    {
      "midi": 37,
      "hit": false,
      "t": 9473.687999999998,
      "d": 2867.3257083333356,
      "v": 57
    },
    {
      "midi": 53,
      "hit": false,
      "t": 11052.635999999999,
      "d": 1110.1978125000023,
      "v": 63
    },
    {
      "midi": 49,
      "hit": false,
      "t": 11052.635999999999,
      "d": 1121.1627291666682,
      "v": 51
    },
    {
      "midi": 51,
      "hit": false,
      "t": 11052.635999999999,
      "d": 1126.645187500002,
      "v": 55
    },
    {
      "midi": 56,
      "hit": false,
      "t": 11052.635999999999,
      "d": 1137.610104166668,
      "v": 60
    },
    {
      "midi": 61,
      "hit": false,
      "t": 11052.635999999999,
      "d": 1148.5750208333338,
      "v": 52
    },
    {
      "midi": 53,
      "hit": false,
      "t": 11052.635999999999,
      "d": 1110.1978125000023,
      "v": 63
    },
    {
      "midi": 49,
      "hit": false,
      "t": 11052.635999999999,
      "d": 1121.1627291666682,
      "v": 51
    },
    {
      "midi": 51,
      "hit": false,
      "t": 11052.635999999999,
      "d": 1126.645187500002,
      "v": 55
    },
    {
      "midi": 56,
      "hit": false,
      "t": 11052.635999999999,
      "d": 1137.610104166668,
      "v": 60
    },
    {
      "midi": 61,
      "hit": false,
      "t": 11052.635999999999,
      "d": 1148.5750208333338,
      "v": 52
    },
    {
      "midi": 49,
      "hit": false,
      "t": 12631.584,
      "d": 433.1142083333325,
      "v": 57
    },
    {
      "midi": 54,
      "hit": false,
      "t": 12631.584,
      "d": 466.008958333332,
      "v": 60
    },
    {
      "midi": 56,
      "hit": false,
      "t": 12631.584,
      "d": 476.97387499999786,
      "v": 58
    },
    {
      "midi": 61,
      "hit": false,
      "t": 12631.584,
      "d": 518.0923124999972,
      "v": 54
    },
    {
      "midi": 42,
      "hit": false,
      "t": 12631.584,
      "d": 548.2458333333307,
      "v": 64
    },
    {
      "midi": 49,
      "hit": false,
      "t": 12631.584,
      "d": 433.1142083333325,
      "v": 57
    },
    {
      "midi": 54,
      "hit": false,
      "t": 12631.584,
      "d": 466.008958333332,
      "v": 60
    },
    {
      "midi": 56,
      "hit": false,
      "t": 12631.584,
      "d": 476.97387499999786,
      "v": 58
    },
    {
      "midi": 61,
      "hit": false,
      "t": 12631.584,
      "d": 518.0923124999972,
      "v": 54
    },
    {
      "midi": 42,
      "hit": false,
      "t": 12631.584,
      "d": 548.2458333333307,
      "v": 64
    },
    {
      "midi": 49,
      "hit": false,
      "t": 14035.09333333333,
      "d": 1263.7066458333338,
      "v": 64
    },
    {
      "midi": 49,
      "hit": false,
      "t": 14035.09333333333,
      "d": 1263.7066458333338,
      "v": 64
    },
    {
      "midi": 56,
      "hit": false,
      "t": 14210.531999999997,
      "d": 391.99577083333315,
      "v": 74
    },
    {
      "midi": 65,
      "hit": false,
      "t": 14210.531999999997,
      "d": 496.16247916666725,
      "v": 71
    },
    {
      "midi": 42,
      "hit": false,
      "t": 14210.531999999997,
      "d": 1107.4565833333345,
      "v": 71
    },
    {
      "midi": 56,
      "hit": false,
      "t": 14210.531999999997,
      "d": 391.99577083333315,
      "v": 74
    },
    {
      "midi": 65,
      "hit": false,
      "t": 14210.531999999997,
      "d": 496.16247916666725,
      "v": 71
    },
    {
      "midi": 42,
      "hit": false,
      "t": 14210.531999999997,
      "d": 1107.4565833333345,
      "v": 71
    },
    {
      "midi": 63,
      "hit": false,
      "t": 14736.847999999998,
      "d": 553.7282916666663,
      "v": 60
    },
    {
      "midi": 54,
      "hit": false,
      "t": 14736.847999999998,
      "d": 753.8380208333347,
      "v": 66
    },
    {
      "midi": 63,
      "hit": false,
      "t": 14736.847999999998,
      "d": 553.7282916666663,
      "v": 60
    },
    {
      "midi": 54,
      "hit": false,
      "t": 14736.847999999998,
      "d": 753.8380208333347,
      "v": 66
    },
    {
      "midi": 61,
      "hit": false,
      "t": 15263.163999999997,
      "d": 287.8290625000027,
      "v": 55
    },
    {
      "midi": 61,
      "hit": false,
      "t": 15263.163999999997,
      "d": 287.8290625000027,
      "v": 55
    },
    {
      "midi": 63,
      "hit": false,
      "t": 15789.48,
      "d": 860.745958333333,
      "v": 56
    },
    {
      "midi": 56,
      "hit": false,
      "t": 15789.48,
      "d": 986.8424999999988,
      "v": 61
    },
    {
      "midi": 58,
      "hit": false,
      "t": 15789.48,
      "d": 1000.5486458333326,
      "v": 64
    },
    {
      "midi": 51,
      "hit": false,
      "t": 15789.48,
      "d": 1310.3075416666652,
      "v": 50
    },
    {
      "midi": 39,
      "hit": false,
      "t": 15789.48,
      "d": 2598.6852500000023,
      "v": 55
    },
    {
      "midi": 46,
      "hit": false,
      "t": 15789.48,
      "d": 2609.65016666667,
      "v": 57
    },
    {
      "midi": 63,
      "hit": false,
      "t": 15789.48,
      "d": 860.745958333333,
      "v": 56
    },
    {
      "midi": 56,
      "hit": false,
      "t": 15789.48,
      "d": 986.8424999999988,
      "v": 61
    },
    {
      "midi": 58,
      "hit": false,
      "t": 15789.48,
      "d": 1000.5486458333326,
      "v": 64
    },
    {
      "midi": 51,
      "hit": false,
      "t": 15789.48,
      "d": 1310.3075416666652,
      "v": 50
    },
    {
      "midi": 39,
      "hit": false,
      "t": 15789.48,
      "d": 2598.6852500000023,
      "v": 55
    },
    {
      "midi": 46,
      "hit": false,
      "t": 15789.48,
      "d": 2609.65016666667,
      "v": 57
    },
    {
      "midi": 66,
      "hit": false,
      "t": 17368.428,
      "d": 638.7063958333347,
      "v": 61
    },
    {
      "midi": 58,
      "hit": false,
      "t": 17368.428,
      "d": 644.1888541666667,
      "v": 66
    },
    {
      "midi": 54,
      "hit": false,
      "t": 17368.428,
      "d": 655.1537708333344,
      "v": 71
    },
    {
      "midi": 51,
      "hit": false,
      "t": 17368.428,
      "d": 1016.9960208333359,
      "v": 68
    },
    {
      "midi": 66,
      "hit": false,
      "t": 17368.428,
      "d": 638.7063958333347,
      "v": 61
    },
    {
      "midi": 58,
      "hit": false,
      "t": 17368.428,
      "d": 644.1888541666667,
      "v": 66
    },
    {
      "midi": 54,
      "hit": false,
      "t": 17368.428,
      "d": 655.1537708333344,
      "v": 71
    },
    {
      "midi": 51,
      "hit": false,
      "t": 17368.428,
      "d": 1016.9960208333359,
      "v": 68
    },
    {
      "midi": 65,
      "hit": false,
      "t": 18421.06,
      "d": 312.50012499999866,
      "v": 76
    },
    {
      "midi": 58,
      "hit": false,
      "t": 18421.06,
      "d": 411.1843750000007,
      "v": 78
    },
    {
      "midi": 65,
      "hit": false,
      "t": 18421.06,
      "d": 312.50012499999866,
      "v": 76
    },
    {
      "midi": 58,
      "hit": false,
      "t": 18421.06,
      "d": 411.1843750000007,
      "v": 78
    },
    {
      "midi": 63,
      "hit": false,
      "t": 18771.937333333335,
      "d": 106.90793750000012,
      "v": 60
    },
    {
      "midi": 63,
      "hit": false,
      "t": 18771.937333333335,
      "d": 106.90793750000012,
      "v": 60
    },
    {
      "midi": 56,
      "hit": false,
      "t": 18947.376,
      "d": 948.4652916666673,
      "v": 66
    },
    {
      "midi": 58,
      "hit": false,
      "t": 18947.376,
      "d": 978.6188125000008,
      "v": 67
    },
    {
      "midi": 61,
      "hit": false,
      "t": 18947.376,
      "d": 995.0661875000005,
      "v": 66
    },
    {
      "midi": 54,
      "hit": false,
      "t": 18947.376,
      "d": 1101.9741250000006,
      "v": 51
    },
    {
      "midi": 49,
      "hit": false,
      "t": 18947.376,
      "d": 2409.540437499996,
      "v": 62
    },
    {
      "midi": 42,
      "hit": false,
      "t": 18947.376,
      "d": 2450.6588749999974,
      "v": 61
    },
    {
      "midi": 56,
      "hit": false,
      "t": 18947.376,
      "d": 948.4652916666673,
      "v": 66
    },
    {
      "midi": 58,
      "hit": false,
      "t": 18947.376,
      "d": 978.6188125000008,
      "v": 67
    },
    {
      "midi": 61,
      "hit": false,
      "t": 18947.376,
      "d": 995.0661875000005,
      "v": 66
    },
    {
      "midi": 54,
      "hit": false,
      "t": 18947.376,
      "d": 1101.9741250000006,
      "v": 51
    },
    {
      "midi": 49,
      "hit": false,
      "t": 18947.376,
      "d": 2409.540437499996,
      "v": 62
    },
    {
      "midi": 42,
      "hit": false,
      "t": 18947.376,
      "d": 2450.6588749999974,
      "v": 61
    },
    {
      "midi": 54,
      "hit": false,
      "t": 20526.324,
      "d": 825.1099791666638,
      "v": 73
    },
    {
      "midi": 58,
      "hit": false,
      "t": 20526.324,
      "d": 1077.3030624999992,
      "v": 88
    },
    {
      "midi": 54,
      "hit": false,
      "t": 20526.324,
      "d": 825.1099791666638,
      "v": 73
    },
    {
      "midi": 58,
      "hit": false,
      "t": 20526.324,
      "d": 1077.3030624999992,
      "v": 88
    },
    {
      "midi": 61,
      "hit": false,
      "t": 21052.64,
      "d": 592.1055000000015,
      "v": 91
    },
    {
      "midi": 61,
      "hit": false,
      "t": 21052.64,
      "d": 592.1055000000015,
      "v": 91
    },
    {
      "midi": 70,
      "hit": false,
      "t": 21578.956,
      "d": 87.71933333333436,
      "v": 82
    },
    {
      "midi": 66,
      "hit": false,
      "t": 21578.956,
      "d": 106.90793750000012,
      "v": 78
    },
    {
      "midi": 70,
      "hit": false,
      "t": 21578.956,
      "d": 87.71933333333436,
      "v": 82
    },
    {
      "midi": 66,
      "hit": false,
      "t": 21578.956,
      "d": 106.90793750000012,
      "v": 78
    },
    {
      "midi": 56,
      "hit": false,
      "t": 22105.271999999997,
      "d": 759.3204791666649,
      "v": 56
    },
    {
      "midi": 68,
      "hit": false,
      "t": 22105.271999999997,
      "d": 783.9915416666663,
      "v": 46
    },
    {
      "midi": 61,
      "hit": false,
      "t": 22105.271999999997,
      "d": 890.8994791666664,
      "v": 50
    },
    {
      "midi": 65,
      "hit": false,
      "t": 22105.271999999997,
      "d": 912.8293124999982,
      "v": 57
    },
    {
      "midi": 49,
      "hit": false,
      "t": 22105.271999999997,
      "d": 1038.925854166664,
      "v": 50
    },
    {
      "midi": 37,
      "hit": false,
      "t": 22105.271999999997,
      "d": 1074.5618333333296,
      "v": 56
    },
    {
      "midi": 56,
      "hit": false,
      "t": 22105.271999999997,
      "d": 759.3204791666649,
      "v": 56
    },
    {
      "midi": 68,
      "hit": false,
      "t": 22105.271999999997,
      "d": 783.9915416666663,
      "v": 46
    },
    {
      "midi": 61,
      "hit": false,
      "t": 22105.271999999997,
      "d": 890.8994791666664,
      "v": 50
    },
    {
      "midi": 65,
      "hit": false,
      "t": 22105.271999999997,
      "d": 912.8293124999982,
      "v": 57
    },
    {
      "midi": 49,
      "hit": false,
      "t": 22105.271999999997,
      "d": 1038.925854166664,
      "v": 50
    },
    {
      "midi": 37,
      "hit": false,
      "t": 22105.271999999997,
      "d": 1074.5618333333296,
      "v": 56
    },
    {
      "midi": 61,
      "hit": false,
      "t": 23684.219999999994,
      "d": 1126.645187500002,
      "v": 56
    },
    {
      "midi": 58,
      "hit": false,
      "t": 23684.219999999994,
      "d": 1151.3162500000035,
      "v": 59
    },
    {
      "midi": 46,
      "hit": false,
      "t": 23684.219999999994,
      "d": 1170.5048541666692,
      "v": 56
    },
    {
      "midi": 66,
      "hit": false,
      "t": 23684.219999999994,
      "d": 1184.211000000003,
      "v": 57
    },
    {
      "midi": 56,
      "hit": false,
      "t": 23684.219999999994,
      "d": 1186.952229166669,
      "v": 43
    },
    {
      "midi": 34,
      "hit": false,
      "t": 23684.219999999994,
      "d": 1192.434687500001,
      "v": 59
    },
    {
      "midi": 61,
      "hit": false,
      "t": 23684.219999999994,
      "d": 1126.645187500002,
      "v": 56
    },
    {
      "midi": 58,
      "hit": false,
      "t": 23684.219999999994,
      "d": 1151.3162500000035,
      "v": 59
    },
    {
      "midi": 46,
      "hit": false,
      "t": 23684.219999999994,
      "d": 1170.5048541666692,
      "v": 56
    },
    {
      "midi": 66,
      "hit": false,
      "t": 23684.219999999994,
      "d": 1184.211000000003,
      "v": 57
    },
    {
      "midi": 56,
      "hit": false,
      "t": 23684.219999999994,
      "d": 1186.952229166669,
      "v": 43
    },
    {
      "midi": 34,
      "hit": false,
      "t": 23684.219999999994,
      "d": 1192.434687500001,
      "v": 59
    },
    {
      "midi": 60,
      "hit": false,
      "t": 25263.167999999994,
      "d": 1123.9039583333324,
      "v": 61
    },
    {
      "midi": 58,
      "hit": false,
      "t": 25263.167999999994,
      "d": 1140.3513333333321,
      "v": 56
    },
    {
      "midi": 63,
      "hit": false,
      "t": 25263.167999999994,
      "d": 1170.5048541666656,
      "v": 60
    },
    {
      "midi": 44,
      "hit": false,
      "t": 25263.167999999994,
      "d": 1307.5663124999992,
      "v": 57
    },
    {
      "midi": 32,
      "hit": false,
      "t": 25263.167999999994,
      "d": 2595.944020833329,
      "v": 57
    },
    {
      "midi": 60,
      "hit": false,
      "t": 25263.167999999994,
      "d": 1123.9039583333324,
      "v": 61
    },
    {
      "midi": 58,
      "hit": false,
      "t": 25263.167999999994,
      "d": 1140.3513333333321,
      "v": 56
    },
    {
      "midi": 63,
      "hit": false,
      "t": 25263.167999999994,
      "d": 1170.5048541666656,
      "v": 60
    },
    {
      "midi": 44,
      "hit": false,
      "t": 25263.167999999994,
      "d": 1307.5663124999992,
      "v": 57
    },
    {
      "midi": 32,
      "hit": false,
      "t": 25263.167999999994,
      "d": 2595.944020833329,
      "v": 57
    },
    {
      "midi": 39,
      "hit": false,
      "t": 26666.677333333326,
      "d": 161.732520833335,
      "v": 66
    },
    {
      "midi": 39,
      "hit": false,
      "t": 26666.677333333326,
      "d": 161.732520833335,
      "v": 66
    },
    {
      "midi": 56,
      "hit": false,
      "t": 26842.115999999995,
      "d": 298.79397916666494,
      "v": 78
    },
    {
      "midi": 61,
      "hit": false,
      "t": 26842.115999999995,
      "d": 348.13610416666415,
      "v": 71
    },
    {
      "midi": 65,
      "hit": false,
      "t": 26842.115999999995,
      "d": 353.6185624999962,
      "v": 74
    },
    {
      "midi": 44,
      "hit": false,
      "t": 26842.115999999995,
      "d": 1052.6319999999942,
      "v": 78
    },
    {
      "midi": 56,
      "hit": false,
      "t": 26842.115999999995,
      "d": 298.79397916666494,
      "v": 78
    },
    {
      "midi": 61,
      "hit": false,
      "t": 26842.115999999995,
      "d": 348.13610416666415,
      "v": 71
    },
    {
      "midi": 65,
      "hit": false,
      "t": 26842.115999999995,
      "d": 353.6185624999962,
      "v": 74
    },
    {
      "midi": 44,
      "hit": false,
      "t": 26842.115999999995,
      "d": 1052.6319999999942,
      "v": 78
    },
    {
      "midi": 54,
      "hit": false,
      "t": 27368.43199999999,
      "d": 427.63175000000047,
      "v": 78
    },
    {
      "midi": 63,
      "hit": false,
      "t": 27368.43199999999,
      "d": 512.6098541666652,
      "v": 74
    },
    {
      "midi": 54,
      "hit": false,
      "t": 27368.43199999999,
      "d": 427.63175000000047,
      "v": 78
    },
    {
      "midi": 63,
      "hit": false,
      "t": 27368.43199999999,
      "d": 512.6098541666652,
      "v": 74
    },
    {
      "midi": 53,
      "hit": false,
      "t": 27894.74799999999,
      "d": 109.64916666666613,
      "v": 68
    },
    {
      "midi": 61,
      "hit": false,
      "t": 27894.74799999999,
      "d": 145.28514583333163,
      "v": 68
    },
    {
      "midi": 53,
      "hit": false,
      "t": 27894.74799999999,
      "d": 109.64916666666613,
      "v": 68
    },
    {
      "midi": 61,
      "hit": false,
      "t": 27894.74799999999,
      "d": 145.28514583333163,
      "v": 68
    },
    {
      "midi": 61,
      "hit": false,
      "t": 28421.063999999988,
      "d": 287.8290625000009,
      "v": 63
    },
    {
      "midi": 63,
      "hit": false,
      "t": 28421.063999999988,
      "d": 756.5792500000025,
      "v": 62
    },
    {
      "midi": 54,
      "hit": false,
      "t": 28421.063999999988,
      "d": 973.1363541666688,
      "v": 64
    },
    {
      "midi": 58,
      "hit": false,
      "t": 28421.063999999988,
      "d": 1003.2898750000022,
      "v": 68
    },
    {
      "midi": 51,
      "hit": false,
      "t": 28421.063999999988,
      "d": 1417.215479166669,
      "v": 67
    },
    {
      "midi": 39,
      "hit": false,
      "t": 28421.063999999988,
      "d": 2658.992291666673,
      "v": 73
    },
    {
      "midi": 61,
      "hit": false,
      "t": 28421.063999999988,
      "d": 287.8290625000009,
      "v": 63
    },
    {
      "midi": 63,
      "hit": false,
      "t": 28421.063999999988,
      "d": 756.5792500000025,
      "v": 62
    },
    {
      "midi": 54,
      "hit": false,
      "t": 28421.063999999988,
      "d": 973.1363541666688,
      "v": 64
    },
    {
      "midi": 58,
      "hit": false,
      "t": 28421.063999999988,
      "d": 1003.2898750000022,
      "v": 68
    },
    {
      "midi": 51,
      "hit": false,
      "t": 28421.063999999988,
      "d": 1417.215479166669,
      "v": 67
    },
    {
      "midi": 39,
      "hit": false,
      "t": 28421.063999999988,
      "d": 2658.992291666673,
      "v": 73
    },
    {
      "midi": 46,
      "hit": false,
      "t": 29824.573333333323,
      "d": 1271.9303333333373,
      "v": 71
    },
    {
      "midi": 46,
      "hit": false,
      "t": 29824.573333333323,
      "d": 1271.9303333333373,
      "v": 71
    },
    {
      "midi": 61,
      "hit": false,
      "t": 30000.01199999999,
      "d": 699.0134375000016,
      "v": 67
    },
    {
      "midi": 58,
      "hit": false,
      "t": 30000.01199999999,
      "d": 737.3906458333331,
      "v": 74
    },
    {
      "midi": 70,
      "hit": false,
      "t": 30000.01199999999,
      "d": 794.956458333334,
      "v": 78
    },
    {
      "midi": 51,
      "hit": false,
      "t": 30000.01199999999,
      "d": 1080.0442916666689,
      "v": 66
    },
    {
      "midi": 61,
      "hit": false,
      "t": 30000.01199999999,
      "d": 699.0134375000016,
      "v": 67
    },
    {
      "midi": 58,
      "hit": false,
      "t": 30000.01199999999,
      "d": 737.3906458333331,
      "v": 74
    },
    {
      "midi": 70,
      "hit": false,
      "t": 30000.01199999999,
      "d": 794.956458333334,
      "v": 78
    },
    {
      "midi": 51,
      "hit": false,
      "t": 30000.01199999999,
      "d": 1080.0442916666689,
      "v": 66
    },
    {
      "midi": 61,
      "hit": false,
      "t": 31052.643999999993,
      "d": 134.32022916666756,
      "v": 68
    },
    {
      "midi": 68,
      "hit": false,
      "t": 31052.643999999993,
      "d": 145.28514583333526,
      "v": 68
    },
    {
      "midi": 58,
      "hit": false,
      "t": 31052.643999999993,
      "d": 153.50883333333695,
      "v": 73
    },
    {
      "midi": 61,
      "hit": false,
      "t": 31052.643999999993,
      "d": 134.32022916666756,
      "v": 68
    },
    {
      "midi": 68,
      "hit": false,
      "t": 31052.643999999993,
      "d": 145.28514583333526,
      "v": 68
    },
    {
      "midi": 58,
      "hit": false,
      "t": 31052.643999999993,
      "d": 153.50883333333695,
      "v": 73
    },
    {
      "midi": 58,
      "hit": false,
      "t": 31578.959999999995,
      "d": 638.706395833331,
      "v": 61
    },
    {
      "midi": 61,
      "hit": false,
      "t": 31578.959999999995,
      "d": 794.9564583333304,
      "v": 60
    },
    {
      "midi": 66,
      "hit": false,
      "t": 31578.959999999995,
      "d": 794.9564583333304,
      "v": 67
    },
    {
      "midi": 54,
      "hit": false,
      "t": 31578.959999999995,
      "d": 984.1012708333292,
      "v": 63
    },
    {
      "midi": 42,
      "hit": false,
      "t": 31578.959999999995,
      "d": 2425.9878124999996,
      "v": 68
    },
    {
      "midi": 49,
      "hit": false,
      "t": 31578.959999999995,
      "d": 2631.579999999998,
      "v": 63
    },
    {
      "midi": 58,
      "hit": false,
      "t": 31578.959999999995,
      "d": 638.706395833331,
      "v": 61
    },
    {
      "midi": 61,
      "hit": false,
      "t": 31578.959999999995,
      "d": 794.9564583333304,
      "v": 60
    },
    {
      "midi": 66,
      "hit": false,
      "t": 31578.959999999995,
      "d": 794.9564583333304,
      "v": 67
    },
    {
      "midi": 54,
      "hit": false,
      "t": 31578.959999999995,
      "d": 984.1012708333292,
      "v": 63
    },
    {
      "midi": 42,
      "hit": false,
      "t": 31578.959999999995,
      "d": 2425.9878124999996,
      "v": 68
    },
    {
      "midi": 49,
      "hit": false,
      "t": 31578.959999999995,
      "d": 2631.579999999998,
      "v": 63
    },
    {
      "midi": 56,
      "hit": false,
      "t": 33157.90799999999,
      "d": 652.412541666672,
      "v": 74
    },
    {
      "midi": 58,
      "hit": false,
      "t": 33157.90799999999,
      "d": 677.0836041666698,
      "v": 80
    },
    {
      "midi": 61,
      "hit": false,
      "t": 33157.90799999999,
      "d": 679.8248333333395,
      "v": 71
    },
    {
      "midi": 56,
      "hit": false,
      "t": 33157.90799999999,
      "d": 652.412541666672,
      "v": 74
    },
    {
      "midi": 58,
      "hit": false,
      "t": 33157.90799999999,
      "d": 677.0836041666698,
      "v": 80
    },
    {
      "midi": 61,
      "hit": false,
      "t": 33157.90799999999,
      "d": 679.8248333333395,
      "v": 71
    },
    {
      "midi": 54,
      "hit": false,
      "t": 34210.53999999999,
      "d": 87.71933333333436,
      "v": 80
    },
    {
      "midi": 56,
      "hit": false,
      "t": 34210.53999999999,
      "d": 309.7588958333363,
      "v": 95
    },
    {
      "midi": 54,
      "hit": false,
      "t": 34210.53999999999,
      "d": 87.71933333333436,
      "v": 80
    },
    {
      "midi": 56,
      "hit": false,
      "t": 34210.53999999999,
      "d": 309.7588958333363,
      "v": 95
    },
    {
      "midi": 58,
      "hit": false,
      "t": 34561.41733333333,
      "d": 189.14481250000244,
      "v": 82
    },
    {
      "midi": 58,
      "hit": false,
      "t": 34561.41733333333,
      "d": 189.14481250000244,
      "v": 82
    },
    {
      "midi": 49,
      "hit": false,
      "t": 34736.856,
      "d": 827.8512083333335,
      "v": 61
    },
    {
      "midi": 56,
      "hit": false,
      "t": 34736.856,
      "d": 1008.7723333333342,
      "v": 91
    },
    {
      "midi": 44,
      "hit": false,
      "t": 34736.856,
      "d": 1041.6670833333337,
      "v": 71
    },
    {
      "midi": 37,
      "hit": false,
      "t": 34736.856,
      "d": 1060.8556874999995,
      "v": 73
    },
    {
      "midi": 65,
      "hit": false,
      "t": 34736.856,
      "d": 1077.3030625000029,
      "v": 73
    },
    {
      "midi": 61,
      "hit": false,
      "t": 34736.856,
      "d": 1082.7855208333349,
      "v": 80
    },
    {
      "midi": 49,
      "hit": false,
      "t": 34736.856,
      "d": 827.8512083333335,
      "v": 61
    },
    {
      "midi": 56,
      "hit": false,
      "t": 34736.856,
      "d": 1008.7723333333342,
      "v": 91
    },
    {
      "midi": 44,
      "hit": false,
      "t": 34736.856,
      "d": 1041.6670833333337,
      "v": 71
    },
    {
      "midi": 37,
      "hit": false,
      "t": 34736.856,
      "d": 1060.8556874999995,
      "v": 73
    },
    {
      "midi": 65,
      "hit": false,
      "t": 34736.856,
      "d": 1077.3030625000029,
      "v": 73
    },
    {
      "midi": 61,
      "hit": false,
      "t": 34736.856,
      "d": 1082.7855208333349,
      "v": 80
    },
    {
      "midi": 66,
      "hit": false,
      "t": 36315.804000000004,
      "d": 666.1186874999985,
      "v": 67
    },
    {
      "midi": 56,
      "hit": false,
      "t": 36315.804000000004,
      "d": 674.3423750000002,
      "v": 74
    },
    {
      "midi": 61,
      "hit": false,
      "t": 36315.804000000004,
      "d": 677.0836041666698,
      "v": 64
    },
    {
      "midi": 46,
      "hit": false,
      "t": 36315.804000000004,
      "d": 1134.8688750000001,
      "v": 64
    },
    {
      "midi": 34,
      "hit": false,
      "t": 36315.804000000004,
      "d": 1230.8118958333362,
      "v": 68
    },
    {
      "midi": 66,
      "hit": false,
      "t": 36315.804000000004,
      "d": 666.1186874999985,
      "v": 67
    },
    {
      "midi": 56,
      "hit": false,
      "t": 36315.804000000004,
      "d": 674.3423750000002,
      "v": 74
    },
    {
      "midi": 61,
      "hit": false,
      "t": 36315.804000000004,
      "d": 677.0836041666698,
      "v": 64
    },
    {
      "midi": 46,
      "hit": false,
      "t": 36315.804000000004,
      "d": 1134.8688750000001,
      "v": 64
    },
    {
      "midi": 34,
      "hit": false,
      "t": 36315.804000000004,
      "d": 1230.8118958333362,
      "v": 68
    },
    {
      "midi": 60,
      "hit": false,
      "t": 37894.75200000001,
      "d": 504.38616666667076,
      "v": 63
    },
    {
      "midi": 63,
      "hit": false,
      "t": 37894.75200000001,
      "d": 762.0617083333418,
      "v": 66
    },
    {
      "midi": 68,
      "hit": false,
      "t": 37894.75200000001,
      "d": 1219.846979166672,
      "v": 73
    },
    {
      "midi": 44,
      "hit": false,
      "t": 37894.75200000001,
      "d": 1241.7768125000075,
      "v": 71
    },
    {
      "midi": 32,
      "hit": false,
      "t": 37894.75200000001,
      "d": 1280.154020833339,
      "v": 63
    },
    {
      "midi": 60,
      "hit": false,
      "t": 37894.75200000001,
      "d": 504.38616666667076,
      "v": 63
    },
    {
      "midi": 63,
      "hit": false,
      "t": 37894.75200000001,
      "d": 762.0617083333418,
      "v": 66
    },
    {
      "midi": 68,
      "hit": false,
      "t": 37894.75200000001,
      "d": 1219.846979166672,
      "v": 73
    },
    {
      "midi": 44,
      "hit": false,
      "t": 37894.75200000001,
      "d": 1241.7768125000075,
      "v": 71
    },
    {
      "midi": 32,
      "hit": false,
      "t": 37894.75200000001,
      "d": 1280.154020833339,
      "v": 63
    },
    {
      "midi": 56,
      "hit": false,
      "t": 38421.068000000014,
      "d": 690.7897499999963,
      "v": 78
    },
    {
      "midi": 56,
      "hit": false,
      "t": 38421.068000000014,
      "d": 690.7897499999963,
      "v": 78
    },
    {
      "midi": 60,
      "hit": false,
      "t": 38947.38400000001,
      "d": 200.1097291666665,
      "v": 95
    },
    {
      "midi": 60,
      "hit": false,
      "t": 38947.38400000001,
      "d": 200.1097291666665,
      "v": 95
    },
    {
      "midi": 32,
      "hit": false,
      "t": 39298.26133333335,
      "d": 899.1231666666572,
      "v": 66
    },
    {
      "midi": 32,
      "hit": false,
      "t": 39298.26133333335,
      "d": 899.1231666666572,
      "v": 66
    },
    {
      "midi": 60,
      "hit": false,
      "t": 39473.70000000002,
      "d": 449.5615833333286,
      "v": 85
    },
    {
      "midi": 56,
      "hit": false,
      "t": 39473.70000000002,
      "d": 487.9387916666601,
      "v": 73
    },
    {
      "midi": 65,
      "hit": false,
      "t": 39473.70000000002,
      "d": 501.64493749999383,
      "v": 82
    },
    {
      "midi": 68,
      "hit": false,
      "t": 39473.70000000002,
      "d": 910.0880833333213,
      "v": 82
    },
    {
      "midi": 44,
      "hit": false,
      "t": 39473.70000000002,
      "d": 1006.03110416665,
      "v": 66
    },
    {
      "midi": 60,
      "hit": false,
      "t": 39473.70000000002,
      "d": 449.5615833333286,
      "v": 85
    },
    {
      "midi": 56,
      "hit": false,
      "t": 39473.70000000002,
      "d": 487.9387916666601,
      "v": 73
    },
    {
      "midi": 65,
      "hit": false,
      "t": 39473.70000000002,
      "d": 501.64493749999383,
      "v": 82
    },
    {
      "midi": 68,
      "hit": false,
      "t": 39473.70000000002,
      "d": 910.0880833333213,
      "v": 82
    },
    {
      "midi": 44,
      "hit": false,
      "t": 39473.70000000002,
      "d": 1006.03110416665,
      "v": 66
    },
    {
      "midi": 56,
      "hit": false,
      "t": 40000.01600000001,
      "d": 342.6536458333285,
      "v": 82
    },
    {
      "midi": 60,
      "hit": false,
      "t": 40000.01600000001,
      "d": 342.6536458333285,
      "v": 63
    },
    {
      "midi": 63,
      "hit": false,
      "t": 40000.01600000001,
      "d": 394.7369999999937,
      "v": 82
    },
    {
      "midi": 56,
      "hit": false,
      "t": 40000.01600000001,
      "d": 342.6536458333285,
      "v": 82
    },
    {
      "midi": 60,
      "hit": false,
      "t": 40000.01600000001,
      "d": 342.6536458333285,
      "v": 63
    },
    {
      "midi": 63,
      "hit": false,
      "t": 40000.01600000001,
      "d": 394.7369999999937,
      "v": 82
    },
    {
      "midi": 56,
      "hit": false,
      "t": 40526.332,
      "d": 104.16670833333046,
      "v": 71
    },
    {
      "midi": 60,
      "hit": false,
      "t": 40526.332,
      "d": 126.09654166666587,
      "v": 74
    },
    {
      "midi": 68,
      "hit": false,
      "t": 40526.332,
      "d": 131.5789999999979,
      "v": 78
    },
    {
      "midi": 65,
      "hit": false,
      "t": 40526.332,
      "d": 150.76760416666366,
      "v": 74
    },
    {
      "midi": 56,
      "hit": false,
      "t": 40526.332,
      "d": 104.16670833333046,
      "v": 71
    },
    {
      "midi": 60,
      "hit": false,
      "t": 40526.332,
      "d": 126.09654166666587,
      "v": 74
    },
    {
      "midi": 68,
      "hit": false,
      "t": 40526.332,
      "d": 131.5789999999979,
      "v": 78
    },
    {
      "midi": 65,
      "hit": false,
      "t": 40526.332,
      "d": 150.76760416666366,
      "v": 74
    },
    {
      "midi": 58,
      "hit": false,
      "t": 41052.648,
      "d": 1044.4083125000034,
      "v": 61
    },
    {
      "midi": 61,
      "hit": false,
      "t": 41052.648,
      "d": 1047.149541666673,
      "v": 57
    },
    {
      "midi": 63,
      "hit": false,
      "t": 41052.648,
      "d": 1052.632000000005,
      "v": 63
    },
    {
      "midi": 66,
      "hit": false,
      "t": 41052.648,
      "d": 1099.2328958333383,
      "v": 59
    },
    {
      "midi": 51,
      "hit": false,
      "t": 41052.648,
      "d": 1329.4961458333419,
      "v": 61
    },
    {
      "midi": 39,
      "hit": false,
      "t": 41052.648,
      "d": 2667.215979166671,
      "v": 64
    },
    {
      "midi": 58,
      "hit": false,
      "t": 41052.648,
      "d": 1044.4083125000034,
      "v": 61
    },
    {
      "midi": 61,
      "hit": false,
      "t": 41052.648,
      "d": 1047.149541666673,
      "v": 57
    },
    {
      "midi": 63,
      "hit": false,
      "t": 41052.648,
      "d": 1052.632000000005,
      "v": 63
    },
    {
      "midi": 66,
      "hit": false,
      "t": 41052.648,
      "d": 1099.2328958333383,
      "v": 59
    },
    {
      "midi": 51,
      "hit": false,
      "t": 41052.648,
      "d": 1329.4961458333419,
      "v": 61
    },
    {
      "midi": 39,
      "hit": false,
      "t": 41052.648,
      "d": 2667.215979166671,
      "v": 64
    },
    {
      "midi": 46,
      "hit": false,
      "t": 42456.15733333334,
      "d": 1326.754916666665,
      "v": 58
    },
    {
      "midi": 46,
      "hit": false,
      "t": 42456.15733333334,
      "d": 1326.754916666665,
      "v": 58
    },
    {
      "midi": 61,
      "hit": false,
      "t": 42631.59600000001,
      "d": 52.08335416666523,
      "v": 88
    },
    {
      "midi": 66,
      "hit": false,
      "t": 42631.59600000001,
      "d": 52.08335416666523,
      "v": 88
    },
    {
      "midi": 70,
      "hit": false,
      "t": 42631.59600000001,
      "d": 65.78949999999895,
      "v": 91
    },
    {
      "midi": 51,
      "hit": false,
      "t": 42631.59600000001,
      "d": 323.4650416666627,
      "v": 71
    },
    {
      "midi": 61,
      "hit": false,
      "t": 42631.59600000001,
      "d": 52.08335416666523,
      "v": 88
    },
    {
      "midi": 66,
      "hit": false,
      "t": 42631.59600000001,
      "d": 52.08335416666523,
      "v": 88
    },
    {
      "midi": 70,
      "hit": false,
      "t": 42631.59600000001,
      "d": 65.78949999999895,
      "v": 91
    },
    {
      "midi": 51,
      "hit": false,
      "t": 42631.59600000001,
      "d": 323.4650416666627,
      "v": 71
    },
    {
      "midi": 51,
      "hit": false,
      "t": 43333.35066666667,
      "d": 518.0923125000045,
      "v": 54
    },
    {
      "midi": 51,
      "hit": false,
      "t": 43333.35066666667,
      "d": 518.0923125000045,
      "v": 54
    },
    {
      "midi": 58,
      "hit": false,
      "t": 43508.78933333334,
      "d": 54.824583333334886,
      "v": 91
    },
    {
      "midi": 61,
      "hit": false,
      "t": 43508.78933333334,
      "d": 65.78949999999895,
      "v": 80
    },
    {
      "midi": 66,
      "hit": false,
      "t": 43508.78933333334,
      "d": 76.75441666666302,
      "v": 88
    },
    {
      "midi": 58,
      "hit": false,
      "t": 43508.78933333334,
      "d": 54.824583333334886,
      "v": 91
    },
    {
      "midi": 61,
      "hit": false,
      "t": 43508.78933333334,
      "d": 65.78949999999895,
      "v": 80
    },
    {
      "midi": 66,
      "hit": false,
      "t": 43508.78933333334,
      "d": 76.75441666666302,
      "v": 88
    },
    {
      "midi": 56,
      "hit": false,
      "t": 44210.544000000016,
      "d": 570.1756666666697,
      "v": 74
    },
    {
      "midi": 58,
      "hit": false,
      "t": 44210.544000000016,
      "d": 611.2941041666709,
      "v": 74
    },
    {
      "midi": 61,
      "hit": false,
      "t": 44210.544000000016,
      "d": 633.2239375000063,
      "v": 66
    },
    {
      "midi": 54,
      "hit": false,
      "t": 44210.544000000016,
      "d": 811.4038333333374,
      "v": 59
    },
    {
      "midi": 49,
      "hit": false,
      "t": 44210.544000000016,
      "d": 2524.672062500009,
      "v": 61
    },
    {
      "midi": 42,
      "hit": false,
      "t": 44210.544000000016,
      "d": 2595.94402083334,
      "v": 64
    },
    {
      "midi": 56,
      "hit": false,
      "t": 44210.544000000016,
      "d": 570.1756666666697,
      "v": 74
    },
    {
      "midi": 58,
      "hit": false,
      "t": 44210.544000000016,
      "d": 611.2941041666709,
      "v": 74
    },
    {
      "midi": 61,
      "hit": false,
      "t": 44210.544000000016,
      "d": 633.2239375000063,
      "v": 66
    },
    {
      "midi": 54,
      "hit": false,
      "t": 44210.544000000016,
      "d": 811.4038333333374,
      "v": 59
    },
    {
      "midi": 49,
      "hit": false,
      "t": 44210.544000000016,
      "d": 2524.672062500009,
      "v": 61
    },
    {
      "midi": 42,
      "hit": false,
      "t": 44210.544000000016,
      "d": 2595.94402083334,
      "v": 64
    },
    {
      "midi": 54,
      "hit": false,
      "t": 45263.17600000002,
      "d": 948.4652916666673,
      "v": 71
    },
    {
      "midi": 54,
      "hit": false,
      "t": 45263.17600000002,
      "d": 948.4652916666673,
      "v": 71
    },
    {
      "midi": 61,
      "hit": false,
      "t": 45614.05333333335,
      "d": 561.951979166668,
      "v": 82
    },
    {
      "midi": 61,
      "hit": false,
      "t": 45614.05333333335,
      "d": 561.951979166668,
      "v": 82
    },
    {
      "midi": 73,
      "hit": false,
      "t": 45789.49200000002,
      "d": 408.4431458333347,
      "v": 82
    },
    {
      "midi": 70,
      "hit": false,
      "t": 45789.49200000002,
      "d": 411.18437500000437,
      "v": 82
    },
    {
      "midi": 73,
      "hit": false,
      "t": 45789.49200000002,
      "d": 408.4431458333347,
      "v": 82
    },
    {
      "midi": 70,
      "hit": false,
      "t": 45789.49200000002,
      "d": 411.18437500000437,
      "v": 82
    },
    {
      "midi": 73,
      "hit": false,
      "t": 46315.80800000002,
      "d": 315.2413541666683,
      "v": 78
    },
    {
      "midi": 61,
      "hit": false,
      "t": 46315.80800000002,
      "d": 323.46504166667,
      "v": 88
    },
    {
      "midi": 68,
      "hit": false,
      "t": 46315.80800000002,
      "d": 339.9124166666734,
      "v": 82
    },
    {
      "midi": 73,
      "hit": false,
      "t": 46315.80800000002,
      "d": 315.2413541666683,
      "v": 78
    },
    {
      "midi": 61,
      "hit": false,
      "t": 46315.80800000002,
      "d": 323.46504166667,
      "v": 88
    },
    {
      "midi": 68,
      "hit": false,
      "t": 46315.80800000002,
      "d": 339.9124166666734,
      "v": 82
    },
    {
      "midi": 61,
      "hit": false,
      "t": 46842.124000000025,
      "d": 54.824583333334886,
      "v": 73
    },
    {
      "midi": 66,
      "hit": false,
      "t": 46842.124000000025,
      "d": 54.824583333334886,
      "v": 78
    },
    {
      "midi": 73,
      "hit": false,
      "t": 46842.124000000025,
      "d": 63.048270833336574,
      "v": 74
    },
    {
      "midi": 61,
      "hit": false,
      "t": 46842.124000000025,
      "d": 54.824583333334886,
      "v": 73
    },
    {
      "midi": 66,
      "hit": false,
      "t": 46842.124000000025,
      "d": 54.824583333334886,
      "v": 78
    },
    {
      "midi": 73,
      "hit": false,
      "t": 46842.124000000025,
      "d": 63.048270833336574,
      "v": 74
    },
    {
      "midi": 56,
      "hit": false,
      "t": 47368.440000000024,
      "d": 383.7720833333369,
      "v": 73
    },
    {
      "midi": 61,
      "hit": false,
      "t": 47368.440000000024,
      "d": 570.1756666666697,
      "v": 68
    },
    {
      "midi": 49,
      "hit": false,
      "t": 47368.440000000024,
      "d": 1080.0442916666725,
      "v": 61
    },
    {
      "midi": 65,
      "hit": false,
      "t": 47368.440000000024,
      "d": 1115.6802708333416,
      "v": 68
    },
    {
      "midi": 68,
      "hit": false,
      "t": 47368.440000000024,
      "d": 1165.0223958333445,
      "v": 71
    },
    {
      "midi": 37,
      "hit": false,
      "t": 47368.440000000024,
      "d": 1170.5048541666765,
      "v": 57
    },
    {
      "midi": 56,
      "hit": false,
      "t": 47368.440000000024,
      "d": 383.7720833333369,
      "v": 73
    },
    {
      "midi": 61,
      "hit": false,
      "t": 47368.440000000024,
      "d": 570.1756666666697,
      "v": 68
    },
    {
      "midi": 49,
      "hit": false,
      "t": 47368.440000000024,
      "d": 1080.0442916666725,
      "v": 61
    },
    {
      "midi": 65,
      "hit": false,
      "t": 47368.440000000024,
      "d": 1115.6802708333416,
      "v": 68
    },
    {
      "midi": 68,
      "hit": false,
      "t": 47368.440000000024,
      "d": 1165.0223958333445,
      "v": 71
    },
    {
      "midi": 37,
      "hit": false,
      "t": 47368.440000000024,
      "d": 1170.5048541666765,
      "v": 57
    },
    {
      "midi": 56,
      "hit": false,
      "t": 47894.75600000003,
      "d": 605.8116458333388,
      "v": 64
    },
    {
      "midi": 56,
      "hit": false,
      "t": 47894.75600000003,
      "d": 605.8116458333388,
      "v": 64
    },
    {
      "midi": 61,
      "hit": false,
      "t": 48421.07200000003,
      "d": 104.16670833333774,
      "v": 78
    },
    {
      "midi": 61,
      "hit": false,
      "t": 48421.07200000003,
      "d": 104.16670833333774,
      "v": 78
    },
    {
      "midi": 54,
      "hit": false,
      "t": 48947.388000000035,
      "d": 474.2326458333264,
      "v": 88
    },
    {
      "midi": 61,
      "hit": false,
      "t": 48947.388000000035,
      "d": 797.6976874999891,
      "v": 80
    },
    {
      "midi": 68,
      "hit": false,
      "t": 48947.388000000035,
      "d": 855.2634999999864,
      "v": 82
    },
    {
      "midi": 46,
      "hit": false,
      "t": 48947.388000000035,
      "d": 1162.281166666653,
      "v": 68
    },
    {
      "midi": 34,
      "hit": false,
      "t": 48947.388000000035,
      "d": 1203.3996041666542,
      "v": 78
    },
    {
      "midi": 54,
      "hit": false,
      "t": 48947.388000000035,
      "d": 474.2326458333264,
      "v": 88
    },
    {
      "midi": 61,
      "hit": false,
      "t": 48947.388000000035,
      "d": 797.6976874999891,
      "v": 80
    },
    {
      "midi": 68,
      "hit": false,
      "t": 48947.388000000035,
      "d": 855.2634999999864,
      "v": 82
    },
    {
      "midi": 46,
      "hit": false,
      "t": 48947.388000000035,
      "d": 1162.281166666653,
      "v": 68
    },
    {
      "midi": 34,
      "hit": false,
      "t": 48947.388000000035,
      "d": 1203.3996041666542,
      "v": 78
    },
    {
      "midi": 54,
      "hit": false,
      "t": 49473.70400000003,
      "d": 243.96939583333005,
      "v": 63
    },
    {
      "midi": 54,
      "hit": false,
      "t": 49473.70400000003,
      "d": 243.96939583333005,
      "v": 63
    },
    {
      "midi": 61,
      "hit": false,
      "t": 50000.02000000002,
      "d": 194.62727083333448,
      "v": 59
    },
    {
      "midi": 54,
      "hit": false,
      "t": 50000.02000000002,
      "d": 205.59218749999854,
      "v": 57
    },
    {
      "midi": 68,
      "hit": false,
      "t": 50000.02000000002,
      "d": 257.6755416666638,
      "v": 55
    },
    {
      "midi": 61,
      "hit": false,
      "t": 50000.02000000002,
      "d": 194.62727083333448,
      "v": 59
    },
    {
      "midi": 54,
      "hit": false,
      "t": 50000.02000000002,
      "d": 205.59218749999854,
      "v": 57
    },
    {
      "midi": 68,
      "hit": false,
      "t": 50000.02000000002,
      "d": 257.6755416666638,
      "v": 55
    },
    {
      "midi": 32,
      "hit": false,
      "t": 50526.33600000002,
      "d": 523.5747708333365,
      "v": 63
    },
    {
      "midi": 44,
      "hit": false,
      "t": 50526.33600000002,
      "d": 682.5660625000019,
      "v": 64
    },
    {
      "midi": 60,
      "hit": false,
      "t": 50526.33600000002,
      "d": 847.0398124999992,
      "v": 76
    },
    {
      "midi": 58,
      "hit": false,
      "t": 50526.33600000002,
      "d": 877.1933333333291,
      "v": 63
    },
    {
      "midi": 63,
      "hit": false,
      "t": 50526.33600000002,
      "d": 951.2065208333297,
      "v": 68
    },
    {
      "midi": 68,
      "hit": false,
      "t": 50526.33600000002,
      "d": 959.4302083333314,
      "v": 71
    },
    {
      "midi": 32,
      "hit": false,
      "t": 50526.33600000002,
      "d": 523.5747708333365,
      "v": 63
    },
    {
      "midi": 44,
      "hit": false,
      "t": 50526.33600000002,
      "d": 682.5660625000019,
      "v": 64
    },
    {
      "midi": 60,
      "hit": false,
      "t": 50526.33600000002,
      "d": 847.0398124999992,
      "v": 76
    },
    {
      "midi": 58,
      "hit": false,
      "t": 50526.33600000002,
      "d": 877.1933333333291,
      "v": 63
    },
    {
      "midi": 63,
      "hit": false,
      "t": 50526.33600000002,
      "d": 951.2065208333297,
      "v": 68
    },
    {
      "midi": 68,
      "hit": false,
      "t": 50526.33600000002,
      "d": 959.4302083333314,
      "v": 71
    },
    {
      "midi": 58,
      "hit": false,
      "t": 51578.968000000015,
      "d": 84.9781041666647,
      "v": 67
    },
    {
      "midi": 58,
      "hit": false,
      "t": 51578.968000000015,
      "d": 84.9781041666647,
      "v": 67
    },
    {
      "midi": 60,
      "hit": false,
      "t": 51929.845333333345,
      "d": 131.5789999999979,
      "v": 88
    },
    {
      "midi": 60,
      "hit": false,
      "t": 51929.845333333345,
      "d": 131.5789999999979,
      "v": 88
    },
    {
      "midi": 60,
      "hit": false,
      "t": 52105.28400000001,
      "d": 334.42995833333407,
      "v": 88
    },
    {
      "midi": 63,
      "hit": false,
      "t": 52105.28400000001,
      "d": 353.6185624999998,
      "v": 91
    },
    {
      "midi": 51,
      "hit": false,
      "t": 52105.28400000001,
      "d": 1118.4214999999967,
      "v": 82
    },
    {
      "midi": 44,
      "hit": false,
      "t": 52105.28400000001,
      "d": 1129.3864166666608,
      "v": 78
    },
    {
      "midi": 60,
      "hit": false,
      "t": 52105.28400000001,
      "d": 334.42995833333407,
      "v": 88
    },
    {
      "midi": 63,
      "hit": false,
      "t": 52105.28400000001,
      "d": 353.6185624999998,
      "v": 91
    },
    {
      "midi": 51,
      "hit": false,
      "t": 52105.28400000001,
      "d": 1118.4214999999967,
      "v": 82
    },
    {
      "midi": 44,
      "hit": false,
      "t": 52105.28400000001,
      "d": 1129.3864166666608,
      "v": 78
    },
    {
      "midi": 60,
      "hit": false,
      "t": 52631.600000000006,
      "d": 309.7588958333363,
      "v": 104
    },
    {
      "midi": 65,
      "hit": false,
      "t": 52631.600000000006,
      "d": 328.94750000000204,
      "v": 91
    },
    {
      "midi": 60,
      "hit": false,
      "t": 52631.600000000006,
      "d": 309.7588958333363,
      "v": 104
    },
    {
      "midi": 65,
      "hit": false,
      "t": 52631.600000000006,
      "d": 328.94750000000204,
      "v": 91
    },
    {
      "midi": 60,
      "hit": false,
      "t": 53157.916000000005,
      "d": 71.27195833333099,
      "v": 109
    },
    {
      "midi": 56,
      "hit": false,
      "t": 53157.916000000005,
      "d": 93.2017916666664,
      "v": 73
    },
    {
      "midi": 63,
      "hit": false,
      "t": 53157.916000000005,
      "d": 93.2017916666664,
      "v": 95
    },
    {
      "midi": 68,
      "hit": false,
      "t": 53157.916000000005,
      "d": 117.87285416666418,
      "v": 104
    },
    {
      "midi": 60,
      "hit": false,
      "t": 53157.916000000005,
      "d": 71.27195833333099,
      "v": 109
    },
    {
      "midi": 56,
      "hit": false,
      "t": 53157.916000000005,
      "d": 93.2017916666664,
      "v": 73
    },
    {
      "midi": 63,
      "hit": false,
      "t": 53157.916000000005,
      "d": 93.2017916666664,
      "v": 95
    },
    {
      "midi": 68,
      "hit": false,
      "t": 53157.916000000005,
      "d": 117.87285416666418,
      "v": 104
    },
    {
      "midi": 58,
      "hit": false,
      "t": 53684.232,
      "d": 518.0923125000045,
      "v": 68
    },
    {
      "midi": 61,
      "hit": false,
      "t": 53684.232,
      "d": 663.3774583333361,
      "v": 71
    },
    {
      "midi": 70,
      "hit": false,
      "t": 53684.232,
      "d": 1134.8688750000074,
      "v": 73
    },
    {
      "midi": 66,
      "hit": false,
      "t": 53684.232,
      "d": 1143.092562500009,
      "v": 73
    },
    {
      "midi": 51,
      "hit": false,
      "t": 53684.232,
      "d": 1269.189104166675,
      "v": 64
    },
    {
      "midi": 39,
      "hit": false,
      "t": 53684.232,
      "d": 2749.452854166673,
      "v": 73
    },
    {
      "midi": 58,
      "hit": false,
      "t": 53684.232,
      "d": 518.0923125000045,
      "v": 68
    },
    {
      "midi": 61,
      "hit": false,
      "t": 53684.232,
      "d": 663.3774583333361,
      "v": 71
    },
    {
      "midi": 70,
      "hit": false,
      "t": 53684.232,
      "d": 1134.8688750000074,
      "v": 73
    },
    {
      "midi": 66,
      "hit": false,
      "t": 53684.232,
      "d": 1143.092562500009,
      "v": 73
    },
    {
      "midi": 51,
      "hit": false,
      "t": 53684.232,
      "d": 1269.189104166675,
      "v": 64
    },
    {
      "midi": 39,
      "hit": false,
      "t": 53684.232,
      "d": 2749.452854166673,
      "v": 73
    },
    {
      "midi": 58,
      "hit": false,
      "t": 54210.54800000001,
      "d": 567.4344375000001,
      "v": 57
    },
    {
      "midi": 58,
      "hit": false,
      "t": 54210.54800000001,
      "d": 567.4344375000001,
      "v": 57
    },
    {
      "midi": 61,
      "hit": false,
      "t": 54736.86400000001,
      "d": 82.23687500000233,
      "v": 58
    },
    {
      "midi": 61,
      "hit": false,
      "t": 54736.86400000001,
      "d": 82.23687500000233,
      "v": 58
    },
    {
      "midi": 61,
      "hit": false,
      "t": 55263.180000000015,
      "d": 422.14929166666843,
      "v": 95
    },
    {
      "midi": 66,
      "hit": false,
      "t": 55263.180000000015,
      "d": 430.3729791666701,
      "v": 95
    },
    {
      "midi": 73,
      "hit": false,
      "t": 55263.180000000015,
      "d": 455.0440416666679,
      "v": 95
    },
    {
      "midi": 54,
      "hit": false,
      "t": 55263.180000000015,
      "d": 1123.9039583333288,
      "v": 80
    },
    {
      "midi": 61,
      "hit": false,
      "t": 55263.180000000015,
      "d": 422.14929166666843,
      "v": 95
    },
    {
      "midi": 66,
      "hit": false,
      "t": 55263.180000000015,
      "d": 430.3729791666701,
      "v": 95
    },
    {
      "midi": 73,
      "hit": false,
      "t": 55263.180000000015,
      "d": 455.0440416666679,
      "v": 95
    },
    {
      "midi": 54,
      "hit": false,
      "t": 55263.180000000015,
      "d": 1123.9039583333288,
      "v": 80
    },
    {
      "midi": 61,
      "hit": false,
      "t": 55789.496000000014,
      "d": 378.2896249999976,
      "v": 73
    },
    {
      "midi": 66,
      "hit": false,
      "t": 55789.496000000014,
      "d": 378.2896249999976,
      "v": 64
    },
    {
      "midi": 70,
      "hit": false,
      "t": 55789.496000000014,
      "d": 416.6668333333291,
      "v": 88
    },
    {
      "midi": 61,
      "hit": false,
      "t": 55789.496000000014,
      "d": 378.2896249999976,
      "v": 73
    },
    {
      "midi": 66,
      "hit": false,
      "t": 55789.496000000014,
      "d": 378.2896249999976,
      "v": 64
    },
    {
      "midi": 70,
      "hit": false,
      "t": 55789.496000000014,
      "d": 416.6668333333291,
      "v": 88
    },
    {
      "midi": 61,
      "hit": false,
      "t": 56315.81200000001,
      "d": 65.78949999999895,
      "v": 71
    },
    {
      "midi": 66,
      "hit": false,
      "t": 56315.81200000001,
      "d": 71.27195833333099,
      "v": 73
    },
    {
      "midi": 68,
      "hit": false,
      "t": 56315.81200000001,
      "d": 87.71933333333436,
      "v": 78
    },
    {
      "midi": 61,
      "hit": false,
      "t": 56315.81200000001,
      "d": 65.78949999999895,
      "v": 71
    },
    {
      "midi": 66,
      "hit": false,
      "t": 56315.81200000001,
      "d": 71.27195833333099,
      "v": 73
    },
    {
      "midi": 68,
      "hit": false,
      "t": 56315.81200000001,
      "d": 87.71933333333436,
      "v": 78
    },
    {
      "midi": 58,
      "hit": false,
      "t": 56842.12800000001,
      "d": 759.3204791666722,
      "v": 80
    },
    {
      "midi": 61,
      "hit": false,
      "t": 56842.12800000001,
      "d": 833.3336666666728,
      "v": 74
    },
    {
      "midi": 66,
      "hit": false,
      "t": 56842.12800000001,
      "d": 841.5573541666745,
      "v": 82
    },
    {
      "midi": 70,
      "hit": false,
      "t": 56842.12800000001,
      "d": 847.0398125000065,
      "v": 80
    },
    {
      "midi": 54,
      "hit": false,
      "t": 56842.12800000001,
      "d": 858.0047291666706,
      "v": 66
    },
    {
      "midi": 49,
      "hit": false,
      "t": 56842.12800000001,
      "d": 2376.6456875000076,
      "v": 73
    },
    {
      "midi": 42,
      "hit": false,
      "t": 56842.12800000001,
      "d": 2527.4132916666713,
      "v": 73
    },
    {
      "midi": 58,
      "hit": false,
      "t": 56842.12800000001,
      "d": 759.3204791666722,
      "v": 80
    },
    {
      "midi": 61,
      "hit": false,
      "t": 56842.12800000001,
      "d": 833.3336666666728,
      "v": 74
    },
    {
      "midi": 66,
      "hit": false,
      "t": 56842.12800000001,
      "d": 841.5573541666745,
      "v": 82
    },
    {
      "midi": 70,
      "hit": false,
      "t": 56842.12800000001,
      "d": 847.0398125000065,
      "v": 80
    },
    {
      "midi": 54,
      "hit": false,
      "t": 56842.12800000001,
      "d": 858.0047291666706,
      "v": 66
    },
    {
      "midi": 49,
      "hit": false,
      "t": 56842.12800000001,
      "d": 2376.6456875000076,
      "v": 73
    },
    {
      "midi": 42,
      "hit": false,
      "t": 56842.12800000001,
      "d": 2527.4132916666713,
      "v": 73
    },
    {
      "midi": 54,
      "hit": false,
      "t": 57894.76000000002,
      "d": 320.72381250000035,
      "v": 60
    },
    {
      "midi": 54,
      "hit": false,
      "t": 57894.76000000002,
      "d": 320.72381250000035,
      "v": 60
    },
    {
      "midi": 54,
      "hit": false,
      "t": 58421.076000000015,
      "d": 233.004479166666,
      "v": 74
    },
    {
      "midi": 61,
      "hit": false,
      "t": 58421.076000000015,
      "d": 334.42995833333407,
      "v": 88
    },
    {
      "midi": 66,
      "hit": false,
      "t": 58421.076000000015,
      "d": 370.0659375000032,
      "v": 95
    },
    {
      "midi": 54,
      "hit": false,
      "t": 58421.076000000015,
      "d": 233.004479166666,
      "v": 74
    },
    {
      "midi": 61,
      "hit": false,
      "t": 58421.076000000015,
      "d": 334.42995833333407,
      "v": 88
    },
    {
      "midi": 66,
      "hit": false,
      "t": 58421.076000000015,
      "d": 370.0659375000032,
      "v": 95
    },
    {
      "midi": 58,
      "hit": false,
      "t": 58947.39200000002,
      "d": 98.68424999999843,
      "v": 95
    },
    {
      "midi": 61,
      "hit": false,
      "t": 58947.39200000002,
      "d": 126.09654166666587,
      "v": 88
    },
    {
      "midi": 58,
      "hit": false,
      "t": 58947.39200000002,
      "d": 98.68424999999843,
      "v": 95
    },
    {
      "midi": 61,
      "hit": false,
      "t": 58947.39200000002,
      "d": 126.09654166666587,
      "v": 88
    },
    {
      "midi": 54,
      "hit": false,
      "t": 59473.70800000001,
      "d": 60.30704166666692,
      "v": 95
    },
    {
      "midi": 58,
      "hit": false,
      "t": 59473.70800000001,
      "d": 71.27195833333099,
      "v": 95
    },
    {
      "midi": 54,
      "hit": false,
      "t": 59473.70800000001,
      "d": 60.30704166666692,
      "v": 95
    },
    {
      "midi": 58,
      "hit": false,
      "t": 59473.70800000001,
      "d": 71.27195833333099,
      "v": 95
    },
    {
      "midi": 53,
      "hit": false,
      "t": 60000.02400000001,
      "d": 460.52649999999994,
      "v": 76
    },
    {
      "midi": 61,
      "hit": false,
      "t": 60000.02400000001,
      "d": 699.013437499998,
      "v": 71
    },
    {
      "midi": 56,
      "hit": false,
      "t": 60000.02400000001,
      "d": 709.978354166662,
      "v": 71
    },
    {
      "midi": 65,
      "hit": false,
      "t": 60000.02400000001,
      "d": 786.732770833325,
      "v": 67
    },
    {
      "midi": 49,
      "hit": false,
      "t": 60000.02400000001,
      "d": 1080.044291666658,
      "v": 62
    },
    {
      "midi": 37,
      "hit": false,
      "t": 60000.02400000001,
      "d": 1143.0925624999945,
      "v": 57
    },
    {
      "midi": 53,
      "hit": false,
      "t": 60000.02400000001,
      "d": 460.52649999999994,
      "v": 76
    },
    {
      "midi": 61,
      "hit": false,
      "t": 60000.02400000001,
      "d": 699.013437499998,
      "v": 71
    },
    {
      "midi": 56,
      "hit": false,
      "t": 60000.02400000001,
      "d": 709.978354166662,
      "v": 71
    },
    {
      "midi": 65,
      "hit": false,
      "t": 60000.02400000001,
      "d": 786.732770833325,
      "v": 67
    },
    {
      "midi": 49,
      "hit": false,
      "t": 60000.02400000001,
      "d": 1080.044291666658,
      "v": 62
    },
    {
      "midi": 37,
      "hit": false,
      "t": 60000.02400000001,
      "d": 1143.0925624999945,
      "v": 57
    },
    {
      "midi": 53,
      "hit": false,
      "t": 60526.34000000001,
      "d": 619.5177916666653,
      "v": 67
    },
    {
      "midi": 53,
      "hit": false,
      "t": 60526.34000000001,
      "d": 619.5177916666653,
      "v": 67
    },
    {
      "midi": 61,
      "hit": false,
      "t": 61052.656,
      "d": 104.16670833333774,
      "v": 66
    },
    {
      "midi": 56,
      "hit": false,
      "t": 61052.656,
      "d": 112.39039583333943,
      "v": 71
    },
    {
      "midi": 65,
      "hit": false,
      "t": 61052.656,
      "d": 117.87285416667146,
      "v": 67
    },
    {
      "midi": 61,
      "hit": false,
      "t": 61052.656,
      "d": 104.16670833333774,
      "v": 66
    },
    {
      "midi": 56,
      "hit": false,
      "t": 61052.656,
      "d": 112.39039583333943,
      "v": 71
    },
    {
      "midi": 65,
      "hit": false,
      "t": 61052.656,
      "d": 117.87285416667146,
      "v": 67
    },
    {
      "midi": 63,
      "hit": false,
      "t": 61578.97200000001,
      "d": 773.0266249999986,
      "v": 67
    },
    {
      "midi": 61,
      "hit": false,
      "t": 61578.97200000001,
      "d": 775.7678541666683,
      "v": 63
    },
    {
      "midi": 58,
      "hit": false,
      "t": 61578.97200000001,
      "d": 783.99154166667,
      "v": 73
    },
    {
      "midi": 54,
      "hit": false,
      "t": 61578.97200000001,
      "d": 797.6976875000037,
      "v": 66
    },
    {
      "midi": 66,
      "hit": false,
      "t": 61578.97200000001,
      "d": 874.452104166674,
      "v": 66
    },
    {
      "midi": 46,
      "hit": false,
      "t": 61578.97200000001,
      "d": 1148.5750208333411,
      "v": 67
    },
    {
      "midi": 34,
      "hit": false,
      "t": 61578.97200000001,
      "d": 1181.4697708333406,
      "v": 78
    },
    {
      "midi": 63,
      "hit": false,
      "t": 61578.97200000001,
      "d": 773.0266249999986,
      "v": 67
    },
    {
      "midi": 61,
      "hit": false,
      "t": 61578.97200000001,
      "d": 775.7678541666683,
      "v": 63
    },
    {
      "midi": 58,
      "hit": false,
      "t": 61578.97200000001,
      "d": 783.99154166667,
      "v": 73
    },
    {
      "midi": 54,
      "hit": false,
      "t": 61578.97200000001,
      "d": 797.6976875000037,
      "v": 66
    },
    {
      "midi": 66,
      "hit": false,
      "t": 61578.97200000001,
      "d": 874.452104166674,
      "v": 66
    },
    {
      "midi": 46,
      "hit": false,
      "t": 61578.97200000001,
      "d": 1148.5750208333411,
      "v": 67
    },
    {
      "midi": 34,
      "hit": false,
      "t": 61578.97200000001,
      "d": 1181.4697708333406,
      "v": 78
    },
    {
      "midi": 61,
      "hit": false,
      "t": 62631.604000000014,
      "d": 145.2851458333389,
      "v": 57
    },
    {
      "midi": 63,
      "hit": false,
      "t": 62631.604000000014,
      "d": 145.2851458333389,
      "v": 58
    },
    {
      "midi": 54,
      "hit": false,
      "t": 62631.604000000014,
      "d": 156.25006250000297,
      "v": 66
    },
    {
      "midi": 58,
      "hit": false,
      "t": 62631.604000000014,
      "d": 169.9562083333367,
      "v": 67
    },
    {
      "midi": 61,
      "hit": false,
      "t": 62631.604000000014,
      "d": 145.2851458333389,
      "v": 57
    },
    {
      "midi": 63,
      "hit": false,
      "t": 62631.604000000014,
      "d": 145.2851458333389,
      "v": 58
    },
    {
      "midi": 54,
      "hit": false,
      "t": 62631.604000000014,
      "d": 156.25006250000297,
      "v": 66
    },
    {
      "midi": 58,
      "hit": false,
      "t": 62631.604000000014,
      "d": 169.9562083333367,
      "v": 67
    },
    {
      "midi": 60,
      "hit": false,
      "t": 63157.92000000002,
      "d": 575.6581250000017,
      "v": 73
    },
    {
      "midi": 63,
      "hit": false,
      "t": 63157.92000000002,
      "d": 603.0704166666692,
      "v": 66
    },
    {
      "midi": 32,
      "hit": false,
      "t": 63157.92000000002,
      "d": 633.223937499999,
      "v": 78
    },
    {
      "midi": 58,
      "hit": false,
      "t": 63157.92000000002,
      "d": 729.1669583333351,
      "v": 71
    },
    {
      "midi": 44,
      "hit": false,
      "t": 63157.92000000002,
      "d": 962.171437500001,
      "v": 67
    },
    {
      "midi": 60,
      "hit": false,
      "t": 63157.92000000002,
      "d": 575.6581250000017,
      "v": 73
    },
    {
      "midi": 63,
      "hit": false,
      "t": 63157.92000000002,
      "d": 603.0704166666692,
      "v": 66
    },
    {
      "midi": 32,
      "hit": false,
      "t": 63157.92000000002,
      "d": 633.223937499999,
      "v": 78
    },
    {
      "midi": 58,
      "hit": false,
      "t": 63157.92000000002,
      "d": 729.1669583333351,
      "v": 71
    },
    {
      "midi": 44,
      "hit": false,
      "t": 63157.92000000002,
      "d": 962.171437500001,
      "v": 67
    },
    {
      "midi": 68,
      "hit": false,
      "t": 64210.55200000002,
      "d": 1959.9788541666712,
      "v": 104
    },
    {
      "midi": 68,
      "hit": false,
      "t": 64210.55200000002,
      "d": 1959.9788541666712,
      "v": 104
    },
    {
      "midi": 63,
      "hit": false,
      "t": 64561.42933333335,
      "d": 235.74570833333564,
      "v": 82
    },
    {
      "midi": 63,
      "hit": false,
      "t": 64561.42933333335,
      "d": 235.74570833333564,
      "v": 82
    },
    {
      "midi": 56,
      "hit": false,
      "t": 64736.86800000002,
      "d": 452.30281249999825,
      "v": 68
    },
    {
      "midi": 60,
      "hit": false,
      "t": 64736.86800000002,
      "d": 561.951979166668,
      "v": 74
    },
    {
      "midi": 51,
      "hit": false,
      "t": 64736.86800000002,
      "d": 1167.7636249999923,
      "v": 82
    },
    {
      "midi": 44,
      "hit": false,
      "t": 64736.86800000002,
      "d": 1203.3996041666687,
      "v": 80
    },
    {
      "midi": 56,
      "hit": false,
      "t": 64736.86800000002,
      "d": 452.30281249999825,
      "v": 68
    },
    {
      "midi": 60,
      "hit": false,
      "t": 64736.86800000002,
      "d": 561.951979166668,
      "v": 74
    },
    {
      "midi": 51,
      "hit": false,
      "t": 64736.86800000002,
      "d": 1167.7636249999923,
      "v": 82
    },
    {
      "midi": 44,
      "hit": false,
      "t": 64736.86800000002,
      "d": 1203.3996041666687,
      "v": 80
    },
    {
      "midi": 56,
      "hit": false,
      "t": 65263.184000000016,
      "d": 937.5003750000105,
      "v": 82
    },
    {
      "midi": 56,
      "hit": false,
      "t": 65263.184000000016,
      "d": 937.5003750000105,
      "v": 82
    },
    {
      "midi": 61,
      "hit": false,
      "t": 65789.50000000001,
      "d": 131.5789999999979,
      "v": 80
    },
    {
      "midi": 58,
      "hit": false,
      "t": 65789.50000000001,
      "d": 150.76760416667094,
      "v": 95
    },
    {
      "midi": 61,
      "hit": false,
      "t": 65789.50000000001,
      "d": 131.5789999999979,
      "v": 80
    },
    {
      "midi": 58,
      "hit": false,
      "t": 65789.50000000001,
      "d": 150.76760416667094,
      "v": 95
    },
    {
      "midi": 60,
      "hit": false,
      "t": 66140.37733333335,
      "d": 76.75441666667757,
      "v": 80
    },
    {
      "midi": 63,
      "hit": false,
      "t": 66140.37733333335,
      "d": 137.0614583333372,
      "v": 78
    },
    {
      "midi": 60,
      "hit": false,
      "t": 66140.37733333335,
      "d": 76.75441666667757,
      "v": 80
    },
    {
      "midi": 63,
      "hit": false,
      "t": 66140.37733333335,
      "d": 137.0614583333372,
      "v": 78
    },
    {
      "midi": 56,
      "hit": false,
      "t": 66315.81600000004,
      "d": 427.63175000000047,
      "v": 91
    },
    {
      "midi": 61,
      "hit": false,
      "t": 66315.81600000004,
      "d": 561.951979166668,
      "v": 88
    },
    {
      "midi": 68,
      "hit": false,
      "t": 66315.81600000004,
      "d": 1151.3162500000035,
      "v": 74
    },
    {
      "midi": 65,
      "hit": false,
      "t": 66315.81600000004,
      "d": 1154.0574791666731,
      "v": 74
    },
    {
      "midi": 49,
      "hit": false,
      "t": 66315.81600000004,
      "d": 1228.0706666666665,
      "v": 67
    },
    {
      "midi": 37,
      "hit": false,
      "t": 66315.81600000004,
      "d": 2702.8519583333255,
      "v": 73
    },
    {
      "midi": 56,
      "hit": false,
      "t": 66315.81600000004,
      "d": 427.63175000000047,
      "v": 91
    },
    {
      "midi": 61,
      "hit": false,
      "t": 66315.81600000004,
      "d": 561.951979166668,
      "v": 88
    },
    {
      "midi": 68,
      "hit": false,
      "t": 66315.81600000004,
      "d": 1151.3162500000035,
      "v": 74
    },
    {
      "midi": 65,
      "hit": false,
      "t": 66315.81600000004,
      "d": 1154.0574791666731,
      "v": 74
    },
    {
      "midi": 49,
      "hit": false,
      "t": 66315.81600000004,
      "d": 1228.0706666666665,
      "v": 67
    },
    {
      "midi": 37,
      "hit": false,
      "t": 66315.81600000004,
      "d": 2702.8519583333255,
      "v": 73
    },
    {
      "midi": 56,
      "hit": false,
      "t": 66842.13200000004,
      "d": 709.9783541666548,
      "v": 71
    },
    {
      "midi": 56,
      "hit": false,
      "t": 66842.13200000004,
      "d": 709.9783541666548,
      "v": 71
    },
    {
      "midi": 61,
      "hit": false,
      "t": 67368.44800000003,
      "d": 123.35531250000349,
      "v": 67
    },
    {
      "midi": 61,
      "hit": false,
      "t": 67368.44800000003,
      "d": 123.35531250000349,
      "v": 67
    },
    {
      "midi": 54,
      "hit": false,
      "t": 67894.76400000002,
      "d": 427.63175000000047,
      "v": 60
    },
    {
      "midi": 58,
      "hit": false,
      "t": 67894.76400000002,
      "d": 616.7765625000029,
      "v": 68
    },
    {
      "midi": 61,
      "hit": false,
      "t": 67894.76400000002,
      "d": 811.4038333333301,
      "v": 59
    },
    {
      "midi": 42,
      "hit": false,
      "t": 67894.76400000002,
      "d": 1148.5750208333338,
      "v": 64
    },
    {
      "midi": 49,
      "hit": false,
      "t": 67894.76400000002,
      "d": 1154.0574791666731,
      "v": 56
    },
    {
      "midi": 65,
      "hit": false,
      "t": 67894.76400000002,
      "d": 1181.4697708333406,
      "v": 62
    },
    {
      "midi": 54,
      "hit": false,
      "t": 67894.76400000002,
      "d": 427.63175000000047,
      "v": 60
    },
    {
      "midi": 58,
      "hit": false,
      "t": 67894.76400000002,
      "d": 616.7765625000029,
      "v": 68
    },
    {
      "midi": 61,
      "hit": false,
      "t": 67894.76400000002,
      "d": 811.4038333333301,
      "v": 59
    },
    {
      "midi": 42,
      "hit": false,
      "t": 67894.76400000002,
      "d": 1148.5750208333338,
      "v": 64
    },
    {
      "midi": 49,
      "hit": false,
      "t": 67894.76400000002,
      "d": 1154.0574791666731,
      "v": 56
    },
    {
      "midi": 65,
      "hit": false,
      "t": 67894.76400000002,
      "d": 1181.4697708333406,
      "v": 62
    },
    {
      "midi": 54,
      "hit": false,
      "t": 68421.08000000003,
      "d": 668.8599166666681,
      "v": 64
    },
    {
      "midi": 54,
      "hit": false,
      "t": 68421.08000000003,
      "d": 668.8599166666681,
      "v": 64
    },
    {
      "midi": 58,
      "hit": false,
      "t": 68947.39600000002,
      "d": 164.47375000000466,
      "v": 91
    },
    {
      "midi": 58,
      "hit": false,
      "t": 68947.39600000002,
      "d": 164.47375000000466,
      "v": 91
    },
    {
      "midi": 53,
      "hit": false,
      "t": 69473.71200000003,
      "d": 405.70191666667233,
      "v": 73
    },
    {
      "midi": 56,
      "hit": false,
      "t": 69473.71200000003,
      "d": 622.2590208333422,
      "v": 74
    },
    {
      "midi": 61,
      "hit": false,
      "t": 69473.71200000003,
      "d": 794.9564583333413,
      "v": 66
    },
    {
      "midi": 49,
      "hit": false,
      "t": 69473.71200000003,
      "d": 1318.5312291666778,
      "v": 56
    },
    {
      "midi": 65,
      "hit": false,
      "t": 69473.71200000003,
      "d": 1406.250562500005,
      "v": 68
    },
    {
      "midi": 37,
      "hit": false,
      "t": 69473.71200000003,
      "d": 2480.8123958333454,
      "v": 59
    },
    {
      "midi": 44,
      "hit": false,
      "t": 69473.71200000003,
      "d": 2510.9659166666825,
      "v": 67
    },
    {
      "midi": 53,
      "hit": false,
      "t": 69473.71200000003,
      "d": 405.70191666667233,
      "v": 73
    },
    {
      "midi": 56,
      "hit": false,
      "t": 69473.71200000003,
      "d": 622.2590208333422,
      "v": 74
    },
    {
      "midi": 61,
      "hit": false,
      "t": 69473.71200000003,
      "d": 794.9564583333413,
      "v": 66
    },
    {
      "midi": 49,
      "hit": false,
      "t": 69473.71200000003,
      "d": 1318.5312291666778,
      "v": 56
    },
    {
      "midi": 65,
      "hit": false,
      "t": 69473.71200000003,
      "d": 1406.250562500005,
      "v": 68
    },
    {
      "midi": 37,
      "hit": false,
      "t": 69473.71200000003,
      "d": 2480.8123958333454,
      "v": 59
    },
    {
      "midi": 44,
      "hit": false,
      "t": 69473.71200000003,
      "d": 2510.9659166666825,
      "v": 67
    },
    {
      "midi": 53,
      "hit": false,
      "t": 70000.02800000003,
      "d": 800.438916666666,
      "v": 66
    },
    {
      "midi": 53,
      "hit": false,
      "t": 70000.02800000003,
      "d": 800.438916666666,
      "v": 66
    },
    {
      "midi": 56,
      "hit": false,
      "t": 70526.34400000004,
      "d": 345.39487499999814,
      "v": 80
    },
    {
      "midi": 56,
      "hit": false,
      "t": 70526.34400000004,
      "d": 345.39487499999814,
      "v": 80
    },
    {
      "midi": 56,
      "hit": false,
      "t": 71052.66000000003,
      "d": 57.56581250000454,
      "v": 91
    },
    {
      "midi": 61,
      "hit": false,
      "t": 71052.66000000003,
      "d": 79.49564583333267,
      "v": 88
    },
    {
      "midi": 65,
      "hit": false,
      "t": 71052.66000000003,
      "d": 84.97810416667198,
      "v": 91
    },
    {
      "midi": 49,
      "hit": false,
      "t": 71052.66000000003,
      "d": 978.618812500019,
      "v": 74
    },
    {
      "midi": 56,
      "hit": false,
      "t": 71052.66000000003,
      "d": 57.56581250000454,
      "v": 91
    },
    {
      "midi": 61,
      "hit": false,
      "t": 71052.66000000003,
      "d": 79.49564583333267,
      "v": 88
    },
    {
      "midi": 65,
      "hit": false,
      "t": 71052.66000000003,
      "d": 84.97810416667198,
      "v": 91
    },
    {
      "midi": 49,
      "hit": false,
      "t": 71052.66000000003,
      "d": 978.618812500019,
      "v": 74
    },
    {
      "midi": 61,
      "hit": false,
      "t": 71578.97600000004,
      "d": 52.08335416666523,
      "v": 71
    },
    {
      "midi": 65,
      "hit": false,
      "t": 71578.97600000004,
      "d": 550.987062500004,
      "v": 85
    },
    {
      "midi": 56,
      "hit": false,
      "t": 71578.97600000004,
      "d": 567.4344375000073,
      "v": 95
    },
    {
      "midi": 61,
      "hit": false,
      "t": 71578.97600000004,
      "d": 52.08335416666523,
      "v": 71
    },
    {
      "midi": 65,
      "hit": false,
      "t": 71578.97600000004,
      "d": 550.987062500004,
      "v": 85
    },
    {
      "midi": 56,
      "hit": false,
      "t": 71578.97600000004,
      "d": 567.4344375000073,
      "v": 95
    },
    {
      "midi": 61,
      "hit": false,
      "t": 72105.29200000004,
      "d": 68.5307291666686,
      "v": 95
    },
    {
      "midi": 68,
      "hit": false,
      "t": 72105.29200000004,
      "d": 104.16670833333046,
      "v": 114
    },
    {
      "midi": 61,
      "hit": false,
      "t": 72105.29200000004,
      "d": 68.5307291666686,
      "v": 95
    },
    {
      "midi": 68,
      "hit": false,
      "t": 72105.29200000004,
      "d": 104.16670833333046,
      "v": 114
    },
    {
      "midi": 56,
      "hit": false,
      "t": 72631.60800000004,
      "d": 466.008958333332,
      "v": 73
    },
    {
      "midi": 63,
      "hit": false,
      "t": 72631.60800000004,
      "d": 468.75018750000163,
      "v": 63
    },
    {
      "midi": 60,
      "hit": false,
      "t": 72631.60800000004,
      "d": 561.951979166668,
      "v": 68
    },
    {
      "midi": 53,
      "hit": false,
      "t": 72631.60800000004,
      "d": 1025.219708333345,
      "v": 63
    },
    {
      "midi": 68,
      "hit": false,
      "t": 72631.60800000004,
      "d": 1071.8206041666854,
      "v": 74
    },
    {
      "midi": 48,
      "hit": false,
      "t": 72631.60800000004,
      "d": 2686.4045833333803,
      "v": 70
    },
    {
      "midi": 41,
      "hit": false,
      "t": 72631.60800000004,
      "d": 2746.7116250000545,
      "v": 70
    },
    {
      "midi": 56,
      "hit": false,
      "t": 72631.60800000004,
      "d": 466.008958333332,
      "v": 73
    },
    {
      "midi": 63,
      "hit": false,
      "t": 72631.60800000004,
      "d": 468.75018750000163,
      "v": 63
    },
    {
      "midi": 60,
      "hit": false,
      "t": 72631.60800000004,
      "d": 561.951979166668,
      "v": 68
    },
    {
      "midi": 53,
      "hit": false,
      "t": 72631.60800000004,
      "d": 1025.219708333345,
      "v": 63
    },
    {
      "midi": 68,
      "hit": false,
      "t": 72631.60800000004,
      "d": 1071.8206041666854,
      "v": 74
    },
    {
      "midi": 48,
      "hit": false,
      "t": 72631.60800000004,
      "d": 2686.4045833333803,
      "v": 70
    },
    {
      "midi": 41,
      "hit": false,
      "t": 72631.60800000004,
      "d": 2746.7116250000545,
      "v": 70
    },
    {
      "midi": 56,
      "hit": false,
      "t": 73157.92400000004,
      "d": 493.4212499999994,
      "v": 67
    },
    {
      "midi": 56,
      "hit": false,
      "t": 73157.92400000004,
      "d": 493.4212499999994,
      "v": 67
    },
    {
      "midi": 60,
      "hit": false,
      "t": 73684.24000000005,
      "d": 46.60089583334047,
      "v": 67
    },
    {
      "midi": 60,
      "hit": false,
      "t": 73684.24000000005,
      "d": 46.60089583334047,
      "v": 67
    },
    {
      "midi": 60,
      "hit": false,
      "t": 74210.55600000006,
      "d": 378.2896250000049,
      "v": 82
    },
    {
      "midi": 65,
      "hit": false,
      "t": 74210.55600000006,
      "d": 529.0572291666758,
      "v": 80
    },
    {
      "midi": 68,
      "hit": false,
      "t": 74210.55600000006,
      "d": 660.6362291666883,
      "v": 74
    },
    {
      "midi": 56,
      "hit": false,
      "t": 74210.55600000006,
      "d": 1066.3381458333606,
      "v": 71
    },
    {
      "midi": 60,
      "hit": false,
      "t": 74210.55600000006,
      "d": 378.2896250000049,
      "v": 82
    },
    {
      "midi": 65,
      "hit": false,
      "t": 74210.55600000006,
      "d": 529.0572291666758,
      "v": 80
    },
    {
      "midi": 68,
      "hit": false,
      "t": 74210.55600000006,
      "d": 660.6362291666883,
      "v": 74
    },
    {
      "midi": 56,
      "hit": false,
      "t": 74210.55600000006,
      "d": 1066.3381458333606,
      "v": 71
    },
    {
      "midi": 60,
      "hit": false,
      "t": 74736.87200000006,
      "d": 101.42547916667536,
      "v": 65
    },
    {
      "midi": 60,
      "hit": false,
      "t": 74736.87200000006,
      "d": 101.42547916667536,
      "v": 65
    },
    {
      "midi": 65,
      "hit": false,
      "t": 75263.18800000008,
      "d": 95.94302083333605,
      "v": 74
    },
    {
      "midi": 65,
      "hit": false,
      "t": 75263.18800000008,
      "d": 95.94302083333605,
      "v": 74
    },
    {
      "midi": 60,
      "hit": false,
      "t": 75789.50400000009,
      "d": 424.89052083334536,
      "v": 64
    },
    {
      "midi": 65,
      "hit": false,
      "t": 75789.50400000009,
      "d": 578.3993541666714,
      "v": 67
    },
    {
      "midi": 72,
      "hit": false,
      "t": 75789.50400000009,
      "d": 614.0353333333478,
      "v": 67
    },
    {
      "midi": 68,
      "hit": false,
      "t": 75789.50400000009,
      "d": 619.5177916666871,
      "v": 60
    },
    {
      "midi": 48,
      "hit": false,
      "t": 75789.50400000009,
      "d": 1244.5180416666844,
      "v": 64
    },
    {
      "midi": 41,
      "hit": false,
      "t": 75789.50400000009,
      "d": 1258.2241875000182,
      "v": 62
    },
    {
      "midi": 53,
      "hit": false,
      "t": 75789.50400000009,
      "d": 1263.7066458333575,
      "v": 63
    },
    {
      "midi": 60,
      "hit": false,
      "t": 75789.50400000009,
      "d": 424.89052083334536,
      "v": 64
    },
    {
      "midi": 65,
      "hit": false,
      "t": 75789.50400000009,
      "d": 578.3993541666714,
      "v": 67
    },
    {
      "midi": 72,
      "hit": false,
      "t": 75789.50400000009,
      "d": 614.0353333333478,
      "v": 67
    },
    {
      "midi": 68,
      "hit": false,
      "t": 75789.50400000009,
      "d": 619.5177916666871,
      "v": 60
    },
    {
      "midi": 48,
      "hit": false,
      "t": 75789.50400000009,
      "d": 1244.5180416666844,
      "v": 64
    },
    {
      "midi": 41,
      "hit": false,
      "t": 75789.50400000009,
      "d": 1258.2241875000182,
      "v": 62
    },
    {
      "midi": 53,
      "hit": false,
      "t": 75789.50400000009,
      "d": 1263.7066458333575,
      "v": 63
    },
    {
      "midi": 60,
      "hit": false,
      "t": 76315.8200000001,
      "d": 84.97810416667198,
      "v": 41
    },
    {
      "midi": 60,
      "hit": false,
      "t": 76315.8200000001,
      "d": 84.97810416667198,
      "v": 41
    },
    {
      "midi": 68,
      "hit": false,
      "t": 76842.13600000012,
      "d": 74.01318749999336,
      "v": 71
    },
    {
      "midi": 65,
      "hit": false,
      "t": 76842.13600000012,
      "d": 90.46056249999674,
      "v": 78
    },
    {
      "midi": 68,
      "hit": false,
      "t": 76842.13600000012,
      "d": 74.01318749999336,
      "v": 71
    },
    {
      "midi": 65,
      "hit": false,
      "t": 76842.13600000012,
      "d": 90.46056249999674,
      "v": 78
    },
    {
      "midi": 41,
      "hit": false,
      "t": 77368.4520000001,
      "d": 830.5924374999886,
      "v": 85
    },
    {
      "midi": 53,
      "hit": false,
      "t": 77368.4520000001,
      "d": 953.9477499999921,
      "v": 82
    },
    {
      "midi": 56,
      "hit": false,
      "t": 77368.4520000001,
      "d": 1047.1495416666585,
      "v": 91
    },
    {
      "midi": 68,
      "hit": false,
      "t": 77368.4520000001,
      "d": 1055.3732291666674,
      "v": 88
    },
    {
      "midi": 49,
      "hit": false,
      "t": 77368.4520000001,
      "d": 1058.114458333337,
      "v": 88
    },
    {
      "midi": 41,
      "hit": false,
      "t": 77368.4520000001,
      "d": 830.5924374999886,
      "v": 85
    },
    {
      "midi": 53,
      "hit": false,
      "t": 77368.4520000001,
      "d": 953.9477499999921,
      "v": 82
    },
    {
      "midi": 56,
      "hit": false,
      "t": 77368.4520000001,
      "d": 1047.1495416666585,
      "v": 91
    },
    {
      "midi": 68,
      "hit": false,
      "t": 77368.4520000001,
      "d": 1055.3732291666674,
      "v": 88
    },
    {
      "midi": 49,
      "hit": false,
      "t": 77368.4520000001,
      "d": 1058.114458333337,
      "v": 88
    },
    {
      "midi": 65,
      "hit": false,
      "t": 77894.7680000001,
      "d": 561.9519791666826,
      "v": 91
    },
    {
      "midi": 65,
      "hit": false,
      "t": 77894.7680000001,
      "d": 561.9519791666826,
      "v": 91
    },
    {
      "midi": 61,
      "hit": false,
      "t": 78421.0840000001,
      "d": 63.04827083334385,
      "v": 95
    },
    {
      "midi": 61,
      "hit": false,
      "t": 78421.0840000001,
      "d": 63.04827083334385,
      "v": 95
    },
    {
      "midi": 58,
      "hit": false,
      "t": 78947.40000000013,
      "d": 455.04404166665336,
      "v": 95
    },
    {
      "midi": 61,
      "hit": false,
      "t": 78947.40000000013,
      "d": 641.4476249999861,
      "v": 91
    },
    {
      "midi": 70,
      "hit": false,
      "t": 78947.40000000013,
      "d": 1058.1144583333225,
      "v": 95
    },
    {
      "midi": 66,
      "hit": false,
      "t": 78947.40000000013,
      "d": 1080.0442916666507,
      "v": 95
    },
    {
      "midi": 54,
      "hit": false,
      "t": 78947.40000000013,
      "d": 1200.6583749999845,
      "v": 95
    },
    {
      "midi": 49,
      "hit": false,
      "t": 78947.40000000013,
      "d": 2798.794979166676,
      "v": 80
    },
    {
      "midi": 42,
      "hit": false,
      "t": 78947.40000000013,
      "d": 2807.0186666666705,
      "v": 80
    },
    {
      "midi": 58,
      "hit": false,
      "t": 78947.40000000013,
      "d": 455.04404166665336,
      "v": 95
    },
    {
      "midi": 61,
      "hit": false,
      "t": 78947.40000000013,
      "d": 641.4476249999861,
      "v": 91
    },
    {
      "midi": 70,
      "hit": false,
      "t": 78947.40000000013,
      "d": 1058.1144583333225,
      "v": 95
    },
    {
      "midi": 66,
      "hit": false,
      "t": 78947.40000000013,
      "d": 1080.0442916666507,
      "v": 95
    },
    {
      "midi": 54,
      "hit": false,
      "t": 78947.40000000013,
      "d": 1200.6583749999845,
      "v": 95
    },
    {
      "midi": 49,
      "hit": false,
      "t": 78947.40000000013,
      "d": 2798.794979166676,
      "v": 80
    },
    {
      "midi": 42,
      "hit": false,
      "t": 78947.40000000013,
      "d": 2807.0186666666705,
      "v": 80
    },
    {
      "midi": 58,
      "hit": false,
      "t": 79473.71600000012,
      "d": 518.0923124999972,
      "v": 80
    },
    {
      "midi": 58,
      "hit": false,
      "t": 79473.71600000012,
      "d": 518.0923124999972,
      "v": 80
    },
    {
      "midi": 61,
      "hit": false,
      "t": 80000.03200000011,
      "d": 117.87285416666418,
      "v": 74
    },
    {
      "midi": 61,
      "hit": false,
      "t": 80000.03200000011,
      "d": 117.87285416666418,
      "v": 74
    },
    {
      "midi": 61,
      "hit": false,
      "t": 80526.34800000011,
      "d": 452.30281249999825,
      "v": 80
    },
    {
      "midi": 70,
      "hit": false,
      "t": 80526.34800000011,
      "d": 496.1624791666691,
      "v": 82
    },
    {
      "midi": 54,
      "hit": false,
      "t": 80526.34800000011,
      "d": 1167.7636250000214,
      "v": 73
    },
    {
      "midi": 61,
      "hit": false,
      "t": 80526.34800000011,
      "d": 452.30281249999825,
      "v": 80
    },
    {
      "midi": 70,
      "hit": false,
      "t": 80526.34800000011,
      "d": 496.1624791666691,
      "v": 82
    },
    {
      "midi": 54,
      "hit": false,
      "t": 80526.34800000011,
      "d": 1167.7636250000214,
      "v": 73
    },
    {
      "midi": 58,
      "hit": false,
      "t": 81052.66400000012,
      "d": 534.5396875000006,
      "v": 48
    },
    {
      "midi": 66,
      "hit": false,
      "t": 81052.66400000012,
      "d": 594.8467291666748,
      "v": 61
    },
    {
      "midi": 58,
      "hit": false,
      "t": 81052.66400000012,
      "d": 534.5396875000006,
      "v": 48
    },
    {
      "midi": 66,
      "hit": false,
      "t": 81052.66400000012,
      "d": 594.8467291666748,
      "v": 61
    },
    {
      "midi": 61,
      "hit": false,
      "t": 81578.98000000013,
      "d": 65.78949999999895,
      "v": 54
    },
    {
      "midi": 61,
      "hit": false,
      "t": 81578.98000000013,
      "d": 65.78949999999895,
      "v": 54
    },
    {
      "midi": 56,
      "hit": false,
      "t": 82105.29600000013,
      "d": 476.97387499999604,
      "v": 62
    },
    {
      "midi": 58,
      "hit": false,
      "t": 82105.29600000013,
      "d": 482.45633333333535,
      "v": 63
    },
    {
      "midi": 61,
      "hit": false,
      "t": 82105.29600000013,
      "d": 581.140583333341,
      "v": 55
    },
    {
      "midi": 66,
      "hit": false,
      "t": 82105.29600000013,
      "d": 838.8161250000121,
      "v": 63
    },
    {
      "midi": 54,
      "hit": false,
      "t": 82105.29600000013,
      "d": 1101.974125000008,
      "v": 56
    },
    {
      "midi": 42,
      "hit": false,
      "t": 82105.29600000013,
      "d": 1197.9171458333294,
      "v": 61
    },
    {
      "midi": 49,
      "hit": false,
      "t": 82105.29600000013,
      "d": 1225.3294374999969,
      "v": 58
    },
    {
      "midi": 56,
      "hit": false,
      "t": 82105.29600000013,
      "d": 476.97387499999604,
      "v": 62
    },
    {
      "midi": 58,
      "hit": false,
      "t": 82105.29600000013,
      "d": 482.45633333333535,
      "v": 63
    },
    {
      "midi": 61,
      "hit": false,
      "t": 82105.29600000013,
      "d": 581.140583333341,
      "v": 55
    },
    {
      "midi": 66,
      "hit": false,
      "t": 82105.29600000013,
      "d": 838.8161250000121,
      "v": 63
    },
    {
      "midi": 54,
      "hit": false,
      "t": 82105.29600000013,
      "d": 1101.974125000008,
      "v": 56
    },
    {
      "midi": 42,
      "hit": false,
      "t": 82105.29600000013,
      "d": 1197.9171458333294,
      "v": 61
    },
    {
      "midi": 49,
      "hit": false,
      "t": 82105.29600000013,
      "d": 1225.3294374999969,
      "v": 58
    },
    {
      "midi": 56,
      "hit": false,
      "t": 82631.61200000014,
      "d": 339.9124166666734,
      "v": 57
    },
    {
      "midi": 56,
      "hit": false,
      "t": 82631.61200000014,
      "d": 339.9124166666734,
      "v": 57
    },
    {
      "midi": 58,
      "hit": false,
      "t": 83157.92800000015,
      "d": 71.27195833332371,
      "v": 80
    },
    {
      "midi": 58,
      "hit": false,
      "t": 83157.92800000015,
      "d": 71.27195833332371,
      "v": 80
    },
    {
      "midi": 49,
      "hit": false,
      "t": 83684.24400000014,
      "d": 444.07912500000384,
      "v": 67
    },
    {
      "midi": 66,
      "hit": false,
      "t": 83684.24400000014,
      "d": 449.56158333334315,
      "v": 95
    },
    {
      "midi": 58,
      "hit": false,
      "t": 83684.24400000014,
      "d": 531.7984583333455,
      "v": 104
    },
    {
      "midi": 42,
      "hit": false,
      "t": 83684.24400000014,
      "d": 910.0880833333504,
      "v": 78
    },
    {
      "midi": 49,
      "hit": false,
      "t": 83684.24400000014,
      "d": 444.07912500000384,
      "v": 67
    },
    {
      "midi": 66,
      "hit": false,
      "t": 83684.24400000014,
      "d": 449.56158333334315,
      "v": 95
    },
    {
      "midi": 58,
      "hit": false,
      "t": 83684.24400000014,
      "d": 531.7984583333455,
      "v": 104
    },
    {
      "midi": 42,
      "hit": false,
      "t": 83684.24400000014,
      "d": 910.0880833333504,
      "v": 78
    },
    {
      "midi": 54,
      "hit": false,
      "t": 84210.56000000014,
      "d": 52.08335416667978,
      "v": 104
    },
    {
      "midi": 61,
      "hit": false,
      "t": 84210.56000000014,
      "d": 60.307041666674195,
      "v": 88
    },
    {
      "midi": 54,
      "hit": false,
      "t": 84210.56000000014,
      "d": 52.08335416667978,
      "v": 104
    },
    {
      "midi": 61,
      "hit": false,
      "t": 84210.56000000014,
      "d": 60.307041666674195,
      "v": 88
    },
    {
      "midi": 49,
      "hit": false,
      "t": 84736.87600000015,
      "d": 54.824583333334886,
      "v": 88
    },
    {
      "midi": 54,
      "hit": false,
      "t": 84736.87600000015,
      "d": 60.307041666674195,
      "v": 88
    },
    {
      "midi": 58,
      "hit": false,
      "t": 84736.87600000015,
      "d": 74.01318750000792,
      "v": 82
    },
    {
      "midi": 49,
      "hit": false,
      "t": 84736.87600000015,
      "d": 54.824583333334886,
      "v": 88
    },
    {
      "midi": 54,
      "hit": false,
      "t": 84736.87600000015,
      "d": 60.307041666674195,
      "v": 88
    },
    {
      "midi": 58,
      "hit": false,
      "t": 84736.87600000015,
      "d": 74.01318750000792,
      "v": 82
    },
    {
      "midi": 49,
      "hit": false,
      "t": 85263.19200000017,
      "d": 370.0659374999959,
      "v": 62
    },
    {
      "midi": 53,
      "hit": false,
      "t": 85263.19200000017,
      "d": 570.1756666666624,
      "v": 78
    },
    {
      "midi": 56,
      "hit": false,
      "t": 85263.19200000017,
      "d": 715.4608124999941,
      "v": 71
    },
    {
      "midi": 44,
      "hit": false,
      "t": 85263.19200000017,
      "d": 945.7240624999977,
      "v": 71
    },
    {
      "midi": 61,
      "hit": false,
      "t": 85263.19200000017,
      "d": 948.4652916666673,
      "v": 61
    },
    {
      "midi": 37,
      "hit": false,
      "t": 85263.19200000017,
      "d": 995.0661875000078,
      "v": 66
    },
    {
      "midi": 49,
      "hit": false,
      "t": 85263.19200000017,
      "d": 370.0659374999959,
      "v": 62
    },
    {
      "midi": 53,
      "hit": false,
      "t": 85263.19200000017,
      "d": 570.1756666666624,
      "v": 78
    },
    {
      "midi": 56,
      "hit": false,
      "t": 85263.19200000017,
      "d": 715.4608124999941,
      "v": 71
    },
    {
      "midi": 44,
      "hit": false,
      "t": 85263.19200000017,
      "d": 945.7240624999977,
      "v": 71
    },
    {
      "midi": 61,
      "hit": false,
      "t": 85263.19200000017,
      "d": 948.4652916666673,
      "v": 61
    },
    {
      "midi": 37,
      "hit": false,
      "t": 85263.19200000017,
      "d": 995.0661875000078,
      "v": 66
    },
    {
      "midi": 49,
      "hit": false,
      "t": 85789.50800000016,
      "d": 219.29833333333954,
      "v": 57
    },
    {
      "midi": 49,
      "hit": false,
      "t": 85789.50800000016,
      "d": 219.29833333333954,
      "v": 57
    },
    {
      "midi": 53,
      "hit": false,
      "t": 86315.82400000018,
      "d": 63.0482708333293,
      "v": 78
    },
    {
      "midi": 53,
      "hit": false,
      "t": 86315.82400000018,
      "d": 63.0482708333293,
      "v": 78
    },
    {
      "midi": 53,
      "hit": false,
      "t": 86842.14000000017,
      "d": 449.5615833333286,
      "v": 78
    },
    {
      "midi": 61,
      "hit": false,
      "t": 86842.14000000017,
      "d": 468.75018750000163,
      "v": 63
    },
    {
      "midi": 56,
      "hit": false,
      "t": 86842.14000000017,
      "d": 553.7282916666736,
      "v": 78
    },
    {
      "midi": 46,
      "hit": false,
      "t": 86842.14000000017,
      "d": 1189.693458333335,
      "v": 74
    },
    {
      "midi": 34,
      "hit": false,
      "t": 86842.14000000017,
      "d": 1228.0706666666665,
      "v": 80
    },
    {
      "midi": 53,
      "hit": false,
      "t": 86842.14000000017,
      "d": 449.5615833333286,
      "v": 78
    },
    {
      "midi": 61,
      "hit": false,
      "t": 86842.14000000017,
      "d": 468.75018750000163,
      "v": 63
    },
    {
      "midi": 56,
      "hit": false,
      "t": 86842.14000000017,
      "d": 553.7282916666736,
      "v": 78
    },
    {
      "midi": 46,
      "hit": false,
      "t": 86842.14000000017,
      "d": 1189.693458333335,
      "v": 74
    },
    {
      "midi": 34,
      "hit": false,
      "t": 86842.14000000017,
      "d": 1228.0706666666665,
      "v": 80
    },
    {
      "midi": 54,
      "hit": false,
      "t": 87368.45600000018,
      "d": 751.0967916666559,
      "v": 91
    },
    {
      "midi": 58,
      "hit": false,
      "t": 87368.45600000018,
      "d": 751.0967916666559,
      "v": 91
    },
    {
      "midi": 61,
      "hit": false,
      "t": 87368.45600000018,
      "d": 775.7678541666537,
      "v": 78
    },
    {
      "midi": 54,
      "hit": false,
      "t": 87368.45600000018,
      "d": 751.0967916666559,
      "v": 91
    },
    {
      "midi": 58,
      "hit": false,
      "t": 87368.45600000018,
      "d": 751.0967916666559,
      "v": 91
    },
    {
      "midi": 61,
      "hit": false,
      "t": 87368.45600000018,
      "d": 775.7678541666537,
      "v": 78
    },
    {
      "midi": 51,
      "hit": false,
      "t": 88421.08800000016,
      "d": 361.8422500000015,
      "v": 63
    },
    {
      "midi": 56,
      "hit": false,
      "t": 88421.08800000016,
      "d": 583.8818125000107,
      "v": 71
    },
    {
      "midi": 60,
      "hit": false,
      "t": 88421.08800000016,
      "d": 1041.6670833333483,
      "v": 71
    },
    {
      "midi": 32,
      "hit": false,
      "t": 88421.08800000016,
      "d": 2346.4921666667215,
      "v": 74
    },
    {
      "midi": 44,
      "hit": false,
      "t": 88421.08800000016,
      "d": 2508.2246875000565,
      "v": 66
    },
    {
      "midi": 51,
      "hit": false,
      "t": 88421.08800000016,
      "d": 361.8422500000015,
      "v": 63
    },
    {
      "midi": 56,
      "hit": false,
      "t": 88421.08800000016,
      "d": 583.8818125000107,
      "v": 71
    },
    {
      "midi": 60,
      "hit": false,
      "t": 88421.08800000016,
      "d": 1041.6670833333483,
      "v": 71
    },
    {
      "midi": 32,
      "hit": false,
      "t": 88421.08800000016,
      "d": 2346.4921666667215,
      "v": 74
    },
    {
      "midi": 44,
      "hit": false,
      "t": 88421.08800000016,
      "d": 2508.2246875000565,
      "v": 66
    },
    {
      "midi": 51,
      "hit": false,
      "t": 88947.40400000017,
      "d": 487.93879166667466,
      "v": 63
    },
    {
      "midi": 51,
      "hit": false,
      "t": 88947.40400000017,
      "d": 487.93879166667466,
      "v": 63
    },
    {
      "midi": 56,
      "hit": false,
      "t": 89473.72000000018,
      "d": 46.60089583334047,
      "v": 95
    },
    {
      "midi": 63,
      "hit": false,
      "t": 89473.72000000018,
      "d": 79.49564583334723,
      "v": 95
    },
    {
      "midi": 56,
      "hit": false,
      "t": 89473.72000000018,
      "d": 46.60089583334047,
      "v": 95
    },
    {
      "midi": 63,
      "hit": false,
      "t": 89473.72000000018,
      "d": 79.49564583334723,
      "v": 95
    },
    {
      "midi": 58,
      "hit": false,
      "t": 90000.0360000002,
      "d": 559.2107500000129,
      "v": 104
    },
    {
      "midi": 63,
      "hit": false,
      "t": 90000.0360000002,
      "d": 572.9168958333466,
      "v": 88
    },
    {
      "midi": 68,
      "hit": false,
      "t": 90000.0360000002,
      "d": 668.8599166666827,
      "v": 95
    },
    {
      "midi": 58,
      "hit": false,
      "t": 90000.0360000002,
      "d": 559.2107500000129,
      "v": 104
    },
    {
      "midi": 63,
      "hit": false,
      "t": 90000.0360000002,
      "d": 572.9168958333466,
      "v": 88
    },
    {
      "midi": 68,
      "hit": false,
      "t": 90000.0360000002,
      "d": 668.8599166666827,
      "v": 95
    },
    {
      "midi": 60,
      "hit": false,
      "t": 90526.3520000002,
      "d": 479.71510416668025,
      "v": 73
    },
    {
      "midi": 60,
      "hit": false,
      "t": 90526.3520000002,
      "d": 479.71510416668025,
      "v": 73
    },
    {
      "midi": 63,
      "hit": false,
      "t": 91052.66800000022,
      "d": 63.0482708333293,
      "v": 88
    },
    {
      "midi": 68,
      "hit": false,
      "t": 91052.66800000022,
      "d": 71.27195833332371,
      "v": 88
    },
    {
      "midi": 63,
      "hit": false,
      "t": 91052.66800000022,
      "d": 63.0482708333293,
      "v": 88
    },
    {
      "midi": 68,
      "hit": false,
      "t": 91052.66800000022,
      "d": 71.27195833332371,
      "v": 88
    },
    {
      "midi": 56,
      "hit": false,
      "t": 91578.9840000002,
      "d": 372.8071666666656,
      "v": 71
    },
    {
      "midi": 61,
      "hit": false,
      "t": 91578.9840000002,
      "d": 570.1756666666624,
      "v": 71
    },
    {
      "midi": 49,
      "hit": false,
      "t": 91578.9840000002,
      "d": 863.4871874999953,
      "v": 61
    },
    {
      "midi": 65,
      "hit": false,
      "t": 91578.9840000002,
      "d": 1115.6802708333416,
      "v": 74
    },
    {
      "midi": 68,
      "hit": false,
      "t": 91578.9840000002,
      "d": 1140.3513333333394,
      "v": 73
    },
    {
      "midi": 37,
      "hit": false,
      "t": 91578.9840000002,
      "d": 1167.7636250000069,
      "v": 64
    },
    {
      "midi": 44,
      "hit": false,
      "t": 91578.9840000002,
      "d": 1214.3645208333473,
      "v": 66
    },
    {
      "midi": 56,
      "hit": false,
      "t": 91578.9840000002,
      "d": 372.8071666666656,
      "v": 71
    },
    {
      "midi": 61,
      "hit": false,
      "t": 91578.9840000002,
      "d": 570.1756666666624,
      "v": 71
    },
    {
      "midi": 49,
      "hit": false,
      "t": 91578.9840000002,
      "d": 863.4871874999953,
      "v": 61
    },
    {
      "midi": 65,
      "hit": false,
      "t": 91578.9840000002,
      "d": 1115.6802708333416,
      "v": 74
    },
    {
      "midi": 68,
      "hit": false,
      "t": 91578.9840000002,
      "d": 1140.3513333333394,
      "v": 73
    },
    {
      "midi": 37,
      "hit": false,
      "t": 91578.9840000002,
      "d": 1167.7636250000069,
      "v": 64
    },
    {
      "midi": 44,
      "hit": false,
      "t": 91578.9840000002,
      "d": 1214.3645208333473,
      "v": 66
    },
    {
      "midi": 56,
      "hit": false,
      "t": 92105.30000000019,
      "d": 559.2107500000129,
      "v": 71
    },
    {
      "midi": 56,
      "hit": false,
      "t": 92105.30000000019,
      "d": 559.2107500000129,
      "v": 71
    },
    {
      "midi": 61,
      "hit": false,
      "t": 92631.6160000002,
      "d": 76.75441666667757,
      "v": 73
    },
    {
      "midi": 61,
      "hit": false,
      "t": 92631.6160000002,
      "d": 76.75441666667757,
      "v": 73
    },
    {
      "midi": 58,
      "hit": false,
      "t": 93157.93200000022,
      "d": 342.6536458333285,
      "v": 55
    },
    {
      "midi": 61,
      "hit": false,
      "t": 93157.93200000022,
      "d": 531.7984583333309,
      "v": 58
    },
    {
      "midi": 65,
      "hit": false,
      "t": 93157.93200000022,
      "d": 660.6362291666592,
      "v": 57
    },
    {
      "midi": 68,
      "hit": false,
      "t": 93157.93200000022,
      "d": 729.1669583333278,
      "v": 45
    },
    {
      "midi": 54,
      "hit": false,
      "t": 93157.93200000022,
      "d": 1019.737249999991,
      "v": 58
    },
    {
      "midi": 37,
      "hit": false,
      "t": 93157.93200000022,
      "d": 1082.7855208333349,
      "v": 68
    },
    {
      "midi": 58,
      "hit": false,
      "t": 93157.93200000022,
      "d": 342.6536458333285,
      "v": 55
    },
    {
      "midi": 61,
      "hit": false,
      "t": 93157.93200000022,
      "d": 531.7984583333309,
      "v": 58
    },
    {
      "midi": 65,
      "hit": false,
      "t": 93157.93200000022,
      "d": 660.6362291666592,
      "v": 57
    },
    {
      "midi": 68,
      "hit": false,
      "t": 93157.93200000022,
      "d": 729.1669583333278,
      "v": 45
    },
    {
      "midi": 54,
      "hit": false,
      "t": 93157.93200000022,
      "d": 1019.737249999991,
      "v": 58
    },
    {
      "midi": 37,
      "hit": false,
      "t": 93157.93200000022,
      "d": 1082.7855208333349,
      "v": 68
    },
    {
      "midi": 58,
      "hit": false,
      "t": 93684.24800000021,
      "d": 471.4914166666713,
      "v": 71
    },
    {
      "midi": 58,
      "hit": false,
      "t": 93684.24800000021,
      "d": 471.4914166666713,
      "v": 71
    },
    {
      "midi": 61,
      "hit": false,
      "t": 94210.56400000022,
      "d": 115.13162500000908,
      "v": 80
    },
    {
      "midi": 61,
      "hit": false,
      "t": 94210.56400000022,
      "d": 115.13162500000908,
      "v": 80
    },
    {
      "midi": 37,
      "hit": false,
      "t": 94561.44133333355,
      "d": 816.8862916666694,
      "v": 60
    },
    {
      "midi": 44,
      "hit": false,
      "t": 94561.44133333355,
      "d": 940.2416041666729,
      "v": 60
    },
    {
      "midi": 37,
      "hit": false,
      "t": 94561.44133333355,
      "d": 816.8862916666694,
      "v": 60
    },
    {
      "midi": 44,
      "hit": false,
      "t": 94561.44133333355,
      "d": 940.2416041666729,
      "v": 60
    },
    {
      "midi": 56,
      "hit": false,
      "t": 94736.88000000022,
      "d": 350.87733333333745,
      "v": 66
    },
    {
      "midi": 61,
      "hit": false,
      "t": 94736.88000000022,
      "d": 548.2458333333343,
      "v": 64
    },
    {
      "midi": 49,
      "hit": false,
      "t": 94736.88000000022,
      "d": 964.9126666666707,
      "v": 67
    },
    {
      "midi": 65,
      "hit": false,
      "t": 94736.88000000022,
      "d": 1074.561833333326,
      "v": 66
    },
    {
      "midi": 68,
      "hit": false,
      "t": 94736.88000000022,
      "d": 1091.0092083333293,
      "v": 64
    },
    {
      "midi": 56,
      "hit": false,
      "t": 94736.88000000022,
      "d": 350.87733333333745,
      "v": 66
    },
    {
      "midi": 61,
      "hit": false,
      "t": 94736.88000000022,
      "d": 548.2458333333343,
      "v": 64
    },
    {
      "midi": 49,
      "hit": false,
      "t": 94736.88000000022,
      "d": 964.9126666666707,
      "v": 67
    },
    {
      "midi": 65,
      "hit": false,
      "t": 94736.88000000022,
      "d": 1074.561833333326,
      "v": 66
    },
    {
      "midi": 68,
      "hit": false,
      "t": 94736.88000000022,
      "d": 1091.0092083333293,
      "v": 64
    },
    {
      "midi": 56,
      "hit": false,
      "t": 95263.19600000023,
      "d": 559.2107499999838,
      "v": 67
    },
    {
      "midi": 56,
      "hit": false,
      "t": 95263.19600000023,
      "d": 559.2107499999838,
      "v": 67
    },
    {
      "midi": 61,
      "hit": false,
      "t": 95789.51200000022,
      "d": 41.118437500001164,
      "v": 73
    },
    {
      "midi": 61,
      "hit": false,
      "t": 95789.51200000022,
      "d": 41.118437500001164,
      "v": 73
    },
    {
      "midi": 61,
      "hit": false,
      "t": 96315.82800000023,
      "d": 320.72381250000035,
      "v": 104
    },
    {
      "midi": 65,
      "hit": false,
      "t": 96315.82800000023,
      "d": 353.6185625000071,
      "v": 109
    },
    {
      "midi": 56,
      "hit": false,
      "t": 96315.82800000023,
      "d": 1088.2679791666596,
      "v": 91
    },
    {
      "midi": 49,
      "hit": false,
      "t": 96315.82800000023,
      "d": 1099.2328958333237,
      "v": 80
    },
    {
      "midi": 61,
      "hit": false,
      "t": 96315.82800000023,
      "d": 320.72381250000035,
      "v": 104
    },
    {
      "midi": 65,
      "hit": false,
      "t": 96315.82800000023,
      "d": 353.6185625000071,
      "v": 109
    },
    {
      "midi": 56,
      "hit": false,
      "t": 96315.82800000023,
      "d": 1088.2679791666596,
      "v": 91
    },
    {
      "midi": 49,
      "hit": false,
      "t": 96315.82800000023,
      "d": 1099.2328958333237,
      "v": 80
    },
    {
      "midi": 63,
      "hit": false,
      "t": 96842.14400000023,
      "d": 175.43866666666872,
      "v": 104
    },
    {
      "midi": 65,
      "hit": false,
      "t": 96842.14400000023,
      "d": 183.66235416666314,
      "v": 104
    },
    {
      "midi": 61,
      "hit": false,
      "t": 96842.14400000023,
      "d": 378.28962499999034,
      "v": 64
    },
    {
      "midi": 63,
      "hit": false,
      "t": 96842.14400000023,
      "d": 175.43866666666872,
      "v": 104
    },
    {
      "midi": 65,
      "hit": false,
      "t": 96842.14400000023,
      "d": 183.66235416666314,
      "v": 104
    },
    {
      "midi": 61,
      "hit": false,
      "t": 96842.14400000023,
      "d": 378.28962499999034,
      "v": 64
    },
    {
      "midi": 65,
      "hit": false,
      "t": 97368.46000000022,
      "d": 93.2017916666664,
      "v": 98
    },
    {
      "midi": 61,
      "hit": false,
      "t": 97368.46000000022,
      "d": 101.4254791666608,
      "v": 95
    },
    {
      "midi": 68,
      "hit": false,
      "t": 97368.46000000022,
      "d": 131.5789999999979,
      "v": 104
    },
    {
      "midi": 65,
      "hit": false,
      "t": 97368.46000000022,
      "d": 93.2017916666664,
      "v": 98
    },
    {
      "midi": 61,
      "hit": false,
      "t": 97368.46000000022,
      "d": 101.4254791666608,
      "v": 95
    },
    {
      "midi": 68,
      "hit": false,
      "t": 97368.46000000022,
      "d": 131.5789999999979,
      "v": 104
    },
    {
      "midi": 60,
      "hit": false,
      "t": 97894.77600000022,
      "d": 397.47822916666337,
      "v": 88
    },
    {
      "midi": 65,
      "hit": false,
      "t": 97894.77600000022,
      "d": 589.3642708333209,
      "v": 85
    },
    {
      "midi": 68,
      "hit": false,
      "t": 97894.77600000022,
      "d": 726.4257291666581,
      "v": 74
    },
    {
      "midi": 72,
      "hit": false,
      "t": 97894.77600000022,
      "d": 863.4871874999953,
      "v": 85
    },
    {
      "midi": 53,
      "hit": false,
      "t": 97894.77600000022,
      "d": 1192.4346875000047,
      "v": 74
    },
    {
      "midi": 41,
      "hit": false,
      "t": 97894.77600000022,
      "d": 2691.887041666705,
      "v": 68
    },
    {
      "midi": 48,
      "hit": false,
      "t": 97894.77600000022,
      "d": 2694.6282708333747,
      "v": 73
    },
    {
      "midi": 60,
      "hit": false,
      "t": 97894.77600000022,
      "d": 397.47822916666337,
      "v": 88
    },
    {
      "midi": 65,
      "hit": false,
      "t": 97894.77600000022,
      "d": 589.3642708333209,
      "v": 85
    },
    {
      "midi": 68,
      "hit": false,
      "t": 97894.77600000022,
      "d": 726.4257291666581,
      "v": 74
    },
    {
      "midi": 72,
      "hit": false,
      "t": 97894.77600000022,
      "d": 863.4871874999953,
      "v": 85
    },
    {
      "midi": 53,
      "hit": false,
      "t": 97894.77600000022,
      "d": 1192.4346875000047,
      "v": 74
    },
    {
      "midi": 41,
      "hit": false,
      "t": 97894.77600000022,
      "d": 2691.887041666705,
      "v": 68
    },
    {
      "midi": 48,
      "hit": false,
      "t": 97894.77600000022,
      "d": 2694.6282708333747,
      "v": 73
    },
    {
      "midi": 60,
      "hit": false,
      "t": 98421.09200000021,
      "d": 433.1142083333398,
      "v": 63
    },
    {
      "midi": 60,
      "hit": false,
      "t": 98421.09200000021,
      "d": 433.1142083333398,
      "v": 63
    },
    {
      "midi": 65,
      "hit": false,
      "t": 98947.40800000021,
      "d": 172.69743750001362,
      "v": 65
    },
    {
      "midi": 68,
      "hit": false,
      "t": 98947.40800000021,
      "d": 243.96939583335188,
      "v": 63
    },
    {
      "midi": 65,
      "hit": false,
      "t": 98947.40800000021,
      "d": 172.69743750001362,
      "v": 65
    },
    {
      "midi": 68,
      "hit": false,
      "t": 98947.40800000021,
      "d": 243.96939583335188,
      "v": 63
    },
    {
      "midi": 60,
      "hit": false,
      "t": 99473.72400000023,
      "d": 312.50012500000594,
      "v": 88
    },
    {
      "midi": 65,
      "hit": false,
      "t": 99473.72400000023,
      "d": 575.6581250000017,
      "v": 85
    },
    {
      "midi": 68,
      "hit": false,
      "t": 99473.72400000023,
      "d": 1049.8907708333427,
      "v": 82
    },
    {
      "midi": 53,
      "hit": false,
      "t": 99473.72400000023,
      "d": 1118.4215000000258,
      "v": 71
    },
    {
      "midi": 60,
      "hit": false,
      "t": 99473.72400000023,
      "d": 312.50012500000594,
      "v": 88
    },
    {
      "midi": 65,
      "hit": false,
      "t": 99473.72400000023,
      "d": 575.6581250000017,
      "v": 85
    },
    {
      "midi": 68,
      "hit": false,
      "t": 99473.72400000023,
      "d": 1049.8907708333427,
      "v": 82
    },
    {
      "midi": 53,
      "hit": false,
      "t": 99473.72400000023,
      "d": 1118.4215000000258,
      "v": 71
    },
    {
      "midi": 60,
      "hit": false,
      "t": 100000.04000000024,
      "d": 383.77208333332965,
      "v": 63
    },
    {
      "midi": 60,
      "hit": false,
      "t": 100000.04000000024,
      "d": 383.77208333332965,
      "v": 63
    },
    {
      "midi": 60,
      "hit": false,
      "t": 100526.35600000025,
      "d": 54.824583333334886,
      "v": 70
    },
    {
      "midi": 65,
      "hit": false,
      "t": 100526.35600000025,
      "d": 68.53072916668316,
      "v": 76
    },
    {
      "midi": 60,
      "hit": false,
      "t": 100526.35600000025,
      "d": 54.824583333334886,
      "v": 70
    },
    {
      "midi": 65,
      "hit": false,
      "t": 100526.35600000025,
      "d": 68.53072916668316,
      "v": 76
    },
    {
      "midi": 56,
      "hit": false,
      "t": 101052.67200000025,
      "d": 348.1361041666678,
      "v": 61
    },
    {
      "midi": 61,
      "hit": false,
      "t": 101052.67200000025,
      "d": 572.9168958333466,
      "v": 66
    },
    {
      "midi": 68,
      "hit": false,
      "t": 101052.67200000025,
      "d": 825.1099791666784,
      "v": 63
    },
    {
      "midi": 53,
      "hit": false,
      "t": 101052.67200000025,
      "d": 1107.4565833333472,
      "v": 59
    },
    {
      "midi": 49,
      "hit": false,
      "t": 101052.67200000025,
      "d": 1126.6451875000203,
      "v": 53
    },
    {
      "midi": 41,
      "hit": false,
      "t": 101052.67200000025,
      "d": 1145.8337916666933,
      "v": 52
    },
    {
      "midi": 56,
      "hit": false,
      "t": 101052.67200000025,
      "d": 348.1361041666678,
      "v": 61
    },
    {
      "midi": 61,
      "hit": false,
      "t": 101052.67200000025,
      "d": 572.9168958333466,
      "v": 66
    },
    {
      "midi": 68,
      "hit": false,
      "t": 101052.67200000025,
      "d": 825.1099791666784,
      "v": 63
    },
    {
      "midi": 53,
      "hit": false,
      "t": 101052.67200000025,
      "d": 1107.4565833333472,
      "v": 59
    },
    {
      "midi": 49,
      "hit": false,
      "t": 101052.67200000025,
      "d": 1126.6451875000203,
      "v": 53
    },
    {
      "midi": 41,
      "hit": false,
      "t": 101052.67200000025,
      "d": 1145.8337916666933,
      "v": 52
    },
    {
      "midi": 56,
      "hit": false,
      "t": 101578.98800000026,
      "d": 671.6011458333523,
      "v": 62
    },
    {
      "midi": 56,
      "hit": false,
      "t": 101578.98800000026,
      "d": 671.6011458333523,
      "v": 62
    },
    {
      "midi": 68,
      "hit": false,
      "t": 102105.30400000027,
      "d": 257.6755416666856,
      "v": 104
    },
    {
      "midi": 68,
      "hit": false,
      "t": 102105.30400000027,
      "d": 257.6755416666856,
      "v": 104
    },
    {
      "midi": 56,
      "hit": false,
      "t": 102631.62000000029,
      "d": 367.3247083333408,
      "v": 74
    },
    {
      "midi": 60,
      "hit": false,
      "t": 102631.62000000029,
      "d": 548.2458333333343,
      "v": 82
    },
    {
      "midi": 53,
      "hit": false,
      "t": 102631.62000000029,
      "d": 567.4344375000073,
      "v": 80
    },
    {
      "midi": 41,
      "hit": false,
      "t": 102631.62000000029,
      "d": 605.8116458333388,
      "v": 54
    },
    {
      "midi": 48,
      "hit": false,
      "t": 102631.62000000029,
      "d": 783.9915416666772,
      "v": 68
    },
    {
      "midi": 68,
      "hit": false,
      "t": 102631.62000000029,
      "d": 926.5354583333392,
      "v": 78
    },
    {
      "midi": 65,
      "hit": false,
      "t": 102631.62000000029,
      "d": 940.2416041666729,
      "v": 76
    },
    {
      "midi": 56,
      "hit": false,
      "t": 102631.62000000029,
      "d": 367.3247083333408,
      "v": 74
    },
    {
      "midi": 60,
      "hit": false,
      "t": 102631.62000000029,
      "d": 548.2458333333343,
      "v": 82
    },
    {
      "midi": 53,
      "hit": false,
      "t": 102631.62000000029,
      "d": 567.4344375000073,
      "v": 80
    },
    {
      "midi": 41,
      "hit": false,
      "t": 102631.62000000029,
      "d": 605.8116458333388,
      "v": 54
    },
    {
      "midi": 48,
      "hit": false,
      "t": 102631.62000000029,
      "d": 783.9915416666772,
      "v": 68
    },
    {
      "midi": 68,
      "hit": false,
      "t": 102631.62000000029,
      "d": 926.5354583333392,
      "v": 78
    },
    {
      "midi": 65,
      "hit": false,
      "t": 102631.62000000029,
      "d": 940.2416041666729,
      "v": 76
    },
    {
      "midi": 56,
      "hit": false,
      "t": 103157.93600000029,
      "d": 378.2896250000049,
      "v": 82
    },
    {
      "midi": 56,
      "hit": false,
      "t": 103157.93600000029,
      "d": 378.2896250000049,
      "v": 82
    },
    {
      "midi": 60,
      "hit": false,
      "t": 103684.2520000003,
      "d": 63.0482708333293,
      "v": 98
    },
    {
      "midi": 60,
      "hit": false,
      "t": 103684.2520000003,
      "d": 63.0482708333293,
      "v": 98
    },
    {
      "midi": 58,
      "hit": false,
      "t": 104210.5680000003,
      "d": 424.8905208333308,
      "v": 104
    },
    {
      "midi": 61,
      "hit": false,
      "t": 104210.5680000003,
      "d": 685.307291666657,
      "v": 91
    },
    {
      "midi": 70,
      "hit": false,
      "t": 104210.5680000003,
      "d": 1159.539937499998,
      "v": 104
    },
    {
      "midi": 66,
      "hit": false,
      "t": 104210.5680000003,
      "d": 1175.9873125000013,
      "v": 95
    },
    {
      "midi": 54,
      "hit": false,
      "t": 104210.5680000003,
      "d": 1326.7549166666722,
      "v": 80
    },
    {
      "midi": 49,
      "hit": false,
      "t": 104210.5680000003,
      "d": 1428.180395833333,
      "v": 88
    },
    {
      "midi": 42,
      "hit": false,
      "t": 104210.5680000003,
      "d": 1439.145312499997,
      "v": 80
    },
    {
      "midi": 58,
      "hit": false,
      "t": 104210.5680000003,
      "d": 424.8905208333308,
      "v": 104
    },
    {
      "midi": 61,
      "hit": false,
      "t": 104210.5680000003,
      "d": 685.307291666657,
      "v": 91
    },
    {
      "midi": 70,
      "hit": false,
      "t": 104210.5680000003,
      "d": 1159.539937499998,
      "v": 104
    },
    {
      "midi": 66,
      "hit": false,
      "t": 104210.5680000003,
      "d": 1175.9873125000013,
      "v": 95
    },
    {
      "midi": 54,
      "hit": false,
      "t": 104210.5680000003,
      "d": 1326.7549166666722,
      "v": 80
    },
    {
      "midi": 49,
      "hit": false,
      "t": 104210.5680000003,
      "d": 1428.180395833333,
      "v": 88
    },
    {
      "midi": 42,
      "hit": false,
      "t": 104210.5680000003,
      "d": 1439.145312499997,
      "v": 80
    },
    {
      "midi": 58,
      "hit": false,
      "t": 104736.8840000003,
      "d": 531.7984583333309,
      "v": 63
    },
    {
      "midi": 58,
      "hit": false,
      "t": 104736.8840000003,
      "d": 531.7984583333309,
      "v": 63
    },
    {
      "midi": 61,
      "hit": false,
      "t": 105263.20000000029,
      "d": 74.01318750000792,
      "v": 73
    },
    {
      "midi": 61,
      "hit": false,
      "t": 105263.20000000029,
      "d": 74.01318750000792,
      "v": 73
    },
    {
      "midi": 59,
      "hit": false,
      "t": 105789.5160000003,
      "d": 433.1142083333252,
      "v": 91
    },
    {
      "midi": 66,
      "hit": false,
      "t": 105789.5160000003,
      "d": 775.7678541666537,
      "v": 80
    },
    {
      "midi": 71,
      "hit": false,
      "t": 105789.5160000003,
      "d": 808.6626041666605,
      "v": 80
    },
    {
      "midi": 42,
      "hit": false,
      "t": 105789.5160000003,
      "d": 1192.43468749999,
      "v": 82
    },
    {
      "midi": 54,
      "hit": false,
      "t": 105789.5160000003,
      "d": 1206.1408333333238,
      "v": 68
    },
    {
      "midi": 51,
      "hit": false,
      "t": 105789.5160000003,
      "d": 1219.8469791666575,
      "v": 80
    },
    {
      "midi": 59,
      "hit": false,
      "t": 105789.5160000003,
      "d": 433.1142083333252,
      "v": 91
    },
    {
      "midi": 66,
      "hit": false,
      "t": 105789.5160000003,
      "d": 775.7678541666537,
      "v": 80
    },
    {
      "midi": 71,
      "hit": false,
      "t": 105789.5160000003,
      "d": 808.6626041666605,
      "v": 80
    },
    {
      "midi": 42,
      "hit": false,
      "t": 105789.5160000003,
      "d": 1192.43468749999,
      "v": 82
    },
    {
      "midi": 54,
      "hit": false,
      "t": 105789.5160000003,
      "d": 1206.1408333333238,
      "v": 68
    },
    {
      "midi": 51,
      "hit": false,
      "t": 105789.5160000003,
      "d": 1219.8469791666575,
      "v": 80
    },
    {
      "midi": 59,
      "hit": false,
      "t": 106315.83200000029,
      "d": 446.8203541666735,
      "v": 67
    },
    {
      "midi": 59,
      "hit": false,
      "t": 106315.83200000029,
      "d": 446.8203541666735,
      "v": 67
    },
    {
      "midi": 63,
      "hit": false,
      "t": 106842.14800000029,
      "d": 101.4254791666608,
      "v": 78
    },
    {
      "midi": 66,
      "hit": false,
      "t": 106842.14800000029,
      "d": 117.87285416666418,
      "v": 74
    },
    {
      "midi": 63,
      "hit": false,
      "t": 106842.14800000029,
      "d": 101.4254791666608,
      "v": 78
    },
    {
      "midi": 66,
      "hit": false,
      "t": 106842.14800000029,
      "d": 117.87285416666418,
      "v": 74
    },
    {
      "midi": 58,
      "hit": false,
      "t": 107368.46400000028,
      "d": 394.7369999999937,
      "v": 54
    },
    {
      "midi": 61,
      "hit": false,
      "t": 107368.46400000028,
      "d": 592.1054999999906,
      "v": 57
    },
    {
      "midi": 70,
      "hit": false,
      "t": 107368.46400000028,
      "d": 1082.7855208333349,
      "v": 63
    },
    {
      "midi": 66,
      "hit": false,
      "t": 107368.46400000028,
      "d": 1088.2679791666742,
      "v": 60
    },
    {
      "midi": 49,
      "hit": false,
      "t": 107368.46400000028,
      "d": 1178.728541666671,
      "v": 60
    },
    {
      "midi": 42,
      "hit": false,
      "t": 107368.46400000028,
      "d": 1195.1759166666743,
      "v": 63
    },
    {
      "midi": 54,
      "hit": false,
      "t": 107368.46400000028,
      "d": 1197.917145833344,
      "v": 57
    },
    {
      "midi": 58,
      "hit": false,
      "t": 107368.46400000028,
      "d": 394.7369999999937,
      "v": 54
    },
    {
      "midi": 61,
      "hit": false,
      "t": 107368.46400000028,
      "d": 592.1054999999906,
      "v": 57
    },
    {
      "midi": 70,
      "hit": false,
      "t": 107368.46400000028,
      "d": 1082.7855208333349,
      "v": 63
    },
    {
      "midi": 66,
      "hit": false,
      "t": 107368.46400000028,
      "d": 1088.2679791666742,
      "v": 60
    },
    {
      "midi": 49,
      "hit": false,
      "t": 107368.46400000028,
      "d": 1178.728541666671,
      "v": 60
    },
    {
      "midi": 42,
      "hit": false,
      "t": 107368.46400000028,
      "d": 1195.1759166666743,
      "v": 63
    },
    {
      "midi": 54,
      "hit": false,
      "t": 107368.46400000028,
      "d": 1197.917145833344,
      "v": 57
    },
    {
      "midi": 58,
      "hit": false,
      "t": 107894.78000000028,
      "d": 523.5747708333365,
      "v": 58
    },
    {
      "midi": 58,
      "hit": false,
      "t": 107894.78000000028,
      "d": 523.5747708333365,
      "v": 58
    },
    {
      "midi": 61,
      "hit": false,
      "t": 108421.09600000028,
      "d": 71.27195833333826,
      "v": 60
    },
    {
      "midi": 61,
      "hit": false,
      "t": 108421.09600000028,
      "d": 71.27195833333826,
      "v": 60
    },
    {
      "midi": 58,
      "hit": false,
      "t": 108771.97333333363,
      "d": 567.4344375000073,
      "v": 95
    },
    {
      "midi": 49,
      "hit": false,
      "t": 108771.97333333363,
      "d": 896.3819375000021,
      "v": 74
    },
    {
      "midi": 42,
      "hit": false,
      "t": 108771.97333333363,
      "d": 1000.5486458333326,
      "v": 64
    },
    {
      "midi": 58,
      "hit": false,
      "t": 108771.97333333363,
      "d": 567.4344375000073,
      "v": 95
    },
    {
      "midi": 49,
      "hit": false,
      "t": 108771.97333333363,
      "d": 896.3819375000021,
      "v": 74
    },
    {
      "midi": 42,
      "hit": false,
      "t": 108771.97333333363,
      "d": 1000.5486458333326,
      "v": 64
    },
    {
      "midi": 66,
      "hit": false,
      "t": 108947.4120000003,
      "d": 1027.9609375,
      "v": 91
    },
    {
      "midi": 61,
      "hit": false,
      "t": 108947.4120000003,
      "d": 1047.149541666673,
      "v": 50
    },
    {
      "midi": 66,
      "hit": false,
      "t": 108947.4120000003,
      "d": 1027.9609375,
      "v": 91
    },
    {
      "midi": 61,
      "hit": false,
      "t": 108947.4120000003,
      "d": 1047.149541666673,
      "v": 50
    },
    {
      "midi": 56,
      "hit": false,
      "t": 109473.72800000031,
      "d": 342.6536458333285,
      "v": 91
    },
    {
      "midi": 56,
      "hit": false,
      "t": 109473.72800000031,
      "d": 342.6536458333285,
      "v": 91
    },
    {
      "midi": 54,
      "hit": false,
      "t": 110000.04400000031,
      "d": 79.49564583333267,
      "v": 88
    },
    {
      "midi": 54,
      "hit": false,
      "t": 110000.04400000031,
      "d": 79.49564583333267,
      "v": 88
    },
    {
      "midi": 53,
      "hit": false,
      "t": 110526.36000000032,
      "d": 400.219458333333,
      "v": 74
    },
    {
      "midi": 56,
      "hit": false,
      "t": 110526.36000000032,
      "d": 646.93008333334,
      "v": 64
    },
    {
      "midi": 49,
      "hit": false,
      "t": 110526.36000000032,
      "d": 1052.6320000000123,
      "v": 67
    },
    {
      "midi": 37,
      "hit": false,
      "t": 110526.36000000032,
      "d": 1121.162729166681,
      "v": 62
    },
    {
      "midi": 65,
      "hit": false,
      "t": 110526.36000000032,
      "d": 1151.316250000018,
      "v": 66
    },
    {
      "midi": 61,
      "hit": false,
      "t": 110526.36000000032,
      "d": 1206.140833333353,
      "v": 62
    },
    {
      "midi": 53,
      "hit": false,
      "t": 110526.36000000032,
      "d": 400.219458333333,
      "v": 74
    },
    {
      "midi": 56,
      "hit": false,
      "t": 110526.36000000032,
      "d": 646.93008333334,
      "v": 64
    },
    {
      "midi": 49,
      "hit": false,
      "t": 110526.36000000032,
      "d": 1052.6320000000123,
      "v": 67
    },
    {
      "midi": 37,
      "hit": false,
      "t": 110526.36000000032,
      "d": 1121.162729166681,
      "v": 62
    },
    {
      "midi": 65,
      "hit": false,
      "t": 110526.36000000032,
      "d": 1151.316250000018,
      "v": 66
    },
    {
      "midi": 61,
      "hit": false,
      "t": 110526.36000000032,
      "d": 1206.140833333353,
      "v": 62
    },
    {
      "midi": 53,
      "hit": false,
      "t": 111052.67600000033,
      "d": 540.0221458333399,
      "v": 56
    },
    {
      "midi": 53,
      "hit": false,
      "t": 111052.67600000033,
      "d": 540.0221458333399,
      "v": 56
    },
    {
      "midi": 56,
      "hit": false,
      "t": 111578.99200000033,
      "d": 98.6842500000057,
      "v": 66
    },
    {
      "midi": 56,
      "hit": false,
      "t": 111578.99200000033,
      "d": 98.6842500000057,
      "v": 66
    },
    {
      "midi": 58,
      "hit": false,
      "t": 112105.30800000034,
      "d": 685.3072916666715,
      "v": 80
    },
    {
      "midi": 61,
      "hit": false,
      "t": 112105.30800000034,
      "d": 816.8862916666694,
      "v": 68
    },
    {
      "midi": 46,
      "hit": false,
      "t": 112105.30800000034,
      "d": 1200.658374999999,
      "v": 64
    },
    {
      "midi": 34,
      "hit": false,
      "t": 112105.30800000034,
      "d": 1230.8118958333362,
      "v": 67
    },
    {
      "midi": 58,
      "hit": false,
      "t": 112105.30800000034,
      "d": 685.3072916666715,
      "v": 80
    },
    {
      "midi": 61,
      "hit": false,
      "t": 112105.30800000034,
      "d": 816.8862916666694,
      "v": 68
    },
    {
      "midi": 46,
      "hit": false,
      "t": 112105.30800000034,
      "d": 1200.658374999999,
      "v": 64
    },
    {
      "midi": 34,
      "hit": false,
      "t": 112105.30800000034,
      "d": 1230.8118958333362,
      "v": 67
    },
    {
      "midi": 56,
      "hit": false,
      "t": 112456.18533333368,
      "d": 148.02637500000128,
      "v": 54
    },
    {
      "midi": 56,
      "hit": false,
      "t": 112456.18533333368,
      "d": 148.02637500000128,
      "v": 54
    },
    {
      "midi": 56,
      "hit": false,
      "t": 113157.94000000034,
      "d": 161.732520833335,
      "v": 43
    },
    {
      "midi": 61,
      "hit": false,
      "t": 113157.94000000034,
      "d": 180.92112500000803,
      "v": 51
    },
    {
      "midi": 58,
      "hit": false,
      "t": 113157.94000000034,
      "d": 183.6623541666777,
      "v": 59
    },
    {
      "midi": 56,
      "hit": false,
      "t": 113157.94000000034,
      "d": 161.732520833335,
      "v": 43
    },
    {
      "midi": 61,
      "hit": false,
      "t": 113157.94000000034,
      "d": 180.92112500000803,
      "v": 51
    },
    {
      "midi": 58,
      "hit": false,
      "t": 113157.94000000034,
      "d": 183.6623541666777,
      "v": 59
    },
    {
      "midi": 63,
      "hit": false,
      "t": 113684.25600000034,
      "d": 822.3687499999942,
      "v": 63
    },
    {
      "midi": 58,
      "hit": false,
      "t": 113684.25600000034,
      "d": 827.8512083333335,
      "v": 61
    },
    {
      "midi": 60,
      "hit": false,
      "t": 113684.25600000034,
      "d": 838.8161249999976,
      "v": 62
    },
    {
      "midi": 44,
      "hit": false,
      "t": 113684.25600000034,
      "d": 1277.4127916666766,
      "v": 61
    },
    {
      "midi": 32,
      "hit": false,
      "t": 113684.25600000034,
      "d": 1315.7900000000081,
      "v": 60
    },
    {
      "midi": 63,
      "hit": false,
      "t": 113684.25600000034,
      "d": 822.3687499999942,
      "v": 63
    },
    {
      "midi": 58,
      "hit": false,
      "t": 113684.25600000034,
      "d": 827.8512083333335,
      "v": 61
    },
    {
      "midi": 60,
      "hit": false,
      "t": 113684.25600000034,
      "d": 838.8161249999976,
      "v": 62
    },
    {
      "midi": 44,
      "hit": false,
      "t": 113684.25600000034,
      "d": 1277.4127916666766,
      "v": 61
    },
    {
      "midi": 32,
      "hit": false,
      "t": 113684.25600000034,
      "d": 1315.7900000000081,
      "v": 60
    },
    {
      "midi": 60,
      "hit": false,
      "t": 114736.88800000034,
      "d": 161.732520833335,
      "v": 58
    },
    {
      "midi": 58,
      "hit": false,
      "t": 114736.88800000034,
      "d": 167.2149791666743,
      "v": 56
    },
    {
      "midi": 63,
      "hit": false,
      "t": 114736.88800000034,
      "d": 178.17989583333838,
      "v": 60
    },
    {
      "midi": 60,
      "hit": false,
      "t": 114736.88800000034,
      "d": 161.732520833335,
      "v": 58
    },
    {
      "midi": 58,
      "hit": false,
      "t": 114736.88800000034,
      "d": 167.2149791666743,
      "v": 56
    },
    {
      "midi": 63,
      "hit": false,
      "t": 114736.88800000034,
      "d": 178.17989583333838,
      "v": 60
    },
    {
      "midi": 39,
      "hit": false,
      "t": 115087.76533333368,
      "d": 216.55710416665534,
      "v": 67
    },
    {
      "midi": 32,
      "hit": false,
      "t": 115087.76533333368,
      "d": 1408.9917916666454,
      "v": 61
    },
    {
      "midi": 39,
      "hit": false,
      "t": 115087.76533333368,
      "d": 216.55710416665534,
      "v": 67
    },
    {
      "midi": 32,
      "hit": false,
      "t": 115087.76533333368,
      "d": 1408.9917916666454,
      "v": 61
    },
    {
      "midi": 56,
      "hit": false,
      "t": 115263.20400000033,
      "d": 523.5747708333365,
      "v": 91
    },
    {
      "midi": 65,
      "hit": false,
      "t": 115263.20400000033,
      "d": 586.6230416666658,
      "v": 91
    },
    {
      "midi": 44,
      "hit": false,
      "t": 115263.20400000033,
      "d": 1315.7899999999936,
      "v": 95
    },
    {
      "midi": 56,
      "hit": false,
      "t": 115263.20400000033,
      "d": 523.5747708333365,
      "v": 91
    },
    {
      "midi": 65,
      "hit": false,
      "t": 115263.20400000033,
      "d": 586.6230416666658,
      "v": 91
    },
    {
      "midi": 44,
      "hit": false,
      "t": 115263.20400000033,
      "d": 1315.7899999999936,
      "v": 95
    },
    {
      "midi": 54,
      "hit": false,
      "t": 115789.52000000034,
      "d": 427.6317499999859,
      "v": 68
    },
    {
      "midi": 63,
      "hit": false,
      "t": 115789.52000000034,
      "d": 561.9519791666535,
      "v": 68
    },
    {
      "midi": 54,
      "hit": false,
      "t": 115789.52000000034,
      "d": 427.6317499999859,
      "v": 68
    },
    {
      "midi": 63,
      "hit": false,
      "t": 115789.52000000034,
      "d": 561.9519791666535,
      "v": 68
    },
    {
      "midi": 61,
      "hit": false,
      "t": 116315.83600000033,
      "d": 268.6404583333351,
      "v": 78
    },
    {
      "midi": 61,
      "hit": false,
      "t": 116315.83600000033,
      "d": 268.6404583333351,
      "v": 78
    },
    {
      "midi": 56,
      "hit": false,
      "t": 116842.15200000034,
      "d": 811.4038333333301,
      "v": 71
    },
    {
      "midi": 53,
      "hit": false,
      "t": 116842.15200000034,
      "d": 1060.8556874999922,
      "v": 71
    },
    {
      "midi": 61,
      "hit": false,
      "t": 116842.15200000034,
      "d": 1148.5750208333193,
      "v": 68
    },
    {
      "midi": 49,
      "hit": false,
      "t": 116842.15200000034,
      "d": 1206.1408333333238,
      "v": 61
    },
    {
      "midi": 37,
      "hit": false,
      "t": 116842.15200000034,
      "d": 2560.3080416666635,
      "v": 68
    },
    {
      "midi": 56,
      "hit": false,
      "t": 116842.15200000034,
      "d": 811.4038333333301,
      "v": 71
    },
    {
      "midi": 53,
      "hit": false,
      "t": 116842.15200000034,
      "d": 1060.8556874999922,
      "v": 71
    },
    {
      "midi": 61,
      "hit": false,
      "t": 116842.15200000034,
      "d": 1148.5750208333193,
      "v": 68
    },
    {
      "midi": 49,
      "hit": false,
      "t": 116842.15200000034,
      "d": 1206.1408333333238,
      "v": 61
    },
    {
      "midi": 37,
      "hit": false,
      "t": 116842.15200000034,
      "d": 2560.3080416666635,
      "v": 68
    },
    {
      "midi": 44,
      "hit": false,
      "t": 118245.66133333366,
      "d": 1255.4829583333485,
      "v": 73
    },
    {
      "midi": 44,
      "hit": false,
      "t": 118245.66133333366,
      "d": 1255.4829583333485,
      "v": 73
    },
    {
      "midi": 49,
      "hit": false,
      "t": 118421.10000000033,
      "d": 1049.8907708333427,
      "v": 68
    },
    {
      "midi": 56,
      "hit": false,
      "t": 118421.10000000033,
      "d": 1058.1144583333516,
      "v": 91
    },
    {
      "midi": 49,
      "hit": false,
      "t": 118421.10000000033,
      "d": 1049.8907708333427,
      "v": 68
    },
    {
      "midi": 56,
      "hit": false,
      "t": 118421.10000000033,
      "d": 1058.1144583333516,
      "v": 91
    },
    {
      "midi": 65,
      "hit": false,
      "t": 118947.41600000033,
      "d": 509.8686250000028,
      "v": 95
    },
    {
      "midi": 65,
      "hit": false,
      "t": 118947.41600000033,
      "d": 509.8686250000028,
      "v": 95
    },
    {
      "midi": 61,
      "hit": false,
      "t": 119473.73200000034,
      "d": 74.01318750000792,
      "v": 82
    },
    {
      "midi": 61,
      "hit": false,
      "t": 119473.73200000034,
      "d": 74.01318750000792,
      "v": 82
    },
    {
      "midi": 37,
      "hit": false,
      "t": 119824.60933333368,
      "d": 1488.4874374999927,
      "v": 39
    },
    {
      "midi": 37,
      "hit": false,
      "t": 119824.60933333368,
      "d": 1488.4874374999927,
      "v": 39
    },
    {
      "midi": 54,
      "hit": false,
      "t": 120000.04800000034,
      "d": 822.3687500000087,
      "v": 66
    },
    {
      "midi": 58,
      "hit": false,
      "t": 120000.04800000034,
      "d": 858.0047291666706,
      "v": 64
    },
    {
      "midi": 42,
      "hit": false,
      "t": 120000.04800000034,
      "d": 1340.4610624999914,
      "v": 50
    },
    {
      "midi": 49,
      "hit": false,
      "t": 120000.04800000034,
      "d": 1351.4259791666555,
      "v": 57
    },
    {
      "midi": 54,
      "hit": false,
      "t": 120000.04800000034,
      "d": 822.3687500000087,
      "v": 66
    },
    {
      "midi": 58,
      "hit": false,
      "t": 120000.04800000034,
      "d": 858.0047291666706,
      "v": 64
    },
    {
      "midi": 42,
      "hit": false,
      "t": 120000.04800000034,
      "d": 1340.4610624999914,
      "v": 50
    },
    {
      "midi": 49,
      "hit": false,
      "t": 120000.04800000034,
      "d": 1351.4259791666555,
      "v": 57
    },
    {
      "midi": 54,
      "hit": false,
      "t": 121052.68000000034,
      "d": 93.2017916666664,
      "v": 62
    },
    {
      "midi": 58,
      "hit": false,
      "t": 121052.68000000034,
      "d": 115.13162499999453,
      "v": 55
    },
    {
      "midi": 54,
      "hit": false,
      "t": 121052.68000000034,
      "d": 93.2017916666664,
      "v": 62
    },
    {
      "midi": 58,
      "hit": false,
      "t": 121052.68000000034,
      "d": 115.13162499999453,
      "v": 55
    },
    {
      "midi": 49,
      "hit": false,
      "t": 121578.99600000033,
      "d": 526.3160000000062,
      "v": 58
    },
    {
      "midi": 58,
      "hit": false,
      "t": 121578.99600000033,
      "d": 542.7633750000095,
      "v": 71
    },
    {
      "midi": 61,
      "hit": false,
      "t": 121578.99600000033,
      "d": 553.7282916666736,
      "v": 62
    },
    {
      "midi": 56,
      "hit": false,
      "t": 121578.99600000033,
      "d": 556.4695208333433,
      "v": 71
    },
    {
      "midi": 42,
      "hit": false,
      "t": 121578.99600000033,
      "d": 1277.4127916666766,
      "v": 59
    },
    {
      "midi": 37,
      "hit": false,
      "t": 121578.99600000033,
      "d": 1313.0487708333385,
      "v": 56
    },
    {
      "midi": 49,
      "hit": false,
      "t": 121578.99600000033,
      "d": 526.3160000000062,
      "v": 58
    },
    {
      "midi": 58,
      "hit": false,
      "t": 121578.99600000033,
      "d": 542.7633750000095,
      "v": 71
    },
    {
      "midi": 61,
      "hit": false,
      "t": 121578.99600000033,
      "d": 553.7282916666736,
      "v": 62
    },
    {
      "midi": 56,
      "hit": false,
      "t": 121578.99600000033,
      "d": 556.4695208333433,
      "v": 71
    },
    {
      "midi": 42,
      "hit": false,
      "t": 121578.99600000033,
      "d": 1277.4127916666766,
      "v": 59
    },
    {
      "midi": 37,
      "hit": false,
      "t": 121578.99600000033,
      "d": 1313.0487708333385,
      "v": 56
    },
    {
      "midi": 54,
      "hit": false,
      "t": 122631.62800000035,
      "d": 359.10102083333186,
      "v": 82
    },
    {
      "midi": 54,
      "hit": false,
      "t": 122631.62800000035,
      "d": 359.10102083333186,
      "v": 82
    },
    {
      "midi": 53,
      "hit": false,
      "t": 123157.94400000034,
      "d": 559.2107499999984,
      "v": 65
    },
    {
      "midi": 49,
      "hit": false,
      "t": 123157.94400000034,
      "d": 589.3642708333355,
      "v": 60
    },
    {
      "midi": 56,
      "hit": false,
      "t": 123157.94400000034,
      "d": 877.1933333333291,
      "v": 67
    },
    {
      "midi": 37,
      "hit": false,
      "t": 123157.94400000034,
      "d": 2530.1545208333264,
      "v": 66
    },
    {
      "midi": 44,
      "hit": false,
      "t": 123157.94400000034,
      "d": 2554.8255833333387,
      "v": 66
    },
    {
      "midi": 53,
      "hit": false,
      "t": 123157.94400000034,
      "d": 559.2107499999984,
      "v": 65
    },
    {
      "midi": 49,
      "hit": false,
      "t": 123157.94400000034,
      "d": 589.3642708333355,
      "v": 60
    },
    {
      "midi": 56,
      "hit": false,
      "t": 123157.94400000034,
      "d": 877.1933333333291,
      "v": 67
    },
    {
      "midi": 37,
      "hit": false,
      "t": 123157.94400000034,
      "d": 2530.1545208333264,
      "v": 66
    },
    {
      "midi": 44,
      "hit": false,
      "t": 123157.94400000034,
      "d": 2554.8255833333387,
      "v": 66
    },
    {
      "midi": 53,
      "hit": false,
      "t": 124210.57600000034,
      "d": 52.08335416666523,
      "v": 88
    },
    {
      "midi": 53,
      "hit": false,
      "t": 124210.57600000034,
      "d": 52.08335416666523,
      "v": 88
    },
    {
      "midi": 65,
      "hit": false,
      "t": 124736.89200000033,
      "d": 561.951979166668,
      "v": 82
    },
    {
      "midi": 49,
      "hit": false,
      "t": 124736.89200000033,
      "d": 970.39512500001,
      "v": 68
    },
    {
      "midi": 56,
      "hit": false,
      "t": 124736.89200000033,
      "d": 1091.0092083333438,
      "v": 80
    },
    {
      "midi": 65,
      "hit": false,
      "t": 124736.89200000033,
      "d": 561.951979166668,
      "v": 82
    },
    {
      "midi": 49,
      "hit": false,
      "t": 124736.89200000033,
      "d": 970.39512500001,
      "v": 68
    },
    {
      "midi": 56,
      "hit": false,
      "t": 124736.89200000033,
      "d": 1091.0092083333438,
      "v": 80
    },
    {
      "midi": 61,
      "hit": false,
      "t": 125263.20800000033,
      "d": 504.38616666667804,
      "v": 88
    },
    {
      "midi": 68,
      "hit": false,
      "t": 125263.20800000033,
      "d": 561.951979166668,
      "v": 95
    },
    {
      "midi": 61,
      "hit": false,
      "t": 125263.20800000033,
      "d": 504.38616666667804,
      "v": 88
    },
    {
      "midi": 68,
      "hit": false,
      "t": 125263.20800000033,
      "d": 561.951979166668,
      "v": 95
    },
    {
      "midi": 65,
      "hit": false,
      "t": 125789.52400000034,
      "d": 120.61408333333384,
      "v": 80
    },
    {
      "midi": 65,
      "hit": false,
      "t": 125789.52400000034,
      "d": 120.61408333333384,
      "v": 80
    },
    {
      "midi": 37,
      "hit": false,
      "t": 126140.40133333368,
      "d": 1376.0970416666678,
      "v": 55
    },
    {
      "midi": 37,
      "hit": false,
      "t": 126140.40133333368,
      "d": 1376.0970416666678,
      "v": 55
    },
    {
      "midi": 56,
      "hit": false,
      "t": 126315.84000000035,
      "d": 487.9387916666601,
      "v": 55
    },
    {
      "midi": 58,
      "hit": false,
      "t": 126315.84000000035,
      "d": 677.0836041666626,
      "v": 62
    },
    {
      "midi": 66,
      "hit": false,
      "t": 126315.84000000035,
      "d": 1052.6319999999978,
      "v": 57
    },
    {
      "midi": 61,
      "hit": false,
      "t": 126315.84000000035,
      "d": 1091.0092083333293,
      "v": 56
    },
    {
      "midi": 49,
      "hit": false,
      "t": 126315.84000000035,
      "d": 1250.0004999999946,
      "v": 54
    },
    {
      "midi": 42,
      "hit": false,
      "t": 126315.84000000035,
      "d": 1293.8601666666655,
      "v": 60
    },
    {
      "midi": 56,
      "hit": false,
      "t": 126315.84000000035,
      "d": 487.9387916666601,
      "v": 55
    },
    {
      "midi": 58,
      "hit": false,
      "t": 126315.84000000035,
      "d": 677.0836041666626,
      "v": 62
    },
    {
      "midi": 66,
      "hit": false,
      "t": 126315.84000000035,
      "d": 1052.6319999999978,
      "v": 57
    },
    {
      "midi": 61,
      "hit": false,
      "t": 126315.84000000035,
      "d": 1091.0092083333293,
      "v": 56
    },
    {
      "midi": 49,
      "hit": false,
      "t": 126315.84000000035,
      "d": 1250.0004999999946,
      "v": 54
    },
    {
      "midi": 42,
      "hit": false,
      "t": 126315.84000000035,
      "d": 1293.8601666666655,
      "v": 60
    },
    {
      "midi": 56,
      "hit": false,
      "t": 126842.15600000034,
      "d": 581.140583333341,
      "v": 52
    },
    {
      "midi": 56,
      "hit": false,
      "t": 126842.15600000034,
      "d": 581.140583333341,
      "v": 52
    },
    {
      "midi": 58,
      "hit": false,
      "t": 127368.47200000034,
      "d": 115.13162499999453,
      "v": 67
    },
    {
      "midi": 58,
      "hit": false,
      "t": 127368.47200000034,
      "d": 115.13162499999453,
      "v": 67
    },
    {
      "midi": 37,
      "hit": false,
      "t": 127719.34933333368,
      "d": 1060.8556874999922,
      "v": 82
    },
    {
      "midi": 37,
      "hit": false,
      "t": 127719.34933333368,
      "d": 1060.8556874999922,
      "v": 82
    },
    {
      "midi": 56,
      "hit": false,
      "t": 127894.78800000035,
      "d": 394.7369999999937,
      "v": 104
    },
    {
      "midi": 65,
      "hit": false,
      "t": 127894.78800000035,
      "d": 515.3510833333276,
      "v": 85
    },
    {
      "midi": 49,
      "hit": false,
      "t": 127894.78800000035,
      "d": 1049.8907708333281,
      "v": 73
    },
    {
      "midi": 42,
      "hit": false,
      "t": 127894.78800000035,
      "d": 1066.3381458333315,
      "v": 82
    },
    {
      "midi": 56,
      "hit": false,
      "t": 127894.78800000035,
      "d": 394.7369999999937,
      "v": 104
    },
    {
      "midi": 65,
      "hit": false,
      "t": 127894.78800000035,
      "d": 515.3510833333276,
      "v": 85
    },
    {
      "midi": 49,
      "hit": false,
      "t": 127894.78800000035,
      "d": 1049.8907708333281,
      "v": 73
    },
    {
      "midi": 42,
      "hit": false,
      "t": 127894.78800000035,
      "d": 1066.3381458333315,
      "v": 82
    },
    {
      "midi": 54,
      "hit": false,
      "t": 128421.10400000034,
      "d": 561.951979166668,
      "v": 91
    },
    {
      "midi": 63,
      "hit": false,
      "t": 128421.10400000034,
      "d": 583.8818124999962,
      "v": 80
    },
    {
      "midi": 54,
      "hit": false,
      "t": 128421.10400000034,
      "d": 561.951979166668,
      "v": 91
    },
    {
      "midi": 63,
      "hit": false,
      "t": 128421.10400000034,
      "d": 583.8818124999962,
      "v": 80
    },
    {
      "midi": 61,
      "hit": false,
      "t": 128947.42000000035,
      "d": 57.56581249998999,
      "v": 91
    },
    {
      "midi": 61,
      "hit": false,
      "t": 128947.42000000035,
      "d": 57.56581249998999,
      "v": 91
    },
    {
      "midi": 46,
      "hit": false,
      "t": 129473.73600000034,
      "d": 27.412291666667443,
      "v": 46
    },
    {
      "midi": 58,
      "hit": false,
      "t": 129473.73600000034,
      "d": 849.7810416666762,
      "v": 66
    },
    {
      "midi": 61,
      "hit": false,
      "t": 129473.73600000034,
      "d": 868.9696458333492,
      "v": 64
    },
    {
      "midi": 54,
      "hit": false,
      "t": 129473.73600000034,
      "d": 984.1012708333437,
      "v": 62
    },
    {
      "midi": 63,
      "hit": false,
      "t": 129473.73600000034,
      "d": 1091.0092083333438,
      "v": 61
    },
    {
      "midi": 51,
      "hit": false,
      "t": 129473.73600000034,
      "d": 1263.706645833343,
      "v": 68
    },
    {
      "midi": 39,
      "hit": false,
      "t": 129473.73600000034,
      "d": 2735.746708333332,
      "v": 71
    },
    {
      "midi": 46,
      "hit": false,
      "t": 129473.73600000034,
      "d": 27.412291666667443,
      "v": 46
    },
    {
      "midi": 58,
      "hit": false,
      "t": 129473.73600000034,
      "d": 849.7810416666762,
      "v": 66
    },
    {
      "midi": 61,
      "hit": false,
      "t": 129473.73600000034,
      "d": 868.9696458333492,
      "v": 64
    },
    {
      "midi": 54,
      "hit": false,
      "t": 129473.73600000034,
      "d": 984.1012708333437,
      "v": 62
    },
    {
      "midi": 63,
      "hit": false,
      "t": 129473.73600000034,
      "d": 1091.0092083333438,
      "v": 61
    },
    {
      "midi": 51,
      "hit": false,
      "t": 129473.73600000034,
      "d": 1263.706645833343,
      "v": 68
    },
    {
      "midi": 39,
      "hit": false,
      "t": 129473.73600000034,
      "d": 2735.746708333332,
      "v": 71
    },
    {
      "midi": 58,
      "hit": false,
      "t": 130526.36800000035,
      "d": 38.37720833333151,
      "v": 57
    },
    {
      "midi": 58,
      "hit": false,
      "t": 130526.36800000035,
      "d": 38.37720833333151,
      "v": 57
    },
    {
      "midi": 46,
      "hit": false,
      "t": 130877.24533333369,
      "d": 1373.3558124999836,
      "v": 68
    },
    {
      "midi": 46,
      "hit": false,
      "t": 130877.24533333369,
      "d": 1373.3558124999836,
      "v": 68
    },
    {
      "midi": 66,
      "hit": false,
      "t": 131052.68400000036,
      "d": 468.7501874999725,
      "v": 82
    },
    {
      "midi": 58,
      "hit": false,
      "t": 131052.68400000036,
      "d": 474.23264583331184,
      "v": 88
    },
    {
      "midi": 54,
      "hit": false,
      "t": 131052.68400000036,
      "d": 476.97387499996694,
      "v": 88
    },
    {
      "midi": 61,
      "hit": false,
      "t": 131052.68400000036,
      "d": 476.97387499996694,
      "v": 82
    },
    {
      "midi": 70,
      "hit": false,
      "t": 131052.68400000036,
      "d": 487.93879166664556,
      "v": 82
    },
    {
      "midi": 66,
      "hit": false,
      "t": 131052.68400000036,
      "d": 468.7501874999725,
      "v": 82
    },
    {
      "midi": 58,
      "hit": false,
      "t": 131052.68400000036,
      "d": 474.23264583331184,
      "v": 88
    },
    {
      "midi": 54,
      "hit": false,
      "t": 131052.68400000036,
      "d": 476.97387499996694,
      "v": 88
    },
    {
      "midi": 61,
      "hit": false,
      "t": 131052.68400000036,
      "d": 476.97387499996694,
      "v": 82
    },
    {
      "midi": 70,
      "hit": false,
      "t": 131052.68400000036,
      "d": 487.93879166664556,
      "v": 82
    },
    {
      "midi": 56,
      "hit": false,
      "t": 131929.87733333366,
      "d": 416.66683333335095,
      "v": 91
    },
    {
      "midi": 58,
      "hit": false,
      "t": 131929.87733333366,
      "d": 419.40806250000605,
      "v": 91
    },
    {
      "midi": 61,
      "hit": false,
      "t": 131929.87733333366,
      "d": 419.40806250000605,
      "v": 80
    },
    {
      "midi": 66,
      "hit": false,
      "t": 131929.87733333366,
      "d": 433.1142083333398,
      "v": 95
    },
    {
      "midi": 56,
      "hit": false,
      "t": 131929.87733333366,
      "d": 416.66683333335095,
      "v": 91
    },
    {
      "midi": 58,
      "hit": false,
      "t": 131929.87733333366,
      "d": 419.40806250000605,
      "v": 91
    },
    {
      "midi": 61,
      "hit": false,
      "t": 131929.87733333366,
      "d": 419.40806250000605,
      "v": 80
    },
    {
      "midi": 66,
      "hit": false,
      "t": 131929.87733333366,
      "d": 433.1142083333398,
      "v": 95
    },
    {
      "midi": 56,
      "hit": false,
      "t": 132631.63200000033,
      "d": 487.93879166667466,
      "v": 71
    },
    {
      "midi": 58,
      "hit": false,
      "t": 132631.63200000033,
      "d": 578.3993541667005,
      "v": 74
    },
    {
      "midi": 61,
      "hit": false,
      "t": 132631.63200000033,
      "d": 597.5879583333735,
      "v": 63
    },
    {
      "midi": 54,
      "hit": false,
      "t": 132631.63200000033,
      "d": 1208.8820625000517,
      "v": 66
    },
    {
      "midi": 49,
      "hit": false,
      "t": 132631.63200000033,
      "d": 1329.496145833371,
      "v": 71
    },
    {
      "midi": 42,
      "hit": false,
      "t": 132631.63200000033,
      "d": 2645.286145833408,
      "v": 80
    },
    {
      "midi": 56,
      "hit": false,
      "t": 132631.63200000033,
      "d": 487.93879166667466,
      "v": 71
    },
    {
      "midi": 58,
      "hit": false,
      "t": 132631.63200000033,
      "d": 578.3993541667005,
      "v": 74
    },
    {
      "midi": 61,
      "hit": false,
      "t": 132631.63200000033,
      "d": 597.5879583333735,
      "v": 63
    },
    {
      "midi": 54,
      "hit": false,
      "t": 132631.63200000033,
      "d": 1208.8820625000517,
      "v": 66
    },
    {
      "midi": 49,
      "hit": false,
      "t": 132631.63200000033,
      "d": 1329.496145833371,
      "v": 71
    },
    {
      "midi": 42,
      "hit": false,
      "t": 132631.63200000033,
      "d": 2645.286145833408,
      "v": 80
    },
    {
      "midi": 56,
      "hit": false,
      "t": 133157.94800000035,
      "d": 65.7895000000135,
      "v": 80
    },
    {
      "midi": 56,
      "hit": false,
      "t": 133157.94800000035,
      "d": 65.7895000000135,
      "v": 80
    },
    {
      "midi": 66,
      "hit": false,
      "t": 133684.26400000037,
      "d": 290.57029166666325,
      "v": 91
    },
    {
      "midi": 66,
      "hit": false,
      "t": 133684.26400000037,
      "d": 290.57029166666325,
      "v": 91
    },
    {
      "midi": 68,
      "hit": false,
      "t": 134035.1413333337,
      "d": 183.66235416664858,
      "v": 78
    },
    {
      "midi": 68,
      "hit": false,
      "t": 134035.1413333337,
      "d": 183.66235416664858,
      "v": 78
    },
    {
      "midi": 61,
      "hit": false,
      "t": 134210.58000000037,
      "d": 427.63175000000047,
      "v": 73
    },
    {
      "midi": 66,
      "hit": false,
      "t": 134210.58000000037,
      "d": 501.6449375000084,
      "v": 80
    },
    {
      "midi": 70,
      "hit": false,
      "t": 134210.58000000037,
      "d": 792.2152291667007,
      "v": 80
    },
    {
      "midi": 58,
      "hit": false,
      "t": 134210.58000000037,
      "d": 1030.7021666667133,
      "v": 73
    },
    {
      "midi": 49,
      "hit": false,
      "t": 134210.58000000037,
      "d": 1049.8907708333863,
      "v": 73
    },
    {
      "midi": 61,
      "hit": false,
      "t": 134210.58000000037,
      "d": 427.63175000000047,
      "v": 73
    },
    {
      "midi": 66,
      "hit": false,
      "t": 134210.58000000037,
      "d": 501.6449375000084,
      "v": 80
    },
    {
      "midi": 70,
      "hit": false,
      "t": 134210.58000000037,
      "d": 792.2152291667007,
      "v": 80
    },
    {
      "midi": 58,
      "hit": false,
      "t": 134210.58000000037,
      "d": 1030.7021666667133,
      "v": 73
    },
    {
      "midi": 49,
      "hit": false,
      "t": 134210.58000000037,
      "d": 1049.8907708333863,
      "v": 73
    },
    {
      "midi": 73,
      "hit": false,
      "t": 134736.8960000004,
      "d": 537.2809166666993,
      "v": 82
    },
    {
      "midi": 61,
      "hit": false,
      "t": 134736.8960000004,
      "d": 729.1669583333423,
      "v": 73
    },
    {
      "midi": 73,
      "hit": false,
      "t": 134736.8960000004,
      "d": 537.2809166666993,
      "v": 82
    },
    {
      "midi": 61,
      "hit": false,
      "t": 134736.8960000004,
      "d": 729.1669583333423,
      "v": 73
    },
    {
      "midi": 66,
      "hit": false,
      "t": 135263.2120000004,
      "d": 200.1097291666665,
      "v": 104
    },
    {
      "midi": 70,
      "hit": false,
      "t": 135263.2120000004,
      "d": 222.03956249999464,
      "v": 95
    },
    {
      "midi": 66,
      "hit": false,
      "t": 135263.2120000004,
      "d": 200.1097291666665,
      "v": 104
    },
    {
      "midi": 70,
      "hit": false,
      "t": 135263.2120000004,
      "d": 222.03956249999464,
      "v": 95
    },
    {
      "midi": 68,
      "hit": false,
      "t": 135789.5280000004,
      "d": 515.3510833333421,
      "v": 88
    },
    {
      "midi": 65,
      "hit": false,
      "t": 135789.5280000004,
      "d": 526.3160000000207,
      "v": 85
    },
    {
      "midi": 61,
      "hit": false,
      "t": 135789.5280000004,
      "d": 583.8818125000107,
      "v": 82
    },
    {
      "midi": 49,
      "hit": false,
      "t": 135789.5280000004,
      "d": 1134.8688750000147,
      "v": 59
    },
    {
      "midi": 37,
      "hit": false,
      "t": 135789.5280000004,
      "d": 1181.4697708333551,
      "v": 67
    },
    {
      "midi": 68,
      "hit": false,
      "t": 135789.5280000004,
      "d": 515.3510833333421,
      "v": 88
    },
    {
      "midi": 65,
      "hit": false,
      "t": 135789.5280000004,
      "d": 526.3160000000207,
      "v": 85
    },
    {
      "midi": 61,
      "hit": false,
      "t": 135789.5280000004,
      "d": 583.8818125000107,
      "v": 82
    },
    {
      "midi": 49,
      "hit": false,
      "t": 135789.5280000004,
      "d": 1134.8688750000147,
      "v": 59
    },
    {
      "midi": 37,
      "hit": false,
      "t": 135789.5280000004,
      "d": 1181.4697708333551,
      "v": 67
    },
    {
      "midi": 65,
      "hit": false,
      "t": 136842.1600000004,
      "d": 241.22816666666768,
      "v": 71
    },
    {
      "midi": 56,
      "hit": false,
      "t": 136842.1600000004,
      "d": 254.9343125000014,
      "v": 73
    },
    {
      "midi": 61,
      "hit": false,
      "t": 136842.1600000004,
      "d": 254.9343125000014,
      "v": 61
    },
    {
      "midi": 65,
      "hit": false,
      "t": 136842.1600000004,
      "d": 241.22816666666768,
      "v": 71
    },
    {
      "midi": 56,
      "hit": false,
      "t": 136842.1600000004,
      "d": 254.9343125000014,
      "v": 73
    },
    {
      "midi": 61,
      "hit": false,
      "t": 136842.1600000004,
      "d": 254.9343125000014,
      "v": 61
    },
    {
      "midi": 56,
      "hit": false,
      "t": 137368.4760000004,
      "d": 589.36427083335,
      "v": 82
    },
    {
      "midi": 61,
      "hit": false,
      "t": 137368.4760000004,
      "d": 625.0002500000119,
      "v": 80
    },
    {
      "midi": 58,
      "hit": false,
      "t": 137368.4760000004,
      "d": 630.4827083333512,
      "v": 88
    },
    {
      "midi": 34,
      "hit": false,
      "t": 137368.4760000004,
      "d": 668.8599166666972,
      "v": 88
    },
    {
      "midi": 46,
      "hit": false,
      "t": 137368.4760000004,
      "d": 885.4170208333526,
      "v": 80
    },
    {
      "midi": 56,
      "hit": false,
      "t": 137368.4760000004,
      "d": 589.36427083335,
      "v": 82
    },
    {
      "midi": 61,
      "hit": false,
      "t": 137368.4760000004,
      "d": 625.0002500000119,
      "v": 80
    },
    {
      "midi": 58,
      "hit": false,
      "t": 137368.4760000004,
      "d": 630.4827083333512,
      "v": 88
    },
    {
      "midi": 34,
      "hit": false,
      "t": 137368.4760000004,
      "d": 668.8599166666972,
      "v": 88
    },
    {
      "midi": 46,
      "hit": false,
      "t": 137368.4760000004,
      "d": 885.4170208333526,
      "v": 80
    },
    {
      "midi": 58,
      "hit": false,
      "t": 138421.10800000041,
      "d": 101.42547916667536,
      "v": 88
    },
    {
      "midi": 61,
      "hit": false,
      "t": 138421.10800000041,
      "d": 109.64916666666977,
      "v": 71
    },
    {
      "midi": 58,
      "hit": false,
      "t": 138421.10800000041,
      "d": 101.42547916667536,
      "v": 88
    },
    {
      "midi": 61,
      "hit": false,
      "t": 138421.10800000041,
      "d": 109.64916666666977,
      "v": 71
    },
    {
      "midi": 58,
      "hit": false,
      "t": 138947.42400000044,
      "d": 394.7369999999937,
      "v": 61
    },
    {
      "midi": 68,
      "hit": false,
      "t": 138947.42400000044,
      "d": 487.93879166667466,
      "v": 64
    },
    {
      "midi": 60,
      "hit": false,
      "t": 138947.42400000044,
      "d": 550.9870625000331,
      "v": 66
    },
    {
      "midi": 63,
      "hit": false,
      "t": 138947.42400000044,
      "d": 586.6230416666949,
      "v": 57
    },
    {
      "midi": 51,
      "hit": false,
      "t": 138947.42400000044,
      "d": 1351.425979166699,
      "v": 64
    },
    {
      "midi": 44,
      "hit": false,
      "t": 138947.42400000044,
      "d": 1362.3908958333777,
      "v": 60
    },
    {
      "midi": 58,
      "hit": false,
      "t": 138947.42400000044,
      "d": 394.7369999999937,
      "v": 61
    },
    {
      "midi": 68,
      "hit": false,
      "t": 138947.42400000044,
      "d": 487.93879166667466,
      "v": 64
    },
    {
      "midi": 60,
      "hit": false,
      "t": 138947.42400000044,
      "d": 550.9870625000331,
      "v": 66
    },
    {
      "midi": 63,
      "hit": false,
      "t": 138947.42400000044,
      "d": 586.6230416666949,
      "v": 57
    },
    {
      "midi": 51,
      "hit": false,
      "t": 138947.42400000044,
      "d": 1351.425979166699,
      "v": 64
    },
    {
      "midi": 44,
      "hit": false,
      "t": 138947.42400000044,
      "d": 1362.3908958333777,
      "v": 60
    },
    {
      "midi": 58,
      "hit": false,
      "t": 139473.74000000046,
      "d": 79.49564583334723,
      "v": 1
    },
    {
      "midi": 58,
      "hit": false,
      "t": 139473.74000000046,
      "d": 79.49564583334723,
      "v": 1
    },
    {
      "midi": 60,
      "hit": false,
      "t": 140000.05600000048,
      "d": 271.3816874999902,
      "v": 82
    },
    {
      "midi": 60,
      "hit": false,
      "t": 140000.05600000048,
      "d": 271.3816874999902,
      "v": 82
    },
    {
      "midi": 60,
      "hit": false,
      "t": 140526.37200000047,
      "d": 339.9124166666588,
      "v": 82
    },
    {
      "midi": 56,
      "hit": false,
      "t": 140526.37200000047,
      "d": 342.65364583331393,
      "v": 88
    },
    {
      "midi": 68,
      "hit": false,
      "t": 140526.37200000047,
      "d": 970.3951249999809,
      "v": 78
    },
    {
      "midi": 51,
      "hit": false,
      "t": 140526.37200000047,
      "d": 1145.8337916666642,
      "v": 78
    },
    {
      "midi": 44,
      "hit": false,
      "t": 140526.37200000047,
      "d": 1200.658374999999,
      "v": 68
    },
    {
      "midi": 60,
      "hit": false,
      "t": 140526.37200000047,
      "d": 339.9124166666588,
      "v": 82
    },
    {
      "midi": 56,
      "hit": false,
      "t": 140526.37200000047,
      "d": 342.65364583331393,
      "v": 88
    },
    {
      "midi": 68,
      "hit": false,
      "t": 140526.37200000047,
      "d": 970.3951249999809,
      "v": 78
    },
    {
      "midi": 51,
      "hit": false,
      "t": 140526.37200000047,
      "d": 1145.8337916666642,
      "v": 78
    },
    {
      "midi": 44,
      "hit": false,
      "t": 140526.37200000047,
      "d": 1200.658374999999,
      "v": 68
    },
    {
      "midi": 61,
      "hit": false,
      "t": 141052.68800000046,
      "d": 378.2896249999758,
      "v": 95
    },
    {
      "midi": 58,
      "hit": false,
      "t": 141052.68800000046,
      "d": 468.75018750000163,
      "v": 104
    },
    {
      "midi": 61,
      "hit": false,
      "t": 141052.68800000046,
      "d": 378.2896249999758,
      "v": 95
    },
    {
      "midi": 58,
      "hit": false,
      "t": 141052.68800000046,
      "d": 468.75018750000163,
      "v": 104
    },
    {
      "midi": 65,
      "hit": false,
      "t": 141579.00400000045,
      "d": 252.1930833333463,
      "v": 85
    },
    {
      "midi": 61,
      "hit": false,
      "t": 141579.00400000045,
      "d": 254.9343125000014,
      "v": 80
    },
    {
      "midi": 65,
      "hit": false,
      "t": 141579.00400000045,
      "d": 252.1930833333463,
      "v": 85
    },
    {
      "midi": 61,
      "hit": false,
      "t": 141579.00400000045,
      "d": 254.9343125000014,
      "v": 80
    },
    {
      "midi": 58,
      "hit": false,
      "t": 142105.32000000044,
      "d": 572.9168958333321,
      "v": 57
    },
    {
      "midi": 61,
      "hit": false,
      "t": 142105.32000000044,
      "d": 844.2985833333223,
      "v": 57
    },
    {
      "midi": 66,
      "hit": false,
      "t": 142105.32000000044,
      "d": 1110.1978124999732,
      "v": 71
    },
    {
      "midi": 51,
      "hit": false,
      "t": 142105.32000000044,
      "d": 1228.0706666666374,
      "v": 68
    },
    {
      "midi": 39,
      "hit": false,
      "t": 142105.32000000044,
      "d": 2735.7467083332594,
      "v": 74
    },
    {
      "midi": 58,
      "hit": false,
      "t": 142105.32000000044,
      "d": 572.9168958333321,
      "v": 57
    },
    {
      "midi": 61,
      "hit": false,
      "t": 142105.32000000044,
      "d": 844.2985833333223,
      "v": 57
    },
    {
      "midi": 66,
      "hit": false,
      "t": 142105.32000000044,
      "d": 1110.1978124999732,
      "v": 71
    },
    {
      "midi": 51,
      "hit": false,
      "t": 142105.32000000044,
      "d": 1228.0706666666374,
      "v": 68
    },
    {
      "midi": 39,
      "hit": false,
      "t": 142105.32000000044,
      "d": 2735.7467083332594,
      "v": 74
    },
    {
      "midi": 54,
      "hit": false,
      "t": 142631.63600000044,
      "d": 422.14929166666116,
      "v": 59
    },
    {
      "midi": 54,
      "hit": false,
      "t": 142631.63600000044,
      "d": 422.14929166666116,
      "v": 59
    },
    {
      "midi": 54,
      "hit": false,
      "t": 143157.95200000043,
      "d": 27.412291666667443,
      "v": 53
    },
    {
      "midi": 58,
      "hit": false,
      "t": 143157.95200000043,
      "d": 54.824583333334886,
      "v": 80
    },
    {
      "midi": 54,
      "hit": false,
      "t": 143157.95200000043,
      "d": 27.412291666667443,
      "v": 53
    },
    {
      "midi": 58,
      "hit": false,
      "t": 143157.95200000043,
      "d": 54.824583333334886,
      "v": 80
    },
    {
      "midi": 61,
      "hit": false,
      "t": 143684.26800000042,
      "d": 603.0704166666546,
      "v": 82
    },
    {
      "midi": 65,
      "hit": false,
      "t": 143684.26800000042,
      "d": 646.9300833333109,
      "v": 82
    },
    {
      "midi": 68,
      "hit": false,
      "t": 143684.26800000042,
      "d": 682.5660624999728,
      "v": 82
    },
    {
      "midi": 56,
      "hit": false,
      "t": 143684.26800000042,
      "d": 718.2020416666346,
      "v": 91
    },
    {
      "midi": 51,
      "hit": false,
      "t": 143684.26800000042,
      "d": 1252.7417291666206,
      "v": 80
    },
    {
      "midi": 61,
      "hit": false,
      "t": 143684.26800000042,
      "d": 603.0704166666546,
      "v": 82
    },
    {
      "midi": 65,
      "hit": false,
      "t": 143684.26800000042,
      "d": 646.9300833333109,
      "v": 82
    },
    {
      "midi": 68,
      "hit": false,
      "t": 143684.26800000042,
      "d": 682.5660624999728,
      "v": 82
    },
    {
      "midi": 56,
      "hit": false,
      "t": 143684.26800000042,
      "d": 718.2020416666346,
      "v": 91
    },
    {
      "midi": 51,
      "hit": false,
      "t": 143684.26800000042,
      "d": 1252.7417291666206,
      "v": 80
    },
    {
      "midi": 68,
      "hit": false,
      "t": 144561.46133333372,
      "d": 394.7369999999937,
      "v": 88
    },
    {
      "midi": 60,
      "hit": false,
      "t": 144561.46133333372,
      "d": 400.219458333333,
      "v": 95
    },
    {
      "midi": 56,
      "hit": false,
      "t": 144561.46133333372,
      "d": 416.66683333332185,
      "v": 91
    },
    {
      "midi": 63,
      "hit": false,
      "t": 144561.46133333372,
      "d": 419.40806249997695,
      "v": 82
    },
    {
      "midi": 68,
      "hit": false,
      "t": 144561.46133333372,
      "d": 394.7369999999937,
      "v": 88
    },
    {
      "midi": 60,
      "hit": false,
      "t": 144561.46133333372,
      "d": 400.219458333333,
      "v": 95
    },
    {
      "midi": 56,
      "hit": false,
      "t": 144561.46133333372,
      "d": 416.66683333332185,
      "v": 91
    },
    {
      "midi": 63,
      "hit": false,
      "t": 144561.46133333372,
      "d": 419.40806249997695,
      "v": 82
    },
    {
      "midi": 56,
      "hit": false,
      "t": 145263.21600000036,
      "d": 413.92560416669585,
      "v": 67
    },
    {
      "midi": 66,
      "hit": false,
      "t": 145263.21600000036,
      "d": 504.3861666666926,
      "v": 71
    },
    {
      "midi": 61,
      "hit": false,
      "t": 145263.21600000036,
      "d": 518.0923125000263,
      "v": 63
    },
    {
      "midi": 58,
      "hit": false,
      "t": 145263.21600000036,
      "d": 520.8335416666814,
      "v": 71
    },
    {
      "midi": 49,
      "hit": false,
      "t": 145263.21600000036,
      "d": 2568.531729166687,
      "v": 71
    },
    {
      "midi": 42,
      "hit": false,
      "t": 145263.21600000036,
      "d": 2606.908937500033,
      "v": 74
    },
    {
      "midi": 56,
      "hit": false,
      "t": 145263.21600000036,
      "d": 413.92560416669585,
      "v": 67
    },
    {
      "midi": 66,
      "hit": false,
      "t": 145263.21600000036,
      "d": 504.3861666666926,
      "v": 71
    },
    {
      "midi": 61,
      "hit": false,
      "t": 145263.21600000036,
      "d": 518.0923125000263,
      "v": 63
    },
    {
      "midi": 58,
      "hit": false,
      "t": 145263.21600000036,
      "d": 520.8335416666814,
      "v": 71
    },
    {
      "midi": 49,
      "hit": false,
      "t": 145263.21600000036,
      "d": 2568.531729166687,
      "v": 71
    },
    {
      "midi": 42,
      "hit": false,
      "t": 145263.21600000036,
      "d": 2606.908937500033,
      "v": 74
    },
    {
      "midi": 56,
      "hit": false,
      "t": 145789.53200000038,
      "d": 52.08335416667978,
      "v": 78
    },
    {
      "midi": 56,
      "hit": false,
      "t": 145789.53200000038,
      "d": 52.08335416667978,
      "v": 78
    },
    {
      "midi": 73,
      "hit": false,
      "t": 146315.8480000004,
      "d": 444.0791249999893,
      "v": 73
    },
    {
      "midi": 61,
      "hit": false,
      "t": 146315.8480000004,
      "d": 498.9037083333242,
      "v": 88
    },
    {
      "midi": 73,
      "hit": false,
      "t": 146315.8480000004,
      "d": 444.0791249999893,
      "v": 73
    },
    {
      "midi": 61,
      "hit": false,
      "t": 146315.8480000004,
      "d": 498.9037083333242,
      "v": 88
    },
    {
      "midi": 68,
      "hit": false,
      "t": 146842.1640000004,
      "d": 561.9519791666535,
      "v": 88
    },
    {
      "midi": 58,
      "hit": false,
      "t": 146842.1640000004,
      "d": 967.6538958333258,
      "v": 80
    },
    {
      "midi": 73,
      "hit": false,
      "t": 146842.1640000004,
      "d": 1071.8206041666854,
      "v": 80
    },
    {
      "midi": 61,
      "hit": false,
      "t": 146842.1640000004,
      "d": 1096.4916666666977,
      "v": 71
    },
    {
      "midi": 68,
      "hit": false,
      "t": 146842.1640000004,
      "d": 561.9519791666535,
      "v": 88
    },
    {
      "midi": 58,
      "hit": false,
      "t": 146842.1640000004,
      "d": 967.6538958333258,
      "v": 80
    },
    {
      "midi": 73,
      "hit": false,
      "t": 146842.1640000004,
      "d": 1071.8206041666854,
      "v": 80
    },
    {
      "midi": 61,
      "hit": false,
      "t": 146842.1640000004,
      "d": 1096.4916666666977,
      "v": 71
    },
    {
      "midi": 70,
      "hit": false,
      "t": 147368.4800000004,
      "d": 564.6932083333668,
      "v": 66
    },
    {
      "midi": 70,
      "hit": false,
      "t": 147368.4800000004,
      "d": 564.6932083333668,
      "v": 66
    },
    {
      "midi": 66,
      "hit": false,
      "t": 147894.7960000004,
      "d": 87.71933333334164,
      "v": 71
    },
    {
      "midi": 66,
      "hit": false,
      "t": 147894.7960000004,
      "d": 87.71933333334164,
      "v": 71
    },
    {
      "midi": 56,
      "hit": false,
      "t": 148421.1120000004,
      "d": 337.1711875000037,
      "v": 73
    },
    {
      "midi": 61,
      "hit": false,
      "t": 148421.1120000004,
      "d": 583.8818124999816,
      "v": 71
    },
    {
      "midi": 49,
      "hit": false,
      "t": 148421.1120000004,
      "d": 1074.5618333333114,
      "v": 66
    },
    {
      "midi": 65,
      "hit": false,
      "t": 148421.1120000004,
      "d": 1093.7504374999844,
      "v": 74
    },
    {
      "midi": 68,
      "hit": false,
      "t": 148421.1120000004,
      "d": 1099.2328958333237,
      "v": 78
    },
    {
      "midi": 37,
      "hit": false,
      "t": 148421.1120000004,
      "d": 1107.4565833333181,
      "v": 68
    },
    {
      "midi": 56,
      "hit": false,
      "t": 148421.1120000004,
      "d": 337.1711875000037,
      "v": 73
    },
    {
      "midi": 61,
      "hit": false,
      "t": 148421.1120000004,
      "d": 583.8818124999816,
      "v": 71
    },
    {
      "midi": 49,
      "hit": false,
      "t": 148421.1120000004,
      "d": 1074.5618333333114,
      "v": 66
    },
    {
      "midi": 65,
      "hit": false,
      "t": 148421.1120000004,
      "d": 1093.7504374999844,
      "v": 74
    },
    {
      "midi": 68,
      "hit": false,
      "t": 148421.1120000004,
      "d": 1099.2328958333237,
      "v": 78
    },
    {
      "midi": 37,
      "hit": false,
      "t": 148421.1120000004,
      "d": 1107.4565833333181,
      "v": 68
    },
    {
      "midi": 56,
      "hit": false,
      "t": 148947.4280000004,
      "d": 561.9519791666535,
      "v": 61
    },
    {
      "midi": 56,
      "hit": false,
      "t": 148947.4280000004,
      "d": 561.9519791666535,
      "v": 61
    },
    {
      "midi": 61,
      "hit": false,
      "t": 149473.74400000038,
      "d": 106.90793750001467,
      "v": 68
    },
    {
      "midi": 61,
      "hit": false,
      "t": 149473.74400000038,
      "d": 106.90793750001467,
      "v": 68
    },
    {
      "midi": 58,
      "hit": false,
      "t": 150000.06000000038,
      "d": 411.18437499998254,
      "v": 78
    },
    {
      "midi": 61,
      "hit": false,
      "t": 150000.06000000038,
      "d": 581.1405833333265,
      "v": 74
    },
    {
      "midi": 68,
      "hit": false,
      "t": 150000.06000000038,
      "d": 855.2635000000009,
      "v": 58
    },
    {
      "midi": 66,
      "hit": false,
      "t": 150000.06000000038,
      "d": 893.640708333347,
      "v": 68
    },
    {
      "midi": 46,
      "hit": false,
      "t": 150000.06000000038,
      "d": 1175.9873125000158,
      "v": 74
    },
    {
      "midi": 34,
      "hit": false,
      "t": 150000.06000000038,
      "d": 1184.2110000000102,
      "v": 80
    },
    {
      "midi": 58,
      "hit": false,
      "t": 150000.06000000038,
      "d": 411.18437499998254,
      "v": 78
    },
    {
      "midi": 61,
      "hit": false,
      "t": 150000.06000000038,
      "d": 581.1405833333265,
      "v": 74
    },
    {
      "midi": 68,
      "hit": false,
      "t": 150000.06000000038,
      "d": 855.2635000000009,
      "v": 58
    },
    {
      "midi": 66,
      "hit": false,
      "t": 150000.06000000038,
      "d": 893.640708333347,
      "v": 68
    },
    {
      "midi": 46,
      "hit": false,
      "t": 150000.06000000038,
      "d": 1175.9873125000158,
      "v": 74
    },
    {
      "midi": 34,
      "hit": false,
      "t": 150000.06000000038,
      "d": 1184.2110000000102,
      "v": 80
    },
    {
      "midi": 58,
      "hit": false,
      "t": 150526.37600000037,
      "d": 885.4170208333526,
      "v": 71
    },
    {
      "midi": 58,
      "hit": false,
      "t": 150526.37600000037,
      "d": 885.4170208333526,
      "v": 71
    },
    {
      "midi": 61,
      "hit": false,
      "t": 151052.6920000004,
      "d": 337.1711875000037,
      "v": 71
    },
    {
      "midi": 61,
      "hit": false,
      "t": 151052.6920000004,
      "d": 337.1711875000037,
      "v": 71
    },
    {
      "midi": 60,
      "hit": false,
      "t": 151579.0080000004,
      "d": 561.9519791666535,
      "v": 65
    },
    {
      "midi": 63,
      "hit": false,
      "t": 151579.0080000004,
      "d": 630.4827083333221,
      "v": 63
    },
    {
      "midi": 58,
      "hit": false,
      "t": 151579.0080000004,
      "d": 731.9081874999974,
      "v": 56
    },
    {
      "midi": 68,
      "hit": false,
      "t": 151579.0080000004,
      "d": 811.4038333333447,
      "v": 66
    },
    {
      "midi": 44,
      "hit": false,
      "t": 151579.0080000004,
      "d": 1214.364520833362,
      "v": 63
    },
    {
      "midi": 32,
      "hit": false,
      "t": 151579.0080000004,
      "d": 2787.8300624999974,
      "v": 63
    },
    {
      "midi": 60,
      "hit": false,
      "t": 151579.0080000004,
      "d": 561.9519791666535,
      "v": 65
    },
    {
      "midi": 63,
      "hit": false,
      "t": 151579.0080000004,
      "d": 630.4827083333221,
      "v": 63
    },
    {
      "midi": 58,
      "hit": false,
      "t": 151579.0080000004,
      "d": 731.9081874999974,
      "v": 56
    },
    {
      "midi": 68,
      "hit": false,
      "t": 151579.0080000004,
      "d": 811.4038333333447,
      "v": 66
    },
    {
      "midi": 44,
      "hit": false,
      "t": 151579.0080000004,
      "d": 1214.364520833362,
      "v": 63
    },
    {
      "midi": 32,
      "hit": false,
      "t": 151579.0080000004,
      "d": 2787.8300624999974,
      "v": 63
    },
    {
      "midi": 58,
      "hit": false,
      "t": 152631.64000000042,
      "d": 57.56581249998999,
      "v": 59
    },
    {
      "midi": 60,
      "hit": false,
      "t": 152631.64000000042,
      "d": 104.16670833333046,
      "v": 56
    },
    {
      "midi": 63,
      "hit": false,
      "t": 152631.64000000042,
      "d": 109.64916666666977,
      "v": 62
    },
    {
      "midi": 58,
      "hit": false,
      "t": 152631.64000000042,
      "d": 57.56581249998999,
      "v": 59
    },
    {
      "midi": 60,
      "hit": false,
      "t": 152631.64000000042,
      "d": 104.16670833333046,
      "v": 56
    },
    {
      "midi": 63,
      "hit": false,
      "t": 152631.64000000042,
      "d": 109.64916666666977,
      "v": 62
    },
    {
      "midi": 39,
      "hit": false,
      "t": 152982.51733333376,
      "d": 208.33341666666092,
      "v": 68
    },
    {
      "midi": 39,
      "hit": false,
      "t": 152982.51733333376,
      "d": 208.33341666666092,
      "v": 68
    },
    {
      "midi": 56,
      "hit": false,
      "t": 153157.9560000004,
      "d": 328.9475000000093,
      "v": 91
    },
    {
      "midi": 60,
      "hit": false,
      "t": 153157.9560000004,
      "d": 334.4299583333486,
      "v": 91
    },
    {
      "midi": 68,
      "hit": false,
      "t": 153157.9560000004,
      "d": 389.2545416666835,
      "v": 88
    },
    {
      "midi": 44,
      "hit": false,
      "t": 153157.9560000004,
      "d": 1096.4916666666686,
      "v": 109
    },
    {
      "midi": 56,
      "hit": false,
      "t": 153157.9560000004,
      "d": 328.9475000000093,
      "v": 91
    },
    {
      "midi": 60,
      "hit": false,
      "t": 153157.9560000004,
      "d": 334.4299583333486,
      "v": 91
    },
    {
      "midi": 68,
      "hit": false,
      "t": 153157.9560000004,
      "d": 389.2545416666835,
      "v": 88
    },
    {
      "midi": 44,
      "hit": false,
      "t": 153157.9560000004,
      "d": 1096.4916666666686,
      "v": 109
    },
    {
      "midi": 58,
      "hit": false,
      "t": 153684.27200000043,
      "d": 268.6404583333351,
      "v": 88
    },
    {
      "midi": 68,
      "hit": false,
      "t": 153684.27200000043,
      "d": 285.08783333332394,
      "v": 88
    },
    {
      "midi": 61,
      "hit": false,
      "t": 153684.27200000043,
      "d": 348.13610416665324,
      "v": 88
    },
    {
      "midi": 58,
      "hit": false,
      "t": 153684.27200000043,
      "d": 268.6404583333351,
      "v": 88
    },
    {
      "midi": 68,
      "hit": false,
      "t": 153684.27200000043,
      "d": 285.08783333332394,
      "v": 88
    },
    {
      "midi": 61,
      "hit": false,
      "t": 153684.27200000043,
      "d": 348.13610416665324,
      "v": 88
    },
    {
      "midi": 60,
      "hit": false,
      "t": 154210.58800000043,
      "d": 71.27195833332371,
      "v": 95
    },
    {
      "midi": 63,
      "hit": false,
      "t": 154210.58800000043,
      "d": 93.20179166665184,
      "v": 91
    },
    {
      "midi": 68,
      "hit": false,
      "t": 154210.58800000043,
      "d": 101.42547916664626,
      "v": 104
    },
    {
      "midi": 60,
      "hit": false,
      "t": 154210.58800000043,
      "d": 71.27195833332371,
      "v": 95
    },
    {
      "midi": 63,
      "hit": false,
      "t": 154210.58800000043,
      "d": 93.20179166665184,
      "v": 91
    },
    {
      "midi": 68,
      "hit": false,
      "t": 154210.58800000043,
      "d": 101.42547916664626,
      "v": 104
    },
    {
      "midi": 58,
      "hit": false,
      "t": 154736.90400000042,
      "d": 378.289625000034,
      "v": 74
    },
    {
      "midi": 27,
      "hit": false,
      "t": 154736.90400000042,
      "d": 561.9519791666826,
      "v": 63
    },
    {
      "midi": 61,
      "hit": false,
      "t": 154736.90400000042,
      "d": 592.1055000000051,
      "v": 68
    },
    {
      "midi": 39,
      "hit": false,
      "t": 154736.90400000042,
      "d": 696.2722083333356,
      "v": 71
    },
    {
      "midi": 70,
      "hit": false,
      "t": 154736.90400000042,
      "d": 1025.219708333345,
      "v": 78
    },
    {
      "midi": 66,
      "hit": false,
      "t": 154736.90400000042,
      "d": 1080.0442916666798,
      "v": 73
    },
    {
      "midi": 58,
      "hit": false,
      "t": 154736.90400000042,
      "d": 378.289625000034,
      "v": 74
    },
    {
      "midi": 27,
      "hit": false,
      "t": 154736.90400000042,
      "d": 561.9519791666826,
      "v": 63
    },
    {
      "midi": 61,
      "hit": false,
      "t": 154736.90400000042,
      "d": 592.1055000000051,
      "v": 68
    },
    {
      "midi": 39,
      "hit": false,
      "t": 154736.90400000042,
      "d": 696.2722083333356,
      "v": 71
    },
    {
      "midi": 70,
      "hit": false,
      "t": 154736.90400000042,
      "d": 1025.219708333345,
      "v": 78
    },
    {
      "midi": 66,
      "hit": false,
      "t": 154736.90400000042,
      "d": 1080.0442916666798,
      "v": 73
    },
    {
      "midi": 58,
      "hit": false,
      "t": 155263.22000000044,
      "d": 449.5615833333286,
      "v": 68
    },
    {
      "midi": 58,
      "hit": false,
      "t": 155263.22000000044,
      "d": 449.5615833333286,
      "v": 68
    },
    {
      "midi": 61,
      "hit": false,
      "t": 155789.53600000043,
      "d": 60.307041666674195,
      "v": 73
    },
    {
      "midi": 61,
      "hit": false,
      "t": 155789.53600000043,
      "d": 60.307041666674195,
      "v": 73
    },
    {
      "midi": 46,
      "hit": false,
      "t": 156140.41333333377,
      "d": 230.26324999998906,
      "v": 74
    },
    {
      "midi": 46,
      "hit": false,
      "t": 156140.41333333377,
      "d": 230.26324999998906,
      "v": 74
    },
    {
      "midi": 61,
      "hit": false,
      "t": 156315.85200000042,
      "d": 361.84224999998696,
      "v": 80
    },
    {
      "midi": 70,
      "hit": false,
      "t": 156315.85200000042,
      "d": 386.5133124999993,
      "v": 88
    },
    {
      "midi": 73,
      "hit": false,
      "t": 156315.85200000042,
      "d": 394.7369999999937,
      "v": 82
    },
    {
      "midi": 66,
      "hit": false,
      "t": 156315.85200000042,
      "d": 397.4782291666488,
      "v": 91
    },
    {
      "midi": 51,
      "hit": false,
      "t": 156315.85200000042,
      "d": 534.539687499986,
      "v": 88
    },
    {
      "midi": 39,
      "hit": false,
      "t": 156315.85200000042,
      "d": 1080.0442916666507,
      "v": 91
    },
    {
      "midi": 61,
      "hit": false,
      "t": 156315.85200000042,
      "d": 361.84224999998696,
      "v": 80
    },
    {
      "midi": 70,
      "hit": false,
      "t": 156315.85200000042,
      "d": 386.5133124999993,
      "v": 88
    },
    {
      "midi": 73,
      "hit": false,
      "t": 156315.85200000042,
      "d": 394.7369999999937,
      "v": 82
    },
    {
      "midi": 66,
      "hit": false,
      "t": 156315.85200000042,
      "d": 397.4782291666488,
      "v": 91
    },
    {
      "midi": 51,
      "hit": false,
      "t": 156315.85200000042,
      "d": 534.539687499986,
      "v": 88
    },
    {
      "midi": 39,
      "hit": false,
      "t": 156315.85200000042,
      "d": 1080.0442916666507,
      "v": 91
    },
    {
      "midi": 46,
      "hit": false,
      "t": 156842.1680000004,
      "d": 597.5879583333153,
      "v": 74
    },
    {
      "midi": 46,
      "hit": false,
      "t": 156842.1680000004,
      "d": 597.5879583333153,
      "v": 74
    },
    {
      "midi": 70,
      "hit": false,
      "t": 157193.04533333375,
      "d": 271.3816874999902,
      "v": 88
    },
    {
      "midi": 66,
      "hit": false,
      "t": 157193.04533333375,
      "d": 276.86414583332953,
      "v": 80
    },
    {
      "midi": 58,
      "hit": false,
      "t": 157193.04533333375,
      "d": 279.60537499998463,
      "v": 91
    },
    {
      "midi": 61,
      "hit": false,
      "t": 157193.04533333375,
      "d": 285.08783333332394,
      "v": 80
    },
    {
      "midi": 51,
      "hit": false,
      "t": 157193.04533333375,
      "d": 383.7720833333151,
      "v": 80
    },
    {
      "midi": 70,
      "hit": false,
      "t": 157193.04533333375,
      "d": 271.3816874999902,
      "v": 88
    },
    {
      "midi": 66,
      "hit": false,
      "t": 157193.04533333375,
      "d": 276.86414583332953,
      "v": 80
    },
    {
      "midi": 58,
      "hit": false,
      "t": 157193.04533333375,
      "d": 279.60537499998463,
      "v": 91
    },
    {
      "midi": 61,
      "hit": false,
      "t": 157193.04533333375,
      "d": 285.08783333332394,
      "v": 80
    },
    {
      "midi": 51,
      "hit": false,
      "t": 157193.04533333375,
      "d": 383.7720833333151,
      "v": 80
    },
    {
      "midi": 56,
      "hit": false,
      "t": 157894.8000000004,
      "d": 424.89052083334536,
      "v": 80
    },
    {
      "midi": 58,
      "hit": false,
      "t": 157894.8000000004,
      "d": 586.6230416666949,
      "v": 82
    },
    {
      "midi": 61,
      "hit": false,
      "t": 157894.8000000004,
      "d": 816.886291666684,
      "v": 71
    },
    {
      "midi": 66,
      "hit": false,
      "t": 157894.8000000004,
      "d": 1014.2547916666663,
      "v": 73
    },
    {
      "midi": 54,
      "hit": false,
      "t": 157894.8000000004,
      "d": 1104.7153541666921,
      "v": 71
    },
    {
      "midi": 49,
      "hit": false,
      "t": 157894.8000000004,
      "d": 1118.4215000000258,
      "v": 64
    },
    {
      "midi": 42,
      "hit": false,
      "t": 157894.8000000004,
      "d": 1137.6101041666989,
      "v": 80
    },
    {
      "midi": 56,
      "hit": false,
      "t": 157894.8000000004,
      "d": 424.89052083334536,
      "v": 80
    },
    {
      "midi": 58,
      "hit": false,
      "t": 157894.8000000004,
      "d": 586.6230416666949,
      "v": 82
    },
    {
      "midi": 61,
      "hit": false,
      "t": 157894.8000000004,
      "d": 816.886291666684,
      "v": 71
    },
    {
      "midi": 66,
      "hit": false,
      "t": 157894.8000000004,
      "d": 1014.2547916666663,
      "v": 73
    },
    {
      "midi": 54,
      "hit": false,
      "t": 157894.8000000004,
      "d": 1104.7153541666921,
      "v": 71
    },
    {
      "midi": 49,
      "hit": false,
      "t": 157894.8000000004,
      "d": 1118.4215000000258,
      "v": 64
    },
    {
      "midi": 42,
      "hit": false,
      "t": 157894.8000000004,
      "d": 1137.6101041666989,
      "v": 80
    },
    {
      "midi": 56,
      "hit": false,
      "t": 158421.11600000042,
      "d": 452.3028124999837,
      "v": 58
    },
    {
      "midi": 56,
      "hit": false,
      "t": 158421.11600000042,
      "d": 452.3028124999837,
      "v": 58
    },
    {
      "midi": 58,
      "hit": false,
      "t": 158947.4320000004,
      "d": 52.08335416667978,
      "v": 78
    },
    {
      "midi": 58,
      "hit": false,
      "t": 158947.4320000004,
      "d": 52.08335416667978,
      "v": 78
    },
    {
      "midi": 58,
      "hit": false,
      "t": 159473.74800000043,
      "d": 391.9957708333386,
      "v": 80
    },
    {
      "midi": 61,
      "hit": false,
      "t": 159473.74800000043,
      "d": 570.1756666666479,
      "v": 80
    },
    {
      "midi": 54,
      "hit": false,
      "t": 159473.74800000043,
      "d": 1071.8206041666563,
      "v": 68
    },
    {
      "midi": 49,
      "hit": false,
      "t": 159473.74800000043,
      "d": 1107.4565833333181,
      "v": 71
    },
    {
      "midi": 42,
      "hit": false,
      "t": 159473.74800000043,
      "d": 1184.2109999999811,
      "v": 67
    },
    {
      "midi": 70,
      "hit": false,
      "t": 159473.74800000043,
      "d": 1228.0706666666374,
      "v": 82
    },
    {
      "midi": 66,
      "hit": false,
      "t": 159473.74800000043,
      "d": 1282.8952499999723,
      "v": 74
    },
    {
      "midi": 58,
      "hit": false,
      "t": 159473.74800000043,
      "d": 391.9957708333386,
      "v": 80
    },
    {
      "midi": 61,
      "hit": false,
      "t": 159473.74800000043,
      "d": 570.1756666666479,
      "v": 80
    },
    {
      "midi": 54,
      "hit": false,
      "t": 159473.74800000043,
      "d": 1071.8206041666563,
      "v": 68
    },
    {
      "midi": 49,
      "hit": false,
      "t": 159473.74800000043,
      "d": 1107.4565833333181,
      "v": 71
    },
    {
      "midi": 42,
      "hit": false,
      "t": 159473.74800000043,
      "d": 1184.2109999999811,
      "v": 67
    },
    {
      "midi": 70,
      "hit": false,
      "t": 159473.74800000043,
      "d": 1228.0706666666374,
      "v": 82
    },
    {
      "midi": 66,
      "hit": false,
      "t": 159473.74800000043,
      "d": 1282.8952499999723,
      "v": 74
    },
    {
      "midi": 58,
      "hit": false,
      "t": 160000.06400000042,
      "d": 731.9081874999683,
      "v": 59
    },
    {
      "midi": 58,
      "hit": false,
      "t": 160000.06400000042,
      "d": 731.9081874999683,
      "v": 59
    },
    {
      "midi": 61,
      "hit": false,
      "t": 160526.3800000004,
      "d": 268.6404583333351,
      "v": 80
    },
    {
      "midi": 61,
      "hit": false,
      "t": 160526.3800000004,
      "d": 268.6404583333351,
      "v": 80
    },
    {
      "midi": 56,
      "hit": false,
      "t": 161052.6960000004,
      "d": 424.89052083331626,
      "v": 71
    },
    {
      "midi": 61,
      "hit": false,
      "t": 161052.6960000004,
      "d": 600.3291874999995,
      "v": 67
    },
    {
      "midi": 49,
      "hit": false,
      "t": 161052.6960000004,
      "d": 1074.5618333333405,
      "v": 60
    },
    {
      "midi": 37,
      "hit": false,
      "t": 161052.6960000004,
      "d": 1123.903958333336,
      "v": 61
    },
    {
      "midi": 68,
      "hit": false,
      "t": 161052.6960000004,
      "d": 1181.469770833326,
      "v": 68
    },
    {
      "midi": 65,
      "hit": false,
      "t": 161052.6960000004,
      "d": 1195.1759166666598,
      "v": 68
    },
    {
      "midi": 56,
      "hit": false,
      "t": 161052.6960000004,
      "d": 424.89052083331626,
      "v": 71
    },
    {
      "midi": 61,
      "hit": false,
      "t": 161052.6960000004,
      "d": 600.3291874999995,
      "v": 67
    },
    {
      "midi": 49,
      "hit": false,
      "t": 161052.6960000004,
      "d": 1074.5618333333405,
      "v": 60
    },
    {
      "midi": 37,
      "hit": false,
      "t": 161052.6960000004,
      "d": 1123.903958333336,
      "v": 61
    },
    {
      "midi": 68,
      "hit": false,
      "t": 161052.6960000004,
      "d": 1181.469770833326,
      "v": 68
    },
    {
      "midi": 65,
      "hit": false,
      "t": 161052.6960000004,
      "d": 1195.1759166666598,
      "v": 68
    },
    {
      "midi": 56,
      "hit": false,
      "t": 161579.0120000004,
      "d": 655.1537708333344,
      "v": 64
    },
    {
      "midi": 56,
      "hit": false,
      "t": 161579.0120000004,
      "d": 655.1537708333344,
      "v": 64
    },
    {
      "midi": 61,
      "hit": false,
      "t": 162105.32800000042,
      "d": 106.90793749998556,
      "v": 68
    },
    {
      "midi": 61,
      "hit": false,
      "t": 162105.32800000042,
      "d": 106.90793749998556,
      "v": 68
    },
    {
      "midi": 56,
      "hit": false,
      "t": 162631.64400000038,
      "d": 449.5615833333286,
      "v": 62
    },
    {
      "midi": 58,
      "hit": false,
      "t": 162631.64400000038,
      "d": 605.8116458333388,
      "v": 71
    },
    {
      "midi": 61,
      "hit": false,
      "t": 162631.64400000038,
      "d": 904.6056249999965,
      "v": 62
    },
    {
      "midi": 46,
      "hit": false,
      "t": 162631.64400000038,
      "d": 1143.09256249998,
      "v": 64
    },
    {
      "midi": 34,
      "hit": false,
      "t": 162631.64400000038,
      "d": 1186.9522291666362,
      "v": 64
    },
    {
      "midi": 66,
      "hit": false,
      "t": 162631.64400000038,
      "d": 1269.1891041666386,
      "v": 73
    },
    {
      "midi": 56,
      "hit": false,
      "t": 162631.64400000038,
      "d": 449.5615833333286,
      "v": 62
    },
    {
      "midi": 58,
      "hit": false,
      "t": 162631.64400000038,
      "d": 605.8116458333388,
      "v": 71
    },
    {
      "midi": 61,
      "hit": false,
      "t": 162631.64400000038,
      "d": 904.6056249999965,
      "v": 62
    },
    {
      "midi": 46,
      "hit": false,
      "t": 162631.64400000038,
      "d": 1143.09256249998,
      "v": 64
    },
    {
      "midi": 34,
      "hit": false,
      "t": 162631.64400000038,
      "d": 1186.9522291666362,
      "v": 64
    },
    {
      "midi": 66,
      "hit": false,
      "t": 162631.64400000038,
      "d": 1269.1891041666386,
      "v": 73
    },
    {
      "midi": 56,
      "hit": false,
      "t": 163157.96000000037,
      "d": 767.5441666666593,
      "v": 59
    },
    {
      "midi": 56,
      "hit": false,
      "t": 163157.96000000037,
      "d": 767.5441666666593,
      "v": 59
    },
    {
      "midi": 58,
      "hit": false,
      "t": 163684.27600000036,
      "d": 282.34660416666884,
      "v": 74
    },
    {
      "midi": 58,
      "hit": false,
      "t": 163684.27600000036,
      "d": 282.34660416666884,
      "v": 74
    },
    {
      "midi": 56,
      "hit": false,
      "t": 164210.59200000035,
      "d": 778.5090833333379,
      "v": 67
    },
    {
      "midi": 60,
      "hit": false,
      "t": 164210.59200000035,
      "d": 786.7327708333323,
      "v": 65
    },
    {
      "midi": 63,
      "hit": false,
      "t": 164210.59200000035,
      "d": 838.8161250000121,
      "v": 66
    },
    {
      "midi": 44,
      "hit": false,
      "t": 164210.59200000035,
      "d": 1154.0574791666877,
      "v": 66
    },
    {
      "midi": 32,
      "hit": false,
      "t": 164210.59200000035,
      "d": 2420.505354166671,
      "v": 60
    },
    {
      "midi": 56,
      "hit": false,
      "t": 164210.59200000035,
      "d": 778.5090833333379,
      "v": 67
    },
    {
      "midi": 60,
      "hit": false,
      "t": 164210.59200000035,
      "d": 786.7327708333323,
      "v": 65
    },
    {
      "midi": 63,
      "hit": false,
      "t": 164210.59200000035,
      "d": 838.8161250000121,
      "v": 66
    },
    {
      "midi": 44,
      "hit": false,
      "t": 164210.59200000035,
      "d": 1154.0574791666877,
      "v": 66
    },
    {
      "midi": 32,
      "hit": false,
      "t": 164210.59200000035,
      "d": 2420.505354166671,
      "v": 60
    },
    {
      "midi": 60,
      "hit": false,
      "t": 165263.22400000037,
      "d": 79.49564583334723,
      "v": 64
    },
    {
      "midi": 56,
      "hit": false,
      "t": 165263.22400000037,
      "d": 109.64916666666977,
      "v": 64
    },
    {
      "midi": 63,
      "hit": false,
      "t": 165263.22400000037,
      "d": 148.02637500001583,
      "v": 61
    },
    {
      "midi": 60,
      "hit": false,
      "t": 165263.22400000037,
      "d": 79.49564583334723,
      "v": 64
    },
    {
      "midi": 56,
      "hit": false,
      "t": 165263.22400000037,
      "d": 109.64916666666977,
      "v": 64
    },
    {
      "midi": 63,
      "hit": false,
      "t": 165263.22400000037,
      "d": 148.02637500001583,
      "v": 61
    },
    {
      "midi": 39,
      "hit": false,
      "t": 165614.1013333337,
      "d": 169.95620833334397,
      "v": 67
    },
    {
      "midi": 39,
      "hit": false,
      "t": 165614.1013333337,
      "d": 169.95620833334397,
      "v": 67
    },
    {
      "midi": 56,
      "hit": false,
      "t": 165789.5400000004,
      "d": 276.86414583332953,
      "v": 91
    },
    {
      "midi": 58,
      "hit": false,
      "t": 165789.5400000004,
      "d": 293.31152083331835,
      "v": 95
    },
    {
      "midi": 61,
      "hit": false,
      "t": 165789.5400000004,
      "d": 307.0176666666521,
      "v": 80
    },
    {
      "midi": 44,
      "hit": false,
      "t": 165789.5400000004,
      "d": 1016.9960208333214,
      "v": 95
    },
    {
      "midi": 56,
      "hit": false,
      "t": 165789.5400000004,
      "d": 276.86414583332953,
      "v": 91
    },
    {
      "midi": 58,
      "hit": false,
      "t": 165789.5400000004,
      "d": 293.31152083331835,
      "v": 95
    },
    {
      "midi": 61,
      "hit": false,
      "t": 165789.5400000004,
      "d": 307.0176666666521,
      "v": 80
    },
    {
      "midi": 44,
      "hit": false,
      "t": 165789.5400000004,
      "d": 1016.9960208333214,
      "v": 95
    },
    {
      "midi": 56,
      "hit": false,
      "t": 166315.85600000038,
      "d": 413.92560416663764,
      "v": 95
    },
    {
      "midi": 60,
      "hit": false,
      "t": 166315.85600000038,
      "d": 452.3028124999837,
      "v": 98
    },
    {
      "midi": 63,
      "hit": false,
      "t": 166315.85600000038,
      "d": 526.3159999999916,
      "v": 82
    },
    {
      "midi": 56,
      "hit": false,
      "t": 166315.85600000038,
      "d": 413.92560416663764,
      "v": 95
    },
    {
      "midi": 60,
      "hit": false,
      "t": 166315.85600000038,
      "d": 452.3028124999837,
      "v": 98
    },
    {
      "midi": 63,
      "hit": false,
      "t": 166315.85600000038,
      "d": 526.3159999999916,
      "v": 82
    },
    {
      "midi": 56,
      "hit": false,
      "t": 166842.17200000037,
      "d": 65.7895000000135,
      "v": 104
    },
    {
      "midi": 61,
      "hit": false,
      "t": 166842.17200000037,
      "d": 84.97810416668653,
      "v": 88
    },
    {
      "midi": 65,
      "hit": false,
      "t": 166842.17200000037,
      "d": 112.39039583335398,
      "v": 91
    },
    {
      "midi": 56,
      "hit": false,
      "t": 166842.17200000037,
      "d": 65.7895000000135,
      "v": 104
    },
    {
      "midi": 61,
      "hit": false,
      "t": 166842.17200000037,
      "d": 84.97810416668653,
      "v": 88
    },
    {
      "midi": 65,
      "hit": false,
      "t": 166842.17200000037,
      "d": 112.39039583335398,
      "v": 91
    },
    {
      "midi": 54,
      "hit": false,
      "t": 167368.4880000004,
      "d": 381.03085416666,
      "v": 66
    },
    {
      "midi": 58,
      "hit": false,
      "t": 167368.4880000004,
      "d": 668.8599166666681,
      "v": 67
    },
    {
      "midi": 61,
      "hit": false,
      "t": 167368.4880000004,
      "d": 830.5924374999886,
      "v": 62
    },
    {
      "midi": 63,
      "hit": false,
      "t": 167368.4880000004,
      "d": 940.2416041666584,
      "v": 64
    },
    {
      "midi": 66,
      "hit": false,
      "t": 167368.4880000004,
      "d": 1088.267979166645,
      "v": 66
    },
    {
      "midi": 51,
      "hit": false,
      "t": 167368.4880000004,
      "d": 1239.035583333316,
      "v": 71
    },
    {
      "midi": 39,
      "hit": false,
      "t": 167368.4880000004,
      "d": 2730.2642499999783,
      "v": 74
    },
    {
      "midi": 54,
      "hit": false,
      "t": 167368.4880000004,
      "d": 381.03085416666,
      "v": 66
    },
    {
      "midi": 58,
      "hit": false,
      "t": 167368.4880000004,
      "d": 668.8599166666681,
      "v": 67
    },
    {
      "midi": 61,
      "hit": false,
      "t": 167368.4880000004,
      "d": 830.5924374999886,
      "v": 62
    },
    {
      "midi": 63,
      "hit": false,
      "t": 167368.4880000004,
      "d": 940.2416041666584,
      "v": 64
    },
    {
      "midi": 66,
      "hit": false,
      "t": 167368.4880000004,
      "d": 1088.267979166645,
      "v": 66
    },
    {
      "midi": 51,
      "hit": false,
      "t": 167368.4880000004,
      "d": 1239.035583333316,
      "v": 71
    },
    {
      "midi": 39,
      "hit": false,
      "t": 167368.4880000004,
      "d": 2730.2642499999783,
      "v": 74
    },
    {
      "midi": 54,
      "hit": false,
      "t": 167894.80400000038,
      "d": 422.14929166666116,
      "v": 59
    },
    {
      "midi": 54,
      "hit": false,
      "t": 167894.80400000038,
      "d": 422.14929166666116,
      "v": 59
    },
    {
      "midi": 58,
      "hit": false,
      "t": 168421.12000000037,
      "d": 46.60089583334047,
      "v": 61
    },
    {
      "midi": 61,
      "hit": false,
      "t": 168421.12000000037,
      "d": 46.60089583334047,
      "v": 49
    },
    {
      "midi": 58,
      "hit": false,
      "t": 168421.12000000037,
      "d": 46.60089583334047,
      "v": 61
    },
    {
      "midi": 61,
      "hit": false,
      "t": 168421.12000000037,
      "d": 46.60089583334047,
      "v": 49
    },
    {
      "midi": 46,
      "hit": false,
      "t": 168771.9973333337,
      "d": 1359.6496666666644,
      "v": 73
    },
    {
      "midi": 46,
      "hit": false,
      "t": 168771.9973333337,
      "d": 1359.6496666666644,
      "v": 73
    },
    {
      "midi": 61,
      "hit": false,
      "t": 168947.43600000037,
      "d": 413.92560416666674,
      "v": 95
    },
    {
      "midi": 66,
      "hit": false,
      "t": 168947.43600000037,
      "d": 575.6581249999872,
      "v": 95
    },
    {
      "midi": 73,
      "hit": false,
      "t": 168947.43600000037,
      "d": 655.1537708333344,
      "v": 91
    },
    {
      "midi": 54,
      "hit": false,
      "t": 168947.43600000037,
      "d": 1123.903958333336,
      "v": 88
    },
    {
      "midi": 61,
      "hit": false,
      "t": 168947.43600000037,
      "d": 413.92560416666674,
      "v": 95
    },
    {
      "midi": 66,
      "hit": false,
      "t": 168947.43600000037,
      "d": 575.6581249999872,
      "v": 95
    },
    {
      "midi": 73,
      "hit": false,
      "t": 168947.43600000037,
      "d": 655.1537708333344,
      "v": 91
    },
    {
      "midi": 54,
      "hit": false,
      "t": 168947.43600000037,
      "d": 1123.903958333336,
      "v": 88
    },
    {
      "midi": 61,
      "hit": false,
      "t": 169473.75200000036,
      "d": 76.75441666666302,
      "v": 59
    },
    {
      "midi": 61,
      "hit": false,
      "t": 169473.75200000036,
      "d": 76.75441666666302,
      "v": 59
    },
    {
      "midi": 70,
      "hit": false,
      "t": 169824.6293333337,
      "d": 208.33341666666092,
      "v": 91
    },
    {
      "midi": 66,
      "hit": false,
      "t": 169824.6293333337,
      "d": 230.26324999998906,
      "v": 91
    },
    {
      "midi": 61,
      "hit": false,
      "t": 169824.6293333337,
      "d": 235.74570833332837,
      "v": 88
    },
    {
      "midi": 70,
      "hit": false,
      "t": 169824.6293333337,
      "d": 208.33341666666092,
      "v": 91
    },
    {
      "midi": 66,
      "hit": false,
      "t": 169824.6293333337,
      "d": 230.26324999998906,
      "v": 91
    },
    {
      "midi": 61,
      "hit": false,
      "t": 169824.6293333337,
      "d": 235.74570833332837,
      "v": 88
    },
    {
      "midi": 56,
      "hit": false,
      "t": 170526.38400000037,
      "d": 463.2677291666623,
      "v": 82
    },
    {
      "midi": 61,
      "hit": false,
      "t": 170526.38400000037,
      "d": 707.2371249999851,
      "v": 71
    },
    {
      "midi": 66,
      "hit": false,
      "t": 170526.38400000037,
      "d": 1038.9258541666495,
      "v": 82
    },
    {
      "midi": 54,
      "hit": false,
      "t": 170526.38400000037,
      "d": 1178.7285416666418,
      "v": 67
    },
    {
      "midi": 42,
      "hit": false,
      "t": 170526.38400000037,
      "d": 1222.588208333298,
      "v": 78
    },
    {
      "midi": 49,
      "hit": false,
      "t": 170526.38400000037,
      "d": 1233.5531249999767,
      "v": 71
    },
    {
      "midi": 56,
      "hit": false,
      "t": 170526.38400000037,
      "d": 463.2677291666623,
      "v": 82
    },
    {
      "midi": 61,
      "hit": false,
      "t": 170526.38400000037,
      "d": 707.2371249999851,
      "v": 71
    },
    {
      "midi": 66,
      "hit": false,
      "t": 170526.38400000037,
      "d": 1038.9258541666495,
      "v": 82
    },
    {
      "midi": 54,
      "hit": false,
      "t": 170526.38400000037,
      "d": 1178.7285416666418,
      "v": 67
    },
    {
      "midi": 42,
      "hit": false,
      "t": 170526.38400000037,
      "d": 1222.588208333298,
      "v": 78
    },
    {
      "midi": 49,
      "hit": false,
      "t": 170526.38400000037,
      "d": 1233.5531249999767,
      "v": 71
    },
    {
      "midi": 56,
      "hit": false,
      "t": 171052.70000000036,
      "d": 542.7633749999804,
      "v": 73
    },
    {
      "midi": 56,
      "hit": false,
      "t": 171052.70000000036,
      "d": 542.7633749999804,
      "v": 73
    },
    {
      "midi": 61,
      "hit": false,
      "t": 171579.01600000035,
      "d": 104.16670833333046,
      "v": 78
    },
    {
      "midi": 61,
      "hit": false,
      "t": 171579.01600000035,
      "d": 104.16670833333046,
      "v": 78
    },
    {
      "midi": 56,
      "hit": false,
      "t": 172105.33200000034,
      "d": 586.6230416666658,
      "v": 57
    },
    {
      "midi": 58,
      "hit": false,
      "t": 172105.33200000034,
      "d": 605.8116458333388,
      "v": 67
    },
    {
      "midi": 61,
      "hit": false,
      "t": 172105.33200000034,
      "d": 630.4827083333512,
      "v": 63
    },
    {
      "midi": 54,
      "hit": false,
      "t": 172105.33200000034,
      "d": 745.6143333333603,
      "v": 58
    },
    {
      "midi": 49,
      "hit": false,
      "t": 172105.33200000034,
      "d": 1154.0574791667168,
      "v": 67
    },
    {
      "midi": 42,
      "hit": false,
      "t": 172105.33200000034,
      "d": 1181.4697708333842,
      "v": 59
    },
    {
      "midi": 56,
      "hit": false,
      "t": 172105.33200000034,
      "d": 586.6230416666658,
      "v": 57
    },
    {
      "midi": 58,
      "hit": false,
      "t": 172105.33200000034,
      "d": 605.8116458333388,
      "v": 67
    },
    {
      "midi": 61,
      "hit": false,
      "t": 172105.33200000034,
      "d": 630.4827083333512,
      "v": 63
    },
    {
      "midi": 54,
      "hit": false,
      "t": 172105.33200000034,
      "d": 745.6143333333603,
      "v": 58
    },
    {
      "midi": 49,
      "hit": false,
      "t": 172105.33200000034,
      "d": 1154.0574791667168,
      "v": 67
    },
    {
      "midi": 42,
      "hit": false,
      "t": 172105.33200000034,
      "d": 1181.4697708333842,
      "v": 59
    },
    {
      "midi": 54,
      "hit": false,
      "t": 173157.9640000004,
      "d": 90.46056249999674,
      "v": 68
    },
    {
      "midi": 56,
      "hit": false,
      "t": 173157.9640000004,
      "d": 230.26325000001816,
      "v": 82
    },
    {
      "midi": 54,
      "hit": false,
      "t": 173157.9640000004,
      "d": 90.46056249999674,
      "v": 68
    },
    {
      "midi": 56,
      "hit": false,
      "t": 173157.9640000004,
      "d": 230.26325000001816,
      "v": 82
    },
    {
      "midi": 58,
      "hit": false,
      "t": 173508.84133333372,
      "d": 156.25006250001024,
      "v": 71
    },
    {
      "midi": 58,
      "hit": false,
      "t": 173508.84133333372,
      "d": 156.25006250001024,
      "v": 71
    },
    {
      "midi": 56,
      "hit": false,
      "t": 173684.2800000004,
      "d": 413.92560416669585,
      "v": 80
    },
    {
      "midi": 61,
      "hit": false,
      "t": 173684.2800000004,
      "d": 734.6494166666816,
      "v": 78
    },
    {
      "midi": 65,
      "hit": false,
      "t": 173684.2800000004,
      "d": 792.2152291666716,
      "v": 76
    },
    {
      "midi": 49,
      "hit": false,
      "t": 173684.2800000004,
      "d": 1052.6320000000123,
      "v": 66
    },
    {
      "midi": 37,
      "hit": false,
      "t": 173684.2800000004,
      "d": 1071.8206041666854,
      "v": 80
    },
    {
      "midi": 56,
      "hit": false,
      "t": 173684.2800000004,
      "d": 413.92560416669585,
      "v": 80
    },
    {
      "midi": 61,
      "hit": false,
      "t": 173684.2800000004,
      "d": 734.6494166666816,
      "v": 78
    },
    {
      "midi": 65,
      "hit": false,
      "t": 173684.2800000004,
      "d": 792.2152291666716,
      "v": 76
    },
    {
      "midi": 49,
      "hit": false,
      "t": 173684.2800000004,
      "d": 1052.6320000000123,
      "v": 66
    },
    {
      "midi": 37,
      "hit": false,
      "t": 173684.2800000004,
      "d": 1071.8206041666854,
      "v": 80
    },
    {
      "midi": 56,
      "hit": false,
      "t": 174210.59600000043,
      "d": 249.4518541666621,
      "v": 64
    },
    {
      "midi": 56,
      "hit": false,
      "t": 174210.59600000043,
      "d": 249.4518541666621,
      "v": 64
    },
    {
      "midi": 56,
      "hit": false,
      "t": 174736.91200000042,
      "d": 109.64916666666977,
      "v": 67
    },
    {
      "midi": 61,
      "hit": false,
      "t": 174736.91200000042,
      "d": 126.0965416666586,
      "v": 63
    },
    {
      "midi": 65,
      "hit": false,
      "t": 174736.91200000042,
      "d": 131.5789999999979,
      "v": 62
    },
    {
      "midi": 56,
      "hit": false,
      "t": 174736.91200000042,
      "d": 109.64916666666977,
      "v": 67
    },
    {
      "midi": 61,
      "hit": false,
      "t": 174736.91200000042,
      "d": 126.0965416666586,
      "v": 63
    },
    {
      "midi": 65,
      "hit": false,
      "t": 174736.91200000042,
      "d": 131.5789999999979,
      "v": 62
    },
    {
      "midi": 61,
      "hit": false,
      "t": 175263.2280000004,
      "d": 751.0967916666705,
      "v": 71
    },
    {
      "midi": 63,
      "hit": false,
      "t": 175263.2280000004,
      "d": 751.0967916666705,
      "v": 74
    },
    {
      "midi": 58,
      "hit": false,
      "t": 175263.2280000004,
      "d": 767.5441666666593,
      "v": 88
    },
    {
      "midi": 66,
      "hit": false,
      "t": 175263.2280000004,
      "d": 970.3951249999809,
      "v": 68
    },
    {
      "midi": 46,
      "hit": false,
      "t": 175263.2280000004,
      "d": 1165.022395833308,
      "v": 73
    },
    {
      "midi": 34,
      "hit": false,
      "t": 175263.2280000004,
      "d": 1173.2460833333025,
      "v": 78
    },
    {
      "midi": 61,
      "hit": false,
      "t": 175263.2280000004,
      "d": 751.0967916666705,
      "v": 71
    },
    {
      "midi": 63,
      "hit": false,
      "t": 175263.2280000004,
      "d": 751.0967916666705,
      "v": 74
    },
    {
      "midi": 58,
      "hit": false,
      "t": 175263.2280000004,
      "d": 767.5441666666593,
      "v": 88
    },
    {
      "midi": 66,
      "hit": false,
      "t": 175263.2280000004,
      "d": 970.3951249999809,
      "v": 68
    },
    {
      "midi": 46,
      "hit": false,
      "t": 175263.2280000004,
      "d": 1165.022395833308,
      "v": 73
    },
    {
      "midi": 34,
      "hit": false,
      "t": 175263.2280000004,
      "d": 1173.2460833333025,
      "v": 78
    },
    {
      "midi": 54,
      "hit": false,
      "t": 176315.8600000004,
      "d": 161.73252083332045,
      "v": 73
    },
    {
      "midi": 61,
      "hit": false,
      "t": 176315.8600000004,
      "d": 194.6272708333272,
      "v": 62
    },
    {
      "midi": 58,
      "hit": false,
      "t": 176315.8600000004,
      "d": 200.1097291666665,
      "v": 78
    },
    {
      "midi": 63,
      "hit": false,
      "t": 176315.8600000004,
      "d": 205.59218750000582,
      "v": 58
    },
    {
      "midi": 54,
      "hit": false,
      "t": 176315.8600000004,
      "d": 161.73252083332045,
      "v": 73
    },
    {
      "midi": 61,
      "hit": false,
      "t": 176315.8600000004,
      "d": 194.6272708333272,
      "v": 62
    },
    {
      "midi": 58,
      "hit": false,
      "t": 176315.8600000004,
      "d": 200.1097291666665,
      "v": 78
    },
    {
      "midi": 63,
      "hit": false,
      "t": 176315.8600000004,
      "d": 205.59218750000582,
      "v": 58
    },
    {
      "midi": 56,
      "hit": false,
      "t": 176842.1760000004,
      "d": 402.9606874999881,
      "v": 68
    },
    {
      "midi": 60,
      "hit": false,
      "t": 176842.1760000004,
      "d": 677.0836041666626,
      "v": 80
    },
    {
      "midi": 63,
      "hit": false,
      "t": 176842.1760000004,
      "d": 932.017916666664,
      "v": 63
    },
    {
      "midi": 44,
      "hit": false,
      "t": 176842.1760000004,
      "d": 1266.4478749999835,
      "v": 68
    },
    {
      "midi": 32,
      "hit": false,
      "t": 176842.1760000004,
      "d": 2722.040562500042,
      "v": 73
    },
    {
      "midi": 56,
      "hit": false,
      "t": 176842.1760000004,
      "d": 402.9606874999881,
      "v": 68
    },
    {
      "midi": 60,
      "hit": false,
      "t": 176842.1760000004,
      "d": 677.0836041666626,
      "v": 80
    },
    {
      "midi": 63,
      "hit": false,
      "t": 176842.1760000004,
      "d": 932.017916666664,
      "v": 63
    },
    {
      "midi": 44,
      "hit": false,
      "t": 176842.1760000004,
      "d": 1266.4478749999835,
      "v": 68
    },
    {
      "midi": 32,
      "hit": false,
      "t": 176842.1760000004,
      "d": 2722.040562500042,
      "v": 73
    },
    {
      "midi": 56,
      "hit": false,
      "t": 177368.4920000004,
      "d": 167.21497916665976,
      "v": 51
    },
    {
      "midi": 56,
      "hit": false,
      "t": 177368.4920000004,
      "d": 167.21497916665976,
      "v": 51
    },
    {
      "midi": 60,
      "hit": false,
      "t": 177894.8080000004,
      "d": 71.27195833332371,
      "v": 62
    },
    {
      "midi": 56,
      "hit": false,
      "t": 177894.8080000004,
      "d": 79.49564583331812,
      "v": 60
    },
    {
      "midi": 63,
      "hit": false,
      "t": 177894.8080000004,
      "d": 139.80268749999232,
      "v": 1
    },
    {
      "midi": 60,
      "hit": false,
      "t": 177894.8080000004,
      "d": 71.27195833332371,
      "v": 62
    },
    {
      "midi": 56,
      "hit": false,
      "t": 177894.8080000004,
      "d": 79.49564583331812,
      "v": 60
    },
    {
      "midi": 63,
      "hit": false,
      "t": 177894.8080000004,
      "d": 139.80268749999232,
      "v": 1
    },
    {
      "midi": 39,
      "hit": false,
      "t": 178245.68533333373,
      "d": 200.10972916669562,
      "v": 68
    },
    {
      "midi": 39,
      "hit": false,
      "t": 178245.68533333373,
      "d": 200.10972916669562,
      "v": 68
    },
    {
      "midi": 60,
      "hit": false,
      "t": 178421.12400000042,
      "d": 367.3247083333554,
      "v": 76
    },
    {
      "midi": 56,
      "hit": false,
      "t": 178421.12400000042,
      "d": 372.8071666666947,
      "v": 74
    },
    {
      "midi": 68,
      "hit": false,
      "t": 178421.12400000042,
      "d": 482.45633333336446,
      "v": 74
    },
    {
      "midi": 44,
      "hit": false,
      "t": 178421.12400000042,
      "d": 1203.3996041667124,
      "v": 80
    },
    {
      "midi": 60,
      "hit": false,
      "t": 178421.12400000042,
      "d": 367.3247083333554,
      "v": 76
    },
    {
      "midi": 56,
      "hit": false,
      "t": 178421.12400000042,
      "d": 372.8071666666947,
      "v": 74
    },
    {
      "midi": 68,
      "hit": false,
      "t": 178421.12400000042,
      "d": 482.45633333336446,
      "v": 74
    },
    {
      "midi": 44,
      "hit": false,
      "t": 178421.12400000042,
      "d": 1203.3996041667124,
      "v": 80
    },
    {
      "midi": 58,
      "hit": false,
      "t": 178947.44000000044,
      "d": 279.60537500001374,
      "v": 80
    },
    {
      "midi": 61,
      "hit": false,
      "t": 178947.44000000044,
      "d": 304.2764375000261,
      "v": 82
    },
    {
      "midi": 68,
      "hit": false,
      "t": 178947.44000000044,
      "d": 309.7588958333654,
      "v": 56
    },
    {
      "midi": 58,
      "hit": false,
      "t": 178947.44000000044,
      "d": 279.60537500001374,
      "v": 80
    },
    {
      "midi": 61,
      "hit": false,
      "t": 178947.44000000044,
      "d": 304.2764375000261,
      "v": 82
    },
    {
      "midi": 68,
      "hit": false,
      "t": 178947.44000000044,
      "d": 309.7588958333654,
      "v": 56
    },
    {
      "midi": 68,
      "hit": false,
      "t": 179473.75600000046,
      "d": 274.1229166666744,
      "v": 82
    },
    {
      "midi": 63,
      "hit": false,
      "t": 179473.75600000046,
      "d": 282.34660416666884,
      "v": 91
    },
    {
      "midi": 68,
      "hit": false,
      "t": 179473.75600000046,
      "d": 274.1229166666744,
      "v": 82
    },
    {
      "midi": 63,
      "hit": false,
      "t": 179473.75600000046,
      "d": 282.34660416666884,
      "v": 91
    },
    {
      "midi": 56,
      "hit": false,
      "t": 180000.07200000045,
      "d": 389.2545416666835,
      "v": 80
    },
    {
      "midi": 61,
      "hit": false,
      "t": 180000.07200000045,
      "d": 627.7414791666961,
      "v": 78
    },
    {
      "midi": 49,
      "hit": false,
      "t": 180000.07200000045,
      "d": 1112.9390416667156,
      "v": 74
    },
    {
      "midi": 68,
      "hit": false,
      "t": 180000.07200000045,
      "d": 1197.9171458334022,
      "v": 74
    },
    {
      "midi": 65,
      "hit": false,
      "t": 180000.07200000045,
      "d": 1211.623291666736,
      "v": 78
    },
    {
      "midi": 37,
      "hit": false,
      "t": 180000.07200000045,
      "d": 1228.0706666667247,
      "v": 68
    },
    {
      "midi": 56,
      "hit": false,
      "t": 180000.07200000045,
      "d": 389.2545416666835,
      "v": 80
    },
    {
      "midi": 61,
      "hit": false,
      "t": 180000.07200000045,
      "d": 627.7414791666961,
      "v": 78
    },
    {
      "midi": 49,
      "hit": false,
      "t": 180000.07200000045,
      "d": 1112.9390416667156,
      "v": 74
    },
    {
      "midi": 68,
      "hit": false,
      "t": 180000.07200000045,
      "d": 1197.9171458334022,
      "v": 74
    },
    {
      "midi": 65,
      "hit": false,
      "t": 180000.07200000045,
      "d": 1211.623291666736,
      "v": 78
    },
    {
      "midi": 37,
      "hit": false,
      "t": 180000.07200000045,
      "d": 1228.0706666667247,
      "v": 68
    },
    {
      "midi": 56,
      "hit": false,
      "t": 180526.38800000047,
      "d": 383.7720833333442,
      "v": 60
    },
    {
      "midi": 56,
      "hit": false,
      "t": 180526.38800000047,
      "d": 383.7720833333442,
      "v": 60
    },
    {
      "midi": 61,
      "hit": false,
      "t": 181052.7040000005,
      "d": 120.61408333334839,
      "v": 68
    },
    {
      "midi": 56,
      "hit": false,
      "t": 181052.7040000005,
      "d": 148.02637500001583,
      "v": 58
    },
    {
      "midi": 61,
      "hit": false,
      "t": 181052.7040000005,
      "d": 120.61408333334839,
      "v": 68
    },
    {
      "midi": 56,
      "hit": false,
      "t": 181052.7040000005,
      "d": 148.02637500001583,
      "v": 58
    },
    {
      "midi": 54,
      "hit": false,
      "t": 181579.0200000005,
      "d": 422.14929166666116,
      "v": 68
    },
    {
      "midi": 58,
      "hit": false,
      "t": 181579.0200000005,
      "d": 605.8116458333388,
      "v": 73
    },
    {
      "midi": 68,
      "hit": false,
      "t": 181579.0200000005,
      "d": 833.3336666666728,
      "v": 62
    },
    {
      "midi": 51,
      "hit": false,
      "t": 181579.0200000005,
      "d": 1088.2679791666742,
      "v": 66
    },
    {
      "midi": 37,
      "hit": false,
      "t": 181579.0200000005,
      "d": 1126.6451874999912,
      "v": 73
    },
    {
      "midi": 54,
      "hit": false,
      "t": 181579.0200000005,
      "d": 422.14929166666116,
      "v": 68
    },
    {
      "midi": 58,
      "hit": false,
      "t": 181579.0200000005,
      "d": 605.8116458333388,
      "v": 73
    },
    {
      "midi": 68,
      "hit": false,
      "t": 181579.0200000005,
      "d": 833.3336666666728,
      "v": 62
    },
    {
      "midi": 51,
      "hit": false,
      "t": 181579.0200000005,
      "d": 1088.2679791666742,
      "v": 66
    },
    {
      "midi": 37,
      "hit": false,
      "t": 181579.0200000005,
      "d": 1126.6451874999912,
      "v": 73
    },
    {
      "midi": 54,
      "hit": false,
      "t": 182105.3360000005,
      "d": 438.5966666666791,
      "v": 71
    },
    {
      "midi": 54,
      "hit": false,
      "t": 182105.3360000005,
      "d": 438.5966666666791,
      "v": 71
    },
    {
      "midi": 58,
      "hit": false,
      "t": 182631.65200000053,
      "d": 57.56581249998999,
      "v": 82
    },
    {
      "midi": 68,
      "hit": false,
      "t": 182631.65200000053,
      "d": 74.01318749997881,
      "v": 71
    },
    {
      "midi": 58,
      "hit": false,
      "t": 182631.65200000053,
      "d": 57.56581249998999,
      "v": 82
    },
    {
      "midi": 68,
      "hit": false,
      "t": 182631.65200000053,
      "d": 74.01318749997881,
      "v": 71
    },
    {
      "midi": 56,
      "hit": false,
      "t": 183157.96800000052,
      "d": 356.35979166664765,
      "v": 63
    },
    {
      "midi": 61,
      "hit": false,
      "t": 183157.96800000052,
      "d": 614.0353333333333,
      "v": 63
    },
    {
      "midi": 37,
      "hit": false,
      "t": 183157.96800000052,
      "d": 882.6757916666684,
      "v": 67
    },
    {
      "midi": 44,
      "hit": false,
      "t": 183157.96800000052,
      "d": 932.017916666664,
      "v": 64
    },
    {
      "midi": 49,
      "hit": false,
      "t": 183157.96800000052,
      "d": 1036.1846249999944,
      "v": 67
    },
    {
      "midi": 68,
      "hit": false,
      "t": 183157.96800000052,
      "d": 1036.1846249999944,
      "v": 64
    },
    {
      "midi": 65,
      "hit": false,
      "t": 183157.96800000052,
      "d": 1134.8688749999856,
      "v": 68
    },
    {
      "midi": 56,
      "hit": false,
      "t": 183157.96800000052,
      "d": 356.35979166664765,
      "v": 63
    },
    {
      "midi": 61,
      "hit": false,
      "t": 183157.96800000052,
      "d": 614.0353333333333,
      "v": 63
    },
    {
      "midi": 37,
      "hit": false,
      "t": 183157.96800000052,
      "d": 882.6757916666684,
      "v": 67
    },
    {
      "midi": 44,
      "hit": false,
      "t": 183157.96800000052,
      "d": 932.017916666664,
      "v": 64
    },
    {
      "midi": 49,
      "hit": false,
      "t": 183157.96800000052,
      "d": 1036.1846249999944,
      "v": 67
    },
    {
      "midi": 68,
      "hit": false,
      "t": 183157.96800000052,
      "d": 1036.1846249999944,
      "v": 64
    },
    {
      "midi": 65,
      "hit": false,
      "t": 183157.96800000052,
      "d": 1134.8688749999856,
      "v": 68
    },
    {
      "midi": 56,
      "hit": false,
      "t": 183684.2840000005,
      "d": 523.5747708333365,
      "v": 64
    },
    {
      "midi": 56,
      "hit": false,
      "t": 183684.2840000005,
      "d": 523.5747708333365,
      "v": 64
    },
    {
      "midi": 61,
      "hit": false,
      "t": 184210.6000000005,
      "d": 65.7895000000135,
      "v": 71
    },
    {
      "midi": 61,
      "hit": false,
      "t": 184210.6000000005,
      "d": 65.7895000000135,
      "v": 71
    },
    {
      "midi": 56,
      "hit": false,
      "t": 184736.9160000005,
      "d": 756.5792499999807,
      "v": 80
    },
    {
      "midi": 53,
      "hit": false,
      "t": 184736.9160000005,
      "d": 773.0266249999695,
      "v": 73
    },
    {
      "midi": 49,
      "hit": false,
      "t": 184736.9160000005,
      "d": 830.5924374999886,
      "v": 60
    },
    {
      "midi": 56,
      "hit": false,
      "t": 184736.9160000005,
      "d": 756.5792499999807,
      "v": 80
    },
    {
      "midi": 53,
      "hit": false,
      "t": 184736.9160000005,
      "d": 773.0266249999695,
      "v": 73
    },
    {
      "midi": 49,
      "hit": false,
      "t": 184736.9160000005,
      "d": 830.5924374999886,
      "v": 60
    },
    {
      "midi": 65,
      "hit": false,
      "t": 185263.23200000048,
      "d": 271.3816874999902,
      "v": 95
    },
    {
      "midi": 61,
      "hit": false,
      "t": 185263.23200000048,
      "d": 279.60537499998463,
      "v": 91
    },
    {
      "midi": 65,
      "hit": false,
      "t": 185263.23200000048,
      "d": 271.3816874999902,
      "v": 95
    },
    {
      "midi": 61,
      "hit": false,
      "t": 185263.23200000048,
      "d": 279.60537499998463,
      "v": 91
    },
    {
      "midi": 61,
      "hit": false,
      "t": 185789.54800000048,
      "d": 54.824583333334886,
      "v": 91
    },
    {
      "midi": 65,
      "hit": false,
      "t": 185789.54800000048,
      "d": 82.23687500000233,
      "v": 95
    },
    {
      "midi": 68,
      "hit": false,
      "t": 185789.54800000048,
      "d": 98.68424999999115,
      "v": 91
    },
    {
      "midi": 61,
      "hit": false,
      "t": 185789.54800000048,
      "d": 54.824583333334886,
      "v": 91
    },
    {
      "midi": 65,
      "hit": false,
      "t": 185789.54800000048,
      "d": 82.23687500000233,
      "v": 95
    },
    {
      "midi": 68,
      "hit": false,
      "t": 185789.54800000048,
      "d": 98.68424999999115,
      "v": 91
    },
    {
      "midi": 60,
      "hit": false,
      "t": 186315.86400000047,
      "d": 413.92560416666674,
      "v": 85
    },
    {
      "midi": 65,
      "hit": false,
      "t": 186315.86400000047,
      "d": 663.3774583333288,
      "v": 80
    },
    {
      "midi": 68,
      "hit": false,
      "t": 186315.86400000047,
      "d": 778.5090833333088,
      "v": 73
    },
    {
      "midi": 53,
      "hit": false,
      "t": 186315.86400000047,
      "d": 1247.2592708333104,
      "v": 74
    },
    {
      "midi": 41,
      "hit": false,
      "t": 186315.86400000047,
      "d": 2604.1677083333198,
      "v": 74
    },
    {
      "midi": 48,
      "hit": false,
      "t": 186315.86400000047,
      "d": 2680.9221249999828,
      "v": 73
    },
    {
      "midi": 60,
      "hit": false,
      "t": 186315.86400000047,
      "d": 413.92560416666674,
      "v": 85
    },
    {
      "midi": 65,
      "hit": false,
      "t": 186315.86400000047,
      "d": 663.3774583333288,
      "v": 80
    },
    {
      "midi": 68,
      "hit": false,
      "t": 186315.86400000047,
      "d": 778.5090833333088,
      "v": 73
    },
    {
      "midi": 53,
      "hit": false,
      "t": 186315.86400000047,
      "d": 1247.2592708333104,
      "v": 74
    },
    {
      "midi": 41,
      "hit": false,
      "t": 186315.86400000047,
      "d": 2604.1677083333198,
      "v": 74
    },
    {
      "midi": 48,
      "hit": false,
      "t": 186315.86400000047,
      "d": 2680.9221249999828,
      "v": 73
    },
    {
      "midi": 60,
      "hit": false,
      "t": 186842.18000000046,
      "d": 167.21497916665976,
      "v": 57
    },
    {
      "midi": 60,
      "hit": false,
      "t": 186842.18000000046,
      "d": 167.21497916665976,
      "v": 57
    },
    {
      "midi": 72,
      "hit": false,
      "t": 187368.49600000045,
      "d": 526.3159999999916,
      "v": 67
    },
    {
      "midi": 65,
      "hit": false,
      "t": 187368.49600000045,
      "d": 608.552874999994,
      "v": 65
    },
    {
      "midi": 72,
      "hit": false,
      "t": 187368.49600000045,
      "d": 526.3159999999916,
      "v": 67
    },
    {
      "midi": 65,
      "hit": false,
      "t": 187368.49600000045,
      "d": 608.552874999994,
      "v": 65
    },
    {
      "midi": 60,
      "hit": false,
      "t": 187894.81200000044,
      "d": 411.18437500001164,
      "v": 78
    },
    {
      "midi": 53,
      "hit": false,
      "t": 187894.81200000044,
      "d": 778.509083333367,
      "v": 67
    },
    {
      "midi": 68,
      "hit": false,
      "t": 187894.81200000044,
      "d": 1036.1846250000235,
      "v": 82
    },
    {
      "midi": 60,
      "hit": false,
      "t": 187894.81200000044,
      "d": 411.18437500001164,
      "v": 78
    },
    {
      "midi": 53,
      "hit": false,
      "t": 187894.81200000044,
      "d": 778.509083333367,
      "v": 67
    },
    {
      "midi": 68,
      "hit": false,
      "t": 187894.81200000044,
      "d": 1036.1846250000235,
      "v": 82
    },
    {
      "midi": 65,
      "hit": false,
      "t": 188421.12800000046,
      "d": 482.45633333333535,
      "v": 54
    },
    {
      "midi": 65,
      "hit": false,
      "t": 188421.12800000046,
      "d": 482.45633333333535,
      "v": 54
    },
    {
      "midi": 60,
      "hit": false,
      "t": 188947.44400000045,
      "d": 30.153520833322546,
      "v": 65
    },
    {
      "midi": 60,
      "hit": false,
      "t": 188947.44400000045,
      "d": 30.153520833322546,
      "v": 65
    },
    {
      "midi": 56,
      "hit": false,
      "t": 189473.76000000045,
      "d": 383.7720833333442,
      "v": 64
    },
    {
      "midi": 60,
      "hit": false,
      "t": 189473.76000000045,
      "d": 583.8818125000107,
      "v": 67
    },
    {
      "midi": 68,
      "hit": false,
      "t": 189473.76000000045,
      "d": 814.1450624999998,
      "v": 71
    },
    {
      "midi": 65,
      "hit": false,
      "t": 189473.76000000045,
      "d": 882.6757916666684,
      "v": 70
    },
    {
      "midi": 53,
      "hit": false,
      "t": 189473.76000000045,
      "d": 1263.7066458333575,
      "v": 63
    },
    {
      "midi": 41,
      "hit": false,
      "t": 189473.76000000045,
      "d": 1288.3777083333698,
      "v": 66
    },
    {
      "midi": 48,
      "hit": false,
      "t": 189473.76000000045,
      "d": 1307.5663125000428,
      "v": 57
    },
    {
      "midi": 56,
      "hit": false,
      "t": 189473.76000000045,
      "d": 383.7720833333442,
      "v": 64
    },
    {
      "midi": 60,
      "hit": false,
      "t": 189473.76000000045,
      "d": 583.8818125000107,
      "v": 67
    },
    {
      "midi": 68,
      "hit": false,
      "t": 189473.76000000045,
      "d": 814.1450624999998,
      "v": 71
    },
    {
      "midi": 65,
      "hit": false,
      "t": 189473.76000000045,
      "d": 882.6757916666684,
      "v": 70
    },
    {
      "midi": 53,
      "hit": false,
      "t": 189473.76000000045,
      "d": 1263.7066458333575,
      "v": 63
    },
    {
      "midi": 41,
      "hit": false,
      "t": 189473.76000000045,
      "d": 1288.3777083333698,
      "v": 66
    },
    {
      "midi": 48,
      "hit": false,
      "t": 189473.76000000045,
      "d": 1307.5663125000428,
      "v": 57
    },
    {
      "midi": 56,
      "hit": false,
      "t": 190000.07600000047,
      "d": 819.6275208333682,
      "v": 57
    },
    {
      "midi": 56,
      "hit": false,
      "t": 190000.07600000047,
      "d": 819.6275208333682,
      "v": 57
    },
    {
      "midi": 60,
      "hit": false,
      "t": 190526.39200000046,
      "d": 265.8992291667091,
      "v": 91
    },
    {
      "midi": 60,
      "hit": false,
      "t": 190526.39200000046,
      "d": 265.8992291667091,
      "v": 91
    },
    {
      "midi": 41,
      "hit": false,
      "t": 190877.26933333382,
      "d": 978.6188124999753,
      "v": 73
    },
    {
      "midi": 41,
      "hit": false,
      "t": 190877.26933333382,
      "d": 978.6188124999753,
      "v": 73
    },
    {
      "midi": 56,
      "hit": false,
      "t": 191052.70800000048,
      "d": 383.7720833333151,
      "v": 88
    },
    {
      "midi": 61,
      "hit": false,
      "t": 191052.70800000048,
      "d": 548.2458333333198,
      "v": 78
    },
    {
      "midi": 53,
      "hit": false,
      "t": 191052.70800000048,
      "d": 964.9126666666416,
      "v": 70
    },
    {
      "midi": 68,
      "hit": false,
      "t": 191052.70800000048,
      "d": 1063.5969166666328,
      "v": 88
    },
    {
      "midi": 49,
      "hit": false,
      "t": 191052.70800000048,
      "d": 1137.6101041666407,
      "v": 67
    },
    {
      "midi": 56,
      "hit": false,
      "t": 191052.70800000048,
      "d": 383.7720833333151,
      "v": 88
    },
    {
      "midi": 61,
      "hit": false,
      "t": 191052.70800000048,
      "d": 548.2458333333198,
      "v": 78
    },
    {
      "midi": 53,
      "hit": false,
      "t": 191052.70800000048,
      "d": 964.9126666666416,
      "v": 70
    },
    {
      "midi": 68,
      "hit": false,
      "t": 191052.70800000048,
      "d": 1063.5969166666328,
      "v": 88
    },
    {
      "midi": 49,
      "hit": false,
      "t": 191052.70800000048,
      "d": 1137.6101041666407,
      "v": 67
    },
    {
      "midi": 56,
      "hit": false,
      "t": 191579.02400000047,
      "d": 529.0572291666467,
      "v": 74
    },
    {
      "midi": 65,
      "hit": false,
      "t": 191579.02400000047,
      "d": 531.7984583333018,
      "v": 74
    },
    {
      "midi": 56,
      "hit": false,
      "t": 191579.02400000047,
      "d": 529.0572291666467,
      "v": 74
    },
    {
      "midi": 65,
      "hit": false,
      "t": 191579.02400000047,
      "d": 531.7984583333018,
      "v": 74
    },
    {
      "midi": 61,
      "hit": false,
      "t": 192105.34000000046,
      "d": 65.7894999999844,
      "v": 88
    },
    {
      "midi": 61,
      "hit": false,
      "t": 192105.34000000046,
      "d": 65.7894999999844,
      "v": 88
    },
    {
      "midi": 58,
      "hit": false,
      "t": 192631.65600000045,
      "d": 378.2896250000049,
      "v": 78
    },
    {
      "midi": 61,
      "hit": false,
      "t": 192631.65600000045,
      "d": 592.1055000000051,
      "v": 73
    },
    {
      "midi": 70,
      "hit": false,
      "t": 192631.65600000045,
      "d": 904.6056249999965,
      "v": 74
    },
    {
      "midi": 66,
      "hit": false,
      "t": 192631.65600000045,
      "d": 1011.5135624999821,
      "v": 74
    },
    {
      "midi": 54,
      "hit": false,
      "t": 192631.65600000045,
      "d": 1173.2460833333025,
      "v": 73
    },
    {
      "midi": 49,
      "hit": false,
      "t": 192631.65600000045,
      "d": 1181.469770833297,
      "v": 71
    },
    {
      "midi": 42,
      "hit": false,
      "t": 192631.65600000045,
      "d": 1197.9171458332858,
      "v": 71
    },
    {
      "midi": 58,
      "hit": false,
      "t": 192631.65600000045,
      "d": 378.2896250000049,
      "v": 78
    },
    {
      "midi": 61,
      "hit": false,
      "t": 192631.65600000045,
      "d": 592.1055000000051,
      "v": 73
    },
    {
      "midi": 70,
      "hit": false,
      "t": 192631.65600000045,
      "d": 904.6056249999965,
      "v": 74
    },
    {
      "midi": 66,
      "hit": false,
      "t": 192631.65600000045,
      "d": 1011.5135624999821,
      "v": 74
    },
    {
      "midi": 54,
      "hit": false,
      "t": 192631.65600000045,
      "d": 1173.2460833333025,
      "v": 73
    },
    {
      "midi": 49,
      "hit": false,
      "t": 192631.65600000045,
      "d": 1181.469770833297,
      "v": 71
    },
    {
      "midi": 42,
      "hit": false,
      "t": 192631.65600000045,
      "d": 1197.9171458332858,
      "v": 71
    },
    {
      "midi": 58,
      "hit": false,
      "t": 193157.97200000045,
      "d": 356.35979166667676,
      "v": 60
    },
    {
      "midi": 58,
      "hit": false,
      "t": 193157.97200000045,
      "d": 356.35979166667676,
      "v": 60
    },
    {
      "midi": 61,
      "hit": false,
      "t": 193684.28800000044,
      "d": 71.27195833332371,
      "v": 73
    },
    {
      "midi": 61,
      "hit": false,
      "t": 193684.28800000044,
      "d": 71.27195833332371,
      "v": 73
    },
    {
      "midi": 42,
      "hit": false,
      "t": 194035.16533333375,
      "d": 1140.3513333333249,
      "v": 55
    },
    {
      "midi": 42,
      "hit": false,
      "t": 194035.16533333375,
      "d": 1140.3513333333249,
      "v": 55
    },
    {
      "midi": 70,
      "hit": false,
      "t": 194210.6040000004,
      "d": 441.3378958333342,
      "v": 73
    },
    {
      "midi": 58,
      "hit": false,
      "t": 194210.6040000004,
      "d": 490.68002083332976,
      "v": 80
    },
    {
      "midi": 54,
      "hit": false,
      "t": 194210.6040000004,
      "d": 773.0266249999986,
      "v": 66
    },
    {
      "midi": 49,
      "hit": false,
      "t": 194210.6040000004,
      "d": 1228.0706666666665,
      "v": 61
    },
    {
      "midi": 66,
      "hit": false,
      "t": 194210.6040000004,
      "d": 1241.7768125000002,
      "v": 73
    },
    {
      "midi": 70,
      "hit": false,
      "t": 194210.6040000004,
      "d": 441.3378958333342,
      "v": 73
    },
    {
      "midi": 58,
      "hit": false,
      "t": 194210.6040000004,
      "d": 490.68002083332976,
      "v": 80
    },
    {
      "midi": 54,
      "hit": false,
      "t": 194210.6040000004,
      "d": 773.0266249999986,
      "v": 66
    },
    {
      "midi": 49,
      "hit": false,
      "t": 194210.6040000004,
      "d": 1228.0706666666665,
      "v": 61
    },
    {
      "midi": 66,
      "hit": false,
      "t": 194210.6040000004,
      "d": 1241.7768125000002,
      "v": 73
    },
    {
      "midi": 61,
      "hit": false,
      "t": 194736.9200000004,
      "d": 570.175666666677,
      "v": 61
    },
    {
      "midi": 61,
      "hit": false,
      "t": 194736.9200000004,
      "d": 570.175666666677,
      "v": 61
    },
    {
      "midi": 56,
      "hit": false,
      "t": 195263.2360000004,
      "d": 197.3684999999823,
      "v": 73
    },
    {
      "midi": 56,
      "hit": false,
      "t": 195263.2360000004,
      "d": 197.3684999999823,
      "v": 73
    },
    {
      "midi": 61,
      "hit": false,
      "t": 195789.5520000004,
      "d": 592.1055000000051,
      "v": 73
    },
    {
      "midi": 54,
      "hit": false,
      "t": 195789.5520000004,
      "d": 1121.162729166681,
      "v": 71
    },
    {
      "midi": 68,
      "hit": false,
      "t": 195789.5520000004,
      "d": 1156.7987083333428,
      "v": 80
    },
    {
      "midi": 49,
      "hit": false,
      "t": 195789.5520000004,
      "d": 1195.1759166666889,
      "v": 57
    },
    {
      "midi": 42,
      "hit": false,
      "t": 195789.5520000004,
      "d": 1260.9654166667024,
      "v": 57
    },
    {
      "midi": 61,
      "hit": false,
      "t": 195789.5520000004,
      "d": 592.1055000000051,
      "v": 73
    },
    {
      "midi": 54,
      "hit": false,
      "t": 195789.5520000004,
      "d": 1121.162729166681,
      "v": 71
    },
    {
      "midi": 68,
      "hit": false,
      "t": 195789.5520000004,
      "d": 1156.7987083333428,
      "v": 80
    },
    {
      "midi": 49,
      "hit": false,
      "t": 195789.5520000004,
      "d": 1195.1759166666889,
      "v": 57
    },
    {
      "midi": 42,
      "hit": false,
      "t": 195789.5520000004,
      "d": 1260.9654166667024,
      "v": 57
    },
    {
      "midi": 66,
      "hit": false,
      "t": 196315.8680000004,
      "d": 600.3291875000286,
      "v": 67
    },
    {
      "midi": 66,
      "hit": false,
      "t": 196315.8680000004,
      "d": 600.3291875000286,
      "v": 67
    },
    {
      "midi": 61,
      "hit": false,
      "t": 196842.18400000042,
      "d": 63.0482708333293,
      "v": 73
    },
    {
      "midi": 61,
      "hit": false,
      "t": 196842.18400000042,
      "d": 63.0482708333293,
      "v": 73
    },
    {
      "midi": 42,
      "hit": false,
      "t": 197193.06133333378,
      "d": 1134.8688750000147,
      "v": 66
    },
    {
      "midi": 42,
      "hit": false,
      "t": 197193.06133333378,
      "d": 1134.8688750000147,
      "v": 66
    },
    {
      "midi": 54,
      "hit": false,
      "t": 197368.50000000044,
      "d": 287.82906250000815,
      "v": 91
    },
    {
      "midi": 58,
      "hit": false,
      "t": 197368.50000000044,
      "d": 339.91241666668793,
      "v": 95
    },
    {
      "midi": 66,
      "hit": false,
      "t": 197368.50000000044,
      "d": 885.4170208333526,
      "v": 88
    },
    {
      "midi": 49,
      "hit": false,
      "t": 197368.50000000044,
      "d": 984.1012708333728,
      "v": 80
    },
    {
      "midi": 54,
      "hit": false,
      "t": 197368.50000000044,
      "d": 287.82906250000815,
      "v": 91
    },
    {
      "midi": 58,
      "hit": false,
      "t": 197368.50000000044,
      "d": 339.91241666668793,
      "v": 95
    },
    {
      "midi": 66,
      "hit": false,
      "t": 197368.50000000044,
      "d": 885.4170208333526,
      "v": 88
    },
    {
      "midi": 49,
      "hit": false,
      "t": 197368.50000000044,
      "d": 984.1012708333728,
      "v": 80
    },
    {
      "midi": 61,
      "hit": false,
      "t": 197894.81600000046,
      "d": 342.65364583334303,
      "v": 74
    },
    {
      "midi": 56,
      "hit": false,
      "t": 197894.81600000046,
      "d": 350.87733333333745,
      "v": 88
    },
    {
      "midi": 61,
      "hit": false,
      "t": 197894.81600000046,
      "d": 342.65364583334303,
      "v": 74
    },
    {
      "midi": 56,
      "hit": false,
      "t": 197894.81600000046,
      "d": 350.87733333333745,
      "v": 88
    },
    {
      "midi": 58,
      "hit": false,
      "t": 198421.13200000048,
      "d": 63.0482708333293,
      "v": 95
    },
    {
      "midi": 61,
      "hit": false,
      "t": 198421.13200000048,
      "d": 76.75441666666302,
      "v": 88
    },
    {
      "midi": 58,
      "hit": false,
      "t": 198421.13200000048,
      "d": 63.0482708333293,
      "v": 95
    },
    {
      "midi": 61,
      "hit": false,
      "t": 198421.13200000048,
      "d": 76.75441666666302,
      "v": 88
    },
    {
      "midi": 56,
      "hit": false,
      "t": 198947.44800000047,
      "d": 408.44314583332743,
      "v": 82
    },
    {
      "midi": 61,
      "hit": false,
      "t": 198947.44800000047,
      "d": 625.0002499999828,
      "v": 80
    },
    {
      "midi": 49,
      "hit": false,
      "t": 198947.44800000047,
      "d": 1058.1144583333225,
      "v": 62
    },
    {
      "midi": 65,
      "hit": false,
      "t": 198947.44800000047,
      "d": 1107.4565833333181,
      "v": 76
    },
    {
      "midi": 37,
      "hit": false,
      "t": 198947.44800000047,
      "d": 1115.6802708333125,
      "v": 74
    },
    {
      "midi": 56,
      "hit": false,
      "t": 198947.44800000047,
      "d": 408.44314583332743,
      "v": 82
    },
    {
      "midi": 61,
      "hit": false,
      "t": 198947.44800000047,
      "d": 625.0002499999828,
      "v": 80
    },
    {
      "midi": 49,
      "hit": false,
      "t": 198947.44800000047,
      "d": 1058.1144583333225,
      "v": 62
    },
    {
      "midi": 65,
      "hit": false,
      "t": 198947.44800000047,
      "d": 1107.4565833333181,
      "v": 76
    },
    {
      "midi": 37,
      "hit": false,
      "t": 198947.44800000047,
      "d": 1115.6802708333125,
      "v": 74
    },
    {
      "midi": 56,
      "hit": false,
      "t": 199473.76400000046,
      "d": 391.9957708333386,
      "v": 57
    },
    {
      "midi": 56,
      "hit": false,
      "t": 199473.76400000046,
      "d": 391.9957708333386,
      "v": 57
    },
    {
      "midi": 56,
      "hit": false,
      "t": 200000.08000000045,
      "d": 68.5307291666686,
      "v": 52
    },
    {
      "midi": 61,
      "hit": false,
      "t": 200000.08000000045,
      "d": 84.97810416665743,
      "v": 66
    },
    {
      "midi": 56,
      "hit": false,
      "t": 200000.08000000045,
      "d": 68.5307291666686,
      "v": 52
    },
    {
      "midi": 61,
      "hit": false,
      "t": 200000.08000000045,
      "d": 84.97810416665743,
      "v": 66
    },
    {
      "midi": 56,
      "hit": false,
      "t": 200526.39600000044,
      "d": 389.2545416666544,
      "v": 78
    },
    {
      "midi": 61,
      "hit": false,
      "t": 200526.39600000044,
      "d": 537.2809166666702,
      "v": 71
    },
    {
      "midi": 34,
      "hit": false,
      "t": 200526.39600000044,
      "d": 882.6757916666684,
      "v": 54
    },
    {
      "midi": 46,
      "hit": false,
      "t": 200526.39600000044,
      "d": 1063.596916666691,
      "v": 78
    },
    {
      "midi": 66,
      "hit": false,
      "t": 200526.39600000044,
      "d": 1318.5312291667215,
      "v": 68
    },
    {
      "midi": 68,
      "hit": false,
      "t": 200526.39600000044,
      "d": 1373.3558125000563,
      "v": 71
    },
    {
      "midi": 56,
      "hit": false,
      "t": 200526.39600000044,
      "d": 389.2545416666544,
      "v": 78
    },
    {
      "midi": 61,
      "hit": false,
      "t": 200526.39600000044,
      "d": 537.2809166666702,
      "v": 71
    },
    {
      "midi": 34,
      "hit": false,
      "t": 200526.39600000044,
      "d": 882.6757916666684,
      "v": 54
    },
    {
      "midi": 46,
      "hit": false,
      "t": 200526.39600000044,
      "d": 1063.596916666691,
      "v": 78
    },
    {
      "midi": 66,
      "hit": false,
      "t": 200526.39600000044,
      "d": 1318.5312291667215,
      "v": 68
    },
    {
      "midi": 68,
      "hit": false,
      "t": 200526.39600000044,
      "d": 1373.3558125000563,
      "v": 71
    },
    {
      "midi": 56,
      "hit": false,
      "t": 201052.71200000044,
      "d": 734.6494166667107,
      "v": 64
    },
    {
      "midi": 56,
      "hit": false,
      "t": 201052.71200000044,
      "d": 734.6494166667107,
      "v": 64
    },
    {
      "midi": 61,
      "hit": false,
      "t": 201579.02800000046,
      "d": 233.00447916670237,
      "v": 62
    },
    {
      "midi": 61,
      "hit": false,
      "t": 201579.02800000046,
      "d": 233.00447916670237,
      "v": 62
    },
    {
      "midi": 56,
      "hit": false,
      "t": 201929.90533333382,
      "d": 104.16670833333046,
      "v": 58
    },
    {
      "midi": 56,
      "hit": false,
      "t": 201929.90533333382,
      "d": 104.16670833333046,
      "v": 58
    },
    {
      "midi": 56,
      "hit": false,
      "t": 202105.34400000048,
      "d": 386.5133124999993,
      "v": 66
    },
    {
      "midi": 60,
      "hit": false,
      "t": 202105.34400000048,
      "d": 586.6230416666658,
      "v": 80
    },
    {
      "midi": 63,
      "hit": false,
      "t": 202105.34400000048,
      "d": 847.0398124999774,
      "v": 68
    },
    {
      "midi": 68,
      "hit": false,
      "t": 202105.34400000048,
      "d": 1085.52674999999,
      "v": 74
    },
    {
      "midi": 44,
      "hit": false,
      "t": 202105.34400000048,
      "d": 1228.0706666666665,
      "v": 74
    },
    {
      "midi": 51,
      "hit": false,
      "t": 202105.34400000048,
      "d": 1255.482958333334,
      "v": 74
    },
    {
      "midi": 56,
      "hit": false,
      "t": 202105.34400000048,
      "d": 386.5133124999993,
      "v": 66
    },
    {
      "midi": 60,
      "hit": false,
      "t": 202105.34400000048,
      "d": 586.6230416666658,
      "v": 80
    },
    {
      "midi": 63,
      "hit": false,
      "t": 202105.34400000048,
      "d": 847.0398124999774,
      "v": 68
    },
    {
      "midi": 68,
      "hit": false,
      "t": 202105.34400000048,
      "d": 1085.52674999999,
      "v": 74
    },
    {
      "midi": 44,
      "hit": false,
      "t": 202105.34400000048,
      "d": 1228.0706666666665,
      "v": 74
    },
    {
      "midi": 51,
      "hit": false,
      "t": 202105.34400000048,
      "d": 1255.482958333334,
      "v": 74
    },
    {
      "midi": 56,
      "hit": false,
      "t": 202631.66000000047,
      "d": 235.74570833332837,
      "v": 62
    },
    {
      "midi": 56,
      "hit": false,
      "t": 202631.66000000047,
      "d": 235.74570833332837,
      "v": 62
    },
    {
      "midi": 56,
      "hit": false,
      "t": 203157.97600000046,
      "d": 57.56581250001909,
      "v": 61
    },
    {
      "midi": 63,
      "hit": false,
      "t": 203157.97600000046,
      "d": 65.7895000000135,
      "v": 48
    },
    {
      "midi": 60,
      "hit": false,
      "t": 203157.97600000046,
      "d": 84.97810416668653,
      "v": 58
    },
    {
      "midi": 56,
      "hit": false,
      "t": 203157.97600000046,
      "d": 57.56581250001909,
      "v": 61
    },
    {
      "midi": 63,
      "hit": false,
      "t": 203157.97600000046,
      "d": 65.7895000000135,
      "v": 48
    },
    {
      "midi": 60,
      "hit": false,
      "t": 203157.97600000046,
      "d": 84.97810416668653,
      "v": 58
    },
    {
      "midi": 58,
      "hit": false,
      "t": 203684.29200000048,
      "d": 592.105499999976,
      "v": 88
    },
    {
      "midi": 68,
      "hit": false,
      "t": 203684.29200000048,
      "d": 608.5528749999648,
      "v": 80
    },
    {
      "midi": 61,
      "hit": false,
      "t": 203684.29200000048,
      "d": 638.7063958332874,
      "v": 82
    },
    {
      "midi": 51,
      "hit": false,
      "t": 203684.29200000048,
      "d": 1091.0092083333002,
      "v": 73
    },
    {
      "midi": 44,
      "hit": false,
      "t": 203684.29200000048,
      "d": 1170.5048541666474,
      "v": 78
    },
    {
      "midi": 58,
      "hit": false,
      "t": 203684.29200000048,
      "d": 592.105499999976,
      "v": 88
    },
    {
      "midi": 68,
      "hit": false,
      "t": 203684.29200000048,
      "d": 608.5528749999648,
      "v": 80
    },
    {
      "midi": 61,
      "hit": false,
      "t": 203684.29200000048,
      "d": 638.7063958332874,
      "v": 82
    },
    {
      "midi": 51,
      "hit": false,
      "t": 203684.29200000048,
      "d": 1091.0092083333002,
      "v": 73
    },
    {
      "midi": 44,
      "hit": false,
      "t": 203684.29200000048,
      "d": 1170.5048541666474,
      "v": 78
    },
    {
      "midi": 60,
      "hit": false,
      "t": 204561.48533333378,
      "d": 342.65364583334303,
      "v": 95
    },
    {
      "midi": 68,
      "hit": false,
      "t": 204561.48533333378,
      "d": 375.5483958333498,
      "v": 88
    },
    {
      "midi": 63,
      "hit": false,
      "t": 204561.48533333378,
      "d": 394.7370000000228,
      "v": 88
    },
    {
      "midi": 60,
      "hit": false,
      "t": 204561.48533333378,
      "d": 342.65364583334303,
      "v": 95
    },
    {
      "midi": 68,
      "hit": false,
      "t": 204561.48533333378,
      "d": 375.5483958333498,
      "v": 88
    },
    {
      "midi": 63,
      "hit": false,
      "t": 204561.48533333378,
      "d": 394.7370000000228,
      "v": 88
    },
    {
      "midi": 56,
      "hit": false,
      "t": 205263.2400000005,
      "d": 356.35979166664765,
      "v": 71
    },
    {
      "midi": 61,
      "hit": false,
      "t": 205263.2400000005,
      "d": 550.987062500004,
      "v": 71
    },
    {
      "midi": 65,
      "hit": false,
      "t": 205263.2400000005,
      "d": 836.0748958333279,
      "v": 74
    },
    {
      "midi": 68,
      "hit": false,
      "t": 205263.2400000005,
      "d": 907.3468541666516,
      "v": 67
    },
    {
      "midi": 49,
      "hit": false,
      "t": 205263.2400000005,
      "d": 1291.1189374999958,
      "v": 60
    },
    {
      "midi": 37,
      "hit": false,
      "t": 205263.2400000005,
      "d": 2785.0888333333132,
      "v": 61
    },
    {
      "midi": 56,
      "hit": false,
      "t": 205263.2400000005,
      "d": 356.35979166664765,
      "v": 71
    },
    {
      "midi": 61,
      "hit": false,
      "t": 205263.2400000005,
      "d": 550.987062500004,
      "v": 71
    },
    {
      "midi": 65,
      "hit": false,
      "t": 205263.2400000005,
      "d": 836.0748958333279,
      "v": 74
    },
    {
      "midi": 68,
      "hit": false,
      "t": 205263.2400000005,
      "d": 907.3468541666516,
      "v": 67
    },
    {
      "midi": 49,
      "hit": false,
      "t": 205263.2400000005,
      "d": 1291.1189374999958,
      "v": 60
    },
    {
      "midi": 37,
      "hit": false,
      "t": 205263.2400000005,
      "d": 2785.0888333333132,
      "v": 61
    },
    {
      "midi": 56,
      "hit": false,
      "t": 205789.55600000048,
      "d": 531.7984583333309,
      "v": 62
    },
    {
      "midi": 56,
      "hit": false,
      "t": 205789.55600000048,
      "d": 531.7984583333309,
      "v": 62
    },
    {
      "midi": 61,
      "hit": false,
      "t": 206315.87200000047,
      "d": 65.7895000000135,
      "v": 57
    },
    {
      "midi": 65,
      "hit": false,
      "t": 206315.87200000047,
      "d": 82.23687500000233,
      "v": 54
    },
    {
      "midi": 61,
      "hit": false,
      "t": 206315.87200000047,
      "d": 65.7895000000135,
      "v": 57
    },
    {
      "midi": 65,
      "hit": false,
      "t": 206315.87200000047,
      "d": 82.23687500000233,
      "v": 54
    },
    {
      "midi": 53,
      "hit": false,
      "t": 206842.1880000005,
      "d": 298.79397916665766,
      "v": 57
    },
    {
      "midi": 56,
      "hit": false,
      "t": 206842.1880000005,
      "d": 622.2590208333277,
      "v": 68
    },
    {
      "midi": 61,
      "hit": false,
      "t": 206842.1880000005,
      "d": 718.2020416666637,
      "v": 67
    },
    {
      "midi": 65,
      "hit": false,
      "t": 206842.1880000005,
      "d": 816.8862916666549,
      "v": 71
    },
    {
      "midi": 49,
      "hit": false,
      "t": 206842.1880000005,
      "d": 1236.2943541666318,
      "v": 66
    },
    {
      "midi": 53,
      "hit": false,
      "t": 206842.1880000005,
      "d": 298.79397916665766,
      "v": 57
    },
    {
      "midi": 56,
      "hit": false,
      "t": 206842.1880000005,
      "d": 622.2590208333277,
      "v": 68
    },
    {
      "midi": 61,
      "hit": false,
      "t": 206842.1880000005,
      "d": 718.2020416666637,
      "v": 67
    },
    {
      "midi": 65,
      "hit": false,
      "t": 206842.1880000005,
      "d": 816.8862916666549,
      "v": 71
    },
    {
      "midi": 49,
      "hit": false,
      "t": 206842.1880000005,
      "d": 1236.2943541666318,
      "v": 66
    },
    {
      "midi": 53,
      "hit": false,
      "t": 207368.50400000048,
      "d": 287.82906250000815,
      "v": 63
    },
    {
      "midi": 53,
      "hit": false,
      "t": 207368.50400000048,
      "d": 287.82906250000815,
      "v": 63
    },
    {
      "midi": 61,
      "hit": false,
      "t": 207894.82000000047,
      "d": 194.6272708333272,
      "v": 62
    },
    {
      "midi": 56,
      "hit": false,
      "t": 207894.82000000047,
      "d": 230.26324999998906,
      "v": 64
    },
    {
      "midi": 65,
      "hit": false,
      "t": 207894.82000000047,
      "d": 241.22816666666768,
      "v": 70
    },
    {
      "midi": 61,
      "hit": false,
      "t": 207894.82000000047,
      "d": 194.6272708333272,
      "v": 62
    },
    {
      "midi": 56,
      "hit": false,
      "t": 207894.82000000047,
      "d": 230.26324999998906,
      "v": 64
    },
    {
      "midi": 65,
      "hit": false,
      "t": 207894.82000000047,
      "d": 241.22816666666768,
      "v": 70
    },
    {
      "midi": 53,
      "hit": false,
      "t": 208421.13600000046,
      "d": 323.46504166667,
      "v": 64
    },
    {
      "midi": 56,
      "hit": false,
      "t": 208421.13600000046,
      "d": 709.9783541666693,
      "v": 67
    },
    {
      "midi": 61,
      "hit": false,
      "t": 208421.13600000046,
      "d": 838.8161250000121,
      "v": 64
    },
    {
      "midi": 44,
      "hit": false,
      "t": 208421.13600000046,
      "d": 1192.4346875000047,
      "v": 64
    },
    {
      "midi": 49,
      "hit": false,
      "t": 208421.13600000046,
      "d": 1192.4346875000047,
      "v": 55
    },
    {
      "midi": 37,
      "hit": false,
      "t": 208421.13600000046,
      "d": 1197.917145833344,
      "v": 61
    },
    {
      "midi": 53,
      "hit": false,
      "t": 208421.13600000046,
      "d": 323.46504166667,
      "v": 64
    },
    {
      "midi": 56,
      "hit": false,
      "t": 208421.13600000046,
      "d": 709.9783541666693,
      "v": 67
    },
    {
      "midi": 61,
      "hit": false,
      "t": 208421.13600000046,
      "d": 838.8161250000121,
      "v": 64
    },
    {
      "midi": 44,
      "hit": false,
      "t": 208421.13600000046,
      "d": 1192.4346875000047,
      "v": 64
    },
    {
      "midi": 49,
      "hit": false,
      "t": 208421.13600000046,
      "d": 1192.4346875000047,
      "v": 55
    },
    {
      "midi": 37,
      "hit": false,
      "t": 208421.13600000046,
      "d": 1197.917145833344,
      "v": 61
    },
    {
      "midi": 53,
      "hit": false,
      "t": 208947.45200000046,
      "d": 339.91241666668793,
      "v": 60
    },
    {
      "midi": 53,
      "hit": false,
      "t": 208947.45200000046,
      "d": 339.91241666668793,
      "v": 60
    },
    {
      "midi": 56,
      "hit": false,
      "t": 209473.76800000048,
      "d": 46.60089583334047,
      "v": 78
    },
    {
      "midi": 61,
      "hit": false,
      "t": 209473.76800000048,
      "d": 68.5307291666686,
      "v": 62
    },
    {
      "midi": 56,
      "hit": false,
      "t": 209473.76800000048,
      "d": 46.60089583334047,
      "v": 78
    },
    {
      "midi": 61,
      "hit": false,
      "t": 209473.76800000048,
      "d": 68.5307291666686,
      "v": 62
    },
    {
      "midi": 44,
      "hit": false,
      "t": 209824.6453333338,
      "d": 1307.5663125000137,
      "v": 74
    },
    {
      "midi": 37,
      "hit": false,
      "t": 209824.6453333338,
      "d": 1367.873354166688,
      "v": 78
    },
    {
      "midi": 44,
      "hit": false,
      "t": 209824.6453333338,
      "d": 1307.5663125000137,
      "v": 74
    },
    {
      "midi": 37,
      "hit": false,
      "t": 209824.6453333338,
      "d": 1367.873354166688,
      "v": 78
    },
    {
      "midi": 61,
      "hit": false,
      "t": 210000.08400000047,
      "d": 540.0221458333544,
      "v": 91
    },
    {
      "midi": 49,
      "hit": false,
      "t": 210000.08400000047,
      "d": 712.7195833333535,
      "v": 82
    },
    {
      "midi": 56,
      "hit": false,
      "t": 210000.08400000047,
      "d": 1348.684750000015,
      "v": 104
    },
    {
      "midi": 61,
      "hit": false,
      "t": 210000.08400000047,
      "d": 540.0221458333544,
      "v": 91
    },
    {
      "midi": 49,
      "hit": false,
      "t": 210000.08400000047,
      "d": 712.7195833333535,
      "v": 82
    },
    {
      "midi": 56,
      "hit": false,
      "t": 210000.08400000047,
      "d": 1348.684750000015,
      "v": 104
    },
    {
      "midi": 65,
      "hit": false,
      "t": 210526.4000000005,
      "d": 41.118437500001164,
      "v": 95
    },
    {
      "midi": 60,
      "hit": false,
      "t": 210526.4000000005,
      "d": 350.87733333333745,
      "v": 88
    },
    {
      "midi": 65,
      "hit": false,
      "t": 210526.4000000005,
      "d": 41.118437500001164,
      "v": 95
    },
    {
      "midi": 60,
      "hit": false,
      "t": 210526.4000000005,
      "d": 350.87733333333745,
      "v": 88
    },
    {
      "midi": 49,
      "hit": false,
      "t": 211052.71600000048,
      "d": 216.55710416668444,
      "v": 64
    },
    {
      "midi": 61,
      "hit": false,
      "t": 211052.71600000048,
      "d": 279.60537500001374,
      "v": 82
    },
    {
      "midi": 65,
      "hit": false,
      "t": 211052.71600000048,
      "d": 301.53520833334187,
      "v": 85
    },
    {
      "midi": 68,
      "hit": false,
      "t": 211052.71600000048,
      "d": 315.2413541666756,
      "v": 95
    },
    {
      "midi": 49,
      "hit": false,
      "t": 211052.71600000048,
      "d": 216.55710416668444,
      "v": 64
    },
    {
      "midi": 61,
      "hit": false,
      "t": 211052.71600000048,
      "d": 279.60537500001374,
      "v": 82
    },
    {
      "midi": 65,
      "hit": false,
      "t": 211052.71600000048,
      "d": 301.53520833334187,
      "v": 85
    },
    {
      "midi": 68,
      "hit": false,
      "t": 211052.71600000048,
      "d": 315.2413541666756,
      "v": 95
    },
    {
      "midi": 56,
      "hit": false,
      "t": 211579.03200000047,
      "d": 419.40806250000605,
      "v": 82
    },
    {
      "midi": 60,
      "hit": false,
      "t": 211579.03200000047,
      "d": 578.3993541666714,
      "v": 88
    },
    {
      "midi": 65,
      "hit": false,
      "t": 211579.03200000047,
      "d": 718.2020416666637,
      "v": 78
    },
    {
      "midi": 68,
      "hit": false,
      "t": 211579.03200000047,
      "d": 863.4871874999953,
      "v": 88
    },
    {
      "midi": 53,
      "hit": false,
      "t": 211579.03200000047,
      "d": 981.3600416666595,
      "v": 74
    },
    {
      "midi": 48,
      "hit": false,
      "t": 211579.03200000047,
      "d": 2576.7554166666814,
      "v": 74
    },
    {
      "midi": 41,
      "hit": false,
      "t": 211579.03200000047,
      "d": 2645.28614583335,
      "v": 67
    },
    {
      "midi": 56,
      "hit": false,
      "t": 211579.03200000047,
      "d": 419.40806250000605,
      "v": 82
    },
    {
      "midi": 60,
      "hit": false,
      "t": 211579.03200000047,
      "d": 578.3993541666714,
      "v": 88
    },
    {
      "midi": 65,
      "hit": false,
      "t": 211579.03200000047,
      "d": 718.2020416666637,
      "v": 78
    },
    {
      "midi": 68,
      "hit": false,
      "t": 211579.03200000047,
      "d": 863.4871874999953,
      "v": 88
    },
    {
      "midi": 53,
      "hit": false,
      "t": 211579.03200000047,
      "d": 981.3600416666595,
      "v": 74
    },
    {
      "midi": 48,
      "hit": false,
      "t": 211579.03200000047,
      "d": 2576.7554166666814,
      "v": 74
    },
    {
      "midi": 41,
      "hit": false,
      "t": 211579.03200000047,
      "d": 2645.28614583335,
      "v": 67
    },
    {
      "midi": 56,
      "hit": false,
      "t": 212105.34800000046,
      "d": 287.82906250000815,
      "v": 61
    },
    {
      "midi": 56,
      "hit": false,
      "t": 212105.34800000046,
      "d": 287.82906250000815,
      "v": 61
    },
    {
      "midi": 60,
      "hit": false,
      "t": 212631.66400000046,
      "d": 74.01318750000792,
      "v": 78
    },
    {
      "midi": 65,
      "hit": false,
      "t": 212631.66400000046,
      "d": 109.64916666666977,
      "v": 70
    },
    {
      "midi": 60,
      "hit": false,
      "t": 212631.66400000046,
      "d": 74.01318750000792,
      "v": 78
    },
    {
      "midi": 65,
      "hit": false,
      "t": 212631.66400000046,
      "d": 109.64916666666977,
      "v": 70
    },
    {
      "midi": 60,
      "hit": false,
      "t": 213157.98000000045,
      "d": 383.7720833333442,
      "v": 67
    },
    {
      "midi": 72,
      "hit": false,
      "t": 213157.98000000045,
      "d": 485.19756250001956,
      "v": 67
    },
    {
      "midi": 68,
      "hit": false,
      "t": 213157.98000000045,
      "d": 630.4827083333512,
      "v": 63
    },
    {
      "midi": 56,
      "hit": false,
      "t": 213157.98000000045,
      "d": 1000.5486458333617,
      "v": 64
    },
    {
      "midi": 60,
      "hit": false,
      "t": 213157.98000000045,
      "d": 383.7720833333442,
      "v": 67
    },
    {
      "midi": 72,
      "hit": false,
      "t": 213157.98000000045,
      "d": 485.19756250001956,
      "v": 67
    },
    {
      "midi": 68,
      "hit": false,
      "t": 213157.98000000045,
      "d": 630.4827083333512,
      "v": 63
    },
    {
      "midi": 56,
      "hit": false,
      "t": 213157.98000000045,
      "d": 1000.5486458333617,
      "v": 64
    },
    {
      "midi": 60,
      "hit": false,
      "t": 213684.29600000047,
      "d": 164.47375000000466,
      "v": 65
    },
    {
      "midi": 60,
      "hit": false,
      "t": 213684.29600000047,
      "d": 164.47375000000466,
      "v": 65
    },
    {
      "midi": 65,
      "hit": false,
      "t": 214210.6120000005,
      "d": 52.08335416667978,
      "v": 80
    },
    {
      "midi": 68,
      "hit": false,
      "t": 214210.6120000005,
      "d": 71.27195833335281,
      "v": 73
    },
    {
      "midi": 65,
      "hit": false,
      "t": 214210.6120000005,
      "d": 52.08335416667978,
      "v": 80
    },
    {
      "midi": 68,
      "hit": false,
      "t": 214210.6120000005,
      "d": 71.27195833335281,
      "v": 73
    },
    {
      "midi": 56,
      "hit": false,
      "t": 214736.92800000048,
      "d": 367.32470833332627,
      "v": 58
    },
    {
      "midi": 60,
      "hit": false,
      "t": 214736.92800000048,
      "d": 515.351083333313,
      "v": 61
    },
    {
      "midi": 68,
      "hit": false,
      "t": 214736.92800000048,
      "d": 882.6757916666684,
      "v": 67
    },
    {
      "midi": 53,
      "hit": false,
      "t": 214736.92800000048,
      "d": 1036.1846249999944,
      "v": 67
    },
    {
      "midi": 48,
      "hit": false,
      "t": 214736.92800000048,
      "d": 1038.9258541666495,
      "v": 65
    },
    {
      "midi": 41,
      "hit": false,
      "t": 214736.92800000048,
      "d": 1126.6451874999912,
      "v": 56
    },
    {
      "midi": 56,
      "hit": false,
      "t": 214736.92800000048,
      "d": 367.32470833332627,
      "v": 58
    },
    {
      "midi": 60,
      "hit": false,
      "t": 214736.92800000048,
      "d": 515.351083333313,
      "v": 61
    },
    {
      "midi": 68,
      "hit": false,
      "t": 214736.92800000048,
      "d": 882.6757916666684,
      "v": 67
    },
    {
      "midi": 53,
      "hit": false,
      "t": 214736.92800000048,
      "d": 1036.1846249999944,
      "v": 67
    },
    {
      "midi": 48,
      "hit": false,
      "t": 214736.92800000048,
      "d": 1038.9258541666495,
      "v": 65
    },
    {
      "midi": 41,
      "hit": false,
      "t": 214736.92800000048,
      "d": 1126.6451874999912,
      "v": 56
    },
    {
      "midi": 56,
      "hit": false,
      "t": 215263.24400000047,
      "d": 370.0659375000105,
      "v": 71
    },
    {
      "midi": 56,
      "hit": false,
      "t": 215263.24400000047,
      "d": 370.0659375000105,
      "v": 71
    },
    {
      "midi": 60,
      "hit": false,
      "t": 215789.56000000046,
      "d": 35.635979166661855,
      "v": 82
    },
    {
      "midi": 60,
      "hit": false,
      "t": 215789.56000000046,
      "d": 35.635979166661855,
      "v": 82
    },
    {
      "midi": 41,
      "hit": false,
      "t": 216140.4373333338,
      "d": 1110.1978124999441,
      "v": 82
    },
    {
      "midi": 48,
      "hit": false,
      "t": 216140.4373333338,
      "d": 1110.1978124999441,
      "v": 71
    },
    {
      "midi": 41,
      "hit": false,
      "t": 216140.4373333338,
      "d": 1110.1978124999441,
      "v": 82
    },
    {
      "midi": 48,
      "hit": false,
      "t": 216140.4373333338,
      "d": 1110.1978124999441,
      "v": 71
    },
    {
      "midi": 63,
      "hit": false,
      "t": 216315.87600000045,
      "d": 348.13610416665324,
      "v": 88
    },
    {
      "midi": 65,
      "hit": false,
      "t": 216315.87600000045,
      "d": 364.58347916664206,
      "v": 91
    },
    {
      "midi": 68,
      "hit": false,
      "t": 216315.87600000045,
      "d": 408.44314583329833,
      "v": 80
    },
    {
      "midi": 56,
      "hit": false,
      "t": 216315.87600000045,
      "d": 973.136354166636,
      "v": 78
    },
    {
      "midi": 63,
      "hit": false,
      "t": 216315.87600000045,
      "d": 348.13610416665324,
      "v": 88
    },
    {
      "midi": 65,
      "hit": false,
      "t": 216315.87600000045,
      "d": 364.58347916664206,
      "v": 91
    },
    {
      "midi": 68,
      "hit": false,
      "t": 216315.87600000045,
      "d": 408.44314583329833,
      "v": 80
    },
    {
      "midi": 56,
      "hit": false,
      "t": 216315.87600000045,
      "d": 973.136354166636,
      "v": 78
    },
    {
      "midi": 70,
      "hit": false,
      "t": 216842.19200000042,
      "d": 238.48693750001257,
      "v": 91
    },
    {
      "midi": 63,
      "hit": false,
      "t": 216842.19200000042,
      "d": 252.1930833333463,
      "v": 91
    },
    {
      "midi": 65,
      "hit": false,
      "t": 216842.19200000042,
      "d": 282.34660416666884,
      "v": 80
    },
    {
      "midi": 70,
      "hit": false,
      "t": 216842.19200000042,
      "d": 238.48693750001257,
      "v": 91
    },
    {
      "midi": 63,
      "hit": false,
      "t": 216842.19200000042,
      "d": 252.1930833333463,
      "v": 91
    },
    {
      "midi": 65,
      "hit": false,
      "t": 216842.19200000042,
      "d": 282.34660416666884,
      "v": 80
    },
    {
      "midi": 61,
      "hit": false,
      "t": 217368.50800000044,
      "d": 197.3685000000114,
      "v": 91
    },
    {
      "midi": 65,
      "hit": false,
      "t": 217368.50800000044,
      "d": 208.33341666669003,
      "v": 104
    },
    {
      "midi": 68,
      "hit": false,
      "t": 217368.50800000044,
      "d": 224.78079166667885,
      "v": 95
    },
    {
      "midi": 61,
      "hit": false,
      "t": 217368.50800000044,
      "d": 197.3685000000114,
      "v": 91
    },
    {
      "midi": 65,
      "hit": false,
      "t": 217368.50800000044,
      "d": 208.33341666669003,
      "v": 104
    },
    {
      "midi": 68,
      "hit": false,
      "t": 217368.50800000044,
      "d": 224.78079166667885,
      "v": 95
    },
    {
      "midi": 61,
      "hit": false,
      "t": 217894.82400000043,
      "d": 405.7019166666432,
      "v": 91
    },
    {
      "midi": 66,
      "hit": false,
      "t": 217894.82400000043,
      "d": 646.9300833332818,
      "v": 95
    },
    {
      "midi": 70,
      "hit": false,
      "t": 217894.82400000043,
      "d": 778.5090833332797,
      "v": 95
    },
    {
      "midi": 73,
      "hit": false,
      "t": 217894.82400000043,
      "d": 937.500374999945,
      "v": 88
    },
    {
      "midi": 42,
      "hit": false,
      "t": 217894.82400000043,
      "d": 1288.3777083332825,
      "v": 74
    },
    {
      "midi": 49,
      "hit": false,
      "t": 217894.82400000043,
      "d": 1299.3426249999611,
      "v": 80
    },
    {
      "midi": 54,
      "hit": false,
      "t": 217894.82400000043,
      "d": 1307.5663124999555,
      "v": 82
    },
    {
      "midi": 61,
      "hit": false,
      "t": 217894.82400000043,
      "d": 405.7019166666432,
      "v": 91
    },
    {
      "midi": 66,
      "hit": false,
      "t": 217894.82400000043,
      "d": 646.9300833332818,
      "v": 95
    },
    {
      "midi": 70,
      "hit": false,
      "t": 217894.82400000043,
      "d": 778.5090833332797,
      "v": 95
    },
    {
      "midi": 73,
      "hit": false,
      "t": 217894.82400000043,
      "d": 937.500374999945,
      "v": 88
    },
    {
      "midi": 42,
      "hit": false,
      "t": 217894.82400000043,
      "d": 1288.3777083332825,
      "v": 74
    },
    {
      "midi": 49,
      "hit": false,
      "t": 217894.82400000043,
      "d": 1299.3426249999611,
      "v": 80
    },
    {
      "midi": 54,
      "hit": false,
      "t": 217894.82400000043,
      "d": 1307.5663124999555,
      "v": 82
    },
    {
      "midi": 61,
      "hit": false,
      "t": 218421.1400000004,
      "d": 361.84224999998696,
      "v": 55
    },
    {
      "midi": 61,
      "hit": false,
      "t": 218421.1400000004,
      "d": 361.84224999998696,
      "v": 55
    },
    {
      "midi": 61,
      "hit": false,
      "t": 218947.45600000038,
      "d": 74.01318750000792,
      "v": 57
    },
    {
      "midi": 66,
      "hit": false,
      "t": 218947.45600000038,
      "d": 104.16670833333046,
      "v": 71
    },
    {
      "midi": 70,
      "hit": false,
      "t": 218947.45600000038,
      "d": 112.39039583332487,
      "v": 64
    },
    {
      "midi": 61,
      "hit": false,
      "t": 218947.45600000038,
      "d": 74.01318750000792,
      "v": 57
    },
    {
      "midi": 66,
      "hit": false,
      "t": 218947.45600000038,
      "d": 104.16670833333046,
      "v": 71
    },
    {
      "midi": 70,
      "hit": false,
      "t": 218947.45600000038,
      "d": 112.39039583332487,
      "v": 64
    },
    {
      "midi": 61,
      "hit": false,
      "t": 219473.77200000038,
      "d": 400.219458333333,
      "v": 91
    },
    {
      "midi": 66,
      "hit": false,
      "t": 219473.77200000038,
      "d": 660.6362291666446,
      "v": 95
    },
    {
      "midi": 71,
      "hit": false,
      "t": 219473.77200000038,
      "d": 751.0967916666414,
      "v": 98
    },
    {
      "midi": 42,
      "hit": false,
      "t": 219473.77200000038,
      "d": 1112.9390416666283,
      "v": 80
    },
    {
      "midi": 54,
      "hit": false,
      "t": 219473.77200000038,
      "d": 1134.8688749999565,
      "v": 68
    },
    {
      "midi": 51,
      "hit": false,
      "t": 219473.77200000038,
      "d": 1137.6101041666116,
      "v": 78
    },
    {
      "midi": 61,
      "hit": false,
      "t": 219473.77200000038,
      "d": 400.219458333333,
      "v": 91
    },
    {
      "midi": 66,
      "hit": false,
      "t": 219473.77200000038,
      "d": 660.6362291666446,
      "v": 95
    },
    {
      "midi": 71,
      "hit": false,
      "t": 219473.77200000038,
      "d": 751.0967916666414,
      "v": 98
    },
    {
      "midi": 42,
      "hit": false,
      "t": 219473.77200000038,
      "d": 1112.9390416666283,
      "v": 80
    },
    {
      "midi": 54,
      "hit": false,
      "t": 219473.77200000038,
      "d": 1134.8688749999565,
      "v": 68
    },
    {
      "midi": 51,
      "hit": false,
      "t": 219473.77200000038,
      "d": 1137.6101041666116,
      "v": 78
    },
    {
      "midi": 61,
      "hit": false,
      "t": 220000.08800000037,
      "d": 241.22816666663857,
      "v": 63
    },
    {
      "midi": 61,
      "hit": false,
      "t": 220000.08800000037,
      "d": 241.22816666663857,
      "v": 63
    },
    {
      "midi": 66,
      "hit": false,
      "t": 220526.40400000033,
      "d": 194.6272708333272,
      "v": 57
    },
    {
      "midi": 61,
      "hit": false,
      "t": 220526.40400000033,
      "d": 197.3684999999823,
      "v": 46
    },
    {
      "midi": 71,
      "hit": false,
      "t": 220526.40400000033,
      "d": 205.59218749997672,
      "v": 52
    },
    {
      "midi": 66,
      "hit": false,
      "t": 220526.40400000033,
      "d": 194.6272708333272,
      "v": 57
    },
    {
      "midi": 61,
      "hit": false,
      "t": 220526.40400000033,
      "d": 197.3684999999823,
      "v": 46
    },
    {
      "midi": 71,
      "hit": false,
      "t": 220526.40400000033,
      "d": 205.59218749997672,
      "v": 52
    },
    {
      "midi": 61,
      "hit": false,
      "t": 221052.7200000003,
      "d": 252.1930833333463,
      "v": 71
    },
    {
      "midi": 66,
      "hit": false,
      "t": 221052.7200000003,
      "d": 301.53520833334187,
      "v": 73
    },
    {
      "midi": 70,
      "hit": false,
      "t": 221052.7200000003,
      "d": 312.5001250000205,
      "v": 71
    },
    {
      "midi": 58,
      "hit": false,
      "t": 221052.7200000003,
      "d": 2357.457083333371,
      "v": 57
    },
    {
      "midi": 49,
      "hit": false,
      "t": 221052.7200000003,
      "d": 2458.8825625000463,
      "v": 68
    },
    {
      "midi": 42,
      "hit": false,
      "t": 221052.7200000003,
      "d": 2508.224687500042,
      "v": 68
    },
    {
      "midi": 61,
      "hit": false,
      "t": 221052.7200000003,
      "d": 252.1930833333463,
      "v": 71
    },
    {
      "midi": 66,
      "hit": false,
      "t": 221052.7200000003,
      "d": 301.53520833334187,
      "v": 73
    },
    {
      "midi": 70,
      "hit": false,
      "t": 221052.7200000003,
      "d": 312.5001250000205,
      "v": 71
    },
    {
      "midi": 58,
      "hit": false,
      "t": 221052.7200000003,
      "d": 2357.457083333371,
      "v": 57
    },
    {
      "midi": 49,
      "hit": false,
      "t": 221052.7200000003,
      "d": 2458.8825625000463,
      "v": 68
    },
    {
      "midi": 42,
      "hit": false,
      "t": 221052.7200000003,
      "d": 2508.224687500042,
      "v": 68
    },
    {
      "midi": 68,
      "hit": false,
      "t": 222105.3520000003,
      "d": 304.276437499997,
      "v": 104
    },
    {
      "midi": 78,
      "hit": false,
      "t": 222105.3520000003,
      "d": 339.9124166666588,
      "v": 88
    },
    {
      "midi": 68,
      "hit": false,
      "t": 222105.3520000003,
      "d": 304.276437499997,
      "v": 104
    },
    {
      "midi": 78,
      "hit": false,
      "t": 222105.3520000003,
      "d": 339.9124166666588,
      "v": 88
    },
    {
      "midi": 70,
      "hit": false,
      "t": 222456.22933333364,
      "d": 68.5307291666686,
      "v": 88
    },
    {
      "midi": 70,
      "hit": false,
      "t": 222456.22933333364,
      "d": 68.5307291666686,
      "v": 88
    },
    {
      "midi": 75,
      "hit": false,
      "t": 222631.66800000033,
      "d": 427.63175000000047,
      "v": 95
    },
    {
      "midi": 78,
      "hit": false,
      "t": 222631.66800000033,
      "d": 1049.8907708333281,
      "v": 104
    },
    {
      "midi": 75,
      "hit": false,
      "t": 222631.66800000033,
      "d": 427.63175000000047,
      "v": 95
    },
    {
      "midi": 78,
      "hit": false,
      "t": 222631.66800000033,
      "d": 1049.8907708333281,
      "v": 104
    },
    {
      "midi": 73,
      "hit": false,
      "t": 222982.54533333366,
      "d": 726.4257291666581,
      "v": 80
    },
    {
      "midi": 73,
      "hit": false,
      "t": 222982.54533333366,
      "d": 726.4257291666581,
      "v": 80
    },
    {
      "midi": 68,
      "hit": false,
      "t": 223157.98400000032,
      "d": 523.5747708333365,
      "v": 95
    },
    {
      "midi": 68,
      "hit": false,
      "t": 223157.98400000032,
      "d": 523.5747708333365,
      "v": 95
    },
    {
      "midi": 70,
      "hit": false,
      "t": 223684.3000000003,
      "d": 93.20179166668095,
      "v": 82
    },
    {
      "midi": 70,
      "hit": false,
      "t": 223684.3000000003,
      "d": 93.20179166668095,
      "v": 82
    },
    {
      "midi": 65,
      "hit": false,
      "t": 224210.6160000003,
      "d": 433.1142083333398,
      "v": 67
    },
    {
      "midi": 77,
      "hit": false,
      "t": 224210.6160000003,
      "d": 589.36427083335,
      "v": 73
    },
    {
      "midi": 68,
      "hit": false,
      "t": 224210.6160000003,
      "d": 652.4125416666793,
      "v": 71
    },
    {
      "midi": 73,
      "hit": false,
      "t": 224210.6160000003,
      "d": 663.3774583333579,
      "v": 67
    },
    {
      "midi": 49,
      "hit": false,
      "t": 224210.6160000003,
      "d": 1006.031104166701,
      "v": 74
    },
    {
      "midi": 37,
      "hit": false,
      "t": 224210.6160000003,
      "d": 1099.232895833382,
      "v": 67
    },
    {
      "midi": 65,
      "hit": false,
      "t": 224210.6160000003,
      "d": 433.1142083333398,
      "v": 67
    },
    {
      "midi": 77,
      "hit": false,
      "t": 224210.6160000003,
      "d": 589.36427083335,
      "v": 73
    },
    {
      "midi": 68,
      "hit": false,
      "t": 224210.6160000003,
      "d": 652.4125416666793,
      "v": 71
    },
    {
      "midi": 73,
      "hit": false,
      "t": 224210.6160000003,
      "d": 663.3774583333579,
      "v": 67
    },
    {
      "midi": 49,
      "hit": false,
      "t": 224210.6160000003,
      "d": 1006.031104166701,
      "v": 74
    },
    {
      "midi": 37,
      "hit": false,
      "t": 224210.6160000003,
      "d": 1099.232895833382,
      "v": 67
    },
    {
      "midi": 65,
      "hit": false,
      "t": 224736.93200000032,
      "d": 323.46504166667,
      "v": 56
    },
    {
      "midi": 65,
      "hit": false,
      "t": 224736.93200000032,
      "d": 323.46504166667,
      "v": 56
    },
    {
      "midi": 65,
      "hit": false,
      "t": 225263.24800000034,
      "d": 115.13162500000908,
      "v": 50
    },
    {
      "midi": 68,
      "hit": false,
      "t": 225263.24800000034,
      "d": 145.28514583333163,
      "v": 59
    },
    {
      "midi": 73,
      "hit": false,
      "t": 225263.24800000034,
      "d": 156.25006250001024,
      "v": 53
    },
    {
      "midi": 65,
      "hit": false,
      "t": 225263.24800000034,
      "d": 115.13162500000908,
      "v": 50
    },
    {
      "midi": 68,
      "hit": false,
      "t": 225263.24800000034,
      "d": 145.28514583333163,
      "v": 59
    },
    {
      "midi": 73,
      "hit": false,
      "t": 225263.24800000034,
      "d": 156.25006250001024,
      "v": 53
    },
    {
      "midi": 70,
      "hit": false,
      "t": 225789.56400000036,
      "d": 460.5264999999781,
      "v": 82
    },
    {
      "midi": 68,
      "hit": false,
      "t": 225789.56400000036,
      "d": 466.0089583333174,
      "v": 80
    },
    {
      "midi": 73,
      "hit": false,
      "t": 225789.56400000036,
      "d": 808.6626041666605,
      "v": 78
    },
    {
      "midi": 34,
      "hit": false,
      "t": 225789.56400000036,
      "d": 1071.8206041666563,
      "v": 68
    },
    {
      "midi": 46,
      "hit": false,
      "t": 225789.56400000036,
      "d": 1080.0442916666507,
      "v": 71
    },
    {
      "midi": 70,
      "hit": false,
      "t": 225789.56400000036,
      "d": 460.5264999999781,
      "v": 82
    },
    {
      "midi": 68,
      "hit": false,
      "t": 225789.56400000036,
      "d": 466.0089583333174,
      "v": 80
    },
    {
      "midi": 73,
      "hit": false,
      "t": 225789.56400000036,
      "d": 808.6626041666605,
      "v": 78
    },
    {
      "midi": 34,
      "hit": false,
      "t": 225789.56400000036,
      "d": 1071.8206041666563,
      "v": 68
    },
    {
      "midi": 46,
      "hit": false,
      "t": 225789.56400000036,
      "d": 1080.0442916666507,
      "v": 71
    },
    {
      "midi": 61,
      "hit": false,
      "t": 226315.88000000035,
      "d": 276.86414583332953,
      "v": 29
    },
    {
      "midi": 61,
      "hit": false,
      "t": 226315.88000000035,
      "d": 276.86414583332953,
      "v": 29
    },
    {
      "midi": 66,
      "hit": false,
      "t": 226842.19600000035,
      "d": 257.6755416666565,
      "v": 68
    },
    {
      "midi": 61,
      "hit": false,
      "t": 226842.19600000035,
      "d": 263.1579999999958,
      "v": 62
    },
    {
      "midi": 70,
      "hit": false,
      "t": 226842.19600000035,
      "d": 452.3028124999837,
      "v": 73
    },
    {
      "midi": 66,
      "hit": false,
      "t": 226842.19600000035,
      "d": 257.6755416666565,
      "v": 68
    },
    {
      "midi": 61,
      "hit": false,
      "t": 226842.19600000035,
      "d": 263.1579999999958,
      "v": 62
    },
    {
      "midi": 70,
      "hit": false,
      "t": 226842.19600000035,
      "d": 452.3028124999837,
      "v": 73
    },
    {
      "midi": 60,
      "hit": false,
      "t": 227368.51200000034,
      "d": 359.10102083333186,
      "v": 64
    },
    {
      "midi": 63,
      "hit": false,
      "t": 227368.51200000034,
      "d": 589.3642708333209,
      "v": 61
    },
    {
      "midi": 68,
      "hit": false,
      "t": 227368.51200000034,
      "d": 718.2020416666637,
      "v": 63
    },
    {
      "midi": 44,
      "hit": false,
      "t": 227368.51200000034,
      "d": 1140.351333333354,
      "v": 55
    },
    {
      "midi": 32,
      "hit": false,
      "t": 227368.51200000034,
      "d": 1165.0223958333663,
      "v": 61
    },
    {
      "midi": 60,
      "hit": false,
      "t": 227368.51200000034,
      "d": 359.10102083333186,
      "v": 64
    },
    {
      "midi": 63,
      "hit": false,
      "t": 227368.51200000034,
      "d": 589.3642708333209,
      "v": 61
    },
    {
      "midi": 68,
      "hit": false,
      "t": 227368.51200000034,
      "d": 718.2020416666637,
      "v": 63
    },
    {
      "midi": 44,
      "hit": false,
      "t": 227368.51200000034,
      "d": 1140.351333333354,
      "v": 55
    },
    {
      "midi": 32,
      "hit": false,
      "t": 227368.51200000034,
      "d": 1165.0223958333663,
      "v": 61
    },
    {
      "midi": 60,
      "hit": false,
      "t": 227894.82800000033,
      "d": 126.0965416666586,
      "v": 60
    },
    {
      "midi": 60,
      "hit": false,
      "t": 227894.82800000033,
      "d": 126.0965416666586,
      "v": 60
    },
    {
      "midi": 68,
      "hit": false,
      "t": 228421.14400000032,
      "d": 52.08335416667978,
      "v": 66
    },
    {
      "midi": 63,
      "hit": false,
      "t": 228421.14400000032,
      "d": 63.0482708333584,
      "v": 63
    },
    {
      "midi": 68,
      "hit": false,
      "t": 228421.14400000032,
      "d": 52.08335416667978,
      "v": 66
    },
    {
      "midi": 63,
      "hit": false,
      "t": 228421.14400000032,
      "d": 63.0482708333584,
      "v": 63
    },
    {
      "midi": 56,
      "hit": false,
      "t": 228947.46000000037,
      "d": 367.32470833332627,
      "v": 95
    },
    {
      "midi": 65,
      "hit": false,
      "t": 228947.46000000037,
      "d": 561.9519791666535,
      "v": 82
    },
    {
      "midi": 61,
      "hit": false,
      "t": 228947.46000000037,
      "d": 603.0704166666546,
      "v": 82
    },
    {
      "midi": 32,
      "hit": false,
      "t": 228947.46000000037,
      "d": 1285.6364791666565,
      "v": 74
    },
    {
      "midi": 44,
      "hit": false,
      "t": 228947.46000000037,
      "d": 1313.048770833324,
      "v": 78
    },
    {
      "midi": 56,
      "hit": false,
      "t": 228947.46000000037,
      "d": 367.32470833332627,
      "v": 95
    },
    {
      "midi": 65,
      "hit": false,
      "t": 228947.46000000037,
      "d": 561.9519791666535,
      "v": 82
    },
    {
      "midi": 61,
      "hit": false,
      "t": 228947.46000000037,
      "d": 603.0704166666546,
      "v": 82
    },
    {
      "midi": 32,
      "hit": false,
      "t": 228947.46000000037,
      "d": 1285.6364791666565,
      "v": 74
    },
    {
      "midi": 44,
      "hit": false,
      "t": 228947.46000000037,
      "d": 1313.048770833324,
      "v": 78
    },
    {
      "midi": 54,
      "hit": false,
      "t": 229473.77600000036,
      "d": 400.219458333333,
      "v": 82
    },
    {
      "midi": 63,
      "hit": false,
      "t": 229473.77600000036,
      "d": 581.1405833333265,
      "v": 80
    },
    {
      "midi": 54,
      "hit": false,
      "t": 229473.77600000036,
      "d": 400.219458333333,
      "v": 82
    },
    {
      "midi": 63,
      "hit": false,
      "t": 229473.77600000036,
      "d": 581.1405833333265,
      "v": 80
    },
    {
      "midi": 56,
      "hit": false,
      "t": 230000.09200000035,
      "d": 307.0176666666812,
      "v": 82
    },
    {
      "midi": 61,
      "hit": false,
      "t": 230000.09200000035,
      "d": 320.7238125000149,
      "v": 71
    },
    {
      "midi": 56,
      "hit": false,
      "t": 230000.09200000035,
      "d": 307.0176666666812,
      "v": 82
    },
    {
      "midi": 61,
      "hit": false,
      "t": 230000.09200000035,
      "d": 320.7238125000149,
      "v": 71
    },
    {
      "midi": 53,
      "hit": false,
      "t": 230526.40800000037,
      "d": 394.7369999999937,
      "v": 85
    },
    {
      "midi": 56,
      "hit": false,
      "t": 230526.40800000037,
      "d": 592.1055000000051,
      "v": 74
    },
    {
      "midi": 61,
      "hit": false,
      "t": 230526.40800000037,
      "d": 866.2284166666795,
      "v": 68
    },
    {
      "midi": 49,
      "hit": false,
      "t": 230526.40800000037,
      "d": 1219.846979166672,
      "v": 63
    },
    {
      "midi": 37,
      "hit": false,
      "t": 230526.40800000037,
      "d": 2371.1632291666756,
      "v": 66
    },
    {
      "midi": 53,
      "hit": false,
      "t": 230526.40800000037,
      "d": 394.7369999999937,
      "v": 85
    },
    {
      "midi": 56,
      "hit": false,
      "t": 230526.40800000037,
      "d": 592.1055000000051,
      "v": 74
    },
    {
      "midi": 61,
      "hit": false,
      "t": 230526.40800000037,
      "d": 866.2284166666795,
      "v": 68
    },
    {
      "midi": 49,
      "hit": false,
      "t": 230526.40800000037,
      "d": 1219.846979166672,
      "v": 63
    },
    {
      "midi": 37,
      "hit": false,
      "t": 230526.40800000037,
      "d": 2371.1632291666756,
      "v": 66
    },
    {
      "midi": 53,
      "hit": false,
      "t": 231052.72400000037,
      "d": 276.86414583335863,
      "v": 63
    },
    {
      "midi": 53,
      "hit": false,
      "t": 231052.72400000037,
      "d": 276.86414583335863,
      "v": 63
    },
    {
      "midi": 56,
      "hit": false,
      "t": 231579.0400000004,
      "d": 112.39039583332487,
      "v": 58
    },
    {
      "midi": 61,
      "hit": false,
      "t": 231579.0400000004,
      "d": 142.54391666664742,
      "v": 1
    },
    {
      "midi": 56,
      "hit": false,
      "t": 231579.0400000004,
      "d": 112.39039583332487,
      "v": 58
    },
    {
      "midi": 61,
      "hit": false,
      "t": 231579.0400000004,
      "d": 142.54391666664742,
      "v": 1
    },
    {
      "midi": 56,
      "hit": false,
      "t": 232105.35600000038,
      "d": 353.61856249999255,
      "v": 88
    },
    {
      "midi": 65,
      "hit": false,
      "t": 232105.35600000038,
      "d": 389.2545416666544,
      "v": 88
    },
    {
      "midi": 61,
      "hit": false,
      "t": 232105.35600000038,
      "d": 408.44314583332743,
      "v": 88
    },
    {
      "midi": 49,
      "hit": false,
      "t": 232105.35600000038,
      "d": 699.0134374999907,
      "v": 74
    },
    {
      "midi": 56,
      "hit": false,
      "t": 232105.35600000038,
      "d": 353.61856249999255,
      "v": 88
    },
    {
      "midi": 65,
      "hit": false,
      "t": 232105.35600000038,
      "d": 389.2545416666544,
      "v": 88
    },
    {
      "midi": 61,
      "hit": false,
      "t": 232105.35600000038,
      "d": 408.44314583332743,
      "v": 88
    },
    {
      "midi": 49,
      "hit": false,
      "t": 232105.35600000038,
      "d": 699.0134374999907,
      "v": 74
    },
    {
      "midi": 56,
      "hit": false,
      "t": 232631.67200000037,
      "d": 383.7720833333442,
      "v": 104
    },
    {
      "midi": 63,
      "hit": false,
      "t": 232631.67200000037,
      "d": 391.9957708333386,
      "v": 91
    },
    {
      "midi": 56,
      "hit": false,
      "t": 232631.67200000037,
      "d": 383.7720833333442,
      "v": 104
    },
    {
      "midi": 63,
      "hit": false,
      "t": 232631.67200000037,
      "d": 391.9957708333386,
      "v": 91
    },
    {
      "midi": 44,
      "hit": false,
      "t": 232982.5493333337,
      "d": 65.7895000000135,
      "v": 80
    },
    {
      "midi": 44,
      "hit": false,
      "t": 232982.5493333337,
      "d": 65.7895000000135,
      "v": 80
    },
    {
      "midi": 53,
      "hit": false,
      "t": 233157.9880000004,
      "d": 49.342124999995576,
      "v": 98
    },
    {
      "midi": 56,
      "hit": false,
      "t": 233157.9880000004,
      "d": 63.0482708333293,
      "v": 104
    },
    {
      "midi": 61,
      "hit": false,
      "t": 233157.9880000004,
      "d": 71.27195833332371,
      "v": 82
    },
    {
      "midi": 53,
      "hit": false,
      "t": 233157.9880000004,
      "d": 49.342124999995576,
      "v": 98
    },
    {
      "midi": 56,
      "hit": false,
      "t": 233157.9880000004,
      "d": 63.0482708333293,
      "v": 104
    },
    {
      "midi": 61,
      "hit": false,
      "t": 233157.9880000004,
      "d": 71.27195833332371,
      "v": 82
    },
    {
      "midi": 44,
      "hit": false,
      "t": 233508.86533333373,
      "d": 219.29833333331044,
      "v": 73
    },
    {
      "midi": 44,
      "hit": false,
      "t": 233508.86533333373,
      "d": 219.29833333331044,
      "v": 73
    },
    {
      "midi": 56,
      "hit": false,
      "t": 233684.30400000038,
      "d": 383.7720833333442,
      "v": 91
    },
    {
      "midi": 61,
      "hit": false,
      "t": 233684.30400000038,
      "d": 657.8950000000186,
      "v": 88
    },
    {
      "midi": 65,
      "hit": false,
      "t": 233684.30400000038,
      "d": 1145.8337916666642,
      "v": 88
    },
    {
      "midi": 49,
      "hit": false,
      "t": 233684.30400000038,
      "d": 1228.0706666666665,
      "v": 104
    },
    {
      "midi": 37,
      "hit": false,
      "t": 233684.30400000038,
      "d": 1266.4478750000126,
      "v": 95
    },
    {
      "midi": 56,
      "hit": false,
      "t": 233684.30400000038,
      "d": 383.7720833333442,
      "v": 91
    },
    {
      "midi": 61,
      "hit": false,
      "t": 233684.30400000038,
      "d": 657.8950000000186,
      "v": 88
    },
    {
      "midi": 65,
      "hit": false,
      "t": 233684.30400000038,
      "d": 1145.8337916666642,
      "v": 88
    },
    {
      "midi": 49,
      "hit": false,
      "t": 233684.30400000038,
      "d": 1228.0706666666665,
      "v": 104
    },
    {
      "midi": 37,
      "hit": false,
      "t": 233684.30400000038,
      "d": 1266.4478750000126,
      "v": 95
    },
    {
      "midi": 56,
      "hit": false,
      "t": 234210.6200000004,
      "d": 367.32470833332627,
      "v": 82
    },
    {
      "midi": 56,
      "hit": false,
      "t": 234210.6200000004,
      "d": 367.32470833332627,
      "v": 82
    },
    {
      "midi": 56,
      "hit": false,
      "t": 234736.9360000004,
      "d": 49.342124999995576,
      "v": 88
    },
    {
      "midi": 61,
      "hit": false,
      "t": 234736.9360000004,
      "d": 63.0482708333293,
      "v": 82
    },
    {
      "midi": 56,
      "hit": false,
      "t": 234736.9360000004,
      "d": 49.342124999995576,
      "v": 88
    },
    {
      "midi": 61,
      "hit": false,
      "t": 234736.9360000004,
      "d": 63.0482708333293,
      "v": 82
    },
    {
      "midi": 44,
      "hit": false,
      "t": 235087.81333333373,
      "d": 205.59218749997672,
      "v": 67
    },
    {
      "midi": 44,
      "hit": false,
      "t": 235087.81333333373,
      "d": 205.59218749997672,
      "v": 67
    },
    {
      "midi": 61,
      "hit": false,
      "t": 235263.2520000004,
      "d": 312.5001249999914,
      "v": 109
    },
    {
      "midi": 65,
      "hit": false,
      "t": 235263.2520000004,
      "d": 334.4299583333195,
      "v": 104
    },
    {
      "midi": 73,
      "hit": false,
      "t": 235263.2520000004,
      "d": 381.03085416666,
      "v": 95
    },
    {
      "midi": 37,
      "hit": false,
      "t": 235263.2520000004,
      "d": 1099.2328958333237,
      "v": 104
    },
    {
      "midi": 49,
      "hit": false,
      "t": 235263.2520000004,
      "d": 1159.539937499998,
      "v": 104
    },
    {
      "midi": 61,
      "hit": false,
      "t": 235263.2520000004,
      "d": 312.5001249999914,
      "v": 109
    },
    {
      "midi": 65,
      "hit": false,
      "t": 235263.2520000004,
      "d": 334.4299583333195,
      "v": 104
    },
    {
      "midi": 73,
      "hit": false,
      "t": 235263.2520000004,
      "d": 381.03085416666,
      "v": 95
    },
    {
      "midi": 37,
      "hit": false,
      "t": 235263.2520000004,
      "d": 1099.2328958333237,
      "v": 104
    },
    {
      "midi": 49,
      "hit": false,
      "t": 235263.2520000004,
      "d": 1159.539937499998,
      "v": 104
    },
    {
      "midi": 63,
      "hit": false,
      "t": 235789.56800000038,
      "d": 211.07464583334513,
      "v": 104
    },
    {
      "midi": 73,
      "hit": false,
      "t": 235789.56800000038,
      "d": 254.9343125000014,
      "v": 88
    },
    {
      "midi": 66,
      "hit": false,
      "t": 235789.56800000038,
      "d": 271.3816874999902,
      "v": 104
    },
    {
      "midi": 63,
      "hit": false,
      "t": 235789.56800000038,
      "d": 211.07464583334513,
      "v": 104
    },
    {
      "midi": 73,
      "hit": false,
      "t": 235789.56800000038,
      "d": 254.9343125000014,
      "v": 88
    },
    {
      "midi": 66,
      "hit": false,
      "t": 235789.56800000038,
      "d": 271.3816874999902,
      "v": 104
    },
    {
      "midi": 65,
      "hit": false,
      "t": 236315.88400000037,
      "d": 180.92112500002258,
      "v": 104
    },
    {
      "midi": 73,
      "hit": false,
      "t": 236315.88400000037,
      "d": 230.26325000001816,
      "v": 95
    },
    {
      "midi": 68,
      "hit": false,
      "t": 236315.88400000037,
      "d": 246.71062500000698,
      "v": 95
    },
    {
      "midi": 65,
      "hit": false,
      "t": 236315.88400000037,
      "d": 180.92112500002258,
      "v": 104
    },
    {
      "midi": 73,
      "hit": false,
      "t": 236315.88400000037,
      "d": 230.26325000001816,
      "v": 95
    },
    {
      "midi": 68,
      "hit": false,
      "t": 236315.88400000037,
      "d": 246.71062500000698,
      "v": 95
    },
    {
      "midi": 61,
      "hit": false,
      "t": 236842.2000000004,
      "d": 389.2545416666544,
      "v": 109
    },
    {
      "midi": 66,
      "hit": false,
      "t": 236842.2000000004,
      "d": 600.3291874999995,
      "v": 95
    },
    {
      "midi": 70,
      "hit": false,
      "t": 236842.2000000004,
      "d": 789.4739999999874,
      "v": 95
    },
    {
      "midi": 73,
      "hit": false,
      "t": 236842.2000000004,
      "d": 951.2065208333079,
      "v": 91
    },
    {
      "midi": 49,
      "hit": false,
      "t": 236842.2000000004,
      "d": 1230.8118958333216,
      "v": 82
    },
    {
      "midi": 42,
      "hit": false,
      "t": 236842.2000000004,
      "d": 1244.5180416666553,
      "v": 80
    },
    {
      "midi": 54,
      "hit": false,
      "t": 236842.2000000004,
      "d": 1250.0004999999946,
      "v": 95
    },
    {
      "midi": 61,
      "hit": false,
      "t": 236842.2000000004,
      "d": 389.2545416666544,
      "v": 109
    },
    {
      "midi": 66,
      "hit": false,
      "t": 236842.2000000004,
      "d": 600.3291874999995,
      "v": 95
    },
    {
      "midi": 70,
      "hit": false,
      "t": 236842.2000000004,
      "d": 789.4739999999874,
      "v": 95
    },
    {
      "midi": 73,
      "hit": false,
      "t": 236842.2000000004,
      "d": 951.2065208333079,
      "v": 91
    },
    {
      "midi": 49,
      "hit": false,
      "t": 236842.2000000004,
      "d": 1230.8118958333216,
      "v": 82
    },
    {
      "midi": 42,
      "hit": false,
      "t": 236842.2000000004,
      "d": 1244.5180416666553,
      "v": 80
    },
    {
      "midi": 54,
      "hit": false,
      "t": 236842.2000000004,
      "d": 1250.0004999999946,
      "v": 95
    },
    {
      "midi": 61,
      "hit": false,
      "t": 237368.51600000038,
      "d": 394.7369999999937,
      "v": 67
    },
    {
      "midi": 61,
      "hit": false,
      "t": 237368.51600000038,
      "d": 394.7369999999937,
      "v": 67
    },
    {
      "midi": 61,
      "hit": false,
      "t": 237894.83200000037,
      "d": 49.342124999995576,
      "v": 73
    },
    {
      "midi": 66,
      "hit": false,
      "t": 237894.83200000037,
      "d": 87.71933333334164,
      "v": 88
    },
    {
      "midi": 70,
      "hit": false,
      "t": 237894.83200000037,
      "d": 106.90793750001467,
      "v": 80
    },
    {
      "midi": 61,
      "hit": false,
      "t": 237894.83200000037,
      "d": 49.342124999995576,
      "v": 73
    },
    {
      "midi": 66,
      "hit": false,
      "t": 237894.83200000037,
      "d": 87.71933333334164,
      "v": 88
    },
    {
      "midi": 70,
      "hit": false,
      "t": 237894.83200000037,
      "d": 106.90793750001467,
      "v": 80
    },
    {
      "midi": 61,
      "hit": false,
      "t": 238421.1480000004,
      "d": 394.7370000000228,
      "v": 95
    },
    {
      "midi": 66,
      "hit": false,
      "t": 238421.1480000004,
      "d": 641.4476250000298,
      "v": 95
    },
    {
      "midi": 71,
      "hit": false,
      "t": 238421.1480000004,
      "d": 756.5792500000389,
      "v": 98
    },
    {
      "midi": 42,
      "hit": false,
      "t": 238421.1480000004,
      "d": 1082.785520833364,
      "v": 88
    },
    {
      "midi": 54,
      "hit": false,
      "t": 238421.1480000004,
      "d": 1093.7504375000426,
      "v": 82
    },
    {
      "midi": 51,
      "hit": false,
      "t": 238421.1480000004,
      "d": 1115.6802708333707,
      "v": 82
    },
    {
      "midi": 61,
      "hit": false,
      "t": 238421.1480000004,
      "d": 394.7370000000228,
      "v": 95
    },
    {
      "midi": 66,
      "hit": false,
      "t": 238421.1480000004,
      "d": 641.4476250000298,
      "v": 95
    },
    {
      "midi": 71,
      "hit": false,
      "t": 238421.1480000004,
      "d": 756.5792500000389,
      "v": 98
    },
    {
      "midi": 42,
      "hit": false,
      "t": 238421.1480000004,
      "d": 1082.785520833364,
      "v": 88
    },
    {
      "midi": 54,
      "hit": false,
      "t": 238421.1480000004,
      "d": 1093.7504375000426,
      "v": 82
    },
    {
      "midi": 51,
      "hit": false,
      "t": 238421.1480000004,
      "d": 1115.6802708333707,
      "v": 82
    },
    {
      "midi": 61,
      "hit": false,
      "t": 238947.46400000041,
      "d": 197.3685000000114,
      "v": 68
    },
    {
      "midi": 61,
      "hit": false,
      "t": 238947.46400000041,
      "d": 197.3685000000114,
      "v": 68
    },
    {
      "midi": 66,
      "hit": false,
      "t": 239473.78000000044,
      "d": 117.87285416666418,
      "v": 73
    },
    {
      "midi": 61,
      "hit": false,
      "t": 239473.78000000044,
      "d": 123.35531250000349,
      "v": 74
    },
    {
      "midi": 71,
      "hit": false,
      "t": 239473.78000000044,
      "d": 148.02637500001583,
      "v": 74
    },
    {
      "midi": 66,
      "hit": false,
      "t": 239473.78000000044,
      "d": 117.87285416666418,
      "v": 73
    },
    {
      "midi": 61,
      "hit": false,
      "t": 239473.78000000044,
      "d": 123.35531250000349,
      "v": 74
    },
    {
      "midi": 71,
      "hit": false,
      "t": 239473.78000000044,
      "d": 148.02637500001583,
      "v": 74
    },
    {
      "midi": 61,
      "hit": false,
      "t": 240000.09600000046,
      "d": 307.0176666666812,
      "v": 66
    },
    {
      "midi": 66,
      "hit": false,
      "t": 240000.09600000046,
      "d": 367.3247083333554,
      "v": 73
    },
    {
      "midi": 70,
      "hit": false,
      "t": 240000.09600000046,
      "d": 372.8071666666947,
      "v": 67
    },
    {
      "midi": 58,
      "hit": false,
      "t": 240000.09600000046,
      "d": 433.1142083333689,
      "v": 71
    },
    {
      "midi": 49,
      "hit": false,
      "t": 240000.09600000046,
      "d": 2412.281666666735,
      "v": 61
    },
    {
      "midi": 42,
      "hit": false,
      "t": 240000.09600000046,
      "d": 2505.483458333416,
      "v": 64
    },
    {
      "midi": 61,
      "hit": false,
      "t": 240000.09600000046,
      "d": 307.0176666666812,
      "v": 66
    },
    {
      "midi": 66,
      "hit": false,
      "t": 240000.09600000046,
      "d": 367.3247083333554,
      "v": 73
    },
    {
      "midi": 70,
      "hit": false,
      "t": 240000.09600000046,
      "d": 372.8071666666947,
      "v": 67
    },
    {
      "midi": 58,
      "hit": false,
      "t": 240000.09600000046,
      "d": 433.1142083333689,
      "v": 71
    },
    {
      "midi": 49,
      "hit": false,
      "t": 240000.09600000046,
      "d": 2412.281666666735,
      "v": 61
    },
    {
      "midi": 42,
      "hit": false,
      "t": 240000.09600000046,
      "d": 2505.483458333416,
      "v": 64
    },
    {
      "midi": 58,
      "hit": false,
      "t": 240526.4120000005,
      "d": 1817.4349375000165,
      "v": 60
    },
    {
      "midi": 58,
      "hit": false,
      "t": 240526.4120000005,
      "d": 1817.4349375000165,
      "v": 60
    },
    {
      "midi": 68,
      "hit": false,
      "t": 241052.7280000005,
      "d": 323.46504166667,
      "v": 95
    },
    {
      "midi": 78,
      "hit": false,
      "t": 241052.7280000005,
      "d": 413.92560416666674,
      "v": 91
    },
    {
      "midi": 68,
      "hit": false,
      "t": 241052.7280000005,
      "d": 323.46504166667,
      "v": 95
    },
    {
      "midi": 78,
      "hit": false,
      "t": 241052.7280000005,
      "d": 413.92560416666674,
      "v": 91
    },
    {
      "midi": 70,
      "hit": false,
      "t": 241403.60533333384,
      "d": 84.97810416665743,
      "v": 67
    },
    {
      "midi": 70,
      "hit": false,
      "t": 241403.60533333384,
      "d": 84.97810416665743,
      "v": 67
    },
    {
      "midi": 73,
      "hit": false,
      "t": 241579.0440000005,
      "d": 466.0089583333465,
      "v": 73
    },
    {
      "midi": 78,
      "hit": false,
      "t": 241579.0440000005,
      "d": 951.2065208333952,
      "v": 67
    },
    {
      "midi": 73,
      "hit": false,
      "t": 241579.0440000005,
      "d": 466.0089583333465,
      "v": 73
    },
    {
      "midi": 78,
      "hit": false,
      "t": 241579.0440000005,
      "d": 951.2065208333952,
      "v": 67
    },
    {
      "midi": 75,
      "hit": false,
      "t": 242105.3600000005,
      "d": 386.5133125000284,
      "v": 67
    },
    {
      "midi": 75,
      "hit": false,
      "t": 242105.3600000005,
      "d": 386.5133125000284,
      "v": 67
    },
    {
      "midi": 70,
      "hit": false,
      "t": 242631.67600000056,
      "d": 101.42547916667536,
      "v": 78
    },
    {
      "midi": 70,
      "hit": false,
      "t": 242631.67600000056,
      "d": 101.42547916667536,
      "v": 78
    },
    {
      "midi": 65,
      "hit": false,
      "t": 243157.99200000058,
      "d": 424.89052083334536,
      "v": 68
    },
    {
      "midi": 68,
      "hit": false,
      "t": 243157.99200000058,
      "d": 622.2590208333568,
      "v": 71
    },
    {
      "midi": 73,
      "hit": false,
      "t": 243157.99200000058,
      "d": 690.7897500000254,
      "v": 61
    },
    {
      "midi": 49,
      "hit": false,
      "t": 243157.99200000058,
      "d": 879.9345625000133,
      "v": 57
    },
    {
      "midi": 37,
      "hit": false,
      "t": 243157.99200000058,
      "d": 964.9126666666707,
      "v": 62
    },
    {
      "midi": 65,
      "hit": false,
      "t": 243157.99200000058,
      "d": 424.89052083334536,
      "v": 68
    },
    {
      "midi": 68,
      "hit": false,
      "t": 243157.99200000058,
      "d": 622.2590208333568,
      "v": 71
    },
    {
      "midi": 73,
      "hit": false,
      "t": 243157.99200000058,
      "d": 690.7897500000254,
      "v": 61
    },
    {
      "midi": 49,
      "hit": false,
      "t": 243157.99200000058,
      "d": 879.9345625000133,
      "v": 57
    },
    {
      "midi": 37,
      "hit": false,
      "t": 243157.99200000058,
      "d": 964.9126666666707,
      "v": 62
    },
    {
      "midi": 65,
      "hit": false,
      "t": 243684.3080000006,
      "d": 79.49564583334723,
      "v": 60
    },
    {
      "midi": 65,
      "hit": false,
      "t": 243684.3080000006,
      "d": 79.49564583334723,
      "v": 60
    },
    {
      "midi": 68,
      "hit": false,
      "t": 244210.6240000006,
      "d": 101.42547916667536,
      "v": 62
    },
    {
      "midi": 68,
      "hit": false,
      "t": 244210.6240000006,
      "d": 101.42547916667536,
      "v": 62
    },
    {
      "midi": 61,
      "hit": false,
      "t": 244736.94000000058,
      "d": 457.785270833323,
      "v": 66
    },
    {
      "midi": 68,
      "hit": false,
      "t": 244736.94000000058,
      "d": 509.8686250000028,
      "v": 66
    },
    {
      "midi": 66,
      "hit": false,
      "t": 244736.94000000058,
      "d": 693.5309791666514,
      "v": 68
    },
    {
      "midi": 70,
      "hit": false,
      "t": 244736.94000000058,
      "d": 753.8380208333256,
      "v": 71
    },
    {
      "midi": 73,
      "hit": false,
      "t": 244736.94000000058,
      "d": 773.0266249999986,
      "v": 57
    },
    {
      "midi": 46,
      "hit": false,
      "t": 244736.94000000058,
      "d": 1071.8206041666854,
      "v": 63
    },
    {
      "midi": 34,
      "hit": false,
      "t": 244736.94000000058,
      "d": 1099.2328958333528,
      "v": 66
    },
    {
      "midi": 61,
      "hit": false,
      "t": 244736.94000000058,
      "d": 457.785270833323,
      "v": 66
    },
    {
      "midi": 68,
      "hit": false,
      "t": 244736.94000000058,
      "d": 509.8686250000028,
      "v": 66
    },
    {
      "midi": 66,
      "hit": false,
      "t": 244736.94000000058,
      "d": 693.5309791666514,
      "v": 68
    },
    {
      "midi": 70,
      "hit": false,
      "t": 244736.94000000058,
      "d": 753.8380208333256,
      "v": 71
    },
    {
      "midi": 73,
      "hit": false,
      "t": 244736.94000000058,
      "d": 773.0266249999986,
      "v": 57
    },
    {
      "midi": 46,
      "hit": false,
      "t": 244736.94000000058,
      "d": 1071.8206041666854,
      "v": 63
    },
    {
      "midi": 34,
      "hit": false,
      "t": 244736.94000000058,
      "d": 1099.2328958333528,
      "v": 66
    },
    {
      "midi": 61,
      "hit": false,
      "t": 245263.25600000058,
      "d": 238.48693750001257,
      "v": 58
    },
    {
      "midi": 61,
      "hit": false,
      "t": 245263.25600000058,
      "d": 238.48693750001257,
      "v": 58
    },
    {
      "midi": 61,
      "hit": false,
      "t": 245789.5720000006,
      "d": 65.7895000000135,
      "v": 62
    },
    {
      "midi": 66,
      "hit": false,
      "t": 245789.5720000006,
      "d": 90.46056250002584,
      "v": 67
    },
    {
      "midi": 70,
      "hit": false,
      "t": 245789.5720000006,
      "d": 93.20179166668095,
      "v": 64
    },
    {
      "midi": 61,
      "hit": false,
      "t": 245789.5720000006,
      "d": 65.7895000000135,
      "v": 62
    },
    {
      "midi": 66,
      "hit": false,
      "t": 245789.5720000006,
      "d": 90.46056250002584,
      "v": 67
    },
    {
      "midi": 70,
      "hit": false,
      "t": 245789.5720000006,
      "d": 93.20179166668095,
      "v": 64
    },
    {
      "midi": 63,
      "hit": false,
      "t": 246315.88800000062,
      "d": 394.7369999999937,
      "v": 61
    },
    {
      "midi": 68,
      "hit": false,
      "t": 246315.88800000062,
      "d": 572.9168958333321,
      "v": 68
    },
    {
      "midi": 32,
      "hit": false,
      "t": 246315.88800000062,
      "d": 603.0704166666546,
      "v": 78
    },
    {
      "midi": 44,
      "hit": false,
      "t": 246315.88800000062,
      "d": 858.004729166656,
      "v": 67
    },
    {
      "midi": 63,
      "hit": false,
      "t": 246315.88800000062,
      "d": 394.7369999999937,
      "v": 61
    },
    {
      "midi": 68,
      "hit": false,
      "t": 246315.88800000062,
      "d": 572.9168958333321,
      "v": 68
    },
    {
      "midi": 32,
      "hit": false,
      "t": 246315.88800000062,
      "d": 603.0704166666546,
      "v": 78
    },
    {
      "midi": 44,
      "hit": false,
      "t": 246315.88800000062,
      "d": 858.004729166656,
      "v": 67
    },
    {
      "midi": 65,
      "hit": false,
      "t": 246842.2040000006,
      "d": 367.32470833332627,
      "v": 56
    },
    {
      "midi": 65,
      "hit": false,
      "t": 246842.2040000006,
      "d": 367.32470833332627,
      "v": 56
    },
    {
      "midi": 68,
      "hit": false,
      "t": 247368.5200000006,
      "d": 41.118437500001164,
      "v": 78
    },
    {
      "midi": 68,
      "hit": false,
      "t": 247368.5200000006,
      "d": 41.118437500001164,
      "v": 78
    },
    {
      "midi": 56,
      "hit": false,
      "t": 247894.8360000006,
      "d": 375.5483958333207,
      "v": 91
    },
    {
      "midi": 65,
      "hit": false,
      "t": 247894.8360000006,
      "d": 540.0221458333253,
      "v": 85
    },
    {
      "midi": 51,
      "hit": false,
      "t": 247894.8360000006,
      "d": 1189.6934583333205,
      "v": 78
    },
    {
      "midi": 44,
      "hit": false,
      "t": 247894.8360000006,
      "d": 1247.2592708333104,
      "v": 71
    },
    {
      "midi": 56,
      "hit": false,
      "t": 247894.8360000006,
      "d": 375.5483958333207,
      "v": 91
    },
    {
      "midi": 65,
      "hit": false,
      "t": 247894.8360000006,
      "d": 540.0221458333253,
      "v": 85
    },
    {
      "midi": 51,
      "hit": false,
      "t": 247894.8360000006,
      "d": 1189.6934583333205,
      "v": 78
    },
    {
      "midi": 44,
      "hit": false,
      "t": 247894.8360000006,
      "d": 1247.2592708333104,
      "v": 71
    },
    {
      "midi": 63,
      "hit": false,
      "t": 248421.15200000058,
      "d": 301.53520833334187,
      "v": 82
    },
    {
      "midi": 54,
      "hit": false,
      "t": 248421.15200000058,
      "d": 345.39487499999814,
      "v": 91
    },
    {
      "midi": 63,
      "hit": false,
      "t": 248421.15200000058,
      "d": 301.53520833334187,
      "v": 82
    },
    {
      "midi": 54,
      "hit": false,
      "t": 248421.15200000058,
      "d": 345.39487499999814,
      "v": 91
    },
    {
      "midi": 56,
      "hit": false,
      "t": 248947.46800000058,
      "d": 74.01318750000792,
      "v": 88
    },
    {
      "midi": 61,
      "hit": false,
      "t": 248947.46800000058,
      "d": 95.94302083333605,
      "v": 80
    },
    {
      "midi": 56,
      "hit": false,
      "t": 248947.46800000058,
      "d": 74.01318750000792,
      "v": 88
    },
    {
      "midi": 61,
      "hit": false,
      "t": 248947.46800000058,
      "d": 95.94302083333605,
      "v": 80
    },
    {
      "midi": 53,
      "hit": false,
      "t": 249473.78400000057,
      "d": 408.44314583332743,
      "v": 82
    },
    {
      "midi": 56,
      "hit": false,
      "t": 249473.78400000057,
      "d": 600.3291874999995,
      "v": 80
    },
    {
      "midi": 61,
      "hit": false,
      "t": 249473.78400000057,
      "d": 858.004729166656,
      "v": 64
    },
    {
      "midi": 37,
      "hit": false,
      "t": 249473.78400000057,
      "d": 2500.0009999999893,
      "v": 73
    },
    {
      "midi": 49,
      "hit": false,
      "t": 249473.78400000057,
      "d": 2513.707145833323,
      "v": 66
    },
    {
      "midi": 53,
      "hit": false,
      "t": 249473.78400000057,
      "d": 408.44314583332743,
      "v": 82
    },
    {
      "midi": 56,
      "hit": false,
      "t": 249473.78400000057,
      "d": 600.3291874999995,
      "v": 80
    },
    {
      "midi": 61,
      "hit": false,
      "t": 249473.78400000057,
      "d": 858.004729166656,
      "v": 64
    },
    {
      "midi": 37,
      "hit": false,
      "t": 249473.78400000057,
      "d": 2500.0009999999893,
      "v": 73
    },
    {
      "midi": 49,
      "hit": false,
      "t": 249473.78400000057,
      "d": 2513.707145833323,
      "v": 66
    },
    {
      "midi": 53,
      "hit": false,
      "t": 250000.10000000056,
      "d": 348.13610416665324,
      "v": 67
    },
    {
      "midi": 53,
      "hit": false,
      "t": 250000.10000000056,
      "d": 348.13610416665324,
      "v": 67
    },
    {
      "midi": 56,
      "hit": false,
      "t": 250526.41600000055,
      "d": 74.01318750000792,
      "v": 67
    },
    {
      "midi": 56,
      "hit": false,
      "t": 250526.41600000055,
      "d": 74.01318750000792,
      "v": 67
    },
    {
      "midi": 61,
      "hit": false,
      "t": 251052.73200000057,
      "d": 482.45633333333535,
      "v": 74
    },
    {
      "midi": 68,
      "hit": false,
      "t": 251052.73200000057,
      "d": 1200.6583750000282,
      "v": 88
    },
    {
      "midi": 61,
      "hit": false,
      "t": 251052.73200000057,
      "d": 482.45633333333535,
      "v": 74
    },
    {
      "midi": 68,
      "hit": false,
      "t": 251052.73200000057,
      "d": 1200.6583750000282,
      "v": 88
    },
    {
      "midi": 65,
      "hit": false,
      "t": 251579.04800000056,
      "d": 487.93879166667466,
      "v": 57
    },
    {
      "midi": 56,
      "hit": false,
      "t": 251579.04800000056,
      "d": 594.8467291666893,
      "v": 54
    },
    {
      "midi": 65,
      "hit": false,
      "t": 251579.04800000056,
      "d": 487.93879166667466,
      "v": 57
    },
    {
      "midi": 56,
      "hit": false,
      "t": 251579.04800000056,
      "d": 594.8467291666893,
      "v": 54
    },
    {
      "midi": 61,
      "hit": false,
      "t": 252105.36400000058,
      "d": 93.20179166668095,
      "v": 56
    },
    {
      "midi": 61,
      "hit": false,
      "t": 252105.36400000058,
      "d": 93.20179166668095,
      "v": 56
    },
    {
      "midi": 56,
      "hit": false,
      "t": 252631.6800000006,
      "d": 466.0089583333174,
      "v": 58
    },
    {
      "midi": 58,
      "hit": false,
      "t": 252631.6800000006,
      "d": 635.9651666666614,
      "v": 64
    },
    {
      "midi": 61,
      "hit": false,
      "t": 252631.6800000006,
      "d": 819.6275208333391,
      "v": 62
    },
    {
      "midi": 49,
      "hit": false,
      "t": 252631.6800000006,
      "d": 1367.8733541666588,
      "v": 61
    },
    {
      "midi": 37,
      "hit": false,
      "t": 252631.6800000006,
      "d": 2856.360791666666,
      "v": 57
    },
    {
      "midi": 42,
      "hit": false,
      "t": 252631.6800000006,
      "d": 2883.7730833333335,
      "v": 68
    },
    {
      "midi": 56,
      "hit": false,
      "t": 252631.6800000006,
      "d": 466.0089583333174,
      "v": 58
    },
    {
      "midi": 58,
      "hit": false,
      "t": 252631.6800000006,
      "d": 635.9651666666614,
      "v": 64
    },
    {
      "midi": 61,
      "hit": false,
      "t": 252631.6800000006,
      "d": 819.6275208333391,
      "v": 62
    },
    {
      "midi": 49,
      "hit": false,
      "t": 252631.6800000006,
      "d": 1367.8733541666588,
      "v": 61
    },
    {
      "midi": 37,
      "hit": false,
      "t": 252631.6800000006,
      "d": 2856.360791666666,
      "v": 57
    },
    {
      "midi": 42,
      "hit": false,
      "t": 252631.6800000006,
      "d": 2883.7730833333335,
      "v": 68
    },
    {
      "midi": 56,
      "hit": false,
      "t": 253157.9960000006,
      "d": 337.1711875000037,
      "v": 38
    },
    {
      "midi": 56,
      "hit": false,
      "t": 253157.9960000006,
      "d": 337.1711875000037,
      "v": 38
    },
    {
      "midi": 58,
      "hit": false,
      "t": 253684.3120000006,
      "d": 400.219458333333,
      "v": 61
    },
    {
      "midi": 58,
      "hit": false,
      "t": 253684.3120000006,
      "d": 400.219458333333,
      "v": 61
    },
    {
      "midi": 56,
      "hit": false,
      "t": 254210.62800000058,
      "d": 408.44314583332743,
      "v": 54
    },
    {
      "midi": 58,
      "hit": false,
      "t": 254210.62800000058,
      "d": 592.1055000000051,
      "v": 57
    },
    {
      "midi": 61,
      "hit": false,
      "t": 254210.62800000058,
      "d": 720.9432708333479,
      "v": 58
    },
    {
      "midi": 49,
      "hit": false,
      "t": 254210.62800000058,
      "d": 1195.1759166666889,
      "v": 44
    },
    {
      "midi": 56,
      "hit": false,
      "t": 254210.62800000058,
      "d": 408.44314583332743,
      "v": 54
    },
    {
      "midi": 58,
      "hit": false,
      "t": 254210.62800000058,
      "d": 592.1055000000051,
      "v": 57
    },
    {
      "midi": 61,
      "hit": false,
      "t": 254210.62800000058,
      "d": 720.9432708333479,
      "v": 58
    },
    {
      "midi": 49,
      "hit": false,
      "t": 254210.62800000058,
      "d": 1195.1759166666889,
      "v": 44
    },
    {
      "midi": 56,
      "hit": false,
      "t": 254736.94400000057,
      "d": 408.44314583335654,
      "v": 56
    },
    {
      "midi": 56,
      "hit": false,
      "t": 254736.94400000057,
      "d": 408.44314583335654,
      "v": 56
    },
    {
      "midi": 63,
      "hit": false,
      "t": 255263.2600000006,
      "d": 123.35531250000349,
      "v": 61
    },
    {
      "midi": 63,
      "hit": false,
      "t": 255263.2600000006,
      "d": 123.35531250000349,
      "v": 61
    },
    {
      "midi": 56,
      "hit": false,
      "t": 255789.5760000006,
      "d": 353.61856249999255,
      "v": 68
    },
    {
      "midi": 61,
      "hit": false,
      "t": 255789.5760000006,
      "d": 816.8862916666549,
      "v": 61
    },
    {
      "midi": 65,
      "hit": false,
      "t": 255789.5760000006,
      "d": 915.570541666646,
      "v": 68
    },
    {
      "midi": 49,
      "hit": false,
      "t": 255789.5760000006,
      "d": 1710.5269999999728,
      "v": 59
    },
    {
      "midi": 44,
      "hit": false,
      "t": 255789.5760000006,
      "d": 2749.4528541666223,
      "v": 62
    },
    {
      "midi": 37,
      "hit": false,
      "t": 255789.5760000006,
      "d": 2787.8300624999683,
      "v": 55
    },
    {
      "midi": 56,
      "hit": false,
      "t": 255789.5760000006,
      "d": 353.61856249999255,
      "v": 68
    },
    {
      "midi": 61,
      "hit": false,
      "t": 255789.5760000006,
      "d": 816.8862916666549,
      "v": 61
    },
    {
      "midi": 65,
      "hit": false,
      "t": 255789.5760000006,
      "d": 915.570541666646,
      "v": 68
    },
    {
      "midi": 49,
      "hit": false,
      "t": 255789.5760000006,
      "d": 1710.5269999999728,
      "v": 59
    },
    {
      "midi": 44,
      "hit": false,
      "t": 255789.5760000006,
      "d": 2749.4528541666223,
      "v": 62
    },
    {
      "midi": 37,
      "hit": false,
      "t": 255789.5760000006,
      "d": 2787.8300624999683,
      "v": 55
    },
    {
      "midi": 56,
      "hit": false,
      "t": 256315.8920000006,
      "d": 156.25006250001024,
      "v": 57
    },
    {
      "midi": 56,
      "hit": false,
      "t": 256315.8920000006,
      "d": 156.25006250001024,
      "v": 57
    },
    {
      "midi": 61,
      "hit": false,
      "t": 256842.2080000006,
      "d": 68.5307291666686,
      "v": 63
    },
    {
      "midi": 61,
      "hit": false,
      "t": 256842.2080000006,
      "d": 68.5307291666686,
      "v": 63
    },
    {
      "midi": 61,
      "hit": false,
      "t": 257368.5240000006,
      "d": 597.5879583333153,
      "v": 78
    },
    {
      "midi": 68,
      "hit": false,
      "t": 257368.5240000006,
      "d": 786.7327708333032,
      "v": 88
    },
    {
      "midi": 61,
      "hit": false,
      "t": 257368.5240000006,
      "d": 597.5879583333153,
      "v": 78
    },
    {
      "midi": 68,
      "hit": false,
      "t": 257368.5240000006,
      "d": 786.7327708333032,
      "v": 88
    },
    {
      "midi": 49,
      "hit": false,
      "t": 257894.84000000058,
      "d": 614.0353333333333,
      "v": 64
    },
    {
      "midi": 49,
      "hit": false,
      "t": 257894.84000000058,
      "d": 614.0353333333333,
      "v": 64
    },
    {
      "midi": 56,
      "hit": false,
      "t": 258421.15600000057,
      "d": 52.08335416667978,
      "v": 50
    },
    {
      "midi": 65,
      "hit": false,
      "t": 258421.15600000057,
      "d": 82.23687500000233,
      "v": 62
    },
    {
      "midi": 56,
      "hit": false,
      "t": 258421.15600000057,
      "d": 52.08335416667978,
      "v": 50
    },
    {
      "midi": 65,
      "hit": false,
      "t": 258421.15600000057,
      "d": 82.23687500000233,
      "v": 62
    },
    {
      "midi": 37,
      "hit": false,
      "t": 258772.0333333339,
      "d": 2785.0888333333132,
      "v": 55
    },
    {
      "midi": 37,
      "hit": false,
      "t": 258772.0333333339,
      "d": 2785.0888333333132,
      "v": 55
    },
    {
      "midi": 56,
      "hit": false,
      "t": 258947.4720000006,
      "d": 427.63175000000047,
      "v": 56
    },
    {
      "midi": 58,
      "hit": false,
      "t": 258947.4720000006,
      "d": 575.6581249999872,
      "v": 61
    },
    {
      "midi": 61,
      "hit": false,
      "t": 258947.4720000006,
      "d": 1014.2547916666372,
      "v": 56
    },
    {
      "midi": 49,
      "hit": false,
      "t": 258947.4720000006,
      "d": 1159.5399374999688,
      "v": 53
    },
    {
      "midi": 42,
      "hit": false,
      "t": 258947.4720000006,
      "d": 2683.663354166638,
      "v": 56
    },
    {
      "midi": 56,
      "hit": false,
      "t": 258947.4720000006,
      "d": 427.63175000000047,
      "v": 56
    },
    {
      "midi": 58,
      "hit": false,
      "t": 258947.4720000006,
      "d": 575.6581249999872,
      "v": 61
    },
    {
      "midi": 61,
      "hit": false,
      "t": 258947.4720000006,
      "d": 1014.2547916666372,
      "v": 56
    },
    {
      "midi": 49,
      "hit": false,
      "t": 258947.4720000006,
      "d": 1159.5399374999688,
      "v": 53
    },
    {
      "midi": 42,
      "hit": false,
      "t": 258947.4720000006,
      "d": 2683.663354166638,
      "v": 56
    },
    {
      "midi": 56,
      "hit": false,
      "t": 259473.78800000058,
      "d": 353.61856249999255,
      "v": 25
    },
    {
      "midi": 56,
      "hit": false,
      "t": 259473.78800000058,
      "d": 353.61856249999255,
      "v": 25
    },
    {
      "midi": 58,
      "hit": false,
      "t": 260000.10400000057,
      "d": 57.56581249998999,
      "v": 45
    },
    {
      "midi": 58,
      "hit": false,
      "t": 260000.10400000057,
      "d": 57.56581249998999,
      "v": 45
    },
    {
      "midi": 54,
      "hit": false,
      "t": 260526.42000000057,
      "d": 413.92560416666674,
      "v": 63
    },
    {
      "midi": 56,
      "hit": false,
      "t": 260526.42000000057,
      "d": 537.2809166666702,
      "v": 68
    },
    {
      "midi": 49,
      "hit": false,
      "t": 260526.42000000057,
      "d": 1047.149541666644,
      "v": 57
    },
    {
      "midi": 54,
      "hit": false,
      "t": 260526.42000000057,
      "d": 413.92560416666674,
      "v": 63
    },
    {
      "midi": 56,
      "hit": false,
      "t": 260526.42000000057,
      "d": 537.2809166666702,
      "v": 68
    },
    {
      "midi": 49,
      "hit": false,
      "t": 260526.42000000057,
      "d": 1047.149541666644,
      "v": 57
    },
    {
      "midi": 54,
      "hit": false,
      "t": 261052.73600000056,
      "d": 386.5133124999993,
      "v": 46
    },
    {
      "midi": 58,
      "hit": false,
      "t": 261052.73600000056,
      "d": 402.9606874999881,
      "v": 80
    },
    {
      "midi": 54,
      "hit": false,
      "t": 261052.73600000056,
      "d": 386.5133124999993,
      "v": 46
    },
    {
      "midi": 58,
      "hit": false,
      "t": 261052.73600000056,
      "d": 402.9606874999881,
      "v": 80
    },
    {
      "midi": 54,
      "hit": false,
      "t": 261579.05200000055,
      "d": 137.0614583333372,
      "v": 71
    },
    {
      "midi": 58,
      "hit": false,
      "t": 261579.05200000055,
      "d": 164.47375000000466,
      "v": 66
    },
    {
      "midi": 61,
      "hit": false,
      "t": 261579.05200000055,
      "d": 169.95620833334397,
      "v": 71
    },
    {
      "midi": 54,
      "hit": false,
      "t": 261579.05200000055,
      "d": 137.0614583333372,
      "v": 71
    },
    {
      "midi": 58,
      "hit": false,
      "t": 261579.05200000055,
      "d": 164.47375000000466,
      "v": 66
    },
    {
      "midi": 61,
      "hit": false,
      "t": 261579.05200000055,
      "d": 169.95620833334397,
      "v": 71
    },
    {
      "midi": 56,
      "hit": false,
      "t": 262105.36800000057,
      "d": 614.0353333333333,
      "v": 64
    },
    {
      "midi": 61,
      "hit": false,
      "t": 262105.36800000057,
      "d": 764.8029374999751,
      "v": 61
    },
    {
      "midi": 53,
      "hit": false,
      "t": 262105.36800000057,
      "d": 781.2503124999639,
      "v": 65
    },
    {
      "midi": 49,
      "hit": false,
      "t": 262105.36800000057,
      "d": 1222.588208333269,
      "v": 51
    },
    {
      "midi": 44,
      "hit": false,
      "t": 262105.36800000057,
      "d": 1233.5531249999476,
      "v": 60
    },
    {
      "midi": 37,
      "hit": false,
      "t": 262105.36800000057,
      "d": 1266.4478749999253,
      "v": 57
    },
    {
      "midi": 56,
      "hit": false,
      "t": 262105.36800000057,
      "d": 614.0353333333333,
      "v": 64
    },
    {
      "midi": 61,
      "hit": false,
      "t": 262105.36800000057,
      "d": 764.8029374999751,
      "v": 61
    },
    {
      "midi": 53,
      "hit": false,
      "t": 262105.36800000057,
      "d": 781.2503124999639,
      "v": 65
    },
    {
      "midi": 49,
      "hit": false,
      "t": 262105.36800000057,
      "d": 1222.588208333269,
      "v": 51
    },
    {
      "midi": 44,
      "hit": false,
      "t": 262105.36800000057,
      "d": 1233.5531249999476,
      "v": 60
    },
    {
      "midi": 37,
      "hit": false,
      "t": 262105.36800000057,
      "d": 1266.4478749999253,
      "v": 57
    },
    {
      "midi": 53,
      "hit": false,
      "t": 263158.0000000005,
      "d": 54.824583333334886,
      "v": 62
    },
    {
      "midi": 56,
      "hit": false,
      "t": 263158.0000000005,
      "d": 74.01318750000792,
      "v": 63
    },
    {
      "midi": 53,
      "hit": false,
      "t": 263158.0000000005,
      "d": 54.824583333334886,
      "v": 62
    },
    {
      "midi": 56,
      "hit": false,
      "t": 263158.0000000005,
      "d": 74.01318750000792,
      "v": 63
    },
    {
      "midi": 61,
      "hit": false,
      "t": 263684.3160000005,
      "d": 391.9957708332804,
      "v": 56
    },
    {
      "midi": 56,
      "hit": false,
      "t": 263684.3160000005,
      "d": 476.97387499996694,
      "v": 50
    },
    {
      "midi": 65,
      "hit": false,
      "t": 263684.3160000005,
      "d": 476.97387499996694,
      "v": 62
    },
    {
      "midi": 44,
      "hit": false,
      "t": 263684.3160000005,
      "d": 1345.9435208333307,
      "v": 57
    },
    {
      "midi": 37,
      "hit": false,
      "t": 263684.3160000005,
      "d": 4281.799958333257,
      "v": 57
    },
    {
      "midi": 61,
      "hit": false,
      "t": 263684.3160000005,
      "d": 391.9957708332804,
      "v": 56
    },
    {
      "midi": 56,
      "hit": false,
      "t": 263684.3160000005,
      "d": 476.97387499996694,
      "v": 50
    },
    {
      "midi": 65,
      "hit": false,
      "t": 263684.3160000005,
      "d": 476.97387499996694,
      "v": 62
    },
    {
      "midi": 44,
      "hit": false,
      "t": 263684.3160000005,
      "d": 1345.9435208333307,
      "v": 57
    },
    {
      "midi": 37,
      "hit": false,
      "t": 263684.3160000005,
      "d": 4281.799958333257,
      "v": 57
    },
    {
      "midi": 49,
      "hit": false,
      "t": 264035.1933333338,
      "d": 907.3468541667098,
      "v": 1
    },
    {
      "midi": 49,
      "hit": false,
      "t": 264035.1933333338,
      "d": 907.3468541667098,
      "v": 1
    },
    {
      "midi": 53,
      "hit": false,
      "t": 264736.9480000005,
      "d": 54.824583333334886,
      "v": 56
    },
    {
      "midi": 56,
      "hit": false,
      "t": 264736.9480000005,
      "d": 109.64916666666977,
      "v": 61
    },
    {
      "midi": 61,
      "hit": false,
      "t": 264736.9480000005,
      "d": 112.39039583335398,
      "v": 54
    },
    {
      "midi": 53,
      "hit": false,
      "t": 264736.9480000005,
      "d": 54.824583333334886,
      "v": 56
    },
    {
      "midi": 56,
      "hit": false,
      "t": 264736.9480000005,
      "d": 109.64916666666977,
      "v": 61
    },
    {
      "midi": 61,
      "hit": false,
      "t": 264736.9480000005,
      "d": 112.39039583335398,
      "v": 54
    },
    {
      "midi": 56,
      "hit": false,
      "t": 265263.2640000005,
      "d": 556.4695208332851,
      "v": 59
    },
    {
      "midi": 61,
      "hit": false,
      "t": 265263.2640000005,
      "d": 559.2107499999693,
      "v": 60
    },
    {
      "midi": 58,
      "hit": false,
      "t": 265263.2640000005,
      "d": 561.9519791666535,
      "v": 60
    },
    {
      "midi": 49,
      "hit": false,
      "t": 265263.2640000005,
      "d": 742.873104166647,
      "v": 56
    },
    {
      "midi": 42,
      "hit": false,
      "t": 265263.2640000005,
      "d": 2617.8738541666535,
      "v": 61
    },
    {
      "midi": 56,
      "hit": false,
      "t": 265263.2640000005,
      "d": 556.4695208332851,
      "v": 59
    },
    {
      "midi": 61,
      "hit": false,
      "t": 265263.2640000005,
      "d": 559.2107499999693,
      "v": 60
    },
    {
      "midi": 58,
      "hit": false,
      "t": 265263.2640000005,
      "d": 561.9519791666535,
      "v": 60
    },
    {
      "midi": 49,
      "hit": false,
      "t": 265263.2640000005,
      "d": 742.873104166647,
      "v": 56
    },
    {
      "midi": 42,
      "hit": false,
      "t": 265263.2640000005,
      "d": 2617.8738541666535,
      "v": 61
    },
    {
      "midi": 49,
      "hit": false,
      "t": 266315.8960000005,
      "d": 158.99129166669445,
      "v": 58
    },
    {
      "midi": 49,
      "hit": false,
      "t": 266315.8960000005,
      "d": 158.99129166669445,
      "v": 58
    },
    {
      "midi": 56,
      "hit": false,
      "t": 266842.2120000005,
      "d": 287.82906249997905,
      "v": 63
    },
    {
      "midi": 61,
      "hit": false,
      "t": 266842.2120000005,
      "d": 301.53520833328366,
      "v": 58
    },
    {
      "midi": 49,
      "hit": false,
      "t": 266842.2120000005,
      "d": 997.8074166666484,
      "v": 56
    },
    {
      "midi": 56,
      "hit": false,
      "t": 266842.2120000005,
      "d": 287.82906249997905,
      "v": 63
    },
    {
      "midi": 61,
      "hit": false,
      "t": 266842.2120000005,
      "d": 301.53520833328366,
      "v": 58
    },
    {
      "midi": 49,
      "hit": false,
      "t": 266842.2120000005,
      "d": 997.8074166666484,
      "v": 56
    },
    {
      "midi": 58,
      "hit": false,
      "t": 267368.52800000046,
      "d": 158.99129166669445,
      "v": 60
    },
    {
      "midi": 58,
      "hit": false,
      "t": 267368.52800000046,
      "d": 158.99129166669445,
      "v": 60
    },
    {
      "midi": 56,
      "hit": false,
      "t": 267894.84400000045,
      "d": 126.0965416666586,
      "v": 61
    },
    {
      "midi": 56,
      "hit": false,
      "t": 267894.84400000045,
      "d": 126.0965416666586,
      "v": 61
    },
    {
      "midi": 37,
      "hit": false,
      "t": 268421.16000000044,
      "d": 6315.792000000016,
      "v": 56
    },
    {
      "midi": 44,
      "hit": false,
      "t": 268421.16000000044,
      "d": 6315.792000000016,
      "v": 54
    },
    {
      "midi": 49,
      "hit": false,
      "t": 268421.16000000044,
      "d": 6315.792000000016,
      "v": 46
    },
    {
      "midi": 53,
      "hit": false,
      "t": 268421.16000000044,
      "d": 6315.792000000016,
      "v": 62
    },
    {
      "midi": 56,
      "hit": false,
      "t": 268421.16000000044,
      "d": 6315.792000000016,
      "v": 56
    },
    {
      "midi": 61,
      "hit": false,
      "t": 268421.16000000044,
      "d": 6315.792000000016,
      "v": 58
    },
    {
      "midi": 37,
      "hit": false,
      "t": 268421.16000000044,
      "d": 6315.792000000016,
      "v": 56
    },
    {
      "midi": 44,
      "hit": false,
      "t": 268421.16000000044,
      "d": 6315.792000000016,
      "v": 54
    },
    {
      "midi": 49,
      "hit": false,
      "t": 268421.16000000044,
      "d": 6315.792000000016,
      "v": 46
    },
    {
      "midi": 53,
      "hit": false,
      "t": 268421.16000000044,
      "d": 6315.792000000016,
      "v": 62
    },
    {
      "midi": 56,
      "hit": false,
      "t": 268421.16000000044,
      "d": 6315.792000000016,
      "v": 56
    },
    {
      "midi": 61,
      "hit": false,
      "t": 268421.16000000044,
      "d": 6315.792000000016,
      "v": 58
    }
  ]
}