{
  "jsonPath": "Rock/Comic Metal/Lordi/devil-is-a-loser.json",
  "path": "Rock\\Comic Metal\\Lordi\\Devil Is A Loser.mid",
  "name": "Devil Is A Loser",
  "difficulty": "Intermediate",
  "bpm": 144.00023040036865,
  "notes": [
    {
      "midi": 67,
      "hit": false,
      "t": 47291.59099999999,
      "d": 416.66599999999744,
      "v": 95
    },
    {
      "midi": 79,
      "hit": false,
      "t": 47291.59099999999,
      "d": 416.66599999999744,
      "v": 95
    },
    {
      "midi": 68,
      "hit": false,
      "t": 47708.25699999999,
      "d": 208.33299999999872,
      "v": 95
    },
    {
      "midi": 80,
      "hit": false,
      "t": 47708.25699999999,
      "d": 208.33299999999872,
      "v": 95
    },
    {
      "midi": 67,
      "hit": false,
      "t": 47916.58999999999,
      "d": 624.9990000000034,
      "v": 95
    },
    {
      "midi": 79,
      "hit": false,
      "t": 47916.58999999999,
      "d": 624.9990000000034,
      "v": 95
    },
    {
      "midi": 65,
      "hit": false,
      "t": 48541.58899999999,
      "d": 833.3320000000022,
      "v": 95
    },
    {
      "midi": 77,
      "hit": false,
      "t": 48541.58899999999,
      "d": 833.3320000000022,
      "v": 95
    },
    {
      "midi": 61,
      "hit": false,
      "t": 49374.920999999995,
      "d": 833.3320000000022,
      "v": 95
    },
    {
      "midi": 73,
      "hit": false,
      "t": 49374.920999999995,
      "d": 833.3320000000022,
      "v": 95
    },
    {
      "midi": 65,
      "hit": false,
      "t": 50624.918999999994,
      "d": 208.33299999999872,
      "v": 95
    },
    {
      "midi": 77,
      "hit": false,
      "t": 50624.918999999994,
      "d": 208.33299999999872,
      "v": 95
    },
    {
      "midi": 66,
      "hit": false,
      "t": 50833.25199999999,
      "d": 208.33299999999872,
      "v": 95
    },
    {
      "midi": 78,
      "hit": false,
      "t": 50833.25199999999,
      "d": 208.33299999999872,
      "v": 95
    },
    {
      "midi": 68,
      "hit": false,
      "t": 51041.58499999999,
      "d": 208.33299999999872,
      "v": 95
    },
    {
      "midi": 80,
      "hit": false,
      "t": 51041.58499999999,
      "d": 208.33299999999872,
      "v": 95
    },
    {
      "midi": 65,
      "hit": false,
      "t": 51249.91799999999,
      "d": 624.9990000000034,
      "v": 95
    },
    {
      "midi": 77,
      "hit": false,
      "t": 51249.91799999999,
      "d": 624.9990000000034,
      "v": 95
    },
    {
      "midi": 63,
      "hit": false,
      "t": 51874.916999999994,
      "d": 1666.663999999997,
      "v": 95
    },
    {
      "midi": 75,
      "hit": false,
      "t": 51874.916999999994,
      "d": 1666.663999999997,
      "v": 95
    },
    {
      "midi": 63,
      "hit": false,
      "t": 53958.24699999999,
      "d": 416.66599999999744,
      "v": 95
    },
    {
      "midi": 75,
      "hit": false,
      "t": 53958.24699999999,
      "d": 416.66599999999744,
      "v": 95
    },
    {
      "midi": 65,
      "hit": false,
      "t": 54374.912999999986,
      "d": 208.33299999999872,
      "v": 95
    },
    {
      "midi": 77,
      "hit": false,
      "t": 54374.912999999986,
      "d": 208.33299999999872,
      "v": 95
    },
    {
      "midi": 66,
      "hit": false,
      "t": 54583.245999999985,
      "d": 624.9990000000034,
      "v": 95
    },
    {
      "midi": 78,
      "hit": false,
      "t": 54583.245999999985,
      "d": 624.9990000000034,
      "v": 95
    },
    {
      "midi": 66,
      "hit": false,
      "t": 55208.24499999999,
      "d": 833.3320000000022,
      "v": 95
    },
    {
      "midi": 78,
      "hit": false,
      "t": 55208.24499999999,
      "d": 833.3320000000022,
      "v": 95
    },
    {
      "midi": 61,
      "hit": false,
      "t": 56041.57699999999,
      "d": 833.3320000000022,
      "v": 95
    },
    {
      "midi": 73,
      "hit": false,
      "t": 56041.57699999999,
      "d": 833.3320000000022,
      "v": 95
    },
    {
      "midi": 68,
      "hit": false,
      "t": 56874.90899999999,
      "d": 208.33299999999872,
      "v": 95
    },
    {
      "midi": 80,
      "hit": false,
      "t": 56874.90899999999,
      "d": 208.33299999999872,
      "v": 95
    },
    {
      "midi": 67,
      "hit": false,
      "t": 57083.24199999999,
      "d": 208.33299999999872,
      "v": 95
    },
    {
      "midi": 79,
      "hit": false,
      "t": 57083.24199999999,
      "d": 208.33299999999872,
      "v": 95
    },
    {
      "midi": 67,
      "hit": false,
      "t": 57499.90799999999,
      "d": 208.33299999999872,
      "v": 95
    },
    {
      "midi": 79,
      "hit": false,
      "t": 57499.90799999999,
      "d": 208.33299999999872,
      "v": 95
    },
    {
      "midi": 66,
      "hit": false,
      "t": 57708.24099999999,
      "d": 208.33299999999872,
      "v": 95
    },
    {
      "midi": 78,
      "hit": false,
      "t": 57708.24099999999,
      "d": 208.33299999999872,
      "v": 95
    },
    {
      "midi": 55,
      "hit": false,
      "t": 58124.906999999985,
      "d": 2083.3300000000017,
      "v": 95
    },
    {
      "midi": 67,
      "hit": false,
      "t": 58124.906999999985,
      "d": 2083.3300000000017,
      "v": 95
    },
    {
      "midi": 79,
      "hit": false,
      "t": 58124.906999999985,
      "d": 2083.3300000000017,
      "v": 95
    },
    {
      "midi": 67,
      "hit": false,
      "t": 107291.495,
      "d": 416.66599999999744,
      "v": 95
    },
    {
      "midi": 79,
      "hit": false,
      "t": 107291.495,
      "d": 416.66599999999744,
      "v": 95
    },
    {
      "midi": 68,
      "hit": false,
      "t": 107708.161,
      "d": 208.33299999999872,
      "v": 95
    },
    {
      "midi": 80,
      "hit": false,
      "t": 107708.161,
      "d": 208.33299999999872,
      "v": 95
    },
    {
      "midi": 67,
      "hit": false,
      "t": 107916.49399999999,
      "d": 624.9989999999962,
      "v": 95
    },
    {
      "midi": 79,
      "hit": false,
      "t": 107916.49399999999,
      "d": 624.9989999999962,
      "v": 95
    },
    {
      "midi": 65,
      "hit": false,
      "t": 108541.49299999999,
      "d": 833.3319999999949,
      "v": 95
    },
    {
      "midi": 77,
      "hit": false,
      "t": 108541.49299999999,
      "d": 833.3319999999949,
      "v": 95
    },
    {
      "midi": 61,
      "hit": false,
      "t": 109374.82499999998,
      "d": 833.3319999999949,
      "v": 95
    },
    {
      "midi": 73,
      "hit": false,
      "t": 109374.82499999998,
      "d": 833.3319999999949,
      "v": 95
    },
    {
      "midi": 65,
      "hit": false,
      "t": 110624.82299999997,
      "d": 208.33299999999872,
      "v": 95
    },
    {
      "midi": 77,
      "hit": false,
      "t": 110624.82299999997,
      "d": 208.33299999999872,
      "v": 95
    },
    {
      "midi": 66,
      "hit": false,
      "t": 110833.15599999997,
      "d": 208.33299999999872,
      "v": 95
    },
    {
      "midi": 78,
      "hit": false,
      "t": 110833.15599999997,
      "d": 208.33299999999872,
      "v": 95
    },
    {
      "midi": 68,
      "hit": false,
      "t": 111041.48899999997,
      "d": 208.33299999999872,
      "v": 95
    },
    {
      "midi": 80,
      "hit": false,
      "t": 111041.48899999997,
      "d": 208.33299999999872,
      "v": 95
    },
    {
      "midi": 65,
      "hit": false,
      "t": 111249.82199999997,
      "d": 624.9989999999962,
      "v": 95
    },
    {
      "midi": 77,
      "hit": false,
      "t": 111249.82199999997,
      "d": 624.9989999999962,
      "v": 95
    },
    {
      "midi": 63,
      "hit": false,
      "t": 111874.82099999997,
      "d": 1666.6640000000043,
      "v": 95
    },
    {
      "midi": 75,
      "hit": false,
      "t": 111874.82099999997,
      "d": 1666.6640000000043,
      "v": 95
    },
    {
      "midi": 63,
      "hit": false,
      "t": 113958.15099999997,
      "d": 416.66599999999744,
      "v": 95
    },
    {
      "midi": 75,
      "hit": false,
      "t": 113958.15099999997,
      "d": 416.66599999999744,
      "v": 95
    },
    {
      "midi": 65,
      "hit": false,
      "t": 114374.81699999997,
      "d": 208.33299999999872,
      "v": 95
    },
    {
      "midi": 77,
      "hit": false,
      "t": 114374.81699999997,
      "d": 208.33299999999872,
      "v": 95
    },
    {
      "midi": 66,
      "hit": false,
      "t": 114583.14999999997,
      "d": 624.9989999999962,
      "v": 95
    },
    {
      "midi": 78,
      "hit": false,
      "t": 114583.14999999997,
      "d": 624.9989999999962,
      "v": 95
    },
    {
      "midi": 66,
      "hit": false,
      "t": 115208.14899999996,
      "d": 833.3319999999949,
      "v": 95
    },
    {
      "midi": 78,
      "hit": false,
      "t": 115208.14899999996,
      "d": 833.3319999999949,
      "v": 95
    },
    {
      "midi": 61,
      "hit": false,
      "t": 116041.48099999996,
      "d": 833.3319999999949,
      "v": 95
    },
    {
      "midi": 73,
      "hit": false,
      "t": 116041.48099999996,
      "d": 833.3319999999949,
      "v": 95
    },
    {
      "midi": 68,
      "hit": false,
      "t": 116874.81299999995,
      "d": 208.33299999999872,
      "v": 95
    },
    {
      "midi": 80,
      "hit": false,
      "t": 116874.81299999995,
      "d": 208.33299999999872,
      "v": 95
    },
    {
      "midi": 67,
      "hit": false,
      "t": 117083.14599999995,
      "d": 208.33299999999872,
      "v": 95
    },
    {
      "midi": 79,
      "hit": false,
      "t": 117083.14599999995,
      "d": 208.33299999999872,
      "v": 95
    },
    {
      "midi": 67,
      "hit": false,
      "t": 117499.81199999995,
      "d": 208.33299999999872,
      "v": 95
    },
    {
      "midi": 79,
      "hit": false,
      "t": 117499.81199999995,
      "d": 208.33299999999872,
      "v": 95
    },
    {
      "midi": 66,
      "hit": false,
      "t": 117708.14499999995,
      "d": 208.33299999999872,
      "v": 95
    },
    {
      "midi": 78,
      "hit": false,
      "t": 117708.14499999995,
      "d": 208.33299999999872,
      "v": 95
    },
    {
      "midi": 55,
      "hit": false,
      "t": 118124.81099999994,
      "d": 2083.3300000000017,
      "v": 95
    },
    {
      "midi": 67,
      "hit": false,
      "t": 118124.81099999994,
      "d": 2083.3300000000017,
      "v": 95
    },
    {
      "midi": 79,
      "hit": false,
      "t": 118124.81099999994,
      "d": 2083.3300000000017,
      "v": 95
    },
    {
      "midi": 62,
      "hit": false,
      "t": 160208.07699999996,
      "d": 416.66599999999744,
      "v": 95
    },
    {
      "midi": 74,
      "hit": false,
      "t": 160208.07699999996,
      "d": 416.66599999999744,
      "v": 95
    },
    {
      "midi": 65,
      "hit": false,
      "t": 160624.74299999996,
      "d": 208.33300000001327,
      "v": 95
    },
    {
      "midi": 77,
      "hit": false,
      "t": 160624.74299999996,
      "d": 208.33300000001327,
      "v": 95
    },
    {
      "midi": 62,
      "hit": false,
      "t": 160833.07599999997,
      "d": 208.33300000001327,
      "v": 95
    },
    {
      "midi": 74,
      "hit": false,
      "t": 160833.07599999997,
      "d": 208.33300000001327,
      "v": 95
    },
    {
      "midi": 58,
      "hit": false,
      "t": 161041.40899999999,
      "d": 208.33300000001327,
      "v": 95
    },
    {
      "midi": 70,
      "hit": false,
      "t": 161041.40899999999,
      "d": 208.33300000001327,
      "v": 95
    },
    {
      "midi": 65,
      "hit": false,
      "t": 161249.742,
      "d": 208.33300000001327,
      "v": 95
    },
    {
      "midi": 77,
      "hit": false,
      "t": 161249.742,
      "d": 208.33300000001327,
      "v": 95
    },
    {
      "midi": 58,
      "hit": false,
      "t": 161458.075,
      "d": 208.33300000001327,
      "v": 95
    },
    {
      "midi": 70,
      "hit": false,
      "t": 161458.075,
      "d": 208.33300000001327,
      "v": 95
    },
    {
      "midi": 60,
      "hit": false,
      "t": 161666.40800000002,
      "d": 208.33300000001327,
      "v": 95
    },
    {
      "midi": 72,
      "hit": false,
      "t": 161666.40800000002,
      "d": 208.33300000001327,
      "v": 95
    },
    {
      "midi": 60,
      "hit": false,
      "t": 162083.07400000005,
      "d": 208.33300000001327,
      "v": 95
    },
    {
      "midi": 72,
      "hit": false,
      "t": 162083.07400000005,
      "d": 208.33300000001327,
      "v": 95
    },
    {
      "midi": 64,
      "hit": false,
      "t": 162291.40700000006,
      "d": 208.33300000001327,
      "v": 95
    },
    {
      "midi": 76,
      "hit": false,
      "t": 162291.40700000006,
      "d": 208.33300000001327,
      "v": 95
    },
    {
      "midi": 60,
      "hit": false,
      "t": 162499.74000000008,
      "d": 208.33300000001327,
      "v": 95
    },
    {
      "midi": 72,
      "hit": false,
      "t": 162499.74000000008,
      "d": 208.33300000001327,
      "v": 95
    },
    {
      "midi": 65,
      "hit": false,
      "t": 162708.0730000001,
      "d": 416.66599999999744,
      "v": 95
    },
    {
      "midi": 77,
      "hit": false,
      "t": 162708.0730000001,
      "d": 416.66599999999744,
      "v": 95
    },
    {
      "midi": 64,
      "hit": false,
      "t": 163124.7390000001,
      "d": 416.66599999999744,
      "v": 95
    },
    {
      "midi": 76,
      "hit": false,
      "t": 163124.7390000001,
      "d": 416.66599999999744,
      "v": 95
    },
    {
      "midi": 62,
      "hit": false,
      "t": 163541.4050000001,
      "d": 416.66599999999744,
      "v": 95
    },
    {
      "midi": 74,
      "hit": false,
      "t": 163541.4050000001,
      "d": 416.66599999999744,
      "v": 95
    },
    {
      "midi": 65,
      "hit": false,
      "t": 163958.07100000008,
      "d": 208.33300000001327,
      "v": 95
    },
    {
      "midi": 77,
      "hit": false,
      "t": 163958.07100000008,
      "d": 208.33300000001327,
      "v": 95
    },
    {
      "midi": 62,
      "hit": false,
      "t": 164166.4040000001,
      "d": 208.33300000001327,
      "v": 95
    },
    {
      "midi": 74,
      "hit": false,
      "t": 164166.4040000001,
      "d": 208.33300000001327,
      "v": 95
    },
    {
      "midi": 58,
      "hit": false,
      "t": 164374.7370000001,
      "d": 208.33300000001327,
      "v": 95
    },
    {
      "midi": 70,
      "hit": false,
      "t": 164374.7370000001,
      "d": 208.33300000001327,
      "v": 95
    },
    {
      "midi": 65,
      "hit": false,
      "t": 164583.07000000012,
      "d": 208.33300000001327,
      "v": 95
    },
    {
      "midi": 77,
      "hit": false,
      "t": 164583.07000000012,
      "d": 208.33300000001327,
      "v": 95
    },
    {
      "midi": 58,
      "hit": false,
      "t": 164791.40300000014,
      "d": 208.33300000001327,
      "v": 95
    },
    {
      "midi": 70,
      "hit": false,
      "t": 164791.40300000014,
      "d": 208.33300000001327,
      "v": 95
    },
    {
      "midi": 60,
      "hit": false,
      "t": 164999.73600000015,
      "d": 208.33300000001327,
      "v": 95
    },
    {
      "midi": 72,
      "hit": false,
      "t": 164999.73600000015,
      "d": 208.33300000001327,
      "v": 95
    },
    {
      "midi": 60,
      "hit": false,
      "t": 165416.40200000018,
      "d": 208.33300000001327,
      "v": 95
    },
    {
      "midi": 72,
      "hit": false,
      "t": 165416.40200000018,
      "d": 208.33300000001327,
      "v": 95
    },
    {
      "midi": 64,
      "hit": false,
      "t": 165624.7350000002,
      "d": 208.33300000001327,
      "v": 95
    },
    {
      "midi": 76,
      "hit": false,
      "t": 165624.7350000002,
      "d": 208.33300000001327,
      "v": 95
    },
    {
      "midi": 60,
      "hit": false,
      "t": 165833.0680000002,
      "d": 208.33300000001327,
      "v": 95
    },
    {
      "midi": 72,
      "hit": false,
      "t": 165833.0680000002,
      "d": 208.33300000001327,
      "v": 95
    },
    {
      "midi": 65,
      "hit": false,
      "t": 166041.40100000022,
      "d": 416.66599999999744,
      "v": 95
    },
    {
      "midi": 77,
      "hit": false,
      "t": 166041.40100000022,
      "d": 416.66599999999744,
      "v": 95
    },
    {
      "midi": 64,
      "hit": false,
      "t": 166458.0670000002,
      "d": 416.66599999999744,
      "v": 95
    },
    {
      "midi": 76,
      "hit": false,
      "t": 166458.0670000002,
      "d": 416.66599999999744,
      "v": 95
    },
    {
      "midi": 63,
      "hit": false,
      "t": 166874.7330000002,
      "d": 416.66599999999744,
      "v": 95
    },
    {
      "midi": 75,
      "hit": false,
      "t": 166874.7330000002,
      "d": 416.66599999999744,
      "v": 95
    },
    {
      "midi": 66,
      "hit": false,
      "t": 167291.3990000002,
      "d": 208.33300000001327,
      "v": 95
    },
    {
      "midi": 78,
      "hit": false,
      "t": 167291.3990000002,
      "d": 208.33300000001327,
      "v": 95
    },
    {
      "midi": 63,
      "hit": false,
      "t": 167499.73200000022,
      "d": 208.33300000001327,
      "v": 95
    },
    {
      "midi": 75,
      "hit": false,
      "t": 167499.73200000022,
      "d": 208.33300000001327,
      "v": 95
    },
    {
      "midi": 59,
      "hit": false,
      "t": 167708.06500000024,
      "d": 208.33300000001327,
      "v": 95
    },
    {
      "midi": 71,
      "hit": false,
      "t": 167708.06500000024,
      "d": 208.33300000001327,
      "v": 95
    },
    {
      "midi": 66,
      "hit": false,
      "t": 167916.39800000025,
      "d": 208.33300000001327,
      "v": 95
    },
    {
      "midi": 78,
      "hit": false,
      "t": 167916.39800000025,
      "d": 208.33300000001327,
      "v": 95
    },
    {
      "midi": 59,
      "hit": false,
      "t": 168124.73100000026,
      "d": 208.33300000001327,
      "v": 95
    },
    {
      "midi": 71,
      "hit": false,
      "t": 168124.73100000026,
      "d": 208.33300000001327,
      "v": 95
    },
    {
      "midi": 61,
      "hit": false,
      "t": 168333.06400000027,
      "d": 208.33300000001327,
      "v": 95
    },
    {
      "midi": 73,
      "hit": false,
      "t": 168333.06400000027,
      "d": 208.33300000001327,
      "v": 95
    },
    {
      "midi": 61,
      "hit": false,
      "t": 168749.7300000003,
      "d": 208.33300000001327,
      "v": 95
    },
    {
      "midi": 73,
      "hit": false,
      "t": 168749.7300000003,
      "d": 208.33300000001327,
      "v": 95
    },
    {
      "midi": 65,
      "hit": false,
      "t": 168958.06300000031,
      "d": 208.33300000001327,
      "v": 95
    },
    {
      "midi": 77,
      "hit": false,
      "t": 168958.06300000031,
      "d": 208.33300000001327,
      "v": 95
    },
    {
      "midi": 61,
      "hit": false,
      "t": 169166.39600000033,
      "d": 208.33300000001327,
      "v": 95
    },
    {
      "midi": 73,
      "hit": false,
      "t": 169166.39600000033,
      "d": 208.33300000001327,
      "v": 95
    },
    {
      "midi": 66,
      "hit": false,
      "t": 169374.72900000034,
      "d": 416.66599999999744,
      "v": 95
    },
    {
      "midi": 78,
      "hit": false,
      "t": 169374.72900000034,
      "d": 416.66599999999744,
      "v": 95
    },
    {
      "midi": 65,
      "hit": false,
      "t": 169791.39500000034,
      "d": 416.66599999999744,
      "v": 95
    },
    {
      "midi": 77,
      "hit": false,
      "t": 169791.39500000034,
      "d": 416.66599999999744,
      "v": 95
    },
    {
      "midi": 63,
      "hit": false,
      "t": 170208.06100000034,
      "d": 416.66599999999744,
      "v": 95
    },
    {
      "midi": 75,
      "hit": false,
      "t": 170208.06100000034,
      "d": 416.66599999999744,
      "v": 95
    },
    {
      "midi": 66,
      "hit": false,
      "t": 170624.72700000033,
      "d": 208.33300000001327,
      "v": 95
    },
    {
      "midi": 78,
      "hit": false,
      "t": 170624.72700000033,
      "d": 208.33300000001327,
      "v": 95
    },
    {
      "midi": 63,
      "hit": false,
      "t": 170833.06000000035,
      "d": 208.33300000001327,
      "v": 95
    },
    {
      "midi": 75,
      "hit": false,
      "t": 170833.06000000035,
      "d": 208.33300000001327,
      "v": 95
    },
    {
      "midi": 59,
      "hit": false,
      "t": 171041.39300000036,
      "d": 208.33300000001327,
      "v": 95
    },
    {
      "midi": 71,
      "hit": false,
      "t": 171041.39300000036,
      "d": 208.33300000001327,
      "v": 95
    },
    {
      "midi": 66,
      "hit": false,
      "t": 171249.72600000037,
      "d": 208.33300000001327,
      "v": 95
    },
    {
      "midi": 78,
      "hit": false,
      "t": 171249.72600000037,
      "d": 208.33300000001327,
      "v": 95
    },
    {
      "midi": 59,
      "hit": false,
      "t": 171458.0590000004,
      "d": 208.33300000001327,
      "v": 95
    },
    {
      "midi": 71,
      "hit": false,
      "t": 171458.0590000004,
      "d": 208.33300000001327,
      "v": 95
    },
    {
      "midi": 68,
      "hit": false,
      "t": 171874.7250000004,
      "d": 208.33300000001327,
      "v": 95
    },
    {
      "midi": 80,
      "hit": false,
      "t": 171874.7250000004,
      "d": 208.33300000001327,
      "v": 95
    },
    {
      "midi": 67,
      "hit": false,
      "t": 172083.05800000043,
      "d": 208.33300000001327,
      "v": 95
    },
    {
      "midi": 79,
      "hit": false,
      "t": 172083.05800000043,
      "d": 208.33300000001327,
      "v": 95
    },
    {
      "midi": 67,
      "hit": false,
      "t": 172499.72400000045,
      "d": 208.33300000001327,
      "v": 95
    },
    {
      "midi": 79,
      "hit": false,
      "t": 172499.72400000045,
      "d": 208.33300000001327,
      "v": 95
    },
    {
      "midi": 66,
      "hit": false,
      "t": 172708.05700000047,
      "d": 208.33300000001327,
      "v": 95
    },
    {
      "midi": 78,
      "hit": false,
      "t": 172708.05700000047,
      "d": 208.33300000001327,
      "v": 95
    },
    {
      "midi": 55,
      "hit": false,
      "t": 173124.7230000005,
      "d": 2083.329999999987,
      "v": 95
    },
    {
      "midi": 67,
      "hit": false,
      "t": 173124.7230000005,
      "d": 2083.329999999987,
      "v": 95
    },
    {
      "midi": 79,
      "hit": false,
      "t": 173124.7230000005,
      "d": 2083.329999999987,
      "v": 95
    }
  ]
}