{
  "jsonPath": "Unknown/Unknown/Richard Clayderman  James Last/everything-i-do-i-do-it-for-you.json",
  "path": "Unknown\\Unknown\\Richard Clayderman  James Last\\(Everything I Do) I Do It For You.mid",
  "name": "(Everything I Do) I Do It For You",
  "difficulty": "Advanced",
  "bpm": 120,
  "notes": [
    {
      "midi": 48,
      "hit": false,
      "t": 1994.7916666666667,
      "d": 3906.25,
      "v": 91
    },
    {
      "midi": 55,
      "hit": false,
      "t": 2020.8333333333335,
      "d": 3916.6666666666674,
      "v": 94
    },
    {
      "midi": 60,
      "hit": false,
      "t": 2046.8750000000002,
      "d": 427.0833333333337,
      "v": 84
    },
    {
      "midi": 67,
      "hit": false,
      "t": 2088.541666666667,
      "d": 760.416666666667,
      "v": 87
    },
    {
      "midi": 72,
      "hit": false,
      "t": 2125.0000000000005,
      "d": 2848.9583333333335,
      "v": 94
    },
    {
      "midi": 76,
      "hit": false,
      "t": 2208.333333333334,
      "d": 2473.958333333333,
      "v": 94
    },
    {
      "midi": 60,
      "hit": false,
      "t": 2552.083333333334,
      "d": 916.666666666667,
      "v": 28
    },
    {
      "midi": 67,
      "hit": false,
      "t": 3026.0416666666674,
      "d": 916.666666666667,
      "v": 37
    },
    {
      "midi": 60,
      "hit": false,
      "t": 3515.625000000001,
      "d": 937.5,
      "v": 39
    },
    {
      "midi": 67,
      "hit": false,
      "t": 3994.791666666668,
      "d": 729.1666666666661,
      "v": 44
    },
    {
      "midi": 60,
      "hit": false,
      "t": 4489.583333333334,
      "d": 953.125,
      "v": 53
    },
    {
      "midi": 67,
      "hit": false,
      "t": 4734.375000000001,
      "d": 739.583333333333,
      "v": 68
    },
    {
      "midi": 77,
      "hit": false,
      "t": 4979.166666666667,
      "d": 432.29166666666697,
      "v": 106
    },
    {
      "midi": 72,
      "hit": false,
      "t": 4984.375000000001,
      "d": 479.16666666666606,
      "v": 87
    },
    {
      "midi": 79,
      "hit": false,
      "t": 5244.791666666667,
      "d": 203.125,
      "v": 97
    },
    {
      "midi": 79,
      "hit": false,
      "t": 5463.541666666667,
      "d": 36.45833333333303,
      "v": 87
    },
    {
      "midi": 72,
      "hit": false,
      "t": 5473.958333333334,
      "d": 479.16666666666697,
      "v": 81
    },
    {
      "midi": 60,
      "hit": false,
      "t": 5479.166666666667,
      "d": 958.3333333333339,
      "v": 53
    },
    {
      "midi": 77,
      "hit": false,
      "t": 5510.416666666667,
      "d": 437.5,
      "v": 112
    },
    {
      "midi": 76,
      "hit": false,
      "t": 5744.791666666667,
      "d": 312.5,
      "v": 110
    },
    {
      "midi": 48,
      "hit": false,
      "t": 5911.458333333334,
      "d": 3921.875,
      "v": 78
    },
    {
      "midi": 55,
      "hit": false,
      "t": 5947.916666666668,
      "d": 3927.083333333332,
      "v": 74
    },
    {
      "midi": 62,
      "hit": false,
      "t": 5979.166666666668,
      "d": 520.833333333333,
      "v": 68
    },
    {
      "midi": 67,
      "hit": false,
      "t": 5984.375000000001,
      "d": 984.375,
      "v": 65
    },
    {
      "midi": 71,
      "hit": false,
      "t": 5989.583333333334,
      "d": 2484.375,
      "v": 74
    },
    {
      "midi": 74,
      "hit": false,
      "t": 6015.625,
      "d": 2875,
      "v": 125
    },
    {
      "midi": 62,
      "hit": false,
      "t": 6510.416666666668,
      "d": 911.458333333333,
      "v": 53
    },
    {
      "midi": 67,
      "hit": false,
      "t": 7020.833333333334,
      "d": 911.458333333333,
      "v": 46
    },
    {
      "midi": 62,
      "hit": false,
      "t": 7505.208333333334,
      "d": 869.7916666666661,
      "v": 39
    },
    {
      "midi": 67,
      "hit": false,
      "t": 7984.375,
      "d": 713.5416666666661,
      "v": 45
    },
    {
      "midi": 62,
      "hit": false,
      "t": 8484.375,
      "d": 1494.7916666666679,
      "v": 69
    },
    {
      "midi": 67,
      "hit": false,
      "t": 8744.791666666666,
      "d": 208.33333333333394,
      "v": 69
    },
    {
      "midi": 67,
      "hit": false,
      "t": 8968.75,
      "d": 500,
      "v": 102
    },
    {
      "midi": 74,
      "hit": false,
      "t": 9000,
      "d": 473.9583333333321,
      "v": 127
    },
    {
      "midi": 79,
      "hit": false,
      "t": 9244.791666666666,
      "d": 239.58333333333212,
      "v": 85
    },
    {
      "midi": 67,
      "hit": false,
      "t": 9473.958333333334,
      "d": 473.9583333333321,
      "v": 102
    },
    {
      "midi": 79,
      "hit": false,
      "t": 9489.583333333332,
      "d": 494.7916666666679,
      "v": 105
    },
    {
      "midi": 72,
      "hit": false,
      "t": 9739.583333333332,
      "d": 239.58333333333394,
      "v": 86
    },
    {
      "midi": 48,
      "hit": false,
      "t": 9906.25,
      "d": 3869.791666666668,
      "v": 43
    },
    {
      "midi": 55,
      "hit": false,
      "t": 9932.291666666666,
      "d": 3958.3333333333358,
      "v": 51
    },
    {
      "midi": 60,
      "hit": false,
      "t": 9953.125,
      "d": 500,
      "v": 73
    },
    {
      "midi": 65,
      "hit": false,
      "t": 9973.958333333334,
      "d": 979.1666666666661,
      "v": 78
    },
    {
      "midi": 69,
      "hit": false,
      "t": 9989.583333333334,
      "d": 2484.375000000002,
      "v": 74
    },
    {
      "midi": 72,
      "hit": false,
      "t": 10000,
      "d": 2880.208333333334,
      "v": 112
    },
    {
      "midi": 60,
      "hit": false,
      "t": 10505.208333333334,
      "d": 911.4583333333321,
      "v": 53
    },
    {
      "midi": 65,
      "hit": false,
      "t": 11000,
      "d": 911.4583333333339,
      "v": 46
    },
    {
      "midi": 60,
      "hit": false,
      "t": 11500,
      "d": 937.5000000000018,
      "v": 39
    },
    {
      "midi": 65,
      "hit": false,
      "t": 11979.166666666668,
      "d": 708.3333333333339,
      "v": 45
    },
    {
      "midi": 60,
      "hit": false,
      "t": 12484.375000000002,
      "d": 1494.791666666666,
      "v": 69
    },
    {
      "midi": 65,
      "hit": false,
      "t": 12968.750000000002,
      "d": 479.16666666666606,
      "v": 92
    },
    {
      "midi": 72,
      "hit": false,
      "t": 12989.583333333334,
      "d": 494.79166666666606,
      "v": 104
    },
    {
      "midi": 74,
      "hit": false,
      "t": 13234.375,
      "d": 208.33333333333394,
      "v": 99
    },
    {
      "midi": 65,
      "hit": false,
      "t": 13458.333333333334,
      "d": 494.7916666666679,
      "v": 85
    },
    {
      "midi": 74,
      "hit": false,
      "t": 13458.333333333334,
      "d": 187.5,
      "v": 78
    },
    {
      "midi": 76,
      "hit": false,
      "t": 13500,
      "d": 479.16666666666606,
      "v": 114
    },
    {
      "midi": 72,
      "hit": false,
      "t": 13734.375,
      "d": 260.41666666666606,
      "v": 99
    },
    {
      "midi": 48,
      "hit": false,
      "t": 13901.041666666668,
      "d": 4062.5,
      "v": 64
    },
    {
      "midi": 55,
      "hit": false,
      "t": 13932.291666666668,
      "d": 1947.9166666666679,
      "v": 94
    },
    {
      "midi": 62,
      "hit": false,
      "t": 13953.125000000002,
      "d": 416.66666666666606,
      "v": 80
    },
    {
      "midi": 74,
      "hit": false,
      "t": 14005.208333333332,
      "d": 2942.708333333332,
      "v": 115
    },
    {
      "midi": 67,
      "hit": false,
      "t": 14104.166666666668,
      "d": 828.125,
      "v": 73
    },
    {
      "midi": 62,
      "hit": false,
      "t": 14505.208333333334,
      "d": 875.0000000000018,
      "v": 68
    },
    {
      "midi": 67,
      "hit": false,
      "t": 14984.375000000002,
      "d": 895.8333333333339,
      "v": 77
    },
    {
      "midi": 62,
      "hit": false,
      "t": 15505.208333333336,
      "d": 437.5,
      "v": 97
    },
    {
      "midi": 55,
      "hit": false,
      "t": 15984.375000000002,
      "d": 1947.916666666666,
      "v": 65
    },
    {
      "midi": 60,
      "hit": false,
      "t": 16020.833333333336,
      "d": 1906.25,
      "v": 71
    },
    {
      "midi": 62,
      "hit": false,
      "t": 16041.66666666667,
      "d": 1906.2499999999982,
      "v": 71
    },
    {
      "midi": 67,
      "hit": false,
      "t": 16104.16666666667,
      "d": 1843.7499999999982,
      "v": 88
    },
    {
      "midi": 36,
      "hit": false,
      "t": 17994.791666666668,
      "d": 3807.2916666666642,
      "v": 91
    },
    {
      "midi": 48,
      "hit": false,
      "t": 18046.875,
      "d": 427.0833333333321,
      "v": 84
    },
    {
      "midi": 55,
      "hit": false,
      "t": 18083.333333333332,
      "d": 765.625,
      "v": 87
    },
    {
      "midi": 60,
      "hit": false,
      "t": 18125,
      "d": 2848.958333333332,
      "v": 94
    },
    {
      "midi": 64,
      "hit": false,
      "t": 18208.333333333332,
      "d": 2473.958333333332,
      "v": 106
    },
    {
      "midi": 55,
      "hit": false,
      "t": 19994.791666666664,
      "d": 729.1666666666679,
      "v": 44
    },
    {
      "midi": 48,
      "hit": false,
      "t": 20489.583333333332,
      "d": 953.125,
      "v": 75
    },
    {
      "midi": 55,
      "hit": false,
      "t": 20734.375,
      "d": 739.5833333333321,
      "v": 68
    },
    {
      "midi": 65,
      "hit": false,
      "t": 20979.166666666664,
      "d": 437.5,
      "v": 106
    },
    {
      "midi": 60,
      "hit": false,
      "t": 20984.375,
      "d": 484.375,
      "v": 87
    },
    {
      "midi": 67,
      "hit": false,
      "t": 21244.791666666664,
      "d": 203.125,
      "v": 97
    },
    {
      "midi": 67,
      "hit": false,
      "t": 21463.541666666664,
      "d": 270.8333333333321,
      "v": 87
    },
    {
      "midi": 48,
      "hit": false,
      "t": 21479.166666666664,
      "d": 958.3333333333321,
      "v": 53
    },
    {
      "midi": 60,
      "hit": false,
      "t": 21479.166666666664,
      "d": 2369.7916666666642,
      "v": 81
    },
    {
      "midi": 65,
      "hit": false,
      "t": 21510.416666666664,
      "d": 437.5,
      "v": 112
    },
    {
      "midi": 64,
      "hit": false,
      "t": 21749.999999999996,
      "d": 307.2916666666679,
      "v": 110
    },
    {
      "midi": 36,
      "hit": false,
      "t": 21947.916666666664,
      "d": 3958.333333333332,
      "v": 74
    },
    {
      "midi": 55,
      "hit": false,
      "t": 21984.374999999996,
      "d": 984.375,
      "v": 65
    },
    {
      "midi": 59,
      "hit": false,
      "t": 21989.58333333333,
      "d": 2484.375,
      "v": 74
    },
    {
      "midi": 62,
      "hit": false,
      "t": 22015.624999999996,
      "d": 2875,
      "v": 125
    },
    {
      "midi": 50,
      "hit": false,
      "t": 23505.20833333333,
      "d": 869.7916666666679,
      "v": 39
    },
    {
      "midi": 55,
      "hit": false,
      "t": 23989.58333333333,
      "d": 708.3333333333358,
      "v": 45
    },
    {
      "midi": 50,
      "hit": false,
      "t": 24484.374999999996,
      "d": 1494.7916666666679,
      "v": 69
    },
    {
      "midi": 55,
      "hit": false,
      "t": 24744.791666666664,
      "d": 208.33333333333212,
      "v": 69
    },
    {
      "midi": 55,
      "hit": false,
      "t": 24968.749999999996,
      "d": 500,
      "v": 102
    },
    {
      "midi": 62,
      "hit": false,
      "t": 24999.999999999996,
      "d": 473.95833333333576,
      "v": 127
    },
    {
      "midi": 67,
      "hit": false,
      "t": 25244.791666666664,
      "d": 239.58333333333576,
      "v": 85
    },
    {
      "midi": 55,
      "hit": false,
      "t": 25473.95833333333,
      "d": 473.95833333333576,
      "v": 102
    },
    {
      "midi": 67,
      "hit": false,
      "t": 25489.583333333332,
      "d": 494.79166666666424,
      "v": 105
    },
    {
      "midi": 60,
      "hit": false,
      "t": 25739.583333333332,
      "d": 239.58333333333212,
      "v": 86
    },
    {
      "midi": 36,
      "hit": false,
      "t": 25906.249999999996,
      "d": 3875.0000000000036,
      "v": 43
    },
    {
      "midi": 48,
      "hit": false,
      "t": 25953.124999999996,
      "d": 505.20833333333576,
      "v": 73
    },
    {
      "midi": 53,
      "hit": false,
      "t": 25989.58333333333,
      "d": 953.125,
      "v": 59
    },
    {
      "midi": 57,
      "hit": false,
      "t": 25989.58333333333,
      "d": 953.125,
      "v": 70
    },
    {
      "midi": 60,
      "hit": false,
      "t": 25999.999999999996,
      "d": 958.3333333333321,
      "v": 96
    },
    {
      "midi": 57,
      "hit": false,
      "t": 26989.58333333333,
      "d": 979.1666666666679,
      "v": 53
    },
    {
      "midi": 53,
      "hit": false,
      "t": 26989.58333333333,
      "d": 984.375,
      "v": 40
    },
    {
      "midi": 60,
      "hit": false,
      "t": 26999.999999999996,
      "d": 958.3333333333321,
      "v": 52
    },
    {
      "midi": 53,
      "hit": false,
      "t": 27979.166666666664,
      "d": 708.3333333333358,
      "v": 45
    },
    {
      "midi": 57,
      "hit": false,
      "t": 27989.58333333333,
      "d": 979.1666666666679,
      "v": 48
    },
    {
      "midi": 53,
      "hit": false,
      "t": 27989.58333333333,
      "d": 984.375,
      "v": 30
    },
    {
      "midi": 60,
      "hit": false,
      "t": 27999.999999999996,
      "d": 958.3333333333321,
      "v": 43
    },
    {
      "midi": 48,
      "hit": false,
      "t": 28489.583333333332,
      "d": 1489.5833333333358,
      "v": 69
    },
    {
      "midi": 57,
      "hit": false,
      "t": 28968.75,
      "d": 937.5,
      "v": 100
    },
    {
      "midi": 60,
      "hit": false,
      "t": 28968.75,
      "d": 937.5,
      "v": 61
    },
    {
      "midi": 53,
      "hit": false,
      "t": 29458.333333333332,
      "d": 494.7916666666679,
      "v": 90
    },
    {
      "midi": 36,
      "hit": false,
      "t": 29901.041666666668,
      "d": 4062.4999999999964,
      "v": 64
    },
    {
      "midi": 55,
      "hit": false,
      "t": 29958.33333333333,
      "d": 953.125,
      "v": 73
    },
    {
      "midi": 62,
      "hit": false,
      "t": 29989.58333333333,
      "d": 937.5,
      "v": 80
    },
    {
      "midi": 55,
      "hit": false,
      "t": 30963.54166666666,
      "d": 953.125,
      "v": 59
    },
    {
      "midi": 62,
      "hit": false,
      "t": 30984.374999999993,
      "d": 937.5,
      "v": 57
    },
    {
      "midi": 48,
      "hit": false,
      "t": 31489.583333333336,
      "d": 1223.9583333333321,
      "v": 32
    },
    {
      "midi": 55,
      "hit": false,
      "t": 31968.749999999993,
      "d": 708.3333333333321,
      "v": 38
    },
    {
      "midi": 62,
      "hit": false,
      "t": 31989.583333333325,
      "d": 937.5000000000036,
      "v": 48
    },
    {
      "midi": 55,
      "hit": false,
      "t": 32750,
      "d": 661.4583333333285,
      "v": 53
    },
    {
      "midi": 67,
      "hit": false,
      "t": 32963.541666666664,
      "d": 489.5833333333285,
      "v": 90
    },
    {
      "midi": 74,
      "hit": false,
      "t": 32963.541666666664,
      "d": 1020.8333333333358,
      "v": 102
    },
    {
      "midi": 67,
      "hit": false,
      "t": 33463.54166666666,
      "d": 500.0000000000073,
      "v": 85
    },
    {
      "midi": 62,
      "hit": false,
      "t": 33479.16666666666,
      "d": 250,
      "v": 100
    },
    {
      "midi": 64,
      "hit": false,
      "t": 33713.54166666666,
      "d": 145.83333333333576,
      "v": 78
    },
    {
      "midi": 62,
      "hit": false,
      "t": 33760.41666666666,
      "d": 187.50000000000728,
      "v": 84
    },
    {
      "midi": 60,
      "hit": false,
      "t": 33796.87499999999,
      "d": 145.83333333333576,
      "v": 95
    },
    {
      "midi": 62,
      "hit": false,
      "t": 33989.583333333336,
      "d": 276.0416666666715,
      "v": 105
    },
    {
      "midi": 36,
      "hit": false,
      "t": 33994.79166666667,
      "d": 3807.291666666679,
      "v": 91
    },
    {
      "midi": 67,
      "hit": false,
      "t": 34000.00000000001,
      "d": 953.125,
      "v": 78
    },
    {
      "midi": 48,
      "hit": false,
      "t": 34046.87500000001,
      "d": 687.5,
      "v": 84
    },
    {
      "midi": 64,
      "hit": false,
      "t": 34239.58333333334,
      "d": 723.9583333333285,
      "v": 55
    },
    {
      "midi": 48,
      "hit": false,
      "t": 34744.79166666667,
      "d": 244.79166666666424,
      "v": 49
    },
    {
      "midi": 60,
      "hit": false,
      "t": 34989.583333333336,
      "d": 916.6666666666715,
      "v": 51
    },
    {
      "midi": 76,
      "hit": false,
      "t": 35005.20833333333,
      "d": 739.5833333333358,
      "v": 75
    },
    {
      "midi": 64,
      "hit": false,
      "t": 35010.41666666667,
      "d": 916.6666666666715,
      "v": 50
    },
    {
      "midi": 48,
      "hit": false,
      "t": 35515.62500000001,
      "d": 937.5000000000073,
      "v": 39
    },
    {
      "midi": 77,
      "hit": false,
      "t": 35739.58333333333,
      "d": 380.20833333334303,
      "v": 58
    },
    {
      "midi": 60,
      "hit": false,
      "t": 35994.79166666668,
      "d": 989.5833333333358,
      "v": 44
    },
    {
      "midi": 64,
      "hit": false,
      "t": 35994.79166666668,
      "d": 1447.9166666666715,
      "v": 44
    },
    {
      "midi": 76,
      "hit": false,
      "t": 36000,
      "d": 234.37500000000728,
      "v": 70
    },
    {
      "midi": 74,
      "hit": false,
      "t": 36114.583333333336,
      "d": 250.00000000000728,
      "v": 49
    },
    {
      "midi": 72,
      "hit": false,
      "t": 36255.20833333334,
      "d": 734.375,
      "v": 48
    },
    {
      "midi": 48,
      "hit": false,
      "t": 36489.58333333335,
      "d": 953.125,
      "v": 53
    },
    {
      "midi": 55,
      "hit": false,
      "t": 36734.375000000015,
      "d": 583.3333333333358,
      "v": 68
    },
    {
      "midi": 65,
      "hit": false,
      "t": 36979.16666666668,
      "d": 437.5,
      "v": 106
    },
    {
      "midi": 60,
      "hit": false,
      "t": 36989.58333333335,
      "d": 484.375,
      "v": 87
    },
    {
      "midi": 67,
      "hit": false,
      "t": 37244.79166666668,
      "d": 203.125,
      "v": 97
    },
    {
      "midi": 67,
      "hit": false,
      "t": 37463.54166666668,
      "d": 270.83333333333576,
      "v": 87
    },
    {
      "midi": 60,
      "hit": false,
      "t": 37479.166666666686,
      "d": 500,
      "v": 81
    },
    {
      "midi": 48,
      "hit": false,
      "t": 37479.166666666686,
      "d": 958.3333333333358,
      "v": 53
    },
    {
      "midi": 65,
      "hit": false,
      "t": 37510.41666666668,
      "d": 437.5,
      "v": 112
    },
    {
      "midi": 64,
      "hit": false,
      "t": 37750.000000000015,
      "d": 307.29166666666424,
      "v": 110
    },
    {
      "midi": 36,
      "hit": false,
      "t": 37947.916666666686,
      "d": 3958.333333333321,
      "v": 74
    },
    {
      "midi": 55,
      "hit": false,
      "t": 37984.37500000002,
      "d": 984.375,
      "v": 65
    },
    {
      "midi": 59,
      "hit": false,
      "t": 37989.58333333336,
      "d": 1020.8333333333285,
      "v": 74
    },
    {
      "midi": 62,
      "hit": false,
      "t": 38015.625000000015,
      "d": 2437.5,
      "v": 125
    },
    {
      "midi": 74,
      "hit": false,
      "t": 39000.000000000015,
      "d": 848.9583333333358,
      "v": 67
    },
    {
      "midi": 55,
      "hit": false,
      "t": 39020.83333333335,
      "d": 916.6666666666642,
      "v": 46
    },
    {
      "midi": 59,
      "hit": false,
      "t": 39020.83333333335,
      "d": 958.3333333333285,
      "v": 46
    },
    {
      "midi": 50,
      "hit": false,
      "t": 39505.20833333335,
      "d": 869.791666666657,
      "v": 39
    },
    {
      "midi": 72,
      "hit": false,
      "t": 39750.000000000015,
      "d": 359.375,
      "v": 36
    },
    {
      "midi": 59,
      "hit": false,
      "t": 39989.58333333334,
      "d": 484.375,
      "v": 45
    },
    {
      "midi": 55,
      "hit": false,
      "t": 39989.58333333334,
      "d": 708.3333333333285,
      "v": 45
    },
    {
      "midi": 71,
      "hit": false,
      "t": 40000.000000000015,
      "d": 239.58333333333576,
      "v": 45
    },
    {
      "midi": 69,
      "hit": false,
      "t": 40125.000000000015,
      "d": 234.375,
      "v": 40
    },
    {
      "midi": 67,
      "hit": false,
      "t": 40250.000000000015,
      "d": 609.375,
      "v": 37
    },
    {
      "midi": 50,
      "hit": false,
      "t": 40484.37500000001,
      "d": 1494.7916666666715,
      "v": 69
    },
    {
      "midi": 55,
      "hit": false,
      "t": 40744.79166666667,
      "d": 208.33333333333576,
      "v": 69
    },
    {
      "midi": 55,
      "hit": false,
      "t": 40968.75000000001,
      "d": 500,
      "v": 102
    },
    {
      "midi": 62,
      "hit": false,
      "t": 41000.000000000015,
      "d": 473.9583333333285,
      "v": 127
    },
    {
      "midi": 67,
      "hit": false,
      "t": 41244.79166666668,
      "d": 244.79166666666424,
      "v": 85
    },
    {
      "midi": 55,
      "hit": false,
      "t": 41473.95833333334,
      "d": 473.95833333333576,
      "v": 102
    },
    {
      "midi": 67,
      "hit": false,
      "t": 41489.58333333334,
      "d": 500,
      "v": 105
    },
    {
      "midi": 60,
      "hit": false,
      "t": 41744.79166666668,
      "d": 234.375,
      "v": 86
    },
    {
      "midi": 36,
      "hit": false,
      "t": 41911.45833333334,
      "d": 3869.7916666666715,
      "v": 43
    },
    {
      "midi": 53,
      "hit": false,
      "t": 41989.58333333334,
      "d": 953.125,
      "v": 59
    },
    {
      "midi": 57,
      "hit": false,
      "t": 41994.79166666668,
      "d": 947.9166666666642,
      "v": 70
    },
    {
      "midi": 60,
      "hit": false,
      "t": 42005.20833333334,
      "d": 953.125,
      "v": 96
    },
    {
      "midi": 53,
      "hit": false,
      "t": 42989.58333333334,
      "d": 984.3750000000073,
      "v": 40
    },
    {
      "midi": 57,
      "hit": false,
      "t": 42994.79166666668,
      "d": 973.9583333333358,
      "v": 53
    },
    {
      "midi": 53,
      "hit": false,
      "t": 43000.000000000015,
      "d": 916.6666666666642,
      "v": 46
    },
    {
      "midi": 60,
      "hit": false,
      "t": 43000.000000000015,
      "d": 958.3333333333358,
      "v": 52
    },
    {
      "midi": 48,
      "hit": false,
      "t": 43500.000000000015,
      "d": 937.5,
      "v": 39
    },
    {
      "midi": 53,
      "hit": false,
      "t": 43984.375000000015,
      "d": 703.125,
      "v": 45
    },
    {
      "midi": 57,
      "hit": false,
      "t": 43994.791666666686,
      "d": 848.9583333333358,
      "v": 48
    },
    {
      "midi": 53,
      "hit": false,
      "t": 43994.791666666686,
      "d": 854.1666666666715,
      "v": 30
    },
    {
      "midi": 60,
      "hit": false,
      "t": 44000.00000000002,
      "d": 833.3333333333358,
      "v": 43
    },
    {
      "midi": 48,
      "hit": false,
      "t": 44489.58333333335,
      "d": 1489.5833333333358,
      "v": 69
    },
    {
      "midi": 41,
      "hit": false,
      "t": 44958.33333333335,
      "d": 1020.8333333333358,
      "v": 90
    },
    {
      "midi": 69,
      "hit": false,
      "t": 44979.166666666686,
      "d": 989.5833333333285,
      "v": 105
    },
    {
      "midi": 65,
      "hit": false,
      "t": 45223.95833333335,
      "d": 765.625,
      "v": 82
    },
    {
      "midi": 60,
      "hit": false,
      "t": 45463.541666666686,
      "d": 510.41666666666424,
      "v": 66
    },
    {
      "midi": 57,
      "hit": false,
      "t": 45723.95833333335,
      "d": 265.625,
      "v": 85
    },
    {
      "midi": 43,
      "hit": false,
      "t": 45953.125000000015,
      "d": 1994.7916666666788,
      "v": 61
    },
    {
      "midi": 64,
      "hit": false,
      "t": 46010.416666666686,
      "d": 979.1666666666715,
      "v": 98
    },
    {
      "midi": 55,
      "hit": false,
      "t": 46484.37500000002,
      "d": 1104.1666666666715,
      "v": 39
    },
    {
      "midi": 60,
      "hit": false,
      "t": 46989.58333333336,
      "d": 973.9583333333358,
      "v": 77
    },
    {
      "midi": 64,
      "hit": false,
      "t": 47489.58333333336,
      "d": 515.6250000000073,
      "v": 81
    },
    {
      "midi": 43,
      "hit": false,
      "t": 47968.75000000003,
      "d": 2026.0416666666715,
      "v": 77
    },
    {
      "midi": 59,
      "hit": false,
      "t": 47989.583333333365,
      "d": 1781.25,
      "v": 83
    },
    {
      "midi": 62,
      "hit": false,
      "t": 48010.4166666667,
      "d": 1416.6666666666642,
      "v": 98
    },
    {
      "midi": 55,
      "hit": false,
      "t": 48489.583333333365,
      "d": 973.9583333333358,
      "v": 43
    },
    {
      "midi": 67,
      "hit": false,
      "t": 49489.58333333336,
      "d": 494.7916666666715,
      "v": 85
    },
    {
      "midi": 41,
      "hit": false,
      "t": 49494.7916666667,
      "d": 281.25,
      "v": 60
    },
    {
      "midi": 74,
      "hit": false,
      "t": 49510.41666666669,
      "d": 328.125,
      "v": 95
    },
    {
      "midi": 40,
      "hit": false,
      "t": 49744.7916666667,
      "d": 244.79166666666424,
      "v": 46
    },
    {
      "midi": 76,
      "hit": false,
      "t": 49755.20833333336,
      "d": 229.16666666667152,
      "v": 80
    },
    {
      "midi": 50,
      "hit": false,
      "t": 50000.00000000004,
      "d": 2890.625,
      "v": 91
    },
    {
      "midi": 57,
      "hit": false,
      "t": 50020.83333333337,
      "d": 2880.2083333333285,
      "v": 68
    },
    {
      "midi": 77,
      "hit": false,
      "t": 50072.91666666669,
      "d": 932.2916666666642,
      "v": 82
    },
    {
      "midi": 69,
      "hit": false,
      "t": 50489.58333333336,
      "d": 979.1666666666642,
      "v": 65
    },
    {
      "midi": 65,
      "hit": false,
      "t": 50958.33333333336,
      "d": 666.6666666666642,
      "v": 64
    },
    {
      "midi": 74,
      "hit": false,
      "t": 50984.37500000002,
      "d": 661.4583333333358,
      "v": 80
    },
    {
      "midi": 67,
      "hit": false,
      "t": 51453.12500000002,
      "d": 473.95833333333576,
      "v": 59
    },
    {
      "midi": 76,
      "hit": false,
      "t": 51473.95833333336,
      "d": 458.33333333333576,
      "v": 73
    },
    {
      "midi": 69,
      "hit": false,
      "t": 51942.70833333336,
      "d": 994.7916666666642,
      "v": 59
    },
    {
      "midi": 77,
      "hit": false,
      "t": 51968.75000000002,
      "d": 968.75,
      "v": 81
    },
    {
      "midi": 81,
      "hit": false,
      "t": 52479.166666666686,
      "d": 484.375,
      "v": 43
    },
    {
      "midi": 52,
      "hit": false,
      "t": 52947.9166666667,
      "d": 1020.8333333333358,
      "v": 44
    },
    {
      "midi": 67,
      "hit": false,
      "t": 52947.9166666667,
      "d": 1020.8333333333358,
      "v": 34
    },
    {
      "midi": 72,
      "hit": false,
      "t": 52968.75000000002,
      "d": 994.7916666666642,
      "v": 49
    },
    {
      "midi": 79,
      "hit": false,
      "t": 52989.58333333336,
      "d": 546.875,
      "v": 61
    },
    {
      "midi": 76,
      "hit": false,
      "t": 53468.75000000002,
      "d": 562.5,
      "v": 35
    },
    {
      "midi": 65,
      "hit": false,
      "t": 53953.12500000002,
      "d": 1953.125,
      "v": 44
    },
    {
      "midi": 53,
      "hit": false,
      "t": 53973.95833333337,
      "d": 2984.375,
      "v": 49
    },
    {
      "midi": 69,
      "hit": false,
      "t": 53984.37500000002,
      "d": 1932.2916666666642,
      "v": 44
    },
    {
      "midi": 62,
      "hit": false,
      "t": 53989.58333333337,
      "d": 2885.4166666666642,
      "v": 38
    },
    {
      "midi": 74,
      "hit": false,
      "t": 54020.83333333336,
      "d": 1942.7083333333285,
      "v": 48
    },
    {
      "midi": 65,
      "hit": false,
      "t": 55968.75000000002,
      "d": 963.5416666666642,
      "v": 47
    },
    {
      "midi": 69,
      "hit": false,
      "t": 55989.58333333336,
      "d": 958.3333333333285,
      "v": 47
    },
    {
      "midi": 74,
      "hit": false,
      "t": 56000.00000000002,
      "d": 973.9583333333285,
      "v": 56
    },
    {
      "midi": 48,
      "hit": false,
      "t": 56958.33333333337,
      "d": 994.7916666666715,
      "v": 61
    },
    {
      "midi": 55,
      "hit": false,
      "t": 56979.16666666671,
      "d": 989.5833333333358,
      "v": 55
    },
    {
      "midi": 67,
      "hit": false,
      "t": 56989.58333333335,
      "d": 989.5833333333358,
      "v": 65
    },
    {
      "midi": 76,
      "hit": false,
      "t": 57026.041666666686,
      "d": 468.75,
      "v": 77
    },
    {
      "midi": 74,
      "hit": false,
      "t": 57250.00000000002,
      "d": 244.79166666666424,
      "v": 64
    },
    {
      "midi": 72,
      "hit": false,
      "t": 57500.00000000002,
      "d": 494.79166666666424,
      "v": 62
    },
    {
      "midi": 50,
      "hit": false,
      "t": 57994.79166666671,
      "d": 2895.8333333333285,
      "v": 74
    },
    {
      "midi": 57,
      "hit": false,
      "t": 58020.83333333337,
      "d": 2880.2083333333285,
      "v": 66
    },
    {
      "midi": 77,
      "hit": false,
      "t": 58072.916666666686,
      "d": 932.2916666666715,
      "v": 82
    },
    {
      "midi": 69,
      "hit": false,
      "t": 58489.58333333335,
      "d": 979.1666666666715,
      "v": 65
    },
    {
      "midi": 65,
      "hit": false,
      "t": 58963.541666666686,
      "d": 661.4583333333358,
      "v": 64
    },
    {
      "midi": 74,
      "hit": false,
      "t": 58984.37500000002,
      "d": 661.4583333333358,
      "v": 80
    },
    {
      "midi": 67,
      "hit": false,
      "t": 59453.12500000002,
      "d": 473.95833333333576,
      "v": 59
    },
    {
      "midi": 76,
      "hit": false,
      "t": 59473.95833333336,
      "d": 458.33333333333576,
      "v": 73
    },
    {
      "midi": 69,
      "hit": false,
      "t": 59942.70833333336,
      "d": 994.7916666666642,
      "v": 59
    },
    {
      "midi": 77,
      "hit": false,
      "t": 59968.75000000002,
      "d": 968.75,
      "v": 81
    },
    {
      "midi": 81,
      "hit": false,
      "t": 60479.166666666686,
      "d": 484.375,
      "v": 43
    },
    {
      "midi": 52,
      "hit": false,
      "t": 60942.708333333365,
      "d": 1026.0416666666715,
      "v": 44
    },
    {
      "midi": 67,
      "hit": false,
      "t": 60947.9166666667,
      "d": 1020.8333333333358,
      "v": 34
    },
    {
      "midi": 72,
      "hit": false,
      "t": 60968.75000000002,
      "d": 994.7916666666642,
      "v": 49
    },
    {
      "midi": 79,
      "hit": false,
      "t": 60989.58333333336,
      "d": 552.0833333333285,
      "v": 61
    },
    {
      "midi": 76,
      "hit": false,
      "t": 61468.75000000002,
      "d": 562.5,
      "v": 35
    },
    {
      "midi": 65,
      "hit": false,
      "t": 61953.12500000002,
      "d": 953.125,
      "v": 44
    },
    {
      "midi": 53,
      "hit": false,
      "t": 61973.95833333337,
      "d": 2994.7916666666715,
      "v": 45
    },
    {
      "midi": 69,
      "hit": false,
      "t": 61984.37500000002,
      "d": 932.2916666666642,
      "v": 44
    },
    {
      "midi": 62,
      "hit": false,
      "t": 61989.58333333337,
      "d": 1744.7916666666715,
      "v": 37
    },
    {
      "midi": 74,
      "hit": false,
      "t": 62020.83333333336,
      "d": 942.7083333333285,
      "v": 48
    },
    {
      "midi": 65,
      "hit": false,
      "t": 62968.75000000002,
      "d": 1838.5416666666642,
      "v": 33
    },
    {
      "midi": 69,
      "hit": false,
      "t": 62989.58333333336,
      "d": 1833.3333333333285,
      "v": 34
    },
    {
      "midi": 74,
      "hit": false,
      "t": 63000.00000000002,
      "d": 1848.9583333333285,
      "v": 41
    },
    {
      "midi": 45,
      "hit": false,
      "t": 63494.79166666671,
      "d": 500,
      "v": 23
    },
    {
      "midi": 50,
      "hit": false,
      "t": 64000.000000000044,
      "d": 953.125,
      "v": 35
    },
    {
      "midi": 57,
      "hit": false,
      "t": 64708.33333333338,
      "d": 744.7916666666642,
      "v": 47
    },
    {
      "midi": 65,
      "hit": false,
      "t": 64973.95833333335,
      "d": 989.5833333333358,
      "v": 42
    },
    {
      "midi": 69,
      "hit": false,
      "t": 64994.791666666686,
      "d": 984.375,
      "v": 40
    },
    {
      "midi": 74,
      "hit": false,
      "t": 65000.00000000002,
      "d": 994.7916666666642,
      "v": 48
    },
    {
      "midi": 62,
      "hit": false,
      "t": 65494.79166666671,
      "d": 437.5000000000073,
      "v": 56
    },
    {
      "midi": 43,
      "hit": false,
      "t": 65994.79166666672,
      "d": 3838.541666666657,
      "v": 37
    },
    {
      "midi": 60,
      "hit": false,
      "t": 66020.83333333339,
      "d": 432.2916666666715,
      "v": 65
    },
    {
      "midi": 64,
      "hit": false,
      "t": 66046.87500000006,
      "d": 2458.333333333314,
      "v": 79
    },
    {
      "midi": 67,
      "hit": false,
      "t": 66088.54166666673,
      "d": 875,
      "v": 63
    },
    {
      "midi": 72,
      "hit": false,
      "t": 66125.00000000006,
      "d": 843.75,
      "v": 63
    },
    {
      "midi": 76,
      "hit": false,
      "t": 66208.33333333339,
      "d": 2479.166666666657,
      "v": 77
    },
    {
      "midi": 60,
      "hit": false,
      "t": 66557.29166666673,
      "d": 911.4583333333285,
      "v": 28
    },
    {
      "midi": 67,
      "hit": false,
      "t": 67031.25000000006,
      "d": 416.6666666666715,
      "v": 37
    },
    {
      "midi": 60,
      "hit": false,
      "t": 67520.83333333339,
      "d": 916.666666666657,
      "v": 39
    },
    {
      "midi": 67,
      "hit": false,
      "t": 67994.79166666672,
      "d": 734.375,
      "v": 44
    },
    {
      "midi": 60,
      "hit": false,
      "t": 68489.58333333337,
      "d": 958.333333333343,
      "v": 53
    },
    {
      "midi": 67,
      "hit": false,
      "t": 68739.58333333339,
      "d": 739.5833333333285,
      "v": 68
    },
    {
      "midi": 77,
      "hit": false,
      "t": 68984.37500000001,
      "d": 432.2916666666715,
      "v": 106
    },
    {
      "midi": 72,
      "hit": false,
      "t": 68989.58333333339,
      "d": 458.3333333333285,
      "v": 87
    },
    {
      "midi": 79,
      "hit": false,
      "t": 69244.79166666669,
      "d": 208.33333333332848,
      "v": 97
    },
    {
      "midi": 79,
      "hit": false,
      "t": 69468.75000000001,
      "d": 328.125,
      "v": 87
    },
    {
      "midi": 72,
      "hit": false,
      "t": 69479.16666666672,
      "d": 479.1666666666424,
      "v": 81
    },
    {
      "midi": 60,
      "hit": false,
      "t": 69484.37500000004,
      "d": 463.54166666665697,
      "v": 53
    },
    {
      "midi": 77,
      "hit": false,
      "t": 69515.62500000001,
      "d": 432.2916666666715,
      "v": 112
    },
    {
      "midi": 76,
      "hit": false,
      "t": 69750.00000000001,
      "d": 312.50000000001455,
      "v": 110
    },
    {
      "midi": 43,
      "hit": false,
      "t": 69916.6666666667,
      "d": 3916.6666666666424,
      "v": 78
    },
    {
      "midi": 55,
      "hit": false,
      "t": 69953.12500000003,
      "d": 3979.1666666666424,
      "v": 74
    },
    {
      "midi": 62,
      "hit": false,
      "t": 69963.54166666669,
      "d": 536.4583333333285,
      "v": 68
    },
    {
      "midi": 67,
      "hit": false,
      "t": 69979.16666666669,
      "d": 984.375,
      "v": 65
    },
    {
      "midi": 71,
      "hit": false,
      "t": 69994.79166666669,
      "d": 515.625,
      "v": 74
    },
    {
      "midi": 74,
      "hit": false,
      "t": 70020.83333333336,
      "d": 2875,
      "v": 125
    },
    {
      "midi": 62,
      "hit": false,
      "t": 70510.41666666669,
      "d": 916.6666666666715,
      "v": 53
    },
    {
      "midi": 67,
      "hit": false,
      "t": 71010.41666666669,
      "d": 911.4583333333285,
      "v": 46
    },
    {
      "midi": 71,
      "hit": false,
      "t": 71020.83333333336,
      "d": 916.666666666657,
      "v": 45
    },
    {
      "midi": 62,
      "hit": false,
      "t": 71510.41666666669,
      "d": 1557.291666666657,
      "v": 39
    },
    {
      "midi": 67,
      "hit": false,
      "t": 71989.58333333334,
      "d": 1958.3333333333285,
      "v": 51
    },
    {
      "midi": 71,
      "hit": false,
      "t": 71989.58333333334,
      "d": 1963.541666666657,
      "v": 39
    },
    {
      "midi": 36,
      "hit": false,
      "t": 73890.62500000001,
      "d": 1593.7499999999854,
      "v": 43
    },
    {
      "midi": 48,
      "hit": false,
      "t": 73911.45833333334,
      "d": 1578.1249999999854,
      "v": 43
    },
    {
      "midi": 55,
      "hit": false,
      "t": 73932.29166666667,
      "d": 1557.291666666657,
      "v": 51
    },
    {
      "midi": 60,
      "hit": false,
      "t": 73953.125,
      "d": 2880.2083333332994,
      "v": 73
    },
    {
      "midi": 36,
      "hit": false,
      "t": 75489.58333333333,
      "d": 494.79166666665697,
      "v": 40
    },
    {
      "midi": 48,
      "hit": false,
      "t": 75494.79166666666,
      "d": 479.16666666665697,
      "v": 42
    },
    {
      "midi": 55,
      "hit": false,
      "t": 75499.99999999999,
      "d": 494.79166666665697,
      "v": 44
    },
    {
      "midi": 36,
      "hit": false,
      "t": 75989.58333333331,
      "d": 1958.333333333314,
      "v": 50
    },
    {
      "midi": 48,
      "hit": false,
      "t": 75994.79166666664,
      "d": 963.541666666657,
      "v": 52
    },
    {
      "midi": 55,
      "hit": false,
      "t": 75999.99999999997,
      "d": 968.75,
      "v": 54
    },
    {
      "midi": 48,
      "hit": false,
      "t": 76989.5833333333,
      "d": 723.9583333333285,
      "v": 64
    },
    {
      "midi": 55,
      "hit": false,
      "t": 77234.37499999997,
      "d": 708.3333333333285,
      "v": 73
    },
    {
      "midi": 60,
      "hit": false,
      "t": 77473.9583333333,
      "d": 682.291666666657,
      "v": 86
    },
    {
      "midi": 48,
      "hit": false,
      "t": 77713.54166666663,
      "d": 1760.4166666666715,
      "v": 76
    },
    {
      "midi": 36,
      "hit": false,
      "t": 77953.12499999996,
      "d": 1416.6666666666715,
      "v": 55
    },
    {
      "midi": 55,
      "hit": false,
      "t": 78010.41666666663,
      "d": 1447.9166666666715,
      "v": 67
    },
    {
      "midi": 36,
      "hit": false,
      "t": 79489.5833333333,
      "d": 494.79166666665697,
      "v": 40
    },
    {
      "midi": 48,
      "hit": false,
      "t": 79494.79166666663,
      "d": 484.375,
      "v": 42
    },
    {
      "midi": 55,
      "hit": false,
      "t": 79499.99999999996,
      "d": 494.79166666665697,
      "v": 44
    },
    {
      "midi": 36,
      "hit": false,
      "t": 79989.58333333328,
      "d": 973.9583333333285,
      "v": 50
    },
    {
      "midi": 48,
      "hit": false,
      "t": 79994.79166666661,
      "d": 989.5833333333285,
      "v": 52
    },
    {
      "midi": 55,
      "hit": false,
      "t": 79999.99999999994,
      "d": 994.7916666666715,
      "v": 54
    },
    {
      "midi": 43,
      "hit": false,
      "t": 80979.16666666661,
      "d": 958.3333333333285,
      "v": 84
    },
    {
      "midi": 55,
      "hit": false,
      "t": 81239.58333333328,
      "d": 473.9583333333285,
      "v": 90
    },
    {
      "midi": 67,
      "hit": false,
      "t": 81494.79166666661,
      "d": 479.16666666665697,
      "v": 80
    },
    {
      "midi": 55,
      "hit": false,
      "t": 81749.99999999994,
      "d": 244.79166666665697,
      "v": 67
    },
    {
      "midi": 36,
      "hit": false,
      "t": 81999.99999999993,
      "d": 3807.291666666628,
      "v": 91
    },
    {
      "midi": 48,
      "hit": false,
      "t": 82052.08333333326,
      "d": 427.0833333333285,
      "v": 84
    },
    {
      "midi": 55,
      "hit": false,
      "t": 82088.54166666658,
      "d": 765.625,
      "v": 87
    },
    {
      "midi": 60,
      "hit": false,
      "t": 82130.20833333326,
      "d": 2848.9583333332994,
      "v": 94
    },
    {
      "midi": 64,
      "hit": false,
      "t": 82213.54166666658,
      "d": 2473.958333333314,
      "v": 106
    },
    {
      "midi": 55,
      "hit": false,
      "t": 83031.24999999991,
      "d": 916.666666666657,
      "v": 37
    },
    {
      "midi": 48,
      "hit": false,
      "t": 83520.83333333324,
      "d": 932.291666666657,
      "v": 39
    },
    {
      "midi": 55,
      "hit": false,
      "t": 83994.79166666657,
      "d": 713.541666666657,
      "v": 44
    },
    {
      "midi": 48,
      "hit": false,
      "t": 84489.58333333323,
      "d": 958.3333333333285,
      "v": 53
    },
    {
      "midi": 55,
      "hit": false,
      "t": 84739.58333333323,
      "d": 739.5833333333285,
      "v": 68
    },
    {
      "midi": 65,
      "hit": false,
      "t": 84984.37500000003,
      "d": 432.2916666666715,
      "v": 106
    },
    {
      "midi": 60,
      "hit": false,
      "t": 84989.58333333323,
      "d": 479.16666666665697,
      "v": 87
    },
    {
      "midi": 67,
      "hit": false,
      "t": 85244.7916666667,
      "d": 208.33333333332848,
      "v": 97
    },
    {
      "midi": 67,
      "hit": false,
      "t": 85468.75000000003,
      "d": 265.625,
      "v": 87
    },
    {
      "midi": 48,
      "hit": false,
      "t": 85484.37499999988,
      "d": 953.1250000000146,
      "v": 53
    },
    {
      "midi": 65,
      "hit": false,
      "t": 85515.62500000003,
      "d": 432.2916666666715,
      "v": 112
    },
    {
      "midi": 64,
      "hit": false,
      "t": 85750.00000000003,
      "d": 312.5,
      "v": 110
    },
    {
      "midi": 55,
      "hit": false,
      "t": 85989.58333333323,
      "d": 984.375,
      "v": 65
    }
  ]
}