{
  "jsonPath": "Rock/Melodic Metal/TIMO TOLKKI/intro.json",
  "path": "Rock\\Melodic Metal\\TIMO TOLKKI\\Intro.mid",
  "name": "Intro",
  "difficulty": "Intermediate",
  "bpm": 79.00006978339498,
  "notes": [
    {
      "midi": 51,
      "hit": false,
      "t": 9113.916,
      "d": 189.87325000000055,
      "v": 89
    },
    {
      "midi": 63,
      "hit": false,
      "t": 9303.78925,
      "d": 189.87325000000055,
      "v": 66
    },
    {
      "midi": 75,
      "hit": false,
      "t": 9495.640346354166,
      "d": 189.87325000000055,
      "v": 79
    },
    {
      "midi": 75,
      "hit": false,
      "t": 9873.409,
      "d": 189.87325000000055,
      "v": 87
    },
    {
      "midi": 63,
      "hit": false,
      "t": 10253.1555,
      "d": 189.87325000000055,
      "v": 71
    },
    {
      "midi": 75,
      "hit": false,
      "t": 10446.984442708335,
      "d": 189.87325000000055,
      "v": 81
    },
    {
      "midi": 63,
      "hit": false,
      "t": 11010.670653645835,
      "d": 189.87325000000055,
      "v": 64
    },
    {
      "midi": 63,
      "hit": false,
      "t": 11768.18580729167,
      "d": 189.87325000000055,
      "v": 69
    },
    {
      "midi": 76,
      "hit": false,
      "t": 12151.888000000003,
      "d": 189.87325000000055,
      "v": 79
    },
    {
      "midi": 82,
      "hit": false,
      "t": 12525.700960937504,
      "d": 189.87325000000055,
      "v": 89
    },
    {
      "midi": 58,
      "hit": false,
      "t": 12907.42530729167,
      "d": 189.87325000000055,
      "v": 71
    },
    {
      "midi": 83,
      "hit": false,
      "t": 13287.171807291672,
      "d": 189.87325000000055,
      "v": 87
    },
    {
      "midi": 63,
      "hit": false,
      "t": 13666.918307291673,
      "d": 189.87325000000055,
      "v": 66
    },
    {
      "midi": 75,
      "hit": false,
      "t": 13860.747250000008,
      "d": 189.87325000000055,
      "v": 76
    },
    {
      "midi": 76,
      "hit": false,
      "t": 14046.664807291674,
      "d": 189.87325000000055,
      "v": 71
    },
    {
      "midi": 51,
      "hit": false,
      "t": 14430.367000000007,
      "d": 189.87325000000055,
      "v": 79
    },
    {
      "midi": 58,
      "hit": false,
      "t": 14620.240250000008,
      "d": 189.87325000000055,
      "v": 71
    },
    {
      "midi": 80,
      "hit": false,
      "t": 14810.113500000009,
      "d": 189.87325000000055,
      "v": 71
    },
    {
      "midi": 76,
      "hit": false,
      "t": 14999.98675000001,
      "d": 189.87325000000055,
      "v": 73
    },
    {
      "midi": 56,
      "hit": false,
      "t": 15185.904307291676,
      "d": 189.87325000000055,
      "v": 64
    },
    {
      "midi": 58,
      "hit": false,
      "t": 15379.73325000001,
      "d": 189.87325000000055,
      "v": 64
    },
    {
      "midi": 63,
      "hit": false,
      "t": 15571.584346354177,
      "d": 189.87325000000055,
      "v": 83
    },
    {
      "midi": 75,
      "hit": false,
      "t": 15755.524057291677,
      "d": 189.87325000000055,
      "v": 80
    },
    {
      "midi": 63,
      "hit": false,
      "t": 16141.204096354179,
      "d": 189.87324999999873,
      "v": 71
    },
    {
      "midi": 80,
      "hit": false,
      "t": 16329.099500000011,
      "d": 189.87325000000055,
      "v": 83
    },
    {
      "midi": 51,
      "hit": false,
      "t": 16738.51369531251,
      "d": 189.87325000000055,
      "v": 69
    },
    {
      "midi": 68,
      "hit": false,
      "t": 17086.614653645844,
      "d": 189.87325000000055,
      "v": 73
    },
    {
      "midi": 58,
      "hit": false,
      "t": 17470.316846354177,
      "d": 189.87325000000055,
      "v": 76
    },
    {
      "midi": 70,
      "hit": false,
      "t": 17660.190096354178,
      "d": 189.87325000000055,
      "v": 71
    },
    {
      "midi": 63,
      "hit": false,
      "t": 18041.914442708345,
      "d": 189.87325000000055,
      "v": 71
    },
    {
      "midi": 75,
      "hit": false,
      "t": 18227.832000000013,
      "d": 189.87325000000055,
      "v": 81
    },
    {
      "midi": 58,
      "hit": false,
      "t": 18601.644960937512,
      "d": 189.87325000000055,
      "v": 76
    },
    {
      "midi": 75,
      "hit": false,
      "t": 18793.49605729168,
      "d": 189.87325000000055,
      "v": 71
    },
    {
      "midi": 76,
      "hit": false,
      "t": 18983.36930729168,
      "d": 189.87325000000055,
      "v": 79
    },
    {
      "midi": 82,
      "hit": false,
      "t": 19177.198250000012,
      "d": 189.87325000000055,
      "v": 87
    },
    {
      "midi": 51,
      "hit": false,
      "t": 19363.11580729168,
      "d": 189.87325000000055,
      "v": 76
    },
    {
      "midi": 76,
      "hit": false,
      "t": 19363.11580729168,
      "d": 189.87325000000055,
      "v": 63
    },
    {
      "midi": 83,
      "hit": false,
      "t": 19742.86230729168,
      "d": 189.87325000000055,
      "v": 76
    },
    {
      "midi": 63,
      "hit": false,
      "t": 20122.608807291683,
      "d": 189.87325000000055,
      "v": 76
    },
    {
      "midi": 75,
      "hit": false,
      "t": 20122.608807291683,
      "d": 189.87325000000055,
      "v": 63
    },
    {
      "midi": 83,
      "hit": false,
      "t": 20314.45990364585,
      "d": 189.87325000000055,
      "v": 30
    },
    {
      "midi": 80,
      "hit": false,
      "t": 20506.311000000016,
      "d": 189.87325000000055,
      "v": 81
    },
    {
      "midi": 76,
      "hit": false,
      "t": 20886.057500000017,
      "d": 189.87325000000055,
      "v": 76
    },
    {
      "midi": 51,
      "hit": false,
      "t": 21261.848307291686,
      "d": 189.87325000000055,
      "v": 89
    },
    {
      "midi": 76,
      "hit": false,
      "t": 21261.848307291686,
      "d": 189.87325000000055,
      "v": 79
    },
    {
      "midi": 58,
      "hit": false,
      "t": 21831.468057291688,
      "d": 189.87325000000055,
      "v": 66
    },
    {
      "midi": 80,
      "hit": false,
      "t": 22217.148096354187,
      "d": 189.87325000000055,
      "v": 87
    },
    {
      "midi": 63,
      "hit": false,
      "t": 22976.64109635419,
      "d": 189.87325000000055,
      "v": 64
    },
    {
      "midi": 58,
      "hit": false,
      "t": 23920.07380729169,
      "d": 189.87325000000055,
      "v": 69
    },
    {
      "midi": 76,
      "hit": false,
      "t": 24303.776000000023,
      "d": 189.87325000000055,
      "v": 79
    },
    {
      "midi": 80,
      "hit": false,
      "t": 24869.44005729169,
      "d": 189.87325000000055,
      "v": 89
    },
    {
      "midi": 58,
      "hit": false,
      "t": 25253.142250000023,
      "d": 189.87325000000055,
      "v": 71
    },
    {
      "midi": 82,
      "hit": false,
      "t": 25439.05980729169,
      "d": 189.87325000000055,
      "v": 87
    },
    {
      "midi": 63,
      "hit": false,
      "t": 25630.910903645858,
      "d": 189.87325000000055,
      "v": 66
    },
    {
      "midi": 83,
      "hit": false,
      "t": 26198.552807291693,
      "d": 189.87325000000055,
      "v": 71
    },
    {
      "midi": 63,
      "hit": false,
      "t": 26582.255000000026,
      "d": 189.87325000000055,
      "v": 71
    },
    {
      "midi": 76,
      "hit": false,
      "t": 26962.001500000028,
      "d": 189.87325000000055,
      "v": 71
    },
    {
      "midi": 80,
      "hit": false,
      "t": 27337.792307291696,
      "d": 189.87325000000055,
      "v": 64
    },
    {
      "midi": 58,
      "hit": false,
      "t": 27723.472346354196,
      "d": 189.87324999999691,
      "v": 59
    },
    {
      "midi": 70,
      "hit": false,
      "t": 27907.412057291695,
      "d": 189.87324999999691,
      "v": 59
    },
    {
      "midi": 82,
      "hit": false,
      "t": 27907.412057291695,
      "d": 189.87324999999691,
      "v": 80
    },
    {
      "midi": 58,
      "hit": false,
      "t": 28293.09209635419,
      "d": 189.87325000000055,
      "v": 71
    },
    {
      "midi": 75,
      "hit": false,
      "t": 28480.987500000025,
      "d": 189.87325000000055,
      "v": 83
    },
    {
      "midi": 51,
      "hit": false,
      "t": 28890.401695312525,
      "d": 189.87325000000055,
      "v": 69
    },
    {
      "midi": 58,
      "hit": false,
      "t": 29052.585096354193,
      "d": 189.87325000000055,
      "v": 76
    },
    {
      "midi": 58,
      "hit": false,
      "t": 29622.204846354194,
      "d": 189.87325000000055,
      "v": 73
    },
    {
      "midi": 64,
      "hit": false,
      "t": 29812.078096354195,
      "d": 189.87324999999691,
      "v": 71
    },
    {
      "midi": 82,
      "hit": false,
      "t": 29996.017807291693,
      "d": 189.87324999999691,
      "v": 71
    },
    {
      "midi": 83,
      "hit": false,
      "t": 30193.80244270836,
      "d": 189.87325000000055,
      "v": 71
    },
    {
      "midi": 76,
      "hit": false,
      "t": 30379.720000000027,
      "d": 189.87325000000055,
      "v": 81
    },
    {
      "midi": 63,
      "hit": false,
      "t": 30753.532960937526,
      "d": 189.87325000000055,
      "v": 76
    },
    {
      "midi": 75,
      "hit": false,
      "t": 30945.384057291692,
      "d": 189.87325000000055,
      "v": 71
    },
    {
      "midi": 51,
      "hit": false,
      "t": 31515.003807291694,
      "d": 189.87325000000055,
      "v": 76
    },
    {
      "midi": 87,
      "hit": false,
      "t": 31515.003807291694,
      "d": 189.87325000000055,
      "v": 87
    },
    {
      "midi": 70,
      "hit": false,
      "t": 31894.750307291695,
      "d": 189.87325000000055,
      "v": 76
    },
    {
      "midi": 63,
      "hit": false,
      "t": 32088.579250000028,
      "d": 189.87325000000055,
      "v": 76
    },
    {
      "midi": 58,
      "hit": false,
      "t": 32274.496807291696,
      "d": 189.87325000000055,
      "v": 63
    },
    {
      "midi": 68,
      "hit": false,
      "t": 32466.347903645863,
      "d": 189.87325000000055,
      "v": 66
    },
    {
      "midi": 70,
      "hit": false,
      "t": 32658.19900000003,
      "d": 189.87324999999691,
      "v": 81
    },
    {
      "midi": 63,
      "hit": false,
      "t": 33037.94550000002,
      "d": 189.87324999999691,
      "v": 76
    },
    {
      "midi": 51,
      "hit": false,
      "t": 82021.28830729169,
      "d": 189.8732500000042,
      "v": 66
    },
    {
      "midi": 76,
      "hit": false,
      "t": 82021.28830729169,
      "d": 189.8732500000042,
      "v": 66
    },
    {
      "midi": 58,
      "hit": false,
      "t": 82590.90805729169,
      "d": 189.8732500000042,
      "v": 39
    },
    {
      "midi": 80,
      "hit": false,
      "t": 82976.58809635419,
      "d": 189.8732500000042,
      "v": 52
    },
    {
      "midi": 63,
      "hit": false,
      "t": 83736.08109635419,
      "d": 189.8732500000042,
      "v": 48
    },
    {
      "midi": 58,
      "hit": false,
      "t": 84679.51380729169,
      "d": 189.8732500000042,
      "v": 69
    },
    {
      "midi": 76,
      "hit": false,
      "t": 85063.21600000003,
      "d": 189.8732500000042,
      "v": 79
    },
    {
      "midi": 82,
      "hit": false,
      "t": 85437.02896093753,
      "d": 189.8732500000042,
      "v": 75
    },
    {
      "midi": 58,
      "hit": false,
      "t": 85818.7533072917,
      "d": 189.8732500000042,
      "v": 71
    },
    {
      "midi": 83,
      "hit": false,
      "t": 86198.49980729171,
      "d": 189.8732500000042,
      "v": 87
    },
    {
      "midi": 63,
      "hit": false,
      "t": 86390.35090364589,
      "d": 189.8732500000042,
      "v": 66
    },
    {
      "midi": 75,
      "hit": false,
      "t": 86772.07525000005,
      "d": 189.8732500000042,
      "v": 71
    },
    {
      "midi": 51,
      "hit": false,
      "t": 87341.69500000005,
      "d": 189.8732500000042,
      "v": 71
    },
    {
      "midi": 80,
      "hit": false,
      "t": 87721.44150000006,
      "d": 189.8732500000042,
      "v": 71
    },
    {
      "midi": 76,
      "hit": false,
      "t": 87911.31475000006,
      "d": 94.9366250000021,
      "v": 61
    },
    {
      "midi": 75,
      "hit": false,
      "t": 88020.09629947924,
      "d": 94.9366250000021,
      "v": 57
    },
    {
      "midi": 73,
      "hit": false,
      "t": 88097.23230729174,
      "d": 189.8732500000042,
      "v": 55
    },
    {
      "midi": 58,
      "hit": false,
      "t": 88482.91234635423,
      "d": 189.8732500000042,
      "v": 59
    },
    {
      "midi": 75,
      "hit": false,
      "t": 88666.85205729173,
      "d": 189.8732500000042,
      "v": 61
    },
    {
      "midi": 58,
      "hit": false,
      "t": 89052.53209635423,
      "d": 189.8732500000042,
      "v": 71
    },
    {
      "midi": 80,
      "hit": false,
      "t": 89240.42750000006,
      "d": 189.8732500000042,
      "v": 80
    },
    {
      "midi": 51,
      "hit": false,
      "t": 89649.84169531257,
      "d": 189.8732500000042,
      "v": 69
    },
    {
      "midi": 68,
      "hit": false,
      "t": 89997.9426536459,
      "d": 189.8732500000042,
      "v": 76
    },
    {
      "midi": 58,
      "hit": false,
      "t": 90381.64484635425,
      "d": 189.8732500000042,
      "v": 73
    },
    {
      "midi": 70,
      "hit": false,
      "t": 90571.51809635425,
      "d": 189.8732500000042,
      "v": 71
    },
    {
      "midi": 63,
      "hit": false,
      "t": 90953.24244270842,
      "d": 189.8732500000042,
      "v": 71
    },
    {
      "midi": 75,
      "hit": false,
      "t": 91139.16000000009,
      "d": 189.8732500000042,
      "v": 81
    },
    {
      "midi": 58,
      "hit": false,
      "t": 91512.9729609376,
      "d": 189.8732500000042,
      "v": 76
    },
    {
      "midi": 75,
      "hit": false,
      "t": 91704.82405729177,
      "d": 189.8732500000042,
      "v": 71
    },
    {
      "midi": 76,
      "hit": false,
      "t": 91894.69730729178,
      "d": 189.8732500000042,
      "v": 71
    },
    {
      "midi": 82,
      "hit": false,
      "t": 92088.52625000011,
      "d": 189.8732500000042,
      "v": 87
    },
    {
      "midi": 51,
      "hit": false,
      "t": 92274.44380729178,
      "d": 189.8732500000042,
      "v": 76
    },
    {
      "midi": 76,
      "hit": false,
      "t": 92274.44380729178,
      "d": 189.8732500000042,
      "v": 71
    },
    {
      "midi": 83,
      "hit": false,
      "t": 92654.19030729179,
      "d": 189.8732500000042,
      "v": 76
    },
    {
      "midi": 58,
      "hit": false,
      "t": 93033.9368072918,
      "d": 189.8732500000042,
      "v": 63
    },
    {
      "midi": 80,
      "hit": false,
      "t": 93417.63900000014,
      "d": 189.8732500000042,
      "v": 81
    },
    {
      "midi": 76,
      "hit": false,
      "t": 93797.38550000015,
      "d": 189.8732500000042,
      "v": 76
    }
  ]
}