{
  "jsonPath": "Rock/Country Rock/The Mavericks/i-should-have-been-true.json",
  "path": "Rock\\Country Rock\\The Mavericks\\I Should Have Been True.mid",
  "name": "I Should Have Been True",
  "difficulty": "Advanced",
  "bpm": 100,
  "notes": [
    {
      "midi": 62,
      "hit": false,
      "t": 2406.25,
      "d": 2115.625,
      "v": 57
    },
    {
      "midi": 67,
      "hit": false,
      "t": 2406.25,
      "d": 2125,
      "v": 72
    },
    {
      "midi": 64,
      "hit": false,
      "t": 2406.25,
      "d": 2134.375,
      "v": 60
    },
    {
      "midi": 55,
      "hit": false,
      "t": 2406.25,
      "d": 3115.625,
      "v": 55
    },
    {
      "midi": 48,
      "hit": false,
      "t": 2406.25,
      "d": 3259.375,
      "v": 54
    },
    {
      "midi": 60,
      "hit": false,
      "t": 2409.375,
      "d": 1890.625,
      "v": 46
    },
    {
      "midi": 62,
      "hit": false,
      "t": 4803.125,
      "d": 546.875,
      "v": 62
    },
    {
      "midi": 64,
      "hit": false,
      "t": 5403.125,
      "d": 1168.75,
      "v": 60
    },
    {
      "midi": 55,
      "hit": false,
      "t": 5703.125,
      "d": 737.5,
      "v": 52
    },
    {
      "midi": 57,
      "hit": false,
      "t": 7206.25,
      "d": 840.625,
      "v": 54
    },
    {
      "midi": 60,
      "hit": false,
      "t": 7206.25,
      "d": 1043.75,
      "v": 60
    },
    {
      "midi": 45,
      "hit": false,
      "t": 7206.25,
      "d": 1125,
      "v": 56
    },
    {
      "midi": 64,
      "hit": false,
      "t": 7209.375,
      "d": 1021.875,
      "v": 54
    },
    {
      "midi": 59,
      "hit": false,
      "t": 9003.125,
      "d": 312.5,
      "v": 45
    },
    {
      "midi": 57,
      "hit": false,
      "t": 9303.125,
      "d": 1943.75,
      "v": 40
    },
    {
      "midi": 60,
      "hit": false,
      "t": 9603.125,
      "d": 1653.125,
      "v": 55
    },
    {
      "midi": 64,
      "hit": false,
      "t": 9603.125,
      "d": 1693.75,
      "v": 58
    },
    {
      "midi": 65,
      "hit": false,
      "t": 12006.25,
      "d": 734.375,
      "v": 53
    },
    {
      "midi": 57,
      "hit": false,
      "t": 12006.25,
      "d": 4018.75,
      "v": 50
    },
    {
      "midi": 69,
      "hit": false,
      "t": 12009.375,
      "d": 687.5,
      "v": 62
    },
    {
      "midi": 62,
      "hit": false,
      "t": 12009.375,
      "d": 3921.875,
      "v": 46
    },
    {
      "midi": 50,
      "hit": false,
      "t": 12009.375,
      "d": 3962.5,
      "v": 49
    },
    {
      "midi": 76,
      "hit": false,
      "t": 14103.125,
      "d": 962.5,
      "v": 62
    },
    {
      "midi": 69,
      "hit": false,
      "t": 15603.125,
      "d": 268.75,
      "v": 52
    },
    {
      "midi": 65,
      "hit": false,
      "t": 15603.125,
      "d": 303.125,
      "v": 46
    },
    {
      "midi": 50,
      "hit": false,
      "t": 16803.125,
      "d": 1628.125,
      "v": 62
    },
    {
      "midi": 43,
      "hit": false,
      "t": 16806.25,
      "d": 1650,
      "v": 52
    },
    {
      "midi": 55,
      "hit": false,
      "t": 16806.25,
      "d": 1675,
      "v": 47
    },
    {
      "midi": 67,
      "hit": false,
      "t": 16806.25,
      "d": 2056.25,
      "v": 58
    },
    {
      "midi": 59,
      "hit": false,
      "t": 16806.25,
      "d": 2125,
      "v": 43
    },
    {
      "midi": 62,
      "hit": false,
      "t": 16806.25,
      "d": 2175,
      "v": 56
    },
    {
      "midi": 55,
      "hit": false,
      "t": 18906.25,
      "d": 2315.625,
      "v": 52
    },
    {
      "midi": 50,
      "hit": false,
      "t": 19206.25,
      "d": 2009.375,
      "v": 62
    },
    {
      "midi": 72,
      "hit": false,
      "t": 20400,
      "d": 271.875,
      "v": 58
    },
    {
      "midi": 71,
      "hit": false,
      "t": 20703.125,
      "d": 312.5,
      "v": 50
    },
    {
      "midi": 67,
      "hit": false,
      "t": 21000,
      "d": 131.25,
      "v": 56
    },
    {
      "midi": 60,
      "hit": false,
      "t": 21609.375,
      "d": 3246.875,
      "v": 57
    },
    {
      "midi": 55,
      "hit": false,
      "t": 21609.375,
      "d": 3306.25,
      "v": 58
    },
    {
      "midi": 64,
      "hit": false,
      "t": 21612.5,
      "d": 2543.75,
      "v": 62
    },
    {
      "midi": 67,
      "hit": false,
      "t": 21612.5,
      "d": 2656.25,
      "v": 66
    },
    {
      "midi": 48,
      "hit": false,
      "t": 21612.5,
      "d": 3209.375,
      "v": 61
    },
    {
      "midi": 72,
      "hit": false,
      "t": 25500,
      "d": 240.625,
      "v": 58
    },
    {
      "midi": 71,
      "hit": false,
      "t": 25803.125,
      "d": 243.75,
      "v": 62
    },
    {
      "midi": 67,
      "hit": false,
      "t": 26100,
      "d": 121.875,
      "v": 41
    },
    {
      "midi": 67,
      "hit": false,
      "t": 26406.25,
      "d": 1200,
      "v": 63
    },
    {
      "midi": 55,
      "hit": false,
      "t": 26406.25,
      "d": 1293.75,
      "v": 54
    },
    {
      "midi": 50,
      "hit": false,
      "t": 26409.375,
      "d": 1156.25,
      "v": 64
    },
    {
      "midi": 43,
      "hit": false,
      "t": 26409.375,
      "d": 1256.25,
      "v": 57
    },
    {
      "midi": 62,
      "hit": false,
      "t": 26409.375,
      "d": 1281.25,
      "v": 56
    },
    {
      "midi": 48,
      "hit": false,
      "t": 28806.25,
      "d": 1325,
      "v": 47
    },
    {
      "midi": 41,
      "hit": false,
      "t": 28806.25,
      "d": 1418.75,
      "v": 52
    },
    {
      "midi": 60,
      "hit": false,
      "t": 28809.375,
      "d": 606.25,
      "v": 64
    },
    {
      "midi": 57,
      "hit": false,
      "t": 28809.375,
      "d": 621.875,
      "v": 47
    },
    {
      "midi": 53,
      "hit": false,
      "t": 28809.375,
      "d": 1371.875,
      "v": 39
    },
    {
      "midi": 65,
      "hit": false,
      "t": 30303.125,
      "d": 528.125,
      "v": 64
    },
    {
      "midi": 53,
      "hit": false,
      "t": 30600,
      "d": 231.25,
      "v": 48
    },
    {
      "midi": 60,
      "hit": false,
      "t": 30903.125,
      "d": 103.125,
      "v": 52
    },
    {
      "midi": 65,
      "hit": false,
      "t": 31203.125,
      "d": 1468.75,
      "v": 65
    },
    {
      "midi": 62,
      "hit": false,
      "t": 31203.125,
      "d": 1562.5,
      "v": 58
    },
    {
      "midi": 38,
      "hit": false,
      "t": 31203.125,
      "d": 2868.75,
      "v": 66
    },
    {
      "midi": 50,
      "hit": false,
      "t": 31203.125,
      "d": 3212.5,
      "v": 62
    },
    {
      "midi": 69,
      "hit": false,
      "t": 33606.25,
      "d": 412.5,
      "v": 59
    },
    {
      "midi": 65,
      "hit": false,
      "t": 33609.375,
      "d": 571.875,
      "v": 65
    },
    {
      "midi": 65,
      "hit": false,
      "t": 34800,
      "d": 196.875,
      "v": 65
    },
    {
      "midi": 62,
      "hit": false,
      "t": 34803.125,
      "d": 287.5,
      "v": 58
    },
    {
      "midi": 67,
      "hit": false,
      "t": 36003.125,
      "d": 1203.125,
      "v": 56
    },
    {
      "midi": 62,
      "hit": false,
      "t": 36003.125,
      "d": 1228.125,
      "v": 62
    },
    {
      "midi": 59,
      "hit": false,
      "t": 36003.125,
      "d": 1296.875,
      "v": 49
    },
    {
      "midi": 55,
      "hit": false,
      "t": 36006.25,
      "d": 1006.25,
      "v": 57
    },
    {
      "midi": 43,
      "hit": false,
      "t": 36006.25,
      "d": 2750,
      "v": 68
    },
    {
      "midi": 50,
      "hit": false,
      "t": 38703.125,
      "d": 271.875,
      "v": 45
    },
    {
      "midi": 55,
      "hit": false,
      "t": 39000,
      "d": 475,
      "v": 57
    },
    {
      "midi": 57,
      "hit": false,
      "t": 39303.125,
      "d": 887.5,
      "v": 58
    },
    {
      "midi": 55,
      "hit": false,
      "t": 40203.125,
      "d": 146.875,
      "v": 51
    },
    {
      "midi": 48,
      "hit": false,
      "t": 40809.375,
      "d": 6.25,
      "v": 52
    },
    {
      "midi": 60,
      "hit": false,
      "t": 40809.375,
      "d": 6.25,
      "v": 41
    },
    {
      "midi": 64,
      "hit": false,
      "t": 40809.375,
      "d": 6.25,
      "v": 49
    },
    {
      "midi": 67,
      "hit": false,
      "t": 40809.375,
      "d": 6.25,
      "v": 54
    },
    {
      "midi": 55,
      "hit": false,
      "t": 40812.5,
      "d": 1896.875,
      "v": 51
    },
    {
      "midi": 88,
      "hit": false,
      "t": 41250,
      "d": 156.25,
      "v": 40
    },
    {
      "midi": 86,
      "hit": false,
      "t": 41325,
      "d": 131.25,
      "v": 69
    },
    {
      "midi": 84,
      "hit": false,
      "t": 41403.125,
      "d": 121.875,
      "v": 71
    },
    {
      "midi": 62,
      "hit": false,
      "t": 43206.25,
      "d": 581.25,
      "v": 45
    },
    {
      "midi": 60,
      "hit": false,
      "t": 44703.125,
      "d": 368.75,
      "v": 48
    },
    {
      "midi": 64,
      "hit": false,
      "t": 45000,
      "d": 146.875,
      "v": 48
    },
    {
      "midi": 62,
      "hit": false,
      "t": 45609.375,
      "d": 1281.25,
      "v": 61
    },
    {
      "midi": 55,
      "hit": false,
      "t": 45609.375,
      "d": 1309.375,
      "v": 51
    },
    {
      "midi": 59,
      "hit": false,
      "t": 45609.375,
      "d": 1315.625,
      "v": 55
    },
    {
      "midi": 43,
      "hit": false,
      "t": 45609.375,
      "d": 1321.875,
      "v": 57
    },
    {
      "midi": 86,
      "hit": false,
      "t": 45975,
      "d": 162.5,
      "v": 48
    },
    {
      "midi": 84,
      "hit": false,
      "t": 46053.125,
      "d": 137.5,
      "v": 57
    },
    {
      "midi": 83,
      "hit": false,
      "t": 46125,
      "d": 146.875,
      "v": 71
    },
    {
      "midi": 57,
      "hit": false,
      "t": 48009.375,
      "d": 821.875,
      "v": 42
    },
    {
      "midi": 41,
      "hit": false,
      "t": 48009.375,
      "d": 1665.625,
      "v": 45
    },
    {
      "midi": 53,
      "hit": false,
      "t": 48009.375,
      "d": 1737.5,
      "v": 36
    },
    {
      "midi": 60,
      "hit": false,
      "t": 48012.5,
      "d": 815.625,
      "v": 65
    },
    {
      "midi": 65,
      "hit": false,
      "t": 49200,
      "d": 431.25,
      "v": 51
    },
    {
      "midi": 60,
      "hit": false,
      "t": 49203.125,
      "d": 412.5,
      "v": 63
    },
    {
      "midi": 50,
      "hit": false,
      "t": 50403.125,
      "d": 706.25,
      "v": 49
    },
    {
      "midi": 62,
      "hit": false,
      "t": 50406.25,
      "d": 553.125,
      "v": 39
    },
    {
      "midi": 65,
      "hit": false,
      "t": 50406.25,
      "d": 918.75,
      "v": 48
    },
    {
      "midi": 69,
      "hit": false,
      "t": 50406.25,
      "d": 940.625,
      "v": 57
    },
    {
      "midi": 86,
      "hit": false,
      "t": 50778.125,
      "d": 171.875,
      "v": 52
    },
    {
      "midi": 84,
      "hit": false,
      "t": 50850,
      "d": 131.25,
      "v": 51
    },
    {
      "midi": 81,
      "hit": false,
      "t": 50925,
      "d": 131.25,
      "v": 85
    },
    {
      "midi": 57,
      "hit": false,
      "t": 51303.125,
      "d": 2703.125,
      "v": 43
    },
    {
      "midi": 65,
      "hit": false,
      "t": 51603.125,
      "d": 1268.75,
      "v": 45
    },
    {
      "midi": 62,
      "hit": false,
      "t": 51900,
      "d": 2156.25,
      "v": 34
    },
    {
      "midi": 69,
      "hit": false,
      "t": 52200,
      "d": 540.625,
      "v": 61
    },
    {
      "midi": 72,
      "hit": false,
      "t": 53406.25,
      "d": 809.375,
      "v": 58
    },
    {
      "midi": 69,
      "hit": false,
      "t": 53406.25,
      "d": 859.375,
      "v": 55
    },
    {
      "midi": 65,
      "hit": false,
      "t": 54603.125,
      "d": 118.75,
      "v": 46
    },
    {
      "midi": 62,
      "hit": false,
      "t": 55209.375,
      "d": 862.5,
      "v": 53
    },
    {
      "midi": 59,
      "hit": false,
      "t": 55209.375,
      "d": 912.5,
      "v": 49
    },
    {
      "midi": 43,
      "hit": false,
      "t": 55209.375,
      "d": 2065.625,
      "v": 50
    },
    {
      "midi": 55,
      "hit": false,
      "t": 55209.375,
      "d": 2112.5,
      "v": 43
    },
    {
      "midi": 86,
      "hit": false,
      "t": 55575,
      "d": 181.25,
      "v": 35
    },
    {
      "midi": 84,
      "hit": false,
      "t": 55650,
      "d": 146.875,
      "v": 56
    },
    {
      "midi": 83,
      "hit": false,
      "t": 55728.125,
      "d": 150,
      "v": 71
    },
    {
      "midi": 67,
      "hit": false,
      "t": 57006.25,
      "d": 234.375,
      "v": 48
    },
    {
      "midi": 62,
      "hit": false,
      "t": 57006.25,
      "d": 393.75,
      "v": 56
    },
    {
      "midi": 62,
      "hit": false,
      "t": 57606.25,
      "d": 1343.75,
      "v": 56
    },
    {
      "midi": 59,
      "hit": false,
      "t": 57606.25,
      "d": 1346.875,
      "v": 49
    },
    {
      "midi": 55,
      "hit": false,
      "t": 57606.25,
      "d": 1443.75,
      "v": 54
    },
    {
      "midi": 55,
      "hit": false,
      "t": 60009.375,
      "d": 415.625,
      "v": 53
    },
    {
      "midi": 62,
      "hit": false,
      "t": 60012.5,
      "d": 212.5,
      "v": 60
    },
    {
      "midi": 60,
      "hit": false,
      "t": 60012.5,
      "d": 390.625,
      "v": 50
    },
    {
      "midi": 48,
      "hit": false,
      "t": 60012.5,
      "d": 793.75,
      "v": 54
    },
    {
      "midi": 64,
      "hit": false,
      "t": 60303.125,
      "d": 137.5,
      "v": 60
    },
    {
      "midi": 67,
      "hit": false,
      "t": 60906.25,
      "d": 909.375,
      "v": 58
    },
    {
      "midi": 64,
      "hit": false,
      "t": 60906.25,
      "d": 934.375,
      "v": 56
    },
    {
      "midi": 64,
      "hit": false,
      "t": 62406.25,
      "d": 315.625,
      "v": 62
    },
    {
      "midi": 60,
      "hit": false,
      "t": 62406.25,
      "d": 356.25,
      "v": 53
    },
    {
      "midi": 45,
      "hit": false,
      "t": 62406.25,
      "d": 1584.375,
      "v": 26
    },
    {
      "midi": 57,
      "hit": false,
      "t": 62406.25,
      "d": 1625,
      "v": 46
    },
    {
      "midi": 59,
      "hit": false,
      "t": 63309.375,
      "d": 596.875,
      "v": 43
    },
    {
      "midi": 64,
      "hit": false,
      "t": 63309.375,
      "d": 690.625,
      "v": 53
    },
    {
      "midi": 67,
      "hit": false,
      "t": 63312.5,
      "d": 612.5,
      "v": 52
    },
    {
      "midi": 57,
      "hit": false,
      "t": 64806.25,
      "d": 850,
      "v": 46
    },
    {
      "midi": 69,
      "hit": false,
      "t": 64809.375,
      "d": 612.5,
      "v": 55
    },
    {
      "midi": 60,
      "hit": false,
      "t": 64809.375,
      "d": 706.25,
      "v": 47
    },
    {
      "midi": 64,
      "hit": false,
      "t": 64809.375,
      "d": 746.875,
      "v": 57
    },
    {
      "midi": 45,
      "hit": false,
      "t": 64809.375,
      "d": 790.625,
      "v": 45
    },
    {
      "midi": 71,
      "hit": false,
      "t": 65703.125,
      "d": 328.125,
      "v": 55
    },
    {
      "midi": 60,
      "hit": false,
      "t": 65703.125,
      "d": 378.125,
      "v": 51
    },
    {
      "midi": 64,
      "hit": false,
      "t": 65703.125,
      "d": 387.5,
      "v": 57
    },
    {
      "midi": 57,
      "hit": false,
      "t": 66903.125,
      "d": 184.375,
      "v": 37
    },
    {
      "midi": 45,
      "hit": false,
      "t": 67209.375,
      "d": 1512.5,
      "v": 64
    },
    {
      "midi": 52,
      "hit": false,
      "t": 67503.125,
      "d": 1243.75,
      "v": 53
    },
    {
      "midi": 60,
      "hit": false,
      "t": 68106.25,
      "d": 384.375,
      "v": 60
    },
    {
      "midi": 60,
      "hit": false,
      "t": 69006.25,
      "d": 78.125,
      "v": 52
    },
    {
      "midi": 64,
      "hit": false,
      "t": 69006.25,
      "d": 128.125,
      "v": 62
    },
    {
      "midi": 62,
      "hit": false,
      "t": 69606.25,
      "d": 2184.375,
      "v": 52
    },
    {
      "midi": 69,
      "hit": false,
      "t": 69609.375,
      "d": 521.875,
      "v": 54
    },
    {
      "midi": 65,
      "hit": false,
      "t": 69609.375,
      "d": 587.5,
      "v": 60
    },
    {
      "midi": 50,
      "hit": false,
      "t": 69609.375,
      "d": 2100,
      "v": 60
    },
    {
      "midi": 69,
      "hit": false,
      "t": 70503.125,
      "d": 428.125,
      "v": 64
    },
    {
      "midi": 72,
      "hit": false,
      "t": 70506.25,
      "d": 359.375,
      "v": 62
    },
    {
      "midi": 65,
      "hit": false,
      "t": 71406.25,
      "d": 340.625,
      "v": 28
    },
    {
      "midi": 69,
      "hit": false,
      "t": 71406.25,
      "d": 375,
      "v": 64
    },
    {
      "midi": 57,
      "hit": false,
      "t": 71706.25,
      "d": 290.625,
      "v": 47
    },
    {
      "midi": 50,
      "hit": false,
      "t": 72006.25,
      "d": 1843.75,
      "v": 58
    },
    {
      "midi": 57,
      "hit": false,
      "t": 72306.25,
      "d": 1546.875,
      "v": 50
    },
    {
      "midi": 64,
      "hit": false,
      "t": 72606.25,
      "d": 359.375,
      "v": 58
    },
    {
      "midi": 62,
      "hit": false,
      "t": 72906.25,
      "d": 915.625,
      "v": 43
    },
    {
      "midi": 65,
      "hit": false,
      "t": 73200,
      "d": 646.875,
      "v": 57
    },
    {
      "midi": 59,
      "hit": false,
      "t": 74412.5,
      "d": 609.375,
      "v": 51
    },
    {
      "midi": 43,
      "hit": false,
      "t": 74412.5,
      "d": 1975,
      "v": 54
    },
    {
      "midi": 55,
      "hit": false,
      "t": 74412.5,
      "d": 2043.75,
      "v": 49
    },
    {
      "midi": 62,
      "hit": false,
      "t": 74415.625,
      "d": 565.625,
      "v": 58
    },
    {
      "midi": 67,
      "hit": false,
      "t": 75306.25,
      "d": 543.75,
      "v": 51
    },
    {
      "midi": 62,
      "hit": false,
      "t": 75306.25,
      "d": 615.625,
      "v": 66
    },
    {
      "midi": 59,
      "hit": false,
      "t": 76206.25,
      "d": 415.625,
      "v": 62
    },
    {
      "midi": 50,
      "hit": false,
      "t": 76503.125,
      "d": 312.5,
      "v": 41
    },
    {
      "midi": 62,
      "hit": false,
      "t": 76806.25,
      "d": 659.375,
      "v": 66
    },
    {
      "midi": 59,
      "hit": false,
      "t": 76806.25,
      "d": 690.625,
      "v": 50
    },
    {
      "midi": 43,
      "hit": false,
      "t": 76806.25,
      "d": 1515.625,
      "v": 60
    },
    {
      "midi": 59,
      "hit": false,
      "t": 77703.125,
      "d": 909.375,
      "v": 51
    },
    {
      "midi": 62,
      "hit": false,
      "t": 77706.25,
      "d": 928.125,
      "v": 62
    },
    {
      "midi": 67,
      "hit": false,
      "t": 77706.25,
      "d": 934.375,
      "v": 55
    },
    {
      "midi": 55,
      "hit": false,
      "t": 78606.25,
      "d": 165.625,
      "v": 50
    },
    {
      "midi": 60,
      "hit": false,
      "t": 79209.375,
      "d": 646.875,
      "v": 52
    },
    {
      "midi": 64,
      "hit": false,
      "t": 79209.375,
      "d": 690.625,
      "v": 56
    },
    {
      "midi": 48,
      "hit": false,
      "t": 79212.5,
      "d": 1862.5,
      "v": 53
    },
    {
      "midi": 67,
      "hit": false,
      "t": 80106.25,
      "d": 875,
      "v": 58
    },
    {
      "midi": 64,
      "hit": false,
      "t": 80106.25,
      "d": 925,
      "v": 60
    },
    {
      "midi": 60,
      "hit": false,
      "t": 81006.25,
      "d": 140.625,
      "v": 51
    },
    {
      "midi": 60,
      "hit": false,
      "t": 81603.125,
      "d": 343.75,
      "v": 51
    },
    {
      "midi": 57,
      "hit": false,
      "t": 81603.125,
      "d": 1478.125,
      "v": 51
    },
    {
      "midi": 64,
      "hit": false,
      "t": 81606.25,
      "d": 275,
      "v": 64
    },
    {
      "midi": 45,
      "hit": false,
      "t": 81606.25,
      "d": 1543.75,
      "v": 49
    },
    {
      "midi": 59,
      "hit": false,
      "t": 82509.375,
      "d": 500,
      "v": 50
    },
    {
      "midi": 67,
      "hit": false,
      "t": 82509.375,
      "d": 581.25,
      "v": 64
    },
    {
      "midi": 64,
      "hit": false,
      "t": 82509.375,
      "d": 596.875,
      "v": 54
    },
    {
      "midi": 57,
      "hit": false,
      "t": 84009.375,
      "d": 546.875,
      "v": 42
    },
    {
      "midi": 69,
      "hit": false,
      "t": 84009.375,
      "d": 565.625,
      "v": 58
    },
    {
      "midi": 64,
      "hit": false,
      "t": 84009.375,
      "d": 600,
      "v": 55
    },
    {
      "midi": 60,
      "hit": false,
      "t": 84009.375,
      "d": 637.5,
      "v": 49
    },
    {
      "midi": 45,
      "hit": false,
      "t": 84012.5,
      "d": 568.75,
      "v": 39
    },
    {
      "midi": 60,
      "hit": false,
      "t": 84903.125,
      "d": 465.625,
      "v": 68
    },
    {
      "midi": 64,
      "hit": false,
      "t": 85806.25,
      "d": 300,
      "v": 66
    },
    {
      "midi": 60,
      "hit": false,
      "t": 85806.25,
      "d": 303.125,
      "v": 66
    },
    {
      "midi": 52,
      "hit": false,
      "t": 86412.5,
      "d": 528.125,
      "v": 62
    },
    {
      "midi": 62,
      "hit": false,
      "t": 86412.5,
      "d": 609.375,
      "v": 51
    },
    {
      "midi": 60,
      "hit": false,
      "t": 87309.375,
      "d": 818.75,
      "v": 58
    },
    {
      "midi": 64,
      "hit": false,
      "t": 88209.375,
      "d": 128.125,
      "v": 62
    },
    {
      "midi": 69,
      "hit": false,
      "t": 88806.25,
      "d": 525,
      "v": 55
    },
    {
      "midi": 50,
      "hit": false,
      "t": 88806.25,
      "d": 2100,
      "v": 66
    },
    {
      "midi": 65,
      "hit": false,
      "t": 88809.375,
      "d": 546.875,
      "v": 50
    },
    {
      "midi": 62,
      "hit": false,
      "t": 88809.375,
      "d": 2103.125,
      "v": 51
    },
    {
      "midi": 69,
      "hit": false,
      "t": 89709.375,
      "d": 390.625,
      "v": 64
    },
    {
      "midi": 72,
      "hit": false,
      "t": 89709.375,
      "d": 396.875,
      "v": 66
    },
    {
      "midi": 69,
      "hit": false,
      "t": 90609.375,
      "d": 406.25,
      "v": 62
    },
    {
      "midi": 65,
      "hit": false,
      "t": 90609.375,
      "d": 437.5,
      "v": 47
    },
    {
      "midi": 57,
      "hit": false,
      "t": 90906.25,
      "d": 275,
      "v": 47
    },
    {
      "midi": 50,
      "hit": false,
      "t": 91206.25,
      "d": 1575,
      "v": 58
    },
    {
      "midi": 57,
      "hit": false,
      "t": 91506.25,
      "d": 1284.375,
      "v": 54
    },
    {
      "midi": 64,
      "hit": false,
      "t": 91806.25,
      "d": 340.625,
      "v": 58
    },
    {
      "midi": 62,
      "hit": false,
      "t": 92106.25,
      "d": 656.25,
      "v": 46
    },
    {
      "midi": 65,
      "hit": false,
      "t": 92403.125,
      "d": 353.125,
      "v": 60
    },
    {
      "midi": 62,
      "hit": false,
      "t": 93615.625,
      "d": 575,
      "v": 62
    },
    {
      "midi": 59,
      "hit": false,
      "t": 93615.625,
      "d": 606.25,
      "v": 54
    },
    {
      "midi": 43,
      "hit": false,
      "t": 93615.625,
      "d": 1965.625,
      "v": 47
    },
    {
      "midi": 55,
      "hit": false,
      "t": 93615.625,
      "d": 2009.375,
      "v": 49
    },
    {
      "midi": 67,
      "hit": false,
      "t": 94506.25,
      "d": 434.375,
      "v": 51
    },
    {
      "midi": 62,
      "hit": false,
      "t": 94506.25,
      "d": 512.5,
      "v": 70
    },
    {
      "midi": 59,
      "hit": false,
      "t": 95406.25,
      "d": 318.75,
      "v": 57
    },
    {
      "midi": 50,
      "hit": false,
      "t": 95703.125,
      "d": 237.5,
      "v": 42
    },
    {
      "midi": 59,
      "hit": false,
      "t": 96006.25,
      "d": 375,
      "v": 54
    },
    {
      "midi": 43,
      "hit": false,
      "t": 96006.25,
      "d": 1640.625,
      "v": 57
    },
    {
      "midi": 62,
      "hit": false,
      "t": 96009.375,
      "d": 287.5,
      "v": 64
    },
    {
      "midi": 64,
      "hit": false,
      "t": 96606.25,
      "d": 100,
      "v": 54
    },
    {
      "midi": 59,
      "hit": false,
      "t": 96606.25,
      "d": 134.375,
      "v": 54
    },
    {
      "midi": 59,
      "hit": false,
      "t": 96903.125,
      "d": 693.75,
      "v": 64
    },
    {
      "midi": 62,
      "hit": false,
      "t": 96903.125,
      "d": 737.5,
      "v": 62
    },
    {
      "midi": 67,
      "hit": false,
      "t": 98412.5,
      "d": 678.125,
      "v": 57
    },
    {
      "midi": 55,
      "hit": false,
      "t": 98412.5,
      "d": 693.75,
      "v": 51
    },
    {
      "midi": 48,
      "hit": false,
      "t": 98415.625,
      "d": 606.25,
      "v": 51
    },
    {
      "midi": 64,
      "hit": false,
      "t": 98415.625,
      "d": 668.75,
      "v": 54
    },
    {
      "midi": 60,
      "hit": false,
      "t": 98415.625,
      "d": 681.25,
      "v": 46
    },
    {
      "midi": 72,
      "hit": false,
      "t": 99306.25,
      "d": 940.625,
      "v": 58
    },
    {
      "midi": 67,
      "hit": false,
      "t": 99306.25,
      "d": 1009.375,
      "v": 57
    },
    {
      "midi": 62,
      "hit": false,
      "t": 100806.25,
      "d": 525,
      "v": 74
    },
    {
      "midi": 48,
      "hit": false,
      "t": 100806.25,
      "d": 640.625,
      "v": 56
    },
    {
      "midi": 55,
      "hit": false,
      "t": 101406.25,
      "d": 568.75,
      "v": 42
    },
    {
      "midi": 60,
      "hit": false,
      "t": 102006.25,
      "d": 568.75,
      "v": 58
    },
    {
      "midi": 64,
      "hit": false,
      "t": 102006.25,
      "d": 606.25,
      "v": 55
    },
    {
      "midi": 62,
      "hit": false,
      "t": 103209.375,
      "d": 765.625,
      "v": 64
    },
    {
      "midi": 59,
      "hit": false,
      "t": 103209.375,
      "d": 896.875,
      "v": 54
    },
    {
      "midi": 55,
      "hit": false,
      "t": 103209.375,
      "d": 1881.25,
      "v": 49
    },
    {
      "midi": 43,
      "hit": false,
      "t": 103212.5,
      "d": 1812.5,
      "v": 32
    },
    {
      "midi": 67,
      "hit": false,
      "t": 105003.125,
      "d": 156.25,
      "v": 51
    },
    {
      "midi": 59,
      "hit": false,
      "t": 105003.125,
      "d": 181.25,
      "v": 46
    },
    {
      "midi": 62,
      "hit": false,
      "t": 105006.25,
      "d": 134.375,
      "v": 52
    },
    {
      "midi": 41,
      "hit": false,
      "t": 105609.375,
      "d": 1831.25,
      "v": 51
    },
    {
      "midi": 57,
      "hit": false,
      "t": 105612.5,
      "d": 600,
      "v": 54
    },
    {
      "midi": 53,
      "hit": false,
      "t": 105612.5,
      "d": 1803.125,
      "v": 35
    },
    {
      "midi": 60,
      "hit": false,
      "t": 106503.125,
      "d": 859.375,
      "v": 66
    },
    {
      "midi": 65,
      "hit": false,
      "t": 106503.125,
      "d": 900,
      "v": 46
    },
    {
      "midi": 57,
      "hit": false,
      "t": 108006.25,
      "d": 525,
      "v": 58
    },
    {
      "midi": 53,
      "hit": false,
      "t": 108006.25,
      "d": 531.25,
      "v": 42
    },
    {
      "midi": 38,
      "hit": false,
      "t": 108006.25,
      "d": 1084.375,
      "v": 44
    },
    {
      "midi": 50,
      "hit": false,
      "t": 108006.25,
      "d": 1200,
      "v": 49
    },
    {
      "midi": 57,
      "hit": false,
      "t": 108903.125,
      "d": 212.5,
      "v": 74
    },
    {
      "midi": 62,
      "hit": false,
      "t": 108903.125,
      "d": 293.75,
      "v": 55
    },
    {
      "midi": 64,
      "hit": false,
      "t": 110406.25,
      "d": 550,
      "v": 52
    },
    {
      "midi": 62,
      "hit": false,
      "t": 110406.25,
      "d": 1315.625,
      "v": 49
    },
    {
      "midi": 50,
      "hit": false,
      "t": 110409.375,
      "d": 1846.875,
      "v": 43
    },
    {
      "midi": 65,
      "hit": false,
      "t": 111306.25,
      "d": 784.375,
      "v": 66
    },
    {
      "midi": 57,
      "hit": false,
      "t": 112206.25,
      "d": 118.75,
      "v": 64
    },
    {
      "midi": 62,
      "hit": false,
      "t": 112806.25,
      "d": 618.75,
      "v": 62
    },
    {
      "midi": 59,
      "hit": false,
      "t": 112806.25,
      "d": 659.375,
      "v": 38
    },
    {
      "midi": 55,
      "hit": false,
      "t": 112806.25,
      "d": 1884.375,
      "v": 46
    },
    {
      "midi": 43,
      "hit": false,
      "t": 112806.25,
      "d": 1918.75,
      "v": 46
    },
    {
      "midi": 67,
      "hit": false,
      "t": 113703.125,
      "d": 1021.875,
      "v": 56
    },
    {
      "midi": 62,
      "hit": false,
      "t": 113703.125,
      "d": 1128.125,
      "v": 60
    },
    {
      "midi": 59,
      "hit": false,
      "t": 113703.125,
      "d": 1146.875,
      "v": 43
    },
    {
      "midi": 50,
      "hit": false,
      "t": 114609.375,
      "d": 403.125,
      "v": 49
    },
    {
      "midi": 43,
      "hit": false,
      "t": 115209.375,
      "d": 1268.75,
      "v": 60
    },
    {
      "midi": 59,
      "hit": false,
      "t": 115209.375,
      "d": 1306.25,
      "v": 44
    },
    {
      "midi": 62,
      "hit": false,
      "t": 115209.375,
      "d": 1331.25,
      "v": 51
    },
    {
      "midi": 67,
      "hit": false,
      "t": 115209.375,
      "d": 1381.25,
      "v": 54
    },
    {
      "midi": 60,
      "hit": false,
      "t": 117609.375,
      "d": 515.625,
      "v": 51
    },
    {
      "midi": 64,
      "hit": false,
      "t": 117609.375,
      "d": 559.375,
      "v": 52
    },
    {
      "midi": 48,
      "hit": false,
      "t": 117609.375,
      "d": 646.875,
      "v": 45
    },
    {
      "midi": 67,
      "hit": false,
      "t": 117612.5,
      "d": 543.75,
      "v": 54
    },
    {
      "midi": 62,
      "hit": false,
      "t": 118500,
      "d": 331.25,
      "v": 48
    },
    {
      "midi": 60,
      "hit": false,
      "t": 118803.125,
      "d": 443.75,
      "v": 51
    },
    {
      "midi": 64,
      "hit": false,
      "t": 119103.125,
      "d": 371.875,
      "v": 46
    },
    {
      "midi": 55,
      "hit": false,
      "t": 119400,
      "d": 256.25,
      "v": 52
    },
    {
      "midi": 64,
      "hit": false,
      "t": 120003.125,
      "d": 162.5,
      "v": 54
    },
    {
      "midi": 67,
      "hit": false,
      "t": 120003.125,
      "d": 196.875,
      "v": 60
    },
    {
      "midi": 48,
      "hit": false,
      "t": 120003.125,
      "d": 1968.75,
      "v": 51
    },
    {
      "midi": 60,
      "hit": false,
      "t": 120003.125,
      "d": 1993.75,
      "v": 45
    },
    {
      "midi": 72,
      "hit": false,
      "t": 121200,
      "d": 146.875,
      "v": 51
    },
    {
      "midi": 71,
      "hit": false,
      "t": 121503.125,
      "d": 118.75,
      "v": 52
    },
    {
      "midi": 67,
      "hit": false,
      "t": 121806.25,
      "d": 121.875,
      "v": 64
    },
    {
      "midi": 65,
      "hit": false,
      "t": 122409.375,
      "d": 896.875,
      "v": 68
    },
    {
      "midi": 60,
      "hit": false,
      "t": 122409.375,
      "d": 931.25,
      "v": 39
    },
    {
      "midi": 53,
      "hit": false,
      "t": 122409.375,
      "d": 1868.75,
      "v": 49
    },
    {
      "midi": 41,
      "hit": false,
      "t": 122409.375,
      "d": 1912.5,
      "v": 55
    },
    {
      "midi": 56,
      "hit": false,
      "t": 122412.5,
      "d": 903.125,
      "v": 42
    },
    {
      "midi": 65,
      "hit": false,
      "t": 124203.125,
      "d": 228.125,
      "v": 79
    },
    {
      "midi": 60,
      "hit": false,
      "t": 124203.125,
      "d": 237.5,
      "v": 64
    },
    {
      "midi": 56,
      "hit": false,
      "t": 124203.125,
      "d": 253.125,
      "v": 56
    },
    {
      "midi": 51,
      "hit": false,
      "t": 124809.375,
      "d": 631.25,
      "v": 64
    },
    {
      "midi": 54,
      "hit": false,
      "t": 124809.375,
      "d": 656.25,
      "v": 66
    },
    {
      "midi": 47,
      "hit": false,
      "t": 124812.5,
      "d": 1643.75,
      "v": 68
    },
    {
      "midi": 35,
      "hit": false,
      "t": 124812.5,
      "d": 2003.125,
      "v": 58
    },
    {
      "midi": 59,
      "hit": false,
      "t": 125703.125,
      "d": 1012.5,
      "v": 70
    },
    {
      "midi": 54,
      "hit": false,
      "t": 125703.125,
      "d": 1028.125,
      "v": 72
    },
    {
      "midi": 47,
      "hit": false,
      "t": 126603.125,
      "d": 231.25,
      "v": 42
    },
    {
      "midi": 46,
      "hit": false,
      "t": 127206.25,
      "d": 675,
      "v": 51
    },
    {
      "midi": 50,
      "hit": false,
      "t": 127209.375,
      "d": 681.25,
      "v": 60
    },
    {
      "midi": 53,
      "hit": false,
      "t": 127209.375,
      "d": 687.5,
      "v": 79
    },
    {
      "midi": 34,
      "hit": false,
      "t": 127209.375,
      "d": 715.625,
      "v": 46
    },
    {
      "midi": 58,
      "hit": false,
      "t": 128100,
      "d": 715.625,
      "v": 51
    },
    {
      "midi": 53,
      "hit": false,
      "t": 128103.125,
      "d": 843.75,
      "v": 74
    },
    {
      "midi": 41,
      "hit": false,
      "t": 128700,
      "d": 609.375,
      "v": 64
    },
    {
      "midi": 50,
      "hit": false,
      "t": 129000,
      "d": 421.875,
      "v": 58
    },
    {
      "midi": 46,
      "hit": false,
      "t": 129303.125,
      "d": 153.125,
      "v": 42
    },
    {
      "midi": 34,
      "hit": false,
      "t": 129603.125,
      "d": 1303.125,
      "v": 52
    },
    {
      "midi": 53,
      "hit": false,
      "t": 129603.125,
      "d": 1312.5,
      "v": 66
    },
    {
      "midi": 50,
      "hit": false,
      "t": 129606.25,
      "d": 1290.625,
      "v": 46
    },
    {
      "midi": 58,
      "hit": false,
      "t": 129606.25,
      "d": 1315.625,
      "v": 57
    },
    {
      "midi": 46,
      "hit": false,
      "t": 129606.25,
      "d": 1359.375,
      "v": 52
    },
    {
      "midi": 58,
      "hit": false,
      "t": 132009.375,
      "d": 871.875,
      "v": 50
    },
    {
      "midi": 55,
      "hit": false,
      "t": 132009.375,
      "d": 900,
      "v": 35
    },
    {
      "midi": 51,
      "hit": false,
      "t": 132012.5,
      "d": 684.375,
      "v": 48
    },
    {
      "midi": 63,
      "hit": false,
      "t": 132012.5,
      "d": 846.875,
      "v": 60
    },
    {
      "midi": 39,
      "hit": false,
      "t": 132012.5,
      "d": 2059.375,
      "v": 49
    },
    {
      "midi": 91,
      "hit": false,
      "t": 132450,
      "d": 162.5,
      "v": 58
    },
    {
      "midi": 89,
      "hit": false,
      "t": 132528.125,
      "d": 143.75,
      "v": 72
    },
    {
      "midi": 87,
      "hit": false,
      "t": 132603.125,
      "d": 143.75,
      "v": 75
    },
    {
      "midi": 46,
      "hit": false,
      "t": 132906.25,
      "d": 643.75,
      "v": 47
    },
    {
      "midi": 53,
      "hit": false,
      "t": 133503.125,
      "d": 450,
      "v": 62
    },
    {
      "midi": 51,
      "hit": false,
      "t": 133803.125,
      "d": 228.125,
      "v": 45
    },
    {
      "midi": 46,
      "hit": false,
      "t": 134100,
      "d": 246.875,
      "v": 46
    },
    {
      "midi": 53,
      "hit": false,
      "t": 134406.25,
      "d": 440.625,
      "v": 58
    },
    {
      "midi": 39,
      "hit": false,
      "t": 134406.25,
      "d": 1884.375,
      "v": 52
    },
    {
      "midi": 51,
      "hit": false,
      "t": 135603.125,
      "d": 753.125,
      "v": 54
    },
    {
      "midi": 58,
      "hit": false,
      "t": 135603.125,
      "d": 771.875,
      "v": 56
    },
    {
      "midi": 55,
      "hit": false,
      "t": 135606.25,
      "d": 709.375,
      "v": 51
    },
    {
      "midi": 62,
      "hit": false,
      "t": 136809.375,
      "d": 662.5,
      "v": 66
    },
    {
      "midi": 58,
      "hit": false,
      "t": 136809.375,
      "d": 1571.875,
      "v": 42
    },
    {
      "midi": 46,
      "hit": false,
      "t": 136809.375,
      "d": 1956.25,
      "v": 51
    },
    {
      "midi": 89,
      "hit": false,
      "t": 137178.125,
      "d": 168.75,
      "v": 51
    },
    {
      "midi": 87,
      "hit": false,
      "t": 137256.25,
      "d": 134.375,
      "v": 64
    },
    {
      "midi": 86,
      "hit": false,
      "t": 137325,
      "d": 156.25,
      "v": 75
    },
    {
      "midi": 70,
      "hit": false,
      "t": 137706.25,
      "d": 1050,
      "v": 62
    },
    {
      "midi": 65,
      "hit": false,
      "t": 137706.25,
      "d": 1159.375,
      "v": 72
    },
    {
      "midi": 53,
      "hit": false,
      "t": 138606.25,
      "d": 250,
      "v": 62
    },
    {
      "midi": 62,
      "hit": false,
      "t": 138903.125,
      "d": 96.875,
      "v": 39
    },
    {
      "midi": 56,
      "hit": false,
      "t": 139209.375,
      "d": 481.25,
      "v": 47
    },
    {
      "midi": 44,
      "hit": false,
      "t": 139209.375,
      "d": 556.25,
      "v": 46
    },
    {
      "midi": 60,
      "hit": false,
      "t": 139212.5,
      "d": 581.25,
      "v": 60
    },
    {
      "midi": 51,
      "hit": false,
      "t": 139800,
      "d": 296.875,
      "v": 56
    },
    {
      "midi": 63,
      "hit": false,
      "t": 140103.125,
      "d": 893.75,
      "v": 64
    },
    {
      "midi": 56,
      "hit": false,
      "t": 140700,
      "d": 465.625,
      "v": 42
    },
    {
      "midi": 60,
      "hit": false,
      "t": 141000,
      "d": 175,
      "v": 58
    },
    {
      "midi": 51,
      "hit": false,
      "t": 141303.125,
      "d": 75,
      "v": 58
    },
    {
      "midi": 56,
      "hit": false,
      "t": 141603.125,
      "d": 637.5,
      "v": 51
    },
    {
      "midi": 60,
      "hit": false,
      "t": 141606.25,
      "d": 584.375,
      "v": 62
    },
    {
      "midi": 53,
      "hit": false,
      "t": 141606.25,
      "d": 1434.375,
      "v": 43
    },
    {
      "midi": 41,
      "hit": false,
      "t": 141606.25,
      "d": 1750,
      "v": 52
    },
    {
      "midi": 89,
      "hit": false,
      "t": 141975,
      "d": 165.625,
      "v": 68
    },
    {
      "midi": 87,
      "hit": false,
      "t": 142050,
      "d": 156.25,
      "v": 58
    },
    {
      "midi": 84,
      "hit": false,
      "t": 142125,
      "d": 159.375,
      "v": 71
    },
    {
      "midi": 63,
      "hit": false,
      "t": 142503.125,
      "d": 971.875,
      "v": 62
    },
    {
      "midi": 60,
      "hit": false,
      "t": 142503.125,
      "d": 1137.5,
      "v": 62
    },
    {
      "midi": 48,
      "hit": false,
      "t": 143400,
      "d": 196.875,
      "v": 46
    },
    {
      "midi": 56,
      "hit": false,
      "t": 144009.375,
      "d": 537.5,
      "v": 51
    },
    {
      "midi": 60,
      "hit": false,
      "t": 144009.375,
      "d": 540.625,
      "v": 57
    },
    {
      "midi": 53,
      "hit": false,
      "t": 144009.375,
      "d": 1340.625,
      "v": 57
    },
    {
      "midi": 60,
      "hit": false,
      "t": 144903.125,
      "d": 412.5,
      "v": 62
    },
    {
      "midi": 63,
      "hit": false,
      "t": 144906.25,
      "d": 453.125,
      "v": 68
    },
    {
      "midi": 65,
      "hit": false,
      "t": 146409.375,
      "d": 506.25,
      "v": 64
    },
    {
      "midi": 62,
      "hit": false,
      "t": 146409.375,
      "d": 521.875,
      "v": 53
    },
    {
      "midi": 58,
      "hit": false,
      "t": 146409.375,
      "d": 1193.75,
      "v": 43
    },
    {
      "midi": 46,
      "hit": false,
      "t": 146409.375,
      "d": 1271.875,
      "v": 47
    },
    {
      "midi": 89,
      "hit": false,
      "t": 146778.125,
      "d": 143.75,
      "v": 59
    },
    {
      "midi": 87,
      "hit": false,
      "t": 146853.125,
      "d": 143.75,
      "v": 64
    },
    {
      "midi": 86,
      "hit": false,
      "t": 146928.125,
      "d": 118.75,
      "v": 75
    },
    {
      "midi": 70,
      "hit": false,
      "t": 147303.125,
      "d": 846.875,
      "v": 53
    },
    {
      "midi": 65,
      "hit": false,
      "t": 147303.125,
      "d": 887.5,
      "v": 62
    },
    {
      "midi": 53,
      "hit": false,
      "t": 147606.25,
      "d": 690.625,
      "v": 58
    },
    {
      "midi": 62,
      "hit": false,
      "t": 148206.25,
      "d": 396.875,
      "v": 53
    },
    {
      "midi": 65,
      "hit": false,
      "t": 148806.25,
      "d": 525,
      "v": 68
    },
    {
      "midi": 62,
      "hit": false,
      "t": 148806.25,
      "d": 559.375,
      "v": 49
    },
    {
      "midi": 46,
      "hit": false,
      "t": 148806.25,
      "d": 1915.625,
      "v": 52
    },
    {
      "midi": 65,
      "hit": false,
      "t": 149703.125,
      "d": 562.5,
      "v": 79
    },
    {
      "midi": 70,
      "hit": false,
      "t": 149706.25,
      "d": 518.75,
      "v": 64
    },
    {
      "midi": 65,
      "hit": false,
      "t": 150300,
      "d": 390.625,
      "v": 76
    },
    {
      "midi": 58,
      "hit": false,
      "t": 150606.25,
      "d": 240.625,
      "v": 47
    },
    {
      "midi": 53,
      "hit": false,
      "t": 150906.25,
      "d": 46.875,
      "v": 49
    },
    {
      "midi": 55,
      "hit": false,
      "t": 151209.375,
      "d": 525,
      "v": 62
    },
    {
      "midi": 58,
      "hit": false,
      "t": 151212.5,
      "d": 503.125,
      "v": 62
    },
    {
      "midi": 39,
      "hit": false,
      "t": 151212.5,
      "d": 834.375,
      "v": 62
    },
    {
      "midi": 51,
      "hit": false,
      "t": 151212.5,
      "d": 884.375,
      "v": 58
    },
    {
      "midi": 58,
      "hit": false,
      "t": 152106.25,
      "d": 1000,
      "v": 74
    },
    {
      "midi": 63,
      "hit": false,
      "t": 152106.25,
      "d": 1000,
      "v": 70
    },
    {
      "midi": 51,
      "hit": false,
      "t": 153006.25,
      "d": 128.125,
      "v": 43
    },
    {
      "midi": 60,
      "hit": false,
      "t": 153603.125,
      "d": 418.75,
      "v": 46
    },
    {
      "midi": 48,
      "hit": false,
      "t": 153606.25,
      "d": 418.75,
      "v": 30
    },
    {
      "midi": 63,
      "hit": false,
      "t": 153606.25,
      "d": 475,
      "v": 72
    },
    {
      "midi": 62,
      "hit": false,
      "t": 154509.375,
      "d": 546.875,
      "v": 56
    },
    {
      "midi": 58,
      "hit": false,
      "t": 154509.375,
      "d": 550,
      "v": 51
    },
    {
      "midi": 43,
      "hit": false,
      "t": 154509.375,
      "d": 781.25,
      "v": 62
    },
    {
      "midi": 55,
      "hit": false,
      "t": 154509.375,
      "d": 896.875,
      "v": 46
    },
    {
      "midi": 62,
      "hit": false,
      "t": 155409.375,
      "d": 143.75,
      "v": 62
    },
    {
      "midi": 67,
      "hit": false,
      "t": 155409.375,
      "d": 162.5,
      "v": 51
    },
    {
      "midi": 60,
      "hit": false,
      "t": 156009.375,
      "d": 487.5,
      "v": 47
    },
    {
      "midi": 63,
      "hit": false,
      "t": 156009.375,
      "d": 503.125,
      "v": 74
    },
    {
      "midi": 48,
      "hit": false,
      "t": 156009.375,
      "d": 537.5,
      "v": 58
    },
    {
      "midi": 72,
      "hit": false,
      "t": 156903.125,
      "d": 878.125,
      "v": 62
    },
    {
      "midi": 67,
      "hit": false,
      "t": 156903.125,
      "d": 912.5,
      "v": 70
    },
    {
      "midi": 55,
      "hit": false,
      "t": 157503.125,
      "d": 496.875,
      "v": 54
    },
    {
      "midi": 63,
      "hit": false,
      "t": 157806.25,
      "d": 418.75,
      "v": 58
    },
    {
      "midi": 60,
      "hit": false,
      "t": 158103.125,
      "d": 203.125,
      "v": 47
    },
    {
      "midi": 65,
      "hit": false,
      "t": 158406.25,
      "d": 668.75,
      "v": 66
    },
    {
      "midi": 48,
      "hit": false,
      "t": 158409.375,
      "d": 456.25,
      "v": 54
    },
    {
      "midi": 55,
      "hit": false,
      "t": 159000,
      "d": 165.625,
      "v": 43
    },
    {
      "midi": 63,
      "hit": false,
      "t": 159306.25,
      "d": 934.375,
      "v": 70
    },
    {
      "midi": 60,
      "hit": false,
      "t": 160203.125,
      "d": 137.5,
      "v": 46
    },
    {
      "midi": 68,
      "hit": false,
      "t": 160809.375,
      "d": 550,
      "v": 64
    },
    {
      "midi": 53,
      "hit": false,
      "t": 160812.5,
      "d": 428.125,
      "v": 62
    },
    {
      "midi": 65,
      "hit": false,
      "t": 160812.5,
      "d": 443.75,
      "v": 60
    },
    {
      "midi": 68,
      "hit": false,
      "t": 161706.25,
      "d": 1000,
      "v": 53
    },
    {
      "midi": 72,
      "hit": false,
      "t": 161706.25,
      "d": 1059.375,
      "v": 66
    },
    {
      "midi": 65,
      "hit": false,
      "t": 162606.25,
      "d": 415.625,
      "v": 54
    },
    {
      "midi": 60,
      "hit": false,
      "t": 162906.25,
      "d": 215.625,
      "v": 46
    },
    {
      "midi": 53,
      "hit": false,
      "t": 163203.125,
      "d": 321.875,
      "v": 62
    },
    {
      "midi": 67,
      "hit": false,
      "t": 163206.25,
      "d": 584.375,
      "v": 62
    },
    {
      "midi": 60,
      "hit": false,
      "t": 163506.25,
      "d": 337.5,
      "v": 64
    },
    {
      "midi": 68,
      "hit": false,
      "t": 163806.25,
      "d": 1359.375,
      "v": 66
    },
    {
      "midi": 65,
      "hit": false,
      "t": 164103.125,
      "d": 571.875,
      "v": 49
    },
    {
      "midi": 60,
      "hit": false,
      "t": 165000,
      "d": 100,
      "v": 57
    },
    {
      "midi": 46,
      "hit": false,
      "t": 165609.375,
      "d": 906.25,
      "v": 62
    },
    {
      "midi": 53,
      "hit": false,
      "t": 165906.25,
      "d": 534.375,
      "v": 56
    },
    {
      "midi": 62,
      "hit": false,
      "t": 166203.125,
      "d": 425,
      "v": 64
    },
    {
      "midi": 58,
      "hit": false,
      "t": 166506.25,
      "d": 815.625,
      "v": 46
    },
    {
      "midi": 65,
      "hit": false,
      "t": 166806.25,
      "d": 534.375,
      "v": 62
    },
    {
      "midi": 62,
      "hit": false,
      "t": 166806.25,
      "d": 575,
      "v": 51
    },
    {
      "midi": 53,
      "hit": false,
      "t": 167406.25,
      "d": 546.875,
      "v": 50
    },
    {
      "midi": 65,
      "hit": false,
      "t": 167703.125,
      "d": 946.875,
      "v": 76
    },
    {
      "midi": 70,
      "hit": false,
      "t": 167706.25,
      "d": 850,
      "v": 64
    },
    {
      "midi": 58,
      "hit": false,
      "t": 168603.125,
      "d": 553.125,
      "v": 51
    },
    {
      "midi": 62,
      "hit": false,
      "t": 168903.125,
      "d": 418.75,
      "v": 70
    },
    {
      "midi": 53,
      "hit": false,
      "t": 169200,
      "d": 556.25,
      "v": 57
    },
    {
      "midi": 65,
      "hit": false,
      "t": 169806.25,
      "d": 150,
      "v": 72
    },
    {
      "midi": 70,
      "hit": false,
      "t": 169806.25,
      "d": 165.625,
      "v": 60
    },
    {
      "midi": 51,
      "hit": false,
      "t": 170409.375,
      "d": 396.875,
      "v": 54
    },
    {
      "midi": 63,
      "hit": false,
      "t": 170412.5,
      "d": 409.375,
      "v": 38
    },
    {
      "midi": 67,
      "hit": false,
      "t": 170412.5,
      "d": 593.75,
      "v": 66
    },
    {
      "midi": 63,
      "hit": false,
      "t": 171306.25,
      "d": 265.625,
      "v": 41
    },
    {
      "midi": 65,
      "hit": false,
      "t": 171306.25,
      "d": 690.625,
      "v": 51
    },
    {
      "midi": 58,
      "hit": false,
      "t": 171900,
      "d": 425,
      "v": 54
    },
    {
      "midi": 67,
      "hit": false,
      "t": 172206.25,
      "d": 290.625,
      "v": 66
    },
    {
      "midi": 48,
      "hit": false,
      "t": 172806.25,
      "d": 334.375,
      "v": 54
    },
    {
      "midi": 60,
      "hit": false,
      "t": 172806.25,
      "d": 359.375,
      "v": 54
    },
    {
      "midi": 63,
      "hit": false,
      "t": 172806.25,
      "d": 650,
      "v": 60
    },
    {
      "midi": 58,
      "hit": false,
      "t": 173709.375,
      "d": 453.125,
      "v": 41
    },
    {
      "midi": 43,
      "hit": false,
      "t": 173709.375,
      "d": 834.375,
      "v": 39
    },
    {
      "midi": 55,
      "hit": false,
      "t": 173709.375,
      "d": 921.875,
      "v": 44
    },
    {
      "midi": 62,
      "hit": false,
      "t": 174606.25,
      "d": 159.375,
      "v": 62
    },
    {
      "midi": 67,
      "hit": false,
      "t": 174606.25,
      "d": 218.75,
      "v": 54
    },
    {
      "midi": 63,
      "hit": false,
      "t": 175206.25,
      "d": 528.125,
      "v": 68
    },
    {
      "midi": 60,
      "hit": false,
      "t": 175206.25,
      "d": 534.375,
      "v": 51
    },
    {
      "midi": 48,
      "hit": false,
      "t": 175206.25,
      "d": 553.125,
      "v": 53
    },
    {
      "midi": 72,
      "hit": false,
      "t": 176103.125,
      "d": 640.625,
      "v": 68
    },
    {
      "midi": 67,
      "hit": false,
      "t": 176103.125,
      "d": 743.75,
      "v": 74
    },
    {
      "midi": 55,
      "hit": false,
      "t": 176700,
      "d": 350,
      "v": 35
    },
    {
      "midi": 63,
      "hit": false,
      "t": 177006.25,
      "d": 443.75,
      "v": 68
    },
    {
      "midi": 60,
      "hit": false,
      "t": 177306.25,
      "d": 193.75,
      "v": 46
    },
    {
      "midi": 65,
      "hit": false,
      "t": 177606.25,
      "d": 265.625,
      "v": 70
    },
    {
      "midi": 48,
      "hit": false,
      "t": 177606.25,
      "d": 525,
      "v": 57
    },
    {
      "midi": 67,
      "hit": false,
      "t": 177903.125,
      "d": 587.5,
      "v": 60
    },
    {
      "midi": 55,
      "hit": false,
      "t": 178203.125,
      "d": 912.5,
      "v": 51
    },
    {
      "midi": 63,
      "hit": false,
      "t": 178506.25,
      "d": 784.375,
      "v": 57
    },
    {
      "midi": 60,
      "hit": false,
      "t": 179400,
      "d": 115.625,
      "v": 52
    },
    {
      "midi": 60,
      "hit": false,
      "t": 180009.375,
      "d": 409.375,
      "v": 54
    },
    {
      "midi": 56,
      "hit": false,
      "t": 180012.5,
      "d": 484.375,
      "v": 45
    },
    {
      "midi": 53,
      "hit": false,
      "t": 180012.5,
      "d": 1287.5,
      "v": 35
    },
    {
      "midi": 41,
      "hit": false,
      "t": 180012.5,
      "d": 1428.125,
      "v": 49
    },
    {
      "midi": 60,
      "hit": false,
      "t": 180906.25,
      "d": 875,
      "v": 64
    },
    {
      "midi": 63,
      "hit": false,
      "t": 180906.25,
      "d": 887.5,
      "v": 72
    },
    {
      "midi": 56,
      "hit": false,
      "t": 181806.25,
      "d": 250,
      "v": 40
    },
    {
      "midi": 48,
      "hit": false,
      "t": 181806.25,
      "d": 300,
      "v": 52
    },
    {
      "midi": 55,
      "hit": false,
      "t": 182403.125,
      "d": 268.75,
      "v": 60
    },
    {
      "midi": 41,
      "hit": false,
      "t": 182403.125,
      "d": 2062.5,
      "v": 66
    },
    {
      "midi": 56,
      "hit": false,
      "t": 182706.25,
      "d": 303.125,
      "v": 56
    },
    {
      "midi": 55,
      "hit": false,
      "t": 183006.25,
      "d": 290.625,
      "v": 50
    },
    {
      "midi": 53,
      "hit": false,
      "t": 183303.125,
      "d": 1112.5,
      "v": 45
    },
    {
      "midi": 60,
      "hit": false,
      "t": 184203.125,
      "d": 203.125,
      "v": 66
    },
    {
      "midi": 56,
      "hit": false,
      "t": 184203.125,
      "d": 221.875,
      "v": 51
    },
    {
      "midi": 50,
      "hit": false,
      "t": 184812.5,
      "d": 571.875,
      "v": 51
    },
    {
      "midi": 34,
      "hit": false,
      "t": 184812.5,
      "d": 993.75,
      "v": 33
    },
    {
      "midi": 46,
      "hit": false,
      "t": 184812.5,
      "d": 1168.75,
      "v": 20
    },
    {
      "midi": 58,
      "hit": false,
      "t": 185706.25,
      "d": 575,
      "v": 54
    },
    {
      "midi": 53,
      "hit": false,
      "t": 185706.25,
      "d": 1209.375,
      "v": 72
    },
    {
      "midi": 41,
      "hit": false,
      "t": 186603.125,
      "d": 353.125,
      "v": 46
    },
    {
      "midi": 41,
      "hit": false,
      "t": 187206.25,
      "d": 550,
      "v": 58
    },
    {
      "midi": 50,
      "hit": false,
      "t": 187206.25,
      "d": 562.5,
      "v": 54
    },
    {
      "midi": 53,
      "hit": false,
      "t": 187206.25,
      "d": 615.625,
      "v": 74
    },
    {
      "midi": 50,
      "hit": false,
      "t": 188106.25,
      "d": 900,
      "v": 47
    },
    {
      "midi": 53,
      "hit": false,
      "t": 188106.25,
      "d": 928.125,
      "v": 62
    },
    {
      "midi": 46,
      "hit": false,
      "t": 188106.25,
      "d": 1015.625,
      "v": 48
    },
    {
      "midi": 58,
      "hit": false,
      "t": 188109.375,
      "d": 981.25,
      "v": 54
    },
    {
      "midi": 55,
      "hit": false,
      "t": 189609.375,
      "d": 615.625,
      "v": 53
    },
    {
      "midi": 58,
      "hit": false,
      "t": 189609.375,
      "d": 621.875,
      "v": 60
    },
    {
      "midi": 51,
      "hit": false,
      "t": 189609.375,
      "d": 1246.875,
      "v": 50
    },
    {
      "midi": 39,
      "hit": false,
      "t": 189609.375,
      "d": 1481.25,
      "v": 51
    },
    {
      "midi": 55,
      "hit": false,
      "t": 190503.125,
      "d": 703.125,
      "v": 51
    },
    {
      "midi": 63,
      "hit": false,
      "t": 190503.125,
      "d": 703.125,
      "v": 57
    },
    {
      "midi": 58,
      "hit": false,
      "t": 190503.125,
      "d": 778.125,
      "v": 58
    },
    {
      "midi": 46,
      "hit": false,
      "t": 191103.125,
      "d": 403.125,
      "v": 54
    },
    {
      "midi": 53,
      "hit": false,
      "t": 191403.125,
      "d": 337.5,
      "v": 51
    },
    {
      "midi": 51,
      "hit": false,
      "t": 191700,
      "d": 265.625,
      "v": 49
    },
    {
      "midi": 46,
      "hit": false,
      "t": 192003.125,
      "d": 512.5,
      "v": 60
    },
    {
      "midi": 58,
      "hit": false,
      "t": 192003.125,
      "d": 521.875,
      "v": 60
    },
    {
      "midi": 55,
      "hit": false,
      "t": 192003.125,
      "d": 546.875,
      "v": 60
    },
    {
      "midi": 74,
      "hit": false,
      "t": 194406.25,
      "d": 175,
      "v": 48
    },
    {
      "midi": 67,
      "hit": false,
      "t": 194406.25,
      "d": 225,
      "v": 47
    },
    {
      "midi": 48,
      "hit": false,
      "t": 194406.25,
      "d": 1575,
      "v": 45
    },
    {
      "midi": 36,
      "hit": false,
      "t": 194406.25,
      "d": 1609.375,
      "v": 44
    },
    {
      "midi": 63,
      "hit": false,
      "t": 194409.375,
      "d": 221.875,
      "v": 53
    },
    {
      "midi": 63,
      "hit": false,
      "t": 194703.125,
      "d": 78.125,
      "v": 41
    },
    {
      "midi": 72,
      "hit": false,
      "t": 194703.125,
      "d": 121.875,
      "v": 55
    },
    {
      "midi": 67,
      "hit": false,
      "t": 194703.125,
      "d": 128.125,
      "v": 46
    },
    {
      "midi": 74,
      "hit": false,
      "t": 195000,
      "d": 143.75,
      "v": 38
    },
    {
      "midi": 79,
      "hit": false,
      "t": 195303.125,
      "d": 103.125,
      "v": 69
    },
    {
      "midi": 77,
      "hit": false,
      "t": 195900,
      "d": 90.625,
      "v": 61
    },
    {
      "midi": 75,
      "hit": false,
      "t": 196203.125,
      "d": 121.875,
      "v": 48
    },
    {
      "midi": 74,
      "hit": false,
      "t": 196503.125,
      "d": 118.75,
      "v": 67
    },
    {
      "midi": 79,
      "hit": false,
      "t": 196803.125,
      "d": 437.5,
      "v": 57
    },
    {
      "midi": 74,
      "hit": false,
      "t": 196806.25,
      "d": 431.25,
      "v": 53
    },
    {
      "midi": 43,
      "hit": false,
      "t": 196806.25,
      "d": 475,
      "v": 45
    },
    {
      "midi": 47,
      "hit": false,
      "t": 196806.25,
      "d": 515.625,
      "v": 44
    },
    {
      "midi": 50,
      "hit": false,
      "t": 196806.25,
      "d": 550,
      "v": 44
    },
    {
      "midi": 55,
      "hit": false,
      "t": 196806.25,
      "d": 550,
      "v": 39
    },
    {
      "midi": 77,
      "hit": false,
      "t": 197400,
      "d": 221.875,
      "v": 55
    },
    {
      "midi": 74,
      "hit": false,
      "t": 197403.125,
      "d": 231.25,
      "v": 55
    },
    {
      "midi": 72,
      "hit": false,
      "t": 198003.125,
      "d": 168.75,
      "v": 47
    },
    {
      "midi": 76,
      "hit": false,
      "t": 198006.25,
      "d": 184.375,
      "v": 53
    },
    {
      "midi": 71,
      "hit": false,
      "t": 198606.25,
      "d": 300,
      "v": 55
    },
    {
      "midi": 74,
      "hit": false,
      "t": 198606.25,
      "d": 325,
      "v": 53
    },
    {
      "midi": 62,
      "hit": false,
      "t": 199209.375,
      "d": 240.625,
      "v": 62
    },
    {
      "midi": 60,
      "hit": false,
      "t": 199209.375,
      "d": 412.5,
      "v": 51
    },
    {
      "midi": 55,
      "hit": false,
      "t": 199209.375,
      "d": 425,
      "v": 47
    },
    {
      "midi": 48,
      "hit": false,
      "t": 199209.375,
      "d": 2053.125,
      "v": 46
    },
    {
      "midi": 64,
      "hit": false,
      "t": 199503.125,
      "d": 187.5,
      "v": 58
    },
    {
      "midi": 67,
      "hit": false,
      "t": 200103.125,
      "d": 659.375,
      "v": 54
    },
    {
      "midi": 64,
      "hit": false,
      "t": 200106.25,
      "d": 609.375,
      "v": 38
    },
    {
      "midi": 60,
      "hit": false,
      "t": 200703.125,
      "d": 562.5,
      "v": 47
    },
    {
      "midi": 64,
      "hit": false,
      "t": 201006.25,
      "d": 340.625,
      "v": 50
    },
    {
      "midi": 55,
      "hit": false,
      "t": 201306.25,
      "d": 84.375,
      "v": 46
    },
    {
      "midi": 69,
      "hit": false,
      "t": 201606.25,
      "d": 496.875,
      "v": 56
    },
    {
      "midi": 64,
      "hit": false,
      "t": 201606.25,
      "d": 528.125,
      "v": 53
    },
    {
      "midi": 57,
      "hit": false,
      "t": 201606.25,
      "d": 984.375,
      "v": 46
    },
    {
      "midi": 64,
      "hit": false,
      "t": 202506.25,
      "d": 834.375,
      "v": 51
    },
    {
      "midi": 67,
      "hit": false,
      "t": 202506.25,
      "d": 915.625,
      "v": 56
    },
    {
      "midi": 57,
      "hit": false,
      "t": 203406.25,
      "d": 409.375,
      "v": 53
    },
    {
      "midi": 64,
      "hit": false,
      "t": 203706.25,
      "d": 175,
      "v": 43
    },
    {
      "midi": 67,
      "hit": false,
      "t": 204003.125,
      "d": 450,
      "v": 55
    },
    {
      "midi": 64,
      "hit": false,
      "t": 204003.125,
      "d": 471.875,
      "v": 51
    },
    {
      "midi": 57,
      "hit": false,
      "t": 204003.125,
      "d": 1034.375,
      "v": 59
    },
    {
      "midi": 69,
      "hit": false,
      "t": 204903.125,
      "d": 375,
      "v": 63
    },
    {
      "midi": 64,
      "hit": false,
      "t": 204903.125,
      "d": 443.75,
      "v": 51
    },
    {
      "midi": 64,
      "hit": false,
      "t": 205806.25,
      "d": 959.375,
      "v": 55
    },
    {
      "midi": 72,
      "hit": false,
      "t": 205806.25,
      "d": 959.375,
      "v": 73
    },
    {
      "midi": 45,
      "hit": false,
      "t": 206409.375,
      "d": 1906.25,
      "v": 55
    },
    {
      "midi": 52,
      "hit": false,
      "t": 206703.125,
      "d": 518.75,
      "v": 39
    },
    {
      "midi": 60,
      "hit": false,
      "t": 207000,
      "d": 421.875,
      "v": 57
    },
    {
      "midi": 57,
      "hit": false,
      "t": 207303.125,
      "d": 828.125,
      "v": 31
    },
    {
      "midi": 60,
      "hit": false,
      "t": 207606.25,
      "d": 350,
      "v": 53
    },
    {
      "midi": 64,
      "hit": false,
      "t": 207606.25,
      "d": 400,
      "v": 67
    },
    {
      "midi": 52,
      "hit": false,
      "t": 208203.125,
      "d": 143.75,
      "v": 55
    },
    {
      "midi": 69,
      "hit": false,
      "t": 208806.25,
      "d": 790.625,
      "v": 62
    },
    {
      "midi": 62,
      "hit": false,
      "t": 208809.375,
      "d": 756.25,
      "v": 49
    },
    {
      "midi": 65,
      "hit": false,
      "t": 208812.5,
      "d": 803.125,
      "v": 39
    },
    {
      "midi": 50,
      "hit": false,
      "t": 208812.5,
      "d": 878.125,
      "v": 54
    },
    {
      "midi": 72,
      "hit": false,
      "t": 208815.625,
      "d": 790.625,
      "v": 62
    },
    {
      "midi": 57,
      "hit": false,
      "t": 210606.25,
      "d": 181.25,
      "v": 48
    },
    {
      "midi": 50,
      "hit": false,
      "t": 211203.125,
      "d": 778.125,
      "v": 46
    },
    {
      "midi": 69,
      "hit": false,
      "t": 211203.125,
      "d": 912.5,
      "v": 54
    },
    {
      "midi": 62,
      "hit": false,
      "t": 211206.25,
      "d": 828.125,
      "v": 42
    },
    {
      "midi": 72,
      "hit": false,
      "t": 211206.25,
      "d": 890.625,
      "v": 60
    },
    {
      "midi": 65,
      "hit": false,
      "t": 211206.25,
      "d": 925,
      "v": 36
    },
    {
      "midi": 65,
      "hit": false,
      "t": 212703.125,
      "d": 259.375,
      "v": 43
    },
    {
      "midi": 57,
      "hit": false,
      "t": 213003.125,
      "d": 268.75,
      "v": 54
    },
    {
      "midi": 55,
      "hit": false,
      "t": 213606.25,
      "d": 1331.25,
      "v": 56
    },
    {
      "midi": 43,
      "hit": false,
      "t": 213609.375,
      "d": 1187.5,
      "v": 51
    },
    {
      "midi": 59,
      "hit": false,
      "t": 213906.25,
      "d": 359.375,
      "v": 51
    },
    {
      "midi": 67,
      "hit": false,
      "t": 214506.25,
      "d": 656.25,
      "v": 54
    },
    {
      "midi": 62,
      "hit": false,
      "t": 214506.25,
      "d": 693.75,
      "v": 68
    },
    {
      "midi": 43,
      "hit": false,
      "t": 215406.25,
      "d": 318.75,
      "v": 64
    },
    {
      "midi": 55,
      "hit": false,
      "t": 215406.25,
      "d": 384.375,
      "v": 52
    },
    {
      "midi": 67,
      "hit": false,
      "t": 215409.375,
      "d": 365.625,
      "v": 58
    },
    {
      "midi": 62,
      "hit": false,
      "t": 215409.375,
      "d": 371.875,
      "v": 62
    },
    {
      "midi": 59,
      "hit": false,
      "t": 215409.375,
      "d": 400,
      "v": 42
    },
    {
      "midi": 43,
      "hit": false,
      "t": 216003.125,
      "d": 671.875,
      "v": 64
    },
    {
      "midi": 67,
      "hit": false,
      "t": 216003.125,
      "d": 731.25,
      "v": 53
    },
    {
      "midi": 59,
      "hit": false,
      "t": 216006.25,
      "d": 734.375,
      "v": 44
    },
    {
      "midi": 62,
      "hit": false,
      "t": 216006.25,
      "d": 737.5,
      "v": 54
    },
    {
      "midi": 59,
      "hit": false,
      "t": 216903.125,
      "d": 496.875,
      "v": 60
    },
    {
      "midi": 55,
      "hit": false,
      "t": 217203.125,
      "d": 396.875,
      "v": 58
    },
    {
      "midi": 59,
      "hit": false,
      "t": 217806.25,
      "d": 84.375,
      "v": 49
    },
    {
      "midi": 62,
      "hit": false,
      "t": 217806.25,
      "d": 125,
      "v": 60
    },
    {
      "midi": 67,
      "hit": false,
      "t": 217806.25,
      "d": 150,
      "v": 54
    },
    {
      "midi": 62,
      "hit": false,
      "t": 218409.375,
      "d": 315.625,
      "v": 64
    },
    {
      "midi": 48,
      "hit": false,
      "t": 218409.375,
      "d": 662.5,
      "v": 66
    },
    {
      "midi": 60,
      "hit": false,
      "t": 218412.5,
      "d": 328.125,
      "v": 51
    },
    {
      "midi": 64,
      "hit": false,
      "t": 218703.125,
      "d": 1153.125,
      "v": 31
    },
    {
      "midi": 55,
      "hit": false,
      "t": 219306.25,
      "d": 800,
      "v": 58
    },
    {
      "midi": 60,
      "hit": false,
      "t": 220206.25,
      "d": 315.625,
      "v": 51
    },
    {
      "midi": 55,
      "hit": false,
      "t": 220650,
      "d": 125,
      "v": 27
    },
    {
      "midi": 69,
      "hit": false,
      "t": 220803.125,
      "d": 543.75,
      "v": 52
    },
    {
      "midi": 64,
      "hit": false,
      "t": 220803.125,
      "d": 568.75,
      "v": 51
    },
    {
      "midi": 57,
      "hit": false,
      "t": 220803.125,
      "d": 912.5,
      "v": 53
    },
    {
      "midi": 64,
      "hit": false,
      "t": 221703.125,
      "d": 521.875,
      "v": 52
    },
    {
      "midi": 67,
      "hit": false,
      "t": 221706.25,
      "d": 534.375,
      "v": 60
    },
    {
      "midi": 64,
      "hit": false,
      "t": 222606.25,
      "d": 400,
      "v": 60
    },
    {
      "midi": 57,
      "hit": false,
      "t": 222906.25,
      "d": 359.375,
      "v": 47
    },
    {
      "midi": 45,
      "hit": false,
      "t": 223206.25,
      "d": 1884.375,
      "v": 60
    },
    {
      "midi": 60,
      "hit": false,
      "t": 223806.25,
      "d": 415.625,
      "v": 76
    },
    {
      "midi": 57,
      "hit": false,
      "t": 224106.25,
      "d": 731.25,
      "v": 43
    },
    {
      "midi": 69,
      "hit": false,
      "t": 224403.125,
      "d": 665.625,
      "v": 58
    },
    {
      "midi": 64,
      "hit": false,
      "t": 224406.25,
      "d": 784.375,
      "v": 56
    },
    {
      "midi": 52,
      "hit": false,
      "t": 225006.25,
      "d": 296.875,
      "v": 54
    },
    {
      "midi": 69,
      "hit": false,
      "t": 225606.25,
      "d": 634.375,
      "v": 49
    },
    {
      "midi": 45,
      "hit": false,
      "t": 225609.375,
      "d": 587.5,
      "v": 33
    },
    {
      "midi": 64,
      "hit": false,
      "t": 225609.375,
      "d": 606.25,
      "v": 56
    },
    {
      "midi": 57,
      "hit": false,
      "t": 225609.375,
      "d": 612.5,
      "v": 43
    },
    {
      "midi": 60,
      "hit": false,
      "t": 225609.375,
      "d": 621.875,
      "v": 42
    },
    {
      "midi": 57,
      "hit": false,
      "t": 226506.25,
      "d": 1034.375,
      "v": 41
    },
    {
      "midi": 64,
      "hit": false,
      "t": 226509.375,
      "d": 518.75,
      "v": 53
    },
    {
      "midi": 69,
      "hit": false,
      "t": 226509.375,
      "d": 531.25,
      "v": 49
    },
    {
      "midi": 60,
      "hit": false,
      "t": 226509.375,
      "d": 540.625,
      "v": 45
    },
    {
      "midi": 45,
      "hit": false,
      "t": 226509.375,
      "d": 987.5,
      "v": 23
    },
    {
      "midi": 60,
      "hit": false,
      "t": 227406.25,
      "d": 128.125,
      "v": 51
    },
    {
      "midi": 64,
      "hit": false,
      "t": 227406.25,
      "d": 134.375,
      "v": 58
    },
    {
      "midi": 69,
      "hit": false,
      "t": 227406.25,
      "d": 153.125,
      "v": 58
    },
    {
      "midi": 65,
      "hit": false,
      "t": 228006.25,
      "d": 600,
      "v": 53
    },
    {
      "midi": 50,
      "hit": false,
      "t": 228006.25,
      "d": 615.625,
      "v": 39
    },
    {
      "midi": 62,
      "hit": false,
      "t": 228006.25,
      "d": 615.625,
      "v": 43
    },
    {
      "midi": 69,
      "hit": false,
      "t": 228009.375,
      "d": 478.125,
      "v": 37
    },
    {
      "midi": 69,
      "hit": false,
      "t": 228906.25,
      "d": 565.625,
      "v": 49
    },
    {
      "midi": 72,
      "hit": false,
      "t": 228906.25,
      "d": 590.625,
      "v": 62
    },
    {
      "midi": 65,
      "hit": false,
      "t": 228906.25,
      "d": 618.75,
      "v": 31
    },
    {
      "midi": 50,
      "hit": false,
      "t": 228906.25,
      "d": 1140.625,
      "v": 52
    },
    {
      "midi": 62,
      "hit": false,
      "t": 228906.25,
      "d": 1140.625,
      "v": 42
    },
    {
      "midi": 65,
      "hit": false,
      "t": 229806.25,
      "d": 259.375,
      "v": 46
    },
    {
      "midi": 72,
      "hit": false,
      "t": 229806.25,
      "d": 321.875,
      "v": 64
    },
    {
      "midi": 69,
      "hit": false,
      "t": 229806.25,
      "d": 350,
      "v": 57
    },
    {
      "midi": 57,
      "hit": false,
      "t": 230106.25,
      "d": 243.75,
      "v": 47
    },
    {
      "midi": 50,
      "hit": false,
      "t": 230409.375,
      "d": 387.5,
      "v": 68
    },
    {
      "midi": 65,
      "hit": false,
      "t": 230409.375,
      "d": 581.25,
      "v": 60
    },
    {
      "midi": 57,
      "hit": false,
      "t": 230706.25,
      "d": 253.125,
      "v": 52
    },
    {
      "midi": 69,
      "hit": false,
      "t": 231006.25,
      "d": 384.375,
      "v": 68
    },
    {
      "midi": 62,
      "hit": false,
      "t": 231303.125,
      "d": 837.5,
      "v": 50
    },
    {
      "midi": 72,
      "hit": false,
      "t": 232203.125,
      "d": 131.25,
      "v": 68
    },
    {
      "midi": 69,
      "hit": false,
      "t": 232206.25,
      "d": 115.625,
      "v": 54
    },
    {
      "midi": 65,
      "hit": false,
      "t": 232206.25,
      "d": 150,
      "v": 35
    },
    {
      "midi": 43,
      "hit": false,
      "t": 232809.375,
      "d": 900,
      "v": 50
    },
    {
      "midi": 55,
      "hit": false,
      "t": 232809.375,
      "d": 921.875,
      "v": 41
    },
    {
      "midi": 62,
      "hit": false,
      "t": 232812.5,
      "d": 459.375,
      "v": 60
    },
    {
      "midi": 59,
      "hit": false,
      "t": 232812.5,
      "d": 518.75,
      "v": 46
    },
    {
      "midi": 67,
      "hit": false,
      "t": 233706.25,
      "d": 1021.875,
      "v": 53
    },
    {
      "midi": 62,
      "hit": false,
      "t": 233706.25,
      "d": 1278.125,
      "v": 58
    },
    {
      "midi": 50,
      "hit": false,
      "t": 234603.125,
      "d": 262.5,
      "v": 43
    },
    {
      "midi": 55,
      "hit": false,
      "t": 234900,
      "d": 253.125,
      "v": 45
    },
    {
      "midi": 59,
      "hit": false,
      "t": 235209.375,
      "d": 615.625,
      "v": 62
    },
    {
      "midi": 43,
      "hit": false,
      "t": 235209.375,
      "d": 1356.25,
      "v": 62
    },
    {
      "midi": 62,
      "hit": false,
      "t": 236103.125,
      "d": 865.625,
      "v": 60
    },
    {
      "midi": 59,
      "hit": false,
      "t": 236106.25,
      "d": 784.375,
      "v": 51
    },
    {
      "midi": 67,
      "hit": false,
      "t": 236106.25,
      "d": 790.625,
      "v": 55
    },
    {
      "midi": 55,
      "hit": false,
      "t": 237003.125,
      "d": 103.125,
      "v": 52
    },
    {
      "midi": 64,
      "hit": false,
      "t": 237609.375,
      "d": 1375,
      "v": 46
    },
    {
      "midi": 48,
      "hit": false,
      "t": 237609.375,
      "d": 1406.25,
      "v": 51
    },
    {
      "midi": 67,
      "hit": false,
      "t": 237612.5,
      "d": 1340.625,
      "v": 56
    },
    {
      "midi": 60,
      "hit": false,
      "t": 237612.5,
      "d": 1443.75,
      "v": 31
    },
    {
      "midi": 64,
      "hit": false,
      "t": 239403.125,
      "d": 359.375,
      "v": 40
    },
    {
      "midi": 48,
      "hit": false,
      "t": 239406.25,
      "d": 253.125,
      "v": 50
    },
    {
      "midi": 72,
      "hit": false,
      "t": 239406.25,
      "d": 284.375,
      "v": 51
    },
    {
      "midi": 60,
      "hit": false,
      "t": 239406.25,
      "d": 287.5,
      "v": 39
    },
    {
      "midi": 67,
      "hit": false,
      "t": 239406.25,
      "d": 337.5,
      "v": 51
    },
    {
      "midi": 67,
      "hit": false,
      "t": 240006.25,
      "d": 1259.375,
      "v": 50
    },
    {
      "midi": 64,
      "hit": false,
      "t": 240006.25,
      "d": 1290.625,
      "v": 45
    },
    {
      "midi": 60,
      "hit": false,
      "t": 240006.25,
      "d": 1796.875,
      "v": 35
    },
    {
      "midi": 48,
      "hit": false,
      "t": 240006.25,
      "d": 1806.25,
      "v": 47
    },
    {
      "midi": 72,
      "hit": false,
      "t": 240009.375,
      "d": 1256.25,
      "v": 51
    },
    {
      "midi": 62,
      "hit": false,
      "t": 241803.125,
      "d": 225,
      "v": 64
    },
    {
      "midi": 55,
      "hit": false,
      "t": 242103.125,
      "d": 96.875,
      "v": 47
    },
    {
      "midi": 59,
      "hit": false,
      "t": 242409.375,
      "d": 965.625,
      "v": 47
    },
    {
      "midi": 43,
      "hit": false,
      "t": 242409.375,
      "d": 1890.625,
      "v": 74
    },
    {
      "midi": 55,
      "hit": false,
      "t": 242409.375,
      "d": 1956.25,
      "v": 58
    },
    {
      "midi": 67,
      "hit": false,
      "t": 244203.125,
      "d": 171.875,
      "v": 56
    },
    {
      "midi": 62,
      "hit": false,
      "t": 244203.125,
      "d": 212.5,
      "v": 62
    },
    {
      "midi": 59,
      "hit": false,
      "t": 244206.25,
      "d": 259.375,
      "v": 46
    },
    {
      "midi": 57,
      "hit": false,
      "t": 244809.375,
      "d": 859.375,
      "v": 33
    },
    {
      "midi": 60,
      "hit": false,
      "t": 244812.5,
      "d": 812.5,
      "v": 56
    },
    {
      "midi": 41,
      "hit": false,
      "t": 244812.5,
      "d": 1365.625,
      "v": 54
    },
    {
      "midi": 53,
      "hit": false,
      "t": 244812.5,
      "d": 1475,
      "v": 44
    },
    {
      "midi": 60,
      "hit": false,
      "t": 246603.125,
      "d": 112.5,
      "v": 64
    },
    {
      "midi": 65,
      "hit": false,
      "t": 246603.125,
      "d": 137.5,
      "v": 50
    },
    {
      "midi": 69,
      "hit": false,
      "t": 247206.25,
      "d": 643.75,
      "v": 62
    },
    {
      "midi": 65,
      "hit": false,
      "t": 247206.25,
      "d": 790.625,
      "v": 45
    },
    {
      "midi": 50,
      "hit": false,
      "t": 247206.25,
      "d": 1818.75,
      "v": 50
    },
    {
      "midi": 62,
      "hit": false,
      "t": 247209.375,
      "d": 1915.625,
      "v": 44
    },
    {
      "midi": 72,
      "hit": false,
      "t": 249003.125,
      "d": 353.125,
      "v": 54
    },
    {
      "midi": 69,
      "hit": false,
      "t": 249003.125,
      "d": 390.625,
      "v": 64
    },
    {
      "midi": 57,
      "hit": false,
      "t": 249306.25,
      "d": 240.625,
      "v": 43
    },
    {
      "midi": 65,
      "hit": false,
      "t": 249606.25,
      "d": 618.75,
      "v": 62
    },
    {
      "midi": 50,
      "hit": false,
      "t": 249606.25,
      "d": 1943.75,
      "v": 53
    },
    {
      "midi": 69,
      "hit": false,
      "t": 250506.25,
      "d": 518.75,
      "v": 58
    },
    {
      "midi": 72,
      "hit": false,
      "t": 250506.25,
      "d": 540.625,
      "v": 62
    },
    {
      "midi": 62,
      "hit": false,
      "t": 251406.25,
      "d": 140.625,
      "v": 46
    },
    {
      "midi": 69,
      "hit": false,
      "t": 251409.375,
      "d": 121.875,
      "v": 64
    },
    {
      "midi": 65,
      "hit": false,
      "t": 251409.375,
      "d": 162.5,
      "v": 54
    },
    {
      "midi": 59,
      "hit": false,
      "t": 252006.25,
      "d": 684.375,
      "v": 48
    },
    {
      "midi": 43,
      "hit": false,
      "t": 252006.25,
      "d": 1243.75,
      "v": 51
    },
    {
      "midi": 62,
      "hit": false,
      "t": 252009.375,
      "d": 643.75,
      "v": 58
    },
    {
      "midi": 55,
      "hit": false,
      "t": 252012.5,
      "d": 1287.5,
      "v": 24
    },
    {
      "midi": 67,
      "hit": false,
      "t": 252900,
      "d": 921.875,
      "v": 49
    },
    {
      "midi": 59,
      "hit": false,
      "t": 252903.125,
      "d": 1112.5,
      "v": 42
    },
    {
      "midi": 62,
      "hit": false,
      "t": 252903.125,
      "d": 1115.625,
      "v": 46
    },
    {
      "midi": 50,
      "hit": false,
      "t": 253806.25,
      "d": 218.75,
      "v": 46
    },
    {
      "midi": 59,
      "hit": false,
      "t": 254409.375,
      "d": 1256.25,
      "v": 52
    },
    {
      "midi": 43,
      "hit": false,
      "t": 254409.375,
      "d": 1371.875,
      "v": 54
    },
    {
      "midi": 62,
      "hit": false,
      "t": 254412.5,
      "d": 1203.125,
      "v": 56
    },
    {
      "midi": 55,
      "hit": false,
      "t": 254412.5,
      "d": 1343.75,
      "v": 38
    },
    {
      "midi": 43,
      "hit": false,
      "t": 256206.25,
      "d": 184.375,
      "v": 43
    },
    {
      "midi": 62,
      "hit": false,
      "t": 256206.25,
      "d": 200,
      "v": 51
    },
    {
      "midi": 67,
      "hit": false,
      "t": 256206.25,
      "d": 228.125,
      "v": 51
    },
    {
      "midi": 55,
      "hit": false,
      "t": 256206.25,
      "d": 234.375,
      "v": 45
    },
    {
      "midi": 59,
      "hit": false,
      "t": 256209.375,
      "d": 178.125,
      "v": 36
    },
    {
      "midi": 48,
      "hit": false,
      "t": 256812.5,
      "d": 400,
      "v": 62
    },
    {
      "midi": 67,
      "hit": false,
      "t": 256812.5,
      "d": 553.125,
      "v": 62
    },
    {
      "midi": 60,
      "hit": false,
      "t": 256815.625,
      "d": 390.625,
      "v": 50
    },
    {
      "midi": 64,
      "hit": false,
      "t": 256815.625,
      "d": 581.25,
      "v": 43
    },
    {
      "midi": 72,
      "hit": false,
      "t": 257703.125,
      "d": 943.75,
      "v": 72
    },
    {
      "midi": 67,
      "hit": false,
      "t": 257703.125,
      "d": 987.5,
      "v": 72
    },
    {
      "midi": 60,
      "hit": false,
      "t": 258603.125,
      "d": 406.25,
      "v": 52
    },
    {
      "midi": 62,
      "hit": false,
      "t": 258900,
      "d": 118.75,
      "v": 46
    },
    {
      "midi": 48,
      "hit": false,
      "t": 259203.125,
      "d": 368.75,
      "v": 49
    },
    {
      "midi": 64,
      "hit": false,
      "t": 259203.125,
      "d": 712.5,
      "v": 58
    },
    {
      "midi": 55,
      "hit": false,
      "t": 259503.125,
      "d": 268.75,
      "v": 54
    },
    {
      "midi": 64,
      "hit": false,
      "t": 260103.125,
      "d": 900,
      "v": 64
    },
    {
      "midi": 67,
      "hit": false,
      "t": 260103.125,
      "d": 943.75,
      "v": 72
    },
    {
      "midi": 60,
      "hit": false,
      "t": 261003.125,
      "d": 112.5,
      "v": 53
    },
    {
      "midi": 62,
      "hit": false,
      "t": 261606.25,
      "d": 434.375,
      "v": 46
    },
    {
      "midi": 50,
      "hit": false,
      "t": 261606.25,
      "d": 459.375,
      "v": 40
    },
    {
      "midi": 69,
      "hit": false,
      "t": 261606.25,
      "d": 478.125,
      "v": 60
    },
    {
      "midi": 65,
      "hit": false,
      "t": 261606.25,
      "d": 675,
      "v": 47
    },
    {
      "midi": 57,
      "hit": false,
      "t": 262203.125,
      "d": 87.5,
      "v": 30
    },
    {
      "midi": 74,
      "hit": false,
      "t": 262509.375,
      "d": 696.875,
      "v": 64
    },
    {
      "midi": 69,
      "hit": false,
      "t": 262509.375,
      "d": 821.875,
      "v": 62
    },
    {
      "midi": 65,
      "hit": false,
      "t": 262509.375,
      "d": 862.5,
      "v": 41
    },
    {
      "midi": 62,
      "hit": false,
      "t": 263406.25,
      "d": 309.375,
      "v": 56
    },
    {
      "midi": 57,
      "hit": false,
      "t": 263703.125,
      "d": 228.125,
      "v": 54
    },
    {
      "midi": 50,
      "hit": false,
      "t": 264006.25,
      "d": 537.5,
      "v": 43
    },
    {
      "midi": 65,
      "hit": false,
      "t": 264009.375,
      "d": 646.875,
      "v": 17
    },
    {
      "midi": 76,
      "hit": false,
      "t": 264009.375,
      "d": 656.25,
      "v": 57
    },
    {
      "midi": 69,
      "hit": false,
      "t": 264009.375,
      "d": 678.125,
      "v": 53
    },
    {
      "midi": 57,
      "hit": false,
      "t": 264603.125,
      "d": 306.25,
      "v": 47
    },
    {
      "midi": 65,
      "hit": false,
      "t": 264906.25,
      "d": 525,
      "v": 52
    },
    {
      "midi": 62,
      "hit": false,
      "t": 265203.125,
      "d": 556.25,
      "v": 43
    },
    {
      "midi": 69,
      "hit": false,
      "t": 265503.125,
      "d": 243.75,
      "v": 76
    },
    {
      "midi": 65,
      "hit": false,
      "t": 265503.125,
      "d": 318.75,
      "v": 58
    },
    {
      "midi": 57,
      "hit": false,
      "t": 265803.125,
      "d": 212.5,
      "v": 54
    },
    {
      "midi": 43,
      "hit": false,
      "t": 266406.25,
      "d": 890.625,
      "v": 58
    },
    {
      "midi": 71,
      "hit": false,
      "t": 266409.375,
      "d": 196.875,
      "v": 64
    },
    {
      "midi": 67,
      "hit": false,
      "t": 266409.375,
      "d": 212.5,
      "v": 54
    },
    {
      "midi": 62,
      "hit": false,
      "t": 266409.375,
      "d": 231.25,
      "v": 49
    },
    {
      "midi": 55,
      "hit": false,
      "t": 266409.375,
      "d": 821.875,
      "v": 46
    },
    {
      "midi": 59,
      "hit": false,
      "t": 267303.125,
      "d": 378.125,
      "v": 62
    },
    {
      "midi": 62,
      "hit": false,
      "t": 267303.125,
      "d": 390.625,
      "v": 76
    },
    {
      "midi": 50,
      "hit": false,
      "t": 267603.125,
      "d": 487.5,
      "v": 53
    },
    {
      "midi": 67,
      "hit": false,
      "t": 267903.125,
      "d": 350,
      "v": 62
    },
    {
      "midi": 62,
      "hit": false,
      "t": 267903.125,
      "d": 468.75,
      "v": 74
    },
    {
      "midi": 55,
      "hit": false,
      "t": 268203.125,
      "d": 353.125,
      "v": 56
    },
    {
      "midi": 50,
      "hit": false,
      "t": 268500,
      "d": 190.625,
      "v": 57
    },
    {
      "midi": 43,
      "hit": false,
      "t": 268803.125,
      "d": 712.5,
      "v": 60
    },
    {
      "midi": 67,
      "hit": false,
      "t": 268803.125,
      "d": 731.25,
      "v": 62
    },
    {
      "midi": 62,
      "hit": false,
      "t": 268803.125,
      "d": 734.375,
      "v": 66
    },
    {
      "midi": 59,
      "hit": false,
      "t": 268806.25,
      "d": 725,
      "v": 49
    },
    {
      "midi": 55,
      "hit": false,
      "t": 268806.25,
      "d": 784.375,
      "v": 45
    },
    {
      "midi": 59,
      "hit": false,
      "t": 270006.25,
      "d": 168.75,
      "v": 53
    },
    {
      "midi": 43,
      "hit": false,
      "t": 270006.25,
      "d": 181.25,
      "v": 52
    },
    {
      "midi": 62,
      "hit": false,
      "t": 270006.25,
      "d": 193.75,
      "v": 60
    },
    {
      "midi": 67,
      "hit": false,
      "t": 270006.25,
      "d": 218.75,
      "v": 58
    },
    {
      "midi": 55,
      "hit": false,
      "t": 270009.375,
      "d": 221.875,
      "v": 46
    },
    {
      "midi": 60,
      "hit": false,
      "t": 270606.25,
      "d": 168.75,
      "v": 57
    },
    {
      "midi": 45,
      "hit": false,
      "t": 270606.25,
      "d": 184.375,
      "v": 57
    },
    {
      "midi": 67,
      "hit": false,
      "t": 270606.25,
      "d": 184.375,
      "v": 70
    },
    {
      "midi": 64,
      "hit": false,
      "t": 270606.25,
      "d": 190.625,
      "v": 62
    },
    {
      "midi": 57,
      "hit": false,
      "t": 270606.25,
      "d": 225,
      "v": 56
    },
    {
      "midi": 60,
      "hit": false,
      "t": 271206.25,
      "d": 4793.75,
      "v": 51
    },
    {
      "midi": 67,
      "hit": false,
      "t": 271206.25,
      "d": 4793.75,
      "v": 72
    },
    {
      "midi": 48,
      "hit": false,
      "t": 271209.375,
      "d": 4790.625,
      "v": 62
    },
    {
      "midi": 64,
      "hit": false,
      "t": 271209.375,
      "d": 4790.625,
      "v": 60
    }
  ]
}