{
  "jsonPath": "Rock/Country Rock/The Mavericks/o-what-a-thrill.json",
  "path": "Rock\\Country Rock\\The Mavericks\\O What A Thrill.mid",
  "name": "O What A Thrill",
  "difficulty": "Intermediate",
  "bpm": 110.9999056500802,
  "notes": [
    {
      "midi": 69,
      "hit": false,
      "t": 26428.57275,
      "d": 6476.190799999997,
      "v": 47
    },
    {
      "midi": 73,
      "hit": false,
      "t": 26587.302916666667,
      "d": 6547.619374999995,
      "v": 41
    },
    {
      "midi": 76,
      "hit": false,
      "t": 26626.985458333333,
      "d": 6539.682866666666,
      "v": 41
    },
    {
      "midi": 80,
      "hit": false,
      "t": 26666.667999999998,
      "d": 6507.936833333333,
      "v": 41
    },
    {
      "midi": 80,
      "hit": false,
      "t": 34047.620749999995,
      "d": 6111.111416666674,
      "v": 48
    },
    {
      "midi": 76,
      "hit": false,
      "t": 34134.922341666665,
      "d": 5936.508233333334,
      "v": 52
    },
    {
      "midi": 73,
      "hit": false,
      "t": 34238.09695,
      "d": 5785.714574999998,
      "v": 54
    },
    {
      "midi": 69,
      "hit": false,
      "t": 34285.716,
      "d": 5722.222508333332,
      "v": 55
    },
    {
      "midi": 85,
      "hit": false,
      "t": 41666.668750000004,
      "d": 4992.063741666665,
      "v": 46
    },
    {
      "midi": 81,
      "hit": false,
      "t": 41746.033833333335,
      "d": 4912.698658333335,
      "v": 49
    },
    {
      "midi": 78,
      "hit": false,
      "t": 41865.081458333334,
      "d": 4674.603408333336,
      "v": 54
    },
    {
      "midi": 74,
      "hit": false,
      "t": 41904.764,
      "d": 4619.047850000003,
      "v": 58
    },
    {
      "midi": 69,
      "hit": false,
      "t": 56904.76475,
      "d": 6476.190800000004,
      "v": 47
    },
    {
      "midi": 73,
      "hit": false,
      "t": 57063.49491666667,
      "d": 6547.619375000002,
      "v": 41
    },
    {
      "midi": 76,
      "hit": false,
      "t": 57103.17745833334,
      "d": 6539.68286666667,
      "v": 41
    },
    {
      "midi": 80,
      "hit": false,
      "t": 57142.86000000001,
      "d": 6507.936833333333,
      "v": 41
    },
    {
      "midi": 80,
      "hit": false,
      "t": 64523.812750000005,
      "d": 6111.111416666659,
      "v": 48
    },
    {
      "midi": 76,
      "hit": false,
      "t": 64611.114341666675,
      "d": 5936.508233333327,
      "v": 52
    },
    {
      "midi": 73,
      "hit": false,
      "t": 64714.28895000001,
      "d": 5785.714574999998,
      "v": 54
    },
    {
      "midi": 69,
      "hit": false,
      "t": 64761.90800000001,
      "d": 5722.222508333332,
      "v": 55
    },
    {
      "midi": 85,
      "hit": false,
      "t": 72142.86074999999,
      "d": 4992.063741666687,
      "v": 46
    },
    {
      "midi": 81,
      "hit": false,
      "t": 72222.22583333333,
      "d": 4912.698658333349,
      "v": 49
    },
    {
      "midi": 78,
      "hit": false,
      "t": 72341.27345833334,
      "d": 4674.603408333336,
      "v": 54
    },
    {
      "midi": 74,
      "hit": false,
      "t": 72380.956,
      "d": 4619.047850000003,
      "v": 58
    },
    {
      "midi": 69,
      "hit": false,
      "t": 80000.00400000002,
      "d": 1190.476250000007,
      "v": 61
    },
    {
      "midi": 81,
      "hit": false,
      "t": 80000.00400000002,
      "d": 1666.666750000004,
      "v": 61
    },
    {
      "midi": 78,
      "hit": false,
      "t": 80000.00400000002,
      "d": 1904.7620000000024,
      "v": 61
    },
    {
      "midi": 74,
      "hit": false,
      "t": 80000.00400000002,
      "d": 3333.333500000008,
      "v": 61
    },
    {
      "midi": 68,
      "hit": false,
      "t": 81904.76600000002,
      "d": 1190.476250000007,
      "v": 57
    },
    {
      "midi": 80,
      "hit": false,
      "t": 81904.76600000002,
      "d": 1666.666750000004,
      "v": 69
    },
    {
      "midi": 81,
      "hit": false,
      "t": 83809.52800000002,
      "d": 1904.7620000000024,
      "v": 64
    },
    {
      "midi": 74,
      "hit": false,
      "t": 83809.52800000002,
      "d": 3095.2382500000094,
      "v": 64
    },
    {
      "midi": 78,
      "hit": false,
      "t": 83809.52800000002,
      "d": 3095.2382500000094,
      "v": 64
    },
    {
      "midi": 69,
      "hit": false,
      "t": 83809.52800000002,
      "d": 3333.333500000008,
      "v": 64
    },
    {
      "midi": 80,
      "hit": false,
      "t": 85714.29000000002,
      "d": 1190.476250000007,
      "v": 70
    },
    {
      "midi": 81,
      "hit": false,
      "t": 87619.05200000003,
      "d": 555.5555833333347,
      "v": 63
    },
    {
      "midi": 78,
      "hit": false,
      "t": 87619.05200000003,
      "d": 579.3651083333389,
      "v": 63
    },
    {
      "midi": 85,
      "hit": false,
      "t": 87619.05200000003,
      "d": 611.1111416666681,
      "v": 63
    },
    {
      "midi": 88,
      "hit": false,
      "t": 89047.62350000003,
      "d": 158.7301666666608,
      "v": 64
    },
    {
      "midi": 76,
      "hit": false,
      "t": 91428.57600000003,
      "d": 2357.142974999995,
      "v": 57
    },
    {
      "midi": 80,
      "hit": false,
      "t": 91428.57600000003,
      "d": 2428.5715499999933,
      "v": 61
    },
    {
      "midi": 85,
      "hit": false,
      "t": 91428.57600000003,
      "d": 2460.3175833333225,
      "v": 55
    },
    {
      "midi": 88,
      "hit": false,
      "t": 93809.52850000003,
      "d": 174.60318333332543,
      "v": 62
    },
    {
      "midi": 81,
      "hit": false,
      "t": 95238.10000000002,
      "d": 2095.238200000007,
      "v": 59
    },
    {
      "midi": 74,
      "hit": false,
      "t": 95238.10000000002,
      "d": 2166.666775000005,
      "v": 59
    },
    {
      "midi": 85,
      "hit": false,
      "t": 95238.10000000002,
      "d": 2206.349316666674,
      "v": 59
    },
    {
      "midi": 78,
      "hit": false,
      "t": 95238.10000000002,
      "d": 2214.2858250000136,
      "v": 59
    },
    {
      "midi": 88,
      "hit": false,
      "t": 98571.43350000003,
      "d": 555.5555833333347,
      "v": 55
    },
    {
      "midi": 83,
      "hit": false,
      "t": 99047.62400000003,
      "d": 388.88890833333426,
      "v": 56
    },
    {
      "midi": 85,
      "hit": false,
      "t": 99523.81450000002,
      "d": 444.4444666666677,
      "v": 55
    },
    {
      "midi": 81,
      "hit": false,
      "t": 100000.00500000002,
      "d": 103.17460833332734,
      "v": 53
    },
    {
      "midi": 74,
      "hit": false,
      "t": 102619.05275000002,
      "d": 4142.857349999991,
      "v": 55
    },
    {
      "midi": 78,
      "hit": false,
      "t": 102714.29085000002,
      "d": 4071.428774999993,
      "v": 57
    },
    {
      "midi": 81,
      "hit": false,
      "t": 102857.14800000002,
      "d": 3904.7620999999926,
      "v": 60
    },
    {
      "midi": 80,
      "hit": false,
      "t": 106666.672,
      "d": 285.7143000000069,
      "v": 69
    },
    {
      "midi": 80,
      "hit": false,
      "t": 108412.70383333335,
      "d": 1650.7937333333393,
      "v": 44
    },
    {
      "midi": 83,
      "hit": false,
      "t": 108523.81495000001,
      "d": 1404.7619750000013,
      "v": 56
    },
    {
      "midi": 86,
      "hit": false,
      "t": 108571.43400000001,
      "d": 1396.8254666666762,
      "v": 58
    },
    {
      "midi": 92,
      "hit": false,
      "t": 109523.81500000002,
      "d": 944.4444916666689,
      "v": 63
    },
    {
      "midi": 80,
      "hit": false,
      "t": 114285.72000000002,
      "d": 1190.476250000007,
      "v": 65
    },
    {
      "midi": 83,
      "hit": false,
      "t": 114285.72000000002,
      "d": 1190.476250000007,
      "v": 65
    },
    {
      "midi": 71,
      "hit": false,
      "t": 114285.72000000002,
      "d": 1428.5715000000055,
      "v": 65
    },
    {
      "midi": 76,
      "hit": false,
      "t": 114285.72000000002,
      "d": 1428.5715000000055,
      "v": 65
    },
    {
      "midi": 78,
      "hit": false,
      "t": 118095.24400000002,
      "d": 2619.047749999998,
      "v": 63
    },
    {
      "midi": 62,
      "hit": false,
      "t": 118095.24400000002,
      "d": 2857.1429999999964,
      "v": 65
    },
    {
      "midi": 66,
      "hit": false,
      "t": 118095.24400000002,
      "d": 2857.1429999999964,
      "v": 58
    },
    {
      "midi": 69,
      "hit": false,
      "t": 118095.24400000002,
      "d": 2857.1429999999964,
      "v": 61
    },
    {
      "midi": 73,
      "hit": false,
      "t": 118095.24400000002,
      "d": 2857.1429999999964,
      "v": 61
    },
    {
      "midi": 71,
      "hit": false,
      "t": 121904.76800000001,
      "d": 2619.047749999998,
      "v": 59
    },
    {
      "midi": 73,
      "hit": false,
      "t": 121904.76800000001,
      "d": 2619.047749999998,
      "v": 60
    },
    {
      "midi": 76,
      "hit": false,
      "t": 121904.76800000001,
      "d": 2619.047749999998,
      "v": 66
    },
    {
      "midi": 69,
      "hit": false,
      "t": 125714.29200000002,
      "d": 2619.047749999998,
      "v": 41
    },
    {
      "midi": 74,
      "hit": false,
      "t": 125714.29200000002,
      "d": 2619.047749999998,
      "v": 76
    },
    {
      "midi": 78,
      "hit": false,
      "t": 125714.29200000002,
      "d": 2857.1429999999964,
      "v": 61
    },
    {
      "midi": 81,
      "hit": false,
      "t": 125714.29200000002,
      "d": 2857.1429999999964,
      "v": 78
    },
    {
      "midi": 81,
      "hit": false,
      "t": 129523.816,
      "d": 238.0952499999985,
      "v": 78
    },
    {
      "midi": 78,
      "hit": false,
      "t": 129761.91125,
      "d": 238.0952499999985,
      "v": 79
    },
    {
      "midi": 74,
      "hit": false,
      "t": 130000.0065,
      "d": 238.0952499999985,
      "v": 78
    },
    {
      "midi": 81,
      "hit": false,
      "t": 130238.10175,
      "d": 238.0952499999985,
      "v": 80
    },
    {
      "midi": 80,
      "hit": false,
      "t": 130476.197,
      "d": 238.0952499999985,
      "v": 78
    },
    {
      "midi": 76,
      "hit": false,
      "t": 130714.29225,
      "d": 238.0952499999985,
      "v": 68
    },
    {
      "midi": 71,
      "hit": false,
      "t": 130952.3875,
      "d": 238.0952499999985,
      "v": 57
    },
    {
      "midi": 80,
      "hit": false,
      "t": 131190.48275,
      "d": 238.09525000001304,
      "v": 80
    },
    {
      "midi": 78,
      "hit": false,
      "t": 131428.578,
      "d": 238.09525000001304,
      "v": 74
    },
    {
      "midi": 74,
      "hit": false,
      "t": 131666.67325000002,
      "d": 238.09525000001304,
      "v": 68
    },
    {
      "midi": 69,
      "hit": false,
      "t": 131904.76850000003,
      "d": 238.09525000001304,
      "v": 62
    },
    {
      "midi": 78,
      "hit": false,
      "t": 132142.86375000005,
      "d": 238.09525000001304,
      "v": 85
    },
    {
      "midi": 76,
      "hit": false,
      "t": 132380.95900000006,
      "d": 476.190499999997,
      "v": 82
    },
    {
      "midi": 71,
      "hit": false,
      "t": 132857.14950000006,
      "d": 476.190499999997,
      "v": 74
    },
    {
      "midi": 81,
      "hit": false,
      "t": 194285.72400000005,
      "d": 555.5555833333347,
      "v": 63
    },
    {
      "midi": 78,
      "hit": false,
      "t": 194285.72400000005,
      "d": 579.3651083333243,
      "v": 63
    },
    {
      "midi": 85,
      "hit": false,
      "t": 194285.72400000005,
      "d": 611.1111416666536,
      "v": 63
    },
    {
      "midi": 88,
      "hit": false,
      "t": 195714.29550000004,
      "d": 158.73016666667536,
      "v": 64
    },
    {
      "midi": 76,
      "hit": false,
      "t": 198095.24800000002,
      "d": 2357.142974999995,
      "v": 57
    },
    {
      "midi": 80,
      "hit": false,
      "t": 198095.24800000002,
      "d": 2428.5715499999933,
      "v": 61
    },
    {
      "midi": 85,
      "hit": false,
      "t": 198095.24800000002,
      "d": 2460.3175833333225,
      "v": 55
    },
    {
      "midi": 88,
      "hit": false,
      "t": 200476.2005,
      "d": 174.60318333332543,
      "v": 62
    },
    {
      "midi": 81,
      "hit": false,
      "t": 201904.772,
      "d": 2095.2381999999925,
      "v": 59
    },
    {
      "midi": 74,
      "hit": false,
      "t": 201904.772,
      "d": 2166.6667749999906,
      "v": 59
    },
    {
      "midi": 85,
      "hit": false,
      "t": 201904.772,
      "d": 2206.3493166666594,
      "v": 59
    },
    {
      "midi": 78,
      "hit": false,
      "t": 201904.772,
      "d": 2214.285824999999,
      "v": 59
    },
    {
      "midi": 88,
      "hit": false,
      "t": 205238.1055,
      "d": 555.5555833333638,
      "v": 55
    },
    {
      "midi": 83,
      "hit": false,
      "t": 205714.29600000003,
      "d": 388.8889083333488,
      "v": 56
    },
    {
      "midi": 85,
      "hit": false,
      "t": 206190.48650000006,
      "d": 444.4444666666677,
      "v": 55
    },
    {
      "midi": 81,
      "hit": false,
      "t": 206666.67700000005,
      "d": 103.17460833332734,
      "v": 53
    },
    {
      "midi": 81,
      "hit": false,
      "t": 209523.82000000004,
      "d": 555.5555833333347,
      "v": 63
    },
    {
      "midi": 78,
      "hit": false,
      "t": 209523.82000000004,
      "d": 579.3651083333243,
      "v": 63
    },
    {
      "midi": 85,
      "hit": false,
      "t": 209523.82000000004,
      "d": 611.1111416666536,
      "v": 63
    },
    {
      "midi": 88,
      "hit": false,
      "t": 210952.39150000003,
      "d": 158.73016666667536,
      "v": 64
    },
    {
      "midi": 70,
      "hit": false,
      "t": 220912.70945833335,
      "d": 95.23809999998775,
      "v": 56
    },
    {
      "midi": 71,
      "hit": false,
      "t": 220952.39200000002,
      "d": 174.60318333332543,
      "v": 66
    },
    {
      "midi": 66,
      "hit": false,
      "t": 221428.58250000002,
      "d": 103.17460833332734,
      "v": 64
    },
    {
      "midi": 69,
      "hit": false,
      "t": 221428.58250000002,
      "d": 158.73016666664626,
      "v": 64
    },
    {
      "midi": 76,
      "hit": false,
      "t": 221428.58250000002,
      "d": 198.4127083333151,
      "v": 64
    },
    {
      "midi": 66,
      "hit": false,
      "t": 221904.773,
      "d": 1682.539766666654,
      "v": 64
    },
    {
      "midi": 69,
      "hit": false,
      "t": 221904.773,
      "d": 1690.4762749999936,
      "v": 64
    },
    {
      "midi": 76,
      "hit": false,
      "t": 221904.773,
      "d": 1698.4127833333332,
      "v": 64
    },
    {
      "midi": 83,
      "hit": false,
      "t": 223809.53499999997,
      "d": 507.9365333333262,
      "v": 77
    },
    {
      "midi": 85,
      "hit": false,
      "t": 224285.72549999997,
      "d": 531.7460583333159,
      "v": 76
    },
    {
      "midi": 88,
      "hit": false,
      "t": 224761.91599999997,
      "d": 3309.523974999989,
      "v": 70
    },
    {
      "midi": 78,
      "hit": false,
      "t": 224761.91599999997,
      "d": 3341.2700083333184,
      "v": 63
    },
    {
      "midi": 81,
      "hit": false,
      "t": 224761.91599999997,
      "d": 3341.2700083333184,
      "v": 83
    },
    {
      "midi": 80,
      "hit": false,
      "t": 228571.43999999994,
      "d": 6507.9368333333405,
      "v": 41
    },
    {
      "midi": 80,
      "hit": false,
      "t": 235952.39274999994,
      "d": 6111.11141666671,
      "v": 48
    },
    {
      "midi": 76,
      "hit": false,
      "t": 236039.69434166662,
      "d": 5936.508233333356,
      "v": 52
    },
    {
      "midi": 73,
      "hit": false,
      "t": 236142.86894999995,
      "d": 5785.71457500002,
      "v": 54
    },
    {
      "midi": 69,
      "hit": false,
      "t": 236190.48799999995,
      "d": 5722.222508333332,
      "v": 55
    },
    {
      "midi": 85,
      "hit": false,
      "t": 243571.44074999998,
      "d": 4992.063741666701,
      "v": 46
    },
    {
      "midi": 81,
      "hit": false,
      "t": 243650.80583333332,
      "d": 4912.698658333364,
      "v": 49
    },
    {
      "midi": 78,
      "hit": false,
      "t": 243769.85345833332,
      "d": 4674.603408333351,
      "v": 54
    },
    {
      "midi": 74,
      "hit": false,
      "t": 243809.536,
      "d": 4619.047850000003,
      "v": 58
    },
    {
      "midi": 81,
      "hit": false,
      "t": 300952.396,
      "d": 238.09525000001304,
      "v": 78
    },
    {
      "midi": 78,
      "hit": false,
      "t": 301190.49125,
      "d": 238.09525000001304,
      "v": 79
    },
    {
      "midi": 74,
      "hit": false,
      "t": 301428.58650000003,
      "d": 238.09525000001304,
      "v": 78
    },
    {
      "midi": 81,
      "hit": false,
      "t": 301666.68175000005,
      "d": 238.09525000001304,
      "v": 80
    },
    {
      "midi": 80,
      "hit": false,
      "t": 301904.77700000006,
      "d": 238.09525000001304,
      "v": 78
    },
    {
      "midi": 76,
      "hit": false,
      "t": 302142.8722500001,
      "d": 238.09525000001304,
      "v": 68
    },
    {
      "midi": 71,
      "hit": false,
      "t": 302380.9675000001,
      "d": 238.09525000001304,
      "v": 57
    },
    {
      "midi": 80,
      "hit": false,
      "t": 302619.0627500001,
      "d": 238.09525000001304,
      "v": 80
    },
    {
      "midi": 78,
      "hit": false,
      "t": 302857.1580000001,
      "d": 238.09525000001304,
      "v": 74
    },
    {
      "midi": 74,
      "hit": false,
      "t": 303095.2532500001,
      "d": 238.09525000001304,
      "v": 68
    },
    {
      "midi": 69,
      "hit": false,
      "t": 303333.34850000014,
      "d": 238.09525000001304,
      "v": 62
    },
    {
      "midi": 78,
      "hit": false,
      "t": 303571.44375000015,
      "d": 238.09525000001304,
      "v": 85
    },
    {
      "midi": 76,
      "hit": false,
      "t": 303809.53900000016,
      "d": 476.1905000000261,
      "v": 82
    },
    {
      "midi": 71,
      "hit": false,
      "t": 304285.7295000002,
      "d": 476.1905000000261,
      "v": 74
    },
    {
      "midi": 76,
      "hit": false,
      "t": 366190.4945000002,
      "d": 166.66667499998584,
      "v": 53
    },
    {
      "midi": 80,
      "hit": false,
      "t": 366190.4945000002,
      "d": 174.60318333329633,
      "v": 53
    },
    {
      "midi": 83,
      "hit": false,
      "t": 366190.4945000002,
      "d": 174.60318333329633,
      "v": 53
    },
    {
      "midi": 76,
      "hit": false,
      "t": 367619.06600000017,
      "d": 214.28572500002338,
      "v": 54
    },
    {
      "midi": 83,
      "hit": false,
      "t": 367619.06600000017,
      "d": 253.96826666669222,
      "v": 54
    },
    {
      "midi": 80,
      "hit": false,
      "t": 368095.2565000002,
      "d": 230.15874166664435,
      "v": 55
    },
    {
      "midi": 76,
      "hit": false,
      "t": 369047.6375000002,
      "d": 150.79365833330667,
      "v": 53
    },
    {
      "midi": 80,
      "hit": false,
      "t": 369047.6375000002,
      "d": 158.73016666661715,
      "v": 53
    },
    {
      "midi": 83,
      "hit": false,
      "t": 369047.6375000002,
      "d": 198.412708333286,
      "v": 53
    },
    {
      "midi": 80,
      "hit": false,
      "t": 370476.20900000015,
      "d": 79.36508333333768,
      "v": 58
    },
    {
      "midi": 83,
      "hit": false,
      "t": 370476.20900000015,
      "d": 222.22223333333386,
      "v": 58
    },
    {
      "midi": 76,
      "hit": false,
      "t": 370500.01852500014,
      "d": 158.73016666667536,
      "v": 58
    },
    {
      "midi": 85,
      "hit": false,
      "t": 371904.78050000017,
      "d": 222.22223333333386,
      "v": 60
    },
    {
      "midi": 88,
      "hit": false,
      "t": 371904.78050000017,
      "d": 238.09525000001304,
      "v": 60
    },
    {
      "midi": 83,
      "hit": false,
      "t": 372380.9710000002,
      "d": 182.53969166666502,
      "v": 60
    },
    {
      "midi": 88,
      "hit": false,
      "t": 372380.9710000002,
      "d": 198.4127083333442,
      "v": 60
    },
    {
      "midi": 76,
      "hit": false,
      "t": 373809.5425000002,
      "d": 166.66667499998584,
      "v": 58
    },
    {
      "midi": 88,
      "hit": false,
      "t": 373809.5425000002,
      "d": 166.66667499998584,
      "v": 58
    },
    {
      "midi": 83,
      "hit": false,
      "t": 373809.5425000002,
      "d": 214.28572499996517,
      "v": 58
    },
    {
      "midi": 88,
      "hit": false,
      "t": 375238.1140000002,
      "d": 182.53969166666502,
      "v": 55
    },
    {
      "midi": 76,
      "hit": false,
      "t": 375238.1140000002,
      "d": 198.4127083333442,
      "v": 55
    },
    {
      "midi": 81,
      "hit": false,
      "t": 375238.1140000002,
      "d": 238.09525000001304,
      "v": 55
    },
    {
      "midi": 76,
      "hit": false,
      "t": 376190.49500000017,
      "d": 277.7777916666819,
      "v": 61
    },
    {
      "midi": 81,
      "hit": false,
      "t": 376190.49500000017,
      "d": 301.58731666667154,
      "v": 61
    },
    {
      "midi": 88,
      "hit": false,
      "t": 376190.49500000017,
      "d": 317.4603333333507,
      "v": 61
    },
    {
      "midi": 88,
      "hit": false,
      "t": 377619.0665000002,
      "d": 150.79365833330667,
      "v": 60
    },
    {
      "midi": 76,
      "hit": false,
      "t": 377619.0665000002,
      "d": 158.73016666661715,
      "v": 60
    },
    {
      "midi": 83,
      "hit": false,
      "t": 377619.0665000002,
      "d": 206.34921666659648,
      "v": 60
    },
    {
      "midi": 88,
      "hit": false,
      "t": 379047.6380000001,
      "d": 214.28572500002338,
      "v": 60
    },
    {
      "midi": 76,
      "hit": false,
      "t": 379047.6380000001,
      "d": 222.22223333333386,
      "v": 60
    },
    {
      "midi": 81,
      "hit": false,
      "t": 379047.6380000001,
      "d": 230.15874166664435,
      "v": 60
    },
    {
      "midi": 88,
      "hit": false,
      "t": 380000.0190000001,
      "d": 444.4444666666677,
      "v": 63
    },
    {
      "midi": 76,
      "hit": false,
      "t": 380476.2095000001,
      "d": 95.23810000001686,
      "v": 63
    },
    {
      "midi": 81,
      "hit": false,
      "t": 380476.2095000001,
      "d": 126.98413333337521,
      "v": 63
    },
    {
      "midi": 77,
      "hit": false,
      "t": 382793.66993333347,
      "d": 158.73016666667536,
      "v": 60
    },
    {
      "midi": 83,
      "hit": false,
      "t": 382857.1620000001,
      "d": 238.09525000001304,
      "v": 60
    },
    {
      "midi": 78,
      "hit": false,
      "t": 382857.1620000001,
      "d": 261.9047750000027,
      "v": 60
    },
    {
      "midi": 77,
      "hit": false,
      "t": 383730.1779166668,
      "d": 198.4127083333442,
      "v": 60
    },
    {
      "midi": 83,
      "hit": false,
      "t": 383809.5430000001,
      "d": 317.4603333333507,
      "v": 60
    },
    {
      "midi": 78,
      "hit": false,
      "t": 383809.5430000001,
      "d": 341.2698583333404,
      "v": 60
    },
    {
      "midi": 83,
      "hit": false,
      "t": 384285.73350000015,
      "d": 222.22223333333386,
      "v": 58
    },
    {
      "midi": 76,
      "hit": false,
      "t": 384285.73350000015,
      "d": 230.15874166664435,
      "v": 58
    }
  ]
}